0, 0, Header, 0, 1, 48
1, 0, Start_track
1, 0, Title_t, "J.S.Bach Concert for Harpsichord and Orchestra E major BWV1053 1. (Allegro)"
1, 0, Time_signature, 4, 2, 24, 8
1, 0, Channel_prefix, 0
1, 0, Copyright_t, "Copyright 2001 by KCN"
1, 0, Channel_prefix, 0
1, 0, Title_t, "Violino I"
1, 0, Channel_prefix, 0
1, 0, Instrument_name_t, "Strings1"
1, 0, System_exclusive, 5, 126, 127, 9, 1, 247
1, 0, MIDI_port, 0
1, 0, Tempo, 681818
1, 0, Program_c, 0, 48
1, 0, Control_c, 0, 7, 110
1, 0, Note_on_c, 0, 71, 96
1, 0, Channel_prefix, 1
1, 0, Title_t, "Violino II"
1, 0, Channel_prefix, 1
1, 0, Instrument_name_t, "Strings1"
1, 0, MIDI_port, 0
1, 0, Program_c, 1, 48
1, 0, Control_c, 1, 7, 110
1, 0, Channel_prefix, 2
1, 0, Title_t, "Viola"
1, 0, Channel_prefix, 2
1, 0, Instrument_name_t, "Strings1"
1, 0, MIDI_port, 0
1, 0, Program_c, 2, 48
1, 0, Control_c, 2, 7, 110
1, 0, Channel_prefix, 3
1, 0, Title_t, "Continuo"
1, 0, Channel_prefix, 3
1, 0, Instrument_name_t, "Cello"
1, 0, MIDI_port, 0
1, 0, Program_c, 3, 42
1, 0, Note_on_c, 3, 52, 96
1, 0, Channel_prefix, 4
1, 0, Title_t, "Continuo"
1, 0, Channel_prefix, 4
1, 0, Instrument_name_t, "Contrabass"
1, 0, MIDI_port, 0
1, 0, Program_c, 4, 43
1, 0, Note_on_c, 4, 40, 96
1, 0, Channel_prefix, 5
1, 0, Title_t, "Cembalo"
1, 0, Channel_prefix, 5
1, 0, Instrument_name_t, "Harpsichord"
1, 0, MIDI_port, 0
1, 0, Program_c, 5, 6
1, 0, Note_on_c, 5, 71, 96
1, 0, Channel_prefix, 6
1, 0, Title_t, "Cembalo"
1, 0, Channel_prefix, 6
1, 0, Instrument_name_t, "Harpsichord"
1, 0, MIDI_port, 0
1, 0, Program_c, 6, 6
1, 0, MIDI_port, 0
1, 0, Program_c, 6, 6
1, 0, Note_on_c, 6, 40, 96
1, 21, Note_off_c, 0, 71, 0
1, 21, Note_off_c, 3, 52, 0
1, 21, Note_off_c, 4, 40, 0
1, 21, Note_off_c, 5, 71, 0
1, 21, Note_off_c, 6, 40, 0
1, 24, Note_on_c, 0, 76, 96
1, 24, Note_on_c, 3, 40, 96
1, 24, Note_on_c, 4, 28, 96
1, 24, Note_on_c, 5, 76, 96
1, 24, Note_on_c, 6, 52, 96
1, 30, Note_off_c, 6, 52, 0
1, 30, Note_on_c, 6, 51, 96
1, 36, Note_off_c, 0, 76, 0
1, 36, Note_on_c, 0, 75, 96
1, 36, Note_off_c, 5, 76, 0
1, 36, Note_on_c, 5, 75, 96
1, 36, Note_off_c, 6, 51, 0
1, 36, Note_on_c, 6, 52, 96
1, 48, Note_off_c, 0, 75, 0
1, 48, Note_on_c, 0, 76, 96
1, 48, Note_on_c, 1, 71, 96
1, 48, Note_off_c, 5, 75, 0
1, 48, Note_on_c, 5, 76, 96
1, 60, Note_off_c, 0, 76, 0
1, 60, Note_on_c, 0, 80, 96
1, 60, Note_off_c, 5, 76, 0
1, 60, Note_on_c, 5, 80, 96
1, 66, Note_off_c, 3, 40, 0
1, 66, Note_off_c, 4, 28, 0
1, 67, Note_off_c, 6, 52, 0
1, 69, Note_off_c, 1, 71, 0
1, 70, Note_off_c, 0, 80, 0
1, 70, Note_off_c, 5, 80, 0
1, 72, Note_on_c, 0, 76, 96
1, 72, Note_on_c, 1, 68, 96
1, 72, Note_on_c, 5, 76, 96
1, 82, Note_off_c, 0, 76, 0
1, 82, Note_off_c, 5, 76, 0
1, 84, Note_on_c, 0, 71, 96
1, 84, Note_on_c, 5, 71, 96
1, 93, Note_off_c, 1, 68, 0
1, 94, Note_off_c, 0, 71, 0
1, 94, Note_off_c, 5, 71, 0
1, 96, Note_on_c, 0, 68, 96
1, 96, Note_on_c, 1, 64, 96
1, 96, Note_on_c, 2, 71, 96
1, 96, Note_on_c, 3, 52, 96
1, 96, Note_on_c, 4, 40, 96
1, 96, Note_on_c, 5, 68, 96
1, 96, Note_on_c, 6, 40, 96
1, 106, Note_off_c, 0, 68, 0
1, 106, Note_off_c, 5, 68, 0
1, 108, Note_on_c, 0, 71, 96
1, 108, Note_on_c, 5, 71, 96
1, 117, Note_off_c, 1, 64, 0
1, 117, Note_off_c, 2, 71, 0
1, 117, Note_off_c, 3, 52, 0
1, 117, Note_off_c, 4, 40, 0
1, 117, Note_off_c, 6, 40, 0
1, 118, Note_off_c, 0, 71, 0
1, 118, Note_off_c, 5, 71, 0
1, 120, Note_on_c, 0, 64, 96
1, 120, Note_on_c, 2, 68, 96
1, 120, Note_on_c, 3, 40, 96
1, 120, Note_on_c, 4, 28, 96
1, 120, Note_on_c, 5, 64, 96
1, 120, Note_on_c, 6, 52, 96
1, 126, Note_off_c, 6, 52, 0
1, 126, Note_on_c, 6, 51, 96
1, 130, Note_off_c, 0, 64, 0
1, 130, Note_off_c, 5, 64, 0
1, 132, Note_on_c, 0, 71, 96
1, 132, Note_on_c, 5, 71, 96
1, 132, Note_off_c, 6, 51, 0
1, 132, Note_on_c, 6, 52, 96
1, 141, Note_off_c, 2, 68, 0
1, 142, Note_off_c, 0, 71, 0
1, 142, Note_off_c, 5, 71, 0
1, 144, Note_on_c, 0, 68, 96
1, 144, Note_on_c, 1, 71, 96
1, 144, Note_on_c, 2, 64, 96
1, 144, Note_on_c, 5, 68, 96
1, 154, Note_off_c, 0, 68, 0
1, 154, Note_off_c, 5, 68, 0
1, 156, Note_on_c, 0, 71, 96
1, 156, Note_on_c, 5, 71, 96
1, 162, Note_off_c, 3, 40, 0
1, 162, Note_off_c, 4, 28, 0
1, 163, Note_off_c, 6, 52, 0
1, 165, Note_off_c, 1, 71, 0
1, 165, Note_off_c, 2, 64, 0
1, 166, Note_off_c, 0, 71, 0
1, 166, Note_off_c, 5, 71, 0
1, 168, Note_on_c, 0, 64, 96
1, 168, Note_on_c, 1, 68, 96
1, 168, Note_on_c, 5, 64, 96
1, 178, Note_off_c, 0, 64, 0
1, 178, Note_off_c, 5, 64, 0
1, 180, Note_on_c, 0, 71, 96
1, 180, Note_on_c, 5, 71, 96
1, 189, Note_off_c, 1, 68, 0
1, 190, Note_off_c, 0, 71, 0
1, 190, Note_off_c, 5, 71, 0
1, 192, Note_on_c, 0, 68, 96
1, 192, Note_on_c, 1, 64, 96
1, 192, Note_on_c, 2, 71, 96
1, 192, Note_on_c, 3, 52, 96
1, 192, Note_on_c, 4, 40, 96
1, 192, Note_on_c, 5, 68, 96
1, 192, Note_on_c, 6, 40, 96
1, 202, Note_off_c, 0, 68, 0
1, 202, Note_off_c, 5, 68, 0
1, 204, Note_on_c, 0, 71, 96
1, 204, Note_on_c, 5, 71, 96
1, 213, Note_off_c, 1, 64, 0
1, 213, Note_off_c, 2, 71, 0
1, 213, Note_off_c, 3, 52, 0
1, 213, Note_off_c, 4, 40, 0
1, 213, Note_off_c, 6, 40, 0
1, 214, Note_off_c, 0, 71, 0
1, 214, Note_off_c, 5, 71, 0
1, 216, Note_on_c, 0, 76, 96
1, 216, Note_on_c, 2, 68, 96
1, 216, Note_on_c, 3, 40, 96
1, 216, Note_on_c, 4, 28, 96
1, 216, Note_on_c, 5, 76, 96
1, 216, Note_on_c, 6, 52, 96
1, 226, Note_off_c, 5, 76, 0
1, 228, Note_off_c, 0, 76, 0
1, 228, Note_on_c, 0, 75, 96
1, 228, Note_on_c, 5, 75, 96
1, 237, Note_off_c, 2, 68, 0
1, 238, Note_off_c, 5, 75, 0
1, 240, Note_off_c, 0, 75, 0
1, 240, Note_on_c, 0, 76, 96
1, 240, Note_on_c, 1, 71, 96
1, 240, Note_on_c, 2, 64, 96
1, 240, Note_on_c, 5, 76, 96
1, 250, Note_off_c, 5, 76, 0
1, 252, Note_off_c, 0, 76, 0
1, 252, Note_on_c, 0, 80, 96
1, 252, Note_on_c, 5, 80, 96
1, 258, Note_off_c, 3, 40, 0
1, 258, Note_off_c, 4, 28, 0
1, 258, Note_off_c, 6, 52, 0
1, 261, Note_off_c, 1, 71, 0
1, 261, Note_off_c, 2, 64, 0
1, 262, Note_off_c, 0, 80, 0
1, 262, Note_off_c, 5, 80, 0
1, 264, Note_on_c, 0, 76, 96
1, 264, Note_on_c, 1, 68, 96
1, 264, Note_on_c, 5, 76, 96
1, 274, Note_off_c, 0, 76, 0
1, 274, Note_off_c, 5, 76, 0
1, 276, Note_on_c, 0, 71, 96
1, 276, Note_on_c, 5, 71, 96
1, 285, Note_off_c, 1, 68, 0
1, 286, Note_off_c, 0, 71, 0
1, 286, Note_off_c, 5, 71, 0
1, 288, Note_on_c, 0, 68, 96
1, 288, Note_on_c, 1, 64, 96
1, 288, Note_on_c, 2, 71, 96
1, 288, Note_on_c, 3, 52, 96
1, 288, Note_on_c, 4, 40, 96
1, 288, Note_on_c, 5, 68, 96
1, 288, Note_on_c, 6, 40, 96
1, 298, Note_off_c, 0, 68, 0
1, 298, Note_off_c, 5, 68, 0
1, 300, Note_on_c, 0, 71, 96
1, 300, Note_on_c, 5, 71, 96
1, 309, Note_off_c, 1, 64, 0
1, 309, Note_off_c, 2, 71, 0
1, 309, Note_off_c, 3, 52, 0
1, 309, Note_off_c, 4, 40, 0
1, 309, Note_off_c, 6, 40, 0
1, 310, Note_off_c, 0, 71, 0
1, 310, Note_off_c, 5, 71, 0
1, 312, Note_on_c, 0, 64, 96
1, 312, Note_on_c, 2, 68, 96
1, 312, Note_on_c, 3, 40, 96
1, 312, Note_on_c, 4, 28, 96
1, 312, Note_on_c, 5, 64, 96
1, 312, Note_on_c, 6, 52, 96
1, 322, Note_off_c, 0, 64, 0
1, 322, Note_off_c, 5, 64, 0
1, 324, Note_on_c, 0, 71, 96
1, 324, Note_on_c, 5, 71, 96
1, 333, Note_off_c, 2, 68, 0
1, 333, Note_off_c, 3, 40, 0
1, 333, Note_off_c, 4, 28, 0
1, 333, Note_off_c, 6, 52, 0
1, 334, Note_off_c, 0, 71, 0
1, 334, Note_off_c, 5, 71, 0
1, 336, Note_on_c, 0, 68, 96
1, 336, Note_on_c, 1, 76, 96
1, 336, Note_on_c, 2, 71, 96
1, 336, Note_on_c, 3, 52, 96
1, 336, Note_on_c, 4, 40, 96
1, 336, Note_on_c, 5, 68, 96
1, 336, Note_on_c, 6, 40, 96
1, 346, Note_off_c, 0, 68, 0
1, 346, Note_off_c, 5, 68, 0
1, 348, Note_on_c, 0, 71, 96
1, 348, Note_on_c, 5, 71, 96
1, 357, Note_off_c, 1, 76, 0
1, 357, Note_off_c, 2, 71, 0
1, 357, Note_off_c, 3, 52, 0
1, 357, Note_off_c, 4, 40, 0
1, 357, Note_off_c, 6, 40, 0
1, 358, Note_off_c, 0, 71, 0
1, 358, Note_off_c, 5, 71, 0
1, 360, Note_on_c, 0, 76, 96
1, 360, Note_on_c, 1, 71, 96
1, 360, Note_on_c, 2, 59, 96
1, 360, Note_on_c, 3, 56, 96
1, 360, Note_on_c, 4, 44, 96
1, 360, Note_on_c, 5, 76, 96
1, 360, Note_on_c, 6, 44, 96
1, 370, Note_off_c, 0, 76, 0
1, 370, Note_off_c, 5, 76, 0
1, 372, Note_on_c, 0, 71, 96
1, 372, Note_on_c, 5, 71, 96
1, 381, Note_off_c, 1, 71, 0
1, 381, Note_off_c, 2, 59, 0
1, 381, Note_off_c, 3, 56, 0
1, 381, Note_off_c, 4, 44, 0
1, 381, Note_off_c, 6, 44, 0
1, 382, Note_off_c, 0, 71, 0
1, 382, Note_off_c, 5, 71, 0
1, 384, Note_on_c, 0, 78, 96
1, 384, Note_on_c, 1, 75, 96
1, 384, Note_on_c, 2, 71, 96
1, 384, Note_on_c, 3, 59, 96
1, 384, Note_on_c, 4, 47, 96
1, 384, Note_on_c, 5, 78, 96
1, 384, Note_on_c, 6, 47, 96
1, 394, Note_off_c, 0, 78, 0
1, 394, Note_off_c, 5, 78, 0
1, 396, Note_on_c, 0, 71, 96
1, 396, Note_on_c, 5, 71, 96
1, 405, Note_off_c, 1, 75, 0
1, 405, Note_off_c, 2, 71, 0
1, 405, Note_off_c, 3, 59, 0
1, 405, Note_off_c, 4, 47, 0
1, 405, Note_off_c, 6, 47, 0
1, 406, Note_off_c, 0, 71, 0
1, 406, Note_off_c, 5, 71, 0
1, 408, Note_on_c, 0, 80, 96
1, 408, Note_on_c, 1, 76, 96
1, 408, Note_on_c, 2, 71, 96
1, 408, Note_on_c, 3, 64, 96
1, 408, Note_on_c, 4, 52, 96
1, 408, Note_on_c, 5, 80, 96
1, 408, Note_on_c, 6, 52, 96
1, 420, Note_off_c, 0, 80, 0
1, 429, Note_off_c, 1, 76, 0
1, 429, Note_off_c, 2, 71, 0
1, 429, Note_off_c, 3, 64, 0
1, 429, Note_off_c, 4, 52, 0
1, 429, Note_off_c, 5, 80, 0
1, 429, Note_off_c, 6, 52, 0
1, 432, Note_on_c, 0, 78, 96
1, 432, Note_on_c, 1, 78, 96
1, 432, Note_on_c, 2, 71, 96
1, 432, Note_on_c, 3, 63, 96
1, 432, Note_on_c, 4, 51, 96
1, 432, Note_on_c, 5, 78, 96
1, 432, Note_on_c, 6, 51, 96
1, 438, Note_off_c, 0, 78, 0
1, 444, Note_on_c, 0, 80, 96
1, 444, Note_off_c, 5, 78, 0
1, 444, Note_on_c, 5, 80, 96
1, 450, Note_off_c, 0, 80, 0
1, 450, Note_on_c, 0, 78, 96
1, 450, Note_off_c, 5, 80, 0
1, 450, Note_on_c, 5, 78, 96
1, 453, Note_off_c, 1, 78, 0
1, 453, Note_off_c, 2, 71, 0
1, 453, Note_off_c, 3, 63, 0
1, 453, Note_off_c, 4, 51, 0
1, 453, Note_off_c, 6, 51, 0
1, 456, Note_off_c, 0, 78, 0
1, 456, Note_on_c, 0, 80, 96
1, 456, Note_on_c, 1, 76, 96
1, 456, Note_on_c, 2, 64, 96
1, 456, Note_on_c, 3, 61, 96
1, 456, Note_on_c, 4, 49, 96
1, 456, Note_off_c, 5, 78, 0
1, 456, Note_on_c, 5, 80, 96
1, 456, Note_on_c, 6, 49, 96
1, 462, Note_off_c, 0, 80, 0
1, 462, Note_on_c, 0, 81, 96
1, 462, Note_off_c, 5, 80, 0
1, 462, Note_on_c, 5, 81, 96
1, 471, Note_off_c, 0, 81, 0
1, 477, Note_off_c, 1, 76, 0
1, 477, Note_off_c, 2, 64, 0
1, 477, Note_off_c, 3, 61, 0
1, 477, Note_off_c, 4, 49, 0
1, 477, Note_off_c, 6, 49, 0
1, 478, Note_off_c, 5, 81, 0
1, 480, Note_on_c, 0, 80, 96
1, 480, Note_on_c, 1, 76, 96
1, 480, Note_on_c, 2, 68, 96
1, 480, Note_on_c, 3, 59, 96
1, 480, Note_on_c, 4, 47, 96
1, 480, Note_on_c, 5, 80, 96
1, 480, Note_on_c, 6, 47, 96
1, 492, Note_off_c, 0, 80, 0
1, 501, Note_off_c, 1, 76, 0
1, 501, Note_off_c, 2, 68, 0
1, 501, Note_off_c, 3, 59, 0
1, 501, Note_off_c, 4, 47, 0
1, 501, Note_off_c, 5, 80, 0
1, 501, Note_off_c, 6, 47, 0
1, 504, Note_on_c, 0, 78, 96
1, 504, Note_on_c, 1, 75, 96
1, 504, Note_on_c, 2, 71, 96
1, 504, Note_on_c, 3, 57, 96
1, 504, Note_on_c, 4, 45, 96
1, 504, Note_on_c, 5, 78, 96
1, 504, Note_on_c, 6, 45, 96
1, 510, Note_off_c, 0, 78, 0
1, 510, Note_on_c, 0, 80, 96
1, 516, Note_off_c, 0, 80, 0
1, 516, Note_on_c, 0, 78, 96
1, 525, Note_off_c, 1, 75, 0
1, 525, Note_off_c, 2, 71, 0
1, 525, Note_off_c, 3, 57, 0
1, 525, Note_off_c, 4, 45, 0
1, 525, Note_off_c, 5, 78, 0
1, 525, Note_off_c, 6, 45, 0
1, 526, Note_off_c, 0, 78, 0
1, 528, Note_on_c, 0, 76, 96
1, 528, Note_on_c, 1, 76, 96
1, 528, Note_on_c, 2, 59, 96
1, 528, Note_on_c, 3, 56, 96
1, 528, Note_on_c, 4, 44, 96
1, 528, Note_on_c, 5, 76, 96
1, 528, Note_on_c, 6, 44, 96
1, 549, Note_off_c, 0, 76, 0
1, 549, Note_off_c, 1, 76, 0
1, 549, Note_off_c, 2, 59, 0
1, 549, Note_off_c, 3, 56, 0
1, 549, Note_off_c, 4, 44, 0
1, 549, Note_off_c, 5, 76, 0
1, 549, Note_off_c, 6, 44, 0
1, 552, Note_on_c, 0, 83, 96
1, 552, Note_on_c, 5, 83, 96
1, 576, Note_on_c, 1, 76, 96
1, 576, Note_on_c, 2, 71, 96
1, 576, Note_on_c, 3, 56, 96
1, 576, Note_on_c, 4, 44, 96
1, 576, Note_on_c, 6, 56, 96
1, 586, Note_off_c, 1, 76, 0
1, 588, Note_on_c, 1, 75, 96
1, 597, Note_off_c, 2, 71, 0
1, 597, Note_off_c, 3, 56, 0
1, 597, Note_off_c, 4, 44, 0
1, 597, Note_off_c, 6, 56, 0
1, 598, Note_off_c, 1, 75, 0
1, 600, Note_on_c, 1, 76, 96
1, 600, Note_on_c, 2, 68, 96
1, 600, Note_on_c, 3, 61, 96
1, 600, Note_on_c, 4, 49, 96
1, 600, Note_on_c, 6, 61, 96
1, 604, Note_off_c, 5, 83, 0
1, 612, Note_off_c, 0, 83, 0
1, 612, Note_on_c, 0, 76, 96
1, 612, Note_on_c, 5, 76, 96
1, 621, Note_off_c, 1, 76, 0
1, 621, Note_off_c, 2, 68, 0
1, 621, Note_off_c, 3, 61, 0
1, 621, Note_off_c, 4, 49, 0
1, 621, Note_off_c, 6, 61, 0
1, 622, Note_off_c, 5, 76, 0
1, 624, Note_off_c, 0, 76, 0
1, 624, Note_on_c, 0, 75, 96
1, 624, Note_on_c, 1, 80, 96
1, 624, Note_on_c, 2, 71, 96
1, 624, Note_on_c, 3, 59, 96
1, 624, Note_on_c, 4, 47, 96
1, 624, Note_on_c, 5, 75, 96
1, 624, Note_on_c, 6, 59, 96
1, 634, Note_off_c, 5, 75, 0
1, 636, Note_off_c, 0, 75, 0
1, 636, Note_on_c, 0, 76, 96
1, 636, Note_on_c, 5, 76, 96
1, 645, Note_off_c, 1, 80, 0
1, 645, Note_off_c, 2, 71, 0
1, 645, Note_off_c, 3, 59, 0
1, 645, Note_off_c, 4, 47, 0
1, 645, Note_off_c, 6, 59, 0
1, 646, Note_off_c, 5, 76, 0
1, 648, Note_off_c, 0, 76, 0
1, 648, Note_on_c, 0, 78, 96
1, 648, Note_on_c, 1, 75, 96
1, 648, Note_on_c, 2, 71, 96
1, 648, Note_on_c, 3, 57, 96
1, 648, Note_on_c, 4, 45, 96
1, 648, Note_on_c, 5, 78, 96
1, 648, Note_on_c, 6, 57, 96
1, 669, Note_off_c, 1, 75, 0
1, 669, Note_off_c, 2, 71, 0
1, 669, Note_off_c, 3, 57, 0
1, 669, Note_off_c, 4, 45, 0
1, 669, Note_off_c, 5, 78, 0
1, 669, Note_off_c, 6, 57, 0
1, 672, Note_off_c, 0, 78, 0
1, 672, Note_on_c, 0, 76, 96
1, 672, Note_on_c, 1, 76, 96
1, 672, Note_on_c, 2, 59, 96
1, 672, Note_on_c, 3, 56, 96
1, 672, Note_on_c, 4, 44, 96
1, 672, Note_on_c, 5, 76, 96
1, 672, Note_on_c, 6, 56, 96
1, 693, Note_off_c, 1, 76, 0
1, 693, Note_off_c, 2, 59, 0
1, 693, Note_off_c, 3, 56, 0
1, 693, Note_off_c, 4, 44, 0
1, 693, Note_off_c, 5, 76, 0
1, 693, Note_off_c, 6, 56, 0
1, 696, Note_off_c, 0, 76, 0
1, 696, Note_on_c, 0, 75, 96
1, 696, Note_on_c, 1, 69, 96
1, 696, Note_on_c, 2, 66, 96
1, 696, Note_on_c, 3, 54, 96
1, 696, Note_on_c, 4, 42, 96
1, 696, Note_on_c, 5, 75, 96
1, 696, Note_on_c, 6, 54, 96
1, 706, Note_off_c, 5, 75, 0
1, 708, Note_off_c, 0, 75, 0
1, 708, Note_on_c, 0, 76, 96
1, 708, Note_on_c, 5, 76, 96
1, 717, Note_off_c, 1, 69, 0
1, 717, Note_off_c, 2, 66, 0
1, 717, Note_off_c, 3, 54, 0
1, 717, Note_off_c, 4, 42, 0
1, 717, Note_off_c, 6, 54, 0
1, 718, Note_off_c, 5, 76, 0
1, 720, Note_off_c, 0, 76, 0
1, 720, Note_on_c, 0, 78, 96
1, 720, Note_on_c, 1, 73, 96
1, 720, Note_on_c, 2, 69, 96
1, 720, Note_on_c, 3, 52, 96
1, 720, Note_on_c, 4, 40, 96
1, 720, Note_on_c, 5, 78, 96
1, 720, Note_on_c, 6, 52, 96
1, 730, Note_off_c, 5, 78, 0
1, 732, Note_off_c, 0, 78, 0
1, 732, Note_on_c, 0, 75, 96
1, 732, Note_on_c, 5, 75, 96
1, 741, Note_off_c, 1, 73, 0
1, 741, Note_off_c, 2, 69, 0
1, 741, Note_off_c, 3, 52, 0
1, 741, Note_off_c, 4, 40, 0
1, 741, Note_off_c, 6, 52, 0
1, 742, Note_off_c, 5, 75, 0
1, 744, Note_off_c, 0, 75, 0
1, 744, Note_on_c, 0, 71, 96
1, 744, Note_on_c, 1, 66, 96
1, 744, Note_on_c, 2, 71, 96
1, 744, Note_on_c, 3, 51, 96
1, 744, Note_on_c, 4, 39, 96
1, 744, Note_on_c, 5, 71, 96
1, 744, Note_on_c, 6, 51, 96
1, 747, Note_off_c, 0, 71, 0
1, 747, Note_off_c, 5, 71, 0
1, 756, Note_on_c, 0, 81, 96
1, 756, Note_on_c, 5, 81, 96
1, 765, Note_off_c, 1, 66, 0
1, 765, Note_off_c, 2, 71, 0
1, 765, Note_off_c, 3, 51, 0
1, 765, Note_off_c, 4, 39, 0
1, 765, Note_off_c, 6, 51, 0
1, 768, Note_off_c, 0, 81, 0
1, 768, Note_on_c, 0, 80, 96
1, 768, Note_on_c, 1, 75, 96
1, 768, Note_on_c, 2, 71, 96
1, 768, Note_on_c, 3, 47, 96
1, 768, Note_on_c, 4, 35, 96
1, 768, Note_off_c, 5, 81, 0
1, 768, Note_on_c, 5, 80, 96
1, 768, Note_on_c, 6, 47, 96
1, 780, Note_off_c, 0, 80, 0
1, 780, Note_on_c, 0, 78, 96
1, 780, Note_off_c, 5, 80, 0
1, 780, Note_on_c, 5, 78, 96
1, 789, Note_off_c, 1, 75, 0
1, 789, Note_off_c, 2, 71, 0
1, 789, Note_off_c, 3, 47, 0
1, 789, Note_off_c, 4, 35, 0
1, 789, Note_off_c, 6, 47, 0
1, 790, Note_off_c, 0, 78, 0
1, 790, Note_off_c, 5, 78, 0
1, 792, Note_on_c, 0, 71, 96
1, 792, Note_on_c, 1, 76, 96
1, 792, Note_on_c, 2, 71, 96
1, 792, Note_on_c, 3, 52, 96
1, 792, Note_on_c, 4, 40, 96
1, 792, Note_on_c, 5, 71, 96
1, 792, Note_on_c, 6, 52, 96
1, 795, Note_off_c, 0, 71, 0
1, 795, Note_off_c, 5, 71, 0
1, 804, Note_on_c, 0, 80, 96
1, 804, Note_on_c, 5, 80, 96
1, 813, Note_off_c, 1, 76, 0
1, 813, Note_off_c, 2, 71, 0
1, 813, Note_off_c, 3, 52, 0
1, 813, Note_off_c, 4, 40, 0
1, 813, Note_off_c, 6, 52, 0
1, 816, Note_off_c, 0, 80, 0
1, 816, Note_on_c, 0, 78, 96
1, 816, Note_off_c, 5, 80, 0
1, 816, Note_on_c, 5, 78, 96
1, 828, Note_off_c, 0, 78, 0
1, 828, Note_on_c, 0, 76, 96
1, 828, Note_off_c, 5, 78, 0
1, 828, Note_on_c, 5, 76, 96
1, 838, Note_off_c, 0, 76, 0
1, 838, Note_off_c, 5, 76, 0
1, 840, Note_on_c, 0, 71, 96
1, 840, Note_on_c, 1, 66, 96
1, 840, Note_on_c, 2, 71, 96
1, 840, Note_on_c, 3, 51, 96
1, 840, Note_on_c, 4, 39, 96
1, 840, Note_on_c, 5, 71, 96
1, 840, Note_on_c, 6, 51, 96
1, 843, Note_off_c, 0, 71, 0
1, 843, Note_off_c, 5, 71, 0
1, 852, Note_on_c, 0, 78, 96
1, 852, Note_on_c, 5, 78, 96
1, 861, Note_off_c, 1, 66, 0
1, 861, Note_off_c, 2, 71, 0
1, 861, Note_off_c, 3, 51, 0
1, 861, Note_off_c, 4, 39, 0
1, 861, Note_off_c, 6, 51, 0
1, 864, Note_off_c, 0, 78, 0
1, 864, Note_on_c, 0, 76, 96
1, 864, Note_off_c, 5, 78, 0
1, 864, Note_on_c, 5, 76, 96
1, 876, Note_off_c, 0, 76, 0
1, 876, Note_on_c, 0, 75, 96
1, 876, Note_off_c, 5, 76, 0
1, 876, Note_on_c, 5, 75, 96
1, 886, Note_off_c, 0, 75, 0
1, 886, Note_off_c, 5, 75, 0
1, 888, Note_on_c, 0, 76, 96
1, 888, Note_on_c, 1, 68, 96
1, 888, Note_on_c, 2, 73, 96
1, 888, Note_on_c, 3, 49, 96
1, 888, Note_on_c, 4, 37, 96
1, 888, Note_on_c, 5, 76, 96
1, 888, Note_on_c, 6, 49, 96
1, 891, Note_off_c, 0, 76, 0
1, 891, Note_off_c, 5, 76, 0
1, 900, Note_on_c, 0, 69, 96
1, 900, Note_on_c, 5, 69, 96
1, 909, Note_off_c, 1, 68, 0
1, 909, Note_off_c, 2, 73, 0
1, 909, Note_off_c, 3, 49, 0
1, 909, Note_off_c, 4, 37, 0
1, 909, Note_off_c, 6, 49, 0
1, 912, Note_off_c, 0, 69, 0
1, 912, Note_on_c, 0, 68, 96
1, 912, Note_off_c, 5, 69, 0
1, 912, Note_on_c, 5, 68, 96
1, 924, Note_off_c, 0, 68, 0
1, 924, Note_on_c, 0, 66, 96
1, 924, Note_off_c, 5, 68, 0
1, 924, Note_on_c, 5, 66, 96
1, 934, Note_off_c, 0, 66, 0
1, 934, Note_off_c, 5, 66, 0
1, 936, Note_on_c, 0, 64, 96
1, 936, Note_on_c, 1, 71, 96
1, 936, Note_on_c, 2, 64, 96
1, 936, Note_on_c, 3, 44, 96
1, 936, Note_on_c, 4, 32, 96
1, 936, Note_on_c, 5, 64, 96
1, 936, Note_on_c, 6, 44, 96
1, 939, Note_off_c, 0, 64, 0
1, 939, Note_off_c, 5, 64, 0
1, 948, Note_on_c, 0, 74, 96
1, 948, Note_on_c, 5, 74, 96
1, 957, Note_off_c, 1, 71, 0
1, 957, Note_off_c, 2, 64, 0
1, 957, Note_off_c, 3, 44, 0
1, 957, Note_off_c, 4, 32, 0
1, 957, Note_off_c, 6, 44, 0
1, 960, Note_off_c, 0, 74, 0
1, 960, Note_on_c, 0, 73, 96
1, 960, Note_on_c, 1, 68, 96
1, 960, Note_on_c, 2, 64, 96
1, 960, Note_on_c, 3, 40, 96
1, 960, Note_on_c, 4, 28, 96
1, 960, Note_off_c, 5, 74, 0
1, 960, Note_on_c, 5, 73, 96
1, 960, Note_on_c, 6, 40, 96
1, 972, Note_off_c, 0, 73, 0
1, 972, Note_on_c, 0, 71, 96
1, 972, Note_off_c, 5, 73, 0
1, 972, Note_on_c, 5, 71, 96
1, 981, Note_off_c, 1, 68, 0
1, 981, Note_off_c, 3, 40, 0
1, 981, Note_off_c, 4, 28, 0
1, 981, Note_off_c, 6, 40, 0
1, 982, Note_off_c, 0, 71, 0
1, 982, Note_off_c, 5, 71, 0
1, 984, Note_on_c, 0, 73, 96
1, 984, Note_on_c, 1, 69, 96
1, 984, Note_on_c, 3, 45, 96
1, 984, Note_on_c, 4, 33, 96
1, 984, Note_on_c, 5, 73, 96
1, 984, Note_on_c, 6, 45, 96
1, 991, Note_off_c, 2, 64, 0
1, 996, Note_off_c, 0, 73, 0
1, 996, Note_on_c, 0, 71, 96
1, 996, Note_on_c, 2, 62, 96
1, 996, Note_off_c, 5, 73, 0
1, 996, Note_on_c, 5, 71, 96
1, 1005, Note_off_c, 1, 69, 0
1, 1005, Note_off_c, 3, 45, 0
1, 1005, Note_off_c, 4, 33, 0
1, 1005, Note_off_c, 6, 45, 0
1, 1006, Note_off_c, 2, 62, 0
1, 1008, Note_off_c, 0, 71, 0
1, 1008, Note_on_c, 0, 69, 96
1, 1008, Note_on_c, 1, 64, 96
1, 1008, Note_on_c, 2, 61, 96
1, 1008, Note_on_c, 3, 49, 96
1, 1008, Note_on_c, 4, 37, 96
1, 1008, Note_off_c, 5, 71, 0
1, 1008, Note_on_c, 5, 69, 96
1, 1008, Note_on_c, 6, 49, 96
1, 1018, Note_off_c, 2, 61, 0
1, 1020, Note_off_c, 0, 69, 0
1, 1020, Note_on_c, 0, 68, 96
1, 1020, Note_on_c, 2, 59, 96
1, 1020, Note_off_c, 5, 69, 0
1, 1020, Note_on_c, 5, 68, 96
1, 1029, Note_off_c, 1, 64, 0
1, 1029, Note_off_c, 3, 49, 0
1, 1029, Note_off_c, 4, 37, 0
1, 1029, Note_off_c, 6, 49, 0
1, 1030, Note_off_c, 0, 68, 0
1, 1030, Note_off_c, 2, 59, 0
1, 1030, Note_off_c, 5, 68, 0
1, 1032, Note_on_c, 0, 66, 96
1, 1032, Note_on_c, 1, 73, 96
1, 1032, Note_on_c, 2, 57, 96
1, 1032, Note_on_c, 3, 54, 96
1, 1032, Note_on_c, 4, 42, 96
1, 1032, Note_on_c, 5, 66, 96
1, 1032, Note_on_c, 6, 54, 96
1, 1042, Note_off_c, 0, 66, 0
1, 1042, Note_off_c, 1, 73, 0
1, 1042, Note_off_c, 5, 66, 0
1, 1044, Note_on_c, 0, 80, 96
1, 1044, Note_on_c, 1, 71, 96
1, 1044, Note_on_c, 5, 80, 96
1, 1053, Note_off_c, 2, 57, 0
1, 1053, Note_off_c, 3, 54, 0
1, 1053, Note_off_c, 4, 42, 0
1, 1053, Note_off_c, 6, 54, 0
1, 1054, Note_off_c, 0, 80, 0
1, 1054, Note_off_c, 1, 71, 0
1, 1054, Note_off_c, 5, 80, 0
1, 1056, Note_on_c, 0, 78, 96
1, 1056, Note_on_c, 1, 69, 96
1, 1056, Note_on_c, 2, 66, 96
1, 1056, Note_on_c, 3, 57, 96
1, 1056, Note_on_c, 4, 45, 96
1, 1056, Note_on_c, 5, 78, 96
1, 1056, Note_on_c, 6, 57, 96
1, 1066, Note_off_c, 0, 78, 0
1, 1066, Note_off_c, 1, 69, 0
1, 1066, Note_off_c, 5, 78, 0
1, 1068, Note_on_c, 0, 76, 96
1, 1068, Note_on_c, 1, 68, 96
1, 1068, Note_on_c, 5, 76, 96
1, 1077, Note_off_c, 3, 57, 0
1, 1077, Note_off_c, 4, 45, 0
1, 1077, Note_off_c, 6, 57, 0
1, 1078, Note_off_c, 0, 76, 0
1, 1078, Note_off_c, 1, 68, 0
1, 1078, Note_off_c, 5, 76, 0
1, 1080, Note_on_c, 0, 75, 96
1, 1080, Note_on_c, 1, 66, 96
1, 1080, Note_on_c, 3, 47, 96
1, 1080, Note_on_c, 4, 35, 96
1, 1080, Note_on_c, 5, 75, 96
1, 1080, Note_on_c, 6, 47, 96
1, 1087, Note_off_c, 2, 66, 0
1, 1092, Note_off_c, 0, 75, 0
1, 1092, Note_on_c, 0, 73, 96
1, 1092, Note_on_c, 2, 64, 96
1, 1092, Note_off_c, 5, 75, 0
1, 1092, Note_on_c, 5, 73, 96
1, 1101, Note_off_c, 1, 66, 0
1, 1101, Note_off_c, 3, 47, 0
1, 1101, Note_off_c, 4, 35, 0
1, 1101, Note_off_c, 6, 47, 0
1, 1102, Note_off_c, 2, 64, 0
1, 1104, Note_off_c, 0, 73, 0
1, 1104, Note_on_c, 0, 71, 96
1, 1104, Note_on_c, 1, 75, 96
1, 1104, Note_on_c, 2, 63, 96
1, 1104, Note_on_c, 3, 51, 96
1, 1104, Note_on_c, 4, 39, 96
1, 1104, Note_off_c, 5, 73, 0
1, 1104, Note_on_c, 5, 71, 96
1, 1104, Note_on_c, 6, 51, 96
1, 1114, Note_off_c, 2, 63, 0
1, 1116, Note_off_c, 0, 71, 0
1, 1116, Note_on_c, 0, 69, 96
1, 1116, Note_on_c, 2, 61, 96
1, 1116, Note_off_c, 5, 71, 0
1, 1116, Note_on_c, 5, 69, 96
1, 1125, Note_off_c, 3, 51, 0
1, 1125, Note_off_c, 4, 39, 0
1, 1125, Note_off_c, 6, 51, 0
1, 1126, Note_off_c, 0, 69, 0
1, 1126, Note_off_c, 2, 61, 0
1, 1126, Note_off_c, 5, 69, 0
1, 1128, Note_on_c, 0, 68, 96
1, 1128, Note_on_c, 2, 59, 96
1, 1128, Note_on_c, 3, 56, 96
1, 1128, Note_on_c, 4, 44, 96
1, 1128, Note_on_c, 5, 68, 96
1, 1128, Note_on_c, 6, 56, 96
1, 1135, Note_off_c, 1, 75, 0
1, 1138, Note_off_c, 0, 68, 0
1, 1138, Note_off_c, 5, 68, 0
1, 1140, Note_on_c, 0, 81, 96
1, 1140, Note_on_c, 1, 73, 96
1, 1140, Note_on_c, 5, 81, 96
1, 1149, Note_off_c, 2, 59, 0
1, 1149, Note_off_c, 3, 56, 0
1, 1149, Note_off_c, 4, 44, 0
1, 1149, Note_off_c, 6, 56, 0
1, 1150, Note_off_c, 0, 81, 0
1, 1150, Note_off_c, 1, 73, 0
1, 1150, Note_off_c, 5, 81, 0
1, 1152, Note_on_c, 0, 80, 96
1, 1152, Note_on_c, 1, 71, 96
1, 1152, Note_on_c, 2, 68, 96
1, 1152, Note_on_c, 3, 59, 96
1, 1152, Note_on_c, 4, 47, 96
1, 1152, Note_on_c, 5, 80, 96
1, 1152, Note_on_c, 6, 59, 96
1, 1162, Note_off_c, 0, 80, 0
1, 1162, Note_off_c, 1, 71, 0
1, 1162, Note_off_c, 5, 80, 0
1, 1164, Note_on_c, 0, 78, 96
1, 1164, Note_on_c, 1, 69, 96
1, 1164, Note_on_c, 5, 78, 96
1, 1173, Note_off_c, 3, 59, 0
1, 1173, Note_off_c, 4, 47, 0
1, 1173, Note_off_c, 6, 59, 0
1, 1174, Note_off_c, 0, 78, 0
1, 1174, Note_off_c, 1, 69, 0
1, 1174, Note_off_c, 5, 78, 0
1, 1176, Note_on_c, 0, 76, 96
1, 1176, Note_on_c, 1, 68, 96
1, 1176, Note_on_c, 3, 49, 96
1, 1176, Note_on_c, 4, 37, 96
1, 1176, Note_on_c, 5, 76, 96
1, 1176, Note_on_c, 6, 49, 96
1, 1183, Note_off_c, 2, 68, 0
1, 1188, Note_off_c, 0, 76, 0
1, 1188, Note_on_c, 0, 75, 96
1, 1188, Note_on_c, 2, 66, 96
1, 1188, Note_off_c, 5, 76, 0
1, 1188, Note_on_c, 5, 75, 96
1, 1197, Note_off_c, 1, 68, 0
1, 1197, Note_off_c, 3, 49, 0
1, 1197, Note_off_c, 4, 37, 0
1, 1197, Note_off_c, 6, 49, 0
1, 1198, Note_off_c, 2, 66, 0
1, 1200, Note_off_c, 0, 75, 0
1, 1200, Note_on_c, 0, 73, 96
1, 1200, Note_on_c, 1, 76, 96
1, 1200, Note_on_c, 2, 64, 96
1, 1200, Note_on_c, 3, 52, 96
1, 1200, Note_on_c, 4, 40, 96
1, 1200, Note_off_c, 5, 75, 0
1, 1200, Note_on_c, 5, 73, 96
1, 1200, Note_on_c, 6, 52, 96
1, 1210, Note_off_c, 2, 64, 0
1, 1212, Note_off_c, 0, 73, 0
1, 1212, Note_on_c, 0, 71, 96
1, 1212, Note_on_c, 2, 63, 96
1, 1212, Note_off_c, 5, 73, 0
1, 1212, Note_on_c, 5, 71, 96
1, 1221, Note_off_c, 3, 52, 0
1, 1221, Note_off_c, 4, 40, 0
1, 1221, Note_off_c, 6, 52, 0
1, 1222, Note_off_c, 0, 71, 0
1, 1222, Note_off_c, 2, 63, 0
1, 1222, Note_off_c, 5, 71, 0
1, 1224, Note_on_c, 0, 69, 96
1, 1224, Note_on_c, 2, 61, 96
1, 1224, Note_on_c, 3, 57, 96
1, 1224, Note_on_c, 4, 45, 96
1, 1224, Note_on_c, 5, 69, 96
1, 1224, Note_on_c, 6, 57, 96
1, 1231, Note_off_c, 1, 76, 0
1, 1234, Note_off_c, 0, 69, 0
1, 1234, Note_off_c, 5, 69, 0
1, 1236, Note_on_c, 0, 83, 96
1, 1236, Note_on_c, 1, 75, 96
1, 1236, Note_on_c, 5, 83, 96
1, 1245, Note_off_c, 2, 61, 0
1, 1245, Note_off_c, 3, 57, 0
1, 1245, Note_off_c, 4, 45, 0
1, 1245, Note_off_c, 6, 57, 0
1, 1246, Note_off_c, 0, 83, 0
1, 1246, Note_off_c, 1, 75, 0
1, 1246, Note_off_c, 5, 83, 0
1, 1248, Note_on_c, 0, 81, 96
1, 1248, Note_on_c, 1, 73, 96
1, 1248, Note_on_c, 2, 69, 96
1, 1248, Note_on_c, 3, 61, 96
1, 1248, Note_on_c, 4, 49, 96
1, 1248, Note_on_c, 5, 81, 96
1, 1248, Note_on_c, 6, 61, 96
1, 1258, Note_off_c, 0, 81, 0
1, 1258, Note_off_c, 1, 73, 0
1, 1258, Note_off_c, 5, 81, 0
1, 1260, Note_on_c, 0, 80, 96
1, 1260, Note_on_c, 1, 71, 96
1, 1260, Note_on_c, 5, 80, 96
1, 1269, Note_off_c, 3, 61, 0
1, 1269, Note_off_c, 4, 49, 0
1, 1269, Note_off_c, 6, 61, 0
1, 1270, Note_off_c, 0, 80, 0
1, 1270, Note_off_c, 1, 71, 0
1, 1270, Note_off_c, 5, 80, 0
1, 1272, Note_on_c, 0, 78, 96
1, 1272, Note_on_c, 1, 69, 96
1, 1272, Note_on_c, 3, 51, 96
1, 1272, Note_on_c, 4, 39, 96
1, 1272, Note_on_c, 5, 78, 96
1, 1272, Note_on_c, 6, 51, 96
1, 1279, Note_off_c, 2, 69, 0
1, 1282, Note_off_c, 1, 69, 0
1, 1284, Note_off_c, 0, 78, 0
1, 1284, Note_on_c, 0, 76, 96
1, 1284, Note_on_c, 1, 68, 96
1, 1284, Note_on_c, 2, 71, 96
1, 1284, Note_off_c, 5, 78, 0
1, 1284, Note_on_c, 5, 76, 96
1, 1293, Note_off_c, 3, 51, 0
1, 1293, Note_off_c, 4, 39, 0
1, 1293, Note_off_c, 6, 51, 0
1, 1294, Note_off_c, 1, 68, 0
1, 1294, Note_off_c, 2, 71, 0
1, 1296, Note_off_c, 0, 76, 0
1, 1296, Note_on_c, 0, 75, 96
1, 1296, Note_on_c, 1, 66, 96
1, 1296, Note_on_c, 2, 69, 96
1, 1296, Note_on_c, 3, 54, 96
1, 1296, Note_on_c, 4, 42, 96
1, 1296, Note_off_c, 5, 76, 0
1, 1296, Note_on_c, 5, 75, 96
1, 1296, Note_on_c, 6, 54, 96
1, 1306, Note_off_c, 1, 66, 0
1, 1306, Note_off_c, 2, 69, 0
1, 1308, Note_off_c, 0, 75, 0
1, 1308, Note_on_c, 0, 73, 96
1, 1308, Note_on_c, 1, 64, 96
1, 1308, Note_on_c, 2, 68, 96
1, 1308, Note_off_c, 5, 75, 0
1, 1308, Note_on_c, 5, 73, 96
1, 1317, Note_off_c, 3, 54, 0
1, 1317, Note_off_c, 4, 42, 0
1, 1317, Note_off_c, 6, 54, 0
1, 1318, Note_off_c, 0, 73, 0
1, 1318, Note_off_c, 1, 64, 0
1, 1318, Note_off_c, 2, 68, 0
1, 1318, Note_off_c, 5, 73, 0
1, 1320, Note_on_c, 0, 71, 96
1, 1320, Note_on_c, 1, 63, 96
1, 1320, Note_on_c, 2, 66, 96
1, 1320, Note_on_c, 3, 59, 96
1, 1320, Note_on_c, 4, 47, 96
1, 1320, Note_on_c, 5, 71, 96
1, 1320, Note_on_c, 6, 59, 96
1, 1330, Note_off_c, 0, 71, 0
1, 1330, Note_off_c, 1, 63, 0
1, 1330, Note_off_c, 5, 71, 0
1, 1332, Note_on_c, 0, 69, 96
1, 1332, Note_on_c, 1, 61, 96
1, 1332, Note_on_c, 5, 69, 96
1, 1341, Note_off_c, 2, 66, 0
1, 1341, Note_off_c, 3, 59, 0
1, 1341, Note_off_c, 4, 47, 0
1, 1341, Note_off_c, 6, 59, 0
1, 1342, Note_off_c, 0, 69, 0
1, 1342, Note_off_c, 1, 61, 0
1, 1342, Note_off_c, 5, 69, 0
1, 1344, Note_on_c, 0, 68, 96
1, 1344, Note_on_c, 1, 59, 96
1, 1344, Note_on_c, 2, 64, 96
1, 1344, Note_on_c, 3, 47, 96
1, 1344, Note_on_c, 4, 35, 96
1, 1344, Note_on_c, 5, 68, 96
1, 1344, Note_on_c, 6, 47, 96
1, 1354, Note_off_c, 0, 68, 0
1, 1354, Note_off_c, 1, 59, 0
1, 1354, Note_off_c, 2, 64, 0
1, 1354, Note_off_c, 5, 68, 0
1, 1356, Note_on_c, 0, 66, 96
1, 1356, Note_on_c, 1, 57, 96
1, 1356, Note_on_c, 2, 63, 96
1, 1356, Note_on_c, 5, 66, 96
1, 1365, Note_off_c, 3, 47, 0
1, 1365, Note_off_c, 4, 35, 0
1, 1365, Note_off_c, 6, 47, 0
1, 1366, Note_off_c, 0, 66, 0
1, 1366, Note_off_c, 1, 57, 0
1, 1366, Note_off_c, 2, 63, 0
1, 1366, Note_off_c, 5, 66, 0
1, 1368, Note_on_c, 0, 64, 96
1, 1368, Note_on_c, 1, 56, 96
1, 1368, Note_on_c, 2, 64, 96
1, 1368, Note_on_c, 3, 49, 96
1, 1368, Note_on_c, 4, 37, 96
1, 1368, Note_on_c, 5, 64, 96
1, 1368, Note_on_c, 6, 49, 96
1, 1380, Note_off_c, 5, 64, 0
1, 1380, Note_on_c, 5, 66, 96
1, 1386, Note_off_c, 5, 66, 0
1, 1386, Note_on_c, 5, 64, 96
1, 1389, Note_off_c, 1, 56, 0
1, 1389, Note_off_c, 2, 64, 0
1, 1389, Note_off_c, 3, 49, 0
1, 1389, Note_off_c, 4, 37, 0
1, 1389, Note_off_c, 6, 49, 0
1, 1392, Note_on_c, 1, 64, 96
1, 1392, Note_on_c, 2, 61, 96
1, 1392, Note_on_c, 3, 45, 96
1, 1392, Note_on_c, 4, 33, 96
1, 1392, Note_off_c, 5, 64, 0
1, 1392, Note_on_c, 5, 63, 96
1, 1392, Note_on_c, 6, 45, 96
1, 1398, Note_off_c, 5, 63, 0
1, 1398, Note_on_c, 5, 64, 96
1, 1399, Note_off_c, 0, 64, 0
1, 1404, Note_on_c, 0, 66, 96
1, 1404, Note_off_c, 5, 64, 0
1, 1404, Note_on_c, 5, 66, 96
1, 1413, Note_off_c, 2, 61, 0
1, 1413, Note_off_c, 3, 45, 0
1, 1413, Note_off_c, 4, 33, 0
1, 1413, Note_off_c, 6, 45, 0
1, 1414, Note_off_c, 0, 66, 0
1, 1414, Note_off_c, 5, 66, 0
1, 1416, Note_on_c, 0, 66, 96
1, 1416, Note_on_c, 2, 59, 96
1, 1416, Note_on_c, 3, 47, 96
1, 1416, Note_on_c, 4, 35, 96
1, 1416, Note_on_c, 5, 66, 96
1, 1416, Note_on_c, 6, 47, 96
1, 1434, Note_off_c, 1, 64, 0
1, 1437, Note_off_c, 2, 59, 0
1, 1437, Note_off_c, 3, 47, 0
1, 1437, Note_off_c, 4, 35, 0
1, 1437, Note_off_c, 6, 47, 0
1, 1440, Note_on_c, 1, 63, 96
1, 1440, Note_on_c, 2, 57, 96
1, 1440, Note_on_c, 3, 47, 96
1, 1440, Note_on_c, 4, 35, 96
1, 1440, Note_on_c, 6, 47, 96
1, 1447, Note_off_c, 0, 66, 0
1, 1447, Note_off_c, 5, 66, 0
1, 1452, Note_on_c, 0, 64, 96
1, 1452, Note_on_c, 5, 64, 96
1, 1461, Note_off_c, 1, 63, 0
1, 1461, Note_off_c, 2, 57, 0
1, 1461, Note_off_c, 3, 47, 0
1, 1461, Note_off_c, 4, 35, 0
1, 1461, Note_off_c, 6, 47, 0
1, 1462, Note_off_c, 0, 64, 0
1, 1462, Note_off_c, 5, 64, 0
1, 1464, Note_on_c, 0, 64, 96
1, 1464, Note_on_c, 1, 64, 96
1, 1464, Note_on_c, 2, 56, 96
1, 1464, Note_on_c, 3, 40, 96
1, 1464, Note_on_c, 4, 28, 96
1, 1464, Note_on_c, 5, 64, 96
1, 1464, Note_on_c, 6, 40, 96
1, 1485, Note_off_c, 0, 64, 0
1, 1485, Note_off_c, 1, 64, 0
1, 1485, Note_off_c, 2, 56, 0
1, 1488, Note_on_c, 0, 76, 80
1, 1488, Note_on_c, 1, 71, 80
1, 1488, Note_on_c, 2, 68, 80
1, 1494, Note_off_c, 0, 76, 0
1, 1506, Note_off_c, 3, 40, 0
1, 1506, Note_off_c, 4, 28, 0
1, 1506, Note_off_c, 5, 64, 0
1, 1506, Note_off_c, 6, 40, 0
1, 1509, Note_off_c, 1, 71, 0
1, 1509, Note_off_c, 2, 68, 0
1, 1512, Note_on_c, 0, 76, 80
1, 1512, Note_on_c, 1, 71, 80
1, 1512, Note_on_c, 2, 68, 80
1, 1518, Note_off_c, 0, 76, 0
1, 1533, Note_off_c, 1, 71, 0
1, 1533, Note_off_c, 2, 68, 0
1, 1536, Note_on_c, 0, 71, 80
1, 1536, Note_on_c, 1, 68, 80
1, 1536, Note_on_c, 2, 64, 80
1, 1536, Note_on_c, 5, 59, 96
1, 1542, Note_off_c, 0, 71, 0
1, 1557, Note_off_c, 1, 68, 0
1, 1557, Note_off_c, 2, 64, 0
1, 1557, Note_off_c, 5, 59, 0
1, 1560, Note_on_c, 0, 71, 80
1, 1560, Note_on_c, 1, 68, 80
1, 1560, Note_on_c, 2, 64, 80
1, 1560, Note_on_c, 5, 64, 96
1, 1566, Note_off_c, 0, 71, 0
1, 1570, Note_off_c, 5, 64, 0
1, 1572, Note_on_c, 5, 66, 96
1, 1581, Note_off_c, 1, 68, 0
1, 1581, Note_off_c, 2, 64, 0
1, 1582, Note_off_c, 5, 66, 0
1, 1584, Note_on_c, 0, 68, 80
1, 1584, Note_on_c, 1, 64, 80
1, 1584, Note_on_c, 2, 59, 80
1, 1584, Note_on_c, 5, 68, 96
1, 1590, Note_off_c, 0, 68, 0
1, 1590, Note_off_c, 5, 68, 0
1, 1605, Note_off_c, 1, 64, 0
1, 1605, Note_off_c, 2, 59, 0
1, 1608, Note_on_c, 0, 68, 80
1, 1608, Note_on_c, 1, 64, 80
1, 1608, Note_on_c, 2, 59, 80
1, 1608, Note_on_c, 5, 68, 96
1, 1614, Note_off_c, 0, 68, 0
1, 1618, Note_off_c, 5, 68, 0
1, 1620, Note_on_c, 5, 69, 96
1, 1629, Note_off_c, 1, 64, 0
1, 1629, Note_off_c, 2, 59, 0
1, 1630, Note_off_c, 5, 69, 0
1, 1632, Note_on_c, 0, 64, 80
1, 1632, Note_on_c, 1, 59, 80
1, 1632, Note_on_c, 2, 56, 80
1, 1632, Note_on_c, 5, 71, 96
1, 1638, Note_off_c, 0, 64, 0
1, 1638, Note_off_c, 5, 71, 0
1, 1653, Note_off_c, 1, 59, 0
1, 1653, Note_off_c, 2, 56, 0
1, 1656, Note_on_c, 0, 64, 80
1, 1656, Note_on_c, 1, 59, 80
1, 1656, Note_on_c, 2, 56, 80
1, 1656, Note_on_c, 5, 71, 96
1, 1666, Note_off_c, 5, 71, 0
1, 1668, Note_on_c, 5, 73, 96
1, 1677, Note_off_c, 0, 64, 0
1, 1677, Note_off_c, 1, 59, 0
1, 1677, Note_off_c, 2, 56, 0
1, 1678, Note_off_c, 5, 73, 0
1, 1680, Note_on_c, 0, 59, 80
1, 1680, Note_on_c, 1, 56, 80
1, 1680, Note_on_c, 2, 52, 80
1, 1680, Note_on_c, 5, 75, 96
1, 1686, Note_off_c, 5, 75, 0
1, 1701, Note_off_c, 0, 59, 0
1, 1701, Note_off_c, 1, 56, 0
1, 1701, Note_off_c, 2, 52, 0
1, 1704, Note_on_c, 0, 59, 80
1, 1704, Note_on_c, 1, 56, 80
1, 1704, Note_on_c, 2, 52, 80
1, 1704, Note_on_c, 5, 76, 96
1, 1725, Note_off_c, 0, 59, 0
1, 1725, Note_off_c, 1, 56, 0
1, 1725, Note_off_c, 2, 52, 0
1, 1725, Note_off_c, 5, 76, 0
1, 1728, Note_on_c, 5, 76, 96
1, 1728, Note_on_c, 6, 58, 96
1, 1728, Note_on_c, 6, 49, 96
1, 1734, Note_off_c, 5, 76, 0
1, 1734, Note_on_c, 5, 78, 96
1, 1740, Note_off_c, 5, 78, 0
1, 1740, Note_on_c, 5, 80, 96
1, 1749, Note_off_c, 6, 58, 0
1, 1749, Note_off_c, 6, 49, 0
1, 1750, Note_off_c, 5, 80, 0
1, 1752, Note_on_c, 5, 78, 96
1, 1752, Note_on_c, 6, 59, 96
1, 1752, Note_on_c, 6, 51, 96
1, 1773, Note_off_c, 5, 78, 0
1, 1773, Note_off_c, 6, 51, 0
1, 1776, Note_on_c, 5, 76, 96
1, 1776, Note_on_c, 6, 52, 96
1, 1783, Note_off_c, 6, 59, 0
1, 1788, Note_on_c, 6, 61, 96
1, 1797, Note_off_c, 5, 76, 0
1, 1797, Note_off_c, 6, 52, 0
1, 1798, Note_off_c, 6, 61, 0
1, 1800, Note_on_c, 5, 75, 96
1, 1800, Note_on_c, 6, 54, 96
1, 1806, Note_off_c, 5, 75, 0
1, 1806, Note_on_c, 5, 76, 96
1, 1812, Note_off_c, 5, 76, 0
1, 1812, Note_on_c, 5, 75, 96
1, 1812, Note_on_c, 6, 59, 96
1, 1821, Note_off_c, 6, 54, 0
1, 1822, Note_off_c, 5, 75, 0
1, 1824, Note_on_c, 5, 73, 96
1, 1824, Note_on_c, 6, 52, 96
1, 1833, Note_off_c, 6, 59, 0
1, 1836, Note_on_c, 6, 58, 96
1, 1845, Note_off_c, 5, 73, 0
1, 1845, Note_off_c, 6, 52, 0
1, 1846, Note_off_c, 6, 58, 0
1, 1848, Note_on_c, 5, 71, 96
1, 1848, Note_on_c, 6, 59, 96
1, 1848, Note_on_c, 6, 54, 96
1, 1848, Note_on_c, 6, 51, 96
1, 1860, Note_off_c, 5, 71, 0
1, 1860, Note_on_c, 5, 70, 96
1, 1869, Note_off_c, 6, 54, 0
1, 1869, Note_off_c, 6, 51, 0
1, 1870, Note_off_c, 5, 70, 0
1, 1872, Note_on_c, 5, 71, 96
1, 1872, Note_on_c, 6, 52, 96
1, 1872, Note_on_c, 6, 49, 96
1, 1884, Note_off_c, 5, 71, 0
1, 1884, Note_on_c, 5, 70, 96
1, 1893, Note_off_c, 6, 52, 0
1, 1893, Note_off_c, 6, 49, 0
1, 1894, Note_off_c, 5, 70, 0
1, 1896, Note_on_c, 5, 71, 96
1, 1896, Note_on_c, 6, 54, 96
1, 1896, Note_on_c, 6, 51, 96
1, 1906, Note_off_c, 5, 71, 0
1, 1908, Note_on_c, 5, 78, 96
1, 1911, Note_off_c, 6, 59, 0
1, 1917, Note_off_c, 6, 54, 0
1, 1917, Note_off_c, 6, 51, 0
1, 1918, Note_off_c, 5, 78, 0
1, 1920, Note_on_c, 5, 80, 96
1, 1920, Note_on_c, 6, 59, 96
1, 1920, Note_on_c, 6, 52, 96
1, 1930, Note_off_c, 5, 80, 0
1, 1932, Note_on_c, 5, 76, 96
1, 1941, Note_off_c, 6, 59, 0
1, 1941, Note_off_c, 6, 52, 0
1, 1942, Note_off_c, 5, 76, 0
1, 1944, Note_on_c, 5, 71, 96
1, 1944, Note_on_c, 6, 59, 96
1, 1944, Note_on_c, 6, 54, 96
1, 1944, Note_on_c, 6, 51, 96
1, 1956, Note_off_c, 5, 71, 0
1, 1956, Note_on_c, 5, 70, 96
1, 1965, Note_off_c, 6, 54, 0
1, 1965, Note_off_c, 6, 51, 0
1, 1966, Note_off_c, 5, 70, 0
1, 1968, Note_on_c, 5, 71, 96
1, 1968, Note_on_c, 6, 52, 96
1, 1968, Note_on_c, 6, 49, 96
1, 1980, Note_off_c, 5, 71, 0
1, 1980, Note_on_c, 5, 70, 96
1, 1989, Note_off_c, 6, 52, 0
1, 1989, Note_off_c, 6, 49, 0
1, 1990, Note_off_c, 5, 70, 0
1, 1992, Note_on_c, 5, 71, 96
1, 1992, Note_on_c, 6, 54, 96
1, 1992, Note_on_c, 6, 51, 96
1, 2002, Note_off_c, 5, 71, 0
1, 2004, Note_on_c, 5, 80, 96
1, 2007, Note_off_c, 6, 59, 0
1, 2013, Note_off_c, 6, 54, 0
1, 2013, Note_off_c, 6, 51, 0
1, 2014, Note_off_c, 5, 80, 0
1, 2016, Note_on_c, 5, 81, 96
1, 2016, Note_on_c, 6, 54, 96
1, 2016, Note_on_c, 6, 51, 96
1, 2016, Note_on_c, 6, 47, 96
1, 2026, Note_off_c, 5, 81, 0
1, 2028, Note_on_c, 5, 78, 96
1, 2037, Note_off_c, 6, 54, 0
1, 2037, Note_off_c, 6, 51, 0
1, 2037, Note_off_c, 6, 47, 0
1, 2038, Note_off_c, 5, 78, 0
1, 2040, Note_on_c, 5, 71, 96
1, 2040, Note_on_c, 6, 56, 96
1, 2040, Note_on_c, 6, 52, 96
1, 2052, Note_off_c, 5, 71, 0
1, 2052, Note_on_c, 5, 70, 96
1, 2061, Note_off_c, 6, 56, 0
1, 2061, Note_off_c, 6, 52, 0
1, 2062, Note_off_c, 5, 70, 0
1, 2064, Note_on_c, 5, 71, 96
1, 2064, Note_on_c, 6, 54, 96
1, 2076, Note_off_c, 5, 71, 0
1, 2076, Note_on_c, 5, 70, 96
1, 2085, Note_off_c, 6, 54, 0
1, 2086, Note_off_c, 5, 70, 0
1, 2088, Note_on_c, 5, 71, 96
1, 2088, Note_on_c, 6, 56, 96
1, 2098, Note_off_c, 5, 71, 0
1, 2100, Note_on_c, 5, 81, 96
1, 2109, Note_off_c, 6, 56, 0
1, 2110, Note_off_c, 5, 81, 0
1, 2112, Note_on_c, 5, 83, 96
1, 2112, Note_on_c, 6, 64, 96
1, 2112, Note_on_c, 6, 56, 96
1, 2112, Note_on_c, 6, 52, 96
1, 2122, Note_off_c, 5, 83, 0
1, 2124, Note_on_c, 5, 80, 96
1, 2133, Note_off_c, 6, 64, 0
1, 2133, Note_off_c, 6, 56, 0
1, 2133, Note_off_c, 6, 52, 0
1, 2134, Note_off_c, 5, 80, 0
1, 2136, Note_on_c, 5, 81, 96
1, 2136, Note_on_c, 6, 63, 96
1, 2136, Note_on_c, 6, 54, 96
1, 2146, Note_off_c, 5, 81, 0
1, 2148, Note_on_c, 5, 80, 96
1, 2157, Note_off_c, 6, 63, 0
1, 2157, Note_off_c, 6, 54, 0
1, 2158, Note_off_c, 5, 80, 0
1, 2160, Note_on_c, 5, 81, 96
1, 2160, Note_on_c, 6, 52, 96
1, 2170, Note_off_c, 5, 81, 0
1, 2172, Note_on_c, 5, 78, 96
1, 2181, Note_off_c, 6, 52, 0
1, 2182, Note_off_c, 5, 78, 0
1, 2184, Note_on_c, 5, 71, 96
1, 2184, Note_on_c, 6, 51, 96
1, 2189, Note_off_c, 5, 71, 0
1, 2190, Note_on_c, 5, 73, 96
1, 2195, Note_off_c, 5, 73, 0
1, 2196, Note_on_c, 5, 75, 96
1, 2201, Note_off_c, 5, 75, 0
1, 2202, Note_on_c, 5, 76, 96
1, 2205, Note_off_c, 6, 51, 0
1, 2207, Note_off_c, 5, 76, 0
1, 2208, Note_on_c, 5, 78, 96
1, 2208, Note_on_c, 6, 59, 96
1, 2208, Note_on_c, 6, 54, 96
1, 2208, Note_on_c, 6, 51, 96
1, 2208, Note_on_c, 6, 47, 96
1, 2213, Note_off_c, 5, 78, 0
1, 2214, Note_on_c, 5, 80, 96
1, 2219, Note_off_c, 5, 80, 0
1, 2220, Note_on_c, 5, 81, 96
1, 2229, Note_off_c, 6, 59, 0
1, 2229, Note_off_c, 6, 54, 0
1, 2229, Note_off_c, 6, 51, 0
1, 2229, Note_off_c, 6, 47, 0
1, 2230, Note_off_c, 5, 81, 0
1, 2232, Note_on_c, 5, 80, 96
1, 2232, Note_on_c, 6, 59, 96
1, 2232, Note_on_c, 6, 52, 96
1, 2242, Note_off_c, 5, 80, 0
1, 2244, Note_on_c, 5, 78, 96
1, 2253, Note_off_c, 6, 59, 0
1, 2253, Note_off_c, 6, 52, 0
1, 2254, Note_off_c, 5, 78, 0
1, 2256, Note_on_c, 5, 80, 96
1, 2256, Note_on_c, 6, 54, 96
1, 2266, Note_off_c, 5, 80, 0
1, 2268, Note_on_c, 5, 76, 96
1, 2277, Note_off_c, 6, 54, 0
1, 2278, Note_off_c, 5, 76, 0
1, 2280, Note_on_c, 5, 71, 96
1, 2280, Note_on_c, 6, 56, 96
1, 2286, Note_off_c, 5, 71, 0
1, 2286, Note_on_c, 5, 70, 96
1, 2292, Note_off_c, 5, 70, 0
1, 2292, Note_on_c, 5, 71, 96
1, 2298, Note_off_c, 5, 71, 0
1, 2298, Note_on_c, 5, 73, 96
1, 2301, Note_off_c, 6, 56, 0
1, 2304, Note_off_c, 5, 73, 0
1, 2304, Note_on_c, 5, 75, 96
1, 2304, Note_on_c, 6, 64, 96
1, 2304, Note_on_c, 6, 59, 96
1, 2304, Note_on_c, 6, 56, 96
1, 2304, Note_on_c, 6, 52, 96
1, 2310, Note_off_c, 5, 75, 0
1, 2310, Note_on_c, 5, 76, 96
1, 2316, Note_off_c, 5, 76, 0
1, 2316, Note_on_c, 5, 78, 96
1, 2322, Note_off_c, 5, 78, 0
1, 2322, Note_on_c, 5, 80, 96
1, 2325, Note_off_c, 6, 64, 0
1, 2325, Note_off_c, 6, 59, 0
1, 2325, Note_off_c, 6, 56, 0
1, 2325, Note_off_c, 6, 52, 0
1, 2327, Note_off_c, 5, 80, 0
1, 2328, Note_on_c, 5, 81, 96
1, 2328, Note_on_c, 6, 63, 96
1, 2328, Note_on_c, 6, 54, 96
1, 2331, Note_off_c, 5, 81, 0
1, 2340, Note_on_c, 5, 80, 96
1, 2343, Note_off_c, 5, 80, 0
1, 2349, Note_off_c, 6, 63, 0
1, 2349, Note_off_c, 6, 54, 0
1, 2352, Note_on_c, 5, 78, 96
1, 2352, Note_on_c, 6, 59, 96
1, 2355, Note_off_c, 5, 78, 0
1, 2364, Note_on_c, 5, 76, 96
1, 2367, Note_off_c, 5, 76, 0
1, 2373, Note_off_c, 6, 59, 0
1, 2376, Note_on_c, 5, 75, 96
1, 2376, Note_on_c, 6, 47, 96
1, 2379, Note_off_c, 5, 75, 0
1, 2388, Note_on_c, 5, 73, 96
1, 2391, Note_off_c, 5, 73, 0
1, 2397, Note_off_c, 6, 47, 0
1, 2400, Note_on_c, 5, 71, 96
1, 2400, Note_on_c, 6, 59, 96
1, 2400, Note_on_c, 6, 54, 96
1, 2400, Note_on_c, 6, 51, 96
1, 2403, Note_off_c, 5, 71, 0
1, 2412, Note_on_c, 5, 69, 96
1, 2415, Note_off_c, 5, 69, 0
1, 2421, Note_off_c, 6, 59, 0
1, 2421, Note_off_c, 6, 54, 0
1, 2421, Note_off_c, 6, 51, 0
1, 2424, Note_on_c, 5, 68, 96
1, 2424, Note_on_c, 6, 52, 96
1, 2434, Note_off_c, 5, 68, 0
1, 2436, Note_on_c, 5, 64, 96
1, 2445, Note_off_c, 6, 52, 0
1, 2446, Note_off_c, 5, 64, 0
1, 2448, Note_on_c, 5, 59, 96
1, 2448, Note_on_c, 6, 40, 96
1, 2458, Note_off_c, 5, 59, 0
1, 2460, Note_on_c, 5, 56, 96
1, 2469, Note_off_c, 6, 40, 0
1, 2470, Note_off_c, 5, 56, 0
1, 2472, Note_on_c, 6, 52, 96
1, 2484, Note_on_c, 5, 71, 96
1, 2493, Note_off_c, 6, 52, 0
1, 2494, Note_off_c, 5, 71, 0
1, 2496, Note_on_c, 5, 76, 96
1, 2496, Note_on_c, 6, 58, 96
1, 2496, Note_on_c, 6, 49, 96
1, 2506, Note_off_c, 5, 76, 0
1, 2508, Note_on_c, 5, 80, 96
1, 2517, Note_off_c, 6, 58, 0
1, 2517, Note_off_c, 6, 49, 0
1, 2518, Note_off_c, 5, 80, 0
1, 2520, Note_on_c, 5, 78, 96
1, 2520, Note_on_c, 6, 59, 96
1, 2520, Note_on_c, 6, 51, 96
1, 2530, Note_off_c, 5, 78, 0
1, 2532, Note_on_c, 5, 83, 96
1, 2542, Note_off_c, 5, 83, 0
1, 2544, Note_on_c, 0, 78, 80
1, 2544, Note_on_c, 1, 75, 80
1, 2544, Note_on_c, 5, 82, 96
1, 2554, Note_off_c, 5, 82, 0
1, 2556, Note_on_c, 5, 83, 96
1, 2562, Note_off_c, 6, 59, 0
1, 2562, Note_off_c, 6, 51, 0
1, 2565, Note_off_c, 0, 78, 0
1, 2565, Note_off_c, 1, 75, 0
1, 2566, Note_off_c, 5, 83, 0
1, 2568, Note_on_c, 0, 76, 80
1, 2568, Note_on_c, 1, 70, 80
1, 2568, Note_on_c, 5, 73, 96
1, 2573, Note_off_c, 5, 73, 0
1, 2574, Note_on_c, 5, 75, 96
1, 2579, Note_off_c, 5, 75, 0
1, 2580, Note_on_c, 5, 73, 96
1, 2585, Note_off_c, 5, 73, 0
1, 2586, Note_on_c, 5, 71, 96
1, 2589, Note_off_c, 0, 76, 0
1, 2589, Note_off_c, 1, 70, 0
1, 2591, Note_off_c, 5, 71, 0
1, 2592, Note_on_c, 0, 75, 80
1, 2592, Note_on_c, 1, 71, 80
1, 2592, Note_on_c, 5, 73, 96
1, 2592, Note_on_c, 6, 54, 96
1, 2592, Note_on_c, 6, 47, 96
1, 2602, Note_off_c, 5, 73, 0
1, 2604, Note_on_c, 5, 75, 96
1, 2613, Note_off_c, 0, 75, 0
1, 2613, Note_off_c, 1, 71, 0
1, 2613, Note_off_c, 6, 54, 0
1, 2613, Note_off_c, 6, 47, 0
1, 2614, Note_off_c, 5, 75, 0
1, 2616, Note_on_c, 5, 76, 96
1, 2616, Note_on_c, 6, 58, 96
1, 2616, Note_on_c, 6, 49, 96
1, 2626, Note_off_c, 5, 76, 0
1, 2628, Note_on_c, 5, 83, 96
1, 2638, Note_off_c, 5, 83, 0
1, 2640, Note_on_c, 0, 76, 80
1, 2640, Note_on_c, 1, 73, 80
1, 2640, Note_on_c, 5, 82, 96
1, 2650, Note_off_c, 5, 82, 0
1, 2652, Note_on_c, 5, 83, 96
1, 2658, Note_off_c, 6, 58, 0
1, 2658, Note_off_c, 6, 49, 0
1, 2661, Note_off_c, 0, 76, 0
1, 2661, Note_off_c, 1, 73, 0
1, 2662, Note_off_c, 5, 83, 0
1, 2664, Note_on_c, 0, 75, 80
1, 2664, Note_on_c, 1, 68, 80
1, 2664, Note_on_c, 5, 71, 96
1, 2669, Note_off_c, 5, 71, 0
1, 2670, Note_on_c, 5, 73, 96
1, 2675, Note_off_c, 5, 73, 0
1, 2676, Note_on_c, 5, 71, 96
1, 2681, Note_off_c, 5, 71, 0
1, 2682, Note_on_c, 5, 70, 96
1, 2685, Note_off_c, 0, 75, 0
1, 2685, Note_off_c, 1, 68, 0
1, 2687, Note_off_c, 5, 70, 0
1, 2688, Note_on_c, 0, 73, 80
1, 2688, Note_on_c, 1, 70, 80
1, 2688, Note_on_c, 3, 54, 80
1, 2688, Note_on_c, 4, 42, 80
1, 2688, Note_on_c, 5, 71, 96
1, 2688, Note_on_c, 6, 54, 96
1, 2698, Note_off_c, 5, 71, 0
1, 2700, Note_on_c, 5, 73, 96
1, 2709, Note_off_c, 0, 73, 0
1, 2709, Note_off_c, 1, 70, 0
1, 2709, Note_off_c, 3, 54, 0
1, 2709, Note_off_c, 4, 42, 0
1, 2709, Note_off_c, 6, 54, 0
1, 2710, Note_off_c, 5, 73, 0
1, 2712, Note_on_c, 3, 59, 80
1, 2712, Note_on_c, 4, 47, 80
1, 2712, Note_on_c, 5, 75, 96
1, 2712, Note_on_c, 6, 59, 96
1, 2733, Note_off_c, 3, 59, 0
1, 2733, Note_off_c, 4, 47, 0
1, 2733, Note_off_c, 5, 75, 0
1, 2733, Note_off_c, 6, 59, 0
1, 2736, Note_on_c, 0, 73, 80
1, 2736, Note_on_c, 1, 66, 80
1, 2736, Note_on_c, 2, 61, 80
1, 2736, Note_on_c, 3, 58, 80
1, 2736, Note_on_c, 4, 46, 80
1, 2736, Note_on_c, 5, 73, 96
1, 2736, Note_on_c, 6, 58, 96
1, 2757, Note_off_c, 0, 73, 0
1, 2757, Note_off_c, 1, 66, 0
1, 2757, Note_off_c, 2, 61, 0
1, 2757, Note_off_c, 3, 58, 0
1, 2757, Note_off_c, 4, 46, 0
1, 2757, Note_off_c, 5, 73, 0
1, 2757, Note_off_c, 6, 58, 0
1, 2760, Note_on_c, 0, 71, 80
1, 2760, Note_on_c, 1, 59, 80
1, 2760, Note_on_c, 2, 64, 80
1, 2760, Note_on_c, 3, 56, 80
1, 2760, Note_on_c, 4, 44, 80
1, 2760, Note_on_c, 5, 73, 96
1, 2760, Note_on_c, 6, 56, 96
1, 2765, Note_off_c, 5, 73, 0
1, 2766, Note_on_c, 5, 75, 96
1, 2771, Note_off_c, 5, 75, 0
1, 2772, Note_on_c, 5, 76, 96
1, 2781, Note_off_c, 0, 71, 0
1, 2781, Note_off_c, 1, 59, 0
1, 2781, Note_off_c, 2, 64, 0
1, 2781, Note_off_c, 3, 56, 0
1, 2781, Note_off_c, 4, 44, 0
1, 2781, Note_off_c, 6, 56, 0
1, 2782, Note_off_c, 5, 76, 0
1, 2784, Note_on_c, 0, 71, 80
1, 2784, Note_on_c, 1, 66, 80
1, 2784, Note_on_c, 2, 66, 80
1, 2784, Note_on_c, 3, 54, 80
1, 2784, Note_on_c, 4, 42, 80
1, 2784, Note_on_c, 5, 75, 96
1, 2784, Note_on_c, 6, 54, 96
1, 2790, Note_off_c, 5, 75, 0
1, 2805, Note_off_c, 0, 71, 0
1, 2805, Note_off_c, 1, 66, 0
1, 2805, Note_off_c, 2, 66, 0
1, 2805, Note_off_c, 3, 54, 0
1, 2805, Note_off_c, 4, 42, 0
1, 2805, Note_off_c, 6, 54, 0
1, 2808, Note_on_c, 0, 70, 80
1, 2808, Note_on_c, 1, 66, 80
1, 2808, Note_on_c, 2, 54, 80
1, 2808, Note_on_c, 3, 52, 80
1, 2808, Note_on_c, 4, 40, 80
1, 2808, Note_on_c, 5, 73, 96
1, 2808, Note_on_c, 6, 52, 96
1, 2814, Note_off_c, 5, 73, 0
1, 2814, Note_on_c, 5, 75, 96
1, 2820, Note_off_c, 5, 75, 0
1, 2820, Note_on_c, 5, 73, 96
1, 2829, Note_off_c, 0, 70, 0
1, 2829, Note_off_c, 1, 66, 0
1, 2829, Note_off_c, 2, 54, 0
1, 2829, Note_off_c, 3, 52, 0
1, 2829, Note_off_c, 4, 40, 0
1, 2829, Note_off_c, 6, 52, 0
1, 2830, Note_off_c, 5, 73, 0
1, 2832, Note_on_c, 0, 71, 80
1, 2832, Note_on_c, 1, 66, 80
1, 2832, Note_on_c, 2, 59, 80
1, 2832, Note_on_c, 3, 51, 80
1, 2832, Note_on_c, 4, 39, 80
1, 2832, Note_on_c, 5, 71, 96
1, 2832, Note_on_c, 6, 51, 96
1, 2842, Note_off_c, 6, 51, 0
1, 2844, Note_on_c, 6, 54, 96
1, 2853, Note_off_c, 0, 71, 0
1, 2853, Note_off_c, 1, 66, 0
1, 2853, Note_off_c, 2, 59, 0
1, 2853, Note_off_c, 3, 51, 0
1, 2853, Note_off_c, 4, 39, 0
1, 2853, Note_off_c, 5, 71, 0
1, 2854, Note_off_c, 6, 54, 0
1, 2856, Note_on_c, 5, 80, 96
1, 2856, Note_on_c, 6, 59, 96
1, 2862, Note_off_c, 5, 80, 0
1, 2862, Note_on_c, 5, 78, 96
1, 2866, Note_off_c, 6, 59, 0
1, 2868, Note_off_c, 5, 78, 0
1, 2868, Note_on_c, 5, 80, 96
1, 2868, Note_on_c, 6, 50, 96
1, 2878, Note_off_c, 6, 50, 0
1, 2880, Note_on_c, 0, 78, 80
1, 2880, Note_on_c, 1, 66, 80
1, 2880, Note_on_c, 2, 71, 80
1, 2880, Note_on_c, 3, 50, 80
1, 2880, Note_on_c, 4, 38, 80
1, 2880, Note_on_c, 6, 59, 96
1, 2890, Note_off_c, 6, 59, 0
1, 2892, Note_on_c, 6, 50, 96
1, 2901, Note_off_c, 0, 78, 0
1, 2901, Note_off_c, 1, 66, 0
1, 2901, Note_off_c, 2, 71, 0
1, 2901, Note_off_c, 3, 50, 0
1, 2901, Note_off_c, 4, 38, 0
1, 2902, Note_off_c, 6, 50, 0
1, 2904, Note_on_c, 0, 77, 80
1, 2904, Note_on_c, 1, 73, 80
1, 2904, Note_on_c, 2, 71, 80
1, 2904, Note_on_c, 3, 49, 80
1, 2904, Note_on_c, 4, 37, 80
1, 2904, Note_on_c, 6, 49, 96
1, 2910, Note_off_c, 5, 80, 0
1, 2914, Note_off_c, 6, 49, 0
1, 2916, Note_on_c, 5, 78, 96
1, 2916, Note_on_c, 6, 57, 96
1, 2925, Note_off_c, 3, 49, 0
1, 2925, Note_off_c, 4, 37, 0
1, 2926, Note_off_c, 5, 78, 0
1, 2926, Note_off_c, 6, 57, 0
1, 2928, Note_on_c, 3, 56, 80
1, 2928, Note_on_c, 4, 44, 80
1, 2928, Note_on_c, 5, 77, 96
1, 2928, Note_on_c, 6, 56, 96
1, 2938, Note_off_c, 5, 77, 0
1, 2938, Note_off_c, 6, 56, 0
1, 2940, Note_on_c, 5, 78, 96
1, 2940, Note_on_c, 6, 54, 96
1, 2949, Note_off_c, 3, 56, 0
1, 2949, Note_off_c, 4, 44, 0
1, 2950, Note_off_c, 5, 78, 0
1, 2950, Note_off_c, 6, 54, 0
1, 2952, Note_on_c, 3, 53, 80
1, 2952, Note_on_c, 4, 41, 80
1, 2952, Note_on_c, 5, 80, 96
1, 2952, Note_on_c, 6, 53, 96
1, 2962, Note_off_c, 5, 80, 0
1, 2962, Note_off_c, 6, 53, 0
1, 2964, Note_on_c, 5, 71, 96
1, 2964, Note_on_c, 6, 51, 96
1, 2973, Note_off_c, 3, 53, 0
1, 2973, Note_off_c, 4, 41, 0
1, 2974, Note_off_c, 5, 71, 0
1, 2974, Note_off_c, 6, 51, 0
1, 2976, Note_on_c, 3, 49, 80
1, 2976, Note_on_c, 4, 37, 80
1, 2976, Note_on_c, 5, 70, 96
1, 2976, Note_on_c, 6, 49, 96
1, 2986, Note_off_c, 5, 70, 0
1, 2986, Note_off_c, 6, 49, 0
1, 2988, Note_off_c, 0, 77, 0
1, 2988, Note_off_c, 1, 73, 0
1, 2988, Note_off_c, 2, 71, 0
1, 2988, Note_on_c, 5, 71, 96
1, 2988, Note_on_c, 6, 51, 96
1, 2997, Note_off_c, 3, 49, 0
1, 2997, Note_off_c, 4, 37, 0
1, 2998, Note_off_c, 5, 71, 0
1, 2998, Note_off_c, 6, 51, 0
1, 3000, Note_on_c, 0, 78, 80
1, 3000, Note_on_c, 1, 73, 80
1, 3000, Note_on_c, 2, 70, 80
1, 3000, Note_on_c, 3, 52, 80
1, 3000, Note_on_c, 4, 40, 80
1, 3000, Note_on_c, 5, 70, 96
1, 3000, Note_on_c, 6, 52, 96
1, 3010, Note_off_c, 5, 70, 0
1, 3010, Note_off_c, 6, 52, 0
1, 3012, Note_on_c, 5, 73, 96
1, 3012, Note_on_c, 6, 58, 96
1, 3022, Note_off_c, 5, 73, 0
1, 3022, Note_off_c, 6, 58, 0
1, 3024, Note_on_c, 5, 76, 96
1, 3024, Note_on_c, 6, 61, 96
1, 3034, Note_off_c, 5, 76, 0
1, 3034, Note_off_c, 6, 61, 0
1, 3036, Note_on_c, 5, 80, 96
1, 3036, Note_on_c, 6, 64, 96
1, 3042, Note_off_c, 0, 78, 0
1, 3042, Note_off_c, 1, 73, 0
1, 3042, Note_off_c, 2, 70, 0
1, 3042, Note_off_c, 3, 52, 0
1, 3042, Note_off_c, 4, 40, 0
1, 3046, Note_off_c, 5, 80, 0
1, 3046, Note_off_c, 6, 64, 0
1, 3048, Note_on_c, 5, 78, 96
1, 3048, Note_on_c, 6, 58, 96
1, 3058, Note_off_c, 6, 58, 0
1, 3060, Note_on_c, 6, 61, 96
1, 3070, Note_off_c, 6, 61, 0
1, 3072, Note_on_c, 0, 82, 80
1, 3072, Note_on_c, 1, 78, 80
1, 3072, Note_on_c, 2, 73, 80
1, 3072, Note_on_c, 3, 52, 80
1, 3072, Note_on_c, 4, 40, 80
1, 3072, Note_on_c, 6, 54, 96
1, 3082, Note_off_c, 6, 54, 0
1, 3084, Note_on_c, 6, 52, 96
1, 3093, Note_off_c, 0, 82, 0
1, 3093, Note_off_c, 1, 78, 0
1, 3093, Note_off_c, 2, 73, 0
1, 3093, Note_off_c, 3, 52, 0
1, 3093, Note_off_c, 4, 40, 0
1, 3094, Note_off_c, 6, 52, 0
1, 3096, Note_on_c, 0, 83, 80
1, 3096, Note_on_c, 1, 78, 80
1, 3096, Note_on_c, 2, 66, 80
1, 3096, Note_on_c, 3, 51, 80
1, 3096, Note_on_c, 4, 39, 80
1, 3096, Note_on_c, 6, 51, 96
1, 3111, Note_off_c, 5, 78, 0
1, 3117, Note_off_c, 0, 83, 0
1, 3117, Note_off_c, 1, 78, 0
1, 3117, Note_off_c, 2, 66, 0
1, 3117, Note_off_c, 3, 51, 0
1, 3117, Note_off_c, 4, 39, 0
1, 3117, Note_off_c, 6, 51, 0
1, 3120, Note_on_c, 5, 71, 96
1, 3120, Note_on_c, 6, 56, 96
1, 3141, Note_off_c, 5, 71, 0
1, 3141, Note_off_c, 6, 56, 0
1, 3144, Note_on_c, 5, 75, 96
1, 3144, Note_on_c, 6, 52, 96
1, 3154, Note_off_c, 5, 75, 0
1, 3156, Note_on_c, 5, 73, 96
1, 3165, Note_off_c, 6, 52, 0
1, 3166, Note_off_c, 5, 73, 0
1, 3168, Note_on_c, 5, 71, 96
1, 3168, Note_on_c, 6, 54, 96
1, 3178, Note_off_c, 5, 71, 0
1, 3180, Note_on_c, 5, 70, 96
1, 3189, Note_off_c, 6, 54, 0
1, 3190, Note_off_c, 5, 70, 0
1, 3192, Note_on_c, 5, 71, 96
1, 3192, Note_on_c, 6, 47, 96
1, 3213, Note_off_c, 6, 47, 0
1, 3216, Note_on_c, 0, 71, 96
1, 3216, Note_on_c, 1, 66, 96
1, 3216, Note_on_c, 2, 63, 96
1, 3216, Note_on_c, 3, 59, 96
1, 3216, Note_on_c, 4, 47, 96
1, 3216, Note_on_c, 6, 59, 96
1, 3226, Note_off_c, 0, 71, 0
1, 3226, Note_off_c, 2, 63, 0
1, 3226, Note_off_c, 3, 59, 0
1, 3226, Note_off_c, 4, 47, 0
1, 3226, Note_off_c, 6, 59, 0
1, 3228, Note_on_c, 0, 73, 96
1, 3228, Note_on_c, 2, 64, 96
1, 3228, Note_on_c, 3, 57, 96
1, 3228, Note_on_c, 4, 45, 96
1, 3228, Note_on_c, 6, 57, 96
1, 3234, Note_off_c, 5, 71, 0
1, 3237, Note_off_c, 1, 66, 0
1, 3238, Note_off_c, 0, 73, 0
1, 3238, Note_off_c, 2, 64, 0
1, 3238, Note_off_c, 3, 57, 0
1, 3238, Note_off_c, 4, 45, 0
1, 3238, Note_off_c, 6, 57, 0
1, 3240, Note_on_c, 0, 75, 96
1, 3240, Note_on_c, 1, 71, 96
1, 3240, Note_on_c, 2, 66, 96
1, 3240, Note_on_c, 3, 56, 96
1, 3240, Note_on_c, 4, 44, 96
1, 3240, Note_on_c, 6, 56, 96
1, 3250, Note_off_c, 0, 75, 0
1, 3250, Note_off_c, 2, 66, 0
1, 3252, Note_on_c, 0, 76, 96
1, 3252, Note_on_c, 2, 68, 96
1, 3252, Note_on_c, 5, 59, 96
1, 3261, Note_off_c, 1, 71, 0
1, 3261, Note_off_c, 3, 56, 0
1, 3261, Note_off_c, 4, 44, 0
1, 3261, Note_off_c, 6, 56, 0
1, 3262, Note_off_c, 0, 76, 0
1, 3262, Note_off_c, 2, 68, 0
1, 3262, Note_off_c, 5, 59, 0
1, 3264, Note_on_c, 0, 78, 96
1, 3264, Note_on_c, 1, 75, 96
1, 3264, Note_on_c, 2, 69, 96
1, 3264, Note_on_c, 3, 54, 96
1, 3264, Note_on_c, 4, 42, 96
1, 3264, Note_on_c, 5, 57, 96
1, 3264, Note_on_c, 6, 54, 96
1, 3274, Note_off_c, 0, 78, 0
1, 3274, Note_off_c, 2, 69, 0
1, 3274, Note_off_c, 5, 57, 0
1, 3276, Note_on_c, 0, 75, 96
1, 3276, Note_on_c, 2, 66, 96
1, 3276, Note_on_c, 5, 59, 96
1, 3285, Note_off_c, 1, 75, 0
1, 3285, Note_off_c, 3, 54, 0
1, 3285, Note_off_c, 4, 42, 0
1, 3285, Note_off_c, 6, 54, 0
1, 3286, Note_off_c, 0, 75, 0
1, 3286, Note_off_c, 2, 66, 0
1, 3286, Note_off_c, 5, 59, 0
1, 3288, Note_on_c, 0, 76, 96
1, 3288, Note_on_c, 1, 68, 96
1, 3288, Note_on_c, 2, 71, 96
1, 3288, Note_on_c, 3, 56, 96
1, 3288, Note_on_c, 4, 44, 96
1, 3288, Note_on_c, 5, 64, 96
1, 3288, Note_on_c, 6, 56, 96
1, 3298, Note_off_c, 5, 64, 0
1, 3298, Note_off_c, 6, 56, 0
1, 3300, Note_off_c, 0, 76, 0
1, 3300, Note_on_c, 0, 75, 80
1, 3300, Note_on_c, 5, 66, 96
1, 3300, Note_on_c, 6, 57, 96
1, 3309, Note_off_c, 1, 68, 0
1, 3309, Note_off_c, 2, 71, 0
1, 3309, Note_off_c, 3, 56, 0
1, 3309, Note_off_c, 4, 44, 0
1, 3310, Note_off_c, 5, 66, 0
1, 3310, Note_off_c, 6, 57, 0
1, 3312, Note_off_c, 0, 75, 0
1, 3312, Note_on_c, 0, 76, 80
1, 3312, Note_on_c, 1, 64, 80
1, 3312, Note_on_c, 2, 68, 80
1, 3312, Note_on_c, 5, 68, 96
1, 3312, Note_on_c, 6, 59, 96
1, 3318, Note_off_c, 5, 68, 0
1, 3324, Note_off_c, 0, 76, 0
1, 3324, Note_on_c, 0, 80, 80
1, 3333, Note_off_c, 1, 64, 0
1, 3333, Note_off_c, 2, 68, 0
1, 3333, Note_off_c, 6, 59, 0
1, 3334, Note_off_c, 0, 80, 0
1, 3336, Note_on_c, 0, 76, 80
1, 3336, Note_on_c, 1, 64, 80
1, 3336, Note_on_c, 2, 68, 80
1, 3336, Note_on_c, 5, 68, 96
1, 3336, Note_on_c, 6, 52, 96
1, 3346, Note_off_c, 0, 76, 0
1, 3346, Note_off_c, 5, 68, 0
1, 3346, Note_off_c, 6, 52, 0
1, 3348, Note_on_c, 0, 71, 80
1, 3348, Note_on_c, 5, 69, 96
1, 3348, Note_on_c, 6, 54, 96
1, 3357, Note_off_c, 1, 64, 0
1, 3357, Note_off_c, 2, 68, 0
1, 3358, Note_off_c, 0, 71, 0
1, 3358, Note_off_c, 5, 69, 0
1, 3358, Note_off_c, 6, 54, 0
1, 3360, Note_on_c, 0, 68, 80
1, 3360, Note_on_c, 1, 59, 80
1, 3360, Note_on_c, 2, 64, 80
1, 3360, Note_on_c, 5, 71, 96
1, 3360, Note_on_c, 6, 56, 96
1, 3366, Note_off_c, 5, 71, 0
1, 3370, Note_off_c, 0, 68, 0
1, 3372, Note_on_c, 0, 71, 80
1, 3381, Note_off_c, 1, 59, 0
1, 3381, Note_off_c, 2, 64, 0
1, 3381, Note_off_c, 6, 56, 0
1, 3382, Note_off_c, 0, 71, 0
1, 3384, Note_on_c, 0, 64, 80
1, 3384, Note_on_c, 1, 59, 80
1, 3384, Note_on_c, 2, 64, 80
1, 3384, Note_on_c, 5, 71, 96
1, 3384, Note_on_c, 6, 56, 96
1, 3394, Note_off_c, 0, 64, 0
1, 3394, Note_off_c, 5, 71, 0
1, 3394, Note_off_c, 6, 56, 0
1, 3396, Note_on_c, 0, 71, 80
1, 3396, Note_on_c, 5, 73, 96
1, 3396, Note_on_c, 6, 57, 96
1, 3405, Note_off_c, 1, 59, 0
1, 3405, Note_off_c, 2, 64, 0
1, 3406, Note_off_c, 0, 71, 0
1, 3406, Note_off_c, 5, 73, 0
1, 3406, Note_off_c, 6, 57, 0
1, 3408, Note_on_c, 0, 68, 80
1, 3408, Note_on_c, 1, 59, 80
1, 3408, Note_on_c, 2, 56, 80
1, 3408, Note_on_c, 3, 59, 80
1, 3408, Note_on_c, 4, 47, 80
1, 3408, Note_on_c, 5, 75, 96
1, 3408, Note_on_c, 6, 59, 96
1, 3414, Note_off_c, 5, 75, 0
1, 3418, Note_off_c, 0, 68, 0
1, 3418, Note_off_c, 3, 59, 0
1, 3418, Note_off_c, 4, 47, 0
1, 3418, Note_off_c, 6, 59, 0
1, 3420, Note_on_c, 0, 71, 80
1, 3420, Note_on_c, 3, 57, 80
1, 3420, Note_on_c, 4, 45, 80
1, 3420, Note_on_c, 6, 57, 96
1, 3429, Note_off_c, 1, 59, 0
1, 3429, Note_off_c, 2, 56, 0
1, 3430, Note_off_c, 0, 71, 0
1, 3430, Note_off_c, 3, 57, 0
1, 3430, Note_off_c, 4, 45, 0
1, 3430, Note_off_c, 6, 57, 0
1, 3432, Note_on_c, 0, 64, 80
1, 3432, Note_on_c, 1, 59, 80
1, 3432, Note_on_c, 2, 56, 80
1, 3432, Note_on_c, 3, 56, 80
1, 3432, Note_on_c, 4, 44, 80
1, 3432, Note_on_c, 5, 76, 96
1, 3432, Note_on_c, 6, 56, 96
1, 3442, Note_off_c, 0, 64, 0
1, 3442, Note_off_c, 3, 56, 0
1, 3442, Note_off_c, 4, 44, 0
1, 3442, Note_off_c, 6, 56, 0
1, 3444, Note_on_c, 0, 71, 80
1, 3444, Note_on_c, 3, 54, 80
1, 3444, Note_on_c, 4, 42, 80
1, 3444, Note_on_c, 6, 54, 96
1, 3453, Note_off_c, 1, 59, 0
1, 3453, Note_off_c, 2, 56, 0
1, 3453, Note_off_c, 5, 76, 0
1, 3454, Note_off_c, 0, 71, 0
1, 3454, Note_off_c, 3, 54, 0
1, 3454, Note_off_c, 4, 42, 0
1, 3454, Note_off_c, 6, 54, 0
1, 3456, Note_on_c, 0, 68, 80
1, 3456, Note_on_c, 3, 52, 80
1, 3456, Note_on_c, 4, 40, 80
1, 3456, Note_on_c, 5, 76, 96
1, 3456, Note_on_c, 6, 52, 96
1, 3466, Note_off_c, 0, 68, 0
1, 3466, Note_off_c, 3, 52, 0
1, 3466, Note_off_c, 4, 40, 0
1, 3466, Note_off_c, 5, 76, 0
1, 3466, Note_off_c, 6, 52, 0
1, 3468, Note_on_c, 0, 71, 80
1, 3468, Note_on_c, 3, 51, 80
1, 3468, Note_on_c, 4, 39, 80
1, 3468, Note_on_c, 5, 78, 96
1, 3468, Note_on_c, 6, 51, 96
1, 3478, Note_off_c, 0, 71, 0
1, 3478, Note_off_c, 3, 51, 0
1, 3478, Note_off_c, 4, 39, 0
1, 3478, Note_off_c, 5, 78, 0
1, 3478, Note_off_c, 6, 51, 0
1, 3480, Note_on_c, 0, 76, 80
1, 3480, Note_on_c, 3, 52, 80
1, 3480, Note_on_c, 4, 40, 80
1, 3480, Note_on_c, 5, 80, 96
1, 3480, Note_on_c, 6, 52, 96
1, 3485, Note_off_c, 5, 80, 0
1, 3486, Note_on_c, 5, 81, 96
1, 3490, Note_off_c, 0, 76, 0
1, 3491, Note_off_c, 5, 81, 0
1, 3492, Note_on_c, 0, 75, 80
1, 3492, Note_on_c, 5, 80, 96
1, 3497, Note_off_c, 5, 80, 0
1, 3498, Note_on_c, 5, 78, 96
1, 3501, Note_off_c, 3, 52, 0
1, 3501, Note_off_c, 4, 40, 0
1, 3501, Note_off_c, 6, 52, 0
1, 3502, Note_off_c, 0, 75, 0
1, 3503, Note_off_c, 5, 78, 0
1, 3504, Note_on_c, 0, 76, 80
1, 3504, Note_on_c, 5, 80, 96
1, 3504, Note_on_c, 6, 47, 96
1, 3514, Note_off_c, 0, 76, 0
1, 3514, Note_off_c, 5, 80, 0
1, 3516, Note_on_c, 0, 80, 80
1, 3516, Note_on_c, 5, 75, 96
1, 3525, Note_off_c, 6, 47, 0
1, 3526, Note_off_c, 0, 80, 0
1, 3526, Note_off_c, 5, 75, 0
1, 3528, Note_on_c, 0, 76, 80
1, 3528, Note_on_c, 5, 76, 96
1, 3528, Note_on_c, 6, 49, 96
1, 3538, Note_off_c, 0, 76, 0
1, 3538, Note_off_c, 5, 76, 0
1, 3540, Note_on_c, 0, 71, 80
1, 3540, Note_on_c, 5, 80, 96
1, 3549, Note_off_c, 6, 49, 0
1, 3550, Note_off_c, 0, 71, 0
1, 3550, Note_off_c, 5, 80, 0
1, 3552, Note_on_c, 0, 68, 80
1, 3552, Note_on_c, 5, 83, 96
1, 3552, Note_on_c, 6, 51, 96
1, 3562, Note_off_c, 0, 68, 0
1, 3562, Note_off_c, 5, 83, 0
1, 3564, Note_on_c, 0, 71, 80
1, 3564, Note_on_c, 5, 78, 96
1, 3573, Note_off_c, 6, 51, 0
1, 3574, Note_off_c, 0, 71, 0
1, 3574, Note_off_c, 5, 78, 0
1, 3576, Note_on_c, 0, 64, 80
1, 3576, Note_on_c, 5, 81, 96
1, 3576, Note_on_c, 6, 52, 96
1, 3586, Note_off_c, 0, 64, 0
1, 3586, Note_off_c, 5, 81, 0
1, 3588, Note_on_c, 0, 71, 80
1, 3588, Note_on_c, 5, 80, 96
1, 3597, Note_off_c, 6, 52, 0
1, 3598, Note_off_c, 0, 71, 0
1, 3598, Note_off_c, 5, 80, 0
1, 3600, Note_on_c, 0, 68, 80
1, 3600, Note_on_c, 5, 78, 96
1, 3600, Note_on_c, 6, 47, 96
1, 3610, Note_off_c, 0, 68, 0
1, 3610, Note_off_c, 5, 78, 0
1, 3612, Note_on_c, 0, 71, 80
1, 3612, Note_on_c, 5, 76, 96
1, 3621, Note_off_c, 6, 47, 0
1, 3622, Note_off_c, 0, 71, 0
1, 3622, Note_off_c, 5, 76, 0
1, 3624, Note_on_c, 0, 76, 80
1, 3624, Note_on_c, 5, 76, 96
1, 3624, Note_on_c, 6, 44, 96
1, 3634, Note_off_c, 0, 76, 0
1, 3634, Note_off_c, 5, 76, 0
1, 3636, Note_on_c, 0, 71, 80
1, 3636, Note_on_c, 5, 80, 96
1, 3645, Note_off_c, 6, 44, 0
1, 3646, Note_off_c, 0, 71, 0
1, 3646, Note_off_c, 5, 80, 0
1, 3648, Note_on_c, 0, 78, 96
1, 3648, Note_on_c, 1, 75, 96
1, 3648, Note_on_c, 2, 71, 96
1, 3648, Note_on_c, 3, 59, 96
1, 3648, Note_on_c, 4, 47, 96
1, 3648, Note_on_c, 5, 78, 96
1, 3648, Note_on_c, 6, 47, 96
1, 3658, Note_off_c, 0, 78, 0
1, 3658, Note_off_c, 5, 78, 0
1, 3660, Note_on_c, 0, 71, 96
1, 3660, Note_on_c, 5, 81, 96
1, 3669, Note_off_c, 1, 75, 0
1, 3669, Note_off_c, 2, 71, 0
1, 3669, Note_off_c, 3, 59, 0
1, 3669, Note_off_c, 4, 47, 0
1, 3669, Note_off_c, 6, 47, 0
1, 3670, Note_off_c, 0, 71, 0
1, 3670, Note_off_c, 5, 81, 0
1, 3672, Note_on_c, 0, 80, 96
1, 3672, Note_on_c, 1, 76, 96
1, 3672, Note_on_c, 2, 71, 96
1, 3672, Note_on_c, 3, 64, 96
1, 3672, Note_on_c, 4, 52, 96
1, 3672, Note_on_c, 5, 80, 96
1, 3672, Note_on_c, 6, 52, 96
1, 3678, Note_off_c, 5, 80, 0
1, 3693, Note_off_c, 0, 80, 0
1, 3693, Note_off_c, 1, 76, 0
1, 3693, Note_off_c, 2, 71, 0
1, 3693, Note_off_c, 3, 64, 0
1, 3693, Note_off_c, 4, 52, 0
1, 3693, Note_off_c, 6, 52, 0
1, 3696, Note_on_c, 0, 78, 96
1, 3696, Note_on_c, 1, 78, 96
1, 3696, Note_on_c, 2, 71, 96
1, 3696, Note_on_c, 3, 63, 96
1, 3696, Note_on_c, 4, 51, 96
1, 3696, Note_on_c, 5, 78, 96
1, 3696, Note_on_c, 6, 51, 96
1, 3699, Note_off_c, 5, 78, 0
1, 3708, Note_on_c, 5, 80, 96
1, 3714, Note_off_c, 5, 80, 0
1, 3714, Note_on_c, 5, 78, 96
1, 3717, Note_off_c, 0, 78, 0
1, 3717, Note_off_c, 1, 78, 0
1, 3717, Note_off_c, 2, 71, 0
1, 3717, Note_off_c, 3, 63, 0
1, 3717, Note_off_c, 4, 51, 0
1, 3717, Note_off_c, 6, 51, 0
1, 3720, Note_on_c, 0, 81, 96
1, 3720, Note_on_c, 1, 76, 96
1, 3720, Note_on_c, 2, 64, 96
1, 3720, Note_on_c, 3, 61, 96
1, 3720, Note_on_c, 4, 49, 96
1, 3720, Note_off_c, 5, 78, 0
1, 3720, Note_on_c, 5, 80, 96
1, 3720, Note_on_c, 6, 49, 96
1, 3726, Note_off_c, 5, 80, 0
1, 3726, Note_on_c, 5, 81, 96
1, 3730, Note_off_c, 5, 81, 0
1, 3741, Note_off_c, 0, 81, 0
1, 3741, Note_off_c, 1, 76, 0
1, 3741, Note_off_c, 2, 64, 0
1, 3741, Note_off_c, 3, 61, 0
1, 3741, Note_off_c, 4, 49, 0
1, 3741, Note_off_c, 6, 49, 0
1, 3744, Note_on_c, 0, 80, 96
1, 3744, Note_on_c, 1, 76, 96
1, 3744, Note_on_c, 2, 68, 96
1, 3744, Note_on_c, 3, 59, 96
1, 3744, Note_on_c, 4, 47, 96
1, 3744, Note_on_c, 5, 80, 96
1, 3744, Note_on_c, 6, 47, 96
1, 3750, Note_off_c, 5, 80, 0
1, 3765, Note_off_c, 0, 80, 0
1, 3765, Note_off_c, 1, 76, 0
1, 3765, Note_off_c, 2, 68, 0
1, 3765, Note_off_c, 3, 59, 0
1, 3765, Note_off_c, 4, 47, 0
1, 3765, Note_off_c, 6, 47, 0
1, 3768, Note_on_c, 0, 78, 96
1, 3768, Note_on_c, 1, 75, 96
1, 3768, Note_on_c, 2, 71, 96
1, 3768, Note_on_c, 3, 57, 96
1, 3768, Note_on_c, 4, 45, 96
1, 3768, Note_on_c, 5, 78, 96
1, 3768, Note_on_c, 6, 45, 96
1, 3774, Note_off_c, 5, 78, 0
1, 3774, Note_on_c, 5, 80, 96
1, 3780, Note_off_c, 5, 80, 0
1, 3780, Note_on_c, 5, 78, 96
1, 3789, Note_off_c, 0, 78, 0
1, 3789, Note_off_c, 1, 75, 0
1, 3789, Note_off_c, 2, 71, 0
1, 3789, Note_off_c, 3, 57, 0
1, 3789, Note_off_c, 4, 45, 0
1, 3789, Note_off_c, 6, 45, 0
1, 3790, Note_off_c, 5, 78, 0
1, 3792, Note_on_c, 0, 76, 96
1, 3792, Note_on_c, 1, 76, 96
1, 3792, Note_on_c, 2, 59, 96
1, 3792, Note_on_c, 3, 56, 96
1, 3792, Note_on_c, 4, 44, 96
1, 3792, Note_on_c, 5, 76, 96
1, 3792, Note_on_c, 6, 44, 96
1, 3813, Note_off_c, 0, 76, 0
1, 3813, Note_off_c, 1, 76, 0
1, 3813, Note_off_c, 2, 59, 0
1, 3813, Note_off_c, 3, 56, 0
1, 3813, Note_off_c, 4, 44, 0
1, 3813, Note_off_c, 5, 76, 0
1, 3813, Note_off_c, 6, 44, 0
1, 3816, Note_on_c, 0, 83, 96
1, 3816, Note_on_c, 5, 83, 96
1, 3840, Note_on_c, 1, 76, 96
1, 3840, Note_on_c, 2, 71, 96
1, 3840, Note_on_c, 3, 56, 96
1, 3840, Note_on_c, 4, 44, 96
1, 3840, Note_on_c, 6, 56, 96
1, 3850, Note_off_c, 1, 76, 0
1, 3852, Note_on_c, 1, 75, 96
1, 3861, Note_off_c, 2, 71, 0
1, 3861, Note_off_c, 3, 56, 0
1, 3861, Note_off_c, 4, 44, 0
1, 3861, Note_off_c, 6, 56, 0
1, 3862, Note_off_c, 1, 75, 0
1, 3864, Note_on_c, 1, 76, 96
1, 3864, Note_on_c, 2, 68, 96
1, 3864, Note_on_c, 3, 61, 96
1, 3864, Note_on_c, 4, 49, 96
1, 3864, Note_on_c, 6, 61, 96
1, 3868, Note_off_c, 0, 83, 0
1, 3868, Note_off_c, 5, 83, 0
1, 3876, Note_on_c, 0, 76, 96
1, 3876, Note_on_c, 5, 76, 96
1, 3885, Note_off_c, 1, 76, 0
1, 3885, Note_off_c, 2, 68, 0
1, 3885, Note_off_c, 3, 61, 0
1, 3885, Note_off_c, 4, 49, 0
1, 3885, Note_off_c, 6, 61, 0
1, 3886, Note_off_c, 0, 76, 0
1, 3886, Note_off_c, 5, 76, 0
1, 3888, Note_on_c, 0, 75, 96
1, 3888, Note_on_c, 1, 80, 96
1, 3888, Note_on_c, 2, 71, 96
1, 3888, Note_on_c, 3, 59, 96
1, 3888, Note_on_c, 4, 47, 96
1, 3888, Note_on_c, 5, 75, 96
1, 3888, Note_on_c, 6, 59, 96
1, 3898, Note_off_c, 0, 75, 0
1, 3898, Note_off_c, 5, 75, 0
1, 3900, Note_on_c, 0, 76, 96
1, 3900, Note_on_c, 5, 76, 96
1, 3909, Note_off_c, 1, 80, 0
1, 3909, Note_off_c, 2, 71, 0
1, 3909, Note_off_c, 3, 59, 0
1, 3909, Note_off_c, 4, 47, 0
1, 3909, Note_off_c, 6, 59, 0
1, 3910, Note_off_c, 0, 76, 0
1, 3910, Note_off_c, 5, 76, 0
1, 3912, Note_on_c, 0, 78, 96
1, 3912, Note_on_c, 1, 75, 96
1, 3912, Note_on_c, 2, 71, 96
1, 3912, Note_on_c, 3, 57, 96
1, 3912, Note_on_c, 4, 45, 96
1, 3912, Note_on_c, 5, 78, 96
1, 3912, Note_on_c, 6, 57, 96
1, 3922, Note_off_c, 5, 78, 0
1, 3924, Note_on_c, 5, 80, 96
1, 3933, Note_off_c, 0, 78, 0
1, 3933, Note_off_c, 1, 75, 0
1, 3933, Note_off_c, 2, 71, 0
1, 3933, Note_off_c, 3, 57, 0
1, 3933, Note_off_c, 4, 45, 0
1, 3933, Note_off_c, 6, 57, 0
1, 3934, Note_off_c, 5, 80, 0
1, 3936, Note_on_c, 0, 76, 96
1, 3936, Note_on_c, 1, 76, 96
1, 3936, Note_on_c, 2, 59, 96
1, 3936, Note_on_c, 3, 56, 96
1, 3936, Note_on_c, 4, 44, 96
1, 3936, Note_on_c, 5, 81, 96
1, 3936, Note_on_c, 6, 56, 96
1, 3942, Note_off_c, 5, 81, 0
1, 3942, Note_on_c, 5, 80, 96
1, 3947, Note_off_c, 5, 80, 0
1, 3948, Note_on_c, 5, 78, 96
1, 3953, Note_off_c, 5, 78, 0
1, 3954, Note_on_c, 5, 80, 96
1, 3957, Note_off_c, 0, 76, 0
1, 3957, Note_off_c, 1, 76, 0
1, 3957, Note_off_c, 2, 59, 0
1, 3957, Note_off_c, 3, 56, 0
1, 3957, Note_off_c, 4, 44, 0
1, 3957, Note_off_c, 6, 56, 0
1, 3959, Note_off_c, 5, 80, 0
1, 3960, Note_on_c, 0, 75, 96
1, 3960, Note_on_c, 1, 69, 96
1, 3960, Note_on_c, 2, 66, 96
1, 3960, Note_on_c, 3, 54, 96
1, 3960, Note_on_c, 4, 42, 96
1, 3960, Note_on_c, 5, 81, 96
1, 3960, Note_on_c, 6, 54, 96
1, 3970, Note_off_c, 0, 75, 0
1, 3972, Note_on_c, 0, 76, 96
1, 3981, Note_off_c, 1, 69, 0
1, 3981, Note_off_c, 2, 66, 0
1, 3981, Note_off_c, 3, 54, 0
1, 3981, Note_off_c, 4, 42, 0
1, 3981, Note_off_c, 6, 54, 0
1, 3982, Note_off_c, 0, 76, 0
1, 3984, Note_on_c, 0, 78, 96
1, 3984, Note_on_c, 1, 73, 96
1, 3984, Note_on_c, 2, 69, 96
1, 3984, Note_on_c, 3, 52, 96
1, 3984, Note_on_c, 4, 40, 96
1, 3984, Note_on_c, 6, 52, 96
1, 3994, Note_off_c, 0, 78, 0
1, 3996, Note_on_c, 0, 75, 96
1, 4005, Note_off_c, 1, 73, 0
1, 4005, Note_off_c, 2, 69, 0
1, 4005, Note_off_c, 3, 52, 0
1, 4005, Note_off_c, 4, 40, 0
1, 4005, Note_off_c, 6, 52, 0
1, 4006, Note_off_c, 0, 75, 0
1, 4008, Note_on_c, 0, 71, 96
1, 4008, Note_on_c, 1, 66, 96
1, 4008, Note_on_c, 2, 71, 96
1, 4008, Note_on_c, 3, 51, 96
1, 4008, Note_on_c, 4, 39, 96
1, 4008, Note_on_c, 6, 51, 96
1, 4012, Note_off_c, 5, 81, 0
1, 4018, Note_off_c, 0, 71, 0
1, 4020, Note_on_c, 0, 81, 96
1, 4020, Note_on_c, 5, 75, 96
1, 4029, Note_off_c, 1, 66, 0
1, 4029, Note_off_c, 2, 71, 0
1, 4029, Note_off_c, 3, 51, 0
1, 4029, Note_off_c, 4, 39, 0
1, 4029, Note_off_c, 6, 51, 0
1, 4030, Note_off_c, 0, 81, 0
1, 4030, Note_off_c, 5, 75, 0
1, 4032, Note_on_c, 0, 80, 96
1, 4032, Note_on_c, 1, 71, 96
1, 4032, Note_on_c, 2, 63, 96
1, 4032, Note_on_c, 3, 47, 96
1, 4032, Note_on_c, 4, 35, 96
1, 4032, Note_on_c, 5, 76, 96
1, 4032, Note_on_c, 6, 47, 96
1, 4042, Note_off_c, 0, 80, 0
1, 4042, Note_off_c, 5, 76, 0
1, 4044, Note_on_c, 0, 78, 96
1, 4044, Note_on_c, 5, 78, 96
1, 4053, Note_off_c, 1, 71, 0
1, 4053, Note_off_c, 2, 63, 0
1, 4053, Note_off_c, 3, 47, 0
1, 4053, Note_off_c, 4, 35, 0
1, 4053, Note_off_c, 6, 47, 0
1, 4054, Note_off_c, 0, 78, 0
1, 4054, Note_off_c, 5, 78, 0
1, 4056, Note_on_c, 0, 80, 96
1, 4056, Note_on_c, 1, 71, 96
1, 4056, Note_on_c, 2, 64, 96
1, 4056, Note_on_c, 3, 52, 96
1, 4056, Note_on_c, 4, 40, 96
1, 4056, Note_on_c, 5, 71, 96
1, 4056, Note_on_c, 6, 52, 96
1, 4066, Note_off_c, 5, 71, 0
1, 4068, Note_on_c, 5, 80, 96
1, 4077, Note_off_c, 0, 80, 0
1, 4077, Note_off_c, 1, 71, 0
1, 4077, Note_off_c, 2, 64, 0
1, 4077, Note_off_c, 3, 52, 0
1, 4077, Note_off_c, 4, 40, 0
1, 4077, Note_off_c, 6, 52, 0
1, 4080, Note_off_c, 5, 80, 0
1, 4080, Note_on_c, 5, 78, 96
1, 4080, Note_on_c, 6, 59, 96
1, 4092, Note_off_c, 5, 78, 0
1, 4092, Note_on_c, 5, 76, 96
1, 4101, Note_off_c, 6, 59, 0
1, 4102, Note_off_c, 5, 76, 0
1, 4104, Note_on_c, 0, 78, 96
1, 4104, Note_on_c, 1, 71, 96
1, 4104, Note_on_c, 2, 66, 96
1, 4104, Note_on_c, 3, 51, 96
1, 4104, Note_on_c, 4, 39, 96
1, 4104, Note_on_c, 5, 71, 96
1, 4104, Note_on_c, 6, 51, 96
1, 4114, Note_off_c, 5, 71, 0
1, 4116, Note_on_c, 5, 78, 96
1, 4125, Note_off_c, 0, 78, 0
1, 4125, Note_off_c, 1, 71, 0
1, 4125, Note_off_c, 2, 66, 0
1, 4125, Note_off_c, 3, 51, 0
1, 4125, Note_off_c, 4, 39, 0
1, 4125, Note_off_c, 6, 51, 0
1, 4128, Note_off_c, 5, 78, 0
1, 4128, Note_on_c, 5, 76, 96
1, 4128, Note_on_c, 6, 59, 96
1, 4140, Note_off_c, 5, 76, 0
1, 4140, Note_on_c, 5, 75, 96
1, 4149, Note_off_c, 6, 59, 0
1, 4150, Note_off_c, 5, 75, 0
1, 4152, Note_on_c, 0, 76, 96
1, 4152, Note_on_c, 1, 73, 96
1, 4152, Note_on_c, 2, 68, 96
1, 4152, Note_on_c, 3, 49, 96
1, 4152, Note_on_c, 4, 37, 96
1, 4152, Note_on_c, 5, 76, 96
1, 4152, Note_on_c, 6, 49, 96
1, 4162, Note_off_c, 5, 76, 0
1, 4164, Note_on_c, 5, 69, 96
1, 4173, Note_off_c, 0, 76, 0
1, 4173, Note_off_c, 1, 73, 0
1, 4173, Note_off_c, 2, 68, 0
1, 4173, Note_off_c, 3, 49, 0
1, 4173, Note_off_c, 4, 37, 0
1, 4173, Note_off_c, 6, 49, 0
1, 4176, Note_off_c, 5, 69, 0
1, 4176, Note_on_c, 5, 68, 96
1, 4176, Note_on_c, 6, 52, 96
1, 4188, Note_off_c, 5, 68, 0
1, 4188, Note_on_c, 5, 66, 96
1, 4197, Note_off_c, 6, 52, 0
1, 4198, Note_off_c, 5, 66, 0
1, 4200, Note_on_c, 0, 74, 96
1, 4200, Note_on_c, 1, 71, 96
1, 4200, Note_on_c, 2, 64, 96
1, 4200, Note_on_c, 3, 44, 96
1, 4200, Note_on_c, 4, 32, 96
1, 4200, Note_on_c, 5, 64, 96
1, 4200, Note_on_c, 6, 44, 96
1, 4210, Note_off_c, 5, 64, 0
1, 4212, Note_on_c, 5, 74, 96
1, 4221, Note_off_c, 0, 74, 0
1, 4221, Note_off_c, 1, 71, 0
1, 4221, Note_off_c, 2, 64, 0
1, 4221, Note_off_c, 3, 44, 0
1, 4221, Note_off_c, 4, 32, 0
1, 4221, Note_off_c, 6, 44, 0
1, 4224, Note_off_c, 5, 74, 0
1, 4224, Note_on_c, 5, 73, 96
1, 4224, Note_on_c, 6, 52, 96
1, 4236, Note_off_c, 5, 73, 0
1, 4236, Note_on_c, 5, 71, 96
1, 4245, Note_off_c, 6, 52, 0
1, 4246, Note_off_c, 5, 71, 0
1, 4248, Note_on_c, 0, 73, 96
1, 4248, Note_on_c, 1, 69, 96
1, 4248, Note_on_c, 2, 64, 96
1, 4248, Note_on_c, 3, 45, 96
1, 4248, Note_on_c, 4, 33, 96
1, 4248, Note_on_c, 5, 73, 96
1, 4248, Note_on_c, 6, 45, 96
1, 4260, Note_off_c, 5, 73, 0
1, 4260, Note_on_c, 5, 71, 96
1, 4269, Note_off_c, 0, 73, 0
1, 4269, Note_off_c, 1, 69, 0
1, 4269, Note_off_c, 2, 64, 0
1, 4269, Note_off_c, 3, 45, 0
1, 4269, Note_off_c, 4, 33, 0
1, 4269, Note_off_c, 6, 45, 0
1, 4272, Note_off_c, 5, 71, 0
1, 4272, Note_on_c, 5, 69, 96
1, 4272, Note_on_c, 6, 52, 96
1, 4284, Note_off_c, 5, 69, 0
1, 4284, Note_on_c, 5, 68, 96
1, 4293, Note_off_c, 6, 52, 0
1, 4294, Note_off_c, 5, 68, 0
1, 4296, Note_on_c, 0, 75, 96
1, 4296, Note_on_c, 1, 69, 96
1, 4296, Note_on_c, 2, 59, 96
1, 4296, Note_on_c, 3, 47, 96
1, 4296, Note_on_c, 4, 35, 96
1, 4296, Note_on_c, 5, 66, 96
1, 4296, Note_on_c, 6, 47, 96
1, 4306, Note_off_c, 5, 66, 0
1, 4308, Note_on_c, 5, 73, 96
1, 4317, Note_off_c, 0, 75, 0
1, 4317, Note_off_c, 1, 69, 0
1, 4317, Note_off_c, 2, 59, 0
1, 4317, Note_off_c, 3, 47, 0
1, 4317, Note_off_c, 4, 35, 0
1, 4317, Note_off_c, 6, 47, 0
1, 4318, Note_off_c, 5, 73, 0
1, 4320, Note_on_c, 5, 71, 96
1, 4320, Note_on_c, 6, 51, 96
1, 4330, Note_off_c, 5, 71, 0
1, 4332, Note_on_c, 5, 69, 96
1, 4341, Note_off_c, 6, 51, 0
1, 4342, Note_off_c, 5, 69, 0
1, 4344, Note_on_c, 0, 76, 96
1, 4344, Note_on_c, 1, 68, 96
1, 4344, Note_on_c, 2, 59, 96
1, 4344, Note_on_c, 3, 40, 96
1, 4344, Note_on_c, 4, 28, 96
1, 4344, Note_on_c, 5, 68, 96
1, 4344, Note_on_c, 6, 40, 96
1, 4354, Note_off_c, 5, 68, 0
1, 4356, Note_on_c, 5, 69, 96
1, 4365, Note_off_c, 0, 76, 0
1, 4365, Note_off_c, 1, 68, 0
1, 4365, Note_off_c, 2, 59, 0
1, 4365, Note_off_c, 3, 40, 0
1, 4365, Note_off_c, 4, 28, 0
1, 4365, Note_off_c, 6, 40, 0
1, 4366, Note_off_c, 5, 69, 0
1, 4368, Note_on_c, 5, 71, 96
1, 4368, Note_on_c, 6, 52, 96
1, 4378, Note_off_c, 5, 71, 0
1, 4380, Note_on_c, 5, 68, 96
1, 4390, Note_off_c, 5, 68, 0
1, 4392, Note_on_c, 5, 64, 96
1, 4399, Note_off_c, 6, 52, 0
1, 4404, Note_on_c, 6, 54, 96
1, 4413, Note_off_c, 5, 64, 0
1, 4414, Note_off_c, 6, 54, 0
1, 4416, Note_on_c, 5, 76, 96
1, 4416, Note_on_c, 6, 56, 96
1, 4422, Note_off_c, 5, 76, 0
1, 4426, Note_off_c, 6, 56, 0
1, 4428, Note_on_c, 6, 52, 96
1, 4438, Note_off_c, 6, 52, 0
1, 4440, Note_on_c, 5, 76, 96
1, 4440, Note_on_c, 6, 49, 96
1, 4450, Note_off_c, 5, 76, 0
1, 4450, Note_off_c, 6, 49, 0
1, 4452, Note_on_c, 5, 75, 96
1, 4452, Note_on_c, 6, 54, 96
1, 4462, Note_off_c, 5, 75, 0
1, 4462, Note_off_c, 6, 54, 0
1, 4464, Note_on_c, 5, 73, 96
1, 4464, Note_on_c, 6, 52, 96
1, 4470, Note_off_c, 5, 73, 0
1, 4474, Note_off_c, 6, 52, 0
1, 4476, Note_on_c, 6, 51, 96
1, 4486, Note_off_c, 6, 51, 0
1, 4488, Note_on_c, 5, 73, 96
1, 4488, Note_on_c, 6, 52, 96
1, 4498, Note_off_c, 5, 73, 0
1, 4498, Note_off_c, 6, 52, 0
1, 4500, Note_on_c, 5, 71, 96
1, 4500, Note_on_c, 6, 63, 96
1, 4510, Note_off_c, 5, 71, 0
1, 4510, Note_off_c, 6, 63, 0
1, 4512, Note_on_c, 5, 70, 96
1, 4512, Note_on_c, 6, 61, 96
1, 4518, Note_off_c, 5, 70, 0
1, 4522, Note_off_c, 6, 61, 0
1, 4524, Note_on_c, 6, 59, 96
1, 4534, Note_off_c, 6, 59, 0
1, 4536, Note_on_c, 5, 70, 96
1, 4536, Note_on_c, 6, 61, 96
1, 4546, Note_off_c, 5, 70, 0
1, 4548, Note_on_c, 5, 73, 96
1, 4557, Note_off_c, 6, 61, 0
1, 4558, Note_off_c, 5, 73, 0
1, 4560, Note_on_c, 0, 73, 80
1, 4560, Note_on_c, 1, 70, 80
1, 4560, Note_on_c, 2, 66, 80
1, 4560, Note_on_c, 3, 52, 80
1, 4560, Note_on_c, 4, 40, 80
1, 4560, Note_on_c, 5, 78, 96
1, 4560, Note_on_c, 6, 52, 96
1, 4566, Note_off_c, 5, 78, 0
1, 4581, Note_off_c, 0, 73, 0
1, 4581, Note_off_c, 1, 70, 0
1, 4581, Note_off_c, 2, 66, 0
1, 4581, Note_off_c, 3, 52, 0
1, 4581, Note_off_c, 4, 40, 0
1, 4581, Note_off_c, 6, 52, 0
1, 4584, Note_on_c, 0, 73, 80
1, 4584, Note_on_c, 1, 70, 80
1, 4584, Note_on_c, 2, 66, 80
1, 4584, Note_on_c, 3, 52, 80
1, 4584, Note_on_c, 4, 40, 80
1, 4584, Note_on_c, 5, 78, 96
1, 4590, Note_off_c, 5, 78, 0
1, 4590, Note_on_c, 5, 76, 96
1, 4596, Note_off_c, 5, 76, 0
1, 4596, Note_on_c, 5, 78, 96
1, 4605, Note_off_c, 0, 73, 0
1, 4605, Note_off_c, 1, 70, 0
1, 4605, Note_off_c, 2, 66, 0
1, 4605, Note_off_c, 3, 52, 0
1, 4605, Note_off_c, 4, 40, 0
1, 4608, Note_on_c, 0, 70, 80
1, 4608, Note_on_c, 1, 66, 80
1, 4608, Note_on_c, 2, 61, 80
1, 4608, Note_on_c, 3, 52, 80
1, 4608, Note_on_c, 4, 40, 80
1, 4608, Note_on_c, 6, 52, 96
1, 4629, Note_off_c, 0, 70, 0
1, 4629, Note_off_c, 1, 66, 0
1, 4629, Note_off_c, 2, 61, 0
1, 4629, Note_off_c, 3, 52, 0
1, 4629, Note_off_c, 4, 40, 0
1, 4629, Note_off_c, 6, 52, 0
1, 4632, Note_on_c, 0, 71, 80
1, 4632, Note_on_c, 1, 66, 80
1, 4632, Note_on_c, 2, 63, 80
1, 4632, Note_on_c, 3, 51, 80
1, 4632, Note_on_c, 4, 39, 80
1, 4632, Note_on_c, 6, 51, 96
1, 4638, Note_off_c, 5, 78, 0
1, 4642, Note_off_c, 6, 51, 0
1, 4644, Note_on_c, 5, 80, 96
1, 4644, Note_on_c, 6, 47, 96
1, 4654, Note_off_c, 5, 80, 0
1, 4654, Note_off_c, 6, 47, 0
1, 4656, Note_on_c, 5, 78, 96
1, 4656, Note_on_c, 6, 51, 96
1, 4666, Note_off_c, 5, 78, 0
1, 4666, Note_off_c, 6, 51, 0
1, 4668, Note_on_c, 5, 76, 96
1, 4668, Note_on_c, 6, 54, 96
1, 4673, Note_off_c, 5, 76, 0
1, 4674, Note_off_c, 0, 71, 0
1, 4674, Note_off_c, 1, 66, 0
1, 4674, Note_off_c, 2, 63, 0
1, 4674, Note_off_c, 3, 51, 0
1, 4674, Note_off_c, 4, 39, 0
1, 4674, Note_on_c, 5, 75, 96
1, 4678, Note_off_c, 6, 54, 0
1, 4679, Note_off_c, 5, 75, 0
1, 4680, Note_on_c, 5, 75, 96
1, 4680, Note_on_c, 6, 59, 96
1, 4690, Note_off_c, 5, 75, 0
1, 4690, Note_off_c, 6, 59, 0
1, 4692, Note_on_c, 5, 76, 96
1, 4692, Note_on_c, 6, 54, 96
1, 4702, Note_off_c, 5, 76, 0
1, 4702, Note_off_c, 6, 54, 0
1, 4704, Note_on_c, 5, 75, 96
1, 4704, Note_on_c, 6, 59, 96
1, 4714, Note_off_c, 5, 75, 0
1, 4714, Note_off_c, 6, 59, 0
1, 4716, Note_on_c, 5, 73, 96
1, 4716, Note_on_c, 6, 61, 96
1, 4721, Note_off_c, 5, 73, 0
1, 4722, Note_on_c, 5, 71, 96
1, 4726, Note_off_c, 6, 61, 0
1, 4727, Note_off_c, 5, 71, 0
1, 4728, Note_on_c, 5, 71, 96
1, 4728, Note_on_c, 6, 63, 96
1, 4738, Note_off_c, 5, 71, 0
1, 4740, Note_on_c, 5, 75, 96
1, 4749, Note_off_c, 6, 63, 0
1, 4750, Note_off_c, 5, 75, 0
1, 4752, Note_on_c, 0, 75, 80
1, 4752, Note_on_c, 1, 71, 80
1, 4752, Note_on_c, 2, 68, 80
1, 4752, Note_on_c, 3, 54, 80
1, 4752, Note_on_c, 4, 42, 80
1, 4752, Note_on_c, 5, 80, 96
1, 4752, Note_on_c, 6, 54, 96
1, 4758, Note_off_c, 5, 80, 0
1, 4773, Note_off_c, 0, 75, 0
1, 4773, Note_off_c, 1, 71, 0
1, 4773, Note_off_c, 2, 68, 0
1, 4773, Note_off_c, 3, 54, 0
1, 4773, Note_off_c, 4, 42, 0
1, 4773, Note_off_c, 6, 54, 0
1, 4776, Note_on_c, 0, 75, 80
1, 4776, Note_on_c, 1, 71, 80
1, 4776, Note_on_c, 2, 68, 80
1, 4776, Note_on_c, 3, 54, 80
1, 4776, Note_on_c, 4, 42, 80
1, 4776, Note_on_c, 5, 80, 96
1, 4797, Note_off_c, 0, 75, 0
1, 4797, Note_off_c, 1, 71, 0
1, 4797, Note_off_c, 2, 68, 0
1, 4797, Note_off_c, 3, 54, 0
1, 4797, Note_off_c, 4, 42, 0
1, 4800, Note_on_c, 0, 71, 80
1, 4800, Note_on_c, 1, 68, 80
1, 4800, Note_on_c, 2, 63, 80
1, 4800, Note_on_c, 3, 54, 80
1, 4800, Note_on_c, 4, 42, 80
1, 4800, Note_on_c, 6, 54, 96
1, 4821, Note_off_c, 0, 71, 0
1, 4821, Note_off_c, 1, 68, 0
1, 4821, Note_off_c, 2, 63, 0
1, 4821, Note_off_c, 3, 54, 0
1, 4821, Note_off_c, 4, 42, 0
1, 4821, Note_off_c, 6, 54, 0
1, 4823, Note_off_c, 5, 80, 0
1, 4824, Note_on_c, 0, 73, 80
1, 4824, Note_on_c, 1, 68, 80
1, 4824, Note_on_c, 2, 64, 80
1, 4824, Note_on_c, 3, 52, 80
1, 4824, Note_on_c, 4, 40, 80
1, 4824, Note_on_c, 6, 52, 96
1, 4830, Note_on_c, 5, 78, 96
1, 4834, Note_off_c, 6, 52, 0
1, 4835, Note_off_c, 5, 78, 0
1, 4836, Note_on_c, 5, 76, 96
1, 4836, Note_on_c, 6, 56, 96
1, 4841, Note_off_c, 5, 76, 0
1, 4842, Note_on_c, 5, 75, 96
1, 4846, Note_off_c, 6, 56, 0
1, 4847, Note_off_c, 5, 75, 0
1, 4848, Note_on_c, 5, 76, 96
1, 4848, Note_on_c, 6, 58, 96
1, 4858, Note_off_c, 5, 76, 0
1, 4858, Note_off_c, 6, 58, 0
1, 4860, Note_on_c, 5, 76, 96
1, 4860, Note_on_c, 6, 60, 96
1, 4866, Note_off_c, 0, 73, 0
1, 4866, Note_off_c, 1, 68, 0
1, 4866, Note_off_c, 2, 64, 0
1, 4866, Note_off_c, 3, 52, 0
1, 4866, Note_off_c, 4, 40, 0
1, 4870, Note_off_c, 5, 76, 0
1, 4870, Note_off_c, 6, 60, 0
1, 4872, Note_on_c, 5, 76, 96
1, 4872, Note_on_c, 6, 61, 96
1, 4877, Note_off_c, 5, 76, 0
1, 4878, Note_on_c, 5, 75, 96
1, 4882, Note_off_c, 6, 61, 0
1, 4883, Note_off_c, 5, 75, 0
1, 4884, Note_on_c, 5, 73, 96
1, 4884, Note_on_c, 6, 63, 96
1, 4889, Note_off_c, 5, 73, 0
1, 4890, Note_on_c, 5, 72, 96
1, 4894, Note_off_c, 6, 63, 0
1, 4895, Note_off_c, 5, 72, 0
1, 4896, Note_on_c, 5, 73, 96
1, 4896, Note_on_c, 6, 64, 96
1, 4906, Note_off_c, 5, 73, 0
1, 4908, Note_on_c, 5, 73, 96
1, 4917, Note_off_c, 6, 64, 0
1, 4918, Note_off_c, 5, 73, 0
1, 4920, Note_on_c, 5, 73, 96
1, 4920, Note_on_c, 6, 64, 96
1, 4930, Note_off_c, 5, 73, 0
1, 4932, Note_on_c, 5, 76, 96
1, 4941, Note_off_c, 6, 64, 0
1, 4942, Note_off_c, 5, 76, 0
1, 4944, Note_on_c, 0, 76, 80
1, 4944, Note_on_c, 1, 73, 80
1, 4944, Note_on_c, 2, 64, 80
1, 4944, Note_on_c, 3, 49, 80
1, 4944, Note_on_c, 4, 37, 80
1, 4944, Note_on_c, 5, 82, 96
1, 4944, Note_on_c, 6, 61, 96
1, 4965, Note_off_c, 0, 76, 0
1, 4965, Note_off_c, 1, 73, 0
1, 4965, Note_off_c, 2, 64, 0
1, 4965, Note_off_c, 3, 49, 0
1, 4965, Note_off_c, 4, 37, 0
1, 4965, Note_off_c, 6, 61, 0
1, 4968, Note_on_c, 0, 76, 80
1, 4968, Note_on_c, 1, 70, 80
1, 4968, Note_on_c, 2, 61, 80
1, 4968, Note_on_c, 3, 54, 80
1, 4968, Note_on_c, 4, 42, 80
1, 4968, Note_on_c, 6, 66, 96
1, 4975, Note_off_c, 5, 82, 0
1, 4980, Note_on_c, 5, 75, 96
1, 4989, Note_off_c, 0, 76, 0
1, 4989, Note_off_c, 1, 70, 0
1, 4989, Note_off_c, 2, 61, 0
1, 4989, Note_off_c, 3, 54, 0
1, 4989, Note_off_c, 4, 42, 0
1, 4989, Note_off_c, 6, 66, 0
1, 4990, Note_off_c, 5, 75, 0
1, 4992, Note_on_c, 0, 73, 80
1, 4992, Note_on_c, 1, 70, 80
1, 4992, Note_on_c, 2, 66, 80
1, 4992, Note_on_c, 3, 42, 80
1, 4992, Note_on_c, 4, 30, 80
1, 4992, Note_on_c, 5, 76, 96
1, 4992, Note_on_c, 6, 54, 96
1, 5013, Note_off_c, 0, 73, 0
1, 5013, Note_off_c, 1, 70, 0
1, 5013, Note_off_c, 2, 66, 0
1, 5013, Note_off_c, 3, 42, 0
1, 5013, Note_off_c, 4, 30, 0
1, 5013, Note_off_c, 6, 54, 0
1, 5016, Note_on_c, 0, 75, 80
1, 5016, Note_on_c, 1, 71, 80
1, 5016, Note_on_c, 2, 66, 80
1, 5016, Note_on_c, 3, 47, 80
1, 5016, Note_on_c, 4, 35, 80
1, 5016, Note_on_c, 6, 59, 96
1, 5023, Note_off_c, 5, 76, 0
1, 5028, Note_on_c, 5, 75, 96
1, 5033, Note_off_c, 5, 75, 0
1, 5034, Note_on_c, 5, 73, 96
1, 5037, Note_off_c, 3, 47, 0
1, 5037, Note_off_c, 4, 35, 0
1, 5039, Note_off_c, 5, 73, 0
1, 5040, Note_on_c, 5, 75, 96
1, 5047, Note_off_c, 6, 59, 0
1, 5050, Note_off_c, 5, 75, 0
1, 5052, Note_on_c, 5, 78, 96
1, 5052, Note_on_c, 6, 58, 96
1, 5058, Note_off_c, 0, 75, 0
1, 5058, Note_off_c, 1, 71, 0
1, 5058, Note_off_c, 2, 66, 0
1, 5062, Note_off_c, 5, 78, 0
1, 5062, Note_off_c, 6, 58, 0
1, 5064, Note_on_c, 5, 83, 96
1, 5064, Note_on_c, 6, 56, 96
1, 5074, Note_off_c, 5, 83, 0
1, 5074, Note_off_c, 6, 56, 0
1, 5076, Note_on_c, 5, 82, 96
1, 5076, Note_on_c, 6, 54, 96
1, 5086, Note_off_c, 5, 82, 0
1, 5086, Note_off_c, 6, 54, 0
1, 5088, Note_on_c, 5, 83, 96
1, 5088, Note_on_c, 6, 53, 96
1, 5098, Note_off_c, 6, 53, 0
1, 5100, Note_on_c, 6, 51, 96
1, 5110, Note_off_c, 6, 51, 0
1, 5112, Note_on_c, 6, 53, 96
1, 5119, Note_off_c, 5, 83, 0
1, 5124, Note_on_c, 5, 78, 96
1, 5133, Note_off_c, 6, 53, 0
1, 5134, Note_off_c, 5, 78, 0
1, 5136, Note_on_c, 5, 77, 96
1, 5136, Note_on_c, 6, 56, 96
1, 5146, Note_off_c, 5, 77, 0
1, 5148, Note_on_c, 5, 80, 96
1, 5157, Note_off_c, 6, 56, 0
1, 5158, Note_off_c, 5, 80, 0
1, 5160, Note_on_c, 5, 83, 96
1, 5160, Note_on_c, 6, 49, 96
1, 5165, Note_off_c, 5, 83, 0
1, 5166, Note_on_c, 5, 82, 96
1, 5171, Note_off_c, 5, 82, 0
1, 5172, Note_on_c, 5, 80, 96
1, 5181, Note_off_c, 6, 49, 0
1, 5182, Note_off_c, 5, 80, 0
1, 5184, Note_on_c, 5, 82, 96
1, 5184, Note_on_c, 6, 61, 96
1, 5194, Note_off_c, 5, 82, 0
1, 5196, Note_on_c, 5, 83, 96
1, 5205, Note_off_c, 6, 61, 0
1, 5206, Note_off_c, 5, 83, 0
1, 5208, Note_on_c, 5, 82, 96
1, 5208, Note_on_c, 6, 66, 96
1, 5218, Note_off_c, 5, 82, 0
1, 5220, Note_on_c, 5, 83, 96
1, 5229, Note_off_c, 6, 66, 0
1, 5230, Note_off_c, 5, 83, 0
1, 5232, Note_on_c, 5, 85, 96
1, 5232, Note_on_c, 6, 54, 96
1, 5242, Note_off_c, 5, 85, 0
1, 5244, Note_on_c, 5, 82, 96
1, 5253, Note_off_c, 6, 54, 0
1, 5254, Note_off_c, 5, 82, 0
1, 5256, Note_on_c, 5, 76, 96
1, 5256, Note_on_c, 6, 56, 96
1, 5266, Note_off_c, 5, 76, 0
1, 5268, Note_on_c, 5, 80, 96
1, 5277, Note_off_c, 6, 56, 0
1, 5278, Note_off_c, 5, 80, 0
1, 5280, Note_on_c, 5, 78, 96
1, 5280, Note_on_c, 6, 58, 96
1, 5290, Note_off_c, 5, 78, 0
1, 5292, Note_on_c, 5, 76, 96
1, 5301, Note_off_c, 6, 58, 0
1, 5302, Note_off_c, 5, 76, 0
1, 5304, Note_on_c, 5, 76, 96
1, 5304, Note_on_c, 6, 59, 96
1, 5316, Note_off_c, 5, 76, 0
1, 5316, Note_on_c, 5, 75, 96
1, 5325, Note_off_c, 6, 59, 0
1, 5328, Note_on_c, 6, 52, 96
1, 5337, Note_off_c, 5, 75, 0
1, 5340, Note_on_c, 5, 73, 96
1, 5349, Note_off_c, 6, 52, 0
1, 5350, Note_off_c, 5, 73, 0
1, 5352, Note_on_c, 5, 75, 96
1, 5352, Note_on_c, 6, 54, 96
1, 5358, Note_off_c, 5, 75, 0
1, 5358, Note_on_c, 5, 73, 96
1, 5364, Note_off_c, 5, 73, 0
1, 5364, Note_on_c, 5, 75, 96
1, 5370, Note_off_c, 5, 75, 0
1, 5370, Note_on_c, 5, 73, 96
1, 5373, Note_off_c, 6, 54, 0
1, 5376, Note_on_c, 0, 66, 80
1, 5376, Note_off_c, 5, 73, 0
1, 5376, Note_on_c, 5, 75, 96
1, 5376, Note_on_c, 6, 42, 96
1, 5382, Note_off_c, 5, 75, 0
1, 5382, Note_on_c, 5, 73, 96
1, 5387, Note_off_c, 5, 73, 0
1, 5388, Note_on_c, 5, 71, 96
1, 5397, Note_off_c, 0, 66, 0
1, 5397, Note_off_c, 6, 42, 0
1, 5398, Note_off_c, 5, 71, 0
1, 5400, Note_on_c, 0, 71, 80
1, 5400, Note_on_c, 5, 71, 96
1, 5400, Note_on_c, 6, 44, 96
1, 5410, Note_off_c, 0, 71, 0
1, 5412, Note_on_c, 0, 70, 80
1, 5412, Note_off_c, 5, 71, 0
1, 5412, Note_on_c, 5, 73, 96
1, 5422, Note_off_c, 0, 70, 0
1, 5424, Note_on_c, 0, 71, 80
1, 5424, Note_on_c, 1, 71, 80
1, 5424, Note_off_c, 5, 73, 0
1, 5424, Note_on_c, 5, 75, 96
1, 5434, Note_off_c, 0, 71, 0
1, 5434, Note_off_c, 5, 75, 0
1, 5436, Note_on_c, 0, 75, 80
1, 5436, Note_on_c, 5, 75, 96
1, 5442, Note_off_c, 6, 44, 0
1, 5445, Note_off_c, 1, 71, 0
1, 5446, Note_off_c, 0, 75, 0
1, 5446, Note_off_c, 5, 75, 0
1, 5448, Note_on_c, 0, 71, 80
1, 5448, Note_on_c, 1, 71, 80
1, 5448, Note_on_c, 5, 75, 96
1, 5458, Note_off_c, 0, 71, 0
1, 5460, Note_on_c, 0, 66, 80
1, 5460, Note_off_c, 5, 75, 0
1, 5460, Note_on_c, 5, 76, 96
1, 5469, Note_off_c, 1, 71, 0
1, 5470, Note_off_c, 0, 66, 0
1, 5472, Note_on_c, 0, 63, 80
1, 5472, Note_on_c, 1, 66, 80
1, 5472, Note_on_c, 2, 71, 80
1, 5472, Note_off_c, 5, 76, 0
1, 5472, Note_on_c, 5, 78, 96
1, 5472, Note_on_c, 6, 51, 96
1, 5482, Note_off_c, 0, 63, 0
1, 5482, Note_off_c, 5, 78, 0
1, 5484, Note_on_c, 0, 66, 80
1, 5484, Note_on_c, 5, 78, 96
1, 5493, Note_off_c, 1, 66, 0
1, 5493, Note_off_c, 2, 71, 0
1, 5493, Note_off_c, 6, 51, 0
1, 5494, Note_off_c, 0, 66, 0
1, 5494, Note_off_c, 5, 78, 0
1, 5496, Note_on_c, 0, 59, 80
1, 5496, Note_on_c, 1, 66, 80
1, 5496, Note_on_c, 2, 71, 80
1, 5496, Note_on_c, 5, 78, 96
1, 5496, Note_on_c, 6, 39, 96
1, 5506, Note_off_c, 0, 59, 0
1, 5508, Note_on_c, 0, 66, 80
1, 5508, Note_off_c, 5, 78, 0
1, 5508, Note_on_c, 5, 80, 96
1, 5514, Note_off_c, 5, 80, 0
1, 5514, Note_on_c, 5, 82, 96
1, 5517, Note_off_c, 1, 66, 0
1, 5517, Note_off_c, 2, 71, 0
1, 5518, Note_off_c, 0, 66, 0
1, 5520, Note_on_c, 0, 63, 80
1, 5520, Note_on_c, 1, 71, 80
1, 5520, Note_on_c, 2, 66, 80
1, 5520, Note_off_c, 5, 82, 0
1, 5520, Note_on_c, 5, 80, 96
1, 5530, Note_off_c, 0, 63, 0
1, 5532, Note_on_c, 0, 66, 80
1, 5532, Note_off_c, 5, 80, 0
1, 5532, Note_on_c, 5, 78, 96
1, 5538, Note_off_c, 6, 39, 0
1, 5541, Note_off_c, 1, 71, 0
1, 5541, Note_off_c, 2, 66, 0
1, 5542, Note_off_c, 0, 66, 0
1, 5542, Note_off_c, 5, 78, 0
1, 5544, Note_on_c, 0, 59, 80
1, 5544, Note_on_c, 1, 71, 80
1, 5544, Note_on_c, 2, 66, 80
1, 5544, Note_on_c, 5, 83, 96
1, 5549, Note_off_c, 5, 83, 0
1, 5550, Note_on_c, 5, 78, 96
1, 5554, Note_off_c, 0, 59, 0
1, 5555, Note_off_c, 5, 78, 0
1, 5556, Note_on_c, 0, 66, 80
1, 5556, Note_on_c, 5, 80, 96
1, 5556, Note_on_c, 6, 63, 96
1, 5561, Note_off_c, 5, 80, 0
1, 5562, Note_on_c, 5, 81, 96
1, 5565, Note_off_c, 1, 71, 0
1, 5565, Note_off_c, 2, 66, 0
1, 5566, Note_off_c, 0, 66, 0
1, 5566, Note_off_c, 6, 63, 0
1, 5567, Note_off_c, 5, 81, 0
1, 5568, Note_on_c, 0, 63, 80
1, 5568, Note_on_c, 1, 59, 80
1, 5568, Note_on_c, 2, 71, 80
1, 5568, Note_on_c, 5, 80, 96
1, 5568, Note_on_c, 6, 59, 96
1, 5578, Note_off_c, 0, 63, 0
1, 5578, Note_off_c, 5, 80, 0
1, 5578, Note_off_c, 6, 59, 0
1, 5580, Note_on_c, 0, 66, 80
1, 5580, Note_on_c, 5, 78, 96
1, 5580, Note_on_c, 6, 63, 96
1, 5589, Note_off_c, 1, 59, 0
1, 5589, Note_off_c, 2, 71, 0
1, 5590, Note_off_c, 0, 66, 0
1, 5590, Note_off_c, 5, 78, 0
1, 5590, Note_off_c, 6, 63, 0
1, 5592, Note_on_c, 0, 71, 80
1, 5592, Note_on_c, 1, 59, 80
1, 5592, Note_on_c, 2, 64, 80
1, 5592, Note_on_c, 5, 78, 96
1, 5592, Note_on_c, 6, 64, 96
1, 5602, Note_off_c, 0, 71, 0
1, 5604, Note_on_c, 0, 70, 80
1, 5604, Note_off_c, 5, 78, 0
1, 5604, Note_on_c, 5, 80, 96
1, 5613, Note_off_c, 1, 59, 0
1, 5613, Note_off_c, 2, 64, 0
1, 5613, Note_off_c, 6, 64, 0
1, 5614, Note_off_c, 0, 70, 0
1, 5616, Note_on_c, 0, 71, 80
1, 5616, Note_on_c, 6, 52, 96
1, 5625, Note_off_c, 5, 80, 0
1, 5626, Note_off_c, 0, 71, 0
1, 5626, Note_off_c, 6, 52, 0
1, 5628, Note_on_c, 0, 75, 80
1, 5628, Note_on_c, 5, 78, 96
1, 5628, Note_on_c, 6, 54, 96
1, 5638, Note_off_c, 0, 75, 0
1, 5638, Note_off_c, 5, 78, 0
1, 5638, Note_off_c, 6, 54, 0
1, 5640, Note_on_c, 0, 71, 80
1, 5640, Note_on_c, 5, 76, 96
1, 5640, Note_on_c, 6, 56, 96
1, 5650, Note_off_c, 0, 71, 0
1, 5650, Note_off_c, 5, 76, 0
1, 5652, Note_on_c, 0, 66, 80
1, 5652, Note_on_c, 5, 75, 96
1, 5662, Note_off_c, 0, 66, 0
1, 5662, Note_off_c, 5, 75, 0
1, 5664, Note_on_c, 0, 63, 80
1, 5664, Note_on_c, 5, 73, 96
1, 5674, Note_off_c, 0, 63, 0
1, 5674, Note_off_c, 5, 73, 0
1, 5676, Note_on_c, 0, 66, 80
1, 5676, Note_on_c, 5, 71, 96
1, 5686, Note_off_c, 0, 66, 0
1, 5686, Note_off_c, 5, 71, 0
1, 5688, Note_on_c, 0, 59, 80
1, 5688, Note_on_c, 5, 76, 96
1, 5692, Note_off_c, 6, 56, 0
1, 5693, Note_off_c, 5, 76, 0
1, 5694, Note_on_c, 5, 78, 96
1, 5699, Note_off_c, 5, 78, 0
1, 5700, Note_on_c, 5, 76, 96
1, 5700, Note_on_c, 6, 54, 96
1, 5705, Note_off_c, 5, 76, 0
1, 5706, Note_on_c, 5, 75, 96
1, 5709, Note_off_c, 0, 59, 0
1, 5710, Note_off_c, 6, 54, 0
1, 5711, Note_off_c, 5, 75, 0
1, 5712, Note_on_c, 5, 76, 96
1, 5712, Note_on_c, 6, 56, 96
1, 5722, Note_off_c, 5, 76, 0
1, 5722, Note_off_c, 6, 56, 0
1, 5724, Note_on_c, 5, 73, 96
1, 5724, Note_on_c, 6, 52, 96
1, 5734, Note_off_c, 5, 73, 0
1, 5734, Note_off_c, 6, 52, 0
1, 5736, Note_on_c, 5, 71, 96
1, 5736, Note_on_c, 6, 54, 96
1, 5757, Note_off_c, 5, 71, 0
1, 5757, Note_off_c, 6, 54, 0
1, 5760, Note_on_c, 0, 73, 96
1, 5760, Note_on_c, 1, 70, 96
1, 5760, Note_on_c, 2, 66, 96
1, 5760, Note_on_c, 3, 54, 96
1, 5760, Note_on_c, 4, 42, 96
1, 5760, Note_on_c, 5, 70, 96
1, 5760, Note_on_c, 6, 42, 96
1, 5776, Note_off_c, 5, 70, 0
1, 5778, Note_on_c, 5, 71, 96
1, 5781, Note_off_c, 0, 73, 0
1, 5781, Note_off_c, 1, 70, 0
1, 5781, Note_off_c, 2, 66, 0
1, 5781, Note_off_c, 3, 54, 0
1, 5781, Note_off_c, 4, 42, 0
1, 5781, Note_off_c, 6, 42, 0
1, 5783, Note_off_c, 5, 71, 0
1, 5784, Note_on_c, 0, 75, 96
1, 5784, Note_on_c, 1, 71, 96
1, 5784, Note_on_c, 2, 66, 96
1, 5784, Note_on_c, 3, 59, 96
1, 5784, Note_on_c, 4, 47, 96
1, 5784, Note_on_c, 5, 71, 96
1, 5784, Note_on_c, 6, 47, 96
1, 5794, Note_off_c, 5, 71, 0
1, 5796, Note_on_c, 5, 75, 96
1, 5805, Note_off_c, 0, 75, 0
1, 5805, Note_off_c, 1, 71, 0
1, 5805, Note_off_c, 2, 66, 0
1, 5805, Note_off_c, 3, 59, 0
1, 5805, Note_off_c, 4, 47, 0
1, 5805, Note_off_c, 6, 47, 0
1, 5806, Note_off_c, 5, 75, 0
1, 5808, Note_on_c, 0, 73, 96
1, 5808, Note_on_c, 1, 73, 96
1, 5808, Note_on_c, 2, 66, 96
1, 5808, Note_on_c, 3, 58, 96
1, 5808, Note_on_c, 4, 46, 96
1, 5808, Note_on_c, 5, 73, 96
1, 5808, Note_on_c, 6, 46, 96
1, 5820, Note_off_c, 5, 73, 0
1, 5820, Note_on_c, 5, 75, 96
1, 5826, Note_off_c, 5, 75, 0
1, 5826, Note_on_c, 5, 73, 96
1, 5829, Note_off_c, 0, 73, 0
1, 5829, Note_off_c, 1, 73, 0
1, 5829, Note_off_c, 2, 66, 0
1, 5829, Note_off_c, 3, 58, 0
1, 5829, Note_off_c, 4, 46, 0
1, 5829, Note_off_c, 6, 46, 0
1, 5832, Note_on_c, 0, 76, 96
1, 5832, Note_on_c, 1, 71, 96
1, 5832, Note_on_c, 2, 59, 96
1, 5832, Note_on_c, 3, 56, 96
1, 5832, Note_on_c, 4, 44, 96
1, 5832, Note_off_c, 5, 73, 0
1, 5832, Note_on_c, 5, 75, 96
1, 5832, Note_on_c, 6, 44, 96
1, 5838, Note_off_c, 5, 75, 0
1, 5838, Note_on_c, 5, 76, 96
1, 5853, Note_off_c, 0, 76, 0
1, 5853, Note_off_c, 1, 71, 0
1, 5853, Note_off_c, 2, 59, 0
1, 5853, Note_off_c, 3, 56, 0
1, 5853, Note_off_c, 4, 44, 0
1, 5853, Note_off_c, 6, 44, 0
1, 5854, Note_off_c, 5, 76, 0
1, 5856, Note_on_c, 0, 75, 96
1, 5856, Note_on_c, 1, 71, 96
1, 5856, Note_on_c, 2, 63, 96
1, 5856, Note_on_c, 3, 54, 96
1, 5856, Note_on_c, 4, 42, 96
1, 5856, Note_on_c, 5, 75, 96
1, 5856, Note_on_c, 6, 42, 96
1, 5877, Note_off_c, 0, 75, 0
1, 5877, Note_off_c, 1, 71, 0
1, 5877, Note_off_c, 2, 63, 0
1, 5877, Note_off_c, 3, 54, 0
1, 5877, Note_off_c, 4, 42, 0
1, 5877, Note_off_c, 5, 75, 0
1, 5877, Note_off_c, 6, 42, 0
1, 5880, Note_on_c, 0, 73, 96
1, 5880, Note_on_c, 1, 70, 96
1, 5880, Note_on_c, 2, 66, 96
1, 5880, Note_on_c, 3, 52, 96
1, 5880, Note_on_c, 4, 40, 96
1, 5880, Note_on_c, 5, 73, 96
1, 5880, Note_on_c, 6, 40, 96
1, 5901, Note_off_c, 0, 73, 0
1, 5901, Note_off_c, 1, 70, 0
1, 5901, Note_off_c, 2, 66, 0
1, 5901, Note_off_c, 3, 52, 0
1, 5901, Note_off_c, 4, 40, 0
1, 5901, Note_off_c, 5, 73, 0
1, 5901, Note_off_c, 6, 40, 0
1, 5904, Note_on_c, 0, 71, 96
1, 5904, Note_on_c, 1, 71, 96
1, 5904, Note_on_c, 2, 54, 96
1, 5904, Note_on_c, 3, 51, 96
1, 5904, Note_on_c, 4, 39, 96
1, 5904, Note_on_c, 5, 71, 96
1, 5904, Note_on_c, 6, 39, 96
1, 5925, Note_off_c, 0, 71, 0
1, 5925, Note_off_c, 1, 71, 0
1, 5925, Note_off_c, 2, 54, 0
1, 5925, Note_off_c, 3, 51, 0
1, 5925, Note_off_c, 4, 39, 0
1, 5925, Note_off_c, 5, 71, 0
1, 5925, Note_off_c, 6, 39, 0
1, 5928, Note_on_c, 0, 78, 96
1, 5928, Note_on_c, 5, 78, 96
1, 5952, Note_on_c, 1, 71, 96
1, 5952, Note_on_c, 2, 66, 96
1, 5952, Note_on_c, 3, 51, 96
1, 5952, Note_on_c, 4, 39, 96
1, 5952, Note_on_c, 6, 51, 96
1, 5962, Note_off_c, 1, 71, 0
1, 5964, Note_on_c, 1, 70, 96
1, 5973, Note_off_c, 2, 66, 0
1, 5973, Note_off_c, 3, 51, 0
1, 5973, Note_off_c, 4, 39, 0
1, 5973, Note_off_c, 6, 51, 0
1, 5974, Note_off_c, 1, 70, 0
1, 5976, Note_on_c, 1, 71, 96
1, 5976, Note_on_c, 2, 63, 96
1, 5976, Note_on_c, 3, 56, 96
1, 5976, Note_on_c, 4, 44, 96
1, 5976, Note_on_c, 6, 56, 96
1, 5980, Note_off_c, 0, 78, 0
1, 5980, Note_off_c, 5, 78, 0
1, 5988, Note_on_c, 0, 71, 96
1, 5988, Note_on_c, 5, 71, 96
1, 5997, Note_off_c, 1, 71, 0
1, 5997, Note_off_c, 2, 63, 0
1, 5997, Note_off_c, 3, 56, 0
1, 5997, Note_off_c, 4, 44, 0
1, 5997, Note_off_c, 6, 56, 0
1, 5998, Note_off_c, 0, 71, 0
1, 5998, Note_off_c, 5, 71, 0
1, 6000, Note_on_c, 0, 70, 96
1, 6000, Note_on_c, 1, 75, 96
1, 6000, Note_on_c, 2, 66, 96
1, 6000, Note_on_c, 3, 54, 96
1, 6000, Note_on_c, 4, 42, 96
1, 6000, Note_on_c, 5, 70, 96
1, 6000, Note_on_c, 6, 54, 96
1, 6010, Note_off_c, 0, 70, 0
1, 6010, Note_off_c, 5, 70, 0
1, 6012, Note_on_c, 0, 71, 96
1, 6012, Note_on_c, 5, 71, 96
1, 6021, Note_off_c, 1, 75, 0
1, 6021, Note_off_c, 2, 66, 0
1, 6021, Note_off_c, 3, 54, 0
1, 6021, Note_off_c, 4, 42, 0
1, 6021, Note_off_c, 6, 54, 0
1, 6022, Note_off_c, 0, 71, 0
1, 6022, Note_off_c, 5, 71, 0
1, 6024, Note_on_c, 0, 73, 96
1, 6024, Note_on_c, 1, 70, 96
1, 6024, Note_on_c, 2, 66, 96
1, 6024, Note_on_c, 3, 52, 96
1, 6024, Note_on_c, 4, 40, 96
1, 6024, Note_on_c, 5, 73, 96
1, 6024, Note_on_c, 6, 52, 96
1, 6045, Note_off_c, 0, 73, 0
1, 6045, Note_off_c, 1, 70, 0
1, 6045, Note_off_c, 2, 66, 0
1, 6045, Note_off_c, 3, 52, 0
1, 6045, Note_off_c, 4, 40, 0
1, 6045, Note_off_c, 5, 73, 0
1, 6045, Note_off_c, 6, 52, 0
1, 6048, Note_on_c, 0, 71, 96
1, 6048, Note_on_c, 1, 71, 96
1, 6048, Note_on_c, 2, 54, 96
1, 6048, Note_on_c, 3, 51, 96
1, 6048, Note_on_c, 4, 39, 96
1, 6048, Note_on_c, 5, 71, 96
1, 6048, Note_on_c, 6, 51, 96
1, 6069, Note_off_c, 0, 71, 0
1, 6069, Note_off_c, 1, 71, 0
1, 6069, Note_off_c, 2, 54, 0
1, 6069, Note_off_c, 3, 51, 0
1, 6069, Note_off_c, 4, 39, 0
1, 6069, Note_off_c, 5, 71, 0
1, 6069, Note_off_c, 6, 51, 0
1, 6072, Note_on_c, 0, 70, 96
1, 6072, Note_on_c, 1, 64, 96
1, 6072, Note_on_c, 2, 61, 96
1, 6072, Note_on_c, 3, 49, 96
1, 6072, Note_on_c, 4, 37, 96
1, 6072, Note_on_c, 5, 70, 96
1, 6072, Note_on_c, 6, 49, 96
1, 6082, Note_off_c, 0, 70, 0
1, 6082, Note_off_c, 5, 70, 0
1, 6084, Note_on_c, 0, 71, 96
1, 6084, Note_on_c, 5, 71, 96
1, 6093, Note_off_c, 1, 64, 0
1, 6093, Note_off_c, 2, 61, 0
1, 6093, Note_off_c, 3, 49, 0
1, 6093, Note_off_c, 4, 37, 0
1, 6093, Note_off_c, 6, 49, 0
1, 6094, Note_off_c, 0, 71, 0
1, 6094, Note_off_c, 5, 71, 0
1, 6096, Note_on_c, 0, 73, 96
1, 6096, Note_on_c, 1, 68, 96
1, 6096, Note_on_c, 2, 64, 96
1, 6096, Note_on_c, 3, 47, 96
1, 6096, Note_on_c, 4, 35, 96
1, 6096, Note_on_c, 5, 73, 96
1, 6096, Note_on_c, 6, 47, 96
1, 6106, Note_off_c, 0, 73, 0
1, 6106, Note_off_c, 5, 73, 0
1, 6108, Note_on_c, 0, 70, 96
1, 6108, Note_on_c, 5, 70, 96
1, 6117, Note_off_c, 1, 68, 0
1, 6117, Note_off_c, 2, 64, 0
1, 6117, Note_off_c, 3, 47, 0
1, 6117, Note_off_c, 4, 35, 0
1, 6117, Note_off_c, 6, 47, 0
1, 6118, Note_off_c, 0, 70, 0
1, 6118, Note_off_c, 5, 70, 0
1, 6120, Note_on_c, 0, 66, 96
1, 6120, Note_on_c, 1, 61, 96
1, 6120, Note_on_c, 2, 66, 96
1, 6120, Note_on_c, 3, 46, 96
1, 6120, Note_on_c, 4, 34, 96
1, 6120, Note_on_c, 5, 66, 96
1, 6120, Note_on_c, 6, 46, 96
1, 6130, Note_off_c, 0, 66, 0
1, 6130, Note_off_c, 5, 66, 0
1, 6132, Note_on_c, 0, 76, 96
1, 6132, Note_on_c, 5, 76, 96
1, 6141, Note_off_c, 1, 61, 0
1, 6141, Note_off_c, 2, 66, 0
1, 6141, Note_off_c, 3, 46, 0
1, 6141, Note_off_c, 4, 34, 0
1, 6141, Note_off_c, 6, 46, 0
1, 6144, Note_off_c, 0, 76, 0
1, 6144, Note_on_c, 0, 75, 96
1, 6144, Note_on_c, 1, 70, 96
1, 6144, Note_on_c, 2, 66, 96
1, 6144, Note_on_c, 3, 42, 96
1, 6144, Note_on_c, 4, 30, 96
1, 6144, Note_off_c, 5, 76, 0
1, 6144, Note_on_c, 5, 75, 96
1, 6144, Note_on_c, 6, 42, 96
1, 6156, Note_off_c, 0, 75, 0
1, 6156, Note_on_c, 0, 73, 96
1, 6156, Note_off_c, 5, 75, 0
1, 6156, Note_on_c, 5, 73, 96
1, 6165, Note_off_c, 1, 70, 0
1, 6165, Note_off_c, 2, 66, 0
1, 6165, Note_off_c, 3, 42, 0
1, 6165, Note_off_c, 4, 30, 0
1, 6165, Note_off_c, 6, 42, 0
1, 6166, Note_off_c, 0, 73, 0
1, 6166, Note_off_c, 5, 73, 0
1, 6168, Note_on_c, 0, 66, 96
1, 6168, Note_on_c, 1, 71, 96
1, 6168, Note_on_c, 2, 66, 96
1, 6168, Note_on_c, 3, 47, 96
1, 6168, Note_on_c, 4, 35, 96
1, 6168, Note_on_c, 5, 66, 96
1, 6168, Note_on_c, 6, 47, 96
1, 6178, Note_off_c, 0, 66, 0
1, 6178, Note_off_c, 5, 66, 0
1, 6180, Note_on_c, 0, 75, 96
1, 6180, Note_on_c, 5, 75, 96
1, 6189, Note_off_c, 1, 71, 0
1, 6189, Note_off_c, 2, 66, 0
1, 6189, Note_off_c, 3, 47, 0
1, 6189, Note_off_c, 4, 35, 0
1, 6189, Note_off_c, 6, 47, 0
1, 6192, Note_off_c, 0, 75, 0
1, 6192, Note_on_c, 0, 73, 96
1, 6192, Note_off_c, 5, 75, 0
1, 6192, Note_on_c, 5, 73, 96
1, 6204, Note_off_c, 0, 73, 0
1, 6204, Note_on_c, 0, 71, 96
1, 6204, Note_off_c, 5, 73, 0
1, 6204, Note_on_c, 5, 71, 96
1, 6214, Note_off_c, 0, 71, 0
1, 6214, Note_off_c, 5, 71, 0
1, 6216, Note_on_c, 0, 66, 96
1, 6216, Note_on_c, 1, 61, 96
1, 6216, Note_on_c, 2, 66, 96
1, 6216, Note_on_c, 3, 46, 96
1, 6216, Note_on_c, 4, 34, 96
1, 6216, Note_on_c, 5, 66, 96
1, 6216, Note_on_c, 6, 46, 96
1, 6226, Note_off_c, 0, 66, 0
1, 6226, Note_off_c, 5, 66, 0
1, 6228, Note_on_c, 0, 73, 96
1, 6228, Note_on_c, 5, 73, 96
1, 6237, Note_off_c, 1, 61, 0
1, 6237, Note_off_c, 2, 66, 0
1, 6237, Note_off_c, 3, 46, 0
1, 6237, Note_off_c, 4, 34, 0
1, 6237, Note_off_c, 6, 46, 0
1, 6240, Note_off_c, 0, 73, 0
1, 6240, Note_on_c, 0, 71, 96
1, 6240, Note_off_c, 5, 73, 0
1, 6240, Note_on_c, 5, 71, 96
1, 6252, Note_off_c, 0, 71, 0
1, 6252, Note_on_c, 0, 70, 96
1, 6252, Note_off_c, 5, 71, 0
1, 6252, Note_on_c, 5, 70, 96
1, 6262, Note_off_c, 0, 70, 0
1, 6262, Note_off_c, 5, 70, 0
1, 6264, Note_on_c, 0, 71, 96
1, 6264, Note_on_c, 1, 63, 96
1, 6264, Note_on_c, 2, 68, 96
1, 6264, Note_on_c, 3, 44, 96
1, 6264, Note_on_c, 4, 32, 96
1, 6264, Note_on_c, 5, 71, 96
1, 6264, Note_on_c, 6, 44, 96
1, 6274, Note_off_c, 0, 71, 0
1, 6274, Note_off_c, 5, 71, 0
1, 6276, Note_on_c, 0, 64, 96
1, 6276, Note_on_c, 5, 64, 96
1, 6285, Note_off_c, 1, 63, 0
1, 6285, Note_off_c, 2, 68, 0
1, 6285, Note_off_c, 3, 44, 0
1, 6285, Note_off_c, 4, 32, 0
1, 6285, Note_off_c, 6, 44, 0
1, 6288, Note_off_c, 0, 64, 0
1, 6288, Note_on_c, 0, 63, 96
1, 6288, Note_off_c, 5, 64, 0
1, 6288, Note_on_c, 5, 63, 96
1, 6300, Note_off_c, 0, 63, 0
1, 6300, Note_on_c, 0, 61, 96
1, 6300, Note_off_c, 5, 63, 0
1, 6300, Note_on_c, 5, 61, 96
1, 6310, Note_off_c, 0, 61, 0
1, 6310, Note_off_c, 5, 61, 0
1, 6312, Note_on_c, 0, 59, 96
1, 6312, Note_on_c, 1, 66, 96
1, 6312, Note_on_c, 2, 59, 96
1, 6312, Note_on_c, 3, 39, 96
1, 6312, Note_on_c, 4, 27, 96
1, 6312, Note_on_c, 5, 59, 96
1, 6312, Note_on_c, 6, 39, 96
1, 6322, Note_off_c, 0, 59, 0
1, 6322, Note_off_c, 5, 59, 0
1, 6324, Note_on_c, 0, 69, 96
1, 6324, Note_on_c, 5, 69, 96
1, 6333, Note_off_c, 1, 66, 0
1, 6333, Note_off_c, 2, 59, 0
1, 6333, Note_off_c, 3, 39, 0
1, 6333, Note_off_c, 4, 27, 0
1, 6333, Note_off_c, 6, 39, 0
1, 6336, Note_off_c, 0, 69, 0
1, 6336, Note_on_c, 0, 68, 96
1, 6336, Note_on_c, 1, 63, 96
1, 6336, Note_on_c, 2, 59, 96
1, 6336, Note_on_c, 3, 47, 96
1, 6336, Note_on_c, 4, 35, 96
1, 6336, Note_off_c, 5, 69, 0
1, 6336, Note_on_c, 5, 68, 96
1, 6336, Note_on_c, 6, 47, 96
1, 6348, Note_off_c, 0, 68, 0
1, 6348, Note_on_c, 0, 66, 96
1, 6348, Note_off_c, 5, 68, 0
1, 6348, Note_on_c, 5, 66, 96
1, 6357, Note_off_c, 1, 63, 0
1, 6357, Note_off_c, 3, 47, 0
1, 6357, Note_off_c, 4, 35, 0
1, 6357, Note_off_c, 6, 47, 0
1, 6358, Note_off_c, 0, 66, 0
1, 6358, Note_off_c, 5, 66, 0
1, 6360, Note_on_c, 0, 68, 96
1, 6360, Note_on_c, 1, 64, 96
1, 6360, Note_on_c, 3, 40, 96
1, 6360, Note_on_c, 4, 28, 96
1, 6360, Note_on_c, 5, 68, 96
1, 6360, Note_on_c, 6, 40, 96
1, 6367, Note_off_c, 2, 59, 0
1, 6370, Note_off_c, 0, 68, 0
1, 6370, Note_off_c, 5, 68, 0
1, 6372, Note_on_c, 0, 66, 96
1, 6372, Note_on_c, 2, 57, 96
1, 6372, Note_on_c, 5, 66, 96
1, 6381, Note_off_c, 1, 64, 0
1, 6381, Note_off_c, 3, 40, 0
1, 6381, Note_off_c, 4, 28, 0
1, 6381, Note_off_c, 6, 40, 0
1, 6382, Note_off_c, 0, 66, 0
1, 6382, Note_off_c, 2, 57, 0
1, 6382, Note_off_c, 5, 66, 0
1, 6384, Note_on_c, 0, 64, 96
1, 6384, Note_on_c, 1, 59, 96
1, 6384, Note_on_c, 2, 56, 96
1, 6384, Note_on_c, 3, 44, 96
1, 6384, Note_on_c, 4, 32, 96
1, 6384, Note_on_c, 5, 64, 96
1, 6384, Note_on_c, 6, 44, 96
1, 6394, Note_off_c, 0, 64, 0
1, 6394, Note_off_c, 2, 56, 0
1, 6394, Note_off_c, 5, 64, 0
1, 6396, Note_on_c, 0, 63, 96
1, 6396, Note_on_c, 2, 54, 96
1, 6396, Note_on_c, 5, 63, 96
1, 6405, Note_off_c, 1, 59, 0
1, 6405, Note_off_c, 3, 44, 0
1, 6405, Note_off_c, 4, 32, 0
1, 6405, Note_off_c, 6, 44, 0
1, 6406, Note_off_c, 0, 63, 0
1, 6406, Note_off_c, 2, 54, 0
1, 6406, Note_off_c, 5, 63, 0
1, 6408, Note_on_c, 0, 61, 96
1, 6408, Note_on_c, 1, 68, 96
1, 6408, Note_on_c, 2, 52, 96
1, 6408, Note_on_c, 3, 49, 96
1, 6408, Note_on_c, 4, 37, 96
1, 6408, Note_on_c, 5, 61, 96
1, 6408, Note_on_c, 6, 49, 96
1, 6418, Note_off_c, 0, 61, 0
1, 6418, Note_off_c, 1, 68, 0
1, 6418, Note_off_c, 5, 61, 0
1, 6420, Note_on_c, 0, 75, 96
1, 6420, Note_on_c, 1, 66, 96
1, 6420, Note_on_c, 5, 75, 96
1, 6429, Note_off_c, 2, 52, 0
1, 6429, Note_off_c, 3, 49, 0
1, 6429, Note_off_c, 4, 37, 0
1, 6429, Note_off_c, 6, 49, 0
1, 6430, Note_off_c, 0, 75, 0
1, 6430, Note_off_c, 1, 66, 0
1, 6430, Note_off_c, 5, 75, 0
1, 6432, Note_on_c, 0, 73, 96
1, 6432, Note_on_c, 1, 64, 96
1, 6432, Note_on_c, 2, 61, 96
1, 6432, Note_on_c, 3, 52, 96
1, 6432, Note_on_c, 4, 40, 96
1, 6432, Note_on_c, 5, 73, 96
1, 6432, Note_on_c, 6, 52, 96
1, 6442, Note_off_c, 0, 73, 0
1, 6442, Note_off_c, 1, 64, 0
1, 6442, Note_off_c, 5, 73, 0
1, 6444, Note_on_c, 0, 71, 96
1, 6444, Note_on_c, 1, 63, 96
1, 6444, Note_on_c, 5, 71, 96
1, 6453, Note_off_c, 3, 52, 0
1, 6453, Note_off_c, 4, 40, 0
1, 6453, Note_off_c, 6, 52, 0
1, 6454, Note_off_c, 0, 71, 0
1, 6454, Note_off_c, 1, 63, 0
1, 6454, Note_off_c, 5, 71, 0
1, 6456, Note_on_c, 0, 70, 96
1, 6456, Note_on_c, 1, 61, 96
1, 6456, Note_on_c, 3, 42, 96
1, 6456, Note_on_c, 4, 30, 96
1, 6456, Note_on_c, 5, 70, 96
1, 6456, Note_on_c, 6, 42, 96
1, 6463, Note_off_c, 2, 61, 0
1, 6466, Note_off_c, 0, 70, 0
1, 6466, Note_off_c, 5, 70, 0
1, 6468, Note_on_c, 0, 68, 96
1, 6468, Note_on_c, 2, 59, 96
1, 6468, Note_on_c, 5, 68, 96
1, 6477, Note_off_c, 1, 61, 0
1, 6477, Note_off_c, 3, 42, 0
1, 6477, Note_off_c, 4, 30, 0
1, 6477, Note_off_c, 6, 42, 0
1, 6478, Note_off_c, 0, 68, 0
1, 6478, Note_off_c, 2, 59, 0
1, 6478, Note_off_c, 5, 68, 0
1, 6480, Note_on_c, 0, 66, 96
1, 6480, Note_on_c, 1, 70, 96
1, 6480, Note_on_c, 2, 58, 96
1, 6480, Note_on_c, 3, 46, 96
1, 6480, Note_on_c, 4, 34, 96
1, 6480, Note_on_c, 5, 66, 96
1, 6480, Note_on_c, 6, 46, 96
1, 6490, Note_off_c, 0, 66, 0
1, 6490, Note_off_c, 2, 58, 0
1, 6490, Note_off_c, 5, 66, 0
1, 6492, Note_on_c, 0, 64, 96
1, 6492, Note_on_c, 2, 56, 96
1, 6492, Note_on_c, 5, 64, 96
1, 6501, Note_off_c, 3, 46, 0
1, 6501, Note_off_c, 4, 34, 0
1, 6501, Note_off_c, 6, 46, 0
1, 6502, Note_off_c, 0, 64, 0
1, 6502, Note_off_c, 2, 56, 0
1, 6502, Note_off_c, 5, 64, 0
1, 6504, Note_on_c, 0, 63, 96
1, 6504, Note_on_c, 2, 54, 96
1, 6504, Note_on_c, 3, 51, 96
1, 6504, Note_on_c, 4, 39, 96
1, 6504, Note_on_c, 5, 63, 96
1, 6504, Note_on_c, 6, 51, 96
1, 6511, Note_off_c, 1, 70, 0
1, 6514, Note_off_c, 0, 63, 0
1, 6514, Note_off_c, 5, 63, 0
1, 6516, Note_on_c, 0, 76, 96
1, 6516, Note_on_c, 1, 68, 96
1, 6516, Note_on_c, 5, 76, 96
1, 6525, Note_off_c, 2, 54, 0
1, 6525, Note_off_c, 3, 51, 0
1, 6525, Note_off_c, 4, 39, 0
1, 6525, Note_off_c, 6, 51, 0
1, 6526, Note_off_c, 0, 76, 0
1, 6526, Note_off_c, 1, 68, 0
1, 6526, Note_off_c, 5, 76, 0
1, 6528, Note_on_c, 0, 75, 96
1, 6528, Note_on_c, 1, 66, 96
1, 6528, Note_on_c, 2, 63, 96
1, 6528, Note_on_c, 3, 54, 96
1, 6528, Note_on_c, 4, 42, 96
1, 6528, Note_on_c, 5, 75, 96
1, 6528, Note_on_c, 6, 54, 96
1, 6538, Note_off_c, 0, 75, 0
1, 6538, Note_off_c, 1, 66, 0
1, 6538, Note_off_c, 5, 75, 0
1, 6540, Note_on_c, 0, 73, 96
1, 6540, Note_on_c, 1, 64, 96
1, 6540, Note_on_c, 5, 73, 96
1, 6549, Note_off_c, 3, 54, 0
1, 6549, Note_off_c, 4, 42, 0
1, 6549, Note_off_c, 6, 54, 0
1, 6550, Note_off_c, 0, 73, 0
1, 6550, Note_off_c, 1, 64, 0
1, 6550, Note_off_c, 5, 73, 0
1, 6552, Note_on_c, 0, 71, 96
1, 6552, Note_on_c, 1, 63, 96
1, 6552, Note_on_c, 3, 44, 96
1, 6552, Note_on_c, 4, 32, 96
1, 6552, Note_on_c, 5, 71, 96
1, 6552, Note_on_c, 6, 44, 96
1, 6559, Note_off_c, 2, 63, 0
1, 6562, Note_off_c, 0, 71, 0
1, 6562, Note_off_c, 5, 71, 0
1, 6564, Note_on_c, 0, 70, 96
1, 6564, Note_on_c, 2, 61, 96
1, 6564, Note_on_c, 5, 70, 96
1, 6573, Note_off_c, 1, 63, 0
1, 6573, Note_off_c, 3, 44, 0
1, 6573, Note_off_c, 4, 32, 0
1, 6573, Note_off_c, 6, 44, 0
1, 6574, Note_off_c, 0, 70, 0
1, 6574, Note_off_c, 2, 61, 0
1, 6574, Note_off_c, 5, 70, 0
1, 6576, Note_on_c, 0, 68, 96
1, 6576, Note_on_c, 1, 71, 96
1, 6576, Note_on_c, 2, 59, 96
1, 6576, Note_on_c, 3, 47, 96
1, 6576, Note_on_c, 4, 35, 96
1, 6576, Note_on_c, 5, 68, 96
1, 6576, Note_on_c, 6, 47, 96
1, 6586, Note_off_c, 0, 68, 0
1, 6586, Note_off_c, 2, 59, 0
1, 6586, Note_off_c, 5, 68, 0
1, 6588, Note_on_c, 0, 66, 96
1, 6588, Note_on_c, 2, 58, 96
1, 6588, Note_on_c, 5, 66, 96
1, 6597, Note_off_c, 3, 47, 0
1, 6597, Note_off_c, 4, 35, 0
1, 6597, Note_off_c, 6, 47, 0
1, 6598, Note_off_c, 0, 66, 0
1, 6598, Note_off_c, 2, 58, 0
1, 6598, Note_off_c, 5, 66, 0
1, 6600, Note_on_c, 0, 64, 96
1, 6600, Note_on_c, 2, 56, 96
1, 6600, Note_on_c, 3, 52, 96
1, 6600, Note_on_c, 4, 40, 96
1, 6600, Note_on_c, 5, 64, 96
1, 6600, Note_on_c, 6, 52, 96
1, 6607, Note_off_c, 1, 71, 0
1, 6610, Note_off_c, 0, 64, 0
1, 6610, Note_off_c, 5, 64, 0
1, 6612, Note_on_c, 0, 78, 96
1, 6612, Note_on_c, 1, 70, 96
1, 6612, Note_on_c, 5, 78, 96
1, 6621, Note_off_c, 2, 56, 0
1, 6621, Note_off_c, 3, 52, 0
1, 6621, Note_off_c, 4, 40, 0
1, 6621, Note_off_c, 6, 52, 0
1, 6622, Note_off_c, 0, 78, 0
1, 6622, Note_off_c, 1, 70, 0
1, 6622, Note_off_c, 5, 78, 0
1, 6624, Note_on_c, 0, 76, 96
1, 6624, Note_on_c, 1, 68, 96
1, 6624, Note_on_c, 2, 64, 96
1, 6624, Note_on_c, 3, 56, 96
1, 6624, Note_on_c, 4, 44, 96
1, 6624, Note_on_c, 5, 76, 96
1, 6624, Note_on_c, 6, 56, 96
1, 6634, Note_off_c, 0, 76, 0
1, 6634, Note_off_c, 1, 68, 0
1, 6634, Note_off_c, 5, 76, 0
1, 6636, Note_on_c, 0, 75, 96
1, 6636, Note_on_c, 1, 66, 96
1, 6636, Note_on_c, 5, 75, 96
1, 6645, Note_off_c, 3, 56, 0
1, 6645, Note_off_c, 4, 44, 0
1, 6645, Note_off_c, 6, 56, 0
1, 6646, Note_off_c, 0, 75, 0
1, 6646, Note_off_c, 1, 66, 0
1, 6646, Note_off_c, 5, 75, 0
1, 6648, Note_on_c, 0, 73, 96
1, 6648, Note_on_c, 1, 64, 96
1, 6648, Note_on_c, 3, 46, 96
1, 6648, Note_on_c, 4, 34, 96
1, 6648, Note_on_c, 5, 73, 96
1, 6648, Note_on_c, 6, 46, 96
1, 6655, Note_off_c, 2, 64, 0
1, 6658, Note_off_c, 0, 73, 0
1, 6658, Note_off_c, 1, 64, 0
1, 6658, Note_off_c, 5, 73, 0
1, 6660, Note_on_c, 0, 71, 96
1, 6660, Note_on_c, 1, 75, 96
1, 6660, Note_on_c, 2, 66, 96
1, 6660, Note_on_c, 5, 71, 96
1, 6669, Note_off_c, 3, 46, 0
1, 6669, Note_off_c, 4, 34, 0
1, 6669, Note_off_c, 6, 46, 0
1, 6670, Note_off_c, 0, 71, 0
1, 6670, Note_off_c, 1, 75, 0
1, 6670, Note_off_c, 2, 66, 0
1, 6670, Note_off_c, 5, 71, 0
1, 6672, Note_on_c, 0, 70, 96
1, 6672, Note_on_c, 1, 73, 96
1, 6672, Note_on_c, 2, 64, 96
1, 6672, Note_on_c, 3, 49, 96
1, 6672, Note_on_c, 4, 37, 96
1, 6672, Note_on_c, 5, 70, 96
1, 6672, Note_on_c, 6, 49, 96
1, 6682, Note_off_c, 0, 70, 0
1, 6682, Note_off_c, 1, 73, 0
1, 6682, Note_off_c, 2, 64, 0
1, 6682, Note_off_c, 5, 70, 0
1, 6684, Note_on_c, 0, 68, 96
1, 6684, Note_on_c, 1, 71, 96
1, 6684, Note_on_c, 2, 63, 96
1, 6684, Note_on_c, 5, 68, 96
1, 6693, Note_off_c, 3, 49, 0
1, 6693, Note_off_c, 4, 37, 0
1, 6693, Note_off_c, 6, 49, 0
1, 6694, Note_off_c, 0, 68, 0
1, 6694, Note_off_c, 1, 71, 0
1, 6694, Note_off_c, 2, 63, 0
1, 6694, Note_off_c, 5, 68, 0
1, 6696, Note_on_c, 0, 66, 96
1, 6696, Note_on_c, 1, 70, 96
1, 6696, Note_on_c, 2, 61, 96
1, 6696, Note_on_c, 3, 54, 96
1, 6696, Note_on_c, 4, 42, 96
1, 6696, Note_on_c, 5, 66, 96
1, 6696, Note_on_c, 6, 54, 96
1, 6706, Note_off_c, 0, 66, 0
1, 6706, Note_off_c, 1, 70, 0
1, 6706, Note_off_c, 5, 66, 0
1, 6708, Note_on_c, 0, 80, 96
1, 6708, Note_on_c, 1, 76, 96
1, 6708, Note_on_c, 5, 80, 96
1, 6717, Note_off_c, 2, 61, 0
1, 6717, Note_off_c, 3, 54, 0
1, 6717, Note_off_c, 4, 42, 0
1, 6717, Note_off_c, 6, 54, 0
1, 6718, Note_off_c, 0, 80, 0
1, 6718, Note_off_c, 1, 76, 0
1, 6718, Note_off_c, 5, 80, 0
1, 6720, Note_on_c, 0, 78, 96
1, 6720, Note_on_c, 1, 75, 96
1, 6720, Note_on_c, 2, 66, 96
1, 6720, Note_on_c, 3, 58, 96
1, 6720, Note_on_c, 4, 46, 96
1, 6720, Note_on_c, 5, 78, 96
1, 6720, Note_on_c, 6, 58, 96
1, 6730, Note_off_c, 0, 78, 0
1, 6730, Note_off_c, 1, 75, 0
1, 6730, Note_off_c, 5, 78, 0
1, 6732, Note_on_c, 0, 76, 96
1, 6732, Note_on_c, 1, 73, 96
1, 6732, Note_on_c, 5, 76, 96
1, 6741, Note_off_c, 2, 66, 0
1, 6741, Note_off_c, 3, 58, 0
1, 6741, Note_off_c, 4, 46, 0
1, 6741, Note_off_c, 6, 58, 0
1, 6742, Note_off_c, 0, 76, 0
1, 6742, Note_off_c, 1, 73, 0
1, 6742, Note_off_c, 5, 76, 0
1, 6744, Note_on_c, 0, 75, 96
1, 6744, Note_on_c, 1, 71, 96
1, 6744, Note_on_c, 2, 66, 96
1, 6744, Note_on_c, 3, 59, 96
1, 6744, Note_on_c, 4, 47, 96
1, 6744, Note_on_c, 5, 76, 96
1, 6744, Note_on_c, 6, 59, 96
1, 6756, Note_off_c, 5, 76, 0
1, 6756, Note_on_c, 5, 75, 96
1, 6765, Note_off_c, 1, 71, 0
1, 6765, Note_off_c, 2, 66, 0
1, 6765, Note_off_c, 3, 59, 0
1, 6765, Note_off_c, 4, 47, 0
1, 6765, Note_off_c, 6, 59, 0
1, 6768, Note_on_c, 1, 71, 96
1, 6768, Note_on_c, 2, 68, 96
1, 6768, Note_on_c, 3, 52, 96
1, 6768, Note_on_c, 4, 40, 96
1, 6768, Note_on_c, 6, 52, 96
1, 6775, Note_off_c, 0, 75, 0
1, 6777, Note_off_c, 5, 75, 0
1, 6780, Note_on_c, 0, 73, 96
1, 6780, Note_on_c, 5, 73, 96
1, 6789, Note_off_c, 2, 68, 0
1, 6789, Note_off_c, 3, 52, 0
1, 6789, Note_off_c, 4, 40, 0
1, 6789, Note_off_c, 6, 52, 0
1, 6790, Note_off_c, 0, 73, 0
1, 6790, Note_off_c, 5, 73, 0
1, 6792, Note_on_c, 0, 73, 96
1, 6792, Note_on_c, 2, 66, 96
1, 6792, Note_on_c, 3, 54, 96
1, 6792, Note_on_c, 4, 42, 96
1, 6792, Note_on_c, 5, 75, 96
1, 6792, Note_on_c, 6, 54, 96
1, 6798, Note_off_c, 5, 75, 0
1, 6798, Note_on_c, 5, 73, 96
1, 6804, Note_off_c, 5, 73, 0
1, 6804, Note_on_c, 5, 75, 96
1, 6810, Note_off_c, 1, 71, 0
1, 6810, Note_off_c, 5, 75, 0
1, 6810, Note_on_c, 5, 73, 96
1, 6813, Note_off_c, 2, 66, 0
1, 6813, Note_off_c, 3, 54, 0
1, 6813, Note_off_c, 4, 42, 0
1, 6813, Note_off_c, 6, 54, 0
1, 6816, Note_on_c, 1, 70, 96
1, 6816, Note_on_c, 2, 64, 96
1, 6816, Note_on_c, 3, 42, 96
1, 6816, Note_on_c, 4, 30, 96
1, 6816, Note_off_c, 5, 73, 0
1, 6816, Note_on_c, 5, 75, 96
1, 6816, Note_on_c, 6, 42, 96
1, 6822, Note_off_c, 5, 75, 0
1, 6822, Note_on_c, 5, 73, 96
1, 6823, Note_off_c, 0, 73, 0
1, 6827, Note_off_c, 5, 73, 0
1, 6828, Note_on_c, 0, 71, 96
1, 6828, Note_on_c, 5, 71, 96
1, 6837, Note_off_c, 1, 70, 0
1, 6837, Note_off_c, 2, 64, 0
1, 6837, Note_off_c, 3, 42, 0
1, 6837, Note_off_c, 4, 30, 0
1, 6837, Note_off_c, 6, 42, 0
1, 6838, Note_off_c, 0, 71, 0
1, 6838, Note_off_c, 5, 71, 0
1, 6840, Note_on_c, 0, 71, 96
1, 6840, Note_on_c, 1, 71, 96
1, 6840, Note_on_c, 2, 63, 96
1, 6840, Note_on_c, 3, 47, 96
1, 6840, Note_on_c, 4, 35, 96
1, 6840, Note_on_c, 5, 71, 96
1, 6840, Note_on_c, 6, 47, 96
1, 6861, Note_off_c, 0, 71, 0
1, 6861, Note_off_c, 1, 71, 0
1, 6861, Note_off_c, 2, 63, 0
1, 6864, Note_on_c, 0, 73, 96
1, 6864, Note_on_c, 1, 68, 96
1, 6864, Note_on_c, 2, 64, 96
1, 6882, Note_off_c, 3, 47, 0
1, 6882, Note_off_c, 4, 35, 0
1, 6882, Note_off_c, 5, 71, 0
1, 6882, Note_off_c, 6, 47, 0
1, 6885, Note_off_c, 0, 73, 0
1, 6885, Note_off_c, 1, 68, 0
1, 6885, Note_off_c, 2, 64, 0
1, 6888, Note_on_c, 0, 71, 96
1, 6888, Note_on_c, 1, 66, 96
1, 6888, Note_on_c, 2, 63, 96
1, 6909, Note_off_c, 0, 71, 0
1, 6909, Note_off_c, 1, 66, 0
1, 6909, Note_off_c, 2, 63, 0
1, 6912, Note_on_c, 0, 70, 96
1, 6912, Note_on_c, 1, 64, 96
1, 6912, Note_on_c, 2, 61, 96
1, 6912, Note_on_c, 5, 66, 96
1, 6933, Note_off_c, 0, 70, 0
1, 6933, Note_off_c, 1, 64, 0
1, 6933, Note_off_c, 2, 61, 0
1, 6933, Note_off_c, 5, 66, 0
1, 6936, Note_on_c, 0, 71, 96
1, 6936, Note_on_c, 1, 63, 96
1, 6936, Note_on_c, 2, 59, 96
1, 6936, Note_on_c, 5, 66, 96
1, 6946, Note_off_c, 5, 66, 0
1, 6948, Note_on_c, 5, 68, 96
1, 6958, Note_off_c, 5, 68, 0
1, 6960, Note_on_c, 5, 69, 96
1, 6960, Note_on_c, 6, 49, 96
1, 6966, Note_off_c, 5, 69, 0
1, 6978, Note_off_c, 0, 71, 0
1, 6978, Note_off_c, 1, 63, 0
1, 6978, Note_off_c, 2, 59, 0
1, 6981, Note_off_c, 6, 49, 0
1, 6984, Note_on_c, 5, 71, 96
1, 6984, Note_on_c, 6, 51, 96
1, 6996, Note_off_c, 5, 71, 0
1, 6996, Note_on_c, 5, 69, 96
1, 7005, Note_off_c, 6, 51, 0
1, 7008, Note_off_c, 5, 69, 0
1, 7008, Note_on_c, 5, 68, 96
1, 7008, Note_on_c, 6, 52, 96
1, 7020, Note_off_c, 5, 68, 0
1, 7020, Note_on_c, 5, 66, 96
1, 7029, Note_off_c, 6, 52, 0
1, 7030, Note_off_c, 5, 66, 0
1, 7032, Note_on_c, 0, 75, 80
1, 7032, Note_on_c, 1, 66, 80
1, 7032, Note_on_c, 2, 60, 80
1, 7032, Note_on_c, 5, 75, 96
1, 7032, Note_on_c, 6, 54, 96
1, 7042, Note_off_c, 5, 75, 0
1, 7042, Note_off_c, 6, 54, 0
1, 7044, Note_on_c, 5, 73, 96
1, 7044, Note_on_c, 6, 56, 96
1, 7054, Note_off_c, 5, 73, 0
1, 7054, Note_off_c, 6, 56, 0
1, 7056, Note_on_c, 5, 75, 96
1, 7056, Note_on_c, 6, 54, 96
1, 7066, Note_off_c, 6, 54, 0
1, 7068, Note_on_c, 6, 52, 96
1, 7077, Note_off_c, 5, 75, 0
1, 7078, Note_off_c, 6, 52, 0
1, 7080, Note_on_c, 5, 66, 96
1, 7080, Note_on_c, 6, 51, 96
1, 7090, Note_off_c, 5, 66, 0
1, 7090, Note_off_c, 6, 51, 0
1, 7092, Note_on_c, 5, 69, 96
1, 7092, Note_on_c, 6, 49, 96
1, 7102, Note_off_c, 5, 69, 0
1, 7102, Note_off_c, 6, 49, 0
1, 7104, Note_on_c, 5, 68, 96
1, 7104, Note_on_c, 6, 48, 96
1, 7114, Note_off_c, 5, 68, 0
1, 7114, Note_off_c, 6, 48, 0
1, 7116, Note_on_c, 5, 66, 96
1, 7116, Note_on_c, 6, 51, 96
1, 7126, Note_off_c, 5, 66, 0
1, 7126, Note_off_c, 6, 51, 0
1, 7128, Note_on_c, 5, 75, 96
1, 7128, Note_on_c, 6, 44, 96
1, 7138, Note_off_c, 5, 75, 0
1, 7140, Note_on_c, 5, 72, 96
1, 7149, Note_off_c, 6, 44, 0
1, 7150, Note_off_c, 5, 72, 0
1, 7152, Note_on_c, 5, 73, 96
1, 7152, Note_on_c, 6, 46, 96
1, 7162, Note_off_c, 5, 73, 0
1, 7164, Note_on_c, 5, 75, 96
1, 7173, Note_off_c, 6, 46, 0
1, 7174, Note_off_c, 5, 75, 0
1, 7176, Note_on_c, 5, 68, 96
1, 7176, Note_on_c, 6, 48, 96
1, 7186, Note_off_c, 5, 68, 0
1, 7188, Note_off_c, 0, 75, 0
1, 7188, Note_off_c, 1, 66, 0
1, 7188, Note_off_c, 2, 60, 0
1, 7188, Note_on_c, 5, 78, 96
1, 7197, Note_off_c, 6, 48, 0
1, 7198, Note_off_c, 5, 78, 0
1, 7200, Note_on_c, 0, 73, 80
1, 7200, Note_on_c, 1, 68, 80
1, 7200, Note_on_c, 2, 66, 80
1, 7200, Note_on_c, 5, 76, 96
1, 7200, Note_on_c, 6, 44, 96
1, 7210, Note_off_c, 0, 73, 0
1, 7210, Note_off_c, 5, 76, 0
1, 7212, Note_on_c, 0, 72, 80
1, 7212, Note_on_c, 5, 75, 96
1, 7221, Note_off_c, 1, 68, 0
1, 7221, Note_off_c, 2, 66, 0
1, 7221, Note_off_c, 6, 44, 0
1, 7222, Note_off_c, 0, 72, 0
1, 7222, Note_off_c, 5, 75, 0
1, 7224, Note_on_c, 0, 73, 80
1, 7224, Note_on_c, 1, 68, 80
1, 7224, Note_on_c, 2, 64, 80
1, 7224, Note_on_c, 5, 78, 96
1, 7224, Note_on_c, 6, 49, 96
1, 7234, Note_off_c, 5, 78, 0
1, 7236, Note_on_c, 5, 76, 96
1, 7245, Note_off_c, 6, 49, 0
1, 7246, Note_off_c, 5, 76, 0
1, 7248, Note_on_c, 5, 75, 96
1, 7248, Note_on_c, 6, 51, 96
1, 7258, Note_off_c, 5, 75, 0
1, 7260, Note_on_c, 5, 76, 96
1, 7266, Note_off_c, 0, 73, 0
1, 7266, Note_off_c, 1, 68, 0
1, 7266, Note_off_c, 2, 64, 0
1, 7269, Note_off_c, 6, 51, 0
1, 7270, Note_off_c, 5, 76, 0
1, 7272, Note_on_c, 5, 73, 96
1, 7272, Note_on_c, 6, 52, 96
1, 7282, Note_off_c, 6, 52, 0
1, 7284, Note_on_c, 6, 49, 96
1, 7293, Note_off_c, 5, 73, 0
1, 7294, Note_off_c, 6, 49, 0
1, 7296, Note_on_c, 5, 80, 96
1, 7296, Note_on_c, 6, 51, 96
1, 7306, Note_off_c, 6, 51, 0
1, 7308, Note_on_c, 6, 52, 96
1, 7318, Note_off_c, 6, 52, 0
1, 7320, Note_on_c, 6, 54, 96
1, 7327, Note_off_c, 5, 80, 0
1, 7332, Note_on_c, 5, 78, 96
1, 7341, Note_off_c, 6, 54, 0
1, 7342, Note_off_c, 5, 78, 0
1, 7344, Note_on_c, 5, 76, 96
1, 7344, Note_on_c, 6, 56, 96
1, 7354, Note_off_c, 5, 76, 0
1, 7356, Note_on_c, 5, 80, 96
1, 7365, Note_off_c, 6, 56, 0
1, 7366, Note_off_c, 5, 80, 0
1, 7368, Note_on_c, 5, 78, 96
1, 7368, Note_on_c, 6, 57, 96
1, 7378, Note_off_c, 5, 78, 0
1, 7380, Note_on_c, 5, 76, 96
1, 7389, Note_off_c, 6, 57, 0
1, 7390, Note_off_c, 5, 76, 0
1, 7392, Note_on_c, 5, 75, 96
1, 7392, Note_on_c, 6, 54, 96
1, 7402, Note_off_c, 5, 75, 0
1, 7404, Note_on_c, 5, 73, 96
1, 7413, Note_off_c, 6, 54, 0
1, 7414, Note_off_c, 5, 73, 0
1, 7416, Note_on_c, 5, 72, 96
1, 7416, Note_on_c, 6, 56, 96
1, 7426, Note_off_c, 5, 72, 0
1, 7428, Note_on_c, 5, 73, 96
1, 7437, Note_off_c, 6, 56, 0
1, 7438, Note_off_c, 5, 73, 0
1, 7440, Note_on_c, 0, 78, 80
1, 7440, Note_on_c, 1, 75, 80
1, 7440, Note_on_c, 2, 72, 80
1, 7440, Note_on_c, 5, 75, 96
1, 7440, Note_on_c, 6, 44, 96
1, 7450, Note_off_c, 5, 75, 0
1, 7452, Note_on_c, 5, 72, 96
1, 7461, Note_off_c, 0, 78, 0
1, 7461, Note_off_c, 1, 75, 0
1, 7461, Note_off_c, 2, 72, 0
1, 7461, Note_off_c, 6, 44, 0
1, 7462, Note_off_c, 5, 72, 0
1, 7464, Note_on_c, 0, 78, 80
1, 7464, Note_on_c, 1, 75, 80
1, 7464, Note_on_c, 2, 72, 80
1, 7464, Note_on_c, 5, 68, 96
1, 7474, Note_off_c, 5, 68, 0
1, 7476, Note_on_c, 5, 72, 96
1, 7485, Note_off_c, 0, 78, 0
1, 7485, Note_off_c, 1, 75, 0
1, 7485, Note_off_c, 2, 72, 0
1, 7486, Note_off_c, 5, 72, 0
1, 7488, Note_on_c, 0, 75, 80
1, 7488, Note_on_c, 1, 72, 80
1, 7488, Note_on_c, 2, 68, 80
1, 7488, Note_on_c, 5, 75, 96
1, 7488, Note_on_c, 6, 56, 96
1, 7498, Note_off_c, 5, 75, 0
1, 7500, Note_on_c, 5, 78, 96
1, 7509, Note_off_c, 0, 75, 0
1, 7509, Note_off_c, 1, 72, 0
1, 7509, Note_off_c, 2, 68, 0
1, 7509, Note_off_c, 6, 56, 0
1, 7510, Note_off_c, 5, 78, 0
1, 7512, Note_on_c, 0, 76, 80
1, 7512, Note_on_c, 1, 73, 80
1, 7512, Note_on_c, 2, 68, 80
1, 7512, Note_on_c, 5, 76, 96
1, 7512, Note_on_c, 6, 61, 96
1, 7518, Note_off_c, 6, 61, 0
1, 7518, Note_on_c, 6, 59, 96
1, 7522, Note_off_c, 5, 76, 0
1, 7524, Note_on_c, 5, 75, 96
1, 7524, Note_off_c, 6, 59, 0
1, 7524, Note_on_c, 6, 61, 96
1, 7533, Note_off_c, 0, 76, 0
1, 7533, Note_off_c, 1, 73, 0
1, 7533, Note_off_c, 2, 68, 0
1, 7534, Note_off_c, 5, 75, 0
1, 7536, Note_on_c, 5, 73, 96
1, 7545, Note_off_c, 6, 61, 0
1, 7546, Note_off_c, 5, 73, 0
1, 7548, Note_on_c, 5, 80, 96
1, 7548, Note_on_c, 6, 59, 96
1, 7558, Note_off_c, 5, 80, 0
1, 7558, Note_off_c, 6, 59, 0
1, 7560, Note_on_c, 5, 78, 96
1, 7560, Note_on_c, 6, 57, 96
1, 7564, Note_off_c, 6, 57, 0
1, 7564, Note_on_c, 6, 59, 96
1, 7568, Note_off_c, 6, 59, 0
1, 7568, Note_on_c, 6, 57, 96
1, 7570, Note_off_c, 5, 78, 0
1, 7571, Note_off_c, 6, 57, 0
1, 7572, Note_on_c, 5, 76, 96
1, 7572, Note_on_c, 6, 56, 96
1, 7582, Note_off_c, 5, 76, 0
1, 7582, Note_off_c, 6, 56, 0
1, 7584, Note_on_c, 5, 75, 96
1, 7584, Note_on_c, 6, 57, 96
1, 7594, Note_off_c, 5, 75, 0
1, 7596, Note_on_c, 5, 73, 96
1, 7605, Note_off_c, 6, 57, 0
1, 7606, Note_off_c, 5, 73, 0
1, 7608, Note_on_c, 5, 81, 96
1, 7608, Note_on_c, 6, 56, 96
1, 7614, Note_off_c, 5, 81, 0
1, 7614, Note_on_c, 5, 80, 96
1, 7618, Note_off_c, 6, 56, 0
1, 7620, Note_off_c, 5, 80, 0
1, 7620, Note_on_c, 5, 81, 96
1, 7620, Note_on_c, 6, 44, 96
1, 7626, Note_off_c, 5, 81, 0
1, 7626, Note_on_c, 5, 80, 96
1, 7630, Note_off_c, 6, 44, 0
1, 7632, Note_off_c, 5, 80, 0
1, 7632, Note_on_c, 5, 81, 96
1, 7632, Note_on_c, 6, 56, 96
1, 7638, Note_off_c, 5, 81, 0
1, 7638, Note_on_c, 5, 80, 96
1, 7642, Note_off_c, 6, 56, 0
1, 7644, Note_off_c, 5, 80, 0
1, 7644, Note_on_c, 5, 81, 96
1, 7644, Note_on_c, 6, 54, 96
1, 7650, Note_off_c, 5, 81, 0
1, 7650, Note_on_c, 5, 80, 96
1, 7654, Note_off_c, 6, 54, 0
1, 7656, Note_off_c, 5, 80, 0
1, 7656, Note_on_c, 5, 81, 96
1, 7656, Note_on_c, 6, 52, 96
1, 7662, Note_off_c, 5, 81, 0
1, 7662, Note_on_c, 5, 80, 96
1, 7666, Note_off_c, 6, 52, 0
1, 7668, Note_off_c, 5, 80, 0
1, 7668, Note_on_c, 5, 81, 96
1, 7668, Note_on_c, 6, 51, 96
1, 7674, Note_off_c, 5, 81, 0
1, 7674, Note_on_c, 5, 80, 96
1, 7678, Note_off_c, 6, 51, 0
1, 7680, Note_on_c, 0, 68, 96
1, 7680, Note_on_c, 1, 75, 96
1, 7680, Note_on_c, 2, 63, 96
1, 7680, Note_on_c, 3, 54, 96
1, 7680, Note_on_c, 4, 42, 96
1, 7680, Note_off_c, 5, 80, 0
1, 7680, Note_on_c, 5, 81, 96
1, 7680, Note_on_c, 6, 49, 96
1, 7686, Note_off_c, 5, 81, 0
1, 7686, Note_on_c, 5, 80, 96
1, 7690, Note_off_c, 6, 49, 0
1, 7692, Note_off_c, 5, 80, 0
1, 7692, Note_on_c, 5, 81, 96
1, 7692, Note_on_c, 6, 48, 96
1, 7698, Note_off_c, 5, 81, 0
1, 7698, Note_on_c, 5, 80, 96
1, 7701, Note_off_c, 0, 68, 0
1, 7701, Note_off_c, 1, 75, 0
1, 7701, Note_off_c, 2, 63, 0
1, 7701, Note_off_c, 3, 54, 0
1, 7701, Note_off_c, 4, 42, 0
1, 7702, Note_off_c, 6, 48, 0
1, 7704, Note_on_c, 0, 73, 96
1, 7704, Note_on_c, 1, 76, 96
1, 7704, Note_on_c, 2, 61, 96
1, 7704, Note_on_c, 3, 52, 96
1, 7704, Note_on_c, 4, 40, 96
1, 7704, Note_off_c, 5, 80, 0
1, 7704, Note_on_c, 5, 81, 96
1, 7704, Note_on_c, 6, 49, 96
1, 7710, Note_off_c, 5, 81, 0
1, 7710, Note_on_c, 5, 80, 96
1, 7714, Note_off_c, 0, 73, 0
1, 7716, Note_on_c, 0, 72, 96
1, 7716, Note_off_c, 5, 80, 0
1, 7716, Note_on_c, 5, 81, 96
1, 7722, Note_off_c, 5, 81, 0
1, 7722, Note_on_c, 5, 80, 96
1, 7725, Note_off_c, 1, 76, 0
1, 7725, Note_off_c, 6, 49, 0
1, 7726, Note_off_c, 0, 72, 0
1, 7728, Note_on_c, 0, 73, 96
1, 7728, Note_on_c, 1, 80, 96
1, 7728, Note_off_c, 5, 80, 0
1, 7728, Note_on_c, 5, 81, 96
1, 7728, Note_on_c, 6, 52, 96
1, 7734, Note_off_c, 5, 81, 0
1, 7734, Note_on_c, 5, 80, 96
1, 7738, Note_off_c, 0, 73, 0
1, 7740, Note_on_c, 0, 76, 96
1, 7740, Note_off_c, 5, 80, 0
1, 7740, Note_on_c, 5, 81, 96
1, 7746, Note_off_c, 2, 61, 0
1, 7746, Note_off_c, 3, 52, 0
1, 7746, Note_off_c, 4, 40, 0
1, 7746, Note_off_c, 5, 81, 0
1, 7746, Note_on_c, 5, 80, 96
1, 7749, Note_off_c, 1, 80, 0
1, 7749, Note_off_c, 6, 52, 0
1, 7750, Note_off_c, 0, 76, 0
1, 7752, Note_on_c, 0, 73, 96
1, 7752, Note_on_c, 1, 76, 96
1, 7752, Note_off_c, 5, 80, 0
1, 7752, Note_on_c, 5, 81, 96
1, 7752, Note_on_c, 6, 56, 96
1, 7758, Note_off_c, 5, 81, 0
1, 7758, Note_on_c, 5, 80, 96
1, 7762, Note_off_c, 0, 73, 0
1, 7764, Note_on_c, 0, 68, 96
1, 7764, Note_off_c, 5, 80, 0
1, 7764, Note_on_c, 5, 81, 96
1, 7770, Note_off_c, 5, 81, 0
1, 7770, Note_on_c, 5, 80, 96
1, 7773, Note_off_c, 1, 76, 0
1, 7773, Note_off_c, 6, 56, 0
1, 7774, Note_off_c, 0, 68, 0
1, 7776, Note_on_c, 0, 64, 96
1, 7776, Note_on_c, 1, 73, 96
1, 7776, Note_on_c, 2, 68, 96
1, 7776, Note_on_c, 3, 56, 96
1, 7776, Note_on_c, 4, 44, 96
1, 7776, Note_off_c, 5, 80, 0
1, 7776, Note_on_c, 5, 81, 96
1, 7776, Note_on_c, 6, 61, 96
1, 7782, Note_off_c, 5, 81, 0
1, 7782, Note_on_c, 5, 80, 96
1, 7786, Note_off_c, 0, 64, 0
1, 7788, Note_on_c, 0, 68, 96
1, 7788, Note_off_c, 5, 80, 0
1, 7788, Note_on_c, 5, 81, 96
1, 7794, Note_off_c, 5, 81, 0
1, 7794, Note_on_c, 5, 80, 96
1, 7797, Note_off_c, 1, 73, 0
1, 7797, Note_off_c, 2, 68, 0
1, 7797, Note_off_c, 3, 56, 0
1, 7797, Note_off_c, 4, 44, 0
1, 7797, Note_off_c, 6, 61, 0
1, 7798, Note_off_c, 0, 68, 0
1, 7800, Note_on_c, 0, 61, 96
1, 7800, Note_on_c, 2, 64, 96
1, 7800, Note_on_c, 3, 61, 96
1, 7800, Note_on_c, 4, 49, 96
1, 7800, Note_off_c, 5, 80, 0
1, 7800, Note_on_c, 5, 81, 96
1, 7800, Note_on_c, 6, 52, 96
1, 7806, Note_off_c, 5, 81, 0
1, 7806, Note_on_c, 5, 80, 96
1, 7810, Note_off_c, 0, 61, 0
1, 7812, Note_on_c, 0, 68, 96
1, 7812, Note_off_c, 5, 80, 0
1, 7812, Note_on_c, 5, 81, 96
1, 7818, Note_off_c, 5, 81, 0
1, 7818, Note_on_c, 5, 80, 96
1, 7821, Note_off_c, 2, 64, 0
1, 7821, Note_off_c, 6, 52, 0
1, 7822, Note_off_c, 0, 68, 0
1, 7824, Note_on_c, 0, 64, 96
1, 7824, Note_on_c, 1, 68, 96
1, 7824, Note_on_c, 2, 61, 96
1, 7824, Note_off_c, 5, 80, 0
1, 7824, Note_on_c, 5, 81, 96
1, 7824, Note_on_c, 6, 56, 96
1, 7830, Note_off_c, 5, 81, 0
1, 7830, Note_on_c, 5, 80, 96
1, 7834, Note_off_c, 0, 64, 0
1, 7836, Note_on_c, 0, 68, 96
1, 7836, Note_off_c, 5, 80, 0
1, 7836, Note_on_c, 5, 81, 96
1, 7842, Note_off_c, 3, 61, 0
1, 7842, Note_off_c, 4, 49, 0
1, 7842, Note_off_c, 5, 81, 0
1, 7842, Note_on_c, 5, 80, 96
1, 7845, Note_off_c, 1, 68, 0
1, 7845, Note_off_c, 2, 61, 0
1, 7845, Note_off_c, 6, 56, 0
1, 7846, Note_off_c, 0, 68, 0
1, 7848, Note_on_c, 0, 61, 96
1, 7848, Note_on_c, 1, 64, 96
1, 7848, Note_off_c, 5, 80, 0
1, 7848, Note_on_c, 5, 81, 96
1, 7848, Note_on_c, 6, 61, 96
1, 7854, Note_off_c, 5, 81, 0
1, 7854, Note_on_c, 5, 80, 96
1, 7858, Note_off_c, 0, 61, 0
1, 7860, Note_on_c, 0, 68, 96
1, 7860, Note_off_c, 5, 80, 0
1, 7860, Note_on_c, 5, 81, 96
1, 7866, Note_off_c, 5, 81, 0
1, 7866, Note_on_c, 5, 80, 96
1, 7869, Note_off_c, 1, 64, 0
1, 7869, Note_off_c, 6, 61, 0
1, 7870, Note_off_c, 0, 68, 0
1, 7872, Note_on_c, 0, 64, 96
1, 7872, Note_on_c, 1, 61, 96
1, 7872, Note_on_c, 2, 56, 96
1, 7872, Note_on_c, 3, 56, 96
1, 7872, Note_on_c, 4, 44, 96
1, 7872, Note_off_c, 5, 80, 0
1, 7872, Note_on_c, 5, 81, 96
1, 7872, Note_on_c, 6, 64, 96
1, 7878, Note_off_c, 5, 81, 0
1, 7878, Note_on_c, 5, 80, 96
1, 7882, Note_off_c, 0, 64, 0
1, 7884, Note_on_c, 0, 68, 96
1, 7884, Note_off_c, 5, 80, 0
1, 7884, Note_on_c, 5, 81, 96
1, 7890, Note_off_c, 5, 81, 0
1, 7890, Note_on_c, 5, 80, 96
1, 7893, Note_off_c, 1, 61, 0
1, 7893, Note_off_c, 2, 56, 0
1, 7893, Note_off_c, 3, 56, 0
1, 7893, Note_off_c, 4, 44, 0
1, 7893, Note_off_c, 6, 64, 0
1, 7894, Note_off_c, 0, 68, 0
1, 7896, Note_on_c, 0, 73, 96
1, 7896, Note_on_c, 2, 52, 96
1, 7896, Note_on_c, 3, 61, 96
1, 7896, Note_on_c, 4, 49, 96
1, 7896, Note_off_c, 5, 80, 0
1, 7896, Note_on_c, 5, 81, 96
1, 7896, Note_on_c, 6, 61, 96
1, 7902, Note_off_c, 5, 81, 0
1, 7902, Note_on_c, 5, 80, 96
1, 7906, Note_off_c, 0, 73, 0
1, 7908, Note_on_c, 0, 72, 96
1, 7908, Note_off_c, 5, 80, 0
1, 7908, Note_on_c, 5, 81, 96
1, 7914, Note_off_c, 5, 81, 0
1, 7914, Note_on_c, 5, 80, 96
1, 7917, Note_off_c, 2, 52, 0
1, 7917, Note_off_c, 3, 61, 0
1, 7917, Note_off_c, 4, 49, 0
1, 7917, Note_off_c, 6, 61, 0
1, 7918, Note_off_c, 0, 72, 0
1, 7920, Note_on_c, 0, 73, 96
1, 7920, Note_on_c, 2, 49, 96
1, 7920, Note_on_c, 3, 56, 96
1, 7920, Note_on_c, 4, 44, 96
1, 7920, Note_off_c, 5, 80, 0
1, 7920, Note_on_c, 5, 81, 96
1, 7920, Note_on_c, 6, 56, 96
1, 7926, Note_off_c, 5, 81, 0
1, 7926, Note_on_c, 5, 80, 96
1, 7930, Note_off_c, 0, 73, 0
1, 7932, Note_on_c, 0, 76, 96
1, 7932, Note_off_c, 5, 80, 0
1, 7932, Note_on_c, 5, 81, 96
1, 7938, Note_off_c, 5, 81, 0
1, 7938, Note_on_c, 5, 80, 96
1, 7941, Note_off_c, 2, 49, 0
1, 7941, Note_off_c, 3, 56, 0
1, 7941, Note_off_c, 4, 44, 0
1, 7941, Note_off_c, 6, 56, 0
1, 7942, Note_off_c, 0, 76, 0
1, 7944, Note_on_c, 0, 73, 96
1, 7944, Note_on_c, 3, 52, 96
1, 7944, Note_on_c, 4, 40, 96
1, 7944, Note_off_c, 5, 80, 0
1, 7944, Note_on_c, 5, 81, 96
1, 7944, Note_on_c, 6, 52, 96
1, 7950, Note_off_c, 5, 81, 0
1, 7950, Note_on_c, 5, 80, 96
1, 7954, Note_off_c, 0, 73, 0
1, 7956, Note_on_c, 0, 68, 96
1, 7965, Note_off_c, 3, 52, 0
1, 7965, Note_off_c, 4, 40, 0
1, 7965, Note_off_c, 6, 52, 0
1, 7966, Note_off_c, 0, 68, 0
1, 7968, Note_on_c, 0, 64, 96
1, 7968, Note_on_c, 3, 49, 96
1, 7968, Note_on_c, 4, 37, 96
1, 7968, Note_on_c, 6, 49, 96
1, 7978, Note_off_c, 0, 64, 0
1, 7980, Note_on_c, 0, 68, 96
1, 7989, Note_off_c, 3, 49, 0
1, 7989, Note_off_c, 4, 37, 0
1, 7989, Note_off_c, 6, 49, 0
1, 7990, Note_off_c, 0, 68, 0
1, 7992, Note_on_c, 0, 61, 96
1, 7992, Note_on_c, 3, 45, 96
1, 7992, Note_on_c, 4, 33, 96
1, 7992, Note_off_c, 5, 80, 0
1, 7992, Note_on_c, 6, 45, 96
1, 7998, Note_on_c, 5, 78, 96
1, 8003, Note_off_c, 5, 78, 0
1, 8004, Note_on_c, 5, 80, 96
1, 8009, Note_off_c, 5, 80, 0
1, 8010, Note_on_c, 5, 81, 96
1, 8013, Note_off_c, 0, 61, 0
1, 8013, Note_off_c, 3, 45, 0
1, 8013, Note_off_c, 4, 33, 0
1, 8013, Note_off_c, 6, 45, 0
1, 8015, Note_off_c, 5, 81, 0
1, 8016, Note_on_c, 5, 80, 96
1, 8016, Note_on_c, 6, 60, 96
1, 8026, Note_off_c, 5, 80, 0
1, 8028, Note_on_c, 5, 78, 96
1, 8037, Note_off_c, 6, 60, 0
1, 8038, Note_off_c, 5, 78, 0
1, 8040, Note_on_c, 5, 76, 96
1, 8040, Note_on_c, 6, 61, 96
1, 8050, Note_off_c, 5, 76, 0
1, 8052, Note_on_c, 5, 75, 96
1, 8061, Note_off_c, 6, 61, 0
1, 8062, Note_off_c, 5, 75, 0
1, 8064, Note_on_c, 3, 57, 80
1, 8064, Note_on_c, 4, 45, 80
1, 8064, Note_on_c, 5, 73, 96
1, 8064, Note_on_c, 6, 63, 96
1, 8064, Note_on_c, 6, 57, 96
1, 8074, Note_off_c, 5, 73, 0
1, 8076, Note_on_c, 5, 72, 96
1, 8085, Note_off_c, 3, 57, 0
1, 8085, Note_off_c, 4, 45, 0
1, 8085, Note_off_c, 6, 63, 0
1, 8085, Note_off_c, 6, 57, 0
1, 8086, Note_off_c, 5, 72, 0
1, 8088, Note_on_c, 3, 56, 80
1, 8088, Note_on_c, 4, 44, 80
1, 8088, Note_on_c, 5, 73, 96
1, 8088, Note_on_c, 6, 64, 96
1, 8088, Note_on_c, 6, 56, 96
1, 8100, Note_off_c, 5, 73, 0
1, 8100, Note_on_c, 5, 75, 96
1, 8106, Note_off_c, 5, 75, 0
1, 8106, Note_on_c, 5, 73, 96
1, 8109, Note_off_c, 3, 56, 0
1, 8109, Note_off_c, 4, 44, 0
1, 8109, Note_off_c, 6, 64, 0
1, 8109, Note_off_c, 6, 56, 0
1, 8112, Note_on_c, 3, 54, 80
1, 8112, Note_on_c, 4, 42, 80
1, 8112, Note_off_c, 5, 73, 0
1, 8112, Note_on_c, 5, 72, 96
1, 8112, Note_on_c, 6, 57, 96
1, 8112, Note_on_c, 6, 54, 96
1, 8118, Note_off_c, 5, 72, 0
1, 8118, Note_on_c, 5, 73, 96
1, 8124, Note_off_c, 5, 73, 0
1, 8124, Note_on_c, 5, 75, 96
1, 8133, Note_off_c, 3, 54, 0
1, 8133, Note_off_c, 4, 42, 0
1, 8133, Note_off_c, 6, 57, 0
1, 8133, Note_off_c, 6, 54, 0
1, 8134, Note_off_c, 5, 75, 0
1, 8136, Note_on_c, 3, 56, 80
1, 8136, Note_on_c, 4, 44, 80
1, 8136, Note_on_c, 5, 75, 96
1, 8136, Note_on_c, 6, 72, 96
1, 8136, Note_on_c, 6, 56, 96
1, 8157, Note_off_c, 3, 56, 0
1, 8157, Note_off_c, 4, 44, 0
1, 8160, Note_on_c, 3, 44, 80
1, 8160, Note_on_c, 4, 32, 80
1, 8160, Note_on_c, 6, 44, 96
1, 8167, Note_off_c, 5, 75, 0
1, 8172, Note_on_c, 5, 73, 96
1, 8178, Note_off_c, 6, 72, 0
1, 8178, Note_off_c, 6, 56, 0
1, 8181, Note_off_c, 3, 44, 0
1, 8181, Note_off_c, 4, 32, 0
1, 8181, Note_off_c, 6, 44, 0
1, 8182, Note_off_c, 5, 73, 0
1, 8184, Note_on_c, 0, 82, 80
1, 8184, Note_on_c, 1, 73, 80
1, 8184, Note_on_c, 2, 67, 80
1, 8184, Note_on_c, 3, 51, 80
1, 8184, Note_on_c, 4, 39, 80
1, 8184, Note_on_c, 5, 73, 96
1, 8184, Note_on_c, 6, 58, 96
1, 8184, Note_on_c, 6, 55, 96
1, 8184, Note_on_c, 6, 51, 96
1, 8194, Note_off_c, 5, 73, 0
1, 8196, Note_on_c, 5, 76, 96
1, 8206, Note_off_c, 5, 76, 0
1, 8208, Note_on_c, 5, 75, 96
1, 8218, Note_off_c, 5, 75, 0
1, 8220, Note_on_c, 5, 73, 96
1, 8226, Note_off_c, 2, 67, 0
1, 8226, Note_off_c, 3, 51, 0
1, 8226, Note_off_c, 4, 39, 0
1, 8226, Note_off_c, 6, 58, 0
1, 8226, Note_off_c, 6, 55, 0
1, 8226, Note_off_c, 6, 51, 0
1, 8230, Note_off_c, 5, 73, 0
1, 8232, Note_on_c, 2, 63, 80
1, 8232, Note_on_c, 5, 79, 96
1, 8244, Note_off_c, 5, 79, 0
1, 8244, Note_on_c, 5, 80, 96
1, 8256, Note_on_c, 3, 55, 80
1, 8256, Note_on_c, 4, 43, 80
1, 8256, Note_off_c, 5, 80, 0
1, 8256, Note_on_c, 5, 82, 96
1, 8256, Note_on_c, 6, 55, 96
1, 8266, Note_off_c, 5, 82, 0
1, 8268, Note_off_c, 1, 73, 0
1, 8268, Note_on_c, 5, 73, 96
1, 8277, Note_off_c, 3, 55, 0
1, 8277, Note_off_c, 4, 43, 0
1, 8277, Note_off_c, 6, 55, 0
1, 8278, Note_off_c, 5, 73, 0
1, 8280, Note_on_c, 1, 71, 80
1, 8280, Note_on_c, 3, 56, 80
1, 8280, Note_on_c, 4, 44, 80
1, 8280, Note_on_c, 5, 71, 96
1, 8280, Note_on_c, 6, 56, 96
1, 8292, Note_off_c, 0, 82, 0
1, 8295, Note_off_c, 2, 63, 0
1, 8301, Note_off_c, 3, 56, 0
1, 8301, Note_off_c, 4, 44, 0
1, 8304, Note_on_c, 0, 80, 80
1, 8304, Note_on_c, 2, 68, 80
1, 8304, Note_on_c, 3, 52, 80
1, 8304, Note_on_c, 4, 40, 80
1, 8304, Note_on_c, 6, 52, 96
1, 8306, Note_off_c, 5, 71, 0
1, 8310, Note_on_c, 5, 70, 96
1, 8315, Note_off_c, 5, 70, 0
1, 8316, Note_on_c, 5, 68, 96
1, 8321, Note_off_c, 5, 68, 0
1, 8322, Note_off_c, 1, 71, 0
1, 8322, Note_on_c, 5, 70, 96
1, 8325, Note_off_c, 0, 80, 0
1, 8325, Note_off_c, 2, 68, 0
1, 8325, Note_off_c, 3, 52, 0
1, 8325, Note_off_c, 4, 40, 0
1, 8325, Note_off_c, 6, 52, 0
1, 8327, Note_off_c, 5, 70, 0
1, 8328, Note_on_c, 3, 49, 80
1, 8328, Note_on_c, 4, 37, 80
1, 8328, Note_on_c, 5, 70, 96
1, 8328, Note_on_c, 6, 49, 96
1, 8343, Note_off_c, 6, 56, 0
1, 8349, Note_off_c, 3, 49, 0
1, 8349, Note_off_c, 4, 37, 0
1, 8349, Note_off_c, 6, 49, 0
1, 8352, Note_on_c, 3, 51, 80
1, 8352, Note_on_c, 4, 39, 80
1, 8352, Note_on_c, 6, 55, 96
1, 8352, Note_on_c, 6, 51, 96
1, 8359, Note_off_c, 5, 70, 0
1, 8364, Note_on_c, 5, 68, 96
1, 8373, Note_off_c, 3, 51, 0
1, 8373, Note_off_c, 4, 39, 0
1, 8373, Note_off_c, 6, 55, 0
1, 8373, Note_off_c, 6, 51, 0
1, 8374, Note_off_c, 5, 68, 0
1, 8376, Note_on_c, 3, 44, 80
1, 8376, Note_on_c, 4, 32, 80
1, 8376, Note_on_c, 5, 68, 96
1, 8376, Note_on_c, 6, 44, 96
1, 8388, Note_on_c, 0, 68, 96
1, 8397, Note_off_c, 3, 44, 0
1, 8397, Note_off_c, 4, 32, 0
1, 8397, Note_off_c, 6, 44, 0
1, 8398, Note_off_c, 0, 68, 0
1, 8400, Note_on_c, 0, 71, 96
1, 8400, Note_on_c, 3, 56, 80
1, 8400, Note_on_c, 4, 44, 80
1, 8400, Note_on_c, 6, 56, 96
1, 8410, Note_off_c, 0, 71, 0
1, 8410, Note_off_c, 3, 56, 0
1, 8410, Note_off_c, 4, 44, 0
1, 8410, Note_off_c, 6, 56, 0
1, 8412, Note_on_c, 0, 75, 96
1, 8412, Note_on_c, 3, 58, 80
1, 8412, Note_on_c, 4, 46, 80
1, 8412, Note_on_c, 6, 58, 96
1, 8422, Note_off_c, 0, 75, 0
1, 8422, Note_off_c, 3, 58, 0
1, 8422, Note_off_c, 4, 46, 0
1, 8422, Note_off_c, 6, 58, 0
1, 8424, Note_on_c, 0, 80, 96
1, 8424, Note_on_c, 3, 59, 80
1, 8424, Note_on_c, 4, 47, 80
1, 8424, Note_on_c, 6, 59, 96
1, 8434, Note_off_c, 0, 80, 0
1, 8436, Note_on_c, 0, 78, 96
1, 8445, Note_off_c, 3, 59, 0
1, 8445, Note_off_c, 4, 47, 0
1, 8445, Note_off_c, 6, 59, 0
1, 8446, Note_off_c, 0, 78, 0
1, 8448, Note_on_c, 0, 76, 96
1, 8448, Note_on_c, 1, 71, 96
1, 8448, Note_on_c, 2, 68, 96
1, 8448, Note_on_c, 3, 56, 96
1, 8448, Note_on_c, 4, 44, 96
1, 8448, Note_on_c, 6, 56, 96
1, 8458, Note_off_c, 0, 76, 0
1, 8460, Note_on_c, 0, 75, 96
1, 8469, Note_off_c, 1, 71, 0
1, 8469, Note_off_c, 2, 68, 0
1, 8469, Note_off_c, 3, 56, 0
1, 8469, Note_off_c, 4, 44, 0
1, 8469, Note_off_c, 6, 56, 0
1, 8470, Note_off_c, 0, 75, 0
1, 8472, Note_on_c, 0, 68, 96
1, 8472, Note_on_c, 1, 70, 96
1, 8472, Note_on_c, 2, 64, 96
1, 8472, Note_on_c, 3, 61, 96
1, 8472, Note_on_c, 4, 49, 96
1, 8472, Note_on_c, 6, 49, 96
1, 8475, Note_off_c, 0, 68, 0
1, 8482, Note_off_c, 6, 49, 0
1, 8484, Note_on_c, 0, 76, 96
1, 8484, Note_on_c, 6, 61, 96
1, 8493, Note_off_c, 1, 70, 0
1, 8493, Note_off_c, 2, 64, 0
1, 8493, Note_off_c, 3, 61, 0
1, 8493, Note_off_c, 4, 49, 0
1, 8494, Note_off_c, 6, 61, 0
1, 8496, Note_off_c, 0, 76, 0
1, 8496, Note_on_c, 0, 75, 96
1, 8496, Note_on_c, 6, 59, 96
1, 8506, Note_off_c, 6, 59, 0
1, 8508, Note_off_c, 0, 75, 0
1, 8508, Note_on_c, 0, 73, 96
1, 8508, Note_on_c, 6, 58, 96
1, 8518, Note_off_c, 0, 73, 0
1, 8518, Note_off_c, 6, 58, 0
1, 8520, Note_on_c, 0, 68, 96
1, 8520, Note_on_c, 1, 71, 96
1, 8520, Note_on_c, 2, 63, 96
1, 8520, Note_on_c, 3, 59, 96
1, 8520, Note_on_c, 4, 47, 96
1, 8520, Note_on_c, 6, 47, 96
1, 8523, Note_off_c, 0, 68, 0
1, 8530, Note_off_c, 6, 47, 0
1, 8532, Note_on_c, 0, 75, 96
1, 8532, Note_on_c, 6, 59, 96
1, 8541, Note_off_c, 1, 71, 0
1, 8541, Note_off_c, 2, 63, 0
1, 8541, Note_off_c, 3, 59, 0
1, 8541, Note_off_c, 4, 47, 0
1, 8542, Note_off_c, 6, 59, 0
1, 8544, Note_off_c, 0, 75, 0
1, 8544, Note_on_c, 0, 73, 96
1, 8544, Note_on_c, 6, 58, 96
1, 8554, Note_off_c, 6, 58, 0
1, 8556, Note_off_c, 0, 73, 0
1, 8556, Note_on_c, 0, 71, 96
1, 8556, Note_on_c, 6, 56, 96
1, 8566, Note_off_c, 0, 71, 0
1, 8566, Note_off_c, 6, 56, 0
1, 8568, Note_on_c, 0, 61, 96
1, 8568, Note_on_c, 1, 73, 96
1, 8568, Note_on_c, 2, 61, 96
1, 8568, Note_on_c, 3, 58, 96
1, 8568, Note_on_c, 4, 46, 96
1, 8568, Note_on_c, 6, 46, 96
1, 8571, Note_off_c, 0, 61, 0
1, 8578, Note_off_c, 6, 46, 0
1, 8580, Note_on_c, 0, 73, 96
1, 8580, Note_on_c, 6, 58, 96
1, 8589, Note_off_c, 1, 73, 0
1, 8589, Note_off_c, 2, 61, 0
1, 8589, Note_off_c, 3, 58, 0
1, 8589, Note_off_c, 4, 46, 0
1, 8590, Note_off_c, 6, 58, 0
1, 8592, Note_off_c, 0, 73, 0
1, 8592, Note_on_c, 0, 71, 96
1, 8592, Note_on_c, 6, 56, 96
1, 8602, Note_off_c, 6, 56, 0
1, 8604, Note_off_c, 0, 71, 0
1, 8604, Note_on_c, 0, 70, 96
1, 8604, Note_on_c, 6, 55, 96
1, 8614, Note_off_c, 0, 70, 0
1, 8614, Note_off_c, 6, 55, 0
1, 8616, Note_on_c, 0, 71, 96
1, 8616, Note_on_c, 1, 71, 96
1, 8616, Note_on_c, 2, 63, 96
1, 8616, Note_on_c, 3, 56, 96
1, 8616, Note_on_c, 4, 44, 96
1, 8616, Note_off_c, 5, 68, 0
1, 8616, Note_on_c, 6, 56, 96
1, 8626, Note_off_c, 6, 56, 0
1, 8628, Note_on_c, 5, 71, 96
1, 8628, Note_on_c, 6, 54, 96
1, 8637, Note_off_c, 0, 71, 0
1, 8637, Note_off_c, 1, 71, 0
1, 8637, Note_off_c, 2, 63, 0
1, 8637, Note_off_c, 3, 56, 0
1, 8637, Note_off_c, 4, 44, 0
1, 8638, Note_off_c, 5, 71, 0
1, 8638, Note_off_c, 6, 54, 0
1, 8640, Note_on_c, 0, 80, 80
1, 8640, Note_on_c, 5, 73, 96
1, 8640, Note_on_c, 6, 52, 96
1, 8650, Note_off_c, 5, 73, 0
1, 8650, Note_off_c, 6, 52, 0
1, 8652, Note_on_c, 5, 75, 96
1, 8652, Note_on_c, 6, 51, 96
1, 8661, Note_off_c, 0, 80, 0
1, 8662, Note_off_c, 5, 75, 0
1, 8662, Note_off_c, 6, 51, 0
1, 8664, Note_on_c, 0, 80, 80
1, 8664, Note_on_c, 1, 68, 80
1, 8664, Note_on_c, 2, 61, 80
1, 8664, Note_on_c, 3, 49, 80
1, 8664, Note_on_c, 4, 37, 80
1, 8664, Note_on_c, 5, 76, 96
1, 8664, Note_on_c, 6, 49, 96
1, 8674, Note_off_c, 5, 76, 0
1, 8676, Note_on_c, 5, 79, 96
1, 8685, Note_off_c, 1, 68, 0
1, 8685, Note_off_c, 2, 61, 0
1, 8685, Note_off_c, 3, 49, 0
1, 8685, Note_off_c, 4, 37, 0
1, 8685, Note_off_c, 6, 49, 0
1, 8686, Note_off_c, 5, 79, 0
1, 8688, Note_on_c, 5, 80, 96
1, 8688, Note_on_c, 6, 61, 96
1, 8698, Note_off_c, 5, 80, 0
1, 8700, Note_on_c, 5, 82, 96
1, 8709, Note_off_c, 6, 61, 0
1, 8710, Note_off_c, 5, 82, 0
1, 8712, Note_on_c, 1, 71, 80
1, 8712, Note_on_c, 2, 63, 80
1, 8712, Note_on_c, 3, 47, 80
1, 8712, Note_on_c, 4, 35, 80
1, 8712, Note_on_c, 5, 75, 96
1, 8712, Note_on_c, 6, 59, 96
1, 8722, Note_off_c, 5, 75, 0
1, 8724, Note_on_c, 5, 79, 96
1, 8733, Note_off_c, 1, 71, 0
1, 8733, Note_off_c, 2, 63, 0
1, 8733, Note_off_c, 3, 47, 0
1, 8733, Note_off_c, 4, 35, 0
1, 8733, Note_off_c, 6, 59, 0
1, 8734, Note_off_c, 5, 79, 0
1, 8736, Note_on_c, 5, 80, 96
1, 8736, Note_on_c, 6, 47, 96
1, 8746, Note_off_c, 5, 80, 0
1, 8748, Note_on_c, 5, 82, 96
1, 8757, Note_off_c, 6, 47, 0
1, 8758, Note_off_c, 5, 82, 0
1, 8760, Note_on_c, 1, 73, 80
1, 8760, Note_on_c, 2, 70, 80
1, 8760, Note_on_c, 3, 46, 80
1, 8760, Note_on_c, 4, 34, 80
1, 8760, Note_on_c, 5, 73, 96
1, 8760, Note_on_c, 6, 46, 96
1, 8770, Note_off_c, 5, 73, 0
1, 8772, Note_on_c, 5, 79, 96
1, 8781, Note_off_c, 1, 73, 0
1, 8781, Note_off_c, 2, 70, 0
1, 8781, Note_off_c, 3, 46, 0
1, 8781, Note_off_c, 4, 34, 0
1, 8781, Note_off_c, 6, 46, 0
1, 8782, Note_off_c, 5, 79, 0
1, 8784, Note_on_c, 5, 80, 96
1, 8784, Note_on_c, 6, 58, 96
1, 8794, Note_off_c, 5, 80, 0
1, 8796, Note_on_c, 5, 82, 96
1, 8805, Note_off_c, 6, 58, 0
1, 8806, Note_off_c, 5, 82, 0
1, 8808, Note_on_c, 1, 75, 80
1, 8808, Note_on_c, 2, 71, 80
1, 8808, Note_on_c, 3, 44, 80
1, 8808, Note_on_c, 4, 32, 80
1, 8808, Note_on_c, 5, 71, 96
1, 8808, Note_on_c, 6, 56, 96
1, 8818, Note_off_c, 5, 71, 0
1, 8820, Note_off_c, 0, 80, 0
1, 8820, Note_on_c, 5, 75, 96
1, 8829, Note_off_c, 1, 75, 0
1, 8829, Note_off_c, 2, 71, 0
1, 8829, Note_off_c, 3, 44, 0
1, 8829, Note_off_c, 4, 32, 0
1, 8829, Note_off_c, 6, 56, 0
1, 8830, Note_off_c, 5, 75, 0
1, 8832, Note_on_c, 0, 79, 96
1, 8832, Note_on_c, 1, 73, 96
1, 8832, Note_on_c, 2, 75, 96
1, 8832, Note_on_c, 3, 51, 96
1, 8832, Note_on_c, 4, 39, 96
1, 8832, Note_on_c, 5, 79, 96
1, 8832, Note_on_c, 6, 51, 96
1, 8842, Note_off_c, 5, 79, 0
1, 8844, Note_on_c, 5, 82, 96
1, 8853, Note_off_c, 0, 79, 0
1, 8853, Note_off_c, 1, 73, 0
1, 8853, Note_off_c, 2, 75, 0
1, 8853, Note_off_c, 3, 51, 0
1, 8853, Note_off_c, 4, 39, 0
1, 8853, Note_off_c, 6, 51, 0
1, 8854, Note_off_c, 5, 82, 0
1, 8856, Note_on_c, 0, 80, 96
1, 8856, Note_on_c, 1, 71, 96
1, 8856, Note_on_c, 2, 68, 96
1, 8856, Note_on_c, 3, 52, 96
1, 8856, Note_on_c, 4, 40, 96
1, 8856, Note_on_c, 5, 80, 96
1, 8856, Note_on_c, 6, 52, 96
1, 8866, Note_off_c, 5, 80, 0
1, 8868, Note_on_c, 5, 79, 96
1, 8877, Note_off_c, 1, 71, 0
1, 8877, Note_off_c, 2, 68, 0
1, 8877, Note_off_c, 3, 52, 0
1, 8877, Note_off_c, 4, 40, 0
1, 8877, Note_off_c, 6, 52, 0
1, 8878, Note_off_c, 5, 79, 0
1, 8880, Note_on_c, 1, 80, 96
1, 8880, Note_on_c, 2, 64, 96
1, 8880, Note_on_c, 3, 49, 96
1, 8880, Note_on_c, 4, 37, 96
1, 8880, Note_on_c, 5, 80, 96
1, 8880, Note_on_c, 6, 49, 96
1, 8887, Note_off_c, 0, 80, 0
1, 8890, Note_off_c, 5, 80, 0
1, 8892, Note_on_c, 0, 85, 96
1, 8892, Note_on_c, 5, 85, 96
1, 8901, Note_off_c, 1, 80, 0
1, 8901, Note_off_c, 2, 64, 0
1, 8901, Note_off_c, 3, 49, 0
1, 8901, Note_off_c, 4, 37, 0
1, 8901, Note_off_c, 6, 49, 0
1, 8902, Note_off_c, 0, 85, 0
1, 8902, Note_off_c, 5, 85, 0
1, 8904, Note_on_c, 0, 82, 96
1, 8904, Note_on_c, 1, 80, 96
1, 8904, Note_on_c, 2, 63, 96
1, 8904, Note_on_c, 3, 51, 96
1, 8904, Note_on_c, 4, 39, 96
1, 8904, Note_on_c, 5, 82, 96
1, 8904, Note_on_c, 6, 51, 96
1, 8925, Note_off_c, 1, 80, 0
1, 8925, Note_off_c, 2, 63, 0
1, 8925, Note_off_c, 3, 51, 0
1, 8925, Note_off_c, 4, 39, 0
1, 8925, Note_off_c, 6, 51, 0
1, 8928, Note_on_c, 1, 79, 96
1, 8928, Note_on_c, 2, 70, 96
1, 8928, Note_on_c, 3, 39, 96
1, 8928, Note_on_c, 4, 27, 96
1, 8928, Note_on_c, 6, 39, 96
1, 8935, Note_off_c, 0, 82, 0
1, 8935, Note_off_c, 5, 82, 0
1, 8940, Note_on_c, 0, 80, 96
1, 8940, Note_on_c, 5, 80, 96
1, 8949, Note_off_c, 1, 79, 0
1, 8949, Note_off_c, 2, 70, 0
1, 8949, Note_off_c, 3, 39, 0
1, 8949, Note_off_c, 4, 27, 0
1, 8949, Note_off_c, 6, 39, 0
1, 8950, Note_off_c, 0, 80, 0
1, 8950, Note_off_c, 5, 80, 0
1, 8952, Note_on_c, 0, 80, 96
1, 8952, Note_on_c, 1, 75, 96
1, 8952, Note_on_c, 2, 71, 96
1, 8952, Note_on_c, 3, 44, 96
1, 8952, Note_on_c, 4, 32, 96
1, 8952, Note_on_c, 5, 80, 96
1, 8952, Note_on_c, 6, 44, 96
1, 8994, Note_off_c, 0, 80, 0
1, 8994, Note_off_c, 1, 75, 0
1, 8994, Note_off_c, 2, 71, 0
1, 8994, Note_off_c, 3, 44, 0
1, 8994, Note_off_c, 4, 32, 0
1, 8994, Note_off_c, 5, 80, 0
1, 8994, Note_off_c, 6, 44, 0
1, 9024, Note_on_c, 0, 71, 80
1, 9024, Note_on_c, 1, 64, 80
1, 9024, Note_on_c, 2, 56, 80
1, 9024, Note_on_c, 5, 71, 96
1, 9045, Note_off_c, 0, 71, 0
1, 9045, Note_off_c, 1, 64, 0
1, 9045, Note_off_c, 2, 56, 0
1, 9045, Note_off_c, 5, 71, 0
1, 9048, Note_on_c, 0, 76, 80
1, 9048, Note_on_c, 1, 64, 80
1, 9048, Note_on_c, 2, 56, 80
1, 9048, Note_on_c, 3, 40, 80
1, 9048, Note_on_c, 4, 28, 80
1, 9048, Note_on_c, 5, 68, 96
1, 9058, Note_off_c, 0, 76, 0
1, 9058, Note_off_c, 5, 68, 0
1, 9060, Note_on_c, 0, 75, 80
1, 9060, Note_on_c, 5, 66, 96
1, 9065, Note_off_c, 5, 66, 0
1, 9066, Note_on_c, 5, 64, 96
1, 9069, Note_off_c, 1, 64, 0
1, 9069, Note_off_c, 2, 56, 0
1, 9070, Note_off_c, 0, 75, 0
1, 9071, Note_off_c, 5, 64, 0
1, 9072, Note_on_c, 0, 76, 80
1, 9072, Note_on_c, 1, 68, 80
1, 9072, Note_on_c, 2, 59, 80
1, 9072, Note_on_c, 5, 59, 96
1, 9072, Note_on_c, 6, 52, 96
1, 9082, Note_off_c, 0, 76, 0
1, 9082, Note_off_c, 5, 59, 0
1, 9084, Note_on_c, 0, 80, 80
1, 9084, Note_on_c, 5, 64, 96
1, 9089, Note_off_c, 5, 64, 0
1, 9090, Note_off_c, 3, 40, 0
1, 9090, Note_off_c, 4, 28, 0
1, 9090, Note_on_c, 5, 66, 96
1, 9093, Note_off_c, 1, 68, 0
1, 9093, Note_off_c, 2, 59, 0
1, 9093, Note_off_c, 6, 52, 0
1, 9094, Note_off_c, 0, 80, 0
1, 9095, Note_off_c, 5, 66, 0
1, 9096, Note_on_c, 0, 76, 80
1, 9096, Note_on_c, 1, 68, 80
1, 9096, Note_on_c, 2, 59, 80
1, 9096, Note_on_c, 5, 68, 96
1, 9096, Note_on_c, 6, 40, 96
1, 9106, Note_off_c, 0, 76, 0
1, 9106, Note_off_c, 5, 68, 0
1, 9108, Note_on_c, 0, 71, 80
1, 9108, Note_on_c, 5, 66, 96
1, 9113, Note_off_c, 5, 66, 0
1, 9114, Note_on_c, 5, 64, 96
1, 9117, Note_off_c, 1, 68, 0
1, 9117, Note_off_c, 2, 59, 0
1, 9118, Note_off_c, 0, 71, 0
1, 9119, Note_off_c, 5, 64, 0
1, 9120, Note_on_c, 0, 68, 80
1, 9120, Note_on_c, 1, 71, 80
1, 9120, Note_on_c, 2, 64, 80
1, 9120, Note_on_c, 3, 52, 80
1, 9120, Note_on_c, 4, 40, 80
1, 9120, Note_on_c, 5, 59, 96
1, 9130, Note_off_c, 0, 68, 0
1, 9130, Note_off_c, 5, 59, 0
1, 9132, Note_on_c, 0, 71, 80
1, 9132, Note_on_c, 5, 64, 96
1, 9137, Note_off_c, 5, 64, 0
1, 9138, Note_on_c, 5, 66, 96
1, 9138, Note_off_c, 6, 40, 0
1, 9141, Note_off_c, 1, 71, 0
1, 9141, Note_off_c, 2, 64, 0
1, 9141, Note_off_c, 3, 52, 0
1, 9141, Note_off_c, 4, 40, 0
1, 9142, Note_off_c, 0, 71, 0
1, 9143, Note_off_c, 5, 66, 0
1, 9144, Note_on_c, 0, 64, 80
1, 9144, Note_on_c, 1, 71, 80
1, 9144, Note_on_c, 2, 64, 80
1, 9144, Note_on_c, 3, 40, 80
1, 9144, Note_on_c, 4, 28, 80
1, 9144, Note_on_c, 5, 68, 96
1, 9154, Note_off_c, 0, 64, 0
1, 9154, Note_off_c, 5, 68, 0
1, 9156, Note_on_c, 0, 71, 80
1, 9156, Note_on_c, 5, 66, 96
1, 9161, Note_off_c, 5, 66, 0
1, 9162, Note_on_c, 5, 64, 96
1, 9165, Note_off_c, 1, 71, 0
1, 9165, Note_off_c, 2, 64, 0
1, 9166, Note_off_c, 0, 71, 0
1, 9167, Note_off_c, 5, 64, 0
1, 9168, Note_on_c, 0, 68, 80
1, 9168, Note_on_c, 1, 76, 80
1, 9168, Note_on_c, 2, 68, 80
1, 9168, Note_on_c, 5, 71, 96
1, 9168, Note_on_c, 6, 52, 96
1, 9178, Note_off_c, 0, 68, 0
1, 9178, Note_off_c, 5, 71, 0
1, 9180, Note_on_c, 0, 71, 80
1, 9180, Note_on_c, 5, 69, 96
1, 9185, Note_off_c, 5, 69, 0
1, 9186, Note_off_c, 3, 40, 0
1, 9186, Note_off_c, 4, 28, 0
1, 9186, Note_on_c, 5, 68, 96
1, 9189, Note_off_c, 1, 76, 0
1, 9189, Note_off_c, 2, 68, 0
1, 9189, Note_off_c, 6, 52, 0
1, 9190, Note_off_c, 0, 71, 0
1, 9191, Note_off_c, 5, 68, 0
1, 9192, Note_on_c, 0, 64, 80
1, 9192, Note_on_c, 1, 76, 80
1, 9192, Note_on_c, 2, 68, 80
1, 9192, Note_on_c, 5, 76, 96
1, 9192, Note_on_c, 6, 40, 96
1, 9202, Note_off_c, 0, 64, 0
1, 9202, Note_off_c, 5, 76, 0
1, 9204, Note_on_c, 0, 71, 80
1, 9204, Note_on_c, 5, 71, 96
1, 9213, Note_off_c, 1, 76, 0
1, 9213, Note_off_c, 2, 68, 0
1, 9214, Note_off_c, 0, 71, 0
1, 9214, Note_off_c, 5, 71, 0
1, 9216, Note_on_c, 0, 68, 80
1, 9216, Note_on_c, 3, 52, 80
1, 9216, Note_on_c, 4, 40, 80
1, 9216, Note_on_c, 5, 76, 96
1, 9226, Note_off_c, 0, 68, 0
1, 9226, Note_off_c, 5, 76, 0
1, 9228, Note_on_c, 0, 71, 80
1, 9228, Note_on_c, 5, 78, 96
1, 9234, Note_off_c, 6, 40, 0
1, 9237, Note_off_c, 3, 52, 0
1, 9237, Note_off_c, 4, 40, 0
1, 9238, Note_off_c, 0, 71, 0
1, 9238, Note_off_c, 5, 78, 0
1, 9240, Note_on_c, 0, 76, 80
1, 9240, Note_on_c, 3, 40, 80
1, 9240, Note_on_c, 4, 28, 80
1, 9240, Note_on_c, 5, 80, 96
1, 9250, Note_off_c, 0, 76, 0
1, 9250, Note_off_c, 5, 80, 0
1, 9252, Note_on_c, 0, 75, 80
1, 9252, Note_on_c, 5, 78, 96
1, 9262, Note_off_c, 0, 75, 0
1, 9262, Note_off_c, 5, 78, 0
1, 9264, Note_on_c, 0, 76, 80
1, 9264, Note_on_c, 5, 80, 96
1, 9264, Note_on_c, 6, 52, 96
1, 9274, Note_off_c, 0, 76, 0
1, 9274, Note_off_c, 5, 80, 0
1, 9276, Note_on_c, 0, 80, 80
1, 9276, Note_on_c, 5, 83, 96
1, 9282, Note_off_c, 3, 40, 0
1, 9282, Note_off_c, 4, 28, 0
1, 9285, Note_off_c, 6, 52, 0
1, 9286, Note_off_c, 0, 80, 0
1, 9286, Note_off_c, 5, 83, 0
1, 9288, Note_on_c, 0, 76, 80
1, 9288, Note_on_c, 5, 80, 96
1, 9288, Note_on_c, 6, 40, 96
1, 9298, Note_off_c, 0, 76, 0
1, 9298, Note_off_c, 5, 80, 0
1, 9300, Note_on_c, 0, 71, 80
1, 9300, Note_on_c, 5, 76, 96
1, 9310, Note_off_c, 0, 71, 0
1, 9310, Note_off_c, 5, 76, 0
1, 9312, Note_on_c, 0, 68, 80
1, 9312, Note_on_c, 3, 52, 80
1, 9312, Note_on_c, 4, 40, 80
1, 9312, Note_on_c, 5, 71, 96
1, 9322, Note_off_c, 0, 68, 0
1, 9322, Note_off_c, 5, 71, 0
1, 9324, Note_on_c, 0, 71, 80
1, 9324, Note_on_c, 5, 76, 96
1, 9330, Note_off_c, 6, 40, 0
1, 9333, Note_off_c, 3, 52, 0
1, 9333, Note_off_c, 4, 40, 0
1, 9334, Note_off_c, 0, 71, 0
1, 9334, Note_off_c, 5, 76, 0
1, 9336, Note_on_c, 0, 64, 80
1, 9336, Note_on_c, 3, 40, 80
1, 9336, Note_on_c, 4, 28, 80
1, 9336, Note_on_c, 5, 68, 96
1, 9346, Note_off_c, 0, 64, 0
1, 9346, Note_off_c, 5, 68, 0
1, 9348, Note_on_c, 0, 71, 80
1, 9348, Note_on_c, 5, 76, 96
1, 9357, Note_off_c, 3, 40, 0
1, 9357, Note_off_c, 4, 28, 0
1, 9358, Note_off_c, 0, 71, 0
1, 9358, Note_off_c, 5, 76, 0
1, 9360, Note_on_c, 0, 68, 80
1, 9360, Note_on_c, 3, 52, 80
1, 9360, Note_on_c, 4, 40, 80
1, 9360, Note_on_c, 5, 71, 96
1, 9360, Note_on_c, 6, 40, 96
1, 9370, Note_off_c, 0, 68, 0
1, 9370, Note_off_c, 5, 71, 0
1, 9372, Note_on_c, 0, 71, 80
1, 9372, Note_on_c, 5, 68, 96
1, 9381, Note_off_c, 3, 52, 0
1, 9381, Note_off_c, 4, 40, 0
1, 9381, Note_off_c, 6, 40, 0
1, 9382, Note_off_c, 0, 71, 0
1, 9382, Note_off_c, 5, 68, 0
1, 9384, Note_on_c, 0, 76, 80
1, 9384, Note_on_c, 3, 56, 80
1, 9384, Note_on_c, 4, 44, 80
1, 9384, Note_on_c, 5, 64, 96
1, 9384, Note_on_c, 6, 44, 96
1, 9394, Note_off_c, 0, 76, 0
1, 9396, Note_on_c, 0, 71, 80
1, 9405, Note_off_c, 3, 56, 0
1, 9405, Note_off_c, 4, 44, 0
1, 9405, Note_off_c, 5, 64, 0
1, 9405, Note_off_c, 6, 44, 0
1, 9406, Note_off_c, 0, 71, 0
1, 9408, Note_on_c, 0, 78, 96
1, 9408, Note_on_c, 1, 75, 96
1, 9408, Note_on_c, 2, 71, 96
1, 9408, Note_on_c, 3, 59, 96
1, 9408, Note_on_c, 4, 47, 96
1, 9408, Note_on_c, 5, 80, 96
1, 9408, Note_on_c, 6, 47, 96
1, 9414, Note_off_c, 5, 80, 0
1, 9414, Note_on_c, 5, 78, 96
1, 9418, Note_off_c, 0, 78, 0
1, 9420, Note_on_c, 0, 71, 96
1, 9420, Note_off_c, 5, 78, 0
1, 9420, Note_on_c, 5, 76, 96
1, 9426, Note_off_c, 5, 76, 0
1, 9426, Note_on_c, 5, 78, 96
1, 9429, Note_off_c, 1, 75, 0
1, 9429, Note_off_c, 2, 71, 0
1, 9429, Note_off_c, 3, 59, 0
1, 9429, Note_off_c, 4, 47, 0
1, 9429, Note_off_c, 6, 47, 0
1, 9430, Note_off_c, 0, 71, 0
1, 9431, Note_off_c, 5, 78, 0
1, 9432, Note_on_c, 0, 80, 96
1, 9432, Note_on_c, 1, 76, 96
1, 9432, Note_on_c, 2, 71, 96
1, 9432, Note_on_c, 3, 64, 96
1, 9432, Note_on_c, 4, 52, 96
1, 9432, Note_on_c, 5, 80, 96
1, 9432, Note_on_c, 6, 52, 96
1, 9438, Note_off_c, 5, 80, 0
1, 9453, Note_off_c, 0, 80, 0
1, 9453, Note_off_c, 1, 76, 0
1, 9453, Note_off_c, 2, 71, 0
1, 9453, Note_off_c, 3, 64, 0
1, 9453, Note_off_c, 4, 52, 0
1, 9453, Note_off_c, 6, 52, 0
1, 9456, Note_on_c, 0, 78, 96
1, 9456, Note_on_c, 1, 78, 96
1, 9456, Note_on_c, 2, 71, 96
1, 9456, Note_on_c, 3, 63, 96
1, 9456, Note_on_c, 4, 51, 96
1, 9456, Note_on_c, 5, 78, 96
1, 9456, Note_on_c, 6, 51, 96
1, 9462, Note_off_c, 5, 78, 0
1, 9477, Note_off_c, 0, 78, 0
1, 9477, Note_off_c, 1, 78, 0
1, 9477, Note_off_c, 2, 71, 0
1, 9477, Note_off_c, 3, 63, 0
1, 9477, Note_off_c, 4, 51, 0
1, 9477, Note_off_c, 6, 51, 0
1, 9480, Note_on_c, 0, 81, 96
1, 9480, Note_on_c, 1, 76, 96
1, 9480, Note_on_c, 2, 64, 96
1, 9480, Note_on_c, 3, 61, 96
1, 9480, Note_on_c, 4, 49, 96
1, 9480, Note_on_c, 5, 81, 96
1, 9480, Note_on_c, 6, 49, 96
1, 9486, Note_off_c, 5, 81, 0
1, 9501, Note_off_c, 0, 81, 0
1, 9501, Note_off_c, 1, 76, 0
1, 9501, Note_off_c, 2, 64, 0
1, 9501, Note_off_c, 3, 61, 0
1, 9501, Note_off_c, 4, 49, 0
1, 9501, Note_off_c, 6, 49, 0
1, 9504, Note_on_c, 0, 80, 96
1, 9504, Note_on_c, 1, 76, 96
1, 9504, Note_on_c, 2, 68, 96
1, 9504, Note_on_c, 3, 59, 96
1, 9504, Note_on_c, 4, 47, 96
1, 9504, Note_on_c, 5, 80, 96
1, 9504, Note_on_c, 6, 47, 96
1, 9510, Note_off_c, 5, 80, 0
1, 9525, Note_off_c, 0, 80, 0
1, 9525, Note_off_c, 1, 76, 0
1, 9525, Note_off_c, 2, 68, 0
1, 9525, Note_off_c, 3, 59, 0
1, 9525, Note_off_c, 4, 47, 0
1, 9525, Note_off_c, 6, 47, 0
1, 9528, Note_on_c, 0, 78, 96
1, 9528, Note_on_c, 1, 75, 96
1, 9528, Note_on_c, 2, 71, 96
1, 9528, Note_on_c, 3, 57, 96
1, 9528, Note_on_c, 4, 45, 96
1, 9528, Note_on_c, 5, 78, 96
1, 9528, Note_on_c, 6, 45, 96
1, 9534, Note_off_c, 5, 78, 0
1, 9534, Note_on_c, 5, 80, 96
1, 9540, Note_off_c, 5, 80, 0
1, 9540, Note_on_c, 5, 78, 96
1, 9549, Note_off_c, 0, 78, 0
1, 9549, Note_off_c, 1, 75, 0
1, 9549, Note_off_c, 2, 71, 0
1, 9549, Note_off_c, 3, 57, 0
1, 9549, Note_off_c, 4, 45, 0
1, 9549, Note_off_c, 6, 45, 0
1, 9550, Note_off_c, 5, 78, 0
1, 9552, Note_on_c, 0, 76, 96
1, 9552, Note_on_c, 1, 76, 96
1, 9552, Note_on_c, 2, 71, 96
1, 9552, Note_on_c, 3, 56, 96
1, 9552, Note_on_c, 4, 44, 96
1, 9552, Note_on_c, 5, 76, 96
1, 9552, Note_on_c, 6, 44, 96
1, 9573, Note_off_c, 0, 76, 0
1, 9573, Note_off_c, 1, 76, 0
1, 9573, Note_off_c, 2, 71, 0
1, 9573, Note_off_c, 3, 56, 0
1, 9573, Note_off_c, 4, 44, 0
1, 9573, Note_off_c, 5, 76, 0
1, 9573, Note_off_c, 6, 44, 0
1, 9576, Note_on_c, 5, 83, 96
1, 9588, Note_on_c, 3, 56, 80
1, 9588, Note_on_c, 4, 44, 80
1, 9588, Note_on_c, 6, 56, 96
1, 9598, Note_off_c, 3, 56, 0
1, 9598, Note_off_c, 4, 44, 0
1, 9598, Note_off_c, 6, 56, 0
1, 9600, Note_on_c, 0, 83, 80
1, 9600, Note_on_c, 1, 78, 80
1, 9600, Note_on_c, 2, 63, 80
1, 9600, Note_on_c, 3, 57, 80
1, 9600, Note_on_c, 4, 45, 80
1, 9600, Note_on_c, 6, 57, 96
1, 9610, Note_off_c, 3, 57, 0
1, 9610, Note_off_c, 4, 45, 0
1, 9610, Note_off_c, 6, 57, 0
1, 9612, Note_on_c, 3, 59, 80
1, 9612, Note_on_c, 4, 47, 80
1, 9612, Note_on_c, 6, 59, 96
1, 9621, Note_off_c, 0, 83, 0
1, 9621, Note_off_c, 1, 78, 0
1, 9621, Note_off_c, 2, 63, 0
1, 9622, Note_off_c, 3, 59, 0
1, 9622, Note_off_c, 4, 47, 0
1, 9622, Note_off_c, 6, 59, 0
1, 9624, Note_on_c, 0, 83, 80
1, 9624, Note_on_c, 1, 80, 80
1, 9624, Note_on_c, 2, 64, 80
1, 9624, Note_on_c, 3, 52, 80
1, 9624, Note_on_c, 4, 40, 80
1, 9624, Note_on_c, 6, 52, 96
1, 9628, Note_off_c, 5, 83, 0
1, 9636, Note_on_c, 5, 74, 96
1, 9645, Note_off_c, 0, 83, 0
1, 9645, Note_off_c, 1, 80, 0
1, 9645, Note_off_c, 2, 64, 0
1, 9645, Note_off_c, 3, 52, 0
1, 9645, Note_off_c, 4, 40, 0
1, 9645, Note_off_c, 6, 52, 0
1, 9646, Note_off_c, 5, 74, 0
1, 9648, Note_on_c, 0, 80, 80
1, 9648, Note_on_c, 1, 76, 80
1, 9648, Note_on_c, 2, 71, 80
1, 9648, Note_on_c, 3, 64, 80
1, 9648, Note_on_c, 4, 52, 80
1, 9648, Note_on_c, 5, 73, 96
1, 9648, Note_on_c, 6, 64, 96
1, 9658, Note_off_c, 5, 73, 0
1, 9660, Note_on_c, 5, 74, 96
1, 9669, Note_off_c, 0, 80, 0
1, 9669, Note_off_c, 1, 76, 0
1, 9669, Note_off_c, 2, 71, 0
1, 9669, Note_off_c, 3, 64, 0
1, 9669, Note_off_c, 4, 52, 0
1, 9669, Note_off_c, 6, 64, 0
1, 9670, Note_off_c, 5, 74, 0
1, 9672, Note_on_c, 0, 80, 80
1, 9672, Note_on_c, 1, 76, 80
1, 9672, Note_on_c, 2, 71, 80
1, 9672, Note_on_c, 5, 76, 96
1, 9684, Note_on_c, 3, 52, 80
1, 9684, Note_on_c, 4, 40, 80
1, 9684, Note_on_c, 6, 52, 96
1, 9693, Note_off_c, 0, 80, 0
1, 9693, Note_off_c, 1, 76, 0
1, 9693, Note_off_c, 2, 71, 0
1, 9693, Note_off_c, 5, 76, 0
1, 9694, Note_off_c, 3, 52, 0
1, 9694, Note_off_c, 4, 40, 0
1, 9694, Note_off_c, 6, 52, 0
1, 9696, Note_on_c, 0, 76, 80
1, 9696, Note_on_c, 1, 71, 80
1, 9696, Note_on_c, 2, 68, 80
1, 9696, Note_on_c, 3, 54, 80
1, 9696, Note_on_c, 4, 42, 80
1, 9696, Note_on_c, 5, 74, 96
1, 9696, Note_on_c, 6, 54, 96
1, 9706, Note_off_c, 3, 54, 0
1, 9706, Note_off_c, 4, 42, 0
1, 9706, Note_off_c, 6, 54, 0
1, 9708, Note_on_c, 3, 56, 80
1, 9708, Note_on_c, 4, 44, 80
1, 9708, Note_on_c, 6, 56, 96
1, 9717, Note_off_c, 0, 76, 0
1, 9717, Note_off_c, 1, 71, 0
1, 9717, Note_off_c, 2, 68, 0
1, 9717, Note_off_c, 5, 74, 0
1, 9718, Note_off_c, 3, 56, 0
1, 9718, Note_off_c, 4, 44, 0
1, 9718, Note_off_c, 6, 56, 0
1, 9720, Note_on_c, 0, 76, 80
1, 9720, Note_on_c, 1, 73, 80
1, 9720, Note_on_c, 2, 64, 80
1, 9720, Note_on_c, 3, 57, 80
1, 9720, Note_on_c, 4, 45, 80
1, 9720, Note_on_c, 5, 73, 96
1, 9720, Note_on_c, 6, 57, 96
1, 9730, Note_off_c, 0, 76, 0
1, 9730, Note_off_c, 5, 73, 0
1, 9732, Note_on_c, 0, 74, 80
1, 9732, Note_on_c, 5, 71, 96
1, 9741, Note_off_c, 3, 57, 0
1, 9741, Note_off_c, 4, 45, 0
1, 9741, Note_off_c, 6, 57, 0
1, 9742, Note_off_c, 0, 74, 0
1, 9742, Note_off_c, 5, 71, 0
1, 9744, Note_on_c, 0, 73, 80
1, 9744, Note_on_c, 3, 45, 80
1, 9744, Note_on_c, 4, 33, 80
1, 9744, Note_on_c, 5, 69, 96
1, 9744, Note_on_c, 6, 45, 96
1, 9754, Note_off_c, 0, 73, 0
1, 9754, Note_off_c, 5, 69, 0
1, 9756, Note_on_c, 0, 71, 80
1, 9756, Note_on_c, 5, 73, 96
1, 9762, Note_off_c, 1, 73, 0
1, 9762, Note_off_c, 2, 64, 0
1, 9765, Note_off_c, 3, 45, 0
1, 9765, Note_off_c, 4, 33, 0
1, 9765, Note_off_c, 6, 45, 0
1, 9766, Note_off_c, 0, 71, 0
1, 9766, Note_off_c, 5, 73, 0
1, 9768, Note_on_c, 0, 69, 80
1, 9768, Note_on_c, 5, 78, 96
1, 9780, Note_on_c, 3, 54, 80
1, 9780, Note_on_c, 4, 42, 80
1, 9780, Note_on_c, 6, 54, 96
1, 9789, Note_off_c, 0, 69, 0
1, 9790, Note_off_c, 3, 54, 0
1, 9790, Note_off_c, 4, 42, 0
1, 9790, Note_off_c, 6, 54, 0
1, 9792, Note_on_c, 0, 78, 80
1, 9792, Note_on_c, 1, 73, 80
1, 9792, Note_on_c, 2, 69, 80
1, 9792, Note_on_c, 3, 56, 80
1, 9792, Note_on_c, 4, 44, 80
1, 9792, Note_on_c, 6, 56, 96
1, 9802, Note_off_c, 3, 56, 0
1, 9802, Note_off_c, 4, 44, 0
1, 9802, Note_off_c, 6, 56, 0
1, 9804, Note_on_c, 3, 57, 80
1, 9804, Note_on_c, 4, 45, 80
1, 9804, Note_on_c, 6, 57, 96
1, 9813, Note_off_c, 0, 78, 0
1, 9813, Note_off_c, 1, 73, 0
1, 9813, Note_off_c, 2, 69, 0
1, 9814, Note_off_c, 3, 57, 0
1, 9814, Note_off_c, 4, 45, 0
1, 9814, Note_off_c, 6, 57, 0
1, 9816, Note_on_c, 0, 78, 80
1, 9816, Note_on_c, 1, 71, 80
1, 9816, Note_on_c, 2, 66, 80
1, 9816, Note_on_c, 3, 51, 80
1, 9816, Note_on_c, 4, 39, 80
1, 9816, Note_on_c, 6, 51, 96
1, 9820, Note_off_c, 5, 78, 0
1, 9828, Note_on_c, 5, 69, 96
1, 9837, Note_off_c, 0, 78, 0
1, 9837, Note_off_c, 1, 71, 0
1, 9837, Note_off_c, 2, 66, 0
1, 9837, Note_off_c, 3, 51, 0
1, 9837, Note_off_c, 4, 39, 0
1, 9837, Note_off_c, 6, 51, 0
1, 9838, Note_off_c, 5, 69, 0
1, 9840, Note_on_c, 0, 75, 80
1, 9840, Note_on_c, 1, 71, 80
1, 9840, Note_on_c, 2, 66, 80
1, 9840, Note_on_c, 3, 59, 80
1, 9840, Note_on_c, 4, 47, 80
1, 9840, Note_on_c, 5, 68, 96
1, 9840, Note_on_c, 6, 59, 96
1, 9850, Note_off_c, 5, 68, 0
1, 9852, Note_on_c, 5, 69, 96
1, 9861, Note_off_c, 0, 75, 0
1, 9861, Note_off_c, 1, 71, 0
1, 9861, Note_off_c, 2, 66, 0
1, 9861, Note_off_c, 3, 59, 0
1, 9861, Note_off_c, 4, 47, 0
1, 9861, Note_off_c, 6, 59, 0
1, 9862, Note_off_c, 5, 69, 0
1, 9864, Note_on_c, 0, 75, 80
1, 9864, Note_on_c, 1, 71, 80
1, 9864, Note_on_c, 2, 66, 80
1, 9864, Note_on_c, 5, 71, 96
1, 9876, Note_on_c, 3, 47, 80
1, 9876, Note_on_c, 4, 35, 80
1, 9876, Note_on_c, 6, 47, 96
1, 9885, Note_off_c, 0, 75, 0
1, 9885, Note_off_c, 1, 71, 0
1, 9885, Note_off_c, 2, 66, 0
1, 9885, Note_off_c, 5, 71, 0
1, 9886, Note_off_c, 3, 47, 0
1, 9886, Note_off_c, 4, 35, 0
1, 9886, Note_off_c, 6, 47, 0
1, 9888, Note_on_c, 0, 71, 80
1, 9888, Note_on_c, 1, 66, 80
1, 9888, Note_on_c, 2, 63, 80
1, 9888, Note_on_c, 3, 49, 80
1, 9888, Note_on_c, 4, 37, 80
1, 9888, Note_on_c, 5, 69, 96
1, 9888, Note_on_c, 6, 49, 96
1, 9898, Note_off_c, 3, 49, 0
1, 9898, Note_off_c, 4, 37, 0
1, 9898, Note_off_c, 6, 49, 0
1, 9900, Note_on_c, 3, 51, 80
1, 9900, Note_on_c, 4, 39, 80
1, 9900, Note_on_c, 6, 51, 96
1, 9909, Note_off_c, 0, 71, 0
1, 9909, Note_off_c, 1, 66, 0
1, 9909, Note_off_c, 2, 63, 0
1, 9909, Note_off_c, 5, 69, 0
1, 9910, Note_off_c, 3, 51, 0
1, 9910, Note_off_c, 4, 39, 0
1, 9910, Note_off_c, 6, 51, 0
1, 9912, Note_on_c, 0, 71, 80
1, 9912, Note_on_c, 1, 68, 80
1, 9912, Note_on_c, 2, 59, 80
1, 9912, Note_on_c, 3, 52, 80
1, 9912, Note_on_c, 4, 40, 80
1, 9912, Note_on_c, 5, 68, 96
1, 9912, Note_on_c, 6, 52, 96
1, 9922, Note_off_c, 0, 71, 0
1, 9922, Note_off_c, 5, 68, 0
1, 9924, Note_on_c, 0, 69, 80
1, 9924, Note_on_c, 5, 71, 96
1, 9933, Note_off_c, 3, 52, 0
1, 9933, Note_off_c, 4, 40, 0
1, 9933, Note_off_c, 6, 52, 0
1, 9934, Note_off_c, 0, 69, 0
1, 9934, Note_off_c, 5, 71, 0
1, 9936, Note_on_c, 0, 68, 80
1, 9936, Note_on_c, 3, 40, 80
1, 9936, Note_on_c, 4, 28, 80
1, 9936, Note_on_c, 5, 76, 96
1, 9936, Note_on_c, 6, 40, 96
1, 9946, Note_off_c, 0, 68, 0
1, 9946, Note_off_c, 5, 76, 0
1, 9948, Note_on_c, 0, 66, 80
1, 9948, Note_on_c, 5, 78, 96
1, 9954, Note_off_c, 1, 68, 0
1, 9954, Note_off_c, 2, 59, 0
1, 9957, Note_off_c, 3, 40, 0
1, 9957, Note_off_c, 4, 28, 0
1, 9957, Note_off_c, 6, 40, 0
1, 9958, Note_off_c, 0, 66, 0
1, 9958, Note_off_c, 5, 78, 0
1, 9960, Note_on_c, 0, 64, 80
1, 9960, Note_on_c, 5, 80, 96
1, 9972, Note_on_c, 1, 76, 80
1, 9972, Note_on_c, 3, 52, 80
1, 9972, Note_on_c, 4, 40, 80
1, 9972, Note_on_c, 6, 52, 96
1, 9981, Note_off_c, 0, 64, 0
1, 9982, Note_off_c, 1, 76, 0
1, 9982, Note_off_c, 3, 52, 0
1, 9982, Note_off_c, 4, 40, 0
1, 9982, Note_off_c, 6, 52, 0
1, 9984, Note_on_c, 0, 71, 80
1, 9984, Note_on_c, 1, 75, 80
1, 9984, Note_on_c, 3, 54, 80
1, 9984, Note_on_c, 4, 42, 80
1, 9984, Note_on_c, 6, 54, 96
1, 9994, Note_off_c, 1, 75, 0
1, 9994, Note_off_c, 3, 54, 0
1, 9994, Note_off_c, 4, 42, 0
1, 9994, Note_off_c, 6, 54, 0
1, 9996, Note_on_c, 1, 76, 80
1, 9996, Note_on_c, 3, 56, 80
1, 9996, Note_on_c, 4, 44, 80
1, 9996, Note_on_c, 6, 56, 96
1, 10005, Note_off_c, 0, 71, 0
1, 10006, Note_off_c, 1, 76, 0
1, 10006, Note_off_c, 3, 56, 0
1, 10006, Note_off_c, 4, 44, 0
1, 10006, Note_off_c, 6, 56, 0
1, 10008, Note_on_c, 0, 73, 80
1, 10008, Note_on_c, 1, 73, 80
1, 10008, Note_on_c, 3, 57, 80
1, 10008, Note_on_c, 4, 45, 80
1, 10008, Note_on_c, 6, 57, 96
1, 10012, Note_off_c, 5, 80, 0
1, 10018, Note_off_c, 0, 73, 0
1, 10020, Note_on_c, 0, 76, 80
1, 10020, Note_on_c, 2, 61, 80
1, 10020, Note_on_c, 5, 76, 96
1, 10029, Note_off_c, 3, 57, 0
1, 10029, Note_off_c, 4, 45, 0
1, 10029, Note_off_c, 6, 57, 0
1, 10030, Note_off_c, 0, 76, 0
1, 10030, Note_off_c, 2, 61, 0
1, 10030, Note_off_c, 5, 76, 0
1, 10032, Note_on_c, 0, 78, 80
1, 10032, Note_on_c, 2, 63, 80
1, 10032, Note_on_c, 3, 45, 80
1, 10032, Note_on_c, 4, 33, 80
1, 10032, Note_on_c, 5, 75, 96
1, 10032, Note_on_c, 6, 45, 96
1, 10036, Note_off_c, 5, 75, 0
1, 10036, Note_on_c, 5, 76, 96
1, 10040, Note_off_c, 5, 76, 0
1, 10040, Note_on_c, 5, 75, 96
1, 10042, Note_off_c, 0, 78, 0
1, 10042, Note_off_c, 2, 63, 0
1, 10043, Note_off_c, 5, 75, 0
1, 10044, Note_on_c, 0, 80, 80
1, 10044, Note_on_c, 2, 64, 80
1, 10044, Note_on_c, 5, 73, 96
1, 10053, Note_off_c, 3, 45, 0
1, 10053, Note_off_c, 4, 33, 0
1, 10053, Note_off_c, 6, 45, 0
1, 10054, Note_off_c, 0, 80, 0
1, 10054, Note_off_c, 2, 64, 0
1, 10054, Note_off_c, 5, 73, 0
1, 10056, Note_on_c, 0, 81, 80
1, 10056, Note_on_c, 2, 66, 80
1, 10056, Note_on_c, 5, 81, 96
1, 10060, Note_off_c, 1, 73, 0
1, 10068, Note_on_c, 1, 69, 80
1, 10068, Note_on_c, 3, 54, 80
1, 10068, Note_on_c, 4, 42, 80
1, 10068, Note_on_c, 6, 54, 96
1, 10077, Note_off_c, 0, 81, 0
1, 10078, Note_off_c, 1, 69, 0
1, 10078, Note_off_c, 3, 54, 0
1, 10078, Note_off_c, 4, 42, 0
1, 10078, Note_off_c, 6, 54, 0
1, 10080, Note_on_c, 0, 78, 80
1, 10080, Note_on_c, 1, 71, 80
1, 10080, Note_on_c, 3, 56, 80
1, 10080, Note_on_c, 4, 44, 80
1, 10080, Note_on_c, 6, 56, 96
1, 10090, Note_off_c, 1, 71, 0
1, 10090, Note_off_c, 3, 56, 0
1, 10090, Note_off_c, 4, 44, 0
1, 10090, Note_off_c, 6, 56, 0
1, 10092, Note_on_c, 1, 73, 80
1, 10092, Note_on_c, 3, 57, 80
1, 10092, Note_on_c, 4, 45, 80
1, 10092, Note_on_c, 6, 57, 96
1, 10101, Note_off_c, 0, 78, 0
1, 10102, Note_off_c, 1, 73, 0
1, 10102, Note_off_c, 3, 57, 0
1, 10102, Note_off_c, 4, 45, 0
1, 10102, Note_off_c, 6, 57, 0
1, 10103, Note_off_c, 5, 81, 0
1, 10104, Note_on_c, 0, 75, 80
1, 10104, Note_on_c, 1, 75, 80
1, 10104, Note_on_c, 3, 59, 80
1, 10104, Note_on_c, 4, 47, 80
1, 10104, Note_on_c, 6, 59, 96
1, 10108, Note_off_c, 2, 66, 0
1, 10110, Note_on_c, 5, 76, 96
1, 10114, Note_off_c, 0, 75, 0
1, 10115, Note_off_c, 5, 76, 0
1, 10116, Note_on_c, 0, 78, 80
1, 10116, Note_on_c, 2, 63, 80
1, 10116, Note_on_c, 5, 75, 96
1, 10121, Note_off_c, 5, 75, 0
1, 10122, Note_on_c, 5, 73, 96
1, 10125, Note_off_c, 3, 59, 0
1, 10125, Note_off_c, 4, 47, 0
1, 10125, Note_off_c, 6, 59, 0
1, 10126, Note_off_c, 0, 78, 0
1, 10126, Note_off_c, 2, 63, 0
1, 10127, Note_off_c, 5, 73, 0
1, 10128, Note_on_c, 0, 80, 80
1, 10128, Note_on_c, 2, 64, 80
1, 10128, Note_on_c, 3, 47, 80
1, 10128, Note_on_c, 4, 35, 80
1, 10128, Note_on_c, 5, 75, 96
1, 10128, Note_on_c, 6, 47, 96
1, 10138, Note_off_c, 0, 80, 0
1, 10138, Note_off_c, 2, 64, 0
1, 10138, Note_off_c, 5, 75, 0
1, 10140, Note_on_c, 0, 81, 80
1, 10140, Note_on_c, 2, 66, 80
1, 10140, Note_on_c, 5, 78, 96
1, 10149, Note_off_c, 3, 47, 0
1, 10149, Note_off_c, 4, 35, 0
1, 10149, Note_off_c, 6, 47, 0
1, 10150, Note_off_c, 0, 81, 0
1, 10150, Note_off_c, 2, 66, 0
1, 10150, Note_off_c, 5, 78, 0
1, 10152, Note_on_c, 0, 83, 80
1, 10152, Note_on_c, 2, 68, 80
1, 10152, Note_on_c, 5, 83, 96
1, 10156, Note_off_c, 1, 75, 0
1, 10164, Note_on_c, 1, 71, 80
1, 10164, Note_on_c, 3, 56, 80
1, 10164, Note_on_c, 4, 44, 80
1, 10164, Note_on_c, 6, 56, 96
1, 10173, Note_off_c, 0, 83, 0
1, 10174, Note_off_c, 1, 71, 0
1, 10174, Note_off_c, 3, 56, 0
1, 10174, Note_off_c, 4, 44, 0
1, 10174, Note_off_c, 6, 56, 0
1, 10176, Note_on_c, 0, 80, 80
1, 10176, Note_on_c, 1, 73, 80
1, 10176, Note_on_c, 3, 57, 80
1, 10176, Note_on_c, 4, 45, 80
1, 10176, Note_on_c, 6, 57, 96
1, 10186, Note_off_c, 1, 73, 0
1, 10186, Note_off_c, 3, 57, 0
1, 10186, Note_off_c, 4, 45, 0
1, 10186, Note_off_c, 6, 57, 0
1, 10188, Note_on_c, 1, 75, 80
1, 10188, Note_on_c, 3, 59, 80
1, 10188, Note_on_c, 4, 47, 80
1, 10188, Note_on_c, 6, 59, 96
1, 10197, Note_off_c, 0, 80, 0
1, 10198, Note_off_c, 1, 75, 0
1, 10198, Note_off_c, 3, 59, 0
1, 10198, Note_off_c, 4, 47, 0
1, 10198, Note_off_c, 6, 59, 0
1, 10200, Note_on_c, 0, 76, 80
1, 10200, Note_on_c, 1, 76, 80
1, 10200, Note_on_c, 3, 61, 80
1, 10200, Note_on_c, 4, 49, 80
1, 10200, Note_on_c, 6, 61, 96
1, 10204, Note_off_c, 5, 83, 0
1, 10212, Note_on_c, 5, 81, 96
1, 10215, Note_off_c, 2, 68, 0
1, 10221, Note_off_c, 0, 76, 0
1, 10221, Note_off_c, 1, 76, 0
1, 10221, Note_off_c, 3, 61, 0
1, 10221, Note_off_c, 4, 49, 0
1, 10221, Note_off_c, 6, 61, 0
1, 10222, Note_off_c, 5, 81, 0
1, 10224, Note_on_c, 0, 75, 80
1, 10224, Note_on_c, 1, 80, 80
1, 10224, Note_on_c, 2, 68, 80
1, 10224, Note_on_c, 3, 59, 80
1, 10224, Note_on_c, 4, 47, 80
1, 10224, Note_on_c, 5, 80, 96
1, 10224, Note_on_c, 6, 59, 96
1, 10234, Note_off_c, 5, 80, 0
1, 10236, Note_on_c, 5, 78, 96
1, 10245, Note_off_c, 0, 75, 0
1, 10245, Note_off_c, 1, 80, 0
1, 10245, Note_off_c, 2, 68, 0
1, 10245, Note_off_c, 3, 59, 0
1, 10245, Note_off_c, 4, 47, 0
1, 10245, Note_off_c, 6, 59, 0
1, 10246, Note_off_c, 5, 78, 0
1, 10248, Note_on_c, 0, 76, 80
1, 10248, Note_on_c, 1, 73, 80
1, 10248, Note_on_c, 2, 68, 80
1, 10248, Note_on_c, 3, 61, 80
1, 10248, Note_on_c, 4, 49, 80
1, 10248, Note_on_c, 5, 76, 96
1, 10248, Note_on_c, 6, 61, 96
1, 10258, Note_off_c, 5, 76, 0
1, 10260, Note_on_c, 5, 80, 96
1, 10269, Note_off_c, 0, 76, 0
1, 10269, Note_off_c, 1, 73, 0
1, 10269, Note_off_c, 2, 68, 0
1, 10269, Note_off_c, 3, 61, 0
1, 10269, Note_off_c, 4, 49, 0
1, 10269, Note_off_c, 6, 61, 0
1, 10270, Note_off_c, 5, 80, 0
1, 10272, Note_on_c, 0, 73, 80
1, 10272, Note_on_c, 1, 78, 80
1, 10272, Note_on_c, 2, 61, 80
1, 10272, Note_on_c, 3, 58, 80
1, 10272, Note_on_c, 4, 46, 80
1, 10272, Note_on_c, 5, 78, 96
1, 10272, Note_on_c, 6, 58, 96
1, 10282, Note_off_c, 5, 78, 0
1, 10284, Note_on_c, 5, 76, 96
1, 10293, Note_off_c, 0, 73, 0
1, 10293, Note_off_c, 1, 78, 0
1, 10293, Note_off_c, 2, 61, 0
1, 10293, Note_off_c, 3, 58, 0
1, 10293, Note_off_c, 4, 46, 0
1, 10293, Note_off_c, 6, 58, 0
1, 10294, Note_off_c, 5, 76, 0
1, 10296, Note_on_c, 0, 75, 80
1, 10296, Note_on_c, 1, 66, 80
1, 10296, Note_on_c, 2, 59, 80
1, 10296, Note_on_c, 3, 59, 80
1, 10296, Note_on_c, 4, 47, 80
1, 10296, Note_on_c, 5, 75, 96
1, 10296, Note_on_c, 6, 59, 96
1, 10306, Note_off_c, 5, 75, 0
1, 10308, Note_on_c, 5, 76, 96
1, 10317, Note_off_c, 0, 75, 0
1, 10317, Note_off_c, 1, 66, 0
1, 10317, Note_off_c, 2, 59, 0
1, 10317, Note_off_c, 3, 59, 0
1, 10317, Note_off_c, 4, 47, 0
1, 10317, Note_off_c, 6, 59, 0
1, 10318, Note_off_c, 5, 76, 0
1, 10320, Note_on_c, 0, 71, 80
1, 10320, Note_on_c, 1, 71, 80
1, 10320, Note_on_c, 2, 63, 80
1, 10320, Note_on_c, 3, 57, 80
1, 10320, Note_on_c, 4, 45, 80
1, 10320, Note_on_c, 5, 78, 96
1, 10320, Note_on_c, 6, 57, 96
1, 10330, Note_off_c, 5, 78, 0
1, 10332, Note_on_c, 5, 75, 96
1, 10341, Note_off_c, 0, 71, 0
1, 10341, Note_off_c, 1, 71, 0
1, 10341, Note_off_c, 2, 63, 0
1, 10341, Note_off_c, 3, 57, 0
1, 10341, Note_off_c, 4, 45, 0
1, 10341, Note_off_c, 6, 57, 0
1, 10342, Note_off_c, 5, 75, 0
1, 10344, Note_on_c, 3, 56, 80
1, 10344, Note_on_c, 4, 44, 80
1, 10344, Note_on_c, 5, 71, 96
1, 10344, Note_on_c, 6, 56, 96
1, 10356, Note_on_c, 0, 71, 80
1, 10365, Note_off_c, 3, 56, 0
1, 10365, Note_off_c, 4, 44, 0
1, 10365, Note_off_c, 5, 71, 0
1, 10365, Note_off_c, 6, 56, 0
1, 10366, Note_off_c, 0, 71, 0
1, 10368, Note_on_c, 0, 73, 80
1, 10368, Note_on_c, 3, 54, 80
1, 10368, Note_on_c, 4, 42, 80
1, 10368, Note_on_c, 5, 69, 96
1, 10368, Note_on_c, 6, 54, 96
1, 10378, Note_off_c, 0, 73, 0
1, 10380, Note_on_c, 0, 75, 80
1, 10389, Note_off_c, 3, 54, 0
1, 10389, Note_off_c, 4, 42, 0
1, 10389, Note_off_c, 5, 69, 0
1, 10389, Note_off_c, 6, 54, 0
1, 10390, Note_off_c, 0, 75, 0
1, 10392, Note_on_c, 0, 76, 80
1, 10392, Note_on_c, 3, 52, 80
1, 10392, Note_on_c, 4, 40, 80
1, 10392, Note_on_c, 5, 68, 96
1, 10392, Note_on_c, 6, 52, 96
1, 10402, Note_off_c, 0, 76, 0
1, 10402, Note_off_c, 5, 68, 0
1, 10404, Note_on_c, 0, 75, 80
1, 10404, Note_on_c, 5, 66, 96
1, 10413, Note_off_c, 3, 52, 0
1, 10413, Note_off_c, 4, 40, 0
1, 10413, Note_off_c, 6, 52, 0
1, 10414, Note_off_c, 0, 75, 0
1, 10414, Note_off_c, 5, 66, 0
1, 10416, Note_on_c, 0, 76, 80
1, 10416, Note_on_c, 1, 76, 80
1, 10416, Note_on_c, 2, 68, 80
1, 10416, Note_on_c, 3, 64, 80
1, 10416, Note_on_c, 4, 52, 80
1, 10416, Note_on_c, 5, 68, 96
1, 10416, Note_on_c, 6, 64, 96
1, 10426, Note_off_c, 0, 76, 0
1, 10426, Note_off_c, 5, 68, 0
1, 10428, Note_on_c, 0, 80, 80
1, 10428, Note_on_c, 5, 71, 96
1, 10437, Note_off_c, 1, 76, 0
1, 10437, Note_off_c, 2, 68, 0
1, 10437, Note_off_c, 3, 64, 0
1, 10437, Note_off_c, 4, 52, 0
1, 10437, Note_off_c, 6, 64, 0
1, 10438, Note_off_c, 0, 80, 0
1, 10438, Note_off_c, 5, 71, 0
1, 10440, Note_on_c, 0, 76, 80
1, 10440, Note_on_c, 1, 76, 80
1, 10440, Note_on_c, 2, 68, 80
1, 10440, Note_on_c, 5, 68, 96
1, 10450, Note_off_c, 0, 76, 0
1, 10450, Note_off_c, 5, 68, 0
1, 10452, Note_on_c, 0, 71, 80
1, 10452, Note_on_c, 5, 71, 96
1, 10461, Note_off_c, 1, 76, 0
1, 10461, Note_off_c, 2, 68, 0
1, 10462, Note_off_c, 0, 71, 0
1, 10462, Note_off_c, 5, 71, 0
1, 10464, Note_on_c, 0, 68, 80
1, 10464, Note_on_c, 1, 71, 80
1, 10464, Note_on_c, 2, 64, 80
1, 10464, Note_on_c, 3, 52, 80
1, 10464, Note_on_c, 4, 40, 80
1, 10464, Note_on_c, 5, 76, 96
1, 10464, Note_on_c, 6, 52, 96
1, 10474, Note_off_c, 0, 68, 0
1, 10474, Note_off_c, 3, 52, 0
1, 10474, Note_off_c, 4, 40, 0
1, 10474, Note_off_c, 5, 76, 0
1, 10474, Note_off_c, 6, 52, 0
1, 10476, Note_on_c, 0, 71, 80
1, 10476, Note_on_c, 3, 51, 80
1, 10476, Note_on_c, 4, 39, 80
1, 10476, Note_on_c, 5, 71, 96
1, 10476, Note_on_c, 6, 51, 96
1, 10485, Note_off_c, 1, 71, 0
1, 10485, Note_off_c, 2, 64, 0
1, 10486, Note_off_c, 0, 71, 0
1, 10486, Note_off_c, 3, 51, 0
1, 10486, Note_off_c, 4, 39, 0
1, 10486, Note_off_c, 5, 71, 0
1, 10486, Note_off_c, 6, 51, 0
1, 10488, Note_on_c, 0, 64, 80
1, 10488, Note_on_c, 1, 73, 80
1, 10488, Note_on_c, 2, 64, 80
1, 10488, Note_on_c, 3, 49, 80
1, 10488, Note_on_c, 4, 37, 80
1, 10488, Note_on_c, 5, 80, 96
1, 10488, Note_on_c, 6, 49, 96
1, 10498, Note_off_c, 0, 64, 0
1, 10498, Note_off_c, 5, 80, 0
1, 10500, Note_on_c, 0, 71, 80
1, 10500, Note_on_c, 5, 78, 96
1, 10509, Note_off_c, 1, 73, 0
1, 10509, Note_off_c, 2, 64, 0
1, 10509, Note_off_c, 3, 49, 0
1, 10509, Note_off_c, 4, 37, 0
1, 10509, Note_off_c, 6, 49, 0
1, 10510, Note_off_c, 0, 71, 0
1, 10510, Note_off_c, 5, 78, 0
1, 10512, Note_on_c, 0, 68, 80
1, 10512, Note_on_c, 1, 80, 80
1, 10512, Note_on_c, 2, 73, 80
1, 10512, Note_on_c, 3, 61, 80
1, 10512, Note_on_c, 4, 49, 80
1, 10512, Note_on_c, 5, 76, 96
1, 10512, Note_on_c, 6, 61, 96
1, 10522, Note_off_c, 0, 68, 0
1, 10522, Note_off_c, 5, 76, 0
1, 10524, Note_on_c, 0, 71, 80
1, 10524, Note_on_c, 5, 75, 96
1, 10533, Note_off_c, 1, 80, 0
1, 10533, Note_off_c, 2, 73, 0
1, 10533, Note_off_c, 3, 61, 0
1, 10533, Note_off_c, 4, 49, 0
1, 10533, Note_off_c, 6, 61, 0
1, 10534, Note_off_c, 0, 71, 0
1, 10534, Note_off_c, 5, 75, 0
1, 10536, Note_on_c, 0, 64, 80
1, 10536, Note_on_c, 1, 80, 80
1, 10536, Note_on_c, 2, 73, 80
1, 10536, Note_on_c, 5, 76, 96
1, 10546, Note_off_c, 0, 64, 0
1, 10548, Note_on_c, 0, 71, 80
1, 10548, Note_on_c, 3, 49, 80
1, 10548, Note_on_c, 4, 37, 80
1, 10548, Note_on_c, 6, 49, 96
1, 10557, Note_off_c, 1, 80, 0
1, 10557, Note_off_c, 2, 73, 0
1, 10557, Note_off_c, 5, 76, 0
1, 10558, Note_off_c, 0, 71, 0
1, 10558, Note_off_c, 3, 49, 0
1, 10558, Note_off_c, 4, 37, 0
1, 10558, Note_off_c, 6, 49, 0
1, 10560, Note_on_c, 0, 68, 80
1, 10560, Note_on_c, 1, 76, 80
1, 10560, Note_on_c, 2, 68, 80
1, 10560, Note_on_c, 3, 47, 80
1, 10560, Note_on_c, 4, 35, 80
1, 10560, Note_on_c, 5, 83, 96
1, 10560, Note_on_c, 6, 47, 96
1, 10570, Note_off_c, 0, 68, 0
1, 10570, Note_off_c, 3, 47, 0
1, 10570, Note_off_c, 4, 35, 0
1, 10570, Note_off_c, 6, 47, 0
1, 10572, Note_on_c, 0, 71, 80
1, 10572, Note_on_c, 3, 45, 80
1, 10572, Note_on_c, 4, 33, 80
1, 10572, Note_on_c, 6, 45, 96
1, 10581, Note_off_c, 1, 76, 0
1, 10581, Note_off_c, 2, 68, 0
1, 10582, Note_off_c, 0, 71, 0
1, 10582, Note_off_c, 3, 45, 0
1, 10582, Note_off_c, 4, 33, 0
1, 10582, Note_off_c, 6, 45, 0
1, 10584, Note_on_c, 0, 76, 80
1, 10584, Note_on_c, 1, 76, 80
1, 10584, Note_on_c, 2, 68, 80
1, 10584, Note_on_c, 3, 44, 80
1, 10584, Note_on_c, 4, 32, 80
1, 10584, Note_on_c, 6, 44, 96
1, 10591, Note_off_c, 5, 83, 0
1, 10594, Note_off_c, 0, 76, 0
1, 10596, Note_on_c, 0, 75, 80
1, 10596, Note_on_c, 5, 85, 96
1, 10605, Note_off_c, 1, 76, 0
1, 10605, Note_off_c, 2, 68, 0
1, 10605, Note_off_c, 3, 44, 0
1, 10605, Note_off_c, 4, 32, 0
1, 10605, Note_off_c, 6, 44, 0
1, 10606, Note_off_c, 0, 75, 0
1, 10606, Note_off_c, 5, 85, 0
1, 10608, Note_on_c, 0, 76, 80
1, 10608, Note_on_c, 1, 64, 80
1, 10608, Note_on_c, 2, 59, 80
1, 10608, Note_on_c, 3, 56, 80
1, 10608, Note_on_c, 4, 44, 80
1, 10608, Note_on_c, 5, 83, 96
1, 10608, Note_on_c, 6, 56, 96
1, 10618, Note_off_c, 0, 76, 0
1, 10618, Note_off_c, 5, 83, 0
1, 10620, Note_on_c, 0, 80, 80
1, 10620, Note_on_c, 5, 81, 96
1, 10629, Note_off_c, 1, 64, 0
1, 10629, Note_off_c, 2, 59, 0
1, 10629, Note_off_c, 3, 56, 0
1, 10629, Note_off_c, 4, 44, 0
1, 10629, Note_off_c, 6, 56, 0
1, 10630, Note_off_c, 0, 80, 0
1, 10630, Note_off_c, 5, 81, 0
1, 10632, Note_on_c, 0, 76, 80
1, 10632, Note_on_c, 1, 68, 80
1, 10632, Note_on_c, 2, 64, 80
1, 10632, Note_on_c, 5, 80, 96
1, 10642, Note_off_c, 0, 76, 0
1, 10642, Note_off_c, 5, 80, 0
1, 10644, Note_on_c, 0, 71, 80
1, 10644, Note_on_c, 5, 78, 96
1, 10653, Note_off_c, 1, 68, 0
1, 10653, Note_off_c, 2, 64, 0
1, 10654, Note_off_c, 0, 71, 0
1, 10654, Note_off_c, 5, 78, 0
1, 10656, Note_on_c, 0, 68, 80
1, 10656, Note_on_c, 1, 71, 80
1, 10656, Note_on_c, 2, 68, 80
1, 10656, Note_on_c, 3, 44, 80
1, 10656, Note_on_c, 4, 32, 80
1, 10656, Note_on_c, 5, 76, 96
1, 10656, Note_on_c, 6, 44, 96
1, 10666, Note_off_c, 0, 68, 0
1, 10666, Note_off_c, 3, 44, 0
1, 10666, Note_off_c, 4, 32, 0
1, 10666, Note_off_c, 5, 76, 0
1, 10666, Note_off_c, 6, 44, 0
1, 10668, Note_on_c, 0, 71, 80
1, 10668, Note_on_c, 3, 42, 80
1, 10668, Note_on_c, 4, 30, 80
1, 10668, Note_on_c, 5, 75, 96
1, 10668, Note_on_c, 6, 42, 96
1, 10677, Note_off_c, 1, 71, 0
1, 10677, Note_off_c, 2, 68, 0
1, 10678, Note_off_c, 0, 71, 0
1, 10678, Note_off_c, 3, 42, 0
1, 10678, Note_off_c, 4, 30, 0
1, 10678, Note_off_c, 5, 75, 0
1, 10678, Note_off_c, 6, 42, 0
1, 10680, Note_on_c, 0, 64, 80
1, 10680, Note_on_c, 1, 76, 80
1, 10680, Note_on_c, 2, 71, 80
1, 10680, Note_on_c, 3, 40, 80
1, 10680, Note_on_c, 4, 28, 80
1, 10680, Note_on_c, 5, 76, 96
1, 10680, Note_on_c, 6, 40, 96
1, 10690, Note_off_c, 0, 64, 0
1, 10690, Note_off_c, 1, 76, 0
1, 10690, Note_off_c, 5, 76, 0
1, 10692, Note_on_c, 0, 71, 80
1, 10692, Note_on_c, 1, 75, 80
1, 10692, Note_on_c, 5, 71, 96
1, 10701, Note_off_c, 2, 71, 0
1, 10701, Note_off_c, 3, 40, 0
1, 10701, Note_off_c, 4, 28, 0
1, 10701, Note_off_c, 6, 40, 0
1, 10702, Note_off_c, 0, 71, 0
1, 10702, Note_off_c, 1, 75, 0
1, 10702, Note_off_c, 5, 71, 0
1, 10704, Note_on_c, 0, 68, 80
1, 10704, Note_on_c, 1, 76, 80
1, 10704, Note_on_c, 2, 59, 80
1, 10704, Note_on_c, 3, 52, 80
1, 10704, Note_on_c, 4, 40, 80
1, 10704, Note_on_c, 5, 68, 96
1, 10704, Note_on_c, 6, 52, 96
1, 10714, Note_off_c, 0, 68, 0
1, 10714, Note_off_c, 1, 76, 0
1, 10714, Note_off_c, 5, 68, 0
1, 10716, Note_on_c, 0, 71, 80
1, 10716, Note_on_c, 1, 75, 80
1, 10716, Note_on_c, 5, 71, 96
1, 10725, Note_off_c, 2, 59, 0
1, 10725, Note_off_c, 3, 52, 0
1, 10725, Note_off_c, 4, 40, 0
1, 10725, Note_off_c, 6, 52, 0
1, 10726, Note_off_c, 0, 71, 0
1, 10726, Note_off_c, 1, 75, 0
1, 10726, Note_off_c, 5, 71, 0
1, 10728, Note_on_c, 0, 76, 80
1, 10728, Note_on_c, 1, 76, 80
1, 10728, Note_on_c, 2, 71, 80
1, 10728, Note_on_c, 3, 56, 80
1, 10728, Note_on_c, 4, 44, 80
1, 10728, Note_on_c, 5, 76, 96
1, 10728, Note_on_c, 6, 56, 96
1, 10738, Note_off_c, 0, 76, 0
1, 10738, Note_off_c, 5, 76, 0
1, 10740, Note_on_c, 0, 71, 80
1, 10740, Note_on_c, 5, 80, 96
1, 10749, Note_off_c, 1, 76, 0
1, 10749, Note_off_c, 2, 71, 0
1, 10749, Note_off_c, 3, 56, 0
1, 10749, Note_off_c, 4, 44, 0
1, 10749, Note_off_c, 6, 56, 0
1, 10750, Note_off_c, 0, 71, 0
1, 10750, Note_off_c, 5, 80, 0
1, 10752, Note_on_c, 0, 78, 96
1, 10752, Note_on_c, 1, 75, 96
1, 10752, Note_on_c, 2, 71, 96
1, 10752, Note_on_c, 3, 59, 96
1, 10752, Note_on_c, 4, 47, 96
1, 10752, Note_on_c, 5, 78, 96
1, 10752, Note_on_c, 6, 59, 96
1, 10762, Note_off_c, 0, 78, 0
1, 10762, Note_off_c, 5, 78, 0
1, 10764, Note_on_c, 0, 71, 96
1, 10764, Note_on_c, 5, 81, 96
1, 10773, Note_off_c, 1, 75, 0
1, 10773, Note_off_c, 2, 71, 0
1, 10773, Note_off_c, 3, 59, 0
1, 10773, Note_off_c, 4, 47, 0
1, 10773, Note_off_c, 6, 59, 0
1, 10774, Note_off_c, 0, 71, 0
1, 10774, Note_off_c, 5, 81, 0
1, 10776, Note_on_c, 0, 80, 96
1, 10776, Note_on_c, 1, 76, 96
1, 10776, Note_on_c, 2, 71, 96
1, 10776, Note_on_c, 3, 64, 96
1, 10776, Note_on_c, 4, 52, 96
1, 10776, Note_on_c, 5, 80, 96
1, 10776, Note_on_c, 6, 64, 96
1, 10797, Note_off_c, 0, 80, 0
1, 10797, Note_off_c, 1, 76, 0
1, 10797, Note_off_c, 2, 71, 0
1, 10797, Note_off_c, 3, 64, 0
1, 10797, Note_off_c, 4, 52, 0
1, 10797, Note_off_c, 5, 80, 0
1, 10797, Note_off_c, 6, 64, 0
1, 10800, Note_on_c, 0, 78, 96
1, 10800, Note_on_c, 1, 78, 96
1, 10800, Note_on_c, 2, 71, 96
1, 10800, Note_on_c, 3, 63, 96
1, 10800, Note_on_c, 4, 51, 96
1, 10800, Note_on_c, 5, 78, 96
1, 10800, Note_on_c, 6, 63, 96
1, 10821, Note_off_c, 0, 78, 0
1, 10821, Note_off_c, 1, 78, 0
1, 10821, Note_off_c, 2, 71, 0
1, 10821, Note_off_c, 3, 63, 0
1, 10821, Note_off_c, 4, 51, 0
1, 10821, Note_off_c, 5, 78, 0
1, 10821, Note_off_c, 6, 63, 0
1, 10824, Note_on_c, 0, 81, 96
1, 10824, Note_on_c, 1, 76, 96
1, 10824, Note_on_c, 2, 64, 96
1, 10824, Note_on_c, 3, 61, 96
1, 10824, Note_on_c, 4, 49, 96
1, 10824, Note_on_c, 5, 81, 96
1, 10824, Note_on_c, 6, 61, 96
1, 10845, Note_off_c, 0, 81, 0
1, 10845, Note_off_c, 1, 76, 0
1, 10845, Note_off_c, 2, 64, 0
1, 10845, Note_off_c, 3, 61, 0
1, 10845, Note_off_c, 4, 49, 0
1, 10845, Note_off_c, 5, 81, 0
1, 10845, Note_off_c, 6, 61, 0
1, 10848, Note_on_c, 0, 80, 96
1, 10848, Note_on_c, 1, 76, 96
1, 10848, Note_on_c, 2, 68, 96
1, 10848, Note_on_c, 3, 59, 96
1, 10848, Note_on_c, 4, 47, 96
1, 10848, Note_on_c, 5, 80, 96
1, 10848, Note_on_c, 6, 59, 96
1, 10869, Note_off_c, 0, 80, 0
1, 10869, Note_off_c, 1, 76, 0
1, 10869, Note_off_c, 2, 68, 0
1, 10869, Note_off_c, 3, 59, 0
1, 10869, Note_off_c, 4, 47, 0
1, 10869, Note_off_c, 5, 80, 0
1, 10869, Note_off_c, 6, 59, 0
1, 10872, Note_on_c, 0, 78, 96
1, 10872, Note_on_c, 1, 75, 96
1, 10872, Note_on_c, 2, 71, 96
1, 10872, Note_on_c, 3, 57, 96
1, 10872, Note_on_c, 4, 45, 96
1, 10872, Note_on_c, 5, 78, 96
1, 10872, Note_on_c, 6, 57, 96
1, 10878, Note_off_c, 5, 78, 0
1, 10878, Note_on_c, 5, 80, 96
1, 10884, Note_off_c, 5, 80, 0
1, 10884, Note_on_c, 5, 78, 96
1, 10893, Note_off_c, 0, 78, 0
1, 10893, Note_off_c, 1, 75, 0
1, 10893, Note_off_c, 2, 71, 0
1, 10893, Note_off_c, 3, 57, 0
1, 10893, Note_off_c, 4, 45, 0
1, 10893, Note_off_c, 6, 57, 0
1, 10894, Note_off_c, 5, 78, 0
1, 10896, Note_on_c, 0, 76, 96
1, 10896, Note_on_c, 1, 76, 96
1, 10896, Note_on_c, 2, 59, 96
1, 10896, Note_on_c, 3, 56, 96
1, 10896, Note_on_c, 4, 44, 96
1, 10896, Note_on_c, 5, 76, 96
1, 10896, Note_on_c, 6, 56, 96
1, 10917, Note_off_c, 0, 76, 0
1, 10917, Note_off_c, 1, 76, 0
1, 10917, Note_off_c, 2, 59, 0
1, 10917, Note_off_c, 3, 56, 0
1, 10917, Note_off_c, 4, 44, 0
1, 10917, Note_off_c, 5, 76, 0
1, 10917, Note_off_c, 6, 56, 0
1, 10920, Note_on_c, 0, 83, 96
1, 10920, Note_on_c, 5, 83, 96
1, 10944, Note_on_c, 1, 76, 96
1, 10944, Note_on_c, 2, 71, 96
1, 10944, Note_on_c, 3, 56, 96
1, 10944, Note_on_c, 4, 44, 96
1, 10944, Note_on_c, 6, 56, 96
1, 10954, Note_off_c, 1, 76, 0
1, 10956, Note_on_c, 1, 75, 96
1, 10965, Note_off_c, 2, 71, 0
1, 10965, Note_off_c, 3, 56, 0
1, 10965, Note_off_c, 4, 44, 0
1, 10965, Note_off_c, 6, 56, 0
1, 10966, Note_off_c, 1, 75, 0
1, 10968, Note_on_c, 1, 76, 96
1, 10968, Note_on_c, 2, 68, 96
1, 10968, Note_on_c, 3, 61, 96
1, 10968, Note_on_c, 4, 49, 96
1, 10968, Note_on_c, 6, 61, 96
1, 10972, Note_off_c, 0, 83, 0
1, 10972, Note_off_c, 5, 83, 0
1, 10980, Note_on_c, 0, 76, 96
1, 10980, Note_on_c, 5, 76, 96
1, 10989, Note_off_c, 1, 76, 0
1, 10989, Note_off_c, 2, 68, 0
1, 10989, Note_off_c, 3, 61, 0
1, 10989, Note_off_c, 4, 49, 0
1, 10989, Note_off_c, 6, 61, 0
1, 10990, Note_off_c, 0, 76, 0
1, 10990, Note_off_c, 5, 76, 0
1, 10992, Note_on_c, 0, 75, 96
1, 10992, Note_on_c, 1, 80, 96
1, 10992, Note_on_c, 2, 71, 96
1, 10992, Note_on_c, 3, 59, 96
1, 10992, Note_on_c, 4, 47, 96
1, 10992, Note_on_c, 5, 75, 96
1, 10992, Note_on_c, 6, 59, 96
1, 11002, Note_off_c, 0, 75, 0
1, 11002, Note_off_c, 5, 75, 0
1, 11004, Note_on_c, 0, 76, 96
1, 11004, Note_on_c, 5, 76, 96
1, 11013, Note_off_c, 1, 80, 0
1, 11013, Note_off_c, 2, 71, 0
1, 11013, Note_off_c, 3, 59, 0
1, 11013, Note_off_c, 4, 47, 0
1, 11013, Note_off_c, 6, 59, 0
1, 11014, Note_off_c, 0, 76, 0
1, 11014, Note_off_c, 5, 76, 0
1, 11016, Note_on_c, 0, 78, 96
1, 11016, Note_on_c, 1, 75, 96
1, 11016, Note_on_c, 2, 71, 96
1, 11016, Note_on_c, 3, 57, 96
1, 11016, Note_on_c, 4, 45, 96
1, 11016, Note_on_c, 5, 78, 96
1, 11016, Note_on_c, 6, 57, 96
1, 11037, Note_off_c, 0, 78, 0
1, 11037, Note_off_c, 1, 75, 0
1, 11037, Note_off_c, 2, 71, 0
1, 11037, Note_off_c, 3, 57, 0
1, 11037, Note_off_c, 4, 45, 0
1, 11037, Note_off_c, 5, 78, 0
1, 11037, Note_off_c, 6, 57, 0
1, 11040, Note_on_c, 0, 76, 96
1, 11040, Note_on_c, 1, 76, 96
1, 11040, Note_on_c, 2, 59, 96
1, 11040, Note_on_c, 3, 56, 96
1, 11040, Note_on_c, 4, 44, 96
1, 11040, Note_on_c, 5, 76, 96
1, 11040, Note_on_c, 6, 56, 96
1, 11061, Note_off_c, 0, 76, 0
1, 11061, Note_off_c, 1, 76, 0
1, 11061, Note_off_c, 2, 59, 0
1, 11061, Note_off_c, 3, 56, 0
1, 11061, Note_off_c, 4, 44, 0
1, 11061, Note_off_c, 5, 76, 0
1, 11061, Note_off_c, 6, 56, 0
1, 11064, Note_on_c, 0, 75, 96
1, 11064, Note_on_c, 1, 69, 96
1, 11064, Note_on_c, 2, 66, 96
1, 11064, Note_on_c, 3, 54, 96
1, 11064, Note_on_c, 4, 42, 96
1, 11064, Note_on_c, 5, 75, 96
1, 11064, Note_on_c, 6, 54, 96
1, 11074, Note_off_c, 0, 75, 0
1, 11074, Note_off_c, 5, 75, 0
1, 11076, Note_on_c, 0, 76, 96
1, 11076, Note_on_c, 5, 76, 96
1, 11085, Note_off_c, 1, 69, 0
1, 11085, Note_off_c, 2, 66, 0
1, 11085, Note_off_c, 3, 54, 0
1, 11085, Note_off_c, 4, 42, 0
1, 11085, Note_off_c, 6, 54, 0
1, 11086, Note_off_c, 0, 76, 0
1, 11086, Note_off_c, 5, 76, 0
1, 11088, Note_on_c, 0, 78, 96
1, 11088, Note_on_c, 1, 73, 96
1, 11088, Note_on_c, 2, 69, 96
1, 11088, Note_on_c, 3, 52, 96
1, 11088, Note_on_c, 4, 40, 96
1, 11088, Note_on_c, 5, 78, 96
1, 11088, Note_on_c, 6, 52, 96
1, 11098, Note_off_c, 0, 78, 0
1, 11098, Note_off_c, 5, 78, 0
1, 11100, Note_on_c, 0, 75, 96
1, 11100, Note_on_c, 5, 75, 96
1, 11109, Note_off_c, 1, 73, 0
1, 11109, Note_off_c, 2, 69, 0
1, 11109, Note_off_c, 3, 52, 0
1, 11109, Note_off_c, 4, 40, 0
1, 11109, Note_off_c, 6, 52, 0
1, 11110, Note_off_c, 0, 75, 0
1, 11110, Note_off_c, 5, 75, 0
1, 11112, Note_on_c, 0, 71, 96
1, 11112, Note_on_c, 1, 66, 96
1, 11112, Note_on_c, 2, 71, 96
1, 11112, Note_on_c, 3, 51, 96
1, 11112, Note_on_c, 4, 39, 96
1, 11112, Note_on_c, 5, 71, 96
1, 11112, Note_on_c, 6, 51, 96
1, 11122, Note_off_c, 0, 71, 0
1, 11122, Note_off_c, 5, 71, 0
1, 11124, Note_on_c, 0, 81, 96
1, 11124, Note_on_c, 5, 81, 96
1, 11133, Note_off_c, 1, 66, 0
1, 11133, Note_off_c, 2, 71, 0
1, 11133, Note_off_c, 3, 51, 0
1, 11133, Note_off_c, 4, 39, 0
1, 11133, Note_off_c, 6, 51, 0
1, 11134, Note_off_c, 0, 81, 0
1, 11136, Note_on_c, 0, 80, 96
1, 11136, Note_on_c, 1, 78, 96
1, 11136, Note_on_c, 2, 71, 96
1, 11136, Note_on_c, 3, 47, 96
1, 11136, Note_on_c, 4, 35, 96
1, 11136, Note_off_c, 5, 81, 0
1, 11136, Note_on_c, 5, 80, 96
1, 11136, Note_on_c, 6, 47, 96
1, 11146, Note_off_c, 0, 80, 0
1, 11148, Note_on_c, 0, 78, 96
1, 11148, Note_off_c, 5, 80, 0
1, 11148, Note_on_c, 5, 78, 96
1, 11157, Note_off_c, 1, 78, 0
1, 11157, Note_off_c, 2, 71, 0
1, 11157, Note_off_c, 3, 47, 0
1, 11157, Note_off_c, 4, 35, 0
1, 11157, Note_off_c, 6, 47, 0
1, 11158, Note_off_c, 0, 78, 0
1, 11158, Note_off_c, 5, 78, 0
1, 11160, Note_on_c, 0, 80, 96
1, 11160, Note_on_c, 1, 76, 96
1, 11160, Note_on_c, 2, 59, 96
1, 11160, Note_on_c, 3, 52, 96
1, 11160, Note_on_c, 4, 40, 96
1, 11160, Note_on_c, 5, 71, 96
1, 11160, Note_on_c, 6, 52, 96
1, 11170, Note_off_c, 1, 76, 0
1, 11170, Note_off_c, 5, 71, 0
1, 11172, Note_on_c, 1, 71, 96
1, 11172, Note_on_c, 5, 80, 96
1, 11181, Note_off_c, 0, 80, 0
1, 11181, Note_off_c, 2, 59, 0
1, 11181, Note_off_c, 3, 52, 0
1, 11181, Note_off_c, 4, 40, 0
1, 11181, Note_off_c, 6, 52, 0
1, 11182, Note_off_c, 1, 71, 0
1, 11184, Note_on_c, 1, 69, 96
1, 11184, Note_off_c, 5, 80, 0
1, 11184, Note_on_c, 5, 78, 96
1, 11194, Note_off_c, 1, 69, 0
1, 11196, Note_on_c, 1, 68, 96
1, 11196, Note_off_c, 5, 78, 0
1, 11196, Note_on_c, 5, 76, 96
1, 11206, Note_off_c, 1, 68, 0
1, 11206, Note_off_c, 5, 76, 0
1, 11208, Note_on_c, 1, 66, 96
1, 11208, Note_on_c, 2, 63, 96
1, 11208, Note_on_c, 3, 51, 96
1, 11208, Note_on_c, 4, 39, 96
1, 11208, Note_on_c, 5, 71, 96
1, 11208, Note_on_c, 6, 51, 96
1, 11218, Note_off_c, 5, 71, 0
1, 11220, Note_on_c, 0, 78, 96
1, 11220, Note_on_c, 5, 78, 96
1, 11229, Note_off_c, 1, 66, 0
1, 11229, Note_off_c, 2, 63, 0
1, 11229, Note_off_c, 3, 51, 0
1, 11229, Note_off_c, 4, 39, 0
1, 11229, Note_off_c, 6, 51, 0
1, 11230, Note_off_c, 0, 78, 0
1, 11232, Note_on_c, 0, 76, 96
1, 11232, Note_off_c, 5, 78, 0
1, 11232, Note_on_c, 5, 76, 96
1, 11242, Note_off_c, 0, 76, 0
1, 11244, Note_on_c, 0, 75, 96
1, 11244, Note_off_c, 5, 76, 0
1, 11244, Note_on_c, 5, 75, 96
1, 11254, Note_off_c, 0, 75, 0
1, 11254, Note_off_c, 5, 75, 0
1, 11256, Note_on_c, 0, 76, 96
1, 11256, Note_on_c, 2, 56, 96
1, 11256, Note_on_c, 3, 49, 96
1, 11256, Note_on_c, 4, 37, 96
1, 11256, Note_on_c, 5, 76, 96
1, 11256, Note_on_c, 6, 49, 96
1, 11266, Note_off_c, 5, 76, 0
1, 11268, Note_on_c, 1, 61, 96
1, 11268, Note_on_c, 5, 69, 96
1, 11277, Note_off_c, 0, 76, 0
1, 11277, Note_off_c, 2, 56, 0
1, 11277, Note_off_c, 3, 49, 0
1, 11277, Note_off_c, 4, 37, 0
1, 11277, Note_off_c, 6, 49, 0
1, 11278, Note_off_c, 1, 61, 0
1, 11280, Note_on_c, 1, 59, 96
1, 11280, Note_off_c, 5, 69, 0
1, 11280, Note_on_c, 5, 68, 96
1, 11290, Note_off_c, 1, 59, 0
1, 11292, Note_on_c, 1, 57, 96
1, 11292, Note_off_c, 5, 68, 0
1, 11292, Note_on_c, 5, 66, 96
1, 11302, Note_off_c, 1, 57, 0
1, 11302, Note_off_c, 5, 66, 0
1, 11304, Note_on_c, 1, 59, 96
1, 11304, Note_on_c, 2, 64, 96
1, 11304, Note_on_c, 3, 44, 96
1, 11304, Note_on_c, 4, 32, 96
1, 11304, Note_on_c, 5, 64, 96
1, 11304, Note_on_c, 6, 44, 96
1, 11314, Note_off_c, 5, 64, 0
1, 11316, Note_on_c, 0, 74, 96
1, 11316, Note_on_c, 5, 74, 96
1, 11325, Note_off_c, 1, 59, 0
1, 11325, Note_off_c, 3, 44, 0
1, 11325, Note_off_c, 4, 32, 0
1, 11325, Note_off_c, 6, 44, 0
1, 11326, Note_off_c, 0, 74, 0
1, 11328, Note_on_c, 0, 73, 96
1, 11328, Note_on_c, 3, 40, 96
1, 11328, Note_on_c, 4, 28, 96
1, 11328, Note_off_c, 5, 74, 0
1, 11328, Note_on_c, 5, 73, 96
1, 11328, Note_on_c, 6, 40, 96
1, 11338, Note_off_c, 0, 73, 0
1, 11340, Note_on_c, 0, 71, 96
1, 11340, Note_off_c, 5, 73, 0
1, 11340, Note_on_c, 5, 71, 96
1, 11349, Note_off_c, 3, 40, 0
1, 11349, Note_off_c, 4, 28, 0
1, 11349, Note_off_c, 6, 40, 0
1, 11350, Note_off_c, 0, 71, 0
1, 11350, Note_off_c, 5, 71, 0
1, 11352, Note_on_c, 0, 73, 96
1, 11352, Note_on_c, 3, 45, 96
1, 11352, Note_on_c, 4, 33, 96
1, 11352, Note_on_c, 5, 73, 96
1, 11352, Note_on_c, 6, 45, 96
1, 11362, Note_off_c, 0, 73, 0
1, 11362, Note_off_c, 5, 73, 0
1, 11364, Note_on_c, 0, 71, 96
1, 11364, Note_on_c, 5, 81, 96
1, 11373, Note_off_c, 3, 45, 0
1, 11373, Note_off_c, 4, 33, 0
1, 11373, Note_off_c, 6, 45, 0
1, 11374, Note_off_c, 0, 71, 0
1, 11374, Note_off_c, 5, 81, 0
1, 11376, Note_on_c, 0, 69, 96
1, 11376, Note_on_c, 1, 64, 96
1, 11376, Note_on_c, 3, 49, 96
1, 11376, Note_on_c, 4, 37, 96
1, 11376, Note_on_c, 5, 73, 96
1, 11376, Note_on_c, 6, 49, 96
1, 11386, Note_off_c, 0, 69, 0
1, 11388, Note_on_c, 0, 68, 96
1, 11388, Note_off_c, 2, 64, 0
1, 11397, Note_off_c, 1, 64, 0
1, 11397, Note_off_c, 3, 49, 0
1, 11397, Note_off_c, 4, 37, 0
1, 11397, Note_off_c, 6, 49, 0
1, 11398, Note_off_c, 0, 68, 0
1, 11400, Note_on_c, 0, 66, 96
1, 11400, Note_on_c, 1, 69, 96
1, 11400, Note_on_c, 2, 66, 96
1, 11400, Note_on_c, 3, 45, 96
1, 11400, Note_on_c, 4, 33, 96
1, 11400, Note_on_c, 6, 45, 96
1, 11407, Note_off_c, 5, 73, 0
1, 11410, Note_off_c, 0, 66, 0
1, 11412, Note_on_c, 0, 80, 96
1, 11412, Note_on_c, 5, 71, 96
1, 11421, Note_off_c, 1, 69, 0
1, 11421, Note_off_c, 3, 45, 0
1, 11421, Note_off_c, 4, 33, 0
1, 11421, Note_off_c, 6, 45, 0
1, 11422, Note_off_c, 0, 80, 0
1, 11422, Note_off_c, 5, 71, 0
1, 11424, Note_on_c, 0, 78, 96
1, 11424, Note_on_c, 1, 73, 96
1, 11424, Note_on_c, 3, 42, 96
1, 11424, Note_on_c, 4, 30, 96
1, 11424, Note_on_c, 5, 69, 96
1, 11424, Note_on_c, 6, 42, 96
1, 11434, Note_off_c, 0, 78, 0
1, 11434, Note_off_c, 5, 69, 0
1, 11436, Note_on_c, 0, 76, 96
1, 11436, Note_on_c, 5, 68, 96
1, 11445, Note_off_c, 3, 42, 0
1, 11445, Note_off_c, 4, 30, 0
1, 11445, Note_off_c, 6, 42, 0
1, 11446, Note_off_c, 0, 76, 0
1, 11446, Note_off_c, 5, 68, 0
1, 11448, Note_on_c, 0, 75, 96
1, 11448, Note_on_c, 3, 47, 96
1, 11448, Note_on_c, 4, 35, 96
1, 11448, Note_on_c, 5, 66, 96
1, 11448, Note_on_c, 6, 47, 96
1, 11458, Note_off_c, 0, 75, 0
1, 11458, Note_off_c, 5, 66, 0
1, 11460, Note_on_c, 0, 73, 96
1, 11460, Note_on_c, 5, 76, 96
1, 11466, Note_off_c, 1, 73, 0
1, 11469, Note_off_c, 3, 47, 0
1, 11469, Note_off_c, 4, 35, 0
1, 11469, Note_off_c, 6, 47, 0
1, 11470, Note_off_c, 0, 73, 0
1, 11470, Note_off_c, 5, 76, 0
1, 11472, Note_on_c, 0, 71, 96
1, 11472, Note_on_c, 1, 66, 96
1, 11472, Note_on_c, 3, 51, 96
1, 11472, Note_on_c, 4, 39, 96
1, 11472, Note_on_c, 5, 75, 96
1, 11472, Note_on_c, 6, 51, 96
1, 11482, Note_off_c, 0, 71, 0
1, 11484, Note_on_c, 0, 69, 96
1, 11484, Note_off_c, 2, 66, 0
1, 11493, Note_off_c, 1, 66, 0
1, 11493, Note_off_c, 3, 51, 0
1, 11493, Note_off_c, 4, 39, 0
1, 11493, Note_off_c, 6, 51, 0
1, 11494, Note_off_c, 0, 69, 0
1, 11496, Note_on_c, 0, 68, 96
1, 11496, Note_on_c, 1, 71, 96
1, 11496, Note_on_c, 2, 68, 96
1, 11496, Note_on_c, 3, 47, 96
1, 11496, Note_on_c, 4, 35, 96
1, 11496, Note_on_c, 6, 47, 96
1, 11503, Note_off_c, 5, 75, 0
1, 11506, Note_off_c, 0, 68, 0
1, 11508, Note_on_c, 0, 81, 96
1, 11508, Note_on_c, 5, 73, 96
1, 11517, Note_off_c, 1, 71, 0
1, 11517, Note_off_c, 3, 47, 0
1, 11517, Note_off_c, 4, 35, 0
1, 11517, Note_off_c, 6, 47, 0
1, 11518, Note_off_c, 0, 81, 0
1, 11518, Note_off_c, 5, 73, 0
1, 11520, Note_on_c, 0, 80, 96
1, 11520, Note_on_c, 1, 75, 96
1, 11520, Note_on_c, 3, 44, 96
1, 11520, Note_on_c, 4, 32, 96
1, 11520, Note_on_c, 5, 71, 96
1, 11520, Note_on_c, 6, 44, 96
1, 11530, Note_off_c, 0, 80, 0
1, 11530, Note_off_c, 5, 71, 0
1, 11532, Note_on_c, 0, 78, 96
1, 11532, Note_on_c, 5, 69, 96
1, 11541, Note_off_c, 3, 44, 0
1, 11541, Note_off_c, 4, 32, 0
1, 11541, Note_off_c, 6, 44, 0
1, 11542, Note_off_c, 0, 78, 0
1, 11542, Note_off_c, 5, 69, 0
1, 11544, Note_on_c, 0, 76, 96
1, 11544, Note_on_c, 3, 49, 96
1, 11544, Note_on_c, 4, 37, 96
1, 11544, Note_on_c, 5, 68, 96
1, 11544, Note_on_c, 6, 49, 96
1, 11554, Note_off_c, 0, 76, 0
1, 11554, Note_off_c, 5, 68, 0
1, 11556, Note_on_c, 0, 75, 96
1, 11556, Note_on_c, 5, 78, 96
1, 11562, Note_off_c, 1, 75, 0
1, 11565, Note_off_c, 3, 49, 0
1, 11565, Note_off_c, 4, 37, 0
1, 11565, Note_off_c, 6, 49, 0
1, 11566, Note_off_c, 0, 75, 0
1, 11566, Note_off_c, 5, 78, 0
1, 11568, Note_on_c, 0, 73, 96
1, 11568, Note_on_c, 1, 68, 96
1, 11568, Note_on_c, 3, 52, 96
1, 11568, Note_on_c, 4, 40, 96
1, 11568, Note_on_c, 5, 76, 96
1, 11568, Note_on_c, 6, 52, 96
1, 11578, Note_off_c, 0, 73, 0
1, 11580, Note_on_c, 0, 71, 96
1, 11580, Note_off_c, 2, 68, 0
1, 11589, Note_off_c, 1, 68, 0
1, 11589, Note_off_c, 3, 52, 0
1, 11589, Note_off_c, 4, 40, 0
1, 11589, Note_off_c, 6, 52, 0
1, 11590, Note_off_c, 0, 71, 0
1, 11592, Note_on_c, 0, 69, 96
1, 11592, Note_on_c, 1, 73, 96
1, 11592, Note_on_c, 2, 69, 96
1, 11592, Note_on_c, 3, 49, 96
1, 11592, Note_on_c, 4, 37, 96
1, 11592, Note_on_c, 6, 49, 96
1, 11599, Note_off_c, 5, 76, 0
1, 11602, Note_off_c, 0, 69, 0
1, 11604, Note_on_c, 0, 83, 96
1, 11604, Note_on_c, 5, 75, 96
1, 11613, Note_off_c, 1, 73, 0
1, 11613, Note_off_c, 2, 69, 0
1, 11613, Note_off_c, 3, 49, 0
1, 11613, Note_off_c, 4, 37, 0
1, 11613, Note_off_c, 6, 49, 0
1, 11614, Note_off_c, 0, 83, 0
1, 11614, Note_off_c, 5, 75, 0
1, 11616, Note_on_c, 0, 81, 96
1, 11616, Note_on_c, 1, 76, 96
1, 11616, Note_on_c, 2, 73, 96
1, 11616, Note_on_c, 3, 45, 96
1, 11616, Note_on_c, 4, 33, 96
1, 11616, Note_on_c, 5, 73, 96
1, 11616, Note_on_c, 6, 45, 96
1, 11626, Note_off_c, 0, 81, 0
1, 11626, Note_off_c, 5, 73, 0
1, 11628, Note_on_c, 0, 80, 96
1, 11628, Note_on_c, 5, 71, 96
1, 11637, Note_off_c, 1, 76, 0
1, 11637, Note_off_c, 2, 73, 0
1, 11637, Note_off_c, 3, 45, 0
1, 11637, Note_off_c, 4, 33, 0
1, 11637, Note_off_c, 6, 45, 0
1, 11638, Note_off_c, 0, 80, 0
1, 11638, Note_off_c, 5, 71, 0
1, 11640, Note_on_c, 0, 78, 96
1, 11640, Note_on_c, 1, 78, 96
1, 11640, Note_on_c, 2, 73, 96
1, 11640, Note_on_c, 3, 39, 96
1, 11640, Note_on_c, 4, 27, 96
1, 11640, Note_on_c, 5, 69, 96
1, 11640, Note_on_c, 6, 39, 96
1, 11650, Note_off_c, 0, 78, 0
1, 11650, Note_off_c, 5, 69, 0
1, 11652, Note_on_c, 0, 76, 96
1, 11652, Note_on_c, 5, 80, 96
1, 11662, Note_off_c, 0, 76, 0
1, 11662, Note_off_c, 5, 80, 0
1, 11664, Note_on_c, 0, 75, 96
1, 11664, Note_off_c, 2, 73, 0
1, 11664, Note_on_c, 2, 71, 96
1, 11664, Note_on_c, 5, 78, 96
1, 11674, Note_off_c, 0, 75, 0
1, 11674, Note_off_c, 5, 78, 0
1, 11676, Note_on_c, 0, 73, 96
1, 11676, Note_on_c, 5, 76, 96
1, 11682, Note_off_c, 1, 78, 0
1, 11682, Note_off_c, 3, 39, 0
1, 11682, Note_off_c, 4, 27, 0
1, 11682, Note_off_c, 6, 39, 0
1, 11685, Note_off_c, 2, 71, 0
1, 11686, Note_off_c, 0, 73, 0
1, 11686, Note_off_c, 5, 76, 0
1, 11688, Note_on_c, 0, 71, 96
1, 11688, Note_on_c, 5, 75, 96
1, 11698, Note_off_c, 0, 71, 0
1, 11698, Note_off_c, 5, 75, 0
1, 11700, Note_on_c, 0, 69, 96
1, 11700, Note_on_c, 5, 73, 96
1, 11710, Note_off_c, 0, 69, 0
1, 11710, Note_off_c, 5, 73, 0
1, 11712, Note_on_c, 0, 68, 96
1, 11712, Note_on_c, 1, 78, 96
1, 11712, Note_on_c, 2, 71, 96
1, 11712, Note_on_c, 3, 51, 96
1, 11712, Note_on_c, 4, 39, 96
1, 11712, Note_on_c, 5, 71, 96
1, 11712, Note_on_c, 6, 51, 96
1, 11722, Note_off_c, 0, 68, 0
1, 11722, Note_off_c, 5, 71, 0
1, 11724, Note_on_c, 0, 66, 96
1, 11724, Note_on_c, 5, 69, 96
1, 11733, Note_off_c, 1, 78, 0
1, 11733, Note_off_c, 2, 71, 0
1, 11733, Note_off_c, 3, 51, 0
1, 11733, Note_off_c, 4, 39, 0
1, 11733, Note_off_c, 6, 51, 0
1, 11734, Note_off_c, 0, 66, 0
1, 11734, Note_off_c, 5, 69, 0
1, 11736, Note_on_c, 0, 64, 96
1, 11736, Note_on_c, 1, 71, 96
1, 11736, Note_on_c, 2, 59, 96
1, 11736, Note_on_c, 3, 52, 96
1, 11736, Note_on_c, 4, 40, 96
1, 11736, Note_on_c, 5, 68, 96
1, 11736, Note_on_c, 6, 52, 96
1, 11757, Note_off_c, 1, 71, 0
1, 11757, Note_off_c, 2, 59, 0
1, 11757, Note_off_c, 3, 52, 0
1, 11757, Note_off_c, 4, 40, 0
1, 11757, Note_off_c, 5, 68, 0
1, 11757, Note_off_c, 6, 52, 0
1, 11760, Note_on_c, 1, 73, 96
1, 11760, Note_on_c, 2, 64, 96
1, 11760, Note_on_c, 3, 49, 96
1, 11760, Note_on_c, 4, 37, 96
1, 11760, Note_on_c, 5, 76, 96
1, 11760, Note_on_c, 6, 49, 96
1, 11767, Note_off_c, 0, 64, 0
1, 11772, Note_on_c, 0, 66, 96
1, 11781, Note_off_c, 1, 73, 0
1, 11781, Note_off_c, 2, 64, 0
1, 11781, Note_off_c, 3, 49, 0
1, 11781, Note_off_c, 4, 37, 0
1, 11781, Note_off_c, 5, 76, 0
1, 11781, Note_off_c, 6, 49, 0
1, 11782, Note_off_c, 0, 66, 0
1, 11784, Note_on_c, 0, 66, 96
1, 11784, Note_on_c, 1, 73, 96
1, 11784, Note_on_c, 2, 61, 96
1, 11784, Note_on_c, 3, 45, 96
1, 11784, Note_on_c, 4, 33, 96
1, 11784, Note_on_c, 5, 66, 96
1, 11784, Note_on_c, 6, 45, 96
1, 11805, Note_off_c, 1, 73, 0
1, 11805, Note_off_c, 2, 61, 0
1, 11805, Note_off_c, 3, 45, 0
1, 11805, Note_off_c, 4, 33, 0
1, 11805, Note_off_c, 5, 66, 0
1, 11805, Note_off_c, 6, 45, 0
1, 11808, Note_on_c, 1, 71, 96
1, 11808, Note_on_c, 2, 66, 96
1, 11808, Note_on_c, 3, 47, 96
1, 11808, Note_on_c, 4, 35, 96
1, 11808, Note_on_c, 5, 76, 96
1, 11808, Note_on_c, 6, 47, 96
1, 11814, Note_off_c, 5, 76, 0
1, 11814, Note_on_c, 5, 75, 96
1, 11815, Note_off_c, 0, 66, 0
1, 11820, Note_on_c, 0, 64, 96
1, 11820, Note_off_c, 5, 75, 0
1, 11820, Note_on_c, 5, 76, 96
1, 11826, Note_off_c, 5, 76, 0
1, 11826, Note_on_c, 5, 75, 96
1, 11829, Note_off_c, 1, 71, 0
1, 11829, Note_off_c, 2, 66, 0
1, 11829, Note_off_c, 3, 47, 0
1, 11829, Note_off_c, 4, 35, 0
1, 11829, Note_off_c, 6, 47, 0
1, 11830, Note_off_c, 0, 64, 0
1, 11831, Note_off_c, 5, 75, 0
1, 11832, Note_on_c, 0, 64, 96
1, 11832, Note_on_c, 1, 71, 96
1, 11832, Note_on_c, 2, 68, 96
1, 11832, Note_on_c, 3, 40, 96
1, 11832, Note_on_c, 4, 28, 96
1, 11832, Note_on_c, 5, 76, 96
1, 11832, Note_on_c, 6, 40, 96
1, 11853, Note_off_c, 6, 40, 0
1, 11856, Note_on_c, 6, 64, 96
1, 11866, Note_off_c, 6, 64, 0
1, 11868, Note_on_c, 6, 63, 96
1, 11874, Note_off_c, 0, 64, 0
1, 11874, Note_off_c, 1, 71, 0
1, 11874, Note_off_c, 2, 68, 0
1, 11874, Note_off_c, 3, 40, 0
1, 11874, Note_off_c, 4, 28, 0
1, 11874, Note_off_c, 5, 76, 0
1, 11878, Note_off_c, 6, 63, 0
1, 11880, Note_on_c, 6, 64, 96
1, 11890, Note_off_c, 6, 64, 0
1, 11892, Note_on_c, 6, 66, 96
1, 11902, Note_off_c, 6, 66, 0
1, 11904, Note_on_c, 5, 80, 96
1, 11904, Note_on_c, 6, 64, 96
1, 11914, Note_off_c, 6, 64, 0
1, 11916, Note_on_c, 6, 63, 96
1, 11925, Note_off_c, 5, 80, 0
1, 11926, Note_off_c, 6, 63, 0
1, 11928, Note_on_c, 5, 78, 96
1, 11928, Note_on_c, 6, 61, 96
1, 11934, Note_off_c, 5, 78, 0
1, 11934, Note_on_c, 5, 80, 96
1, 11940, Note_off_c, 5, 80, 0
1, 11940, Note_on_c, 5, 81, 96
1, 11946, Note_off_c, 5, 81, 0
1, 11946, Note_on_c, 5, 80, 96
1, 11952, Note_off_c, 5, 80, 0
1, 11952, Note_on_c, 5, 81, 96
1, 11952, Note_on_c, 6, 49, 96
1, 11958, Note_off_c, 5, 81, 0
1, 11958, Note_on_c, 5, 80, 96
1, 11964, Note_off_c, 5, 80, 0
1, 11964, Note_on_c, 5, 78, 96
1, 11970, Note_off_c, 5, 78, 0
1, 11970, Note_on_c, 5, 80, 96
1, 11973, Note_off_c, 6, 49, 0
1, 11975, Note_off_c, 5, 80, 0
1, 11976, Note_on_c, 5, 81, 96
1, 11976, Note_on_c, 6, 54, 96
1, 11986, Note_off_c, 5, 81, 0
1, 11988, Note_on_c, 5, 80, 96
1, 11997, Note_off_c, 6, 54, 0
1, 11998, Note_off_c, 5, 80, 0
1, 12000, Note_on_c, 5, 78, 96
1, 12000, Note_on_c, 6, 51, 96
1, 12010, Note_off_c, 5, 78, 0
1, 12012, Note_on_c, 5, 81, 96
1, 12021, Note_off_c, 6, 51, 0
1, 12022, Note_off_c, 5, 81, 0
1, 12024, Note_on_c, 3, 49, 80
1, 12024, Note_on_c, 4, 37, 80
1, 12024, Note_on_c, 5, 80, 96
1, 12024, Note_on_c, 6, 52, 96
1, 12029, Note_off_c, 5, 80, 0
1, 12030, Note_on_c, 5, 78, 96
1, 12035, Note_off_c, 5, 78, 0
1, 12036, Note_on_c, 5, 76, 96
1, 12036, Note_off_c, 6, 61, 0
1, 12045, Note_off_c, 6, 52, 0
1, 12046, Note_off_c, 5, 76, 0
1, 12048, Note_on_c, 0, 73, 80
1, 12048, Note_on_c, 1, 73, 80
1, 12048, Note_on_c, 2, 73, 80
1, 12048, Note_on_c, 5, 78, 96
1, 12048, Note_on_c, 6, 61, 96
1, 12048, Note_on_c, 6, 57, 96
1, 12053, Note_off_c, 5, 78, 0
1, 12054, Note_on_c, 5, 76, 96
1, 12059, Note_off_c, 5, 76, 0
1, 12060, Note_on_c, 5, 75, 96
1, 12066, Note_off_c, 3, 49, 0
1, 12066, Note_off_c, 4, 37, 0
1, 12069, Note_off_c, 0, 73, 0
1, 12069, Note_off_c, 1, 73, 0
1, 12069, Note_off_c, 2, 73, 0
1, 12069, Note_off_c, 6, 61, 0
1, 12069, Note_off_c, 6, 57, 0
1, 12070, Note_off_c, 5, 75, 0
1, 12072, Note_on_c, 0, 61, 80
1, 12072, Note_on_c, 1, 61, 80
1, 12072, Note_on_c, 2, 61, 80
1, 12072, Note_on_c, 5, 76, 96
1, 12072, Note_on_c, 6, 61, 96
1, 12072, Note_on_c, 6, 56, 96
1, 12082, Note_off_c, 5, 76, 0
1, 12084, Note_on_c, 5, 73, 96
1, 12093, Note_off_c, 6, 61, 0
1, 12093, Note_off_c, 6, 56, 0
1, 12094, Note_off_c, 5, 73, 0
1, 12096, Note_on_c, 5, 80, 96
1, 12096, Note_on_c, 6, 60, 96
1, 12096, Note_on_c, 6, 54, 96
1, 12114, Note_off_c, 0, 61, 0
1, 12114, Note_off_c, 1, 61, 0
1, 12114, Note_off_c, 2, 61, 0
1, 12117, Note_off_c, 5, 80, 0
1, 12117, Note_off_c, 6, 60, 0
1, 12117, Note_off_c, 6, 54, 0
1, 12120, Note_on_c, 5, 80, 96
1, 12120, Note_on_c, 6, 61, 96
1, 12120, Note_on_c, 6, 52, 96
1, 12130, Note_off_c, 5, 80, 0
1, 12132, Note_on_c, 5, 81, 96
1, 12137, Note_off_c, 5, 81, 0
1, 12138, Note_on_c, 5, 80, 96
1, 12141, Note_off_c, 6, 52, 0
1, 12143, Note_off_c, 5, 80, 0
1, 12144, Note_on_c, 5, 78, 96
1, 12144, Note_on_c, 6, 49, 96
1, 12154, Note_off_c, 5, 78, 0
1, 12156, Note_on_c, 5, 80, 96
1, 12162, Note_off_c, 6, 61, 0
1, 12165, Note_off_c, 6, 49, 0
1, 12166, Note_off_c, 5, 80, 0
1, 12168, Note_on_c, 5, 81, 96
1, 12168, Note_on_c, 6, 54, 96
1, 12178, Note_off_c, 5, 81, 0
1, 12180, Note_on_c, 5, 80, 96
1, 12189, Note_off_c, 6, 54, 0
1, 12190, Note_off_c, 5, 80, 0
1, 12192, Note_on_c, 5, 78, 96
1, 12192, Note_on_c, 6, 54, 96
1, 12192, Note_on_c, 6, 42, 96
1, 12202, Note_off_c, 5, 78, 0
1, 12204, Note_on_c, 5, 81, 96
1, 12213, Note_off_c, 6, 54, 0
1, 12213, Note_off_c, 6, 42, 0
1, 12214, Note_off_c, 5, 81, 0
1, 12216, Note_on_c, 3, 49, 80
1, 12216, Note_on_c, 4, 37, 80
1, 12216, Note_on_c, 5, 80, 96
1, 12216, Note_on_c, 6, 52, 96
1, 12216, Note_on_c, 6, 49, 96
1, 12226, Note_off_c, 5, 80, 0
1, 12228, Note_on_c, 5, 76, 96
1, 12237, Note_off_c, 6, 52, 0
1, 12237, Note_off_c, 6, 49, 0
1, 12238, Note_off_c, 5, 76, 0
1, 12240, Note_on_c, 0, 73, 80
1, 12240, Note_on_c, 1, 73, 80
1, 12240, Note_on_c, 2, 73, 80
1, 12240, Note_on_c, 5, 73, 96
1, 12240, Note_on_c, 6, 54, 96
1, 12240, Note_on_c, 6, 51, 96
1, 12258, Note_off_c, 3, 49, 0
1, 12258, Note_off_c, 4, 37, 0
1, 12261, Note_off_c, 0, 73, 0
1, 12261, Note_off_c, 1, 73, 0
1, 12261, Note_off_c, 2, 73, 0
1, 12261, Note_off_c, 5, 73, 0
1, 12261, Note_off_c, 6, 54, 0
1, 12261, Note_off_c, 6, 51, 0
1, 12264, Note_on_c, 0, 61, 80
1, 12264, Note_on_c, 1, 61, 80
1, 12264, Note_on_c, 2, 61, 80
1, 12264, Note_on_c, 6, 56, 96
1, 12264, Note_on_c, 6, 52, 96
1, 12285, Note_off_c, 6, 56, 0
1, 12285, Note_off_c, 6, 52, 0
1, 12288, Note_on_c, 5, 76, 96
1, 12288, Note_on_c, 6, 61, 96
1, 12288, Note_on_c, 6, 49, 96
1, 12306, Note_off_c, 0, 61, 0
1, 12306, Note_off_c, 1, 61, 0
1, 12306, Note_off_c, 2, 61, 0
1, 12309, Note_off_c, 5, 76, 0
1, 12309, Note_off_c, 6, 61, 0
1, 12309, Note_off_c, 6, 49, 0
1, 12312, Note_on_c, 3, 54, 80
1, 12312, Note_on_c, 4, 42, 80
1, 12312, Note_on_c, 5, 75, 96
1, 12312, Note_on_c, 6, 61, 96
1, 12312, Note_on_c, 6, 54, 96
1, 12318, Note_off_c, 5, 75, 0
1, 12333, Note_off_c, 3, 54, 0
1, 12333, Note_off_c, 4, 42, 0
1, 12333, Note_off_c, 6, 54, 0
1, 12336, Note_on_c, 5, 75, 96
1, 12336, Note_on_c, 6, 57, 96
1, 12342, Note_off_c, 5, 75, 0
1, 12342, Note_on_c, 5, 77, 96
1, 12348, Note_off_c, 5, 77, 0
1, 12348, Note_on_c, 5, 78, 96
1, 12357, Note_off_c, 6, 57, 0
1, 12358, Note_off_c, 5, 78, 0
1, 12360, Note_on_c, 3, 56, 80
1, 12360, Note_on_c, 4, 44, 80
1, 12360, Note_on_c, 5, 77, 96
1, 12360, Note_on_c, 6, 56, 96
1, 12366, Note_off_c, 5, 77, 0
1, 12381, Note_off_c, 3, 56, 0
1, 12381, Note_off_c, 4, 44, 0
1, 12381, Note_off_c, 6, 56, 0
1, 12384, Note_on_c, 5, 77, 96
1, 12384, Note_on_c, 6, 59, 96
1, 12390, Note_off_c, 5, 77, 0
1, 12390, Note_on_c, 5, 78, 96
1, 12396, Note_off_c, 5, 78, 0
1, 12396, Note_on_c, 5, 80, 96
1, 12405, Note_off_c, 6, 59, 0
1, 12406, Note_off_c, 5, 80, 0
1, 12408, Note_on_c, 3, 57, 80
1, 12408, Note_on_c, 4, 45, 80
1, 12408, Note_on_c, 5, 80, 96
1, 12408, Note_on_c, 6, 57, 96
1, 12418, Note_off_c, 6, 57, 0
1, 12420, Note_on_c, 6, 56, 96
1, 12429, Note_off_c, 3, 57, 0
1, 12429, Note_off_c, 4, 45, 0
1, 12430, Note_off_c, 6, 56, 0
1, 12432, Note_on_c, 0, 73, 80
1, 12432, Note_on_c, 1, 73, 80
1, 12432, Note_on_c, 2, 73, 80
1, 12432, Note_off_c, 5, 80, 0
1, 12432, Note_on_c, 5, 78, 96
1, 12432, Note_off_c, 6, 61, 0
1, 12432, Note_on_c, 6, 57, 96
1, 12442, Note_off_c, 6, 57, 0
1, 12444, Note_on_c, 6, 54, 96
1, 12453, Note_off_c, 0, 73, 0
1, 12453, Note_off_c, 1, 73, 0
1, 12453, Note_off_c, 2, 73, 0
1, 12453, Note_off_c, 5, 78, 0
1, 12454, Note_off_c, 6, 54, 0
1, 12456, Note_on_c, 0, 61, 80
1, 12456, Note_on_c, 1, 61, 80
1, 12456, Note_on_c, 2, 61, 80
1, 12456, Note_on_c, 3, 59, 80
1, 12456, Note_on_c, 4, 47, 80
1, 12456, Note_on_c, 6, 59, 96
1, 12466, Note_off_c, 6, 59, 0
1, 12468, Note_on_c, 6, 57, 96
1, 12477, Note_off_c, 3, 59, 0
1, 12477, Note_off_c, 4, 47, 0
1, 12478, Note_off_c, 6, 57, 0
1, 12480, Note_on_c, 5, 77, 96
1, 12480, Note_on_c, 6, 59, 96
1, 12490, Note_off_c, 6, 59, 0
1, 12492, Note_on_c, 6, 56, 96
1, 12498, Note_off_c, 0, 61, 0
1, 12498, Note_off_c, 1, 61, 0
1, 12498, Note_off_c, 2, 61, 0
1, 12501, Note_off_c, 5, 77, 0
1, 12502, Note_off_c, 6, 56, 0
1, 12504, Note_on_c, 3, 57, 80
1, 12504, Note_on_c, 4, 45, 80
1, 12504, Note_on_c, 5, 78, 96
1, 12504, Note_on_c, 6, 57, 96
1, 12510, Note_off_c, 5, 78, 0
1, 12514, Note_off_c, 6, 57, 0
1, 12516, Note_on_c, 6, 56, 96
1, 12525, Note_off_c, 3, 57, 0
1, 12525, Note_off_c, 4, 45, 0
1, 12526, Note_off_c, 6, 56, 0
1, 12528, Note_on_c, 5, 78, 96
1, 12528, Note_on_c, 6, 57, 96
1, 12538, Note_off_c, 5, 78, 0
1, 12538, Note_off_c, 6, 57, 0
1, 12540, Note_on_c, 5, 81, 96
1, 12540, Note_on_c, 6, 54, 96
1, 12550, Note_off_c, 5, 81, 0
1, 12550, Note_off_c, 6, 54, 0
1, 12552, Note_on_c, 3, 61, 80
1, 12552, Note_on_c, 4, 49, 80
1, 12552, Note_on_c, 5, 80, 96
1, 12552, Note_on_c, 6, 53, 96
1, 12558, Note_off_c, 5, 80, 0
1, 12562, Note_off_c, 6, 53, 0
1, 12564, Note_on_c, 6, 51, 96
1, 12573, Note_off_c, 3, 61, 0
1, 12573, Note_off_c, 4, 49, 0
1, 12574, Note_off_c, 6, 51, 0
1, 12576, Note_on_c, 5, 80, 96
1, 12576, Note_on_c, 6, 53, 96
1, 12586, Note_off_c, 5, 80, 0
1, 12586, Note_off_c, 6, 53, 0
1, 12588, Note_on_c, 5, 83, 96
1, 12588, Note_on_c, 6, 49, 96
1, 12598, Note_off_c, 5, 83, 0
1, 12598, Note_off_c, 6, 49, 0
1, 12600, Note_on_c, 3, 54, 80
1, 12600, Note_on_c, 4, 42, 80
1, 12600, Note_on_c, 5, 81, 96
1, 12600, Note_on_c, 6, 54, 96
1, 12606, Note_off_c, 5, 81, 0
1, 12606, Note_on_c, 5, 83, 96
1, 12612, Note_off_c, 5, 83, 0
1, 12612, Note_on_c, 5, 81, 96
1, 12621, Note_off_c, 3, 54, 0
1, 12621, Note_off_c, 4, 42, 0
1, 12621, Note_off_c, 6, 54, 0
1, 12622, Note_off_c, 5, 81, 0
1, 12624, Note_on_c, 0, 73, 80
1, 12624, Note_on_c, 1, 73, 80
1, 12624, Note_on_c, 2, 73, 80
1, 12624, Note_on_c, 3, 49, 80
1, 12624, Note_on_c, 4, 37, 80
1, 12624, Note_on_c, 5, 80, 96
1, 12624, Note_on_c, 6, 49, 96
1, 12634, Note_off_c, 6, 49, 0
1, 12636, Note_on_c, 6, 51, 96
1, 12645, Note_off_c, 0, 73, 0
1, 12645, Note_off_c, 1, 73, 0
1, 12645, Note_off_c, 2, 73, 0
1, 12645, Note_off_c, 3, 49, 0
1, 12645, Note_off_c, 4, 37, 0
1, 12645, Note_off_c, 5, 80, 0
1, 12646, Note_off_c, 6, 51, 0
1, 12648, Note_on_c, 0, 61, 80
1, 12648, Note_on_c, 1, 61, 80
1, 12648, Note_on_c, 2, 61, 80
1, 12648, Note_on_c, 6, 53, 96
1, 12658, Note_off_c, 6, 53, 0
1, 12660, Note_on_c, 6, 49, 96
1, 12670, Note_off_c, 6, 49, 0
1, 12672, Note_on_c, 5, 81, 96
1, 12672, Note_on_c, 6, 54, 96
1, 12678, Note_off_c, 5, 81, 0
1, 12678, Note_on_c, 5, 80, 96
1, 12684, Note_off_c, 5, 80, 0
1, 12684, Note_on_c, 5, 78, 96
1, 12690, Note_off_c, 0, 61, 0
1, 12690, Note_off_c, 1, 61, 0
1, 12690, Note_off_c, 2, 61, 0
1, 12693, Note_off_c, 6, 54, 0
1, 12694, Note_off_c, 5, 78, 0
1, 12696, Note_on_c, 5, 83, 96
1, 12696, Note_on_c, 6, 50, 96
1, 12717, Note_off_c, 5, 83, 0
1, 12717, Note_off_c, 6, 50, 0
1, 12720, Note_on_c, 0, 76, 80
1, 12720, Note_on_c, 5, 81, 96
1, 12720, Note_on_c, 6, 54, 96
1, 12741, Note_off_c, 0, 76, 0
1, 12741, Note_off_c, 5, 81, 0
1, 12741, Note_off_c, 6, 54, 0
1, 12744, Note_on_c, 0, 74, 80
1, 12744, Note_on_c, 6, 59, 96
1, 12756, Note_on_c, 5, 80, 96
1, 12765, Note_off_c, 0, 74, 0
1, 12765, Note_off_c, 6, 59, 0
1, 12766, Note_off_c, 5, 80, 0
1, 12768, Note_on_c, 0, 73, 80
1, 12768, Note_on_c, 5, 81, 96
1, 12768, Note_on_c, 6, 61, 96
1, 12773, Note_off_c, 5, 81, 0
1, 12774, Note_on_c, 5, 80, 96
1, 12779, Note_off_c, 5, 80, 0
1, 12780, Note_on_c, 5, 78, 96
1, 12789, Note_off_c, 0, 73, 0
1, 12789, Note_off_c, 6, 61, 0
1, 12790, Note_off_c, 5, 78, 0
1, 12792, Note_on_c, 5, 80, 96
1, 12792, Note_on_c, 6, 62, 96
1, 12802, Note_off_c, 5, 80, 0
1, 12802, Note_off_c, 6, 62, 0
1, 12804, Note_on_c, 5, 77, 96
1, 12804, Note_on_c, 6, 61, 96
1, 12814, Note_off_c, 5, 77, 0
1, 12814, Note_off_c, 6, 61, 0
1, 12816, Note_on_c, 0, 73, 80
1, 12816, Note_on_c, 5, 78, 96
1, 12816, Note_on_c, 6, 59, 96
1, 12826, Note_off_c, 6, 59, 0
1, 12828, Note_on_c, 6, 57, 96
1, 12837, Note_off_c, 0, 73, 0
1, 12837, Note_off_c, 5, 78, 0
1, 12838, Note_off_c, 6, 57, 0
1, 12840, Note_on_c, 0, 71, 80
1, 12840, Note_on_c, 5, 76, 96
1, 12840, Note_on_c, 6, 56, 96
1, 12850, Note_off_c, 6, 56, 0
1, 12852, Note_on_c, 6, 53, 96
1, 12861, Note_off_c, 0, 71, 0
1, 12862, Note_off_c, 6, 53, 0
1, 12864, Note_on_c, 0, 69, 80
1, 12864, Note_off_c, 5, 76, 0
1, 12864, Note_on_c, 5, 74, 96
1, 12864, Note_on_c, 6, 54, 96
1, 12885, Note_off_c, 0, 69, 0
1, 12885, Note_off_c, 6, 54, 0
1, 12888, Note_on_c, 0, 68, 80
1, 12888, Note_on_c, 6, 53, 96
1, 12895, Note_off_c, 5, 74, 0
1, 12900, Note_on_c, 5, 73, 96
1, 12910, Note_off_c, 5, 73, 0
1, 12912, Note_on_c, 5, 71, 96
1, 12922, Note_off_c, 5, 71, 0
1, 12924, Note_on_c, 5, 74, 96
1, 12930, Note_off_c, 0, 68, 0
1, 12930, Note_off_c, 6, 53, 0
1, 12934, Note_off_c, 5, 74, 0
1, 12936, Note_on_c, 5, 73, 96
1, 12946, Note_off_c, 5, 73, 0
1, 12948, Note_on_c, 5, 71, 96
1, 12953, Note_off_c, 5, 71, 0
1, 12954, Note_on_c, 5, 69, 96
1, 12959, Note_off_c, 5, 69, 0
1, 12960, Note_on_c, 5, 71, 96
1, 12960, Note_on_c, 6, 49, 96
1, 12970, Note_off_c, 5, 71, 0
1, 12972, Note_on_c, 5, 68, 96
1, 12981, Note_off_c, 6, 49, 0
1, 12982, Note_off_c, 5, 68, 0
1, 12984, Note_on_c, 5, 69, 96
1, 12984, Note_on_c, 6, 54, 96
1, 12994, Note_off_c, 5, 69, 0
1, 12996, Note_on_c, 5, 73, 96
1, 13005, Note_off_c, 6, 54, 0
1, 13006, Note_off_c, 5, 73, 0
1, 13008, Note_on_c, 5, 78, 96
1, 13008, Note_on_c, 6, 50, 96
1, 13018, Note_off_c, 5, 78, 0
1, 13020, Note_on_c, 5, 80, 96
1, 13029, Note_off_c, 6, 50, 0
1, 13030, Note_off_c, 5, 80, 0
1, 13032, Note_on_c, 5, 80, 96
1, 13032, Note_on_c, 6, 47, 96
1, 13053, Note_off_c, 6, 47, 0
1, 13056, Note_on_c, 0, 73, 80
1, 13056, Note_on_c, 6, 49, 96
1, 13063, Note_off_c, 5, 80, 0
1, 13068, Note_on_c, 5, 78, 96
1, 13077, Note_off_c, 0, 73, 0
1, 13077, Note_off_c, 6, 49, 0
1, 13078, Note_off_c, 5, 78, 0
1, 13080, Note_on_c, 0, 78, 80
1, 13080, Note_on_c, 5, 78, 96
1, 13080, Note_on_c, 6, 50, 96
1, 13090, Note_off_c, 0, 78, 0
1, 13092, Note_on_c, 0, 77, 80
1, 13101, Note_off_c, 6, 50, 0
1, 13102, Note_off_c, 0, 77, 0
1, 13104, Note_on_c, 0, 78, 80
1, 13104, Note_on_c, 6, 49, 96
1, 13114, Note_off_c, 0, 78, 0
1, 13114, Note_off_c, 6, 49, 0
1, 13116, Note_on_c, 0, 81, 80
1, 13116, Note_on_c, 6, 47, 96
1, 13122, Note_off_c, 5, 78, 0
1, 13126, Note_off_c, 0, 81, 0
1, 13126, Note_off_c, 6, 47, 0
1, 13128, Note_on_c, 0, 78, 80
1, 13128, Note_on_c, 6, 45, 96
1, 13138, Note_off_c, 0, 78, 0
1, 13140, Note_on_c, 0, 73, 80
1, 13149, Note_off_c, 6, 45, 0
1, 13150, Note_off_c, 0, 73, 0
1, 13152, Note_on_c, 0, 69, 80
1, 13152, Note_on_c, 5, 73, 96
1, 13152, Note_on_c, 6, 42, 96
1, 13162, Note_off_c, 0, 69, 0
1, 13164, Note_on_c, 0, 73, 80
1, 13173, Note_off_c, 5, 73, 0
1, 13173, Note_off_c, 6, 42, 0
1, 13174, Note_off_c, 0, 73, 0
1, 13176, Note_on_c, 0, 66, 80
1, 13176, Note_on_c, 5, 74, 96
1, 13176, Note_on_c, 6, 47, 96
1, 13186, Note_off_c, 0, 66, 0
1, 13188, Note_on_c, 0, 73, 80
1, 13188, Note_off_c, 5, 74, 0
1, 13188, Note_on_c, 5, 77, 96
1, 13197, Note_off_c, 6, 47, 0
1, 13198, Note_off_c, 0, 73, 0
1, 13198, Note_off_c, 5, 77, 0
1, 13200, Note_on_c, 0, 69, 80
1, 13200, Note_on_c, 5, 78, 96
1, 13200, Note_on_c, 6, 49, 96
1, 13206, Note_off_c, 5, 78, 0
1, 13206, Note_off_c, 6, 49, 0
1, 13206, Note_on_c, 6, 47, 96
1, 13210, Note_off_c, 0, 69, 0
1, 13212, Note_on_c, 0, 73, 80
1, 13212, Note_off_c, 6, 47, 0
1, 13212, Note_on_c, 6, 45, 96
1, 13222, Note_off_c, 0, 73, 0
1, 13222, Note_off_c, 6, 45, 0
1, 13224, Note_on_c, 0, 66, 80
1, 13224, Note_on_c, 5, 74, 96
1, 13224, Note_on_c, 6, 47, 96
1, 13234, Note_off_c, 0, 66, 0
1, 13236, Note_on_c, 0, 73, 80
1, 13236, Note_off_c, 5, 74, 0
1, 13236, Note_on_c, 5, 73, 96
1, 13245, Note_off_c, 6, 47, 0
1, 13246, Note_off_c, 0, 73, 0
1, 13246, Note_off_c, 5, 73, 0
1, 13248, Note_on_c, 0, 69, 80
1, 13248, Note_on_c, 5, 78, 96
1, 13248, Note_on_c, 6, 49, 96
1, 13254, Note_off_c, 5, 78, 0
1, 13254, Note_off_c, 6, 49, 0
1, 13254, Note_on_c, 6, 47, 96
1, 13258, Note_off_c, 0, 69, 0
1, 13260, Note_on_c, 0, 73, 80
1, 13260, Note_off_c, 6, 47, 0
1, 13260, Note_on_c, 6, 45, 96
1, 13270, Note_off_c, 0, 73, 0
1, 13270, Note_off_c, 6, 45, 0
1, 13272, Note_on_c, 0, 78, 80
1, 13272, Note_on_c, 5, 71, 96
1, 13272, Note_on_c, 6, 44, 96
1, 13277, Note_off_c, 5, 71, 0
1, 13278, Note_on_c, 5, 69, 96
1, 13282, Note_off_c, 0, 78, 0
1, 13283, Note_off_c, 5, 69, 0
1, 13284, Note_on_c, 0, 77, 80
1, 13284, Note_on_c, 5, 68, 96
1, 13293, Note_off_c, 6, 44, 0
1, 13294, Note_off_c, 0, 77, 0
1, 13294, Note_off_c, 5, 68, 0
1, 13296, Note_on_c, 0, 78, 80
1, 13296, Note_on_c, 3, 42, 80
1, 13296, Note_on_c, 4, 30, 80
1, 13296, Note_on_c, 5, 69, 96
1, 13296, Note_on_c, 6, 42, 96
1, 13302, Note_off_c, 5, 69, 0
1, 13306, Note_off_c, 0, 78, 0
1, 13308, Note_on_c, 0, 81, 80
1, 13317, Note_off_c, 3, 42, 0
1, 13317, Note_off_c, 4, 30, 0
1, 13317, Note_off_c, 6, 42, 0
1, 13318, Note_off_c, 0, 81, 0
1, 13320, Note_on_c, 0, 78, 80
1, 13320, Note_on_c, 3, 45, 80
1, 13320, Note_on_c, 4, 33, 80
1, 13320, Note_on_c, 6, 45, 96
1, 13330, Note_off_c, 0, 78, 0
1, 13332, Note_on_c, 0, 73, 80
1, 13341, Note_off_c, 3, 45, 0
1, 13341, Note_off_c, 4, 33, 0
1, 13341, Note_off_c, 6, 45, 0
1, 13342, Note_off_c, 0, 73, 0
1, 13344, Note_on_c, 0, 69, 80
1, 13344, Note_on_c, 1, 77, 80
1, 13344, Note_on_c, 2, 61, 80
1, 13344, Note_on_c, 3, 49, 80
1, 13344, Note_on_c, 4, 37, 80
1, 13344, Note_on_c, 5, 73, 96
1, 13344, Note_on_c, 6, 49, 96
1, 13354, Note_off_c, 0, 69, 0
1, 13356, Note_on_c, 0, 73, 80
1, 13365, Note_off_c, 1, 77, 0
1, 13365, Note_off_c, 2, 61, 0
1, 13365, Note_off_c, 3, 49, 0
1, 13365, Note_off_c, 4, 37, 0
1, 13365, Note_off_c, 5, 73, 0
1, 13365, Note_off_c, 6, 49, 0
1, 13366, Note_off_c, 0, 73, 0
1, 13368, Note_on_c, 0, 66, 80
1, 13368, Note_on_c, 1, 78, 80
1, 13368, Note_on_c, 2, 61, 80
1, 13368, Note_on_c, 3, 54, 80
1, 13368, Note_on_c, 4, 42, 80
1, 13368, Note_on_c, 5, 71, 96
1, 13368, Note_on_c, 6, 54, 96
1, 13374, Note_off_c, 5, 71, 0
1, 13374, Note_on_c, 5, 69, 96
1, 13378, Note_off_c, 0, 66, 0
1, 13378, Note_off_c, 6, 54, 0
1, 13379, Note_off_c, 5, 69, 0
1, 13380, Note_on_c, 0, 73, 80
1, 13380, Note_on_c, 5, 68, 96
1, 13380, Note_on_c, 6, 53, 96
1, 13389, Note_off_c, 1, 78, 0
1, 13389, Note_off_c, 2, 61, 0
1, 13390, Note_off_c, 0, 73, 0
1, 13390, Note_off_c, 5, 68, 0
1, 13390, Note_off_c, 6, 53, 0
1, 13392, Note_on_c, 0, 69, 80
1, 13392, Note_on_c, 1, 73, 80
1, 13392, Note_on_c, 2, 66, 80
1, 13392, Note_on_c, 5, 66, 96
1, 13392, Note_on_c, 6, 54, 96
1, 13402, Note_off_c, 0, 69, 0
1, 13402, Note_off_c, 5, 66, 0
1, 13404, Note_on_c, 0, 73, 80
1, 13404, Note_on_c, 5, 68, 96
1, 13410, Note_off_c, 3, 54, 0
1, 13410, Note_off_c, 4, 42, 0
1, 13413, Note_off_c, 1, 73, 0
1, 13413, Note_off_c, 2, 66, 0
1, 13413, Note_off_c, 6, 54, 0
1, 13414, Note_off_c, 0, 73, 0
1, 13414, Note_off_c, 5, 68, 0
1, 13416, Note_on_c, 0, 78, 80
1, 13416, Note_on_c, 1, 66, 80
1, 13416, Note_on_c, 2, 61, 80
1, 13416, Note_on_c, 5, 69, 96
1, 13426, Note_off_c, 0, 78, 0
1, 13428, Note_on_c, 0, 73, 80
1, 13428, Note_off_c, 5, 69, 0
1, 13428, Note_on_c, 5, 68, 96
1, 13437, Note_off_c, 1, 66, 0
1, 13437, Note_off_c, 2, 61, 0
1, 13438, Note_off_c, 0, 73, 0
1, 13438, Note_off_c, 5, 68, 0
1, 13440, Note_on_c, 0, 80, 80
1, 13440, Note_on_c, 1, 77, 80
1, 13440, Note_on_c, 2, 59, 80
1, 13440, Note_on_c, 3, 42, 80
1, 13440, Note_on_c, 4, 30, 80
1, 13440, Note_on_c, 5, 71, 96
1, 13440, Note_on_c, 6, 42, 96
1, 13450, Note_off_c, 0, 80, 0
1, 13452, Note_on_c, 0, 73, 80
1, 13452, Note_off_c, 5, 71, 0
1, 13452, Note_on_c, 5, 69, 96
1, 13461, Note_off_c, 1, 77, 0
1, 13461, Note_off_c, 2, 59, 0
1, 13461, Note_off_c, 3, 42, 0
1, 13461, Note_off_c, 4, 30, 0
1, 13461, Note_off_c, 6, 42, 0
1, 13462, Note_off_c, 0, 73, 0
1, 13462, Note_off_c, 5, 69, 0
1, 13464, Note_on_c, 0, 81, 80
1, 13464, Note_on_c, 1, 78, 80
1, 13464, Note_on_c, 2, 57, 80
1, 13464, Note_on_c, 3, 54, 80
1, 13464, Note_on_c, 4, 42, 80
1, 13464, Note_on_c, 5, 73, 96
1, 13464, Note_on_c, 6, 54, 96
1, 13476, Note_off_c, 5, 73, 0
1, 13476, Note_on_c, 5, 71, 96
1, 13485, Note_off_c, 0, 81, 0
1, 13485, Note_off_c, 1, 78, 0
1, 13485, Note_off_c, 2, 57, 0
1, 13485, Note_off_c, 3, 54, 0
1, 13485, Note_off_c, 4, 42, 0
1, 13485, Note_off_c, 6, 54, 0
1, 13486, Note_off_c, 5, 71, 0
1, 13488, Note_on_c, 0, 80, 80
1, 13488, Note_on_c, 1, 80, 80
1, 13488, Note_on_c, 2, 64, 80
1, 13488, Note_on_c, 3, 52, 80
1, 13488, Note_on_c, 4, 40, 80
1, 13488, Note_on_c, 5, 74, 96
1, 13488, Note_on_c, 6, 52, 96
1, 13500, Note_off_c, 5, 74, 0
1, 13500, Note_on_c, 5, 73, 96
1, 13509, Note_off_c, 0, 80, 0
1, 13509, Note_off_c, 1, 80, 0
1, 13509, Note_off_c, 2, 64, 0
1, 13509, Note_off_c, 3, 52, 0
1, 13509, Note_off_c, 4, 40, 0
1, 13509, Note_off_c, 6, 52, 0
1, 13510, Note_off_c, 5, 73, 0
1, 13512, Note_on_c, 0, 83, 80
1, 13512, Note_on_c, 1, 78, 80
1, 13512, Note_on_c, 2, 59, 80
1, 13512, Note_on_c, 3, 50, 80
1, 13512, Note_on_c, 4, 38, 80
1, 13512, Note_on_c, 5, 78, 96
1, 13512, Note_on_c, 6, 50, 96
1, 13524, Note_off_c, 5, 78, 0
1, 13524, Note_on_c, 5, 76, 96
1, 13533, Note_off_c, 0, 83, 0
1, 13533, Note_off_c, 1, 78, 0
1, 13533, Note_off_c, 2, 59, 0
1, 13533, Note_off_c, 3, 50, 0
1, 13533, Note_off_c, 4, 38, 0
1, 13533, Note_off_c, 6, 50, 0
1, 13534, Note_off_c, 5, 76, 0
1, 13536, Note_on_c, 0, 81, 80
1, 13536, Note_on_c, 1, 78, 80
1, 13536, Note_on_c, 2, 61, 80
1, 13536, Note_on_c, 3, 49, 80
1, 13536, Note_on_c, 4, 37, 80
1, 13536, Note_on_c, 5, 76, 96
1, 13536, Note_on_c, 6, 49, 96
1, 13548, Note_off_c, 5, 76, 0
1, 13548, Note_on_c, 5, 74, 96
1, 13557, Note_off_c, 0, 81, 0
1, 13557, Note_off_c, 1, 78, 0
1, 13557, Note_off_c, 2, 61, 0
1, 13557, Note_off_c, 3, 49, 0
1, 13557, Note_off_c, 4, 37, 0
1, 13557, Note_off_c, 6, 49, 0
1, 13558, Note_off_c, 5, 74, 0
1, 13560, Note_on_c, 0, 80, 80
1, 13560, Note_on_c, 1, 77, 80
1, 13560, Note_on_c, 2, 68, 80
1, 13560, Note_on_c, 3, 47, 80
1, 13560, Note_on_c, 4, 35, 80
1, 13560, Note_on_c, 5, 74, 96
1, 13560, Note_on_c, 6, 47, 96
1, 13572, Note_off_c, 5, 74, 0
1, 13572, Note_on_c, 5, 73, 96
1, 13581, Note_off_c, 0, 80, 0
1, 13581, Note_off_c, 1, 77, 0
1, 13581, Note_off_c, 2, 68, 0
1, 13581, Note_off_c, 3, 47, 0
1, 13581, Note_off_c, 4, 35, 0
1, 13581, Note_off_c, 6, 47, 0
1, 13582, Note_off_c, 5, 73, 0
1, 13584, Note_on_c, 0, 78, 80
1, 13584, Note_on_c, 1, 78, 80
1, 13584, Note_on_c, 2, 69, 80
1, 13584, Note_on_c, 3, 45, 80
1, 13584, Note_on_c, 4, 33, 80
1, 13584, Note_on_c, 5, 73, 96
1, 13584, Note_on_c, 6, 45, 96
1, 13596, Note_off_c, 5, 73, 0
1, 13596, Note_on_c, 5, 71, 96
1, 13605, Note_off_c, 0, 78, 0
1, 13605, Note_off_c, 1, 78, 0
1, 13605, Note_off_c, 2, 69, 0
1, 13605, Note_off_c, 3, 45, 0
1, 13605, Note_off_c, 4, 33, 0
1, 13605, Note_off_c, 6, 45, 0
1, 13606, Note_off_c, 5, 71, 0
1, 13608, Note_on_c, 0, 85, 80
1, 13608, Note_on_c, 1, 80, 80
1, 13608, Note_on_c, 2, 68, 80
1, 13608, Note_on_c, 3, 41, 80
1, 13608, Note_on_c, 4, 29, 80
1, 13608, Note_on_c, 5, 71, 96
1, 13608, Note_on_c, 6, 41, 96
1, 13620, Note_off_c, 5, 71, 0
1, 13620, Note_on_c, 5, 69, 96
1, 13629, Note_off_c, 1, 80, 0
1, 13629, Note_off_c, 2, 68, 0
1, 13629, Note_off_c, 3, 41, 0
1, 13629, Note_off_c, 4, 29, 0
1, 13629, Note_off_c, 6, 41, 0
1, 13630, Note_off_c, 5, 69, 0
1, 13632, Note_on_c, 1, 78, 80
1, 13632, Note_on_c, 2, 61, 80
1, 13632, Note_on_c, 3, 42, 80
1, 13632, Note_on_c, 4, 30, 80
1, 13632, Note_on_c, 5, 69, 96
1, 13632, Note_on_c, 6, 42, 96
1, 13644, Note_off_c, 5, 69, 0
1, 13644, Note_on_c, 5, 68, 96
1, 13653, Note_off_c, 1, 78, 0
1, 13653, Note_off_c, 2, 61, 0
1, 13653, Note_off_c, 3, 42, 0
1, 13653, Note_off_c, 4, 30, 0
1, 13653, Note_off_c, 6, 42, 0
1, 13654, Note_off_c, 5, 68, 0
1, 13656, Note_on_c, 1, 77, 80
1, 13656, Note_on_c, 2, 61, 80
1, 13656, Note_on_c, 3, 47, 80
1, 13656, Note_on_c, 4, 35, 80
1, 13656, Note_on_c, 5, 68, 96
1, 13656, Note_on_c, 6, 47, 96
1, 13656, Note_on_c, 6, 35, 96
1, 13660, Note_off_c, 0, 85, 0
1, 13666, Note_off_c, 5, 68, 0
1, 13668, Note_on_c, 0, 78, 80
1, 13668, Note_on_c, 5, 69, 96
1, 13678, Note_off_c, 0, 78, 0
1, 13678, Note_off_c, 5, 69, 0
1, 13680, Note_on_c, 0, 77, 80
1, 13680, Note_on_c, 5, 71, 96
1, 13690, Note_off_c, 0, 77, 0
1, 13690, Note_off_c, 5, 71, 0
1, 13692, Note_on_c, 0, 78, 80
1, 13692, Note_on_c, 5, 68, 96
1, 13698, Note_off_c, 1, 77, 0
1, 13698, Note_off_c, 2, 61, 0
1, 13698, Note_off_c, 3, 47, 0
1, 13698, Note_off_c, 4, 35, 0
1, 13698, Note_off_c, 6, 47, 0
1, 13698, Note_off_c, 6, 35, 0
1, 13702, Note_off_c, 0, 78, 0
1, 13702, Note_off_c, 5, 68, 0
1, 13704, Note_on_c, 0, 80, 80
1, 13704, Note_on_c, 5, 65, 96
1, 13714, Note_off_c, 5, 65, 0
1, 13716, Note_on_c, 5, 68, 96
1, 13721, Note_off_c, 5, 68, 0
1, 13722, Note_on_c, 5, 71, 96
1, 13725, Note_off_c, 0, 80, 0
1, 13727, Note_off_c, 5, 71, 0
1, 13728, Note_on_c, 0, 78, 80
1, 13728, Note_on_c, 1, 74, 80
1, 13728, Note_on_c, 2, 59, 80
1, 13728, Note_on_c, 3, 44, 80
1, 13728, Note_on_c, 4, 32, 80
1, 13728, Note_on_c, 5, 74, 96
1, 13728, Note_on_c, 6, 44, 96
1, 13740, Note_off_c, 1, 74, 0
1, 13740, Note_on_c, 1, 71, 80
1, 13749, Note_off_c, 0, 78, 0
1, 13749, Note_off_c, 2, 59, 0
1, 13749, Note_off_c, 3, 44, 0
1, 13749, Note_off_c, 4, 32, 0
1, 13749, Note_off_c, 6, 44, 0
1, 13750, Note_off_c, 1, 71, 0
1, 13752, Note_on_c, 0, 77, 80
1, 13752, Note_on_c, 1, 68, 80
1, 13752, Note_on_c, 2, 59, 80
1, 13752, Note_on_c, 3, 49, 80
1, 13752, Note_on_c, 4, 37, 80
1, 13752, Note_on_c, 6, 49, 96
1, 13754, Note_off_c, 5, 74, 0
1, 13758, Note_on_c, 5, 73, 96
1, 13763, Note_off_c, 5, 73, 0
1, 13764, Note_on_c, 5, 71, 96
1, 13769, Note_off_c, 5, 71, 0
1, 13770, Note_on_c, 5, 69, 96
1, 13773, Note_off_c, 6, 49, 0
1, 13775, Note_off_c, 5, 69, 0
1, 13776, Note_on_c, 5, 71, 96
1, 13776, Note_on_c, 6, 53, 96
1, 13786, Note_off_c, 5, 71, 0
1, 13788, Note_on_c, 5, 74, 96
1, 13794, Note_off_c, 0, 77, 0
1, 13794, Note_off_c, 1, 68, 0
1, 13794, Note_off_c, 2, 59, 0
1, 13794, Note_off_c, 3, 49, 0
1, 13794, Note_off_c, 4, 37, 0
1, 13797, Note_off_c, 6, 53, 0
1, 13798, Note_off_c, 5, 74, 0
1, 13800, Note_on_c, 5, 77, 96
1, 13800, Note_on_c, 6, 56, 96
1, 13810, Note_off_c, 5, 77, 0
1, 13812, Note_on_c, 5, 71, 96
1, 13821, Note_off_c, 6, 56, 0
1, 13822, Note_off_c, 5, 71, 0
1, 13824, Note_on_c, 0, 77, 80
1, 13824, Note_on_c, 5, 80, 96
1, 13824, Note_on_c, 6, 49, 96
1, 13834, Note_off_c, 5, 80, 0
1, 13836, Note_on_c, 5, 71, 96
1, 13845, Note_off_c, 0, 77, 0
1, 13845, Note_off_c, 6, 49, 0
1, 13846, Note_off_c, 5, 71, 0
1, 13848, Note_on_c, 0, 78, 80
1, 13848, Note_on_c, 5, 69, 96
1, 13848, Note_on_c, 6, 54, 96
1, 13858, Note_off_c, 0, 78, 0
1, 13860, Note_on_c, 0, 73, 80
1, 13869, Note_off_c, 6, 54, 0
1, 13870, Note_off_c, 0, 73, 0
1, 13872, Note_on_c, 0, 74, 80
1, 13872, Note_on_c, 6, 59, 96
1, 13879, Note_off_c, 5, 69, 0
1, 13882, Note_off_c, 0, 74, 0
1, 13884, Note_on_c, 0, 83, 80
1, 13884, Note_on_c, 5, 68, 96
1, 13893, Note_off_c, 6, 59, 0
1, 13894, Note_off_c, 0, 83, 0
1, 13894, Note_off_c, 5, 68, 0
1, 13896, Note_on_c, 0, 77, 80
1, 13896, Note_on_c, 5, 68, 96
1, 13896, Note_on_c, 6, 61, 96
1, 13917, Note_off_c, 6, 61, 0
1, 13920, Note_on_c, 6, 49, 96
1, 13927, Note_off_c, 0, 77, 0
1, 13927, Note_off_c, 5, 68, 0
1, 13932, Note_on_c, 0, 78, 80
1, 13932, Note_on_c, 5, 66, 96
1, 13941, Note_off_c, 6, 49, 0
1, 13942, Note_off_c, 0, 78, 0
1, 13942, Note_off_c, 5, 66, 0
1, 13944, Note_on_c, 0, 78, 80
1, 13944, Note_on_c, 5, 66, 96
1, 13944, Note_on_c, 6, 54, 96
1, 13954, Note_off_c, 0, 78, 0
1, 13956, Note_on_c, 0, 66, 80
1, 13965, Note_off_c, 6, 54, 0
1, 13966, Note_off_c, 0, 66, 0
1, 13968, Note_on_c, 0, 69, 80
1, 13968, Note_on_c, 3, 42, 80
1, 13968, Note_on_c, 4, 30, 80
1, 13968, Note_on_c, 6, 42, 96
1, 13978, Note_off_c, 0, 69, 0
1, 13978, Note_off_c, 3, 42, 0
1, 13978, Note_off_c, 4, 30, 0
1, 13978, Note_off_c, 6, 42, 0
1, 13980, Note_on_c, 0, 73, 80
1, 13980, Note_on_c, 3, 44, 80
1, 13980, Note_on_c, 4, 32, 80
1, 13980, Note_on_c, 6, 44, 96
1, 13986, Note_off_c, 5, 66, 0
1, 13990, Note_off_c, 0, 73, 0
1, 13990, Note_off_c, 3, 44, 0
1, 13990, Note_off_c, 4, 32, 0
1, 13990, Note_off_c, 6, 44, 0
1, 13992, Note_on_c, 0, 78, 80
1, 13992, Note_on_c, 3, 45, 80
1, 13992, Note_on_c, 4, 33, 80
1, 13992, Note_on_c, 6, 45, 96
1, 14002, Note_off_c, 0, 78, 0
1, 14004, Note_on_c, 0, 76, 80
1, 14013, Note_off_c, 3, 45, 0
1, 14013, Note_off_c, 4, 33, 0
1, 14013, Note_off_c, 6, 45, 0
1, 14014, Note_off_c, 0, 76, 0
1, 14016, Note_on_c, 0, 74, 80
1, 14016, Note_on_c, 1, 69, 80
1, 14016, Note_on_c, 2, 66, 80
1, 14016, Note_on_c, 3, 42, 80
1, 14016, Note_on_c, 4, 30, 80
1, 14016, Note_on_c, 5, 78, 96
1, 14016, Note_on_c, 6, 42, 96
1, 14026, Note_off_c, 0, 74, 0
1, 14028, Note_on_c, 0, 73, 80
1, 14037, Note_off_c, 1, 69, 0
1, 14037, Note_off_c, 2, 66, 0
1, 14037, Note_off_c, 3, 42, 0
1, 14037, Note_off_c, 4, 30, 0
1, 14037, Note_off_c, 5, 78, 0
1, 14037, Note_off_c, 6, 42, 0
1, 14038, Note_off_c, 0, 73, 0
1, 14040, Note_on_c, 0, 66, 80
1, 14040, Note_on_c, 1, 71, 80
1, 14040, Note_on_c, 2, 66, 80
1, 14040, Note_on_c, 3, 47, 80
1, 14040, Note_on_c, 4, 35, 80
1, 14040, Note_on_c, 5, 74, 96
1, 14040, Note_on_c, 6, 47, 96
1, 14050, Note_off_c, 0, 66, 0
1, 14052, Note_on_c, 0, 74, 80
1, 14052, Note_off_c, 5, 74, 0
1, 14052, Note_on_c, 5, 77, 96
1, 14061, Note_off_c, 1, 71, 0
1, 14061, Note_off_c, 2, 66, 0
1, 14061, Note_off_c, 3, 47, 0
1, 14061, Note_off_c, 4, 35, 0
1, 14061, Note_off_c, 6, 47, 0
1, 14062, Note_off_c, 5, 77, 0
1, 14064, Note_off_c, 0, 74, 0
1, 14064, Note_on_c, 0, 73, 80
1, 14064, Note_on_c, 5, 78, 96
1, 14070, Note_off_c, 5, 78, 0
1, 14076, Note_off_c, 0, 73, 0
1, 14076, Note_on_c, 0, 71, 80
1, 14086, Note_off_c, 0, 71, 0
1, 14088, Note_on_c, 0, 66, 80
1, 14088, Note_on_c, 1, 61, 80
1, 14088, Note_on_c, 2, 66, 80
1, 14088, Note_on_c, 3, 45, 80
1, 14088, Note_on_c, 4, 33, 80
1, 14088, Note_on_c, 6, 45, 96
1, 14098, Note_off_c, 0, 66, 0
1, 14100, Note_on_c, 0, 73, 80
1, 14109, Note_off_c, 1, 61, 0
1, 14109, Note_off_c, 2, 66, 0
1, 14109, Note_off_c, 3, 45, 0
1, 14109, Note_off_c, 4, 33, 0
1, 14109, Note_off_c, 6, 45, 0
1, 14112, Note_off_c, 0, 73, 0
1, 14112, Note_on_c, 0, 71, 80
1, 14112, Note_on_c, 5, 73, 96
1, 14124, Note_off_c, 0, 71, 0
1, 14124, Note_on_c, 0, 69, 80
1, 14133, Note_off_c, 5, 73, 0
1, 14134, Note_off_c, 0, 69, 0
1, 14136, Note_on_c, 0, 65, 80
1, 14136, Note_on_c, 1, 65, 80
1, 14136, Note_on_c, 2, 68, 80
1, 14136, Note_on_c, 3, 44, 80
1, 14136, Note_on_c, 4, 32, 80
1, 14136, Note_on_c, 5, 71, 96
1, 14136, Note_on_c, 6, 44, 96
1, 14146, Note_off_c, 0, 65, 0
1, 14148, Note_on_c, 0, 71, 80
1, 14148, Note_off_c, 5, 71, 0
1, 14148, Note_on_c, 5, 77, 96
1, 14157, Note_off_c, 1, 65, 0
1, 14157, Note_off_c, 2, 68, 0
1, 14157, Note_off_c, 3, 44, 0
1, 14157, Note_off_c, 4, 32, 0
1, 14157, Note_off_c, 6, 44, 0
1, 14158, Note_off_c, 5, 77, 0
1, 14160, Note_off_c, 0, 71, 0
1, 14160, Note_on_c, 0, 69, 80
1, 14160, Note_on_c, 5, 78, 96
1, 14166, Note_off_c, 5, 78, 0
1, 14172, Note_off_c, 0, 69, 0
1, 14172, Note_on_c, 0, 68, 80
1, 14182, Note_off_c, 0, 68, 0
1, 14184, Note_on_c, 0, 69, 80
1, 14184, Note_on_c, 1, 66, 80
1, 14184, Note_on_c, 2, 61, 80
1, 14184, Note_on_c, 3, 42, 80
1, 14184, Note_on_c, 4, 30, 80
1, 14184, Note_on_c, 6, 42, 96
1, 14196, Note_on_c, 5, 69, 96
1, 14205, Note_off_c, 0, 69, 0
1, 14205, Note_off_c, 1, 66, 0
1, 14205, Note_off_c, 2, 61, 0
1, 14205, Note_off_c, 3, 42, 0
1, 14205, Note_off_c, 4, 30, 0
1, 14205, Note_off_c, 6, 42, 0
1, 14206, Note_off_c, 5, 69, 0
1, 14208, Note_on_c, 0, 81, 80
1, 14208, Note_on_c, 5, 71, 96
1, 14218, Note_off_c, 5, 71, 0
1, 14220, Note_on_c, 5, 73, 96
1, 14230, Note_off_c, 5, 73, 0
1, 14232, Note_on_c, 5, 74, 96
1, 14232, Note_on_c, 6, 47, 96
1, 14235, Note_off_c, 5, 74, 0
1, 14244, Note_on_c, 5, 77, 96
1, 14250, Note_off_c, 0, 81, 0
1, 14253, Note_off_c, 6, 47, 0
1, 14256, Note_on_c, 0, 80, 80
1, 14256, Note_off_c, 5, 77, 0
1, 14256, Note_on_c, 5, 78, 96
1, 14268, Note_off_c, 5, 78, 0
1, 14268, Note_on_c, 5, 80, 96
1, 14278, Note_off_c, 5, 80, 0
1, 14280, Note_on_c, 5, 73, 96
1, 14280, Note_on_c, 6, 45, 96
1, 14283, Note_off_c, 5, 73, 0
1, 14292, Note_on_c, 5, 77, 96
1, 14298, Note_off_c, 0, 80, 0
1, 14301, Note_off_c, 6, 45, 0
1, 14304, Note_on_c, 0, 78, 80
1, 14304, Note_off_c, 5, 77, 0
1, 14304, Note_on_c, 5, 78, 96
1, 14316, Note_off_c, 5, 78, 0
1, 14316, Note_on_c, 5, 80, 96
1, 14326, Note_off_c, 5, 80, 0
1, 14328, Note_on_c, 5, 71, 96
1, 14328, Note_on_c, 6, 44, 96
1, 14331, Note_off_c, 5, 71, 0
1, 14340, Note_on_c, 5, 77, 96
1, 14346, Note_off_c, 0, 78, 0
1, 14349, Note_off_c, 6, 44, 0
1, 14352, Note_on_c, 0, 77, 80
1, 14352, Note_off_c, 5, 77, 0
1, 14352, Note_on_c, 5, 78, 96
1, 14364, Note_off_c, 5, 78, 0
1, 14364, Note_on_c, 5, 80, 96
1, 14373, Note_off_c, 0, 77, 0
1, 14374, Note_off_c, 5, 80, 0
1, 14376, Note_on_c, 0, 78, 80
1, 14376, Note_on_c, 5, 69, 96
1, 14376, Note_on_c, 6, 42, 96
1, 14379, Note_off_c, 5, 69, 0
1, 14388, Note_on_c, 5, 73, 96
1, 14397, Note_off_c, 0, 78, 0
1, 14397, Note_off_c, 6, 42, 0
1, 14400, Note_on_c, 0, 80, 96
1, 14400, Note_on_c, 1, 73, 96
1, 14400, Note_on_c, 2, 71, 96
1, 14400, Note_on_c, 3, 49, 96
1, 14400, Note_on_c, 4, 37, 96
1, 14400, Note_off_c, 5, 73, 0
1, 14400, Note_on_c, 5, 77, 96
1, 14400, Note_on_c, 6, 49, 96
1, 14410, Note_off_c, 0, 80, 0
1, 14412, Note_on_c, 0, 77, 96
1, 14412, Note_off_c, 5, 77, 0
1, 14412, Note_on_c, 5, 80, 96
1, 14421, Note_off_c, 1, 73, 0
1, 14421, Note_off_c, 2, 71, 0
1, 14421, Note_off_c, 3, 49, 0
1, 14421, Note_off_c, 4, 37, 0
1, 14421, Note_off_c, 6, 49, 0
1, 14422, Note_off_c, 0, 77, 0
1, 14422, Note_off_c, 5, 80, 0
1, 14424, Note_on_c, 0, 78, 96
1, 14424, Note_on_c, 1, 66, 96
1, 14424, Note_on_c, 2, 69, 96
1, 14424, Note_on_c, 3, 50, 96
1, 14424, Note_on_c, 4, 38, 96
1, 14424, Note_on_c, 5, 78, 96
1, 14424, Note_on_c, 6, 50, 96
1, 14436, Note_off_c, 5, 78, 0
1, 14436, Note_on_c, 5, 77, 96
1, 14445, Note_off_c, 1, 66, 0
1, 14445, Note_off_c, 2, 69, 0
1, 14445, Note_off_c, 3, 50, 0
1, 14445, Note_off_c, 4, 38, 0
1, 14445, Note_off_c, 6, 50, 0
1, 14448, Note_on_c, 1, 74, 96
1, 14448, Note_on_c, 2, 68, 96
1, 14448, Note_on_c, 3, 47, 96
1, 14448, Note_on_c, 4, 35, 96
1, 14448, Note_off_c, 5, 77, 0
1, 14448, Note_on_c, 5, 78, 96
1, 14448, Note_on_c, 6, 59, 96
1, 14455, Note_off_c, 0, 78, 0
1, 14458, Note_off_c, 5, 78, 0
1, 14460, Note_on_c, 0, 80, 96
1, 14460, Note_on_c, 5, 83, 96
1, 14469, Note_off_c, 1, 74, 0
1, 14469, Note_off_c, 2, 68, 0
1, 14469, Note_off_c, 3, 47, 0
1, 14469, Note_off_c, 4, 35, 0
1, 14469, Note_off_c, 6, 59, 0
1, 14470, Note_off_c, 0, 80, 0
1, 14470, Note_off_c, 5, 83, 0
1, 14472, Note_on_c, 0, 77, 96
1, 14472, Note_on_c, 1, 73, 96
1, 14472, Note_on_c, 2, 68, 96
1, 14472, Note_on_c, 3, 49, 96
1, 14472, Note_on_c, 4, 37, 96
1, 14472, Note_on_c, 5, 80, 96
1, 14472, Note_on_c, 6, 61, 96
1, 14493, Note_off_c, 1, 73, 0
1, 14493, Note_off_c, 2, 68, 0
1, 14493, Note_off_c, 3, 49, 0
1, 14493, Note_off_c, 4, 37, 0
1, 14493, Note_off_c, 6, 61, 0
1, 14496, Note_on_c, 1, 73, 96
1, 14496, Note_on_c, 2, 71, 96
1, 14496, Note_on_c, 3, 37, 96
1, 14496, Note_on_c, 4, 25, 96
1, 14496, Note_on_c, 6, 49, 96
1, 14503, Note_off_c, 0, 77, 0
1, 14503, Note_off_c, 5, 80, 0
1, 14508, Note_on_c, 0, 78, 96
1, 14508, Note_on_c, 5, 78, 96
1, 14517, Note_off_c, 1, 73, 0
1, 14517, Note_off_c, 2, 71, 0
1, 14517, Note_off_c, 3, 37, 0
1, 14517, Note_off_c, 4, 25, 0
1, 14517, Note_off_c, 6, 49, 0
1, 14518, Note_off_c, 0, 78, 0
1, 14518, Note_off_c, 5, 78, 0
1, 14520, Note_on_c, 0, 78, 96
1, 14520, Note_on_c, 1, 73, 96
1, 14520, Note_on_c, 2, 69, 96
1, 14520, Note_on_c, 3, 42, 96
1, 14520, Note_on_c, 4, 30, 96
1, 14520, Note_on_c, 5, 78, 96
1, 14520, Note_on_c, 6, 42, 96
1, 14532, Note_off_c, 5, 78, 0
1, 14532, Note_on_c, 5, 76, 96
1, 14541, Note_off_c, 6, 42, 0
1, 14542, Note_off_c, 5, 76, 0
1, 14544, Note_on_c, 5, 76, 96
1, 14544, Note_on_c, 6, 49, 96
1, 14556, Note_off_c, 5, 76, 0
1, 14556, Note_on_c, 5, 75, 96
1, 14562, Note_off_c, 0, 78, 0
1, 14562, Note_off_c, 1, 73, 0
1, 14562, Note_off_c, 2, 69, 0
1, 14562, Note_off_c, 3, 42, 0
1, 14562, Note_off_c, 4, 30, 0
1, 14565, Note_off_c, 6, 49, 0
1, 14566, Note_off_c, 5, 75, 0
1, 14568, Note_on_c, 5, 75, 96
1, 14568, Note_on_c, 6, 54, 96
1, 14580, Note_off_c, 5, 75, 0
1, 14580, Note_on_c, 5, 73, 96
1, 14589, Note_off_c, 6, 54, 0
1, 14590, Note_off_c, 5, 73, 0
1, 14592, Note_on_c, 5, 73, 96
1, 14592, Note_on_c, 6, 57, 96
1, 14604, Note_off_c, 5, 73, 0
1, 14604, Note_on_c, 5, 72, 96
1, 14613, Note_off_c, 6, 57, 0
1, 14614, Note_off_c, 5, 72, 0
1, 14616, Note_on_c, 5, 72, 96
1, 14616, Note_on_c, 6, 56, 96
1, 14626, Note_off_c, 5, 72, 0
1, 14628, Note_on_c, 5, 81, 96
1, 14638, Note_off_c, 5, 81, 0
1, 14640, Note_on_c, 5, 80, 96
1, 14647, Note_off_c, 6, 56, 0
1, 14652, Note_on_c, 6, 54, 96
1, 14662, Note_off_c, 6, 54, 0
1, 14664, Note_on_c, 0, 80, 80
1, 14664, Note_on_c, 1, 71, 80
1, 14664, Note_on_c, 2, 61, 80
1, 14664, Note_on_c, 6, 53, 96
1, 14671, Note_off_c, 5, 80, 0
1, 14676, Note_on_c, 5, 71, 96
1, 14685, Note_off_c, 0, 80, 0
1, 14685, Note_off_c, 1, 71, 0
1, 14685, Note_off_c, 2, 61, 0
1, 14685, Note_off_c, 6, 53, 0
1, 14686, Note_off_c, 5, 71, 0
1, 14688, Note_on_c, 5, 73, 96
1, 14688, Note_on_c, 6, 49, 96
1, 14698, Note_off_c, 5, 73, 0
1, 14700, Note_on_c, 5, 74, 96
1, 14709, Note_off_c, 6, 49, 0
1, 14710, Note_off_c, 5, 74, 0
1, 14712, Note_on_c, 5, 70, 96
1, 14712, Note_on_c, 6, 54, 96
1, 14722, Note_off_c, 5, 70, 0
1, 14724, Note_on_c, 5, 80, 96
1, 14734, Note_off_c, 5, 80, 0
1, 14736, Note_on_c, 5, 78, 96
1, 14743, Note_off_c, 6, 54, 0
1, 14748, Note_on_c, 6, 52, 96
1, 14758, Note_off_c, 6, 52, 0
1, 14760, Note_on_c, 0, 78, 80
1, 14760, Note_on_c, 1, 69, 80
1, 14760, Note_on_c, 2, 66, 80
1, 14760, Note_on_c, 6, 51, 96
1, 14767, Note_off_c, 5, 78, 0
1, 14772, Note_on_c, 5, 69, 96
1, 14781, Note_off_c, 0, 78, 0
1, 14781, Note_off_c, 1, 69, 0
1, 14781, Note_off_c, 2, 66, 0
1, 14781, Note_off_c, 6, 51, 0
1, 14784, Note_off_c, 5, 69, 0
1, 14784, Note_on_c, 5, 71, 96
1, 14784, Note_on_c, 6, 47, 96
1, 14796, Note_off_c, 5, 71, 0
1, 14796, Note_on_c, 5, 73, 96
1, 14805, Note_off_c, 6, 47, 0
1, 14806, Note_off_c, 5, 73, 0
1, 14808, Note_on_c, 5, 68, 96
1, 14808, Note_on_c, 6, 52, 96
1, 14811, Note_off_c, 5, 68, 0
1, 14820, Note_on_c, 5, 78, 96
1, 14829, Note_off_c, 6, 52, 0
1, 14832, Note_off_c, 5, 78, 0
1, 14832, Note_on_c, 5, 76, 96
1, 14832, Note_on_c, 6, 56, 96
1, 14844, Note_off_c, 5, 76, 0
1, 14844, Note_on_c, 5, 75, 96
1, 14853, Note_off_c, 6, 56, 0
1, 14854, Note_off_c, 5, 75, 0
1, 14856, Note_on_c, 0, 76, 80
1, 14856, Note_on_c, 1, 73, 80
1, 14856, Note_on_c, 2, 68, 80
1, 14856, Note_on_c, 5, 73, 96
1, 14856, Note_on_c, 6, 58, 96
1, 14859, Note_off_c, 5, 73, 0
1, 14868, Note_on_c, 5, 83, 96
1, 14877, Note_off_c, 0, 76, 0
1, 14877, Note_off_c, 1, 73, 0
1, 14877, Note_off_c, 2, 68, 0
1, 14877, Note_off_c, 6, 58, 0
1, 14880, Note_off_c, 5, 83, 0
1, 14880, Note_on_c, 5, 82, 96
1, 14880, Note_on_c, 6, 61, 96
1, 14892, Note_off_c, 5, 82, 0
1, 14892, Note_on_c, 5, 80, 96
1, 14901, Note_off_c, 6, 61, 0
1, 14902, Note_off_c, 5, 80, 0
1, 14904, Note_on_c, 0, 75, 80
1, 14904, Note_on_c, 1, 70, 80
1, 14904, Note_on_c, 2, 67, 80
1, 14904, Note_on_c, 5, 79, 96
1, 14904, Note_on_c, 6, 51, 96
1, 14914, Note_off_c, 5, 79, 0
1, 14916, Note_on_c, 5, 76, 96
1, 14925, Note_off_c, 0, 75, 0
1, 14925, Note_off_c, 1, 70, 0
1, 14925, Note_off_c, 2, 67, 0
1, 14925, Note_off_c, 6, 51, 0
1, 14926, Note_off_c, 5, 76, 0
1, 14928, Note_on_c, 5, 75, 96
1, 14928, Note_on_c, 6, 55, 96
1, 14938, Note_off_c, 5, 75, 0
1, 14940, Note_on_c, 5, 73, 96
1, 14949, Note_off_c, 6, 55, 0
1, 14950, Note_off_c, 5, 73, 0
1, 14952, Note_on_c, 5, 71, 96
1, 14952, Note_on_c, 6, 44, 96
1, 14962, Note_off_c, 5, 71, 0
1, 14964, Note_on_c, 5, 70, 96
1, 14973, Note_off_c, 6, 44, 0
1, 14974, Note_off_c, 5, 70, 0
1, 14976, Note_on_c, 5, 68, 96
1, 14976, Note_on_c, 6, 63, 96
1, 14976, Note_on_c, 6, 47, 96
1, 14986, Note_off_c, 5, 68, 0
1, 14988, Note_on_c, 5, 67, 96
1, 14997, Note_off_c, 6, 63, 0
1, 14997, Note_off_c, 6, 47, 0
1, 14998, Note_off_c, 5, 67, 0
1, 15000, Note_on_c, 5, 68, 96
1, 15000, Note_on_c, 6, 61, 96
1, 15000, Note_on_c, 6, 52, 96
1, 15010, Note_off_c, 5, 68, 0
1, 15012, Note_on_c, 5, 72, 96
1, 15021, Note_off_c, 6, 61, 0
1, 15021, Note_off_c, 6, 52, 0
1, 15022, Note_off_c, 5, 72, 0
1, 15024, Note_on_c, 5, 73, 96
1, 15024, Note_on_c, 6, 67, 96
1, 15024, Note_on_c, 6, 46, 96
1, 15034, Note_off_c, 5, 73, 0
1, 15036, Note_on_c, 5, 76, 96
1, 15045, Note_off_c, 6, 67, 0
1, 15045, Note_off_c, 6, 46, 0
1, 15046, Note_off_c, 5, 76, 0
1, 15048, Note_on_c, 5, 75, 96
1, 15048, Note_on_c, 6, 68, 96
1, 15048, Note_on_c, 6, 56, 96
1, 15048, Note_on_c, 6, 47, 96
1, 15058, Note_off_c, 5, 75, 0
1, 15060, Note_on_c, 5, 79, 96
1, 15069, Note_off_c, 6, 56, 0
1, 15069, Note_off_c, 6, 47, 0
1, 15070, Note_off_c, 5, 79, 0
1, 15072, Note_on_c, 5, 80, 96
1, 15072, Note_on_c, 6, 44, 96
1, 15082, Note_off_c, 5, 80, 0
1, 15084, Note_on_c, 5, 83, 96
1, 15090, Note_off_c, 6, 68, 0
1, 15093, Note_off_c, 6, 44, 0
1, 15094, Note_off_c, 5, 83, 0
1, 15096, Note_on_c, 0, 71, 80
1, 15096, Note_on_c, 1, 68, 80
1, 15096, Note_on_c, 2, 64, 80
1, 15096, Note_on_c, 5, 74, 96
1, 15106, Note_off_c, 5, 74, 0
1, 15108, Note_on_c, 5, 73, 96
1, 15118, Note_off_c, 5, 73, 0
1, 15120, Note_on_c, 3, 59, 80
1, 15120, Note_on_c, 4, 47, 80
1, 15120, Note_on_c, 5, 74, 96
1, 15120, Note_on_c, 6, 59, 96
1, 15141, Note_off_c, 3, 59, 0
1, 15141, Note_off_c, 4, 47, 0
1, 15141, Note_off_c, 6, 59, 0
1, 15144, Note_on_c, 3, 56, 80
1, 15144, Note_on_c, 4, 44, 80
1, 15144, Note_on_c, 6, 56, 96
1, 15151, Note_off_c, 5, 74, 0
1, 15156, Note_on_c, 5, 78, 96
1, 15165, Note_off_c, 3, 56, 0
1, 15165, Note_off_c, 4, 44, 0
1, 15165, Note_off_c, 6, 56, 0
1, 15166, Note_off_c, 5, 78, 0
1, 15168, Note_on_c, 3, 52, 80
1, 15168, Note_on_c, 4, 40, 80
1, 15168, Note_on_c, 5, 76, 96
1, 15168, Note_on_c, 6, 52, 96
1, 15178, Note_off_c, 5, 76, 0
1, 15180, Note_off_c, 1, 68, 0
1, 15180, Note_on_c, 5, 74, 96
1, 15189, Note_off_c, 3, 52, 0
1, 15189, Note_off_c, 4, 40, 0
1, 15189, Note_off_c, 6, 52, 0
1, 15190, Note_off_c, 5, 74, 0
1, 15192, Note_on_c, 1, 73, 80
1, 15192, Note_on_c, 3, 57, 80
1, 15192, Note_on_c, 4, 45, 80
1, 15192, Note_on_c, 5, 73, 96
1, 15192, Note_on_c, 6, 57, 96
1, 15204, Note_off_c, 0, 71, 0
1, 15204, Note_off_c, 2, 64, 0
1, 15204, Note_off_c, 5, 73, 0
1, 15204, Note_on_c, 5, 71, 96
1, 15213, Note_off_c, 1, 73, 0
1, 15213, Note_off_c, 3, 57, 0
1, 15213, Note_off_c, 4, 45, 0
1, 15213, Note_off_c, 6, 57, 0
1, 15214, Note_off_c, 5, 71, 0
1, 15216, Note_on_c, 0, 69, 80
1, 15216, Note_on_c, 1, 66, 80
1, 15216, Note_on_c, 2, 69, 80
1, 15216, Note_on_c, 3, 54, 80
1, 15216, Note_on_c, 4, 42, 80
1, 15216, Note_on_c, 5, 74, 96
1, 15216, Note_on_c, 6, 54, 96
1, 15228, Note_off_c, 5, 74, 0
1, 15228, Note_on_c, 5, 73, 96
1, 15237, Note_off_c, 0, 69, 0
1, 15237, Note_off_c, 1, 66, 0
1, 15237, Note_off_c, 3, 54, 0
1, 15237, Note_off_c, 4, 42, 0
1, 15237, Note_off_c, 6, 54, 0
1, 15238, Note_off_c, 5, 73, 0
1, 15240, Note_on_c, 0, 78, 80
1, 15240, Note_on_c, 1, 71, 80
1, 15240, Note_on_c, 3, 50, 80
1, 15240, Note_on_c, 4, 38, 80
1, 15240, Note_on_c, 5, 71, 96
1, 15240, Note_on_c, 6, 50, 96
1, 15252, Note_off_c, 5, 71, 0
1, 15252, Note_on_c, 5, 69, 96
1, 15258, Note_off_c, 2, 69, 0
1, 15261, Note_off_c, 1, 71, 0
1, 15261, Note_off_c, 3, 50, 0
1, 15261, Note_off_c, 4, 38, 0
1, 15261, Note_off_c, 6, 50, 0
1, 15264, Note_on_c, 1, 74, 80
1, 15264, Note_on_c, 2, 71, 80
1, 15264, Note_on_c, 3, 47, 80
1, 15264, Note_on_c, 4, 35, 80
1, 15264, Note_off_c, 5, 69, 0
1, 15264, Note_on_c, 5, 68, 96
1, 15264, Note_on_c, 6, 47, 96
1, 15276, Note_off_c, 5, 68, 0
1, 15276, Note_on_c, 5, 69, 96
1, 15285, Note_off_c, 1, 74, 0
1, 15285, Note_off_c, 2, 71, 0
1, 15285, Note_off_c, 3, 47, 0
1, 15285, Note_off_c, 4, 35, 0
1, 15285, Note_off_c, 6, 47, 0
1, 15286, Note_off_c, 5, 69, 0
1, 15288, Note_on_c, 1, 68, 80
1, 15288, Note_on_c, 2, 59, 80
1, 15288, Note_on_c, 3, 52, 80
1, 15288, Note_on_c, 4, 40, 80
1, 15288, Note_on_c, 5, 71, 96
1, 15288, Note_on_c, 6, 52, 96
1, 15300, Note_off_c, 5, 71, 0
1, 15300, Note_on_c, 5, 68, 96
1, 15303, Note_off_c, 0, 78, 0
1, 15309, Note_off_c, 3, 52, 0
1, 15309, Note_off_c, 4, 40, 0
1, 15309, Note_off_c, 6, 52, 0
1, 15312, Note_on_c, 0, 76, 80
1, 15312, Note_on_c, 3, 47, 80
1, 15312, Note_on_c, 4, 35, 80
1, 15312, Note_off_c, 5, 68, 0
1, 15312, Note_on_c, 5, 66, 96
1, 15312, Note_on_c, 6, 47, 96
1, 15324, Note_off_c, 5, 66, 0
1, 15324, Note_on_c, 5, 64, 96
1, 15330, Note_off_c, 1, 68, 0
1, 15330, Note_off_c, 2, 59, 0
1, 15333, Note_off_c, 0, 76, 0
1, 15333, Note_off_c, 3, 47, 0
1, 15333, Note_off_c, 4, 35, 0
1, 15333, Note_off_c, 6, 47, 0
1, 15334, Note_off_c, 5, 64, 0
1, 15336, Note_on_c, 3, 44, 80
1, 15336, Note_on_c, 4, 32, 80
1, 15336, Note_on_c, 5, 76, 96
1, 15336, Note_on_c, 6, 44, 96
1, 15346, Note_off_c, 5, 76, 0
1, 15348, Note_on_c, 5, 74, 96
1, 15357, Note_off_c, 3, 44, 0
1, 15357, Note_off_c, 4, 32, 0
1, 15357, Note_off_c, 6, 44, 0
1, 15358, Note_off_c, 5, 74, 0
1, 15360, Note_on_c, 0, 68, 80
1, 15360, Note_on_c, 3, 40, 80
1, 15360, Note_on_c, 4, 28, 80
1, 15360, Note_on_c, 5, 73, 96
1, 15360, Note_on_c, 6, 40, 96
1, 15370, Note_off_c, 5, 73, 0
1, 15372, Note_on_c, 5, 74, 96
1, 15381, Note_off_c, 0, 68, 0
1, 15381, Note_off_c, 3, 40, 0
1, 15381, Note_off_c, 4, 28, 0
1, 15381, Note_off_c, 6, 40, 0
1, 15382, Note_off_c, 5, 74, 0
1, 15384, Note_on_c, 0, 69, 80
1, 15384, Note_on_c, 3, 45, 80
1, 15384, Note_on_c, 4, 33, 80
1, 15384, Note_on_c, 5, 74, 96
1, 15384, Note_on_c, 6, 45, 96
1, 15394, Note_off_c, 0, 69, 0
1, 15396, Note_on_c, 0, 68, 80
1, 15396, Note_off_c, 5, 74, 0
1, 15396, Note_on_c, 5, 73, 96
1, 15405, Note_off_c, 6, 45, 0
1, 15406, Note_off_c, 0, 68, 0
1, 15406, Note_off_c, 5, 73, 0
1, 15408, Note_on_c, 0, 69, 80
1, 15408, Note_on_c, 5, 71, 96
1, 15408, Note_on_c, 6, 49, 96
1, 15418, Note_off_c, 0, 69, 0
1, 15420, Note_on_c, 0, 73, 80
1, 15420, Note_off_c, 5, 71, 0
1, 15420, Note_on_c, 5, 69, 96
1, 15426, Note_off_c, 3, 45, 0
1, 15426, Note_off_c, 4, 33, 0
1, 15429, Note_off_c, 6, 49, 0
1, 15430, Note_off_c, 0, 73, 0
1, 15430, Note_off_c, 5, 69, 0
1, 15432, Note_on_c, 0, 69, 80
1, 15432, Note_on_c, 6, 52, 96
1, 15442, Note_off_c, 0, 69, 0
1, 15444, Note_on_c, 0, 64, 80
1, 15453, Note_off_c, 6, 52, 0
1, 15454, Note_off_c, 0, 64, 0
1, 15456, Note_on_c, 0, 61, 80
1, 15456, Note_on_c, 5, 76, 96
1, 15456, Note_on_c, 6, 57, 96
1, 15466, Note_off_c, 0, 61, 0
1, 15466, Note_off_c, 6, 57, 0
1, 15468, Note_on_c, 0, 64, 80
1, 15468, Note_on_c, 6, 49, 96
1, 15477, Note_off_c, 5, 76, 0
1, 15478, Note_off_c, 0, 64, 0
1, 15478, Note_off_c, 6, 49, 0
1, 15480, Note_on_c, 0, 57, 80
1, 15480, Note_on_c, 5, 78, 96
1, 15480, Note_on_c, 6, 50, 96
1, 15490, Note_off_c, 0, 57, 0
1, 15490, Note_off_c, 5, 78, 0
1, 15492, Note_on_c, 0, 64, 80
1, 15492, Note_on_c, 5, 80, 96
1, 15501, Note_off_c, 6, 50, 0
1, 15502, Note_off_c, 0, 64, 0
1, 15502, Note_off_c, 5, 80, 0
1, 15504, Note_on_c, 0, 61, 80
1, 15504, Note_on_c, 5, 81, 96
1, 15504, Note_on_c, 6, 52, 96
1, 15514, Note_off_c, 0, 61, 0
1, 15514, Note_off_c, 5, 81, 0
1, 15516, Note_on_c, 0, 64, 80
1, 15516, Note_on_c, 5, 80, 96
1, 15525, Note_off_c, 6, 52, 0
1, 15526, Note_off_c, 0, 64, 0
1, 15526, Note_off_c, 5, 80, 0
1, 15528, Note_on_c, 0, 57, 80
1, 15528, Note_on_c, 5, 81, 96
1, 15528, Note_on_c, 6, 54, 96
1, 15538, Note_off_c, 0, 57, 0
1, 15540, Note_on_c, 0, 64, 80
1, 15549, Note_off_c, 5, 81, 0
1, 15549, Note_off_c, 6, 54, 0
1, 15550, Note_off_c, 0, 64, 0
1, 15552, Note_on_c, 0, 61, 80
1, 15552, Note_on_c, 5, 76, 96
1, 15552, Note_on_c, 6, 57, 96
1, 15562, Note_off_c, 0, 61, 0
1, 15564, Note_on_c, 0, 64, 80
1, 15573, Note_off_c, 5, 76, 0
1, 15573, Note_off_c, 6, 57, 0
1, 15574, Note_off_c, 0, 64, 0
1, 15576, Note_on_c, 0, 69, 80
1, 15576, Note_on_c, 5, 80, 96
1, 15576, Note_on_c, 6, 50, 96
1, 15582, Note_off_c, 5, 80, 0
1, 15582, Note_on_c, 5, 78, 96
1, 15586, Note_off_c, 0, 69, 0
1, 15588, Note_on_c, 0, 68, 80
1, 15588, Note_off_c, 5, 78, 0
1, 15588, Note_on_c, 5, 80, 96
1, 15594, Note_off_c, 5, 80, 0
1, 15594, Note_on_c, 5, 78, 96
1, 15597, Note_off_c, 6, 50, 0
1, 15598, Note_off_c, 0, 68, 0
1, 15599, Note_off_c, 5, 78, 0
1, 15600, Note_on_c, 0, 69, 80
1, 15600, Note_on_c, 5, 76, 96
1, 15600, Note_on_c, 6, 49, 96
1, 15610, Note_off_c, 0, 69, 0
1, 15610, Note_off_c, 6, 49, 0
1, 15612, Note_on_c, 0, 73, 80
1, 15612, Note_on_c, 6, 47, 96
1, 15621, Note_off_c, 5, 76, 0
1, 15622, Note_off_c, 0, 73, 0
1, 15622, Note_off_c, 6, 47, 0
1, 15624, Note_on_c, 0, 69, 80
1, 15624, Note_on_c, 6, 49, 96
1, 15634, Note_off_c, 0, 69, 0
1, 15636, Note_on_c, 0, 64, 80
1, 15645, Note_off_c, 6, 49, 0
1, 15646, Note_off_c, 0, 64, 0
1, 15648, Note_on_c, 0, 61, 80
1, 15648, Note_on_c, 5, 76, 96
1, 15648, Note_on_c, 6, 45, 96
1, 15658, Note_off_c, 0, 61, 0
1, 15660, Note_on_c, 0, 64, 80
1, 15660, Note_off_c, 5, 76, 0
1, 15660, Note_on_c, 5, 79, 96
1, 15669, Note_off_c, 6, 45, 0
1, 15670, Note_off_c, 0, 64, 0
1, 15670, Note_off_c, 5, 79, 0
1, 15672, Note_on_c, 0, 57, 80
1, 15672, Note_on_c, 5, 78, 96
1, 15672, Note_on_c, 6, 50, 96
1, 15682, Note_off_c, 0, 57, 0
1, 15684, Note_on_c, 0, 64, 80
1, 15684, Note_off_c, 5, 78, 0
1, 15693, Note_off_c, 6, 50, 0
1, 15694, Note_off_c, 0, 64, 0
1, 15696, Note_on_c, 0, 61, 80
1, 15696, Note_on_c, 5, 76, 96
1, 15696, Note_on_c, 6, 57, 96
1, 15706, Note_off_c, 0, 61, 0
1, 15708, Note_on_c, 0, 64, 80
1, 15717, Note_off_c, 5, 76, 0
1, 15717, Note_off_c, 6, 57, 0
1, 15718, Note_off_c, 0, 64, 0
1, 15720, Note_on_c, 0, 69, 80
1, 15720, Note_on_c, 5, 74, 96
1, 15720, Note_on_c, 6, 54, 96
1, 15730, Note_off_c, 0, 69, 0
1, 15732, Note_on_c, 0, 64, 80
1, 15741, Note_off_c, 5, 74, 0
1, 15741, Note_off_c, 6, 54, 0
1, 15742, Note_off_c, 0, 64, 0
1, 15744, Note_on_c, 0, 71, 80
1, 15744, Note_on_c, 5, 73, 96
1, 15744, Note_on_c, 6, 56, 96
1, 15750, Note_off_c, 5, 73, 0
1, 15750, Note_on_c, 5, 74, 96
1, 15754, Note_off_c, 0, 71, 0
1, 15756, Note_on_c, 0, 64, 80
1, 15756, Note_off_c, 5, 74, 0
1, 15756, Note_on_c, 5, 76, 96
1, 15765, Note_off_c, 6, 56, 0
1, 15766, Note_off_c, 0, 64, 0
1, 15766, Note_off_c, 5, 76, 0
1, 15768, Note_on_c, 0, 73, 80
1, 15768, Note_on_c, 5, 73, 96
1, 15768, Note_on_c, 6, 57, 96
1, 15778, Note_off_c, 5, 73, 0
1, 15780, Note_on_c, 5, 69, 96
1, 15789, Note_off_c, 0, 73, 0
1, 15789, Note_off_c, 6, 57, 0
1, 15790, Note_off_c, 5, 69, 0
1, 15792, Note_on_c, 0, 71, 80
1, 15792, Note_on_c, 5, 71, 96
1, 15792, Note_on_c, 6, 56, 96
1, 15798, Note_off_c, 5, 71, 0
1, 15798, Note_on_c, 5, 69, 96
1, 15804, Note_off_c, 5, 69, 0
1, 15804, Note_on_c, 5, 71, 96
1, 15813, Note_off_c, 0, 71, 0
1, 15813, Note_off_c, 6, 56, 0
1, 15814, Note_off_c, 5, 71, 0
1, 15816, Note_on_c, 0, 74, 80
1, 15816, Note_on_c, 6, 54, 96
1, 15837, Note_off_c, 0, 74, 0
1, 15837, Note_off_c, 6, 54, 0
1, 15840, Note_on_c, 0, 73, 80
1, 15840, Note_on_c, 5, 81, 96
1, 15840, Note_on_c, 6, 52, 96
1, 15846, Note_off_c, 5, 81, 0
1, 15846, Note_on_c, 5, 80, 96
1, 15852, Note_off_c, 5, 80, 0
1, 15852, Note_on_c, 5, 78, 96
1, 15861, Note_off_c, 0, 73, 0
1, 15861, Note_off_c, 6, 52, 0
1, 15862, Note_off_c, 5, 78, 0
1, 15864, Note_on_c, 0, 71, 80
1, 15864, Note_on_c, 5, 80, 96
1, 15864, Note_on_c, 6, 50, 96
1, 15874, Note_off_c, 5, 80, 0
1, 15876, Note_on_c, 5, 81, 96
1, 15885, Note_off_c, 0, 71, 0
1, 15885, Note_off_c, 6, 50, 0
1, 15886, Note_off_c, 5, 81, 0
1, 15888, Note_on_c, 0, 69, 80
1, 15888, Note_on_c, 5, 83, 96
1, 15888, Note_on_c, 6, 49, 96
1, 15894, Note_off_c, 5, 83, 0
1, 15894, Note_on_c, 5, 81, 96
1, 15898, Note_off_c, 6, 49, 0
1, 15899, Note_off_c, 5, 81, 0
1, 15900, Note_on_c, 5, 80, 96
1, 15900, Note_on_c, 6, 47, 96
1, 15905, Note_off_c, 5, 80, 0
1, 15906, Note_on_c, 5, 81, 96
1, 15909, Note_off_c, 0, 69, 0
1, 15910, Note_off_c, 6, 47, 0
1, 15911, Note_off_c, 5, 81, 0
1, 15912, Note_on_c, 0, 76, 80
1, 15912, Note_on_c, 5, 83, 96
1, 15912, Note_on_c, 6, 45, 96
1, 15922, Note_off_c, 6, 45, 0
1, 15924, Note_on_c, 6, 44, 96
1, 15933, Note_off_c, 5, 83, 0
1, 15934, Note_off_c, 6, 44, 0
1, 15936, Note_on_c, 5, 74, 96
1, 15936, Note_on_c, 6, 42, 96
1, 15946, Note_off_c, 6, 42, 0
1, 15948, Note_on_c, 6, 44, 96
1, 15957, Note_off_c, 5, 74, 0
1, 15958, Note_off_c, 6, 44, 0
1, 15960, Note_on_c, 5, 74, 96
1, 15960, Note_on_c, 6, 45, 96
1, 15964, Note_off_c, 0, 76, 0
1, 15966, Note_off_c, 5, 74, 0
1, 15966, Note_on_c, 5, 73, 96
1, 15972, Note_on_c, 0, 78, 80
1, 15972, Note_off_c, 5, 73, 0
1, 15972, Note_on_c, 5, 74, 96
1, 15978, Note_off_c, 5, 74, 0
1, 15978, Note_on_c, 5, 73, 96
1, 15981, Note_off_c, 6, 45, 0
1, 15982, Note_off_c, 0, 78, 0
1, 15984, Note_on_c, 0, 80, 80
1, 15984, Note_off_c, 5, 73, 0
1, 15984, Note_on_c, 5, 74, 96
1, 15984, Note_on_c, 6, 50, 96
1, 15990, Note_off_c, 5, 74, 0
1, 15990, Note_on_c, 5, 73, 96
1, 15994, Note_off_c, 0, 80, 0
1, 15995, Note_off_c, 5, 73, 0
1, 15996, Note_on_c, 0, 81, 80
1, 15996, Note_on_c, 5, 71, 96
1, 16005, Note_off_c, 6, 50, 0
1, 16006, Note_off_c, 0, 81, 0
1, 16006, Note_off_c, 5, 71, 0
1, 16008, Note_on_c, 0, 80, 80
1, 16008, Note_on_c, 5, 73, 96
1, 16008, Note_on_c, 6, 52, 96
1, 16014, Note_off_c, 5, 73, 0
1, 16014, Note_on_c, 5, 71, 96
1, 16018, Note_off_c, 0, 80, 0
1, 16020, Note_on_c, 0, 78, 80
1, 16020, Note_off_c, 5, 71, 0
1, 16020, Note_on_c, 5, 73, 96
1, 16026, Note_off_c, 5, 73, 0
1, 16026, Note_on_c, 5, 71, 96
1, 16029, Note_off_c, 6, 52, 0
1, 16030, Note_off_c, 0, 78, 0
1, 16032, Note_on_c, 0, 76, 96
1, 16032, Note_on_c, 1, 68, 96
1, 16032, Note_on_c, 2, 64, 96
1, 16032, Note_on_c, 3, 40, 96
1, 16032, Note_on_c, 4, 28, 96
1, 16032, Note_off_c, 5, 71, 0
1, 16032, Note_on_c, 5, 73, 96
1, 16032, Note_on_c, 6, 40, 96
1, 16038, Note_off_c, 5, 73, 0
1, 16038, Note_on_c, 5, 71, 96
1, 16042, Note_off_c, 0, 76, 0
1, 16043, Note_off_c, 5, 71, 0
1, 16044, Note_on_c, 0, 74, 96
1, 16044, Note_on_c, 5, 69, 96
1, 16053, Note_off_c, 1, 68, 0
1, 16053, Note_off_c, 2, 64, 0
1, 16053, Note_off_c, 3, 40, 0
1, 16053, Note_off_c, 4, 28, 0
1, 16053, Note_off_c, 6, 40, 0
1, 16054, Note_off_c, 0, 74, 0
1, 16054, Note_off_c, 5, 69, 0
1, 16056, Note_on_c, 0, 73, 96
1, 16056, Note_on_c, 1, 69, 96
1, 16056, Note_on_c, 2, 64, 96
1, 16056, Note_on_c, 3, 45, 96
1, 16056, Note_on_c, 4, 33, 96
1, 16056, Note_on_c, 5, 69, 96
1, 16056, Note_on_c, 6, 45, 96
1, 16066, Note_off_c, 0, 73, 0
1, 16068, Note_on_c, 0, 71, 96
1, 16077, Note_off_c, 3, 45, 0
1, 16077, Note_off_c, 4, 33, 0
1, 16077, Note_off_c, 6, 45, 0
1, 16078, Note_off_c, 0, 71, 0
1, 16080, Note_on_c, 0, 69, 96
1, 16080, Note_on_c, 3, 49, 96
1, 16080, Note_on_c, 4, 37, 96
1, 16080, Note_on_c, 6, 49, 96
1, 16090, Note_off_c, 0, 69, 0
1, 16092, Note_on_c, 0, 68, 96
1, 16098, Note_off_c, 5, 69, 0
1, 16101, Note_off_c, 3, 49, 0
1, 16101, Note_off_c, 4, 37, 0
1, 16101, Note_off_c, 6, 49, 0
1, 16102, Note_off_c, 0, 68, 0
1, 16104, Note_on_c, 0, 66, 96
1, 16104, Note_on_c, 3, 54, 96
1, 16104, Note_on_c, 4, 42, 96
1, 16104, Note_on_c, 6, 54, 96
1, 16114, Note_off_c, 0, 66, 0
1, 16116, Note_on_c, 0, 79, 96
1, 16116, Note_on_c, 5, 79, 96
1, 16119, Note_off_c, 2, 64, 0
1, 16125, Note_off_c, 3, 54, 0
1, 16125, Note_off_c, 4, 42, 0
1, 16125, Note_off_c, 6, 54, 0
1, 16126, Note_off_c, 0, 79, 0
1, 16126, Note_off_c, 5, 79, 0
1, 16128, Note_on_c, 0, 78, 96
1, 16128, Note_on_c, 2, 62, 96
1, 16128, Note_on_c, 3, 57, 96
1, 16128, Note_on_c, 4, 45, 96
1, 16128, Note_on_c, 5, 78, 96
1, 16128, Note_on_c, 6, 57, 96
1, 16138, Note_off_c, 0, 78, 0
1, 16138, Note_off_c, 2, 62, 0
1, 16138, Note_off_c, 5, 78, 0
1, 16140, Note_on_c, 0, 76, 96
1, 16140, Note_on_c, 2, 61, 96
1, 16140, Note_on_c, 5, 76, 96
1, 16149, Note_off_c, 3, 57, 0
1, 16149, Note_off_c, 4, 45, 0
1, 16149, Note_off_c, 6, 57, 0
1, 16150, Note_off_c, 0, 76, 0
1, 16150, Note_off_c, 2, 61, 0
1, 16150, Note_off_c, 5, 76, 0
1, 16152, Note_on_c, 0, 74, 96
1, 16152, Note_off_c, 1, 69, 0
1, 16152, Note_on_c, 2, 59, 96
1, 16152, Note_on_c, 3, 47, 96
1, 16152, Note_on_c, 4, 35, 96
1, 16152, Note_on_c, 5, 74, 96
1, 16152, Note_on_c, 6, 47, 96
1, 16162, Note_off_c, 0, 74, 0
1, 16162, Note_off_c, 5, 74, 0
1, 16164, Note_on_c, 0, 73, 96
1, 16164, Note_on_c, 1, 76, 96
1, 16164, Note_on_c, 5, 73, 96
1, 16173, Note_off_c, 2, 59, 0
1, 16173, Note_off_c, 3, 47, 0
1, 16173, Note_off_c, 4, 35, 0
1, 16173, Note_off_c, 6, 47, 0
1, 16174, Note_off_c, 0, 73, 0
1, 16174, Note_off_c, 1, 76, 0
1, 16174, Note_off_c, 5, 73, 0
1, 16176, Note_on_c, 0, 71, 96
1, 16176, Note_on_c, 1, 74, 96
1, 16176, Note_on_c, 2, 66, 96
1, 16176, Note_on_c, 3, 50, 96
1, 16176, Note_on_c, 4, 38, 96
1, 16176, Note_on_c, 5, 71, 96
1, 16176, Note_on_c, 6, 50, 96
1, 16186, Note_off_c, 0, 71, 0
1, 16186, Note_off_c, 1, 74, 0
1, 16186, Note_off_c, 5, 71, 0
1, 16188, Note_on_c, 0, 69, 96
1, 16188, Note_on_c, 1, 73, 96
1, 16188, Note_on_c, 5, 69, 96
1, 16197, Note_off_c, 2, 66, 0
1, 16197, Note_off_c, 3, 50, 0
1, 16197, Note_off_c, 4, 38, 0
1, 16197, Note_off_c, 6, 50, 0
1, 16198, Note_off_c, 0, 69, 0
1, 16198, Note_off_c, 1, 73, 0
1, 16198, Note_off_c, 5, 69, 0
1, 16200, Note_on_c, 0, 68, 96
1, 16200, Note_on_c, 1, 71, 96
1, 16200, Note_on_c, 2, 68, 96
1, 16200, Note_on_c, 3, 52, 96
1, 16200, Note_on_c, 4, 40, 96
1, 16200, Note_on_c, 5, 68, 96
1, 16200, Note_on_c, 6, 52, 96
1, 16210, Note_off_c, 0, 68, 0
1, 16210, Note_off_c, 5, 68, 0
1, 16212, Note_on_c, 0, 66, 96
1, 16212, Note_on_c, 5, 66, 96
1, 16221, Note_off_c, 2, 68, 0
1, 16221, Note_off_c, 3, 52, 0
1, 16221, Note_off_c, 4, 40, 0
1, 16221, Note_off_c, 6, 52, 0
1, 16222, Note_off_c, 0, 66, 0
1, 16222, Note_off_c, 5, 66, 0
1, 16224, Note_on_c, 0, 64, 96
1, 16224, Note_on_c, 2, 71, 96
1, 16224, Note_on_c, 3, 56, 96
1, 16224, Note_on_c, 4, 44, 96
1, 16224, Note_on_c, 5, 64, 96
1, 16224, Note_on_c, 6, 56, 96
1, 16234, Note_off_c, 0, 64, 0
1, 16234, Note_off_c, 5, 64, 0
1, 16236, Note_on_c, 0, 62, 96
1, 16236, Note_on_c, 5, 62, 96
1, 16245, Note_off_c, 2, 71, 0
1, 16245, Note_off_c, 3, 56, 0
1, 16245, Note_off_c, 4, 44, 0
1, 16245, Note_off_c, 6, 56, 0
1, 16246, Note_off_c, 0, 62, 0
1, 16246, Note_off_c, 5, 62, 0
1, 16248, Note_on_c, 0, 61, 96
1, 16248, Note_on_c, 2, 64, 96
1, 16248, Note_on_c, 3, 57, 96
1, 16248, Note_on_c, 4, 45, 96
1, 16248, Note_on_c, 5, 61, 96
1, 16248, Note_on_c, 6, 57, 96
1, 16260, Note_off_c, 5, 61, 0
1, 16263, Note_off_c, 1, 71, 0
1, 16269, Note_off_c, 0, 61, 0
1, 16269, Note_off_c, 2, 64, 0
1, 16269, Note_off_c, 3, 57, 0
1, 16269, Note_off_c, 4, 45, 0
1, 16269, Note_off_c, 6, 57, 0
1, 16272, Note_on_c, 0, 69, 96
1, 16272, Note_on_c, 1, 69, 96
1, 16272, Note_on_c, 2, 66, 96
1, 16272, Note_on_c, 3, 54, 96
1, 16272, Note_on_c, 4, 42, 96
1, 16272, Note_on_c, 5, 69, 96
1, 16272, Note_on_c, 6, 54, 96
1, 16284, Note_off_c, 5, 69, 0
1, 16293, Note_off_c, 0, 69, 0
1, 16293, Note_off_c, 1, 69, 0
1, 16293, Note_off_c, 2, 66, 0
1, 16293, Note_off_c, 3, 54, 0
1, 16293, Note_off_c, 4, 42, 0
1, 16293, Note_off_c, 6, 54, 0
1, 16296, Note_on_c, 0, 59, 96
1, 16296, Note_on_c, 1, 66, 96
1, 16296, Note_on_c, 2, 66, 96
1, 16296, Note_on_c, 3, 50, 96
1, 16296, Note_on_c, 4, 38, 96
1, 16296, Note_on_c, 5, 59, 96
1, 16296, Note_on_c, 6, 50, 96
1, 16308, Note_off_c, 5, 59, 0
1, 16317, Note_off_c, 0, 59, 0
1, 16317, Note_off_c, 1, 66, 0
1, 16317, Note_off_c, 2, 66, 0
1, 16317, Note_off_c, 3, 50, 0
1, 16317, Note_off_c, 4, 38, 0
1, 16317, Note_off_c, 6, 50, 0
1, 16320, Note_on_c, 0, 68, 96
1, 16320, Note_on_c, 1, 64, 96
1, 16320, Note_on_c, 2, 59, 96
1, 16320, Note_on_c, 3, 52, 96
1, 16320, Note_on_c, 4, 40, 96
1, 16320, Note_on_c, 5, 69, 96
1, 16320, Note_on_c, 6, 52, 96
1, 16326, Note_off_c, 5, 69, 0
1, 16326, Note_on_c, 5, 68, 96
1, 16332, Note_off_c, 5, 68, 0
1, 16332, Note_on_c, 5, 66, 96
1, 16338, Note_off_c, 5, 66, 0
1, 16338, Note_on_c, 5, 68, 96
1, 16341, Note_off_c, 0, 68, 0
1, 16341, Note_off_c, 1, 64, 0
1, 16341, Note_off_c, 2, 59, 0
1, 16341, Note_off_c, 3, 52, 0
1, 16341, Note_off_c, 4, 40, 0
1, 16341, Note_off_c, 6, 52, 0
1, 16343, Note_off_c, 5, 68, 0
1, 16344, Note_on_c, 0, 69, 80
1, 16344, Note_on_c, 1, 64, 80
1, 16344, Note_on_c, 2, 61, 80
1, 16344, Note_on_c, 3, 45, 80
1, 16344, Note_on_c, 4, 33, 80
1, 16344, Note_on_c, 5, 68, 96
1, 16344, Note_on_c, 6, 45, 96
1, 16356, Note_off_c, 0, 69, 0
1, 16356, Note_on_c, 0, 73, 80
1, 16356, Note_off_c, 1, 64, 0
1, 16356, Note_on_c, 1, 69, 80
1, 16356, Note_off_c, 2, 61, 0
1, 16356, Note_on_c, 2, 64, 80
1, 16365, Note_off_c, 3, 45, 0
1, 16365, Note_off_c, 4, 33, 0
1, 16365, Note_off_c, 6, 45, 0
1, 16366, Note_off_c, 0, 73, 0
1, 16366, Note_off_c, 1, 69, 0
1, 16366, Note_off_c, 2, 64, 0
1, 16368, Note_on_c, 0, 73, 80
1, 16368, Note_on_c, 1, 69, 80
1, 16368, Note_on_c, 2, 64, 80
1, 16368, Note_on_c, 3, 57, 80
1, 16368, Note_on_c, 4, 45, 80
1, 16368, Note_off_c, 5, 68, 0
1, 16368, Note_on_c, 5, 69, 96
1, 16368, Note_on_c, 6, 57, 96
1, 16380, Note_off_c, 0, 73, 0
1, 16380, Note_on_c, 0, 77, 80
1, 16380, Note_off_c, 1, 69, 0
1, 16380, Note_on_c, 1, 71, 80
1, 16380, Note_off_c, 2, 64, 0
1, 16380, Note_on_c, 2, 68, 80
1, 16389, Note_off_c, 3, 57, 0
1, 16389, Note_off_c, 4, 45, 0
1, 16389, Note_off_c, 5, 69, 0
1, 16389, Note_off_c, 6, 57, 0
1, 16390, Note_off_c, 0, 77, 0
1, 16390, Note_off_c, 1, 71, 0
1, 16390, Note_off_c, 2, 68, 0
1, 16392, Note_on_c, 0, 77, 80
1, 16392, Note_on_c, 1, 71, 80
1, 16392, Note_on_c, 2, 68, 80
1, 16392, Note_on_c, 3, 56, 80
1, 16392, Note_on_c, 4, 44, 80
1, 16392, Note_on_c, 6, 56, 96
1, 16398, Note_off_c, 6, 56, 0
1, 16398, Note_on_c, 6, 57, 96
1, 16404, Note_off_c, 0, 77, 0
1, 16404, Note_on_c, 0, 78, 80
1, 16404, Note_off_c, 1, 71, 0
1, 16404, Note_on_c, 1, 73, 80
1, 16404, Note_off_c, 2, 68, 0
1, 16404, Note_on_c, 2, 69, 80
1, 16404, Note_off_c, 6, 57, 0
1, 16404, Note_on_c, 6, 56, 96
1, 16413, Note_off_c, 3, 56, 0
1, 16413, Note_off_c, 4, 44, 0
1, 16414, Note_off_c, 0, 78, 0
1, 16414, Note_off_c, 1, 73, 0
1, 16414, Note_off_c, 2, 69, 0
1, 16414, Note_off_c, 6, 56, 0
1, 16416, Note_on_c, 0, 78, 80
1, 16416, Note_on_c, 1, 73, 80
1, 16416, Note_on_c, 2, 69, 80
1, 16416, Note_on_c, 3, 54, 80
1, 16416, Note_on_c, 4, 42, 80
1, 16416, Note_on_c, 5, 73, 96
1, 16416, Note_on_c, 6, 54, 96
1, 16428, Note_off_c, 0, 78, 0
1, 16428, Note_on_c, 0, 80, 80
1, 16428, Note_off_c, 1, 73, 0
1, 16428, Note_on_c, 1, 68, 80
1, 16428, Note_off_c, 2, 69, 0
1, 16428, Note_on_c, 2, 71, 80
1, 16428, Note_off_c, 5, 73, 0
1, 16428, Note_on_c, 5, 71, 96
1, 16434, Note_off_c, 5, 71, 0
1, 16434, Note_on_c, 5, 73, 96
1, 16437, Note_off_c, 3, 54, 0
1, 16437, Note_off_c, 4, 42, 0
1, 16437, Note_off_c, 6, 54, 0
1, 16438, Note_off_c, 0, 80, 0
1, 16438, Note_off_c, 1, 68, 0
1, 16438, Note_off_c, 2, 71, 0
1, 16440, Note_on_c, 0, 80, 80
1, 16440, Note_on_c, 1, 68, 80
1, 16440, Note_on_c, 2, 71, 80
1, 16440, Note_on_c, 3, 53, 80
1, 16440, Note_on_c, 4, 41, 80
1, 16440, Note_off_c, 5, 73, 0
1, 16440, Note_on_c, 5, 71, 96
1, 16440, Note_on_c, 6, 53, 96
1, 16446, Note_off_c, 5, 71, 0
1, 16446, Note_on_c, 5, 73, 96
1, 16452, Note_off_c, 5, 73, 0
1, 16452, Note_on_c, 5, 74, 96
1, 16461, Note_off_c, 6, 53, 0
1, 16462, Note_off_c, 5, 74, 0
1, 16464, Note_on_c, 5, 73, 96
1, 16464, Note_on_c, 6, 56, 96
1, 16476, Note_off_c, 5, 73, 0
1, 16476, Note_on_c, 5, 71, 96
1, 16482, Note_off_c, 0, 80, 0
1, 16482, Note_off_c, 1, 68, 0
1, 16482, Note_off_c, 2, 71, 0
1, 16482, Note_off_c, 3, 53, 0
1, 16482, Note_off_c, 4, 41, 0
1, 16485, Note_off_c, 6, 56, 0
1, 16488, Note_off_c, 5, 71, 0
1, 16488, Note_on_c, 5, 69, 96
1, 16488, Note_on_c, 6, 61, 96
1, 16500, Note_off_c, 5, 69, 0
1, 16500, Note_on_c, 5, 68, 96
1, 16509, Note_off_c, 6, 61, 0
1, 16510, Note_off_c, 5, 68, 0
1, 16512, Note_on_c, 1, 77, 80
1, 16512, Note_on_c, 2, 68, 80
1, 16512, Note_on_c, 3, 49, 80
1, 16512, Note_on_c, 4, 37, 80
1, 16512, Note_on_c, 5, 73, 96
1, 16512, Note_on_c, 6, 49, 96
1, 16533, Note_off_c, 1, 77, 0
1, 16533, Note_off_c, 2, 68, 0
1, 16533, Note_off_c, 3, 49, 0
1, 16533, Note_off_c, 4, 37, 0
1, 16533, Note_off_c, 5, 73, 0
1, 16533, Note_off_c, 6, 49, 0
1, 16536, Note_on_c, 1, 78, 80
1, 16536, Note_on_c, 2, 66, 80
1, 16536, Note_on_c, 3, 54, 80
1, 16536, Note_on_c, 4, 42, 80
1, 16536, Note_on_c, 5, 71, 96
1, 16536, Note_on_c, 6, 54, 96
1, 16546, Note_off_c, 5, 71, 0
1, 16548, Note_on_c, 0, 73, 80
1, 16548, Note_on_c, 5, 69, 96
1, 16557, Note_off_c, 6, 54, 0
1, 16558, Note_off_c, 0, 73, 0
1, 16558, Note_off_c, 5, 69, 0
1, 16560, Note_on_c, 0, 74, 80
1, 16560, Note_on_c, 5, 68, 96
1, 16560, Note_on_c, 6, 57, 96
1, 16570, Note_off_c, 0, 74, 0
1, 16570, Note_off_c, 5, 68, 0
1, 16572, Note_on_c, 0, 76, 80
1, 16572, Note_on_c, 5, 66, 96
1, 16578, Note_off_c, 1, 78, 0
1, 16578, Note_off_c, 2, 66, 0
1, 16578, Note_off_c, 3, 54, 0
1, 16578, Note_off_c, 4, 42, 0
1, 16581, Note_off_c, 6, 57, 0
1, 16582, Note_off_c, 0, 76, 0
1, 16582, Note_off_c, 5, 66, 0
1, 16584, Note_on_c, 0, 78, 80
1, 16584, Note_on_c, 5, 81, 96
1, 16584, Note_on_c, 6, 51, 96
1, 16590, Note_off_c, 5, 81, 0
1, 16590, Note_on_c, 5, 80, 96
1, 16594, Note_off_c, 0, 78, 0
1, 16596, Note_on_c, 0, 72, 80
1, 16596, Note_off_c, 5, 80, 0
1, 16596, Note_on_c, 5, 81, 96
1, 16605, Note_off_c, 6, 51, 0
1, 16606, Note_off_c, 0, 72, 0
1, 16608, Note_on_c, 0, 73, 80
1, 16608, Note_on_c, 1, 78, 80
1, 16608, Note_on_c, 2, 69, 80
1, 16608, Note_on_c, 3, 54, 80
1, 16608, Note_on_c, 4, 42, 80
1, 16608, Note_on_c, 6, 54, 96
1, 16618, Note_off_c, 0, 73, 0
1, 16620, Note_on_c, 0, 74, 80
1, 16629, Note_off_c, 1, 78, 0
1, 16629, Note_off_c, 2, 69, 0
1, 16629, Note_off_c, 3, 54, 0
1, 16629, Note_off_c, 4, 42, 0
1, 16629, Note_off_c, 6, 54, 0
1, 16630, Note_off_c, 0, 74, 0
1, 16632, Note_on_c, 0, 66, 80
1, 16632, Note_on_c, 1, 75, 80
1, 16632, Note_on_c, 2, 69, 80
1, 16632, Note_on_c, 3, 48, 80
1, 16632, Note_on_c, 4, 36, 80
1, 16632, Note_on_c, 6, 48, 96
1, 16638, Note_off_c, 5, 81, 0
1, 16644, Note_on_c, 5, 75, 96
1, 16653, Note_off_c, 0, 66, 0
1, 16653, Note_off_c, 6, 48, 0
1, 16656, Note_off_c, 5, 75, 0
1, 16656, Note_on_c, 5, 76, 96
1, 16656, Note_on_c, 6, 51, 96
1, 16668, Note_off_c, 5, 76, 0
1, 16668, Note_on_c, 5, 78, 96
1, 16674, Note_off_c, 1, 75, 0
1, 16674, Note_off_c, 2, 69, 0
1, 16674, Note_off_c, 3, 48, 0
1, 16674, Note_off_c, 4, 36, 0
1, 16677, Note_off_c, 6, 51, 0
1, 16678, Note_off_c, 5, 78, 0
1, 16680, Note_on_c, 5, 72, 96
1, 16680, Note_on_c, 6, 44, 96
1, 16692, Note_off_c, 5, 72, 0
1, 16692, Note_on_c, 5, 75, 96
1, 16701, Note_off_c, 6, 44, 0
1, 16702, Note_off_c, 5, 75, 0
1, 16704, Note_on_c, 1, 73, 80
1, 16704, Note_on_c, 2, 68, 80
1, 16704, Note_on_c, 3, 49, 80
1, 16704, Note_on_c, 4, 37, 80
1, 16704, Note_on_c, 5, 73, 96
1, 16704, Note_on_c, 6, 49, 96
1, 16716, Note_off_c, 5, 73, 0
1, 16716, Note_on_c, 5, 76, 96
1, 16725, Note_off_c, 1, 73, 0
1, 16725, Note_off_c, 2, 68, 0
1, 16725, Note_off_c, 3, 49, 0
1, 16725, Note_off_c, 4, 37, 0
1, 16725, Note_off_c, 6, 49, 0
1, 16726, Note_off_c, 5, 76, 0
1, 16728, Note_on_c, 0, 80, 80
1, 16728, Note_on_c, 1, 72, 80
1, 16728, Note_on_c, 2, 68, 80
1, 16728, Note_on_c, 3, 44, 80
1, 16728, Note_on_c, 4, 32, 80
1, 16728, Note_on_c, 5, 75, 96
1, 16728, Note_on_c, 6, 56, 96
1, 16738, Note_off_c, 5, 75, 0
1, 16740, Note_on_c, 5, 72, 96
1, 16749, Note_off_c, 1, 72, 0
1, 16749, Note_off_c, 2, 68, 0
1, 16749, Note_off_c, 3, 44, 0
1, 16749, Note_off_c, 4, 32, 0
1, 16749, Note_off_c, 6, 56, 0
1, 16752, Note_off_c, 5, 72, 0
1, 16752, Note_on_c, 5, 70, 96
1, 16764, Note_off_c, 5, 70, 0
1, 16764, Note_on_c, 5, 68, 96
1, 16774, Note_off_c, 5, 68, 0
1, 16776, Note_on_c, 1, 68, 80
1, 16776, Note_on_c, 2, 61, 80
1, 16776, Note_on_c, 3, 40, 80
1, 16776, Note_on_c, 4, 28, 80
1, 16776, Note_on_c, 5, 73, 96
1, 16776, Note_on_c, 6, 52, 96
1, 16788, Note_off_c, 5, 73, 0
1, 16788, Note_on_c, 5, 75, 96
1, 16794, Note_off_c, 5, 75, 0
1, 16794, Note_on_c, 5, 76, 96
1, 16797, Note_off_c, 1, 68, 0
1, 16797, Note_off_c, 2, 61, 0
1, 16797, Note_off_c, 3, 40, 0
1, 16797, Note_off_c, 4, 28, 0
1, 16797, Note_off_c, 6, 52, 0
1, 16799, Note_off_c, 5, 76, 0
1, 16800, Note_on_c, 1, 72, 80
1, 16800, Note_on_c, 2, 68, 80
1, 16800, Note_on_c, 3, 44, 80
1, 16800, Note_on_c, 4, 32, 80
1, 16800, Note_on_c, 5, 75, 96
1, 16800, Note_on_c, 6, 56, 96
1, 16812, Note_off_c, 5, 75, 0
1, 16812, Note_on_c, 5, 76, 96
1, 16818, Note_off_c, 5, 76, 0
1, 16818, Note_on_c, 5, 78, 96
1, 16821, Note_off_c, 1, 72, 0
1, 16821, Note_off_c, 2, 68, 0
1, 16821, Note_off_c, 3, 44, 0
1, 16821, Note_off_c, 4, 32, 0
1, 16821, Note_off_c, 6, 56, 0
1, 16823, Note_off_c, 5, 78, 0
1, 16824, Note_on_c, 1, 73, 80
1, 16824, Note_on_c, 2, 68, 80
1, 16824, Note_on_c, 3, 49, 80
1, 16824, Note_on_c, 4, 37, 80
1, 16824, Note_on_c, 5, 76, 96
1, 16824, Note_on_c, 6, 61, 96
1, 16834, Note_off_c, 5, 76, 0
1, 16836, Note_on_c, 5, 73, 96
1, 16845, Note_off_c, 1, 73, 0
1, 16845, Note_off_c, 2, 68, 0
1, 16845, Note_off_c, 3, 49, 0
1, 16845, Note_off_c, 4, 37, 0
1, 16845, Note_off_c, 6, 61, 0
1, 16848, Note_off_c, 5, 73, 0
1, 16848, Note_on_c, 5, 72, 96
1, 16860, Note_off_c, 5, 72, 0
1, 16860, Note_on_c, 5, 70, 96
1, 16870, Note_off_c, 5, 70, 0
1, 16872, Note_on_c, 1, 75, 80
1, 16872, Note_on_c, 2, 68, 80
1, 16872, Note_on_c, 3, 48, 80
1, 16872, Note_on_c, 4, 36, 80
1, 16872, Note_on_c, 5, 75, 96
1, 16872, Note_on_c, 6, 60, 96
1, 16882, Note_off_c, 5, 75, 0
1, 16884, Note_on_c, 5, 78, 96
1, 16893, Note_off_c, 1, 75, 0
1, 16893, Note_off_c, 2, 68, 0
1, 16893, Note_off_c, 3, 48, 0
1, 16893, Note_off_c, 4, 36, 0
1, 16893, Note_off_c, 6, 60, 0
1, 16894, Note_off_c, 5, 78, 0
1, 16896, Note_on_c, 1, 73, 80
1, 16896, Note_on_c, 2, 68, 80
1, 16896, Note_on_c, 3, 49, 80
1, 16896, Note_on_c, 4, 37, 80
1, 16896, Note_on_c, 5, 76, 96
1, 16896, Note_on_c, 6, 61, 96
1, 16906, Note_off_c, 5, 76, 0
1, 16908, Note_on_c, 5, 80, 96
1, 16917, Note_off_c, 1, 73, 0
1, 16917, Note_off_c, 2, 68, 0
1, 16917, Note_off_c, 3, 49, 0
1, 16917, Note_off_c, 4, 37, 0
1, 16917, Note_off_c, 6, 61, 0
1, 16918, Note_off_c, 5, 80, 0
1, 16920, Note_on_c, 1, 72, 80
1, 16920, Note_on_c, 2, 63, 80
1, 16920, Note_on_c, 3, 51, 80
1, 16920, Note_on_c, 4, 39, 80
1, 16920, Note_on_c, 5, 78, 96
1, 16920, Note_on_c, 6, 63, 96
1, 16923, Note_off_c, 5, 78, 0
1, 16932, Note_on_c, 5, 75, 96
1, 16941, Note_off_c, 1, 72, 0
1, 16941, Note_off_c, 2, 63, 0
1, 16941, Note_off_c, 3, 51, 0
1, 16941, Note_off_c, 4, 39, 0
1, 16941, Note_off_c, 6, 63, 0
1, 16944, Note_off_c, 5, 75, 0
1, 16944, Note_on_c, 5, 73, 96
1, 16956, Note_off_c, 5, 73, 0
1, 16956, Note_on_c, 5, 72, 96
1, 16966, Note_off_c, 5, 72, 0
1, 16968, Note_on_c, 1, 75, 80
1, 16968, Note_on_c, 2, 68, 80
1, 16968, Note_on_c, 3, 48, 80
1, 16968, Note_on_c, 4, 36, 80
1, 16968, Note_on_c, 5, 75, 96
1, 16968, Note_on_c, 6, 60, 96
1, 16971, Note_off_c, 5, 75, 0
1, 16980, Note_on_c, 5, 69, 96
1, 16989, Note_off_c, 1, 75, 0
1, 16989, Note_off_c, 2, 68, 0
1, 16989, Note_off_c, 3, 48, 0
1, 16989, Note_off_c, 4, 36, 0
1, 16989, Note_off_c, 6, 60, 0
1, 16992, Note_on_c, 1, 72, 80
1, 16992, Note_on_c, 2, 63, 80
1, 16992, Note_on_c, 3, 44, 80
1, 16992, Note_on_c, 4, 32, 80
1, 16992, Note_off_c, 5, 69, 0
1, 16992, Note_on_c, 5, 68, 96
1, 16992, Note_on_c, 6, 56, 96
1, 17004, Note_off_c, 5, 68, 0
1, 17004, Note_on_c, 5, 66, 96
1, 17013, Note_off_c, 1, 72, 0
1, 17013, Note_off_c, 2, 63, 0
1, 17013, Note_off_c, 3, 44, 0
1, 17013, Note_off_c, 4, 32, 0
1, 17013, Note_off_c, 6, 56, 0
1, 17014, Note_off_c, 5, 66, 0
1, 17016, Note_on_c, 1, 73, 80
1, 17016, Note_on_c, 2, 65, 80
1, 17016, Note_on_c, 3, 49, 80
1, 17016, Note_on_c, 4, 37, 80
1, 17016, Note_on_c, 5, 65, 96
1, 17016, Note_on_c, 6, 61, 96
1, 17019, Note_off_c, 5, 65, 0
1, 17028, Note_on_c, 5, 74, 96
1, 17037, Note_off_c, 1, 73, 0
1, 17037, Note_off_c, 2, 65, 0
1, 17037, Note_off_c, 3, 49, 0
1, 17037, Note_off_c, 4, 37, 0
1, 17037, Note_off_c, 6, 61, 0
1, 17040, Note_off_c, 0, 80, 0
1, 17040, Note_off_c, 5, 74, 0
1, 17040, Note_on_c, 5, 73, 96
1, 17040, Note_on_c, 6, 56, 96
1, 17052, Note_off_c, 5, 73, 0
1, 17052, Note_on_c, 5, 71, 96
1, 17061, Note_off_c, 6, 56, 0
1, 17062, Note_off_c, 5, 71, 0
1, 17064, Note_on_c, 5, 73, 96
1, 17064, Note_on_c, 6, 58, 96
1, 17067, Note_off_c, 5, 73, 0
1, 17076, Note_on_c, 5, 67, 96
1, 17085, Note_off_c, 6, 58, 0
1, 17088, Note_off_c, 5, 67, 0
1, 17088, Note_on_c, 5, 66, 96
1, 17088, Note_on_c, 6, 54, 96
1, 17100, Note_off_c, 5, 66, 0
1, 17100, Note_on_c, 5, 64, 96
1, 17109, Note_off_c, 6, 54, 0
1, 17110, Note_off_c, 5, 64, 0
1, 17112, Note_on_c, 5, 63, 96
1, 17112, Note_on_c, 6, 59, 96
1, 17115, Note_off_c, 5, 63, 0
1, 17124, Note_on_c, 5, 73, 96
1, 17133, Note_off_c, 6, 59, 0
1, 17136, Note_off_c, 5, 73, 0
1, 17136, Note_on_c, 5, 71, 96
1, 17136, Note_on_c, 6, 56, 96
1, 17148, Note_off_c, 5, 71, 0
1, 17148, Note_on_c, 5, 70, 96
1, 17157, Note_off_c, 6, 56, 0
1, 17158, Note_off_c, 5, 70, 0
1, 17160, Note_on_c, 0, 80, 80
1, 17160, Note_on_c, 5, 71, 96
1, 17160, Note_on_c, 6, 53, 96
1, 17163, Note_off_c, 5, 71, 0
1, 17172, Note_on_c, 5, 66, 96
1, 17181, Note_off_c, 6, 53, 0
1, 17184, Note_on_c, 1, 68, 80
1, 17184, Note_on_c, 2, 65, 80
1, 17184, Note_on_c, 3, 49, 80
1, 17184, Note_on_c, 4, 37, 80
1, 17184, Note_off_c, 5, 66, 0
1, 17184, Note_on_c, 5, 65, 96
1, 17184, Note_on_c, 6, 49, 96
1, 17196, Note_off_c, 5, 65, 0
1, 17196, Note_on_c, 5, 63, 96
1, 17205, Note_off_c, 1, 68, 0
1, 17205, Note_off_c, 2, 65, 0
1, 17205, Note_off_c, 3, 49, 0
1, 17205, Note_off_c, 4, 37, 0
1, 17205, Note_off_c, 6, 49, 0
1, 17206, Note_off_c, 5, 63, 0
1, 17208, Note_on_c, 1, 69, 80
1, 17208, Note_on_c, 2, 66, 80
1, 17208, Note_on_c, 3, 54, 80
1, 17208, Note_on_c, 4, 42, 80
1, 17208, Note_on_c, 5, 61, 96
1, 17208, Note_on_c, 6, 54, 96
1, 17211, Note_off_c, 5, 61, 0
1, 17220, Note_on_c, 5, 69, 96
1, 17223, Note_off_c, 0, 80, 0
1, 17229, Note_off_c, 1, 69, 0
1, 17229, Note_off_c, 2, 66, 0
1, 17229, Note_off_c, 3, 54, 0
1, 17229, Note_off_c, 4, 42, 0
1, 17229, Note_off_c, 6, 54, 0
1, 17232, Note_on_c, 0, 78, 80
1, 17232, Note_off_c, 5, 69, 0
1, 17232, Note_on_c, 5, 68, 96
1, 17232, Note_on_c, 6, 51, 96
1, 17244, Note_off_c, 5, 68, 0
1, 17244, Note_on_c, 5, 66, 96
1, 17253, Note_off_c, 6, 51, 0
1, 17254, Note_off_c, 5, 66, 0
1, 17256, Note_on_c, 1, 68, 80
1, 17256, Note_on_c, 2, 63, 80
1, 17256, Note_on_c, 3, 56, 80
1, 17256, Note_on_c, 4, 44, 80
1, 17256, Note_on_c, 5, 72, 96
1, 17256, Note_on_c, 6, 56, 96
1, 17259, Note_off_c, 5, 72, 0
1, 17268, Note_on_c, 5, 69, 96
1, 17274, Note_off_c, 0, 78, 0
1, 17277, Note_off_c, 1, 68, 0
1, 17277, Note_off_c, 2, 63, 0
1, 17277, Note_off_c, 3, 56, 0
1, 17277, Note_off_c, 4, 44, 0
1, 17277, Note_off_c, 6, 56, 0
1, 17280, Note_on_c, 0, 76, 80
1, 17280, Note_off_c, 5, 69, 0
1, 17280, Note_on_c, 5, 68, 96
1, 17280, Note_on_c, 6, 44, 96
1, 17292, Note_off_c, 5, 68, 0
1, 17292, Note_on_c, 5, 66, 96
1, 17301, Note_off_c, 6, 44, 0
1, 17302, Note_off_c, 5, 66, 0
1, 17304, Note_on_c, 1, 68, 80
1, 17304, Note_on_c, 2, 61, 80
1, 17304, Note_on_c, 3, 57, 80
1, 17304, Note_on_c, 4, 45, 80
1, 17304, Note_on_c, 5, 73, 96
1, 17304, Note_on_c, 6, 45, 96
1, 17307, Note_off_c, 5, 73, 0
1, 17311, Note_off_c, 0, 76, 0
1, 17316, Note_on_c, 0, 73, 80
1, 17316, Note_on_c, 5, 69, 96
1, 17325, Note_off_c, 1, 68, 0
1, 17325, Note_off_c, 2, 61, 0
1, 17325, Note_off_c, 3, 57, 0
1, 17325, Note_off_c, 4, 45, 0
1, 17325, Note_off_c, 6, 45, 0
1, 17326, Note_off_c, 0, 73, 0
1, 17328, Note_on_c, 0, 72, 80
1, 17328, Note_off_c, 5, 69, 0
1, 17328, Note_on_c, 5, 68, 96
1, 17328, Note_on_c, 6, 57, 96
1, 17338, Note_off_c, 0, 72, 0
1, 17340, Note_on_c, 0, 73, 80
1, 17340, Note_off_c, 5, 68, 0
1, 17340, Note_on_c, 5, 66, 96
1, 17349, Note_off_c, 6, 57, 0
1, 17350, Note_off_c, 0, 73, 0
1, 17350, Note_off_c, 5, 66, 0
1, 17352, Note_on_c, 0, 75, 80
1, 17352, Note_on_c, 1, 66, 80
1, 17352, Note_on_c, 2, 68, 80
1, 17352, Note_on_c, 3, 48, 80
1, 17352, Note_on_c, 4, 36, 80
1, 17352, Note_on_c, 5, 75, 96
1, 17352, Note_on_c, 6, 48, 96
1, 17355, Note_off_c, 5, 75, 0
1, 17364, Note_on_c, 5, 69, 96
1, 17373, Note_off_c, 0, 75, 0
1, 17373, Note_off_c, 1, 66, 0
1, 17373, Note_off_c, 2, 68, 0
1, 17373, Note_off_c, 3, 48, 0
1, 17373, Note_off_c, 4, 36, 0
1, 17373, Note_off_c, 6, 48, 0
1, 17376, Note_on_c, 0, 80, 80
1, 17376, Note_off_c, 5, 69, 0
1, 17376, Note_on_c, 5, 68, 96
1, 17376, Note_on_c, 6, 60, 96
1, 17388, Note_off_c, 5, 68, 0
1, 17388, Note_on_c, 5, 66, 96
1, 17397, Note_off_c, 6, 60, 0
1, 17398, Note_off_c, 5, 66, 0
1, 17400, Note_on_c, 1, 64, 80
1, 17400, Note_on_c, 2, 61, 80
1, 17400, Note_on_c, 3, 49, 80
1, 17400, Note_on_c, 4, 37, 80
1, 17400, Note_on_c, 5, 76, 96
1, 17400, Note_on_c, 6, 61, 96
1, 17406, Note_off_c, 5, 76, 0
1, 17406, Note_on_c, 5, 75, 96
1, 17412, Note_off_c, 5, 75, 0
1, 17412, Note_on_c, 5, 73, 96
1, 17418, Note_off_c, 0, 80, 0
1, 17418, Note_off_c, 5, 73, 0
1, 17418, Note_on_c, 5, 72, 96
1, 17421, Note_off_c, 1, 64, 0
1, 17421, Note_off_c, 2, 61, 0
1, 17421, Note_off_c, 3, 49, 0
1, 17421, Note_off_c, 4, 37, 0
1, 17421, Note_off_c, 6, 61, 0
1, 17424, Note_on_c, 0, 76, 80
1, 17424, Note_on_c, 1, 68, 80
1, 17424, Note_on_c, 2, 61, 80
1, 17424, Note_on_c, 3, 52, 80
1, 17424, Note_on_c, 4, 40, 80
1, 17424, Note_off_c, 5, 72, 0
1, 17424, Note_on_c, 5, 73, 96
1, 17424, Note_on_c, 6, 52, 96
1, 17436, Note_off_c, 5, 73, 0
1, 17436, Note_on_c, 5, 68, 96
1, 17445, Note_off_c, 0, 76, 0
1, 17445, Note_off_c, 2, 61, 0
1, 17445, Note_off_c, 3, 52, 0
1, 17445, Note_off_c, 4, 40, 0
1, 17445, Note_off_c, 6, 52, 0
1, 17446, Note_off_c, 5, 68, 0
1, 17448, Note_on_c, 0, 73, 80
1, 17448, Note_on_c, 2, 61, 80
1, 17448, Note_on_c, 3, 54, 80
1, 17448, Note_on_c, 4, 42, 80
1, 17448, Note_on_c, 5, 69, 96
1, 17448, Note_on_c, 6, 54, 96
1, 17458, Note_off_c, 5, 69, 0
1, 17460, Note_on_c, 5, 75, 96
1, 17466, Note_off_c, 1, 68, 0
1, 17469, Note_off_c, 0, 73, 0
1, 17469, Note_off_c, 2, 61, 0
1, 17469, Note_off_c, 3, 54, 0
1, 17469, Note_off_c, 4, 42, 0
1, 17469, Note_off_c, 6, 54, 0
1, 17472, Note_on_c, 0, 78, 80
1, 17472, Note_on_c, 1, 66, 80
1, 17472, Note_on_c, 2, 69, 80
1, 17472, Note_on_c, 3, 51, 80
1, 17472, Note_on_c, 4, 39, 80
1, 17472, Note_off_c, 5, 75, 0
1, 17472, Note_on_c, 5, 76, 96
1, 17472, Note_on_c, 6, 51, 96
1, 17484, Note_off_c, 5, 76, 0
1, 17484, Note_on_c, 5, 78, 96
1, 17493, Note_off_c, 0, 78, 0
1, 17493, Note_off_c, 2, 69, 0
1, 17493, Note_off_c, 3, 51, 0
1, 17493, Note_off_c, 4, 39, 0
1, 17493, Note_off_c, 6, 51, 0
1, 17494, Note_off_c, 5, 78, 0
1, 17496, Note_on_c, 0, 75, 80
1, 17496, Note_on_c, 2, 68, 80
1, 17496, Note_on_c, 3, 56, 80
1, 17496, Note_on_c, 4, 44, 80
1, 17496, Note_on_c, 5, 72, 96
1, 17496, Note_on_c, 6, 56, 96
1, 17506, Note_off_c, 5, 72, 0
1, 17508, Note_on_c, 5, 81, 96
1, 17514, Note_off_c, 1, 66, 0
1, 17517, Note_off_c, 0, 75, 0
1, 17517, Note_off_c, 2, 68, 0
1, 17517, Note_off_c, 3, 56, 0
1, 17517, Note_off_c, 4, 44, 0
1, 17517, Note_off_c, 6, 56, 0
1, 17518, Note_off_c, 5, 81, 0
1, 17520, Note_on_c, 0, 72, 80
1, 17520, Note_on_c, 1, 63, 80
1, 17520, Note_on_c, 2, 68, 80
1, 17520, Note_on_c, 3, 44, 80
1, 17520, Note_on_c, 4, 32, 80
1, 17520, Note_on_c, 5, 80, 96
1, 17520, Note_on_c, 6, 44, 96
1, 17530, Note_off_c, 5, 80, 0
1, 17532, Note_on_c, 5, 78, 96
1, 17541, Note_off_c, 0, 72, 0
1, 17541, Note_off_c, 1, 63, 0
1, 17541, Note_off_c, 2, 68, 0
1, 17541, Note_off_c, 3, 44, 0
1, 17541, Note_off_c, 4, 32, 0
1, 17541, Note_off_c, 6, 44, 0
1, 17542, Note_off_c, 5, 78, 0
1, 17544, Note_on_c, 0, 68, 80
1, 17544, Note_on_c, 1, 64, 80
1, 17544, Note_on_c, 2, 68, 80
1, 17544, Note_on_c, 3, 49, 80
1, 17544, Note_on_c, 4, 37, 80
1, 17544, Note_on_c, 5, 76, 96
1, 17544, Note_on_c, 6, 49, 96
1, 17554, Note_off_c, 5, 76, 0
1, 17556, Note_on_c, 5, 78, 96
1, 17565, Note_off_c, 0, 68, 0
1, 17565, Note_off_c, 1, 64, 0
1, 17565, Note_off_c, 2, 68, 0
1, 17565, Note_off_c, 3, 49, 0
1, 17565, Note_off_c, 4, 37, 0
1, 17565, Note_off_c, 6, 49, 0
1, 17566, Note_off_c, 5, 78, 0
1, 17568, Note_on_c, 5, 80, 96
1, 17568, Note_on_c, 6, 51, 96
1, 17574, Note_off_c, 5, 80, 0
1, 17574, Note_on_c, 5, 78, 96
1, 17579, Note_off_c, 5, 78, 0
1, 17580, Note_on_c, 5, 76, 96
1, 17585, Note_off_c, 5, 76, 0
1, 17586, Note_on_c, 5, 78, 96
1, 17589, Note_off_c, 6, 51, 0
1, 17591, Note_off_c, 5, 78, 0
1, 17592, Note_on_c, 5, 80, 96
1, 17592, Note_on_c, 6, 52, 96
1, 17613, Note_off_c, 6, 52, 0
1, 17616, Note_on_c, 6, 57, 96
1, 17623, Note_off_c, 5, 80, 0
1, 17628, Note_on_c, 5, 73, 96
1, 17637, Note_off_c, 6, 57, 0
1, 17638, Note_off_c, 5, 73, 0
1, 17640, Note_on_c, 5, 75, 96
1, 17640, Note_on_c, 6, 54, 96
1, 17646, Note_off_c, 5, 75, 0
1, 17646, Note_on_c, 5, 73, 96
1, 17652, Note_off_c, 5, 73, 0
1, 17652, Note_on_c, 5, 75, 96
1, 17661, Note_off_c, 6, 54, 0
1, 17662, Note_off_c, 5, 75, 0
1, 17664, Note_on_c, 0, 68, 80
1, 17664, Note_on_c, 3, 56, 80
1, 17664, Note_on_c, 4, 44, 80
1, 17664, Note_on_c, 5, 73, 96
1, 17664, Note_on_c, 6, 56, 96
1, 17670, Note_off_c, 5, 73, 0
1, 17670, Note_on_c, 5, 72, 96
1, 17676, Note_off_c, 5, 72, 0
1, 17676, Note_on_c, 5, 70, 96
1, 17682, Note_off_c, 5, 70, 0
1, 17682, Note_on_c, 5, 72, 96
1, 17685, Note_off_c, 0, 68, 0
1, 17685, Note_off_c, 3, 56, 0
1, 17685, Note_off_c, 4, 44, 0
1, 17685, Note_off_c, 6, 56, 0
1, 17687, Note_off_c, 5, 72, 0
1, 17688, Note_on_c, 0, 73, 80
1, 17688, Note_on_c, 1, 68, 80
1, 17688, Note_on_c, 2, 64, 80
1, 17688, Note_on_c, 3, 49, 80
1, 17688, Note_on_c, 4, 37, 80
1, 17688, Note_on_c, 5, 73, 96
1, 17688, Note_on_c, 6, 49, 96
1, 17698, Note_off_c, 0, 73, 0
1, 17698, Note_off_c, 6, 49, 0
1, 17700, Note_on_c, 0, 72, 80
1, 17700, Note_on_c, 6, 51, 96
1, 17709, Note_off_c, 3, 49, 0
1, 17709, Note_off_c, 4, 37, 0
1, 17710, Note_off_c, 0, 72, 0
1, 17710, Note_off_c, 6, 51, 0
1, 17712, Note_on_c, 0, 73, 80
1, 17712, Note_on_c, 3, 52, 80
1, 17712, Note_on_c, 4, 40, 80
1, 17712, Note_on_c, 6, 52, 96
1, 17718, Note_off_c, 6, 52, 0
1, 17722, Note_off_c, 0, 73, 0
1, 17724, Note_on_c, 0, 76, 80
1, 17730, Note_off_c, 5, 73, 0
1, 17733, Note_off_c, 3, 52, 0
1, 17733, Note_off_c, 4, 40, 0
1, 17734, Note_off_c, 0, 76, 0
1, 17736, Note_on_c, 0, 73, 80
1, 17736, Note_on_c, 3, 52, 80
1, 17736, Note_on_c, 4, 40, 80
1, 17736, Note_on_c, 6, 52, 96
1, 17746, Note_off_c, 0, 73, 0
1, 17746, Note_off_c, 6, 52, 0
1, 17748, Note_on_c, 0, 68, 80
1, 17748, Note_on_c, 6, 54, 96
1, 17757, Note_off_c, 3, 52, 0
1, 17757, Note_off_c, 4, 40, 0
1, 17758, Note_off_c, 0, 68, 0
1, 17758, Note_off_c, 6, 54, 0
1, 17760, Note_on_c, 0, 64, 80
1, 17760, Note_on_c, 3, 56, 80
1, 17760, Note_on_c, 4, 44, 80
1, 17760, Note_on_c, 5, 68, 96
1, 17760, Note_on_c, 6, 56, 96
1, 17766, Note_off_c, 6, 56, 0
1, 17770, Note_off_c, 0, 64, 0
1, 17772, Note_on_c, 0, 68, 80
1, 17772, Note_off_c, 1, 68, 0
1, 17781, Note_off_c, 3, 56, 0
1, 17781, Note_off_c, 4, 44, 0
1, 17781, Note_off_c, 5, 68, 0
1, 17782, Note_off_c, 0, 68, 0
1, 17784, Note_on_c, 0, 61, 80
1, 17784, Note_on_c, 1, 73, 80
1, 17784, Note_on_c, 3, 56, 80
1, 17784, Note_on_c, 4, 44, 80
1, 17784, Note_on_c, 5, 78, 96
1, 17784, Note_on_c, 6, 56, 96
1, 17790, Note_off_c, 5, 78, 0
1, 17790, Note_on_c, 5, 76, 96
1, 17794, Note_off_c, 0, 61, 0
1, 17794, Note_off_c, 6, 56, 0
1, 17796, Note_on_c, 0, 68, 80
1, 17796, Note_off_c, 5, 76, 0
1, 17796, Note_on_c, 5, 78, 96
1, 17796, Note_on_c, 6, 57, 96
1, 17802, Note_off_c, 5, 78, 0
1, 17802, Note_on_c, 5, 76, 96
1, 17805, Note_off_c, 3, 56, 0
1, 17805, Note_off_c, 4, 44, 0
1, 17806, Note_off_c, 0, 68, 0
1, 17806, Note_off_c, 6, 57, 0
1, 17808, Note_on_c, 0, 64, 80
1, 17808, Note_on_c, 3, 59, 80
1, 17808, Note_on_c, 4, 47, 80
1, 17808, Note_off_c, 5, 76, 0
1, 17808, Note_on_c, 5, 78, 96
1, 17808, Note_on_c, 6, 59, 96
1, 17814, Note_off_c, 5, 78, 0
1, 17814, Note_on_c, 5, 76, 96
1, 17814, Note_off_c, 6, 59, 0
1, 17818, Note_off_c, 0, 64, 0
1, 17820, Note_on_c, 0, 68, 80
1, 17820, Note_off_c, 5, 76, 0
1, 17820, Note_on_c, 5, 78, 96
1, 17826, Note_off_c, 5, 78, 0
1, 17826, Note_on_c, 5, 76, 96
1, 17829, Note_off_c, 3, 59, 0
1, 17829, Note_off_c, 4, 47, 0
1, 17830, Note_off_c, 0, 68, 0
1, 17832, Note_on_c, 0, 61, 80
1, 17832, Note_on_c, 3, 59, 80
1, 17832, Note_on_c, 4, 47, 80
1, 17832, Note_off_c, 5, 76, 0
1, 17832, Note_on_c, 5, 78, 96
1, 17832, Note_on_c, 6, 59, 96
1, 17838, Note_off_c, 5, 78, 0
1, 17838, Note_on_c, 5, 76, 96
1, 17842, Note_off_c, 0, 61, 0
1, 17842, Note_off_c, 6, 59, 0
1, 17844, Note_on_c, 0, 68, 80
1, 17844, Note_off_c, 5, 76, 0
1, 17844, Note_on_c, 5, 78, 96
1, 17844, Note_on_c, 6, 61, 96
1, 17850, Note_off_c, 5, 78, 0
1, 17850, Note_on_c, 5, 76, 96
1, 17853, Note_off_c, 3, 59, 0
1, 17853, Note_off_c, 4, 47, 0
1, 17854, Note_off_c, 0, 68, 0
1, 17854, Note_off_c, 6, 61, 0
1, 17856, Note_on_c, 0, 64, 80
1, 17856, Note_on_c, 3, 62, 80
1, 17856, Note_on_c, 4, 50, 80
1, 17856, Note_off_c, 5, 76, 0
1, 17856, Note_on_c, 5, 78, 96
1, 17856, Note_on_c, 6, 62, 96
1, 17862, Note_off_c, 5, 78, 0
1, 17862, Note_on_c, 5, 76, 96
1, 17862, Note_off_c, 6, 62, 0
1, 17866, Note_off_c, 0, 64, 0
1, 17868, Note_on_c, 0, 68, 80
1, 17868, Note_off_c, 1, 73, 0
1, 17868, Note_off_c, 2, 64, 0
1, 17868, Note_off_c, 5, 76, 0
1, 17868, Note_on_c, 5, 78, 96
1, 17874, Note_off_c, 5, 78, 0
1, 17874, Note_on_c, 5, 76, 96
1, 17877, Note_off_c, 3, 62, 0
1, 17877, Note_off_c, 4, 50, 0
1, 17878, Note_off_c, 0, 68, 0
1, 17880, Note_on_c, 0, 71, 80
1, 17880, Note_on_c, 1, 71, 80
1, 17880, Note_on_c, 2, 68, 80
1, 17880, Note_on_c, 3, 62, 80
1, 17880, Note_on_c, 4, 50, 80
1, 17880, Note_off_c, 5, 76, 0
1, 17880, Note_on_c, 5, 78, 96
1, 17880, Note_on_c, 6, 62, 96
1, 17886, Note_off_c, 5, 78, 0
1, 17886, Note_on_c, 5, 77, 96
1, 17890, Note_off_c, 0, 71, 0
1, 17892, Note_on_c, 0, 69, 80
1, 17892, Note_off_c, 5, 77, 0
1, 17892, Note_on_c, 5, 78, 96
1, 17898, Note_off_c, 5, 78, 0
1, 17898, Note_on_c, 5, 77, 96
1, 17901, Note_off_c, 3, 62, 0
1, 17901, Note_off_c, 4, 50, 0
1, 17901, Note_off_c, 6, 62, 0
1, 17902, Note_off_c, 0, 69, 0
1, 17904, Note_on_c, 0, 71, 80
1, 17904, Note_on_c, 3, 59, 80
1, 17904, Note_on_c, 4, 47, 80
1, 17904, Note_off_c, 5, 77, 0
1, 17904, Note_on_c, 5, 78, 96
1, 17904, Note_on_c, 6, 59, 96
1, 17910, Note_off_c, 5, 78, 0
1, 17910, Note_on_c, 5, 77, 96
1, 17914, Note_off_c, 0, 71, 0
1, 17916, Note_on_c, 0, 74, 80
1, 17916, Note_off_c, 5, 77, 0
1, 17916, Note_on_c, 5, 78, 96
1, 17922, Note_off_c, 5, 78, 0
1, 17922, Note_on_c, 5, 77, 96
1, 17925, Note_off_c, 3, 59, 0
1, 17925, Note_off_c, 4, 47, 0
1, 17925, Note_off_c, 6, 59, 0
1, 17926, Note_off_c, 0, 74, 0
1, 17928, Note_on_c, 0, 71, 80
1, 17928, Note_on_c, 3, 56, 80
1, 17928, Note_on_c, 4, 44, 80
1, 17928, Note_off_c, 5, 77, 0
1, 17928, Note_on_c, 5, 78, 96
1, 17928, Note_on_c, 6, 56, 96
1, 17934, Note_off_c, 5, 78, 0
1, 17934, Note_on_c, 5, 77, 96
1, 17938, Note_off_c, 0, 71, 0
1, 17940, Note_on_c, 0, 68, 80
1, 17940, Note_off_c, 5, 77, 0
1, 17940, Note_on_c, 5, 78, 96
1, 17946, Note_off_c, 5, 78, 0
1, 17946, Note_on_c, 5, 77, 96
1, 17949, Note_off_c, 3, 56, 0
1, 17949, Note_off_c, 4, 44, 0
1, 17949, Note_off_c, 6, 56, 0
1, 17950, Note_off_c, 0, 68, 0
1, 17952, Note_on_c, 0, 65, 80
1, 17952, Note_on_c, 3, 61, 80
1, 17952, Note_on_c, 4, 49, 80
1, 17952, Note_off_c, 5, 77, 0
1, 17952, Note_on_c, 5, 78, 96
1, 17952, Note_on_c, 6, 61, 96
1, 17958, Note_off_c, 5, 78, 0
1, 17958, Note_on_c, 5, 77, 96
1, 17962, Note_off_c, 0, 65, 0
1, 17964, Note_on_c, 0, 68, 80
1, 17964, Note_off_c, 1, 71, 0
1, 17964, Note_off_c, 2, 68, 0
1, 17973, Note_off_c, 3, 61, 0
1, 17973, Note_off_c, 4, 49, 0
1, 17973, Note_off_c, 6, 61, 0
1, 17974, Note_off_c, 0, 68, 0
1, 17974, Note_off_c, 5, 77, 0
1, 17976, Note_on_c, 0, 61, 80
1, 17976, Note_on_c, 1, 73, 80
1, 17976, Note_on_c, 2, 66, 80
1, 17976, Note_on_c, 3, 57, 80
1, 17976, Note_on_c, 4, 45, 80
1, 17976, Note_on_c, 5, 78, 96
1, 17976, Note_on_c, 6, 57, 96
1, 17986, Note_off_c, 0, 61, 0
1, 17988, Note_on_c, 0, 73, 80
1, 17997, Note_off_c, 3, 57, 0
1, 17997, Note_off_c, 4, 45, 0
1, 17997, Note_off_c, 6, 57, 0
1, 17998, Note_off_c, 0, 73, 0
1, 18000, Note_on_c, 0, 69, 80
1, 18000, Note_on_c, 3, 61, 80
1, 18000, Note_on_c, 4, 49, 80
1, 18000, Note_on_c, 6, 61, 96
1, 18010, Note_off_c, 0, 69, 0
1, 18010, Note_off_c, 3, 61, 0
1, 18010, Note_off_c, 4, 49, 0
1, 18010, Note_off_c, 6, 61, 0
1, 18012, Note_on_c, 0, 73, 80
1, 18012, Note_on_c, 3, 59, 80
1, 18012, Note_on_c, 4, 47, 80
1, 18012, Note_on_c, 6, 59, 96
1, 18018, Note_off_c, 1, 73, 0
1, 18018, Note_off_c, 2, 66, 0
1, 18018, Note_off_c, 5, 78, 0
1, 18022, Note_off_c, 0, 73, 0
1, 18022, Note_off_c, 3, 59, 0
1, 18022, Note_off_c, 4, 47, 0
1, 18022, Note_off_c, 6, 59, 0
1, 18024, Note_on_c, 0, 78, 80
1, 18024, Note_on_c, 3, 57, 80
1, 18024, Note_on_c, 4, 45, 80
1, 18024, Note_on_c, 6, 57, 96
1, 18034, Note_off_c, 0, 78, 0
1, 18034, Note_off_c, 3, 57, 0
1, 18034, Note_off_c, 4, 45, 0
1, 18034, Note_off_c, 6, 57, 0
1, 18036, Note_on_c, 0, 73, 80
1, 18036, Note_on_c, 3, 56, 80
1, 18036, Note_on_c, 4, 44, 80
1, 18036, Note_on_c, 6, 56, 96
1, 18046, Note_off_c, 0, 73, 0
1, 18046, Note_off_c, 3, 56, 0
1, 18046, Note_off_c, 4, 44, 0
1, 18046, Note_off_c, 6, 56, 0
1, 18048, Note_on_c, 0, 80, 80
1, 18048, Note_on_c, 1, 73, 80
1, 18048, Note_on_c, 2, 71, 80
1, 18048, Note_on_c, 3, 54, 80
1, 18048, Note_on_c, 4, 42, 80
1, 18048, Note_on_c, 5, 73, 96
1, 18048, Note_on_c, 6, 54, 96
1, 18058, Note_off_c, 0, 80, 0
1, 18058, Note_off_c, 3, 54, 0
1, 18058, Note_off_c, 4, 42, 0
1, 18058, Note_off_c, 6, 54, 0
1, 18060, Note_on_c, 0, 73, 80
1, 18060, Note_on_c, 3, 53, 80
1, 18060, Note_on_c, 4, 41, 80
1, 18060, Note_on_c, 6, 53, 96
1, 18069, Note_off_c, 1, 73, 0
1, 18069, Note_off_c, 2, 71, 0
1, 18069, Note_off_c, 5, 73, 0
1, 18070, Note_off_c, 0, 73, 0
1, 18070, Note_off_c, 3, 53, 0
1, 18070, Note_off_c, 4, 41, 0
1, 18070, Note_off_c, 6, 53, 0
1, 18072, Note_on_c, 0, 81, 80
1, 18072, Note_on_c, 1, 73, 80
1, 18072, Note_on_c, 2, 69, 80
1, 18072, Note_on_c, 3, 54, 80
1, 18072, Note_on_c, 4, 42, 80
1, 18072, Note_on_c, 5, 66, 96
1, 18072, Note_on_c, 6, 54, 96
1, 18082, Note_off_c, 5, 66, 0
1, 18084, Note_on_c, 5, 68, 96
1, 18093, Note_off_c, 1, 73, 0
1, 18093, Note_off_c, 2, 69, 0
1, 18093, Note_off_c, 3, 54, 0
1, 18093, Note_off_c, 4, 42, 0
1, 18093, Note_off_c, 6, 54, 0
1, 18094, Note_off_c, 5, 68, 0
1, 18096, Note_on_c, 1, 69, 80
1, 18096, Note_on_c, 2, 66, 80
1, 18096, Note_on_c, 3, 49, 80
1, 18096, Note_on_c, 4, 37, 80
1, 18096, Note_on_c, 5, 69, 96
1, 18096, Note_on_c, 6, 49, 96
1, 18102, Note_off_c, 5, 69, 0
1, 18117, Note_off_c, 1, 69, 0
1, 18117, Note_off_c, 2, 66, 0
1, 18117, Note_off_c, 3, 49, 0
1, 18117, Note_off_c, 4, 37, 0
1, 18117, Note_off_c, 6, 49, 0
1, 18120, Note_on_c, 1, 69, 80
1, 18120, Note_on_c, 2, 66, 80
1, 18120, Note_on_c, 3, 49, 80
1, 18120, Note_on_c, 4, 37, 80
1, 18120, Note_on_c, 5, 69, 96
1, 18120, Note_on_c, 6, 49, 96
1, 18130, Note_off_c, 5, 69, 0
1, 18132, Note_on_c, 5, 71, 96
1, 18141, Note_off_c, 1, 69, 0
1, 18141, Note_off_c, 2, 66, 0
1, 18141, Note_off_c, 3, 49, 0
1, 18141, Note_off_c, 4, 37, 0
1, 18141, Note_off_c, 6, 49, 0
1, 18142, Note_off_c, 5, 71, 0
1, 18144, Note_on_c, 1, 66, 80
1, 18144, Note_on_c, 2, 61, 80
1, 18144, Note_on_c, 3, 45, 80
1, 18144, Note_on_c, 4, 33, 80
1, 18144, Note_on_c, 5, 73, 96
1, 18144, Note_on_c, 6, 45, 96
1, 18150, Note_off_c, 5, 73, 0
1, 18165, Note_off_c, 1, 66, 0
1, 18165, Note_off_c, 2, 61, 0
1, 18165, Note_off_c, 3, 45, 0
1, 18165, Note_off_c, 4, 33, 0
1, 18165, Note_off_c, 6, 45, 0
1, 18168, Note_on_c, 1, 66, 80
1, 18168, Note_on_c, 2, 61, 80
1, 18168, Note_on_c, 3, 45, 80
1, 18168, Note_on_c, 4, 33, 80
1, 18168, Note_on_c, 5, 73, 96
1, 18168, Note_on_c, 6, 45, 96
1, 18178, Note_off_c, 3, 45, 0
1, 18178, Note_off_c, 4, 33, 0
1, 18178, Note_off_c, 5, 73, 0
1, 18178, Note_off_c, 6, 45, 0
1, 18180, Note_on_c, 3, 47, 80
1, 18180, Note_on_c, 4, 35, 80
1, 18180, Note_on_c, 5, 75, 96
1, 18180, Note_on_c, 6, 47, 96
1, 18189, Note_off_c, 1, 66, 0
1, 18189, Note_off_c, 2, 61, 0
1, 18190, Note_off_c, 3, 47, 0
1, 18190, Note_off_c, 4, 35, 0
1, 18190, Note_off_c, 5, 75, 0
1, 18190, Note_off_c, 6, 47, 0
1, 18192, Note_on_c, 1, 73, 80
1, 18192, Note_on_c, 2, 57, 80
1, 18192, Note_on_c, 3, 45, 80
1, 18192, Note_on_c, 4, 33, 80
1, 18192, Note_on_c, 5, 77, 96
1, 18192, Note_on_c, 6, 45, 96
1, 18198, Note_off_c, 5, 77, 0
1, 18202, Note_off_c, 1, 73, 0
1, 18202, Note_off_c, 2, 57, 0
1, 18202, Note_off_c, 3, 45, 0
1, 18202, Note_off_c, 4, 33, 0
1, 18202, Note_off_c, 6, 45, 0
1, 18204, Note_on_c, 1, 71, 80
1, 18204, Note_on_c, 2, 59, 80
1, 18204, Note_on_c, 3, 44, 80
1, 18204, Note_on_c, 4, 32, 80
1, 18204, Note_on_c, 6, 44, 96
1, 18214, Note_off_c, 1, 71, 0
1, 18214, Note_off_c, 2, 59, 0
1, 18214, Note_off_c, 3, 44, 0
1, 18214, Note_off_c, 4, 32, 0
1, 18214, Note_off_c, 6, 44, 0
1, 18216, Note_on_c, 1, 69, 80
1, 18216, Note_on_c, 2, 61, 80
1, 18216, Note_on_c, 3, 42, 80
1, 18216, Note_on_c, 4, 30, 80
1, 18216, Note_on_c, 5, 78, 96
1, 18216, Note_on_c, 6, 42, 96
1, 18226, Note_off_c, 1, 69, 0
1, 18228, Note_on_c, 1, 68, 80
1, 18237, Note_off_c, 2, 61, 0
1, 18237, Note_off_c, 3, 42, 0
1, 18237, Note_off_c, 4, 30, 0
1, 18237, Note_off_c, 5, 78, 0
1, 18237, Note_off_c, 6, 42, 0
1, 18238, Note_off_c, 1, 68, 0
1, 18240, Note_on_c, 1, 66, 80
1, 18240, Note_on_c, 2, 61, 80
1, 18240, Note_on_c, 3, 54, 80
1, 18240, Note_on_c, 4, 42, 80
1, 18240, Note_on_c, 5, 78, 96
1, 18240, Note_on_c, 6, 54, 96
1, 18245, Note_off_c, 5, 78, 0
1, 18246, Note_on_c, 5, 80, 96
1, 18250, Note_off_c, 1, 66, 0
1, 18251, Note_off_c, 5, 80, 0
1, 18252, Note_off_c, 0, 81, 0
1, 18252, Note_on_c, 1, 64, 80
1, 18252, Note_on_c, 5, 81, 96
1, 18261, Note_off_c, 2, 61, 0
1, 18262, Note_off_c, 1, 64, 0
1, 18262, Note_off_c, 5, 81, 0
1, 18264, Note_on_c, 0, 80, 80
1, 18264, Note_on_c, 1, 63, 80
1, 18264, Note_on_c, 2, 68, 80
1, 18264, Note_on_c, 5, 72, 96
1, 18282, Note_off_c, 3, 54, 0
1, 18282, Note_off_c, 4, 42, 0
1, 18282, Note_off_c, 6, 54, 0
1, 18285, Note_off_c, 1, 63, 0
1, 18285, Note_off_c, 2, 68, 0
1, 18285, Note_off_c, 5, 72, 0
1, 18288, Note_on_c, 1, 64, 80
1, 18288, Note_on_c, 2, 70, 80
1, 18288, Note_on_c, 3, 52, 80
1, 18288, Note_on_c, 4, 40, 80
1, 18288, Note_on_c, 5, 75, 96
1, 18288, Note_on_c, 6, 52, 96
1, 18294, Note_off_c, 5, 75, 0
1, 18294, Note_on_c, 5, 73, 96
1, 18300, Note_off_c, 5, 73, 0
1, 18300, Note_on_c, 5, 72, 96
1, 18306, Note_off_c, 5, 72, 0
1, 18306, Note_on_c, 5, 73, 96
1, 18309, Note_off_c, 1, 64, 0
1, 18309, Note_off_c, 2, 70, 0
1, 18309, Note_off_c, 3, 52, 0
1, 18309, Note_off_c, 4, 40, 0
1, 18309, Note_off_c, 6, 52, 0
1, 18311, Note_off_c, 5, 73, 0
1, 18312, Note_on_c, 1, 66, 80
1, 18312, Note_on_c, 2, 72, 80
1, 18312, Note_on_c, 3, 51, 80
1, 18312, Note_on_c, 4, 39, 80
1, 18312, Note_on_c, 5, 75, 96
1, 18312, Note_on_c, 6, 51, 96
1, 18333, Note_off_c, 1, 66, 0
1, 18333, Note_off_c, 2, 72, 0
1, 18333, Note_off_c, 3, 51, 0
1, 18333, Note_off_c, 4, 39, 0
1, 18333, Note_off_c, 5, 75, 0
1, 18333, Note_off_c, 6, 51, 0
1, 18336, Note_on_c, 1, 68, 80
1, 18336, Note_on_c, 2, 73, 80
1, 18336, Note_on_c, 3, 49, 80
1, 18336, Note_on_c, 4, 37, 80
1, 18336, Note_on_c, 5, 76, 96
1, 18336, Note_on_c, 6, 49, 96
1, 18357, Note_off_c, 1, 68, 0
1, 18357, Note_off_c, 2, 73, 0
1, 18357, Note_off_c, 3, 49, 0
1, 18357, Note_off_c, 4, 37, 0
1, 18357, Note_off_c, 5, 76, 0
1, 18357, Note_off_c, 6, 49, 0
1, 18360, Note_on_c, 1, 68, 80
1, 18360, Note_on_c, 2, 72, 80
1, 18360, Note_on_c, 3, 44, 80
1, 18360, Note_on_c, 4, 32, 80
1, 18360, Note_on_c, 5, 75, 96
1, 18360, Note_on_c, 6, 44, 96
1, 18372, Note_off_c, 5, 75, 0
1, 18372, Note_on_c, 5, 73, 96
1, 18381, Note_off_c, 3, 44, 0
1, 18381, Note_off_c, 4, 32, 0
1, 18381, Note_off_c, 6, 44, 0
1, 18384, Note_on_c, 3, 46, 80
1, 18384, Note_on_c, 4, 34, 80
1, 18384, Note_off_c, 5, 73, 0
1, 18384, Note_on_c, 5, 72, 96
1, 18384, Note_on_c, 6, 46, 96
1, 18396, Note_off_c, 5, 72, 0
1, 18396, Note_on_c, 5, 70, 96
1, 18402, Note_off_c, 1, 68, 0
1, 18402, Note_off_c, 2, 72, 0
1, 18405, Note_off_c, 3, 46, 0
1, 18405, Note_off_c, 4, 34, 0
1, 18405, Note_off_c, 6, 46, 0
1, 18406, Note_off_c, 5, 70, 0
1, 18408, Note_on_c, 3, 48, 80
1, 18408, Note_on_c, 4, 36, 80
1, 18408, Note_on_c, 5, 68, 96
1, 18408, Note_on_c, 6, 48, 96
1, 18418, Note_off_c, 5, 68, 0
1, 18420, Note_on_c, 5, 75, 96
1, 18429, Note_off_c, 3, 48, 0
1, 18429, Note_off_c, 4, 36, 0
1, 18429, Note_off_c, 6, 48, 0
1, 18430, Note_off_c, 5, 75, 0
1, 18432, Note_on_c, 1, 73, 80
1, 18432, Note_on_c, 2, 68, 80
1, 18432, Note_on_c, 3, 49, 80
1, 18432, Note_on_c, 4, 37, 80
1, 18432, Note_on_c, 5, 76, 96
1, 18432, Note_on_c, 6, 49, 96
1, 18442, Note_off_c, 5, 76, 0
1, 18444, Note_on_c, 5, 73, 96
1, 18453, Note_off_c, 1, 73, 0
1, 18453, Note_off_c, 2, 68, 0
1, 18453, Note_off_c, 3, 49, 0
1, 18453, Note_off_c, 4, 37, 0
1, 18453, Note_off_c, 6, 49, 0
1, 18454, Note_off_c, 5, 73, 0
1, 18456, Note_on_c, 1, 72, 80
1, 18456, Note_on_c, 2, 56, 80
1, 18456, Note_on_c, 3, 44, 80
1, 18456, Note_on_c, 4, 32, 80
1, 18456, Note_on_c, 5, 75, 96
1, 18456, Note_on_c, 6, 44, 96
1, 18468, Note_off_c, 5, 75, 0
1, 18468, Note_on_c, 5, 73, 96
1, 18477, Note_off_c, 1, 72, 0
1, 18477, Note_off_c, 2, 56, 0
1, 18480, Note_on_c, 1, 73, 80
1, 18480, Note_on_c, 2, 58, 80
1, 18480, Note_off_c, 5, 73, 0
1, 18480, Note_on_c, 5, 72, 96
1, 18492, Note_off_c, 5, 72, 0
1, 18492, Note_on_c, 5, 70, 96
1, 18498, Note_off_c, 3, 44, 0
1, 18498, Note_off_c, 4, 32, 0
1, 18498, Note_off_c, 6, 44, 0
1, 18501, Note_off_c, 1, 73, 0
1, 18501, Note_off_c, 2, 58, 0
1, 18502, Note_off_c, 5, 70, 0
1, 18504, Note_off_c, 0, 80, 0
1, 18504, Note_on_c, 1, 75, 80
1, 18504, Note_on_c, 2, 60, 80
1, 18504, Note_on_c, 5, 68, 96
1, 18514, Note_off_c, 5, 68, 0
1, 18516, Note_on_c, 5, 80, 96
1, 18525, Note_off_c, 1, 75, 0
1, 18525, Note_off_c, 2, 60, 0
1, 18526, Note_off_c, 5, 80, 0
1, 18528, Note_on_c, 0, 80, 80
1, 18528, Note_on_c, 1, 73, 80
1, 18528, Note_on_c, 2, 61, 80
1, 18528, Note_on_c, 5, 76, 96
1, 18538, Note_off_c, 5, 76, 0
1, 18540, Note_on_c, 5, 73, 96
1, 18549, Note_off_c, 0, 80, 0
1, 18549, Note_off_c, 1, 73, 0
1, 18549, Note_off_c, 2, 61, 0
1, 18550, Note_off_c, 5, 73, 0
1, 18552, Note_on_c, 0, 68, 80
1, 18552, Note_on_c, 1, 72, 80
1, 18552, Note_on_c, 2, 56, 80
1, 18552, Note_on_c, 3, 44, 80
1, 18552, Note_on_c, 4, 32, 80
1, 18552, Note_on_c, 5, 75, 96
1, 18552, Note_on_c, 6, 44, 96
1, 18562, Note_off_c, 5, 75, 0
1, 18564, Note_on_c, 5, 73, 96
1, 18573, Note_off_c, 0, 68, 0
1, 18573, Note_off_c, 1, 72, 0
1, 18574, Note_off_c, 5, 73, 0
1, 18576, Note_on_c, 0, 70, 80
1, 18576, Note_on_c, 1, 73, 80
1, 18576, Note_on_c, 5, 72, 96
1, 18586, Note_off_c, 5, 72, 0
1, 18588, Note_on_c, 5, 70, 96
1, 18594, Note_off_c, 2, 56, 0
1, 18594, Note_off_c, 3, 44, 0
1, 18594, Note_off_c, 4, 32, 0
1, 18594, Note_off_c, 6, 44, 0
1, 18597, Note_off_c, 0, 70, 0
1, 18597, Note_off_c, 1, 73, 0
1, 18598, Note_off_c, 5, 70, 0
1, 18600, Note_on_c, 0, 72, 80
1, 18600, Note_on_c, 1, 75, 80
1, 18600, Note_on_c, 5, 68, 96
1, 18621, Note_off_c, 0, 72, 0
1, 18621, Note_off_c, 1, 75, 0
1, 18621, Note_off_c, 5, 68, 0
1, 18624, Note_on_c, 0, 73, 80
1, 18624, Note_on_c, 1, 73, 80
1, 18624, Note_on_c, 5, 71, 96
1, 18634, Note_off_c, 5, 71, 0
1, 18636, Note_on_c, 5, 69, 96
1, 18645, Note_off_c, 0, 73, 0
1, 18645, Note_off_c, 1, 73, 0
1, 18646, Note_off_c, 5, 69, 0
1, 18648, Note_on_c, 0, 74, 80
1, 18648, Note_on_c, 1, 71, 80
1, 18648, Note_on_c, 2, 65, 80
1, 18648, Note_on_c, 3, 56, 80
1, 18648, Note_on_c, 4, 44, 80
1, 18648, Note_on_c, 5, 71, 96
1, 18648, Note_on_c, 6, 56, 96
1, 18658, Note_off_c, 6, 56, 0
1, 18660, Note_on_c, 6, 57, 96
1, 18669, Note_off_c, 5, 71, 0
1, 18670, Note_off_c, 6, 57, 0
1, 18672, Note_off_c, 3, 56, 0
1, 18672, Note_on_c, 3, 56, 80
1, 18672, Note_off_c, 4, 44, 0
1, 18672, Note_on_c, 4, 44, 80
1, 18672, Note_on_c, 5, 74, 96
1, 18672, Note_on_c, 6, 59, 96
1, 18682, Note_off_c, 5, 74, 0
1, 18682, Note_off_c, 6, 59, 0
1, 18684, Note_on_c, 5, 73, 96
1, 18684, Note_on_c, 6, 57, 96
1, 18690, Note_off_c, 2, 65, 0
1, 18693, Note_off_c, 3, 56, 0
1, 18693, Note_off_c, 4, 44, 0
1, 18694, Note_off_c, 5, 73, 0
1, 18694, Note_off_c, 6, 57, 0
1, 18696, Note_on_c, 2, 68, 80
1, 18696, Note_on_c, 3, 53, 80
1, 18696, Note_on_c, 4, 41, 80
1, 18696, Note_on_c, 5, 74, 96
1, 18696, Note_on_c, 6, 59, 96
1, 18706, Note_off_c, 6, 59, 0
1, 18708, Note_on_c, 6, 53, 96
1, 18717, Note_off_c, 5, 74, 0
1, 18718, Note_off_c, 6, 53, 0
1, 18720, Note_off_c, 3, 53, 0
1, 18720, Note_on_c, 3, 53, 80
1, 18720, Note_off_c, 4, 41, 0
1, 18720, Note_on_c, 4, 41, 80
1, 18720, Note_on_c, 5, 71, 96
1, 18720, Note_on_c, 6, 54, 96
1, 18730, Note_off_c, 6, 54, 0
1, 18732, Note_off_c, 0, 74, 0
1, 18732, Note_on_c, 6, 56, 96
1, 18741, Note_off_c, 3, 53, 0
1, 18741, Note_off_c, 4, 41, 0
1, 18741, Note_off_c, 5, 71, 0
1, 18742, Note_off_c, 6, 56, 0
1, 18744, Note_on_c, 0, 73, 80
1, 18744, Note_on_c, 3, 49, 80
1, 18744, Note_on_c, 4, 37, 80
1, 18744, Note_on_c, 5, 77, 96
1, 18744, Note_on_c, 6, 49, 96
1, 18754, Note_off_c, 6, 49, 0
1, 18756, Note_off_c, 1, 71, 0
1, 18756, Note_off_c, 5, 77, 0
1, 18756, Note_on_c, 5, 78, 96
1, 18756, Note_on_c, 6, 57, 96
1, 18759, Note_off_c, 2, 68, 0
1, 18766, Note_off_c, 6, 57, 0
1, 18768, Note_on_c, 1, 68, 80
1, 18768, Note_on_c, 2, 65, 80
1, 18768, Note_off_c, 3, 49, 0
1, 18768, Note_on_c, 3, 49, 80
1, 18768, Note_off_c, 4, 37, 0
1, 18768, Note_on_c, 4, 37, 80
1, 18768, Note_off_c, 5, 78, 0
1, 18768, Note_on_c, 5, 80, 96
1, 18768, Note_on_c, 6, 59, 96
1, 18778, Note_off_c, 6, 59, 0
1, 18780, Note_off_c, 5, 80, 0
1, 18780, Note_on_c, 5, 77, 96
1, 18780, Note_on_c, 6, 56, 96
1, 18789, Note_off_c, 1, 68, 0
1, 18789, Note_off_c, 2, 65, 0
1, 18789, Note_off_c, 3, 49, 0
1, 18789, Note_off_c, 4, 37, 0
1, 18790, Note_off_c, 5, 77, 0
1, 18790, Note_off_c, 6, 56, 0
1, 18792, Note_on_c, 1, 61, 80
1, 18792, Note_on_c, 2, 69, 80
1, 18792, Note_on_c, 3, 45, 80
1, 18792, Note_on_c, 4, 33, 80
1, 18792, Note_on_c, 5, 78, 96
1, 18792, Note_on_c, 6, 57, 96
1, 18802, Note_off_c, 5, 78, 0
1, 18802, Note_off_c, 6, 57, 0
1, 18804, Note_on_c, 5, 66, 96
1, 18804, Note_on_c, 6, 61, 96
1, 18813, Note_off_c, 1, 61, 0
1, 18813, Note_off_c, 2, 69, 0
1, 18814, Note_off_c, 5, 66, 0
1, 18814, Note_off_c, 6, 61, 0
1, 18816, Note_on_c, 1, 57, 80
1, 18816, Note_on_c, 2, 66, 80
1, 18816, Note_off_c, 3, 45, 0
1, 18816, Note_on_c, 3, 45, 80
1, 18816, Note_off_c, 4, 33, 0
1, 18816, Note_on_c, 4, 33, 80
1, 18816, Note_on_c, 5, 69, 96
1, 18816, Note_on_c, 6, 59, 96
1, 18826, Note_off_c, 5, 69, 0
1, 18826, Note_off_c, 6, 59, 0
1, 18828, Note_off_c, 0, 73, 0
1, 18828, Note_on_c, 5, 68, 96
1, 18828, Note_on_c, 6, 61, 96
1, 18837, Note_off_c, 1, 57, 0
1, 18837, Note_off_c, 2, 66, 0
1, 18837, Note_off_c, 3, 45, 0
1, 18837, Note_off_c, 4, 33, 0
1, 18838, Note_off_c, 5, 68, 0
1, 18838, Note_off_c, 6, 61, 0
1, 18840, Note_on_c, 0, 72, 80
1, 18840, Note_on_c, 1, 69, 80
1, 18840, Note_on_c, 2, 63, 80
1, 18840, Note_on_c, 3, 54, 80
1, 18840, Note_on_c, 4, 42, 80
1, 18840, Note_on_c, 5, 69, 96
1, 18840, Note_on_c, 6, 54, 96
1, 18850, Note_off_c, 6, 54, 0
1, 18852, Note_off_c, 5, 69, 0
1, 18852, Note_on_c, 5, 66, 96
1, 18852, Note_on_c, 6, 56, 96
1, 18862, Note_off_c, 5, 66, 0
1, 18862, Note_off_c, 6, 56, 0
1, 18864, Note_off_c, 3, 54, 0
1, 18864, Note_on_c, 3, 54, 80
1, 18864, Note_off_c, 4, 42, 0
1, 18864, Note_on_c, 4, 42, 80
1, 18864, Note_on_c, 5, 72, 96
1, 18864, Note_on_c, 6, 57, 96
1, 18874, Note_off_c, 6, 57, 0
1, 18876, Note_off_c, 5, 72, 0
1, 18876, Note_on_c, 5, 71, 96
1, 18876, Note_on_c, 6, 56, 96
1, 18882, Note_off_c, 2, 63, 0
1, 18885, Note_off_c, 3, 54, 0
1, 18885, Note_off_c, 4, 42, 0
1, 18886, Note_off_c, 5, 71, 0
1, 18886, Note_off_c, 6, 56, 0
1, 18888, Note_on_c, 2, 66, 80
1, 18888, Note_on_c, 3, 51, 80
1, 18888, Note_on_c, 4, 39, 80
1, 18888, Note_on_c, 5, 72, 96
1, 18888, Note_on_c, 6, 57, 96
1, 18898, Note_off_c, 5, 72, 0
1, 18898, Note_off_c, 6, 57, 0
1, 18900, Note_on_c, 5, 69, 96
1, 18900, Note_on_c, 6, 51, 96
1, 18910, Note_off_c, 5, 69, 0
1, 18910, Note_off_c, 6, 51, 0
1, 18912, Note_off_c, 3, 51, 0
1, 18912, Note_on_c, 3, 51, 80
1, 18912, Note_off_c, 4, 39, 0
1, 18912, Note_on_c, 4, 39, 80
1, 18912, Note_on_c, 5, 75, 96
1, 18912, Note_on_c, 6, 52, 96
1, 18922, Note_off_c, 5, 75, 0
1, 18922, Note_off_c, 6, 52, 0
1, 18924, Note_off_c, 0, 72, 0
1, 18924, Note_on_c, 5, 73, 96
1, 18924, Note_on_c, 6, 54, 96
1, 18933, Note_off_c, 3, 51, 0
1, 18933, Note_off_c, 4, 39, 0
1, 18934, Note_off_c, 5, 73, 0
1, 18934, Note_off_c, 6, 54, 0
1, 18936, Note_on_c, 0, 71, 80
1, 18936, Note_on_c, 3, 47, 80
1, 18936, Note_on_c, 4, 35, 80
1, 18936, Note_on_c, 5, 75, 96
1, 18936, Note_on_c, 6, 47, 96
1, 18946, Note_off_c, 5, 75, 0
1, 18946, Note_off_c, 6, 47, 0
1, 18948, Note_off_c, 1, 69, 0
1, 18948, Note_on_c, 5, 76, 96
1, 18948, Note_on_c, 6, 56, 96
1, 18951, Note_off_c, 2, 66, 0
1, 18958, Note_off_c, 5, 76, 0
1, 18958, Note_off_c, 6, 56, 0
1, 18960, Note_on_c, 1, 66, 80
1, 18960, Note_on_c, 2, 63, 80
1, 18960, Note_off_c, 3, 47, 0
1, 18960, Note_on_c, 3, 47, 80
1, 18960, Note_off_c, 4, 35, 0
1, 18960, Note_on_c, 4, 35, 80
1, 18960, Note_on_c, 5, 78, 96
1, 18960, Note_on_c, 6, 57, 96
1, 18970, Note_off_c, 5, 78, 0
1, 18970, Note_off_c, 6, 57, 0
1, 18972, Note_on_c, 5, 75, 96
1, 18972, Note_on_c, 6, 54, 96
1, 18981, Note_off_c, 1, 66, 0
1, 18981, Note_off_c, 2, 63, 0
1, 18981, Note_off_c, 3, 47, 0
1, 18981, Note_off_c, 4, 35, 0
1, 18982, Note_off_c, 5, 75, 0
1, 18982, Note_off_c, 6, 54, 0
1, 18984, Note_on_c, 1, 59, 80
1, 18984, Note_on_c, 2, 68, 80
1, 18984, Note_on_c, 3, 44, 80
1, 18984, Note_on_c, 4, 32, 80
1, 18984, Note_on_c, 5, 76, 96
1, 18984, Note_on_c, 6, 56, 96
1, 18994, Note_off_c, 6, 56, 0
1, 18996, Note_on_c, 6, 61, 96
1, 18999, Note_off_c, 0, 71, 0
1, 19005, Note_off_c, 1, 59, 0
1, 19005, Note_off_c, 2, 68, 0
1, 19005, Note_off_c, 3, 44, 0
1, 19005, Note_off_c, 4, 32, 0
1, 19005, Note_off_c, 5, 76, 0
1, 19006, Note_off_c, 6, 61, 0
1, 19008, Note_on_c, 0, 80, 80
1, 19008, Note_on_c, 1, 56, 80
1, 19008, Note_on_c, 2, 64, 80
1, 19008, Note_on_c, 3, 49, 80
1, 19008, Note_on_c, 4, 37, 80
1, 19008, Note_on_c, 5, 76, 96
1, 19008, Note_on_c, 6, 60, 96
1, 19014, Note_off_c, 5, 76, 0
1, 19014, Note_on_c, 5, 78, 96
1, 19018, Note_off_c, 2, 64, 0
1, 19018, Note_off_c, 6, 60, 0
1, 19020, Note_on_c, 2, 61, 80
1, 19020, Note_off_c, 5, 78, 0
1, 19020, Note_on_c, 5, 80, 96
1, 19020, Note_on_c, 6, 61, 96
1, 19029, Note_off_c, 0, 80, 0
1, 19029, Note_off_c, 1, 56, 0
1, 19029, Note_off_c, 3, 49, 0
1, 19029, Note_off_c, 4, 37, 0
1, 19030, Note_off_c, 2, 61, 0
1, 19030, Note_off_c, 5, 80, 0
1, 19030, Note_off_c, 6, 61, 0
1, 19032, Note_on_c, 0, 73, 80
1, 19032, Note_on_c, 1, 57, 80
1, 19032, Note_on_c, 2, 66, 80
1, 19032, Note_on_c, 3, 45, 80
1, 19032, Note_on_c, 4, 33, 80
1, 19032, Note_on_c, 5, 78, 96
1, 19032, Note_on_c, 6, 57, 96
1, 19042, Note_off_c, 6, 57, 0
1, 19044, Note_on_c, 6, 59, 96
1, 19053, Note_off_c, 0, 73, 0
1, 19053, Note_off_c, 1, 57, 0
1, 19053, Note_off_c, 2, 66, 0
1, 19053, Note_off_c, 3, 45, 0
1, 19053, Note_off_c, 4, 33, 0
1, 19053, Note_off_c, 5, 78, 0
1, 19054, Note_off_c, 6, 59, 0
1, 19056, Note_on_c, 5, 76, 96
1, 19056, Note_on_c, 6, 61, 96
1, 19066, Note_off_c, 6, 61, 0
1, 19068, Note_on_c, 6, 57, 96
1, 19077, Note_off_c, 5, 76, 0
1, 19078, Note_off_c, 6, 57, 0
1, 19080, Note_on_c, 0, 78, 80
1, 19080, Note_on_c, 1, 69, 80
1, 19080, Note_on_c, 2, 66, 80
1, 19080, Note_on_c, 3, 42, 80
1, 19080, Note_on_c, 4, 30, 80
1, 19080, Note_on_c, 5, 75, 96
1, 19080, Note_on_c, 6, 54, 96
1, 19086, Note_off_c, 5, 75, 0
1, 19086, Note_on_c, 5, 76, 96
1, 19090, Note_off_c, 6, 54, 0
1, 19092, Note_off_c, 5, 76, 0
1, 19092, Note_on_c, 5, 75, 96
1, 19092, Note_on_c, 6, 56, 96
1, 19101, Note_off_c, 0, 78, 0
1, 19101, Note_off_c, 1, 69, 0
1, 19101, Note_off_c, 2, 66, 0
1, 19101, Note_off_c, 3, 42, 0
1, 19101, Note_off_c, 4, 30, 0
1, 19102, Note_off_c, 5, 75, 0
1, 19102, Note_off_c, 6, 56, 0
1, 19104, Note_on_c, 5, 73, 96
1, 19104, Note_on_c, 6, 57, 96
1, 19114, Note_off_c, 6, 57, 0
1, 19116, Note_on_c, 6, 54, 96
1, 19125, Note_off_c, 5, 73, 0
1, 19126, Note_off_c, 6, 54, 0
1, 19128, Note_on_c, 0, 78, 80
1, 19128, Note_on_c, 1, 68, 80
1, 19128, Note_on_c, 2, 63, 80
1, 19128, Note_on_c, 3, 44, 80
1, 19128, Note_on_c, 4, 32, 80
1, 19128, Note_on_c, 5, 68, 96
1, 19128, Note_on_c, 6, 48, 96
1, 19140, Note_off_c, 5, 68, 0
1, 19140, Note_on_c, 5, 67, 96
1, 19149, Note_off_c, 0, 78, 0
1, 19149, Note_off_c, 1, 68, 0
1, 19149, Note_off_c, 2, 63, 0
1, 19149, Note_off_c, 3, 44, 0
1, 19149, Note_off_c, 4, 32, 0
1, 19149, Note_off_c, 6, 48, 0
1, 19150, Note_off_c, 5, 67, 0
1, 19152, Note_on_c, 5, 68, 96
1, 19152, Note_on_c, 6, 44, 96
1, 19164, Note_off_c, 5, 68, 0
1, 19164, Note_on_c, 5, 67, 96
1, 19173, Note_off_c, 6, 44, 0
1, 19174, Note_off_c, 5, 67, 0
1, 19176, Note_on_c, 0, 76, 80
1, 19176, Note_on_c, 1, 68, 80
1, 19176, Note_on_c, 2, 61, 80
1, 19176, Note_on_c, 3, 44, 80
1, 19176, Note_on_c, 4, 32, 80
1, 19176, Note_on_c, 5, 68, 96
1, 19176, Note_on_c, 6, 49, 96
1, 19186, Note_off_c, 5, 68, 0
1, 19188, Note_on_c, 5, 75, 96
1, 19197, Note_off_c, 0, 76, 0
1, 19197, Note_off_c, 1, 68, 0
1, 19197, Note_off_c, 2, 61, 0
1, 19197, Note_off_c, 3, 44, 0
1, 19197, Note_off_c, 4, 32, 0
1, 19197, Note_off_c, 6, 49, 0
1, 19198, Note_off_c, 5, 75, 0
1, 19200, Note_on_c, 5, 76, 96
1, 19200, Note_on_c, 6, 46, 96
1, 19210, Note_off_c, 5, 76, 0
1, 19212, Note_on_c, 5, 73, 96
1, 19221, Note_off_c, 6, 46, 0
1, 19222, Note_off_c, 5, 73, 0
1, 19224, Note_on_c, 0, 75, 80
1, 19224, Note_on_c, 1, 68, 80
1, 19224, Note_on_c, 2, 63, 80
1, 19224, Note_on_c, 3, 44, 80
1, 19224, Note_on_c, 4, 32, 80
1, 19224, Note_on_c, 5, 68, 96
1, 19224, Note_on_c, 6, 48, 96
1, 19236, Note_off_c, 5, 68, 0
1, 19236, Note_on_c, 5, 67, 96
1, 19245, Note_off_c, 0, 75, 0
1, 19245, Note_off_c, 1, 68, 0
1, 19245, Note_off_c, 2, 63, 0
1, 19245, Note_off_c, 3, 44, 0
1, 19245, Note_off_c, 4, 32, 0
1, 19245, Note_off_c, 6, 48, 0
1, 19246, Note_off_c, 5, 67, 0
1, 19248, Note_on_c, 5, 68, 96
1, 19248, Note_on_c, 6, 44, 96
1, 19260, Note_off_c, 5, 68, 0
1, 19260, Note_on_c, 5, 67, 96
1, 19269, Note_off_c, 6, 44, 0
1, 19270, Note_off_c, 5, 67, 0
1, 19272, Note_on_c, 0, 73, 80
1, 19272, Note_on_c, 1, 68, 80
1, 19272, Note_on_c, 2, 64, 80
1, 19272, Note_on_c, 3, 44, 80
1, 19272, Note_on_c, 4, 32, 80
1, 19272, Note_on_c, 5, 68, 96
1, 19272, Note_on_c, 6, 49, 96
1, 19282, Note_off_c, 5, 68, 0
1, 19284, Note_on_c, 5, 76, 96
1, 19293, Note_off_c, 0, 73, 0
1, 19293, Note_off_c, 1, 68, 0
1, 19293, Note_off_c, 2, 64, 0
1, 19293, Note_off_c, 3, 44, 0
1, 19293, Note_off_c, 4, 32, 0
1, 19293, Note_off_c, 6, 49, 0
1, 19294, Note_off_c, 5, 76, 0
1, 19296, Note_on_c, 5, 78, 96
1, 19296, Note_on_c, 6, 46, 96
1, 19306, Note_off_c, 5, 78, 0
1, 19308, Note_on_c, 5, 75, 96
1, 19317, Note_off_c, 6, 46, 0
1, 19318, Note_off_c, 5, 75, 0
1, 19320, Note_on_c, 0, 75, 80
1, 19320, Note_on_c, 1, 68, 80
1, 19320, Note_on_c, 2, 66, 80
1, 19320, Note_on_c, 5, 68, 96
1, 19320, Note_on_c, 6, 48, 96
1, 19332, Note_off_c, 5, 68, 0
1, 19332, Note_on_c, 5, 67, 96
1, 19341, Note_off_c, 0, 75, 0
1, 19341, Note_off_c, 1, 68, 0
1, 19341, Note_off_c, 2, 66, 0
1, 19341, Note_off_c, 6, 48, 0
1, 19342, Note_off_c, 5, 67, 0
1, 19344, Note_on_c, 3, 56, 80
1, 19344, Note_on_c, 4, 44, 80
1, 19344, Note_on_c, 5, 68, 96
1, 19344, Note_on_c, 6, 44, 96
1, 19356, Note_off_c, 5, 68, 0
1, 19356, Note_on_c, 5, 67, 96
1, 19365, Note_off_c, 3, 56, 0
1, 19365, Note_off_c, 4, 44, 0
1, 19365, Note_off_c, 6, 44, 0
1, 19366, Note_off_c, 5, 67, 0
1, 19368, Note_on_c, 0, 73, 80
1, 19368, Note_on_c, 1, 68, 80
1, 19368, Note_on_c, 2, 64, 80
1, 19368, Note_on_c, 3, 52, 80
1, 19368, Note_on_c, 4, 40, 80
1, 19368, Note_on_c, 5, 68, 96
1, 19368, Note_on_c, 6, 40, 96
1, 19378, Note_off_c, 5, 68, 0
1, 19380, Note_on_c, 5, 78, 96
1, 19389, Note_off_c, 0, 73, 0
1, 19389, Note_off_c, 1, 68, 0
1, 19389, Note_off_c, 2, 64, 0
1, 19389, Note_off_c, 3, 52, 0
1, 19389, Note_off_c, 4, 40, 0
1, 19389, Note_off_c, 6, 40, 0
1, 19390, Note_off_c, 5, 78, 0
1, 19392, Note_on_c, 3, 49, 80
1, 19392, Note_on_c, 4, 37, 80
1, 19392, Note_on_c, 5, 80, 96
1, 19392, Note_on_c, 6, 37, 96
1, 19402, Note_off_c, 5, 80, 0
1, 19404, Note_on_c, 5, 76, 96
1, 19413, Note_off_c, 3, 49, 0
1, 19413, Note_off_c, 4, 37, 0
1, 19413, Note_off_c, 6, 37, 0
1, 19414, Note_off_c, 5, 76, 0
1, 19416, Note_on_c, 0, 72, 80
1, 19416, Note_on_c, 1, 68, 80
1, 19416, Note_on_c, 2, 63, 80
1, 19416, Note_on_c, 3, 44, 80
1, 19416, Note_on_c, 4, 32, 80
1, 19416, Note_on_c, 5, 78, 96
1, 19416, Note_on_c, 6, 44, 96
1, 19426, Note_off_c, 5, 78, 0
1, 19426, Note_off_c, 6, 44, 0
1, 19428, Note_on_c, 5, 80, 96
1, 19428, Note_on_c, 6, 46, 96
1, 19433, Note_off_c, 5, 80, 0
1, 19434, Note_on_c, 5, 81, 96
1, 19437, Note_off_c, 0, 72, 0
1, 19437, Note_off_c, 3, 44, 0
1, 19437, Note_off_c, 4, 32, 0
1, 19438, Note_off_c, 6, 46, 0
1, 19439, Note_off_c, 5, 81, 0
1, 19440, Note_on_c, 0, 75, 80
1, 19440, Note_on_c, 3, 48, 80
1, 19440, Note_on_c, 4, 36, 80
1, 19440, Note_on_c, 5, 80, 96
1, 19440, Note_on_c, 6, 48, 96
1, 19446, Note_off_c, 6, 48, 0
1, 19461, Note_off_c, 0, 75, 0
1, 19461, Note_off_c, 3, 48, 0
1, 19461, Note_off_c, 4, 36, 0
1, 19464, Note_on_c, 0, 75, 80
1, 19464, Note_on_c, 3, 48, 80
1, 19464, Note_on_c, 4, 36, 80
1, 19464, Note_on_c, 6, 48, 96
1, 19471, Note_off_c, 5, 80, 0
1, 19474, Note_off_c, 6, 48, 0
1, 19476, Note_on_c, 5, 73, 96
1, 19476, Note_on_c, 6, 49, 96
1, 19485, Note_off_c, 0, 75, 0
1, 19485, Note_off_c, 3, 48, 0
1, 19485, Note_off_c, 4, 36, 0
1, 19486, Note_off_c, 5, 73, 0
1, 19486, Note_off_c, 6, 49, 0
1, 19488, Note_on_c, 0, 78, 80
1, 19488, Note_on_c, 3, 51, 80
1, 19488, Note_on_c, 4, 39, 80
1, 19488, Note_on_c, 5, 72, 96
1, 19488, Note_on_c, 6, 51, 96
1, 19494, Note_off_c, 6, 51, 0
1, 19498, Note_off_c, 5, 72, 0
1, 19500, Note_on_c, 5, 75, 96
1, 19509, Note_off_c, 0, 78, 0
1, 19509, Note_off_c, 3, 51, 0
1, 19509, Note_off_c, 4, 39, 0
1, 19510, Note_off_c, 5, 75, 0
1, 19512, Note_on_c, 0, 72, 80
1, 19512, Note_on_c, 3, 51, 80
1, 19512, Note_on_c, 4, 39, 80
1, 19512, Note_on_c, 5, 66, 96
1, 19512, Note_on_c, 6, 51, 96
1, 19522, Note_off_c, 6, 51, 0
1, 19524, Note_off_c, 5, 66, 0
1, 19524, Note_on_c, 5, 68, 96
1, 19524, Note_on_c, 6, 52, 96
1, 19530, Note_off_c, 5, 68, 0
1, 19530, Note_on_c, 5, 69, 96
1, 19533, Note_off_c, 0, 72, 0
1, 19533, Note_off_c, 3, 51, 0
1, 19533, Note_off_c, 4, 39, 0
1, 19534, Note_off_c, 6, 52, 0
1, 19535, Note_off_c, 5, 69, 0
1, 19536, Note_on_c, 0, 75, 80
1, 19536, Note_on_c, 3, 54, 80
1, 19536, Note_on_c, 4, 42, 80
1, 19536, Note_on_c, 5, 68, 96
1, 19536, Note_on_c, 6, 54, 96
1, 19542, Note_off_c, 6, 54, 0
1, 19557, Note_off_c, 0, 75, 0
1, 19557, Note_off_c, 3, 54, 0
1, 19557, Note_off_c, 4, 42, 0
1, 19560, Note_on_c, 0, 75, 80
1, 19560, Note_on_c, 3, 54, 80
1, 19560, Note_on_c, 4, 42, 80
1, 19560, Note_on_c, 6, 54, 96
1, 19567, Note_off_c, 5, 68, 0
1, 19572, Note_off_c, 1, 68, 0
1, 19572, Note_off_c, 2, 63, 0
1, 19572, Note_on_c, 5, 72, 96
1, 19581, Note_off_c, 0, 75, 0
1, 19581, Note_off_c, 3, 54, 0
1, 19581, Note_off_c, 4, 42, 0
1, 19581, Note_off_c, 6, 54, 0
1, 19582, Note_off_c, 5, 72, 0
1, 19584, Note_on_c, 0, 78, 80
1, 19584, Note_on_c, 1, 75, 80
1, 19584, Note_on_c, 2, 63, 80
1, 19584, Note_on_c, 3, 48, 80
1, 19584, Note_on_c, 4, 36, 80
1, 19584, Note_on_c, 5, 75, 96
1, 19584, Note_on_c, 6, 48, 96
1, 19594, Note_off_c, 5, 75, 0
1, 19596, Note_on_c, 5, 78, 96
1, 19605, Note_off_c, 0, 78, 0
1, 19605, Note_off_c, 1, 75, 0
1, 19605, Note_off_c, 2, 63, 0
1, 19605, Note_off_c, 3, 48, 0
1, 19605, Note_off_c, 4, 36, 0
1, 19605, Note_off_c, 6, 48, 0
1, 19606, Note_off_c, 5, 78, 0
1, 19608, Note_on_c, 0, 76, 80
1, 19608, Note_on_c, 1, 73, 80
1, 19608, Note_on_c, 2, 64, 80
1, 19608, Note_on_c, 3, 49, 80
1, 19608, Note_on_c, 4, 37, 80
1, 19608, Note_on_c, 5, 81, 96
1, 19608, Note_on_c, 6, 49, 96
1, 19620, Note_off_c, 5, 81, 0
1, 19620, Note_on_c, 5, 80, 96
1, 19629, Note_off_c, 0, 76, 0
1, 19629, Note_off_c, 1, 73, 0
1, 19629, Note_off_c, 2, 64, 0
1, 19629, Note_off_c, 3, 49, 0
1, 19629, Note_off_c, 4, 37, 0
1, 19629, Note_off_c, 6, 49, 0
1, 19632, Note_on_c, 2, 69, 80
1, 19632, Note_on_c, 3, 45, 80
1, 19632, Note_on_c, 4, 33, 80
1, 19632, Note_off_c, 5, 80, 0
1, 19632, Note_on_c, 5, 78, 96
1, 19632, Note_on_c, 6, 45, 96
1, 19644, Note_off_c, 5, 78, 0
1, 19644, Note_on_c, 5, 76, 96
1, 19653, Note_off_c, 3, 45, 0
1, 19653, Note_off_c, 4, 33, 0
1, 19653, Note_off_c, 6, 45, 0
1, 19654, Note_off_c, 5, 76, 0
1, 19656, Note_on_c, 1, 72, 80
1, 19656, Note_on_c, 3, 42, 80
1, 19656, Note_on_c, 4, 30, 80
1, 19656, Note_on_c, 5, 80, 96
1, 19656, Note_on_c, 6, 42, 96
1, 19668, Note_off_c, 5, 80, 0
1, 19668, Note_on_c, 5, 78, 96
1, 19674, Note_off_c, 2, 69, 0
1, 19677, Note_off_c, 1, 72, 0
1, 19677, Note_off_c, 3, 42, 0
1, 19677, Note_off_c, 4, 30, 0
1, 19677, Note_off_c, 6, 42, 0
1, 19680, Note_on_c, 2, 68, 80
1, 19680, Note_on_c, 3, 44, 80
1, 19680, Note_on_c, 4, 32, 80
1, 19680, Note_off_c, 5, 78, 0
1, 19680, Note_on_c, 5, 76, 96
1, 19680, Note_on_c, 6, 44, 96
1, 19692, Note_off_c, 5, 76, 0
1, 19692, Note_on_c, 5, 75, 96
1, 19701, Note_off_c, 2, 68, 0
1, 19701, Note_off_c, 3, 44, 0
1, 19701, Note_off_c, 4, 32, 0
1, 19701, Note_off_c, 6, 44, 0
1, 19702, Note_off_c, 5, 75, 0
1, 19704, Note_on_c, 1, 73, 80
1, 19704, Note_on_c, 2, 64, 80
1, 19704, Note_on_c, 3, 45, 80
1, 19704, Note_on_c, 4, 33, 80
1, 19704, Note_on_c, 5, 73, 96
1, 19704, Note_on_c, 6, 45, 96
1, 19716, Note_on_c, 0, 61, 80
1, 19725, Note_off_c, 1, 73, 0
1, 19725, Note_off_c, 2, 64, 0
1, 19725, Note_off_c, 3, 45, 0
1, 19725, Note_off_c, 4, 33, 0
1, 19725, Note_off_c, 6, 45, 0
1, 19726, Note_off_c, 0, 61, 0
1, 19728, Note_on_c, 0, 64, 80
1, 19728, Note_on_c, 6, 57, 96
1, 19738, Note_off_c, 0, 64, 0
1, 19740, Note_on_c, 0, 68, 80
1, 19746, Note_off_c, 5, 73, 0
1, 19749, Note_off_c, 6, 57, 0
1, 19750, Note_off_c, 0, 68, 0
1, 19752, Note_on_c, 0, 73, 80
1, 19752, Note_on_c, 1, 68, 80
1, 19752, Note_on_c, 2, 61, 80
1, 19752, Note_on_c, 3, 53, 80
1, 19752, Note_on_c, 4, 41, 80
1, 19752, Note_on_c, 6, 53, 96
1, 19762, Note_off_c, 0, 73, 0
1, 19764, Note_on_c, 0, 71, 80
1, 19773, Note_off_c, 1, 68, 0
1, 19773, Note_off_c, 2, 61, 0
1, 19773, Note_off_c, 3, 53, 0
1, 19773, Note_off_c, 4, 41, 0
1, 19773, Note_off_c, 6, 53, 0
1, 19774, Note_off_c, 0, 71, 0
1, 19776, Note_on_c, 0, 69, 80
1, 19776, Note_on_c, 5, 73, 96
1, 19776, Note_on_c, 6, 49, 96
1, 19786, Note_off_c, 0, 69, 0
1, 19788, Note_on_c, 0, 68, 80
1, 19797, Note_off_c, 5, 73, 0
1, 19797, Note_off_c, 6, 49, 0
1, 19798, Note_off_c, 0, 68, 0
1, 19800, Note_on_c, 0, 61, 80
1, 19800, Note_on_c, 1, 66, 80
1, 19800, Note_on_c, 2, 61, 80
1, 19800, Note_on_c, 3, 54, 80
1, 19800, Note_on_c, 4, 42, 80
1, 19800, Note_on_c, 5, 69, 96
1, 19800, Note_on_c, 6, 54, 96
1, 19803, Note_off_c, 0, 61, 0
1, 19812, Note_on_c, 0, 69, 80
1, 19812, Note_off_c, 5, 69, 0
1, 19812, Note_on_c, 5, 72, 96
1, 19821, Note_off_c, 1, 66, 0
1, 19821, Note_off_c, 2, 61, 0
1, 19821, Note_off_c, 3, 54, 0
1, 19821, Note_off_c, 4, 42, 0
1, 19821, Note_off_c, 6, 54, 0
1, 19824, Note_off_c, 0, 69, 0
1, 19824, Note_on_c, 0, 68, 80
1, 19824, Note_off_c, 5, 72, 0
1, 19824, Note_on_c, 5, 73, 96
1, 19824, Note_on_c, 6, 42, 96
1, 19836, Note_off_c, 0, 68, 0
1, 19836, Note_on_c, 0, 66, 80
1, 19845, Note_off_c, 5, 73, 0
1, 19845, Note_off_c, 6, 42, 0
1, 19846, Note_off_c, 0, 66, 0
1, 19848, Note_on_c, 0, 61, 80
1, 19848, Note_on_c, 1, 68, 80
1, 19848, Note_on_c, 2, 64, 80
1, 19848, Note_on_c, 3, 52, 80
1, 19848, Note_on_c, 4, 40, 80
1, 19848, Note_on_c, 6, 40, 96
1, 19851, Note_off_c, 0, 61, 0
1, 19860, Note_on_c, 0, 68, 80
1, 19869, Note_off_c, 1, 68, 0
1, 19869, Note_off_c, 2, 64, 0
1, 19869, Note_off_c, 3, 52, 0
1, 19869, Note_off_c, 4, 40, 0
1, 19869, Note_off_c, 6, 40, 0
1, 19872, Note_off_c, 0, 68, 0
1, 19872, Note_on_c, 0, 66, 80
1, 19872, Note_on_c, 5, 68, 96
1, 19872, Note_on_c, 6, 52, 96
1, 19884, Note_off_c, 0, 66, 0
1, 19884, Note_on_c, 0, 64, 80
1, 19893, Note_off_c, 5, 68, 0
1, 19893, Note_off_c, 6, 52, 0
1, 19894, Note_off_c, 0, 64, 0
1, 19896, Note_on_c, 0, 60, 80
1, 19896, Note_on_c, 1, 72, 80
1, 19896, Note_on_c, 2, 66, 80
1, 19896, Note_on_c, 3, 51, 80
1, 19896, Note_on_c, 4, 39, 80
1, 19896, Note_on_c, 5, 66, 96
1, 19896, Note_on_c, 6, 51, 96
1, 19899, Note_off_c, 0, 60, 0
1, 19908, Note_on_c, 0, 66, 80
1, 19908, Note_off_c, 5, 66, 0
1, 19908, Note_on_c, 5, 72, 96
1, 19917, Note_off_c, 1, 72, 0
1, 19917, Note_off_c, 2, 66, 0
1, 19917, Note_off_c, 3, 51, 0
1, 19917, Note_off_c, 4, 39, 0
1, 19917, Note_off_c, 6, 51, 0
1, 19920, Note_off_c, 0, 66, 0
1, 19920, Note_on_c, 0, 64, 80
1, 19920, Note_off_c, 5, 72, 0
1, 19920, Note_on_c, 5, 73, 96
1, 19920, Note_on_c, 6, 39, 96
1, 19932, Note_off_c, 0, 64, 0
1, 19932, Note_on_c, 0, 63, 80
1, 19941, Note_off_c, 5, 73, 0
1, 19941, Note_off_c, 6, 39, 0
1, 19942, Note_off_c, 0, 63, 0
1, 19944, Note_on_c, 0, 64, 80
1, 19944, Note_on_c, 1, 73, 80
1, 19944, Note_on_c, 2, 68, 80
1, 19944, Note_on_c, 3, 49, 80
1, 19944, Note_on_c, 4, 37, 80
1, 19944, Note_on_c, 6, 37, 96
1, 19956, Note_on_c, 5, 76, 96
1, 19965, Note_off_c, 0, 64, 0
1, 19965, Note_off_c, 1, 73, 0
1, 19965, Note_off_c, 2, 68, 0
1, 19965, Note_off_c, 3, 49, 0
1, 19965, Note_off_c, 4, 37, 0
1, 19965, Note_off_c, 6, 37, 0
1, 19966, Note_off_c, 5, 76, 0
1, 19968, Note_on_c, 0, 76, 80
1, 19968, Note_on_c, 5, 72, 96
1, 19968, Note_on_c, 6, 49, 96
1, 19978, Note_off_c, 5, 72, 0
1, 19980, Note_on_c, 5, 73, 96
1, 19989, Note_off_c, 6, 49, 0
1, 19990, Note_off_c, 5, 73, 0
1, 19992, Note_on_c, 1, 61, 80
1, 19992, Note_on_c, 2, 66, 80
1, 19992, Note_on_c, 3, 54, 80
1, 19992, Note_on_c, 4, 42, 80
1, 19992, Note_on_c, 5, 69, 96
1, 19992, Note_on_c, 6, 42, 96
1, 19995, Note_off_c, 5, 69, 0
1, 20004, Note_on_c, 5, 72, 96
1, 20010, Note_off_c, 0, 76, 0
1, 20013, Note_off_c, 1, 61, 0
1, 20013, Note_off_c, 2, 66, 0
1, 20013, Note_off_c, 3, 54, 0
1, 20013, Note_off_c, 4, 42, 0
1, 20013, Note_off_c, 6, 42, 0
1, 20016, Note_on_c, 0, 75, 80
1, 20016, Note_off_c, 5, 72, 0
1, 20016, Note_on_c, 5, 73, 96
1, 20016, Note_on_c, 6, 54, 96
1, 20028, Note_off_c, 5, 73, 0
1, 20028, Note_on_c, 5, 75, 96
1, 20037, Note_off_c, 6, 54, 0
1, 20038, Note_off_c, 5, 75, 0
1, 20040, Note_on_c, 1, 64, 80
1, 20040, Note_on_c, 2, 68, 80
1, 20040, Note_on_c, 3, 52, 80
1, 20040, Note_on_c, 4, 40, 80
1, 20040, Note_on_c, 5, 68, 96
1, 20040, Note_on_c, 6, 52, 96
1, 20043, Note_off_c, 5, 68, 0
1, 20052, Note_on_c, 5, 72, 96
1, 20058, Note_off_c, 0, 75, 0
1, 20061, Note_off_c, 1, 64, 0
1, 20061, Note_off_c, 2, 68, 0
1, 20061, Note_off_c, 3, 52, 0
1, 20061, Note_off_c, 4, 40, 0
1, 20061, Note_off_c, 6, 52, 0
1, 20064, Note_on_c, 0, 73, 80
1, 20064, Note_off_c, 5, 72, 0
1, 20064, Note_on_c, 5, 73, 96
1, 20064, Note_on_c, 6, 40, 96
1, 20076, Note_off_c, 5, 73, 0
1, 20076, Note_on_c, 5, 75, 96
1, 20085, Note_off_c, 6, 40, 0
1, 20086, Note_off_c, 5, 75, 0
1, 20088, Note_on_c, 1, 66, 80
1, 20088, Note_on_c, 2, 68, 80
1, 20088, Note_on_c, 3, 51, 80
1, 20088, Note_on_c, 4, 39, 80
1, 20088, Note_on_c, 5, 66, 96
1, 20088, Note_on_c, 6, 39, 96
1, 20091, Note_off_c, 5, 66, 0
1, 20100, Note_on_c, 5, 72, 96
1, 20106, Note_off_c, 0, 73, 0
1, 20109, Note_off_c, 1, 66, 0
1, 20109, Note_off_c, 2, 68, 0
1, 20109, Note_off_c, 3, 51, 0
1, 20109, Note_off_c, 4, 39, 0
1, 20109, Note_off_c, 6, 39, 0
1, 20112, Note_on_c, 0, 72, 80
1, 20112, Note_off_c, 5, 72, 0
1, 20112, Note_on_c, 5, 73, 96
1, 20112, Note_on_c, 6, 51, 96
1, 20124, Note_off_c, 5, 73, 0
1, 20124, Note_on_c, 5, 75, 96
1, 20133, Note_off_c, 0, 72, 0
1, 20133, Note_off_c, 6, 51, 0
1, 20134, Note_off_c, 5, 75, 0
1, 20136, Note_on_c, 0, 73, 80
1, 20136, Note_on_c, 1, 64, 80
1, 20136, Note_on_c, 2, 68, 80
1, 20136, Note_on_c, 3, 49, 80
1, 20136, Note_on_c, 4, 37, 80
1, 20136, Note_on_c, 5, 64, 96
1, 20136, Note_on_c, 6, 49, 96
1, 20146, Note_off_c, 5, 64, 0
1, 20148, Note_on_c, 5, 68, 96
1, 20157, Note_off_c, 0, 73, 0
1, 20157, Note_off_c, 1, 64, 0
1, 20157, Note_off_c, 2, 68, 0
1, 20157, Note_off_c, 3, 49, 0
1, 20157, Note_off_c, 4, 37, 0
1, 20157, Note_off_c, 6, 49, 0
1, 20158, Note_off_c, 5, 68, 0
1, 20160, Note_on_c, 0, 76, 80
1, 20160, Note_on_c, 1, 68, 80
1, 20160, Note_on_c, 2, 61, 80
1, 20160, Note_on_c, 3, 49, 80
1, 20160, Note_on_c, 4, 37, 80
1, 20160, Note_on_c, 5, 73, 96
1, 20160, Note_on_c, 6, 37, 96
1, 20181, Note_off_c, 0, 76, 0
1, 20181, Note_off_c, 1, 68, 0
1, 20181, Note_off_c, 2, 61, 0
1, 20181, Note_off_c, 3, 49, 0
1, 20181, Note_off_c, 4, 37, 0
1, 20181, Note_off_c, 6, 37, 0
1, 20184, Note_on_c, 0, 78, 80
1, 20184, Note_on_c, 1, 66, 80
1, 20184, Note_on_c, 2, 69, 80
1, 20184, Note_on_c, 3, 51, 80
1, 20184, Note_on_c, 4, 39, 80
1, 20184, Note_on_c, 6, 39, 96
1, 20191, Note_off_c, 5, 73, 0
1, 20196, Note_on_c, 5, 74, 96
1, 20205, Note_off_c, 0, 78, 0
1, 20205, Note_off_c, 1, 66, 0
1, 20205, Note_off_c, 2, 69, 0
1, 20205, Note_off_c, 3, 51, 0
1, 20205, Note_off_c, 4, 39, 0
1, 20205, Note_off_c, 6, 39, 0
1, 20206, Note_off_c, 5, 74, 0
1, 20208, Note_on_c, 3, 51, 80
1, 20208, Note_on_c, 4, 39, 80
1, 20208, Note_on_c, 5, 73, 96
1, 20208, Note_on_c, 6, 51, 96
1, 20218, Note_off_c, 5, 73, 0
1, 20220, Note_on_c, 5, 69, 96
1, 20229, Note_off_c, 3, 51, 0
1, 20229, Note_off_c, 4, 39, 0
1, 20229, Note_off_c, 6, 51, 0
1, 20230, Note_off_c, 5, 69, 0
1, 20232, Note_on_c, 0, 80, 80
1, 20232, Note_on_c, 1, 73, 80
1, 20232, Note_on_c, 2, 68, 80
1, 20232, Note_on_c, 3, 53, 80
1, 20232, Note_on_c, 4, 41, 80
1, 20232, Note_on_c, 5, 71, 96
1, 20232, Note_on_c, 6, 53, 96
1, 20242, Note_off_c, 5, 71, 0
1, 20244, Note_on_c, 5, 73, 96
1, 20253, Note_off_c, 0, 80, 0
1, 20253, Note_off_c, 1, 73, 0
1, 20253, Note_off_c, 2, 68, 0
1, 20253, Note_off_c, 3, 53, 0
1, 20253, Note_off_c, 4, 41, 0
1, 20253, Note_off_c, 6, 53, 0
1, 20254, Note_off_c, 5, 73, 0
1, 20256, Note_on_c, 3, 53, 80
1, 20256, Note_on_c, 4, 41, 80
1, 20256, Note_on_c, 5, 71, 96
1, 20256, Note_on_c, 6, 41, 96
1, 20266, Note_off_c, 5, 71, 0
1, 20268, Note_on_c, 5, 68, 96
1, 20277, Note_off_c, 3, 53, 0
1, 20277, Note_off_c, 4, 41, 0
1, 20277, Note_off_c, 6, 41, 0
1, 20278, Note_off_c, 5, 68, 0
1, 20280, Note_on_c, 0, 73, 80
1, 20280, Note_on_c, 1, 69, 80
1, 20280, Note_on_c, 2, 66, 80
1, 20280, Note_on_c, 3, 54, 80
1, 20280, Note_on_c, 4, 42, 80
1, 20280, Note_on_c, 5, 69, 96
1, 20280, Note_on_c, 6, 42, 96
1, 20290, Note_off_c, 5, 69, 0
1, 20292, Note_on_c, 5, 66, 96
1, 20301, Note_off_c, 0, 73, 0
1, 20301, Note_off_c, 1, 69, 0
1, 20301, Note_off_c, 2, 66, 0
1, 20301, Note_off_c, 3, 54, 0
1, 20301, Note_off_c, 4, 42, 0
1, 20301, Note_off_c, 6, 42, 0
1, 20302, Note_off_c, 5, 66, 0
1, 20304, Note_on_c, 5, 75, 96
1, 20304, Note_on_c, 6, 54, 96
1, 20310, Note_off_c, 5, 75, 0
1, 20314, Note_off_c, 6, 54, 0
1, 20316, Note_on_c, 6, 52, 96
1, 20326, Note_off_c, 6, 52, 0
1, 20328, Note_on_c, 5, 75, 96
1, 20328, Note_on_c, 6, 54, 96
1, 20349, Note_off_c, 6, 54, 0
1, 20352, Note_on_c, 0, 78, 80
1, 20352, Note_on_c, 1, 72, 80
1, 20352, Note_on_c, 2, 66, 80
1, 20352, Note_on_c, 3, 51, 80
1, 20352, Note_on_c, 4, 39, 80
1, 20352, Note_on_c, 6, 39, 96
1, 20373, Note_off_c, 0, 78, 0
1, 20373, Note_off_c, 1, 72, 0
1, 20373, Note_off_c, 2, 66, 0
1, 20373, Note_off_c, 3, 51, 0
1, 20373, Note_off_c, 4, 39, 0
1, 20373, Note_off_c, 6, 39, 0
1, 20376, Note_on_c, 0, 80, 80
1, 20376, Note_on_c, 1, 68, 80
1, 20376, Note_on_c, 2, 64, 80
1, 20376, Note_on_c, 3, 52, 80
1, 20376, Note_on_c, 4, 40, 80
1, 20376, Note_on_c, 6, 40, 96
1, 20380, Note_off_c, 5, 75, 0
1, 20388, Note_on_c, 5, 76, 96
1, 20397, Note_off_c, 0, 80, 0
1, 20397, Note_off_c, 1, 68, 0
1, 20397, Note_off_c, 2, 64, 0
1, 20397, Note_off_c, 3, 52, 0
1, 20397, Note_off_c, 4, 40, 0
1, 20397, Note_off_c, 6, 40, 0
1, 20400, Note_on_c, 3, 52, 80
1, 20400, Note_on_c, 4, 40, 80
1, 20400, Note_off_c, 5, 76, 0
1, 20400, Note_on_c, 5, 75, 96
1, 20400, Note_on_c, 6, 52, 96
1, 20412, Note_off_c, 5, 75, 0
1, 20412, Note_on_c, 5, 73, 96
1, 20418, Note_off_c, 5, 73, 0
1, 20418, Note_on_c, 5, 72, 96
1, 20421, Note_off_c, 3, 52, 0
1, 20421, Note_off_c, 4, 40, 0
1, 20421, Note_off_c, 6, 52, 0
1, 20423, Note_off_c, 5, 72, 0
1, 20424, Note_on_c, 0, 81, 80
1, 20424, Note_on_c, 1, 75, 80
1, 20424, Note_on_c, 2, 69, 80
1, 20424, Note_on_c, 3, 54, 80
1, 20424, Note_on_c, 4, 42, 80
1, 20424, Note_on_c, 5, 73, 96
1, 20424, Note_on_c, 6, 54, 96
1, 20436, Note_off_c, 5, 73, 0
1, 20436, Note_on_c, 5, 75, 96
1, 20445, Note_off_c, 0, 81, 0
1, 20445, Note_off_c, 1, 75, 0
1, 20445, Note_off_c, 2, 69, 0
1, 20445, Note_off_c, 3, 54, 0
1, 20445, Note_off_c, 4, 42, 0
1, 20445, Note_off_c, 6, 54, 0
1, 20448, Note_on_c, 3, 54, 80
1, 20448, Note_on_c, 4, 42, 80
1, 20448, Note_off_c, 5, 75, 0
1, 20448, Note_on_c, 5, 73, 96
1, 20448, Note_on_c, 6, 42, 96
1, 20460, Note_off_c, 5, 73, 0
1, 20460, Note_on_c, 5, 72, 96
1, 20466, Note_off_c, 5, 72, 0
1, 20466, Note_on_c, 5, 70, 96
1, 20469, Note_off_c, 3, 54, 0
1, 20469, Note_off_c, 4, 42, 0
1, 20469, Note_off_c, 6, 42, 0
1, 20471, Note_off_c, 5, 70, 0
1, 20472, Note_on_c, 0, 75, 80
1, 20472, Note_on_c, 1, 72, 80
1, 20472, Note_on_c, 2, 68, 80
1, 20472, Note_on_c, 3, 56, 80
1, 20472, Note_on_c, 4, 44, 80
1, 20472, Note_on_c, 5, 72, 96
1, 20472, Note_on_c, 6, 44, 96
1, 20482, Note_off_c, 5, 72, 0
1, 20484, Note_on_c, 5, 68, 96
1, 20493, Note_off_c, 0, 75, 0
1, 20493, Note_off_c, 1, 72, 0
1, 20493, Note_off_c, 2, 68, 0
1, 20493, Note_off_c, 3, 56, 0
1, 20493, Note_off_c, 4, 44, 0
1, 20493, Note_off_c, 6, 44, 0
1, 20494, Note_off_c, 5, 68, 0
1, 20496, Note_on_c, 5, 76, 96
1, 20496, Note_on_c, 6, 56, 96
1, 20502, Note_off_c, 5, 76, 0
1, 20506, Note_off_c, 6, 56, 0
1, 20508, Note_on_c, 6, 54, 96
1, 20518, Note_off_c, 6, 54, 0
1, 20520, Note_on_c, 5, 76, 96
1, 20520, Note_on_c, 6, 56, 96
1, 20541, Note_off_c, 6, 56, 0
1, 20544, Note_on_c, 0, 80, 80
1, 20544, Note_on_c, 1, 73, 80
1, 20544, Note_on_c, 2, 68, 80
1, 20544, Note_on_c, 3, 52, 80
1, 20544, Note_on_c, 4, 40, 80
1, 20544, Note_on_c, 6, 40, 96
1, 20565, Note_off_c, 0, 80, 0
1, 20565, Note_off_c, 1, 73, 0
1, 20565, Note_off_c, 2, 68, 0
1, 20565, Note_off_c, 3, 52, 0
1, 20565, Note_off_c, 4, 40, 0
1, 20565, Note_off_c, 6, 40, 0
1, 20568, Note_on_c, 0, 81, 80
1, 20568, Note_on_c, 1, 69, 80
1, 20568, Note_on_c, 2, 61, 80
1, 20568, Note_on_c, 3, 54, 80
1, 20568, Note_on_c, 4, 42, 80
1, 20568, Note_on_c, 6, 42, 96
1, 20572, Note_off_c, 5, 76, 0
1, 20580, Note_on_c, 5, 78, 96
1, 20589, Note_off_c, 0, 81, 0
1, 20589, Note_off_c, 1, 69, 0
1, 20589, Note_off_c, 2, 61, 0
1, 20589, Note_off_c, 3, 54, 0
1, 20589, Note_off_c, 4, 42, 0
1, 20589, Note_off_c, 6, 42, 0
1, 20592, Note_on_c, 3, 54, 80
1, 20592, Note_on_c, 4, 42, 80
1, 20592, Note_on_c, 6, 54, 96
1, 20598, Note_off_c, 5, 78, 0
1, 20598, Note_on_c, 5, 76, 96
1, 20604, Note_off_c, 5, 76, 0
1, 20604, Note_on_c, 5, 75, 96
1, 20610, Note_off_c, 5, 75, 0
1, 20610, Note_on_c, 5, 73, 96
1, 20613, Note_off_c, 3, 54, 0
1, 20613, Note_off_c, 4, 42, 0
1, 20613, Note_off_c, 6, 54, 0
1, 20615, Note_off_c, 5, 73, 0
1, 20616, Note_on_c, 0, 83, 80
1, 20616, Note_on_c, 1, 76, 80
1, 20616, Note_on_c, 2, 59, 80
1, 20616, Note_on_c, 3, 56, 80
1, 20616, Note_on_c, 4, 44, 80
1, 20616, Note_on_c, 5, 74, 96
1, 20616, Note_on_c, 6, 56, 96
1, 20628, Note_off_c, 5, 74, 0
1, 20628, Note_on_c, 5, 76, 96
1, 20637, Note_off_c, 0, 83, 0
1, 20637, Note_off_c, 1, 76, 0
1, 20637, Note_off_c, 2, 59, 0
1, 20637, Note_off_c, 3, 56, 0
1, 20637, Note_off_c, 4, 44, 0
1, 20637, Note_off_c, 6, 56, 0
1, 20640, Note_on_c, 3, 56, 80
1, 20640, Note_on_c, 4, 44, 80
1, 20640, Note_on_c, 6, 44, 96
1, 20646, Note_off_c, 5, 76, 0
1, 20646, Note_on_c, 5, 74, 96
1, 20652, Note_off_c, 5, 74, 0
1, 20652, Note_on_c, 5, 73, 96
1, 20658, Note_off_c, 5, 73, 0
1, 20658, Note_on_c, 5, 72, 96
1, 20661, Note_off_c, 3, 56, 0
1, 20661, Note_off_c, 4, 44, 0
1, 20661, Note_off_c, 6, 44, 0
1, 20663, Note_off_c, 5, 72, 0
1, 20664, Note_on_c, 0, 76, 80
1, 20664, Note_on_c, 1, 73, 80
1, 20664, Note_on_c, 2, 57, 80
1, 20664, Note_on_c, 3, 57, 80
1, 20664, Note_on_c, 4, 45, 80
1, 20664, Note_on_c, 5, 73, 96
1, 20664, Note_on_c, 6, 45, 96
1, 20674, Note_off_c, 5, 73, 0
1, 20676, Note_off_c, 3, 57, 0
1, 20676, Note_on_c, 3, 56, 80
1, 20676, Note_off_c, 4, 45, 0
1, 20676, Note_on_c, 4, 44, 80
1, 20676, Note_on_c, 5, 77, 96
1, 20685, Note_off_c, 0, 76, 0
1, 20685, Note_off_c, 1, 73, 0
1, 20685, Note_off_c, 2, 57, 0
1, 20685, Note_off_c, 6, 45, 0
1, 20686, Note_off_c, 5, 77, 0
1, 20688, Note_off_c, 3, 56, 0
1, 20688, Note_on_c, 3, 57, 80
1, 20688, Note_off_c, 4, 44, 0
1, 20688, Note_on_c, 4, 45, 80
1, 20688, Note_on_c, 5, 78, 96
1, 20688, Note_on_c, 6, 57, 96
1, 20694, Note_off_c, 5, 78, 0
1, 20698, Note_off_c, 6, 57, 0
1, 20700, Note_off_c, 3, 57, 0
1, 20700, Note_on_c, 3, 54, 80
1, 20700, Note_off_c, 4, 45, 0
1, 20700, Note_on_c, 4, 42, 80
1, 20700, Note_on_c, 6, 54, 96
1, 20710, Note_off_c, 3, 54, 0
1, 20710, Note_off_c, 4, 42, 0
1, 20710, Note_off_c, 6, 54, 0
1, 20712, Note_on_c, 3, 51, 80
1, 20712, Note_on_c, 4, 39, 80
1, 20712, Note_on_c, 5, 78, 96
1, 20712, Note_on_c, 6, 51, 96
1, 20722, Note_off_c, 6, 51, 0
1, 20724, Note_off_c, 3, 51, 0
1, 20724, Note_on_c, 3, 49, 80
1, 20724, Note_off_c, 4, 39, 0
1, 20724, Note_on_c, 4, 37, 80
1, 20724, Note_on_c, 6, 54, 96
1, 20734, Note_off_c, 6, 54, 0
1, 20736, Note_on_c, 0, 81, 80
1, 20736, Note_on_c, 1, 75, 80
1, 20736, Note_on_c, 2, 66, 80
1, 20736, Note_off_c, 3, 49, 0
1, 20736, Note_on_c, 3, 51, 80
1, 20736, Note_off_c, 4, 37, 0
1, 20736, Note_on_c, 4, 39, 80
1, 20736, Note_on_c, 6, 48, 96
1, 20746, Note_off_c, 6, 48, 0
1, 20748, Note_off_c, 3, 51, 0
1, 20748, Note_on_c, 3, 48, 80
1, 20748, Note_off_c, 4, 39, 0
1, 20748, Note_on_c, 4, 36, 80
1, 20748, Note_on_c, 6, 51, 96
1, 20757, Note_off_c, 0, 81, 0
1, 20757, Note_off_c, 1, 75, 0
1, 20757, Note_off_c, 2, 66, 0
1, 20758, Note_off_c, 3, 48, 0
1, 20758, Note_off_c, 4, 36, 0
1, 20758, Note_off_c, 6, 51, 0
1, 20760, Note_on_c, 0, 81, 80
1, 20760, Note_on_c, 1, 72, 80
1, 20760, Note_on_c, 2, 63, 80
1, 20760, Note_on_c, 3, 44, 80
1, 20760, Note_on_c, 4, 32, 80
1, 20760, Note_on_c, 6, 44, 96
1, 20764, Note_off_c, 5, 78, 0
1, 20772, Note_on_c, 5, 80, 96
1, 20781, Note_off_c, 1, 72, 0
1, 20781, Note_off_c, 2, 63, 0
1, 20782, Note_off_c, 5, 80, 0
1, 20784, Note_off_c, 0, 81, 0
1, 20784, Note_on_c, 0, 80, 80
1, 20784, Note_on_c, 5, 78, 96
1, 20794, Note_off_c, 5, 78, 0
1, 20796, Note_on_c, 5, 75, 96
1, 20805, Note_off_c, 0, 80, 0
1, 20806, Note_off_c, 5, 75, 0
1, 20808, Note_on_c, 0, 80, 80
1, 20808, Note_on_c, 1, 73, 80
1, 20808, Note_on_c, 2, 68, 80
1, 20808, Note_on_c, 5, 76, 96
1, 20820, Note_off_c, 5, 76, 0
1, 20820, Note_on_c, 5, 78, 96
1, 20829, Note_off_c, 1, 73, 0
1, 20829, Note_off_c, 2, 68, 0
1, 20832, Note_off_c, 0, 80, 0
1, 20832, Note_on_c, 0, 78, 80
1, 20832, Note_off_c, 5, 78, 0
1, 20832, Note_on_c, 5, 76, 96
1, 20844, Note_off_c, 5, 76, 0
1, 20844, Note_on_c, 5, 73, 96
1, 20853, Note_off_c, 0, 78, 0
1, 20854, Note_off_c, 5, 73, 0
1, 20856, Note_on_c, 0, 78, 80
1, 20856, Note_on_c, 1, 72, 80
1, 20856, Note_on_c, 2, 68, 80
1, 20856, Note_on_c, 5, 75, 96
1, 20868, Note_off_c, 5, 75, 0
1, 20868, Note_on_c, 5, 76, 96
1, 20877, Note_off_c, 1, 72, 0
1, 20877, Note_off_c, 2, 68, 0
1, 20880, Note_off_c, 0, 78, 0
1, 20880, Note_on_c, 0, 76, 80
1, 20880, Note_off_c, 5, 76, 0
1, 20880, Note_on_c, 5, 75, 96
1, 20892, Note_off_c, 5, 75, 0
1, 20892, Note_on_c, 5, 72, 96
1, 20901, Note_off_c, 0, 76, 0
1, 20902, Note_off_c, 5, 72, 0
1, 20904, Note_on_c, 0, 76, 80
1, 20904, Note_on_c, 1, 68, 80
1, 20904, Note_on_c, 2, 61, 80
1, 20904, Note_on_c, 5, 73, 96
1, 20916, Note_off_c, 5, 73, 0
1, 20916, Note_on_c, 5, 75, 96
1, 20925, Note_off_c, 1, 68, 0
1, 20925, Note_off_c, 2, 61, 0
1, 20928, Note_off_c, 0, 76, 0
1, 20928, Note_on_c, 0, 75, 80
1, 20928, Note_off_c, 5, 75, 0
1, 20928, Note_on_c, 5, 73, 96
1, 20940, Note_off_c, 5, 73, 0
1, 20940, Note_on_c, 5, 70, 96
1, 20949, Note_off_c, 0, 75, 0
1, 20950, Note_off_c, 5, 70, 0
1, 20952, Note_on_c, 0, 75, 80
1, 20952, Note_on_c, 1, 68, 80
1, 20952, Note_on_c, 2, 68, 80
1, 20952, Note_on_c, 5, 72, 96
1, 20962, Note_off_c, 5, 72, 0
1, 20964, Note_on_c, 5, 68, 96
1, 20973, Note_off_c, 0, 75, 0
1, 20973, Note_off_c, 1, 68, 0
1, 20974, Note_off_c, 5, 68, 0
1, 20976, Note_off_c, 2, 68, 0
1, 20976, Note_on_c, 2, 66, 80
1, 20976, Note_on_c, 5, 70, 96
1, 20986, Note_off_c, 5, 70, 0
1, 20988, Note_on_c, 5, 72, 96
1, 20997, Note_off_c, 2, 66, 0
1, 20998, Note_off_c, 5, 72, 0
1, 21000, Note_on_c, 2, 64, 80
1, 21000, Note_on_c, 5, 73, 96
1, 21010, Note_off_c, 5, 73, 0
1, 21012, Note_on_c, 5, 75, 96
1, 21022, Note_off_c, 5, 75, 0
1, 21024, Note_on_c, 0, 76, 80
1, 21024, Note_on_c, 1, 73, 80
1, 21024, Note_off_c, 2, 64, 0
1, 21024, Note_on_c, 2, 61, 80
1, 21024, Note_on_c, 5, 76, 96
1, 21034, Note_off_c, 5, 76, 0
1, 21036, Note_on_c, 5, 73, 96
1, 21045, Note_off_c, 0, 76, 0
1, 21045, Note_off_c, 1, 73, 0
1, 21045, Note_off_c, 2, 61, 0
1, 21046, Note_off_c, 5, 73, 0
1, 21048, Note_on_c, 0, 76, 80
1, 21048, Note_on_c, 1, 73, 80
1, 21048, Note_on_c, 2, 63, 80
1, 21048, Note_on_c, 5, 66, 96
1, 21058, Note_off_c, 5, 66, 0
1, 21060, Note_on_c, 5, 70, 96
1, 21070, Note_off_c, 5, 70, 0
1, 21072, Note_off_c, 0, 76, 0
1, 21072, Note_on_c, 0, 75, 80
1, 21072, Note_off_c, 1, 73, 0
1, 21072, Note_on_c, 1, 72, 80
1, 21072, Note_off_c, 2, 63, 0
1, 21072, Note_on_c, 2, 66, 80
1, 21072, Note_on_c, 5, 72, 96
1, 21082, Note_off_c, 5, 72, 0
1, 21084, Note_on_c, 5, 73, 96
1, 21093, Note_off_c, 0, 75, 0
1, 21093, Note_off_c, 1, 72, 0
1, 21093, Note_off_c, 2, 66, 0
1, 21094, Note_off_c, 5, 73, 0
1, 21096, Note_on_c, 2, 60, 80
1, 21096, Note_on_c, 5, 75, 96
1, 21106, Note_off_c, 5, 75, 0
1, 21108, Note_on_c, 5, 76, 96
1, 21118, Note_off_c, 5, 76, 0
1, 21120, Note_on_c, 0, 78, 80
1, 21120, Note_on_c, 1, 75, 80
1, 21120, Note_off_c, 2, 60, 0
1, 21120, Note_on_c, 2, 63, 80
1, 21120, Note_on_c, 5, 78, 96
1, 21130, Note_off_c, 5, 78, 0
1, 21132, Note_on_c, 5, 75, 96
1, 21141, Note_off_c, 0, 78, 0
1, 21141, Note_off_c, 1, 75, 0
1, 21141, Note_off_c, 2, 63, 0
1, 21142, Note_off_c, 5, 75, 0
1, 21144, Note_on_c, 0, 78, 80
1, 21144, Note_on_c, 1, 75, 80
1, 21144, Note_on_c, 2, 64, 80
1, 21144, Note_on_c, 5, 68, 96
1, 21154, Note_off_c, 5, 68, 0
1, 21156, Note_on_c, 5, 72, 96
1, 21166, Note_off_c, 5, 72, 0
1, 21168, Note_off_c, 0, 78, 0
1, 21168, Note_on_c, 0, 76, 80
1, 21168, Note_off_c, 1, 75, 0
1, 21168, Note_on_c, 1, 73, 80
1, 21168, Note_off_c, 2, 64, 0
1, 21168, Note_on_c, 2, 68, 80
1, 21168, Note_on_c, 5, 73, 96
1, 21178, Note_off_c, 5, 73, 0
1, 21180, Note_on_c, 5, 75, 96
1, 21189, Note_off_c, 0, 76, 0
1, 21189, Note_off_c, 1, 73, 0
1, 21189, Note_off_c, 2, 68, 0
1, 21190, Note_off_c, 5, 75, 0
1, 21192, Note_on_c, 2, 61, 80
1, 21192, Note_on_c, 5, 76, 96
1, 21202, Note_off_c, 5, 76, 0
1, 21204, Note_on_c, 5, 78, 96
1, 21214, Note_off_c, 5, 78, 0
1, 21216, Note_on_c, 0, 80, 80
1, 21216, Note_on_c, 1, 76, 80
1, 21216, Note_off_c, 2, 61, 0
1, 21216, Note_on_c, 2, 64, 80
1, 21216, Note_on_c, 5, 80, 96
1, 21226, Note_off_c, 5, 80, 0
1, 21228, Note_on_c, 5, 76, 96
1, 21237, Note_off_c, 0, 80, 0
1, 21237, Note_off_c, 1, 76, 0
1, 21237, Note_off_c, 2, 64, 0
1, 21238, Note_off_c, 5, 76, 0
1, 21240, Note_on_c, 0, 80, 80
1, 21240, Note_on_c, 1, 76, 80
1, 21240, Note_on_c, 2, 66, 80
1, 21240, Note_on_c, 5, 69, 96
1, 21250, Note_off_c, 5, 69, 0
1, 21252, Note_on_c, 5, 73, 96
1, 21262, Note_off_c, 5, 73, 0
1, 21264, Note_off_c, 0, 80, 0
1, 21264, Note_on_c, 0, 78, 80
1, 21264, Note_off_c, 1, 76, 0
1, 21264, Note_on_c, 1, 75, 80
1, 21264, Note_off_c, 2, 66, 0
1, 21264, Note_on_c, 2, 69, 80
1, 21264, Note_on_c, 5, 75, 96
1, 21274, Note_off_c, 5, 75, 0
1, 21276, Note_on_c, 5, 77, 96
1, 21285, Note_off_c, 0, 78, 0
1, 21285, Note_off_c, 1, 75, 0
1, 21285, Note_off_c, 2, 69, 0
1, 21286, Note_off_c, 5, 77, 0
1, 21288, Note_on_c, 2, 63, 80
1, 21288, Note_on_c, 5, 78, 96
1, 21298, Note_off_c, 5, 78, 0
1, 21300, Note_on_c, 5, 80, 96
1, 21310, Note_off_c, 5, 80, 0
1, 21312, Note_on_c, 0, 81, 80
1, 21312, Note_on_c, 1, 78, 80
1, 21312, Note_off_c, 2, 63, 0
1, 21312, Note_on_c, 2, 66, 80
1, 21312, Note_on_c, 5, 81, 96
1, 21322, Note_off_c, 5, 81, 0
1, 21324, Note_on_c, 5, 78, 96
1, 21333, Note_off_c, 0, 81, 0
1, 21333, Note_off_c, 1, 78, 0
1, 21333, Note_off_c, 2, 66, 0
1, 21334, Note_off_c, 5, 78, 0
1, 21336, Note_on_c, 0, 81, 80
1, 21336, Note_on_c, 1, 78, 80
1, 21336, Note_on_c, 2, 68, 80
1, 21336, Note_on_c, 5, 72, 96
1, 21339, Note_off_c, 5, 72, 0
1, 21348, Note_off_c, 0, 81, 0
1, 21348, Note_on_c, 0, 78, 80
1, 21348, Note_off_c, 1, 78, 0
1, 21348, Note_on_c, 1, 75, 80
1, 21348, Note_on_c, 5, 81, 96
1, 21357, Note_off_c, 2, 68, 0
1, 21358, Note_off_c, 0, 78, 0
1, 21358, Note_off_c, 1, 75, 0
1, 21360, Note_on_c, 0, 80, 80
1, 21360, Note_on_c, 1, 76, 80
1, 21360, Note_off_c, 5, 81, 0
1, 21360, Note_on_c, 5, 80, 96
1, 21366, Note_off_c, 0, 80, 0
1, 21366, Note_off_c, 1, 76, 0
1, 21372, Note_off_c, 5, 80, 0
1, 21372, Note_on_c, 5, 78, 96
1, 21382, Note_off_c, 5, 78, 0
1, 21384, Note_on_c, 0, 80, 80
1, 21384, Note_on_c, 1, 76, 80
1, 21384, Note_on_c, 2, 68, 80
1, 21384, Note_on_c, 5, 73, 96
1, 21387, Note_off_c, 5, 73, 0
1, 21396, Note_off_c, 0, 80, 0
1, 21396, Note_on_c, 0, 76, 80
1, 21396, Note_off_c, 1, 76, 0
1, 21396, Note_on_c, 1, 73, 80
1, 21396, Note_on_c, 5, 81, 96
1, 21405, Note_off_c, 2, 68, 0
1, 21406, Note_off_c, 0, 76, 0
1, 21406, Note_off_c, 1, 73, 0
1, 21408, Note_on_c, 0, 78, 80
1, 21408, Note_on_c, 1, 75, 80
1, 21408, Note_off_c, 5, 81, 0
1, 21408, Note_on_c, 5, 80, 96
1, 21414, Note_off_c, 0, 78, 0
1, 21414, Note_off_c, 1, 75, 0
1, 21420, Note_off_c, 5, 80, 0
1, 21420, Note_on_c, 5, 78, 96
1, 21430, Note_off_c, 5, 78, 0
1, 21432, Note_on_c, 0, 78, 80
1, 21432, Note_on_c, 1, 75, 80
1, 21432, Note_on_c, 2, 72, 80
1, 21432, Note_on_c, 5, 75, 96
1, 21435, Note_off_c, 5, 75, 0
1, 21444, Note_on_c, 5, 81, 96
1, 21444, Note_off_c, 6, 44, 0
1, 21453, Note_off_c, 0, 78, 0
1, 21453, Note_off_c, 1, 75, 0
1, 21453, Note_off_c, 2, 72, 0
1, 21456, Note_off_c, 3, 44, 0
1, 21456, Note_off_c, 4, 32, 0
1, 21456, Note_off_c, 5, 81, 0
1, 21456, Note_on_c, 5, 80, 96
1, 21456, Note_on_c, 6, 46, 96
1, 21466, Note_off_c, 6, 46, 0
1, 21468, Note_off_c, 5, 80, 0
1, 21468, Note_on_c, 5, 78, 96
1, 21468, Note_on_c, 6, 48, 96
1, 21478, Note_off_c, 5, 78, 0
1, 21478, Note_off_c, 6, 48, 0
1, 21480, Note_on_c, 5, 76, 96
1, 21480, Note_on_c, 6, 49, 96
1, 21490, Note_off_c, 5, 76, 0
1, 21490, Note_off_c, 6, 49, 0
1, 21492, Note_on_c, 5, 72, 96
1, 21492, Note_on_c, 6, 51, 96
1, 21502, Note_off_c, 5, 72, 0
1, 21502, Note_off_c, 6, 51, 0
1, 21504, Note_on_c, 5, 73, 96
1, 21504, Note_on_c, 6, 52, 96
1, 21514, Note_off_c, 5, 73, 0
1, 21514, Note_off_c, 6, 52, 0
1, 21516, Note_on_c, 5, 81, 96
1, 21516, Note_on_c, 6, 51, 96
1, 21526, Note_off_c, 5, 81, 0
1, 21526, Note_off_c, 6, 51, 0
1, 21528, Note_on_c, 5, 80, 96
1, 21528, Note_on_c, 6, 52, 96
1, 21538, Note_off_c, 6, 52, 0
1, 21540, Note_on_c, 6, 54, 96
1, 21549, Note_off_c, 5, 80, 0
1, 21550, Note_off_c, 6, 54, 0
1, 21552, Note_on_c, 6, 56, 96
1, 21562, Note_off_c, 6, 56, 0
1, 21564, Note_on_c, 6, 55, 96
1, 21574, Note_off_c, 6, 55, 0
1, 21576, Tempo, 1363636
1, 21576, Note_on_c, 0, 72, 80
1, 21576, Note_on_c, 1, 68, 80
1, 21576, Note_on_c, 2, 56, 80
1, 21576, Note_on_c, 3, 44, 80
1, 21576, Note_on_c, 4, 32, 80
1, 21576, Note_on_c, 5, 78, 96
1, 21576, Note_on_c, 6, 56, 96
1, 21579, Note_off_c, 5, 78, 0
1, 21579, Note_on_c, 5, 76, 96
1, 21582, Note_off_c, 5, 76, 0
1, 21582, Note_on_c, 5, 78, 96
1, 21585, Note_off_c, 5, 78, 0
1, 21585, Note_on_c, 5, 76, 96
1, 21588, Note_off_c, 5, 76, 0
1, 21588, Note_on_c, 5, 78, 96
1, 21591, Note_off_c, 5, 78, 0
1, 21591, Note_on_c, 5, 76, 96
1, 21594, Note_off_c, 5, 76, 0
1, 21594, Note_on_c, 5, 78, 96
1, 21597, Note_off_c, 1, 68, 0
1, 21597, Note_off_c, 5, 78, 0
1, 21597, Note_on_c, 5, 76, 96
1, 21597, Note_off_c, 6, 56, 0
1, 21600, Note_on_c, 1, 66, 80
1, 21600, Note_off_c, 5, 76, 0
1, 21600, Note_on_c, 5, 78, 96
1, 21600, Note_on_c, 6, 44, 96
1, 21603, Note_off_c, 5, 78, 0
1, 21603, Note_on_c, 5, 76, 96
1, 21611, Note_off_c, 5, 76, 0
1, 21612, Note_on_c, 5, 75, 96
1, 21617, Note_off_c, 5, 75, 0
1, 21618, Note_off_c, 0, 72, 0
1, 21618, Note_off_c, 2, 56, 0
1, 21618, Note_off_c, 3, 44, 0
1, 21618, Note_off_c, 4, 32, 0
1, 21618, Note_on_c, 5, 73, 96
1, 21621, Note_off_c, 1, 66, 0
1, 21621, Note_off_c, 6, 44, 0
1, 21623, Note_off_c, 5, 73, 0
1, 21624, Note_on_c, 0, 73, 80
1, 21624, Note_on_c, 1, 64, 80
1, 21624, Note_on_c, 2, 56, 80
1, 21624, Note_on_c, 3, 49, 80
1, 21624, Note_on_c, 4, 37, 80
1, 21624, Note_on_c, 5, 73, 96
1, 21624, Note_on_c, 6, 49, 96
1, 21687, Note_off_c, 0, 73, 0
1, 21687, Note_off_c, 1, 64, 0
1, 21687, Note_off_c, 2, 56, 0
1, 21687, Note_off_c, 3, 49, 0
1, 21687, Note_off_c, 4, 37, 0
1, 21687, Note_off_c, 5, 73, 0
1, 21687, Note_off_c, 6, 49, 0
1, 21696, Tempo, 681818
1, 21696, Note_on_c, 0, 71, 96
1, 21696, Note_on_c, 3, 52, 96
1, 21696, Note_on_c, 4, 40, 96
1, 21696, Note_on_c, 5, 71, 96
1, 21696, Note_on_c, 6, 40, 96
1, 21717, Note_off_c, 0, 71, 0
1, 21717, Note_off_c, 3, 52, 0
1, 21717, Note_off_c, 4, 40, 0
1, 21717, Note_off_c, 5, 71, 0
1, 21717, Note_off_c, 6, 40, 0
1, 21720, Note_on_c, 0, 76, 96
1, 21720, Note_on_c, 3, 40, 96
1, 21720, Note_on_c, 4, 28, 96
1, 21720, Note_on_c, 5, 76, 96
1, 21720, Note_on_c, 6, 52, 96
1, 21726, Note_off_c, 6, 52, 0
1, 21726, Note_on_c, 6, 51, 96
1, 21732, Note_off_c, 0, 76, 0
1, 21732, Note_on_c, 0, 75, 96
1, 21732, Note_off_c, 5, 76, 0
1, 21732, Note_on_c, 5, 75, 96
1, 21732, Note_off_c, 6, 51, 0
1, 21732, Note_on_c, 6, 52, 96
1, 21744, Note_off_c, 0, 75, 0
1, 21744, Note_on_c, 0, 76, 96
1, 21744, Note_on_c, 1, 71, 96
1, 21744, Note_off_c, 5, 75, 0
1, 21744, Note_on_c, 5, 76, 96
1, 21756, Note_off_c, 0, 76, 0
1, 21756, Note_on_c, 0, 80, 96
1, 21756, Note_off_c, 5, 76, 0
1, 21756, Note_on_c, 5, 80, 96
1, 21762, Note_off_c, 3, 40, 0
1, 21762, Note_off_c, 4, 28, 0
1, 21763, Note_off_c, 6, 52, 0
1, 21765, Note_off_c, 1, 71, 0
1, 21766, Note_off_c, 0, 80, 0
1, 21766, Note_off_c, 5, 80, 0
1, 21768, Note_on_c, 0, 76, 96
1, 21768, Note_on_c, 1, 68, 96
1, 21768, Note_on_c, 5, 76, 96
1, 21778, Note_off_c, 0, 76, 0
1, 21778, Note_off_c, 5, 76, 0
1, 21780, Note_on_c, 0, 71, 96
1, 21780, Note_on_c, 5, 71, 96
1, 21789, Note_off_c, 1, 68, 0
1, 21790, Note_off_c, 0, 71, 0
1, 21790, Note_off_c, 5, 71, 0
1, 21792, Note_on_c, 0, 68, 96
1, 21792, Note_on_c, 1, 64, 96
1, 21792, Note_on_c, 2, 71, 96
1, 21792, Note_on_c, 3, 52, 96
1, 21792, Note_on_c, 4, 40, 96
1, 21792, Note_on_c, 5, 68, 96
1, 21792, Note_on_c, 6, 40, 96
1, 21802, Note_off_c, 0, 68, 0
1, 21802, Note_off_c, 5, 68, 0
1, 21804, Note_on_c, 0, 71, 96
1, 21804, Note_on_c, 5, 71, 96
1, 21813, Note_off_c, 1, 64, 0
1, 21813, Note_off_c, 2, 71, 0
1, 21813, Note_off_c, 3, 52, 0
1, 21813, Note_off_c, 4, 40, 0
1, 21813, Note_off_c, 6, 40, 0
1, 21814, Note_off_c, 0, 71, 0
1, 21814, Note_off_c, 5, 71, 0
1, 21816, Note_on_c, 0, 64, 96
1, 21816, Note_on_c, 2, 68, 96
1, 21816, Note_on_c, 3, 40, 96
1, 21816, Note_on_c, 4, 28, 96
1, 21816, Note_on_c, 5, 64, 96
1, 21816, Note_on_c, 6, 52, 96
1, 21822, Note_off_c, 6, 52, 0
1, 21822, Note_on_c, 6, 51, 96
1, 21826, Note_off_c, 0, 64, 0
1, 21826, Note_off_c, 5, 64, 0
1, 21828, Note_on_c, 0, 71, 96
1, 21828, Note_on_c, 5, 71, 96
1, 21828, Note_off_c, 6, 51, 0
1, 21828, Note_on_c, 6, 52, 96
1, 21837, Note_off_c, 2, 68, 0
1, 21838, Note_off_c, 0, 71, 0
1, 21838, Note_off_c, 5, 71, 0
1, 21840, Note_on_c, 0, 68, 96
1, 21840, Note_on_c, 1, 71, 96
1, 21840, Note_on_c, 2, 64, 96
1, 21840, Note_on_c, 5, 68, 96
1, 21850, Note_off_c, 0, 68, 0
1, 21850, Note_off_c, 5, 68, 0
1, 21852, Note_on_c, 0, 71, 96
1, 21852, Note_on_c, 5, 71, 96
1, 21858, Note_off_c, 3, 40, 0
1, 21858, Note_off_c, 4, 28, 0
1, 21859, Note_off_c, 6, 52, 0
1, 21861, Note_off_c, 1, 71, 0
1, 21861, Note_off_c, 2, 64, 0
1, 21862, Note_off_c, 0, 71, 0
1, 21862, Note_off_c, 5, 71, 0
1, 21864, Note_on_c, 0, 64, 96
1, 21864, Note_on_c, 1, 68, 96
1, 21864, Note_on_c, 5, 64, 96
1, 21874, Note_off_c, 0, 64, 0
1, 21874, Note_off_c, 5, 64, 0
1, 21876, Note_on_c, 0, 71, 96
1, 21876, Note_on_c, 5, 71, 96
1, 21885, Note_off_c, 1, 68, 0
1, 21886, Note_off_c, 0, 71, 0
1, 21886, Note_off_c, 5, 71, 0
1, 21888, Note_on_c, 0, 68, 96
1, 21888, Note_on_c, 1, 64, 96
1, 21888, Note_on_c, 2, 71, 96
1, 21888, Note_on_c, 3, 52, 96
1, 21888, Note_on_c, 4, 40, 96
1, 21888, Note_on_c, 5, 68, 96
1, 21888, Note_on_c, 6, 40, 96
1, 21898, Note_off_c, 0, 68, 0
1, 21898, Note_off_c, 5, 68, 0
1, 21900, Note_on_c, 0, 71, 96
1, 21900, Note_on_c, 5, 71, 96
1, 21909, Note_off_c, 1, 64, 0
1, 21909, Note_off_c, 2, 71, 0
1, 21909, Note_off_c, 3, 52, 0
1, 21909, Note_off_c, 4, 40, 0
1, 21909, Note_off_c, 6, 40, 0
1, 21910, Note_off_c, 0, 71, 0
1, 21910, Note_off_c, 5, 71, 0
1, 21912, Note_on_c, 0, 76, 96
1, 21912, Note_on_c, 2, 68, 96
1, 21912, Note_on_c, 3, 40, 96
1, 21912, Note_on_c, 4, 28, 96
1, 21912, Note_on_c, 5, 76, 96
1, 21912, Note_on_c, 6, 52, 96
1, 21922, Note_off_c, 5, 76, 0
1, 21924, Note_off_c, 0, 76, 0
1, 21924, Note_on_c, 0, 75, 96
1, 21924, Note_on_c, 5, 75, 96
1, 21933, Note_off_c, 2, 68, 0
1, 21934, Note_off_c, 5, 75, 0
1, 21936, Note_off_c, 0, 75, 0
1, 21936, Note_on_c, 0, 76, 96
1, 21936, Note_on_c, 1, 71, 96
1, 21936, Note_on_c, 2, 64, 96
1, 21936, Note_on_c, 5, 76, 96
1, 21946, Note_off_c, 5, 76, 0
1, 21948, Note_off_c, 0, 76, 0
1, 21948, Note_on_c, 0, 80, 96
1, 21948, Note_on_c, 5, 80, 96
1, 21954, Note_off_c, 3, 40, 0
1, 21954, Note_off_c, 4, 28, 0
1, 21954, Note_off_c, 6, 52, 0
1, 21957, Note_off_c, 1, 71, 0
1, 21957, Note_off_c, 2, 64, 0
1, 21958, Note_off_c, 0, 80, 0
1, 21958, Note_off_c, 5, 80, 0
1, 21960, Note_on_c, 0, 76, 96
1, 21960, Note_on_c, 1, 68, 96
1, 21960, Note_on_c, 5, 76, 96
1, 21970, Note_off_c, 0, 76, 0
1, 21970, Note_off_c, 5, 76, 0
1, 21972, Note_on_c, 0, 71, 96
1, 21972, Note_on_c, 5, 71, 96
1, 21981, Note_off_c, 1, 68, 0
1, 21982, Note_off_c, 0, 71, 0
1, 21982, Note_off_c, 5, 71, 0
1, 21984, Note_on_c, 0, 68, 96
1, 21984, Note_on_c, 1, 64, 96
1, 21984, Note_on_c, 2, 71, 96
1, 21984, Note_on_c, 3, 52, 96
1, 21984, Note_on_c, 4, 40, 96
1, 21984, Note_on_c, 5, 68, 96
1, 21984, Note_on_c, 6, 40, 96
1, 21994, Note_off_c, 0, 68, 0
1, 21994, Note_off_c, 5, 68, 0
1, 21996, Note_on_c, 0, 71, 96
1, 21996, Note_on_c, 5, 71, 96
1, 22005, Note_off_c, 1, 64, 0
1, 22005, Note_off_c, 2, 71, 0
1, 22005, Note_off_c, 3, 52, 0
1, 22005, Note_off_c, 4, 40, 0
1, 22005, Note_off_c, 6, 40, 0
1, 22006, Note_off_c, 0, 71, 0
1, 22006, Note_off_c, 5, 71, 0
1, 22008, Note_on_c, 0, 64, 96
1, 22008, Note_on_c, 2, 68, 96
1, 22008, Note_on_c, 3, 40, 96
1, 22008, Note_on_c, 4, 28, 96
1, 22008, Note_on_c, 5, 64, 96
1, 22008, Note_on_c, 6, 52, 96
1, 22018, Note_off_c, 0, 64, 0
1, 22018, Note_off_c, 5, 64, 0
1, 22020, Note_on_c, 0, 71, 96
1, 22020, Note_on_c, 5, 71, 96
1, 22029, Note_off_c, 2, 68, 0
1, 22029, Note_off_c, 3, 40, 0
1, 22029, Note_off_c, 4, 28, 0
1, 22029, Note_off_c, 6, 52, 0
1, 22030, Note_off_c, 0, 71, 0
1, 22030, Note_off_c, 5, 71, 0
1, 22032, Note_on_c, 0, 68, 96
1, 22032, Note_on_c, 1, 76, 96
1, 22032, Note_on_c, 2, 71, 96
1, 22032, Note_on_c, 3, 52, 96
1, 22032, Note_on_c, 4, 40, 96
1, 22032, Note_on_c, 5, 68, 96
1, 22032, Note_on_c, 6, 40, 96
1, 22042, Note_off_c, 0, 68, 0
1, 22042, Note_off_c, 5, 68, 0
1, 22044, Note_on_c, 0, 71, 96
1, 22044, Note_on_c, 5, 71, 96
1, 22053, Note_off_c, 1, 76, 0
1, 22053, Note_off_c, 2, 71, 0
1, 22053, Note_off_c, 3, 52, 0
1, 22053, Note_off_c, 4, 40, 0
1, 22053, Note_off_c, 6, 40, 0
1, 22054, Note_off_c, 0, 71, 0
1, 22054, Note_off_c, 5, 71, 0
1, 22056, Note_on_c, 0, 76, 96
1, 22056, Note_on_c, 1, 71, 96
1, 22056, Note_on_c, 2, 59, 96
1, 22056, Note_on_c, 3, 56, 96
1, 22056, Note_on_c, 4, 44, 96
1, 22056, Note_on_c, 5, 76, 96
1, 22056, Note_on_c, 6, 44, 96
1, 22066, Note_off_c, 0, 76, 0
1, 22066, Note_off_c, 5, 76, 0
1, 22068, Note_on_c, 0, 71, 96
1, 22068, Note_on_c, 5, 71, 96
1, 22077, Note_off_c, 1, 71, 0
1, 22077, Note_off_c, 2, 59, 0
1, 22077, Note_off_c, 3, 56, 0
1, 22077, Note_off_c, 4, 44, 0
1, 22077, Note_off_c, 6, 44, 0
1, 22078, Note_off_c, 0, 71, 0
1, 22078, Note_off_c, 5, 71, 0
1, 22080, Note_on_c, 0, 78, 96
1, 22080, Note_on_c, 1, 75, 96
1, 22080, Note_on_c, 2, 71, 96
1, 22080, Note_on_c, 3, 59, 96
1, 22080, Note_on_c, 4, 47, 96
1, 22080, Note_on_c, 5, 78, 96
1, 22080, Note_on_c, 6, 47, 96
1, 22090, Note_off_c, 0, 78, 0
1, 22090, Note_off_c, 5, 78, 0
1, 22092, Note_on_c, 0, 71, 96
1, 22092, Note_on_c, 5, 71, 96
1, 22101, Note_off_c, 1, 75, 0
1, 22101, Note_off_c, 2, 71, 0
1, 22101, Note_off_c, 3, 59, 0
1, 22101, Note_off_c, 4, 47, 0
1, 22101, Note_off_c, 6, 47, 0
1, 22102, Note_off_c, 0, 71, 0
1, 22102, Note_off_c, 5, 71, 0
1, 22104, Note_on_c, 0, 80, 96
1, 22104, Note_on_c, 1, 76, 96
1, 22104, Note_on_c, 2, 71, 96
1, 22104, Note_on_c, 3, 64, 96
1, 22104, Note_on_c, 4, 52, 96
1, 22104, Note_on_c, 5, 80, 96
1, 22104, Note_on_c, 6, 52, 96
1, 22116, Note_off_c, 0, 80, 0
1, 22125, Note_off_c, 1, 76, 0
1, 22125, Note_off_c, 2, 71, 0
1, 22125, Note_off_c, 3, 64, 0
1, 22125, Note_off_c, 4, 52, 0
1, 22125, Note_off_c, 5, 80, 0
1, 22125, Note_off_c, 6, 52, 0
1, 22128, Note_on_c, 0, 78, 96
1, 22128, Note_on_c, 1, 78, 96
1, 22128, Note_on_c, 2, 71, 96
1, 22128, Note_on_c, 3, 63, 96
1, 22128, Note_on_c, 4, 51, 96
1, 22128, Note_on_c, 5, 78, 96
1, 22128, Note_on_c, 6, 51, 96
1, 22134, Note_off_c, 0, 78, 0
1, 22140, Note_on_c, 0, 80, 96
1, 22140, Note_off_c, 5, 78, 0
1, 22140, Note_on_c, 5, 80, 96
1, 22146, Note_off_c, 0, 80, 0
1, 22146, Note_on_c, 0, 78, 96
1, 22146, Note_off_c, 5, 80, 0
1, 22146, Note_on_c, 5, 78, 96
1, 22149, Note_off_c, 1, 78, 0
1, 22149, Note_off_c, 2, 71, 0
1, 22149, Note_off_c, 3, 63, 0
1, 22149, Note_off_c, 4, 51, 0
1, 22149, Note_off_c, 6, 51, 0
1, 22152, Note_off_c, 0, 78, 0
1, 22152, Note_on_c, 0, 80, 96
1, 22152, Note_on_c, 1, 76, 96
1, 22152, Note_on_c, 2, 64, 96
1, 22152, Note_on_c, 3, 61, 96
1, 22152, Note_on_c, 4, 49, 96
1, 22152, Note_off_c, 5, 78, 0
1, 22152, Note_on_c, 5, 80, 96
1, 22152, Note_on_c, 6, 49, 96
1, 22158, Note_off_c, 0, 80, 0
1, 22158, Note_on_c, 0, 81, 96
1, 22158, Note_off_c, 5, 80, 0
1, 22158, Note_on_c, 5, 81, 96
1, 22167, Note_off_c, 0, 81, 0
1, 22173, Note_off_c, 1, 76, 0
1, 22173, Note_off_c, 2, 64, 0
1, 22173, Note_off_c, 3, 61, 0
1, 22173, Note_off_c, 4, 49, 0
1, 22173, Note_off_c, 6, 49, 0
1, 22174, Note_off_c, 5, 81, 0
1, 22176, Note_on_c, 0, 80, 96
1, 22176, Note_on_c, 1, 76, 96
1, 22176, Note_on_c, 2, 68, 96
1, 22176, Note_on_c, 3, 59, 96
1, 22176, Note_on_c, 4, 47, 96
1, 22176, Note_on_c, 5, 80, 96
1, 22176, Note_on_c, 6, 47, 96
1, 22188, Note_off_c, 0, 80, 0
1, 22197, Note_off_c, 1, 76, 0
1, 22197, Note_off_c, 2, 68, 0
1, 22197, Note_off_c, 3, 59, 0
1, 22197, Note_off_c, 4, 47, 0
1, 22197, Note_off_c, 5, 80, 0
1, 22197, Note_off_c, 6, 47, 0
1, 22200, Note_on_c, 0, 78, 96
1, 22200, Note_on_c, 1, 75, 96
1, 22200, Note_on_c, 2, 71, 96
1, 22200, Note_on_c, 3, 57, 96
1, 22200, Note_on_c, 4, 45, 96
1, 22200, Note_on_c, 5, 78, 96
1, 22200, Note_on_c, 6, 45, 96
1, 22206, Note_off_c, 0, 78, 0
1, 22206, Note_on_c, 0, 80, 96
1, 22212, Note_off_c, 0, 80, 0
1, 22212, Note_on_c, 0, 78, 96
1, 22221, Note_off_c, 1, 75, 0
1, 22221, Note_off_c, 2, 71, 0
1, 22221, Note_off_c, 3, 57, 0
1, 22221, Note_off_c, 4, 45, 0
1, 22221, Note_off_c, 5, 78, 0
1, 22221, Note_off_c, 6, 45, 0
1, 22222, Note_off_c, 0, 78, 0
1, 22224, Note_on_c, 0, 76, 96
1, 22224, Note_on_c, 1, 76, 96
1, 22224, Note_on_c, 2, 59, 96
1, 22224, Note_on_c, 3, 56, 96
1, 22224, Note_on_c, 4, 44, 96
1, 22224, Note_on_c, 5, 76, 96
1, 22224, Note_on_c, 6, 44, 96
1, 22245, Note_off_c, 0, 76, 0
1, 22245, Note_off_c, 1, 76, 0
1, 22245, Note_off_c, 2, 59, 0
1, 22245, Note_off_c, 3, 56, 0
1, 22245, Note_off_c, 4, 44, 0
1, 22245, Note_off_c, 5, 76, 0
1, 22245, Note_off_c, 6, 44, 0
1, 22248, Note_on_c, 0, 83, 96
1, 22248, Note_on_c, 5, 83, 96
1, 22272, Note_on_c, 1, 76, 96
1, 22272, Note_on_c, 2, 71, 96
1, 22272, Note_on_c, 3, 56, 96
1, 22272, Note_on_c, 4, 44, 96
1, 22272, Note_on_c, 6, 56, 96
1, 22282, Note_off_c, 1, 76, 0
1, 22284, Note_on_c, 1, 75, 96
1, 22293, Note_off_c, 2, 71, 0
1, 22293, Note_off_c, 3, 56, 0
1, 22293, Note_off_c, 4, 44, 0
1, 22293, Note_off_c, 6, 56, 0
1, 22294, Note_off_c, 1, 75, 0
1, 22296, Note_on_c, 1, 76, 96
1, 22296, Note_on_c, 2, 68, 96
1, 22296, Note_on_c, 3, 61, 96
1, 22296, Note_on_c, 4, 49, 96
1, 22296, Note_on_c, 6, 61, 96
1, 22300, Note_off_c, 0, 83, 0
1, 22300, Note_off_c, 5, 83, 0
1, 22308, Note_on_c, 0, 76, 96
1, 22308, Note_on_c, 5, 76, 96
1, 22317, Note_off_c, 1, 76, 0
1, 22317, Note_off_c, 2, 68, 0
1, 22317, Note_off_c, 3, 61, 0
1, 22317, Note_off_c, 4, 49, 0
1, 22317, Note_off_c, 6, 61, 0
1, 22318, Note_off_c, 0, 76, 0
1, 22318, Note_off_c, 5, 76, 0
1, 22320, Note_on_c, 0, 75, 96
1, 22320, Note_on_c, 1, 80, 96
1, 22320, Note_on_c, 2, 71, 96
1, 22320, Note_on_c, 3, 59, 96
1, 22320, Note_on_c, 4, 47, 96
1, 22320, Note_on_c, 5, 75, 96
1, 22320, Note_on_c, 6, 59, 96
1, 22330, Note_off_c, 0, 75, 0
1, 22330, Note_off_c, 5, 75, 0
1, 22332, Note_on_c, 0, 76, 96
1, 22332, Note_on_c, 5, 76, 96
1, 22341, Note_off_c, 1, 80, 0
1, 22341, Note_off_c, 2, 71, 0
1, 22341, Note_off_c, 3, 59, 0
1, 22341, Note_off_c, 4, 47, 0
1, 22341, Note_off_c, 6, 59, 0
1, 22342, Note_off_c, 0, 76, 0
1, 22342, Note_off_c, 5, 76, 0
1, 22344, Note_on_c, 0, 78, 96
1, 22344, Note_on_c, 1, 75, 96
1, 22344, Note_on_c, 2, 71, 96
1, 22344, Note_on_c, 3, 57, 96
1, 22344, Note_on_c, 4, 45, 96
1, 22344, Note_on_c, 5, 78, 96
1, 22344, Note_on_c, 6, 57, 96
1, 22365, Note_off_c, 0, 78, 0
1, 22365, Note_off_c, 1, 75, 0
1, 22365, Note_off_c, 2, 71, 0
1, 22365, Note_off_c, 3, 57, 0
1, 22365, Note_off_c, 4, 45, 0
1, 22365, Note_off_c, 5, 78, 0
1, 22365, Note_off_c, 6, 57, 0
1, 22368, Note_on_c, 0, 76, 96
1, 22368, Note_on_c, 1, 76, 96
1, 22368, Note_on_c, 2, 59, 96
1, 22368, Note_on_c, 3, 56, 96
1, 22368, Note_on_c, 4, 44, 96
1, 22368, Note_on_c, 5, 76, 96
1, 22368, Note_on_c, 6, 56, 96
1, 22389, Note_off_c, 0, 76, 0
1, 22389, Note_off_c, 1, 76, 0
1, 22389, Note_off_c, 2, 59, 0
1, 22389, Note_off_c, 3, 56, 0
1, 22389, Note_off_c, 4, 44, 0
1, 22389, Note_off_c, 5, 76, 0
1, 22389, Note_off_c, 6, 56, 0
1, 22392, Note_on_c, 0, 75, 96
1, 22392, Note_on_c, 1, 69, 96
1, 22392, Note_on_c, 2, 66, 96
1, 22392, Note_on_c, 3, 54, 96
1, 22392, Note_on_c, 4, 42, 96
1, 22392, Note_on_c, 5, 75, 96
1, 22392, Note_on_c, 6, 54, 96
1, 22402, Note_off_c, 0, 75, 0
1, 22402, Note_off_c, 5, 75, 0
1, 22404, Note_on_c, 0, 76, 96
1, 22404, Note_on_c, 5, 76, 96
1, 22413, Note_off_c, 1, 69, 0
1, 22413, Note_off_c, 2, 66, 0
1, 22413, Note_off_c, 3, 54, 0
1, 22413, Note_off_c, 4, 42, 0
1, 22413, Note_off_c, 6, 54, 0
1, 22414, Note_off_c, 0, 76, 0
1, 22414, Note_off_c, 5, 76, 0
1, 22416, Note_on_c, 0, 78, 96
1, 22416, Note_on_c, 1, 73, 96
1, 22416, Note_on_c, 2, 69, 96
1, 22416, Note_on_c, 3, 52, 96
1, 22416, Note_on_c, 4, 40, 96
1, 22416, Note_on_c, 5, 78, 96
1, 22416, Note_on_c, 6, 52, 96
1, 22426, Note_off_c, 0, 78, 0
1, 22426, Note_off_c, 5, 78, 0
1, 22428, Note_on_c, 0, 75, 96
1, 22428, Note_on_c, 5, 75, 96
1, 22437, Note_off_c, 1, 73, 0
1, 22437, Note_off_c, 2, 69, 0
1, 22437, Note_off_c, 3, 52, 0
1, 22437, Note_off_c, 4, 40, 0
1, 22437, Note_off_c, 6, 52, 0
1, 22438, Note_off_c, 0, 75, 0
1, 22438, Note_off_c, 5, 75, 0
1, 22440, Note_on_c, 0, 71, 96
1, 22440, Note_on_c, 1, 66, 96
1, 22440, Note_on_c, 2, 71, 96
1, 22440, Note_on_c, 3, 51, 96
1, 22440, Note_on_c, 4, 39, 96
1, 22440, Note_on_c, 5, 71, 96
1, 22440, Note_on_c, 6, 51, 96
1, 22443, Note_off_c, 0, 71, 0
1, 22443, Note_off_c, 5, 71, 0
1, 22452, Note_on_c, 0, 81, 96
1, 22452, Note_on_c, 5, 81, 96
1, 22461, Note_off_c, 1, 66, 0
1, 22461, Note_off_c, 2, 71, 0
1, 22461, Note_off_c, 3, 51, 0
1, 22461, Note_off_c, 4, 39, 0
1, 22461, Note_off_c, 6, 51, 0
1, 22464, Note_off_c, 0, 81, 0
1, 22464, Note_on_c, 0, 80, 96
1, 22464, Note_on_c, 1, 75, 96
1, 22464, Note_on_c, 2, 71, 96
1, 22464, Note_on_c, 3, 47, 96
1, 22464, Note_on_c, 4, 35, 96
1, 22464, Note_off_c, 5, 81, 0
1, 22464, Note_on_c, 5, 80, 96
1, 22464, Note_on_c, 6, 47, 96
1, 22476, Note_off_c, 0, 80, 0
1, 22476, Note_on_c, 0, 78, 96
1, 22476, Note_off_c, 5, 80, 0
1, 22476, Note_on_c, 5, 78, 96
1, 22485, Note_off_c, 1, 75, 0
1, 22485, Note_off_c, 2, 71, 0
1, 22485, Note_off_c, 3, 47, 0
1, 22485, Note_off_c, 4, 35, 0
1, 22485, Note_off_c, 6, 47, 0
1, 22486, Note_off_c, 0, 78, 0
1, 22486, Note_off_c, 5, 78, 0
1, 22488, Note_on_c, 0, 71, 96
1, 22488, Note_on_c, 1, 76, 96
1, 22488, Note_on_c, 2, 71, 96
1, 22488, Note_on_c, 3, 52, 96
1, 22488, Note_on_c, 4, 40, 96
1, 22488, Note_on_c, 5, 71, 96
1, 22488, Note_on_c, 6, 52, 96
1, 22491, Note_off_c, 0, 71, 0
1, 22491, Note_off_c, 5, 71, 0
1, 22500, Note_on_c, 0, 80, 96
1, 22500, Note_on_c, 5, 80, 96
1, 22509, Note_off_c, 1, 76, 0
1, 22509, Note_off_c, 2, 71, 0
1, 22509, Note_off_c, 3, 52, 0
1, 22509, Note_off_c, 4, 40, 0
1, 22509, Note_off_c, 6, 52, 0
1, 22512, Note_off_c, 0, 80, 0
1, 22512, Note_on_c, 0, 78, 96
1, 22512, Note_off_c, 5, 80, 0
1, 22512, Note_on_c, 5, 78, 96
1, 22524, Note_off_c, 0, 78, 0
1, 22524, Note_on_c, 0, 76, 96
1, 22524, Note_off_c, 5, 78, 0
1, 22524, Note_on_c, 5, 76, 96
1, 22534, Note_off_c, 0, 76, 0
1, 22534, Note_off_c, 5, 76, 0
1, 22536, Note_on_c, 0, 71, 96
1, 22536, Note_on_c, 1, 66, 96
1, 22536, Note_on_c, 2, 71, 96
1, 22536, Note_on_c, 3, 51, 96
1, 22536, Note_on_c, 4, 39, 96
1, 22536, Note_on_c, 5, 71, 96
1, 22536, Note_on_c, 6, 51, 96
1, 22539, Note_off_c, 0, 71, 0
1, 22539, Note_off_c, 5, 71, 0
1, 22548, Note_on_c, 0, 78, 96
1, 22548, Note_on_c, 5, 78, 96
1, 22557, Note_off_c, 1, 66, 0
1, 22557, Note_off_c, 2, 71, 0
1, 22557, Note_off_c, 3, 51, 0
1, 22557, Note_off_c, 4, 39, 0
1, 22557, Note_off_c, 6, 51, 0
1, 22560, Note_off_c, 0, 78, 0
1, 22560, Note_on_c, 0, 76, 96
1, 22560, Note_off_c, 5, 78, 0
1, 22560, Note_on_c, 5, 76, 96
1, 22572, Note_off_c, 0, 76, 0
1, 22572, Note_on_c, 0, 75, 96
1, 22572, Note_off_c, 5, 76, 0
1, 22572, Note_on_c, 5, 75, 96
1, 22582, Note_off_c, 0, 75, 0
1, 22582, Note_off_c, 5, 75, 0
1, 22584, Note_on_c, 0, 76, 96
1, 22584, Note_on_c, 1, 68, 96
1, 22584, Note_on_c, 2, 73, 96
1, 22584, Note_on_c, 3, 49, 96
1, 22584, Note_on_c, 4, 37, 96
1, 22584, Note_on_c, 5, 76, 96
1, 22584, Note_on_c, 6, 49, 96
1, 22587, Note_off_c, 0, 76, 0
1, 22587, Note_off_c, 5, 76, 0
1, 22596, Note_on_c, 0, 69, 96
1, 22596, Note_on_c, 5, 69, 96
1, 22605, Note_off_c, 1, 68, 0
1, 22605, Note_off_c, 2, 73, 0
1, 22605, Note_off_c, 3, 49, 0
1, 22605, Note_off_c, 4, 37, 0
1, 22605, Note_off_c, 6, 49, 0
1, 22608, Note_off_c, 0, 69, 0
1, 22608, Note_on_c, 0, 68, 96
1, 22608, Note_off_c, 5, 69, 0
1, 22608, Note_on_c, 5, 68, 96
1, 22620, Note_off_c, 0, 68, 0
1, 22620, Note_on_c, 0, 66, 96
1, 22620, Note_off_c, 5, 68, 0
1, 22620, Note_on_c, 5, 66, 96
1, 22630, Note_off_c, 0, 66, 0
1, 22630, Note_off_c, 5, 66, 0
1, 22632, Note_on_c, 0, 64, 96
1, 22632, Note_on_c, 1, 71, 96
1, 22632, Note_on_c, 2, 64, 96
1, 22632, Note_on_c, 3, 44, 96
1, 22632, Note_on_c, 4, 32, 96
1, 22632, Note_on_c, 5, 64, 96
1, 22632, Note_on_c, 6, 44, 96
1, 22635, Note_off_c, 0, 64, 0
1, 22635, Note_off_c, 5, 64, 0
1, 22644, Note_on_c, 0, 74, 96
1, 22644, Note_on_c, 5, 74, 96
1, 22653, Note_off_c, 1, 71, 0
1, 22653, Note_off_c, 2, 64, 0
1, 22653, Note_off_c, 3, 44, 0
1, 22653, Note_off_c, 4, 32, 0
1, 22653, Note_off_c, 6, 44, 0
1, 22656, Note_off_c, 0, 74, 0
1, 22656, Note_on_c, 0, 73, 96
1, 22656, Note_on_c, 1, 68, 96
1, 22656, Note_on_c, 2, 64, 96
1, 22656, Note_on_c, 3, 40, 96
1, 22656, Note_on_c, 4, 28, 96
1, 22656, Note_off_c, 5, 74, 0
1, 22656, Note_on_c, 5, 73, 96
1, 22656, Note_on_c, 6, 40, 96
1, 22668, Note_off_c, 0, 73, 0
1, 22668, Note_on_c, 0, 71, 96
1, 22668, Note_off_c, 5, 73, 0
1, 22668, Note_on_c, 5, 71, 96
1, 22677, Note_off_c, 1, 68, 0
1, 22677, Note_off_c, 3, 40, 0
1, 22677, Note_off_c, 4, 28, 0
1, 22677, Note_off_c, 6, 40, 0
1, 22678, Note_off_c, 0, 71, 0
1, 22678, Note_off_c, 5, 71, 0
1, 22680, Note_on_c, 0, 73, 96
1, 22680, Note_on_c, 1, 69, 96
1, 22680, Note_on_c, 3, 45, 96
1, 22680, Note_on_c, 4, 33, 96
1, 22680, Note_on_c, 5, 73, 96
1, 22680, Note_on_c, 6, 45, 96
1, 22687, Note_off_c, 2, 64, 0
1, 22692, Note_off_c, 0, 73, 0
1, 22692, Note_on_c, 0, 71, 96
1, 22692, Note_on_c, 2, 62, 96
1, 22692, Note_off_c, 5, 73, 0
1, 22692, Note_on_c, 5, 71, 96
1, 22701, Note_off_c, 1, 69, 0
1, 22701, Note_off_c, 3, 45, 0
1, 22701, Note_off_c, 4, 33, 0
1, 22701, Note_off_c, 6, 45, 0
1, 22702, Note_off_c, 2, 62, 0
1, 22704, Note_off_c, 0, 71, 0
1, 22704, Note_on_c, 0, 69, 96
1, 22704, Note_on_c, 1, 64, 96
1, 22704, Note_on_c, 2, 61, 96
1, 22704, Note_on_c, 3, 49, 96
1, 22704, Note_on_c, 4, 37, 96
1, 22704, Note_off_c, 5, 71, 0
1, 22704, Note_on_c, 5, 69, 96
1, 22704, Note_on_c, 6, 49, 96
1, 22714, Note_off_c, 2, 61, 0
1, 22716, Note_off_c, 0, 69, 0
1, 22716, Note_on_c, 0, 68, 96
1, 22716, Note_on_c, 2, 59, 96
1, 22716, Note_off_c, 5, 69, 0
1, 22716, Note_on_c, 5, 68, 96
1, 22725, Note_off_c, 1, 64, 0
1, 22725, Note_off_c, 3, 49, 0
1, 22725, Note_off_c, 4, 37, 0
1, 22725, Note_off_c, 6, 49, 0
1, 22726, Note_off_c, 0, 68, 0
1, 22726, Note_off_c, 2, 59, 0
1, 22726, Note_off_c, 5, 68, 0
1, 22728, Note_on_c, 0, 66, 96
1, 22728, Note_on_c, 1, 73, 96
1, 22728, Note_on_c, 2, 57, 96
1, 22728, Note_on_c, 3, 54, 96
1, 22728, Note_on_c, 4, 42, 96
1, 22728, Note_on_c, 5, 66, 96
1, 22728, Note_on_c, 6, 54, 96
1, 22738, Note_off_c, 0, 66, 0
1, 22738, Note_off_c, 1, 73, 0
1, 22738, Note_off_c, 5, 66, 0
1, 22740, Note_on_c, 0, 80, 96
1, 22740, Note_on_c, 1, 71, 96
1, 22740, Note_on_c, 5, 80, 96
1, 22749, Note_off_c, 2, 57, 0
1, 22749, Note_off_c, 3, 54, 0
1, 22749, Note_off_c, 4, 42, 0
1, 22749, Note_off_c, 6, 54, 0
1, 22750, Note_off_c, 0, 80, 0
1, 22750, Note_off_c, 1, 71, 0
1, 22750, Note_off_c, 5, 80, 0
1, 22752, Note_on_c, 0, 78, 96
1, 22752, Note_on_c, 1, 69, 96
1, 22752, Note_on_c, 2, 66, 96
1, 22752, Note_on_c, 3, 57, 96
1, 22752, Note_on_c, 4, 45, 96
1, 22752, Note_on_c, 5, 78, 96
1, 22752, Note_on_c, 6, 57, 96
1, 22762, Note_off_c, 0, 78, 0
1, 22762, Note_off_c, 1, 69, 0
1, 22762, Note_off_c, 5, 78, 0
1, 22764, Note_on_c, 0, 76, 96
1, 22764, Note_on_c, 1, 68, 96
1, 22764, Note_on_c, 5, 76, 96
1, 22773, Note_off_c, 3, 57, 0
1, 22773, Note_off_c, 4, 45, 0
1, 22773, Note_off_c, 6, 57, 0
1, 22774, Note_off_c, 0, 76, 0
1, 22774, Note_off_c, 1, 68, 0
1, 22774, Note_off_c, 5, 76, 0
1, 22776, Note_on_c, 0, 75, 96
1, 22776, Note_on_c, 1, 66, 96
1, 22776, Note_on_c, 3, 47, 96
1, 22776, Note_on_c, 4, 35, 96
1, 22776, Note_on_c, 5, 75, 96
1, 22776, Note_on_c, 6, 47, 96
1, 22783, Note_off_c, 2, 66, 0
1, 22788, Note_off_c, 0, 75, 0
1, 22788, Note_on_c, 0, 73, 96
1, 22788, Note_on_c, 2, 64, 96
1, 22788, Note_off_c, 5, 75, 0
1, 22788, Note_on_c, 5, 73, 96
1, 22797, Note_off_c, 1, 66, 0
1, 22797, Note_off_c, 3, 47, 0
1, 22797, Note_off_c, 4, 35, 0
1, 22797, Note_off_c, 6, 47, 0
1, 22798, Note_off_c, 2, 64, 0
1, 22800, Note_off_c, 0, 73, 0
1, 22800, Note_on_c, 0, 71, 96
1, 22800, Note_on_c, 1, 75, 96
1, 22800, Note_on_c, 2, 63, 96
1, 22800, Note_on_c, 3, 51, 96
1, 22800, Note_on_c, 4, 39, 96
1, 22800, Note_off_c, 5, 73, 0
1, 22800, Note_on_c, 5, 71, 96
1, 22800, Note_on_c, 6, 51, 96
1, 22810, Note_off_c, 2, 63, 0
1, 22812, Note_off_c, 0, 71, 0
1, 22812, Note_on_c, 0, 69, 96
1, 22812, Note_on_c, 2, 61, 96
1, 22812, Note_off_c, 5, 71, 0
1, 22812, Note_on_c, 5, 69, 96
1, 22821, Note_off_c, 3, 51, 0
1, 22821, Note_off_c, 4, 39, 0
1, 22821, Note_off_c, 6, 51, 0
1, 22822, Note_off_c, 0, 69, 0
1, 22822, Note_off_c, 2, 61, 0
1, 22822, Note_off_c, 5, 69, 0
1, 22824, Note_on_c, 0, 68, 96
1, 22824, Note_on_c, 2, 59, 96
1, 22824, Note_on_c, 3, 56, 96
1, 22824, Note_on_c, 4, 44, 96
1, 22824, Note_on_c, 5, 68, 96
1, 22824, Note_on_c, 6, 56, 96
1, 22831, Note_off_c, 1, 75, 0
1, 22834, Note_off_c, 0, 68, 0
1, 22834, Note_off_c, 5, 68, 0
1, 22836, Note_on_c, 0, 81, 96
1, 22836, Note_on_c, 1, 73, 96
1, 22836, Note_on_c, 5, 81, 96
1, 22845, Note_off_c, 2, 59, 0
1, 22845, Note_off_c, 3, 56, 0
1, 22845, Note_off_c, 4, 44, 0
1, 22845, Note_off_c, 6, 56, 0
1, 22846, Note_off_c, 0, 81, 0
1, 22846, Note_off_c, 1, 73, 0
1, 22846, Note_off_c, 5, 81, 0
1, 22848, Note_on_c, 0, 80, 96
1, 22848, Note_on_c, 1, 71, 96
1, 22848, Note_on_c, 2, 68, 96
1, 22848, Note_on_c, 3, 59, 96
1, 22848, Note_on_c, 4, 47, 96
1, 22848, Note_on_c, 5, 80, 96
1, 22848, Note_on_c, 6, 59, 96
1, 22858, Note_off_c, 0, 80, 0
1, 22858, Note_off_c, 1, 71, 0
1, 22858, Note_off_c, 5, 80, 0
1, 22860, Note_on_c, 0, 78, 96
1, 22860, Note_on_c, 1, 69, 96
1, 22860, Note_on_c, 5, 78, 96
1, 22869, Note_off_c, 3, 59, 0
1, 22869, Note_off_c, 4, 47, 0
1, 22869, Note_off_c, 6, 59, 0
1, 22870, Note_off_c, 0, 78, 0
1, 22870, Note_off_c, 1, 69, 0
1, 22870, Note_off_c, 5, 78, 0
1, 22872, Note_on_c, 0, 76, 96
1, 22872, Note_on_c, 1, 68, 96
1, 22872, Note_on_c, 3, 49, 96
1, 22872, Note_on_c, 4, 37, 96
1, 22872, Note_on_c, 5, 76, 96
1, 22872, Note_on_c, 6, 49, 96
1, 22879, Note_off_c, 2, 68, 0
1, 22884, Note_off_c, 0, 76, 0
1, 22884, Note_on_c, 0, 75, 96
1, 22884, Note_on_c, 2, 66, 96
1, 22884, Note_off_c, 5, 76, 0
1, 22884, Note_on_c, 5, 75, 96
1, 22893, Note_off_c, 1, 68, 0
1, 22893, Note_off_c, 3, 49, 0
1, 22893, Note_off_c, 4, 37, 0
1, 22893, Note_off_c, 6, 49, 0
1, 22894, Note_off_c, 2, 66, 0
1, 22896, Note_off_c, 0, 75, 0
1, 22896, Note_on_c, 0, 73, 96
1, 22896, Note_on_c, 1, 76, 96
1, 22896, Note_on_c, 2, 64, 96
1, 22896, Note_on_c, 3, 52, 96
1, 22896, Note_on_c, 4, 40, 96
1, 22896, Note_off_c, 5, 75, 0
1, 22896, Note_on_c, 5, 73, 96
1, 22896, Note_on_c, 6, 52, 96
1, 22906, Note_off_c, 2, 64, 0
1, 22908, Note_off_c, 0, 73, 0
1, 22908, Note_on_c, 0, 71, 96
1, 22908, Note_on_c, 2, 63, 96
1, 22908, Note_off_c, 5, 73, 0
1, 22908, Note_on_c, 5, 71, 96
1, 22917, Note_off_c, 3, 52, 0
1, 22917, Note_off_c, 4, 40, 0
1, 22917, Note_off_c, 6, 52, 0
1, 22918, Note_off_c, 0, 71, 0
1, 22918, Note_off_c, 2, 63, 0
1, 22918, Note_off_c, 5, 71, 0
1, 22920, Note_on_c, 0, 69, 96
1, 22920, Note_on_c, 2, 61, 96
1, 22920, Note_on_c, 3, 57, 96
1, 22920, Note_on_c, 4, 45, 96
1, 22920, Note_on_c, 5, 69, 96
1, 22920, Note_on_c, 6, 57, 96
1, 22927, Note_off_c, 1, 76, 0
1, 22930, Note_off_c, 0, 69, 0
1, 22930, Note_off_c, 5, 69, 0
1, 22932, Note_on_c, 0, 83, 96
1, 22932, Note_on_c, 1, 75, 96
1, 22932, Note_on_c, 5, 83, 96
1, 22941, Note_off_c, 2, 61, 0
1, 22941, Note_off_c, 3, 57, 0
1, 22941, Note_off_c, 4, 45, 0
1, 22941, Note_off_c, 6, 57, 0
1, 22942, Note_off_c, 0, 83, 0
1, 22942, Note_off_c, 1, 75, 0
1, 22942, Note_off_c, 5, 83, 0
1, 22944, Note_on_c, 0, 81, 96
1, 22944, Note_on_c, 1, 73, 96
1, 22944, Note_on_c, 2, 69, 96
1, 22944, Note_on_c, 3, 61, 96
1, 22944, Note_on_c, 4, 49, 96
1, 22944, Note_on_c, 5, 81, 96
1, 22944, Note_on_c, 6, 61, 96
1, 22954, Note_off_c, 0, 81, 0
1, 22954, Note_off_c, 1, 73, 0
1, 22954, Note_off_c, 5, 81, 0
1, 22956, Note_on_c, 0, 80, 96
1, 22956, Note_on_c, 1, 71, 96
1, 22956, Note_on_c, 5, 80, 96
1, 22965, Note_off_c, 3, 61, 0
1, 22965, Note_off_c, 4, 49, 0
1, 22965, Note_off_c, 6, 61, 0
1, 22966, Note_off_c, 0, 80, 0
1, 22966, Note_off_c, 1, 71, 0
1, 22966, Note_off_c, 5, 80, 0
1, 22968, Note_on_c, 0, 78, 96
1, 22968, Note_on_c, 1, 69, 96
1, 22968, Note_on_c, 3, 51, 96
1, 22968, Note_on_c, 4, 39, 96
1, 22968, Note_on_c, 5, 78, 96
1, 22968, Note_on_c, 6, 51, 96
1, 22975, Note_off_c, 2, 69, 0
1, 22978, Note_off_c, 1, 69, 0
1, 22980, Note_off_c, 0, 78, 0
1, 22980, Note_on_c, 0, 76, 96
1, 22980, Note_on_c, 1, 68, 96
1, 22980, Note_on_c, 2, 71, 96
1, 22980, Note_off_c, 5, 78, 0
1, 22980, Note_on_c, 5, 76, 96
1, 22989, Note_off_c, 3, 51, 0
1, 22989, Note_off_c, 4, 39, 0
1, 22989, Note_off_c, 6, 51, 0
1, 22990, Note_off_c, 1, 68, 0
1, 22990, Note_off_c, 2, 71, 0
1, 22992, Note_off_c, 0, 76, 0
1, 22992, Note_on_c, 0, 75, 96
1, 22992, Note_on_c, 1, 66, 96
1, 22992, Note_on_c, 2, 69, 96
1, 22992, Note_on_c, 3, 54, 96
1, 22992, Note_on_c, 4, 42, 96
1, 22992, Note_off_c, 5, 76, 0
1, 22992, Note_on_c, 5, 75, 96
1, 22992, Note_on_c, 6, 54, 96
1, 23002, Note_off_c, 1, 66, 0
1, 23002, Note_off_c, 2, 69, 0
1, 23004, Note_off_c, 0, 75, 0
1, 23004, Note_on_c, 0, 73, 96
1, 23004, Note_on_c, 1, 64, 96
1, 23004, Note_on_c, 2, 68, 96
1, 23004, Note_off_c, 5, 75, 0
1, 23004, Note_on_c, 5, 73, 96
1, 23013, Note_off_c, 3, 54, 0
1, 23013, Note_off_c, 4, 42, 0
1, 23013, Note_off_c, 6, 54, 0
1, 23014, Note_off_c, 0, 73, 0
1, 23014, Note_off_c, 1, 64, 0
1, 23014, Note_off_c, 2, 68, 0
1, 23014, Note_off_c, 5, 73, 0
1, 23016, Note_on_c, 0, 71, 96
1, 23016, Note_on_c, 1, 63, 96
1, 23016, Note_on_c, 2, 66, 96
1, 23016, Note_on_c, 3, 59, 96
1, 23016, Note_on_c, 4, 47, 96
1, 23016, Note_on_c, 5, 71, 96
1, 23016, Note_on_c, 6, 59, 96
1, 23026, Note_off_c, 0, 71, 0
1, 23026, Note_off_c, 1, 63, 0
1, 23026, Note_off_c, 5, 71, 0
1, 23028, Note_on_c, 0, 69, 96
1, 23028, Note_on_c, 1, 61, 96
1, 23028, Note_on_c, 5, 69, 96
1, 23037, Note_off_c, 2, 66, 0
1, 23037, Note_off_c, 3, 59, 0
1, 23037, Note_off_c, 4, 47, 0
1, 23037, Note_off_c, 6, 59, 0
1, 23038, Note_off_c, 0, 69, 0
1, 23038, Note_off_c, 1, 61, 0
1, 23038, Note_off_c, 5, 69, 0
1, 23040, Note_on_c, 0, 68, 96
1, 23040, Note_on_c, 1, 59, 96
1, 23040, Note_on_c, 2, 64, 96
1, 23040, Note_on_c, 3, 47, 96
1, 23040, Note_on_c, 4, 35, 96
1, 23040, Note_on_c, 5, 68, 96
1, 23040, Note_on_c, 6, 47, 96
1, 23050, Note_off_c, 0, 68, 0
1, 23050, Note_off_c, 1, 59, 0
1, 23050, Note_off_c, 2, 64, 0
1, 23050, Note_off_c, 5, 68, 0
1, 23052, Note_on_c, 0, 66, 96
1, 23052, Note_on_c, 1, 57, 96
1, 23052, Note_on_c, 2, 63, 96
1, 23052, Note_on_c, 5, 66, 96
1, 23061, Note_off_c, 3, 47, 0
1, 23061, Note_off_c, 4, 35, 0
1, 23061, Note_off_c, 6, 47, 0
1, 23062, Note_off_c, 0, 66, 0
1, 23062, Note_off_c, 1, 57, 0
1, 23062, Note_off_c, 2, 63, 0
1, 23062, Note_off_c, 5, 66, 0
1, 23064, Note_on_c, 0, 64, 96
1, 23064, Note_on_c, 1, 56, 96
1, 23064, Note_on_c, 2, 64, 96
1, 23064, Note_on_c, 3, 49, 96
1, 23064, Note_on_c, 4, 37, 96
1, 23064, Note_on_c, 5, 64, 96
1, 23064, Note_on_c, 6, 49, 96
1, 23076, Note_off_c, 5, 64, 0
1, 23076, Note_on_c, 5, 66, 96
1, 23082, Note_off_c, 5, 66, 0
1, 23082, Note_on_c, 5, 64, 96
1, 23085, Note_off_c, 1, 56, 0
1, 23085, Note_off_c, 2, 64, 0
1, 23085, Note_off_c, 3, 49, 0
1, 23085, Note_off_c, 4, 37, 0
1, 23085, Note_off_c, 6, 49, 0
1, 23088, Note_on_c, 1, 64, 96
1, 23088, Note_on_c, 2, 61, 96
1, 23088, Note_on_c, 3, 45, 96
1, 23088, Note_on_c, 4, 33, 96
1, 23088, Note_off_c, 5, 64, 0
1, 23088, Note_on_c, 5, 63, 96
1, 23088, Note_on_c, 6, 45, 96
1, 23094, Note_off_c, 5, 63, 0
1, 23094, Note_on_c, 5, 64, 96
1, 23095, Note_off_c, 0, 64, 0
1, 23100, Note_on_c, 0, 66, 96
1, 23100, Note_off_c, 5, 64, 0
1, 23100, Note_on_c, 5, 66, 96
1, 23109, Note_off_c, 2, 61, 0
1, 23109, Note_off_c, 3, 45, 0
1, 23109, Note_off_c, 4, 33, 0
1, 23109, Note_off_c, 6, 45, 0
1, 23110, Note_off_c, 0, 66, 0
1, 23110, Note_off_c, 5, 66, 0
1, 23112, Note_on_c, 0, 66, 96
1, 23112, Note_on_c, 2, 59, 96
1, 23112, Note_on_c, 3, 47, 96
1, 23112, Note_on_c, 4, 35, 96
1, 23112, Note_on_c, 5, 66, 96
1, 23112, Note_on_c, 6, 47, 96
1, 23130, Note_off_c, 1, 64, 0
1, 23133, Note_off_c, 2, 59, 0
1, 23133, Note_off_c, 3, 47, 0
1, 23133, Note_off_c, 4, 35, 0
1, 23133, Note_off_c, 6, 47, 0
1, 23136, Note_on_c, 1, 63, 96
1, 23136, Note_on_c, 2, 57, 96
1, 23136, Note_on_c, 3, 47, 96
1, 23136, Note_on_c, 4, 35, 96
1, 23136, Note_on_c, 6, 47, 96
1, 23143, Note_off_c, 0, 66, 0
1, 23143, Note_off_c, 5, 66, 0
1, 23148, Note_on_c, 0, 64, 96
1, 23148, Note_on_c, 5, 64, 96
1, 23157, Note_off_c, 1, 63, 0
1, 23157, Note_off_c, 2, 57, 0
1, 23157, Note_off_c, 3, 47, 0
1, 23157, Note_off_c, 4, 35, 0
1, 23157, Note_off_c, 6, 47, 0
1, 23158, Note_off_c, 0, 64, 0
1, 23158, Note_off_c, 5, 64, 0
1, 23160, Note_on_c, 0, 64, 96
1, 23160, Note_on_c, 1, 64, 96
1, 23160, Note_on_c, 2, 56, 96
1, 23160, Note_on_c, 3, 40, 96
1, 23160, Note_on_c, 4, 28, 96
1, 23160, Note_on_c, 5, 64, 96
1, 23160, Note_on_c, 6, 40, 96
1, 23181, Note_off_c, 0, 64, 0
1, 23181, Note_off_c, 1, 64, 0
1, 23181, Note_off_c, 2, 56, 0
1, 23184, Note_on_c, 0, 76, 80
1, 23184, Note_on_c, 1, 71, 80
1, 23184, Note_on_c, 2, 68, 80
1, 23190, Note_off_c, 0, 76, 0
1, 23202, Note_off_c, 3, 40, 0
1, 23202, Note_off_c, 4, 28, 0
1, 23202, Note_off_c, 5, 64, 0
1, 23202, Note_off_c, 6, 40, 0
1, 23205, Note_off_c, 1, 71, 0
1, 23205, Note_off_c, 2, 68, 0
1, 23208, Note_on_c, 0, 76, 80
1, 23208, Note_on_c, 1, 71, 80
1, 23208, Note_on_c, 2, 68, 80
1, 23214, Note_off_c, 0, 76, 0
1, 23229, Note_off_c, 1, 71, 0
1, 23229, Note_off_c, 2, 68, 0
1, 23232, Note_on_c, 0, 71, 80
1, 23232, Note_on_c, 1, 68, 80
1, 23232, Note_on_c, 2, 64, 80
1, 23232, Note_on_c, 5, 59, 96
1, 23238, Note_off_c, 0, 71, 0
1, 23253, Note_off_c, 1, 68, 0
1, 23253, Note_off_c, 2, 64, 0
1, 23253, Note_off_c, 5, 59, 0
1, 23256, Note_on_c, 0, 71, 80
1, 23256, Note_on_c, 1, 68, 80
1, 23256, Note_on_c, 2, 64, 80
1, 23256, Note_on_c, 5, 64, 96
1, 23262, Note_off_c, 0, 71, 0
1, 23266, Note_off_c, 5, 64, 0
1, 23268, Note_on_c, 5, 66, 96
1, 23277, Note_off_c, 1, 68, 0
1, 23277, Note_off_c, 2, 64, 0
1, 23278, Note_off_c, 5, 66, 0
1, 23280, Note_on_c, 0, 68, 80
1, 23280, Note_on_c, 1, 64, 80
1, 23280, Note_on_c, 2, 59, 80
1, 23280, Note_on_c, 5, 68, 96
1, 23286, Note_off_c, 0, 68, 0
1, 23286, Note_off_c, 5, 68, 0
1, 23301, Note_off_c, 1, 64, 0
1, 23301, Note_off_c, 2, 59, 0
1, 23304, Note_on_c, 0, 68, 80
1, 23304, Note_on_c, 1, 64, 80
1, 23304, Note_on_c, 2, 59, 80
1, 23304, Note_on_c, 5, 68, 96
1, 23310, Note_off_c, 0, 68, 0
1, 23314, Note_off_c, 5, 68, 0
1, 23316, Note_on_c, 5, 69, 96
1, 23325, Note_off_c, 1, 64, 0
1, 23325, Note_off_c, 2, 59, 0
1, 23326, Note_off_c, 5, 69, 0
1, 23328, Note_on_c, 0, 64, 80
1, 23328, Note_on_c, 1, 59, 80
1, 23328, Note_on_c, 2, 56, 80
1, 23328, Note_on_c, 5, 71, 96
1, 23334, Note_off_c, 0, 64, 0
1, 23334, Note_off_c, 5, 71, 0
1, 23349, Note_off_c, 1, 59, 0
1, 23349, Note_off_c, 2, 56, 0
1, 23352, Note_on_c, 0, 64, 80
1, 23352, Note_on_c, 1, 59, 80
1, 23352, Note_on_c, 2, 56, 80
1, 23352, Note_on_c, 5, 71, 96
1, 23362, Note_off_c, 5, 71, 0
1, 23364, Note_on_c, 5, 73, 96
1, 23373, Note_off_c, 0, 64, 0
1, 23373, Note_off_c, 1, 59, 0
1, 23373, Note_off_c, 2, 56, 0
1, 23374, Note_off_c, 5, 73, 0
1, 23376, Note_on_c, 0, 59, 80
1, 23376, Note_on_c, 1, 56, 80
1, 23376, Note_on_c, 2, 52, 80
1, 23376, Note_on_c, 5, 75, 96
1, 23382, Note_off_c, 5, 75, 0
1, 23397, Note_off_c, 0, 59, 0
1, 23397, Note_off_c, 1, 56, 0
1, 23397, Note_off_c, 2, 52, 0
1, 23400, Note_on_c, 0, 59, 80
1, 23400, Note_on_c, 1, 56, 80
1, 23400, Note_on_c, 2, 52, 80
1, 23400, Note_on_c, 5, 76, 96
1, 23421, Note_off_c, 0, 59, 0
1, 23421, Note_off_c, 1, 56, 0
1, 23421, Note_off_c, 2, 52, 0
1, 23421, Note_off_c, 5, 76, 0
1, 23424, Note_on_c, 5, 76, 96
1, 23424, Note_on_c, 6, 58, 96
1, 23424, Note_on_c, 6, 49, 96
1, 23430, Note_off_c, 5, 76, 0
1, 23430, Note_on_c, 5, 78, 96
1, 23436, Note_off_c, 5, 78, 0
1, 23436, Note_on_c, 5, 80, 96
1, 23445, Note_off_c, 6, 58, 0
1, 23445, Note_off_c, 6, 49, 0
1, 23446, Note_off_c, 5, 80, 0
1, 23448, Note_on_c, 5, 78, 96
1, 23448, Note_on_c, 6, 59, 96
1, 23448, Note_on_c, 6, 51, 96
1, 23469, Note_off_c, 5, 78, 0
1, 23469, Note_off_c, 6, 51, 0
1, 23472, Note_on_c, 5, 76, 96
1, 23472, Note_on_c, 6, 52, 96
1, 23479, Note_off_c, 6, 59, 0
1, 23484, Note_on_c, 6, 61, 96
1, 23493, Note_off_c, 5, 76, 0
1, 23493, Note_off_c, 6, 52, 0
1, 23494, Note_off_c, 6, 61, 0
1, 23496, Note_on_c, 5, 75, 96
1, 23496, Note_on_c, 6, 54, 96
1, 23502, Note_off_c, 5, 75, 0
1, 23502, Note_on_c, 5, 76, 96
1, 23508, Note_off_c, 5, 76, 0
1, 23508, Note_on_c, 5, 75, 96
1, 23508, Note_on_c, 6, 59, 96
1, 23517, Note_off_c, 6, 54, 0
1, 23518, Note_off_c, 5, 75, 0
1, 23520, Note_on_c, 5, 73, 96
1, 23520, Note_on_c, 6, 52, 96
1, 23529, Note_off_c, 6, 59, 0
1, 23532, Note_on_c, 6, 58, 96
1, 23541, Note_off_c, 5, 73, 0
1, 23541, Note_off_c, 6, 52, 0
1, 23542, Note_off_c, 6, 58, 0
1, 23544, Note_on_c, 5, 71, 96
1, 23544, Note_on_c, 6, 59, 96
1, 23544, Note_on_c, 6, 54, 96
1, 23544, Note_on_c, 6, 51, 96
1, 23556, Note_off_c, 5, 71, 0
1, 23556, Note_on_c, 5, 70, 96
1, 23565, Note_off_c, 6, 54, 0
1, 23565, Note_off_c, 6, 51, 0
1, 23566, Note_off_c, 5, 70, 0
1, 23568, Note_on_c, 5, 71, 96
1, 23568, Note_on_c, 6, 52, 96
1, 23568, Note_on_c, 6, 49, 96
1, 23580, Note_off_c, 5, 71, 0
1, 23580, Note_on_c, 5, 70, 96
1, 23589, Note_off_c, 6, 52, 0
1, 23589, Note_off_c, 6, 49, 0
1, 23590, Note_off_c, 5, 70, 0
1, 23592, Note_on_c, 5, 71, 96
1, 23592, Note_on_c, 6, 54, 96
1, 23592, Note_on_c, 6, 51, 96
1, 23602, Note_off_c, 5, 71, 0
1, 23604, Note_on_c, 5, 78, 96
1, 23607, Note_off_c, 6, 59, 0
1, 23613, Note_off_c, 6, 54, 0
1, 23613, Note_off_c, 6, 51, 0
1, 23614, Note_off_c, 5, 78, 0
1, 23616, Note_on_c, 5, 80, 96
1, 23616, Note_on_c, 6, 59, 96
1, 23616, Note_on_c, 6, 52, 96
1, 23626, Note_off_c, 5, 80, 0
1, 23628, Note_on_c, 5, 76, 96
1, 23637, Note_off_c, 6, 59, 0
1, 23637, Note_off_c, 6, 52, 0
1, 23638, Note_off_c, 5, 76, 0
1, 23640, Note_on_c, 5, 71, 96
1, 23640, Note_on_c, 6, 59, 96
1, 23640, Note_on_c, 6, 54, 96
1, 23640, Note_on_c, 6, 51, 96
1, 23652, Note_off_c, 5, 71, 0
1, 23652, Note_on_c, 5, 70, 96
1, 23661, Note_off_c, 6, 54, 0
1, 23661, Note_off_c, 6, 51, 0
1, 23662, Note_off_c, 5, 70, 0
1, 23664, Note_on_c, 5, 71, 96
1, 23664, Note_on_c, 6, 52, 96
1, 23664, Note_on_c, 6, 49, 96
1, 23676, Note_off_c, 5, 71, 0
1, 23676, Note_on_c, 5, 70, 96
1, 23685, Note_off_c, 6, 52, 0
1, 23685, Note_off_c, 6, 49, 0
1, 23686, Note_off_c, 5, 70, 0
1, 23688, Note_on_c, 5, 71, 96
1, 23688, Note_on_c, 6, 54, 96
1, 23688, Note_on_c, 6, 51, 96
1, 23698, Note_off_c, 5, 71, 0
1, 23700, Note_on_c, 5, 80, 96
1, 23703, Note_off_c, 6, 59, 0
1, 23709, Note_off_c, 6, 54, 0
1, 23709, Note_off_c, 6, 51, 0
1, 23710, Note_off_c, 5, 80, 0
1, 23712, Note_on_c, 5, 81, 96
1, 23712, Note_on_c, 6, 54, 96
1, 23712, Note_on_c, 6, 51, 96
1, 23712, Note_on_c, 6, 47, 96
1, 23722, Note_off_c, 5, 81, 0
1, 23724, Note_on_c, 5, 78, 96
1, 23733, Note_off_c, 6, 54, 0
1, 23733, Note_off_c, 6, 51, 0
1, 23733, Note_off_c, 6, 47, 0
1, 23734, Note_off_c, 5, 78, 0
1, 23736, Note_on_c, 5, 71, 96
1, 23736, Note_on_c, 6, 56, 96
1, 23736, Note_on_c, 6, 52, 96
1, 23748, Note_off_c, 5, 71, 0
1, 23748, Note_on_c, 5, 70, 96
1, 23757, Note_off_c, 6, 56, 0
1, 23757, Note_off_c, 6, 52, 0
1, 23758, Note_off_c, 5, 70, 0
1, 23760, Note_on_c, 5, 71, 96
1, 23760, Note_on_c, 6, 54, 96
1, 23772, Note_off_c, 5, 71, 0
1, 23772, Note_on_c, 5, 70, 96
1, 23781, Note_off_c, 6, 54, 0
1, 23782, Note_off_c, 5, 70, 0
1, 23784, Note_on_c, 5, 71, 96
1, 23784, Note_on_c, 6, 56, 96
1, 23794, Note_off_c, 5, 71, 0
1, 23796, Note_on_c, 5, 81, 96
1, 23805, Note_off_c, 6, 56, 0
1, 23806, Note_off_c, 5, 81, 0
1, 23808, Note_on_c, 5, 83, 96
1, 23808, Note_on_c, 6, 64, 96
1, 23808, Note_on_c, 6, 56, 96
1, 23808, Note_on_c, 6, 52, 96
1, 23818, Note_off_c, 5, 83, 0
1, 23820, Note_on_c, 5, 80, 96
1, 23829, Note_off_c, 6, 64, 0
1, 23829, Note_off_c, 6, 56, 0
1, 23829, Note_off_c, 6, 52, 0
1, 23830, Note_off_c, 5, 80, 0
1, 23832, Note_on_c, 5, 81, 96
1, 23832, Note_on_c, 6, 63, 96
1, 23832, Note_on_c, 6, 54, 96
1, 23842, Note_off_c, 5, 81, 0
1, 23844, Note_on_c, 5, 80, 96
1, 23853, Note_off_c, 6, 63, 0
1, 23853, Note_off_c, 6, 54, 0
1, 23854, Note_off_c, 5, 80, 0
1, 23856, Note_on_c, 5, 81, 96
1, 23856, Note_on_c, 6, 52, 96
1, 23866, Note_off_c, 5, 81, 0
1, 23868, Note_on_c, 5, 78, 96
1, 23877, Note_off_c, 6, 52, 0
1, 23878, Note_off_c, 5, 78, 0
1, 23880, Note_on_c, 5, 71, 96
1, 23880, Note_on_c, 6, 51, 96
1, 23885, Note_off_c, 5, 71, 0
1, 23886, Note_on_c, 5, 73, 96
1, 23891, Note_off_c, 5, 73, 0
1, 23892, Note_on_c, 5, 75, 96
1, 23897, Note_off_c, 5, 75, 0
1, 23898, Note_on_c, 5, 76, 96
1, 23901, Note_off_c, 6, 51, 0
1, 23903, Note_off_c, 5, 76, 0
1, 23904, Note_on_c, 5, 78, 96
1, 23904, Note_on_c, 6, 59, 96
1, 23904, Note_on_c, 6, 54, 96
1, 23904, Note_on_c, 6, 51, 96
1, 23904, Note_on_c, 6, 47, 96
1, 23909, Note_off_c, 5, 78, 0
1, 23910, Note_on_c, 5, 80, 96
1, 23915, Note_off_c, 5, 80, 0
1, 23916, Note_on_c, 5, 81, 96
1, 23925, Note_off_c, 6, 59, 0
1, 23925, Note_off_c, 6, 54, 0
1, 23925, Note_off_c, 6, 51, 0
1, 23925, Note_off_c, 6, 47, 0
1, 23926, Note_off_c, 5, 81, 0
1, 23928, Note_on_c, 5, 80, 96
1, 23928, Note_on_c, 6, 59, 96
1, 23928, Note_on_c, 6, 52, 96
1, 23938, Note_off_c, 5, 80, 0
1, 23940, Note_on_c, 5, 78, 96
1, 23949, Note_off_c, 6, 59, 0
1, 23949, Note_off_c, 6, 52, 0
1, 23950, Note_off_c, 5, 78, 0
1, 23952, Note_on_c, 5, 80, 96
1, 23952, Note_on_c, 6, 54, 96
1, 23962, Note_off_c, 5, 80, 0
1, 23964, Note_on_c, 5, 76, 96
1, 23973, Note_off_c, 6, 54, 0
1, 23974, Note_off_c, 5, 76, 0
1, 23976, Note_on_c, 5, 71, 96
1, 23976, Note_on_c, 6, 56, 96
1, 23982, Note_off_c, 5, 71, 0
1, 23982, Note_on_c, 5, 70, 96
1, 23988, Note_off_c, 5, 70, 0
1, 23988, Note_on_c, 5, 71, 96
1, 23994, Note_off_c, 5, 71, 0
1, 23994, Note_on_c, 5, 73, 96
1, 23997, Note_off_c, 6, 56, 0
1, 24000, Note_off_c, 5, 73, 0
1, 24000, Note_on_c, 5, 75, 96
1, 24000, Note_on_c, 6, 64, 96
1, 24000, Note_on_c, 6, 59, 96
1, 24000, Note_on_c, 6, 56, 96
1, 24000, Note_on_c, 6, 52, 96
1, 24006, Note_off_c, 5, 75, 0
1, 24006, Note_on_c, 5, 76, 96
1, 24012, Note_off_c, 5, 76, 0
1, 24012, Note_on_c, 5, 78, 96
1, 24018, Note_off_c, 5, 78, 0
1, 24018, Note_on_c, 5, 80, 96
1, 24021, Note_off_c, 6, 64, 0
1, 24021, Note_off_c, 6, 59, 0
1, 24021, Note_off_c, 6, 56, 0
1, 24021, Note_off_c, 6, 52, 0
1, 24023, Note_off_c, 5, 80, 0
1, 24024, Note_on_c, 5, 81, 96
1, 24024, Note_on_c, 6, 63, 96
1, 24024, Note_on_c, 6, 54, 96
1, 24027, Note_off_c, 5, 81, 0
1, 24036, Note_on_c, 5, 80, 96
1, 24039, Note_off_c, 5, 80, 0
1, 24045, Note_off_c, 6, 63, 0
1, 24045, Note_off_c, 6, 54, 0
1, 24048, Note_on_c, 5, 78, 96
1, 24048, Note_on_c, 6, 59, 96
1, 24051, Note_off_c, 5, 78, 0
1, 24060, Note_on_c, 5, 76, 96
1, 24063, Note_off_c, 5, 76, 0
1, 24069, Note_off_c, 6, 59, 0
1, 24072, Note_on_c, 5, 75, 96
1, 24072, Note_on_c, 6, 47, 96
1, 24075, Note_off_c, 5, 75, 0
1, 24084, Note_on_c, 5, 73, 96
1, 24087, Note_off_c, 5, 73, 0
1, 24093, Note_off_c, 6, 47, 0
1, 24096, Note_on_c, 5, 71, 96
1, 24096, Note_on_c, 6, 59, 96
1, 24096, Note_on_c, 6, 54, 96
1, 24096, Note_on_c, 6, 51, 96
1, 24099, Note_off_c, 5, 71, 0
1, 24108, Note_on_c, 5, 69, 96
1, 24111, Note_off_c, 5, 69, 0
1, 24117, Note_off_c, 6, 59, 0
1, 24117, Note_off_c, 6, 54, 0
1, 24117, Note_off_c, 6, 51, 0
1, 24120, Note_on_c, 5, 68, 96
1, 24120, Note_on_c, 6, 52, 96
1, 24130, Note_off_c, 5, 68, 0
1, 24132, Note_on_c, 5, 64, 96
1, 24141, Note_off_c, 6, 52, 0
1, 24142, Note_off_c, 5, 64, 0
1, 24144, Note_on_c, 5, 59, 96
1, 24144, Note_on_c, 6, 40, 96
1, 24154, Note_off_c, 5, 59, 0
1, 24156, Note_on_c, 5, 56, 96
1, 24165, Note_off_c, 6, 40, 0
1, 24166, Note_off_c, 5, 56, 0
1, 24168, Note_on_c, 6, 52, 96
1, 24180, Note_on_c, 5, 71, 96
1, 24189, Note_off_c, 6, 52, 0
1, 24190, Note_off_c, 5, 71, 0
1, 24192, Note_on_c, 5, 76, 96
1, 24192, Note_on_c, 6, 58, 96
1, 24192, Note_on_c, 6, 49, 96
1, 24202, Note_off_c, 5, 76, 0
1, 24204, Note_on_c, 5, 80, 96
1, 24213, Note_off_c, 6, 58, 0
1, 24213, Note_off_c, 6, 49, 0
1, 24214, Note_off_c, 5, 80, 0
1, 24216, Note_on_c, 5, 78, 96
1, 24216, Note_on_c, 6, 59, 96
1, 24216, Note_on_c, 6, 51, 96
1, 24226, Note_off_c, 5, 78, 0
1, 24228, Note_on_c, 5, 83, 96
1, 24238, Note_off_c, 5, 83, 0
1, 24240, Note_on_c, 0, 78, 80
1, 24240, Note_on_c, 1, 75, 80
1, 24240, Note_on_c, 5, 82, 96
1, 24250, Note_off_c, 5, 82, 0
1, 24252, Note_on_c, 5, 83, 96
1, 24258, Note_off_c, 6, 59, 0
1, 24258, Note_off_c, 6, 51, 0
1, 24261, Note_off_c, 0, 78, 0
1, 24261, Note_off_c, 1, 75, 0
1, 24262, Note_off_c, 5, 83, 0
1, 24264, Note_on_c, 0, 76, 80
1, 24264, Note_on_c, 1, 70, 80
1, 24264, Note_on_c, 5, 73, 96
1, 24269, Note_off_c, 5, 73, 0
1, 24270, Note_on_c, 5, 75, 96
1, 24275, Note_off_c, 5, 75, 0
1, 24276, Note_on_c, 5, 73, 96
1, 24281, Note_off_c, 5, 73, 0
1, 24282, Note_on_c, 5, 71, 96
1, 24285, Note_off_c, 0, 76, 0
1, 24285, Note_off_c, 1, 70, 0
1, 24287, Note_off_c, 5, 71, 0
1, 24288, Note_on_c, 0, 75, 80
1, 24288, Note_on_c, 1, 71, 80
1, 24288, Note_on_c, 5, 73, 96
1, 24288, Note_on_c, 6, 54, 96
1, 24288, Note_on_c, 6, 47, 96
1, 24298, Note_off_c, 5, 73, 0
1, 24300, Note_on_c, 5, 75, 96
1, 24309, Note_off_c, 0, 75, 0
1, 24309, Note_off_c, 1, 71, 0
1, 24309, Note_off_c, 6, 54, 0
1, 24309, Note_off_c, 6, 47, 0
1, 24310, Note_off_c, 5, 75, 0
1, 24312, Note_on_c, 5, 76, 96
1, 24312, Note_on_c, 6, 58, 96
1, 24312, Note_on_c, 6, 49, 96
1, 24322, Note_off_c, 5, 76, 0
1, 24324, Note_on_c, 5, 83, 96
1, 24334, Note_off_c, 5, 83, 0
1, 24336, Note_on_c, 0, 76, 80
1, 24336, Note_on_c, 1, 73, 80
1, 24336, Note_on_c, 5, 82, 96
1, 24346, Note_off_c, 5, 82, 0
1, 24348, Note_on_c, 5, 83, 96
1, 24354, Note_off_c, 6, 58, 0
1, 24354, Note_off_c, 6, 49, 0
1, 24357, Note_off_c, 0, 76, 0
1, 24357, Note_off_c, 1, 73, 0
1, 24358, Note_off_c, 5, 83, 0
1, 24360, Note_on_c, 0, 75, 80
1, 24360, Note_on_c, 1, 68, 80
1, 24360, Note_on_c, 5, 71, 96
1, 24365, Note_off_c, 5, 71, 0
1, 24366, Note_on_c, 5, 73, 96
1, 24371, Note_off_c, 5, 73, 0
1, 24372, Note_on_c, 5, 71, 96
1, 24377, Note_off_c, 5, 71, 0
1, 24378, Note_on_c, 5, 70, 96
1, 24381, Note_off_c, 0, 75, 0
1, 24381, Note_off_c, 1, 68, 0
1, 24383, Note_off_c, 5, 70, 0
1, 24384, Note_on_c, 0, 73, 80
1, 24384, Note_on_c, 1, 70, 80
1, 24384, Note_on_c, 3, 54, 80
1, 24384, Note_on_c, 4, 42, 80
1, 24384, Note_on_c, 5, 71, 96
1, 24384, Note_on_c, 6, 54, 96
1, 24394, Note_off_c, 5, 71, 0
1, 24396, Note_on_c, 5, 73, 96
1, 24405, Note_off_c, 0, 73, 0
1, 24405, Note_off_c, 1, 70, 0
1, 24405, Note_off_c, 3, 54, 0
1, 24405, Note_off_c, 4, 42, 0
1, 24405, Note_off_c, 6, 54, 0
1, 24406, Note_off_c, 5, 73, 0
1, 24408, Note_on_c, 3, 59, 80
1, 24408, Note_on_c, 4, 47, 80
1, 24408, Note_on_c, 5, 75, 96
1, 24408, Note_on_c, 6, 59, 96
1, 24429, Note_off_c, 3, 59, 0
1, 24429, Note_off_c, 4, 47, 0
1, 24429, Note_off_c, 5, 75, 0
1, 24429, Note_off_c, 6, 59, 0
1, 24432, Note_on_c, 0, 73, 80
1, 24432, Note_on_c, 1, 66, 80
1, 24432, Note_on_c, 2, 61, 80
1, 24432, Note_on_c, 3, 58, 80
1, 24432, Note_on_c, 4, 46, 80
1, 24432, Note_on_c, 5, 73, 96
1, 24432, Note_on_c, 6, 58, 96
1, 24453, Note_off_c, 0, 73, 0
1, 24453, Note_off_c, 1, 66, 0
1, 24453, Note_off_c, 2, 61, 0
1, 24453, Note_off_c, 3, 58, 0
1, 24453, Note_off_c, 4, 46, 0
1, 24453, Note_off_c, 5, 73, 0
1, 24453, Note_off_c, 6, 58, 0
1, 24456, Note_on_c, 0, 71, 80
1, 24456, Note_on_c, 1, 59, 80
1, 24456, Note_on_c, 2, 64, 80
1, 24456, Note_on_c, 3, 56, 80
1, 24456, Note_on_c, 4, 44, 80
1, 24456, Note_on_c, 5, 73, 96
1, 24456, Note_on_c, 6, 56, 96
1, 24461, Note_off_c, 5, 73, 0
1, 24462, Note_on_c, 5, 75, 96
1, 24467, Note_off_c, 5, 75, 0
1, 24468, Note_on_c, 5, 76, 96
1, 24477, Note_off_c, 0, 71, 0
1, 24477, Note_off_c, 1, 59, 0
1, 24477, Note_off_c, 2, 64, 0
1, 24477, Note_off_c, 3, 56, 0
1, 24477, Note_off_c, 4, 44, 0
1, 24477, Note_off_c, 6, 56, 0
1, 24478, Note_off_c, 5, 76, 0
1, 24480, Note_on_c, 0, 71, 80
1, 24480, Note_on_c, 1, 66, 80
1, 24480, Note_on_c, 2, 66, 80
1, 24480, Note_on_c, 3, 54, 80
1, 24480, Note_on_c, 4, 42, 80
1, 24480, Note_on_c, 5, 75, 96
1, 24480, Note_on_c, 6, 54, 96
1, 24486, Note_off_c, 5, 75, 0
1, 24501, Note_off_c, 0, 71, 0
1, 24501, Note_off_c, 1, 66, 0
1, 24501, Note_off_c, 2, 66, 0
1, 24501, Note_off_c, 3, 54, 0
1, 24501, Note_off_c, 4, 42, 0
1, 24501, Note_off_c, 6, 54, 0
1, 24504, Note_on_c, 0, 70, 80
1, 24504, Note_on_c, 1, 66, 80
1, 24504, Note_on_c, 2, 54, 80
1, 24504, Note_on_c, 3, 52, 80
1, 24504, Note_on_c, 4, 40, 80
1, 24504, Note_on_c, 5, 73, 96
1, 24504, Note_on_c, 6, 52, 96
1, 24510, Note_off_c, 5, 73, 0
1, 24510, Note_on_c, 5, 75, 96
1, 24516, Note_off_c, 5, 75, 0
1, 24516, Note_on_c, 5, 73, 96
1, 24525, Note_off_c, 0, 70, 0
1, 24525, Note_off_c, 1, 66, 0
1, 24525, Note_off_c, 2, 54, 0
1, 24525, Note_off_c, 3, 52, 0
1, 24525, Note_off_c, 4, 40, 0
1, 24525, Note_off_c, 6, 52, 0
1, 24526, Note_off_c, 5, 73, 0
1, 24528, Note_on_c, 0, 71, 80
1, 24528, Note_on_c, 1, 66, 80
1, 24528, Note_on_c, 2, 59, 80
1, 24528, Note_on_c, 3, 51, 80
1, 24528, Note_on_c, 4, 39, 80
1, 24528, Note_on_c, 5, 71, 96
1, 24528, Note_on_c, 6, 51, 96
1, 24538, Note_off_c, 6, 51, 0
1, 24540, Note_on_c, 6, 54, 96
1, 24549, Note_off_c, 0, 71, 0
1, 24549, Note_off_c, 1, 66, 0
1, 24549, Note_off_c, 2, 59, 0
1, 24549, Note_off_c, 3, 51, 0
1, 24549, Note_off_c, 4, 39, 0
1, 24549, Note_off_c, 5, 71, 0
1, 24550, Note_off_c, 6, 54, 0
1, 24552, Note_on_c, 5, 80, 96
1, 24552, Note_on_c, 6, 59, 96
1, 24558, Note_off_c, 5, 80, 0
1, 24558, Note_on_c, 5, 78, 96
1, 24562, Note_off_c, 6, 59, 0
1, 24564, Note_off_c, 5, 78, 0
1, 24564, Note_on_c, 5, 80, 96
1, 24564, Note_on_c, 6, 50, 96
1, 24574, Note_off_c, 6, 50, 0
1, 24576, Note_on_c, 0, 78, 80
1, 24576, Note_on_c, 1, 66, 80
1, 24576, Note_on_c, 2, 71, 80
1, 24576, Note_on_c, 3, 50, 80
1, 24576, Note_on_c, 4, 38, 80
1, 24576, Note_on_c, 6, 59, 96
1, 24586, Note_off_c, 6, 59, 0
1, 24588, Note_on_c, 6, 50, 96
1, 24597, Note_off_c, 0, 78, 0
1, 24597, Note_off_c, 1, 66, 0
1, 24597, Note_off_c, 2, 71, 0
1, 24597, Note_off_c, 3, 50, 0
1, 24597, Note_off_c, 4, 38, 0
1, 24598, Note_off_c, 6, 50, 0
1, 24600, Note_on_c, 0, 77, 80
1, 24600, Note_on_c, 1, 73, 80
1, 24600, Note_on_c, 2, 71, 80
1, 24600, Note_on_c, 3, 49, 80
1, 24600, Note_on_c, 4, 37, 80
1, 24600, Note_on_c, 6, 49, 96
1, 24606, Note_off_c, 5, 80, 0
1, 24610, Note_off_c, 6, 49, 0
1, 24612, Note_on_c, 5, 78, 96
1, 24612, Note_on_c, 6, 57, 96
1, 24621, Note_off_c, 3, 49, 0
1, 24621, Note_off_c, 4, 37, 0
1, 24622, Note_off_c, 5, 78, 0
1, 24622, Note_off_c, 6, 57, 0
1, 24624, Note_on_c, 3, 56, 80
1, 24624, Note_on_c, 4, 44, 80
1, 24624, Note_on_c, 5, 77, 96
1, 24624, Note_on_c, 6, 56, 96
1, 24634, Note_off_c, 5, 77, 0
1, 24634, Note_off_c, 6, 56, 0
1, 24636, Note_on_c, 5, 78, 96
1, 24636, Note_on_c, 6, 54, 96
1, 24645, Note_off_c, 3, 56, 0
1, 24645, Note_off_c, 4, 44, 0
1, 24646, Note_off_c, 5, 78, 0
1, 24646, Note_off_c, 6, 54, 0
1, 24648, Note_on_c, 3, 53, 80
1, 24648, Note_on_c, 4, 41, 80
1, 24648, Note_on_c, 5, 80, 96
1, 24648, Note_on_c, 6, 53, 96
1, 24658, Note_off_c, 5, 80, 0
1, 24658, Note_off_c, 6, 53, 0
1, 24660, Note_on_c, 5, 71, 96
1, 24660, Note_on_c, 6, 51, 96
1, 24669, Note_off_c, 3, 53, 0
1, 24669, Note_off_c, 4, 41, 0
1, 24670, Note_off_c, 5, 71, 0
1, 24670, Note_off_c, 6, 51, 0
1, 24672, Note_on_c, 3, 49, 80
1, 24672, Note_on_c, 4, 37, 80
1, 24672, Note_on_c, 5, 70, 96
1, 24672, Note_on_c, 6, 49, 96
1, 24682, Note_off_c, 5, 70, 0
1, 24682, Note_off_c, 6, 49, 0
1, 24684, Note_off_c, 0, 77, 0
1, 24684, Note_off_c, 1, 73, 0
1, 24684, Note_off_c, 2, 71, 0
1, 24684, Note_on_c, 5, 71, 96
1, 24684, Note_on_c, 6, 51, 96
1, 24693, Note_off_c, 3, 49, 0
1, 24693, Note_off_c, 4, 37, 0
1, 24694, Note_off_c, 5, 71, 0
1, 24694, Note_off_c, 6, 51, 0
1, 24696, Note_on_c, 0, 78, 80
1, 24696, Note_on_c, 1, 73, 80
1, 24696, Note_on_c, 2, 70, 80
1, 24696, Note_on_c, 3, 52, 80
1, 24696, Note_on_c, 4, 40, 80
1, 24696, Note_on_c, 5, 70, 96
1, 24696, Note_on_c, 6, 52, 96
1, 24706, Note_off_c, 5, 70, 0
1, 24706, Note_off_c, 6, 52, 0
1, 24708, Note_on_c, 5, 73, 96
1, 24708, Note_on_c, 6, 58, 96
1, 24718, Note_off_c, 5, 73, 0
1, 24718, Note_off_c, 6, 58, 0
1, 24720, Note_on_c, 5, 76, 96
1, 24720, Note_on_c, 6, 61, 96
1, 24730, Note_off_c, 5, 76, 0
1, 24730, Note_off_c, 6, 61, 0
1, 24732, Note_on_c, 5, 80, 96
1, 24732, Note_on_c, 6, 64, 96
1, 24738, Note_off_c, 0, 78, 0
1, 24738, Note_off_c, 1, 73, 0
1, 24738, Note_off_c, 2, 70, 0
1, 24738, Note_off_c, 3, 52, 0
1, 24738, Note_off_c, 4, 40, 0
1, 24742, Note_off_c, 5, 80, 0
1, 24742, Note_off_c, 6, 64, 0
1, 24744, Note_on_c, 5, 78, 96
1, 24744, Note_on_c, 6, 58, 96
1, 24754, Note_off_c, 6, 58, 0
1, 24756, Note_on_c, 6, 61, 96
1, 24766, Note_off_c, 6, 61, 0
1, 24768, Note_on_c, 0, 82, 80
1, 24768, Note_on_c, 1, 78, 80
1, 24768, Note_on_c, 2, 73, 80
1, 24768, Note_on_c, 3, 52, 80
1, 24768, Note_on_c, 4, 40, 80
1, 24768, Note_on_c, 6, 54, 96
1, 24778, Note_off_c, 6, 54, 0
1, 24780, Note_on_c, 6, 52, 96
1, 24789, Note_off_c, 0, 82, 0
1, 24789, Note_off_c, 1, 78, 0
1, 24789, Note_off_c, 2, 73, 0
1, 24789, Note_off_c, 3, 52, 0
1, 24789, Note_off_c, 4, 40, 0
1, 24790, Note_off_c, 6, 52, 0
1, 24792, Note_on_c, 0, 83, 80
1, 24792, Note_on_c, 1, 78, 80
1, 24792, Note_on_c, 2, 66, 80
1, 24792, Note_on_c, 3, 51, 80
1, 24792, Note_on_c, 4, 39, 80
1, 24792, Note_on_c, 6, 51, 96
1, 24807, Note_off_c, 5, 78, 0
1, 24813, Note_off_c, 0, 83, 0
1, 24813, Note_off_c, 1, 78, 0
1, 24813, Note_off_c, 2, 66, 0
1, 24813, Note_off_c, 3, 51, 0
1, 24813, Note_off_c, 4, 39, 0
1, 24813, Note_off_c, 6, 51, 0
1, 24816, Note_on_c, 5, 71, 96
1, 24816, Note_on_c, 6, 56, 96
1, 24837, Note_off_c, 5, 71, 0
1, 24837, Note_off_c, 6, 56, 0
1, 24840, Note_on_c, 5, 75, 96
1, 24840, Note_on_c, 6, 52, 96
1, 24850, Note_off_c, 5, 75, 0
1, 24852, Note_on_c, 5, 73, 96
1, 24861, Note_off_c, 6, 52, 0
1, 24862, Note_off_c, 5, 73, 0
1, 24864, Note_on_c, 5, 71, 96
1, 24864, Note_on_c, 6, 54, 96
1, 24874, Note_off_c, 5, 71, 0
1, 24876, Note_on_c, 5, 70, 96
1, 24885, Note_off_c, 6, 54, 0
1, 24886, Note_off_c, 5, 70, 0
1, 24888, Note_on_c, 5, 71, 96
1, 24888, Note_on_c, 6, 47, 96
1, 24909, Note_off_c, 6, 47, 0
1, 24912, Note_on_c, 0, 71, 96
1, 24912, Note_on_c, 1, 66, 96
1, 24912, Note_on_c, 2, 63, 96
1, 24912, Note_on_c, 3, 59, 96
1, 24912, Note_on_c, 4, 47, 96
1, 24912, Note_on_c, 6, 59, 96
1, 24922, Note_off_c, 0, 71, 0
1, 24922, Note_off_c, 2, 63, 0
1, 24922, Note_off_c, 3, 59, 0
1, 24922, Note_off_c, 4, 47, 0
1, 24922, Note_off_c, 6, 59, 0
1, 24924, Note_on_c, 0, 73, 96
1, 24924, Note_on_c, 2, 64, 96
1, 24924, Note_on_c, 3, 57, 96
1, 24924, Note_on_c, 4, 45, 96
1, 24924, Note_on_c, 6, 57, 96
1, 24930, Note_off_c, 5, 71, 0
1, 24933, Note_off_c, 1, 66, 0
1, 24934, Note_off_c, 0, 73, 0
1, 24934, Note_off_c, 2, 64, 0
1, 24934, Note_off_c, 3, 57, 0
1, 24934, Note_off_c, 4, 45, 0
1, 24934, Note_off_c, 6, 57, 0
1, 24936, Note_on_c, 0, 75, 96
1, 24936, Note_on_c, 1, 71, 96
1, 24936, Note_on_c, 2, 66, 96
1, 24936, Note_on_c, 3, 56, 96
1, 24936, Note_on_c, 4, 44, 96
1, 24936, Note_on_c, 6, 56, 96
1, 24946, Note_off_c, 0, 75, 0
1, 24946, Note_off_c, 2, 66, 0
1, 24948, Note_on_c, 0, 76, 96
1, 24948, Note_on_c, 2, 68, 96
1, 24948, Note_on_c, 5, 59, 96
1, 24957, Note_off_c, 1, 71, 0
1, 24957, Note_off_c, 3, 56, 0
1, 24957, Note_off_c, 4, 44, 0
1, 24957, Note_off_c, 6, 56, 0
1, 24958, Note_off_c, 0, 76, 0
1, 24958, Note_off_c, 2, 68, 0
1, 24958, Note_off_c, 5, 59, 0
1, 24960, Note_on_c, 0, 78, 96
1, 24960, Note_on_c, 1, 75, 96
1, 24960, Note_on_c, 2, 69, 96
1, 24960, Note_on_c, 3, 54, 96
1, 24960, Note_on_c, 4, 42, 96
1, 24960, Note_on_c, 5, 57, 96
1, 24960, Note_on_c, 6, 54, 96
1, 24970, Note_off_c, 0, 78, 0
1, 24970, Note_off_c, 2, 69, 0
1, 24970, Note_off_c, 5, 57, 0
1, 24972, Note_on_c, 0, 75, 96
1, 24972, Note_on_c, 2, 66, 96
1, 24972, Note_on_c, 5, 59, 96
1, 24981, Note_off_c, 1, 75, 0
1, 24981, Note_off_c, 3, 54, 0
1, 24981, Note_off_c, 4, 42, 0
1, 24981, Note_off_c, 6, 54, 0
1, 24982, Note_off_c, 0, 75, 0
1, 24982, Note_off_c, 2, 66, 0
1, 24982, Note_off_c, 5, 59, 0
1, 24984, Note_on_c, 0, 76, 96
1, 24984, Note_on_c, 1, 68, 96
1, 24984, Note_on_c, 2, 71, 96
1, 24984, Note_on_c, 3, 56, 96
1, 24984, Note_on_c, 4, 44, 96
1, 24984, Note_on_c, 5, 64, 96
1, 24984, Note_on_c, 6, 56, 96
1, 24994, Note_off_c, 5, 64, 0
1, 24994, Note_off_c, 6, 56, 0
1, 24996, Note_off_c, 0, 76, 0
1, 24996, Note_on_c, 0, 75, 80
1, 24996, Note_on_c, 5, 66, 96
1, 24996, Note_on_c, 6, 57, 96
1, 25005, Note_off_c, 1, 68, 0
1, 25005, Note_off_c, 2, 71, 0
1, 25005, Note_off_c, 3, 56, 0
1, 25005, Note_off_c, 4, 44, 0
1, 25006, Note_off_c, 5, 66, 0
1, 25006, Note_off_c, 6, 57, 0
1, 25008, Note_off_c, 0, 75, 0
1, 25008, Note_on_c, 0, 76, 80
1, 25008, Note_on_c, 1, 64, 80
1, 25008, Note_on_c, 2, 68, 80
1, 25008, Note_on_c, 5, 68, 96
1, 25008, Note_on_c, 6, 59, 96
1, 25014, Note_off_c, 5, 68, 0
1, 25020, Note_off_c, 0, 76, 0
1, 25020, Note_on_c, 0, 80, 80
1, 25029, Note_off_c, 1, 64, 0
1, 25029, Note_off_c, 2, 68, 0
1, 25029, Note_off_c, 6, 59, 0
1, 25030, Note_off_c, 0, 80, 0
1, 25032, Note_on_c, 0, 76, 80
1, 25032, Note_on_c, 1, 64, 80
1, 25032, Note_on_c, 2, 68, 80
1, 25032, Note_on_c, 5, 68, 96
1, 25032, Note_on_c, 6, 52, 96
1, 25042, Note_off_c, 0, 76, 0
1, 25042, Note_off_c, 5, 68, 0
1, 25042, Note_off_c, 6, 52, 0
1, 25044, Note_on_c, 0, 71, 80
1, 25044, Note_on_c, 5, 69, 96
1, 25044, Note_on_c, 6, 54, 96
1, 25053, Note_off_c, 1, 64, 0
1, 25053, Note_off_c, 2, 68, 0
1, 25054, Note_off_c, 0, 71, 0
1, 25054, Note_off_c, 5, 69, 0
1, 25054, Note_off_c, 6, 54, 0
1, 25056, Note_on_c, 0, 68, 80
1, 25056, Note_on_c, 1, 59, 80
1, 25056, Note_on_c, 2, 64, 80
1, 25056, Note_on_c, 5, 71, 96
1, 25056, Note_on_c, 6, 56, 96
1, 25062, Note_off_c, 5, 71, 0
1, 25066, Note_off_c, 0, 68, 0
1, 25068, Note_on_c, 0, 71, 80
1, 25077, Note_off_c, 1, 59, 0
1, 25077, Note_off_c, 2, 64, 0
1, 25077, Note_off_c, 6, 56, 0
1, 25078, Note_off_c, 0, 71, 0
1, 25080, Note_on_c, 0, 64, 80
1, 25080, Note_on_c, 1, 59, 80
1, 25080, Note_on_c, 2, 64, 80
1, 25080, Note_on_c, 5, 71, 96
1, 25080, Note_on_c, 6, 56, 96
1, 25090, Note_off_c, 0, 64, 0
1, 25090, Note_off_c, 5, 71, 0
1, 25090, Note_off_c, 6, 56, 0
1, 25092, Note_on_c, 0, 71, 80
1, 25092, Note_on_c, 5, 73, 96
1, 25092, Note_on_c, 6, 57, 96
1, 25101, Note_off_c, 1, 59, 0
1, 25101, Note_off_c, 2, 64, 0
1, 25102, Note_off_c, 0, 71, 0
1, 25102, Note_off_c, 5, 73, 0
1, 25102, Note_off_c, 6, 57, 0
1, 25104, Note_on_c, 0, 68, 80
1, 25104, Note_on_c, 1, 59, 80
1, 25104, Note_on_c, 2, 56, 80
1, 25104, Note_on_c, 3, 59, 80
1, 25104, Note_on_c, 4, 47, 80
1, 25104, Note_on_c, 5, 75, 96
1, 25104, Note_on_c, 6, 59, 96
1, 25110, Note_off_c, 5, 75, 0
1, 25114, Note_off_c, 0, 68, 0
1, 25114, Note_off_c, 3, 59, 0
1, 25114, Note_off_c, 4, 47, 0
1, 25114, Note_off_c, 6, 59, 0
1, 25116, Note_on_c, 0, 71, 80
1, 25116, Note_on_c, 3, 57, 80
1, 25116, Note_on_c, 4, 45, 80
1, 25116, Note_on_c, 6, 57, 96
1, 25125, Note_off_c, 1, 59, 0
1, 25125, Note_off_c, 2, 56, 0
1, 25126, Note_off_c, 0, 71, 0
1, 25126, Note_off_c, 3, 57, 0
1, 25126, Note_off_c, 4, 45, 0
1, 25126, Note_off_c, 6, 57, 0
1, 25128, Note_on_c, 0, 64, 80
1, 25128, Note_on_c, 1, 59, 80
1, 25128, Note_on_c, 2, 56, 80
1, 25128, Note_on_c, 3, 56, 80
1, 25128, Note_on_c, 4, 44, 80
1, 25128, Note_on_c, 5, 76, 96
1, 25128, Note_on_c, 6, 56, 96
1, 25138, Note_off_c, 0, 64, 0
1, 25138, Note_off_c, 3, 56, 0
1, 25138, Note_off_c, 4, 44, 0
1, 25138, Note_off_c, 6, 56, 0
1, 25140, Note_on_c, 0, 71, 80
1, 25140, Note_on_c, 3, 54, 80
1, 25140, Note_on_c, 4, 42, 80
1, 25140, Note_on_c, 6, 54, 96
1, 25149, Note_off_c, 1, 59, 0
1, 25149, Note_off_c, 2, 56, 0
1, 25149, Note_off_c, 5, 76, 0
1, 25150, Note_off_c, 0, 71, 0
1, 25150, Note_off_c, 3, 54, 0
1, 25150, Note_off_c, 4, 42, 0
1, 25150, Note_off_c, 6, 54, 0
1, 25152, Note_on_c, 0, 68, 80
1, 25152, Note_on_c, 3, 52, 80
1, 25152, Note_on_c, 4, 40, 80
1, 25152, Note_on_c, 5, 76, 96
1, 25152, Note_on_c, 6, 52, 96
1, 25162, Note_off_c, 0, 68, 0
1, 25162, Note_off_c, 3, 52, 0
1, 25162, Note_off_c, 4, 40, 0
1, 25162, Note_off_c, 5, 76, 0
1, 25162, Note_off_c, 6, 52, 0
1, 25164, Note_on_c, 0, 71, 80
1, 25164, Note_on_c, 3, 51, 80
1, 25164, Note_on_c, 4, 39, 80
1, 25164, Note_on_c, 5, 78, 96
1, 25164, Note_on_c, 6, 51, 96
1, 25174, Note_off_c, 0, 71, 0
1, 25174, Note_off_c, 3, 51, 0
1, 25174, Note_off_c, 4, 39, 0
1, 25174, Note_off_c, 5, 78, 0
1, 25174, Note_off_c, 6, 51, 0
1, 25176, Note_on_c, 0, 76, 80
1, 25176, Note_on_c, 3, 52, 80
1, 25176, Note_on_c, 4, 40, 80
1, 25176, Note_on_c, 5, 80, 96
1, 25176, Note_on_c, 6, 52, 96
1, 25181, Note_off_c, 5, 80, 0
1, 25182, Note_on_c, 5, 81, 96
1, 25186, Note_off_c, 0, 76, 0
1, 25187, Note_off_c, 5, 81, 0
1, 25188, Note_on_c, 0, 75, 80
1, 25188, Note_on_c, 5, 80, 96
1, 25193, Note_off_c, 5, 80, 0
1, 25194, Note_on_c, 5, 78, 96
1, 25197, Note_off_c, 3, 52, 0
1, 25197, Note_off_c, 4, 40, 0
1, 25197, Note_off_c, 6, 52, 0
1, 25198, Note_off_c, 0, 75, 0
1, 25199, Note_off_c, 5, 78, 0
1, 25200, Note_on_c, 0, 76, 80
1, 25200, Note_on_c, 5, 80, 96
1, 25200, Note_on_c, 6, 47, 96
1, 25210, Note_off_c, 0, 76, 0
1, 25210, Note_off_c, 5, 80, 0
1, 25212, Note_on_c, 0, 80, 80
1, 25212, Note_on_c, 5, 75, 96
1, 25221, Note_off_c, 6, 47, 0
1, 25222, Note_off_c, 0, 80, 0
1, 25222, Note_off_c, 5, 75, 0
1, 25224, Note_on_c, 0, 76, 80
1, 25224, Note_on_c, 5, 76, 96
1, 25224, Note_on_c, 6, 49, 96
1, 25234, Note_off_c, 0, 76, 0
1, 25234, Note_off_c, 5, 76, 0
1, 25236, Note_on_c, 0, 71, 80
1, 25236, Note_on_c, 5, 80, 96
1, 25245, Note_off_c, 6, 49, 0
1, 25246, Note_off_c, 0, 71, 0
1, 25246, Note_off_c, 5, 80, 0
1, 25248, Note_on_c, 0, 68, 80
1, 25248, Note_on_c, 5, 83, 96
1, 25248, Note_on_c, 6, 51, 96
1, 25258, Note_off_c, 0, 68, 0
1, 25258, Note_off_c, 5, 83, 0
1, 25260, Note_on_c, 0, 71, 80
1, 25260, Note_on_c, 5, 78, 96
1, 25269, Note_off_c, 6, 51, 0
1, 25270, Note_off_c, 0, 71, 0
1, 25270, Note_off_c, 5, 78, 0
1, 25272, Note_on_c, 0, 64, 80
1, 25272, Note_on_c, 5, 81, 96
1, 25272, Note_on_c, 6, 52, 96
1, 25282, Note_off_c, 0, 64, 0
1, 25282, Note_off_c, 5, 81, 0
1, 25284, Note_on_c, 0, 71, 80
1, 25284, Note_on_c, 5, 80, 96
1, 25293, Note_off_c, 6, 52, 0
1, 25294, Note_off_c, 0, 71, 0
1, 25294, Note_off_c, 5, 80, 0
1, 25296, Note_on_c, 0, 68, 80
1, 25296, Note_on_c, 5, 78, 96
1, 25296, Note_on_c, 6, 47, 96
1, 25306, Note_off_c, 0, 68, 0
1, 25306, Note_off_c, 5, 78, 0
1, 25308, Note_on_c, 0, 71, 80
1, 25308, Note_on_c, 5, 76, 96
1, 25317, Note_off_c, 6, 47, 0
1, 25318, Note_off_c, 0, 71, 0
1, 25320, Note_on_c, 0, 76, 80
1, 25320, Note_on_c, 6, 44, 96
1, 25329, Note_off_c, 5, 76, 0
1, 25330, Note_off_c, 0, 76, 0
1, 25332, Note_on_c, 0, 71, 80
1, 25332, Note_on_c, 5, 80, 96
1, 25341, Note_off_c, 6, 44, 0
1, 25342, Note_off_c, 0, 71, 0
1, 25342, Note_off_c, 5, 80, 0
1, 25344, Note_on_c, 0, 78, 96
1, 25344, Note_on_c, 1, 75, 96
1, 25344, Note_on_c, 2, 71, 96
1, 25344, Note_on_c, 3, 59, 96
1, 25344, Note_on_c, 4, 47, 96
1, 25344, Note_on_c, 5, 78, 96
1, 25344, Note_on_c, 6, 47, 96
1, 25354, Note_off_c, 0, 78, 0
1, 25354, Note_off_c, 5, 78, 0
1, 25356, Note_on_c, 0, 71, 96
1, 25356, Note_on_c, 5, 81, 96
1, 25365, Note_off_c, 1, 75, 0
1, 25365, Note_off_c, 2, 71, 0
1, 25365, Note_off_c, 3, 59, 0
1, 25365, Note_off_c, 4, 47, 0
1, 25365, Note_off_c, 6, 47, 0
1, 25366, Note_off_c, 0, 71, 0
1, 25366, Note_off_c, 5, 81, 0
1, 25368, Note_on_c, 0, 80, 96
1, 25368, Note_on_c, 1, 76, 96
1, 25368, Note_on_c, 2, 71, 96
1, 25368, Note_on_c, 3, 64, 96
1, 25368, Note_on_c, 4, 52, 96
1, 25368, Note_on_c, 5, 80, 96
1, 25368, Note_on_c, 6, 52, 96
1, 25374, Note_off_c, 5, 80, 0
1, 25389, Note_off_c, 0, 80, 0
1, 25389, Note_off_c, 1, 76, 0
1, 25389, Note_off_c, 2, 71, 0
1, 25389, Note_off_c, 3, 64, 0
1, 25389, Note_off_c, 4, 52, 0
1, 25389, Note_off_c, 6, 52, 0
1, 25392, Note_on_c, 0, 78, 96
1, 25392, Note_on_c, 1, 78, 96
1, 25392, Note_on_c, 2, 71, 96
1, 25392, Note_on_c, 3, 63, 96
1, 25392, Note_on_c, 4, 51, 96
1, 25392, Note_on_c, 5, 78, 96
1, 25392, Note_on_c, 6, 51, 96
1, 25395, Note_off_c, 5, 78, 0
1, 25404, Note_on_c, 5, 80, 96
1, 25410, Note_off_c, 5, 80, 0
1, 25410, Note_on_c, 5, 78, 96
1, 25413, Note_off_c, 0, 78, 0
1, 25413, Note_off_c, 1, 78, 0
1, 25413, Note_off_c, 2, 71, 0
1, 25413, Note_off_c, 3, 63, 0
1, 25413, Note_off_c, 4, 51, 0
1, 25413, Note_off_c, 6, 51, 0
1, 25416, Note_on_c, 0, 81, 96
1, 25416, Note_on_c, 1, 76, 96
1, 25416, Note_on_c, 2, 64, 96
1, 25416, Note_on_c, 3, 61, 96
1, 25416, Note_on_c, 4, 49, 96
1, 25416, Note_off_c, 5, 78, 0
1, 25416, Note_on_c, 5, 80, 96
1, 25416, Note_on_c, 6, 49, 96
1, 25422, Note_off_c, 5, 80, 0
1, 25422, Note_on_c, 5, 81, 96
1, 25426, Note_off_c, 5, 81, 0
1, 25437, Note_off_c, 0, 81, 0
1, 25437, Note_off_c, 1, 76, 0
1, 25437, Note_off_c, 2, 64, 0
1, 25437, Note_off_c, 3, 61, 0
1, 25437, Note_off_c, 4, 49, 0
1, 25437, Note_off_c, 6, 49, 0
1, 25440, Note_on_c, 0, 80, 96
1, 25440, Note_on_c, 1, 76, 96
1, 25440, Note_on_c, 2, 68, 96
1, 25440, Note_on_c, 3, 59, 96
1, 25440, Note_on_c, 4, 47, 96
1, 25440, Note_on_c, 5, 80, 96
1, 25440, Note_on_c, 6, 47, 96
1, 25446, Note_off_c, 5, 80, 0
1, 25461, Note_off_c, 0, 80, 0
1, 25461, Note_off_c, 1, 76, 0
1, 25461, Note_off_c, 2, 68, 0
1, 25461, Note_off_c, 3, 59, 0
1, 25461, Note_off_c, 4, 47, 0
1, 25461, Note_off_c, 6, 47, 0
1, 25464, Note_on_c, 0, 78, 96
1, 25464, Note_on_c, 1, 75, 96
1, 25464, Note_on_c, 2, 71, 96
1, 25464, Note_on_c, 3, 57, 96
1, 25464, Note_on_c, 4, 45, 96
1, 25464, Note_on_c, 5, 78, 96
1, 25464, Note_on_c, 6, 45, 96
1, 25470, Note_off_c, 5, 78, 0
1, 25470, Note_on_c, 5, 80, 96
1, 25476, Note_off_c, 5, 80, 0
1, 25476, Note_on_c, 5, 78, 96
1, 25485, Note_off_c, 0, 78, 0
1, 25485, Note_off_c, 1, 75, 0
1, 25485, Note_off_c, 2, 71, 0
1, 25485, Note_off_c, 3, 57, 0
1, 25485, Note_off_c, 4, 45, 0
1, 25485, Note_off_c, 6, 45, 0
1, 25486, Note_off_c, 5, 78, 0
1, 25488, Note_on_c, 0, 76, 96
1, 25488, Note_on_c, 1, 76, 96
1, 25488, Note_on_c, 2, 59, 96
1, 25488, Note_on_c, 3, 56, 96
1, 25488, Note_on_c, 4, 44, 96
1, 25488, Note_on_c, 5, 76, 96
1, 25488, Note_on_c, 6, 44, 96
1, 25509, Note_off_c, 0, 76, 0
1, 25509, Note_off_c, 1, 76, 0
1, 25509, Note_off_c, 2, 59, 0
1, 25509, Note_off_c, 3, 56, 0
1, 25509, Note_off_c, 4, 44, 0
1, 25509, Note_off_c, 5, 76, 0
1, 25509, Note_off_c, 6, 44, 0
1, 25512, Note_on_c, 0, 83, 96
1, 25512, Note_on_c, 5, 83, 96
1, 25536, Note_on_c, 1, 76, 96
1, 25536, Note_on_c, 2, 71, 96
1, 25536, Note_on_c, 3, 56, 96
1, 25536, Note_on_c, 4, 44, 96
1, 25536, Note_on_c, 6, 56, 96
1, 25546, Note_off_c, 1, 76, 0
1, 25548, Note_on_c, 1, 75, 96
1, 25557, Note_off_c, 2, 71, 0
1, 25557, Note_off_c, 3, 56, 0
1, 25557, Note_off_c, 4, 44, 0
1, 25557, Note_off_c, 6, 56, 0
1, 25558, Note_off_c, 1, 75, 0
1, 25560, Note_on_c, 1, 76, 96
1, 25560, Note_on_c, 2, 68, 96
1, 25560, Note_on_c, 3, 61, 96
1, 25560, Note_on_c, 4, 49, 96
1, 25560, Note_on_c, 6, 61, 96
1, 25564, Note_off_c, 0, 83, 0
1, 25564, Note_off_c, 5, 83, 0
1, 25572, Note_on_c, 0, 76, 96
1, 25572, Note_on_c, 5, 76, 96
1, 25581, Note_off_c, 1, 76, 0
1, 25581, Note_off_c, 2, 68, 0
1, 25581, Note_off_c, 3, 61, 0
1, 25581, Note_off_c, 4, 49, 0
1, 25581, Note_off_c, 6, 61, 0
1, 25582, Note_off_c, 0, 76, 0
1, 25582, Note_off_c, 5, 76, 0
1, 25584, Note_on_c, 0, 75, 96
1, 25584, Note_on_c, 1, 80, 96
1, 25584, Note_on_c, 2, 71, 96
1, 25584, Note_on_c, 3, 59, 96
1, 25584, Note_on_c, 4, 47, 96
1, 25584, Note_on_c, 5, 75, 96
1, 25584, Note_on_c, 6, 59, 96
1, 25594, Note_off_c, 0, 75, 0
1, 25594, Note_off_c, 5, 75, 0
1, 25596, Note_on_c, 0, 76, 96
1, 25596, Note_on_c, 5, 76, 96
1, 25605, Note_off_c, 1, 80, 0
1, 25605, Note_off_c, 2, 71, 0
1, 25605, Note_off_c, 3, 59, 0
1, 25605, Note_off_c, 4, 47, 0
1, 25605, Note_off_c, 6, 59, 0
1, 25606, Note_off_c, 0, 76, 0
1, 25606, Note_off_c, 5, 76, 0
1, 25608, Note_on_c, 0, 78, 96
1, 25608, Note_on_c, 1, 75, 96
1, 25608, Note_on_c, 2, 71, 96
1, 25608, Note_on_c, 3, 57, 96
1, 25608, Note_on_c, 4, 45, 96
1, 25608, Note_on_c, 5, 78, 96
1, 25608, Note_on_c, 6, 57, 96
1, 25618, Note_off_c, 5, 78, 0
1, 25620, Note_on_c, 5, 80, 96
1, 25629, Note_off_c, 0, 78, 0
1, 25629, Note_off_c, 1, 75, 0
1, 25629, Note_off_c, 2, 71, 0
1, 25629, Note_off_c, 3, 57, 0
1, 25629, Note_off_c, 4, 45, 0
1, 25629, Note_off_c, 6, 57, 0
1, 25630, Note_off_c, 5, 80, 0
1, 25632, Note_on_c, 0, 76, 96
1, 25632, Note_on_c, 1, 76, 96
1, 25632, Note_on_c, 2, 59, 96
1, 25632, Note_on_c, 3, 56, 96
1, 25632, Note_on_c, 4, 44, 96
1, 25632, Note_on_c, 5, 81, 96
1, 25632, Note_on_c, 6, 56, 96
1, 25638, Note_off_c, 5, 81, 0
1, 25638, Note_on_c, 5, 80, 96
1, 25643, Note_off_c, 5, 80, 0
1, 25644, Note_on_c, 5, 78, 96
1, 25649, Note_off_c, 5, 78, 0
1, 25650, Note_on_c, 5, 80, 96
1, 25653, Note_off_c, 0, 76, 0
1, 25653, Note_off_c, 1, 76, 0
1, 25653, Note_off_c, 2, 59, 0
1, 25653, Note_off_c, 3, 56, 0
1, 25653, Note_off_c, 4, 44, 0
1, 25653, Note_off_c, 6, 56, 0
1, 25655, Note_off_c, 5, 80, 0
1, 25656, Note_on_c, 0, 75, 96
1, 25656, Note_on_c, 1, 69, 96
1, 25656, Note_on_c, 2, 66, 96
1, 25656, Note_on_c, 3, 54, 96
1, 25656, Note_on_c, 4, 42, 96
1, 25656, Note_on_c, 5, 81, 96
1, 25656, Note_on_c, 6, 54, 96
1, 25666, Note_off_c, 0, 75, 0
1, 25668, Note_on_c, 0, 76, 96
1, 25677, Note_off_c, 1, 69, 0
1, 25677, Note_off_c, 2, 66, 0
1, 25677, Note_off_c, 3, 54, 0
1, 25677, Note_off_c, 4, 42, 0
1, 25677, Note_off_c, 6, 54, 0
1, 25678, Note_off_c, 0, 76, 0
1, 25680, Note_on_c, 0, 78, 96
1, 25680, Note_on_c, 1, 73, 96
1, 25680, Note_on_c, 2, 69, 96
1, 25680, Note_on_c, 3, 52, 96
1, 25680, Note_on_c, 4, 40, 96
1, 25680, Note_on_c, 6, 52, 96
1, 25690, Note_off_c, 0, 78, 0
1, 25692, Note_on_c, 0, 75, 96
1, 25701, Note_off_c, 1, 73, 0
1, 25701, Note_off_c, 2, 69, 0
1, 25701, Note_off_c, 3, 52, 0
1, 25701, Note_off_c, 4, 40, 0
1, 25701, Note_off_c, 6, 52, 0
1, 25702, Note_off_c, 0, 75, 0
1, 25704, Note_on_c, 0, 71, 96
1, 25704, Note_on_c, 1, 66, 96
1, 25704, Note_on_c, 2, 71, 96
1, 25704, Note_on_c, 3, 51, 96
1, 25704, Note_on_c, 4, 39, 96
1, 25704, Note_on_c, 6, 51, 96
1, 25708, Note_off_c, 5, 81, 0
1, 25714, Note_off_c, 0, 71, 0
1, 25716, Note_on_c, 0, 81, 96
1, 25716, Note_on_c, 5, 75, 96
1, 25725, Note_off_c, 1, 66, 0
1, 25725, Note_off_c, 2, 71, 0
1, 25725, Note_off_c, 3, 51, 0
1, 25725, Note_off_c, 4, 39, 0
1, 25725, Note_off_c, 6, 51, 0
1, 25726, Note_off_c, 0, 81, 0
1, 25726, Note_off_c, 5, 75, 0
1, 25728, Note_on_c, 0, 80, 96
1, 25728, Note_on_c, 1, 71, 96
1, 25728, Note_on_c, 2, 63, 96
1, 25728, Note_on_c, 3, 47, 96
1, 25728, Note_on_c, 4, 35, 96
1, 25728, Note_on_c, 5, 76, 96
1, 25728, Note_on_c, 6, 47, 96
1, 25738, Note_off_c, 0, 80, 0
1, 25738, Note_off_c, 5, 76, 0
1, 25740, Note_on_c, 0, 78, 96
1, 25740, Note_on_c, 5, 78, 96
1, 25749, Note_off_c, 1, 71, 0
1, 25749, Note_off_c, 2, 63, 0
1, 25749, Note_off_c, 3, 47, 0
1, 25749, Note_off_c, 4, 35, 0
1, 25749, Note_off_c, 6, 47, 0
1, 25750, Note_off_c, 0, 78, 0
1, 25750, Note_off_c, 5, 78, 0
1, 25752, Note_on_c, 0, 80, 96
1, 25752, Note_on_c, 1, 71, 96
1, 25752, Note_on_c, 2, 64, 96
1, 25752, Note_on_c, 3, 52, 96
1, 25752, Note_on_c, 4, 40, 96
1, 25752, Note_on_c, 5, 71, 96
1, 25752, Note_on_c, 6, 52, 96
1, 25762, Note_off_c, 5, 71, 0
1, 25764, Note_on_c, 5, 80, 96
1, 25773, Note_off_c, 0, 80, 0
1, 25773, Note_off_c, 1, 71, 0
1, 25773, Note_off_c, 2, 64, 0
1, 25773, Note_off_c, 3, 52, 0
1, 25773, Note_off_c, 4, 40, 0
1, 25773, Note_off_c, 6, 52, 0
1, 25776, Note_off_c, 5, 80, 0
1, 25776, Note_on_c, 5, 78, 96
1, 25776, Note_on_c, 6, 59, 96
1, 25788, Note_off_c, 5, 78, 0
1, 25788, Note_on_c, 5, 76, 96
1, 25797, Note_off_c, 6, 59, 0
1, 25798, Note_off_c, 5, 76, 0
1, 25800, Note_on_c, 0, 78, 96
1, 25800, Note_on_c, 1, 71, 96
1, 25800, Note_on_c, 2, 66, 96
1, 25800, Note_on_c, 3, 51, 96
1, 25800, Note_on_c, 4, 39, 96
1, 25800, Note_on_c, 5, 71, 96
1, 25800, Note_on_c, 6, 51, 96
1, 25810, Note_off_c, 5, 71, 0
1, 25812, Note_on_c, 5, 78, 96
1, 25821, Note_off_c, 0, 78, 0
1, 25821, Note_off_c, 1, 71, 0
1, 25821, Note_off_c, 2, 66, 0
1, 25821, Note_off_c, 3, 51, 0
1, 25821, Note_off_c, 4, 39, 0
1, 25821, Note_off_c, 6, 51, 0
1, 25824, Note_off_c, 5, 78, 0
1, 25824, Note_on_c, 5, 76, 96
1, 25824, Note_on_c, 6, 59, 96
1, 25836, Note_off_c, 5, 76, 0
1, 25836, Note_on_c, 5, 75, 96
1, 25845, Note_off_c, 6, 59, 0
1, 25846, Note_off_c, 5, 75, 0
1, 25848, Note_on_c, 0, 76, 96
1, 25848, Note_on_c, 1, 73, 96
1, 25848, Note_on_c, 2, 68, 96
1, 25848, Note_on_c, 3, 49, 96
1, 25848, Note_on_c, 4, 37, 96
1, 25848, Note_on_c, 5, 76, 96
1, 25848, Note_on_c, 6, 49, 96
1, 25858, Note_off_c, 5, 76, 0
1, 25860, Note_on_c, 5, 69, 96
1, 25869, Note_off_c, 0, 76, 0
1, 25869, Note_off_c, 1, 73, 0
1, 25869, Note_off_c, 2, 68, 0
1, 25869, Note_off_c, 3, 49, 0
1, 25869, Note_off_c, 4, 37, 0
1, 25869, Note_off_c, 6, 49, 0
1, 25872, Note_off_c, 5, 69, 0
1, 25872, Note_on_c, 5, 68, 96
1, 25872, Note_on_c, 6, 52, 96
1, 25884, Note_off_c, 5, 68, 0
1, 25884, Note_on_c, 5, 66, 96
1, 25893, Note_off_c, 6, 52, 0
1, 25894, Note_off_c, 5, 66, 0
1, 25896, Note_on_c, 0, 74, 96
1, 25896, Note_on_c, 1, 71, 96
1, 25896, Note_on_c, 2, 64, 96
1, 25896, Note_on_c, 3, 44, 96
1, 25896, Note_on_c, 4, 32, 96
1, 25896, Note_on_c, 5, 64, 96
1, 25896, Note_on_c, 6, 44, 96
1, 25906, Note_off_c, 5, 64, 0
1, 25908, Note_on_c, 5, 74, 96
1, 25917, Note_off_c, 0, 74, 0
1, 25917, Note_off_c, 1, 71, 0
1, 25917, Note_off_c, 2, 64, 0
1, 25917, Note_off_c, 3, 44, 0
1, 25917, Note_off_c, 4, 32, 0
1, 25917, Note_off_c, 6, 44, 0
1, 25920, Note_off_c, 5, 74, 0
1, 25920, Note_on_c, 5, 73, 96
1, 25920, Note_on_c, 6, 52, 96
1, 25932, Note_off_c, 5, 73, 0
1, 25932, Note_on_c, 5, 71, 96
1, 25941, Note_off_c, 6, 52, 0
1, 25942, Note_off_c, 5, 71, 0
1, 25944, Note_on_c, 0, 73, 96
1, 25944, Note_on_c, 1, 69, 96
1, 25944, Note_on_c, 2, 64, 96
1, 25944, Note_on_c, 3, 45, 96
1, 25944, Note_on_c, 4, 33, 96
1, 25944, Note_on_c, 5, 73, 96
1, 25944, Note_on_c, 6, 45, 96
1, 25956, Note_off_c, 5, 73, 0
1, 25956, Note_on_c, 5, 71, 96
1, 25965, Note_off_c, 0, 73, 0
1, 25965, Note_off_c, 1, 69, 0
1, 25965, Note_off_c, 2, 64, 0
1, 25965, Note_off_c, 3, 45, 0
1, 25965, Note_off_c, 4, 33, 0
1, 25965, Note_off_c, 6, 45, 0
1, 25968, Note_off_c, 5, 71, 0
1, 25968, Note_on_c, 5, 69, 96
1, 25968, Note_on_c, 6, 52, 96
1, 25980, Note_off_c, 5, 69, 0
1, 25980, Note_on_c, 5, 68, 96
1, 25989, Note_off_c, 6, 52, 0
1, 25990, Note_off_c, 5, 68, 0
1, 25992, Note_on_c, 0, 75, 96
1, 25992, Note_on_c, 1, 69, 96
1, 25992, Note_on_c, 2, 59, 96
1, 25992, Note_on_c, 3, 47, 96
1, 25992, Note_on_c, 4, 35, 96
1, 25992, Note_on_c, 5, 66, 96
1, 25992, Note_on_c, 6, 47, 96
1, 26002, Note_off_c, 5, 66, 0
1, 26004, Note_on_c, 5, 73, 96
1, 26013, Note_off_c, 0, 75, 0
1, 26013, Note_off_c, 1, 69, 0
1, 26013, Note_off_c, 2, 59, 0
1, 26013, Note_off_c, 3, 47, 0
1, 26013, Note_off_c, 4, 35, 0
1, 26013, Note_off_c, 6, 47, 0
1, 26014, Note_off_c, 5, 73, 0
1, 26016, Note_on_c, 5, 71, 96
1, 26016, Note_on_c, 6, 51, 96
1, 26026, Note_off_c, 5, 71, 0
1, 26028, Note_on_c, 5, 69, 96
1, 26037, Note_off_c, 6, 51, 0
1, 26038, Note_off_c, 5, 69, 0
1, 26040, Note_on_c, 0, 76, 96
1, 26040, Note_on_c, 1, 68, 96
1, 26040, Note_on_c, 2, 59, 96
1, 26040, Note_on_c, 3, 40, 96
1, 26040, Note_on_c, 4, 28, 96
1, 26040, Note_on_c, 5, 68, 96
1, 26040, Note_on_c, 6, 40, 96
1, 26050, Note_off_c, 5, 68, 0
1, 26052, Note_on_c, 5, 69, 96
1, 26061, Note_off_c, 0, 76, 0
1, 26061, Note_off_c, 1, 68, 0
1, 26061, Note_off_c, 2, 59, 0
1, 26061, Note_off_c, 3, 40, 0
1, 26061, Note_off_c, 4, 28, 0
1, 26061, Note_off_c, 6, 40, 0
1, 26062, Note_off_c, 5, 69, 0
1, 26064, Note_on_c, 5, 71, 96
1, 26064, Note_on_c, 6, 52, 96
1, 26074, Note_off_c, 5, 71, 0
1, 26076, Note_on_c, 5, 68, 96
1, 26086, Note_off_c, 5, 68, 0
1, 26088, Note_on_c, 5, 64, 96
1, 26095, Note_off_c, 6, 52, 0
1, 26100, Note_on_c, 6, 54, 96
1, 26109, Note_off_c, 5, 64, 0
1, 26110, Note_off_c, 6, 54, 0
1, 26112, Note_on_c, 5, 76, 96
1, 26112, Note_on_c, 6, 56, 96
1, 26118, Note_off_c, 5, 76, 0
1, 26122, Note_off_c, 6, 56, 0
1, 26124, Note_on_c, 6, 52, 96
1, 26134, Note_off_c, 6, 52, 0
1, 26136, Note_on_c, 5, 76, 96
1, 26136, Note_on_c, 6, 49, 96
1, 26146, Note_off_c, 5, 76, 0
1, 26146, Note_off_c, 6, 49, 0
1, 26148, Note_on_c, 5, 75, 96
1, 26148, Note_on_c, 6, 54, 96
1, 26158, Note_off_c, 5, 75, 0
1, 26158, Note_off_c, 6, 54, 0
1, 26160, Note_on_c, 5, 73, 96
1, 26160, Note_on_c, 6, 52, 96
1, 26166, Note_off_c, 5, 73, 0
1, 26170, Note_off_c, 6, 52, 0
1, 26172, Note_on_c, 6, 51, 96
1, 26182, Note_off_c, 6, 51, 0
1, 26184, Note_on_c, 5, 73, 96
1, 26184, Note_on_c, 6, 52, 96
1, 26194, Note_off_c, 5, 73, 0
1, 26194, Note_off_c, 6, 52, 0
1, 26196, Note_on_c, 5, 71, 96
1, 26196, Note_on_c, 6, 63, 96
1, 26206, Note_off_c, 5, 71, 0
1, 26206, Note_off_c, 6, 63, 0
1, 26208, Note_on_c, 5, 70, 96
1, 26208, Note_on_c, 6, 61, 96
1, 26214, Note_off_c, 5, 70, 0
1, 26218, Note_off_c, 6, 61, 0
1, 26220, Note_on_c, 6, 59, 96
1, 26230, Note_off_c, 6, 59, 0
1, 26232, Note_on_c, 5, 70, 96
1, 26232, Note_on_c, 6, 61, 96
1, 26242, Note_off_c, 5, 70, 0
1, 26244, Note_on_c, 5, 73, 96
1, 26253, Note_off_c, 6, 61, 0
1, 26254, Note_off_c, 5, 73, 0
1, 26256, Note_on_c, 0, 73, 80
1, 26256, Note_on_c, 1, 70, 80
1, 26256, Note_on_c, 2, 66, 80
1, 26256, Note_on_c, 3, 52, 80
1, 26256, Note_on_c, 4, 40, 80
1, 26256, Note_on_c, 5, 78, 96
1, 26256, Note_on_c, 6, 52, 96
1, 26262, Note_off_c, 5, 78, 0
1, 26277, Note_off_c, 0, 73, 0
1, 26277, Note_off_c, 1, 70, 0
1, 26277, Note_off_c, 2, 66, 0
1, 26277, Note_off_c, 3, 52, 0
1, 26277, Note_off_c, 4, 40, 0
1, 26277, Note_off_c, 6, 52, 0
1, 26280, Note_on_c, 0, 73, 80
1, 26280, Note_on_c, 1, 70, 80
1, 26280, Note_on_c, 2, 66, 80
1, 26280, Note_on_c, 3, 52, 80
1, 26280, Note_on_c, 4, 40, 80
1, 26280, Note_on_c, 5, 78, 96
1, 26286, Note_off_c, 5, 78, 0
1, 26286, Note_on_c, 5, 76, 96
1, 26292, Note_off_c, 5, 76, 0
1, 26292, Note_on_c, 5, 78, 96
1, 26301, Note_off_c, 0, 73, 0
1, 26301, Note_off_c, 1, 70, 0
1, 26301, Note_off_c, 2, 66, 0
1, 26301, Note_off_c, 3, 52, 0
1, 26301, Note_off_c, 4, 40, 0
1, 26304, Note_on_c, 0, 70, 80
1, 26304, Note_on_c, 1, 66, 80
1, 26304, Note_on_c, 2, 61, 80
1, 26304, Note_on_c, 3, 52, 80
1, 26304, Note_on_c, 4, 40, 80
1, 26304, Note_on_c, 6, 52, 96
1, 26325, Note_off_c, 0, 70, 0
1, 26325, Note_off_c, 1, 66, 0
1, 26325, Note_off_c, 2, 61, 0
1, 26325, Note_off_c, 3, 52, 0
1, 26325, Note_off_c, 4, 40, 0
1, 26325, Note_off_c, 6, 52, 0
1, 26328, Note_on_c, 0, 71, 80
1, 26328, Note_on_c, 1, 66, 80
1, 26328, Note_on_c, 2, 63, 80
1, 26328, Note_on_c, 3, 51, 80
1, 26328, Note_on_c, 4, 39, 80
1, 26328, Note_on_c, 6, 51, 96
1, 26334, Note_off_c, 5, 78, 0
1, 26338, Note_off_c, 6, 51, 0
1, 26340, Note_on_c, 5, 80, 96
1, 26340, Note_on_c, 6, 47, 96
1, 26350, Note_off_c, 5, 80, 0
1, 26350, Note_off_c, 6, 47, 0
1, 26352, Note_on_c, 5, 78, 96
1, 26352, Note_on_c, 6, 51, 96
1, 26362, Note_off_c, 5, 78, 0
1, 26362, Note_off_c, 6, 51, 0
1, 26364, Note_on_c, 5, 76, 96
1, 26364, Note_on_c, 6, 54, 96
1, 26369, Note_off_c, 5, 76, 0
1, 26370, Note_off_c, 0, 71, 0
1, 26370, Note_off_c, 1, 66, 0
1, 26370, Note_off_c, 2, 63, 0
1, 26370, Note_off_c, 3, 51, 0
1, 26370, Note_off_c, 4, 39, 0
1, 26370, Note_on_c, 5, 75, 96
1, 26374, Note_off_c, 6, 54, 0
1, 26375, Note_off_c, 5, 75, 0
1, 26376, Note_on_c, 5, 75, 96
1, 26376, Note_on_c, 6, 59, 96
1, 26386, Note_off_c, 5, 75, 0
1, 26386, Note_off_c, 6, 59, 0
1, 26388, Note_on_c, 5, 76, 96
1, 26388, Note_on_c, 6, 54, 96
1, 26398, Note_off_c, 5, 76, 0
1, 26398, Note_off_c, 6, 54, 0
1, 26400, Note_on_c, 5, 75, 96
1, 26400, Note_on_c, 6, 59, 96
1, 26410, Note_off_c, 5, 75, 0
1, 26410, Note_off_c, 6, 59, 0
1, 26412, Note_on_c, 5, 73, 96
1, 26412, Note_on_c, 6, 61, 96
1, 26417, Note_off_c, 5, 73, 0
1, 26418, Note_on_c, 5, 71, 96
1, 26422, Note_off_c, 6, 61, 0
1, 26423, Note_off_c, 5, 71, 0
1, 26424, Note_on_c, 5, 71, 96
1, 26424, Note_on_c, 6, 63, 96
1, 26434, Note_off_c, 5, 71, 0
1, 26436, Note_on_c, 5, 75, 96
1, 26445, Note_off_c, 6, 63, 0
1, 26446, Note_off_c, 5, 75, 0
1, 26448, Note_on_c, 0, 75, 80
1, 26448, Note_on_c, 1, 71, 80
1, 26448, Note_on_c, 2, 68, 80
1, 26448, Note_on_c, 3, 54, 80
1, 26448, Note_on_c, 4, 42, 80
1, 26448, Note_on_c, 5, 80, 96
1, 26448, Note_on_c, 6, 54, 96
1, 26454, Note_off_c, 5, 80, 0
1, 26469, Note_off_c, 0, 75, 0
1, 26469, Note_off_c, 1, 71, 0
1, 26469, Note_off_c, 2, 68, 0
1, 26469, Note_off_c, 3, 54, 0
1, 26469, Note_off_c, 4, 42, 0
1, 26469, Note_off_c, 6, 54, 0
1, 26472, Note_on_c, 0, 75, 80
1, 26472, Note_on_c, 1, 71, 80
1, 26472, Note_on_c, 2, 68, 80
1, 26472, Note_on_c, 3, 54, 80
1, 26472, Note_on_c, 4, 42, 80
1, 26472, Note_on_c, 5, 80, 96
1, 26493, Note_off_c, 0, 75, 0
1, 26493, Note_off_c, 1, 71, 0
1, 26493, Note_off_c, 2, 68, 0
1, 26493, Note_off_c, 3, 54, 0
1, 26493, Note_off_c, 4, 42, 0
1, 26496, Note_on_c, 0, 71, 80
1, 26496, Note_on_c, 1, 68, 80
1, 26496, Note_on_c, 2, 63, 80
1, 26496, Note_on_c, 3, 54, 80
1, 26496, Note_on_c, 4, 42, 80
1, 26496, Note_on_c, 6, 54, 96
1, 26517, Note_off_c, 0, 71, 0
1, 26517, Note_off_c, 1, 68, 0
1, 26517, Note_off_c, 2, 63, 0
1, 26517, Note_off_c, 3, 54, 0
1, 26517, Note_off_c, 4, 42, 0
1, 26517, Note_off_c, 6, 54, 0
1, 26519, Note_off_c, 5, 80, 0
1, 26520, Note_on_c, 0, 73, 80
1, 26520, Note_on_c, 1, 68, 80
1, 26520, Note_on_c, 2, 64, 80
1, 26520, Note_on_c, 3, 52, 80
1, 26520, Note_on_c, 4, 40, 80
1, 26520, Note_on_c, 6, 52, 96
1, 26526, Note_on_c, 5, 78, 96
1, 26530, Note_off_c, 6, 52, 0
1, 26531, Note_off_c, 5, 78, 0
1, 26532, Note_on_c, 5, 76, 96
1, 26532, Note_on_c, 6, 56, 96
1, 26537, Note_off_c, 5, 76, 0
1, 26538, Note_on_c, 5, 75, 96
1, 26542, Note_off_c, 6, 56, 0
1, 26543, Note_off_c, 5, 75, 0
1, 26544, Note_on_c, 5, 76, 96
1, 26544, Note_on_c, 6, 58, 96
1, 26554, Note_off_c, 5, 76, 0
1, 26554, Note_off_c, 6, 58, 0
1, 26556, Note_on_c, 5, 76, 96
1, 26556, Note_on_c, 6, 60, 96
1, 26562, Note_off_c, 0, 73, 0
1, 26562, Note_off_c, 1, 68, 0
1, 26562, Note_off_c, 2, 64, 0
1, 26562, Note_off_c, 3, 52, 0
1, 26562, Note_off_c, 4, 40, 0
1, 26566, Note_off_c, 5, 76, 0
1, 26566, Note_off_c, 6, 60, 0
1, 26568, Note_on_c, 5, 76, 96
1, 26568, Note_on_c, 6, 61, 96
1, 26573, Note_off_c, 5, 76, 0
1, 26574, Note_on_c, 5, 75, 96
1, 26578, Note_off_c, 6, 61, 0
1, 26579, Note_off_c, 5, 75, 0
1, 26580, Note_on_c, 5, 73, 96
1, 26580, Note_on_c, 6, 63, 96
1, 26585, Note_off_c, 5, 73, 0
1, 26586, Note_on_c, 5, 72, 96
1, 26590, Note_off_c, 6, 63, 0
1, 26591, Note_off_c, 5, 72, 0
1, 26592, Note_on_c, 5, 73, 96
1, 26592, Note_on_c, 6, 64, 96
1, 26602, Note_off_c, 5, 73, 0
1, 26604, Note_on_c, 5, 73, 96
1, 26613, Note_off_c, 6, 64, 0
1, 26614, Note_off_c, 5, 73, 0
1, 26616, Note_on_c, 5, 73, 96
1, 26616, Note_on_c, 6, 64, 96
1, 26626, Note_off_c, 5, 73, 0
1, 26628, Note_on_c, 5, 76, 96
1, 26637, Note_off_c, 6, 64, 0
1, 26638, Note_off_c, 5, 76, 0
1, 26640, Note_on_c, 0, 76, 80
1, 26640, Note_on_c, 1, 73, 80
1, 26640, Note_on_c, 2, 64, 80
1, 26640, Note_on_c, 3, 49, 80
1, 26640, Note_on_c, 4, 37, 80
1, 26640, Note_on_c, 5, 82, 96
1, 26640, Note_on_c, 6, 61, 96
1, 26661, Note_off_c, 0, 76, 0
1, 26661, Note_off_c, 1, 73, 0
1, 26661, Note_off_c, 2, 64, 0
1, 26661, Note_off_c, 3, 49, 0
1, 26661, Note_off_c, 4, 37, 0
1, 26661, Note_off_c, 6, 61, 0
1, 26664, Note_on_c, 0, 76, 80
1, 26664, Note_on_c, 1, 70, 80
1, 26664, Note_on_c, 2, 61, 80
1, 26664, Note_on_c, 3, 54, 80
1, 26664, Note_on_c, 4, 42, 80
1, 26664, Note_on_c, 6, 66, 96
1, 26671, Note_off_c, 5, 82, 0
1, 26676, Note_on_c, 5, 75, 96
1, 26685, Note_off_c, 0, 76, 0
1, 26685, Note_off_c, 1, 70, 0
1, 26685, Note_off_c, 2, 61, 0
1, 26685, Note_off_c, 3, 54, 0
1, 26685, Note_off_c, 4, 42, 0
1, 26685, Note_off_c, 6, 66, 0
1, 26686, Note_off_c, 5, 75, 0
1, 26688, Note_on_c, 0, 73, 80
1, 26688, Note_on_c, 1, 70, 80
1, 26688, Note_on_c, 2, 66, 80
1, 26688, Note_on_c, 3, 42, 80
1, 26688, Note_on_c, 4, 30, 80
1, 26688, Note_on_c, 5, 76, 96
1, 26688, Note_on_c, 6, 54, 96
1, 26709, Note_off_c, 0, 73, 0
1, 26709, Note_off_c, 1, 70, 0
1, 26709, Note_off_c, 2, 66, 0
1, 26709, Note_off_c, 3, 42, 0
1, 26709, Note_off_c, 4, 30, 0
1, 26709, Note_off_c, 6, 54, 0
1, 26712, Note_on_c, 0, 75, 80
1, 26712, Note_on_c, 1, 71, 80
1, 26712, Note_on_c, 2, 66, 80
1, 26712, Note_on_c, 3, 47, 80
1, 26712, Note_on_c, 4, 35, 80
1, 26712, Note_on_c, 6, 59, 96
1, 26719, Note_off_c, 5, 76, 0
1, 26724, Note_on_c, 5, 75, 96
1, 26729, Note_off_c, 5, 75, 0
1, 26730, Note_on_c, 5, 73, 96
1, 26733, Note_off_c, 3, 47, 0
1, 26733, Note_off_c, 4, 35, 0
1, 26735, Note_off_c, 5, 73, 0
1, 26736, Note_on_c, 5, 75, 96
1, 26743, Note_off_c, 6, 59, 0
1, 26746, Note_off_c, 5, 75, 0
1, 26748, Note_on_c, 5, 78, 96
1, 26748, Note_on_c, 6, 58, 96
1, 26754, Note_off_c, 0, 75, 0
1, 26754, Note_off_c, 1, 71, 0
1, 26754, Note_off_c, 2, 66, 0
1, 26758, Note_off_c, 5, 78, 0
1, 26758, Note_off_c, 6, 58, 0
1, 26760, Note_on_c, 5, 83, 96
1, 26760, Note_on_c, 6, 56, 96
1, 26770, Note_off_c, 5, 83, 0
1, 26770, Note_off_c, 6, 56, 0
1, 26772, Note_on_c, 5, 82, 96
1, 26772, Note_on_c, 6, 54, 96
1, 26782, Note_off_c, 5, 82, 0
1, 26782, Note_off_c, 6, 54, 0
1, 26784, Note_on_c, 5, 83, 96
1, 26784, Note_on_c, 6, 53, 96
1, 26794, Note_off_c, 6, 53, 0
1, 26796, Note_on_c, 6, 51, 96
1, 26806, Note_off_c, 6, 51, 0
1, 26808, Note_on_c, 6, 53, 96
1, 26815, Note_off_c, 5, 83, 0
1, 26820, Note_on_c, 5, 78, 96
1, 26829, Note_off_c, 6, 53, 0
1, 26830, Note_off_c, 5, 78, 0
1, 26832, Note_on_c, 5, 77, 96
1, 26832, Note_on_c, 6, 56, 96
1, 26842, Note_off_c, 5, 77, 0
1, 26844, Note_on_c, 5, 80, 96
1, 26853, Note_off_c, 6, 56, 0
1, 26854, Note_off_c, 5, 80, 0
1, 26856, Note_on_c, 5, 83, 96
1, 26856, Note_on_c, 6, 49, 96
1, 26861, Note_off_c, 5, 83, 0
1, 26862, Note_on_c, 5, 82, 96
1, 26867, Note_off_c, 5, 82, 0
1, 26868, Note_on_c, 5, 80, 96
1, 26877, Note_off_c, 6, 49, 0
1, 26878, Note_off_c, 5, 80, 0
1, 26880, Note_on_c, 5, 82, 96
1, 26880, Note_on_c, 6, 61, 96
1, 26890, Note_off_c, 5, 82, 0
1, 26892, Note_on_c, 5, 83, 96
1, 26901, Note_off_c, 6, 61, 0
1, 26902, Note_off_c, 5, 83, 0
1, 26904, Note_on_c, 5, 82, 96
1, 26904, Note_on_c, 6, 66, 96
1, 26914, Note_off_c, 5, 82, 0
1, 26916, Note_on_c, 5, 83, 96
1, 26925, Note_off_c, 6, 66, 0
1, 26926, Note_off_c, 5, 83, 0
1, 26928, Note_on_c, 5, 85, 96
1, 26928, Note_on_c, 6, 54, 96
1, 26938, Note_off_c, 5, 85, 0
1, 26940, Note_on_c, 5, 82, 96
1, 26949, Note_off_c, 6, 54, 0
1, 26950, Note_off_c, 5, 82, 0
1, 26952, Note_on_c, 5, 76, 96
1, 26952, Note_on_c, 6, 56, 96
1, 26962, Note_off_c, 5, 76, 0
1, 26964, Note_on_c, 5, 80, 96
1, 26973, Note_off_c, 6, 56, 0
1, 26974, Note_off_c, 5, 80, 0
1, 26976, Note_on_c, 5, 78, 96
1, 26976, Note_on_c, 6, 58, 96
1, 26986, Note_off_c, 5, 78, 0
1, 26988, Note_on_c, 5, 76, 96
1, 26997, Note_off_c, 6, 58, 0
1, 26998, Note_off_c, 5, 76, 0
1, 27000, Note_on_c, 5, 76, 96
1, 27000, Note_on_c, 6, 59, 96
1, 27012, Note_off_c, 5, 76, 0
1, 27012, Note_on_c, 5, 75, 96
1, 27021, Note_off_c, 6, 59, 0
1, 27024, Note_on_c, 6, 52, 96
1, 27033, Note_off_c, 5, 75, 0
1, 27036, Note_on_c, 5, 73, 96
1, 27045, Note_off_c, 6, 52, 0
1, 27046, Note_off_c, 5, 73, 0
1, 27048, Note_on_c, 5, 75, 96
1, 27048, Note_on_c, 6, 54, 96
1, 27054, Note_off_c, 5, 75, 0
1, 27054, Note_on_c, 5, 73, 96
1, 27060, Note_off_c, 5, 73, 0
1, 27060, Note_on_c, 5, 75, 96
1, 27066, Note_off_c, 5, 75, 0
1, 27066, Note_on_c, 5, 73, 96
1, 27069, Note_off_c, 6, 54, 0
1, 27072, Note_on_c, 0, 66, 80
1, 27072, Note_off_c, 5, 73, 0
1, 27072, Note_on_c, 5, 75, 96
1, 27072, Note_on_c, 6, 42, 96
1, 27078, Note_off_c, 5, 75, 0
1, 27078, Note_on_c, 5, 73, 96
1, 27083, Note_off_c, 5, 73, 0
1, 27084, Note_on_c, 5, 71, 96
1, 27093, Note_off_c, 0, 66, 0
1, 27093, Note_off_c, 6, 42, 0
1, 27094, Note_off_c, 5, 71, 0
1, 27096, Note_on_c, 0, 71, 80
1, 27096, Note_on_c, 5, 71, 96
1, 27096, Note_on_c, 6, 44, 96
1, 27106, Note_off_c, 0, 71, 0
1, 27108, Note_on_c, 0, 70, 80
1, 27108, Note_off_c, 5, 71, 0
1, 27108, Note_on_c, 5, 73, 96
1, 27118, Note_off_c, 0, 70, 0
1, 27120, Note_on_c, 0, 71, 80
1, 27120, Note_on_c, 1, 71, 80
1, 27120, Note_off_c, 5, 73, 0
1, 27120, Note_on_c, 5, 75, 96
1, 27130, Note_off_c, 0, 71, 0
1, 27130, Note_off_c, 5, 75, 0
1, 27132, Note_on_c, 0, 75, 80
1, 27132, Note_on_c, 5, 75, 96
1, 27138, Note_off_c, 6, 44, 0
1, 27141, Note_off_c, 1, 71, 0
1, 27142, Note_off_c, 0, 75, 0
1, 27142, Note_off_c, 5, 75, 0
1, 27144, Note_on_c, 0, 71, 80
1, 27144, Note_on_c, 1, 71, 80
1, 27144, Note_on_c, 5, 75, 96
1, 27154, Note_off_c, 0, 71, 0
1, 27156, Note_on_c, 0, 66, 80
1, 27156, Note_off_c, 5, 75, 0
1, 27156, Note_on_c, 5, 76, 96
1, 27165, Note_off_c, 1, 71, 0
1, 27166, Note_off_c, 0, 66, 0
1, 27168, Note_on_c, 0, 63, 80
1, 27168, Note_on_c, 1, 66, 80
1, 27168, Note_on_c, 2, 71, 80
1, 27168, Note_off_c, 5, 76, 0
1, 27168, Note_on_c, 5, 78, 96
1, 27168, Note_on_c, 6, 51, 96
1, 27178, Note_off_c, 0, 63, 0
1, 27178, Note_off_c, 5, 78, 0
1, 27180, Note_on_c, 0, 66, 80
1, 27180, Note_on_c, 5, 78, 96
1, 27189, Note_off_c, 1, 66, 0
1, 27189, Note_off_c, 2, 71, 0
1, 27189, Note_off_c, 6, 51, 0
1, 27190, Note_off_c, 0, 66, 0
1, 27190, Note_off_c, 5, 78, 0
1, 27192, Note_on_c, 0, 59, 80
1, 27192, Note_on_c, 1, 66, 80
1, 27192, Note_on_c, 2, 71, 80
1, 27192, Note_on_c, 5, 78, 96
1, 27192, Note_on_c, 6, 39, 96
1, 27202, Note_off_c, 0, 59, 0
1, 27204, Note_on_c, 0, 66, 80
1, 27204, Note_off_c, 5, 78, 0
1, 27204, Note_on_c, 5, 80, 96
1, 27210, Note_off_c, 5, 80, 0
1, 27210, Note_on_c, 5, 82, 96
1, 27213, Note_off_c, 1, 66, 0
1, 27213, Note_off_c, 2, 71, 0
1, 27214, Note_off_c, 0, 66, 0
1, 27216, Note_on_c, 0, 63, 80
1, 27216, Note_on_c, 1, 71, 80
1, 27216, Note_on_c, 2, 66, 80
1, 27216, Note_off_c, 5, 82, 0
1, 27216, Note_on_c, 5, 80, 96
1, 27226, Note_off_c, 0, 63, 0
1, 27228, Note_on_c, 0, 66, 80
1, 27228, Note_off_c, 5, 80, 0
1, 27228, Note_on_c, 5, 78, 96
1, 27234, Note_off_c, 6, 39, 0
1, 27237, Note_off_c, 1, 71, 0
1, 27237, Note_off_c, 2, 66, 0
1, 27238, Note_off_c, 0, 66, 0
1, 27238, Note_off_c, 5, 78, 0
1, 27240, Note_on_c, 0, 59, 80
1, 27240, Note_on_c, 1, 71, 80
1, 27240, Note_on_c, 2, 66, 80
1, 27240, Note_on_c, 5, 83, 96
1, 27245, Note_off_c, 5, 83, 0
1, 27246, Note_on_c, 5, 78, 96
1, 27250, Note_off_c, 0, 59, 0
1, 27251, Note_off_c, 5, 78, 0
1, 27252, Note_on_c, 0, 66, 80
1, 27252, Note_on_c, 5, 80, 96
1, 27252, Note_on_c, 6, 63, 96
1, 27257, Note_off_c, 5, 80, 0
1, 27258, Note_on_c, 5, 81, 96
1, 27261, Note_off_c, 1, 71, 0
1, 27261, Note_off_c, 2, 66, 0
1, 27262, Note_off_c, 0, 66, 0
1, 27262, Note_off_c, 6, 63, 0
1, 27263, Note_off_c, 5, 81, 0
1, 27264, Note_on_c, 0, 63, 80
1, 27264, Note_on_c, 1, 59, 80
1, 27264, Note_on_c, 2, 71, 80
1, 27264, Note_on_c, 5, 80, 96
1, 27264, Note_on_c, 6, 59, 96
1, 27274, Note_off_c, 0, 63, 0
1, 27274, Note_off_c, 5, 80, 0
1, 27274, Note_off_c, 6, 59, 0
1, 27276, Note_on_c, 0, 66, 80
1, 27276, Note_on_c, 5, 78, 96
1, 27276, Note_on_c, 6, 63, 96
1, 27285, Note_off_c, 1, 59, 0
1, 27285, Note_off_c, 2, 71, 0
1, 27286, Note_off_c, 0, 66, 0
1, 27286, Note_off_c, 5, 78, 0
1, 27286, Note_off_c, 6, 63, 0
1, 27288, Note_on_c, 0, 71, 80
1, 27288, Note_on_c, 1, 59, 80
1, 27288, Note_on_c, 2, 64, 80
1, 27288, Note_on_c, 5, 78, 96
1, 27288, Note_on_c, 6, 64, 96
1, 27298, Note_off_c, 0, 71, 0
1, 27300, Note_on_c, 0, 70, 80
1, 27300, Note_off_c, 5, 78, 0
1, 27300, Note_on_c, 5, 80, 96
1, 27309, Note_off_c, 1, 59, 0
1, 27309, Note_off_c, 2, 64, 0
1, 27309, Note_off_c, 6, 64, 0
1, 27310, Note_off_c, 0, 70, 0
1, 27312, Note_on_c, 0, 71, 80
1, 27312, Note_on_c, 6, 52, 96
1, 27321, Note_off_c, 5, 80, 0
1, 27322, Note_off_c, 0, 71, 0
1, 27322, Note_off_c, 6, 52, 0
1, 27324, Note_on_c, 0, 75, 80
1, 27324, Note_on_c, 5, 78, 96
1, 27324, Note_on_c, 6, 54, 96
1, 27334, Note_off_c, 0, 75, 0
1, 27334, Note_off_c, 5, 78, 0
1, 27334, Note_off_c, 6, 54, 0
1, 27336, Note_on_c, 0, 71, 80
1, 27336, Note_on_c, 5, 76, 96
1, 27336, Note_on_c, 6, 56, 96
1, 27346, Note_off_c, 0, 71, 0
1, 27346, Note_off_c, 5, 76, 0
1, 27348, Note_on_c, 0, 66, 80
1, 27348, Note_on_c, 5, 75, 96
1, 27358, Note_off_c, 0, 66, 0
1, 27358, Note_off_c, 5, 75, 0
1, 27360, Note_on_c, 0, 63, 80
1, 27360, Note_on_c, 5, 73, 96
1, 27370, Note_off_c, 0, 63, 0
1, 27370, Note_off_c, 5, 73, 0
1, 27372, Note_on_c, 0, 66, 80
1, 27372, Note_on_c, 5, 71, 96
1, 27382, Note_off_c, 0, 66, 0
1, 27382, Note_off_c, 5, 71, 0
1, 27384, Note_on_c, 0, 59, 80
1, 27384, Note_on_c, 5, 76, 96
1, 27388, Note_off_c, 6, 56, 0
1, 27389, Note_off_c, 5, 76, 0
1, 27390, Note_on_c, 5, 78, 96
1, 27395, Note_off_c, 5, 78, 0
1, 27396, Note_on_c, 5, 76, 96
1, 27396, Note_on_c, 6, 54, 96
1, 27401, Note_off_c, 5, 76, 0
1, 27402, Note_on_c, 5, 75, 96
1, 27405, Note_off_c, 0, 59, 0
1, 27406, Note_off_c, 6, 54, 0
1, 27407, Note_off_c, 5, 75, 0
1, 27408, Note_on_c, 5, 76, 96
1, 27408, Note_on_c, 6, 56, 96
1, 27418, Note_off_c, 5, 76, 0
1, 27418, Note_off_c, 6, 56, 0
1, 27420, Note_on_c, 5, 73, 96
1, 27420, Note_on_c, 6, 52, 96
1, 27430, Note_off_c, 5, 73, 0
1, 27430, Note_off_c, 6, 52, 0
1, 27432, Note_on_c, 5, 71, 96
1, 27432, Note_on_c, 6, 54, 96
1, 27453, Note_off_c, 5, 71, 0
1, 27453, Note_off_c, 6, 54, 0
1, 27456, Note_on_c, 0, 73, 96
1, 27456, Note_on_c, 1, 70, 96
1, 27456, Note_on_c, 2, 66, 96
1, 27456, Note_on_c, 3, 54, 96
1, 27456, Note_on_c, 4, 42, 96
1, 27456, Note_on_c, 5, 70, 96
1, 27456, Note_on_c, 6, 42, 96
1, 27472, Note_off_c, 5, 70, 0
1, 27474, Note_on_c, 5, 71, 96
1, 27477, Note_off_c, 0, 73, 0
1, 27477, Note_off_c, 1, 70, 0
1, 27477, Note_off_c, 2, 66, 0
1, 27477, Note_off_c, 3, 54, 0
1, 27477, Note_off_c, 4, 42, 0
1, 27477, Note_off_c, 6, 42, 0
1, 27479, Note_off_c, 5, 71, 0
1, 27480, Note_on_c, 0, 75, 96
1, 27480, Note_on_c, 1, 71, 96
1, 27480, Note_on_c, 2, 66, 96
1, 27480, Note_on_c, 3, 59, 96
1, 27480, Note_on_c, 4, 47, 96
1, 27480, Note_on_c, 5, 71, 96
1, 27480, Note_on_c, 6, 47, 96
1, 27490, Note_off_c, 5, 71, 0
1, 27492, Note_on_c, 5, 75, 96
1, 27501, Note_off_c, 0, 75, 0
1, 27501, Note_off_c, 1, 71, 0
1, 27501, Note_off_c, 2, 66, 0
1, 27501, Note_off_c, 3, 59, 0
1, 27501, Note_off_c, 4, 47, 0
1, 27501, Note_off_c, 6, 47, 0
1, 27502, Note_off_c, 5, 75, 0
1, 27504, Note_on_c, 0, 73, 96
1, 27504, Note_on_c, 1, 73, 96
1, 27504, Note_on_c, 2, 66, 96
1, 27504, Note_on_c, 3, 58, 96
1, 27504, Note_on_c, 4, 46, 96
1, 27504, Note_on_c, 5, 73, 96
1, 27504, Note_on_c, 6, 46, 96
1, 27516, Note_off_c, 5, 73, 0
1, 27516, Note_on_c, 5, 75, 96
1, 27522, Note_off_c, 5, 75, 0
1, 27522, Note_on_c, 5, 73, 96
1, 27525, Note_off_c, 0, 73, 0
1, 27525, Note_off_c, 1, 73, 0
1, 27525, Note_off_c, 2, 66, 0
1, 27525, Note_off_c, 3, 58, 0
1, 27525, Note_off_c, 4, 46, 0
1, 27525, Note_off_c, 6, 46, 0
1, 27528, Note_on_c, 0, 76, 96
1, 27528, Note_on_c, 1, 71, 96
1, 27528, Note_on_c, 2, 59, 96
1, 27528, Note_on_c, 3, 56, 96
1, 27528, Note_on_c, 4, 44, 96
1, 27528, Note_off_c, 5, 73, 0
1, 27528, Note_on_c, 5, 75, 96
1, 27528, Note_on_c, 6, 44, 96
1, 27534, Note_off_c, 5, 75, 0
1, 27534, Note_on_c, 5, 76, 96
1, 27549, Note_off_c, 0, 76, 0
1, 27549, Note_off_c, 1, 71, 0
1, 27549, Note_off_c, 2, 59, 0
1, 27549, Note_off_c, 3, 56, 0
1, 27549, Note_off_c, 4, 44, 0
1, 27549, Note_off_c, 6, 44, 0
1, 27550, Note_off_c, 5, 76, 0
1, 27552, Note_on_c, 0, 75, 96
1, 27552, Note_on_c, 1, 71, 96
1, 27552, Note_on_c, 2, 63, 96
1, 27552, Note_on_c, 3, 54, 96
1, 27552, Note_on_c, 4, 42, 96
1, 27552, Note_on_c, 5, 75, 96
1, 27552, Note_on_c, 6, 42, 96
1, 27573, Note_off_c, 0, 75, 0
1, 27573, Note_off_c, 1, 71, 0
1, 27573, Note_off_c, 2, 63, 0
1, 27573, Note_off_c, 3, 54, 0
1, 27573, Note_off_c, 4, 42, 0
1, 27573, Note_off_c, 5, 75, 0
1, 27573, Note_off_c, 6, 42, 0
1, 27576, Note_on_c, 0, 73, 96
1, 27576, Note_on_c, 1, 70, 96
1, 27576, Note_on_c, 2, 66, 96
1, 27576, Note_on_c, 3, 52, 96
1, 27576, Note_on_c, 4, 40, 96
1, 27576, Note_on_c, 5, 73, 96
1, 27576, Note_on_c, 6, 40, 96
1, 27597, Note_off_c, 0, 73, 0
1, 27597, Note_off_c, 1, 70, 0
1, 27597, Note_off_c, 2, 66, 0
1, 27597, Note_off_c, 3, 52, 0
1, 27597, Note_off_c, 4, 40, 0
1, 27597, Note_off_c, 5, 73, 0
1, 27597, Note_off_c, 6, 40, 0
1, 27600, Note_on_c, 0, 71, 96
1, 27600, Note_on_c, 1, 71, 96
1, 27600, Note_on_c, 2, 54, 96
1, 27600, Note_on_c, 3, 51, 96
1, 27600, Note_on_c, 4, 39, 96
1, 27600, Note_on_c, 5, 71, 96
1, 27600, Note_on_c, 6, 39, 96
1, 27621, Note_off_c, 0, 71, 0
1, 27621, Note_off_c, 1, 71, 0
1, 27621, Note_off_c, 2, 54, 0
1, 27621, Note_off_c, 3, 51, 0
1, 27621, Note_off_c, 4, 39, 0
1, 27621, Note_off_c, 5, 71, 0
1, 27621, Note_off_c, 6, 39, 0
1, 27624, Note_on_c, 0, 78, 96
1, 27624, Note_on_c, 5, 78, 96
1, 27648, Note_on_c, 1, 71, 96
1, 27648, Note_on_c, 2, 66, 96
1, 27648, Note_on_c, 3, 51, 96
1, 27648, Note_on_c, 4, 39, 96
1, 27648, Note_on_c, 6, 51, 96
1, 27658, Note_off_c, 1, 71, 0
1, 27660, Note_on_c, 1, 70, 96
1, 27669, Note_off_c, 2, 66, 0
1, 27669, Note_off_c, 3, 51, 0
1, 27669, Note_off_c, 4, 39, 0
1, 27669, Note_off_c, 6, 51, 0
1, 27670, Note_off_c, 1, 70, 0
1, 27672, Note_on_c, 1, 71, 96
1, 27672, Note_on_c, 2, 63, 96
1, 27672, Note_on_c, 3, 56, 96
1, 27672, Note_on_c, 4, 44, 96
1, 27672, Note_on_c, 6, 56, 96
1, 27676, Note_off_c, 0, 78, 0
1, 27676, Note_off_c, 5, 78, 0
1, 27684, Note_on_c, 0, 71, 96
1, 27684, Note_on_c, 5, 71, 96
1, 27693, Note_off_c, 1, 71, 0
1, 27693, Note_off_c, 2, 63, 0
1, 27693, Note_off_c, 3, 56, 0
1, 27693, Note_off_c, 4, 44, 0
1, 27693, Note_off_c, 6, 56, 0
1, 27694, Note_off_c, 0, 71, 0
1, 27694, Note_off_c, 5, 71, 0
1, 27696, Note_on_c, 0, 70, 96
1, 27696, Note_on_c, 1, 75, 96
1, 27696, Note_on_c, 2, 66, 96
1, 27696, Note_on_c, 3, 54, 96
1, 27696, Note_on_c, 4, 42, 96
1, 27696, Note_on_c, 5, 70, 96
1, 27696, Note_on_c, 6, 54, 96
1, 27706, Note_off_c, 0, 70, 0
1, 27706, Note_off_c, 5, 70, 0
1, 27708, Note_on_c, 0, 71, 96
1, 27708, Note_on_c, 5, 71, 96
1, 27717, Note_off_c, 1, 75, 0
1, 27717, Note_off_c, 2, 66, 0
1, 27717, Note_off_c, 3, 54, 0
1, 27717, Note_off_c, 4, 42, 0
1, 27717, Note_off_c, 6, 54, 0
1, 27718, Note_off_c, 0, 71, 0
1, 27718, Note_off_c, 5, 71, 0
1, 27720, Note_on_c, 0, 73, 96
1, 27720, Note_on_c, 1, 70, 96
1, 27720, Note_on_c, 2, 66, 96
1, 27720, Note_on_c, 3, 52, 96
1, 27720, Note_on_c, 4, 40, 96
1, 27720, Note_on_c, 5, 73, 96
1, 27720, Note_on_c, 6, 52, 96
1, 27741, Note_off_c, 0, 73, 0
1, 27741, Note_off_c, 1, 70, 0
1, 27741, Note_off_c, 2, 66, 0
1, 27741, Note_off_c, 3, 52, 0
1, 27741, Note_off_c, 4, 40, 0
1, 27741, Note_off_c, 5, 73, 0
1, 27741, Note_off_c, 6, 52, 0
1, 27744, Note_on_c, 0, 71, 96
1, 27744, Note_on_c, 1, 71, 96
1, 27744, Note_on_c, 2, 54, 96
1, 27744, Note_on_c, 3, 51, 96
1, 27744, Note_on_c, 4, 39, 96
1, 27744, Note_on_c, 5, 71, 96
1, 27744, Note_on_c, 6, 51, 96
1, 27765, Note_off_c, 0, 71, 0
1, 27765, Note_off_c, 1, 71, 0
1, 27765, Note_off_c, 2, 54, 0
1, 27765, Note_off_c, 3, 51, 0
1, 27765, Note_off_c, 4, 39, 0
1, 27765, Note_off_c, 5, 71, 0
1, 27765, Note_off_c, 6, 51, 0
1, 27768, Note_on_c, 0, 70, 96
1, 27768, Note_on_c, 1, 64, 96
1, 27768, Note_on_c, 2, 61, 96
1, 27768, Note_on_c, 3, 49, 96
1, 27768, Note_on_c, 4, 37, 96
1, 27768, Note_on_c, 5, 70, 96
1, 27768, Note_on_c, 6, 49, 96
1, 27778, Note_off_c, 0, 70, 0
1, 27778, Note_off_c, 5, 70, 0
1, 27780, Note_on_c, 0, 71, 96
1, 27780, Note_on_c, 5, 71, 96
1, 27789, Note_off_c, 1, 64, 0
1, 27789, Note_off_c, 2, 61, 0
1, 27789, Note_off_c, 3, 49, 0
1, 27789, Note_off_c, 4, 37, 0
1, 27789, Note_off_c, 6, 49, 0
1, 27790, Note_off_c, 0, 71, 0
1, 27790, Note_off_c, 5, 71, 0
1, 27792, Note_on_c, 0, 73, 96
1, 27792, Note_on_c, 1, 68, 96
1, 27792, Note_on_c, 2, 64, 96
1, 27792, Note_on_c, 3, 47, 96
1, 27792, Note_on_c, 4, 35, 96
1, 27792, Note_on_c, 5, 73, 96
1, 27792, Note_on_c, 6, 47, 96
1, 27802, Note_off_c, 0, 73, 0
1, 27802, Note_off_c, 5, 73, 0
1, 27804, Note_on_c, 0, 70, 96
1, 27804, Note_on_c, 5, 70, 96
1, 27813, Note_off_c, 1, 68, 0
1, 27813, Note_off_c, 2, 64, 0
1, 27813, Note_off_c, 3, 47, 0
1, 27813, Note_off_c, 4, 35, 0
1, 27813, Note_off_c, 6, 47, 0
1, 27814, Note_off_c, 0, 70, 0
1, 27814, Note_off_c, 5, 70, 0
1, 27816, Note_on_c, 0, 66, 96
1, 27816, Note_on_c, 1, 61, 96
1, 27816, Note_on_c, 2, 66, 96
1, 27816, Note_on_c, 3, 46, 96
1, 27816, Note_on_c, 4, 34, 96
1, 27816, Note_on_c, 5, 66, 96
1, 27816, Note_on_c, 6, 46, 96
1, 27826, Note_off_c, 0, 66, 0
1, 27826, Note_off_c, 5, 66, 0
1, 27828, Note_on_c, 0, 76, 96
1, 27828, Note_on_c, 5, 76, 96
1, 27837, Note_off_c, 1, 61, 0
1, 27837, Note_off_c, 2, 66, 0
1, 27837, Note_off_c, 3, 46, 0
1, 27837, Note_off_c, 4, 34, 0
1, 27837, Note_off_c, 6, 46, 0
1, 27840, Note_off_c, 0, 76, 0
1, 27840, Note_on_c, 0, 75, 96
1, 27840, Note_on_c, 1, 70, 96
1, 27840, Note_on_c, 2, 66, 96
1, 27840, Note_on_c, 3, 42, 96
1, 27840, Note_on_c, 4, 30, 96
1, 27840, Note_off_c, 5, 76, 0
1, 27840, Note_on_c, 5, 75, 96
1, 27840, Note_on_c, 6, 42, 96
1, 27852, Note_off_c, 0, 75, 0
1, 27852, Note_on_c, 0, 73, 96
1, 27852, Note_off_c, 5, 75, 0
1, 27852, Note_on_c, 5, 73, 96
1, 27861, Note_off_c, 1, 70, 0
1, 27861, Note_off_c, 2, 66, 0
1, 27861, Note_off_c, 3, 42, 0
1, 27861, Note_off_c, 4, 30, 0
1, 27861, Note_off_c, 6, 42, 0
1, 27862, Note_off_c, 0, 73, 0
1, 27862, Note_off_c, 5, 73, 0
1, 27864, Note_on_c, 0, 66, 96
1, 27864, Note_on_c, 1, 71, 96
1, 27864, Note_on_c, 2, 66, 96
1, 27864, Note_on_c, 3, 47, 96
1, 27864, Note_on_c, 4, 35, 96
1, 27864, Note_on_c, 5, 66, 96
1, 27864, Note_on_c, 6, 47, 96
1, 27874, Note_off_c, 0, 66, 0
1, 27874, Note_off_c, 5, 66, 0
1, 27876, Note_on_c, 0, 75, 96
1, 27876, Note_on_c, 5, 75, 96
1, 27885, Note_off_c, 1, 71, 0
1, 27885, Note_off_c, 2, 66, 0
1, 27885, Note_off_c, 3, 47, 0
1, 27885, Note_off_c, 4, 35, 0
1, 27885, Note_off_c, 6, 47, 0
1, 27888, Note_off_c, 0, 75, 0
1, 27888, Note_on_c, 0, 73, 96
1, 27888, Note_off_c, 5, 75, 0
1, 27888, Note_on_c, 5, 73, 96
1, 27900, Note_off_c, 0, 73, 0
1, 27900, Note_on_c, 0, 71, 96
1, 27900, Note_off_c, 5, 73, 0
1, 27900, Note_on_c, 5, 71, 96
1, 27910, Note_off_c, 0, 71, 0
1, 27910, Note_off_c, 5, 71, 0
1, 27912, Note_on_c, 0, 66, 96
1, 27912, Note_on_c, 1, 61, 96
1, 27912, Note_on_c, 2, 66, 96
1, 27912, Note_on_c, 3, 46, 96
1, 27912, Note_on_c, 4, 34, 96
1, 27912, Note_on_c, 5, 66, 96
1, 27912, Note_on_c, 6, 46, 96
1, 27922, Note_off_c, 0, 66, 0
1, 27922, Note_off_c, 5, 66, 0
1, 27924, Note_on_c, 0, 73, 96
1, 27924, Note_on_c, 5, 73, 96
1, 27933, Note_off_c, 1, 61, 0
1, 27933, Note_off_c, 2, 66, 0
1, 27933, Note_off_c, 3, 46, 0
1, 27933, Note_off_c, 4, 34, 0
1, 27933, Note_off_c, 6, 46, 0
1, 27936, Note_off_c, 0, 73, 0
1, 27936, Note_on_c, 0, 71, 96
1, 27936, Note_off_c, 5, 73, 0
1, 27936, Note_on_c, 5, 71, 96
1, 27948, Note_off_c, 0, 71, 0
1, 27948, Note_on_c, 0, 70, 96
1, 27948, Note_off_c, 5, 71, 0
1, 27948, Note_on_c, 5, 70, 96
1, 27958, Note_off_c, 0, 70, 0
1, 27958, Note_off_c, 5, 70, 0
1, 27960, Note_on_c, 0, 71, 96
1, 27960, Note_on_c, 1, 63, 96
1, 27960, Note_on_c, 2, 68, 96
1, 27960, Note_on_c, 3, 44, 96
1, 27960, Note_on_c, 4, 32, 96
1, 27960, Note_on_c, 5, 71, 96
1, 27960, Note_on_c, 6, 44, 96
1, 27970, Note_off_c, 0, 71, 0
1, 27970, Note_off_c, 5, 71, 0
1, 27972, Note_on_c, 0, 64, 96
1, 27972, Note_on_c, 5, 64, 96
1, 27981, Note_off_c, 1, 63, 0
1, 27981, Note_off_c, 2, 68, 0
1, 27981, Note_off_c, 3, 44, 0
1, 27981, Note_off_c, 4, 32, 0
1, 27981, Note_off_c, 6, 44, 0
1, 27984, Note_off_c, 0, 64, 0
1, 27984, Note_on_c, 0, 63, 96
1, 27984, Note_off_c, 5, 64, 0
1, 27984, Note_on_c, 5, 63, 96
1, 27996, Note_off_c, 0, 63, 0
1, 27996, Note_on_c, 0, 61, 96
1, 27996, Note_off_c, 5, 63, 0
1, 27996, Note_on_c, 5, 61, 96
1, 28006, Note_off_c, 0, 61, 0
1, 28006, Note_off_c, 5, 61, 0
1, 28008, Note_on_c, 0, 59, 96
1, 28008, Note_on_c, 1, 66, 96
1, 28008, Note_on_c, 2, 59, 96
1, 28008, Note_on_c, 3, 39, 96
1, 28008, Note_on_c, 4, 27, 96
1, 28008, Note_on_c, 5, 59, 96
1, 28008, Note_on_c, 6, 39, 96
1, 28018, Note_off_c, 0, 59, 0
1, 28018, Note_off_c, 5, 59, 0
1, 28020, Note_on_c, 0, 69, 96
1, 28020, Note_on_c, 5, 69, 96
1, 28029, Note_off_c, 1, 66, 0
1, 28029, Note_off_c, 2, 59, 0
1, 28029, Note_off_c, 3, 39, 0
1, 28029, Note_off_c, 4, 27, 0
1, 28029, Note_off_c, 6, 39, 0
1, 28032, Note_off_c, 0, 69, 0
1, 28032, Note_on_c, 0, 68, 96
1, 28032, Note_on_c, 1, 63, 96
1, 28032, Note_on_c, 2, 59, 96
1, 28032, Note_on_c, 3, 47, 96
1, 28032, Note_on_c, 4, 35, 96
1, 28032, Note_off_c, 5, 69, 0
1, 28032, Note_on_c, 5, 68, 96
1, 28032, Note_on_c, 6, 47, 96
1, 28044, Note_off_c, 0, 68, 0
1, 28044, Note_on_c, 0, 66, 96
1, 28044, Note_off_c, 5, 68, 0
1, 28044, Note_on_c, 5, 66, 96
1, 28053, Note_off_c, 1, 63, 0
1, 28053, Note_off_c, 3, 47, 0
1, 28053, Note_off_c, 4, 35, 0
1, 28053, Note_off_c, 6, 47, 0
1, 28054, Note_off_c, 0, 66, 0
1, 28054, Note_off_c, 5, 66, 0
1, 28056, Note_on_c, 0, 68, 96
1, 28056, Note_on_c, 1, 64, 96
1, 28056, Note_on_c, 3, 40, 96
1, 28056, Note_on_c, 4, 28, 96
1, 28056, Note_on_c, 5, 68, 96
1, 28056, Note_on_c, 6, 40, 96
1, 28063, Note_off_c, 2, 59, 0
1, 28066, Note_off_c, 0, 68, 0
1, 28066, Note_off_c, 5, 68, 0
1, 28068, Note_on_c, 0, 66, 96
1, 28068, Note_on_c, 2, 57, 96
1, 28068, Note_on_c, 5, 66, 96
1, 28077, Note_off_c, 1, 64, 0
1, 28077, Note_off_c, 3, 40, 0
1, 28077, Note_off_c, 4, 28, 0
1, 28077, Note_off_c, 6, 40, 0
1, 28078, Note_off_c, 0, 66, 0
1, 28078, Note_off_c, 2, 57, 0
1, 28078, Note_off_c, 5, 66, 0
1, 28080, Note_on_c, 0, 64, 96
1, 28080, Note_on_c, 1, 59, 96
1, 28080, Note_on_c, 2, 56, 96
1, 28080, Note_on_c, 3, 44, 96
1, 28080, Note_on_c, 4, 32, 96
1, 28080, Note_on_c, 5, 64, 96
1, 28080, Note_on_c, 6, 44, 96
1, 28090, Note_off_c, 0, 64, 0
1, 28090, Note_off_c, 2, 56, 0
1, 28090, Note_off_c, 5, 64, 0
1, 28092, Note_on_c, 0, 63, 96
1, 28092, Note_on_c, 2, 54, 96
1, 28092, Note_on_c, 5, 63, 96
1, 28101, Note_off_c, 1, 59, 0
1, 28101, Note_off_c, 3, 44, 0
1, 28101, Note_off_c, 4, 32, 0
1, 28101, Note_off_c, 6, 44, 0
1, 28102, Note_off_c, 0, 63, 0
1, 28102, Note_off_c, 2, 54, 0
1, 28102, Note_off_c, 5, 63, 0
1, 28104, Note_on_c, 0, 61, 96
1, 28104, Note_on_c, 1, 68, 96
1, 28104, Note_on_c, 2, 52, 96
1, 28104, Note_on_c, 3, 49, 96
1, 28104, Note_on_c, 4, 37, 96
1, 28104, Note_on_c, 5, 61, 96
1, 28104, Note_on_c, 6, 49, 96
1, 28114, Note_off_c, 0, 61, 0
1, 28114, Note_off_c, 1, 68, 0
1, 28114, Note_off_c, 5, 61, 0
1, 28116, Note_on_c, 0, 75, 96
1, 28116, Note_on_c, 1, 66, 96
1, 28116, Note_on_c, 5, 75, 96
1, 28125, Note_off_c, 2, 52, 0
1, 28125, Note_off_c, 3, 49, 0
1, 28125, Note_off_c, 4, 37, 0
1, 28125, Note_off_c, 6, 49, 0
1, 28126, Note_off_c, 0, 75, 0
1, 28126, Note_off_c, 1, 66, 0
1, 28126, Note_off_c, 5, 75, 0
1, 28128, Note_on_c, 0, 73, 96
1, 28128, Note_on_c, 1, 64, 96
1, 28128, Note_on_c, 2, 61, 96
1, 28128, Note_on_c, 3, 52, 96
1, 28128, Note_on_c, 4, 40, 96
1, 28128, Note_on_c, 5, 73, 96
1, 28128, Note_on_c, 6, 52, 96
1, 28138, Note_off_c, 0, 73, 0
1, 28138, Note_off_c, 1, 64, 0
1, 28138, Note_off_c, 5, 73, 0
1, 28140, Note_on_c, 0, 71, 96
1, 28140, Note_on_c, 1, 63, 96
1, 28140, Note_on_c, 5, 71, 96
1, 28149, Note_off_c, 3, 52, 0
1, 28149, Note_off_c, 4, 40, 0
1, 28149, Note_off_c, 6, 52, 0
1, 28150, Note_off_c, 0, 71, 0
1, 28150, Note_off_c, 1, 63, 0
1, 28150, Note_off_c, 5, 71, 0
1, 28152, Note_on_c, 0, 70, 96
1, 28152, Note_on_c, 1, 61, 96
1, 28152, Note_on_c, 3, 42, 96
1, 28152, Note_on_c, 4, 30, 96
1, 28152, Note_on_c, 5, 70, 96
1, 28152, Note_on_c, 6, 42, 96
1, 28159, Note_off_c, 2, 61, 0
1, 28162, Note_off_c, 0, 70, 0
1, 28162, Note_off_c, 5, 70, 0
1, 28164, Note_on_c, 0, 68, 96
1, 28164, Note_on_c, 2, 59, 96
1, 28164, Note_on_c, 5, 68, 96
1, 28173, Note_off_c, 1, 61, 0
1, 28173, Note_off_c, 3, 42, 0
1, 28173, Note_off_c, 4, 30, 0
1, 28173, Note_off_c, 6, 42, 0
1, 28174, Note_off_c, 0, 68, 0
1, 28174, Note_off_c, 2, 59, 0
1, 28174, Note_off_c, 5, 68, 0
1, 28176, Note_on_c, 0, 66, 96
1, 28176, Note_on_c, 1, 70, 96
1, 28176, Note_on_c, 2, 58, 96
1, 28176, Note_on_c, 3, 46, 96
1, 28176, Note_on_c, 4, 34, 96
1, 28176, Note_on_c, 5, 66, 96
1, 28176, Note_on_c, 6, 46, 96
1, 28186, Note_off_c, 0, 66, 0
1, 28186, Note_off_c, 2, 58, 0
1, 28186, Note_off_c, 5, 66, 0
1, 28188, Note_on_c, 0, 64, 96
1, 28188, Note_on_c, 2, 56, 96
1, 28188, Note_on_c, 5, 64, 96
1, 28197, Note_off_c, 3, 46, 0
1, 28197, Note_off_c, 4, 34, 0
1, 28197, Note_off_c, 6, 46, 0
1, 28198, Note_off_c, 0, 64, 0
1, 28198, Note_off_c, 2, 56, 0
1, 28198, Note_off_c, 5, 64, 0
1, 28200, Note_on_c, 0, 63, 96
1, 28200, Note_on_c, 2, 54, 96
1, 28200, Note_on_c, 3, 51, 96
1, 28200, Note_on_c, 4, 39, 96
1, 28200, Note_on_c, 5, 63, 96
1, 28200, Note_on_c, 6, 51, 96
1, 28207, Note_off_c, 1, 70, 0
1, 28210, Note_off_c, 0, 63, 0
1, 28210, Note_off_c, 5, 63, 0
1, 28212, Note_on_c, 0, 76, 96
1, 28212, Note_on_c, 1, 68, 96
1, 28212, Note_on_c, 5, 76, 96
1, 28221, Note_off_c, 2, 54, 0
1, 28221, Note_off_c, 3, 51, 0
1, 28221, Note_off_c, 4, 39, 0
1, 28221, Note_off_c, 6, 51, 0
1, 28222, Note_off_c, 0, 76, 0
1, 28222, Note_off_c, 1, 68, 0
1, 28222, Note_off_c, 5, 76, 0
1, 28224, Note_on_c, 0, 75, 96
1, 28224, Note_on_c, 1, 66, 96
1, 28224, Note_on_c, 2, 63, 96
1, 28224, Note_on_c, 3, 54, 96
1, 28224, Note_on_c, 4, 42, 96
1, 28224, Note_on_c, 5, 75, 96
1, 28224, Note_on_c, 6, 54, 96
1, 28234, Note_off_c, 0, 75, 0
1, 28234, Note_off_c, 1, 66, 0
1, 28234, Note_off_c, 5, 75, 0
1, 28236, Note_on_c, 0, 73, 96
1, 28236, Note_on_c, 1, 64, 96
1, 28236, Note_on_c, 5, 73, 96
1, 28245, Note_off_c, 3, 54, 0
1, 28245, Note_off_c, 4, 42, 0
1, 28245, Note_off_c, 6, 54, 0
1, 28246, Note_off_c, 0, 73, 0
1, 28246, Note_off_c, 1, 64, 0
1, 28246, Note_off_c, 5, 73, 0
1, 28248, Note_on_c, 0, 71, 96
1, 28248, Note_on_c, 1, 63, 96
1, 28248, Note_on_c, 3, 44, 96
1, 28248, Note_on_c, 4, 32, 96
1, 28248, Note_on_c, 5, 71, 96
1, 28248, Note_on_c, 6, 44, 96
1, 28255, Note_off_c, 2, 63, 0
1, 28258, Note_off_c, 0, 71, 0
1, 28258, Note_off_c, 5, 71, 0
1, 28260, Note_on_c, 0, 70, 96
1, 28260, Note_on_c, 2, 61, 96
1, 28260, Note_on_c, 5, 70, 96
1, 28269, Note_off_c, 1, 63, 0
1, 28269, Note_off_c, 3, 44, 0
1, 28269, Note_off_c, 4, 32, 0
1, 28269, Note_off_c, 6, 44, 0
1, 28270, Note_off_c, 0, 70, 0
1, 28270, Note_off_c, 2, 61, 0
1, 28270, Note_off_c, 5, 70, 0
1, 28272, Note_on_c, 0, 68, 96
1, 28272, Note_on_c, 1, 71, 96
1, 28272, Note_on_c, 2, 59, 96
1, 28272, Note_on_c, 3, 47, 96
1, 28272, Note_on_c, 4, 35, 96
1, 28272, Note_on_c, 5, 68, 96
1, 28272, Note_on_c, 6, 47, 96
1, 28282, Note_off_c, 0, 68, 0
1, 28282, Note_off_c, 2, 59, 0
1, 28282, Note_off_c, 5, 68, 0
1, 28284, Note_on_c, 0, 66, 96
1, 28284, Note_on_c, 2, 58, 96
1, 28284, Note_on_c, 5, 66, 96
1, 28293, Note_off_c, 3, 47, 0
1, 28293, Note_off_c, 4, 35, 0
1, 28293, Note_off_c, 6, 47, 0
1, 28294, Note_off_c, 0, 66, 0
1, 28294, Note_off_c, 2, 58, 0
1, 28294, Note_off_c, 5, 66, 0
1, 28296, Note_on_c, 0, 64, 96
1, 28296, Note_on_c, 2, 56, 96
1, 28296, Note_on_c, 3, 52, 96
1, 28296, Note_on_c, 4, 40, 96
1, 28296, Note_on_c, 5, 64, 96
1, 28296, Note_on_c, 6, 52, 96
1, 28303, Note_off_c, 1, 71, 0
1, 28306, Note_off_c, 0, 64, 0
1, 28306, Note_off_c, 5, 64, 0
1, 28308, Note_on_c, 0, 78, 96
1, 28308, Note_on_c, 1, 70, 96
1, 28308, Note_on_c, 5, 78, 96
1, 28317, Note_off_c, 2, 56, 0
1, 28317, Note_off_c, 3, 52, 0
1, 28317, Note_off_c, 4, 40, 0
1, 28317, Note_off_c, 6, 52, 0
1, 28318, Note_off_c, 0, 78, 0
1, 28318, Note_off_c, 1, 70, 0
1, 28318, Note_off_c, 5, 78, 0
1, 28320, Note_on_c, 0, 76, 96
1, 28320, Note_on_c, 1, 68, 96
1, 28320, Note_on_c, 2, 64, 96
1, 28320, Note_on_c, 3, 56, 96
1, 28320, Note_on_c, 4, 44, 96
1, 28320, Note_on_c, 5, 76, 96
1, 28320, Note_on_c, 6, 56, 96
1, 28330, Note_off_c, 0, 76, 0
1, 28330, Note_off_c, 1, 68, 0
1, 28330, Note_off_c, 5, 76, 0
1, 28332, Note_on_c, 0, 75, 96
1, 28332, Note_on_c, 1, 66, 96
1, 28332, Note_on_c, 5, 75, 96
1, 28341, Note_off_c, 3, 56, 0
1, 28341, Note_off_c, 4, 44, 0
1, 28341, Note_off_c, 6, 56, 0
1, 28342, Note_off_c, 0, 75, 0
1, 28342, Note_off_c, 1, 66, 0
1, 28342, Note_off_c, 5, 75, 0
1, 28344, Note_on_c, 0, 73, 96
1, 28344, Note_on_c, 1, 64, 96
1, 28344, Note_on_c, 3, 46, 96
1, 28344, Note_on_c, 4, 34, 96
1, 28344, Note_on_c, 5, 73, 96
1, 28344, Note_on_c, 6, 46, 96
1, 28351, Note_off_c, 2, 64, 0
1, 28354, Note_off_c, 0, 73, 0
1, 28354, Note_off_c, 1, 64, 0
1, 28354, Note_off_c, 5, 73, 0
1, 28356, Note_on_c, 0, 71, 96
1, 28356, Note_on_c, 1, 75, 96
1, 28356, Note_on_c, 2, 66, 96
1, 28356, Note_on_c, 5, 71, 96
1, 28365, Note_off_c, 3, 46, 0
1, 28365, Note_off_c, 4, 34, 0
1, 28365, Note_off_c, 6, 46, 0
1, 28366, Note_off_c, 0, 71, 0
1, 28366, Note_off_c, 1, 75, 0
1, 28366, Note_off_c, 2, 66, 0
1, 28366, Note_off_c, 5, 71, 0
1, 28368, Note_on_c, 0, 70, 96
1, 28368, Note_on_c, 1, 73, 96
1, 28368, Note_on_c, 2, 64, 96
1, 28368, Note_on_c, 3, 49, 96
1, 28368, Note_on_c, 4, 37, 96
1, 28368, Note_on_c, 5, 70, 96
1, 28368, Note_on_c, 6, 49, 96
1, 28378, Note_off_c, 0, 70, 0
1, 28378, Note_off_c, 1, 73, 0
1, 28378, Note_off_c, 2, 64, 0
1, 28378, Note_off_c, 5, 70, 0
1, 28380, Note_on_c, 0, 68, 96
1, 28380, Note_on_c, 1, 71, 96
1, 28380, Note_on_c, 2, 63, 96
1, 28380, Note_on_c, 5, 68, 96
1, 28389, Note_off_c, 3, 49, 0
1, 28389, Note_off_c, 4, 37, 0
1, 28389, Note_off_c, 6, 49, 0
1, 28390, Note_off_c, 0, 68, 0
1, 28390, Note_off_c, 1, 71, 0
1, 28390, Note_off_c, 2, 63, 0
1, 28390, Note_off_c, 5, 68, 0
1, 28392, Note_on_c, 0, 66, 96
1, 28392, Note_on_c, 1, 70, 96
1, 28392, Note_on_c, 2, 61, 96
1, 28392, Note_on_c, 3, 54, 96
1, 28392, Note_on_c, 4, 42, 96
1, 28392, Note_on_c, 5, 66, 96
1, 28392, Note_on_c, 6, 54, 96
1, 28402, Note_off_c, 0, 66, 0
1, 28402, Note_off_c, 1, 70, 0
1, 28402, Note_off_c, 5, 66, 0
1, 28404, Note_on_c, 0, 80, 96
1, 28404, Note_on_c, 1, 76, 96
1, 28404, Note_on_c, 5, 80, 96
1, 28413, Note_off_c, 2, 61, 0
1, 28413, Note_off_c, 3, 54, 0
1, 28413, Note_off_c, 4, 42, 0
1, 28413, Note_off_c, 6, 54, 0
1, 28414, Note_off_c, 0, 80, 0
1, 28414, Note_off_c, 1, 76, 0
1, 28414, Note_off_c, 5, 80, 0
1, 28416, Note_on_c, 0, 78, 96
1, 28416, Note_on_c, 1, 75, 96
1, 28416, Note_on_c, 2, 66, 96
1, 28416, Note_on_c, 3, 58, 96
1, 28416, Note_on_c, 4, 46, 96
1, 28416, Note_on_c, 5, 78, 96
1, 28416, Note_on_c, 6, 58, 96
1, 28426, Note_off_c, 0, 78, 0
1, 28426, Note_off_c, 1, 75, 0
1, 28426, Note_off_c, 5, 78, 0
1, 28428, Note_on_c, 0, 76, 96
1, 28428, Note_on_c, 1, 73, 96
1, 28428, Note_on_c, 5, 76, 96
1, 28437, Note_off_c, 2, 66, 0
1, 28437, Note_off_c, 3, 58, 0
1, 28437, Note_off_c, 4, 46, 0
1, 28437, Note_off_c, 6, 58, 0
1, 28438, Note_off_c, 0, 76, 0
1, 28438, Note_off_c, 1, 73, 0
1, 28438, Note_off_c, 5, 76, 0
1, 28440, Note_on_c, 0, 75, 96
1, 28440, Note_on_c, 1, 71, 96
1, 28440, Note_on_c, 2, 66, 96
1, 28440, Note_on_c, 3, 59, 96
1, 28440, Note_on_c, 4, 47, 96
1, 28440, Note_on_c, 5, 76, 96
1, 28440, Note_on_c, 6, 59, 96
1, 28452, Note_off_c, 5, 76, 0
1, 28452, Note_on_c, 5, 75, 96
1, 28461, Note_off_c, 1, 71, 0
1, 28461, Note_off_c, 2, 66, 0
1, 28461, Note_off_c, 3, 59, 0
1, 28461, Note_off_c, 4, 47, 0
1, 28461, Note_off_c, 6, 59, 0
1, 28464, Note_on_c, 1, 71, 96
1, 28464, Note_on_c, 2, 68, 96
1, 28464, Note_on_c, 3, 52, 96
1, 28464, Note_on_c, 4, 40, 96
1, 28464, Note_on_c, 6, 52, 96
1, 28471, Note_off_c, 0, 75, 0
1, 28473, Note_off_c, 5, 75, 0
1, 28476, Note_on_c, 0, 73, 96
1, 28476, Note_on_c, 5, 73, 96
1, 28485, Note_off_c, 2, 68, 0
1, 28485, Note_off_c, 3, 52, 0
1, 28485, Note_off_c, 4, 40, 0
1, 28485, Note_off_c, 6, 52, 0
1, 28486, Note_off_c, 0, 73, 0
1, 28486, Note_off_c, 5, 73, 0
1, 28488, Note_on_c, 0, 73, 96
1, 28488, Note_on_c, 2, 66, 96
1, 28488, Note_on_c, 3, 54, 96
1, 28488, Note_on_c, 4, 42, 96
1, 28488, Note_on_c, 5, 75, 96
1, 28488, Note_on_c, 6, 54, 96
1, 28494, Note_off_c, 5, 75, 0
1, 28494, Note_on_c, 5, 73, 96
1, 28500, Note_off_c, 5, 73, 0
1, 28500, Note_on_c, 5, 75, 96
1, 28506, Note_off_c, 1, 71, 0
1, 28506, Note_off_c, 5, 75, 0
1, 28506, Note_on_c, 5, 73, 96
1, 28509, Note_off_c, 2, 66, 0
1, 28509, Note_off_c, 3, 54, 0
1, 28509, Note_off_c, 4, 42, 0
1, 28509, Note_off_c, 6, 54, 0
1, 28512, Note_on_c, 1, 70, 96
1, 28512, Note_on_c, 2, 64, 96
1, 28512, Note_on_c, 3, 42, 96
1, 28512, Note_on_c, 4, 30, 96
1, 28512, Note_off_c, 5, 73, 0
1, 28512, Note_on_c, 5, 75, 96
1, 28512, Note_on_c, 6, 42, 96
1, 28518, Note_off_c, 5, 75, 0
1, 28518, Note_on_c, 5, 73, 96
1, 28519, Note_off_c, 0, 73, 0
1, 28523, Note_off_c, 5, 73, 0
1, 28524, Note_on_c, 0, 71, 96
1, 28524, Note_on_c, 5, 71, 96
1, 28533, Note_off_c, 1, 70, 0
1, 28533, Note_off_c, 2, 64, 0
1, 28533, Note_off_c, 3, 42, 0
1, 28533, Note_off_c, 4, 30, 0
1, 28533, Note_off_c, 6, 42, 0
1, 28534, Note_off_c, 0, 71, 0
1, 28534, Note_off_c, 5, 71, 0
1, 28536, Note_on_c, 0, 71, 96
1, 28536, Note_on_c, 1, 71, 96
1, 28536, Note_on_c, 2, 63, 96
1, 28536, Note_on_c, 3, 47, 96
1, 28536, Note_on_c, 4, 35, 96
1, 28536, Note_on_c, 5, 71, 96
1, 28536, Note_on_c, 6, 47, 96
1, 28557, Note_off_c, 0, 71, 0
1, 28557, Note_off_c, 1, 71, 0
1, 28557, Note_off_c, 2, 63, 0
1, 28560, Note_on_c, 0, 73, 96
1, 28560, Note_on_c, 1, 68, 96
1, 28560, Note_on_c, 2, 64, 96
1, 28578, Note_off_c, 3, 47, 0
1, 28578, Note_off_c, 4, 35, 0
1, 28578, Note_off_c, 5, 71, 0
1, 28578, Note_off_c, 6, 47, 0
1, 28581, Note_off_c, 0, 73, 0
1, 28581, Note_off_c, 1, 68, 0
1, 28581, Note_off_c, 2, 64, 0
1, 28584, Note_on_c, 0, 71, 96
1, 28584, Note_on_c, 1, 66, 96
1, 28584, Note_on_c, 2, 63, 96
1, 28605, Note_off_c, 0, 71, 0
1, 28605, Note_off_c, 1, 66, 0
1, 28605, Note_off_c, 2, 63, 0
1, 28608, Note_on_c, 0, 70, 96
1, 28608, Note_on_c, 1, 64, 96
1, 28608, Note_on_c, 2, 61, 96
1, 28608, Note_on_c, 5, 66, 96
1, 28629, Note_off_c, 0, 70, 0
1, 28629, Note_off_c, 1, 64, 0
1, 28629, Note_off_c, 2, 61, 0
1, 28629, Note_off_c, 5, 66, 0
1, 28632, Note_on_c, 0, 71, 96
1, 28632, Note_on_c, 1, 63, 96
1, 28632, Note_on_c, 2, 59, 96
1, 28632, Note_on_c, 5, 66, 96
1, 28642, Note_off_c, 5, 66, 0
1, 28644, Note_on_c, 5, 68, 96
1, 28654, Note_off_c, 5, 68, 0
1, 28656, Note_on_c, 5, 69, 96
1, 28656, Note_on_c, 6, 49, 96
1, 28662, Note_off_c, 5, 69, 0
1, 28674, Note_off_c, 0, 71, 0
1, 28674, Note_off_c, 1, 63, 0
1, 28674, Note_off_c, 2, 59, 0
1, 28677, Note_off_c, 6, 49, 0
1, 28680, Note_on_c, 5, 71, 96
1, 28680, Note_on_c, 6, 51, 96
1, 28692, Note_off_c, 5, 71, 0
1, 28692, Note_on_c, 5, 69, 96
1, 28701, Note_off_c, 6, 51, 0
1, 28704, Note_off_c, 5, 69, 0
1, 28704, Note_on_c, 5, 68, 96
1, 28704, Note_on_c, 6, 52, 96
1, 28716, Note_off_c, 5, 68, 0
1, 28716, Note_on_c, 5, 66, 96
1, 28725, Note_off_c, 6, 52, 0
1, 28726, Note_off_c, 5, 66, 0
1, 28728, Note_on_c, 0, 75, 80
1, 28728, Note_on_c, 1, 66, 80
1, 28728, Note_on_c, 2, 60, 80
1, 28728, Note_on_c, 5, 75, 96
1, 28728, Note_on_c, 6, 54, 96
1, 28738, Note_off_c, 5, 75, 0
1, 28738, Note_off_c, 6, 54, 0
1, 28740, Note_on_c, 5, 73, 96
1, 28740, Note_on_c, 6, 56, 96
1, 28750, Note_off_c, 5, 73, 0
1, 28750, Note_off_c, 6, 56, 0
1, 28752, Note_on_c, 5, 75, 96
1, 28752, Note_on_c, 6, 54, 96
1, 28762, Note_off_c, 6, 54, 0
1, 28764, Note_on_c, 6, 52, 96
1, 28773, Note_off_c, 5, 75, 0
1, 28774, Note_off_c, 6, 52, 0
1, 28776, Note_on_c, 5, 66, 96
1, 28776, Note_on_c, 6, 51, 96
1, 28786, Note_off_c, 5, 66, 0
1, 28786, Note_off_c, 6, 51, 0
1, 28788, Note_on_c, 5, 69, 96
1, 28788, Note_on_c, 6, 49, 96
1, 28798, Note_off_c, 5, 69, 0
1, 28798, Note_off_c, 6, 49, 0
1, 28800, Note_on_c, 5, 68, 96
1, 28800, Note_on_c, 6, 48, 96
1, 28810, Note_off_c, 5, 68, 0
1, 28810, Note_off_c, 6, 48, 0
1, 28812, Note_on_c, 5, 66, 96
1, 28812, Note_on_c, 6, 51, 96
1, 28822, Note_off_c, 5, 66, 0
1, 28822, Note_off_c, 6, 51, 0
1, 28824, Note_on_c, 5, 75, 96
1, 28824, Note_on_c, 6, 44, 96
1, 28834, Note_off_c, 5, 75, 0
1, 28836, Note_on_c, 5, 72, 96
1, 28845, Note_off_c, 6, 44, 0
1, 28846, Note_off_c, 5, 72, 0
1, 28848, Note_on_c, 5, 73, 96
1, 28848, Note_on_c, 6, 46, 96
1, 28858, Note_off_c, 5, 73, 0
1, 28860, Note_on_c, 5, 75, 96
1, 28869, Note_off_c, 6, 46, 0
1, 28870, Note_off_c, 5, 75, 0
1, 28872, Note_on_c, 5, 68, 96
1, 28872, Note_on_c, 6, 48, 96
1, 28882, Note_off_c, 5, 68, 0
1, 28884, Note_off_c, 0, 75, 0
1, 28884, Note_off_c, 1, 66, 0
1, 28884, Note_off_c, 2, 60, 0
1, 28884, Note_on_c, 5, 78, 96
1, 28893, Note_off_c, 6, 48, 0
1, 28894, Note_off_c, 5, 78, 0
1, 28896, Note_on_c, 0, 73, 80
1, 28896, Note_on_c, 1, 68, 80
1, 28896, Note_on_c, 2, 66, 80
1, 28896, Note_on_c, 5, 76, 96
1, 28896, Note_on_c, 6, 44, 96
1, 28906, Note_off_c, 0, 73, 0
1, 28906, Note_off_c, 5, 76, 0
1, 28908, Note_on_c, 0, 72, 80
1, 28908, Note_on_c, 5, 75, 96
1, 28917, Note_off_c, 1, 68, 0
1, 28917, Note_off_c, 2, 66, 0
1, 28917, Note_off_c, 6, 44, 0
1, 28918, Note_off_c, 0, 72, 0
1, 28918, Note_off_c, 5, 75, 0
1, 28920, Note_on_c, 0, 73, 80
1, 28920, Note_on_c, 1, 68, 80
1, 28920, Note_on_c, 2, 64, 80
1, 28920, Note_on_c, 5, 78, 96
1, 28920, Note_on_c, 6, 49, 96
1, 28930, Note_off_c, 5, 78, 0
1, 28932, Note_on_c, 5, 76, 96
1, 28941, Note_off_c, 6, 49, 0
1, 28942, Note_off_c, 5, 76, 0
1, 28944, Note_on_c, 5, 75, 96
1, 28944, Note_on_c, 6, 51, 96
1, 28954, Note_off_c, 5, 75, 0
1, 28956, Note_on_c, 5, 76, 96
1, 28962, Note_off_c, 0, 73, 0
1, 28962, Note_off_c, 1, 68, 0
1, 28962, Note_off_c, 2, 64, 0
1, 28965, Note_off_c, 6, 51, 0
1, 28966, Note_off_c, 5, 76, 0
1, 28968, Note_on_c, 5, 73, 96
1, 28968, Note_on_c, 6, 52, 96
1, 28978, Note_off_c, 6, 52, 0
1, 28980, Note_on_c, 6, 49, 96
1, 28989, Note_off_c, 5, 73, 0
1, 28990, Note_off_c, 6, 49, 0
1, 28992, Note_on_c, 5, 80, 96
1, 28992, Note_on_c, 6, 51, 96
1, 29002, Note_off_c, 6, 51, 0
1, 29004, Note_on_c, 6, 52, 96
1, 29014, Note_off_c, 6, 52, 0
1, 29016, Note_on_c, 6, 54, 96
1, 29023, Note_off_c, 5, 80, 0
1, 29028, Note_on_c, 5, 78, 96
1, 29037, Note_off_c, 6, 54, 0
1, 29038, Note_off_c, 5, 78, 0
1, 29040, Note_on_c, 5, 76, 96
1, 29040, Note_on_c, 6, 56, 96
1, 29050, Note_off_c, 5, 76, 0
1, 29052, Note_on_c, 5, 80, 96
1, 29061, Note_off_c, 6, 56, 0
1, 29062, Note_off_c, 5, 80, 0
1, 29064, Note_on_c, 5, 78, 96
1, 29064, Note_on_c, 6, 57, 96
1, 29074, Note_off_c, 5, 78, 0
1, 29076, Note_on_c, 5, 76, 96
1, 29085, Note_off_c, 6, 57, 0
1, 29086, Note_off_c, 5, 76, 0
1, 29088, Note_on_c, 5, 75, 96
1, 29088, Note_on_c, 6, 54, 96
1, 29098, Note_off_c, 5, 75, 0
1, 29100, Note_on_c, 5, 73, 96
1, 29109, Note_off_c, 6, 54, 0
1, 29110, Note_off_c, 5, 73, 0
1, 29112, Note_on_c, 5, 72, 96
1, 29112, Note_on_c, 6, 56, 96
1, 29122, Note_off_c, 5, 72, 0
1, 29124, Note_on_c, 5, 73, 96
1, 29133, Note_off_c, 6, 56, 0
1, 29134, Note_off_c, 5, 73, 0
1, 29136, Note_on_c, 0, 78, 80
1, 29136, Note_on_c, 1, 75, 80
1, 29136, Note_on_c, 2, 72, 80
1, 29136, Note_on_c, 5, 75, 96
1, 29136, Note_on_c, 6, 44, 96
1, 29146, Note_off_c, 5, 75, 0
1, 29148, Note_on_c, 5, 72, 96
1, 29157, Note_off_c, 0, 78, 0
1, 29157, Note_off_c, 1, 75, 0
1, 29157, Note_off_c, 2, 72, 0
1, 29157, Note_off_c, 6, 44, 0
1, 29158, Note_off_c, 5, 72, 0
1, 29160, Note_on_c, 0, 78, 80
1, 29160, Note_on_c, 1, 75, 80
1, 29160, Note_on_c, 2, 72, 80
1, 29160, Note_on_c, 5, 68, 96
1, 29170, Note_off_c, 5, 68, 0
1, 29172, Note_on_c, 5, 72, 96
1, 29181, Note_off_c, 0, 78, 0
1, 29181, Note_off_c, 1, 75, 0
1, 29181, Note_off_c, 2, 72, 0
1, 29182, Note_off_c, 5, 72, 0
1, 29184, Note_on_c, 0, 75, 80
1, 29184, Note_on_c, 1, 72, 80
1, 29184, Note_on_c, 2, 68, 80
1, 29184, Note_on_c, 5, 75, 96
1, 29184, Note_on_c, 6, 56, 96
1, 29194, Note_off_c, 5, 75, 0
1, 29196, Note_on_c, 5, 78, 96
1, 29205, Note_off_c, 0, 75, 0
1, 29205, Note_off_c, 1, 72, 0
1, 29205, Note_off_c, 2, 68, 0
1, 29205, Note_off_c, 6, 56, 0
1, 29206, Note_off_c, 5, 78, 0
1, 29208, Note_on_c, 0, 76, 80
1, 29208, Note_on_c, 1, 73, 80
1, 29208, Note_on_c, 2, 68, 80
1, 29208, Note_on_c, 5, 76, 96
1, 29208, Note_on_c, 6, 61, 96
1, 29214, Note_off_c, 6, 61, 0
1, 29214, Note_on_c, 6, 59, 96
1, 29218, Note_off_c, 5, 76, 0
1, 29220, Note_on_c, 5, 75, 96
1, 29220, Note_off_c, 6, 59, 0
1, 29220, Note_on_c, 6, 61, 96
1, 29229, Note_off_c, 0, 76, 0
1, 29229, Note_off_c, 1, 73, 0
1, 29229, Note_off_c, 2, 68, 0
1, 29230, Note_off_c, 5, 75, 0
1, 29232, Note_on_c, 5, 73, 96
1, 29241, Note_off_c, 6, 61, 0
1, 29242, Note_off_c, 5, 73, 0
1, 29244, Note_on_c, 5, 80, 96
1, 29244, Note_on_c, 6, 59, 96
1, 29254, Note_off_c, 5, 80, 0
1, 29254, Note_off_c, 6, 59, 0
1, 29256, Note_on_c, 5, 78, 96
1, 29256, Note_on_c, 6, 57, 96
1, 29260, Note_off_c, 6, 57, 0
1, 29260, Note_on_c, 6, 59, 96
1, 29264, Note_off_c, 6, 59, 0
1, 29264, Note_on_c, 6, 57, 96
1, 29266, Note_off_c, 5, 78, 0
1, 29267, Note_off_c, 6, 57, 0
1, 29268, Note_on_c, 5, 76, 96
1, 29268, Note_on_c, 6, 56, 96
1, 29278, Note_off_c, 5, 76, 0
1, 29278, Note_off_c, 6, 56, 0
1, 29280, Note_on_c, 5, 75, 96
1, 29280, Note_on_c, 6, 57, 96
1, 29290, Note_off_c, 5, 75, 0
1, 29292, Note_on_c, 5, 73, 96
1, 29301, Note_off_c, 6, 57, 0
1, 29302, Note_off_c, 5, 73, 0
1, 29304, Note_on_c, 5, 81, 96
1, 29304, Note_on_c, 6, 56, 96
1, 29310, Note_off_c, 5, 81, 0
1, 29310, Note_on_c, 5, 80, 96
1, 29314, Note_off_c, 6, 56, 0
1, 29316, Note_off_c, 5, 80, 0
1, 29316, Note_on_c, 5, 81, 96
1, 29316, Note_on_c, 6, 44, 96
1, 29322, Note_off_c, 5, 81, 0
1, 29322, Note_on_c, 5, 80, 96
1, 29326, Note_off_c, 6, 44, 0
1, 29328, Note_off_c, 5, 80, 0
1, 29328, Note_on_c, 5, 81, 96
1, 29328, Note_on_c, 6, 56, 96
1, 29334, Note_off_c, 5, 81, 0
1, 29334, Note_on_c, 5, 80, 96
1, 29338, Note_off_c, 6, 56, 0
1, 29340, Note_off_c, 5, 80, 0
1, 29340, Note_on_c, 5, 81, 96
1, 29340, Note_on_c, 6, 54, 96
1, 29346, Note_off_c, 5, 81, 0
1, 29346, Note_on_c, 5, 80, 96
1, 29350, Note_off_c, 6, 54, 0
1, 29352, Note_off_c, 5, 80, 0
1, 29352, Note_on_c, 5, 81, 96
1, 29352, Note_on_c, 6, 52, 96
1, 29358, Note_off_c, 5, 81, 0
1, 29358, Note_on_c, 5, 80, 96
1, 29362, Note_off_c, 6, 52, 0
1, 29364, Note_off_c, 5, 80, 0
1, 29364, Note_on_c, 5, 81, 96
1, 29364, Note_on_c, 6, 51, 96
1, 29370, Note_off_c, 5, 81, 0
1, 29370, Note_on_c, 5, 80, 96
1, 29374, Note_off_c, 6, 51, 0
1, 29376, Note_on_c, 0, 68, 96
1, 29376, Note_on_c, 1, 75, 96
1, 29376, Note_on_c, 2, 63, 96
1, 29376, Note_on_c, 3, 54, 96
1, 29376, Note_on_c, 4, 42, 96
1, 29376, Note_off_c, 5, 80, 0
1, 29376, Note_on_c, 5, 81, 96
1, 29376, Note_on_c, 6, 49, 96
1, 29382, Note_off_c, 5, 81, 0
1, 29382, Note_on_c, 5, 80, 96
1, 29386, Note_off_c, 6, 49, 0
1, 29388, Note_off_c, 5, 80, 0
1, 29388, Note_on_c, 5, 81, 96
1, 29388, Note_on_c, 6, 48, 96
1, 29394, Note_off_c, 5, 81, 0
1, 29394, Note_on_c, 5, 80, 96
1, 29397, Note_off_c, 0, 68, 0
1, 29397, Note_off_c, 1, 75, 0
1, 29397, Note_off_c, 2, 63, 0
1, 29397, Note_off_c, 3, 54, 0
1, 29397, Note_off_c, 4, 42, 0
1, 29398, Note_off_c, 6, 48, 0
1, 29400, Note_on_c, 0, 73, 96
1, 29400, Note_on_c, 1, 76, 96
1, 29400, Note_on_c, 2, 61, 96
1, 29400, Note_on_c, 3, 52, 96
1, 29400, Note_on_c, 4, 40, 96
1, 29400, Note_off_c, 5, 80, 0
1, 29400, Note_on_c, 5, 81, 96
1, 29400, Note_on_c, 6, 49, 96
1, 29406, Note_off_c, 5, 81, 0
1, 29406, Note_on_c, 5, 80, 96
1, 29410, Note_off_c, 0, 73, 0
1, 29412, Note_on_c, 0, 72, 96
1, 29412, Note_off_c, 5, 80, 0
1, 29412, Note_on_c, 5, 81, 96
1, 29418, Note_off_c, 5, 81, 0
1, 29418, Note_on_c, 5, 80, 96
1, 29421, Note_off_c, 1, 76, 0
1, 29421, Note_off_c, 6, 49, 0
1, 29422, Note_off_c, 0, 72, 0
1, 29424, Note_on_c, 0, 73, 96
1, 29424, Note_on_c, 1, 80, 96
1, 29424, Note_off_c, 5, 80, 0
1, 29424, Note_on_c, 5, 81, 96
1, 29424, Note_on_c, 6, 52, 96
1, 29430, Note_off_c, 5, 81, 0
1, 29430, Note_on_c, 5, 80, 96
1, 29434, Note_off_c, 0, 73, 0
1, 29436, Note_on_c, 0, 76, 96
1, 29436, Note_off_c, 5, 80, 0
1, 29436, Note_on_c, 5, 81, 96
1, 29442, Note_off_c, 2, 61, 0
1, 29442, Note_off_c, 3, 52, 0
1, 29442, Note_off_c, 4, 40, 0
1, 29442, Note_off_c, 5, 81, 0
1, 29442, Note_on_c, 5, 80, 96
1, 29445, Note_off_c, 1, 80, 0
1, 29445, Note_off_c, 6, 52, 0
1, 29446, Note_off_c, 0, 76, 0
1, 29448, Note_on_c, 0, 73, 96
1, 29448, Note_on_c, 1, 76, 96
1, 29448, Note_off_c, 5, 80, 0
1, 29448, Note_on_c, 5, 81, 96
1, 29448, Note_on_c, 6, 56, 96
1, 29454, Note_off_c, 5, 81, 0
1, 29454, Note_on_c, 5, 80, 96
1, 29458, Note_off_c, 0, 73, 0
1, 29460, Note_on_c, 0, 68, 96
1, 29460, Note_off_c, 5, 80, 0
1, 29460, Note_on_c, 5, 81, 96
1, 29466, Note_off_c, 5, 81, 0
1, 29466, Note_on_c, 5, 80, 96
1, 29469, Note_off_c, 1, 76, 0
1, 29469, Note_off_c, 6, 56, 0
1, 29470, Note_off_c, 0, 68, 0
1, 29472, Note_on_c, 0, 64, 96
1, 29472, Note_on_c, 1, 73, 96
1, 29472, Note_on_c, 2, 68, 96
1, 29472, Note_on_c, 3, 56, 96
1, 29472, Note_on_c, 4, 44, 96
1, 29472, Note_off_c, 5, 80, 0
1, 29472, Note_on_c, 5, 81, 96
1, 29472, Note_on_c, 6, 61, 96
1, 29478, Note_off_c, 5, 81, 0
1, 29478, Note_on_c, 5, 80, 96
1, 29482, Note_off_c, 0, 64, 0
1, 29484, Note_on_c, 0, 68, 96
1, 29484, Note_off_c, 5, 80, 0
1, 29484, Note_on_c, 5, 81, 96
1, 29490, Note_off_c, 5, 81, 0
1, 29490, Note_on_c, 5, 80, 96
1, 29493, Note_off_c, 1, 73, 0
1, 29493, Note_off_c, 2, 68, 0
1, 29493, Note_off_c, 3, 56, 0
1, 29493, Note_off_c, 4, 44, 0
1, 29493, Note_off_c, 6, 61, 0
1, 29494, Note_off_c, 0, 68, 0
1, 29496, Note_on_c, 0, 61, 96
1, 29496, Note_on_c, 2, 64, 96
1, 29496, Note_on_c, 3, 61, 96
1, 29496, Note_on_c, 4, 49, 96
1, 29496, Note_off_c, 5, 80, 0
1, 29496, Note_on_c, 5, 81, 96
1, 29496, Note_on_c, 6, 52, 96
1, 29502, Note_off_c, 5, 81, 0
1, 29502, Note_on_c, 5, 80, 96
1, 29506, Note_off_c, 0, 61, 0
1, 29508, Note_on_c, 0, 68, 96
1, 29508, Note_off_c, 5, 80, 0
1, 29508, Note_on_c, 5, 81, 96
1, 29514, Note_off_c, 5, 81, 0
1, 29514, Note_on_c, 5, 80, 96
1, 29517, Note_off_c, 2, 64, 0
1, 29517, Note_off_c, 6, 52, 0
1, 29518, Note_off_c, 0, 68, 0
1, 29520, Note_on_c, 0, 64, 96
1, 29520, Note_on_c, 1, 68, 96
1, 29520, Note_on_c, 2, 61, 96
1, 29520, Note_off_c, 5, 80, 0
1, 29520, Note_on_c, 5, 81, 96
1, 29520, Note_on_c, 6, 56, 96
1, 29526, Note_off_c, 5, 81, 0
1, 29526, Note_on_c, 5, 80, 96
1, 29530, Note_off_c, 0, 64, 0
1, 29532, Note_on_c, 0, 68, 96
1, 29532, Note_off_c, 5, 80, 0
1, 29532, Note_on_c, 5, 81, 96
1, 29538, Note_off_c, 3, 61, 0
1, 29538, Note_off_c, 4, 49, 0
1, 29538, Note_off_c, 5, 81, 0
1, 29538, Note_on_c, 5, 80, 96
1, 29541, Note_off_c, 1, 68, 0
1, 29541, Note_off_c, 2, 61, 0
1, 29541, Note_off_c, 6, 56, 0
1, 29542, Note_off_c, 0, 68, 0
1, 29544, Note_on_c, 0, 61, 96
1, 29544, Note_on_c, 1, 64, 96
1, 29544, Note_off_c, 5, 80, 0
1, 29544, Note_on_c, 5, 81, 96
1, 29544, Note_on_c, 6, 61, 96
1, 29550, Note_off_c, 5, 81, 0
1, 29550, Note_on_c, 5, 80, 96
1, 29554, Note_off_c, 0, 61, 0
1, 29556, Note_on_c, 0, 68, 96
1, 29556, Note_off_c, 5, 80, 0
1, 29556, Note_on_c, 5, 81, 96
1, 29562, Note_off_c, 5, 81, 0
1, 29562, Note_on_c, 5, 80, 96
1, 29565, Note_off_c, 1, 64, 0
1, 29565, Note_off_c, 6, 61, 0
1, 29566, Note_off_c, 0, 68, 0
1, 29568, Note_on_c, 0, 64, 96
1, 29568, Note_on_c, 1, 61, 96
1, 29568, Note_on_c, 2, 56, 96
1, 29568, Note_on_c, 3, 56, 96
1, 29568, Note_on_c, 4, 44, 96
1, 29568, Note_off_c, 5, 80, 0
1, 29568, Note_on_c, 5, 81, 96
1, 29568, Note_on_c, 6, 64, 96
1, 29574, Note_off_c, 5, 81, 0
1, 29574, Note_on_c, 5, 80, 96
1, 29578, Note_off_c, 0, 64, 0
1, 29580, Note_on_c, 0, 68, 96
1, 29580, Note_off_c, 5, 80, 0
1, 29580, Note_on_c, 5, 81, 96
1, 29586, Note_off_c, 5, 81, 0
1, 29586, Note_on_c, 5, 80, 96
1, 29589, Note_off_c, 1, 61, 0
1, 29589, Note_off_c, 2, 56, 0
1, 29589, Note_off_c, 3, 56, 0
1, 29589, Note_off_c, 4, 44, 0
1, 29589, Note_off_c, 6, 64, 0
1, 29590, Note_off_c, 0, 68, 0
1, 29592, Note_on_c, 0, 73, 96
1, 29592, Note_on_c, 2, 52, 96
1, 29592, Note_on_c, 3, 61, 96
1, 29592, Note_on_c, 4, 49, 96
1, 29592, Note_off_c, 5, 80, 0
1, 29592, Note_on_c, 5, 81, 96
1, 29592, Note_on_c, 6, 61, 96
1, 29598, Note_off_c, 5, 81, 0
1, 29598, Note_on_c, 5, 80, 96
1, 29602, Note_off_c, 0, 73, 0
1, 29604, Note_on_c, 0, 72, 96
1, 29604, Note_off_c, 5, 80, 0
1, 29604, Note_on_c, 5, 81, 96
1, 29610, Note_off_c, 5, 81, 0
1, 29610, Note_on_c, 5, 80, 96
1, 29613, Note_off_c, 2, 52, 0
1, 29613, Note_off_c, 3, 61, 0
1, 29613, Note_off_c, 4, 49, 0
1, 29613, Note_off_c, 6, 61, 0
1, 29614, Note_off_c, 0, 72, 0
1, 29616, Note_on_c, 0, 73, 96
1, 29616, Note_on_c, 2, 49, 96
1, 29616, Note_on_c, 3, 56, 96
1, 29616, Note_on_c, 4, 44, 96
1, 29616, Note_off_c, 5, 80, 0
1, 29616, Note_on_c, 5, 81, 96
1, 29616, Note_on_c, 6, 56, 96
1, 29622, Note_off_c, 5, 81, 0
1, 29622, Note_on_c, 5, 80, 96
1, 29626, Note_off_c, 0, 73, 0
1, 29628, Note_on_c, 0, 76, 96
1, 29628, Note_off_c, 5, 80, 0
1, 29628, Note_on_c, 5, 81, 96
1, 29634, Note_off_c, 5, 81, 0
1, 29634, Note_on_c, 5, 80, 96
1, 29637, Note_off_c, 2, 49, 0
1, 29637, Note_off_c, 3, 56, 0
1, 29637, Note_off_c, 4, 44, 0
1, 29637, Note_off_c, 6, 56, 0
1, 29638, Note_off_c, 0, 76, 0
1, 29640, Note_on_c, 0, 73, 96
1, 29640, Note_on_c, 3, 52, 96
1, 29640, Note_on_c, 4, 40, 96
1, 29640, Note_off_c, 5, 80, 0
1, 29640, Note_on_c, 5, 81, 96
1, 29640, Note_on_c, 6, 52, 96
1, 29646, Note_off_c, 5, 81, 0
1, 29646, Note_on_c, 5, 80, 96
1, 29650, Note_off_c, 0, 73, 0
1, 29652, Note_on_c, 0, 68, 96
1, 29661, Note_off_c, 3, 52, 0
1, 29661, Note_off_c, 4, 40, 0
1, 29661, Note_off_c, 6, 52, 0
1, 29662, Note_off_c, 0, 68, 0
1, 29664, Note_on_c, 0, 64, 96
1, 29664, Note_on_c, 3, 49, 96
1, 29664, Note_on_c, 4, 37, 96
1, 29664, Note_on_c, 6, 49, 96
1, 29674, Note_off_c, 0, 64, 0
1, 29676, Note_on_c, 0, 68, 96
1, 29685, Note_off_c, 3, 49, 0
1, 29685, Note_off_c, 4, 37, 0
1, 29685, Note_off_c, 6, 49, 0
1, 29686, Note_off_c, 0, 68, 0
1, 29688, Note_on_c, 0, 61, 96
1, 29688, Note_on_c, 3, 45, 96
1, 29688, Note_on_c, 4, 33, 96
1, 29688, Note_off_c, 5, 80, 0
1, 29688, Note_on_c, 6, 45, 96
1, 29694, Note_on_c, 5, 78, 96
1, 29699, Note_off_c, 5, 78, 0
1, 29700, Note_on_c, 5, 80, 96
1, 29705, Note_off_c, 5, 80, 0
1, 29706, Note_on_c, 5, 81, 96
1, 29709, Note_off_c, 0, 61, 0
1, 29709, Note_off_c, 3, 45, 0
1, 29709, Note_off_c, 4, 33, 0
1, 29709, Note_off_c, 6, 45, 0
1, 29711, Note_off_c, 5, 81, 0
1, 29712, Note_on_c, 5, 80, 96
1, 29712, Note_on_c, 6, 60, 96
1, 29722, Note_off_c, 5, 80, 0
1, 29724, Note_on_c, 5, 78, 96
1, 29733, Note_off_c, 6, 60, 0
1, 29734, Note_off_c, 5, 78, 0
1, 29736, Note_on_c, 5, 76, 96
1, 29736, Note_on_c, 6, 61, 96
1, 29746, Note_off_c, 5, 76, 0
1, 29748, Note_on_c, 5, 75, 96
1, 29757, Note_off_c, 6, 61, 0
1, 29758, Note_off_c, 5, 75, 0
1, 29760, Note_on_c, 3, 57, 80
1, 29760, Note_on_c, 4, 45, 80
1, 29760, Note_on_c, 5, 73, 96
1, 29760, Note_on_c, 6, 63, 96
1, 29760, Note_on_c, 6, 57, 96
1, 29770, Note_off_c, 5, 73, 0
1, 29772, Note_on_c, 5, 72, 96
1, 29781, Note_off_c, 3, 57, 0
1, 29781, Note_off_c, 4, 45, 0
1, 29781, Note_off_c, 6, 63, 0
1, 29781, Note_off_c, 6, 57, 0
1, 29782, Note_off_c, 5, 72, 0
1, 29784, Note_on_c, 3, 56, 80
1, 29784, Note_on_c, 4, 44, 80
1, 29784, Note_on_c, 5, 73, 96
1, 29784, Note_on_c, 6, 64, 96
1, 29784, Note_on_c, 6, 56, 96
1, 29796, Note_off_c, 5, 73, 0
1, 29796, Note_on_c, 5, 75, 96
1, 29802, Note_off_c, 5, 75, 0
1, 29802, Note_on_c, 5, 73, 96
1, 29805, Note_off_c, 3, 56, 0
1, 29805, Note_off_c, 4, 44, 0
1, 29805, Note_off_c, 6, 64, 0
1, 29805, Note_off_c, 6, 56, 0
1, 29808, Note_on_c, 3, 54, 80
1, 29808, Note_on_c, 4, 42, 80
1, 29808, Note_off_c, 5, 73, 0
1, 29808, Note_on_c, 5, 72, 96
1, 29808, Note_on_c, 6, 57, 96
1, 29808, Note_on_c, 6, 54, 96
1, 29814, Note_off_c, 5, 72, 0
1, 29814, Note_on_c, 5, 73, 96
1, 29820, Note_off_c, 5, 73, 0
1, 29820, Note_on_c, 5, 75, 96
1, 29829, Note_off_c, 3, 54, 0
1, 29829, Note_off_c, 4, 42, 0
1, 29829, Note_off_c, 6, 57, 0
1, 29829, Note_off_c, 6, 54, 0
1, 29830, Note_off_c, 5, 75, 0
1, 29832, Note_on_c, 3, 56, 80
1, 29832, Note_on_c, 4, 44, 80
1, 29832, Note_on_c, 5, 75, 96
1, 29832, Note_on_c, 6, 72, 96
1, 29832, Note_on_c, 6, 56, 96
1, 29853, Note_off_c, 3, 56, 0
1, 29853, Note_off_c, 4, 44, 0
1, 29856, Note_on_c, 3, 44, 80
1, 29856, Note_on_c, 4, 32, 80
1, 29856, Note_on_c, 6, 44, 96
1, 29863, Note_off_c, 5, 75, 0
1, 29868, Note_on_c, 5, 73, 96
1, 29874, Note_off_c, 6, 72, 0
1, 29874, Note_off_c, 6, 56, 0
1, 29877, Note_off_c, 3, 44, 0
1, 29877, Note_off_c, 4, 32, 0
1, 29877, Note_off_c, 6, 44, 0
1, 29878, Note_off_c, 5, 73, 0
1, 29880, Note_on_c, 0, 82, 80
1, 29880, Note_on_c, 1, 73, 80
1, 29880, Note_on_c, 2, 67, 80
1, 29880, Note_on_c, 3, 51, 80
1, 29880, Note_on_c, 4, 39, 80
1, 29880, Note_on_c, 5, 73, 96
1, 29880, Note_on_c, 6, 58, 96
1, 29880, Note_on_c, 6, 55, 96
1, 29880, Note_on_c, 6, 51, 96
1, 29890, Note_off_c, 5, 73, 0
1, 29892, Note_on_c, 5, 76, 96
1, 29902, Note_off_c, 5, 76, 0
1, 29904, Note_on_c, 5, 75, 96
1, 29914, Note_off_c, 5, 75, 0
1, 29916, Note_on_c, 5, 73, 96
1, 29922, Note_off_c, 2, 67, 0
1, 29922, Note_off_c, 3, 51, 0
1, 29922, Note_off_c, 4, 39, 0
1, 29922, Note_off_c, 6, 58, 0
1, 29922, Note_off_c, 6, 55, 0
1, 29922, Note_off_c, 6, 51, 0
1, 29926, Note_off_c, 5, 73, 0
1, 29928, Note_on_c, 2, 63, 80
1, 29928, Note_on_c, 5, 79, 96
1, 29940, Note_off_c, 5, 79, 0
1, 29940, Note_on_c, 5, 80, 96
1, 29952, Note_on_c, 3, 55, 80
1, 29952, Note_on_c, 4, 43, 80
1, 29952, Note_off_c, 5, 80, 0
1, 29952, Note_on_c, 5, 82, 96
1, 29952, Note_on_c, 6, 55, 96
1, 29962, Note_off_c, 5, 82, 0
1, 29964, Note_off_c, 1, 73, 0
1, 29964, Note_on_c, 5, 73, 96
1, 29973, Note_off_c, 3, 55, 0
1, 29973, Note_off_c, 4, 43, 0
1, 29973, Note_off_c, 6, 55, 0
1, 29974, Note_off_c, 5, 73, 0
1, 29976, Note_on_c, 1, 71, 80
1, 29976, Note_on_c, 3, 56, 80
1, 29976, Note_on_c, 4, 44, 80
1, 29976, Note_on_c, 5, 71, 96
1, 29976, Note_on_c, 6, 56, 96
1, 29988, Note_off_c, 0, 82, 0
1, 29991, Note_off_c, 2, 63, 0
1, 29997, Note_off_c, 3, 56, 0
1, 29997, Note_off_c, 4, 44, 0
1, 30000, Note_on_c, 0, 80, 80
1, 30000, Note_on_c, 2, 68, 80
1, 30000, Note_on_c, 3, 52, 80
1, 30000, Note_on_c, 4, 40, 80
1, 30000, Note_on_c, 6, 52, 96
1, 30002, Note_off_c, 5, 71, 0
1, 30006, Note_on_c, 5, 70, 96
1, 30011, Note_off_c, 5, 70, 0
1, 30012, Note_on_c, 5, 68, 96
1, 30017, Note_off_c, 5, 68, 0
1, 30018, Note_off_c, 1, 71, 0
1, 30018, Note_on_c, 5, 70, 96
1, 30021, Note_off_c, 0, 80, 0
1, 30021, Note_off_c, 2, 68, 0
1, 30021, Note_off_c, 3, 52, 0
1, 30021, Note_off_c, 4, 40, 0
1, 30021, Note_off_c, 6, 52, 0
1, 30023, Note_off_c, 5, 70, 0
1, 30024, Note_on_c, 3, 49, 80
1, 30024, Note_on_c, 4, 37, 80
1, 30024, Note_on_c, 5, 70, 96
1, 30024, Note_on_c, 6, 49, 96
1, 30039, Note_off_c, 6, 56, 0
1, 30045, Note_off_c, 3, 49, 0
1, 30045, Note_off_c, 4, 37, 0
1, 30045, Note_off_c, 6, 49, 0
1, 30048, Note_on_c, 3, 51, 80
1, 30048, Note_on_c, 4, 39, 80
1, 30048, Note_on_c, 6, 55, 96
1, 30048, Note_on_c, 6, 51, 96
1, 30055, Note_off_c, 5, 70, 0
1, 30060, Note_on_c, 5, 68, 96
1, 30069, Note_off_c, 3, 51, 0
1, 30069, Note_off_c, 4, 39, 0
1, 30069, Note_off_c, 6, 55, 0
1, 30069, Note_off_c, 6, 51, 0
1, 30070, Note_off_c, 5, 68, 0
1, 30072, Note_on_c, 3, 44, 80
1, 30072, Note_on_c, 4, 32, 80
1, 30072, Note_on_c, 5, 68, 96
1, 30072, Note_on_c, 6, 44, 96
1, 30084, Note_on_c, 0, 68, 96
1, 30093, Note_off_c, 3, 44, 0
1, 30093, Note_off_c, 4, 32, 0
1, 30093, Note_off_c, 6, 44, 0
1, 30094, Note_off_c, 0, 68, 0
1, 30096, Note_on_c, 0, 71, 96
1, 30096, Note_on_c, 3, 56, 80
1, 30096, Note_on_c, 4, 44, 80
1, 30096, Note_on_c, 6, 56, 96
1, 30106, Note_off_c, 0, 71, 0
1, 30106, Note_off_c, 3, 56, 0
1, 30106, Note_off_c, 4, 44, 0
1, 30106, Note_off_c, 6, 56, 0
1, 30108, Note_on_c, 0, 75, 96
1, 30108, Note_on_c, 3, 58, 80
1, 30108, Note_on_c, 4, 46, 80
1, 30108, Note_on_c, 6, 58, 96
1, 30118, Note_off_c, 0, 75, 0
1, 30118, Note_off_c, 3, 58, 0
1, 30118, Note_off_c, 4, 46, 0
1, 30118, Note_off_c, 6, 58, 0
1, 30120, Note_on_c, 0, 80, 96
1, 30120, Note_on_c, 3, 59, 80
1, 30120, Note_on_c, 4, 47, 80
1, 30120, Note_on_c, 6, 59, 96
1, 30130, Note_off_c, 0, 80, 0
1, 30132, Note_on_c, 0, 78, 96
1, 30141, Note_off_c, 3, 59, 0
1, 30141, Note_off_c, 4, 47, 0
1, 30141, Note_off_c, 6, 59, 0
1, 30142, Note_off_c, 0, 78, 0
1, 30144, Note_on_c, 0, 76, 96
1, 30144, Note_on_c, 1, 71, 96
1, 30144, Note_on_c, 2, 68, 96
1, 30144, Note_on_c, 3, 56, 96
1, 30144, Note_on_c, 4, 44, 96
1, 30144, Note_on_c, 6, 56, 96
1, 30154, Note_off_c, 0, 76, 0
1, 30156, Note_on_c, 0, 75, 96
1, 30165, Note_off_c, 1, 71, 0
1, 30165, Note_off_c, 2, 68, 0
1, 30165, Note_off_c, 3, 56, 0
1, 30165, Note_off_c, 4, 44, 0
1, 30165, Note_off_c, 6, 56, 0
1, 30166, Note_off_c, 0, 75, 0
1, 30168, Note_on_c, 0, 68, 96
1, 30168, Note_on_c, 1, 70, 96
1, 30168, Note_on_c, 2, 64, 96
1, 30168, Note_on_c, 3, 61, 96
1, 30168, Note_on_c, 4, 49, 96
1, 30168, Note_on_c, 6, 49, 96
1, 30171, Note_off_c, 0, 68, 0
1, 30178, Note_off_c, 6, 49, 0
1, 30180, Note_on_c, 0, 76, 96
1, 30180, Note_on_c, 6, 61, 96
1, 30189, Note_off_c, 1, 70, 0
1, 30189, Note_off_c, 2, 64, 0
1, 30189, Note_off_c, 3, 61, 0
1, 30189, Note_off_c, 4, 49, 0
1, 30190, Note_off_c, 6, 61, 0
1, 30192, Note_off_c, 0, 76, 0
1, 30192, Note_on_c, 0, 75, 96
1, 30192, Note_on_c, 6, 59, 96
1, 30202, Note_off_c, 6, 59, 0
1, 30204, Note_off_c, 0, 75, 0
1, 30204, Note_on_c, 0, 73, 96
1, 30204, Note_on_c, 6, 58, 96
1, 30214, Note_off_c, 0, 73, 0
1, 30214, Note_off_c, 6, 58, 0
1, 30216, Note_on_c, 0, 68, 96
1, 30216, Note_on_c, 1, 71, 96
1, 30216, Note_on_c, 2, 63, 96
1, 30216, Note_on_c, 3, 59, 96
1, 30216, Note_on_c, 4, 47, 96
1, 30216, Note_on_c, 6, 47, 96
1, 30219, Note_off_c, 0, 68, 0
1, 30226, Note_off_c, 6, 47, 0
1, 30228, Note_on_c, 0, 75, 96
1, 30228, Note_on_c, 6, 59, 96
1, 30237, Note_off_c, 1, 71, 0
1, 30237, Note_off_c, 2, 63, 0
1, 30237, Note_off_c, 3, 59, 0
1, 30237, Note_off_c, 4, 47, 0
1, 30238, Note_off_c, 6, 59, 0
1, 30240, Note_off_c, 0, 75, 0
1, 30240, Note_on_c, 0, 73, 96
1, 30240, Note_on_c, 6, 58, 96
1, 30250, Note_off_c, 6, 58, 0
1, 30252, Note_off_c, 0, 73, 0
1, 30252, Note_on_c, 0, 71, 96
1, 30252, Note_on_c, 6, 56, 96
1, 30262, Note_off_c, 0, 71, 0
1, 30262, Note_off_c, 6, 56, 0
1, 30264, Note_on_c, 0, 61, 96
1, 30264, Note_on_c, 1, 73, 96
1, 30264, Note_on_c, 2, 61, 96
1, 30264, Note_on_c, 3, 58, 96
1, 30264, Note_on_c, 4, 46, 96
1, 30264, Note_on_c, 6, 46, 96
1, 30267, Note_off_c, 0, 61, 0
1, 30274, Note_off_c, 6, 46, 0
1, 30276, Note_on_c, 0, 73, 96
1, 30276, Note_on_c, 6, 58, 96
1, 30285, Note_off_c, 1, 73, 0
1, 30285, Note_off_c, 2, 61, 0
1, 30285, Note_off_c, 3, 58, 0
1, 30285, Note_off_c, 4, 46, 0
1, 30286, Note_off_c, 6, 58, 0
1, 30288, Note_off_c, 0, 73, 0
1, 30288, Note_on_c, 0, 71, 96
1, 30288, Note_on_c, 6, 56, 96
1, 30298, Note_off_c, 6, 56, 0
1, 30300, Note_off_c, 0, 71, 0
1, 30300, Note_on_c, 0, 70, 96
1, 30300, Note_on_c, 6, 55, 96
1, 30310, Note_off_c, 0, 70, 0
1, 30310, Note_off_c, 6, 55, 0
1, 30312, Note_on_c, 0, 71, 96
1, 30312, Note_on_c, 1, 71, 96
1, 30312, Note_on_c, 2, 63, 96
1, 30312, Note_on_c, 3, 56, 96
1, 30312, Note_on_c, 4, 44, 96
1, 30312, Note_off_c, 5, 68, 0
1, 30312, Note_on_c, 6, 56, 96
1, 30322, Note_off_c, 6, 56, 0
1, 30324, Note_on_c, 5, 71, 96
1, 30324, Note_on_c, 6, 54, 96
1, 30333, Note_off_c, 0, 71, 0
1, 30333, Note_off_c, 1, 71, 0
1, 30333, Note_off_c, 2, 63, 0
1, 30333, Note_off_c, 3, 56, 0
1, 30333, Note_off_c, 4, 44, 0
1, 30334, Note_off_c, 5, 71, 0
1, 30334, Note_off_c, 6, 54, 0
1, 30336, Note_on_c, 0, 80, 80
1, 30336, Note_on_c, 5, 73, 96
1, 30336, Note_on_c, 6, 52, 96
1, 30346, Note_off_c, 5, 73, 0
1, 30346, Note_off_c, 6, 52, 0
1, 30348, Note_on_c, 5, 75, 96
1, 30348, Note_on_c, 6, 51, 96
1, 30357, Note_off_c, 0, 80, 0
1, 30358, Note_off_c, 5, 75, 0
1, 30358, Note_off_c, 6, 51, 0
1, 30360, Note_on_c, 0, 80, 80
1, 30360, Note_on_c, 1, 68, 80
1, 30360, Note_on_c, 2, 61, 80
1, 30360, Note_on_c, 3, 49, 80
1, 30360, Note_on_c, 4, 37, 80
1, 30360, Note_on_c, 5, 76, 96
1, 30360, Note_on_c, 6, 49, 96
1, 30370, Note_off_c, 5, 76, 0
1, 30372, Note_on_c, 5, 79, 96
1, 30381, Note_off_c, 1, 68, 0
1, 30381, Note_off_c, 2, 61, 0
1, 30381, Note_off_c, 3, 49, 0
1, 30381, Note_off_c, 4, 37, 0
1, 30381, Note_off_c, 6, 49, 0
1, 30382, Note_off_c, 5, 79, 0
1, 30384, Note_on_c, 5, 80, 96
1, 30384, Note_on_c, 6, 61, 96
1, 30394, Note_off_c, 5, 80, 0
1, 30396, Note_on_c, 5, 82, 96
1, 30405, Note_off_c, 6, 61, 0
1, 30406, Note_off_c, 5, 82, 0
1, 30408, Note_on_c, 1, 71, 80
1, 30408, Note_on_c, 2, 63, 80
1, 30408, Note_on_c, 3, 47, 80
1, 30408, Note_on_c, 4, 35, 80
1, 30408, Note_on_c, 5, 75, 96
1, 30408, Note_on_c, 6, 59, 96
1, 30418, Note_off_c, 5, 75, 0
1, 30420, Note_on_c, 5, 79, 96
1, 30429, Note_off_c, 1, 71, 0
1, 30429, Note_off_c, 2, 63, 0
1, 30429, Note_off_c, 3, 47, 0
1, 30429, Note_off_c, 4, 35, 0
1, 30429, Note_off_c, 6, 59, 0
1, 30430, Note_off_c, 5, 79, 0
1, 30432, Note_on_c, 5, 80, 96
1, 30432, Note_on_c, 6, 47, 96
1, 30442, Note_off_c, 5, 80, 0
1, 30444, Note_on_c, 5, 82, 96
1, 30453, Note_off_c, 6, 47, 0
1, 30454, Note_off_c, 5, 82, 0
1, 30456, Note_on_c, 1, 73, 80
1, 30456, Note_on_c, 2, 70, 80
1, 30456, Note_on_c, 3, 46, 80
1, 30456, Note_on_c, 4, 34, 80
1, 30456, Note_on_c, 5, 73, 96
1, 30456, Note_on_c, 6, 46, 96
1, 30466, Note_off_c, 5, 73, 0
1, 30468, Note_on_c, 5, 79, 96
1, 30477, Note_off_c, 1, 73, 0
1, 30477, Note_off_c, 2, 70, 0
1, 30477, Note_off_c, 3, 46, 0
1, 30477, Note_off_c, 4, 34, 0
1, 30477, Note_off_c, 6, 46, 0
1, 30478, Note_off_c, 5, 79, 0
1, 30480, Note_on_c, 5, 80, 96
1, 30480, Note_on_c, 6, 58, 96
1, 30490, Note_off_c, 5, 80, 0
1, 30492, Note_on_c, 5, 82, 96
1, 30501, Note_off_c, 6, 58, 0
1, 30502, Note_off_c, 5, 82, 0
1, 30504, Note_on_c, 1, 75, 80
1, 30504, Note_on_c, 2, 71, 80
1, 30504, Note_on_c, 3, 44, 80
1, 30504, Note_on_c, 4, 32, 80
1, 30504, Note_on_c, 5, 71, 96
1, 30504, Note_on_c, 6, 56, 96
1, 30514, Note_off_c, 5, 71, 0
1, 30516, Note_off_c, 0, 80, 0
1, 30516, Note_on_c, 5, 75, 96
1, 30525, Note_off_c, 1, 75, 0
1, 30525, Note_off_c, 2, 71, 0
1, 30525, Note_off_c, 3, 44, 0
1, 30525, Note_off_c, 4, 32, 0
1, 30525, Note_off_c, 6, 56, 0
1, 30526, Note_off_c, 5, 75, 0
1, 30528, Note_on_c, 0, 79, 96
1, 30528, Note_on_c, 1, 73, 96
1, 30528, Note_on_c, 2, 75, 96
1, 30528, Note_on_c, 3, 51, 96
1, 30528, Note_on_c, 4, 39, 96
1, 30528, Note_on_c, 5, 79, 96
1, 30528, Note_on_c, 6, 51, 96
1, 30538, Note_off_c, 5, 79, 0
1, 30540, Note_on_c, 5, 82, 96
1, 30549, Note_off_c, 0, 79, 0
1, 30549, Note_off_c, 1, 73, 0
1, 30549, Note_off_c, 2, 75, 0
1, 30549, Note_off_c, 3, 51, 0
1, 30549, Note_off_c, 4, 39, 0
1, 30549, Note_off_c, 6, 51, 0
1, 30550, Note_off_c, 5, 82, 0
1, 30552, Note_on_c, 0, 80, 96
1, 30552, Note_on_c, 1, 71, 96
1, 30552, Note_on_c, 2, 68, 96
1, 30552, Note_on_c, 3, 52, 96
1, 30552, Note_on_c, 4, 40, 96
1, 30552, Note_on_c, 5, 80, 96
1, 30552, Note_on_c, 6, 52, 96
1, 30562, Note_off_c, 5, 80, 0
1, 30564, Note_on_c, 5, 79, 96
1, 30573, Note_off_c, 1, 71, 0
1, 30573, Note_off_c, 2, 68, 0
1, 30573, Note_off_c, 3, 52, 0
1, 30573, Note_off_c, 4, 40, 0
1, 30573, Note_off_c, 6, 52, 0
1, 30574, Note_off_c, 5, 79, 0
1, 30576, Note_on_c, 1, 80, 96
1, 30576, Note_on_c, 2, 64, 96
1, 30576, Note_on_c, 3, 49, 96
1, 30576, Note_on_c, 4, 37, 96
1, 30576, Note_on_c, 5, 80, 96
1, 30576, Note_on_c, 6, 49, 96
1, 30583, Note_off_c, 0, 80, 0
1, 30586, Note_off_c, 5, 80, 0
1, 30588, Note_on_c, 0, 85, 96
1, 30588, Note_on_c, 5, 85, 96
1, 30597, Note_off_c, 1, 80, 0
1, 30597, Note_off_c, 2, 64, 0
1, 30597, Note_off_c, 3, 49, 0
1, 30597, Note_off_c, 4, 37, 0
1, 30597, Note_off_c, 6, 49, 0
1, 30598, Note_off_c, 0, 85, 0
1, 30598, Note_off_c, 5, 85, 0
1, 30600, Note_on_c, 0, 82, 96
1, 30600, Note_on_c, 1, 80, 96
1, 30600, Note_on_c, 2, 63, 96
1, 30600, Note_on_c, 3, 51, 96
1, 30600, Note_on_c, 4, 39, 96
1, 30600, Note_on_c, 5, 82, 96
1, 30600, Note_on_c, 6, 51, 96
1, 30621, Note_off_c, 1, 80, 0
1, 30621, Note_off_c, 2, 63, 0
1, 30621, Note_off_c, 3, 51, 0
1, 30621, Note_off_c, 4, 39, 0
1, 30621, Note_off_c, 6, 51, 0
1, 30624, Note_on_c, 1, 79, 96
1, 30624, Note_on_c, 2, 70, 96
1, 30624, Note_on_c, 3, 39, 96
1, 30624, Note_on_c, 4, 27, 96
1, 30624, Note_on_c, 6, 39, 96
1, 30631, Note_off_c, 0, 82, 0
1, 30631, Note_off_c, 5, 82, 0
1, 30636, Note_on_c, 0, 80, 96
1, 30636, Note_on_c, 5, 80, 96
1, 30645, Note_off_c, 1, 79, 0
1, 30645, Note_off_c, 2, 70, 0
1, 30645, Note_off_c, 3, 39, 0
1, 30645, Note_off_c, 4, 27, 0
1, 30645, Note_off_c, 6, 39, 0
1, 30646, Note_off_c, 0, 80, 0
1, 30646, Note_off_c, 5, 80, 0
1, 30648, Note_on_c, 0, 80, 96
1, 30648, Note_on_c, 1, 75, 96
1, 30648, Note_on_c, 2, 71, 96
1, 30648, Note_on_c, 3, 44, 96
1, 30648, Note_on_c, 4, 32, 96
1, 30648, Note_on_c, 5, 80, 96
1, 30648, Note_on_c, 6, 44, 96
1, 30690, Note_off_c, 0, 80, 0
1, 30690, Note_off_c, 1, 75, 0
1, 30690, Note_off_c, 2, 71, 0
1, 30690, Note_off_c, 3, 44, 0
1, 30690, Note_off_c, 4, 32, 0
1, 30690, Note_off_c, 5, 80, 0
1, 30690, Note_off_c, 6, 44, 0
1, 30720, Note_on_c, 0, 71, 80
1, 30720, Note_on_c, 1, 64, 80
1, 30720, Note_on_c, 2, 56, 80
1, 30720, Note_on_c, 5, 71, 96
1, 30741, Note_off_c, 0, 71, 0
1, 30741, Note_off_c, 1, 64, 0
1, 30741, Note_off_c, 2, 56, 0
1, 30741, Note_off_c, 5, 71, 0
1, 30744, Note_on_c, 0, 76, 80
1, 30744, Note_on_c, 1, 64, 80
1, 30744, Note_on_c, 2, 56, 80
1, 30744, Note_on_c, 3, 40, 80
1, 30744, Note_on_c, 4, 28, 80
1, 30744, Note_on_c, 5, 68, 96
1, 30754, Note_off_c, 0, 76, 0
1, 30754, Note_off_c, 5, 68, 0
1, 30756, Note_on_c, 0, 75, 80
1, 30756, Note_on_c, 5, 66, 96
1, 30761, Note_off_c, 5, 66, 0
1, 30762, Note_on_c, 5, 64, 96
1, 30765, Note_off_c, 1, 64, 0
1, 30765, Note_off_c, 2, 56, 0
1, 30766, Note_off_c, 0, 75, 0
1, 30767, Note_off_c, 5, 64, 0
1, 30768, Note_on_c, 0, 76, 80
1, 30768, Note_on_c, 1, 68, 80
1, 30768, Note_on_c, 2, 59, 80
1, 30768, Note_on_c, 5, 59, 96
1, 30768, Note_on_c, 6, 52, 96
1, 30778, Note_off_c, 0, 76, 0
1, 30778, Note_off_c, 5, 59, 0
1, 30780, Note_on_c, 0, 80, 80
1, 30780, Note_on_c, 5, 64, 96
1, 30785, Note_off_c, 5, 64, 0
1, 30786, Note_off_c, 3, 40, 0
1, 30786, Note_off_c, 4, 28, 0
1, 30786, Note_on_c, 5, 66, 96
1, 30789, Note_off_c, 1, 68, 0
1, 30789, Note_off_c, 2, 59, 0
1, 30789, Note_off_c, 6, 52, 0
1, 30790, Note_off_c, 0, 80, 0
1, 30791, Note_off_c, 5, 66, 0
1, 30792, Note_on_c, 0, 76, 80
1, 30792, Note_on_c, 1, 68, 80
1, 30792, Note_on_c, 2, 59, 80
1, 30792, Note_on_c, 5, 68, 96
1, 30792, Note_on_c, 6, 40, 96
1, 30802, Note_off_c, 0, 76, 0
1, 30802, Note_off_c, 5, 68, 0
1, 30804, Note_on_c, 0, 71, 80
1, 30804, Note_on_c, 5, 66, 96
1, 30809, Note_off_c, 5, 66, 0
1, 30810, Note_on_c, 5, 64, 96
1, 30813, Note_off_c, 1, 68, 0
1, 30813, Note_off_c, 2, 59, 0
1, 30814, Note_off_c, 0, 71, 0
1, 30815, Note_off_c, 5, 64, 0
1, 30816, Note_on_c, 0, 68, 80
1, 30816, Note_on_c, 1, 71, 80
1, 30816, Note_on_c, 2, 64, 80
1, 30816, Note_on_c, 3, 52, 80
1, 30816, Note_on_c, 4, 40, 80
1, 30816, Note_on_c, 5, 59, 96
1, 30826, Note_off_c, 0, 68, 0
1, 30826, Note_off_c, 5, 59, 0
1, 30828, Note_on_c, 0, 71, 80
1, 30828, Note_on_c, 5, 64, 96
1, 30833, Note_off_c, 5, 64, 0
1, 30834, Note_on_c, 5, 66, 96
1, 30834, Note_off_c, 6, 40, 0
1, 30837, Note_off_c, 1, 71, 0
1, 30837, Note_off_c, 2, 64, 0
1, 30837, Note_off_c, 3, 52, 0
1, 30837, Note_off_c, 4, 40, 0
1, 30838, Note_off_c, 0, 71, 0
1, 30839, Note_off_c, 5, 66, 0
1, 30840, Note_on_c, 0, 64, 80
1, 30840, Note_on_c, 1, 71, 80
1, 30840, Note_on_c, 2, 64, 80
1, 30840, Note_on_c, 3, 40, 80
1, 30840, Note_on_c, 4, 28, 80
1, 30840, Note_on_c, 5, 68, 96
1, 30850, Note_off_c, 0, 64, 0
1, 30850, Note_off_c, 5, 68, 0
1, 30852, Note_on_c, 0, 71, 80
1, 30852, Note_on_c, 5, 66, 96
1, 30857, Note_off_c, 5, 66, 0
1, 30858, Note_on_c, 5, 64, 96
1, 30861, Note_off_c, 1, 71, 0
1, 30861, Note_off_c, 2, 64, 0
1, 30862, Note_off_c, 0, 71, 0
1, 30863, Note_off_c, 5, 64, 0
1, 30864, Note_on_c, 0, 68, 80
1, 30864, Note_on_c, 1, 76, 80
1, 30864, Note_on_c, 2, 68, 80
1, 30864, Note_on_c, 5, 71, 96
1, 30864, Note_on_c, 6, 52, 96
1, 30874, Note_off_c, 0, 68, 0
1, 30874, Note_off_c, 5, 71, 0
1, 30876, Note_on_c, 0, 71, 80
1, 30876, Note_on_c, 5, 69, 96
1, 30881, Note_off_c, 5, 69, 0
1, 30882, Note_off_c, 3, 40, 0
1, 30882, Note_off_c, 4, 28, 0
1, 30882, Note_on_c, 5, 68, 96
1, 30885, Note_off_c, 1, 76, 0
1, 30885, Note_off_c, 2, 68, 0
1, 30885, Note_off_c, 6, 52, 0
1, 30886, Note_off_c, 0, 71, 0
1, 30887, Note_off_c, 5, 68, 0
1, 30888, Note_on_c, 0, 64, 80
1, 30888, Note_on_c, 1, 76, 80
1, 30888, Note_on_c, 2, 68, 80
1, 30888, Note_on_c, 5, 76, 96
1, 30888, Note_on_c, 6, 40, 96
1, 30898, Note_off_c, 0, 64, 0
1, 30898, Note_off_c, 5, 76, 0
1, 30900, Note_on_c, 0, 71, 80
1, 30900, Note_on_c, 5, 71, 96
1, 30909, Note_off_c, 1, 76, 0
1, 30909, Note_off_c, 2, 68, 0
1, 30910, Note_off_c, 0, 71, 0
1, 30910, Note_off_c, 5, 71, 0
1, 30912, Note_on_c, 0, 68, 80
1, 30912, Note_on_c, 3, 52, 80
1, 30912, Note_on_c, 4, 40, 80
1, 30912, Note_on_c, 5, 76, 96
1, 30922, Note_off_c, 0, 68, 0
1, 30922, Note_off_c, 5, 76, 0
1, 30924, Note_on_c, 0, 71, 80
1, 30924, Note_on_c, 5, 78, 96
1, 30930, Note_off_c, 6, 40, 0
1, 30933, Note_off_c, 3, 52, 0
1, 30933, Note_off_c, 4, 40, 0
1, 30934, Note_off_c, 0, 71, 0
1, 30934, Note_off_c, 5, 78, 0
1, 30936, Note_on_c, 0, 76, 80
1, 30936, Note_on_c, 3, 40, 80
1, 30936, Note_on_c, 4, 28, 80
1, 30936, Note_on_c, 5, 80, 96
1, 30946, Note_off_c, 0, 76, 0
1, 30946, Note_off_c, 5, 80, 0
1, 30948, Note_on_c, 0, 75, 80
1, 30948, Note_on_c, 5, 78, 96
1, 30958, Note_off_c, 0, 75, 0
1, 30958, Note_off_c, 5, 78, 0
1, 30960, Note_on_c, 0, 76, 80
1, 30960, Note_on_c, 5, 80, 96
1, 30960, Note_on_c, 6, 52, 96
1, 30970, Note_off_c, 0, 76, 0
1, 30970, Note_off_c, 5, 80, 0
1, 30972, Note_on_c, 0, 80, 80
1, 30972, Note_on_c, 5, 83, 96
1, 30978, Note_off_c, 3, 40, 0
1, 30978, Note_off_c, 4, 28, 0
1, 30981, Note_off_c, 6, 52, 0
1, 30982, Note_off_c, 0, 80, 0
1, 30982, Note_off_c, 5, 83, 0
1, 30984, Note_on_c, 0, 76, 80
1, 30984, Note_on_c, 5, 80, 96
1, 30984, Note_on_c, 6, 40, 96
1, 30994, Note_off_c, 0, 76, 0
1, 30994, Note_off_c, 5, 80, 0
1, 30996, Note_on_c, 0, 71, 80
1, 30996, Note_on_c, 5, 76, 96
1, 31006, Note_off_c, 0, 71, 0
1, 31006, Note_off_c, 5, 76, 0
1, 31008, Note_on_c, 0, 68, 80
1, 31008, Note_on_c, 3, 52, 80
1, 31008, Note_on_c, 4, 40, 80
1, 31008, Note_on_c, 5, 71, 96
1, 31018, Note_off_c, 0, 68, 0
1, 31018, Note_off_c, 5, 71, 0
1, 31020, Note_on_c, 0, 71, 80
1, 31020, Note_on_c, 5, 76, 96
1, 31026, Note_off_c, 6, 40, 0
1, 31029, Note_off_c, 3, 52, 0
1, 31029, Note_off_c, 4, 40, 0
1, 31030, Note_off_c, 0, 71, 0
1, 31030, Note_off_c, 5, 76, 0
1, 31032, Note_on_c, 0, 64, 80
1, 31032, Note_on_c, 3, 40, 80
1, 31032, Note_on_c, 4, 28, 80
1, 31032, Note_on_c, 5, 68, 96
1, 31042, Note_off_c, 0, 64, 0
1, 31042, Note_off_c, 5, 68, 0
1, 31044, Note_on_c, 0, 71, 80
1, 31044, Note_on_c, 5, 76, 96
1, 31053, Note_off_c, 3, 40, 0
1, 31053, Note_off_c, 4, 28, 0
1, 31054, Note_off_c, 0, 71, 0
1, 31054, Note_off_c, 5, 76, 0
1, 31056, Note_on_c, 0, 68, 80
1, 31056, Note_on_c, 3, 52, 80
1, 31056, Note_on_c, 4, 40, 80
1, 31056, Note_on_c, 5, 71, 96
1, 31056, Note_on_c, 6, 40, 96
1, 31066, Note_off_c, 0, 68, 0
1, 31066, Note_off_c, 5, 71, 0
1, 31068, Note_on_c, 0, 71, 80
1, 31068, Note_on_c, 5, 68, 96
1, 31077, Note_off_c, 3, 52, 0
1, 31077, Note_off_c, 4, 40, 0
1, 31077, Note_off_c, 6, 40, 0
1, 31078, Note_off_c, 0, 71, 0
1, 31078, Note_off_c, 5, 68, 0
1, 31080, Note_on_c, 0, 76, 80
1, 31080, Note_on_c, 3, 56, 80
1, 31080, Note_on_c, 4, 44, 80
1, 31080, Note_on_c, 5, 64, 96
1, 31080, Note_on_c, 6, 44, 96
1, 31090, Note_off_c, 0, 76, 0
1, 31092, Note_on_c, 0, 71, 80
1, 31101, Note_off_c, 3, 56, 0
1, 31101, Note_off_c, 4, 44, 0
1, 31101, Note_off_c, 5, 64, 0
1, 31101, Note_off_c, 6, 44, 0
1, 31102, Note_off_c, 0, 71, 0
1, 31104, Note_on_c, 0, 78, 96
1, 31104, Note_on_c, 1, 75, 96
1, 31104, Note_on_c, 2, 71, 96
1, 31104, Note_on_c, 3, 59, 96
1, 31104, Note_on_c, 4, 47, 96
1, 31104, Note_on_c, 5, 80, 96
1, 31104, Note_on_c, 6, 47, 96
1, 31110, Note_off_c, 5, 80, 0
1, 31110, Note_on_c, 5, 78, 96
1, 31114, Note_off_c, 0, 78, 0
1, 31116, Note_on_c, 0, 71, 96
1, 31116, Note_off_c, 5, 78, 0
1, 31116, Note_on_c, 5, 76, 96
1, 31122, Note_off_c, 5, 76, 0
1, 31122, Note_on_c, 5, 78, 96
1, 31125, Note_off_c, 1, 75, 0
1, 31125, Note_off_c, 2, 71, 0
1, 31125, Note_off_c, 3, 59, 0
1, 31125, Note_off_c, 4, 47, 0
1, 31125, Note_off_c, 6, 47, 0
1, 31126, Note_off_c, 0, 71, 0
1, 31127, Note_off_c, 5, 78, 0
1, 31128, Note_on_c, 0, 80, 96
1, 31128, Note_on_c, 1, 76, 96
1, 31128, Note_on_c, 2, 71, 96
1, 31128, Note_on_c, 3, 64, 96
1, 31128, Note_on_c, 4, 52, 96
1, 31128, Note_on_c, 5, 80, 96
1, 31128, Note_on_c, 6, 52, 96
1, 31134, Note_off_c, 5, 80, 0
1, 31149, Note_off_c, 0, 80, 0
1, 31149, Note_off_c, 1, 76, 0
1, 31149, Note_off_c, 2, 71, 0
1, 31149, Note_off_c, 3, 64, 0
1, 31149, Note_off_c, 4, 52, 0
1, 31149, Note_off_c, 6, 52, 0
1, 31152, Note_on_c, 0, 78, 96
1, 31152, Note_on_c, 1, 78, 96
1, 31152, Note_on_c, 2, 71, 96
1, 31152, Note_on_c, 3, 63, 96
1, 31152, Note_on_c, 4, 51, 96
1, 31152, Note_on_c, 5, 78, 96
1, 31152, Note_on_c, 6, 51, 96
1, 31158, Note_off_c, 5, 78, 0
1, 31173, Note_off_c, 0, 78, 0
1, 31173, Note_off_c, 1, 78, 0
1, 31173, Note_off_c, 2, 71, 0
1, 31173, Note_off_c, 3, 63, 0
1, 31173, Note_off_c, 4, 51, 0
1, 31173, Note_off_c, 6, 51, 0
1, 31176, Note_on_c, 0, 81, 96
1, 31176, Note_on_c, 1, 76, 96
1, 31176, Note_on_c, 2, 64, 96
1, 31176, Note_on_c, 3, 61, 96
1, 31176, Note_on_c, 4, 49, 96
1, 31176, Note_on_c, 5, 81, 96
1, 31176, Note_on_c, 6, 49, 96
1, 31182, Note_off_c, 5, 81, 0
1, 31197, Note_off_c, 0, 81, 0
1, 31197, Note_off_c, 1, 76, 0
1, 31197, Note_off_c, 2, 64, 0
1, 31197, Note_off_c, 3, 61, 0
1, 31197, Note_off_c, 4, 49, 0
1, 31197, Note_off_c, 6, 49, 0
1, 31200, Note_on_c, 0, 80, 96
1, 31200, Note_on_c, 1, 76, 96
1, 31200, Note_on_c, 2, 68, 96
1, 31200, Note_on_c, 3, 59, 96
1, 31200, Note_on_c, 4, 47, 96
1, 31200, Note_on_c, 5, 80, 96
1, 31200, Note_on_c, 6, 47, 96
1, 31206, Note_off_c, 5, 80, 0
1, 31221, Note_off_c, 0, 80, 0
1, 31221, Note_off_c, 1, 76, 0
1, 31221, Note_off_c, 2, 68, 0
1, 31221, Note_off_c, 3, 59, 0
1, 31221, Note_off_c, 4, 47, 0
1, 31221, Note_off_c, 6, 47, 0
1, 31224, Note_on_c, 0, 78, 96
1, 31224, Note_on_c, 1, 75, 96
1, 31224, Note_on_c, 2, 71, 96
1, 31224, Note_on_c, 3, 57, 96
1, 31224, Note_on_c, 4, 45, 96
1, 31224, Note_on_c, 5, 78, 96
1, 31224, Note_on_c, 6, 45, 96
1, 31230, Note_off_c, 5, 78, 0
1, 31230, Note_on_c, 5, 80, 96
1, 31236, Note_off_c, 5, 80, 0
1, 31236, Note_on_c, 5, 78, 96
1, 31245, Note_off_c, 0, 78, 0
1, 31245, Note_off_c, 1, 75, 0
1, 31245, Note_off_c, 2, 71, 0
1, 31245, Note_off_c, 3, 57, 0
1, 31245, Note_off_c, 4, 45, 0
1, 31245, Note_off_c, 6, 45, 0
1, 31246, Note_off_c, 5, 78, 0
1, 31248, Note_on_c, 0, 76, 96
1, 31248, Note_on_c, 1, 76, 96
1, 31248, Note_on_c, 2, 71, 96
1, 31248, Note_on_c, 3, 56, 96
1, 31248, Note_on_c, 4, 44, 96
1, 31248, Note_on_c, 5, 76, 96
1, 31248, Note_on_c, 6, 44, 96
1, 31269, Note_off_c, 0, 76, 0
1, 31269, Note_off_c, 1, 76, 0
1, 31269, Note_off_c, 2, 71, 0
1, 31269, Note_off_c, 3, 56, 0
1, 31269, Note_off_c, 4, 44, 0
1, 31269, Note_off_c, 5, 76, 0
1, 31269, Note_off_c, 6, 44, 0
1, 31272, Note_on_c, 5, 83, 96
1, 31284, Note_on_c, 3, 56, 80
1, 31284, Note_on_c, 4, 44, 80
1, 31284, Note_on_c, 6, 56, 96
1, 31294, Note_off_c, 3, 56, 0
1, 31294, Note_off_c, 4, 44, 0
1, 31294, Note_off_c, 6, 56, 0
1, 31296, Note_on_c, 0, 83, 80
1, 31296, Note_on_c, 1, 78, 80
1, 31296, Note_on_c, 2, 63, 80
1, 31296, Note_on_c, 3, 57, 80
1, 31296, Note_on_c, 4, 45, 80
1, 31296, Note_on_c, 6, 57, 96
1, 31306, Note_off_c, 3, 57, 0
1, 31306, Note_off_c, 4, 45, 0
1, 31306, Note_off_c, 6, 57, 0
1, 31308, Note_on_c, 3, 59, 80
1, 31308, Note_on_c, 4, 47, 80
1, 31308, Note_on_c, 6, 59, 96
1, 31317, Note_off_c, 0, 83, 0
1, 31317, Note_off_c, 1, 78, 0
1, 31317, Note_off_c, 2, 63, 0
1, 31318, Note_off_c, 3, 59, 0
1, 31318, Note_off_c, 4, 47, 0
1, 31318, Note_off_c, 6, 59, 0
1, 31320, Note_on_c, 0, 83, 80
1, 31320, Note_on_c, 1, 80, 80
1, 31320, Note_on_c, 2, 64, 80
1, 31320, Note_on_c, 3, 52, 80
1, 31320, Note_on_c, 4, 40, 80
1, 31320, Note_on_c, 6, 52, 96
1, 31324, Note_off_c, 5, 83, 0
1, 31332, Note_on_c, 5, 74, 96
1, 31341, Note_off_c, 0, 83, 0
1, 31341, Note_off_c, 1, 80, 0
1, 31341, Note_off_c, 2, 64, 0
1, 31341, Note_off_c, 3, 52, 0
1, 31341, Note_off_c, 4, 40, 0
1, 31341, Note_off_c, 6, 52, 0
1, 31342, Note_off_c, 5, 74, 0
1, 31344, Note_on_c, 0, 80, 80
1, 31344, Note_on_c, 1, 76, 80
1, 31344, Note_on_c, 2, 71, 80
1, 31344, Note_on_c, 3, 64, 80
1, 31344, Note_on_c, 4, 52, 80
1, 31344, Note_on_c, 5, 73, 96
1, 31344, Note_on_c, 6, 64, 96
1, 31354, Note_off_c, 5, 73, 0
1, 31356, Note_on_c, 5, 74, 96
1, 31365, Note_off_c, 0, 80, 0
1, 31365, Note_off_c, 1, 76, 0
1, 31365, Note_off_c, 2, 71, 0
1, 31365, Note_off_c, 3, 64, 0
1, 31365, Note_off_c, 4, 52, 0
1, 31365, Note_off_c, 6, 64, 0
1, 31366, Note_off_c, 5, 74, 0
1, 31368, Note_on_c, 0, 80, 80
1, 31368, Note_on_c, 1, 76, 80
1, 31368, Note_on_c, 2, 71, 80
1, 31368, Note_on_c, 5, 76, 96
1, 31380, Note_on_c, 3, 52, 80
1, 31380, Note_on_c, 4, 40, 80
1, 31380, Note_on_c, 6, 52, 96
1, 31389, Note_off_c, 0, 80, 0
1, 31389, Note_off_c, 1, 76, 0
1, 31389, Note_off_c, 2, 71, 0
1, 31389, Note_off_c, 5, 76, 0
1, 31390, Note_off_c, 3, 52, 0
1, 31390, Note_off_c, 4, 40, 0
1, 31390, Note_off_c, 6, 52, 0
1, 31392, Note_on_c, 0, 76, 80
1, 31392, Note_on_c, 1, 71, 80
1, 31392, Note_on_c, 2, 68, 80
1, 31392, Note_on_c, 3, 54, 80
1, 31392, Note_on_c, 4, 42, 80
1, 31392, Note_on_c, 5, 74, 96
1, 31392, Note_on_c, 6, 54, 96
1, 31402, Note_off_c, 3, 54, 0
1, 31402, Note_off_c, 4, 42, 0
1, 31402, Note_off_c, 6, 54, 0
1, 31404, Note_on_c, 3, 56, 80
1, 31404, Note_on_c, 4, 44, 80
1, 31404, Note_on_c, 6, 56, 96
1, 31413, Note_off_c, 0, 76, 0
1, 31413, Note_off_c, 1, 71, 0
1, 31413, Note_off_c, 2, 68, 0
1, 31413, Note_off_c, 5, 74, 0
1, 31414, Note_off_c, 3, 56, 0
1, 31414, Note_off_c, 4, 44, 0
1, 31414, Note_off_c, 6, 56, 0
1, 31416, Note_on_c, 0, 76, 80
1, 31416, Note_on_c, 1, 73, 80
1, 31416, Note_on_c, 2, 64, 80
1, 31416, Note_on_c, 3, 57, 80
1, 31416, Note_on_c, 4, 45, 80
1, 31416, Note_on_c, 5, 73, 96
1, 31416, Note_on_c, 6, 57, 96
1, 31426, Note_off_c, 0, 76, 0
1, 31426, Note_off_c, 5, 73, 0
1, 31428, Note_on_c, 0, 74, 80
1, 31428, Note_on_c, 5, 71, 96
1, 31437, Note_off_c, 3, 57, 0
1, 31437, Note_off_c, 4, 45, 0
1, 31437, Note_off_c, 6, 57, 0
1, 31438, Note_off_c, 0, 74, 0
1, 31438, Note_off_c, 5, 71, 0
1, 31440, Note_on_c, 0, 73, 80
1, 31440, Note_on_c, 3, 45, 80
1, 31440, Note_on_c, 4, 33, 80
1, 31440, Note_on_c, 5, 69, 96
1, 31440, Note_on_c, 6, 45, 96
1, 31450, Note_off_c, 0, 73, 0
1, 31450, Note_off_c, 5, 69, 0
1, 31452, Note_on_c, 0, 71, 80
1, 31452, Note_on_c, 5, 73, 96
1, 31458, Note_off_c, 1, 73, 0
1, 31458, Note_off_c, 2, 64, 0
1, 31461, Note_off_c, 3, 45, 0
1, 31461, Note_off_c, 4, 33, 0
1, 31461, Note_off_c, 6, 45, 0
1, 31462, Note_off_c, 0, 71, 0
1, 31462, Note_off_c, 5, 73, 0
1, 31464, Note_on_c, 0, 69, 80
1, 31464, Note_on_c, 5, 78, 96
1, 31476, Note_on_c, 3, 54, 80
1, 31476, Note_on_c, 4, 42, 80
1, 31476, Note_on_c, 6, 54, 96
1, 31485, Note_off_c, 0, 69, 0
1, 31486, Note_off_c, 3, 54, 0
1, 31486, Note_off_c, 4, 42, 0
1, 31486, Note_off_c, 6, 54, 0
1, 31488, Note_on_c, 0, 78, 80
1, 31488, Note_on_c, 1, 73, 80
1, 31488, Note_on_c, 2, 69, 80
1, 31488, Note_on_c, 3, 56, 80
1, 31488, Note_on_c, 4, 44, 80
1, 31488, Note_on_c, 6, 56, 96
1, 31498, Note_off_c, 3, 56, 0
1, 31498, Note_off_c, 4, 44, 0
1, 31498, Note_off_c, 6, 56, 0
1, 31500, Note_on_c, 3, 57, 80
1, 31500, Note_on_c, 4, 45, 80
1, 31500, Note_on_c, 6, 57, 96
1, 31509, Note_off_c, 0, 78, 0
1, 31509, Note_off_c, 1, 73, 0
1, 31509, Note_off_c, 2, 69, 0
1, 31510, Note_off_c, 3, 57, 0
1, 31510, Note_off_c, 4, 45, 0
1, 31510, Note_off_c, 6, 57, 0
1, 31512, Note_on_c, 0, 78, 80
1, 31512, Note_on_c, 1, 71, 80
1, 31512, Note_on_c, 2, 66, 80
1, 31512, Note_on_c, 3, 51, 80
1, 31512, Note_on_c, 4, 39, 80
1, 31512, Note_on_c, 6, 51, 96
1, 31516, Note_off_c, 5, 78, 0
1, 31524, Note_on_c, 5, 69, 96
1, 31533, Note_off_c, 0, 78, 0
1, 31533, Note_off_c, 1, 71, 0
1, 31533, Note_off_c, 2, 66, 0
1, 31533, Note_off_c, 3, 51, 0
1, 31533, Note_off_c, 4, 39, 0
1, 31533, Note_off_c, 6, 51, 0
1, 31534, Note_off_c, 5, 69, 0
1, 31536, Note_on_c, 0, 75, 80
1, 31536, Note_on_c, 1, 71, 80
1, 31536, Note_on_c, 2, 66, 80
1, 31536, Note_on_c, 3, 59, 80
1, 31536, Note_on_c, 4, 47, 80
1, 31536, Note_on_c, 5, 68, 96
1, 31536, Note_on_c, 6, 59, 96
1, 31546, Note_off_c, 5, 68, 0
1, 31548, Note_on_c, 5, 69, 96
1, 31557, Note_off_c, 0, 75, 0
1, 31557, Note_off_c, 1, 71, 0
1, 31557, Note_off_c, 2, 66, 0
1, 31557, Note_off_c, 3, 59, 0
1, 31557, Note_off_c, 4, 47, 0
1, 31557, Note_off_c, 6, 59, 0
1, 31558, Note_off_c, 5, 69, 0
1, 31560, Note_on_c, 0, 75, 80
1, 31560, Note_on_c, 1, 71, 80
1, 31560, Note_on_c, 2, 66, 80
1, 31560, Note_on_c, 5, 71, 96
1, 31572, Note_on_c, 3, 47, 80
1, 31572, Note_on_c, 4, 35, 80
1, 31572, Note_on_c, 6, 47, 96
1, 31581, Note_off_c, 0, 75, 0
1, 31581, Note_off_c, 1, 71, 0
1, 31581, Note_off_c, 2, 66, 0
1, 31581, Note_off_c, 5, 71, 0
1, 31582, Note_off_c, 3, 47, 0
1, 31582, Note_off_c, 4, 35, 0
1, 31582, Note_off_c, 6, 47, 0
1, 31584, Note_on_c, 0, 71, 80
1, 31584, Note_on_c, 1, 66, 80
1, 31584, Note_on_c, 2, 63, 80
1, 31584, Note_on_c, 3, 49, 80
1, 31584, Note_on_c, 4, 37, 80
1, 31584, Note_on_c, 5, 69, 96
1, 31584, Note_on_c, 6, 49, 96
1, 31594, Note_off_c, 3, 49, 0
1, 31594, Note_off_c, 4, 37, 0
1, 31594, Note_off_c, 6, 49, 0
1, 31596, Note_on_c, 3, 51, 80
1, 31596, Note_on_c, 4, 39, 80
1, 31596, Note_on_c, 6, 51, 96
1, 31605, Note_off_c, 0, 71, 0
1, 31605, Note_off_c, 1, 66, 0
1, 31605, Note_off_c, 2, 63, 0
1, 31605, Note_off_c, 5, 69, 0
1, 31606, Note_off_c, 3, 51, 0
1, 31606, Note_off_c, 4, 39, 0
1, 31606, Note_off_c, 6, 51, 0
1, 31608, Note_on_c, 0, 71, 80
1, 31608, Note_on_c, 1, 68, 80
1, 31608, Note_on_c, 2, 59, 80
1, 31608, Note_on_c, 3, 52, 80
1, 31608, Note_on_c, 4, 40, 80
1, 31608, Note_on_c, 5, 68, 96
1, 31608, Note_on_c, 6, 52, 96
1, 31618, Note_off_c, 0, 71, 0
1, 31618, Note_off_c, 5, 68, 0
1, 31620, Note_on_c, 0, 69, 80
1, 31620, Note_on_c, 5, 71, 96
1, 31629, Note_off_c, 3, 52, 0
1, 31629, Note_off_c, 4, 40, 0
1, 31629, Note_off_c, 6, 52, 0
1, 31630, Note_off_c, 0, 69, 0
1, 31630, Note_off_c, 5, 71, 0
1, 31632, Note_on_c, 0, 68, 80
1, 31632, Note_on_c, 3, 40, 80
1, 31632, Note_on_c, 4, 28, 80
1, 31632, Note_on_c, 5, 76, 96
1, 31632, Note_on_c, 6, 40, 96
1, 31642, Note_off_c, 0, 68, 0
1, 31642, Note_off_c, 5, 76, 0
1, 31644, Note_on_c, 0, 66, 80
1, 31644, Note_on_c, 5, 78, 96
1, 31650, Note_off_c, 1, 68, 0
1, 31650, Note_off_c, 2, 59, 0
1, 31653, Note_off_c, 3, 40, 0
1, 31653, Note_off_c, 4, 28, 0
1, 31653, Note_off_c, 6, 40, 0
1, 31654, Note_off_c, 0, 66, 0
1, 31654, Note_off_c, 5, 78, 0
1, 31656, Note_on_c, 0, 64, 80
1, 31656, Note_on_c, 5, 80, 96
1, 31668, Note_on_c, 1, 76, 80
1, 31668, Note_on_c, 3, 52, 80
1, 31668, Note_on_c, 4, 40, 80
1, 31668, Note_on_c, 6, 52, 96
1, 31677, Note_off_c, 0, 64, 0
1, 31678, Note_off_c, 1, 76, 0
1, 31678, Note_off_c, 3, 52, 0
1, 31678, Note_off_c, 4, 40, 0
1, 31678, Note_off_c, 6, 52, 0
1, 31680, Note_on_c, 0, 71, 80
1, 31680, Note_on_c, 1, 75, 80
1, 31680, Note_on_c, 3, 54, 80
1, 31680, Note_on_c, 4, 42, 80
1, 31680, Note_on_c, 6, 54, 96
1, 31690, Note_off_c, 1, 75, 0
1, 31690, Note_off_c, 3, 54, 0
1, 31690, Note_off_c, 4, 42, 0
1, 31690, Note_off_c, 6, 54, 0
1, 31692, Note_on_c, 1, 76, 80
1, 31692, Note_on_c, 3, 56, 80
1, 31692, Note_on_c, 4, 44, 80
1, 31692, Note_on_c, 6, 56, 96
1, 31701, Note_off_c, 0, 71, 0
1, 31702, Note_off_c, 1, 76, 0
1, 31702, Note_off_c, 3, 56, 0
1, 31702, Note_off_c, 4, 44, 0
1, 31702, Note_off_c, 6, 56, 0
1, 31704, Note_on_c, 0, 73, 80
1, 31704, Note_on_c, 1, 73, 80
1, 31704, Note_on_c, 3, 57, 80
1, 31704, Note_on_c, 4, 45, 80
1, 31704, Note_on_c, 6, 57, 96
1, 31708, Note_off_c, 5, 80, 0
1, 31714, Note_off_c, 0, 73, 0
1, 31716, Note_on_c, 0, 76, 80
1, 31716, Note_on_c, 2, 61, 80
1, 31716, Note_on_c, 5, 76, 96
1, 31725, Note_off_c, 3, 57, 0
1, 31725, Note_off_c, 4, 45, 0
1, 31725, Note_off_c, 6, 57, 0
1, 31726, Note_off_c, 0, 76, 0
1, 31726, Note_off_c, 2, 61, 0
1, 31726, Note_off_c, 5, 76, 0
1, 31728, Note_on_c, 0, 78, 80
1, 31728, Note_on_c, 2, 63, 80
1, 31728, Note_on_c, 3, 45, 80
1, 31728, Note_on_c, 4, 33, 80
1, 31728, Note_on_c, 5, 75, 96
1, 31728, Note_on_c, 6, 45, 96
1, 31732, Note_off_c, 5, 75, 0
1, 31732, Note_on_c, 5, 76, 96
1, 31736, Note_off_c, 5, 76, 0
1, 31736, Note_on_c, 5, 75, 96
1, 31738, Note_off_c, 0, 78, 0
1, 31738, Note_off_c, 2, 63, 0
1, 31739, Note_off_c, 5, 75, 0
1, 31740, Note_on_c, 0, 80, 80
1, 31740, Note_on_c, 2, 64, 80
1, 31740, Note_on_c, 5, 73, 96
1, 31749, Note_off_c, 3, 45, 0
1, 31749, Note_off_c, 4, 33, 0
1, 31749, Note_off_c, 6, 45, 0
1, 31750, Note_off_c, 0, 80, 0
1, 31750, Note_off_c, 2, 64, 0
1, 31750, Note_off_c, 5, 73, 0
1, 31752, Note_on_c, 0, 81, 80
1, 31752, Note_on_c, 2, 66, 80
1, 31752, Note_on_c, 5, 81, 96
1, 31756, Note_off_c, 1, 73, 0
1, 31764, Note_on_c, 1, 69, 80
1, 31764, Note_on_c, 3, 54, 80
1, 31764, Note_on_c, 4, 42, 80
1, 31764, Note_on_c, 6, 54, 96
1, 31773, Note_off_c, 0, 81, 0
1, 31774, Note_off_c, 1, 69, 0
1, 31774, Note_off_c, 3, 54, 0
1, 31774, Note_off_c, 4, 42, 0
1, 31774, Note_off_c, 6, 54, 0
1, 31776, Note_on_c, 0, 78, 80
1, 31776, Note_on_c, 1, 71, 80
1, 31776, Note_on_c, 3, 56, 80
1, 31776, Note_on_c, 4, 44, 80
1, 31776, Note_on_c, 6, 56, 96
1, 31786, Note_off_c, 1, 71, 0
1, 31786, Note_off_c, 3, 56, 0
1, 31786, Note_off_c, 4, 44, 0
1, 31786, Note_off_c, 6, 56, 0
1, 31788, Note_on_c, 1, 73, 80
1, 31788, Note_on_c, 3, 57, 80
1, 31788, Note_on_c, 4, 45, 80
1, 31788, Note_on_c, 6, 57, 96
1, 31797, Note_off_c, 0, 78, 0
1, 31798, Note_off_c, 1, 73, 0
1, 31798, Note_off_c, 3, 57, 0
1, 31798, Note_off_c, 4, 45, 0
1, 31798, Note_off_c, 6, 57, 0
1, 31799, Note_off_c, 5, 81, 0
1, 31800, Note_on_c, 0, 75, 80
1, 31800, Note_on_c, 1, 75, 80
1, 31800, Note_on_c, 3, 59, 80
1, 31800, Note_on_c, 4, 47, 80
1, 31800, Note_on_c, 6, 59, 96
1, 31804, Note_off_c, 2, 66, 0
1, 31806, Note_on_c, 5, 76, 96
1, 31810, Note_off_c, 0, 75, 0
1, 31811, Note_off_c, 5, 76, 0
1, 31812, Note_on_c, 0, 78, 80
1, 31812, Note_on_c, 2, 63, 80
1, 31812, Note_on_c, 5, 75, 96
1, 31817, Note_off_c, 5, 75, 0
1, 31818, Note_on_c, 5, 73, 96
1, 31821, Note_off_c, 3, 59, 0
1, 31821, Note_off_c, 4, 47, 0
1, 31821, Note_off_c, 6, 59, 0
1, 31822, Note_off_c, 0, 78, 0
1, 31822, Note_off_c, 2, 63, 0
1, 31823, Note_off_c, 5, 73, 0
1, 31824, Note_on_c, 0, 80, 80
1, 31824, Note_on_c, 2, 64, 80
1, 31824, Note_on_c, 3, 47, 80
1, 31824, Note_on_c, 4, 35, 80
1, 31824, Note_on_c, 5, 75, 96
1, 31824, Note_on_c, 6, 47, 96
1, 31834, Note_off_c, 0, 80, 0
1, 31834, Note_off_c, 2, 64, 0
1, 31834, Note_off_c, 5, 75, 0
1, 31836, Note_on_c, 0, 81, 80
1, 31836, Note_on_c, 2, 66, 80
1, 31836, Note_on_c, 5, 78, 96
1, 31845, Note_off_c, 3, 47, 0
1, 31845, Note_off_c, 4, 35, 0
1, 31845, Note_off_c, 6, 47, 0
1, 31846, Note_off_c, 0, 81, 0
1, 31846, Note_off_c, 2, 66, 0
1, 31846, Note_off_c, 5, 78, 0
1, 31848, Note_on_c, 0, 83, 80
1, 31848, Note_on_c, 2, 68, 80
1, 31848, Note_on_c, 5, 83, 96
1, 31852, Note_off_c, 1, 75, 0
1, 31860, Note_on_c, 1, 71, 80
1, 31860, Note_on_c, 3, 56, 80
1, 31860, Note_on_c, 4, 44, 80
1, 31860, Note_on_c, 6, 56, 96
1, 31869, Note_off_c, 0, 83, 0
1, 31870, Note_off_c, 1, 71, 0
1, 31870, Note_off_c, 3, 56, 0
1, 31870, Note_off_c, 4, 44, 0
1, 31870, Note_off_c, 6, 56, 0
1, 31872, Note_on_c, 0, 80, 80
1, 31872, Note_on_c, 1, 73, 80
1, 31872, Note_on_c, 3, 57, 80
1, 31872, Note_on_c, 4, 45, 80
1, 31872, Note_on_c, 6, 57, 96
1, 31882, Note_off_c, 1, 73, 0
1, 31882, Note_off_c, 3, 57, 0
1, 31882, Note_off_c, 4, 45, 0
1, 31882, Note_off_c, 6, 57, 0
1, 31884, Note_on_c, 1, 75, 80
1, 31884, Note_on_c, 3, 59, 80
1, 31884, Note_on_c, 4, 47, 80
1, 31884, Note_on_c, 6, 59, 96
1, 31893, Note_off_c, 0, 80, 0
1, 31894, Note_off_c, 1, 75, 0
1, 31894, Note_off_c, 3, 59, 0
1, 31894, Note_off_c, 4, 47, 0
1, 31894, Note_off_c, 6, 59, 0
1, 31896, Note_on_c, 0, 76, 80
1, 31896, Note_on_c, 1, 76, 80
1, 31896, Note_on_c, 3, 61, 80
1, 31896, Note_on_c, 4, 49, 80
1, 31896, Note_on_c, 6, 61, 96
1, 31900, Note_off_c, 5, 83, 0
1, 31908, Note_on_c, 5, 81, 96
1, 31911, Note_off_c, 2, 68, 0
1, 31917, Note_off_c, 0, 76, 0
1, 31917, Note_off_c, 1, 76, 0
1, 31917, Note_off_c, 3, 61, 0
1, 31917, Note_off_c, 4, 49, 0
1, 31917, Note_off_c, 6, 61, 0
1, 31918, Note_off_c, 5, 81, 0
1, 31920, Note_on_c, 0, 75, 80
1, 31920, Note_on_c, 1, 80, 80
1, 31920, Note_on_c, 2, 68, 80
1, 31920, Note_on_c, 3, 59, 80
1, 31920, Note_on_c, 4, 47, 80
1, 31920, Note_on_c, 5, 80, 96
1, 31920, Note_on_c, 6, 59, 96
1, 31930, Note_off_c, 5, 80, 0
1, 31932, Note_on_c, 5, 78, 96
1, 31941, Note_off_c, 0, 75, 0
1, 31941, Note_off_c, 1, 80, 0
1, 31941, Note_off_c, 2, 68, 0
1, 31941, Note_off_c, 3, 59, 0
1, 31941, Note_off_c, 4, 47, 0
1, 31941, Note_off_c, 6, 59, 0
1, 31942, Note_off_c, 5, 78, 0
1, 31944, Note_on_c, 0, 76, 80
1, 31944, Note_on_c, 1, 73, 80
1, 31944, Note_on_c, 2, 68, 80
1, 31944, Note_on_c, 3, 61, 80
1, 31944, Note_on_c, 4, 49, 80
1, 31944, Note_on_c, 5, 76, 96
1, 31944, Note_on_c, 6, 61, 96
1, 31954, Note_off_c, 5, 76, 0
1, 31956, Note_on_c, 5, 80, 96
1, 31965, Note_off_c, 0, 76, 0
1, 31965, Note_off_c, 1, 73, 0
1, 31965, Note_off_c, 2, 68, 0
1, 31965, Note_off_c, 3, 61, 0
1, 31965, Note_off_c, 4, 49, 0
1, 31965, Note_off_c, 6, 61, 0
1, 31966, Note_off_c, 5, 80, 0
1, 31968, Note_on_c, 0, 73, 80
1, 31968, Note_on_c, 1, 78, 80
1, 31968, Note_on_c, 2, 61, 80
1, 31968, Note_on_c, 3, 58, 80
1, 31968, Note_on_c, 4, 46, 80
1, 31968, Note_on_c, 5, 78, 96
1, 31968, Note_on_c, 6, 58, 96
1, 31978, Note_off_c, 5, 78, 0
1, 31980, Note_on_c, 5, 76, 96
1, 31989, Note_off_c, 0, 73, 0
1, 31989, Note_off_c, 1, 78, 0
1, 31989, Note_off_c, 2, 61, 0
1, 31989, Note_off_c, 3, 58, 0
1, 31989, Note_off_c, 4, 46, 0
1, 31989, Note_off_c, 6, 58, 0
1, 31990, Note_off_c, 5, 76, 0
1, 31992, Note_on_c, 0, 75, 80
1, 31992, Note_on_c, 1, 66, 80
1, 31992, Note_on_c, 2, 59, 80
1, 31992, Note_on_c, 3, 59, 80
1, 31992, Note_on_c, 4, 47, 80
1, 31992, Note_on_c, 5, 75, 96
1, 31992, Note_on_c, 6, 59, 96
1, 32002, Note_off_c, 5, 75, 0
1, 32004, Note_on_c, 5, 76, 96
1, 32013, Note_off_c, 0, 75, 0
1, 32013, Note_off_c, 1, 66, 0
1, 32013, Note_off_c, 2, 59, 0
1, 32013, Note_off_c, 3, 59, 0
1, 32013, Note_off_c, 4, 47, 0
1, 32013, Note_off_c, 6, 59, 0
1, 32014, Note_off_c, 5, 76, 0
1, 32016, Note_on_c, 0, 71, 80
1, 32016, Note_on_c, 1, 71, 80
1, 32016, Note_on_c, 2, 63, 80
1, 32016, Note_on_c, 3, 57, 80
1, 32016, Note_on_c, 4, 45, 80
1, 32016, Note_on_c, 5, 78, 96
1, 32016, Note_on_c, 6, 57, 96
1, 32026, Note_off_c, 5, 78, 0
1, 32028, Note_on_c, 5, 75, 96
1, 32037, Note_off_c, 0, 71, 0
1, 32037, Note_off_c, 1, 71, 0
1, 32037, Note_off_c, 2, 63, 0
1, 32037, Note_off_c, 3, 57, 0
1, 32037, Note_off_c, 4, 45, 0
1, 32037, Note_off_c, 6, 57, 0
1, 32038, Note_off_c, 5, 75, 0
1, 32040, Note_on_c, 3, 56, 80
1, 32040, Note_on_c, 4, 44, 80
1, 32040, Note_on_c, 5, 71, 96
1, 32040, Note_on_c, 6, 56, 96
1, 32052, Note_on_c, 0, 71, 80
1, 32061, Note_off_c, 3, 56, 0
1, 32061, Note_off_c, 4, 44, 0
1, 32061, Note_off_c, 5, 71, 0
1, 32061, Note_off_c, 6, 56, 0
1, 32062, Note_off_c, 0, 71, 0
1, 32064, Note_on_c, 0, 73, 80
1, 32064, Note_on_c, 3, 54, 80
1, 32064, Note_on_c, 4, 42, 80
1, 32064, Note_on_c, 5, 69, 96
1, 32064, Note_on_c, 6, 54, 96
1, 32074, Note_off_c, 0, 73, 0
1, 32076, Note_on_c, 0, 75, 80
1, 32085, Note_off_c, 3, 54, 0
1, 32085, Note_off_c, 4, 42, 0
1, 32085, Note_off_c, 5, 69, 0
1, 32085, Note_off_c, 6, 54, 0
1, 32086, Note_off_c, 0, 75, 0
1, 32088, Note_on_c, 0, 76, 80
1, 32088, Note_on_c, 3, 52, 80
1, 32088, Note_on_c, 4, 40, 80
1, 32088, Note_on_c, 5, 68, 96
1, 32088, Note_on_c, 6, 52, 96
1, 32098, Note_off_c, 0, 76, 0
1, 32098, Note_off_c, 5, 68, 0
1, 32100, Note_on_c, 0, 75, 80
1, 32100, Note_on_c, 5, 66, 96
1, 32109, Note_off_c, 3, 52, 0
1, 32109, Note_off_c, 4, 40, 0
1, 32109, Note_off_c, 6, 52, 0
1, 32110, Note_off_c, 0, 75, 0
1, 32110, Note_off_c, 5, 66, 0
1, 32112, Note_on_c, 0, 76, 80
1, 32112, Note_on_c, 1, 76, 80
1, 32112, Note_on_c, 2, 68, 80
1, 32112, Note_on_c, 3, 64, 80
1, 32112, Note_on_c, 4, 52, 80
1, 32112, Note_on_c, 5, 68, 96
1, 32112, Note_on_c, 6, 64, 96
1, 32122, Note_off_c, 0, 76, 0
1, 32122, Note_off_c, 5, 68, 0
1, 32124, Note_on_c, 0, 80, 80
1, 32124, Note_on_c, 5, 71, 96
1, 32133, Note_off_c, 1, 76, 0
1, 32133, Note_off_c, 2, 68, 0
1, 32133, Note_off_c, 3, 64, 0
1, 32133, Note_off_c, 4, 52, 0
1, 32133, Note_off_c, 6, 64, 0
1, 32134, Note_off_c, 0, 80, 0
1, 32134, Note_off_c, 5, 71, 0
1, 32136, Note_on_c, 0, 76, 80
1, 32136, Note_on_c, 1, 76, 80
1, 32136, Note_on_c, 2, 68, 80
1, 32136, Note_on_c, 5, 68, 96
1, 32146, Note_off_c, 0, 76, 0
1, 32146, Note_off_c, 5, 68, 0
1, 32148, Note_on_c, 0, 71, 80
1, 32148, Note_on_c, 5, 71, 96
1, 32157, Note_off_c, 1, 76, 0
1, 32157, Note_off_c, 2, 68, 0
1, 32158, Note_off_c, 0, 71, 0
1, 32158, Note_off_c, 5, 71, 0
1, 32160, Note_on_c, 0, 68, 80
1, 32160, Note_on_c, 1, 71, 80
1, 32160, Note_on_c, 2, 64, 80
1, 32160, Note_on_c, 3, 52, 80
1, 32160, Note_on_c, 4, 40, 80
1, 32160, Note_on_c, 5, 76, 96
1, 32160, Note_on_c, 6, 52, 96
1, 32170, Note_off_c, 0, 68, 0
1, 32170, Note_off_c, 3, 52, 0
1, 32170, Note_off_c, 4, 40, 0
1, 32170, Note_off_c, 5, 76, 0
1, 32170, Note_off_c, 6, 52, 0
1, 32172, Note_on_c, 0, 71, 80
1, 32172, Note_on_c, 3, 51, 80
1, 32172, Note_on_c, 4, 39, 80
1, 32172, Note_on_c, 5, 71, 96
1, 32172, Note_on_c, 6, 51, 96
1, 32181, Note_off_c, 1, 71, 0
1, 32181, Note_off_c, 2, 64, 0
1, 32182, Note_off_c, 0, 71, 0
1, 32182, Note_off_c, 3, 51, 0
1, 32182, Note_off_c, 4, 39, 0
1, 32182, Note_off_c, 5, 71, 0
1, 32182, Note_off_c, 6, 51, 0
1, 32184, Note_on_c, 0, 64, 80
1, 32184, Note_on_c, 1, 73, 80
1, 32184, Note_on_c, 2, 64, 80
1, 32184, Note_on_c, 3, 49, 80
1, 32184, Note_on_c, 4, 37, 80
1, 32184, Note_on_c, 5, 80, 96
1, 32184, Note_on_c, 6, 49, 96
1, 32194, Note_off_c, 0, 64, 0
1, 32194, Note_off_c, 5, 80, 0
1, 32196, Note_on_c, 0, 71, 80
1, 32196, Note_on_c, 5, 78, 96
1, 32205, Note_off_c, 1, 73, 0
1, 32205, Note_off_c, 2, 64, 0
1, 32205, Note_off_c, 3, 49, 0
1, 32205, Note_off_c, 4, 37, 0
1, 32205, Note_off_c, 6, 49, 0
1, 32206, Note_off_c, 0, 71, 0
1, 32206, Note_off_c, 5, 78, 0
1, 32208, Note_on_c, 0, 68, 80
1, 32208, Note_on_c, 1, 80, 80
1, 32208, Note_on_c, 2, 73, 80
1, 32208, Note_on_c, 3, 61, 80
1, 32208, Note_on_c, 4, 49, 80
1, 32208, Note_on_c, 5, 76, 96
1, 32208, Note_on_c, 6, 61, 96
1, 32218, Note_off_c, 0, 68, 0
1, 32218, Note_off_c, 5, 76, 0
1, 32220, Note_on_c, 0, 71, 80
1, 32220, Note_on_c, 5, 75, 96
1, 32229, Note_off_c, 1, 80, 0
1, 32229, Note_off_c, 2, 73, 0
1, 32229, Note_off_c, 3, 61, 0
1, 32229, Note_off_c, 4, 49, 0
1, 32229, Note_off_c, 6, 61, 0
1, 32230, Note_off_c, 0, 71, 0
1, 32230, Note_off_c, 5, 75, 0
1, 32232, Note_on_c, 0, 64, 80
1, 32232, Note_on_c, 1, 80, 80
1, 32232, Note_on_c, 2, 73, 80
1, 32232, Note_on_c, 5, 76, 96
1, 32242, Note_off_c, 0, 64, 0
1, 32244, Note_on_c, 0, 71, 80
1, 32244, Note_on_c, 3, 49, 80
1, 32244, Note_on_c, 4, 37, 80
1, 32244, Note_on_c, 6, 49, 96
1, 32253, Note_off_c, 1, 80, 0
1, 32253, Note_off_c, 2, 73, 0
1, 32253, Note_off_c, 5, 76, 0
1, 32254, Note_off_c, 0, 71, 0
1, 32254, Note_off_c, 3, 49, 0
1, 32254, Note_off_c, 4, 37, 0
1, 32254, Note_off_c, 6, 49, 0
1, 32256, Note_on_c, 0, 68, 80
1, 32256, Note_on_c, 1, 76, 80
1, 32256, Note_on_c, 2, 68, 80
1, 32256, Note_on_c, 3, 47, 80
1, 32256, Note_on_c, 4, 35, 80
1, 32256, Note_on_c, 5, 83, 96
1, 32256, Note_on_c, 6, 47, 96
1, 32266, Note_off_c, 0, 68, 0
1, 32266, Note_off_c, 3, 47, 0
1, 32266, Note_off_c, 4, 35, 0
1, 32266, Note_off_c, 6, 47, 0
1, 32268, Note_on_c, 0, 71, 80
1, 32268, Note_on_c, 3, 45, 80
1, 32268, Note_on_c, 4, 33, 80
1, 32268, Note_on_c, 6, 45, 96
1, 32277, Note_off_c, 1, 76, 0
1, 32277, Note_off_c, 2, 68, 0
1, 32278, Note_off_c, 0, 71, 0
1, 32278, Note_off_c, 3, 45, 0
1, 32278, Note_off_c, 4, 33, 0
1, 32278, Note_off_c, 6, 45, 0
1, 32280, Note_on_c, 0, 76, 80
1, 32280, Note_on_c, 1, 76, 80
1, 32280, Note_on_c, 2, 68, 80
1, 32280, Note_on_c, 3, 44, 80
1, 32280, Note_on_c, 4, 32, 80
1, 32280, Note_on_c, 6, 44, 96
1, 32287, Note_off_c, 5, 83, 0
1, 32290, Note_off_c, 0, 76, 0
1, 32292, Note_on_c, 0, 75, 80
1, 32292, Note_on_c, 5, 85, 96
1, 32301, Note_off_c, 1, 76, 0
1, 32301, Note_off_c, 2, 68, 0
1, 32301, Note_off_c, 3, 44, 0
1, 32301, Note_off_c, 4, 32, 0
1, 32301, Note_off_c, 6, 44, 0
1, 32302, Note_off_c, 0, 75, 0
1, 32302, Note_off_c, 5, 85, 0
1, 32304, Note_on_c, 0, 76, 80
1, 32304, Note_on_c, 1, 64, 80
1, 32304, Note_on_c, 2, 59, 80
1, 32304, Note_on_c, 3, 56, 80
1, 32304, Note_on_c, 4, 44, 80
1, 32304, Note_on_c, 5, 83, 96
1, 32304, Note_on_c, 6, 56, 96
1, 32314, Note_off_c, 0, 76, 0
1, 32314, Note_off_c, 5, 83, 0
1, 32316, Note_on_c, 0, 80, 80
1, 32316, Note_on_c, 5, 81, 96
1, 32325, Note_off_c, 1, 64, 0
1, 32325, Note_off_c, 2, 59, 0
1, 32325, Note_off_c, 3, 56, 0
1, 32325, Note_off_c, 4, 44, 0
1, 32325, Note_off_c, 6, 56, 0
1, 32326, Note_off_c, 0, 80, 0
1, 32326, Note_off_c, 5, 81, 0
1, 32328, Note_on_c, 0, 76, 80
1, 32328, Note_on_c, 1, 68, 80
1, 32328, Note_on_c, 2, 64, 80
1, 32328, Note_on_c, 5, 80, 96
1, 32338, Note_off_c, 0, 76, 0
1, 32338, Note_off_c, 5, 80, 0
1, 32340, Note_on_c, 0, 71, 80
1, 32340, Note_on_c, 5, 78, 96
1, 32349, Note_off_c, 1, 68, 0
1, 32349, Note_off_c, 2, 64, 0
1, 32350, Note_off_c, 0, 71, 0
1, 32350, Note_off_c, 5, 78, 0
1, 32352, Note_on_c, 0, 68, 80
1, 32352, Note_on_c, 1, 71, 80
1, 32352, Note_on_c, 2, 68, 80
1, 32352, Note_on_c, 3, 44, 80
1, 32352, Note_on_c, 4, 32, 80
1, 32352, Note_on_c, 5, 76, 96
1, 32352, Note_on_c, 6, 44, 96
1, 32362, Note_off_c, 0, 68, 0
1, 32362, Note_off_c, 3, 44, 0
1, 32362, Note_off_c, 4, 32, 0
1, 32362, Note_off_c, 5, 76, 0
1, 32362, Note_off_c, 6, 44, 0
1, 32364, Note_on_c, 0, 71, 80
1, 32364, Note_on_c, 3, 42, 80
1, 32364, Note_on_c, 4, 30, 80
1, 32364, Note_on_c, 5, 75, 96
1, 32364, Note_on_c, 6, 42, 96
1, 32373, Note_off_c, 1, 71, 0
1, 32373, Note_off_c, 2, 68, 0
1, 32374, Note_off_c, 0, 71, 0
1, 32374, Note_off_c, 3, 42, 0
1, 32374, Note_off_c, 4, 30, 0
1, 32374, Note_off_c, 5, 75, 0
1, 32374, Note_off_c, 6, 42, 0
1, 32376, Note_on_c, 0, 64, 80
1, 32376, Note_on_c, 1, 76, 80
1, 32376, Note_on_c, 2, 71, 80
1, 32376, Note_on_c, 3, 40, 80
1, 32376, Note_on_c, 4, 28, 80
1, 32376, Note_on_c, 5, 76, 96
1, 32376, Note_on_c, 6, 40, 96
1, 32386, Note_off_c, 0, 64, 0
1, 32386, Note_off_c, 1, 76, 0
1, 32386, Note_off_c, 5, 76, 0
1, 32388, Note_on_c, 0, 71, 80
1, 32388, Note_on_c, 1, 75, 80
1, 32388, Note_on_c, 5, 71, 96
1, 32397, Note_off_c, 2, 71, 0
1, 32397, Note_off_c, 3, 40, 0
1, 32397, Note_off_c, 4, 28, 0
1, 32397, Note_off_c, 6, 40, 0
1, 32398, Note_off_c, 0, 71, 0
1, 32398, Note_off_c, 1, 75, 0
1, 32398, Note_off_c, 5, 71, 0
1, 32400, Note_on_c, 0, 68, 80
1, 32400, Note_on_c, 1, 76, 80
1, 32400, Note_on_c, 2, 59, 80
1, 32400, Note_on_c, 3, 52, 80
1, 32400, Note_on_c, 4, 40, 80
1, 32400, Note_on_c, 5, 68, 96
1, 32400, Note_on_c, 6, 52, 96
1, 32410, Note_off_c, 0, 68, 0
1, 32410, Note_off_c, 1, 76, 0
1, 32410, Note_off_c, 5, 68, 0
1, 32412, Note_on_c, 0, 71, 80
1, 32412, Note_on_c, 1, 75, 80
1, 32412, Note_on_c, 5, 71, 96
1, 32421, Note_off_c, 2, 59, 0
1, 32421, Note_off_c, 3, 52, 0
1, 32421, Note_off_c, 4, 40, 0
1, 32421, Note_off_c, 6, 52, 0
1, 32422, Note_off_c, 0, 71, 0
1, 32422, Note_off_c, 1, 75, 0
1, 32422, Note_off_c, 5, 71, 0
1, 32424, Note_on_c, 0, 76, 80
1, 32424, Note_on_c, 1, 76, 80
1, 32424, Note_on_c, 2, 71, 80
1, 32424, Note_on_c, 3, 56, 80
1, 32424, Note_on_c, 4, 44, 80
1, 32424, Note_on_c, 5, 76, 96
1, 32424, Note_on_c, 6, 56, 96
1, 32434, Note_off_c, 0, 76, 0
1, 32434, Note_off_c, 5, 76, 0
1, 32436, Note_on_c, 0, 71, 80
1, 32436, Note_on_c, 5, 80, 96
1, 32445, Note_off_c, 1, 76, 0
1, 32445, Note_off_c, 2, 71, 0
1, 32445, Note_off_c, 3, 56, 0
1, 32445, Note_off_c, 4, 44, 0
1, 32445, Note_off_c, 6, 56, 0
1, 32446, Note_off_c, 0, 71, 0
1, 32446, Note_off_c, 5, 80, 0
1, 32448, Note_on_c, 0, 78, 96
1, 32448, Note_on_c, 1, 75, 96
1, 32448, Note_on_c, 2, 71, 96
1, 32448, Note_on_c, 3, 59, 96
1, 32448, Note_on_c, 4, 47, 96
1, 32448, Note_on_c, 5, 78, 96
1, 32448, Note_on_c, 6, 59, 96
1, 32458, Note_off_c, 0, 78, 0
1, 32458, Note_off_c, 5, 78, 0
1, 32460, Note_on_c, 0, 71, 96
1, 32460, Note_on_c, 5, 81, 96
1, 32469, Note_off_c, 1, 75, 0
1, 32469, Note_off_c, 2, 71, 0
1, 32469, Note_off_c, 3, 59, 0
1, 32469, Note_off_c, 4, 47, 0
1, 32469, Note_off_c, 6, 59, 0
1, 32470, Note_off_c, 0, 71, 0
1, 32470, Note_off_c, 5, 81, 0
1, 32472, Note_on_c, 0, 80, 96
1, 32472, Note_on_c, 1, 76, 96
1, 32472, Note_on_c, 2, 71, 96
1, 32472, Note_on_c, 3, 64, 96
1, 32472, Note_on_c, 4, 52, 96
1, 32472, Note_on_c, 5, 80, 96
1, 32472, Note_on_c, 6, 64, 96
1, 32493, Note_off_c, 0, 80, 0
1, 32493, Note_off_c, 1, 76, 0
1, 32493, Note_off_c, 2, 71, 0
1, 32493, Note_off_c, 3, 64, 0
1, 32493, Note_off_c, 4, 52, 0
1, 32493, Note_off_c, 5, 80, 0
1, 32493, Note_off_c, 6, 64, 0
1, 32496, Note_on_c, 0, 78, 96
1, 32496, Note_on_c, 1, 78, 96
1, 32496, Note_on_c, 2, 71, 96
1, 32496, Note_on_c, 3, 63, 96
1, 32496, Note_on_c, 4, 51, 96
1, 32496, Note_on_c, 5, 78, 96
1, 32496, Note_on_c, 6, 63, 96
1, 32517, Note_off_c, 0, 78, 0
1, 32517, Note_off_c, 1, 78, 0
1, 32517, Note_off_c, 2, 71, 0
1, 32517, Note_off_c, 3, 63, 0
1, 32517, Note_off_c, 4, 51, 0
1, 32517, Note_off_c, 5, 78, 0
1, 32517, Note_off_c, 6, 63, 0
1, 32520, Note_on_c, 0, 81, 96
1, 32520, Note_on_c, 1, 76, 96
1, 32520, Note_on_c, 2, 64, 96
1, 32520, Note_on_c, 3, 61, 96
1, 32520, Note_on_c, 4, 49, 96
1, 32520, Note_on_c, 5, 81, 96
1, 32520, Note_on_c, 6, 61, 96
1, 32541, Note_off_c, 0, 81, 0
1, 32541, Note_off_c, 1, 76, 0
1, 32541, Note_off_c, 2, 64, 0
1, 32541, Note_off_c, 3, 61, 0
1, 32541, Note_off_c, 4, 49, 0
1, 32541, Note_off_c, 5, 81, 0
1, 32541, Note_off_c, 6, 61, 0
1, 32544, Note_on_c, 0, 80, 96
1, 32544, Note_on_c, 1, 76, 96
1, 32544, Note_on_c, 2, 68, 96
1, 32544, Note_on_c, 3, 59, 96
1, 32544, Note_on_c, 4, 47, 96
1, 32544, Note_on_c, 5, 80, 96
1, 32544, Note_on_c, 6, 59, 96
1, 32565, Note_off_c, 0, 80, 0
1, 32565, Note_off_c, 1, 76, 0
1, 32565, Note_off_c, 2, 68, 0
1, 32565, Note_off_c, 3, 59, 0
1, 32565, Note_off_c, 4, 47, 0
1, 32565, Note_off_c, 5, 80, 0
1, 32565, Note_off_c, 6, 59, 0
1, 32568, Note_on_c, 0, 78, 96
1, 32568, Note_on_c, 1, 75, 96
1, 32568, Note_on_c, 2, 71, 96
1, 32568, Note_on_c, 3, 57, 96
1, 32568, Note_on_c, 4, 45, 96
1, 32568, Note_on_c, 5, 78, 96
1, 32568, Note_on_c, 6, 57, 96
1, 32574, Note_off_c, 5, 78, 0
1, 32574, Note_on_c, 5, 80, 96
1, 32580, Note_off_c, 5, 80, 0
1, 32580, Note_on_c, 5, 78, 96
1, 32589, Note_off_c, 0, 78, 0
1, 32589, Note_off_c, 1, 75, 0
1, 32589, Note_off_c, 2, 71, 0
1, 32589, Note_off_c, 3, 57, 0
1, 32589, Note_off_c, 4, 45, 0
1, 32589, Note_off_c, 6, 57, 0
1, 32590, Note_off_c, 5, 78, 0
1, 32592, Note_on_c, 0, 76, 96
1, 32592, Note_on_c, 1, 76, 96
1, 32592, Note_on_c, 2, 59, 96
1, 32592, Note_on_c, 3, 56, 96
1, 32592, Note_on_c, 4, 44, 96
1, 32592, Note_on_c, 5, 76, 96
1, 32592, Note_on_c, 6, 56, 96
1, 32613, Note_off_c, 0, 76, 0
1, 32613, Note_off_c, 1, 76, 0
1, 32613, Note_off_c, 2, 59, 0
1, 32613, Note_off_c, 3, 56, 0
1, 32613, Note_off_c, 4, 44, 0
1, 32613, Note_off_c, 5, 76, 0
1, 32613, Note_off_c, 6, 56, 0
1, 32616, Note_on_c, 0, 83, 96
1, 32616, Note_on_c, 5, 83, 96
1, 32640, Note_on_c, 1, 76, 96
1, 32640, Note_on_c, 2, 71, 96
1, 32640, Note_on_c, 3, 56, 96
1, 32640, Note_on_c, 4, 44, 96
1, 32640, Note_on_c, 6, 56, 96
1, 32650, Note_off_c, 1, 76, 0
1, 32652, Note_on_c, 1, 75, 96
1, 32661, Note_off_c, 2, 71, 0
1, 32661, Note_off_c, 3, 56, 0
1, 32661, Note_off_c, 4, 44, 0
1, 32661, Note_off_c, 6, 56, 0
1, 32662, Note_off_c, 1, 75, 0
1, 32664, Note_on_c, 1, 76, 96
1, 32664, Note_on_c, 2, 68, 96
1, 32664, Note_on_c, 3, 61, 96
1, 32664, Note_on_c, 4, 49, 96
1, 32664, Note_on_c, 6, 61, 96
1, 32668, Note_off_c, 0, 83, 0
1, 32668, Note_off_c, 5, 83, 0
1, 32676, Note_on_c, 0, 76, 96
1, 32676, Note_on_c, 5, 76, 96
1, 32685, Note_off_c, 1, 76, 0
1, 32685, Note_off_c, 2, 68, 0
1, 32685, Note_off_c, 3, 61, 0
1, 32685, Note_off_c, 4, 49, 0
1, 32685, Note_off_c, 6, 61, 0
1, 32686, Note_off_c, 0, 76, 0
1, 32686, Note_off_c, 5, 76, 0
1, 32688, Note_on_c, 0, 75, 96
1, 32688, Note_on_c, 1, 80, 96
1, 32688, Note_on_c, 2, 71, 96
1, 32688, Note_on_c, 3, 59, 96
1, 32688, Note_on_c, 4, 47, 96
1, 32688, Note_on_c, 5, 75, 96
1, 32688, Note_on_c, 6, 59, 96
1, 32698, Note_off_c, 0, 75, 0
1, 32698, Note_off_c, 5, 75, 0
1, 32700, Note_on_c, 0, 76, 96
1, 32700, Note_on_c, 5, 76, 96
1, 32709, Note_off_c, 1, 80, 0
1, 32709, Note_off_c, 2, 71, 0
1, 32709, Note_off_c, 3, 59, 0
1, 32709, Note_off_c, 4, 47, 0
1, 32709, Note_off_c, 6, 59, 0
1, 32710, Note_off_c, 0, 76, 0
1, 32710, Note_off_c, 5, 76, 0
1, 32712, Note_on_c, 0, 78, 96
1, 32712, Note_on_c, 1, 75, 96
1, 32712, Note_on_c, 2, 71, 96
1, 32712, Note_on_c, 3, 57, 96
1, 32712, Note_on_c, 4, 45, 96
1, 32712, Note_on_c, 5, 78, 96
1, 32712, Note_on_c, 6, 57, 96
1, 32733, Note_off_c, 0, 78, 0
1, 32733, Note_off_c, 1, 75, 0
1, 32733, Note_off_c, 2, 71, 0
1, 32733, Note_off_c, 3, 57, 0
1, 32733, Note_off_c, 4, 45, 0
1, 32733, Note_off_c, 5, 78, 0
1, 32733, Note_off_c, 6, 57, 0
1, 32736, Note_on_c, 0, 76, 96
1, 32736, Note_on_c, 1, 76, 96
1, 32736, Note_on_c, 2, 59, 96
1, 32736, Note_on_c, 3, 56, 96
1, 32736, Note_on_c, 4, 44, 96
1, 32736, Note_on_c, 5, 76, 96
1, 32736, Note_on_c, 6, 56, 96
1, 32757, Note_off_c, 0, 76, 0
1, 32757, Note_off_c, 1, 76, 0
1, 32757, Note_off_c, 2, 59, 0
1, 32757, Note_off_c, 3, 56, 0
1, 32757, Note_off_c, 4, 44, 0
1, 32757, Note_off_c, 5, 76, 0
1, 32757, Note_off_c, 6, 56, 0
1, 32760, Note_on_c, 0, 75, 96
1, 32760, Note_on_c, 1, 69, 96
1, 32760, Note_on_c, 2, 66, 96
1, 32760, Note_on_c, 3, 54, 96
1, 32760, Note_on_c, 4, 42, 96
1, 32760, Note_on_c, 5, 75, 96
1, 32760, Note_on_c, 6, 54, 96
1, 32770, Note_off_c, 0, 75, 0
1, 32770, Note_off_c, 5, 75, 0
1, 32772, Note_on_c, 0, 76, 96
1, 32772, Note_on_c, 5, 76, 96
1, 32781, Note_off_c, 1, 69, 0
1, 32781, Note_off_c, 2, 66, 0
1, 32781, Note_off_c, 3, 54, 0
1, 32781, Note_off_c, 4, 42, 0
1, 32781, Note_off_c, 6, 54, 0
1, 32782, Note_off_c, 0, 76, 0
1, 32782, Note_off_c, 5, 76, 0
1, 32784, Note_on_c, 0, 78, 96
1, 32784, Note_on_c, 1, 73, 96
1, 32784, Note_on_c, 2, 69, 96
1, 32784, Note_on_c, 3, 52, 96
1, 32784, Note_on_c, 4, 40, 96
1, 32784, Note_on_c, 5, 78, 96
1, 32784, Note_on_c, 6, 52, 96
1, 32794, Note_off_c, 0, 78, 0
1, 32794, Note_off_c, 5, 78, 0
1, 32796, Note_on_c, 0, 75, 96
1, 32796, Note_on_c, 5, 75, 96
1, 32805, Note_off_c, 1, 73, 0
1, 32805, Note_off_c, 2, 69, 0
1, 32805, Note_off_c, 3, 52, 0
1, 32805, Note_off_c, 4, 40, 0
1, 32805, Note_off_c, 6, 52, 0
1, 32806, Note_off_c, 0, 75, 0
1, 32806, Note_off_c, 5, 75, 0
1, 32808, Note_on_c, 0, 71, 96
1, 32808, Note_on_c, 1, 66, 96
1, 32808, Note_on_c, 2, 71, 96
1, 32808, Note_on_c, 3, 51, 96
1, 32808, Note_on_c, 4, 39, 96
1, 32808, Note_on_c, 5, 71, 96
1, 32808, Note_on_c, 6, 51, 96
1, 32818, Note_off_c, 0, 71, 0
1, 32818, Note_off_c, 5, 71, 0
1, 32820, Note_on_c, 0, 81, 96
1, 32820, Note_on_c, 5, 81, 96
1, 32829, Note_off_c, 1, 66, 0
1, 32829, Note_off_c, 2, 71, 0
1, 32829, Note_off_c, 3, 51, 0
1, 32829, Note_off_c, 4, 39, 0
1, 32829, Note_off_c, 6, 51, 0
1, 32830, Note_off_c, 0, 81, 0
1, 32832, Note_on_c, 0, 80, 96
1, 32832, Note_on_c, 1, 78, 96
1, 32832, Note_on_c, 2, 71, 96
1, 32832, Note_on_c, 3, 47, 96
1, 32832, Note_on_c, 4, 35, 96
1, 32832, Note_off_c, 5, 81, 0
1, 32832, Note_on_c, 5, 80, 96
1, 32832, Note_on_c, 6, 47, 96
1, 32842, Note_off_c, 0, 80, 0
1, 32844, Note_on_c, 0, 78, 96
1, 32844, Note_off_c, 5, 80, 0
1, 32844, Note_on_c, 5, 78, 96
1, 32853, Note_off_c, 1, 78, 0
1, 32853, Note_off_c, 2, 71, 0
1, 32853, Note_off_c, 3, 47, 0
1, 32853, Note_off_c, 4, 35, 0
1, 32853, Note_off_c, 6, 47, 0
1, 32854, Note_off_c, 0, 78, 0
1, 32854, Note_off_c, 5, 78, 0
1, 32856, Note_on_c, 0, 80, 96
1, 32856, Note_on_c, 1, 76, 96
1, 32856, Note_on_c, 2, 59, 96
1, 32856, Note_on_c, 3, 52, 96
1, 32856, Note_on_c, 4, 40, 96
1, 32856, Note_on_c, 5, 71, 96
1, 32856, Note_on_c, 6, 52, 96
1, 32866, Note_off_c, 1, 76, 0
1, 32866, Note_off_c, 5, 71, 0
1, 32868, Note_on_c, 1, 71, 96
1, 32868, Note_on_c, 5, 80, 96
1, 32877, Note_off_c, 0, 80, 0
1, 32877, Note_off_c, 2, 59, 0
1, 32877, Note_off_c, 3, 52, 0
1, 32877, Note_off_c, 4, 40, 0
1, 32877, Note_off_c, 6, 52, 0
1, 32878, Note_off_c, 1, 71, 0
1, 32880, Note_on_c, 1, 69, 96
1, 32880, Note_off_c, 5, 80, 0
1, 32880, Note_on_c, 5, 78, 96
1, 32890, Note_off_c, 1, 69, 0
1, 32892, Note_on_c, 1, 68, 96
1, 32892, Note_off_c, 5, 78, 0
1, 32892, Note_on_c, 5, 76, 96
1, 32902, Note_off_c, 1, 68, 0
1, 32902, Note_off_c, 5, 76, 0
1, 32904, Note_on_c, 1, 66, 96
1, 32904, Note_on_c, 2, 63, 96
1, 32904, Note_on_c, 3, 51, 96
1, 32904, Note_on_c, 4, 39, 96
1, 32904, Note_on_c, 5, 71, 96
1, 32904, Note_on_c, 6, 51, 96
1, 32914, Note_off_c, 5, 71, 0
1, 32916, Note_on_c, 0, 78, 96
1, 32916, Note_on_c, 5, 78, 96
1, 32925, Note_off_c, 1, 66, 0
1, 32925, Note_off_c, 2, 63, 0
1, 32925, Note_off_c, 3, 51, 0
1, 32925, Note_off_c, 4, 39, 0
1, 32925, Note_off_c, 6, 51, 0
1, 32926, Note_off_c, 0, 78, 0
1, 32928, Note_on_c, 0, 76, 96
1, 32928, Note_off_c, 5, 78, 0
1, 32928, Note_on_c, 5, 76, 96
1, 32938, Note_off_c, 0, 76, 0
1, 32940, Note_on_c, 0, 75, 96
1, 32940, Note_off_c, 5, 76, 0
1, 32940, Note_on_c, 5, 75, 96
1, 32950, Note_off_c, 0, 75, 0
1, 32950, Note_off_c, 5, 75, 0
1, 32952, Note_on_c, 0, 76, 96
1, 32952, Note_on_c, 2, 56, 96
1, 32952, Note_on_c, 3, 49, 96
1, 32952, Note_on_c, 4, 37, 96
1, 32952, Note_on_c, 5, 76, 96
1, 32952, Note_on_c, 6, 49, 96
1, 32962, Note_off_c, 5, 76, 0
1, 32964, Note_on_c, 1, 61, 96
1, 32964, Note_on_c, 5, 69, 96
1, 32973, Note_off_c, 0, 76, 0
1, 32973, Note_off_c, 2, 56, 0
1, 32973, Note_off_c, 3, 49, 0
1, 32973, Note_off_c, 4, 37, 0
1, 32973, Note_off_c, 6, 49, 0
1, 32974, Note_off_c, 1, 61, 0
1, 32976, Note_on_c, 1, 59, 96
1, 32976, Note_off_c, 5, 69, 0
1, 32976, Note_on_c, 5, 68, 96
1, 32986, Note_off_c, 1, 59, 0
1, 32988, Note_on_c, 1, 57, 96
1, 32988, Note_off_c, 5, 68, 0
1, 32988, Note_on_c, 5, 66, 96
1, 32998, Note_off_c, 1, 57, 0
1, 32998, Note_off_c, 5, 66, 0
1, 33000, Note_on_c, 1, 59, 96
1, 33000, Note_on_c, 2, 64, 96
1, 33000, Note_on_c, 3, 44, 96
1, 33000, Note_on_c, 4, 32, 96
1, 33000, Note_on_c, 5, 64, 96
1, 33000, Note_on_c, 6, 44, 96
1, 33010, Note_off_c, 5, 64, 0
1, 33012, Note_on_c, 0, 74, 96
1, 33012, Note_on_c, 5, 74, 96
1, 33021, Note_off_c, 1, 59, 0
1, 33021, Note_off_c, 3, 44, 0
1, 33021, Note_off_c, 4, 32, 0
1, 33021, Note_off_c, 6, 44, 0
1, 33022, Note_off_c, 0, 74, 0
1, 33024, Note_on_c, 0, 73, 96
1, 33024, Note_on_c, 3, 40, 96
1, 33024, Note_on_c, 4, 28, 96
1, 33024, Note_off_c, 5, 74, 0
1, 33024, Note_on_c, 5, 73, 96
1, 33024, Note_on_c, 6, 40, 96
1, 33034, Note_off_c, 0, 73, 0
1, 33036, Note_on_c, 0, 71, 96
1, 33036, Note_off_c, 5, 73, 0
1, 33036, Note_on_c, 5, 71, 96
1, 33045, Note_off_c, 3, 40, 0
1, 33045, Note_off_c, 4, 28, 0
1, 33045, Note_off_c, 6, 40, 0
1, 33046, Note_off_c, 0, 71, 0
1, 33046, Note_off_c, 5, 71, 0
1, 33048, Note_on_c, 0, 73, 96
1, 33048, Note_on_c, 3, 45, 96
1, 33048, Note_on_c, 4, 33, 96
1, 33048, Note_on_c, 5, 73, 96
1, 33048, Note_on_c, 6, 45, 96
1, 33058, Note_off_c, 0, 73, 0
1, 33058, Note_off_c, 5, 73, 0
1, 33060, Note_on_c, 0, 71, 96
1, 33060, Note_on_c, 5, 81, 96
1, 33069, Note_off_c, 3, 45, 0
1, 33069, Note_off_c, 4, 33, 0
1, 33069, Note_off_c, 6, 45, 0
1, 33070, Note_off_c, 0, 71, 0
1, 33070, Note_off_c, 5, 81, 0
1, 33072, Note_on_c, 0, 69, 96
1, 33072, Note_on_c, 1, 64, 96
1, 33072, Note_on_c, 3, 49, 96
1, 33072, Note_on_c, 4, 37, 96
1, 33072, Note_on_c, 5, 73, 96
1, 33072, Note_on_c, 6, 49, 96
1, 33082, Note_off_c, 0, 69, 0
1, 33084, Note_on_c, 0, 68, 96
1, 33084, Note_off_c, 2, 64, 0
1, 33093, Note_off_c, 1, 64, 0
1, 33093, Note_off_c, 3, 49, 0
1, 33093, Note_off_c, 4, 37, 0
1, 33093, Note_off_c, 6, 49, 0
1, 33094, Note_off_c, 0, 68, 0
1, 33096, Note_on_c, 0, 66, 96
1, 33096, Note_on_c, 1, 69, 96
1, 33096, Note_on_c, 2, 66, 96
1, 33096, Note_on_c, 3, 45, 96
1, 33096, Note_on_c, 4, 33, 96
1, 33096, Note_on_c, 6, 45, 96
1, 33103, Note_off_c, 5, 73, 0
1, 33106, Note_off_c, 0, 66, 0
1, 33108, Note_on_c, 0, 80, 96
1, 33108, Note_on_c, 5, 71, 96
1, 33117, Note_off_c, 1, 69, 0
1, 33117, Note_off_c, 3, 45, 0
1, 33117, Note_off_c, 4, 33, 0
1, 33117, Note_off_c, 6, 45, 0
1, 33118, Note_off_c, 0, 80, 0
1, 33118, Note_off_c, 5, 71, 0
1, 33120, Note_on_c, 0, 78, 96
1, 33120, Note_on_c, 1, 73, 96
1, 33120, Note_on_c, 3, 42, 96
1, 33120, Note_on_c, 4, 30, 96
1, 33120, Note_on_c, 5, 69, 96
1, 33120, Note_on_c, 6, 42, 96
1, 33130, Note_off_c, 0, 78, 0
1, 33130, Note_off_c, 5, 69, 0
1, 33132, Note_on_c, 0, 76, 96
1, 33132, Note_on_c, 5, 68, 96
1, 33141, Note_off_c, 3, 42, 0
1, 33141, Note_off_c, 4, 30, 0
1, 33141, Note_off_c, 6, 42, 0
1, 33142, Note_off_c, 0, 76, 0
1, 33142, Note_off_c, 5, 68, 0
1, 33144, Note_on_c, 0, 75, 96
1, 33144, Note_on_c, 3, 47, 96
1, 33144, Note_on_c, 4, 35, 96
1, 33144, Note_on_c, 5, 66, 96
1, 33144, Note_on_c, 6, 47, 96
1, 33154, Note_off_c, 0, 75, 0
1, 33154, Note_off_c, 5, 66, 0
1, 33156, Note_on_c, 0, 73, 96
1, 33156, Note_on_c, 5, 76, 96
1, 33162, Note_off_c, 1, 73, 0
1, 33165, Note_off_c, 3, 47, 0
1, 33165, Note_off_c, 4, 35, 0
1, 33165, Note_off_c, 6, 47, 0
1, 33166, Note_off_c, 0, 73, 0
1, 33166, Note_off_c, 5, 76, 0
1, 33168, Note_on_c, 0, 71, 96
1, 33168, Note_on_c, 1, 66, 96
1, 33168, Note_on_c, 3, 51, 96
1, 33168, Note_on_c, 4, 39, 96
1, 33168, Note_on_c, 5, 75, 96
1, 33168, Note_on_c, 6, 51, 96
1, 33178, Note_off_c, 0, 71, 0
1, 33180, Note_on_c, 0, 69, 96
1, 33180, Note_off_c, 2, 66, 0
1, 33189, Note_off_c, 1, 66, 0
1, 33189, Note_off_c, 3, 51, 0
1, 33189, Note_off_c, 4, 39, 0
1, 33189, Note_off_c, 6, 51, 0
1, 33190, Note_off_c, 0, 69, 0
1, 33192, Note_on_c, 0, 68, 96
1, 33192, Note_on_c, 1, 71, 96
1, 33192, Note_on_c, 2, 68, 96
1, 33192, Note_on_c, 3, 47, 96
1, 33192, Note_on_c, 4, 35, 96
1, 33192, Note_on_c, 6, 47, 96
1, 33199, Note_off_c, 5, 75, 0
1, 33202, Note_off_c, 0, 68, 0
1, 33204, Note_on_c, 0, 81, 96
1, 33204, Note_on_c, 5, 73, 96
1, 33213, Note_off_c, 1, 71, 0
1, 33213, Note_off_c, 3, 47, 0
1, 33213, Note_off_c, 4, 35, 0
1, 33213, Note_off_c, 6, 47, 0
1, 33214, Note_off_c, 0, 81, 0
1, 33214, Note_off_c, 5, 73, 0
1, 33216, Note_on_c, 0, 80, 96
1, 33216, Note_on_c, 1, 75, 96
1, 33216, Note_on_c, 3, 44, 96
1, 33216, Note_on_c, 4, 32, 96
1, 33216, Note_on_c, 5, 71, 96
1, 33216, Note_on_c, 6, 44, 96
1, 33226, Note_off_c, 0, 80, 0
1, 33226, Note_off_c, 5, 71, 0
1, 33228, Note_on_c, 0, 78, 96
1, 33228, Note_on_c, 5, 69, 96
1, 33237, Note_off_c, 3, 44, 0
1, 33237, Note_off_c, 4, 32, 0
1, 33237, Note_off_c, 6, 44, 0
1, 33238, Note_off_c, 0, 78, 0
1, 33238, Note_off_c, 5, 69, 0
1, 33240, Note_on_c, 0, 76, 96
1, 33240, Note_on_c, 3, 49, 96
1, 33240, Note_on_c, 4, 37, 96
1, 33240, Note_on_c, 5, 68, 96
1, 33240, Note_on_c, 6, 49, 96
1, 33250, Note_off_c, 0, 76, 0
1, 33250, Note_off_c, 5, 68, 0
1, 33252, Note_on_c, 0, 75, 96
1, 33252, Note_on_c, 5, 78, 96
1, 33258, Note_off_c, 1, 75, 0
1, 33261, Note_off_c, 3, 49, 0
1, 33261, Note_off_c, 4, 37, 0
1, 33261, Note_off_c, 6, 49, 0
1, 33262, Note_off_c, 0, 75, 0
1, 33262, Note_off_c, 5, 78, 0
1, 33264, Note_on_c, 0, 73, 96
1, 33264, Note_on_c, 1, 68, 96
1, 33264, Note_on_c, 3, 52, 96
1, 33264, Note_on_c, 4, 40, 96
1, 33264, Note_on_c, 5, 76, 96
1, 33264, Note_on_c, 6, 52, 96
1, 33274, Note_off_c, 0, 73, 0
1, 33276, Note_on_c, 0, 71, 96
1, 33276, Note_off_c, 2, 68, 0
1, 33285, Note_off_c, 1, 68, 0
1, 33285, Note_off_c, 3, 52, 0
1, 33285, Note_off_c, 4, 40, 0
1, 33285, Note_off_c, 6, 52, 0
1, 33286, Note_off_c, 0, 71, 0
1, 33288, Note_on_c, 0, 69, 96
1, 33288, Note_on_c, 1, 73, 96
1, 33288, Note_on_c, 2, 69, 96
1, 33288, Note_on_c, 3, 49, 96
1, 33288, Note_on_c, 4, 37, 96
1, 33288, Note_on_c, 6, 49, 96
1, 33295, Note_off_c, 5, 76, 0
1, 33298, Note_off_c, 0, 69, 0
1, 33300, Note_on_c, 0, 83, 96
1, 33300, Note_on_c, 5, 75, 96
1, 33309, Note_off_c, 1, 73, 0
1, 33309, Note_off_c, 2, 69, 0
1, 33309, Note_off_c, 3, 49, 0
1, 33309, Note_off_c, 4, 37, 0
1, 33309, Note_off_c, 6, 49, 0
1, 33310, Note_off_c, 0, 83, 0
1, 33310, Note_off_c, 5, 75, 0
1, 33312, Note_on_c, 0, 81, 96
1, 33312, Note_on_c, 1, 76, 96
1, 33312, Note_on_c, 2, 73, 96
1, 33312, Note_on_c, 3, 45, 96
1, 33312, Note_on_c, 4, 33, 96
1, 33312, Note_on_c, 5, 73, 96
1, 33312, Note_on_c, 6, 45, 96
1, 33322, Note_off_c, 0, 81, 0
1, 33322, Note_off_c, 5, 73, 0
1, 33324, Note_on_c, 0, 80, 96
1, 33324, Note_on_c, 5, 71, 96
1, 33333, Note_off_c, 1, 76, 0
1, 33333, Note_off_c, 2, 73, 0
1, 33333, Note_off_c, 3, 45, 0
1, 33333, Note_off_c, 4, 33, 0
1, 33333, Note_off_c, 6, 45, 0
1, 33334, Note_off_c, 0, 80, 0
1, 33334, Note_off_c, 5, 71, 0
1, 33336, Note_on_c, 0, 78, 96
1, 33336, Note_on_c, 1, 78, 96
1, 33336, Note_on_c, 2, 73, 96
1, 33336, Note_on_c, 3, 39, 96
1, 33336, Note_on_c, 4, 27, 96
1, 33336, Note_on_c, 5, 69, 96
1, 33336, Note_on_c, 6, 39, 96
1, 33346, Note_off_c, 0, 78, 0
1, 33346, Note_off_c, 5, 69, 0
1, 33348, Note_on_c, 0, 76, 96
1, 33348, Note_on_c, 5, 80, 96
1, 33358, Note_off_c, 0, 76, 0
1, 33358, Note_off_c, 5, 80, 0
1, 33360, Note_on_c, 0, 75, 96
1, 33360, Note_off_c, 2, 73, 0
1, 33360, Note_on_c, 2, 71, 96
1, 33360, Note_on_c, 5, 78, 96
1, 33370, Note_off_c, 0, 75, 0
1, 33370, Note_off_c, 5, 78, 0
1, 33372, Note_on_c, 0, 73, 96
1, 33372, Note_on_c, 5, 76, 96
1, 33378, Note_off_c, 1, 78, 0
1, 33378, Note_off_c, 3, 39, 0
1, 33378, Note_off_c, 4, 27, 0
1, 33378, Note_off_c, 6, 39, 0
1, 33381, Note_off_c, 2, 71, 0
1, 33382, Note_off_c, 0, 73, 0
1, 33382, Note_off_c, 5, 76, 0
1, 33384, Note_on_c, 0, 71, 96
1, 33384, Note_on_c, 5, 75, 96
1, 33394, Note_off_c, 0, 71, 0
1, 33394, Note_off_c, 5, 75, 0
1, 33396, Note_on_c, 0, 69, 96
1, 33396, Note_on_c, 5, 73, 96
1, 33406, Note_off_c, 0, 69, 0
1, 33406, Note_off_c, 5, 73, 0
1, 33408, Note_on_c, 0, 68, 96
1, 33408, Note_on_c, 1, 78, 96
1, 33408, Note_on_c, 2, 71, 96
1, 33408, Note_on_c, 3, 51, 96
1, 33408, Note_on_c, 4, 39, 96
1, 33408, Note_on_c, 5, 71, 96
1, 33408, Note_on_c, 6, 51, 96
1, 33418, Note_off_c, 0, 68, 0
1, 33418, Note_off_c, 5, 71, 0
1, 33420, Note_on_c, 0, 66, 96
1, 33420, Note_on_c, 5, 69, 96
1, 33429, Note_off_c, 1, 78, 0
1, 33429, Note_off_c, 2, 71, 0
1, 33429, Note_off_c, 3, 51, 0
1, 33429, Note_off_c, 4, 39, 0
1, 33429, Note_off_c, 6, 51, 0
1, 33430, Note_off_c, 0, 66, 0
1, 33430, Note_off_c, 5, 69, 0
1, 33432, Note_on_c, 0, 64, 96
1, 33432, Note_on_c, 1, 71, 96
1, 33432, Note_on_c, 2, 59, 96
1, 33432, Note_on_c, 3, 52, 96
1, 33432, Note_on_c, 4, 40, 96
1, 33432, Note_on_c, 5, 68, 96
1, 33432, Note_on_c, 6, 52, 96
1, 33453, Note_off_c, 1, 71, 0
1, 33453, Note_off_c, 2, 59, 0
1, 33453, Note_off_c, 3, 52, 0
1, 33453, Note_off_c, 4, 40, 0
1, 33453, Note_off_c, 5, 68, 0
1, 33453, Note_off_c, 6, 52, 0
1, 33456, Note_on_c, 1, 73, 96
1, 33456, Note_on_c, 2, 64, 96
1, 33456, Note_on_c, 3, 49, 96
1, 33456, Note_on_c, 4, 37, 96
1, 33456, Note_on_c, 5, 76, 96
1, 33456, Note_on_c, 6, 49, 96
1, 33463, Note_off_c, 0, 64, 0
1, 33468, Note_on_c, 0, 66, 96
1, 33477, Note_off_c, 1, 73, 0
1, 33477, Note_off_c, 2, 64, 0
1, 33477, Note_off_c, 3, 49, 0
1, 33477, Note_off_c, 4, 37, 0
1, 33477, Note_off_c, 5, 76, 0
1, 33477, Note_off_c, 6, 49, 0
1, 33478, Note_off_c, 0, 66, 0
1, 33480, Note_on_c, 0, 66, 96
1, 33480, Note_on_c, 1, 73, 96
1, 33480, Note_on_c, 2, 61, 96
1, 33480, Note_on_c, 3, 45, 96
1, 33480, Note_on_c, 4, 33, 96
1, 33480, Note_on_c, 5, 66, 96
1, 33480, Note_on_c, 6, 45, 96
1, 33501, Note_off_c, 1, 73, 0
1, 33501, Note_off_c, 2, 61, 0
1, 33501, Note_off_c, 3, 45, 0
1, 33501, Note_off_c, 4, 33, 0
1, 33501, Note_off_c, 5, 66, 0
1, 33501, Note_off_c, 6, 45, 0
1, 33504, Note_on_c, 1, 71, 96
1, 33504, Note_on_c, 2, 66, 96
1, 33504, Note_on_c, 3, 47, 96
1, 33504, Note_on_c, 4, 35, 96
1, 33504, Note_on_c, 5, 76, 96
1, 33504, Note_on_c, 6, 47, 96
1, 33510, Note_off_c, 5, 76, 0
1, 33510, Note_on_c, 5, 75, 96
1, 33511, Note_off_c, 0, 66, 0
1, 33516, Note_on_c, 0, 64, 96
1, 33516, Note_off_c, 5, 75, 0
1, 33516, Note_on_c, 5, 76, 96
1, 33522, Note_off_c, 5, 76, 0
1, 33522, Note_on_c, 5, 75, 96
1, 33525, Note_off_c, 1, 71, 0
1, 33525, Note_off_c, 2, 66, 0
1, 33525, Note_off_c, 3, 47, 0
1, 33525, Note_off_c, 4, 35, 0
1, 33525, Note_off_c, 6, 47, 0
1, 33526, Note_off_c, 0, 64, 0
1, 33527, Note_off_c, 5, 75, 0
1, 33528, Note_on_c, 0, 64, 96
1, 33528, Note_on_c, 1, 71, 96
1, 33528, Note_on_c, 2, 68, 96
1, 33528, Note_on_c, 3, 40, 96
1, 33528, Note_on_c, 4, 28, 96
1, 33528, Note_on_c, 5, 76, 96
1, 33528, Note_on_c, 6, 40, 96
1, 33576, Note_off_c, 0, 64, 0
1, 33576, Note_off_c, 1, 71, 0
1, 33576, Note_off_c, 2, 68, 0
1, 33576, Note_off_c, 3, 40, 0
1, 33576, Note_off_c, 4, 28, 0
1, 33576, Note_off_c, 5, 76, 0
1, 33576, Note_off_c, 6, 40, 0
1, 33984, End_track
0, 0, End_of_file
