0, 0, Header, 1, 4, 240
1, 0, Start_track
1, 0, Time_signature, 3, 3, 12, 8
1, 0, Key_signature, 0, "major"
1, 0, Tempo, 731707
1, 25320, Tempo, 750000
1, 25440, Tempo, 789473
1, 25560, Tempo, 821917
1, 25680, Tempo, 833333
1, 25740, Tempo, 869565
1, 25800, Tempo, 983606
1, 25860, Tempo, 1090909
1, 25920, Tempo, 1333333
1, 26280, Tempo, 731707
1, 26280, End_track
2, 0, Start_track
2, 0, MIDI_port, 0
2, 0, Title_t, "RH H"
2, 0, Program_c, 0, 6
2, 1680, Note_on_c, 0, 65, 64
2, 1800, Note_on_c, 0, 65, 0
2, 1800, Note_on_c, 0, 69, 64
2, 1920, Note_on_c, 0, 69, 0
2, 1920, Note_on_c, 0, 67, 64
2, 2040, Note_on_c, 0, 67, 0
2, 2040, Note_on_c, 0, 65, 64
2, 2160, Note_on_c, 0, 65, 0
2, 2160, Note_on_c, 0, 67, 64
2, 2280, Note_on_c, 0, 67, 0
2, 2280, Note_on_c, 0, 59, 64
2, 2340, Note_on_c, 0, 59, 0
2, 2340, Note_on_c, 0, 60, 64
2, 2400, Note_on_c, 0, 60, 0
2, 2400, Note_on_c, 0, 62, 64
2, 2460, Note_on_c, 0, 62, 0
2, 2460, Note_on_c, 0, 64, 64
2, 2520, Note_on_c, 0, 64, 0
2, 2520, Note_on_c, 0, 65, 64
2, 2640, Note_on_c, 0, 65, 0
2, 2640, Note_on_c, 0, 67, 64
2, 2700, Note_on_c, 0, 67, 0
2, 2700, Note_on_c, 0, 65, 64
2, 2760, Note_on_c, 0, 65, 0
2, 2760, Note_on_c, 0, 64, 64
2, 2820, Note_on_c, 0, 64, 0
2, 2820, Note_on_c, 0, 62, 64
2, 2880, Note_on_c, 0, 62, 0
2, 2880, Note_on_c, 0, 64, 64
2, 2940, Note_on_c, 0, 64, 0
2, 2940, Note_on_c, 0, 62, 64
2, 3000, Note_on_c, 0, 62, 0
2, 3000, Note_on_c, 0, 60, 64
2, 3060, Note_on_c, 0, 60, 0
2, 3060, Note_on_c, 0, 62, 64
2, 3120, Note_on_c, 0, 62, 0
2, 3120, Note_on_c, 0, 64, 64
2, 3180, Note_on_c, 0, 64, 0
2, 3180, Note_on_c, 0, 65, 64
2, 3240, Note_on_c, 0, 65, 0
2, 3240, Note_on_c, 0, 67, 64
2, 3360, Note_on_c, 0, 67, 0
2, 3360, Note_on_c, 0, 65, 64
2, 3480, Note_on_c, 0, 65, 0
2, 3480, Note_on_c, 0, 64, 64
2, 3600, Note_on_c, 0, 64, 0
2, 3600, Note_on_c, 0, 65, 64
2, 3660, Note_on_c, 0, 65, 0
2, 3660, Note_on_c, 0, 64, 64
2, 3720, Note_on_c, 0, 64, 0
2, 3720, Note_on_c, 0, 62, 64
2, 3780, Note_on_c, 0, 62, 0
2, 3780, Note_on_c, 0, 64, 64
2, 3840, Note_on_c, 0, 64, 0
2, 3840, Note_on_c, 0, 65, 64
2, 3900, Note_on_c, 0, 65, 0
2, 3900, Note_on_c, 0, 67, 64
2, 3960, Note_on_c, 0, 67, 0
2, 3960, Note_on_c, 0, 69, 64
2, 4020, Note_on_c, 0, 69, 0
2, 4020, Note_on_c, 0, 72, 64
2, 4080, Note_on_c, 0, 72, 0
2, 4080, Note_on_c, 0, 70, 64
2, 4140, Note_on_c, 0, 70, 0
2, 4140, Note_on_c, 0, 69, 64
2, 4200, Note_on_c, 0, 69, 0
2, 4200, Note_on_c, 0, 67, 64
2, 4260, Note_on_c, 0, 67, 0
2, 4260, Note_on_c, 0, 65, 64
2, 4310, Note_on_c, 0, 65, 0
2, 4320, Note_on_c, 0, 65, 74
2, 4342, Note_on_c, 0, 65, 0
2, 4342, Note_on_c, 0, 64, 43
2, 4364, Note_on_c, 0, 64, 0
2, 4364, Note_on_c, 0, 65, 48
2, 4386, Note_on_c, 0, 65, 0
2, 4386, Note_on_c, 0, 64, 53
2, 4408, Note_on_c, 0, 64, 0
2, 4408, Note_on_c, 0, 65, 58
2, 4430, Note_on_c, 0, 65, 0
2, 4430, Note_on_c, 0, 64, 64
2, 4680, Note_on_c, 0, 64, 0
2, 4680, Note_on_c, 0, 65, 64
2, 4800, Note_on_c, 0, 65, 0
2, 4800, Note_on_c, 0, 69, 64
2, 5040, Note_on_c, 0, 69, 0
2, 5040, Note_on_c, 0, 67, 64
2, 5160, Note_on_c, 0, 67, 0
2, 5160, Note_on_c, 0, 72, 64
2, 5400, Note_on_c, 0, 72, 0
2, 5400, Note_on_c, 0, 71, 64
2, 5520, Note_on_c, 0, 71, 0
2, 5520, Note_on_c, 0, 76, 64
2, 5760, Note_on_c, 0, 76, 0
2, 5760, Note_on_c, 0, 74, 64
2, 6170, Note_on_c, 0, 74, 0
2, 6180, Note_on_c, 0, 74, 64
2, 6240, Note_on_c, 0, 74, 0
2, 6240, Note_on_c, 0, 72, 64
2, 6360, Note_on_c, 0, 72, 0
2, 6360, Note_on_c, 0, 72, 64
2, 6480, Note_on_c, 0, 72, 0
2, 6480, Note_on_c, 0, 74, 64
2, 6600, Note_on_c, 0, 74, 0
2, 6600, Note_on_c, 0, 72, 64
2, 6720, Note_on_c, 0, 72, 0
2, 6720, Note_on_c, 0, 70, 64
2, 6840, Note_on_c, 0, 70, 0
2, 6840, Note_on_c, 0, 72, 64
2, 6960, Note_on_c, 0, 72, 0
2, 6960, Note_on_c, 0, 64, 64
2, 7020, Note_on_c, 0, 64, 0
2, 7020, Note_on_c, 0, 65, 64
2, 7080, Note_on_c, 0, 65, 0
2, 7080, Note_on_c, 0, 67, 64
2, 7140, Note_on_c, 0, 67, 0
2, 7140, Note_on_c, 0, 69, 64
2, 7200, Note_on_c, 0, 69, 0
2, 7200, Note_on_c, 0, 70, 64
2, 7320, Note_on_c, 0, 70, 0
2, 7320, Note_on_c, 0, 72, 64
2, 7380, Note_on_c, 0, 72, 0
2, 7380, Note_on_c, 0, 70, 64
2, 7440, Note_on_c, 0, 70, 0
2, 7440, Note_on_c, 0, 69, 64
2, 7500, Note_on_c, 0, 69, 0
2, 7500, Note_on_c, 0, 67, 64
2, 7560, Note_on_c, 0, 67, 0
2, 7560, Note_on_c, 0, 69, 64
2, 7620, Note_on_c, 0, 69, 0
2, 7620, Note_on_c, 0, 67, 64
2, 7680, Note_on_c, 0, 67, 0
2, 7680, Note_on_c, 0, 65, 64
2, 7740, Note_on_c, 0, 65, 0
2, 7740, Note_on_c, 0, 67, 64
2, 7800, Note_on_c, 0, 67, 0
2, 7800, Note_on_c, 0, 69, 64
2, 7860, Note_on_c, 0, 69, 0
2, 7860, Note_on_c, 0, 70, 64
2, 7920, Note_on_c, 0, 70, 0
2, 7920, Note_on_c, 0, 72, 64
2, 7980, Note_on_c, 0, 72, 0
2, 7980, Note_on_c, 0, 70, 64
2, 8040, Note_on_c, 0, 70, 0
2, 8040, Note_on_c, 0, 69, 64
2, 8100, Note_on_c, 0, 69, 0
2, 8100, Note_on_c, 0, 70, 64
2, 8160, Note_on_c, 0, 70, 0
2, 8160, Note_on_c, 0, 72, 64
2, 8220, Note_on_c, 0, 72, 0
2, 8220, Note_on_c, 0, 74, 64
2, 8280, Note_on_c, 0, 74, 0
2, 8280, Note_on_c, 0, 76, 64
2, 8340, Note_on_c, 0, 76, 0
2, 8340, Note_on_c, 0, 79, 64
2, 8400, Note_on_c, 0, 79, 0
2, 8400, Note_on_c, 0, 77, 64
2, 8460, Note_on_c, 0, 77, 0
2, 8460, Note_on_c, 0, 76, 64
2, 8520, Note_on_c, 0, 76, 0
2, 8520, Note_on_c, 0, 74, 64
2, 8580, Note_on_c, 0, 74, 0
2, 8580, Note_on_c, 0, 72, 64
2, 8630, Note_on_c, 0, 72, 0
2, 8640, Note_on_c, 0, 72, 74
2, 8662, Note_on_c, 0, 72, 0
2, 8662, Note_on_c, 0, 71, 42
2, 8684, Note_on_c, 0, 71, 0
2, 8684, Note_on_c, 0, 72, 47
2, 8706, Note_on_c, 0, 72, 0
2, 8706, Note_on_c, 0, 71, 52
2, 8728, Note_on_c, 0, 71, 0
2, 8728, Note_on_c, 0, 72, 57
2, 8750, Note_on_c, 0, 72, 0
2, 8750, Note_on_c, 0, 71, 64
2, 9000, Note_on_c, 0, 71, 0
2, 9000, Note_on_c, 0, 72, 64
2, 9060, Note_on_c, 0, 72, 0
2, 9060, Note_on_c, 0, 74, 64
2, 9120, Note_on_c, 0, 74, 0
2, 9120, Note_on_c, 0, 76, 64
2, 9180, Note_on_c, 0, 76, 0
2, 9180, Note_on_c, 0, 77, 64
2, 9240, Note_on_c, 0, 77, 0
2, 9240, Note_on_c, 0, 79, 64
2, 9300, Note_on_c, 0, 79, 0
2, 9300, Note_on_c, 0, 81, 64
2, 9360, Note_on_c, 0, 81, 0
2, 9360, Note_on_c, 0, 70, 64
2, 9420, Note_on_c, 0, 70, 0
2, 9420, Note_on_c, 0, 72, 64
2, 9480, Note_on_c, 0, 72, 0
2, 9480, Note_on_c, 0, 74, 64
2, 9540, Note_on_c, 0, 74, 0
2, 9540, Note_on_c, 0, 76, 64
2, 9600, Note_on_c, 0, 76, 0
2, 9600, Note_on_c, 0, 77, 64
2, 9660, Note_on_c, 0, 77, 0
2, 9660, Note_on_c, 0, 79, 64
2, 9720, Note_on_c, 0, 79, 0
2, 9720, Note_on_c, 0, 81, 64
2, 9780, Note_on_c, 0, 81, 0
2, 9780, Note_on_c, 0, 84, 64
2, 9840, Note_on_c, 0, 84, 0
2, 9840, Note_on_c, 0, 82, 64
2, 9900, Note_on_c, 0, 82, 0
2, 9900, Note_on_c, 0, 81, 64
2, 9960, Note_on_c, 0, 81, 0
2, 9960, Note_on_c, 0, 79, 64
2, 10020, Note_on_c, 0, 79, 0
2, 10020, Note_on_c, 0, 77, 64
2, 10080, Note_on_c, 0, 77, 0
2, 10080, Note_on_c, 0, 77, 64
2, 10190, Note_on_c, 0, 77, 0
2, 10200, Note_on_c, 0, 77, 74
2, 10222, Note_on_c, 0, 77, 0
2, 10222, Note_on_c, 0, 76, 42
2, 10244, Note_on_c, 0, 76, 0
2, 10244, Note_on_c, 0, 77, 47
2, 10266, Note_on_c, 0, 77, 0
2, 10266, Note_on_c, 0, 76, 53
2, 10288, Note_on_c, 0, 76, 0
2, 10288, Note_on_c, 0, 77, 58
2, 10310, Note_on_c, 0, 77, 0
2, 10310, Note_on_c, 0, 76, 64
2, 10440, Note_on_c, 0, 76, 0
2, 10440, Note_on_c, 0, 77, 64
2, 10560, Note_on_c, 0, 77, 0
2, 10800, Note_on_c, 0, 79, 64
2, 11210, Note_on_c, 0, 79, 0
2, 11220, Note_on_c, 0, 79, 64
2, 11280, Note_on_c, 0, 79, 0
2, 11280, Note_on_c, 0, 77, 64
2, 11340, Note_on_c, 0, 77, 0
2, 11340, Note_on_c, 0, 76, 64
2, 11400, Note_on_c, 0, 76, 0
2, 11400, Note_on_c, 0, 74, 64
2, 11460, Note_on_c, 0, 74, 0
2, 11460, Note_on_c, 0, 72, 64
2, 11520, Note_on_c, 0, 72, 0
2, 11520, Note_on_c, 0, 77, 64
2, 11930, Note_on_c, 0, 77, 0
2, 11940, Note_on_c, 0, 77, 64
2, 12000, Note_on_c, 0, 77, 0
2, 12000, Note_on_c, 0, 76, 64
2, 12060, Note_on_c, 0, 76, 0
2, 12060, Note_on_c, 0, 74, 64
2, 12120, Note_on_c, 0, 74, 0
2, 12120, Note_on_c, 0, 73, 64
2, 12180, Note_on_c, 0, 73, 0
2, 12180, Note_on_c, 0, 71, 64
2, 12240, Note_on_c, 0, 71, 0
2, 12240, Note_on_c, 0, 76, 64
2, 12720, Note_on_c, 0, 76, 0
2, 12720, Note_on_c, 0, 69, 64
2, 12840, Note_on_c, 0, 69, 0
2, 12840, Note_on_c, 0, 74, 64
2, 12960, Note_on_c, 0, 74, 0
2, 12960, Note_on_c, 0, 73, 64
2, 13200, Note_on_c, 0, 73, 0
2, 13200, Note_on_c, 0, 81, 64
2, 13320, Note_on_c, 0, 81, 0
2, 13320, Note_on_c, 0, 82, 64
2, 13440, Note_on_c, 0, 82, 0
2, 13440, Note_on_c, 0, 81, 64
2, 13560, Note_on_c, 0, 81, 0
2, 13560, Note_on_c, 0, 79, 64
2, 13680, Note_on_c, 0, 79, 0
2, 13680, Note_on_c, 0, 81, 64
2, 13800, Note_on_c, 0, 81, 0
2, 13800, Note_on_c, 0, 73, 64
2, 13860, Note_on_c, 0, 73, 0
2, 13860, Note_on_c, 0, 74, 64
2, 13920, Note_on_c, 0, 74, 0
2, 13920, Note_on_c, 0, 76, 64
2, 13980, Note_on_c, 0, 76, 0
2, 13980, Note_on_c, 0, 77, 64
2, 14040, Note_on_c, 0, 77, 0
2, 14040, Note_on_c, 0, 79, 64
2, 14160, Note_on_c, 0, 79, 0
2, 14160, Note_on_c, 0, 81, 64
2, 14220, Note_on_c, 0, 81, 0
2, 14220, Note_on_c, 0, 79, 64
2, 14280, Note_on_c, 0, 79, 0
2, 14280, Note_on_c, 0, 77, 64
2, 14340, Note_on_c, 0, 77, 0
2, 14340, Note_on_c, 0, 76, 64
2, 14400, Note_on_c, 0, 76, 0
2, 14400, Note_on_c, 0, 77, 64
2, 14460, Note_on_c, 0, 77, 0
2, 14460, Note_on_c, 0, 81, 64
2, 14520, Note_on_c, 0, 81, 0
2, 14520, Note_on_c, 0, 79, 64
2, 14580, Note_on_c, 0, 79, 0
2, 14580, Note_on_c, 0, 77, 64
2, 14640, Note_on_c, 0, 77, 0
2, 14640, Note_on_c, 0, 76, 64
2, 14700, Note_on_c, 0, 76, 0
2, 14700, Note_on_c, 0, 74, 64
2, 14760, Note_on_c, 0, 74, 0
2, 14760, Note_on_c, 0, 73, 64
2, 15170, Note_on_c, 0, 73, 0
2, 15180, Note_on_c, 0, 74, 64
2, 15210, Note_on_c, 0, 74, 0
2, 15210, Note_on_c, 0, 72, 64
2, 15240, Note_on_c, 0, 72, 0
2, 15240, Note_on_c, 0, 70, 64
2, 15300, Note_on_c, 0, 70, 0
2, 15300, Note_on_c, 0, 69, 64
2, 15360, Note_on_c, 0, 69, 0
2, 15360, Note_on_c, 0, 67, 64
2, 15420, Note_on_c, 0, 67, 0
2, 15420, Note_on_c, 0, 65, 64
2, 15480, Note_on_c, 0, 65, 0
2, 15480, Note_on_c, 0, 70, 64
2, 15600, Note_on_c, 0, 70, 0
2, 15600, Note_on_c, 0, 69, 64
2, 15720, Note_on_c, 0, 69, 0
2, 15720, Note_on_c, 0, 67, 64
2, 15840, Note_on_c, 0, 67, 0
2, 15840, Note_on_c, 0, 69, 64
2, 16250, Note_on_c, 0, 69, 0
2, 16260, Note_on_c, 0, 70, 64
2, 16320, Note_on_c, 0, 70, 0
2, 16320, Note_on_c, 0, 65, 74
2, 16342, Note_on_c, 0, 65, 0
2, 16342, Note_on_c, 0, 64, 43
2, 16364, Note_on_c, 0, 64, 0
2, 16364, Note_on_c, 0, 65, 48
2, 16386, Note_on_c, 0, 65, 0
2, 16386, Note_on_c, 0, 64, 53
2, 16408, Note_on_c, 0, 64, 0
2, 16408, Note_on_c, 0, 65, 58
2, 16430, Note_on_c, 0, 65, 0
2, 16430, Note_on_c, 0, 64, 64
2, 16500, Note_on_c, 0, 64, 0
2, 16500, Note_on_c, 0, 62, 64
2, 16560, Note_on_c, 0, 62, 0
2, 16620, Note_on_c, 0, 64, 64
2, 16680, Note_on_c, 0, 64, 0
2, 16680, Note_on_c, 0, 65, 64
2, 16740, Note_on_c, 0, 65, 0
2, 16740, Note_on_c, 0, 67, 64
2, 16800, Note_on_c, 0, 67, 0
2, 16800, Note_on_c, 0, 69, 64
2, 16860, Note_on_c, 0, 69, 0
2, 16860, Note_on_c, 0, 70, 64
2, 16920, Note_on_c, 0, 70, 0
2, 16920, Note_on_c, 0, 72, 64
2, 16980, Note_on_c, 0, 72, 0
2, 16980, Note_on_c, 0, 70, 64
2, 17040, Note_on_c, 0, 70, 0
2, 17040, Note_on_c, 0, 72, 64
2, 17100, Note_on_c, 0, 72, 0
2, 17100, Note_on_c, 0, 74, 64
2, 17160, Note_on_c, 0, 74, 0
2, 17160, Note_on_c, 0, 75, 64
2, 17220, Note_on_c, 0, 75, 0
2, 17220, Note_on_c, 0, 74, 64
2, 17280, Note_on_c, 0, 74, 0
2, 17280, Note_on_c, 0, 67, 76
2, 17302, Note_on_c, 0, 67, 0
2, 17302, Note_on_c, 0, 66, 50
2, 17324, Note_on_c, 0, 66, 0
2, 17324, Note_on_c, 0, 67, 64
2, 17340, Note_on_c, 0, 64, 64
2, 17346, Note_on_c, 0, 67, 0
2, 17400, Note_on_c, 0, 64, 0
2, 17400, Note_on_c, 0, 62, 64
2, 17460, Note_on_c, 0, 62, 0
2, 17460, Note_on_c, 0, 64, 64
2, 17520, Note_on_c, 0, 64, 0
2, 17520, Note_on_c, 0, 66, 64
2, 17580, Note_on_c, 0, 66, 0
2, 17580, Note_on_c, 0, 67, 64
2, 17640, Note_on_c, 0, 67, 0
2, 17640, Note_on_c, 0, 69, 64
2, 18050, Note_on_c, 0, 69, 0
2, 18060, Note_on_c, 0, 67, 64
2, 18120, Note_on_c, 0, 67, 0
2, 18120, Note_on_c, 0, 69, 64
2, 18180, Note_on_c, 0, 69, 0
2, 18180, Note_on_c, 0, 70, 64
2, 18240, Note_on_c, 0, 70, 0
2, 18240, Note_on_c, 0, 72, 64
2, 18300, Note_on_c, 0, 72, 0
2, 18300, Note_on_c, 0, 74, 64
2, 18360, Note_on_c, 0, 74, 0
2, 18360, Note_on_c, 0, 75, 64
2, 18480, Note_on_c, 0, 75, 0
2, 18480, Note_on_c, 0, 74, 64
2, 18600, Note_on_c, 0, 74, 0
2, 18600, Note_on_c, 0, 72, 64
2, 18720, Note_on_c, 0, 72, 0
2, 18720, Note_on_c, 0, 74, 64
2, 18840, Note_on_c, 0, 74, 0
2, 18840, Note_on_c, 0, 66, 64
2, 18900, Note_on_c, 0, 66, 0
2, 18900, Note_on_c, 0, 67, 64
2, 18960, Note_on_c, 0, 67, 0
2, 18960, Note_on_c, 0, 69, 64
2, 19020, Note_on_c, 0, 69, 0
2, 19020, Note_on_c, 0, 70, 64
2, 19080, Note_on_c, 0, 70, 0
2, 19080, Note_on_c, 0, 72, 64
2, 19140, Note_on_c, 0, 72, 0
2, 19140, Note_on_c, 0, 70, 64
2, 19200, Note_on_c, 0, 70, 0
2, 19200, Note_on_c, 0, 74, 64
2, 19260, Note_on_c, 0, 74, 0
2, 19260, Note_on_c, 0, 72, 64
2, 19320, Note_on_c, 0, 72, 0
2, 19320, Note_on_c, 0, 70, 64
2, 19380, Note_on_c, 0, 70, 0
2, 19380, Note_on_c, 0, 69, 64
2, 19440, Note_on_c, 0, 69, 0
2, 19440, Note_on_c, 0, 70, 64
2, 19500, Note_on_c, 0, 70, 0
2, 19500, Note_on_c, 0, 66, 64
2, 19560, Note_on_c, 0, 66, 0
2, 19560, Note_on_c, 0, 67, 64
2, 19620, Note_on_c, 0, 67, 0
2, 19620, Note_on_c, 0, 69, 64
2, 19680, Note_on_c, 0, 69, 0
2, 19680, Note_on_c, 0, 70, 64
2, 19740, Note_on_c, 0, 70, 0
2, 19740, Note_on_c, 0, 73, 64
2, 19800, Note_on_c, 0, 73, 0
2, 19800, Note_on_c, 0, 74, 64
2, 19860, Note_on_c, 0, 74, 0
2, 19860, Note_on_c, 0, 79, 64
2, 19920, Note_on_c, 0, 79, 0
2, 19920, Note_on_c, 0, 72, 74
2, 19942, Note_on_c, 0, 72, 0
2, 19942, Note_on_c, 0, 70, 41
2, 19964, Note_on_c, 0, 70, 0
2, 19964, Note_on_c, 0, 72, 46
2, 19986, Note_on_c, 0, 72, 0
2, 19986, Note_on_c, 0, 70, 50
2, 20008, Note_on_c, 0, 70, 0
2, 20008, Note_on_c, 0, 72, 55
2, 20030, Note_on_c, 0, 72, 0
2, 20030, Note_on_c, 0, 70, 57
2, 20040, Note_on_c, 0, 69, 64
2, 20052, Note_on_c, 0, 70, 0
2, 20100, Note_on_c, 0, 69, 0
2, 20100, Note_on_c, 0, 67, 64
2, 20160, Note_on_c, 0, 67, 0
2, 20160, Note_on_c, 0, 67, 64
2, 20280, Note_on_c, 0, 67, 0
2, 20280, Note_on_c, 0, 70, 64
2, 20570, Note_on_c, 0, 70, 0
2, 20580, Note_on_c, 0, 67, 64
2, 20640, Note_on_c, 0, 67, 0
2, 20640, Note_on_c, 0, 72, 64
2, 20700, Note_on_c, 0, 72, 0
2, 20700, Note_on_c, 0, 70, 64
2, 20760, Note_on_c, 0, 70, 0
2, 20760, Note_on_c, 0, 69, 64
2, 20820, Note_on_c, 0, 69, 0
2, 20820, Note_on_c, 0, 67, 64
2, 20880, Note_on_c, 0, 67, 0
2, 20880, Note_on_c, 0, 69, 64
2, 21290, Note_on_c, 0, 69, 0
2, 21300, Note_on_c, 0, 65, 64
2, 21360, Note_on_c, 0, 65, 0
2, 21360, Note_on_c, 0, 70, 64
2, 21420, Note_on_c, 0, 70, 0
2, 21420, Note_on_c, 0, 69, 64
2, 21480, Note_on_c, 0, 69, 0
2, 21480, Note_on_c, 0, 67, 64
2, 21540, Note_on_c, 0, 67, 0
2, 21540, Note_on_c, 0, 65, 64
2, 21600, Note_on_c, 0, 65, 0
2, 21600, Note_on_c, 0, 64, 64
2, 21720, Note_on_c, 0, 64, 0
2, 21720, Note_on_c, 0, 65, 64
2, 21840, Note_on_c, 0, 65, 0
2, 21840, Note_on_c, 0, 67, 64
2, 21960, Note_on_c, 0, 67, 0
2, 21960, Note_on_c, 0, 69, 64
2, 22080, Note_on_c, 0, 69, 0
2, 22080, Note_on_c, 0, 70, 64
2, 22200, Note_on_c, 0, 70, 0
2, 22200, Note_on_c, 0, 72, 64
2, 22320, Note_on_c, 0, 72, 0
2, 22320, Note_on_c, 0, 74, 64
2, 22440, Note_on_c, 0, 74, 0
2, 22440, Note_on_c, 0, 76, 64
2, 22560, Note_on_c, 0, 76, 0
2, 22560, Note_on_c, 0, 77, 64
2, 22680, Note_on_c, 0, 77, 0
2, 22680, Note_on_c, 0, 79, 64
2, 23090, Note_on_c, 0, 79, 0
2, 23100, Note_on_c, 0, 72, 64
2, 23160, Note_on_c, 0, 72, 0
2, 23160, Note_on_c, 0, 77, 64
2, 23220, Note_on_c, 0, 77, 0
2, 23220, Note_on_c, 0, 75, 64
2, 23280, Note_on_c, 0, 75, 0
2, 23280, Note_on_c, 0, 74, 64
2, 23340, Note_on_c, 0, 74, 0
2, 23340, Note_on_c, 0, 72, 64
2, 23400, Note_on_c, 0, 72, 0
2, 23400, Note_on_c, 0, 74, 64
2, 23460, Note_on_c, 0, 74, 0
2, 23460, Note_on_c, 0, 72, 64
2, 23520, Note_on_c, 0, 72, 0
2, 23520, Note_on_c, 0, 75, 64
2, 23580, Note_on_c, 0, 75, 0
2, 23580, Note_on_c, 0, 74, 64
2, 23640, Note_on_c, 0, 74, 0
2, 23640, Note_on_c, 0, 72, 64
2, 23700, Note_on_c, 0, 72, 0
2, 23700, Note_on_c, 0, 70, 64
2, 23760, Note_on_c, 0, 70, 0
2, 23760, Note_on_c, 0, 72, 64
2, 23880, Note_on_c, 0, 72, 0
2, 23880, Note_on_c, 0, 64, 64
2, 23940, Note_on_c, 0, 64, 0
2, 23940, Note_on_c, 0, 65, 64
2, 24000, Note_on_c, 0, 65, 0
2, 24000, Note_on_c, 0, 67, 64
2, 24060, Note_on_c, 0, 67, 0
2, 24060, Note_on_c, 0, 69, 64
2, 24120, Note_on_c, 0, 69, 0
2, 24120, Note_on_c, 0, 70, 64
2, 24180, Note_on_c, 0, 70, 0
2, 24180, Note_on_c, 0, 69, 64
2, 24240, Note_on_c, 0, 69, 0
2, 24240, Note_on_c, 0, 72, 64
2, 24300, Note_on_c, 0, 72, 0
2, 24300, Note_on_c, 0, 70, 64
2, 24360, Note_on_c, 0, 70, 0
2, 24360, Note_on_c, 0, 69, 64
2, 24420, Note_on_c, 0, 69, 0
2, 24420, Note_on_c, 0, 67, 64
2, 24480, Note_on_c, 0, 67, 0
2, 24480, Note_on_c, 0, 69, 64
2, 24540, Note_on_c, 0, 69, 0
2, 24540, Note_on_c, 0, 67, 64
2, 24600, Note_on_c, 0, 67, 0
2, 24600, Note_on_c, 0, 70, 64
2, 24660, Note_on_c, 0, 70, 0
2, 24660, Note_on_c, 0, 69, 64
2, 24720, Note_on_c, 0, 69, 0
2, 24720, Note_on_c, 0, 72, 64
2, 24780, Note_on_c, 0, 72, 0
2, 24780, Note_on_c, 0, 70, 64
2, 24840, Note_on_c, 0, 70, 0
2, 24840, Note_on_c, 0, 74, 64
2, 24900, Note_on_c, 0, 74, 0
2, 24900, Note_on_c, 0, 72, 64
2, 24960, Note_on_c, 0, 72, 0
2, 24960, Note_on_c, 0, 76, 64
2, 25020, Note_on_c, 0, 76, 0
2, 25020, Note_on_c, 0, 74, 64
2, 25080, Note_on_c, 0, 74, 0
2, 25080, Note_on_c, 0, 77, 64
2, 25140, Note_on_c, 0, 77, 0
2, 25140, Note_on_c, 0, 76, 64
2, 25200, Note_on_c, 0, 76, 0
2, 25200, Note_on_c, 0, 79, 64
2, 25260, Note_on_c, 0, 79, 0
2, 25260, Note_on_c, 0, 69, 64
2, 25320, Note_on_c, 0, 69, 0
2, 25320, Note_on_c, 0, 70, 64
2, 25380, Note_on_c, 0, 70, 0
2, 25380, Note_on_c, 0, 67, 64
2, 25440, Note_on_c, 0, 67, 0
2, 25440, Note_on_c, 0, 69, 64
2, 25620, Note_on_c, 0, 69, 0
2, 25620, Note_on_c, 0, 70, 64
2, 25680, Note_on_c, 0, 70, 0
2, 25680, Note_on_c, 0, 69, 76
2, 25702, Note_on_c, 0, 69, 0
2, 25702, Note_on_c, 0, 67, 40
2, 25724, Note_on_c, 0, 67, 0
2, 25724, Note_on_c, 0, 69, 46
2, 25746, Note_on_c, 0, 69, 0
2, 25746, Note_on_c, 0, 67, 52
2, 25768, Note_on_c, 0, 67, 0
2, 25768, Note_on_c, 0, 69, 58
2, 25790, Note_on_c, 0, 69, 0
2, 25790, Note_on_c, 0, 67, 64
2, 25860, Note_on_c, 0, 67, 0
2, 25860, Note_on_c, 0, 65, 70
2, 25920, Note_on_c, 0, 65, 0
2, 25920, End_track
3, 0, Start_track
3, 0, MIDI_port, 0
3, 0, Title_t, "RH L /LH H"
3, 0, Program_c, 1, 6
3, 240, Note_on_c, 1, 60, 64
3, 360, Note_on_c, 1, 60, 0
3, 360, Note_on_c, 1, 62, 64
3, 480, Note_on_c, 1, 62, 0
3, 480, Note_on_c, 1, 60, 64
3, 600, Note_on_c, 1, 60, 0
3, 600, Note_on_c, 1, 58, 64
3, 720, Note_on_c, 1, 58, 0
3, 720, Note_on_c, 1, 60, 64
3, 840, Note_on_c, 1, 60, 0
3, 840, Note_on_c, 1, 52, 64
3, 900, Note_on_c, 1, 52, 0
3, 900, Note_on_c, 1, 53, 64
3, 960, Note_on_c, 1, 53, 0
3, 960, Note_on_c, 1, 55, 64
3, 1020, Note_on_c, 1, 55, 0
3, 1020, Note_on_c, 1, 57, 64
3, 1080, Note_on_c, 1, 57, 0
3, 1080, Note_on_c, 1, 58, 64
3, 1200, Note_on_c, 1, 58, 0
3, 1200, Note_on_c, 1, 60, 64
3, 1260, Note_on_c, 1, 60, 0
3, 1260, Note_on_c, 1, 58, 64
3, 1320, Note_on_c, 1, 58, 0
3, 1320, Note_on_c, 1, 57, 64
3, 1380, Note_on_c, 1, 57, 0
3, 1380, Note_on_c, 1, 55, 64
3, 1440, Note_on_c, 1, 55, 0
3, 1440, Note_on_c, 1, 57, 64
3, 1500, Note_on_c, 1, 57, 0
3, 1500, Note_on_c, 1, 55, 64
3, 1560, Note_on_c, 1, 55, 0
3, 1560, Note_on_c, 1, 53, 64
3, 1620, Note_on_c, 1, 53, 0
3, 1620, Note_on_c, 1, 55, 64
3, 1680, Note_on_c, 1, 55, 0
3, 1680, Note_on_c, 1, 57, 64
3, 1740, Note_on_c, 1, 57, 0
3, 1740, Note_on_c, 1, 58, 64
3, 1800, Note_on_c, 1, 58, 0
3, 1800, Note_on_c, 1, 60, 64
3, 1860, Note_on_c, 1, 60, 0
3, 1860, Note_on_c, 1, 58, 64
3, 1920, Note_on_c, 1, 58, 0
3, 1920, Note_on_c, 1, 57, 64
3, 1980, Note_on_c, 1, 57, 0
3, 1980, Note_on_c, 1, 58, 64
3, 2040, Note_on_c, 1, 58, 0
3, 2040, Note_on_c, 1, 60, 64
3, 2100, Note_on_c, 1, 60, 0
3, 2100, Note_on_c, 1, 62, 64
3, 2160, Note_on_c, 1, 62, 0
3, 2160, Note_on_c, 1, 64, 64
3, 2220, Note_on_c, 1, 64, 0
3, 2220, Note_on_c, 1, 67, 64
3, 2280, Note_on_c, 1, 67, 0
3, 2280, Note_on_c, 1, 65, 64
3, 2340, Note_on_c, 1, 65, 0
3, 2340, Note_on_c, 1, 64, 64
3, 2400, Note_on_c, 1, 64, 0
3, 2400, Note_on_c, 1, 62, 64
3, 2460, Note_on_c, 1, 62, 0
3, 2460, Note_on_c, 1, 60, 64
3, 2510, Note_on_c, 1, 60, 0
3, 2520, Note_on_c, 1, 60, 74
3, 2542, Note_on_c, 1, 60, 0
3, 2542, Note_on_c, 1, 59, 42
3, 2564, Note_on_c, 1, 59, 0
3, 2564, Note_on_c, 1, 60, 47
3, 2586, Note_on_c, 1, 60, 0
3, 2586, Note_on_c, 1, 59, 52
3, 2608, Note_on_c, 1, 59, 0
3, 2608, Note_on_c, 1, 60, 57
3, 2630, Note_on_c, 1, 60, 0
3, 2630, Note_on_c, 1, 59, 64
3, 2880, Note_on_c, 1, 59, 0
3, 2880, Note_on_c, 1, 60, 64
3, 3000, Note_on_c, 1, 60, 0
3, 3000, Note_on_c, 1, 58, 64
3, 3120, Note_on_c, 1, 58, 0
3, 3120, Note_on_c, 1, 57, 64
3, 3240, Note_on_c, 1, 57, 0
3, 3240, Note_on_c, 1, 58, 64
3, 3300, Note_on_c, 1, 58, 0
3, 3300, Note_on_c, 1, 57, 64
3, 3360, Note_on_c, 1, 57, 0
3, 3360, Note_on_c, 1, 55, 64
3, 3420, Note_on_c, 1, 55, 0
3, 3420, Note_on_c, 1, 57, 64
3, 3480, Note_on_c, 1, 57, 0
3, 3480, Note_on_c, 1, 58, 64
3, 3540, Note_on_c, 1, 58, 0
3, 3540, Note_on_c, 1, 60, 64
3, 3600, Note_on_c, 1, 60, 0
3, 3600, Note_on_c, 1, 57, 64
3, 3840, Note_on_c, 1, 57, 0
3, 3840, Note_on_c, 1, 62, 64
3, 3960, Note_on_c, 1, 62, 0
3, 3960, Note_on_c, 1, 64, 64
3, 4080, Note_on_c, 1, 64, 0
3, 4080, Note_on_c, 1, 67, 64
3, 4200, Note_on_c, 1, 67, 0
3, 4200, Note_on_c, 1, 60, 64
3, 4320, Note_on_c, 1, 60, 0
3, 4320, Note_on_c, 1, 60, 64
3, 4920, Note_on_c, 1, 60, 0
3, 4920, Note_on_c, 1, 65, 64
3, 5040, Note_on_c, 1, 65, 0
3, 5040, Note_on_c, 1, 64, 64
3, 5280, Note_on_c, 1, 64, 0
3, 5280, Note_on_c, 1, 69, 64
3, 5400, Note_on_c, 1, 69, 0
3, 5400, Note_on_c, 1, 67, 64
3, 5640, Note_on_c, 1, 67, 0
3, 5640, Note_on_c, 1, 72, 64
3, 5820, Note_on_c, 1, 72, 0
3, 5820, Note_on_c, 1, 72, 64
3, 5880, Note_on_c, 1, 72, 0
3, 5880, Note_on_c, 1, 71, 64
3, 5940, Note_on_c, 1, 71, 0
3, 5940, Note_on_c, 1, 69, 64
3, 6000, Note_on_c, 1, 69, 0
3, 6000, Note_on_c, 1, 67, 64
3, 6060, Note_on_c, 1, 67, 0
3, 6060, Note_on_c, 1, 65, 64
3, 6120, Note_on_c, 1, 65, 0
3, 6120, Note_on_c, 1, 64, 64
3, 6300, Note_on_c, 1, 64, 0
3, 6300, Note_on_c, 1, 70, 64
3, 6360, Note_on_c, 1, 70, 0
3, 6360, Note_on_c, 1, 69, 64
3, 6420, Note_on_c, 1, 69, 0
3, 6420, Note_on_c, 1, 67, 64
3, 6480, Note_on_c, 1, 67, 0
3, 6480, Note_on_c, 1, 65, 64
3, 6540, Note_on_c, 1, 65, 0
3, 6540, Note_on_c, 1, 64, 64
3, 6600, Note_on_c, 1, 64, 0
3, 6600, Note_on_c, 1, 62, 64
3, 6660, Note_on_c, 1, 62, 0
3, 6660, Note_on_c, 1, 64, 64
3, 6720, Note_on_c, 1, 64, 0
3, 6720, Note_on_c, 1, 65, 64
3, 6780, Note_on_c, 1, 65, 0
3, 6780, Note_on_c, 1, 67, 64
3, 6840, Note_on_c, 1, 67, 0
3, 6840, Note_on_c, 1, 69, 64
3, 6960, Note_on_c, 1, 69, 0
3, 7800, Note_on_c, 1, 65, 64
3, 7920, Note_on_c, 1, 65, 0
3, 7920, Note_on_c, 1, 69, 64
3, 8040, Note_on_c, 1, 69, 0
3, 8040, Note_on_c, 1, 67, 64
3, 8160, Note_on_c, 1, 67, 0
3, 8160, Note_on_c, 1, 65, 64
3, 8280, Note_on_c, 1, 65, 0
3, 8280, Note_on_c, 1, 67, 64
3, 8400, Note_on_c, 1, 67, 0
3, 8400, Note_on_c, 1, 59, 64
3, 8460, Note_on_c, 1, 59, 0
3, 8460, Note_on_c, 1, 60, 64
3, 8520, Note_on_c, 1, 60, 0
3, 8520, Note_on_c, 1, 62, 64
3, 8580, Note_on_c, 1, 62, 0
3, 8580, Note_on_c, 1, 64, 64
3, 8640, Note_on_c, 1, 64, 0
3, 8640, Note_on_c, 1, 65, 64
3, 8760, Note_on_c, 1, 65, 0
3, 8760, Note_on_c, 1, 67, 64
3, 8820, Note_on_c, 1, 67, 0
3, 8820, Note_on_c, 1, 65, 64
3, 8880, Note_on_c, 1, 65, 0
3, 8880, Note_on_c, 1, 64, 64
3, 8940, Note_on_c, 1, 64, 0
3, 8940, Note_on_c, 1, 62, 64
3, 9000, Note_on_c, 1, 62, 0
3, 9000, Note_on_c, 1, 64, 64
3, 9060, Note_on_c, 1, 64, 0
3, 9060, Note_on_c, 1, 62, 64
3, 9120, Note_on_c, 1, 62, 0
3, 9120, Note_on_c, 1, 60, 64
3, 9180, Note_on_c, 1, 60, 0
3, 9180, Note_on_c, 1, 62, 64
3, 9240, Note_on_c, 1, 62, 0
3, 9240, Note_on_c, 1, 64, 64
3, 9300, Note_on_c, 1, 64, 0
3, 9300, Note_on_c, 1, 60, 64
3, 9360, Note_on_c, 1, 60, 0
3, 9360, Note_on_c, 1, 62, 64
3, 9600, Note_on_c, 1, 62, 0
3, 9960, Note_on_c, 1, 72, 64
3, 10080, Note_on_c, 1, 72, 0
3, 10080, Note_on_c, 1, 74, 64
3, 10200, Note_on_c, 1, 74, 0
3, 10200, Note_on_c, 1, 72, 64
3, 10320, Note_on_c, 1, 72, 0
3, 10320, Note_on_c, 1, 70, 64
3, 10440, Note_on_c, 1, 70, 0
3, 10440, Note_on_c, 1, 72, 64
3, 10560, Note_on_c, 1, 72, 0
3, 10560, Note_on_c, 1, 64, 64
3, 10620, Note_on_c, 1, 64, 0
3, 10620, Note_on_c, 1, 65, 64
3, 10680, Note_on_c, 1, 65, 0
3, 10680, Note_on_c, 1, 67, 64
3, 10740, Note_on_c, 1, 67, 0
3, 10740, Note_on_c, 1, 69, 64
3, 10800, Note_on_c, 1, 69, 0
3, 10800, Note_on_c, 1, 70, 64
3, 10920, Note_on_c, 1, 70, 0
3, 10920, Note_on_c, 1, 72, 64
3, 10980, Note_on_c, 1, 72, 0
3, 10980, Note_on_c, 1, 70, 64
3, 11040, Note_on_c, 1, 70, 0
3, 11040, Note_on_c, 1, 69, 64
3, 11100, Note_on_c, 1, 69, 0
3, 11100, Note_on_c, 1, 67, 64
3, 11160, Note_on_c, 1, 67, 0
3, 11160, Note_on_c, 1, 69, 64
3, 11640, Note_on_c, 1, 69, 0
3, 11640, Note_on_c, 1, 70, 64
3, 11700, Note_on_c, 1, 70, 0
3, 11700, Note_on_c, 1, 69, 64
3, 11760, Note_on_c, 1, 69, 0
3, 11760, Note_on_c, 1, 67, 64
3, 11820, Note_on_c, 1, 67, 0
3, 11820, Note_on_c, 1, 65, 64
3, 11880, Note_on_c, 1, 65, 0
3, 11880, Note_on_c, 1, 67, 64
3, 12360, Note_on_c, 1, 67, 0
3, 12360, Note_on_c, 1, 69, 64
3, 12420, Note_on_c, 1, 69, 0
3, 12420, Note_on_c, 1, 67, 64
3, 12480, Note_on_c, 1, 67, 0
3, 12480, Note_on_c, 1, 65, 64
3, 12540, Note_on_c, 1, 65, 0
3, 12540, Note_on_c, 1, 64, 64
3, 12600, Note_on_c, 1, 64, 0
3, 12600, Note_on_c, 1, 65, 64
3, 12660, Note_on_c, 1, 65, 0
3, 12660, Note_on_c, 1, 64, 64
3, 12720, Note_on_c, 1, 64, 0
3, 12720, Note_on_c, 1, 65, 64
3, 12780, Note_on_c, 1, 65, 0
3, 12780, Note_on_c, 1, 67, 64
3, 12840, Note_on_c, 1, 67, 0
3, 12840, Note_on_c, 1, 69, 64
3, 12900, Note_on_c, 1, 69, 0
3, 12900, Note_on_c, 1, 67, 64
3, 12960, Note_on_c, 1, 67, 0
3, 12960, Note_on_c, 1, 69, 64
3, 13020, Note_on_c, 1, 69, 0
3, 13020, Note_on_c, 1, 70, 64
3, 13080, Note_on_c, 1, 70, 0
3, 13080, Note_on_c, 1, 69, 64
3, 13140, Note_on_c, 1, 69, 0
3, 13140, Note_on_c, 1, 67, 64
3, 13200, Note_on_c, 1, 67, 0
3, 13200, Note_on_c, 1, 65, 64
3, 13260, Note_on_c, 1, 65, 0
3, 13260, Note_on_c, 1, 64, 64
3, 13320, Note_on_c, 1, 64, 0
3, 13320, Note_on_c, 1, 62, 64
3, 13380, Note_on_c, 1, 62, 0
3, 13380, Note_on_c, 1, 61, 64
3, 13440, Note_on_c, 1, 61, 0
3, 13440, Note_on_c, 1, 62, 64
3, 13500, Note_on_c, 1, 62, 0
3, 13500, Note_on_c, 1, 65, 64
3, 13560, Note_on_c, 1, 65, 0
3, 13560, Note_on_c, 1, 64, 64
3, 13620, Note_on_c, 1, 64, 0
3, 13620, Note_on_c, 1, 62, 64
3, 13680, Note_on_c, 1, 62, 0
3, 13680, Note_on_c, 1, 61, 64
3, 13800, Note_on_c, 1, 61, 0
3, 13920, Note_on_c, 1, 69, 64
3, 14040, Note_on_c, 1, 69, 0
3, 14040, Note_on_c, 1, 70, 64
3, 14160, Note_on_c, 1, 70, 0
3, 14160, Note_on_c, 1, 69, 64
3, 14280, Note_on_c, 1, 69, 0
3, 14280, Note_on_c, 1, 67, 64
3, 14400, Note_on_c, 1, 67, 0
3, 14400, Note_on_c, 1, 69, 64
3, 14520, Note_on_c, 1, 69, 0
3, 14520, Note_on_c, 1, 61, 64
3, 14580, Note_on_c, 1, 61, 0
3, 14580, Note_on_c, 1, 62, 64
3, 14640, Note_on_c, 1, 62, 0
3, 14640, Note_on_c, 1, 64, 64
3, 14700, Note_on_c, 1, 64, 0
3, 14700, Note_on_c, 1, 65, 64
3, 14760, Note_on_c, 1, 65, 0
3, 14760, Note_on_c, 1, 67, 64
3, 14880, Note_on_c, 1, 67, 0
3, 14880, Note_on_c, 1, 69, 64
3, 14940, Note_on_c, 1, 69, 0
3, 14940, Note_on_c, 1, 67, 64
3, 15000, Note_on_c, 1, 67, 0
3, 15000, Note_on_c, 1, 65, 64
3, 15060, Note_on_c, 1, 65, 0
3, 15060, Note_on_c, 1, 64, 64
3, 15120, Note_on_c, 1, 64, 0
3, 15120, Note_on_c, 1, 65, 64
3, 15360, Note_on_c, 1, 65, 0
3, 15480, Note_on_c, 1, 61, 64
3, 15890, Note_on_c, 1, 61, 0
3, 15900, Note_on_c, 1, 57, 64
3, 15960, Note_on_c, 1, 57, 0
3, 15960, Note_on_c, 1, 59, 64
3, 16020, Note_on_c, 1, 59, 0
3, 16020, Note_on_c, 1, 61, 64
3, 16080, Note_on_c, 1, 61, 0
3, 16080, Note_on_c, 1, 62, 64
3, 16140, Note_on_c, 1, 62, 0
3, 16140, Note_on_c, 1, 64, 64
3, 16200, Note_on_c, 1, 64, 0
3, 16200, Note_on_c, 1, 65, 64
3, 16260, Note_on_c, 1, 65, 0
3, 16260, Note_on_c, 1, 64, 64
3, 16320, Note_on_c, 1, 64, 0
3, 16320, Note_on_c, 1, 61, 64
3, 16560, Note_on_c, 1, 61, 0
3, 16560, Note_on_c, 1, 62, 64
3, 16800, Note_on_c, 1, 62, 0
3, 17520, Note_on_c, 1, 62, 64
3, 17640, Note_on_c, 1, 62, 0
3, 17640, Note_on_c, 1, 63, 64
3, 17760, Note_on_c, 1, 63, 0
3, 17760, Note_on_c, 1, 62, 64
3, 17880, Note_on_c, 1, 62, 0
3, 17880, Note_on_c, 1, 60, 64
3, 18000, Note_on_c, 1, 60, 0
3, 18000, Note_on_c, 1, 62, 64
3, 18120, Note_on_c, 1, 62, 0
3, 18120, Note_on_c, 1, 54, 64
3, 18180, Note_on_c, 1, 54, 0
3, 18180, Note_on_c, 1, 55, 64
3, 18240, Note_on_c, 1, 55, 0
3, 18240, Note_on_c, 1, 57, 64
3, 18300, Note_on_c, 1, 57, 0
3, 18300, Note_on_c, 1, 58, 64
3, 18360, Note_on_c, 1, 58, 0
3, 18360, Note_on_c, 1, 60, 64
3, 18420, Note_on_c, 1, 60, 0
3, 18420, Note_on_c, 1, 58, 64
3, 18480, Note_on_c, 1, 58, 0
3, 18480, Note_on_c, 1, 62, 64
3, 18540, Note_on_c, 1, 62, 0
3, 18540, Note_on_c, 1, 60, 64
3, 18600, Note_on_c, 1, 60, 0
3, 18600, Note_on_c, 1, 58, 64
3, 18660, Note_on_c, 1, 58, 0
3, 18660, Note_on_c, 1, 57, 64
3, 18720, Note_on_c, 1, 57, 0
3, 18720, Note_on_c, 1, 58, 64
3, 18780, Note_on_c, 1, 58, 0
3, 18780, Note_on_c, 1, 62, 64
3, 18840, Note_on_c, 1, 62, 0
3, 18840, Note_on_c, 1, 60, 64
3, 18900, Note_on_c, 1, 60, 0
3, 18900, Note_on_c, 1, 58, 64
3, 18960, Note_on_c, 1, 58, 0
3, 18960, Note_on_c, 1, 57, 64
3, 19020, Note_on_c, 1, 57, 0
3, 19020, Note_on_c, 1, 55, 64
3, 19080, Note_on_c, 1, 55, 0
3, 19080, Note_on_c, 1, 54, 64
3, 19200, Note_on_c, 1, 54, 0
3, 19440, Note_on_c, 1, 55, 64
3, 19500, Note_on_c, 1, 55, 0
3, 19500, Note_on_c, 1, 57, 64
3, 19560, Note_on_c, 1, 57, 0
3, 19560, Note_on_c, 1, 58, 64
3, 19620, Note_on_c, 1, 58, 0
3, 19620, Note_on_c, 1, 60, 64
3, 19680, Note_on_c, 1, 60, 0
3, 19680, Note_on_c, 1, 62, 64
3, 19740, Note_on_c, 1, 62, 0
3, 19740, Note_on_c, 1, 57, 64
3, 19800, Note_on_c, 1, 57, 0
3, 19800, Note_on_c, 1, 58, 64
3, 19920, Note_on_c, 1, 58, 0
3, 19920, Note_on_c, 1, 55, 64
3, 20040, Note_on_c, 1, 55, 0
3, 20040, Note_on_c, 1, 54, 64
3, 20160, Note_on_c, 1, 54, 0
3, 20160, Note_on_c, 1, 55, 64
3, 20220, Note_on_c, 1, 55, 0
3, 20220, Note_on_c, 1, 62, 64
3, 20280, Note_on_c, 1, 62, 0
3, 20280, Note_on_c, 1, 67, 64
3, 20340, Note_on_c, 1, 67, 0
3, 20340, Note_on_c, 1, 65, 64
3, 20400, Note_on_c, 1, 65, 0
3, 20400, Note_on_c, 1, 63, 64
3, 20460, Note_on_c, 1, 63, 0
3, 20460, Note_on_c, 1, 62, 64
3, 20520, Note_on_c, 1, 62, 0
3, 20520, Note_on_c, 1, 63, 64
3, 20880, Note_on_c, 1, 63, 0
3, 20940, Note_on_c, 1, 60, 64
3, 21000, Note_on_c, 1, 60, 0
3, 21000, Note_on_c, 1, 65, 64
3, 21060, Note_on_c, 1, 65, 0
3, 21060, Note_on_c, 1, 63, 64
3, 21120, Note_on_c, 1, 63, 0
3, 21120, Note_on_c, 1, 62, 64
3, 21180, Note_on_c, 1, 62, 0
3, 21180, Note_on_c, 1, 60, 64
3, 21240, Note_on_c, 1, 60, 0
3, 21240, Note_on_c, 1, 62, 64
3, 21600, Note_on_c, 1, 62, 0
3, 21600, Note_on_c, 1, 60, 64
3, 21720, Note_on_c, 1, 60, 0
3, 21720, Note_on_c, 1, 62, 64
3, 21840, Note_on_c, 1, 62, 0
3, 21840, Note_on_c, 1, 63, 64
3, 21960, Note_on_c, 1, 63, 0
3, 21960, Note_on_c, 1, 65, 64
3, 22080, Note_on_c, 1, 65, 0
3, 22080, Note_on_c, 1, 67, 64
3, 22200, Note_on_c, 1, 67, 0
3, 22200, Note_on_c, 1, 69, 64
3, 22320, Note_on_c, 1, 69, 0
3, 22320, Note_on_c, 1, 70, 64
3, 22730, Note_on_c, 1, 70, 0
3, 22740, Note_on_c, 1, 67, 64
3, 22800, Note_on_c, 1, 67, 0
3, 22800, Note_on_c, 1, 72, 64
3, 22860, Note_on_c, 1, 72, 0
3, 22860, Note_on_c, 1, 70, 64
3, 22920, Note_on_c, 1, 70, 0
3, 22920, Note_on_c, 1, 69, 64
3, 22980, Note_on_c, 1, 69, 0
3, 22980, Note_on_c, 1, 67, 64
3, 23040, Note_on_c, 1, 67, 0
3, 23040, Note_on_c, 1, 69, 64
3, 23520, Note_on_c, 1, 69, 0
3, 23520, Note_on_c, 1, 62, 64
3, 23640, Note_on_c, 1, 62, 0
3, 23640, Note_on_c, 1, 67, 64
3, 23820, Note_on_c, 1, 67, 0
3, 23820, Note_on_c, 1, 65, 64
3, 23880, Note_on_c, 1, 65, 0
3, 23880, Note_on_c, 1, 70, 64
3, 23940, Note_on_c, 1, 70, 0
3, 23940, Note_on_c, 1, 69, 64
3, 24000, Note_on_c, 1, 69, 0
3, 24000, Note_on_c, 1, 67, 64
3, 24060, Note_on_c, 1, 67, 0
3, 24060, Note_on_c, 1, 65, 64
3, 24120, Note_on_c, 1, 65, 0
3, 24120, Note_on_c, 1, 67, 64
3, 24240, Note_on_c, 1, 67, 0
3, 24240, Note_on_c, 1, 58, 64
3, 24300, Note_on_c, 1, 58, 0
3, 24300, Note_on_c, 1, 60, 64
3, 24360, Note_on_c, 1, 60, 0
3, 24360, Note_on_c, 1, 62, 64
3, 24420, Note_on_c, 1, 62, 0
3, 24420, Note_on_c, 1, 64, 64
3, 24480, Note_on_c, 1, 64, 0
3, 24480, Note_on_c, 1, 65, 64
3, 25080, Note_on_c, 1, 65, 0
3, 25080, Note_on_c, 1, 58, 64
3, 25320, Note_on_c, 1, 58, 0
3, 25320, Note_on_c, 1, 64, 64
3, 25440, Note_on_c, 1, 64, 0
3, 25440, Note_on_c, 1, 65, 64
3, 25680, Note_on_c, 1, 65, 0
3, 25680, Note_on_c, 1, 64, 64
3, 25920, Note_on_c, 1, 64, 0
3, 25920, Note_on_c, 1, 65, 64
3, 26400, Note_on_c, 1, 65, 0
3, 26400, End_track
4, 0, Start_track
4, 0, MIDI_port, 0
4, 0, Title_t, "LH L"
4, 0, Program_c, 2, 6
4, 3480, Note_on_c, 2, 48, 64
4, 3600, Note_on_c, 2, 48, 0
4, 3600, Note_on_c, 2, 50, 64
4, 3720, Note_on_c, 2, 50, 0
4, 3720, Note_on_c, 2, 48, 64
4, 3840, Note_on_c, 2, 48, 0
4, 3840, Note_on_c, 2, 46, 64
4, 3960, Note_on_c, 2, 46, 0
4, 3960, Note_on_c, 2, 48, 64
4, 4080, Note_on_c, 2, 48, 0
4, 4080, Note_on_c, 2, 40, 64
4, 4140, Note_on_c, 2, 40, 0
4, 4140, Note_on_c, 2, 41, 64
4, 4200, Note_on_c, 2, 41, 0
4, 4200, Note_on_c, 2, 43, 64
4, 4260, Note_on_c, 2, 43, 0
4, 4260, Note_on_c, 2, 45, 64
4, 4320, Note_on_c, 2, 45, 0
4, 4320, Note_on_c, 2, 46, 64
4, 4440, Note_on_c, 2, 46, 0
4, 4440, Note_on_c, 2, 48, 64
4, 4500, Note_on_c, 2, 48, 0
4, 4500, Note_on_c, 2, 46, 64
4, 4560, Note_on_c, 2, 46, 0
4, 4560, Note_on_c, 2, 45, 64
4, 4620, Note_on_c, 2, 45, 0
4, 4620, Note_on_c, 2, 43, 64
4, 4680, Note_on_c, 2, 43, 0
4, 4680, Note_on_c, 2, 45, 64
4, 4740, Note_on_c, 2, 45, 0
4, 4740, Note_on_c, 2, 43, 64
4, 4800, Note_on_c, 2, 43, 0
4, 4800, Note_on_c, 2, 41, 64
4, 4860, Note_on_c, 2, 41, 0
4, 4860, Note_on_c, 2, 43, 64
4, 4920, Note_on_c, 2, 43, 0
4, 4920, Note_on_c, 2, 45, 64
4, 4980, Note_on_c, 2, 45, 0
4, 4980, Note_on_c, 2, 46, 64
4, 5040, Note_on_c, 2, 46, 0
4, 5040, Note_on_c, 2, 48, 64
4, 5100, Note_on_c, 2, 48, 0
4, 5100, Note_on_c, 2, 47, 64
4, 5160, Note_on_c, 2, 47, 0
4, 5160, Note_on_c, 2, 45, 64
4, 5220, Note_on_c, 2, 45, 0
4, 5220, Note_on_c, 2, 47, 64
4, 5280, Note_on_c, 2, 47, 0
4, 5280, Note_on_c, 2, 48, 64
4, 5340, Note_on_c, 2, 48, 0
4, 5340, Note_on_c, 2, 50, 64
4, 5400, Note_on_c, 2, 50, 0
4, 5400, Note_on_c, 2, 52, 64
4, 5460, Note_on_c, 2, 52, 0
4, 5460, Note_on_c, 2, 55, 64
4, 5520, Note_on_c, 2, 55, 0
4, 5520, Note_on_c, 2, 53, 64
4, 5580, Note_on_c, 2, 53, 0
4, 5580, Note_on_c, 2, 52, 64
4, 5640, Note_on_c, 2, 52, 0
4, 5640, Note_on_c, 2, 50, 64
4, 5700, Note_on_c, 2, 50, 0
4, 5700, Note_on_c, 2, 48, 64
4, 5760, Note_on_c, 2, 48, 0
4, 5760, Note_on_c, 2, 48, 76
4, 5782, Note_on_c, 2, 48, 0
4, 5782, Note_on_c, 2, 47, 42
4, 5804, Note_on_c, 2, 47, 0
4, 5804, Note_on_c, 2, 48, 47
4, 5826, Note_on_c, 2, 48, 0
4, 5826, Note_on_c, 2, 47, 53
4, 5848, Note_on_c, 2, 47, 0
4, 5848, Note_on_c, 2, 48, 58
4, 5870, Note_on_c, 2, 48, 0
4, 5870, Note_on_c, 2, 47, 64
4, 6120, Note_on_c, 2, 47, 0
4, 6120, Note_on_c, 2, 48, 64
4, 6240, Note_on_c, 2, 48, 0
4, 6240, Note_on_c, 2, 50, 64
4, 6300, Note_on_c, 2, 50, 0
4, 6300, Note_on_c, 2, 52, 64
4, 6360, Note_on_c, 2, 52, 0
4, 6360, Note_on_c, 2, 53, 64
4, 6480, Note_on_c, 2, 53, 0
4, 6480, Note_on_c, 2, 58, 64
4, 6840, Note_on_c, 2, 58, 0
4, 6840, Note_on_c, 2, 57, 64
4, 6900, Note_on_c, 2, 57, 0
4, 6900, Note_on_c, 2, 60, 64
4, 6960, Note_on_c, 2, 60, 0
4, 6960, Note_on_c, 2, 58, 64
4, 7020, Note_on_c, 2, 58, 0
4, 7020, Note_on_c, 2, 57, 64
4, 7080, Note_on_c, 2, 57, 0
4, 7080, Note_on_c, 2, 55, 64
4, 7140, Note_on_c, 2, 55, 0
4, 7140, Note_on_c, 2, 53, 64
4, 7190, Note_on_c, 2, 53, 0
4, 7200, Note_on_c, 2, 53, 74
4, 7222, Note_on_c, 2, 53, 0
4, 7222, Note_on_c, 2, 52, 40
4, 7244, Note_on_c, 2, 52, 0
4, 7244, Note_on_c, 2, 53, 46
4, 7266, Note_on_c, 2, 53, 0
4, 7266, Note_on_c, 2, 52, 52
4, 7288, Note_on_c, 2, 52, 0
4, 7288, Note_on_c, 2, 53, 59
4, 7310, Note_on_c, 2, 53, 0
4, 7310, Note_on_c, 2, 52, 64
4, 7560, Note_on_c, 2, 52, 0
4, 7560, Note_on_c, 2, 53, 64
4, 7800, Note_on_c, 2, 53, 0
4, 9240, Note_on_c, 2, 60, 64
4, 9360, Note_on_c, 2, 60, 0
4, 9360, Note_on_c, 2, 62, 64
4, 9480, Note_on_c, 2, 62, 0
4, 9480, Note_on_c, 2, 60, 64
4, 9600, Note_on_c, 2, 60, 0
4, 9600, Note_on_c, 2, 58, 64
4, 9720, Note_on_c, 2, 58, 0
4, 9720, Note_on_c, 2, 60, 64
4, 9840, Note_on_c, 2, 60, 0
4, 9840, Note_on_c, 2, 52, 64
4, 9900, Note_on_c, 2, 52, 0
4, 9900, Note_on_c, 2, 53, 64
4, 9960, Note_on_c, 2, 53, 0
4, 9960, Note_on_c, 2, 55, 64
4, 10020, Note_on_c, 2, 55, 0
4, 10020, Note_on_c, 2, 57, 64
4, 10080, Note_on_c, 2, 57, 0
4, 10080, Note_on_c, 2, 58, 64
4, 10200, Note_on_c, 2, 58, 0
4, 10200, Note_on_c, 2, 60, 64
4, 10260, Note_on_c, 2, 60, 0
4, 10260, Note_on_c, 2, 58, 64
4, 10320, Note_on_c, 2, 58, 0
4, 10320, Note_on_c, 2, 57, 64
4, 10380, Note_on_c, 2, 57, 0
4, 10380, Note_on_c, 2, 55, 64
4, 10440, Note_on_c, 2, 55, 0
4, 10440, Note_on_c, 2, 57, 64
4, 10500, Note_on_c, 2, 57, 0
4, 10500, Note_on_c, 2, 60, 64
4, 10560, Note_on_c, 2, 60, 0
4, 10560, Note_on_c, 2, 58, 64
4, 10620, Note_on_c, 2, 58, 0
4, 10620, Note_on_c, 2, 57, 64
4, 10680, Note_on_c, 2, 57, 0
4, 10680, Note_on_c, 2, 55, 64
4, 10740, Note_on_c, 2, 55, 0
4, 10740, Note_on_c, 2, 53, 64
4, 10790, Note_on_c, 2, 53, 0
4, 10800, Note_on_c, 2, 53, 75
4, 10822, Note_on_c, 2, 53, 0
4, 10822, Note_on_c, 2, 52, 41
4, 10844, Note_on_c, 2, 52, 0
4, 10844, Note_on_c, 2, 53, 47
4, 10866, Note_on_c, 2, 53, 0
4, 10866, Note_on_c, 2, 52, 53
4, 10888, Note_on_c, 2, 52, 0
4, 10888, Note_on_c, 2, 53, 59
4, 10910, Note_on_c, 2, 53, 0
4, 10910, Note_on_c, 2, 52, 64
4, 11160, Note_on_c, 2, 52, 0
4, 11160, Note_on_c, 2, 53, 64
4, 11280, Note_on_c, 2, 53, 0
4, 11280, Note_on_c, 2, 55, 64
4, 11400, Note_on_c, 2, 55, 0
4, 11400, Note_on_c, 2, 57, 64
4, 11520, Note_on_c, 2, 57, 0
4, 11520, Note_on_c, 2, 50, 64
4, 11760, Note_on_c, 2, 50, 0
4, 11880, Note_on_c, 2, 52, 64
4, 12000, Note_on_c, 2, 52, 0
4, 12000, Note_on_c, 2, 53, 64
4, 12120, Note_on_c, 2, 53, 0
4, 12120, Note_on_c, 2, 55, 64
4, 12240, Note_on_c, 2, 55, 0
4, 12240, Note_on_c, 2, 49, 64
4, 12480, Note_on_c, 2, 49, 0
4, 12480, Note_on_c, 2, 61, 64
4, 12600, Note_on_c, 2, 61, 0
4, 12600, Note_on_c, 2, 62, 64
4, 12720, Note_on_c, 2, 62, 0
4, 12720, Note_on_c, 2, 60, 64
4, 12840, Note_on_c, 2, 60, 0
4, 12840, Note_on_c, 2, 58, 64
4, 12960, Note_on_c, 2, 58, 0
4, 12960, Note_on_c, 2, 57, 64
4, 14640, Note_on_c, 2, 57, 0
4, 14640, Note_on_c, 2, 57, 64
4, 14760, Note_on_c, 2, 57, 0
4, 14760, Note_on_c, 2, 58, 64
4, 14880, Note_on_c, 2, 58, 0
4, 14880, Note_on_c, 2, 57, 64
4, 15000, Note_on_c, 2, 57, 0
4, 15000, Note_on_c, 2, 55, 64
4, 15120, Note_on_c, 2, 55, 0
4, 15120, Note_on_c, 2, 57, 64
4, 15240, Note_on_c, 2, 57, 0
4, 15240, Note_on_c, 2, 49, 64
4, 15300, Note_on_c, 2, 49, 0
4, 15300, Note_on_c, 2, 50, 64
4, 15360, Note_on_c, 2, 50, 0
4, 15360, Note_on_c, 2, 52, 64
4, 15420, Note_on_c, 2, 52, 0
4, 15420, Note_on_c, 2, 53, 64
4, 15480, Note_on_c, 2, 53, 0
4, 15480, Note_on_c, 2, 55, 64
4, 15600, Note_on_c, 2, 55, 0
4, 15600, Note_on_c, 2, 57, 64
4, 15660, Note_on_c, 2, 57, 0
4, 15660, Note_on_c, 2, 55, 64
4, 15720, Note_on_c, 2, 55, 0
4, 15720, Note_on_c, 2, 53, 64
4, 15780, Note_on_c, 2, 53, 0
4, 15780, Note_on_c, 2, 52, 64
4, 15840, Note_on_c, 2, 52, 0
4, 15840, Note_on_c, 2, 53, 64
4, 16020, Note_on_c, 2, 53, 0
4, 16020, Note_on_c, 2, 55, 64
4, 16080, Note_on_c, 2, 55, 0
4, 16080, Note_on_c, 2, 53, 64
4, 16140, Note_on_c, 2, 53, 0
4, 16140, Note_on_c, 2, 52, 64
4, 16200, Note_on_c, 2, 52, 0
4, 16200, Note_on_c, 2, 50, 64
4, 16260, Note_on_c, 2, 50, 0
4, 16260, Note_on_c, 2, 55, 64
4, 16320, Note_on_c, 2, 55, 0
4, 16320, Note_on_c, 2, 57, 64
4, 16440, Note_on_c, 2, 57, 0
4, 16440, Note_on_c, 2, 45, 64
4, 16560, Note_on_c, 2, 45, 0
4, 16560, Note_on_c, 2, 38, 64
4, 16800, Note_on_c, 2, 38, 0
4, 16800, Note_on_c, 2, 50, 64
4, 16920, Note_on_c, 2, 50, 0
4, 16920, Note_on_c, 2, 51, 64
4, 17040, Note_on_c, 2, 51, 0
4, 17040, Note_on_c, 2, 50, 64
4, 17160, Note_on_c, 2, 50, 0
4, 17160, Note_on_c, 2, 48, 64
4, 17280, Note_on_c, 2, 48, 0
4, 17280, Note_on_c, 2, 50, 64
4, 17400, Note_on_c, 2, 50, 0
4, 17400, Note_on_c, 2, 42, 64
4, 17460, Note_on_c, 2, 42, 0
4, 17460, Note_on_c, 2, 43, 64
4, 17520, Note_on_c, 2, 43, 0
4, 17520, Note_on_c, 2, 45, 64
4, 17580, Note_on_c, 2, 45, 0
4, 17580, Note_on_c, 2, 46, 64
4, 17640, Note_on_c, 2, 46, 0
4, 17640, Note_on_c, 2, 48, 64
4, 17700, Note_on_c, 2, 48, 0
4, 17700, Note_on_c, 2, 46, 64
4, 17760, Note_on_c, 2, 46, 0
4, 17760, Note_on_c, 2, 50, 64
4, 17820, Note_on_c, 2, 50, 0
4, 17820, Note_on_c, 2, 48, 64
4, 17880, Note_on_c, 2, 48, 0
4, 17880, Note_on_c, 2, 46, 64
4, 17940, Note_on_c, 2, 46, 0
4, 17940, Note_on_c, 2, 45, 64
4, 18000, Note_on_c, 2, 45, 0
4, 18000, Note_on_c, 2, 46, 64
4, 18120, Note_on_c, 2, 46, 0
4, 18360, Note_on_c, 2, 54, 64
4, 18480, Note_on_c, 2, 54, 0
4, 18720, Note_on_c, 2, 55, 64
4, 18840, Note_on_c, 2, 55, 0
4, 19080, Note_on_c, 2, 51, 64
4, 19200, Note_on_c, 2, 51, 0
4, 19440, Note_on_c, 2, 50, 64
4, 19560, Note_on_c, 2, 50, 0
4, 19860, Note_on_c, 2, 48, 64
4, 19920, Note_on_c, 2, 48, 0
4, 19920, Note_on_c, 2, 50, 64
4, 20040, Note_on_c, 2, 50, 0
4, 20040, Note_on_c, 2, 50, 64
4, 20160, Note_on_c, 2, 50, 0
4, 20160, Note_on_c, 2, 43, 64
4, 20280, Note_on_c, 2, 43, 0
4, 20280, Note_on_c, 2, 45, 64
4, 20400, Note_on_c, 2, 45, 0
4, 20400, Note_on_c, 2, 46, 64
4, 20520, Note_on_c, 2, 46, 0
4, 20520, Note_on_c, 2, 48, 64
4, 20640, Note_on_c, 2, 48, 0
4, 20640, Note_on_c, 2, 50, 64
4, 20760, Note_on_c, 2, 50, 0
4, 20760, Note_on_c, 2, 52, 64
4, 20880, Note_on_c, 2, 52, 0
4, 20880, Note_on_c, 2, 53, 64
4, 21000, Note_on_c, 2, 53, 0
4, 21000, Note_on_c, 2, 55, 64
4, 21120, Note_on_c, 2, 55, 0
4, 21120, Note_on_c, 2, 57, 64
4, 21240, Note_on_c, 2, 57, 0
4, 21240, Note_on_c, 2, 58, 64
4, 21660, Note_on_c, 2, 58, 0
4, 21660, Note_on_c, 2, 55, 64
4, 21720, Note_on_c, 2, 55, 0
4, 21720, Note_on_c, 2, 60, 64
4, 21780, Note_on_c, 2, 60, 0
4, 21780, Note_on_c, 2, 58, 64
4, 21840, Note_on_c, 2, 58, 0
4, 21840, Note_on_c, 2, 57, 64
4, 21900, Note_on_c, 2, 57, 0
4, 21900, Note_on_c, 2, 55, 64
4, 21960, Note_on_c, 2, 55, 0
4, 21960, Note_on_c, 2, 53, 64
4, 22020, Note_on_c, 2, 53, 0
4, 22020, Note_on_c, 2, 48, 64
4, 22080, Note_on_c, 2, 48, 0
4, 22080, Note_on_c, 2, 53, 64
4, 22140, Note_on_c, 2, 53, 0
4, 22140, Note_on_c, 2, 51, 64
4, 22200, Note_on_c, 2, 51, 0
4, 22200, Note_on_c, 2, 50, 64
4, 22260, Note_on_c, 2, 50, 0
4, 22260, Note_on_c, 2, 48, 64
4, 22320, Note_on_c, 2, 48, 0
4, 22320, Note_on_c, 2, 46, 64
4, 22380, Note_on_c, 2, 46, 0
4, 22380, Note_on_c, 2, 48, 64
4, 22440, Note_on_c, 2, 48, 0
4, 22440, Note_on_c, 2, 46, 64
4, 22500, Note_on_c, 2, 46, 0
4, 22500, Note_on_c, 2, 45, 64
4, 22560, Note_on_c, 2, 45, 0
4, 22560, Note_on_c, 2, 43, 64
4, 22620, Note_on_c, 2, 43, 0
4, 22620, Note_on_c, 2, 41, 64
4, 22680, Note_on_c, 2, 41, 0
4, 22680, Note_on_c, 2, 40, 64
4, 22920, Note_on_c, 2, 40, 0
4, 23040, Note_on_c, 2, 41, 64
4, 23160, Note_on_c, 2, 41, 0
4, 23160, Note_on_c, 2, 43, 64
4, 23280, Note_on_c, 2, 43, 0
4, 23280, Note_on_c, 2, 45, 64
4, 23400, Note_on_c, 2, 45, 0
4, 23400, Note_on_c, 2, 46, 64
4, 23640, Note_on_c, 2, 46, 0
4, 23760, Note_on_c, 2, 45, 64
4, 24000, Note_on_c, 2, 45, 0
4, 24120, Note_on_c, 2, 43, 64
4, 24360, Note_on_c, 2, 43, 0
4, 24480, Note_on_c, 2, 41, 64
4, 24600, Note_on_c, 2, 41, 0
4, 24600, Note_on_c, 2, 43, 64
4, 24720, Note_on_c, 2, 43, 0
4, 24720, Note_on_c, 2, 45, 64
4, 24840, Note_on_c, 2, 45, 0
4, 24840, Note_on_c, 2, 46, 64
4, 24960, Note_on_c, 2, 46, 0
4, 24960, Note_on_c, 2, 48, 64
4, 25080, Note_on_c, 2, 48, 0
4, 25080, Note_on_c, 2, 50, 64
4, 25200, Note_on_c, 2, 50, 0
4, 25200, Note_on_c, 2, 52, 64
4, 25320, Note_on_c, 2, 52, 0
4, 25320, Note_on_c, 2, 48, 64
4, 25440, Note_on_c, 2, 48, 0
4, 25440, Note_on_c, 2, 53, 64
4, 25560, Note_on_c, 2, 53, 0
4, 25560, Note_on_c, 2, 46, 64
4, 25680, Note_on_c, 2, 46, 0
4, 25680, Note_on_c, 2, 48, 64
4, 25800, Note_on_c, 2, 48, 0
4, 25800, Note_on_c, 2, 36, 64
4, 25920, Note_on_c, 2, 36, 0
4, 25920, Note_on_c, 2, 41, 64
4, 26400, Note_on_c, 2, 41, 0
4, 26400, End_track
0, 0, End_of_file
