0, 0, Header, 1, 13, 240
1, 0, Start_track
1, 0, Sequencer_specific, 10, 0, 0, 91, 35, 1, 0, 5, 6, 42, 0
1, 0, Title_t, "J. S. Bach - Orchestral Suite No.2 in B Minor BWV1067"
1, 0, Instrument_name_t, "Conductor Track"
1, 0, SMPTE_offset, 96, 0, 3, 0, 0
1, 0, MIDI_port, 0
1, 0, Marker_t, "Originally Sequenced 13 Jun 1999"
1, 0, Tempo, 952380
1, 0, Key_signature, 2, "minor"
1, 0, Time_signature, 1, 2, 24, 8
1, 240, Time_signature, 3, 2, 24, 8
1, 44880, Tempo, 952380
1, 44940, Tempo, 967741
1, 45000, Tempo, 983606
1, 45060, Tempo, 1016949
1, 45120, Tempo, 1034482
1, 45180, Tempo, 1052631
1, 45240, Tempo, 1071428
1, 45300, Tempo, 1111111
1, 45360, Tempo, 1132075
1, 45420, Tempo, 1153846
1, 45480, Tempo, 1176470
1, 45540, Tempo, 1224489
1, 45600, Tempo, 1250000
1, 46080, Tempo, 1250000
1, 47040, Tempo, 1250000
1, 47040, End_track
2, 0, Start_track
2, 0, Title_t, "3rd Movement - Sarabande"
2, 0, MIDI_port, 0
2, 0, End_track
3, 0, Start_track
3, 0, Title_t, "Sequenced by D. L. Viens 31 Dec 1999"
3, 0, MIDI_port, 0
3, 0, End_track
4, 0, Start_track
4, 0, Title_t, "dlviens@empire.net"
4, 0, MIDI_port, 0
4, 0, End_track
5, 0, Start_track
5, 0, MIDI_port, 0
5, 0, End_track
6, 0, Start_track
6, 0, Title_t, "Flauto traverso"
6, 0, MIDI_port, 0
6, 0, Program_c, 0, 73
6, 0, Control_c, 0, 10, 64
6, 0, Control_c, 0, 11, 127
6, 0, Control_c, 0, 7, 80
6, 0, Note_on_c, 0, 78, 76
6, 189, Note_on_c, 0, 78, 0
6, 200, Note_on_c, 0, 76, 76
6, 239, Note_on_c, 0, 76, 0
6, 240, Note_on_c, 0, 74, 76
6, 589, Note_on_c, 0, 74, 0
6, 600, Note_on_c, 0, 76, 76
6, 709, Note_on_c, 0, 76, 0
6, 720, Note_on_c, 0, 78, 76
6, 949, Note_on_c, 0, 78, 0
6, 960, Note_on_c, 0, 71, 76
6, 1189, Note_on_c, 0, 71, 0
6, 1200, Note_on_c, 0, 76, 76
6, 1429, Note_on_c, 0, 76, 0
6, 1440, Note_on_c, 0, 74, 76
6, 1909, Note_on_c, 0, 74, 0
6, 1920, Note_on_c, 0, 73, 76
6, 2039, Note_on_c, 0, 73, 0
6, 2040, Note_on_c, 0, 71, 76
6, 2159, Note_on_c, 0, 71, 0
6, 2160, Note_on_c, 0, 70, 76
6, 2279, Note_on_c, 0, 70, 0
6, 2280, Note_on_c, 0, 71, 76
6, 2389, Note_on_c, 0, 71, 0
6, 2400, Note_on_c, 0, 70, 76
6, 2414, Note_on_c, 0, 70, 0
6, 2415, Note_on_c, 0, 71, 76
6, 2429, Note_on_c, 0, 71, 0
6, 2430, Note_on_c, 0, 70, 76
6, 2444, Note_on_c, 0, 70, 0
6, 2445, Note_on_c, 0, 71, 76
6, 2459, Note_on_c, 0, 71, 0
6, 2460, Note_on_c, 0, 70, 76
6, 2474, Note_on_c, 0, 70, 0
6, 2475, Note_on_c, 0, 71, 76
6, 2489, Note_on_c, 0, 71, 0
6, 2490, Note_on_c, 0, 67, 76
6, 2504, Note_on_c, 0, 67, 0
6, 2505, Note_on_c, 0, 70, 76
6, 2519, Note_on_c, 0, 70, 0
6, 2520, Note_on_c, 0, 71, 76
6, 2591, Note_on_c, 0, 71, 0
6, 2600, Note_on_c, 0, 71, 76
6, 2639, Note_on_c, 0, 71, 0
6, 2640, Note_on_c, 0, 73, 76
6, 2989, Note_on_c, 0, 73, 0
6, 3000, Note_on_c, 0, 66, 76
6, 3109, Note_on_c, 0, 66, 0
6, 3120, Note_on_c, 0, 78, 76
6, 3469, Note_on_c, 0, 78, 0
6, 3480, Note_on_c, 0, 79, 76
6, 3589, Note_on_c, 0, 79, 0
6, 3600, Note_on_c, 0, 76, 76
6, 3829, Note_on_c, 0, 76, 0
6, 3840, Note_on_c, 0, 75, 76
6, 3854, Note_on_c, 0, 75, 0
6, 3855, Note_on_c, 0, 76, 76
6, 3869, Note_on_c, 0, 76, 0
6, 3870, Note_on_c, 0, 75, 76
6, 3884, Note_on_c, 0, 75, 0
6, 3885, Note_on_c, 0, 76, 76
6, 3899, Note_on_c, 0, 76, 0
6, 3900, Note_on_c, 0, 75, 76
6, 3914, Note_on_c, 0, 75, 0
6, 3915, Note_on_c, 0, 76, 76
6, 3929, Note_on_c, 0, 76, 0
6, 3930, Note_on_c, 0, 73, 76
6, 3944, Note_on_c, 0, 73, 0
6, 3945, Note_on_c, 0, 75, 76
6, 3959, Note_on_c, 0, 75, 0
6, 3960, Note_on_c, 0, 76, 76
6, 4031, Note_on_c, 0, 76, 0
6, 4040, Note_on_c, 0, 76, 76
6, 4079, Note_on_c, 0, 76, 0
6, 4080, Note_on_c, 0, 78, 76
6, 4319, Note_on_c, 0, 78, 0
6, 4680, Note_on_c, 0, 83, 76
6, 4789, Note_on_c, 0, 83, 0
6, 4800, Note_on_c, 0, 81, 76
6, 4919, Note_on_c, 0, 81, 0
6, 4920, Note_on_c, 0, 79, 76
6, 5029, Note_on_c, 0, 79, 0
6, 5040, Note_on_c, 0, 81, 76
6, 5159, Note_on_c, 0, 81, 0
6, 5160, Note_on_c, 0, 78, 76
6, 5269, Note_on_c, 0, 78, 0
6, 5280, Note_on_c, 0, 79, 76
6, 5389, Note_on_c, 0, 79, 0
6, 5400, Note_on_c, 0, 76, 76
6, 5471, Note_on_c, 0, 76, 0
6, 5480, Note_on_c, 0, 81, 76
6, 5519, Note_on_c, 0, 81, 0
6, 5520, Note_on_c, 0, 80, 76
6, 5534, Note_on_c, 0, 80, 0
6, 5535, Note_on_c, 0, 81, 76
6, 5549, Note_on_c, 0, 81, 0
6, 5550, Note_on_c, 0, 80, 76
6, 5564, Note_on_c, 0, 80, 0
6, 5565, Note_on_c, 0, 81, 76
6, 5579, Note_on_c, 0, 81, 0
6, 5580, Note_on_c, 0, 80, 76
6, 5594, Note_on_c, 0, 80, 0
6, 5595, Note_on_c, 0, 81, 76
6, 5609, Note_on_c, 0, 81, 0
6, 5610, Note_on_c, 0, 80, 76
6, 5624, Note_on_c, 0, 80, 0
6, 5625, Note_on_c, 0, 81, 76
6, 5639, Note_on_c, 0, 81, 0
6, 5640, Note_on_c, 0, 80, 76
6, 5654, Note_on_c, 0, 80, 0
6, 5655, Note_on_c, 0, 81, 76
6, 5669, Note_on_c, 0, 81, 0
6, 5670, Note_on_c, 0, 80, 76
6, 5684, Note_on_c, 0, 80, 0
6, 5685, Note_on_c, 0, 81, 76
6, 5699, Note_on_c, 0, 81, 0
6, 5700, Note_on_c, 0, 80, 76
6, 5714, Note_on_c, 0, 80, 0
6, 5715, Note_on_c, 0, 81, 76
6, 5729, Note_on_c, 0, 81, 0
6, 5730, Note_on_c, 0, 80, 76
6, 5744, Note_on_c, 0, 80, 0
6, 5745, Note_on_c, 0, 81, 76
6, 5759, Note_on_c, 0, 81, 0
6, 5760, Note_on_c, 0, 80, 76
6, 5774, Note_on_c, 0, 80, 0
6, 5775, Note_on_c, 0, 81, 76
6, 5789, Note_on_c, 0, 81, 0
6, 5790, Note_on_c, 0, 80, 76
6, 5804, Note_on_c, 0, 80, 0
6, 5805, Note_on_c, 0, 81, 76
6, 5819, Note_on_c, 0, 81, 0
6, 5820, Note_on_c, 0, 80, 76
6, 5834, Note_on_c, 0, 80, 0
6, 5835, Note_on_c, 0, 81, 76
6, 5849, Note_on_c, 0, 81, 0
6, 5850, Note_on_c, 0, 80, 76
6, 5864, Note_on_c, 0, 80, 0
6, 5865, Note_on_c, 0, 81, 76
6, 5879, Note_on_c, 0, 81, 0
6, 5880, Note_on_c, 0, 78, 76
6, 5931, Note_on_c, 0, 78, 0
6, 5940, Note_on_c, 0, 80, 76
6, 5991, Note_on_c, 0, 80, 0
6, 6000, Note_on_c, 0, 81, 76
6, 6109, Note_on_c, 0, 81, 0
6, 6120, Note_on_c, 0, 85, 76
6, 6229, Note_on_c, 0, 85, 0
6, 6240, Note_on_c, 0, 83, 76
6, 6359, Note_on_c, 0, 83, 0
6, 6360, Note_on_c, 0, 82, 76
6, 6469, Note_on_c, 0, 82, 0
6, 6480, Note_on_c, 0, 80, 76
6, 6599, Note_on_c, 0, 80, 0
6, 6600, Note_on_c, 0, 82, 76
6, 6709, Note_on_c, 0, 82, 0
6, 6720, Note_on_c, 0, 83, 76
6, 6839, Note_on_c, 0, 83, 0
6, 6840, Note_on_c, 0, 81, 76
6, 6949, Note_on_c, 0, 81, 0
6, 6960, Note_on_c, 0, 79, 76
6, 7079, Note_on_c, 0, 79, 0
6, 7080, Note_on_c, 0, 78, 76
6, 7189, Note_on_c, 0, 78, 0
6, 7200, Note_on_c, 0, 76, 76
6, 7319, Note_on_c, 0, 76, 0
6, 7320, Note_on_c, 0, 74, 76
6, 7429, Note_on_c, 0, 74, 0
6, 7440, Note_on_c, 0, 73, 76
6, 7454, Note_on_c, 0, 73, 0
6, 7455, Note_on_c, 0, 74, 76
6, 7469, Note_on_c, 0, 74, 0
6, 7470, Note_on_c, 0, 73, 76
6, 7484, Note_on_c, 0, 73, 0
6, 7485, Note_on_c, 0, 74, 76
6, 7499, Note_on_c, 0, 74, 0
6, 7500, Note_on_c, 0, 73, 76
6, 7514, Note_on_c, 0, 73, 0
6, 7515, Note_on_c, 0, 74, 76
6, 7529, Note_on_c, 0, 74, 0
6, 7530, Note_on_c, 0, 71, 76
6, 7544, Note_on_c, 0, 71, 0
6, 7545, Note_on_c, 0, 73, 76
6, 7559, Note_on_c, 0, 73, 0
6, 7560, Note_on_c, 0, 74, 76
6, 7631, Note_on_c, 0, 74, 0
6, 7640, Note_on_c, 0, 74, 76
6, 7679, Note_on_c, 0, 74, 0
6, 7680, Note_on_c, 0, 76, 76
6, 8389, Note_on_c, 0, 76, 0
6, 8400, Note_on_c, 0, 75, 76
6, 8509, Note_on_c, 0, 75, 0
6, 8520, Note_on_c, 0, 76, 76
6, 8629, Note_on_c, 0, 76, 0
6, 8640, Note_on_c, 0, 78, 76
6, 8749, Note_on_c, 0, 78, 0
6, 8760, Note_on_c, 0, 75, 76
6, 8869, Note_on_c, 0, 75, 0
6, 8880, Note_on_c, 0, 83, 76
6, 9709, Note_on_c, 0, 83, 0
6, 9720, Note_on_c, 0, 74, 76
6, 9839, Note_on_c, 0, 74, 0
6, 9840, Note_on_c, 0, 73, 76
6, 9949, Note_on_c, 0, 73, 0
6, 9960, Note_on_c, 0, 83, 76
6, 10031, Note_on_c, 0, 83, 0
6, 10040, Note_on_c, 0, 83, 76
6, 10079, Note_on_c, 0, 83, 0
6, 10080, Note_on_c, 0, 81, 76
6, 10429, Note_on_c, 0, 81, 0
6, 10440, Note_on_c, 0, 80, 76
6, 10511, Note_on_c, 0, 80, 0
6, 10520, Note_on_c, 0, 78, 76
6, 10559, Note_on_c, 0, 78, 0
6, 10560, Note_on_c, 0, 77, 76
6, 10574, Note_on_c, 0, 77, 0
6, 10575, Note_on_c, 0, 78, 76
6, 10589, Note_on_c, 0, 78, 0
6, 10590, Note_on_c, 0, 77, 76
6, 10604, Note_on_c, 0, 77, 0
6, 10605, Note_on_c, 0, 78, 76
6, 10619, Note_on_c, 0, 78, 0
6, 10620, Note_on_c, 0, 77, 76
6, 10634, Note_on_c, 0, 77, 0
6, 10635, Note_on_c, 0, 78, 76
6, 10649, Note_on_c, 0, 78, 0
6, 10650, Note_on_c, 0, 77, 76
6, 10664, Note_on_c, 0, 77, 0
6, 10665, Note_on_c, 0, 78, 76
6, 10679, Note_on_c, 0, 78, 0
6, 10680, Note_on_c, 0, 77, 76
6, 10694, Note_on_c, 0, 77, 0
6, 10695, Note_on_c, 0, 78, 76
6, 10709, Note_on_c, 0, 78, 0
6, 10710, Note_on_c, 0, 77, 76
6, 10724, Note_on_c, 0, 77, 0
6, 10725, Note_on_c, 0, 78, 76
6, 10739, Note_on_c, 0, 78, 0
6, 10740, Note_on_c, 0, 77, 76
6, 10754, Note_on_c, 0, 77, 0
6, 10755, Note_on_c, 0, 78, 76
6, 10769, Note_on_c, 0, 78, 0
6, 10770, Note_on_c, 0, 77, 76
6, 10784, Note_on_c, 0, 77, 0
6, 10785, Note_on_c, 0, 78, 76
6, 10799, Note_on_c, 0, 78, 0
6, 10800, Note_on_c, 0, 77, 76
6, 10814, Note_on_c, 0, 77, 0
6, 10815, Note_on_c, 0, 78, 76
6, 10829, Note_on_c, 0, 78, 0
6, 10830, Note_on_c, 0, 77, 76
6, 10844, Note_on_c, 0, 77, 0
6, 10845, Note_on_c, 0, 78, 76
6, 10859, Note_on_c, 0, 78, 0
6, 10860, Note_on_c, 0, 77, 76
6, 10874, Note_on_c, 0, 77, 0
6, 10875, Note_on_c, 0, 78, 76
6, 10889, Note_on_c, 0, 78, 0
6, 10890, Note_on_c, 0, 74, 76
6, 10904, Note_on_c, 0, 74, 0
6, 10905, Note_on_c, 0, 77, 76
6, 10919, Note_on_c, 0, 77, 0
6, 10920, Note_on_c, 0, 78, 76
6, 11029, Note_on_c, 0, 78, 0
6, 11040, Note_on_c, 0, 78, 76
6, 11509, Note_on_c, 0, 78, 0
6, 11520, Note_on_c, 0, 78, 76
6, 11709, Note_on_c, 0, 78, 0
6, 11720, Note_on_c, 0, 76, 76
6, 11759, Note_on_c, 0, 76, 0
6, 11760, Note_on_c, 0, 74, 76
6, 12109, Note_on_c, 0, 74, 0
6, 12120, Note_on_c, 0, 76, 76
6, 12229, Note_on_c, 0, 76, 0
6, 12240, Note_on_c, 0, 78, 76
6, 12469, Note_on_c, 0, 78, 0
6, 12480, Note_on_c, 0, 71, 76
6, 12709, Note_on_c, 0, 71, 0
6, 12720, Note_on_c, 0, 76, 76
6, 12949, Note_on_c, 0, 76, 0
6, 12960, Note_on_c, 0, 74, 76
6, 13429, Note_on_c, 0, 74, 0
6, 13440, Note_on_c, 0, 73, 76
6, 13559, Note_on_c, 0, 73, 0
6, 13560, Note_on_c, 0, 71, 76
6, 13679, Note_on_c, 0, 71, 0
6, 13680, Note_on_c, 0, 70, 76
6, 13799, Note_on_c, 0, 70, 0
6, 13800, Note_on_c, 0, 71, 76
6, 13909, Note_on_c, 0, 71, 0
6, 13920, Note_on_c, 0, 70, 76
6, 13934, Note_on_c, 0, 70, 0
6, 13935, Note_on_c, 0, 71, 76
6, 13949, Note_on_c, 0, 71, 0
6, 13950, Note_on_c, 0, 70, 76
6, 13964, Note_on_c, 0, 70, 0
6, 13965, Note_on_c, 0, 71, 76
6, 13979, Note_on_c, 0, 71, 0
6, 13980, Note_on_c, 0, 70, 76
6, 13994, Note_on_c, 0, 70, 0
6, 13995, Note_on_c, 0, 71, 76
6, 14009, Note_on_c, 0, 71, 0
6, 14010, Note_on_c, 0, 67, 76
6, 14024, Note_on_c, 0, 67, 0
6, 14025, Note_on_c, 0, 70, 76
6, 14039, Note_on_c, 0, 70, 0
6, 14040, Note_on_c, 0, 71, 76
6, 14111, Note_on_c, 0, 71, 0
6, 14120, Note_on_c, 0, 71, 76
6, 14159, Note_on_c, 0, 71, 0
6, 14160, Note_on_c, 0, 73, 76
6, 14509, Note_on_c, 0, 73, 0
6, 14520, Note_on_c, 0, 66, 76
6, 14629, Note_on_c, 0, 66, 0
6, 14640, Note_on_c, 0, 78, 76
6, 14989, Note_on_c, 0, 78, 0
6, 15000, Note_on_c, 0, 79, 76
6, 15109, Note_on_c, 0, 79, 0
6, 15120, Note_on_c, 0, 76, 76
6, 15349, Note_on_c, 0, 76, 0
6, 15360, Note_on_c, 0, 75, 76
6, 15374, Note_on_c, 0, 75, 0
6, 15375, Note_on_c, 0, 76, 76
6, 15389, Note_on_c, 0, 76, 0
6, 15390, Note_on_c, 0, 75, 76
6, 15404, Note_on_c, 0, 75, 0
6, 15405, Note_on_c, 0, 76, 76
6, 15419, Note_on_c, 0, 76, 0
6, 15420, Note_on_c, 0, 75, 76
6, 15434, Note_on_c, 0, 75, 0
6, 15435, Note_on_c, 0, 76, 76
6, 15449, Note_on_c, 0, 76, 0
6, 15450, Note_on_c, 0, 73, 76
6, 15464, Note_on_c, 0, 73, 0
6, 15465, Note_on_c, 0, 75, 76
6, 15479, Note_on_c, 0, 75, 0
6, 15480, Note_on_c, 0, 76, 76
6, 15551, Note_on_c, 0, 76, 0
6, 15560, Note_on_c, 0, 76, 76
6, 15599, Note_on_c, 0, 76, 0
6, 15600, Note_on_c, 0, 78, 76
6, 15839, Note_on_c, 0, 78, 0
6, 16200, Note_on_c, 0, 83, 76
6, 16309, Note_on_c, 0, 83, 0
6, 16320, Note_on_c, 0, 81, 76
6, 16439, Note_on_c, 0, 81, 0
6, 16440, Note_on_c, 0, 79, 76
6, 16549, Note_on_c, 0, 79, 0
6, 16560, Note_on_c, 0, 81, 76
6, 16679, Note_on_c, 0, 81, 0
6, 16680, Note_on_c, 0, 78, 76
6, 16789, Note_on_c, 0, 78, 0
6, 16800, Note_on_c, 0, 79, 76
6, 16909, Note_on_c, 0, 79, 0
6, 16920, Note_on_c, 0, 76, 76
6, 16991, Note_on_c, 0, 76, 0
6, 17000, Note_on_c, 0, 81, 76
6, 17039, Note_on_c, 0, 81, 0
6, 17040, Note_on_c, 0, 80, 76
6, 17054, Note_on_c, 0, 80, 0
6, 17055, Note_on_c, 0, 81, 76
6, 17069, Note_on_c, 0, 81, 0
6, 17070, Note_on_c, 0, 80, 76
6, 17084, Note_on_c, 0, 80, 0
6, 17085, Note_on_c, 0, 81, 76
6, 17099, Note_on_c, 0, 81, 0
6, 17100, Note_on_c, 0, 80, 76
6, 17114, Note_on_c, 0, 80, 0
6, 17115, Note_on_c, 0, 81, 76
6, 17129, Note_on_c, 0, 81, 0
6, 17130, Note_on_c, 0, 80, 76
6, 17144, Note_on_c, 0, 80, 0
6, 17145, Note_on_c, 0, 81, 76
6, 17159, Note_on_c, 0, 81, 0
6, 17160, Note_on_c, 0, 80, 76
6, 17174, Note_on_c, 0, 80, 0
6, 17175, Note_on_c, 0, 81, 76
6, 17189, Note_on_c, 0, 81, 0
6, 17190, Note_on_c, 0, 80, 76
6, 17204, Note_on_c, 0, 80, 0
6, 17205, Note_on_c, 0, 81, 76
6, 17219, Note_on_c, 0, 81, 0
6, 17220, Note_on_c, 0, 80, 76
6, 17234, Note_on_c, 0, 80, 0
6, 17235, Note_on_c, 0, 81, 76
6, 17249, Note_on_c, 0, 81, 0
6, 17250, Note_on_c, 0, 80, 76
6, 17264, Note_on_c, 0, 80, 0
6, 17265, Note_on_c, 0, 81, 76
6, 17279, Note_on_c, 0, 81, 0
6, 17280, Note_on_c, 0, 80, 76
6, 17294, Note_on_c, 0, 80, 0
6, 17295, Note_on_c, 0, 81, 76
6, 17309, Note_on_c, 0, 81, 0
6, 17310, Note_on_c, 0, 80, 76
6, 17324, Note_on_c, 0, 80, 0
6, 17325, Note_on_c, 0, 81, 76
6, 17339, Note_on_c, 0, 81, 0
6, 17340, Note_on_c, 0, 80, 76
6, 17354, Note_on_c, 0, 80, 0
6, 17355, Note_on_c, 0, 81, 76
6, 17369, Note_on_c, 0, 81, 0
6, 17370, Note_on_c, 0, 80, 76
6, 17384, Note_on_c, 0, 80, 0
6, 17385, Note_on_c, 0, 81, 76
6, 17399, Note_on_c, 0, 81, 0
6, 17400, Note_on_c, 0, 78, 76
6, 17451, Note_on_c, 0, 78, 0
6, 17460, Note_on_c, 0, 80, 76
6, 17511, Note_on_c, 0, 80, 0
6, 17520, Note_on_c, 0, 81, 76
6, 17629, Note_on_c, 0, 81, 0
6, 17640, Note_on_c, 0, 85, 76
6, 17749, Note_on_c, 0, 85, 0
6, 17760, Note_on_c, 0, 83, 76
6, 17879, Note_on_c, 0, 83, 0
6, 17880, Note_on_c, 0, 82, 76
6, 17989, Note_on_c, 0, 82, 0
6, 18000, Note_on_c, 0, 80, 76
6, 18119, Note_on_c, 0, 80, 0
6, 18120, Note_on_c, 0, 82, 76
6, 18229, Note_on_c, 0, 82, 0
6, 18240, Note_on_c, 0, 83, 76
6, 18359, Note_on_c, 0, 83, 0
6, 18360, Note_on_c, 0, 81, 76
6, 18469, Note_on_c, 0, 81, 0
6, 18480, Note_on_c, 0, 79, 76
6, 18599, Note_on_c, 0, 79, 0
6, 18600, Note_on_c, 0, 78, 76
6, 18709, Note_on_c, 0, 78, 0
6, 18720, Note_on_c, 0, 76, 76
6, 18839, Note_on_c, 0, 76, 0
6, 18840, Note_on_c, 0, 74, 76
6, 18949, Note_on_c, 0, 74, 0
6, 18960, Note_on_c, 0, 73, 76
6, 18974, Note_on_c, 0, 73, 0
6, 18975, Note_on_c, 0, 74, 76
6, 18989, Note_on_c, 0, 74, 0
6, 18990, Note_on_c, 0, 73, 76
6, 19004, Note_on_c, 0, 73, 0
6, 19005, Note_on_c, 0, 74, 76
6, 19019, Note_on_c, 0, 74, 0
6, 19020, Note_on_c, 0, 73, 76
6, 19034, Note_on_c, 0, 73, 0
6, 19035, Note_on_c, 0, 74, 76
6, 19049, Note_on_c, 0, 74, 0
6, 19050, Note_on_c, 0, 71, 76
6, 19064, Note_on_c, 0, 71, 0
6, 19065, Note_on_c, 0, 73, 76
6, 19079, Note_on_c, 0, 73, 0
6, 19080, Note_on_c, 0, 74, 76
6, 19151, Note_on_c, 0, 74, 0
6, 19160, Note_on_c, 0, 74, 76
6, 19199, Note_on_c, 0, 74, 0
6, 19200, Note_on_c, 0, 76, 76
6, 19909, Note_on_c, 0, 76, 0
6, 19920, Note_on_c, 0, 75, 76
6, 20029, Note_on_c, 0, 75, 0
6, 20040, Note_on_c, 0, 76, 76
6, 20149, Note_on_c, 0, 76, 0
6, 20160, Note_on_c, 0, 78, 76
6, 20269, Note_on_c, 0, 78, 0
6, 20280, Note_on_c, 0, 75, 76
6, 20389, Note_on_c, 0, 75, 0
6, 20400, Note_on_c, 0, 83, 76
6, 21229, Note_on_c, 0, 83, 0
6, 21240, Note_on_c, 0, 74, 76
6, 21359, Note_on_c, 0, 74, 0
6, 21360, Note_on_c, 0, 73, 76
6, 21469, Note_on_c, 0, 73, 0
6, 21480, Note_on_c, 0, 83, 76
6, 21551, Note_on_c, 0, 83, 0
6, 21560, Note_on_c, 0, 83, 76
6, 21599, Note_on_c, 0, 83, 0
6, 21600, Note_on_c, 0, 81, 76
6, 21949, Note_on_c, 0, 81, 0
6, 21960, Note_on_c, 0, 80, 76
6, 22031, Note_on_c, 0, 80, 0
6, 22040, Note_on_c, 0, 78, 76
6, 22079, Note_on_c, 0, 78, 0
6, 22080, Note_on_c, 0, 77, 76
6, 22094, Note_on_c, 0, 77, 0
6, 22095, Note_on_c, 0, 78, 76
6, 22109, Note_on_c, 0, 78, 0
6, 22110, Note_on_c, 0, 77, 76
6, 22124, Note_on_c, 0, 77, 0
6, 22125, Note_on_c, 0, 78, 76
6, 22139, Note_on_c, 0, 78, 0
6, 22140, Note_on_c, 0, 77, 76
6, 22154, Note_on_c, 0, 77, 0
6, 22155, Note_on_c, 0, 78, 76
6, 22169, Note_on_c, 0, 78, 0
6, 22170, Note_on_c, 0, 77, 76
6, 22184, Note_on_c, 0, 77, 0
6, 22185, Note_on_c, 0, 78, 76
6, 22199, Note_on_c, 0, 78, 0
6, 22200, Note_on_c, 0, 77, 76
6, 22214, Note_on_c, 0, 77, 0
6, 22215, Note_on_c, 0, 78, 76
6, 22229, Note_on_c, 0, 78, 0
6, 22230, Note_on_c, 0, 77, 76
6, 22244, Note_on_c, 0, 77, 0
6, 22245, Note_on_c, 0, 78, 76
6, 22259, Note_on_c, 0, 78, 0
6, 22260, Note_on_c, 0, 77, 76
6, 22274, Note_on_c, 0, 77, 0
6, 22275, Note_on_c, 0, 78, 76
6, 22289, Note_on_c, 0, 78, 0
6, 22290, Note_on_c, 0, 77, 76
6, 22304, Note_on_c, 0, 77, 0
6, 22305, Note_on_c, 0, 78, 76
6, 22319, Note_on_c, 0, 78, 0
6, 22320, Note_on_c, 0, 77, 76
6, 22334, Note_on_c, 0, 77, 0
6, 22335, Note_on_c, 0, 78, 76
6, 22349, Note_on_c, 0, 78, 0
6, 22350, Note_on_c, 0, 77, 76
6, 22364, Note_on_c, 0, 77, 0
6, 22365, Note_on_c, 0, 78, 76
6, 22379, Note_on_c, 0, 78, 0
6, 22380, Note_on_c, 0, 77, 76
6, 22394, Note_on_c, 0, 77, 0
6, 22395, Note_on_c, 0, 78, 76
6, 22409, Note_on_c, 0, 78, 0
6, 22410, Note_on_c, 0, 74, 76
6, 22424, Note_on_c, 0, 74, 0
6, 22425, Note_on_c, 0, 77, 76
6, 22439, Note_on_c, 0, 77, 0
6, 22440, Note_on_c, 0, 78, 76
6, 22549, Note_on_c, 0, 78, 0
6, 22560, Note_on_c, 0, 78, 76
6, 23029, Note_on_c, 0, 78, 0
6, 23040, Note_on_c, 0, 73, 76
6, 23231, Note_on_c, 0, 73, 0
6, 23240, Note_on_c, 0, 71, 76
6, 23279, Note_on_c, 0, 71, 0
6, 23280, Note_on_c, 0, 70, 76
6, 23294, Note_on_c, 0, 70, 0
6, 23295, Note_on_c, 0, 71, 76
6, 23309, Note_on_c, 0, 71, 0
6, 23310, Note_on_c, 0, 70, 76
6, 23324, Note_on_c, 0, 70, 0
6, 23325, Note_on_c, 0, 71, 76
6, 23339, Note_on_c, 0, 71, 0
6, 23340, Note_on_c, 0, 70, 76
6, 23354, Note_on_c, 0, 70, 0
6, 23355, Note_on_c, 0, 71, 76
6, 23369, Note_on_c, 0, 71, 0
6, 23370, Note_on_c, 0, 70, 76
6, 23384, Note_on_c, 0, 70, 0
6, 23385, Note_on_c, 0, 71, 76
6, 23399, Note_on_c, 0, 71, 0
6, 23400, Note_on_c, 0, 70, 76
6, 23414, Note_on_c, 0, 70, 0
6, 23415, Note_on_c, 0, 71, 76
6, 23429, Note_on_c, 0, 71, 0
6, 23430, Note_on_c, 0, 70, 76
6, 23444, Note_on_c, 0, 70, 0
6, 23445, Note_on_c, 0, 71, 76
6, 23459, Note_on_c, 0, 71, 0
6, 23460, Note_on_c, 0, 70, 76
6, 23474, Note_on_c, 0, 70, 0
6, 23475, Note_on_c, 0, 71, 76
6, 23489, Note_on_c, 0, 71, 0
6, 23490, Note_on_c, 0, 70, 76
6, 23504, Note_on_c, 0, 70, 0
6, 23505, Note_on_c, 0, 71, 76
6, 23519, Note_on_c, 0, 71, 0
6, 23520, Note_on_c, 0, 70, 76
6, 23534, Note_on_c, 0, 70, 0
6, 23535, Note_on_c, 0, 71, 76
6, 23549, Note_on_c, 0, 71, 0
6, 23550, Note_on_c, 0, 70, 76
6, 23564, Note_on_c, 0, 70, 0
6, 23565, Note_on_c, 0, 71, 76
6, 23579, Note_on_c, 0, 71, 0
6, 23580, Note_on_c, 0, 70, 76
6, 23594, Note_on_c, 0, 70, 0
6, 23595, Note_on_c, 0, 71, 76
6, 23609, Note_on_c, 0, 71, 0
6, 23610, Note_on_c, 0, 67, 76
6, 23624, Note_on_c, 0, 67, 0
6, 23625, Note_on_c, 0, 70, 76
6, 23639, Note_on_c, 0, 70, 0
6, 23640, Note_on_c, 0, 71, 76
6, 23749, Note_on_c, 0, 71, 0
6, 23760, Note_on_c, 0, 73, 76
6, 23989, Note_on_c, 0, 73, 0
6, 24000, Note_on_c, 0, 66, 76
6, 24229, Note_on_c, 0, 66, 0
6, 24240, Note_on_c, 0, 78, 76
6, 24589, Note_on_c, 0, 78, 0
6, 24600, Note_on_c, 0, 76, 76
6, 24709, Note_on_c, 0, 76, 0
6, 24720, Note_on_c, 0, 74, 76
6, 24839, Note_on_c, 0, 74, 0
6, 24840, Note_on_c, 0, 73, 76
6, 24949, Note_on_c, 0, 73, 0
6, 24960, Note_on_c, 0, 76, 76
6, 25079, Note_on_c, 0, 76, 0
6, 25080, Note_on_c, 0, 74, 76
6, 25189, Note_on_c, 0, 74, 0
6, 25200, Note_on_c, 0, 73, 76
6, 25319, Note_on_c, 0, 73, 0
6, 25320, Note_on_c, 0, 71, 76
6, 25429, Note_on_c, 0, 71, 0
6, 25440, Note_on_c, 0, 76, 76
6, 25909, Note_on_c, 0, 76, 0
6, 25920, Note_on_c, 0, 74, 76
6, 26389, Note_on_c, 0, 74, 0
6, 26400, Note_on_c, 0, 73, 76
6, 26519, Note_on_c, 0, 73, 0
6, 26520, Note_on_c, 0, 74, 76
6, 26629, Note_on_c, 0, 74, 0
6, 26640, Note_on_c, 0, 76, 76
6, 26759, Note_on_c, 0, 76, 0
6, 26760, Note_on_c, 0, 73, 76
6, 26869, Note_on_c, 0, 73, 0
6, 26880, Note_on_c, 0, 69, 76
6, 27109, Note_on_c, 0, 69, 0
6, 27120, Note_on_c, 0, 81, 76
6, 27359, Note_on_c, 0, 81, 0
6, 27720, Note_on_c, 0, 79, 76
6, 27829, Note_on_c, 0, 79, 0
6, 27840, Note_on_c, 0, 78, 76
6, 27949, Note_on_c, 0, 78, 0
6, 27960, Note_on_c, 0, 79, 76
6, 28019, Note_on_c, 0, 79, 0
6, 28020, Note_on_c, 0, 81, 76
6, 28071, Note_on_c, 0, 81, 0
6, 28080, Note_on_c, 0, 74, 76
6, 28189, Note_on_c, 0, 74, 0
6, 28200, Note_on_c, 0, 72, 76
6, 28309, Note_on_c, 0, 72, 0
6, 28320, Note_on_c, 0, 71, 76
6, 28334, Note_on_c, 0, 71, 0
6, 28335, Note_on_c, 0, 73, 76
6, 28349, Note_on_c, 0, 73, 0
6, 28350, Note_on_c, 0, 71, 76
6, 28364, Note_on_c, 0, 71, 0
6, 28365, Note_on_c, 0, 73, 76
6, 28379, Note_on_c, 0, 73, 0
6, 28380, Note_on_c, 0, 71, 76
6, 28394, Note_on_c, 0, 71, 0
6, 28395, Note_on_c, 0, 73, 76
6, 28409, Note_on_c, 0, 73, 0
6, 28410, Note_on_c, 0, 69, 76
6, 28424, Note_on_c, 0, 69, 0
6, 28425, Note_on_c, 0, 71, 76
6, 28439, Note_on_c, 0, 71, 0
6, 28440, Note_on_c, 0, 69, 76
6, 28549, Note_on_c, 0, 69, 0
6, 28560, Note_on_c, 0, 67, 76
6, 28789, Note_on_c, 0, 67, 0
6, 28800, Note_on_c, 0, 83, 76
6, 29269, Note_on_c, 0, 83, 0
6, 29280, Note_on_c, 0, 82, 76
6, 29399, Note_on_c, 0, 82, 0
6, 29400, Note_on_c, 0, 83, 76
6, 29509, Note_on_c, 0, 83, 0
6, 29520, Note_on_c, 0, 85, 76
6, 29639, Note_on_c, 0, 85, 0
6, 29640, Note_on_c, 0, 82, 76
6, 29749, Note_on_c, 0, 82, 0
6, 29760, Note_on_c, 0, 78, 76
6, 29989, Note_on_c, 0, 78, 0
6, 30000, Note_on_c, 0, 83, 76
6, 30229, Note_on_c, 0, 83, 0
6, 30240, Note_on_c, 0, 81, 76
6, 30589, Note_on_c, 0, 81, 0
6, 30600, Note_on_c, 0, 79, 76
6, 30651, Note_on_c, 0, 79, 0
6, 30660, Note_on_c, 0, 78, 76
6, 30711, Note_on_c, 0, 78, 0
6, 30720, Note_on_c, 0, 79, 76
6, 30839, Note_on_c, 0, 79, 0
6, 30840, Note_on_c, 0, 83, 76
6, 30949, Note_on_c, 0, 83, 0
6, 30960, Note_on_c, 0, 78, 76
6, 31079, Note_on_c, 0, 78, 0
6, 31080, Note_on_c, 0, 83, 76
6, 31189, Note_on_c, 0, 83, 0
6, 31200, Note_on_c, 0, 76, 76
6, 31789, Note_on_c, 0, 76, 0
6, 31800, Note_on_c, 0, 67, 76
6, 31909, Note_on_c, 0, 67, 0
6, 31920, Note_on_c, 0, 66, 76
6, 32029, Note_on_c, 0, 66, 0
6, 32040, Note_on_c, 0, 76, 76
6, 32149, Note_on_c, 0, 76, 0
6, 32160, Note_on_c, 0, 74, 76
6, 32279, Note_on_c, 0, 74, 0
6, 32280, Note_on_c, 0, 73, 76
6, 32389, Note_on_c, 0, 73, 0
6, 32400, Note_on_c, 0, 78, 76
6, 32519, Note_on_c, 0, 78, 0
6, 32520, Note_on_c, 0, 76, 76
6, 32629, Note_on_c, 0, 76, 0
6, 32640, Note_on_c, 0, 74, 76
6, 32759, Note_on_c, 0, 74, 0
6, 32760, Note_on_c, 0, 73, 76
6, 32869, Note_on_c, 0, 73, 0
6, 32880, Note_on_c, 0, 71, 76
6, 32999, Note_on_c, 0, 71, 0
6, 33000, Note_on_c, 0, 70, 76
6, 33109, Note_on_c, 0, 70, 0
6, 33120, Note_on_c, 0, 71, 76
6, 33359, Note_on_c, 0, 71, 0
6, 33480, Note_on_c, 0, 73, 76
6, 33589, Note_on_c, 0, 73, 0
6, 33600, Note_on_c, 0, 73, 76
6, 33614, Note_on_c, 0, 73, 0
6, 33615, Note_on_c, 0, 74, 76
6, 33629, Note_on_c, 0, 74, 0
6, 33630, Note_on_c, 0, 73, 76
6, 33644, Note_on_c, 0, 73, 0
6, 33645, Note_on_c, 0, 74, 76
6, 33659, Note_on_c, 0, 74, 0
6, 33660, Note_on_c, 0, 73, 76
6, 33674, Note_on_c, 0, 73, 0
6, 33675, Note_on_c, 0, 74, 76
6, 33689, Note_on_c, 0, 74, 0
6, 33690, Note_on_c, 0, 73, 76
6, 33704, Note_on_c, 0, 73, 0
6, 33705, Note_on_c, 0, 74, 76
6, 33719, Note_on_c, 0, 74, 0
6, 33720, Note_on_c, 0, 73, 76
6, 33734, Note_on_c, 0, 73, 0
6, 33735, Note_on_c, 0, 74, 76
6, 33749, Note_on_c, 0, 74, 0
6, 33750, Note_on_c, 0, 73, 76
6, 33764, Note_on_c, 0, 73, 0
6, 33765, Note_on_c, 0, 74, 76
6, 33779, Note_on_c, 0, 74, 0
6, 33780, Note_on_c, 0, 73, 76
6, 33794, Note_on_c, 0, 73, 0
6, 33795, Note_on_c, 0, 74, 76
6, 33809, Note_on_c, 0, 74, 0
6, 33810, Note_on_c, 0, 73, 76
6, 33824, Note_on_c, 0, 73, 0
6, 33825, Note_on_c, 0, 74, 76
6, 33839, Note_on_c, 0, 74, 0
6, 33840, Note_on_c, 0, 73, 76
6, 33854, Note_on_c, 0, 73, 0
6, 33855, Note_on_c, 0, 74, 76
6, 33869, Note_on_c, 0, 74, 0
6, 33870, Note_on_c, 0, 73, 76
6, 33884, Note_on_c, 0, 73, 0
6, 33885, Note_on_c, 0, 74, 76
6, 33899, Note_on_c, 0, 74, 0
6, 33900, Note_on_c, 0, 73, 76
6, 33914, Note_on_c, 0, 73, 0
6, 33915, Note_on_c, 0, 74, 76
6, 33929, Note_on_c, 0, 74, 0
6, 33930, Note_on_c, 0, 71, 76
6, 33944, Note_on_c, 0, 71, 0
6, 33945, Note_on_c, 0, 73, 76
6, 33959, Note_on_c, 0, 73, 0
6, 33960, Note_on_c, 0, 71, 76
6, 34069, Note_on_c, 0, 71, 0
6, 34080, Note_on_c, 0, 71, 76
6, 34549, Note_on_c, 0, 71, 0
6, 34560, Note_on_c, 0, 73, 76
6, 34751, Note_on_c, 0, 73, 0
6, 34760, Note_on_c, 0, 71, 76
6, 34799, Note_on_c, 0, 71, 0
6, 34800, Note_on_c, 0, 70, 76
6, 34814, Note_on_c, 0, 70, 0
6, 34815, Note_on_c, 0, 71, 76
6, 34829, Note_on_c, 0, 71, 0
6, 34830, Note_on_c, 0, 70, 76
6, 34844, Note_on_c, 0, 70, 0
6, 34845, Note_on_c, 0, 71, 76
6, 34859, Note_on_c, 0, 71, 0
6, 34860, Note_on_c, 0, 70, 76
6, 34874, Note_on_c, 0, 70, 0
6, 34875, Note_on_c, 0, 71, 76
6, 34889, Note_on_c, 0, 71, 0
6, 34890, Note_on_c, 0, 70, 76
6, 34904, Note_on_c, 0, 70, 0
6, 34905, Note_on_c, 0, 71, 76
6, 34919, Note_on_c, 0, 71, 0
6, 34920, Note_on_c, 0, 70, 76
6, 34934, Note_on_c, 0, 70, 0
6, 34935, Note_on_c, 0, 71, 76
6, 34949, Note_on_c, 0, 71, 0
6, 34950, Note_on_c, 0, 70, 76
6, 34964, Note_on_c, 0, 70, 0
6, 34965, Note_on_c, 0, 71, 76
6, 34979, Note_on_c, 0, 71, 0
6, 34980, Note_on_c, 0, 70, 76
6, 34994, Note_on_c, 0, 70, 0
6, 34995, Note_on_c, 0, 71, 76
6, 35009, Note_on_c, 0, 71, 0
6, 35010, Note_on_c, 0, 70, 76
6, 35024, Note_on_c, 0, 70, 0
6, 35025, Note_on_c, 0, 71, 76
6, 35039, Note_on_c, 0, 71, 0
6, 35040, Note_on_c, 0, 70, 76
6, 35054, Note_on_c, 0, 70, 0
6, 35055, Note_on_c, 0, 71, 76
6, 35069, Note_on_c, 0, 71, 0
6, 35070, Note_on_c, 0, 70, 76
6, 35084, Note_on_c, 0, 70, 0
6, 35085, Note_on_c, 0, 71, 76
6, 35099, Note_on_c, 0, 71, 0
6, 35100, Note_on_c, 0, 70, 76
6, 35114, Note_on_c, 0, 70, 0
6, 35115, Note_on_c, 0, 71, 76
6, 35129, Note_on_c, 0, 71, 0
6, 35130, Note_on_c, 0, 67, 76
6, 35144, Note_on_c, 0, 67, 0
6, 35145, Note_on_c, 0, 70, 76
6, 35159, Note_on_c, 0, 70, 0
6, 35160, Note_on_c, 0, 71, 76
6, 35269, Note_on_c, 0, 71, 0
6, 35280, Note_on_c, 0, 73, 76
6, 35509, Note_on_c, 0, 73, 0
6, 35520, Note_on_c, 0, 66, 76
6, 35749, Note_on_c, 0, 66, 0
6, 35760, Note_on_c, 0, 78, 76
6, 36109, Note_on_c, 0, 78, 0
6, 36120, Note_on_c, 0, 76, 76
6, 36229, Note_on_c, 0, 76, 0
6, 36240, Note_on_c, 0, 74, 76
6, 36359, Note_on_c, 0, 74, 0
6, 36360, Note_on_c, 0, 73, 76
6, 36469, Note_on_c, 0, 73, 0
6, 36480, Note_on_c, 0, 76, 76
6, 36599, Note_on_c, 0, 76, 0
6, 36600, Note_on_c, 0, 74, 76
6, 36709, Note_on_c, 0, 74, 0
6, 36720, Note_on_c, 0, 73, 76
6, 36839, Note_on_c, 0, 73, 0
6, 36840, Note_on_c, 0, 71, 76
6, 36949, Note_on_c, 0, 71, 0
6, 36960, Note_on_c, 0, 76, 76
6, 37429, Note_on_c, 0, 76, 0
6, 37440, Note_on_c, 0, 74, 76
6, 37909, Note_on_c, 0, 74, 0
6, 37920, Note_on_c, 0, 73, 76
6, 38039, Note_on_c, 0, 73, 0
6, 38040, Note_on_c, 0, 74, 76
6, 38149, Note_on_c, 0, 74, 0
6, 38160, Note_on_c, 0, 76, 76
6, 38279, Note_on_c, 0, 76, 0
6, 38280, Note_on_c, 0, 73, 76
6, 38389, Note_on_c, 0, 73, 0
6, 38400, Note_on_c, 0, 69, 76
6, 38629, Note_on_c, 0, 69, 0
6, 38640, Note_on_c, 0, 81, 76
6, 38879, Note_on_c, 0, 81, 0
6, 39240, Note_on_c, 0, 79, 76
6, 39349, Note_on_c, 0, 79, 0
6, 39360, Note_on_c, 0, 78, 76
6, 39469, Note_on_c, 0, 78, 0
6, 39480, Note_on_c, 0, 79, 76
6, 39539, Note_on_c, 0, 79, 0
6, 39540, Note_on_c, 0, 81, 76
6, 39591, Note_on_c, 0, 81, 0
6, 39600, Note_on_c, 0, 74, 76
6, 39709, Note_on_c, 0, 74, 0
6, 39720, Note_on_c, 0, 72, 76
6, 39829, Note_on_c, 0, 72, 0
6, 39840, Note_on_c, 0, 71, 76
6, 39854, Note_on_c, 0, 71, 0
6, 39855, Note_on_c, 0, 73, 76
6, 39869, Note_on_c, 0, 73, 0
6, 39870, Note_on_c, 0, 71, 76
6, 39884, Note_on_c, 0, 71, 0
6, 39885, Note_on_c, 0, 73, 76
6, 39899, Note_on_c, 0, 73, 0
6, 39900, Note_on_c, 0, 71, 76
6, 39914, Note_on_c, 0, 71, 0
6, 39915, Note_on_c, 0, 73, 76
6, 39929, Note_on_c, 0, 73, 0
6, 39930, Note_on_c, 0, 69, 76
6, 39944, Note_on_c, 0, 69, 0
6, 39945, Note_on_c, 0, 71, 76
6, 39959, Note_on_c, 0, 71, 0
6, 39960, Note_on_c, 0, 69, 76
6, 40069, Note_on_c, 0, 69, 0
6, 40080, Note_on_c, 0, 67, 76
6, 40309, Note_on_c, 0, 67, 0
6, 40320, Note_on_c, 0, 83, 76
6, 40789, Note_on_c, 0, 83, 0
6, 40800, Note_on_c, 0, 82, 76
6, 40919, Note_on_c, 0, 82, 0
6, 40920, Note_on_c, 0, 83, 76
6, 41029, Note_on_c, 0, 83, 0
6, 41040, Note_on_c, 0, 85, 76
6, 41159, Note_on_c, 0, 85, 0
6, 41160, Note_on_c, 0, 82, 76
6, 41269, Note_on_c, 0, 82, 0
6, 41280, Note_on_c, 0, 78, 76
6, 41509, Note_on_c, 0, 78, 0
6, 41520, Note_on_c, 0, 83, 76
6, 41749, Note_on_c, 0, 83, 0
6, 41760, Note_on_c, 0, 81, 76
6, 42109, Note_on_c, 0, 81, 0
6, 42120, Note_on_c, 0, 79, 76
6, 42171, Note_on_c, 0, 79, 0
6, 42180, Note_on_c, 0, 78, 76
6, 42231, Note_on_c, 0, 78, 0
6, 42240, Note_on_c, 0, 79, 76
6, 42359, Note_on_c, 0, 79, 0
6, 42360, Note_on_c, 0, 83, 76
6, 42469, Note_on_c, 0, 83, 0
6, 42480, Note_on_c, 0, 78, 76
6, 42599, Note_on_c, 0, 78, 0
6, 42600, Note_on_c, 0, 83, 76
6, 42709, Note_on_c, 0, 83, 0
6, 42720, Note_on_c, 0, 76, 76
6, 43309, Note_on_c, 0, 76, 0
6, 43320, Note_on_c, 0, 67, 76
6, 43429, Note_on_c, 0, 67, 0
6, 43440, Note_on_c, 0, 66, 76
6, 43549, Note_on_c, 0, 66, 0
6, 43560, Note_on_c, 0, 76, 76
6, 43669, Note_on_c, 0, 76, 0
6, 43680, Note_on_c, 0, 74, 76
6, 43799, Note_on_c, 0, 74, 0
6, 43800, Note_on_c, 0, 73, 76
6, 43909, Note_on_c, 0, 73, 0
6, 43920, Note_on_c, 0, 78, 76
6, 44039, Note_on_c, 0, 78, 0
6, 44040, Note_on_c, 0, 76, 76
6, 44149, Note_on_c, 0, 76, 0
6, 44160, Note_on_c, 0, 74, 76
6, 44279, Note_on_c, 0, 74, 0
6, 44280, Note_on_c, 0, 73, 76
6, 44389, Note_on_c, 0, 73, 0
6, 44400, Note_on_c, 0, 71, 76
6, 44519, Note_on_c, 0, 71, 0
6, 44520, Note_on_c, 0, 70, 76
6, 44629, Note_on_c, 0, 70, 0
6, 44640, Note_on_c, 0, 71, 76
6, 44879, Note_on_c, 0, 71, 0
6, 45000, Note_on_c, 0, 73, 76
6, 45109, Note_on_c, 0, 73, 0
6, 45120, Note_on_c, 0, 73, 76
6, 45134, Note_on_c, 0, 73, 0
6, 45135, Note_on_c, 0, 74, 76
6, 45149, Note_on_c, 0, 74, 0
6, 45150, Note_on_c, 0, 73, 76
6, 45164, Note_on_c, 0, 73, 0
6, 45165, Note_on_c, 0, 74, 76
6, 45179, Note_on_c, 0, 74, 0
6, 45180, Note_on_c, 0, 73, 76
6, 45194, Note_on_c, 0, 73, 0
6, 45195, Note_on_c, 0, 74, 76
6, 45209, Note_on_c, 0, 74, 0
6, 45210, Note_on_c, 0, 73, 76
6, 45224, Note_on_c, 0, 73, 0
6, 45225, Note_on_c, 0, 74, 76
6, 45239, Note_on_c, 0, 74, 0
6, 45240, Note_on_c, 0, 73, 76
6, 45254, Note_on_c, 0, 73, 0
6, 45255, Note_on_c, 0, 74, 76
6, 45269, Note_on_c, 0, 74, 0
6, 45270, Note_on_c, 0, 73, 76
6, 45284, Note_on_c, 0, 73, 0
6, 45285, Note_on_c, 0, 74, 76
6, 45299, Note_on_c, 0, 74, 0
6, 45300, Note_on_c, 0, 73, 76
6, 45314, Note_on_c, 0, 73, 0
6, 45315, Note_on_c, 0, 74, 76
6, 45329, Note_on_c, 0, 74, 0
6, 45330, Note_on_c, 0, 73, 76
6, 45344, Note_on_c, 0, 73, 0
6, 45345, Note_on_c, 0, 74, 76
6, 45359, Note_on_c, 0, 74, 0
6, 45360, Note_on_c, 0, 73, 76
6, 45374, Note_on_c, 0, 73, 0
6, 45375, Note_on_c, 0, 74, 76
6, 45389, Note_on_c, 0, 74, 0
6, 45390, Note_on_c, 0, 73, 76
6, 45404, Note_on_c, 0, 73, 0
6, 45405, Note_on_c, 0, 74, 76
6, 45419, Note_on_c, 0, 74, 0
6, 45420, Note_on_c, 0, 73, 76
6, 45434, Note_on_c, 0, 73, 0
6, 45435, Note_on_c, 0, 74, 76
6, 45449, Note_on_c, 0, 74, 0
6, 45450, Note_on_c, 0, 71, 76
6, 45464, Note_on_c, 0, 71, 0
6, 45465, Note_on_c, 0, 73, 76
6, 45479, Note_on_c, 0, 73, 0
6, 45480, Note_on_c, 0, 71, 76
6, 45589, Note_on_c, 0, 71, 0
6, 45600, Note_on_c, 0, 71, 76
6, 46069, Note_on_c, 0, 71, 0
6, 46069, End_track
7, 0, Start_track
7, 0, Title_t, "Violin I"
7, 0, MIDI_port, 0
7, 0, Program_c, 1, 48
7, 0, Control_c, 1, 10, 48
7, 0, Control_c, 1, 11, 127
7, 0, Control_c, 1, 7, 96
7, 0, Note_on_c, 1, 78, 76
7, 189, Note_on_c, 1, 78, 0
7, 200, Note_on_c, 1, 76, 76
7, 239, Note_on_c, 1, 76, 0
7, 240, Note_on_c, 1, 74, 76
7, 589, Note_on_c, 1, 74, 0
7, 600, Note_on_c, 1, 76, 76
7, 709, Note_on_c, 1, 76, 0
7, 720, Note_on_c, 1, 78, 76
7, 949, Note_on_c, 1, 78, 0
7, 960, Note_on_c, 1, 71, 76
7, 1189, Note_on_c, 1, 71, 0
7, 1200, Note_on_c, 1, 76, 76
7, 1429, Note_on_c, 1, 76, 0
7, 1440, Note_on_c, 1, 74, 76
7, 1909, Note_on_c, 1, 74, 0
7, 1920, Note_on_c, 1, 73, 76
7, 2039, Note_on_c, 1, 73, 0
7, 2040, Note_on_c, 1, 71, 76
7, 2149, Note_on_c, 1, 71, 0
7, 2160, Note_on_c, 1, 70, 76
7, 2279, Note_on_c, 1, 70, 0
7, 2280, Note_on_c, 1, 71, 76
7, 2389, Note_on_c, 1, 71, 0
7, 2400, Note_on_c, 1, 70, 76
7, 2519, Note_on_c, 1, 70, 0
7, 2520, Note_on_c, 1, 71, 76
7, 2629, Note_on_c, 1, 71, 0
7, 2640, Note_on_c, 1, 73, 76
7, 2989, Note_on_c, 1, 73, 0
7, 3000, Note_on_c, 1, 66, 76
7, 3109, Note_on_c, 1, 66, 0
7, 3120, Note_on_c, 1, 78, 76
7, 3469, Note_on_c, 1, 78, 0
7, 3480, Note_on_c, 1, 79, 76
7, 3589, Note_on_c, 1, 79, 0
7, 3600, Note_on_c, 1, 76, 76
7, 3829, Note_on_c, 1, 76, 0
7, 3840, Note_on_c, 1, 75, 76
7, 3959, Note_on_c, 1, 75, 0
7, 3960, Note_on_c, 1, 76, 76
7, 4069, Note_on_c, 1, 76, 0
7, 4080, Note_on_c, 1, 78, 76
7, 4319, Note_on_c, 1, 78, 0
7, 4680, Note_on_c, 1, 83, 76
7, 4789, Note_on_c, 1, 83, 0
7, 4800, Note_on_c, 1, 81, 76
7, 4919, Note_on_c, 1, 81, 0
7, 4920, Note_on_c, 1, 79, 76
7, 5029, Note_on_c, 1, 79, 0
7, 5040, Note_on_c, 1, 81, 76
7, 5159, Note_on_c, 1, 81, 0
7, 5160, Note_on_c, 1, 78, 76
7, 5269, Note_on_c, 1, 78, 0
7, 5280, Note_on_c, 1, 79, 76
7, 5399, Note_on_c, 1, 79, 0
7, 5400, Note_on_c, 1, 76, 76
7, 5509, Note_on_c, 1, 76, 0
7, 5520, Note_on_c, 1, 80, 76
7, 5534, Note_on_c, 1, 80, 0
7, 5535, Note_on_c, 1, 81, 76
7, 5549, Note_on_c, 1, 81, 0
7, 5550, Note_on_c, 1, 80, 76
7, 5564, Note_on_c, 1, 80, 0
7, 5565, Note_on_c, 1, 81, 76
7, 5579, Note_on_c, 1, 81, 0
7, 5580, Note_on_c, 1, 80, 76
7, 5594, Note_on_c, 1, 80, 0
7, 5595, Note_on_c, 1, 81, 76
7, 5609, Note_on_c, 1, 81, 0
7, 5610, Note_on_c, 1, 80, 76
7, 5624, Note_on_c, 1, 80, 0
7, 5625, Note_on_c, 1, 81, 76
7, 5639, Note_on_c, 1, 81, 0
7, 5640, Note_on_c, 1, 80, 76
7, 5654, Note_on_c, 1, 80, 0
7, 5655, Note_on_c, 1, 81, 76
7, 5669, Note_on_c, 1, 81, 0
7, 5670, Note_on_c, 1, 80, 76
7, 5684, Note_on_c, 1, 80, 0
7, 5685, Note_on_c, 1, 81, 76
7, 5699, Note_on_c, 1, 81, 0
7, 5700, Note_on_c, 1, 80, 76
7, 5714, Note_on_c, 1, 80, 0
7, 5715, Note_on_c, 1, 81, 76
7, 5729, Note_on_c, 1, 81, 0
7, 5730, Note_on_c, 1, 80, 76
7, 5744, Note_on_c, 1, 80, 0
7, 5745, Note_on_c, 1, 81, 76
7, 5759, Note_on_c, 1, 81, 0
7, 5760, Note_on_c, 1, 80, 76
7, 5774, Note_on_c, 1, 80, 0
7, 5775, Note_on_c, 1, 81, 76
7, 5789, Note_on_c, 1, 81, 0
7, 5790, Note_on_c, 1, 80, 76
7, 5804, Note_on_c, 1, 80, 0
7, 5805, Note_on_c, 1, 81, 76
7, 5819, Note_on_c, 1, 81, 0
7, 5820, Note_on_c, 1, 80, 76
7, 5834, Note_on_c, 1, 80, 0
7, 5835, Note_on_c, 1, 81, 76
7, 5849, Note_on_c, 1, 81, 0
7, 5850, Note_on_c, 1, 80, 76
7, 5864, Note_on_c, 1, 80, 0
7, 5865, Note_on_c, 1, 81, 76
7, 5879, Note_on_c, 1, 81, 0
7, 5880, Note_on_c, 1, 78, 76
7, 5931, Note_on_c, 1, 78, 0
7, 5940, Note_on_c, 1, 80, 76
7, 5991, Note_on_c, 1, 80, 0
7, 6000, Note_on_c, 1, 81, 76
7, 6109, Note_on_c, 1, 81, 0
7, 6120, Note_on_c, 1, 85, 76
7, 6229, Note_on_c, 1, 85, 0
7, 6240, Note_on_c, 1, 83, 76
7, 6359, Note_on_c, 1, 83, 0
7, 6360, Note_on_c, 1, 82, 76
7, 6469, Note_on_c, 1, 82, 0
7, 6480, Note_on_c, 1, 80, 76
7, 6599, Note_on_c, 1, 80, 0
7, 6600, Note_on_c, 1, 82, 76
7, 6709, Note_on_c, 1, 82, 0
7, 6720, Note_on_c, 1, 83, 76
7, 6839, Note_on_c, 1, 83, 0
7, 6840, Note_on_c, 1, 81, 76
7, 6949, Note_on_c, 1, 81, 0
7, 6960, Note_on_c, 1, 79, 76
7, 7079, Note_on_c, 1, 79, 0
7, 7080, Note_on_c, 1, 78, 76
7, 7189, Note_on_c, 1, 78, 0
7, 7200, Note_on_c, 1, 76, 76
7, 7319, Note_on_c, 1, 76, 0
7, 7320, Note_on_c, 1, 74, 76
7, 7429, Note_on_c, 1, 74, 0
7, 7440, Note_on_c, 1, 73, 76
7, 7559, Note_on_c, 1, 73, 0
7, 7560, Note_on_c, 1, 74, 76
7, 7669, Note_on_c, 1, 74, 0
7, 7680, Note_on_c, 1, 76, 76
7, 8389, Note_on_c, 1, 76, 0
7, 8400, Note_on_c, 1, 75, 76
7, 8519, Note_on_c, 1, 75, 0
7, 8520, Note_on_c, 1, 76, 76
7, 8629, Note_on_c, 1, 76, 0
7, 8640, Note_on_c, 1, 78, 76
7, 8759, Note_on_c, 1, 78, 0
7, 8760, Note_on_c, 1, 75, 76
7, 8869, Note_on_c, 1, 75, 0
7, 8880, Note_on_c, 1, 83, 76
7, 9709, Note_on_c, 1, 83, 0
7, 9720, Note_on_c, 1, 74, 76
7, 9839, Note_on_c, 1, 74, 0
7, 9840, Note_on_c, 1, 73, 76
7, 9949, Note_on_c, 1, 73, 0
7, 9960, Note_on_c, 1, 83, 76
7, 10069, Note_on_c, 1, 83, 0
7, 10080, Note_on_c, 1, 81, 76
7, 10429, Note_on_c, 1, 81, 0
7, 10440, Note_on_c, 1, 80, 76
7, 10549, Note_on_c, 1, 80, 0
7, 10560, Note_on_c, 1, 77, 76
7, 10574, Note_on_c, 1, 77, 0
7, 10575, Note_on_c, 1, 78, 76
7, 10589, Note_on_c, 1, 78, 0
7, 10590, Note_on_c, 1, 77, 76
7, 10604, Note_on_c, 1, 77, 0
7, 10605, Note_on_c, 1, 78, 76
7, 10619, Note_on_c, 1, 78, 0
7, 10620, Note_on_c, 1, 77, 76
7, 10634, Note_on_c, 1, 77, 0
7, 10635, Note_on_c, 1, 78, 76
7, 10649, Note_on_c, 1, 78, 0
7, 10650, Note_on_c, 1, 77, 76
7, 10664, Note_on_c, 1, 77, 0
7, 10665, Note_on_c, 1, 78, 76
7, 10679, Note_on_c, 1, 78, 0
7, 10680, Note_on_c, 1, 77, 76
7, 10694, Note_on_c, 1, 77, 0
7, 10695, Note_on_c, 1, 78, 76
7, 10709, Note_on_c, 1, 78, 0
7, 10710, Note_on_c, 1, 77, 76
7, 10724, Note_on_c, 1, 77, 0
7, 10725, Note_on_c, 1, 78, 76
7, 10739, Note_on_c, 1, 78, 0
7, 10740, Note_on_c, 1, 77, 76
7, 10754, Note_on_c, 1, 77, 0
7, 10755, Note_on_c, 1, 78, 76
7, 10769, Note_on_c, 1, 78, 0
7, 10770, Note_on_c, 1, 77, 76
7, 10784, Note_on_c, 1, 77, 0
7, 10785, Note_on_c, 1, 78, 76
7, 10799, Note_on_c, 1, 78, 0
7, 10800, Note_on_c, 1, 77, 76
7, 10814, Note_on_c, 1, 77, 0
7, 10815, Note_on_c, 1, 78, 76
7, 10829, Note_on_c, 1, 78, 0
7, 10830, Note_on_c, 1, 77, 76
7, 10844, Note_on_c, 1, 77, 0
7, 10845, Note_on_c, 1, 78, 76
7, 10859, Note_on_c, 1, 78, 0
7, 10860, Note_on_c, 1, 77, 76
7, 10874, Note_on_c, 1, 77, 0
7, 10875, Note_on_c, 1, 78, 76
7, 10889, Note_on_c, 1, 78, 0
7, 10890, Note_on_c, 1, 74, 76
7, 10904, Note_on_c, 1, 74, 0
7, 10905, Note_on_c, 1, 77, 76
7, 10919, Note_on_c, 1, 77, 0
7, 10920, Note_on_c, 1, 78, 76
7, 11029, Note_on_c, 1, 78, 0
7, 11040, Note_on_c, 1, 78, 76
7, 11509, Note_on_c, 1, 78, 0
7, 11520, Note_on_c, 1, 78, 76
7, 11709, Note_on_c, 1, 78, 0
7, 11720, Note_on_c, 1, 76, 76
7, 11759, Note_on_c, 1, 76, 0
7, 11760, Note_on_c, 1, 74, 76
7, 12109, Note_on_c, 1, 74, 0
7, 12120, Note_on_c, 1, 76, 76
7, 12229, Note_on_c, 1, 76, 0
7, 12240, Note_on_c, 1, 78, 76
7, 12469, Note_on_c, 1, 78, 0
7, 12480, Note_on_c, 1, 71, 76
7, 12709, Note_on_c, 1, 71, 0
7, 12720, Note_on_c, 1, 76, 76
7, 12949, Note_on_c, 1, 76, 0
7, 12960, Note_on_c, 1, 74, 76
7, 13429, Note_on_c, 1, 74, 0
7, 13440, Note_on_c, 1, 73, 76
7, 13559, Note_on_c, 1, 73, 0
7, 13560, Note_on_c, 1, 71, 76
7, 13669, Note_on_c, 1, 71, 0
7, 13680, Note_on_c, 1, 70, 76
7, 13799, Note_on_c, 1, 70, 0
7, 13800, Note_on_c, 1, 71, 76
7, 13909, Note_on_c, 1, 71, 0
7, 13920, Note_on_c, 1, 70, 76
7, 14039, Note_on_c, 1, 70, 0
7, 14040, Note_on_c, 1, 71, 76
7, 14149, Note_on_c, 1, 71, 0
7, 14160, Note_on_c, 1, 73, 76
7, 14509, Note_on_c, 1, 73, 0
7, 14520, Note_on_c, 1, 66, 76
7, 14629, Note_on_c, 1, 66, 0
7, 14640, Note_on_c, 1, 78, 76
7, 14989, Note_on_c, 1, 78, 0
7, 15000, Note_on_c, 1, 79, 76
7, 15109, Note_on_c, 1, 79, 0
7, 15120, Note_on_c, 1, 76, 76
7, 15349, Note_on_c, 1, 76, 0
7, 15360, Note_on_c, 1, 75, 76
7, 15479, Note_on_c, 1, 75, 0
7, 15480, Note_on_c, 1, 76, 76
7, 15589, Note_on_c, 1, 76, 0
7, 15600, Note_on_c, 1, 78, 76
7, 15839, Note_on_c, 1, 78, 0
7, 16200, Note_on_c, 1, 83, 76
7, 16309, Note_on_c, 1, 83, 0
7, 16320, Note_on_c, 1, 81, 76
7, 16439, Note_on_c, 1, 81, 0
7, 16440, Note_on_c, 1, 79, 76
7, 16549, Note_on_c, 1, 79, 0
7, 16560, Note_on_c, 1, 81, 76
7, 16679, Note_on_c, 1, 81, 0
7, 16680, Note_on_c, 1, 78, 76
7, 16789, Note_on_c, 1, 78, 0
7, 16800, Note_on_c, 1, 79, 76
7, 16919, Note_on_c, 1, 79, 0
7, 16920, Note_on_c, 1, 76, 76
7, 17029, Note_on_c, 1, 76, 0
7, 17040, Note_on_c, 1, 80, 76
7, 17054, Note_on_c, 1, 80, 0
7, 17055, Note_on_c, 1, 81, 76
7, 17069, Note_on_c, 1, 81, 0
7, 17070, Note_on_c, 1, 80, 76
7, 17084, Note_on_c, 1, 80, 0
7, 17085, Note_on_c, 1, 81, 76
7, 17099, Note_on_c, 1, 81, 0
7, 17100, Note_on_c, 1, 80, 76
7, 17114, Note_on_c, 1, 80, 0
7, 17115, Note_on_c, 1, 81, 76
7, 17129, Note_on_c, 1, 81, 0
7, 17130, Note_on_c, 1, 80, 76
7, 17144, Note_on_c, 1, 80, 0
7, 17145, Note_on_c, 1, 81, 76
7, 17159, Note_on_c, 1, 81, 0
7, 17160, Note_on_c, 1, 80, 76
7, 17174, Note_on_c, 1, 80, 0
7, 17175, Note_on_c, 1, 81, 76
7, 17189, Note_on_c, 1, 81, 0
7, 17190, Note_on_c, 1, 80, 76
7, 17204, Note_on_c, 1, 80, 0
7, 17205, Note_on_c, 1, 81, 76
7, 17219, Note_on_c, 1, 81, 0
7, 17220, Note_on_c, 1, 80, 76
7, 17234, Note_on_c, 1, 80, 0
7, 17235, Note_on_c, 1, 81, 76
7, 17249, Note_on_c, 1, 81, 0
7, 17250, Note_on_c, 1, 80, 76
7, 17264, Note_on_c, 1, 80, 0
7, 17265, Note_on_c, 1, 81, 76
7, 17279, Note_on_c, 1, 81, 0
7, 17280, Note_on_c, 1, 80, 76
7, 17294, Note_on_c, 1, 80, 0
7, 17295, Note_on_c, 1, 81, 76
7, 17309, Note_on_c, 1, 81, 0
7, 17310, Note_on_c, 1, 80, 76
7, 17324, Note_on_c, 1, 80, 0
7, 17325, Note_on_c, 1, 81, 76
7, 17339, Note_on_c, 1, 81, 0
7, 17340, Note_on_c, 1, 80, 76
7, 17354, Note_on_c, 1, 80, 0
7, 17355, Note_on_c, 1, 81, 76
7, 17369, Note_on_c, 1, 81, 0
7, 17370, Note_on_c, 1, 80, 76
7, 17384, Note_on_c, 1, 80, 0
7, 17385, Note_on_c, 1, 81, 76
7, 17399, Note_on_c, 1, 81, 0
7, 17400, Note_on_c, 1, 78, 76
7, 17451, Note_on_c, 1, 78, 0
7, 17460, Note_on_c, 1, 80, 76
7, 17511, Note_on_c, 1, 80, 0
7, 17520, Note_on_c, 1, 81, 76
7, 17629, Note_on_c, 1, 81, 0
7, 17640, Note_on_c, 1, 85, 76
7, 17749, Note_on_c, 1, 85, 0
7, 17760, Note_on_c, 1, 83, 76
7, 17879, Note_on_c, 1, 83, 0
7, 17880, Note_on_c, 1, 82, 76
7, 17989, Note_on_c, 1, 82, 0
7, 18000, Note_on_c, 1, 80, 76
7, 18119, Note_on_c, 1, 80, 0
7, 18120, Note_on_c, 1, 82, 76
7, 18229, Note_on_c, 1, 82, 0
7, 18240, Note_on_c, 1, 83, 76
7, 18359, Note_on_c, 1, 83, 0
7, 18360, Note_on_c, 1, 81, 76
7, 18469, Note_on_c, 1, 81, 0
7, 18480, Note_on_c, 1, 79, 76
7, 18599, Note_on_c, 1, 79, 0
7, 18600, Note_on_c, 1, 78, 76
7, 18709, Note_on_c, 1, 78, 0
7, 18720, Note_on_c, 1, 76, 76
7, 18839, Note_on_c, 1, 76, 0
7, 18840, Note_on_c, 1, 74, 76
7, 18949, Note_on_c, 1, 74, 0
7, 18960, Note_on_c, 1, 73, 76
7, 19079, Note_on_c, 1, 73, 0
7, 19080, Note_on_c, 1, 74, 76
7, 19189, Note_on_c, 1, 74, 0
7, 19200, Note_on_c, 1, 76, 76
7, 19909, Note_on_c, 1, 76, 0
7, 19920, Note_on_c, 1, 75, 76
7, 20039, Note_on_c, 1, 75, 0
7, 20040, Note_on_c, 1, 76, 76
7, 20149, Note_on_c, 1, 76, 0
7, 20160, Note_on_c, 1, 78, 76
7, 20279, Note_on_c, 1, 78, 0
7, 20280, Note_on_c, 1, 75, 76
7, 20389, Note_on_c, 1, 75, 0
7, 20400, Note_on_c, 1, 83, 76
7, 21229, Note_on_c, 1, 83, 0
7, 21240, Note_on_c, 1, 74, 76
7, 21359, Note_on_c, 1, 74, 0
7, 21360, Note_on_c, 1, 73, 76
7, 21469, Note_on_c, 1, 73, 0
7, 21480, Note_on_c, 1, 83, 76
7, 21589, Note_on_c, 1, 83, 0
7, 21600, Note_on_c, 1, 81, 76
7, 21949, Note_on_c, 1, 81, 0
7, 21960, Note_on_c, 1, 80, 76
7, 22069, Note_on_c, 1, 80, 0
7, 22080, Note_on_c, 1, 77, 76
7, 22094, Note_on_c, 1, 77, 0
7, 22095, Note_on_c, 1, 78, 76
7, 22109, Note_on_c, 1, 78, 0
7, 22110, Note_on_c, 1, 77, 76
7, 22124, Note_on_c, 1, 77, 0
7, 22125, Note_on_c, 1, 78, 76
7, 22139, Note_on_c, 1, 78, 0
7, 22140, Note_on_c, 1, 77, 76
7, 22154, Note_on_c, 1, 77, 0
7, 22155, Note_on_c, 1, 78, 76
7, 22169, Note_on_c, 1, 78, 0
7, 22170, Note_on_c, 1, 77, 76
7, 22184, Note_on_c, 1, 77, 0
7, 22185, Note_on_c, 1, 78, 76
7, 22199, Note_on_c, 1, 78, 0
7, 22200, Note_on_c, 1, 77, 76
7, 22214, Note_on_c, 1, 77, 0
7, 22215, Note_on_c, 1, 78, 76
7, 22229, Note_on_c, 1, 78, 0
7, 22230, Note_on_c, 1, 77, 76
7, 22244, Note_on_c, 1, 77, 0
7, 22245, Note_on_c, 1, 78, 76
7, 22259, Note_on_c, 1, 78, 0
7, 22260, Note_on_c, 1, 77, 76
7, 22274, Note_on_c, 1, 77, 0
7, 22275, Note_on_c, 1, 78, 76
7, 22289, Note_on_c, 1, 78, 0
7, 22290, Note_on_c, 1, 77, 76
7, 22304, Note_on_c, 1, 77, 0
7, 22305, Note_on_c, 1, 78, 76
7, 22319, Note_on_c, 1, 78, 0
7, 22320, Note_on_c, 1, 77, 76
7, 22334, Note_on_c, 1, 77, 0
7, 22335, Note_on_c, 1, 78, 76
7, 22349, Note_on_c, 1, 78, 0
7, 22350, Note_on_c, 1, 77, 76
7, 22364, Note_on_c, 1, 77, 0
7, 22365, Note_on_c, 1, 78, 76
7, 22379, Note_on_c, 1, 78, 0
7, 22380, Note_on_c, 1, 77, 76
7, 22394, Note_on_c, 1, 77, 0
7, 22395, Note_on_c, 1, 78, 76
7, 22409, Note_on_c, 1, 78, 0
7, 22410, Note_on_c, 1, 74, 76
7, 22424, Note_on_c, 1, 74, 0
7, 22425, Note_on_c, 1, 77, 76
7, 22439, Note_on_c, 1, 77, 0
7, 22440, Note_on_c, 1, 78, 76
7, 22549, Note_on_c, 1, 78, 0
7, 22560, Note_on_c, 1, 78, 76
7, 23029, Note_on_c, 1, 78, 0
7, 23040, Note_on_c, 1, 73, 76
7, 23231, Note_on_c, 1, 73, 0
7, 23240, Note_on_c, 1, 71, 76
7, 23279, Note_on_c, 1, 71, 0
7, 23280, Note_on_c, 1, 70, 76
7, 23294, Note_on_c, 1, 70, 0
7, 23295, Note_on_c, 1, 71, 76
7, 23309, Note_on_c, 1, 71, 0
7, 23310, Note_on_c, 1, 70, 76
7, 23324, Note_on_c, 1, 70, 0
7, 23325, Note_on_c, 1, 71, 76
7, 23339, Note_on_c, 1, 71, 0
7, 23340, Note_on_c, 1, 70, 76
7, 23354, Note_on_c, 1, 70, 0
7, 23355, Note_on_c, 1, 71, 76
7, 23369, Note_on_c, 1, 71, 0
7, 23370, Note_on_c, 1, 70, 76
7, 23384, Note_on_c, 1, 70, 0
7, 23385, Note_on_c, 1, 71, 76
7, 23399, Note_on_c, 1, 71, 0
7, 23400, Note_on_c, 1, 70, 76
7, 23414, Note_on_c, 1, 70, 0
7, 23415, Note_on_c, 1, 71, 76
7, 23429, Note_on_c, 1, 71, 0
7, 23430, Note_on_c, 1, 70, 76
7, 23444, Note_on_c, 1, 70, 0
7, 23445, Note_on_c, 1, 71, 76
7, 23459, Note_on_c, 1, 71, 0
7, 23460, Note_on_c, 1, 70, 76
7, 23474, Note_on_c, 1, 70, 0
7, 23475, Note_on_c, 1, 71, 76
7, 23489, Note_on_c, 1, 71, 0
7, 23490, Note_on_c, 1, 70, 76
7, 23504, Note_on_c, 1, 70, 0
7, 23505, Note_on_c, 1, 71, 76
7, 23519, Note_on_c, 1, 71, 0
7, 23520, Note_on_c, 1, 70, 76
7, 23534, Note_on_c, 1, 70, 0
7, 23535, Note_on_c, 1, 71, 76
7, 23549, Note_on_c, 1, 71, 0
7, 23550, Note_on_c, 1, 70, 76
7, 23564, Note_on_c, 1, 70, 0
7, 23565, Note_on_c, 1, 71, 76
7, 23579, Note_on_c, 1, 71, 0
7, 23580, Note_on_c, 1, 70, 76
7, 23594, Note_on_c, 1, 70, 0
7, 23595, Note_on_c, 1, 71, 76
7, 23609, Note_on_c, 1, 71, 0
7, 23610, Note_on_c, 1, 67, 76
7, 23624, Note_on_c, 1, 67, 0
7, 23625, Note_on_c, 1, 70, 76
7, 23639, Note_on_c, 1, 70, 0
7, 23640, Note_on_c, 1, 71, 76
7, 23749, Note_on_c, 1, 71, 0
7, 23760, Note_on_c, 1, 73, 76
7, 23989, Note_on_c, 1, 73, 0
7, 24000, Note_on_c, 1, 66, 76
7, 24229, Note_on_c, 1, 66, 0
7, 24240, Note_on_c, 1, 78, 76
7, 24589, Note_on_c, 1, 78, 0
7, 24600, Note_on_c, 1, 76, 76
7, 24709, Note_on_c, 1, 76, 0
7, 24720, Note_on_c, 1, 74, 76
7, 24839, Note_on_c, 1, 74, 0
7, 24840, Note_on_c, 1, 73, 76
7, 24949, Note_on_c, 1, 73, 0
7, 24960, Note_on_c, 1, 76, 76
7, 25079, Note_on_c, 1, 76, 0
7, 25080, Note_on_c, 1, 74, 76
7, 25189, Note_on_c, 1, 74, 0
7, 25200, Note_on_c, 1, 73, 76
7, 25319, Note_on_c, 1, 73, 0
7, 25320, Note_on_c, 1, 71, 76
7, 25429, Note_on_c, 1, 71, 0
7, 25440, Note_on_c, 1, 76, 76
7, 25909, Note_on_c, 1, 76, 0
7, 25920, Note_on_c, 1, 74, 76
7, 26389, Note_on_c, 1, 74, 0
7, 26400, Note_on_c, 1, 73, 76
7, 26509, Note_on_c, 1, 73, 0
7, 26520, Note_on_c, 1, 74, 76
7, 26629, Note_on_c, 1, 74, 0
7, 26640, Note_on_c, 1, 76, 76
7, 26749, Note_on_c, 1, 76, 0
7, 26760, Note_on_c, 1, 73, 76
7, 26869, Note_on_c, 1, 73, 0
7, 26880, Note_on_c, 1, 69, 76
7, 27109, Note_on_c, 1, 69, 0
7, 27120, Note_on_c, 1, 81, 76
7, 27359, Note_on_c, 1, 81, 0
7, 27720, Note_on_c, 1, 79, 76
7, 27829, Note_on_c, 1, 79, 0
7, 27840, Note_on_c, 1, 78, 76
7, 27949, Note_on_c, 1, 78, 0
7, 27960, Note_on_c, 1, 79, 76
7, 28019, Note_on_c, 1, 79, 0
7, 28020, Note_on_c, 1, 81, 76
7, 28071, Note_on_c, 1, 81, 0
7, 28080, Note_on_c, 1, 74, 76
7, 28189, Note_on_c, 1, 74, 0
7, 28200, Note_on_c, 1, 72, 76
7, 28309, Note_on_c, 1, 72, 0
7, 28320, Note_on_c, 1, 71, 76
7, 28439, Note_on_c, 1, 71, 0
7, 28440, Note_on_c, 1, 69, 76
7, 28549, Note_on_c, 1, 69, 0
7, 28560, Note_on_c, 1, 67, 76
7, 28789, Note_on_c, 1, 67, 0
7, 28800, Note_on_c, 1, 83, 76
7, 29269, Note_on_c, 1, 83, 0
7, 29280, Note_on_c, 1, 82, 76
7, 29399, Note_on_c, 1, 82, 0
7, 29400, Note_on_c, 1, 83, 76
7, 29509, Note_on_c, 1, 83, 0
7, 29520, Note_on_c, 1, 85, 76
7, 29639, Note_on_c, 1, 85, 0
7, 29640, Note_on_c, 1, 82, 76
7, 29749, Note_on_c, 1, 82, 0
7, 29760, Note_on_c, 1, 78, 76
7, 29989, Note_on_c, 1, 78, 0
7, 30000, Note_on_c, 1, 83, 76
7, 30229, Note_on_c, 1, 83, 0
7, 30240, Note_on_c, 1, 81, 76
7, 30589, Note_on_c, 1, 81, 0
7, 30600, Note_on_c, 1, 79, 76
7, 30651, Note_on_c, 1, 79, 0
7, 30660, Note_on_c, 1, 78, 76
7, 30711, Note_on_c, 1, 78, 0
7, 30720, Note_on_c, 1, 79, 76
7, 30839, Note_on_c, 1, 79, 0
7, 30840, Note_on_c, 1, 83, 76
7, 30949, Note_on_c, 1, 83, 0
7, 30960, Note_on_c, 1, 78, 76
7, 31079, Note_on_c, 1, 78, 0
7, 31080, Note_on_c, 1, 83, 76
7, 31189, Note_on_c, 1, 83, 0
7, 31200, Note_on_c, 1, 76, 76
7, 31789, Note_on_c, 1, 76, 0
7, 31800, Note_on_c, 1, 67, 76
7, 31909, Note_on_c, 1, 67, 0
7, 31920, Note_on_c, 1, 66, 76
7, 32039, Note_on_c, 1, 66, 0
7, 32040, Note_on_c, 1, 76, 76
7, 32149, Note_on_c, 1, 76, 0
7, 32160, Note_on_c, 1, 74, 76
7, 32279, Note_on_c, 1, 74, 0
7, 32280, Note_on_c, 1, 73, 76
7, 32389, Note_on_c, 1, 73, 0
7, 32400, Note_on_c, 1, 78, 76
7, 32519, Note_on_c, 1, 78, 0
7, 32520, Note_on_c, 1, 76, 76
7, 32629, Note_on_c, 1, 76, 0
7, 32640, Note_on_c, 1, 74, 76
7, 32749, Note_on_c, 1, 74, 0
7, 32760, Note_on_c, 1, 73, 76
7, 32879, Note_on_c, 1, 73, 0
7, 32880, Note_on_c, 1, 71, 76
7, 32989, Note_on_c, 1, 71, 0
7, 33000, Note_on_c, 1, 70, 76
7, 33109, Note_on_c, 1, 70, 0
7, 33120, Note_on_c, 1, 71, 76
7, 33359, Note_on_c, 1, 71, 0
7, 33480, Note_on_c, 1, 73, 76
7, 33589, Note_on_c, 1, 73, 0
7, 33600, Note_on_c, 1, 73, 76
7, 33614, Note_on_c, 1, 73, 0
7, 33615, Note_on_c, 1, 74, 76
7, 33629, Note_on_c, 1, 74, 0
7, 33630, Note_on_c, 1, 73, 76
7, 33644, Note_on_c, 1, 73, 0
7, 33645, Note_on_c, 1, 74, 76
7, 33659, Note_on_c, 1, 74, 0
7, 33660, Note_on_c, 1, 73, 76
7, 33674, Note_on_c, 1, 73, 0
7, 33675, Note_on_c, 1, 74, 76
7, 33689, Note_on_c, 1, 74, 0
7, 33690, Note_on_c, 1, 73, 76
7, 33704, Note_on_c, 1, 73, 0
7, 33705, Note_on_c, 1, 74, 76
7, 33719, Note_on_c, 1, 74, 0
7, 33720, Note_on_c, 1, 73, 76
7, 33734, Note_on_c, 1, 73, 0
7, 33735, Note_on_c, 1, 74, 76
7, 33749, Note_on_c, 1, 74, 0
7, 33750, Note_on_c, 1, 73, 76
7, 33764, Note_on_c, 1, 73, 0
7, 33765, Note_on_c, 1, 74, 76
7, 33779, Note_on_c, 1, 74, 0
7, 33780, Note_on_c, 1, 73, 76
7, 33794, Note_on_c, 1, 73, 0
7, 33795, Note_on_c, 1, 74, 76
7, 33809, Note_on_c, 1, 74, 0
7, 33810, Note_on_c, 1, 73, 76
7, 33824, Note_on_c, 1, 73, 0
7, 33825, Note_on_c, 1, 74, 76
7, 33839, Note_on_c, 1, 74, 0
7, 33840, Note_on_c, 1, 73, 76
7, 33854, Note_on_c, 1, 73, 0
7, 33855, Note_on_c, 1, 74, 76
7, 33869, Note_on_c, 1, 74, 0
7, 33870, Note_on_c, 1, 73, 76
7, 33884, Note_on_c, 1, 73, 0
7, 33885, Note_on_c, 1, 74, 76
7, 33899, Note_on_c, 1, 74, 0
7, 33900, Note_on_c, 1, 73, 76
7, 33914, Note_on_c, 1, 73, 0
7, 33915, Note_on_c, 1, 74, 76
7, 33929, Note_on_c, 1, 74, 0
7, 33930, Note_on_c, 1, 71, 76
7, 33944, Note_on_c, 1, 71, 0
7, 33945, Note_on_c, 1, 73, 76
7, 33959, Note_on_c, 1, 73, 0
7, 33960, Note_on_c, 1, 71, 76
7, 34069, Note_on_c, 1, 71, 0
7, 34080, Note_on_c, 1, 71, 76
7, 34549, Note_on_c, 1, 71, 0
7, 34560, Note_on_c, 1, 73, 76
7, 34751, Note_on_c, 1, 73, 0
7, 34760, Note_on_c, 1, 71, 76
7, 34799, Note_on_c, 1, 71, 0
7, 34800, Note_on_c, 1, 70, 76
7, 34814, Note_on_c, 1, 70, 0
7, 34815, Note_on_c, 1, 71, 76
7, 34829, Note_on_c, 1, 71, 0
7, 34830, Note_on_c, 1, 70, 76
7, 34844, Note_on_c, 1, 70, 0
7, 34845, Note_on_c, 1, 71, 76
7, 34859, Note_on_c, 1, 71, 0
7, 34860, Note_on_c, 1, 70, 76
7, 34874, Note_on_c, 1, 70, 0
7, 34875, Note_on_c, 1, 71, 76
7, 34889, Note_on_c, 1, 71, 0
7, 34890, Note_on_c, 1, 70, 76
7, 34904, Note_on_c, 1, 70, 0
7, 34905, Note_on_c, 1, 71, 76
7, 34919, Note_on_c, 1, 71, 0
7, 34920, Note_on_c, 1, 70, 76
7, 34934, Note_on_c, 1, 70, 0
7, 34935, Note_on_c, 1, 71, 76
7, 34949, Note_on_c, 1, 71, 0
7, 34950, Note_on_c, 1, 70, 76
7, 34964, Note_on_c, 1, 70, 0
7, 34965, Note_on_c, 1, 71, 76
7, 34979, Note_on_c, 1, 71, 0
7, 34980, Note_on_c, 1, 70, 76
7, 34994, Note_on_c, 1, 70, 0
7, 34995, Note_on_c, 1, 71, 76
7, 35009, Note_on_c, 1, 71, 0
7, 35010, Note_on_c, 1, 70, 76
7, 35024, Note_on_c, 1, 70, 0
7, 35025, Note_on_c, 1, 71, 76
7, 35039, Note_on_c, 1, 71, 0
7, 35040, Note_on_c, 1, 70, 76
7, 35054, Note_on_c, 1, 70, 0
7, 35055, Note_on_c, 1, 71, 76
7, 35069, Note_on_c, 1, 71, 0
7, 35070, Note_on_c, 1, 70, 76
7, 35084, Note_on_c, 1, 70, 0
7, 35085, Note_on_c, 1, 71, 76
7, 35099, Note_on_c, 1, 71, 0
7, 35100, Note_on_c, 1, 70, 76
7, 35114, Note_on_c, 1, 70, 0
7, 35115, Note_on_c, 1, 71, 76
7, 35129, Note_on_c, 1, 71, 0
7, 35130, Note_on_c, 1, 67, 76
7, 35144, Note_on_c, 1, 67, 0
7, 35145, Note_on_c, 1, 70, 76
7, 35159, Note_on_c, 1, 70, 0
7, 35160, Note_on_c, 1, 71, 76
7, 35269, Note_on_c, 1, 71, 0
7, 35280, Note_on_c, 1, 73, 76
7, 35509, Note_on_c, 1, 73, 0
7, 35520, Note_on_c, 1, 66, 76
7, 35749, Note_on_c, 1, 66, 0
7, 35760, Note_on_c, 1, 78, 76
7, 36109, Note_on_c, 1, 78, 0
7, 36120, Note_on_c, 1, 76, 76
7, 36229, Note_on_c, 1, 76, 0
7, 36240, Note_on_c, 1, 74, 76
7, 36359, Note_on_c, 1, 74, 0
7, 36360, Note_on_c, 1, 73, 76
7, 36469, Note_on_c, 1, 73, 0
7, 36480, Note_on_c, 1, 76, 76
7, 36599, Note_on_c, 1, 76, 0
7, 36600, Note_on_c, 1, 74, 76
7, 36709, Note_on_c, 1, 74, 0
7, 36720, Note_on_c, 1, 73, 76
7, 36839, Note_on_c, 1, 73, 0
7, 36840, Note_on_c, 1, 71, 76
7, 36949, Note_on_c, 1, 71, 0
7, 36960, Note_on_c, 1, 76, 76
7, 37429, Note_on_c, 1, 76, 0
7, 37440, Note_on_c, 1, 74, 76
7, 37909, Note_on_c, 1, 74, 0
7, 37920, Note_on_c, 1, 73, 76
7, 38029, Note_on_c, 1, 73, 0
7, 38040, Note_on_c, 1, 74, 76
7, 38149, Note_on_c, 1, 74, 0
7, 38160, Note_on_c, 1, 76, 76
7, 38269, Note_on_c, 1, 76, 0
7, 38280, Note_on_c, 1, 73, 76
7, 38389, Note_on_c, 1, 73, 0
7, 38400, Note_on_c, 1, 69, 76
7, 38629, Note_on_c, 1, 69, 0
7, 38640, Note_on_c, 1, 81, 76
7, 38879, Note_on_c, 1, 81, 0
7, 39240, Note_on_c, 1, 79, 76
7, 39349, Note_on_c, 1, 79, 0
7, 39360, Note_on_c, 1, 78, 76
7, 39469, Note_on_c, 1, 78, 0
7, 39480, Note_on_c, 1, 79, 76
7, 39539, Note_on_c, 1, 79, 0
7, 39540, Note_on_c, 1, 81, 76
7, 39591, Note_on_c, 1, 81, 0
7, 39600, Note_on_c, 1, 74, 76
7, 39709, Note_on_c, 1, 74, 0
7, 39720, Note_on_c, 1, 72, 76
7, 39829, Note_on_c, 1, 72, 0
7, 39840, Note_on_c, 1, 71, 76
7, 39959, Note_on_c, 1, 71, 0
7, 39960, Note_on_c, 1, 69, 76
7, 40069, Note_on_c, 1, 69, 0
7, 40080, Note_on_c, 1, 67, 76
7, 40309, Note_on_c, 1, 67, 0
7, 40320, Note_on_c, 1, 83, 76
7, 40789, Note_on_c, 1, 83, 0
7, 40800, Note_on_c, 1, 82, 76
7, 40919, Note_on_c, 1, 82, 0
7, 40920, Note_on_c, 1, 83, 76
7, 41029, Note_on_c, 1, 83, 0
7, 41040, Note_on_c, 1, 85, 76
7, 41159, Note_on_c, 1, 85, 0
7, 41160, Note_on_c, 1, 82, 76
7, 41269, Note_on_c, 1, 82, 0
7, 41280, Note_on_c, 1, 78, 76
7, 41509, Note_on_c, 1, 78, 0
7, 41520, Note_on_c, 1, 83, 76
7, 41749, Note_on_c, 1, 83, 0
7, 41760, Note_on_c, 1, 81, 76
7, 42109, Note_on_c, 1, 81, 0
7, 42120, Note_on_c, 1, 79, 76
7, 42171, Note_on_c, 1, 79, 0
7, 42180, Note_on_c, 1, 78, 76
7, 42231, Note_on_c, 1, 78, 0
7, 42240, Note_on_c, 1, 79, 76
7, 42359, Note_on_c, 1, 79, 0
7, 42360, Note_on_c, 1, 83, 76
7, 42469, Note_on_c, 1, 83, 0
7, 42480, Note_on_c, 1, 78, 76
7, 42599, Note_on_c, 1, 78, 0
7, 42600, Note_on_c, 1, 83, 76
7, 42709, Note_on_c, 1, 83, 0
7, 42720, Note_on_c, 1, 76, 76
7, 43309, Note_on_c, 1, 76, 0
7, 43320, Note_on_c, 1, 67, 76
7, 43429, Note_on_c, 1, 67, 0
7, 43440, Note_on_c, 1, 66, 76
7, 43559, Note_on_c, 1, 66, 0
7, 43560, Note_on_c, 1, 76, 76
7, 43669, Note_on_c, 1, 76, 0
7, 43680, Note_on_c, 1, 74, 76
7, 43799, Note_on_c, 1, 74, 0
7, 43800, Note_on_c, 1, 73, 76
7, 43909, Note_on_c, 1, 73, 0
7, 43920, Note_on_c, 1, 78, 76
7, 44039, Note_on_c, 1, 78, 0
7, 44040, Note_on_c, 1, 76, 76
7, 44149, Note_on_c, 1, 76, 0
7, 44160, Note_on_c, 1, 74, 76
7, 44269, Note_on_c, 1, 74, 0
7, 44280, Note_on_c, 1, 73, 76
7, 44399, Note_on_c, 1, 73, 0
7, 44400, Note_on_c, 1, 71, 76
7, 44509, Note_on_c, 1, 71, 0
7, 44520, Note_on_c, 1, 70, 76
7, 44629, Note_on_c, 1, 70, 0
7, 44640, Note_on_c, 1, 71, 76
7, 44879, Note_on_c, 1, 71, 0
7, 45000, Note_on_c, 1, 73, 76
7, 45109, Note_on_c, 1, 73, 0
7, 45120, Note_on_c, 1, 73, 76
7, 45134, Note_on_c, 1, 73, 0
7, 45135, Note_on_c, 1, 74, 76
7, 45149, Note_on_c, 1, 74, 0
7, 45150, Note_on_c, 1, 73, 76
7, 45164, Note_on_c, 1, 73, 0
7, 45165, Note_on_c, 1, 74, 76
7, 45179, Note_on_c, 1, 74, 0
7, 45180, Note_on_c, 1, 73, 76
7, 45194, Note_on_c, 1, 73, 0
7, 45195, Note_on_c, 1, 74, 76
7, 45209, Note_on_c, 1, 74, 0
7, 45210, Note_on_c, 1, 73, 76
7, 45224, Note_on_c, 1, 73, 0
7, 45225, Note_on_c, 1, 74, 76
7, 45239, Note_on_c, 1, 74, 0
7, 45240, Note_on_c, 1, 73, 76
7, 45254, Note_on_c, 1, 73, 0
7, 45255, Note_on_c, 1, 74, 76
7, 45269, Note_on_c, 1, 74, 0
7, 45270, Note_on_c, 1, 73, 76
7, 45284, Note_on_c, 1, 73, 0
7, 45285, Note_on_c, 1, 74, 76
7, 45299, Note_on_c, 1, 74, 0
7, 45300, Note_on_c, 1, 73, 76
7, 45314, Note_on_c, 1, 73, 0
7, 45315, Note_on_c, 1, 74, 76
7, 45329, Note_on_c, 1, 74, 0
7, 45330, Note_on_c, 1, 73, 76
7, 45344, Note_on_c, 1, 73, 0
7, 45345, Note_on_c, 1, 74, 76
7, 45359, Note_on_c, 1, 74, 0
7, 45360, Note_on_c, 1, 73, 76
7, 45374, Note_on_c, 1, 73, 0
7, 45375, Note_on_c, 1, 74, 76
7, 45389, Note_on_c, 1, 74, 0
7, 45390, Note_on_c, 1, 73, 76
7, 45404, Note_on_c, 1, 73, 0
7, 45405, Note_on_c, 1, 74, 76
7, 45419, Note_on_c, 1, 74, 0
7, 45420, Note_on_c, 1, 73, 76
7, 45434, Note_on_c, 1, 73, 0
7, 45435, Note_on_c, 1, 74, 76
7, 45449, Note_on_c, 1, 74, 0
7, 45450, Note_on_c, 1, 71, 76
7, 45464, Note_on_c, 1, 71, 0
7, 45465, Note_on_c, 1, 73, 76
7, 45479, Note_on_c, 1, 73, 0
7, 45480, Note_on_c, 1, 71, 76
7, 45589, Note_on_c, 1, 71, 0
7, 45600, Note_on_c, 1, 71, 76
7, 46069, Note_on_c, 1, 71, 0
7, 46069, End_track
8, 0, Start_track
8, 0, Title_t, "Violin II"
8, 0, MIDI_port, 0
8, 0, Program_c, 2, 48
8, 0, Control_c, 2, 10, 32
8, 0, Control_c, 2, 11, 127
8, 0, Control_c, 2, 7, 96
8, 720, Note_on_c, 2, 71, 76
8, 1069, Note_on_c, 2, 71, 0
8, 1080, Note_on_c, 2, 69, 76
8, 1151, Note_on_c, 2, 69, 0
8, 1160, Note_on_c, 2, 69, 76
8, 1199, Note_on_c, 2, 69, 0
8, 1200, Note_on_c, 2, 67, 76
8, 1429, Note_on_c, 2, 67, 0
8, 1440, Note_on_c, 2, 66, 76
8, 1549, Note_on_c, 2, 66, 0
8, 1560, Note_on_c, 2, 69, 76
8, 1669, Note_on_c, 2, 69, 0
8, 1680, Note_on_c, 2, 67, 76
8, 1789, Note_on_c, 2, 67, 0
8, 1800, Note_on_c, 2, 66, 76
8, 1871, Note_on_c, 2, 66, 0
8, 1880, Note_on_c, 2, 66, 76
8, 1919, Note_on_c, 2, 66, 0
8, 1920, Note_on_c, 2, 64, 76
8, 2269, Note_on_c, 2, 64, 0
8, 2280, Note_on_c, 2, 62, 76
8, 2389, Note_on_c, 2, 62, 0
8, 2400, Note_on_c, 2, 61, 76
8, 2629, Note_on_c, 2, 61, 0
8, 2640, Note_on_c, 2, 66, 76
8, 2869, Note_on_c, 2, 66, 0
8, 2880, Note_on_c, 2, 70, 76
8, 3109, Note_on_c, 2, 70, 0
8, 3120, Note_on_c, 2, 71, 76
8, 3229, Note_on_c, 2, 71, 0
8, 3240, Note_on_c, 2, 73, 76
8, 3349, Note_on_c, 2, 73, 0
8, 3360, Note_on_c, 2, 74, 76
8, 3589, Note_on_c, 2, 74, 0
8, 3600, Note_on_c, 2, 70, 76
8, 3829, Note_on_c, 2, 70, 0
8, 3840, Note_on_c, 2, 71, 76
8, 3959, Note_on_c, 2, 71, 0
8, 3960, Note_on_c, 2, 73, 76
8, 4069, Note_on_c, 2, 73, 0
8, 4080, Note_on_c, 2, 75, 76
8, 4199, Note_on_c, 2, 75, 0
8, 4200, Note_on_c, 2, 76, 76
8, 4309, Note_on_c, 2, 76, 0
8, 4320, Note_on_c, 2, 78, 76
8, 4429, Note_on_c, 2, 78, 0
8, 4440, Note_on_c, 2, 71, 76
8, 4549, Note_on_c, 2, 71, 0
8, 4560, Note_on_c, 2, 76, 76
8, 5029, Note_on_c, 2, 76, 0
8, 5040, Note_on_c, 2, 75, 76
8, 5269, Note_on_c, 2, 75, 0
8, 5280, Note_on_c, 2, 76, 76
8, 5509, Note_on_c, 2, 76, 0
8, 5520, Note_on_c, 2, 71, 76
8, 5989, Note_on_c, 2, 71, 0
8, 6000, Note_on_c, 2, 76, 76
8, 6229, Note_on_c, 2, 76, 0
8, 6240, Note_on_c, 2, 73, 76
8, 6709, Note_on_c, 2, 73, 0
8, 6720, Note_on_c, 2, 71, 76
8, 7669, Note_on_c, 2, 71, 0
8, 7680, Note_on_c, 2, 70, 76
8, 7789, Note_on_c, 2, 70, 0
8, 7800, Note_on_c, 2, 71, 76
8, 7909, Note_on_c, 2, 71, 0
8, 7920, Note_on_c, 2, 73, 76
8, 8389, Note_on_c, 2, 73, 0
8, 8400, Note_on_c, 2, 71, 76
8, 8989, Note_on_c, 2, 71, 0
8, 9000, Note_on_c, 2, 73, 76
8, 9109, Note_on_c, 2, 73, 0
8, 9120, Note_on_c, 2, 71, 76
8, 9239, Note_on_c, 2, 71, 0
8, 9240, Note_on_c, 2, 69, 76
8, 9349, Note_on_c, 2, 69, 0
8, 9360, Note_on_c, 2, 68, 76
8, 9479, Note_on_c, 2, 68, 0
8, 9480, Note_on_c, 2, 66, 76
8, 9589, Note_on_c, 2, 66, 0
8, 9600, Note_on_c, 2, 68, 76
8, 9949, Note_on_c, 2, 68, 0
8, 9960, Note_on_c, 2, 77, 76
8, 10069, Note_on_c, 2, 77, 0
8, 10080, Note_on_c, 2, 78, 76
8, 10429, Note_on_c, 2, 78, 0
8, 10440, Note_on_c, 2, 74, 76
8, 10549, Note_on_c, 2, 74, 0
8, 10560, Note_on_c, 2, 73, 76
8, 10789, Note_on_c, 2, 73, 0
8, 10800, Note_on_c, 2, 73, 76
8, 11029, Note_on_c, 2, 73, 0
8, 11040, Note_on_c, 2, 73, 76
8, 11509, Note_on_c, 2, 73, 0
8, 12240, Note_on_c, 2, 71, 76
8, 12589, Note_on_c, 2, 71, 0
8, 12600, Note_on_c, 2, 69, 76
8, 12671, Note_on_c, 2, 69, 0
8, 12680, Note_on_c, 2, 69, 76
8, 12719, Note_on_c, 2, 69, 0
8, 12720, Note_on_c, 2, 67, 76
8, 12949, Note_on_c, 2, 67, 0
8, 12960, Note_on_c, 2, 66, 76
8, 13069, Note_on_c, 2, 66, 0
8, 13080, Note_on_c, 2, 69, 76
8, 13189, Note_on_c, 2, 69, 0
8, 13200, Note_on_c, 2, 67, 76
8, 13309, Note_on_c, 2, 67, 0
8, 13320, Note_on_c, 2, 66, 76
8, 13391, Note_on_c, 2, 66, 0
8, 13400, Note_on_c, 2, 66, 76
8, 13439, Note_on_c, 2, 66, 0
8, 13440, Note_on_c, 2, 64, 76
8, 13789, Note_on_c, 2, 64, 0
8, 13800, Note_on_c, 2, 62, 76
8, 13909, Note_on_c, 2, 62, 0
8, 13920, Note_on_c, 2, 61, 76
8, 14149, Note_on_c, 2, 61, 0
8, 14160, Note_on_c, 2, 66, 76
8, 14389, Note_on_c, 2, 66, 0
8, 14400, Note_on_c, 2, 70, 76
8, 14629, Note_on_c, 2, 70, 0
8, 14640, Note_on_c, 2, 71, 76
8, 14749, Note_on_c, 2, 71, 0
8, 14760, Note_on_c, 2, 73, 76
8, 14869, Note_on_c, 2, 73, 0
8, 14880, Note_on_c, 2, 74, 76
8, 15109, Note_on_c, 2, 74, 0
8, 15120, Note_on_c, 2, 70, 76
8, 15349, Note_on_c, 2, 70, 0
8, 15360, Note_on_c, 2, 71, 76
8, 15479, Note_on_c, 2, 71, 0
8, 15480, Note_on_c, 2, 73, 76
8, 15589, Note_on_c, 2, 73, 0
8, 15600, Note_on_c, 2, 75, 76
8, 15719, Note_on_c, 2, 75, 0
8, 15720, Note_on_c, 2, 76, 76
8, 15829, Note_on_c, 2, 76, 0
8, 15840, Note_on_c, 2, 78, 76
8, 15949, Note_on_c, 2, 78, 0
8, 15960, Note_on_c, 2, 71, 76
8, 16069, Note_on_c, 2, 71, 0
8, 16080, Note_on_c, 2, 76, 76
8, 16549, Note_on_c, 2, 76, 0
8, 16560, Note_on_c, 2, 75, 76
8, 16789, Note_on_c, 2, 75, 0
8, 16800, Note_on_c, 2, 76, 76
8, 17029, Note_on_c, 2, 76, 0
8, 17040, Note_on_c, 2, 71, 76
8, 17509, Note_on_c, 2, 71, 0
8, 17520, Note_on_c, 2, 76, 76
8, 17749, Note_on_c, 2, 76, 0
8, 17760, Note_on_c, 2, 73, 76
8, 18229, Note_on_c, 2, 73, 0
8, 18240, Note_on_c, 2, 71, 76
8, 19189, Note_on_c, 2, 71, 0
8, 19200, Note_on_c, 2, 70, 76
8, 19309, Note_on_c, 2, 70, 0
8, 19320, Note_on_c, 2, 71, 76
8, 19429, Note_on_c, 2, 71, 0
8, 19440, Note_on_c, 2, 73, 76
8, 19909, Note_on_c, 2, 73, 0
8, 19920, Note_on_c, 2, 71, 76
8, 20509, Note_on_c, 2, 71, 0
8, 20520, Note_on_c, 2, 73, 76
8, 20629, Note_on_c, 2, 73, 0
8, 20640, Note_on_c, 2, 71, 76
8, 20759, Note_on_c, 2, 71, 0
8, 20760, Note_on_c, 2, 69, 76
8, 20869, Note_on_c, 2, 69, 0
8, 20880, Note_on_c, 2, 68, 76
8, 20999, Note_on_c, 2, 68, 0
8, 21000, Note_on_c, 2, 66, 76
8, 21109, Note_on_c, 2, 66, 0
8, 21120, Note_on_c, 2, 68, 76
8, 21469, Note_on_c, 2, 68, 0
8, 21480, Note_on_c, 2, 77, 76
8, 21589, Note_on_c, 2, 77, 0
8, 21600, Note_on_c, 2, 78, 76
8, 21949, Note_on_c, 2, 78, 0
8, 21960, Note_on_c, 2, 74, 76
8, 22069, Note_on_c, 2, 74, 0
8, 22080, Note_on_c, 2, 73, 76
8, 22309, Note_on_c, 2, 73, 0
8, 22320, Note_on_c, 2, 73, 76
8, 22549, Note_on_c, 2, 73, 0
8, 22560, Note_on_c, 2, 73, 76
8, 23029, Note_on_c, 2, 73, 0
8, 23760, Note_on_c, 2, 70, 76
8, 24109, Note_on_c, 2, 70, 0
8, 24120, Note_on_c, 2, 76, 76
8, 24229, Note_on_c, 2, 76, 0
8, 24240, Note_on_c, 2, 74, 76
8, 24359, Note_on_c, 2, 74, 0
8, 24360, Note_on_c, 2, 73, 76
8, 24469, Note_on_c, 2, 73, 0
8, 24480, Note_on_c, 2, 71, 76
8, 24599, Note_on_c, 2, 71, 0
8, 24600, Note_on_c, 2, 70, 76
8, 24709, Note_on_c, 2, 70, 0
8, 24720, Note_on_c, 2, 71, 76
8, 25549, Note_on_c, 2, 71, 0
8, 25560, Note_on_c, 2, 69, 76
8, 25669, Note_on_c, 2, 69, 0
8, 25680, Note_on_c, 2, 71, 76
8, 25909, Note_on_c, 2, 71, 0
8, 25920, Note_on_c, 2, 68, 76
8, 26149, Note_on_c, 2, 68, 0
8, 26160, Note_on_c, 2, 69, 76
8, 26989, Note_on_c, 2, 69, 0
8, 27000, Note_on_c, 2, 67, 76
8, 27109, Note_on_c, 2, 67, 0
8, 27120, Note_on_c, 2, 69, 76
8, 27229, Note_on_c, 2, 69, 0
8, 27240, Note_on_c, 2, 71, 76
8, 27349, Note_on_c, 2, 71, 0
8, 27360, Note_on_c, 2, 72, 76
8, 27709, Note_on_c, 2, 72, 0
8, 27720, Note_on_c, 2, 69, 76
8, 27829, Note_on_c, 2, 69, 0
8, 27840, Note_on_c, 2, 74, 76
8, 27959, Note_on_c, 2, 74, 0
8, 27960, Note_on_c, 2, 72, 76
8, 28069, Note_on_c, 2, 72, 0
8, 28080, Note_on_c, 2, 71, 76
8, 28199, Note_on_c, 2, 71, 0
8, 28200, Note_on_c, 2, 69, 76
8, 28309, Note_on_c, 2, 69, 0
8, 28320, Note_on_c, 2, 67, 76
8, 28549, Note_on_c, 2, 67, 0
8, 28560, Note_on_c, 2, 62, 76
8, 28789, Note_on_c, 2, 62, 0
8, 28800, Note_on_c, 2, 67, 76
8, 29029, Note_on_c, 2, 67, 0
8, 29040, Note_on_c, 2, 79, 76
8, 29159, Note_on_c, 2, 79, 0
8, 29160, Note_on_c, 2, 78, 76
8, 29269, Note_on_c, 2, 78, 0
8, 29280, Note_on_c, 2, 76, 76
8, 29399, Note_on_c, 2, 76, 0
8, 29400, Note_on_c, 2, 74, 76
8, 29509, Note_on_c, 2, 74, 0
8, 29520, Note_on_c, 2, 76, 76
8, 29639, Note_on_c, 2, 76, 0
8, 29640, Note_on_c, 2, 73, 76
8, 29749, Note_on_c, 2, 73, 0
8, 29760, Note_on_c, 2, 70, 76
8, 29879, Note_on_c, 2, 70, 0
8, 29880, Note_on_c, 2, 73, 76
8, 29989, Note_on_c, 2, 73, 0
8, 30000, Note_on_c, 2, 71, 76
8, 30119, Note_on_c, 2, 71, 0
8, 30120, Note_on_c, 2, 73, 76
8, 30229, Note_on_c, 2, 73, 0
8, 30240, Note_on_c, 2, 75, 76
8, 30589, Note_on_c, 2, 75, 0
8, 30600, Note_on_c, 2, 76, 76
8, 30659, Note_on_c, 2, 76, 0
8, 30660, Note_on_c, 2, 78, 76
8, 30711, Note_on_c, 2, 78, 0
8, 30720, Note_on_c, 2, 71, 76
8, 31309, Note_on_c, 2, 71, 0
8, 31320, Note_on_c, 2, 76, 76
8, 31429, Note_on_c, 2, 76, 0
8, 31440, Note_on_c, 2, 70, 76
8, 31549, Note_on_c, 2, 70, 0
8, 31560, Note_on_c, 2, 71, 76
8, 31669, Note_on_c, 2, 71, 0
8, 31680, Note_on_c, 2, 73, 76
8, 32029, Note_on_c, 2, 73, 0
8, 32040, Note_on_c, 2, 67, 76
8, 32159, Note_on_c, 2, 67, 0
8, 32160, Note_on_c, 2, 66, 76
8, 32279, Note_on_c, 2, 66, 0
8, 32280, Note_on_c, 2, 64, 76
8, 32389, Note_on_c, 2, 64, 0
8, 32400, Note_on_c, 2, 73, 76
8, 32629, Note_on_c, 2, 73, 0
8, 32640, Note_on_c, 2, 66, 76
8, 32869, Note_on_c, 2, 66, 0
8, 32880, Note_on_c, 2, 59, 76
8, 32999, Note_on_c, 2, 59, 0
8, 33000, Note_on_c, 2, 61, 76
8, 33109, Note_on_c, 2, 61, 0
8, 33120, Note_on_c, 2, 62, 76
8, 33239, Note_on_c, 2, 62, 0
8, 33240, Note_on_c, 2, 66, 76
8, 33349, Note_on_c, 2, 66, 0
8, 33360, Note_on_c, 2, 64, 76
8, 33469, Note_on_c, 2, 64, 0
8, 33480, Note_on_c, 2, 67, 76
8, 33589, Note_on_c, 2, 67, 0
8, 33600, Note_on_c, 2, 66, 76
8, 33829, Note_on_c, 2, 66, 0
8, 33840, Note_on_c, 2, 66, 76
8, 34069, Note_on_c, 2, 66, 0
8, 34080, Note_on_c, 2, 66, 76
8, 34549, Note_on_c, 2, 66, 0
8, 35280, Note_on_c, 2, 70, 76
8, 35629, Note_on_c, 2, 70, 0
8, 35640, Note_on_c, 2, 76, 76
8, 35749, Note_on_c, 2, 76, 0
8, 35760, Note_on_c, 2, 74, 76
8, 35879, Note_on_c, 2, 74, 0
8, 35880, Note_on_c, 2, 73, 76
8, 35989, Note_on_c, 2, 73, 0
8, 36000, Note_on_c, 2, 71, 76
8, 36119, Note_on_c, 2, 71, 0
8, 36120, Note_on_c, 2, 70, 76
8, 36229, Note_on_c, 2, 70, 0
8, 36240, Note_on_c, 2, 71, 76
8, 37069, Note_on_c, 2, 71, 0
8, 37080, Note_on_c, 2, 69, 76
8, 37189, Note_on_c, 2, 69, 0
8, 37200, Note_on_c, 2, 71, 76
8, 37429, Note_on_c, 2, 71, 0
8, 37440, Note_on_c, 2, 68, 76
8, 37669, Note_on_c, 2, 68, 0
8, 37680, Note_on_c, 2, 69, 76
8, 38509, Note_on_c, 2, 69, 0
8, 38520, Note_on_c, 2, 67, 76
8, 38629, Note_on_c, 2, 67, 0
8, 38640, Note_on_c, 2, 69, 76
8, 38749, Note_on_c, 2, 69, 0
8, 38760, Note_on_c, 2, 71, 76
8, 38869, Note_on_c, 2, 71, 0
8, 38880, Note_on_c, 2, 72, 76
8, 39229, Note_on_c, 2, 72, 0
8, 39240, Note_on_c, 2, 69, 76
8, 39349, Note_on_c, 2, 69, 0
8, 39360, Note_on_c, 2, 74, 76
8, 39479, Note_on_c, 2, 74, 0
8, 39480, Note_on_c, 2, 72, 76
8, 39589, Note_on_c, 2, 72, 0
8, 39600, Note_on_c, 2, 71, 76
8, 39719, Note_on_c, 2, 71, 0
8, 39720, Note_on_c, 2, 69, 76
8, 39829, Note_on_c, 2, 69, 0
8, 39840, Note_on_c, 2, 67, 76
8, 40069, Note_on_c, 2, 67, 0
8, 40080, Note_on_c, 2, 62, 76
8, 40309, Note_on_c, 2, 62, 0
8, 40320, Note_on_c, 2, 67, 76
8, 40549, Note_on_c, 2, 67, 0
8, 40560, Note_on_c, 2, 79, 76
8, 40679, Note_on_c, 2, 79, 0
8, 40680, Note_on_c, 2, 78, 76
8, 40789, Note_on_c, 2, 78, 0
8, 40800, Note_on_c, 2, 76, 76
8, 40919, Note_on_c, 2, 76, 0
8, 40920, Note_on_c, 2, 74, 76
8, 41029, Note_on_c, 2, 74, 0
8, 41040, Note_on_c, 2, 76, 76
8, 41159, Note_on_c, 2, 76, 0
8, 41160, Note_on_c, 2, 73, 76
8, 41269, Note_on_c, 2, 73, 0
8, 41280, Note_on_c, 2, 70, 76
8, 41399, Note_on_c, 2, 70, 0
8, 41400, Note_on_c, 2, 73, 76
8, 41509, Note_on_c, 2, 73, 0
8, 41520, Note_on_c, 2, 71, 76
8, 41639, Note_on_c, 2, 71, 0
8, 41640, Note_on_c, 2, 73, 76
8, 41749, Note_on_c, 2, 73, 0
8, 41760, Note_on_c, 2, 75, 76
8, 42109, Note_on_c, 2, 75, 0
8, 42120, Note_on_c, 2, 76, 76
8, 42179, Note_on_c, 2, 76, 0
8, 42180, Note_on_c, 2, 78, 76
8, 42231, Note_on_c, 2, 78, 0
8, 42240, Note_on_c, 2, 71, 76
8, 42829, Note_on_c, 2, 71, 0
8, 42840, Note_on_c, 2, 76, 76
8, 42949, Note_on_c, 2, 76, 0
8, 42960, Note_on_c, 2, 70, 76
8, 43069, Note_on_c, 2, 70, 0
8, 43080, Note_on_c, 2, 71, 76
8, 43189, Note_on_c, 2, 71, 0
8, 43200, Note_on_c, 2, 73, 76
8, 43549, Note_on_c, 2, 73, 0
8, 43560, Note_on_c, 2, 67, 76
8, 43679, Note_on_c, 2, 67, 0
8, 43680, Note_on_c, 2, 66, 76
8, 43799, Note_on_c, 2, 66, 0
8, 43800, Note_on_c, 2, 64, 76
8, 43909, Note_on_c, 2, 64, 0
8, 43920, Note_on_c, 2, 73, 76
8, 44149, Note_on_c, 2, 73, 0
8, 44160, Note_on_c, 2, 66, 76
8, 44389, Note_on_c, 2, 66, 0
8, 44400, Note_on_c, 2, 59, 76
8, 44519, Note_on_c, 2, 59, 0
8, 44520, Note_on_c, 2, 61, 76
8, 44629, Note_on_c, 2, 61, 0
8, 44640, Note_on_c, 2, 62, 76
8, 44759, Note_on_c, 2, 62, 0
8, 44760, Note_on_c, 2, 66, 76
8, 44869, Note_on_c, 2, 66, 0
8, 44880, Note_on_c, 2, 64, 76
8, 44989, Note_on_c, 2, 64, 0
8, 45000, Note_on_c, 2, 67, 76
8, 45109, Note_on_c, 2, 67, 0
8, 45120, Note_on_c, 2, 66, 76
8, 45349, Note_on_c, 2, 66, 0
8, 45360, Note_on_c, 2, 66, 76
8, 45589, Note_on_c, 2, 66, 0
8, 45600, Note_on_c, 2, 66, 76
8, 46069, Note_on_c, 2, 66, 0
8, 46069, End_track
9, 0, Start_track
9, 0, Title_t, "Viola"
9, 0, MIDI_port, 0
9, 0, Program_c, 3, 48
9, 0, Control_c, 3, 10, 70
9, 0, Control_c, 3, 11, 127
9, 0, Control_c, 3, 7, 96
9, 720, Note_on_c, 3, 62, 76
9, 1069, Note_on_c, 3, 62, 0
9, 1080, Note_on_c, 3, 61, 76
9, 1189, Note_on_c, 3, 61, 0
9, 1200, Note_on_c, 3, 59, 76
9, 1909, Note_on_c, 3, 59, 0
9, 1920, Note_on_c, 3, 61, 76
9, 2029, Note_on_c, 3, 61, 0
9, 2040, Note_on_c, 3, 62, 76
9, 2149, Note_on_c, 3, 62, 0
9, 2160, Note_on_c, 3, 64, 76
9, 2629, Note_on_c, 3, 64, 0
9, 2640, Note_on_c, 3, 58, 76
9, 2869, Note_on_c, 3, 58, 0
9, 2880, Note_on_c, 3, 66, 76
9, 3109, Note_on_c, 3, 66, 0
9, 3120, Note_on_c, 3, 59, 76
9, 3349, Note_on_c, 3, 59, 0
9, 3360, Note_on_c, 3, 58, 76
9, 3589, Note_on_c, 3, 58, 0
9, 3600, Note_on_c, 3, 66, 76
9, 3949, Note_on_c, 3, 66, 0
9, 3960, Note_on_c, 3, 67, 76
9, 4069, Note_on_c, 3, 67, 0
9, 4080, Note_on_c, 3, 69, 76
9, 4309, Note_on_c, 3, 69, 0
9, 4320, Note_on_c, 3, 63, 76
9, 4549, Note_on_c, 3, 63, 0
9, 4560, Note_on_c, 3, 67, 76
9, 4789, Note_on_c, 3, 67, 0
9, 4800, Note_on_c, 3, 66, 76
9, 5029, Note_on_c, 3, 66, 0
9, 5040, Note_on_c, 3, 71, 76
9, 5269, Note_on_c, 3, 71, 0
9, 5280, Note_on_c, 3, 64, 76
9, 5509, Note_on_c, 3, 64, 0
9, 5520, Note_on_c, 3, 64, 76
9, 5989, Note_on_c, 3, 64, 0
9, 6000, Note_on_c, 3, 64, 76
9, 6229, Note_on_c, 3, 64, 0
9, 6240, Note_on_c, 3, 64, 76
9, 6254, Note_on_c, 3, 64, 0
9, 6255, Note_on_c, 3, 66, 76
9, 6269, Note_on_c, 3, 66, 0
9, 6270, Note_on_c, 3, 64, 76
9, 6284, Note_on_c, 3, 64, 0
9, 6285, Note_on_c, 3, 66, 76
9, 6299, Note_on_c, 3, 66, 0
9, 6300, Note_on_c, 3, 64, 76
9, 6314, Note_on_c, 3, 64, 0
9, 6315, Note_on_c, 3, 66, 76
9, 6329, Note_on_c, 3, 66, 0
9, 6330, Note_on_c, 3, 64, 76
9, 6344, Note_on_c, 3, 64, 0
9, 6345, Note_on_c, 3, 66, 76
9, 6359, Note_on_c, 3, 66, 0
9, 6360, Note_on_c, 3, 64, 76
9, 6374, Note_on_c, 3, 64, 0
9, 6375, Note_on_c, 3, 66, 76
9, 6389, Note_on_c, 3, 66, 0
9, 6390, Note_on_c, 3, 64, 76
9, 6404, Note_on_c, 3, 64, 0
9, 6405, Note_on_c, 3, 66, 76
9, 6419, Note_on_c, 3, 66, 0
9, 6420, Note_on_c, 3, 64, 76
9, 6434, Note_on_c, 3, 64, 0
9, 6435, Note_on_c, 3, 66, 76
9, 6449, Note_on_c, 3, 66, 0
9, 6450, Note_on_c, 3, 64, 76
9, 6464, Note_on_c, 3, 64, 0
9, 6465, Note_on_c, 3, 66, 76
9, 6479, Note_on_c, 3, 66, 0
9, 6480, Note_on_c, 3, 64, 76
9, 6494, Note_on_c, 3, 64, 0
9, 6495, Note_on_c, 3, 66, 76
9, 6509, Note_on_c, 3, 66, 0
9, 6510, Note_on_c, 3, 64, 76
9, 6524, Note_on_c, 3, 64, 0
9, 6525, Note_on_c, 3, 66, 76
9, 6539, Note_on_c, 3, 66, 0
9, 6540, Note_on_c, 3, 64, 76
9, 6554, Note_on_c, 3, 64, 0
9, 6555, Note_on_c, 3, 66, 76
9, 6569, Note_on_c, 3, 66, 0
9, 6570, Note_on_c, 3, 64, 76
9, 6584, Note_on_c, 3, 64, 0
9, 6585, Note_on_c, 3, 66, 76
9, 6599, Note_on_c, 3, 66, 0
9, 6600, Note_on_c, 3, 62, 76
9, 6651, Note_on_c, 3, 62, 0
9, 6660, Note_on_c, 3, 64, 76
9, 6711, Note_on_c, 3, 64, 0
9, 6720, Note_on_c, 3, 66, 76
9, 6949, Note_on_c, 3, 66, 0
9, 6960, Note_on_c, 3, 59, 76
9, 7189, Note_on_c, 3, 59, 0
9, 7200, Note_on_c, 3, 64, 76
9, 7309, Note_on_c, 3, 64, 0
9, 7320, Note_on_c, 3, 66, 76
9, 7429, Note_on_c, 3, 66, 0
9, 7440, Note_on_c, 3, 67, 76
9, 7909, Note_on_c, 3, 67, 0
9, 7920, Note_on_c, 3, 66, 76
9, 8029, Note_on_c, 3, 66, 0
9, 8040, Note_on_c, 3, 68, 76
9, 8149, Note_on_c, 3, 68, 0
9, 8160, Note_on_c, 3, 70, 76
9, 8389, Note_on_c, 3, 70, 0
9, 8400, Note_on_c, 3, 66, 76
9, 8509, Note_on_c, 3, 66, 0
9, 8520, Note_on_c, 3, 64, 76
9, 8629, Note_on_c, 3, 64, 0
9, 8640, Note_on_c, 3, 63, 76
9, 8749, Note_on_c, 3, 63, 0
9, 8760, Note_on_c, 3, 61, 76
9, 8869, Note_on_c, 3, 61, 0
9, 8880, Note_on_c, 3, 63, 76
9, 9109, Note_on_c, 3, 63, 0
9, 9120, Note_on_c, 3, 65, 76
9, 9349, Note_on_c, 3, 65, 0
9, 9360, Note_on_c, 3, 74, 76
9, 9589, Note_on_c, 3, 74, 0
9, 9600, Note_on_c, 3, 73, 76
9, 9829, Note_on_c, 3, 73, 0
9, 9840, Note_on_c, 3, 61, 76
9, 10189, Note_on_c, 3, 61, 0
9, 10200, Note_on_c, 3, 73, 76
9, 10309, Note_on_c, 3, 73, 0
9, 10320, Note_on_c, 3, 66, 76
9, 10429, Note_on_c, 3, 66, 0
9, 10440, Note_on_c, 3, 71, 76
9, 10549, Note_on_c, 3, 71, 0
9, 10560, Note_on_c, 3, 68, 76
9, 10574, Note_on_c, 3, 68, 0
9, 10575, Note_on_c, 3, 69, 76
9, 10589, Note_on_c, 3, 69, 0
9, 10590, Note_on_c, 3, 68, 76
9, 10604, Note_on_c, 3, 68, 0
9, 10605, Note_on_c, 3, 69, 76
9, 10619, Note_on_c, 3, 69, 0
9, 10620, Note_on_c, 3, 68, 76
9, 10634, Note_on_c, 3, 68, 0
9, 10635, Note_on_c, 3, 69, 76
9, 10649, Note_on_c, 3, 69, 0
9, 10650, Note_on_c, 3, 68, 76
9, 10664, Note_on_c, 3, 68, 0
9, 10665, Note_on_c, 3, 69, 76
9, 10679, Note_on_c, 3, 69, 0
9, 10680, Note_on_c, 3, 68, 76
9, 10694, Note_on_c, 3, 68, 0
9, 10695, Note_on_c, 3, 69, 76
9, 10709, Note_on_c, 3, 69, 0
9, 10710, Note_on_c, 3, 68, 76
9, 10724, Note_on_c, 3, 68, 0
9, 10725, Note_on_c, 3, 69, 76
9, 10739, Note_on_c, 3, 69, 0
9, 10740, Note_on_c, 3, 68, 76
9, 10754, Note_on_c, 3, 68, 0
9, 10755, Note_on_c, 3, 69, 76
9, 10769, Note_on_c, 3, 69, 0
9, 10770, Note_on_c, 3, 68, 76
9, 10784, Note_on_c, 3, 68, 0
9, 10785, Note_on_c, 3, 69, 76
9, 10799, Note_on_c, 3, 69, 0
9, 10800, Note_on_c, 3, 68, 76
9, 10814, Note_on_c, 3, 68, 0
9, 10815, Note_on_c, 3, 69, 76
9, 10829, Note_on_c, 3, 69, 0
9, 10830, Note_on_c, 3, 68, 76
9, 10844, Note_on_c, 3, 68, 0
9, 10845, Note_on_c, 3, 69, 76
9, 10859, Note_on_c, 3, 69, 0
9, 10860, Note_on_c, 3, 68, 76
9, 10874, Note_on_c, 3, 68, 0
9, 10875, Note_on_c, 3, 69, 76
9, 10889, Note_on_c, 3, 69, 0
9, 10890, Note_on_c, 3, 66, 76
9, 10904, Note_on_c, 3, 66, 0
9, 10905, Note_on_c, 3, 68, 76
9, 10919, Note_on_c, 3, 68, 0
9, 10920, Note_on_c, 3, 70, 76
9, 11029, Note_on_c, 3, 70, 0
9, 11040, Note_on_c, 3, 70, 76
9, 11509, Note_on_c, 3, 70, 0
9, 12240, Note_on_c, 3, 62, 76
9, 12589, Note_on_c, 3, 62, 0
9, 12600, Note_on_c, 3, 61, 76
9, 12709, Note_on_c, 3, 61, 0
9, 12720, Note_on_c, 3, 59, 76
9, 13429, Note_on_c, 3, 59, 0
9, 13440, Note_on_c, 3, 61, 76
9, 13549, Note_on_c, 3, 61, 0
9, 13560, Note_on_c, 3, 62, 76
9, 13669, Note_on_c, 3, 62, 0
9, 13680, Note_on_c, 3, 64, 76
9, 14149, Note_on_c, 3, 64, 0
9, 14160, Note_on_c, 3, 58, 76
9, 14389, Note_on_c, 3, 58, 0
9, 14400, Note_on_c, 3, 66, 76
9, 14629, Note_on_c, 3, 66, 0
9, 14640, Note_on_c, 3, 59, 76
9, 14869, Note_on_c, 3, 59, 0
9, 14880, Note_on_c, 3, 58, 76
9, 15109, Note_on_c, 3, 58, 0
9, 15120, Note_on_c, 3, 66, 76
9, 15469, Note_on_c, 3, 66, 0
9, 15480, Note_on_c, 3, 67, 76
9, 15589, Note_on_c, 3, 67, 0
9, 15600, Note_on_c, 3, 69, 76
9, 15829, Note_on_c, 3, 69, 0
9, 15840, Note_on_c, 3, 63, 76
9, 16069, Note_on_c, 3, 63, 0
9, 16080, Note_on_c, 3, 67, 76
9, 16309, Note_on_c, 3, 67, 0
9, 16320, Note_on_c, 3, 66, 76
9, 16549, Note_on_c, 3, 66, 0
9, 16560, Note_on_c, 3, 71, 76
9, 16789, Note_on_c, 3, 71, 0
9, 16800, Note_on_c, 3, 64, 76
9, 17029, Note_on_c, 3, 64, 0
9, 17040, Note_on_c, 3, 64, 76
9, 17509, Note_on_c, 3, 64, 0
9, 17520, Note_on_c, 3, 64, 76
9, 17749, Note_on_c, 3, 64, 0
9, 17760, Note_on_c, 3, 64, 76
9, 17774, Note_on_c, 3, 64, 0
9, 17775, Note_on_c, 3, 66, 76
9, 17789, Note_on_c, 3, 66, 0
9, 17790, Note_on_c, 3, 64, 76
9, 17804, Note_on_c, 3, 64, 0
9, 17805, Note_on_c, 3, 66, 76
9, 17819, Note_on_c, 3, 66, 0
9, 17820, Note_on_c, 3, 64, 76
9, 17834, Note_on_c, 3, 64, 0
9, 17835, Note_on_c, 3, 66, 76
9, 17849, Note_on_c, 3, 66, 0
9, 17850, Note_on_c, 3, 64, 76
9, 17864, Note_on_c, 3, 64, 0
9, 17865, Note_on_c, 3, 66, 76
9, 17879, Note_on_c, 3, 66, 0
9, 17880, Note_on_c, 3, 64, 76
9, 17894, Note_on_c, 3, 64, 0
9, 17895, Note_on_c, 3, 66, 76
9, 17909, Note_on_c, 3, 66, 0
9, 17910, Note_on_c, 3, 64, 76
9, 17924, Note_on_c, 3, 64, 0
9, 17925, Note_on_c, 3, 66, 76
9, 17939, Note_on_c, 3, 66, 0
9, 17940, Note_on_c, 3, 64, 76
9, 17954, Note_on_c, 3, 64, 0
9, 17955, Note_on_c, 3, 66, 76
9, 17969, Note_on_c, 3, 66, 0
9, 17970, Note_on_c, 3, 64, 76
9, 17984, Note_on_c, 3, 64, 0
9, 17985, Note_on_c, 3, 66, 76
9, 17999, Note_on_c, 3, 66, 0
9, 18000, Note_on_c, 3, 64, 76
9, 18014, Note_on_c, 3, 64, 0
9, 18015, Note_on_c, 3, 66, 76
9, 18029, Note_on_c, 3, 66, 0
9, 18030, Note_on_c, 3, 64, 76
9, 18044, Note_on_c, 3, 64, 0
9, 18045, Note_on_c, 3, 66, 76
9, 18059, Note_on_c, 3, 66, 0
9, 18060, Note_on_c, 3, 64, 76
9, 18074, Note_on_c, 3, 64, 0
9, 18075, Note_on_c, 3, 66, 76
9, 18089, Note_on_c, 3, 66, 0
9, 18090, Note_on_c, 3, 64, 76
9, 18104, Note_on_c, 3, 64, 0
9, 18105, Note_on_c, 3, 66, 76
9, 18119, Note_on_c, 3, 66, 0
9, 18120, Note_on_c, 3, 62, 76
9, 18171, Note_on_c, 3, 62, 0
9, 18180, Note_on_c, 3, 64, 76
9, 18231, Note_on_c, 3, 64, 0
9, 18240, Note_on_c, 3, 66, 76
9, 18469, Note_on_c, 3, 66, 0
9, 18480, Note_on_c, 3, 59, 76
9, 18709, Note_on_c, 3, 59, 0
9, 18720, Note_on_c, 3, 64, 76
9, 18829, Note_on_c, 3, 64, 0
9, 18840, Note_on_c, 3, 66, 76
9, 18949, Note_on_c, 3, 66, 0
9, 18960, Note_on_c, 3, 67, 76
9, 19429, Note_on_c, 3, 67, 0
9, 19440, Note_on_c, 3, 66, 76
9, 19549, Note_on_c, 3, 66, 0
9, 19560, Note_on_c, 3, 68, 76
9, 19669, Note_on_c, 3, 68, 0
9, 19680, Note_on_c, 3, 70, 76
9, 19909, Note_on_c, 3, 70, 0
9, 19920, Note_on_c, 3, 66, 76
9, 20029, Note_on_c, 3, 66, 0
9, 20040, Note_on_c, 3, 64, 76
9, 20149, Note_on_c, 3, 64, 0
9, 20160, Note_on_c, 3, 63, 76
9, 20269, Note_on_c, 3, 63, 0
9, 20280, Note_on_c, 3, 61, 76
9, 20389, Note_on_c, 3, 61, 0
9, 20400, Note_on_c, 3, 63, 76
9, 20629, Note_on_c, 3, 63, 0
9, 20640, Note_on_c, 3, 65, 76
9, 20869, Note_on_c, 3, 65, 0
9, 20880, Note_on_c, 3, 74, 76
9, 21109, Note_on_c, 3, 74, 0
9, 21120, Note_on_c, 3, 73, 76
9, 21349, Note_on_c, 3, 73, 0
9, 21360, Note_on_c, 3, 61, 76
9, 21709, Note_on_c, 3, 61, 0
9, 21720, Note_on_c, 3, 73, 76
9, 21829, Note_on_c, 3, 73, 0
9, 21840, Note_on_c, 3, 66, 76
9, 21949, Note_on_c, 3, 66, 0
9, 21960, Note_on_c, 3, 71, 76
9, 22069, Note_on_c, 3, 71, 0
9, 22080, Note_on_c, 3, 68, 76
9, 22094, Note_on_c, 3, 68, 0
9, 22095, Note_on_c, 3, 69, 76
9, 22109, Note_on_c, 3, 69, 0
9, 22110, Note_on_c, 3, 68, 76
9, 22124, Note_on_c, 3, 68, 0
9, 22125, Note_on_c, 3, 69, 76
9, 22139, Note_on_c, 3, 69, 0
9, 22140, Note_on_c, 3, 68, 76
9, 22154, Note_on_c, 3, 68, 0
9, 22155, Note_on_c, 3, 69, 76
9, 22169, Note_on_c, 3, 69, 0
9, 22170, Note_on_c, 3, 68, 76
9, 22184, Note_on_c, 3, 68, 0
9, 22185, Note_on_c, 3, 69, 76
9, 22199, Note_on_c, 3, 69, 0
9, 22200, Note_on_c, 3, 68, 76
9, 22214, Note_on_c, 3, 68, 0
9, 22215, Note_on_c, 3, 69, 76
9, 22229, Note_on_c, 3, 69, 0
9, 22230, Note_on_c, 3, 68, 76
9, 22244, Note_on_c, 3, 68, 0
9, 22245, Note_on_c, 3, 69, 76
9, 22259, Note_on_c, 3, 69, 0
9, 22260, Note_on_c, 3, 68, 76
9, 22274, Note_on_c, 3, 68, 0
9, 22275, Note_on_c, 3, 69, 76
9, 22289, Note_on_c, 3, 69, 0
9, 22290, Note_on_c, 3, 68, 76
9, 22304, Note_on_c, 3, 68, 0
9, 22305, Note_on_c, 3, 69, 76
9, 22319, Note_on_c, 3, 69, 0
9, 22320, Note_on_c, 3, 68, 76
9, 22334, Note_on_c, 3, 68, 0
9, 22335, Note_on_c, 3, 69, 76
9, 22349, Note_on_c, 3, 69, 0
9, 22350, Note_on_c, 3, 68, 76
9, 22364, Note_on_c, 3, 68, 0
9, 22365, Note_on_c, 3, 69, 76
9, 22379, Note_on_c, 3, 69, 0
9, 22380, Note_on_c, 3, 68, 76
9, 22394, Note_on_c, 3, 68, 0
9, 22395, Note_on_c, 3, 69, 76
9, 22409, Note_on_c, 3, 69, 0
9, 22410, Note_on_c, 3, 66, 76
9, 22424, Note_on_c, 3, 66, 0
9, 22425, Note_on_c, 3, 68, 76
9, 22439, Note_on_c, 3, 68, 0
9, 22440, Note_on_c, 3, 70, 76
9, 22549, Note_on_c, 3, 70, 0
9, 22560, Note_on_c, 3, 70, 76
9, 23029, Note_on_c, 3, 70, 0
9, 23760, Note_on_c, 3, 66, 76
9, 24109, Note_on_c, 3, 66, 0
9, 24120, Note_on_c, 3, 67, 76
9, 24229, Note_on_c, 3, 67, 0
9, 24240, Note_on_c, 3, 66, 76
9, 24349, Note_on_c, 3, 66, 0
9, 24360, Note_on_c, 3, 64, 76
9, 24469, Note_on_c, 3, 64, 0
9, 24480, Note_on_c, 3, 62, 76
9, 24589, Note_on_c, 3, 62, 0
9, 24600, Note_on_c, 3, 61, 76
9, 24709, Note_on_c, 3, 61, 0
9, 24720, Note_on_c, 3, 59, 76
9, 24949, Note_on_c, 3, 59, 0
9, 24960, Note_on_c, 3, 54, 76
9, 25189, Note_on_c, 3, 54, 0
9, 25200, Note_on_c, 3, 66, 76
9, 25429, Note_on_c, 3, 66, 0
9, 25440, Note_on_c, 3, 64, 76
9, 26269, Note_on_c, 3, 64, 0
9, 26280, Note_on_c, 3, 66, 76
9, 26389, Note_on_c, 3, 66, 0
9, 26400, Note_on_c, 3, 64, 76
9, 26509, Note_on_c, 3, 64, 0
9, 26520, Note_on_c, 3, 62, 76
9, 26629, Note_on_c, 3, 62, 0
9, 26640, Note_on_c, 3, 61, 76
9, 26749, Note_on_c, 3, 61, 0
9, 26760, Note_on_c, 3, 59, 76
9, 26869, Note_on_c, 3, 59, 0
9, 26880, Note_on_c, 3, 61, 76
9, 27109, Note_on_c, 3, 61, 0
9, 27120, Note_on_c, 3, 62, 76
9, 27469, Note_on_c, 3, 62, 0
9, 27480, Note_on_c, 3, 57, 76
9, 27589, Note_on_c, 3, 57, 0
9, 27600, Note_on_c, 3, 69, 76
9, 28069, Note_on_c, 3, 69, 0
9, 28080, Note_on_c, 3, 66, 76
9, 28309, Note_on_c, 3, 66, 0
9, 28320, Note_on_c, 3, 62, 76
9, 28909, Note_on_c, 3, 62, 0
9, 28920, Note_on_c, 3, 59, 76
9, 29029, Note_on_c, 3, 59, 0
9, 29040, Note_on_c, 3, 61, 76
9, 29149, Note_on_c, 3, 61, 0
9, 29160, Note_on_c, 3, 62, 76
9, 29269, Note_on_c, 3, 62, 0
9, 29280, Note_on_c, 3, 64, 76
9, 29389, Note_on_c, 3, 64, 0
9, 29400, Note_on_c, 3, 66, 76
9, 29509, Note_on_c, 3, 66, 0
9, 29520, Note_on_c, 3, 67, 76
9, 29749, Note_on_c, 3, 67, 0
9, 29760, Note_on_c, 3, 61, 76
9, 29989, Note_on_c, 3, 61, 0
9, 30000, Note_on_c, 3, 66, 76
9, 30589, Note_on_c, 3, 66, 0
9, 30600, Note_on_c, 3, 64, 76
9, 30659, Note_on_c, 3, 64, 0
9, 30660, Note_on_c, 3, 63, 76
9, 30711, Note_on_c, 3, 63, 0
9, 30720, Note_on_c, 3, 64, 76
9, 30949, Note_on_c, 3, 64, 0
9, 30960, Note_on_c, 3, 66, 76
9, 31189, Note_on_c, 3, 66, 0
9, 31200, Note_on_c, 3, 67, 76
9, 31789, Note_on_c, 3, 67, 0
9, 31800, Note_on_c, 3, 64, 76
9, 31909, Note_on_c, 3, 64, 0
9, 31920, Note_on_c, 3, 61, 76
9, 32149, Note_on_c, 3, 61, 0
9, 32160, Note_on_c, 3, 62, 76
9, 32269, Note_on_c, 3, 62, 0
9, 32280, Note_on_c, 3, 64, 76
9, 32389, Note_on_c, 3, 64, 0
9, 32400, Note_on_c, 3, 58, 76
9, 32629, Note_on_c, 3, 58, 0
9, 32640, Note_on_c, 3, 59, 76
9, 32749, Note_on_c, 3, 59, 0
9, 32760, Note_on_c, 3, 61, 76
9, 32869, Note_on_c, 3, 61, 0
9, 32880, Note_on_c, 3, 62, 76
9, 32989, Note_on_c, 3, 62, 0
9, 33000, Note_on_c, 3, 64, 76
9, 33109, Note_on_c, 3, 64, 0
9, 33120, Note_on_c, 3, 62, 76
9, 33469, Note_on_c, 3, 62, 0
9, 33480, Note_on_c, 3, 64, 76
9, 33589, Note_on_c, 3, 64, 0
9, 33600, Note_on_c, 3, 58, 76
9, 33829, Note_on_c, 3, 58, 0
9, 33840, Note_on_c, 3, 58, 76
9, 34069, Note_on_c, 3, 58, 0
9, 34080, Note_on_c, 3, 62, 76
9, 34549, Note_on_c, 3, 62, 0
9, 35280, Note_on_c, 3, 66, 76
9, 35629, Note_on_c, 3, 66, 0
9, 35640, Note_on_c, 3, 67, 76
9, 35749, Note_on_c, 3, 67, 0
9, 35760, Note_on_c, 3, 66, 76
9, 35869, Note_on_c, 3, 66, 0
9, 35880, Note_on_c, 3, 64, 76
9, 35989, Note_on_c, 3, 64, 0
9, 36000, Note_on_c, 3, 62, 76
9, 36109, Note_on_c, 3, 62, 0
9, 36120, Note_on_c, 3, 61, 76
9, 36229, Note_on_c, 3, 61, 0
9, 36240, Note_on_c, 3, 59, 76
9, 36469, Note_on_c, 3, 59, 0
9, 36480, Note_on_c, 3, 54, 76
9, 36709, Note_on_c, 3, 54, 0
9, 36720, Note_on_c, 3, 66, 76
9, 36949, Note_on_c, 3, 66, 0
9, 36960, Note_on_c, 3, 64, 76
9, 37789, Note_on_c, 3, 64, 0
9, 37800, Note_on_c, 3, 66, 76
9, 37909, Note_on_c, 3, 66, 0
9, 37920, Note_on_c, 3, 64, 76
9, 38029, Note_on_c, 3, 64, 0
9, 38040, Note_on_c, 3, 62, 76
9, 38149, Note_on_c, 3, 62, 0
9, 38160, Note_on_c, 3, 61, 76
9, 38269, Note_on_c, 3, 61, 0
9, 38280, Note_on_c, 3, 59, 76
9, 38389, Note_on_c, 3, 59, 0
9, 38400, Note_on_c, 3, 61, 76
9, 38629, Note_on_c, 3, 61, 0
9, 38640, Note_on_c, 3, 62, 76
9, 38989, Note_on_c, 3, 62, 0
9, 39000, Note_on_c, 3, 57, 76
9, 39109, Note_on_c, 3, 57, 0
9, 39120, Note_on_c, 3, 69, 76
9, 39589, Note_on_c, 3, 69, 0
9, 39600, Note_on_c, 3, 66, 76
9, 39829, Note_on_c, 3, 66, 0
9, 39840, Note_on_c, 3, 62, 76
9, 40429, Note_on_c, 3, 62, 0
9, 40440, Note_on_c, 3, 59, 76
9, 40549, Note_on_c, 3, 59, 0
9, 40560, Note_on_c, 3, 61, 76
9, 40669, Note_on_c, 3, 61, 0
9, 40680, Note_on_c, 3, 62, 76
9, 40789, Note_on_c, 3, 62, 0
9, 40800, Note_on_c, 3, 64, 76
9, 40909, Note_on_c, 3, 64, 0
9, 40920, Note_on_c, 3, 66, 76
9, 41029, Note_on_c, 3, 66, 0
9, 41040, Note_on_c, 3, 67, 76
9, 41269, Note_on_c, 3, 67, 0
9, 41280, Note_on_c, 3, 61, 76
9, 41509, Note_on_c, 3, 61, 0
9, 41520, Note_on_c, 3, 66, 76
9, 42109, Note_on_c, 3, 66, 0
9, 42120, Note_on_c, 3, 64, 76
9, 42179, Note_on_c, 3, 64, 0
9, 42180, Note_on_c, 3, 63, 76
9, 42231, Note_on_c, 3, 63, 0
9, 42240, Note_on_c, 3, 64, 76
9, 42469, Note_on_c, 3, 64, 0
9, 42480, Note_on_c, 3, 66, 76
9, 42709, Note_on_c, 3, 66, 0
9, 42720, Note_on_c, 3, 67, 76
9, 43309, Note_on_c, 3, 67, 0
9, 43320, Note_on_c, 3, 64, 76
9, 43429, Note_on_c, 3, 64, 0
9, 43440, Note_on_c, 3, 61, 76
9, 43669, Note_on_c, 3, 61, 0
9, 43680, Note_on_c, 3, 62, 76
9, 43789, Note_on_c, 3, 62, 0
9, 43800, Note_on_c, 3, 64, 76
9, 43909, Note_on_c, 3, 64, 0
9, 43920, Note_on_c, 3, 58, 76
9, 44149, Note_on_c, 3, 58, 0
9, 44160, Note_on_c, 3, 59, 76
9, 44269, Note_on_c, 3, 59, 0
9, 44280, Note_on_c, 3, 61, 76
9, 44389, Note_on_c, 3, 61, 0
9, 44400, Note_on_c, 3, 62, 76
9, 44509, Note_on_c, 3, 62, 0
9, 44520, Note_on_c, 3, 64, 76
9, 44629, Note_on_c, 3, 64, 0
9, 44640, Note_on_c, 3, 62, 76
9, 44989, Note_on_c, 3, 62, 0
9, 45000, Note_on_c, 3, 64, 76
9, 45109, Note_on_c, 3, 64, 0
9, 45120, Note_on_c, 3, 58, 76
9, 45349, Note_on_c, 3, 58, 0
9, 45360, Note_on_c, 3, 58, 76
9, 45589, Note_on_c, 3, 58, 0
9, 45600, Note_on_c, 3, 62, 76
9, 46069, Note_on_c, 3, 62, 0
9, 46069, End_track
10, 0, Start_track
10, 0, Title_t, "Cello"
10, 0, MIDI_port, 0
10, 0, Program_c, 4, 48
10, 0, Control_c, 4, 10, 90
10, 0, Control_c, 4, 11, 127
10, 0, Control_c, 4, 7, 96
10, 720, Note_on_c, 4, 59, 76
10, 944, Note_on_c, 4, 59, 0
10, 960, Note_on_c, 4, 55, 76
10, 1304, Note_on_c, 4, 55, 0
10, 1320, Note_on_c, 4, 57, 76
10, 1424, Note_on_c, 4, 57, 0
10, 1440, Note_on_c, 4, 59, 76
10, 1664, Note_on_c, 4, 59, 0
10, 1680, Note_on_c, 4, 52, 76
10, 1904, Note_on_c, 4, 52, 0
10, 1920, Note_on_c, 4, 57, 76
10, 2144, Note_on_c, 4, 57, 0
10, 2160, Note_on_c, 4, 55, 76
10, 2624, Note_on_c, 4, 55, 0
10, 2640, Note_on_c, 4, 54, 76
10, 2744, Note_on_c, 4, 54, 0
10, 2760, Note_on_c, 4, 52, 76
10, 2864, Note_on_c, 4, 52, 0
10, 2880, Note_on_c, 4, 50, 76
10, 2984, Note_on_c, 4, 50, 0
10, 3000, Note_on_c, 4, 52, 76
10, 3104, Note_on_c, 4, 52, 0
10, 3120, Note_on_c, 4, 50, 76
10, 3224, Note_on_c, 4, 50, 0
10, 3240, Note_on_c, 4, 52, 76
10, 3344, Note_on_c, 4, 52, 0
10, 3360, Note_on_c, 4, 54, 76
10, 3704, Note_on_c, 4, 54, 0
10, 3720, Note_on_c, 4, 47, 76
10, 3824, Note_on_c, 4, 47, 0
10, 3840, Note_on_c, 4, 59, 76
10, 4184, Note_on_c, 4, 59, 0
10, 4200, Note_on_c, 4, 60, 76
10, 4304, Note_on_c, 4, 60, 0
10, 4320, Note_on_c, 4, 57, 76
10, 4544, Note_on_c, 4, 57, 0
10, 4560, Note_on_c, 4, 55, 76
10, 4664, Note_on_c, 4, 55, 0
10, 4680, Note_on_c, 4, 57, 76
10, 4784, Note_on_c, 4, 57, 0
10, 4800, Note_on_c, 4, 59, 76
10, 5039, Note_on_c, 4, 59, 0
10, 5400, Note_on_c, 4, 64, 76
10, 5504, Note_on_c, 4, 64, 0
10, 5520, Note_on_c, 4, 62, 76
10, 5624, Note_on_c, 4, 62, 0
10, 5640, Note_on_c, 4, 61, 76
10, 5744, Note_on_c, 4, 61, 0
10, 5760, Note_on_c, 4, 62, 76
10, 5864, Note_on_c, 4, 62, 0
10, 5880, Note_on_c, 4, 59, 76
10, 5984, Note_on_c, 4, 59, 0
10, 6000, Note_on_c, 4, 61, 76
10, 6104, Note_on_c, 4, 61, 0
10, 6120, Note_on_c, 4, 57, 76
10, 6224, Note_on_c, 4, 57, 0
10, 6240, Note_on_c, 4, 61, 76
10, 6254, Note_on_c, 4, 61, 0
10, 6255, Note_on_c, 4, 62, 76
10, 6269, Note_on_c, 4, 62, 0
10, 6270, Note_on_c, 4, 61, 76
10, 6284, Note_on_c, 4, 61, 0
10, 6285, Note_on_c, 4, 62, 76
10, 6299, Note_on_c, 4, 62, 0
10, 6300, Note_on_c, 4, 61, 76
10, 6314, Note_on_c, 4, 61, 0
10, 6315, Note_on_c, 4, 62, 76
10, 6329, Note_on_c, 4, 62, 0
10, 6330, Note_on_c, 4, 61, 76
10, 6344, Note_on_c, 4, 61, 0
10, 6345, Note_on_c, 4, 62, 76
10, 6359, Note_on_c, 4, 62, 0
10, 6360, Note_on_c, 4, 61, 76
10, 6374, Note_on_c, 4, 61, 0
10, 6375, Note_on_c, 4, 62, 76
10, 6389, Note_on_c, 4, 62, 0
10, 6390, Note_on_c, 4, 61, 76
10, 6404, Note_on_c, 4, 61, 0
10, 6405, Note_on_c, 4, 62, 76
10, 6419, Note_on_c, 4, 62, 0
10, 6420, Note_on_c, 4, 61, 76
10, 6434, Note_on_c, 4, 61, 0
10, 6435, Note_on_c, 4, 62, 76
10, 6449, Note_on_c, 4, 62, 0
10, 6450, Note_on_c, 4, 61, 76
10, 6464, Note_on_c, 4, 61, 0
10, 6465, Note_on_c, 4, 62, 76
10, 6479, Note_on_c, 4, 62, 0
10, 6480, Note_on_c, 4, 61, 76
10, 6494, Note_on_c, 4, 61, 0
10, 6495, Note_on_c, 4, 62, 76
10, 6509, Note_on_c, 4, 62, 0
10, 6510, Note_on_c, 4, 61, 76
10, 6524, Note_on_c, 4, 61, 0
10, 6525, Note_on_c, 4, 62, 76
10, 6539, Note_on_c, 4, 62, 0
10, 6540, Note_on_c, 4, 61, 76
10, 6554, Note_on_c, 4, 61, 0
10, 6555, Note_on_c, 4, 62, 76
10, 6569, Note_on_c, 4, 62, 0
10, 6570, Note_on_c, 4, 61, 76
10, 6584, Note_on_c, 4, 61, 0
10, 6585, Note_on_c, 4, 62, 76
10, 6599, Note_on_c, 4, 62, 0
10, 6600, Note_on_c, 4, 59, 76
10, 6651, Note_on_c, 4, 59, 0
10, 6660, Note_on_c, 4, 61, 76
10, 6711, Note_on_c, 4, 61, 0
10, 6720, Note_on_c, 4, 62, 76
10, 6839, Note_on_c, 4, 62, 0
10, 6840, Note_on_c, 4, 66, 76
10, 6944, Note_on_c, 4, 66, 0
10, 6960, Note_on_c, 4, 64, 76
10, 7064, Note_on_c, 4, 64, 0
10, 7080, Note_on_c, 4, 62, 76
10, 7184, Note_on_c, 4, 62, 0
10, 7200, Note_on_c, 4, 61, 76
10, 7304, Note_on_c, 4, 61, 0
10, 7320, Note_on_c, 4, 62, 76
10, 7424, Note_on_c, 4, 62, 0
10, 7440, Note_on_c, 4, 64, 76
10, 7544, Note_on_c, 4, 64, 0
10, 7560, Note_on_c, 4, 62, 76
10, 7664, Note_on_c, 4, 62, 0
10, 7680, Note_on_c, 4, 61, 76
10, 7784, Note_on_c, 4, 61, 0
10, 7800, Note_on_c, 4, 59, 76
10, 7904, Note_on_c, 4, 59, 0
10, 7920, Note_on_c, 4, 58, 76
10, 8024, Note_on_c, 4, 58, 0
10, 8040, Note_on_c, 4, 56, 76
10, 8144, Note_on_c, 4, 56, 0
10, 8160, Note_on_c, 4, 54, 76
10, 8264, Note_on_c, 4, 54, 0
10, 8280, Note_on_c, 4, 56, 76
10, 8384, Note_on_c, 4, 56, 0
10, 8400, Note_on_c, 4, 57, 76
10, 9104, Note_on_c, 4, 57, 0
10, 9120, Note_on_c, 4, 56, 76
10, 9224, Note_on_c, 4, 56, 0
10, 9240, Note_on_c, 4, 57, 76
10, 9344, Note_on_c, 4, 57, 0
10, 9360, Note_on_c, 4, 59, 76
10, 9464, Note_on_c, 4, 59, 0
10, 9480, Note_on_c, 4, 56, 76
10, 9584, Note_on_c, 4, 56, 0
10, 9600, Note_on_c, 4, 65, 76
10, 9944, Note_on_c, 4, 65, 0
10, 9960, Note_on_c, 4, 56, 76
10, 10064, Note_on_c, 4, 56, 0
10, 10080, Note_on_c, 4, 54, 76
10, 10184, Note_on_c, 4, 54, 0
10, 10200, Note_on_c, 4, 64, 76
10, 10304, Note_on_c, 4, 64, 0
10, 10320, Note_on_c, 4, 62, 76
10, 10424, Note_on_c, 4, 62, 0
10, 10440, Note_on_c, 4, 59, 76
10, 10544, Note_on_c, 4, 59, 0
10, 10560, Note_on_c, 4, 61, 76
10, 10784, Note_on_c, 4, 61, 0
10, 10800, Note_on_c, 4, 49, 76
10, 11024, Note_on_c, 4, 49, 0
10, 11040, Note_on_c, 4, 42, 76
10, 11504, Note_on_c, 4, 42, 0
10, 12240, Note_on_c, 4, 59, 76
10, 12464, Note_on_c, 4, 59, 0
10, 12480, Note_on_c, 4, 55, 76
10, 12824, Note_on_c, 4, 55, 0
10, 12840, Note_on_c, 4, 57, 76
10, 12944, Note_on_c, 4, 57, 0
10, 12960, Note_on_c, 4, 59, 76
10, 13184, Note_on_c, 4, 59, 0
10, 13200, Note_on_c, 4, 52, 76
10, 13424, Note_on_c, 4, 52, 0
10, 13440, Note_on_c, 4, 57, 76
10, 13664, Note_on_c, 4, 57, 0
10, 13680, Note_on_c, 4, 55, 76
10, 14144, Note_on_c, 4, 55, 0
10, 14160, Note_on_c, 4, 54, 76
10, 14264, Note_on_c, 4, 54, 0
10, 14280, Note_on_c, 4, 52, 76
10, 14384, Note_on_c, 4, 52, 0
10, 14400, Note_on_c, 4, 50, 76
10, 14504, Note_on_c, 4, 50, 0
10, 14520, Note_on_c, 4, 52, 76
10, 14624, Note_on_c, 4, 52, 0
10, 14640, Note_on_c, 4, 50, 76
10, 14744, Note_on_c, 4, 50, 0
10, 14760, Note_on_c, 4, 52, 76
10, 14864, Note_on_c, 4, 52, 0
10, 14880, Note_on_c, 4, 54, 76
10, 15224, Note_on_c, 4, 54, 0
10, 15240, Note_on_c, 4, 47, 76
10, 15344, Note_on_c, 4, 47, 0
10, 15360, Note_on_c, 4, 59, 76
10, 15704, Note_on_c, 4, 59, 0
10, 15720, Note_on_c, 4, 60, 76
10, 15824, Note_on_c, 4, 60, 0
10, 15840, Note_on_c, 4, 57, 76
10, 16064, Note_on_c, 4, 57, 0
10, 16080, Note_on_c, 4, 55, 76
10, 16184, Note_on_c, 4, 55, 0
10, 16200, Note_on_c, 4, 57, 76
10, 16304, Note_on_c, 4, 57, 0
10, 16320, Note_on_c, 4, 59, 76
10, 16559, Note_on_c, 4, 59, 0
10, 16920, Note_on_c, 4, 64, 76
10, 17024, Note_on_c, 4, 64, 0
10, 17040, Note_on_c, 4, 62, 76
10, 17144, Note_on_c, 4, 62, 0
10, 17160, Note_on_c, 4, 61, 76
10, 17264, Note_on_c, 4, 61, 0
10, 17280, Note_on_c, 4, 62, 76
10, 17384, Note_on_c, 4, 62, 0
10, 17400, Note_on_c, 4, 59, 76
10, 17504, Note_on_c, 4, 59, 0
10, 17520, Note_on_c, 4, 61, 76
10, 17624, Note_on_c, 4, 61, 0
10, 17640, Note_on_c, 4, 57, 76
10, 17744, Note_on_c, 4, 57, 0
10, 17760, Note_on_c, 4, 61, 76
10, 17774, Note_on_c, 4, 61, 0
10, 17775, Note_on_c, 4, 62, 76
10, 17789, Note_on_c, 4, 62, 0
10, 17790, Note_on_c, 4, 61, 76
10, 17804, Note_on_c, 4, 61, 0
10, 17805, Note_on_c, 4, 62, 76
10, 17819, Note_on_c, 4, 62, 0
10, 17820, Note_on_c, 4, 61, 76
10, 17834, Note_on_c, 4, 61, 0
10, 17835, Note_on_c, 4, 62, 76
10, 17849, Note_on_c, 4, 62, 0
10, 17850, Note_on_c, 4, 61, 76
10, 17864, Note_on_c, 4, 61, 0
10, 17865, Note_on_c, 4, 62, 76
10, 17879, Note_on_c, 4, 62, 0
10, 17880, Note_on_c, 4, 61, 76
10, 17894, Note_on_c, 4, 61, 0
10, 17895, Note_on_c, 4, 62, 76
10, 17909, Note_on_c, 4, 62, 0
10, 17910, Note_on_c, 4, 61, 76
10, 17924, Note_on_c, 4, 61, 0
10, 17925, Note_on_c, 4, 62, 76
10, 17939, Note_on_c, 4, 62, 0
10, 17940, Note_on_c, 4, 61, 76
10, 17954, Note_on_c, 4, 61, 0
10, 17955, Note_on_c, 4, 62, 76
10, 17969, Note_on_c, 4, 62, 0
10, 17970, Note_on_c, 4, 61, 76
10, 17984, Note_on_c, 4, 61, 0
10, 17985, Note_on_c, 4, 62, 76
10, 17999, Note_on_c, 4, 62, 0
10, 18000, Note_on_c, 4, 61, 76
10, 18014, Note_on_c, 4, 61, 0
10, 18015, Note_on_c, 4, 62, 76
10, 18029, Note_on_c, 4, 62, 0
10, 18030, Note_on_c, 4, 61, 76
10, 18044, Note_on_c, 4, 61, 0
10, 18045, Note_on_c, 4, 62, 76
10, 18059, Note_on_c, 4, 62, 0
10, 18060, Note_on_c, 4, 61, 76
10, 18074, Note_on_c, 4, 61, 0
10, 18075, Note_on_c, 4, 62, 76
10, 18089, Note_on_c, 4, 62, 0
10, 18090, Note_on_c, 4, 61, 76
10, 18104, Note_on_c, 4, 61, 0
10, 18105, Note_on_c, 4, 62, 76
10, 18119, Note_on_c, 4, 62, 0
10, 18120, Note_on_c, 4, 59, 76
10, 18171, Note_on_c, 4, 59, 0
10, 18180, Note_on_c, 4, 61, 76
10, 18231, Note_on_c, 4, 61, 0
10, 18240, Note_on_c, 4, 62, 76
10, 18359, Note_on_c, 4, 62, 0
10, 18360, Note_on_c, 4, 66, 76
10, 18464, Note_on_c, 4, 66, 0
10, 18480, Note_on_c, 4, 64, 76
10, 18584, Note_on_c, 4, 64, 0
10, 18600, Note_on_c, 4, 62, 76
10, 18704, Note_on_c, 4, 62, 0
10, 18720, Note_on_c, 4, 61, 76
10, 18824, Note_on_c, 4, 61, 0
10, 18840, Note_on_c, 4, 62, 76
10, 18944, Note_on_c, 4, 62, 0
10, 18960, Note_on_c, 4, 64, 76
10, 19064, Note_on_c, 4, 64, 0
10, 19080, Note_on_c, 4, 62, 76
10, 19184, Note_on_c, 4, 62, 0
10, 19200, Note_on_c, 4, 61, 76
10, 19304, Note_on_c, 4, 61, 0
10, 19320, Note_on_c, 4, 59, 76
10, 19424, Note_on_c, 4, 59, 0
10, 19440, Note_on_c, 4, 58, 76
10, 19544, Note_on_c, 4, 58, 0
10, 19560, Note_on_c, 4, 56, 76
10, 19664, Note_on_c, 4, 56, 0
10, 19680, Note_on_c, 4, 54, 76
10, 19784, Note_on_c, 4, 54, 0
10, 19800, Note_on_c, 4, 56, 76
10, 19904, Note_on_c, 4, 56, 0
10, 19920, Note_on_c, 4, 57, 76
10, 20624, Note_on_c, 4, 57, 0
10, 20640, Note_on_c, 4, 56, 76
10, 20744, Note_on_c, 4, 56, 0
10, 20760, Note_on_c, 4, 57, 76
10, 20864, Note_on_c, 4, 57, 0
10, 20880, Note_on_c, 4, 59, 76
10, 20984, Note_on_c, 4, 59, 0
10, 21000, Note_on_c, 4, 56, 76
10, 21104, Note_on_c, 4, 56, 0
10, 21120, Note_on_c, 4, 65, 76
10, 21464, Note_on_c, 4, 65, 0
10, 21480, Note_on_c, 4, 56, 76
10, 21584, Note_on_c, 4, 56, 0
10, 21600, Note_on_c, 4, 54, 76
10, 21704, Note_on_c, 4, 54, 0
10, 21720, Note_on_c, 4, 64, 76
10, 21824, Note_on_c, 4, 64, 0
10, 21840, Note_on_c, 4, 62, 76
10, 21944, Note_on_c, 4, 62, 0
10, 21960, Note_on_c, 4, 59, 76
10, 22064, Note_on_c, 4, 59, 0
10, 22080, Note_on_c, 4, 61, 76
10, 22304, Note_on_c, 4, 61, 0
10, 22320, Note_on_c, 4, 49, 76
10, 22544, Note_on_c, 4, 49, 0
10, 22560, Note_on_c, 4, 42, 76
10, 23024, Note_on_c, 4, 42, 0
10, 23760, Note_on_c, 4, 54, 76
10, 23989, Note_on_c, 4, 54, 0
10, 24000, Note_on_c, 4, 50, 76
10, 24349, Note_on_c, 4, 50, 0
10, 24360, Note_on_c, 4, 52, 76
10, 24469, Note_on_c, 4, 52, 0
10, 24480, Note_on_c, 4, 54, 76
10, 24709, Note_on_c, 4, 54, 0
10, 24720, Note_on_c, 4, 47, 76
10, 24949, Note_on_c, 4, 47, 0
10, 24960, Note_on_c, 4, 59, 76
10, 25309, Note_on_c, 4, 59, 0
10, 25320, Note_on_c, 4, 57, 76
10, 25429, Note_on_c, 4, 57, 0
10, 25440, Note_on_c, 4, 56, 76
10, 25549, Note_on_c, 4, 56, 0
10, 25560, Note_on_c, 4, 54, 76
10, 25669, Note_on_c, 4, 54, 0
10, 25680, Note_on_c, 4, 57, 76
10, 25789, Note_on_c, 4, 57, 0
10, 25800, Note_on_c, 4, 56, 76
10, 25909, Note_on_c, 4, 56, 0
10, 25920, Note_on_c, 4, 54, 76
10, 26029, Note_on_c, 4, 54, 0
10, 26040, Note_on_c, 4, 52, 76
10, 26149, Note_on_c, 4, 52, 0
10, 26160, Note_on_c, 4, 57, 76
10, 26629, Note_on_c, 4, 57, 0
10, 26640, Note_on_c, 4, 55, 76
10, 27109, Note_on_c, 4, 55, 0
10, 27120, Note_on_c, 4, 54, 76
10, 27229, Note_on_c, 4, 54, 0
10, 27240, Note_on_c, 4, 55, 76
10, 27349, Note_on_c, 4, 55, 0
10, 27360, Note_on_c, 4, 57, 76
10, 27469, Note_on_c, 4, 57, 0
10, 27480, Note_on_c, 4, 54, 76
10, 27589, Note_on_c, 4, 54, 0
10, 27600, Note_on_c, 4, 50, 76
10, 27829, Note_on_c, 4, 50, 0
10, 27840, Note_on_c, 4, 62, 76
10, 28079, Note_on_c, 4, 62, 0
10, 28440, Note_on_c, 4, 60, 76
10, 28549, Note_on_c, 4, 60, 0
10, 28560, Note_on_c, 4, 59, 76
10, 28669, Note_on_c, 4, 59, 0
10, 28680, Note_on_c, 4, 60, 76
10, 28731, Note_on_c, 4, 60, 0
10, 28740, Note_on_c, 4, 62, 76
10, 28791, Note_on_c, 4, 62, 0
10, 28800, Note_on_c, 4, 55, 76
10, 28909, Note_on_c, 4, 55, 0
10, 28920, Note_on_c, 4, 54, 76
10, 29029, Note_on_c, 4, 54, 0
10, 29040, Note_on_c, 4, 52, 76
10, 29149, Note_on_c, 4, 52, 0
10, 29160, Note_on_c, 4, 50, 76
10, 29269, Note_on_c, 4, 50, 0
10, 29280, Note_on_c, 4, 49, 76
10, 29509, Note_on_c, 4, 49, 0
10, 29520, Note_on_c, 4, 64, 76
10, 29989, Note_on_c, 4, 64, 0
10, 30000, Note_on_c, 4, 63, 76
10, 30109, Note_on_c, 4, 63, 0
10, 30120, Note_on_c, 4, 64, 76
10, 30229, Note_on_c, 4, 64, 0
10, 30240, Note_on_c, 4, 66, 76
10, 30349, Note_on_c, 4, 66, 0
10, 30360, Note_on_c, 4, 63, 76
10, 30469, Note_on_c, 4, 63, 0
10, 30480, Note_on_c, 4, 59, 76
10, 30709, Note_on_c, 4, 59, 0
10, 30720, Note_on_c, 4, 64, 76
10, 30949, Note_on_c, 4, 64, 0
10, 30960, Note_on_c, 4, 62, 76
10, 31309, Note_on_c, 4, 62, 0
10, 31320, Note_on_c, 4, 61, 76
10, 31371, Note_on_c, 4, 61, 0
10, 31380, Note_on_c, 4, 59, 76
10, 31431, Note_on_c, 4, 59, 0
10, 31440, Note_on_c, 4, 61, 76
10, 31549, Note_on_c, 4, 61, 0
10, 31560, Note_on_c, 4, 64, 76
10, 31669, Note_on_c, 4, 64, 0
10, 31680, Note_on_c, 4, 59, 76
10, 31789, Note_on_c, 4, 59, 0
10, 31800, Note_on_c, 4, 64, 76
10, 31909, Note_on_c, 4, 64, 0
10, 31920, Note_on_c, 4, 58, 76
10, 32509, Note_on_c, 4, 58, 0
10, 32520, Note_on_c, 4, 49, 76
10, 32629, Note_on_c, 4, 49, 0
10, 32640, Note_on_c, 4, 47, 76
10, 32749, Note_on_c, 4, 47, 0
10, 32760, Note_on_c, 4, 57, 76
10, 32869, Note_on_c, 4, 57, 0
10, 32880, Note_on_c, 4, 55, 76
10, 32989, Note_on_c, 4, 55, 0
10, 33000, Note_on_c, 4, 54, 76
10, 33109, Note_on_c, 4, 54, 0
10, 33120, Note_on_c, 4, 59, 76
10, 33229, Note_on_c, 4, 59, 0
10, 33240, Note_on_c, 4, 57, 76
10, 33349, Note_on_c, 4, 57, 0
10, 33360, Note_on_c, 4, 55, 76
10, 33469, Note_on_c, 4, 55, 0
10, 33480, Note_on_c, 4, 52, 76
10, 33589, Note_on_c, 4, 52, 0
10, 33600, Note_on_c, 4, 54, 76
10, 33829, Note_on_c, 4, 54, 0
10, 33840, Note_on_c, 4, 42, 76
10, 34069, Note_on_c, 4, 42, 0
10, 34080, Note_on_c, 4, 47, 76
10, 34549, Note_on_c, 4, 47, 0
10, 35280, Note_on_c, 4, 54, 76
10, 35509, Note_on_c, 4, 54, 0
10, 35520, Note_on_c, 4, 50, 76
10, 35869, Note_on_c, 4, 50, 0
10, 35880, Note_on_c, 4, 52, 76
10, 35989, Note_on_c, 4, 52, 0
10, 36000, Note_on_c, 4, 54, 76
10, 36229, Note_on_c, 4, 54, 0
10, 36240, Note_on_c, 4, 47, 76
10, 36469, Note_on_c, 4, 47, 0
10, 36480, Note_on_c, 4, 59, 76
10, 36829, Note_on_c, 4, 59, 0
10, 36840, Note_on_c, 4, 57, 76
10, 36949, Note_on_c, 4, 57, 0
10, 36960, Note_on_c, 4, 56, 76
10, 37069, Note_on_c, 4, 56, 0
10, 37080, Note_on_c, 4, 54, 76
10, 37189, Note_on_c, 4, 54, 0
10, 37200, Note_on_c, 4, 57, 76
10, 37309, Note_on_c, 4, 57, 0
10, 37320, Note_on_c, 4, 56, 76
10, 37429, Note_on_c, 4, 56, 0
10, 37440, Note_on_c, 4, 54, 76
10, 37549, Note_on_c, 4, 54, 0
10, 37560, Note_on_c, 4, 52, 76
10, 37669, Note_on_c, 4, 52, 0
10, 37680, Note_on_c, 4, 57, 76
10, 38149, Note_on_c, 4, 57, 0
10, 38160, Note_on_c, 4, 55, 76
10, 38629, Note_on_c, 4, 55, 0
10, 38640, Note_on_c, 4, 54, 76
10, 38749, Note_on_c, 4, 54, 0
10, 38760, Note_on_c, 4, 55, 76
10, 38869, Note_on_c, 4, 55, 0
10, 38880, Note_on_c, 4, 57, 76
10, 38989, Note_on_c, 4, 57, 0
10, 39000, Note_on_c, 4, 54, 76
10, 39109, Note_on_c, 4, 54, 0
10, 39120, Note_on_c, 4, 50, 76
10, 39349, Note_on_c, 4, 50, 0
10, 39360, Note_on_c, 4, 62, 76
10, 39599, Note_on_c, 4, 62, 0
10, 39960, Note_on_c, 4, 60, 76
10, 40069, Note_on_c, 4, 60, 0
10, 40080, Note_on_c, 4, 59, 76
10, 40189, Note_on_c, 4, 59, 0
10, 40200, Note_on_c, 4, 60, 76
10, 40251, Note_on_c, 4, 60, 0
10, 40260, Note_on_c, 4, 62, 76
10, 40311, Note_on_c, 4, 62, 0
10, 40320, Note_on_c, 4, 55, 76
10, 40429, Note_on_c, 4, 55, 0
10, 40440, Note_on_c, 4, 54, 76
10, 40549, Note_on_c, 4, 54, 0
10, 40560, Note_on_c, 4, 52, 76
10, 40669, Note_on_c, 4, 52, 0
10, 40680, Note_on_c, 4, 50, 76
10, 40789, Note_on_c, 4, 50, 0
10, 40800, Note_on_c, 4, 49, 76
10, 41029, Note_on_c, 4, 49, 0
10, 41040, Note_on_c, 4, 64, 76
10, 41509, Note_on_c, 4, 64, 0
10, 41520, Note_on_c, 4, 63, 76
10, 41629, Note_on_c, 4, 63, 0
10, 41640, Note_on_c, 4, 64, 76
10, 41749, Note_on_c, 4, 64, 0
10, 41760, Note_on_c, 4, 66, 76
10, 41869, Note_on_c, 4, 66, 0
10, 41880, Note_on_c, 4, 63, 76
10, 41989, Note_on_c, 4, 63, 0
10, 42000, Note_on_c, 4, 59, 76
10, 42229, Note_on_c, 4, 59, 0
10, 42240, Note_on_c, 4, 64, 76
10, 42469, Note_on_c, 4, 64, 0
10, 42480, Note_on_c, 4, 62, 76
10, 42829, Note_on_c, 4, 62, 0
10, 42840, Note_on_c, 4, 61, 76
10, 42891, Note_on_c, 4, 61, 0
10, 42900, Note_on_c, 4, 59, 76
10, 42951, Note_on_c, 4, 59, 0
10, 42960, Note_on_c, 4, 61, 76
10, 43069, Note_on_c, 4, 61, 0
10, 43080, Note_on_c, 4, 64, 76
10, 43189, Note_on_c, 4, 64, 0
10, 43200, Note_on_c, 4, 59, 76
10, 43309, Note_on_c, 4, 59, 0
10, 43320, Note_on_c, 4, 64, 76
10, 43429, Note_on_c, 4, 64, 0
10, 43440, Note_on_c, 4, 58, 76
10, 44029, Note_on_c, 4, 58, 0
10, 44040, Note_on_c, 4, 49, 76
10, 44149, Note_on_c, 4, 49, 0
10, 44160, Note_on_c, 4, 47, 76
10, 44269, Note_on_c, 4, 47, 0
10, 44280, Note_on_c, 4, 57, 76
10, 44389, Note_on_c, 4, 57, 0
10, 44400, Note_on_c, 4, 55, 76
10, 44509, Note_on_c, 4, 55, 0
10, 44520, Note_on_c, 4, 54, 76
10, 44629, Note_on_c, 4, 54, 0
10, 44640, Note_on_c, 4, 59, 76
10, 44749, Note_on_c, 4, 59, 0
10, 44760, Note_on_c, 4, 57, 76
10, 44869, Note_on_c, 4, 57, 0
10, 44880, Note_on_c, 4, 55, 76
10, 44989, Note_on_c, 4, 55, 0
10, 45000, Note_on_c, 4, 52, 76
10, 45109, Note_on_c, 4, 52, 0
10, 45120, Note_on_c, 4, 54, 76
10, 45349, Note_on_c, 4, 54, 0
10, 45360, Note_on_c, 4, 42, 76
10, 45589, Note_on_c, 4, 42, 0
10, 45600, Note_on_c, 4, 47, 76
10, 46069, Note_on_c, 4, 47, 0
10, 46069, End_track
11, 0, Start_track
11, 0, Title_t, "Harpsichord "
11, 0, MIDI_port, 0
11, 0, Control_c, 5, 10, 64
11, 0, Control_c, 5, 11, 127
11, 0, Control_c, 5, 7, 72
11, 0, Program_c, 5, 6
11, 720, Note_on_c, 5, 78, 76
11, 720, Note_on_c, 5, 74, 76
11, 720, Note_on_c, 5, 71, 76
11, 720, Note_on_c, 5, 59, 76
11, 959, Note_on_c, 5, 78, 0
11, 959, Note_on_c, 5, 74, 0
11, 959, Note_on_c, 5, 71, 0
11, 959, Note_on_c, 5, 59, 0
11, 960, Note_on_c, 5, 55, 76
11, 960, Note_on_c, 5, 71, 76
11, 960, Note_on_c, 5, 78, 76
11, 960, Note_on_c, 5, 74, 76
11, 960, Note_on_c, 5, 67, 76
11, 1199, Note_on_c, 5, 71, 0
11, 1199, Note_on_c, 5, 78, 0
11, 1199, Note_on_c, 5, 74, 0
11, 1199, Note_on_c, 5, 67, 0
11, 1200, Note_on_c, 5, 67, 76
11, 1200, Note_on_c, 5, 71, 76
11, 1200, Note_on_c, 5, 76, 76
11, 1319, Note_on_c, 5, 55, 0
11, 1319, Note_on_c, 5, 67, 0
11, 1319, Note_on_c, 5, 71, 0
11, 1319, Note_on_c, 5, 76, 0
11, 1320, Note_on_c, 5, 76, 76
11, 1320, Note_on_c, 5, 69, 76
11, 1320, Note_on_c, 5, 57, 76
11, 1320, Note_on_c, 5, 73, 76
11, 1439, Note_on_c, 5, 76, 0
11, 1439, Note_on_c, 5, 69, 0
11, 1439, Note_on_c, 5, 57, 0
11, 1439, Note_on_c, 5, 73, 0
11, 1440, Note_on_c, 5, 74, 76
11, 1440, Note_on_c, 5, 71, 76
11, 1440, Note_on_c, 5, 78, 76
11, 1440, Note_on_c, 5, 59, 76
11, 1679, Note_on_c, 5, 74, 0
11, 1679, Note_on_c, 5, 71, 0
11, 1679, Note_on_c, 5, 78, 0
11, 1679, Note_on_c, 5, 59, 0
11, 1680, Note_on_c, 5, 52, 76
11, 1680, Note_on_c, 5, 71, 76
11, 1680, Note_on_c, 5, 74, 76
11, 1680, Note_on_c, 5, 67, 76
11, 1680, Note_on_c, 5, 64, 76
11, 1919, Note_on_c, 5, 52, 0
11, 1919, Note_on_c, 5, 71, 0
11, 1919, Note_on_c, 5, 74, 0
11, 1919, Note_on_c, 5, 67, 0
11, 1919, Note_on_c, 5, 64, 0
11, 1920, Note_on_c, 5, 76, 76
11, 1920, Note_on_c, 5, 73, 76
11, 1920, Note_on_c, 5, 57, 76
11, 1920, Note_on_c, 5, 69, 76
11, 2159, Note_on_c, 5, 76, 0
11, 2159, Note_on_c, 5, 73, 0
11, 2159, Note_on_c, 5, 57, 0
11, 2159, Note_on_c, 5, 69, 0
11, 2160, Note_on_c, 5, 55, 76
11, 2160, Note_on_c, 5, 67, 76
11, 2160, Note_on_c, 5, 71, 76
11, 2160, Note_on_c, 5, 76, 76
11, 2399, Note_on_c, 5, 67, 0
11, 2399, Note_on_c, 5, 71, 0
11, 2399, Note_on_c, 5, 76, 0
11, 2400, Note_on_c, 5, 76, 76
11, 2400, Note_on_c, 5, 70, 76
11, 2400, Note_on_c, 5, 73, 76
11, 2400, Note_on_c, 5, 67, 76
11, 2639, Note_on_c, 5, 55, 0
11, 2639, Note_on_c, 5, 76, 0
11, 2639, Note_on_c, 5, 70, 0
11, 2639, Note_on_c, 5, 73, 0
11, 2639, Note_on_c, 5, 67, 0
11, 2640, Note_on_c, 5, 54, 76
11, 2640, Note_on_c, 5, 66, 76
11, 2640, Note_on_c, 5, 70, 76
11, 2640, Note_on_c, 5, 73, 76
11, 2759, Note_on_c, 5, 54, 0
11, 2759, Note_on_c, 5, 66, 0
11, 2759, Note_on_c, 5, 70, 0
11, 2759, Note_on_c, 5, 73, 0
11, 2760, Note_on_c, 5, 70, 76
11, 2760, Note_on_c, 5, 73, 76
11, 2760, Note_on_c, 5, 52, 76
11, 2760, Note_on_c, 5, 64, 76
11, 2879, Note_on_c, 5, 70, 0
11, 2879, Note_on_c, 5, 73, 0
11, 2879, Note_on_c, 5, 52, 0
11, 2879, Note_on_c, 5, 64, 0
11, 2880, Note_on_c, 5, 50, 76
11, 2880, Note_on_c, 5, 62, 76
11, 2880, Note_on_c, 5, 73, 76
11, 2880, Note_on_c, 5, 70, 76
11, 2999, Note_on_c, 5, 50, 0
11, 2999, Note_on_c, 5, 62, 0
11, 2999, Note_on_c, 5, 73, 0
11, 2999, Note_on_c, 5, 70, 0
11, 3000, Note_on_c, 5, 52, 76
11, 3000, Note_on_c, 5, 73, 76
11, 3000, Note_on_c, 5, 70, 76
11, 3000, Note_on_c, 5, 64, 76
11, 3119, Note_on_c, 5, 52, 0
11, 3119, Note_on_c, 5, 73, 0
11, 3119, Note_on_c, 5, 70, 0
11, 3119, Note_on_c, 5, 64, 0
11, 3120, Note_on_c, 5, 71, 76
11, 3120, Note_on_c, 5, 50, 76
11, 3120, Note_on_c, 5, 62, 76
11, 3120, Note_on_c, 5, 66, 76
11, 3239, Note_on_c, 5, 71, 0
11, 3239, Note_on_c, 5, 50, 0
11, 3239, Note_on_c, 5, 62, 0
11, 3239, Note_on_c, 5, 66, 0
11, 3240, Note_on_c, 5, 52, 76
11, 3240, Note_on_c, 5, 64, 76
11, 3240, Note_on_c, 5, 67, 76
11, 3240, Note_on_c, 5, 71, 76
11, 3359, Note_on_c, 5, 52, 0
11, 3359, Note_on_c, 5, 64, 0
11, 3359, Note_on_c, 5, 67, 0
11, 3359, Note_on_c, 5, 71, 0
11, 3360, Note_on_c, 5, 71, 76
11, 3360, Note_on_c, 5, 54, 76
11, 3360, Note_on_c, 5, 74, 76
11, 3360, Note_on_c, 5, 66, 76
11, 3599, Note_on_c, 5, 71, 0
11, 3599, Note_on_c, 5, 74, 0
11, 3599, Note_on_c, 5, 66, 0
11, 3600, Note_on_c, 5, 66, 76
11, 3600, Note_on_c, 5, 73, 76
11, 3600, Note_on_c, 5, 70, 76
11, 3600, Note_on_c, 5, 76, 76
11, 3719, Note_on_c, 5, 54, 0
11, 3719, Note_on_c, 5, 66, 0
11, 3719, Note_on_c, 5, 73, 0
11, 3719, Note_on_c, 5, 70, 0
11, 3719, Note_on_c, 5, 76, 0
11, 3720, Note_on_c, 5, 47, 76
11, 3720, Note_on_c, 5, 59, 76
11, 3720, Note_on_c, 5, 62, 76
11, 3720, Note_on_c, 5, 66, 76
11, 3839, Note_on_c, 5, 47, 0
11, 3839, Note_on_c, 5, 59, 0
11, 3839, Note_on_c, 5, 62, 0
11, 3839, Note_on_c, 5, 66, 0
11, 3840, Note_on_c, 5, 75, 76
11, 3840, Note_on_c, 5, 78, 76
11, 3840, Note_on_c, 5, 59, 76
11, 3840, Note_on_c, 5, 71, 76
11, 4079, Note_on_c, 5, 75, 0
11, 4079, Note_on_c, 5, 78, 0
11, 4079, Note_on_c, 5, 71, 0
11, 4080, Note_on_c, 5, 71, 76
11, 4080, Note_on_c, 5, 75, 76
11, 4080, Note_on_c, 5, 78, 76
11, 4199, Note_on_c, 5, 59, 0
11, 4199, Note_on_c, 5, 71, 0
11, 4199, Note_on_c, 5, 75, 0
11, 4199, Note_on_c, 5, 78, 0
11, 4200, Note_on_c, 5, 60, 76
11, 4200, Note_on_c, 5, 73, 76
11, 4200, Note_on_c, 5, 75, 76
11, 4200, Note_on_c, 5, 78, 76
11, 4319, Note_on_c, 5, 60, 0
11, 4319, Note_on_c, 5, 73, 0
11, 4319, Note_on_c, 5, 75, 0
11, 4319, Note_on_c, 5, 78, 0
11, 4320, Note_on_c, 5, 57, 76
11, 4320, Note_on_c, 5, 71, 76
11, 4320, Note_on_c, 5, 69, 76
11, 4320, Note_on_c, 5, 78, 76
11, 4320, Note_on_c, 5, 75, 76
11, 4559, Note_on_c, 5, 57, 0
11, 4559, Note_on_c, 5, 71, 0
11, 4559, Note_on_c, 5, 69, 0
11, 4559, Note_on_c, 5, 78, 0
11, 4559, Note_on_c, 5, 75, 0
11, 4560, Note_on_c, 5, 76, 76
11, 4560, Note_on_c, 5, 71, 76
11, 4560, Note_on_c, 5, 55, 76
11, 4560, Note_on_c, 5, 67, 76
11, 4679, Note_on_c, 5, 76, 0
11, 4679, Note_on_c, 5, 71, 0
11, 4679, Note_on_c, 5, 55, 0
11, 4679, Note_on_c, 5, 67, 0
11, 4680, Note_on_c, 5, 76, 76
11, 4680, Note_on_c, 5, 73, 76
11, 4680, Note_on_c, 5, 69, 76
11, 4680, Note_on_c, 5, 57, 76
11, 4799, Note_on_c, 5, 76, 0
11, 4799, Note_on_c, 5, 73, 0
11, 4799, Note_on_c, 5, 69, 0
11, 4799, Note_on_c, 5, 57, 0
11, 4800, Note_on_c, 5, 78, 76
11, 4800, Note_on_c, 5, 81, 76
11, 4800, Note_on_c, 5, 71, 76
11, 4800, Note_on_c, 5, 59, 76
11, 4800, Note_on_c, 5, 76, 76
11, 5039, Note_on_c, 5, 78, 0
11, 5039, Note_on_c, 5, 81, 0
11, 5039, Note_on_c, 5, 71, 0
11, 5039, Note_on_c, 5, 59, 0
11, 5039, Note_on_c, 5, 76, 0
11, 5040, Note_on_c, 5, 75, 76
11, 5040, Note_on_c, 5, 81, 76
11, 5040, Note_on_c, 5, 78, 76
11, 5279, Note_on_c, 5, 75, 0
11, 5279, Note_on_c, 5, 81, 0
11, 5279, Note_on_c, 5, 78, 0
11, 5400, Note_on_c, 5, 83, 76
11, 5400, Note_on_c, 5, 76, 76
11, 5400, Note_on_c, 5, 64, 76
11, 5400, Note_on_c, 5, 79, 76
11, 5519, Note_on_c, 5, 83, 0
11, 5519, Note_on_c, 5, 76, 0
11, 5519, Note_on_c, 5, 64, 0
11, 5519, Note_on_c, 5, 79, 0
11, 5520, Note_on_c, 5, 76, 76
11, 5520, Note_on_c, 5, 74, 76
11, 5520, Note_on_c, 5, 83, 76
11, 5520, Note_on_c, 5, 80, 76
11, 5520, Note_on_c, 5, 62, 76
11, 5639, Note_on_c, 5, 76, 0
11, 5639, Note_on_c, 5, 74, 0
11, 5639, Note_on_c, 5, 83, 0
11, 5639, Note_on_c, 5, 80, 0
11, 5639, Note_on_c, 5, 62, 0
11, 5640, Note_on_c, 5, 80, 76
11, 5640, Note_on_c, 5, 73, 76
11, 5640, Note_on_c, 5, 61, 76
11, 5640, Note_on_c, 5, 76, 76
11, 5759, Note_on_c, 5, 80, 0
11, 5759, Note_on_c, 5, 73, 0
11, 5759, Note_on_c, 5, 61, 0
11, 5759, Note_on_c, 5, 76, 0
11, 5760, Note_on_c, 5, 76, 76
11, 5760, Note_on_c, 5, 80, 76
11, 5760, Note_on_c, 5, 62, 76
11, 5760, Note_on_c, 5, 74, 76
11, 5879, Note_on_c, 5, 76, 0
11, 5879, Note_on_c, 5, 80, 0
11, 5879, Note_on_c, 5, 62, 0
11, 5879, Note_on_c, 5, 74, 0
11, 5880, Note_on_c, 5, 74, 76
11, 5880, Note_on_c, 5, 59, 76
11, 5880, Note_on_c, 5, 71, 76
11, 5880, Note_on_c, 5, 78, 76
11, 5999, Note_on_c, 5, 74, 0
11, 5999, Note_on_c, 5, 59, 0
11, 5999, Note_on_c, 5, 71, 0
11, 5999, Note_on_c, 5, 78, 0
11, 6000, Note_on_c, 5, 73, 76
11, 6000, Note_on_c, 5, 76, 76
11, 6000, Note_on_c, 5, 81, 76
11, 6000, Note_on_c, 5, 61, 76
11, 6119, Note_on_c, 5, 73, 0
11, 6119, Note_on_c, 5, 76, 0
11, 6119, Note_on_c, 5, 81, 0
11, 6119, Note_on_c, 5, 61, 0
11, 6120, Note_on_c, 5, 69, 76
11, 6120, Note_on_c, 5, 57, 76
11, 6120, Note_on_c, 5, 73, 76
11, 6120, Note_on_c, 5, 76, 76
11, 6239, Note_on_c, 5, 69, 0
11, 6239, Note_on_c, 5, 57, 0
11, 6239, Note_on_c, 5, 73, 0
11, 6239, Note_on_c, 5, 76, 0
11, 6240, Note_on_c, 5, 76, 76
11, 6240, Note_on_c, 5, 82, 76
11, 6240, Note_on_c, 5, 73, 76
11, 6240, Note_on_c, 5, 61, 76
11, 6254, Note_on_c, 5, 61, 0
11, 6255, Note_on_c, 5, 62, 76
11, 6269, Note_on_c, 5, 62, 0
11, 6270, Note_on_c, 5, 61, 76
11, 6284, Note_on_c, 5, 61, 0
11, 6285, Note_on_c, 5, 62, 76
11, 6299, Note_on_c, 5, 62, 0
11, 6300, Note_on_c, 5, 61, 76
11, 6314, Note_on_c, 5, 61, 0
11, 6315, Note_on_c, 5, 62, 76
11, 6329, Note_on_c, 5, 62, 0
11, 6330, Note_on_c, 5, 61, 76
11, 6344, Note_on_c, 5, 61, 0
11, 6345, Note_on_c, 5, 62, 76
11, 6359, Note_on_c, 5, 62, 0
11, 6360, Note_on_c, 5, 61, 76
11, 6374, Note_on_c, 5, 61, 0
11, 6375, Note_on_c, 5, 62, 76
11, 6389, Note_on_c, 5, 62, 0
11, 6390, Note_on_c, 5, 61, 76
11, 6404, Note_on_c, 5, 61, 0
11, 6405, Note_on_c, 5, 62, 76
11, 6419, Note_on_c, 5, 62, 0
11, 6420, Note_on_c, 5, 61, 76
11, 6434, Note_on_c, 5, 61, 0
11, 6435, Note_on_c, 5, 62, 76
11, 6449, Note_on_c, 5, 62, 0
11, 6450, Note_on_c, 5, 61, 76
11, 6464, Note_on_c, 5, 61, 0
11, 6465, Note_on_c, 5, 62, 76
11, 6479, Note_on_c, 5, 62, 0
11, 6480, Note_on_c, 5, 61, 76
11, 6494, Note_on_c, 5, 61, 0
11, 6495, Note_on_c, 5, 62, 76
11, 6509, Note_on_c, 5, 62, 0
11, 6510, Note_on_c, 5, 61, 76
11, 6524, Note_on_c, 5, 61, 0
11, 6525, Note_on_c, 5, 62, 76
11, 6539, Note_on_c, 5, 62, 0
11, 6540, Note_on_c, 5, 61, 76
11, 6554, Note_on_c, 5, 61, 0
11, 6555, Note_on_c, 5, 62, 76
11, 6569, Note_on_c, 5, 62, 0
11, 6570, Note_on_c, 5, 61, 76
11, 6584, Note_on_c, 5, 61, 0
11, 6585, Note_on_c, 5, 62, 76
11, 6599, Note_on_c, 5, 76, 0
11, 6599, Note_on_c, 5, 82, 0
11, 6599, Note_on_c, 5, 73, 0
11, 6599, Note_on_c, 5, 62, 0
11, 6600, Note_on_c, 5, 71, 76
11, 6600, Note_on_c, 5, 78, 76
11, 6600, Note_on_c, 5, 74, 76
11, 6600, Note_on_c, 5, 59, 76
11, 6659, Note_on_c, 5, 71, 0
11, 6659, Note_on_c, 5, 78, 0
11, 6659, Note_on_c, 5, 74, 0
11, 6659, Note_on_c, 5, 59, 0
11, 6660, Note_on_c, 5, 73, 76
11, 6660, Note_on_c, 5, 76, 76
11, 6660, Note_on_c, 5, 61, 76
11, 6660, Note_on_c, 5, 79, 76
11, 6719, Note_on_c, 5, 73, 0
11, 6719, Note_on_c, 5, 76, 0
11, 6719, Note_on_c, 5, 61, 0
11, 6719, Note_on_c, 5, 79, 0
11, 6720, Note_on_c, 5, 78, 76
11, 6720, Note_on_c, 5, 62, 76
11, 6720, Note_on_c, 5, 74, 76
11, 6720, Note_on_c, 5, 83, 76
11, 6839, Note_on_c, 5, 78, 0
11, 6839, Note_on_c, 5, 62, 0
11, 6839, Note_on_c, 5, 74, 0
11, 6839, Note_on_c, 5, 83, 0
11, 6840, Note_on_c, 5, 81, 76
11, 6840, Note_on_c, 5, 78, 76
11, 6840, Note_on_c, 5, 85, 76
11, 6840, Note_on_c, 5, 66, 76
11, 6959, Note_on_c, 5, 81, 0
11, 6959, Note_on_c, 5, 78, 0
11, 6959, Note_on_c, 5, 85, 0
11, 6959, Note_on_c, 5, 66, 0
11, 6960, Note_on_c, 5, 64, 76
11, 6960, Note_on_c, 5, 83, 76
11, 6960, Note_on_c, 5, 76, 76
11, 6960, Note_on_c, 5, 79, 76
11, 7079, Note_on_c, 5, 64, 0
11, 7079, Note_on_c, 5, 83, 0
11, 7079, Note_on_c, 5, 76, 0
11, 7079, Note_on_c, 5, 79, 0
11, 7080, Note_on_c, 5, 78, 76
11, 7080, Note_on_c, 5, 62, 76
11, 7080, Note_on_c, 5, 74, 76
11, 7080, Note_on_c, 5, 81, 76
11, 7199, Note_on_c, 5, 78, 0
11, 7199, Note_on_c, 5, 62, 0
11, 7199, Note_on_c, 5, 74, 0
11, 7199, Note_on_c, 5, 81, 0
11, 7200, Note_on_c, 5, 73, 76
11, 7200, Note_on_c, 5, 83, 76
11, 7200, Note_on_c, 5, 76, 76
11, 7200, Note_on_c, 5, 79, 76
11, 7200, Note_on_c, 5, 61, 76
11, 7319, Note_on_c, 5, 73, 0
11, 7319, Note_on_c, 5, 83, 0
11, 7319, Note_on_c, 5, 76, 0
11, 7319, Note_on_c, 5, 79, 0
11, 7319, Note_on_c, 5, 61, 0
11, 7320, Note_on_c, 5, 78, 76
11, 7320, Note_on_c, 5, 62, 76
11, 7320, Note_on_c, 5, 74, 76
11, 7320, Note_on_c, 5, 81, 76
11, 7439, Note_on_c, 5, 78, 0
11, 7439, Note_on_c, 5, 62, 0
11, 7439, Note_on_c, 5, 74, 0
11, 7439, Note_on_c, 5, 81, 0
11, 7440, Note_on_c, 5, 76, 76
11, 7440, Note_on_c, 5, 85, 76
11, 7440, Note_on_c, 5, 79, 76
11, 7440, Note_on_c, 5, 83, 76
11, 7440, Note_on_c, 5, 64, 76
11, 7559, Note_on_c, 5, 76, 0
11, 7559, Note_on_c, 5, 85, 0
11, 7559, Note_on_c, 5, 79, 0
11, 7559, Note_on_c, 5, 83, 0
11, 7559, Note_on_c, 5, 64, 0
11, 7560, Note_on_c, 5, 81, 76
11, 7560, Note_on_c, 5, 78, 76
11, 7560, Note_on_c, 5, 62, 76
11, 7560, Note_on_c, 5, 74, 76
11, 7679, Note_on_c, 5, 81, 0
11, 7679, Note_on_c, 5, 78, 0
11, 7679, Note_on_c, 5, 62, 0
11, 7679, Note_on_c, 5, 74, 0
11, 7680, Note_on_c, 5, 82, 76
11, 7680, Note_on_c, 5, 73, 76
11, 7680, Note_on_c, 5, 61, 76
11, 7680, Note_on_c, 5, 76, 76
11, 7799, Note_on_c, 5, 82, 0
11, 7799, Note_on_c, 5, 73, 0
11, 7799, Note_on_c, 5, 61, 0
11, 7799, Note_on_c, 5, 76, 0
11, 7800, Note_on_c, 5, 71, 76
11, 7800, Note_on_c, 5, 59, 76
11, 7800, Note_on_c, 5, 78, 76
11, 7800, Note_on_c, 5, 74, 76
11, 7919, Note_on_c, 5, 71, 0
11, 7919, Note_on_c, 5, 59, 0
11, 7919, Note_on_c, 5, 78, 0
11, 7919, Note_on_c, 5, 74, 0
11, 7920, Note_on_c, 5, 78, 76
11, 7920, Note_on_c, 5, 76, 76
11, 7920, Note_on_c, 5, 70, 76
11, 7920, Note_on_c, 5, 58, 76
11, 7920, Note_on_c, 5, 73, 76
11, 8039, Note_on_c, 5, 78, 0
11, 8039, Note_on_c, 5, 76, 0
11, 8039, Note_on_c, 5, 70, 0
11, 8039, Note_on_c, 5, 58, 0
11, 8039, Note_on_c, 5, 73, 0
11, 8040, Note_on_c, 5, 56, 76
11, 8040, Note_on_c, 5, 74, 76
11, 8040, Note_on_c, 5, 71, 76
11, 8040, Note_on_c, 5, 68, 76
11, 8159, Note_on_c, 5, 56, 0
11, 8159, Note_on_c, 5, 74, 0
11, 8159, Note_on_c, 5, 71, 0
11, 8159, Note_on_c, 5, 68, 0
11, 8160, Note_on_c, 5, 76, 76
11, 8160, Note_on_c, 5, 70, 76
11, 8160, Note_on_c, 5, 73, 76
11, 8160, Note_on_c, 5, 66, 76
11, 8160, Note_on_c, 5, 54, 76
11, 8279, Note_on_c, 5, 76, 0
11, 8279, Note_on_c, 5, 70, 0
11, 8279, Note_on_c, 5, 73, 0
11, 8279, Note_on_c, 5, 66, 0
11, 8279, Note_on_c, 5, 54, 0
11, 8280, Note_on_c, 5, 56, 76
11, 8280, Note_on_c, 5, 68, 76
11, 8280, Note_on_c, 5, 71, 76
11, 8280, Note_on_c, 5, 74, 76
11, 8399, Note_on_c, 5, 56, 0
11, 8399, Note_on_c, 5, 68, 0
11, 8399, Note_on_c, 5, 71, 0
11, 8399, Note_on_c, 5, 74, 0
11, 8400, Note_on_c, 5, 75, 76
11, 8400, Note_on_c, 5, 69, 76
11, 8400, Note_on_c, 5, 57, 76
11, 8400, Note_on_c, 5, 78, 76
11, 8400, Note_on_c, 5, 71, 76
11, 8879, Note_on_c, 5, 75, 0
11, 8879, Note_on_c, 5, 69, 0
11, 8879, Note_on_c, 5, 78, 0
11, 8879, Note_on_c, 5, 71, 0
11, 8880, Note_on_c, 5, 71, 76
11, 8880, Note_on_c, 5, 75, 76
11, 8880, Note_on_c, 5, 69, 76
11, 9119, Note_on_c, 5, 57, 0
11, 9119, Note_on_c, 5, 71, 0
11, 9119, Note_on_c, 5, 75, 0
11, 9119, Note_on_c, 5, 69, 0
11, 9120, Note_on_c, 5, 68, 76
11, 9120, Note_on_c, 5, 71, 76
11, 9120, Note_on_c, 5, 56, 76
11, 9120, Note_on_c, 5, 77, 76
11, 9239, Note_on_c, 5, 68, 0
11, 9239, Note_on_c, 5, 71, 0
11, 9239, Note_on_c, 5, 56, 0
11, 9239, Note_on_c, 5, 77, 0
11, 9240, Note_on_c, 5, 57, 76
11, 9240, Note_on_c, 5, 77, 76
11, 9240, Note_on_c, 5, 73, 76
11, 9240, Note_on_c, 5, 69, 76
11, 9359, Note_on_c, 5, 57, 0
11, 9359, Note_on_c, 5, 77, 0
11, 9359, Note_on_c, 5, 73, 0
11, 9359, Note_on_c, 5, 69, 0
11, 9360, Note_on_c, 5, 71, 76
11, 9360, Note_on_c, 5, 74, 76
11, 9360, Note_on_c, 5, 80, 76
11, 9360, Note_on_c, 5, 59, 76
11, 9479, Note_on_c, 5, 71, 0
11, 9479, Note_on_c, 5, 74, 0
11, 9479, Note_on_c, 5, 80, 0
11, 9479, Note_on_c, 5, 59, 0
11, 9480, Note_on_c, 5, 68, 76
11, 9480, Note_on_c, 5, 74, 76
11, 9480, Note_on_c, 5, 56, 76
11, 9480, Note_on_c, 5, 71, 76
11, 9599, Note_on_c, 5, 68, 0
11, 9599, Note_on_c, 5, 74, 0
11, 9599, Note_on_c, 5, 56, 0
11, 9599, Note_on_c, 5, 71, 0
11, 9600, Note_on_c, 5, 83, 76
11, 9600, Note_on_c, 5, 79, 76
11, 9600, Note_on_c, 5, 85, 76
11, 9600, Note_on_c, 5, 77, 76
11, 9600, Note_on_c, 5, 65, 76
11, 9959, Note_on_c, 5, 83, 0
11, 9959, Note_on_c, 5, 79, 0
11, 9959, Note_on_c, 5, 85, 0
11, 9959, Note_on_c, 5, 77, 0
11, 9959, Note_on_c, 5, 65, 0
11, 9960, Note_on_c, 5, 68, 76
11, 9960, Note_on_c, 5, 77, 76
11, 9960, Note_on_c, 5, 71, 76
11, 9960, Note_on_c, 5, 56, 76
11, 10079, Note_on_c, 5, 68, 0
11, 10079, Note_on_c, 5, 77, 0
11, 10079, Note_on_c, 5, 71, 0
11, 10079, Note_on_c, 5, 56, 0
11, 10080, Note_on_c, 5, 69, 76
11, 10080, Note_on_c, 5, 73, 76
11, 10080, Note_on_c, 5, 54, 76
11, 10080, Note_on_c, 5, 66, 76
11, 10199, Note_on_c, 5, 69, 0
11, 10199, Note_on_c, 5, 73, 0
11, 10199, Note_on_c, 5, 54, 0
11, 10199, Note_on_c, 5, 66, 0
11, 10200, Note_on_c, 5, 83, 76
11, 10200, Note_on_c, 5, 79, 76
11, 10200, Note_on_c, 5, 76, 76
11, 10200, Note_on_c, 5, 64, 76
11, 10319, Note_on_c, 5, 83, 0
11, 10319, Note_on_c, 5, 79, 0
11, 10319, Note_on_c, 5, 76, 0
11, 10319, Note_on_c, 5, 64, 0
11, 10320, Note_on_c, 5, 81, 76
11, 10320, Note_on_c, 5, 74, 76
11, 10320, Note_on_c, 5, 78, 76
11, 10320, Note_on_c, 5, 62, 76
11, 10439, Note_on_c, 5, 81, 0
11, 10439, Note_on_c, 5, 74, 0
11, 10439, Note_on_c, 5, 78, 0
11, 10439, Note_on_c, 5, 62, 0
11, 10440, Note_on_c, 5, 74, 76
11, 10440, Note_on_c, 5, 80, 76
11, 10440, Note_on_c, 5, 71, 76
11, 10440, Note_on_c, 5, 59, 76
11, 10559, Note_on_c, 5, 74, 0
11, 10559, Note_on_c, 5, 80, 0
11, 10559, Note_on_c, 5, 71, 0
11, 10559, Note_on_c, 5, 59, 0
11, 10560, Note_on_c, 5, 61, 76
11, 10560, Note_on_c, 5, 77, 76
11, 10560, Note_on_c, 5, 80, 76
11, 10560, Note_on_c, 5, 73, 76
11, 10799, Note_on_c, 5, 61, 0
11, 10799, Note_on_c, 5, 77, 0
11, 10799, Note_on_c, 5, 80, 0
11, 10799, Note_on_c, 5, 73, 0
11, 10800, Note_on_c, 5, 65, 76
11, 10800, Note_on_c, 5, 49, 76
11, 10800, Note_on_c, 5, 68, 76
11, 10800, Note_on_c, 5, 61, 76
11, 11039, Note_on_c, 5, 65, 0
11, 11039, Note_on_c, 5, 49, 0
11, 11039, Note_on_c, 5, 68, 0
11, 11039, Note_on_c, 5, 61, 0
11, 11040, Note_on_c, 5, 54, 76
11, 11040, Note_on_c, 5, 42, 76
11, 11040, Note_on_c, 5, 61, 76
11, 11040, Note_on_c, 5, 57, 76
11, 11519, Note_on_c, 5, 54, 0
11, 11519, Note_on_c, 5, 42, 0
11, 11519, Note_on_c, 5, 61, 0
11, 11519, Note_on_c, 5, 57, 0
11, 12240, Note_on_c, 5, 78, 76
11, 12240, Note_on_c, 5, 59, 76
11, 12240, Note_on_c, 5, 74, 76
11, 12240, Note_on_c, 5, 71, 76
11, 12479, Note_on_c, 5, 78, 0
11, 12479, Note_on_c, 5, 59, 0
11, 12479, Note_on_c, 5, 74, 0
11, 12479, Note_on_c, 5, 71, 0
11, 12480, Note_on_c, 5, 78, 76
11, 12480, Note_on_c, 5, 74, 76
11, 12480, Note_on_c, 5, 55, 76
11, 12480, Note_on_c, 5, 71, 76
11, 12480, Note_on_c, 5, 67, 76
11, 12719, Note_on_c, 5, 78, 0
11, 12719, Note_on_c, 5, 74, 0
11, 12719, Note_on_c, 5, 71, 0
11, 12719, Note_on_c, 5, 67, 0
11, 12720, Note_on_c, 5, 76, 76
11, 12720, Note_on_c, 5, 67, 76
11, 12720, Note_on_c, 5, 71, 76
11, 12839, Note_on_c, 5, 55, 0
11, 12839, Note_on_c, 5, 76, 0
11, 12839, Note_on_c, 5, 67, 0
11, 12839, Note_on_c, 5, 71, 0
11, 12840, Note_on_c, 5, 73, 76
11, 12840, Note_on_c, 5, 57, 76
11, 12840, Note_on_c, 5, 69, 76
11, 12840, Note_on_c, 5, 76, 76
11, 12959, Note_on_c, 5, 73, 0
11, 12959, Note_on_c, 5, 57, 0
11, 12959, Note_on_c, 5, 69, 0
11, 12959, Note_on_c, 5, 76, 0
11, 12960, Note_on_c, 5, 59, 76
11, 12960, Note_on_c, 5, 78, 76
11, 12960, Note_on_c, 5, 71, 76
11, 12960, Note_on_c, 5, 74, 76
11, 13199, Note_on_c, 5, 59, 0
11, 13199, Note_on_c, 5, 78, 0
11, 13199, Note_on_c, 5, 71, 0
11, 13199, Note_on_c, 5, 74, 0
11, 13200, Note_on_c, 5, 67, 76
11, 13200, Note_on_c, 5, 52, 76
11, 13200, Note_on_c, 5, 71, 76
11, 13200, Note_on_c, 5, 64, 76
11, 13200, Note_on_c, 5, 74, 76
11, 13439, Note_on_c, 5, 67, 0
11, 13439, Note_on_c, 5, 52, 0
11, 13439, Note_on_c, 5, 71, 0
11, 13439, Note_on_c, 5, 64, 0
11, 13439, Note_on_c, 5, 74, 0
11, 13440, Note_on_c, 5, 69, 76
11, 13440, Note_on_c, 5, 57, 76
11, 13440, Note_on_c, 5, 76, 76
11, 13440, Note_on_c, 5, 73, 76
11, 13679, Note_on_c, 5, 69, 0
11, 13679, Note_on_c, 5, 57, 0
11, 13679, Note_on_c, 5, 76, 0
11, 13679, Note_on_c, 5, 73, 0
11, 13680, Note_on_c, 5, 76, 76
11, 13680, Note_on_c, 5, 55, 76
11, 13680, Note_on_c, 5, 67, 76
11, 13680, Note_on_c, 5, 71, 76
11, 13919, Note_on_c, 5, 76, 0
11, 13919, Note_on_c, 5, 67, 0
11, 13919, Note_on_c, 5, 71, 0
11, 13920, Note_on_c, 5, 70, 76
11, 13920, Note_on_c, 5, 67, 76
11, 13920, Note_on_c, 5, 73, 76
11, 13920, Note_on_c, 5, 76, 76
11, 14159, Note_on_c, 5, 55, 0
11, 14159, Note_on_c, 5, 70, 0
11, 14159, Note_on_c, 5, 67, 0
11, 14159, Note_on_c, 5, 73, 0
11, 14159, Note_on_c, 5, 76, 0
11, 14160, Note_on_c, 5, 54, 76
11, 14160, Note_on_c, 5, 73, 76
11, 14160, Note_on_c, 5, 70, 76
11, 14160, Note_on_c, 5, 66, 76
11, 14279, Note_on_c, 5, 54, 0
11, 14279, Note_on_c, 5, 73, 0
11, 14279, Note_on_c, 5, 70, 0
11, 14279, Note_on_c, 5, 66, 0
11, 14280, Note_on_c, 5, 64, 76
11, 14280, Note_on_c, 5, 73, 76
11, 14280, Note_on_c, 5, 70, 76
11, 14280, Note_on_c, 5, 52, 76
11, 14399, Note_on_c, 5, 64, 0
11, 14399, Note_on_c, 5, 73, 0
11, 14399, Note_on_c, 5, 70, 0
11, 14399, Note_on_c, 5, 52, 0
11, 14400, Note_on_c, 5, 73, 76
11, 14400, Note_on_c, 5, 62, 76
11, 14400, Note_on_c, 5, 70, 76
11, 14400, Note_on_c, 5, 50, 76
11, 14519, Note_on_c, 5, 73, 0
11, 14519, Note_on_c, 5, 62, 0
11, 14519, Note_on_c, 5, 70, 0
11, 14519, Note_on_c, 5, 50, 0
11, 14520, Note_on_c, 5, 73, 76
11, 14520, Note_on_c, 5, 70, 76
11, 14520, Note_on_c, 5, 52, 76
11, 14520, Note_on_c, 5, 64, 76
11, 14639, Note_on_c, 5, 73, 0
11, 14639, Note_on_c, 5, 70, 0
11, 14639, Note_on_c, 5, 52, 0
11, 14639, Note_on_c, 5, 64, 0
11, 14640, Note_on_c, 5, 50, 76
11, 14640, Note_on_c, 5, 62, 76
11, 14640, Note_on_c, 5, 66, 76
11, 14640, Note_on_c, 5, 71, 76
11, 14759, Note_on_c, 5, 50, 0
11, 14759, Note_on_c, 5, 62, 0
11, 14759, Note_on_c, 5, 66, 0
11, 14759, Note_on_c, 5, 71, 0
11, 14760, Note_on_c, 5, 67, 76
11, 14760, Note_on_c, 5, 64, 76
11, 14760, Note_on_c, 5, 52, 76
11, 14760, Note_on_c, 5, 71, 76
11, 14879, Note_on_c, 5, 67, 0
11, 14879, Note_on_c, 5, 64, 0
11, 14879, Note_on_c, 5, 52, 0
11, 14879, Note_on_c, 5, 71, 0
11, 14880, Note_on_c, 5, 66, 76
11, 14880, Note_on_c, 5, 71, 76
11, 14880, Note_on_c, 5, 54, 76
11, 14880, Note_on_c, 5, 74, 76
11, 15119, Note_on_c, 5, 66, 0
11, 15119, Note_on_c, 5, 71, 0
11, 15119, Note_on_c, 5, 74, 0
11, 15120, Note_on_c, 5, 70, 76
11, 15120, Note_on_c, 5, 73, 76
11, 15120, Note_on_c, 5, 66, 76
11, 15120, Note_on_c, 5, 76, 76
11, 15239, Note_on_c, 5, 54, 0
11, 15239, Note_on_c, 5, 70, 0
11, 15239, Note_on_c, 5, 73, 0
11, 15239, Note_on_c, 5, 66, 0
11, 15239, Note_on_c, 5, 76, 0
11, 15240, Note_on_c, 5, 66, 76
11, 15240, Note_on_c, 5, 47, 76
11, 15240, Note_on_c, 5, 59, 76
11, 15240, Note_on_c, 5, 62, 76
11, 15359, Note_on_c, 5, 66, 0
11, 15359, Note_on_c, 5, 47, 0
11, 15359, Note_on_c, 5, 59, 0
11, 15359, Note_on_c, 5, 62, 0
11, 15360, Note_on_c, 5, 59, 76
11, 15360, Note_on_c, 5, 71, 76
11, 15360, Note_on_c, 5, 78, 76
11, 15360, Note_on_c, 5, 75, 76
11, 15599, Note_on_c, 5, 71, 0
11, 15599, Note_on_c, 5, 78, 0
11, 15599, Note_on_c, 5, 75, 0
11, 15600, Note_on_c, 5, 71, 76
11, 15600, Note_on_c, 5, 75, 76
11, 15600, Note_on_c, 5, 78, 76
11, 15719, Note_on_c, 5, 59, 0
11, 15719, Note_on_c, 5, 71, 0
11, 15719, Note_on_c, 5, 75, 0
11, 15719, Note_on_c, 5, 78, 0
11, 15720, Note_on_c, 5, 78, 76
11, 15720, Note_on_c, 5, 73, 76
11, 15720, Note_on_c, 5, 60, 76
11, 15720, Note_on_c, 5, 75, 76
11, 15839, Note_on_c, 5, 78, 0
11, 15839, Note_on_c, 5, 73, 0
11, 15839, Note_on_c, 5, 60, 0
11, 15839, Note_on_c, 5, 75, 0
11, 15840, Note_on_c, 5, 71, 76
11, 15840, Note_on_c, 5, 75, 76
11, 15840, Note_on_c, 5, 69, 76
11, 15840, Note_on_c, 5, 57, 76
11, 15840, Note_on_c, 5, 78, 76
11, 16079, Note_on_c, 5, 71, 0
11, 16079, Note_on_c, 5, 75, 0
11, 16079, Note_on_c, 5, 69, 0
11, 16079, Note_on_c, 5, 57, 0
11, 16079, Note_on_c, 5, 78, 0
11, 16080, Note_on_c, 5, 71, 76
11, 16080, Note_on_c, 5, 55, 76
11, 16080, Note_on_c, 5, 67, 76
11, 16080, Note_on_c, 5, 76, 76
11, 16199, Note_on_c, 5, 71, 0
11, 16199, Note_on_c, 5, 55, 0
11, 16199, Note_on_c, 5, 67, 0
11, 16199, Note_on_c, 5, 76, 0
11, 16200, Note_on_c, 5, 69, 76
11, 16200, Note_on_c, 5, 76, 76
11, 16200, Note_on_c, 5, 57, 76
11, 16200, Note_on_c, 5, 73, 76
11, 16319, Note_on_c, 5, 69, 0
11, 16319, Note_on_c, 5, 76, 0
11, 16319, Note_on_c, 5, 57, 0
11, 16319, Note_on_c, 5, 73, 0
11, 16320, Note_on_c, 5, 71, 76
11, 16320, Note_on_c, 5, 81, 76
11, 16320, Note_on_c, 5, 76, 76
11, 16320, Note_on_c, 5, 78, 76
11, 16320, Note_on_c, 5, 59, 76
11, 16559, Note_on_c, 5, 71, 0
11, 16559, Note_on_c, 5, 81, 0
11, 16559, Note_on_c, 5, 76, 0
11, 16559, Note_on_c, 5, 78, 0
11, 16559, Note_on_c, 5, 59, 0
11, 16560, Note_on_c, 5, 78, 76
11, 16560, Note_on_c, 5, 75, 76
11, 16560, Note_on_c, 5, 81, 76
11, 16799, Note_on_c, 5, 78, 0
11, 16799, Note_on_c, 5, 75, 0
11, 16799, Note_on_c, 5, 81, 0
11, 16920, Note_on_c, 5, 76, 76
11, 16920, Note_on_c, 5, 83, 76
11, 16920, Note_on_c, 5, 64, 76
11, 16920, Note_on_c, 5, 79, 76
11, 17039, Note_on_c, 5, 76, 0
11, 17039, Note_on_c, 5, 83, 0
11, 17039, Note_on_c, 5, 64, 0
11, 17039, Note_on_c, 5, 79, 0
11, 17040, Note_on_c, 5, 83, 76
11, 17040, Note_on_c, 5, 76, 76
11, 17040, Note_on_c, 5, 80, 76
11, 17040, Note_on_c, 5, 74, 76
11, 17040, Note_on_c, 5, 62, 76
11, 17159, Note_on_c, 5, 83, 0
11, 17159, Note_on_c, 5, 76, 0
11, 17159, Note_on_c, 5, 80, 0
11, 17159, Note_on_c, 5, 74, 0
11, 17159, Note_on_c, 5, 62, 0
11, 17160, Note_on_c, 5, 61, 76
11, 17160, Note_on_c, 5, 73, 76
11, 17160, Note_on_c, 5, 80, 76
11, 17160, Note_on_c, 5, 76, 76
11, 17279, Note_on_c, 5, 61, 0
11, 17279, Note_on_c, 5, 73, 0
11, 17279, Note_on_c, 5, 80, 0
11, 17279, Note_on_c, 5, 76, 0
11, 17280, Note_on_c, 5, 62, 76
11, 17280, Note_on_c, 5, 80, 76
11, 17280, Note_on_c, 5, 74, 76
11, 17280, Note_on_c, 5, 76, 76
11, 17399, Note_on_c, 5, 62, 0
11, 17399, Note_on_c, 5, 80, 0
11, 17399, Note_on_c, 5, 74, 0
11, 17399, Note_on_c, 5, 76, 0
11, 17400, Note_on_c, 5, 78, 76
11, 17400, Note_on_c, 5, 71, 76
11, 17400, Note_on_c, 5, 59, 76
11, 17400, Note_on_c, 5, 74, 76
11, 17519, Note_on_c, 5, 78, 0
11, 17519, Note_on_c, 5, 71, 0
11, 17519, Note_on_c, 5, 59, 0
11, 17519, Note_on_c, 5, 74, 0
11, 17520, Note_on_c, 5, 61, 76
11, 17520, Note_on_c, 5, 81, 76
11, 17520, Note_on_c, 5, 76, 76
11, 17520, Note_on_c, 5, 73, 76
11, 17639, Note_on_c, 5, 61, 0
11, 17639, Note_on_c, 5, 81, 0
11, 17639, Note_on_c, 5, 76, 0
11, 17639, Note_on_c, 5, 73, 0
11, 17640, Note_on_c, 5, 57, 76
11, 17640, Note_on_c, 5, 76, 76
11, 17640, Note_on_c, 5, 73, 76
11, 17640, Note_on_c, 5, 69, 76
11, 17759, Note_on_c, 5, 57, 0
11, 17759, Note_on_c, 5, 76, 0
11, 17759, Note_on_c, 5, 73, 0
11, 17759, Note_on_c, 5, 69, 0
11, 17760, Note_on_c, 5, 82, 76
11, 17760, Note_on_c, 5, 73, 76
11, 17760, Note_on_c, 5, 61, 76
11, 17760, Note_on_c, 5, 76, 76
11, 17774, Note_on_c, 5, 61, 0
11, 17775, Note_on_c, 5, 62, 76
11, 17789, Note_on_c, 5, 62, 0
11, 17790, Note_on_c, 5, 61, 76
11, 17804, Note_on_c, 5, 61, 0
11, 17805, Note_on_c, 5, 62, 76
11, 17819, Note_on_c, 5, 62, 0
11, 17820, Note_on_c, 5, 61, 76
11, 17834, Note_on_c, 5, 61, 0
11, 17835, Note_on_c, 5, 62, 76
11, 17849, Note_on_c, 5, 62, 0
11, 17850, Note_on_c, 5, 61, 76
11, 17864, Note_on_c, 5, 61, 0
11, 17865, Note_on_c, 5, 62, 76
11, 17879, Note_on_c, 5, 62, 0
11, 17880, Note_on_c, 5, 61, 76
11, 17894, Note_on_c, 5, 61, 0
11, 17895, Note_on_c, 5, 62, 76
11, 17909, Note_on_c, 5, 62, 0
11, 17910, Note_on_c, 5, 61, 76
11, 17924, Note_on_c, 5, 61, 0
11, 17925, Note_on_c, 5, 62, 76
11, 17939, Note_on_c, 5, 62, 0
11, 17940, Note_on_c, 5, 61, 76
11, 17954, Note_on_c, 5, 61, 0
11, 17955, Note_on_c, 5, 62, 76
11, 17969, Note_on_c, 5, 62, 0
11, 17970, Note_on_c, 5, 61, 76
11, 17984, Note_on_c, 5, 61, 0
11, 17985, Note_on_c, 5, 62, 76
11, 17999, Note_on_c, 5, 62, 0
11, 18000, Note_on_c, 5, 61, 76
11, 18014, Note_on_c, 5, 61, 0
11, 18015, Note_on_c, 5, 62, 76
11, 18029, Note_on_c, 5, 62, 0
11, 18030, Note_on_c, 5, 61, 76
11, 18044, Note_on_c, 5, 61, 0
11, 18045, Note_on_c, 5, 62, 76
11, 18059, Note_on_c, 5, 62, 0
11, 18060, Note_on_c, 5, 61, 76
11, 18074, Note_on_c, 5, 61, 0
11, 18075, Note_on_c, 5, 62, 76
11, 18089, Note_on_c, 5, 62, 0
11, 18090, Note_on_c, 5, 61, 76
11, 18104, Note_on_c, 5, 61, 0
11, 18105, Note_on_c, 5, 62, 76
11, 18119, Note_on_c, 5, 82, 0
11, 18119, Note_on_c, 5, 73, 0
11, 18119, Note_on_c, 5, 76, 0
11, 18119, Note_on_c, 5, 62, 0
11, 18120, Note_on_c, 5, 74, 76
11, 18120, Note_on_c, 5, 71, 76
11, 18120, Note_on_c, 5, 78, 76
11, 18120, Note_on_c, 5, 59, 76
11, 18179, Note_on_c, 5, 74, 0
11, 18179, Note_on_c, 5, 71, 0
11, 18179, Note_on_c, 5, 78, 0
11, 18179, Note_on_c, 5, 59, 0
11, 18180, Note_on_c, 5, 76, 76
11, 18180, Note_on_c, 5, 73, 76
11, 18180, Note_on_c, 5, 61, 76
11, 18180, Note_on_c, 5, 79, 76
11, 18239, Note_on_c, 5, 76, 0
11, 18239, Note_on_c, 5, 73, 0
11, 18239, Note_on_c, 5, 61, 0
11, 18239, Note_on_c, 5, 79, 0
11, 18240, Note_on_c, 5, 62, 76
11, 18240, Note_on_c, 5, 83, 76
11, 18240, Note_on_c, 5, 74, 76
11, 18240, Note_on_c, 5, 78, 76
11, 18359, Note_on_c, 5, 62, 0
11, 18359, Note_on_c, 5, 83, 0
11, 18359, Note_on_c, 5, 74, 0
11, 18359, Note_on_c, 5, 78, 0
11, 18360, Note_on_c, 5, 78, 76
11, 18360, Note_on_c, 5, 81, 76
11, 18360, Note_on_c, 5, 85, 76
11, 18360, Note_on_c, 5, 66, 76
11, 18479, Note_on_c, 5, 78, 0
11, 18479, Note_on_c, 5, 81, 0
11, 18479, Note_on_c, 5, 85, 0
11, 18479, Note_on_c, 5, 66, 0
11, 18480, Note_on_c, 5, 83, 76
11, 18480, Note_on_c, 5, 64, 76
11, 18480, Note_on_c, 5, 79, 76
11, 18480, Note_on_c, 5, 76, 76
11, 18599, Note_on_c, 5, 83, 0
11, 18599, Note_on_c, 5, 64, 0
11, 18599, Note_on_c, 5, 79, 0
11, 18599, Note_on_c, 5, 76, 0
11, 18600, Note_on_c, 5, 78, 76
11, 18600, Note_on_c, 5, 81, 76
11, 18600, Note_on_c, 5, 74, 76
11, 18600, Note_on_c, 5, 62, 76
11, 18719, Note_on_c, 5, 78, 0
11, 18719, Note_on_c, 5, 81, 0
11, 18719, Note_on_c, 5, 74, 0
11, 18719, Note_on_c, 5, 62, 0
11, 18720, Note_on_c, 5, 83, 76
11, 18720, Note_on_c, 5, 79, 76
11, 18720, Note_on_c, 5, 76, 76
11, 18720, Note_on_c, 5, 61, 76
11, 18720, Note_on_c, 5, 73, 76
11, 18839, Note_on_c, 5, 83, 0
11, 18839, Note_on_c, 5, 79, 0
11, 18839, Note_on_c, 5, 76, 0
11, 18839, Note_on_c, 5, 61, 0
11, 18839, Note_on_c, 5, 73, 0
11, 18840, Note_on_c, 5, 78, 76
11, 18840, Note_on_c, 5, 74, 76
11, 18840, Note_on_c, 5, 62, 76
11, 18840, Note_on_c, 5, 81, 76
11, 18959, Note_on_c, 5, 78, 0
11, 18959, Note_on_c, 5, 74, 0
11, 18959, Note_on_c, 5, 62, 0
11, 18959, Note_on_c, 5, 81, 0
11, 18960, Note_on_c, 5, 79, 76
11, 18960, Note_on_c, 5, 83, 76
11, 18960, Note_on_c, 5, 85, 76
11, 18960, Note_on_c, 5, 76, 76
11, 18960, Note_on_c, 5, 64, 76
11, 19079, Note_on_c, 5, 79, 0
11, 19079, Note_on_c, 5, 83, 0
11, 19079, Note_on_c, 5, 85, 0
11, 19079, Note_on_c, 5, 76, 0
11, 19079, Note_on_c, 5, 64, 0
11, 19080, Note_on_c, 5, 78, 76
11, 19080, Note_on_c, 5, 62, 76
11, 19080, Note_on_c, 5, 74, 76
11, 19080, Note_on_c, 5, 81, 76
11, 19199, Note_on_c, 5, 78, 0
11, 19199, Note_on_c, 5, 62, 0
11, 19199, Note_on_c, 5, 74, 0
11, 19199, Note_on_c, 5, 81, 0
11, 19200, Note_on_c, 5, 76, 76
11, 19200, Note_on_c, 5, 73, 76
11, 19200, Note_on_c, 5, 82, 76
11, 19200, Note_on_c, 5, 61, 76
11, 19319, Note_on_c, 5, 76, 0
11, 19319, Note_on_c, 5, 73, 0
11, 19319, Note_on_c, 5, 82, 0
11, 19319, Note_on_c, 5, 61, 0
11, 19320, Note_on_c, 5, 78, 76
11, 19320, Note_on_c, 5, 74, 76
11, 19320, Note_on_c, 5, 59, 76
11, 19320, Note_on_c, 5, 71, 76
11, 19439, Note_on_c, 5, 78, 0
11, 19439, Note_on_c, 5, 74, 0
11, 19439, Note_on_c, 5, 59, 0
11, 19439, Note_on_c, 5, 71, 0
11, 19440, Note_on_c, 5, 70, 76
11, 19440, Note_on_c, 5, 78, 76
11, 19440, Note_on_c, 5, 73, 76
11, 19440, Note_on_c, 5, 76, 76
11, 19440, Note_on_c, 5, 58, 76
11, 19559, Note_on_c, 5, 70, 0
11, 19559, Note_on_c, 5, 78, 0
11, 19559, Note_on_c, 5, 73, 0
11, 19559, Note_on_c, 5, 76, 0
11, 19559, Note_on_c, 5, 58, 0
11, 19560, Note_on_c, 5, 71, 76
11, 19560, Note_on_c, 5, 74, 76
11, 19560, Note_on_c, 5, 56, 76
11, 19560, Note_on_c, 5, 68, 76
11, 19679, Note_on_c, 5, 71, 0
11, 19679, Note_on_c, 5, 74, 0
11, 19679, Note_on_c, 5, 56, 0
11, 19679, Note_on_c, 5, 68, 0
11, 19680, Note_on_c, 5, 73, 76
11, 19680, Note_on_c, 5, 70, 76
11, 19680, Note_on_c, 5, 54, 76
11, 19680, Note_on_c, 5, 76, 76
11, 19680, Note_on_c, 5, 66, 76
11, 19799, Note_on_c, 5, 73, 0
11, 19799, Note_on_c, 5, 70, 0
11, 19799, Note_on_c, 5, 54, 0
11, 19799, Note_on_c, 5, 76, 0
11, 19799, Note_on_c, 5, 66, 0
11, 19800, Note_on_c, 5, 68, 76
11, 19800, Note_on_c, 5, 71, 76
11, 19800, Note_on_c, 5, 56, 76
11, 19800, Note_on_c, 5, 74, 76
11, 19919, Note_on_c, 5, 68, 0
11, 19919, Note_on_c, 5, 71, 0
11, 19919, Note_on_c, 5, 56, 0
11, 19919, Note_on_c, 5, 74, 0
11, 19920, Note_on_c, 5, 71, 76
11, 19920, Note_on_c, 5, 69, 76
11, 19920, Note_on_c, 5, 78, 76
11, 19920, Note_on_c, 5, 75, 76
11, 19920, Note_on_c, 5, 57, 76
11, 20399, Note_on_c, 5, 71, 0
11, 20399, Note_on_c, 5, 69, 0
11, 20399, Note_on_c, 5, 78, 0
11, 20399, Note_on_c, 5, 75, 0
11, 20400, Note_on_c, 5, 69, 76
11, 20400, Note_on_c, 5, 75, 76
11, 20400, Note_on_c, 5, 71, 76
11, 20639, Note_on_c, 5, 57, 0
11, 20639, Note_on_c, 5, 69, 0
11, 20639, Note_on_c, 5, 75, 0
11, 20639, Note_on_c, 5, 71, 0
11, 20640, Note_on_c, 5, 77, 76
11, 20640, Note_on_c, 5, 71, 76
11, 20640, Note_on_c, 5, 68, 76
11, 20640, Note_on_c, 5, 56, 76
11, 20759, Note_on_c, 5, 77, 0
11, 20759, Note_on_c, 5, 71, 0
11, 20759, Note_on_c, 5, 68, 0
11, 20759, Note_on_c, 5, 56, 0
11, 20760, Note_on_c, 5, 77, 76
11, 20760, Note_on_c, 5, 69, 76
11, 20760, Note_on_c, 5, 57, 76
11, 20760, Note_on_c, 5, 73, 76
11, 20879, Note_on_c, 5, 77, 0
11, 20879, Note_on_c, 5, 69, 0
11, 20879, Note_on_c, 5, 57, 0
11, 20879, Note_on_c, 5, 73, 0
11, 20880, Note_on_c, 5, 71, 76
11, 20880, Note_on_c, 5, 74, 76
11, 20880, Note_on_c, 5, 80, 76
11, 20880, Note_on_c, 5, 59, 76
11, 20999, Note_on_c, 5, 71, 0
11, 20999, Note_on_c, 5, 74, 0
11, 20999, Note_on_c, 5, 80, 0
11, 20999, Note_on_c, 5, 59, 0
11, 21000, Note_on_c, 5, 68, 76
11, 21000, Note_on_c, 5, 74, 76
11, 21000, Note_on_c, 5, 71, 76
11, 21000, Note_on_c, 5, 56, 76
11, 21119, Note_on_c, 5, 68, 0
11, 21119, Note_on_c, 5, 74, 0
11, 21119, Note_on_c, 5, 71, 0
11, 21119, Note_on_c, 5, 56, 0
11, 21120, Note_on_c, 5, 77, 76
11, 21120, Note_on_c, 5, 65, 76
11, 21120, Note_on_c, 5, 85, 76
11, 21120, Note_on_c, 5, 83, 76
11, 21120, Note_on_c, 5, 79, 76
11, 21479, Note_on_c, 5, 77, 0
11, 21479, Note_on_c, 5, 65, 0
11, 21479, Note_on_c, 5, 85, 0
11, 21479, Note_on_c, 5, 83, 0
11, 21479, Note_on_c, 5, 79, 0
11, 21480, Note_on_c, 5, 77, 76
11, 21480, Note_on_c, 5, 71, 76
11, 21480, Note_on_c, 5, 68, 76
11, 21480, Note_on_c, 5, 56, 76
11, 21599, Note_on_c, 5, 77, 0
11, 21599, Note_on_c, 5, 71, 0
11, 21599, Note_on_c, 5, 68, 0
11, 21599, Note_on_c, 5, 56, 0
11, 21600, Note_on_c, 5, 66, 76
11, 21600, Note_on_c, 5, 69, 76
11, 21600, Note_on_c, 5, 73, 76
11, 21600, Note_on_c, 5, 54, 76
11, 21719, Note_on_c, 5, 66, 0
11, 21719, Note_on_c, 5, 69, 0
11, 21719, Note_on_c, 5, 73, 0
11, 21719, Note_on_c, 5, 54, 0
11, 21720, Note_on_c, 5, 64, 76
11, 21720, Note_on_c, 5, 79, 76
11, 21720, Note_on_c, 5, 83, 76
11, 21720, Note_on_c, 5, 76, 76
11, 21839, Note_on_c, 5, 64, 0
11, 21839, Note_on_c, 5, 79, 0
11, 21839, Note_on_c, 5, 83, 0
11, 21839, Note_on_c, 5, 76, 0
11, 21840, Note_on_c, 5, 62, 76
11, 21840, Note_on_c, 5, 78, 76
11, 21840, Note_on_c, 5, 74, 76
11, 21840, Note_on_c, 5, 81, 76
11, 21959, Note_on_c, 5, 62, 0
11, 21959, Note_on_c, 5, 78, 0
11, 21959, Note_on_c, 5, 74, 0
11, 21959, Note_on_c, 5, 81, 0
11, 21960, Note_on_c, 5, 80, 76
11, 21960, Note_on_c, 5, 71, 76
11, 21960, Note_on_c, 5, 74, 76
11, 21960, Note_on_c, 5, 59, 76
11, 22079, Note_on_c, 5, 80, 0
11, 22079, Note_on_c, 5, 71, 0
11, 22079, Note_on_c, 5, 74, 0
11, 22079, Note_on_c, 5, 59, 0
11, 22080, Note_on_c, 5, 77, 76
11, 22080, Note_on_c, 5, 80, 76
11, 22080, Note_on_c, 5, 61, 76
11, 22080, Note_on_c, 5, 73, 76
11, 22319, Note_on_c, 5, 77, 0
11, 22319, Note_on_c, 5, 80, 0
11, 22319, Note_on_c, 5, 61, 0
11, 22319, Note_on_c, 5, 73, 0
11, 22320, Note_on_c, 5, 49, 76
11, 22320, Note_on_c, 5, 65, 76
11, 22320, Note_on_c, 5, 68, 76
11, 22320, Note_on_c, 5, 61, 76
11, 22559, Note_on_c, 5, 49, 0
11, 22559, Note_on_c, 5, 65, 0
11, 22559, Note_on_c, 5, 68, 0
11, 22559, Note_on_c, 5, 61, 0
11, 22560, Note_on_c, 5, 54, 76
11, 22560, Note_on_c, 5, 61, 76
11, 22560, Note_on_c, 5, 57, 76
11, 22560, Note_on_c, 5, 42, 76
11, 23039, Note_on_c, 5, 54, 0
11, 23039, Note_on_c, 5, 61, 0
11, 23039, Note_on_c, 5, 57, 0
11, 23039, Note_on_c, 5, 42, 0
11, 23760, Note_on_c, 5, 70, 76
11, 23760, Note_on_c, 5, 66, 76
11, 23760, Note_on_c, 5, 73, 76
11, 23760, Note_on_c, 5, 54, 76
11, 23999, Note_on_c, 5, 70, 0
11, 23999, Note_on_c, 5, 66, 0
11, 23999, Note_on_c, 5, 73, 0
11, 23999, Note_on_c, 5, 54, 0
11, 24000, Note_on_c, 5, 66, 76
11, 24000, Note_on_c, 5, 50, 76
11, 24000, Note_on_c, 5, 69, 76
11, 24000, Note_on_c, 5, 62, 76
11, 24000, Note_on_c, 5, 73, 76
11, 24239, Note_on_c, 5, 66, 0
11, 24239, Note_on_c, 5, 69, 0
11, 24239, Note_on_c, 5, 62, 0
11, 24239, Note_on_c, 5, 73, 0
11, 24240, Note_on_c, 5, 66, 76
11, 24240, Note_on_c, 5, 62, 76
11, 24240, Note_on_c, 5, 71, 76
11, 24359, Note_on_c, 5, 50, 0
11, 24359, Note_on_c, 5, 66, 0
11, 24359, Note_on_c, 5, 62, 0
11, 24359, Note_on_c, 5, 71, 0
11, 24360, Note_on_c, 5, 71, 76
11, 24360, Note_on_c, 5, 52, 76
11, 24360, Note_on_c, 5, 64, 76
11, 24360, Note_on_c, 5, 67, 76
11, 24479, Note_on_c, 5, 71, 0
11, 24479, Note_on_c, 5, 52, 0
11, 24479, Note_on_c, 5, 64, 0
11, 24479, Note_on_c, 5, 67, 0
11, 24480, Note_on_c, 5, 54, 76
11, 24480, Note_on_c, 5, 78, 76
11, 24480, Note_on_c, 5, 66, 76
11, 24480, Note_on_c, 5, 73, 76
11, 24480, Note_on_c, 5, 70, 76
11, 24599, Note_on_c, 5, 78, 0
11, 24599, Note_on_c, 5, 66, 0
11, 24599, Note_on_c, 5, 73, 0
11, 24599, Note_on_c, 5, 70, 0
11, 24600, Note_on_c, 5, 73, 76
11, 24600, Note_on_c, 5, 66, 76
11, 24600, Note_on_c, 5, 70, 76
11, 24600, Note_on_c, 5, 76, 76
11, 24719, Note_on_c, 5, 54, 0
11, 24719, Note_on_c, 5, 73, 0
11, 24719, Note_on_c, 5, 66, 0
11, 24719, Note_on_c, 5, 70, 0
11, 24719, Note_on_c, 5, 76, 0
11, 24720, Note_on_c, 5, 66, 76
11, 24720, Note_on_c, 5, 62, 76
11, 24720, Note_on_c, 5, 59, 76
11, 24720, Note_on_c, 5, 47, 76
11, 24959, Note_on_c, 5, 66, 0
11, 24959, Note_on_c, 5, 62, 0
11, 24959, Note_on_c, 5, 59, 0
11, 24959, Note_on_c, 5, 47, 0
11, 24960, Note_on_c, 5, 59, 76
11, 24960, Note_on_c, 5, 74, 76
11, 24960, Note_on_c, 5, 71, 76
11, 24960, Note_on_c, 5, 78, 76
11, 25319, Note_on_c, 5, 59, 0
11, 25319, Note_on_c, 5, 74, 0
11, 25319, Note_on_c, 5, 71, 0
11, 25319, Note_on_c, 5, 78, 0
11, 25320, Note_on_c, 5, 69, 76
11, 25320, Note_on_c, 5, 74, 76
11, 25320, Note_on_c, 5, 57, 76
11, 25320, Note_on_c, 5, 78, 76
11, 25439, Note_on_c, 5, 69, 0
11, 25439, Note_on_c, 5, 74, 0
11, 25439, Note_on_c, 5, 57, 0
11, 25439, Note_on_c, 5, 78, 0
11, 25440, Note_on_c, 5, 76, 76
11, 25440, Note_on_c, 5, 71, 76
11, 25440, Note_on_c, 5, 68, 76
11, 25440, Note_on_c, 5, 56, 76
11, 25559, Note_on_c, 5, 76, 0
11, 25559, Note_on_c, 5, 71, 0
11, 25559, Note_on_c, 5, 68, 0
11, 25559, Note_on_c, 5, 56, 0
11, 25560, Note_on_c, 5, 73, 76
11, 25560, Note_on_c, 5, 69, 76
11, 25560, Note_on_c, 5, 54, 76
11, 25560, Note_on_c, 5, 66, 76
11, 25679, Note_on_c, 5, 73, 0
11, 25679, Note_on_c, 5, 69, 0
11, 25679, Note_on_c, 5, 54, 0
11, 25679, Note_on_c, 5, 66, 0
11, 25680, Note_on_c, 5, 57, 76
11, 25680, Note_on_c, 5, 69, 76
11, 25680, Note_on_c, 5, 76, 76
11, 25680, Note_on_c, 5, 73, 76
11, 25799, Note_on_c, 5, 57, 0
11, 25799, Note_on_c, 5, 69, 0
11, 25799, Note_on_c, 5, 76, 0
11, 25799, Note_on_c, 5, 73, 0
11, 25800, Note_on_c, 5, 56, 76
11, 25800, Note_on_c, 5, 71, 76
11, 25800, Note_on_c, 5, 74, 76
11, 25800, Note_on_c, 5, 68, 76
11, 25919, Note_on_c, 5, 56, 0
11, 25919, Note_on_c, 5, 71, 0
11, 25919, Note_on_c, 5, 74, 0
11, 25919, Note_on_c, 5, 68, 0
11, 25920, Note_on_c, 5, 67, 76
11, 25920, Note_on_c, 5, 66, 76
11, 25920, Note_on_c, 5, 74, 76
11, 25920, Note_on_c, 5, 71, 76
11, 25920, Note_on_c, 5, 54, 76
11, 26039, Note_on_c, 5, 67, 0
11, 26039, Note_on_c, 5, 66, 0
11, 26039, Note_on_c, 5, 74, 0
11, 26039, Note_on_c, 5, 71, 0
11, 26039, Note_on_c, 5, 54, 0
11, 26040, Note_on_c, 5, 64, 76
11, 26040, Note_on_c, 5, 52, 76
11, 26040, Note_on_c, 5, 71, 76
11, 26040, Note_on_c, 5, 67, 76
11, 26159, Note_on_c, 5, 64, 0
11, 26159, Note_on_c, 5, 52, 0
11, 26159, Note_on_c, 5, 71, 0
11, 26159, Note_on_c, 5, 67, 0
11, 26160, Note_on_c, 5, 69, 76
11, 26160, Note_on_c, 5, 76, 76
11, 26160, Note_on_c, 5, 57, 76
11, 26160, Note_on_c, 5, 74, 76
11, 26399, Note_on_c, 5, 69, 0
11, 26399, Note_on_c, 5, 76, 0
11, 26399, Note_on_c, 5, 74, 0
11, 26400, Note_on_c, 5, 76, 76
11, 26400, Note_on_c, 5, 69, 76
11, 26400, Note_on_c, 5, 73, 76
11, 26639, Note_on_c, 5, 57, 0
11, 26639, Note_on_c, 5, 76, 0
11, 26639, Note_on_c, 5, 69, 0
11, 26639, Note_on_c, 5, 73, 0
11, 26640, Note_on_c, 5, 69, 76
11, 26640, Note_on_c, 5, 73, 76
11, 26640, Note_on_c, 5, 67, 76
11, 26640, Note_on_c, 5, 76, 76
11, 26640, Note_on_c, 5, 55, 76
11, 26879, Note_on_c, 5, 69, 0
11, 26879, Note_on_c, 5, 73, 0
11, 26879, Note_on_c, 5, 67, 0
11, 26879, Note_on_c, 5, 76, 0
11, 26880, Note_on_c, 5, 76, 76
11, 26880, Note_on_c, 5, 73, 76
11, 26880, Note_on_c, 5, 69, 76
11, 26880, Note_on_c, 5, 67, 76
11, 27119, Note_on_c, 5, 55, 0
11, 27119, Note_on_c, 5, 76, 0
11, 27119, Note_on_c, 5, 73, 0
11, 27119, Note_on_c, 5, 69, 0
11, 27119, Note_on_c, 5, 67, 0
11, 27120, Note_on_c, 5, 66, 76
11, 27120, Note_on_c, 5, 54, 76
11, 27120, Note_on_c, 5, 74, 76
11, 27120, Note_on_c, 5, 69, 76
11, 27239, Note_on_c, 5, 66, 0
11, 27239, Note_on_c, 5, 54, 0
11, 27239, Note_on_c, 5, 74, 0
11, 27239, Note_on_c, 5, 69, 0
11, 27240, Note_on_c, 5, 71, 76
11, 27240, Note_on_c, 5, 74, 76
11, 27240, Note_on_c, 5, 55, 76
11, 27240, Note_on_c, 5, 67, 76
11, 27359, Note_on_c, 5, 71, 0
11, 27359, Note_on_c, 5, 74, 0
11, 27359, Note_on_c, 5, 55, 0
11, 27359, Note_on_c, 5, 67, 0
11, 27360, Note_on_c, 5, 57, 76
11, 27360, Note_on_c, 5, 74, 76
11, 27360, Note_on_c, 5, 72, 76
11, 27360, Note_on_c, 5, 78, 76
11, 27360, Note_on_c, 5, 69, 76
11, 27479, Note_on_c, 5, 57, 0
11, 27479, Note_on_c, 5, 74, 0
11, 27479, Note_on_c, 5, 72, 0
11, 27479, Note_on_c, 5, 78, 0
11, 27479, Note_on_c, 5, 69, 0
11, 27480, Note_on_c, 5, 66, 76
11, 27480, Note_on_c, 5, 54, 76
11, 27480, Note_on_c, 5, 69, 76
11, 27480, Note_on_c, 5, 72, 76
11, 27599, Note_on_c, 5, 66, 0
11, 27599, Note_on_c, 5, 54, 0
11, 27599, Note_on_c, 5, 69, 0
11, 27599, Note_on_c, 5, 72, 0
11, 27600, Note_on_c, 5, 66, 76
11, 27600, Note_on_c, 5, 69, 76
11, 27600, Note_on_c, 5, 72, 76
11, 27600, Note_on_c, 5, 50, 76
11, 27600, Note_on_c, 5, 62, 76
11, 27839, Note_on_c, 5, 66, 0
11, 27839, Note_on_c, 5, 69, 0
11, 27839, Note_on_c, 5, 72, 0
11, 27839, Note_on_c, 5, 50, 0
11, 27839, Note_on_c, 5, 62, 0
11, 27840, Note_on_c, 5, 81, 76
11, 27840, Note_on_c, 5, 62, 76
11, 27840, Note_on_c, 5, 74, 76
11, 27840, Note_on_c, 5, 78, 76
11, 28079, Note_on_c, 5, 81, 0
11, 28079, Note_on_c, 5, 62, 0
11, 28079, Note_on_c, 5, 74, 0
11, 28079, Note_on_c, 5, 78, 0
11, 28440, Note_on_c, 5, 79, 76
11, 28440, Note_on_c, 5, 60, 76
11, 28440, Note_on_c, 5, 74, 76
11, 28440, Note_on_c, 5, 72, 76
11, 28559, Note_on_c, 5, 79, 0
11, 28559, Note_on_c, 5, 60, 0
11, 28559, Note_on_c, 5, 74, 0
11, 28559, Note_on_c, 5, 72, 0
11, 28560, Note_on_c, 5, 74, 76
11, 28560, Note_on_c, 5, 79, 76
11, 28560, Note_on_c, 5, 59, 76
11, 28560, Note_on_c, 5, 71, 76
11, 28679, Note_on_c, 5, 74, 0
11, 28679, Note_on_c, 5, 79, 0
11, 28679, Note_on_c, 5, 59, 0
11, 28679, Note_on_c, 5, 71, 0
11, 28680, Note_on_c, 5, 79, 76
11, 28680, Note_on_c, 5, 74, 76
11, 28680, Note_on_c, 5, 72, 76
11, 28680, Note_on_c, 5, 60, 76
11, 28739, Note_on_c, 5, 79, 0
11, 28739, Note_on_c, 5, 74, 0
11, 28739, Note_on_c, 5, 72, 0
11, 28739, Note_on_c, 5, 60, 0
11, 28740, Note_on_c, 5, 81, 76
11, 28740, Note_on_c, 5, 74, 76
11, 28740, Note_on_c, 5, 62, 76
11, 28740, Note_on_c, 5, 78, 76
11, 28799, Note_on_c, 5, 81, 0
11, 28799, Note_on_c, 5, 74, 0
11, 28799, Note_on_c, 5, 62, 0
11, 28799, Note_on_c, 5, 78, 0
11, 28800, Note_on_c, 5, 67, 76
11, 28800, Note_on_c, 5, 71, 76
11, 28800, Note_on_c, 5, 74, 76
11, 28800, Note_on_c, 5, 55, 76
11, 28919, Note_on_c, 5, 67, 0
11, 28919, Note_on_c, 5, 71, 0
11, 28919, Note_on_c, 5, 74, 0
11, 28919, Note_on_c, 5, 55, 0
11, 28920, Note_on_c, 5, 54, 76
11, 28920, Note_on_c, 5, 69, 76
11, 28920, Note_on_c, 5, 66, 76
11, 28920, Note_on_c, 5, 72, 76
11, 29039, Note_on_c, 5, 54, 0
11, 29039, Note_on_c, 5, 69, 0
11, 29039, Note_on_c, 5, 66, 0
11, 29039, Note_on_c, 5, 72, 0
11, 29040, Note_on_c, 5, 67, 76
11, 29040, Note_on_c, 5, 71, 76
11, 29040, Note_on_c, 5, 64, 76
11, 29040, Note_on_c, 5, 73, 76
11, 29040, Note_on_c, 5, 52, 76
11, 29159, Note_on_c, 5, 67, 0
11, 29159, Note_on_c, 5, 71, 0
11, 29159, Note_on_c, 5, 64, 0
11, 29159, Note_on_c, 5, 73, 0
11, 29159, Note_on_c, 5, 52, 0
11, 29160, Note_on_c, 5, 50, 76
11, 29160, Note_on_c, 5, 66, 76
11, 29160, Note_on_c, 5, 69, 76
11, 29160, Note_on_c, 5, 62, 76
11, 29279, Note_on_c, 5, 50, 0
11, 29279, Note_on_c, 5, 66, 0
11, 29279, Note_on_c, 5, 69, 0
11, 29279, Note_on_c, 5, 62, 0
11, 29280, Note_on_c, 5, 70, 76
11, 29280, Note_on_c, 5, 61, 76
11, 29280, Note_on_c, 5, 49, 76
11, 29280, Note_on_c, 5, 64, 76
11, 29519, Note_on_c, 5, 70, 0
11, 29519, Note_on_c, 5, 61, 0
11, 29519, Note_on_c, 5, 49, 0
11, 29519, Note_on_c, 5, 64, 0
11, 29520, Note_on_c, 5, 85, 76
11, 29520, Note_on_c, 5, 79, 76
11, 29520, Note_on_c, 5, 64, 76
11, 29520, Note_on_c, 5, 76, 76
11, 29759, Note_on_c, 5, 85, 0
11, 29759, Note_on_c, 5, 79, 0
11, 29759, Note_on_c, 5, 76, 0
11, 29760, Note_on_c, 5, 76, 76
11, 29760, Note_on_c, 5, 85, 76
11, 29760, Note_on_c, 5, 78, 76
11, 29760, Note_on_c, 5, 82, 76
11, 29999, Note_on_c, 5, 64, 0
11, 29999, Note_on_c, 5, 76, 0
11, 29999, Note_on_c, 5, 85, 0
11, 29999, Note_on_c, 5, 78, 0
11, 29999, Note_on_c, 5, 82, 0
11, 30000, Note_on_c, 5, 83, 76
11, 30000, Note_on_c, 5, 78, 76
11, 30000, Note_on_c, 5, 75, 76
11, 30000, Note_on_c, 5, 63, 76
11, 30119, Note_on_c, 5, 83, 0
11, 30119, Note_on_c, 5, 78, 0
11, 30119, Note_on_c, 5, 75, 0
11, 30119, Note_on_c, 5, 63, 0
11, 30120, Note_on_c, 5, 79, 76
11, 30120, Note_on_c, 5, 83, 76
11, 30120, Note_on_c, 5, 76, 76
11, 30120, Note_on_c, 5, 64, 76
11, 30239, Note_on_c, 5, 79, 0
11, 30239, Note_on_c, 5, 83, 0
11, 30239, Note_on_c, 5, 76, 0
11, 30239, Note_on_c, 5, 64, 0
11, 30240, Note_on_c, 5, 81, 76
11, 30240, Note_on_c, 5, 87, 76
11, 30240, Note_on_c, 5, 66, 76
11, 30240, Note_on_c, 5, 78, 76
11, 30359, Note_on_c, 5, 81, 0
11, 30359, Note_on_c, 5, 87, 0
11, 30359, Note_on_c, 5, 66, 0
11, 30359, Note_on_c, 5, 78, 0
11, 30360, Note_on_c, 5, 75, 76
11, 30360, Note_on_c, 5, 63, 76
11, 30360, Note_on_c, 5, 81, 76
11, 30360, Note_on_c, 5, 78, 76
11, 30479, Note_on_c, 5, 75, 0
11, 30479, Note_on_c, 5, 63, 0
11, 30479, Note_on_c, 5, 81, 0
11, 30479, Note_on_c, 5, 78, 0
11, 30480, Note_on_c, 5, 71, 76
11, 30480, Note_on_c, 5, 78, 76
11, 30480, Note_on_c, 5, 75, 76
11, 30480, Note_on_c, 5, 81, 76
11, 30480, Note_on_c, 5, 59, 76
11, 30719, Note_on_c, 5, 71, 0
11, 30719, Note_on_c, 5, 78, 0
11, 30719, Note_on_c, 5, 75, 0
11, 30719, Note_on_c, 5, 81, 0
11, 30719, Note_on_c, 5, 59, 0
11, 30720, Note_on_c, 5, 79, 76
11, 30720, Note_on_c, 5, 76, 76
11, 30720, Note_on_c, 5, 64, 76
11, 30720, Note_on_c, 5, 83, 76
11, 30959, Note_on_c, 5, 79, 0
11, 30959, Note_on_c, 5, 76, 0
11, 30959, Note_on_c, 5, 64, 0
11, 30959, Note_on_c, 5, 83, 0
11, 30960, Note_on_c, 5, 74, 76
11, 30960, Note_on_c, 5, 78, 76
11, 30960, Note_on_c, 5, 62, 76
11, 30960, Note_on_c, 5, 83, 76
11, 31199, Note_on_c, 5, 74, 0
11, 31199, Note_on_c, 5, 78, 0
11, 31199, Note_on_c, 5, 83, 0
11, 31200, Note_on_c, 5, 76, 76
11, 31200, Note_on_c, 5, 79, 76
11, 31200, Note_on_c, 5, 74, 76
11, 31200, Note_on_c, 5, 83, 76
11, 31319, Note_on_c, 5, 62, 0
11, 31319, Note_on_c, 5, 76, 0
11, 31319, Note_on_c, 5, 79, 0
11, 31319, Note_on_c, 5, 74, 0
11, 31319, Note_on_c, 5, 83, 0
11, 31320, Note_on_c, 5, 79, 76
11, 31320, Note_on_c, 5, 73, 76
11, 31320, Note_on_c, 5, 61, 76
11, 31320, Note_on_c, 5, 76, 76
11, 31379, Note_on_c, 5, 79, 0
11, 31379, Note_on_c, 5, 73, 0
11, 31379, Note_on_c, 5, 61, 0
11, 31379, Note_on_c, 5, 76, 0
11, 31380, Note_on_c, 5, 74, 76
11, 31380, Note_on_c, 5, 78, 76
11, 31380, Note_on_c, 5, 59, 76
11, 31380, Note_on_c, 5, 71, 76
11, 31439, Note_on_c, 5, 74, 0
11, 31439, Note_on_c, 5, 78, 0
11, 31439, Note_on_c, 5, 59, 0
11, 31439, Note_on_c, 5, 71, 0
11, 31440, Note_on_c, 5, 82, 76
11, 31440, Note_on_c, 5, 61, 76
11, 31440, Note_on_c, 5, 76, 76
11, 31440, Note_on_c, 5, 73, 76
11, 31559, Note_on_c, 5, 82, 0
11, 31559, Note_on_c, 5, 61, 0
11, 31559, Note_on_c, 5, 76, 0
11, 31559, Note_on_c, 5, 73, 0
11, 31560, Note_on_c, 5, 79, 76
11, 31560, Note_on_c, 5, 64, 76
11, 31560, Note_on_c, 5, 76, 76
11, 31560, Note_on_c, 5, 83, 76
11, 31679, Note_on_c, 5, 79, 0
11, 31679, Note_on_c, 5, 64, 0
11, 31679, Note_on_c, 5, 76, 0
11, 31679, Note_on_c, 5, 83, 0
11, 31680, Note_on_c, 5, 76, 76
11, 31680, Note_on_c, 5, 79, 76
11, 31680, Note_on_c, 5, 71, 76
11, 31680, Note_on_c, 5, 59, 76
11, 31799, Note_on_c, 5, 76, 0
11, 31799, Note_on_c, 5, 79, 0
11, 31799, Note_on_c, 5, 71, 0
11, 31799, Note_on_c, 5, 59, 0
11, 31800, Note_on_c, 5, 83, 76
11, 31800, Note_on_c, 5, 76, 76
11, 31800, Note_on_c, 5, 64, 76
11, 31800, Note_on_c, 5, 79, 76
11, 31919, Note_on_c, 5, 83, 0
11, 31919, Note_on_c, 5, 76, 0
11, 31919, Note_on_c, 5, 64, 0
11, 31919, Note_on_c, 5, 79, 0
11, 31920, Note_on_c, 5, 76, 76
11, 31920, Note_on_c, 5, 78, 76
11, 31920, Note_on_c, 5, 58, 76
11, 31920, Note_on_c, 5, 70, 76
11, 31920, Note_on_c, 5, 73, 76
11, 32519, Note_on_c, 5, 76, 0
11, 32519, Note_on_c, 5, 78, 0
11, 32519, Note_on_c, 5, 58, 0
11, 32519, Note_on_c, 5, 70, 0
11, 32519, Note_on_c, 5, 73, 0
11, 32520, Note_on_c, 5, 61, 76
11, 32520, Note_on_c, 5, 49, 76
11, 32520, Note_on_c, 5, 70, 76
11, 32520, Note_on_c, 5, 64, 76
11, 32639, Note_on_c, 5, 61, 0
11, 32639, Note_on_c, 5, 49, 0
11, 32639, Note_on_c, 5, 70, 0
11, 32639, Note_on_c, 5, 64, 0
11, 32640, Note_on_c, 5, 59, 76
11, 32640, Note_on_c, 5, 66, 76
11, 32640, Note_on_c, 5, 47, 76
11, 32640, Note_on_c, 5, 62, 76
11, 32759, Note_on_c, 5, 59, 0
11, 32759, Note_on_c, 5, 66, 0
11, 32759, Note_on_c, 5, 47, 0
11, 32759, Note_on_c, 5, 62, 0
11, 32760, Note_on_c, 5, 78, 76
11, 32760, Note_on_c, 5, 57, 76
11, 32760, Note_on_c, 5, 69, 76
11, 32760, Note_on_c, 5, 73, 76
11, 32879, Note_on_c, 5, 78, 0
11, 32879, Note_on_c, 5, 57, 0
11, 32879, Note_on_c, 5, 69, 0
11, 32879, Note_on_c, 5, 73, 0
11, 32880, Note_on_c, 5, 74, 76
11, 32880, Note_on_c, 5, 71, 76
11, 32880, Note_on_c, 5, 55, 76
11, 32880, Note_on_c, 5, 67, 76
11, 32999, Note_on_c, 5, 74, 0
11, 32999, Note_on_c, 5, 71, 0
11, 32999, Note_on_c, 5, 55, 0
11, 32999, Note_on_c, 5, 67, 0
11, 33000, Note_on_c, 5, 73, 76
11, 33000, Note_on_c, 5, 54, 76
11, 33000, Note_on_c, 5, 70, 76
11, 33000, Note_on_c, 5, 66, 76
11, 33000, Note_on_c, 5, 76, 76
11, 33119, Note_on_c, 5, 73, 0
11, 33119, Note_on_c, 5, 54, 0
11, 33119, Note_on_c, 5, 70, 0
11, 33119, Note_on_c, 5, 66, 0
11, 33119, Note_on_c, 5, 76, 0
11, 33120, Note_on_c, 5, 74, 76
11, 33120, Note_on_c, 5, 71, 76
11, 33120, Note_on_c, 5, 78, 76
11, 33120, Note_on_c, 5, 59, 76
11, 33239, Note_on_c, 5, 74, 0
11, 33239, Note_on_c, 5, 71, 0
11, 33239, Note_on_c, 5, 78, 0
11, 33239, Note_on_c, 5, 59, 0
11, 33240, Note_on_c, 5, 73, 76
11, 33240, Note_on_c, 5, 76, 76
11, 33240, Note_on_c, 5, 57, 76
11, 33240, Note_on_c, 5, 69, 76
11, 33359, Note_on_c, 5, 73, 0
11, 33359, Note_on_c, 5, 76, 0
11, 33359, Note_on_c, 5, 57, 0
11, 33359, Note_on_c, 5, 69, 0
11, 33360, Note_on_c, 5, 71, 76
11, 33360, Note_on_c, 5, 67, 76
11, 33360, Note_on_c, 5, 55, 76
11, 33360, Note_on_c, 5, 74, 76
11, 33479, Note_on_c, 5, 71, 0
11, 33479, Note_on_c, 5, 67, 0
11, 33479, Note_on_c, 5, 55, 0
11, 33479, Note_on_c, 5, 74, 0
11, 33480, Note_on_c, 5, 73, 76
11, 33480, Note_on_c, 5, 67, 76
11, 33480, Note_on_c, 5, 52, 76
11, 33480, Note_on_c, 5, 71, 76
11, 33480, Note_on_c, 5, 64, 76
11, 33599, Note_on_c, 5, 73, 0
11, 33599, Note_on_c, 5, 67, 0
11, 33599, Note_on_c, 5, 52, 0
11, 33599, Note_on_c, 5, 71, 0
11, 33599, Note_on_c, 5, 64, 0
11, 33600, Note_on_c, 5, 66, 76
11, 33600, Note_on_c, 5, 73, 76
11, 33600, Note_on_c, 5, 70, 76
11, 33600, Note_on_c, 5, 54, 76
11, 33839, Note_on_c, 5, 66, 0
11, 33839, Note_on_c, 5, 73, 0
11, 33839, Note_on_c, 5, 70, 0
11, 33839, Note_on_c, 5, 54, 0
11, 33840, Note_on_c, 5, 58, 76
11, 33840, Note_on_c, 5, 61, 76
11, 33840, Note_on_c, 5, 42, 76
11, 33840, Note_on_c, 5, 54, 76
11, 34079, Note_on_c, 5, 58, 0
11, 34079, Note_on_c, 5, 61, 0
11, 34079, Note_on_c, 5, 42, 0
11, 34079, Note_on_c, 5, 54, 0
11, 34080, Note_on_c, 5, 66, 76
11, 34080, Note_on_c, 5, 47, 76
11, 34080, Note_on_c, 5, 59, 76
11, 34080, Note_on_c, 5, 62, 76
11, 34559, Note_on_c, 5, 66, 0
11, 34559, Note_on_c, 5, 47, 0
11, 34559, Note_on_c, 5, 59, 0
11, 34559, Note_on_c, 5, 62, 0
11, 35280, Note_on_c, 5, 54, 76
11, 35280, Note_on_c, 5, 66, 76
11, 35280, Note_on_c, 5, 73, 76
11, 35280, Note_on_c, 5, 70, 76
11, 35519, Note_on_c, 5, 54, 0
11, 35519, Note_on_c, 5, 66, 0
11, 35519, Note_on_c, 5, 73, 0
11, 35519, Note_on_c, 5, 70, 0
11, 35520, Note_on_c, 5, 73, 76
11, 35520, Note_on_c, 5, 50, 76
11, 35520, Note_on_c, 5, 66, 76
11, 35520, Note_on_c, 5, 69, 76
11, 35520, Note_on_c, 5, 62, 76
11, 35759, Note_on_c, 5, 73, 0
11, 35759, Note_on_c, 5, 66, 0
11, 35759, Note_on_c, 5, 69, 0
11, 35759, Note_on_c, 5, 62, 0
11, 35760, Note_on_c, 5, 66, 76
11, 35760, Note_on_c, 5, 71, 76
11, 35760, Note_on_c, 5, 62, 76
11, 35879, Note_on_c, 5, 50, 0
11, 35879, Note_on_c, 5, 66, 0
11, 35879, Note_on_c, 5, 71, 0
11, 35879, Note_on_c, 5, 62, 0
11, 35880, Note_on_c, 5, 64, 76
11, 35880, Note_on_c, 5, 71, 76
11, 35880, Note_on_c, 5, 67, 76
11, 35880, Note_on_c, 5, 52, 76
11, 35999, Note_on_c, 5, 64, 0
11, 35999, Note_on_c, 5, 71, 0
11, 35999, Note_on_c, 5, 67, 0
11, 35999, Note_on_c, 5, 52, 0
11, 36000, Note_on_c, 5, 54, 76
11, 36000, Note_on_c, 5, 66, 76
11, 36000, Note_on_c, 5, 78, 76
11, 36000, Note_on_c, 5, 73, 76
11, 36000, Note_on_c, 5, 70, 76
11, 36119, Note_on_c, 5, 66, 0
11, 36119, Note_on_c, 5, 78, 0
11, 36119, Note_on_c, 5, 73, 0
11, 36119, Note_on_c, 5, 70, 0
11, 36120, Note_on_c, 5, 73, 76
11, 36120, Note_on_c, 5, 76, 76
11, 36120, Note_on_c, 5, 66, 76
11, 36120, Note_on_c, 5, 70, 76
11, 36239, Note_on_c, 5, 54, 0
11, 36239, Note_on_c, 5, 73, 0
11, 36239, Note_on_c, 5, 76, 0
11, 36239, Note_on_c, 5, 66, 0
11, 36239, Note_on_c, 5, 70, 0
11, 36240, Note_on_c, 5, 66, 76
11, 36240, Note_on_c, 5, 59, 76
11, 36240, Note_on_c, 5, 62, 76
11, 36240, Note_on_c, 5, 47, 76
11, 36479, Note_on_c, 5, 66, 0
11, 36479, Note_on_c, 5, 59, 0
11, 36479, Note_on_c, 5, 62, 0
11, 36479, Note_on_c, 5, 47, 0
11, 36480, Note_on_c, 5, 74, 76
11, 36480, Note_on_c, 5, 71, 76
11, 36480, Note_on_c, 5, 78, 76
11, 36480, Note_on_c, 5, 59, 76
11, 36839, Note_on_c, 5, 74, 0
11, 36839, Note_on_c, 5, 71, 0
11, 36839, Note_on_c, 5, 78, 0
11, 36839, Note_on_c, 5, 59, 0
11, 36840, Note_on_c, 5, 74, 76
11, 36840, Note_on_c, 5, 57, 76
11, 36840, Note_on_c, 5, 69, 76
11, 36840, Note_on_c, 5, 78, 76
11, 36959, Note_on_c, 5, 74, 0
11, 36959, Note_on_c, 5, 57, 0
11, 36959, Note_on_c, 5, 69, 0
11, 36959, Note_on_c, 5, 78, 0
11, 36960, Note_on_c, 5, 68, 76
11, 36960, Note_on_c, 5, 56, 76
11, 36960, Note_on_c, 5, 76, 76
11, 36960, Note_on_c, 5, 71, 76
11, 37079, Note_on_c, 5, 68, 0
11, 37079, Note_on_c, 5, 56, 0
11, 37079, Note_on_c, 5, 76, 0
11, 37079, Note_on_c, 5, 71, 0
11, 37080, Note_on_c, 5, 54, 76
11, 37080, Note_on_c, 5, 73, 76
11, 37080, Note_on_c, 5, 66, 76
11, 37080, Note_on_c, 5, 69, 76
11, 37199, Note_on_c, 5, 54, 0
11, 37199, Note_on_c, 5, 73, 0
11, 37199, Note_on_c, 5, 66, 0
11, 37199, Note_on_c, 5, 69, 0
11, 37200, Note_on_c, 5, 57, 76
11, 37200, Note_on_c, 5, 73, 76
11, 37200, Note_on_c, 5, 69, 76
11, 37200, Note_on_c, 5, 76, 76
11, 37319, Note_on_c, 5, 57, 0
11, 37319, Note_on_c, 5, 73, 0
11, 37319, Note_on_c, 5, 69, 0
11, 37319, Note_on_c, 5, 76, 0
11, 37320, Note_on_c, 5, 71, 76
11, 37320, Note_on_c, 5, 74, 76
11, 37320, Note_on_c, 5, 56, 76
11, 37320, Note_on_c, 5, 68, 76
11, 37439, Note_on_c, 5, 71, 0
11, 37439, Note_on_c, 5, 74, 0
11, 37439, Note_on_c, 5, 56, 0
11, 37439, Note_on_c, 5, 68, 0
11, 37440, Note_on_c, 5, 66, 76
11, 37440, Note_on_c, 5, 67, 76
11, 37440, Note_on_c, 5, 74, 76
11, 37440, Note_on_c, 5, 54, 76
11, 37440, Note_on_c, 5, 71, 76
11, 37559, Note_on_c, 5, 66, 0
11, 37559, Note_on_c, 5, 67, 0
11, 37559, Note_on_c, 5, 74, 0
11, 37559, Note_on_c, 5, 54, 0
11, 37559, Note_on_c, 5, 71, 0
11, 37560, Note_on_c, 5, 71, 76
11, 37560, Note_on_c, 5, 67, 76
11, 37560, Note_on_c, 5, 64, 76
11, 37560, Note_on_c, 5, 52, 76
11, 37679, Note_on_c, 5, 71, 0
11, 37679, Note_on_c, 5, 67, 0
11, 37679, Note_on_c, 5, 64, 0
11, 37679, Note_on_c, 5, 52, 0
11, 37680, Note_on_c, 5, 57, 76
11, 37680, Note_on_c, 5, 74, 76
11, 37680, Note_on_c, 5, 69, 76
11, 37680, Note_on_c, 5, 76, 76
11, 37919, Note_on_c, 5, 74, 0
11, 37919, Note_on_c, 5, 69, 0
11, 37919, Note_on_c, 5, 76, 0
11, 37920, Note_on_c, 5, 76, 76
11, 37920, Note_on_c, 5, 69, 76
11, 37920, Note_on_c, 5, 73, 76
11, 38159, Note_on_c, 5, 57, 0
11, 38159, Note_on_c, 5, 76, 0
11, 38159, Note_on_c, 5, 69, 0
11, 38159, Note_on_c, 5, 73, 0
11, 38160, Note_on_c, 5, 76, 76
11, 38160, Note_on_c, 5, 55, 76
11, 38160, Note_on_c, 5, 67, 76
11, 38160, Note_on_c, 5, 73, 76
11, 38160, Note_on_c, 5, 69, 76
11, 38399, Note_on_c, 5, 76, 0
11, 38399, Note_on_c, 5, 67, 0
11, 38399, Note_on_c, 5, 73, 0
11, 38399, Note_on_c, 5, 69, 0
11, 38400, Note_on_c, 5, 69, 76
11, 38400, Note_on_c, 5, 76, 76
11, 38400, Note_on_c, 5, 67, 76
11, 38400, Note_on_c, 5, 73, 76
11, 38639, Note_on_c, 5, 55, 0
11, 38639, Note_on_c, 5, 69, 0
11, 38639, Note_on_c, 5, 76, 0
11, 38639, Note_on_c, 5, 67, 0
11, 38639, Note_on_c, 5, 73, 0
11, 38640, Note_on_c, 5, 74, 76
11, 38640, Note_on_c, 5, 69, 76
11, 38640, Note_on_c, 5, 66, 76
11, 38640, Note_on_c, 5, 54, 76
11, 38759, Note_on_c, 5, 74, 0
11, 38759, Note_on_c, 5, 69, 0
11, 38759, Note_on_c, 5, 66, 0
11, 38759, Note_on_c, 5, 54, 0
11, 38760, Note_on_c, 5, 67, 76
11, 38760, Note_on_c, 5, 55, 76
11, 38760, Note_on_c, 5, 71, 76
11, 38760, Note_on_c, 5, 74, 76
11, 38879, Note_on_c, 5, 67, 0
11, 38879, Note_on_c, 5, 55, 0
11, 38879, Note_on_c, 5, 71, 0
11, 38879, Note_on_c, 5, 74, 0
11, 38880, Note_on_c, 5, 78, 76
11, 38880, Note_on_c, 5, 74, 76
11, 38880, Note_on_c, 5, 69, 76
11, 38880, Note_on_c, 5, 57, 76
11, 38880, Note_on_c, 5, 72, 76
11, 38999, Note_on_c, 5, 78, 0
11, 38999, Note_on_c, 5, 74, 0
11, 38999, Note_on_c, 5, 69, 0
11, 38999, Note_on_c, 5, 57, 0
11, 38999, Note_on_c, 5, 72, 0
11, 39000, Note_on_c, 5, 69, 76
11, 39000, Note_on_c, 5, 66, 76
11, 39000, Note_on_c, 5, 54, 76
11, 39000, Note_on_c, 5, 72, 76
11, 39119, Note_on_c, 5, 69, 0
11, 39119, Note_on_c, 5, 66, 0
11, 39119, Note_on_c, 5, 54, 0
11, 39119, Note_on_c, 5, 72, 0
11, 39120, Note_on_c, 5, 66, 76
11, 39120, Note_on_c, 5, 62, 76
11, 39120, Note_on_c, 5, 69, 76
11, 39120, Note_on_c, 5, 72, 76
11, 39120, Note_on_c, 5, 50, 76
11, 39359, Note_on_c, 5, 66, 0
11, 39359, Note_on_c, 5, 62, 0
11, 39359, Note_on_c, 5, 69, 0
11, 39359, Note_on_c, 5, 72, 0
11, 39359, Note_on_c, 5, 50, 0
11, 39360, Note_on_c, 5, 62, 76
11, 39360, Note_on_c, 5, 81, 76
11, 39360, Note_on_c, 5, 78, 76
11, 39360, Note_on_c, 5, 74, 76
11, 39599, Note_on_c, 5, 62, 0
11, 39599, Note_on_c, 5, 81, 0
11, 39599, Note_on_c, 5, 78, 0
11, 39599, Note_on_c, 5, 74, 0
11, 39960, Note_on_c, 5, 74, 76
11, 39960, Note_on_c, 5, 72, 76
11, 39960, Note_on_c, 5, 60, 76
11, 39960, Note_on_c, 5, 79, 76
11, 40079, Note_on_c, 5, 74, 0
11, 40079, Note_on_c, 5, 72, 0
11, 40079, Note_on_c, 5, 60, 0
11, 40079, Note_on_c, 5, 79, 0
11, 40080, Note_on_c, 5, 74, 76
11, 40080, Note_on_c, 5, 59, 76
11, 40080, Note_on_c, 5, 71, 76
11, 40080, Note_on_c, 5, 79, 76
11, 40199, Note_on_c, 5, 74, 0
11, 40199, Note_on_c, 5, 59, 0
11, 40199, Note_on_c, 5, 71, 0
11, 40199, Note_on_c, 5, 79, 0
11, 40200, Note_on_c, 5, 79, 76
11, 40200, Note_on_c, 5, 60, 76
11, 40200, Note_on_c, 5, 72, 76
11, 40200, Note_on_c, 5, 74, 76
11, 40259, Note_on_c, 5, 79, 0
11, 40259, Note_on_c, 5, 60, 0
11, 40259, Note_on_c, 5, 72, 0
11, 40259, Note_on_c, 5, 74, 0
11, 40260, Note_on_c, 5, 62, 76
11, 40260, Note_on_c, 5, 74, 76
11, 40260, Note_on_c, 5, 81, 76
11, 40260, Note_on_c, 5, 78, 76
11, 40319, Note_on_c, 5, 62, 0
11, 40319, Note_on_c, 5, 74, 0
11, 40319, Note_on_c, 5, 81, 0
11, 40319, Note_on_c, 5, 78, 0
11, 40320, Note_on_c, 5, 71, 76
11, 40320, Note_on_c, 5, 67, 76
11, 40320, Note_on_c, 5, 55, 76
11, 40320, Note_on_c, 5, 74, 76
11, 40439, Note_on_c, 5, 71, 0
11, 40439, Note_on_c, 5, 67, 0
11, 40439, Note_on_c, 5, 55, 0
11, 40439, Note_on_c, 5, 74, 0
11, 40440, Note_on_c, 5, 69, 76
11, 40440, Note_on_c, 5, 72, 76
11, 40440, Note_on_c, 5, 54, 76
11, 40440, Note_on_c, 5, 66, 76
11, 40559, Note_on_c, 5, 69, 0
11, 40559, Note_on_c, 5, 72, 0
11, 40559, Note_on_c, 5, 54, 0
11, 40559, Note_on_c, 5, 66, 0
11, 40560, Note_on_c, 5, 67, 76
11, 40560, Note_on_c, 5, 73, 76
11, 40560, Note_on_c, 5, 71, 76
11, 40560, Note_on_c, 5, 64, 76
11, 40560, Note_on_c, 5, 52, 76
11, 40679, Note_on_c, 5, 67, 0
11, 40679, Note_on_c, 5, 73, 0
11, 40679, Note_on_c, 5, 71, 0
11, 40679, Note_on_c, 5, 64, 0
11, 40679, Note_on_c, 5, 52, 0
11, 40680, Note_on_c, 5, 62, 76
11, 40680, Note_on_c, 5, 66, 76
11, 40680, Note_on_c, 5, 69, 76
11, 40680, Note_on_c, 5, 50, 76
11, 40799, Note_on_c, 5, 62, 0
11, 40799, Note_on_c, 5, 66, 0
11, 40799, Note_on_c, 5, 69, 0
11, 40799, Note_on_c, 5, 50, 0
11, 40800, Note_on_c, 5, 64, 76
11, 40800, Note_on_c, 5, 49, 76
11, 40800, Note_on_c, 5, 70, 76
11, 40800, Note_on_c, 5, 61, 76
11, 41039, Note_on_c, 5, 64, 0
11, 41039, Note_on_c, 5, 49, 0
11, 41039, Note_on_c, 5, 70, 0
11, 41039, Note_on_c, 5, 61, 0
11, 41040, Note_on_c, 5, 79, 76
11, 41040, Note_on_c, 5, 64, 76
11, 41040, Note_on_c, 5, 85, 76
11, 41040, Note_on_c, 5, 76, 76
11, 41279, Note_on_c, 5, 79, 0
11, 41279, Note_on_c, 5, 85, 0
11, 41279, Note_on_c, 5, 76, 0
11, 41280, Note_on_c, 5, 78, 76
11, 41280, Note_on_c, 5, 85, 76
11, 41280, Note_on_c, 5, 82, 76
11, 41280, Note_on_c, 5, 76, 76
11, 41519, Note_on_c, 5, 64, 0
11, 41519, Note_on_c, 5, 78, 0
11, 41519, Note_on_c, 5, 85, 0
11, 41519, Note_on_c, 5, 82, 0
11, 41519, Note_on_c, 5, 76, 0
11, 41520, Note_on_c, 5, 83, 76
11, 41520, Note_on_c, 5, 63, 76
11, 41520, Note_on_c, 5, 75, 76
11, 41520, Note_on_c, 5, 78, 76
11, 41639, Note_on_c, 5, 83, 0
11, 41639, Note_on_c, 5, 63, 0
11, 41639, Note_on_c, 5, 75, 0
11, 41639, Note_on_c, 5, 78, 0
11, 41640, Note_on_c, 5, 64, 76
11, 41640, Note_on_c, 5, 83, 76
11, 41640, Note_on_c, 5, 76, 76
11, 41640, Note_on_c, 5, 79, 76
11, 41759, Note_on_c, 5, 64, 0
11, 41759, Note_on_c, 5, 83, 0
11, 41759, Note_on_c, 5, 76, 0
11, 41759, Note_on_c, 5, 79, 0
11, 41760, Note_on_c, 5, 78, 76
11, 41760, Note_on_c, 5, 87, 76
11, 41760, Note_on_c, 5, 81, 76
11, 41760, Note_on_c, 5, 66, 76
11, 41879, Note_on_c, 5, 78, 0
11, 41879, Note_on_c, 5, 87, 0
11, 41879, Note_on_c, 5, 81, 0
11, 41879, Note_on_c, 5, 66, 0
11, 41880, Note_on_c, 5, 63, 76
11, 41880, Note_on_c, 5, 78, 76
11, 41880, Note_on_c, 5, 75, 76
11, 41880, Note_on_c, 5, 81, 76
11, 41999, Note_on_c, 5, 63, 0
11, 41999, Note_on_c, 5, 78, 0
11, 41999, Note_on_c, 5, 75, 0
11, 41999, Note_on_c, 5, 81, 0
11, 42000, Note_on_c, 5, 81, 76
11, 42000, Note_on_c, 5, 71, 76
11, 42000, Note_on_c, 5, 75, 76
11, 42000, Note_on_c, 5, 59, 76
11, 42000, Note_on_c, 5, 78, 76
11, 42239, Note_on_c, 5, 81, 0
11, 42239, Note_on_c, 5, 71, 0
11, 42239, Note_on_c, 5, 75, 0
11, 42239, Note_on_c, 5, 59, 0
11, 42239, Note_on_c, 5, 78, 0
11, 42240, Note_on_c, 5, 64, 76
11, 42240, Note_on_c, 5, 79, 76
11, 42240, Note_on_c, 5, 76, 76
11, 42240, Note_on_c, 5, 83, 76
11, 42479, Note_on_c, 5, 64, 0
11, 42479, Note_on_c, 5, 79, 0
11, 42479, Note_on_c, 5, 76, 0
11, 42479, Note_on_c, 5, 83, 0
11, 42480, Note_on_c, 5, 74, 76
11, 42480, Note_on_c, 5, 62, 76
11, 42480, Note_on_c, 5, 83, 76
11, 42480, Note_on_c, 5, 78, 76
11, 42719, Note_on_c, 5, 74, 0
11, 42719, Note_on_c, 5, 83, 0
11, 42719, Note_on_c, 5, 78, 0
11, 42720, Note_on_c, 5, 76, 76
11, 42720, Note_on_c, 5, 83, 76
11, 42720, Note_on_c, 5, 74, 76
11, 42720, Note_on_c, 5, 79, 76
11, 42839, Note_on_c, 5, 62, 0
11, 42839, Note_on_c, 5, 76, 0
11, 42839, Note_on_c, 5, 83, 0
11, 42839, Note_on_c, 5, 74, 0
11, 42839, Note_on_c, 5, 79, 0
11, 42840, Note_on_c, 5, 79, 76
11, 42840, Note_on_c, 5, 76, 76
11, 42840, Note_on_c, 5, 73, 76
11, 42840, Note_on_c, 5, 61, 76
11, 42899, Note_on_c, 5, 79, 0
11, 42899, Note_on_c, 5, 76, 0
11, 42899, Note_on_c, 5, 73, 0
11, 42899, Note_on_c, 5, 61, 0
11, 42900, Note_on_c, 5, 78, 76
11, 42900, Note_on_c, 5, 74, 76
11, 42900, Note_on_c, 5, 59, 76
11, 42900, Note_on_c, 5, 71, 76
11, 42959, Note_on_c, 5, 78, 0
11, 42959, Note_on_c, 5, 74, 0
11, 42959, Note_on_c, 5, 59, 0
11, 42959, Note_on_c, 5, 71, 0
11, 42960, Note_on_c, 5, 73, 76
11, 42960, Note_on_c, 5, 76, 76
11, 42960, Note_on_c, 5, 61, 76
11, 42960, Note_on_c, 5, 82, 76
11, 43079, Note_on_c, 5, 73, 0
11, 43079, Note_on_c, 5, 76, 0
11, 43079, Note_on_c, 5, 61, 0
11, 43079, Note_on_c, 5, 82, 0
11, 43080, Note_on_c, 5, 79, 76
11, 43080, Note_on_c, 5, 76, 76
11, 43080, Note_on_c, 5, 83, 76
11, 43080, Note_on_c, 5, 64, 76
11, 43199, Note_on_c, 5, 79, 0
11, 43199, Note_on_c, 5, 76, 0
11, 43199, Note_on_c, 5, 83, 0
11, 43199, Note_on_c, 5, 64, 0
11, 43200, Note_on_c, 5, 79, 76
11, 43200, Note_on_c, 5, 71, 76
11, 43200, Note_on_c, 5, 76, 76
11, 43200, Note_on_c, 5, 59, 76
11, 43319, Note_on_c, 5, 79, 0
11, 43319, Note_on_c, 5, 71, 0
11, 43319, Note_on_c, 5, 76, 0
11, 43319, Note_on_c, 5, 59, 0
11, 43320, Note_on_c, 5, 83, 76
11, 43320, Note_on_c, 5, 79, 76
11, 43320, Note_on_c, 5, 76, 76
11, 43320, Note_on_c, 5, 64, 76
11, 43439, Note_on_c, 5, 83, 0
11, 43439, Note_on_c, 5, 79, 0
11, 43439, Note_on_c, 5, 76, 0
11, 43439, Note_on_c, 5, 64, 0
11, 43440, Note_on_c, 5, 78, 76
11, 43440, Note_on_c, 5, 76, 76
11, 43440, Note_on_c, 5, 73, 76
11, 43440, Note_on_c, 5, 58, 76
11, 43440, Note_on_c, 5, 70, 76
11, 44039, Note_on_c, 5, 78, 0
11, 44039, Note_on_c, 5, 76, 0
11, 44039, Note_on_c, 5, 73, 0
11, 44039, Note_on_c, 5, 58, 0
11, 44039, Note_on_c, 5, 70, 0
11, 44040, Note_on_c, 5, 64, 76
11, 44040, Note_on_c, 5, 61, 76
11, 44040, Note_on_c, 5, 70, 76
11, 44040, Note_on_c, 5, 49, 76
11, 44159, Note_on_c, 5, 64, 0
11, 44159, Note_on_c, 5, 61, 0
11, 44159, Note_on_c, 5, 70, 0
11, 44159, Note_on_c, 5, 49, 0
11, 44160, Note_on_c, 5, 66, 76
11, 44160, Note_on_c, 5, 47, 76
11, 44160, Note_on_c, 5, 59, 76
11, 44160, Note_on_c, 5, 62, 76
11, 44279, Note_on_c, 5, 66, 0
11, 44279, Note_on_c, 5, 47, 0
11, 44279, Note_on_c, 5, 59, 0
11, 44279, Note_on_c, 5, 62, 0
11, 44280, Note_on_c, 5, 73, 76
11, 44280, Note_on_c, 5, 69, 76
11, 44280, Note_on_c, 5, 78, 76
11, 44280, Note_on_c, 5, 57, 76
11, 44399, Note_on_c, 5, 73, 0
11, 44399, Note_on_c, 5, 69, 0
11, 44399, Note_on_c, 5, 78, 0
11, 44399, Note_on_c, 5, 57, 0
11, 44400, Note_on_c, 5, 74, 76
11, 44400, Note_on_c, 5, 71, 76
11, 44400, Note_on_c, 5, 67, 76
11, 44400, Note_on_c, 5, 55, 76
11, 44519, Note_on_c, 5, 74, 0
11, 44519, Note_on_c, 5, 71, 0
11, 44519, Note_on_c, 5, 67, 0
11, 44519, Note_on_c, 5, 55, 0
11, 44520, Note_on_c, 5, 73, 76
11, 44520, Note_on_c, 5, 54, 76
11, 44520, Note_on_c, 5, 66, 76
11, 44520, Note_on_c, 5, 70, 76
11, 44520, Note_on_c, 5, 76, 76
11, 44639, Note_on_c, 5, 73, 0
11, 44639, Note_on_c, 5, 54, 0
11, 44639, Note_on_c, 5, 66, 0
11, 44639, Note_on_c, 5, 70, 0
11, 44639, Note_on_c, 5, 76, 0
11, 44640, Note_on_c, 5, 74, 76
11, 44640, Note_on_c, 5, 78, 76
11, 44640, Note_on_c, 5, 71, 76
11, 44640, Note_on_c, 5, 59, 76
11, 44759, Note_on_c, 5, 74, 0
11, 44759, Note_on_c, 5, 78, 0
11, 44759, Note_on_c, 5, 71, 0
11, 44759, Note_on_c, 5, 59, 0
11, 44760, Note_on_c, 5, 57, 76
11, 44760, Note_on_c, 5, 73, 76
11, 44760, Note_on_c, 5, 69, 76
11, 44760, Note_on_c, 5, 76, 76
11, 44879, Note_on_c, 5, 57, 0
11, 44879, Note_on_c, 5, 73, 0
11, 44879, Note_on_c, 5, 69, 0
11, 44879, Note_on_c, 5, 76, 0
11, 44880, Note_on_c, 5, 55, 76
11, 44880, Note_on_c, 5, 67, 76
11, 44880, Note_on_c, 5, 71, 76
11, 44880, Note_on_c, 5, 74, 76
11, 44999, Note_on_c, 5, 55, 0
11, 44999, Note_on_c, 5, 67, 0
11, 44999, Note_on_c, 5, 71, 0
11, 44999, Note_on_c, 5, 74, 0
11, 45000, Note_on_c, 5, 52, 76
11, 45000, Note_on_c, 5, 73, 76
11, 45000, Note_on_c, 5, 67, 76
11, 45000, Note_on_c, 5, 71, 76
11, 45000, Note_on_c, 5, 64, 76
11, 45119, Note_on_c, 5, 52, 0
11, 45119, Note_on_c, 5, 73, 0
11, 45119, Note_on_c, 5, 67, 0
11, 45119, Note_on_c, 5, 71, 0
11, 45119, Note_on_c, 5, 64, 0
11, 45120, Note_on_c, 5, 66, 76
11, 45120, Note_on_c, 5, 73, 76
11, 45120, Note_on_c, 5, 54, 76
11, 45120, Note_on_c, 5, 70, 76
11, 45359, Note_on_c, 5, 66, 0
11, 45359, Note_on_c, 5, 73, 0
11, 45359, Note_on_c, 5, 54, 0
11, 45359, Note_on_c, 5, 70, 0
11, 45360, Note_on_c, 5, 61, 76
11, 45360, Note_on_c, 5, 58, 76
11, 45360, Note_on_c, 5, 54, 76
11, 45360, Note_on_c, 5, 42, 76
11, 45599, Note_on_c, 5, 61, 0
11, 45599, Note_on_c, 5, 58, 0
11, 45599, Note_on_c, 5, 54, 0
11, 45599, Note_on_c, 5, 42, 0
11, 45600, Note_on_c, 5, 62, 76
11, 45600, Note_on_c, 5, 59, 76
11, 45600, Note_on_c, 5, 47, 76
11, 45600, Note_on_c, 5, 66, 76
11, 46079, Note_on_c, 5, 62, 0
11, 46079, Note_on_c, 5, 59, 0
11, 46079, Note_on_c, 5, 47, 0
11, 46079, Note_on_c, 5, 66, 0
11, 46079, End_track
12, 0, Start_track
12, 0, MIDI_port, 0
12, 0, End_track
13, 0, Start_track
13, 0, Title_t, "Johann Sebastian Bach - Orchestral Suite No. 2 in B minor, BWV1067 - No. 3 Sarabande"
13, 0, MIDI_port, 0
13, 0, End_track
0, 0, End_of_file
