0, 0, Header, 1, 5, 240
1, 0, Start_track
1, 0, Time_signature, 4, 2, 24, 8
1, 0, Key_signature, 0, "major"
1, 0, Tempo, 681818
1, 32400, Tempo, 705882
1, 32640, Tempo, 750000
1, 32760, Tempo, 789473
1, 32880, Tempo, 869565
1, 33000, Tempo, 937500
1, 33056, Tempo, 1132075
1, 33120, Tempo, 1304347
1, 33120, End_track
2, 0, Start_track
2, 0, MIDI_port, 0
2, 0, Title_t, "RH H"
2, 0, Program_c, 0, 6
2, 4080, Note_on_c, 0, 68, 64
2, 4200, Note_on_c, 0, 68, 0
2, 4200, Note_on_c, 0, 75, 64
2, 4320, Note_on_c, 0, 75, 0
2, 4320, Note_on_c, 0, 72, 64
2, 4440, Note_on_c, 0, 72, 0
2, 4440, Note_on_c, 0, 68, 64
2, 4560, Note_on_c, 0, 68, 0
2, 4560, Note_on_c, 0, 77, 64
2, 4680, Note_on_c, 0, 77, 0
2, 4680, Note_on_c, 0, 73, 64
2, 4800, Note_on_c, 0, 73, 0
2, 4800, Note_on_c, 0, 75, 64
2, 5520, Note_on_c, 0, 75, 0
2, 5520, Note_on_c, 0, 80, 64
2, 5760, Note_on_c, 0, 80, 0
2, 5760, Note_on_c, 0, 80, 64
2, 6000, Note_on_c, 0, 80, 0
2, 6000, Note_on_c, 0, 79, 64
2, 6240, Note_on_c, 0, 79, 0
2, 6240, Note_on_c, 0, 77, 64
2, 6780, Note_on_c, 0, 77, 0
2, 6780, Note_on_c, 0, 70, 64
2, 6840, Note_on_c, 0, 70, 0
2, 6840, Note_on_c, 0, 72, 64
2, 6900, Note_on_c, 0, 72, 0
2, 6900, Note_on_c, 0, 74, 64
2, 6960, Note_on_c, 0, 74, 0
2, 6960, Note_on_c, 0, 75, 64
2, 7320, Note_on_c, 0, 75, 0
2, 7320, Note_on_c, 0, 80, 64
2, 7440, Note_on_c, 0, 80, 0
2, 7440, Note_on_c, 0, 73, 64
2, 7560, Note_on_c, 0, 73, 0
2, 7560, Note_on_c, 0, 82, 64
2, 7680, Note_on_c, 0, 82, 0
2, 7680, Note_on_c, 0, 73, 64
2, 7920, Note_on_c, 0, 73, 0
2, 7920, Note_on_c, 0, 72, 64
2, 8160, Note_on_c, 0, 72, 0
2, 8160, Note_on_c, 0, 70, 64
2, 8640, Note_on_c, 0, 70, 0
2, 8640, Note_on_c, 0, 68, 64
2, 9170, Note_on_c, 0, 68, 0
2, 9180, Note_on_c, 0, 68, 64
2, 9240, Note_on_c, 0, 68, 0
2, 9240, Note_on_c, 0, 70, 64
2, 9300, Note_on_c, 0, 70, 0
2, 9300, Note_on_c, 0, 72, 64
2, 9360, Note_on_c, 0, 72, 0
2, 9360, Note_on_c, 0, 73, 64
2, 9660, Note_on_c, 0, 73, 0
2, 9660, Note_on_c, 0, 70, 64
2, 9720, Note_on_c, 0, 70, 0
2, 9720, Note_on_c, 0, 72, 64
2, 9780, Note_on_c, 0, 72, 0
2, 9780, Note_on_c, 0, 75, 64
2, 9840, Note_on_c, 0, 75, 0
2, 9840, Note_on_c, 0, 80, 64
2, 9900, Note_on_c, 0, 80, 0
2, 9900, Note_on_c, 0, 79, 64
2, 9960, Note_on_c, 0, 79, 0
2, 9960, Note_on_c, 0, 80, 64
2, 10020, Note_on_c, 0, 80, 0
2, 10020, Note_on_c, 0, 82, 64
2, 10080, Note_on_c, 0, 82, 0
2, 10080, Note_on_c, 0, 84, 64
2, 10140, Note_on_c, 0, 84, 0
2, 10140, Note_on_c, 0, 82, 64
2, 10200, Note_on_c, 0, 82, 0
2, 10200, Note_on_c, 0, 80, 64
2, 10260, Note_on_c, 0, 80, 0
2, 10260, Note_on_c, 0, 79, 64
2, 10320, Note_on_c, 0, 79, 0
2, 10320, Note_on_c, 0, 77, 64
2, 10380, Note_on_c, 0, 77, 0
2, 10380, Note_on_c, 0, 79, 64
2, 10440, Note_on_c, 0, 79, 0
2, 10440, Note_on_c, 0, 80, 64
2, 10500, Note_on_c, 0, 80, 0
2, 10500, Note_on_c, 0, 84, 64
2, 10560, Note_on_c, 0, 84, 0
2, 10560, Note_on_c, 0, 82, 64
2, 10620, Note_on_c, 0, 82, 0
2, 10620, Note_on_c, 0, 80, 64
2, 10680, Note_on_c, 0, 80, 0
2, 10680, Note_on_c, 0, 79, 64
2, 10740, Note_on_c, 0, 79, 0
2, 10740, Note_on_c, 0, 77, 64
2, 10800, Note_on_c, 0, 77, 0
2, 10800, Note_on_c, 0, 75, 64
2, 10860, Note_on_c, 0, 75, 0
2, 10860, Note_on_c, 0, 77, 64
2, 10920, Note_on_c, 0, 77, 0
2, 10920, Note_on_c, 0, 79, 64
2, 10980, Note_on_c, 0, 79, 0
2, 10980, Note_on_c, 0, 82, 64
2, 11040, Note_on_c, 0, 82, 0
2, 11040, Note_on_c, 0, 80, 64
2, 11100, Note_on_c, 0, 80, 0
2, 11100, Note_on_c, 0, 79, 64
2, 11160, Note_on_c, 0, 79, 0
2, 11160, Note_on_c, 0, 77, 64
2, 11220, Note_on_c, 0, 77, 0
2, 11220, Note_on_c, 0, 75, 64
2, 11280, Note_on_c, 0, 75, 0
2, 11280, Note_on_c, 0, 74, 64
2, 11340, Note_on_c, 0, 74, 0
2, 11340, Note_on_c, 0, 75, 64
2, 11400, Note_on_c, 0, 75, 0
2, 11400, Note_on_c, 0, 77, 64
2, 11460, Note_on_c, 0, 77, 0
2, 11460, Note_on_c, 0, 80, 64
2, 11520, Note_on_c, 0, 80, 0
2, 11520, Note_on_c, 0, 79, 64
2, 11580, Note_on_c, 0, 79, 0
2, 11580, Note_on_c, 0, 77, 64
2, 11640, Note_on_c, 0, 77, 0
2, 11640, Note_on_c, 0, 76, 64
2, 11700, Note_on_c, 0, 76, 0
2, 11700, Note_on_c, 0, 79, 64
2, 11760, Note_on_c, 0, 79, 0
2, 11760, Note_on_c, 0, 77, 64
2, 11820, Note_on_c, 0, 77, 0
2, 11820, Note_on_c, 0, 76, 64
2, 11880, Note_on_c, 0, 76, 0
2, 11880, Note_on_c, 0, 77, 64
2, 11940, Note_on_c, 0, 77, 0
2, 11940, Note_on_c, 0, 79, 64
2, 12000, Note_on_c, 0, 79, 0
2, 12000, Note_on_c, 0, 72, 64
2, 12120, Note_on_c, 0, 72, 0
2, 12120, Note_on_c, 0, 77, 64
2, 12360, Note_on_c, 0, 77, 0
2, 12360, Note_on_c, 0, 79, 64
2, 12420, Note_on_c, 0, 79, 0
2, 12420, Note_on_c, 0, 76, 64
2, 12480, Note_on_c, 0, 76, 0
2, 12480, Note_on_c, 0, 77, 64
2, 12540, Note_on_c, 0, 77, 0
2, 12540, Note_on_c, 0, 76, 64
2, 12600, Note_on_c, 0, 76, 0
2, 12600, Note_on_c, 0, 77, 64
2, 12660, Note_on_c, 0, 77, 0
2, 12660, Note_on_c, 0, 79, 64
2, 12720, Note_on_c, 0, 79, 0
2, 12720, Note_on_c, 0, 80, 64
2, 13200, Note_on_c, 0, 80, 0
2, 13200, Note_on_c, 0, 79, 64
2, 13680, Note_on_c, 0, 79, 0
2, 13680, Note_on_c, 0, 77, 64
2, 14160, Note_on_c, 0, 77, 0
2, 14160, Note_on_c, 0, 76, 64
2, 14400, Note_on_c, 0, 76, 0
2, 14400, Note_on_c, 0, 77, 64
2, 14700, Note_on_c, 0, 77, 0
2, 14700, Note_on_c, 0, 75, 64
2, 14760, Note_on_c, 0, 75, 0
2, 14760, Note_on_c, 0, 73, 64
2, 14820, Note_on_c, 0, 73, 0
2, 14820, Note_on_c, 0, 72, 64
2, 14880, Note_on_c, 0, 72, 0
2, 14880, Note_on_c, 0, 70, 64
2, 14940, Note_on_c, 0, 70, 0
2, 14940, Note_on_c, 0, 68, 64
2, 15000, Note_on_c, 0, 68, 0
2, 15000, Note_on_c, 0, 67, 64
2, 15060, Note_on_c, 0, 67, 0
2, 15060, Note_on_c, 0, 68, 64
2, 15120, Note_on_c, 0, 68, 0
2, 15120, Note_on_c, 0, 70, 64
2, 15180, Note_on_c, 0, 70, 0
2, 15180, Note_on_c, 0, 73, 64
2, 15240, Note_on_c, 0, 73, 0
2, 15240, Note_on_c, 0, 72, 64
2, 15300, Note_on_c, 0, 72, 0
2, 15300, Note_on_c, 0, 70, 64
2, 15360, Note_on_c, 0, 70, 0
2, 15360, Note_on_c, 0, 69, 64
2, 15420, Note_on_c, 0, 69, 0
2, 15420, Note_on_c, 0, 72, 64
2, 15480, Note_on_c, 0, 72, 0
2, 15480, Note_on_c, 0, 73, 64
2, 15540, Note_on_c, 0, 73, 0
2, 15540, Note_on_c, 0, 75, 64
2, 15600, Note_on_c, 0, 75, 0
2, 15600, Note_on_c, 0, 77, 64
2, 15660, Note_on_c, 0, 77, 0
2, 15660, Note_on_c, 0, 75, 64
2, 15720, Note_on_c, 0, 75, 0
2, 15720, Note_on_c, 0, 73, 64
2, 15780, Note_on_c, 0, 73, 0
2, 15780, Note_on_c, 0, 72, 64
2, 15840, Note_on_c, 0, 72, 0
2, 15840, Note_on_c, 0, 70, 64
2, 15900, Note_on_c, 0, 70, 0
2, 15900, Note_on_c, 0, 73, 64
2, 15960, Note_on_c, 0, 73, 0
2, 15960, Note_on_c, 0, 78, 64
2, 16020, Note_on_c, 0, 78, 0
2, 16020, Note_on_c, 0, 77, 64
2, 16080, Note_on_c, 0, 77, 0
2, 16080, Note_on_c, 0, 75, 64
2, 16140, Note_on_c, 0, 75, 0
2, 16140, Note_on_c, 0, 73, 64
2, 16200, Note_on_c, 0, 73, 0
2, 16200, Note_on_c, 0, 72, 64
2, 16260, Note_on_c, 0, 72, 0
2, 16260, Note_on_c, 0, 70, 64
2, 16320, Note_on_c, 0, 70, 0
2, 16320, Note_on_c, 0, 69, 64
2, 16560, Note_on_c, 0, 69, 0
2, 16560, Note_on_c, 0, 70, 64
2, 16620, Note_on_c, 0, 70, 0
2, 16620, Note_on_c, 0, 72, 64
2, 16680, Note_on_c, 0, 72, 0
2, 16680, Note_on_c, 0, 73, 64
2, 16920, Note_on_c, 0, 73, 0
2, 16920, Note_on_c, 0, 72, 64
2, 16980, Note_on_c, 0, 72, 0
2, 16980, Note_on_c, 0, 73, 64
2, 17040, Note_on_c, 0, 73, 0
2, 17040, Note_on_c, 0, 75, 64
2, 17340, Note_on_c, 0, 75, 0
2, 17340, Note_on_c, 0, 72, 64
2, 17400, Note_on_c, 0, 72, 0
2, 17400, Note_on_c, 0, 73, 64
2, 17460, Note_on_c, 0, 73, 0
2, 17460, Note_on_c, 0, 77, 64
2, 17520, Note_on_c, 0, 77, 0
2, 17520, Note_on_c, 0, 82, 64
2, 17640, Note_on_c, 0, 82, 0
2, 17640, Note_on_c, 0, 77, 64
2, 17760, Note_on_c, 0, 77, 0
2, 17760, Note_on_c, 0, 78, 64
2, 17880, Note_on_c, 0, 78, 0
2, 17880, Note_on_c, 0, 75, 64
2, 18000, Note_on_c, 0, 75, 0
2, 18000, Note_on_c, 0, 80, 64
2, 18120, Note_on_c, 0, 80, 0
2, 18120, Note_on_c, 0, 75, 64
2, 18240, Note_on_c, 0, 75, 0
2, 18240, Note_on_c, 0, 77, 64
2, 18360, Note_on_c, 0, 77, 0
2, 18360, Note_on_c, 0, 73, 64
2, 18420, Note_on_c, 0, 73, 0
2, 18420, Note_on_c, 0, 77, 64
2, 18480, Note_on_c, 0, 77, 0
2, 18480, Note_on_c, 0, 78, 64
2, 18600, Note_on_c, 0, 78, 0
2, 18600, Note_on_c, 0, 73, 64
2, 18720, Note_on_c, 0, 73, 0
2, 18720, Note_on_c, 0, 75, 64
2, 18840, Note_on_c, 0, 75, 0
2, 18840, Note_on_c, 0, 72, 64
2, 18960, Note_on_c, 0, 72, 0
2, 18960, Note_on_c, 0, 77, 64
2, 19080, Note_on_c, 0, 77, 0
2, 19080, Note_on_c, 0, 72, 64
2, 19200, Note_on_c, 0, 72, 0
2, 19200, Note_on_c, 0, 73, 64
2, 19920, Note_on_c, 0, 73, 0
2, 19920, Note_on_c, 0, 72, 64
2, 20040, Note_on_c, 0, 72, 0
2, 20040, Note_on_c, 0, 77, 64
2, 20160, Note_on_c, 0, 77, 0
2, 20160, Note_on_c, 0, 74, 64
2, 20280, Note_on_c, 0, 74, 0
2, 20280, Note_on_c, 0, 70, 64
2, 20400, Note_on_c, 0, 70, 0
2, 20400, Note_on_c, 0, 75, 64
2, 20880, Note_on_c, 0, 75, 0
2, 20880, Note_on_c, 0, 73, 64
2, 21120, Note_on_c, 0, 73, 0
2, 21120, Note_on_c, 0, 75, 64
2, 21360, Note_on_c, 0, 75, 0
2, 22320, Note_on_c, 0, 68, 64
2, 22440, Note_on_c, 0, 68, 0
2, 22440, Note_on_c, 0, 75, 64
2, 22560, Note_on_c, 0, 75, 0
2, 22560, Note_on_c, 0, 72, 64
2, 22680, Note_on_c, 0, 72, 0
2, 22680, Note_on_c, 0, 68, 64
2, 22800, Note_on_c, 0, 68, 0
2, 22800, Note_on_c, 0, 78, 64
2, 22920, Note_on_c, 0, 78, 0
2, 23040, Note_on_c, 0, 77, 64
2, 23280, Note_on_c, 0, 77, 0
2, 23280, Note_on_c, 0, 77, 64
2, 23400, Note_on_c, 0, 77, 0
2, 23400, Note_on_c, 0, 79, 64
2, 23520, Note_on_c, 0, 79, 0
2, 23520, Note_on_c, 0, 75, 64
2, 23760, Note_on_c, 0, 75, 0
2, 23760, Note_on_c, 0, 75, 64
2, 23880, Note_on_c, 0, 75, 0
2, 23880, Note_on_c, 0, 77, 64
2, 24000, Note_on_c, 0, 77, 0
2, 24000, Note_on_c, 0, 73, 64
2, 24240, Note_on_c, 0, 73, 0
2, 24240, Note_on_c, 0, 73, 64
2, 24360, Note_on_c, 0, 73, 0
2, 24360, Note_on_c, 0, 82, 64
2, 24480, Note_on_c, 0, 82, 0
2, 24480, Note_on_c, 0, 72, 64
2, 24600, Note_on_c, 0, 72, 0
2, 24600, Note_on_c, 0, 73, 64
2, 24660, Note_on_c, 0, 73, 0
2, 24660, Note_on_c, 0, 70, 64
2, 24720, Note_on_c, 0, 70, 0
2, 24720, Note_on_c, 0, 72, 64
2, 24840, Note_on_c, 0, 72, 0
2, 24840, Note_on_c, 0, 80, 64
2, 24960, Note_on_c, 0, 80, 0
2, 24960, Note_on_c, 0, 70, 64
2, 25200, Note_on_c, 0, 70, 0
2, 25260, Note_on_c, 0, 75, 64
2, 25320, Note_on_c, 0, 75, 0
2, 25320, Note_on_c, 0, 77, 64
2, 25380, Note_on_c, 0, 77, 0
2, 25380, Note_on_c, 0, 79, 64
2, 25440, Note_on_c, 0, 79, 0
2, 25440, Note_on_c, 0, 80, 64
2, 25740, Note_on_c, 0, 80, 0
2, 25740, Note_on_c, 0, 79, 64
2, 25800, Note_on_c, 0, 79, 0
2, 25800, Note_on_c, 0, 77, 64
2, 25860, Note_on_c, 0, 77, 0
2, 25860, Note_on_c, 0, 80, 64
2, 25920, Note_on_c, 0, 80, 0
2, 25920, Note_on_c, 0, 79, 64
2, 26700, Note_on_c, 0, 79, 0
2, 26700, Note_on_c, 0, 72, 64
2, 26760, Note_on_c, 0, 72, 0
2, 26760, Note_on_c, 0, 77, 64
2, 26940, Note_on_c, 0, 77, 0
2, 26940, Note_on_c, 0, 75, 64
2, 27000, Note_on_c, 0, 75, 0
2, 27000, Note_on_c, 0, 73, 64
2, 27060, Note_on_c, 0, 73, 0
2, 27060, Note_on_c, 0, 77, 64
2, 27120, Note_on_c, 0, 77, 0
2, 27120, Note_on_c, 0, 75, 64
2, 27600, Note_on_c, 0, 75, 0
2, 27600, Note_on_c, 0, 73, 64
2, 27840, Note_on_c, 0, 73, 0
2, 27900, Note_on_c, 0, 72, 64
2, 27960, Note_on_c, 0, 72, 0
2, 27960, Note_on_c, 0, 70, 64
2, 28020, Note_on_c, 0, 70, 0
2, 28020, Note_on_c, 0, 73, 64
2, 28080, Note_on_c, 0, 73, 0
2, 28080, Note_on_c, 0, 72, 64
2, 28200, Note_on_c, 0, 72, 0
2, 28200, Note_on_c, 0, 77, 64
2, 28320, Note_on_c, 0, 77, 0
2, 28320, Note_on_c, 0, 73, 64
2, 28440, Note_on_c, 0, 73, 0
2, 28440, Note_on_c, 0, 70, 64
2, 28560, Note_on_c, 0, 70, 0
2, 28560, Note_on_c, 0, 78, 64
2, 28680, Note_on_c, 0, 78, 0
2, 28800, Note_on_c, 0, 77, 64
2, 29040, Note_on_c, 0, 77, 0
2, 29040, Note_on_c, 0, 80, 64
2, 29160, Note_on_c, 0, 80, 0
2, 29280, Note_on_c, 0, 79, 64
2, 29520, Note_on_c, 0, 79, 0
2, 29520, Note_on_c, 0, 82, 64
2, 29640, Note_on_c, 0, 82, 0
2, 29640, Note_on_c, 0, 79, 64
2, 29760, Note_on_c, 0, 79, 0
2, 29760, Note_on_c, 0, 80, 64
2, 29880, Note_on_c, 0, 80, 0
2, 29880, Note_on_c, 0, 77, 64
2, 30000, Note_on_c, 0, 77, 0
2, 30000, Note_on_c, 0, 73, 64
2, 30360, Note_on_c, 0, 73, 0
2, 30360, Note_on_c, 0, 75, 64
2, 30480, Note_on_c, 0, 75, 0
2, 30480, Note_on_c, 0, 72, 64
2, 30600, Note_on_c, 0, 72, 0
2, 30600, Note_on_c, 0, 77, 64
2, 30720, Note_on_c, 0, 77, 0
2, 30720, Note_on_c, 0, 72, 64
2, 30960, Note_on_c, 0, 72, 0
2, 30960, Note_on_c, 0, 70, 64
2, 31320, Note_on_c, 0, 70, 0
2, 31320, Note_on_c, 0, 68, 64
2, 31380, Note_on_c, 0, 68, 0
2, 31380, Note_on_c, 0, 67, 64
2, 31440, Note_on_c, 0, 67, 0
2, 31440, Note_on_c, 0, 68, 64
2, 31560, Note_on_c, 0, 68, 0
2, 31560, Note_on_c, 0, 75, 64
2, 31680, Note_on_c, 0, 75, 0
2, 31680, Note_on_c, 0, 72, 64
2, 31800, Note_on_c, 0, 72, 0
2, 31800, Note_on_c, 0, 68, 64
2, 31920, Note_on_c, 0, 68, 0
2, 31920, Note_on_c, 0, 77, 64
2, 32040, Note_on_c, 0, 77, 0
2, 32040, Note_on_c, 0, 73, 64
2, 32160, Note_on_c, 0, 73, 0
2, 32160, Note_on_c, 0, 75, 64
2, 32280, Note_on_c, 0, 75, 0
2, 32280, Note_on_c, 0, 67, 64
2, 32400, Note_on_c, 0, 67, 0
2, 32400, Note_on_c, 0, 68, 64
2, 32880, Note_on_c, 0, 68, 0
2, 32880, Note_on_c, 0, 67, 64
2, 33120, Note_on_c, 0, 67, 0
2, 33120, Note_on_c, 0, 68, 64
2, 33600, Note_on_c, 0, 68, 0
2, 33600, End_track
3, 0, Start_track
3, 0, MIDI_port, 0
3, 0, Title_t, "RH L"
3, 0, Program_c, 1, 6
3, 5040, Note_on_c, 1, 63, 64
3, 5160, Note_on_c, 1, 63, 0
3, 5160, Note_on_c, 1, 68, 64
3, 5280, Note_on_c, 1, 68, 0
3, 5280, Note_on_c, 1, 67, 64
3, 5400, Note_on_c, 1, 67, 0
3, 5400, Note_on_c, 1, 63, 64
3, 5520, Note_on_c, 1, 63, 0
3, 5520, Note_on_c, 1, 72, 64
3, 5640, Note_on_c, 1, 72, 0
3, 5640, Note_on_c, 1, 68, 64
3, 5760, Note_on_c, 1, 68, 0
3, 5760, Note_on_c, 1, 70, 64
3, 6000, Note_on_c, 1, 70, 0
3, 6060, Note_on_c, 1, 63, 64
3, 6120, Note_on_c, 1, 63, 0
3, 6120, Note_on_c, 1, 65, 64
3, 6180, Note_on_c, 1, 65, 0
3, 6180, Note_on_c, 1, 67, 64
3, 6240, Note_on_c, 1, 67, 0
3, 6240, Note_on_c, 1, 68, 64
3, 6300, Note_on_c, 1, 68, 0
3, 6300, Note_on_c, 1, 70, 64
3, 6360, Note_on_c, 1, 70, 0
3, 6360, Note_on_c, 1, 72, 64
3, 6420, Note_on_c, 1, 72, 0
3, 6420, Note_on_c, 1, 70, 64
3, 6480, Note_on_c, 1, 70, 0
3, 6480, Note_on_c, 1, 68, 64
3, 6540, Note_on_c, 1, 68, 0
3, 6540, Note_on_c, 1, 67, 64
3, 6600, Note_on_c, 1, 67, 0
3, 6600, Note_on_c, 1, 65, 64
3, 6660, Note_on_c, 1, 65, 0
3, 6660, Note_on_c, 1, 68, 64
3, 6720, Note_on_c, 1, 68, 0
3, 6720, Note_on_c, 1, 67, 64
3, 7200, Note_on_c, 1, 67, 0
3, 7200, Note_on_c, 1, 65, 64
3, 7680, Note_on_c, 1, 65, 0
3, 7740, Note_on_c, 1, 63, 64
3, 7800, Note_on_c, 1, 63, 0
3, 7800, Note_on_c, 1, 65, 64
3, 7860, Note_on_c, 1, 65, 0
3, 7860, Note_on_c, 1, 67, 64
3, 7920, Note_on_c, 1, 67, 0
3, 7920, Note_on_c, 1, 68, 64
3, 8400, Note_on_c, 1, 68, 0
3, 8400, Note_on_c, 1, 67, 64
3, 8640, Note_on_c, 1, 67, 0
3, 8640, Note_on_c, 1, 68, 64
3, 8760, Note_on_c, 1, 68, 0
3, 8760, Note_on_c, 1, 67, 64
3, 8820, Note_on_c, 1, 67, 0
3, 8820, Note_on_c, 1, 65, 64
3, 8880, Note_on_c, 1, 65, 0
3, 8880, Note_on_c, 1, 63, 64
3, 8940, Note_on_c, 1, 63, 0
3, 8940, Note_on_c, 1, 61, 64
3, 9000, Note_on_c, 1, 61, 0
3, 9000, Note_on_c, 1, 60, 64
3, 9060, Note_on_c, 1, 60, 0
3, 9060, Note_on_c, 1, 61, 64
3, 9120, Note_on_c, 1, 61, 0
3, 9120, Note_on_c, 1, 63, 64
3, 9240, Note_on_c, 1, 63, 0
3, 9480, Note_on_c, 1, 56, 64
3, 9600, Note_on_c, 1, 56, 0
3, 9600, Note_on_c, 1, 68, 64
3, 9720, Note_on_c, 1, 68, 0
3, 11760, Note_on_c, 1, 65, 64
3, 11880, Note_on_c, 1, 65, 0
3, 11880, Note_on_c, 1, 72, 64
3, 12000, Note_on_c, 1, 72, 0
3, 12000, Note_on_c, 1, 68, 64
3, 12120, Note_on_c, 1, 68, 0
3, 12120, Note_on_c, 1, 65, 64
3, 12240, Note_on_c, 1, 65, 0
3, 12240, Note_on_c, 1, 73, 64
3, 12360, Note_on_c, 1, 73, 0
3, 12360, Note_on_c, 1, 70, 64
3, 12480, Note_on_c, 1, 70, 0
3, 12480, Note_on_c, 1, 72, 64
3, 12600, Note_on_c, 1, 72, 0
3, 12600, Note_on_c, 1, 74, 64
3, 12660, Note_on_c, 1, 74, 0
3, 12660, Note_on_c, 1, 76, 64
3, 12720, Note_on_c, 1, 76, 0
3, 12720, Note_on_c, 1, 77, 64
3, 12840, Note_on_c, 1, 77, 0
3, 12840, Note_on_c, 1, 72, 64
3, 12960, Note_on_c, 1, 72, 0
3, 12960, Note_on_c, 1, 73, 64
3, 13080, Note_on_c, 1, 73, 0
3, 13080, Note_on_c, 1, 70, 64
3, 13200, Note_on_c, 1, 70, 0
3, 13200, Note_on_c, 1, 75, 64
3, 13320, Note_on_c, 1, 75, 0
3, 13320, Note_on_c, 1, 70, 64
3, 13440, Note_on_c, 1, 70, 0
3, 13440, Note_on_c, 1, 72, 64
3, 13560, Note_on_c, 1, 72, 0
3, 13560, Note_on_c, 1, 68, 64
3, 13680, Note_on_c, 1, 68, 0
3, 13680, Note_on_c, 1, 73, 64
3, 13800, Note_on_c, 1, 73, 0
3, 13800, Note_on_c, 1, 68, 64
3, 13920, Note_on_c, 1, 68, 0
3, 13920, Note_on_c, 1, 70, 64
3, 13980, Note_on_c, 1, 70, 0
3, 13980, Note_on_c, 1, 72, 64
3, 14040, Note_on_c, 1, 72, 0
3, 14040, Note_on_c, 1, 73, 64
3, 14100, Note_on_c, 1, 73, 0
3, 14100, Note_on_c, 1, 72, 64
3, 14160, Note_on_c, 1, 72, 0
3, 14160, Note_on_c, 1, 70, 64
3, 14220, Note_on_c, 1, 70, 0
3, 14220, Note_on_c, 1, 68, 64
3, 14280, Note_on_c, 1, 68, 0
3, 14280, Note_on_c, 1, 67, 64
3, 14340, Note_on_c, 1, 67, 0
3, 14340, Note_on_c, 1, 70, 64
3, 14400, Note_on_c, 1, 70, 0
3, 14400, Note_on_c, 1, 68, 64
3, 14640, Note_on_c, 1, 68, 0
3, 16560, Note_on_c, 1, 65, 64
3, 16680, Note_on_c, 1, 65, 0
3, 16680, Note_on_c, 1, 70, 64
3, 16800, Note_on_c, 1, 70, 0
3, 16800, Note_on_c, 1, 66, 64
3, 16920, Note_on_c, 1, 66, 0
3, 16920, Note_on_c, 1, 63, 64
3, 17040, Note_on_c, 1, 63, 0
3, 17040, Note_on_c, 1, 72, 64
3, 17160, Note_on_c, 1, 72, 0
3, 17160, Note_on_c, 1, 69, 64
3, 17280, Note_on_c, 1, 69, 0
3, 17280, Note_on_c, 1, 70, 64
3, 17520, Note_on_c, 1, 70, 0
3, 17580, Note_on_c, 1, 65, 64
3, 17640, Note_on_c, 1, 65, 0
3, 17640, Note_on_c, 1, 66, 64
3, 17700, Note_on_c, 1, 66, 0
3, 17700, Note_on_c, 1, 68, 64
3, 17760, Note_on_c, 1, 68, 0
3, 17760, Note_on_c, 1, 70, 64
3, 17820, Note_on_c, 1, 70, 0
3, 17820, Note_on_c, 1, 68, 64
3, 17880, Note_on_c, 1, 68, 0
3, 17880, Note_on_c, 1, 66, 64
3, 17940, Note_on_c, 1, 66, 0
3, 17940, Note_on_c, 1, 65, 64
3, 18000, Note_on_c, 1, 65, 0
3, 18000, Note_on_c, 1, 63, 64
3, 18060, Note_on_c, 1, 63, 0
3, 18060, Note_on_c, 1, 65, 64
3, 18120, Note_on_c, 1, 65, 0
3, 18120, Note_on_c, 1, 66, 64
3, 18180, Note_on_c, 1, 66, 0
3, 18180, Note_on_c, 1, 70, 64
3, 18240, Note_on_c, 1, 70, 0
3, 18240, Note_on_c, 1, 68, 64
3, 18300, Note_on_c, 1, 68, 0
3, 18300, Note_on_c, 1, 66, 64
3, 18360, Note_on_c, 1, 66, 0
3, 18360, Note_on_c, 1, 65, 64
3, 18420, Note_on_c, 1, 65, 0
3, 18420, Note_on_c, 1, 63, 64
3, 18480, Note_on_c, 1, 63, 0
3, 18480, Note_on_c, 1, 61, 64
3, 18540, Note_on_c, 1, 61, 0
3, 18540, Note_on_c, 1, 63, 64
3, 18600, Note_on_c, 1, 63, 0
3, 18600, Note_on_c, 1, 65, 64
3, 18660, Note_on_c, 1, 65, 0
3, 18660, Note_on_c, 1, 68, 64
3, 18720, Note_on_c, 1, 68, 0
3, 18720, Note_on_c, 1, 66, 64
3, 18780, Note_on_c, 1, 66, 0
3, 18780, Note_on_c, 1, 65, 64
3, 18840, Note_on_c, 1, 65, 0
3, 18840, Note_on_c, 1, 63, 64
3, 18900, Note_on_c, 1, 63, 0
3, 18900, Note_on_c, 1, 61, 64
3, 18960, Note_on_c, 1, 61, 0
3, 18960, Note_on_c, 1, 60, 64
3, 19020, Note_on_c, 1, 60, 0
3, 19020, Note_on_c, 1, 61, 64
3, 19080, Note_on_c, 1, 61, 0
3, 19080, Note_on_c, 1, 63, 64
3, 19140, Note_on_c, 1, 63, 0
3, 19140, Note_on_c, 1, 66, 64
3, 19200, Note_on_c, 1, 66, 0
3, 19200, Note_on_c, 1, 65, 64
3, 19440, Note_on_c, 1, 65, 0
3, 19440, Note_on_c, 1, 65, 64
3, 19560, Note_on_c, 1, 65, 0
3, 19560, Note_on_c, 1, 70, 64
3, 19680, Note_on_c, 1, 70, 0
3, 19680, Note_on_c, 1, 67, 64
3, 19800, Note_on_c, 1, 67, 0
3, 19800, Note_on_c, 1, 63, 64
3, 20040, Note_on_c, 1, 63, 0
3, 20040, Note_on_c, 1, 68, 64
3, 20160, Note_on_c, 1, 68, 0
3, 20160, Note_on_c, 1, 65, 64
3, 20280, Note_on_c, 1, 65, 0
3, 20280, Note_on_c, 1, 62, 64
3, 20400, Note_on_c, 1, 62, 0
3, 20520, Note_on_c, 1, 67, 64
3, 20640, Note_on_c, 1, 67, 0
3, 20640, Note_on_c, 1, 68, 64
3, 20700, Note_on_c, 1, 68, 0
3, 20700, Note_on_c, 1, 70, 64
3, 20760, Note_on_c, 1, 70, 0
3, 20760, Note_on_c, 1, 72, 64
3, 20820, Note_on_c, 1, 72, 0
3, 20820, Note_on_c, 1, 70, 64
3, 20880, Note_on_c, 1, 70, 0
3, 20880, Note_on_c, 1, 68, 64
3, 20940, Note_on_c, 1, 68, 0
3, 20940, Note_on_c, 1, 67, 64
3, 21000, Note_on_c, 1, 67, 0
3, 21000, Note_on_c, 1, 65, 64
3, 21060, Note_on_c, 1, 65, 0
3, 21060, Note_on_c, 1, 68, 64
3, 21120, Note_on_c, 1, 68, 0
3, 21120, Note_on_c, 1, 67, 64
3, 21180, Note_on_c, 1, 67, 0
3, 21180, Note_on_c, 1, 68, 64
3, 21240, Note_on_c, 1, 68, 0
3, 21240, Note_on_c, 1, 70, 64
3, 21300, Note_on_c, 1, 70, 0
3, 21300, Note_on_c, 1, 67, 64
3, 21360, Note_on_c, 1, 67, 0
3, 21360, Note_on_c, 1, 63, 64
3, 21480, Note_on_c, 1, 63, 0
3, 21480, Note_on_c, 1, 70, 64
3, 21600, Note_on_c, 1, 70, 0
3, 21600, Note_on_c, 1, 67, 64
3, 21720, Note_on_c, 1, 67, 0
3, 21720, Note_on_c, 1, 63, 64
3, 21840, Note_on_c, 1, 63, 0
3, 21840, Note_on_c, 1, 73, 64
3, 21960, Note_on_c, 1, 73, 0
3, 21960, Note_on_c, 1, 70, 64
3, 22080, Note_on_c, 1, 70, 0
3, 22080, Note_on_c, 1, 72, 64
3, 22320, Note_on_c, 1, 72, 0
3, 22800, Note_on_c, 1, 72, 64
3, 22920, Note_on_c, 1, 72, 0
3, 22920, Note_on_c, 1, 75, 64
3, 23160, Note_on_c, 1, 75, 0
3, 23160, Note_on_c, 1, 68, 64
3, 23280, Note_on_c, 1, 68, 0
3, 23280, Note_on_c, 1, 70, 64
3, 23400, Note_on_c, 1, 70, 0
3, 23400, Note_on_c, 1, 73, 64
3, 23640, Note_on_c, 1, 73, 0
3, 23640, Note_on_c, 1, 67, 64
3, 23760, Note_on_c, 1, 67, 0
3, 23760, Note_on_c, 1, 69, 64
3, 23880, Note_on_c, 1, 69, 0
3, 23880, Note_on_c, 1, 72, 64
3, 24120, Note_on_c, 1, 72, 0
3, 24120, Note_on_c, 1, 65, 64
3, 24240, Note_on_c, 1, 65, 0
3, 24240, Note_on_c, 1, 70, 64
3, 24720, Note_on_c, 1, 70, 0
3, 24720, Note_on_c, 1, 68, 64
3, 25020, Note_on_c, 1, 68, 0
3, 25020, Note_on_c, 1, 67, 64
3, 25080, Note_on_c, 1, 67, 0
3, 25080, Note_on_c, 1, 68, 64
3, 25140, Note_on_c, 1, 68, 0
3, 25140, Note_on_c, 1, 70, 64
3, 25200, Note_on_c, 1, 70, 0
3, 25200, Note_on_c, 1, 72, 64
3, 25500, Note_on_c, 1, 72, 0
3, 25500, Note_on_c, 1, 73, 64
3, 25560, Note_on_c, 1, 73, 0
3, 25560, Note_on_c, 1, 75, 64
3, 25620, Note_on_c, 1, 75, 0
3, 25620, Note_on_c, 1, 72, 64
3, 25680, Note_on_c, 1, 72, 0
3, 25680, Note_on_c, 1, 73, 64
3, 25980, Note_on_c, 1, 73, 0
3, 25980, Note_on_c, 1, 72, 64
3, 26040, Note_on_c, 1, 72, 0
3, 26040, Note_on_c, 1, 70, 64
3, 26100, Note_on_c, 1, 70, 0
3, 26100, Note_on_c, 1, 73, 64
3, 26160, Note_on_c, 1, 73, 0
3, 26160, Note_on_c, 1, 72, 64
3, 26460, Note_on_c, 1, 72, 0
3, 26460, Note_on_c, 1, 70, 64
3, 26520, Note_on_c, 1, 70, 0
3, 26520, Note_on_c, 1, 68, 64
3, 26580, Note_on_c, 1, 68, 0
3, 26580, Note_on_c, 1, 67, 64
3, 26640, Note_on_c, 1, 67, 0
3, 26640, Note_on_c, 1, 68, 64
3, 26810, Note_on_c, 1, 68, 0
3, 26820, Note_on_c, 1, 68, 64
3, 26880, Note_on_c, 1, 68, 0
3, 26880, Note_on_c, 1, 67, 64
3, 27000, Note_on_c, 1, 67, 0
3, 27120, Note_on_c, 1, 63, 64
3, 27240, Note_on_c, 1, 63, 0
3, 27240, Note_on_c, 1, 68, 64
3, 27360, Note_on_c, 1, 68, 0
3, 27360, Note_on_c, 1, 65, 64
3, 27480, Note_on_c, 1, 65, 0
3, 27480, Note_on_c, 1, 61, 64
3, 27600, Note_on_c, 1, 61, 0
3, 27600, Note_on_c, 1, 70, 64
3, 27720, Note_on_c, 1, 70, 0
3, 27720, Note_on_c, 1, 67, 64
3, 27840, Note_on_c, 1, 67, 0
3, 27840, Note_on_c, 1, 68, 64
3, 28080, Note_on_c, 1, 68, 0
3, 28680, Note_on_c, 1, 75, 64
3, 28920, Note_on_c, 1, 75, 0
3, 28920, Note_on_c, 1, 73, 64
3, 29040, Note_on_c, 1, 73, 0
3, 29160, Note_on_c, 1, 77, 64
3, 29400, Note_on_c, 1, 77, 0
3, 29400, Note_on_c, 1, 75, 64
3, 29520, Note_on_c, 1, 75, 0
3, 29760, Note_on_c, 1, 77, 64
3, 29880, Note_on_c, 1, 77, 0
3, 30120, Note_on_c, 1, 70, 64
3, 30240, Note_on_c, 1, 70, 0
3, 30240, Note_on_c, 1, 67, 64
3, 30360, Note_on_c, 1, 67, 0
3, 30360, Note_on_c, 1, 70, 64
3, 30480, Note_on_c, 1, 70, 0
3, 30600, Note_on_c, 1, 68, 64
3, 30720, Note_on_c, 1, 68, 0
3, 30720, Note_on_c, 1, 68, 64
3, 31080, Note_on_c, 1, 68, 0
3, 31080, Note_on_c, 1, 67, 64
3, 31200, Note_on_c, 1, 67, 0
3, 31200, Note_on_c, 1, 65, 64
3, 31440, Note_on_c, 1, 65, 0
3, 31560, Note_on_c, 1, 70, 64
3, 31680, Note_on_c, 1, 70, 0
3, 31680, Note_on_c, 1, 68, 64
3, 31800, Note_on_c, 1, 68, 0
3, 32040, Note_on_c, 1, 70, 64
3, 32160, Note_on_c, 1, 70, 0
3, 32160, Note_on_c, 1, 70, 64
3, 32280, Note_on_c, 1, 70, 0
3, 32520, Note_on_c, 1, 65, 64
3, 32640, Note_on_c, 1, 65, 0
3, 32700, Note_on_c, 1, 60, 64
3, 32760, Note_on_c, 1, 60, 0
3, 32760, Note_on_c, 1, 61, 64
3, 32820, Note_on_c, 1, 61, 0
3, 32820, Note_on_c, 1, 65, 64
3, 32880, Note_on_c, 1, 65, 0
3, 32880, Note_on_c, 1, 63, 64
3, 32940, Note_on_c, 1, 63, 0
3, 32940, Note_on_c, 1, 61, 64
3, 33000, Note_on_c, 1, 61, 0
3, 33000, Note_on_c, 1, 60, 64
3, 33060, Note_on_c, 1, 60, 0
3, 33060, Note_on_c, 1, 61, 64
3, 33120, Note_on_c, 1, 61, 0
3, 33120, Note_on_c, 1, 60, 64
3, 33600, Note_on_c, 1, 60, 0
3, 33600, End_track
4, 0, Start_track
4, 0, MIDI_port, 0
4, 0, Title_t, "LH H"
4, 0, Program_c, 2, 6
4, 240, Note_on_c, 2, 56, 64
4, 360, Note_on_c, 2, 56, 0
4, 360, Note_on_c, 2, 63, 64
4, 480, Note_on_c, 2, 63, 0
4, 480, Note_on_c, 2, 60, 64
4, 600, Note_on_c, 2, 60, 0
4, 600, Note_on_c, 2, 56, 64
4, 720, Note_on_c, 2, 56, 0
4, 720, Note_on_c, 2, 65, 64
4, 840, Note_on_c, 2, 65, 0
4, 840, Note_on_c, 2, 61, 64
4, 960, Note_on_c, 2, 61, 0
4, 960, Note_on_c, 2, 63, 64
4, 1260, Note_on_c, 2, 63, 0
4, 1260, Note_on_c, 2, 61, 64
4, 1320, Note_on_c, 2, 61, 0
4, 1320, Note_on_c, 2, 60, 64
4, 1380, Note_on_c, 2, 60, 0
4, 1380, Note_on_c, 2, 61, 64
4, 1440, Note_on_c, 2, 61, 0
4, 1440, Note_on_c, 2, 63, 64
4, 1500, Note_on_c, 2, 63, 0
4, 1500, Note_on_c, 2, 65, 64
4, 1560, Note_on_c, 2, 65, 0
4, 1560, Note_on_c, 2, 67, 64
4, 1620, Note_on_c, 2, 67, 0
4, 1620, Note_on_c, 2, 63, 64
4, 1680, Note_on_c, 2, 63, 0
4, 1680, Note_on_c, 2, 68, 64
4, 1740, Note_on_c, 2, 68, 0
4, 1740, Note_on_c, 2, 70, 64
4, 1800, Note_on_c, 2, 70, 0
4, 1800, Note_on_c, 2, 72, 64
4, 1860, Note_on_c, 2, 72, 0
4, 1860, Note_on_c, 2, 70, 64
4, 1920, Note_on_c, 2, 70, 0
4, 1920, Note_on_c, 2, 68, 64
4, 1980, Note_on_c, 2, 68, 0
4, 1980, Note_on_c, 2, 67, 64
4, 2040, Note_on_c, 2, 67, 0
4, 2040, Note_on_c, 2, 65, 64
4, 2100, Note_on_c, 2, 65, 0
4, 2100, Note_on_c, 2, 68, 64
4, 2160, Note_on_c, 2, 68, 0
4, 2160, Note_on_c, 2, 67, 64
4, 2640, Note_on_c, 2, 67, 0
4, 2640, Note_on_c, 2, 65, 64
4, 2940, Note_on_c, 2, 65, 0
4, 2940, Note_on_c, 2, 63, 64
4, 3000, Note_on_c, 2, 63, 0
4, 3000, Note_on_c, 2, 62, 64
4, 3060, Note_on_c, 2, 62, 0
4, 3060, Note_on_c, 2, 65, 64
4, 3120, Note_on_c, 2, 65, 0
4, 3120, Note_on_c, 2, 63, 64
4, 3480, Note_on_c, 2, 63, 0
4, 3480, Note_on_c, 2, 61, 64
4, 3540, Note_on_c, 2, 61, 0
4, 3540, Note_on_c, 2, 60, 64
4, 3600, Note_on_c, 2, 60, 0
4, 3600, Note_on_c, 2, 61, 64
4, 3660, Note_on_c, 2, 61, 0
4, 3660, Note_on_c, 2, 65, 64
4, 3720, Note_on_c, 2, 65, 0
4, 3720, Note_on_c, 2, 70, 64
4, 3780, Note_on_c, 2, 70, 0
4, 3780, Note_on_c, 2, 68, 64
4, 3840, Note_on_c, 2, 68, 0
4, 3840, Note_on_c, 2, 67, 64
4, 3900, Note_on_c, 2, 67, 0
4, 3900, Note_on_c, 2, 65, 64
4, 3960, Note_on_c, 2, 65, 0
4, 3960, Note_on_c, 2, 63, 64
4, 4020, Note_on_c, 2, 63, 0
4, 4020, Note_on_c, 2, 61, 64
4, 4080, Note_on_c, 2, 61, 0
4, 4080, Note_on_c, 2, 60, 64
4, 4140, Note_on_c, 2, 60, 0
4, 4140, Note_on_c, 2, 58, 64
4, 4200, Note_on_c, 2, 58, 0
4, 4200, Note_on_c, 2, 60, 64
4, 4260, Note_on_c, 2, 60, 0
4, 4260, Note_on_c, 2, 61, 64
4, 4320, Note_on_c, 2, 61, 0
4, 4320, Note_on_c, 2, 63, 64
4, 4560, Note_on_c, 2, 63, 0
4, 4560, Note_on_c, 2, 56, 64
4, 4800, Note_on_c, 2, 56, 0
4, 4800, Note_on_c, 2, 55, 64
4, 5040, Note_on_c, 2, 55, 0
4, 5040, Note_on_c, 2, 56, 64
4, 5100, Note_on_c, 2, 56, 0
4, 5100, Note_on_c, 2, 58, 64
4, 5160, Note_on_c, 2, 58, 0
4, 5160, Note_on_c, 2, 60, 64
4, 5280, Note_on_c, 2, 60, 0
4, 5280, Note_on_c, 2, 58, 64
4, 5460, Note_on_c, 2, 58, 0
4, 5460, Note_on_c, 2, 58, 64
4, 5520, Note_on_c, 2, 58, 0
4, 5520, Note_on_c, 2, 56, 64
4, 5640, Note_on_c, 2, 56, 0
4, 5640, Note_on_c, 2, 60, 64
4, 5760, Note_on_c, 2, 60, 0
4, 5760, Note_on_c, 2, 53, 64
4, 5880, Note_on_c, 2, 53, 0
4, 8880, Note_on_c, 2, 56, 64
4, 9000, Note_on_c, 2, 56, 0
4, 9000, Note_on_c, 2, 63, 64
4, 9120, Note_on_c, 2, 63, 0
4, 9120, Note_on_c, 2, 60, 64
4, 9240, Note_on_c, 2, 60, 0
4, 9240, Note_on_c, 2, 56, 64
4, 9360, Note_on_c, 2, 56, 0
4, 9360, Note_on_c, 2, 65, 64
4, 9480, Note_on_c, 2, 65, 0
4, 9480, Note_on_c, 2, 61, 64
4, 9600, Note_on_c, 2, 61, 0
4, 9600, Note_on_c, 2, 63, 64
4, 9840, Note_on_c, 2, 63, 0
4, 9840, Note_on_c, 2, 63, 64
4, 10320, Note_on_c, 2, 63, 0
4, 10320, Note_on_c, 2, 61, 64
4, 10800, Note_on_c, 2, 61, 0
4, 10800, Note_on_c, 2, 60, 64
4, 11280, Note_on_c, 2, 60, 0
4, 11280, Note_on_c, 2, 58, 64
4, 11760, Note_on_c, 2, 58, 0
4, 11760, Note_on_c, 2, 56, 64
4, 11880, Note_on_c, 2, 56, 0
4, 11880, Note_on_c, 2, 55, 64
4, 12060, Note_on_c, 2, 55, 0
4, 12060, Note_on_c, 2, 58, 64
4, 12120, Note_on_c, 2, 58, 0
4, 12120, Note_on_c, 2, 56, 64
4, 12180, Note_on_c, 2, 56, 0
4, 12180, Note_on_c, 2, 55, 64
4, 12240, Note_on_c, 2, 55, 0
4, 12240, Note_on_c, 2, 53, 64
4, 12300, Note_on_c, 2, 53, 0
4, 12300, Note_on_c, 2, 52, 64
4, 12360, Note_on_c, 2, 52, 0
4, 12360, Note_on_c, 2, 53, 64
4, 12420, Note_on_c, 2, 53, 0
4, 12420, Note_on_c, 2, 55, 64
4, 12480, Note_on_c, 2, 55, 0
4, 12480, Note_on_c, 2, 56, 64
4, 12540, Note_on_c, 2, 56, 0
4, 12540, Note_on_c, 2, 58, 64
4, 12600, Note_on_c, 2, 58, 0
4, 12600, Note_on_c, 2, 56, 64
4, 12660, Note_on_c, 2, 56, 0
4, 12660, Note_on_c, 2, 55, 64
4, 12720, Note_on_c, 2, 55, 0
4, 12720, Note_on_c, 2, 53, 64
4, 12840, Note_on_c, 2, 53, 0
4, 15600, Note_on_c, 2, 58, 64
4, 15720, Note_on_c, 2, 58, 0
4, 15720, Note_on_c, 2, 65, 64
4, 15840, Note_on_c, 2, 65, 0
4, 15840, Note_on_c, 2, 61, 64
4, 15960, Note_on_c, 2, 61, 0
4, 15960, Note_on_c, 2, 58, 64
4, 16080, Note_on_c, 2, 58, 0
4, 16080, Note_on_c, 2, 66, 64
4, 16200, Note_on_c, 2, 66, 0
4, 16200, Note_on_c, 2, 63, 64
4, 16320, Note_on_c, 2, 63, 0
4, 16320, Note_on_c, 2, 65, 64
4, 16560, Note_on_c, 2, 65, 0
4, 16560, Note_on_c, 2, 58, 64
4, 17040, Note_on_c, 2, 58, 0
4, 17040, Note_on_c, 2, 57, 64
4, 17100, Note_on_c, 2, 57, 0
4, 17100, Note_on_c, 2, 58, 64
4, 17160, Note_on_c, 2, 58, 0
4, 17160, Note_on_c, 2, 60, 64
4, 17220, Note_on_c, 2, 60, 0
4, 17220, Note_on_c, 2, 57, 64
4, 17280, Note_on_c, 2, 57, 0
4, 17280, Note_on_c, 2, 53, 64
4, 17400, Note_on_c, 2, 53, 0
4, 17400, Note_on_c, 2, 58, 64
4, 17460, Note_on_c, 2, 58, 0
4, 17460, Note_on_c, 2, 60, 64
4, 17520, Note_on_c, 2, 60, 0
4, 17520, Note_on_c, 2, 61, 64
4, 18000, Note_on_c, 2, 61, 0
4, 18000, Note_on_c, 2, 60, 64
4, 18480, Note_on_c, 2, 60, 0
4, 18480, Note_on_c, 2, 58, 64
4, 18960, Note_on_c, 2, 58, 0
4, 18960, Note_on_c, 2, 57, 64
4, 19200, Note_on_c, 2, 57, 0
4, 19200, Note_on_c, 2, 58, 64
4, 19260, Note_on_c, 2, 58, 0
4, 19260, Note_on_c, 2, 63, 64
4, 19320, Note_on_c, 2, 63, 0
4, 19320, Note_on_c, 2, 61, 64
4, 19380, Note_on_c, 2, 61, 0
4, 19380, Note_on_c, 2, 60, 64
4, 19440, Note_on_c, 2, 60, 0
4, 19440, Note_on_c, 2, 58, 64
4, 19500, Note_on_c, 2, 58, 0
4, 19500, Note_on_c, 2, 56, 64
4, 19560, Note_on_c, 2, 56, 0
4, 19560, Note_on_c, 2, 55, 64
4, 19620, Note_on_c, 2, 55, 0
4, 19620, Note_on_c, 2, 53, 64
4, 19680, Note_on_c, 2, 53, 0
4, 19680, Note_on_c, 2, 51, 64
4, 19740, Note_on_c, 2, 51, 0
4, 19740, Note_on_c, 2, 61, 64
4, 19800, Note_on_c, 2, 61, 0
4, 19800, Note_on_c, 2, 60, 64
4, 19860, Note_on_c, 2, 60, 0
4, 19860, Note_on_c, 2, 58, 64
4, 19920, Note_on_c, 2, 58, 0
4, 19920, Note_on_c, 2, 56, 64
4, 19980, Note_on_c, 2, 56, 0
4, 19980, Note_on_c, 2, 55, 64
4, 20040, Note_on_c, 2, 55, 0
4, 20040, Note_on_c, 2, 53, 64
4, 20100, Note_on_c, 2, 53, 0
4, 20100, Note_on_c, 2, 55, 64
4, 20160, Note_on_c, 2, 55, 0
4, 20160, Note_on_c, 2, 56, 64
4, 20220, Note_on_c, 2, 56, 0
4, 20220, Note_on_c, 2, 60, 64
4, 20280, Note_on_c, 2, 60, 0
4, 20280, Note_on_c, 2, 58, 64
4, 20340, Note_on_c, 2, 58, 0
4, 20340, Note_on_c, 2, 56, 64
4, 20400, Note_on_c, 2, 56, 0
4, 20400, Note_on_c, 2, 55, 64
4, 20460, Note_on_c, 2, 55, 0
4, 20460, Note_on_c, 2, 53, 64
4, 20520, Note_on_c, 2, 53, 0
4, 20520, Note_on_c, 2, 51, 64
4, 20580, Note_on_c, 2, 51, 0
4, 20580, Note_on_c, 2, 49, 64
4, 20640, Note_on_c, 2, 49, 0
4, 20640, Note_on_c, 2, 48, 64
4, 20760, Note_on_c, 2, 48, 0
4, 20760, Note_on_c, 2, 56, 64
4, 20880, Note_on_c, 2, 56, 0
4, 20880, Note_on_c, 2, 58, 64
4, 21000, Note_on_c, 2, 58, 0
4, 21000, Note_on_c, 2, 46, 64
4, 21120, Note_on_c, 2, 46, 0
4, 21120, Note_on_c, 2, 51, 64
4, 21360, Note_on_c, 2, 51, 0
4, 21420, Note_on_c, 2, 53, 64
4, 21480, Note_on_c, 2, 53, 0
4, 21480, Note_on_c, 2, 55, 64
4, 21540, Note_on_c, 2, 55, 0
4, 21540, Note_on_c, 2, 56, 64
4, 21600, Note_on_c, 2, 56, 0
4, 21600, Note_on_c, 2, 58, 64
4, 21660, Note_on_c, 2, 58, 0
4, 21660, Note_on_c, 2, 60, 64
4, 21720, Note_on_c, 2, 60, 0
4, 21720, Note_on_c, 2, 61, 64
4, 21780, Note_on_c, 2, 61, 0
4, 21780, Note_on_c, 2, 60, 64
4, 21840, Note_on_c, 2, 60, 0
4, 21840, Note_on_c, 2, 58, 64
4, 21900, Note_on_c, 2, 58, 0
4, 21900, Note_on_c, 2, 56, 64
4, 21960, Note_on_c, 2, 56, 0
4, 21960, Note_on_c, 2, 55, 64
4, 22020, Note_on_c, 2, 55, 0
4, 22020, Note_on_c, 2, 58, 64
4, 22080, Note_on_c, 2, 58, 0
4, 22080, Note_on_c, 2, 56, 64
4, 22140, Note_on_c, 2, 56, 0
4, 22140, Note_on_c, 2, 51, 64
4, 22200, Note_on_c, 2, 51, 0
4, 22200, Note_on_c, 2, 53, 64
4, 22260, Note_on_c, 2, 53, 0
4, 22260, Note_on_c, 2, 55, 64
4, 22320, Note_on_c, 2, 55, 0
4, 22320, Note_on_c, 2, 56, 64
4, 22380, Note_on_c, 2, 56, 0
4, 22380, Note_on_c, 2, 58, 64
4, 22440, Note_on_c, 2, 58, 0
4, 22440, Note_on_c, 2, 60, 64
4, 22500, Note_on_c, 2, 60, 0
4, 22500, Note_on_c, 2, 61, 64
4, 22560, Note_on_c, 2, 61, 0
4, 22560, Note_on_c, 2, 63, 64
4, 22620, Note_on_c, 2, 63, 0
4, 22620, Note_on_c, 2, 65, 64
4, 22680, Note_on_c, 2, 65, 0
4, 22680, Note_on_c, 2, 66, 64
4, 22740, Note_on_c, 2, 66, 0
4, 22740, Note_on_c, 2, 65, 64
4, 22800, Note_on_c, 2, 65, 0
4, 22800, Note_on_c, 2, 63, 64
4, 22860, Note_on_c, 2, 63, 0
4, 22860, Note_on_c, 2, 61, 64
4, 22920, Note_on_c, 2, 61, 0
4, 22920, Note_on_c, 2, 60, 64
4, 22980, Note_on_c, 2, 60, 0
4, 22980, Note_on_c, 2, 63, 64
4, 23040, Note_on_c, 2, 63, 0
4, 23040, Note_on_c, 2, 61, 64
4, 23100, Note_on_c, 2, 61, 0
4, 23100, Note_on_c, 2, 63, 64
4, 23160, Note_on_c, 2, 63, 0
4, 23160, Note_on_c, 2, 65, 64
4, 23220, Note_on_c, 2, 65, 0
4, 23220, Note_on_c, 2, 63, 64
4, 23280, Note_on_c, 2, 63, 0
4, 23280, Note_on_c, 2, 61, 64
4, 23340, Note_on_c, 2, 61, 0
4, 23340, Note_on_c, 2, 60, 64
4, 23400, Note_on_c, 2, 60, 0
4, 23400, Note_on_c, 2, 58, 64
4, 23460, Note_on_c, 2, 58, 0
4, 23460, Note_on_c, 2, 61, 64
4, 23520, Note_on_c, 2, 61, 0
4, 23520, Note_on_c, 2, 60, 64
4, 23580, Note_on_c, 2, 60, 0
4, 23580, Note_on_c, 2, 61, 64
4, 23640, Note_on_c, 2, 61, 0
4, 23640, Note_on_c, 2, 63, 64
4, 23700, Note_on_c, 2, 63, 0
4, 23700, Note_on_c, 2, 61, 64
4, 23760, Note_on_c, 2, 61, 0
4, 23760, Note_on_c, 2, 60, 64
4, 23820, Note_on_c, 2, 60, 0
4, 23820, Note_on_c, 2, 58, 64
4, 23880, Note_on_c, 2, 58, 0
4, 23880, Note_on_c, 2, 57, 64
4, 23940, Note_on_c, 2, 57, 0
4, 23940, Note_on_c, 2, 60, 64
4, 24000, Note_on_c, 2, 60, 0
4, 24000, Note_on_c, 2, 58, 64
4, 24060, Note_on_c, 2, 58, 0
4, 24060, Note_on_c, 2, 60, 64
4, 24120, Note_on_c, 2, 60, 0
4, 24120, Note_on_c, 2, 61, 64
4, 24180, Note_on_c, 2, 61, 0
4, 24180, Note_on_c, 2, 60, 64
4, 24240, Note_on_c, 2, 60, 0
4, 24240, Note_on_c, 2, 58, 64
4, 24300, Note_on_c, 2, 58, 0
4, 24300, Note_on_c, 2, 56, 64
4, 24360, Note_on_c, 2, 56, 0
4, 24360, Note_on_c, 2, 55, 64
4, 24420, Note_on_c, 2, 55, 0
4, 24420, Note_on_c, 2, 58, 64
4, 24480, Note_on_c, 2, 58, 0
4, 24480, Note_on_c, 2, 56, 64
4, 24540, Note_on_c, 2, 56, 0
4, 24540, Note_on_c, 2, 58, 64
4, 24600, Note_on_c, 2, 58, 0
4, 24600, Note_on_c, 2, 56, 64
4, 24660, Note_on_c, 2, 56, 0
4, 24660, Note_on_c, 2, 55, 64
4, 24720, Note_on_c, 2, 55, 0
4, 24720, Note_on_c, 2, 53, 64
4, 24780, Note_on_c, 2, 53, 0
4, 24780, Note_on_c, 2, 51, 64
4, 24840, Note_on_c, 2, 51, 0
4, 24840, Note_on_c, 2, 53, 64
4, 24900, Note_on_c, 2, 53, 0
4, 24900, Note_on_c, 2, 49, 64
4, 24960, Note_on_c, 2, 49, 0
4, 24960, Note_on_c, 2, 51, 64
4, 25020, Note_on_c, 2, 51, 0
4, 25020, Note_on_c, 2, 49, 64
4, 25080, Note_on_c, 2, 49, 0
4, 25080, Note_on_c, 2, 48, 64
4, 25140, Note_on_c, 2, 48, 0
4, 25140, Note_on_c, 2, 46, 64
4, 25200, Note_on_c, 2, 46, 0
4, 25200, Note_on_c, 2, 44, 64
4, 25320, Note_on_c, 2, 44, 0
4, 26160, Note_on_c, 2, 55, 64
4, 26280, Note_on_c, 2, 55, 0
4, 26280, Note_on_c, 2, 60, 64
4, 26400, Note_on_c, 2, 60, 0
4, 26400, Note_on_c, 2, 56, 64
4, 26520, Note_on_c, 2, 56, 0
4, 26520, Note_on_c, 2, 53, 64
4, 26640, Note_on_c, 2, 53, 0
4, 26640, Note_on_c, 2, 62, 64
4, 26760, Note_on_c, 2, 62, 0
4, 26760, Note_on_c, 2, 59, 64
4, 26880, Note_on_c, 2, 59, 0
4, 26880, Note_on_c, 2, 60, 64
4, 26940, Note_on_c, 2, 60, 0
4, 26940, Note_on_c, 2, 51, 64
4, 27000, Note_on_c, 2, 51, 0
4, 27000, Note_on_c, 2, 53, 64
4, 27060, Note_on_c, 2, 53, 0
4, 27060, Note_on_c, 2, 55, 64
4, 27120, Note_on_c, 2, 55, 0
4, 27120, Note_on_c, 2, 56, 64
4, 27180, Note_on_c, 2, 56, 0
4, 27180, Note_on_c, 2, 58, 64
4, 27240, Note_on_c, 2, 58, 0
4, 27240, Note_on_c, 2, 60, 64
4, 27300, Note_on_c, 2, 60, 0
4, 27300, Note_on_c, 2, 58, 64
4, 27360, Note_on_c, 2, 58, 0
4, 27360, Note_on_c, 2, 56, 64
4, 27420, Note_on_c, 2, 56, 0
4, 27420, Note_on_c, 2, 55, 64
4, 27480, Note_on_c, 2, 55, 0
4, 27480, Note_on_c, 2, 53, 64
4, 27540, Note_on_c, 2, 53, 0
4, 27540, Note_on_c, 2, 55, 64
4, 27600, Note_on_c, 2, 55, 0
4, 27600, Note_on_c, 2, 56, 64
4, 27660, Note_on_c, 2, 56, 0
4, 27660, Note_on_c, 2, 55, 64
4, 27720, Note_on_c, 2, 55, 0
4, 27720, Note_on_c, 2, 53, 64
4, 27780, Note_on_c, 2, 53, 0
4, 27780, Note_on_c, 2, 51, 64
4, 27840, Note_on_c, 2, 51, 0
4, 27840, Note_on_c, 2, 53, 64
4, 27900, Note_on_c, 2, 53, 0
4, 27900, Note_on_c, 2, 51, 64
4, 27960, Note_on_c, 2, 51, 0
4, 27960, Note_on_c, 2, 49, 64
4, 28020, Note_on_c, 2, 49, 0
4, 28020, Note_on_c, 2, 53, 64
4, 28080, Note_on_c, 2, 53, 0
4, 28080, Note_on_c, 2, 51, 64
4, 28200, Note_on_c, 2, 51, 0
4, 28680, Note_on_c, 2, 72, 64
4, 28800, Note_on_c, 2, 72, 0
4, 28800, Note_on_c, 2, 68, 64
4, 29040, Note_on_c, 2, 68, 0
4, 29160, Note_on_c, 2, 74, 64
4, 29280, Note_on_c, 2, 74, 0
4, 29280, Note_on_c, 2, 70, 64
4, 29520, Note_on_c, 2, 70, 0
4, 29640, Note_on_c, 2, 76, 64
4, 29760, Note_on_c, 2, 76, 0
4, 29760, Note_on_c, 2, 72, 64
4, 29880, Note_on_c, 2, 72, 0
4, 30360, Note_on_c, 2, 67, 64
4, 30480, Note_on_c, 2, 67, 0
4, 30480, Note_on_c, 2, 68, 64
4, 30600, Note_on_c, 2, 68, 0
4, 30600, Note_on_c, 2, 65, 64
4, 30720, Note_on_c, 2, 65, 0
4, 30720, Note_on_c, 2, 63, 64
4, 30960, Note_on_c, 2, 63, 0
4, 30960, Note_on_c, 2, 61, 64
4, 31200, Note_on_c, 2, 61, 0
4, 31200, Note_on_c, 2, 60, 64
4, 31440, Note_on_c, 2, 60, 0
4, 31560, Note_on_c, 2, 63, 64
4, 31680, Note_on_c, 2, 63, 0
4, 31680, Note_on_c, 2, 63, 64
4, 31800, Note_on_c, 2, 63, 0
4, 32040, Note_on_c, 2, 65, 64
4, 32160, Note_on_c, 2, 65, 0
4, 32160, Note_on_c, 2, 63, 64
4, 32280, Note_on_c, 2, 63, 0
4, 32520, Note_on_c, 2, 58, 64
4, 32630, Note_on_c, 2, 58, 0
4, 32640, Note_on_c, 2, 58, 64
4, 32880, Note_on_c, 2, 58, 0
4, 32880, Note_on_c, 2, 51, 64
4, 33110, Note_on_c, 2, 51, 0
4, 33120, Note_on_c, 2, 51, 64
4, 33600, Note_on_c, 2, 51, 0
4, 33600, End_track
5, 0, Start_track
5, 0, MIDI_port, 0
5, 0, Title_t, "LH L"
5, 0, Program_c, 3, 6
5, 1200, Note_on_c, 3, 51, 64
5, 1320, Note_on_c, 3, 51, 0
5, 1320, Note_on_c, 3, 56, 64
5, 1440, Note_on_c, 3, 56, 0
5, 1440, Note_on_c, 3, 55, 64
5, 1560, Note_on_c, 3, 55, 0
5, 1560, Note_on_c, 3, 51, 64
5, 1680, Note_on_c, 3, 51, 0
5, 1680, Note_on_c, 3, 60, 64
5, 1800, Note_on_c, 3, 60, 0
5, 1800, Note_on_c, 3, 56, 64
5, 1920, Note_on_c, 3, 56, 0
5, 1920, Note_on_c, 3, 58, 64
5, 2040, Note_on_c, 3, 58, 0
5, 2040, Note_on_c, 3, 51, 64
5, 2160, Note_on_c, 3, 51, 0
5, 2160, Note_on_c, 3, 58, 64
5, 2280, Note_on_c, 3, 58, 0
5, 2280, Note_on_c, 3, 55, 64
5, 2400, Note_on_c, 3, 55, 0
5, 2400, Note_on_c, 3, 56, 64
5, 2520, Note_on_c, 3, 56, 0
5, 2520, Note_on_c, 3, 51, 64
5, 2640, Note_on_c, 3, 51, 0
5, 2640, Note_on_c, 3, 56, 64
5, 2760, Note_on_c, 3, 56, 0
5, 2760, Note_on_c, 3, 53, 64
5, 2880, Note_on_c, 3, 53, 0
5, 2880, Note_on_c, 3, 55, 64
5, 3180, Note_on_c, 3, 55, 0
5, 3180, Note_on_c, 3, 48, 64
5, 3240, Note_on_c, 3, 48, 0
5, 3240, Note_on_c, 3, 49, 64
5, 3300, Note_on_c, 3, 49, 0
5, 3300, Note_on_c, 3, 51, 64
5, 3360, Note_on_c, 3, 51, 0
5, 3360, Note_on_c, 3, 53, 64
5, 3420, Note_on_c, 3, 53, 0
5, 3420, Note_on_c, 3, 55, 64
5, 3480, Note_on_c, 3, 55, 0
5, 3480, Note_on_c, 3, 56, 64
5, 3540, Note_on_c, 3, 56, 0
5, 3540, Note_on_c, 3, 53, 64
5, 3600, Note_on_c, 3, 53, 0
5, 3600, Note_on_c, 3, 58, 64
5, 3660, Note_on_c, 3, 58, 0
5, 3660, Note_on_c, 3, 60, 64
5, 3720, Note_on_c, 3, 60, 0
5, 3720, Note_on_c, 3, 61, 64
5, 3780, Note_on_c, 3, 61, 0
5, 3780, Note_on_c, 3, 60, 64
5, 3840, Note_on_c, 3, 60, 0
5, 3840, Note_on_c, 3, 58, 64
5, 3900, Note_on_c, 3, 58, 0
5, 3900, Note_on_c, 3, 56, 64
5, 3960, Note_on_c, 3, 56, 0
5, 3960, Note_on_c, 3, 55, 64
5, 4020, Note_on_c, 3, 55, 0
5, 4020, Note_on_c, 3, 58, 64
5, 4080, Note_on_c, 3, 58, 0
5, 4080, Note_on_c, 3, 56, 64
5, 4380, Note_on_c, 3, 56, 0
5, 4380, Note_on_c, 3, 44, 64
5, 4440, Note_on_c, 3, 44, 0
5, 4440, Note_on_c, 3, 46, 64
5, 4500, Note_on_c, 3, 46, 0
5, 4500, Note_on_c, 3, 48, 64
5, 4560, Note_on_c, 3, 48, 0
5, 4560, Note_on_c, 3, 49, 64
5, 4620, Note_on_c, 3, 49, 0
5, 4620, Note_on_c, 3, 51, 64
5, 4680, Note_on_c, 3, 51, 0
5, 4680, Note_on_c, 3, 53, 64
5, 4740, Note_on_c, 3, 53, 0
5, 4740, Note_on_c, 3, 51, 64
5, 4800, Note_on_c, 3, 51, 0
5, 4800, Note_on_c, 3, 49, 64
5, 4860, Note_on_c, 3, 49, 0
5, 4860, Note_on_c, 3, 48, 64
5, 4920, Note_on_c, 3, 48, 0
5, 4920, Note_on_c, 3, 46, 64
5, 4980, Note_on_c, 3, 46, 0
5, 4980, Note_on_c, 3, 49, 64
5, 5040, Note_on_c, 3, 49, 0
5, 5040, Note_on_c, 3, 48, 64
5, 5220, Note_on_c, 3, 48, 0
5, 5220, Note_on_c, 3, 50, 64
5, 5280, Note_on_c, 3, 50, 0
5, 5280, Note_on_c, 3, 51, 64
5, 5340, Note_on_c, 3, 51, 0
5, 5340, Note_on_c, 3, 53, 64
5, 5400, Note_on_c, 3, 53, 0
5, 5400, Note_on_c, 3, 55, 64
5, 5580, Note_on_c, 3, 55, 0
5, 5580, Note_on_c, 3, 55, 64
5, 5640, Note_on_c, 3, 55, 0
5, 5640, Note_on_c, 3, 53, 64
5, 5700, Note_on_c, 3, 53, 0
5, 5700, Note_on_c, 3, 51, 64
5, 5760, Note_on_c, 3, 51, 0
5, 5760, Note_on_c, 3, 50, 64
5, 5820, Note_on_c, 3, 50, 0
5, 5820, Note_on_c, 3, 46, 64
5, 5880, Note_on_c, 3, 46, 0
5, 5880, Note_on_c, 3, 48, 64
5, 5940, Note_on_c, 3, 48, 0
5, 5940, Note_on_c, 3, 50, 64
5, 6000, Note_on_c, 3, 50, 0
5, 6000, Note_on_c, 3, 51, 64
5, 6360, Note_on_c, 3, 51, 0
5, 6360, Note_on_c, 3, 56, 64
5, 6480, Note_on_c, 3, 56, 0
5, 6480, Note_on_c, 3, 49, 64
5, 6600, Note_on_c, 3, 49, 0
5, 6600, Note_on_c, 3, 58, 64
5, 6720, Note_on_c, 3, 58, 0
5, 6720, Note_on_c, 3, 51, 64
5, 7010, Note_on_c, 3, 51, 0
5, 7020, Note_on_c, 3, 51, 64
5, 7080, Note_on_c, 3, 51, 0
5, 7080, Note_on_c, 3, 53, 64
5, 7140, Note_on_c, 3, 53, 0
5, 7140, Note_on_c, 3, 55, 64
5, 7200, Note_on_c, 3, 55, 0
5, 7200, Note_on_c, 3, 56, 64
5, 7260, Note_on_c, 3, 56, 0
5, 7260, Note_on_c, 3, 58, 64
5, 7320, Note_on_c, 3, 58, 0
5, 7320, Note_on_c, 3, 60, 64
5, 7380, Note_on_c, 3, 60, 0
5, 7380, Note_on_c, 3, 58, 64
5, 7440, Note_on_c, 3, 58, 0
5, 7440, Note_on_c, 3, 56, 64
5, 7500, Note_on_c, 3, 56, 0
5, 7500, Note_on_c, 3, 55, 64
5, 7560, Note_on_c, 3, 55, 0
5, 7560, Note_on_c, 3, 53, 64
5, 7620, Note_on_c, 3, 53, 0
5, 7620, Note_on_c, 3, 56, 64
5, 7680, Note_on_c, 3, 56, 0
5, 7680, Note_on_c, 3, 55, 64
5, 7800, Note_on_c, 3, 55, 0
5, 7800, Note_on_c, 3, 51, 64
5, 7920, Note_on_c, 3, 51, 0
5, 7980, Note_on_c, 3, 44, 64
5, 8040, Note_on_c, 3, 44, 0
5, 8040, Note_on_c, 3, 46, 64
5, 8100, Note_on_c, 3, 46, 0
5, 8100, Note_on_c, 3, 48, 64
5, 8160, Note_on_c, 3, 48, 0
5, 8160, Note_on_c, 3, 49, 64
5, 8220, Note_on_c, 3, 49, 0
5, 8220, Note_on_c, 3, 51, 64
5, 8280, Note_on_c, 3, 51, 0
5, 8280, Note_on_c, 3, 53, 64
5, 8340, Note_on_c, 3, 53, 0
5, 8340, Note_on_c, 3, 51, 64
5, 8400, Note_on_c, 3, 51, 0
5, 8400, Note_on_c, 3, 49, 64
5, 8460, Note_on_c, 3, 49, 0
5, 8460, Note_on_c, 3, 48, 64
5, 8520, Note_on_c, 3, 48, 0
5, 8520, Note_on_c, 3, 46, 64
5, 8580, Note_on_c, 3, 46, 0
5, 8580, Note_on_c, 3, 49, 64
5, 8640, Note_on_c, 3, 49, 0
5, 8640, Note_on_c, 3, 48, 64
5, 8940, Note_on_c, 3, 48, 0
5, 8940, Note_on_c, 3, 49, 64
5, 9000, Note_on_c, 3, 49, 0
5, 9000, Note_on_c, 3, 51, 64
5, 9060, Note_on_c, 3, 51, 0
5, 9060, Note_on_c, 3, 48, 64
5, 9120, Note_on_c, 3, 48, 0
5, 9120, Note_on_c, 3, 53, 64
5, 9420, Note_on_c, 3, 53, 0
5, 9420, Note_on_c, 3, 51, 64
5, 9480, Note_on_c, 3, 51, 0
5, 9480, Note_on_c, 3, 53, 64
5, 9540, Note_on_c, 3, 53, 0
5, 9540, Note_on_c, 3, 49, 64
5, 9600, Note_on_c, 3, 49, 0
5, 9600, Note_on_c, 3, 56, 64
5, 9660, Note_on_c, 3, 56, 0
5, 9660, Note_on_c, 3, 55, 64
5, 9720, Note_on_c, 3, 55, 0
5, 9720, Note_on_c, 3, 56, 64
5, 9780, Note_on_c, 3, 56, 0
5, 9780, Note_on_c, 3, 58, 64
5, 9840, Note_on_c, 3, 58, 0
5, 9840, Note_on_c, 3, 60, 64
5, 9960, Note_on_c, 3, 60, 0
5, 9960, Note_on_c, 3, 55, 64
5, 10080, Note_on_c, 3, 55, 0
5, 10080, Note_on_c, 3, 56, 64
5, 10200, Note_on_c, 3, 56, 0
5, 10200, Note_on_c, 3, 53, 64
5, 10320, Note_on_c, 3, 53, 0
5, 10320, Note_on_c, 3, 58, 64
5, 10440, Note_on_c, 3, 58, 0
5, 10440, Note_on_c, 3, 53, 64
5, 10560, Note_on_c, 3, 53, 0
5, 10560, Note_on_c, 3, 55, 64
5, 10680, Note_on_c, 3, 55, 0
5, 10680, Note_on_c, 3, 51, 64
5, 10800, Note_on_c, 3, 51, 0
5, 10800, Note_on_c, 3, 56, 64
5, 10920, Note_on_c, 3, 56, 0
5, 10920, Note_on_c, 3, 51, 64
5, 11040, Note_on_c, 3, 51, 0
5, 11040, Note_on_c, 3, 53, 64
5, 11160, Note_on_c, 3, 53, 0
5, 11160, Note_on_c, 3, 50, 64
5, 11280, Note_on_c, 3, 50, 0
5, 11280, Note_on_c, 3, 55, 64
5, 11400, Note_on_c, 3, 55, 0
5, 11400, Note_on_c, 3, 50, 64
5, 11520, Note_on_c, 3, 50, 0
5, 11520, Note_on_c, 3, 52, 64
5, 11640, Note_on_c, 3, 52, 0
5, 11640, Note_on_c, 3, 48, 64
5, 11760, Note_on_c, 3, 48, 0
5, 11760, Note_on_c, 3, 50, 64
5, 11880, Note_on_c, 3, 50, 0
5, 11880, Note_on_c, 3, 52, 64
5, 12000, Note_on_c, 3, 52, 0
5, 12000, Note_on_c, 3, 53, 64
5, 12240, Note_on_c, 3, 53, 0
5, 12240, Note_on_c, 3, 46, 64
5, 12480, Note_on_c, 3, 46, 0
5, 12480, Note_on_c, 3, 53, 64
5, 12720, Note_on_c, 3, 53, 0
5, 12780, Note_on_c, 3, 41, 64
5, 12840, Note_on_c, 3, 41, 0
5, 12840, Note_on_c, 3, 43, 64
5, 12900, Note_on_c, 3, 43, 0
5, 12900, Note_on_c, 3, 44, 64
5, 12960, Note_on_c, 3, 44, 0
5, 12960, Note_on_c, 3, 46, 64
5, 13020, Note_on_c, 3, 46, 0
5, 13020, Note_on_c, 3, 44, 64
5, 13080, Note_on_c, 3, 44, 0
5, 13080, Note_on_c, 3, 43, 64
5, 13140, Note_on_c, 3, 43, 0
5, 13140, Note_on_c, 3, 41, 64
5, 13200, Note_on_c, 3, 41, 0
5, 13200, Note_on_c, 3, 39, 64
5, 13260, Note_on_c, 3, 39, 0
5, 13260, Note_on_c, 3, 41, 64
5, 13320, Note_on_c, 3, 41, 0
5, 13320, Note_on_c, 3, 43, 64
5, 13380, Note_on_c, 3, 43, 0
5, 13380, Note_on_c, 3, 46, 64
5, 13440, Note_on_c, 3, 46, 0
5, 13440, Note_on_c, 3, 44, 64
5, 13500, Note_on_c, 3, 44, 0
5, 13500, Note_on_c, 3, 43, 64
5, 13560, Note_on_c, 3, 43, 0
5, 13560, Note_on_c, 3, 41, 64
5, 13620, Note_on_c, 3, 41, 0
5, 13620, Note_on_c, 3, 39, 64
5, 13680, Note_on_c, 3, 39, 0
5, 13680, Note_on_c, 3, 37, 64
5, 13740, Note_on_c, 3, 37, 0
5, 13740, Note_on_c, 3, 39, 64
5, 13800, Note_on_c, 3, 39, 0
5, 13800, Note_on_c, 3, 41, 64
5, 13860, Note_on_c, 3, 41, 0
5, 13860, Note_on_c, 3, 44, 64
5, 13920, Note_on_c, 3, 44, 0
5, 13920, Note_on_c, 3, 43, 64
5, 14040, Note_on_c, 3, 43, 0
5, 14040, Note_on_c, 3, 46, 64
5, 14160, Note_on_c, 3, 46, 0
5, 14160, Note_on_c, 3, 48, 64
5, 14280, Note_on_c, 3, 48, 0
5, 14280, Note_on_c, 3, 36, 64
5, 14400, Note_on_c, 3, 36, 0
5, 14400, Note_on_c, 3, 41, 64
5, 14460, Note_on_c, 3, 41, 0
5, 14460, Note_on_c, 3, 48, 64
5, 14520, Note_on_c, 3, 48, 0
5, 14520, Note_on_c, 3, 50, 64
5, 14580, Note_on_c, 3, 50, 0
5, 14580, Note_on_c, 3, 52, 64
5, 14640, Note_on_c, 3, 52, 0
5, 14640, Note_on_c, 3, 53, 64
5, 15000, Note_on_c, 3, 53, 0
5, 15000, Note_on_c, 3, 58, 64
5, 15120, Note_on_c, 3, 58, 0
5, 15120, Note_on_c, 3, 52, 64
5, 15240, Note_on_c, 3, 52, 0
5, 15240, Note_on_c, 3, 60, 64
5, 15360, Note_on_c, 3, 60, 0
5, 15360, Note_on_c, 3, 51, 64
5, 15480, Note_on_c, 3, 51, 0
5, 15480, Note_on_c, 3, 57, 64
5, 15600, Note_on_c, 3, 57, 0
5, 15600, Note_on_c, 3, 49, 64
5, 15840, Note_on_c, 3, 49, 0
5, 15840, Note_on_c, 3, 54, 64
5, 16080, Note_on_c, 3, 54, 0
5, 16200, Note_on_c, 3, 54, 64
5, 16260, Note_on_c, 3, 54, 0
5, 16260, Note_on_c, 3, 53, 64
5, 16320, Note_on_c, 3, 53, 0
5, 16320, Note_on_c, 3, 51, 64
5, 16380, Note_on_c, 3, 51, 0
5, 16380, Note_on_c, 3, 54, 64
5, 16440, Note_on_c, 3, 54, 0
5, 16440, Note_on_c, 3, 53, 64
5, 16500, Note_on_c, 3, 53, 0
5, 16500, Note_on_c, 3, 51, 64
5, 16560, Note_on_c, 3, 51, 0
5, 16560, Note_on_c, 3, 49, 64
5, 16620, Note_on_c, 3, 49, 0
5, 16620, Note_on_c, 3, 48, 64
5, 16680, Note_on_c, 3, 48, 0
5, 16680, Note_on_c, 3, 46, 64
5, 16740, Note_on_c, 3, 46, 0
5, 16740, Note_on_c, 3, 49, 64
5, 16800, Note_on_c, 3, 49, 0
5, 16800, Note_on_c, 3, 51, 64
5, 16860, Note_on_c, 3, 51, 0
5, 16860, Note_on_c, 3, 53, 64
5, 16920, Note_on_c, 3, 53, 0
5, 16920, Note_on_c, 3, 54, 64
5, 16980, Note_on_c, 3, 54, 0
5, 16980, Note_on_c, 3, 51, 64
5, 17040, Note_on_c, 3, 51, 0
5, 17040, Note_on_c, 3, 53, 64
5, 17280, Note_on_c, 3, 53, 0
5, 17280, Note_on_c, 3, 46, 64
5, 17520, Note_on_c, 3, 46, 0
5, 25320, Note_on_c, 3, 51, 64
5, 25440, Note_on_c, 3, 51, 0
5, 25440, Note_on_c, 3, 48, 64
5, 25560, Note_on_c, 3, 48, 0
5, 25560, Note_on_c, 3, 44, 64
5, 25680, Note_on_c, 3, 44, 0
5, 25680, Note_on_c, 3, 53, 64
5, 25800, Note_on_c, 3, 53, 0
5, 25800, Note_on_c, 3, 49, 64
5, 25920, Note_on_c, 3, 49, 0
5, 25920, Note_on_c, 3, 51, 64
5, 26160, Note_on_c, 3, 51, 0
5, 26160, Note_on_c, 3, 52, 64
5, 26220, Note_on_c, 3, 52, 0
5, 26220, Note_on_c, 3, 58, 64
5, 26280, Note_on_c, 3, 58, 0
5, 26280, Note_on_c, 3, 56, 64
5, 26340, Note_on_c, 3, 56, 0
5, 26340, Note_on_c, 3, 55, 64
5, 26400, Note_on_c, 3, 55, 0
5, 26400, Note_on_c, 3, 53, 64
5, 26880, Note_on_c, 3, 53, 0
5, 26880, Note_on_c, 3, 48, 64
5, 27360, Note_on_c, 3, 48, 0
5, 27360, Note_on_c, 3, 49, 64
5, 27840, Note_on_c, 3, 49, 0
5, 27840, Note_on_c, 3, 44, 64
5, 28140, Note_on_c, 3, 44, 0
5, 28140, Note_on_c, 3, 41, 64
5, 28200, Note_on_c, 3, 41, 0
5, 28200, Note_on_c, 3, 43, 64
5, 28260, Note_on_c, 3, 43, 0
5, 28260, Note_on_c, 3, 44, 64
5, 28320, Note_on_c, 3, 44, 0
5, 28320, Note_on_c, 3, 46, 64
5, 28380, Note_on_c, 3, 46, 0
5, 28380, Note_on_c, 3, 48, 64
5, 28440, Note_on_c, 3, 48, 0
5, 28440, Note_on_c, 3, 49, 64
5, 28500, Note_on_c, 3, 49, 0
5, 28500, Note_on_c, 3, 51, 64
5, 28560, Note_on_c, 3, 51, 0
5, 28560, Note_on_c, 3, 49, 64
5, 28620, Note_on_c, 3, 49, 0
5, 28620, Note_on_c, 3, 48, 64
5, 28680, Note_on_c, 3, 48, 0
5, 28680, Note_on_c, 3, 46, 64
5, 28740, Note_on_c, 3, 46, 0
5, 28740, Note_on_c, 3, 44, 64
5, 28800, Note_on_c, 3, 44, 0
5, 28800, Note_on_c, 3, 49, 64
5, 28860, Note_on_c, 3, 49, 0
5, 28860, Note_on_c, 3, 48, 64
5, 28920, Note_on_c, 3, 48, 0
5, 28920, Note_on_c, 3, 49, 64
5, 28980, Note_on_c, 3, 49, 0
5, 28980, Note_on_c, 3, 53, 64
5, 29040, Note_on_c, 3, 53, 0
5, 29040, Note_on_c, 3, 51, 64
5, 29100, Note_on_c, 3, 51, 0
5, 29100, Note_on_c, 3, 50, 64
5, 29160, Note_on_c, 3, 50, 0
5, 29160, Note_on_c, 3, 48, 64
5, 29220, Note_on_c, 3, 48, 0
5, 29220, Note_on_c, 3, 46, 64
5, 29280, Note_on_c, 3, 46, 0
5, 29280, Note_on_c, 3, 51, 64
5, 29340, Note_on_c, 3, 51, 0
5, 29340, Note_on_c, 3, 50, 64
5, 29400, Note_on_c, 3, 50, 0
5, 29400, Note_on_c, 3, 51, 64
5, 29460, Note_on_c, 3, 51, 0
5, 29460, Note_on_c, 3, 55, 64
5, 29520, Note_on_c, 3, 55, 0
5, 29520, Note_on_c, 3, 53, 64
5, 29580, Note_on_c, 3, 53, 0
5, 29580, Note_on_c, 3, 52, 64
5, 29640, Note_on_c, 3, 52, 0
5, 29640, Note_on_c, 3, 50, 64
5, 29700, Note_on_c, 3, 50, 0
5, 29700, Note_on_c, 3, 48, 64
5, 29760, Note_on_c, 3, 48, 0
5, 29760, Note_on_c, 3, 53, 64
5, 29820, Note_on_c, 3, 53, 0
5, 29820, Note_on_c, 3, 55, 64
5, 29880, Note_on_c, 3, 55, 0
5, 29880, Note_on_c, 3, 56, 64
5, 29940, Note_on_c, 3, 56, 0
5, 29940, Note_on_c, 3, 53, 64
5, 30000, Note_on_c, 3, 53, 0
5, 30000, Note_on_c, 3, 58, 64
5, 30060, Note_on_c, 3, 58, 0
5, 30060, Note_on_c, 3, 56, 64
5, 30120, Note_on_c, 3, 56, 0
5, 30120, Note_on_c, 3, 55, 64
5, 30180, Note_on_c, 3, 55, 0
5, 30180, Note_on_c, 3, 53, 64
5, 30240, Note_on_c, 3, 53, 0
5, 30240, Note_on_c, 3, 51, 64
5, 30300, Note_on_c, 3, 51, 0
5, 30300, Note_on_c, 3, 49, 64
5, 30360, Note_on_c, 3, 49, 0
5, 30360, Note_on_c, 3, 48, 64
5, 30420, Note_on_c, 3, 48, 0
5, 30420, Note_on_c, 3, 46, 64
5, 30480, Note_on_c, 3, 46, 0
5, 30480, Note_on_c, 3, 44, 64
5, 30540, Note_on_c, 3, 44, 0
5, 30540, Note_on_c, 3, 46, 64
5, 30600, Note_on_c, 3, 46, 0
5, 30600, Note_on_c, 3, 48, 64
5, 30660, Note_on_c, 3, 48, 0
5, 30660, Note_on_c, 3, 49, 64
5, 30720, Note_on_c, 3, 49, 0
5, 30720, Note_on_c, 3, 51, 64
5, 30780, Note_on_c, 3, 51, 0
5, 30780, Note_on_c, 3, 49, 64
5, 30840, Note_on_c, 3, 49, 0
5, 30840, Note_on_c, 3, 48, 64
5, 30900, Note_on_c, 3, 48, 0
5, 30900, Note_on_c, 3, 49, 64
5, 30960, Note_on_c, 3, 49, 0
5, 30960, Note_on_c, 3, 51, 64
5, 31080, Note_on_c, 3, 51, 0
5, 31080, Note_on_c, 3, 39, 64
5, 31200, Note_on_c, 3, 39, 0
5, 31200, Note_on_c, 3, 41, 64
5, 31440, Note_on_c, 3, 41, 0
5, 31500, Note_on_c, 3, 39, 64
5, 31560, Note_on_c, 3, 39, 0
5, 31560, Note_on_c, 3, 41, 64
5, 31620, Note_on_c, 3, 41, 0
5, 31620, Note_on_c, 3, 43, 64
5, 31680, Note_on_c, 3, 43, 0
5, 31680, Note_on_c, 3, 44, 64
5, 31740, Note_on_c, 3, 44, 0
5, 31740, Note_on_c, 3, 46, 64
5, 31800, Note_on_c, 3, 46, 0
5, 31800, Note_on_c, 3, 48, 64
5, 31860, Note_on_c, 3, 48, 0
5, 31860, Note_on_c, 3, 51, 64
5, 31920, Note_on_c, 3, 51, 0
5, 31920, Note_on_c, 3, 49, 64
5, 31980, Note_on_c, 3, 49, 0
5, 31980, Note_on_c, 3, 48, 64
5, 32040, Note_on_c, 3, 48, 0
5, 32040, Note_on_c, 3, 46, 64
5, 32100, Note_on_c, 3, 46, 0
5, 32100, Note_on_c, 3, 44, 64
5, 32160, Note_on_c, 3, 44, 0
5, 32160, Note_on_c, 3, 43, 64
5, 32220, Note_on_c, 3, 43, 0
5, 32220, Note_on_c, 3, 41, 64
5, 32280, Note_on_c, 3, 41, 0
5, 32280, Note_on_c, 3, 39, 64
5, 32340, Note_on_c, 3, 39, 0
5, 32340, Note_on_c, 3, 37, 64
5, 32400, Note_on_c, 3, 37, 0
5, 32400, Note_on_c, 3, 36, 64
5, 32460, Note_on_c, 3, 36, 0
5, 32460, Note_on_c, 3, 39, 64
5, 32520, Note_on_c, 3, 39, 0
5, 32520, Note_on_c, 3, 37, 64
5, 32580, Note_on_c, 3, 37, 0
5, 32580, Note_on_c, 3, 41, 64
5, 32640, Note_on_c, 3, 41, 0
5, 32640, Note_on_c, 3, 39, 64
5, 33120, Note_on_c, 3, 39, 0
5, 33120, Note_on_c, 3, 44, 64
5, 33600, Note_on_c, 3, 44, 0
5, 33600, End_track
0, 0, End_of_file
