0, 0, Header, 1, 12, 480
1, 0, Start_track
1, 0, Title_t, "untitled"
1, 0, Time_signature, 4, 2, 24, 8
1, 0, Key_signature, 0, "major"
1, 0, Tempo, 571429
1, 261120, Tempo, 631579
1, 262080, Tempo, 1200000
1, 264960, Time_signature, 12, 3, 12, 8
1, 264960, Tempo, 521739
1, 540000, Tempo, 750000
1, 541200, Tempo, 3000000
1, 541200, End_track
2, 0, Start_track
2, 0, Title_t, "Violino       I"
2, 0, Program_c, 0, 40
2, 0, Control_c, 0, 10, 56
2, 1680, Note_on_c, 0, 79, 64
2, 1796, Note_on_c, 0, 79, 0
2, 1800, Note_on_c, 0, 78, 64
2, 1916, Note_on_c, 0, 78, 0
2, 1920, Note_on_c, 0, 79, 64
2, 2156, Note_on_c, 0, 79, 0
2, 2160, Note_on_c, 0, 74, 64
2, 2276, Note_on_c, 0, 74, 0
2, 2280, Note_on_c, 0, 72, 64
2, 2396, Note_on_c, 0, 72, 0
2, 2400, Note_on_c, 0, 74, 64
2, 2636, Note_on_c, 0, 74, 0
2, 2640, Note_on_c, 0, 79, 64
2, 2756, Note_on_c, 0, 79, 0
2, 2760, Note_on_c, 0, 78, 64
2, 2876, Note_on_c, 0, 78, 0
2, 2880, Note_on_c, 0, 79, 64
2, 3116, Note_on_c, 0, 79, 0
2, 3120, Note_on_c, 0, 71, 64
2, 3236, Note_on_c, 0, 71, 0
2, 3240, Note_on_c, 0, 69, 64
2, 3356, Note_on_c, 0, 69, 0
2, 3360, Note_on_c, 0, 71, 64
2, 3596, Note_on_c, 0, 71, 0
2, 3600, Note_on_c, 0, 79, 64
2, 3716, Note_on_c, 0, 79, 0
2, 3720, Note_on_c, 0, 78, 64
2, 3836, Note_on_c, 0, 78, 0
2, 3840, Note_on_c, 0, 79, 64
2, 4076, Note_on_c, 0, 79, 0
2, 4080, Note_on_c, 0, 67, 64
2, 4196, Note_on_c, 0, 67, 0
2, 4200, Note_on_c, 0, 69, 64
2, 4316, Note_on_c, 0, 69, 0
2, 4320, Note_on_c, 0, 71, 64
2, 4556, Note_on_c, 0, 71, 0
2, 4560, Note_on_c, 0, 73, 64
2, 4796, Note_on_c, 0, 73, 0
2, 4800, Note_on_c, 0, 74, 64
2, 4916, Note_on_c, 0, 74, 0
2, 4920, Note_on_c, 0, 73, 64
2, 5036, Note_on_c, 0, 73, 0
2, 5040, Note_on_c, 0, 74, 64
2, 5156, Note_on_c, 0, 74, 0
2, 5160, Note_on_c, 0, 76, 64
2, 5276, Note_on_c, 0, 76, 0
2, 5280, Note_on_c, 0, 74, 64
2, 5396, Note_on_c, 0, 74, 0
2, 5400, Note_on_c, 0, 78, 64
2, 5516, Note_on_c, 0, 78, 0
2, 5520, Note_on_c, 0, 74, 64
2, 5636, Note_on_c, 0, 74, 0
2, 5640, Note_on_c, 0, 79, 64
2, 5756, Note_on_c, 0, 79, 0
2, 5760, Note_on_c, 0, 74, 64
2, 5876, Note_on_c, 0, 74, 0
2, 5880, Note_on_c, 0, 73, 64
2, 5996, Note_on_c, 0, 73, 0
2, 6000, Note_on_c, 0, 74, 64
2, 6116, Note_on_c, 0, 74, 0
2, 6120, Note_on_c, 0, 76, 64
2, 6236, Note_on_c, 0, 76, 0
2, 6240, Note_on_c, 0, 74, 64
2, 6356, Note_on_c, 0, 74, 0
2, 6360, Note_on_c, 0, 81, 64
2, 6476, Note_on_c, 0, 81, 0
2, 6480, Note_on_c, 0, 74, 64
2, 6596, Note_on_c, 0, 74, 0
2, 6600, Note_on_c, 0, 83, 64
2, 6716, Note_on_c, 0, 83, 0
2, 6720, Note_on_c, 0, 74, 64
2, 6836, Note_on_c, 0, 74, 0
2, 6840, Note_on_c, 0, 73, 64
2, 6956, Note_on_c, 0, 73, 0
2, 6960, Note_on_c, 0, 74, 64
2, 7076, Note_on_c, 0, 74, 0
2, 7080, Note_on_c, 0, 76, 64
2, 7196, Note_on_c, 0, 76, 0
2, 7200, Note_on_c, 0, 74, 64
2, 7316, Note_on_c, 0, 74, 0
2, 7320, Note_on_c, 0, 84, 64
2, 7436, Note_on_c, 0, 84, 0
2, 7440, Note_on_c, 0, 74, 64
2, 7556, Note_on_c, 0, 74, 0
2, 7560, Note_on_c, 0, 86, 64
2, 7676, Note_on_c, 0, 86, 0
2, 7680, Note_on_c, 0, 83, 64
2, 7916, Note_on_c, 0, 83, 0
2, 7920, Note_on_c, 0, 81, 64
2, 8036, Note_on_c, 0, 81, 0
2, 8040, Note_on_c, 0, 79, 64
2, 8156, Note_on_c, 0, 79, 0
2, 8160, Note_on_c, 0, 81, 64
2, 8396, Note_on_c, 0, 81, 0
2, 8400, Note_on_c, 0, 79, 64
2, 8516, Note_on_c, 0, 79, 0
2, 8520, Note_on_c, 0, 78, 64
2, 8636, Note_on_c, 0, 78, 0
2, 8640, Note_on_c, 0, 79, 64
2, 8876, Note_on_c, 0, 79, 0
2, 8880, Note_on_c, 0, 78, 64
2, 8996, Note_on_c, 0, 78, 0
2, 9000, Note_on_c, 0, 76, 64
2, 9116, Note_on_c, 0, 76, 0
2, 9120, Note_on_c, 0, 74, 64
2, 9236, Note_on_c, 0, 74, 0
2, 9240, Note_on_c, 0, 79, 64
2, 9356, Note_on_c, 0, 79, 0
2, 9360, Note_on_c, 0, 74, 64
2, 9476, Note_on_c, 0, 74, 0
2, 9480, Note_on_c, 0, 79, 64
2, 9596, Note_on_c, 0, 79, 0
2, 9600, Note_on_c, 0, 76, 64
2, 9836, Note_on_c, 0, 76, 0
2, 9840, Note_on_c, 0, 74, 64
2, 9956, Note_on_c, 0, 74, 0
2, 9960, Note_on_c, 0, 72, 64
2, 10076, Note_on_c, 0, 72, 0
2, 10080, Note_on_c, 0, 71, 64
2, 10196, Note_on_c, 0, 71, 0
2, 10200, Note_on_c, 0, 79, 64
2, 10316, Note_on_c, 0, 79, 0
2, 10320, Note_on_c, 0, 71, 64
2, 10436, Note_on_c, 0, 71, 0
2, 10440, Note_on_c, 0, 79, 64
2, 10556, Note_on_c, 0, 79, 0
2, 10560, Note_on_c, 0, 72, 64
2, 10796, Note_on_c, 0, 72, 0
2, 10800, Note_on_c, 0, 71, 64
2, 10916, Note_on_c, 0, 71, 0
2, 10920, Note_on_c, 0, 69, 64
2, 11036, Note_on_c, 0, 69, 0
2, 11040, Note_on_c, 0, 67, 64
2, 11156, Note_on_c, 0, 67, 0
2, 11160, Note_on_c, 0, 79, 64
2, 11276, Note_on_c, 0, 79, 0
2, 11280, Note_on_c, 0, 69, 64
2, 11396, Note_on_c, 0, 69, 0
2, 11400, Note_on_c, 0, 79, 64
2, 11516, Note_on_c, 0, 79, 0
2, 11520, Note_on_c, 0, 71, 64
2, 11636, Note_on_c, 0, 71, 0
2, 11640, Note_on_c, 0, 79, 64
2, 11756, Note_on_c, 0, 79, 0
2, 11760, Note_on_c, 0, 73, 64
2, 11876, Note_on_c, 0, 73, 0
2, 11880, Note_on_c, 0, 79, 64
2, 11996, Note_on_c, 0, 79, 0
2, 12000, Note_on_c, 0, 74, 64
2, 12116, Note_on_c, 0, 74, 0
2, 12120, Note_on_c, 0, 78, 64
2, 12236, Note_on_c, 0, 78, 0
2, 12240, Note_on_c, 0, 74, 64
2, 12356, Note_on_c, 0, 74, 0
2, 12360, Note_on_c, 0, 79, 64
2, 12476, Note_on_c, 0, 79, 0
2, 12480, Note_on_c, 0, 74, 64
2, 12596, Note_on_c, 0, 74, 0
2, 12600, Note_on_c, 0, 81, 64
2, 12716, Note_on_c, 0, 81, 0
2, 12720, Note_on_c, 0, 74, 64
2, 12836, Note_on_c, 0, 74, 0
2, 12840, Note_on_c, 0, 83, 64
2, 12956, Note_on_c, 0, 83, 0
2, 12960, Note_on_c, 0, 74, 64
2, 13076, Note_on_c, 0, 74, 0
2, 13080, Note_on_c, 0, 84, 64
2, 13196, Note_on_c, 0, 84, 0
2, 13200, Note_on_c, 0, 74, 64
2, 13316, Note_on_c, 0, 74, 0
2, 13320, Note_on_c, 0, 86, 64
2, 13436, Note_on_c, 0, 86, 0
2, 13440, Note_on_c, 0, 83, 64
2, 13676, Note_on_c, 0, 83, 0
2, 13680, Note_on_c, 0, 81, 64
2, 13796, Note_on_c, 0, 81, 0
2, 13800, Note_on_c, 0, 79, 64
2, 13916, Note_on_c, 0, 79, 0
2, 13920, Note_on_c, 0, 74, 64
2, 14156, Note_on_c, 0, 74, 0
2, 14160, Note_on_c, 0, 78, 64
2, 14396, Note_on_c, 0, 78, 0
2, 14400, Note_on_c, 0, 79, 64
2, 14636, Note_on_c, 0, 79, 0
2, 14640, Note_on_c, 0, 78, 64
2, 14756, Note_on_c, 0, 78, 0
2, 14760, Note_on_c, 0, 76, 64
2, 14876, Note_on_c, 0, 76, 0
2, 14880, Note_on_c, 0, 74, 64
2, 14996, Note_on_c, 0, 74, 0
2, 15000, Note_on_c, 0, 72, 64
2, 15116, Note_on_c, 0, 72, 0
2, 15120, Note_on_c, 0, 71, 64
2, 15236, Note_on_c, 0, 71, 0
2, 15240, Note_on_c, 0, 69, 64
2, 15356, Note_on_c, 0, 69, 0
2, 15360, Note_on_c, 0, 71, 64
2, 15596, Note_on_c, 0, 71, 0
2, 15600, Note_on_c, 0, 69, 64
2, 15716, Note_on_c, 0, 69, 0
2, 15720, Note_on_c, 0, 67, 64
2, 15836, Note_on_c, 0, 67, 0
2, 15840, Note_on_c, 0, 74, 64
2, 16076, Note_on_c, 0, 74, 0
2, 16080, Note_on_c, 0, 74, 64
2, 16316, Note_on_c, 0, 74, 0
2, 16320, Note_on_c, 0, 67, 64
2, 16796, Note_on_c, 0, 67, 0
2, 17040, Note_on_c, 0, 91, 64
2, 17156, Note_on_c, 0, 91, 0
2, 17160, Note_on_c, 0, 90, 64
2, 17276, Note_on_c, 0, 90, 0
2, 17280, Note_on_c, 0, 91, 64
2, 17516, Note_on_c, 0, 91, 0
2, 17520, Note_on_c, 0, 86, 64
2, 17636, Note_on_c, 0, 86, 0
2, 17640, Note_on_c, 0, 84, 64
2, 17756, Note_on_c, 0, 84, 0
2, 17760, Note_on_c, 0, 86, 64
2, 17996, Note_on_c, 0, 86, 0
2, 19440, Note_on_c, 0, 74, 64
2, 19676, Note_on_c, 0, 74, 0
2, 19680, Note_on_c, 0, 79, 64
2, 19796, Note_on_c, 0, 79, 0
2, 19800, Note_on_c, 0, 83, 64
2, 19916, Note_on_c, 0, 83, 0
2, 19920, Note_on_c, 0, 81, 64
2, 20036, Note_on_c, 0, 81, 0
2, 20040, Note_on_c, 0, 79, 64
2, 20156, Note_on_c, 0, 79, 0
2, 20160, Note_on_c, 0, 78, 64
2, 20276, Note_on_c, 0, 78, 0
2, 20280, Note_on_c, 0, 81, 64
2, 20396, Note_on_c, 0, 81, 0
2, 20400, Note_on_c, 0, 74, 64
2, 20516, Note_on_c, 0, 74, 0
2, 20520, Note_on_c, 0, 76, 64
2, 20636, Note_on_c, 0, 76, 0
2, 20640, Note_on_c, 0, 78, 64
2, 20756, Note_on_c, 0, 78, 0
2, 20760, Note_on_c, 0, 79, 64
2, 20876, Note_on_c, 0, 79, 0
2, 20880, Note_on_c, 0, 81, 64
2, 20996, Note_on_c, 0, 81, 0
2, 21000, Note_on_c, 0, 79, 64
2, 21116, Note_on_c, 0, 79, 0
2, 21120, Note_on_c, 0, 78, 64
2, 21356, Note_on_c, 0, 78, 0
2, 21360, Note_on_c, 0, 86, 64
2, 21596, Note_on_c, 0, 86, 0
2, 21840, Note_on_c, 0, 85, 64
2, 22076, Note_on_c, 0, 85, 0
2, 22080, Note_on_c, 0, 86, 64
2, 22316, Note_on_c, 0, 86, 0
2, 22320, Note_on_c, 0, 79, 64
2, 22556, Note_on_c, 0, 79, 0
2, 22560, Note_on_c, 0, 74, 64
2, 22796, Note_on_c, 0, 74, 0
2, 22800, Note_on_c, 0, 76, 64
2, 23036, Note_on_c, 0, 76, 0
2, 23040, Note_on_c, 0, 78, 64
2, 23276, Note_on_c, 0, 78, 0
2, 23280, Note_on_c, 0, 76, 64
2, 23396, Note_on_c, 0, 76, 0
2, 23400, Note_on_c, 0, 74, 64
2, 23516, Note_on_c, 0, 74, 0
2, 23520, Note_on_c, 0, 76, 64
2, 23756, Note_on_c, 0, 76, 0
2, 23760, Note_on_c, 0, 74, 64
2, 23876, Note_on_c, 0, 74, 0
2, 23880, Note_on_c, 0, 73, 64
2, 23996, Note_on_c, 0, 73, 0
2, 24000, Note_on_c, 0, 74, 64
2, 24236, Note_on_c, 0, 74, 0
2, 24240, Note_on_c, 0, 73, 64
2, 24356, Note_on_c, 0, 73, 0
2, 24360, Note_on_c, 0, 71, 64
2, 24476, Note_on_c, 0, 71, 0
2, 24480, Note_on_c, 0, 69, 64
2, 24596, Note_on_c, 0, 69, 0
2, 24600, Note_on_c, 0, 74, 64
2, 24716, Note_on_c, 0, 74, 0
2, 24720, Note_on_c, 0, 69, 64
2, 24836, Note_on_c, 0, 69, 0
2, 24840, Note_on_c, 0, 74, 64
2, 24956, Note_on_c, 0, 74, 0
2, 24960, Note_on_c, 0, 71, 64
2, 25196, Note_on_c, 0, 71, 0
2, 25200, Note_on_c, 0, 69, 64
2, 25316, Note_on_c, 0, 69, 0
2, 25320, Note_on_c, 0, 67, 64
2, 25436, Note_on_c, 0, 67, 0
2, 25440, Note_on_c, 0, 66, 64
2, 25556, Note_on_c, 0, 66, 0
2, 25560, Note_on_c, 0, 74, 64
2, 25676, Note_on_c, 0, 74, 0
2, 25680, Note_on_c, 0, 66, 64
2, 25796, Note_on_c, 0, 66, 0
2, 25800, Note_on_c, 0, 74, 64
2, 25916, Note_on_c, 0, 74, 0
2, 25920, Note_on_c, 0, 67, 64
2, 26156, Note_on_c, 0, 67, 0
2, 26160, Note_on_c, 0, 66, 64
2, 26276, Note_on_c, 0, 66, 0
2, 26280, Note_on_c, 0, 64, 64
2, 26396, Note_on_c, 0, 64, 0
2, 26400, Note_on_c, 0, 62, 64
2, 26516, Note_on_c, 0, 62, 0
2, 26520, Note_on_c, 0, 74, 64
2, 26636, Note_on_c, 0, 74, 0
2, 26640, Note_on_c, 0, 64, 64
2, 26756, Note_on_c, 0, 64, 0
2, 26760, Note_on_c, 0, 74, 64
2, 26876, Note_on_c, 0, 74, 0
2, 26880, Note_on_c, 0, 66, 64
2, 26996, Note_on_c, 0, 66, 0
2, 27000, Note_on_c, 0, 74, 64
2, 27116, Note_on_c, 0, 74, 0
2, 27120, Note_on_c, 0, 68, 64
2, 27236, Note_on_c, 0, 68, 0
2, 27240, Note_on_c, 0, 74, 64
2, 27356, Note_on_c, 0, 74, 0
2, 27360, Note_on_c, 0, 69, 64
2, 27476, Note_on_c, 0, 69, 0
2, 27480, Note_on_c, 0, 73, 64
2, 27596, Note_on_c, 0, 73, 0
2, 27600, Note_on_c, 0, 69, 64
2, 27716, Note_on_c, 0, 69, 0
2, 27720, Note_on_c, 0, 74, 64
2, 27836, Note_on_c, 0, 74, 0
2, 27840, Note_on_c, 0, 69, 64
2, 27956, Note_on_c, 0, 69, 0
2, 27960, Note_on_c, 0, 76, 64
2, 28076, Note_on_c, 0, 76, 0
2, 28080, Note_on_c, 0, 69, 64
2, 28196, Note_on_c, 0, 69, 0
2, 28200, Note_on_c, 0, 78, 64
2, 28316, Note_on_c, 0, 78, 0
2, 28320, Note_on_c, 0, 69, 64
2, 28436, Note_on_c, 0, 69, 0
2, 28440, Note_on_c, 0, 79, 64
2, 28556, Note_on_c, 0, 79, 0
2, 28560, Note_on_c, 0, 69, 64
2, 28676, Note_on_c, 0, 69, 0
2, 28680, Note_on_c, 0, 81, 64
2, 28796, Note_on_c, 0, 81, 0
2, 28800, Note_on_c, 0, 78, 64
2, 29036, Note_on_c, 0, 78, 0
2, 29040, Note_on_c, 0, 76, 64
2, 29156, Note_on_c, 0, 76, 0
2, 29160, Note_on_c, 0, 74, 64
2, 29276, Note_on_c, 0, 74, 0
2, 29280, Note_on_c, 0, 69, 64
2, 29516, Note_on_c, 0, 69, 0
2, 29520, Note_on_c, 0, 73, 64
2, 29756, Note_on_c, 0, 73, 0
2, 29760, Note_on_c, 0, 74, 64
2, 30236, Note_on_c, 0, 74, 0
2, 30480, Note_on_c, 0, 79, 64
2, 30596, Note_on_c, 0, 79, 0
2, 30600, Note_on_c, 0, 78, 64
2, 30716, Note_on_c, 0, 78, 0
2, 30720, Note_on_c, 0, 79, 64
2, 30956, Note_on_c, 0, 79, 0
2, 30960, Note_on_c, 0, 74, 64
2, 31076, Note_on_c, 0, 74, 0
2, 31080, Note_on_c, 0, 72, 64
2, 31196, Note_on_c, 0, 72, 0
2, 31200, Note_on_c, 0, 74, 64
2, 31436, Note_on_c, 0, 74, 0
2, 32880, Note_on_c, 0, 71, 64
2, 32996, Note_on_c, 0, 71, 0
2, 33000, Note_on_c, 0, 72, 64
2, 33116, Note_on_c, 0, 72, 0
2, 33120, Note_on_c, 0, 74, 64
2, 33356, Note_on_c, 0, 74, 0
2, 33360, Note_on_c, 0, 78, 64
2, 33596, Note_on_c, 0, 78, 0
2, 33600, Note_on_c, 0, 69, 64
2, 33836, Note_on_c, 0, 69, 0
2, 33840, Note_on_c, 0, 86, 64
2, 33956, Note_on_c, 0, 86, 0
2, 33960, Note_on_c, 0, 85, 64
2, 34076, Note_on_c, 0, 85, 0
2, 34080, Note_on_c, 0, 86, 64
2, 34316, Note_on_c, 0, 86, 0
2, 34800, Note_on_c, 0, 86, 64
2, 34916, Note_on_c, 0, 86, 0
2, 34920, Note_on_c, 0, 85, 64
2, 35036, Note_on_c, 0, 85, 0
2, 35040, Note_on_c, 0, 86, 64
2, 35276, Note_on_c, 0, 86, 0
2, 35760, Note_on_c, 0, 86, 64
2, 35876, Note_on_c, 0, 86, 0
2, 35880, Note_on_c, 0, 85, 64
2, 35996, Note_on_c, 0, 85, 0
2, 36000, Note_on_c, 0, 86, 64
2, 36236, Note_on_c, 0, 86, 0
2, 36720, Note_on_c, 0, 74, 64
2, 36956, Note_on_c, 0, 74, 0
2, 36960, Note_on_c, 0, 78, 64
2, 37196, Note_on_c, 0, 78, 0
2, 37200, Note_on_c, 0, 81, 64
2, 37436, Note_on_c, 0, 81, 0
2, 37440, Note_on_c, 0, 78, 64
2, 37676, Note_on_c, 0, 78, 0
2, 37680, Note_on_c, 0, 74, 64
2, 37916, Note_on_c, 0, 74, 0
2, 37920, Note_on_c, 0, 78, 64
2, 38156, Note_on_c, 0, 78, 0
2, 38160, Note_on_c, 0, 81, 64
2, 38396, Note_on_c, 0, 81, 0
2, 38400, Note_on_c, 0, 78, 64
2, 38636, Note_on_c, 0, 78, 0
2, 38640, Note_on_c, 0, 69, 64
2, 38876, Note_on_c, 0, 69, 0
2, 38880, Note_on_c, 0, 74, 64
2, 38996, Note_on_c, 0, 74, 0
2, 39000, Note_on_c, 0, 78, 64
2, 39116, Note_on_c, 0, 78, 0
2, 39120, Note_on_c, 0, 76, 64
2, 39236, Note_on_c, 0, 76, 0
2, 39240, Note_on_c, 0, 74, 64
2, 39356, Note_on_c, 0, 74, 0
2, 39360, Note_on_c, 0, 73, 64
2, 39836, Note_on_c, 0, 73, 0
2, 40080, Note_on_c, 0, 73, 64
2, 40316, Note_on_c, 0, 73, 0
2, 40320, Note_on_c, 0, 71, 64
2, 40796, Note_on_c, 0, 71, 0
2, 41040, Note_on_c, 0, 76, 64
2, 41276, Note_on_c, 0, 76, 0
2, 41280, Note_on_c, 0, 74, 64
2, 41396, Note_on_c, 0, 74, 0
2, 41400, Note_on_c, 0, 78, 64
2, 41516, Note_on_c, 0, 78, 0
2, 41520, Note_on_c, 0, 71, 64
2, 41636, Note_on_c, 0, 71, 0
2, 41640, Note_on_c, 0, 73, 64
2, 41756, Note_on_c, 0, 73, 0
2, 41760, Note_on_c, 0, 74, 64
2, 41876, Note_on_c, 0, 74, 0
2, 41880, Note_on_c, 0, 76, 64
2, 41996, Note_on_c, 0, 76, 0
2, 42000, Note_on_c, 0, 78, 64
2, 42116, Note_on_c, 0, 78, 0
2, 42120, Note_on_c, 0, 79, 64
2, 42236, Note_on_c, 0, 79, 0
2, 42240, Note_on_c, 0, 81, 64
2, 42476, Note_on_c, 0, 81, 0
2, 42480, Note_on_c, 0, 81, 64
2, 42716, Note_on_c, 0, 81, 0
2, 42720, Note_on_c, 0, 81, 64
2, 42956, Note_on_c, 0, 81, 0
2, 42960, Note_on_c, 0, 79, 64
2, 43076, Note_on_c, 0, 79, 0
2, 43080, Note_on_c, 0, 78, 64
2, 43196, Note_on_c, 0, 78, 0
2, 43200, Note_on_c, 0, 79, 64
2, 43436, Note_on_c, 0, 79, 0
2, 43440, Note_on_c, 0, 79, 64
2, 43676, Note_on_c, 0, 79, 0
2, 43680, Note_on_c, 0, 79, 64
2, 43916, Note_on_c, 0, 79, 0
2, 43920, Note_on_c, 0, 78, 64
2, 44036, Note_on_c, 0, 78, 0
2, 44040, Note_on_c, 0, 76, 64
2, 44156, Note_on_c, 0, 76, 0
2, 44160, Note_on_c, 0, 78, 64
2, 44396, Note_on_c, 0, 78, 0
2, 44400, Note_on_c, 0, 76, 64
2, 44516, Note_on_c, 0, 76, 0
2, 44520, Note_on_c, 0, 74, 64
2, 44636, Note_on_c, 0, 74, 0
2, 44640, Note_on_c, 0, 69, 64
2, 44876, Note_on_c, 0, 69, 0
2, 44880, Note_on_c, 0, 73, 64
2, 45116, Note_on_c, 0, 73, 0
2, 45120, Note_on_c, 0, 74, 64
2, 45236, Note_on_c, 0, 74, 0
2, 45240, Note_on_c, 0, 73, 64
2, 45356, Note_on_c, 0, 73, 0
2, 45360, Note_on_c, 0, 74, 64
2, 45476, Note_on_c, 0, 74, 0
2, 45480, Note_on_c, 0, 76, 64
2, 45596, Note_on_c, 0, 76, 0
2, 45600, Note_on_c, 0, 74, 64
2, 45716, Note_on_c, 0, 74, 0
2, 45720, Note_on_c, 0, 78, 64
2, 45836, Note_on_c, 0, 78, 0
2, 45840, Note_on_c, 0, 74, 64
2, 45956, Note_on_c, 0, 74, 0
2, 45960, Note_on_c, 0, 79, 64
2, 46076, Note_on_c, 0, 79, 0
2, 46080, Note_on_c, 0, 74, 64
2, 46196, Note_on_c, 0, 74, 0
2, 46200, Note_on_c, 0, 73, 64
2, 46316, Note_on_c, 0, 73, 0
2, 46320, Note_on_c, 0, 74, 64
2, 46436, Note_on_c, 0, 74, 0
2, 46440, Note_on_c, 0, 76, 64
2, 46556, Note_on_c, 0, 76, 0
2, 46560, Note_on_c, 0, 74, 64
2, 46676, Note_on_c, 0, 74, 0
2, 46680, Note_on_c, 0, 81, 64
2, 46796, Note_on_c, 0, 81, 0
2, 46800, Note_on_c, 0, 74, 64
2, 46916, Note_on_c, 0, 74, 0
2, 46920, Note_on_c, 0, 83, 64
2, 47036, Note_on_c, 0, 83, 0
2, 47040, Note_on_c, 0, 78, 64
2, 47156, Note_on_c, 0, 78, 0
2, 47160, Note_on_c, 0, 76, 64
2, 47276, Note_on_c, 0, 76, 0
2, 47280, Note_on_c, 0, 78, 64
2, 47396, Note_on_c, 0, 78, 0
2, 47400, Note_on_c, 0, 79, 64
2, 47516, Note_on_c, 0, 79, 0
2, 47520, Note_on_c, 0, 78, 64
2, 47636, Note_on_c, 0, 78, 0
2, 47640, Note_on_c, 0, 69, 64
2, 47756, Note_on_c, 0, 69, 0
2, 47760, Note_on_c, 0, 79, 64
2, 47876, Note_on_c, 0, 79, 0
2, 47880, Note_on_c, 0, 71, 64
2, 47996, Note_on_c, 0, 71, 0
2, 48000, Note_on_c, 0, 78, 64
2, 48116, Note_on_c, 0, 78, 0
2, 48120, Note_on_c, 0, 76, 64
2, 48236, Note_on_c, 0, 76, 0
2, 48240, Note_on_c, 0, 78, 64
2, 48356, Note_on_c, 0, 78, 0
2, 48360, Note_on_c, 0, 79, 64
2, 48476, Note_on_c, 0, 79, 0
2, 48480, Note_on_c, 0, 78, 64
2, 48596, Note_on_c, 0, 78, 0
2, 48600, Note_on_c, 0, 72, 64
2, 48716, Note_on_c, 0, 72, 0
2, 48720, Note_on_c, 0, 79, 64
2, 48836, Note_on_c, 0, 79, 0
2, 48840, Note_on_c, 0, 71, 64
2, 48956, Note_on_c, 0, 71, 0
2, 48960, Note_on_c, 0, 69, 64
2, 49076, Note_on_c, 0, 69, 0
2, 49080, Note_on_c, 0, 67, 64
2, 49196, Note_on_c, 0, 67, 0
2, 49200, Note_on_c, 0, 69, 64
2, 49316, Note_on_c, 0, 69, 0
2, 49320, Note_on_c, 0, 71, 64
2, 49436, Note_on_c, 0, 71, 0
2, 49440, Note_on_c, 0, 69, 64
2, 49556, Note_on_c, 0, 69, 0
2, 49560, Note_on_c, 0, 79, 64
2, 49676, Note_on_c, 0, 79, 0
2, 49680, Note_on_c, 0, 69, 64
2, 49796, Note_on_c, 0, 69, 0
2, 49800, Note_on_c, 0, 78, 64
2, 49916, Note_on_c, 0, 78, 0
2, 49920, Note_on_c, 0, 79, 64
2, 50396, Note_on_c, 0, 79, 0
2, 50640, Note_on_c, 0, 67, 64
2, 50756, Note_on_c, 0, 67, 0
2, 50760, Note_on_c, 0, 66, 64
2, 50876, Note_on_c, 0, 66, 0
2, 50880, Note_on_c, 0, 67, 64
2, 51116, Note_on_c, 0, 67, 0
2, 51600, Note_on_c, 0, 67, 64
2, 51716, Note_on_c, 0, 67, 0
2, 51720, Note_on_c, 0, 66, 64
2, 51836, Note_on_c, 0, 66, 0
2, 51840, Note_on_c, 0, 67, 64
2, 52076, Note_on_c, 0, 67, 0
2, 52080, Note_on_c, 0, 67, 64
2, 52316, Note_on_c, 0, 67, 0
2, 52320, Note_on_c, 0, 67, 64
2, 52556, Note_on_c, 0, 67, 0
2, 52560, Note_on_c, 0, 67, 64
2, 52796, Note_on_c, 0, 67, 0
2, 52800, Note_on_c, 0, 67, 64
2, 53036, Note_on_c, 0, 67, 0
2, 53040, Note_on_c, 0, 67, 64
2, 53276, Note_on_c, 0, 67, 0
2, 53280, Note_on_c, 0, 67, 64
2, 53516, Note_on_c, 0, 67, 0
2, 53520, Note_on_c, 0, 67, 64
2, 53756, Note_on_c, 0, 67, 0
2, 53760, Note_on_c, 0, 67, 64
2, 53996, Note_on_c, 0, 67, 0
2, 54000, Note_on_c, 0, 67, 64
2, 54236, Note_on_c, 0, 67, 0
2, 54240, Note_on_c, 0, 67, 64
2, 54476, Note_on_c, 0, 67, 0
2, 54480, Note_on_c, 0, 62, 64
2, 54716, Note_on_c, 0, 62, 0
2, 54720, Note_on_c, 0, 60, 64
2, 54836, Note_on_c, 0, 60, 0
2, 54840, Note_on_c, 0, 67, 64
2, 54956, Note_on_c, 0, 67, 0
2, 54960, Note_on_c, 0, 69, 64
2, 55076, Note_on_c, 0, 69, 0
2, 55080, Note_on_c, 0, 71, 64
2, 55196, Note_on_c, 0, 71, 0
2, 55200, Note_on_c, 0, 72, 64
2, 55436, Note_on_c, 0, 72, 0
2, 55920, Note_on_c, 0, 84, 64
2, 56036, Note_on_c, 0, 84, 0
2, 56040, Note_on_c, 0, 83, 64
2, 56156, Note_on_c, 0, 83, 0
2, 56160, Note_on_c, 0, 84, 64
2, 56396, Note_on_c, 0, 84, 0
2, 56400, Note_on_c, 0, 84, 64
2, 56636, Note_on_c, 0, 84, 0
2, 56640, Note_on_c, 0, 84, 64
2, 56876, Note_on_c, 0, 84, 0
2, 56880, Note_on_c, 0, 83, 64
2, 56996, Note_on_c, 0, 83, 0
2, 57000, Note_on_c, 0, 81, 64
2, 57116, Note_on_c, 0, 81, 0
2, 57120, Note_on_c, 0, 83, 64
2, 57356, Note_on_c, 0, 83, 0
2, 57360, Note_on_c, 0, 83, 64
2, 57596, Note_on_c, 0, 83, 0
2, 57600, Note_on_c, 0, 82, 64
2, 57836, Note_on_c, 0, 82, 0
2, 57840, Note_on_c, 0, 81, 64
2, 57956, Note_on_c, 0, 81, 0
2, 57960, Note_on_c, 0, 79, 64
2, 58076, Note_on_c, 0, 79, 0
2, 58080, Note_on_c, 0, 81, 64
2, 58196, Note_on_c, 0, 81, 0
2, 58200, Note_on_c, 0, 79, 64
2, 58316, Note_on_c, 0, 79, 0
2, 58320, Note_on_c, 0, 77, 64
2, 58436, Note_on_c, 0, 77, 0
2, 58440, Note_on_c, 0, 76, 64
2, 58556, Note_on_c, 0, 76, 0
2, 58560, Note_on_c, 0, 74, 64
2, 58676, Note_on_c, 0, 74, 0
2, 58680, Note_on_c, 0, 71, 64
2, 58796, Note_on_c, 0, 71, 0
2, 58800, Note_on_c, 0, 67, 64
2, 58916, Note_on_c, 0, 67, 0
2, 58920, Note_on_c, 0, 69, 64
2, 59036, Note_on_c, 0, 69, 0
2, 59040, Note_on_c, 0, 71, 64
2, 59156, Note_on_c, 0, 71, 0
2, 59160, Note_on_c, 0, 72, 64
2, 59276, Note_on_c, 0, 72, 0
2, 59280, Note_on_c, 0, 74, 64
2, 59396, Note_on_c, 0, 74, 0
2, 59400, Note_on_c, 0, 76, 64
2, 59516, Note_on_c, 0, 76, 0
2, 59520, Note_on_c, 0, 77, 64
2, 59636, Note_on_c, 0, 77, 0
2, 59640, Note_on_c, 0, 79, 64
2, 59696, Note_on_c, 0, 79, 0
2, 59700, Note_on_c, 0, 77, 64
2, 59756, Note_on_c, 0, 77, 0
2, 59760, Note_on_c, 0, 76, 64
2, 59816, Note_on_c, 0, 76, 0
2, 59820, Note_on_c, 0, 77, 64
2, 59876, Note_on_c, 0, 77, 0
2, 59880, Note_on_c, 0, 79, 64
2, 59996, Note_on_c, 0, 79, 0
2, 60000, Note_on_c, 0, 74, 64
2, 60356, Note_on_c, 0, 74, 0
2, 60360, Note_on_c, 0, 72, 64
2, 60476, Note_on_c, 0, 72, 0
2, 60480, Note_on_c, 0, 72, 64
2, 60596, Note_on_c, 0, 72, 0
2, 60600, Note_on_c, 0, 71, 64
2, 60716, Note_on_c, 0, 71, 0
2, 60720, Note_on_c, 0, 72, 64
2, 60836, Note_on_c, 0, 72, 0
2, 60840, Note_on_c, 0, 74, 64
2, 60956, Note_on_c, 0, 74, 0
2, 60960, Note_on_c, 0, 72, 64
2, 61076, Note_on_c, 0, 72, 0
2, 61080, Note_on_c, 0, 76, 64
2, 61196, Note_on_c, 0, 76, 0
2, 61200, Note_on_c, 0, 74, 64
2, 61316, Note_on_c, 0, 74, 0
2, 61320, Note_on_c, 0, 77, 64
2, 61436, Note_on_c, 0, 77, 0
2, 61440, Note_on_c, 0, 76, 64
2, 61556, Note_on_c, 0, 76, 0
2, 61560, Note_on_c, 0, 74, 64
2, 61676, Note_on_c, 0, 74, 0
2, 61680, Note_on_c, 0, 76, 64
2, 61796, Note_on_c, 0, 76, 0
2, 61800, Note_on_c, 0, 77, 64
2, 61916, Note_on_c, 0, 77, 0
2, 61920, Note_on_c, 0, 76, 64
2, 62036, Note_on_c, 0, 76, 0
2, 62040, Note_on_c, 0, 79, 64
2, 62156, Note_on_c, 0, 79, 0
2, 62160, Note_on_c, 0, 77, 64
2, 62276, Note_on_c, 0, 77, 0
2, 62280, Note_on_c, 0, 81, 64
2, 62396, Note_on_c, 0, 81, 0
2, 62400, Note_on_c, 0, 79, 64
2, 62516, Note_on_c, 0, 79, 0
2, 62520, Note_on_c, 0, 77, 64
2, 62636, Note_on_c, 0, 77, 0
2, 62640, Note_on_c, 0, 79, 64
2, 62756, Note_on_c, 0, 79, 0
2, 62760, Note_on_c, 0, 81, 64
2, 62876, Note_on_c, 0, 81, 0
2, 62880, Note_on_c, 0, 79, 64
2, 62996, Note_on_c, 0, 79, 0
2, 63000, Note_on_c, 0, 81, 64
2, 63116, Note_on_c, 0, 81, 0
2, 63120, Note_on_c, 0, 79, 64
2, 63236, Note_on_c, 0, 79, 0
2, 63240, Note_on_c, 0, 77, 64
2, 63356, Note_on_c, 0, 77, 0
2, 63360, Note_on_c, 0, 76, 64
2, 63476, Note_on_c, 0, 76, 0
2, 63480, Note_on_c, 0, 77, 64
2, 63596, Note_on_c, 0, 77, 0
2, 63600, Note_on_c, 0, 76, 64
2, 63716, Note_on_c, 0, 76, 0
2, 63720, Note_on_c, 0, 74, 64
2, 63836, Note_on_c, 0, 74, 0
2, 63840, Note_on_c, 0, 72, 64
2, 63956, Note_on_c, 0, 72, 0
2, 63960, Note_on_c, 0, 76, 64
2, 64076, Note_on_c, 0, 76, 0
2, 64080, Note_on_c, 0, 74, 64
2, 64196, Note_on_c, 0, 74, 0
2, 64200, Note_on_c, 0, 72, 64
2, 64316, Note_on_c, 0, 72, 0
2, 64320, Note_on_c, 0, 71, 64
2, 64556, Note_on_c, 0, 71, 0
2, 64560, Note_on_c, 0, 67, 64
2, 64796, Note_on_c, 0, 67, 0
2, 65040, Note_on_c, 0, 55, 64
2, 65276, Note_on_c, 0, 55, 0
2, 65280, Note_on_c, 0, 59, 64
2, 65516, Note_on_c, 0, 59, 0
2, 65520, Note_on_c, 0, 62, 64
2, 65756, Note_on_c, 0, 62, 0
2, 65760, Note_on_c, 0, 59, 64
2, 65996, Note_on_c, 0, 59, 0
2, 66000, Note_on_c, 0, 55, 64
2, 66236, Note_on_c, 0, 55, 0
2, 66240, Note_on_c, 0, 59, 64
2, 66476, Note_on_c, 0, 59, 0
2, 66480, Note_on_c, 0, 62, 64
2, 66716, Note_on_c, 0, 62, 0
2, 66720, Note_on_c, 0, 59, 64
2, 66956, Note_on_c, 0, 59, 0
2, 66960, Note_on_c, 0, 55, 64
2, 67196, Note_on_c, 0, 55, 0
2, 67200, Note_on_c, 0, 62, 64
2, 67436, Note_on_c, 0, 62, 0
2, 67440, Note_on_c, 0, 62, 64
2, 67556, Note_on_c, 0, 62, 0
2, 67560, Note_on_c, 0, 62, 64
2, 67676, Note_on_c, 0, 62, 0
2, 67680, Note_on_c, 0, 62, 64
2, 67916, Note_on_c, 0, 62, 0
2, 68400, Note_on_c, 0, 74, 64
2, 68516, Note_on_c, 0, 74, 0
2, 68520, Note_on_c, 0, 73, 64
2, 68636, Note_on_c, 0, 73, 0
2, 68640, Note_on_c, 0, 74, 64
2, 68876, Note_on_c, 0, 74, 0
2, 69360, Note_on_c, 0, 74, 64
2, 69476, Note_on_c, 0, 74, 0
2, 69480, Note_on_c, 0, 73, 64
2, 69596, Note_on_c, 0, 73, 0
2, 69600, Note_on_c, 0, 74, 64
2, 69836, Note_on_c, 0, 74, 0
2, 70320, Note_on_c, 0, 72, 64
2, 70436, Note_on_c, 0, 72, 0
2, 70440, Note_on_c, 0, 71, 64
2, 70556, Note_on_c, 0, 71, 0
2, 70560, Note_on_c, 0, 72, 64
2, 70796, Note_on_c, 0, 72, 0
2, 70800, Note_on_c, 0, 71, 64
2, 70916, Note_on_c, 0, 71, 0
2, 70920, Note_on_c, 0, 69, 64
2, 71036, Note_on_c, 0, 69, 0
2, 71040, Note_on_c, 0, 74, 64
2, 71276, Note_on_c, 0, 74, 0
2, 71280, Note_on_c, 0, 72, 64
2, 71396, Note_on_c, 0, 72, 0
2, 71400, Note_on_c, 0, 71, 64
2, 71516, Note_on_c, 0, 71, 0
2, 71520, Note_on_c, 0, 72, 64
2, 71756, Note_on_c, 0, 72, 0
2, 71760, Note_on_c, 0, 71, 64
2, 71876, Note_on_c, 0, 71, 0
2, 71880, Note_on_c, 0, 69, 64
2, 71996, Note_on_c, 0, 69, 0
2, 72000, Note_on_c, 0, 71, 64
2, 72236, Note_on_c, 0, 71, 0
2, 72240, Note_on_c, 0, 67, 64
2, 72476, Note_on_c, 0, 67, 0
2, 72720, Note_on_c, 0, 62, 64
2, 72956, Note_on_c, 0, 62, 0
2, 72960, Note_on_c, 0, 59, 64
2, 73196, Note_on_c, 0, 59, 0
2, 73200, Note_on_c, 0, 55, 64
2, 73436, Note_on_c, 0, 55, 0
2, 74160, Note_on_c, 0, 74, 64
2, 74276, Note_on_c, 0, 74, 0
2, 74280, Note_on_c, 0, 72, 64
2, 74396, Note_on_c, 0, 72, 0
2, 74400, Note_on_c, 0, 74, 64
2, 74636, Note_on_c, 0, 74, 0
2, 74640, Note_on_c, 0, 79, 64
2, 74756, Note_on_c, 0, 79, 0
2, 74760, Note_on_c, 0, 78, 64
2, 74876, Note_on_c, 0, 78, 0
2, 74880, Note_on_c, 0, 79, 64
2, 75116, Note_on_c, 0, 79, 0
2, 75120, Note_on_c, 0, 74, 64
2, 75236, Note_on_c, 0, 74, 0
2, 75240, Note_on_c, 0, 72, 64
2, 75356, Note_on_c, 0, 72, 0
2, 75360, Note_on_c, 0, 74, 64
2, 75596, Note_on_c, 0, 74, 0
2, 76560, Note_on_c, 0, 79, 64
2, 76676, Note_on_c, 0, 79, 0
2, 76680, Note_on_c, 0, 78, 64
2, 76796, Note_on_c, 0, 78, 0
2, 76800, Note_on_c, 0, 79, 64
2, 77036, Note_on_c, 0, 79, 0
2, 77040, Note_on_c, 0, 67, 64
2, 77156, Note_on_c, 0, 67, 0
2, 77160, Note_on_c, 0, 69, 64
2, 77276, Note_on_c, 0, 69, 0
2, 77280, Note_on_c, 0, 71, 64
2, 77516, Note_on_c, 0, 71, 0
2, 77520, Note_on_c, 0, 73, 64
2, 77756, Note_on_c, 0, 73, 0
2, 77760, Note_on_c, 0, 74, 64
2, 77876, Note_on_c, 0, 74, 0
2, 77880, Note_on_c, 0, 73, 64
2, 77996, Note_on_c, 0, 73, 0
2, 78000, Note_on_c, 0, 74, 64
2, 78116, Note_on_c, 0, 74, 0
2, 78120, Note_on_c, 0, 76, 64
2, 78236, Note_on_c, 0, 76, 0
2, 78240, Note_on_c, 0, 74, 64
2, 78356, Note_on_c, 0, 74, 0
2, 78360, Note_on_c, 0, 78, 64
2, 78476, Note_on_c, 0, 78, 0
2, 78480, Note_on_c, 0, 74, 64
2, 78596, Note_on_c, 0, 74, 0
2, 78600, Note_on_c, 0, 79, 64
2, 78716, Note_on_c, 0, 79, 0
2, 78720, Note_on_c, 0, 74, 64
2, 78836, Note_on_c, 0, 74, 0
2, 78840, Note_on_c, 0, 73, 64
2, 78956, Note_on_c, 0, 73, 0
2, 78960, Note_on_c, 0, 74, 64
2, 79076, Note_on_c, 0, 74, 0
2, 79080, Note_on_c, 0, 76, 64
2, 79196, Note_on_c, 0, 76, 0
2, 79200, Note_on_c, 0, 74, 64
2, 79316, Note_on_c, 0, 74, 0
2, 79320, Note_on_c, 0, 81, 64
2, 79436, Note_on_c, 0, 81, 0
2, 79440, Note_on_c, 0, 74, 64
2, 79556, Note_on_c, 0, 74, 0
2, 79560, Note_on_c, 0, 83, 64
2, 79676, Note_on_c, 0, 83, 0
2, 79680, Note_on_c, 0, 74, 64
2, 79796, Note_on_c, 0, 74, 0
2, 79800, Note_on_c, 0, 73, 64
2, 79916, Note_on_c, 0, 73, 0
2, 79920, Note_on_c, 0, 74, 64
2, 80036, Note_on_c, 0, 74, 0
2, 80040, Note_on_c, 0, 76, 64
2, 80156, Note_on_c, 0, 76, 0
2, 80160, Note_on_c, 0, 74, 64
2, 80276, Note_on_c, 0, 74, 0
2, 80280, Note_on_c, 0, 84, 64
2, 80396, Note_on_c, 0, 84, 0
2, 80400, Note_on_c, 0, 74, 64
2, 80516, Note_on_c, 0, 74, 0
2, 80520, Note_on_c, 0, 86, 64
2, 80636, Note_on_c, 0, 86, 0
2, 80640, Note_on_c, 0, 83, 64
2, 80876, Note_on_c, 0, 83, 0
2, 80880, Note_on_c, 0, 81, 64
2, 80996, Note_on_c, 0, 81, 0
2, 81000, Note_on_c, 0, 79, 64
2, 81116, Note_on_c, 0, 79, 0
2, 81120, Note_on_c, 0, 81, 64
2, 81356, Note_on_c, 0, 81, 0
2, 81360, Note_on_c, 0, 79, 64
2, 81476, Note_on_c, 0, 79, 0
2, 81480, Note_on_c, 0, 78, 64
2, 81596, Note_on_c, 0, 78, 0
2, 81600, Note_on_c, 0, 79, 64
2, 81836, Note_on_c, 0, 79, 0
2, 81840, Note_on_c, 0, 78, 64
2, 81956, Note_on_c, 0, 78, 0
2, 81960, Note_on_c, 0, 76, 64
2, 82076, Note_on_c, 0, 76, 0
2, 82080, Note_on_c, 0, 74, 64
2, 82196, Note_on_c, 0, 74, 0
2, 82200, Note_on_c, 0, 79, 64
2, 82316, Note_on_c, 0, 79, 0
2, 82320, Note_on_c, 0, 74, 64
2, 82436, Note_on_c, 0, 74, 0
2, 82440, Note_on_c, 0, 79, 64
2, 82556, Note_on_c, 0, 79, 0
2, 82560, Note_on_c, 0, 76, 64
2, 82796, Note_on_c, 0, 76, 0
2, 82800, Note_on_c, 0, 74, 64
2, 82916, Note_on_c, 0, 74, 0
2, 82920, Note_on_c, 0, 72, 64
2, 83036, Note_on_c, 0, 72, 0
2, 83040, Note_on_c, 0, 71, 64
2, 83156, Note_on_c, 0, 71, 0
2, 83160, Note_on_c, 0, 79, 64
2, 83276, Note_on_c, 0, 79, 0
2, 83280, Note_on_c, 0, 71, 64
2, 83396, Note_on_c, 0, 71, 0
2, 83400, Note_on_c, 0, 79, 64
2, 83516, Note_on_c, 0, 79, 0
2, 83520, Note_on_c, 0, 72, 64
2, 83756, Note_on_c, 0, 72, 0
2, 83760, Note_on_c, 0, 71, 64
2, 83876, Note_on_c, 0, 71, 0
2, 83880, Note_on_c, 0, 69, 64
2, 83996, Note_on_c, 0, 69, 0
2, 84000, Note_on_c, 0, 67, 64
2, 84116, Note_on_c, 0, 67, 0
2, 84120, Note_on_c, 0, 79, 64
2, 84236, Note_on_c, 0, 79, 0
2, 84240, Note_on_c, 0, 69, 64
2, 84356, Note_on_c, 0, 69, 0
2, 84360, Note_on_c, 0, 79, 64
2, 84476, Note_on_c, 0, 79, 0
2, 84480, Note_on_c, 0, 71, 64
2, 84596, Note_on_c, 0, 71, 0
2, 84600, Note_on_c, 0, 79, 64
2, 84716, Note_on_c, 0, 79, 0
2, 84720, Note_on_c, 0, 73, 64
2, 84836, Note_on_c, 0, 73, 0
2, 84840, Note_on_c, 0, 79, 64
2, 84956, Note_on_c, 0, 79, 0
2, 84960, Note_on_c, 0, 74, 64
2, 85076, Note_on_c, 0, 74, 0
2, 85080, Note_on_c, 0, 78, 64
2, 85196, Note_on_c, 0, 78, 0
2, 85200, Note_on_c, 0, 74, 64
2, 85316, Note_on_c, 0, 74, 0
2, 85320, Note_on_c, 0, 79, 64
2, 85436, Note_on_c, 0, 79, 0
2, 85440, Note_on_c, 0, 74, 64
2, 85556, Note_on_c, 0, 74, 0
2, 85560, Note_on_c, 0, 81, 64
2, 85676, Note_on_c, 0, 81, 0
2, 85680, Note_on_c, 0, 74, 64
2, 85796, Note_on_c, 0, 74, 0
2, 85800, Note_on_c, 0, 83, 64
2, 85916, Note_on_c, 0, 83, 0
2, 85920, Note_on_c, 0, 74, 64
2, 86036, Note_on_c, 0, 74, 0
2, 86040, Note_on_c, 0, 84, 64
2, 86156, Note_on_c, 0, 84, 0
2, 86160, Note_on_c, 0, 74, 64
2, 86276, Note_on_c, 0, 74, 0
2, 86280, Note_on_c, 0, 86, 64
2, 86396, Note_on_c, 0, 86, 0
2, 86400, Note_on_c, 0, 83, 64
2, 86636, Note_on_c, 0, 83, 0
2, 86640, Note_on_c, 0, 81, 64
2, 86756, Note_on_c, 0, 81, 0
2, 86760, Note_on_c, 0, 79, 64
2, 86876, Note_on_c, 0, 79, 0
2, 86880, Note_on_c, 0, 74, 64
2, 87116, Note_on_c, 0, 74, 0
2, 87120, Note_on_c, 0, 78, 64
2, 87356, Note_on_c, 0, 78, 0
2, 87360, Note_on_c, 0, 79, 64
2, 87596, Note_on_c, 0, 79, 0
2, 87600, Note_on_c, 0, 78, 64
2, 87716, Note_on_c, 0, 78, 0
2, 87720, Note_on_c, 0, 76, 64
2, 87836, Note_on_c, 0, 76, 0
2, 87840, Note_on_c, 0, 74, 64
2, 87956, Note_on_c, 0, 74, 0
2, 87960, Note_on_c, 0, 72, 64
2, 88076, Note_on_c, 0, 72, 0
2, 88080, Note_on_c, 0, 71, 64
2, 88196, Note_on_c, 0, 71, 0
2, 88200, Note_on_c, 0, 69, 64
2, 88316, Note_on_c, 0, 69, 0
2, 88320, Note_on_c, 0, 71, 64
2, 88556, Note_on_c, 0, 71, 0
2, 88560, Note_on_c, 0, 69, 64
2, 88676, Note_on_c, 0, 69, 0
2, 88680, Note_on_c, 0, 67, 64
2, 88796, Note_on_c, 0, 67, 0
2, 88800, Note_on_c, 0, 74, 64
2, 89036, Note_on_c, 0, 74, 0
2, 89040, Note_on_c, 0, 62, 64
2, 89276, Note_on_c, 0, 62, 0
2, 89280, Note_on_c, 0, 67, 64
2, 89756, Note_on_c, 0, 67, 0
2, 89880, Note_on_c, 0, 67, 64
2, 89996, Note_on_c, 0, 67, 0
2, 90000, Note_on_c, 0, 62, 64
2, 90116, Note_on_c, 0, 62, 0
2, 90120, Note_on_c, 0, 64, 64
2, 90236, Note_on_c, 0, 64, 0
2, 90240, Note_on_c, 0, 65, 64
2, 90356, Note_on_c, 0, 65, 0
2, 90360, Note_on_c, 0, 64, 64
2, 90476, Note_on_c, 0, 64, 0
2, 90480, Note_on_c, 0, 65, 64
2, 90596, Note_on_c, 0, 65, 0
2, 90600, Note_on_c, 0, 74, 64
2, 90716, Note_on_c, 0, 74, 0
2, 90720, Note_on_c, 0, 71, 64
2, 90836, Note_on_c, 0, 71, 0
2, 90840, Note_on_c, 0, 66, 64
2, 90956, Note_on_c, 0, 66, 0
2, 90960, Note_on_c, 0, 62, 64
2, 91076, Note_on_c, 0, 62, 0
2, 91080, Note_on_c, 0, 55, 64
2, 91196, Note_on_c, 0, 55, 0
2, 91200, Note_on_c, 0, 66, 64
2, 91316, Note_on_c, 0, 66, 0
2, 91320, Note_on_c, 0, 64, 64
2, 91436, Note_on_c, 0, 64, 0
2, 91440, Note_on_c, 0, 66, 64
2, 91556, Note_on_c, 0, 66, 0
2, 91560, Note_on_c, 0, 74, 64
2, 91676, Note_on_c, 0, 74, 0
2, 91680, Note_on_c, 0, 71, 64
2, 91796, Note_on_c, 0, 71, 0
2, 91800, Note_on_c, 0, 66, 64
2, 91916, Note_on_c, 0, 66, 0
2, 91920, Note_on_c, 0, 62, 64
2, 92036, Note_on_c, 0, 62, 0
2, 92040, Note_on_c, 0, 55, 64
2, 92156, Note_on_c, 0, 55, 0
2, 92160, Note_on_c, 0, 64, 64
2, 92276, Note_on_c, 0, 64, 0
2, 92280, Note_on_c, 0, 62, 64
2, 92396, Note_on_c, 0, 62, 0
2, 92400, Note_on_c, 0, 64, 64
2, 92516, Note_on_c, 0, 64, 0
2, 92520, Note_on_c, 0, 72, 64
2, 92636, Note_on_c, 0, 72, 0
2, 92640, Note_on_c, 0, 67, 64
2, 92756, Note_on_c, 0, 67, 0
2, 92760, Note_on_c, 0, 64, 64
2, 92876, Note_on_c, 0, 64, 0
2, 92880, Note_on_c, 0, 60, 64
2, 92996, Note_on_c, 0, 60, 0
2, 93000, Note_on_c, 0, 55, 64
2, 93116, Note_on_c, 0, 55, 0
2, 93120, Note_on_c, 0, 64, 64
2, 93236, Note_on_c, 0, 64, 0
2, 93240, Note_on_c, 0, 62, 64
2, 93356, Note_on_c, 0, 62, 0
2, 93360, Note_on_c, 0, 64, 64
2, 93476, Note_on_c, 0, 64, 0
2, 93480, Note_on_c, 0, 72, 64
2, 93596, Note_on_c, 0, 72, 0
2, 93600, Note_on_c, 0, 67, 64
2, 93716, Note_on_c, 0, 67, 0
2, 93720, Note_on_c, 0, 64, 64
2, 93836, Note_on_c, 0, 64, 0
2, 93840, Note_on_c, 0, 60, 64
2, 93956, Note_on_c, 0, 60, 0
2, 93960, Note_on_c, 0, 55, 64
2, 94076, Note_on_c, 0, 55, 0
2, 94080, Note_on_c, 0, 66, 64
2, 94196, Note_on_c, 0, 66, 0
2, 94200, Note_on_c, 0, 64, 64
2, 94316, Note_on_c, 0, 64, 0
2, 94320, Note_on_c, 0, 66, 64
2, 94436, Note_on_c, 0, 66, 0
2, 94440, Note_on_c, 0, 72, 64
2, 94556, Note_on_c, 0, 72, 0
2, 94560, Note_on_c, 0, 69, 64
2, 94676, Note_on_c, 0, 69, 0
2, 94680, Note_on_c, 0, 66, 64
2, 94796, Note_on_c, 0, 66, 0
2, 94800, Note_on_c, 0, 60, 64
2, 94916, Note_on_c, 0, 60, 0
2, 94920, Note_on_c, 0, 57, 64
2, 95036, Note_on_c, 0, 57, 0
2, 95040, Note_on_c, 0, 66, 64
2, 95156, Note_on_c, 0, 66, 0
2, 95160, Note_on_c, 0, 64, 64
2, 95276, Note_on_c, 0, 64, 0
2, 95280, Note_on_c, 0, 66, 64
2, 95396, Note_on_c, 0, 66, 0
2, 95400, Note_on_c, 0, 72, 64
2, 95516, Note_on_c, 0, 72, 0
2, 95520, Note_on_c, 0, 69, 64
2, 95636, Note_on_c, 0, 69, 0
2, 95640, Note_on_c, 0, 66, 64
2, 95756, Note_on_c, 0, 66, 0
2, 95760, Note_on_c, 0, 60, 64
2, 95876, Note_on_c, 0, 60, 0
2, 95880, Note_on_c, 0, 57, 64
2, 95996, Note_on_c, 0, 57, 0
2, 96000, Note_on_c, 0, 59, 64
2, 96116, Note_on_c, 0, 59, 0
2, 96120, Note_on_c, 0, 62, 64
2, 96236, Note_on_c, 0, 62, 0
2, 96240, Note_on_c, 0, 64, 64
2, 96356, Note_on_c, 0, 64, 0
2, 96360, Note_on_c, 0, 66, 64
2, 96476, Note_on_c, 0, 66, 0
2, 96480, Note_on_c, 0, 67, 64
2, 96596, Note_on_c, 0, 67, 0
2, 96600, Note_on_c, 0, 69, 64
2, 96716, Note_on_c, 0, 69, 0
2, 96720, Note_on_c, 0, 71, 64
2, 96836, Note_on_c, 0, 71, 0
2, 96840, Note_on_c, 0, 73, 64
2, 96956, Note_on_c, 0, 73, 0
2, 96960, Note_on_c, 0, 74, 64
2, 97196, Note_on_c, 0, 74, 0
2, 97200, Note_on_c, 0, 62, 64
2, 97436, Note_on_c, 0, 62, 0
2, 97920, Note_on_c, 0, 78, 64
2, 98036, Note_on_c, 0, 78, 0
2, 98040, Note_on_c, 0, 76, 64
2, 98156, Note_on_c, 0, 76, 0
2, 98160, Note_on_c, 0, 78, 64
2, 98396, Note_on_c, 0, 78, 0
2, 98880, Note_on_c, 0, 81, 64
2, 98996, Note_on_c, 0, 81, 0
2, 99000, Note_on_c, 0, 79, 64
2, 99116, Note_on_c, 0, 79, 0
2, 99120, Note_on_c, 0, 81, 64
2, 99356, Note_on_c, 0, 81, 0
2, 99840, Note_on_c, 0, 75, 64
2, 99956, Note_on_c, 0, 75, 0
2, 99960, Note_on_c, 0, 73, 64
2, 100076, Note_on_c, 0, 73, 0
2, 100080, Note_on_c, 0, 75, 64
2, 100316, Note_on_c, 0, 75, 0
2, 100800, Note_on_c, 0, 75, 64
2, 100916, Note_on_c, 0, 75, 0
2, 100920, Note_on_c, 0, 73, 64
2, 101036, Note_on_c, 0, 73, 0
2, 101040, Note_on_c, 0, 75, 64
2, 101276, Note_on_c, 0, 75, 0
2, 101760, Note_on_c, 0, 79, 64
2, 101876, Note_on_c, 0, 79, 0
2, 101880, Note_on_c, 0, 78, 64
2, 101996, Note_on_c, 0, 78, 0
2, 102000, Note_on_c, 0, 79, 64
2, 102236, Note_on_c, 0, 79, 0
2, 102720, Note_on_c, 0, 79, 64
2, 102836, Note_on_c, 0, 79, 0
2, 102840, Note_on_c, 0, 78, 64
2, 102956, Note_on_c, 0, 78, 0
2, 102960, Note_on_c, 0, 79, 64
2, 103196, Note_on_c, 0, 79, 0
2, 103440, Note_on_c, 0, 76, 64
2, 103556, Note_on_c, 0, 76, 0
2, 103560, Note_on_c, 0, 75, 64
2, 103676, Note_on_c, 0, 75, 0
2, 103680, Note_on_c, 0, 76, 64
2, 103916, Note_on_c, 0, 76, 0
2, 103920, Note_on_c, 0, 71, 64
2, 104036, Note_on_c, 0, 71, 0
2, 104040, Note_on_c, 0, 69, 64
2, 104156, Note_on_c, 0, 69, 0
2, 104160, Note_on_c, 0, 71, 64
2, 104396, Note_on_c, 0, 71, 0
2, 105840, Note_on_c, 0, 64, 64
2, 105956, Note_on_c, 0, 64, 0
2, 105960, Note_on_c, 0, 66, 64
2, 106076, Note_on_c, 0, 66, 0
2, 106080, Note_on_c, 0, 67, 64
2, 106316, Note_on_c, 0, 67, 0
2, 106320, Note_on_c, 0, 69, 64
2, 106556, Note_on_c, 0, 69, 0
2, 106560, Note_on_c, 0, 71, 64
2, 106796, Note_on_c, 0, 71, 0
2, 106800, Note_on_c, 0, 75, 64
2, 106916, Note_on_c, 0, 75, 0
2, 106920, Note_on_c, 0, 73, 64
2, 107036, Note_on_c, 0, 73, 0
2, 107040, Note_on_c, 0, 75, 64
2, 107276, Note_on_c, 0, 75, 0
2, 107280, Note_on_c, 0, 78, 64
2, 107396, Note_on_c, 0, 78, 0
2, 107400, Note_on_c, 0, 76, 64
2, 107516, Note_on_c, 0, 76, 0
2, 107520, Note_on_c, 0, 78, 64
2, 107756, Note_on_c, 0, 78, 0
2, 108720, Note_on_c, 0, 63, 64
2, 108836, Note_on_c, 0, 63, 0
2, 108840, Note_on_c, 0, 61, 64
2, 108956, Note_on_c, 0, 61, 0
2, 108960, Note_on_c, 0, 63, 64
2, 109196, Note_on_c, 0, 63, 0
2, 109200, Note_on_c, 0, 83, 64
2, 109436, Note_on_c, 0, 83, 0
2, 109440, Note_on_c, 0, 79, 64
2, 109676, Note_on_c, 0, 79, 0
2, 109680, Note_on_c, 0, 78, 64
2, 109796, Note_on_c, 0, 78, 0
2, 109800, Note_on_c, 0, 76, 64
2, 109916, Note_on_c, 0, 76, 0
2, 109920, Note_on_c, 0, 78, 64
2, 110156, Note_on_c, 0, 78, 0
2, 110160, Note_on_c, 0, 76, 64
2, 110276, Note_on_c, 0, 76, 0
2, 110280, Note_on_c, 0, 75, 64
2, 110396, Note_on_c, 0, 75, 0
2, 110400, Note_on_c, 0, 84, 64
2, 110756, Note_on_c, 0, 84, 0
2, 110760, Note_on_c, 0, 83, 64
2, 110876, Note_on_c, 0, 83, 0
2, 110880, Note_on_c, 0, 81, 64
2, 110996, Note_on_c, 0, 81, 0
2, 111000, Note_on_c, 0, 79, 64
2, 111116, Note_on_c, 0, 79, 0
2, 111120, Note_on_c, 0, 78, 64
2, 111236, Note_on_c, 0, 78, 0
2, 111240, Note_on_c, 0, 76, 64
2, 111356, Note_on_c, 0, 76, 0
2, 111360, Note_on_c, 0, 83, 64
2, 111596, Note_on_c, 0, 83, 0
2, 111600, Note_on_c, 0, 81, 64
2, 111716, Note_on_c, 0, 81, 0
2, 111720, Note_on_c, 0, 79, 64
2, 111836, Note_on_c, 0, 79, 0
2, 111840, Note_on_c, 0, 78, 64
2, 112076, Note_on_c, 0, 78, 0
2, 112080, Note_on_c, 0, 76, 64
2, 112196, Note_on_c, 0, 76, 0
2, 112200, Note_on_c, 0, 75, 64
2, 112316, Note_on_c, 0, 75, 0
2, 112320, Note_on_c, 0, 76, 64
2, 112556, Note_on_c, 0, 76, 0
2, 112560, Note_on_c, 0, 76, 64
2, 112676, Note_on_c, 0, 76, 0
2, 112680, Note_on_c, 0, 74, 64
2, 112796, Note_on_c, 0, 74, 0
2, 112800, Note_on_c, 0, 76, 64
2, 113036, Note_on_c, 0, 76, 0
2, 113520, Note_on_c, 0, 76, 64
2, 113636, Note_on_c, 0, 76, 0
2, 113640, Note_on_c, 0, 75, 64
2, 113756, Note_on_c, 0, 75, 0
2, 113760, Note_on_c, 0, 76, 64
2, 113996, Note_on_c, 0, 76, 0
2, 114480, Note_on_c, 0, 76, 64
2, 114596, Note_on_c, 0, 76, 0
2, 114600, Note_on_c, 0, 75, 64
2, 114716, Note_on_c, 0, 75, 0
2, 114720, Note_on_c, 0, 76, 64
2, 114956, Note_on_c, 0, 76, 0
2, 115440, Note_on_c, 0, 76, 64
2, 115556, Note_on_c, 0, 76, 0
2, 115560, Note_on_c, 0, 78, 64
2, 115676, Note_on_c, 0, 78, 0
2, 115680, Note_on_c, 0, 79, 64
2, 115796, Note_on_c, 0, 79, 0
2, 115800, Note_on_c, 0, 78, 64
2, 115916, Note_on_c, 0, 78, 0
2, 115920, Note_on_c, 0, 76, 64
2, 116036, Note_on_c, 0, 76, 0
2, 116040, Note_on_c, 0, 74, 64
2, 116156, Note_on_c, 0, 74, 0
2, 116160, Note_on_c, 0, 73, 64
2, 116276, Note_on_c, 0, 73, 0
2, 116280, Note_on_c, 0, 76, 64
2, 116396, Note_on_c, 0, 76, 0
2, 116400, Note_on_c, 0, 69, 64
2, 116516, Note_on_c, 0, 69, 0
2, 116520, Note_on_c, 0, 71, 64
2, 116636, Note_on_c, 0, 71, 0
2, 116640, Note_on_c, 0, 73, 64
2, 116756, Note_on_c, 0, 73, 0
2, 116760, Note_on_c, 0, 74, 64
2, 116876, Note_on_c, 0, 74, 0
2, 116880, Note_on_c, 0, 76, 64
2, 116996, Note_on_c, 0, 76, 0
2, 117000, Note_on_c, 0, 74, 64
2, 117116, Note_on_c, 0, 74, 0
2, 117120, Note_on_c, 0, 73, 64
2, 117356, Note_on_c, 0, 73, 0
2, 117360, Note_on_c, 0, 81, 64
2, 117596, Note_on_c, 0, 81, 0
2, 117840, Note_on_c, 0, 80, 64
2, 118076, Note_on_c, 0, 80, 0
2, 118080, Note_on_c, 0, 81, 64
2, 118316, Note_on_c, 0, 81, 0
2, 118320, Note_on_c, 0, 76, 64
2, 118556, Note_on_c, 0, 76, 0
2, 118560, Note_on_c, 0, 69, 64
2, 118796, Note_on_c, 0, 69, 0
2, 118800, Note_on_c, 0, 71, 64
2, 119036, Note_on_c, 0, 71, 0
2, 119040, Note_on_c, 0, 73, 64
2, 119156, Note_on_c, 0, 73, 0
2, 119160, Note_on_c, 0, 74, 64
2, 119276, Note_on_c, 0, 74, 0
2, 119280, Note_on_c, 0, 76, 64
2, 119396, Note_on_c, 0, 76, 0
2, 119400, Note_on_c, 0, 74, 64
2, 119516, Note_on_c, 0, 74, 0
2, 119520, Note_on_c, 0, 73, 64
2, 119636, Note_on_c, 0, 73, 0
2, 119640, Note_on_c, 0, 76, 64
2, 119756, Note_on_c, 0, 76, 0
2, 119760, Note_on_c, 0, 81, 64
2, 119876, Note_on_c, 0, 81, 0
2, 119880, Note_on_c, 0, 79, 64
2, 119996, Note_on_c, 0, 79, 0
2, 120000, Note_on_c, 0, 78, 64
2, 120236, Note_on_c, 0, 78, 0
2, 120240, Note_on_c, 0, 86, 64
2, 120356, Note_on_c, 0, 86, 0
2, 120360, Note_on_c, 0, 85, 64
2, 120476, Note_on_c, 0, 85, 0
2, 120480, Note_on_c, 0, 86, 64
2, 120716, Note_on_c, 0, 86, 0
2, 121200, Note_on_c, 0, 86, 64
2, 121316, Note_on_c, 0, 86, 0
2, 121320, Note_on_c, 0, 85, 64
2, 121436, Note_on_c, 0, 85, 0
2, 121440, Note_on_c, 0, 86, 64
2, 121676, Note_on_c, 0, 86, 0
2, 122160, Note_on_c, 0, 86, 64
2, 122276, Note_on_c, 0, 86, 0
2, 122280, Note_on_c, 0, 85, 64
2, 122396, Note_on_c, 0, 85, 0
2, 122400, Note_on_c, 0, 86, 64
2, 122636, Note_on_c, 0, 86, 0
2, 123600, Note_on_c, 0, 74, 64
2, 123836, Note_on_c, 0, 74, 0
2, 123840, Note_on_c, 0, 71, 64
2, 123956, Note_on_c, 0, 71, 0
2, 123960, Note_on_c, 0, 74, 64
2, 124076, Note_on_c, 0, 74, 0
2, 124080, Note_on_c, 0, 67, 64
2, 124196, Note_on_c, 0, 67, 0
2, 124200, Note_on_c, 0, 69, 64
2, 124316, Note_on_c, 0, 69, 0
2, 124320, Note_on_c, 0, 71, 64
2, 124436, Note_on_c, 0, 71, 0
2, 124440, Note_on_c, 0, 72, 64
2, 124556, Note_on_c, 0, 72, 0
2, 124560, Note_on_c, 0, 74, 64
2, 124676, Note_on_c, 0, 74, 0
2, 124680, Note_on_c, 0, 72, 64
2, 124796, Note_on_c, 0, 72, 0
2, 124800, Note_on_c, 0, 71, 64
2, 125036, Note_on_c, 0, 71, 0
2, 125040, Note_on_c, 0, 79, 64
2, 125156, Note_on_c, 0, 79, 0
2, 125160, Note_on_c, 0, 78, 64
2, 125276, Note_on_c, 0, 78, 0
2, 125280, Note_on_c, 0, 79, 64
2, 125516, Note_on_c, 0, 79, 0
2, 126480, Note_on_c, 0, 79, 64
2, 126596, Note_on_c, 0, 79, 0
2, 126600, Note_on_c, 0, 78, 64
2, 126716, Note_on_c, 0, 78, 0
2, 126720, Note_on_c, 0, 79, 64
2, 126956, Note_on_c, 0, 79, 0
2, 126960, Note_on_c, 0, 74, 64
2, 127076, Note_on_c, 0, 74, 0
2, 127080, Note_on_c, 0, 72, 64
2, 127196, Note_on_c, 0, 72, 0
2, 127200, Note_on_c, 0, 74, 64
2, 127436, Note_on_c, 0, 74, 0
2, 128640, Note_on_c, 0, 85, 64
2, 128756, Note_on_c, 0, 85, 0
2, 128760, Note_on_c, 0, 83, 64
2, 128876, Note_on_c, 0, 83, 0
2, 128880, Note_on_c, 0, 85, 64
2, 129116, Note_on_c, 0, 85, 0
2, 129600, Note_on_c, 0, 85, 64
2, 129716, Note_on_c, 0, 85, 0
2, 129720, Note_on_c, 0, 83, 64
2, 129836, Note_on_c, 0, 83, 0
2, 129840, Note_on_c, 0, 85, 64
2, 130076, Note_on_c, 0, 85, 0
2, 130560, Note_on_c, 0, 85, 64
2, 130676, Note_on_c, 0, 85, 0
2, 130680, Note_on_c, 0, 84, 64
2, 130796, Note_on_c, 0, 84, 0
2, 130800, Note_on_c, 0, 85, 64
2, 131036, Note_on_c, 0, 85, 0
2, 131520, Note_on_c, 0, 85, 64
2, 131636, Note_on_c, 0, 85, 0
2, 131640, Note_on_c, 0, 84, 64
2, 131756, Note_on_c, 0, 84, 0
2, 131760, Note_on_c, 0, 85, 64
2, 131996, Note_on_c, 0, 85, 0
2, 132480, Note_on_c, 0, 85, 64
2, 132596, Note_on_c, 0, 85, 0
2, 132600, Note_on_c, 0, 83, 64
2, 132716, Note_on_c, 0, 83, 0
2, 132720, Note_on_c, 0, 85, 64
2, 132956, Note_on_c, 0, 85, 0
2, 133440, Note_on_c, 0, 85, 64
2, 133556, Note_on_c, 0, 85, 0
2, 133560, Note_on_c, 0, 84, 64
2, 133676, Note_on_c, 0, 84, 0
2, 133680, Note_on_c, 0, 85, 64
2, 133916, Note_on_c, 0, 85, 0
2, 134160, Note_on_c, 0, 83, 64
2, 134276, Note_on_c, 0, 83, 0
2, 134280, Note_on_c, 0, 81, 64
2, 134396, Note_on_c, 0, 81, 0
2, 134400, Note_on_c, 0, 83, 64
2, 134636, Note_on_c, 0, 83, 0
2, 134640, Note_on_c, 0, 78, 64
2, 134756, Note_on_c, 0, 78, 0
2, 134760, Note_on_c, 0, 76, 64
2, 134876, Note_on_c, 0, 76, 0
2, 134880, Note_on_c, 0, 78, 64
2, 135116, Note_on_c, 0, 78, 0
2, 135120, Note_on_c, 0, 83, 64
2, 135236, Note_on_c, 0, 83, 0
2, 135240, Note_on_c, 0, 82, 64
2, 135356, Note_on_c, 0, 82, 0
2, 135360, Note_on_c, 0, 83, 64
2, 135596, Note_on_c, 0, 83, 0
2, 135600, Note_on_c, 0, 71, 64
2, 135716, Note_on_c, 0, 71, 0
2, 135720, Note_on_c, 0, 70, 64
2, 135836, Note_on_c, 0, 70, 0
2, 135840, Note_on_c, 0, 71, 64
2, 136076, Note_on_c, 0, 71, 0
2, 136080, Note_on_c, 0, 83, 64
2, 136196, Note_on_c, 0, 83, 0
2, 136200, Note_on_c, 0, 82, 64
2, 136316, Note_on_c, 0, 82, 0
2, 136320, Note_on_c, 0, 83, 64
2, 136556, Note_on_c, 0, 83, 0
2, 136560, Note_on_c, 0, 71, 64
2, 136676, Note_on_c, 0, 71, 0
2, 136680, Note_on_c, 0, 73, 64
2, 136796, Note_on_c, 0, 73, 0
2, 136800, Note_on_c, 0, 74, 64
2, 137036, Note_on_c, 0, 74, 0
2, 137040, Note_on_c, 0, 76, 64
2, 137276, Note_on_c, 0, 76, 0
2, 137280, Note_on_c, 0, 78, 64
2, 137396, Note_on_c, 0, 78, 0
2, 137400, Note_on_c, 0, 76, 64
2, 137516, Note_on_c, 0, 76, 0
2, 137520, Note_on_c, 0, 78, 64
2, 137636, Note_on_c, 0, 78, 0
2, 137640, Note_on_c, 0, 79, 64
2, 137756, Note_on_c, 0, 79, 0
2, 137760, Note_on_c, 0, 78, 64
2, 137876, Note_on_c, 0, 78, 0
2, 137880, Note_on_c, 0, 76, 64
2, 137996, Note_on_c, 0, 76, 0
2, 138000, Note_on_c, 0, 74, 64
2, 138116, Note_on_c, 0, 74, 0
2, 138120, Note_on_c, 0, 73, 64
2, 138236, Note_on_c, 0, 73, 0
2, 138240, Note_on_c, 0, 74, 64
2, 138356, Note_on_c, 0, 74, 0
2, 138360, Note_on_c, 0, 76, 64
2, 138476, Note_on_c, 0, 76, 0
2, 138480, Note_on_c, 0, 74, 64
2, 138596, Note_on_c, 0, 74, 0
2, 138600, Note_on_c, 0, 76, 64
2, 138716, Note_on_c, 0, 76, 0
2, 138720, Note_on_c, 0, 76, 64
2, 138756, Note_on_c, 0, 76, 0
2, 138760, Note_on_c, 0, 78, 64
2, 138796, Note_on_c, 0, 78, 0
2, 138800, Note_on_c, 0, 76, 64
2, 139076, Note_on_c, 0, 76, 0
2, 139080, Note_on_c, 0, 74, 64
2, 139136, Note_on_c, 0, 74, 0
2, 139140, Note_on_c, 0, 76, 64
2, 139196, Note_on_c, 0, 76, 0
2, 139200, Note_on_c, 0, 78, 64
2, 139436, Note_on_c, 0, 78, 0
2, 139440, Note_on_c, 0, 83, 64
2, 139556, Note_on_c, 0, 83, 0
2, 139560, Note_on_c, 0, 82, 64
2, 139676, Note_on_c, 0, 82, 0
2, 139680, Note_on_c, 0, 83, 64
2, 139916, Note_on_c, 0, 83, 0
2, 139920, Note_on_c, 0, 78, 64
2, 140036, Note_on_c, 0, 78, 0
2, 140040, Note_on_c, 0, 76, 64
2, 140156, Note_on_c, 0, 76, 0
2, 140160, Note_on_c, 0, 74, 64
2, 140396, Note_on_c, 0, 74, 0
2, 140400, Note_on_c, 0, 73, 64
2, 140516, Note_on_c, 0, 73, 0
2, 140520, Note_on_c, 0, 71, 64
2, 140636, Note_on_c, 0, 71, 0
2, 140640, Note_on_c, 0, 73, 64
2, 140876, Note_on_c, 0, 73, 0
2, 140880, Note_on_c, 0, 71, 64
2, 140996, Note_on_c, 0, 71, 0
2, 141000, Note_on_c, 0, 70, 64
2, 141116, Note_on_c, 0, 70, 0
2, 141120, Note_on_c, 0, 79, 64
2, 141476, Note_on_c, 0, 79, 0
2, 141480, Note_on_c, 0, 78, 64
2, 141596, Note_on_c, 0, 78, 0
2, 141600, Note_on_c, 0, 76, 64
2, 141716, Note_on_c, 0, 76, 0
2, 141720, Note_on_c, 0, 74, 64
2, 141836, Note_on_c, 0, 74, 0
2, 141840, Note_on_c, 0, 73, 64
2, 141956, Note_on_c, 0, 73, 0
2, 141960, Note_on_c, 0, 71, 64
2, 142076, Note_on_c, 0, 71, 0
2, 142080, Note_on_c, 0, 78, 64
2, 142436, Note_on_c, 0, 78, 0
2, 142440, Note_on_c, 0, 79, 64
2, 142556, Note_on_c, 0, 79, 0
2, 142560, Note_on_c, 0, 73, 64
2, 142916, Note_on_c, 0, 73, 0
2, 142920, Note_on_c, 0, 71, 64
2, 143036, Note_on_c, 0, 71, 0
2, 143040, Note_on_c, 0, 71, 64
2, 143516, Note_on_c, 0, 71, 0
2, 145200, Note_on_c, 0, 74, 64
2, 145316, Note_on_c, 0, 74, 0
2, 145320, Note_on_c, 0, 73, 64
2, 145436, Note_on_c, 0, 73, 0
2, 145440, Note_on_c, 0, 74, 64
2, 145676, Note_on_c, 0, 74, 0
2, 145680, Note_on_c, 0, 78, 64
2, 145796, Note_on_c, 0, 78, 0
2, 145800, Note_on_c, 0, 76, 64
2, 145916, Note_on_c, 0, 76, 0
2, 145920, Note_on_c, 0, 78, 64
2, 146156, Note_on_c, 0, 78, 0
2, 146160, Note_on_c, 0, 78, 64
2, 146396, Note_on_c, 0, 78, 0
2, 146400, Note_on_c, 0, 78, 64
2, 146636, Note_on_c, 0, 78, 0
2, 146640, Note_on_c, 0, 76, 64
2, 146756, Note_on_c, 0, 76, 0
2, 146760, Note_on_c, 0, 74, 64
2, 146876, Note_on_c, 0, 74, 0
2, 146880, Note_on_c, 0, 76, 64
2, 147116, Note_on_c, 0, 76, 0
2, 147120, Note_on_c, 0, 76, 64
2, 147356, Note_on_c, 0, 76, 0
2, 147360, Note_on_c, 0, 76, 64
2, 147596, Note_on_c, 0, 76, 0
2, 147600, Note_on_c, 0, 74, 64
2, 147716, Note_on_c, 0, 74, 0
2, 147720, Note_on_c, 0, 73, 64
2, 147836, Note_on_c, 0, 73, 0
2, 147840, Note_on_c, 0, 74, 64
2, 148196, Note_on_c, 0, 74, 0
2, 148200, Note_on_c, 0, 73, 64
2, 148316, Note_on_c, 0, 73, 0
2, 148320, Note_on_c, 0, 73, 64
2, 148356, Note_on_c, 0, 73, 0
2, 148360, Note_on_c, 0, 74, 64
2, 148396, Note_on_c, 0, 74, 0
2, 148400, Note_on_c, 0, 73, 64
2, 148676, Note_on_c, 0, 73, 0
2, 148680, Note_on_c, 0, 71, 64
2, 148796, Note_on_c, 0, 71, 0
2, 148800, Note_on_c, 0, 71, 64
2, 149276, Note_on_c, 0, 71, 0
2, 149760, Note_on_c, 0, 67, 64
2, 150236, Note_on_c, 0, 67, 0
2, 150240, Note_on_c, 0, 71, 64
2, 150716, Note_on_c, 0, 71, 0
2, 150720, Note_on_c, 0, 74, 64
2, 151196, Note_on_c, 0, 74, 0
2, 151440, Note_on_c, 0, 74, 64
2, 151676, Note_on_c, 0, 74, 0
2, 151680, Note_on_c, 0, 71, 64
2, 151916, Note_on_c, 0, 71, 0
2, 151920, Note_on_c, 0, 74, 64
2, 152156, Note_on_c, 0, 74, 0
2, 152160, Note_on_c, 0, 79, 64
2, 152276, Note_on_c, 0, 79, 0
2, 152280, Note_on_c, 0, 83, 64
2, 152396, Note_on_c, 0, 83, 0
2, 152400, Note_on_c, 0, 81, 64
2, 152516, Note_on_c, 0, 81, 0
2, 152520, Note_on_c, 0, 79, 64
2, 152636, Note_on_c, 0, 79, 0
2, 152640, Note_on_c, 0, 78, 64
2, 152756, Note_on_c, 0, 78, 0
2, 152760, Note_on_c, 0, 79, 64
2, 152876, Note_on_c, 0, 79, 0
2, 152880, Note_on_c, 0, 81, 64
2, 152996, Note_on_c, 0, 81, 0
2, 153000, Note_on_c, 0, 79, 64
2, 153116, Note_on_c, 0, 79, 0
2, 153120, Note_on_c, 0, 78, 64
2, 153236, Note_on_c, 0, 78, 0
2, 153240, Note_on_c, 0, 76, 64
2, 153356, Note_on_c, 0, 76, 0
2, 153360, Note_on_c, 0, 74, 64
2, 153476, Note_on_c, 0, 74, 0
2, 153480, Note_on_c, 0, 73, 64
2, 153596, Note_on_c, 0, 73, 0
2, 153600, Note_on_c, 0, 74, 64
2, 153836, Note_on_c, 0, 74, 0
2, 153840, Note_on_c, 0, 69, 64
2, 153956, Note_on_c, 0, 69, 0
2, 153960, Note_on_c, 0, 67, 64
2, 154076, Note_on_c, 0, 67, 0
2, 154080, Note_on_c, 0, 69, 64
2, 154316, Note_on_c, 0, 69, 0
2, 154320, Note_on_c, 0, 74, 64
2, 154436, Note_on_c, 0, 74, 0
2, 154440, Note_on_c, 0, 73, 64
2, 154556, Note_on_c, 0, 73, 0
2, 154560, Note_on_c, 0, 74, 64
2, 154796, Note_on_c, 0, 74, 0
2, 154800, Note_on_c, 0, 66, 64
2, 154916, Note_on_c, 0, 66, 0
2, 154920, Note_on_c, 0, 64, 64
2, 155036, Note_on_c, 0, 64, 0
2, 155040, Note_on_c, 0, 66, 64
2, 155276, Note_on_c, 0, 66, 0
2, 155280, Note_on_c, 0, 74, 64
2, 155396, Note_on_c, 0, 74, 0
2, 155400, Note_on_c, 0, 73, 64
2, 155516, Note_on_c, 0, 73, 0
2, 155520, Note_on_c, 0, 74, 64
2, 155756, Note_on_c, 0, 74, 0
2, 155760, Note_on_c, 0, 62, 64
2, 155876, Note_on_c, 0, 62, 0
2, 155880, Note_on_c, 0, 64, 64
2, 155996, Note_on_c, 0, 64, 0
2, 156000, Note_on_c, 0, 66, 64
2, 156236, Note_on_c, 0, 66, 0
2, 156240, Note_on_c, 0, 68, 64
2, 156476, Note_on_c, 0, 68, 0
2, 156480, Note_on_c, 0, 69, 64
2, 156956, Note_on_c, 0, 69, 0
2, 157200, Note_on_c, 0, 73, 64
2, 157436, Note_on_c, 0, 73, 0
2, 157440, Note_on_c, 0, 74, 64
2, 157556, Note_on_c, 0, 74, 0
2, 157560, Note_on_c, 0, 73, 64
2, 157676, Note_on_c, 0, 73, 0
2, 157680, Note_on_c, 0, 74, 64
2, 157796, Note_on_c, 0, 74, 0
2, 157800, Note_on_c, 0, 76, 64
2, 157916, Note_on_c, 0, 76, 0
2, 157920, Note_on_c, 0, 74, 64
2, 158036, Note_on_c, 0, 74, 0
2, 158040, Note_on_c, 0, 78, 64
2, 158156, Note_on_c, 0, 78, 0
2, 158160, Note_on_c, 0, 73, 64
2, 158276, Note_on_c, 0, 73, 0
2, 158280, Note_on_c, 0, 76, 64
2, 158396, Note_on_c, 0, 76, 0
2, 158400, Note_on_c, 0, 74, 64
2, 158516, Note_on_c, 0, 74, 0
2, 158520, Note_on_c, 0, 76, 64
2, 158636, Note_on_c, 0, 76, 0
2, 158640, Note_on_c, 0, 78, 64
2, 158756, Note_on_c, 0, 78, 0
2, 158760, Note_on_c, 0, 76, 64
2, 158876, Note_on_c, 0, 76, 0
2, 158880, Note_on_c, 0, 74, 64
2, 158996, Note_on_c, 0, 74, 0
2, 159000, Note_on_c, 0, 72, 64
2, 159116, Note_on_c, 0, 72, 0
2, 159120, Note_on_c, 0, 71, 64
2, 159236, Note_on_c, 0, 71, 0
2, 159240, Note_on_c, 0, 69, 64
2, 159356, Note_on_c, 0, 69, 0
2, 159360, Note_on_c, 0, 71, 64
2, 159476, Note_on_c, 0, 71, 0
2, 159480, Note_on_c, 0, 69, 64
2, 159596, Note_on_c, 0, 69, 0
2, 159600, Note_on_c, 0, 71, 64
2, 159716, Note_on_c, 0, 71, 0
2, 159720, Note_on_c, 0, 72, 64
2, 159836, Note_on_c, 0, 72, 0
2, 159840, Note_on_c, 0, 71, 64
2, 159956, Note_on_c, 0, 71, 0
2, 159960, Note_on_c, 0, 74, 64
2, 160076, Note_on_c, 0, 74, 0
2, 160080, Note_on_c, 0, 69, 64
2, 160196, Note_on_c, 0, 69, 0
2, 160200, Note_on_c, 0, 72, 64
2, 160316, Note_on_c, 0, 72, 0
2, 160320, Note_on_c, 0, 71, 64
2, 160436, Note_on_c, 0, 71, 0
2, 160440, Note_on_c, 0, 72, 64
2, 160556, Note_on_c, 0, 72, 0
2, 160560, Note_on_c, 0, 74, 64
2, 160676, Note_on_c, 0, 74, 0
2, 160680, Note_on_c, 0, 72, 64
2, 160796, Note_on_c, 0, 72, 0
2, 160800, Note_on_c, 0, 71, 64
2, 160916, Note_on_c, 0, 71, 0
2, 160920, Note_on_c, 0, 69, 64
2, 161036, Note_on_c, 0, 69, 0
2, 161040, Note_on_c, 0, 67, 64
2, 161156, Note_on_c, 0, 67, 0
2, 161160, Note_on_c, 0, 66, 64
2, 161276, Note_on_c, 0, 66, 0
2, 161280, Note_on_c, 0, 67, 64
2, 161396, Note_on_c, 0, 67, 0
2, 161400, Note_on_c, 0, 66, 64
2, 161516, Note_on_c, 0, 66, 0
2, 161520, Note_on_c, 0, 67, 64
2, 161636, Note_on_c, 0, 67, 0
2, 161640, Note_on_c, 0, 69, 64
2, 161756, Note_on_c, 0, 69, 0
2, 161760, Note_on_c, 0, 67, 64
2, 161876, Note_on_c, 0, 67, 0
2, 161880, Note_on_c, 0, 71, 64
2, 161996, Note_on_c, 0, 71, 0
2, 162000, Note_on_c, 0, 66, 64
2, 162116, Note_on_c, 0, 66, 0
2, 162120, Note_on_c, 0, 69, 64
2, 162236, Note_on_c, 0, 69, 0
2, 162240, Note_on_c, 0, 67, 64
2, 162356, Note_on_c, 0, 67, 0
2, 162360, Note_on_c, 0, 69, 64
2, 162476, Note_on_c, 0, 69, 0
2, 162480, Note_on_c, 0, 71, 64
2, 162596, Note_on_c, 0, 71, 0
2, 162600, Note_on_c, 0, 69, 64
2, 162716, Note_on_c, 0, 69, 0
2, 162720, Note_on_c, 0, 67, 64
2, 162836, Note_on_c, 0, 67, 0
2, 162840, Note_on_c, 0, 66, 64
2, 162956, Note_on_c, 0, 66, 0
2, 162960, Note_on_c, 0, 64, 64
2, 163076, Note_on_c, 0, 64, 0
2, 163080, Note_on_c, 0, 62, 64
2, 163196, Note_on_c, 0, 62, 0
2, 163200, Note_on_c, 0, 64, 64
2, 163316, Note_on_c, 0, 64, 0
2, 163320, Note_on_c, 0, 67, 64
2, 163436, Note_on_c, 0, 67, 0
2, 163440, Note_on_c, 0, 66, 64
2, 163556, Note_on_c, 0, 66, 0
2, 163560, Note_on_c, 0, 69, 64
2, 163676, Note_on_c, 0, 69, 0
2, 163680, Note_on_c, 0, 67, 64
2, 163796, Note_on_c, 0, 67, 0
2, 163800, Note_on_c, 0, 71, 64
2, 163916, Note_on_c, 0, 71, 0
2, 163920, Note_on_c, 0, 69, 64
2, 164036, Note_on_c, 0, 69, 0
2, 164040, Note_on_c, 0, 67, 64
2, 164156, Note_on_c, 0, 67, 0
2, 164160, Note_on_c, 0, 66, 64
2, 164276, Note_on_c, 0, 66, 0
2, 164280, Note_on_c, 0, 67, 64
2, 164396, Note_on_c, 0, 67, 0
2, 164400, Note_on_c, 0, 69, 64
2, 164516, Note_on_c, 0, 69, 0
2, 164520, Note_on_c, 0, 71, 64
2, 164636, Note_on_c, 0, 71, 0
2, 164640, Note_on_c, 0, 72, 64
2, 164756, Note_on_c, 0, 72, 0
2, 164760, Note_on_c, 0, 74, 64
2, 164876, Note_on_c, 0, 74, 0
2, 164880, Note_on_c, 0, 72, 64
2, 164996, Note_on_c, 0, 72, 0
2, 165000, Note_on_c, 0, 74, 64
2, 165116, Note_on_c, 0, 74, 0
2, 165120, Note_on_c, 0, 71, 64
2, 165236, Note_on_c, 0, 71, 0
2, 165240, Note_on_c, 0, 79, 64
2, 165356, Note_on_c, 0, 79, 0
2, 165360, Note_on_c, 0, 78, 64
2, 165476, Note_on_c, 0, 78, 0
2, 165480, Note_on_c, 0, 76, 64
2, 165596, Note_on_c, 0, 76, 0
2, 165600, Note_on_c, 0, 74, 64
2, 165716, Note_on_c, 0, 74, 0
2, 165720, Note_on_c, 0, 72, 64
2, 165836, Note_on_c, 0, 72, 0
2, 165840, Note_on_c, 0, 71, 64
2, 165956, Note_on_c, 0, 71, 0
2, 165960, Note_on_c, 0, 69, 64
2, 166076, Note_on_c, 0, 69, 0
2, 166080, Note_on_c, 0, 67, 64
2, 166196, Note_on_c, 0, 67, 0
2, 166200, Note_on_c, 0, 64, 64
2, 166316, Note_on_c, 0, 64, 0
2, 166320, Note_on_c, 0, 62, 64
2, 166436, Note_on_c, 0, 62, 0
2, 166440, Note_on_c, 0, 60, 64
2, 166556, Note_on_c, 0, 60, 0
2, 166560, Note_on_c, 0, 59, 64
2, 166676, Note_on_c, 0, 59, 0
2, 166680, Note_on_c, 0, 57, 64
2, 166796, Note_on_c, 0, 57, 0
2, 166800, Note_on_c, 0, 55, 64
2, 166916, Note_on_c, 0, 55, 0
2, 166920, Note_on_c, 0, 57, 64
2, 167036, Note_on_c, 0, 57, 0
2, 167040, Note_on_c, 0, 59, 64
2, 167156, Note_on_c, 0, 59, 0
2, 167160, Note_on_c, 0, 60, 64
2, 167276, Note_on_c, 0, 60, 0
2, 167280, Note_on_c, 0, 59, 64
2, 167396, Note_on_c, 0, 59, 0
2, 167400, Note_on_c, 0, 57, 64
2, 167516, Note_on_c, 0, 57, 0
2, 167520, Note_on_c, 0, 55, 64
2, 167756, Note_on_c, 0, 55, 0
2, 167760, Note_on_c, 0, 79, 64
2, 167996, Note_on_c, 0, 79, 0
2, 168000, Note_on_c, 0, 78, 64
2, 168116, Note_on_c, 0, 78, 0
2, 168120, Note_on_c, 0, 74, 64
2, 168236, Note_on_c, 0, 74, 0
2, 168240, Note_on_c, 0, 78, 64
2, 168356, Note_on_c, 0, 78, 0
2, 168360, Note_on_c, 0, 74, 64
2, 168476, Note_on_c, 0, 74, 0
2, 168480, Note_on_c, 0, 78, 64
2, 168596, Note_on_c, 0, 78, 0
2, 168600, Note_on_c, 0, 74, 64
2, 168716, Note_on_c, 0, 74, 0
2, 168720, Note_on_c, 0, 78, 64
2, 168836, Note_on_c, 0, 78, 0
2, 168840, Note_on_c, 0, 74, 64
2, 168956, Note_on_c, 0, 74, 0
2, 168960, Note_on_c, 0, 77, 64
2, 169076, Note_on_c, 0, 77, 0
2, 169080, Note_on_c, 0, 74, 64
2, 169196, Note_on_c, 0, 74, 0
2, 169200, Note_on_c, 0, 77, 64
2, 169316, Note_on_c, 0, 77, 0
2, 169320, Note_on_c, 0, 74, 64
2, 169436, Note_on_c, 0, 74, 0
2, 169440, Note_on_c, 0, 77, 64
2, 169556, Note_on_c, 0, 77, 0
2, 169560, Note_on_c, 0, 74, 64
2, 169676, Note_on_c, 0, 74, 0
2, 169680, Note_on_c, 0, 77, 64
2, 169796, Note_on_c, 0, 77, 0
2, 169800, Note_on_c, 0, 74, 64
2, 169916, Note_on_c, 0, 74, 0
2, 169920, Note_on_c, 0, 76, 64
2, 170036, Note_on_c, 0, 76, 0
2, 170040, Note_on_c, 0, 72, 64
2, 170156, Note_on_c, 0, 72, 0
2, 170160, Note_on_c, 0, 76, 64
2, 170276, Note_on_c, 0, 76, 0
2, 170280, Note_on_c, 0, 72, 64
2, 170396, Note_on_c, 0, 72, 0
2, 170400, Note_on_c, 0, 76, 64
2, 170516, Note_on_c, 0, 76, 0
2, 170520, Note_on_c, 0, 72, 64
2, 170636, Note_on_c, 0, 72, 0
2, 170640, Note_on_c, 0, 76, 64
2, 170756, Note_on_c, 0, 76, 0
2, 170760, Note_on_c, 0, 72, 64
2, 170876, Note_on_c, 0, 72, 0
2, 170880, Note_on_c, 0, 76, 64
2, 170996, Note_on_c, 0, 76, 0
2, 171000, Note_on_c, 0, 73, 64
2, 171116, Note_on_c, 0, 73, 0
2, 171120, Note_on_c, 0, 76, 64
2, 171236, Note_on_c, 0, 76, 0
2, 171240, Note_on_c, 0, 73, 64
2, 171356, Note_on_c, 0, 73, 0
2, 171360, Note_on_c, 0, 76, 64
2, 171476, Note_on_c, 0, 76, 0
2, 171480, Note_on_c, 0, 73, 64
2, 171596, Note_on_c, 0, 73, 0
2, 171600, Note_on_c, 0, 76, 64
2, 171716, Note_on_c, 0, 76, 0
2, 171720, Note_on_c, 0, 73, 64
2, 171836, Note_on_c, 0, 73, 0
2, 171840, Note_on_c, 0, 75, 64
2, 171956, Note_on_c, 0, 75, 0
2, 171960, Note_on_c, 0, 71, 64
2, 172076, Note_on_c, 0, 71, 0
2, 172080, Note_on_c, 0, 75, 64
2, 172196, Note_on_c, 0, 75, 0
2, 172200, Note_on_c, 0, 71, 64
2, 172316, Note_on_c, 0, 71, 0
2, 172320, Note_on_c, 0, 75, 64
2, 172436, Note_on_c, 0, 75, 0
2, 172440, Note_on_c, 0, 71, 64
2, 172556, Note_on_c, 0, 71, 0
2, 172560, Note_on_c, 0, 75, 64
2, 172676, Note_on_c, 0, 75, 0
2, 172680, Note_on_c, 0, 71, 64
2, 172796, Note_on_c, 0, 71, 0
2, 172800, Note_on_c, 0, 74, 64
2, 172916, Note_on_c, 0, 74, 0
2, 172920, Note_on_c, 0, 71, 64
2, 173036, Note_on_c, 0, 71, 0
2, 173040, Note_on_c, 0, 74, 64
2, 173156, Note_on_c, 0, 74, 0
2, 173160, Note_on_c, 0, 71, 64
2, 173276, Note_on_c, 0, 71, 0
2, 173280, Note_on_c, 0, 74, 64
2, 173396, Note_on_c, 0, 74, 0
2, 173400, Note_on_c, 0, 71, 64
2, 173516, Note_on_c, 0, 71, 0
2, 173520, Note_on_c, 0, 74, 64
2, 173636, Note_on_c, 0, 74, 0
2, 173640, Note_on_c, 0, 71, 64
2, 173756, Note_on_c, 0, 71, 0
2, 173760, Note_on_c, 0, 72, 64
2, 173876, Note_on_c, 0, 72, 0
2, 173880, Note_on_c, 0, 69, 64
2, 173996, Note_on_c, 0, 69, 0
2, 174000, Note_on_c, 0, 72, 64
2, 174116, Note_on_c, 0, 72, 0
2, 174120, Note_on_c, 0, 69, 64
2, 174236, Note_on_c, 0, 69, 0
2, 174240, Note_on_c, 0, 72, 64
2, 174356, Note_on_c, 0, 72, 0
2, 174360, Note_on_c, 0, 69, 64
2, 174476, Note_on_c, 0, 69, 0
2, 174480, Note_on_c, 0, 72, 64
2, 174596, Note_on_c, 0, 72, 0
2, 174600, Note_on_c, 0, 69, 64
2, 174716, Note_on_c, 0, 69, 0
2, 174720, Note_on_c, 0, 70, 64
2, 174836, Note_on_c, 0, 70, 0
2, 174840, Note_on_c, 0, 69, 64
2, 174956, Note_on_c, 0, 69, 0
2, 174960, Note_on_c, 0, 70, 64
2, 175076, Note_on_c, 0, 70, 0
2, 175080, Note_on_c, 0, 77, 64
2, 175196, Note_on_c, 0, 77, 0
2, 175200, Note_on_c, 0, 74, 64
2, 175316, Note_on_c, 0, 74, 0
2, 175320, Note_on_c, 0, 71, 64
2, 175436, Note_on_c, 0, 71, 0
2, 175440, Note_on_c, 0, 65, 64
2, 175556, Note_on_c, 0, 65, 0
2, 175560, Note_on_c, 0, 62, 64
2, 175676, Note_on_c, 0, 62, 0
2, 175680, Note_on_c, 0, 70, 64
2, 175796, Note_on_c, 0, 70, 0
2, 175800, Note_on_c, 0, 69, 64
2, 175916, Note_on_c, 0, 69, 0
2, 175920, Note_on_c, 0, 70, 64
2, 176036, Note_on_c, 0, 70, 0
2, 176040, Note_on_c, 0, 77, 64
2, 176156, Note_on_c, 0, 77, 0
2, 176160, Note_on_c, 0, 74, 64
2, 176276, Note_on_c, 0, 74, 0
2, 176280, Note_on_c, 0, 71, 64
2, 176396, Note_on_c, 0, 71, 0
2, 176400, Note_on_c, 0, 65, 64
2, 176516, Note_on_c, 0, 65, 0
2, 176520, Note_on_c, 0, 62, 64
2, 176636, Note_on_c, 0, 62, 0
2, 176640, Note_on_c, 0, 72, 64
2, 176756, Note_on_c, 0, 72, 0
2, 176760, Note_on_c, 0, 71, 64
2, 176876, Note_on_c, 0, 71, 0
2, 176880, Note_on_c, 0, 72, 64
2, 176996, Note_on_c, 0, 72, 0
2, 177000, Note_on_c, 0, 78, 64
2, 177116, Note_on_c, 0, 78, 0
2, 177120, Note_on_c, 0, 72, 64
2, 177236, Note_on_c, 0, 72, 0
2, 177240, Note_on_c, 0, 69, 64
2, 177356, Note_on_c, 0, 69, 0
2, 177360, Note_on_c, 0, 66, 64
2, 177476, Note_on_c, 0, 66, 0
2, 177480, Note_on_c, 0, 63, 64
2, 177596, Note_on_c, 0, 63, 0
2, 177600, Note_on_c, 0, 72, 64
2, 177716, Note_on_c, 0, 72, 0
2, 177720, Note_on_c, 0, 71, 64
2, 177836, Note_on_c, 0, 71, 0
2, 177840, Note_on_c, 0, 72, 64
2, 177956, Note_on_c, 0, 72, 0
2, 177960, Note_on_c, 0, 78, 64
2, 178076, Note_on_c, 0, 78, 0
2, 178080, Note_on_c, 0, 72, 64
2, 178196, Note_on_c, 0, 72, 0
2, 178200, Note_on_c, 0, 69, 64
2, 178316, Note_on_c, 0, 69, 0
2, 178320, Note_on_c, 0, 66, 64
2, 178436, Note_on_c, 0, 66, 0
2, 178440, Note_on_c, 0, 63, 64
2, 178556, Note_on_c, 0, 63, 0
2, 178560, Note_on_c, 0, 74, 64
2, 178676, Note_on_c, 0, 74, 0
2, 178680, Note_on_c, 0, 72, 64
2, 178796, Note_on_c, 0, 72, 0
2, 178800, Note_on_c, 0, 74, 64
2, 178916, Note_on_c, 0, 74, 0
2, 178920, Note_on_c, 0, 80, 64
2, 179036, Note_on_c, 0, 80, 0
2, 179040, Note_on_c, 0, 74, 64
2, 179156, Note_on_c, 0, 74, 0
2, 179160, Note_on_c, 0, 71, 64
2, 179276, Note_on_c, 0, 71, 0
2, 179280, Note_on_c, 0, 68, 64
2, 179396, Note_on_c, 0, 68, 0
2, 179400, Note_on_c, 0, 64, 64
2, 179516, Note_on_c, 0, 64, 0
2, 179520, Note_on_c, 0, 74, 64
2, 179636, Note_on_c, 0, 74, 0
2, 179640, Note_on_c, 0, 72, 64
2, 179756, Note_on_c, 0, 72, 0
2, 179760, Note_on_c, 0, 74, 64
2, 179876, Note_on_c, 0, 74, 0
2, 179880, Note_on_c, 0, 80, 64
2, 179996, Note_on_c, 0, 80, 0
2, 180000, Note_on_c, 0, 74, 64
2, 180116, Note_on_c, 0, 74, 0
2, 180120, Note_on_c, 0, 71, 64
2, 180236, Note_on_c, 0, 71, 0
2, 180240, Note_on_c, 0, 68, 64
2, 180356, Note_on_c, 0, 68, 0
2, 180360, Note_on_c, 0, 64, 64
2, 180476, Note_on_c, 0, 64, 0
2, 180480, Note_on_c, 0, 72, 64
2, 180596, Note_on_c, 0, 72, 0
2, 180600, Note_on_c, 0, 71, 64
2, 180716, Note_on_c, 0, 71, 0
2, 180720, Note_on_c, 0, 72, 64
2, 180836, Note_on_c, 0, 72, 0
2, 180840, Note_on_c, 0, 81, 64
2, 180956, Note_on_c, 0, 81, 0
2, 180960, Note_on_c, 0, 78, 64
2, 181076, Note_on_c, 0, 78, 0
2, 181080, Note_on_c, 0, 72, 64
2, 181196, Note_on_c, 0, 72, 0
2, 181200, Note_on_c, 0, 69, 64
2, 181316, Note_on_c, 0, 69, 0
2, 181320, Note_on_c, 0, 63, 64
2, 181436, Note_on_c, 0, 63, 0
2, 181440, Note_on_c, 0, 72, 64
2, 181556, Note_on_c, 0, 72, 0
2, 181560, Note_on_c, 0, 71, 64
2, 181676, Note_on_c, 0, 71, 0
2, 181680, Note_on_c, 0, 72, 64
2, 181796, Note_on_c, 0, 72, 0
2, 181800, Note_on_c, 0, 81, 64
2, 181916, Note_on_c, 0, 81, 0
2, 181920, Note_on_c, 0, 78, 64
2, 182036, Note_on_c, 0, 78, 0
2, 182040, Note_on_c, 0, 72, 64
2, 182156, Note_on_c, 0, 72, 0
2, 182160, Note_on_c, 0, 69, 64
2, 182276, Note_on_c, 0, 69, 0
2, 182280, Note_on_c, 0, 63, 64
2, 182396, Note_on_c, 0, 63, 0
2, 182400, Note_on_c, 0, 71, 64
2, 182516, Note_on_c, 0, 71, 0
2, 182520, Note_on_c, 0, 69, 64
2, 182636, Note_on_c, 0, 69, 0
2, 182640, Note_on_c, 0, 71, 64
2, 182756, Note_on_c, 0, 71, 0
2, 182760, Note_on_c, 0, 81, 64
2, 182876, Note_on_c, 0, 81, 0
2, 182880, Note_on_c, 0, 77, 64
2, 182996, Note_on_c, 0, 77, 0
2, 183000, Note_on_c, 0, 74, 64
2, 183116, Note_on_c, 0, 74, 0
2, 183120, Note_on_c, 0, 71, 64
2, 183236, Note_on_c, 0, 71, 0
2, 183240, Note_on_c, 0, 64, 64
2, 183356, Note_on_c, 0, 64, 0
2, 183360, Note_on_c, 0, 71, 64
2, 183476, Note_on_c, 0, 71, 0
2, 183480, Note_on_c, 0, 69, 64
2, 183596, Note_on_c, 0, 69, 0
2, 183600, Note_on_c, 0, 71, 64
2, 183716, Note_on_c, 0, 71, 0
2, 183720, Note_on_c, 0, 81, 64
2, 183836, Note_on_c, 0, 81, 0
2, 183840, Note_on_c, 0, 77, 64
2, 183956, Note_on_c, 0, 77, 0
2, 183960, Note_on_c, 0, 74, 64
2, 184076, Note_on_c, 0, 74, 0
2, 184080, Note_on_c, 0, 71, 64
2, 184196, Note_on_c, 0, 71, 0
2, 184200, Note_on_c, 0, 64, 64
2, 184316, Note_on_c, 0, 64, 0
2, 184320, Note_on_c, 0, 71, 64
2, 184436, Note_on_c, 0, 71, 0
2, 184440, Note_on_c, 0, 69, 64
2, 184556, Note_on_c, 0, 69, 0
2, 184560, Note_on_c, 0, 71, 64
2, 184676, Note_on_c, 0, 71, 0
2, 184680, Note_on_c, 0, 80, 64
2, 184796, Note_on_c, 0, 80, 0
2, 184800, Note_on_c, 0, 74, 64
2, 184916, Note_on_c, 0, 74, 0
2, 184920, Note_on_c, 0, 71, 64
2, 185036, Note_on_c, 0, 71, 0
2, 185040, Note_on_c, 0, 68, 64
2, 185156, Note_on_c, 0, 68, 0
2, 185160, Note_on_c, 0, 64, 64
2, 185276, Note_on_c, 0, 64, 0
2, 185280, Note_on_c, 0, 71, 64
2, 185396, Note_on_c, 0, 71, 0
2, 185400, Note_on_c, 0, 69, 64
2, 185516, Note_on_c, 0, 69, 0
2, 185520, Note_on_c, 0, 71, 64
2, 185636, Note_on_c, 0, 71, 0
2, 185640, Note_on_c, 0, 80, 64
2, 185756, Note_on_c, 0, 80, 0
2, 185760, Note_on_c, 0, 74, 64
2, 185876, Note_on_c, 0, 74, 0
2, 185880, Note_on_c, 0, 71, 64
2, 185996, Note_on_c, 0, 71, 0
2, 186000, Note_on_c, 0, 64, 64
2, 186116, Note_on_c, 0, 64, 0
2, 186120, Note_on_c, 0, 80, 64
2, 186236, Note_on_c, 0, 80, 0
2, 186240, Note_on_c, 0, 81, 64
2, 186476, Note_on_c, 0, 81, 0
2, 186480, Note_on_c, 0, 77, 64
2, 186596, Note_on_c, 0, 77, 0
2, 186600, Note_on_c, 0, 76, 64
2, 186716, Note_on_c, 0, 76, 0
2, 186720, Note_on_c, 0, 77, 64
2, 186956, Note_on_c, 0, 77, 0
2, 187920, Note_on_c, 0, 84, 64
2, 188156, Note_on_c, 0, 84, 0
2, 188160, Note_on_c, 0, 83, 64
2, 188396, Note_on_c, 0, 83, 0
2, 188400, Note_on_c, 0, 76, 64
2, 188516, Note_on_c, 0, 76, 0
2, 188520, Note_on_c, 0, 74, 64
2, 188636, Note_on_c, 0, 74, 0
2, 188640, Note_on_c, 0, 76, 64
2, 188876, Note_on_c, 0, 76, 0
2, 189840, Note_on_c, 0, 83, 64
2, 190076, Note_on_c, 0, 83, 0
2, 190080, Note_on_c, 0, 81, 64
2, 190316, Note_on_c, 0, 81, 0
2, 190320, Note_on_c, 0, 74, 64
2, 190436, Note_on_c, 0, 74, 0
2, 190440, Note_on_c, 0, 73, 64
2, 190556, Note_on_c, 0, 73, 0
2, 190560, Note_on_c, 0, 74, 64
2, 190796, Note_on_c, 0, 74, 0
2, 191760, Note_on_c, 0, 81, 64
2, 191996, Note_on_c, 0, 81, 0
2, 192000, Note_on_c, 0, 80, 64
2, 192236, Note_on_c, 0, 80, 0
2, 192240, Note_on_c, 0, 74, 64
2, 192356, Note_on_c, 0, 74, 0
2, 192360, Note_on_c, 0, 72, 64
2, 192476, Note_on_c, 0, 72, 0
2, 192480, Note_on_c, 0, 74, 64
2, 192716, Note_on_c, 0, 74, 0
2, 192720, Note_on_c, 0, 71, 64
2, 192836, Note_on_c, 0, 71, 0
2, 192840, Note_on_c, 0, 69, 64
2, 192956, Note_on_c, 0, 69, 0
2, 192960, Note_on_c, 0, 71, 64
2, 193196, Note_on_c, 0, 71, 0
2, 193200, Note_on_c, 0, 68, 64
2, 193316, Note_on_c, 0, 68, 0
2, 193320, Note_on_c, 0, 67, 64
2, 193436, Note_on_c, 0, 67, 0
2, 193440, Note_on_c, 0, 68, 64
2, 193676, Note_on_c, 0, 68, 0
2, 193680, Note_on_c, 0, 76, 64
2, 193916, Note_on_c, 0, 76, 0
2, 193920, Note_on_c, 0, 69, 64
2, 194276, Note_on_c, 0, 69, 0
2, 194280, Note_on_c, 0, 71, 64
2, 194396, Note_on_c, 0, 71, 0
2, 194400, Note_on_c, 0, 71, 64
2, 194756, Note_on_c, 0, 71, 0
2, 194760, Note_on_c, 0, 69, 64
2, 194876, Note_on_c, 0, 69, 0
2, 194880, Note_on_c, 0, 69, 64
2, 195356, Note_on_c, 0, 69, 0
2, 195600, Note_on_c, 0, 57, 64
2, 195836, Note_on_c, 0, 57, 0
2, 195840, Note_on_c, 0, 60, 64
2, 196076, Note_on_c, 0, 60, 0
2, 196080, Note_on_c, 0, 64, 64
2, 196316, Note_on_c, 0, 64, 0
2, 196320, Note_on_c, 0, 60, 64
2, 196556, Note_on_c, 0, 60, 0
2, 196560, Note_on_c, 0, 57, 64
2, 196796, Note_on_c, 0, 57, 0
2, 196800, Note_on_c, 0, 60, 64
2, 197036, Note_on_c, 0, 60, 0
2, 197040, Note_on_c, 0, 64, 64
2, 197276, Note_on_c, 0, 64, 0
2, 197280, Note_on_c, 0, 60, 64
2, 197516, Note_on_c, 0, 60, 0
2, 197520, Note_on_c, 0, 57, 64
2, 197756, Note_on_c, 0, 57, 0
2, 197760, Note_on_c, 0, 64, 64
2, 197996, Note_on_c, 0, 64, 0
2, 198000, Note_on_c, 0, 64, 64
2, 198116, Note_on_c, 0, 64, 0
2, 198120, Note_on_c, 0, 64, 64
2, 198236, Note_on_c, 0, 64, 0
2, 198240, Note_on_c, 0, 64, 64
2, 198476, Note_on_c, 0, 64, 0
2, 198720, Note_on_c, 0, 76, 64
2, 198836, Note_on_c, 0, 76, 0
2, 198840, Note_on_c, 0, 75, 64
2, 198956, Note_on_c, 0, 75, 0
2, 198960, Note_on_c, 0, 76, 64
2, 199076, Note_on_c, 0, 76, 0
2, 199080, Note_on_c, 0, 78, 64
2, 199196, Note_on_c, 0, 78, 0
2, 199200, Note_on_c, 0, 76, 64
2, 199316, Note_on_c, 0, 76, 0
2, 199320, Note_on_c, 0, 79, 64
2, 199436, Note_on_c, 0, 79, 0
2, 199440, Note_on_c, 0, 78, 64
2, 199556, Note_on_c, 0, 78, 0
2, 199560, Note_on_c, 0, 81, 64
2, 199676, Note_on_c, 0, 81, 0
2, 199680, Note_on_c, 0, 79, 64
2, 199796, Note_on_c, 0, 79, 0
2, 199800, Note_on_c, 0, 78, 64
2, 199916, Note_on_c, 0, 78, 0
2, 199920, Note_on_c, 0, 79, 64
2, 200036, Note_on_c, 0, 79, 0
2, 200040, Note_on_c, 0, 81, 64
2, 200156, Note_on_c, 0, 81, 0
2, 200160, Note_on_c, 0, 79, 64
2, 200276, Note_on_c, 0, 79, 0
2, 200280, Note_on_c, 0, 83, 64
2, 200396, Note_on_c, 0, 83, 0
2, 200400, Note_on_c, 0, 81, 64
2, 200516, Note_on_c, 0, 81, 0
2, 200520, Note_on_c, 0, 84, 64
2, 200636, Note_on_c, 0, 84, 0
2, 200640, Note_on_c, 0, 83, 64
2, 200756, Note_on_c, 0, 83, 0
2, 200760, Note_on_c, 0, 81, 64
2, 200876, Note_on_c, 0, 81, 0
2, 200880, Note_on_c, 0, 83, 64
2, 200996, Note_on_c, 0, 83, 0
2, 201000, Note_on_c, 0, 84, 64
2, 201116, Note_on_c, 0, 84, 0
2, 201120, Note_on_c, 0, 83, 64
2, 201236, Note_on_c, 0, 83, 0
2, 201240, Note_on_c, 0, 84, 64
2, 201356, Note_on_c, 0, 84, 0
2, 201360, Note_on_c, 0, 83, 64
2, 201476, Note_on_c, 0, 83, 0
2, 201480, Note_on_c, 0, 81, 64
2, 201596, Note_on_c, 0, 81, 0
2, 201600, Note_on_c, 0, 79, 64
2, 201716, Note_on_c, 0, 79, 0
2, 201720, Note_on_c, 0, 81, 64
2, 201836, Note_on_c, 0, 81, 0
2, 201840, Note_on_c, 0, 79, 64
2, 201956, Note_on_c, 0, 79, 0
2, 201960, Note_on_c, 0, 78, 64
2, 202076, Note_on_c, 0, 78, 0
2, 202080, Note_on_c, 0, 76, 64
2, 202196, Note_on_c, 0, 76, 0
2, 202200, Note_on_c, 0, 79, 64
2, 202316, Note_on_c, 0, 79, 0
2, 202320, Note_on_c, 0, 78, 64
2, 202436, Note_on_c, 0, 78, 0
2, 202440, Note_on_c, 0, 76, 64
2, 202556, Note_on_c, 0, 76, 0
2, 202560, Note_on_c, 0, 75, 64
2, 202796, Note_on_c, 0, 75, 0
2, 202800, Note_on_c, 0, 71, 64
2, 203036, Note_on_c, 0, 71, 0
2, 203280, Note_on_c, 0, 79, 64
2, 203396, Note_on_c, 0, 79, 0
2, 203400, Note_on_c, 0, 78, 64
2, 203516, Note_on_c, 0, 78, 0
2, 203520, Note_on_c, 0, 79, 64
2, 203756, Note_on_c, 0, 79, 0
2, 203760, Note_on_c, 0, 74, 64
2, 203876, Note_on_c, 0, 74, 0
2, 203880, Note_on_c, 0, 72, 64
2, 203996, Note_on_c, 0, 72, 0
2, 204000, Note_on_c, 0, 74, 64
2, 204236, Note_on_c, 0, 74, 0
2, 204240, Note_on_c, 0, 79, 64
2, 204356, Note_on_c, 0, 79, 0
2, 204360, Note_on_c, 0, 78, 64
2, 204476, Note_on_c, 0, 78, 0
2, 204480, Note_on_c, 0, 79, 64
2, 204716, Note_on_c, 0, 79, 0
2, 204720, Note_on_c, 0, 71, 64
2, 204836, Note_on_c, 0, 71, 0
2, 204840, Note_on_c, 0, 69, 64
2, 204956, Note_on_c, 0, 69, 0
2, 204960, Note_on_c, 0, 71, 64
2, 205196, Note_on_c, 0, 71, 0
2, 205200, Note_on_c, 0, 79, 64
2, 205316, Note_on_c, 0, 79, 0
2, 205320, Note_on_c, 0, 78, 64
2, 205436, Note_on_c, 0, 78, 0
2, 205440, Note_on_c, 0, 79, 64
2, 205676, Note_on_c, 0, 79, 0
2, 205680, Note_on_c, 0, 67, 64
2, 205796, Note_on_c, 0, 67, 0
2, 205800, Note_on_c, 0, 69, 64
2, 205916, Note_on_c, 0, 69, 0
2, 205920, Note_on_c, 0, 71, 64
2, 206156, Note_on_c, 0, 71, 0
2, 206160, Note_on_c, 0, 73, 64
2, 206396, Note_on_c, 0, 73, 0
2, 206400, Note_on_c, 0, 74, 64
2, 206636, Note_on_c, 0, 74, 0
2, 206640, Note_on_c, 0, 62, 64
2, 206876, Note_on_c, 0, 62, 0
2, 207360, Note_on_c, 0, 78, 64
2, 207476, Note_on_c, 0, 78, 0
2, 207480, Note_on_c, 0, 76, 64
2, 207596, Note_on_c, 0, 76, 0
2, 207600, Note_on_c, 0, 78, 64
2, 207836, Note_on_c, 0, 78, 0
2, 208320, Note_on_c, 0, 78, 64
2, 208436, Note_on_c, 0, 78, 0
2, 208440, Note_on_c, 0, 76, 64
2, 208556, Note_on_c, 0, 76, 0
2, 208560, Note_on_c, 0, 78, 64
2, 208796, Note_on_c, 0, 78, 0
2, 209280, Note_on_c, 0, 77, 64
2, 209396, Note_on_c, 0, 77, 0
2, 209400, Note_on_c, 0, 76, 64
2, 209516, Note_on_c, 0, 76, 0
2, 209520, Note_on_c, 0, 77, 64
2, 209636, Note_on_c, 0, 77, 0
2, 209640, Note_on_c, 0, 86, 64
2, 209756, Note_on_c, 0, 86, 0
2, 209760, Note_on_c, 0, 83, 64
2, 209876, Note_on_c, 0, 83, 0
2, 209880, Note_on_c, 0, 77, 64
2, 209996, Note_on_c, 0, 77, 0
2, 210000, Note_on_c, 0, 74, 64
2, 210116, Note_on_c, 0, 74, 0
2, 210120, Note_on_c, 0, 67, 64
2, 210236, Note_on_c, 0, 67, 0
2, 210240, Note_on_c, 0, 77, 64
2, 210356, Note_on_c, 0, 77, 0
2, 210360, Note_on_c, 0, 76, 64
2, 210476, Note_on_c, 0, 76, 0
2, 210480, Note_on_c, 0, 77, 64
2, 210596, Note_on_c, 0, 77, 0
2, 210600, Note_on_c, 0, 86, 64
2, 210716, Note_on_c, 0, 86, 0
2, 210720, Note_on_c, 0, 83, 64
2, 210836, Note_on_c, 0, 83, 0
2, 210840, Note_on_c, 0, 77, 64
2, 210956, Note_on_c, 0, 77, 0
2, 210960, Note_on_c, 0, 74, 64
2, 211076, Note_on_c, 0, 74, 0
2, 211080, Note_on_c, 0, 67, 64
2, 211196, Note_on_c, 0, 67, 0
2, 211200, Note_on_c, 0, 76, 64
2, 211316, Note_on_c, 0, 76, 0
2, 211320, Note_on_c, 0, 77, 64
2, 211436, Note_on_c, 0, 77, 0
2, 211440, Note_on_c, 0, 76, 64
2, 211676, Note_on_c, 0, 76, 0
2, 212160, Note_on_c, 0, 76, 64
2, 212276, Note_on_c, 0, 76, 0
2, 212280, Note_on_c, 0, 77, 64
2, 212396, Note_on_c, 0, 77, 0
2, 212400, Note_on_c, 0, 76, 64
2, 212636, Note_on_c, 0, 76, 0
2, 213120, Note_on_c, 0, 76, 64
2, 213356, Note_on_c, 0, 76, 0
2, 213360, Note_on_c, 0, 76, 64
2, 213596, Note_on_c, 0, 76, 0
2, 213600, Note_on_c, 0, 76, 64
2, 213836, Note_on_c, 0, 76, 0
2, 213840, Note_on_c, 0, 76, 64
2, 214076, Note_on_c, 0, 76, 0
2, 214080, Note_on_c, 0, 76, 64
2, 214316, Note_on_c, 0, 76, 0
2, 214320, Note_on_c, 0, 76, 64
2, 214556, Note_on_c, 0, 76, 0
2, 214560, Note_on_c, 0, 76, 64
2, 214796, Note_on_c, 0, 76, 0
2, 214800, Note_on_c, 0, 76, 64
2, 215036, Note_on_c, 0, 76, 0
2, 215040, Note_on_c, 0, 81, 64
2, 215276, Note_on_c, 0, 81, 0
2, 215280, Note_on_c, 0, 81, 64
2, 215516, Note_on_c, 0, 81, 0
2, 215520, Note_on_c, 0, 81, 64
2, 215756, Note_on_c, 0, 81, 0
2, 215760, Note_on_c, 0, 81, 64
2, 215996, Note_on_c, 0, 81, 0
2, 216000, Note_on_c, 0, 81, 64
2, 216236, Note_on_c, 0, 81, 0
2, 216240, Note_on_c, 0, 81, 64
2, 216476, Note_on_c, 0, 81, 0
2, 216480, Note_on_c, 0, 81, 64
2, 216716, Note_on_c, 0, 81, 0
2, 216720, Note_on_c, 0, 81, 64
2, 216956, Note_on_c, 0, 81, 0
2, 216960, Note_on_c, 0, 80, 64
2, 217196, Note_on_c, 0, 80, 0
2, 217200, Note_on_c, 0, 80, 64
2, 217436, Note_on_c, 0, 80, 0
2, 217440, Note_on_c, 0, 80, 64
2, 217676, Note_on_c, 0, 80, 0
2, 217680, Note_on_c, 0, 80, 64
2, 217916, Note_on_c, 0, 80, 0
2, 217920, Note_on_c, 0, 80, 64
2, 218156, Note_on_c, 0, 80, 0
2, 218160, Note_on_c, 0, 80, 64
2, 218396, Note_on_c, 0, 80, 0
2, 218400, Note_on_c, 0, 80, 64
2, 218636, Note_on_c, 0, 80, 0
2, 218640, Note_on_c, 0, 80, 64
2, 218876, Note_on_c, 0, 80, 0
2, 218880, Note_on_c, 0, 79, 64
2, 218996, Note_on_c, 0, 79, 0
2, 219000, Note_on_c, 0, 78, 64
2, 219116, Note_on_c, 0, 78, 0
2, 219120, Note_on_c, 0, 79, 64
2, 219356, Note_on_c, 0, 79, 0
2, 219840, Note_on_c, 0, 79, 64
2, 219956, Note_on_c, 0, 79, 0
2, 219960, Note_on_c, 0, 78, 64
2, 220076, Note_on_c, 0, 78, 0
2, 220080, Note_on_c, 0, 79, 64
2, 220316, Note_on_c, 0, 79, 0
2, 220800, Note_on_c, 0, 79, 64
2, 220916, Note_on_c, 0, 79, 0
2, 220920, Note_on_c, 0, 78, 64
2, 221036, Note_on_c, 0, 78, 0
2, 221040, Note_on_c, 0, 79, 64
2, 221276, Note_on_c, 0, 79, 0
2, 221760, Note_on_c, 0, 79, 64
2, 221876, Note_on_c, 0, 79, 0
2, 221880, Note_on_c, 0, 78, 64
2, 221996, Note_on_c, 0, 78, 0
2, 222000, Note_on_c, 0, 79, 64
2, 222236, Note_on_c, 0, 79, 0
2, 222720, Note_on_c, 0, 79, 64
2, 222836, Note_on_c, 0, 79, 0
2, 222840, Note_on_c, 0, 78, 64
2, 222956, Note_on_c, 0, 78, 0
2, 222960, Note_on_c, 0, 79, 64
2, 223196, Note_on_c, 0, 79, 0
2, 223680, Note_on_c, 0, 79, 64
2, 223796, Note_on_c, 0, 79, 0
2, 223800, Note_on_c, 0, 78, 64
2, 223916, Note_on_c, 0, 78, 0
2, 223920, Note_on_c, 0, 79, 64
2, 224156, Note_on_c, 0, 79, 0
2, 224640, Note_on_c, 0, 79, 64
2, 224756, Note_on_c, 0, 79, 0
2, 224760, Note_on_c, 0, 78, 64
2, 224876, Note_on_c, 0, 78, 0
2, 224880, Note_on_c, 0, 79, 64
2, 225116, Note_on_c, 0, 79, 0
2, 225600, Note_on_c, 0, 79, 64
2, 225716, Note_on_c, 0, 79, 0
2, 225720, Note_on_c, 0, 78, 64
2, 225836, Note_on_c, 0, 78, 0
2, 225840, Note_on_c, 0, 79, 64
2, 226076, Note_on_c, 0, 79, 0
2, 226560, Note_on_c, 0, 78, 64
2, 226676, Note_on_c, 0, 78, 0
2, 226680, Note_on_c, 0, 79, 64
2, 226796, Note_on_c, 0, 79, 0
2, 226800, Note_on_c, 0, 78, 64
2, 227036, Note_on_c, 0, 78, 0
2, 227520, Note_on_c, 0, 78, 64
2, 227636, Note_on_c, 0, 78, 0
2, 227640, Note_on_c, 0, 79, 64
2, 227756, Note_on_c, 0, 79, 0
2, 227760, Note_on_c, 0, 78, 64
2, 227996, Note_on_c, 0, 78, 0
2, 228480, Note_on_c, 0, 79, 64
2, 228716, Note_on_c, 0, 79, 0
2, 228720, Note_on_c, 0, 75, 64
2, 228836, Note_on_c, 0, 75, 0
2, 228840, Note_on_c, 0, 74, 64
2, 228956, Note_on_c, 0, 74, 0
2, 228960, Note_on_c, 0, 75, 64
2, 229196, Note_on_c, 0, 75, 0
2, 230160, Note_on_c, 0, 82, 64
2, 230396, Note_on_c, 0, 82, 0
2, 230400, Note_on_c, 0, 81, 64
2, 230636, Note_on_c, 0, 81, 0
2, 230640, Note_on_c, 0, 74, 64
2, 230756, Note_on_c, 0, 74, 0
2, 230760, Note_on_c, 0, 73, 64
2, 230876, Note_on_c, 0, 73, 0
2, 230880, Note_on_c, 0, 74, 64
2, 231116, Note_on_c, 0, 74, 0
2, 232080, Note_on_c, 0, 81, 64
2, 232316, Note_on_c, 0, 81, 0
2, 232320, Note_on_c, 0, 79, 64
2, 232556, Note_on_c, 0, 79, 0
2, 232560, Note_on_c, 0, 72, 64
2, 232676, Note_on_c, 0, 72, 0
2, 232680, Note_on_c, 0, 71, 64
2, 232796, Note_on_c, 0, 71, 0
2, 232800, Note_on_c, 0, 72, 64
2, 233036, Note_on_c, 0, 72, 0
2, 234000, Note_on_c, 0, 79, 64
2, 234236, Note_on_c, 0, 79, 0
2, 234240, Note_on_c, 0, 78, 64
2, 234476, Note_on_c, 0, 78, 0
2, 234480, Note_on_c, 0, 81, 64
2, 234596, Note_on_c, 0, 81, 0
2, 234600, Note_on_c, 0, 79, 64
2, 234716, Note_on_c, 0, 79, 0
2, 234720, Note_on_c, 0, 81, 64
2, 234956, Note_on_c, 0, 81, 0
2, 235440, Note_on_c, 0, 84, 64
2, 235556, Note_on_c, 0, 84, 0
2, 235560, Note_on_c, 0, 82, 64
2, 235676, Note_on_c, 0, 82, 0
2, 235680, Note_on_c, 0, 84, 64
2, 235916, Note_on_c, 0, 84, 0
2, 236400, Note_on_c, 0, 87, 64
2, 236516, Note_on_c, 0, 87, 0
2, 236520, Note_on_c, 0, 86, 64
2, 236636, Note_on_c, 0, 86, 0
2, 236640, Note_on_c, 0, 87, 64
2, 236876, Note_on_c, 0, 87, 0
2, 237360, Note_on_c, 0, 86, 64
2, 237476, Note_on_c, 0, 86, 0
2, 237480, Note_on_c, 0, 84, 64
2, 237596, Note_on_c, 0, 84, 0
2, 237600, Note_on_c, 0, 86, 64
2, 237836, Note_on_c, 0, 86, 0
2, 238320, Note_on_c, 0, 84, 64
2, 238436, Note_on_c, 0, 84, 0
2, 238440, Note_on_c, 0, 82, 64
2, 238556, Note_on_c, 0, 82, 0
2, 238560, Note_on_c, 0, 84, 64
2, 238796, Note_on_c, 0, 84, 0
2, 239280, Note_on_c, 0, 81, 64
2, 239396, Note_on_c, 0, 81, 0
2, 239400, Note_on_c, 0, 79, 64
2, 239516, Note_on_c, 0, 79, 0
2, 239520, Note_on_c, 0, 78, 64
2, 239756, Note_on_c, 0, 78, 0
2, 239760, Note_on_c, 0, 74, 64
2, 239996, Note_on_c, 0, 74, 0
2, 240000, Note_on_c, 0, 75, 64
2, 240356, Note_on_c, 0, 75, 0
2, 240360, Note_on_c, 0, 74, 64
2, 240476, Note_on_c, 0, 74, 0
2, 240480, Note_on_c, 0, 72, 64
2, 240596, Note_on_c, 0, 72, 0
2, 240600, Note_on_c, 0, 70, 64
2, 240716, Note_on_c, 0, 70, 0
2, 240720, Note_on_c, 0, 69, 64
2, 240836, Note_on_c, 0, 69, 0
2, 240840, Note_on_c, 0, 67, 64
2, 240956, Note_on_c, 0, 67, 0
2, 240960, Note_on_c, 0, 74, 64
2, 241196, Note_on_c, 0, 74, 0
2, 241200, Note_on_c, 0, 72, 64
2, 241316, Note_on_c, 0, 72, 0
2, 241320, Note_on_c, 0, 70, 64
2, 241436, Note_on_c, 0, 70, 0
2, 241440, Note_on_c, 0, 69, 64
2, 241676, Note_on_c, 0, 69, 0
2, 241680, Note_on_c, 0, 67, 64
2, 241796, Note_on_c, 0, 67, 0
2, 241800, Note_on_c, 0, 66, 64
2, 241916, Note_on_c, 0, 66, 0
2, 241920, Note_on_c, 0, 67, 64
2, 242156, Note_on_c, 0, 67, 0
2, 242160, Note_on_c, 0, 62, 64
2, 242276, Note_on_c, 0, 62, 0
2, 242280, Note_on_c, 0, 60, 64
2, 242396, Note_on_c, 0, 60, 0
2, 242400, Note_on_c, 0, 62, 64
2, 242636, Note_on_c, 0, 62, 0
2, 242640, Note_on_c, 0, 67, 64
2, 242756, Note_on_c, 0, 67, 0
2, 242760, Note_on_c, 0, 66, 64
2, 242876, Note_on_c, 0, 66, 0
2, 242880, Note_on_c, 0, 67, 64
2, 243116, Note_on_c, 0, 67, 0
2, 243120, Note_on_c, 0, 59, 64
2, 243236, Note_on_c, 0, 59, 0
2, 243240, Note_on_c, 0, 57, 64
2, 243356, Note_on_c, 0, 57, 0
2, 243360, Note_on_c, 0, 59, 64
2, 243596, Note_on_c, 0, 59, 0
2, 243600, Note_on_c, 0, 67, 64
2, 243716, Note_on_c, 0, 67, 0
2, 243720, Note_on_c, 0, 66, 64
2, 243836, Note_on_c, 0, 66, 0
2, 243840, Note_on_c, 0, 67, 64
2, 244076, Note_on_c, 0, 67, 0
2, 244080, Note_on_c, 0, 55, 64
2, 244196, Note_on_c, 0, 55, 0
2, 244200, Note_on_c, 0, 57, 64
2, 244316, Note_on_c, 0, 57, 0
2, 244320, Note_on_c, 0, 59, 64
2, 244556, Note_on_c, 0, 59, 0
2, 244560, Note_on_c, 0, 61, 64
2, 244796, Note_on_c, 0, 61, 0
2, 244800, Note_on_c, 0, 62, 64
2, 244916, Note_on_c, 0, 62, 0
2, 244920, Note_on_c, 0, 61, 64
2, 245036, Note_on_c, 0, 61, 0
2, 245040, Note_on_c, 0, 62, 64
2, 245156, Note_on_c, 0, 62, 0
2, 245160, Note_on_c, 0, 64, 64
2, 245276, Note_on_c, 0, 64, 0
2, 245280, Note_on_c, 0, 62, 64
2, 245396, Note_on_c, 0, 62, 0
2, 245400, Note_on_c, 0, 66, 64
2, 245516, Note_on_c, 0, 66, 0
2, 245520, Note_on_c, 0, 62, 64
2, 245636, Note_on_c, 0, 62, 0
2, 245640, Note_on_c, 0, 67, 64
2, 245756, Note_on_c, 0, 67, 0
2, 245760, Note_on_c, 0, 62, 64
2, 245876, Note_on_c, 0, 62, 0
2, 245880, Note_on_c, 0, 61, 64
2, 245996, Note_on_c, 0, 61, 0
2, 246000, Note_on_c, 0, 62, 64
2, 246116, Note_on_c, 0, 62, 0
2, 246120, Note_on_c, 0, 64, 64
2, 246236, Note_on_c, 0, 64, 0
2, 246240, Note_on_c, 0, 62, 64
2, 246356, Note_on_c, 0, 62, 0
2, 246360, Note_on_c, 0, 69, 64
2, 246476, Note_on_c, 0, 69, 0
2, 246480, Note_on_c, 0, 62, 64
2, 246596, Note_on_c, 0, 62, 0
2, 246600, Note_on_c, 0, 71, 64
2, 246716, Note_on_c, 0, 71, 0
2, 246720, Note_on_c, 0, 62, 64
2, 246836, Note_on_c, 0, 62, 0
2, 246840, Note_on_c, 0, 61, 64
2, 246956, Note_on_c, 0, 61, 0
2, 246960, Note_on_c, 0, 62, 64
2, 247076, Note_on_c, 0, 62, 0
2, 247080, Note_on_c, 0, 64, 64
2, 247196, Note_on_c, 0, 64, 0
2, 247200, Note_on_c, 0, 62, 64
2, 247316, Note_on_c, 0, 62, 0
2, 247320, Note_on_c, 0, 72, 64
2, 247436, Note_on_c, 0, 72, 0
2, 247440, Note_on_c, 0, 62, 64
2, 247556, Note_on_c, 0, 62, 0
2, 247560, Note_on_c, 0, 74, 64
2, 247676, Note_on_c, 0, 74, 0
2, 247680, Note_on_c, 0, 71, 64
2, 247916, Note_on_c, 0, 71, 0
2, 247920, Note_on_c, 0, 69, 64
2, 248036, Note_on_c, 0, 69, 0
2, 248040, Note_on_c, 0, 67, 64
2, 248156, Note_on_c, 0, 67, 0
2, 248160, Note_on_c, 0, 69, 64
2, 248396, Note_on_c, 0, 69, 0
2, 248400, Note_on_c, 0, 67, 64
2, 248516, Note_on_c, 0, 67, 0
2, 248520, Note_on_c, 0, 66, 64
2, 248636, Note_on_c, 0, 66, 0
2, 248640, Note_on_c, 0, 67, 64
2, 248876, Note_on_c, 0, 67, 0
2, 248880, Note_on_c, 0, 66, 64
2, 248996, Note_on_c, 0, 66, 0
2, 249000, Note_on_c, 0, 64, 64
2, 249116, Note_on_c, 0, 64, 0
2, 249120, Note_on_c, 0, 62, 64
2, 249236, Note_on_c, 0, 62, 0
2, 249240, Note_on_c, 0, 67, 64
2, 249356, Note_on_c, 0, 67, 0
2, 249360, Note_on_c, 0, 62, 64
2, 249476, Note_on_c, 0, 62, 0
2, 249480, Note_on_c, 0, 67, 64
2, 249596, Note_on_c, 0, 67, 0
2, 249600, Note_on_c, 0, 64, 64
2, 249836, Note_on_c, 0, 64, 0
2, 249840, Note_on_c, 0, 62, 64
2, 249956, Note_on_c, 0, 62, 0
2, 249960, Note_on_c, 0, 60, 64
2, 250076, Note_on_c, 0, 60, 0
2, 250080, Note_on_c, 0, 59, 64
2, 250196, Note_on_c, 0, 59, 0
2, 250200, Note_on_c, 0, 67, 64
2, 250316, Note_on_c, 0, 67, 0
2, 250320, Note_on_c, 0, 59, 64
2, 250436, Note_on_c, 0, 59, 0
2, 250440, Note_on_c, 0, 67, 64
2, 250556, Note_on_c, 0, 67, 0
2, 250560, Note_on_c, 0, 60, 64
2, 250796, Note_on_c, 0, 60, 0
2, 250800, Note_on_c, 0, 59, 64
2, 250916, Note_on_c, 0, 59, 0
2, 250920, Note_on_c, 0, 57, 64
2, 251036, Note_on_c, 0, 57, 0
2, 251040, Note_on_c, 0, 55, 64
2, 251156, Note_on_c, 0, 55, 0
2, 251160, Note_on_c, 0, 67, 64
2, 251276, Note_on_c, 0, 67, 0
2, 251280, Note_on_c, 0, 57, 64
2, 251396, Note_on_c, 0, 57, 0
2, 251400, Note_on_c, 0, 67, 64
2, 251516, Note_on_c, 0, 67, 0
2, 251520, Note_on_c, 0, 59, 64
2, 251636, Note_on_c, 0, 59, 0
2, 251640, Note_on_c, 0, 67, 64
2, 251756, Note_on_c, 0, 67, 0
2, 251760, Note_on_c, 0, 61, 64
2, 251876, Note_on_c, 0, 61, 0
2, 251880, Note_on_c, 0, 67, 64
2, 251996, Note_on_c, 0, 67, 0
2, 252000, Note_on_c, 0, 62, 64
2, 252116, Note_on_c, 0, 62, 0
2, 252120, Note_on_c, 0, 66, 64
2, 252236, Note_on_c, 0, 66, 0
2, 252240, Note_on_c, 0, 62, 64
2, 252356, Note_on_c, 0, 62, 0
2, 252360, Note_on_c, 0, 67, 64
2, 252476, Note_on_c, 0, 67, 0
2, 252480, Note_on_c, 0, 62, 64
2, 252596, Note_on_c, 0, 62, 0
2, 252600, Note_on_c, 0, 69, 64
2, 252716, Note_on_c, 0, 69, 0
2, 252720, Note_on_c, 0, 62, 64
2, 252836, Note_on_c, 0, 62, 0
2, 252840, Note_on_c, 0, 71, 64
2, 252956, Note_on_c, 0, 71, 0
2, 252960, Note_on_c, 0, 62, 64
2, 253076, Note_on_c, 0, 62, 0
2, 253080, Note_on_c, 0, 72, 64
2, 253196, Note_on_c, 0, 72, 0
2, 253200, Note_on_c, 0, 62, 64
2, 253316, Note_on_c, 0, 62, 0
2, 253320, Note_on_c, 0, 74, 64
2, 253436, Note_on_c, 0, 74, 0
2, 253440, Note_on_c, 0, 71, 64
2, 253676, Note_on_c, 0, 71, 0
2, 253680, Note_on_c, 0, 69, 64
2, 253796, Note_on_c, 0, 69, 0
2, 253800, Note_on_c, 0, 67, 64
2, 253916, Note_on_c, 0, 67, 0
2, 253920, Note_on_c, 0, 62, 64
2, 254156, Note_on_c, 0, 62, 0
2, 254160, Note_on_c, 0, 66, 64
2, 254396, Note_on_c, 0, 66, 0
2, 254400, Note_on_c, 0, 67, 64
2, 254636, Note_on_c, 0, 67, 0
2, 256560, Note_on_c, 0, 71, 64
2, 256676, Note_on_c, 0, 71, 0
2, 256680, Note_on_c, 0, 69, 64
2, 256796, Note_on_c, 0, 69, 0
2, 256800, Note_on_c, 0, 71, 64
2, 257036, Note_on_c, 0, 71, 0
2, 257040, Note_on_c, 0, 74, 64
2, 257156, Note_on_c, 0, 74, 0
2, 257160, Note_on_c, 0, 72, 64
2, 257276, Note_on_c, 0, 72, 0
2, 257280, Note_on_c, 0, 74, 64
2, 257516, Note_on_c, 0, 74, 0
2, 257520, Note_on_c, 0, 79, 64
2, 257636, Note_on_c, 0, 79, 0
2, 257640, Note_on_c, 0, 78, 64
2, 257756, Note_on_c, 0, 78, 0
2, 257760, Note_on_c, 0, 79, 64
2, 257996, Note_on_c, 0, 79, 0
2, 258000, Note_on_c, 0, 83, 64
2, 258116, Note_on_c, 0, 83, 0
2, 258120, Note_on_c, 0, 81, 64
2, 258236, Note_on_c, 0, 81, 0
2, 258240, Note_on_c, 0, 83, 64
2, 258476, Note_on_c, 0, 83, 0
2, 258480, Note_on_c, 0, 81, 64
2, 258596, Note_on_c, 0, 81, 0
2, 258600, Note_on_c, 0, 79, 64
2, 258716, Note_on_c, 0, 79, 0
2, 258720, Note_on_c, 0, 78, 64
2, 258836, Note_on_c, 0, 78, 0
2, 258840, Note_on_c, 0, 76, 64
2, 258956, Note_on_c, 0, 76, 0
2, 258960, Note_on_c, 0, 74, 64
2, 259076, Note_on_c, 0, 74, 0
2, 259080, Note_on_c, 0, 72, 64
2, 259196, Note_on_c, 0, 72, 0
2, 259200, Note_on_c, 0, 71, 64
2, 259316, Note_on_c, 0, 71, 0
2, 259320, Note_on_c, 0, 74, 64
2, 259436, Note_on_c, 0, 74, 0
2, 259440, Note_on_c, 0, 72, 64
2, 259556, Note_on_c, 0, 72, 0
2, 259560, Note_on_c, 0, 71, 64
2, 259676, Note_on_c, 0, 71, 0
2, 259680, Note_on_c, 0, 69, 64
2, 259796, Note_on_c, 0, 69, 0
2, 259800, Note_on_c, 0, 67, 64
2, 259916, Note_on_c, 0, 67, 0
2, 259920, Note_on_c, 0, 66, 64
2, 260036, Note_on_c, 0, 66, 0
2, 260040, Note_on_c, 0, 64, 64
2, 260156, Note_on_c, 0, 64, 0
2, 260160, Note_on_c, 0, 62, 64
2, 260276, Note_on_c, 0, 62, 0
2, 260280, Note_on_c, 0, 67, 64
2, 260396, Note_on_c, 0, 67, 0
2, 260400, Note_on_c, 0, 66, 64
2, 260516, Note_on_c, 0, 66, 0
2, 260520, Note_on_c, 0, 64, 64
2, 260636, Note_on_c, 0, 64, 0
2, 260640, Note_on_c, 0, 62, 64
2, 260756, Note_on_c, 0, 62, 0
2, 260760, Note_on_c, 0, 60, 64
2, 260876, Note_on_c, 0, 60, 0
2, 260880, Note_on_c, 0, 59, 64
2, 260996, Note_on_c, 0, 59, 0
2, 261000, Note_on_c, 0, 57, 64
2, 261116, Note_on_c, 0, 57, 0
2, 261120, Note_on_c, 0, 59, 64
2, 261356, Note_on_c, 0, 59, 0
2, 261360, Note_on_c, 0, 57, 64
2, 261476, Note_on_c, 0, 57, 0
2, 261480, Note_on_c, 0, 55, 64
2, 261596, Note_on_c, 0, 55, 0
2, 261600, Note_on_c, 0, 62, 64
2, 261836, Note_on_c, 0, 62, 0
2, 261840, Note_on_c, 0, 62, 64
2, 262076, Note_on_c, 0, 62, 0
2, 262080, Note_on_c, 0, 55, 64
2, 262796, Note_on_c, 0, 55, 0
2, 263040, Note_on_c, 0, 69, 64
2, 263996, Note_on_c, 0, 69, 0
2, 264000, Note_on_c, 0, 71, 64
2, 264956, Note_on_c, 0, 71, 0
2, 264960, Note_on_c, 0, 67, 64
2, 265076, Note_on_c, 0, 67, 0
2, 265080, Note_on_c, 0, 66, 64
2, 265196, Note_on_c, 0, 66, 0
2, 265200, Note_on_c, 0, 67, 64
2, 265316, Note_on_c, 0, 67, 0
2, 265320, Note_on_c, 0, 69, 64
2, 265436, Note_on_c, 0, 69, 0
2, 265440, Note_on_c, 0, 71, 64
2, 265556, Note_on_c, 0, 71, 0
2, 265560, Note_on_c, 0, 72, 64
2, 265676, Note_on_c, 0, 72, 0
2, 265680, Note_on_c, 0, 74, 64
2, 265796, Note_on_c, 0, 74, 0
2, 265800, Note_on_c, 0, 76, 64
2, 265916, Note_on_c, 0, 76, 0
2, 265920, Note_on_c, 0, 74, 64
2, 266036, Note_on_c, 0, 74, 0
2, 266040, Note_on_c, 0, 72, 64
2, 266156, Note_on_c, 0, 72, 0
2, 266160, Note_on_c, 0, 71, 64
2, 266276, Note_on_c, 0, 71, 0
2, 266280, Note_on_c, 0, 69, 64
2, 266396, Note_on_c, 0, 69, 0
2, 266400, Note_on_c, 0, 71, 64
2, 266636, Note_on_c, 0, 71, 0
2, 266640, Note_on_c, 0, 74, 64
2, 266876, Note_on_c, 0, 74, 0
2, 266880, Note_on_c, 0, 79, 64
2, 267116, Note_on_c, 0, 79, 0
2, 267120, Note_on_c, 0, 78, 64
2, 267236, Note_on_c, 0, 78, 0
2, 267240, Note_on_c, 0, 79, 64
2, 267356, Note_on_c, 0, 79, 0
2, 267360, Note_on_c, 0, 78, 64
2, 267476, Note_on_c, 0, 78, 0
2, 267480, Note_on_c, 0, 76, 64
2, 267596, Note_on_c, 0, 76, 0
2, 267600, Note_on_c, 0, 74, 64
2, 267716, Note_on_c, 0, 74, 0
2, 267720, Note_on_c, 0, 72, 64
2, 267836, Note_on_c, 0, 72, 0
2, 267840, Note_on_c, 0, 71, 64
2, 268076, Note_on_c, 0, 71, 0
2, 268080, Note_on_c, 0, 67, 64
2, 268316, Note_on_c, 0, 67, 0
2, 268320, Note_on_c, 0, 74, 64
2, 268556, Note_on_c, 0, 74, 0
2, 268560, Note_on_c, 0, 74, 64
2, 268796, Note_on_c, 0, 74, 0
2, 268800, Note_on_c, 0, 74, 64
2, 269036, Note_on_c, 0, 74, 0
2, 269040, Note_on_c, 0, 74, 64
2, 269276, Note_on_c, 0, 74, 0
2, 269280, Note_on_c, 0, 74, 64
2, 269516, Note_on_c, 0, 74, 0
2, 269520, Note_on_c, 0, 74, 64
2, 269756, Note_on_c, 0, 74, 0
2, 269760, Note_on_c, 0, 74, 64
2, 269996, Note_on_c, 0, 74, 0
2, 270000, Note_on_c, 0, 74, 64
2, 270236, Note_on_c, 0, 74, 0
2, 270240, Note_on_c, 0, 74, 64
2, 270476, Note_on_c, 0, 74, 0
2, 270480, Note_on_c, 0, 74, 64
2, 270716, Note_on_c, 0, 74, 0
2, 270720, Note_on_c, 0, 83, 64
2, 270840, Note_on_c, 0, 83, 0
2, 270840, Note_on_c, 0, 84, 64
2, 270960, Note_on_c, 0, 84, 0
2, 270960, Note_on_c, 0, 83, 64
2, 271080, Note_on_c, 0, 83, 0
2, 271080, Note_on_c, 0, 81, 64
2, 271200, Note_on_c, 0, 81, 0
2, 271200, Note_on_c, 0, 79, 64
2, 271320, Note_on_c, 0, 79, 0
2, 271320, Note_on_c, 0, 78, 64
2, 271440, Note_on_c, 0, 78, 0
2, 271440, Note_on_c, 0, 76, 64
2, 271560, Note_on_c, 0, 76, 0
2, 271560, Note_on_c, 0, 74, 64
2, 271680, Note_on_c, 0, 74, 0
2, 271680, Note_on_c, 0, 76, 64
2, 271800, Note_on_c, 0, 76, 0
2, 271800, Note_on_c, 0, 78, 64
2, 271920, Note_on_c, 0, 78, 0
2, 271920, Note_on_c, 0, 79, 64
2, 272040, Note_on_c, 0, 79, 0
2, 272040, Note_on_c, 0, 76, 64
2, 272160, Note_on_c, 0, 76, 0
2, 272160, Note_on_c, 0, 81, 64
2, 272280, Note_on_c, 0, 81, 0
2, 272280, Note_on_c, 0, 83, 64
2, 272400, Note_on_c, 0, 83, 0
2, 272400, Note_on_c, 0, 81, 64
2, 272520, Note_on_c, 0, 81, 0
2, 272520, Note_on_c, 0, 79, 64
2, 272640, Note_on_c, 0, 79, 0
2, 272640, Note_on_c, 0, 78, 64
2, 272760, Note_on_c, 0, 78, 0
2, 272760, Note_on_c, 0, 76, 64
2, 272880, Note_on_c, 0, 76, 0
2, 272880, Note_on_c, 0, 74, 64
2, 273000, Note_on_c, 0, 74, 0
2, 273000, Note_on_c, 0, 73, 64
2, 273120, Note_on_c, 0, 73, 0
2, 273120, Note_on_c, 0, 74, 64
2, 273240, Note_on_c, 0, 74, 0
2, 273240, Note_on_c, 0, 76, 64
2, 273360, Note_on_c, 0, 76, 0
2, 273360, Note_on_c, 0, 78, 64
2, 273480, Note_on_c, 0, 78, 0
2, 273480, Note_on_c, 0, 74, 64
2, 273600, Note_on_c, 0, 74, 0
2, 273600, Note_on_c, 0, 79, 64
2, 273716, Note_on_c, 0, 79, 0
2, 273720, Note_on_c, 0, 81, 64
2, 273836, Note_on_c, 0, 81, 0
2, 273840, Note_on_c, 0, 79, 64
2, 273956, Note_on_c, 0, 79, 0
2, 273960, Note_on_c, 0, 78, 64
2, 274076, Note_on_c, 0, 78, 0
2, 274080, Note_on_c, 0, 76, 64
2, 274196, Note_on_c, 0, 76, 0
2, 274200, Note_on_c, 0, 74, 64
2, 274316, Note_on_c, 0, 74, 0
2, 274320, Note_on_c, 0, 73, 64
2, 274436, Note_on_c, 0, 73, 0
2, 274440, Note_on_c, 0, 71, 64
2, 274556, Note_on_c, 0, 71, 0
2, 274560, Note_on_c, 0, 73, 64
2, 274676, Note_on_c, 0, 73, 0
2, 274680, Note_on_c, 0, 74, 64
2, 274796, Note_on_c, 0, 74, 0
2, 274800, Note_on_c, 0, 76, 64
2, 274916, Note_on_c, 0, 76, 0
2, 274920, Note_on_c, 0, 73, 64
2, 275036, Note_on_c, 0, 73, 0
2, 275040, Note_on_c, 0, 74, 64
2, 275276, Note_on_c, 0, 74, 0
2, 275280, Note_on_c, 0, 78, 64
2, 275516, Note_on_c, 0, 78, 0
2, 275520, Note_on_c, 0, 81, 64
2, 275756, Note_on_c, 0, 81, 0
2, 275760, Note_on_c, 0, 73, 64
2, 275996, Note_on_c, 0, 73, 0
2, 276000, Note_on_c, 0, 76, 64
2, 276236, Note_on_c, 0, 76, 0
2, 276240, Note_on_c, 0, 81, 64
2, 276476, Note_on_c, 0, 81, 0
2, 276480, Note_on_c, 0, 74, 64
2, 276716, Note_on_c, 0, 74, 0
2, 276720, Note_on_c, 0, 78, 64
2, 276956, Note_on_c, 0, 78, 0
2, 276960, Note_on_c, 0, 81, 64
2, 277196, Note_on_c, 0, 81, 0
2, 277200, Note_on_c, 0, 69, 64
2, 277436, Note_on_c, 0, 69, 0
2, 277440, Note_on_c, 0, 76, 64
2, 277676, Note_on_c, 0, 76, 0
2, 277680, Note_on_c, 0, 81, 64
2, 277916, Note_on_c, 0, 81, 0
2, 277920, Note_on_c, 0, 74, 64
2, 278036, Note_on_c, 0, 74, 0
2, 278040, Note_on_c, 0, 73, 64
2, 278156, Note_on_c, 0, 73, 0
2, 278160, Note_on_c, 0, 74, 64
2, 278276, Note_on_c, 0, 74, 0
2, 278280, Note_on_c, 0, 76, 64
2, 278396, Note_on_c, 0, 76, 0
2, 278400, Note_on_c, 0, 78, 64
2, 278516, Note_on_c, 0, 78, 0
2, 278520, Note_on_c, 0, 79, 64
2, 278636, Note_on_c, 0, 79, 0
2, 278640, Note_on_c, 0, 81, 64
2, 278756, Note_on_c, 0, 81, 0
2, 278760, Note_on_c, 0, 83, 64
2, 278876, Note_on_c, 0, 83, 0
2, 278880, Note_on_c, 0, 81, 64
2, 278996, Note_on_c, 0, 81, 0
2, 279000, Note_on_c, 0, 79, 64
2, 279116, Note_on_c, 0, 79, 0
2, 279120, Note_on_c, 0, 78, 64
2, 279236, Note_on_c, 0, 78, 0
2, 279240, Note_on_c, 0, 76, 64
2, 279356, Note_on_c, 0, 76, 0
2, 279360, Note_on_c, 0, 74, 64
2, 279596, Note_on_c, 0, 74, 0
2, 279600, Note_on_c, 0, 78, 64
2, 279836, Note_on_c, 0, 78, 0
2, 279840, Note_on_c, 0, 69, 64
2, 280076, Note_on_c, 0, 69, 0
2, 280080, Note_on_c, 0, 76, 64
2, 280316, Note_on_c, 0, 76, 0
2, 280320, Note_on_c, 0, 79, 64
2, 280556, Note_on_c, 0, 79, 0
2, 280560, Note_on_c, 0, 69, 64
2, 280796, Note_on_c, 0, 69, 0
2, 280800, Note_on_c, 0, 78, 64
2, 281036, Note_on_c, 0, 78, 0
2, 281040, Note_on_c, 0, 78, 64
2, 281276, Note_on_c, 0, 78, 0
2, 281280, Note_on_c, 0, 78, 64
2, 281516, Note_on_c, 0, 78, 0
2, 281520, Note_on_c, 0, 78, 64
2, 281756, Note_on_c, 0, 78, 0
2, 281760, Note_on_c, 0, 78, 64
2, 281996, Note_on_c, 0, 78, 0
2, 282000, Note_on_c, 0, 78, 64
2, 282236, Note_on_c, 0, 78, 0
2, 282240, Note_on_c, 0, 76, 64
2, 282476, Note_on_c, 0, 76, 0
2, 282480, Note_on_c, 0, 76, 64
2, 282716, Note_on_c, 0, 76, 0
2, 282720, Note_on_c, 0, 76, 64
2, 282956, Note_on_c, 0, 76, 0
2, 282960, Note_on_c, 0, 76, 64
2, 283196, Note_on_c, 0, 76, 0
2, 283200, Note_on_c, 0, 76, 64
2, 283436, Note_on_c, 0, 76, 0
2, 283440, Note_on_c, 0, 76, 64
2, 283676, Note_on_c, 0, 76, 0
2, 283680, Note_on_c, 0, 74, 64
2, 283916, Note_on_c, 0, 74, 0
2, 283920, Note_on_c, 0, 74, 64
2, 284156, Note_on_c, 0, 74, 0
2, 284160, Note_on_c, 0, 74, 64
2, 284396, Note_on_c, 0, 74, 0
2, 284400, Note_on_c, 0, 74, 64
2, 284636, Note_on_c, 0, 74, 0
2, 284640, Note_on_c, 0, 74, 64
2, 284876, Note_on_c, 0, 74, 0
2, 284880, Note_on_c, 0, 74, 64
2, 285116, Note_on_c, 0, 74, 0
2, 285120, Note_on_c, 0, 73, 64
2, 285236, Note_on_c, 0, 73, 0
2, 285240, Note_on_c, 0, 76, 64
2, 285356, Note_on_c, 0, 76, 0
2, 285360, Note_on_c, 0, 69, 64
2, 285476, Note_on_c, 0, 69, 0
2, 285480, Note_on_c, 0, 76, 64
2, 285596, Note_on_c, 0, 76, 0
2, 285600, Note_on_c, 0, 73, 64
2, 285716, Note_on_c, 0, 73, 0
2, 285720, Note_on_c, 0, 76, 64
2, 285836, Note_on_c, 0, 76, 0
2, 285840, Note_on_c, 0, 74, 64
2, 285956, Note_on_c, 0, 74, 0
2, 285960, Note_on_c, 0, 78, 64
2, 286076, Note_on_c, 0, 78, 0
2, 286080, Note_on_c, 0, 69, 64
2, 286196, Note_on_c, 0, 69, 0
2, 286200, Note_on_c, 0, 78, 64
2, 286316, Note_on_c, 0, 78, 0
2, 286320, Note_on_c, 0, 74, 64
2, 286436, Note_on_c, 0, 74, 0
2, 286440, Note_on_c, 0, 78, 64
2, 286556, Note_on_c, 0, 78, 0
2, 286560, Note_on_c, 0, 76, 64
2, 286676, Note_on_c, 0, 76, 0
2, 286680, Note_on_c, 0, 79, 64
2, 286796, Note_on_c, 0, 79, 0
2, 286800, Note_on_c, 0, 69, 64
2, 286916, Note_on_c, 0, 69, 0
2, 286920, Note_on_c, 0, 79, 64
2, 287036, Note_on_c, 0, 79, 0
2, 287040, Note_on_c, 0, 76, 64
2, 287156, Note_on_c, 0, 76, 0
2, 287160, Note_on_c, 0, 79, 64
2, 287276, Note_on_c, 0, 79, 0
2, 287280, Note_on_c, 0, 78, 64
2, 287396, Note_on_c, 0, 78, 0
2, 287400, Note_on_c, 0, 81, 64
2, 287516, Note_on_c, 0, 81, 0
2, 287520, Note_on_c, 0, 69, 64
2, 287636, Note_on_c, 0, 69, 0
2, 287640, Note_on_c, 0, 81, 64
2, 287756, Note_on_c, 0, 81, 0
2, 287760, Note_on_c, 0, 78, 64
2, 287876, Note_on_c, 0, 78, 0
2, 287880, Note_on_c, 0, 81, 64
2, 287996, Note_on_c, 0, 81, 0
2, 288000, Note_on_c, 0, 79, 64
2, 288116, Note_on_c, 0, 79, 0
2, 288120, Note_on_c, 0, 73, 64
2, 288236, Note_on_c, 0, 73, 0
2, 288240, Note_on_c, 0, 79, 64
2, 288356, Note_on_c, 0, 79, 0
2, 288360, Note_on_c, 0, 73, 64
2, 288476, Note_on_c, 0, 73, 0
2, 288480, Note_on_c, 0, 79, 64
2, 288596, Note_on_c, 0, 79, 0
2, 288600, Note_on_c, 0, 73, 64
2, 288716, Note_on_c, 0, 73, 0
2, 288720, Note_on_c, 0, 78, 64
2, 288836, Note_on_c, 0, 78, 0
2, 288840, Note_on_c, 0, 74, 64
2, 288956, Note_on_c, 0, 74, 0
2, 288960, Note_on_c, 0, 78, 64
2, 289076, Note_on_c, 0, 78, 0
2, 289080, Note_on_c, 0, 74, 64
2, 289196, Note_on_c, 0, 74, 0
2, 289200, Note_on_c, 0, 78, 64
2, 289316, Note_on_c, 0, 78, 0
2, 289320, Note_on_c, 0, 74, 64
2, 289436, Note_on_c, 0, 74, 0
2, 289440, Note_on_c, 0, 76, 64
2, 289556, Note_on_c, 0, 76, 0
2, 289560, Note_on_c, 0, 69, 64
2, 289676, Note_on_c, 0, 69, 0
2, 289680, Note_on_c, 0, 76, 64
2, 289796, Note_on_c, 0, 76, 0
2, 289800, Note_on_c, 0, 69, 64
2, 289916, Note_on_c, 0, 69, 0
2, 289920, Note_on_c, 0, 76, 64
2, 290036, Note_on_c, 0, 76, 0
2, 290040, Note_on_c, 0, 69, 64
2, 290156, Note_on_c, 0, 69, 0
2, 290160, Note_on_c, 0, 74, 64
2, 290276, Note_on_c, 0, 74, 0
2, 290280, Note_on_c, 0, 69, 64
2, 290396, Note_on_c, 0, 69, 0
2, 290400, Note_on_c, 0, 74, 64
2, 290516, Note_on_c, 0, 74, 0
2, 290520, Note_on_c, 0, 69, 64
2, 290636, Note_on_c, 0, 69, 0
2, 290640, Note_on_c, 0, 74, 64
2, 290756, Note_on_c, 0, 74, 0
2, 290760, Note_on_c, 0, 69, 64
2, 290876, Note_on_c, 0, 69, 0
2, 290880, Note_on_c, 0, 73, 64
2, 291116, Note_on_c, 0, 73, 0
2, 291120, Note_on_c, 0, 69, 64
2, 291356, Note_on_c, 0, 69, 0
2, 291360, Note_on_c, 0, 69, 64
2, 291596, Note_on_c, 0, 69, 0
2, 291600, Note_on_c, 0, 69, 64
2, 291836, Note_on_c, 0, 69, 0
2, 291840, Note_on_c, 0, 69, 64
2, 292076, Note_on_c, 0, 69, 0
2, 292080, Note_on_c, 0, 69, 64
2, 292316, Note_on_c, 0, 69, 0
2, 292320, Note_on_c, 0, 81, 64
2, 292436, Note_on_c, 0, 81, 0
2, 292440, Note_on_c, 0, 84, 64
2, 292556, Note_on_c, 0, 84, 0
2, 292560, Note_on_c, 0, 74, 64
2, 292676, Note_on_c, 0, 74, 0
2, 292680, Note_on_c, 0, 84, 64
2, 292796, Note_on_c, 0, 84, 0
2, 292800, Note_on_c, 0, 81, 64
2, 292916, Note_on_c, 0, 81, 0
2, 292920, Note_on_c, 0, 84, 64
2, 293036, Note_on_c, 0, 84, 0
2, 293040, Note_on_c, 0, 81, 64
2, 293156, Note_on_c, 0, 81, 0
2, 293160, Note_on_c, 0, 84, 64
2, 293276, Note_on_c, 0, 84, 0
2, 293280, Note_on_c, 0, 74, 64
2, 293396, Note_on_c, 0, 74, 0
2, 293400, Note_on_c, 0, 84, 64
2, 293516, Note_on_c, 0, 84, 0
2, 293520, Note_on_c, 0, 81, 64
2, 293636, Note_on_c, 0, 81, 0
2, 293640, Note_on_c, 0, 84, 64
2, 293756, Note_on_c, 0, 84, 0
2, 293760, Note_on_c, 0, 83, 64
2, 293876, Note_on_c, 0, 83, 0
2, 293880, Note_on_c, 0, 84, 64
2, 293996, Note_on_c, 0, 84, 0
2, 294000, Note_on_c, 0, 86, 64
2, 294116, Note_on_c, 0, 86, 0
2, 294120, Note_on_c, 0, 84, 64
2, 294236, Note_on_c, 0, 84, 0
2, 294240, Note_on_c, 0, 83, 64
2, 294356, Note_on_c, 0, 83, 0
2, 294360, Note_on_c, 0, 81, 64
2, 294476, Note_on_c, 0, 81, 0
2, 294480, Note_on_c, 0, 79, 64
2, 294596, Note_on_c, 0, 79, 0
2, 294600, Note_on_c, 0, 81, 64
2, 294716, Note_on_c, 0, 81, 0
2, 294720, Note_on_c, 0, 83, 64
2, 294836, Note_on_c, 0, 83, 0
2, 294840, Note_on_c, 0, 81, 64
2, 294956, Note_on_c, 0, 81, 0
2, 294960, Note_on_c, 0, 79, 64
2, 295076, Note_on_c, 0, 79, 0
2, 295080, Note_on_c, 0, 78, 64
2, 295196, Note_on_c, 0, 78, 0
2, 295200, Note_on_c, 0, 76, 64
2, 295316, Note_on_c, 0, 76, 0
2, 295320, Note_on_c, 0, 78, 64
2, 295436, Note_on_c, 0, 78, 0
2, 295440, Note_on_c, 0, 79, 64
2, 295556, Note_on_c, 0, 79, 0
2, 295560, Note_on_c, 0, 78, 64
2, 295676, Note_on_c, 0, 78, 0
2, 295680, Note_on_c, 0, 76, 64
2, 295796, Note_on_c, 0, 76, 0
2, 295800, Note_on_c, 0, 74, 64
2, 295916, Note_on_c, 0, 74, 0
2, 295920, Note_on_c, 0, 73, 64
2, 296036, Note_on_c, 0, 73, 0
2, 296040, Note_on_c, 0, 74, 64
2, 296156, Note_on_c, 0, 74, 0
2, 296160, Note_on_c, 0, 76, 64
2, 296276, Note_on_c, 0, 76, 0
2, 296280, Note_on_c, 0, 74, 64
2, 296396, Note_on_c, 0, 74, 0
2, 296400, Note_on_c, 0, 73, 64
2, 296516, Note_on_c, 0, 73, 0
2, 296520, Note_on_c, 0, 71, 64
2, 296636, Note_on_c, 0, 71, 0
2, 296640, Note_on_c, 0, 69, 64
2, 296756, Note_on_c, 0, 69, 0
2, 296760, Note_on_c, 0, 71, 64
2, 296876, Note_on_c, 0, 71, 0
2, 296880, Note_on_c, 0, 69, 64
2, 296996, Note_on_c, 0, 69, 0
2, 297000, Note_on_c, 0, 67, 64
2, 297116, Note_on_c, 0, 67, 0
2, 297120, Note_on_c, 0, 66, 64
2, 297236, Note_on_c, 0, 66, 0
2, 297240, Note_on_c, 0, 67, 64
2, 297356, Note_on_c, 0, 67, 0
2, 297360, Note_on_c, 0, 64, 64
2, 297476, Note_on_c, 0, 64, 0
2, 297480, Note_on_c, 0, 66, 64
2, 297596, Note_on_c, 0, 66, 0
2, 297600, Note_on_c, 0, 67, 64
2, 297716, Note_on_c, 0, 67, 0
2, 297720, Note_on_c, 0, 69, 64
2, 297836, Note_on_c, 0, 69, 0
2, 297840, Note_on_c, 0, 71, 64
2, 297956, Note_on_c, 0, 71, 0
2, 297960, Note_on_c, 0, 73, 64
2, 298076, Note_on_c, 0, 73, 0
2, 298080, Note_on_c, 0, 74, 64
2, 298196, Note_on_c, 0, 74, 0
2, 298200, Note_on_c, 0, 71, 64
2, 298316, Note_on_c, 0, 71, 0
2, 298320, Note_on_c, 0, 69, 64
2, 298436, Note_on_c, 0, 69, 0
2, 298440, Note_on_c, 0, 67, 64
2, 298556, Note_on_c, 0, 67, 0
2, 298560, Note_on_c, 0, 66, 64
2, 298676, Note_on_c, 0, 66, 0
2, 298680, Note_on_c, 0, 64, 64
2, 298796, Note_on_c, 0, 64, 0
2, 298800, Note_on_c, 0, 62, 64
2, 299516, Note_on_c, 0, 62, 0
2, 299520, Note_on_c, 0, 67, 64
2, 299636, Note_on_c, 0, 67, 0
2, 299640, Note_on_c, 0, 66, 64
2, 299756, Note_on_c, 0, 66, 0
2, 299760, Note_on_c, 0, 67, 64
2, 299876, Note_on_c, 0, 67, 0
2, 299880, Note_on_c, 0, 69, 64
2, 299996, Note_on_c, 0, 69, 0
2, 300000, Note_on_c, 0, 71, 64
2, 300116, Note_on_c, 0, 71, 0
2, 300120, Note_on_c, 0, 72, 64
2, 300236, Note_on_c, 0, 72, 0
2, 300240, Note_on_c, 0, 74, 64
2, 300356, Note_on_c, 0, 74, 0
2, 300360, Note_on_c, 0, 76, 64
2, 300476, Note_on_c, 0, 76, 0
2, 300480, Note_on_c, 0, 74, 64
2, 300596, Note_on_c, 0, 74, 0
2, 300600, Note_on_c, 0, 72, 64
2, 300716, Note_on_c, 0, 72, 0
2, 300720, Note_on_c, 0, 71, 64
2, 300836, Note_on_c, 0, 71, 0
2, 300840, Note_on_c, 0, 69, 64
2, 300956, Note_on_c, 0, 69, 0
2, 300960, Note_on_c, 0, 71, 64
2, 301196, Note_on_c, 0, 71, 0
2, 301200, Note_on_c, 0, 74, 64
2, 301436, Note_on_c, 0, 74, 0
2, 301440, Note_on_c, 0, 79, 64
2, 301676, Note_on_c, 0, 79, 0
2, 301680, Note_on_c, 0, 78, 64
2, 301796, Note_on_c, 0, 78, 0
2, 301800, Note_on_c, 0, 79, 64
2, 301916, Note_on_c, 0, 79, 0
2, 301920, Note_on_c, 0, 78, 64
2, 302036, Note_on_c, 0, 78, 0
2, 302040, Note_on_c, 0, 76, 64
2, 302156, Note_on_c, 0, 76, 0
2, 302160, Note_on_c, 0, 74, 64
2, 302276, Note_on_c, 0, 74, 0
2, 302280, Note_on_c, 0, 72, 64
2, 302396, Note_on_c, 0, 72, 0
2, 302400, Note_on_c, 0, 71, 64
2, 302636, Note_on_c, 0, 71, 0
2, 302640, Note_on_c, 0, 67, 64
2, 302876, Note_on_c, 0, 67, 0
2, 302880, Note_on_c, 0, 74, 64
2, 303116, Note_on_c, 0, 74, 0
2, 303120, Note_on_c, 0, 74, 64
2, 303356, Note_on_c, 0, 74, 0
2, 303360, Note_on_c, 0, 74, 64
2, 303596, Note_on_c, 0, 74, 0
2, 303600, Note_on_c, 0, 74, 64
2, 303836, Note_on_c, 0, 74, 0
2, 303840, Note_on_c, 0, 74, 64
2, 304076, Note_on_c, 0, 74, 0
2, 304080, Note_on_c, 0, 74, 64
2, 304316, Note_on_c, 0, 74, 0
2, 304320, Note_on_c, 0, 74, 64
2, 304556, Note_on_c, 0, 74, 0
2, 304560, Note_on_c, 0, 74, 64
2, 304796, Note_on_c, 0, 74, 0
2, 304800, Note_on_c, 0, 74, 64
2, 305036, Note_on_c, 0, 74, 0
2, 305040, Note_on_c, 0, 74, 64
2, 305276, Note_on_c, 0, 74, 0
2, 305280, Note_on_c, 0, 83, 64
2, 305400, Note_on_c, 0, 83, 0
2, 305400, Note_on_c, 0, 84, 64
2, 305520, Note_on_c, 0, 84, 0
2, 305520, Note_on_c, 0, 83, 64
2, 305640, Note_on_c, 0, 83, 0
2, 305640, Note_on_c, 0, 81, 64
2, 305760, Note_on_c, 0, 81, 0
2, 305760, Note_on_c, 0, 79, 64
2, 305880, Note_on_c, 0, 79, 0
2, 305880, Note_on_c, 0, 78, 64
2, 306000, Note_on_c, 0, 78, 0
2, 306000, Note_on_c, 0, 76, 64
2, 306120, Note_on_c, 0, 76, 0
2, 306120, Note_on_c, 0, 74, 64
2, 306240, Note_on_c, 0, 74, 0
2, 306240, Note_on_c, 0, 76, 64
2, 306360, Note_on_c, 0, 76, 0
2, 306360, Note_on_c, 0, 78, 64
2, 306480, Note_on_c, 0, 78, 0
2, 306480, Note_on_c, 0, 79, 64
2, 306600, Note_on_c, 0, 79, 0
2, 306600, Note_on_c, 0, 76, 64
2, 306720, Note_on_c, 0, 76, 0
2, 306720, Note_on_c, 0, 81, 64
2, 306840, Note_on_c, 0, 81, 0
2, 306840, Note_on_c, 0, 83, 64
2, 306960, Note_on_c, 0, 83, 0
2, 306960, Note_on_c, 0, 81, 64
2, 307080, Note_on_c, 0, 81, 0
2, 307080, Note_on_c, 0, 79, 64
2, 307200, Note_on_c, 0, 79, 0
2, 307200, Note_on_c, 0, 78, 64
2, 307320, Note_on_c, 0, 78, 0
2, 307320, Note_on_c, 0, 76, 64
2, 307440, Note_on_c, 0, 76, 0
2, 307440, Note_on_c, 0, 74, 64
2, 307560, Note_on_c, 0, 74, 0
2, 307560, Note_on_c, 0, 73, 64
2, 307680, Note_on_c, 0, 73, 0
2, 307680, Note_on_c, 0, 74, 64
2, 307800, Note_on_c, 0, 74, 0
2, 307800, Note_on_c, 0, 76, 64
2, 307920, Note_on_c, 0, 76, 0
2, 307920, Note_on_c, 0, 78, 64
2, 308040, Note_on_c, 0, 78, 0
2, 308040, Note_on_c, 0, 74, 64
2, 308160, Note_on_c, 0, 74, 0
2, 308160, Note_on_c, 0, 79, 64
2, 308276, Note_on_c, 0, 79, 0
2, 308280, Note_on_c, 0, 81, 64
2, 308396, Note_on_c, 0, 81, 0
2, 308400, Note_on_c, 0, 79, 64
2, 308516, Note_on_c, 0, 79, 0
2, 308520, Note_on_c, 0, 78, 64
2, 308636, Note_on_c, 0, 78, 0
2, 308640, Note_on_c, 0, 76, 64
2, 308756, Note_on_c, 0, 76, 0
2, 308760, Note_on_c, 0, 74, 64
2, 308876, Note_on_c, 0, 74, 0
2, 308880, Note_on_c, 0, 73, 64
2, 308996, Note_on_c, 0, 73, 0
2, 309000, Note_on_c, 0, 71, 64
2, 309116, Note_on_c, 0, 71, 0
2, 309120, Note_on_c, 0, 73, 64
2, 309236, Note_on_c, 0, 73, 0
2, 309240, Note_on_c, 0, 74, 64
2, 309356, Note_on_c, 0, 74, 0
2, 309360, Note_on_c, 0, 76, 64
2, 309476, Note_on_c, 0, 76, 0
2, 309480, Note_on_c, 0, 73, 64
2, 309596, Note_on_c, 0, 73, 0
2, 309600, Note_on_c, 0, 74, 64
2, 309836, Note_on_c, 0, 74, 0
2, 309840, Note_on_c, 0, 78, 64
2, 310076, Note_on_c, 0, 78, 0
2, 310080, Note_on_c, 0, 81, 64
2, 310316, Note_on_c, 0, 81, 0
2, 310320, Note_on_c, 0, 73, 64
2, 310556, Note_on_c, 0, 73, 0
2, 310560, Note_on_c, 0, 76, 64
2, 310796, Note_on_c, 0, 76, 0
2, 310800, Note_on_c, 0, 81, 64
2, 311036, Note_on_c, 0, 81, 0
2, 311040, Note_on_c, 0, 74, 64
2, 311276, Note_on_c, 0, 74, 0
2, 311280, Note_on_c, 0, 78, 64
2, 311516, Note_on_c, 0, 78, 0
2, 311520, Note_on_c, 0, 81, 64
2, 311756, Note_on_c, 0, 81, 0
2, 311760, Note_on_c, 0, 69, 64
2, 311996, Note_on_c, 0, 69, 0
2, 312000, Note_on_c, 0, 76, 64
2, 312236, Note_on_c, 0, 76, 0
2, 312240, Note_on_c, 0, 81, 64
2, 312476, Note_on_c, 0, 81, 0
2, 312480, Note_on_c, 0, 74, 64
2, 312596, Note_on_c, 0, 74, 0
2, 312600, Note_on_c, 0, 73, 64
2, 312716, Note_on_c, 0, 73, 0
2, 312720, Note_on_c, 0, 74, 64
2, 312836, Note_on_c, 0, 74, 0
2, 312840, Note_on_c, 0, 76, 64
2, 312956, Note_on_c, 0, 76, 0
2, 312960, Note_on_c, 0, 78, 64
2, 313076, Note_on_c, 0, 78, 0
2, 313080, Note_on_c, 0, 79, 64
2, 313196, Note_on_c, 0, 79, 0
2, 313200, Note_on_c, 0, 81, 64
2, 313316, Note_on_c, 0, 81, 0
2, 313320, Note_on_c, 0, 83, 64
2, 313436, Note_on_c, 0, 83, 0
2, 313440, Note_on_c, 0, 81, 64
2, 313556, Note_on_c, 0, 81, 0
2, 313560, Note_on_c, 0, 79, 64
2, 313676, Note_on_c, 0, 79, 0
2, 313680, Note_on_c, 0, 78, 64
2, 313796, Note_on_c, 0, 78, 0
2, 313800, Note_on_c, 0, 76, 64
2, 313916, Note_on_c, 0, 76, 0
2, 313920, Note_on_c, 0, 74, 64
2, 314156, Note_on_c, 0, 74, 0
2, 314160, Note_on_c, 0, 78, 64
2, 314396, Note_on_c, 0, 78, 0
2, 314400, Note_on_c, 0, 69, 64
2, 314636, Note_on_c, 0, 69, 0
2, 314640, Note_on_c, 0, 76, 64
2, 314876, Note_on_c, 0, 76, 0
2, 314880, Note_on_c, 0, 79, 64
2, 315116, Note_on_c, 0, 79, 0
2, 315120, Note_on_c, 0, 69, 64
2, 315356, Note_on_c, 0, 69, 0
2, 315360, Note_on_c, 0, 78, 64
2, 315596, Note_on_c, 0, 78, 0
2, 315600, Note_on_c, 0, 78, 64
2, 315836, Note_on_c, 0, 78, 0
2, 315840, Note_on_c, 0, 78, 64
2, 316076, Note_on_c, 0, 78, 0
2, 316080, Note_on_c, 0, 78, 64
2, 316316, Note_on_c, 0, 78, 0
2, 316320, Note_on_c, 0, 78, 64
2, 316556, Note_on_c, 0, 78, 0
2, 316560, Note_on_c, 0, 78, 64
2, 316796, Note_on_c, 0, 78, 0
2, 316800, Note_on_c, 0, 76, 64
2, 317036, Note_on_c, 0, 76, 0
2, 317040, Note_on_c, 0, 76, 64
2, 317276, Note_on_c, 0, 76, 0
2, 317280, Note_on_c, 0, 76, 64
2, 317516, Note_on_c, 0, 76, 0
2, 317520, Note_on_c, 0, 76, 64
2, 317756, Note_on_c, 0, 76, 0
2, 317760, Note_on_c, 0, 76, 64
2, 317996, Note_on_c, 0, 76, 0
2, 318000, Note_on_c, 0, 76, 64
2, 318236, Note_on_c, 0, 76, 0
2, 318240, Note_on_c, 0, 74, 64
2, 318476, Note_on_c, 0, 74, 0
2, 318480, Note_on_c, 0, 74, 64
2, 318716, Note_on_c, 0, 74, 0
2, 318720, Note_on_c, 0, 74, 64
2, 318956, Note_on_c, 0, 74, 0
2, 318960, Note_on_c, 0, 74, 64
2, 319196, Note_on_c, 0, 74, 0
2, 319200, Note_on_c, 0, 74, 64
2, 319436, Note_on_c, 0, 74, 0
2, 319440, Note_on_c, 0, 74, 64
2, 319676, Note_on_c, 0, 74, 0
2, 319680, Note_on_c, 0, 73, 64
2, 319796, Note_on_c, 0, 73, 0
2, 319800, Note_on_c, 0, 76, 64
2, 319916, Note_on_c, 0, 76, 0
2, 319920, Note_on_c, 0, 69, 64
2, 320036, Note_on_c, 0, 69, 0
2, 320040, Note_on_c, 0, 76, 64
2, 320156, Note_on_c, 0, 76, 0
2, 320160, Note_on_c, 0, 73, 64
2, 320276, Note_on_c, 0, 73, 0
2, 320280, Note_on_c, 0, 76, 64
2, 320396, Note_on_c, 0, 76, 0
2, 320400, Note_on_c, 0, 74, 64
2, 320516, Note_on_c, 0, 74, 0
2, 320520, Note_on_c, 0, 78, 64
2, 320636, Note_on_c, 0, 78, 0
2, 320640, Note_on_c, 0, 69, 64
2, 320756, Note_on_c, 0, 69, 0
2, 320760, Note_on_c, 0, 78, 64
2, 320876, Note_on_c, 0, 78, 0
2, 320880, Note_on_c, 0, 74, 64
2, 320996, Note_on_c, 0, 74, 0
2, 321000, Note_on_c, 0, 78, 64
2, 321116, Note_on_c, 0, 78, 0
2, 321120, Note_on_c, 0, 76, 64
2, 321236, Note_on_c, 0, 76, 0
2, 321240, Note_on_c, 0, 79, 64
2, 321356, Note_on_c, 0, 79, 0
2, 321360, Note_on_c, 0, 69, 64
2, 321476, Note_on_c, 0, 69, 0
2, 321480, Note_on_c, 0, 79, 64
2, 321596, Note_on_c, 0, 79, 0
2, 321600, Note_on_c, 0, 76, 64
2, 321716, Note_on_c, 0, 76, 0
2, 321720, Note_on_c, 0, 79, 64
2, 321836, Note_on_c, 0, 79, 0
2, 321840, Note_on_c, 0, 78, 64
2, 321956, Note_on_c, 0, 78, 0
2, 321960, Note_on_c, 0, 81, 64
2, 322076, Note_on_c, 0, 81, 0
2, 322080, Note_on_c, 0, 69, 64
2, 322196, Note_on_c, 0, 69, 0
2, 322200, Note_on_c, 0, 81, 64
2, 322316, Note_on_c, 0, 81, 0
2, 322320, Note_on_c, 0, 78, 64
2, 322436, Note_on_c, 0, 78, 0
2, 322440, Note_on_c, 0, 81, 64
2, 322556, Note_on_c, 0, 81, 0
2, 322560, Note_on_c, 0, 79, 64
2, 322676, Note_on_c, 0, 79, 0
2, 322680, Note_on_c, 0, 73, 64
2, 322796, Note_on_c, 0, 73, 0
2, 322800, Note_on_c, 0, 79, 64
2, 322916, Note_on_c, 0, 79, 0
2, 322920, Note_on_c, 0, 73, 64
2, 323036, Note_on_c, 0, 73, 0
2, 323040, Note_on_c, 0, 79, 64
2, 323156, Note_on_c, 0, 79, 0
2, 323160, Note_on_c, 0, 73, 64
2, 323276, Note_on_c, 0, 73, 0
2, 323280, Note_on_c, 0, 78, 64
2, 323396, Note_on_c, 0, 78, 0
2, 323400, Note_on_c, 0, 74, 64
2, 323516, Note_on_c, 0, 74, 0
2, 323520, Note_on_c, 0, 78, 64
2, 323636, Note_on_c, 0, 78, 0
2, 323640, Note_on_c, 0, 74, 64
2, 323756, Note_on_c, 0, 74, 0
2, 323760, Note_on_c, 0, 78, 64
2, 323876, Note_on_c, 0, 78, 0
2, 323880, Note_on_c, 0, 74, 64
2, 323996, Note_on_c, 0, 74, 0
2, 324000, Note_on_c, 0, 76, 64
2, 324116, Note_on_c, 0, 76, 0
2, 324120, Note_on_c, 0, 69, 64
2, 324236, Note_on_c, 0, 69, 0
2, 324240, Note_on_c, 0, 76, 64
2, 324356, Note_on_c, 0, 76, 0
2, 324360, Note_on_c, 0, 69, 64
2, 324476, Note_on_c, 0, 69, 0
2, 324480, Note_on_c, 0, 76, 64
2, 324596, Note_on_c, 0, 76, 0
2, 324600, Note_on_c, 0, 69, 64
2, 324716, Note_on_c, 0, 69, 0
2, 324720, Note_on_c, 0, 74, 64
2, 324836, Note_on_c, 0, 74, 0
2, 324840, Note_on_c, 0, 69, 64
2, 324956, Note_on_c, 0, 69, 0
2, 324960, Note_on_c, 0, 74, 64
2, 325076, Note_on_c, 0, 74, 0
2, 325080, Note_on_c, 0, 69, 64
2, 325196, Note_on_c, 0, 69, 0
2, 325200, Note_on_c, 0, 74, 64
2, 325316, Note_on_c, 0, 74, 0
2, 325320, Note_on_c, 0, 69, 64
2, 325436, Note_on_c, 0, 69, 0
2, 325440, Note_on_c, 0, 73, 64
2, 325676, Note_on_c, 0, 73, 0
2, 325680, Note_on_c, 0, 69, 64
2, 325916, Note_on_c, 0, 69, 0
2, 325920, Note_on_c, 0, 69, 64
2, 326156, Note_on_c, 0, 69, 0
2, 326160, Note_on_c, 0, 69, 64
2, 326396, Note_on_c, 0, 69, 0
2, 326400, Note_on_c, 0, 69, 64
2, 326636, Note_on_c, 0, 69, 0
2, 326640, Note_on_c, 0, 69, 64
2, 326876, Note_on_c, 0, 69, 0
2, 326880, Note_on_c, 0, 81, 64
2, 326996, Note_on_c, 0, 81, 0
2, 327000, Note_on_c, 0, 84, 64
2, 327116, Note_on_c, 0, 84, 0
2, 327120, Note_on_c, 0, 74, 64
2, 327236, Note_on_c, 0, 74, 0
2, 327240, Note_on_c, 0, 84, 64
2, 327356, Note_on_c, 0, 84, 0
2, 327360, Note_on_c, 0, 81, 64
2, 327476, Note_on_c, 0, 81, 0
2, 327480, Note_on_c, 0, 84, 64
2, 327596, Note_on_c, 0, 84, 0
2, 327600, Note_on_c, 0, 81, 64
2, 327716, Note_on_c, 0, 81, 0
2, 327720, Note_on_c, 0, 84, 64
2, 327836, Note_on_c, 0, 84, 0
2, 327840, Note_on_c, 0, 74, 64
2, 327956, Note_on_c, 0, 74, 0
2, 327960, Note_on_c, 0, 84, 64
2, 328076, Note_on_c, 0, 84, 0
2, 328080, Note_on_c, 0, 81, 64
2, 328196, Note_on_c, 0, 81, 0
2, 328200, Note_on_c, 0, 84, 64
2, 328316, Note_on_c, 0, 84, 0
2, 328320, Note_on_c, 0, 83, 64
2, 328436, Note_on_c, 0, 83, 0
2, 328440, Note_on_c, 0, 84, 64
2, 328556, Note_on_c, 0, 84, 0
2, 328560, Note_on_c, 0, 86, 64
2, 328676, Note_on_c, 0, 86, 0
2, 328680, Note_on_c, 0, 84, 64
2, 328796, Note_on_c, 0, 84, 0
2, 328800, Note_on_c, 0, 83, 64
2, 328916, Note_on_c, 0, 83, 0
2, 328920, Note_on_c, 0, 81, 64
2, 329036, Note_on_c, 0, 81, 0
2, 329040, Note_on_c, 0, 79, 64
2, 329156, Note_on_c, 0, 79, 0
2, 329160, Note_on_c, 0, 81, 64
2, 329276, Note_on_c, 0, 81, 0
2, 329280, Note_on_c, 0, 83, 64
2, 329396, Note_on_c, 0, 83, 0
2, 329400, Note_on_c, 0, 81, 64
2, 329516, Note_on_c, 0, 81, 0
2, 329520, Note_on_c, 0, 79, 64
2, 329636, Note_on_c, 0, 79, 0
2, 329640, Note_on_c, 0, 78, 64
2, 329756, Note_on_c, 0, 78, 0
2, 329760, Note_on_c, 0, 76, 64
2, 329876, Note_on_c, 0, 76, 0
2, 329880, Note_on_c, 0, 78, 64
2, 329996, Note_on_c, 0, 78, 0
2, 330000, Note_on_c, 0, 79, 64
2, 330116, Note_on_c, 0, 79, 0
2, 330120, Note_on_c, 0, 78, 64
2, 330236, Note_on_c, 0, 78, 0
2, 330240, Note_on_c, 0, 76, 64
2, 330356, Note_on_c, 0, 76, 0
2, 330360, Note_on_c, 0, 74, 64
2, 330476, Note_on_c, 0, 74, 0
2, 330480, Note_on_c, 0, 73, 64
2, 330596, Note_on_c, 0, 73, 0
2, 330600, Note_on_c, 0, 74, 64
2, 330716, Note_on_c, 0, 74, 0
2, 330720, Note_on_c, 0, 76, 64
2, 330836, Note_on_c, 0, 76, 0
2, 330840, Note_on_c, 0, 74, 64
2, 330956, Note_on_c, 0, 74, 0
2, 330960, Note_on_c, 0, 73, 64
2, 331076, Note_on_c, 0, 73, 0
2, 331080, Note_on_c, 0, 71, 64
2, 331196, Note_on_c, 0, 71, 0
2, 331200, Note_on_c, 0, 69, 64
2, 331316, Note_on_c, 0, 69, 0
2, 331320, Note_on_c, 0, 71, 64
2, 331436, Note_on_c, 0, 71, 0
2, 331440, Note_on_c, 0, 69, 64
2, 331556, Note_on_c, 0, 69, 0
2, 331560, Note_on_c, 0, 67, 64
2, 331676, Note_on_c, 0, 67, 0
2, 331680, Note_on_c, 0, 66, 64
2, 331796, Note_on_c, 0, 66, 0
2, 331800, Note_on_c, 0, 67, 64
2, 331916, Note_on_c, 0, 67, 0
2, 331920, Note_on_c, 0, 64, 64
2, 332036, Note_on_c, 0, 64, 0
2, 332040, Note_on_c, 0, 66, 64
2, 332156, Note_on_c, 0, 66, 0
2, 332160, Note_on_c, 0, 67, 64
2, 332276, Note_on_c, 0, 67, 0
2, 332280, Note_on_c, 0, 69, 64
2, 332396, Note_on_c, 0, 69, 0
2, 332400, Note_on_c, 0, 71, 64
2, 332516, Note_on_c, 0, 71, 0
2, 332520, Note_on_c, 0, 73, 64
2, 332636, Note_on_c, 0, 73, 0
2, 332640, Note_on_c, 0, 74, 64
2, 332756, Note_on_c, 0, 74, 0
2, 332760, Note_on_c, 0, 71, 64
2, 332876, Note_on_c, 0, 71, 0
2, 332880, Note_on_c, 0, 69, 64
2, 332996, Note_on_c, 0, 69, 0
2, 333000, Note_on_c, 0, 67, 64
2, 333116, Note_on_c, 0, 67, 0
2, 333120, Note_on_c, 0, 66, 64
2, 333236, Note_on_c, 0, 66, 0
2, 333240, Note_on_c, 0, 64, 64
2, 333356, Note_on_c, 0, 64, 0
2, 333360, Note_on_c, 0, 62, 64
2, 334076, Note_on_c, 0, 62, 0
2, 334080, Note_on_c, 0, 62, 64
2, 334316, Note_on_c, 0, 62, 0
2, 334320, Note_on_c, 0, 66, 64
2, 334556, Note_on_c, 0, 66, 0
2, 334560, Note_on_c, 0, 69, 64
2, 334796, Note_on_c, 0, 69, 0
2, 334800, Note_on_c, 0, 61, 64
2, 335036, Note_on_c, 0, 61, 0
2, 335040, Note_on_c, 0, 64, 64
2, 335276, Note_on_c, 0, 64, 0
2, 335280, Note_on_c, 0, 69, 64
2, 335516, Note_on_c, 0, 69, 0
2, 335520, Note_on_c, 0, 62, 64
2, 335756, Note_on_c, 0, 62, 0
2, 335760, Note_on_c, 0, 66, 64
2, 335996, Note_on_c, 0, 66, 0
2, 336000, Note_on_c, 0, 69, 64
2, 336236, Note_on_c, 0, 69, 0
2, 336240, Note_on_c, 0, 57, 64
2, 336476, Note_on_c, 0, 57, 0
2, 336480, Note_on_c, 0, 64, 64
2, 336716, Note_on_c, 0, 64, 0
2, 336720, Note_on_c, 0, 69, 64
2, 336956, Note_on_c, 0, 69, 0
2, 336960, Note_on_c, 0, 71, 64
2, 337196, Note_on_c, 0, 71, 0
2, 337200, Note_on_c, 0, 71, 64
2, 337436, Note_on_c, 0, 71, 0
2, 337440, Note_on_c, 0, 71, 64
2, 337676, Note_on_c, 0, 71, 0
2, 337680, Note_on_c, 0, 71, 64
2, 337916, Note_on_c, 0, 71, 0
2, 337920, Note_on_c, 0, 71, 64
2, 338156, Note_on_c, 0, 71, 0
2, 338160, Note_on_c, 0, 71, 64
2, 338396, Note_on_c, 0, 71, 0
2, 338400, Note_on_c, 0, 71, 64
2, 338636, Note_on_c, 0, 71, 0
2, 338640, Note_on_c, 0, 71, 64
2, 338876, Note_on_c, 0, 71, 0
2, 338880, Note_on_c, 0, 71, 64
2, 339116, Note_on_c, 0, 71, 0
2, 339120, Note_on_c, 0, 71, 64
2, 339356, Note_on_c, 0, 71, 0
2, 339360, Note_on_c, 0, 71, 64
2, 339596, Note_on_c, 0, 71, 0
2, 339600, Note_on_c, 0, 71, 64
2, 339836, Note_on_c, 0, 71, 0
2, 339840, Note_on_c, 0, 76, 64
2, 339956, Note_on_c, 0, 76, 0
2, 339960, Note_on_c, 0, 78, 64
2, 340076, Note_on_c, 0, 78, 0
2, 340080, Note_on_c, 0, 79, 64
2, 340196, Note_on_c, 0, 79, 0
2, 340200, Note_on_c, 0, 76, 64
2, 340316, Note_on_c, 0, 76, 0
2, 340320, Note_on_c, 0, 75, 64
2, 340436, Note_on_c, 0, 75, 0
2, 340440, Note_on_c, 0, 76, 64
2, 340556, Note_on_c, 0, 76, 0
2, 340560, Note_on_c, 0, 72, 64
2, 340676, Note_on_c, 0, 72, 0
2, 340680, Note_on_c, 0, 76, 64
2, 340796, Note_on_c, 0, 76, 0
2, 340800, Note_on_c, 0, 79, 64
2, 340916, Note_on_c, 0, 79, 0
2, 340920, Note_on_c, 0, 76, 64
2, 341036, Note_on_c, 0, 76, 0
2, 341040, Note_on_c, 0, 75, 64
2, 341156, Note_on_c, 0, 75, 0
2, 341160, Note_on_c, 0, 76, 64
2, 341276, Note_on_c, 0, 76, 0
2, 341280, Note_on_c, 0, 71, 64
2, 341396, Note_on_c, 0, 71, 0
2, 341400, Note_on_c, 0, 76, 64
2, 341456, Note_on_c, 0, 76, 0
2, 341460, Note_on_c, 0, 78, 64
2, 341516, Note_on_c, 0, 78, 0
2, 341520, Note_on_c, 0, 79, 64
2, 341636, Note_on_c, 0, 79, 0
2, 341640, Note_on_c, 0, 76, 64
2, 341756, Note_on_c, 0, 76, 0
2, 341760, Note_on_c, 0, 75, 64
2, 341876, Note_on_c, 0, 75, 0
2, 341880, Note_on_c, 0, 76, 64
2, 341996, Note_on_c, 0, 76, 0
2, 342000, Note_on_c, 0, 69, 64
2, 342116, Note_on_c, 0, 69, 0
2, 342120, Note_on_c, 0, 76, 64
2, 342236, Note_on_c, 0, 76, 0
2, 342240, Note_on_c, 0, 79, 64
2, 342356, Note_on_c, 0, 79, 0
2, 342360, Note_on_c, 0, 76, 64
2, 342476, Note_on_c, 0, 76, 0
2, 342480, Note_on_c, 0, 75, 64
2, 342596, Note_on_c, 0, 75, 0
2, 342600, Note_on_c, 0, 76, 64
2, 342716, Note_on_c, 0, 76, 0
2, 342720, Note_on_c, 0, 71, 64
2, 342836, Note_on_c, 0, 71, 0
2, 342840, Note_on_c, 0, 76, 64
2, 342896, Note_on_c, 0, 76, 0
2, 342900, Note_on_c, 0, 78, 64
2, 342956, Note_on_c, 0, 78, 0
2, 342960, Note_on_c, 0, 79, 64
2, 343076, Note_on_c, 0, 79, 0
2, 343080, Note_on_c, 0, 76, 64
2, 343196, Note_on_c, 0, 76, 0
2, 343200, Note_on_c, 0, 75, 64
2, 343316, Note_on_c, 0, 75, 0
2, 343320, Note_on_c, 0, 76, 64
2, 343436, Note_on_c, 0, 76, 0
2, 343440, Note_on_c, 0, 72, 64
2, 343556, Note_on_c, 0, 72, 0
2, 343560, Note_on_c, 0, 76, 64
2, 343676, Note_on_c, 0, 76, 0
2, 343680, Note_on_c, 0, 79, 64
2, 343796, Note_on_c, 0, 79, 0
2, 343800, Note_on_c, 0, 76, 64
2, 343916, Note_on_c, 0, 76, 0
2, 343920, Note_on_c, 0, 75, 64
2, 344036, Note_on_c, 0, 75, 0
2, 344040, Note_on_c, 0, 76, 64
2, 344156, Note_on_c, 0, 76, 0
2, 344160, Note_on_c, 0, 71, 64
2, 344276, Note_on_c, 0, 71, 0
2, 344280, Note_on_c, 0, 76, 64
2, 344336, Note_on_c, 0, 76, 0
2, 344340, Note_on_c, 0, 78, 64
2, 344396, Note_on_c, 0, 78, 0
2, 344400, Note_on_c, 0, 79, 64
2, 344516, Note_on_c, 0, 79, 0
2, 344520, Note_on_c, 0, 76, 64
2, 344636, Note_on_c, 0, 76, 0
2, 344640, Note_on_c, 0, 71, 64
2, 344756, Note_on_c, 0, 71, 0
2, 344760, Note_on_c, 0, 75, 64
2, 344876, Note_on_c, 0, 75, 0
2, 344880, Note_on_c, 0, 76, 64
2, 344996, Note_on_c, 0, 76, 0
2, 345000, Note_on_c, 0, 72, 64
2, 345116, Note_on_c, 0, 72, 0
2, 345120, Note_on_c, 0, 71, 64
2, 345236, Note_on_c, 0, 71, 0
2, 345240, Note_on_c, 0, 69, 64
2, 345356, Note_on_c, 0, 69, 0
2, 345360, Note_on_c, 0, 67, 64
2, 345476, Note_on_c, 0, 67, 0
2, 345480, Note_on_c, 0, 66, 64
2, 345596, Note_on_c, 0, 66, 0
2, 345600, Note_on_c, 0, 64, 64
2, 345716, Note_on_c, 0, 64, 0
2, 345720, Note_on_c, 0, 63, 64
2, 345836, Note_on_c, 0, 63, 0
2, 345840, Note_on_c, 0, 64, 64
2, 345956, Note_on_c, 0, 64, 0
2, 345960, Note_on_c, 0, 66, 64
2, 346076, Note_on_c, 0, 66, 0
2, 346080, Note_on_c, 0, 67, 64
2, 346196, Note_on_c, 0, 67, 0
2, 346200, Note_on_c, 0, 69, 64
2, 346316, Note_on_c, 0, 69, 0
2, 346320, Note_on_c, 0, 71, 64
2, 346436, Note_on_c, 0, 71, 0
2, 346440, Note_on_c, 0, 72, 64
2, 346556, Note_on_c, 0, 72, 0
2, 346560, Note_on_c, 0, 71, 64
2, 346676, Note_on_c, 0, 71, 0
2, 346680, Note_on_c, 0, 69, 64
2, 346796, Note_on_c, 0, 69, 0
2, 346800, Note_on_c, 0, 67, 64
2, 346916, Note_on_c, 0, 67, 0
2, 346920, Note_on_c, 0, 66, 64
2, 347036, Note_on_c, 0, 66, 0
2, 347040, Note_on_c, 0, 67, 64
2, 347276, Note_on_c, 0, 67, 0
2, 347280, Note_on_c, 0, 71, 64
2, 347516, Note_on_c, 0, 71, 0
2, 347520, Note_on_c, 0, 76, 64
2, 347756, Note_on_c, 0, 76, 0
2, 347760, Note_on_c, 0, 75, 64
2, 347876, Note_on_c, 0, 75, 0
2, 347880, Note_on_c, 0, 76, 64
2, 347996, Note_on_c, 0, 76, 0
2, 348000, Note_on_c, 0, 75, 64
2, 348116, Note_on_c, 0, 75, 0
2, 348120, Note_on_c, 0, 73, 64
2, 348236, Note_on_c, 0, 73, 0
2, 348240, Note_on_c, 0, 71, 64
2, 348356, Note_on_c, 0, 71, 0
2, 348360, Note_on_c, 0, 69, 64
2, 348476, Note_on_c, 0, 69, 0
2, 348480, Note_on_c, 0, 67, 64
2, 348716, Note_on_c, 0, 67, 0
2, 348720, Note_on_c, 0, 64, 64
2, 348956, Note_on_c, 0, 64, 0
2, 348960, Note_on_c, 0, 83, 64
2, 349196, Note_on_c, 0, 83, 0
2, 349200, Note_on_c, 0, 83, 64
2, 349436, Note_on_c, 0, 83, 0
2, 349440, Note_on_c, 0, 83, 64
2, 349676, Note_on_c, 0, 83, 0
2, 349680, Note_on_c, 0, 83, 64
2, 349916, Note_on_c, 0, 83, 0
2, 349920, Note_on_c, 0, 83, 64
2, 350156, Note_on_c, 0, 83, 0
2, 350160, Note_on_c, 0, 83, 64
2, 350396, Note_on_c, 0, 83, 0
2, 350400, Note_on_c, 0, 83, 64
2, 350636, Note_on_c, 0, 83, 0
2, 350640, Note_on_c, 0, 83, 64
2, 350876, Note_on_c, 0, 83, 0
2, 350880, Note_on_c, 0, 83, 64
2, 351116, Note_on_c, 0, 83, 0
2, 351120, Note_on_c, 0, 83, 64
2, 351356, Note_on_c, 0, 83, 0
2, 351360, Note_on_c, 0, 79, 64
2, 351476, Note_on_c, 0, 79, 0
2, 351480, Note_on_c, 0, 81, 64
2, 351596, Note_on_c, 0, 81, 0
2, 351600, Note_on_c, 0, 79, 64
2, 351716, Note_on_c, 0, 79, 0
2, 351720, Note_on_c, 0, 78, 64
2, 351836, Note_on_c, 0, 78, 0
2, 351840, Note_on_c, 0, 76, 64
2, 351956, Note_on_c, 0, 76, 0
2, 351960, Note_on_c, 0, 74, 64
2, 352076, Note_on_c, 0, 74, 0
2, 352080, Note_on_c, 0, 73, 64
2, 352196, Note_on_c, 0, 73, 0
2, 352200, Note_on_c, 0, 71, 64
2, 352316, Note_on_c, 0, 71, 0
2, 352320, Note_on_c, 0, 73, 64
2, 352436, Note_on_c, 0, 73, 0
2, 352440, Note_on_c, 0, 74, 64
2, 352556, Note_on_c, 0, 74, 0
2, 352560, Note_on_c, 0, 76, 64
2, 352676, Note_on_c, 0, 76, 0
2, 352680, Note_on_c, 0, 73, 64
2, 352796, Note_on_c, 0, 73, 0
2, 352800, Note_on_c, 0, 78, 64
2, 352916, Note_on_c, 0, 78, 0
2, 352920, Note_on_c, 0, 79, 64
2, 353036, Note_on_c, 0, 79, 0
2, 353040, Note_on_c, 0, 78, 64
2, 353156, Note_on_c, 0, 78, 0
2, 353160, Note_on_c, 0, 76, 64
2, 353276, Note_on_c, 0, 76, 0
2, 353280, Note_on_c, 0, 74, 64
2, 353396, Note_on_c, 0, 74, 0
2, 353400, Note_on_c, 0, 73, 64
2, 353516, Note_on_c, 0, 73, 0
2, 353520, Note_on_c, 0, 71, 64
2, 353636, Note_on_c, 0, 71, 0
2, 353640, Note_on_c, 0, 70, 64
2, 353756, Note_on_c, 0, 70, 0
2, 353760, Note_on_c, 0, 71, 64
2, 353876, Note_on_c, 0, 71, 0
2, 353880, Note_on_c, 0, 73, 64
2, 353996, Note_on_c, 0, 73, 0
2, 354000, Note_on_c, 0, 74, 64
2, 354116, Note_on_c, 0, 74, 0
2, 354120, Note_on_c, 0, 71, 64
2, 354236, Note_on_c, 0, 71, 0
2, 354240, Note_on_c, 0, 76, 64
2, 354356, Note_on_c, 0, 76, 0
2, 354360, Note_on_c, 0, 78, 64
2, 354476, Note_on_c, 0, 78, 0
2, 354480, Note_on_c, 0, 76, 64
2, 354596, Note_on_c, 0, 76, 0
2, 354600, Note_on_c, 0, 74, 64
2, 354716, Note_on_c, 0, 74, 0
2, 354720, Note_on_c, 0, 73, 64
2, 354836, Note_on_c, 0, 73, 0
2, 354840, Note_on_c, 0, 71, 64
2, 354956, Note_on_c, 0, 71, 0
2, 354960, Note_on_c, 0, 70, 64
2, 355076, Note_on_c, 0, 70, 0
2, 355080, Note_on_c, 0, 68, 64
2, 355196, Note_on_c, 0, 68, 0
2, 355200, Note_on_c, 0, 70, 64
2, 355316, Note_on_c, 0, 70, 0
2, 355320, Note_on_c, 0, 71, 64
2, 355436, Note_on_c, 0, 71, 0
2, 355440, Note_on_c, 0, 73, 64
2, 355556, Note_on_c, 0, 73, 0
2, 355560, Note_on_c, 0, 70, 64
2, 355676, Note_on_c, 0, 70, 0
2, 355680, Note_on_c, 0, 71, 64
2, 355916, Note_on_c, 0, 71, 0
2, 355920, Note_on_c, 0, 74, 64
2, 356156, Note_on_c, 0, 74, 0
2, 356160, Note_on_c, 0, 78, 64
2, 356396, Note_on_c, 0, 78, 0
2, 356400, Note_on_c, 0, 70, 64
2, 356636, Note_on_c, 0, 70, 0
2, 356640, Note_on_c, 0, 73, 64
2, 356876, Note_on_c, 0, 73, 0
2, 356880, Note_on_c, 0, 78, 64
2, 357116, Note_on_c, 0, 78, 0
2, 357120, Note_on_c, 0, 71, 64
2, 357356, Note_on_c, 0, 71, 0
2, 357360, Note_on_c, 0, 74, 64
2, 357596, Note_on_c, 0, 74, 0
2, 357600, Note_on_c, 0, 78, 64
2, 357836, Note_on_c, 0, 78, 0
2, 357840, Note_on_c, 0, 66, 64
2, 358076, Note_on_c, 0, 66, 0
2, 358080, Note_on_c, 0, 73, 64
2, 358316, Note_on_c, 0, 73, 0
2, 358320, Note_on_c, 0, 78, 64
2, 358556, Note_on_c, 0, 78, 0
2, 358560, Note_on_c, 0, 71, 64
2, 358676, Note_on_c, 0, 71, 0
2, 358680, Note_on_c, 0, 70, 64
2, 358796, Note_on_c, 0, 70, 0
2, 358800, Note_on_c, 0, 71, 64
2, 358916, Note_on_c, 0, 71, 0
2, 358920, Note_on_c, 0, 73, 64
2, 359036, Note_on_c, 0, 73, 0
2, 359040, Note_on_c, 0, 74, 64
2, 359156, Note_on_c, 0, 74, 0
2, 359160, Note_on_c, 0, 76, 64
2, 359276, Note_on_c, 0, 76, 0
2, 359280, Note_on_c, 0, 78, 64
2, 359396, Note_on_c, 0, 78, 0
2, 359400, Note_on_c, 0, 79, 64
2, 359516, Note_on_c, 0, 79, 0
2, 359520, Note_on_c, 0, 78, 64
2, 359636, Note_on_c, 0, 78, 0
2, 359640, Note_on_c, 0, 76, 64
2, 359756, Note_on_c, 0, 76, 0
2, 359760, Note_on_c, 0, 74, 64
2, 359876, Note_on_c, 0, 74, 0
2, 359880, Note_on_c, 0, 73, 64
2, 359996, Note_on_c, 0, 73, 0
2, 360000, Note_on_c, 0, 71, 64
2, 360236, Note_on_c, 0, 71, 0
2, 360240, Note_on_c, 0, 74, 64
2, 360476, Note_on_c, 0, 74, 0
2, 360480, Note_on_c, 0, 66, 64
2, 360716, Note_on_c, 0, 66, 0
2, 360720, Note_on_c, 0, 73, 64
2, 360956, Note_on_c, 0, 73, 0
2, 360960, Note_on_c, 0, 76, 64
2, 361196, Note_on_c, 0, 76, 0
2, 361200, Note_on_c, 0, 66, 64
2, 361436, Note_on_c, 0, 66, 0
2, 361440, Note_on_c, 0, 74, 64
2, 361676, Note_on_c, 0, 74, 0
2, 361680, Note_on_c, 0, 74, 64
2, 361916, Note_on_c, 0, 74, 0
2, 361920, Note_on_c, 0, 74, 64
2, 362156, Note_on_c, 0, 74, 0
2, 362160, Note_on_c, 0, 74, 64
2, 362396, Note_on_c, 0, 74, 0
2, 362400, Note_on_c, 0, 74, 64
2, 362636, Note_on_c, 0, 74, 0
2, 362640, Note_on_c, 0, 74, 64
2, 362876, Note_on_c, 0, 74, 0
2, 362880, Note_on_c, 0, 73, 64
2, 363116, Note_on_c, 0, 73, 0
2, 363120, Note_on_c, 0, 73, 64
2, 363356, Note_on_c, 0, 73, 0
2, 363360, Note_on_c, 0, 73, 64
2, 363596, Note_on_c, 0, 73, 0
2, 363600, Note_on_c, 0, 73, 64
2, 363836, Note_on_c, 0, 73, 0
2, 363840, Note_on_c, 0, 73, 64
2, 364076, Note_on_c, 0, 73, 0
2, 364080, Note_on_c, 0, 73, 64
2, 364316, Note_on_c, 0, 73, 0
2, 364320, Note_on_c, 0, 71, 64
2, 364556, Note_on_c, 0, 71, 0
2, 364560, Note_on_c, 0, 71, 64
2, 364796, Note_on_c, 0, 71, 0
2, 364800, Note_on_c, 0, 71, 64
2, 365036, Note_on_c, 0, 71, 0
2, 365040, Note_on_c, 0, 71, 64
2, 365276, Note_on_c, 0, 71, 0
2, 365280, Note_on_c, 0, 71, 64
2, 365516, Note_on_c, 0, 71, 0
2, 365520, Note_on_c, 0, 71, 64
2, 365756, Note_on_c, 0, 71, 0
2, 365760, Note_on_c, 0, 70, 64
2, 365876, Note_on_c, 0, 70, 0
2, 365880, Note_on_c, 0, 73, 64
2, 365996, Note_on_c, 0, 73, 0
2, 366000, Note_on_c, 0, 66, 64
2, 366116, Note_on_c, 0, 66, 0
2, 366120, Note_on_c, 0, 73, 64
2, 366236, Note_on_c, 0, 73, 0
2, 366240, Note_on_c, 0, 70, 64
2, 366356, Note_on_c, 0, 70, 0
2, 366360, Note_on_c, 0, 73, 64
2, 366476, Note_on_c, 0, 73, 0
2, 366480, Note_on_c, 0, 71, 64
2, 366596, Note_on_c, 0, 71, 0
2, 366600, Note_on_c, 0, 74, 64
2, 366716, Note_on_c, 0, 74, 0
2, 366720, Note_on_c, 0, 66, 64
2, 366836, Note_on_c, 0, 66, 0
2, 366840, Note_on_c, 0, 74, 64
2, 366956, Note_on_c, 0, 74, 0
2, 366960, Note_on_c, 0, 71, 64
2, 367076, Note_on_c, 0, 71, 0
2, 367080, Note_on_c, 0, 74, 64
2, 367196, Note_on_c, 0, 74, 0
2, 367200, Note_on_c, 0, 73, 64
2, 367316, Note_on_c, 0, 73, 0
2, 367320, Note_on_c, 0, 76, 64
2, 367436, Note_on_c, 0, 76, 0
2, 367440, Note_on_c, 0, 66, 64
2, 367556, Note_on_c, 0, 66, 0
2, 367560, Note_on_c, 0, 76, 64
2, 367676, Note_on_c, 0, 76, 0
2, 367680, Note_on_c, 0, 73, 64
2, 367796, Note_on_c, 0, 73, 0
2, 367800, Note_on_c, 0, 76, 64
2, 367916, Note_on_c, 0, 76, 0
2, 367920, Note_on_c, 0, 74, 64
2, 368036, Note_on_c, 0, 74, 0
2, 368040, Note_on_c, 0, 78, 64
2, 368156, Note_on_c, 0, 78, 0
2, 368160, Note_on_c, 0, 66, 64
2, 368276, Note_on_c, 0, 66, 0
2, 368280, Note_on_c, 0, 78, 64
2, 368396, Note_on_c, 0, 78, 0
2, 368400, Note_on_c, 0, 74, 64
2, 368516, Note_on_c, 0, 74, 0
2, 368520, Note_on_c, 0, 78, 64
2, 368636, Note_on_c, 0, 78, 0
2, 368640, Note_on_c, 0, 76, 64
2, 368756, Note_on_c, 0, 76, 0
2, 368760, Note_on_c, 0, 70, 64
2, 368876, Note_on_c, 0, 70, 0
2, 368880, Note_on_c, 0, 76, 64
2, 368996, Note_on_c, 0, 76, 0
2, 369000, Note_on_c, 0, 70, 64
2, 369116, Note_on_c, 0, 70, 0
2, 369120, Note_on_c, 0, 76, 64
2, 369236, Note_on_c, 0, 76, 0
2, 369240, Note_on_c, 0, 70, 64
2, 369356, Note_on_c, 0, 70, 0
2, 369360, Note_on_c, 0, 74, 64
2, 369476, Note_on_c, 0, 74, 0
2, 369480, Note_on_c, 0, 71, 64
2, 369596, Note_on_c, 0, 71, 0
2, 369600, Note_on_c, 0, 74, 64
2, 369716, Note_on_c, 0, 74, 0
2, 369720, Note_on_c, 0, 71, 64
2, 369836, Note_on_c, 0, 71, 0
2, 369840, Note_on_c, 0, 74, 64
2, 369956, Note_on_c, 0, 74, 0
2, 369960, Note_on_c, 0, 71, 64
2, 370076, Note_on_c, 0, 71, 0
2, 370080, Note_on_c, 0, 73, 64
2, 370196, Note_on_c, 0, 73, 0
2, 370200, Note_on_c, 0, 66, 64
2, 370316, Note_on_c, 0, 66, 0
2, 370320, Note_on_c, 0, 73, 64
2, 370436, Note_on_c, 0, 73, 0
2, 370440, Note_on_c, 0, 66, 64
2, 370556, Note_on_c, 0, 66, 0
2, 370560, Note_on_c, 0, 73, 64
2, 370676, Note_on_c, 0, 73, 0
2, 370680, Note_on_c, 0, 66, 64
2, 370796, Note_on_c, 0, 66, 0
2, 370800, Note_on_c, 0, 71, 64
2, 370916, Note_on_c, 0, 71, 0
2, 370920, Note_on_c, 0, 66, 64
2, 371036, Note_on_c, 0, 66, 0
2, 371040, Note_on_c, 0, 71, 64
2, 371156, Note_on_c, 0, 71, 0
2, 371160, Note_on_c, 0, 66, 64
2, 371276, Note_on_c, 0, 66, 0
2, 371280, Note_on_c, 0, 71, 64
2, 371396, Note_on_c, 0, 71, 0
2, 371400, Note_on_c, 0, 66, 64
2, 371516, Note_on_c, 0, 66, 0
2, 371520, Note_on_c, 0, 70, 64
2, 371756, Note_on_c, 0, 70, 0
2, 371760, Note_on_c, 0, 66, 64
2, 371996, Note_on_c, 0, 66, 0
2, 372000, Note_on_c, 0, 66, 64
2, 372236, Note_on_c, 0, 66, 0
2, 372240, Note_on_c, 0, 66, 64
2, 372476, Note_on_c, 0, 66, 0
2, 372480, Note_on_c, 0, 66, 64
2, 372716, Note_on_c, 0, 66, 0
2, 372720, Note_on_c, 0, 66, 64
2, 372956, Note_on_c, 0, 66, 0
2, 372960, Note_on_c, 0, 78, 64
2, 373076, Note_on_c, 0, 78, 0
2, 373080, Note_on_c, 0, 81, 64
2, 373196, Note_on_c, 0, 81, 0
2, 373200, Note_on_c, 0, 71, 64
2, 373316, Note_on_c, 0, 71, 0
2, 373320, Note_on_c, 0, 81, 64
2, 373436, Note_on_c, 0, 81, 0
2, 373440, Note_on_c, 0, 78, 64
2, 373556, Note_on_c, 0, 78, 0
2, 373560, Note_on_c, 0, 81, 64
2, 373676, Note_on_c, 0, 81, 0
2, 373680, Note_on_c, 0, 78, 64
2, 373796, Note_on_c, 0, 78, 0
2, 373800, Note_on_c, 0, 81, 64
2, 373916, Note_on_c, 0, 81, 0
2, 373920, Note_on_c, 0, 71, 64
2, 374036, Note_on_c, 0, 71, 0
2, 374040, Note_on_c, 0, 81, 64
2, 374156, Note_on_c, 0, 81, 0
2, 374160, Note_on_c, 0, 78, 64
2, 374276, Note_on_c, 0, 78, 0
2, 374280, Note_on_c, 0, 81, 64
2, 374396, Note_on_c, 0, 81, 0
2, 374400, Note_on_c, 0, 79, 64
2, 374516, Note_on_c, 0, 79, 0
2, 374520, Note_on_c, 0, 81, 64
2, 374636, Note_on_c, 0, 81, 0
2, 374640, Note_on_c, 0, 83, 64
2, 374756, Note_on_c, 0, 83, 0
2, 374760, Note_on_c, 0, 81, 64
2, 374876, Note_on_c, 0, 81, 0
2, 374880, Note_on_c, 0, 79, 64
2, 374996, Note_on_c, 0, 79, 0
2, 375000, Note_on_c, 0, 78, 64
2, 375116, Note_on_c, 0, 78, 0
2, 375120, Note_on_c, 0, 76, 64
2, 375236, Note_on_c, 0, 76, 0
2, 375240, Note_on_c, 0, 78, 64
2, 375356, Note_on_c, 0, 78, 0
2, 375360, Note_on_c, 0, 79, 64
2, 375476, Note_on_c, 0, 79, 0
2, 375480, Note_on_c, 0, 78, 64
2, 375596, Note_on_c, 0, 78, 0
2, 375600, Note_on_c, 0, 76, 64
2, 375716, Note_on_c, 0, 76, 0
2, 375720, Note_on_c, 0, 74, 64
2, 375836, Note_on_c, 0, 74, 0
2, 375840, Note_on_c, 0, 73, 64
2, 375956, Note_on_c, 0, 73, 0
2, 375960, Note_on_c, 0, 74, 64
2, 376076, Note_on_c, 0, 74, 0
2, 376080, Note_on_c, 0, 76, 64
2, 376196, Note_on_c, 0, 76, 0
2, 376200, Note_on_c, 0, 74, 64
2, 376316, Note_on_c, 0, 74, 0
2, 376320, Note_on_c, 0, 73, 64
2, 376436, Note_on_c, 0, 73, 0
2, 376440, Note_on_c, 0, 71, 64
2, 376556, Note_on_c, 0, 71, 0
2, 376560, Note_on_c, 0, 70, 64
2, 376676, Note_on_c, 0, 70, 0
2, 376680, Note_on_c, 0, 71, 64
2, 376796, Note_on_c, 0, 71, 0
2, 376800, Note_on_c, 0, 73, 64
2, 376916, Note_on_c, 0, 73, 0
2, 376920, Note_on_c, 0, 71, 64
2, 377036, Note_on_c, 0, 71, 0
2, 377040, Note_on_c, 0, 70, 64
2, 377156, Note_on_c, 0, 70, 0
2, 377160, Note_on_c, 0, 68, 64
2, 377276, Note_on_c, 0, 68, 0
2, 377280, Note_on_c, 0, 66, 64
2, 377396, Note_on_c, 0, 66, 0
2, 377400, Note_on_c, 0, 67, 64
2, 377516, Note_on_c, 0, 67, 0
2, 377520, Note_on_c, 0, 66, 64
2, 377636, Note_on_c, 0, 66, 0
2, 377640, Note_on_c, 0, 64, 64
2, 377756, Note_on_c, 0, 64, 0
2, 377760, Note_on_c, 0, 62, 64
2, 377876, Note_on_c, 0, 62, 0
2, 377880, Note_on_c, 0, 64, 64
2, 377996, Note_on_c, 0, 64, 0
2, 378000, Note_on_c, 0, 61, 64
2, 378116, Note_on_c, 0, 61, 0
2, 378120, Note_on_c, 0, 62, 64
2, 378236, Note_on_c, 0, 62, 0
2, 378240, Note_on_c, 0, 64, 64
2, 378356, Note_on_c, 0, 64, 0
2, 378360, Note_on_c, 0, 66, 64
2, 378476, Note_on_c, 0, 66, 0
2, 378480, Note_on_c, 0, 68, 64
2, 378596, Note_on_c, 0, 68, 0
2, 378600, Note_on_c, 0, 70, 64
2, 378716, Note_on_c, 0, 70, 0
2, 378720, Note_on_c, 0, 71, 64
2, 378836, Note_on_c, 0, 71, 0
2, 378840, Note_on_c, 0, 67, 64
2, 378956, Note_on_c, 0, 67, 0
2, 378960, Note_on_c, 0, 66, 64
2, 379076, Note_on_c, 0, 66, 0
2, 379080, Note_on_c, 0, 64, 64
2, 379196, Note_on_c, 0, 64, 0
2, 379200, Note_on_c, 0, 62, 64
2, 379316, Note_on_c, 0, 62, 0
2, 379320, Note_on_c, 0, 61, 64
2, 379436, Note_on_c, 0, 61, 0
2, 379440, Note_on_c, 0, 59, 64
2, 379556, Note_on_c, 0, 59, 0
2, 379560, Note_on_c, 0, 61, 64
2, 379676, Note_on_c, 0, 61, 0
2, 379680, Note_on_c, 0, 62, 64
2, 379796, Note_on_c, 0, 62, 0
2, 379800, Note_on_c, 0, 64, 64
2, 379916, Note_on_c, 0, 64, 0
2, 379920, Note_on_c, 0, 66, 64
2, 380036, Note_on_c, 0, 66, 0
2, 380040, Note_on_c, 0, 67, 64
2, 380156, Note_on_c, 0, 67, 0
2, 380160, Note_on_c, 0, 69, 64
2, 380396, Note_on_c, 0, 69, 0
2, 380400, Note_on_c, 0, 69, 64
2, 380636, Note_on_c, 0, 69, 0
2, 380640, Note_on_c, 0, 69, 64
2, 380876, Note_on_c, 0, 69, 0
2, 380880, Note_on_c, 0, 69, 64
2, 381116, Note_on_c, 0, 69, 0
2, 381120, Note_on_c, 0, 69, 64
2, 381356, Note_on_c, 0, 69, 0
2, 381360, Note_on_c, 0, 69, 64
2, 381596, Note_on_c, 0, 69, 0
2, 381600, Note_on_c, 0, 69, 64
2, 381716, Note_on_c, 0, 69, 0
2, 381720, Note_on_c, 0, 72, 64
2, 381836, Note_on_c, 0, 72, 0
2, 381840, Note_on_c, 0, 71, 64
2, 381956, Note_on_c, 0, 71, 0
2, 381960, Note_on_c, 0, 69, 64
2, 382076, Note_on_c, 0, 69, 0
2, 382080, Note_on_c, 0, 67, 64
2, 382196, Note_on_c, 0, 67, 0
2, 382200, Note_on_c, 0, 66, 64
2, 382316, Note_on_c, 0, 66, 0
2, 382320, Note_on_c, 0, 67, 64
2, 382436, Note_on_c, 0, 67, 0
2, 382440, Note_on_c, 0, 66, 64
2, 382556, Note_on_c, 0, 66, 0
2, 382560, Note_on_c, 0, 64, 64
2, 382676, Note_on_c, 0, 64, 0
2, 382680, Note_on_c, 0, 66, 64
2, 382796, Note_on_c, 0, 66, 0
2, 382800, Note_on_c, 0, 67, 64
2, 382916, Note_on_c, 0, 67, 0
2, 382920, Note_on_c, 0, 69, 64
2, 383036, Note_on_c, 0, 69, 0
2, 383040, Note_on_c, 0, 71, 64
2, 383156, Note_on_c, 0, 71, 0
2, 383160, Note_on_c, 0, 72, 64
2, 383276, Note_on_c, 0, 72, 0
2, 383280, Note_on_c, 0, 74, 64
2, 383396, Note_on_c, 0, 74, 0
2, 383400, Note_on_c, 0, 72, 64
2, 383516, Note_on_c, 0, 72, 0
2, 383520, Note_on_c, 0, 71, 64
2, 383636, Note_on_c, 0, 71, 0
2, 383640, Note_on_c, 0, 69, 64
2, 383756, Note_on_c, 0, 69, 0
2, 383760, Note_on_c, 0, 68, 64
2, 383876, Note_on_c, 0, 68, 0
2, 383880, Note_on_c, 0, 69, 64
2, 383996, Note_on_c, 0, 69, 0
2, 384000, Note_on_c, 0, 71, 64
2, 384116, Note_on_c, 0, 71, 0
2, 384120, Note_on_c, 0, 69, 64
2, 384236, Note_on_c, 0, 69, 0
2, 384240, Note_on_c, 0, 68, 64
2, 384356, Note_on_c, 0, 68, 0
2, 384360, Note_on_c, 0, 66, 64
2, 384476, Note_on_c, 0, 66, 0
2, 384480, Note_on_c, 0, 64, 64
2, 384596, Note_on_c, 0, 64, 0
2, 384600, Note_on_c, 0, 67, 64
2, 384716, Note_on_c, 0, 67, 0
2, 384720, Note_on_c, 0, 69, 64
2, 384836, Note_on_c, 0, 69, 0
2, 384840, Note_on_c, 0, 71, 64
2, 384956, Note_on_c, 0, 71, 0
2, 384960, Note_on_c, 0, 73, 64
2, 385076, Note_on_c, 0, 73, 0
2, 385080, Note_on_c, 0, 74, 64
2, 385196, Note_on_c, 0, 74, 0
2, 385200, Note_on_c, 0, 76, 64
2, 385316, Note_on_c, 0, 76, 0
2, 385320, Note_on_c, 0, 74, 64
2, 385436, Note_on_c, 0, 74, 0
2, 385440, Note_on_c, 0, 72, 64
2, 385556, Note_on_c, 0, 72, 0
2, 385560, Note_on_c, 0, 71, 64
2, 385676, Note_on_c, 0, 71, 0
2, 385680, Note_on_c, 0, 72, 64
2, 385796, Note_on_c, 0, 72, 0
2, 385800, Note_on_c, 0, 69, 64
2, 385916, Note_on_c, 0, 69, 0
2, 385920, Note_on_c, 0, 77, 64
2, 386156, Note_on_c, 0, 77, 0
2, 386160, Note_on_c, 0, 77, 64
2, 386396, Note_on_c, 0, 77, 0
2, 386400, Note_on_c, 0, 77, 64
2, 386636, Note_on_c, 0, 77, 0
2, 386640, Note_on_c, 0, 77, 64
2, 386756, Note_on_c, 0, 77, 0
2, 386760, Note_on_c, 0, 67, 64
2, 386876, Note_on_c, 0, 67, 0
2, 386880, Note_on_c, 0, 71, 64
2, 386996, Note_on_c, 0, 71, 0
2, 387000, Note_on_c, 0, 74, 64
2, 387116, Note_on_c, 0, 74, 0
2, 387120, Note_on_c, 0, 71, 64
2, 387236, Note_on_c, 0, 71, 0
2, 387240, Note_on_c, 0, 67, 64
2, 387356, Note_on_c, 0, 67, 0
2, 387360, Note_on_c, 0, 76, 64
2, 387596, Note_on_c, 0, 76, 0
2, 387600, Note_on_c, 0, 76, 64
2, 387836, Note_on_c, 0, 76, 0
2, 387840, Note_on_c, 0, 76, 64
2, 388076, Note_on_c, 0, 76, 0
2, 388080, Note_on_c, 0, 76, 64
2, 388196, Note_on_c, 0, 76, 0
2, 388200, Note_on_c, 0, 65, 64
2, 388316, Note_on_c, 0, 65, 0
2, 388320, Note_on_c, 0, 69, 64
2, 388436, Note_on_c, 0, 69, 0
2, 388440, Note_on_c, 0, 72, 64
2, 388556, Note_on_c, 0, 72, 0
2, 388560, Note_on_c, 0, 69, 64
2, 388676, Note_on_c, 0, 69, 0
2, 388680, Note_on_c, 0, 65, 64
2, 388796, Note_on_c, 0, 65, 0
2, 388800, Note_on_c, 0, 79, 64
2, 389036, Note_on_c, 0, 79, 0
2, 389040, Note_on_c, 0, 79, 64
2, 389276, Note_on_c, 0, 79, 0
2, 389280, Note_on_c, 0, 79, 64
2, 389516, Note_on_c, 0, 79, 0
2, 389520, Note_on_c, 0, 79, 64
2, 389756, Note_on_c, 0, 79, 0
2, 389760, Note_on_c, 0, 79, 64
2, 389996, Note_on_c, 0, 79, 0
2, 390000, Note_on_c, 0, 79, 64
2, 390236, Note_on_c, 0, 79, 0
2, 390240, Note_on_c, 0, 79, 64
2, 390476, Note_on_c, 0, 79, 0
2, 390480, Note_on_c, 0, 79, 64
2, 390716, Note_on_c, 0, 79, 0
2, 390720, Note_on_c, 0, 79, 64
2, 390956, Note_on_c, 0, 79, 0
2, 390960, Note_on_c, 0, 79, 64
2, 391196, Note_on_c, 0, 79, 0
2, 391200, Note_on_c, 0, 79, 64
2, 391436, Note_on_c, 0, 79, 0
2, 391440, Note_on_c, 0, 79, 64
2, 391676, Note_on_c, 0, 79, 0
2, 391680, Note_on_c, 0, 79, 64
2, 391916, Note_on_c, 0, 79, 0
2, 391920, Note_on_c, 0, 79, 64
2, 392156, Note_on_c, 0, 79, 0
2, 392160, Note_on_c, 0, 79, 64
2, 392396, Note_on_c, 0, 79, 0
2, 392400, Note_on_c, 0, 79, 64
2, 392636, Note_on_c, 0, 79, 0
2, 392640, Note_on_c, 0, 79, 64
2, 392876, Note_on_c, 0, 79, 0
2, 392880, Note_on_c, 0, 79, 64
2, 393116, Note_on_c, 0, 79, 0
2, 393120, Note_on_c, 0, 79, 64
2, 393356, Note_on_c, 0, 79, 0
2, 393360, Note_on_c, 0, 79, 64
2, 393596, Note_on_c, 0, 79, 0
2, 393600, Note_on_c, 0, 79, 64
2, 393836, Note_on_c, 0, 79, 0
2, 393840, Note_on_c, 0, 79, 64
2, 394076, Note_on_c, 0, 79, 0
2, 394080, Note_on_c, 0, 79, 64
2, 394316, Note_on_c, 0, 79, 0
2, 394320, Note_on_c, 0, 79, 64
2, 394556, Note_on_c, 0, 79, 0
2, 394560, Note_on_c, 0, 72, 64
2, 394676, Note_on_c, 0, 72, 0
2, 394680, Note_on_c, 0, 75, 64
2, 394796, Note_on_c, 0, 75, 0
2, 394800, Note_on_c, 0, 69, 64
2, 394916, Note_on_c, 0, 69, 0
2, 394920, Note_on_c, 0, 75, 64
2, 395036, Note_on_c, 0, 75, 0
2, 395040, Note_on_c, 0, 72, 64
2, 395156, Note_on_c, 0, 72, 0
2, 395160, Note_on_c, 0, 71, 64
2, 395276, Note_on_c, 0, 71, 0
2, 395280, Note_on_c, 0, 72, 64
2, 395396, Note_on_c, 0, 72, 0
2, 395400, Note_on_c, 0, 75, 64
2, 395516, Note_on_c, 0, 75, 0
2, 395520, Note_on_c, 0, 69, 64
2, 395636, Note_on_c, 0, 69, 0
2, 395640, Note_on_c, 0, 75, 64
2, 395756, Note_on_c, 0, 75, 0
2, 395760, Note_on_c, 0, 72, 64
2, 395876, Note_on_c, 0, 72, 0
2, 395880, Note_on_c, 0, 75, 64
2, 395996, Note_on_c, 0, 75, 0
2, 396000, Note_on_c, 0, 67, 64
2, 396236, Note_on_c, 0, 67, 0
2, 396240, Note_on_c, 0, 71, 64
2, 396476, Note_on_c, 0, 71, 0
2, 396480, Note_on_c, 0, 74, 64
2, 396716, Note_on_c, 0, 74, 0
2, 396720, Note_on_c, 0, 71, 64
2, 396956, Note_on_c, 0, 71, 0
2, 396960, Note_on_c, 0, 74, 64
2, 397196, Note_on_c, 0, 74, 0
2, 397200, Note_on_c, 0, 79, 64
2, 397436, Note_on_c, 0, 79, 0
2, 397440, Note_on_c, 0, 60, 64
2, 397676, Note_on_c, 0, 60, 0
2, 397680, Note_on_c, 0, 60, 64
2, 397916, Note_on_c, 0, 60, 0
2, 397920, Note_on_c, 0, 60, 64
2, 398156, Note_on_c, 0, 60, 0
2, 398160, Note_on_c, 0, 60, 64
2, 398396, Note_on_c, 0, 60, 0
2, 398400, Note_on_c, 0, 60, 64
2, 398636, Note_on_c, 0, 60, 0
2, 398640, Note_on_c, 0, 60, 64
2, 398876, Note_on_c, 0, 60, 0
2, 398880, Note_on_c, 0, 60, 64
2, 399116, Note_on_c, 0, 60, 0
2, 399120, Note_on_c, 0, 60, 64
2, 399356, Note_on_c, 0, 60, 0
2, 399360, Note_on_c, 0, 60, 64
2, 399596, Note_on_c, 0, 60, 0
2, 399600, Note_on_c, 0, 60, 64
2, 399836, Note_on_c, 0, 60, 0
2, 399840, Note_on_c, 0, 60, 64
2, 400076, Note_on_c, 0, 60, 0
2, 400080, Note_on_c, 0, 60, 64
2, 400316, Note_on_c, 0, 60, 0
2, 400320, Note_on_c, 0, 60, 64
2, 400556, Note_on_c, 0, 60, 0
2, 400560, Note_on_c, 0, 60, 64
2, 400796, Note_on_c, 0, 60, 0
2, 400800, Note_on_c, 0, 60, 64
2, 401036, Note_on_c, 0, 60, 0
2, 401040, Note_on_c, 0, 60, 64
2, 401276, Note_on_c, 0, 60, 0
2, 401280, Note_on_c, 0, 60, 64
2, 401516, Note_on_c, 0, 60, 0
2, 401520, Note_on_c, 0, 60, 64
2, 401756, Note_on_c, 0, 60, 0
2, 401760, Note_on_c, 0, 64, 64
2, 401996, Note_on_c, 0, 64, 0
2, 402000, Note_on_c, 0, 67, 64
2, 402236, Note_on_c, 0, 67, 0
2, 402240, Note_on_c, 0, 62, 64
2, 402476, Note_on_c, 0, 62, 0
2, 402480, Note_on_c, 0, 64, 64
2, 402716, Note_on_c, 0, 64, 0
2, 402720, Note_on_c, 0, 60, 64
2, 402956, Note_on_c, 0, 60, 0
2, 402960, Note_on_c, 0, 55, 64
2, 403196, Note_on_c, 0, 55, 0
2, 403200, Note_on_c, 0, 60, 64
2, 403436, Note_on_c, 0, 60, 0
2, 403440, Note_on_c, 0, 64, 64
2, 403676, Note_on_c, 0, 64, 0
2, 403680, Note_on_c, 0, 67, 64
2, 403916, Note_on_c, 0, 67, 0
2, 403920, Note_on_c, 0, 59, 64
2, 404156, Note_on_c, 0, 59, 0
2, 404160, Note_on_c, 0, 62, 64
2, 404396, Note_on_c, 0, 62, 0
2, 404400, Note_on_c, 0, 67, 64
2, 404636, Note_on_c, 0, 67, 0
2, 404640, Note_on_c, 0, 60, 64
2, 404876, Note_on_c, 0, 60, 0
2, 404880, Note_on_c, 0, 64, 64
2, 405116, Note_on_c, 0, 64, 0
2, 405120, Note_on_c, 0, 67, 64
2, 405356, Note_on_c, 0, 67, 0
2, 405360, Note_on_c, 0, 55, 64
2, 405596, Note_on_c, 0, 55, 0
2, 405600, Note_on_c, 0, 62, 64
2, 405836, Note_on_c, 0, 62, 0
2, 405840, Note_on_c, 0, 67, 64
2, 406076, Note_on_c, 0, 67, 0
2, 406080, Note_on_c, 0, 60, 64
2, 406196, Note_on_c, 0, 60, 0
2, 406200, Note_on_c, 0, 59, 64
2, 406316, Note_on_c, 0, 59, 0
2, 406320, Note_on_c, 0, 60, 64
2, 406436, Note_on_c, 0, 60, 0
2, 406440, Note_on_c, 0, 62, 64
2, 406556, Note_on_c, 0, 62, 0
2, 406560, Note_on_c, 0, 64, 64
2, 406676, Note_on_c, 0, 64, 0
2, 406680, Note_on_c, 0, 65, 64
2, 406796, Note_on_c, 0, 65, 0
2, 406800, Note_on_c, 0, 67, 64
2, 406916, Note_on_c, 0, 67, 0
2, 406920, Note_on_c, 0, 69, 64
2, 407036, Note_on_c, 0, 69, 0
2, 407040, Note_on_c, 0, 67, 64
2, 407156, Note_on_c, 0, 67, 0
2, 407160, Note_on_c, 0, 65, 64
2, 407276, Note_on_c, 0, 65, 0
2, 407280, Note_on_c, 0, 64, 64
2, 407396, Note_on_c, 0, 64, 0
2, 407400, Note_on_c, 0, 62, 64
2, 407516, Note_on_c, 0, 62, 0
2, 407520, Note_on_c, 0, 60, 64
2, 407756, Note_on_c, 0, 60, 0
2, 407760, Note_on_c, 0, 64, 64
2, 407996, Note_on_c, 0, 64, 0
2, 408000, Note_on_c, 0, 67, 64
2, 408236, Note_on_c, 0, 67, 0
2, 408240, Note_on_c, 0, 74, 64
2, 408476, Note_on_c, 0, 74, 0
2, 408480, Note_on_c, 0, 77, 64
2, 408716, Note_on_c, 0, 77, 0
2, 408720, Note_on_c, 0, 67, 64
2, 408956, Note_on_c, 0, 67, 0
2, 408960, Note_on_c, 0, 76, 64
2, 409196, Note_on_c, 0, 76, 0
2, 409200, Note_on_c, 0, 76, 64
2, 409436, Note_on_c, 0, 76, 0
2, 409440, Note_on_c, 0, 76, 64
2, 409676, Note_on_c, 0, 76, 0
2, 409680, Note_on_c, 0, 76, 64
2, 409916, Note_on_c, 0, 76, 0
2, 409920, Note_on_c, 0, 76, 64
2, 410156, Note_on_c, 0, 76, 0
2, 410160, Note_on_c, 0, 76, 64
2, 410396, Note_on_c, 0, 76, 0
2, 410400, Note_on_c, 0, 74, 64
2, 410636, Note_on_c, 0, 74, 0
2, 410640, Note_on_c, 0, 74, 64
2, 410876, Note_on_c, 0, 74, 0
2, 410880, Note_on_c, 0, 74, 64
2, 411116, Note_on_c, 0, 74, 0
2, 411120, Note_on_c, 0, 74, 64
2, 411356, Note_on_c, 0, 74, 0
2, 411360, Note_on_c, 0, 74, 64
2, 411596, Note_on_c, 0, 74, 0
2, 411600, Note_on_c, 0, 74, 64
2, 411836, Note_on_c, 0, 74, 0
2, 411840, Note_on_c, 0, 72, 64
2, 412076, Note_on_c, 0, 72, 0
2, 412080, Note_on_c, 0, 72, 64
2, 412316, Note_on_c, 0, 72, 0
2, 412320, Note_on_c, 0, 72, 64
2, 412556, Note_on_c, 0, 72, 0
2, 412560, Note_on_c, 0, 72, 64
2, 412796, Note_on_c, 0, 72, 0
2, 412800, Note_on_c, 0, 72, 64
2, 413036, Note_on_c, 0, 72, 0
2, 413040, Note_on_c, 0, 72, 64
2, 413276, Note_on_c, 0, 72, 0
2, 413280, Note_on_c, 0, 71, 64
2, 413396, Note_on_c, 0, 71, 0
2, 413400, Note_on_c, 0, 69, 64
2, 413516, Note_on_c, 0, 69, 0
2, 413520, Note_on_c, 0, 67, 64
2, 413636, Note_on_c, 0, 67, 0
2, 413640, Note_on_c, 0, 69, 64
2, 413756, Note_on_c, 0, 69, 0
2, 413760, Note_on_c, 0, 71, 64
2, 413876, Note_on_c, 0, 71, 0
2, 413880, Note_on_c, 0, 72, 64
2, 413996, Note_on_c, 0, 72, 0
2, 414000, Note_on_c, 0, 74, 64
2, 414116, Note_on_c, 0, 74, 0
2, 414120, Note_on_c, 0, 76, 64
2, 414236, Note_on_c, 0, 76, 0
2, 414240, Note_on_c, 0, 74, 64
2, 414356, Note_on_c, 0, 74, 0
2, 414360, Note_on_c, 0, 72, 64
2, 414476, Note_on_c, 0, 72, 0
2, 414480, Note_on_c, 0, 71, 64
2, 414596, Note_on_c, 0, 71, 0
2, 414600, Note_on_c, 0, 69, 64
2, 414716, Note_on_c, 0, 69, 0
2, 414720, Note_on_c, 0, 71, 64
2, 414956, Note_on_c, 0, 71, 0
2, 414960, Note_on_c, 0, 74, 64
2, 415196, Note_on_c, 0, 74, 0
2, 415200, Note_on_c, 0, 79, 64
2, 415436, Note_on_c, 0, 79, 0
2, 415440, Note_on_c, 0, 78, 64
2, 415556, Note_on_c, 0, 78, 0
2, 415560, Note_on_c, 0, 79, 64
2, 415676, Note_on_c, 0, 79, 0
2, 415680, Note_on_c, 0, 78, 64
2, 415796, Note_on_c, 0, 78, 0
2, 415800, Note_on_c, 0, 76, 64
2, 415916, Note_on_c, 0, 76, 0
2, 415920, Note_on_c, 0, 74, 64
2, 416036, Note_on_c, 0, 74, 0
2, 416040, Note_on_c, 0, 72, 64
2, 416156, Note_on_c, 0, 72, 0
2, 416160, Note_on_c, 0, 71, 64
2, 416396, Note_on_c, 0, 71, 0
2, 416400, Note_on_c, 0, 67, 64
2, 416636, Note_on_c, 0, 67, 0
2, 416640, Note_on_c, 0, 74, 64
2, 416876, Note_on_c, 0, 74, 0
2, 416880, Note_on_c, 0, 74, 64
2, 417116, Note_on_c, 0, 74, 0
2, 417120, Note_on_c, 0, 74, 64
2, 417356, Note_on_c, 0, 74, 0
2, 417360, Note_on_c, 0, 74, 64
2, 417596, Note_on_c, 0, 74, 0
2, 417600, Note_on_c, 0, 74, 64
2, 417836, Note_on_c, 0, 74, 0
2, 417840, Note_on_c, 0, 74, 64
2, 418076, Note_on_c, 0, 74, 0
2, 418080, Note_on_c, 0, 74, 64
2, 418316, Note_on_c, 0, 74, 0
2, 418320, Note_on_c, 0, 74, 64
2, 418556, Note_on_c, 0, 74, 0
2, 418560, Note_on_c, 0, 74, 64
2, 418796, Note_on_c, 0, 74, 0
2, 418800, Note_on_c, 0, 74, 64
2, 419036, Note_on_c, 0, 74, 0
2, 419040, Note_on_c, 0, 83, 64
2, 419156, Note_on_c, 0, 83, 0
2, 419160, Note_on_c, 0, 84, 64
2, 419276, Note_on_c, 0, 84, 0
2, 419280, Note_on_c, 0, 83, 64
2, 419396, Note_on_c, 0, 83, 0
2, 419400, Note_on_c, 0, 81, 64
2, 419516, Note_on_c, 0, 81, 0
2, 419520, Note_on_c, 0, 79, 64
2, 419636, Note_on_c, 0, 79, 0
2, 419640, Note_on_c, 0, 78, 64
2, 419756, Note_on_c, 0, 78, 0
2, 419760, Note_on_c, 0, 76, 64
2, 419876, Note_on_c, 0, 76, 0
2, 419880, Note_on_c, 0, 74, 64
2, 419996, Note_on_c, 0, 74, 0
2, 420000, Note_on_c, 0, 76, 64
2, 420116, Note_on_c, 0, 76, 0
2, 420120, Note_on_c, 0, 78, 64
2, 420236, Note_on_c, 0, 78, 0
2, 420240, Note_on_c, 0, 79, 64
2, 420356, Note_on_c, 0, 79, 0
2, 420360, Note_on_c, 0, 76, 64
2, 420476, Note_on_c, 0, 76, 0
2, 420480, Note_on_c, 0, 81, 64
2, 420596, Note_on_c, 0, 81, 0
2, 420600, Note_on_c, 0, 83, 64
2, 420716, Note_on_c, 0, 83, 0
2, 420720, Note_on_c, 0, 81, 64
2, 420836, Note_on_c, 0, 81, 0
2, 420840, Note_on_c, 0, 79, 64
2, 420956, Note_on_c, 0, 79, 0
2, 420960, Note_on_c, 0, 78, 64
2, 421076, Note_on_c, 0, 78, 0
2, 421080, Note_on_c, 0, 76, 64
2, 421196, Note_on_c, 0, 76, 0
2, 421200, Note_on_c, 0, 74, 64
2, 421316, Note_on_c, 0, 74, 0
2, 421320, Note_on_c, 0, 72, 64
2, 421436, Note_on_c, 0, 72, 0
2, 421440, Note_on_c, 0, 74, 64
2, 421556, Note_on_c, 0, 74, 0
2, 421560, Note_on_c, 0, 76, 64
2, 421676, Note_on_c, 0, 76, 0
2, 421680, Note_on_c, 0, 78, 64
2, 421796, Note_on_c, 0, 78, 0
2, 421800, Note_on_c, 0, 74, 64
2, 421916, Note_on_c, 0, 74, 0
2, 421920, Note_on_c, 0, 79, 64
2, 422036, Note_on_c, 0, 79, 0
2, 422040, Note_on_c, 0, 81, 64
2, 422156, Note_on_c, 0, 81, 0
2, 422160, Note_on_c, 0, 79, 64
2, 422276, Note_on_c, 0, 79, 0
2, 422280, Note_on_c, 0, 78, 64
2, 422396, Note_on_c, 0, 78, 0
2, 422400, Note_on_c, 0, 76, 64
2, 422516, Note_on_c, 0, 76, 0
2, 422520, Note_on_c, 0, 74, 64
2, 422636, Note_on_c, 0, 74, 0
2, 422640, Note_on_c, 0, 72, 64
2, 422756, Note_on_c, 0, 72, 0
2, 422760, Note_on_c, 0, 71, 64
2, 422876, Note_on_c, 0, 71, 0
2, 422880, Note_on_c, 0, 72, 64
2, 422996, Note_on_c, 0, 72, 0
2, 423000, Note_on_c, 0, 74, 64
2, 423116, Note_on_c, 0, 74, 0
2, 423120, Note_on_c, 0, 76, 64
2, 423236, Note_on_c, 0, 76, 0
2, 423240, Note_on_c, 0, 71, 64
2, 423356, Note_on_c, 0, 71, 0
2, 423360, Note_on_c, 0, 72, 64
2, 423596, Note_on_c, 0, 72, 0
2, 423600, Note_on_c, 0, 69, 64
2, 423836, Note_on_c, 0, 69, 0
2, 423840, Note_on_c, 0, 66, 64
2, 424076, Note_on_c, 0, 66, 0
2, 424080, Note_on_c, 0, 74, 64
2, 424316, Note_on_c, 0, 74, 0
2, 424320, Note_on_c, 0, 71, 64
2, 424556, Note_on_c, 0, 71, 0
2, 424560, Note_on_c, 0, 67, 64
2, 424796, Note_on_c, 0, 67, 0
2, 424800, Note_on_c, 0, 72, 64
2, 425036, Note_on_c, 0, 72, 0
2, 425040, Note_on_c, 0, 69, 64
2, 425276, Note_on_c, 0, 69, 0
2, 425280, Note_on_c, 0, 66, 64
2, 425516, Note_on_c, 0, 66, 0
2, 425520, Note_on_c, 0, 71, 64
2, 425756, Note_on_c, 0, 71, 0
2, 425760, Note_on_c, 0, 67, 64
2, 425996, Note_on_c, 0, 67, 0
2, 426000, Note_on_c, 0, 62, 64
2, 426236, Note_on_c, 0, 62, 0
2, 426240, Note_on_c, 0, 69, 64
2, 426476, Note_on_c, 0, 69, 0
2, 426480, Note_on_c, 0, 66, 64
2, 426716, Note_on_c, 0, 66, 0
2, 426720, Note_on_c, 0, 62, 64
2, 426956, Note_on_c, 0, 62, 0
2, 426960, Note_on_c, 0, 71, 64
2, 427196, Note_on_c, 0, 71, 0
2, 427200, Note_on_c, 0, 67, 64
2, 427436, Note_on_c, 0, 67, 0
2, 427440, Note_on_c, 0, 62, 64
2, 427676, Note_on_c, 0, 62, 0
2, 427680, Note_on_c, 0, 78, 64
2, 427796, Note_on_c, 0, 78, 0
2, 427800, Note_on_c, 0, 81, 64
2, 427916, Note_on_c, 0, 81, 0
2, 427920, Note_on_c, 0, 74, 64
2, 428036, Note_on_c, 0, 74, 0
2, 428040, Note_on_c, 0, 81, 64
2, 428156, Note_on_c, 0, 81, 0
2, 428160, Note_on_c, 0, 78, 64
2, 428276, Note_on_c, 0, 78, 0
2, 428280, Note_on_c, 0, 81, 64
2, 428396, Note_on_c, 0, 81, 0
2, 428400, Note_on_c, 0, 79, 64
2, 428516, Note_on_c, 0, 79, 0
2, 428520, Note_on_c, 0, 83, 64
2, 428636, Note_on_c, 0, 83, 0
2, 428640, Note_on_c, 0, 74, 64
2, 428756, Note_on_c, 0, 74, 0
2, 428760, Note_on_c, 0, 83, 64
2, 428876, Note_on_c, 0, 83, 0
2, 428880, Note_on_c, 0, 79, 64
2, 428996, Note_on_c, 0, 79, 0
2, 429000, Note_on_c, 0, 83, 64
2, 429116, Note_on_c, 0, 83, 0
2, 429120, Note_on_c, 0, 78, 64
2, 429356, Note_on_c, 0, 78, 0
2, 429360, Note_on_c, 0, 62, 64
2, 429596, Note_on_c, 0, 62, 0
2, 429600, Note_on_c, 0, 62, 64
2, 429836, Note_on_c, 0, 62, 0
2, 429840, Note_on_c, 0, 62, 64
2, 430076, Note_on_c, 0, 62, 0
2, 430080, Note_on_c, 0, 62, 64
2, 430316, Note_on_c, 0, 62, 0
2, 430320, Note_on_c, 0, 62, 64
2, 430556, Note_on_c, 0, 62, 0
2, 430560, Note_on_c, 0, 74, 64
2, 430676, Note_on_c, 0, 74, 0
2, 430680, Note_on_c, 0, 77, 64
2, 430796, Note_on_c, 0, 77, 0
2, 430800, Note_on_c, 0, 67, 64
2, 430916, Note_on_c, 0, 67, 0
2, 430920, Note_on_c, 0, 77, 64
2, 431036, Note_on_c, 0, 77, 0
2, 431040, Note_on_c, 0, 74, 64
2, 431156, Note_on_c, 0, 74, 0
2, 431160, Note_on_c, 0, 77, 64
2, 431276, Note_on_c, 0, 77, 0
2, 431280, Note_on_c, 0, 74, 64
2, 431396, Note_on_c, 0, 74, 0
2, 431400, Note_on_c, 0, 77, 64
2, 431516, Note_on_c, 0, 77, 0
2, 431520, Note_on_c, 0, 67, 64
2, 431636, Note_on_c, 0, 67, 0
2, 431640, Note_on_c, 0, 77, 64
2, 431756, Note_on_c, 0, 77, 0
2, 431760, Note_on_c, 0, 74, 64
2, 431876, Note_on_c, 0, 74, 0
2, 431880, Note_on_c, 0, 77, 64
2, 431996, Note_on_c, 0, 77, 0
2, 432000, Note_on_c, 0, 76, 64
2, 432116, Note_on_c, 0, 76, 0
2, 432120, Note_on_c, 0, 77, 64
2, 432236, Note_on_c, 0, 77, 0
2, 432240, Note_on_c, 0, 79, 64
2, 432356, Note_on_c, 0, 79, 0
2, 432360, Note_on_c, 0, 77, 64
2, 432476, Note_on_c, 0, 77, 0
2, 432480, Note_on_c, 0, 76, 64
2, 432596, Note_on_c, 0, 76, 0
2, 432600, Note_on_c, 0, 74, 64
2, 432716, Note_on_c, 0, 74, 0
2, 432720, Note_on_c, 0, 72, 64
2, 432836, Note_on_c, 0, 72, 0
2, 432840, Note_on_c, 0, 74, 64
2, 432956, Note_on_c, 0, 74, 0
2, 432960, Note_on_c, 0, 76, 64
2, 433076, Note_on_c, 0, 76, 0
2, 433080, Note_on_c, 0, 74, 64
2, 433196, Note_on_c, 0, 74, 0
2, 433200, Note_on_c, 0, 72, 64
2, 433316, Note_on_c, 0, 72, 0
2, 433320, Note_on_c, 0, 71, 64
2, 433436, Note_on_c, 0, 71, 0
2, 433440, Note_on_c, 0, 69, 64
2, 433556, Note_on_c, 0, 69, 0
2, 433560, Note_on_c, 0, 71, 64
2, 433676, Note_on_c, 0, 71, 0
2, 433680, Note_on_c, 0, 72, 64
2, 433796, Note_on_c, 0, 72, 0
2, 433800, Note_on_c, 0, 71, 64
2, 433916, Note_on_c, 0, 71, 0
2, 433920, Note_on_c, 0, 69, 64
2, 434036, Note_on_c, 0, 69, 0
2, 434040, Note_on_c, 0, 67, 64
2, 434156, Note_on_c, 0, 67, 0
2, 434160, Note_on_c, 0, 66, 64
2, 434276, Note_on_c, 0, 66, 0
2, 434280, Note_on_c, 0, 67, 64
2, 434396, Note_on_c, 0, 67, 0
2, 434400, Note_on_c, 0, 69, 64
2, 434516, Note_on_c, 0, 69, 0
2, 434520, Note_on_c, 0, 67, 64
2, 434636, Note_on_c, 0, 67, 0
2, 434640, Note_on_c, 0, 66, 64
2, 434756, Note_on_c, 0, 66, 0
2, 434760, Note_on_c, 0, 64, 64
2, 434876, Note_on_c, 0, 64, 0
2, 434880, Note_on_c, 0, 62, 64
2, 434996, Note_on_c, 0, 62, 0
2, 435000, Note_on_c, 0, 64, 64
2, 435116, Note_on_c, 0, 64, 0
2, 435120, Note_on_c, 0, 62, 64
2, 435236, Note_on_c, 0, 62, 0
2, 435240, Note_on_c, 0, 60, 64
2, 435356, Note_on_c, 0, 60, 0
2, 435360, Note_on_c, 0, 59, 64
2, 435476, Note_on_c, 0, 59, 0
2, 435480, Note_on_c, 0, 60, 64
2, 435596, Note_on_c, 0, 60, 0
2, 435600, Note_on_c, 0, 57, 64
2, 435716, Note_on_c, 0, 57, 0
2, 435720, Note_on_c, 0, 59, 64
2, 435836, Note_on_c, 0, 59, 0
2, 435840, Note_on_c, 0, 60, 64
2, 435956, Note_on_c, 0, 60, 0
2, 435960, Note_on_c, 0, 62, 64
2, 436076, Note_on_c, 0, 62, 0
2, 436080, Note_on_c, 0, 64, 64
2, 436196, Note_on_c, 0, 64, 0
2, 436200, Note_on_c, 0, 66, 64
2, 436316, Note_on_c, 0, 66, 0
2, 436320, Note_on_c, 0, 67, 64
2, 436436, Note_on_c, 0, 67, 0
2, 436440, Note_on_c, 0, 71, 64
2, 436556, Note_on_c, 0, 71, 0
2, 436560, Note_on_c, 0, 74, 64
2, 436676, Note_on_c, 0, 74, 0
2, 436680, Note_on_c, 0, 67, 64
2, 436796, Note_on_c, 0, 67, 0
2, 436800, Note_on_c, 0, 71, 64
2, 436916, Note_on_c, 0, 71, 0
2, 436920, Note_on_c, 0, 74, 64
2, 437036, Note_on_c, 0, 74, 0
2, 437040, Note_on_c, 0, 79, 64
2, 437156, Note_on_c, 0, 79, 0
2, 437160, Note_on_c, 0, 74, 64
2, 437276, Note_on_c, 0, 74, 0
2, 437280, Note_on_c, 0, 71, 64
2, 437396, Note_on_c, 0, 71, 0
2, 437400, Note_on_c, 0, 67, 64
2, 437516, Note_on_c, 0, 67, 0
2, 437520, Note_on_c, 0, 55, 64
2, 437756, Note_on_c, 0, 55, 0
2, 437760, Note_on_c, 0, 62, 64
2, 437996, Note_on_c, 0, 62, 0
2, 438000, Note_on_c, 0, 66, 64
2, 438236, Note_on_c, 0, 66, 0
2, 438240, Note_on_c, 0, 69, 64
2, 438476, Note_on_c, 0, 69, 0
2, 438480, Note_on_c, 0, 61, 64
2, 438716, Note_on_c, 0, 61, 0
2, 438720, Note_on_c, 0, 64, 64
2, 438956, Note_on_c, 0, 64, 0
2, 438960, Note_on_c, 0, 69, 64
2, 439196, Note_on_c, 0, 69, 0
2, 439200, Note_on_c, 0, 62, 64
2, 439436, Note_on_c, 0, 62, 0
2, 439440, Note_on_c, 0, 66, 64
2, 439676, Note_on_c, 0, 66, 0
2, 439680, Note_on_c, 0, 69, 64
2, 439916, Note_on_c, 0, 69, 0
2, 439920, Note_on_c, 0, 57, 64
2, 440156, Note_on_c, 0, 57, 0
2, 440160, Note_on_c, 0, 64, 64
2, 440396, Note_on_c, 0, 64, 0
2, 440400, Note_on_c, 0, 69, 64
2, 440636, Note_on_c, 0, 69, 0
2, 440640, Note_on_c, 0, 71, 64
2, 440876, Note_on_c, 0, 71, 0
2, 440880, Note_on_c, 0, 71, 64
2, 441116, Note_on_c, 0, 71, 0
2, 441120, Note_on_c, 0, 71, 64
2, 441356, Note_on_c, 0, 71, 0
2, 441360, Note_on_c, 0, 71, 64
2, 441596, Note_on_c, 0, 71, 0
2, 441600, Note_on_c, 0, 71, 64
2, 441836, Note_on_c, 0, 71, 0
2, 441840, Note_on_c, 0, 71, 64
2, 442076, Note_on_c, 0, 71, 0
2, 442080, Note_on_c, 0, 71, 64
2, 442316, Note_on_c, 0, 71, 0
2, 442320, Note_on_c, 0, 71, 64
2, 442556, Note_on_c, 0, 71, 0
2, 442560, Note_on_c, 0, 71, 64
2, 442796, Note_on_c, 0, 71, 0
2, 442800, Note_on_c, 0, 71, 64
2, 443036, Note_on_c, 0, 71, 0
2, 443040, Note_on_c, 0, 71, 64
2, 443276, Note_on_c, 0, 71, 0
2, 443280, Note_on_c, 0, 71, 64
2, 443516, Note_on_c, 0, 71, 0
2, 443520, Note_on_c, 0, 76, 64
2, 443636, Note_on_c, 0, 76, 0
2, 443640, Note_on_c, 0, 78, 64
2, 443756, Note_on_c, 0, 78, 0
2, 443760, Note_on_c, 0, 79, 64
2, 443876, Note_on_c, 0, 79, 0
2, 443880, Note_on_c, 0, 76, 64
2, 443996, Note_on_c, 0, 76, 0
2, 444000, Note_on_c, 0, 75, 64
2, 444116, Note_on_c, 0, 75, 0
2, 444120, Note_on_c, 0, 76, 64
2, 444236, Note_on_c, 0, 76, 0
2, 444240, Note_on_c, 0, 72, 64
2, 444356, Note_on_c, 0, 72, 0
2, 444360, Note_on_c, 0, 76, 64
2, 444476, Note_on_c, 0, 76, 0
2, 444480, Note_on_c, 0, 79, 64
2, 444596, Note_on_c, 0, 79, 0
2, 444600, Note_on_c, 0, 76, 64
2, 444716, Note_on_c, 0, 76, 0
2, 444720, Note_on_c, 0, 75, 64
2, 444836, Note_on_c, 0, 75, 0
2, 444840, Note_on_c, 0, 76, 64
2, 444956, Note_on_c, 0, 76, 0
2, 444960, Note_on_c, 0, 71, 64
2, 445076, Note_on_c, 0, 71, 0
2, 445080, Note_on_c, 0, 76, 64
2, 445136, Note_on_c, 0, 76, 0
2, 445140, Note_on_c, 0, 78, 64
2, 445196, Note_on_c, 0, 78, 0
2, 445200, Note_on_c, 0, 79, 64
2, 445316, Note_on_c, 0, 79, 0
2, 445320, Note_on_c, 0, 76, 64
2, 445436, Note_on_c, 0, 76, 0
2, 445440, Note_on_c, 0, 75, 64
2, 445556, Note_on_c, 0, 75, 0
2, 445560, Note_on_c, 0, 76, 64
2, 445676, Note_on_c, 0, 76, 0
2, 445680, Note_on_c, 0, 69, 64
2, 445796, Note_on_c, 0, 69, 0
2, 445800, Note_on_c, 0, 76, 64
2, 445916, Note_on_c, 0, 76, 0
2, 445920, Note_on_c, 0, 79, 64
2, 446036, Note_on_c, 0, 79, 0
2, 446040, Note_on_c, 0, 76, 64
2, 446156, Note_on_c, 0, 76, 0
2, 446160, Note_on_c, 0, 75, 64
2, 446276, Note_on_c, 0, 75, 0
2, 446280, Note_on_c, 0, 76, 64
2, 446396, Note_on_c, 0, 76, 0
2, 446400, Note_on_c, 0, 71, 64
2, 446516, Note_on_c, 0, 71, 0
2, 446520, Note_on_c, 0, 76, 64
2, 446576, Note_on_c, 0, 76, 0
2, 446580, Note_on_c, 0, 78, 64
2, 446636, Note_on_c, 0, 78, 0
2, 446640, Note_on_c, 0, 79, 64
2, 446756, Note_on_c, 0, 79, 0
2, 446760, Note_on_c, 0, 76, 64
2, 446876, Note_on_c, 0, 76, 0
2, 446880, Note_on_c, 0, 75, 64
2, 446996, Note_on_c, 0, 75, 0
2, 447000, Note_on_c, 0, 76, 64
2, 447116, Note_on_c, 0, 76, 0
2, 447120, Note_on_c, 0, 72, 64
2, 447236, Note_on_c, 0, 72, 0
2, 447240, Note_on_c, 0, 76, 64
2, 447356, Note_on_c, 0, 76, 0
2, 447360, Note_on_c, 0, 79, 64
2, 447476, Note_on_c, 0, 79, 0
2, 447480, Note_on_c, 0, 76, 64
2, 447596, Note_on_c, 0, 76, 0
2, 447600, Note_on_c, 0, 75, 64
2, 447716, Note_on_c, 0, 75, 0
2, 447720, Note_on_c, 0, 76, 64
2, 447836, Note_on_c, 0, 76, 0
2, 447840, Note_on_c, 0, 71, 64
2, 447956, Note_on_c, 0, 71, 0
2, 447960, Note_on_c, 0, 76, 64
2, 448016, Note_on_c, 0, 76, 0
2, 448020, Note_on_c, 0, 78, 64
2, 448076, Note_on_c, 0, 78, 0
2, 448080, Note_on_c, 0, 79, 64
2, 448196, Note_on_c, 0, 79, 0
2, 448200, Note_on_c, 0, 76, 64
2, 448316, Note_on_c, 0, 76, 0
2, 448320, Note_on_c, 0, 71, 64
2, 448436, Note_on_c, 0, 71, 0
2, 448440, Note_on_c, 0, 75, 64
2, 448556, Note_on_c, 0, 75, 0
2, 448560, Note_on_c, 0, 76, 64
2, 448676, Note_on_c, 0, 76, 0
2, 448680, Note_on_c, 0, 72, 64
2, 448796, Note_on_c, 0, 72, 0
2, 448800, Note_on_c, 0, 71, 64
2, 448916, Note_on_c, 0, 71, 0
2, 448920, Note_on_c, 0, 69, 64
2, 449036, Note_on_c, 0, 69, 0
2, 449040, Note_on_c, 0, 67, 64
2, 449156, Note_on_c, 0, 67, 0
2, 449160, Note_on_c, 0, 66, 64
2, 449276, Note_on_c, 0, 66, 0
2, 449280, Note_on_c, 0, 64, 64
2, 449396, Note_on_c, 0, 64, 0
2, 449400, Note_on_c, 0, 63, 64
2, 449516, Note_on_c, 0, 63, 0
2, 449520, Note_on_c, 0, 64, 64
2, 449636, Note_on_c, 0, 64, 0
2, 449640, Note_on_c, 0, 66, 64
2, 449756, Note_on_c, 0, 66, 0
2, 449760, Note_on_c, 0, 67, 64
2, 449876, Note_on_c, 0, 67, 0
2, 449880, Note_on_c, 0, 69, 64
2, 449996, Note_on_c, 0, 69, 0
2, 450000, Note_on_c, 0, 71, 64
2, 450116, Note_on_c, 0, 71, 0
2, 450120, Note_on_c, 0, 72, 64
2, 450236, Note_on_c, 0, 72, 0
2, 450240, Note_on_c, 0, 71, 64
2, 450356, Note_on_c, 0, 71, 0
2, 450360, Note_on_c, 0, 69, 64
2, 450476, Note_on_c, 0, 69, 0
2, 450480, Note_on_c, 0, 67, 64
2, 450596, Note_on_c, 0, 67, 0
2, 450600, Note_on_c, 0, 66, 64
2, 450716, Note_on_c, 0, 66, 0
2, 450720, Note_on_c, 0, 67, 64
2, 450956, Note_on_c, 0, 67, 0
2, 450960, Note_on_c, 0, 71, 64
2, 451196, Note_on_c, 0, 71, 0
2, 451200, Note_on_c, 0, 76, 64
2, 451436, Note_on_c, 0, 76, 0
2, 451440, Note_on_c, 0, 75, 64
2, 451556, Note_on_c, 0, 75, 0
2, 451560, Note_on_c, 0, 76, 64
2, 451676, Note_on_c, 0, 76, 0
2, 451680, Note_on_c, 0, 75, 64
2, 451796, Note_on_c, 0, 75, 0
2, 451800, Note_on_c, 0, 73, 64
2, 451916, Note_on_c, 0, 73, 0
2, 451920, Note_on_c, 0, 71, 64
2, 452036, Note_on_c, 0, 71, 0
2, 452040, Note_on_c, 0, 69, 64
2, 452156, Note_on_c, 0, 69, 0
2, 452160, Note_on_c, 0, 67, 64
2, 452396, Note_on_c, 0, 67, 0
2, 452400, Note_on_c, 0, 64, 64
2, 452636, Note_on_c, 0, 64, 0
2, 452640, Note_on_c, 0, 83, 64
2, 452876, Note_on_c, 0, 83, 0
2, 452880, Note_on_c, 0, 83, 64
2, 453116, Note_on_c, 0, 83, 0
2, 453120, Note_on_c, 0, 83, 64
2, 453356, Note_on_c, 0, 83, 0
2, 453360, Note_on_c, 0, 83, 64
2, 453596, Note_on_c, 0, 83, 0
2, 453600, Note_on_c, 0, 83, 64
2, 453836, Note_on_c, 0, 83, 0
2, 453840, Note_on_c, 0, 83, 64
2, 454076, Note_on_c, 0, 83, 0
2, 454080, Note_on_c, 0, 83, 64
2, 454316, Note_on_c, 0, 83, 0
2, 454320, Note_on_c, 0, 83, 64
2, 454556, Note_on_c, 0, 83, 0
2, 454560, Note_on_c, 0, 83, 64
2, 454796, Note_on_c, 0, 83, 0
2, 454800, Note_on_c, 0, 83, 64
2, 455036, Note_on_c, 0, 83, 0
2, 455040, Note_on_c, 0, 79, 64
2, 455156, Note_on_c, 0, 79, 0
2, 455160, Note_on_c, 0, 81, 64
2, 455276, Note_on_c, 0, 81, 0
2, 455280, Note_on_c, 0, 79, 64
2, 455396, Note_on_c, 0, 79, 0
2, 455400, Note_on_c, 0, 78, 64
2, 455516, Note_on_c, 0, 78, 0
2, 455520, Note_on_c, 0, 76, 64
2, 455636, Note_on_c, 0, 76, 0
2, 455640, Note_on_c, 0, 74, 64
2, 455756, Note_on_c, 0, 74, 0
2, 455760, Note_on_c, 0, 73, 64
2, 455876, Note_on_c, 0, 73, 0
2, 455880, Note_on_c, 0, 71, 64
2, 455996, Note_on_c, 0, 71, 0
2, 456000, Note_on_c, 0, 73, 64
2, 456116, Note_on_c, 0, 73, 0
2, 456120, Note_on_c, 0, 74, 64
2, 456236, Note_on_c, 0, 74, 0
2, 456240, Note_on_c, 0, 76, 64
2, 456356, Note_on_c, 0, 76, 0
2, 456360, Note_on_c, 0, 73, 64
2, 456476, Note_on_c, 0, 73, 0
2, 456480, Note_on_c, 0, 78, 64
2, 456596, Note_on_c, 0, 78, 0
2, 456600, Note_on_c, 0, 79, 64
2, 456716, Note_on_c, 0, 79, 0
2, 456720, Note_on_c, 0, 78, 64
2, 456836, Note_on_c, 0, 78, 0
2, 456840, Note_on_c, 0, 76, 64
2, 456956, Note_on_c, 0, 76, 0
2, 456960, Note_on_c, 0, 74, 64
2, 457076, Note_on_c, 0, 74, 0
2, 457080, Note_on_c, 0, 73, 64
2, 457196, Note_on_c, 0, 73, 0
2, 457200, Note_on_c, 0, 71, 64
2, 457316, Note_on_c, 0, 71, 0
2, 457320, Note_on_c, 0, 70, 64
2, 457436, Note_on_c, 0, 70, 0
2, 457440, Note_on_c, 0, 71, 64
2, 457556, Note_on_c, 0, 71, 0
2, 457560, Note_on_c, 0, 73, 64
2, 457676, Note_on_c, 0, 73, 0
2, 457680, Note_on_c, 0, 74, 64
2, 457796, Note_on_c, 0, 74, 0
2, 457800, Note_on_c, 0, 71, 64
2, 457916, Note_on_c, 0, 71, 0
2, 457920, Note_on_c, 0, 76, 64
2, 458036, Note_on_c, 0, 76, 0
2, 458040, Note_on_c, 0, 78, 64
2, 458156, Note_on_c, 0, 78, 0
2, 458160, Note_on_c, 0, 76, 64
2, 458276, Note_on_c, 0, 76, 0
2, 458280, Note_on_c, 0, 74, 64
2, 458396, Note_on_c, 0, 74, 0
2, 458400, Note_on_c, 0, 73, 64
2, 458516, Note_on_c, 0, 73, 0
2, 458520, Note_on_c, 0, 71, 64
2, 458636, Note_on_c, 0, 71, 0
2, 458640, Note_on_c, 0, 70, 64
2, 458756, Note_on_c, 0, 70, 0
2, 458760, Note_on_c, 0, 68, 64
2, 458876, Note_on_c, 0, 68, 0
2, 458880, Note_on_c, 0, 70, 64
2, 458996, Note_on_c, 0, 70, 0
2, 459000, Note_on_c, 0, 71, 64
2, 459116, Note_on_c, 0, 71, 0
2, 459120, Note_on_c, 0, 73, 64
2, 459236, Note_on_c, 0, 73, 0
2, 459240, Note_on_c, 0, 70, 64
2, 459356, Note_on_c, 0, 70, 0
2, 459360, Note_on_c, 0, 71, 64
2, 459596, Note_on_c, 0, 71, 0
2, 459600, Note_on_c, 0, 74, 64
2, 459836, Note_on_c, 0, 74, 0
2, 459840, Note_on_c, 0, 78, 64
2, 460076, Note_on_c, 0, 78, 0
2, 460080, Note_on_c, 0, 70, 64
2, 460316, Note_on_c, 0, 70, 0
2, 460320, Note_on_c, 0, 73, 64
2, 460556, Note_on_c, 0, 73, 0
2, 460560, Note_on_c, 0, 78, 64
2, 460796, Note_on_c, 0, 78, 0
2, 460800, Note_on_c, 0, 71, 64
2, 461036, Note_on_c, 0, 71, 0
2, 461040, Note_on_c, 0, 74, 64
2, 461276, Note_on_c, 0, 74, 0
2, 461280, Note_on_c, 0, 78, 64
2, 461516, Note_on_c, 0, 78, 0
2, 461520, Note_on_c, 0, 66, 64
2, 461756, Note_on_c, 0, 66, 0
2, 461760, Note_on_c, 0, 73, 64
2, 461996, Note_on_c, 0, 73, 0
2, 462000, Note_on_c, 0, 78, 64
2, 462236, Note_on_c, 0, 78, 0
2, 462240, Note_on_c, 0, 71, 64
2, 462356, Note_on_c, 0, 71, 0
2, 462360, Note_on_c, 0, 70, 64
2, 462476, Note_on_c, 0, 70, 0
2, 462480, Note_on_c, 0, 71, 64
2, 462596, Note_on_c, 0, 71, 0
2, 462600, Note_on_c, 0, 73, 64
2, 462716, Note_on_c, 0, 73, 0
2, 462720, Note_on_c, 0, 74, 64
2, 462836, Note_on_c, 0, 74, 0
2, 462840, Note_on_c, 0, 76, 64
2, 462956, Note_on_c, 0, 76, 0
2, 462960, Note_on_c, 0, 78, 64
2, 463076, Note_on_c, 0, 78, 0
2, 463080, Note_on_c, 0, 79, 64
2, 463196, Note_on_c, 0, 79, 0
2, 463200, Note_on_c, 0, 78, 64
2, 463316, Note_on_c, 0, 78, 0
2, 463320, Note_on_c, 0, 76, 64
2, 463436, Note_on_c, 0, 76, 0
2, 463440, Note_on_c, 0, 74, 64
2, 463556, Note_on_c, 0, 74, 0
2, 463560, Note_on_c, 0, 73, 64
2, 463676, Note_on_c, 0, 73, 0
2, 463680, Note_on_c, 0, 71, 64
2, 463916, Note_on_c, 0, 71, 0
2, 463920, Note_on_c, 0, 74, 64
2, 464156, Note_on_c, 0, 74, 0
2, 464160, Note_on_c, 0, 66, 64
2, 464396, Note_on_c, 0, 66, 0
2, 464400, Note_on_c, 0, 73, 64
2, 464636, Note_on_c, 0, 73, 0
2, 464640, Note_on_c, 0, 76, 64
2, 464876, Note_on_c, 0, 76, 0
2, 464880, Note_on_c, 0, 66, 64
2, 465116, Note_on_c, 0, 66, 0
2, 465120, Note_on_c, 0, 74, 64
2, 465356, Note_on_c, 0, 74, 0
2, 465360, Note_on_c, 0, 74, 64
2, 465596, Note_on_c, 0, 74, 0
2, 465600, Note_on_c, 0, 74, 64
2, 465836, Note_on_c, 0, 74, 0
2, 465840, Note_on_c, 0, 74, 64
2, 466076, Note_on_c, 0, 74, 0
2, 466080, Note_on_c, 0, 74, 64
2, 466316, Note_on_c, 0, 74, 0
2, 466320, Note_on_c, 0, 74, 64
2, 466556, Note_on_c, 0, 74, 0
2, 466560, Note_on_c, 0, 73, 64
2, 466796, Note_on_c, 0, 73, 0
2, 466800, Note_on_c, 0, 73, 64
2, 467036, Note_on_c, 0, 73, 0
2, 467040, Note_on_c, 0, 73, 64
2, 467276, Note_on_c, 0, 73, 0
2, 467280, Note_on_c, 0, 73, 64
2, 467516, Note_on_c, 0, 73, 0
2, 467520, Note_on_c, 0, 73, 64
2, 467756, Note_on_c, 0, 73, 0
2, 467760, Note_on_c, 0, 73, 64
2, 467996, Note_on_c, 0, 73, 0
2, 468000, Note_on_c, 0, 71, 64
2, 468236, Note_on_c, 0, 71, 0
2, 468240, Note_on_c, 0, 71, 64
2, 468476, Note_on_c, 0, 71, 0
2, 468480, Note_on_c, 0, 71, 64
2, 468716, Note_on_c, 0, 71, 0
2, 468720, Note_on_c, 0, 71, 64
2, 468956, Note_on_c, 0, 71, 0
2, 468960, Note_on_c, 0, 71, 64
2, 469196, Note_on_c, 0, 71, 0
2, 469200, Note_on_c, 0, 71, 64
2, 469436, Note_on_c, 0, 71, 0
2, 469440, Note_on_c, 0, 70, 64
2, 469556, Note_on_c, 0, 70, 0
2, 469560, Note_on_c, 0, 73, 64
2, 469676, Note_on_c, 0, 73, 0
2, 469680, Note_on_c, 0, 66, 64
2, 469796, Note_on_c, 0, 66, 0
2, 469800, Note_on_c, 0, 73, 64
2, 469916, Note_on_c, 0, 73, 0
2, 469920, Note_on_c, 0, 70, 64
2, 470036, Note_on_c, 0, 70, 0
2, 470040, Note_on_c, 0, 73, 64
2, 470156, Note_on_c, 0, 73, 0
2, 470160, Note_on_c, 0, 71, 64
2, 470276, Note_on_c, 0, 71, 0
2, 470280, Note_on_c, 0, 74, 64
2, 470396, Note_on_c, 0, 74, 0
2, 470400, Note_on_c, 0, 66, 64
2, 470516, Note_on_c, 0, 66, 0
2, 470520, Note_on_c, 0, 74, 64
2, 470636, Note_on_c, 0, 74, 0
2, 470640, Note_on_c, 0, 71, 64
2, 470756, Note_on_c, 0, 71, 0
2, 470760, Note_on_c, 0, 74, 64
2, 470876, Note_on_c, 0, 74, 0
2, 470880, Note_on_c, 0, 73, 64
2, 470996, Note_on_c, 0, 73, 0
2, 471000, Note_on_c, 0, 76, 64
2, 471116, Note_on_c, 0, 76, 0
2, 471120, Note_on_c, 0, 66, 64
2, 471236, Note_on_c, 0, 66, 0
2, 471240, Note_on_c, 0, 76, 64
2, 471356, Note_on_c, 0, 76, 0
2, 471360, Note_on_c, 0, 73, 64
2, 471476, Note_on_c, 0, 73, 0
2, 471480, Note_on_c, 0, 76, 64
2, 471596, Note_on_c, 0, 76, 0
2, 471600, Note_on_c, 0, 74, 64
2, 471716, Note_on_c, 0, 74, 0
2, 471720, Note_on_c, 0, 78, 64
2, 471836, Note_on_c, 0, 78, 0
2, 471840, Note_on_c, 0, 66, 64
2, 471956, Note_on_c, 0, 66, 0
2, 471960, Note_on_c, 0, 78, 64
2, 472076, Note_on_c, 0, 78, 0
2, 472080, Note_on_c, 0, 74, 64
2, 472196, Note_on_c, 0, 74, 0
2, 472200, Note_on_c, 0, 78, 64
2, 472316, Note_on_c, 0, 78, 0
2, 472320, Note_on_c, 0, 76, 64
2, 472436, Note_on_c, 0, 76, 0
2, 472440, Note_on_c, 0, 70, 64
2, 472556, Note_on_c, 0, 70, 0
2, 472560, Note_on_c, 0, 76, 64
2, 472676, Note_on_c, 0, 76, 0
2, 472680, Note_on_c, 0, 70, 64
2, 472796, Note_on_c, 0, 70, 0
2, 472800, Note_on_c, 0, 76, 64
2, 472916, Note_on_c, 0, 76, 0
2, 472920, Note_on_c, 0, 70, 64
2, 473036, Note_on_c, 0, 70, 0
2, 473040, Note_on_c, 0, 74, 64
2, 473156, Note_on_c, 0, 74, 0
2, 473160, Note_on_c, 0, 71, 64
2, 473276, Note_on_c, 0, 71, 0
2, 473280, Note_on_c, 0, 74, 64
2, 473396, Note_on_c, 0, 74, 0
2, 473400, Note_on_c, 0, 71, 64
2, 473516, Note_on_c, 0, 71, 0
2, 473520, Note_on_c, 0, 74, 64
2, 473636, Note_on_c, 0, 74, 0
2, 473640, Note_on_c, 0, 71, 64
2, 473756, Note_on_c, 0, 71, 0
2, 473760, Note_on_c, 0, 73, 64
2, 473876, Note_on_c, 0, 73, 0
2, 473880, Note_on_c, 0, 66, 64
2, 473996, Note_on_c, 0, 66, 0
2, 474000, Note_on_c, 0, 73, 64
2, 474116, Note_on_c, 0, 73, 0
2, 474120, Note_on_c, 0, 66, 64
2, 474236, Note_on_c, 0, 66, 0
2, 474240, Note_on_c, 0, 73, 64
2, 474356, Note_on_c, 0, 73, 0
2, 474360, Note_on_c, 0, 66, 64
2, 474476, Note_on_c, 0, 66, 0
2, 474480, Note_on_c, 0, 71, 64
2, 474596, Note_on_c, 0, 71, 0
2, 474600, Note_on_c, 0, 66, 64
2, 474716, Note_on_c, 0, 66, 0
2, 474720, Note_on_c, 0, 71, 64
2, 474836, Note_on_c, 0, 71, 0
2, 474840, Note_on_c, 0, 66, 64
2, 474956, Note_on_c, 0, 66, 0
2, 474960, Note_on_c, 0, 71, 64
2, 475076, Note_on_c, 0, 71, 0
2, 475080, Note_on_c, 0, 66, 64
2, 475196, Note_on_c, 0, 66, 0
2, 475200, Note_on_c, 0, 70, 64
2, 475436, Note_on_c, 0, 70, 0
2, 475440, Note_on_c, 0, 66, 64
2, 475676, Note_on_c, 0, 66, 0
2, 475680, Note_on_c, 0, 66, 64
2, 475916, Note_on_c, 0, 66, 0
2, 475920, Note_on_c, 0, 66, 64
2, 476156, Note_on_c, 0, 66, 0
2, 476160, Note_on_c, 0, 66, 64
2, 476396, Note_on_c, 0, 66, 0
2, 476400, Note_on_c, 0, 66, 64
2, 476636, Note_on_c, 0, 66, 0
2, 476640, Note_on_c, 0, 78, 64
2, 476756, Note_on_c, 0, 78, 0
2, 476760, Note_on_c, 0, 81, 64
2, 476876, Note_on_c, 0, 81, 0
2, 476880, Note_on_c, 0, 71, 64
2, 476996, Note_on_c, 0, 71, 0
2, 477000, Note_on_c, 0, 81, 64
2, 477116, Note_on_c, 0, 81, 0
2, 477120, Note_on_c, 0, 78, 64
2, 477236, Note_on_c, 0, 78, 0
2, 477240, Note_on_c, 0, 81, 64
2, 477356, Note_on_c, 0, 81, 0
2, 477360, Note_on_c, 0, 78, 64
2, 477476, Note_on_c, 0, 78, 0
2, 477480, Note_on_c, 0, 81, 64
2, 477596, Note_on_c, 0, 81, 0
2, 477600, Note_on_c, 0, 71, 64
2, 477716, Note_on_c, 0, 71, 0
2, 477720, Note_on_c, 0, 81, 64
2, 477836, Note_on_c, 0, 81, 0
2, 477840, Note_on_c, 0, 78, 64
2, 477956, Note_on_c, 0, 78, 0
2, 477960, Note_on_c, 0, 81, 64
2, 478076, Note_on_c, 0, 81, 0
2, 478080, Note_on_c, 0, 79, 64
2, 478196, Note_on_c, 0, 79, 0
2, 478200, Note_on_c, 0, 81, 64
2, 478316, Note_on_c, 0, 81, 0
2, 478320, Note_on_c, 0, 83, 64
2, 478436, Note_on_c, 0, 83, 0
2, 478440, Note_on_c, 0, 81, 64
2, 478556, Note_on_c, 0, 81, 0
2, 478560, Note_on_c, 0, 79, 64
2, 478676, Note_on_c, 0, 79, 0
2, 478680, Note_on_c, 0, 78, 64
2, 478796, Note_on_c, 0, 78, 0
2, 478800, Note_on_c, 0, 76, 64
2, 478916, Note_on_c, 0, 76, 0
2, 478920, Note_on_c, 0, 78, 64
2, 479036, Note_on_c, 0, 78, 0
2, 479040, Note_on_c, 0, 79, 64
2, 479156, Note_on_c, 0, 79, 0
2, 479160, Note_on_c, 0, 78, 64
2, 479276, Note_on_c, 0, 78, 0
2, 479280, Note_on_c, 0, 76, 64
2, 479396, Note_on_c, 0, 76, 0
2, 479400, Note_on_c, 0, 74, 64
2, 479516, Note_on_c, 0, 74, 0
2, 479520, Note_on_c, 0, 73, 64
2, 479636, Note_on_c, 0, 73, 0
2, 479640, Note_on_c, 0, 74, 64
2, 479756, Note_on_c, 0, 74, 0
2, 479760, Note_on_c, 0, 76, 64
2, 479876, Note_on_c, 0, 76, 0
2, 479880, Note_on_c, 0, 74, 64
2, 479996, Note_on_c, 0, 74, 0
2, 480000, Note_on_c, 0, 73, 64
2, 480116, Note_on_c, 0, 73, 0
2, 480120, Note_on_c, 0, 71, 64
2, 480236, Note_on_c, 0, 71, 0
2, 480240, Note_on_c, 0, 70, 64
2, 480356, Note_on_c, 0, 70, 0
2, 480360, Note_on_c, 0, 71, 64
2, 480476, Note_on_c, 0, 71, 0
2, 480480, Note_on_c, 0, 73, 64
2, 480596, Note_on_c, 0, 73, 0
2, 480600, Note_on_c, 0, 71, 64
2, 480716, Note_on_c, 0, 71, 0
2, 480720, Note_on_c, 0, 70, 64
2, 480836, Note_on_c, 0, 70, 0
2, 480840, Note_on_c, 0, 68, 64
2, 480956, Note_on_c, 0, 68, 0
2, 480960, Note_on_c, 0, 66, 64
2, 481076, Note_on_c, 0, 66, 0
2, 481080, Note_on_c, 0, 67, 64
2, 481196, Note_on_c, 0, 67, 0
2, 481200, Note_on_c, 0, 66, 64
2, 481316, Note_on_c, 0, 66, 0
2, 481320, Note_on_c, 0, 64, 64
2, 481436, Note_on_c, 0, 64, 0
2, 481440, Note_on_c, 0, 62, 64
2, 481556, Note_on_c, 0, 62, 0
2, 481560, Note_on_c, 0, 64, 64
2, 481676, Note_on_c, 0, 64, 0
2, 481680, Note_on_c, 0, 61, 64
2, 481796, Note_on_c, 0, 61, 0
2, 481800, Note_on_c, 0, 62, 64
2, 481916, Note_on_c, 0, 62, 0
2, 481920, Note_on_c, 0, 64, 64
2, 482036, Note_on_c, 0, 64, 0
2, 482040, Note_on_c, 0, 66, 64
2, 482156, Note_on_c, 0, 66, 0
2, 482160, Note_on_c, 0, 68, 64
2, 482276, Note_on_c, 0, 68, 0
2, 482280, Note_on_c, 0, 70, 64
2, 482396, Note_on_c, 0, 70, 0
2, 482400, Note_on_c, 0, 71, 64
2, 482516, Note_on_c, 0, 71, 0
2, 482520, Note_on_c, 0, 67, 64
2, 482636, Note_on_c, 0, 67, 0
2, 482640, Note_on_c, 0, 66, 64
2, 482756, Note_on_c, 0, 66, 0
2, 482760, Note_on_c, 0, 64, 64
2, 482876, Note_on_c, 0, 64, 0
2, 482880, Note_on_c, 0, 62, 64
2, 482996, Note_on_c, 0, 62, 0
2, 483000, Note_on_c, 0, 61, 64
2, 483116, Note_on_c, 0, 61, 0
2, 483120, Note_on_c, 0, 59, 64
2, 483236, Note_on_c, 0, 59, 0
2, 483240, Note_on_c, 0, 61, 64
2, 483356, Note_on_c, 0, 61, 0
2, 483360, Note_on_c, 0, 62, 64
2, 483476, Note_on_c, 0, 62, 0
2, 483480, Note_on_c, 0, 64, 64
2, 483596, Note_on_c, 0, 64, 0
2, 483600, Note_on_c, 0, 66, 64
2, 483716, Note_on_c, 0, 66, 0
2, 483720, Note_on_c, 0, 67, 64
2, 483836, Note_on_c, 0, 67, 0
2, 483840, Note_on_c, 0, 69, 64
2, 484076, Note_on_c, 0, 69, 0
2, 484080, Note_on_c, 0, 69, 64
2, 484316, Note_on_c, 0, 69, 0
2, 484320, Note_on_c, 0, 69, 64
2, 484556, Note_on_c, 0, 69, 0
2, 484560, Note_on_c, 0, 69, 64
2, 484796, Note_on_c, 0, 69, 0
2, 484800, Note_on_c, 0, 69, 64
2, 485036, Note_on_c, 0, 69, 0
2, 485040, Note_on_c, 0, 69, 64
2, 485276, Note_on_c, 0, 69, 0
2, 485280, Note_on_c, 0, 69, 64
2, 485396, Note_on_c, 0, 69, 0
2, 485400, Note_on_c, 0, 72, 64
2, 485516, Note_on_c, 0, 72, 0
2, 485520, Note_on_c, 0, 71, 64
2, 485636, Note_on_c, 0, 71, 0
2, 485640, Note_on_c, 0, 69, 64
2, 485756, Note_on_c, 0, 69, 0
2, 485760, Note_on_c, 0, 67, 64
2, 485876, Note_on_c, 0, 67, 0
2, 485880, Note_on_c, 0, 66, 64
2, 485996, Note_on_c, 0, 66, 0
2, 486000, Note_on_c, 0, 67, 64
2, 486116, Note_on_c, 0, 67, 0
2, 486120, Note_on_c, 0, 66, 64
2, 486236, Note_on_c, 0, 66, 0
2, 486240, Note_on_c, 0, 64, 64
2, 486356, Note_on_c, 0, 64, 0
2, 486360, Note_on_c, 0, 66, 64
2, 486476, Note_on_c, 0, 66, 0
2, 486480, Note_on_c, 0, 67, 64
2, 486596, Note_on_c, 0, 67, 0
2, 486600, Note_on_c, 0, 69, 64
2, 486716, Note_on_c, 0, 69, 0
2, 486720, Note_on_c, 0, 71, 64
2, 486836, Note_on_c, 0, 71, 0
2, 486840, Note_on_c, 0, 72, 64
2, 486956, Note_on_c, 0, 72, 0
2, 486960, Note_on_c, 0, 74, 64
2, 487076, Note_on_c, 0, 74, 0
2, 487080, Note_on_c, 0, 72, 64
2, 487196, Note_on_c, 0, 72, 0
2, 487200, Note_on_c, 0, 71, 64
2, 487316, Note_on_c, 0, 71, 0
2, 487320, Note_on_c, 0, 69, 64
2, 487436, Note_on_c, 0, 69, 0
2, 487440, Note_on_c, 0, 68, 64
2, 487556, Note_on_c, 0, 68, 0
2, 487560, Note_on_c, 0, 69, 64
2, 487676, Note_on_c, 0, 69, 0
2, 487680, Note_on_c, 0, 71, 64
2, 487796, Note_on_c, 0, 71, 0
2, 487800, Note_on_c, 0, 69, 64
2, 487916, Note_on_c, 0, 69, 0
2, 487920, Note_on_c, 0, 68, 64
2, 488036, Note_on_c, 0, 68, 0
2, 488040, Note_on_c, 0, 66, 64
2, 488156, Note_on_c, 0, 66, 0
2, 488160, Note_on_c, 0, 64, 64
2, 488276, Note_on_c, 0, 64, 0
2, 488280, Note_on_c, 0, 67, 64
2, 488396, Note_on_c, 0, 67, 0
2, 488400, Note_on_c, 0, 69, 64
2, 488516, Note_on_c, 0, 69, 0
2, 488520, Note_on_c, 0, 71, 64
2, 488636, Note_on_c, 0, 71, 0
2, 488640, Note_on_c, 0, 73, 64
2, 488756, Note_on_c, 0, 73, 0
2, 488760, Note_on_c, 0, 74, 64
2, 488876, Note_on_c, 0, 74, 0
2, 488880, Note_on_c, 0, 76, 64
2, 488996, Note_on_c, 0, 76, 0
2, 489000, Note_on_c, 0, 74, 64
2, 489116, Note_on_c, 0, 74, 0
2, 489120, Note_on_c, 0, 72, 64
2, 489236, Note_on_c, 0, 72, 0
2, 489240, Note_on_c, 0, 71, 64
2, 489356, Note_on_c, 0, 71, 0
2, 489360, Note_on_c, 0, 72, 64
2, 489476, Note_on_c, 0, 72, 0
2, 489480, Note_on_c, 0, 69, 64
2, 489596, Note_on_c, 0, 69, 0
2, 489600, Note_on_c, 0, 77, 64
2, 489836, Note_on_c, 0, 77, 0
2, 489840, Note_on_c, 0, 77, 64
2, 490076, Note_on_c, 0, 77, 0
2, 490080, Note_on_c, 0, 77, 64
2, 490316, Note_on_c, 0, 77, 0
2, 490320, Note_on_c, 0, 77, 64
2, 490436, Note_on_c, 0, 77, 0
2, 490440, Note_on_c, 0, 67, 64
2, 490556, Note_on_c, 0, 67, 0
2, 490560, Note_on_c, 0, 71, 64
2, 490676, Note_on_c, 0, 71, 0
2, 490680, Note_on_c, 0, 74, 64
2, 490796, Note_on_c, 0, 74, 0
2, 490800, Note_on_c, 0, 71, 64
2, 490916, Note_on_c, 0, 71, 0
2, 490920, Note_on_c, 0, 67, 64
2, 491036, Note_on_c, 0, 67, 0
2, 491040, Note_on_c, 0, 76, 64
2, 491276, Note_on_c, 0, 76, 0
2, 491280, Note_on_c, 0, 76, 64
2, 491516, Note_on_c, 0, 76, 0
2, 491520, Note_on_c, 0, 76, 64
2, 491756, Note_on_c, 0, 76, 0
2, 491760, Note_on_c, 0, 76, 64
2, 491876, Note_on_c, 0, 76, 0
2, 491880, Note_on_c, 0, 65, 64
2, 491996, Note_on_c, 0, 65, 0
2, 492000, Note_on_c, 0, 69, 64
2, 492116, Note_on_c, 0, 69, 0
2, 492120, Note_on_c, 0, 72, 64
2, 492236, Note_on_c, 0, 72, 0
2, 492240, Note_on_c, 0, 69, 64
2, 492356, Note_on_c, 0, 69, 0
2, 492360, Note_on_c, 0, 65, 64
2, 492476, Note_on_c, 0, 65, 0
2, 492480, Note_on_c, 0, 79, 64
2, 492716, Note_on_c, 0, 79, 0
2, 492720, Note_on_c, 0, 79, 64
2, 492956, Note_on_c, 0, 79, 0
2, 492960, Note_on_c, 0, 79, 64
2, 493196, Note_on_c, 0, 79, 0
2, 493200, Note_on_c, 0, 79, 64
2, 493436, Note_on_c, 0, 79, 0
2, 493440, Note_on_c, 0, 79, 64
2, 493676, Note_on_c, 0, 79, 0
2, 493680, Note_on_c, 0, 79, 64
2, 493916, Note_on_c, 0, 79, 0
2, 493920, Note_on_c, 0, 79, 64
2, 494156, Note_on_c, 0, 79, 0
2, 494160, Note_on_c, 0, 79, 64
2, 494396, Note_on_c, 0, 79, 0
2, 494400, Note_on_c, 0, 79, 64
2, 494636, Note_on_c, 0, 79, 0
2, 494640, Note_on_c, 0, 79, 64
2, 494876, Note_on_c, 0, 79, 0
2, 494880, Note_on_c, 0, 79, 64
2, 495116, Note_on_c, 0, 79, 0
2, 495120, Note_on_c, 0, 79, 64
2, 495356, Note_on_c, 0, 79, 0
2, 495360, Note_on_c, 0, 79, 64
2, 495596, Note_on_c, 0, 79, 0
2, 495600, Note_on_c, 0, 79, 64
2, 495836, Note_on_c, 0, 79, 0
2, 495840, Note_on_c, 0, 79, 64
2, 496076, Note_on_c, 0, 79, 0
2, 496080, Note_on_c, 0, 79, 64
2, 496316, Note_on_c, 0, 79, 0
2, 496320, Note_on_c, 0, 79, 64
2, 496556, Note_on_c, 0, 79, 0
2, 496560, Note_on_c, 0, 79, 64
2, 496796, Note_on_c, 0, 79, 0
2, 496800, Note_on_c, 0, 79, 64
2, 497036, Note_on_c, 0, 79, 0
2, 497040, Note_on_c, 0, 79, 64
2, 497276, Note_on_c, 0, 79, 0
2, 497280, Note_on_c, 0, 79, 64
2, 497516, Note_on_c, 0, 79, 0
2, 497520, Note_on_c, 0, 79, 64
2, 497756, Note_on_c, 0, 79, 0
2, 497760, Note_on_c, 0, 79, 64
2, 497996, Note_on_c, 0, 79, 0
2, 498000, Note_on_c, 0, 79, 64
2, 498236, Note_on_c, 0, 79, 0
2, 498240, Note_on_c, 0, 72, 64
2, 498356, Note_on_c, 0, 72, 0
2, 498360, Note_on_c, 0, 75, 64
2, 498476, Note_on_c, 0, 75, 0
2, 498480, Note_on_c, 0, 69, 64
2, 498596, Note_on_c, 0, 69, 0
2, 498600, Note_on_c, 0, 75, 64
2, 498716, Note_on_c, 0, 75, 0
2, 498720, Note_on_c, 0, 72, 64
2, 498836, Note_on_c, 0, 72, 0
2, 498840, Note_on_c, 0, 71, 64
2, 498956, Note_on_c, 0, 71, 0
2, 498960, Note_on_c, 0, 72, 64
2, 499076, Note_on_c, 0, 72, 0
2, 499080, Note_on_c, 0, 75, 64
2, 499196, Note_on_c, 0, 75, 0
2, 499200, Note_on_c, 0, 69, 64
2, 499316, Note_on_c, 0, 69, 0
2, 499320, Note_on_c, 0, 75, 64
2, 499436, Note_on_c, 0, 75, 0
2, 499440, Note_on_c, 0, 72, 64
2, 499556, Note_on_c, 0, 72, 0
2, 499560, Note_on_c, 0, 75, 64
2, 499676, Note_on_c, 0, 75, 0
2, 499680, Note_on_c, 0, 67, 64
2, 499916, Note_on_c, 0, 67, 0
2, 499920, Note_on_c, 0, 71, 64
2, 500156, Note_on_c, 0, 71, 0
2, 500160, Note_on_c, 0, 74, 64
2, 500396, Note_on_c, 0, 74, 0
2, 500400, Note_on_c, 0, 71, 64
2, 500636, Note_on_c, 0, 71, 0
2, 500640, Note_on_c, 0, 74, 64
2, 500876, Note_on_c, 0, 74, 0
2, 500880, Note_on_c, 0, 79, 64
2, 501116, Note_on_c, 0, 79, 0
2, 501120, Note_on_c, 0, 60, 64
2, 501356, Note_on_c, 0, 60, 0
2, 501360, Note_on_c, 0, 60, 64
2, 501596, Note_on_c, 0, 60, 0
2, 501600, Note_on_c, 0, 60, 64
2, 501836, Note_on_c, 0, 60, 0
2, 501840, Note_on_c, 0, 60, 64
2, 502076, Note_on_c, 0, 60, 0
2, 502080, Note_on_c, 0, 60, 64
2, 502316, Note_on_c, 0, 60, 0
2, 502320, Note_on_c, 0, 60, 64
2, 502556, Note_on_c, 0, 60, 0
2, 502560, Note_on_c, 0, 60, 64
2, 502796, Note_on_c, 0, 60, 0
2, 502800, Note_on_c, 0, 60, 64
2, 503036, Note_on_c, 0, 60, 0
2, 503040, Note_on_c, 0, 60, 64
2, 503276, Note_on_c, 0, 60, 0
2, 503280, Note_on_c, 0, 60, 64
2, 503516, Note_on_c, 0, 60, 0
2, 503520, Note_on_c, 0, 60, 64
2, 503756, Note_on_c, 0, 60, 0
2, 503760, Note_on_c, 0, 60, 64
2, 503996, Note_on_c, 0, 60, 0
2, 504000, Note_on_c, 0, 60, 64
2, 504236, Note_on_c, 0, 60, 0
2, 504240, Note_on_c, 0, 60, 64
2, 504476, Note_on_c, 0, 60, 0
2, 504480, Note_on_c, 0, 60, 64
2, 504716, Note_on_c, 0, 60, 0
2, 504720, Note_on_c, 0, 60, 64
2, 504956, Note_on_c, 0, 60, 0
2, 504960, Note_on_c, 0, 60, 64
2, 505196, Note_on_c, 0, 60, 0
2, 505200, Note_on_c, 0, 60, 64
2, 505436, Note_on_c, 0, 60, 0
2, 505440, Note_on_c, 0, 64, 64
2, 505676, Note_on_c, 0, 64, 0
2, 505680, Note_on_c, 0, 67, 64
2, 505916, Note_on_c, 0, 67, 0
2, 505920, Note_on_c, 0, 62, 64
2, 506156, Note_on_c, 0, 62, 0
2, 506160, Note_on_c, 0, 64, 64
2, 506396, Note_on_c, 0, 64, 0
2, 506400, Note_on_c, 0, 60, 64
2, 506636, Note_on_c, 0, 60, 0
2, 506640, Note_on_c, 0, 55, 64
2, 506876, Note_on_c, 0, 55, 0
2, 506880, Note_on_c, 0, 60, 64
2, 507116, Note_on_c, 0, 60, 0
2, 507120, Note_on_c, 0, 64, 64
2, 507356, Note_on_c, 0, 64, 0
2, 507360, Note_on_c, 0, 67, 64
2, 507596, Note_on_c, 0, 67, 0
2, 507600, Note_on_c, 0, 59, 64
2, 507836, Note_on_c, 0, 59, 0
2, 507840, Note_on_c, 0, 62, 64
2, 508076, Note_on_c, 0, 62, 0
2, 508080, Note_on_c, 0, 67, 64
2, 508316, Note_on_c, 0, 67, 0
2, 508320, Note_on_c, 0, 60, 64
2, 508556, Note_on_c, 0, 60, 0
2, 508560, Note_on_c, 0, 64, 64
2, 508796, Note_on_c, 0, 64, 0
2, 508800, Note_on_c, 0, 67, 64
2, 509036, Note_on_c, 0, 67, 0
2, 509040, Note_on_c, 0, 55, 64
2, 509276, Note_on_c, 0, 55, 0
2, 509280, Note_on_c, 0, 62, 64
2, 509516, Note_on_c, 0, 62, 0
2, 509520, Note_on_c, 0, 67, 64
2, 509756, Note_on_c, 0, 67, 0
2, 509760, Note_on_c, 0, 60, 64
2, 509876, Note_on_c, 0, 60, 0
2, 509880, Note_on_c, 0, 59, 64
2, 509996, Note_on_c, 0, 59, 0
2, 510000, Note_on_c, 0, 60, 64
2, 510116, Note_on_c, 0, 60, 0
2, 510120, Note_on_c, 0, 62, 64
2, 510236, Note_on_c, 0, 62, 0
2, 510240, Note_on_c, 0, 64, 64
2, 510356, Note_on_c, 0, 64, 0
2, 510360, Note_on_c, 0, 65, 64
2, 510476, Note_on_c, 0, 65, 0
2, 510480, Note_on_c, 0, 67, 64
2, 510596, Note_on_c, 0, 67, 0
2, 510600, Note_on_c, 0, 69, 64
2, 510716, Note_on_c, 0, 69, 0
2, 510720, Note_on_c, 0, 67, 64
2, 510836, Note_on_c, 0, 67, 0
2, 510840, Note_on_c, 0, 65, 64
2, 510956, Note_on_c, 0, 65, 0
2, 510960, Note_on_c, 0, 64, 64
2, 511076, Note_on_c, 0, 64, 0
2, 511080, Note_on_c, 0, 62, 64
2, 511196, Note_on_c, 0, 62, 0
2, 511200, Note_on_c, 0, 60, 64
2, 511436, Note_on_c, 0, 60, 0
2, 511440, Note_on_c, 0, 64, 64
2, 511676, Note_on_c, 0, 64, 0
2, 511680, Note_on_c, 0, 67, 64
2, 511916, Note_on_c, 0, 67, 0
2, 511920, Note_on_c, 0, 74, 64
2, 512156, Note_on_c, 0, 74, 0
2, 512160, Note_on_c, 0, 77, 64
2, 512396, Note_on_c, 0, 77, 0
2, 512400, Note_on_c, 0, 67, 64
2, 512636, Note_on_c, 0, 67, 0
2, 512640, Note_on_c, 0, 76, 64
2, 512876, Note_on_c, 0, 76, 0
2, 512880, Note_on_c, 0, 76, 64
2, 513116, Note_on_c, 0, 76, 0
2, 513120, Note_on_c, 0, 76, 64
2, 513356, Note_on_c, 0, 76, 0
2, 513360, Note_on_c, 0, 76, 64
2, 513596, Note_on_c, 0, 76, 0
2, 513600, Note_on_c, 0, 76, 64
2, 513836, Note_on_c, 0, 76, 0
2, 513840, Note_on_c, 0, 76, 64
2, 514076, Note_on_c, 0, 76, 0
2, 514080, Note_on_c, 0, 74, 64
2, 514316, Note_on_c, 0, 74, 0
2, 514320, Note_on_c, 0, 74, 64
2, 514556, Note_on_c, 0, 74, 0
2, 514560, Note_on_c, 0, 74, 64
2, 514796, Note_on_c, 0, 74, 0
2, 514800, Note_on_c, 0, 74, 64
2, 515036, Note_on_c, 0, 74, 0
2, 515040, Note_on_c, 0, 74, 64
2, 515276, Note_on_c, 0, 74, 0
2, 515280, Note_on_c, 0, 74, 64
2, 515516, Note_on_c, 0, 74, 0
2, 515520, Note_on_c, 0, 72, 64
2, 515756, Note_on_c, 0, 72, 0
2, 515760, Note_on_c, 0, 72, 64
2, 515996, Note_on_c, 0, 72, 0
2, 516000, Note_on_c, 0, 72, 64
2, 516236, Note_on_c, 0, 72, 0
2, 516240, Note_on_c, 0, 72, 64
2, 516476, Note_on_c, 0, 72, 0
2, 516480, Note_on_c, 0, 72, 64
2, 516716, Note_on_c, 0, 72, 0
2, 516720, Note_on_c, 0, 72, 64
2, 516956, Note_on_c, 0, 72, 0
2, 516960, Note_on_c, 0, 71, 64
2, 517076, Note_on_c, 0, 71, 0
2, 517080, Note_on_c, 0, 69, 64
2, 517196, Note_on_c, 0, 69, 0
2, 517200, Note_on_c, 0, 67, 64
2, 517316, Note_on_c, 0, 67, 0
2, 517320, Note_on_c, 0, 69, 64
2, 517436, Note_on_c, 0, 69, 0
2, 517440, Note_on_c, 0, 71, 64
2, 517556, Note_on_c, 0, 71, 0
2, 517560, Note_on_c, 0, 72, 64
2, 517676, Note_on_c, 0, 72, 0
2, 517680, Note_on_c, 0, 74, 64
2, 517796, Note_on_c, 0, 74, 0
2, 517800, Note_on_c, 0, 76, 64
2, 517916, Note_on_c, 0, 76, 0
2, 517920, Note_on_c, 0, 74, 64
2, 518036, Note_on_c, 0, 74, 0
2, 518040, Note_on_c, 0, 72, 64
2, 518156, Note_on_c, 0, 72, 0
2, 518160, Note_on_c, 0, 71, 64
2, 518276, Note_on_c, 0, 71, 0
2, 518280, Note_on_c, 0, 69, 64
2, 518396, Note_on_c, 0, 69, 0
2, 518400, Note_on_c, 0, 71, 64
2, 518636, Note_on_c, 0, 71, 0
2, 518640, Note_on_c, 0, 74, 64
2, 518876, Note_on_c, 0, 74, 0
2, 518880, Note_on_c, 0, 79, 64
2, 519116, Note_on_c, 0, 79, 0
2, 519120, Note_on_c, 0, 78, 64
2, 519236, Note_on_c, 0, 78, 0
2, 519240, Note_on_c, 0, 79, 64
2, 519356, Note_on_c, 0, 79, 0
2, 519360, Note_on_c, 0, 78, 64
2, 519476, Note_on_c, 0, 78, 0
2, 519480, Note_on_c, 0, 76, 64
2, 519596, Note_on_c, 0, 76, 0
2, 519600, Note_on_c, 0, 74, 64
2, 519716, Note_on_c, 0, 74, 0
2, 519720, Note_on_c, 0, 72, 64
2, 519836, Note_on_c, 0, 72, 0
2, 519840, Note_on_c, 0, 71, 64
2, 520076, Note_on_c, 0, 71, 0
2, 520080, Note_on_c, 0, 67, 64
2, 520316, Note_on_c, 0, 67, 0
2, 520320, Note_on_c, 0, 74, 64
2, 520556, Note_on_c, 0, 74, 0
2, 520560, Note_on_c, 0, 74, 64
2, 520796, Note_on_c, 0, 74, 0
2, 520800, Note_on_c, 0, 74, 64
2, 521036, Note_on_c, 0, 74, 0
2, 521040, Note_on_c, 0, 74, 64
2, 521276, Note_on_c, 0, 74, 0
2, 521280, Note_on_c, 0, 74, 64
2, 521516, Note_on_c, 0, 74, 0
2, 521520, Note_on_c, 0, 74, 64
2, 521756, Note_on_c, 0, 74, 0
2, 521760, Note_on_c, 0, 74, 64
2, 521996, Note_on_c, 0, 74, 0
2, 522000, Note_on_c, 0, 74, 64
2, 522236, Note_on_c, 0, 74, 0
2, 522240, Note_on_c, 0, 74, 64
2, 522476, Note_on_c, 0, 74, 0
2, 522480, Note_on_c, 0, 74, 64
2, 522716, Note_on_c, 0, 74, 0
2, 522720, Note_on_c, 0, 83, 64
2, 522836, Note_on_c, 0, 83, 0
2, 522840, Note_on_c, 0, 84, 64
2, 522956, Note_on_c, 0, 84, 0
2, 522960, Note_on_c, 0, 83, 64
2, 523076, Note_on_c, 0, 83, 0
2, 523080, Note_on_c, 0, 81, 64
2, 523196, Note_on_c, 0, 81, 0
2, 523200, Note_on_c, 0, 79, 64
2, 523316, Note_on_c, 0, 79, 0
2, 523320, Note_on_c, 0, 78, 64
2, 523436, Note_on_c, 0, 78, 0
2, 523440, Note_on_c, 0, 76, 64
2, 523556, Note_on_c, 0, 76, 0
2, 523560, Note_on_c, 0, 74, 64
2, 523676, Note_on_c, 0, 74, 0
2, 523680, Note_on_c, 0, 76, 64
2, 523796, Note_on_c, 0, 76, 0
2, 523800, Note_on_c, 0, 78, 64
2, 523916, Note_on_c, 0, 78, 0
2, 523920, Note_on_c, 0, 79, 64
2, 524036, Note_on_c, 0, 79, 0
2, 524040, Note_on_c, 0, 76, 64
2, 524156, Note_on_c, 0, 76, 0
2, 524160, Note_on_c, 0, 81, 64
2, 524276, Note_on_c, 0, 81, 0
2, 524280, Note_on_c, 0, 83, 64
2, 524396, Note_on_c, 0, 83, 0
2, 524400, Note_on_c, 0, 81, 64
2, 524516, Note_on_c, 0, 81, 0
2, 524520, Note_on_c, 0, 79, 64
2, 524636, Note_on_c, 0, 79, 0
2, 524640, Note_on_c, 0, 78, 64
2, 524756, Note_on_c, 0, 78, 0
2, 524760, Note_on_c, 0, 76, 64
2, 524876, Note_on_c, 0, 76, 0
2, 524880, Note_on_c, 0, 74, 64
2, 524996, Note_on_c, 0, 74, 0
2, 525000, Note_on_c, 0, 72, 64
2, 525116, Note_on_c, 0, 72, 0
2, 525120, Note_on_c, 0, 74, 64
2, 525236, Note_on_c, 0, 74, 0
2, 525240, Note_on_c, 0, 76, 64
2, 525356, Note_on_c, 0, 76, 0
2, 525360, Note_on_c, 0, 78, 64
2, 525476, Note_on_c, 0, 78, 0
2, 525480, Note_on_c, 0, 74, 64
2, 525596, Note_on_c, 0, 74, 0
2, 525600, Note_on_c, 0, 79, 64
2, 525716, Note_on_c, 0, 79, 0
2, 525720, Note_on_c, 0, 81, 64
2, 525836, Note_on_c, 0, 81, 0
2, 525840, Note_on_c, 0, 79, 64
2, 525956, Note_on_c, 0, 79, 0
2, 525960, Note_on_c, 0, 78, 64
2, 526076, Note_on_c, 0, 78, 0
2, 526080, Note_on_c, 0, 76, 64
2, 526196, Note_on_c, 0, 76, 0
2, 526200, Note_on_c, 0, 74, 64
2, 526316, Note_on_c, 0, 74, 0
2, 526320, Note_on_c, 0, 72, 64
2, 526436, Note_on_c, 0, 72, 0
2, 526440, Note_on_c, 0, 71, 64
2, 526556, Note_on_c, 0, 71, 0
2, 526560, Note_on_c, 0, 72, 64
2, 526676, Note_on_c, 0, 72, 0
2, 526680, Note_on_c, 0, 74, 64
2, 526796, Note_on_c, 0, 74, 0
2, 526800, Note_on_c, 0, 76, 64
2, 526916, Note_on_c, 0, 76, 0
2, 526920, Note_on_c, 0, 71, 64
2, 527036, Note_on_c, 0, 71, 0
2, 527040, Note_on_c, 0, 72, 64
2, 527276, Note_on_c, 0, 72, 0
2, 527280, Note_on_c, 0, 69, 64
2, 527516, Note_on_c, 0, 69, 0
2, 527520, Note_on_c, 0, 66, 64
2, 527756, Note_on_c, 0, 66, 0
2, 527760, Note_on_c, 0, 74, 64
2, 527996, Note_on_c, 0, 74, 0
2, 528000, Note_on_c, 0, 71, 64
2, 528236, Note_on_c, 0, 71, 0
2, 528240, Note_on_c, 0, 67, 64
2, 528476, Note_on_c, 0, 67, 0
2, 528480, Note_on_c, 0, 72, 64
2, 528716, Note_on_c, 0, 72, 0
2, 528720, Note_on_c, 0, 69, 64
2, 528956, Note_on_c, 0, 69, 0
2, 528960, Note_on_c, 0, 66, 64
2, 529196, Note_on_c, 0, 66, 0
2, 529200, Note_on_c, 0, 71, 64
2, 529436, Note_on_c, 0, 71, 0
2, 529440, Note_on_c, 0, 67, 64
2, 529676, Note_on_c, 0, 67, 0
2, 529680, Note_on_c, 0, 62, 64
2, 529916, Note_on_c, 0, 62, 0
2, 529920, Note_on_c, 0, 69, 64
2, 530156, Note_on_c, 0, 69, 0
2, 530160, Note_on_c, 0, 66, 64
2, 530396, Note_on_c, 0, 66, 0
2, 530400, Note_on_c, 0, 62, 64
2, 530636, Note_on_c, 0, 62, 0
2, 530640, Note_on_c, 0, 71, 64
2, 530876, Note_on_c, 0, 71, 0
2, 530880, Note_on_c, 0, 67, 64
2, 531116, Note_on_c, 0, 67, 0
2, 531120, Note_on_c, 0, 62, 64
2, 531356, Note_on_c, 0, 62, 0
2, 531360, Note_on_c, 0, 78, 64
2, 531476, Note_on_c, 0, 78, 0
2, 531480, Note_on_c, 0, 81, 64
2, 531596, Note_on_c, 0, 81, 0
2, 531600, Note_on_c, 0, 74, 64
2, 531716, Note_on_c, 0, 74, 0
2, 531720, Note_on_c, 0, 81, 64
2, 531836, Note_on_c, 0, 81, 0
2, 531840, Note_on_c, 0, 78, 64
2, 531956, Note_on_c, 0, 78, 0
2, 531960, Note_on_c, 0, 81, 64
2, 532076, Note_on_c, 0, 81, 0
2, 532080, Note_on_c, 0, 79, 64
2, 532196, Note_on_c, 0, 79, 0
2, 532200, Note_on_c, 0, 83, 64
2, 532316, Note_on_c, 0, 83, 0
2, 532320, Note_on_c, 0, 74, 64
2, 532436, Note_on_c, 0, 74, 0
2, 532440, Note_on_c, 0, 83, 64
2, 532556, Note_on_c, 0, 83, 0
2, 532560, Note_on_c, 0, 79, 64
2, 532676, Note_on_c, 0, 79, 0
2, 532680, Note_on_c, 0, 83, 64
2, 532796, Note_on_c, 0, 83, 0
2, 532800, Note_on_c, 0, 78, 64
2, 533036, Note_on_c, 0, 78, 0
2, 533040, Note_on_c, 0, 62, 64
2, 533276, Note_on_c, 0, 62, 0
2, 533280, Note_on_c, 0, 62, 64
2, 533516, Note_on_c, 0, 62, 0
2, 533520, Note_on_c, 0, 62, 64
2, 533756, Note_on_c, 0, 62, 0
2, 533760, Note_on_c, 0, 62, 64
2, 533996, Note_on_c, 0, 62, 0
2, 534000, Note_on_c, 0, 62, 64
2, 534236, Note_on_c, 0, 62, 0
2, 534240, Note_on_c, 0, 74, 64
2, 534356, Note_on_c, 0, 74, 0
2, 534360, Note_on_c, 0, 77, 64
2, 534476, Note_on_c, 0, 77, 0
2, 534480, Note_on_c, 0, 67, 64
2, 534596, Note_on_c, 0, 67, 0
2, 534600, Note_on_c, 0, 77, 64
2, 534716, Note_on_c, 0, 77, 0
2, 534720, Note_on_c, 0, 74, 64
2, 534836, Note_on_c, 0, 74, 0
2, 534840, Note_on_c, 0, 77, 64
2, 534956, Note_on_c, 0, 77, 0
2, 534960, Note_on_c, 0, 74, 64
2, 535076, Note_on_c, 0, 74, 0
2, 535080, Note_on_c, 0, 77, 64
2, 535196, Note_on_c, 0, 77, 0
2, 535200, Note_on_c, 0, 67, 64
2, 535316, Note_on_c, 0, 67, 0
2, 535320, Note_on_c, 0, 77, 64
2, 535436, Note_on_c, 0, 77, 0
2, 535440, Note_on_c, 0, 74, 64
2, 535556, Note_on_c, 0, 74, 0
2, 535560, Note_on_c, 0, 77, 64
2, 535676, Note_on_c, 0, 77, 0
2, 535680, Note_on_c, 0, 76, 64
2, 535796, Note_on_c, 0, 76, 0
2, 535800, Note_on_c, 0, 77, 64
2, 535916, Note_on_c, 0, 77, 0
2, 535920, Note_on_c, 0, 79, 64
2, 536036, Note_on_c, 0, 79, 0
2, 536040, Note_on_c, 0, 77, 64
2, 536156, Note_on_c, 0, 77, 0
2, 536160, Note_on_c, 0, 76, 64
2, 536276, Note_on_c, 0, 76, 0
2, 536280, Note_on_c, 0, 74, 64
2, 536396, Note_on_c, 0, 74, 0
2, 536400, Note_on_c, 0, 72, 64
2, 536516, Note_on_c, 0, 72, 0
2, 536520, Note_on_c, 0, 74, 64
2, 536636, Note_on_c, 0, 74, 0
2, 536640, Note_on_c, 0, 76, 64
2, 536756, Note_on_c, 0, 76, 0
2, 536760, Note_on_c, 0, 74, 64
2, 536876, Note_on_c, 0, 74, 0
2, 536880, Note_on_c, 0, 72, 64
2, 536996, Note_on_c, 0, 72, 0
2, 537000, Note_on_c, 0, 71, 64
2, 537116, Note_on_c, 0, 71, 0
2, 537120, Note_on_c, 0, 69, 64
2, 537236, Note_on_c, 0, 69, 0
2, 537240, Note_on_c, 0, 71, 64
2, 537356, Note_on_c, 0, 71, 0
2, 537360, Note_on_c, 0, 72, 64
2, 537476, Note_on_c, 0, 72, 0
2, 537480, Note_on_c, 0, 71, 64
2, 537596, Note_on_c, 0, 71, 0
2, 537600, Note_on_c, 0, 69, 64
2, 537716, Note_on_c, 0, 69, 0
2, 537720, Note_on_c, 0, 67, 64
2, 537836, Note_on_c, 0, 67, 0
2, 537840, Note_on_c, 0, 66, 64
2, 537956, Note_on_c, 0, 66, 0
2, 537960, Note_on_c, 0, 67, 64
2, 538076, Note_on_c, 0, 67, 0
2, 538080, Note_on_c, 0, 69, 64
2, 538196, Note_on_c, 0, 69, 0
2, 538200, Note_on_c, 0, 67, 64
2, 538316, Note_on_c, 0, 67, 0
2, 538320, Note_on_c, 0, 66, 64
2, 538436, Note_on_c, 0, 66, 0
2, 538440, Note_on_c, 0, 64, 64
2, 538556, Note_on_c, 0, 64, 0
2, 538560, Note_on_c, 0, 62, 64
2, 538676, Note_on_c, 0, 62, 0
2, 538680, Note_on_c, 0, 64, 64
2, 538796, Note_on_c, 0, 64, 0
2, 538800, Note_on_c, 0, 62, 64
2, 538916, Note_on_c, 0, 62, 0
2, 538920, Note_on_c, 0, 60, 64
2, 539036, Note_on_c, 0, 60, 0
2, 539040, Note_on_c, 0, 59, 64
2, 539156, Note_on_c, 0, 59, 0
2, 539160, Note_on_c, 0, 60, 64
2, 539276, Note_on_c, 0, 60, 0
2, 539280, Note_on_c, 0, 57, 64
2, 539396, Note_on_c, 0, 57, 0
2, 539400, Note_on_c, 0, 59, 64
2, 539516, Note_on_c, 0, 59, 0
2, 539520, Note_on_c, 0, 60, 64
2, 539636, Note_on_c, 0, 60, 0
2, 539640, Note_on_c, 0, 62, 64
2, 539756, Note_on_c, 0, 62, 0
2, 539760, Note_on_c, 0, 64, 64
2, 539876, Note_on_c, 0, 64, 0
2, 539880, Note_on_c, 0, 66, 64
2, 539996, Note_on_c, 0, 66, 0
2, 540000, Note_on_c, 0, 67, 64
2, 540116, Note_on_c, 0, 67, 0
2, 540120, Note_on_c, 0, 71, 64
2, 540236, Note_on_c, 0, 71, 0
2, 540240, Note_on_c, 0, 74, 64
2, 540356, Note_on_c, 0, 74, 0
2, 540360, Note_on_c, 0, 67, 64
2, 540476, Note_on_c, 0, 67, 0
2, 540480, Note_on_c, 0, 71, 64
2, 540596, Note_on_c, 0, 71, 0
2, 540600, Note_on_c, 0, 74, 64
2, 540716, Note_on_c, 0, 74, 0
2, 540720, Note_on_c, 0, 79, 64
2, 540836, Note_on_c, 0, 79, 0
2, 540840, Note_on_c, 0, 74, 64
2, 540956, Note_on_c, 0, 74, 0
2, 540960, Note_on_c, 0, 71, 64
2, 541076, Note_on_c, 0, 71, 0
2, 541080, Note_on_c, 0, 67, 64
2, 541196, Note_on_c, 0, 67, 0
2, 541200, Note_on_c, 0, 55, 64
2, 541436, Note_on_c, 0, 55, 0
2, 541436, End_track
3, 0, Start_track
3, 0, Title_t, "Violino      II"
3, 0, Program_c, 1, 40
3, 0, Control_c, 1, 10, 39
3, 1680, Note_on_c, 1, 67, 64
3, 1796, Note_on_c, 1, 67, 0
3, 1800, Note_on_c, 1, 66, 64
3, 1916, Note_on_c, 1, 66, 0
3, 1920, Note_on_c, 1, 67, 64
3, 2156, Note_on_c, 1, 67, 0
3, 2160, Note_on_c, 1, 62, 64
3, 2276, Note_on_c, 1, 62, 0
3, 2280, Note_on_c, 1, 60, 64
3, 2396, Note_on_c, 1, 60, 0
3, 2400, Note_on_c, 1, 62, 64
3, 2636, Note_on_c, 1, 62, 0
3, 2640, Note_on_c, 1, 67, 64
3, 2756, Note_on_c, 1, 67, 0
3, 2760, Note_on_c, 1, 66, 64
3, 2876, Note_on_c, 1, 66, 0
3, 2880, Note_on_c, 1, 67, 64
3, 3116, Note_on_c, 1, 67, 0
3, 3120, Note_on_c, 1, 59, 64
3, 3236, Note_on_c, 1, 59, 0
3, 3240, Note_on_c, 1, 57, 64
3, 3356, Note_on_c, 1, 57, 0
3, 3360, Note_on_c, 1, 59, 64
3, 3596, Note_on_c, 1, 59, 0
3, 3600, Note_on_c, 1, 67, 64
3, 3716, Note_on_c, 1, 67, 0
3, 3720, Note_on_c, 1, 66, 64
3, 3836, Note_on_c, 1, 66, 0
3, 3840, Note_on_c, 1, 67, 64
3, 4076, Note_on_c, 1, 67, 0
3, 4080, Note_on_c, 1, 55, 64
3, 4196, Note_on_c, 1, 55, 0
3, 4200, Note_on_c, 1, 57, 64
3, 4316, Note_on_c, 1, 57, 0
3, 4320, Note_on_c, 1, 59, 64
3, 4556, Note_on_c, 1, 59, 0
3, 4560, Note_on_c, 1, 61, 64
3, 4796, Note_on_c, 1, 61, 0
3, 4800, Note_on_c, 1, 62, 64
3, 4916, Note_on_c, 1, 62, 0
3, 4920, Note_on_c, 1, 61, 64
3, 5036, Note_on_c, 1, 61, 0
3, 5040, Note_on_c, 1, 62, 64
3, 5156, Note_on_c, 1, 62, 0
3, 5160, Note_on_c, 1, 64, 64
3, 5276, Note_on_c, 1, 64, 0
3, 5280, Note_on_c, 1, 62, 64
3, 5396, Note_on_c, 1, 62, 0
3, 5400, Note_on_c, 1, 66, 64
3, 5516, Note_on_c, 1, 66, 0
3, 5520, Note_on_c, 1, 62, 64
3, 5636, Note_on_c, 1, 62, 0
3, 5640, Note_on_c, 1, 67, 64
3, 5756, Note_on_c, 1, 67, 0
3, 5760, Note_on_c, 1, 62, 64
3, 5876, Note_on_c, 1, 62, 0
3, 5880, Note_on_c, 1, 61, 64
3, 5996, Note_on_c, 1, 61, 0
3, 6000, Note_on_c, 1, 62, 64
3, 6116, Note_on_c, 1, 62, 0
3, 6120, Note_on_c, 1, 64, 64
3, 6236, Note_on_c, 1, 64, 0
3, 6240, Note_on_c, 1, 62, 64
3, 6356, Note_on_c, 1, 62, 0
3, 6360, Note_on_c, 1, 69, 64
3, 6476, Note_on_c, 1, 69, 0
3, 6480, Note_on_c, 1, 62, 64
3, 6596, Note_on_c, 1, 62, 0
3, 6600, Note_on_c, 1, 71, 64
3, 6716, Note_on_c, 1, 71, 0
3, 6720, Note_on_c, 1, 62, 64
3, 6836, Note_on_c, 1, 62, 0
3, 6840, Note_on_c, 1, 61, 64
3, 6956, Note_on_c, 1, 61, 0
3, 6960, Note_on_c, 1, 62, 64
3, 7076, Note_on_c, 1, 62, 0
3, 7080, Note_on_c, 1, 64, 64
3, 7196, Note_on_c, 1, 64, 0
3, 7200, Note_on_c, 1, 62, 64
3, 7316, Note_on_c, 1, 62, 0
3, 7320, Note_on_c, 1, 72, 64
3, 7436, Note_on_c, 1, 72, 0
3, 7440, Note_on_c, 1, 62, 64
3, 7556, Note_on_c, 1, 62, 0
3, 7560, Note_on_c, 1, 74, 64
3, 7676, Note_on_c, 1, 74, 0
3, 7680, Note_on_c, 1, 71, 64
3, 7916, Note_on_c, 1, 71, 0
3, 7920, Note_on_c, 1, 69, 64
3, 8036, Note_on_c, 1, 69, 0
3, 8040, Note_on_c, 1, 67, 64
3, 8156, Note_on_c, 1, 67, 0
3, 8160, Note_on_c, 1, 69, 64
3, 8396, Note_on_c, 1, 69, 0
3, 8400, Note_on_c, 1, 67, 64
3, 8516, Note_on_c, 1, 67, 0
3, 8520, Note_on_c, 1, 66, 64
3, 8636, Note_on_c, 1, 66, 0
3, 8640, Note_on_c, 1, 67, 64
3, 8876, Note_on_c, 1, 67, 0
3, 8880, Note_on_c, 1, 66, 64
3, 8996, Note_on_c, 1, 66, 0
3, 9000, Note_on_c, 1, 64, 64
3, 9116, Note_on_c, 1, 64, 0
3, 9120, Note_on_c, 1, 62, 64
3, 9236, Note_on_c, 1, 62, 0
3, 9240, Note_on_c, 1, 67, 64
3, 9356, Note_on_c, 1, 67, 0
3, 9360, Note_on_c, 1, 62, 64
3, 9476, Note_on_c, 1, 62, 0
3, 9480, Note_on_c, 1, 67, 64
3, 9596, Note_on_c, 1, 67, 0
3, 9600, Note_on_c, 1, 64, 64
3, 9836, Note_on_c, 1, 64, 0
3, 9840, Note_on_c, 1, 62, 64
3, 9956, Note_on_c, 1, 62, 0
3, 9960, Note_on_c, 1, 60, 64
3, 10076, Note_on_c, 1, 60, 0
3, 10080, Note_on_c, 1, 59, 64
3, 10196, Note_on_c, 1, 59, 0
3, 10200, Note_on_c, 1, 67, 64
3, 10316, Note_on_c, 1, 67, 0
3, 10320, Note_on_c, 1, 59, 64
3, 10436, Note_on_c, 1, 59, 0
3, 10440, Note_on_c, 1, 67, 64
3, 10556, Note_on_c, 1, 67, 0
3, 10560, Note_on_c, 1, 60, 64
3, 10796, Note_on_c, 1, 60, 0
3, 10800, Note_on_c, 1, 59, 64
3, 10916, Note_on_c, 1, 59, 0
3, 10920, Note_on_c, 1, 57, 64
3, 11036, Note_on_c, 1, 57, 0
3, 11040, Note_on_c, 1, 55, 64
3, 11156, Note_on_c, 1, 55, 0
3, 11160, Note_on_c, 1, 67, 64
3, 11276, Note_on_c, 1, 67, 0
3, 11280, Note_on_c, 1, 57, 64
3, 11396, Note_on_c, 1, 57, 0
3, 11400, Note_on_c, 1, 67, 64
3, 11516, Note_on_c, 1, 67, 0
3, 11520, Note_on_c, 1, 59, 64
3, 11636, Note_on_c, 1, 59, 0
3, 11640, Note_on_c, 1, 67, 64
3, 11756, Note_on_c, 1, 67, 0
3, 11760, Note_on_c, 1, 61, 64
3, 11876, Note_on_c, 1, 61, 0
3, 11880, Note_on_c, 1, 67, 64
3, 11996, Note_on_c, 1, 67, 0
3, 12000, Note_on_c, 1, 62, 64
3, 12116, Note_on_c, 1, 62, 0
3, 12120, Note_on_c, 1, 66, 64
3, 12236, Note_on_c, 1, 66, 0
3, 12240, Note_on_c, 1, 62, 64
3, 12356, Note_on_c, 1, 62, 0
3, 12360, Note_on_c, 1, 67, 64
3, 12476, Note_on_c, 1, 67, 0
3, 12480, Note_on_c, 1, 62, 64
3, 12596, Note_on_c, 1, 62, 0
3, 12600, Note_on_c, 1, 69, 64
3, 12716, Note_on_c, 1, 69, 0
3, 12720, Note_on_c, 1, 62, 64
3, 12836, Note_on_c, 1, 62, 0
3, 12840, Note_on_c, 1, 71, 64
3, 12956, Note_on_c, 1, 71, 0
3, 12960, Note_on_c, 1, 62, 64
3, 13076, Note_on_c, 1, 62, 0
3, 13080, Note_on_c, 1, 72, 64
3, 13196, Note_on_c, 1, 72, 0
3, 13200, Note_on_c, 1, 62, 64
3, 13316, Note_on_c, 1, 62, 0
3, 13320, Note_on_c, 1, 74, 64
3, 13436, Note_on_c, 1, 74, 0
3, 13440, Note_on_c, 1, 71, 64
3, 13676, Note_on_c, 1, 71, 0
3, 13680, Note_on_c, 1, 69, 64
3, 13796, Note_on_c, 1, 69, 0
3, 13800, Note_on_c, 1, 67, 64
3, 13916, Note_on_c, 1, 67, 0
3, 13920, Note_on_c, 1, 62, 64
3, 14156, Note_on_c, 1, 62, 0
3, 14160, Note_on_c, 1, 66, 64
3, 14396, Note_on_c, 1, 66, 0
3, 14400, Note_on_c, 1, 67, 64
3, 14636, Note_on_c, 1, 67, 0
3, 14640, Note_on_c, 1, 66, 64
3, 14756, Note_on_c, 1, 66, 0
3, 14760, Note_on_c, 1, 64, 64
3, 14876, Note_on_c, 1, 64, 0
3, 14880, Note_on_c, 1, 62, 64
3, 14996, Note_on_c, 1, 62, 0
3, 15000, Note_on_c, 1, 60, 64
3, 15116, Note_on_c, 1, 60, 0
3, 15120, Note_on_c, 1, 59, 64
3, 15236, Note_on_c, 1, 59, 0
3, 15240, Note_on_c, 1, 57, 64
3, 15356, Note_on_c, 1, 57, 0
3, 15360, Note_on_c, 1, 59, 64
3, 15596, Note_on_c, 1, 59, 0
3, 15600, Note_on_c, 1, 57, 64
3, 15716, Note_on_c, 1, 57, 0
3, 15720, Note_on_c, 1, 55, 64
3, 15836, Note_on_c, 1, 55, 0
3, 15840, Note_on_c, 1, 62, 64
3, 16076, Note_on_c, 1, 62, 0
3, 16080, Note_on_c, 1, 62, 64
3, 16316, Note_on_c, 1, 62, 0
3, 16320, Note_on_c, 1, 55, 64
3, 16796, Note_on_c, 1, 55, 0
3, 17040, Note_on_c, 1, 71, 64
3, 17156, Note_on_c, 1, 71, 0
3, 17160, Note_on_c, 1, 71, 64
3, 17276, Note_on_c, 1, 71, 0
3, 17280, Note_on_c, 1, 71, 64
3, 17516, Note_on_c, 1, 71, 0
3, 17520, Note_on_c, 1, 67, 64
3, 17636, Note_on_c, 1, 67, 0
3, 17640, Note_on_c, 1, 66, 64
3, 17756, Note_on_c, 1, 66, 0
3, 17760, Note_on_c, 1, 67, 64
3, 17996, Note_on_c, 1, 67, 0
3, 19440, Note_on_c, 1, 74, 64
3, 19676, Note_on_c, 1, 74, 0
3, 19680, Note_on_c, 1, 79, 64
3, 19796, Note_on_c, 1, 79, 0
3, 19800, Note_on_c, 1, 83, 64
3, 19916, Note_on_c, 1, 83, 0
3, 19920, Note_on_c, 1, 81, 64
3, 20036, Note_on_c, 1, 81, 0
3, 20040, Note_on_c, 1, 79, 64
3, 20156, Note_on_c, 1, 79, 0
3, 20160, Note_on_c, 1, 78, 64
3, 20636, Note_on_c, 1, 78, 0
3, 20880, Note_on_c, 1, 76, 64
3, 21116, Note_on_c, 1, 76, 0
3, 21120, Note_on_c, 1, 78, 64
3, 21236, Note_on_c, 1, 78, 0
3, 21240, Note_on_c, 1, 81, 64
3, 21356, Note_on_c, 1, 81, 0
3, 21360, Note_on_c, 1, 74, 64
3, 21476, Note_on_c, 1, 74, 0
3, 21480, Note_on_c, 1, 76, 64
3, 21596, Note_on_c, 1, 76, 0
3, 21600, Note_on_c, 1, 78, 64
3, 21716, Note_on_c, 1, 78, 0
3, 21720, Note_on_c, 1, 79, 64
3, 21836, Note_on_c, 1, 79, 0
3, 21840, Note_on_c, 1, 81, 64
3, 21956, Note_on_c, 1, 81, 0
3, 21960, Note_on_c, 1, 79, 64
3, 22076, Note_on_c, 1, 79, 0
3, 22080, Note_on_c, 1, 78, 64
3, 22316, Note_on_c, 1, 78, 0
3, 22320, Note_on_c, 1, 86, 64
3, 22556, Note_on_c, 1, 86, 0
3, 22800, Note_on_c, 1, 85, 64
3, 23036, Note_on_c, 1, 85, 0
3, 23040, Note_on_c, 1, 86, 64
3, 23276, Note_on_c, 1, 86, 0
3, 23280, Note_on_c, 1, 76, 64
3, 23396, Note_on_c, 1, 76, 0
3, 23400, Note_on_c, 1, 74, 64
3, 23516, Note_on_c, 1, 74, 0
3, 23520, Note_on_c, 1, 76, 64
3, 23756, Note_on_c, 1, 76, 0
3, 23760, Note_on_c, 1, 74, 64
3, 23876, Note_on_c, 1, 74, 0
3, 23880, Note_on_c, 1, 73, 64
3, 23996, Note_on_c, 1, 73, 0
3, 24000, Note_on_c, 1, 74, 64
3, 24236, Note_on_c, 1, 74, 0
3, 24240, Note_on_c, 1, 73, 64
3, 24356, Note_on_c, 1, 73, 0
3, 24360, Note_on_c, 1, 71, 64
3, 24476, Note_on_c, 1, 71, 0
3, 24480, Note_on_c, 1, 69, 64
3, 24596, Note_on_c, 1, 69, 0
3, 24600, Note_on_c, 1, 74, 64
3, 24716, Note_on_c, 1, 74, 0
3, 24720, Note_on_c, 1, 69, 64
3, 24836, Note_on_c, 1, 69, 0
3, 24840, Note_on_c, 1, 74, 64
3, 24956, Note_on_c, 1, 74, 0
3, 24960, Note_on_c, 1, 71, 64
3, 25196, Note_on_c, 1, 71, 0
3, 25200, Note_on_c, 1, 69, 64
3, 25316, Note_on_c, 1, 69, 0
3, 25320, Note_on_c, 1, 67, 64
3, 25436, Note_on_c, 1, 67, 0
3, 25440, Note_on_c, 1, 66, 64
3, 25556, Note_on_c, 1, 66, 0
3, 25560, Note_on_c, 1, 74, 64
3, 25676, Note_on_c, 1, 74, 0
3, 25680, Note_on_c, 1, 66, 64
3, 25796, Note_on_c, 1, 66, 0
3, 25800, Note_on_c, 1, 74, 64
3, 25916, Note_on_c, 1, 74, 0
3, 25920, Note_on_c, 1, 67, 64
3, 26156, Note_on_c, 1, 67, 0
3, 26160, Note_on_c, 1, 66, 64
3, 26276, Note_on_c, 1, 66, 0
3, 26280, Note_on_c, 1, 64, 64
3, 26396, Note_on_c, 1, 64, 0
3, 26400, Note_on_c, 1, 62, 64
3, 26516, Note_on_c, 1, 62, 0
3, 26520, Note_on_c, 1, 74, 64
3, 26636, Note_on_c, 1, 74, 0
3, 26640, Note_on_c, 1, 64, 64
3, 26756, Note_on_c, 1, 64, 0
3, 26760, Note_on_c, 1, 74, 64
3, 26876, Note_on_c, 1, 74, 0
3, 26880, Note_on_c, 1, 66, 64
3, 26996, Note_on_c, 1, 66, 0
3, 27000, Note_on_c, 1, 74, 64
3, 27116, Note_on_c, 1, 74, 0
3, 27120, Note_on_c, 1, 68, 64
3, 27236, Note_on_c, 1, 68, 0
3, 27240, Note_on_c, 1, 74, 64
3, 27356, Note_on_c, 1, 74, 0
3, 27360, Note_on_c, 1, 69, 64
3, 27476, Note_on_c, 1, 69, 0
3, 27480, Note_on_c, 1, 73, 64
3, 27596, Note_on_c, 1, 73, 0
3, 27600, Note_on_c, 1, 69, 64
3, 27716, Note_on_c, 1, 69, 0
3, 27720, Note_on_c, 1, 74, 64
3, 27836, Note_on_c, 1, 74, 0
3, 27840, Note_on_c, 1, 69, 64
3, 27956, Note_on_c, 1, 69, 0
3, 27960, Note_on_c, 1, 76, 64
3, 28076, Note_on_c, 1, 76, 0
3, 28080, Note_on_c, 1, 69, 64
3, 28196, Note_on_c, 1, 69, 0
3, 28200, Note_on_c, 1, 78, 64
3, 28316, Note_on_c, 1, 78, 0
3, 28320, Note_on_c, 1, 69, 64
3, 28436, Note_on_c, 1, 69, 0
3, 28440, Note_on_c, 1, 79, 64
3, 28556, Note_on_c, 1, 79, 0
3, 28560, Note_on_c, 1, 69, 64
3, 28676, Note_on_c, 1, 69, 0
3, 28680, Note_on_c, 1, 81, 64
3, 28796, Note_on_c, 1, 81, 0
3, 28800, Note_on_c, 1, 78, 64
3, 29036, Note_on_c, 1, 78, 0
3, 29040, Note_on_c, 1, 76, 64
3, 29156, Note_on_c, 1, 76, 0
3, 29160, Note_on_c, 1, 74, 64
3, 29276, Note_on_c, 1, 74, 0
3, 29280, Note_on_c, 1, 69, 64
3, 29516, Note_on_c, 1, 69, 0
3, 29520, Note_on_c, 1, 73, 64
3, 29756, Note_on_c, 1, 73, 0
3, 29760, Note_on_c, 1, 74, 64
3, 30236, Note_on_c, 1, 74, 0
3, 30480, Note_on_c, 1, 74, 64
3, 30596, Note_on_c, 1, 74, 0
3, 30600, Note_on_c, 1, 72, 64
3, 30716, Note_on_c, 1, 72, 0
3, 30720, Note_on_c, 1, 74, 64
3, 30956, Note_on_c, 1, 74, 0
3, 30960, Note_on_c, 1, 71, 64
3, 31076, Note_on_c, 1, 71, 0
3, 31080, Note_on_c, 1, 69, 64
3, 31196, Note_on_c, 1, 69, 0
3, 31200, Note_on_c, 1, 71, 64
3, 31436, Note_on_c, 1, 71, 0
3, 32880, Note_on_c, 1, 71, 64
3, 32996, Note_on_c, 1, 71, 0
3, 33000, Note_on_c, 1, 72, 64
3, 33116, Note_on_c, 1, 72, 0
3, 33120, Note_on_c, 1, 74, 64
3, 33356, Note_on_c, 1, 74, 0
3, 33360, Note_on_c, 1, 78, 64
3, 33596, Note_on_c, 1, 78, 0
3, 33600, Note_on_c, 1, 69, 64
3, 33836, Note_on_c, 1, 69, 0
3, 33840, Note_on_c, 1, 81, 64
3, 33956, Note_on_c, 1, 81, 0
3, 33960, Note_on_c, 1, 79, 64
3, 34076, Note_on_c, 1, 79, 0
3, 34080, Note_on_c, 1, 81, 64
3, 34316, Note_on_c, 1, 81, 0
3, 34800, Note_on_c, 1, 81, 64
3, 34916, Note_on_c, 1, 81, 0
3, 34920, Note_on_c, 1, 79, 64
3, 35036, Note_on_c, 1, 79, 0
3, 35040, Note_on_c, 1, 81, 64
3, 35276, Note_on_c, 1, 81, 0
3, 35760, Note_on_c, 1, 81, 64
3, 35876, Note_on_c, 1, 81, 0
3, 35880, Note_on_c, 1, 79, 64
3, 35996, Note_on_c, 1, 79, 0
3, 36000, Note_on_c, 1, 81, 64
3, 36236, Note_on_c, 1, 81, 0
3, 36720, Note_on_c, 1, 74, 64
3, 36956, Note_on_c, 1, 74, 0
3, 36960, Note_on_c, 1, 78, 64
3, 37196, Note_on_c, 1, 78, 0
3, 37200, Note_on_c, 1, 81, 64
3, 37436, Note_on_c, 1, 81, 0
3, 37440, Note_on_c, 1, 78, 64
3, 37676, Note_on_c, 1, 78, 0
3, 37680, Note_on_c, 1, 74, 64
3, 37916, Note_on_c, 1, 74, 0
3, 37920, Note_on_c, 1, 78, 64
3, 38156, Note_on_c, 1, 78, 0
3, 38160, Note_on_c, 1, 81, 64
3, 38396, Note_on_c, 1, 81, 0
3, 38400, Note_on_c, 1, 78, 64
3, 38636, Note_on_c, 1, 78, 0
3, 38640, Note_on_c, 1, 69, 64
3, 38876, Note_on_c, 1, 69, 0
3, 38880, Note_on_c, 1, 74, 64
3, 38996, Note_on_c, 1, 74, 0
3, 39000, Note_on_c, 1, 78, 64
3, 39116, Note_on_c, 1, 78, 0
3, 39120, Note_on_c, 1, 76, 64
3, 39236, Note_on_c, 1, 76, 0
3, 39240, Note_on_c, 1, 74, 64
3, 39356, Note_on_c, 1, 74, 0
3, 39360, Note_on_c, 1, 73, 64
3, 39476, Note_on_c, 1, 73, 0
3, 39480, Note_on_c, 1, 76, 64
3, 39596, Note_on_c, 1, 76, 0
3, 39600, Note_on_c, 1, 69, 64
3, 39716, Note_on_c, 1, 69, 0
3, 39720, Note_on_c, 1, 71, 64
3, 39836, Note_on_c, 1, 71, 0
3, 39840, Note_on_c, 1, 73, 64
3, 39956, Note_on_c, 1, 73, 0
3, 39960, Note_on_c, 1, 74, 64
3, 40076, Note_on_c, 1, 74, 0
3, 40080, Note_on_c, 1, 76, 64
3, 40196, Note_on_c, 1, 76, 0
3, 40200, Note_on_c, 1, 78, 64
3, 40316, Note_on_c, 1, 78, 0
3, 40320, Note_on_c, 1, 79, 64
3, 40796, Note_on_c, 1, 79, 0
3, 41040, Note_on_c, 1, 79, 64
3, 41276, Note_on_c, 1, 79, 0
3, 41280, Note_on_c, 1, 78, 64
3, 41756, Note_on_c, 1, 78, 0
3, 42000, Note_on_c, 1, 78, 64
3, 42236, Note_on_c, 1, 78, 0
3, 42240, Note_on_c, 1, 78, 64
3, 42476, Note_on_c, 1, 78, 0
3, 42480, Note_on_c, 1, 78, 64
3, 42716, Note_on_c, 1, 78, 0
3, 42720, Note_on_c, 1, 78, 64
3, 42956, Note_on_c, 1, 78, 0
3, 42960, Note_on_c, 1, 76, 64
3, 43076, Note_on_c, 1, 76, 0
3, 43080, Note_on_c, 1, 78, 64
3, 43196, Note_on_c, 1, 78, 0
3, 43200, Note_on_c, 1, 76, 64
3, 43436, Note_on_c, 1, 76, 0
3, 43440, Note_on_c, 1, 76, 64
3, 43676, Note_on_c, 1, 76, 0
3, 43680, Note_on_c, 1, 76, 64
3, 43916, Note_on_c, 1, 76, 0
3, 43920, Note_on_c, 1, 74, 64
3, 44036, Note_on_c, 1, 74, 0
3, 44040, Note_on_c, 1, 76, 64
3, 44156, Note_on_c, 1, 76, 0
3, 44160, Note_on_c, 1, 74, 64
3, 44396, Note_on_c, 1, 74, 0
3, 44400, Note_on_c, 1, 71, 64
3, 44636, Note_on_c, 1, 71, 0
3, 44640, Note_on_c, 1, 69, 64
3, 44876, Note_on_c, 1, 69, 0
3, 44880, Note_on_c, 1, 69, 64
3, 45116, Note_on_c, 1, 69, 0
3, 45120, Note_on_c, 1, 69, 64
3, 45596, Note_on_c, 1, 69, 0
3, 45840, Note_on_c, 1, 74, 64
3, 45956, Note_on_c, 1, 74, 0
3, 45960, Note_on_c, 1, 73, 64
3, 46076, Note_on_c, 1, 73, 0
3, 46080, Note_on_c, 1, 74, 64
3, 46316, Note_on_c, 1, 74, 0
3, 46800, Note_on_c, 1, 74, 64
3, 46916, Note_on_c, 1, 74, 0
3, 46920, Note_on_c, 1, 73, 64
3, 47036, Note_on_c, 1, 73, 0
3, 47040, Note_on_c, 1, 74, 64
3, 47276, Note_on_c, 1, 74, 0
3, 47280, Note_on_c, 1, 74, 64
3, 47516, Note_on_c, 1, 74, 0
3, 47520, Note_on_c, 1, 74, 64
3, 47756, Note_on_c, 1, 74, 0
3, 47760, Note_on_c, 1, 74, 64
3, 47996, Note_on_c, 1, 74, 0
3, 48000, Note_on_c, 1, 74, 64
3, 48236, Note_on_c, 1, 74, 0
3, 48240, Note_on_c, 1, 74, 64
3, 48476, Note_on_c, 1, 74, 0
3, 48480, Note_on_c, 1, 74, 64
3, 48716, Note_on_c, 1, 74, 0
3, 48720, Note_on_c, 1, 74, 64
3, 48956, Note_on_c, 1, 74, 0
3, 48960, Note_on_c, 1, 74, 64
3, 49196, Note_on_c, 1, 74, 0
3, 49200, Note_on_c, 1, 74, 64
3, 49436, Note_on_c, 1, 74, 0
3, 49440, Note_on_c, 1, 74, 64
3, 49676, Note_on_c, 1, 74, 0
3, 49680, Note_on_c, 1, 69, 64
3, 49916, Note_on_c, 1, 69, 0
3, 49920, Note_on_c, 1, 67, 64
3, 50036, Note_on_c, 1, 67, 0
3, 50040, Note_on_c, 1, 66, 64
3, 50156, Note_on_c, 1, 66, 0
3, 50160, Note_on_c, 1, 67, 64
3, 50276, Note_on_c, 1, 67, 0
3, 50280, Note_on_c, 1, 69, 64
3, 50396, Note_on_c, 1, 69, 0
3, 50400, Note_on_c, 1, 67, 64
3, 50516, Note_on_c, 1, 67, 0
3, 50520, Note_on_c, 1, 71, 64
3, 50636, Note_on_c, 1, 71, 0
3, 50640, Note_on_c, 1, 67, 64
3, 50756, Note_on_c, 1, 67, 0
3, 50760, Note_on_c, 1, 72, 64
3, 50876, Note_on_c, 1, 72, 0
3, 50880, Note_on_c, 1, 67, 64
3, 50996, Note_on_c, 1, 67, 0
3, 51000, Note_on_c, 1, 66, 64
3, 51116, Note_on_c, 1, 66, 0
3, 51120, Note_on_c, 1, 67, 64
3, 51236, Note_on_c, 1, 67, 0
3, 51240, Note_on_c, 1, 69, 64
3, 51356, Note_on_c, 1, 69, 0
3, 51360, Note_on_c, 1, 67, 64
3, 51476, Note_on_c, 1, 67, 0
3, 51480, Note_on_c, 1, 74, 64
3, 51596, Note_on_c, 1, 74, 0
3, 51600, Note_on_c, 1, 67, 64
3, 51716, Note_on_c, 1, 67, 0
3, 51720, Note_on_c, 1, 76, 64
3, 51836, Note_on_c, 1, 76, 0
3, 51840, Note_on_c, 1, 71, 64
3, 51956, Note_on_c, 1, 71, 0
3, 51960, Note_on_c, 1, 69, 64
3, 52076, Note_on_c, 1, 69, 0
3, 52080, Note_on_c, 1, 71, 64
3, 52196, Note_on_c, 1, 71, 0
3, 52200, Note_on_c, 1, 72, 64
3, 52316, Note_on_c, 1, 72, 0
3, 52320, Note_on_c, 1, 71, 64
3, 52436, Note_on_c, 1, 71, 0
3, 52440, Note_on_c, 1, 62, 64
3, 52556, Note_on_c, 1, 62, 0
3, 52560, Note_on_c, 1, 72, 64
3, 52676, Note_on_c, 1, 72, 0
3, 52680, Note_on_c, 1, 64, 64
3, 52796, Note_on_c, 1, 64, 0
3, 52800, Note_on_c, 1, 71, 64
3, 52916, Note_on_c, 1, 71, 0
3, 52920, Note_on_c, 1, 69, 64
3, 53036, Note_on_c, 1, 69, 0
3, 53040, Note_on_c, 1, 71, 64
3, 53156, Note_on_c, 1, 71, 0
3, 53160, Note_on_c, 1, 72, 64
3, 53276, Note_on_c, 1, 72, 0
3, 53280, Note_on_c, 1, 71, 64
3, 53396, Note_on_c, 1, 71, 0
3, 53400, Note_on_c, 1, 65, 64
3, 53516, Note_on_c, 1, 65, 0
3, 53520, Note_on_c, 1, 72, 64
3, 53636, Note_on_c, 1, 72, 0
3, 53640, Note_on_c, 1, 64, 64
3, 53756, Note_on_c, 1, 64, 0
3, 53760, Note_on_c, 1, 62, 64
3, 53876, Note_on_c, 1, 62, 0
3, 53880, Note_on_c, 1, 60, 64
3, 53996, Note_on_c, 1, 60, 0
3, 54000, Note_on_c, 1, 62, 64
3, 54116, Note_on_c, 1, 62, 0
3, 54120, Note_on_c, 1, 64, 64
3, 54236, Note_on_c, 1, 64, 0
3, 54240, Note_on_c, 1, 62, 64
3, 54356, Note_on_c, 1, 62, 0
3, 54360, Note_on_c, 1, 72, 64
3, 54476, Note_on_c, 1, 72, 0
3, 54480, Note_on_c, 1, 62, 64
3, 54596, Note_on_c, 1, 62, 0
3, 54600, Note_on_c, 1, 71, 64
3, 54716, Note_on_c, 1, 71, 0
3, 54720, Note_on_c, 1, 72, 64
3, 54836, Note_on_c, 1, 72, 0
3, 54840, Note_on_c, 1, 67, 64
3, 54956, Note_on_c, 1, 67, 0
3, 54960, Note_on_c, 1, 69, 64
3, 55076, Note_on_c, 1, 69, 0
3, 55080, Note_on_c, 1, 71, 64
3, 55196, Note_on_c, 1, 71, 0
3, 55200, Note_on_c, 1, 72, 64
3, 55436, Note_on_c, 1, 72, 0
3, 55920, Note_on_c, 1, 81, 64
3, 56036, Note_on_c, 1, 81, 0
3, 56040, Note_on_c, 1, 83, 64
3, 56156, Note_on_c, 1, 83, 0
3, 56160, Note_on_c, 1, 81, 64
3, 56396, Note_on_c, 1, 81, 0
3, 56400, Note_on_c, 1, 81, 64
3, 56636, Note_on_c, 1, 81, 0
3, 56640, Note_on_c, 1, 81, 64
3, 56876, Note_on_c, 1, 81, 0
3, 56880, Note_on_c, 1, 79, 64
3, 56996, Note_on_c, 1, 79, 0
3, 57000, Note_on_c, 1, 81, 64
3, 57116, Note_on_c, 1, 81, 0
3, 57120, Note_on_c, 1, 79, 64
3, 57356, Note_on_c, 1, 79, 0
3, 57360, Note_on_c, 1, 79, 64
3, 57596, Note_on_c, 1, 79, 0
3, 57600, Note_on_c, 1, 79, 64
3, 57836, Note_on_c, 1, 79, 0
3, 57840, Note_on_c, 1, 77, 64
3, 57956, Note_on_c, 1, 77, 0
3, 57960, Note_on_c, 1, 76, 64
3, 58076, Note_on_c, 1, 76, 0
3, 58080, Note_on_c, 1, 77, 64
3, 58316, Note_on_c, 1, 77, 0
3, 58320, Note_on_c, 1, 69, 64
3, 58556, Note_on_c, 1, 69, 0
3, 58560, Note_on_c, 1, 71, 64
3, 58796, Note_on_c, 1, 71, 0
3, 58800, Note_on_c, 1, 71, 64
3, 59036, Note_on_c, 1, 71, 0
3, 59040, Note_on_c, 1, 71, 64
3, 59156, Note_on_c, 1, 71, 0
3, 59160, Note_on_c, 1, 69, 64
3, 59276, Note_on_c, 1, 69, 0
3, 59280, Note_on_c, 1, 71, 64
3, 59396, Note_on_c, 1, 71, 0
3, 59400, Note_on_c, 1, 72, 64
3, 59516, Note_on_c, 1, 72, 0
3, 59520, Note_on_c, 1, 74, 64
3, 59756, Note_on_c, 1, 74, 0
3, 59760, Note_on_c, 1, 67, 64
3, 59996, Note_on_c, 1, 67, 0
3, 60000, Note_on_c, 1, 67, 64
3, 60236, Note_on_c, 1, 67, 0
3, 60240, Note_on_c, 1, 67, 64
3, 60476, Note_on_c, 1, 67, 0
3, 60480, Note_on_c, 1, 67, 64
3, 60596, Note_on_c, 1, 67, 0
3, 60600, Note_on_c, 1, 65, 64
3, 60716, Note_on_c, 1, 65, 0
3, 60720, Note_on_c, 1, 67, 64
3, 60836, Note_on_c, 1, 67, 0
3, 60840, Note_on_c, 1, 69, 64
3, 60956, Note_on_c, 1, 69, 0
3, 60960, Note_on_c, 1, 67, 64
3, 61076, Note_on_c, 1, 67, 0
3, 61080, Note_on_c, 1, 72, 64
3, 61196, Note_on_c, 1, 72, 0
3, 61200, Note_on_c, 1, 71, 64
3, 61316, Note_on_c, 1, 71, 0
3, 61320, Note_on_c, 1, 74, 64
3, 61436, Note_on_c, 1, 74, 0
3, 61440, Note_on_c, 1, 72, 64
3, 61556, Note_on_c, 1, 72, 0
3, 61560, Note_on_c, 1, 71, 64
3, 61676, Note_on_c, 1, 71, 0
3, 61680, Note_on_c, 1, 72, 64
3, 61796, Note_on_c, 1, 72, 0
3, 61800, Note_on_c, 1, 74, 64
3, 61916, Note_on_c, 1, 74, 0
3, 61920, Note_on_c, 1, 72, 64
3, 62036, Note_on_c, 1, 72, 0
3, 62040, Note_on_c, 1, 76, 64
3, 62156, Note_on_c, 1, 76, 0
3, 62160, Note_on_c, 1, 74, 64
3, 62276, Note_on_c, 1, 74, 0
3, 62280, Note_on_c, 1, 77, 64
3, 62396, Note_on_c, 1, 77, 0
3, 62400, Note_on_c, 1, 76, 64
3, 62516, Note_on_c, 1, 76, 0
3, 62520, Note_on_c, 1, 74, 64
3, 62636, Note_on_c, 1, 74, 0
3, 62640, Note_on_c, 1, 76, 64
3, 62756, Note_on_c, 1, 76, 0
3, 62760, Note_on_c, 1, 77, 64
3, 62876, Note_on_c, 1, 77, 0
3, 62880, Note_on_c, 1, 76, 64
3, 62996, Note_on_c, 1, 76, 0
3, 63000, Note_on_c, 1, 77, 64
3, 63116, Note_on_c, 1, 77, 0
3, 63120, Note_on_c, 1, 76, 64
3, 63236, Note_on_c, 1, 76, 0
3, 63240, Note_on_c, 1, 74, 64
3, 63356, Note_on_c, 1, 74, 0
3, 63360, Note_on_c, 1, 72, 64
3, 63476, Note_on_c, 1, 72, 0
3, 63480, Note_on_c, 1, 74, 64
3, 63596, Note_on_c, 1, 74, 0
3, 63600, Note_on_c, 1, 72, 64
3, 63716, Note_on_c, 1, 72, 0
3, 63720, Note_on_c, 1, 71, 64
3, 63836, Note_on_c, 1, 71, 0
3, 63840, Note_on_c, 1, 72, 64
3, 64076, Note_on_c, 1, 72, 0
3, 64080, Note_on_c, 1, 69, 64
3, 64316, Note_on_c, 1, 69, 0
3, 64320, Note_on_c, 1, 67, 64
3, 64556, Note_on_c, 1, 67, 0
3, 64560, Note_on_c, 1, 62, 64
3, 64796, Note_on_c, 1, 62, 0
3, 65040, Note_on_c, 1, 55, 64
3, 65276, Note_on_c, 1, 55, 0
3, 65280, Note_on_c, 1, 59, 64
3, 65516, Note_on_c, 1, 59, 0
3, 65520, Note_on_c, 1, 62, 64
3, 65756, Note_on_c, 1, 62, 0
3, 65760, Note_on_c, 1, 59, 64
3, 65996, Note_on_c, 1, 59, 0
3, 66000, Note_on_c, 1, 55, 64
3, 66236, Note_on_c, 1, 55, 0
3, 66240, Note_on_c, 1, 59, 64
3, 66476, Note_on_c, 1, 59, 0
3, 66480, Note_on_c, 1, 62, 64
3, 66716, Note_on_c, 1, 62, 0
3, 66720, Note_on_c, 1, 59, 64
3, 66956, Note_on_c, 1, 59, 0
3, 66960, Note_on_c, 1, 55, 64
3, 67196, Note_on_c, 1, 55, 0
3, 67200, Note_on_c, 1, 62, 64
3, 67436, Note_on_c, 1, 62, 0
3, 67440, Note_on_c, 1, 62, 64
3, 67556, Note_on_c, 1, 62, 0
3, 67560, Note_on_c, 1, 62, 64
3, 67676, Note_on_c, 1, 62, 0
3, 67680, Note_on_c, 1, 62, 64
3, 67916, Note_on_c, 1, 62, 0
3, 68400, Note_on_c, 1, 69, 64
3, 68516, Note_on_c, 1, 69, 0
3, 68520, Note_on_c, 1, 67, 64
3, 68636, Note_on_c, 1, 67, 0
3, 68640, Note_on_c, 1, 69, 64
3, 68876, Note_on_c, 1, 69, 0
3, 69360, Note_on_c, 1, 69, 64
3, 69476, Note_on_c, 1, 69, 0
3, 69480, Note_on_c, 1, 67, 64
3, 69596, Note_on_c, 1, 67, 0
3, 69600, Note_on_c, 1, 69, 64
3, 69836, Note_on_c, 1, 69, 0
3, 70320, Note_on_c, 1, 69, 64
3, 70436, Note_on_c, 1, 69, 0
3, 70440, Note_on_c, 1, 67, 64
3, 70556, Note_on_c, 1, 67, 0
3, 70560, Note_on_c, 1, 69, 64
3, 70796, Note_on_c, 1, 69, 0
3, 70800, Note_on_c, 1, 67, 64
3, 70916, Note_on_c, 1, 67, 0
3, 70920, Note_on_c, 1, 66, 64
3, 71036, Note_on_c, 1, 66, 0
3, 71040, Note_on_c, 1, 67, 64
3, 71276, Note_on_c, 1, 67, 0
3, 71280, Note_on_c, 1, 67, 64
3, 71516, Note_on_c, 1, 67, 0
3, 71520, Note_on_c, 1, 66, 64
3, 71756, Note_on_c, 1, 66, 0
3, 71760, Note_on_c, 1, 67, 64
3, 71876, Note_on_c, 1, 67, 0
3, 71880, Note_on_c, 1, 69, 64
3, 71996, Note_on_c, 1, 69, 0
3, 72000, Note_on_c, 1, 67, 64
3, 72236, Note_on_c, 1, 67, 0
3, 72720, Note_on_c, 1, 62, 64
3, 72956, Note_on_c, 1, 62, 0
3, 72960, Note_on_c, 1, 59, 64
3, 73196, Note_on_c, 1, 59, 0
3, 73200, Note_on_c, 1, 55, 64
3, 73436, Note_on_c, 1, 55, 0
3, 74160, Note_on_c, 1, 71, 64
3, 74276, Note_on_c, 1, 71, 0
3, 74280, Note_on_c, 1, 69, 64
3, 74396, Note_on_c, 1, 69, 0
3, 74400, Note_on_c, 1, 71, 64
3, 74636, Note_on_c, 1, 71, 0
3, 74640, Note_on_c, 1, 74, 64
3, 74756, Note_on_c, 1, 74, 0
3, 74760, Note_on_c, 1, 72, 64
3, 74876, Note_on_c, 1, 72, 0
3, 74880, Note_on_c, 1, 74, 64
3, 75116, Note_on_c, 1, 74, 0
3, 75120, Note_on_c, 1, 71, 64
3, 75236, Note_on_c, 1, 71, 0
3, 75240, Note_on_c, 1, 69, 64
3, 75356, Note_on_c, 1, 69, 0
3, 75360, Note_on_c, 1, 71, 64
3, 75596, Note_on_c, 1, 71, 0
3, 76560, Note_on_c, 1, 79, 64
3, 76676, Note_on_c, 1, 79, 0
3, 76680, Note_on_c, 1, 78, 64
3, 76796, Note_on_c, 1, 78, 0
3, 76800, Note_on_c, 1, 79, 64
3, 77036, Note_on_c, 1, 79, 0
3, 77040, Note_on_c, 1, 67, 64
3, 77156, Note_on_c, 1, 67, 0
3, 77160, Note_on_c, 1, 69, 64
3, 77276, Note_on_c, 1, 69, 0
3, 77280, Note_on_c, 1, 71, 64
3, 77516, Note_on_c, 1, 71, 0
3, 77520, Note_on_c, 1, 73, 64
3, 77756, Note_on_c, 1, 73, 0
3, 77760, Note_on_c, 1, 69, 64
3, 77876, Note_on_c, 1, 69, 0
3, 77880, Note_on_c, 1, 67, 64
3, 77996, Note_on_c, 1, 67, 0
3, 78000, Note_on_c, 1, 69, 64
3, 78116, Note_on_c, 1, 69, 0
3, 78120, Note_on_c, 1, 71, 64
3, 78236, Note_on_c, 1, 71, 0
3, 78240, Note_on_c, 1, 69, 64
3, 78356, Note_on_c, 1, 69, 0
3, 78360, Note_on_c, 1, 72, 64
3, 78476, Note_on_c, 1, 72, 0
3, 78480, Note_on_c, 1, 71, 64
3, 78596, Note_on_c, 1, 71, 0
3, 78600, Note_on_c, 1, 74, 64
3, 78716, Note_on_c, 1, 74, 0
3, 78720, Note_on_c, 1, 69, 64
3, 78836, Note_on_c, 1, 69, 0
3, 78840, Note_on_c, 1, 67, 64
3, 78956, Note_on_c, 1, 67, 0
3, 78960, Note_on_c, 1, 69, 64
3, 79076, Note_on_c, 1, 69, 0
3, 79080, Note_on_c, 1, 71, 64
3, 79196, Note_on_c, 1, 71, 0
3, 79200, Note_on_c, 1, 69, 64
3, 79316, Note_on_c, 1, 69, 0
3, 79320, Note_on_c, 1, 78, 64
3, 79436, Note_on_c, 1, 78, 0
3, 79440, Note_on_c, 1, 71, 64
3, 79556, Note_on_c, 1, 71, 0
3, 79560, Note_on_c, 1, 79, 64
3, 79676, Note_on_c, 1, 79, 0
3, 79680, Note_on_c, 1, 69, 64
3, 79796, Note_on_c, 1, 69, 0
3, 79800, Note_on_c, 1, 67, 64
3, 79916, Note_on_c, 1, 67, 0
3, 79920, Note_on_c, 1, 69, 64
3, 80036, Note_on_c, 1, 69, 0
3, 80040, Note_on_c, 1, 71, 64
3, 80156, Note_on_c, 1, 71, 0
3, 80160, Note_on_c, 1, 69, 64
3, 80276, Note_on_c, 1, 69, 0
3, 80280, Note_on_c, 1, 79, 64
3, 80396, Note_on_c, 1, 79, 0
3, 80400, Note_on_c, 1, 78, 64
3, 80516, Note_on_c, 1, 78, 0
3, 80520, Note_on_c, 1, 81, 64
3, 80636, Note_on_c, 1, 81, 0
3, 80640, Note_on_c, 1, 83, 64
3, 80876, Note_on_c, 1, 83, 0
3, 80880, Note_on_c, 1, 81, 64
3, 80996, Note_on_c, 1, 81, 0
3, 81000, Note_on_c, 1, 79, 64
3, 81116, Note_on_c, 1, 79, 0
3, 81120, Note_on_c, 1, 81, 64
3, 81356, Note_on_c, 1, 81, 0
3, 81360, Note_on_c, 1, 79, 64
3, 81476, Note_on_c, 1, 79, 0
3, 81480, Note_on_c, 1, 78, 64
3, 81596, Note_on_c, 1, 78, 0
3, 81600, Note_on_c, 1, 79, 64
3, 81836, Note_on_c, 1, 79, 0
3, 81840, Note_on_c, 1, 78, 64
3, 81956, Note_on_c, 1, 78, 0
3, 81960, Note_on_c, 1, 76, 64
3, 82076, Note_on_c, 1, 76, 0
3, 82080, Note_on_c, 1, 74, 64
3, 82196, Note_on_c, 1, 74, 0
3, 82200, Note_on_c, 1, 79, 64
3, 82316, Note_on_c, 1, 79, 0
3, 82320, Note_on_c, 1, 74, 64
3, 82436, Note_on_c, 1, 74, 0
3, 82440, Note_on_c, 1, 79, 64
3, 82556, Note_on_c, 1, 79, 0
3, 82560, Note_on_c, 1, 76, 64
3, 82796, Note_on_c, 1, 76, 0
3, 82800, Note_on_c, 1, 74, 64
3, 82916, Note_on_c, 1, 74, 0
3, 82920, Note_on_c, 1, 72, 64
3, 83036, Note_on_c, 1, 72, 0
3, 83040, Note_on_c, 1, 71, 64
3, 83156, Note_on_c, 1, 71, 0
3, 83160, Note_on_c, 1, 79, 64
3, 83276, Note_on_c, 1, 79, 0
3, 83280, Note_on_c, 1, 71, 64
3, 83396, Note_on_c, 1, 71, 0
3, 83400, Note_on_c, 1, 79, 64
3, 83516, Note_on_c, 1, 79, 0
3, 83520, Note_on_c, 1, 72, 64
3, 83756, Note_on_c, 1, 72, 0
3, 83760, Note_on_c, 1, 71, 64
3, 83876, Note_on_c, 1, 71, 0
3, 83880, Note_on_c, 1, 69, 64
3, 83996, Note_on_c, 1, 69, 0
3, 84000, Note_on_c, 1, 67, 64
3, 84236, Note_on_c, 1, 67, 0
3, 84240, Note_on_c, 1, 69, 64
3, 84476, Note_on_c, 1, 69, 0
3, 84480, Note_on_c, 1, 71, 64
3, 84716, Note_on_c, 1, 71, 0
3, 84720, Note_on_c, 1, 73, 64
3, 84956, Note_on_c, 1, 73, 0
3, 84960, Note_on_c, 1, 74, 64
3, 85196, Note_on_c, 1, 74, 0
3, 85200, Note_on_c, 1, 62, 64
3, 85316, Note_on_c, 1, 62, 0
3, 85320, Note_on_c, 1, 64, 64
3, 85436, Note_on_c, 1, 64, 0
3, 85440, Note_on_c, 1, 66, 64
3, 85676, Note_on_c, 1, 66, 0
3, 85680, Note_on_c, 1, 67, 64
3, 85916, Note_on_c, 1, 67, 0
3, 85920, Note_on_c, 1, 69, 64
3, 86156, Note_on_c, 1, 69, 0
3, 86160, Note_on_c, 1, 78, 64
3, 86396, Note_on_c, 1, 78, 0
3, 86400, Note_on_c, 1, 79, 64
3, 86636, Note_on_c, 1, 79, 0
3, 86640, Note_on_c, 1, 76, 64
3, 86876, Note_on_c, 1, 76, 0
3, 86880, Note_on_c, 1, 74, 64
3, 87116, Note_on_c, 1, 74, 0
3, 87120, Note_on_c, 1, 78, 64
3, 87356, Note_on_c, 1, 78, 0
3, 87360, Note_on_c, 1, 79, 64
3, 87596, Note_on_c, 1, 79, 0
3, 87600, Note_on_c, 1, 78, 64
3, 87716, Note_on_c, 1, 78, 0
3, 87720, Note_on_c, 1, 76, 64
3, 87836, Note_on_c, 1, 76, 0
3, 87840, Note_on_c, 1, 74, 64
3, 87956, Note_on_c, 1, 74, 0
3, 87960, Note_on_c, 1, 72, 64
3, 88076, Note_on_c, 1, 72, 0
3, 88080, Note_on_c, 1, 71, 64
3, 88196, Note_on_c, 1, 71, 0
3, 88200, Note_on_c, 1, 69, 64
3, 88316, Note_on_c, 1, 69, 0
3, 88320, Note_on_c, 1, 71, 64
3, 88556, Note_on_c, 1, 71, 0
3, 88560, Note_on_c, 1, 69, 64
3, 88676, Note_on_c, 1, 69, 0
3, 88680, Note_on_c, 1, 67, 64
3, 88796, Note_on_c, 1, 67, 0
3, 88800, Note_on_c, 1, 74, 64
3, 89036, Note_on_c, 1, 74, 0
3, 89040, Note_on_c, 1, 62, 64
3, 89276, Note_on_c, 1, 62, 0
3, 89280, Note_on_c, 1, 67, 64
3, 89756, Note_on_c, 1, 67, 0
3, 90240, Note_on_c, 1, 74, 64
3, 90356, Note_on_c, 1, 74, 0
3, 90360, Note_on_c, 1, 72, 64
3, 90476, Note_on_c, 1, 72, 0
3, 90480, Note_on_c, 1, 74, 64
3, 90716, Note_on_c, 1, 74, 0
3, 91200, Note_on_c, 1, 74, 64
3, 91316, Note_on_c, 1, 74, 0
3, 91320, Note_on_c, 1, 72, 64
3, 91436, Note_on_c, 1, 72, 0
3, 91440, Note_on_c, 1, 74, 64
3, 91676, Note_on_c, 1, 74, 0
3, 92160, Note_on_c, 1, 72, 64
3, 92276, Note_on_c, 1, 72, 0
3, 92280, Note_on_c, 1, 71, 64
3, 92396, Note_on_c, 1, 71, 0
3, 92400, Note_on_c, 1, 72, 64
3, 92636, Note_on_c, 1, 72, 0
3, 93120, Note_on_c, 1, 72, 64
3, 93236, Note_on_c, 1, 72, 0
3, 93240, Note_on_c, 1, 71, 64
3, 93356, Note_on_c, 1, 71, 0
3, 93360, Note_on_c, 1, 72, 64
3, 93596, Note_on_c, 1, 72, 0
3, 94080, Note_on_c, 1, 69, 64
3, 94196, Note_on_c, 1, 69, 0
3, 94200, Note_on_c, 1, 67, 64
3, 94316, Note_on_c, 1, 67, 0
3, 94320, Note_on_c, 1, 69, 64
3, 94556, Note_on_c, 1, 69, 0
3, 95040, Note_on_c, 1, 69, 64
3, 95156, Note_on_c, 1, 69, 0
3, 95160, Note_on_c, 1, 67, 64
3, 95276, Note_on_c, 1, 67, 0
3, 95280, Note_on_c, 1, 69, 64
3, 95516, Note_on_c, 1, 69, 0
3, 96000, Note_on_c, 1, 67, 64
3, 96116, Note_on_c, 1, 67, 0
3, 96120, Note_on_c, 1, 66, 64
3, 96236, Note_on_c, 1, 66, 0
3, 96240, Note_on_c, 1, 67, 64
3, 96356, Note_on_c, 1, 67, 0
3, 96360, Note_on_c, 1, 69, 64
3, 96476, Note_on_c, 1, 69, 0
3, 96480, Note_on_c, 1, 71, 64
3, 96596, Note_on_c, 1, 71, 0
3, 96600, Note_on_c, 1, 69, 64
3, 96716, Note_on_c, 1, 69, 0
3, 96720, Note_on_c, 1, 67, 64
3, 96836, Note_on_c, 1, 67, 0
3, 96840, Note_on_c, 1, 69, 64
3, 96956, Note_on_c, 1, 69, 0
3, 96960, Note_on_c, 1, 66, 64
3, 97436, Note_on_c, 1, 66, 0
3, 97560, Note_on_c, 1, 74, 64
3, 97676, Note_on_c, 1, 74, 0
3, 97680, Note_on_c, 1, 69, 64
3, 97796, Note_on_c, 1, 69, 0
3, 97800, Note_on_c, 1, 71, 64
3, 97916, Note_on_c, 1, 71, 0
3, 97920, Note_on_c, 1, 72, 64
3, 98036, Note_on_c, 1, 72, 0
3, 98040, Note_on_c, 1, 71, 64
3, 98156, Note_on_c, 1, 71, 0
3, 98160, Note_on_c, 1, 72, 64
3, 98276, Note_on_c, 1, 72, 0
3, 98280, Note_on_c, 1, 81, 64
3, 98396, Note_on_c, 1, 81, 0
3, 98400, Note_on_c, 1, 78, 64
3, 98516, Note_on_c, 1, 78, 0
3, 98520, Note_on_c, 1, 75, 64
3, 98636, Note_on_c, 1, 75, 0
3, 98640, Note_on_c, 1, 72, 64
3, 98756, Note_on_c, 1, 72, 0
3, 98760, Note_on_c, 1, 69, 64
3, 98876, Note_on_c, 1, 69, 0
3, 98880, Note_on_c, 1, 72, 64
3, 98996, Note_on_c, 1, 72, 0
3, 99000, Note_on_c, 1, 71, 64
3, 99116, Note_on_c, 1, 71, 0
3, 99120, Note_on_c, 1, 72, 64
3, 99236, Note_on_c, 1, 72, 0
3, 99240, Note_on_c, 1, 81, 64
3, 99356, Note_on_c, 1, 81, 0
3, 99360, Note_on_c, 1, 78, 64
3, 99476, Note_on_c, 1, 78, 0
3, 99480, Note_on_c, 1, 75, 64
3, 99596, Note_on_c, 1, 75, 0
3, 99600, Note_on_c, 1, 72, 64
3, 99716, Note_on_c, 1, 72, 0
3, 99720, Note_on_c, 1, 69, 64
3, 99836, Note_on_c, 1, 69, 0
3, 99840, Note_on_c, 1, 71, 64
3, 99956, Note_on_c, 1, 71, 0
3, 99960, Note_on_c, 1, 69, 64
3, 100076, Note_on_c, 1, 69, 0
3, 100080, Note_on_c, 1, 71, 64
3, 100196, Note_on_c, 1, 71, 0
3, 100200, Note_on_c, 1, 81, 64
3, 100316, Note_on_c, 1, 81, 0
3, 100320, Note_on_c, 1, 78, 64
3, 100436, Note_on_c, 1, 78, 0
3, 100440, Note_on_c, 1, 75, 64
3, 100556, Note_on_c, 1, 75, 0
3, 100560, Note_on_c, 1, 71, 64
3, 100676, Note_on_c, 1, 71, 0
3, 100680, Note_on_c, 1, 66, 64
3, 100796, Note_on_c, 1, 66, 0
3, 100800, Note_on_c, 1, 71, 64
3, 100916, Note_on_c, 1, 71, 0
3, 100920, Note_on_c, 1, 69, 64
3, 101036, Note_on_c, 1, 69, 0
3, 101040, Note_on_c, 1, 71, 64
3, 101156, Note_on_c, 1, 71, 0
3, 101160, Note_on_c, 1, 81, 64
3, 101276, Note_on_c, 1, 81, 0
3, 101280, Note_on_c, 1, 78, 64
3, 101396, Note_on_c, 1, 78, 0
3, 101400, Note_on_c, 1, 75, 64
3, 101516, Note_on_c, 1, 75, 0
3, 101520, Note_on_c, 1, 71, 64
3, 101636, Note_on_c, 1, 71, 0
3, 101640, Note_on_c, 1, 66, 64
3, 101756, Note_on_c, 1, 66, 0
3, 101760, Note_on_c, 1, 69, 64
3, 101876, Note_on_c, 1, 69, 0
3, 101880, Note_on_c, 1, 67, 64
3, 101996, Note_on_c, 1, 67, 0
3, 102000, Note_on_c, 1, 69, 64
3, 102116, Note_on_c, 1, 69, 0
3, 102120, Note_on_c, 1, 78, 64
3, 102236, Note_on_c, 1, 78, 0
3, 102240, Note_on_c, 1, 75, 64
3, 102356, Note_on_c, 1, 75, 0
3, 102360, Note_on_c, 1, 71, 64
3, 102476, Note_on_c, 1, 71, 0
3, 102480, Note_on_c, 1, 69, 64
3, 102596, Note_on_c, 1, 69, 0
3, 102600, Note_on_c, 1, 66, 64
3, 102716, Note_on_c, 1, 66, 0
3, 102720, Note_on_c, 1, 69, 64
3, 102836, Note_on_c, 1, 69, 0
3, 102840, Note_on_c, 1, 67, 64
3, 102956, Note_on_c, 1, 67, 0
3, 102960, Note_on_c, 1, 69, 64
3, 103076, Note_on_c, 1, 69, 0
3, 103080, Note_on_c, 1, 78, 64
3, 103196, Note_on_c, 1, 78, 0
3, 103200, Note_on_c, 1, 75, 64
3, 103316, Note_on_c, 1, 75, 0
3, 103320, Note_on_c, 1, 71, 64
3, 103436, Note_on_c, 1, 71, 0
3, 103440, Note_on_c, 1, 69, 64
3, 103556, Note_on_c, 1, 69, 0
3, 103560, Note_on_c, 1, 66, 64
3, 103676, Note_on_c, 1, 66, 0
3, 103680, Note_on_c, 1, 67, 64
3, 103916, Note_on_c, 1, 67, 0
3, 103920, Note_on_c, 1, 67, 64
3, 104036, Note_on_c, 1, 67, 0
3, 104040, Note_on_c, 1, 66, 64
3, 104156, Note_on_c, 1, 66, 0
3, 104160, Note_on_c, 1, 67, 64
3, 104396, Note_on_c, 1, 67, 0
3, 105840, Note_on_c, 1, 64, 64
3, 105956, Note_on_c, 1, 64, 0
3, 105960, Note_on_c, 1, 66, 64
3, 106076, Note_on_c, 1, 66, 0
3, 106080, Note_on_c, 1, 67, 64
3, 106316, Note_on_c, 1, 67, 0
3, 106320, Note_on_c, 1, 69, 64
3, 106556, Note_on_c, 1, 69, 0
3, 106560, Note_on_c, 1, 71, 64
3, 106796, Note_on_c, 1, 71, 0
3, 106800, Note_on_c, 1, 69, 64
3, 106916, Note_on_c, 1, 69, 0
3, 106920, Note_on_c, 1, 67, 64
3, 107036, Note_on_c, 1, 67, 0
3, 107040, Note_on_c, 1, 69, 64
3, 107276, Note_on_c, 1, 69, 0
3, 107280, Note_on_c, 1, 75, 64
3, 107396, Note_on_c, 1, 75, 0
3, 107400, Note_on_c, 1, 73, 64
3, 107516, Note_on_c, 1, 73, 0
3, 107520, Note_on_c, 1, 75, 64
3, 107756, Note_on_c, 1, 75, 0
3, 109440, Note_on_c, 1, 79, 64
3, 109676, Note_on_c, 1, 79, 0
3, 109680, Note_on_c, 1, 78, 64
3, 109796, Note_on_c, 1, 78, 0
3, 109800, Note_on_c, 1, 76, 64
3, 109916, Note_on_c, 1, 76, 0
3, 109920, Note_on_c, 1, 78, 64
3, 110156, Note_on_c, 1, 78, 0
3, 110160, Note_on_c, 1, 76, 64
3, 110276, Note_on_c, 1, 76, 0
3, 110280, Note_on_c, 1, 75, 64
3, 110396, Note_on_c, 1, 75, 0
3, 110400, Note_on_c, 1, 84, 64
3, 110756, Note_on_c, 1, 84, 0
3, 110760, Note_on_c, 1, 83, 64
3, 110876, Note_on_c, 1, 83, 0
3, 110880, Note_on_c, 1, 81, 64
3, 110996, Note_on_c, 1, 81, 0
3, 111000, Note_on_c, 1, 79, 64
3, 111116, Note_on_c, 1, 79, 0
3, 111120, Note_on_c, 1, 78, 64
3, 111236, Note_on_c, 1, 78, 0
3, 111240, Note_on_c, 1, 76, 64
3, 111356, Note_on_c, 1, 76, 0
3, 111360, Note_on_c, 1, 83, 64
3, 111596, Note_on_c, 1, 83, 0
3, 111600, Note_on_c, 1, 81, 64
3, 111716, Note_on_c, 1, 81, 0
3, 111720, Note_on_c, 1, 79, 64
3, 111836, Note_on_c, 1, 79, 0
3, 111840, Note_on_c, 1, 78, 64
3, 112076, Note_on_c, 1, 78, 0
3, 112080, Note_on_c, 1, 76, 64
3, 112196, Note_on_c, 1, 76, 0
3, 112200, Note_on_c, 1, 75, 64
3, 112316, Note_on_c, 1, 75, 0
3, 112320, Note_on_c, 1, 76, 64
3, 112556, Note_on_c, 1, 76, 0
3, 112560, Note_on_c, 1, 71, 64
3, 112676, Note_on_c, 1, 71, 0
3, 112680, Note_on_c, 1, 69, 64
3, 112796, Note_on_c, 1, 69, 0
3, 112800, Note_on_c, 1, 71, 64
3, 113036, Note_on_c, 1, 71, 0
3, 113520, Note_on_c, 1, 71, 64
3, 113636, Note_on_c, 1, 71, 0
3, 113640, Note_on_c, 1, 69, 64
3, 113756, Note_on_c, 1, 69, 0
3, 113760, Note_on_c, 1, 71, 64
3, 113996, Note_on_c, 1, 71, 0
3, 114480, Note_on_c, 1, 71, 64
3, 114596, Note_on_c, 1, 71, 0
3, 114600, Note_on_c, 1, 69, 64
3, 114716, Note_on_c, 1, 69, 0
3, 114720, Note_on_c, 1, 71, 64
3, 114956, Note_on_c, 1, 71, 0
3, 115440, Note_on_c, 1, 71, 64
3, 115556, Note_on_c, 1, 71, 0
3, 115560, Note_on_c, 1, 69, 64
3, 115676, Note_on_c, 1, 69, 0
3, 115680, Note_on_c, 1, 67, 64
3, 115916, Note_on_c, 1, 67, 0
3, 115920, Note_on_c, 1, 68, 64
3, 116156, Note_on_c, 1, 68, 0
3, 116160, Note_on_c, 1, 69, 64
3, 116636, Note_on_c, 1, 69, 0
3, 116880, Note_on_c, 1, 71, 64
3, 117116, Note_on_c, 1, 71, 0
3, 117120, Note_on_c, 1, 73, 64
3, 117236, Note_on_c, 1, 73, 0
3, 117240, Note_on_c, 1, 76, 64
3, 117356, Note_on_c, 1, 76, 0
3, 117360, Note_on_c, 1, 69, 64
3, 117476, Note_on_c, 1, 69, 0
3, 117480, Note_on_c, 1, 71, 64
3, 117596, Note_on_c, 1, 71, 0
3, 117600, Note_on_c, 1, 73, 64
3, 117716, Note_on_c, 1, 73, 0
3, 117720, Note_on_c, 1, 74, 64
3, 117836, Note_on_c, 1, 74, 0
3, 117840, Note_on_c, 1, 76, 64
3, 117956, Note_on_c, 1, 76, 0
3, 117960, Note_on_c, 1, 74, 64
3, 118076, Note_on_c, 1, 74, 0
3, 118080, Note_on_c, 1, 73, 64
3, 118316, Note_on_c, 1, 73, 0
3, 118320, Note_on_c, 1, 81, 64
3, 118556, Note_on_c, 1, 81, 0
3, 118800, Note_on_c, 1, 80, 64
3, 119036, Note_on_c, 1, 80, 0
3, 119040, Note_on_c, 1, 81, 64
3, 119276, Note_on_c, 1, 81, 0
3, 119280, Note_on_c, 1, 76, 64
3, 119516, Note_on_c, 1, 76, 0
3, 119520, Note_on_c, 1, 69, 64
3, 119756, Note_on_c, 1, 69, 0
3, 119760, Note_on_c, 1, 73, 64
3, 119996, Note_on_c, 1, 73, 0
3, 120000, Note_on_c, 1, 74, 64
3, 120236, Note_on_c, 1, 74, 0
3, 120240, Note_on_c, 1, 81, 64
3, 120356, Note_on_c, 1, 81, 0
3, 120360, Note_on_c, 1, 79, 64
3, 120476, Note_on_c, 1, 79, 0
3, 120480, Note_on_c, 1, 81, 64
3, 120716, Note_on_c, 1, 81, 0
3, 121200, Note_on_c, 1, 81, 64
3, 121316, Note_on_c, 1, 81, 0
3, 121320, Note_on_c, 1, 79, 64
3, 121436, Note_on_c, 1, 79, 0
3, 121440, Note_on_c, 1, 81, 64
3, 121676, Note_on_c, 1, 81, 0
3, 122160, Note_on_c, 1, 81, 64
3, 122276, Note_on_c, 1, 81, 0
3, 122280, Note_on_c, 1, 79, 64
3, 122396, Note_on_c, 1, 79, 0
3, 122400, Note_on_c, 1, 81, 64
3, 122636, Note_on_c, 1, 81, 0
3, 123600, Note_on_c, 1, 74, 64
3, 123836, Note_on_c, 1, 74, 0
3, 123840, Note_on_c, 1, 71, 64
3, 123956, Note_on_c, 1, 71, 0
3, 123960, Note_on_c, 1, 74, 64
3, 124076, Note_on_c, 1, 74, 0
3, 124080, Note_on_c, 1, 67, 64
3, 124196, Note_on_c, 1, 67, 0
3, 124200, Note_on_c, 1, 69, 64
3, 124316, Note_on_c, 1, 69, 0
3, 124320, Note_on_c, 1, 71, 64
3, 124436, Note_on_c, 1, 71, 0
3, 124440, Note_on_c, 1, 72, 64
3, 124556, Note_on_c, 1, 72, 0
3, 124560, Note_on_c, 1, 74, 64
3, 124676, Note_on_c, 1, 74, 0
3, 124680, Note_on_c, 1, 72, 64
3, 124796, Note_on_c, 1, 72, 0
3, 124800, Note_on_c, 1, 71, 64
3, 125036, Note_on_c, 1, 71, 0
3, 125040, Note_on_c, 1, 74, 64
3, 125156, Note_on_c, 1, 74, 0
3, 125160, Note_on_c, 1, 72, 64
3, 125276, Note_on_c, 1, 72, 0
3, 125280, Note_on_c, 1, 74, 64
3, 125516, Note_on_c, 1, 74, 0
3, 126480, Note_on_c, 1, 71, 64
3, 126596, Note_on_c, 1, 71, 0
3, 126600, Note_on_c, 1, 72, 64
3, 126716, Note_on_c, 1, 72, 0
3, 126720, Note_on_c, 1, 74, 64
3, 126956, Note_on_c, 1, 74, 0
3, 126960, Note_on_c, 1, 71, 64
3, 127076, Note_on_c, 1, 71, 0
3, 127080, Note_on_c, 1, 72, 64
3, 127196, Note_on_c, 1, 72, 0
3, 127200, Note_on_c, 1, 71, 64
3, 127436, Note_on_c, 1, 71, 0
3, 128640, Note_on_c, 1, 76, 64
3, 128756, Note_on_c, 1, 76, 0
3, 128760, Note_on_c, 1, 74, 64
3, 128876, Note_on_c, 1, 74, 0
3, 128880, Note_on_c, 1, 76, 64
3, 129116, Note_on_c, 1, 76, 0
3, 129600, Note_on_c, 1, 76, 64
3, 129716, Note_on_c, 1, 76, 0
3, 129720, Note_on_c, 1, 74, 64
3, 129836, Note_on_c, 1, 74, 0
3, 129840, Note_on_c, 1, 76, 64
3, 130076, Note_on_c, 1, 76, 0
3, 130560, Note_on_c, 1, 61, 64
3, 130676, Note_on_c, 1, 61, 0
3, 130680, Note_on_c, 1, 59, 64
3, 130796, Note_on_c, 1, 59, 0
3, 130800, Note_on_c, 1, 61, 64
3, 131036, Note_on_c, 1, 61, 0
3, 131520, Note_on_c, 1, 61, 64
3, 131636, Note_on_c, 1, 61, 0
3, 131640, Note_on_c, 1, 59, 64
3, 131756, Note_on_c, 1, 59, 0
3, 131760, Note_on_c, 1, 61, 64
3, 131996, Note_on_c, 1, 61, 0
3, 132480, Note_on_c, 1, 79, 64
3, 132596, Note_on_c, 1, 79, 0
3, 132600, Note_on_c, 1, 78, 64
3, 132716, Note_on_c, 1, 78, 0
3, 132720, Note_on_c, 1, 79, 64
3, 132956, Note_on_c, 1, 79, 0
3, 133440, Note_on_c, 1, 73, 64
3, 133556, Note_on_c, 1, 73, 0
3, 133560, Note_on_c, 1, 71, 64
3, 133676, Note_on_c, 1, 71, 0
3, 133680, Note_on_c, 1, 73, 64
3, 133916, Note_on_c, 1, 73, 0
3, 134160, Note_on_c, 1, 78, 64
3, 134276, Note_on_c, 1, 78, 0
3, 134280, Note_on_c, 1, 76, 64
3, 134396, Note_on_c, 1, 76, 0
3, 134400, Note_on_c, 1, 78, 64
3, 134636, Note_on_c, 1, 78, 0
3, 134640, Note_on_c, 1, 74, 64
3, 134756, Note_on_c, 1, 74, 0
3, 134760, Note_on_c, 1, 73, 64
3, 134876, Note_on_c, 1, 73, 0
3, 134880, Note_on_c, 1, 74, 64
3, 135116, Note_on_c, 1, 74, 0
3, 135120, Note_on_c, 1, 78, 64
3, 135236, Note_on_c, 1, 78, 0
3, 135240, Note_on_c, 1, 76, 64
3, 135356, Note_on_c, 1, 76, 0
3, 135360, Note_on_c, 1, 78, 64
3, 135596, Note_on_c, 1, 78, 0
3, 135600, Note_on_c, 1, 71, 64
3, 135716, Note_on_c, 1, 71, 0
3, 135720, Note_on_c, 1, 70, 64
3, 135836, Note_on_c, 1, 70, 0
3, 135840, Note_on_c, 1, 71, 64
3, 136076, Note_on_c, 1, 71, 0
3, 136080, Note_on_c, 1, 78, 64
3, 136196, Note_on_c, 1, 78, 0
3, 136200, Note_on_c, 1, 76, 64
3, 136316, Note_on_c, 1, 76, 0
3, 136320, Note_on_c, 1, 78, 64
3, 136556, Note_on_c, 1, 78, 0
3, 136560, Note_on_c, 1, 71, 64
3, 136676, Note_on_c, 1, 71, 0
3, 136680, Note_on_c, 1, 73, 64
3, 136796, Note_on_c, 1, 73, 0
3, 136800, Note_on_c, 1, 74, 64
3, 137036, Note_on_c, 1, 74, 0
3, 137040, Note_on_c, 1, 76, 64
3, 137276, Note_on_c, 1, 76, 0
3, 137280, Note_on_c, 1, 78, 64
3, 137396, Note_on_c, 1, 78, 0
3, 137400, Note_on_c, 1, 76, 64
3, 137516, Note_on_c, 1, 76, 0
3, 137520, Note_on_c, 1, 78, 64
3, 137636, Note_on_c, 1, 78, 0
3, 137640, Note_on_c, 1, 79, 64
3, 137756, Note_on_c, 1, 79, 0
3, 137760, Note_on_c, 1, 78, 64
3, 137876, Note_on_c, 1, 78, 0
3, 137880, Note_on_c, 1, 76, 64
3, 137996, Note_on_c, 1, 76, 0
3, 138000, Note_on_c, 1, 74, 64
3, 138116, Note_on_c, 1, 74, 0
3, 138120, Note_on_c, 1, 73, 64
3, 138236, Note_on_c, 1, 73, 0
3, 138240, Note_on_c, 1, 74, 64
3, 138356, Note_on_c, 1, 74, 0
3, 138360, Note_on_c, 1, 76, 64
3, 138476, Note_on_c, 1, 76, 0
3, 138480, Note_on_c, 1, 74, 64
3, 138596, Note_on_c, 1, 74, 0
3, 138600, Note_on_c, 1, 76, 64
3, 138716, Note_on_c, 1, 76, 0
3, 138720, Note_on_c, 1, 76, 64
3, 138756, Note_on_c, 1, 76, 0
3, 138760, Note_on_c, 1, 78, 64
3, 138796, Note_on_c, 1, 78, 0
3, 138800, Note_on_c, 1, 76, 64
3, 139076, Note_on_c, 1, 76, 0
3, 139080, Note_on_c, 1, 74, 64
3, 139136, Note_on_c, 1, 74, 0
3, 139140, Note_on_c, 1, 76, 64
3, 139196, Note_on_c, 1, 76, 0
3, 139200, Note_on_c, 1, 78, 64
3, 139436, Note_on_c, 1, 78, 0
3, 139440, Note_on_c, 1, 83, 64
3, 139556, Note_on_c, 1, 83, 0
3, 139560, Note_on_c, 1, 82, 64
3, 139676, Note_on_c, 1, 82, 0
3, 139680, Note_on_c, 1, 83, 64
3, 139916, Note_on_c, 1, 83, 0
3, 139920, Note_on_c, 1, 78, 64
3, 140036, Note_on_c, 1, 78, 0
3, 140040, Note_on_c, 1, 76, 64
3, 140156, Note_on_c, 1, 76, 0
3, 140160, Note_on_c, 1, 74, 64
3, 140396, Note_on_c, 1, 74, 0
3, 140400, Note_on_c, 1, 73, 64
3, 140516, Note_on_c, 1, 73, 0
3, 140520, Note_on_c, 1, 71, 64
3, 140636, Note_on_c, 1, 71, 0
3, 140640, Note_on_c, 1, 73, 64
3, 140876, Note_on_c, 1, 73, 0
3, 140880, Note_on_c, 1, 71, 64
3, 140996, Note_on_c, 1, 71, 0
3, 141000, Note_on_c, 1, 70, 64
3, 141116, Note_on_c, 1, 70, 0
3, 141120, Note_on_c, 1, 79, 64
3, 141476, Note_on_c, 1, 79, 0
3, 141480, Note_on_c, 1, 78, 64
3, 141596, Note_on_c, 1, 78, 0
3, 141600, Note_on_c, 1, 76, 64
3, 141716, Note_on_c, 1, 76, 0
3, 141720, Note_on_c, 1, 74, 64
3, 141836, Note_on_c, 1, 74, 0
3, 141840, Note_on_c, 1, 73, 64
3, 141956, Note_on_c, 1, 73, 0
3, 141960, Note_on_c, 1, 71, 64
3, 142076, Note_on_c, 1, 71, 0
3, 142080, Note_on_c, 1, 66, 64
3, 142316, Note_on_c, 1, 66, 0
3, 142320, Note_on_c, 1, 71, 64
3, 142556, Note_on_c, 1, 71, 0
3, 142560, Note_on_c, 1, 71, 64
3, 142796, Note_on_c, 1, 71, 0
3, 142800, Note_on_c, 1, 70, 64
3, 143036, Note_on_c, 1, 70, 0
3, 143040, Note_on_c, 1, 71, 64
3, 143516, Note_on_c, 1, 71, 0
3, 145200, Note_on_c, 1, 71, 64
3, 145316, Note_on_c, 1, 71, 0
3, 145320, Note_on_c, 1, 70, 64
3, 145436, Note_on_c, 1, 70, 0
3, 145440, Note_on_c, 1, 71, 64
3, 145676, Note_on_c, 1, 71, 0
3, 145680, Note_on_c, 1, 74, 64
3, 145796, Note_on_c, 1, 74, 0
3, 145800, Note_on_c, 1, 73, 64
3, 145916, Note_on_c, 1, 73, 0
3, 145920, Note_on_c, 1, 71, 64
3, 146156, Note_on_c, 1, 71, 0
3, 146160, Note_on_c, 1, 74, 64
3, 146396, Note_on_c, 1, 74, 0
3, 146400, Note_on_c, 1, 74, 64
3, 146636, Note_on_c, 1, 74, 0
3, 146640, Note_on_c, 1, 73, 64
3, 146756, Note_on_c, 1, 73, 0
3, 146760, Note_on_c, 1, 74, 64
3, 146876, Note_on_c, 1, 74, 0
3, 146880, Note_on_c, 1, 73, 64
3, 147116, Note_on_c, 1, 73, 0
3, 147120, Note_on_c, 1, 73, 64
3, 147356, Note_on_c, 1, 73, 0
3, 147360, Note_on_c, 1, 73, 64
3, 147596, Note_on_c, 1, 73, 0
3, 147600, Note_on_c, 1, 71, 64
3, 147716, Note_on_c, 1, 71, 0
3, 147720, Note_on_c, 1, 73, 64
3, 147836, Note_on_c, 1, 73, 0
3, 147840, Note_on_c, 1, 71, 64
3, 148196, Note_on_c, 1, 71, 0
3, 148200, Note_on_c, 1, 73, 64
3, 148316, Note_on_c, 1, 73, 0
3, 148320, Note_on_c, 1, 70, 64
3, 148356, Note_on_c, 1, 70, 0
3, 148360, Note_on_c, 1, 71, 64
3, 148396, Note_on_c, 1, 71, 0
3, 148400, Note_on_c, 1, 70, 64
3, 148676, Note_on_c, 1, 70, 0
3, 148680, Note_on_c, 1, 71, 64
3, 148796, Note_on_c, 1, 71, 0
3, 148800, Note_on_c, 1, 71, 64
3, 149276, Note_on_c, 1, 71, 0
3, 149520, Note_on_c, 1, 67, 64
3, 149636, Note_on_c, 1, 67, 0
3, 149640, Note_on_c, 1, 66, 64
3, 149756, Note_on_c, 1, 66, 0
3, 149760, Note_on_c, 1, 67, 64
3, 149996, Note_on_c, 1, 67, 0
3, 150000, Note_on_c, 1, 62, 64
3, 150116, Note_on_c, 1, 62, 0
3, 150120, Note_on_c, 1, 60, 64
3, 150236, Note_on_c, 1, 60, 0
3, 150240, Note_on_c, 1, 62, 64
3, 150476, Note_on_c, 1, 62, 0
3, 150480, Note_on_c, 1, 67, 64
3, 150596, Note_on_c, 1, 67, 0
3, 150600, Note_on_c, 1, 66, 64
3, 150716, Note_on_c, 1, 66, 0
3, 150720, Note_on_c, 1, 67, 64
3, 150956, Note_on_c, 1, 67, 0
3, 150960, Note_on_c, 1, 59, 64
3, 151076, Note_on_c, 1, 59, 0
3, 151080, Note_on_c, 1, 57, 64
3, 151196, Note_on_c, 1, 57, 0
3, 151200, Note_on_c, 1, 59, 64
3, 151436, Note_on_c, 1, 59, 0
3, 151440, Note_on_c, 1, 67, 64
3, 151556, Note_on_c, 1, 67, 0
3, 151560, Note_on_c, 1, 66, 64
3, 151676, Note_on_c, 1, 66, 0
3, 151680, Note_on_c, 1, 67, 64
3, 151916, Note_on_c, 1, 67, 0
3, 151920, Note_on_c, 1, 55, 64
3, 152036, Note_on_c, 1, 55, 0
3, 152040, Note_on_c, 1, 57, 64
3, 152156, Note_on_c, 1, 57, 0
3, 152160, Note_on_c, 1, 59, 64
3, 152396, Note_on_c, 1, 59, 0
3, 152400, Note_on_c, 1, 61, 64
3, 152636, Note_on_c, 1, 61, 0
3, 152640, Note_on_c, 1, 62, 64
3, 153116, Note_on_c, 1, 62, 0
3, 153600, Note_on_c, 1, 62, 64
3, 154076, Note_on_c, 1, 62, 0
3, 154080, Note_on_c, 1, 66, 64
3, 154556, Note_on_c, 1, 66, 0
3, 154560, Note_on_c, 1, 69, 64
3, 155036, Note_on_c, 1, 69, 0
3, 155280, Note_on_c, 1, 69, 64
3, 155516, Note_on_c, 1, 69, 0
3, 155520, Note_on_c, 1, 66, 64
3, 155756, Note_on_c, 1, 66, 0
3, 155760, Note_on_c, 1, 69, 64
3, 155996, Note_on_c, 1, 69, 0
3, 156000, Note_on_c, 1, 74, 64
3, 156116, Note_on_c, 1, 74, 0
3, 156120, Note_on_c, 1, 78, 64
3, 156236, Note_on_c, 1, 78, 0
3, 156240, Note_on_c, 1, 76, 64
3, 156356, Note_on_c, 1, 76, 0
3, 156360, Note_on_c, 1, 74, 64
3, 156476, Note_on_c, 1, 74, 0
3, 156480, Note_on_c, 1, 73, 64
3, 156596, Note_on_c, 1, 73, 0
3, 156600, Note_on_c, 1, 74, 64
3, 156716, Note_on_c, 1, 74, 0
3, 156720, Note_on_c, 1, 76, 64
3, 156836, Note_on_c, 1, 76, 0
3, 156840, Note_on_c, 1, 74, 64
3, 156956, Note_on_c, 1, 74, 0
3, 156960, Note_on_c, 1, 73, 64
3, 157076, Note_on_c, 1, 73, 0
3, 157080, Note_on_c, 1, 71, 64
3, 157196, Note_on_c, 1, 71, 0
3, 157200, Note_on_c, 1, 69, 64
3, 157316, Note_on_c, 1, 69, 0
3, 157320, Note_on_c, 1, 67, 64
3, 157436, Note_on_c, 1, 67, 0
3, 157440, Note_on_c, 1, 66, 64
3, 157556, Note_on_c, 1, 66, 0
3, 157560, Note_on_c, 1, 64, 64
3, 157676, Note_on_c, 1, 64, 0
3, 157680, Note_on_c, 1, 66, 64
3, 157796, Note_on_c, 1, 66, 0
3, 157800, Note_on_c, 1, 67, 64
3, 157916, Note_on_c, 1, 67, 0
3, 157920, Note_on_c, 1, 66, 64
3, 158036, Note_on_c, 1, 66, 0
3, 158040, Note_on_c, 1, 69, 64
3, 158156, Note_on_c, 1, 69, 0
3, 158160, Note_on_c, 1, 64, 64
3, 158276, Note_on_c, 1, 64, 0
3, 158280, Note_on_c, 1, 67, 64
3, 158396, Note_on_c, 1, 67, 0
3, 158400, Note_on_c, 1, 66, 64
3, 158876, Note_on_c, 1, 66, 0
3, 159120, Note_on_c, 1, 66, 64
3, 159356, Note_on_c, 1, 66, 0
3, 159360, Note_on_c, 1, 67, 64
3, 159476, Note_on_c, 1, 67, 0
3, 159480, Note_on_c, 1, 66, 64
3, 159596, Note_on_c, 1, 66, 0
3, 159600, Note_on_c, 1, 67, 64
3, 159716, Note_on_c, 1, 67, 0
3, 159720, Note_on_c, 1, 69, 64
3, 159836, Note_on_c, 1, 69, 0
3, 159840, Note_on_c, 1, 67, 64
3, 159956, Note_on_c, 1, 67, 0
3, 159960, Note_on_c, 1, 71, 64
3, 160076, Note_on_c, 1, 71, 0
3, 160080, Note_on_c, 1, 66, 64
3, 160196, Note_on_c, 1, 66, 0
3, 160200, Note_on_c, 1, 69, 64
3, 160316, Note_on_c, 1, 69, 0
3, 160320, Note_on_c, 1, 67, 64
3, 160436, Note_on_c, 1, 67, 0
3, 160440, Note_on_c, 1, 69, 64
3, 160556, Note_on_c, 1, 69, 0
3, 160560, Note_on_c, 1, 71, 64
3, 160676, Note_on_c, 1, 71, 0
3, 160680, Note_on_c, 1, 69, 64
3, 160796, Note_on_c, 1, 69, 0
3, 160800, Note_on_c, 1, 67, 64
3, 160916, Note_on_c, 1, 67, 0
3, 160920, Note_on_c, 1, 66, 64
3, 161036, Note_on_c, 1, 66, 0
3, 161040, Note_on_c, 1, 64, 64
3, 161156, Note_on_c, 1, 64, 0
3, 161160, Note_on_c, 1, 63, 64
3, 161276, Note_on_c, 1, 63, 0
3, 161280, Note_on_c, 1, 64, 64
3, 161396, Note_on_c, 1, 64, 0
3, 161400, Note_on_c, 1, 63, 64
3, 161516, Note_on_c, 1, 63, 0
3, 161520, Note_on_c, 1, 64, 64
3, 161636, Note_on_c, 1, 64, 0
3, 161640, Note_on_c, 1, 66, 64
3, 161756, Note_on_c, 1, 66, 0
3, 161760, Note_on_c, 1, 64, 64
3, 161876, Note_on_c, 1, 64, 0
3, 161880, Note_on_c, 1, 67, 64
3, 161996, Note_on_c, 1, 67, 0
3, 162000, Note_on_c, 1, 63, 64
3, 162116, Note_on_c, 1, 63, 0
3, 162120, Note_on_c, 1, 66, 64
3, 162236, Note_on_c, 1, 66, 0
3, 162240, Note_on_c, 1, 64, 64
3, 162356, Note_on_c, 1, 64, 0
3, 162360, Note_on_c, 1, 66, 64
3, 162476, Note_on_c, 1, 66, 0
3, 162480, Note_on_c, 1, 67, 64
3, 162596, Note_on_c, 1, 67, 0
3, 162600, Note_on_c, 1, 66, 64
3, 162716, Note_on_c, 1, 66, 0
3, 162720, Note_on_c, 1, 64, 64
3, 162836, Note_on_c, 1, 64, 0
3, 162840, Note_on_c, 1, 62, 64
3, 162956, Note_on_c, 1, 62, 0
3, 162960, Note_on_c, 1, 60, 64
3, 163076, Note_on_c, 1, 60, 0
3, 163080, Note_on_c, 1, 59, 64
3, 163196, Note_on_c, 1, 59, 0
3, 163200, Note_on_c, 1, 60, 64
3, 163316, Note_on_c, 1, 60, 0
3, 163320, Note_on_c, 1, 59, 64
3, 163436, Note_on_c, 1, 59, 0
3, 163440, Note_on_c, 1, 57, 64
3, 163556, Note_on_c, 1, 57, 0
3, 163560, Note_on_c, 1, 60, 64
3, 163676, Note_on_c, 1, 60, 0
3, 163680, Note_on_c, 1, 59, 64
3, 163796, Note_on_c, 1, 59, 0
3, 163800, Note_on_c, 1, 62, 64
3, 163916, Note_on_c, 1, 62, 0
3, 163920, Note_on_c, 1, 60, 64
3, 164036, Note_on_c, 1, 60, 0
3, 164040, Note_on_c, 1, 59, 64
3, 164156, Note_on_c, 1, 59, 0
3, 164160, Note_on_c, 1, 57, 64
3, 164276, Note_on_c, 1, 57, 0
3, 164280, Note_on_c, 1, 59, 64
3, 164396, Note_on_c, 1, 59, 0
3, 164400, Note_on_c, 1, 60, 64
3, 164516, Note_on_c, 1, 60, 0
3, 164520, Note_on_c, 1, 62, 64
3, 164636, Note_on_c, 1, 62, 0
3, 164640, Note_on_c, 1, 64, 64
3, 164756, Note_on_c, 1, 64, 0
3, 164760, Note_on_c, 1, 66, 64
3, 164876, Note_on_c, 1, 66, 0
3, 164880, Note_on_c, 1, 67, 64
3, 164996, Note_on_c, 1, 67, 0
3, 165000, Note_on_c, 1, 69, 64
3, 165116, Note_on_c, 1, 69, 0
3, 165120, Note_on_c, 1, 62, 64
3, 165596, Note_on_c, 1, 62, 0
3, 165840, Note_on_c, 1, 67, 64
3, 165956, Note_on_c, 1, 67, 0
3, 165960, Note_on_c, 1, 69, 64
3, 166076, Note_on_c, 1, 69, 0
3, 166080, Note_on_c, 1, 71, 64
3, 166196, Note_on_c, 1, 71, 0
3, 166200, Note_on_c, 1, 72, 64
3, 166316, Note_on_c, 1, 72, 0
3, 166320, Note_on_c, 1, 74, 64
3, 166436, Note_on_c, 1, 74, 0
3, 166440, Note_on_c, 1, 76, 64
3, 166556, Note_on_c, 1, 76, 0
3, 166560, Note_on_c, 1, 74, 64
3, 166676, Note_on_c, 1, 74, 0
3, 166680, Note_on_c, 1, 72, 64
3, 166796, Note_on_c, 1, 72, 0
3, 166800, Note_on_c, 1, 71, 64
3, 166916, Note_on_c, 1, 71, 0
3, 166920, Note_on_c, 1, 69, 64
3, 167036, Note_on_c, 1, 69, 0
3, 167040, Note_on_c, 1, 67, 64
3, 167276, Note_on_c, 1, 67, 0
3, 167280, Note_on_c, 1, 71, 64
3, 167516, Note_on_c, 1, 71, 0
3, 167520, Note_on_c, 1, 76, 64
3, 167636, Note_on_c, 1, 76, 0
3, 167640, Note_on_c, 1, 79, 64
3, 167756, Note_on_c, 1, 79, 0
3, 167760, Note_on_c, 1, 78, 64
3, 167876, Note_on_c, 1, 78, 0
3, 167880, Note_on_c, 1, 76, 64
3, 167996, Note_on_c, 1, 76, 0
3, 168000, Note_on_c, 1, 74, 64
3, 168116, Note_on_c, 1, 74, 0
3, 168120, Note_on_c, 1, 69, 64
3, 168236, Note_on_c, 1, 69, 0
3, 168240, Note_on_c, 1, 74, 64
3, 168356, Note_on_c, 1, 74, 0
3, 168360, Note_on_c, 1, 69, 64
3, 168476, Note_on_c, 1, 69, 0
3, 168480, Note_on_c, 1, 74, 64
3, 168596, Note_on_c, 1, 74, 0
3, 168600, Note_on_c, 1, 69, 64
3, 168716, Note_on_c, 1, 69, 0
3, 168720, Note_on_c, 1, 74, 64
3, 168836, Note_on_c, 1, 74, 0
3, 168840, Note_on_c, 1, 69, 64
3, 168956, Note_on_c, 1, 69, 0
3, 168960, Note_on_c, 1, 74, 64
3, 169076, Note_on_c, 1, 74, 0
3, 169080, Note_on_c, 1, 71, 64
3, 169196, Note_on_c, 1, 71, 0
3, 169200, Note_on_c, 1, 74, 64
3, 169316, Note_on_c, 1, 74, 0
3, 169320, Note_on_c, 1, 71, 64
3, 169436, Note_on_c, 1, 71, 0
3, 169440, Note_on_c, 1, 74, 64
3, 169556, Note_on_c, 1, 74, 0
3, 169560, Note_on_c, 1, 71, 64
3, 169676, Note_on_c, 1, 71, 0
3, 169680, Note_on_c, 1, 74, 64
3, 169796, Note_on_c, 1, 74, 0
3, 169800, Note_on_c, 1, 71, 64
3, 169916, Note_on_c, 1, 71, 0
3, 169920, Note_on_c, 1, 72, 64
3, 170036, Note_on_c, 1, 72, 0
3, 170040, Note_on_c, 1, 67, 64
3, 170156, Note_on_c, 1, 67, 0
3, 170160, Note_on_c, 1, 72, 64
3, 170276, Note_on_c, 1, 72, 0
3, 170280, Note_on_c, 1, 67, 64
3, 170396, Note_on_c, 1, 67, 0
3, 170400, Note_on_c, 1, 72, 64
3, 170516, Note_on_c, 1, 72, 0
3, 170520, Note_on_c, 1, 67, 64
3, 170636, Note_on_c, 1, 67, 0
3, 170640, Note_on_c, 1, 72, 64
3, 170756, Note_on_c, 1, 72, 0
3, 170760, Note_on_c, 1, 67, 64
3, 170876, Note_on_c, 1, 67, 0
3, 170880, Note_on_c, 1, 73, 64
3, 170996, Note_on_c, 1, 73, 0
3, 171000, Note_on_c, 1, 70, 64
3, 171116, Note_on_c, 1, 70, 0
3, 171120, Note_on_c, 1, 73, 64
3, 171236, Note_on_c, 1, 73, 0
3, 171240, Note_on_c, 1, 70, 64
3, 171356, Note_on_c, 1, 70, 0
3, 171360, Note_on_c, 1, 73, 64
3, 171476, Note_on_c, 1, 73, 0
3, 171480, Note_on_c, 1, 70, 64
3, 171596, Note_on_c, 1, 70, 0
3, 171600, Note_on_c, 1, 73, 64
3, 171716, Note_on_c, 1, 73, 0
3, 171720, Note_on_c, 1, 70, 64
3, 171836, Note_on_c, 1, 70, 0
3, 171840, Note_on_c, 1, 71, 64
3, 171956, Note_on_c, 1, 71, 0
3, 171960, Note_on_c, 1, 66, 64
3, 172076, Note_on_c, 1, 66, 0
3, 172080, Note_on_c, 1, 71, 64
3, 172196, Note_on_c, 1, 71, 0
3, 172200, Note_on_c, 1, 66, 64
3, 172316, Note_on_c, 1, 66, 0
3, 172320, Note_on_c, 1, 71, 64
3, 172436, Note_on_c, 1, 71, 0
3, 172440, Note_on_c, 1, 66, 64
3, 172556, Note_on_c, 1, 66, 0
3, 172560, Note_on_c, 1, 71, 64
3, 172676, Note_on_c, 1, 71, 0
3, 172680, Note_on_c, 1, 66, 64
3, 172796, Note_on_c, 1, 66, 0
3, 172800, Note_on_c, 1, 71, 64
3, 172916, Note_on_c, 1, 71, 0
3, 172920, Note_on_c, 1, 68, 64
3, 173036, Note_on_c, 1, 68, 0
3, 173040, Note_on_c, 1, 71, 64
3, 173156, Note_on_c, 1, 71, 0
3, 173160, Note_on_c, 1, 68, 64
3, 173276, Note_on_c, 1, 68, 0
3, 173280, Note_on_c, 1, 71, 64
3, 173396, Note_on_c, 1, 71, 0
3, 173400, Note_on_c, 1, 68, 64
3, 173516, Note_on_c, 1, 68, 0
3, 173520, Note_on_c, 1, 71, 64
3, 173636, Note_on_c, 1, 71, 0
3, 173640, Note_on_c, 1, 68, 64
3, 173756, Note_on_c, 1, 68, 0
3, 173760, Note_on_c, 1, 69, 64
3, 173876, Note_on_c, 1, 69, 0
3, 173880, Note_on_c, 1, 64, 64
3, 173996, Note_on_c, 1, 64, 0
3, 174000, Note_on_c, 1, 69, 64
3, 174116, Note_on_c, 1, 69, 0
3, 174120, Note_on_c, 1, 64, 64
3, 174236, Note_on_c, 1, 64, 0
3, 174240, Note_on_c, 1, 69, 64
3, 174356, Note_on_c, 1, 69, 0
3, 174360, Note_on_c, 1, 64, 64
3, 174476, Note_on_c, 1, 64, 0
3, 174480, Note_on_c, 1, 69, 64
3, 174596, Note_on_c, 1, 69, 0
3, 174600, Note_on_c, 1, 64, 64
3, 174716, Note_on_c, 1, 64, 0
3, 174720, Note_on_c, 1, 65, 64
3, 174836, Note_on_c, 1, 65, 0
3, 174840, Note_on_c, 1, 64, 64
3, 174956, Note_on_c, 1, 64, 0
3, 174960, Note_on_c, 1, 65, 64
3, 175196, Note_on_c, 1, 65, 0
3, 175680, Note_on_c, 1, 65, 64
3, 175796, Note_on_c, 1, 65, 0
3, 175800, Note_on_c, 1, 64, 64
3, 175916, Note_on_c, 1, 64, 0
3, 175920, Note_on_c, 1, 65, 64
3, 176156, Note_on_c, 1, 65, 0
3, 176640, Note_on_c, 1, 69, 64
3, 176756, Note_on_c, 1, 69, 0
3, 176760, Note_on_c, 1, 67, 64
3, 176876, Note_on_c, 1, 67, 0
3, 176880, Note_on_c, 1, 69, 64
3, 177116, Note_on_c, 1, 69, 0
3, 177600, Note_on_c, 1, 69, 64
3, 177716, Note_on_c, 1, 69, 0
3, 177720, Note_on_c, 1, 67, 64
3, 177836, Note_on_c, 1, 67, 0
3, 177840, Note_on_c, 1, 69, 64
3, 178076, Note_on_c, 1, 69, 0
3, 178560, Note_on_c, 1, 71, 64
3, 178676, Note_on_c, 1, 71, 0
3, 178680, Note_on_c, 1, 69, 64
3, 178796, Note_on_c, 1, 69, 0
3, 178800, Note_on_c, 1, 71, 64
3, 179036, Note_on_c, 1, 71, 0
3, 179520, Note_on_c, 1, 71, 64
3, 179636, Note_on_c, 1, 71, 0
3, 179640, Note_on_c, 1, 69, 64
3, 179756, Note_on_c, 1, 69, 0
3, 179760, Note_on_c, 1, 71, 64
3, 179996, Note_on_c, 1, 71, 0
3, 180480, Note_on_c, 1, 78, 64
3, 180596, Note_on_c, 1, 78, 0
3, 180600, Note_on_c, 1, 76, 64
3, 180716, Note_on_c, 1, 76, 0
3, 180720, Note_on_c, 1, 78, 64
3, 180956, Note_on_c, 1, 78, 0
3, 181440, Note_on_c, 1, 78, 64
3, 181556, Note_on_c, 1, 78, 0
3, 181560, Note_on_c, 1, 76, 64
3, 181676, Note_on_c, 1, 76, 0
3, 181680, Note_on_c, 1, 78, 64
3, 181916, Note_on_c, 1, 78, 0
3, 182400, Note_on_c, 1, 76, 64
3, 182516, Note_on_c, 1, 76, 0
3, 182520, Note_on_c, 1, 77, 64
3, 182636, Note_on_c, 1, 77, 0
3, 182640, Note_on_c, 1, 76, 64
3, 182876, Note_on_c, 1, 76, 0
3, 183360, Note_on_c, 1, 76, 64
3, 183476, Note_on_c, 1, 76, 0
3, 183480, Note_on_c, 1, 77, 64
3, 183596, Note_on_c, 1, 77, 0
3, 183600, Note_on_c, 1, 76, 64
3, 183836, Note_on_c, 1, 76, 0
3, 184320, Note_on_c, 1, 80, 64
3, 184436, Note_on_c, 1, 80, 0
3, 184440, Note_on_c, 1, 78, 64
3, 184556, Note_on_c, 1, 78, 0
3, 184560, Note_on_c, 1, 80, 64
3, 184796, Note_on_c, 1, 80, 0
3, 185280, Note_on_c, 1, 80, 64
3, 185396, Note_on_c, 1, 80, 0
3, 185400, Note_on_c, 1, 78, 64
3, 185516, Note_on_c, 1, 78, 0
3, 185520, Note_on_c, 1, 80, 64
3, 185756, Note_on_c, 1, 80, 0
3, 186240, Note_on_c, 1, 81, 64
3, 186476, Note_on_c, 1, 81, 0
3, 186960, Note_on_c, 1, 72, 64
3, 187076, Note_on_c, 1, 72, 0
3, 187080, Note_on_c, 1, 71, 64
3, 187196, Note_on_c, 1, 71, 0
3, 187200, Note_on_c, 1, 72, 64
3, 187436, Note_on_c, 1, 72, 0
3, 187920, Note_on_c, 1, 77, 64
3, 188156, Note_on_c, 1, 77, 0
3, 188160, Note_on_c, 1, 77, 64
3, 188396, Note_on_c, 1, 77, 0
3, 188880, Note_on_c, 1, 71, 64
3, 188996, Note_on_c, 1, 71, 0
3, 189000, Note_on_c, 1, 69, 64
3, 189116, Note_on_c, 1, 69, 0
3, 189120, Note_on_c, 1, 71, 64
3, 189356, Note_on_c, 1, 71, 0
3, 189840, Note_on_c, 1, 76, 64
3, 190076, Note_on_c, 1, 76, 0
3, 190080, Note_on_c, 1, 76, 64
3, 190316, Note_on_c, 1, 76, 0
3, 190800, Note_on_c, 1, 69, 64
3, 190916, Note_on_c, 1, 69, 0
3, 190920, Note_on_c, 1, 68, 64
3, 191036, Note_on_c, 1, 68, 0
3, 191040, Note_on_c, 1, 69, 64
3, 191276, Note_on_c, 1, 69, 0
3, 191760, Note_on_c, 1, 74, 64
3, 191996, Note_on_c, 1, 74, 0
3, 192000, Note_on_c, 1, 74, 64
3, 192236, Note_on_c, 1, 74, 0
3, 192240, Note_on_c, 1, 71, 64
3, 192356, Note_on_c, 1, 71, 0
3, 192360, Note_on_c, 1, 69, 64
3, 192476, Note_on_c, 1, 69, 0
3, 192480, Note_on_c, 1, 71, 64
3, 192716, Note_on_c, 1, 71, 0
3, 192720, Note_on_c, 1, 68, 64
3, 192836, Note_on_c, 1, 68, 0
3, 192840, Note_on_c, 1, 66, 64
3, 192956, Note_on_c, 1, 66, 0
3, 192960, Note_on_c, 1, 68, 64
3, 193196, Note_on_c, 1, 68, 0
3, 193200, Note_on_c, 1, 62, 64
3, 193316, Note_on_c, 1, 62, 0
3, 193320, Note_on_c, 1, 60, 64
3, 193436, Note_on_c, 1, 60, 0
3, 193440, Note_on_c, 1, 62, 64
3, 193676, Note_on_c, 1, 62, 0
3, 193680, Note_on_c, 1, 71, 64
3, 193916, Note_on_c, 1, 71, 0
3, 193920, Note_on_c, 1, 76, 64
3, 194156, Note_on_c, 1, 76, 0
3, 194160, Note_on_c, 1, 69, 64
3, 194396, Note_on_c, 1, 69, 0
3, 194400, Note_on_c, 1, 68, 64
3, 194756, Note_on_c, 1, 68, 0
3, 194760, Note_on_c, 1, 69, 64
3, 194876, Note_on_c, 1, 69, 0
3, 194880, Note_on_c, 1, 69, 64
3, 195356, Note_on_c, 1, 69, 0
3, 195600, Note_on_c, 1, 57, 64
3, 195836, Note_on_c, 1, 57, 0
3, 195840, Note_on_c, 1, 60, 64
3, 196076, Note_on_c, 1, 60, 0
3, 196080, Note_on_c, 1, 64, 64
3, 196316, Note_on_c, 1, 64, 0
3, 196320, Note_on_c, 1, 60, 64
3, 196556, Note_on_c, 1, 60, 0
3, 196560, Note_on_c, 1, 57, 64
3, 196796, Note_on_c, 1, 57, 0
3, 196800, Note_on_c, 1, 60, 64
3, 197036, Note_on_c, 1, 60, 0
3, 197040, Note_on_c, 1, 64, 64
3, 197276, Note_on_c, 1, 64, 0
3, 197280, Note_on_c, 1, 60, 64
3, 197516, Note_on_c, 1, 60, 0
3, 197520, Note_on_c, 1, 57, 64
3, 197756, Note_on_c, 1, 57, 0
3, 197760, Note_on_c, 1, 64, 64
3, 197996, Note_on_c, 1, 64, 0
3, 198000, Note_on_c, 1, 64, 64
3, 198116, Note_on_c, 1, 64, 0
3, 198120, Note_on_c, 1, 64, 64
3, 198236, Note_on_c, 1, 64, 0
3, 198240, Note_on_c, 1, 64, 64
3, 198476, Note_on_c, 1, 64, 0
3, 198720, Note_on_c, 1, 67, 64
3, 198836, Note_on_c, 1, 67, 0
3, 198840, Note_on_c, 1, 66, 64
3, 198956, Note_on_c, 1, 66, 0
3, 198960, Note_on_c, 1, 67, 64
3, 199076, Note_on_c, 1, 67, 0
3, 199080, Note_on_c, 1, 69, 64
3, 199196, Note_on_c, 1, 69, 0
3, 199200, Note_on_c, 1, 67, 64
3, 199316, Note_on_c, 1, 67, 0
3, 199320, Note_on_c, 1, 71, 64
3, 199436, Note_on_c, 1, 71, 0
3, 199440, Note_on_c, 1, 69, 64
3, 199556, Note_on_c, 1, 69, 0
3, 199560, Note_on_c, 1, 72, 64
3, 199676, Note_on_c, 1, 72, 0
3, 199680, Note_on_c, 1, 76, 64
3, 199796, Note_on_c, 1, 76, 0
3, 199800, Note_on_c, 1, 75, 64
3, 199916, Note_on_c, 1, 75, 0
3, 199920, Note_on_c, 1, 76, 64
3, 200036, Note_on_c, 1, 76, 0
3, 200040, Note_on_c, 1, 78, 64
3, 200156, Note_on_c, 1, 78, 0
3, 200160, Note_on_c, 1, 76, 64
3, 200276, Note_on_c, 1, 76, 0
3, 200280, Note_on_c, 1, 79, 64
3, 200396, Note_on_c, 1, 79, 0
3, 200400, Note_on_c, 1, 78, 64
3, 200516, Note_on_c, 1, 78, 0
3, 200520, Note_on_c, 1, 81, 64
3, 200636, Note_on_c, 1, 81, 0
3, 200640, Note_on_c, 1, 79, 64
3, 200756, Note_on_c, 1, 79, 0
3, 200760, Note_on_c, 1, 78, 64
3, 200876, Note_on_c, 1, 78, 0
3, 200880, Note_on_c, 1, 79, 64
3, 200996, Note_on_c, 1, 79, 0
3, 201000, Note_on_c, 1, 81, 64
3, 201116, Note_on_c, 1, 81, 0
3, 201120, Note_on_c, 1, 79, 64
3, 201236, Note_on_c, 1, 79, 0
3, 201240, Note_on_c, 1, 81, 64
3, 201356, Note_on_c, 1, 81, 0
3, 201360, Note_on_c, 1, 79, 64
3, 201476, Note_on_c, 1, 79, 0
3, 201480, Note_on_c, 1, 78, 64
3, 201596, Note_on_c, 1, 78, 0
3, 201600, Note_on_c, 1, 76, 64
3, 201716, Note_on_c, 1, 76, 0
3, 201720, Note_on_c, 1, 78, 64
3, 201836, Note_on_c, 1, 78, 0
3, 201840, Note_on_c, 1, 76, 64
3, 201956, Note_on_c, 1, 76, 0
3, 201960, Note_on_c, 1, 75, 64
3, 202076, Note_on_c, 1, 75, 0
3, 202080, Note_on_c, 1, 76, 64
3, 202316, Note_on_c, 1, 76, 0
3, 202320, Note_on_c, 1, 72, 64
3, 202556, Note_on_c, 1, 72, 0
3, 202560, Note_on_c, 1, 71, 64
3, 202796, Note_on_c, 1, 71, 0
3, 202800, Note_on_c, 1, 66, 64
3, 203036, Note_on_c, 1, 66, 0
3, 203280, Note_on_c, 1, 79, 64
3, 203396, Note_on_c, 1, 79, 0
3, 203400, Note_on_c, 1, 78, 64
3, 203516, Note_on_c, 1, 78, 0
3, 203520, Note_on_c, 1, 79, 64
3, 203756, Note_on_c, 1, 79, 0
3, 203760, Note_on_c, 1, 74, 64
3, 203876, Note_on_c, 1, 74, 0
3, 203880, Note_on_c, 1, 72, 64
3, 203996, Note_on_c, 1, 72, 0
3, 204000, Note_on_c, 1, 74, 64
3, 204236, Note_on_c, 1, 74, 0
3, 204240, Note_on_c, 1, 79, 64
3, 204356, Note_on_c, 1, 79, 0
3, 204360, Note_on_c, 1, 78, 64
3, 204476, Note_on_c, 1, 78, 0
3, 204480, Note_on_c, 1, 79, 64
3, 204716, Note_on_c, 1, 79, 0
3, 204720, Note_on_c, 1, 71, 64
3, 204836, Note_on_c, 1, 71, 0
3, 204840, Note_on_c, 1, 69, 64
3, 204956, Note_on_c, 1, 69, 0
3, 204960, Note_on_c, 1, 71, 64
3, 205196, Note_on_c, 1, 71, 0
3, 205200, Note_on_c, 1, 79, 64
3, 205316, Note_on_c, 1, 79, 0
3, 205320, Note_on_c, 1, 78, 64
3, 205436, Note_on_c, 1, 78, 0
3, 205440, Note_on_c, 1, 79, 64
3, 205676, Note_on_c, 1, 79, 0
3, 205680, Note_on_c, 1, 67, 64
3, 205796, Note_on_c, 1, 67, 0
3, 205800, Note_on_c, 1, 69, 64
3, 205916, Note_on_c, 1, 69, 0
3, 205920, Note_on_c, 1, 71, 64
3, 206156, Note_on_c, 1, 71, 0
3, 206160, Note_on_c, 1, 73, 64
3, 206396, Note_on_c, 1, 73, 0
3, 206400, Note_on_c, 1, 74, 64
3, 206636, Note_on_c, 1, 74, 0
3, 206640, Note_on_c, 1, 62, 64
3, 206876, Note_on_c, 1, 62, 0
3, 207000, Note_on_c, 1, 74, 64
3, 207116, Note_on_c, 1, 74, 0
3, 207120, Note_on_c, 1, 69, 64
3, 207236, Note_on_c, 1, 69, 0
3, 207240, Note_on_c, 1, 71, 64
3, 207356, Note_on_c, 1, 71, 0
3, 207360, Note_on_c, 1, 72, 64
3, 207476, Note_on_c, 1, 72, 0
3, 207480, Note_on_c, 1, 71, 64
3, 207596, Note_on_c, 1, 71, 0
3, 207600, Note_on_c, 1, 72, 64
3, 207716, Note_on_c, 1, 72, 0
3, 207720, Note_on_c, 1, 81, 64
3, 207836, Note_on_c, 1, 81, 0
3, 207840, Note_on_c, 1, 78, 64
3, 207956, Note_on_c, 1, 78, 0
3, 207960, Note_on_c, 1, 72, 64
3, 208076, Note_on_c, 1, 72, 0
3, 208080, Note_on_c, 1, 69, 64
3, 208196, Note_on_c, 1, 69, 0
3, 208200, Note_on_c, 1, 62, 64
3, 208316, Note_on_c, 1, 62, 0
3, 208320, Note_on_c, 1, 72, 64
3, 208436, Note_on_c, 1, 72, 0
3, 208440, Note_on_c, 1, 71, 64
3, 208556, Note_on_c, 1, 71, 0
3, 208560, Note_on_c, 1, 72, 64
3, 208676, Note_on_c, 1, 72, 0
3, 208680, Note_on_c, 1, 81, 64
3, 208796, Note_on_c, 1, 81, 0
3, 208800, Note_on_c, 1, 78, 64
3, 208916, Note_on_c, 1, 78, 0
3, 208920, Note_on_c, 1, 72, 64
3, 209036, Note_on_c, 1, 72, 0
3, 209040, Note_on_c, 1, 69, 64
3, 209156, Note_on_c, 1, 69, 0
3, 209160, Note_on_c, 1, 62, 64
3, 209276, Note_on_c, 1, 62, 0
3, 209280, Note_on_c, 1, 71, 64
3, 209396, Note_on_c, 1, 71, 0
3, 209400, Note_on_c, 1, 69, 64
3, 209516, Note_on_c, 1, 69, 0
3, 209520, Note_on_c, 1, 71, 64
3, 209756, Note_on_c, 1, 71, 0
3, 210240, Note_on_c, 1, 71, 64
3, 210356, Note_on_c, 1, 71, 0
3, 210360, Note_on_c, 1, 69, 64
3, 210476, Note_on_c, 1, 69, 0
3, 210480, Note_on_c, 1, 71, 64
3, 210716, Note_on_c, 1, 71, 0
3, 211200, Note_on_c, 1, 71, 64
3, 211316, Note_on_c, 1, 71, 0
3, 211320, Note_on_c, 1, 69, 64
3, 211436, Note_on_c, 1, 69, 0
3, 211440, Note_on_c, 1, 71, 64
3, 211676, Note_on_c, 1, 71, 0
3, 212160, Note_on_c, 1, 71, 64
3, 212276, Note_on_c, 1, 71, 0
3, 212280, Note_on_c, 1, 69, 64
3, 212396, Note_on_c, 1, 69, 0
3, 212400, Note_on_c, 1, 71, 64
3, 212636, Note_on_c, 1, 71, 0
3, 213120, Note_on_c, 1, 69, 64
3, 213356, Note_on_c, 1, 69, 0
3, 213360, Note_on_c, 1, 69, 64
3, 213596, Note_on_c, 1, 69, 0
3, 213600, Note_on_c, 1, 69, 64
3, 213836, Note_on_c, 1, 69, 0
3, 213840, Note_on_c, 1, 69, 64
3, 214076, Note_on_c, 1, 69, 0
3, 214080, Note_on_c, 1, 69, 64
3, 214316, Note_on_c, 1, 69, 0
3, 214320, Note_on_c, 1, 69, 64
3, 214556, Note_on_c, 1, 69, 0
3, 214560, Note_on_c, 1, 69, 64
3, 214796, Note_on_c, 1, 69, 0
3, 214800, Note_on_c, 1, 69, 64
3, 215036, Note_on_c, 1, 69, 0
3, 215040, Note_on_c, 1, 72, 64
3, 215276, Note_on_c, 1, 72, 0
3, 215280, Note_on_c, 1, 72, 64
3, 215516, Note_on_c, 1, 72, 0
3, 215520, Note_on_c, 1, 72, 64
3, 215756, Note_on_c, 1, 72, 0
3, 215760, Note_on_c, 1, 72, 64
3, 215996, Note_on_c, 1, 72, 0
3, 216000, Note_on_c, 1, 72, 64
3, 216236, Note_on_c, 1, 72, 0
3, 216240, Note_on_c, 1, 72, 64
3, 216476, Note_on_c, 1, 72, 0
3, 216480, Note_on_c, 1, 72, 64
3, 216716, Note_on_c, 1, 72, 0
3, 216720, Note_on_c, 1, 72, 64
3, 216956, Note_on_c, 1, 72, 0
3, 216960, Note_on_c, 1, 74, 64
3, 217196, Note_on_c, 1, 74, 0
3, 217200, Note_on_c, 1, 74, 64
3, 217436, Note_on_c, 1, 74, 0
3, 217440, Note_on_c, 1, 74, 64
3, 217676, Note_on_c, 1, 74, 0
3, 217680, Note_on_c, 1, 74, 64
3, 217916, Note_on_c, 1, 74, 0
3, 217920, Note_on_c, 1, 74, 64
3, 218156, Note_on_c, 1, 74, 0
3, 218160, Note_on_c, 1, 74, 64
3, 218396, Note_on_c, 1, 74, 0
3, 218400, Note_on_c, 1, 74, 64
3, 218636, Note_on_c, 1, 74, 0
3, 218640, Note_on_c, 1, 74, 64
3, 218876, Note_on_c, 1, 74, 0
3, 218880, Note_on_c, 1, 76, 64
3, 218996, Note_on_c, 1, 76, 0
3, 219000, Note_on_c, 1, 74, 64
3, 219116, Note_on_c, 1, 74, 0
3, 219120, Note_on_c, 1, 76, 64
3, 219356, Note_on_c, 1, 76, 0
3, 219840, Note_on_c, 1, 76, 64
3, 219956, Note_on_c, 1, 76, 0
3, 219960, Note_on_c, 1, 74, 64
3, 220076, Note_on_c, 1, 74, 0
3, 220080, Note_on_c, 1, 76, 64
3, 220316, Note_on_c, 1, 76, 0
3, 220800, Note_on_c, 1, 74, 64
3, 220916, Note_on_c, 1, 74, 0
3, 220920, Note_on_c, 1, 72, 64
3, 221036, Note_on_c, 1, 72, 0
3, 221040, Note_on_c, 1, 74, 64
3, 221276, Note_on_c, 1, 74, 0
3, 221760, Note_on_c, 1, 74, 64
3, 221876, Note_on_c, 1, 74, 0
3, 221880, Note_on_c, 1, 72, 64
3, 221996, Note_on_c, 1, 72, 0
3, 222000, Note_on_c, 1, 74, 64
3, 222236, Note_on_c, 1, 74, 0
3, 222720, Note_on_c, 1, 76, 64
3, 222836, Note_on_c, 1, 76, 0
3, 222840, Note_on_c, 1, 75, 64
3, 222956, Note_on_c, 1, 75, 0
3, 222960, Note_on_c, 1, 76, 64
3, 223196, Note_on_c, 1, 76, 0
3, 223680, Note_on_c, 1, 76, 64
3, 223796, Note_on_c, 1, 76, 0
3, 223800, Note_on_c, 1, 75, 64
3, 223916, Note_on_c, 1, 75, 0
3, 223920, Note_on_c, 1, 76, 64
3, 224156, Note_on_c, 1, 76, 0
3, 224640, Note_on_c, 1, 74, 64
3, 224756, Note_on_c, 1, 74, 0
3, 224760, Note_on_c, 1, 72, 64
3, 224876, Note_on_c, 1, 72, 0
3, 224880, Note_on_c, 1, 74, 64
3, 225116, Note_on_c, 1, 74, 0
3, 225600, Note_on_c, 1, 74, 64
3, 225716, Note_on_c, 1, 74, 0
3, 225720, Note_on_c, 1, 72, 64
3, 225836, Note_on_c, 1, 72, 0
3, 225840, Note_on_c, 1, 74, 64
3, 226076, Note_on_c, 1, 74, 0
3, 226560, Note_on_c, 1, 72, 64
3, 226676, Note_on_c, 1, 72, 0
3, 226680, Note_on_c, 1, 71, 64
3, 226796, Note_on_c, 1, 71, 0
3, 226800, Note_on_c, 1, 72, 64
3, 227036, Note_on_c, 1, 72, 0
3, 227520, Note_on_c, 1, 72, 64
3, 227636, Note_on_c, 1, 72, 0
3, 227640, Note_on_c, 1, 71, 64
3, 227756, Note_on_c, 1, 71, 0
3, 227760, Note_on_c, 1, 72, 64
3, 227996, Note_on_c, 1, 72, 0
3, 228480, Note_on_c, 1, 70, 64
3, 228716, Note_on_c, 1, 70, 0
3, 229200, Note_on_c, 1, 70, 64
3, 229316, Note_on_c, 1, 70, 0
3, 229320, Note_on_c, 1, 69, 64
3, 229436, Note_on_c, 1, 69, 0
3, 229440, Note_on_c, 1, 70, 64
3, 229676, Note_on_c, 1, 70, 0
3, 230160, Note_on_c, 1, 75, 64
3, 230396, Note_on_c, 1, 75, 0
3, 230400, Note_on_c, 1, 75, 64
3, 230636, Note_on_c, 1, 75, 0
3, 231120, Note_on_c, 1, 69, 64
3, 231236, Note_on_c, 1, 69, 0
3, 231240, Note_on_c, 1, 67, 64
3, 231356, Note_on_c, 1, 67, 0
3, 231360, Note_on_c, 1, 69, 64
3, 231596, Note_on_c, 1, 69, 0
3, 232080, Note_on_c, 1, 74, 64
3, 232316, Note_on_c, 1, 74, 0
3, 232320, Note_on_c, 1, 74, 64
3, 232556, Note_on_c, 1, 74, 0
3, 233040, Note_on_c, 1, 67, 64
3, 233156, Note_on_c, 1, 67, 0
3, 233160, Note_on_c, 1, 66, 64
3, 233276, Note_on_c, 1, 66, 0
3, 233280, Note_on_c, 1, 67, 64
3, 233516, Note_on_c, 1, 67, 0
3, 234000, Note_on_c, 1, 72, 64
3, 234236, Note_on_c, 1, 72, 0
3, 234240, Note_on_c, 1, 72, 64
3, 234476, Note_on_c, 1, 72, 0
3, 234480, Note_on_c, 1, 78, 64
3, 234596, Note_on_c, 1, 78, 0
3, 234600, Note_on_c, 1, 79, 64
3, 234716, Note_on_c, 1, 79, 0
3, 234720, Note_on_c, 1, 78, 64
3, 234956, Note_on_c, 1, 78, 0
3, 235440, Note_on_c, 1, 81, 64
3, 235556, Note_on_c, 1, 81, 0
3, 235560, Note_on_c, 1, 79, 64
3, 235676, Note_on_c, 1, 79, 0
3, 235680, Note_on_c, 1, 78, 64
3, 235916, Note_on_c, 1, 78, 0
3, 236400, Note_on_c, 1, 84, 64
3, 236516, Note_on_c, 1, 84, 0
3, 236520, Note_on_c, 1, 82, 64
3, 236636, Note_on_c, 1, 82, 0
3, 236640, Note_on_c, 1, 81, 64
3, 236876, Note_on_c, 1, 81, 0
3, 237360, Note_on_c, 1, 82, 64
3, 237476, Note_on_c, 1, 82, 0
3, 237480, Note_on_c, 1, 84, 64
3, 237596, Note_on_c, 1, 84, 0
3, 237600, Note_on_c, 1, 82, 64
3, 237836, Note_on_c, 1, 82, 0
3, 238320, Note_on_c, 1, 81, 64
3, 238436, Note_on_c, 1, 81, 0
3, 238440, Note_on_c, 1, 79, 64
3, 238556, Note_on_c, 1, 79, 0
3, 238560, Note_on_c, 1, 81, 64
3, 238796, Note_on_c, 1, 81, 0
3, 239280, Note_on_c, 1, 75, 64
3, 239396, Note_on_c, 1, 75, 0
3, 239400, Note_on_c, 1, 74, 64
3, 239516, Note_on_c, 1, 74, 0
3, 239520, Note_on_c, 1, 72, 64
3, 239756, Note_on_c, 1, 72, 0
3, 239760, Note_on_c, 1, 74, 64
3, 239996, Note_on_c, 1, 74, 0
3, 240000, Note_on_c, 1, 75, 64
3, 240356, Note_on_c, 1, 75, 0
3, 240360, Note_on_c, 1, 74, 64
3, 240476, Note_on_c, 1, 74, 0
3, 240480, Note_on_c, 1, 72, 64
3, 240596, Note_on_c, 1, 72, 0
3, 240600, Note_on_c, 1, 70, 64
3, 240716, Note_on_c, 1, 70, 0
3, 240720, Note_on_c, 1, 69, 64
3, 240836, Note_on_c, 1, 69, 0
3, 240840, Note_on_c, 1, 67, 64
3, 240956, Note_on_c, 1, 67, 0
3, 240960, Note_on_c, 1, 74, 64
3, 241196, Note_on_c, 1, 74, 0
3, 241200, Note_on_c, 1, 72, 64
3, 241316, Note_on_c, 1, 72, 0
3, 241320, Note_on_c, 1, 70, 64
3, 241436, Note_on_c, 1, 70, 0
3, 241440, Note_on_c, 1, 69, 64
3, 241676, Note_on_c, 1, 69, 0
3, 241680, Note_on_c, 1, 67, 64
3, 241796, Note_on_c, 1, 67, 0
3, 241800, Note_on_c, 1, 66, 64
3, 241916, Note_on_c, 1, 66, 0
3, 241920, Note_on_c, 1, 67, 64
3, 242156, Note_on_c, 1, 67, 0
3, 242160, Note_on_c, 1, 62, 64
3, 242276, Note_on_c, 1, 62, 0
3, 242280, Note_on_c, 1, 60, 64
3, 242396, Note_on_c, 1, 60, 0
3, 242400, Note_on_c, 1, 62, 64
3, 242636, Note_on_c, 1, 62, 0
3, 242640, Note_on_c, 1, 67, 64
3, 242756, Note_on_c, 1, 67, 0
3, 242760, Note_on_c, 1, 66, 64
3, 242876, Note_on_c, 1, 66, 0
3, 242880, Note_on_c, 1, 67, 64
3, 243116, Note_on_c, 1, 67, 0
3, 243120, Note_on_c, 1, 59, 64
3, 243236, Note_on_c, 1, 59, 0
3, 243240, Note_on_c, 1, 57, 64
3, 243356, Note_on_c, 1, 57, 0
3, 243360, Note_on_c, 1, 59, 64
3, 243596, Note_on_c, 1, 59, 0
3, 243600, Note_on_c, 1, 67, 64
3, 243716, Note_on_c, 1, 67, 0
3, 243720, Note_on_c, 1, 66, 64
3, 243836, Note_on_c, 1, 66, 0
3, 243840, Note_on_c, 1, 67, 64
3, 244076, Note_on_c, 1, 67, 0
3, 244080, Note_on_c, 1, 55, 64
3, 244196, Note_on_c, 1, 55, 0
3, 244200, Note_on_c, 1, 57, 64
3, 244316, Note_on_c, 1, 57, 0
3, 244320, Note_on_c, 1, 59, 64
3, 244556, Note_on_c, 1, 59, 0
3, 244560, Note_on_c, 1, 61, 64
3, 244796, Note_on_c, 1, 61, 0
3, 244800, Note_on_c, 1, 62, 64
3, 244916, Note_on_c, 1, 62, 0
3, 244920, Note_on_c, 1, 61, 64
3, 245036, Note_on_c, 1, 61, 0
3, 245040, Note_on_c, 1, 62, 64
3, 245156, Note_on_c, 1, 62, 0
3, 245160, Note_on_c, 1, 64, 64
3, 245276, Note_on_c, 1, 64, 0
3, 245280, Note_on_c, 1, 62, 64
3, 245396, Note_on_c, 1, 62, 0
3, 245400, Note_on_c, 1, 66, 64
3, 245516, Note_on_c, 1, 66, 0
3, 245520, Note_on_c, 1, 62, 64
3, 245636, Note_on_c, 1, 62, 0
3, 245640, Note_on_c, 1, 67, 64
3, 245756, Note_on_c, 1, 67, 0
3, 245760, Note_on_c, 1, 62, 64
3, 245876, Note_on_c, 1, 62, 0
3, 245880, Note_on_c, 1, 61, 64
3, 245996, Note_on_c, 1, 61, 0
3, 246000, Note_on_c, 1, 62, 64
3, 246116, Note_on_c, 1, 62, 0
3, 246120, Note_on_c, 1, 64, 64
3, 246236, Note_on_c, 1, 64, 0
3, 246240, Note_on_c, 1, 62, 64
3, 246356, Note_on_c, 1, 62, 0
3, 246360, Note_on_c, 1, 69, 64
3, 246476, Note_on_c, 1, 69, 0
3, 246480, Note_on_c, 1, 62, 64
3, 246596, Note_on_c, 1, 62, 0
3, 246600, Note_on_c, 1, 71, 64
3, 246716, Note_on_c, 1, 71, 0
3, 246720, Note_on_c, 1, 62, 64
3, 246836, Note_on_c, 1, 62, 0
3, 246840, Note_on_c, 1, 61, 64
3, 246956, Note_on_c, 1, 61, 0
3, 246960, Note_on_c, 1, 62, 64
3, 247076, Note_on_c, 1, 62, 0
3, 247080, Note_on_c, 1, 64, 64
3, 247196, Note_on_c, 1, 64, 0
3, 247200, Note_on_c, 1, 62, 64
3, 247316, Note_on_c, 1, 62, 0
3, 247320, Note_on_c, 1, 72, 64
3, 247436, Note_on_c, 1, 72, 0
3, 247440, Note_on_c, 1, 62, 64
3, 247556, Note_on_c, 1, 62, 0
3, 247560, Note_on_c, 1, 74, 64
3, 247676, Note_on_c, 1, 74, 0
3, 247680, Note_on_c, 1, 71, 64
3, 247916, Note_on_c, 1, 71, 0
3, 247920, Note_on_c, 1, 69, 64
3, 248036, Note_on_c, 1, 69, 0
3, 248040, Note_on_c, 1, 67, 64
3, 248156, Note_on_c, 1, 67, 0
3, 248160, Note_on_c, 1, 69, 64
3, 248396, Note_on_c, 1, 69, 0
3, 248400, Note_on_c, 1, 67, 64
3, 248516, Note_on_c, 1, 67, 0
3, 248520, Note_on_c, 1, 66, 64
3, 248636, Note_on_c, 1, 66, 0
3, 248640, Note_on_c, 1, 67, 64
3, 248876, Note_on_c, 1, 67, 0
3, 248880, Note_on_c, 1, 66, 64
3, 248996, Note_on_c, 1, 66, 0
3, 249000, Note_on_c, 1, 64, 64
3, 249116, Note_on_c, 1, 64, 0
3, 249120, Note_on_c, 1, 62, 64
3, 249236, Note_on_c, 1, 62, 0
3, 249240, Note_on_c, 1, 67, 64
3, 249356, Note_on_c, 1, 67, 0
3, 249360, Note_on_c, 1, 62, 64
3, 249476, Note_on_c, 1, 62, 0
3, 249480, Note_on_c, 1, 67, 64
3, 249596, Note_on_c, 1, 67, 0
3, 249600, Note_on_c, 1, 64, 64
3, 249836, Note_on_c, 1, 64, 0
3, 249840, Note_on_c, 1, 62, 64
3, 249956, Note_on_c, 1, 62, 0
3, 249960, Note_on_c, 1, 60, 64
3, 250076, Note_on_c, 1, 60, 0
3, 250080, Note_on_c, 1, 59, 64
3, 250196, Note_on_c, 1, 59, 0
3, 250200, Note_on_c, 1, 67, 64
3, 250316, Note_on_c, 1, 67, 0
3, 250320, Note_on_c, 1, 59, 64
3, 250436, Note_on_c, 1, 59, 0
3, 250440, Note_on_c, 1, 67, 64
3, 250556, Note_on_c, 1, 67, 0
3, 250560, Note_on_c, 1, 60, 64
3, 250796, Note_on_c, 1, 60, 0
3, 250800, Note_on_c, 1, 59, 64
3, 250916, Note_on_c, 1, 59, 0
3, 250920, Note_on_c, 1, 57, 64
3, 251036, Note_on_c, 1, 57, 0
3, 251040, Note_on_c, 1, 55, 64
3, 251156, Note_on_c, 1, 55, 0
3, 251160, Note_on_c, 1, 67, 64
3, 251276, Note_on_c, 1, 67, 0
3, 251280, Note_on_c, 1, 57, 64
3, 251396, Note_on_c, 1, 57, 0
3, 251400, Note_on_c, 1, 67, 64
3, 251516, Note_on_c, 1, 67, 0
3, 251520, Note_on_c, 1, 59, 64
3, 251636, Note_on_c, 1, 59, 0
3, 251640, Note_on_c, 1, 67, 64
3, 251756, Note_on_c, 1, 67, 0
3, 251760, Note_on_c, 1, 61, 64
3, 251876, Note_on_c, 1, 61, 0
3, 251880, Note_on_c, 1, 67, 64
3, 251996, Note_on_c, 1, 67, 0
3, 252000, Note_on_c, 1, 62, 64
3, 252116, Note_on_c, 1, 62, 0
3, 252120, Note_on_c, 1, 66, 64
3, 252236, Note_on_c, 1, 66, 0
3, 252240, Note_on_c, 1, 62, 64
3, 252356, Note_on_c, 1, 62, 0
3, 252360, Note_on_c, 1, 67, 64
3, 252476, Note_on_c, 1, 67, 0
3, 252480, Note_on_c, 1, 62, 64
3, 252596, Note_on_c, 1, 62, 0
3, 252600, Note_on_c, 1, 69, 64
3, 252716, Note_on_c, 1, 69, 0
3, 252720, Note_on_c, 1, 62, 64
3, 252836, Note_on_c, 1, 62, 0
3, 252840, Note_on_c, 1, 71, 64
3, 252956, Note_on_c, 1, 71, 0
3, 252960, Note_on_c, 1, 62, 64
3, 253076, Note_on_c, 1, 62, 0
3, 253080, Note_on_c, 1, 72, 64
3, 253196, Note_on_c, 1, 72, 0
3, 253200, Note_on_c, 1, 62, 64
3, 253316, Note_on_c, 1, 62, 0
3, 253320, Note_on_c, 1, 74, 64
3, 253436, Note_on_c, 1, 74, 0
3, 253440, Note_on_c, 1, 71, 64
3, 253676, Note_on_c, 1, 71, 0
3, 253680, Note_on_c, 1, 69, 64
3, 253796, Note_on_c, 1, 69, 0
3, 253800, Note_on_c, 1, 67, 64
3, 253916, Note_on_c, 1, 67, 0
3, 253920, Note_on_c, 1, 62, 64
3, 254156, Note_on_c, 1, 62, 0
3, 254160, Note_on_c, 1, 66, 64
3, 254396, Note_on_c, 1, 66, 0
3, 254400, Note_on_c, 1, 67, 64
3, 254636, Note_on_c, 1, 67, 0
3, 256560, Note_on_c, 1, 67, 64
3, 256676, Note_on_c, 1, 67, 0
3, 256680, Note_on_c, 1, 66, 64
3, 256796, Note_on_c, 1, 66, 0
3, 256800, Note_on_c, 1, 67, 64
3, 257036, Note_on_c, 1, 67, 0
3, 257040, Note_on_c, 1, 71, 64
3, 257156, Note_on_c, 1, 71, 0
3, 257160, Note_on_c, 1, 69, 64
3, 257276, Note_on_c, 1, 69, 0
3, 257280, Note_on_c, 1, 71, 64
3, 257516, Note_on_c, 1, 71, 0
3, 257520, Note_on_c, 1, 74, 64
3, 257636, Note_on_c, 1, 74, 0
3, 257640, Note_on_c, 1, 72, 64
3, 257756, Note_on_c, 1, 72, 0
3, 257760, Note_on_c, 1, 74, 64
3, 257996, Note_on_c, 1, 74, 0
3, 258000, Note_on_c, 1, 79, 64
3, 258116, Note_on_c, 1, 79, 0
3, 258120, Note_on_c, 1, 78, 64
3, 258236, Note_on_c, 1, 78, 0
3, 258240, Note_on_c, 1, 79, 64
3, 258716, Note_on_c, 1, 79, 0
3, 258960, Note_on_c, 1, 74, 64
3, 259196, Note_on_c, 1, 74, 0
3, 259200, Note_on_c, 1, 79, 64
3, 259436, Note_on_c, 1, 79, 0
3, 259440, Note_on_c, 1, 78, 64
3, 259556, Note_on_c, 1, 78, 0
3, 259560, Note_on_c, 1, 76, 64
3, 259676, Note_on_c, 1, 76, 0
3, 259680, Note_on_c, 1, 74, 64
3, 259796, Note_on_c, 1, 74, 0
3, 259800, Note_on_c, 1, 72, 64
3, 259916, Note_on_c, 1, 72, 0
3, 259920, Note_on_c, 1, 71, 64
3, 260036, Note_on_c, 1, 71, 0
3, 260040, Note_on_c, 1, 69, 64
3, 260156, Note_on_c, 1, 69, 0
3, 260160, Note_on_c, 1, 67, 64
3, 260396, Note_on_c, 1, 67, 0
3, 260400, Note_on_c, 1, 66, 64
3, 260516, Note_on_c, 1, 66, 0
3, 260520, Note_on_c, 1, 64, 64
3, 260636, Note_on_c, 1, 64, 0
3, 260640, Note_on_c, 1, 62, 64
3, 260756, Note_on_c, 1, 62, 0
3, 260760, Note_on_c, 1, 60, 64
3, 260876, Note_on_c, 1, 60, 0
3, 260880, Note_on_c, 1, 59, 64
3, 260996, Note_on_c, 1, 59, 0
3, 261000, Note_on_c, 1, 57, 64
3, 261116, Note_on_c, 1, 57, 0
3, 261120, Note_on_c, 1, 59, 64
3, 261356, Note_on_c, 1, 59, 0
3, 261360, Note_on_c, 1, 57, 64
3, 261476, Note_on_c, 1, 57, 0
3, 261480, Note_on_c, 1, 55, 64
3, 261596, Note_on_c, 1, 55, 0
3, 261600, Note_on_c, 1, 62, 64
3, 261836, Note_on_c, 1, 62, 0
3, 261840, Note_on_c, 1, 62, 64
3, 262076, Note_on_c, 1, 62, 0
3, 262080, Note_on_c, 1, 55, 64
3, 262796, Note_on_c, 1, 55, 0
3, 263040, Note_on_c, 1, 64, 64
3, 263996, Note_on_c, 1, 64, 0
3, 264000, Note_on_c, 1, 66, 64
3, 264956, Note_on_c, 1, 66, 0
3, 266400, Note_on_c, 1, 67, 64
3, 266516, Note_on_c, 1, 67, 0
3, 266520, Note_on_c, 1, 66, 64
3, 266636, Note_on_c, 1, 66, 0
3, 266640, Note_on_c, 1, 67, 64
3, 266756, Note_on_c, 1, 67, 0
3, 266760, Note_on_c, 1, 69, 64
3, 266876, Note_on_c, 1, 69, 0
3, 266880, Note_on_c, 1, 71, 64
3, 266996, Note_on_c, 1, 71, 0
3, 267000, Note_on_c, 1, 72, 64
3, 267116, Note_on_c, 1, 72, 0
3, 267120, Note_on_c, 1, 74, 64
3, 267236, Note_on_c, 1, 74, 0
3, 267240, Note_on_c, 1, 76, 64
3, 267356, Note_on_c, 1, 76, 0
3, 267360, Note_on_c, 1, 74, 64
3, 267476, Note_on_c, 1, 74, 0
3, 267480, Note_on_c, 1, 72, 64
3, 267596, Note_on_c, 1, 72, 0
3, 267600, Note_on_c, 1, 71, 64
3, 267716, Note_on_c, 1, 71, 0
3, 267720, Note_on_c, 1, 69, 64
3, 267836, Note_on_c, 1, 69, 0
3, 267840, Note_on_c, 1, 71, 64
3, 268076, Note_on_c, 1, 71, 0
3, 268080, Note_on_c, 1, 74, 64
3, 268316, Note_on_c, 1, 74, 0
3, 268320, Note_on_c, 1, 79, 64
3, 268556, Note_on_c, 1, 79, 0
3, 268560, Note_on_c, 1, 78, 64
3, 268676, Note_on_c, 1, 78, 0
3, 268680, Note_on_c, 1, 79, 64
3, 268796, Note_on_c, 1, 79, 0
3, 268800, Note_on_c, 1, 78, 64
3, 268916, Note_on_c, 1, 78, 0
3, 268920, Note_on_c, 1, 76, 64
3, 269036, Note_on_c, 1, 76, 0
3, 269040, Note_on_c, 1, 74, 64
3, 269156, Note_on_c, 1, 74, 0
3, 269160, Note_on_c, 1, 72, 64
3, 269276, Note_on_c, 1, 72, 0
3, 269280, Note_on_c, 1, 71, 64
3, 269516, Note_on_c, 1, 71, 0
3, 269520, Note_on_c, 1, 67, 64
3, 269756, Note_on_c, 1, 67, 0
3, 269760, Note_on_c, 1, 74, 64
3, 269996, Note_on_c, 1, 74, 0
3, 270000, Note_on_c, 1, 74, 64
3, 270236, Note_on_c, 1, 74, 0
3, 270240, Note_on_c, 1, 74, 64
3, 270476, Note_on_c, 1, 74, 0
3, 270480, Note_on_c, 1, 74, 64
3, 270716, Note_on_c, 1, 74, 0
3, 270720, Note_on_c, 1, 74, 64
3, 270956, Note_on_c, 1, 74, 0
3, 270960, Note_on_c, 1, 79, 64
3, 271196, Note_on_c, 1, 79, 0
3, 271200, Note_on_c, 1, 74, 64
3, 271436, Note_on_c, 1, 74, 0
3, 271440, Note_on_c, 1, 76, 64
3, 271556, Note_on_c, 1, 76, 0
3, 271560, Note_on_c, 1, 78, 64
3, 271676, Note_on_c, 1, 78, 0
3, 271680, Note_on_c, 1, 76, 64
3, 271796, Note_on_c, 1, 76, 0
3, 271800, Note_on_c, 1, 74, 64
3, 271916, Note_on_c, 1, 74, 0
3, 271920, Note_on_c, 1, 73, 64
3, 272036, Note_on_c, 1, 73, 0
3, 272040, Note_on_c, 1, 71, 64
3, 272156, Note_on_c, 1, 71, 0
3, 272160, Note_on_c, 1, 73, 64
3, 272396, Note_on_c, 1, 73, 0
3, 272400, Note_on_c, 1, 78, 64
3, 272636, Note_on_c, 1, 78, 0
3, 272640, Note_on_c, 1, 73, 64
3, 272876, Note_on_c, 1, 73, 0
3, 272880, Note_on_c, 1, 74, 64
3, 272996, Note_on_c, 1, 74, 0
3, 273000, Note_on_c, 1, 76, 64
3, 273116, Note_on_c, 1, 76, 0
3, 273120, Note_on_c, 1, 74, 64
3, 273236, Note_on_c, 1, 74, 0
3, 273240, Note_on_c, 1, 73, 64
3, 273356, Note_on_c, 1, 73, 0
3, 273360, Note_on_c, 1, 71, 64
3, 273476, Note_on_c, 1, 71, 0
3, 273480, Note_on_c, 1, 69, 64
3, 273596, Note_on_c, 1, 69, 0
3, 273600, Note_on_c, 1, 71, 64
3, 273836, Note_on_c, 1, 71, 0
3, 273840, Note_on_c, 1, 76, 64
3, 274076, Note_on_c, 1, 76, 0
3, 274080, Note_on_c, 1, 71, 64
3, 274316, Note_on_c, 1, 71, 0
3, 274320, Note_on_c, 1, 73, 64
3, 274556, Note_on_c, 1, 73, 0
3, 274560, Note_on_c, 1, 76, 64
3, 274796, Note_on_c, 1, 76, 0
3, 274800, Note_on_c, 1, 81, 64
3, 275036, Note_on_c, 1, 81, 0
3, 275040, Note_on_c, 1, 74, 64
3, 275276, Note_on_c, 1, 74, 0
3, 275280, Note_on_c, 1, 78, 64
3, 275516, Note_on_c, 1, 78, 0
3, 275520, Note_on_c, 1, 81, 64
3, 275756, Note_on_c, 1, 81, 0
3, 275760, Note_on_c, 1, 73, 64
3, 275996, Note_on_c, 1, 73, 0
3, 276000, Note_on_c, 1, 76, 64
3, 276236, Note_on_c, 1, 76, 0
3, 276240, Note_on_c, 1, 81, 64
3, 276476, Note_on_c, 1, 81, 0
3, 276480, Note_on_c, 1, 74, 64
3, 276716, Note_on_c, 1, 74, 0
3, 276720, Note_on_c, 1, 78, 64
3, 276956, Note_on_c, 1, 78, 0
3, 276960, Note_on_c, 1, 81, 64
3, 277196, Note_on_c, 1, 81, 0
3, 277200, Note_on_c, 1, 69, 64
3, 277436, Note_on_c, 1, 69, 0
3, 277440, Note_on_c, 1, 76, 64
3, 277676, Note_on_c, 1, 76, 0
3, 277680, Note_on_c, 1, 81, 64
3, 277916, Note_on_c, 1, 81, 0
3, 277920, Note_on_c, 1, 74, 64
3, 278036, Note_on_c, 1, 74, 0
3, 278040, Note_on_c, 1, 73, 64
3, 278156, Note_on_c, 1, 73, 0
3, 278160, Note_on_c, 1, 74, 64
3, 278276, Note_on_c, 1, 74, 0
3, 278280, Note_on_c, 1, 76, 64
3, 278396, Note_on_c, 1, 76, 0
3, 278400, Note_on_c, 1, 78, 64
3, 278516, Note_on_c, 1, 78, 0
3, 278520, Note_on_c, 1, 79, 64
3, 278636, Note_on_c, 1, 79, 0
3, 278640, Note_on_c, 1, 81, 64
3, 278756, Note_on_c, 1, 81, 0
3, 278760, Note_on_c, 1, 83, 64
3, 278876, Note_on_c, 1, 83, 0
3, 278880, Note_on_c, 1, 81, 64
3, 278996, Note_on_c, 1, 81, 0
3, 279000, Note_on_c, 1, 79, 64
3, 279116, Note_on_c, 1, 79, 0
3, 279120, Note_on_c, 1, 78, 64
3, 279236, Note_on_c, 1, 78, 0
3, 279240, Note_on_c, 1, 76, 64
3, 279356, Note_on_c, 1, 76, 0
3, 279360, Note_on_c, 1, 74, 64
3, 279596, Note_on_c, 1, 74, 0
3, 279600, Note_on_c, 1, 78, 64
3, 279836, Note_on_c, 1, 78, 0
3, 279840, Note_on_c, 1, 69, 64
3, 280076, Note_on_c, 1, 69, 0
3, 280080, Note_on_c, 1, 76, 64
3, 280316, Note_on_c, 1, 76, 0
3, 280320, Note_on_c, 1, 79, 64
3, 280556, Note_on_c, 1, 79, 0
3, 280560, Note_on_c, 1, 69, 64
3, 280796, Note_on_c, 1, 69, 0
3, 280800, Note_on_c, 1, 78, 64
3, 281036, Note_on_c, 1, 78, 0
3, 281040, Note_on_c, 1, 78, 64
3, 281276, Note_on_c, 1, 78, 0
3, 281280, Note_on_c, 1, 78, 64
3, 281516, Note_on_c, 1, 78, 0
3, 281520, Note_on_c, 1, 78, 64
3, 281756, Note_on_c, 1, 78, 0
3, 281760, Note_on_c, 1, 78, 64
3, 281996, Note_on_c, 1, 78, 0
3, 282000, Note_on_c, 1, 78, 64
3, 282236, Note_on_c, 1, 78, 0
3, 282240, Note_on_c, 1, 76, 64
3, 282476, Note_on_c, 1, 76, 0
3, 282480, Note_on_c, 1, 76, 64
3, 282716, Note_on_c, 1, 76, 0
3, 282720, Note_on_c, 1, 76, 64
3, 282956, Note_on_c, 1, 76, 0
3, 282960, Note_on_c, 1, 76, 64
3, 283196, Note_on_c, 1, 76, 0
3, 283200, Note_on_c, 1, 76, 64
3, 283436, Note_on_c, 1, 76, 0
3, 283440, Note_on_c, 1, 76, 64
3, 283676, Note_on_c, 1, 76, 0
3, 283680, Note_on_c, 1, 74, 64
3, 283916, Note_on_c, 1, 74, 0
3, 283920, Note_on_c, 1, 74, 64
3, 284156, Note_on_c, 1, 74, 0
3, 284160, Note_on_c, 1, 74, 64
3, 284396, Note_on_c, 1, 74, 0
3, 284400, Note_on_c, 1, 74, 64
3, 284636, Note_on_c, 1, 74, 0
3, 284640, Note_on_c, 1, 74, 64
3, 284876, Note_on_c, 1, 74, 0
3, 284880, Note_on_c, 1, 74, 64
3, 285116, Note_on_c, 1, 74, 0
3, 285120, Note_on_c, 1, 73, 64
3, 285356, Note_on_c, 1, 73, 0
3, 285360, Note_on_c, 1, 76, 64
3, 285596, Note_on_c, 1, 76, 0
3, 285600, Note_on_c, 1, 81, 64
3, 285836, Note_on_c, 1, 81, 0
3, 285840, Note_on_c, 1, 74, 64
3, 286076, Note_on_c, 1, 74, 0
3, 286080, Note_on_c, 1, 78, 64
3, 286316, Note_on_c, 1, 78, 0
3, 286320, Note_on_c, 1, 81, 64
3, 286556, Note_on_c, 1, 81, 0
3, 286560, Note_on_c, 1, 72, 64
3, 286676, Note_on_c, 1, 72, 0
3, 286680, Note_on_c, 1, 76, 64
3, 286796, Note_on_c, 1, 76, 0
3, 286800, Note_on_c, 1, 69, 64
3, 286916, Note_on_c, 1, 69, 0
3, 286920, Note_on_c, 1, 76, 64
3, 287036, Note_on_c, 1, 76, 0
3, 287040, Note_on_c, 1, 72, 64
3, 287156, Note_on_c, 1, 72, 0
3, 287160, Note_on_c, 1, 76, 64
3, 287276, Note_on_c, 1, 76, 0
3, 287280, Note_on_c, 1, 74, 64
3, 287396, Note_on_c, 1, 74, 0
3, 287400, Note_on_c, 1, 78, 64
3, 287516, Note_on_c, 1, 78, 0
3, 287520, Note_on_c, 1, 69, 64
3, 287636, Note_on_c, 1, 69, 0
3, 287640, Note_on_c, 1, 78, 64
3, 287756, Note_on_c, 1, 78, 0
3, 287760, Note_on_c, 1, 74, 64
3, 287876, Note_on_c, 1, 74, 0
3, 287880, Note_on_c, 1, 78, 64
3, 287996, Note_on_c, 1, 78, 0
3, 288000, Note_on_c, 1, 76, 64
3, 288116, Note_on_c, 1, 76, 0
3, 288120, Note_on_c, 1, 79, 64
3, 288236, Note_on_c, 1, 79, 0
3, 288240, Note_on_c, 1, 69, 64
3, 288356, Note_on_c, 1, 69, 0
3, 288360, Note_on_c, 1, 79, 64
3, 288476, Note_on_c, 1, 79, 0
3, 288480, Note_on_c, 1, 76, 64
3, 288596, Note_on_c, 1, 76, 0
3, 288600, Note_on_c, 1, 79, 64
3, 288716, Note_on_c, 1, 79, 0
3, 288720, Note_on_c, 1, 78, 64
3, 288836, Note_on_c, 1, 78, 0
3, 288840, Note_on_c, 1, 81, 64
3, 288956, Note_on_c, 1, 81, 0
3, 288960, Note_on_c, 1, 69, 64
3, 289076, Note_on_c, 1, 69, 0
3, 289080, Note_on_c, 1, 81, 64
3, 289196, Note_on_c, 1, 81, 0
3, 289200, Note_on_c, 1, 78, 64
3, 289316, Note_on_c, 1, 78, 0
3, 289320, Note_on_c, 1, 81, 64
3, 289436, Note_on_c, 1, 81, 0
3, 289440, Note_on_c, 1, 79, 64
3, 289556, Note_on_c, 1, 79, 0
3, 289560, Note_on_c, 1, 73, 64
3, 289676, Note_on_c, 1, 73, 0
3, 289680, Note_on_c, 1, 79, 64
3, 289796, Note_on_c, 1, 79, 0
3, 289800, Note_on_c, 1, 73, 64
3, 289916, Note_on_c, 1, 73, 0
3, 289920, Note_on_c, 1, 79, 64
3, 290036, Note_on_c, 1, 79, 0
3, 290040, Note_on_c, 1, 73, 64
3, 290156, Note_on_c, 1, 73, 0
3, 290160, Note_on_c, 1, 78, 64
3, 290276, Note_on_c, 1, 78, 0
3, 290280, Note_on_c, 1, 74, 64
3, 290396, Note_on_c, 1, 74, 0
3, 290400, Note_on_c, 1, 78, 64
3, 290516, Note_on_c, 1, 78, 0
3, 290520, Note_on_c, 1, 74, 64
3, 290636, Note_on_c, 1, 74, 0
3, 290640, Note_on_c, 1, 78, 64
3, 290756, Note_on_c, 1, 78, 0
3, 290760, Note_on_c, 1, 74, 64
3, 290876, Note_on_c, 1, 74, 0
3, 290880, Note_on_c, 1, 73, 64
3, 291116, Note_on_c, 1, 73, 0
3, 291120, Note_on_c, 1, 69, 64
3, 291356, Note_on_c, 1, 69, 0
3, 291360, Note_on_c, 1, 69, 64
3, 291596, Note_on_c, 1, 69, 0
3, 291600, Note_on_c, 1, 69, 64
3, 291836, Note_on_c, 1, 69, 0
3, 291840, Note_on_c, 1, 69, 64
3, 292076, Note_on_c, 1, 69, 0
3, 292080, Note_on_c, 1, 69, 64
3, 292316, Note_on_c, 1, 69, 0
3, 292320, Note_on_c, 1, 81, 64
3, 292436, Note_on_c, 1, 81, 0
3, 292440, Note_on_c, 1, 84, 64
3, 292556, Note_on_c, 1, 84, 0
3, 292560, Note_on_c, 1, 74, 64
3, 292676, Note_on_c, 1, 74, 0
3, 292680, Note_on_c, 1, 84, 64
3, 292796, Note_on_c, 1, 84, 0
3, 292800, Note_on_c, 1, 81, 64
3, 292916, Note_on_c, 1, 81, 0
3, 292920, Note_on_c, 1, 84, 64
3, 293036, Note_on_c, 1, 84, 0
3, 293040, Note_on_c, 1, 81, 64
3, 293156, Note_on_c, 1, 81, 0
3, 293160, Note_on_c, 1, 84, 64
3, 293276, Note_on_c, 1, 84, 0
3, 293280, Note_on_c, 1, 74, 64
3, 293396, Note_on_c, 1, 74, 0
3, 293400, Note_on_c, 1, 84, 64
3, 293516, Note_on_c, 1, 84, 0
3, 293520, Note_on_c, 1, 81, 64
3, 293636, Note_on_c, 1, 81, 0
3, 293640, Note_on_c, 1, 84, 64
3, 293756, Note_on_c, 1, 84, 0
3, 293760, Note_on_c, 1, 67, 64
3, 293996, Note_on_c, 1, 67, 0
3, 294000, Note_on_c, 1, 71, 64
3, 294236, Note_on_c, 1, 71, 0
3, 294240, Note_on_c, 1, 74, 64
3, 294476, Note_on_c, 1, 74, 0
3, 294480, Note_on_c, 1, 71, 64
3, 294716, Note_on_c, 1, 71, 0
3, 294720, Note_on_c, 1, 74, 64
3, 294956, Note_on_c, 1, 74, 0
3, 294960, Note_on_c, 1, 79, 64
3, 295196, Note_on_c, 1, 79, 0
3, 295200, Note_on_c, 1, 73, 64
3, 295436, Note_on_c, 1, 73, 0
3, 295440, Note_on_c, 1, 76, 64
3, 295676, Note_on_c, 1, 76, 0
3, 295680, Note_on_c, 1, 81, 64
3, 295916, Note_on_c, 1, 81, 0
3, 295920, Note_on_c, 1, 76, 64
3, 296156, Note_on_c, 1, 76, 0
3, 296160, Note_on_c, 1, 81, 64
3, 296396, Note_on_c, 1, 81, 0
3, 296400, Note_on_c, 1, 85, 64
3, 296636, Note_on_c, 1, 85, 0
3, 296640, Note_on_c, 1, 86, 64
3, 296876, Note_on_c, 1, 86, 0
3, 296880, Note_on_c, 1, 74, 64
3, 296996, Note_on_c, 1, 74, 0
3, 297000, Note_on_c, 1, 76, 64
3, 297116, Note_on_c, 1, 76, 0
3, 297120, Note_on_c, 1, 78, 64
3, 297356, Note_on_c, 1, 78, 0
3, 297360, Note_on_c, 1, 69, 64
3, 297596, Note_on_c, 1, 69, 0
3, 297600, Note_on_c, 1, 74, 64
3, 297836, Note_on_c, 1, 74, 0
3, 297840, Note_on_c, 1, 73, 64
3, 298076, Note_on_c, 1, 73, 0
3, 298080, Note_on_c, 1, 74, 64
3, 298796, Note_on_c, 1, 74, 0
3, 298800, Note_on_c, 1, 62, 64
3, 299516, Note_on_c, 1, 62, 0
3, 300960, Note_on_c, 1, 67, 64
3, 301076, Note_on_c, 1, 67, 0
3, 301080, Note_on_c, 1, 66, 64
3, 301196, Note_on_c, 1, 66, 0
3, 301200, Note_on_c, 1, 67, 64
3, 301316, Note_on_c, 1, 67, 0
3, 301320, Note_on_c, 1, 69, 64
3, 301436, Note_on_c, 1, 69, 0
3, 301440, Note_on_c, 1, 71, 64
3, 301556, Note_on_c, 1, 71, 0
3, 301560, Note_on_c, 1, 72, 64
3, 301676, Note_on_c, 1, 72, 0
3, 301680, Note_on_c, 1, 74, 64
3, 301796, Note_on_c, 1, 74, 0
3, 301800, Note_on_c, 1, 76, 64
3, 301916, Note_on_c, 1, 76, 0
3, 301920, Note_on_c, 1, 74, 64
3, 302036, Note_on_c, 1, 74, 0
3, 302040, Note_on_c, 1, 72, 64
3, 302156, Note_on_c, 1, 72, 0
3, 302160, Note_on_c, 1, 71, 64
3, 302276, Note_on_c, 1, 71, 0
3, 302280, Note_on_c, 1, 69, 64
3, 302396, Note_on_c, 1, 69, 0
3, 302400, Note_on_c, 1, 71, 64
3, 302636, Note_on_c, 1, 71, 0
3, 302640, Note_on_c, 1, 74, 64
3, 302876, Note_on_c, 1, 74, 0
3, 302880, Note_on_c, 1, 79, 64
3, 303116, Note_on_c, 1, 79, 0
3, 303120, Note_on_c, 1, 78, 64
3, 303236, Note_on_c, 1, 78, 0
3, 303240, Note_on_c, 1, 79, 64
3, 303356, Note_on_c, 1, 79, 0
3, 303360, Note_on_c, 1, 78, 64
3, 303476, Note_on_c, 1, 78, 0
3, 303480, Note_on_c, 1, 76, 64
3, 303596, Note_on_c, 1, 76, 0
3, 303600, Note_on_c, 1, 74, 64
3, 303716, Note_on_c, 1, 74, 0
3, 303720, Note_on_c, 1, 72, 64
3, 303836, Note_on_c, 1, 72, 0
3, 303840, Note_on_c, 1, 71, 64
3, 304076, Note_on_c, 1, 71, 0
3, 304080, Note_on_c, 1, 67, 64
3, 304316, Note_on_c, 1, 67, 0
3, 304320, Note_on_c, 1, 74, 64
3, 304556, Note_on_c, 1, 74, 0
3, 304560, Note_on_c, 1, 74, 64
3, 304796, Note_on_c, 1, 74, 0
3, 304800, Note_on_c, 1, 74, 64
3, 305036, Note_on_c, 1, 74, 0
3, 305040, Note_on_c, 1, 74, 64
3, 305276, Note_on_c, 1, 74, 0
3, 305280, Note_on_c, 1, 74, 64
3, 305516, Note_on_c, 1, 74, 0
3, 305520, Note_on_c, 1, 79, 64
3, 305756, Note_on_c, 1, 79, 0
3, 305760, Note_on_c, 1, 74, 64
3, 305996, Note_on_c, 1, 74, 0
3, 306000, Note_on_c, 1, 76, 64
3, 306116, Note_on_c, 1, 76, 0
3, 306120, Note_on_c, 1, 78, 64
3, 306236, Note_on_c, 1, 78, 0
3, 306240, Note_on_c, 1, 76, 64
3, 306356, Note_on_c, 1, 76, 0
3, 306360, Note_on_c, 1, 74, 64
3, 306476, Note_on_c, 1, 74, 0
3, 306480, Note_on_c, 1, 73, 64
3, 306596, Note_on_c, 1, 73, 0
3, 306600, Note_on_c, 1, 71, 64
3, 306716, Note_on_c, 1, 71, 0
3, 306720, Note_on_c, 1, 73, 64
3, 306956, Note_on_c, 1, 73, 0
3, 306960, Note_on_c, 1, 78, 64
3, 307196, Note_on_c, 1, 78, 0
3, 307200, Note_on_c, 1, 73, 64
3, 307436, Note_on_c, 1, 73, 0
3, 307440, Note_on_c, 1, 74, 64
3, 307556, Note_on_c, 1, 74, 0
3, 307560, Note_on_c, 1, 76, 64
3, 307676, Note_on_c, 1, 76, 0
3, 307680, Note_on_c, 1, 74, 64
3, 307796, Note_on_c, 1, 74, 0
3, 307800, Note_on_c, 1, 73, 64
3, 307916, Note_on_c, 1, 73, 0
3, 307920, Note_on_c, 1, 71, 64
3, 308036, Note_on_c, 1, 71, 0
3, 308040, Note_on_c, 1, 69, 64
3, 308156, Note_on_c, 1, 69, 0
3, 308160, Note_on_c, 1, 71, 64
3, 308396, Note_on_c, 1, 71, 0
3, 308400, Note_on_c, 1, 76, 64
3, 308636, Note_on_c, 1, 76, 0
3, 308640, Note_on_c, 1, 71, 64
3, 308876, Note_on_c, 1, 71, 0
3, 308880, Note_on_c, 1, 73, 64
3, 309116, Note_on_c, 1, 73, 0
3, 309120, Note_on_c, 1, 76, 64
3, 309356, Note_on_c, 1, 76, 0
3, 309360, Note_on_c, 1, 81, 64
3, 309596, Note_on_c, 1, 81, 0
3, 309600, Note_on_c, 1, 74, 64
3, 309836, Note_on_c, 1, 74, 0
3, 309840, Note_on_c, 1, 78, 64
3, 310076, Note_on_c, 1, 78, 0
3, 310080, Note_on_c, 1, 81, 64
3, 310316, Note_on_c, 1, 81, 0
3, 310320, Note_on_c, 1, 73, 64
3, 310556, Note_on_c, 1, 73, 0
3, 310560, Note_on_c, 1, 76, 64
3, 310796, Note_on_c, 1, 76, 0
3, 310800, Note_on_c, 1, 81, 64
3, 311036, Note_on_c, 1, 81, 0
3, 311040, Note_on_c, 1, 74, 64
3, 311276, Note_on_c, 1, 74, 0
3, 311280, Note_on_c, 1, 78, 64
3, 311516, Note_on_c, 1, 78, 0
3, 311520, Note_on_c, 1, 81, 64
3, 311756, Note_on_c, 1, 81, 0
3, 311760, Note_on_c, 1, 69, 64
3, 311996, Note_on_c, 1, 69, 0
3, 312000, Note_on_c, 1, 76, 64
3, 312236, Note_on_c, 1, 76, 0
3, 312240, Note_on_c, 1, 81, 64
3, 312476, Note_on_c, 1, 81, 0
3, 312480, Note_on_c, 1, 74, 64
3, 312596, Note_on_c, 1, 74, 0
3, 312600, Note_on_c, 1, 73, 64
3, 312716, Note_on_c, 1, 73, 0
3, 312720, Note_on_c, 1, 74, 64
3, 312836, Note_on_c, 1, 74, 0
3, 312840, Note_on_c, 1, 76, 64
3, 312956, Note_on_c, 1, 76, 0
3, 312960, Note_on_c, 1, 78, 64
3, 313076, Note_on_c, 1, 78, 0
3, 313080, Note_on_c, 1, 79, 64
3, 313196, Note_on_c, 1, 79, 0
3, 313200, Note_on_c, 1, 81, 64
3, 313316, Note_on_c, 1, 81, 0
3, 313320, Note_on_c, 1, 83, 64
3, 313436, Note_on_c, 1, 83, 0
3, 313440, Note_on_c, 1, 81, 64
3, 313556, Note_on_c, 1, 81, 0
3, 313560, Note_on_c, 1, 79, 64
3, 313676, Note_on_c, 1, 79, 0
3, 313680, Note_on_c, 1, 78, 64
3, 313796, Note_on_c, 1, 78, 0
3, 313800, Note_on_c, 1, 76, 64
3, 313916, Note_on_c, 1, 76, 0
3, 313920, Note_on_c, 1, 74, 64
3, 314156, Note_on_c, 1, 74, 0
3, 314160, Note_on_c, 1, 78, 64
3, 314396, Note_on_c, 1, 78, 0
3, 314400, Note_on_c, 1, 69, 64
3, 314636, Note_on_c, 1, 69, 0
3, 314640, Note_on_c, 1, 76, 64
3, 314876, Note_on_c, 1, 76, 0
3, 314880, Note_on_c, 1, 79, 64
3, 315116, Note_on_c, 1, 79, 0
3, 315120, Note_on_c, 1, 69, 64
3, 315356, Note_on_c, 1, 69, 0
3, 315360, Note_on_c, 1, 78, 64
3, 315596, Note_on_c, 1, 78, 0
3, 315600, Note_on_c, 1, 78, 64
3, 315836, Note_on_c, 1, 78, 0
3, 315840, Note_on_c, 1, 78, 64
3, 316076, Note_on_c, 1, 78, 0
3, 316080, Note_on_c, 1, 78, 64
3, 316316, Note_on_c, 1, 78, 0
3, 316320, Note_on_c, 1, 78, 64
3, 316556, Note_on_c, 1, 78, 0
3, 316560, Note_on_c, 1, 78, 64
3, 316796, Note_on_c, 1, 78, 0
3, 316800, Note_on_c, 1, 76, 64
3, 317036, Note_on_c, 1, 76, 0
3, 317040, Note_on_c, 1, 76, 64
3, 317276, Note_on_c, 1, 76, 0
3, 317280, Note_on_c, 1, 76, 64
3, 317516, Note_on_c, 1, 76, 0
3, 317520, Note_on_c, 1, 76, 64
3, 317756, Note_on_c, 1, 76, 0
3, 317760, Note_on_c, 1, 76, 64
3, 317996, Note_on_c, 1, 76, 0
3, 318000, Note_on_c, 1, 76, 64
3, 318236, Note_on_c, 1, 76, 0
3, 318240, Note_on_c, 1, 74, 64
3, 318476, Note_on_c, 1, 74, 0
3, 318480, Note_on_c, 1, 74, 64
3, 318716, Note_on_c, 1, 74, 0
3, 318720, Note_on_c, 1, 74, 64
3, 318956, Note_on_c, 1, 74, 0
3, 318960, Note_on_c, 1, 74, 64
3, 319196, Note_on_c, 1, 74, 0
3, 319200, Note_on_c, 1, 74, 64
3, 319436, Note_on_c, 1, 74, 0
3, 319440, Note_on_c, 1, 74, 64
3, 319676, Note_on_c, 1, 74, 0
3, 319680, Note_on_c, 1, 73, 64
3, 319916, Note_on_c, 1, 73, 0
3, 319920, Note_on_c, 1, 76, 64
3, 320156, Note_on_c, 1, 76, 0
3, 320160, Note_on_c, 1, 81, 64
3, 320396, Note_on_c, 1, 81, 0
3, 320400, Note_on_c, 1, 74, 64
3, 320636, Note_on_c, 1, 74, 0
3, 320640, Note_on_c, 1, 78, 64
3, 320876, Note_on_c, 1, 78, 0
3, 320880, Note_on_c, 1, 81, 64
3, 321116, Note_on_c, 1, 81, 0
3, 321120, Note_on_c, 1, 72, 64
3, 321236, Note_on_c, 1, 72, 0
3, 321240, Note_on_c, 1, 76, 64
3, 321356, Note_on_c, 1, 76, 0
3, 321360, Note_on_c, 1, 69, 64
3, 321476, Note_on_c, 1, 69, 0
3, 321480, Note_on_c, 1, 76, 64
3, 321596, Note_on_c, 1, 76, 0
3, 321600, Note_on_c, 1, 72, 64
3, 321716, Note_on_c, 1, 72, 0
3, 321720, Note_on_c, 1, 76, 64
3, 321836, Note_on_c, 1, 76, 0
3, 321840, Note_on_c, 1, 74, 64
3, 321956, Note_on_c, 1, 74, 0
3, 321960, Note_on_c, 1, 78, 64
3, 322076, Note_on_c, 1, 78, 0
3, 322080, Note_on_c, 1, 69, 64
3, 322196, Note_on_c, 1, 69, 0
3, 322200, Note_on_c, 1, 78, 64
3, 322316, Note_on_c, 1, 78, 0
3, 322320, Note_on_c, 1, 74, 64
3, 322436, Note_on_c, 1, 74, 0
3, 322440, Note_on_c, 1, 78, 64
3, 322556, Note_on_c, 1, 78, 0
3, 322560, Note_on_c, 1, 76, 64
3, 322676, Note_on_c, 1, 76, 0
3, 322680, Note_on_c, 1, 79, 64
3, 322796, Note_on_c, 1, 79, 0
3, 322800, Note_on_c, 1, 69, 64
3, 322916, Note_on_c, 1, 69, 0
3, 322920, Note_on_c, 1, 79, 64
3, 323036, Note_on_c, 1, 79, 0
3, 323040, Note_on_c, 1, 76, 64
3, 323156, Note_on_c, 1, 76, 0
3, 323160, Note_on_c, 1, 79, 64
3, 323276, Note_on_c, 1, 79, 0
3, 323280, Note_on_c, 1, 78, 64
3, 323396, Note_on_c, 1, 78, 0
3, 323400, Note_on_c, 1, 81, 64
3, 323516, Note_on_c, 1, 81, 0
3, 323520, Note_on_c, 1, 69, 64
3, 323636, Note_on_c, 1, 69, 0
3, 323640, Note_on_c, 1, 81, 64
3, 323756, Note_on_c, 1, 81, 0
3, 323760, Note_on_c, 1, 78, 64
3, 323876, Note_on_c, 1, 78, 0
3, 323880, Note_on_c, 1, 81, 64
3, 323996, Note_on_c, 1, 81, 0
3, 324000, Note_on_c, 1, 79, 64
3, 324116, Note_on_c, 1, 79, 0
3, 324120, Note_on_c, 1, 73, 64
3, 324236, Note_on_c, 1, 73, 0
3, 324240, Note_on_c, 1, 79, 64
3, 324356, Note_on_c, 1, 79, 0
3, 324360, Note_on_c, 1, 73, 64
3, 324476, Note_on_c, 1, 73, 0
3, 324480, Note_on_c, 1, 79, 64
3, 324596, Note_on_c, 1, 79, 0
3, 324600, Note_on_c, 1, 73, 64
3, 324716, Note_on_c, 1, 73, 0
3, 324720, Note_on_c, 1, 78, 64
3, 324836, Note_on_c, 1, 78, 0
3, 324840, Note_on_c, 1, 74, 64
3, 324956, Note_on_c, 1, 74, 0
3, 324960, Note_on_c, 1, 78, 64
3, 325076, Note_on_c, 1, 78, 0
3, 325080, Note_on_c, 1, 74, 64
3, 325196, Note_on_c, 1, 74, 0
3, 325200, Note_on_c, 1, 78, 64
3, 325316, Note_on_c, 1, 78, 0
3, 325320, Note_on_c, 1, 74, 64
3, 325436, Note_on_c, 1, 74, 0
3, 325440, Note_on_c, 1, 73, 64
3, 325676, Note_on_c, 1, 73, 0
3, 325680, Note_on_c, 1, 69, 64
3, 325916, Note_on_c, 1, 69, 0
3, 325920, Note_on_c, 1, 69, 64
3, 326156, Note_on_c, 1, 69, 0
3, 326160, Note_on_c, 1, 69, 64
3, 326396, Note_on_c, 1, 69, 0
3, 326400, Note_on_c, 1, 69, 64
3, 326636, Note_on_c, 1, 69, 0
3, 326640, Note_on_c, 1, 69, 64
3, 326876, Note_on_c, 1, 69, 0
3, 326880, Note_on_c, 1, 81, 64
3, 326996, Note_on_c, 1, 81, 0
3, 327000, Note_on_c, 1, 84, 64
3, 327116, Note_on_c, 1, 84, 0
3, 327120, Note_on_c, 1, 74, 64
3, 327236, Note_on_c, 1, 74, 0
3, 327240, Note_on_c, 1, 84, 64
3, 327356, Note_on_c, 1, 84, 0
3, 327360, Note_on_c, 1, 81, 64
3, 327476, Note_on_c, 1, 81, 0
3, 327480, Note_on_c, 1, 84, 64
3, 327596, Note_on_c, 1, 84, 0
3, 327600, Note_on_c, 1, 81, 64
3, 327716, Note_on_c, 1, 81, 0
3, 327720, Note_on_c, 1, 84, 64
3, 327836, Note_on_c, 1, 84, 0
3, 327840, Note_on_c, 1, 74, 64
3, 327956, Note_on_c, 1, 74, 0
3, 327960, Note_on_c, 1, 84, 64
3, 328076, Note_on_c, 1, 84, 0
3, 328080, Note_on_c, 1, 81, 64
3, 328196, Note_on_c, 1, 81, 0
3, 328200, Note_on_c, 1, 84, 64
3, 328316, Note_on_c, 1, 84, 0
3, 328320, Note_on_c, 1, 67, 64
3, 328556, Note_on_c, 1, 67, 0
3, 328560, Note_on_c, 1, 71, 64
3, 328796, Note_on_c, 1, 71, 0
3, 328800, Note_on_c, 1, 74, 64
3, 329036, Note_on_c, 1, 74, 0
3, 329040, Note_on_c, 1, 71, 64
3, 329276, Note_on_c, 1, 71, 0
3, 329280, Note_on_c, 1, 74, 64
3, 329516, Note_on_c, 1, 74, 0
3, 329520, Note_on_c, 1, 79, 64
3, 329756, Note_on_c, 1, 79, 0
3, 329760, Note_on_c, 1, 73, 64
3, 329996, Note_on_c, 1, 73, 0
3, 330000, Note_on_c, 1, 76, 64
3, 330236, Note_on_c, 1, 76, 0
3, 330240, Note_on_c, 1, 81, 64
3, 330476, Note_on_c, 1, 81, 0
3, 330480, Note_on_c, 1, 76, 64
3, 330716, Note_on_c, 1, 76, 0
3, 330720, Note_on_c, 1, 81, 64
3, 330956, Note_on_c, 1, 81, 0
3, 330960, Note_on_c, 1, 85, 64
3, 331196, Note_on_c, 1, 85, 0
3, 331200, Note_on_c, 1, 86, 64
3, 331436, Note_on_c, 1, 86, 0
3, 331440, Note_on_c, 1, 74, 64
3, 331556, Note_on_c, 1, 74, 0
3, 331560, Note_on_c, 1, 76, 64
3, 331676, Note_on_c, 1, 76, 0
3, 331680, Note_on_c, 1, 78, 64
3, 331916, Note_on_c, 1, 78, 0
3, 331920, Note_on_c, 1, 69, 64
3, 332156, Note_on_c, 1, 69, 0
3, 332160, Note_on_c, 1, 74, 64
3, 332396, Note_on_c, 1, 74, 0
3, 332400, Note_on_c, 1, 73, 64
3, 332636, Note_on_c, 1, 73, 0
3, 332640, Note_on_c, 1, 74, 64
3, 333356, Note_on_c, 1, 74, 0
3, 333360, Note_on_c, 1, 62, 64
3, 334076, Note_on_c, 1, 62, 0
3, 334080, Note_on_c, 1, 62, 64
3, 334316, Note_on_c, 1, 62, 0
3, 334320, Note_on_c, 1, 66, 64
3, 334556, Note_on_c, 1, 66, 0
3, 334560, Note_on_c, 1, 69, 64
3, 334796, Note_on_c, 1, 69, 0
3, 334800, Note_on_c, 1, 61, 64
3, 335036, Note_on_c, 1, 61, 0
3, 335040, Note_on_c, 1, 64, 64
3, 335276, Note_on_c, 1, 64, 0
3, 335280, Note_on_c, 1, 69, 64
3, 335516, Note_on_c, 1, 69, 0
3, 335520, Note_on_c, 1, 62, 64
3, 335756, Note_on_c, 1, 62, 0
3, 335760, Note_on_c, 1, 66, 64
3, 335996, Note_on_c, 1, 66, 0
3, 336000, Note_on_c, 1, 69, 64
3, 336236, Note_on_c, 1, 69, 0
3, 336240, Note_on_c, 1, 57, 64
3, 336476, Note_on_c, 1, 57, 0
3, 336480, Note_on_c, 1, 64, 64
3, 336716, Note_on_c, 1, 64, 0
3, 336720, Note_on_c, 1, 69, 64
3, 336956, Note_on_c, 1, 69, 0
3, 336960, Note_on_c, 1, 71, 64
3, 337196, Note_on_c, 1, 71, 0
3, 337200, Note_on_c, 1, 71, 64
3, 337436, Note_on_c, 1, 71, 0
3, 337440, Note_on_c, 1, 71, 64
3, 337676, Note_on_c, 1, 71, 0
3, 337680, Note_on_c, 1, 71, 64
3, 337916, Note_on_c, 1, 71, 0
3, 337920, Note_on_c, 1, 71, 64
3, 338156, Note_on_c, 1, 71, 0
3, 338160, Note_on_c, 1, 71, 64
3, 338396, Note_on_c, 1, 71, 0
3, 338400, Note_on_c, 1, 71, 64
3, 338636, Note_on_c, 1, 71, 0
3, 338640, Note_on_c, 1, 71, 64
3, 338876, Note_on_c, 1, 71, 0
3, 338880, Note_on_c, 1, 71, 64
3, 339116, Note_on_c, 1, 71, 0
3, 339120, Note_on_c, 1, 71, 64
3, 339356, Note_on_c, 1, 71, 0
3, 339360, Note_on_c, 1, 71, 64
3, 339596, Note_on_c, 1, 71, 0
3, 339600, Note_on_c, 1, 71, 64
3, 339836, Note_on_c, 1, 71, 0
3, 339840, Note_on_c, 1, 71, 64
3, 340076, Note_on_c, 1, 71, 0
3, 340080, Note_on_c, 1, 76, 64
3, 340316, Note_on_c, 1, 76, 0
3, 340320, Note_on_c, 1, 79, 64
3, 340556, Note_on_c, 1, 79, 0
3, 340560, Note_on_c, 1, 72, 64
3, 340796, Note_on_c, 1, 72, 0
3, 340800, Note_on_c, 1, 76, 64
3, 341036, Note_on_c, 1, 76, 0
3, 341040, Note_on_c, 1, 79, 64
3, 341276, Note_on_c, 1, 79, 0
3, 341280, Note_on_c, 1, 71, 64
3, 341516, Note_on_c, 1, 71, 0
3, 341520, Note_on_c, 1, 76, 64
3, 341756, Note_on_c, 1, 76, 0
3, 341760, Note_on_c, 1, 79, 64
3, 341996, Note_on_c, 1, 79, 0
3, 342000, Note_on_c, 1, 69, 64
3, 342236, Note_on_c, 1, 69, 0
3, 342240, Note_on_c, 1, 76, 64
3, 342476, Note_on_c, 1, 76, 0
3, 342480, Note_on_c, 1, 79, 64
3, 342716, Note_on_c, 1, 79, 0
3, 342720, Note_on_c, 1, 71, 64
3, 342956, Note_on_c, 1, 71, 0
3, 342960, Note_on_c, 1, 76, 64
3, 343196, Note_on_c, 1, 76, 0
3, 343200, Note_on_c, 1, 79, 64
3, 343436, Note_on_c, 1, 79, 0
3, 343440, Note_on_c, 1, 72, 64
3, 343676, Note_on_c, 1, 72, 0
3, 343680, Note_on_c, 1, 76, 64
3, 343916, Note_on_c, 1, 76, 0
3, 343920, Note_on_c, 1, 79, 64
3, 344156, Note_on_c, 1, 79, 0
3, 344160, Note_on_c, 1, 71, 64
3, 344396, Note_on_c, 1, 71, 0
3, 344400, Note_on_c, 1, 76, 64
3, 344636, Note_on_c, 1, 76, 0
3, 344640, Note_on_c, 1, 75, 64
3, 344876, Note_on_c, 1, 75, 0
3, 344880, Note_on_c, 1, 76, 64
3, 345356, Note_on_c, 1, 76, 0
3, 347040, Note_on_c, 1, 62, 64
3, 347156, Note_on_c, 1, 62, 0
3, 347160, Note_on_c, 1, 61, 64
3, 347276, Note_on_c, 1, 61, 0
3, 347280, Note_on_c, 1, 62, 64
3, 347396, Note_on_c, 1, 62, 0
3, 347400, Note_on_c, 1, 64, 64
3, 347516, Note_on_c, 1, 64, 0
3, 347520, Note_on_c, 1, 66, 64
3, 347636, Note_on_c, 1, 66, 0
3, 347640, Note_on_c, 1, 67, 64
3, 347756, Note_on_c, 1, 67, 0
3, 347760, Note_on_c, 1, 69, 64
3, 347876, Note_on_c, 1, 69, 0
3, 347880, Note_on_c, 1, 71, 64
3, 347996, Note_on_c, 1, 71, 0
3, 348000, Note_on_c, 1, 69, 64
3, 348116, Note_on_c, 1, 69, 0
3, 348120, Note_on_c, 1, 67, 64
3, 348236, Note_on_c, 1, 67, 0
3, 348240, Note_on_c, 1, 66, 64
3, 348356, Note_on_c, 1, 66, 0
3, 348360, Note_on_c, 1, 64, 64
3, 348476, Note_on_c, 1, 64, 0
3, 348480, Note_on_c, 1, 67, 64
3, 348716, Note_on_c, 1, 67, 0
3, 348720, Note_on_c, 1, 71, 64
3, 348956, Note_on_c, 1, 71, 0
3, 348960, Note_on_c, 1, 76, 64
3, 349196, Note_on_c, 1, 76, 0
3, 349200, Note_on_c, 1, 75, 64
3, 349316, Note_on_c, 1, 75, 0
3, 349320, Note_on_c, 1, 76, 64
3, 349436, Note_on_c, 1, 76, 0
3, 349440, Note_on_c, 1, 75, 64
3, 349556, Note_on_c, 1, 75, 0
3, 349560, Note_on_c, 1, 73, 64
3, 349676, Note_on_c, 1, 73, 0
3, 349680, Note_on_c, 1, 71, 64
3, 349796, Note_on_c, 1, 71, 0
3, 349800, Note_on_c, 1, 69, 64
3, 349916, Note_on_c, 1, 69, 0
3, 349920, Note_on_c, 1, 67, 64
3, 350156, Note_on_c, 1, 67, 0
3, 350160, Note_on_c, 1, 64, 64
3, 350396, Note_on_c, 1, 64, 0
3, 350400, Note_on_c, 1, 83, 64
3, 350636, Note_on_c, 1, 83, 0
3, 350640, Note_on_c, 1, 83, 64
3, 350876, Note_on_c, 1, 83, 0
3, 350880, Note_on_c, 1, 83, 64
3, 351116, Note_on_c, 1, 83, 0
3, 351120, Note_on_c, 1, 83, 64
3, 351356, Note_on_c, 1, 83, 0
3, 351360, Note_on_c, 1, 71, 64
3, 351596, Note_on_c, 1, 71, 0
3, 351600, Note_on_c, 1, 76, 64
3, 351836, Note_on_c, 1, 76, 0
3, 351840, Note_on_c, 1, 71, 64
3, 352076, Note_on_c, 1, 71, 0
3, 352080, Note_on_c, 1, 73, 64
3, 352196, Note_on_c, 1, 73, 0
3, 352200, Note_on_c, 1, 74, 64
3, 352316, Note_on_c, 1, 74, 0
3, 352320, Note_on_c, 1, 73, 64
3, 352436, Note_on_c, 1, 73, 0
3, 352440, Note_on_c, 1, 71, 64
3, 352556, Note_on_c, 1, 71, 0
3, 352560, Note_on_c, 1, 69, 64
3, 352676, Note_on_c, 1, 69, 0
3, 352680, Note_on_c, 1, 67, 64
3, 352796, Note_on_c, 1, 67, 0
3, 352800, Note_on_c, 1, 69, 64
3, 353036, Note_on_c, 1, 69, 0
3, 353040, Note_on_c, 1, 74, 64
3, 353276, Note_on_c, 1, 74, 0
3, 353280, Note_on_c, 1, 69, 64
3, 353516, Note_on_c, 1, 69, 0
3, 353520, Note_on_c, 1, 71, 64
3, 353636, Note_on_c, 1, 71, 0
3, 353640, Note_on_c, 1, 73, 64
3, 353756, Note_on_c, 1, 73, 0
3, 353760, Note_on_c, 1, 71, 64
3, 353876, Note_on_c, 1, 71, 0
3, 353880, Note_on_c, 1, 69, 64
3, 353996, Note_on_c, 1, 69, 0
3, 354000, Note_on_c, 1, 67, 64
3, 354116, Note_on_c, 1, 67, 0
3, 354120, Note_on_c, 1, 66, 64
3, 354236, Note_on_c, 1, 66, 0
3, 354240, Note_on_c, 1, 64, 64
3, 354476, Note_on_c, 1, 64, 0
3, 354480, Note_on_c, 1, 73, 64
3, 354716, Note_on_c, 1, 73, 0
3, 354720, Note_on_c, 1, 79, 64
3, 354956, Note_on_c, 1, 79, 0
3, 354960, Note_on_c, 1, 70, 64
3, 355196, Note_on_c, 1, 70, 0
3, 355200, Note_on_c, 1, 73, 64
3, 355436, Note_on_c, 1, 73, 0
3, 355440, Note_on_c, 1, 78, 64
3, 355676, Note_on_c, 1, 78, 0
3, 355680, Note_on_c, 1, 71, 64
3, 355916, Note_on_c, 1, 71, 0
3, 355920, Note_on_c, 1, 74, 64
3, 356156, Note_on_c, 1, 74, 0
3, 356160, Note_on_c, 1, 78, 64
3, 356396, Note_on_c, 1, 78, 0
3, 356400, Note_on_c, 1, 70, 64
3, 356636, Note_on_c, 1, 70, 0
3, 356640, Note_on_c, 1, 73, 64
3, 356876, Note_on_c, 1, 73, 0
3, 356880, Note_on_c, 1, 78, 64
3, 357116, Note_on_c, 1, 78, 0
3, 357120, Note_on_c, 1, 71, 64
3, 357356, Note_on_c, 1, 71, 0
3, 357360, Note_on_c, 1, 74, 64
3, 357596, Note_on_c, 1, 74, 0
3, 357600, Note_on_c, 1, 78, 64
3, 357836, Note_on_c, 1, 78, 0
3, 357840, Note_on_c, 1, 66, 64
3, 358076, Note_on_c, 1, 66, 0
3, 358080, Note_on_c, 1, 73, 64
3, 358316, Note_on_c, 1, 73, 0
3, 358320, Note_on_c, 1, 78, 64
3, 358556, Note_on_c, 1, 78, 0
3, 358560, Note_on_c, 1, 71, 64
3, 358676, Note_on_c, 1, 71, 0
3, 358680, Note_on_c, 1, 70, 64
3, 358796, Note_on_c, 1, 70, 0
3, 358800, Note_on_c, 1, 71, 64
3, 358916, Note_on_c, 1, 71, 0
3, 358920, Note_on_c, 1, 73, 64
3, 359036, Note_on_c, 1, 73, 0
3, 359040, Note_on_c, 1, 74, 64
3, 359156, Note_on_c, 1, 74, 0
3, 359160, Note_on_c, 1, 76, 64
3, 359276, Note_on_c, 1, 76, 0
3, 359280, Note_on_c, 1, 78, 64
3, 359396, Note_on_c, 1, 78, 0
3, 359400, Note_on_c, 1, 79, 64
3, 359516, Note_on_c, 1, 79, 0
3, 359520, Note_on_c, 1, 78, 64
3, 359636, Note_on_c, 1, 78, 0
3, 359640, Note_on_c, 1, 76, 64
3, 359756, Note_on_c, 1, 76, 0
3, 359760, Note_on_c, 1, 74, 64
3, 359876, Note_on_c, 1, 74, 0
3, 359880, Note_on_c, 1, 73, 64
3, 359996, Note_on_c, 1, 73, 0
3, 360000, Note_on_c, 1, 71, 64
3, 360236, Note_on_c, 1, 71, 0
3, 360240, Note_on_c, 1, 74, 64
3, 360476, Note_on_c, 1, 74, 0
3, 360480, Note_on_c, 1, 66, 64
3, 360716, Note_on_c, 1, 66, 0
3, 360720, Note_on_c, 1, 73, 64
3, 360956, Note_on_c, 1, 73, 0
3, 360960, Note_on_c, 1, 76, 64
3, 361196, Note_on_c, 1, 76, 0
3, 361200, Note_on_c, 1, 66, 64
3, 361436, Note_on_c, 1, 66, 0
3, 361440, Note_on_c, 1, 74, 64
3, 361676, Note_on_c, 1, 74, 0
3, 361680, Note_on_c, 1, 74, 64
3, 361916, Note_on_c, 1, 74, 0
3, 361920, Note_on_c, 1, 74, 64
3, 362156, Note_on_c, 1, 74, 0
3, 362160, Note_on_c, 1, 74, 64
3, 362396, Note_on_c, 1, 74, 0
3, 362400, Note_on_c, 1, 74, 64
3, 362636, Note_on_c, 1, 74, 0
3, 362640, Note_on_c, 1, 74, 64
3, 362876, Note_on_c, 1, 74, 0
3, 362880, Note_on_c, 1, 73, 64
3, 363116, Note_on_c, 1, 73, 0
3, 363120, Note_on_c, 1, 73, 64
3, 363356, Note_on_c, 1, 73, 0
3, 363360, Note_on_c, 1, 73, 64
3, 363596, Note_on_c, 1, 73, 0
3, 363600, Note_on_c, 1, 73, 64
3, 363836, Note_on_c, 1, 73, 0
3, 363840, Note_on_c, 1, 73, 64
3, 364076, Note_on_c, 1, 73, 0
3, 364080, Note_on_c, 1, 73, 64
3, 364316, Note_on_c, 1, 73, 0
3, 364320, Note_on_c, 1, 71, 64
3, 364556, Note_on_c, 1, 71, 0
3, 364560, Note_on_c, 1, 71, 64
3, 364796, Note_on_c, 1, 71, 0
3, 364800, Note_on_c, 1, 71, 64
3, 365036, Note_on_c, 1, 71, 0
3, 365040, Note_on_c, 1, 71, 64
3, 365276, Note_on_c, 1, 71, 0
3, 365280, Note_on_c, 1, 71, 64
3, 365516, Note_on_c, 1, 71, 0
3, 365520, Note_on_c, 1, 71, 64
3, 365756, Note_on_c, 1, 71, 0
3, 365760, Note_on_c, 1, 70, 64
3, 365996, Note_on_c, 1, 70, 0
3, 366000, Note_on_c, 1, 73, 64
3, 366236, Note_on_c, 1, 73, 0
3, 366240, Note_on_c, 1, 78, 64
3, 366476, Note_on_c, 1, 78, 0
3, 366480, Note_on_c, 1, 71, 64
3, 366716, Note_on_c, 1, 71, 0
3, 366720, Note_on_c, 1, 74, 64
3, 366956, Note_on_c, 1, 74, 0
3, 366960, Note_on_c, 1, 78, 64
3, 367196, Note_on_c, 1, 78, 0
3, 367200, Note_on_c, 1, 70, 64
3, 367316, Note_on_c, 1, 70, 0
3, 367320, Note_on_c, 1, 73, 64
3, 367436, Note_on_c, 1, 73, 0
3, 367440, Note_on_c, 1, 66, 64
3, 367556, Note_on_c, 1, 66, 0
3, 367560, Note_on_c, 1, 73, 64
3, 367676, Note_on_c, 1, 73, 0
3, 367680, Note_on_c, 1, 70, 64
3, 367796, Note_on_c, 1, 70, 0
3, 367800, Note_on_c, 1, 73, 64
3, 367916, Note_on_c, 1, 73, 0
3, 367920, Note_on_c, 1, 71, 64
3, 368036, Note_on_c, 1, 71, 0
3, 368040, Note_on_c, 1, 74, 64
3, 368156, Note_on_c, 1, 74, 0
3, 368160, Note_on_c, 1, 66, 64
3, 368276, Note_on_c, 1, 66, 0
3, 368280, Note_on_c, 1, 74, 64
3, 368396, Note_on_c, 1, 74, 0
3, 368400, Note_on_c, 1, 71, 64
3, 368516, Note_on_c, 1, 71, 0
3, 368520, Note_on_c, 1, 74, 64
3, 368636, Note_on_c, 1, 74, 0
3, 368640, Note_on_c, 1, 73, 64
3, 368756, Note_on_c, 1, 73, 0
3, 368760, Note_on_c, 1, 76, 64
3, 368876, Note_on_c, 1, 76, 0
3, 368880, Note_on_c, 1, 66, 64
3, 368996, Note_on_c, 1, 66, 0
3, 369000, Note_on_c, 1, 76, 64
3, 369116, Note_on_c, 1, 76, 0
3, 369120, Note_on_c, 1, 73, 64
3, 369236, Note_on_c, 1, 73, 0
3, 369240, Note_on_c, 1, 76, 64
3, 369356, Note_on_c, 1, 76, 0
3, 369360, Note_on_c, 1, 74, 64
3, 369476, Note_on_c, 1, 74, 0
3, 369480, Note_on_c, 1, 78, 64
3, 369596, Note_on_c, 1, 78, 0
3, 369600, Note_on_c, 1, 66, 64
3, 369716, Note_on_c, 1, 66, 0
3, 369720, Note_on_c, 1, 78, 64
3, 369836, Note_on_c, 1, 78, 0
3, 369840, Note_on_c, 1, 74, 64
3, 369956, Note_on_c, 1, 74, 0
3, 369960, Note_on_c, 1, 78, 64
3, 370076, Note_on_c, 1, 78, 0
3, 370080, Note_on_c, 1, 76, 64
3, 370196, Note_on_c, 1, 76, 0
3, 370200, Note_on_c, 1, 70, 64
3, 370316, Note_on_c, 1, 70, 0
3, 370320, Note_on_c, 1, 76, 64
3, 370436, Note_on_c, 1, 76, 0
3, 370440, Note_on_c, 1, 70, 64
3, 370556, Note_on_c, 1, 70, 0
3, 370560, Note_on_c, 1, 76, 64
3, 370676, Note_on_c, 1, 76, 0
3, 370680, Note_on_c, 1, 70, 64
3, 370796, Note_on_c, 1, 70, 0
3, 370800, Note_on_c, 1, 74, 64
3, 370916, Note_on_c, 1, 74, 0
3, 370920, Note_on_c, 1, 71, 64
3, 371036, Note_on_c, 1, 71, 0
3, 371040, Note_on_c, 1, 74, 64
3, 371156, Note_on_c, 1, 74, 0
3, 371160, Note_on_c, 1, 71, 64
3, 371276, Note_on_c, 1, 71, 0
3, 371280, Note_on_c, 1, 74, 64
3, 371396, Note_on_c, 1, 74, 0
3, 371400, Note_on_c, 1, 71, 64
3, 371516, Note_on_c, 1, 71, 0
3, 371520, Note_on_c, 1, 70, 64
3, 371756, Note_on_c, 1, 70, 0
3, 371760, Note_on_c, 1, 66, 64
3, 371996, Note_on_c, 1, 66, 0
3, 372000, Note_on_c, 1, 66, 64
3, 372236, Note_on_c, 1, 66, 0
3, 372240, Note_on_c, 1, 66, 64
3, 372476, Note_on_c, 1, 66, 0
3, 372480, Note_on_c, 1, 66, 64
3, 372716, Note_on_c, 1, 66, 0
3, 372720, Note_on_c, 1, 66, 64
3, 372956, Note_on_c, 1, 66, 0
3, 372960, Note_on_c, 1, 78, 64
3, 373076, Note_on_c, 1, 78, 0
3, 373080, Note_on_c, 1, 81, 64
3, 373196, Note_on_c, 1, 81, 0
3, 373200, Note_on_c, 1, 71, 64
3, 373316, Note_on_c, 1, 71, 0
3, 373320, Note_on_c, 1, 81, 64
3, 373436, Note_on_c, 1, 81, 0
3, 373440, Note_on_c, 1, 78, 64
3, 373556, Note_on_c, 1, 78, 0
3, 373560, Note_on_c, 1, 81, 64
3, 373676, Note_on_c, 1, 81, 0
3, 373680, Note_on_c, 1, 78, 64
3, 373796, Note_on_c, 1, 78, 0
3, 373800, Note_on_c, 1, 81, 64
3, 373916, Note_on_c, 1, 81, 0
3, 373920, Note_on_c, 1, 71, 64
3, 374036, Note_on_c, 1, 71, 0
3, 374040, Note_on_c, 1, 81, 64
3, 374156, Note_on_c, 1, 81, 0
3, 374160, Note_on_c, 1, 78, 64
3, 374276, Note_on_c, 1, 78, 0
3, 374280, Note_on_c, 1, 81, 64
3, 374396, Note_on_c, 1, 81, 0
3, 374400, Note_on_c, 1, 64, 64
3, 374636, Note_on_c, 1, 64, 0
3, 374640, Note_on_c, 1, 67, 64
3, 374876, Note_on_c, 1, 67, 0
3, 374880, Note_on_c, 1, 71, 64
3, 375116, Note_on_c, 1, 71, 0
3, 375120, Note_on_c, 1, 67, 64
3, 375356, Note_on_c, 1, 67, 0
3, 375360, Note_on_c, 1, 71, 64
3, 375596, Note_on_c, 1, 71, 0
3, 375600, Note_on_c, 1, 76, 64
3, 375836, Note_on_c, 1, 76, 0
3, 375840, Note_on_c, 1, 70, 64
3, 376076, Note_on_c, 1, 70, 0
3, 376080, Note_on_c, 1, 73, 64
3, 376316, Note_on_c, 1, 73, 0
3, 376320, Note_on_c, 1, 78, 64
3, 376556, Note_on_c, 1, 78, 0
3, 376560, Note_on_c, 1, 73, 64
3, 376796, Note_on_c, 1, 73, 0
3, 376800, Note_on_c, 1, 78, 64
3, 377036, Note_on_c, 1, 78, 0
3, 377040, Note_on_c, 1, 82, 64
3, 377276, Note_on_c, 1, 82, 0
3, 377280, Note_on_c, 1, 83, 64
3, 377516, Note_on_c, 1, 83, 0
3, 377520, Note_on_c, 1, 71, 64
3, 377636, Note_on_c, 1, 71, 0
3, 377640, Note_on_c, 1, 73, 64
3, 377756, Note_on_c, 1, 73, 0
3, 377760, Note_on_c, 1, 74, 64
3, 377996, Note_on_c, 1, 74, 0
3, 378000, Note_on_c, 1, 66, 64
3, 378236, Note_on_c, 1, 66, 0
3, 378240, Note_on_c, 1, 71, 64
3, 378476, Note_on_c, 1, 71, 0
3, 378480, Note_on_c, 1, 70, 64
3, 378716, Note_on_c, 1, 70, 0
3, 378720, Note_on_c, 1, 71, 64
3, 379436, Note_on_c, 1, 71, 0
3, 379440, Note_on_c, 1, 59, 64
3, 380156, Note_on_c, 1, 59, 0
3, 380160, Note_on_c, 1, 69, 64
3, 380396, Note_on_c, 1, 69, 0
3, 380400, Note_on_c, 1, 69, 64
3, 380636, Note_on_c, 1, 69, 0
3, 380640, Note_on_c, 1, 69, 64
3, 380876, Note_on_c, 1, 69, 0
3, 380880, Note_on_c, 1, 69, 64
3, 381116, Note_on_c, 1, 69, 0
3, 381120, Note_on_c, 1, 69, 64
3, 381356, Note_on_c, 1, 69, 0
3, 381360, Note_on_c, 1, 69, 64
3, 381596, Note_on_c, 1, 69, 0
3, 381600, Note_on_c, 1, 69, 64
3, 381716, Note_on_c, 1, 69, 0
3, 381720, Note_on_c, 1, 72, 64
3, 381836, Note_on_c, 1, 72, 0
3, 381840, Note_on_c, 1, 71, 64
3, 381956, Note_on_c, 1, 71, 0
3, 381960, Note_on_c, 1, 69, 64
3, 382076, Note_on_c, 1, 69, 0
3, 382080, Note_on_c, 1, 67, 64
3, 382196, Note_on_c, 1, 67, 0
3, 382200, Note_on_c, 1, 66, 64
3, 382316, Note_on_c, 1, 66, 0
3, 382320, Note_on_c, 1, 67, 64
3, 382556, Note_on_c, 1, 67, 0
3, 382560, Note_on_c, 1, 64, 64
3, 382796, Note_on_c, 1, 64, 0
3, 382800, Note_on_c, 1, 67, 64
3, 383036, Note_on_c, 1, 67, 0
3, 383040, Note_on_c, 1, 71, 64
3, 383276, Note_on_c, 1, 71, 0
3, 383280, Note_on_c, 1, 71, 64
3, 383516, Note_on_c, 1, 71, 0
3, 383520, Note_on_c, 1, 71, 64
3, 383756, Note_on_c, 1, 71, 0
3, 383760, Note_on_c, 1, 71, 64
3, 383996, Note_on_c, 1, 71, 0
3, 384000, Note_on_c, 1, 71, 64
3, 384236, Note_on_c, 1, 71, 0
3, 384240, Note_on_c, 1, 71, 64
3, 384476, Note_on_c, 1, 71, 0
3, 384480, Note_on_c, 1, 71, 64
3, 384716, Note_on_c, 1, 71, 0
3, 384720, Note_on_c, 1, 69, 64
3, 384956, Note_on_c, 1, 69, 0
3, 384960, Note_on_c, 1, 68, 64
3, 385196, Note_on_c, 1, 68, 0
3, 385200, Note_on_c, 1, 69, 64
3, 385676, Note_on_c, 1, 69, 0
3, 385920, Note_on_c, 1, 77, 64
3, 386156, Note_on_c, 1, 77, 0
3, 386160, Note_on_c, 1, 77, 64
3, 386396, Note_on_c, 1, 77, 0
3, 386400, Note_on_c, 1, 77, 64
3, 386636, Note_on_c, 1, 77, 0
3, 386640, Note_on_c, 1, 77, 64
3, 386756, Note_on_c, 1, 77, 0
3, 386760, Note_on_c, 1, 67, 64
3, 386876, Note_on_c, 1, 67, 0
3, 386880, Note_on_c, 1, 71, 64
3, 386996, Note_on_c, 1, 71, 0
3, 387000, Note_on_c, 1, 74, 64
3, 387116, Note_on_c, 1, 74, 0
3, 387120, Note_on_c, 1, 71, 64
3, 387236, Note_on_c, 1, 71, 0
3, 387240, Note_on_c, 1, 67, 64
3, 387356, Note_on_c, 1, 67, 0
3, 387360, Note_on_c, 1, 76, 64
3, 387596, Note_on_c, 1, 76, 0
3, 387600, Note_on_c, 1, 76, 64
3, 387836, Note_on_c, 1, 76, 0
3, 387840, Note_on_c, 1, 76, 64
3, 388076, Note_on_c, 1, 76, 0
3, 388080, Note_on_c, 1, 76, 64
3, 388196, Note_on_c, 1, 76, 0
3, 388200, Note_on_c, 1, 65, 64
3, 388316, Note_on_c, 1, 65, 0
3, 388320, Note_on_c, 1, 69, 64
3, 388436, Note_on_c, 1, 69, 0
3, 388440, Note_on_c, 1, 72, 64
3, 388556, Note_on_c, 1, 72, 0
3, 388560, Note_on_c, 1, 69, 64
3, 388676, Note_on_c, 1, 69, 0
3, 388680, Note_on_c, 1, 65, 64
3, 388796, Note_on_c, 1, 65, 0
3, 388800, Note_on_c, 1, 79, 64
3, 389036, Note_on_c, 1, 79, 0
3, 389040, Note_on_c, 1, 79, 64
3, 389276, Note_on_c, 1, 79, 0
3, 389280, Note_on_c, 1, 79, 64
3, 389516, Note_on_c, 1, 79, 0
3, 389520, Note_on_c, 1, 79, 64
3, 389756, Note_on_c, 1, 79, 0
3, 389760, Note_on_c, 1, 79, 64
3, 389996, Note_on_c, 1, 79, 0
3, 390000, Note_on_c, 1, 79, 64
3, 390236, Note_on_c, 1, 79, 0
3, 390240, Note_on_c, 1, 79, 64
3, 390476, Note_on_c, 1, 79, 0
3, 390480, Note_on_c, 1, 79, 64
3, 390716, Note_on_c, 1, 79, 0
3, 390720, Note_on_c, 1, 79, 64
3, 390956, Note_on_c, 1, 79, 0
3, 390960, Note_on_c, 1, 79, 64
3, 391196, Note_on_c, 1, 79, 0
3, 391200, Note_on_c, 1, 79, 64
3, 391436, Note_on_c, 1, 79, 0
3, 391440, Note_on_c, 1, 79, 64
3, 391676, Note_on_c, 1, 79, 0
3, 391680, Note_on_c, 1, 79, 64
3, 391916, Note_on_c, 1, 79, 0
3, 391920, Note_on_c, 1, 79, 64
3, 392156, Note_on_c, 1, 79, 0
3, 392160, Note_on_c, 1, 79, 64
3, 392396, Note_on_c, 1, 79, 0
3, 392400, Note_on_c, 1, 79, 64
3, 392636, Note_on_c, 1, 79, 0
3, 392640, Note_on_c, 1, 79, 64
3, 392876, Note_on_c, 1, 79, 0
3, 392880, Note_on_c, 1, 79, 64
3, 393116, Note_on_c, 1, 79, 0
3, 393120, Note_on_c, 1, 79, 64
3, 393356, Note_on_c, 1, 79, 0
3, 393360, Note_on_c, 1, 79, 64
3, 393596, Note_on_c, 1, 79, 0
3, 393600, Note_on_c, 1, 79, 64
3, 393836, Note_on_c, 1, 79, 0
3, 393840, Note_on_c, 1, 79, 64
3, 394076, Note_on_c, 1, 79, 0
3, 394080, Note_on_c, 1, 79, 64
3, 394316, Note_on_c, 1, 79, 0
3, 394320, Note_on_c, 1, 79, 64
3, 394556, Note_on_c, 1, 79, 0
3, 394560, Note_on_c, 1, 69, 64
3, 394676, Note_on_c, 1, 69, 0
3, 394680, Note_on_c, 1, 72, 64
3, 394796, Note_on_c, 1, 72, 0
3, 394800, Note_on_c, 1, 63, 64
3, 394916, Note_on_c, 1, 63, 0
3, 394920, Note_on_c, 1, 72, 64
3, 395036, Note_on_c, 1, 72, 0
3, 395040, Note_on_c, 1, 69, 64
3, 395156, Note_on_c, 1, 69, 0
3, 395160, Note_on_c, 1, 67, 64
3, 395276, Note_on_c, 1, 67, 0
3, 395280, Note_on_c, 1, 69, 64
3, 395396, Note_on_c, 1, 69, 0
3, 395400, Note_on_c, 1, 72, 64
3, 395516, Note_on_c, 1, 72, 0
3, 395520, Note_on_c, 1, 63, 64
3, 395636, Note_on_c, 1, 63, 0
3, 395640, Note_on_c, 1, 72, 64
3, 395756, Note_on_c, 1, 72, 0
3, 395760, Note_on_c, 1, 69, 64
3, 395876, Note_on_c, 1, 69, 0
3, 395880, Note_on_c, 1, 72, 64
3, 395996, Note_on_c, 1, 72, 0
3, 396000, Note_on_c, 1, 62, 64
3, 396236, Note_on_c, 1, 62, 0
3, 396240, Note_on_c, 1, 67, 64
3, 396476, Note_on_c, 1, 67, 0
3, 396480, Note_on_c, 1, 71, 64
3, 396716, Note_on_c, 1, 71, 0
3, 396720, Note_on_c, 1, 67, 64
3, 396956, Note_on_c, 1, 67, 0
3, 396960, Note_on_c, 1, 71, 64
3, 397196, Note_on_c, 1, 71, 0
3, 397200, Note_on_c, 1, 74, 64
3, 397436, Note_on_c, 1, 74, 0
3, 397440, Note_on_c, 1, 60, 64
3, 397676, Note_on_c, 1, 60, 0
3, 397680, Note_on_c, 1, 60, 64
3, 397916, Note_on_c, 1, 60, 0
3, 397920, Note_on_c, 1, 60, 64
3, 398156, Note_on_c, 1, 60, 0
3, 398160, Note_on_c, 1, 60, 64
3, 398396, Note_on_c, 1, 60, 0
3, 398400, Note_on_c, 1, 60, 64
3, 398636, Note_on_c, 1, 60, 0
3, 398640, Note_on_c, 1, 60, 64
3, 398876, Note_on_c, 1, 60, 0
3, 398880, Note_on_c, 1, 60, 64
3, 399116, Note_on_c, 1, 60, 0
3, 399120, Note_on_c, 1, 60, 64
3, 399356, Note_on_c, 1, 60, 0
3, 399360, Note_on_c, 1, 60, 64
3, 399596, Note_on_c, 1, 60, 0
3, 399600, Note_on_c, 1, 60, 64
3, 399836, Note_on_c, 1, 60, 0
3, 399840, Note_on_c, 1, 60, 64
3, 400076, Note_on_c, 1, 60, 0
3, 400080, Note_on_c, 1, 60, 64
3, 400316, Note_on_c, 1, 60, 0
3, 400320, Note_on_c, 1, 60, 64
3, 400556, Note_on_c, 1, 60, 0
3, 400560, Note_on_c, 1, 60, 64
3, 400796, Note_on_c, 1, 60, 0
3, 400800, Note_on_c, 1, 60, 64
3, 401036, Note_on_c, 1, 60, 0
3, 401040, Note_on_c, 1, 60, 64
3, 401276, Note_on_c, 1, 60, 0
3, 401280, Note_on_c, 1, 60, 64
3, 401516, Note_on_c, 1, 60, 0
3, 401520, Note_on_c, 1, 60, 64
3, 401756, Note_on_c, 1, 60, 0
3, 401760, Note_on_c, 1, 64, 64
3, 401996, Note_on_c, 1, 64, 0
3, 402000, Note_on_c, 1, 67, 64
3, 402236, Note_on_c, 1, 67, 0
3, 402240, Note_on_c, 1, 62, 64
3, 402476, Note_on_c, 1, 62, 0
3, 402480, Note_on_c, 1, 64, 64
3, 402716, Note_on_c, 1, 64, 0
3, 402720, Note_on_c, 1, 60, 64
3, 402956, Note_on_c, 1, 60, 0
3, 402960, Note_on_c, 1, 55, 64
3, 403196, Note_on_c, 1, 55, 0
3, 403200, Note_on_c, 1, 60, 64
3, 403436, Note_on_c, 1, 60, 0
3, 403440, Note_on_c, 1, 64, 64
3, 403676, Note_on_c, 1, 64, 0
3, 403680, Note_on_c, 1, 67, 64
3, 403916, Note_on_c, 1, 67, 0
3, 403920, Note_on_c, 1, 59, 64
3, 404156, Note_on_c, 1, 59, 0
3, 404160, Note_on_c, 1, 62, 64
3, 404396, Note_on_c, 1, 62, 0
3, 404400, Note_on_c, 1, 67, 64
3, 404636, Note_on_c, 1, 67, 0
3, 404640, Note_on_c, 1, 60, 64
3, 404876, Note_on_c, 1, 60, 0
3, 404880, Note_on_c, 1, 64, 64
3, 405116, Note_on_c, 1, 64, 0
3, 405120, Note_on_c, 1, 67, 64
3, 405356, Note_on_c, 1, 67, 0
3, 405360, Note_on_c, 1, 55, 64
3, 405596, Note_on_c, 1, 55, 0
3, 405600, Note_on_c, 1, 62, 64
3, 405836, Note_on_c, 1, 62, 0
3, 405840, Note_on_c, 1, 67, 64
3, 406076, Note_on_c, 1, 67, 0
3, 406080, Note_on_c, 1, 60, 64
3, 406196, Note_on_c, 1, 60, 0
3, 406200, Note_on_c, 1, 59, 64
3, 406316, Note_on_c, 1, 59, 0
3, 406320, Note_on_c, 1, 60, 64
3, 406436, Note_on_c, 1, 60, 0
3, 406440, Note_on_c, 1, 62, 64
3, 406556, Note_on_c, 1, 62, 0
3, 406560, Note_on_c, 1, 64, 64
3, 406676, Note_on_c, 1, 64, 0
3, 406680, Note_on_c, 1, 65, 64
3, 406796, Note_on_c, 1, 65, 0
3, 406800, Note_on_c, 1, 67, 64
3, 406916, Note_on_c, 1, 67, 0
3, 406920, Note_on_c, 1, 69, 64
3, 407036, Note_on_c, 1, 69, 0
3, 407040, Note_on_c, 1, 67, 64
3, 407156, Note_on_c, 1, 67, 0
3, 407160, Note_on_c, 1, 65, 64
3, 407276, Note_on_c, 1, 65, 0
3, 407280, Note_on_c, 1, 64, 64
3, 407396, Note_on_c, 1, 64, 0
3, 407400, Note_on_c, 1, 62, 64
3, 407516, Note_on_c, 1, 62, 0
3, 407520, Note_on_c, 1, 60, 64
3, 407756, Note_on_c, 1, 60, 0
3, 407760, Note_on_c, 1, 64, 64
3, 407996, Note_on_c, 1, 64, 0
3, 408000, Note_on_c, 1, 67, 64
3, 408236, Note_on_c, 1, 67, 0
3, 408240, Note_on_c, 1, 74, 64
3, 408476, Note_on_c, 1, 74, 0
3, 408480, Note_on_c, 1, 77, 64
3, 408716, Note_on_c, 1, 77, 0
3, 408720, Note_on_c, 1, 67, 64
3, 408956, Note_on_c, 1, 67, 0
3, 408960, Note_on_c, 1, 76, 64
3, 409196, Note_on_c, 1, 76, 0
3, 409200, Note_on_c, 1, 76, 64
3, 409436, Note_on_c, 1, 76, 0
3, 409440, Note_on_c, 1, 76, 64
3, 409676, Note_on_c, 1, 76, 0
3, 409680, Note_on_c, 1, 76, 64
3, 409916, Note_on_c, 1, 76, 0
3, 409920, Note_on_c, 1, 76, 64
3, 410156, Note_on_c, 1, 76, 0
3, 410160, Note_on_c, 1, 76, 64
3, 410396, Note_on_c, 1, 76, 0
3, 410400, Note_on_c, 1, 74, 64
3, 410636, Note_on_c, 1, 74, 0
3, 410640, Note_on_c, 1, 74, 64
3, 410876, Note_on_c, 1, 74, 0
3, 410880, Note_on_c, 1, 74, 64
3, 411116, Note_on_c, 1, 74, 0
3, 411120, Note_on_c, 1, 74, 64
3, 411356, Note_on_c, 1, 74, 0
3, 411360, Note_on_c, 1, 74, 64
3, 411596, Note_on_c, 1, 74, 0
3, 411600, Note_on_c, 1, 74, 64
3, 411836, Note_on_c, 1, 74, 0
3, 411840, Note_on_c, 1, 72, 64
3, 412076, Note_on_c, 1, 72, 0
3, 412080, Note_on_c, 1, 72, 64
3, 412316, Note_on_c, 1, 72, 0
3, 412320, Note_on_c, 1, 72, 64
3, 412556, Note_on_c, 1, 72, 0
3, 412560, Note_on_c, 1, 72, 64
3, 412796, Note_on_c, 1, 72, 0
3, 412800, Note_on_c, 1, 72, 64
3, 413036, Note_on_c, 1, 72, 0
3, 413040, Note_on_c, 1, 72, 64
3, 413276, Note_on_c, 1, 72, 0
3, 413280, Note_on_c, 1, 71, 64
3, 413516, Note_on_c, 1, 71, 0
3, 413520, Note_on_c, 1, 74, 64
3, 413756, Note_on_c, 1, 74, 0
3, 413760, Note_on_c, 1, 79, 64
3, 413996, Note_on_c, 1, 79, 0
3, 414000, Note_on_c, 1, 69, 64
3, 414236, Note_on_c, 1, 69, 0
3, 414240, Note_on_c, 1, 72, 64
3, 414476, Note_on_c, 1, 72, 0
3, 414480, Note_on_c, 1, 78, 64
3, 414716, Note_on_c, 1, 78, 0
3, 414720, Note_on_c, 1, 67, 64
3, 414836, Note_on_c, 1, 67, 0
3, 414840, Note_on_c, 1, 66, 64
3, 414956, Note_on_c, 1, 66, 0
3, 414960, Note_on_c, 1, 67, 64
3, 415076, Note_on_c, 1, 67, 0
3, 415080, Note_on_c, 1, 69, 64
3, 415196, Note_on_c, 1, 69, 0
3, 415200, Note_on_c, 1, 71, 64
3, 415316, Note_on_c, 1, 71, 0
3, 415320, Note_on_c, 1, 72, 64
3, 415436, Note_on_c, 1, 72, 0
3, 415440, Note_on_c, 1, 74, 64
3, 415556, Note_on_c, 1, 74, 0
3, 415560, Note_on_c, 1, 76, 64
3, 415676, Note_on_c, 1, 76, 0
3, 415680, Note_on_c, 1, 74, 64
3, 415796, Note_on_c, 1, 74, 0
3, 415800, Note_on_c, 1, 72, 64
3, 415916, Note_on_c, 1, 72, 0
3, 415920, Note_on_c, 1, 71, 64
3, 416036, Note_on_c, 1, 71, 0
3, 416040, Note_on_c, 1, 69, 64
3, 416156, Note_on_c, 1, 69, 0
3, 416160, Note_on_c, 1, 71, 64
3, 416396, Note_on_c, 1, 71, 0
3, 416400, Note_on_c, 1, 74, 64
3, 416636, Note_on_c, 1, 74, 0
3, 416640, Note_on_c, 1, 79, 64
3, 416876, Note_on_c, 1, 79, 0
3, 416880, Note_on_c, 1, 78, 64
3, 416996, Note_on_c, 1, 78, 0
3, 417000, Note_on_c, 1, 79, 64
3, 417116, Note_on_c, 1, 79, 0
3, 417120, Note_on_c, 1, 78, 64
3, 417236, Note_on_c, 1, 78, 0
3, 417240, Note_on_c, 1, 76, 64
3, 417356, Note_on_c, 1, 76, 0
3, 417360, Note_on_c, 1, 74, 64
3, 417476, Note_on_c, 1, 74, 0
3, 417480, Note_on_c, 1, 72, 64
3, 417596, Note_on_c, 1, 72, 0
3, 417600, Note_on_c, 1, 71, 64
3, 417836, Note_on_c, 1, 71, 0
3, 417840, Note_on_c, 1, 67, 64
3, 418076, Note_on_c, 1, 67, 0
3, 418080, Note_on_c, 1, 74, 64
3, 418316, Note_on_c, 1, 74, 0
3, 418320, Note_on_c, 1, 74, 64
3, 418556, Note_on_c, 1, 74, 0
3, 418560, Note_on_c, 1, 74, 64
3, 418796, Note_on_c, 1, 74, 0
3, 418800, Note_on_c, 1, 74, 64
3, 419036, Note_on_c, 1, 74, 0
3, 419040, Note_on_c, 1, 74, 64
3, 419276, Note_on_c, 1, 74, 0
3, 419280, Note_on_c, 1, 79, 64
3, 419516, Note_on_c, 1, 79, 0
3, 419520, Note_on_c, 1, 74, 64
3, 419756, Note_on_c, 1, 74, 0
3, 419760, Note_on_c, 1, 76, 64
3, 419876, Note_on_c, 1, 76, 0
3, 419880, Note_on_c, 1, 78, 64
3, 419996, Note_on_c, 1, 78, 0
3, 420000, Note_on_c, 1, 76, 64
3, 420116, Note_on_c, 1, 76, 0
3, 420120, Note_on_c, 1, 74, 64
3, 420236, Note_on_c, 1, 74, 0
3, 420240, Note_on_c, 1, 72, 64
3, 420356, Note_on_c, 1, 72, 0
3, 420360, Note_on_c, 1, 71, 64
3, 420476, Note_on_c, 1, 71, 0
3, 420480, Note_on_c, 1, 69, 64
3, 420716, Note_on_c, 1, 69, 0
3, 420720, Note_on_c, 1, 78, 64
3, 420956, Note_on_c, 1, 78, 0
3, 420960, Note_on_c, 1, 69, 64
3, 421196, Note_on_c, 1, 69, 0
3, 421200, Note_on_c, 1, 74, 64
3, 421316, Note_on_c, 1, 74, 0
3, 421320, Note_on_c, 1, 76, 64
3, 421436, Note_on_c, 1, 76, 0
3, 421440, Note_on_c, 1, 74, 64
3, 421556, Note_on_c, 1, 74, 0
3, 421560, Note_on_c, 1, 72, 64
3, 421676, Note_on_c, 1, 72, 0
3, 421680, Note_on_c, 1, 71, 64
3, 421796, Note_on_c, 1, 71, 0
3, 421800, Note_on_c, 1, 69, 64
3, 421916, Note_on_c, 1, 69, 0
3, 421920, Note_on_c, 1, 71, 64
3, 422156, Note_on_c, 1, 71, 0
3, 422160, Note_on_c, 1, 76, 64
3, 422396, Note_on_c, 1, 76, 0
3, 422400, Note_on_c, 1, 71, 64
3, 422636, Note_on_c, 1, 71, 0
3, 422640, Note_on_c, 1, 72, 64
3, 422756, Note_on_c, 1, 72, 0
3, 422760, Note_on_c, 1, 74, 64
3, 422876, Note_on_c, 1, 74, 0
3, 422880, Note_on_c, 1, 72, 64
3, 422996, Note_on_c, 1, 72, 0
3, 423000, Note_on_c, 1, 71, 64
3, 423116, Note_on_c, 1, 71, 0
3, 423120, Note_on_c, 1, 69, 64
3, 423236, Note_on_c, 1, 69, 0
3, 423240, Note_on_c, 1, 67, 64
3, 423356, Note_on_c, 1, 67, 0
3, 423360, Note_on_c, 1, 69, 64
3, 423596, Note_on_c, 1, 69, 0
3, 423600, Note_on_c, 1, 66, 64
3, 423836, Note_on_c, 1, 66, 0
3, 423840, Note_on_c, 1, 62, 64
3, 424076, Note_on_c, 1, 62, 0
3, 424080, Note_on_c, 1, 71, 64
3, 424316, Note_on_c, 1, 71, 0
3, 424320, Note_on_c, 1, 67, 64
3, 424556, Note_on_c, 1, 67, 0
3, 424560, Note_on_c, 1, 62, 64
3, 424796, Note_on_c, 1, 62, 0
3, 424800, Note_on_c, 1, 69, 64
3, 425036, Note_on_c, 1, 69, 0
3, 425040, Note_on_c, 1, 66, 64
3, 425276, Note_on_c, 1, 66, 0
3, 425280, Note_on_c, 1, 62, 64
3, 425516, Note_on_c, 1, 62, 0
3, 425520, Note_on_c, 1, 67, 64
3, 425756, Note_on_c, 1, 67, 0
3, 425760, Note_on_c, 1, 62, 64
3, 425996, Note_on_c, 1, 62, 0
3, 426000, Note_on_c, 1, 59, 64
3, 426236, Note_on_c, 1, 59, 0
3, 426240, Note_on_c, 1, 66, 64
3, 426716, Note_on_c, 1, 66, 0
3, 426720, Note_on_c, 1, 74, 64
3, 426956, Note_on_c, 1, 74, 0
3, 426960, Note_on_c, 1, 67, 64
3, 427436, Note_on_c, 1, 67, 0
3, 427440, Note_on_c, 1, 74, 64
3, 427676, Note_on_c, 1, 74, 0
3, 427680, Note_on_c, 1, 74, 64
3, 427796, Note_on_c, 1, 74, 0
3, 427800, Note_on_c, 1, 78, 64
3, 427916, Note_on_c, 1, 78, 0
3, 427920, Note_on_c, 1, 69, 64
3, 428036, Note_on_c, 1, 69, 0
3, 428040, Note_on_c, 1, 78, 64
3, 428156, Note_on_c, 1, 78, 0
3, 428160, Note_on_c, 1, 74, 64
3, 428276, Note_on_c, 1, 74, 0
3, 428280, Note_on_c, 1, 78, 64
3, 428396, Note_on_c, 1, 78, 0
3, 428400, Note_on_c, 1, 74, 64
3, 428516, Note_on_c, 1, 74, 0
3, 428520, Note_on_c, 1, 79, 64
3, 428636, Note_on_c, 1, 79, 0
3, 428640, Note_on_c, 1, 71, 64
3, 428756, Note_on_c, 1, 71, 0
3, 428760, Note_on_c, 1, 79, 64
3, 428876, Note_on_c, 1, 79, 0
3, 428880, Note_on_c, 1, 74, 64
3, 428996, Note_on_c, 1, 74, 0
3, 429000, Note_on_c, 1, 79, 64
3, 429116, Note_on_c, 1, 79, 0
3, 429120, Note_on_c, 1, 74, 64
3, 429356, Note_on_c, 1, 74, 0
3, 429360, Note_on_c, 1, 62, 64
3, 429596, Note_on_c, 1, 62, 0
3, 429600, Note_on_c, 1, 62, 64
3, 429836, Note_on_c, 1, 62, 0
3, 429840, Note_on_c, 1, 62, 64
3, 430076, Note_on_c, 1, 62, 0
3, 430080, Note_on_c, 1, 62, 64
3, 430316, Note_on_c, 1, 62, 0
3, 430320, Note_on_c, 1, 62, 64
3, 430556, Note_on_c, 1, 62, 0
3, 430560, Note_on_c, 1, 71, 64
3, 430676, Note_on_c, 1, 71, 0
3, 430680, Note_on_c, 1, 74, 64
3, 430796, Note_on_c, 1, 74, 0
3, 430800, Note_on_c, 1, 67, 64
3, 430916, Note_on_c, 1, 67, 0
3, 430920, Note_on_c, 1, 74, 64
3, 431036, Note_on_c, 1, 74, 0
3, 431040, Note_on_c, 1, 71, 64
3, 431156, Note_on_c, 1, 71, 0
3, 431160, Note_on_c, 1, 74, 64
3, 431276, Note_on_c, 1, 74, 0
3, 431280, Note_on_c, 1, 71, 64
3, 431396, Note_on_c, 1, 71, 0
3, 431400, Note_on_c, 1, 74, 64
3, 431516, Note_on_c, 1, 74, 0
3, 431520, Note_on_c, 1, 67, 64
3, 431636, Note_on_c, 1, 67, 0
3, 431640, Note_on_c, 1, 74, 64
3, 431756, Note_on_c, 1, 74, 0
3, 431760, Note_on_c, 1, 71, 64
3, 431876, Note_on_c, 1, 71, 0
3, 431880, Note_on_c, 1, 74, 64
3, 431996, Note_on_c, 1, 74, 0
3, 432000, Note_on_c, 1, 60, 64
3, 432236, Note_on_c, 1, 60, 0
3, 432240, Note_on_c, 1, 64, 64
3, 432476, Note_on_c, 1, 64, 0
3, 432480, Note_on_c, 1, 67, 64
3, 432716, Note_on_c, 1, 67, 0
3, 432720, Note_on_c, 1, 64, 64
3, 432956, Note_on_c, 1, 64, 0
3, 432960, Note_on_c, 1, 67, 64
3, 433196, Note_on_c, 1, 67, 0
3, 433200, Note_on_c, 1, 72, 64
3, 433436, Note_on_c, 1, 72, 0
3, 433440, Note_on_c, 1, 66, 64
3, 433676, Note_on_c, 1, 66, 0
3, 433680, Note_on_c, 1, 69, 64
3, 433916, Note_on_c, 1, 69, 0
3, 433920, Note_on_c, 1, 74, 64
3, 434156, Note_on_c, 1, 74, 0
3, 434160, Note_on_c, 1, 69, 64
3, 434396, Note_on_c, 1, 69, 0
3, 434400, Note_on_c, 1, 74, 64
3, 434636, Note_on_c, 1, 74, 0
3, 434640, Note_on_c, 1, 78, 64
3, 434876, Note_on_c, 1, 78, 0
3, 434880, Note_on_c, 1, 79, 64
3, 435116, Note_on_c, 1, 79, 0
3, 435120, Note_on_c, 1, 67, 64
3, 435236, Note_on_c, 1, 67, 0
3, 435240, Note_on_c, 1, 69, 64
3, 435356, Note_on_c, 1, 69, 0
3, 435360, Note_on_c, 1, 71, 64
3, 435596, Note_on_c, 1, 71, 0
3, 435600, Note_on_c, 1, 62, 64
3, 435836, Note_on_c, 1, 62, 0
3, 435840, Note_on_c, 1, 67, 64
3, 436076, Note_on_c, 1, 67, 0
3, 436080, Note_on_c, 1, 66, 64
3, 436316, Note_on_c, 1, 66, 0
3, 436320, Note_on_c, 1, 67, 64
3, 436556, Note_on_c, 1, 67, 0
3, 436560, Note_on_c, 1, 71, 64
3, 436796, Note_on_c, 1, 71, 0
3, 436800, Note_on_c, 1, 74, 64
3, 437036, Note_on_c, 1, 74, 0
3, 437040, Note_on_c, 1, 79, 64
3, 437756, Note_on_c, 1, 79, 0
3, 437760, Note_on_c, 1, 62, 64
3, 437996, Note_on_c, 1, 62, 0
3, 438000, Note_on_c, 1, 66, 64
3, 438236, Note_on_c, 1, 66, 0
3, 438240, Note_on_c, 1, 69, 64
3, 438476, Note_on_c, 1, 69, 0
3, 438480, Note_on_c, 1, 61, 64
3, 438716, Note_on_c, 1, 61, 0
3, 438720, Note_on_c, 1, 64, 64
3, 438956, Note_on_c, 1, 64, 0
3, 438960, Note_on_c, 1, 69, 64
3, 439196, Note_on_c, 1, 69, 0
3, 439200, Note_on_c, 1, 62, 64
3, 439436, Note_on_c, 1, 62, 0
3, 439440, Note_on_c, 1, 66, 64
3, 439676, Note_on_c, 1, 66, 0
3, 439680, Note_on_c, 1, 69, 64
3, 439916, Note_on_c, 1, 69, 0
3, 439920, Note_on_c, 1, 57, 64
3, 440156, Note_on_c, 1, 57, 0
3, 440160, Note_on_c, 1, 64, 64
3, 440396, Note_on_c, 1, 64, 0
3, 440400, Note_on_c, 1, 69, 64
3, 440636, Note_on_c, 1, 69, 0
3, 440640, Note_on_c, 1, 71, 64
3, 440876, Note_on_c, 1, 71, 0
3, 440880, Note_on_c, 1, 71, 64
3, 441116, Note_on_c, 1, 71, 0
3, 441120, Note_on_c, 1, 71, 64
3, 441356, Note_on_c, 1, 71, 0
3, 441360, Note_on_c, 1, 71, 64
3, 441596, Note_on_c, 1, 71, 0
3, 441600, Note_on_c, 1, 71, 64
3, 441836, Note_on_c, 1, 71, 0
3, 441840, Note_on_c, 1, 71, 64
3, 442076, Note_on_c, 1, 71, 0
3, 442080, Note_on_c, 1, 71, 64
3, 442316, Note_on_c, 1, 71, 0
3, 442320, Note_on_c, 1, 71, 64
3, 442556, Note_on_c, 1, 71, 0
3, 442560, Note_on_c, 1, 71, 64
3, 442796, Note_on_c, 1, 71, 0
3, 442800, Note_on_c, 1, 71, 64
3, 443036, Note_on_c, 1, 71, 0
3, 443040, Note_on_c, 1, 71, 64
3, 443276, Note_on_c, 1, 71, 0
3, 443280, Note_on_c, 1, 71, 64
3, 443516, Note_on_c, 1, 71, 0
3, 443520, Note_on_c, 1, 71, 64
3, 443756, Note_on_c, 1, 71, 0
3, 443760, Note_on_c, 1, 76, 64
3, 443996, Note_on_c, 1, 76, 0
3, 444000, Note_on_c, 1, 79, 64
3, 444236, Note_on_c, 1, 79, 0
3, 444240, Note_on_c, 1, 72, 64
3, 444476, Note_on_c, 1, 72, 0
3, 444480, Note_on_c, 1, 76, 64
3, 444716, Note_on_c, 1, 76, 0
3, 444720, Note_on_c, 1, 79, 64
3, 444956, Note_on_c, 1, 79, 0
3, 444960, Note_on_c, 1, 71, 64
3, 445196, Note_on_c, 1, 71, 0
3, 445200, Note_on_c, 1, 76, 64
3, 445436, Note_on_c, 1, 76, 0
3, 445440, Note_on_c, 1, 79, 64
3, 445676, Note_on_c, 1, 79, 0
3, 445680, Note_on_c, 1, 69, 64
3, 445916, Note_on_c, 1, 69, 0
3, 445920, Note_on_c, 1, 76, 64
3, 446156, Note_on_c, 1, 76, 0
3, 446160, Note_on_c, 1, 79, 64
3, 446396, Note_on_c, 1, 79, 0
3, 446400, Note_on_c, 1, 71, 64
3, 446636, Note_on_c, 1, 71, 0
3, 446640, Note_on_c, 1, 76, 64
3, 446876, Note_on_c, 1, 76, 0
3, 446880, Note_on_c, 1, 79, 64
3, 447116, Note_on_c, 1, 79, 0
3, 447120, Note_on_c, 1, 72, 64
3, 447356, Note_on_c, 1, 72, 0
3, 447360, Note_on_c, 1, 76, 64
3, 447596, Note_on_c, 1, 76, 0
3, 447600, Note_on_c, 1, 79, 64
3, 447836, Note_on_c, 1, 79, 0
3, 447840, Note_on_c, 1, 71, 64
3, 448076, Note_on_c, 1, 71, 0
3, 448080, Note_on_c, 1, 76, 64
3, 448316, Note_on_c, 1, 76, 0
3, 448320, Note_on_c, 1, 75, 64
3, 448556, Note_on_c, 1, 75, 0
3, 448560, Note_on_c, 1, 76, 64
3, 449036, Note_on_c, 1, 76, 0
3, 450720, Note_on_c, 1, 62, 64
3, 450836, Note_on_c, 1, 62, 0
3, 450840, Note_on_c, 1, 61, 64
3, 450956, Note_on_c, 1, 61, 0
3, 450960, Note_on_c, 1, 62, 64
3, 451076, Note_on_c, 1, 62, 0
3, 451080, Note_on_c, 1, 64, 64
3, 451196, Note_on_c, 1, 64, 0
3, 451200, Note_on_c, 1, 66, 64
3, 451316, Note_on_c, 1, 66, 0
3, 451320, Note_on_c, 1, 67, 64
3, 451436, Note_on_c, 1, 67, 0
3, 451440, Note_on_c, 1, 69, 64
3, 451556, Note_on_c, 1, 69, 0
3, 451560, Note_on_c, 1, 71, 64
3, 451676, Note_on_c, 1, 71, 0
3, 451680, Note_on_c, 1, 69, 64
3, 451796, Note_on_c, 1, 69, 0
3, 451800, Note_on_c, 1, 67, 64
3, 451916, Note_on_c, 1, 67, 0
3, 451920, Note_on_c, 1, 66, 64
3, 452036, Note_on_c, 1, 66, 0
3, 452040, Note_on_c, 1, 64, 64
3, 452156, Note_on_c, 1, 64, 0
3, 452160, Note_on_c, 1, 67, 64
3, 452396, Note_on_c, 1, 67, 0
3, 452400, Note_on_c, 1, 71, 64
3, 452636, Note_on_c, 1, 71, 0
3, 452640, Note_on_c, 1, 76, 64
3, 452876, Note_on_c, 1, 76, 0
3, 452880, Note_on_c, 1, 75, 64
3, 452996, Note_on_c, 1, 75, 0
3, 453000, Note_on_c, 1, 76, 64
3, 453116, Note_on_c, 1, 76, 0
3, 453120, Note_on_c, 1, 75, 64
3, 453236, Note_on_c, 1, 75, 0
3, 453240, Note_on_c, 1, 73, 64
3, 453356, Note_on_c, 1, 73, 0
3, 453360, Note_on_c, 1, 71, 64
3, 453476, Note_on_c, 1, 71, 0
3, 453480, Note_on_c, 1, 69, 64
3, 453596, Note_on_c, 1, 69, 0
3, 453600, Note_on_c, 1, 67, 64
3, 453836, Note_on_c, 1, 67, 0
3, 453840, Note_on_c, 1, 64, 64
3, 454076, Note_on_c, 1, 64, 0
3, 454080, Note_on_c, 1, 83, 64
3, 454316, Note_on_c, 1, 83, 0
3, 454320, Note_on_c, 1, 83, 64
3, 454556, Note_on_c, 1, 83, 0
3, 454560, Note_on_c, 1, 83, 64
3, 454796, Note_on_c, 1, 83, 0
3, 454800, Note_on_c, 1, 83, 64
3, 455036, Note_on_c, 1, 83, 0
3, 455040, Note_on_c, 1, 71, 64
3, 455276, Note_on_c, 1, 71, 0
3, 455280, Note_on_c, 1, 76, 64
3, 455516, Note_on_c, 1, 76, 0
3, 455520, Note_on_c, 1, 71, 64
3, 455756, Note_on_c, 1, 71, 0
3, 455760, Note_on_c, 1, 73, 64
3, 455876, Note_on_c, 1, 73, 0
3, 455880, Note_on_c, 1, 74, 64
3, 455996, Note_on_c, 1, 74, 0
3, 456000, Note_on_c, 1, 73, 64
3, 456116, Note_on_c, 1, 73, 0
3, 456120, Note_on_c, 1, 71, 64
3, 456236, Note_on_c, 1, 71, 0
3, 456240, Note_on_c, 1, 69, 64
3, 456356, Note_on_c, 1, 69, 0
3, 456360, Note_on_c, 1, 67, 64
3, 456476, Note_on_c, 1, 67, 0
3, 456480, Note_on_c, 1, 69, 64
3, 456716, Note_on_c, 1, 69, 0
3, 456720, Note_on_c, 1, 74, 64
3, 456956, Note_on_c, 1, 74, 0
3, 456960, Note_on_c, 1, 69, 64
3, 457196, Note_on_c, 1, 69, 0
3, 457200, Note_on_c, 1, 71, 64
3, 457316, Note_on_c, 1, 71, 0
3, 457320, Note_on_c, 1, 73, 64
3, 457436, Note_on_c, 1, 73, 0
3, 457440, Note_on_c, 1, 71, 64
3, 457556, Note_on_c, 1, 71, 0
3, 457560, Note_on_c, 1, 69, 64
3, 457676, Note_on_c, 1, 69, 0
3, 457680, Note_on_c, 1, 67, 64
3, 457796, Note_on_c, 1, 67, 0
3, 457800, Note_on_c, 1, 66, 64
3, 457916, Note_on_c, 1, 66, 0
3, 457920, Note_on_c, 1, 64, 64
3, 458156, Note_on_c, 1, 64, 0
3, 458160, Note_on_c, 1, 73, 64
3, 458396, Note_on_c, 1, 73, 0
3, 458400, Note_on_c, 1, 79, 64
3, 458636, Note_on_c, 1, 79, 0
3, 458640, Note_on_c, 1, 70, 64
3, 458876, Note_on_c, 1, 70, 0
3, 458880, Note_on_c, 1, 73, 64
3, 459116, Note_on_c, 1, 73, 0
3, 459120, Note_on_c, 1, 78, 64
3, 459356, Note_on_c, 1, 78, 0
3, 459360, Note_on_c, 1, 71, 64
3, 459596, Note_on_c, 1, 71, 0
3, 459600, Note_on_c, 1, 74, 64
3, 459836, Note_on_c, 1, 74, 0
3, 459840, Note_on_c, 1, 78, 64
3, 460076, Note_on_c, 1, 78, 0
3, 460080, Note_on_c, 1, 70, 64
3, 460316, Note_on_c, 1, 70, 0
3, 460320, Note_on_c, 1, 73, 64
3, 460556, Note_on_c, 1, 73, 0
3, 460560, Note_on_c, 1, 78, 64
3, 460796, Note_on_c, 1, 78, 0
3, 460800, Note_on_c, 1, 71, 64
3, 461036, Note_on_c, 1, 71, 0
3, 461040, Note_on_c, 1, 74, 64
3, 461276, Note_on_c, 1, 74, 0
3, 461280, Note_on_c, 1, 78, 64
3, 461516, Note_on_c, 1, 78, 0
3, 461520, Note_on_c, 1, 66, 64
3, 461756, Note_on_c, 1, 66, 0
3, 461760, Note_on_c, 1, 73, 64
3, 461996, Note_on_c, 1, 73, 0
3, 462000, Note_on_c, 1, 78, 64
3, 462236, Note_on_c, 1, 78, 0
3, 462240, Note_on_c, 1, 71, 64
3, 462356, Note_on_c, 1, 71, 0
3, 462360, Note_on_c, 1, 70, 64
3, 462476, Note_on_c, 1, 70, 0
3, 462480, Note_on_c, 1, 71, 64
3, 462596, Note_on_c, 1, 71, 0
3, 462600, Note_on_c, 1, 73, 64
3, 462716, Note_on_c, 1, 73, 0
3, 462720, Note_on_c, 1, 74, 64
3, 462836, Note_on_c, 1, 74, 0
3, 462840, Note_on_c, 1, 76, 64
3, 462956, Note_on_c, 1, 76, 0
3, 462960, Note_on_c, 1, 78, 64
3, 463076, Note_on_c, 1, 78, 0
3, 463080, Note_on_c, 1, 79, 64
3, 463196, Note_on_c, 1, 79, 0
3, 463200, Note_on_c, 1, 78, 64
3, 463316, Note_on_c, 1, 78, 0
3, 463320, Note_on_c, 1, 76, 64
3, 463436, Note_on_c, 1, 76, 0
3, 463440, Note_on_c, 1, 74, 64
3, 463556, Note_on_c, 1, 74, 0
3, 463560, Note_on_c, 1, 73, 64
3, 463676, Note_on_c, 1, 73, 0
3, 463680, Note_on_c, 1, 71, 64
3, 463916, Note_on_c, 1, 71, 0
3, 463920, Note_on_c, 1, 74, 64
3, 464156, Note_on_c, 1, 74, 0
3, 464160, Note_on_c, 1, 66, 64
3, 464396, Note_on_c, 1, 66, 0
3, 464400, Note_on_c, 1, 73, 64
3, 464636, Note_on_c, 1, 73, 0
3, 464640, Note_on_c, 1, 76, 64
3, 464876, Note_on_c, 1, 76, 0
3, 464880, Note_on_c, 1, 66, 64
3, 465116, Note_on_c, 1, 66, 0
3, 465120, Note_on_c, 1, 74, 64
3, 465356, Note_on_c, 1, 74, 0
3, 465360, Note_on_c, 1, 74, 64
3, 465596, Note_on_c, 1, 74, 0
3, 465600, Note_on_c, 1, 74, 64
3, 465836, Note_on_c, 1, 74, 0
3, 465840, Note_on_c, 1, 74, 64
3, 466076, Note_on_c, 1, 74, 0
3, 466080, Note_on_c, 1, 74, 64
3, 466316, Note_on_c, 1, 74, 0
3, 466320, Note_on_c, 1, 74, 64
3, 466556, Note_on_c, 1, 74, 0
3, 466560, Note_on_c, 1, 73, 64
3, 466796, Note_on_c, 1, 73, 0
3, 466800, Note_on_c, 1, 73, 64
3, 467036, Note_on_c, 1, 73, 0
3, 467040, Note_on_c, 1, 73, 64
3, 467276, Note_on_c, 1, 73, 0
3, 467280, Note_on_c, 1, 73, 64
3, 467516, Note_on_c, 1, 73, 0
3, 467520, Note_on_c, 1, 73, 64
3, 467756, Note_on_c, 1, 73, 0
3, 467760, Note_on_c, 1, 73, 64
3, 467996, Note_on_c, 1, 73, 0
3, 468000, Note_on_c, 1, 71, 64
3, 468236, Note_on_c, 1, 71, 0
3, 468240, Note_on_c, 1, 71, 64
3, 468476, Note_on_c, 1, 71, 0
3, 468480, Note_on_c, 1, 71, 64
3, 468716, Note_on_c, 1, 71, 0
3, 468720, Note_on_c, 1, 71, 64
3, 468956, Note_on_c, 1, 71, 0
3, 468960, Note_on_c, 1, 71, 64
3, 469196, Note_on_c, 1, 71, 0
3, 469200, Note_on_c, 1, 71, 64
3, 469436, Note_on_c, 1, 71, 0
3, 469440, Note_on_c, 1, 70, 64
3, 469676, Note_on_c, 1, 70, 0
3, 469680, Note_on_c, 1, 73, 64
3, 469916, Note_on_c, 1, 73, 0
3, 469920, Note_on_c, 1, 78, 64
3, 470156, Note_on_c, 1, 78, 0
3, 470160, Note_on_c, 1, 71, 64
3, 470396, Note_on_c, 1, 71, 0
3, 470400, Note_on_c, 1, 74, 64
3, 470636, Note_on_c, 1, 74, 0
3, 470640, Note_on_c, 1, 78, 64
3, 470876, Note_on_c, 1, 78, 0
3, 470880, Note_on_c, 1, 70, 64
3, 470996, Note_on_c, 1, 70, 0
3, 471000, Note_on_c, 1, 73, 64
3, 471116, Note_on_c, 1, 73, 0
3, 471120, Note_on_c, 1, 66, 64
3, 471236, Note_on_c, 1, 66, 0
3, 471240, Note_on_c, 1, 73, 64
3, 471356, Note_on_c, 1, 73, 0
3, 471360, Note_on_c, 1, 70, 64
3, 471476, Note_on_c, 1, 70, 0
3, 471480, Note_on_c, 1, 73, 64
3, 471596, Note_on_c, 1, 73, 0
3, 471600, Note_on_c, 1, 71, 64
3, 471716, Note_on_c, 1, 71, 0
3, 471720, Note_on_c, 1, 74, 64
3, 471836, Note_on_c, 1, 74, 0
3, 471840, Note_on_c, 1, 66, 64
3, 471956, Note_on_c, 1, 66, 0
3, 471960, Note_on_c, 1, 74, 64
3, 472076, Note_on_c, 1, 74, 0
3, 472080, Note_on_c, 1, 71, 64
3, 472196, Note_on_c, 1, 71, 0
3, 472200, Note_on_c, 1, 74, 64
3, 472316, Note_on_c, 1, 74, 0
3, 472320, Note_on_c, 1, 73, 64
3, 472436, Note_on_c, 1, 73, 0
3, 472440, Note_on_c, 1, 76, 64
3, 472556, Note_on_c, 1, 76, 0
3, 472560, Note_on_c, 1, 66, 64
3, 472676, Note_on_c, 1, 66, 0
3, 472680, Note_on_c, 1, 76, 64
3, 472796, Note_on_c, 1, 76, 0
3, 472800, Note_on_c, 1, 73, 64
3, 472916, Note_on_c, 1, 73, 0
3, 472920, Note_on_c, 1, 76, 64
3, 473036, Note_on_c, 1, 76, 0
3, 473040, Note_on_c, 1, 74, 64
3, 473156, Note_on_c, 1, 74, 0
3, 473160, Note_on_c, 1, 78, 64
3, 473276, Note_on_c, 1, 78, 0
3, 473280, Note_on_c, 1, 66, 64
3, 473396, Note_on_c, 1, 66, 0
3, 473400, Note_on_c, 1, 78, 64
3, 473516, Note_on_c, 1, 78, 0
3, 473520, Note_on_c, 1, 74, 64
3, 473636, Note_on_c, 1, 74, 0
3, 473640, Note_on_c, 1, 78, 64
3, 473756, Note_on_c, 1, 78, 0
3, 473760, Note_on_c, 1, 76, 64
3, 473876, Note_on_c, 1, 76, 0
3, 473880, Note_on_c, 1, 70, 64
3, 473996, Note_on_c, 1, 70, 0
3, 474000, Note_on_c, 1, 76, 64
3, 474116, Note_on_c, 1, 76, 0
3, 474120, Note_on_c, 1, 70, 64
3, 474236, Note_on_c, 1, 70, 0
3, 474240, Note_on_c, 1, 76, 64
3, 474356, Note_on_c, 1, 76, 0
3, 474360, Note_on_c, 1, 70, 64
3, 474476, Note_on_c, 1, 70, 0
3, 474480, Note_on_c, 1, 74, 64
3, 474596, Note_on_c, 1, 74, 0
3, 474600, Note_on_c, 1, 71, 64
3, 474716, Note_on_c, 1, 71, 0
3, 474720, Note_on_c, 1, 74, 64
3, 474836, Note_on_c, 1, 74, 0
3, 474840, Note_on_c, 1, 71, 64
3, 474956, Note_on_c, 1, 71, 0
3, 474960, Note_on_c, 1, 74, 64
3, 475076, Note_on_c, 1, 74, 0
3, 475080, Note_on_c, 1, 71, 64
3, 475196, Note_on_c, 1, 71, 0
3, 475200, Note_on_c, 1, 70, 64
3, 475436, Note_on_c, 1, 70, 0
3, 475440, Note_on_c, 1, 66, 64
3, 475676, Note_on_c, 1, 66, 0
3, 475680, Note_on_c, 1, 66, 64
3, 475916, Note_on_c, 1, 66, 0
3, 475920, Note_on_c, 1, 66, 64
3, 476156, Note_on_c, 1, 66, 0
3, 476160, Note_on_c, 1, 66, 64
3, 476396, Note_on_c, 1, 66, 0
3, 476400, Note_on_c, 1, 66, 64
3, 476636, Note_on_c, 1, 66, 0
3, 476640, Note_on_c, 1, 78, 64
3, 476756, Note_on_c, 1, 78, 0
3, 476760, Note_on_c, 1, 81, 64
3, 476876, Note_on_c, 1, 81, 0
3, 476880, Note_on_c, 1, 71, 64
3, 476996, Note_on_c, 1, 71, 0
3, 477000, Note_on_c, 1, 81, 64
3, 477116, Note_on_c, 1, 81, 0
3, 477120, Note_on_c, 1, 78, 64
3, 477236, Note_on_c, 1, 78, 0
3, 477240, Note_on_c, 1, 81, 64
3, 477356, Note_on_c, 1, 81, 0
3, 477360, Note_on_c, 1, 78, 64
3, 477476, Note_on_c, 1, 78, 0
3, 477480, Note_on_c, 1, 81, 64
3, 477596, Note_on_c, 1, 81, 0
3, 477600, Note_on_c, 1, 71, 64
3, 477716, Note_on_c, 1, 71, 0
3, 477720, Note_on_c, 1, 81, 64
3, 477836, Note_on_c, 1, 81, 0
3, 477840, Note_on_c, 1, 78, 64
3, 477956, Note_on_c, 1, 78, 0
3, 477960, Note_on_c, 1, 81, 64
3, 478076, Note_on_c, 1, 81, 0
3, 478080, Note_on_c, 1, 64, 64
3, 478316, Note_on_c, 1, 64, 0
3, 478320, Note_on_c, 1, 67, 64
3, 478556, Note_on_c, 1, 67, 0
3, 478560, Note_on_c, 1, 71, 64
3, 478796, Note_on_c, 1, 71, 0
3, 478800, Note_on_c, 1, 67, 64
3, 479036, Note_on_c, 1, 67, 0
3, 479040, Note_on_c, 1, 71, 64
3, 479276, Note_on_c, 1, 71, 0
3, 479280, Note_on_c, 1, 76, 64
3, 479516, Note_on_c, 1, 76, 0
3, 479520, Note_on_c, 1, 70, 64
3, 479756, Note_on_c, 1, 70, 0
3, 479760, Note_on_c, 1, 73, 64
3, 479996, Note_on_c, 1, 73, 0
3, 480000, Note_on_c, 1, 78, 64
3, 480236, Note_on_c, 1, 78, 0
3, 480240, Note_on_c, 1, 73, 64
3, 480476, Note_on_c, 1, 73, 0
3, 480480, Note_on_c, 1, 78, 64
3, 480716, Note_on_c, 1, 78, 0
3, 480720, Note_on_c, 1, 82, 64
3, 480956, Note_on_c, 1, 82, 0
3, 480960, Note_on_c, 1, 83, 64
3, 481196, Note_on_c, 1, 83, 0
3, 481200, Note_on_c, 1, 71, 64
3, 481316, Note_on_c, 1, 71, 0
3, 481320, Note_on_c, 1, 73, 64
3, 481436, Note_on_c, 1, 73, 0
3, 481440, Note_on_c, 1, 74, 64
3, 481676, Note_on_c, 1, 74, 0
3, 481680, Note_on_c, 1, 66, 64
3, 481916, Note_on_c, 1, 66, 0
3, 481920, Note_on_c, 1, 71, 64
3, 482156, Note_on_c, 1, 71, 0
3, 482160, Note_on_c, 1, 70, 64
3, 482396, Note_on_c, 1, 70, 0
3, 482400, Note_on_c, 1, 71, 64
3, 483116, Note_on_c, 1, 71, 0
3, 483120, Note_on_c, 1, 59, 64
3, 483836, Note_on_c, 1, 59, 0
3, 483840, Note_on_c, 1, 69, 64
3, 484076, Note_on_c, 1, 69, 0
3, 484080, Note_on_c, 1, 69, 64
3, 484316, Note_on_c, 1, 69, 0
3, 484320, Note_on_c, 1, 69, 64
3, 484556, Note_on_c, 1, 69, 0
3, 484560, Note_on_c, 1, 69, 64
3, 484796, Note_on_c, 1, 69, 0
3, 484800, Note_on_c, 1, 69, 64
3, 485036, Note_on_c, 1, 69, 0
3, 485040, Note_on_c, 1, 69, 64
3, 485276, Note_on_c, 1, 69, 0
3, 485280, Note_on_c, 1, 69, 64
3, 485396, Note_on_c, 1, 69, 0
3, 485400, Note_on_c, 1, 72, 64
3, 485516, Note_on_c, 1, 72, 0
3, 485520, Note_on_c, 1, 71, 64
3, 485636, Note_on_c, 1, 71, 0
3, 485640, Note_on_c, 1, 69, 64
3, 485756, Note_on_c, 1, 69, 0
3, 485760, Note_on_c, 1, 67, 64
3, 485876, Note_on_c, 1, 67, 0
3, 485880, Note_on_c, 1, 66, 64
3, 485996, Note_on_c, 1, 66, 0
3, 486000, Note_on_c, 1, 67, 64
3, 486236, Note_on_c, 1, 67, 0
3, 486240, Note_on_c, 1, 64, 64
3, 486476, Note_on_c, 1, 64, 0
3, 486480, Note_on_c, 1, 67, 64
3, 486716, Note_on_c, 1, 67, 0
3, 486720, Note_on_c, 1, 71, 64
3, 486956, Note_on_c, 1, 71, 0
3, 486960, Note_on_c, 1, 71, 64
3, 487196, Note_on_c, 1, 71, 0
3, 487200, Note_on_c, 1, 71, 64
3, 487436, Note_on_c, 1, 71, 0
3, 487440, Note_on_c, 1, 71, 64
3, 487676, Note_on_c, 1, 71, 0
3, 487680, Note_on_c, 1, 71, 64
3, 487916, Note_on_c, 1, 71, 0
3, 487920, Note_on_c, 1, 71, 64
3, 488156, Note_on_c, 1, 71, 0
3, 488160, Note_on_c, 1, 71, 64
3, 488396, Note_on_c, 1, 71, 0
3, 488400, Note_on_c, 1, 69, 64
3, 488636, Note_on_c, 1, 69, 0
3, 488640, Note_on_c, 1, 68, 64
3, 488876, Note_on_c, 1, 68, 0
3, 488880, Note_on_c, 1, 69, 64
3, 489356, Note_on_c, 1, 69, 0
3, 489600, Note_on_c, 1, 77, 64
3, 489836, Note_on_c, 1, 77, 0
3, 489840, Note_on_c, 1, 77, 64
3, 490076, Note_on_c, 1, 77, 0
3, 490080, Note_on_c, 1, 77, 64
3, 490316, Note_on_c, 1, 77, 0
3, 490320, Note_on_c, 1, 77, 64
3, 490436, Note_on_c, 1, 77, 0
3, 490440, Note_on_c, 1, 67, 64
3, 490556, Note_on_c, 1, 67, 0
3, 490560, Note_on_c, 1, 71, 64
3, 490676, Note_on_c, 1, 71, 0
3, 490680, Note_on_c, 1, 74, 64
3, 490796, Note_on_c, 1, 74, 0
3, 490800, Note_on_c, 1, 71, 64
3, 490916, Note_on_c, 1, 71, 0
3, 490920, Note_on_c, 1, 67, 64
3, 491036, Note_on_c, 1, 67, 0
3, 491040, Note_on_c, 1, 76, 64
3, 491276, Note_on_c, 1, 76, 0
3, 491280, Note_on_c, 1, 76, 64
3, 491516, Note_on_c, 1, 76, 0
3, 491520, Note_on_c, 1, 76, 64
3, 491756, Note_on_c, 1, 76, 0
3, 491760, Note_on_c, 1, 76, 64
3, 491876, Note_on_c, 1, 76, 0
3, 491880, Note_on_c, 1, 65, 64
3, 491996, Note_on_c, 1, 65, 0
3, 492000, Note_on_c, 1, 69, 64
3, 492116, Note_on_c, 1, 69, 0
3, 492120, Note_on_c, 1, 72, 64
3, 492236, Note_on_c, 1, 72, 0
3, 492240, Note_on_c, 1, 69, 64
3, 492356, Note_on_c, 1, 69, 0
3, 492360, Note_on_c, 1, 65, 64
3, 492476, Note_on_c, 1, 65, 0
3, 492480, Note_on_c, 1, 79, 64
3, 492716, Note_on_c, 1, 79, 0
3, 492720, Note_on_c, 1, 79, 64
3, 492956, Note_on_c, 1, 79, 0
3, 492960, Note_on_c, 1, 79, 64
3, 493196, Note_on_c, 1, 79, 0
3, 493200, Note_on_c, 1, 79, 64
3, 493436, Note_on_c, 1, 79, 0
3, 493440, Note_on_c, 1, 79, 64
3, 493676, Note_on_c, 1, 79, 0
3, 493680, Note_on_c, 1, 79, 64
3, 493916, Note_on_c, 1, 79, 0
3, 493920, Note_on_c, 1, 79, 64
3, 494156, Note_on_c, 1, 79, 0
3, 494160, Note_on_c, 1, 79, 64
3, 494396, Note_on_c, 1, 79, 0
3, 494400, Note_on_c, 1, 79, 64
3, 494636, Note_on_c, 1, 79, 0
3, 494640, Note_on_c, 1, 79, 64
3, 494876, Note_on_c, 1, 79, 0
3, 494880, Note_on_c, 1, 79, 64
3, 495116, Note_on_c, 1, 79, 0
3, 495120, Note_on_c, 1, 79, 64
3, 495356, Note_on_c, 1, 79, 0
3, 495360, Note_on_c, 1, 79, 64
3, 495596, Note_on_c, 1, 79, 0
3, 495600, Note_on_c, 1, 79, 64
3, 495836, Note_on_c, 1, 79, 0
3, 495840, Note_on_c, 1, 79, 64
3, 496076, Note_on_c, 1, 79, 0
3, 496080, Note_on_c, 1, 79, 64
3, 496316, Note_on_c, 1, 79, 0
3, 496320, Note_on_c, 1, 79, 64
3, 496556, Note_on_c, 1, 79, 0
3, 496560, Note_on_c, 1, 79, 64
3, 496796, Note_on_c, 1, 79, 0
3, 496800, Note_on_c, 1, 79, 64
3, 497036, Note_on_c, 1, 79, 0
3, 497040, Note_on_c, 1, 79, 64
3, 497276, Note_on_c, 1, 79, 0
3, 497280, Note_on_c, 1, 79, 64
3, 497516, Note_on_c, 1, 79, 0
3, 497520, Note_on_c, 1, 79, 64
3, 497756, Note_on_c, 1, 79, 0
3, 497760, Note_on_c, 1, 79, 64
3, 497996, Note_on_c, 1, 79, 0
3, 498000, Note_on_c, 1, 79, 64
3, 498236, Note_on_c, 1, 79, 0
3, 498240, Note_on_c, 1, 69, 64
3, 498356, Note_on_c, 1, 69, 0
3, 498360, Note_on_c, 1, 72, 64
3, 498476, Note_on_c, 1, 72, 0
3, 498480, Note_on_c, 1, 63, 64
3, 498596, Note_on_c, 1, 63, 0
3, 498600, Note_on_c, 1, 72, 64
3, 498716, Note_on_c, 1, 72, 0
3, 498720, Note_on_c, 1, 69, 64
3, 498836, Note_on_c, 1, 69, 0
3, 498840, Note_on_c, 1, 67, 64
3, 498956, Note_on_c, 1, 67, 0
3, 498960, Note_on_c, 1, 69, 64
3, 499076, Note_on_c, 1, 69, 0
3, 499080, Note_on_c, 1, 72, 64
3, 499196, Note_on_c, 1, 72, 0
3, 499200, Note_on_c, 1, 63, 64
3, 499316, Note_on_c, 1, 63, 0
3, 499320, Note_on_c, 1, 72, 64
3, 499436, Note_on_c, 1, 72, 0
3, 499440, Note_on_c, 1, 69, 64
3, 499556, Note_on_c, 1, 69, 0
3, 499560, Note_on_c, 1, 72, 64
3, 499676, Note_on_c, 1, 72, 0
3, 499680, Note_on_c, 1, 62, 64
3, 499916, Note_on_c, 1, 62, 0
3, 499920, Note_on_c, 1, 67, 64
3, 500156, Note_on_c, 1, 67, 0
3, 500160, Note_on_c, 1, 71, 64
3, 500396, Note_on_c, 1, 71, 0
3, 500400, Note_on_c, 1, 67, 64
3, 500636, Note_on_c, 1, 67, 0
3, 500640, Note_on_c, 1, 71, 64
3, 500876, Note_on_c, 1, 71, 0
3, 500880, Note_on_c, 1, 74, 64
3, 501116, Note_on_c, 1, 74, 0
3, 501120, Note_on_c, 1, 60, 64
3, 501356, Note_on_c, 1, 60, 0
3, 501360, Note_on_c, 1, 60, 64
3, 501596, Note_on_c, 1, 60, 0
3, 501600, Note_on_c, 1, 60, 64
3, 501836, Note_on_c, 1, 60, 0
3, 501840, Note_on_c, 1, 60, 64
3, 502076, Note_on_c, 1, 60, 0
3, 502080, Note_on_c, 1, 60, 64
3, 502316, Note_on_c, 1, 60, 0
3, 502320, Note_on_c, 1, 60, 64
3, 502556, Note_on_c, 1, 60, 0
3, 502560, Note_on_c, 1, 60, 64
3, 502796, Note_on_c, 1, 60, 0
3, 502800, Note_on_c, 1, 60, 64
3, 503036, Note_on_c, 1, 60, 0
3, 503040, Note_on_c, 1, 60, 64
3, 503276, Note_on_c, 1, 60, 0
3, 503280, Note_on_c, 1, 60, 64
3, 503516, Note_on_c, 1, 60, 0
3, 503520, Note_on_c, 1, 60, 64
3, 503756, Note_on_c, 1, 60, 0
3, 503760, Note_on_c, 1, 60, 64
3, 503996, Note_on_c, 1, 60, 0
3, 504000, Note_on_c, 1, 60, 64
3, 504236, Note_on_c, 1, 60, 0
3, 504240, Note_on_c, 1, 60, 64
3, 504476, Note_on_c, 1, 60, 0
3, 504480, Note_on_c, 1, 60, 64
3, 504716, Note_on_c, 1, 60, 0
3, 504720, Note_on_c, 1, 60, 64
3, 504956, Note_on_c, 1, 60, 0
3, 504960, Note_on_c, 1, 60, 64
3, 505196, Note_on_c, 1, 60, 0
3, 505200, Note_on_c, 1, 60, 64
3, 505436, Note_on_c, 1, 60, 0
3, 505440, Note_on_c, 1, 64, 64
3, 505676, Note_on_c, 1, 64, 0
3, 505680, Note_on_c, 1, 67, 64
3, 505916, Note_on_c, 1, 67, 0
3, 505920, Note_on_c, 1, 62, 64
3, 506156, Note_on_c, 1, 62, 0
3, 506160, Note_on_c, 1, 64, 64
3, 506396, Note_on_c, 1, 64, 0
3, 506400, Note_on_c, 1, 60, 64
3, 506636, Note_on_c, 1, 60, 0
3, 506640, Note_on_c, 1, 55, 64
3, 506876, Note_on_c, 1, 55, 0
3, 506880, Note_on_c, 1, 60, 64
3, 507116, Note_on_c, 1, 60, 0
3, 507120, Note_on_c, 1, 64, 64
3, 507356, Note_on_c, 1, 64, 0
3, 507360, Note_on_c, 1, 67, 64
3, 507596, Note_on_c, 1, 67, 0
3, 507600, Note_on_c, 1, 59, 64
3, 507836, Note_on_c, 1, 59, 0
3, 507840, Note_on_c, 1, 62, 64
3, 508076, Note_on_c, 1, 62, 0
3, 508080, Note_on_c, 1, 67, 64
3, 508316, Note_on_c, 1, 67, 0
3, 508320, Note_on_c, 1, 60, 64
3, 508556, Note_on_c, 1, 60, 0
3, 508560, Note_on_c, 1, 64, 64
3, 508796, Note_on_c, 1, 64, 0
3, 508800, Note_on_c, 1, 67, 64
3, 509036, Note_on_c, 1, 67, 0
3, 509040, Note_on_c, 1, 55, 64
3, 509276, Note_on_c, 1, 55, 0
3, 509280, Note_on_c, 1, 62, 64
3, 509516, Note_on_c, 1, 62, 0
3, 509520, Note_on_c, 1, 67, 64
3, 509756, Note_on_c, 1, 67, 0
3, 509760, Note_on_c, 1, 60, 64
3, 509876, Note_on_c, 1, 60, 0
3, 509880, Note_on_c, 1, 59, 64
3, 509996, Note_on_c, 1, 59, 0
3, 510000, Note_on_c, 1, 60, 64
3, 510116, Note_on_c, 1, 60, 0
3, 510120, Note_on_c, 1, 62, 64
3, 510236, Note_on_c, 1, 62, 0
3, 510240, Note_on_c, 1, 64, 64
3, 510356, Note_on_c, 1, 64, 0
3, 510360, Note_on_c, 1, 65, 64
3, 510476, Note_on_c, 1, 65, 0
3, 510480, Note_on_c, 1, 67, 64
3, 510596, Note_on_c, 1, 67, 0
3, 510600, Note_on_c, 1, 69, 64
3, 510716, Note_on_c, 1, 69, 0
3, 510720, Note_on_c, 1, 67, 64
3, 510836, Note_on_c, 1, 67, 0
3, 510840, Note_on_c, 1, 65, 64
3, 510956, Note_on_c, 1, 65, 0
3, 510960, Note_on_c, 1, 64, 64
3, 511076, Note_on_c, 1, 64, 0
3, 511080, Note_on_c, 1, 62, 64
3, 511196, Note_on_c, 1, 62, 0
3, 511200, Note_on_c, 1, 60, 64
3, 511436, Note_on_c, 1, 60, 0
3, 511440, Note_on_c, 1, 64, 64
3, 511676, Note_on_c, 1, 64, 0
3, 511680, Note_on_c, 1, 67, 64
3, 511916, Note_on_c, 1, 67, 0
3, 511920, Note_on_c, 1, 74, 64
3, 512156, Note_on_c, 1, 74, 0
3, 512160, Note_on_c, 1, 77, 64
3, 512396, Note_on_c, 1, 77, 0
3, 512400, Note_on_c, 1, 67, 64
3, 512636, Note_on_c, 1, 67, 0
3, 512640, Note_on_c, 1, 76, 64
3, 512876, Note_on_c, 1, 76, 0
3, 512880, Note_on_c, 1, 76, 64
3, 513116, Note_on_c, 1, 76, 0
3, 513120, Note_on_c, 1, 76, 64
3, 513356, Note_on_c, 1, 76, 0
3, 513360, Note_on_c, 1, 76, 64
3, 513596, Note_on_c, 1, 76, 0
3, 513600, Note_on_c, 1, 76, 64
3, 513836, Note_on_c, 1, 76, 0
3, 513840, Note_on_c, 1, 76, 64
3, 514076, Note_on_c, 1, 76, 0
3, 514080, Note_on_c, 1, 74, 64
3, 514316, Note_on_c, 1, 74, 0
3, 514320, Note_on_c, 1, 74, 64
3, 514556, Note_on_c, 1, 74, 0
3, 514560, Note_on_c, 1, 74, 64
3, 514796, Note_on_c, 1, 74, 0
3, 514800, Note_on_c, 1, 74, 64
3, 515036, Note_on_c, 1, 74, 0
3, 515040, Note_on_c, 1, 74, 64
3, 515276, Note_on_c, 1, 74, 0
3, 515280, Note_on_c, 1, 74, 64
3, 515516, Note_on_c, 1, 74, 0
3, 515520, Note_on_c, 1, 72, 64
3, 515756, Note_on_c, 1, 72, 0
3, 515760, Note_on_c, 1, 72, 64
3, 515996, Note_on_c, 1, 72, 0
3, 516000, Note_on_c, 1, 72, 64
3, 516236, Note_on_c, 1, 72, 0
3, 516240, Note_on_c, 1, 72, 64
3, 516476, Note_on_c, 1, 72, 0
3, 516480, Note_on_c, 1, 72, 64
3, 516716, Note_on_c, 1, 72, 0
3, 516720, Note_on_c, 1, 72, 64
3, 516956, Note_on_c, 1, 72, 0
3, 516960, Note_on_c, 1, 71, 64
3, 517196, Note_on_c, 1, 71, 0
3, 517200, Note_on_c, 1, 74, 64
3, 517436, Note_on_c, 1, 74, 0
3, 517440, Note_on_c, 1, 79, 64
3, 517676, Note_on_c, 1, 79, 0
3, 517680, Note_on_c, 1, 69, 64
3, 517916, Note_on_c, 1, 69, 0
3, 517920, Note_on_c, 1, 72, 64
3, 518156, Note_on_c, 1, 72, 0
3, 518160, Note_on_c, 1, 78, 64
3, 518396, Note_on_c, 1, 78, 0
3, 518400, Note_on_c, 1, 67, 64
3, 518516, Note_on_c, 1, 67, 0
3, 518520, Note_on_c, 1, 66, 64
3, 518636, Note_on_c, 1, 66, 0
3, 518640, Note_on_c, 1, 67, 64
3, 518756, Note_on_c, 1, 67, 0
3, 518760, Note_on_c, 1, 69, 64
3, 518876, Note_on_c, 1, 69, 0
3, 518880, Note_on_c, 1, 71, 64
3, 518996, Note_on_c, 1, 71, 0
3, 519000, Note_on_c, 1, 72, 64
3, 519116, Note_on_c, 1, 72, 0
3, 519120, Note_on_c, 1, 74, 64
3, 519236, Note_on_c, 1, 74, 0
3, 519240, Note_on_c, 1, 76, 64
3, 519356, Note_on_c, 1, 76, 0
3, 519360, Note_on_c, 1, 74, 64
3, 519476, Note_on_c, 1, 74, 0
3, 519480, Note_on_c, 1, 72, 64
3, 519596, Note_on_c, 1, 72, 0
3, 519600, Note_on_c, 1, 71, 64
3, 519716, Note_on_c, 1, 71, 0
3, 519720, Note_on_c, 1, 69, 64
3, 519836, Note_on_c, 1, 69, 0
3, 519840, Note_on_c, 1, 71, 64
3, 520076, Note_on_c, 1, 71, 0
3, 520080, Note_on_c, 1, 74, 64
3, 520316, Note_on_c, 1, 74, 0
3, 520320, Note_on_c, 1, 79, 64
3, 520556, Note_on_c, 1, 79, 0
3, 520560, Note_on_c, 1, 78, 64
3, 520676, Note_on_c, 1, 78, 0
3, 520680, Note_on_c, 1, 79, 64
3, 520796, Note_on_c, 1, 79, 0
3, 520800, Note_on_c, 1, 78, 64
3, 520916, Note_on_c, 1, 78, 0
3, 520920, Note_on_c, 1, 76, 64
3, 521036, Note_on_c, 1, 76, 0
3, 521040, Note_on_c, 1, 74, 64
3, 521156, Note_on_c, 1, 74, 0
3, 521160, Note_on_c, 1, 72, 64
3, 521276, Note_on_c, 1, 72, 0
3, 521280, Note_on_c, 1, 71, 64
3, 521516, Note_on_c, 1, 71, 0
3, 521520, Note_on_c, 1, 67, 64
3, 521756, Note_on_c, 1, 67, 0
3, 521760, Note_on_c, 1, 74, 64
3, 521996, Note_on_c, 1, 74, 0
3, 522000, Note_on_c, 1, 74, 64
3, 522236, Note_on_c, 1, 74, 0
3, 522240, Note_on_c, 1, 74, 64
3, 522476, Note_on_c, 1, 74, 0
3, 522480, Note_on_c, 1, 74, 64
3, 522716, Note_on_c, 1, 74, 0
3, 522720, Note_on_c, 1, 74, 64
3, 522956, Note_on_c, 1, 74, 0
3, 522960, Note_on_c, 1, 79, 64
3, 523196, Note_on_c, 1, 79, 0
3, 523200, Note_on_c, 1, 74, 64
3, 523436, Note_on_c, 1, 74, 0
3, 523440, Note_on_c, 1, 76, 64
3, 523556, Note_on_c, 1, 76, 0
3, 523560, Note_on_c, 1, 78, 64
3, 523676, Note_on_c, 1, 78, 0
3, 523680, Note_on_c, 1, 76, 64
3, 523796, Note_on_c, 1, 76, 0
3, 523800, Note_on_c, 1, 74, 64
3, 523916, Note_on_c, 1, 74, 0
3, 523920, Note_on_c, 1, 72, 64
3, 524036, Note_on_c, 1, 72, 0
3, 524040, Note_on_c, 1, 71, 64
3, 524156, Note_on_c, 1, 71, 0
3, 524160, Note_on_c, 1, 69, 64
3, 524396, Note_on_c, 1, 69, 0
3, 524400, Note_on_c, 1, 78, 64
3, 524636, Note_on_c, 1, 78, 0
3, 524640, Note_on_c, 1, 69, 64
3, 524876, Note_on_c, 1, 69, 0
3, 524880, Note_on_c, 1, 74, 64
3, 524996, Note_on_c, 1, 74, 0
3, 525000, Note_on_c, 1, 76, 64
3, 525116, Note_on_c, 1, 76, 0
3, 525120, Note_on_c, 1, 74, 64
3, 525236, Note_on_c, 1, 74, 0
3, 525240, Note_on_c, 1, 72, 64
3, 525356, Note_on_c, 1, 72, 0
3, 525360, Note_on_c, 1, 71, 64
3, 525476, Note_on_c, 1, 71, 0
3, 525480, Note_on_c, 1, 69, 64
3, 525596, Note_on_c, 1, 69, 0
3, 525600, Note_on_c, 1, 71, 64
3, 525836, Note_on_c, 1, 71, 0
3, 525840, Note_on_c, 1, 76, 64
3, 526076, Note_on_c, 1, 76, 0
3, 526080, Note_on_c, 1, 71, 64
3, 526316, Note_on_c, 1, 71, 0
3, 526320, Note_on_c, 1, 72, 64
3, 526436, Note_on_c, 1, 72, 0
3, 526440, Note_on_c, 1, 74, 64
3, 526556, Note_on_c, 1, 74, 0
3, 526560, Note_on_c, 1, 72, 64
3, 526676, Note_on_c, 1, 72, 0
3, 526680, Note_on_c, 1, 71, 64
3, 526796, Note_on_c, 1, 71, 0
3, 526800, Note_on_c, 1, 69, 64
3, 526916, Note_on_c, 1, 69, 0
3, 526920, Note_on_c, 1, 67, 64
3, 527036, Note_on_c, 1, 67, 0
3, 527040, Note_on_c, 1, 69, 64
3, 527276, Note_on_c, 1, 69, 0
3, 527280, Note_on_c, 1, 66, 64
3, 527516, Note_on_c, 1, 66, 0
3, 527520, Note_on_c, 1, 62, 64
3, 527756, Note_on_c, 1, 62, 0
3, 527760, Note_on_c, 1, 71, 64
3, 527996, Note_on_c, 1, 71, 0
3, 528000, Note_on_c, 1, 67, 64
3, 528236, Note_on_c, 1, 67, 0
3, 528240, Note_on_c, 1, 62, 64
3, 528476, Note_on_c, 1, 62, 0
3, 528480, Note_on_c, 1, 69, 64
3, 528716, Note_on_c, 1, 69, 0
3, 528720, Note_on_c, 1, 66, 64
3, 528956, Note_on_c, 1, 66, 0
3, 528960, Note_on_c, 1, 62, 64
3, 529196, Note_on_c, 1, 62, 0
3, 529200, Note_on_c, 1, 67, 64
3, 529436, Note_on_c, 1, 67, 0
3, 529440, Note_on_c, 1, 62, 64
3, 529676, Note_on_c, 1, 62, 0
3, 529680, Note_on_c, 1, 59, 64
3, 529916, Note_on_c, 1, 59, 0
3, 529920, Note_on_c, 1, 66, 64
3, 530396, Note_on_c, 1, 66, 0
3, 530400, Note_on_c, 1, 74, 64
3, 530636, Note_on_c, 1, 74, 0
3, 530640, Note_on_c, 1, 67, 64
3, 531116, Note_on_c, 1, 67, 0
3, 531120, Note_on_c, 1, 74, 64
3, 531356, Note_on_c, 1, 74, 0
3, 531360, Note_on_c, 1, 74, 64
3, 531476, Note_on_c, 1, 74, 0
3, 531480, Note_on_c, 1, 78, 64
3, 531596, Note_on_c, 1, 78, 0
3, 531600, Note_on_c, 1, 69, 64
3, 531716, Note_on_c, 1, 69, 0
3, 531720, Note_on_c, 1, 78, 64
3, 531836, Note_on_c, 1, 78, 0
3, 531840, Note_on_c, 1, 74, 64
3, 531956, Note_on_c, 1, 74, 0
3, 531960, Note_on_c, 1, 78, 64
3, 532076, Note_on_c, 1, 78, 0
3, 532080, Note_on_c, 1, 74, 64
3, 532196, Note_on_c, 1, 74, 0
3, 532200, Note_on_c, 1, 79, 64
3, 532316, Note_on_c, 1, 79, 0
3, 532320, Note_on_c, 1, 71, 64
3, 532436, Note_on_c, 1, 71, 0
3, 532440, Note_on_c, 1, 79, 64
3, 532556, Note_on_c, 1, 79, 0
3, 532560, Note_on_c, 1, 74, 64
3, 532676, Note_on_c, 1, 74, 0
3, 532680, Note_on_c, 1, 79, 64
3, 532796, Note_on_c, 1, 79, 0
3, 532800, Note_on_c, 1, 74, 64
3, 533036, Note_on_c, 1, 74, 0
3, 533040, Note_on_c, 1, 62, 64
3, 533276, Note_on_c, 1, 62, 0
3, 533280, Note_on_c, 1, 62, 64
3, 533516, Note_on_c, 1, 62, 0
3, 533520, Note_on_c, 1, 62, 64
3, 533756, Note_on_c, 1, 62, 0
3, 533760, Note_on_c, 1, 62, 64
3, 533996, Note_on_c, 1, 62, 0
3, 534000, Note_on_c, 1, 62, 64
3, 534236, Note_on_c, 1, 62, 0
3, 534240, Note_on_c, 1, 71, 64
3, 534356, Note_on_c, 1, 71, 0
3, 534360, Note_on_c, 1, 74, 64
3, 534476, Note_on_c, 1, 74, 0
3, 534480, Note_on_c, 1, 67, 64
3, 534596, Note_on_c, 1, 67, 0
3, 534600, Note_on_c, 1, 74, 64
3, 534716, Note_on_c, 1, 74, 0
3, 534720, Note_on_c, 1, 71, 64
3, 534836, Note_on_c, 1, 71, 0
3, 534840, Note_on_c, 1, 74, 64
3, 534956, Note_on_c, 1, 74, 0
3, 534960, Note_on_c, 1, 71, 64
3, 535076, Note_on_c, 1, 71, 0
3, 535080, Note_on_c, 1, 74, 64
3, 535196, Note_on_c, 1, 74, 0
3, 535200, Note_on_c, 1, 67, 64
3, 535316, Note_on_c, 1, 67, 0
3, 535320, Note_on_c, 1, 74, 64
3, 535436, Note_on_c, 1, 74, 0
3, 535440, Note_on_c, 1, 71, 64
3, 535556, Note_on_c, 1, 71, 0
3, 535560, Note_on_c, 1, 74, 64
3, 535676, Note_on_c, 1, 74, 0
3, 535680, Note_on_c, 1, 60, 64
3, 535916, Note_on_c, 1, 60, 0
3, 535920, Note_on_c, 1, 64, 64
3, 536156, Note_on_c, 1, 64, 0
3, 536160, Note_on_c, 1, 67, 64
3, 536396, Note_on_c, 1, 67, 0
3, 536400, Note_on_c, 1, 64, 64
3, 536636, Note_on_c, 1, 64, 0
3, 536640, Note_on_c, 1, 67, 64
3, 536876, Note_on_c, 1, 67, 0
3, 536880, Note_on_c, 1, 72, 64
3, 537116, Note_on_c, 1, 72, 0
3, 537120, Note_on_c, 1, 66, 64
3, 537356, Note_on_c, 1, 66, 0
3, 537360, Note_on_c, 1, 69, 64
3, 537596, Note_on_c, 1, 69, 0
3, 537600, Note_on_c, 1, 74, 64
3, 537836, Note_on_c, 1, 74, 0
3, 537840, Note_on_c, 1, 69, 64
3, 538076, Note_on_c, 1, 69, 0
3, 538080, Note_on_c, 1, 74, 64
3, 538316, Note_on_c, 1, 74, 0
3, 538320, Note_on_c, 1, 78, 64
3, 538556, Note_on_c, 1, 78, 0
3, 538560, Note_on_c, 1, 79, 64
3, 538796, Note_on_c, 1, 79, 0
3, 538800, Note_on_c, 1, 67, 64
3, 538916, Note_on_c, 1, 67, 0
3, 538920, Note_on_c, 1, 69, 64
3, 539036, Note_on_c, 1, 69, 0
3, 539040, Note_on_c, 1, 71, 64
3, 539276, Note_on_c, 1, 71, 0
3, 539280, Note_on_c, 1, 62, 64
3, 539516, Note_on_c, 1, 62, 0
3, 539520, Note_on_c, 1, 67, 64
3, 539756, Note_on_c, 1, 67, 0
3, 539760, Note_on_c, 1, 66, 64
3, 539996, Note_on_c, 1, 66, 0
3, 540000, Note_on_c, 1, 67, 64
3, 540236, Note_on_c, 1, 67, 0
3, 540240, Note_on_c, 1, 71, 64
3, 540476, Note_on_c, 1, 71, 0
3, 540480, Note_on_c, 1, 74, 64
3, 540716, Note_on_c, 1, 74, 0
3, 540720, Note_on_c, 1, 79, 64
3, 541436, Note_on_c, 1, 79, 0
3, 541436, End_track
4, 0, Start_track
4, 0, Title_t, "Violino     III"
4, 0, Program_c, 2, 40
4, 0, Control_c, 2, 10, 84
4, 1680, Note_on_c, 2, 67, 64
4, 1796, Note_on_c, 2, 67, 0
4, 1800, Note_on_c, 2, 66, 64
4, 1916, Note_on_c, 2, 66, 0
4, 1920, Note_on_c, 2, 67, 64
4, 2156, Note_on_c, 2, 67, 0
4, 2160, Note_on_c, 2, 62, 64
4, 2276, Note_on_c, 2, 62, 0
4, 2280, Note_on_c, 2, 60, 64
4, 2396, Note_on_c, 2, 60, 0
4, 2400, Note_on_c, 2, 62, 64
4, 2636, Note_on_c, 2, 62, 0
4, 2640, Note_on_c, 2, 67, 64
4, 2756, Note_on_c, 2, 67, 0
4, 2760, Note_on_c, 2, 66, 64
4, 2876, Note_on_c, 2, 66, 0
4, 2880, Note_on_c, 2, 67, 64
4, 3116, Note_on_c, 2, 67, 0
4, 3120, Note_on_c, 2, 59, 64
4, 3236, Note_on_c, 2, 59, 0
4, 3240, Note_on_c, 2, 57, 64
4, 3356, Note_on_c, 2, 57, 0
4, 3360, Note_on_c, 2, 59, 64
4, 3596, Note_on_c, 2, 59, 0
4, 3600, Note_on_c, 2, 67, 64
4, 3716, Note_on_c, 2, 67, 0
4, 3720, Note_on_c, 2, 66, 64
4, 3836, Note_on_c, 2, 66, 0
4, 3840, Note_on_c, 2, 67, 64
4, 4076, Note_on_c, 2, 67, 0
4, 4080, Note_on_c, 2, 55, 64
4, 4196, Note_on_c, 2, 55, 0
4, 4200, Note_on_c, 2, 57, 64
4, 4316, Note_on_c, 2, 57, 0
4, 4320, Note_on_c, 2, 59, 64
4, 4556, Note_on_c, 2, 59, 0
4, 4560, Note_on_c, 2, 61, 64
4, 4796, Note_on_c, 2, 61, 0
4, 4800, Note_on_c, 2, 62, 64
4, 4916, Note_on_c, 2, 62, 0
4, 4920, Note_on_c, 2, 61, 64
4, 5036, Note_on_c, 2, 61, 0
4, 5040, Note_on_c, 2, 62, 64
4, 5156, Note_on_c, 2, 62, 0
4, 5160, Note_on_c, 2, 64, 64
4, 5276, Note_on_c, 2, 64, 0
4, 5280, Note_on_c, 2, 62, 64
4, 5396, Note_on_c, 2, 62, 0
4, 5400, Note_on_c, 2, 66, 64
4, 5516, Note_on_c, 2, 66, 0
4, 5520, Note_on_c, 2, 62, 64
4, 5636, Note_on_c, 2, 62, 0
4, 5640, Note_on_c, 2, 67, 64
4, 5756, Note_on_c, 2, 67, 0
4, 5760, Note_on_c, 2, 62, 64
4, 5876, Note_on_c, 2, 62, 0
4, 5880, Note_on_c, 2, 61, 64
4, 5996, Note_on_c, 2, 61, 0
4, 6000, Note_on_c, 2, 62, 64
4, 6116, Note_on_c, 2, 62, 0
4, 6120, Note_on_c, 2, 64, 64
4, 6236, Note_on_c, 2, 64, 0
4, 6240, Note_on_c, 2, 62, 64
4, 6356, Note_on_c, 2, 62, 0
4, 6360, Note_on_c, 2, 69, 64
4, 6476, Note_on_c, 2, 69, 0
4, 6480, Note_on_c, 2, 62, 64
4, 6596, Note_on_c, 2, 62, 0
4, 6600, Note_on_c, 2, 71, 64
4, 6716, Note_on_c, 2, 71, 0
4, 6720, Note_on_c, 2, 62, 64
4, 6836, Note_on_c, 2, 62, 0
4, 6840, Note_on_c, 2, 61, 64
4, 6956, Note_on_c, 2, 61, 0
4, 6960, Note_on_c, 2, 62, 64
4, 7076, Note_on_c, 2, 62, 0
4, 7080, Note_on_c, 2, 64, 64
4, 7196, Note_on_c, 2, 64, 0
4, 7200, Note_on_c, 2, 62, 64
4, 7316, Note_on_c, 2, 62, 0
4, 7320, Note_on_c, 2, 72, 64
4, 7436, Note_on_c, 2, 72, 0
4, 7440, Note_on_c, 2, 62, 64
4, 7556, Note_on_c, 2, 62, 0
4, 7560, Note_on_c, 2, 74, 64
4, 7676, Note_on_c, 2, 74, 0
4, 7680, Note_on_c, 2, 71, 64
4, 7916, Note_on_c, 2, 71, 0
4, 7920, Note_on_c, 2, 69, 64
4, 8036, Note_on_c, 2, 69, 0
4, 8040, Note_on_c, 2, 67, 64
4, 8156, Note_on_c, 2, 67, 0
4, 8160, Note_on_c, 2, 69, 64
4, 8396, Note_on_c, 2, 69, 0
4, 8400, Note_on_c, 2, 67, 64
4, 8516, Note_on_c, 2, 67, 0
4, 8520, Note_on_c, 2, 66, 64
4, 8636, Note_on_c, 2, 66, 0
4, 8640, Note_on_c, 2, 67, 64
4, 8876, Note_on_c, 2, 67, 0
4, 8880, Note_on_c, 2, 66, 64
4, 8996, Note_on_c, 2, 66, 0
4, 9000, Note_on_c, 2, 64, 64
4, 9116, Note_on_c, 2, 64, 0
4, 9120, Note_on_c, 2, 62, 64
4, 9236, Note_on_c, 2, 62, 0
4, 9240, Note_on_c, 2, 67, 64
4, 9356, Note_on_c, 2, 67, 0
4, 9360, Note_on_c, 2, 62, 64
4, 9476, Note_on_c, 2, 62, 0
4, 9480, Note_on_c, 2, 67, 64
4, 9596, Note_on_c, 2, 67, 0
4, 9600, Note_on_c, 2, 64, 64
4, 9836, Note_on_c, 2, 64, 0
4, 9840, Note_on_c, 2, 62, 64
4, 9956, Note_on_c, 2, 62, 0
4, 9960, Note_on_c, 2, 60, 64
4, 10076, Note_on_c, 2, 60, 0
4, 10080, Note_on_c, 2, 59, 64
4, 10196, Note_on_c, 2, 59, 0
4, 10200, Note_on_c, 2, 67, 64
4, 10316, Note_on_c, 2, 67, 0
4, 10320, Note_on_c, 2, 59, 64
4, 10436, Note_on_c, 2, 59, 0
4, 10440, Note_on_c, 2, 67, 64
4, 10556, Note_on_c, 2, 67, 0
4, 10560, Note_on_c, 2, 60, 64
4, 10796, Note_on_c, 2, 60, 0
4, 10800, Note_on_c, 2, 59, 64
4, 10916, Note_on_c, 2, 59, 0
4, 10920, Note_on_c, 2, 57, 64
4, 11036, Note_on_c, 2, 57, 0
4, 11040, Note_on_c, 2, 55, 64
4, 11156, Note_on_c, 2, 55, 0
4, 11160, Note_on_c, 2, 67, 64
4, 11276, Note_on_c, 2, 67, 0
4, 11280, Note_on_c, 2, 57, 64
4, 11396, Note_on_c, 2, 57, 0
4, 11400, Note_on_c, 2, 67, 64
4, 11516, Note_on_c, 2, 67, 0
4, 11520, Note_on_c, 2, 59, 64
4, 11636, Note_on_c, 2, 59, 0
4, 11640, Note_on_c, 2, 67, 64
4, 11756, Note_on_c, 2, 67, 0
4, 11760, Note_on_c, 2, 61, 64
4, 11876, Note_on_c, 2, 61, 0
4, 11880, Note_on_c, 2, 67, 64
4, 11996, Note_on_c, 2, 67, 0
4, 12000, Note_on_c, 2, 62, 64
4, 12116, Note_on_c, 2, 62, 0
4, 12120, Note_on_c, 2, 66, 64
4, 12236, Note_on_c, 2, 66, 0
4, 12240, Note_on_c, 2, 62, 64
4, 12356, Note_on_c, 2, 62, 0
4, 12360, Note_on_c, 2, 67, 64
4, 12476, Note_on_c, 2, 67, 0
4, 12480, Note_on_c, 2, 62, 64
4, 12596, Note_on_c, 2, 62, 0
4, 12600, Note_on_c, 2, 69, 64
4, 12716, Note_on_c, 2, 69, 0
4, 12720, Note_on_c, 2, 62, 64
4, 12836, Note_on_c, 2, 62, 0
4, 12840, Note_on_c, 2, 71, 64
4, 12956, Note_on_c, 2, 71, 0
4, 12960, Note_on_c, 2, 62, 64
4, 13076, Note_on_c, 2, 62, 0
4, 13080, Note_on_c, 2, 72, 64
4, 13196, Note_on_c, 2, 72, 0
4, 13200, Note_on_c, 2, 62, 64
4, 13316, Note_on_c, 2, 62, 0
4, 13320, Note_on_c, 2, 74, 64
4, 13436, Note_on_c, 2, 74, 0
4, 13440, Note_on_c, 2, 71, 64
4, 13676, Note_on_c, 2, 71, 0
4, 13680, Note_on_c, 2, 69, 64
4, 13796, Note_on_c, 2, 69, 0
4, 13800, Note_on_c, 2, 67, 64
4, 13916, Note_on_c, 2, 67, 0
4, 13920, Note_on_c, 2, 62, 64
4, 14156, Note_on_c, 2, 62, 0
4, 14160, Note_on_c, 2, 66, 64
4, 14396, Note_on_c, 2, 66, 0
4, 14400, Note_on_c, 2, 67, 64
4, 14636, Note_on_c, 2, 67, 0
4, 14640, Note_on_c, 2, 66, 64
4, 14756, Note_on_c, 2, 66, 0
4, 14760, Note_on_c, 2, 64, 64
4, 14876, Note_on_c, 2, 64, 0
4, 14880, Note_on_c, 2, 62, 64
4, 14996, Note_on_c, 2, 62, 0
4, 15000, Note_on_c, 2, 60, 64
4, 15116, Note_on_c, 2, 60, 0
4, 15120, Note_on_c, 2, 59, 64
4, 15236, Note_on_c, 2, 59, 0
4, 15240, Note_on_c, 2, 57, 64
4, 15356, Note_on_c, 2, 57, 0
4, 15360, Note_on_c, 2, 59, 64
4, 15596, Note_on_c, 2, 59, 0
4, 15600, Note_on_c, 2, 57, 64
4, 15716, Note_on_c, 2, 57, 0
4, 15720, Note_on_c, 2, 55, 64
4, 15836, Note_on_c, 2, 55, 0
4, 15840, Note_on_c, 2, 62, 64
4, 16076, Note_on_c, 2, 62, 0
4, 16080, Note_on_c, 2, 62, 64
4, 16316, Note_on_c, 2, 62, 0
4, 16320, Note_on_c, 2, 55, 64
4, 16796, Note_on_c, 2, 55, 0
4, 17040, Note_on_c, 2, 74, 64
4, 17156, Note_on_c, 2, 74, 0
4, 17160, Note_on_c, 2, 72, 64
4, 17276, Note_on_c, 2, 72, 0
4, 17280, Note_on_c, 2, 74, 64
4, 17516, Note_on_c, 2, 74, 0
4, 17520, Note_on_c, 2, 71, 64
4, 17636, Note_on_c, 2, 71, 0
4, 17640, Note_on_c, 2, 69, 64
4, 17756, Note_on_c, 2, 69, 0
4, 17760, Note_on_c, 2, 71, 64
4, 17996, Note_on_c, 2, 71, 0
4, 19440, Note_on_c, 2, 74, 64
4, 19676, Note_on_c, 2, 74, 0
4, 19680, Note_on_c, 2, 79, 64
4, 19796, Note_on_c, 2, 79, 0
4, 19800, Note_on_c, 2, 83, 64
4, 19916, Note_on_c, 2, 83, 0
4, 19920, Note_on_c, 2, 81, 64
4, 20036, Note_on_c, 2, 81, 0
4, 20040, Note_on_c, 2, 79, 64
4, 20156, Note_on_c, 2, 79, 0
4, 20160, Note_on_c, 2, 78, 64
4, 20636, Note_on_c, 2, 78, 0
4, 20880, Note_on_c, 2, 73, 64
4, 21116, Note_on_c, 2, 73, 0
4, 21120, Note_on_c, 2, 74, 64
4, 21596, Note_on_c, 2, 74, 0
4, 21840, Note_on_c, 2, 76, 64
4, 22076, Note_on_c, 2, 76, 0
4, 22080, Note_on_c, 2, 78, 64
4, 22196, Note_on_c, 2, 78, 0
4, 22200, Note_on_c, 2, 81, 64
4, 22316, Note_on_c, 2, 81, 0
4, 22320, Note_on_c, 2, 74, 64
4, 22436, Note_on_c, 2, 74, 0
4, 22440, Note_on_c, 2, 76, 64
4, 22556, Note_on_c, 2, 76, 0
4, 22560, Note_on_c, 2, 78, 64
4, 22676, Note_on_c, 2, 78, 0
4, 22680, Note_on_c, 2, 79, 64
4, 22796, Note_on_c, 2, 79, 0
4, 22800, Note_on_c, 2, 81, 64
4, 22916, Note_on_c, 2, 81, 0
4, 23040, Note_on_c, 2, 78, 64
4, 23276, Note_on_c, 2, 78, 0
4, 23280, Note_on_c, 2, 76, 64
4, 23396, Note_on_c, 2, 76, 0
4, 23400, Note_on_c, 2, 74, 64
4, 23516, Note_on_c, 2, 74, 0
4, 23520, Note_on_c, 2, 76, 64
4, 23756, Note_on_c, 2, 76, 0
4, 23760, Note_on_c, 2, 74, 64
4, 23876, Note_on_c, 2, 74, 0
4, 23880, Note_on_c, 2, 73, 64
4, 23996, Note_on_c, 2, 73, 0
4, 24000, Note_on_c, 2, 74, 64
4, 24236, Note_on_c, 2, 74, 0
4, 24240, Note_on_c, 2, 73, 64
4, 24356, Note_on_c, 2, 73, 0
4, 24360, Note_on_c, 2, 71, 64
4, 24476, Note_on_c, 2, 71, 0
4, 24480, Note_on_c, 2, 69, 64
4, 24596, Note_on_c, 2, 69, 0
4, 24600, Note_on_c, 2, 74, 64
4, 24716, Note_on_c, 2, 74, 0
4, 24720, Note_on_c, 2, 69, 64
4, 24836, Note_on_c, 2, 69, 0
4, 24840, Note_on_c, 2, 74, 64
4, 24956, Note_on_c, 2, 74, 0
4, 24960, Note_on_c, 2, 71, 64
4, 25196, Note_on_c, 2, 71, 0
4, 25200, Note_on_c, 2, 69, 64
4, 25316, Note_on_c, 2, 69, 0
4, 25320, Note_on_c, 2, 67, 64
4, 25436, Note_on_c, 2, 67, 0
4, 25440, Note_on_c, 2, 66, 64
4, 25556, Note_on_c, 2, 66, 0
4, 25560, Note_on_c, 2, 74, 64
4, 25676, Note_on_c, 2, 74, 0
4, 25680, Note_on_c, 2, 66, 64
4, 25796, Note_on_c, 2, 66, 0
4, 25800, Note_on_c, 2, 74, 64
4, 25916, Note_on_c, 2, 74, 0
4, 25920, Note_on_c, 2, 67, 64
4, 26156, Note_on_c, 2, 67, 0
4, 26160, Note_on_c, 2, 66, 64
4, 26276, Note_on_c, 2, 66, 0
4, 26280, Note_on_c, 2, 64, 64
4, 26396, Note_on_c, 2, 64, 0
4, 26400, Note_on_c, 2, 62, 64
4, 26516, Note_on_c, 2, 62, 0
4, 26520, Note_on_c, 2, 74, 64
4, 26636, Note_on_c, 2, 74, 0
4, 26640, Note_on_c, 2, 64, 64
4, 26756, Note_on_c, 2, 64, 0
4, 26760, Note_on_c, 2, 74, 64
4, 26876, Note_on_c, 2, 74, 0
4, 26880, Note_on_c, 2, 66, 64
4, 26996, Note_on_c, 2, 66, 0
4, 27000, Note_on_c, 2, 74, 64
4, 27116, Note_on_c, 2, 74, 0
4, 27120, Note_on_c, 2, 68, 64
4, 27236, Note_on_c, 2, 68, 0
4, 27240, Note_on_c, 2, 74, 64
4, 27356, Note_on_c, 2, 74, 0
4, 27360, Note_on_c, 2, 69, 64
4, 27476, Note_on_c, 2, 69, 0
4, 27480, Note_on_c, 2, 73, 64
4, 27596, Note_on_c, 2, 73, 0
4, 27600, Note_on_c, 2, 69, 64
4, 27716, Note_on_c, 2, 69, 0
4, 27720, Note_on_c, 2, 74, 64
4, 27836, Note_on_c, 2, 74, 0
4, 27840, Note_on_c, 2, 69, 64
4, 27956, Note_on_c, 2, 69, 0
4, 27960, Note_on_c, 2, 76, 64
4, 28076, Note_on_c, 2, 76, 0
4, 28080, Note_on_c, 2, 69, 64
4, 28196, Note_on_c, 2, 69, 0
4, 28200, Note_on_c, 2, 78, 64
4, 28316, Note_on_c, 2, 78, 0
4, 28320, Note_on_c, 2, 69, 64
4, 28436, Note_on_c, 2, 69, 0
4, 28440, Note_on_c, 2, 79, 64
4, 28556, Note_on_c, 2, 79, 0
4, 28560, Note_on_c, 2, 69, 64
4, 28676, Note_on_c, 2, 69, 0
4, 28680, Note_on_c, 2, 81, 64
4, 28796, Note_on_c, 2, 81, 0
4, 28800, Note_on_c, 2, 78, 64
4, 29036, Note_on_c, 2, 78, 0
4, 29040, Note_on_c, 2, 76, 64
4, 29156, Note_on_c, 2, 76, 0
4, 29160, Note_on_c, 2, 74, 64
4, 29276, Note_on_c, 2, 74, 0
4, 29280, Note_on_c, 2, 69, 64
4, 29516, Note_on_c, 2, 69, 0
4, 29520, Note_on_c, 2, 73, 64
4, 29756, Note_on_c, 2, 73, 0
4, 29760, Note_on_c, 2, 74, 64
4, 30236, Note_on_c, 2, 74, 0
4, 30480, Note_on_c, 2, 67, 64
4, 30596, Note_on_c, 2, 67, 0
4, 30600, Note_on_c, 2, 69, 64
4, 30716, Note_on_c, 2, 69, 0
4, 30720, Note_on_c, 2, 71, 64
4, 30956, Note_on_c, 2, 71, 0
4, 30960, Note_on_c, 2, 67, 64
4, 31076, Note_on_c, 2, 67, 0
4, 31080, Note_on_c, 2, 66, 64
4, 31196, Note_on_c, 2, 66, 0
4, 31200, Note_on_c, 2, 67, 64
4, 31436, Note_on_c, 2, 67, 0
4, 32880, Note_on_c, 2, 71, 64
4, 32996, Note_on_c, 2, 71, 0
4, 33000, Note_on_c, 2, 72, 64
4, 33116, Note_on_c, 2, 72, 0
4, 33120, Note_on_c, 2, 74, 64
4, 33356, Note_on_c, 2, 74, 0
4, 33360, Note_on_c, 2, 78, 64
4, 33596, Note_on_c, 2, 78, 0
4, 33600, Note_on_c, 2, 69, 64
4, 33836, Note_on_c, 2, 69, 0
4, 33840, Note_on_c, 2, 78, 64
4, 33956, Note_on_c, 2, 78, 0
4, 33960, Note_on_c, 2, 76, 64
4, 34076, Note_on_c, 2, 76, 0
4, 34080, Note_on_c, 2, 74, 64
4, 34316, Note_on_c, 2, 74, 0
4, 34800, Note_on_c, 2, 78, 64
4, 34916, Note_on_c, 2, 78, 0
4, 34920, Note_on_c, 2, 76, 64
4, 35036, Note_on_c, 2, 76, 0
4, 35040, Note_on_c, 2, 74, 64
4, 35276, Note_on_c, 2, 74, 0
4, 35760, Note_on_c, 2, 78, 64
4, 35876, Note_on_c, 2, 78, 0
4, 35880, Note_on_c, 2, 76, 64
4, 35996, Note_on_c, 2, 76, 0
4, 36000, Note_on_c, 2, 74, 64
4, 36236, Note_on_c, 2, 74, 0
4, 36720, Note_on_c, 2, 74, 64
4, 36956, Note_on_c, 2, 74, 0
4, 36960, Note_on_c, 2, 78, 64
4, 37196, Note_on_c, 2, 78, 0
4, 37200, Note_on_c, 2, 81, 64
4, 37436, Note_on_c, 2, 81, 0
4, 37440, Note_on_c, 2, 78, 64
4, 37676, Note_on_c, 2, 78, 0
4, 37680, Note_on_c, 2, 74, 64
4, 37916, Note_on_c, 2, 74, 0
4, 37920, Note_on_c, 2, 78, 64
4, 38156, Note_on_c, 2, 78, 0
4, 38160, Note_on_c, 2, 81, 64
4, 38396, Note_on_c, 2, 81, 0
4, 38400, Note_on_c, 2, 78, 64
4, 38636, Note_on_c, 2, 78, 0
4, 38640, Note_on_c, 2, 69, 64
4, 38876, Note_on_c, 2, 69, 0
4, 38880, Note_on_c, 2, 74, 64
4, 38996, Note_on_c, 2, 74, 0
4, 39000, Note_on_c, 2, 78, 64
4, 39116, Note_on_c, 2, 78, 0
4, 39120, Note_on_c, 2, 76, 64
4, 39236, Note_on_c, 2, 76, 0
4, 39240, Note_on_c, 2, 74, 64
4, 39356, Note_on_c, 2, 74, 0
4, 39360, Note_on_c, 2, 73, 64
4, 39836, Note_on_c, 2, 73, 0
4, 40080, Note_on_c, 2, 69, 64
4, 40316, Note_on_c, 2, 69, 0
4, 40320, Note_on_c, 2, 67, 64
4, 40436, Note_on_c, 2, 67, 0
4, 40440, Note_on_c, 2, 71, 64
4, 40556, Note_on_c, 2, 71, 0
4, 40560, Note_on_c, 2, 64, 64
4, 40676, Note_on_c, 2, 64, 0
4, 40680, Note_on_c, 2, 66, 64
4, 40796, Note_on_c, 2, 66, 0
4, 40800, Note_on_c, 2, 67, 64
4, 40916, Note_on_c, 2, 67, 0
4, 40920, Note_on_c, 2, 69, 64
4, 41036, Note_on_c, 2, 69, 0
4, 41040, Note_on_c, 2, 71, 64
4, 41156, Note_on_c, 2, 71, 0
4, 41160, Note_on_c, 2, 73, 64
4, 41276, Note_on_c, 2, 73, 0
4, 41280, Note_on_c, 2, 74, 64
4, 41756, Note_on_c, 2, 74, 0
4, 42000, Note_on_c, 2, 74, 64
4, 42236, Note_on_c, 2, 74, 0
4, 42240, Note_on_c, 2, 73, 64
4, 42476, Note_on_c, 2, 73, 0
4, 42480, Note_on_c, 2, 74, 64
4, 42716, Note_on_c, 2, 74, 0
4, 42720, Note_on_c, 2, 74, 64
4, 42956, Note_on_c, 2, 74, 0
4, 42960, Note_on_c, 2, 71, 64
4, 43076, Note_on_c, 2, 71, 0
4, 43080, Note_on_c, 2, 73, 64
4, 43196, Note_on_c, 2, 73, 0
4, 43200, Note_on_c, 2, 71, 64
4, 43436, Note_on_c, 2, 71, 0
4, 43440, Note_on_c, 2, 73, 64
4, 43676, Note_on_c, 2, 73, 0
4, 43680, Note_on_c, 2, 73, 64
4, 43916, Note_on_c, 2, 73, 0
4, 43920, Note_on_c, 2, 69, 64
4, 44036, Note_on_c, 2, 69, 0
4, 44040, Note_on_c, 2, 71, 64
4, 44156, Note_on_c, 2, 71, 0
4, 44160, Note_on_c, 2, 69, 64
4, 44396, Note_on_c, 2, 69, 0
4, 44400, Note_on_c, 2, 67, 64
4, 44516, Note_on_c, 2, 67, 0
4, 44520, Note_on_c, 2, 66, 64
4, 44636, Note_on_c, 2, 66, 0
4, 44640, Note_on_c, 2, 64, 64
4, 44876, Note_on_c, 2, 64, 0
4, 44880, Note_on_c, 2, 64, 64
4, 45116, Note_on_c, 2, 64, 0
4, 45120, Note_on_c, 2, 66, 64
4, 45596, Note_on_c, 2, 66, 0
4, 45840, Note_on_c, 2, 74, 64
4, 45956, Note_on_c, 2, 74, 0
4, 45960, Note_on_c, 2, 73, 64
4, 46076, Note_on_c, 2, 73, 0
4, 46080, Note_on_c, 2, 74, 64
4, 46316, Note_on_c, 2, 74, 0
4, 46800, Note_on_c, 2, 74, 64
4, 46916, Note_on_c, 2, 74, 0
4, 46920, Note_on_c, 2, 73, 64
4, 47036, Note_on_c, 2, 73, 0
4, 47040, Note_on_c, 2, 74, 64
4, 47276, Note_on_c, 2, 74, 0
4, 47280, Note_on_c, 2, 69, 64
4, 47516, Note_on_c, 2, 69, 0
4, 47520, Note_on_c, 2, 69, 64
4, 47756, Note_on_c, 2, 69, 0
4, 47760, Note_on_c, 2, 71, 64
4, 47996, Note_on_c, 2, 71, 0
4, 48000, Note_on_c, 2, 69, 64
4, 48236, Note_on_c, 2, 69, 0
4, 48240, Note_on_c, 2, 69, 64
4, 48476, Note_on_c, 2, 69, 0
4, 48480, Note_on_c, 2, 69, 64
4, 48716, Note_on_c, 2, 69, 0
4, 48720, Note_on_c, 2, 71, 64
4, 48956, Note_on_c, 2, 71, 0
4, 48960, Note_on_c, 2, 62, 64
4, 49196, Note_on_c, 2, 62, 0
4, 49200, Note_on_c, 2, 62, 64
4, 49436, Note_on_c, 2, 62, 0
4, 49440, Note_on_c, 2, 62, 64
4, 49676, Note_on_c, 2, 62, 0
4, 49680, Note_on_c, 2, 74, 64
4, 49916, Note_on_c, 2, 74, 0
4, 49920, Note_on_c, 2, 74, 64
4, 50396, Note_on_c, 2, 74, 0
4, 50640, Note_on_c, 2, 67, 64
4, 50756, Note_on_c, 2, 67, 0
4, 50760, Note_on_c, 2, 66, 64
4, 50876, Note_on_c, 2, 66, 0
4, 50880, Note_on_c, 2, 67, 64
4, 51116, Note_on_c, 2, 67, 0
4, 51600, Note_on_c, 2, 67, 64
4, 51716, Note_on_c, 2, 67, 0
4, 51720, Note_on_c, 2, 66, 64
4, 51836, Note_on_c, 2, 66, 0
4, 51840, Note_on_c, 2, 67, 64
4, 52076, Note_on_c, 2, 67, 0
4, 52080, Note_on_c, 2, 62, 64
4, 52316, Note_on_c, 2, 62, 0
4, 52320, Note_on_c, 2, 62, 64
4, 52556, Note_on_c, 2, 62, 0
4, 52560, Note_on_c, 2, 64, 64
4, 52796, Note_on_c, 2, 64, 0
4, 52800, Note_on_c, 2, 62, 64
4, 53036, Note_on_c, 2, 62, 0
4, 53040, Note_on_c, 2, 62, 64
4, 53276, Note_on_c, 2, 62, 0
4, 53280, Note_on_c, 2, 62, 64
4, 53516, Note_on_c, 2, 62, 0
4, 53520, Note_on_c, 2, 64, 64
4, 53756, Note_on_c, 2, 64, 0
4, 53760, Note_on_c, 2, 55, 64
4, 53996, Note_on_c, 2, 55, 0
4, 54000, Note_on_c, 2, 55, 64
4, 54236, Note_on_c, 2, 55, 0
4, 54240, Note_on_c, 2, 55, 64
4, 54476, Note_on_c, 2, 55, 0
4, 54480, Note_on_c, 2, 55, 64
4, 54716, Note_on_c, 2, 55, 0
4, 54720, Note_on_c, 2, 55, 64
4, 54836, Note_on_c, 2, 55, 0
4, 54840, Note_on_c, 2, 67, 64
4, 54956, Note_on_c, 2, 67, 0
4, 54960, Note_on_c, 2, 69, 64
4, 55076, Note_on_c, 2, 69, 0
4, 55080, Note_on_c, 2, 71, 64
4, 55196, Note_on_c, 2, 71, 0
4, 55200, Note_on_c, 2, 72, 64
4, 55436, Note_on_c, 2, 72, 0
4, 55920, Note_on_c, 2, 76, 64
4, 56036, Note_on_c, 2, 76, 0
4, 56040, Note_on_c, 2, 77, 64
4, 56156, Note_on_c, 2, 77, 0
4, 56160, Note_on_c, 2, 76, 64
4, 56396, Note_on_c, 2, 76, 0
4, 56400, Note_on_c, 2, 77, 64
4, 56636, Note_on_c, 2, 77, 0
4, 56640, Note_on_c, 2, 77, 64
4, 56876, Note_on_c, 2, 77, 0
4, 56880, Note_on_c, 2, 74, 64
4, 56996, Note_on_c, 2, 74, 0
4, 57000, Note_on_c, 2, 76, 64
4, 57116, Note_on_c, 2, 76, 0
4, 57120, Note_on_c, 2, 74, 64
4, 57356, Note_on_c, 2, 74, 0
4, 57360, Note_on_c, 2, 76, 64
4, 57596, Note_on_c, 2, 76, 0
4, 57600, Note_on_c, 2, 76, 64
4, 57836, Note_on_c, 2, 76, 0
4, 57840, Note_on_c, 2, 72, 64
4, 57956, Note_on_c, 2, 72, 0
4, 57960, Note_on_c, 2, 74, 64
4, 58076, Note_on_c, 2, 74, 0
4, 58080, Note_on_c, 2, 72, 64
4, 58316, Note_on_c, 2, 72, 0
4, 58320, Note_on_c, 2, 74, 64
4, 58556, Note_on_c, 2, 74, 0
4, 58560, Note_on_c, 2, 67, 64
4, 58796, Note_on_c, 2, 67, 0
4, 58800, Note_on_c, 2, 67, 64
4, 59036, Note_on_c, 2, 67, 0
4, 59040, Note_on_c, 2, 67, 64
4, 59276, Note_on_c, 2, 67, 0
4, 59280, Note_on_c, 2, 67, 64
4, 59516, Note_on_c, 2, 67, 0
4, 59520, Note_on_c, 2, 62, 64
4, 59756, Note_on_c, 2, 62, 0
4, 59760, Note_on_c, 2, 60, 64
4, 59996, Note_on_c, 2, 60, 0
4, 60000, Note_on_c, 2, 62, 64
4, 60236, Note_on_c, 2, 62, 0
4, 60240, Note_on_c, 2, 62, 64
4, 60476, Note_on_c, 2, 62, 0
4, 60480, Note_on_c, 2, 64, 64
4, 60596, Note_on_c, 2, 64, 0
4, 60600, Note_on_c, 2, 62, 64
4, 60716, Note_on_c, 2, 62, 0
4, 60720, Note_on_c, 2, 64, 64
4, 60836, Note_on_c, 2, 64, 0
4, 60840, Note_on_c, 2, 65, 64
4, 60956, Note_on_c, 2, 65, 0
4, 60960, Note_on_c, 2, 64, 64
4, 61076, Note_on_c, 2, 64, 0
4, 61080, Note_on_c, 2, 67, 64
4, 61196, Note_on_c, 2, 67, 0
4, 61200, Note_on_c, 2, 65, 64
4, 61316, Note_on_c, 2, 65, 0
4, 61320, Note_on_c, 2, 69, 64
4, 61436, Note_on_c, 2, 69, 0
4, 61440, Note_on_c, 2, 67, 64
4, 61556, Note_on_c, 2, 67, 0
4, 61560, Note_on_c, 2, 65, 64
4, 61676, Note_on_c, 2, 65, 0
4, 61680, Note_on_c, 2, 67, 64
4, 61796, Note_on_c, 2, 67, 0
4, 61800, Note_on_c, 2, 69, 64
4, 61916, Note_on_c, 2, 69, 0
4, 61920, Note_on_c, 2, 67, 64
4, 62036, Note_on_c, 2, 67, 0
4, 62040, Note_on_c, 2, 72, 64
4, 62156, Note_on_c, 2, 72, 0
4, 62160, Note_on_c, 2, 67, 64
4, 62276, Note_on_c, 2, 67, 0
4, 62280, Note_on_c, 2, 74, 64
4, 62396, Note_on_c, 2, 74, 0
4, 62400, Note_on_c, 2, 67, 64
4, 62516, Note_on_c, 2, 67, 0
4, 62520, Note_on_c, 2, 72, 64
4, 62636, Note_on_c, 2, 72, 0
4, 62640, Note_on_c, 2, 67, 64
4, 62756, Note_on_c, 2, 67, 0
4, 62760, Note_on_c, 2, 71, 64
4, 62876, Note_on_c, 2, 71, 0
4, 62880, Note_on_c, 2, 67, 64
4, 62996, Note_on_c, 2, 67, 0
4, 63000, Note_on_c, 2, 72, 64
4, 63116, Note_on_c, 2, 72, 0
4, 63120, Note_on_c, 2, 67, 64
4, 63236, Note_on_c, 2, 67, 0
4, 63240, Note_on_c, 2, 71, 64
4, 63356, Note_on_c, 2, 71, 0
4, 63360, Note_on_c, 2, 67, 64
4, 63476, Note_on_c, 2, 67, 0
4, 63480, Note_on_c, 2, 69, 64
4, 63596, Note_on_c, 2, 69, 0
4, 63600, Note_on_c, 2, 67, 64
4, 63716, Note_on_c, 2, 67, 0
4, 63720, Note_on_c, 2, 65, 64
4, 63836, Note_on_c, 2, 65, 0
4, 63840, Note_on_c, 2, 67, 64
4, 64076, Note_on_c, 2, 67, 0
4, 64080, Note_on_c, 2, 62, 64
4, 64316, Note_on_c, 2, 62, 0
4, 64320, Note_on_c, 2, 62, 64
4, 64556, Note_on_c, 2, 62, 0
4, 64560, Note_on_c, 2, 59, 64
4, 64796, Note_on_c, 2, 59, 0
4, 65040, Note_on_c, 2, 55, 64
4, 65276, Note_on_c, 2, 55, 0
4, 65280, Note_on_c, 2, 59, 64
4, 65516, Note_on_c, 2, 59, 0
4, 65520, Note_on_c, 2, 62, 64
4, 65756, Note_on_c, 2, 62, 0
4, 65760, Note_on_c, 2, 59, 64
4, 65996, Note_on_c, 2, 59, 0
4, 66000, Note_on_c, 2, 55, 64
4, 66236, Note_on_c, 2, 55, 0
4, 66240, Note_on_c, 2, 59, 64
4, 66476, Note_on_c, 2, 59, 0
4, 66480, Note_on_c, 2, 62, 64
4, 66716, Note_on_c, 2, 62, 0
4, 66720, Note_on_c, 2, 59, 64
4, 66956, Note_on_c, 2, 59, 0
4, 66960, Note_on_c, 2, 55, 64
4, 67196, Note_on_c, 2, 55, 0
4, 67200, Note_on_c, 2, 62, 64
4, 67436, Note_on_c, 2, 62, 0
4, 67440, Note_on_c, 2, 62, 64
4, 67556, Note_on_c, 2, 62, 0
4, 67560, Note_on_c, 2, 62, 64
4, 67676, Note_on_c, 2, 62, 0
4, 67680, Note_on_c, 2, 62, 64
4, 67916, Note_on_c, 2, 62, 0
4, 68400, Note_on_c, 2, 66, 64
4, 68516, Note_on_c, 2, 66, 0
4, 68520, Note_on_c, 2, 64, 64
4, 68636, Note_on_c, 2, 64, 0
4, 68640, Note_on_c, 2, 66, 64
4, 68876, Note_on_c, 2, 66, 0
4, 69360, Note_on_c, 2, 66, 64
4, 69476, Note_on_c, 2, 66, 0
4, 69480, Note_on_c, 2, 64, 64
4, 69596, Note_on_c, 2, 64, 0
4, 69600, Note_on_c, 2, 66, 64
4, 69836, Note_on_c, 2, 66, 0
4, 70320, Note_on_c, 2, 66, 64
4, 70436, Note_on_c, 2, 66, 0
4, 70440, Note_on_c, 2, 67, 64
4, 70556, Note_on_c, 2, 67, 0
4, 70560, Note_on_c, 2, 66, 64
4, 70796, Note_on_c, 2, 66, 0
4, 70800, Note_on_c, 2, 62, 64
4, 71036, Note_on_c, 2, 62, 0
4, 71040, Note_on_c, 2, 62, 64
4, 71276, Note_on_c, 2, 62, 0
4, 71280, Note_on_c, 2, 62, 64
4, 71516, Note_on_c, 2, 62, 0
4, 71520, Note_on_c, 2, 60, 64
4, 71756, Note_on_c, 2, 60, 0
4, 71760, Note_on_c, 2, 62, 64
4, 71996, Note_on_c, 2, 62, 0
4, 72000, Note_on_c, 2, 62, 64
4, 72236, Note_on_c, 2, 62, 0
4, 72720, Note_on_c, 2, 62, 64
4, 72956, Note_on_c, 2, 62, 0
4, 72960, Note_on_c, 2, 59, 64
4, 73196, Note_on_c, 2, 59, 0
4, 73200, Note_on_c, 2, 55, 64
4, 73436, Note_on_c, 2, 55, 0
4, 74160, Note_on_c, 2, 67, 64
4, 74276, Note_on_c, 2, 67, 0
4, 74280, Note_on_c, 2, 66, 64
4, 74396, Note_on_c, 2, 66, 0
4, 74400, Note_on_c, 2, 67, 64
4, 74636, Note_on_c, 2, 67, 0
4, 74640, Note_on_c, 2, 71, 64
4, 74756, Note_on_c, 2, 71, 0
4, 74760, Note_on_c, 2, 69, 64
4, 74876, Note_on_c, 2, 69, 0
4, 74880, Note_on_c, 2, 71, 64
4, 75116, Note_on_c, 2, 71, 0
4, 75120, Note_on_c, 2, 67, 64
4, 75236, Note_on_c, 2, 67, 0
4, 75240, Note_on_c, 2, 66, 64
4, 75356, Note_on_c, 2, 66, 0
4, 75360, Note_on_c, 2, 67, 64
4, 75596, Note_on_c, 2, 67, 0
4, 76560, Note_on_c, 2, 79, 64
4, 76676, Note_on_c, 2, 79, 0
4, 76680, Note_on_c, 2, 78, 64
4, 76796, Note_on_c, 2, 78, 0
4, 76800, Note_on_c, 2, 79, 64
4, 77036, Note_on_c, 2, 79, 0
4, 77040, Note_on_c, 2, 67, 64
4, 77156, Note_on_c, 2, 67, 0
4, 77160, Note_on_c, 2, 69, 64
4, 77276, Note_on_c, 2, 69, 0
4, 77280, Note_on_c, 2, 71, 64
4, 77516, Note_on_c, 2, 71, 0
4, 77520, Note_on_c, 2, 73, 64
4, 77756, Note_on_c, 2, 73, 0
4, 77760, Note_on_c, 2, 66, 64
4, 77876, Note_on_c, 2, 66, 0
4, 77880, Note_on_c, 2, 64, 64
4, 77996, Note_on_c, 2, 64, 0
4, 78000, Note_on_c, 2, 66, 64
4, 78116, Note_on_c, 2, 66, 0
4, 78120, Note_on_c, 2, 67, 64
4, 78236, Note_on_c, 2, 67, 0
4, 78240, Note_on_c, 2, 66, 64
4, 78356, Note_on_c, 2, 66, 0
4, 78360, Note_on_c, 2, 69, 64
4, 78476, Note_on_c, 2, 69, 0
4, 78480, Note_on_c, 2, 67, 64
4, 78596, Note_on_c, 2, 67, 0
4, 78600, Note_on_c, 2, 71, 64
4, 78716, Note_on_c, 2, 71, 0
4, 78720, Note_on_c, 2, 66, 64
4, 78836, Note_on_c, 2, 66, 0
4, 78840, Note_on_c, 2, 64, 64
4, 78956, Note_on_c, 2, 64, 0
4, 78960, Note_on_c, 2, 66, 64
4, 79076, Note_on_c, 2, 66, 0
4, 79080, Note_on_c, 2, 67, 64
4, 79196, Note_on_c, 2, 67, 0
4, 79200, Note_on_c, 2, 62, 64
4, 79316, Note_on_c, 2, 62, 0
4, 79320, Note_on_c, 2, 67, 64
4, 79436, Note_on_c, 2, 67, 0
4, 79440, Note_on_c, 2, 64, 64
4, 79556, Note_on_c, 2, 64, 0
4, 79560, Note_on_c, 2, 66, 64
4, 79676, Note_on_c, 2, 66, 0
4, 79680, Note_on_c, 2, 64, 64
4, 79796, Note_on_c, 2, 64, 0
4, 79800, Note_on_c, 2, 66, 64
4, 79916, Note_on_c, 2, 66, 0
4, 79920, Note_on_c, 2, 67, 64
4, 80036, Note_on_c, 2, 67, 0
4, 80040, Note_on_c, 2, 66, 64
4, 80156, Note_on_c, 2, 66, 0
4, 80160, Note_on_c, 2, 69, 64
4, 80276, Note_on_c, 2, 69, 0
4, 80280, Note_on_c, 2, 74, 64
4, 80396, Note_on_c, 2, 74, 0
4, 80400, Note_on_c, 2, 78, 64
4, 80516, Note_on_c, 2, 78, 0
4, 80640, Note_on_c, 2, 83, 64
4, 80876, Note_on_c, 2, 83, 0
4, 80880, Note_on_c, 2, 81, 64
4, 80996, Note_on_c, 2, 81, 0
4, 81000, Note_on_c, 2, 79, 64
4, 81116, Note_on_c, 2, 79, 0
4, 81120, Note_on_c, 2, 81, 64
4, 81356, Note_on_c, 2, 81, 0
4, 81360, Note_on_c, 2, 79, 64
4, 81476, Note_on_c, 2, 79, 0
4, 81480, Note_on_c, 2, 78, 64
4, 81596, Note_on_c, 2, 78, 0
4, 81600, Note_on_c, 2, 79, 64
4, 81836, Note_on_c, 2, 79, 0
4, 81840, Note_on_c, 2, 78, 64
4, 81956, Note_on_c, 2, 78, 0
4, 81960, Note_on_c, 2, 76, 64
4, 82076, Note_on_c, 2, 76, 0
4, 82080, Note_on_c, 2, 74, 64
4, 82196, Note_on_c, 2, 74, 0
4, 82200, Note_on_c, 2, 79, 64
4, 82316, Note_on_c, 2, 79, 0
4, 82320, Note_on_c, 2, 74, 64
4, 82436, Note_on_c, 2, 74, 0
4, 82440, Note_on_c, 2, 79, 64
4, 82556, Note_on_c, 2, 79, 0
4, 82560, Note_on_c, 2, 76, 64
4, 82796, Note_on_c, 2, 76, 0
4, 82800, Note_on_c, 2, 74, 64
4, 82916, Note_on_c, 2, 74, 0
4, 82920, Note_on_c, 2, 72, 64
4, 83036, Note_on_c, 2, 72, 0
4, 83040, Note_on_c, 2, 71, 64
4, 83156, Note_on_c, 2, 71, 0
4, 83160, Note_on_c, 2, 79, 64
4, 83276, Note_on_c, 2, 79, 0
4, 83280, Note_on_c, 2, 71, 64
4, 83396, Note_on_c, 2, 71, 0
4, 83400, Note_on_c, 2, 79, 64
4, 83516, Note_on_c, 2, 79, 0
4, 83520, Note_on_c, 2, 72, 64
4, 83756, Note_on_c, 2, 72, 0
4, 83760, Note_on_c, 2, 71, 64
4, 83876, Note_on_c, 2, 71, 0
4, 83880, Note_on_c, 2, 69, 64
4, 83996, Note_on_c, 2, 69, 0
4, 84000, Note_on_c, 2, 67, 64
4, 84116, Note_on_c, 2, 67, 0
4, 84120, Note_on_c, 2, 79, 64
4, 84236, Note_on_c, 2, 79, 0
4, 84240, Note_on_c, 2, 69, 64
4, 84356, Note_on_c, 2, 69, 0
4, 84360, Note_on_c, 2, 79, 64
4, 84476, Note_on_c, 2, 79, 0
4, 84480, Note_on_c, 2, 71, 64
4, 84716, Note_on_c, 2, 71, 0
4, 84720, Note_on_c, 2, 73, 64
4, 84956, Note_on_c, 2, 73, 0
4, 84960, Note_on_c, 2, 74, 64
4, 85196, Note_on_c, 2, 74, 0
4, 85200, Note_on_c, 2, 62, 64
4, 85316, Note_on_c, 2, 62, 0
4, 85320, Note_on_c, 2, 64, 64
4, 85436, Note_on_c, 2, 64, 0
4, 85440, Note_on_c, 2, 66, 64
4, 85676, Note_on_c, 2, 66, 0
4, 85680, Note_on_c, 2, 67, 64
4, 85916, Note_on_c, 2, 67, 0
4, 85920, Note_on_c, 2, 69, 64
4, 86156, Note_on_c, 2, 69, 0
4, 86160, Note_on_c, 2, 74, 64
4, 86396, Note_on_c, 2, 74, 0
4, 86400, Note_on_c, 2, 74, 64
4, 86636, Note_on_c, 2, 74, 0
4, 86640, Note_on_c, 2, 72, 64
4, 86756, Note_on_c, 2, 72, 0
4, 86760, Note_on_c, 2, 71, 64
4, 86876, Note_on_c, 2, 71, 0
4, 86880, Note_on_c, 2, 69, 64
4, 87116, Note_on_c, 2, 69, 0
4, 87120, Note_on_c, 2, 78, 64
4, 87356, Note_on_c, 2, 78, 0
4, 87360, Note_on_c, 2, 79, 64
4, 87596, Note_on_c, 2, 79, 0
4, 87600, Note_on_c, 2, 78, 64
4, 87716, Note_on_c, 2, 78, 0
4, 87720, Note_on_c, 2, 76, 64
4, 87836, Note_on_c, 2, 76, 0
4, 87840, Note_on_c, 2, 74, 64
4, 87956, Note_on_c, 2, 74, 0
4, 87960, Note_on_c, 2, 72, 64
4, 88076, Note_on_c, 2, 72, 0
4, 88080, Note_on_c, 2, 71, 64
4, 88196, Note_on_c, 2, 71, 0
4, 88200, Note_on_c, 2, 69, 64
4, 88316, Note_on_c, 2, 69, 0
4, 88320, Note_on_c, 2, 71, 64
4, 88556, Note_on_c, 2, 71, 0
4, 88560, Note_on_c, 2, 69, 64
4, 88676, Note_on_c, 2, 69, 0
4, 88680, Note_on_c, 2, 67, 64
4, 88796, Note_on_c, 2, 67, 0
4, 88800, Note_on_c, 2, 74, 64
4, 89036, Note_on_c, 2, 74, 0
4, 89040, Note_on_c, 2, 62, 64
4, 89276, Note_on_c, 2, 62, 0
4, 89280, Note_on_c, 2, 67, 64
4, 89756, Note_on_c, 2, 67, 0
4, 90240, Note_on_c, 2, 71, 64
4, 90356, Note_on_c, 2, 71, 0
4, 90360, Note_on_c, 2, 69, 64
4, 90476, Note_on_c, 2, 69, 0
4, 90480, Note_on_c, 2, 71, 64
4, 90716, Note_on_c, 2, 71, 0
4, 91200, Note_on_c, 2, 71, 64
4, 91316, Note_on_c, 2, 71, 0
4, 91320, Note_on_c, 2, 69, 64
4, 91436, Note_on_c, 2, 69, 0
4, 91440, Note_on_c, 2, 71, 64
4, 91676, Note_on_c, 2, 71, 0
4, 92160, Note_on_c, 2, 67, 64
4, 92276, Note_on_c, 2, 67, 0
4, 92280, Note_on_c, 2, 66, 64
4, 92396, Note_on_c, 2, 66, 0
4, 92400, Note_on_c, 2, 67, 64
4, 92636, Note_on_c, 2, 67, 0
4, 93120, Note_on_c, 2, 67, 64
4, 93236, Note_on_c, 2, 67, 0
4, 93240, Note_on_c, 2, 66, 64
4, 93356, Note_on_c, 2, 66, 0
4, 93360, Note_on_c, 2, 67, 64
4, 93596, Note_on_c, 2, 67, 0
4, 94080, Note_on_c, 2, 60, 64
4, 94196, Note_on_c, 2, 60, 0
4, 94200, Note_on_c, 2, 59, 64
4, 94316, Note_on_c, 2, 59, 0
4, 94320, Note_on_c, 2, 60, 64
4, 94556, Note_on_c, 2, 60, 0
4, 95040, Note_on_c, 2, 60, 64
4, 95156, Note_on_c, 2, 60, 0
4, 95160, Note_on_c, 2, 59, 64
4, 95276, Note_on_c, 2, 59, 0
4, 95280, Note_on_c, 2, 60, 64
4, 95516, Note_on_c, 2, 60, 0
4, 96000, Note_on_c, 2, 59, 64
4, 96116, Note_on_c, 2, 59, 0
4, 96120, Note_on_c, 2, 57, 64
4, 96236, Note_on_c, 2, 57, 0
4, 96240, Note_on_c, 2, 59, 64
4, 96356, Note_on_c, 2, 59, 0
4, 96360, Note_on_c, 2, 61, 64
4, 96476, Note_on_c, 2, 61, 0
4, 96480, Note_on_c, 2, 62, 64
4, 96596, Note_on_c, 2, 62, 0
4, 96600, Note_on_c, 2, 61, 64
4, 96716, Note_on_c, 2, 61, 0
4, 96720, Note_on_c, 2, 62, 64
4, 96836, Note_on_c, 2, 62, 0
4, 96840, Note_on_c, 2, 64, 64
4, 96956, Note_on_c, 2, 64, 0
4, 96960, Note_on_c, 2, 66, 64
4, 97436, Note_on_c, 2, 66, 0
4, 97920, Note_on_c, 2, 69, 64
4, 98036, Note_on_c, 2, 69, 0
4, 98040, Note_on_c, 2, 67, 64
4, 98156, Note_on_c, 2, 67, 0
4, 98160, Note_on_c, 2, 69, 64
4, 98396, Note_on_c, 2, 69, 0
4, 98880, Note_on_c, 2, 66, 64
4, 98996, Note_on_c, 2, 66, 0
4, 99000, Note_on_c, 2, 64, 64
4, 99116, Note_on_c, 2, 64, 0
4, 99120, Note_on_c, 2, 66, 64
4, 99356, Note_on_c, 2, 66, 0
4, 99840, Note_on_c, 2, 66, 64
4, 99956, Note_on_c, 2, 66, 0
4, 99960, Note_on_c, 2, 64, 64
4, 100076, Note_on_c, 2, 64, 0
4, 100080, Note_on_c, 2, 66, 64
4, 100316, Note_on_c, 2, 66, 0
4, 100800, Note_on_c, 2, 66, 64
4, 100916, Note_on_c, 2, 66, 0
4, 100920, Note_on_c, 2, 64, 64
4, 101036, Note_on_c, 2, 64, 0
4, 101040, Note_on_c, 2, 66, 64
4, 101276, Note_on_c, 2, 66, 0
4, 101760, Note_on_c, 2, 72, 64
4, 101876, Note_on_c, 2, 72, 0
4, 101880, Note_on_c, 2, 71, 64
4, 101996, Note_on_c, 2, 71, 0
4, 102000, Note_on_c, 2, 72, 64
4, 102236, Note_on_c, 2, 72, 0
4, 102720, Note_on_c, 2, 75, 64
4, 102836, Note_on_c, 2, 75, 0
4, 102840, Note_on_c, 2, 73, 64
4, 102956, Note_on_c, 2, 73, 0
4, 102960, Note_on_c, 2, 75, 64
4, 103196, Note_on_c, 2, 75, 0
4, 103440, Note_on_c, 2, 71, 64
4, 103556, Note_on_c, 2, 71, 0
4, 103560, Note_on_c, 2, 69, 64
4, 103676, Note_on_c, 2, 69, 0
4, 103680, Note_on_c, 2, 71, 64
4, 103916, Note_on_c, 2, 71, 0
4, 103920, Note_on_c, 2, 64, 64
4, 104036, Note_on_c, 2, 64, 0
4, 104040, Note_on_c, 2, 63, 64
4, 104156, Note_on_c, 2, 63, 0
4, 104160, Note_on_c, 2, 64, 64
4, 104396, Note_on_c, 2, 64, 0
4, 105840, Note_on_c, 2, 64, 64
4, 105956, Note_on_c, 2, 64, 0
4, 105960, Note_on_c, 2, 66, 64
4, 106076, Note_on_c, 2, 66, 0
4, 106080, Note_on_c, 2, 67, 64
4, 106316, Note_on_c, 2, 67, 0
4, 106320, Note_on_c, 2, 69, 64
4, 106556, Note_on_c, 2, 69, 0
4, 106560, Note_on_c, 2, 71, 64
4, 106796, Note_on_c, 2, 71, 0
4, 106800, Note_on_c, 2, 66, 64
4, 106916, Note_on_c, 2, 66, 0
4, 106920, Note_on_c, 2, 64, 64
4, 107036, Note_on_c, 2, 64, 0
4, 107040, Note_on_c, 2, 66, 64
4, 107276, Note_on_c, 2, 66, 0
4, 107280, Note_on_c, 2, 69, 64
4, 107396, Note_on_c, 2, 69, 0
4, 107400, Note_on_c, 2, 67, 64
4, 107516, Note_on_c, 2, 67, 0
4, 107520, Note_on_c, 2, 69, 64
4, 107756, Note_on_c, 2, 69, 0
4, 108720, Note_on_c, 2, 63, 64
4, 108836, Note_on_c, 2, 63, 0
4, 108840, Note_on_c, 2, 61, 64
4, 108956, Note_on_c, 2, 61, 0
4, 108960, Note_on_c, 2, 63, 64
4, 109196, Note_on_c, 2, 63, 0
4, 109200, Note_on_c, 2, 83, 64
4, 109436, Note_on_c, 2, 83, 0
4, 109440, Note_on_c, 2, 79, 64
4, 109676, Note_on_c, 2, 79, 0
4, 109680, Note_on_c, 2, 78, 64
4, 109796, Note_on_c, 2, 78, 0
4, 109800, Note_on_c, 2, 76, 64
4, 109916, Note_on_c, 2, 76, 0
4, 109920, Note_on_c, 2, 78, 64
4, 110156, Note_on_c, 2, 78, 0
4, 110160, Note_on_c, 2, 76, 64
4, 110276, Note_on_c, 2, 76, 0
4, 110280, Note_on_c, 2, 75, 64
4, 110396, Note_on_c, 2, 75, 0
4, 110400, Note_on_c, 2, 84, 64
4, 110756, Note_on_c, 2, 84, 0
4, 110760, Note_on_c, 2, 83, 64
4, 110876, Note_on_c, 2, 83, 0
4, 110880, Note_on_c, 2, 81, 64
4, 110996, Note_on_c, 2, 81, 0
4, 111000, Note_on_c, 2, 79, 64
4, 111116, Note_on_c, 2, 79, 0
4, 111120, Note_on_c, 2, 78, 64
4, 111236, Note_on_c, 2, 78, 0
4, 111240, Note_on_c, 2, 76, 64
4, 111356, Note_on_c, 2, 76, 0
4, 111360, Note_on_c, 2, 83, 64
4, 111596, Note_on_c, 2, 83, 0
4, 111600, Note_on_c, 2, 81, 64
4, 111716, Note_on_c, 2, 81, 0
4, 111720, Note_on_c, 2, 79, 64
4, 111836, Note_on_c, 2, 79, 0
4, 111840, Note_on_c, 2, 78, 64
4, 112076, Note_on_c, 2, 78, 0
4, 112080, Note_on_c, 2, 76, 64
4, 112196, Note_on_c, 2, 76, 0
4, 112200, Note_on_c, 2, 75, 64
4, 112316, Note_on_c, 2, 75, 0
4, 112320, Note_on_c, 2, 76, 64
4, 112556, Note_on_c, 2, 76, 0
4, 112560, Note_on_c, 2, 67, 64
4, 112676, Note_on_c, 2, 67, 0
4, 112680, Note_on_c, 2, 66, 64
4, 112796, Note_on_c, 2, 66, 0
4, 112800, Note_on_c, 2, 64, 64
4, 113036, Note_on_c, 2, 64, 0
4, 113520, Note_on_c, 2, 67, 64
4, 113636, Note_on_c, 2, 67, 0
4, 113640, Note_on_c, 2, 66, 64
4, 113756, Note_on_c, 2, 66, 0
4, 113760, Note_on_c, 2, 64, 64
4, 113996, Note_on_c, 2, 64, 0
4, 114480, Note_on_c, 2, 67, 64
4, 114596, Note_on_c, 2, 67, 0
4, 114600, Note_on_c, 2, 66, 64
4, 114716, Note_on_c, 2, 66, 0
4, 114720, Note_on_c, 2, 64, 64
4, 114956, Note_on_c, 2, 64, 0
4, 115440, Note_on_c, 2, 67, 64
4, 115556, Note_on_c, 2, 67, 0
4, 115560, Note_on_c, 2, 69, 64
4, 115676, Note_on_c, 2, 69, 0
4, 115680, Note_on_c, 2, 71, 64
4, 115916, Note_on_c, 2, 71, 0
4, 115920, Note_on_c, 2, 71, 64
4, 116156, Note_on_c, 2, 71, 0
4, 116160, Note_on_c, 2, 73, 64
4, 116636, Note_on_c, 2, 73, 0
4, 116880, Note_on_c, 2, 68, 64
4, 117116, Note_on_c, 2, 68, 0
4, 117120, Note_on_c, 2, 64, 64
4, 117596, Note_on_c, 2, 64, 0
4, 117840, Note_on_c, 2, 71, 64
4, 118076, Note_on_c, 2, 71, 0
4, 118080, Note_on_c, 2, 73, 64
4, 118196, Note_on_c, 2, 73, 0
4, 118200, Note_on_c, 2, 76, 64
4, 118316, Note_on_c, 2, 76, 0
4, 118320, Note_on_c, 2, 69, 64
4, 118436, Note_on_c, 2, 69, 0
4, 118440, Note_on_c, 2, 71, 64
4, 118556, Note_on_c, 2, 71, 0
4, 118560, Note_on_c, 2, 73, 64
4, 118676, Note_on_c, 2, 73, 0
4, 118680, Note_on_c, 2, 74, 64
4, 118796, Note_on_c, 2, 74, 0
4, 118800, Note_on_c, 2, 76, 64
4, 118916, Note_on_c, 2, 76, 0
4, 118920, Note_on_c, 2, 74, 64
4, 119036, Note_on_c, 2, 74, 0
4, 119040, Note_on_c, 2, 73, 64
4, 119276, Note_on_c, 2, 73, 0
4, 119280, Note_on_c, 2, 81, 64
4, 119516, Note_on_c, 2, 81, 0
4, 119520, Note_on_c, 2, 76, 64
4, 119756, Note_on_c, 2, 76, 0
4, 119760, Note_on_c, 2, 73, 64
4, 119996, Note_on_c, 2, 73, 0
4, 120000, Note_on_c, 2, 69, 64
4, 120236, Note_on_c, 2, 69, 0
4, 120240, Note_on_c, 2, 78, 64
4, 120356, Note_on_c, 2, 78, 0
4, 120360, Note_on_c, 2, 76, 64
4, 120476, Note_on_c, 2, 76, 0
4, 120480, Note_on_c, 2, 74, 64
4, 120716, Note_on_c, 2, 74, 0
4, 121200, Note_on_c, 2, 78, 64
4, 121316, Note_on_c, 2, 78, 0
4, 121320, Note_on_c, 2, 76, 64
4, 121436, Note_on_c, 2, 76, 0
4, 121440, Note_on_c, 2, 74, 64
4, 121676, Note_on_c, 2, 74, 0
4, 122160, Note_on_c, 2, 78, 64
4, 122276, Note_on_c, 2, 78, 0
4, 122280, Note_on_c, 2, 76, 64
4, 122396, Note_on_c, 2, 76, 0
4, 122400, Note_on_c, 2, 74, 64
4, 122636, Note_on_c, 2, 74, 0
4, 123600, Note_on_c, 2, 74, 64
4, 123836, Note_on_c, 2, 74, 0
4, 123840, Note_on_c, 2, 71, 64
4, 123956, Note_on_c, 2, 71, 0
4, 123960, Note_on_c, 2, 74, 64
4, 124076, Note_on_c, 2, 74, 0
4, 124080, Note_on_c, 2, 67, 64
4, 124196, Note_on_c, 2, 67, 0
4, 124200, Note_on_c, 2, 69, 64
4, 124316, Note_on_c, 2, 69, 0
4, 124320, Note_on_c, 2, 71, 64
4, 124436, Note_on_c, 2, 71, 0
4, 124440, Note_on_c, 2, 72, 64
4, 124556, Note_on_c, 2, 72, 0
4, 124560, Note_on_c, 2, 74, 64
4, 124676, Note_on_c, 2, 74, 0
4, 124680, Note_on_c, 2, 72, 64
4, 124796, Note_on_c, 2, 72, 0
4, 124800, Note_on_c, 2, 71, 64
4, 125036, Note_on_c, 2, 71, 0
4, 125040, Note_on_c, 2, 71, 64
4, 125156, Note_on_c, 2, 71, 0
4, 125160, Note_on_c, 2, 69, 64
4, 125276, Note_on_c, 2, 69, 0
4, 125280, Note_on_c, 2, 67, 64
4, 125516, Note_on_c, 2, 67, 0
4, 126480, Note_on_c, 2, 71, 64
4, 126596, Note_on_c, 2, 71, 0
4, 126600, Note_on_c, 2, 69, 64
4, 126716, Note_on_c, 2, 69, 0
4, 126720, Note_on_c, 2, 67, 64
4, 126956, Note_on_c, 2, 67, 0
4, 126960, Note_on_c, 2, 71, 64
4, 127076, Note_on_c, 2, 71, 0
4, 127080, Note_on_c, 2, 69, 64
4, 127196, Note_on_c, 2, 69, 0
4, 127200, Note_on_c, 2, 67, 64
4, 127436, Note_on_c, 2, 67, 0
4, 128280, Note_on_c, 2, 62, 64
4, 128396, Note_on_c, 2, 62, 0
4, 128400, Note_on_c, 2, 64, 64
4, 128516, Note_on_c, 2, 64, 0
4, 128520, Note_on_c, 2, 66, 64
4, 128636, Note_on_c, 2, 66, 0
4, 128640, Note_on_c, 2, 67, 64
4, 128756, Note_on_c, 2, 67, 0
4, 128760, Note_on_c, 2, 66, 64
4, 128876, Note_on_c, 2, 66, 0
4, 128880, Note_on_c, 2, 67, 64
4, 128996, Note_on_c, 2, 67, 0
4, 129000, Note_on_c, 2, 76, 64
4, 129116, Note_on_c, 2, 76, 0
4, 129120, Note_on_c, 2, 73, 64
4, 129236, Note_on_c, 2, 73, 0
4, 129240, Note_on_c, 2, 70, 64
4, 129356, Note_on_c, 2, 70, 0
4, 129360, Note_on_c, 2, 67, 64
4, 129476, Note_on_c, 2, 67, 0
4, 129480, Note_on_c, 2, 64, 64
4, 129596, Note_on_c, 2, 64, 0
4, 129600, Note_on_c, 2, 67, 64
4, 129716, Note_on_c, 2, 67, 0
4, 129720, Note_on_c, 2, 66, 64
4, 129836, Note_on_c, 2, 66, 0
4, 129840, Note_on_c, 2, 67, 64
4, 129956, Note_on_c, 2, 67, 0
4, 129960, Note_on_c, 2, 76, 64
4, 130076, Note_on_c, 2, 76, 0
4, 130080, Note_on_c, 2, 73, 64
4, 130196, Note_on_c, 2, 73, 0
4, 130200, Note_on_c, 2, 70, 64
4, 130316, Note_on_c, 2, 70, 0
4, 130320, Note_on_c, 2, 67, 64
4, 130436, Note_on_c, 2, 67, 0
4, 130440, Note_on_c, 2, 64, 64
4, 130556, Note_on_c, 2, 64, 0
4, 130560, Note_on_c, 2, 66, 64
4, 130676, Note_on_c, 2, 66, 0
4, 130680, Note_on_c, 2, 64, 64
4, 130796, Note_on_c, 2, 64, 0
4, 130800, Note_on_c, 2, 66, 64
4, 130916, Note_on_c, 2, 66, 0
4, 130920, Note_on_c, 2, 76, 64
4, 131036, Note_on_c, 2, 76, 0
4, 131040, Note_on_c, 2, 73, 64
4, 131156, Note_on_c, 2, 73, 0
4, 131160, Note_on_c, 2, 70, 64
4, 131276, Note_on_c, 2, 70, 0
4, 131280, Note_on_c, 2, 66, 64
4, 131396, Note_on_c, 2, 66, 0
4, 131400, Note_on_c, 2, 61, 64
4, 131516, Note_on_c, 2, 61, 0
4, 131520, Note_on_c, 2, 66, 64
4, 131636, Note_on_c, 2, 66, 0
4, 131640, Note_on_c, 2, 64, 64
4, 131756, Note_on_c, 2, 64, 0
4, 131760, Note_on_c, 2, 66, 64
4, 131876, Note_on_c, 2, 66, 0
4, 131880, Note_on_c, 2, 76, 64
4, 131996, Note_on_c, 2, 76, 0
4, 132000, Note_on_c, 2, 73, 64
4, 132116, Note_on_c, 2, 73, 0
4, 132120, Note_on_c, 2, 70, 64
4, 132236, Note_on_c, 2, 70, 0
4, 132240, Note_on_c, 2, 66, 64
4, 132356, Note_on_c, 2, 66, 0
4, 132360, Note_on_c, 2, 61, 64
4, 132476, Note_on_c, 2, 61, 0
4, 132480, Note_on_c, 2, 64, 64
4, 132596, Note_on_c, 2, 64, 0
4, 132600, Note_on_c, 2, 62, 64
4, 132716, Note_on_c, 2, 62, 0
4, 132720, Note_on_c, 2, 64, 64
4, 132836, Note_on_c, 2, 64, 0
4, 132840, Note_on_c, 2, 73, 64
4, 132956, Note_on_c, 2, 73, 0
4, 132960, Note_on_c, 2, 70, 64
4, 133076, Note_on_c, 2, 70, 0
4, 133080, Note_on_c, 2, 66, 64
4, 133196, Note_on_c, 2, 66, 0
4, 133200, Note_on_c, 2, 64, 64
4, 133316, Note_on_c, 2, 64, 0
4, 133320, Note_on_c, 2, 61, 64
4, 133436, Note_on_c, 2, 61, 0
4, 133440, Note_on_c, 2, 64, 64
4, 133556, Note_on_c, 2, 64, 0
4, 133560, Note_on_c, 2, 62, 64
4, 133676, Note_on_c, 2, 62, 0
4, 133680, Note_on_c, 2, 64, 64
4, 133796, Note_on_c, 2, 64, 0
4, 133800, Note_on_c, 2, 73, 64
4, 133916, Note_on_c, 2, 73, 0
4, 133920, Note_on_c, 2, 70, 64
4, 134036, Note_on_c, 2, 70, 0
4, 134040, Note_on_c, 2, 66, 64
4, 134156, Note_on_c, 2, 66, 0
4, 134160, Note_on_c, 2, 64, 64
4, 134276, Note_on_c, 2, 64, 0
4, 134280, Note_on_c, 2, 61, 64
4, 134396, Note_on_c, 2, 61, 0
4, 134400, Note_on_c, 2, 62, 64
4, 134636, Note_on_c, 2, 62, 0
4, 134640, Note_on_c, 2, 71, 64
4, 134756, Note_on_c, 2, 71, 0
4, 134760, Note_on_c, 2, 70, 64
4, 134876, Note_on_c, 2, 70, 0
4, 134880, Note_on_c, 2, 71, 64
4, 135116, Note_on_c, 2, 71, 0
4, 135120, Note_on_c, 2, 74, 64
4, 135236, Note_on_c, 2, 74, 0
4, 135240, Note_on_c, 2, 73, 64
4, 135356, Note_on_c, 2, 73, 0
4, 135360, Note_on_c, 2, 74, 64
4, 135596, Note_on_c, 2, 74, 0
4, 135600, Note_on_c, 2, 66, 64
4, 135716, Note_on_c, 2, 66, 0
4, 135720, Note_on_c, 2, 64, 64
4, 135836, Note_on_c, 2, 64, 0
4, 135840, Note_on_c, 2, 66, 64
4, 136076, Note_on_c, 2, 66, 0
4, 136080, Note_on_c, 2, 74, 64
4, 136196, Note_on_c, 2, 74, 0
4, 136200, Note_on_c, 2, 73, 64
4, 136316, Note_on_c, 2, 73, 0
4, 136320, Note_on_c, 2, 74, 64
4, 136556, Note_on_c, 2, 74, 0
4, 136560, Note_on_c, 2, 71, 64
4, 136676, Note_on_c, 2, 71, 0
4, 136680, Note_on_c, 2, 73, 64
4, 136796, Note_on_c, 2, 73, 0
4, 136800, Note_on_c, 2, 74, 64
4, 137036, Note_on_c, 2, 74, 0
4, 137040, Note_on_c, 2, 76, 64
4, 137276, Note_on_c, 2, 76, 0
4, 137280, Note_on_c, 2, 78, 64
4, 137396, Note_on_c, 2, 78, 0
4, 137400, Note_on_c, 2, 76, 64
4, 137516, Note_on_c, 2, 76, 0
4, 137520, Note_on_c, 2, 78, 64
4, 137636, Note_on_c, 2, 78, 0
4, 137640, Note_on_c, 2, 79, 64
4, 137756, Note_on_c, 2, 79, 0
4, 137760, Note_on_c, 2, 78, 64
4, 137876, Note_on_c, 2, 78, 0
4, 137880, Note_on_c, 2, 76, 64
4, 137996, Note_on_c, 2, 76, 0
4, 138000, Note_on_c, 2, 74, 64
4, 138116, Note_on_c, 2, 74, 0
4, 138120, Note_on_c, 2, 73, 64
4, 138236, Note_on_c, 2, 73, 0
4, 138240, Note_on_c, 2, 74, 64
4, 138356, Note_on_c, 2, 74, 0
4, 138360, Note_on_c, 2, 76, 64
4, 138476, Note_on_c, 2, 76, 0
4, 138480, Note_on_c, 2, 74, 64
4, 138596, Note_on_c, 2, 74, 0
4, 138600, Note_on_c, 2, 76, 64
4, 138716, Note_on_c, 2, 76, 0
4, 138720, Note_on_c, 2, 76, 64
4, 138756, Note_on_c, 2, 76, 0
4, 138760, Note_on_c, 2, 78, 64
4, 138796, Note_on_c, 2, 78, 0
4, 138800, Note_on_c, 2, 76, 64
4, 139076, Note_on_c, 2, 76, 0
4, 139080, Note_on_c, 2, 74, 64
4, 139136, Note_on_c, 2, 74, 0
4, 139140, Note_on_c, 2, 76, 64
4, 139196, Note_on_c, 2, 76, 0
4, 139200, Note_on_c, 2, 78, 64
4, 139436, Note_on_c, 2, 78, 0
4, 139440, Note_on_c, 2, 83, 64
4, 139556, Note_on_c, 2, 83, 0
4, 139560, Note_on_c, 2, 82, 64
4, 139676, Note_on_c, 2, 82, 0
4, 139680, Note_on_c, 2, 83, 64
4, 139916, Note_on_c, 2, 83, 0
4, 139920, Note_on_c, 2, 78, 64
4, 140036, Note_on_c, 2, 78, 0
4, 140040, Note_on_c, 2, 76, 64
4, 140156, Note_on_c, 2, 76, 0
4, 140160, Note_on_c, 2, 74, 64
4, 140396, Note_on_c, 2, 74, 0
4, 140400, Note_on_c, 2, 73, 64
4, 140516, Note_on_c, 2, 73, 0
4, 140520, Note_on_c, 2, 71, 64
4, 140636, Note_on_c, 2, 71, 0
4, 140640, Note_on_c, 2, 73, 64
4, 140876, Note_on_c, 2, 73, 0
4, 140880, Note_on_c, 2, 71, 64
4, 140996, Note_on_c, 2, 71, 0
4, 141000, Note_on_c, 2, 70, 64
4, 141116, Note_on_c, 2, 70, 0
4, 141120, Note_on_c, 2, 79, 64
4, 141476, Note_on_c, 2, 79, 0
4, 141480, Note_on_c, 2, 78, 64
4, 141596, Note_on_c, 2, 78, 0
4, 141600, Note_on_c, 2, 76, 64
4, 141716, Note_on_c, 2, 76, 0
4, 141720, Note_on_c, 2, 74, 64
4, 141836, Note_on_c, 2, 74, 0
4, 141840, Note_on_c, 2, 73, 64
4, 141956, Note_on_c, 2, 73, 0
4, 141960, Note_on_c, 2, 71, 64
4, 142076, Note_on_c, 2, 71, 0
4, 142080, Note_on_c, 2, 62, 64
4, 142316, Note_on_c, 2, 62, 0
4, 142320, Note_on_c, 2, 67, 64
4, 142556, Note_on_c, 2, 67, 0
4, 142560, Note_on_c, 2, 66, 64
4, 142796, Note_on_c, 2, 66, 0
4, 142800, Note_on_c, 2, 66, 64
4, 143036, Note_on_c, 2, 66, 0
4, 143040, Note_on_c, 2, 62, 64
4, 143516, Note_on_c, 2, 62, 0
4, 145200, Note_on_c, 2, 66, 64
4, 145316, Note_on_c, 2, 66, 0
4, 145320, Note_on_c, 2, 64, 64
4, 145436, Note_on_c, 2, 64, 0
4, 145440, Note_on_c, 2, 66, 64
4, 145676, Note_on_c, 2, 66, 0
4, 145680, Note_on_c, 2, 71, 64
4, 145796, Note_on_c, 2, 71, 0
4, 145800, Note_on_c, 2, 70, 64
4, 145916, Note_on_c, 2, 70, 0
4, 145920, Note_on_c, 2, 71, 64
4, 146156, Note_on_c, 2, 71, 0
4, 146160, Note_on_c, 2, 71, 64
4, 146396, Note_on_c, 2, 71, 0
4, 146400, Note_on_c, 2, 71, 64
4, 146636, Note_on_c, 2, 71, 0
4, 146640, Note_on_c, 2, 67, 64
4, 146756, Note_on_c, 2, 67, 0
4, 146760, Note_on_c, 2, 69, 64
4, 146876, Note_on_c, 2, 69, 0
4, 146880, Note_on_c, 2, 67, 64
4, 147116, Note_on_c, 2, 67, 0
4, 147120, Note_on_c, 2, 66, 64
4, 147356, Note_on_c, 2, 66, 0
4, 147360, Note_on_c, 2, 66, 64
4, 147596, Note_on_c, 2, 66, 0
4, 147600, Note_on_c, 2, 66, 64
4, 147716, Note_on_c, 2, 66, 0
4, 147720, Note_on_c, 2, 67, 64
4, 147836, Note_on_c, 2, 67, 0
4, 147840, Note_on_c, 2, 66, 64
4, 148076, Note_on_c, 2, 66, 0
4, 148080, Note_on_c, 2, 67, 64
4, 148316, Note_on_c, 2, 67, 0
4, 148320, Note_on_c, 2, 66, 64
4, 148356, Note_on_c, 2, 66, 0
4, 148360, Note_on_c, 2, 67, 64
4, 148396, Note_on_c, 2, 67, 0
4, 148400, Note_on_c, 2, 66, 64
4, 148556, Note_on_c, 2, 66, 0
4, 148560, Note_on_c, 2, 66, 64
4, 148716, Note_on_c, 2, 66, 0
4, 148720, Note_on_c, 2, 66, 64
4, 149196, Note_on_c, 2, 66, 0
4, 165120, Note_on_c, 2, 55, 64
4, 165596, Note_on_c, 2, 55, 0
4, 165600, Note_on_c, 2, 59, 64
4, 166076, Note_on_c, 2, 59, 0
4, 166080, Note_on_c, 2, 62, 64
4, 166556, Note_on_c, 2, 62, 0
4, 166800, Note_on_c, 2, 62, 64
4, 167036, Note_on_c, 2, 62, 0
4, 167040, Note_on_c, 2, 59, 64
4, 167276, Note_on_c, 2, 59, 0
4, 167280, Note_on_c, 2, 62, 64
4, 167516, Note_on_c, 2, 62, 0
4, 167520, Note_on_c, 2, 67, 64
4, 167636, Note_on_c, 2, 67, 0
4, 167640, Note_on_c, 2, 71, 64
4, 167756, Note_on_c, 2, 71, 0
4, 167760, Note_on_c, 2, 69, 64
4, 167876, Note_on_c, 2, 69, 0
4, 167880, Note_on_c, 2, 67, 64
4, 167996, Note_on_c, 2, 67, 0
4, 168000, Note_on_c, 2, 74, 64
4, 168116, Note_on_c, 2, 74, 0
4, 168120, Note_on_c, 2, 66, 64
4, 168236, Note_on_c, 2, 66, 0
4, 168240, Note_on_c, 2, 69, 64
4, 168356, Note_on_c, 2, 69, 0
4, 168360, Note_on_c, 2, 66, 64
4, 168476, Note_on_c, 2, 66, 0
4, 168480, Note_on_c, 2, 69, 64
4, 168596, Note_on_c, 2, 69, 0
4, 168600, Note_on_c, 2, 66, 64
4, 168716, Note_on_c, 2, 66, 0
4, 168720, Note_on_c, 2, 69, 64
4, 168836, Note_on_c, 2, 69, 0
4, 168840, Note_on_c, 2, 66, 64
4, 168956, Note_on_c, 2, 66, 0
4, 168960, Note_on_c, 2, 71, 64
4, 169076, Note_on_c, 2, 71, 0
4, 169080, Note_on_c, 2, 67, 64
4, 169196, Note_on_c, 2, 67, 0
4, 169200, Note_on_c, 2, 71, 64
4, 169316, Note_on_c, 2, 71, 0
4, 169320, Note_on_c, 2, 67, 64
4, 169436, Note_on_c, 2, 67, 0
4, 169440, Note_on_c, 2, 71, 64
4, 169556, Note_on_c, 2, 71, 0
4, 169560, Note_on_c, 2, 67, 64
4, 169676, Note_on_c, 2, 67, 0
4, 169680, Note_on_c, 2, 71, 64
4, 169796, Note_on_c, 2, 71, 0
4, 169800, Note_on_c, 2, 67, 64
4, 169916, Note_on_c, 2, 67, 0
4, 169920, Note_on_c, 2, 67, 64
4, 170036, Note_on_c, 2, 67, 0
4, 170040, Note_on_c, 2, 64, 64
4, 170156, Note_on_c, 2, 64, 0
4, 170160, Note_on_c, 2, 67, 64
4, 170276, Note_on_c, 2, 67, 0
4, 170280, Note_on_c, 2, 64, 64
4, 170396, Note_on_c, 2, 64, 0
4, 170400, Note_on_c, 2, 67, 64
4, 170516, Note_on_c, 2, 67, 0
4, 170520, Note_on_c, 2, 64, 64
4, 170636, Note_on_c, 2, 64, 0
4, 170640, Note_on_c, 2, 67, 64
4, 170756, Note_on_c, 2, 67, 0
4, 170760, Note_on_c, 2, 64, 64
4, 170876, Note_on_c, 2, 64, 0
4, 170880, Note_on_c, 2, 70, 64
4, 170996, Note_on_c, 2, 70, 0
4, 171000, Note_on_c, 2, 66, 64
4, 171116, Note_on_c, 2, 66, 0
4, 171120, Note_on_c, 2, 70, 64
4, 171236, Note_on_c, 2, 70, 0
4, 171240, Note_on_c, 2, 66, 64
4, 171356, Note_on_c, 2, 66, 0
4, 171360, Note_on_c, 2, 70, 64
4, 171476, Note_on_c, 2, 70, 0
4, 171480, Note_on_c, 2, 66, 64
4, 171596, Note_on_c, 2, 66, 0
4, 171600, Note_on_c, 2, 70, 64
4, 171716, Note_on_c, 2, 70, 0
4, 171720, Note_on_c, 2, 66, 64
4, 171836, Note_on_c, 2, 66, 0
4, 171840, Note_on_c, 2, 66, 64
4, 171956, Note_on_c, 2, 66, 0
4, 171960, Note_on_c, 2, 63, 64
4, 172076, Note_on_c, 2, 63, 0
4, 172080, Note_on_c, 2, 66, 64
4, 172196, Note_on_c, 2, 66, 0
4, 172200, Note_on_c, 2, 63, 64
4, 172316, Note_on_c, 2, 63, 0
4, 172320, Note_on_c, 2, 66, 64
4, 172436, Note_on_c, 2, 66, 0
4, 172440, Note_on_c, 2, 63, 64
4, 172556, Note_on_c, 2, 63, 0
4, 172560, Note_on_c, 2, 66, 64
4, 172676, Note_on_c, 2, 66, 0
4, 172680, Note_on_c, 2, 63, 64
4, 172796, Note_on_c, 2, 63, 0
4, 172800, Note_on_c, 2, 68, 64
4, 172916, Note_on_c, 2, 68, 0
4, 172920, Note_on_c, 2, 64, 64
4, 173036, Note_on_c, 2, 64, 0
4, 173040, Note_on_c, 2, 68, 64
4, 173156, Note_on_c, 2, 68, 0
4, 173160, Note_on_c, 2, 64, 64
4, 173276, Note_on_c, 2, 64, 0
4, 173280, Note_on_c, 2, 68, 64
4, 173396, Note_on_c, 2, 68, 0
4, 173400, Note_on_c, 2, 64, 64
4, 173516, Note_on_c, 2, 64, 0
4, 173520, Note_on_c, 2, 68, 64
4, 173636, Note_on_c, 2, 68, 0
4, 173640, Note_on_c, 2, 64, 64
4, 173756, Note_on_c, 2, 64, 0
4, 173760, Note_on_c, 2, 64, 64
4, 173876, Note_on_c, 2, 64, 0
4, 173880, Note_on_c, 2, 60, 64
4, 173996, Note_on_c, 2, 60, 0
4, 174000, Note_on_c, 2, 64, 64
4, 174116, Note_on_c, 2, 64, 0
4, 174120, Note_on_c, 2, 60, 64
4, 174236, Note_on_c, 2, 60, 0
4, 174240, Note_on_c, 2, 64, 64
4, 174356, Note_on_c, 2, 64, 0
4, 174360, Note_on_c, 2, 60, 64
4, 174476, Note_on_c, 2, 60, 0
4, 174480, Note_on_c, 2, 64, 64
4, 174596, Note_on_c, 2, 64, 0
4, 174600, Note_on_c, 2, 60, 64
4, 174716, Note_on_c, 2, 60, 0
4, 174720, Note_on_c, 2, 62, 64
4, 174836, Note_on_c, 2, 62, 0
4, 174840, Note_on_c, 2, 60, 64
4, 174956, Note_on_c, 2, 60, 0
4, 174960, Note_on_c, 2, 62, 64
4, 175196, Note_on_c, 2, 62, 0
4, 175680, Note_on_c, 2, 62, 64
4, 175796, Note_on_c, 2, 62, 0
4, 175800, Note_on_c, 2, 60, 64
4, 175916, Note_on_c, 2, 60, 0
4, 175920, Note_on_c, 2, 62, 64
4, 176156, Note_on_c, 2, 62, 0
4, 176640, Note_on_c, 2, 66, 64
4, 176756, Note_on_c, 2, 66, 0
4, 176760, Note_on_c, 2, 64, 64
4, 176876, Note_on_c, 2, 64, 0
4, 176880, Note_on_c, 2, 66, 64
4, 177116, Note_on_c, 2, 66, 0
4, 177600, Note_on_c, 2, 66, 64
4, 177716, Note_on_c, 2, 66, 0
4, 177720, Note_on_c, 2, 64, 64
4, 177836, Note_on_c, 2, 64, 0
4, 177840, Note_on_c, 2, 66, 64
4, 178076, Note_on_c, 2, 66, 0
4, 178560, Note_on_c, 2, 68, 64
4, 178676, Note_on_c, 2, 68, 0
4, 178680, Note_on_c, 2, 66, 64
4, 178796, Note_on_c, 2, 66, 0
4, 178800, Note_on_c, 2, 68, 64
4, 179036, Note_on_c, 2, 68, 0
4, 179520, Note_on_c, 2, 68, 64
4, 179636, Note_on_c, 2, 68, 0
4, 179640, Note_on_c, 2, 66, 64
4, 179756, Note_on_c, 2, 66, 0
4, 179760, Note_on_c, 2, 68, 64
4, 179996, Note_on_c, 2, 68, 0
4, 180480, Note_on_c, 2, 69, 64
4, 180596, Note_on_c, 2, 69, 0
4, 180600, Note_on_c, 2, 68, 64
4, 180716, Note_on_c, 2, 68, 0
4, 180720, Note_on_c, 2, 69, 64
4, 180956, Note_on_c, 2, 69, 0
4, 181440, Note_on_c, 2, 69, 64
4, 181556, Note_on_c, 2, 69, 0
4, 181560, Note_on_c, 2, 68, 64
4, 181676, Note_on_c, 2, 68, 0
4, 181680, Note_on_c, 2, 69, 64
4, 181916, Note_on_c, 2, 69, 0
4, 182400, Note_on_c, 2, 74, 64
4, 182516, Note_on_c, 2, 74, 0
4, 182520, Note_on_c, 2, 72, 64
4, 182636, Note_on_c, 2, 72, 0
4, 182640, Note_on_c, 2, 74, 64
4, 182876, Note_on_c, 2, 74, 0
4, 183360, Note_on_c, 2, 74, 64
4, 183476, Note_on_c, 2, 74, 0
4, 183480, Note_on_c, 2, 72, 64
4, 183596, Note_on_c, 2, 72, 0
4, 183600, Note_on_c, 2, 74, 64
4, 183836, Note_on_c, 2, 74, 0
4, 184320, Note_on_c, 2, 74, 64
4, 184436, Note_on_c, 2, 74, 0
4, 184440, Note_on_c, 2, 72, 64
4, 184556, Note_on_c, 2, 72, 0
4, 184560, Note_on_c, 2, 74, 64
4, 184796, Note_on_c, 2, 74, 0
4, 185280, Note_on_c, 2, 74, 64
4, 185396, Note_on_c, 2, 74, 0
4, 185400, Note_on_c, 2, 72, 64
4, 185516, Note_on_c, 2, 72, 0
4, 185520, Note_on_c, 2, 74, 64
4, 185756, Note_on_c, 2, 74, 0
4, 186240, Note_on_c, 2, 72, 64
4, 186476, Note_on_c, 2, 72, 0
4, 187440, Note_on_c, 2, 69, 64
4, 187556, Note_on_c, 2, 69, 0
4, 187560, Note_on_c, 2, 68, 64
4, 187676, Note_on_c, 2, 68, 0
4, 187680, Note_on_c, 2, 69, 64
4, 187916, Note_on_c, 2, 69, 0
4, 187920, Note_on_c, 2, 72, 64
4, 188156, Note_on_c, 2, 72, 0
4, 188160, Note_on_c, 2, 74, 64
4, 188396, Note_on_c, 2, 74, 0
4, 189360, Note_on_c, 2, 67, 64
4, 189476, Note_on_c, 2, 67, 0
4, 189480, Note_on_c, 2, 66, 64
4, 189596, Note_on_c, 2, 66, 0
4, 189600, Note_on_c, 2, 67, 64
4, 189836, Note_on_c, 2, 67, 0
4, 189840, Note_on_c, 2, 71, 64
4, 190076, Note_on_c, 2, 71, 0
4, 190080, Note_on_c, 2, 72, 64
4, 190316, Note_on_c, 2, 72, 0
4, 191280, Note_on_c, 2, 65, 64
4, 191396, Note_on_c, 2, 65, 0
4, 191400, Note_on_c, 2, 64, 64
4, 191516, Note_on_c, 2, 64, 0
4, 191520, Note_on_c, 2, 65, 64
4, 191756, Note_on_c, 2, 65, 0
4, 191760, Note_on_c, 2, 69, 64
4, 191996, Note_on_c, 2, 69, 0
4, 192000, Note_on_c, 2, 71, 64
4, 192236, Note_on_c, 2, 71, 0
4, 192240, Note_on_c, 2, 68, 64
4, 192356, Note_on_c, 2, 68, 0
4, 192360, Note_on_c, 2, 66, 64
4, 192476, Note_on_c, 2, 66, 0
4, 192480, Note_on_c, 2, 68, 64
4, 192716, Note_on_c, 2, 68, 0
4, 192720, Note_on_c, 2, 62, 64
4, 192836, Note_on_c, 2, 62, 0
4, 192840, Note_on_c, 2, 60, 64
4, 192956, Note_on_c, 2, 60, 0
4, 192960, Note_on_c, 2, 62, 64
4, 193196, Note_on_c, 2, 62, 0
4, 193200, Note_on_c, 2, 59, 64
4, 193316, Note_on_c, 2, 59, 0
4, 193320, Note_on_c, 2, 57, 64
4, 193436, Note_on_c, 2, 57, 0
4, 193440, Note_on_c, 2, 59, 64
4, 193676, Note_on_c, 2, 59, 0
4, 193680, Note_on_c, 2, 67, 64
4, 193916, Note_on_c, 2, 67, 0
4, 193920, Note_on_c, 2, 64, 64
4, 194156, Note_on_c, 2, 64, 0
4, 194160, Note_on_c, 2, 65, 64
4, 194396, Note_on_c, 2, 65, 0
4, 194400, Note_on_c, 2, 64, 64
4, 194636, Note_on_c, 2, 64, 0
4, 194640, Note_on_c, 2, 64, 64
4, 194876, Note_on_c, 2, 64, 0
4, 194880, Note_on_c, 2, 64, 64
4, 195356, Note_on_c, 2, 64, 0
4, 195600, Note_on_c, 2, 57, 64
4, 195836, Note_on_c, 2, 57, 0
4, 195840, Note_on_c, 2, 60, 64
4, 196076, Note_on_c, 2, 60, 0
4, 196080, Note_on_c, 2, 64, 64
4, 196316, Note_on_c, 2, 64, 0
4, 196320, Note_on_c, 2, 60, 64
4, 196556, Note_on_c, 2, 60, 0
4, 196560, Note_on_c, 2, 57, 64
4, 196796, Note_on_c, 2, 57, 0
4, 196800, Note_on_c, 2, 60, 64
4, 197036, Note_on_c, 2, 60, 0
4, 197040, Note_on_c, 2, 64, 64
4, 197276, Note_on_c, 2, 64, 0
4, 197280, Note_on_c, 2, 60, 64
4, 197516, Note_on_c, 2, 60, 0
4, 197520, Note_on_c, 2, 57, 64
4, 197756, Note_on_c, 2, 57, 0
4, 197760, Note_on_c, 2, 64, 64
4, 197996, Note_on_c, 2, 64, 0
4, 198000, Note_on_c, 2, 64, 64
4, 198236, Note_on_c, 2, 64, 0
4, 198240, Note_on_c, 2, 64, 64
4, 198356, Note_on_c, 2, 64, 0
4, 198360, Note_on_c, 2, 64, 64
4, 198476, Note_on_c, 2, 64, 0
4, 198480, Note_on_c, 2, 64, 64
4, 198716, Note_on_c, 2, 64, 0
4, 198960, Note_on_c, 2, 67, 64
4, 199076, Note_on_c, 2, 67, 0
4, 199080, Note_on_c, 2, 66, 64
4, 199196, Note_on_c, 2, 66, 0
4, 199200, Note_on_c, 2, 67, 64
4, 199316, Note_on_c, 2, 67, 0
4, 199320, Note_on_c, 2, 69, 64
4, 199436, Note_on_c, 2, 69, 0
4, 199440, Note_on_c, 2, 67, 64
4, 199556, Note_on_c, 2, 67, 0
4, 199560, Note_on_c, 2, 71, 64
4, 199676, Note_on_c, 2, 71, 0
4, 199680, Note_on_c, 2, 69, 64
4, 199796, Note_on_c, 2, 69, 0
4, 199800, Note_on_c, 2, 72, 64
4, 199916, Note_on_c, 2, 72, 0
4, 199920, Note_on_c, 2, 71, 64
4, 200036, Note_on_c, 2, 71, 0
4, 200040, Note_on_c, 2, 69, 64
4, 200156, Note_on_c, 2, 69, 0
4, 200160, Note_on_c, 2, 71, 64
4, 200276, Note_on_c, 2, 71, 0
4, 200280, Note_on_c, 2, 72, 64
4, 200396, Note_on_c, 2, 72, 0
4, 200400, Note_on_c, 2, 71, 64
4, 200516, Note_on_c, 2, 71, 0
4, 200520, Note_on_c, 2, 76, 64
4, 200636, Note_on_c, 2, 76, 0
4, 200640, Note_on_c, 2, 71, 64
4, 200756, Note_on_c, 2, 71, 0
4, 200760, Note_on_c, 2, 78, 64
4, 200876, Note_on_c, 2, 78, 0
4, 200880, Note_on_c, 2, 71, 64
4, 200996, Note_on_c, 2, 71, 0
4, 201000, Note_on_c, 2, 76, 64
4, 201116, Note_on_c, 2, 76, 0
4, 201120, Note_on_c, 2, 71, 64
4, 201236, Note_on_c, 2, 71, 0
4, 201240, Note_on_c, 2, 75, 64
4, 201356, Note_on_c, 2, 75, 0
4, 201360, Note_on_c, 2, 71, 64
4, 201476, Note_on_c, 2, 71, 0
4, 201480, Note_on_c, 2, 76, 64
4, 201596, Note_on_c, 2, 76, 0
4, 201600, Note_on_c, 2, 71, 64
4, 201716, Note_on_c, 2, 71, 0
4, 201720, Note_on_c, 2, 75, 64
4, 201836, Note_on_c, 2, 75, 0
4, 201840, Note_on_c, 2, 71, 64
4, 201956, Note_on_c, 2, 71, 0
4, 201960, Note_on_c, 2, 72, 64
4, 202076, Note_on_c, 2, 72, 0
4, 202080, Note_on_c, 2, 71, 64
4, 202196, Note_on_c, 2, 71, 0
4, 202200, Note_on_c, 2, 69, 64
4, 202316, Note_on_c, 2, 69, 0
4, 202320, Note_on_c, 2, 71, 64
4, 202556, Note_on_c, 2, 71, 0
4, 202560, Note_on_c, 2, 66, 64
4, 202796, Note_on_c, 2, 66, 0
4, 202800, Note_on_c, 2, 66, 64
4, 203036, Note_on_c, 2, 66, 0
4, 203040, Note_on_c, 2, 63, 64
4, 203276, Note_on_c, 2, 63, 0
4, 203280, Note_on_c, 2, 79, 64
4, 203396, Note_on_c, 2, 79, 0
4, 203400, Note_on_c, 2, 78, 64
4, 203516, Note_on_c, 2, 78, 0
4, 203520, Note_on_c, 2, 79, 64
4, 203756, Note_on_c, 2, 79, 0
4, 203760, Note_on_c, 2, 74, 64
4, 203876, Note_on_c, 2, 74, 0
4, 203880, Note_on_c, 2, 72, 64
4, 203996, Note_on_c, 2, 72, 0
4, 204000, Note_on_c, 2, 74, 64
4, 204236, Note_on_c, 2, 74, 0
4, 204240, Note_on_c, 2, 79, 64
4, 204356, Note_on_c, 2, 79, 0
4, 204360, Note_on_c, 2, 78, 64
4, 204476, Note_on_c, 2, 78, 0
4, 204480, Note_on_c, 2, 79, 64
4, 204716, Note_on_c, 2, 79, 0
4, 204720, Note_on_c, 2, 71, 64
4, 204836, Note_on_c, 2, 71, 0
4, 204840, Note_on_c, 2, 69, 64
4, 204956, Note_on_c, 2, 69, 0
4, 204960, Note_on_c, 2, 71, 64
4, 205196, Note_on_c, 2, 71, 0
4, 205200, Note_on_c, 2, 79, 64
4, 205316, Note_on_c, 2, 79, 0
4, 205320, Note_on_c, 2, 78, 64
4, 205436, Note_on_c, 2, 78, 0
4, 205440, Note_on_c, 2, 79, 64
4, 205676, Note_on_c, 2, 79, 0
4, 205680, Note_on_c, 2, 67, 64
4, 205796, Note_on_c, 2, 67, 0
4, 205800, Note_on_c, 2, 69, 64
4, 205916, Note_on_c, 2, 69, 0
4, 205920, Note_on_c, 2, 71, 64
4, 206156, Note_on_c, 2, 71, 0
4, 206160, Note_on_c, 2, 73, 64
4, 206396, Note_on_c, 2, 73, 0
4, 206400, Note_on_c, 2, 74, 64
4, 206636, Note_on_c, 2, 74, 0
4, 206640, Note_on_c, 2, 62, 64
4, 206876, Note_on_c, 2, 62, 0
4, 207360, Note_on_c, 2, 69, 64
4, 207476, Note_on_c, 2, 69, 0
4, 207480, Note_on_c, 2, 68, 64
4, 207596, Note_on_c, 2, 68, 0
4, 207600, Note_on_c, 2, 69, 64
4, 207836, Note_on_c, 2, 69, 0
4, 208320, Note_on_c, 2, 69, 64
4, 208436, Note_on_c, 2, 69, 0
4, 208440, Note_on_c, 2, 68, 64
4, 208556, Note_on_c, 2, 68, 0
4, 208560, Note_on_c, 2, 69, 64
4, 208796, Note_on_c, 2, 69, 0
4, 209280, Note_on_c, 2, 74, 64
4, 209396, Note_on_c, 2, 74, 0
4, 209400, Note_on_c, 2, 72, 64
4, 209516, Note_on_c, 2, 72, 0
4, 209520, Note_on_c, 2, 74, 64
4, 209756, Note_on_c, 2, 74, 0
4, 210240, Note_on_c, 2, 74, 64
4, 210356, Note_on_c, 2, 74, 0
4, 210360, Note_on_c, 2, 72, 64
4, 210476, Note_on_c, 2, 72, 0
4, 210480, Note_on_c, 2, 74, 64
4, 210716, Note_on_c, 2, 74, 0
4, 211200, Note_on_c, 2, 74, 64
4, 211316, Note_on_c, 2, 74, 0
4, 211320, Note_on_c, 2, 72, 64
4, 211436, Note_on_c, 2, 72, 0
4, 211440, Note_on_c, 2, 74, 64
4, 211556, Note_on_c, 2, 74, 0
4, 211560, Note_on_c, 2, 83, 64
4, 211676, Note_on_c, 2, 83, 0
4, 211680, Note_on_c, 2, 80, 64
4, 211796, Note_on_c, 2, 80, 0
4, 211800, Note_on_c, 2, 74, 64
4, 211916, Note_on_c, 2, 74, 0
4, 211920, Note_on_c, 2, 71, 64
4, 212036, Note_on_c, 2, 71, 0
4, 212040, Note_on_c, 2, 64, 64
4, 212156, Note_on_c, 2, 64, 0
4, 212160, Note_on_c, 2, 74, 64
4, 212276, Note_on_c, 2, 74, 0
4, 212280, Note_on_c, 2, 72, 64
4, 212396, Note_on_c, 2, 72, 0
4, 212400, Note_on_c, 2, 74, 64
4, 212516, Note_on_c, 2, 74, 0
4, 212520, Note_on_c, 2, 83, 64
4, 212636, Note_on_c, 2, 83, 0
4, 212640, Note_on_c, 2, 80, 64
4, 212756, Note_on_c, 2, 80, 0
4, 212760, Note_on_c, 2, 74, 64
4, 212876, Note_on_c, 2, 74, 0
4, 212880, Note_on_c, 2, 71, 64
4, 212996, Note_on_c, 2, 71, 0
4, 213000, Note_on_c, 2, 64, 64
4, 213116, Note_on_c, 2, 64, 0
4, 213120, Note_on_c, 2, 73, 64
4, 213356, Note_on_c, 2, 73, 0
4, 213360, Note_on_c, 2, 73, 64
4, 213596, Note_on_c, 2, 73, 0
4, 213600, Note_on_c, 2, 73, 64
4, 213836, Note_on_c, 2, 73, 0
4, 213840, Note_on_c, 2, 73, 64
4, 214076, Note_on_c, 2, 73, 0
4, 214080, Note_on_c, 2, 73, 64
4, 214316, Note_on_c, 2, 73, 0
4, 214320, Note_on_c, 2, 73, 64
4, 214556, Note_on_c, 2, 73, 0
4, 214560, Note_on_c, 2, 73, 64
4, 214796, Note_on_c, 2, 73, 0
4, 214800, Note_on_c, 2, 73, 64
4, 215036, Note_on_c, 2, 73, 0
4, 215040, Note_on_c, 2, 69, 64
4, 215276, Note_on_c, 2, 69, 0
4, 215280, Note_on_c, 2, 69, 64
4, 215516, Note_on_c, 2, 69, 0
4, 215520, Note_on_c, 2, 69, 64
4, 215756, Note_on_c, 2, 69, 0
4, 215760, Note_on_c, 2, 69, 64
4, 215996, Note_on_c, 2, 69, 0
4, 216000, Note_on_c, 2, 69, 64
4, 216236, Note_on_c, 2, 69, 0
4, 216240, Note_on_c, 2, 69, 64
4, 216476, Note_on_c, 2, 69, 0
4, 216480, Note_on_c, 2, 69, 64
4, 216716, Note_on_c, 2, 69, 0
4, 216720, Note_on_c, 2, 69, 64
4, 216956, Note_on_c, 2, 69, 0
4, 216960, Note_on_c, 2, 71, 64
4, 217196, Note_on_c, 2, 71, 0
4, 217200, Note_on_c, 2, 71, 64
4, 217436, Note_on_c, 2, 71, 0
4, 217440, Note_on_c, 2, 71, 64
4, 217676, Note_on_c, 2, 71, 0
4, 217680, Note_on_c, 2, 71, 64
4, 217916, Note_on_c, 2, 71, 0
4, 217920, Note_on_c, 2, 71, 64
4, 218156, Note_on_c, 2, 71, 0
4, 218160, Note_on_c, 2, 71, 64
4, 218396, Note_on_c, 2, 71, 0
4, 218400, Note_on_c, 2, 71, 64
4, 218636, Note_on_c, 2, 71, 0
4, 218640, Note_on_c, 2, 71, 64
4, 218876, Note_on_c, 2, 71, 0
4, 218880, Note_on_c, 2, 70, 64
4, 218996, Note_on_c, 2, 70, 0
4, 219000, Note_on_c, 2, 69, 64
4, 219116, Note_on_c, 2, 69, 0
4, 219120, Note_on_c, 2, 70, 64
4, 219356, Note_on_c, 2, 70, 0
4, 219840, Note_on_c, 2, 70, 64
4, 219956, Note_on_c, 2, 70, 0
4, 219960, Note_on_c, 2, 69, 64
4, 220076, Note_on_c, 2, 69, 0
4, 220080, Note_on_c, 2, 70, 64
4, 220316, Note_on_c, 2, 70, 0
4, 220800, Note_on_c, 2, 70, 64
4, 220916, Note_on_c, 2, 70, 0
4, 220920, Note_on_c, 2, 69, 64
4, 221036, Note_on_c, 2, 69, 0
4, 221040, Note_on_c, 2, 70, 64
4, 221276, Note_on_c, 2, 70, 0
4, 221760, Note_on_c, 2, 70, 64
4, 221876, Note_on_c, 2, 70, 0
4, 221880, Note_on_c, 2, 69, 64
4, 221996, Note_on_c, 2, 69, 0
4, 222000, Note_on_c, 2, 70, 64
4, 222236, Note_on_c, 2, 70, 0
4, 222720, Note_on_c, 2, 73, 64
4, 222836, Note_on_c, 2, 73, 0
4, 222840, Note_on_c, 2, 70, 64
4, 222956, Note_on_c, 2, 70, 0
4, 222960, Note_on_c, 2, 73, 64
4, 223196, Note_on_c, 2, 73, 0
4, 223680, Note_on_c, 2, 73, 64
4, 223796, Note_on_c, 2, 73, 0
4, 223800, Note_on_c, 2, 70, 64
4, 223916, Note_on_c, 2, 70, 0
4, 223920, Note_on_c, 2, 73, 64
4, 224156, Note_on_c, 2, 73, 0
4, 224640, Note_on_c, 2, 70, 64
4, 224756, Note_on_c, 2, 70, 0
4, 224760, Note_on_c, 2, 69, 64
4, 224876, Note_on_c, 2, 69, 0
4, 224880, Note_on_c, 2, 70, 64
4, 225116, Note_on_c, 2, 70, 0
4, 225600, Note_on_c, 2, 70, 64
4, 225716, Note_on_c, 2, 70, 0
4, 225720, Note_on_c, 2, 69, 64
4, 225836, Note_on_c, 2, 69, 0
4, 225840, Note_on_c, 2, 70, 64
4, 226076, Note_on_c, 2, 70, 0
4, 226560, Note_on_c, 2, 69, 64
4, 226676, Note_on_c, 2, 69, 0
4, 226680, Note_on_c, 2, 67, 64
4, 226796, Note_on_c, 2, 67, 0
4, 226800, Note_on_c, 2, 69, 64
4, 227036, Note_on_c, 2, 69, 0
4, 227520, Note_on_c, 2, 69, 64
4, 227636, Note_on_c, 2, 69, 0
4, 227640, Note_on_c, 2, 67, 64
4, 227756, Note_on_c, 2, 67, 0
4, 227760, Note_on_c, 2, 69, 64
4, 227996, Note_on_c, 2, 69, 0
4, 228480, Note_on_c, 2, 67, 64
4, 228716, Note_on_c, 2, 67, 0
4, 229680, Note_on_c, 2, 67, 64
4, 229796, Note_on_c, 2, 67, 0
4, 229800, Note_on_c, 2, 66, 64
4, 229916, Note_on_c, 2, 66, 0
4, 229920, Note_on_c, 2, 67, 64
4, 230156, Note_on_c, 2, 67, 0
4, 230160, Note_on_c, 2, 70, 64
4, 230396, Note_on_c, 2, 70, 0
4, 230400, Note_on_c, 2, 72, 64
4, 230636, Note_on_c, 2, 72, 0
4, 231600, Note_on_c, 2, 65, 64
4, 231716, Note_on_c, 2, 65, 0
4, 231720, Note_on_c, 2, 64, 64
4, 231836, Note_on_c, 2, 64, 0
4, 231840, Note_on_c, 2, 65, 64
4, 232076, Note_on_c, 2, 65, 0
4, 232080, Note_on_c, 2, 69, 64
4, 232316, Note_on_c, 2, 69, 0
4, 232320, Note_on_c, 2, 70, 64
4, 232556, Note_on_c, 2, 70, 0
4, 233520, Note_on_c, 2, 63, 64
4, 233636, Note_on_c, 2, 63, 0
4, 233640, Note_on_c, 2, 62, 64
4, 233756, Note_on_c, 2, 62, 0
4, 233760, Note_on_c, 2, 63, 64
4, 233996, Note_on_c, 2, 63, 0
4, 234000, Note_on_c, 2, 67, 64
4, 234236, Note_on_c, 2, 67, 0
4, 234240, Note_on_c, 2, 62, 64
4, 234476, Note_on_c, 2, 62, 0
4, 234480, Note_on_c, 2, 72, 64
4, 234596, Note_on_c, 2, 72, 0
4, 234600, Note_on_c, 2, 70, 64
4, 234716, Note_on_c, 2, 70, 0
4, 234720, Note_on_c, 2, 72, 64
4, 234956, Note_on_c, 2, 72, 0
4, 235440, Note_on_c, 2, 78, 64
4, 235556, Note_on_c, 2, 78, 0
4, 235560, Note_on_c, 2, 76, 64
4, 235676, Note_on_c, 2, 76, 0
4, 235680, Note_on_c, 2, 74, 64
4, 235916, Note_on_c, 2, 74, 0
4, 236400, Note_on_c, 2, 81, 64
4, 236516, Note_on_c, 2, 81, 0
4, 236520, Note_on_c, 2, 79, 64
4, 236636, Note_on_c, 2, 79, 0
4, 236640, Note_on_c, 2, 78, 64
4, 236876, Note_on_c, 2, 78, 0
4, 237360, Note_on_c, 2, 79, 64
4, 237476, Note_on_c, 2, 79, 0
4, 237480, Note_on_c, 2, 78, 64
4, 237596, Note_on_c, 2, 78, 0
4, 237600, Note_on_c, 2, 79, 64
4, 237836, Note_on_c, 2, 79, 0
4, 238320, Note_on_c, 2, 78, 64
4, 238436, Note_on_c, 2, 78, 0
4, 238440, Note_on_c, 2, 76, 64
4, 238556, Note_on_c, 2, 76, 0
4, 238560, Note_on_c, 2, 74, 64
4, 238796, Note_on_c, 2, 74, 0
4, 239280, Note_on_c, 2, 72, 64
4, 239396, Note_on_c, 2, 72, 0
4, 239400, Note_on_c, 2, 70, 64
4, 239516, Note_on_c, 2, 70, 0
4, 239520, Note_on_c, 2, 69, 64
4, 239756, Note_on_c, 2, 69, 0
4, 239760, Note_on_c, 2, 74, 64
4, 239996, Note_on_c, 2, 74, 0
4, 240000, Note_on_c, 2, 75, 64
4, 240356, Note_on_c, 2, 75, 0
4, 240360, Note_on_c, 2, 74, 64
4, 240476, Note_on_c, 2, 74, 0
4, 240480, Note_on_c, 2, 72, 64
4, 240596, Note_on_c, 2, 72, 0
4, 240600, Note_on_c, 2, 70, 64
4, 240716, Note_on_c, 2, 70, 0
4, 240720, Note_on_c, 2, 69, 64
4, 240836, Note_on_c, 2, 69, 0
4, 240840, Note_on_c, 2, 67, 64
4, 240956, Note_on_c, 2, 67, 0
4, 240960, Note_on_c, 2, 74, 64
4, 241196, Note_on_c, 2, 74, 0
4, 241200, Note_on_c, 2, 72, 64
4, 241316, Note_on_c, 2, 72, 0
4, 241320, Note_on_c, 2, 70, 64
4, 241436, Note_on_c, 2, 70, 0
4, 241440, Note_on_c, 2, 69, 64
4, 241676, Note_on_c, 2, 69, 0
4, 241680, Note_on_c, 2, 67, 64
4, 241796, Note_on_c, 2, 67, 0
4, 241800, Note_on_c, 2, 66, 64
4, 241916, Note_on_c, 2, 66, 0
4, 241920, Note_on_c, 2, 67, 64
4, 242156, Note_on_c, 2, 67, 0
4, 242160, Note_on_c, 2, 62, 64
4, 242276, Note_on_c, 2, 62, 0
4, 242280, Note_on_c, 2, 60, 64
4, 242396, Note_on_c, 2, 60, 0
4, 242400, Note_on_c, 2, 62, 64
4, 242636, Note_on_c, 2, 62, 0
4, 242640, Note_on_c, 2, 67, 64
4, 242756, Note_on_c, 2, 67, 0
4, 242760, Note_on_c, 2, 66, 64
4, 242876, Note_on_c, 2, 66, 0
4, 242880, Note_on_c, 2, 67, 64
4, 243116, Note_on_c, 2, 67, 0
4, 243120, Note_on_c, 2, 59, 64
4, 243236, Note_on_c, 2, 59, 0
4, 243240, Note_on_c, 2, 57, 64
4, 243356, Note_on_c, 2, 57, 0
4, 243360, Note_on_c, 2, 59, 64
4, 243596, Note_on_c, 2, 59, 0
4, 243600, Note_on_c, 2, 67, 64
4, 243716, Note_on_c, 2, 67, 0
4, 243720, Note_on_c, 2, 66, 64
4, 243836, Note_on_c, 2, 66, 0
4, 243840, Note_on_c, 2, 67, 64
4, 244076, Note_on_c, 2, 67, 0
4, 244080, Note_on_c, 2, 55, 64
4, 244196, Note_on_c, 2, 55, 0
4, 244200, Note_on_c, 2, 57, 64
4, 244316, Note_on_c, 2, 57, 0
4, 244320, Note_on_c, 2, 59, 64
4, 244556, Note_on_c, 2, 59, 0
4, 244560, Note_on_c, 2, 61, 64
4, 244796, Note_on_c, 2, 61, 0
4, 244800, Note_on_c, 2, 62, 64
4, 244916, Note_on_c, 2, 62, 0
4, 244920, Note_on_c, 2, 61, 64
4, 245036, Note_on_c, 2, 61, 0
4, 245040, Note_on_c, 2, 62, 64
4, 245156, Note_on_c, 2, 62, 0
4, 245160, Note_on_c, 2, 64, 64
4, 245276, Note_on_c, 2, 64, 0
4, 245280, Note_on_c, 2, 62, 64
4, 245396, Note_on_c, 2, 62, 0
4, 245400, Note_on_c, 2, 66, 64
4, 245516, Note_on_c, 2, 66, 0
4, 245520, Note_on_c, 2, 62, 64
4, 245636, Note_on_c, 2, 62, 0
4, 245640, Note_on_c, 2, 67, 64
4, 245756, Note_on_c, 2, 67, 0
4, 245760, Note_on_c, 2, 62, 64
4, 245876, Note_on_c, 2, 62, 0
4, 245880, Note_on_c, 2, 61, 64
4, 245996, Note_on_c, 2, 61, 0
4, 246000, Note_on_c, 2, 62, 64
4, 246116, Note_on_c, 2, 62, 0
4, 246120, Note_on_c, 2, 64, 64
4, 246236, Note_on_c, 2, 64, 0
4, 246240, Note_on_c, 2, 62, 64
4, 246356, Note_on_c, 2, 62, 0
4, 246360, Note_on_c, 2, 69, 64
4, 246476, Note_on_c, 2, 69, 0
4, 246480, Note_on_c, 2, 62, 64
4, 246596, Note_on_c, 2, 62, 0
4, 246600, Note_on_c, 2, 71, 64
4, 246716, Note_on_c, 2, 71, 0
4, 246720, Note_on_c, 2, 62, 64
4, 246836, Note_on_c, 2, 62, 0
4, 246840, Note_on_c, 2, 61, 64
4, 246956, Note_on_c, 2, 61, 0
4, 246960, Note_on_c, 2, 62, 64
4, 247076, Note_on_c, 2, 62, 0
4, 247080, Note_on_c, 2, 64, 64
4, 247196, Note_on_c, 2, 64, 0
4, 247200, Note_on_c, 2, 62, 64
4, 247316, Note_on_c, 2, 62, 0
4, 247320, Note_on_c, 2, 72, 64
4, 247436, Note_on_c, 2, 72, 0
4, 247440, Note_on_c, 2, 62, 64
4, 247556, Note_on_c, 2, 62, 0
4, 247560, Note_on_c, 2, 74, 64
4, 247676, Note_on_c, 2, 74, 0
4, 247680, Note_on_c, 2, 71, 64
4, 247916, Note_on_c, 2, 71, 0
4, 247920, Note_on_c, 2, 69, 64
4, 248036, Note_on_c, 2, 69, 0
4, 248040, Note_on_c, 2, 67, 64
4, 248156, Note_on_c, 2, 67, 0
4, 248160, Note_on_c, 2, 69, 64
4, 248396, Note_on_c, 2, 69, 0
4, 248400, Note_on_c, 2, 67, 64
4, 248516, Note_on_c, 2, 67, 0
4, 248520, Note_on_c, 2, 66, 64
4, 248636, Note_on_c, 2, 66, 0
4, 248640, Note_on_c, 2, 67, 64
4, 248876, Note_on_c, 2, 67, 0
4, 248880, Note_on_c, 2, 66, 64
4, 248996, Note_on_c, 2, 66, 0
4, 249000, Note_on_c, 2, 64, 64
4, 249116, Note_on_c, 2, 64, 0
4, 249120, Note_on_c, 2, 62, 64
4, 249236, Note_on_c, 2, 62, 0
4, 249240, Note_on_c, 2, 67, 64
4, 249356, Note_on_c, 2, 67, 0
4, 249360, Note_on_c, 2, 62, 64
4, 249476, Note_on_c, 2, 62, 0
4, 249480, Note_on_c, 2, 67, 64
4, 249596, Note_on_c, 2, 67, 0
4, 249600, Note_on_c, 2, 64, 64
4, 249836, Note_on_c, 2, 64, 0
4, 249840, Note_on_c, 2, 62, 64
4, 249956, Note_on_c, 2, 62, 0
4, 249960, Note_on_c, 2, 60, 64
4, 250076, Note_on_c, 2, 60, 0
4, 250080, Note_on_c, 2, 59, 64
4, 250196, Note_on_c, 2, 59, 0
4, 250200, Note_on_c, 2, 67, 64
4, 250316, Note_on_c, 2, 67, 0
4, 250320, Note_on_c, 2, 59, 64
4, 250436, Note_on_c, 2, 59, 0
4, 250440, Note_on_c, 2, 67, 64
4, 250556, Note_on_c, 2, 67, 0
4, 250560, Note_on_c, 2, 60, 64
4, 250796, Note_on_c, 2, 60, 0
4, 250800, Note_on_c, 2, 59, 64
4, 250916, Note_on_c, 2, 59, 0
4, 250920, Note_on_c, 2, 57, 64
4, 251036, Note_on_c, 2, 57, 0
4, 251040, Note_on_c, 2, 55, 64
4, 251156, Note_on_c, 2, 55, 0
4, 251160, Note_on_c, 2, 67, 64
4, 251276, Note_on_c, 2, 67, 0
4, 251280, Note_on_c, 2, 57, 64
4, 251396, Note_on_c, 2, 57, 0
4, 251400, Note_on_c, 2, 67, 64
4, 251516, Note_on_c, 2, 67, 0
4, 251520, Note_on_c, 2, 59, 64
4, 251636, Note_on_c, 2, 59, 0
4, 251640, Note_on_c, 2, 67, 64
4, 251756, Note_on_c, 2, 67, 0
4, 251760, Note_on_c, 2, 61, 64
4, 251876, Note_on_c, 2, 61, 0
4, 251880, Note_on_c, 2, 67, 64
4, 251996, Note_on_c, 2, 67, 0
4, 252000, Note_on_c, 2, 62, 64
4, 252116, Note_on_c, 2, 62, 0
4, 252120, Note_on_c, 2, 66, 64
4, 252236, Note_on_c, 2, 66, 0
4, 252240, Note_on_c, 2, 62, 64
4, 252356, Note_on_c, 2, 62, 0
4, 252360, Note_on_c, 2, 67, 64
4, 252476, Note_on_c, 2, 67, 0
4, 252480, Note_on_c, 2, 62, 64
4, 252596, Note_on_c, 2, 62, 0
4, 252600, Note_on_c, 2, 69, 64
4, 252716, Note_on_c, 2, 69, 0
4, 252720, Note_on_c, 2, 62, 64
4, 252836, Note_on_c, 2, 62, 0
4, 252840, Note_on_c, 2, 71, 64
4, 252956, Note_on_c, 2, 71, 0
4, 252960, Note_on_c, 2, 62, 64
4, 253076, Note_on_c, 2, 62, 0
4, 253080, Note_on_c, 2, 72, 64
4, 253196, Note_on_c, 2, 72, 0
4, 253200, Note_on_c, 2, 62, 64
4, 253316, Note_on_c, 2, 62, 0
4, 253320, Note_on_c, 2, 74, 64
4, 253436, Note_on_c, 2, 74, 0
4, 253440, Note_on_c, 2, 71, 64
4, 253676, Note_on_c, 2, 71, 0
4, 253680, Note_on_c, 2, 69, 64
4, 253796, Note_on_c, 2, 69, 0
4, 253800, Note_on_c, 2, 67, 64
4, 253916, Note_on_c, 2, 67, 0
4, 253920, Note_on_c, 2, 62, 64
4, 254156, Note_on_c, 2, 62, 0
4, 254160, Note_on_c, 2, 66, 64
4, 254396, Note_on_c, 2, 66, 0
4, 254400, Note_on_c, 2, 67, 64
4, 254636, Note_on_c, 2, 67, 0
4, 256560, Note_on_c, 2, 62, 64
4, 256676, Note_on_c, 2, 62, 0
4, 256680, Note_on_c, 2, 60, 64
4, 256796, Note_on_c, 2, 60, 0
4, 256800, Note_on_c, 2, 62, 64
4, 257036, Note_on_c, 2, 62, 0
4, 257040, Note_on_c, 2, 67, 64
4, 257156, Note_on_c, 2, 67, 0
4, 257160, Note_on_c, 2, 66, 64
4, 257276, Note_on_c, 2, 66, 0
4, 257280, Note_on_c, 2, 67, 64
4, 257516, Note_on_c, 2, 67, 0
4, 257520, Note_on_c, 2, 71, 64
4, 257636, Note_on_c, 2, 71, 0
4, 257640, Note_on_c, 2, 69, 64
4, 257756, Note_on_c, 2, 69, 0
4, 257760, Note_on_c, 2, 71, 64
4, 257996, Note_on_c, 2, 71, 0
4, 258000, Note_on_c, 2, 74, 64
4, 258116, Note_on_c, 2, 74, 0
4, 258120, Note_on_c, 2, 72, 64
4, 258236, Note_on_c, 2, 72, 0
4, 258240, Note_on_c, 2, 74, 64
4, 258716, Note_on_c, 2, 74, 0
4, 258960, Note_on_c, 2, 67, 64
4, 259196, Note_on_c, 2, 67, 0
4, 259200, Note_on_c, 2, 71, 64
4, 259436, Note_on_c, 2, 71, 0
4, 259440, Note_on_c, 2, 69, 64
4, 259556, Note_on_c, 2, 69, 0
4, 259560, Note_on_c, 2, 67, 64
4, 259676, Note_on_c, 2, 67, 0
4, 259680, Note_on_c, 2, 66, 64
4, 259796, Note_on_c, 2, 66, 0
4, 259800, Note_on_c, 2, 64, 64
4, 259916, Note_on_c, 2, 64, 0
4, 259920, Note_on_c, 2, 62, 64
4, 260036, Note_on_c, 2, 62, 0
4, 260040, Note_on_c, 2, 60, 64
4, 260156, Note_on_c, 2, 60, 0
4, 260160, Note_on_c, 2, 59, 64
4, 260276, Note_on_c, 2, 59, 0
4, 260280, Note_on_c, 2, 67, 64
4, 260396, Note_on_c, 2, 67, 0
4, 260400, Note_on_c, 2, 66, 64
4, 260516, Note_on_c, 2, 66, 0
4, 260520, Note_on_c, 2, 64, 64
4, 260636, Note_on_c, 2, 64, 0
4, 260640, Note_on_c, 2, 62, 64
4, 260756, Note_on_c, 2, 62, 0
4, 260760, Note_on_c, 2, 60, 64
4, 260876, Note_on_c, 2, 60, 0
4, 260880, Note_on_c, 2, 59, 64
4, 260996, Note_on_c, 2, 59, 0
4, 261000, Note_on_c, 2, 57, 64
4, 261116, Note_on_c, 2, 57, 0
4, 261120, Note_on_c, 2, 59, 64
4, 261356, Note_on_c, 2, 59, 0
4, 261360, Note_on_c, 2, 57, 64
4, 261476, Note_on_c, 2, 57, 0
4, 261480, Note_on_c, 2, 55, 64
4, 261596, Note_on_c, 2, 55, 0
4, 261600, Note_on_c, 2, 62, 64
4, 261836, Note_on_c, 2, 62, 0
4, 261840, Note_on_c, 2, 62, 64
4, 262076, Note_on_c, 2, 62, 0
4, 262080, Note_on_c, 2, 55, 64
4, 262796, Note_on_c, 2, 55, 0
4, 263040, Note_on_c, 2, 64, 64
4, 263996, Note_on_c, 2, 64, 0
4, 264000, Note_on_c, 2, 63, 64
4, 264956, Note_on_c, 2, 63, 0
4, 267840, Note_on_c, 2, 67, 64
4, 267956, Note_on_c, 2, 67, 0
4, 267960, Note_on_c, 2, 66, 64
4, 268076, Note_on_c, 2, 66, 0
4, 268080, Note_on_c, 2, 67, 64
4, 268196, Note_on_c, 2, 67, 0
4, 268200, Note_on_c, 2, 69, 64
4, 268316, Note_on_c, 2, 69, 0
4, 268320, Note_on_c, 2, 71, 64
4, 268436, Note_on_c, 2, 71, 0
4, 268440, Note_on_c, 2, 72, 64
4, 268556, Note_on_c, 2, 72, 0
4, 268560, Note_on_c, 2, 74, 64
4, 268676, Note_on_c, 2, 74, 0
4, 268680, Note_on_c, 2, 76, 64
4, 268796, Note_on_c, 2, 76, 0
4, 268800, Note_on_c, 2, 74, 64
4, 268916, Note_on_c, 2, 74, 0
4, 268920, Note_on_c, 2, 72, 64
4, 269036, Note_on_c, 2, 72, 0
4, 269040, Note_on_c, 2, 71, 64
4, 269156, Note_on_c, 2, 71, 0
4, 269160, Note_on_c, 2, 69, 64
4, 269276, Note_on_c, 2, 69, 0
4, 269280, Note_on_c, 2, 71, 64
4, 269516, Note_on_c, 2, 71, 0
4, 269520, Note_on_c, 2, 74, 64
4, 269756, Note_on_c, 2, 74, 0
4, 269760, Note_on_c, 2, 79, 64
4, 269996, Note_on_c, 2, 79, 0
4, 270000, Note_on_c, 2, 78, 64
4, 270116, Note_on_c, 2, 78, 0
4, 270120, Note_on_c, 2, 79, 64
4, 270236, Note_on_c, 2, 79, 0
4, 270240, Note_on_c, 2, 78, 64
4, 270356, Note_on_c, 2, 78, 0
4, 270360, Note_on_c, 2, 76, 64
4, 270476, Note_on_c, 2, 76, 0
4, 270480, Note_on_c, 2, 74, 64
4, 270596, Note_on_c, 2, 74, 0
4, 270600, Note_on_c, 2, 72, 64
4, 270716, Note_on_c, 2, 72, 0
4, 270720, Note_on_c, 2, 74, 64
4, 270836, Note_on_c, 2, 74, 0
4, 270840, Note_on_c, 2, 76, 64
4, 270956, Note_on_c, 2, 76, 0
4, 270960, Note_on_c, 2, 74, 64
4, 271076, Note_on_c, 2, 74, 0
4, 271080, Note_on_c, 2, 72, 64
4, 271196, Note_on_c, 2, 72, 0
4, 271200, Note_on_c, 2, 71, 64
4, 271316, Note_on_c, 2, 71, 0
4, 271320, Note_on_c, 2, 69, 64
4, 271436, Note_on_c, 2, 69, 0
4, 271440, Note_on_c, 2, 67, 64
4, 271676, Note_on_c, 2, 67, 0
4, 271680, Note_on_c, 2, 72, 64
4, 271916, Note_on_c, 2, 72, 0
4, 271920, Note_on_c, 2, 67, 64
4, 272156, Note_on_c, 2, 67, 0
4, 272160, Note_on_c, 2, 69, 64
4, 272276, Note_on_c, 2, 69, 0
4, 272280, Note_on_c, 2, 74, 64
4, 272396, Note_on_c, 2, 74, 0
4, 272400, Note_on_c, 2, 73, 64
4, 272516, Note_on_c, 2, 73, 0
4, 272520, Note_on_c, 2, 71, 64
4, 272636, Note_on_c, 2, 71, 0
4, 272640, Note_on_c, 2, 69, 64
4, 272756, Note_on_c, 2, 69, 0
4, 272760, Note_on_c, 2, 67, 64
4, 272876, Note_on_c, 2, 67, 0
4, 272880, Note_on_c, 2, 66, 64
4, 273116, Note_on_c, 2, 66, 0
4, 273120, Note_on_c, 2, 71, 64
4, 273356, Note_on_c, 2, 71, 0
4, 273360, Note_on_c, 2, 66, 64
4, 273596, Note_on_c, 2, 66, 0
4, 273600, Note_on_c, 2, 67, 64
4, 273716, Note_on_c, 2, 67, 0
4, 273720, Note_on_c, 2, 72, 64
4, 273836, Note_on_c, 2, 72, 0
4, 273840, Note_on_c, 2, 71, 64
4, 273956, Note_on_c, 2, 71, 0
4, 273960, Note_on_c, 2, 69, 64
4, 274076, Note_on_c, 2, 69, 0
4, 274080, Note_on_c, 2, 67, 64
4, 274196, Note_on_c, 2, 67, 0
4, 274200, Note_on_c, 2, 66, 64
4, 274316, Note_on_c, 2, 66, 0
4, 274320, Note_on_c, 2, 64, 64
4, 274556, Note_on_c, 2, 64, 0
4, 274560, Note_on_c, 2, 69, 64
4, 274796, Note_on_c, 2, 69, 0
4, 274800, Note_on_c, 2, 73, 64
4, 275036, Note_on_c, 2, 73, 0
4, 275040, Note_on_c, 2, 74, 64
4, 275276, Note_on_c, 2, 74, 0
4, 275280, Note_on_c, 2, 78, 64
4, 275516, Note_on_c, 2, 78, 0
4, 275520, Note_on_c, 2, 81, 64
4, 275756, Note_on_c, 2, 81, 0
4, 275760, Note_on_c, 2, 73, 64
4, 275996, Note_on_c, 2, 73, 0
4, 276000, Note_on_c, 2, 76, 64
4, 276236, Note_on_c, 2, 76, 0
4, 276240, Note_on_c, 2, 81, 64
4, 276476, Note_on_c, 2, 81, 0
4, 276480, Note_on_c, 2, 74, 64
4, 276716, Note_on_c, 2, 74, 0
4, 276720, Note_on_c, 2, 78, 64
4, 276956, Note_on_c, 2, 78, 0
4, 276960, Note_on_c, 2, 81, 64
4, 277196, Note_on_c, 2, 81, 0
4, 277200, Note_on_c, 2, 69, 64
4, 277436, Note_on_c, 2, 69, 0
4, 277440, Note_on_c, 2, 76, 64
4, 277676, Note_on_c, 2, 76, 0
4, 277680, Note_on_c, 2, 81, 64
4, 277916, Note_on_c, 2, 81, 0
4, 277920, Note_on_c, 2, 74, 64
4, 278036, Note_on_c, 2, 74, 0
4, 278040, Note_on_c, 2, 73, 64
4, 278156, Note_on_c, 2, 73, 0
4, 278160, Note_on_c, 2, 74, 64
4, 278276, Note_on_c, 2, 74, 0
4, 278280, Note_on_c, 2, 76, 64
4, 278396, Note_on_c, 2, 76, 0
4, 278400, Note_on_c, 2, 78, 64
4, 278516, Note_on_c, 2, 78, 0
4, 278520, Note_on_c, 2, 79, 64
4, 278636, Note_on_c, 2, 79, 0
4, 278640, Note_on_c, 2, 81, 64
4, 278756, Note_on_c, 2, 81, 0
4, 278760, Note_on_c, 2, 83, 64
4, 278876, Note_on_c, 2, 83, 0
4, 278880, Note_on_c, 2, 81, 64
4, 278996, Note_on_c, 2, 81, 0
4, 279000, Note_on_c, 2, 79, 64
4, 279116, Note_on_c, 2, 79, 0
4, 279120, Note_on_c, 2, 78, 64
4, 279236, Note_on_c, 2, 78, 0
4, 279240, Note_on_c, 2, 76, 64
4, 279356, Note_on_c, 2, 76, 0
4, 279360, Note_on_c, 2, 74, 64
4, 279596, Note_on_c, 2, 74, 0
4, 279600, Note_on_c, 2, 78, 64
4, 279836, Note_on_c, 2, 78, 0
4, 279840, Note_on_c, 2, 69, 64
4, 280076, Note_on_c, 2, 69, 0
4, 280080, Note_on_c, 2, 76, 64
4, 280316, Note_on_c, 2, 76, 0
4, 280320, Note_on_c, 2, 79, 64
4, 280556, Note_on_c, 2, 79, 0
4, 280560, Note_on_c, 2, 69, 64
4, 280796, Note_on_c, 2, 69, 0
4, 280800, Note_on_c, 2, 78, 64
4, 281036, Note_on_c, 2, 78, 0
4, 281040, Note_on_c, 2, 78, 64
4, 281276, Note_on_c, 2, 78, 0
4, 281280, Note_on_c, 2, 78, 64
4, 281516, Note_on_c, 2, 78, 0
4, 281520, Note_on_c, 2, 78, 64
4, 281756, Note_on_c, 2, 78, 0
4, 281760, Note_on_c, 2, 78, 64
4, 281996, Note_on_c, 2, 78, 0
4, 282000, Note_on_c, 2, 78, 64
4, 282236, Note_on_c, 2, 78, 0
4, 282240, Note_on_c, 2, 76, 64
4, 282476, Note_on_c, 2, 76, 0
4, 282480, Note_on_c, 2, 76, 64
4, 282716, Note_on_c, 2, 76, 0
4, 282720, Note_on_c, 2, 76, 64
4, 282956, Note_on_c, 2, 76, 0
4, 282960, Note_on_c, 2, 76, 64
4, 283196, Note_on_c, 2, 76, 0
4, 283200, Note_on_c, 2, 76, 64
4, 283436, Note_on_c, 2, 76, 0
4, 283440, Note_on_c, 2, 76, 64
4, 283676, Note_on_c, 2, 76, 0
4, 283680, Note_on_c, 2, 74, 64
4, 283916, Note_on_c, 2, 74, 0
4, 283920, Note_on_c, 2, 74, 64
4, 284156, Note_on_c, 2, 74, 0
4, 284160, Note_on_c, 2, 74, 64
4, 284396, Note_on_c, 2, 74, 0
4, 284400, Note_on_c, 2, 74, 64
4, 284636, Note_on_c, 2, 74, 0
4, 284640, Note_on_c, 2, 74, 64
4, 284876, Note_on_c, 2, 74, 0
4, 284880, Note_on_c, 2, 74, 64
4, 285116, Note_on_c, 2, 74, 0
4, 285120, Note_on_c, 2, 73, 64
4, 285596, Note_on_c, 2, 73, 0
4, 285600, Note_on_c, 2, 76, 64
4, 285836, Note_on_c, 2, 76, 0
4, 285840, Note_on_c, 2, 74, 64
4, 286316, Note_on_c, 2, 74, 0
4, 286320, Note_on_c, 2, 78, 64
4, 286556, Note_on_c, 2, 78, 0
4, 286560, Note_on_c, 2, 76, 64
4, 287036, Note_on_c, 2, 76, 0
4, 287040, Note_on_c, 2, 79, 64
4, 287276, Note_on_c, 2, 79, 0
4, 287280, Note_on_c, 2, 78, 64
4, 287756, Note_on_c, 2, 78, 0
4, 287760, Note_on_c, 2, 81, 64
4, 287996, Note_on_c, 2, 81, 0
4, 288000, Note_on_c, 2, 73, 64
4, 288116, Note_on_c, 2, 73, 0
4, 288120, Note_on_c, 2, 76, 64
4, 288236, Note_on_c, 2, 76, 0
4, 288240, Note_on_c, 2, 69, 64
4, 288356, Note_on_c, 2, 69, 0
4, 288360, Note_on_c, 2, 76, 64
4, 288476, Note_on_c, 2, 76, 0
4, 288480, Note_on_c, 2, 73, 64
4, 288596, Note_on_c, 2, 73, 0
4, 288600, Note_on_c, 2, 76, 64
4, 288716, Note_on_c, 2, 76, 0
4, 288720, Note_on_c, 2, 74, 64
4, 288836, Note_on_c, 2, 74, 0
4, 288840, Note_on_c, 2, 78, 64
4, 288956, Note_on_c, 2, 78, 0
4, 288960, Note_on_c, 2, 69, 64
4, 289076, Note_on_c, 2, 69, 0
4, 289080, Note_on_c, 2, 78, 64
4, 289196, Note_on_c, 2, 78, 0
4, 289200, Note_on_c, 2, 74, 64
4, 289316, Note_on_c, 2, 74, 0
4, 289320, Note_on_c, 2, 78, 64
4, 289436, Note_on_c, 2, 78, 0
4, 289440, Note_on_c, 2, 76, 64
4, 289556, Note_on_c, 2, 76, 0
4, 289560, Note_on_c, 2, 79, 64
4, 289676, Note_on_c, 2, 79, 0
4, 289680, Note_on_c, 2, 69, 64
4, 289796, Note_on_c, 2, 69, 0
4, 289800, Note_on_c, 2, 79, 64
4, 289916, Note_on_c, 2, 79, 0
4, 289920, Note_on_c, 2, 78, 64
4, 290036, Note_on_c, 2, 78, 0
4, 290040, Note_on_c, 2, 79, 64
4, 290156, Note_on_c, 2, 79, 0
4, 290160, Note_on_c, 2, 78, 64
4, 290276, Note_on_c, 2, 78, 0
4, 290280, Note_on_c, 2, 81, 64
4, 290396, Note_on_c, 2, 81, 0
4, 290400, Note_on_c, 2, 69, 64
4, 290516, Note_on_c, 2, 69, 0
4, 290520, Note_on_c, 2, 81, 64
4, 290636, Note_on_c, 2, 81, 0
4, 290640, Note_on_c, 2, 78, 64
4, 290756, Note_on_c, 2, 78, 0
4, 290760, Note_on_c, 2, 81, 64
4, 290876, Note_on_c, 2, 81, 0
4, 290880, Note_on_c, 2, 73, 64
4, 291116, Note_on_c, 2, 73, 0
4, 291120, Note_on_c, 2, 69, 64
4, 291356, Note_on_c, 2, 69, 0
4, 291360, Note_on_c, 2, 69, 64
4, 291596, Note_on_c, 2, 69, 0
4, 291600, Note_on_c, 2, 69, 64
4, 291836, Note_on_c, 2, 69, 0
4, 291840, Note_on_c, 2, 69, 64
4, 292076, Note_on_c, 2, 69, 0
4, 292080, Note_on_c, 2, 69, 64
4, 292316, Note_on_c, 2, 69, 0
4, 292320, Note_on_c, 2, 81, 64
4, 292436, Note_on_c, 2, 81, 0
4, 292440, Note_on_c, 2, 84, 64
4, 292556, Note_on_c, 2, 84, 0
4, 292560, Note_on_c, 2, 74, 64
4, 292676, Note_on_c, 2, 74, 0
4, 292680, Note_on_c, 2, 84, 64
4, 292796, Note_on_c, 2, 84, 0
4, 292800, Note_on_c, 2, 81, 64
4, 292916, Note_on_c, 2, 81, 0
4, 292920, Note_on_c, 2, 84, 64
4, 293036, Note_on_c, 2, 84, 0
4, 293040, Note_on_c, 2, 81, 64
4, 293156, Note_on_c, 2, 81, 0
4, 293160, Note_on_c, 2, 84, 64
4, 293276, Note_on_c, 2, 84, 0
4, 293280, Note_on_c, 2, 74, 64
4, 293396, Note_on_c, 2, 74, 0
4, 293400, Note_on_c, 2, 84, 64
4, 293516, Note_on_c, 2, 84, 0
4, 293520, Note_on_c, 2, 81, 64
4, 293636, Note_on_c, 2, 81, 0
4, 293640, Note_on_c, 2, 84, 64
4, 293756, Note_on_c, 2, 84, 0
4, 293760, Note_on_c, 2, 67, 64
4, 293996, Note_on_c, 2, 67, 0
4, 294000, Note_on_c, 2, 71, 64
4, 294236, Note_on_c, 2, 71, 0
4, 294240, Note_on_c, 2, 74, 64
4, 294476, Note_on_c, 2, 74, 0
4, 294480, Note_on_c, 2, 71, 64
4, 294716, Note_on_c, 2, 71, 0
4, 294720, Note_on_c, 2, 74, 64
4, 294956, Note_on_c, 2, 74, 0
4, 294960, Note_on_c, 2, 79, 64
4, 295196, Note_on_c, 2, 79, 0
4, 295200, Note_on_c, 2, 73, 64
4, 295436, Note_on_c, 2, 73, 0
4, 295440, Note_on_c, 2, 76, 64
4, 295676, Note_on_c, 2, 76, 0
4, 295680, Note_on_c, 2, 81, 64
4, 295916, Note_on_c, 2, 81, 0
4, 295920, Note_on_c, 2, 76, 64
4, 296156, Note_on_c, 2, 76, 0
4, 296160, Note_on_c, 2, 81, 64
4, 296396, Note_on_c, 2, 81, 0
4, 296400, Note_on_c, 2, 85, 64
4, 296636, Note_on_c, 2, 85, 0
4, 296640, Note_on_c, 2, 86, 64
4, 296876, Note_on_c, 2, 86, 0
4, 296880, Note_on_c, 2, 74, 64
4, 296996, Note_on_c, 2, 74, 0
4, 297000, Note_on_c, 2, 76, 64
4, 297116, Note_on_c, 2, 76, 0
4, 297120, Note_on_c, 2, 78, 64
4, 297356, Note_on_c, 2, 78, 0
4, 297360, Note_on_c, 2, 69, 64
4, 297596, Note_on_c, 2, 69, 0
4, 297600, Note_on_c, 2, 74, 64
4, 297836, Note_on_c, 2, 74, 0
4, 297840, Note_on_c, 2, 73, 64
4, 298076, Note_on_c, 2, 73, 0
4, 298080, Note_on_c, 2, 74, 64
4, 298796, Note_on_c, 2, 74, 0
4, 298800, Note_on_c, 2, 62, 64
4, 299516, Note_on_c, 2, 62, 0
4, 302400, Note_on_c, 2, 67, 64
4, 302516, Note_on_c, 2, 67, 0
4, 302520, Note_on_c, 2, 66, 64
4, 302636, Note_on_c, 2, 66, 0
4, 302640, Note_on_c, 2, 67, 64
4, 302756, Note_on_c, 2, 67, 0
4, 302760, Note_on_c, 2, 69, 64
4, 302876, Note_on_c, 2, 69, 0
4, 302880, Note_on_c, 2, 71, 64
4, 302996, Note_on_c, 2, 71, 0
4, 303000, Note_on_c, 2, 72, 64
4, 303116, Note_on_c, 2, 72, 0
4, 303120, Note_on_c, 2, 74, 64
4, 303236, Note_on_c, 2, 74, 0
4, 303240, Note_on_c, 2, 76, 64
4, 303356, Note_on_c, 2, 76, 0
4, 303360, Note_on_c, 2, 74, 64
4, 303476, Note_on_c, 2, 74, 0
4, 303480, Note_on_c, 2, 72, 64
4, 303596, Note_on_c, 2, 72, 0
4, 303600, Note_on_c, 2, 71, 64
4, 303716, Note_on_c, 2, 71, 0
4, 303720, Note_on_c, 2, 69, 64
4, 303836, Note_on_c, 2, 69, 0
4, 303840, Note_on_c, 2, 71, 64
4, 304076, Note_on_c, 2, 71, 0
4, 304080, Note_on_c, 2, 74, 64
4, 304316, Note_on_c, 2, 74, 0
4, 304320, Note_on_c, 2, 79, 64
4, 304556, Note_on_c, 2, 79, 0
4, 304560, Note_on_c, 2, 78, 64
4, 304676, Note_on_c, 2, 78, 0
4, 304680, Note_on_c, 2, 79, 64
4, 304796, Note_on_c, 2, 79, 0
4, 304800, Note_on_c, 2, 78, 64
4, 304916, Note_on_c, 2, 78, 0
4, 304920, Note_on_c, 2, 76, 64
4, 305036, Note_on_c, 2, 76, 0
4, 305040, Note_on_c, 2, 74, 64
4, 305156, Note_on_c, 2, 74, 0
4, 305160, Note_on_c, 2, 72, 64
4, 305276, Note_on_c, 2, 72, 0
4, 305280, Note_on_c, 2, 74, 64
4, 305396, Note_on_c, 2, 74, 0
4, 305400, Note_on_c, 2, 76, 64
4, 305516, Note_on_c, 2, 76, 0
4, 305520, Note_on_c, 2, 74, 64
4, 305636, Note_on_c, 2, 74, 0
4, 305640, Note_on_c, 2, 72, 64
4, 305756, Note_on_c, 2, 72, 0
4, 305760, Note_on_c, 2, 71, 64
4, 305876, Note_on_c, 2, 71, 0
4, 305880, Note_on_c, 2, 69, 64
4, 305996, Note_on_c, 2, 69, 0
4, 306000, Note_on_c, 2, 67, 64
4, 306236, Note_on_c, 2, 67, 0
4, 306240, Note_on_c, 2, 72, 64
4, 306476, Note_on_c, 2, 72, 0
4, 306480, Note_on_c, 2, 67, 64
4, 306716, Note_on_c, 2, 67, 0
4, 306720, Note_on_c, 2, 69, 64
4, 306836, Note_on_c, 2, 69, 0
4, 306840, Note_on_c, 2, 74, 64
4, 306956, Note_on_c, 2, 74, 0
4, 306960, Note_on_c, 2, 73, 64
4, 307076, Note_on_c, 2, 73, 0
4, 307080, Note_on_c, 2, 71, 64
4, 307196, Note_on_c, 2, 71, 0
4, 307200, Note_on_c, 2, 69, 64
4, 307316, Note_on_c, 2, 69, 0
4, 307320, Note_on_c, 2, 67, 64
4, 307436, Note_on_c, 2, 67, 0
4, 307440, Note_on_c, 2, 66, 64
4, 307676, Note_on_c, 2, 66, 0
4, 307680, Note_on_c, 2, 71, 64
4, 307916, Note_on_c, 2, 71, 0
4, 307920, Note_on_c, 2, 66, 64
4, 308156, Note_on_c, 2, 66, 0
4, 308160, Note_on_c, 2, 67, 64
4, 308276, Note_on_c, 2, 67, 0
4, 308280, Note_on_c, 2, 72, 64
4, 308396, Note_on_c, 2, 72, 0
4, 308400, Note_on_c, 2, 71, 64
4, 308516, Note_on_c, 2, 71, 0
4, 308520, Note_on_c, 2, 69, 64
4, 308636, Note_on_c, 2, 69, 0
4, 308640, Note_on_c, 2, 67, 64
4, 308756, Note_on_c, 2, 67, 0
4, 308760, Note_on_c, 2, 66, 64
4, 308876, Note_on_c, 2, 66, 0
4, 308880, Note_on_c, 2, 64, 64
4, 309116, Note_on_c, 2, 64, 0
4, 309120, Note_on_c, 2, 69, 64
4, 309356, Note_on_c, 2, 69, 0
4, 309360, Note_on_c, 2, 73, 64
4, 309596, Note_on_c, 2, 73, 0
4, 309600, Note_on_c, 2, 74, 64
4, 309836, Note_on_c, 2, 74, 0
4, 309840, Note_on_c, 2, 78, 64
4, 310076, Note_on_c, 2, 78, 0
4, 310080, Note_on_c, 2, 81, 64
4, 310316, Note_on_c, 2, 81, 0
4, 310320, Note_on_c, 2, 73, 64
4, 310556, Note_on_c, 2, 73, 0
4, 310560, Note_on_c, 2, 76, 64
4, 310796, Note_on_c, 2, 76, 0
4, 310800, Note_on_c, 2, 81, 64
4, 311036, Note_on_c, 2, 81, 0
4, 311040, Note_on_c, 2, 74, 64
4, 311276, Note_on_c, 2, 74, 0
4, 311280, Note_on_c, 2, 78, 64
4, 311516, Note_on_c, 2, 78, 0
4, 311520, Note_on_c, 2, 81, 64
4, 311756, Note_on_c, 2, 81, 0
4, 311760, Note_on_c, 2, 69, 64
4, 311996, Note_on_c, 2, 69, 0
4, 312000, Note_on_c, 2, 76, 64
4, 312236, Note_on_c, 2, 76, 0
4, 312240, Note_on_c, 2, 81, 64
4, 312476, Note_on_c, 2, 81, 0
4, 312480, Note_on_c, 2, 74, 64
4, 312596, Note_on_c, 2, 74, 0
4, 312600, Note_on_c, 2, 73, 64
4, 312716, Note_on_c, 2, 73, 0
4, 312720, Note_on_c, 2, 74, 64
4, 312836, Note_on_c, 2, 74, 0
4, 312840, Note_on_c, 2, 76, 64
4, 312956, Note_on_c, 2, 76, 0
4, 312960, Note_on_c, 2, 78, 64
4, 313076, Note_on_c, 2, 78, 0
4, 313080, Note_on_c, 2, 79, 64
4, 313196, Note_on_c, 2, 79, 0
4, 313200, Note_on_c, 2, 81, 64
4, 313316, Note_on_c, 2, 81, 0
4, 313320, Note_on_c, 2, 83, 64
4, 313436, Note_on_c, 2, 83, 0
4, 313440, Note_on_c, 2, 81, 64
4, 313556, Note_on_c, 2, 81, 0
4, 313560, Note_on_c, 2, 79, 64
4, 313676, Note_on_c, 2, 79, 0
4, 313680, Note_on_c, 2, 78, 64
4, 313796, Note_on_c, 2, 78, 0
4, 313800, Note_on_c, 2, 76, 64
4, 313916, Note_on_c, 2, 76, 0
4, 313920, Note_on_c, 2, 74, 64
4, 314156, Note_on_c, 2, 74, 0
4, 314160, Note_on_c, 2, 78, 64
4, 314396, Note_on_c, 2, 78, 0
4, 314400, Note_on_c, 2, 69, 64
4, 314636, Note_on_c, 2, 69, 0
4, 314640, Note_on_c, 2, 76, 64
4, 314876, Note_on_c, 2, 76, 0
4, 314880, Note_on_c, 2, 79, 64
4, 315116, Note_on_c, 2, 79, 0
4, 315120, Note_on_c, 2, 69, 64
4, 315356, Note_on_c, 2, 69, 0
4, 315360, Note_on_c, 2, 78, 64
4, 315596, Note_on_c, 2, 78, 0
4, 315600, Note_on_c, 2, 78, 64
4, 315836, Note_on_c, 2, 78, 0
4, 315840, Note_on_c, 2, 78, 64
4, 316076, Note_on_c, 2, 78, 0
4, 316080, Note_on_c, 2, 78, 64
4, 316316, Note_on_c, 2, 78, 0
4, 316320, Note_on_c, 2, 78, 64
4, 316556, Note_on_c, 2, 78, 0
4, 316560, Note_on_c, 2, 78, 64
4, 316796, Note_on_c, 2, 78, 0
4, 316800, Note_on_c, 2, 76, 64
4, 317036, Note_on_c, 2, 76, 0
4, 317040, Note_on_c, 2, 76, 64
4, 317276, Note_on_c, 2, 76, 0
4, 317280, Note_on_c, 2, 76, 64
4, 317516, Note_on_c, 2, 76, 0
4, 317520, Note_on_c, 2, 76, 64
4, 317756, Note_on_c, 2, 76, 0
4, 317760, Note_on_c, 2, 76, 64
4, 317996, Note_on_c, 2, 76, 0
4, 318000, Note_on_c, 2, 76, 64
4, 318236, Note_on_c, 2, 76, 0
4, 318240, Note_on_c, 2, 74, 64
4, 318476, Note_on_c, 2, 74, 0
4, 318480, Note_on_c, 2, 74, 64
4, 318716, Note_on_c, 2, 74, 0
4, 318720, Note_on_c, 2, 74, 64
4, 318956, Note_on_c, 2, 74, 0
4, 318960, Note_on_c, 2, 74, 64
4, 319196, Note_on_c, 2, 74, 0
4, 319200, Note_on_c, 2, 74, 64
4, 319436, Note_on_c, 2, 74, 0
4, 319440, Note_on_c, 2, 74, 64
4, 319676, Note_on_c, 2, 74, 0
4, 319680, Note_on_c, 2, 73, 64
4, 320156, Note_on_c, 2, 73, 0
4, 320160, Note_on_c, 2, 76, 64
4, 320396, Note_on_c, 2, 76, 0
4, 320400, Note_on_c, 2, 74, 64
4, 320876, Note_on_c, 2, 74, 0
4, 320880, Note_on_c, 2, 78, 64
4, 321116, Note_on_c, 2, 78, 0
4, 321120, Note_on_c, 2, 76, 64
4, 321596, Note_on_c, 2, 76, 0
4, 321600, Note_on_c, 2, 79, 64
4, 321836, Note_on_c, 2, 79, 0
4, 321840, Note_on_c, 2, 78, 64
4, 322316, Note_on_c, 2, 78, 0
4, 322320, Note_on_c, 2, 81, 64
4, 322556, Note_on_c, 2, 81, 0
4, 322560, Note_on_c, 2, 73, 64
4, 322676, Note_on_c, 2, 73, 0
4, 322680, Note_on_c, 2, 76, 64
4, 322796, Note_on_c, 2, 76, 0
4, 322800, Note_on_c, 2, 69, 64
4, 322916, Note_on_c, 2, 69, 0
4, 322920, Note_on_c, 2, 76, 64
4, 323036, Note_on_c, 2, 76, 0
4, 323040, Note_on_c, 2, 73, 64
4, 323156, Note_on_c, 2, 73, 0
4, 323160, Note_on_c, 2, 76, 64
4, 323276, Note_on_c, 2, 76, 0
4, 323280, Note_on_c, 2, 74, 64
4, 323396, Note_on_c, 2, 74, 0
4, 323400, Note_on_c, 2, 78, 64
4, 323516, Note_on_c, 2, 78, 0
4, 323520, Note_on_c, 2, 69, 64
4, 323636, Note_on_c, 2, 69, 0
4, 323640, Note_on_c, 2, 78, 64
4, 323756, Note_on_c, 2, 78, 0
4, 323760, Note_on_c, 2, 74, 64
4, 323876, Note_on_c, 2, 74, 0
4, 323880, Note_on_c, 2, 78, 64
4, 323996, Note_on_c, 2, 78, 0
4, 324000, Note_on_c, 2, 76, 64
4, 324116, Note_on_c, 2, 76, 0
4, 324120, Note_on_c, 2, 79, 64
4, 324236, Note_on_c, 2, 79, 0
4, 324240, Note_on_c, 2, 69, 64
4, 324356, Note_on_c, 2, 69, 0
4, 324360, Note_on_c, 2, 79, 64
4, 324476, Note_on_c, 2, 79, 0
4, 324480, Note_on_c, 2, 78, 64
4, 324596, Note_on_c, 2, 78, 0
4, 324600, Note_on_c, 2, 79, 64
4, 324716, Note_on_c, 2, 79, 0
4, 324720, Note_on_c, 2, 78, 64
4, 324836, Note_on_c, 2, 78, 0
4, 324840, Note_on_c, 2, 81, 64
4, 324956, Note_on_c, 2, 81, 0
4, 324960, Note_on_c, 2, 69, 64
4, 325076, Note_on_c, 2, 69, 0
4, 325080, Note_on_c, 2, 81, 64
4, 325196, Note_on_c, 2, 81, 0
4, 325200, Note_on_c, 2, 78, 64
4, 325316, Note_on_c, 2, 78, 0
4, 325320, Note_on_c, 2, 81, 64
4, 325436, Note_on_c, 2, 81, 0
4, 325440, Note_on_c, 2, 73, 64
4, 325676, Note_on_c, 2, 73, 0
4, 325680, Note_on_c, 2, 69, 64
4, 325916, Note_on_c, 2, 69, 0
4, 325920, Note_on_c, 2, 69, 64
4, 326156, Note_on_c, 2, 69, 0
4, 326160, Note_on_c, 2, 69, 64
4, 326396, Note_on_c, 2, 69, 0
4, 326400, Note_on_c, 2, 69, 64
4, 326636, Note_on_c, 2, 69, 0
4, 326640, Note_on_c, 2, 69, 64
4, 326876, Note_on_c, 2, 69, 0
4, 326880, Note_on_c, 2, 81, 64
4, 326996, Note_on_c, 2, 81, 0
4, 327000, Note_on_c, 2, 84, 64
4, 327116, Note_on_c, 2, 84, 0
4, 327120, Note_on_c, 2, 74, 64
4, 327236, Note_on_c, 2, 74, 0
4, 327240, Note_on_c, 2, 84, 64
4, 327356, Note_on_c, 2, 84, 0
4, 327360, Note_on_c, 2, 81, 64
4, 327476, Note_on_c, 2, 81, 0
4, 327480, Note_on_c, 2, 84, 64
4, 327596, Note_on_c, 2, 84, 0
4, 327600, Note_on_c, 2, 81, 64
4, 327716, Note_on_c, 2, 81, 0
4, 327720, Note_on_c, 2, 84, 64
4, 327836, Note_on_c, 2, 84, 0
4, 327840, Note_on_c, 2, 74, 64
4, 327956, Note_on_c, 2, 74, 0
4, 327960, Note_on_c, 2, 84, 64
4, 328076, Note_on_c, 2, 84, 0
4, 328080, Note_on_c, 2, 81, 64
4, 328196, Note_on_c, 2, 81, 0
4, 328200, Note_on_c, 2, 84, 64
4, 328316, Note_on_c, 2, 84, 0
4, 328320, Note_on_c, 2, 67, 64
4, 328556, Note_on_c, 2, 67, 0
4, 328560, Note_on_c, 2, 71, 64
4, 328796, Note_on_c, 2, 71, 0
4, 328800, Note_on_c, 2, 74, 64
4, 329036, Note_on_c, 2, 74, 0
4, 329040, Note_on_c, 2, 71, 64
4, 329276, Note_on_c, 2, 71, 0
4, 329280, Note_on_c, 2, 74, 64
4, 329516, Note_on_c, 2, 74, 0
4, 329520, Note_on_c, 2, 79, 64
4, 329756, Note_on_c, 2, 79, 0
4, 329760, Note_on_c, 2, 73, 64
4, 329996, Note_on_c, 2, 73, 0
4, 330000, Note_on_c, 2, 76, 64
4, 330236, Note_on_c, 2, 76, 0
4, 330240, Note_on_c, 2, 81, 64
4, 330476, Note_on_c, 2, 81, 0
4, 330480, Note_on_c, 2, 76, 64
4, 330716, Note_on_c, 2, 76, 0
4, 330720, Note_on_c, 2, 81, 64
4, 330956, Note_on_c, 2, 81, 0
4, 330960, Note_on_c, 2, 85, 64
4, 331196, Note_on_c, 2, 85, 0
4, 331200, Note_on_c, 2, 86, 64
4, 331436, Note_on_c, 2, 86, 0
4, 331440, Note_on_c, 2, 74, 64
4, 331556, Note_on_c, 2, 74, 0
4, 331560, Note_on_c, 2, 76, 64
4, 331676, Note_on_c, 2, 76, 0
4, 331680, Note_on_c, 2, 78, 64
4, 331916, Note_on_c, 2, 78, 0
4, 331920, Note_on_c, 2, 69, 64
4, 332156, Note_on_c, 2, 69, 0
4, 332160, Note_on_c, 2, 74, 64
4, 332396, Note_on_c, 2, 74, 0
4, 332400, Note_on_c, 2, 73, 64
4, 332636, Note_on_c, 2, 73, 0
4, 332640, Note_on_c, 2, 74, 64
4, 333356, Note_on_c, 2, 74, 0
4, 333360, Note_on_c, 2, 62, 64
4, 334076, Note_on_c, 2, 62, 0
4, 334080, Note_on_c, 2, 62, 64
4, 334316, Note_on_c, 2, 62, 0
4, 334320, Note_on_c, 2, 66, 64
4, 334556, Note_on_c, 2, 66, 0
4, 334560, Note_on_c, 2, 69, 64
4, 334796, Note_on_c, 2, 69, 0
4, 334800, Note_on_c, 2, 61, 64
4, 335036, Note_on_c, 2, 61, 0
4, 335040, Note_on_c, 2, 64, 64
4, 335276, Note_on_c, 2, 64, 0
4, 335280, Note_on_c, 2, 69, 64
4, 335516, Note_on_c, 2, 69, 0
4, 335520, Note_on_c, 2, 62, 64
4, 335756, Note_on_c, 2, 62, 0
4, 335760, Note_on_c, 2, 66, 64
4, 335996, Note_on_c, 2, 66, 0
4, 336000, Note_on_c, 2, 69, 64
4, 336236, Note_on_c, 2, 69, 0
4, 336240, Note_on_c, 2, 57, 64
4, 336476, Note_on_c, 2, 57, 0
4, 336480, Note_on_c, 2, 64, 64
4, 336716, Note_on_c, 2, 64, 0
4, 336720, Note_on_c, 2, 69, 64
4, 336956, Note_on_c, 2, 69, 0
4, 336960, Note_on_c, 2, 71, 64
4, 337196, Note_on_c, 2, 71, 0
4, 337200, Note_on_c, 2, 71, 64
4, 337436, Note_on_c, 2, 71, 0
4, 337440, Note_on_c, 2, 71, 64
4, 337676, Note_on_c, 2, 71, 0
4, 337680, Note_on_c, 2, 71, 64
4, 337916, Note_on_c, 2, 71, 0
4, 337920, Note_on_c, 2, 71, 64
4, 338156, Note_on_c, 2, 71, 0
4, 338160, Note_on_c, 2, 71, 64
4, 338396, Note_on_c, 2, 71, 0
4, 338400, Note_on_c, 2, 71, 64
4, 338636, Note_on_c, 2, 71, 0
4, 338640, Note_on_c, 2, 71, 64
4, 338876, Note_on_c, 2, 71, 0
4, 338880, Note_on_c, 2, 71, 64
4, 339116, Note_on_c, 2, 71, 0
4, 339120, Note_on_c, 2, 71, 64
4, 339356, Note_on_c, 2, 71, 0
4, 339360, Note_on_c, 2, 71, 64
4, 339596, Note_on_c, 2, 71, 0
4, 339600, Note_on_c, 2, 71, 64
4, 339836, Note_on_c, 2, 71, 0
4, 339840, Note_on_c, 2, 71, 64
4, 340076, Note_on_c, 2, 71, 0
4, 340080, Note_on_c, 2, 76, 64
4, 340316, Note_on_c, 2, 76, 0
4, 340320, Note_on_c, 2, 79, 64
4, 340556, Note_on_c, 2, 79, 0
4, 340560, Note_on_c, 2, 72, 64
4, 340796, Note_on_c, 2, 72, 0
4, 340800, Note_on_c, 2, 76, 64
4, 341036, Note_on_c, 2, 76, 0
4, 341040, Note_on_c, 2, 79, 64
4, 341276, Note_on_c, 2, 79, 0
4, 341280, Note_on_c, 2, 71, 64
4, 341516, Note_on_c, 2, 71, 0
4, 341520, Note_on_c, 2, 76, 64
4, 341756, Note_on_c, 2, 76, 0
4, 341760, Note_on_c, 2, 79, 64
4, 341996, Note_on_c, 2, 79, 0
4, 342000, Note_on_c, 2, 69, 64
4, 342236, Note_on_c, 2, 69, 0
4, 342240, Note_on_c, 2, 76, 64
4, 342476, Note_on_c, 2, 76, 0
4, 342480, Note_on_c, 2, 79, 64
4, 342716, Note_on_c, 2, 79, 0
4, 342720, Note_on_c, 2, 71, 64
4, 342956, Note_on_c, 2, 71, 0
4, 342960, Note_on_c, 2, 76, 64
4, 343196, Note_on_c, 2, 76, 0
4, 343200, Note_on_c, 2, 79, 64
4, 343436, Note_on_c, 2, 79, 0
4, 343440, Note_on_c, 2, 72, 64
4, 343676, Note_on_c, 2, 72, 0
4, 343680, Note_on_c, 2, 76, 64
4, 343916, Note_on_c, 2, 76, 0
4, 343920, Note_on_c, 2, 79, 64
4, 344156, Note_on_c, 2, 79, 0
4, 344160, Note_on_c, 2, 71, 64
4, 344396, Note_on_c, 2, 71, 0
4, 344400, Note_on_c, 2, 76, 64
4, 344636, Note_on_c, 2, 76, 0
4, 344640, Note_on_c, 2, 75, 64
4, 344876, Note_on_c, 2, 75, 0
4, 344880, Note_on_c, 2, 76, 64
4, 345356, Note_on_c, 2, 76, 0
4, 348480, Note_on_c, 2, 62, 64
4, 348596, Note_on_c, 2, 62, 0
4, 348600, Note_on_c, 2, 61, 64
4, 348716, Note_on_c, 2, 61, 0
4, 348720, Note_on_c, 2, 62, 64
4, 348836, Note_on_c, 2, 62, 0
4, 348840, Note_on_c, 2, 64, 64
4, 348956, Note_on_c, 2, 64, 0
4, 348960, Note_on_c, 2, 66, 64
4, 349076, Note_on_c, 2, 66, 0
4, 349080, Note_on_c, 2, 67, 64
4, 349196, Note_on_c, 2, 67, 0
4, 349200, Note_on_c, 2, 69, 64
4, 349316, Note_on_c, 2, 69, 0
4, 349320, Note_on_c, 2, 71, 64
4, 349436, Note_on_c, 2, 71, 0
4, 349440, Note_on_c, 2, 69, 64
4, 349556, Note_on_c, 2, 69, 0
4, 349560, Note_on_c, 2, 67, 64
4, 349676, Note_on_c, 2, 67, 0
4, 349680, Note_on_c, 2, 66, 64
4, 349796, Note_on_c, 2, 66, 0
4, 349800, Note_on_c, 2, 64, 64
4, 349916, Note_on_c, 2, 64, 0
4, 349920, Note_on_c, 2, 67, 64
4, 350156, Note_on_c, 2, 67, 0
4, 350160, Note_on_c, 2, 71, 64
4, 350396, Note_on_c, 2, 71, 0
4, 350400, Note_on_c, 2, 76, 64
4, 350636, Note_on_c, 2, 76, 0
4, 350640, Note_on_c, 2, 75, 64
4, 350756, Note_on_c, 2, 75, 0
4, 350760, Note_on_c, 2, 76, 64
4, 350876, Note_on_c, 2, 76, 0
4, 350880, Note_on_c, 2, 75, 64
4, 350996, Note_on_c, 2, 75, 0
4, 351000, Note_on_c, 2, 73, 64
4, 351116, Note_on_c, 2, 73, 0
4, 351120, Note_on_c, 2, 71, 64
4, 351236, Note_on_c, 2, 71, 0
4, 351240, Note_on_c, 2, 69, 64
4, 351356, Note_on_c, 2, 69, 0
4, 351360, Note_on_c, 2, 71, 64
4, 351476, Note_on_c, 2, 71, 0
4, 351480, Note_on_c, 2, 73, 64
4, 351596, Note_on_c, 2, 73, 0
4, 351600, Note_on_c, 2, 71, 64
4, 351716, Note_on_c, 2, 71, 0
4, 351720, Note_on_c, 2, 69, 64
4, 351836, Note_on_c, 2, 69, 0
4, 351840, Note_on_c, 2, 67, 64
4, 351956, Note_on_c, 2, 67, 0
4, 351960, Note_on_c, 2, 66, 64
4, 352076, Note_on_c, 2, 66, 0
4, 352080, Note_on_c, 2, 64, 64
4, 352316, Note_on_c, 2, 64, 0
4, 352320, Note_on_c, 2, 69, 64
4, 352556, Note_on_c, 2, 69, 0
4, 352560, Note_on_c, 2, 64, 64
4, 352796, Note_on_c, 2, 64, 0
4, 352800, Note_on_c, 2, 66, 64
4, 352916, Note_on_c, 2, 66, 0
4, 352920, Note_on_c, 2, 71, 64
4, 353036, Note_on_c, 2, 71, 0
4, 353040, Note_on_c, 2, 69, 64
4, 353156, Note_on_c, 2, 69, 0
4, 353160, Note_on_c, 2, 67, 64
4, 353276, Note_on_c, 2, 67, 0
4, 353280, Note_on_c, 2, 66, 64
4, 353396, Note_on_c, 2, 66, 0
4, 353400, Note_on_c, 2, 64, 64
4, 353516, Note_on_c, 2, 64, 0
4, 353520, Note_on_c, 2, 62, 64
4, 353756, Note_on_c, 2, 62, 0
4, 353760, Note_on_c, 2, 67, 64
4, 353996, Note_on_c, 2, 67, 0
4, 354000, Note_on_c, 2, 62, 64
4, 354236, Note_on_c, 2, 62, 0
4, 354240, Note_on_c, 2, 64, 64
4, 354356, Note_on_c, 2, 64, 0
4, 354360, Note_on_c, 2, 69, 64
4, 354476, Note_on_c, 2, 69, 0
4, 354480, Note_on_c, 2, 67, 64
4, 354596, Note_on_c, 2, 67, 0
4, 354600, Note_on_c, 2, 66, 64
4, 354716, Note_on_c, 2, 66, 0
4, 354720, Note_on_c, 2, 64, 64
4, 354836, Note_on_c, 2, 64, 0
4, 354840, Note_on_c, 2, 62, 64
4, 354956, Note_on_c, 2, 62, 0
4, 354960, Note_on_c, 2, 61, 64
4, 355196, Note_on_c, 2, 61, 0
4, 355200, Note_on_c, 2, 66, 64
4, 355436, Note_on_c, 2, 66, 0
4, 355440, Note_on_c, 2, 70, 64
4, 355676, Note_on_c, 2, 70, 0
4, 355680, Note_on_c, 2, 71, 64
4, 355916, Note_on_c, 2, 71, 0
4, 355920, Note_on_c, 2, 74, 64
4, 356156, Note_on_c, 2, 74, 0
4, 356160, Note_on_c, 2, 78, 64
4, 356396, Note_on_c, 2, 78, 0
4, 356400, Note_on_c, 2, 70, 64
4, 356636, Note_on_c, 2, 70, 0
4, 356640, Note_on_c, 2, 73, 64
4, 356876, Note_on_c, 2, 73, 0
4, 356880, Note_on_c, 2, 78, 64
4, 357116, Note_on_c, 2, 78, 0
4, 357120, Note_on_c, 2, 71, 64
4, 357356, Note_on_c, 2, 71, 0
4, 357360, Note_on_c, 2, 74, 64
4, 357596, Note_on_c, 2, 74, 0
4, 357600, Note_on_c, 2, 78, 64
4, 357836, Note_on_c, 2, 78, 0
4, 357840, Note_on_c, 2, 66, 64
4, 358076, Note_on_c, 2, 66, 0
4, 358080, Note_on_c, 2, 73, 64
4, 358316, Note_on_c, 2, 73, 0
4, 358320, Note_on_c, 2, 78, 64
4, 358556, Note_on_c, 2, 78, 0
4, 358560, Note_on_c, 2, 71, 64
4, 358676, Note_on_c, 2, 71, 0
4, 358680, Note_on_c, 2, 70, 64
4, 358796, Note_on_c, 2, 70, 0
4, 358800, Note_on_c, 2, 71, 64
4, 358916, Note_on_c, 2, 71, 0
4, 358920, Note_on_c, 2, 73, 64
4, 359036, Note_on_c, 2, 73, 0
4, 359040, Note_on_c, 2, 74, 64
4, 359156, Note_on_c, 2, 74, 0
4, 359160, Note_on_c, 2, 76, 64
4, 359276, Note_on_c, 2, 76, 0
4, 359280, Note_on_c, 2, 78, 64
4, 359396, Note_on_c, 2, 78, 0
4, 359400, Note_on_c, 2, 79, 64
4, 359516, Note_on_c, 2, 79, 0
4, 359520, Note_on_c, 2, 78, 64
4, 359636, Note_on_c, 2, 78, 0
4, 359640, Note_on_c, 2, 76, 64
4, 359756, Note_on_c, 2, 76, 0
4, 359760, Note_on_c, 2, 74, 64
4, 359876, Note_on_c, 2, 74, 0
4, 359880, Note_on_c, 2, 73, 64
4, 359996, Note_on_c, 2, 73, 0
4, 360000, Note_on_c, 2, 71, 64
4, 360236, Note_on_c, 2, 71, 0
4, 360240, Note_on_c, 2, 74, 64
4, 360476, Note_on_c, 2, 74, 0
4, 360480, Note_on_c, 2, 66, 64
4, 360716, Note_on_c, 2, 66, 0
4, 360720, Note_on_c, 2, 73, 64
4, 360956, Note_on_c, 2, 73, 0
4, 360960, Note_on_c, 2, 76, 64
4, 361196, Note_on_c, 2, 76, 0
4, 361200, Note_on_c, 2, 66, 64
4, 361436, Note_on_c, 2, 66, 0
4, 361440, Note_on_c, 2, 74, 64
4, 361676, Note_on_c, 2, 74, 0
4, 361680, Note_on_c, 2, 74, 64
4, 361916, Note_on_c, 2, 74, 0
4, 361920, Note_on_c, 2, 74, 64
4, 362156, Note_on_c, 2, 74, 0
4, 362160, Note_on_c, 2, 74, 64
4, 362396, Note_on_c, 2, 74, 0
4, 362400, Note_on_c, 2, 74, 64
4, 362636, Note_on_c, 2, 74, 0
4, 362640, Note_on_c, 2, 74, 64
4, 362876, Note_on_c, 2, 74, 0
4, 362880, Note_on_c, 2, 73, 64
4, 363116, Note_on_c, 2, 73, 0
4, 363120, Note_on_c, 2, 73, 64
4, 363356, Note_on_c, 2, 73, 0
4, 363360, Note_on_c, 2, 73, 64
4, 363596, Note_on_c, 2, 73, 0
4, 363600, Note_on_c, 2, 73, 64
4, 363836, Note_on_c, 2, 73, 0
4, 363840, Note_on_c, 2, 73, 64
4, 364076, Note_on_c, 2, 73, 0
4, 364080, Note_on_c, 2, 73, 64
4, 364316, Note_on_c, 2, 73, 0
4, 364320, Note_on_c, 2, 71, 64
4, 364556, Note_on_c, 2, 71, 0
4, 364560, Note_on_c, 2, 71, 64
4, 364796, Note_on_c, 2, 71, 0
4, 364800, Note_on_c, 2, 71, 64
4, 365036, Note_on_c, 2, 71, 0
4, 365040, Note_on_c, 2, 71, 64
4, 365276, Note_on_c, 2, 71, 0
4, 365280, Note_on_c, 2, 71, 64
4, 365516, Note_on_c, 2, 71, 0
4, 365520, Note_on_c, 2, 71, 64
4, 365756, Note_on_c, 2, 71, 0
4, 365760, Note_on_c, 2, 70, 64
4, 366236, Note_on_c, 2, 70, 0
4, 366240, Note_on_c, 2, 73, 64
4, 366476, Note_on_c, 2, 73, 0
4, 366480, Note_on_c, 2, 71, 64
4, 366956, Note_on_c, 2, 71, 0
4, 366960, Note_on_c, 2, 74, 64
4, 367196, Note_on_c, 2, 74, 0
4, 367200, Note_on_c, 2, 73, 64
4, 367676, Note_on_c, 2, 73, 0
4, 367680, Note_on_c, 2, 76, 64
4, 367916, Note_on_c, 2, 76, 0
4, 367920, Note_on_c, 2, 74, 64
4, 368396, Note_on_c, 2, 74, 0
4, 368400, Note_on_c, 2, 78, 64
4, 368636, Note_on_c, 2, 78, 0
4, 368640, Note_on_c, 2, 70, 64
4, 368756, Note_on_c, 2, 70, 0
4, 368760, Note_on_c, 2, 73, 64
4, 368876, Note_on_c, 2, 73, 0
4, 368880, Note_on_c, 2, 66, 64
4, 368996, Note_on_c, 2, 66, 0
4, 369000, Note_on_c, 2, 73, 64
4, 369116, Note_on_c, 2, 73, 0
4, 369120, Note_on_c, 2, 70, 64
4, 369236, Note_on_c, 2, 70, 0
4, 369240, Note_on_c, 2, 73, 64
4, 369356, Note_on_c, 2, 73, 0
4, 369360, Note_on_c, 2, 71, 64
4, 369476, Note_on_c, 2, 71, 0
4, 369480, Note_on_c, 2, 74, 64
4, 369596, Note_on_c, 2, 74, 0
4, 369600, Note_on_c, 2, 66, 64
4, 369716, Note_on_c, 2, 66, 0
4, 369720, Note_on_c, 2, 74, 64
4, 369836, Note_on_c, 2, 74, 0
4, 369840, Note_on_c, 2, 71, 64
4, 369956, Note_on_c, 2, 71, 0
4, 369960, Note_on_c, 2, 74, 64
4, 370076, Note_on_c, 2, 74, 0
4, 370080, Note_on_c, 2, 73, 64
4, 370196, Note_on_c, 2, 73, 0
4, 370200, Note_on_c, 2, 76, 64
4, 370316, Note_on_c, 2, 76, 0
4, 370320, Note_on_c, 2, 66, 64
4, 370436, Note_on_c, 2, 66, 0
4, 370440, Note_on_c, 2, 76, 64
4, 370556, Note_on_c, 2, 76, 0
4, 370560, Note_on_c, 2, 73, 64
4, 370676, Note_on_c, 2, 73, 0
4, 370680, Note_on_c, 2, 76, 64
4, 370796, Note_on_c, 2, 76, 0
4, 370800, Note_on_c, 2, 74, 64
4, 370916, Note_on_c, 2, 74, 0
4, 370920, Note_on_c, 2, 78, 64
4, 371036, Note_on_c, 2, 78, 0
4, 371040, Note_on_c, 2, 66, 64
4, 371156, Note_on_c, 2, 66, 0
4, 371160, Note_on_c, 2, 78, 64
4, 371276, Note_on_c, 2, 78, 0
4, 371280, Note_on_c, 2, 74, 64
4, 371396, Note_on_c, 2, 74, 0
4, 371400, Note_on_c, 2, 78, 64
4, 371516, Note_on_c, 2, 78, 0
4, 371520, Note_on_c, 2, 70, 64
4, 371756, Note_on_c, 2, 70, 0
4, 371760, Note_on_c, 2, 66, 64
4, 371996, Note_on_c, 2, 66, 0
4, 372000, Note_on_c, 2, 66, 64
4, 372236, Note_on_c, 2, 66, 0
4, 372240, Note_on_c, 2, 66, 64
4, 372476, Note_on_c, 2, 66, 0
4, 372480, Note_on_c, 2, 66, 64
4, 372716, Note_on_c, 2, 66, 0
4, 372720, Note_on_c, 2, 66, 64
4, 372956, Note_on_c, 2, 66, 0
4, 372960, Note_on_c, 2, 78, 64
4, 373076, Note_on_c, 2, 78, 0
4, 373080, Note_on_c, 2, 81, 64
4, 373196, Note_on_c, 2, 81, 0
4, 373200, Note_on_c, 2, 71, 64
4, 373316, Note_on_c, 2, 71, 0
4, 373320, Note_on_c, 2, 81, 64
4, 373436, Note_on_c, 2, 81, 0
4, 373440, Note_on_c, 2, 78, 64
4, 373556, Note_on_c, 2, 78, 0
4, 373560, Note_on_c, 2, 81, 64
4, 373676, Note_on_c, 2, 81, 0
4, 373680, Note_on_c, 2, 78, 64
4, 373796, Note_on_c, 2, 78, 0
4, 373800, Note_on_c, 2, 81, 64
4, 373916, Note_on_c, 2, 81, 0
4, 373920, Note_on_c, 2, 71, 64
4, 374036, Note_on_c, 2, 71, 0
4, 374040, Note_on_c, 2, 81, 64
4, 374156, Note_on_c, 2, 81, 0
4, 374160, Note_on_c, 2, 78, 64
4, 374276, Note_on_c, 2, 78, 0
4, 374280, Note_on_c, 2, 81, 64
4, 374396, Note_on_c, 2, 81, 0
4, 374400, Note_on_c, 2, 64, 64
4, 374636, Note_on_c, 2, 64, 0
4, 374640, Note_on_c, 2, 67, 64
4, 374876, Note_on_c, 2, 67, 0
4, 374880, Note_on_c, 2, 71, 64
4, 375116, Note_on_c, 2, 71, 0
4, 375120, Note_on_c, 2, 67, 64
4, 375356, Note_on_c, 2, 67, 0
4, 375360, Note_on_c, 2, 71, 64
4, 375596, Note_on_c, 2, 71, 0
4, 375600, Note_on_c, 2, 76, 64
4, 375836, Note_on_c, 2, 76, 0
4, 375840, Note_on_c, 2, 70, 64
4, 376076, Note_on_c, 2, 70, 0
4, 376080, Note_on_c, 2, 73, 64
4, 376316, Note_on_c, 2, 73, 0
4, 376320, Note_on_c, 2, 78, 64
4, 376556, Note_on_c, 2, 78, 0
4, 376560, Note_on_c, 2, 73, 64
4, 376796, Note_on_c, 2, 73, 0
4, 376800, Note_on_c, 2, 78, 64
4, 377036, Note_on_c, 2, 78, 0
4, 377040, Note_on_c, 2, 82, 64
4, 377276, Note_on_c, 2, 82, 0
4, 377280, Note_on_c, 2, 83, 64
4, 377516, Note_on_c, 2, 83, 0
4, 377520, Note_on_c, 2, 71, 64
4, 377636, Note_on_c, 2, 71, 0
4, 377640, Note_on_c, 2, 73, 64
4, 377756, Note_on_c, 2, 73, 0
4, 377760, Note_on_c, 2, 74, 64
4, 377996, Note_on_c, 2, 74, 0
4, 378000, Note_on_c, 2, 66, 64
4, 378236, Note_on_c, 2, 66, 0
4, 378240, Note_on_c, 2, 71, 64
4, 378476, Note_on_c, 2, 71, 0
4, 378480, Note_on_c, 2, 70, 64
4, 378716, Note_on_c, 2, 70, 0
4, 378720, Note_on_c, 2, 71, 64
4, 379436, Note_on_c, 2, 71, 0
4, 379440, Note_on_c, 2, 59, 64
4, 380156, Note_on_c, 2, 59, 0
4, 380160, Note_on_c, 2, 69, 64
4, 380396, Note_on_c, 2, 69, 0
4, 380400, Note_on_c, 2, 69, 64
4, 380636, Note_on_c, 2, 69, 0
4, 380640, Note_on_c, 2, 69, 64
4, 380876, Note_on_c, 2, 69, 0
4, 380880, Note_on_c, 2, 69, 64
4, 381116, Note_on_c, 2, 69, 0
4, 381120, Note_on_c, 2, 69, 64
4, 381356, Note_on_c, 2, 69, 0
4, 381360, Note_on_c, 2, 69, 64
4, 381596, Note_on_c, 2, 69, 0
4, 381600, Note_on_c, 2, 69, 64
4, 381716, Note_on_c, 2, 69, 0
4, 381720, Note_on_c, 2, 72, 64
4, 381836, Note_on_c, 2, 72, 0
4, 381840, Note_on_c, 2, 71, 64
4, 381956, Note_on_c, 2, 71, 0
4, 381960, Note_on_c, 2, 69, 64
4, 382076, Note_on_c, 2, 69, 0
4, 382080, Note_on_c, 2, 67, 64
4, 382196, Note_on_c, 2, 67, 0
4, 382200, Note_on_c, 2, 66, 64
4, 382316, Note_on_c, 2, 66, 0
4, 382320, Note_on_c, 2, 67, 64
4, 382556, Note_on_c, 2, 67, 0
4, 382560, Note_on_c, 2, 64, 64
4, 382796, Note_on_c, 2, 64, 0
4, 382800, Note_on_c, 2, 67, 64
4, 383036, Note_on_c, 2, 67, 0
4, 383040, Note_on_c, 2, 64, 64
4, 383276, Note_on_c, 2, 64, 0
4, 383280, Note_on_c, 2, 64, 64
4, 383516, Note_on_c, 2, 64, 0
4, 383520, Note_on_c, 2, 64, 64
4, 383756, Note_on_c, 2, 64, 0
4, 383760, Note_on_c, 2, 68, 64
4, 383996, Note_on_c, 2, 68, 0
4, 384000, Note_on_c, 2, 68, 64
4, 384236, Note_on_c, 2, 68, 0
4, 384240, Note_on_c, 2, 68, 64
4, 384476, Note_on_c, 2, 68, 0
4, 384480, Note_on_c, 2, 68, 64
4, 384716, Note_on_c, 2, 68, 0
4, 384720, Note_on_c, 2, 64, 64
4, 384956, Note_on_c, 2, 64, 0
4, 384960, Note_on_c, 2, 64, 64
4, 385196, Note_on_c, 2, 64, 0
4, 385200, Note_on_c, 2, 64, 64
4, 385676, Note_on_c, 2, 64, 0
4, 385920, Note_on_c, 2, 77, 64
4, 386156, Note_on_c, 2, 77, 0
4, 386160, Note_on_c, 2, 77, 64
4, 386396, Note_on_c, 2, 77, 0
4, 386400, Note_on_c, 2, 77, 64
4, 386636, Note_on_c, 2, 77, 0
4, 386640, Note_on_c, 2, 77, 64
4, 386756, Note_on_c, 2, 77, 0
4, 386760, Note_on_c, 2, 67, 64
4, 386876, Note_on_c, 2, 67, 0
4, 386880, Note_on_c, 2, 71, 64
4, 386996, Note_on_c, 2, 71, 0
4, 387000, Note_on_c, 2, 74, 64
4, 387116, Note_on_c, 2, 74, 0
4, 387120, Note_on_c, 2, 71, 64
4, 387236, Note_on_c, 2, 71, 0
4, 387240, Note_on_c, 2, 67, 64
4, 387356, Note_on_c, 2, 67, 0
4, 387360, Note_on_c, 2, 76, 64
4, 387596, Note_on_c, 2, 76, 0
4, 387600, Note_on_c, 2, 76, 64
4, 387836, Note_on_c, 2, 76, 0
4, 387840, Note_on_c, 2, 76, 64
4, 388076, Note_on_c, 2, 76, 0
4, 388080, Note_on_c, 2, 76, 64
4, 388196, Note_on_c, 2, 76, 0
4, 388200, Note_on_c, 2, 65, 64
4, 388316, Note_on_c, 2, 65, 0
4, 388320, Note_on_c, 2, 69, 64
4, 388436, Note_on_c, 2, 69, 0
4, 388440, Note_on_c, 2, 72, 64
4, 388556, Note_on_c, 2, 72, 0
4, 388560, Note_on_c, 2, 69, 64
4, 388676, Note_on_c, 2, 69, 0
4, 388680, Note_on_c, 2, 65, 64
4, 388796, Note_on_c, 2, 65, 0
4, 388800, Note_on_c, 2, 79, 64
4, 389036, Note_on_c, 2, 79, 0
4, 389040, Note_on_c, 2, 79, 64
4, 389276, Note_on_c, 2, 79, 0
4, 389280, Note_on_c, 2, 79, 64
4, 389516, Note_on_c, 2, 79, 0
4, 389520, Note_on_c, 2, 79, 64
4, 389756, Note_on_c, 2, 79, 0
4, 389760, Note_on_c, 2, 79, 64
4, 389996, Note_on_c, 2, 79, 0
4, 390000, Note_on_c, 2, 79, 64
4, 390236, Note_on_c, 2, 79, 0
4, 390240, Note_on_c, 2, 79, 64
4, 390476, Note_on_c, 2, 79, 0
4, 390480, Note_on_c, 2, 79, 64
4, 390716, Note_on_c, 2, 79, 0
4, 390720, Note_on_c, 2, 79, 64
4, 390956, Note_on_c, 2, 79, 0
4, 390960, Note_on_c, 2, 79, 64
4, 391196, Note_on_c, 2, 79, 0
4, 391200, Note_on_c, 2, 79, 64
4, 391436, Note_on_c, 2, 79, 0
4, 391440, Note_on_c, 2, 79, 64
4, 391676, Note_on_c, 2, 79, 0
4, 391680, Note_on_c, 2, 79, 64
4, 391916, Note_on_c, 2, 79, 0
4, 391920, Note_on_c, 2, 79, 64
4, 392156, Note_on_c, 2, 79, 0
4, 392160, Note_on_c, 2, 79, 64
4, 392396, Note_on_c, 2, 79, 0
4, 392400, Note_on_c, 2, 79, 64
4, 392636, Note_on_c, 2, 79, 0
4, 392640, Note_on_c, 2, 79, 64
4, 392876, Note_on_c, 2, 79, 0
4, 392880, Note_on_c, 2, 79, 64
4, 393116, Note_on_c, 2, 79, 0
4, 393120, Note_on_c, 2, 79, 64
4, 393356, Note_on_c, 2, 79, 0
4, 393360, Note_on_c, 2, 79, 64
4, 393596, Note_on_c, 2, 79, 0
4, 393600, Note_on_c, 2, 79, 64
4, 393836, Note_on_c, 2, 79, 0
4, 393840, Note_on_c, 2, 79, 64
4, 394076, Note_on_c, 2, 79, 0
4, 394080, Note_on_c, 2, 79, 64
4, 394316, Note_on_c, 2, 79, 0
4, 394320, Note_on_c, 2, 79, 64
4, 394556, Note_on_c, 2, 79, 0
4, 394560, Note_on_c, 2, 63, 64
4, 394676, Note_on_c, 2, 63, 0
4, 394680, Note_on_c, 2, 69, 64
4, 394796, Note_on_c, 2, 69, 0
4, 394800, Note_on_c, 2, 60, 64
4, 394916, Note_on_c, 2, 60, 0
4, 394920, Note_on_c, 2, 69, 64
4, 395036, Note_on_c, 2, 69, 0
4, 395040, Note_on_c, 2, 63, 64
4, 395156, Note_on_c, 2, 63, 0
4, 395160, Note_on_c, 2, 62, 64
4, 395276, Note_on_c, 2, 62, 0
4, 395280, Note_on_c, 2, 63, 64
4, 395396, Note_on_c, 2, 63, 0
4, 395400, Note_on_c, 2, 69, 64
4, 395516, Note_on_c, 2, 69, 0
4, 395520, Note_on_c, 2, 60, 64
4, 395636, Note_on_c, 2, 60, 0
4, 395640, Note_on_c, 2, 69, 64
4, 395756, Note_on_c, 2, 69, 0
4, 395760, Note_on_c, 2, 63, 64
4, 395876, Note_on_c, 2, 63, 0
4, 395880, Note_on_c, 2, 69, 64
4, 395996, Note_on_c, 2, 69, 0
4, 396000, Note_on_c, 2, 59, 64
4, 396236, Note_on_c, 2, 59, 0
4, 396240, Note_on_c, 2, 62, 64
4, 396476, Note_on_c, 2, 62, 0
4, 396480, Note_on_c, 2, 67, 64
4, 396716, Note_on_c, 2, 67, 0
4, 396720, Note_on_c, 2, 62, 64
4, 396956, Note_on_c, 2, 62, 0
4, 396960, Note_on_c, 2, 67, 64
4, 397196, Note_on_c, 2, 67, 0
4, 397200, Note_on_c, 2, 71, 64
4, 397436, Note_on_c, 2, 71, 0
4, 397440, Note_on_c, 2, 60, 64
4, 397676, Note_on_c, 2, 60, 0
4, 397680, Note_on_c, 2, 60, 64
4, 397916, Note_on_c, 2, 60, 0
4, 397920, Note_on_c, 2, 60, 64
4, 398156, Note_on_c, 2, 60, 0
4, 398160, Note_on_c, 2, 60, 64
4, 398396, Note_on_c, 2, 60, 0
4, 398400, Note_on_c, 2, 60, 64
4, 398636, Note_on_c, 2, 60, 0
4, 398640, Note_on_c, 2, 60, 64
4, 398876, Note_on_c, 2, 60, 0
4, 398880, Note_on_c, 2, 60, 64
4, 399116, Note_on_c, 2, 60, 0
4, 399120, Note_on_c, 2, 60, 64
4, 399356, Note_on_c, 2, 60, 0
4, 399360, Note_on_c, 2, 60, 64
4, 399596, Note_on_c, 2, 60, 0
4, 399600, Note_on_c, 2, 60, 64
4, 399836, Note_on_c, 2, 60, 0
4, 399840, Note_on_c, 2, 60, 64
4, 400076, Note_on_c, 2, 60, 0
4, 400080, Note_on_c, 2, 60, 64
4, 400316, Note_on_c, 2, 60, 0
4, 400320, Note_on_c, 2, 60, 64
4, 400556, Note_on_c, 2, 60, 0
4, 400560, Note_on_c, 2, 60, 64
4, 400796, Note_on_c, 2, 60, 0
4, 400800, Note_on_c, 2, 60, 64
4, 401036, Note_on_c, 2, 60, 0
4, 401040, Note_on_c, 2, 60, 64
4, 401276, Note_on_c, 2, 60, 0
4, 401280, Note_on_c, 2, 60, 64
4, 401516, Note_on_c, 2, 60, 0
4, 401520, Note_on_c, 2, 60, 64
4, 401756, Note_on_c, 2, 60, 0
4, 401760, Note_on_c, 2, 64, 64
4, 401996, Note_on_c, 2, 64, 0
4, 402000, Note_on_c, 2, 67, 64
4, 402236, Note_on_c, 2, 67, 0
4, 402240, Note_on_c, 2, 62, 64
4, 402476, Note_on_c, 2, 62, 0
4, 402480, Note_on_c, 2, 64, 64
4, 402716, Note_on_c, 2, 64, 0
4, 402720, Note_on_c, 2, 60, 64
4, 402956, Note_on_c, 2, 60, 0
4, 402960, Note_on_c, 2, 55, 64
4, 403196, Note_on_c, 2, 55, 0
4, 403200, Note_on_c, 2, 60, 64
4, 403436, Note_on_c, 2, 60, 0
4, 403440, Note_on_c, 2, 64, 64
4, 403676, Note_on_c, 2, 64, 0
4, 403680, Note_on_c, 2, 67, 64
4, 403916, Note_on_c, 2, 67, 0
4, 403920, Note_on_c, 2, 59, 64
4, 404156, Note_on_c, 2, 59, 0
4, 404160, Note_on_c, 2, 62, 64
4, 404396, Note_on_c, 2, 62, 0
4, 404400, Note_on_c, 2, 67, 64
4, 404636, Note_on_c, 2, 67, 0
4, 404640, Note_on_c, 2, 60, 64
4, 404876, Note_on_c, 2, 60, 0
4, 404880, Note_on_c, 2, 64, 64
4, 405116, Note_on_c, 2, 64, 0
4, 405120, Note_on_c, 2, 67, 64
4, 405356, Note_on_c, 2, 67, 0
4, 405360, Note_on_c, 2, 55, 64
4, 405596, Note_on_c, 2, 55, 0
4, 405600, Note_on_c, 2, 62, 64
4, 405836, Note_on_c, 2, 62, 0
4, 405840, Note_on_c, 2, 67, 64
4, 406076, Note_on_c, 2, 67, 0
4, 406080, Note_on_c, 2, 60, 64
4, 406196, Note_on_c, 2, 60, 0
4, 406200, Note_on_c, 2, 59, 64
4, 406316, Note_on_c, 2, 59, 0
4, 406320, Note_on_c, 2, 60, 64
4, 406436, Note_on_c, 2, 60, 0
4, 406440, Note_on_c, 2, 62, 64
4, 406556, Note_on_c, 2, 62, 0
4, 406560, Note_on_c, 2, 64, 64
4, 406676, Note_on_c, 2, 64, 0
4, 406680, Note_on_c, 2, 65, 64
4, 406796, Note_on_c, 2, 65, 0
4, 406800, Note_on_c, 2, 67, 64
4, 406916, Note_on_c, 2, 67, 0
4, 406920, Note_on_c, 2, 69, 64
4, 407036, Note_on_c, 2, 69, 0
4, 407040, Note_on_c, 2, 67, 64
4, 407156, Note_on_c, 2, 67, 0
4, 407160, Note_on_c, 2, 65, 64
4, 407276, Note_on_c, 2, 65, 0
4, 407280, Note_on_c, 2, 64, 64
4, 407396, Note_on_c, 2, 64, 0
4, 407400, Note_on_c, 2, 62, 64
4, 407516, Note_on_c, 2, 62, 0
4, 407520, Note_on_c, 2, 60, 64
4, 407756, Note_on_c, 2, 60, 0
4, 407760, Note_on_c, 2, 64, 64
4, 407996, Note_on_c, 2, 64, 0
4, 408000, Note_on_c, 2, 67, 64
4, 408236, Note_on_c, 2, 67, 0
4, 408240, Note_on_c, 2, 74, 64
4, 408476, Note_on_c, 2, 74, 0
4, 408480, Note_on_c, 2, 77, 64
4, 408716, Note_on_c, 2, 77, 0
4, 408720, Note_on_c, 2, 67, 64
4, 408956, Note_on_c, 2, 67, 0
4, 408960, Note_on_c, 2, 76, 64
4, 409196, Note_on_c, 2, 76, 0
4, 409200, Note_on_c, 2, 76, 64
4, 409436, Note_on_c, 2, 76, 0
4, 409440, Note_on_c, 2, 76, 64
4, 409676, Note_on_c, 2, 76, 0
4, 409680, Note_on_c, 2, 76, 64
4, 409916, Note_on_c, 2, 76, 0
4, 409920, Note_on_c, 2, 76, 64
4, 410156, Note_on_c, 2, 76, 0
4, 410160, Note_on_c, 2, 76, 64
4, 410396, Note_on_c, 2, 76, 0
4, 410400, Note_on_c, 2, 74, 64
4, 410636, Note_on_c, 2, 74, 0
4, 410640, Note_on_c, 2, 74, 64
4, 410876, Note_on_c, 2, 74, 0
4, 410880, Note_on_c, 2, 74, 64
4, 411116, Note_on_c, 2, 74, 0
4, 411120, Note_on_c, 2, 74, 64
4, 411356, Note_on_c, 2, 74, 0
4, 411360, Note_on_c, 2, 74, 64
4, 411596, Note_on_c, 2, 74, 0
4, 411600, Note_on_c, 2, 74, 64
4, 411836, Note_on_c, 2, 74, 0
4, 411840, Note_on_c, 2, 72, 64
4, 412076, Note_on_c, 2, 72, 0
4, 412080, Note_on_c, 2, 72, 64
4, 412316, Note_on_c, 2, 72, 0
4, 412320, Note_on_c, 2, 72, 64
4, 412556, Note_on_c, 2, 72, 0
4, 412560, Note_on_c, 2, 72, 64
4, 412796, Note_on_c, 2, 72, 0
4, 412800, Note_on_c, 2, 72, 64
4, 413036, Note_on_c, 2, 72, 0
4, 413040, Note_on_c, 2, 72, 64
4, 413276, Note_on_c, 2, 72, 0
4, 413280, Note_on_c, 2, 71, 64
4, 413516, Note_on_c, 2, 71, 0
4, 413520, Note_on_c, 2, 62, 64
4, 413756, Note_on_c, 2, 62, 0
4, 413760, Note_on_c, 2, 62, 64
4, 413996, Note_on_c, 2, 62, 0
4, 414000, Note_on_c, 2, 62, 64
4, 414236, Note_on_c, 2, 62, 0
4, 414240, Note_on_c, 2, 62, 64
4, 414476, Note_on_c, 2, 62, 0
4, 414480, Note_on_c, 2, 62, 64
4, 414716, Note_on_c, 2, 62, 0
4, 414720, Note_on_c, 2, 62, 64
4, 414956, Note_on_c, 2, 62, 0
4, 414960, Note_on_c, 2, 62, 64
4, 415196, Note_on_c, 2, 62, 0
4, 415200, Note_on_c, 2, 62, 64
4, 415436, Note_on_c, 2, 62, 0
4, 415440, Note_on_c, 2, 62, 64
4, 415676, Note_on_c, 2, 62, 0
4, 415680, Note_on_c, 2, 62, 64
4, 415916, Note_on_c, 2, 62, 0
4, 415920, Note_on_c, 2, 62, 64
4, 416156, Note_on_c, 2, 62, 0
4, 416160, Note_on_c, 2, 62, 64
4, 416396, Note_on_c, 2, 62, 0
4, 416400, Note_on_c, 2, 62, 64
4, 416636, Note_on_c, 2, 62, 0
4, 416640, Note_on_c, 2, 62, 64
4, 416876, Note_on_c, 2, 62, 0
4, 416880, Note_on_c, 2, 62, 64
4, 417116, Note_on_c, 2, 62, 0
4, 417120, Note_on_c, 2, 62, 64
4, 417356, Note_on_c, 2, 62, 0
4, 417360, Note_on_c, 2, 62, 64
4, 417596, Note_on_c, 2, 62, 0
4, 417600, Note_on_c, 2, 62, 64
4, 417836, Note_on_c, 2, 62, 0
4, 417840, Note_on_c, 2, 74, 64
4, 418076, Note_on_c, 2, 74, 0
4, 418080, Note_on_c, 2, 79, 64
4, 418316, Note_on_c, 2, 79, 0
4, 418320, Note_on_c, 2, 78, 64
4, 418436, Note_on_c, 2, 78, 0
4, 418440, Note_on_c, 2, 79, 64
4, 418556, Note_on_c, 2, 79, 0
4, 418560, Note_on_c, 2, 78, 64
4, 418676, Note_on_c, 2, 78, 0
4, 418680, Note_on_c, 2, 76, 64
4, 418796, Note_on_c, 2, 76, 0
4, 418800, Note_on_c, 2, 74, 64
4, 418916, Note_on_c, 2, 74, 0
4, 418920, Note_on_c, 2, 72, 64
4, 419036, Note_on_c, 2, 72, 0
4, 419040, Note_on_c, 2, 71, 64
4, 419156, Note_on_c, 2, 71, 0
4, 419160, Note_on_c, 2, 76, 64
4, 419276, Note_on_c, 2, 76, 0
4, 419280, Note_on_c, 2, 74, 64
4, 419396, Note_on_c, 2, 74, 0
4, 419400, Note_on_c, 2, 72, 64
4, 419516, Note_on_c, 2, 72, 0
4, 419520, Note_on_c, 2, 71, 64
4, 419636, Note_on_c, 2, 71, 0
4, 419640, Note_on_c, 2, 69, 64
4, 419756, Note_on_c, 2, 69, 0
4, 419760, Note_on_c, 2, 67, 64
4, 419996, Note_on_c, 2, 67, 0
4, 420000, Note_on_c, 2, 72, 64
4, 420236, Note_on_c, 2, 72, 0
4, 420240, Note_on_c, 2, 67, 64
4, 420476, Note_on_c, 2, 67, 0
4, 420480, Note_on_c, 2, 69, 64
4, 420596, Note_on_c, 2, 69, 0
4, 420600, Note_on_c, 2, 74, 64
4, 420716, Note_on_c, 2, 74, 0
4, 420720, Note_on_c, 2, 72, 64
4, 420836, Note_on_c, 2, 72, 0
4, 420840, Note_on_c, 2, 71, 64
4, 420956, Note_on_c, 2, 71, 0
4, 420960, Note_on_c, 2, 69, 64
4, 421076, Note_on_c, 2, 69, 0
4, 421080, Note_on_c, 2, 67, 64
4, 421196, Note_on_c, 2, 67, 0
4, 421200, Note_on_c, 2, 66, 64
4, 421436, Note_on_c, 2, 66, 0
4, 421440, Note_on_c, 2, 71, 64
4, 421676, Note_on_c, 2, 71, 0
4, 421680, Note_on_c, 2, 66, 64
4, 421916, Note_on_c, 2, 66, 0
4, 421920, Note_on_c, 2, 67, 64
4, 422036, Note_on_c, 2, 67, 0
4, 422040, Note_on_c, 2, 72, 64
4, 422156, Note_on_c, 2, 72, 0
4, 422160, Note_on_c, 2, 71, 64
4, 422276, Note_on_c, 2, 71, 0
4, 422280, Note_on_c, 2, 69, 64
4, 422396, Note_on_c, 2, 69, 0
4, 422400, Note_on_c, 2, 67, 64
4, 422516, Note_on_c, 2, 67, 0
4, 422520, Note_on_c, 2, 66, 64
4, 422636, Note_on_c, 2, 66, 0
4, 422640, Note_on_c, 2, 64, 64
4, 422876, Note_on_c, 2, 64, 0
4, 422880, Note_on_c, 2, 69, 64
4, 423116, Note_on_c, 2, 69, 0
4, 423120, Note_on_c, 2, 64, 64
4, 423356, Note_on_c, 2, 64, 0
4, 423360, Note_on_c, 2, 66, 64
4, 423596, Note_on_c, 2, 66, 0
4, 423600, Note_on_c, 2, 74, 64
4, 423836, Note_on_c, 2, 74, 0
4, 423840, Note_on_c, 2, 69, 64
4, 424076, Note_on_c, 2, 69, 0
4, 424080, Note_on_c, 2, 67, 64
4, 424316, Note_on_c, 2, 67, 0
4, 424320, Note_on_c, 2, 74, 64
4, 424556, Note_on_c, 2, 74, 0
4, 424560, Note_on_c, 2, 71, 64
4, 424796, Note_on_c, 2, 71, 0
4, 424800, Note_on_c, 2, 66, 64
4, 425036, Note_on_c, 2, 66, 0
4, 425040, Note_on_c, 2, 74, 64
4, 425276, Note_on_c, 2, 74, 0
4, 425280, Note_on_c, 2, 69, 64
4, 425516, Note_on_c, 2, 69, 0
4, 425520, Note_on_c, 2, 62, 64
4, 425756, Note_on_c, 2, 62, 0
4, 425760, Note_on_c, 2, 71, 64
4, 425996, Note_on_c, 2, 71, 0
4, 426000, Note_on_c, 2, 67, 64
4, 426236, Note_on_c, 2, 67, 0
4, 426240, Note_on_c, 2, 74, 64
4, 426476, Note_on_c, 2, 74, 0
4, 426480, Note_on_c, 2, 69, 64
4, 426716, Note_on_c, 2, 69, 0
4, 426720, Note_on_c, 2, 66, 64
4, 426956, Note_on_c, 2, 66, 0
4, 426960, Note_on_c, 2, 74, 64
4, 427196, Note_on_c, 2, 74, 0
4, 427200, Note_on_c, 2, 71, 64
4, 427436, Note_on_c, 2, 71, 0
4, 427440, Note_on_c, 2, 67, 64
4, 427676, Note_on_c, 2, 67, 0
4, 427680, Note_on_c, 2, 74, 64
4, 427796, Note_on_c, 2, 74, 0
4, 427800, Note_on_c, 2, 69, 64
4, 427916, Note_on_c, 2, 69, 0
4, 427920, Note_on_c, 2, 74, 64
4, 428036, Note_on_c, 2, 74, 0
4, 428040, Note_on_c, 2, 69, 64
4, 428156, Note_on_c, 2, 69, 0
4, 428160, Note_on_c, 2, 74, 64
4, 428276, Note_on_c, 2, 74, 0
4, 428280, Note_on_c, 2, 69, 64
4, 428396, Note_on_c, 2, 69, 0
4, 428400, Note_on_c, 2, 74, 64
4, 428516, Note_on_c, 2, 74, 0
4, 428520, Note_on_c, 2, 71, 64
4, 428636, Note_on_c, 2, 71, 0
4, 428640, Note_on_c, 2, 74, 64
4, 428756, Note_on_c, 2, 74, 0
4, 428760, Note_on_c, 2, 71, 64
4, 428876, Note_on_c, 2, 71, 0
4, 428880, Note_on_c, 2, 74, 64
4, 428996, Note_on_c, 2, 74, 0
4, 429000, Note_on_c, 2, 71, 64
4, 429116, Note_on_c, 2, 71, 0
4, 429120, Note_on_c, 2, 69, 64
4, 429356, Note_on_c, 2, 69, 0
4, 429360, Note_on_c, 2, 62, 64
4, 429596, Note_on_c, 2, 62, 0
4, 429600, Note_on_c, 2, 62, 64
4, 429836, Note_on_c, 2, 62, 0
4, 429840, Note_on_c, 2, 62, 64
4, 430076, Note_on_c, 2, 62, 0
4, 430080, Note_on_c, 2, 62, 64
4, 430316, Note_on_c, 2, 62, 0
4, 430320, Note_on_c, 2, 62, 64
4, 430556, Note_on_c, 2, 62, 0
4, 430560, Note_on_c, 2, 67, 64
4, 430676, Note_on_c, 2, 67, 0
4, 430680, Note_on_c, 2, 71, 64
4, 430796, Note_on_c, 2, 71, 0
4, 430800, Note_on_c, 2, 74, 64
4, 430916, Note_on_c, 2, 74, 0
4, 430920, Note_on_c, 2, 71, 64
4, 431036, Note_on_c, 2, 71, 0
4, 431040, Note_on_c, 2, 67, 64
4, 431156, Note_on_c, 2, 67, 0
4, 431160, Note_on_c, 2, 62, 64
4, 431276, Note_on_c, 2, 62, 0
4, 431280, Note_on_c, 2, 67, 64
4, 431396, Note_on_c, 2, 67, 0
4, 431400, Note_on_c, 2, 62, 64
4, 431516, Note_on_c, 2, 62, 0
4, 431520, Note_on_c, 2, 67, 64
4, 431636, Note_on_c, 2, 67, 0
4, 431640, Note_on_c, 2, 71, 64
4, 431756, Note_on_c, 2, 71, 0
4, 431760, Note_on_c, 2, 74, 64
4, 431876, Note_on_c, 2, 74, 0
4, 431880, Note_on_c, 2, 71, 64
4, 431996, Note_on_c, 2, 71, 0
4, 432000, Note_on_c, 2, 55, 64
4, 432236, Note_on_c, 2, 55, 0
4, 432240, Note_on_c, 2, 60, 64
4, 432476, Note_on_c, 2, 60, 0
4, 432480, Note_on_c, 2, 64, 64
4, 432716, Note_on_c, 2, 64, 0
4, 432720, Note_on_c, 2, 55, 64
4, 432956, Note_on_c, 2, 55, 0
4, 432960, Note_on_c, 2, 60, 64
4, 433196, Note_on_c, 2, 60, 0
4, 433200, Note_on_c, 2, 64, 64
4, 433436, Note_on_c, 2, 64, 0
4, 433440, Note_on_c, 2, 62, 64
4, 433676, Note_on_c, 2, 62, 0
4, 433680, Note_on_c, 2, 66, 64
4, 433916, Note_on_c, 2, 66, 0
4, 433920, Note_on_c, 2, 69, 64
4, 434156, Note_on_c, 2, 69, 0
4, 434160, Note_on_c, 2, 62, 64
4, 434396, Note_on_c, 2, 62, 0
4, 434400, Note_on_c, 2, 66, 64
4, 434636, Note_on_c, 2, 66, 0
4, 434640, Note_on_c, 2, 69, 64
4, 434876, Note_on_c, 2, 69, 0
4, 434880, Note_on_c, 2, 74, 64
4, 435116, Note_on_c, 2, 74, 0
4, 435120, Note_on_c, 2, 67, 64
4, 435236, Note_on_c, 2, 67, 0
4, 435240, Note_on_c, 2, 69, 64
4, 435356, Note_on_c, 2, 69, 0
4, 435360, Note_on_c, 2, 71, 64
4, 435596, Note_on_c, 2, 71, 0
4, 435600, Note_on_c, 2, 62, 64
4, 435836, Note_on_c, 2, 62, 0
4, 435840, Note_on_c, 2, 67, 64
4, 436076, Note_on_c, 2, 67, 0
4, 436080, Note_on_c, 2, 66, 64
4, 436316, Note_on_c, 2, 66, 0
4, 436320, Note_on_c, 2, 67, 64
4, 436556, Note_on_c, 2, 67, 0
4, 436560, Note_on_c, 2, 71, 64
4, 436796, Note_on_c, 2, 71, 0
4, 436800, Note_on_c, 2, 74, 64
4, 437036, Note_on_c, 2, 74, 0
4, 437040, Note_on_c, 2, 79, 64
4, 437756, Note_on_c, 2, 79, 0
4, 437760, Note_on_c, 2, 62, 64
4, 437996, Note_on_c, 2, 62, 0
4, 438000, Note_on_c, 2, 66, 64
4, 438236, Note_on_c, 2, 66, 0
4, 438240, Note_on_c, 2, 69, 64
4, 438476, Note_on_c, 2, 69, 0
4, 438480, Note_on_c, 2, 61, 64
4, 438716, Note_on_c, 2, 61, 0
4, 438720, Note_on_c, 2, 64, 64
4, 438956, Note_on_c, 2, 64, 0
4, 438960, Note_on_c, 2, 69, 64
4, 439196, Note_on_c, 2, 69, 0
4, 439200, Note_on_c, 2, 62, 64
4, 439436, Note_on_c, 2, 62, 0
4, 439440, Note_on_c, 2, 66, 64
4, 439676, Note_on_c, 2, 66, 0
4, 439680, Note_on_c, 2, 69, 64
4, 439916, Note_on_c, 2, 69, 0
4, 439920, Note_on_c, 2, 57, 64
4, 440156, Note_on_c, 2, 57, 0
4, 440160, Note_on_c, 2, 64, 64
4, 440396, Note_on_c, 2, 64, 0
4, 440400, Note_on_c, 2, 69, 64
4, 440636, Note_on_c, 2, 69, 0
4, 440640, Note_on_c, 2, 71, 64
4, 440876, Note_on_c, 2, 71, 0
4, 440880, Note_on_c, 2, 71, 64
4, 441116, Note_on_c, 2, 71, 0
4, 441120, Note_on_c, 2, 71, 64
4, 441356, Note_on_c, 2, 71, 0
4, 441360, Note_on_c, 2, 71, 64
4, 441596, Note_on_c, 2, 71, 0
4, 441600, Note_on_c, 2, 71, 64
4, 441836, Note_on_c, 2, 71, 0
4, 441840, Note_on_c, 2, 71, 64
4, 442076, Note_on_c, 2, 71, 0
4, 442080, Note_on_c, 2, 71, 64
4, 442316, Note_on_c, 2, 71, 0
4, 442320, Note_on_c, 2, 71, 64
4, 442556, Note_on_c, 2, 71, 0
4, 442560, Note_on_c, 2, 71, 64
4, 442796, Note_on_c, 2, 71, 0
4, 442800, Note_on_c, 2, 71, 64
4, 443036, Note_on_c, 2, 71, 0
4, 443040, Note_on_c, 2, 71, 64
4, 443276, Note_on_c, 2, 71, 0
4, 443280, Note_on_c, 2, 71, 64
4, 443516, Note_on_c, 2, 71, 0
4, 443520, Note_on_c, 2, 71, 64
4, 443756, Note_on_c, 2, 71, 0
4, 443760, Note_on_c, 2, 76, 64
4, 443996, Note_on_c, 2, 76, 0
4, 444000, Note_on_c, 2, 79, 64
4, 444236, Note_on_c, 2, 79, 0
4, 444240, Note_on_c, 2, 72, 64
4, 444476, Note_on_c, 2, 72, 0
4, 444480, Note_on_c, 2, 76, 64
4, 444716, Note_on_c, 2, 76, 0
4, 444720, Note_on_c, 2, 79, 64
4, 444956, Note_on_c, 2, 79, 0
4, 444960, Note_on_c, 2, 71, 64
4, 445196, Note_on_c, 2, 71, 0
4, 445200, Note_on_c, 2, 76, 64
4, 445436, Note_on_c, 2, 76, 0
4, 445440, Note_on_c, 2, 79, 64
4, 445676, Note_on_c, 2, 79, 0
4, 445680, Note_on_c, 2, 69, 64
4, 445916, Note_on_c, 2, 69, 0
4, 445920, Note_on_c, 2, 76, 64
4, 446156, Note_on_c, 2, 76, 0
4, 446160, Note_on_c, 2, 79, 64
4, 446396, Note_on_c, 2, 79, 0
4, 446400, Note_on_c, 2, 71, 64
4, 446636, Note_on_c, 2, 71, 0
4, 446640, Note_on_c, 2, 76, 64
4, 446876, Note_on_c, 2, 76, 0
4, 446880, Note_on_c, 2, 79, 64
4, 447116, Note_on_c, 2, 79, 0
4, 447120, Note_on_c, 2, 72, 64
4, 447356, Note_on_c, 2, 72, 0
4, 447360, Note_on_c, 2, 76, 64
4, 447596, Note_on_c, 2, 76, 0
4, 447600, Note_on_c, 2, 79, 64
4, 447836, Note_on_c, 2, 79, 0
4, 447840, Note_on_c, 2, 71, 64
4, 448076, Note_on_c, 2, 71, 0
4, 448080, Note_on_c, 2, 76, 64
4, 448316, Note_on_c, 2, 76, 0
4, 448320, Note_on_c, 2, 75, 64
4, 448556, Note_on_c, 2, 75, 0
4, 448560, Note_on_c, 2, 76, 64
4, 449036, Note_on_c, 2, 76, 0
4, 452160, Note_on_c, 2, 62, 64
4, 452276, Note_on_c, 2, 62, 0
4, 452280, Note_on_c, 2, 61, 64
4, 452396, Note_on_c, 2, 61, 0
4, 452400, Note_on_c, 2, 62, 64
4, 452516, Note_on_c, 2, 62, 0
4, 452520, Note_on_c, 2, 64, 64
4, 452636, Note_on_c, 2, 64, 0
4, 452640, Note_on_c, 2, 66, 64
4, 452756, Note_on_c, 2, 66, 0
4, 452760, Note_on_c, 2, 67, 64
4, 452876, Note_on_c, 2, 67, 0
4, 452880, Note_on_c, 2, 69, 64
4, 452996, Note_on_c, 2, 69, 0
4, 453000, Note_on_c, 2, 71, 64
4, 453116, Note_on_c, 2, 71, 0
4, 453120, Note_on_c, 2, 69, 64
4, 453236, Note_on_c, 2, 69, 0
4, 453240, Note_on_c, 2, 67, 64
4, 453356, Note_on_c, 2, 67, 0
4, 453360, Note_on_c, 2, 66, 64
4, 453476, Note_on_c, 2, 66, 0
4, 453480, Note_on_c, 2, 64, 64
4, 453596, Note_on_c, 2, 64, 0
4, 453600, Note_on_c, 2, 67, 64
4, 453836, Note_on_c, 2, 67, 0
4, 453840, Note_on_c, 2, 71, 64
4, 454076, Note_on_c, 2, 71, 0
4, 454080, Note_on_c, 2, 76, 64
4, 454316, Note_on_c, 2, 76, 0
4, 454320, Note_on_c, 2, 75, 64
4, 454436, Note_on_c, 2, 75, 0
4, 454440, Note_on_c, 2, 76, 64
4, 454556, Note_on_c, 2, 76, 0
4, 454560, Note_on_c, 2, 75, 64
4, 454676, Note_on_c, 2, 75, 0
4, 454680, Note_on_c, 2, 73, 64
4, 454796, Note_on_c, 2, 73, 0
4, 454800, Note_on_c, 2, 71, 64
4, 454916, Note_on_c, 2, 71, 0
4, 454920, Note_on_c, 2, 69, 64
4, 455036, Note_on_c, 2, 69, 0
4, 455040, Note_on_c, 2, 71, 64
4, 455156, Note_on_c, 2, 71, 0
4, 455160, Note_on_c, 2, 73, 64
4, 455276, Note_on_c, 2, 73, 0
4, 455280, Note_on_c, 2, 71, 64
4, 455396, Note_on_c, 2, 71, 0
4, 455400, Note_on_c, 2, 69, 64
4, 455516, Note_on_c, 2, 69, 0
4, 455520, Note_on_c, 2, 67, 64
4, 455636, Note_on_c, 2, 67, 0
4, 455640, Note_on_c, 2, 66, 64
4, 455756, Note_on_c, 2, 66, 0
4, 455760, Note_on_c, 2, 64, 64
4, 455996, Note_on_c, 2, 64, 0
4, 456000, Note_on_c, 2, 69, 64
4, 456236, Note_on_c, 2, 69, 0
4, 456240, Note_on_c, 2, 64, 64
4, 456476, Note_on_c, 2, 64, 0
4, 456480, Note_on_c, 2, 66, 64
4, 456596, Note_on_c, 2, 66, 0
4, 456600, Note_on_c, 2, 71, 64
4, 456716, Note_on_c, 2, 71, 0
4, 456720, Note_on_c, 2, 69, 64
4, 456836, Note_on_c, 2, 69, 0
4, 456840, Note_on_c, 2, 67, 64
4, 456956, Note_on_c, 2, 67, 0
4, 456960, Note_on_c, 2, 66, 64
4, 457076, Note_on_c, 2, 66, 0
4, 457080, Note_on_c, 2, 64, 64
4, 457196, Note_on_c, 2, 64, 0
4, 457200, Note_on_c, 2, 62, 64
4, 457436, Note_on_c, 2, 62, 0
4, 457440, Note_on_c, 2, 67, 64
4, 457676, Note_on_c, 2, 67, 0
4, 457680, Note_on_c, 2, 62, 64
4, 457916, Note_on_c, 2, 62, 0
4, 457920, Note_on_c, 2, 64, 64
4, 458036, Note_on_c, 2, 64, 0
4, 458040, Note_on_c, 2, 69, 64
4, 458156, Note_on_c, 2, 69, 0
4, 458160, Note_on_c, 2, 67, 64
4, 458276, Note_on_c, 2, 67, 0
4, 458280, Note_on_c, 2, 66, 64
4, 458396, Note_on_c, 2, 66, 0
4, 458400, Note_on_c, 2, 64, 64
4, 458516, Note_on_c, 2, 64, 0
4, 458520, Note_on_c, 2, 62, 64
4, 458636, Note_on_c, 2, 62, 0
4, 458640, Note_on_c, 2, 61, 64
4, 458876, Note_on_c, 2, 61, 0
4, 458880, Note_on_c, 2, 66, 64
4, 459116, Note_on_c, 2, 66, 0
4, 459120, Note_on_c, 2, 70, 64
4, 459356, Note_on_c, 2, 70, 0
4, 459360, Note_on_c, 2, 71, 64
4, 459596, Note_on_c, 2, 71, 0
4, 459600, Note_on_c, 2, 74, 64
4, 459836, Note_on_c, 2, 74, 0
4, 459840, Note_on_c, 2, 78, 64
4, 460076, Note_on_c, 2, 78, 0
4, 460080, Note_on_c, 2, 70, 64
4, 460316, Note_on_c, 2, 70, 0
4, 460320, Note_on_c, 2, 73, 64
4, 460556, Note_on_c, 2, 73, 0
4, 460560, Note_on_c, 2, 78, 64
4, 460796, Note_on_c, 2, 78, 0
4, 460800, Note_on_c, 2, 71, 64
4, 461036, Note_on_c, 2, 71, 0
4, 461040, Note_on_c, 2, 74, 64
4, 461276, Note_on_c, 2, 74, 0
4, 461280, Note_on_c, 2, 78, 64
4, 461516, Note_on_c, 2, 78, 0
4, 461520, Note_on_c, 2, 66, 64
4, 461756, Note_on_c, 2, 66, 0
4, 461760, Note_on_c, 2, 73, 64
4, 461996, Note_on_c, 2, 73, 0
4, 462000, Note_on_c, 2, 78, 64
4, 462236, Note_on_c, 2, 78, 0
4, 462240, Note_on_c, 2, 71, 64
4, 462356, Note_on_c, 2, 71, 0
4, 462360, Note_on_c, 2, 70, 64
4, 462476, Note_on_c, 2, 70, 0
4, 462480, Note_on_c, 2, 71, 64
4, 462596, Note_on_c, 2, 71, 0
4, 462600, Note_on_c, 2, 73, 64
4, 462716, Note_on_c, 2, 73, 0
4, 462720, Note_on_c, 2, 74, 64
4, 462836, Note_on_c, 2, 74, 0
4, 462840, Note_on_c, 2, 76, 64
4, 462956, Note_on_c, 2, 76, 0
4, 462960, Note_on_c, 2, 78, 64
4, 463076, Note_on_c, 2, 78, 0
4, 463080, Note_on_c, 2, 79, 64
4, 463196, Note_on_c, 2, 79, 0
4, 463200, Note_on_c, 2, 78, 64
4, 463316, Note_on_c, 2, 78, 0
4, 463320, Note_on_c, 2, 76, 64
4, 463436, Note_on_c, 2, 76, 0
4, 463440, Note_on_c, 2, 74, 64
4, 463556, Note_on_c, 2, 74, 0
4, 463560, Note_on_c, 2, 73, 64
4, 463676, Note_on_c, 2, 73, 0
4, 463680, Note_on_c, 2, 71, 64
4, 463916, Note_on_c, 2, 71, 0
4, 463920, Note_on_c, 2, 74, 64
4, 464156, Note_on_c, 2, 74, 0
4, 464160, Note_on_c, 2, 66, 64
4, 464396, Note_on_c, 2, 66, 0
4, 464400, Note_on_c, 2, 73, 64
4, 464636, Note_on_c, 2, 73, 0
4, 464640, Note_on_c, 2, 76, 64
4, 464876, Note_on_c, 2, 76, 0
4, 464880, Note_on_c, 2, 66, 64
4, 465116, Note_on_c, 2, 66, 0
4, 465120, Note_on_c, 2, 74, 64
4, 465356, Note_on_c, 2, 74, 0
4, 465360, Note_on_c, 2, 74, 64
4, 465596, Note_on_c, 2, 74, 0
4, 465600, Note_on_c, 2, 74, 64
4, 465836, Note_on_c, 2, 74, 0
4, 465840, Note_on_c, 2, 74, 64
4, 466076, Note_on_c, 2, 74, 0
4, 466080, Note_on_c, 2, 74, 64
4, 466316, Note_on_c, 2, 74, 0
4, 466320, Note_on_c, 2, 74, 64
4, 466556, Note_on_c, 2, 74, 0
4, 466560, Note_on_c, 2, 73, 64
4, 466796, Note_on_c, 2, 73, 0
4, 466800, Note_on_c, 2, 73, 64
4, 467036, Note_on_c, 2, 73, 0
4, 467040, Note_on_c, 2, 73, 64
4, 467276, Note_on_c, 2, 73, 0
4, 467280, Note_on_c, 2, 73, 64
4, 467516, Note_on_c, 2, 73, 0
4, 467520, Note_on_c, 2, 73, 64
4, 467756, Note_on_c, 2, 73, 0
4, 467760, Note_on_c, 2, 73, 64
4, 467996, Note_on_c, 2, 73, 0
4, 468000, Note_on_c, 2, 71, 64
4, 468236, Note_on_c, 2, 71, 0
4, 468240, Note_on_c, 2, 71, 64
4, 468476, Note_on_c, 2, 71, 0
4, 468480, Note_on_c, 2, 71, 64
4, 468716, Note_on_c, 2, 71, 0
4, 468720, Note_on_c, 2, 71, 64
4, 468956, Note_on_c, 2, 71, 0
4, 468960, Note_on_c, 2, 71, 64
4, 469196, Note_on_c, 2, 71, 0
4, 469200, Note_on_c, 2, 71, 64
4, 469436, Note_on_c, 2, 71, 0
4, 469440, Note_on_c, 2, 70, 64
4, 469916, Note_on_c, 2, 70, 0
4, 469920, Note_on_c, 2, 73, 64
4, 470156, Note_on_c, 2, 73, 0
4, 470160, Note_on_c, 2, 71, 64
4, 470636, Note_on_c, 2, 71, 0
4, 470640, Note_on_c, 2, 74, 64
4, 470876, Note_on_c, 2, 74, 0
4, 470880, Note_on_c, 2, 73, 64
4, 471356, Note_on_c, 2, 73, 0
4, 471360, Note_on_c, 2, 76, 64
4, 471596, Note_on_c, 2, 76, 0
4, 471600, Note_on_c, 2, 74, 64
4, 472076, Note_on_c, 2, 74, 0
4, 472080, Note_on_c, 2, 78, 64
4, 472316, Note_on_c, 2, 78, 0
4, 472320, Note_on_c, 2, 70, 64
4, 472436, Note_on_c, 2, 70, 0
4, 472440, Note_on_c, 2, 73, 64
4, 472556, Note_on_c, 2, 73, 0
4, 472560, Note_on_c, 2, 66, 64
4, 472676, Note_on_c, 2, 66, 0
4, 472680, Note_on_c, 2, 73, 64
4, 472796, Note_on_c, 2, 73, 0
4, 472800, Note_on_c, 2, 70, 64
4, 472916, Note_on_c, 2, 70, 0
4, 472920, Note_on_c, 2, 73, 64
4, 473036, Note_on_c, 2, 73, 0
4, 473040, Note_on_c, 2, 71, 64
4, 473156, Note_on_c, 2, 71, 0
4, 473160, Note_on_c, 2, 74, 64
4, 473276, Note_on_c, 2, 74, 0
4, 473280, Note_on_c, 2, 66, 64
4, 473396, Note_on_c, 2, 66, 0
4, 473400, Note_on_c, 2, 74, 64
4, 473516, Note_on_c, 2, 74, 0
4, 473520, Note_on_c, 2, 71, 64
4, 473636, Note_on_c, 2, 71, 0
4, 473640, Note_on_c, 2, 74, 64
4, 473756, Note_on_c, 2, 74, 0
4, 473760, Note_on_c, 2, 73, 64
4, 473876, Note_on_c, 2, 73, 0
4, 473880, Note_on_c, 2, 76, 64
4, 473996, Note_on_c, 2, 76, 0
4, 474000, Note_on_c, 2, 66, 64
4, 474116, Note_on_c, 2, 66, 0
4, 474120, Note_on_c, 2, 76, 64
4, 474236, Note_on_c, 2, 76, 0
4, 474240, Note_on_c, 2, 73, 64
4, 474356, Note_on_c, 2, 73, 0
4, 474360, Note_on_c, 2, 76, 64
4, 474476, Note_on_c, 2, 76, 0
4, 474480, Note_on_c, 2, 74, 64
4, 474596, Note_on_c, 2, 74, 0
4, 474600, Note_on_c, 2, 78, 64
4, 474716, Note_on_c, 2, 78, 0
4, 474720, Note_on_c, 2, 66, 64
4, 474836, Note_on_c, 2, 66, 0
4, 474840, Note_on_c, 2, 78, 64
4, 474956, Note_on_c, 2, 78, 0
4, 474960, Note_on_c, 2, 74, 64
4, 475076, Note_on_c, 2, 74, 0
4, 475080, Note_on_c, 2, 78, 64
4, 475196, Note_on_c, 2, 78, 0
4, 475200, Note_on_c, 2, 70, 64
4, 475436, Note_on_c, 2, 70, 0
4, 475440, Note_on_c, 2, 66, 64
4, 475676, Note_on_c, 2, 66, 0
4, 475680, Note_on_c, 2, 66, 64
4, 475916, Note_on_c, 2, 66, 0
4, 475920, Note_on_c, 2, 66, 64
4, 476156, Note_on_c, 2, 66, 0
4, 476160, Note_on_c, 2, 66, 64
4, 476396, Note_on_c, 2, 66, 0
4, 476400, Note_on_c, 2, 66, 64
4, 476636, Note_on_c, 2, 66, 0
4, 476640, Note_on_c, 2, 78, 64
4, 476756, Note_on_c, 2, 78, 0
4, 476760, Note_on_c, 2, 81, 64
4, 476876, Note_on_c, 2, 81, 0
4, 476880, Note_on_c, 2, 71, 64
4, 476996, Note_on_c, 2, 71, 0
4, 477000, Note_on_c, 2, 81, 64
4, 477116, Note_on_c, 2, 81, 0
4, 477120, Note_on_c, 2, 78, 64
4, 477236, Note_on_c, 2, 78, 0
4, 477240, Note_on_c, 2, 81, 64
4, 477356, Note_on_c, 2, 81, 0
4, 477360, Note_on_c, 2, 78, 64
4, 477476, Note_on_c, 2, 78, 0
4, 477480, Note_on_c, 2, 81, 64
4, 477596, Note_on_c, 2, 81, 0
4, 477600, Note_on_c, 2, 71, 64
4, 477716, Note_on_c, 2, 71, 0
4, 477720, Note_on_c, 2, 81, 64
4, 477836, Note_on_c, 2, 81, 0
4, 477840, Note_on_c, 2, 78, 64
4, 477956, Note_on_c, 2, 78, 0
4, 477960, Note_on_c, 2, 81, 64
4, 478076, Note_on_c, 2, 81, 0
4, 478080, Note_on_c, 2, 64, 64
4, 478316, Note_on_c, 2, 64, 0
4, 478320, Note_on_c, 2, 67, 64
4, 478556, Note_on_c, 2, 67, 0
4, 478560, Note_on_c, 2, 71, 64
4, 478796, Note_on_c, 2, 71, 0
4, 478800, Note_on_c, 2, 67, 64
4, 479036, Note_on_c, 2, 67, 0
4, 479040, Note_on_c, 2, 71, 64
4, 479276, Note_on_c, 2, 71, 0
4, 479280, Note_on_c, 2, 76, 64
4, 479516, Note_on_c, 2, 76, 0
4, 479520, Note_on_c, 2, 70, 64
4, 479756, Note_on_c, 2, 70, 0
4, 479760, Note_on_c, 2, 73, 64
4, 479996, Note_on_c, 2, 73, 0
4, 480000, Note_on_c, 2, 78, 64
4, 480236, Note_on_c, 2, 78, 0
4, 480240, Note_on_c, 2, 73, 64
4, 480476, Note_on_c, 2, 73, 0
4, 480480, Note_on_c, 2, 78, 64
4, 480716, Note_on_c, 2, 78, 0
4, 480720, Note_on_c, 2, 82, 64
4, 480956, Note_on_c, 2, 82, 0
4, 480960, Note_on_c, 2, 83, 64
4, 481196, Note_on_c, 2, 83, 0
4, 481200, Note_on_c, 2, 71, 64
4, 481316, Note_on_c, 2, 71, 0
4, 481320, Note_on_c, 2, 73, 64
4, 481436, Note_on_c, 2, 73, 0
4, 481440, Note_on_c, 2, 74, 64
4, 481676, Note_on_c, 2, 74, 0
4, 481680, Note_on_c, 2, 66, 64
4, 481916, Note_on_c, 2, 66, 0
4, 481920, Note_on_c, 2, 71, 64
4, 482156, Note_on_c, 2, 71, 0
4, 482160, Note_on_c, 2, 70, 64
4, 482396, Note_on_c, 2, 70, 0
4, 482400, Note_on_c, 2, 71, 64
4, 483116, Note_on_c, 2, 71, 0
4, 483120, Note_on_c, 2, 59, 64
4, 483836, Note_on_c, 2, 59, 0
4, 483840, Note_on_c, 2, 69, 64
4, 484076, Note_on_c, 2, 69, 0
4, 484080, Note_on_c, 2, 69, 64
4, 484316, Note_on_c, 2, 69, 0
4, 484320, Note_on_c, 2, 69, 64
4, 484556, Note_on_c, 2, 69, 0
4, 484560, Note_on_c, 2, 69, 64
4, 484796, Note_on_c, 2, 69, 0
4, 484800, Note_on_c, 2, 69, 64
4, 485036, Note_on_c, 2, 69, 0
4, 485040, Note_on_c, 2, 69, 64
4, 485276, Note_on_c, 2, 69, 0
4, 485280, Note_on_c, 2, 69, 64
4, 485396, Note_on_c, 2, 69, 0
4, 485400, Note_on_c, 2, 72, 64
4, 485516, Note_on_c, 2, 72, 0
4, 485520, Note_on_c, 2, 71, 64
4, 485636, Note_on_c, 2, 71, 0
4, 485640, Note_on_c, 2, 69, 64
4, 485756, Note_on_c, 2, 69, 0
4, 485760, Note_on_c, 2, 67, 64
4, 485876, Note_on_c, 2, 67, 0
4, 485880, Note_on_c, 2, 66, 64
4, 485996, Note_on_c, 2, 66, 0
4, 486000, Note_on_c, 2, 67, 64
4, 486236, Note_on_c, 2, 67, 0
4, 486240, Note_on_c, 2, 64, 64
4, 486476, Note_on_c, 2, 64, 0
4, 486480, Note_on_c, 2, 67, 64
4, 486716, Note_on_c, 2, 67, 0
4, 486720, Note_on_c, 2, 64, 64
4, 486956, Note_on_c, 2, 64, 0
4, 486960, Note_on_c, 2, 64, 64
4, 487196, Note_on_c, 2, 64, 0
4, 487200, Note_on_c, 2, 64, 64
4, 487436, Note_on_c, 2, 64, 0
4, 487440, Note_on_c, 2, 68, 64
4, 487676, Note_on_c, 2, 68, 0
4, 487680, Note_on_c, 2, 68, 64
4, 487916, Note_on_c, 2, 68, 0
4, 487920, Note_on_c, 2, 68, 64
4, 488156, Note_on_c, 2, 68, 0
4, 488160, Note_on_c, 2, 68, 64
4, 488396, Note_on_c, 2, 68, 0
4, 488400, Note_on_c, 2, 64, 64
4, 488636, Note_on_c, 2, 64, 0
4, 488640, Note_on_c, 2, 64, 64
4, 488876, Note_on_c, 2, 64, 0
4, 488880, Note_on_c, 2, 64, 64
4, 489356, Note_on_c, 2, 64, 0
4, 489600, Note_on_c, 2, 77, 64
4, 489836, Note_on_c, 2, 77, 0
4, 489840, Note_on_c, 2, 77, 64
4, 490076, Note_on_c, 2, 77, 0
4, 490080, Note_on_c, 2, 77, 64
4, 490316, Note_on_c, 2, 77, 0
4, 490320, Note_on_c, 2, 77, 64
4, 490436, Note_on_c, 2, 77, 0
4, 490440, Note_on_c, 2, 67, 64
4, 490556, Note_on_c, 2, 67, 0
4, 490560, Note_on_c, 2, 71, 64
4, 490676, Note_on_c, 2, 71, 0
4, 490680, Note_on_c, 2, 74, 64
4, 490796, Note_on_c, 2, 74, 0
4, 490800, Note_on_c, 2, 71, 64
4, 490916, Note_on_c, 2, 71, 0
4, 490920, Note_on_c, 2, 67, 64
4, 491036, Note_on_c, 2, 67, 0
4, 491040, Note_on_c, 2, 76, 64
4, 491276, Note_on_c, 2, 76, 0
4, 491280, Note_on_c, 2, 76, 64
4, 491516, Note_on_c, 2, 76, 0
4, 491520, Note_on_c, 2, 76, 64
4, 491756, Note_on_c, 2, 76, 0
4, 491760, Note_on_c, 2, 76, 64
4, 491876, Note_on_c, 2, 76, 0
4, 491880, Note_on_c, 2, 65, 64
4, 491996, Note_on_c, 2, 65, 0
4, 492000, Note_on_c, 2, 69, 64
4, 492116, Note_on_c, 2, 69, 0
4, 492120, Note_on_c, 2, 72, 64
4, 492236, Note_on_c, 2, 72, 0
4, 492240, Note_on_c, 2, 69, 64
4, 492356, Note_on_c, 2, 69, 0
4, 492360, Note_on_c, 2, 65, 64
4, 492476, Note_on_c, 2, 65, 0
4, 492480, Note_on_c, 2, 79, 64
4, 492716, Note_on_c, 2, 79, 0
4, 492720, Note_on_c, 2, 79, 64
4, 492956, Note_on_c, 2, 79, 0
4, 492960, Note_on_c, 2, 79, 64
4, 493196, Note_on_c, 2, 79, 0
4, 493200, Note_on_c, 2, 79, 64
4, 493436, Note_on_c, 2, 79, 0
4, 493440, Note_on_c, 2, 79, 64
4, 493676, Note_on_c, 2, 79, 0
4, 493680, Note_on_c, 2, 79, 64
4, 493916, Note_on_c, 2, 79, 0
4, 493920, Note_on_c, 2, 79, 64
4, 494156, Note_on_c, 2, 79, 0
4, 494160, Note_on_c, 2, 79, 64
4, 494396, Note_on_c, 2, 79, 0
4, 494400, Note_on_c, 2, 79, 64
4, 494636, Note_on_c, 2, 79, 0
4, 494640, Note_on_c, 2, 79, 64
4, 494876, Note_on_c, 2, 79, 0
4, 494880, Note_on_c, 2, 79, 64
4, 495116, Note_on_c, 2, 79, 0
4, 495120, Note_on_c, 2, 79, 64
4, 495356, Note_on_c, 2, 79, 0
4, 495360, Note_on_c, 2, 79, 64
4, 495596, Note_on_c, 2, 79, 0
4, 495600, Note_on_c, 2, 79, 64
4, 495836, Note_on_c, 2, 79, 0
4, 495840, Note_on_c, 2, 79, 64
4, 496076, Note_on_c, 2, 79, 0
4, 496080, Note_on_c, 2, 79, 64
4, 496316, Note_on_c, 2, 79, 0
4, 496320, Note_on_c, 2, 79, 64
4, 496556, Note_on_c, 2, 79, 0
4, 496560, Note_on_c, 2, 79, 64
4, 496796, Note_on_c, 2, 79, 0
4, 496800, Note_on_c, 2, 79, 64
4, 497036, Note_on_c, 2, 79, 0
4, 497040, Note_on_c, 2, 79, 64
4, 497276, Note_on_c, 2, 79, 0
4, 497280, Note_on_c, 2, 79, 64
4, 497516, Note_on_c, 2, 79, 0
4, 497520, Note_on_c, 2, 79, 64
4, 497756, Note_on_c, 2, 79, 0
4, 497760, Note_on_c, 2, 79, 64
4, 497996, Note_on_c, 2, 79, 0
4, 498000, Note_on_c, 2, 79, 64
4, 498236, Note_on_c, 2, 79, 0
4, 498240, Note_on_c, 2, 63, 64
4, 498356, Note_on_c, 2, 63, 0
4, 498360, Note_on_c, 2, 69, 64
4, 498476, Note_on_c, 2, 69, 0
4, 498480, Note_on_c, 2, 60, 64
4, 498596, Note_on_c, 2, 60, 0
4, 498600, Note_on_c, 2, 69, 64
4, 498716, Note_on_c, 2, 69, 0
4, 498720, Note_on_c, 2, 63, 64
4, 498836, Note_on_c, 2, 63, 0
4, 498840, Note_on_c, 2, 62, 64
4, 498956, Note_on_c, 2, 62, 0
4, 498960, Note_on_c, 2, 63, 64
4, 499076, Note_on_c, 2, 63, 0
4, 499080, Note_on_c, 2, 69, 64
4, 499196, Note_on_c, 2, 69, 0
4, 499200, Note_on_c, 2, 60, 64
4, 499316, Note_on_c, 2, 60, 0
4, 499320, Note_on_c, 2, 69, 64
4, 499436, Note_on_c, 2, 69, 0
4, 499440, Note_on_c, 2, 63, 64
4, 499556, Note_on_c, 2, 63, 0
4, 499560, Note_on_c, 2, 69, 64
4, 499676, Note_on_c, 2, 69, 0
4, 499680, Note_on_c, 2, 59, 64
4, 499916, Note_on_c, 2, 59, 0
4, 499920, Note_on_c, 2, 62, 64
4, 500156, Note_on_c, 2, 62, 0
4, 500160, Note_on_c, 2, 67, 64
4, 500396, Note_on_c, 2, 67, 0
4, 500400, Note_on_c, 2, 62, 64
4, 500636, Note_on_c, 2, 62, 0
4, 500640, Note_on_c, 2, 67, 64
4, 500876, Note_on_c, 2, 67, 0
4, 500880, Note_on_c, 2, 71, 64
4, 501116, Note_on_c, 2, 71, 0
4, 501120, Note_on_c, 2, 60, 64
4, 501356, Note_on_c, 2, 60, 0
4, 501360, Note_on_c, 2, 60, 64
4, 501596, Note_on_c, 2, 60, 0
4, 501600, Note_on_c, 2, 60, 64
4, 501836, Note_on_c, 2, 60, 0
4, 501840, Note_on_c, 2, 60, 64
4, 502076, Note_on_c, 2, 60, 0
4, 502080, Note_on_c, 2, 60, 64
4, 502316, Note_on_c, 2, 60, 0
4, 502320, Note_on_c, 2, 60, 64
4, 502556, Note_on_c, 2, 60, 0
4, 502560, Note_on_c, 2, 60, 64
4, 502796, Note_on_c, 2, 60, 0
4, 502800, Note_on_c, 2, 60, 64
4, 503036, Note_on_c, 2, 60, 0
4, 503040, Note_on_c, 2, 60, 64
4, 503276, Note_on_c, 2, 60, 0
4, 503280, Note_on_c, 2, 60, 64
4, 503516, Note_on_c, 2, 60, 0
4, 503520, Note_on_c, 2, 60, 64
4, 503756, Note_on_c, 2, 60, 0
4, 503760, Note_on_c, 2, 60, 64
4, 503996, Note_on_c, 2, 60, 0
4, 504000, Note_on_c, 2, 60, 64
4, 504236, Note_on_c, 2, 60, 0
4, 504240, Note_on_c, 2, 60, 64
4, 504476, Note_on_c, 2, 60, 0
4, 504480, Note_on_c, 2, 60, 64
4, 504716, Note_on_c, 2, 60, 0
4, 504720, Note_on_c, 2, 60, 64
4, 504956, Note_on_c, 2, 60, 0
4, 504960, Note_on_c, 2, 60, 64
4, 505196, Note_on_c, 2, 60, 0
4, 505200, Note_on_c, 2, 60, 64
4, 505436, Note_on_c, 2, 60, 0
4, 505440, Note_on_c, 2, 64, 64
4, 505676, Note_on_c, 2, 64, 0
4, 505680, Note_on_c, 2, 67, 64
4, 505916, Note_on_c, 2, 67, 0
4, 505920, Note_on_c, 2, 62, 64
4, 506156, Note_on_c, 2, 62, 0
4, 506160, Note_on_c, 2, 64, 64
4, 506396, Note_on_c, 2, 64, 0
4, 506400, Note_on_c, 2, 60, 64
4, 506636, Note_on_c, 2, 60, 0
4, 506640, Note_on_c, 2, 55, 64
4, 506876, Note_on_c, 2, 55, 0
4, 506880, Note_on_c, 2, 60, 64
4, 507116, Note_on_c, 2, 60, 0
4, 507120, Note_on_c, 2, 64, 64
4, 507356, Note_on_c, 2, 64, 0
4, 507360, Note_on_c, 2, 67, 64
4, 507596, Note_on_c, 2, 67, 0
4, 507600, Note_on_c, 2, 59, 64
4, 507836, Note_on_c, 2, 59, 0
4, 507840, Note_on_c, 2, 62, 64
4, 508076, Note_on_c, 2, 62, 0
4, 508080, Note_on_c, 2, 67, 64
4, 508316, Note_on_c, 2, 67, 0
4, 508320, Note_on_c, 2, 60, 64
4, 508556, Note_on_c, 2, 60, 0
4, 508560, Note_on_c, 2, 64, 64
4, 508796, Note_on_c, 2, 64, 0
4, 508800, Note_on_c, 2, 67, 64
4, 509036, Note_on_c, 2, 67, 0
4, 509040, Note_on_c, 2, 55, 64
4, 509276, Note_on_c, 2, 55, 0
4, 509280, Note_on_c, 2, 62, 64
4, 509516, Note_on_c, 2, 62, 0
4, 509520, Note_on_c, 2, 67, 64
4, 509756, Note_on_c, 2, 67, 0
4, 509760, Note_on_c, 2, 60, 64
4, 509876, Note_on_c, 2, 60, 0
4, 509880, Note_on_c, 2, 59, 64
4, 509996, Note_on_c, 2, 59, 0
4, 510000, Note_on_c, 2, 60, 64
4, 510116, Note_on_c, 2, 60, 0
4, 510120, Note_on_c, 2, 62, 64
4, 510236, Note_on_c, 2, 62, 0
4, 510240, Note_on_c, 2, 64, 64
4, 510356, Note_on_c, 2, 64, 0
4, 510360, Note_on_c, 2, 65, 64
4, 510476, Note_on_c, 2, 65, 0
4, 510480, Note_on_c, 2, 67, 64
4, 510596, Note_on_c, 2, 67, 0
4, 510600, Note_on_c, 2, 69, 64
4, 510716, Note_on_c, 2, 69, 0
4, 510720, Note_on_c, 2, 67, 64
4, 510836, Note_on_c, 2, 67, 0
4, 510840, Note_on_c, 2, 65, 64
4, 510956, Note_on_c, 2, 65, 0
4, 510960, Note_on_c, 2, 64, 64
4, 511076, Note_on_c, 2, 64, 0
4, 511080, Note_on_c, 2, 62, 64
4, 511196, Note_on_c, 2, 62, 0
4, 511200, Note_on_c, 2, 60, 64
4, 511436, Note_on_c, 2, 60, 0
4, 511440, Note_on_c, 2, 64, 64
4, 511676, Note_on_c, 2, 64, 0
4, 511680, Note_on_c, 2, 67, 64
4, 511916, Note_on_c, 2, 67, 0
4, 511920, Note_on_c, 2, 74, 64
4, 512156, Note_on_c, 2, 74, 0
4, 512160, Note_on_c, 2, 77, 64
4, 512396, Note_on_c, 2, 77, 0
4, 512400, Note_on_c, 2, 67, 64
4, 512636, Note_on_c, 2, 67, 0
4, 512640, Note_on_c, 2, 76, 64
4, 512876, Note_on_c, 2, 76, 0
4, 512880, Note_on_c, 2, 76, 64
4, 513116, Note_on_c, 2, 76, 0
4, 513120, Note_on_c, 2, 76, 64
4, 513356, Note_on_c, 2, 76, 0
4, 513360, Note_on_c, 2, 76, 64
4, 513596, Note_on_c, 2, 76, 0
4, 513600, Note_on_c, 2, 76, 64
4, 513836, Note_on_c, 2, 76, 0
4, 513840, Note_on_c, 2, 76, 64
4, 514076, Note_on_c, 2, 76, 0
4, 514080, Note_on_c, 2, 74, 64
4, 514316, Note_on_c, 2, 74, 0
4, 514320, Note_on_c, 2, 74, 64
4, 514556, Note_on_c, 2, 74, 0
4, 514560, Note_on_c, 2, 74, 64
4, 514796, Note_on_c, 2, 74, 0
4, 514800, Note_on_c, 2, 74, 64
4, 515036, Note_on_c, 2, 74, 0
4, 515040, Note_on_c, 2, 74, 64
4, 515276, Note_on_c, 2, 74, 0
4, 515280, Note_on_c, 2, 74, 64
4, 515516, Note_on_c, 2, 74, 0
4, 515520, Note_on_c, 2, 72, 64
4, 515756, Note_on_c, 2, 72, 0
4, 515760, Note_on_c, 2, 72, 64
4, 515996, Note_on_c, 2, 72, 0
4, 516000, Note_on_c, 2, 72, 64
4, 516236, Note_on_c, 2, 72, 0
4, 516240, Note_on_c, 2, 72, 64
4, 516476, Note_on_c, 2, 72, 0
4, 516480, Note_on_c, 2, 72, 64
4, 516716, Note_on_c, 2, 72, 0
4, 516720, Note_on_c, 2, 72, 64
4, 516956, Note_on_c, 2, 72, 0
4, 516960, Note_on_c, 2, 71, 64
4, 517196, Note_on_c, 2, 71, 0
4, 517200, Note_on_c, 2, 62, 64
4, 517436, Note_on_c, 2, 62, 0
4, 517440, Note_on_c, 2, 62, 64
4, 517676, Note_on_c, 2, 62, 0
4, 517680, Note_on_c, 2, 62, 64
4, 517916, Note_on_c, 2, 62, 0
4, 517920, Note_on_c, 2, 62, 64
4, 518156, Note_on_c, 2, 62, 0
4, 518160, Note_on_c, 2, 62, 64
4, 518396, Note_on_c, 2, 62, 0
4, 518400, Note_on_c, 2, 62, 64
4, 518636, Note_on_c, 2, 62, 0
4, 518640, Note_on_c, 2, 62, 64
4, 518876, Note_on_c, 2, 62, 0
4, 518880, Note_on_c, 2, 62, 64
4, 519116, Note_on_c, 2, 62, 0
4, 519120, Note_on_c, 2, 62, 64
4, 519356, Note_on_c, 2, 62, 0
4, 519360, Note_on_c, 2, 62, 64
4, 519596, Note_on_c, 2, 62, 0
4, 519600, Note_on_c, 2, 62, 64
4, 519836, Note_on_c, 2, 62, 0
4, 519840, Note_on_c, 2, 62, 64
4, 520076, Note_on_c, 2, 62, 0
4, 520080, Note_on_c, 2, 62, 64
4, 520316, Note_on_c, 2, 62, 0
4, 520320, Note_on_c, 2, 62, 64
4, 520556, Note_on_c, 2, 62, 0
4, 520560, Note_on_c, 2, 62, 64
4, 520796, Note_on_c, 2, 62, 0
4, 520800, Note_on_c, 2, 62, 64
4, 521036, Note_on_c, 2, 62, 0
4, 521040, Note_on_c, 2, 62, 64
4, 521276, Note_on_c, 2, 62, 0
4, 521280, Note_on_c, 2, 62, 64
4, 521516, Note_on_c, 2, 62, 0
4, 521520, Note_on_c, 2, 74, 64
4, 521756, Note_on_c, 2, 74, 0
4, 521760, Note_on_c, 2, 79, 64
4, 521996, Note_on_c, 2, 79, 0
4, 522000, Note_on_c, 2, 78, 64
4, 522116, Note_on_c, 2, 78, 0
4, 522120, Note_on_c, 2, 79, 64
4, 522236, Note_on_c, 2, 79, 0
4, 522240, Note_on_c, 2, 78, 64
4, 522356, Note_on_c, 2, 78, 0
4, 522360, Note_on_c, 2, 76, 64
4, 522476, Note_on_c, 2, 76, 0
4, 522480, Note_on_c, 2, 74, 64
4, 522596, Note_on_c, 2, 74, 0
4, 522600, Note_on_c, 2, 72, 64
4, 522716, Note_on_c, 2, 72, 0
4, 522720, Note_on_c, 2, 71, 64
4, 522836, Note_on_c, 2, 71, 0
4, 522840, Note_on_c, 2, 76, 64
4, 522956, Note_on_c, 2, 76, 0
4, 522960, Note_on_c, 2, 74, 64
4, 523076, Note_on_c, 2, 74, 0
4, 523080, Note_on_c, 2, 72, 64
4, 523196, Note_on_c, 2, 72, 0
4, 523200, Note_on_c, 2, 71, 64
4, 523316, Note_on_c, 2, 71, 0
4, 523320, Note_on_c, 2, 69, 64
4, 523436, Note_on_c, 2, 69, 0
4, 523440, Note_on_c, 2, 67, 64
4, 523676, Note_on_c, 2, 67, 0
4, 523680, Note_on_c, 2, 72, 64
4, 523916, Note_on_c, 2, 72, 0
4, 523920, Note_on_c, 2, 67, 64
4, 524156, Note_on_c, 2, 67, 0
4, 524160, Note_on_c, 2, 69, 64
4, 524276, Note_on_c, 2, 69, 0
4, 524280, Note_on_c, 2, 74, 64
4, 524396, Note_on_c, 2, 74, 0
4, 524400, Note_on_c, 2, 72, 64
4, 524516, Note_on_c, 2, 72, 0
4, 524520, Note_on_c, 2, 71, 64
4, 524636, Note_on_c, 2, 71, 0
4, 524640, Note_on_c, 2, 69, 64
4, 524756, Note_on_c, 2, 69, 0
4, 524760, Note_on_c, 2, 67, 64
4, 524876, Note_on_c, 2, 67, 0
4, 524880, Note_on_c, 2, 66, 64
4, 525116, Note_on_c, 2, 66, 0
4, 525120, Note_on_c, 2, 71, 64
4, 525356, Note_on_c, 2, 71, 0
4, 525360, Note_on_c, 2, 66, 64
4, 525596, Note_on_c, 2, 66, 0
4, 525600, Note_on_c, 2, 67, 64
4, 525716, Note_on_c, 2, 67, 0
4, 525720, Note_on_c, 2, 72, 64
4, 525836, Note_on_c, 2, 72, 0
4, 525840, Note_on_c, 2, 71, 64
4, 525956, Note_on_c, 2, 71, 0
4, 525960, Note_on_c, 2, 69, 64
4, 526076, Note_on_c, 2, 69, 0
4, 526080, Note_on_c, 2, 67, 64
4, 526196, Note_on_c, 2, 67, 0
4, 526200, Note_on_c, 2, 66, 64
4, 526316, Note_on_c, 2, 66, 0
4, 526320, Note_on_c, 2, 64, 64
4, 526556, Note_on_c, 2, 64, 0
4, 526560, Note_on_c, 2, 69, 64
4, 526796, Note_on_c, 2, 69, 0
4, 526800, Note_on_c, 2, 64, 64
4, 527036, Note_on_c, 2, 64, 0
4, 527040, Note_on_c, 2, 66, 64
4, 527276, Note_on_c, 2, 66, 0
4, 527280, Note_on_c, 2, 74, 64
4, 527516, Note_on_c, 2, 74, 0
4, 527520, Note_on_c, 2, 69, 64
4, 527756, Note_on_c, 2, 69, 0
4, 527760, Note_on_c, 2, 67, 64
4, 527996, Note_on_c, 2, 67, 0
4, 528000, Note_on_c, 2, 74, 64
4, 528236, Note_on_c, 2, 74, 0
4, 528240, Note_on_c, 2, 71, 64
4, 528476, Note_on_c, 2, 71, 0
4, 528480, Note_on_c, 2, 66, 64
4, 528716, Note_on_c, 2, 66, 0
4, 528720, Note_on_c, 2, 74, 64
4, 528956, Note_on_c, 2, 74, 0
4, 528960, Note_on_c, 2, 69, 64
4, 529196, Note_on_c, 2, 69, 0
4, 529200, Note_on_c, 2, 62, 64
4, 529436, Note_on_c, 2, 62, 0
4, 529440, Note_on_c, 2, 71, 64
4, 529676, Note_on_c, 2, 71, 0
4, 529680, Note_on_c, 2, 67, 64
4, 529916, Note_on_c, 2, 67, 0
4, 529920, Note_on_c, 2, 74, 64
4, 530156, Note_on_c, 2, 74, 0
4, 530160, Note_on_c, 2, 69, 64
4, 530396, Note_on_c, 2, 69, 0
4, 530400, Note_on_c, 2, 66, 64
4, 530636, Note_on_c, 2, 66, 0
4, 530640, Note_on_c, 2, 74, 64
4, 530876, Note_on_c, 2, 74, 0
4, 530880, Note_on_c, 2, 71, 64
4, 531116, Note_on_c, 2, 71, 0
4, 531120, Note_on_c, 2, 67, 64
4, 531356, Note_on_c, 2, 67, 0
4, 531360, Note_on_c, 2, 74, 64
4, 531476, Note_on_c, 2, 74, 0
4, 531480, Note_on_c, 2, 69, 64
4, 531596, Note_on_c, 2, 69, 0
4, 531600, Note_on_c, 2, 74, 64
4, 531716, Note_on_c, 2, 74, 0
4, 531720, Note_on_c, 2, 69, 64
4, 531836, Note_on_c, 2, 69, 0
4, 531840, Note_on_c, 2, 74, 64
4, 531956, Note_on_c, 2, 74, 0
4, 531960, Note_on_c, 2, 69, 64
4, 532076, Note_on_c, 2, 69, 0
4, 532080, Note_on_c, 2, 74, 64
4, 532196, Note_on_c, 2, 74, 0
4, 532200, Note_on_c, 2, 71, 64
4, 532316, Note_on_c, 2, 71, 0
4, 532320, Note_on_c, 2, 74, 64
4, 532436, Note_on_c, 2, 74, 0
4, 532440, Note_on_c, 2, 71, 64
4, 532556, Note_on_c, 2, 71, 0
4, 532560, Note_on_c, 2, 74, 64
4, 532676, Note_on_c, 2, 74, 0
4, 532680, Note_on_c, 2, 71, 64
4, 532796, Note_on_c, 2, 71, 0
4, 532800, Note_on_c, 2, 69, 64
4, 533036, Note_on_c, 2, 69, 0
4, 533040, Note_on_c, 2, 62, 64
4, 533276, Note_on_c, 2, 62, 0
4, 533280, Note_on_c, 2, 62, 64
4, 533516, Note_on_c, 2, 62, 0
4, 533520, Note_on_c, 2, 62, 64
4, 533756, Note_on_c, 2, 62, 0
4, 533760, Note_on_c, 2, 62, 64
4, 533996, Note_on_c, 2, 62, 0
4, 534000, Note_on_c, 2, 62, 64
4, 534236, Note_on_c, 2, 62, 0
4, 534240, Note_on_c, 2, 67, 64
4, 534356, Note_on_c, 2, 67, 0
4, 534360, Note_on_c, 2, 71, 64
4, 534476, Note_on_c, 2, 71, 0
4, 534480, Note_on_c, 2, 74, 64
4, 534596, Note_on_c, 2, 74, 0
4, 534600, Note_on_c, 2, 71, 64
4, 534716, Note_on_c, 2, 71, 0
4, 534720, Note_on_c, 2, 67, 64
4, 534836, Note_on_c, 2, 67, 0
4, 534840, Note_on_c, 2, 62, 64
4, 534956, Note_on_c, 2, 62, 0
4, 534960, Note_on_c, 2, 67, 64
4, 535076, Note_on_c, 2, 67, 0
4, 535080, Note_on_c, 2, 62, 64
4, 535196, Note_on_c, 2, 62, 0
4, 535200, Note_on_c, 2, 67, 64
4, 535316, Note_on_c, 2, 67, 0
4, 535320, Note_on_c, 2, 71, 64
4, 535436, Note_on_c, 2, 71, 0
4, 535440, Note_on_c, 2, 74, 64
4, 535556, Note_on_c, 2, 74, 0
4, 535560, Note_on_c, 2, 71, 64
4, 535676, Note_on_c, 2, 71, 0
4, 535680, Note_on_c, 2, 55, 64
4, 535916, Note_on_c, 2, 55, 0
4, 535920, Note_on_c, 2, 60, 64
4, 536156, Note_on_c, 2, 60, 0
4, 536160, Note_on_c, 2, 64, 64
4, 536396, Note_on_c, 2, 64, 0
4, 536400, Note_on_c, 2, 55, 64
4, 536636, Note_on_c, 2, 55, 0
4, 536640, Note_on_c, 2, 60, 64
4, 536876, Note_on_c, 2, 60, 0
4, 536880, Note_on_c, 2, 64, 64
4, 537116, Note_on_c, 2, 64, 0
4, 537120, Note_on_c, 2, 62, 64
4, 537356, Note_on_c, 2, 62, 0
4, 537360, Note_on_c, 2, 66, 64
4, 537596, Note_on_c, 2, 66, 0
4, 537600, Note_on_c, 2, 69, 64
4, 537836, Note_on_c, 2, 69, 0
4, 537840, Note_on_c, 2, 62, 64
4, 538076, Note_on_c, 2, 62, 0
4, 538080, Note_on_c, 2, 66, 64
4, 538316, Note_on_c, 2, 66, 0
4, 538320, Note_on_c, 2, 69, 64
4, 538556, Note_on_c, 2, 69, 0
4, 538560, Note_on_c, 2, 74, 64
4, 538796, Note_on_c, 2, 74, 0
4, 538800, Note_on_c, 2, 67, 64
4, 538916, Note_on_c, 2, 67, 0
4, 538920, Note_on_c, 2, 69, 64
4, 539036, Note_on_c, 2, 69, 0
4, 539040, Note_on_c, 2, 71, 64
4, 539276, Note_on_c, 2, 71, 0
4, 539280, Note_on_c, 2, 62, 64
4, 539516, Note_on_c, 2, 62, 0
4, 539520, Note_on_c, 2, 67, 64
4, 539756, Note_on_c, 2, 67, 0
4, 539760, Note_on_c, 2, 66, 64
4, 539996, Note_on_c, 2, 66, 0
4, 540000, Note_on_c, 2, 67, 64
4, 540236, Note_on_c, 2, 67, 0
4, 540240, Note_on_c, 2, 71, 64
4, 540476, Note_on_c, 2, 71, 0
4, 540480, Note_on_c, 2, 74, 64
4, 540716, Note_on_c, 2, 74, 0
4, 540720, Note_on_c, 2, 79, 64
4, 541436, Note_on_c, 2, 79, 0
4, 541436, End_track
5, 0, Start_track
5, 0, Title_t, "Viola         I"
5, 0, Program_c, 0, 41
5, 0, Control_c, 0, 10, 40
5, 1680, Note_on_c, 0, 55, 64
5, 1916, Note_on_c, 0, 55, 0
5, 1920, Note_on_c, 0, 59, 64
5, 2156, Note_on_c, 0, 59, 0
5, 2160, Note_on_c, 0, 62, 64
5, 2396, Note_on_c, 0, 62, 0
5, 2400, Note_on_c, 0, 59, 64
5, 2636, Note_on_c, 0, 59, 0
5, 2640, Note_on_c, 0, 55, 64
5, 2876, Note_on_c, 0, 55, 0
5, 2880, Note_on_c, 0, 59, 64
5, 3116, Note_on_c, 0, 59, 0
5, 3120, Note_on_c, 0, 62, 64
5, 3356, Note_on_c, 0, 62, 0
5, 3360, Note_on_c, 0, 59, 64
5, 3596, Note_on_c, 0, 59, 0
5, 3600, Note_on_c, 0, 55, 64
5, 3836, Note_on_c, 0, 55, 0
5, 3840, Note_on_c, 0, 59, 64
5, 4076, Note_on_c, 0, 59, 0
5, 4080, Note_on_c, 0, 62, 64
5, 4316, Note_on_c, 0, 62, 0
5, 4320, Note_on_c, 0, 67, 64
5, 4436, Note_on_c, 0, 67, 0
5, 4440, Note_on_c, 0, 71, 64
5, 4556, Note_on_c, 0, 71, 0
5, 4560, Note_on_c, 0, 69, 64
5, 4676, Note_on_c, 0, 69, 0
5, 4680, Note_on_c, 0, 67, 64
5, 4796, Note_on_c, 0, 67, 0
5, 4800, Note_on_c, 0, 66, 64
5, 5036, Note_on_c, 0, 66, 0
5, 5040, Note_on_c, 0, 62, 64
5, 5276, Note_on_c, 0, 62, 0
5, 5520, Note_on_c, 0, 71, 64
5, 5756, Note_on_c, 0, 71, 0
5, 5760, Note_on_c, 0, 67, 64
5, 5996, Note_on_c, 0, 67, 0
5, 6000, Note_on_c, 0, 62, 64
5, 6236, Note_on_c, 0, 62, 0
5, 6480, Note_on_c, 0, 67, 64
5, 6716, Note_on_c, 0, 67, 0
5, 6720, Note_on_c, 0, 66, 64
5, 6956, Note_on_c, 0, 66, 0
5, 6960, Note_on_c, 0, 62, 64
5, 7196, Note_on_c, 0, 62, 0
5, 7440, Note_on_c, 0, 69, 64
5, 7676, Note_on_c, 0, 69, 0
5, 7680, Note_on_c, 0, 62, 64
5, 7916, Note_on_c, 0, 62, 0
5, 7920, Note_on_c, 0, 60, 64
5, 8036, Note_on_c, 0, 60, 0
5, 8040, Note_on_c, 0, 59, 64
5, 8156, Note_on_c, 0, 59, 0
5, 8160, Note_on_c, 0, 60, 64
5, 8396, Note_on_c, 0, 60, 0
5, 8400, Note_on_c, 0, 59, 64
5, 8516, Note_on_c, 0, 59, 0
5, 8520, Note_on_c, 0, 57, 64
5, 8636, Note_on_c, 0, 57, 0
5, 8640, Note_on_c, 0, 55, 64
5, 8876, Note_on_c, 0, 55, 0
5, 8880, Note_on_c, 0, 67, 64
5, 9116, Note_on_c, 0, 67, 0
5, 9120, Note_on_c, 0, 67, 64
5, 9356, Note_on_c, 0, 67, 0
5, 9360, Note_on_c, 0, 55, 64
5, 9596, Note_on_c, 0, 55, 0
5, 9600, Note_on_c, 0, 55, 64
5, 9836, Note_on_c, 0, 55, 0
5, 9840, Note_on_c, 0, 67, 64
5, 10076, Note_on_c, 0, 67, 0
5, 10080, Note_on_c, 0, 67, 64
5, 10316, Note_on_c, 0, 67, 0
5, 10320, Note_on_c, 0, 55, 64
5, 10556, Note_on_c, 0, 55, 0
5, 10560, Note_on_c, 0, 55, 64
5, 10796, Note_on_c, 0, 55, 0
5, 10800, Note_on_c, 0, 67, 64
5, 11036, Note_on_c, 0, 67, 0
5, 11040, Note_on_c, 0, 67, 64
5, 11276, Note_on_c, 0, 67, 0
5, 11280, Note_on_c, 0, 55, 64
5, 11516, Note_on_c, 0, 55, 0
5, 11520, Note_on_c, 0, 55, 64
5, 11756, Note_on_c, 0, 55, 0
5, 11760, Note_on_c, 0, 67, 64
5, 11996, Note_on_c, 0, 67, 0
5, 12000, Note_on_c, 0, 67, 64
5, 12236, Note_on_c, 0, 67, 0
5, 12240, Note_on_c, 0, 67, 64
5, 12476, Note_on_c, 0, 67, 0
5, 12480, Note_on_c, 0, 69, 64
5, 12716, Note_on_c, 0, 69, 0
5, 12720, Note_on_c, 0, 71, 64
5, 12956, Note_on_c, 0, 71, 0
5, 12960, Note_on_c, 0, 72, 64
5, 13196, Note_on_c, 0, 72, 0
5, 13200, Note_on_c, 0, 74, 64
5, 13436, Note_on_c, 0, 74, 0
5, 13440, Note_on_c, 0, 71, 64
5, 13676, Note_on_c, 0, 71, 0
5, 13680, Note_on_c, 0, 69, 64
5, 13796, Note_on_c, 0, 69, 0
5, 13800, Note_on_c, 0, 67, 64
5, 13916, Note_on_c, 0, 67, 0
5, 13920, Note_on_c, 0, 62, 64
5, 14156, Note_on_c, 0, 62, 0
5, 14160, Note_on_c, 0, 67, 64
5, 14396, Note_on_c, 0, 67, 0
5, 14400, Note_on_c, 0, 67, 64
5, 14636, Note_on_c, 0, 67, 0
5, 14640, Note_on_c, 0, 67, 64
5, 14756, Note_on_c, 0, 67, 0
5, 14760, Note_on_c, 0, 64, 64
5, 14876, Note_on_c, 0, 64, 0
5, 14880, Note_on_c, 0, 62, 64
5, 14996, Note_on_c, 0, 62, 0
5, 15000, Note_on_c, 0, 60, 64
5, 15116, Note_on_c, 0, 60, 0
5, 15120, Note_on_c, 0, 59, 64
5, 15236, Note_on_c, 0, 59, 0
5, 15240, Note_on_c, 0, 57, 64
5, 15356, Note_on_c, 0, 57, 0
5, 15360, Note_on_c, 0, 59, 64
5, 15596, Note_on_c, 0, 59, 0
5, 15600, Note_on_c, 0, 57, 64
5, 15716, Note_on_c, 0, 57, 0
5, 15720, Note_on_c, 0, 55, 64
5, 15836, Note_on_c, 0, 55, 0
5, 15840, Note_on_c, 0, 62, 64
5, 16076, Note_on_c, 0, 62, 0
5, 16080, Note_on_c, 0, 50, 64
5, 16316, Note_on_c, 0, 50, 0
5, 16320, Note_on_c, 0, 55, 64
5, 16556, Note_on_c, 0, 55, 0
5, 16560, Note_on_c, 0, 62, 64
5, 16796, Note_on_c, 0, 62, 0
5, 16800, Note_on_c, 0, 67, 64
5, 17036, Note_on_c, 0, 67, 0
5, 18000, Note_on_c, 0, 71, 64
5, 18116, Note_on_c, 0, 71, 0
5, 18120, Note_on_c, 0, 69, 64
5, 18236, Note_on_c, 0, 69, 0
5, 18240, Note_on_c, 0, 71, 64
5, 18476, Note_on_c, 0, 71, 0
5, 18480, Note_on_c, 0, 67, 64
5, 18596, Note_on_c, 0, 67, 0
5, 18600, Note_on_c, 0, 66, 64
5, 18716, Note_on_c, 0, 66, 0
5, 18720, Note_on_c, 0, 67, 64
5, 18956, Note_on_c, 0, 67, 0
5, 19440, Note_on_c, 0, 71, 64
5, 19556, Note_on_c, 0, 71, 0
5, 19560, Note_on_c, 0, 72, 64
5, 19676, Note_on_c, 0, 72, 0
5, 19680, Note_on_c, 0, 74, 64
5, 19916, Note_on_c, 0, 74, 0
5, 19920, Note_on_c, 0, 76, 64
5, 20156, Note_on_c, 0, 76, 0
5, 20160, Note_on_c, 0, 69, 64
5, 20396, Note_on_c, 0, 69, 0
5, 20400, Note_on_c, 0, 74, 64
5, 20516, Note_on_c, 0, 74, 0
5, 20520, Note_on_c, 0, 73, 64
5, 20636, Note_on_c, 0, 73, 0
5, 20640, Note_on_c, 0, 74, 64
5, 20876, Note_on_c, 0, 74, 0
5, 21360, Note_on_c, 0, 74, 64
5, 21476, Note_on_c, 0, 74, 0
5, 21480, Note_on_c, 0, 73, 64
5, 21596, Note_on_c, 0, 73, 0
5, 21600, Note_on_c, 0, 74, 64
5, 21836, Note_on_c, 0, 74, 0
5, 22320, Note_on_c, 0, 74, 64
5, 22436, Note_on_c, 0, 74, 0
5, 22440, Note_on_c, 0, 73, 64
5, 22556, Note_on_c, 0, 73, 0
5, 22560, Note_on_c, 0, 74, 64
5, 22796, Note_on_c, 0, 74, 0
5, 22800, Note_on_c, 0, 69, 64
5, 23036, Note_on_c, 0, 69, 0
5, 23040, Note_on_c, 0, 69, 64
5, 23276, Note_on_c, 0, 69, 0
5, 23280, Note_on_c, 0, 67, 64
5, 23396, Note_on_c, 0, 67, 0
5, 23400, Note_on_c, 0, 66, 64
5, 23516, Note_on_c, 0, 66, 0
5, 23520, Note_on_c, 0, 67, 64
5, 23756, Note_on_c, 0, 67, 0
5, 23760, Note_on_c, 0, 66, 64
5, 23876, Note_on_c, 0, 66, 0
5, 23880, Note_on_c, 0, 64, 64
5, 23996, Note_on_c, 0, 64, 0
5, 24000, Note_on_c, 0, 62, 64
5, 24236, Note_on_c, 0, 62, 0
5, 24240, Note_on_c, 0, 74, 64
5, 24476, Note_on_c, 0, 74, 0
5, 24480, Note_on_c, 0, 74, 64
5, 24716, Note_on_c, 0, 74, 0
5, 24720, Note_on_c, 0, 62, 64
5, 24956, Note_on_c, 0, 62, 0
5, 24960, Note_on_c, 0, 62, 64
5, 25196, Note_on_c, 0, 62, 0
5, 25200, Note_on_c, 0, 74, 64
5, 25436, Note_on_c, 0, 74, 0
5, 25440, Note_on_c, 0, 74, 64
5, 25676, Note_on_c, 0, 74, 0
5, 25680, Note_on_c, 0, 62, 64
5, 25916, Note_on_c, 0, 62, 0
5, 25920, Note_on_c, 0, 62, 64
5, 26156, Note_on_c, 0, 62, 0
5, 26160, Note_on_c, 0, 74, 64
5, 26396, Note_on_c, 0, 74, 0
5, 26400, Note_on_c, 0, 74, 64
5, 26636, Note_on_c, 0, 74, 0
5, 26640, Note_on_c, 0, 62, 64
5, 26876, Note_on_c, 0, 62, 0
5, 26880, Note_on_c, 0, 62, 64
5, 27116, Note_on_c, 0, 62, 0
5, 27120, Note_on_c, 0, 74, 64
5, 27356, Note_on_c, 0, 74, 0
5, 27360, Note_on_c, 0, 73, 64
5, 27596, Note_on_c, 0, 73, 0
5, 27600, Note_on_c, 0, 71, 64
5, 27836, Note_on_c, 0, 71, 0
5, 27840, Note_on_c, 0, 69, 64
5, 28076, Note_on_c, 0, 69, 0
5, 28080, Note_on_c, 0, 62, 64
5, 28316, Note_on_c, 0, 62, 0
5, 28320, Note_on_c, 0, 61, 64
5, 28556, Note_on_c, 0, 61, 0
5, 28560, Note_on_c, 0, 64, 64
5, 28796, Note_on_c, 0, 64, 0
5, 28800, Note_on_c, 0, 62, 64
5, 29036, Note_on_c, 0, 62, 0
5, 29040, Note_on_c, 0, 64, 64
5, 29156, Note_on_c, 0, 64, 0
5, 29160, Note_on_c, 0, 66, 64
5, 29276, Note_on_c, 0, 66, 0
5, 29280, Note_on_c, 0, 64, 64
5, 29516, Note_on_c, 0, 64, 0
5, 29520, Note_on_c, 0, 69, 64
5, 29756, Note_on_c, 0, 69, 0
5, 29760, Note_on_c, 0, 66, 64
5, 30236, Note_on_c, 0, 66, 0
5, 31440, Note_on_c, 0, 71, 64
5, 31556, Note_on_c, 0, 71, 0
5, 31560, Note_on_c, 0, 69, 64
5, 31676, Note_on_c, 0, 69, 0
5, 31680, Note_on_c, 0, 71, 64
5, 31916, Note_on_c, 0, 71, 0
5, 31920, Note_on_c, 0, 67, 64
5, 32036, Note_on_c, 0, 67, 0
5, 32040, Note_on_c, 0, 66, 64
5, 32156, Note_on_c, 0, 66, 0
5, 32160, Note_on_c, 0, 67, 64
5, 32396, Note_on_c, 0, 67, 0
5, 32880, Note_on_c, 0, 62, 64
5, 33116, Note_on_c, 0, 62, 0
5, 33120, Note_on_c, 0, 67, 64
5, 33236, Note_on_c, 0, 67, 0
5, 33240, Note_on_c, 0, 71, 64
5, 33356, Note_on_c, 0, 71, 0
5, 33360, Note_on_c, 0, 69, 64
5, 33476, Note_on_c, 0, 69, 0
5, 33480, Note_on_c, 0, 67, 64
5, 33596, Note_on_c, 0, 67, 0
5, 33600, Note_on_c, 0, 66, 64
5, 33716, Note_on_c, 0, 66, 0
5, 33720, Note_on_c, 0, 69, 64
5, 33836, Note_on_c, 0, 69, 0
5, 33840, Note_on_c, 0, 62, 64
5, 33956, Note_on_c, 0, 62, 0
5, 33960, Note_on_c, 0, 64, 64
5, 34076, Note_on_c, 0, 64, 0
5, 34080, Note_on_c, 0, 66, 64
5, 34196, Note_on_c, 0, 66, 0
5, 34200, Note_on_c, 0, 67, 64
5, 34316, Note_on_c, 0, 67, 0
5, 34320, Note_on_c, 0, 69, 64
5, 34436, Note_on_c, 0, 69, 0
5, 34440, Note_on_c, 0, 67, 64
5, 34556, Note_on_c, 0, 67, 0
5, 34560, Note_on_c, 0, 66, 64
5, 34796, Note_on_c, 0, 66, 0
5, 34800, Note_on_c, 0, 74, 64
5, 35036, Note_on_c, 0, 74, 0
5, 35280, Note_on_c, 0, 73, 64
5, 35516, Note_on_c, 0, 73, 0
5, 35520, Note_on_c, 0, 74, 64
5, 35756, Note_on_c, 0, 74, 0
5, 35760, Note_on_c, 0, 69, 64
5, 35996, Note_on_c, 0, 69, 0
5, 36000, Note_on_c, 0, 62, 64
5, 36236, Note_on_c, 0, 62, 0
5, 36240, Note_on_c, 0, 74, 64
5, 36356, Note_on_c, 0, 74, 0
5, 36360, Note_on_c, 0, 73, 64
5, 36476, Note_on_c, 0, 73, 0
5, 36480, Note_on_c, 0, 74, 64
5, 36716, Note_on_c, 0, 74, 0
5, 36720, Note_on_c, 0, 69, 64
5, 36836, Note_on_c, 0, 69, 0
5, 36840, Note_on_c, 0, 67, 64
5, 36956, Note_on_c, 0, 67, 0
5, 36960, Note_on_c, 0, 69, 64
5, 37196, Note_on_c, 0, 69, 0
5, 37200, Note_on_c, 0, 74, 64
5, 37316, Note_on_c, 0, 74, 0
5, 37320, Note_on_c, 0, 73, 64
5, 37436, Note_on_c, 0, 73, 0
5, 37440, Note_on_c, 0, 74, 64
5, 37676, Note_on_c, 0, 74, 0
5, 37680, Note_on_c, 0, 66, 64
5, 37796, Note_on_c, 0, 66, 0
5, 37800, Note_on_c, 0, 64, 64
5, 37916, Note_on_c, 0, 64, 0
5, 37920, Note_on_c, 0, 66, 64
5, 38156, Note_on_c, 0, 66, 0
5, 38160, Note_on_c, 0, 74, 64
5, 38276, Note_on_c, 0, 74, 0
5, 38280, Note_on_c, 0, 73, 64
5, 38396, Note_on_c, 0, 73, 0
5, 38400, Note_on_c, 0, 74, 64
5, 38636, Note_on_c, 0, 74, 0
5, 38640, Note_on_c, 0, 62, 64
5, 38756, Note_on_c, 0, 62, 0
5, 38760, Note_on_c, 0, 64, 64
5, 38876, Note_on_c, 0, 64, 0
5, 38880, Note_on_c, 0, 66, 64
5, 39116, Note_on_c, 0, 66, 0
5, 39120, Note_on_c, 0, 68, 64
5, 39356, Note_on_c, 0, 68, 0
5, 39360, Note_on_c, 0, 69, 64
5, 39596, Note_on_c, 0, 69, 0
5, 39600, Note_on_c, 0, 73, 64
5, 39716, Note_on_c, 0, 73, 0
5, 39720, Note_on_c, 0, 71, 64
5, 39836, Note_on_c, 0, 71, 0
5, 39840, Note_on_c, 0, 69, 64
5, 40076, Note_on_c, 0, 69, 0
5, 40560, Note_on_c, 0, 71, 64
5, 40676, Note_on_c, 0, 71, 0
5, 40680, Note_on_c, 0, 69, 64
5, 40796, Note_on_c, 0, 69, 0
5, 40800, Note_on_c, 0, 71, 64
5, 41036, Note_on_c, 0, 71, 0
5, 41520, Note_on_c, 0, 71, 64
5, 41636, Note_on_c, 0, 71, 0
5, 41640, Note_on_c, 0, 69, 64
5, 41756, Note_on_c, 0, 69, 0
5, 41760, Note_on_c, 0, 71, 64
5, 41996, Note_on_c, 0, 71, 0
5, 42480, Note_on_c, 0, 74, 64
5, 42596, Note_on_c, 0, 74, 0
5, 42600, Note_on_c, 0, 73, 64
5, 42716, Note_on_c, 0, 73, 0
5, 42720, Note_on_c, 0, 74, 64
5, 42956, Note_on_c, 0, 74, 0
5, 42960, Note_on_c, 0, 74, 64
5, 43196, Note_on_c, 0, 74, 0
5, 43200, Note_on_c, 0, 74, 64
5, 43436, Note_on_c, 0, 74, 0
5, 43440, Note_on_c, 0, 73, 64
5, 43556, Note_on_c, 0, 73, 0
5, 43560, Note_on_c, 0, 71, 64
5, 43676, Note_on_c, 0, 71, 0
5, 43680, Note_on_c, 0, 73, 64
5, 43916, Note_on_c, 0, 73, 0
5, 43920, Note_on_c, 0, 74, 64
5, 44036, Note_on_c, 0, 74, 0
5, 44040, Note_on_c, 0, 69, 64
5, 44156, Note_on_c, 0, 69, 0
5, 44160, Note_on_c, 0, 62, 64
5, 44396, Note_on_c, 0, 62, 0
5, 44400, Note_on_c, 0, 64, 64
5, 44516, Note_on_c, 0, 64, 0
5, 44520, Note_on_c, 0, 66, 64
5, 44636, Note_on_c, 0, 66, 0
5, 44640, Note_on_c, 0, 67, 64
5, 44876, Note_on_c, 0, 67, 0
5, 44880, Note_on_c, 0, 67, 64
5, 45116, Note_on_c, 0, 67, 0
5, 45120, Note_on_c, 0, 66, 64
5, 45356, Note_on_c, 0, 66, 0
5, 45360, Note_on_c, 0, 66, 64
5, 45596, Note_on_c, 0, 66, 0
5, 45600, Note_on_c, 0, 66, 64
5, 45836, Note_on_c, 0, 66, 0
5, 45840, Note_on_c, 0, 67, 64
5, 46076, Note_on_c, 0, 67, 0
5, 46080, Note_on_c, 0, 69, 64
5, 46316, Note_on_c, 0, 69, 0
5, 46320, Note_on_c, 0, 69, 64
5, 46556, Note_on_c, 0, 69, 0
5, 46560, Note_on_c, 0, 69, 64
5, 46796, Note_on_c, 0, 69, 0
5, 46800, Note_on_c, 0, 71, 64
5, 47036, Note_on_c, 0, 71, 0
5, 47040, Note_on_c, 0, 62, 64
5, 47156, Note_on_c, 0, 62, 0
5, 47160, Note_on_c, 0, 61, 64
5, 47276, Note_on_c, 0, 61, 0
5, 47280, Note_on_c, 0, 62, 64
5, 47396, Note_on_c, 0, 62, 0
5, 47400, Note_on_c, 0, 64, 64
5, 47516, Note_on_c, 0, 64, 0
5, 47520, Note_on_c, 0, 62, 64
5, 47636, Note_on_c, 0, 62, 0
5, 47640, Note_on_c, 0, 66, 64
5, 47756, Note_on_c, 0, 66, 0
5, 47760, Note_on_c, 0, 62, 64
5, 47876, Note_on_c, 0, 62, 0
5, 47880, Note_on_c, 0, 67, 64
5, 47996, Note_on_c, 0, 67, 0
5, 48000, Note_on_c, 0, 62, 64
5, 48116, Note_on_c, 0, 62, 0
5, 48120, Note_on_c, 0, 61, 64
5, 48236, Note_on_c, 0, 61, 0
5, 48240, Note_on_c, 0, 62, 64
5, 48356, Note_on_c, 0, 62, 0
5, 48360, Note_on_c, 0, 64, 64
5, 48476, Note_on_c, 0, 64, 0
5, 48480, Note_on_c, 0, 62, 64
5, 48596, Note_on_c, 0, 62, 0
5, 48600, Note_on_c, 0, 69, 64
5, 48716, Note_on_c, 0, 69, 0
5, 48720, Note_on_c, 0, 62, 64
5, 48836, Note_on_c, 0, 62, 0
5, 48840, Note_on_c, 0, 71, 64
5, 48956, Note_on_c, 0, 71, 0
5, 48960, Note_on_c, 0, 72, 64
5, 49076, Note_on_c, 0, 72, 0
5, 49080, Note_on_c, 0, 71, 64
5, 49196, Note_on_c, 0, 71, 0
5, 49200, Note_on_c, 0, 72, 64
5, 49316, Note_on_c, 0, 72, 0
5, 49320, Note_on_c, 0, 74, 64
5, 49436, Note_on_c, 0, 74, 0
5, 49440, Note_on_c, 0, 72, 64
5, 49556, Note_on_c, 0, 72, 0
5, 49560, Note_on_c, 0, 71, 64
5, 49676, Note_on_c, 0, 71, 0
5, 49680, Note_on_c, 0, 72, 64
5, 49796, Note_on_c, 0, 72, 0
5, 49800, Note_on_c, 0, 69, 64
5, 49916, Note_on_c, 0, 69, 0
5, 49920, Note_on_c, 0, 71, 64
5, 50156, Note_on_c, 0, 71, 0
5, 50160, Note_on_c, 0, 71, 64
5, 50396, Note_on_c, 0, 71, 0
5, 50400, Note_on_c, 0, 71, 64
5, 50636, Note_on_c, 0, 71, 0
5, 50640, Note_on_c, 0, 72, 64
5, 50876, Note_on_c, 0, 72, 0
5, 50880, Note_on_c, 0, 74, 64
5, 51116, Note_on_c, 0, 74, 0
5, 51120, Note_on_c, 0, 74, 64
5, 51356, Note_on_c, 0, 74, 0
5, 51360, Note_on_c, 0, 74, 64
5, 51596, Note_on_c, 0, 74, 0
5, 51600, Note_on_c, 0, 76, 64
5, 51836, Note_on_c, 0, 76, 0
5, 51840, Note_on_c, 0, 74, 64
5, 52076, Note_on_c, 0, 74, 0
5, 52560, Note_on_c, 0, 55, 64
5, 52676, Note_on_c, 0, 55, 0
5, 52680, Note_on_c, 0, 54, 64
5, 52796, Note_on_c, 0, 54, 0
5, 52800, Note_on_c, 0, 55, 64
5, 53036, Note_on_c, 0, 55, 0
5, 53520, Note_on_c, 0, 55, 64
5, 53636, Note_on_c, 0, 55, 0
5, 53640, Note_on_c, 0, 54, 64
5, 53756, Note_on_c, 0, 54, 0
5, 53760, Note_on_c, 0, 55, 64
5, 53996, Note_on_c, 0, 55, 0
5, 54000, Note_on_c, 0, 55, 64
5, 54236, Note_on_c, 0, 55, 0
5, 54240, Note_on_c, 0, 55, 64
5, 54476, Note_on_c, 0, 55, 0
5, 54480, Note_on_c, 0, 60, 64
5, 54716, Note_on_c, 0, 60, 0
5, 54720, Note_on_c, 0, 55, 64
5, 54836, Note_on_c, 0, 55, 0
5, 54840, Note_on_c, 0, 59, 64
5, 54956, Note_on_c, 0, 59, 0
5, 54960, Note_on_c, 0, 60, 64
5, 55076, Note_on_c, 0, 60, 0
5, 55080, Note_on_c, 0, 62, 64
5, 55196, Note_on_c, 0, 62, 0
5, 55200, Note_on_c, 0, 64, 64
5, 55316, Note_on_c, 0, 64, 0
5, 55320, Note_on_c, 0, 62, 64
5, 55436, Note_on_c, 0, 62, 0
5, 55440, Note_on_c, 0, 64, 64
5, 55556, Note_on_c, 0, 64, 0
5, 55560, Note_on_c, 0, 65, 64
5, 55676, Note_on_c, 0, 65, 0
5, 55680, Note_on_c, 0, 67, 64
5, 55916, Note_on_c, 0, 67, 0
5, 55920, Note_on_c, 0, 67, 64
5, 56156, Note_on_c, 0, 67, 0
5, 56160, Note_on_c, 0, 67, 64
5, 56396, Note_on_c, 0, 67, 0
5, 56400, Note_on_c, 0, 65, 64
5, 56516, Note_on_c, 0, 65, 0
5, 56520, Note_on_c, 0, 64, 64
5, 56636, Note_on_c, 0, 64, 0
5, 56640, Note_on_c, 0, 65, 64
5, 56876, Note_on_c, 0, 65, 0
5, 56880, Note_on_c, 0, 65, 64
5, 57116, Note_on_c, 0, 65, 0
5, 57120, Note_on_c, 0, 65, 64
5, 57356, Note_on_c, 0, 65, 0
5, 57360, Note_on_c, 0, 64, 64
5, 57476, Note_on_c, 0, 64, 0
5, 57480, Note_on_c, 0, 62, 64
5, 57596, Note_on_c, 0, 62, 0
5, 57600, Note_on_c, 0, 64, 64
5, 57836, Note_on_c, 0, 64, 0
5, 57840, Note_on_c, 0, 64, 64
5, 58076, Note_on_c, 0, 64, 0
5, 58080, Note_on_c, 0, 64, 64
5, 58316, Note_on_c, 0, 64, 0
5, 58320, Note_on_c, 0, 62, 64
5, 58436, Note_on_c, 0, 62, 0
5, 58440, Note_on_c, 0, 60, 64
5, 58556, Note_on_c, 0, 60, 0
5, 58560, Note_on_c, 0, 59, 64
5, 58676, Note_on_c, 0, 59, 0
5, 58680, Note_on_c, 0, 55, 64
5, 58796, Note_on_c, 0, 55, 0
5, 58800, Note_on_c, 0, 59, 64
5, 58916, Note_on_c, 0, 59, 0
5, 58920, Note_on_c, 0, 60, 64
5, 59036, Note_on_c, 0, 60, 0
5, 59040, Note_on_c, 0, 62, 64
5, 59156, Note_on_c, 0, 62, 0
5, 59160, Note_on_c, 0, 64, 64
5, 59276, Note_on_c, 0, 64, 0
5, 59280, Note_on_c, 0, 65, 64
5, 59396, Note_on_c, 0, 65, 0
5, 59400, Note_on_c, 0, 67, 64
5, 59516, Note_on_c, 0, 67, 0
5, 59520, Note_on_c, 0, 69, 64
5, 59636, Note_on_c, 0, 69, 0
5, 59640, Note_on_c, 0, 71, 64
5, 59756, Note_on_c, 0, 71, 0
5, 59760, Note_on_c, 0, 72, 64
5, 59876, Note_on_c, 0, 72, 0
5, 59880, Note_on_c, 0, 74, 64
5, 59996, Note_on_c, 0, 74, 0
5, 60000, Note_on_c, 0, 71, 64
5, 60356, Note_on_c, 0, 71, 0
5, 60360, Note_on_c, 0, 72, 64
5, 60476, Note_on_c, 0, 72, 0
5, 60480, Note_on_c, 0, 72, 64
5, 60956, Note_on_c, 0, 72, 0
5, 61200, Note_on_c, 0, 60, 64
5, 61436, Note_on_c, 0, 60, 0
5, 61440, Note_on_c, 0, 64, 64
5, 61676, Note_on_c, 0, 64, 0
5, 61680, Note_on_c, 0, 67, 64
5, 61916, Note_on_c, 0, 67, 0
5, 61920, Note_on_c, 0, 64, 64
5, 62156, Note_on_c, 0, 64, 0
5, 62160, Note_on_c, 0, 60, 64
5, 62396, Note_on_c, 0, 60, 0
5, 62400, Note_on_c, 0, 64, 64
5, 62636, Note_on_c, 0, 64, 0
5, 62640, Note_on_c, 0, 67, 64
5, 62876, Note_on_c, 0, 67, 0
5, 62880, Note_on_c, 0, 64, 64
5, 63116, Note_on_c, 0, 64, 0
5, 63120, Note_on_c, 0, 60, 64
5, 63356, Note_on_c, 0, 60, 0
5, 63360, Note_on_c, 0, 67, 64
5, 63596, Note_on_c, 0, 67, 0
5, 63600, Note_on_c, 0, 67, 64
5, 63716, Note_on_c, 0, 67, 0
5, 63720, Note_on_c, 0, 67, 64
5, 63836, Note_on_c, 0, 67, 0
5, 63840, Note_on_c, 0, 67, 64
5, 64076, Note_on_c, 0, 67, 0
5, 64320, Note_on_c, 0, 67, 64
5, 64436, Note_on_c, 0, 67, 0
5, 64440, Note_on_c, 0, 66, 64
5, 64556, Note_on_c, 0, 66, 0
5, 64560, Note_on_c, 0, 67, 64
5, 64676, Note_on_c, 0, 67, 0
5, 64680, Note_on_c, 0, 69, 64
5, 64796, Note_on_c, 0, 69, 0
5, 64800, Note_on_c, 0, 67, 64
5, 64916, Note_on_c, 0, 67, 0
5, 64920, Note_on_c, 0, 71, 64
5, 65036, Note_on_c, 0, 71, 0
5, 65040, Note_on_c, 0, 67, 64
5, 65156, Note_on_c, 0, 67, 0
5, 65160, Note_on_c, 0, 72, 64
5, 65276, Note_on_c, 0, 72, 0
5, 65280, Note_on_c, 0, 71, 64
5, 65396, Note_on_c, 0, 71, 0
5, 65400, Note_on_c, 0, 69, 64
5, 65516, Note_on_c, 0, 69, 0
5, 65520, Note_on_c, 0, 71, 64
5, 65636, Note_on_c, 0, 71, 0
5, 65640, Note_on_c, 0, 72, 64
5, 65756, Note_on_c, 0, 72, 0
5, 65760, Note_on_c, 0, 71, 64
5, 65876, Note_on_c, 0, 71, 0
5, 65880, Note_on_c, 0, 74, 64
5, 65996, Note_on_c, 0, 74, 0
5, 66000, Note_on_c, 0, 72, 64
5, 66116, Note_on_c, 0, 72, 0
5, 66120, Note_on_c, 0, 76, 64
5, 66236, Note_on_c, 0, 76, 0
5, 66240, Note_on_c, 0, 74, 64
5, 66356, Note_on_c, 0, 74, 0
5, 66360, Note_on_c, 0, 72, 64
5, 66476, Note_on_c, 0, 72, 0
5, 66480, Note_on_c, 0, 74, 64
5, 66596, Note_on_c, 0, 74, 0
5, 66600, Note_on_c, 0, 76, 64
5, 66716, Note_on_c, 0, 76, 0
5, 66720, Note_on_c, 0, 74, 64
5, 66836, Note_on_c, 0, 74, 0
5, 66840, Note_on_c, 0, 76, 64
5, 66956, Note_on_c, 0, 76, 0
5, 66960, Note_on_c, 0, 74, 64
5, 67076, Note_on_c, 0, 74, 0
5, 67080, Note_on_c, 0, 72, 64
5, 67196, Note_on_c, 0, 72, 0
5, 67200, Note_on_c, 0, 71, 64
5, 67316, Note_on_c, 0, 71, 0
5, 67320, Note_on_c, 0, 72, 64
5, 67436, Note_on_c, 0, 72, 0
5, 67440, Note_on_c, 0, 71, 64
5, 67556, Note_on_c, 0, 71, 0
5, 67560, Note_on_c, 0, 69, 64
5, 67676, Note_on_c, 0, 69, 0
5, 67680, Note_on_c, 0, 67, 64
5, 67796, Note_on_c, 0, 67, 0
5, 67800, Note_on_c, 0, 71, 64
5, 67916, Note_on_c, 0, 71, 0
5, 67920, Note_on_c, 0, 69, 64
5, 68036, Note_on_c, 0, 69, 0
5, 68040, Note_on_c, 0, 67, 64
5, 68156, Note_on_c, 0, 67, 0
5, 68160, Note_on_c, 0, 66, 64
5, 68636, Note_on_c, 0, 66, 0
5, 68880, Note_on_c, 0, 64, 64
5, 69116, Note_on_c, 0, 64, 0
5, 69120, Note_on_c, 0, 66, 64
5, 69356, Note_on_c, 0, 66, 0
5, 69840, Note_on_c, 0, 67, 64
5, 70076, Note_on_c, 0, 67, 0
5, 70080, Note_on_c, 0, 69, 64
5, 70316, Note_on_c, 0, 69, 0
5, 70800, Note_on_c, 0, 66, 64
5, 71036, Note_on_c, 0, 66, 0
5, 71040, Note_on_c, 0, 62, 64
5, 71276, Note_on_c, 0, 62, 0
5, 71280, Note_on_c, 0, 62, 64
5, 71516, Note_on_c, 0, 62, 0
5, 71520, Note_on_c, 0, 69, 64
5, 71756, Note_on_c, 0, 69, 0
5, 71760, Note_on_c, 0, 62, 64
5, 71996, Note_on_c, 0, 62, 0
5, 72000, Note_on_c, 0, 67, 64
5, 72236, Note_on_c, 0, 67, 0
5, 72240, Note_on_c, 0, 74, 64
5, 72476, Note_on_c, 0, 74, 0
5, 72480, Note_on_c, 0, 71, 64
5, 72716, Note_on_c, 0, 71, 0
5, 72720, Note_on_c, 0, 67, 64
5, 72956, Note_on_c, 0, 67, 0
5, 73200, Note_on_c, 0, 67, 64
5, 73316, Note_on_c, 0, 67, 0
5, 73320, Note_on_c, 0, 66, 64
5, 73436, Note_on_c, 0, 66, 0
5, 73440, Note_on_c, 0, 67, 64
5, 73676, Note_on_c, 0, 67, 0
5, 73680, Note_on_c, 0, 71, 64
5, 73796, Note_on_c, 0, 71, 0
5, 73800, Note_on_c, 0, 69, 64
5, 73916, Note_on_c, 0, 69, 0
5, 73920, Note_on_c, 0, 71, 64
5, 74156, Note_on_c, 0, 71, 0
5, 75600, Note_on_c, 0, 67, 64
5, 75716, Note_on_c, 0, 67, 0
5, 75720, Note_on_c, 0, 66, 64
5, 75836, Note_on_c, 0, 66, 0
5, 75840, Note_on_c, 0, 67, 64
5, 76076, Note_on_c, 0, 67, 0
5, 76080, Note_on_c, 0, 59, 64
5, 76196, Note_on_c, 0, 59, 0
5, 76200, Note_on_c, 0, 57, 64
5, 76316, Note_on_c, 0, 57, 0
5, 76320, Note_on_c, 0, 59, 64
5, 76556, Note_on_c, 0, 59, 0
5, 76560, Note_on_c, 0, 67, 64
5, 76676, Note_on_c, 0, 67, 0
5, 76680, Note_on_c, 0, 66, 64
5, 76796, Note_on_c, 0, 66, 0
5, 76800, Note_on_c, 0, 67, 64
5, 77036, Note_on_c, 0, 67, 0
5, 77040, Note_on_c, 0, 55, 64
5, 77156, Note_on_c, 0, 55, 0
5, 77160, Note_on_c, 0, 57, 64
5, 77276, Note_on_c, 0, 57, 0
5, 77280, Note_on_c, 0, 59, 64
5, 77516, Note_on_c, 0, 59, 0
5, 77520, Note_on_c, 0, 61, 64
5, 77756, Note_on_c, 0, 61, 0
5, 77760, Note_on_c, 0, 62, 64
5, 77996, Note_on_c, 0, 62, 0
5, 78000, Note_on_c, 0, 74, 64
5, 78116, Note_on_c, 0, 74, 0
5, 78120, Note_on_c, 0, 73, 64
5, 78236, Note_on_c, 0, 73, 0
5, 78240, Note_on_c, 0, 74, 64
5, 78476, Note_on_c, 0, 74, 0
5, 78960, Note_on_c, 0, 62, 64
5, 79076, Note_on_c, 0, 62, 0
5, 79080, Note_on_c, 0, 61, 64
5, 79196, Note_on_c, 0, 61, 0
5, 79200, Note_on_c, 0, 62, 64
5, 79436, Note_on_c, 0, 62, 0
5, 79920, Note_on_c, 0, 69, 64
5, 80156, Note_on_c, 0, 69, 0
5, 80160, Note_on_c, 0, 66, 64
5, 80396, Note_on_c, 0, 66, 0
5, 80400, Note_on_c, 0, 62, 64
5, 80636, Note_on_c, 0, 62, 0
5, 80640, Note_on_c, 0, 67, 64
5, 80876, Note_on_c, 0, 67, 0
5, 80880, Note_on_c, 0, 69, 64
5, 80996, Note_on_c, 0, 69, 0
5, 81000, Note_on_c, 0, 71, 64
5, 81116, Note_on_c, 0, 71, 0
5, 81120, Note_on_c, 0, 72, 64
5, 81356, Note_on_c, 0, 72, 0
5, 81360, Note_on_c, 0, 71, 64
5, 81476, Note_on_c, 0, 71, 0
5, 81480, Note_on_c, 0, 69, 64
5, 81596, Note_on_c, 0, 69, 0
5, 81600, Note_on_c, 0, 67, 64
5, 81836, Note_on_c, 0, 67, 0
5, 81840, Note_on_c, 0, 55, 64
5, 82076, Note_on_c, 0, 55, 0
5, 82080, Note_on_c, 0, 55, 64
5, 82316, Note_on_c, 0, 55, 0
5, 82320, Note_on_c, 0, 67, 64
5, 82556, Note_on_c, 0, 67, 0
5, 82560, Note_on_c, 0, 67, 64
5, 82796, Note_on_c, 0, 67, 0
5, 82800, Note_on_c, 0, 55, 64
5, 83036, Note_on_c, 0, 55, 0
5, 83040, Note_on_c, 0, 55, 64
5, 83276, Note_on_c, 0, 55, 0
5, 83280, Note_on_c, 0, 67, 64
5, 83516, Note_on_c, 0, 67, 0
5, 83520, Note_on_c, 0, 67, 64
5, 83756, Note_on_c, 0, 67, 0
5, 83760, Note_on_c, 0, 55, 64
5, 83996, Note_on_c, 0, 55, 0
5, 84000, Note_on_c, 0, 55, 64
5, 84236, Note_on_c, 0, 55, 0
5, 84240, Note_on_c, 0, 64, 64
5, 84476, Note_on_c, 0, 64, 0
5, 84480, Note_on_c, 0, 62, 64
5, 84716, Note_on_c, 0, 62, 0
5, 84720, Note_on_c, 0, 64, 64
5, 84956, Note_on_c, 0, 64, 0
5, 84960, Note_on_c, 0, 66, 64
5, 85196, Note_on_c, 0, 66, 0
5, 85200, Note_on_c, 0, 64, 64
5, 85316, Note_on_c, 0, 64, 0
5, 85320, Note_on_c, 0, 66, 64
5, 85436, Note_on_c, 0, 66, 0
5, 85440, Note_on_c, 0, 66, 64
5, 85676, Note_on_c, 0, 66, 0
5, 85680, Note_on_c, 0, 67, 64
5, 85916, Note_on_c, 0, 67, 0
5, 85920, Note_on_c, 0, 69, 64
5, 86156, Note_on_c, 0, 69, 0
5, 86160, Note_on_c, 0, 69, 64
5, 86396, Note_on_c, 0, 69, 0
5, 86400, Note_on_c, 0, 67, 64
5, 86636, Note_on_c, 0, 67, 0
5, 86640, Note_on_c, 0, 69, 64
5, 86876, Note_on_c, 0, 69, 0
5, 86880, Note_on_c, 0, 69, 64
5, 87116, Note_on_c, 0, 69, 0
5, 87120, Note_on_c, 0, 69, 64
5, 87356, Note_on_c, 0, 69, 0
5, 87360, Note_on_c, 0, 67, 64
5, 87596, Note_on_c, 0, 67, 0
5, 87600, Note_on_c, 0, 66, 64
5, 87716, Note_on_c, 0, 66, 0
5, 87720, Note_on_c, 0, 64, 64
5, 87836, Note_on_c, 0, 64, 0
5, 87840, Note_on_c, 0, 62, 64
5, 87956, Note_on_c, 0, 62, 0
5, 87960, Note_on_c, 0, 60, 64
5, 88076, Note_on_c, 0, 60, 0
5, 88080, Note_on_c, 0, 59, 64
5, 88196, Note_on_c, 0, 59, 0
5, 88200, Note_on_c, 0, 57, 64
5, 88316, Note_on_c, 0, 57, 0
5, 88320, Note_on_c, 0, 59, 64
5, 88556, Note_on_c, 0, 59, 0
5, 88560, Note_on_c, 0, 57, 64
5, 88676, Note_on_c, 0, 57, 0
5, 88680, Note_on_c, 0, 55, 64
5, 88796, Note_on_c, 0, 55, 0
5, 88800, Note_on_c, 0, 62, 64
5, 89036, Note_on_c, 0, 62, 0
5, 89040, Note_on_c, 0, 50, 64
5, 89276, Note_on_c, 0, 50, 0
5, 89280, Note_on_c, 0, 67, 64
5, 89516, Note_on_c, 0, 67, 0
5, 89520, Note_on_c, 0, 66, 64
5, 89636, Note_on_c, 0, 66, 0
5, 89640, Note_on_c, 0, 64, 64
5, 89756, Note_on_c, 0, 64, 0
5, 89760, Note_on_c, 0, 62, 64
5, 89876, Note_on_c, 0, 62, 0
5, 89880, Note_on_c, 0, 60, 64
5, 89996, Note_on_c, 0, 60, 0
5, 90000, Note_on_c, 0, 59, 64
5, 90116, Note_on_c, 0, 59, 0
5, 90120, Note_on_c, 0, 57, 64
5, 90236, Note_on_c, 0, 57, 0
5, 90240, Note_on_c, 0, 55, 64
5, 90476, Note_on_c, 0, 55, 0
5, 90480, Note_on_c, 0, 55, 64
5, 90716, Note_on_c, 0, 55, 0
5, 90720, Note_on_c, 0, 55, 64
5, 90956, Note_on_c, 0, 55, 0
5, 90960, Note_on_c, 0, 55, 64
5, 91196, Note_on_c, 0, 55, 0
5, 91200, Note_on_c, 0, 55, 64
5, 91436, Note_on_c, 0, 55, 0
5, 91440, Note_on_c, 0, 55, 64
5, 91676, Note_on_c, 0, 55, 0
5, 91680, Note_on_c, 0, 55, 64
5, 91916, Note_on_c, 0, 55, 0
5, 91920, Note_on_c, 0, 55, 64
5, 92156, Note_on_c, 0, 55, 0
5, 92160, Note_on_c, 0, 55, 64
5, 92396, Note_on_c, 0, 55, 0
5, 92400, Note_on_c, 0, 55, 64
5, 92636, Note_on_c, 0, 55, 0
5, 92640, Note_on_c, 0, 55, 64
5, 92876, Note_on_c, 0, 55, 0
5, 92880, Note_on_c, 0, 55, 64
5, 93116, Note_on_c, 0, 55, 0
5, 93120, Note_on_c, 0, 55, 64
5, 93356, Note_on_c, 0, 55, 0
5, 93360, Note_on_c, 0, 55, 64
5, 93596, Note_on_c, 0, 55, 0
5, 93600, Note_on_c, 0, 55, 64
5, 93836, Note_on_c, 0, 55, 0
5, 93840, Note_on_c, 0, 55, 64
5, 94076, Note_on_c, 0, 55, 0
5, 94080, Note_on_c, 0, 55, 64
5, 94316, Note_on_c, 0, 55, 0
5, 94320, Note_on_c, 0, 55, 64
5, 94556, Note_on_c, 0, 55, 0
5, 94560, Note_on_c, 0, 55, 64
5, 94796, Note_on_c, 0, 55, 0
5, 94800, Note_on_c, 0, 55, 64
5, 95036, Note_on_c, 0, 55, 0
5, 95040, Note_on_c, 0, 55, 64
5, 95276, Note_on_c, 0, 55, 0
5, 95280, Note_on_c, 0, 55, 64
5, 95516, Note_on_c, 0, 55, 0
5, 95520, Note_on_c, 0, 55, 64
5, 95756, Note_on_c, 0, 55, 0
5, 95760, Note_on_c, 0, 55, 64
5, 95996, Note_on_c, 0, 55, 0
5, 96000, Note_on_c, 0, 55, 64
5, 96236, Note_on_c, 0, 55, 0
5, 96240, Note_on_c, 0, 55, 64
5, 96476, Note_on_c, 0, 55, 0
5, 96480, Note_on_c, 0, 55, 64
5, 96716, Note_on_c, 0, 55, 0
5, 96720, Note_on_c, 0, 57, 64
5, 96956, Note_on_c, 0, 57, 0
5, 96960, Note_on_c, 0, 57, 64
5, 97076, Note_on_c, 0, 57, 0
5, 97080, Note_on_c, 0, 74, 64
5, 97196, Note_on_c, 0, 74, 0
5, 97200, Note_on_c, 0, 73, 64
5, 97316, Note_on_c, 0, 73, 0
5, 97320, Note_on_c, 0, 71, 64
5, 97436, Note_on_c, 0, 71, 0
5, 97440, Note_on_c, 0, 69, 64
5, 97556, Note_on_c, 0, 69, 0
5, 97560, Note_on_c, 0, 67, 64
5, 97676, Note_on_c, 0, 67, 0
5, 97680, Note_on_c, 0, 66, 64
5, 97796, Note_on_c, 0, 66, 0
5, 97800, Note_on_c, 0, 64, 64
5, 97916, Note_on_c, 0, 64, 0
5, 97920, Note_on_c, 0, 63, 64
5, 98156, Note_on_c, 0, 63, 0
5, 98160, Note_on_c, 0, 63, 64
5, 98396, Note_on_c, 0, 63, 0
5, 98400, Note_on_c, 0, 63, 64
5, 98636, Note_on_c, 0, 63, 0
5, 98640, Note_on_c, 0, 63, 64
5, 98876, Note_on_c, 0, 63, 0
5, 98880, Note_on_c, 0, 66, 64
5, 99116, Note_on_c, 0, 66, 0
5, 99120, Note_on_c, 0, 66, 64
5, 99356, Note_on_c, 0, 66, 0
5, 99360, Note_on_c, 0, 66, 64
5, 99596, Note_on_c, 0, 66, 0
5, 99600, Note_on_c, 0, 66, 64
5, 99836, Note_on_c, 0, 66, 0
5, 99840, Note_on_c, 0, 69, 64
5, 100076, Note_on_c, 0, 69, 0
5, 100080, Note_on_c, 0, 69, 64
5, 100316, Note_on_c, 0, 69, 0
5, 100320, Note_on_c, 0, 69, 64
5, 100556, Note_on_c, 0, 69, 0
5, 100560, Note_on_c, 0, 69, 64
5, 100796, Note_on_c, 0, 69, 0
5, 100800, Note_on_c, 0, 69, 64
5, 101036, Note_on_c, 0, 69, 0
5, 101040, Note_on_c, 0, 69, 64
5, 101276, Note_on_c, 0, 69, 0
5, 101280, Note_on_c, 0, 69, 64
5, 101516, Note_on_c, 0, 69, 0
5, 101520, Note_on_c, 0, 69, 64
5, 101756, Note_on_c, 0, 69, 0
5, 101760, Note_on_c, 0, 63, 64
5, 101996, Note_on_c, 0, 63, 0
5, 102000, Note_on_c, 0, 63, 64
5, 102236, Note_on_c, 0, 63, 0
5, 102240, Note_on_c, 0, 63, 64
5, 102476, Note_on_c, 0, 63, 0
5, 102480, Note_on_c, 0, 63, 64
5, 102716, Note_on_c, 0, 63, 0
5, 102720, Note_on_c, 0, 59, 64
5, 102956, Note_on_c, 0, 59, 0
5, 102960, Note_on_c, 0, 59, 64
5, 103196, Note_on_c, 0, 59, 0
5, 103200, Note_on_c, 0, 59, 64
5, 103436, Note_on_c, 0, 59, 0
5, 103440, Note_on_c, 0, 59, 64
5, 103676, Note_on_c, 0, 59, 0
5, 103680, Note_on_c, 0, 59, 64
5, 104156, Note_on_c, 0, 59, 0
5, 104400, Note_on_c, 0, 69, 64
5, 104516, Note_on_c, 0, 69, 0
5, 104520, Note_on_c, 0, 67, 64
5, 104636, Note_on_c, 0, 67, 0
5, 104640, Note_on_c, 0, 69, 64
5, 104876, Note_on_c, 0, 69, 0
5, 104880, Note_on_c, 0, 64, 64
5, 104996, Note_on_c, 0, 64, 0
5, 105000, Note_on_c, 0, 63, 64
5, 105116, Note_on_c, 0, 63, 0
5, 105120, Note_on_c, 0, 64, 64
5, 105356, Note_on_c, 0, 64, 0
5, 105840, Note_on_c, 0, 52, 64
5, 105956, Note_on_c, 0, 52, 0
5, 105960, Note_on_c, 0, 54, 64
5, 106076, Note_on_c, 0, 54, 0
5, 106080, Note_on_c, 0, 55, 64
5, 106316, Note_on_c, 0, 55, 0
5, 106320, Note_on_c, 0, 57, 64
5, 106556, Note_on_c, 0, 57, 0
5, 106560, Note_on_c, 0, 59, 64
5, 107036, Note_on_c, 0, 59, 0
5, 107760, Note_on_c, 0, 69, 64
5, 107876, Note_on_c, 0, 69, 0
5, 107880, Note_on_c, 0, 67, 64
5, 107996, Note_on_c, 0, 67, 0
5, 108000, Note_on_c, 0, 69, 64
5, 108236, Note_on_c, 0, 69, 0
5, 108240, Note_on_c, 0, 72, 64
5, 108356, Note_on_c, 0, 72, 0
5, 108360, Note_on_c, 0, 71, 64
5, 108476, Note_on_c, 0, 71, 0
5, 108480, Note_on_c, 0, 72, 64
5, 108716, Note_on_c, 0, 72, 0
5, 108720, Note_on_c, 0, 63, 64
5, 108836, Note_on_c, 0, 63, 0
5, 108840, Note_on_c, 0, 61, 64
5, 108956, Note_on_c, 0, 61, 0
5, 108960, Note_on_c, 0, 63, 64
5, 109196, Note_on_c, 0, 63, 0
5, 109200, Note_on_c, 0, 71, 64
5, 109436, Note_on_c, 0, 71, 0
5, 109440, Note_on_c, 0, 67, 64
5, 109676, Note_on_c, 0, 67, 0
5, 109680, Note_on_c, 0, 66, 64
5, 109796, Note_on_c, 0, 66, 0
5, 109800, Note_on_c, 0, 64, 64
5, 109916, Note_on_c, 0, 64, 0
5, 109920, Note_on_c, 0, 66, 64
5, 110156, Note_on_c, 0, 66, 0
5, 110160, Note_on_c, 0, 64, 64
5, 110276, Note_on_c, 0, 64, 0
5, 110280, Note_on_c, 0, 63, 64
5, 110396, Note_on_c, 0, 63, 0
5, 110400, Note_on_c, 0, 72, 64
5, 110756, Note_on_c, 0, 72, 0
5, 110760, Note_on_c, 0, 71, 64
5, 110876, Note_on_c, 0, 71, 0
5, 110880, Note_on_c, 0, 69, 64
5, 110996, Note_on_c, 0, 69, 0
5, 111000, Note_on_c, 0, 67, 64
5, 111116, Note_on_c, 0, 67, 0
5, 111120, Note_on_c, 0, 66, 64
5, 111236, Note_on_c, 0, 66, 0
5, 111240, Note_on_c, 0, 64, 64
5, 111356, Note_on_c, 0, 64, 0
5, 111360, Note_on_c, 0, 66, 64
5, 111596, Note_on_c, 0, 66, 0
5, 111600, Note_on_c, 0, 71, 64
5, 111836, Note_on_c, 0, 71, 0
5, 111840, Note_on_c, 0, 69, 64
5, 112076, Note_on_c, 0, 69, 0
5, 112080, Note_on_c, 0, 67, 64
5, 112196, Note_on_c, 0, 67, 0
5, 112200, Note_on_c, 0, 66, 64
5, 112316, Note_on_c, 0, 66, 0
5, 112320, Note_on_c, 0, 67, 64
5, 112436, Note_on_c, 0, 67, 0
5, 112440, Note_on_c, 0, 71, 64
5, 112556, Note_on_c, 0, 71, 0
5, 112560, Note_on_c, 0, 64, 64
5, 112676, Note_on_c, 0, 64, 0
5, 112680, Note_on_c, 0, 66, 64
5, 112796, Note_on_c, 0, 66, 0
5, 112800, Note_on_c, 0, 67, 64
5, 112916, Note_on_c, 0, 67, 0
5, 112920, Note_on_c, 0, 69, 64
5, 113036, Note_on_c, 0, 69, 0
5, 113040, Note_on_c, 0, 71, 64
5, 113156, Note_on_c, 0, 71, 0
5, 113160, Note_on_c, 0, 69, 64
5, 113276, Note_on_c, 0, 69, 0
5, 113280, Note_on_c, 0, 67, 64
5, 113516, Note_on_c, 0, 67, 0
5, 113520, Note_on_c, 0, 76, 64
5, 113756, Note_on_c, 0, 76, 0
5, 114000, Note_on_c, 0, 75, 64
5, 114236, Note_on_c, 0, 75, 0
5, 114240, Note_on_c, 0, 76, 64
5, 114476, Note_on_c, 0, 76, 0
5, 114480, Note_on_c, 0, 71, 64
5, 114716, Note_on_c, 0, 71, 0
5, 114720, Note_on_c, 0, 64, 64
5, 114956, Note_on_c, 0, 64, 0
5, 114960, Note_on_c, 0, 66, 64
5, 115196, Note_on_c, 0, 66, 0
5, 115200, Note_on_c, 0, 67, 64
5, 115436, Note_on_c, 0, 67, 0
5, 115440, Note_on_c, 0, 64, 64
5, 115676, Note_on_c, 0, 64, 0
5, 115680, Note_on_c, 0, 59, 64
5, 115916, Note_on_c, 0, 59, 0
5, 115920, Note_on_c, 0, 64, 64
5, 116156, Note_on_c, 0, 64, 0
5, 116160, Note_on_c, 0, 69, 64
5, 116396, Note_on_c, 0, 69, 0
5, 116400, Note_on_c, 0, 69, 64
5, 116516, Note_on_c, 0, 69, 0
5, 116520, Note_on_c, 0, 68, 64
5, 116636, Note_on_c, 0, 68, 0
5, 116640, Note_on_c, 0, 69, 64
5, 116876, Note_on_c, 0, 69, 0
5, 117360, Note_on_c, 0, 69, 64
5, 117476, Note_on_c, 0, 69, 0
5, 117480, Note_on_c, 0, 68, 64
5, 117596, Note_on_c, 0, 68, 0
5, 117600, Note_on_c, 0, 69, 64
5, 117836, Note_on_c, 0, 69, 0
5, 118320, Note_on_c, 0, 69, 64
5, 118436, Note_on_c, 0, 69, 0
5, 118440, Note_on_c, 0, 68, 64
5, 118556, Note_on_c, 0, 68, 0
5, 118560, Note_on_c, 0, 69, 64
5, 118796, Note_on_c, 0, 69, 0
5, 119280, Note_on_c, 0, 69, 64
5, 119396, Note_on_c, 0, 69, 0
5, 119400, Note_on_c, 0, 71, 64
5, 119516, Note_on_c, 0, 71, 0
5, 119520, Note_on_c, 0, 73, 64
5, 119756, Note_on_c, 0, 73, 0
5, 119760, Note_on_c, 0, 76, 64
5, 119996, Note_on_c, 0, 76, 0
5, 120000, Note_on_c, 0, 69, 64
5, 120476, Note_on_c, 0, 69, 0
5, 120720, Note_on_c, 0, 74, 64
5, 120836, Note_on_c, 0, 74, 0
5, 120840, Note_on_c, 0, 73, 64
5, 120956, Note_on_c, 0, 73, 0
5, 120960, Note_on_c, 0, 74, 64
5, 121196, Note_on_c, 0, 74, 0
5, 121680, Note_on_c, 0, 74, 64
5, 121796, Note_on_c, 0, 74, 0
5, 121800, Note_on_c, 0, 73, 64
5, 121916, Note_on_c, 0, 73, 0
5, 121920, Note_on_c, 0, 74, 64
5, 122156, Note_on_c, 0, 74, 0
5, 122640, Note_on_c, 0, 74, 64
5, 122756, Note_on_c, 0, 74, 0
5, 122760, Note_on_c, 0, 73, 64
5, 122876, Note_on_c, 0, 73, 0
5, 122880, Note_on_c, 0, 74, 64
5, 123116, Note_on_c, 0, 74, 0
5, 124560, Note_on_c, 0, 69, 64
5, 124796, Note_on_c, 0, 69, 0
5, 124800, Note_on_c, 0, 59, 64
5, 124916, Note_on_c, 0, 59, 0
5, 124920, Note_on_c, 0, 62, 64
5, 125036, Note_on_c, 0, 62, 0
5, 125040, Note_on_c, 0, 55, 64
5, 125156, Note_on_c, 0, 55, 0
5, 125160, Note_on_c, 0, 57, 64
5, 125276, Note_on_c, 0, 57, 0
5, 125280, Note_on_c, 0, 59, 64
5, 125396, Note_on_c, 0, 59, 0
5, 125400, Note_on_c, 0, 60, 64
5, 125516, Note_on_c, 0, 60, 0
5, 125520, Note_on_c, 0, 62, 64
5, 125636, Note_on_c, 0, 62, 0
5, 125640, Note_on_c, 0, 60, 64
5, 125756, Note_on_c, 0, 60, 0
5, 125760, Note_on_c, 0, 59, 64
5, 125996, Note_on_c, 0, 59, 0
5, 126000, Note_on_c, 0, 67, 64
5, 126116, Note_on_c, 0, 67, 0
5, 126120, Note_on_c, 0, 66, 64
5, 126236, Note_on_c, 0, 66, 0
5, 126240, Note_on_c, 0, 67, 64
5, 126476, Note_on_c, 0, 67, 0
5, 127440, Note_on_c, 0, 71, 64
5, 127556, Note_on_c, 0, 71, 0
5, 127560, Note_on_c, 0, 69, 64
5, 127676, Note_on_c, 0, 69, 0
5, 127680, Note_on_c, 0, 71, 64
5, 127916, Note_on_c, 0, 71, 0
5, 127920, Note_on_c, 0, 67, 64
5, 128036, Note_on_c, 0, 67, 0
5, 128040, Note_on_c, 0, 66, 64
5, 128156, Note_on_c, 0, 66, 0
5, 128160, Note_on_c, 0, 67, 64
5, 128276, Note_on_c, 0, 67, 0
5, 128280, Note_on_c, 0, 69, 64
5, 128396, Note_on_c, 0, 69, 0
5, 128400, Note_on_c, 0, 67, 64
5, 128516, Note_on_c, 0, 67, 0
5, 128520, Note_on_c, 0, 66, 64
5, 128636, Note_on_c, 0, 66, 0
5, 128640, Note_on_c, 0, 64, 64
5, 128876, Note_on_c, 0, 64, 0
5, 128880, Note_on_c, 0, 64, 64
5, 129116, Note_on_c, 0, 64, 0
5, 129120, Note_on_c, 0, 64, 64
5, 129356, Note_on_c, 0, 64, 0
5, 129360, Note_on_c, 0, 64, 64
5, 129596, Note_on_c, 0, 64, 0
5, 129600, Note_on_c, 0, 64, 64
5, 129836, Note_on_c, 0, 64, 0
5, 129840, Note_on_c, 0, 64, 64
5, 130076, Note_on_c, 0, 64, 0
5, 130080, Note_on_c, 0, 64, 64
5, 130316, Note_on_c, 0, 64, 0
5, 130320, Note_on_c, 0, 64, 64
5, 130556, Note_on_c, 0, 64, 0
5, 130560, Note_on_c, 0, 64, 64
5, 130796, Note_on_c, 0, 64, 0
5, 130800, Note_on_c, 0, 64, 64
5, 131036, Note_on_c, 0, 64, 0
5, 131040, Note_on_c, 0, 64, 64
5, 131276, Note_on_c, 0, 64, 0
5, 131280, Note_on_c, 0, 64, 64
5, 131516, Note_on_c, 0, 64, 0
5, 131520, Note_on_c, 0, 64, 64
5, 131756, Note_on_c, 0, 64, 0
5, 131760, Note_on_c, 0, 64, 64
5, 131996, Note_on_c, 0, 64, 0
5, 132000, Note_on_c, 0, 64, 64
5, 132236, Note_on_c, 0, 64, 0
5, 132240, Note_on_c, 0, 64, 64
5, 132476, Note_on_c, 0, 64, 0
5, 132480, Note_on_c, 0, 58, 64
5, 132716, Note_on_c, 0, 58, 0
5, 132720, Note_on_c, 0, 58, 64
5, 132956, Note_on_c, 0, 58, 0
5, 132960, Note_on_c, 0, 58, 64
5, 133196, Note_on_c, 0, 58, 0
5, 133200, Note_on_c, 0, 58, 64
5, 133436, Note_on_c, 0, 58, 0
5, 133440, Note_on_c, 0, 54, 64
5, 133676, Note_on_c, 0, 54, 0
5, 133680, Note_on_c, 0, 54, 64
5, 133916, Note_on_c, 0, 54, 0
5, 133920, Note_on_c, 0, 54, 64
5, 134156, Note_on_c, 0, 54, 0
5, 134160, Note_on_c, 0, 54, 64
5, 134396, Note_on_c, 0, 54, 0
5, 134400, Note_on_c, 0, 59, 64
5, 134636, Note_on_c, 0, 59, 0
5, 134640, Note_on_c, 0, 74, 64
5, 134876, Note_on_c, 0, 74, 0
5, 134880, Note_on_c, 0, 71, 64
5, 135116, Note_on_c, 0, 71, 0
5, 135120, Note_on_c, 0, 66, 64
5, 135356, Note_on_c, 0, 66, 0
5, 135360, Note_on_c, 0, 71, 64
5, 135596, Note_on_c, 0, 71, 0
5, 135600, Note_on_c, 0, 74, 64
5, 135836, Note_on_c, 0, 74, 0
5, 135840, Note_on_c, 0, 71, 64
5, 136076, Note_on_c, 0, 71, 0
5, 136080, Note_on_c, 0, 66, 64
5, 136316, Note_on_c, 0, 66, 0
5, 136320, Note_on_c, 0, 71, 64
5, 136556, Note_on_c, 0, 71, 0
5, 136560, Note_on_c, 0, 74, 64
5, 136676, Note_on_c, 0, 74, 0
5, 136680, Note_on_c, 0, 73, 64
5, 136796, Note_on_c, 0, 73, 0
5, 136800, Note_on_c, 0, 71, 64
5, 137036, Note_on_c, 0, 71, 0
5, 137040, Note_on_c, 0, 69, 64
5, 137156, Note_on_c, 0, 69, 0
5, 137160, Note_on_c, 0, 67, 64
5, 137276, Note_on_c, 0, 67, 0
5, 137280, Note_on_c, 0, 66, 64
5, 137516, Note_on_c, 0, 66, 0
5, 137520, Note_on_c, 0, 64, 64
5, 137636, Note_on_c, 0, 64, 0
5, 137640, Note_on_c, 0, 62, 64
5, 137756, Note_on_c, 0, 62, 0
5, 137760, Note_on_c, 0, 61, 64
5, 137996, Note_on_c, 0, 61, 0
5, 138000, Note_on_c, 0, 70, 64
5, 138236, Note_on_c, 0, 70, 0
5, 138240, Note_on_c, 0, 71, 64
5, 138476, Note_on_c, 0, 71, 0
5, 138480, Note_on_c, 0, 59, 64
5, 138716, Note_on_c, 0, 59, 0
5, 138720, Note_on_c, 0, 59, 64
5, 138956, Note_on_c, 0, 59, 0
5, 138960, Note_on_c, 0, 71, 64
5, 139196, Note_on_c, 0, 71, 0
5, 139200, Note_on_c, 0, 71, 64
5, 139436, Note_on_c, 0, 71, 0
5, 139440, Note_on_c, 0, 59, 64
5, 139676, Note_on_c, 0, 59, 0
5, 139680, Note_on_c, 0, 59, 64
5, 139916, Note_on_c, 0, 59, 0
5, 139920, Note_on_c, 0, 71, 64
5, 140156, Note_on_c, 0, 71, 0
5, 140160, Note_on_c, 0, 66, 64
5, 140396, Note_on_c, 0, 66, 0
5, 140400, Note_on_c, 0, 64, 64
5, 140516, Note_on_c, 0, 64, 0
5, 140520, Note_on_c, 0, 62, 64
5, 140636, Note_on_c, 0, 62, 0
5, 140640, Note_on_c, 0, 64, 64
5, 140876, Note_on_c, 0, 64, 0
5, 140880, Note_on_c, 0, 62, 64
5, 140996, Note_on_c, 0, 62, 0
5, 141000, Note_on_c, 0, 61, 64
5, 141116, Note_on_c, 0, 61, 0
5, 141120, Note_on_c, 0, 67, 64
5, 141476, Note_on_c, 0, 67, 0
5, 141480, Note_on_c, 0, 66, 64
5, 141596, Note_on_c, 0, 66, 0
5, 141600, Note_on_c, 0, 64, 64
5, 141716, Note_on_c, 0, 64, 0
5, 141720, Note_on_c, 0, 62, 64
5, 141836, Note_on_c, 0, 62, 0
5, 141840, Note_on_c, 0, 61, 64
5, 141956, Note_on_c, 0, 61, 0
5, 141960, Note_on_c, 0, 59, 64
5, 142076, Note_on_c, 0, 59, 0
5, 142080, Note_on_c, 0, 71, 64
5, 142316, Note_on_c, 0, 71, 0
5, 142320, Note_on_c, 0, 71, 64
5, 142556, Note_on_c, 0, 71, 0
5, 142560, Note_on_c, 0, 66, 64
5, 142796, Note_on_c, 0, 66, 0
5, 142800, Note_on_c, 0, 66, 64
5, 143036, Note_on_c, 0, 66, 0
5, 143040, Note_on_c, 0, 66, 64
5, 143516, Note_on_c, 0, 66, 0
5, 144240, Note_on_c, 0, 66, 64
5, 144356, Note_on_c, 0, 66, 0
5, 144360, Note_on_c, 0, 64, 64
5, 144476, Note_on_c, 0, 64, 0
5, 144480, Note_on_c, 0, 66, 64
5, 144716, Note_on_c, 0, 66, 0
5, 144720, Note_on_c, 0, 71, 64
5, 144836, Note_on_c, 0, 71, 0
5, 144840, Note_on_c, 0, 70, 64
5, 144956, Note_on_c, 0, 70, 0
5, 144960, Note_on_c, 0, 71, 64
5, 145196, Note_on_c, 0, 71, 0
5, 146160, Note_on_c, 0, 71, 64
5, 146276, Note_on_c, 0, 71, 0
5, 146280, Note_on_c, 0, 70, 64
5, 146396, Note_on_c, 0, 70, 0
5, 146400, Note_on_c, 0, 71, 64
5, 146636, Note_on_c, 0, 71, 0
5, 146640, Note_on_c, 0, 71, 64
5, 146876, Note_on_c, 0, 71, 0
5, 146880, Note_on_c, 0, 71, 64
5, 147116, Note_on_c, 0, 71, 0
5, 147120, Note_on_c, 0, 70, 64
5, 147236, Note_on_c, 0, 70, 0
5, 147240, Note_on_c, 0, 68, 64
5, 147356, Note_on_c, 0, 68, 0
5, 147360, Note_on_c, 0, 70, 64
5, 147596, Note_on_c, 0, 70, 0
5, 147600, Note_on_c, 0, 71, 64
5, 147716, Note_on_c, 0, 71, 0
5, 147720, Note_on_c, 0, 64, 64
5, 147836, Note_on_c, 0, 64, 0
5, 147840, Note_on_c, 0, 59, 64
5, 148076, Note_on_c, 0, 59, 0
5, 148080, Note_on_c, 0, 67, 64
5, 148316, Note_on_c, 0, 67, 0
5, 148320, Note_on_c, 0, 61, 64
5, 148556, Note_on_c, 0, 61, 0
5, 148560, Note_on_c, 0, 66, 64
5, 148796, Note_on_c, 0, 66, 0
5, 148800, Note_on_c, 0, 62, 64
5, 149276, Note_on_c, 0, 62, 0
5, 149760, Note_on_c, 0, 55, 64
5, 149996, Note_on_c, 0, 55, 0
5, 150000, Note_on_c, 0, 54, 64
5, 150236, Note_on_c, 0, 54, 0
5, 150240, Note_on_c, 0, 55, 64
5, 150476, Note_on_c, 0, 55, 0
5, 150480, Note_on_c, 0, 57, 64
5, 150716, Note_on_c, 0, 57, 0
5, 150720, Note_on_c, 0, 59, 64
5, 150956, Note_on_c, 0, 59, 0
5, 150960, Note_on_c, 0, 60, 64
5, 151196, Note_on_c, 0, 60, 0
5, 151200, Note_on_c, 0, 59, 64
5, 151436, Note_on_c, 0, 59, 0
5, 151440, Note_on_c, 0, 57, 64
5, 151676, Note_on_c, 0, 57, 0
5, 151680, Note_on_c, 0, 55, 64
5, 151916, Note_on_c, 0, 55, 0
5, 151920, Note_on_c, 0, 54, 64
5, 152156, Note_on_c, 0, 54, 0
5, 152160, Note_on_c, 0, 52, 64
5, 152396, Note_on_c, 0, 52, 0
5, 152400, Note_on_c, 0, 57, 64
5, 152636, Note_on_c, 0, 57, 0
5, 152640, Note_on_c, 0, 62, 64
5, 152876, Note_on_c, 0, 62, 0
5, 152880, Note_on_c, 0, 50, 64
5, 153116, Note_on_c, 0, 50, 0
5, 153120, Note_on_c, 0, 54, 64
5, 153356, Note_on_c, 0, 54, 0
5, 153360, Note_on_c, 0, 57, 64
5, 153596, Note_on_c, 0, 57, 0
5, 153600, Note_on_c, 0, 62, 64
5, 154076, Note_on_c, 0, 62, 0
5, 160560, Note_on_c, 0, 67, 64
5, 160676, Note_on_c, 0, 67, 0
5, 160680, Note_on_c, 0, 66, 64
5, 160796, Note_on_c, 0, 66, 0
5, 160800, Note_on_c, 0, 67, 64
5, 161036, Note_on_c, 0, 67, 0
5, 162480, Note_on_c, 0, 64, 64
5, 162596, Note_on_c, 0, 64, 0
5, 162600, Note_on_c, 0, 63, 64
5, 162716, Note_on_c, 0, 63, 0
5, 162720, Note_on_c, 0, 64, 64
5, 162956, Note_on_c, 0, 64, 0
5, 164880, Note_on_c, 0, 67, 64
5, 164996, Note_on_c, 0, 67, 0
5, 165000, Note_on_c, 0, 66, 64
5, 165116, Note_on_c, 0, 66, 0
5, 165120, Note_on_c, 0, 67, 64
5, 165356, Note_on_c, 0, 67, 0
5, 165360, Note_on_c, 0, 62, 64
5, 165476, Note_on_c, 0, 62, 0
5, 165480, Note_on_c, 0, 60, 64
5, 165596, Note_on_c, 0, 60, 0
5, 165600, Note_on_c, 0, 62, 64
5, 165836, Note_on_c, 0, 62, 0
5, 165840, Note_on_c, 0, 67, 64
5, 165956, Note_on_c, 0, 67, 0
5, 165960, Note_on_c, 0, 66, 64
5, 166076, Note_on_c, 0, 66, 0
5, 166080, Note_on_c, 0, 67, 64
5, 166316, Note_on_c, 0, 67, 0
5, 166320, Note_on_c, 0, 59, 64
5, 166436, Note_on_c, 0, 59, 0
5, 166440, Note_on_c, 0, 57, 64
5, 166556, Note_on_c, 0, 57, 0
5, 166560, Note_on_c, 0, 59, 64
5, 166796, Note_on_c, 0, 59, 0
5, 166800, Note_on_c, 0, 67, 64
5, 166916, Note_on_c, 0, 67, 0
5, 166920, Note_on_c, 0, 66, 64
5, 167036, Note_on_c, 0, 66, 0
5, 167040, Note_on_c, 0, 67, 64
5, 167276, Note_on_c, 0, 67, 0
5, 167280, Note_on_c, 0, 55, 64
5, 167396, Note_on_c, 0, 55, 0
5, 167400, Note_on_c, 0, 57, 64
5, 167516, Note_on_c, 0, 57, 0
5, 167520, Note_on_c, 0, 59, 64
5, 167756, Note_on_c, 0, 59, 0
5, 167760, Note_on_c, 0, 61, 64
5, 167996, Note_on_c, 0, 61, 0
5, 168000, Note_on_c, 0, 62, 64
5, 168116, Note_on_c, 0, 62, 0
5, 168120, Note_on_c, 0, 72, 64
5, 168236, Note_on_c, 0, 72, 0
5, 168240, Note_on_c, 0, 62, 64
5, 168356, Note_on_c, 0, 62, 0
5, 168360, Note_on_c, 0, 72, 64
5, 168476, Note_on_c, 0, 72, 0
5, 168480, Note_on_c, 0, 62, 64
5, 168596, Note_on_c, 0, 62, 0
5, 168600, Note_on_c, 0, 72, 64
5, 168716, Note_on_c, 0, 72, 0
5, 168720, Note_on_c, 0, 62, 64
5, 168836, Note_on_c, 0, 62, 0
5, 168840, Note_on_c, 0, 72, 64
5, 168956, Note_on_c, 0, 72, 0
5, 168960, Note_on_c, 0, 62, 64
5, 169076, Note_on_c, 0, 62, 0
5, 169080, Note_on_c, 0, 71, 64
5, 169196, Note_on_c, 0, 71, 0
5, 169200, Note_on_c, 0, 62, 64
5, 169316, Note_on_c, 0, 62, 0
5, 169320, Note_on_c, 0, 71, 64
5, 169436, Note_on_c, 0, 71, 0
5, 169440, Note_on_c, 0, 62, 64
5, 169556, Note_on_c, 0, 62, 0
5, 169560, Note_on_c, 0, 71, 64
5, 169676, Note_on_c, 0, 71, 0
5, 169680, Note_on_c, 0, 62, 64
5, 169796, Note_on_c, 0, 62, 0
5, 169800, Note_on_c, 0, 71, 64
5, 169916, Note_on_c, 0, 71, 0
5, 169920, Note_on_c, 0, 64, 64
5, 170036, Note_on_c, 0, 64, 0
5, 170040, Note_on_c, 0, 70, 64
5, 170156, Note_on_c, 0, 70, 0
5, 170160, Note_on_c, 0, 64, 64
5, 170276, Note_on_c, 0, 64, 0
5, 170280, Note_on_c, 0, 70, 64
5, 170396, Note_on_c, 0, 70, 0
5, 170400, Note_on_c, 0, 64, 64
5, 170516, Note_on_c, 0, 64, 0
5, 170520, Note_on_c, 0, 70, 64
5, 170636, Note_on_c, 0, 70, 0
5, 170640, Note_on_c, 0, 64, 64
5, 170756, Note_on_c, 0, 64, 0
5, 170760, Note_on_c, 0, 70, 64
5, 170876, Note_on_c, 0, 70, 0
5, 170880, Note_on_c, 0, 66, 64
5, 170996, Note_on_c, 0, 66, 0
5, 171000, Note_on_c, 0, 70, 64
5, 171116, Note_on_c, 0, 70, 0
5, 171120, Note_on_c, 0, 66, 64
5, 171236, Note_on_c, 0, 66, 0
5, 171240, Note_on_c, 0, 70, 64
5, 171356, Note_on_c, 0, 70, 0
5, 171360, Note_on_c, 0, 66, 64
5, 171476, Note_on_c, 0, 66, 0
5, 171480, Note_on_c, 0, 70, 64
5, 171596, Note_on_c, 0, 70, 0
5, 171600, Note_on_c, 0, 66, 64
5, 171716, Note_on_c, 0, 66, 0
5, 171720, Note_on_c, 0, 70, 64
5, 171836, Note_on_c, 0, 70, 0
5, 171840, Note_on_c, 0, 66, 64
5, 171956, Note_on_c, 0, 66, 0
5, 171960, Note_on_c, 0, 69, 64
5, 172076, Note_on_c, 0, 69, 0
5, 172080, Note_on_c, 0, 66, 64
5, 172196, Note_on_c, 0, 66, 0
5, 172200, Note_on_c, 0, 69, 64
5, 172316, Note_on_c, 0, 69, 0
5, 172320, Note_on_c, 0, 66, 64
5, 172436, Note_on_c, 0, 66, 0
5, 172440, Note_on_c, 0, 69, 64
5, 172556, Note_on_c, 0, 69, 0
5, 172560, Note_on_c, 0, 66, 64
5, 172676, Note_on_c, 0, 66, 0
5, 172680, Note_on_c, 0, 69, 64
5, 172796, Note_on_c, 0, 69, 0
5, 172800, Note_on_c, 0, 64, 64
5, 172916, Note_on_c, 0, 64, 0
5, 172920, Note_on_c, 0, 68, 64
5, 173036, Note_on_c, 0, 68, 0
5, 173040, Note_on_c, 0, 64, 64
5, 173156, Note_on_c, 0, 64, 0
5, 173160, Note_on_c, 0, 68, 64
5, 173276, Note_on_c, 0, 68, 0
5, 173280, Note_on_c, 0, 64, 64
5, 173396, Note_on_c, 0, 64, 0
5, 173400, Note_on_c, 0, 68, 64
5, 173516, Note_on_c, 0, 68, 0
5, 173520, Note_on_c, 0, 64, 64
5, 173636, Note_on_c, 0, 64, 0
5, 173640, Note_on_c, 0, 68, 64
5, 173756, Note_on_c, 0, 68, 0
5, 173760, Note_on_c, 0, 64, 64
5, 173876, Note_on_c, 0, 64, 0
5, 173880, Note_on_c, 0, 69, 64
5, 173996, Note_on_c, 0, 69, 0
5, 174000, Note_on_c, 0, 64, 64
5, 174116, Note_on_c, 0, 64, 0
5, 174120, Note_on_c, 0, 69, 64
5, 174236, Note_on_c, 0, 69, 0
5, 174240, Note_on_c, 0, 64, 64
5, 174356, Note_on_c, 0, 64, 0
5, 174360, Note_on_c, 0, 69, 64
5, 174476, Note_on_c, 0, 69, 0
5, 174480, Note_on_c, 0, 64, 64
5, 174596, Note_on_c, 0, 64, 0
5, 174600, Note_on_c, 0, 69, 64
5, 174716, Note_on_c, 0, 69, 0
5, 174720, Note_on_c, 0, 62, 64
5, 174956, Note_on_c, 0, 62, 0
5, 174960, Note_on_c, 0, 62, 64
5, 175196, Note_on_c, 0, 62, 0
5, 175200, Note_on_c, 0, 62, 64
5, 175436, Note_on_c, 0, 62, 0
5, 175440, Note_on_c, 0, 62, 64
5, 175676, Note_on_c, 0, 62, 0
5, 175680, Note_on_c, 0, 62, 64
5, 175916, Note_on_c, 0, 62, 0
5, 175920, Note_on_c, 0, 62, 64
5, 176156, Note_on_c, 0, 62, 0
5, 176160, Note_on_c, 0, 62, 64
5, 176396, Note_on_c, 0, 62, 0
5, 176400, Note_on_c, 0, 62, 64
5, 176636, Note_on_c, 0, 62, 0
5, 176640, Note_on_c, 0, 63, 64
5, 176876, Note_on_c, 0, 63, 0
5, 176880, Note_on_c, 0, 63, 64
5, 177116, Note_on_c, 0, 63, 0
5, 177120, Note_on_c, 0, 63, 64
5, 177356, Note_on_c, 0, 63, 0
5, 177360, Note_on_c, 0, 63, 64
5, 177596, Note_on_c, 0, 63, 0
5, 177600, Note_on_c, 0, 63, 64
5, 177836, Note_on_c, 0, 63, 0
5, 177840, Note_on_c, 0, 63, 64
5, 178076, Note_on_c, 0, 63, 0
5, 178080, Note_on_c, 0, 63, 64
5, 178316, Note_on_c, 0, 63, 0
5, 178320, Note_on_c, 0, 63, 64
5, 178556, Note_on_c, 0, 63, 0
5, 178560, Note_on_c, 0, 64, 64
5, 178796, Note_on_c, 0, 64, 0
5, 178800, Note_on_c, 0, 64, 64
5, 179036, Note_on_c, 0, 64, 0
5, 179040, Note_on_c, 0, 64, 64
5, 179276, Note_on_c, 0, 64, 0
5, 179280, Note_on_c, 0, 64, 64
5, 179516, Note_on_c, 0, 64, 0
5, 179520, Note_on_c, 0, 64, 64
5, 179756, Note_on_c, 0, 64, 0
5, 179760, Note_on_c, 0, 64, 64
5, 179996, Note_on_c, 0, 64, 0
5, 180000, Note_on_c, 0, 64, 64
5, 180236, Note_on_c, 0, 64, 0
5, 180240, Note_on_c, 0, 64, 64
5, 180476, Note_on_c, 0, 64, 0
5, 180480, Note_on_c, 0, 63, 64
5, 180716, Note_on_c, 0, 63, 0
5, 180720, Note_on_c, 0, 63, 64
5, 180956, Note_on_c, 0, 63, 0
5, 180960, Note_on_c, 0, 63, 64
5, 181196, Note_on_c, 0, 63, 0
5, 181200, Note_on_c, 0, 63, 64
5, 181436, Note_on_c, 0, 63, 0
5, 181440, Note_on_c, 0, 63, 64
5, 181676, Note_on_c, 0, 63, 0
5, 181680, Note_on_c, 0, 63, 64
5, 181916, Note_on_c, 0, 63, 0
5, 181920, Note_on_c, 0, 63, 64
5, 182156, Note_on_c, 0, 63, 0
5, 182160, Note_on_c, 0, 63, 64
5, 182396, Note_on_c, 0, 63, 0
5, 182400, Note_on_c, 0, 64, 64
5, 182636, Note_on_c, 0, 64, 0
5, 182640, Note_on_c, 0, 64, 64
5, 182876, Note_on_c, 0, 64, 0
5, 182880, Note_on_c, 0, 64, 64
5, 183116, Note_on_c, 0, 64, 0
5, 183120, Note_on_c, 0, 64, 64
5, 183356, Note_on_c, 0, 64, 0
5, 183360, Note_on_c, 0, 64, 64
5, 183596, Note_on_c, 0, 64, 0
5, 183600, Note_on_c, 0, 64, 64
5, 183836, Note_on_c, 0, 64, 0
5, 183840, Note_on_c, 0, 64, 64
5, 184076, Note_on_c, 0, 64, 0
5, 184080, Note_on_c, 0, 64, 64
5, 184316, Note_on_c, 0, 64, 0
5, 184320, Note_on_c, 0, 64, 64
5, 184556, Note_on_c, 0, 64, 0
5, 184560, Note_on_c, 0, 64, 64
5, 184796, Note_on_c, 0, 64, 0
5, 184800, Note_on_c, 0, 64, 64
5, 185036, Note_on_c, 0, 64, 0
5, 185040, Note_on_c, 0, 64, 64
5, 185276, Note_on_c, 0, 64, 0
5, 185280, Note_on_c, 0, 64, 64
5, 185516, Note_on_c, 0, 64, 0
5, 185520, Note_on_c, 0, 64, 64
5, 185756, Note_on_c, 0, 64, 0
5, 185760, Note_on_c, 0, 64, 64
5, 185996, Note_on_c, 0, 64, 0
5, 186000, Note_on_c, 0, 64, 64
5, 186236, Note_on_c, 0, 64, 0
5, 186240, Note_on_c, 0, 64, 64
5, 186476, Note_on_c, 0, 64, 0
5, 186480, Note_on_c, 0, 69, 64
5, 186596, Note_on_c, 0, 69, 0
5, 186600, Note_on_c, 0, 68, 64
5, 186716, Note_on_c, 0, 68, 0
5, 186720, Note_on_c, 0, 69, 64
5, 186956, Note_on_c, 0, 69, 0
5, 187920, Note_on_c, 0, 69, 64
5, 188156, Note_on_c, 0, 69, 0
5, 188160, Note_on_c, 0, 71, 64
5, 188396, Note_on_c, 0, 71, 0
5, 188400, Note_on_c, 0, 67, 64
5, 188516, Note_on_c, 0, 67, 0
5, 188520, Note_on_c, 0, 66, 64
5, 188636, Note_on_c, 0, 66, 0
5, 188640, Note_on_c, 0, 67, 64
5, 188876, Note_on_c, 0, 67, 0
5, 189840, Note_on_c, 0, 67, 64
5, 190076, Note_on_c, 0, 67, 0
5, 190080, Note_on_c, 0, 67, 64
5, 190316, Note_on_c, 0, 67, 0
5, 190320, Note_on_c, 0, 65, 64
5, 190436, Note_on_c, 0, 65, 0
5, 190440, Note_on_c, 0, 64, 64
5, 190556, Note_on_c, 0, 64, 0
5, 190560, Note_on_c, 0, 65, 64
5, 190796, Note_on_c, 0, 65, 0
5, 191760, Note_on_c, 0, 69, 64
5, 191996, Note_on_c, 0, 69, 0
5, 192000, Note_on_c, 0, 64, 64
5, 192236, Note_on_c, 0, 64, 0
5, 192240, Note_on_c, 0, 68, 64
5, 192356, Note_on_c, 0, 68, 0
5, 192360, Note_on_c, 0, 69, 64
5, 192476, Note_on_c, 0, 69, 0
5, 192480, Note_on_c, 0, 68, 64
5, 192716, Note_on_c, 0, 68, 0
5, 192720, Note_on_c, 0, 71, 64
5, 192836, Note_on_c, 0, 71, 0
5, 192840, Note_on_c, 0, 72, 64
5, 192956, Note_on_c, 0, 72, 0
5, 192960, Note_on_c, 0, 71, 64
5, 193196, Note_on_c, 0, 71, 0
5, 193200, Note_on_c, 0, 74, 64
5, 193316, Note_on_c, 0, 74, 0
5, 193320, Note_on_c, 0, 76, 64
5, 193436, Note_on_c, 0, 76, 0
5, 193440, Note_on_c, 0, 74, 64
5, 193676, Note_on_c, 0, 74, 0
5, 193680, Note_on_c, 0, 68, 64
5, 193916, Note_on_c, 0, 68, 0
5, 193920, Note_on_c, 0, 69, 64
5, 194156, Note_on_c, 0, 69, 0
5, 194160, Note_on_c, 0, 65, 64
5, 194396, Note_on_c, 0, 65, 0
5, 194400, Note_on_c, 0, 59, 64
5, 194636, Note_on_c, 0, 59, 0
5, 194640, Note_on_c, 0, 59, 64
5, 194876, Note_on_c, 0, 59, 0
5, 194880, Note_on_c, 0, 69, 64
5, 194996, Note_on_c, 0, 69, 0
5, 195000, Note_on_c, 0, 68, 64
5, 195116, Note_on_c, 0, 68, 0
5, 195120, Note_on_c, 0, 69, 64
5, 195236, Note_on_c, 0, 69, 0
5, 195240, Note_on_c, 0, 71, 64
5, 195356, Note_on_c, 0, 71, 0
5, 195360, Note_on_c, 0, 69, 64
5, 195476, Note_on_c, 0, 69, 0
5, 195480, Note_on_c, 0, 72, 64
5, 195596, Note_on_c, 0, 72, 0
5, 195600, Note_on_c, 0, 71, 64
5, 195716, Note_on_c, 0, 71, 0
5, 195720, Note_on_c, 0, 74, 64
5, 195836, Note_on_c, 0, 74, 0
5, 195840, Note_on_c, 0, 72, 64
5, 195956, Note_on_c, 0, 72, 0
5, 195960, Note_on_c, 0, 71, 64
5, 196076, Note_on_c, 0, 71, 0
5, 196080, Note_on_c, 0, 72, 64
5, 196196, Note_on_c, 0, 72, 0
5, 196200, Note_on_c, 0, 74, 64
5, 196316, Note_on_c, 0, 74, 0
5, 196320, Note_on_c, 0, 72, 64
5, 196436, Note_on_c, 0, 72, 0
5, 196440, Note_on_c, 0, 76, 64
5, 196556, Note_on_c, 0, 76, 0
5, 196560, Note_on_c, 0, 74, 64
5, 196676, Note_on_c, 0, 74, 0
5, 196680, Note_on_c, 0, 77, 64
5, 196796, Note_on_c, 0, 77, 0
5, 196800, Note_on_c, 0, 76, 64
5, 196916, Note_on_c, 0, 76, 0
5, 196920, Note_on_c, 0, 74, 64
5, 197036, Note_on_c, 0, 74, 0
5, 197040, Note_on_c, 0, 76, 64
5, 197156, Note_on_c, 0, 76, 0
5, 197160, Note_on_c, 0, 77, 64
5, 197276, Note_on_c, 0, 77, 0
5, 197280, Note_on_c, 0, 76, 64
5, 197396, Note_on_c, 0, 76, 0
5, 197400, Note_on_c, 0, 77, 64
5, 197516, Note_on_c, 0, 77, 0
5, 197520, Note_on_c, 0, 76, 64
5, 197636, Note_on_c, 0, 76, 0
5, 197640, Note_on_c, 0, 74, 64
5, 197756, Note_on_c, 0, 74, 0
5, 197760, Note_on_c, 0, 72, 64
5, 197876, Note_on_c, 0, 72, 0
5, 197880, Note_on_c, 0, 74, 64
5, 197996, Note_on_c, 0, 74, 0
5, 198000, Note_on_c, 0, 72, 64
5, 198116, Note_on_c, 0, 72, 0
5, 198120, Note_on_c, 0, 71, 64
5, 198236, Note_on_c, 0, 71, 0
5, 198240, Note_on_c, 0, 69, 64
5, 198356, Note_on_c, 0, 69, 0
5, 198360, Note_on_c, 0, 72, 64
5, 198476, Note_on_c, 0, 72, 0
5, 198480, Note_on_c, 0, 71, 64
5, 198596, Note_on_c, 0, 71, 0
5, 198600, Note_on_c, 0, 69, 64
5, 198716, Note_on_c, 0, 69, 0
5, 198720, Note_on_c, 0, 67, 64
5, 198956, Note_on_c, 0, 67, 0
5, 198960, Note_on_c, 0, 64, 64
5, 199196, Note_on_c, 0, 64, 0
5, 199440, Note_on_c, 0, 64, 64
5, 199676, Note_on_c, 0, 64, 0
5, 199680, Note_on_c, 0, 67, 64
5, 199916, Note_on_c, 0, 67, 0
5, 199920, Note_on_c, 0, 71, 64
5, 200156, Note_on_c, 0, 71, 0
5, 200160, Note_on_c, 0, 67, 64
5, 200396, Note_on_c, 0, 67, 0
5, 200400, Note_on_c, 0, 64, 64
5, 200636, Note_on_c, 0, 64, 0
5, 200640, Note_on_c, 0, 67, 64
5, 200876, Note_on_c, 0, 67, 0
5, 200880, Note_on_c, 0, 71, 64
5, 201116, Note_on_c, 0, 71, 0
5, 201120, Note_on_c, 0, 67, 64
5, 201356, Note_on_c, 0, 67, 0
5, 201360, Note_on_c, 0, 64, 64
5, 201596, Note_on_c, 0, 64, 0
5, 201600, Note_on_c, 0, 71, 64
5, 201836, Note_on_c, 0, 71, 0
5, 201840, Note_on_c, 0, 71, 64
5, 201956, Note_on_c, 0, 71, 0
5, 201960, Note_on_c, 0, 71, 64
5, 202076, Note_on_c, 0, 71, 0
5, 202080, Note_on_c, 0, 71, 64
5, 202316, Note_on_c, 0, 71, 0
5, 202800, Note_on_c, 0, 59, 64
5, 202916, Note_on_c, 0, 59, 0
5, 202920, Note_on_c, 0, 57, 64
5, 203036, Note_on_c, 0, 57, 0
5, 203040, Note_on_c, 0, 59, 64
5, 203156, Note_on_c, 0, 59, 0
5, 203160, Note_on_c, 0, 60, 64
5, 203276, Note_on_c, 0, 60, 0
5, 203280, Note_on_c, 0, 59, 64
5, 203396, Note_on_c, 0, 59, 0
5, 203400, Note_on_c, 0, 57, 64
5, 203516, Note_on_c, 0, 57, 0
5, 203520, Note_on_c, 0, 55, 64
5, 203636, Note_on_c, 0, 55, 0
5, 203640, Note_on_c, 0, 54, 64
5, 203756, Note_on_c, 0, 54, 0
5, 203760, Note_on_c, 0, 55, 64
5, 203876, Note_on_c, 0, 55, 0
5, 203880, Note_on_c, 0, 57, 64
5, 203996, Note_on_c, 0, 57, 0
5, 204000, Note_on_c, 0, 55, 64
5, 204116, Note_on_c, 0, 55, 0
5, 204120, Note_on_c, 0, 59, 64
5, 204236, Note_on_c, 0, 59, 0
5, 204240, Note_on_c, 0, 57, 64
5, 204356, Note_on_c, 0, 57, 0
5, 204360, Note_on_c, 0, 60, 64
5, 204476, Note_on_c, 0, 60, 0
5, 204480, Note_on_c, 0, 59, 64
5, 204596, Note_on_c, 0, 59, 0
5, 204600, Note_on_c, 0, 57, 64
5, 204716, Note_on_c, 0, 57, 0
5, 204720, Note_on_c, 0, 59, 64
5, 204836, Note_on_c, 0, 59, 0
5, 204840, Note_on_c, 0, 60, 64
5, 204956, Note_on_c, 0, 60, 0
5, 204960, Note_on_c, 0, 59, 64
5, 205076, Note_on_c, 0, 59, 0
5, 205080, Note_on_c, 0, 62, 64
5, 205196, Note_on_c, 0, 62, 0
5, 205200, Note_on_c, 0, 60, 64
5, 205316, Note_on_c, 0, 60, 0
5, 205320, Note_on_c, 0, 64, 64
5, 205436, Note_on_c, 0, 64, 0
5, 205440, Note_on_c, 0, 62, 64
5, 205556, Note_on_c, 0, 62, 0
5, 205560, Note_on_c, 0, 64, 64
5, 205676, Note_on_c, 0, 64, 0
5, 205680, Note_on_c, 0, 62, 64
5, 205796, Note_on_c, 0, 62, 0
5, 205800, Note_on_c, 0, 60, 64
5, 205916, Note_on_c, 0, 60, 0
5, 205920, Note_on_c, 0, 59, 64
5, 206036, Note_on_c, 0, 59, 0
5, 206040, Note_on_c, 0, 67, 64
5, 206156, Note_on_c, 0, 67, 0
5, 206160, Note_on_c, 0, 66, 64
5, 206276, Note_on_c, 0, 66, 0
5, 206280, Note_on_c, 0, 64, 64
5, 206396, Note_on_c, 0, 64, 0
5, 206400, Note_on_c, 0, 62, 64
5, 206516, Note_on_c, 0, 62, 0
5, 206520, Note_on_c, 0, 74, 64
5, 206636, Note_on_c, 0, 74, 0
5, 206640, Note_on_c, 0, 73, 64
5, 206756, Note_on_c, 0, 73, 0
5, 206760, Note_on_c, 0, 71, 64
5, 206876, Note_on_c, 0, 71, 0
5, 206880, Note_on_c, 0, 69, 64
5, 206996, Note_on_c, 0, 69, 0
5, 207000, Note_on_c, 0, 71, 64
5, 207116, Note_on_c, 0, 71, 0
5, 207120, Note_on_c, 0, 69, 64
5, 207236, Note_on_c, 0, 69, 0
5, 207240, Note_on_c, 0, 67, 64
5, 207356, Note_on_c, 0, 67, 0
5, 207360, Note_on_c, 0, 69, 64
5, 207596, Note_on_c, 0, 69, 0
5, 207600, Note_on_c, 0, 69, 64
5, 207836, Note_on_c, 0, 69, 0
5, 207840, Note_on_c, 0, 69, 64
5, 208076, Note_on_c, 0, 69, 0
5, 208080, Note_on_c, 0, 69, 64
5, 208316, Note_on_c, 0, 69, 0
5, 208320, Note_on_c, 0, 69, 64
5, 208556, Note_on_c, 0, 69, 0
5, 208560, Note_on_c, 0, 69, 64
5, 208796, Note_on_c, 0, 69, 0
5, 208800, Note_on_c, 0, 69, 64
5, 209036, Note_on_c, 0, 69, 0
5, 209040, Note_on_c, 0, 69, 64
5, 209276, Note_on_c, 0, 69, 0
5, 209280, Note_on_c, 0, 71, 64
5, 209516, Note_on_c, 0, 71, 0
5, 209520, Note_on_c, 0, 71, 64
5, 209756, Note_on_c, 0, 71, 0
5, 209760, Note_on_c, 0, 71, 64
5, 209996, Note_on_c, 0, 71, 0
5, 210000, Note_on_c, 0, 71, 64
5, 210236, Note_on_c, 0, 71, 0
5, 210240, Note_on_c, 0, 71, 64
5, 210476, Note_on_c, 0, 71, 0
5, 210480, Note_on_c, 0, 71, 64
5, 210716, Note_on_c, 0, 71, 0
5, 210720, Note_on_c, 0, 71, 64
5, 210956, Note_on_c, 0, 71, 0
5, 210960, Note_on_c, 0, 71, 64
5, 211196, Note_on_c, 0, 71, 0
5, 211200, Note_on_c, 0, 71, 64
5, 211436, Note_on_c, 0, 71, 0
5, 211440, Note_on_c, 0, 71, 64
5, 211676, Note_on_c, 0, 71, 0
5, 211680, Note_on_c, 0, 71, 64
5, 211916, Note_on_c, 0, 71, 0
5, 211920, Note_on_c, 0, 71, 64
5, 212156, Note_on_c, 0, 71, 0
5, 212160, Note_on_c, 0, 71, 64
5, 212396, Note_on_c, 0, 71, 0
5, 212400, Note_on_c, 0, 71, 64
5, 212636, Note_on_c, 0, 71, 0
5, 212640, Note_on_c, 0, 71, 64
5, 212876, Note_on_c, 0, 71, 0
5, 212880, Note_on_c, 0, 71, 64
5, 213116, Note_on_c, 0, 71, 0
5, 213120, Note_on_c, 0, 67, 64
5, 213236, Note_on_c, 0, 67, 0
5, 213240, Note_on_c, 0, 66, 64
5, 213356, Note_on_c, 0, 66, 0
5, 213360, Note_on_c, 0, 67, 64
5, 213476, Note_on_c, 0, 67, 0
5, 213480, Note_on_c, 0, 76, 64
5, 213596, Note_on_c, 0, 76, 0
5, 213600, Note_on_c, 0, 73, 64
5, 213716, Note_on_c, 0, 73, 0
5, 213720, Note_on_c, 0, 67, 64
5, 213836, Note_on_c, 0, 67, 0
5, 213840, Note_on_c, 0, 64, 64
5, 213956, Note_on_c, 0, 64, 0
5, 213960, Note_on_c, 0, 57, 64
5, 214076, Note_on_c, 0, 57, 0
5, 214080, Note_on_c, 0, 67, 64
5, 214196, Note_on_c, 0, 67, 0
5, 214200, Note_on_c, 0, 66, 64
5, 214316, Note_on_c, 0, 66, 0
5, 214320, Note_on_c, 0, 67, 64
5, 214436, Note_on_c, 0, 67, 0
5, 214440, Note_on_c, 0, 76, 64
5, 214556, Note_on_c, 0, 76, 0
5, 214560, Note_on_c, 0, 73, 64
5, 214676, Note_on_c, 0, 73, 0
5, 214680, Note_on_c, 0, 67, 64
5, 214796, Note_on_c, 0, 67, 0
5, 214800, Note_on_c, 0, 64, 64
5, 214916, Note_on_c, 0, 64, 0
5, 214920, Note_on_c, 0, 57, 64
5, 215036, Note_on_c, 0, 57, 0
5, 215040, Note_on_c, 0, 69, 64
5, 215156, Note_on_c, 0, 69, 0
5, 215160, Note_on_c, 0, 67, 64
5, 215276, Note_on_c, 0, 67, 0
5, 215280, Note_on_c, 0, 69, 64
5, 215516, Note_on_c, 0, 69, 0
5, 216000, Note_on_c, 0, 69, 64
5, 216116, Note_on_c, 0, 69, 0
5, 216120, Note_on_c, 0, 67, 64
5, 216236, Note_on_c, 0, 67, 0
5, 216240, Note_on_c, 0, 69, 64
5, 216476, Note_on_c, 0, 69, 0
5, 216960, Note_on_c, 0, 74, 64
5, 217076, Note_on_c, 0, 74, 0
5, 217080, Note_on_c, 0, 72, 64
5, 217196, Note_on_c, 0, 72, 0
5, 217200, Note_on_c, 0, 74, 64
5, 217436, Note_on_c, 0, 74, 0
5, 217920, Note_on_c, 0, 74, 64
5, 218036, Note_on_c, 0, 74, 0
5, 218040, Note_on_c, 0, 72, 64
5, 218156, Note_on_c, 0, 72, 0
5, 218160, Note_on_c, 0, 74, 64
5, 218396, Note_on_c, 0, 74, 0
5, 219360, Note_on_c, 0, 70, 64
5, 219476, Note_on_c, 0, 70, 0
5, 219480, Note_on_c, 0, 72, 64
5, 219596, Note_on_c, 0, 72, 0
5, 219600, Note_on_c, 0, 70, 64
5, 219836, Note_on_c, 0, 70, 0
5, 220320, Note_on_c, 0, 70, 64
5, 220436, Note_on_c, 0, 70, 0
5, 220440, Note_on_c, 0, 72, 64
5, 220556, Note_on_c, 0, 72, 0
5, 220560, Note_on_c, 0, 70, 64
5, 220796, Note_on_c, 0, 70, 0
5, 221280, Note_on_c, 0, 70, 64
5, 221396, Note_on_c, 0, 70, 0
5, 221400, Note_on_c, 0, 72, 64
5, 221516, Note_on_c, 0, 72, 0
5, 221520, Note_on_c, 0, 70, 64
5, 221756, Note_on_c, 0, 70, 0
5, 222240, Note_on_c, 0, 70, 64
5, 222356, Note_on_c, 0, 70, 0
5, 222360, Note_on_c, 0, 72, 64
5, 222476, Note_on_c, 0, 72, 0
5, 222480, Note_on_c, 0, 70, 64
5, 222716, Note_on_c, 0, 70, 0
5, 223200, Note_on_c, 0, 70, 64
5, 223316, Note_on_c, 0, 70, 0
5, 223320, Note_on_c, 0, 72, 64
5, 223436, Note_on_c, 0, 72, 0
5, 223440, Note_on_c, 0, 70, 64
5, 223676, Note_on_c, 0, 70, 0
5, 224160, Note_on_c, 0, 70, 64
5, 224276, Note_on_c, 0, 70, 0
5, 224280, Note_on_c, 0, 72, 64
5, 224396, Note_on_c, 0, 72, 0
5, 224400, Note_on_c, 0, 70, 64
5, 224636, Note_on_c, 0, 70, 0
5, 225120, Note_on_c, 0, 70, 64
5, 225236, Note_on_c, 0, 70, 0
5, 225240, Note_on_c, 0, 72, 64
5, 225356, Note_on_c, 0, 72, 0
5, 225360, Note_on_c, 0, 70, 64
5, 225596, Note_on_c, 0, 70, 0
5, 226080, Note_on_c, 0, 70, 64
5, 226196, Note_on_c, 0, 70, 0
5, 226200, Note_on_c, 0, 72, 64
5, 226316, Note_on_c, 0, 72, 0
5, 226320, Note_on_c, 0, 70, 64
5, 226556, Note_on_c, 0, 70, 0
5, 227040, Note_on_c, 0, 69, 64
5, 227156, Note_on_c, 0, 69, 0
5, 227160, Note_on_c, 0, 70, 64
5, 227276, Note_on_c, 0, 70, 0
5, 227280, Note_on_c, 0, 69, 64
5, 227516, Note_on_c, 0, 69, 0
5, 228000, Note_on_c, 0, 69, 64
5, 228116, Note_on_c, 0, 69, 0
5, 228120, Note_on_c, 0, 70, 64
5, 228236, Note_on_c, 0, 70, 0
5, 228240, Note_on_c, 0, 69, 64
5, 228476, Note_on_c, 0, 69, 0
5, 228480, Note_on_c, 0, 70, 64
5, 228716, Note_on_c, 0, 70, 0
5, 228720, Note_on_c, 0, 67, 64
5, 228836, Note_on_c, 0, 67, 0
5, 228840, Note_on_c, 0, 66, 64
5, 228956, Note_on_c, 0, 66, 0
5, 228960, Note_on_c, 0, 67, 64
5, 229196, Note_on_c, 0, 67, 0
5, 230160, Note_on_c, 0, 67, 64
5, 230396, Note_on_c, 0, 67, 0
5, 230400, Note_on_c, 0, 69, 64
5, 230636, Note_on_c, 0, 69, 0
5, 230640, Note_on_c, 0, 65, 64
5, 230756, Note_on_c, 0, 65, 0
5, 230760, Note_on_c, 0, 64, 64
5, 230876, Note_on_c, 0, 64, 0
5, 230880, Note_on_c, 0, 65, 64
5, 231116, Note_on_c, 0, 65, 0
5, 232080, Note_on_c, 0, 65, 64
5, 232316, Note_on_c, 0, 65, 0
5, 232320, Note_on_c, 0, 67, 64
5, 232556, Note_on_c, 0, 67, 0
5, 232560, Note_on_c, 0, 63, 64
5, 232676, Note_on_c, 0, 63, 0
5, 232680, Note_on_c, 0, 62, 64
5, 232796, Note_on_c, 0, 62, 0
5, 232800, Note_on_c, 0, 63, 64
5, 233036, Note_on_c, 0, 63, 0
5, 234000, Note_on_c, 0, 67, 64
5, 234236, Note_on_c, 0, 67, 0
5, 234240, Note_on_c, 0, 69, 64
5, 234356, Note_on_c, 0, 69, 0
5, 234360, Note_on_c, 0, 66, 64
5, 234476, Note_on_c, 0, 66, 0
5, 234480, Note_on_c, 0, 62, 64
5, 234596, Note_on_c, 0, 62, 0
5, 234600, Note_on_c, 0, 64, 64
5, 234716, Note_on_c, 0, 64, 0
5, 234720, Note_on_c, 0, 66, 64
5, 234836, Note_on_c, 0, 66, 0
5, 234840, Note_on_c, 0, 67, 64
5, 234956, Note_on_c, 0, 67, 0
5, 234960, Note_on_c, 0, 69, 64
5, 235076, Note_on_c, 0, 69, 0
5, 235080, Note_on_c, 0, 70, 64
5, 235196, Note_on_c, 0, 70, 0
5, 235200, Note_on_c, 0, 72, 64
5, 235676, Note_on_c, 0, 72, 0
5, 235920, Note_on_c, 0, 69, 64
5, 236156, Note_on_c, 0, 69, 0
5, 236160, Note_on_c, 0, 66, 64
5, 236636, Note_on_c, 0, 66, 0
5, 236880, Note_on_c, 0, 69, 64
5, 237116, Note_on_c, 0, 69, 0
5, 237120, Note_on_c, 0, 62, 64
5, 237596, Note_on_c, 0, 62, 0
5, 237840, Note_on_c, 0, 72, 64
5, 237956, Note_on_c, 0, 72, 0
5, 237960, Note_on_c, 0, 70, 64
5, 238076, Note_on_c, 0, 70, 0
5, 238080, Note_on_c, 0, 72, 64
5, 238316, Note_on_c, 0, 72, 0
5, 238800, Note_on_c, 0, 69, 64
5, 238916, Note_on_c, 0, 69, 0
5, 238920, Note_on_c, 0, 67, 64
5, 239036, Note_on_c, 0, 67, 0
5, 239040, Note_on_c, 0, 66, 64
5, 239276, Note_on_c, 0, 66, 0
5, 239760, Note_on_c, 0, 74, 64
5, 239996, Note_on_c, 0, 74, 0
5, 240000, Note_on_c, 0, 75, 64
5, 240356, Note_on_c, 0, 75, 0
5, 240360, Note_on_c, 0, 74, 64
5, 240476, Note_on_c, 0, 74, 0
5, 240480, Note_on_c, 0, 72, 64
5, 240596, Note_on_c, 0, 72, 0
5, 240600, Note_on_c, 0, 70, 64
5, 240716, Note_on_c, 0, 70, 0
5, 240720, Note_on_c, 0, 69, 64
5, 240836, Note_on_c, 0, 69, 0
5, 240840, Note_on_c, 0, 67, 64
5, 240956, Note_on_c, 0, 67, 0
5, 240960, Note_on_c, 0, 69, 64
5, 241196, Note_on_c, 0, 69, 0
5, 241200, Note_on_c, 0, 62, 64
5, 241436, Note_on_c, 0, 62, 0
5, 241440, Note_on_c, 0, 60, 64
5, 241676, Note_on_c, 0, 60, 0
5, 241680, Note_on_c, 0, 59, 64
5, 241796, Note_on_c, 0, 59, 0
5, 241800, Note_on_c, 0, 57, 64
5, 241916, Note_on_c, 0, 57, 0
5, 241920, Note_on_c, 0, 59, 64
5, 242156, Note_on_c, 0, 59, 0
5, 242160, Note_on_c, 0, 62, 64
5, 242396, Note_on_c, 0, 62, 0
5, 242400, Note_on_c, 0, 59, 64
5, 242636, Note_on_c, 0, 59, 0
5, 242640, Note_on_c, 0, 55, 64
5, 242876, Note_on_c, 0, 55, 0
5, 242880, Note_on_c, 0, 59, 64
5, 243116, Note_on_c, 0, 59, 0
5, 243120, Note_on_c, 0, 62, 64
5, 243356, Note_on_c, 0, 62, 0
5, 243360, Note_on_c, 0, 59, 64
5, 243596, Note_on_c, 0, 59, 0
5, 243600, Note_on_c, 0, 55, 64
5, 243836, Note_on_c, 0, 55, 0
5, 243840, Note_on_c, 0, 59, 64
5, 244076, Note_on_c, 0, 59, 0
5, 244080, Note_on_c, 0, 62, 64
5, 244316, Note_on_c, 0, 62, 0
5, 244320, Note_on_c, 0, 67, 64
5, 244436, Note_on_c, 0, 67, 0
5, 244440, Note_on_c, 0, 71, 64
5, 244556, Note_on_c, 0, 71, 0
5, 244560, Note_on_c, 0, 69, 64
5, 244676, Note_on_c, 0, 69, 0
5, 244680, Note_on_c, 0, 67, 64
5, 244796, Note_on_c, 0, 67, 0
5, 244800, Note_on_c, 0, 66, 64
5, 245036, Note_on_c, 0, 66, 0
5, 245040, Note_on_c, 0, 62, 64
5, 245276, Note_on_c, 0, 62, 0
5, 245520, Note_on_c, 0, 71, 64
5, 245756, Note_on_c, 0, 71, 0
5, 245760, Note_on_c, 0, 66, 64
5, 245996, Note_on_c, 0, 66, 0
5, 246000, Note_on_c, 0, 62, 64
5, 246236, Note_on_c, 0, 62, 0
5, 246480, Note_on_c, 0, 69, 64
5, 246716, Note_on_c, 0, 69, 0
5, 246720, Note_on_c, 0, 66, 64
5, 246956, Note_on_c, 0, 66, 0
5, 246960, Note_on_c, 0, 62, 64
5, 247196, Note_on_c, 0, 62, 0
5, 247440, Note_on_c, 0, 69, 64
5, 247676, Note_on_c, 0, 69, 0
5, 247680, Note_on_c, 0, 62, 64
5, 247916, Note_on_c, 0, 62, 0
5, 247920, Note_on_c, 0, 60, 64
5, 248036, Note_on_c, 0, 60, 0
5, 248040, Note_on_c, 0, 59, 64
5, 248156, Note_on_c, 0, 59, 0
5, 248160, Note_on_c, 0, 60, 64
5, 248396, Note_on_c, 0, 60, 0
5, 248400, Note_on_c, 0, 59, 64
5, 248516, Note_on_c, 0, 59, 0
5, 248520, Note_on_c, 0, 57, 64
5, 248636, Note_on_c, 0, 57, 0
5, 248640, Note_on_c, 0, 55, 64
5, 248876, Note_on_c, 0, 55, 0
5, 248880, Note_on_c, 0, 67, 64
5, 249116, Note_on_c, 0, 67, 0
5, 249120, Note_on_c, 0, 67, 64
5, 249356, Note_on_c, 0, 67, 0
5, 249360, Note_on_c, 0, 55, 64
5, 249596, Note_on_c, 0, 55, 0
5, 249600, Note_on_c, 0, 55, 64
5, 249836, Note_on_c, 0, 55, 0
5, 249840, Note_on_c, 0, 67, 64
5, 250076, Note_on_c, 0, 67, 0
5, 250080, Note_on_c, 0, 67, 64
5, 250316, Note_on_c, 0, 67, 0
5, 250320, Note_on_c, 0, 55, 64
5, 250556, Note_on_c, 0, 55, 0
5, 250560, Note_on_c, 0, 55, 64
5, 250796, Note_on_c, 0, 55, 0
5, 250800, Note_on_c, 0, 67, 64
5, 251036, Note_on_c, 0, 67, 0
5, 251040, Note_on_c, 0, 67, 64
5, 251276, Note_on_c, 0, 67, 0
5, 251280, Note_on_c, 0, 55, 64
5, 251516, Note_on_c, 0, 55, 0
5, 251520, Note_on_c, 0, 55, 64
5, 251756, Note_on_c, 0, 55, 0
5, 251760, Note_on_c, 0, 67, 64
5, 251996, Note_on_c, 0, 67, 0
5, 252000, Note_on_c, 0, 66, 64
5, 252236, Note_on_c, 0, 66, 0
5, 252240, Note_on_c, 0, 67, 64
5, 252476, Note_on_c, 0, 67, 0
5, 252480, Note_on_c, 0, 69, 64
5, 252716, Note_on_c, 0, 69, 0
5, 252720, Note_on_c, 0, 71, 64
5, 252956, Note_on_c, 0, 71, 0
5, 252960, Note_on_c, 0, 72, 64
5, 253196, Note_on_c, 0, 72, 0
5, 253200, Note_on_c, 0, 74, 64
5, 253436, Note_on_c, 0, 74, 0
5, 253440, Note_on_c, 0, 71, 64
5, 253676, Note_on_c, 0, 71, 0
5, 253680, Note_on_c, 0, 69, 64
5, 253796, Note_on_c, 0, 69, 0
5, 253800, Note_on_c, 0, 67, 64
5, 253916, Note_on_c, 0, 67, 0
5, 253920, Note_on_c, 0, 62, 64
5, 254156, Note_on_c, 0, 62, 0
5, 254160, Note_on_c, 0, 66, 64
5, 254396, Note_on_c, 0, 66, 0
5, 254400, Note_on_c, 0, 67, 64
5, 254636, Note_on_c, 0, 67, 0
5, 255600, Note_on_c, 0, 62, 64
5, 255716, Note_on_c, 0, 62, 0
5, 255720, Note_on_c, 0, 60, 64
5, 255836, Note_on_c, 0, 60, 0
5, 255840, Note_on_c, 0, 62, 64
5, 256076, Note_on_c, 0, 62, 0
5, 256080, Note_on_c, 0, 67, 64
5, 256196, Note_on_c, 0, 67, 0
5, 256200, Note_on_c, 0, 66, 64
5, 256316, Note_on_c, 0, 66, 0
5, 256320, Note_on_c, 0, 67, 64
5, 256556, Note_on_c, 0, 67, 0
5, 258000, Note_on_c, 0, 62, 64
5, 258236, Note_on_c, 0, 62, 0
5, 258240, Note_on_c, 0, 67, 64
5, 258476, Note_on_c, 0, 67, 0
5, 258480, Note_on_c, 0, 66, 64
5, 258596, Note_on_c, 0, 66, 0
5, 258600, Note_on_c, 0, 64, 64
5, 258716, Note_on_c, 0, 64, 0
5, 258720, Note_on_c, 0, 62, 64
5, 258836, Note_on_c, 0, 62, 0
5, 258840, Note_on_c, 0, 60, 64
5, 258956, Note_on_c, 0, 60, 0
5, 258960, Note_on_c, 0, 59, 64
5, 259076, Note_on_c, 0, 59, 0
5, 259080, Note_on_c, 0, 57, 64
5, 259196, Note_on_c, 0, 57, 0
5, 259200, Note_on_c, 0, 55, 64
5, 259316, Note_on_c, 0, 55, 0
5, 259320, Note_on_c, 0, 59, 64
5, 259436, Note_on_c, 0, 59, 0
5, 259440, Note_on_c, 0, 60, 64
5, 259556, Note_on_c, 0, 60, 0
5, 259560, Note_on_c, 0, 62, 64
5, 259676, Note_on_c, 0, 62, 0
5, 259680, Note_on_c, 0, 64, 64
5, 259796, Note_on_c, 0, 64, 0
5, 259800, Note_on_c, 0, 66, 64
5, 259916, Note_on_c, 0, 66, 0
5, 259920, Note_on_c, 0, 67, 64
5, 260036, Note_on_c, 0, 67, 0
5, 260040, Note_on_c, 0, 69, 64
5, 260156, Note_on_c, 0, 69, 0
5, 260160, Note_on_c, 0, 71, 64
5, 260276, Note_on_c, 0, 71, 0
5, 260280, Note_on_c, 0, 67, 64
5, 260396, Note_on_c, 0, 67, 0
5, 260400, Note_on_c, 0, 66, 64
5, 260516, Note_on_c, 0, 66, 0
5, 260520, Note_on_c, 0, 64, 64
5, 260636, Note_on_c, 0, 64, 0
5, 260640, Note_on_c, 0, 62, 64
5, 260756, Note_on_c, 0, 62, 0
5, 260760, Note_on_c, 0, 60, 64
5, 260876, Note_on_c, 0, 60, 0
5, 260880, Note_on_c, 0, 59, 64
5, 260996, Note_on_c, 0, 59, 0
5, 261000, Note_on_c, 0, 57, 64
5, 261116, Note_on_c, 0, 57, 0
5, 261120, Note_on_c, 0, 59, 64
5, 261356, Note_on_c, 0, 59, 0
5, 261360, Note_on_c, 0, 57, 64
5, 261476, Note_on_c, 0, 57, 0
5, 261480, Note_on_c, 0, 55, 64
5, 261596, Note_on_c, 0, 55, 0
5, 261600, Note_on_c, 0, 62, 64
5, 261836, Note_on_c, 0, 62, 0
5, 261840, Note_on_c, 0, 50, 64
5, 262076, Note_on_c, 0, 50, 0
5, 262080, Note_on_c, 0, 55, 64
5, 263036, Note_on_c, 0, 55, 0
5, 263040, Note_on_c, 0, 69, 64
5, 263996, Note_on_c, 0, 69, 0
5, 264000, Note_on_c, 0, 63, 64
5, 264956, Note_on_c, 0, 63, 0
5, 264960, Note_on_c, 0, 67, 64
5, 265196, Note_on_c, 0, 67, 0
5, 265200, Note_on_c, 0, 71, 64
5, 265436, Note_on_c, 0, 71, 0
5, 265440, Note_on_c, 0, 74, 64
5, 265676, Note_on_c, 0, 74, 0
5, 265680, Note_on_c, 0, 66, 64
5, 265916, Note_on_c, 0, 66, 0
5, 265920, Note_on_c, 0, 69, 64
5, 266156, Note_on_c, 0, 69, 0
5, 266160, Note_on_c, 0, 74, 64
5, 266396, Note_on_c, 0, 74, 0
5, 266400, Note_on_c, 0, 67, 64
5, 266636, Note_on_c, 0, 67, 0
5, 266640, Note_on_c, 0, 71, 64
5, 266876, Note_on_c, 0, 71, 0
5, 266880, Note_on_c, 0, 74, 64
5, 267116, Note_on_c, 0, 74, 0
5, 267120, Note_on_c, 0, 62, 64
5, 267356, Note_on_c, 0, 62, 0
5, 267360, Note_on_c, 0, 69, 64
5, 267596, Note_on_c, 0, 69, 0
5, 267600, Note_on_c, 0, 74, 64
5, 267836, Note_on_c, 0, 74, 0
5, 267840, Note_on_c, 0, 67, 64
5, 267956, Note_on_c, 0, 67, 0
5, 267960, Note_on_c, 0, 66, 64
5, 268076, Note_on_c, 0, 66, 0
5, 268080, Note_on_c, 0, 67, 64
5, 268196, Note_on_c, 0, 67, 0
5, 268200, Note_on_c, 0, 69, 64
5, 268316, Note_on_c, 0, 69, 0
5, 268320, Note_on_c, 0, 71, 64
5, 268436, Note_on_c, 0, 71, 0
5, 268440, Note_on_c, 0, 72, 64
5, 268556, Note_on_c, 0, 72, 0
5, 268560, Note_on_c, 0, 74, 64
5, 268676, Note_on_c, 0, 74, 0
5, 268680, Note_on_c, 0, 76, 64
5, 268796, Note_on_c, 0, 76, 0
5, 268800, Note_on_c, 0, 74, 64
5, 268916, Note_on_c, 0, 74, 0
5, 268920, Note_on_c, 0, 72, 64
5, 269036, Note_on_c, 0, 72, 0
5, 269040, Note_on_c, 0, 71, 64
5, 269156, Note_on_c, 0, 71, 0
5, 269160, Note_on_c, 0, 69, 64
5, 269276, Note_on_c, 0, 69, 0
5, 269280, Note_on_c, 0, 67, 64
5, 269516, Note_on_c, 0, 67, 0
5, 269520, Note_on_c, 0, 71, 64
5, 269756, Note_on_c, 0, 71, 0
5, 269760, Note_on_c, 0, 62, 64
5, 269996, Note_on_c, 0, 62, 0
5, 270000, Note_on_c, 0, 69, 64
5, 270236, Note_on_c, 0, 69, 0
5, 270240, Note_on_c, 0, 72, 64
5, 270476, Note_on_c, 0, 72, 0
5, 270480, Note_on_c, 0, 62, 64
5, 270716, Note_on_c, 0, 62, 0
5, 270720, Note_on_c, 0, 71, 64
5, 270956, Note_on_c, 0, 71, 0
5, 270960, Note_on_c, 0, 71, 64
5, 271196, Note_on_c, 0, 71, 0
5, 271200, Note_on_c, 0, 71, 64
5, 271436, Note_on_c, 0, 71, 0
5, 271440, Note_on_c, 0, 71, 64
5, 271676, Note_on_c, 0, 71, 0
5, 271680, Note_on_c, 0, 71, 64
5, 271916, Note_on_c, 0, 71, 0
5, 271920, Note_on_c, 0, 71, 64
5, 272156, Note_on_c, 0, 71, 0
5, 272160, Note_on_c, 0, 69, 64
5, 272396, Note_on_c, 0, 69, 0
5, 272400, Note_on_c, 0, 69, 64
5, 272636, Note_on_c, 0, 69, 0
5, 272640, Note_on_c, 0, 69, 64
5, 272876, Note_on_c, 0, 69, 0
5, 272880, Note_on_c, 0, 69, 64
5, 273116, Note_on_c, 0, 69, 0
5, 273120, Note_on_c, 0, 69, 64
5, 273356, Note_on_c, 0, 69, 0
5, 273360, Note_on_c, 0, 69, 64
5, 273596, Note_on_c, 0, 69, 0
5, 273600, Note_on_c, 0, 67, 64
5, 273836, Note_on_c, 0, 67, 0
5, 273840, Note_on_c, 0, 67, 64
5, 274076, Note_on_c, 0, 67, 0
5, 274080, Note_on_c, 0, 67, 64
5, 274316, Note_on_c, 0, 67, 0
5, 274320, Note_on_c, 0, 67, 64
5, 274556, Note_on_c, 0, 67, 0
5, 274560, Note_on_c, 0, 67, 64
5, 274796, Note_on_c, 0, 67, 0
5, 274800, Note_on_c, 0, 67, 64
5, 275036, Note_on_c, 0, 67, 0
5, 275040, Note_on_c, 0, 66, 64
5, 275156, Note_on_c, 0, 66, 0
5, 275160, Note_on_c, 0, 64, 64
5, 275276, Note_on_c, 0, 64, 0
5, 275280, Note_on_c, 0, 62, 64
5, 275396, Note_on_c, 0, 62, 0
5, 275400, Note_on_c, 0, 64, 64
5, 275516, Note_on_c, 0, 64, 0
5, 275520, Note_on_c, 0, 66, 64
5, 275636, Note_on_c, 0, 66, 0
5, 275640, Note_on_c, 0, 67, 64
5, 275756, Note_on_c, 0, 67, 0
5, 275760, Note_on_c, 0, 69, 64
5, 275876, Note_on_c, 0, 69, 0
5, 275880, Note_on_c, 0, 71, 64
5, 275996, Note_on_c, 0, 71, 0
5, 276000, Note_on_c, 0, 69, 64
5, 276116, Note_on_c, 0, 69, 0
5, 276120, Note_on_c, 0, 67, 64
5, 276236, Note_on_c, 0, 67, 0
5, 276240, Note_on_c, 0, 66, 64
5, 276356, Note_on_c, 0, 66, 0
5, 276360, Note_on_c, 0, 64, 64
5, 276476, Note_on_c, 0, 64, 0
5, 276480, Note_on_c, 0, 66, 64
5, 276716, Note_on_c, 0, 66, 0
5, 276720, Note_on_c, 0, 69, 64
5, 276956, Note_on_c, 0, 69, 0
5, 276960, Note_on_c, 0, 74, 64
5, 277196, Note_on_c, 0, 74, 0
5, 277200, Note_on_c, 0, 73, 64
5, 277316, Note_on_c, 0, 73, 0
5, 277320, Note_on_c, 0, 74, 64
5, 277436, Note_on_c, 0, 74, 0
5, 277440, Note_on_c, 0, 73, 64
5, 277556, Note_on_c, 0, 73, 0
5, 277560, Note_on_c, 0, 71, 64
5, 277676, Note_on_c, 0, 71, 0
5, 277680, Note_on_c, 0, 69, 64
5, 277796, Note_on_c, 0, 69, 0
5, 277800, Note_on_c, 0, 67, 64
5, 277916, Note_on_c, 0, 67, 0
5, 277920, Note_on_c, 0, 66, 64
5, 278156, Note_on_c, 0, 66, 0
5, 278160, Note_on_c, 0, 62, 64
5, 278396, Note_on_c, 0, 62, 0
5, 278400, Note_on_c, 0, 69, 64
5, 278636, Note_on_c, 0, 69, 0
5, 278640, Note_on_c, 0, 69, 64
5, 278876, Note_on_c, 0, 69, 0
5, 278880, Note_on_c, 0, 69, 64
5, 279116, Note_on_c, 0, 69, 0
5, 279120, Note_on_c, 0, 69, 64
5, 279356, Note_on_c, 0, 69, 0
5, 279360, Note_on_c, 0, 69, 64
5, 279596, Note_on_c, 0, 69, 0
5, 279600, Note_on_c, 0, 69, 64
5, 279836, Note_on_c, 0, 69, 0
5, 279840, Note_on_c, 0, 69, 64
5, 280076, Note_on_c, 0, 69, 0
5, 280080, Note_on_c, 0, 69, 64
5, 280316, Note_on_c, 0, 69, 0
5, 280320, Note_on_c, 0, 69, 64
5, 280556, Note_on_c, 0, 69, 0
5, 280560, Note_on_c, 0, 69, 64
5, 280796, Note_on_c, 0, 69, 0
5, 280800, Note_on_c, 0, 69, 64
5, 281036, Note_on_c, 0, 69, 0
5, 281040, Note_on_c, 0, 74, 64
5, 281276, Note_on_c, 0, 74, 0
5, 281280, Note_on_c, 0, 69, 64
5, 281516, Note_on_c, 0, 69, 0
5, 281520, Note_on_c, 0, 71, 64
5, 281636, Note_on_c, 0, 71, 0
5, 281640, Note_on_c, 0, 73, 64
5, 281756, Note_on_c, 0, 73, 0
5, 281760, Note_on_c, 0, 71, 64
5, 281876, Note_on_c, 0, 71, 0
5, 281880, Note_on_c, 0, 69, 64
5, 281996, Note_on_c, 0, 69, 0
5, 282000, Note_on_c, 0, 68, 64
5, 282116, Note_on_c, 0, 68, 0
5, 282120, Note_on_c, 0, 66, 64
5, 282236, Note_on_c, 0, 66, 0
5, 282240, Note_on_c, 0, 68, 64
5, 282476, Note_on_c, 0, 68, 0
5, 282480, Note_on_c, 0, 73, 64
5, 282716, Note_on_c, 0, 73, 0
5, 282720, Note_on_c, 0, 68, 64
5, 282956, Note_on_c, 0, 68, 0
5, 282960, Note_on_c, 0, 69, 64
5, 283076, Note_on_c, 0, 69, 0
5, 283080, Note_on_c, 0, 71, 64
5, 283196, Note_on_c, 0, 71, 0
5, 283200, Note_on_c, 0, 69, 64
5, 283316, Note_on_c, 0, 69, 0
5, 283320, Note_on_c, 0, 68, 64
5, 283436, Note_on_c, 0, 68, 0
5, 283440, Note_on_c, 0, 66, 64
5, 283556, Note_on_c, 0, 66, 0
5, 283560, Note_on_c, 0, 64, 64
5, 283676, Note_on_c, 0, 64, 0
5, 283680, Note_on_c, 0, 66, 64
5, 283916, Note_on_c, 0, 66, 0
5, 283920, Note_on_c, 0, 71, 64
5, 284156, Note_on_c, 0, 71, 0
5, 284160, Note_on_c, 0, 66, 64
5, 284396, Note_on_c, 0, 66, 0
5, 284400, Note_on_c, 0, 68, 64
5, 284636, Note_on_c, 0, 68, 0
5, 284640, Note_on_c, 0, 71, 64
5, 284876, Note_on_c, 0, 71, 0
5, 284880, Note_on_c, 0, 64, 64
5, 285116, Note_on_c, 0, 64, 0
5, 285120, Note_on_c, 0, 69, 64
5, 285356, Note_on_c, 0, 69, 0
5, 285360, Note_on_c, 0, 64, 64
5, 285596, Note_on_c, 0, 64, 0
5, 285600, Note_on_c, 0, 61, 64
5, 285836, Note_on_c, 0, 61, 0
5, 285840, Note_on_c, 0, 69, 64
5, 286076, Note_on_c, 0, 69, 0
5, 286080, Note_on_c, 0, 66, 64
5, 286316, Note_on_c, 0, 66, 0
5, 286320, Note_on_c, 0, 62, 64
5, 286556, Note_on_c, 0, 62, 0
5, 286560, Note_on_c, 0, 67, 64
5, 286796, Note_on_c, 0, 67, 0
5, 286800, Note_on_c, 0, 64, 64
5, 287036, Note_on_c, 0, 64, 0
5, 287040, Note_on_c, 0, 61, 64
5, 287276, Note_on_c, 0, 61, 0
5, 287280, Note_on_c, 0, 67, 64
5, 287516, Note_on_c, 0, 67, 0
5, 287520, Note_on_c, 0, 62, 64
5, 287756, Note_on_c, 0, 62, 0
5, 287760, Note_on_c, 0, 59, 64
5, 287996, Note_on_c, 0, 59, 0
5, 288000, Note_on_c, 0, 64, 64
5, 288236, Note_on_c, 0, 64, 0
5, 288240, Note_on_c, 0, 61, 64
5, 288476, Note_on_c, 0, 61, 0
5, 288480, Note_on_c, 0, 57, 64
5, 288716, Note_on_c, 0, 57, 0
5, 288720, Note_on_c, 0, 66, 64
5, 288956, Note_on_c, 0, 66, 0
5, 288960, Note_on_c, 0, 62, 64
5, 289196, Note_on_c, 0, 62, 0
5, 289200, Note_on_c, 0, 57, 64
5, 289436, Note_on_c, 0, 57, 0
5, 289440, Note_on_c, 0, 61, 64
5, 289556, Note_on_c, 0, 61, 0
5, 289560, Note_on_c, 0, 64, 64
5, 289676, Note_on_c, 0, 64, 0
5, 289680, Note_on_c, 0, 57, 64
5, 289796, Note_on_c, 0, 57, 0
5, 289800, Note_on_c, 0, 64, 64
5, 289916, Note_on_c, 0, 64, 0
5, 289920, Note_on_c, 0, 61, 64
5, 290036, Note_on_c, 0, 61, 0
5, 290040, Note_on_c, 0, 64, 64
5, 290156, Note_on_c, 0, 64, 0
5, 290160, Note_on_c, 0, 62, 64
5, 290276, Note_on_c, 0, 62, 0
5, 290280, Note_on_c, 0, 66, 64
5, 290396, Note_on_c, 0, 66, 0
5, 290400, Note_on_c, 0, 57, 64
5, 290516, Note_on_c, 0, 57, 0
5, 290520, Note_on_c, 0, 66, 64
5, 290636, Note_on_c, 0, 66, 0
5, 290640, Note_on_c, 0, 62, 64
5, 290756, Note_on_c, 0, 62, 0
5, 290760, Note_on_c, 0, 66, 64
5, 290876, Note_on_c, 0, 66, 0
5, 290880, Note_on_c, 0, 64, 64
5, 290996, Note_on_c, 0, 64, 0
5, 291000, Note_on_c, 0, 67, 64
5, 291116, Note_on_c, 0, 67, 0
5, 291120, Note_on_c, 0, 57, 64
5, 291236, Note_on_c, 0, 57, 0
5, 291240, Note_on_c, 0, 67, 64
5, 291356, Note_on_c, 0, 67, 0
5, 291360, Note_on_c, 0, 64, 64
5, 291476, Note_on_c, 0, 64, 0
5, 291480, Note_on_c, 0, 67, 64
5, 291596, Note_on_c, 0, 67, 0
5, 291600, Note_on_c, 0, 64, 64
5, 291716, Note_on_c, 0, 64, 0
5, 291720, Note_on_c, 0, 67, 64
5, 291836, Note_on_c, 0, 67, 0
5, 291840, Note_on_c, 0, 57, 64
5, 291956, Note_on_c, 0, 57, 0
5, 291960, Note_on_c, 0, 67, 64
5, 292076, Note_on_c, 0, 67, 0
5, 292080, Note_on_c, 0, 64, 64
5, 292196, Note_on_c, 0, 64, 0
5, 292200, Note_on_c, 0, 67, 64
5, 292316, Note_on_c, 0, 67, 0
5, 292320, Note_on_c, 0, 66, 64
5, 292556, Note_on_c, 0, 66, 0
5, 292560, Note_on_c, 0, 62, 64
5, 292796, Note_on_c, 0, 62, 0
5, 292800, Note_on_c, 0, 62, 64
5, 293036, Note_on_c, 0, 62, 0
5, 293040, Note_on_c, 0, 62, 64
5, 293276, Note_on_c, 0, 62, 0
5, 293280, Note_on_c, 0, 62, 64
5, 293516, Note_on_c, 0, 62, 0
5, 293520, Note_on_c, 0, 62, 64
5, 293756, Note_on_c, 0, 62, 0
5, 293760, Note_on_c, 0, 62, 64
5, 293996, Note_on_c, 0, 62, 0
5, 294000, Note_on_c, 0, 62, 64
5, 294236, Note_on_c, 0, 62, 0
5, 294240, Note_on_c, 0, 62, 64
5, 294476, Note_on_c, 0, 62, 0
5, 294480, Note_on_c, 0, 62, 64
5, 294716, Note_on_c, 0, 62, 0
5, 294720, Note_on_c, 0, 62, 64
5, 294956, Note_on_c, 0, 62, 0
5, 294960, Note_on_c, 0, 62, 64
5, 295196, Note_on_c, 0, 62, 0
5, 295200, Note_on_c, 0, 69, 64
5, 295436, Note_on_c, 0, 69, 0
5, 295440, Note_on_c, 0, 69, 64
5, 295676, Note_on_c, 0, 69, 0
5, 295680, Note_on_c, 0, 69, 64
5, 295916, Note_on_c, 0, 69, 0
5, 295920, Note_on_c, 0, 69, 64
5, 296156, Note_on_c, 0, 69, 0
5, 296160, Note_on_c, 0, 69, 64
5, 296396, Note_on_c, 0, 69, 0
5, 296400, Note_on_c, 0, 69, 64
5, 296636, Note_on_c, 0, 69, 0
5, 296640, Note_on_c, 0, 69, 64
5, 296876, Note_on_c, 0, 69, 0
5, 296880, Note_on_c, 0, 64, 64
5, 296996, Note_on_c, 0, 64, 0
5, 297000, Note_on_c, 0, 66, 64
5, 297116, Note_on_c, 0, 66, 0
5, 297120, Note_on_c, 0, 67, 64
5, 297356, Note_on_c, 0, 67, 0
5, 297360, Note_on_c, 0, 57, 64
5, 297596, Note_on_c, 0, 57, 0
5, 297600, Note_on_c, 0, 64, 64
5, 297836, Note_on_c, 0, 64, 0
5, 297840, Note_on_c, 0, 67, 64
5, 298076, Note_on_c, 0, 67, 0
5, 298080, Note_on_c, 0, 66, 64
5, 299516, Note_on_c, 0, 66, 0
5, 299520, Note_on_c, 0, 67, 64
5, 299756, Note_on_c, 0, 67, 0
5, 299760, Note_on_c, 0, 71, 64
5, 299996, Note_on_c, 0, 71, 0
5, 300000, Note_on_c, 0, 74, 64
5, 300236, Note_on_c, 0, 74, 0
5, 300240, Note_on_c, 0, 66, 64
5, 300476, Note_on_c, 0, 66, 0
5, 300480, Note_on_c, 0, 69, 64
5, 300716, Note_on_c, 0, 69, 0
5, 300720, Note_on_c, 0, 74, 64
5, 300956, Note_on_c, 0, 74, 0
5, 300960, Note_on_c, 0, 67, 64
5, 301196, Note_on_c, 0, 67, 0
5, 301200, Note_on_c, 0, 71, 64
5, 301436, Note_on_c, 0, 71, 0
5, 301440, Note_on_c, 0, 74, 64
5, 301676, Note_on_c, 0, 74, 0
5, 301680, Note_on_c, 0, 62, 64
5, 301916, Note_on_c, 0, 62, 0
5, 301920, Note_on_c, 0, 69, 64
5, 302156, Note_on_c, 0, 69, 0
5, 302160, Note_on_c, 0, 74, 64
5, 302396, Note_on_c, 0, 74, 0
5, 302400, Note_on_c, 0, 67, 64
5, 302516, Note_on_c, 0, 67, 0
5, 302520, Note_on_c, 0, 66, 64
5, 302636, Note_on_c, 0, 66, 0
5, 302640, Note_on_c, 0, 67, 64
5, 302756, Note_on_c, 0, 67, 0
5, 302760, Note_on_c, 0, 69, 64
5, 302876, Note_on_c, 0, 69, 0
5, 302880, Note_on_c, 0, 71, 64
5, 302996, Note_on_c, 0, 71, 0
5, 303000, Note_on_c, 0, 72, 64
5, 303116, Note_on_c, 0, 72, 0
5, 303120, Note_on_c, 0, 74, 64
5, 303236, Note_on_c, 0, 74, 0
5, 303240, Note_on_c, 0, 76, 64
5, 303356, Note_on_c, 0, 76, 0
5, 303360, Note_on_c, 0, 74, 64
5, 303476, Note_on_c, 0, 74, 0
5, 303480, Note_on_c, 0, 72, 64
5, 303596, Note_on_c, 0, 72, 0
5, 303600, Note_on_c, 0, 71, 64
5, 303716, Note_on_c, 0, 71, 0
5, 303720, Note_on_c, 0, 69, 64
5, 303836, Note_on_c, 0, 69, 0
5, 303840, Note_on_c, 0, 67, 64
5, 304076, Note_on_c, 0, 67, 0
5, 304080, Note_on_c, 0, 71, 64
5, 304316, Note_on_c, 0, 71, 0
5, 304320, Note_on_c, 0, 62, 64
5, 304556, Note_on_c, 0, 62, 0
5, 304560, Note_on_c, 0, 69, 64
5, 304796, Note_on_c, 0, 69, 0
5, 304800, Note_on_c, 0, 72, 64
5, 305036, Note_on_c, 0, 72, 0
5, 305040, Note_on_c, 0, 62, 64
5, 305276, Note_on_c, 0, 62, 0
5, 305280, Note_on_c, 0, 71, 64
5, 305516, Note_on_c, 0, 71, 0
5, 305520, Note_on_c, 0, 71, 64
5, 305756, Note_on_c, 0, 71, 0
5, 305760, Note_on_c, 0, 71, 64
5, 305996, Note_on_c, 0, 71, 0
5, 306000, Note_on_c, 0, 71, 64
5, 306236, Note_on_c, 0, 71, 0
5, 306240, Note_on_c, 0, 71, 64
5, 306476, Note_on_c, 0, 71, 0
5, 306480, Note_on_c, 0, 71, 64
5, 306716, Note_on_c, 0, 71, 0
5, 306720, Note_on_c, 0, 69, 64
5, 306956, Note_on_c, 0, 69, 0
5, 306960, Note_on_c, 0, 69, 64
5, 307196, Note_on_c, 0, 69, 0
5, 307200, Note_on_c, 0, 69, 64
5, 307436, Note_on_c, 0, 69, 0
5, 307440, Note_on_c, 0, 69, 64
5, 307676, Note_on_c, 0, 69, 0
5, 307680, Note_on_c, 0, 69, 64
5, 307916, Note_on_c, 0, 69, 0
5, 307920, Note_on_c, 0, 69, 64
5, 308156, Note_on_c, 0, 69, 0
5, 308160, Note_on_c, 0, 67, 64
5, 308396, Note_on_c, 0, 67, 0
5, 308400, Note_on_c, 0, 67, 64
5, 308636, Note_on_c, 0, 67, 0
5, 308640, Note_on_c, 0, 67, 64
5, 308876, Note_on_c, 0, 67, 0
5, 308880, Note_on_c, 0, 67, 64
5, 309116, Note_on_c, 0, 67, 0
5, 309120, Note_on_c, 0, 67, 64
5, 309356, Note_on_c, 0, 67, 0
5, 309360, Note_on_c, 0, 67, 64
5, 309596, Note_on_c, 0, 67, 0
5, 309600, Note_on_c, 0, 66, 64
5, 309716, Note_on_c, 0, 66, 0
5, 309720, Note_on_c, 0, 64, 64
5, 309836, Note_on_c, 0, 64, 0
5, 309840, Note_on_c, 0, 62, 64
5, 309956, Note_on_c, 0, 62, 0
5, 309960, Note_on_c, 0, 64, 64
5, 310076, Note_on_c, 0, 64, 0
5, 310080, Note_on_c, 0, 66, 64
5, 310196, Note_on_c, 0, 66, 0
5, 310200, Note_on_c, 0, 67, 64
5, 310316, Note_on_c, 0, 67, 0
5, 310320, Note_on_c, 0, 69, 64
5, 310436, Note_on_c, 0, 69, 0
5, 310440, Note_on_c, 0, 71, 64
5, 310556, Note_on_c, 0, 71, 0
5, 310560, Note_on_c, 0, 69, 64
5, 310676, Note_on_c, 0, 69, 0
5, 310680, Note_on_c, 0, 67, 64
5, 310796, Note_on_c, 0, 67, 0
5, 310800, Note_on_c, 0, 66, 64
5, 310916, Note_on_c, 0, 66, 0
5, 310920, Note_on_c, 0, 64, 64
5, 311036, Note_on_c, 0, 64, 0
5, 311040, Note_on_c, 0, 66, 64
5, 311276, Note_on_c, 0, 66, 0
5, 311280, Note_on_c, 0, 69, 64
5, 311516, Note_on_c, 0, 69, 0
5, 311520, Note_on_c, 0, 74, 64
5, 311756, Note_on_c, 0, 74, 0
5, 311760, Note_on_c, 0, 73, 64
5, 311876, Note_on_c, 0, 73, 0
5, 311880, Note_on_c, 0, 74, 64
5, 311996, Note_on_c, 0, 74, 0
5, 312000, Note_on_c, 0, 73, 64
5, 312116, Note_on_c, 0, 73, 0
5, 312120, Note_on_c, 0, 71, 64
5, 312236, Note_on_c, 0, 71, 0
5, 312240, Note_on_c, 0, 69, 64
5, 312356, Note_on_c, 0, 69, 0
5, 312360, Note_on_c, 0, 67, 64
5, 312476, Note_on_c, 0, 67, 0
5, 312480, Note_on_c, 0, 66, 64
5, 312716, Note_on_c, 0, 66, 0
5, 312720, Note_on_c, 0, 62, 64
5, 312956, Note_on_c, 0, 62, 0
5, 312960, Note_on_c, 0, 69, 64
5, 313196, Note_on_c, 0, 69, 0
5, 313200, Note_on_c, 0, 69, 64
5, 313436, Note_on_c, 0, 69, 0
5, 313440, Note_on_c, 0, 69, 64
5, 313676, Note_on_c, 0, 69, 0
5, 313680, Note_on_c, 0, 69, 64
5, 313916, Note_on_c, 0, 69, 0
5, 313920, Note_on_c, 0, 69, 64
5, 314156, Note_on_c, 0, 69, 0
5, 314160, Note_on_c, 0, 69, 64
5, 314396, Note_on_c, 0, 69, 0
5, 314400, Note_on_c, 0, 69, 64
5, 314636, Note_on_c, 0, 69, 0
5, 314640, Note_on_c, 0, 69, 64
5, 314876, Note_on_c, 0, 69, 0
5, 314880, Note_on_c, 0, 69, 64
5, 315116, Note_on_c, 0, 69, 0
5, 315120, Note_on_c, 0, 69, 64
5, 315356, Note_on_c, 0, 69, 0
5, 315360, Note_on_c, 0, 69, 64
5, 315596, Note_on_c, 0, 69, 0
5, 315600, Note_on_c, 0, 74, 64
5, 315836, Note_on_c, 0, 74, 0
5, 315840, Note_on_c, 0, 69, 64
5, 316076, Note_on_c, 0, 69, 0
5, 316080, Note_on_c, 0, 71, 64
5, 316196, Note_on_c, 0, 71, 0
5, 316200, Note_on_c, 0, 73, 64
5, 316316, Note_on_c, 0, 73, 0
5, 316320, Note_on_c, 0, 71, 64
5, 316436, Note_on_c, 0, 71, 0
5, 316440, Note_on_c, 0, 69, 64
5, 316556, Note_on_c, 0, 69, 0
5, 316560, Note_on_c, 0, 68, 64
5, 316676, Note_on_c, 0, 68, 0
5, 316680, Note_on_c, 0, 66, 64
5, 316796, Note_on_c, 0, 66, 0
5, 316800, Note_on_c, 0, 68, 64
5, 317036, Note_on_c, 0, 68, 0
5, 317040, Note_on_c, 0, 73, 64
5, 317276, Note_on_c, 0, 73, 0
5, 317280, Note_on_c, 0, 68, 64
5, 317516, Note_on_c, 0, 68, 0
5, 317520, Note_on_c, 0, 69, 64
5, 317636, Note_on_c, 0, 69, 0
5, 317640, Note_on_c, 0, 71, 64
5, 317756, Note_on_c, 0, 71, 0
5, 317760, Note_on_c, 0, 69, 64
5, 317876, Note_on_c, 0, 69, 0
5, 317880, Note_on_c, 0, 68, 64
5, 317996, Note_on_c, 0, 68, 0
5, 318000, Note_on_c, 0, 66, 64
5, 318116, Note_on_c, 0, 66, 0
5, 318120, Note_on_c, 0, 64, 64
5, 318236, Note_on_c, 0, 64, 0
5, 318240, Note_on_c, 0, 66, 64
5, 318476, Note_on_c, 0, 66, 0
5, 318480, Note_on_c, 0, 71, 64
5, 318716, Note_on_c, 0, 71, 0
5, 318720, Note_on_c, 0, 66, 64
5, 318956, Note_on_c, 0, 66, 0
5, 318960, Note_on_c, 0, 68, 64
5, 319196, Note_on_c, 0, 68, 0
5, 319200, Note_on_c, 0, 71, 64
5, 319436, Note_on_c, 0, 71, 0
5, 319440, Note_on_c, 0, 64, 64
5, 319676, Note_on_c, 0, 64, 0
5, 319680, Note_on_c, 0, 69, 64
5, 319916, Note_on_c, 0, 69, 0
5, 319920, Note_on_c, 0, 64, 64
5, 320156, Note_on_c, 0, 64, 0
5, 320160, Note_on_c, 0, 61, 64
5, 320396, Note_on_c, 0, 61, 0
5, 320400, Note_on_c, 0, 69, 64
5, 320636, Note_on_c, 0, 69, 0
5, 320640, Note_on_c, 0, 66, 64
5, 320876, Note_on_c, 0, 66, 0
5, 320880, Note_on_c, 0, 62, 64
5, 321116, Note_on_c, 0, 62, 0
5, 321120, Note_on_c, 0, 67, 64
5, 321356, Note_on_c, 0, 67, 0
5, 321360, Note_on_c, 0, 64, 64
5, 321596, Note_on_c, 0, 64, 0
5, 321600, Note_on_c, 0, 61, 64
5, 321836, Note_on_c, 0, 61, 0
5, 321840, Note_on_c, 0, 67, 64
5, 322076, Note_on_c, 0, 67, 0
5, 322080, Note_on_c, 0, 62, 64
5, 322316, Note_on_c, 0, 62, 0
5, 322320, Note_on_c, 0, 59, 64
5, 322556, Note_on_c, 0, 59, 0
5, 322560, Note_on_c, 0, 64, 64
5, 322796, Note_on_c, 0, 64, 0
5, 322800, Note_on_c, 0, 61, 64
5, 323036, Note_on_c, 0, 61, 0
5, 323040, Note_on_c, 0, 57, 64
5, 323276, Note_on_c, 0, 57, 0
5, 323280, Note_on_c, 0, 66, 64
5, 323516, Note_on_c, 0, 66, 0
5, 323520, Note_on_c, 0, 62, 64
5, 323756, Note_on_c, 0, 62, 0
5, 323760, Note_on_c, 0, 57, 64
5, 323996, Note_on_c, 0, 57, 0
5, 324000, Note_on_c, 0, 61, 64
5, 324116, Note_on_c, 0, 61, 0
5, 324120, Note_on_c, 0, 64, 64
5, 324236, Note_on_c, 0, 64, 0
5, 324240, Note_on_c, 0, 57, 64
5, 324356, Note_on_c, 0, 57, 0
5, 324360, Note_on_c, 0, 64, 64
5, 324476, Note_on_c, 0, 64, 0
5, 324480, Note_on_c, 0, 61, 64
5, 324596, Note_on_c, 0, 61, 0
5, 324600, Note_on_c, 0, 64, 64
5, 324716, Note_on_c, 0, 64, 0
5, 324720, Note_on_c, 0, 62, 64
5, 324836, Note_on_c, 0, 62, 0
5, 324840, Note_on_c, 0, 66, 64
5, 324956, Note_on_c, 0, 66, 0
5, 324960, Note_on_c, 0, 57, 64
5, 325076, Note_on_c, 0, 57, 0
5, 325080, Note_on_c, 0, 66, 64
5, 325196, Note_on_c, 0, 66, 0
5, 325200, Note_on_c, 0, 62, 64
5, 325316, Note_on_c, 0, 62, 0
5, 325320, Note_on_c, 0, 66, 64
5, 325436, Note_on_c, 0, 66, 0
5, 325440, Note_on_c, 0, 64, 64
5, 325556, Note_on_c, 0, 64, 0
5, 325560, Note_on_c, 0, 67, 64
5, 325676, Note_on_c, 0, 67, 0
5, 325680, Note_on_c, 0, 57, 64
5, 325796, Note_on_c, 0, 57, 0
5, 325800, Note_on_c, 0, 67, 64
5, 325916, Note_on_c, 0, 67, 0
5, 325920, Note_on_c, 0, 64, 64
5, 326036, Note_on_c, 0, 64, 0
5, 326040, Note_on_c, 0, 67, 64
5, 326156, Note_on_c, 0, 67, 0
5, 326160, Note_on_c, 0, 64, 64
5, 326276, Note_on_c, 0, 64, 0
5, 326280, Note_on_c, 0, 67, 64
5, 326396, Note_on_c, 0, 67, 0
5, 326400, Note_on_c, 0, 57, 64
5, 326516, Note_on_c, 0, 57, 0
5, 326520, Note_on_c, 0, 67, 64
5, 326636, Note_on_c, 0, 67, 0
5, 326640, Note_on_c, 0, 64, 64
5, 326756, Note_on_c, 0, 64, 0
5, 326760, Note_on_c, 0, 67, 64
5, 326876, Note_on_c, 0, 67, 0
5, 326880, Note_on_c, 0, 66, 64
5, 327116, Note_on_c, 0, 66, 0
5, 327120, Note_on_c, 0, 62, 64
5, 327356, Note_on_c, 0, 62, 0
5, 327360, Note_on_c, 0, 62, 64
5, 327596, Note_on_c, 0, 62, 0
5, 327600, Note_on_c, 0, 62, 64
5, 327836, Note_on_c, 0, 62, 0
5, 327840, Note_on_c, 0, 62, 64
5, 328076, Note_on_c, 0, 62, 0
5, 328080, Note_on_c, 0, 62, 64
5, 328316, Note_on_c, 0, 62, 0
5, 328320, Note_on_c, 0, 62, 64
5, 328556, Note_on_c, 0, 62, 0
5, 328560, Note_on_c, 0, 62, 64
5, 328796, Note_on_c, 0, 62, 0
5, 328800, Note_on_c, 0, 62, 64
5, 329036, Note_on_c, 0, 62, 0
5, 329040, Note_on_c, 0, 62, 64
5, 329276, Note_on_c, 0, 62, 0
5, 329280, Note_on_c, 0, 62, 64
5, 329516, Note_on_c, 0, 62, 0
5, 329520, Note_on_c, 0, 62, 64
5, 329756, Note_on_c, 0, 62, 0
5, 329760, Note_on_c, 0, 69, 64
5, 329996, Note_on_c, 0, 69, 0
5, 330000, Note_on_c, 0, 69, 64
5, 330236, Note_on_c, 0, 69, 0
5, 330240, Note_on_c, 0, 69, 64
5, 330476, Note_on_c, 0, 69, 0
5, 330480, Note_on_c, 0, 69, 64
5, 330716, Note_on_c, 0, 69, 0
5, 330720, Note_on_c, 0, 69, 64
5, 330956, Note_on_c, 0, 69, 0
5, 330960, Note_on_c, 0, 69, 64
5, 331196, Note_on_c, 0, 69, 0
5, 331200, Note_on_c, 0, 69, 64
5, 331436, Note_on_c, 0, 69, 0
5, 331440, Note_on_c, 0, 64, 64
5, 331556, Note_on_c, 0, 64, 0
5, 331560, Note_on_c, 0, 66, 64
5, 331676, Note_on_c, 0, 66, 0
5, 331680, Note_on_c, 0, 67, 64
5, 331916, Note_on_c, 0, 67, 0
5, 331920, Note_on_c, 0, 57, 64
5, 332156, Note_on_c, 0, 57, 0
5, 332160, Note_on_c, 0, 64, 64
5, 332396, Note_on_c, 0, 64, 0
5, 332400, Note_on_c, 0, 67, 64
5, 332636, Note_on_c, 0, 67, 0
5, 332640, Note_on_c, 0, 66, 64
5, 334076, Note_on_c, 0, 66, 0
5, 334080, Note_on_c, 0, 69, 64
5, 334316, Note_on_c, 0, 69, 0
5, 334320, Note_on_c, 0, 69, 64
5, 334556, Note_on_c, 0, 69, 0
5, 334560, Note_on_c, 0, 69, 64
5, 334796, Note_on_c, 0, 69, 0
5, 334800, Note_on_c, 0, 69, 64
5, 335036, Note_on_c, 0, 69, 0
5, 335040, Note_on_c, 0, 69, 64
5, 335276, Note_on_c, 0, 69, 0
5, 335280, Note_on_c, 0, 69, 64
5, 335516, Note_on_c, 0, 69, 0
5, 335520, Note_on_c, 0, 69, 64
5, 335756, Note_on_c, 0, 69, 0
5, 335760, Note_on_c, 0, 69, 64
5, 335996, Note_on_c, 0, 69, 0
5, 336000, Note_on_c, 0, 69, 64
5, 336236, Note_on_c, 0, 69, 0
5, 336240, Note_on_c, 0, 69, 64
5, 336476, Note_on_c, 0, 69, 0
5, 336480, Note_on_c, 0, 69, 64
5, 336716, Note_on_c, 0, 69, 0
5, 336720, Note_on_c, 0, 69, 64
5, 336956, Note_on_c, 0, 69, 0
5, 336960, Note_on_c, 0, 67, 64
5, 337076, Note_on_c, 0, 67, 0
5, 337080, Note_on_c, 0, 66, 64
5, 337196, Note_on_c, 0, 66, 0
5, 337200, Note_on_c, 0, 64, 64
5, 337316, Note_on_c, 0, 64, 0
5, 337320, Note_on_c, 0, 66, 64
5, 337436, Note_on_c, 0, 66, 0
5, 337440, Note_on_c, 0, 67, 64
5, 337556, Note_on_c, 0, 67, 0
5, 337560, Note_on_c, 0, 69, 64
5, 337676, Note_on_c, 0, 69, 0
5, 337680, Note_on_c, 0, 71, 64
5, 337796, Note_on_c, 0, 71, 0
5, 337800, Note_on_c, 0, 72, 64
5, 337916, Note_on_c, 0, 72, 0
5, 337920, Note_on_c, 0, 71, 64
5, 338036, Note_on_c, 0, 71, 0
5, 338040, Note_on_c, 0, 69, 64
5, 338156, Note_on_c, 0, 69, 0
5, 338160, Note_on_c, 0, 67, 64
5, 338276, Note_on_c, 0, 67, 0
5, 338280, Note_on_c, 0, 66, 64
5, 338396, Note_on_c, 0, 66, 0
5, 338400, Note_on_c, 0, 67, 64
5, 338516, Note_on_c, 0, 67, 0
5, 338520, Note_on_c, 0, 71, 64
5, 338636, Note_on_c, 0, 71, 0
5, 338640, Note_on_c, 0, 69, 64
5, 338756, Note_on_c, 0, 69, 0
5, 338760, Note_on_c, 0, 67, 64
5, 338876, Note_on_c, 0, 67, 0
5, 338880, Note_on_c, 0, 66, 64
5, 338996, Note_on_c, 0, 66, 0
5, 339000, Note_on_c, 0, 64, 64
5, 339116, Note_on_c, 0, 64, 0
5, 339120, Note_on_c, 0, 63, 64
5, 339236, Note_on_c, 0, 63, 0
5, 339240, Note_on_c, 0, 64, 64
5, 339356, Note_on_c, 0, 64, 0
5, 339360, Note_on_c, 0, 63, 64
5, 339476, Note_on_c, 0, 63, 0
5, 339480, Note_on_c, 0, 61, 64
5, 339596, Note_on_c, 0, 61, 0
5, 339600, Note_on_c, 0, 59, 64
5, 339716, Note_on_c, 0, 59, 0
5, 339720, Note_on_c, 0, 57, 64
5, 339836, Note_on_c, 0, 57, 0
5, 339840, Note_on_c, 0, 55, 64
5, 340076, Note_on_c, 0, 55, 0
5, 340080, Note_on_c, 0, 64, 64
5, 340316, Note_on_c, 0, 64, 0
5, 340320, Note_on_c, 0, 64, 64
5, 340556, Note_on_c, 0, 64, 0
5, 340560, Note_on_c, 0, 64, 64
5, 340796, Note_on_c, 0, 64, 0
5, 340800, Note_on_c, 0, 64, 64
5, 341036, Note_on_c, 0, 64, 0
5, 341040, Note_on_c, 0, 64, 64
5, 341276, Note_on_c, 0, 64, 0
5, 341280, Note_on_c, 0, 64, 64
5, 341516, Note_on_c, 0, 64, 0
5, 341520, Note_on_c, 0, 64, 64
5, 341756, Note_on_c, 0, 64, 0
5, 341760, Note_on_c, 0, 64, 64
5, 341996, Note_on_c, 0, 64, 0
5, 342000, Note_on_c, 0, 64, 64
5, 342236, Note_on_c, 0, 64, 0
5, 342240, Note_on_c, 0, 64, 64
5, 342476, Note_on_c, 0, 64, 0
5, 342480, Note_on_c, 0, 64, 64
5, 342716, Note_on_c, 0, 64, 0
5, 342720, Note_on_c, 0, 64, 64
5, 342956, Note_on_c, 0, 64, 0
5, 342960, Note_on_c, 0, 64, 64
5, 343196, Note_on_c, 0, 64, 0
5, 343200, Note_on_c, 0, 64, 64
5, 343436, Note_on_c, 0, 64, 0
5, 343440, Note_on_c, 0, 64, 64
5, 343676, Note_on_c, 0, 64, 0
5, 343680, Note_on_c, 0, 64, 64
5, 343916, Note_on_c, 0, 64, 0
5, 343920, Note_on_c, 0, 64, 64
5, 344156, Note_on_c, 0, 64, 0
5, 344160, Note_on_c, 0, 67, 64
5, 344396, Note_on_c, 0, 67, 0
5, 344400, Note_on_c, 0, 71, 64
5, 344636, Note_on_c, 0, 71, 0
5, 344640, Note_on_c, 0, 66, 64
5, 344876, Note_on_c, 0, 66, 0
5, 344880, Note_on_c, 0, 67, 64
5, 345356, Note_on_c, 0, 67, 0
5, 345600, Note_on_c, 0, 64, 64
5, 345836, Note_on_c, 0, 64, 0
5, 345840, Note_on_c, 0, 67, 64
5, 346076, Note_on_c, 0, 67, 0
5, 346080, Note_on_c, 0, 71, 64
5, 346316, Note_on_c, 0, 71, 0
5, 346320, Note_on_c, 0, 63, 64
5, 346556, Note_on_c, 0, 63, 0
5, 346560, Note_on_c, 0, 66, 64
5, 346796, Note_on_c, 0, 66, 0
5, 346800, Note_on_c, 0, 71, 64
5, 347036, Note_on_c, 0, 71, 0
5, 347040, Note_on_c, 0, 64, 64
5, 347276, Note_on_c, 0, 64, 0
5, 347280, Note_on_c, 0, 67, 64
5, 347516, Note_on_c, 0, 67, 0
5, 347520, Note_on_c, 0, 71, 64
5, 347756, Note_on_c, 0, 71, 0
5, 347760, Note_on_c, 0, 59, 64
5, 347996, Note_on_c, 0, 59, 0
5, 348000, Note_on_c, 0, 66, 64
5, 348236, Note_on_c, 0, 66, 0
5, 348240, Note_on_c, 0, 71, 64
5, 348476, Note_on_c, 0, 71, 0
5, 348480, Note_on_c, 0, 64, 64
5, 348596, Note_on_c, 0, 64, 0
5, 348600, Note_on_c, 0, 63, 64
5, 348716, Note_on_c, 0, 63, 0
5, 348720, Note_on_c, 0, 64, 64
5, 348836, Note_on_c, 0, 64, 0
5, 348840, Note_on_c, 0, 66, 64
5, 348956, Note_on_c, 0, 66, 0
5, 348960, Note_on_c, 0, 67, 64
5, 349076, Note_on_c, 0, 67, 0
5, 349080, Note_on_c, 0, 69, 64
5, 349196, Note_on_c, 0, 69, 0
5, 349200, Note_on_c, 0, 71, 64
5, 349316, Note_on_c, 0, 71, 0
5, 349320, Note_on_c, 0, 72, 64
5, 349436, Note_on_c, 0, 72, 0
5, 349440, Note_on_c, 0, 71, 64
5, 349556, Note_on_c, 0, 71, 0
5, 349560, Note_on_c, 0, 69, 64
5, 349676, Note_on_c, 0, 69, 0
5, 349680, Note_on_c, 0, 67, 64
5, 349796, Note_on_c, 0, 67, 0
5, 349800, Note_on_c, 0, 66, 64
5, 349916, Note_on_c, 0, 66, 0
5, 349920, Note_on_c, 0, 64, 64
5, 350156, Note_on_c, 0, 64, 0
5, 350160, Note_on_c, 0, 67, 64
5, 350396, Note_on_c, 0, 67, 0
5, 350400, Note_on_c, 0, 59, 64
5, 350636, Note_on_c, 0, 59, 0
5, 350640, Note_on_c, 0, 66, 64
5, 350876, Note_on_c, 0, 66, 0
5, 350880, Note_on_c, 0, 69, 64
5, 351116, Note_on_c, 0, 69, 0
5, 351120, Note_on_c, 0, 59, 64
5, 351356, Note_on_c, 0, 59, 0
5, 351360, Note_on_c, 0, 67, 64
5, 351596, Note_on_c, 0, 67, 0
5, 351600, Note_on_c, 0, 67, 64
5, 351836, Note_on_c, 0, 67, 0
5, 351840, Note_on_c, 0, 67, 64
5, 352076, Note_on_c, 0, 67, 0
5, 352080, Note_on_c, 0, 67, 64
5, 352316, Note_on_c, 0, 67, 0
5, 352320, Note_on_c, 0, 67, 64
5, 352556, Note_on_c, 0, 67, 0
5, 352560, Note_on_c, 0, 67, 64
5, 352796, Note_on_c, 0, 67, 0
5, 352800, Note_on_c, 0, 66, 64
5, 353036, Note_on_c, 0, 66, 0
5, 353040, Note_on_c, 0, 66, 64
5, 353276, Note_on_c, 0, 66, 0
5, 353280, Note_on_c, 0, 66, 64
5, 353516, Note_on_c, 0, 66, 0
5, 353520, Note_on_c, 0, 66, 64
5, 353756, Note_on_c, 0, 66, 0
5, 353760, Note_on_c, 0, 66, 64
5, 353996, Note_on_c, 0, 66, 0
5, 354000, Note_on_c, 0, 66, 64
5, 354236, Note_on_c, 0, 66, 0
5, 354240, Note_on_c, 0, 64, 64
5, 354476, Note_on_c, 0, 64, 0
5, 354480, Note_on_c, 0, 64, 64
5, 354716, Note_on_c, 0, 64, 0
5, 354720, Note_on_c, 0, 64, 64
5, 354956, Note_on_c, 0, 64, 0
5, 354960, Note_on_c, 0, 64, 64
5, 355196, Note_on_c, 0, 64, 0
5, 355200, Note_on_c, 0, 64, 64
5, 355436, Note_on_c, 0, 64, 0
5, 355440, Note_on_c, 0, 64, 64
5, 355676, Note_on_c, 0, 64, 0
5, 355680, Note_on_c, 0, 62, 64
5, 355796, Note_on_c, 0, 62, 0
5, 355800, Note_on_c, 0, 61, 64
5, 355916, Note_on_c, 0, 61, 0
5, 355920, Note_on_c, 0, 59, 64
5, 356036, Note_on_c, 0, 59, 0
5, 356040, Note_on_c, 0, 61, 64
5, 356156, Note_on_c, 0, 61, 0
5, 356160, Note_on_c, 0, 62, 64
5, 356276, Note_on_c, 0, 62, 0
5, 356280, Note_on_c, 0, 64, 64
5, 356396, Note_on_c, 0, 64, 0
5, 356400, Note_on_c, 0, 66, 64
5, 356516, Note_on_c, 0, 66, 0
5, 356520, Note_on_c, 0, 67, 64
5, 356636, Note_on_c, 0, 67, 0
5, 356640, Note_on_c, 0, 66, 64
5, 356756, Note_on_c, 0, 66, 0
5, 356760, Note_on_c, 0, 64, 64
5, 356876, Note_on_c, 0, 64, 0
5, 356880, Note_on_c, 0, 62, 64
5, 356996, Note_on_c, 0, 62, 0
5, 357000, Note_on_c, 0, 61, 64
5, 357116, Note_on_c, 0, 61, 0
5, 357120, Note_on_c, 0, 62, 64
5, 357356, Note_on_c, 0, 62, 0
5, 357360, Note_on_c, 0, 66, 64
5, 357596, Note_on_c, 0, 66, 0
5, 357600, Note_on_c, 0, 71, 64
5, 357836, Note_on_c, 0, 71, 0
5, 357840, Note_on_c, 0, 70, 64
5, 357956, Note_on_c, 0, 70, 0
5, 357960, Note_on_c, 0, 71, 64
5, 358076, Note_on_c, 0, 71, 0
5, 358080, Note_on_c, 0, 70, 64
5, 358196, Note_on_c, 0, 70, 0
5, 358200, Note_on_c, 0, 68, 64
5, 358316, Note_on_c, 0, 68, 0
5, 358320, Note_on_c, 0, 66, 64
5, 358436, Note_on_c, 0, 66, 0
5, 358440, Note_on_c, 0, 64, 64
5, 358556, Note_on_c, 0, 64, 0
5, 358560, Note_on_c, 0, 62, 64
5, 358796, Note_on_c, 0, 62, 0
5, 358800, Note_on_c, 0, 59, 64
5, 359036, Note_on_c, 0, 59, 0
5, 359040, Note_on_c, 0, 66, 64
5, 359276, Note_on_c, 0, 66, 0
5, 359280, Note_on_c, 0, 66, 64
5, 359516, Note_on_c, 0, 66, 0
5, 359520, Note_on_c, 0, 66, 64
5, 359756, Note_on_c, 0, 66, 0
5, 359760, Note_on_c, 0, 66, 64
5, 359996, Note_on_c, 0, 66, 0
5, 360000, Note_on_c, 0, 66, 64
5, 360236, Note_on_c, 0, 66, 0
5, 360240, Note_on_c, 0, 66, 64
5, 360476, Note_on_c, 0, 66, 0
5, 360480, Note_on_c, 0, 66, 64
5, 360716, Note_on_c, 0, 66, 0
5, 360720, Note_on_c, 0, 66, 64
5, 360956, Note_on_c, 0, 66, 0
5, 360960, Note_on_c, 0, 66, 64
5, 361196, Note_on_c, 0, 66, 0
5, 361200, Note_on_c, 0, 66, 64
5, 361436, Note_on_c, 0, 66, 0
5, 361440, Note_on_c, 0, 74, 64
5, 361556, Note_on_c, 0, 74, 0
5, 361560, Note_on_c, 0, 76, 64
5, 361676, Note_on_c, 0, 76, 0
5, 361680, Note_on_c, 0, 74, 64
5, 361796, Note_on_c, 0, 74, 0
5, 361800, Note_on_c, 0, 73, 64
5, 361916, Note_on_c, 0, 73, 0
5, 361920, Note_on_c, 0, 71, 64
5, 362036, Note_on_c, 0, 71, 0
5, 362040, Note_on_c, 0, 69, 64
5, 362156, Note_on_c, 0, 69, 0
5, 362160, Note_on_c, 0, 67, 64
5, 362276, Note_on_c, 0, 67, 0
5, 362280, Note_on_c, 0, 66, 64
5, 362396, Note_on_c, 0, 66, 0
5, 362400, Note_on_c, 0, 67, 64
5, 362516, Note_on_c, 0, 67, 0
5, 362520, Note_on_c, 0, 69, 64
5, 362636, Note_on_c, 0, 69, 0
5, 362640, Note_on_c, 0, 71, 64
5, 362756, Note_on_c, 0, 71, 0
5, 362760, Note_on_c, 0, 67, 64
5, 362876, Note_on_c, 0, 67, 0
5, 362880, Note_on_c, 0, 73, 64
5, 362996, Note_on_c, 0, 73, 0
5, 363000, Note_on_c, 0, 74, 64
5, 363116, Note_on_c, 0, 74, 0
5, 363120, Note_on_c, 0, 73, 64
5, 363236, Note_on_c, 0, 73, 0
5, 363240, Note_on_c, 0, 71, 64
5, 363356, Note_on_c, 0, 71, 0
5, 363360, Note_on_c, 0, 69, 64
5, 363476, Note_on_c, 0, 69, 0
5, 363480, Note_on_c, 0, 67, 64
5, 363596, Note_on_c, 0, 67, 0
5, 363600, Note_on_c, 0, 66, 64
5, 363716, Note_on_c, 0, 66, 0
5, 363720, Note_on_c, 0, 64, 64
5, 363836, Note_on_c, 0, 64, 0
5, 363840, Note_on_c, 0, 66, 64
5, 363956, Note_on_c, 0, 66, 0
5, 363960, Note_on_c, 0, 67, 64
5, 364076, Note_on_c, 0, 67, 0
5, 364080, Note_on_c, 0, 69, 64
5, 364196, Note_on_c, 0, 69, 0
5, 364200, Note_on_c, 0, 66, 64
5, 364316, Note_on_c, 0, 66, 0
5, 364320, Note_on_c, 0, 71, 64
5, 364436, Note_on_c, 0, 71, 0
5, 364440, Note_on_c, 0, 73, 64
5, 364556, Note_on_c, 0, 73, 0
5, 364560, Note_on_c, 0, 71, 64
5, 364676, Note_on_c, 0, 71, 0
5, 364680, Note_on_c, 0, 69, 64
5, 364796, Note_on_c, 0, 69, 0
5, 364800, Note_on_c, 0, 67, 64
5, 364916, Note_on_c, 0, 67, 0
5, 364920, Note_on_c, 0, 66, 64
5, 365036, Note_on_c, 0, 66, 0
5, 365040, Note_on_c, 0, 64, 64
5, 365156, Note_on_c, 0, 64, 0
5, 365160, Note_on_c, 0, 62, 64
5, 365276, Note_on_c, 0, 62, 0
5, 365280, Note_on_c, 0, 64, 64
5, 365396, Note_on_c, 0, 64, 0
5, 365400, Note_on_c, 0, 66, 64
5, 365516, Note_on_c, 0, 66, 0
5, 365520, Note_on_c, 0, 67, 64
5, 365636, Note_on_c, 0, 67, 0
5, 365640, Note_on_c, 0, 64, 64
5, 365756, Note_on_c, 0, 64, 0
5, 365760, Note_on_c, 0, 66, 64
5, 365996, Note_on_c, 0, 66, 0
5, 366000, Note_on_c, 0, 61, 64
5, 366236, Note_on_c, 0, 61, 0
5, 366240, Note_on_c, 0, 58, 64
5, 366476, Note_on_c, 0, 58, 0
5, 366480, Note_on_c, 0, 66, 64
5, 366716, Note_on_c, 0, 66, 0
5, 366720, Note_on_c, 0, 61, 64
5, 366956, Note_on_c, 0, 61, 0
5, 366960, Note_on_c, 0, 58, 64
5, 367196, Note_on_c, 0, 58, 0
5, 367200, Note_on_c, 0, 66, 64
5, 367436, Note_on_c, 0, 66, 0
5, 367440, Note_on_c, 0, 61, 64
5, 367676, Note_on_c, 0, 61, 0
5, 367680, Note_on_c, 0, 58, 64
5, 367916, Note_on_c, 0, 58, 0
5, 367920, Note_on_c, 0, 62, 64
5, 368156, Note_on_c, 0, 62, 0
5, 368160, Note_on_c, 0, 59, 64
5, 368396, Note_on_c, 0, 59, 0
5, 368400, Note_on_c, 0, 54, 64
5, 368636, Note_on_c, 0, 54, 0
5, 368640, Note_on_c, 0, 61, 64
5, 368876, Note_on_c, 0, 61, 0
5, 368880, Note_on_c, 0, 58, 64
5, 369116, Note_on_c, 0, 58, 0
5, 369120, Note_on_c, 0, 54, 64
5, 369356, Note_on_c, 0, 54, 0
5, 369360, Note_on_c, 0, 62, 64
5, 369596, Note_on_c, 0, 62, 0
5, 369600, Note_on_c, 0, 59, 64
5, 369836, Note_on_c, 0, 59, 0
5, 369840, Note_on_c, 0, 54, 64
5, 370076, Note_on_c, 0, 54, 0
5, 370080, Note_on_c, 0, 70, 64
5, 370196, Note_on_c, 0, 70, 0
5, 370200, Note_on_c, 0, 73, 64
5, 370316, Note_on_c, 0, 73, 0
5, 370320, Note_on_c, 0, 66, 64
5, 370436, Note_on_c, 0, 66, 0
5, 370440, Note_on_c, 0, 73, 64
5, 370556, Note_on_c, 0, 73, 0
5, 370560, Note_on_c, 0, 70, 64
5, 370676, Note_on_c, 0, 70, 0
5, 370680, Note_on_c, 0, 73, 64
5, 370796, Note_on_c, 0, 73, 0
5, 370800, Note_on_c, 0, 71, 64
5, 370916, Note_on_c, 0, 71, 0
5, 370920, Note_on_c, 0, 74, 64
5, 371036, Note_on_c, 0, 74, 0
5, 371040, Note_on_c, 0, 66, 64
5, 371156, Note_on_c, 0, 66, 0
5, 371160, Note_on_c, 0, 74, 64
5, 371276, Note_on_c, 0, 74, 0
5, 371280, Note_on_c, 0, 71, 64
5, 371396, Note_on_c, 0, 71, 0
5, 371400, Note_on_c, 0, 74, 64
5, 371516, Note_on_c, 0, 74, 0
5, 371520, Note_on_c, 0, 73, 64
5, 371636, Note_on_c, 0, 73, 0
5, 371640, Note_on_c, 0, 76, 64
5, 371756, Note_on_c, 0, 76, 0
5, 371760, Note_on_c, 0, 66, 64
5, 371876, Note_on_c, 0, 66, 0
5, 371880, Note_on_c, 0, 76, 64
5, 371996, Note_on_c, 0, 76, 0
5, 372000, Note_on_c, 0, 73, 64
5, 372116, Note_on_c, 0, 73, 0
5, 372120, Note_on_c, 0, 76, 64
5, 372236, Note_on_c, 0, 76, 0
5, 372240, Note_on_c, 0, 73, 64
5, 372356, Note_on_c, 0, 73, 0
5, 372360, Note_on_c, 0, 76, 64
5, 372476, Note_on_c, 0, 76, 0
5, 372480, Note_on_c, 0, 66, 64
5, 372596, Note_on_c, 0, 66, 0
5, 372600, Note_on_c, 0, 76, 64
5, 372716, Note_on_c, 0, 76, 0
5, 372720, Note_on_c, 0, 73, 64
5, 372836, Note_on_c, 0, 73, 0
5, 372840, Note_on_c, 0, 76, 64
5, 372956, Note_on_c, 0, 76, 0
5, 372960, Note_on_c, 0, 75, 64
5, 373196, Note_on_c, 0, 75, 0
5, 373200, Note_on_c, 0, 59, 64
5, 373436, Note_on_c, 0, 59, 0
5, 373440, Note_on_c, 0, 59, 64
5, 373676, Note_on_c, 0, 59, 0
5, 373680, Note_on_c, 0, 59, 64
5, 373916, Note_on_c, 0, 59, 0
5, 373920, Note_on_c, 0, 59, 64
5, 374156, Note_on_c, 0, 59, 0
5, 374160, Note_on_c, 0, 59, 64
5, 374396, Note_on_c, 0, 59, 0
5, 374400, Note_on_c, 0, 59, 64
5, 374636, Note_on_c, 0, 59, 0
5, 374640, Note_on_c, 0, 59, 64
5, 374876, Note_on_c, 0, 59, 0
5, 374880, Note_on_c, 0, 59, 64
5, 375116, Note_on_c, 0, 59, 0
5, 375120, Note_on_c, 0, 59, 64
5, 375356, Note_on_c, 0, 59, 0
5, 375360, Note_on_c, 0, 59, 64
5, 375596, Note_on_c, 0, 59, 0
5, 375600, Note_on_c, 0, 59, 64
5, 375836, Note_on_c, 0, 59, 0
5, 375840, Note_on_c, 0, 66, 64
5, 376076, Note_on_c, 0, 66, 0
5, 376080, Note_on_c, 0, 66, 64
5, 376316, Note_on_c, 0, 66, 0
5, 376320, Note_on_c, 0, 66, 64
5, 376556, Note_on_c, 0, 66, 0
5, 376560, Note_on_c, 0, 66, 64
5, 376796, Note_on_c, 0, 66, 0
5, 376800, Note_on_c, 0, 66, 64
5, 377036, Note_on_c, 0, 66, 0
5, 377040, Note_on_c, 0, 66, 64
5, 377276, Note_on_c, 0, 66, 0
5, 377280, Note_on_c, 0, 66, 64
5, 377396, Note_on_c, 0, 66, 0
5, 377400, Note_on_c, 0, 64, 64
5, 377516, Note_on_c, 0, 64, 0
5, 377520, Note_on_c, 0, 62, 64
5, 377636, Note_on_c, 0, 62, 0
5, 377640, Note_on_c, 0, 64, 64
5, 377756, Note_on_c, 0, 64, 0
5, 377760, Note_on_c, 0, 66, 64
5, 377996, Note_on_c, 0, 66, 0
5, 378000, Note_on_c, 0, 54, 64
5, 378236, Note_on_c, 0, 54, 0
5, 378240, Note_on_c, 0, 61, 64
5, 378356, Note_on_c, 0, 61, 0
5, 378360, Note_on_c, 0, 62, 64
5, 378476, Note_on_c, 0, 62, 0
5, 378480, Note_on_c, 0, 64, 64
5, 378716, Note_on_c, 0, 64, 0
5, 378720, Note_on_c, 0, 62, 64
5, 379556, Note_on_c, 0, 62, 0
5, 379560, Note_on_c, 0, 61, 64
5, 379676, Note_on_c, 0, 61, 0
5, 379680, Note_on_c, 0, 59, 64
5, 379796, Note_on_c, 0, 59, 0
5, 379800, Note_on_c, 0, 61, 64
5, 379916, Note_on_c, 0, 61, 0
5, 379920, Note_on_c, 0, 62, 64
5, 380036, Note_on_c, 0, 62, 0
5, 380040, Note_on_c, 0, 64, 64
5, 380156, Note_on_c, 0, 64, 0
5, 380160, Note_on_c, 0, 66, 64
5, 380276, Note_on_c, 0, 66, 0
5, 380280, Note_on_c, 0, 67, 64
5, 380396, Note_on_c, 0, 67, 0
5, 380400, Note_on_c, 0, 69, 64
5, 380516, Note_on_c, 0, 69, 0
5, 380520, Note_on_c, 0, 67, 64
5, 380636, Note_on_c, 0, 67, 0
5, 380640, Note_on_c, 0, 66, 64
5, 380756, Note_on_c, 0, 66, 0
5, 380760, Note_on_c, 0, 64, 64
5, 380876, Note_on_c, 0, 64, 0
5, 380880, Note_on_c, 0, 63, 64
5, 380996, Note_on_c, 0, 63, 0
5, 381000, Note_on_c, 0, 64, 64
5, 381116, Note_on_c, 0, 64, 0
5, 381120, Note_on_c, 0, 66, 64
5, 381236, Note_on_c, 0, 66, 0
5, 381240, Note_on_c, 0, 64, 64
5, 381356, Note_on_c, 0, 64, 0
5, 381360, Note_on_c, 0, 63, 64
5, 381476, Note_on_c, 0, 63, 0
5, 381480, Note_on_c, 0, 61, 64
5, 381596, Note_on_c, 0, 61, 0
5, 381600, Note_on_c, 0, 59, 64
5, 381716, Note_on_c, 0, 59, 0
5, 381720, Note_on_c, 0, 63, 64
5, 381836, Note_on_c, 0, 63, 0
5, 381840, Note_on_c, 0, 64, 64
5, 381956, Note_on_c, 0, 64, 0
5, 381960, Note_on_c, 0, 66, 64
5, 382076, Note_on_c, 0, 66, 0
5, 382080, Note_on_c, 0, 67, 64
5, 382196, Note_on_c, 0, 67, 0
5, 382200, Note_on_c, 0, 69, 64
5, 382316, Note_on_c, 0, 69, 0
5, 382320, Note_on_c, 0, 71, 64
5, 382436, Note_on_c, 0, 71, 0
5, 382440, Note_on_c, 0, 69, 64
5, 382556, Note_on_c, 0, 69, 0
5, 382560, Note_on_c, 0, 67, 64
5, 382676, Note_on_c, 0, 67, 0
5, 382680, Note_on_c, 0, 69, 64
5, 382796, Note_on_c, 0, 69, 0
5, 382800, Note_on_c, 0, 71, 64
5, 382916, Note_on_c, 0, 71, 0
5, 382920, Note_on_c, 0, 72, 64
5, 383036, Note_on_c, 0, 72, 0
5, 383040, Note_on_c, 0, 74, 64
5, 383276, Note_on_c, 0, 74, 0
5, 383280, Note_on_c, 0, 74, 64
5, 383516, Note_on_c, 0, 74, 0
5, 383520, Note_on_c, 0, 74, 64
5, 383756, Note_on_c, 0, 74, 0
5, 383760, Note_on_c, 0, 74, 64
5, 383996, Note_on_c, 0, 74, 0
5, 384000, Note_on_c, 0, 74, 64
5, 384236, Note_on_c, 0, 74, 0
5, 384240, Note_on_c, 0, 74, 64
5, 384476, Note_on_c, 0, 74, 0
5, 384480, Note_on_c, 0, 74, 64
5, 384716, Note_on_c, 0, 74, 0
5, 384720, Note_on_c, 0, 78, 64
5, 384836, Note_on_c, 0, 78, 0
5, 384840, Note_on_c, 0, 76, 64
5, 384956, Note_on_c, 0, 76, 0
5, 384960, Note_on_c, 0, 74, 64
5, 385076, Note_on_c, 0, 74, 0
5, 385080, Note_on_c, 0, 72, 64
5, 385196, Note_on_c, 0, 72, 0
5, 385200, Note_on_c, 0, 71, 64
5, 385316, Note_on_c, 0, 71, 0
5, 385320, Note_on_c, 0, 72, 64
5, 385556, Note_on_c, 0, 72, 0
5, 385560, Note_on_c, 0, 69, 64
5, 385796, Note_on_c, 0, 69, 0
5, 386040, Note_on_c, 0, 62, 64
5, 386156, Note_on_c, 0, 62, 0
5, 386160, Note_on_c, 0, 65, 64
5, 386276, Note_on_c, 0, 65, 0
5, 386280, Note_on_c, 0, 69, 64
5, 386396, Note_on_c, 0, 69, 0
5, 386400, Note_on_c, 0, 65, 64
5, 386516, Note_on_c, 0, 65, 0
5, 386520, Note_on_c, 0, 62, 64
5, 386636, Note_on_c, 0, 62, 0
5, 386640, Note_on_c, 0, 71, 64
5, 386876, Note_on_c, 0, 71, 0
5, 386880, Note_on_c, 0, 71, 64
5, 387116, Note_on_c, 0, 71, 0
5, 387120, Note_on_c, 0, 71, 64
5, 387356, Note_on_c, 0, 71, 0
5, 387360, Note_on_c, 0, 71, 64
5, 387476, Note_on_c, 0, 71, 0
5, 387480, Note_on_c, 0, 60, 64
5, 387596, Note_on_c, 0, 60, 0
5, 387600, Note_on_c, 0, 64, 64
5, 387716, Note_on_c, 0, 64, 0
5, 387720, Note_on_c, 0, 67, 64
5, 387836, Note_on_c, 0, 67, 0
5, 387840, Note_on_c, 0, 64, 64
5, 387956, Note_on_c, 0, 64, 0
5, 387960, Note_on_c, 0, 60, 64
5, 388076, Note_on_c, 0, 60, 0
5, 388080, Note_on_c, 0, 69, 64
5, 388316, Note_on_c, 0, 69, 0
5, 388320, Note_on_c, 0, 69, 64
5, 388556, Note_on_c, 0, 69, 0
5, 388560, Note_on_c, 0, 69, 64
5, 388796, Note_on_c, 0, 69, 0
5, 388800, Note_on_c, 0, 59, 64
5, 388916, Note_on_c, 0, 59, 0
5, 388920, Note_on_c, 0, 62, 64
5, 389036, Note_on_c, 0, 62, 0
5, 389040, Note_on_c, 0, 55, 64
5, 389156, Note_on_c, 0, 55, 0
5, 389160, Note_on_c, 0, 62, 64
5, 389276, Note_on_c, 0, 62, 0
5, 389280, Note_on_c, 0, 59, 64
5, 389396, Note_on_c, 0, 59, 0
5, 389400, Note_on_c, 0, 62, 64
5, 389516, Note_on_c, 0, 62, 0
5, 389520, Note_on_c, 0, 60, 64
5, 389636, Note_on_c, 0, 60, 0
5, 389640, Note_on_c, 0, 64, 64
5, 389756, Note_on_c, 0, 64, 0
5, 389760, Note_on_c, 0, 55, 64
5, 389876, Note_on_c, 0, 55, 0
5, 389880, Note_on_c, 0, 64, 64
5, 389996, Note_on_c, 0, 64, 0
5, 390000, Note_on_c, 0, 60, 64
5, 390116, Note_on_c, 0, 60, 0
5, 390120, Note_on_c, 0, 64, 64
5, 390236, Note_on_c, 0, 64, 0
5, 390240, Note_on_c, 0, 62, 64
5, 390356, Note_on_c, 0, 62, 0
5, 390360, Note_on_c, 0, 65, 64
5, 390476, Note_on_c, 0, 65, 0
5, 390480, Note_on_c, 0, 55, 64
5, 390596, Note_on_c, 0, 55, 0
5, 390600, Note_on_c, 0, 65, 64
5, 390716, Note_on_c, 0, 65, 0
5, 390720, Note_on_c, 0, 62, 64
5, 390836, Note_on_c, 0, 62, 0
5, 390840, Note_on_c, 0, 65, 64
5, 390956, Note_on_c, 0, 65, 0
5, 390960, Note_on_c, 0, 64, 64
5, 391076, Note_on_c, 0, 64, 0
5, 391080, Note_on_c, 0, 67, 64
5, 391196, Note_on_c, 0, 67, 0
5, 391200, Note_on_c, 0, 55, 64
5, 391316, Note_on_c, 0, 55, 0
5, 391320, Note_on_c, 0, 67, 64
5, 391436, Note_on_c, 0, 67, 0
5, 391440, Note_on_c, 0, 64, 64
5, 391556, Note_on_c, 0, 64, 0
5, 391560, Note_on_c, 0, 67, 64
5, 391676, Note_on_c, 0, 67, 0
5, 391680, Note_on_c, 0, 65, 64
5, 391796, Note_on_c, 0, 65, 0
5, 391800, Note_on_c, 0, 59, 64
5, 391916, Note_on_c, 0, 59, 0
5, 391920, Note_on_c, 0, 65, 64
5, 392036, Note_on_c, 0, 65, 0
5, 392040, Note_on_c, 0, 59, 64
5, 392156, Note_on_c, 0, 59, 0
5, 392160, Note_on_c, 0, 65, 64
5, 392276, Note_on_c, 0, 65, 0
5, 392280, Note_on_c, 0, 59, 64
5, 392396, Note_on_c, 0, 59, 0
5, 392400, Note_on_c, 0, 64, 64
5, 392516, Note_on_c, 0, 64, 0
5, 392520, Note_on_c, 0, 60, 64
5, 392636, Note_on_c, 0, 60, 0
5, 392640, Note_on_c, 0, 64, 64
5, 392756, Note_on_c, 0, 64, 0
5, 392760, Note_on_c, 0, 60, 64
5, 392876, Note_on_c, 0, 60, 0
5, 392880, Note_on_c, 0, 64, 64
5, 392996, Note_on_c, 0, 64, 0
5, 393000, Note_on_c, 0, 60, 64
5, 393116, Note_on_c, 0, 60, 0
5, 393120, Note_on_c, 0, 62, 64
5, 393236, Note_on_c, 0, 62, 0
5, 393240, Note_on_c, 0, 55, 64
5, 393356, Note_on_c, 0, 55, 0
5, 393360, Note_on_c, 0, 62, 64
5, 393476, Note_on_c, 0, 62, 0
5, 393480, Note_on_c, 0, 55, 64
5, 393596, Note_on_c, 0, 55, 0
5, 393600, Note_on_c, 0, 62, 64
5, 393716, Note_on_c, 0, 62, 0
5, 393720, Note_on_c, 0, 55, 64
5, 393836, Note_on_c, 0, 55, 0
5, 393840, Note_on_c, 0, 60, 64
5, 393956, Note_on_c, 0, 60, 0
5, 393960, Note_on_c, 0, 55, 64
5, 394076, Note_on_c, 0, 55, 0
5, 394080, Note_on_c, 0, 60, 64
5, 394196, Note_on_c, 0, 60, 0
5, 394200, Note_on_c, 0, 55, 64
5, 394316, Note_on_c, 0, 55, 0
5, 394320, Note_on_c, 0, 60, 64
5, 394436, Note_on_c, 0, 60, 0
5, 394440, Note_on_c, 0, 55, 64
5, 394556, Note_on_c, 0, 55, 0
5, 394560, Note_on_c, 0, 60, 64
5, 394796, Note_on_c, 0, 60, 0
5, 394800, Note_on_c, 0, 63, 64
5, 395036, Note_on_c, 0, 63, 0
5, 395040, Note_on_c, 0, 69, 64
5, 395276, Note_on_c, 0, 69, 0
5, 395280, Note_on_c, 0, 63, 64
5, 395516, Note_on_c, 0, 63, 0
5, 395520, Note_on_c, 0, 69, 64
5, 395756, Note_on_c, 0, 69, 0
5, 395760, Note_on_c, 0, 72, 64
5, 395996, Note_on_c, 0, 72, 0
5, 396000, Note_on_c, 0, 71, 64
5, 396116, Note_on_c, 0, 71, 0
5, 396120, Note_on_c, 0, 74, 64
5, 396236, Note_on_c, 0, 74, 0
5, 396240, Note_on_c, 0, 67, 64
5, 396356, Note_on_c, 0, 67, 0
5, 396360, Note_on_c, 0, 74, 64
5, 396476, Note_on_c, 0, 74, 0
5, 396480, Note_on_c, 0, 71, 64
5, 396596, Note_on_c, 0, 71, 0
5, 396600, Note_on_c, 0, 69, 64
5, 396716, Note_on_c, 0, 69, 0
5, 396720, Note_on_c, 0, 71, 64
5, 396836, Note_on_c, 0, 71, 0
5, 396840, Note_on_c, 0, 74, 64
5, 396956, Note_on_c, 0, 74, 0
5, 396960, Note_on_c, 0, 67, 64
5, 397076, Note_on_c, 0, 67, 0
5, 397080, Note_on_c, 0, 74, 64
5, 397196, Note_on_c, 0, 74, 0
5, 397200, Note_on_c, 0, 71, 64
5, 397316, Note_on_c, 0, 71, 0
5, 397320, Note_on_c, 0, 74, 64
5, 397436, Note_on_c, 0, 74, 0
5, 397440, Note_on_c, 0, 72, 64
5, 397556, Note_on_c, 0, 72, 0
5, 397560, Note_on_c, 0, 74, 64
5, 397676, Note_on_c, 0, 74, 0
5, 397680, Note_on_c, 0, 76, 64
5, 397796, Note_on_c, 0, 76, 0
5, 397800, Note_on_c, 0, 72, 64
5, 397916, Note_on_c, 0, 72, 0
5, 397920, Note_on_c, 0, 71, 64
5, 398036, Note_on_c, 0, 71, 0
5, 398040, Note_on_c, 0, 72, 64
5, 398156, Note_on_c, 0, 72, 0
5, 398160, Note_on_c, 0, 69, 64
5, 398276, Note_on_c, 0, 69, 0
5, 398280, Note_on_c, 0, 72, 64
5, 398396, Note_on_c, 0, 72, 0
5, 398400, Note_on_c, 0, 76, 64
5, 398516, Note_on_c, 0, 76, 0
5, 398520, Note_on_c, 0, 72, 64
5, 398636, Note_on_c, 0, 72, 0
5, 398640, Note_on_c, 0, 71, 64
5, 398756, Note_on_c, 0, 71, 0
5, 398760, Note_on_c, 0, 72, 64
5, 398876, Note_on_c, 0, 72, 0
5, 398880, Note_on_c, 0, 67, 64
5, 398996, Note_on_c, 0, 67, 0
5, 399000, Note_on_c, 0, 72, 64
5, 399056, Note_on_c, 0, 72, 0
5, 399060, Note_on_c, 0, 74, 64
5, 399116, Note_on_c, 0, 74, 0
5, 399120, Note_on_c, 0, 76, 64
5, 399236, Note_on_c, 0, 76, 0
5, 399240, Note_on_c, 0, 72, 64
5, 399356, Note_on_c, 0, 72, 0
5, 399360, Note_on_c, 0, 71, 64
5, 399476, Note_on_c, 0, 71, 0
5, 399480, Note_on_c, 0, 72, 64
5, 399596, Note_on_c, 0, 72, 0
5, 399600, Note_on_c, 0, 65, 64
5, 399716, Note_on_c, 0, 65, 0
5, 399720, Note_on_c, 0, 72, 64
5, 399836, Note_on_c, 0, 72, 0
5, 399840, Note_on_c, 0, 76, 64
5, 399956, Note_on_c, 0, 76, 0
5, 399960, Note_on_c, 0, 72, 64
5, 400076, Note_on_c, 0, 72, 0
5, 400080, Note_on_c, 0, 71, 64
5, 400196, Note_on_c, 0, 71, 0
5, 400200, Note_on_c, 0, 72, 64
5, 400316, Note_on_c, 0, 72, 0
5, 400320, Note_on_c, 0, 67, 64
5, 400436, Note_on_c, 0, 67, 0
5, 400440, Note_on_c, 0, 72, 64
5, 400496, Note_on_c, 0, 72, 0
5, 400500, Note_on_c, 0, 74, 64
5, 400556, Note_on_c, 0, 74, 0
5, 400560, Note_on_c, 0, 76, 64
5, 400676, Note_on_c, 0, 76, 0
5, 400680, Note_on_c, 0, 72, 64
5, 400796, Note_on_c, 0, 72, 0
5, 400800, Note_on_c, 0, 71, 64
5, 400916, Note_on_c, 0, 71, 0
5, 400920, Note_on_c, 0, 72, 64
5, 401036, Note_on_c, 0, 72, 0
5, 401040, Note_on_c, 0, 69, 64
5, 401156, Note_on_c, 0, 69, 0
5, 401160, Note_on_c, 0, 72, 64
5, 401276, Note_on_c, 0, 72, 0
5, 401280, Note_on_c, 0, 76, 64
5, 401396, Note_on_c, 0, 76, 0
5, 401400, Note_on_c, 0, 72, 64
5, 401516, Note_on_c, 0, 72, 0
5, 401520, Note_on_c, 0, 71, 64
5, 401636, Note_on_c, 0, 71, 0
5, 401640, Note_on_c, 0, 72, 64
5, 401756, Note_on_c, 0, 72, 0
5, 401760, Note_on_c, 0, 67, 64
5, 401876, Note_on_c, 0, 67, 0
5, 401880, Note_on_c, 0, 72, 64
5, 401936, Note_on_c, 0, 72, 0
5, 401940, Note_on_c, 0, 74, 64
5, 401996, Note_on_c, 0, 74, 0
5, 402000, Note_on_c, 0, 76, 64
5, 402116, Note_on_c, 0, 76, 0
5, 402120, Note_on_c, 0, 72, 64
5, 402236, Note_on_c, 0, 72, 0
5, 402240, Note_on_c, 0, 67, 64
5, 402356, Note_on_c, 0, 67, 0
5, 402360, Note_on_c, 0, 71, 64
5, 402476, Note_on_c, 0, 71, 0
5, 402480, Note_on_c, 0, 72, 64
5, 402596, Note_on_c, 0, 72, 0
5, 402600, Note_on_c, 0, 69, 64
5, 402716, Note_on_c, 0, 69, 0
5, 402720, Note_on_c, 0, 67, 64
5, 402836, Note_on_c, 0, 67, 0
5, 402840, Note_on_c, 0, 65, 64
5, 402956, Note_on_c, 0, 65, 0
5, 402960, Note_on_c, 0, 64, 64
5, 403076, Note_on_c, 0, 64, 0
5, 403080, Note_on_c, 0, 62, 64
5, 403196, Note_on_c, 0, 62, 0
5, 403200, Note_on_c, 0, 60, 64
5, 403316, Note_on_c, 0, 60, 0
5, 403320, Note_on_c, 0, 59, 64
5, 403436, Note_on_c, 0, 59, 0
5, 403440, Note_on_c, 0, 60, 64
5, 403556, Note_on_c, 0, 60, 0
5, 403560, Note_on_c, 0, 62, 64
5, 403676, Note_on_c, 0, 62, 0
5, 403680, Note_on_c, 0, 64, 64
5, 403796, Note_on_c, 0, 64, 0
5, 403800, Note_on_c, 0, 65, 64
5, 403916, Note_on_c, 0, 65, 0
5, 403920, Note_on_c, 0, 67, 64
5, 404036, Note_on_c, 0, 67, 0
5, 404040, Note_on_c, 0, 69, 64
5, 404156, Note_on_c, 0, 69, 0
5, 404160, Note_on_c, 0, 67, 64
5, 404276, Note_on_c, 0, 67, 0
5, 404280, Note_on_c, 0, 65, 64
5, 404396, Note_on_c, 0, 65, 0
5, 404400, Note_on_c, 0, 64, 64
5, 404516, Note_on_c, 0, 64, 0
5, 404520, Note_on_c, 0, 62, 64
5, 404636, Note_on_c, 0, 62, 0
5, 404640, Note_on_c, 0, 64, 64
5, 404876, Note_on_c, 0, 64, 0
5, 404880, Note_on_c, 0, 67, 64
5, 405116, Note_on_c, 0, 67, 0
5, 405120, Note_on_c, 0, 72, 64
5, 405356, Note_on_c, 0, 72, 0
5, 405360, Note_on_c, 0, 71, 64
5, 405476, Note_on_c, 0, 71, 0
5, 405480, Note_on_c, 0, 72, 64
5, 405596, Note_on_c, 0, 72, 0
5, 405600, Note_on_c, 0, 71, 64
5, 405716, Note_on_c, 0, 71, 0
5, 405720, Note_on_c, 0, 69, 64
5, 405836, Note_on_c, 0, 69, 0
5, 405840, Note_on_c, 0, 67, 64
5, 405956, Note_on_c, 0, 67, 0
5, 405960, Note_on_c, 0, 65, 64
5, 406076, Note_on_c, 0, 65, 0
5, 406080, Note_on_c, 0, 64, 64
5, 406316, Note_on_c, 0, 64, 0
5, 406320, Note_on_c, 0, 60, 64
5, 406556, Note_on_c, 0, 60, 0
5, 406560, Note_on_c, 0, 67, 64
5, 406796, Note_on_c, 0, 67, 0
5, 406800, Note_on_c, 0, 67, 64
5, 407036, Note_on_c, 0, 67, 0
5, 407040, Note_on_c, 0, 67, 64
5, 407276, Note_on_c, 0, 67, 0
5, 407280, Note_on_c, 0, 67, 64
5, 407516, Note_on_c, 0, 67, 0
5, 407520, Note_on_c, 0, 67, 64
5, 407756, Note_on_c, 0, 67, 0
5, 407760, Note_on_c, 0, 67, 64
5, 407996, Note_on_c, 0, 67, 0
5, 408000, Note_on_c, 0, 67, 64
5, 408236, Note_on_c, 0, 67, 0
5, 408240, Note_on_c, 0, 67, 64
5, 408476, Note_on_c, 0, 67, 0
5, 408480, Note_on_c, 0, 67, 64
5, 408716, Note_on_c, 0, 67, 0
5, 408720, Note_on_c, 0, 67, 64
5, 408956, Note_on_c, 0, 67, 0
5, 408960, Note_on_c, 0, 67, 64
5, 409196, Note_on_c, 0, 67, 0
5, 409200, Note_on_c, 0, 72, 64
5, 409436, Note_on_c, 0, 72, 0
5, 409440, Note_on_c, 0, 67, 64
5, 409676, Note_on_c, 0, 67, 0
5, 409680, Note_on_c, 0, 69, 64
5, 409796, Note_on_c, 0, 69, 0
5, 409800, Note_on_c, 0, 71, 64
5, 409916, Note_on_c, 0, 71, 0
5, 409920, Note_on_c, 0, 69, 64
5, 410036, Note_on_c, 0, 69, 0
5, 410040, Note_on_c, 0, 67, 64
5, 410156, Note_on_c, 0, 67, 0
5, 410160, Note_on_c, 0, 66, 64
5, 410276, Note_on_c, 0, 66, 0
5, 410280, Note_on_c, 0, 64, 64
5, 410396, Note_on_c, 0, 64, 0
5, 410400, Note_on_c, 0, 66, 64
5, 410636, Note_on_c, 0, 66, 0
5, 410640, Note_on_c, 0, 71, 64
5, 410876, Note_on_c, 0, 71, 0
5, 410880, Note_on_c, 0, 66, 64
5, 411116, Note_on_c, 0, 66, 0
5, 411120, Note_on_c, 0, 67, 64
5, 411236, Note_on_c, 0, 67, 0
5, 411240, Note_on_c, 0, 69, 64
5, 411356, Note_on_c, 0, 69, 0
5, 411360, Note_on_c, 0, 67, 64
5, 411476, Note_on_c, 0, 67, 0
5, 411480, Note_on_c, 0, 66, 64
5, 411596, Note_on_c, 0, 66, 0
5, 411600, Note_on_c, 0, 64, 64
5, 411716, Note_on_c, 0, 64, 0
5, 411720, Note_on_c, 0, 62, 64
5, 411836, Note_on_c, 0, 62, 0
5, 411840, Note_on_c, 0, 64, 64
5, 412076, Note_on_c, 0, 64, 0
5, 412080, Note_on_c, 0, 69, 64
5, 412316, Note_on_c, 0, 69, 0
5, 412320, Note_on_c, 0, 64, 64
5, 412556, Note_on_c, 0, 64, 0
5, 412560, Note_on_c, 0, 66, 64
5, 412796, Note_on_c, 0, 66, 0
5, 412800, Note_on_c, 0, 69, 64
5, 413036, Note_on_c, 0, 69, 0
5, 413040, Note_on_c, 0, 74, 64
5, 413276, Note_on_c, 0, 74, 0
5, 413280, Note_on_c, 0, 67, 64
5, 413516, Note_on_c, 0, 67, 0
5, 413520, Note_on_c, 0, 71, 64
5, 413756, Note_on_c, 0, 71, 0
5, 413760, Note_on_c, 0, 74, 64
5, 413996, Note_on_c, 0, 74, 0
5, 414000, Note_on_c, 0, 66, 64
5, 414236, Note_on_c, 0, 66, 0
5, 414240, Note_on_c, 0, 69, 64
5, 414476, Note_on_c, 0, 69, 0
5, 414480, Note_on_c, 0, 74, 64
5, 414716, Note_on_c, 0, 74, 0
5, 414720, Note_on_c, 0, 67, 64
5, 414956, Note_on_c, 0, 67, 0
5, 414960, Note_on_c, 0, 71, 64
5, 415196, Note_on_c, 0, 71, 0
5, 415200, Note_on_c, 0, 74, 64
5, 415436, Note_on_c, 0, 74, 0
5, 415440, Note_on_c, 0, 62, 64
5, 415676, Note_on_c, 0, 62, 0
5, 415680, Note_on_c, 0, 69, 64
5, 415916, Note_on_c, 0, 69, 0
5, 415920, Note_on_c, 0, 74, 64
5, 416156, Note_on_c, 0, 74, 0
5, 416160, Note_on_c, 0, 55, 64
5, 416276, Note_on_c, 0, 55, 0
5, 416280, Note_on_c, 0, 54, 64
5, 416396, Note_on_c, 0, 54, 0
5, 416400, Note_on_c, 0, 55, 64
5, 416516, Note_on_c, 0, 55, 0
5, 416520, Note_on_c, 0, 57, 64
5, 416636, Note_on_c, 0, 57, 0
5, 416640, Note_on_c, 0, 59, 64
5, 416756, Note_on_c, 0, 59, 0
5, 416760, Note_on_c, 0, 60, 64
5, 416876, Note_on_c, 0, 60, 0
5, 416880, Note_on_c, 0, 62, 64
5, 416996, Note_on_c, 0, 62, 0
5, 417000, Note_on_c, 0, 64, 64
5, 417116, Note_on_c, 0, 64, 0
5, 417120, Note_on_c, 0, 62, 64
5, 417236, Note_on_c, 0, 62, 0
5, 417240, Note_on_c, 0, 60, 64
5, 417356, Note_on_c, 0, 60, 0
5, 417360, Note_on_c, 0, 59, 64
5, 417476, Note_on_c, 0, 59, 0
5, 417480, Note_on_c, 0, 57, 64
5, 417596, Note_on_c, 0, 57, 0
5, 417600, Note_on_c, 0, 55, 64
5, 417836, Note_on_c, 0, 55, 0
5, 417840, Note_on_c, 0, 59, 64
5, 418076, Note_on_c, 0, 59, 0
5, 418080, Note_on_c, 0, 62, 64
5, 418316, Note_on_c, 0, 62, 0
5, 418320, Note_on_c, 0, 69, 64
5, 418556, Note_on_c, 0, 69, 0
5, 418560, Note_on_c, 0, 72, 64
5, 418796, Note_on_c, 0, 72, 0
5, 418800, Note_on_c, 0, 62, 64
5, 419036, Note_on_c, 0, 62, 0
5, 419040, Note_on_c, 0, 71, 64
5, 419276, Note_on_c, 0, 71, 0
5, 419280, Note_on_c, 0, 71, 64
5, 419516, Note_on_c, 0, 71, 0
5, 419520, Note_on_c, 0, 71, 64
5, 419756, Note_on_c, 0, 71, 0
5, 419760, Note_on_c, 0, 71, 64
5, 419996, Note_on_c, 0, 71, 0
5, 420000, Note_on_c, 0, 71, 64
5, 420236, Note_on_c, 0, 71, 0
5, 420240, Note_on_c, 0, 71, 64
5, 420476, Note_on_c, 0, 71, 0
5, 420480, Note_on_c, 0, 69, 64
5, 420716, Note_on_c, 0, 69, 0
5, 420720, Note_on_c, 0, 69, 64
5, 420956, Note_on_c, 0, 69, 0
5, 420960, Note_on_c, 0, 69, 64
5, 421196, Note_on_c, 0, 69, 0
5, 421200, Note_on_c, 0, 69, 64
5, 421436, Note_on_c, 0, 69, 0
5, 421440, Note_on_c, 0, 69, 64
5, 421676, Note_on_c, 0, 69, 0
5, 421680, Note_on_c, 0, 69, 64
5, 421916, Note_on_c, 0, 69, 0
5, 421920, Note_on_c, 0, 67, 64
5, 422156, Note_on_c, 0, 67, 0
5, 422160, Note_on_c, 0, 67, 64
5, 422396, Note_on_c, 0, 67, 0
5, 422400, Note_on_c, 0, 67, 64
5, 422636, Note_on_c, 0, 67, 0
5, 422640, Note_on_c, 0, 67, 64
5, 422876, Note_on_c, 0, 67, 0
5, 422880, Note_on_c, 0, 67, 64
5, 423116, Note_on_c, 0, 67, 0
5, 423120, Note_on_c, 0, 67, 64
5, 423356, Note_on_c, 0, 67, 0
5, 423360, Note_on_c, 0, 66, 64
5, 423476, Note_on_c, 0, 66, 0
5, 423480, Note_on_c, 0, 69, 64
5, 423596, Note_on_c, 0, 69, 0
5, 423600, Note_on_c, 0, 62, 64
5, 423716, Note_on_c, 0, 62, 0
5, 423720, Note_on_c, 0, 69, 64
5, 423836, Note_on_c, 0, 69, 0
5, 423840, Note_on_c, 0, 66, 64
5, 423956, Note_on_c, 0, 66, 0
5, 423960, Note_on_c, 0, 69, 64
5, 424076, Note_on_c, 0, 69, 0
5, 424080, Note_on_c, 0, 67, 64
5, 424196, Note_on_c, 0, 67, 0
5, 424200, Note_on_c, 0, 71, 64
5, 424316, Note_on_c, 0, 71, 0
5, 424320, Note_on_c, 0, 62, 64
5, 424436, Note_on_c, 0, 62, 0
5, 424440, Note_on_c, 0, 71, 64
5, 424556, Note_on_c, 0, 71, 0
5, 424560, Note_on_c, 0, 67, 64
5, 424676, Note_on_c, 0, 67, 0
5, 424680, Note_on_c, 0, 71, 64
5, 424796, Note_on_c, 0, 71, 0
5, 424800, Note_on_c, 0, 69, 64
5, 424916, Note_on_c, 0, 69, 0
5, 424920, Note_on_c, 0, 72, 64
5, 425036, Note_on_c, 0, 72, 0
5, 425040, Note_on_c, 0, 62, 64
5, 425156, Note_on_c, 0, 62, 0
5, 425160, Note_on_c, 0, 72, 64
5, 425276, Note_on_c, 0, 72, 0
5, 425280, Note_on_c, 0, 69, 64
5, 425396, Note_on_c, 0, 69, 0
5, 425400, Note_on_c, 0, 72, 64
5, 425516, Note_on_c, 0, 72, 0
5, 425520, Note_on_c, 0, 71, 64
5, 425636, Note_on_c, 0, 71, 0
5, 425640, Note_on_c, 0, 74, 64
5, 425756, Note_on_c, 0, 74, 0
5, 425760, Note_on_c, 0, 62, 64
5, 425876, Note_on_c, 0, 62, 0
5, 425880, Note_on_c, 0, 74, 64
5, 425996, Note_on_c, 0, 74, 0
5, 426000, Note_on_c, 0, 71, 64
5, 426116, Note_on_c, 0, 71, 0
5, 426120, Note_on_c, 0, 74, 64
5, 426236, Note_on_c, 0, 74, 0
5, 426240, Note_on_c, 0, 72, 64
5, 426356, Note_on_c, 0, 72, 0
5, 426360, Note_on_c, 0, 66, 64
5, 426476, Note_on_c, 0, 66, 0
5, 426480, Note_on_c, 0, 72, 64
5, 426596, Note_on_c, 0, 72, 0
5, 426600, Note_on_c, 0, 66, 64
5, 426716, Note_on_c, 0, 66, 0
5, 426720, Note_on_c, 0, 72, 64
5, 426836, Note_on_c, 0, 72, 0
5, 426840, Note_on_c, 0, 66, 64
5, 426956, Note_on_c, 0, 66, 0
5, 426960, Note_on_c, 0, 71, 64
5, 427076, Note_on_c, 0, 71, 0
5, 427080, Note_on_c, 0, 67, 64
5, 427196, Note_on_c, 0, 67, 0
5, 427200, Note_on_c, 0, 71, 64
5, 427316, Note_on_c, 0, 71, 0
5, 427320, Note_on_c, 0, 67, 64
5, 427436, Note_on_c, 0, 67, 0
5, 427440, Note_on_c, 0, 71, 64
5, 427556, Note_on_c, 0, 71, 0
5, 427560, Note_on_c, 0, 67, 64
5, 427676, Note_on_c, 0, 67, 0
5, 427680, Note_on_c, 0, 69, 64
5, 427796, Note_on_c, 0, 69, 0
5, 427800, Note_on_c, 0, 62, 64
5, 427916, Note_on_c, 0, 62, 0
5, 427920, Note_on_c, 0, 69, 64
5, 428036, Note_on_c, 0, 69, 0
5, 428040, Note_on_c, 0, 62, 64
5, 428156, Note_on_c, 0, 62, 0
5, 428160, Note_on_c, 0, 69, 64
5, 428276, Note_on_c, 0, 69, 0
5, 428280, Note_on_c, 0, 62, 64
5, 428396, Note_on_c, 0, 62, 0
5, 428400, Note_on_c, 0, 67, 64
5, 428516, Note_on_c, 0, 67, 0
5, 428520, Note_on_c, 0, 62, 64
5, 428636, Note_on_c, 0, 62, 0
5, 428640, Note_on_c, 0, 67, 64
5, 428756, Note_on_c, 0, 67, 0
5, 428760, Note_on_c, 0, 62, 64
5, 428876, Note_on_c, 0, 62, 0
5, 428880, Note_on_c, 0, 67, 64
5, 428996, Note_on_c, 0, 67, 0
5, 429000, Note_on_c, 0, 62, 64
5, 429116, Note_on_c, 0, 62, 0
5, 429120, Note_on_c, 0, 69, 64
5, 429236, Note_on_c, 0, 69, 0
5, 429240, Note_on_c, 0, 72, 64
5, 429356, Note_on_c, 0, 72, 0
5, 429360, Note_on_c, 0, 62, 64
5, 429476, Note_on_c, 0, 62, 0
5, 429480, Note_on_c, 0, 72, 64
5, 429596, Note_on_c, 0, 72, 0
5, 429600, Note_on_c, 0, 69, 64
5, 429716, Note_on_c, 0, 69, 0
5, 429720, Note_on_c, 0, 72, 64
5, 429836, Note_on_c, 0, 72, 0
5, 429840, Note_on_c, 0, 69, 64
5, 429956, Note_on_c, 0, 69, 0
5, 429960, Note_on_c, 0, 72, 64
5, 430076, Note_on_c, 0, 72, 0
5, 430080, Note_on_c, 0, 62, 64
5, 430196, Note_on_c, 0, 62, 0
5, 430200, Note_on_c, 0, 72, 64
5, 430316, Note_on_c, 0, 72, 0
5, 430320, Note_on_c, 0, 69, 64
5, 430436, Note_on_c, 0, 69, 0
5, 430440, Note_on_c, 0, 72, 64
5, 430556, Note_on_c, 0, 72, 0
5, 430560, Note_on_c, 0, 71, 64
5, 430796, Note_on_c, 0, 71, 0
5, 430800, Note_on_c, 0, 55, 64
5, 431036, Note_on_c, 0, 55, 0
5, 431040, Note_on_c, 0, 55, 64
5, 431276, Note_on_c, 0, 55, 0
5, 431280, Note_on_c, 0, 55, 64
5, 431516, Note_on_c, 0, 55, 0
5, 431520, Note_on_c, 0, 55, 64
5, 431756, Note_on_c, 0, 55, 0
5, 431760, Note_on_c, 0, 55, 64
5, 431996, Note_on_c, 0, 55, 0
5, 432000, Note_on_c, 0, 55, 64
5, 432236, Note_on_c, 0, 55, 0
5, 432240, Note_on_c, 0, 55, 64
5, 432476, Note_on_c, 0, 55, 0
5, 432480, Note_on_c, 0, 55, 64
5, 432716, Note_on_c, 0, 55, 0
5, 432720, Note_on_c, 0, 55, 64
5, 432956, Note_on_c, 0, 55, 0
5, 432960, Note_on_c, 0, 55, 64
5, 433196, Note_on_c, 0, 55, 0
5, 433200, Note_on_c, 0, 55, 64
5, 433436, Note_on_c, 0, 55, 0
5, 433440, Note_on_c, 0, 62, 64
5, 433676, Note_on_c, 0, 62, 0
5, 433680, Note_on_c, 0, 62, 64
5, 433916, Note_on_c, 0, 62, 0
5, 433920, Note_on_c, 0, 62, 64
5, 434156, Note_on_c, 0, 62, 0
5, 434160, Note_on_c, 0, 62, 64
5, 434396, Note_on_c, 0, 62, 0
5, 434400, Note_on_c, 0, 62, 64
5, 434636, Note_on_c, 0, 62, 0
5, 434640, Note_on_c, 0, 62, 64
5, 434876, Note_on_c, 0, 62, 0
5, 434880, Note_on_c, 0, 62, 64
5, 435116, Note_on_c, 0, 62, 0
5, 435120, Note_on_c, 0, 55, 64
5, 435236, Note_on_c, 0, 55, 0
5, 435240, Note_on_c, 0, 57, 64
5, 435356, Note_on_c, 0, 57, 0
5, 435360, Note_on_c, 0, 62, 64
5, 435596, Note_on_c, 0, 62, 0
5, 435600, Note_on_c, 0, 50, 64
5, 435836, Note_on_c, 0, 50, 0
5, 435840, Note_on_c, 0, 57, 64
5, 436076, Note_on_c, 0, 57, 0
5, 436080, Note_on_c, 0, 60, 64
5, 436316, Note_on_c, 0, 60, 0
5, 436320, Note_on_c, 0, 59, 64
5, 437756, Note_on_c, 0, 59, 0
5, 437760, Note_on_c, 0, 69, 64
5, 437996, Note_on_c, 0, 69, 0
5, 438000, Note_on_c, 0, 69, 64
5, 438236, Note_on_c, 0, 69, 0
5, 438240, Note_on_c, 0, 69, 64
5, 438476, Note_on_c, 0, 69, 0
5, 438480, Note_on_c, 0, 69, 64
5, 438716, Note_on_c, 0, 69, 0
5, 438720, Note_on_c, 0, 69, 64
5, 438956, Note_on_c, 0, 69, 0
5, 438960, Note_on_c, 0, 69, 64
5, 439196, Note_on_c, 0, 69, 0
5, 439200, Note_on_c, 0, 69, 64
5, 439436, Note_on_c, 0, 69, 0
5, 439440, Note_on_c, 0, 69, 64
5, 439676, Note_on_c, 0, 69, 0
5, 439680, Note_on_c, 0, 69, 64
5, 439916, Note_on_c, 0, 69, 0
5, 439920, Note_on_c, 0, 69, 64
5, 440156, Note_on_c, 0, 69, 0
5, 440160, Note_on_c, 0, 69, 64
5, 440396, Note_on_c, 0, 69, 0
5, 440400, Note_on_c, 0, 69, 64
5, 440636, Note_on_c, 0, 69, 0
5, 440640, Note_on_c, 0, 67, 64
5, 440756, Note_on_c, 0, 67, 0
5, 440760, Note_on_c, 0, 66, 64
5, 440876, Note_on_c, 0, 66, 0
5, 440880, Note_on_c, 0, 64, 64
5, 440996, Note_on_c, 0, 64, 0
5, 441000, Note_on_c, 0, 66, 64
5, 441116, Note_on_c, 0, 66, 0
5, 441120, Note_on_c, 0, 67, 64
5, 441236, Note_on_c, 0, 67, 0
5, 441240, Note_on_c, 0, 69, 64
5, 441356, Note_on_c, 0, 69, 0
5, 441360, Note_on_c, 0, 71, 64
5, 441476, Note_on_c, 0, 71, 0
5, 441480, Note_on_c, 0, 72, 64
5, 441596, Note_on_c, 0, 72, 0
5, 441600, Note_on_c, 0, 71, 64
5, 441716, Note_on_c, 0, 71, 0
5, 441720, Note_on_c, 0, 69, 64
5, 441836, Note_on_c, 0, 69, 0
5, 441840, Note_on_c, 0, 67, 64
5, 441956, Note_on_c, 0, 67, 0
5, 441960, Note_on_c, 0, 66, 64
5, 442076, Note_on_c, 0, 66, 0
5, 442080, Note_on_c, 0, 67, 64
5, 442196, Note_on_c, 0, 67, 0
5, 442200, Note_on_c, 0, 71, 64
5, 442316, Note_on_c, 0, 71, 0
5, 442320, Note_on_c, 0, 69, 64
5, 442436, Note_on_c, 0, 69, 0
5, 442440, Note_on_c, 0, 67, 64
5, 442556, Note_on_c, 0, 67, 0
5, 442560, Note_on_c, 0, 66, 64
5, 442676, Note_on_c, 0, 66, 0
5, 442680, Note_on_c, 0, 64, 64
5, 442796, Note_on_c, 0, 64, 0
5, 442800, Note_on_c, 0, 63, 64
5, 442916, Note_on_c, 0, 63, 0
5, 442920, Note_on_c, 0, 64, 64
5, 443036, Note_on_c, 0, 64, 0
5, 443040, Note_on_c, 0, 63, 64
5, 443156, Note_on_c, 0, 63, 0
5, 443160, Note_on_c, 0, 61, 64
5, 443276, Note_on_c, 0, 61, 0
5, 443280, Note_on_c, 0, 59, 64
5, 443396, Note_on_c, 0, 59, 0
5, 443400, Note_on_c, 0, 57, 64
5, 443516, Note_on_c, 0, 57, 0
5, 443520, Note_on_c, 0, 55, 64
5, 443756, Note_on_c, 0, 55, 0
5, 443760, Note_on_c, 0, 64, 64
5, 443996, Note_on_c, 0, 64, 0
5, 444000, Note_on_c, 0, 64, 64
5, 444236, Note_on_c, 0, 64, 0
5, 444240, Note_on_c, 0, 64, 64
5, 444476, Note_on_c, 0, 64, 0
5, 444480, Note_on_c, 0, 64, 64
5, 444716, Note_on_c, 0, 64, 0
5, 444720, Note_on_c, 0, 64, 64
5, 444956, Note_on_c, 0, 64, 0
5, 444960, Note_on_c, 0, 64, 64
5, 445196, Note_on_c, 0, 64, 0
5, 445200, Note_on_c, 0, 64, 64
5, 445436, Note_on_c, 0, 64, 0
5, 445440, Note_on_c, 0, 64, 64
5, 445676, Note_on_c, 0, 64, 0
5, 445680, Note_on_c, 0, 64, 64
5, 445916, Note_on_c, 0, 64, 0
5, 445920, Note_on_c, 0, 64, 64
5, 446156, Note_on_c, 0, 64, 0
5, 446160, Note_on_c, 0, 64, 64
5, 446396, Note_on_c, 0, 64, 0
5, 446400, Note_on_c, 0, 64, 64
5, 446636, Note_on_c, 0, 64, 0
5, 446640, Note_on_c, 0, 64, 64
5, 446876, Note_on_c, 0, 64, 0
5, 446880, Note_on_c, 0, 64, 64
5, 447116, Note_on_c, 0, 64, 0
5, 447120, Note_on_c, 0, 64, 64
5, 447356, Note_on_c, 0, 64, 0
5, 447360, Note_on_c, 0, 64, 64
5, 447596, Note_on_c, 0, 64, 0
5, 447600, Note_on_c, 0, 64, 64
5, 447836, Note_on_c, 0, 64, 0
5, 447840, Note_on_c, 0, 67, 64
5, 448076, Note_on_c, 0, 67, 0
5, 448080, Note_on_c, 0, 71, 64
5, 448316, Note_on_c, 0, 71, 0
5, 448320, Note_on_c, 0, 66, 64
5, 448556, Note_on_c, 0, 66, 0
5, 448560, Note_on_c, 0, 67, 64
5, 449036, Note_on_c, 0, 67, 0
5, 449280, Note_on_c, 0, 64, 64
5, 449516, Note_on_c, 0, 64, 0
5, 449520, Note_on_c, 0, 67, 64
5, 449756, Note_on_c, 0, 67, 0
5, 449760, Note_on_c, 0, 71, 64
5, 449996, Note_on_c, 0, 71, 0
5, 450000, Note_on_c, 0, 63, 64
5, 450236, Note_on_c, 0, 63, 0
5, 450240, Note_on_c, 0, 66, 64
5, 450476, Note_on_c, 0, 66, 0
5, 450480, Note_on_c, 0, 71, 64
5, 450716, Note_on_c, 0, 71, 0
5, 450720, Note_on_c, 0, 64, 64
5, 450956, Note_on_c, 0, 64, 0
5, 450960, Note_on_c, 0, 67, 64
5, 451196, Note_on_c, 0, 67, 0
5, 451200, Note_on_c, 0, 71, 64
5, 451436, Note_on_c, 0, 71, 0
5, 451440, Note_on_c, 0, 59, 64
5, 451676, Note_on_c, 0, 59, 0
5, 451680, Note_on_c, 0, 66, 64
5, 451916, Note_on_c, 0, 66, 0
5, 451920, Note_on_c, 0, 71, 64
5, 452156, Note_on_c, 0, 71, 0
5, 452160, Note_on_c, 0, 64, 64
5, 452276, Note_on_c, 0, 64, 0
5, 452280, Note_on_c, 0, 63, 64
5, 452396, Note_on_c, 0, 63, 0
5, 452400, Note_on_c, 0, 64, 64
5, 452516, Note_on_c, 0, 64, 0
5, 452520, Note_on_c, 0, 66, 64
5, 452636, Note_on_c, 0, 66, 0
5, 452640, Note_on_c, 0, 67, 64
5, 452756, Note_on_c, 0, 67, 0
5, 452760, Note_on_c, 0, 69, 64
5, 452876, Note_on_c, 0, 69, 0
5, 452880, Note_on_c, 0, 71, 64
5, 452996, Note_on_c, 0, 71, 0
5, 453000, Note_on_c, 0, 72, 64
5, 453116, Note_on_c, 0, 72, 0
5, 453120, Note_on_c, 0, 71, 64
5, 453236, Note_on_c, 0, 71, 0
5, 453240, Note_on_c, 0, 69, 64
5, 453356, Note_on_c, 0, 69, 0
5, 453360, Note_on_c, 0, 67, 64
5, 453476, Note_on_c, 0, 67, 0
5, 453480, Note_on_c, 0, 66, 64
5, 453596, Note_on_c, 0, 66, 0
5, 453600, Note_on_c, 0, 64, 64
5, 453836, Note_on_c, 0, 64, 0
5, 453840, Note_on_c, 0, 67, 64
5, 454076, Note_on_c, 0, 67, 0
5, 454080, Note_on_c, 0, 59, 64
5, 454316, Note_on_c, 0, 59, 0
5, 454320, Note_on_c, 0, 66, 64
5, 454556, Note_on_c, 0, 66, 0
5, 454560, Note_on_c, 0, 69, 64
5, 454796, Note_on_c, 0, 69, 0
5, 454800, Note_on_c, 0, 59, 64
5, 455036, Note_on_c, 0, 59, 0
5, 455040, Note_on_c, 0, 67, 64
5, 455276, Note_on_c, 0, 67, 0
5, 455280, Note_on_c, 0, 67, 64
5, 455516, Note_on_c, 0, 67, 0
5, 455520, Note_on_c, 0, 67, 64
5, 455756, Note_on_c, 0, 67, 0
5, 455760, Note_on_c, 0, 67, 64
5, 455996, Note_on_c, 0, 67, 0
5, 456000, Note_on_c, 0, 67, 64
5, 456236, Note_on_c, 0, 67, 0
5, 456240, Note_on_c, 0, 67, 64
5, 456476, Note_on_c, 0, 67, 0
5, 456480, Note_on_c, 0, 66, 64
5, 456716, Note_on_c, 0, 66, 0
5, 456720, Note_on_c, 0, 66, 64
5, 456956, Note_on_c, 0, 66, 0
5, 456960, Note_on_c, 0, 66, 64
5, 457196, Note_on_c, 0, 66, 0
5, 457200, Note_on_c, 0, 66, 64
5, 457436, Note_on_c, 0, 66, 0
5, 457440, Note_on_c, 0, 66, 64
5, 457676, Note_on_c, 0, 66, 0
5, 457680, Note_on_c, 0, 66, 64
5, 457916, Note_on_c, 0, 66, 0
5, 457920, Note_on_c, 0, 64, 64
5, 458156, Note_on_c, 0, 64, 0
5, 458160, Note_on_c, 0, 64, 64
5, 458396, Note_on_c, 0, 64, 0
5, 458400, Note_on_c, 0, 64, 64
5, 458636, Note_on_c, 0, 64, 0
5, 458640, Note_on_c, 0, 64, 64
5, 458876, Note_on_c, 0, 64, 0
5, 458880, Note_on_c, 0, 64, 64
5, 459116, Note_on_c, 0, 64, 0
5, 459120, Note_on_c, 0, 64, 64
5, 459356, Note_on_c, 0, 64, 0
5, 459360, Note_on_c, 0, 62, 64
5, 459476, Note_on_c, 0, 62, 0
5, 459480, Note_on_c, 0, 61, 64
5, 459596, Note_on_c, 0, 61, 0
5, 459600, Note_on_c, 0, 59, 64
5, 459716, Note_on_c, 0, 59, 0
5, 459720, Note_on_c, 0, 61, 64
5, 459836, Note_on_c, 0, 61, 0
5, 459840, Note_on_c, 0, 62, 64
5, 459956, Note_on_c, 0, 62, 0
5, 459960, Note_on_c, 0, 64, 64
5, 460076, Note_on_c, 0, 64, 0
5, 460080, Note_on_c, 0, 66, 64
5, 460196, Note_on_c, 0, 66, 0
5, 460200, Note_on_c, 0, 67, 64
5, 460316, Note_on_c, 0, 67, 0
5, 460320, Note_on_c, 0, 66, 64
5, 460436, Note_on_c, 0, 66, 0
5, 460440, Note_on_c, 0, 64, 64
5, 460556, Note_on_c, 0, 64, 0
5, 460560, Note_on_c, 0, 62, 64
5, 460676, Note_on_c, 0, 62, 0
5, 460680, Note_on_c, 0, 61, 64
5, 460796, Note_on_c, 0, 61, 0
5, 460800, Note_on_c, 0, 62, 64
5, 461036, Note_on_c, 0, 62, 0
5, 461040, Note_on_c, 0, 66, 64
5, 461276, Note_on_c, 0, 66, 0
5, 461280, Note_on_c, 0, 71, 64
5, 461516, Note_on_c, 0, 71, 0
5, 461520, Note_on_c, 0, 70, 64
5, 461636, Note_on_c, 0, 70, 0
5, 461640, Note_on_c, 0, 71, 64
5, 461756, Note_on_c, 0, 71, 0
5, 461760, Note_on_c, 0, 70, 64
5, 461876, Note_on_c, 0, 70, 0
5, 461880, Note_on_c, 0, 68, 64
5, 461996, Note_on_c, 0, 68, 0
5, 462000, Note_on_c, 0, 66, 64
5, 462116, Note_on_c, 0, 66, 0
5, 462120, Note_on_c, 0, 64, 64
5, 462236, Note_on_c, 0, 64, 0
5, 462240, Note_on_c, 0, 62, 64
5, 462476, Note_on_c, 0, 62, 0
5, 462480, Note_on_c, 0, 59, 64
5, 462716, Note_on_c, 0, 59, 0
5, 462720, Note_on_c, 0, 66, 64
5, 462956, Note_on_c, 0, 66, 0
5, 462960, Note_on_c, 0, 66, 64
5, 463196, Note_on_c, 0, 66, 0
5, 463200, Note_on_c, 0, 66, 64
5, 463436, Note_on_c, 0, 66, 0
5, 463440, Note_on_c, 0, 66, 64
5, 463676, Note_on_c, 0, 66, 0
5, 463680, Note_on_c, 0, 66, 64
5, 463916, Note_on_c, 0, 66, 0
5, 463920, Note_on_c, 0, 66, 64
5, 464156, Note_on_c, 0, 66, 0
5, 464160, Note_on_c, 0, 66, 64
5, 464396, Note_on_c, 0, 66, 0
5, 464400, Note_on_c, 0, 66, 64
5, 464636, Note_on_c, 0, 66, 0
5, 464640, Note_on_c, 0, 66, 64
5, 464876, Note_on_c, 0, 66, 0
5, 464880, Note_on_c, 0, 66, 64
5, 465116, Note_on_c, 0, 66, 0
5, 465120, Note_on_c, 0, 74, 64
5, 465236, Note_on_c, 0, 74, 0
5, 465240, Note_on_c, 0, 76, 64
5, 465356, Note_on_c, 0, 76, 0
5, 465360, Note_on_c, 0, 74, 64
5, 465476, Note_on_c, 0, 74, 0
5, 465480, Note_on_c, 0, 73, 64
5, 465596, Note_on_c, 0, 73, 0
5, 465600, Note_on_c, 0, 71, 64
5, 465716, Note_on_c, 0, 71, 0
5, 465720, Note_on_c, 0, 69, 64
5, 465836, Note_on_c, 0, 69, 0
5, 465840, Note_on_c, 0, 67, 64
5, 465956, Note_on_c, 0, 67, 0
5, 465960, Note_on_c, 0, 66, 64
5, 466076, Note_on_c, 0, 66, 0
5, 466080, Note_on_c, 0, 67, 64
5, 466196, Note_on_c, 0, 67, 0
5, 466200, Note_on_c, 0, 69, 64
5, 466316, Note_on_c, 0, 69, 0
5, 466320, Note_on_c, 0, 71, 64
5, 466436, Note_on_c, 0, 71, 0
5, 466440, Note_on_c, 0, 67, 64
5, 466556, Note_on_c, 0, 67, 0
5, 466560, Note_on_c, 0, 73, 64
5, 466676, Note_on_c, 0, 73, 0
5, 466680, Note_on_c, 0, 74, 64
5, 466796, Note_on_c, 0, 74, 0
5, 466800, Note_on_c, 0, 73, 64
5, 466916, Note_on_c, 0, 73, 0
5, 466920, Note_on_c, 0, 71, 64
5, 467036, Note_on_c, 0, 71, 0
5, 467040, Note_on_c, 0, 69, 64
5, 467156, Note_on_c, 0, 69, 0
5, 467160, Note_on_c, 0, 67, 64
5, 467276, Note_on_c, 0, 67, 0
5, 467280, Note_on_c, 0, 66, 64
5, 467396, Note_on_c, 0, 66, 0
5, 467400, Note_on_c, 0, 64, 64
5, 467516, Note_on_c, 0, 64, 0
5, 467520, Note_on_c, 0, 66, 64
5, 467636, Note_on_c, 0, 66, 0
5, 467640, Note_on_c, 0, 67, 64
5, 467756, Note_on_c, 0, 67, 0
5, 467760, Note_on_c, 0, 69, 64
5, 467876, Note_on_c, 0, 69, 0
5, 467880, Note_on_c, 0, 66, 64
5, 467996, Note_on_c, 0, 66, 0
5, 468000, Note_on_c, 0, 71, 64
5, 468116, Note_on_c, 0, 71, 0
5, 468120, Note_on_c, 0, 73, 64
5, 468236, Note_on_c, 0, 73, 0
5, 468240, Note_on_c, 0, 71, 64
5, 468356, Note_on_c, 0, 71, 0
5, 468360, Note_on_c, 0, 69, 64
5, 468476, Note_on_c, 0, 69, 0
5, 468480, Note_on_c, 0, 67, 64
5, 468596, Note_on_c, 0, 67, 0
5, 468600, Note_on_c, 0, 66, 64
5, 468716, Note_on_c, 0, 66, 0
5, 468720, Note_on_c, 0, 64, 64
5, 468836, Note_on_c, 0, 64, 0
5, 468840, Note_on_c, 0, 62, 64
5, 468956, Note_on_c, 0, 62, 0
5, 468960, Note_on_c, 0, 64, 64
5, 469076, Note_on_c, 0, 64, 0
5, 469080, Note_on_c, 0, 66, 64
5, 469196, Note_on_c, 0, 66, 0
5, 469200, Note_on_c, 0, 67, 64
5, 469316, Note_on_c, 0, 67, 0
5, 469320, Note_on_c, 0, 64, 64
5, 469436, Note_on_c, 0, 64, 0
5, 469440, Note_on_c, 0, 66, 64
5, 469676, Note_on_c, 0, 66, 0
5, 469680, Note_on_c, 0, 61, 64
5, 469916, Note_on_c, 0, 61, 0
5, 469920, Note_on_c, 0, 58, 64
5, 470156, Note_on_c, 0, 58, 0
5, 470160, Note_on_c, 0, 66, 64
5, 470396, Note_on_c, 0, 66, 0
5, 470400, Note_on_c, 0, 61, 64
5, 470636, Note_on_c, 0, 61, 0
5, 470640, Note_on_c, 0, 58, 64
5, 470876, Note_on_c, 0, 58, 0
5, 470880, Note_on_c, 0, 66, 64
5, 471116, Note_on_c, 0, 66, 0
5, 471120, Note_on_c, 0, 61, 64
5, 471356, Note_on_c, 0, 61, 0
5, 471360, Note_on_c, 0, 58, 64
5, 471596, Note_on_c, 0, 58, 0
5, 471600, Note_on_c, 0, 62, 64
5, 471836, Note_on_c, 0, 62, 0
5, 471840, Note_on_c, 0, 59, 64
5, 472076, Note_on_c, 0, 59, 0
5, 472080, Note_on_c, 0, 54, 64
5, 472316, Note_on_c, 0, 54, 0
5, 472320, Note_on_c, 0, 61, 64
5, 472556, Note_on_c, 0, 61, 0
5, 472560, Note_on_c, 0, 58, 64
5, 472796, Note_on_c, 0, 58, 0
5, 472800, Note_on_c, 0, 54, 64
5, 473036, Note_on_c, 0, 54, 0
5, 473040, Note_on_c, 0, 62, 64
5, 473276, Note_on_c, 0, 62, 0
5, 473280, Note_on_c, 0, 59, 64
5, 473516, Note_on_c, 0, 59, 0
5, 473520, Note_on_c, 0, 54, 64
5, 473756, Note_on_c, 0, 54, 0
5, 473760, Note_on_c, 0, 70, 64
5, 473876, Note_on_c, 0, 70, 0
5, 473880, Note_on_c, 0, 73, 64
5, 473996, Note_on_c, 0, 73, 0
5, 474000, Note_on_c, 0, 66, 64
5, 474116, Note_on_c, 0, 66, 0
5, 474120, Note_on_c, 0, 73, 64
5, 474236, Note_on_c, 0, 73, 0
5, 474240, Note_on_c, 0, 70, 64
5, 474356, Note_on_c, 0, 70, 0
5, 474360, Note_on_c, 0, 73, 64
5, 474476, Note_on_c, 0, 73, 0
5, 474480, Note_on_c, 0, 71, 64
5, 474596, Note_on_c, 0, 71, 0
5, 474600, Note_on_c, 0, 74, 64
5, 474716, Note_on_c, 0, 74, 0
5, 474720, Note_on_c, 0, 66, 64
5, 474836, Note_on_c, 0, 66, 0
5, 474840, Note_on_c, 0, 74, 64
5, 474956, Note_on_c, 0, 74, 0
5, 474960, Note_on_c, 0, 71, 64
5, 475076, Note_on_c, 0, 71, 0
5, 475080, Note_on_c, 0, 74, 64
5, 475196, Note_on_c, 0, 74, 0
5, 475200, Note_on_c, 0, 73, 64
5, 475316, Note_on_c, 0, 73, 0
5, 475320, Note_on_c, 0, 76, 64
5, 475436, Note_on_c, 0, 76, 0
5, 475440, Note_on_c, 0, 66, 64
5, 475556, Note_on_c, 0, 66, 0
5, 475560, Note_on_c, 0, 76, 64
5, 475676, Note_on_c, 0, 76, 0
5, 475680, Note_on_c, 0, 73, 64
5, 475796, Note_on_c, 0, 73, 0
5, 475800, Note_on_c, 0, 76, 64
5, 475916, Note_on_c, 0, 76, 0
5, 475920, Note_on_c, 0, 73, 64
5, 476036, Note_on_c, 0, 73, 0
5, 476040, Note_on_c, 0, 76, 64
5, 476156, Note_on_c, 0, 76, 0
5, 476160, Note_on_c, 0, 66, 64
5, 476276, Note_on_c, 0, 66, 0
5, 476280, Note_on_c, 0, 76, 64
5, 476396, Note_on_c, 0, 76, 0
5, 476400, Note_on_c, 0, 73, 64
5, 476516, Note_on_c, 0, 73, 0
5, 476520, Note_on_c, 0, 76, 64
5, 476636, Note_on_c, 0, 76, 0
5, 476640, Note_on_c, 0, 75, 64
5, 476876, Note_on_c, 0, 75, 0
5, 476880, Note_on_c, 0, 59, 64
5, 477116, Note_on_c, 0, 59, 0
5, 477120, Note_on_c, 0, 59, 64
5, 477356, Note_on_c, 0, 59, 0
5, 477360, Note_on_c, 0, 59, 64
5, 477596, Note_on_c, 0, 59, 0
5, 477600, Note_on_c, 0, 59, 64
5, 477836, Note_on_c, 0, 59, 0
5, 477840, Note_on_c, 0, 59, 64
5, 478076, Note_on_c, 0, 59, 0
5, 478080, Note_on_c, 0, 59, 64
5, 478316, Note_on_c, 0, 59, 0
5, 478320, Note_on_c, 0, 59, 64
5, 478556, Note_on_c, 0, 59, 0
5, 478560, Note_on_c, 0, 59, 64
5, 478796, Note_on_c, 0, 59, 0
5, 478800, Note_on_c, 0, 59, 64
5, 479036, Note_on_c, 0, 59, 0
5, 479040, Note_on_c, 0, 59, 64
5, 479276, Note_on_c, 0, 59, 0
5, 479280, Note_on_c, 0, 59, 64
5, 479516, Note_on_c, 0, 59, 0
5, 479520, Note_on_c, 0, 66, 64
5, 479756, Note_on_c, 0, 66, 0
5, 479760, Note_on_c, 0, 66, 64
5, 479996, Note_on_c, 0, 66, 0
5, 480000, Note_on_c, 0, 66, 64
5, 480236, Note_on_c, 0, 66, 0
5, 480240, Note_on_c, 0, 66, 64
5, 480476, Note_on_c, 0, 66, 0
5, 480480, Note_on_c, 0, 66, 64
5, 480716, Note_on_c, 0, 66, 0
5, 480720, Note_on_c, 0, 66, 64
5, 480956, Note_on_c, 0, 66, 0
5, 480960, Note_on_c, 0, 66, 64
5, 481076, Note_on_c, 0, 66, 0
5, 481080, Note_on_c, 0, 64, 64
5, 481196, Note_on_c, 0, 64, 0
5, 481200, Note_on_c, 0, 62, 64
5, 481316, Note_on_c, 0, 62, 0
5, 481320, Note_on_c, 0, 64, 64
5, 481436, Note_on_c, 0, 64, 0
5, 481440, Note_on_c, 0, 66, 64
5, 481676, Note_on_c, 0, 66, 0
5, 481680, Note_on_c, 0, 54, 64
5, 481916, Note_on_c, 0, 54, 0
5, 481920, Note_on_c, 0, 61, 64
5, 482036, Note_on_c, 0, 61, 0
5, 482040, Note_on_c, 0, 62, 64
5, 482156, Note_on_c, 0, 62, 0
5, 482160, Note_on_c, 0, 64, 64
5, 482396, Note_on_c, 0, 64, 0
5, 482400, Note_on_c, 0, 62, 64
5, 483236, Note_on_c, 0, 62, 0
5, 483240, Note_on_c, 0, 61, 64
5, 483356, Note_on_c, 0, 61, 0
5, 483360, Note_on_c, 0, 59, 64
5, 483476, Note_on_c, 0, 59, 0
5, 483480, Note_on_c, 0, 61, 64
5, 483596, Note_on_c, 0, 61, 0
5, 483600, Note_on_c, 0, 62, 64
5, 483716, Note_on_c, 0, 62, 0
5, 483720, Note_on_c, 0, 64, 64
5, 483836, Note_on_c, 0, 64, 0
5, 483840, Note_on_c, 0, 66, 64
5, 483956, Note_on_c, 0, 66, 0
5, 483960, Note_on_c, 0, 67, 64
5, 484076, Note_on_c, 0, 67, 0
5, 484080, Note_on_c, 0, 69, 64
5, 484196, Note_on_c, 0, 69, 0
5, 484200, Note_on_c, 0, 67, 64
5, 484316, Note_on_c, 0, 67, 0
5, 484320, Note_on_c, 0, 66, 64
5, 484436, Note_on_c, 0, 66, 0
5, 484440, Note_on_c, 0, 64, 64
5, 484556, Note_on_c, 0, 64, 0
5, 484560, Note_on_c, 0, 63, 64
5, 484676, Note_on_c, 0, 63, 0
5, 484680, Note_on_c, 0, 64, 64
5, 484796, Note_on_c, 0, 64, 0
5, 484800, Note_on_c, 0, 66, 64
5, 484916, Note_on_c, 0, 66, 0
5, 484920, Note_on_c, 0, 64, 64
5, 485036, Note_on_c, 0, 64, 0
5, 485040, Note_on_c, 0, 63, 64
5, 485156, Note_on_c, 0, 63, 0
5, 485160, Note_on_c, 0, 61, 64
5, 485276, Note_on_c, 0, 61, 0
5, 485280, Note_on_c, 0, 59, 64
5, 485396, Note_on_c, 0, 59, 0
5, 485400, Note_on_c, 0, 63, 64
5, 485516, Note_on_c, 0, 63, 0
5, 485520, Note_on_c, 0, 64, 64
5, 485636, Note_on_c, 0, 64, 0
5, 485640, Note_on_c, 0, 66, 64
5, 485756, Note_on_c, 0, 66, 0
5, 485760, Note_on_c, 0, 67, 64
5, 485876, Note_on_c, 0, 67, 0
5, 485880, Note_on_c, 0, 69, 64
5, 485996, Note_on_c, 0, 69, 0
5, 486000, Note_on_c, 0, 71, 64
5, 486116, Note_on_c, 0, 71, 0
5, 486120, Note_on_c, 0, 69, 64
5, 486236, Note_on_c, 0, 69, 0
5, 486240, Note_on_c, 0, 67, 64
5, 486356, Note_on_c, 0, 67, 0
5, 486360, Note_on_c, 0, 69, 64
5, 486476, Note_on_c, 0, 69, 0
5, 486480, Note_on_c, 0, 71, 64
5, 486596, Note_on_c, 0, 71, 0
5, 486600, Note_on_c, 0, 72, 64
5, 486716, Note_on_c, 0, 72, 0
5, 486720, Note_on_c, 0, 74, 64
5, 486956, Note_on_c, 0, 74, 0
5, 486960, Note_on_c, 0, 74, 64
5, 487196, Note_on_c, 0, 74, 0
5, 487200, Note_on_c, 0, 74, 64
5, 487436, Note_on_c, 0, 74, 0
5, 487440, Note_on_c, 0, 74, 64
5, 487676, Note_on_c, 0, 74, 0
5, 487680, Note_on_c, 0, 74, 64
5, 487916, Note_on_c, 0, 74, 0
5, 487920, Note_on_c, 0, 74, 64
5, 488156, Note_on_c, 0, 74, 0
5, 488160, Note_on_c, 0, 74, 64
5, 488396, Note_on_c, 0, 74, 0
5, 488400, Note_on_c, 0, 78, 64
5, 488516, Note_on_c, 0, 78, 0
5, 488520, Note_on_c, 0, 76, 64
5, 488636, Note_on_c, 0, 76, 0
5, 488640, Note_on_c, 0, 74, 64
5, 488756, Note_on_c, 0, 74, 0
5, 488760, Note_on_c, 0, 72, 64
5, 488876, Note_on_c, 0, 72, 0
5, 488880, Note_on_c, 0, 71, 64
5, 488996, Note_on_c, 0, 71, 0
5, 489000, Note_on_c, 0, 72, 64
5, 489236, Note_on_c, 0, 72, 0
5, 489240, Note_on_c, 0, 69, 64
5, 489476, Note_on_c, 0, 69, 0
5, 489720, Note_on_c, 0, 62, 64
5, 489836, Note_on_c, 0, 62, 0
5, 489840, Note_on_c, 0, 65, 64
5, 489956, Note_on_c, 0, 65, 0
5, 489960, Note_on_c, 0, 69, 64
5, 490076, Note_on_c, 0, 69, 0
5, 490080, Note_on_c, 0, 65, 64
5, 490196, Note_on_c, 0, 65, 0
5, 490200, Note_on_c, 0, 62, 64
5, 490316, Note_on_c, 0, 62, 0
5, 490320, Note_on_c, 0, 71, 64
5, 490556, Note_on_c, 0, 71, 0
5, 490560, Note_on_c, 0, 71, 64
5, 490796, Note_on_c, 0, 71, 0
5, 490800, Note_on_c, 0, 71, 64
5, 491036, Note_on_c, 0, 71, 0
5, 491040, Note_on_c, 0, 71, 64
5, 491156, Note_on_c, 0, 71, 0
5, 491160, Note_on_c, 0, 60, 64
5, 491276, Note_on_c, 0, 60, 0
5, 491280, Note_on_c, 0, 64, 64
5, 491396, Note_on_c, 0, 64, 0
5, 491400, Note_on_c, 0, 67, 64
5, 491516, Note_on_c, 0, 67, 0
5, 491520, Note_on_c, 0, 64, 64
5, 491636, Note_on_c, 0, 64, 0
5, 491640, Note_on_c, 0, 60, 64
5, 491756, Note_on_c, 0, 60, 0
5, 491760, Note_on_c, 0, 69, 64
5, 491996, Note_on_c, 0, 69, 0
5, 492000, Note_on_c, 0, 69, 64
5, 492236, Note_on_c, 0, 69, 0
5, 492240, Note_on_c, 0, 69, 64
5, 492476, Note_on_c, 0, 69, 0
5, 492480, Note_on_c, 0, 59, 64
5, 492596, Note_on_c, 0, 59, 0
5, 492600, Note_on_c, 0, 62, 64
5, 492716, Note_on_c, 0, 62, 0
5, 492720, Note_on_c, 0, 55, 64
5, 492836, Note_on_c, 0, 55, 0
5, 492840, Note_on_c, 0, 62, 64
5, 492956, Note_on_c, 0, 62, 0
5, 492960, Note_on_c, 0, 59, 64
5, 493076, Note_on_c, 0, 59, 0
5, 493080, Note_on_c, 0, 62, 64
5, 493196, Note_on_c, 0, 62, 0
5, 493200, Note_on_c, 0, 60, 64
5, 493316, Note_on_c, 0, 60, 0
5, 493320, Note_on_c, 0, 64, 64
5, 493436, Note_on_c, 0, 64, 0
5, 493440, Note_on_c, 0, 55, 64
5, 493556, Note_on_c, 0, 55, 0
5, 493560, Note_on_c, 0, 64, 64
5, 493676, Note_on_c, 0, 64, 0
5, 493680, Note_on_c, 0, 60, 64
5, 493796, Note_on_c, 0, 60, 0
5, 493800, Note_on_c, 0, 64, 64
5, 493916, Note_on_c, 0, 64, 0
5, 493920, Note_on_c, 0, 62, 64
5, 494036, Note_on_c, 0, 62, 0
5, 494040, Note_on_c, 0, 65, 64
5, 494156, Note_on_c, 0, 65, 0
5, 494160, Note_on_c, 0, 55, 64
5, 494276, Note_on_c, 0, 55, 0
5, 494280, Note_on_c, 0, 65, 64
5, 494396, Note_on_c, 0, 65, 0
5, 494400, Note_on_c, 0, 62, 64
5, 494516, Note_on_c, 0, 62, 0
5, 494520, Note_on_c, 0, 65, 64
5, 494636, Note_on_c, 0, 65, 0
5, 494640, Note_on_c, 0, 64, 64
5, 494756, Note_on_c, 0, 64, 0
5, 494760, Note_on_c, 0, 67, 64
5, 494876, Note_on_c, 0, 67, 0
5, 494880, Note_on_c, 0, 55, 64
5, 494996, Note_on_c, 0, 55, 0
5, 495000, Note_on_c, 0, 67, 64
5, 495116, Note_on_c, 0, 67, 0
5, 495120, Note_on_c, 0, 64, 64
5, 495236, Note_on_c, 0, 64, 0
5, 495240, Note_on_c, 0, 67, 64
5, 495356, Note_on_c, 0, 67, 0
5, 495360, Note_on_c, 0, 65, 64
5, 495476, Note_on_c, 0, 65, 0
5, 495480, Note_on_c, 0, 59, 64
5, 495596, Note_on_c, 0, 59, 0
5, 495600, Note_on_c, 0, 65, 64
5, 495716, Note_on_c, 0, 65, 0
5, 495720, Note_on_c, 0, 59, 64
5, 495836, Note_on_c, 0, 59, 0
5, 495840, Note_on_c, 0, 65, 64
5, 495956, Note_on_c, 0, 65, 0
5, 495960, Note_on_c, 0, 59, 64
5, 496076, Note_on_c, 0, 59, 0
5, 496080, Note_on_c, 0, 64, 64
5, 496196, Note_on_c, 0, 64, 0
5, 496200, Note_on_c, 0, 60, 64
5, 496316, Note_on_c, 0, 60, 0
5, 496320, Note_on_c, 0, 64, 64
5, 496436, Note_on_c, 0, 64, 0
5, 496440, Note_on_c, 0, 60, 64
5, 496556, Note_on_c, 0, 60, 0
5, 496560, Note_on_c, 0, 64, 64
5, 496676, Note_on_c, 0, 64, 0
5, 496680, Note_on_c, 0, 60, 64
5, 496796, Note_on_c, 0, 60, 0
5, 496800, Note_on_c, 0, 62, 64
5, 496916, Note_on_c, 0, 62, 0
5, 496920, Note_on_c, 0, 55, 64
5, 497036, Note_on_c, 0, 55, 0
5, 497040, Note_on_c, 0, 62, 64
5, 497156, Note_on_c, 0, 62, 0
5, 497160, Note_on_c, 0, 55, 64
5, 497276, Note_on_c, 0, 55, 0
5, 497280, Note_on_c, 0, 62, 64
5, 497396, Note_on_c, 0, 62, 0
5, 497400, Note_on_c, 0, 55, 64
5, 497516, Note_on_c, 0, 55, 0
5, 497520, Note_on_c, 0, 60, 64
5, 497636, Note_on_c, 0, 60, 0
5, 497640, Note_on_c, 0, 55, 64
5, 497756, Note_on_c, 0, 55, 0
5, 497760, Note_on_c, 0, 60, 64
5, 497876, Note_on_c, 0, 60, 0
5, 497880, Note_on_c, 0, 55, 64
5, 497996, Note_on_c, 0, 55, 0
5, 498000, Note_on_c, 0, 60, 64
5, 498116, Note_on_c, 0, 60, 0
5, 498120, Note_on_c, 0, 55, 64
5, 498236, Note_on_c, 0, 55, 0
5, 498240, Note_on_c, 0, 60, 64
5, 498476, Note_on_c, 0, 60, 0
5, 498480, Note_on_c, 0, 63, 64
5, 498716, Note_on_c, 0, 63, 0
5, 498720, Note_on_c, 0, 69, 64
5, 498956, Note_on_c, 0, 69, 0
5, 498960, Note_on_c, 0, 63, 64
5, 499196, Note_on_c, 0, 63, 0
5, 499200, Note_on_c, 0, 69, 64
5, 499436, Note_on_c, 0, 69, 0
5, 499440, Note_on_c, 0, 72, 64
5, 499676, Note_on_c, 0, 72, 0
5, 499680, Note_on_c, 0, 71, 64
5, 499796, Note_on_c, 0, 71, 0
5, 499800, Note_on_c, 0, 74, 64
5, 499916, Note_on_c, 0, 74, 0
5, 499920, Note_on_c, 0, 67, 64
5, 500036, Note_on_c, 0, 67, 0
5, 500040, Note_on_c, 0, 74, 64
5, 500156, Note_on_c, 0, 74, 0
5, 500160, Note_on_c, 0, 71, 64
5, 500276, Note_on_c, 0, 71, 0
5, 500280, Note_on_c, 0, 69, 64
5, 500396, Note_on_c, 0, 69, 0
5, 500400, Note_on_c, 0, 71, 64
5, 500516, Note_on_c, 0, 71, 0
5, 500520, Note_on_c, 0, 74, 64
5, 500636, Note_on_c, 0, 74, 0
5, 500640, Note_on_c, 0, 67, 64
5, 500756, Note_on_c, 0, 67, 0
5, 500760, Note_on_c, 0, 74, 64
5, 500876, Note_on_c, 0, 74, 0
5, 500880, Note_on_c, 0, 71, 64
5, 500996, Note_on_c, 0, 71, 0
5, 501000, Note_on_c, 0, 74, 64
5, 501116, Note_on_c, 0, 74, 0
5, 501120, Note_on_c, 0, 72, 64
5, 501236, Note_on_c, 0, 72, 0
5, 501240, Note_on_c, 0, 74, 64
5, 501356, Note_on_c, 0, 74, 0
5, 501360, Note_on_c, 0, 76, 64
5, 501476, Note_on_c, 0, 76, 0
5, 501480, Note_on_c, 0, 72, 64
5, 501596, Note_on_c, 0, 72, 0
5, 501600, Note_on_c, 0, 71, 64
5, 501716, Note_on_c, 0, 71, 0
5, 501720, Note_on_c, 0, 72, 64
5, 501836, Note_on_c, 0, 72, 0
5, 501840, Note_on_c, 0, 69, 64
5, 501956, Note_on_c, 0, 69, 0
5, 501960, Note_on_c, 0, 72, 64
5, 502076, Note_on_c, 0, 72, 0
5, 502080, Note_on_c, 0, 76, 64
5, 502196, Note_on_c, 0, 76, 0
5, 502200, Note_on_c, 0, 72, 64
5, 502316, Note_on_c, 0, 72, 0
5, 502320, Note_on_c, 0, 71, 64
5, 502436, Note_on_c, 0, 71, 0
5, 502440, Note_on_c, 0, 72, 64
5, 502556, Note_on_c, 0, 72, 0
5, 502560, Note_on_c, 0, 67, 64
5, 502676, Note_on_c, 0, 67, 0
5, 502680, Note_on_c, 0, 72, 64
5, 502736, Note_on_c, 0, 72, 0
5, 502740, Note_on_c, 0, 74, 64
5, 502796, Note_on_c, 0, 74, 0
5, 502800, Note_on_c, 0, 76, 64
5, 502916, Note_on_c, 0, 76, 0
5, 502920, Note_on_c, 0, 72, 64
5, 503036, Note_on_c, 0, 72, 0
5, 503040, Note_on_c, 0, 71, 64
5, 503156, Note_on_c, 0, 71, 0
5, 503160, Note_on_c, 0, 72, 64
5, 503276, Note_on_c, 0, 72, 0
5, 503280, Note_on_c, 0, 65, 64
5, 503396, Note_on_c, 0, 65, 0
5, 503400, Note_on_c, 0, 72, 64
5, 503516, Note_on_c, 0, 72, 0
5, 503520, Note_on_c, 0, 76, 64
5, 503636, Note_on_c, 0, 76, 0
5, 503640, Note_on_c, 0, 72, 64
5, 503756, Note_on_c, 0, 72, 0
5, 503760, Note_on_c, 0, 71, 64
5, 503876, Note_on_c, 0, 71, 0
5, 503880, Note_on_c, 0, 72, 64
5, 503996, Note_on_c, 0, 72, 0
5, 504000, Note_on_c, 0, 67, 64
5, 504116, Note_on_c, 0, 67, 0
5, 504120, Note_on_c, 0, 72, 64
5, 504176, Note_on_c, 0, 72, 0
5, 504180, Note_on_c, 0, 74, 64
5, 504236, Note_on_c, 0, 74, 0
5, 504240, Note_on_c, 0, 76, 64
5, 504356, Note_on_c, 0, 76, 0
5, 504360, Note_on_c, 0, 72, 64
5, 504476, Note_on_c, 0, 72, 0
5, 504480, Note_on_c, 0, 71, 64
5, 504596, Note_on_c, 0, 71, 0
5, 504600, Note_on_c, 0, 72, 64
5, 504716, Note_on_c, 0, 72, 0
5, 504720, Note_on_c, 0, 69, 64
5, 504836, Note_on_c, 0, 69, 0
5, 504840, Note_on_c, 0, 72, 64
5, 504956, Note_on_c, 0, 72, 0
5, 504960, Note_on_c, 0, 76, 64
5, 505076, Note_on_c, 0, 76, 0
5, 505080, Note_on_c, 0, 72, 64
5, 505196, Note_on_c, 0, 72, 0
5, 505200, Note_on_c, 0, 71, 64
5, 505316, Note_on_c, 0, 71, 0
5, 505320, Note_on_c, 0, 72, 64
5, 505436, Note_on_c, 0, 72, 0
5, 505440, Note_on_c, 0, 67, 64
5, 505556, Note_on_c, 0, 67, 0
5, 505560, Note_on_c, 0, 72, 64
5, 505616, Note_on_c, 0, 72, 0
5, 505620, Note_on_c, 0, 74, 64
5, 505676, Note_on_c, 0, 74, 0
5, 505680, Note_on_c, 0, 76, 64
5, 505796, Note_on_c, 0, 76, 0
5, 505800, Note_on_c, 0, 72, 64
5, 505916, Note_on_c, 0, 72, 0
5, 505920, Note_on_c, 0, 67, 64
5, 506036, Note_on_c, 0, 67, 0
5, 506040, Note_on_c, 0, 71, 64
5, 506156, Note_on_c, 0, 71, 0
5, 506160, Note_on_c, 0, 72, 64
5, 506276, Note_on_c, 0, 72, 0
5, 506280, Note_on_c, 0, 69, 64
5, 506396, Note_on_c, 0, 69, 0
5, 506400, Note_on_c, 0, 67, 64
5, 506516, Note_on_c, 0, 67, 0
5, 506520, Note_on_c, 0, 65, 64
5, 506636, Note_on_c, 0, 65, 0
5, 506640, Note_on_c, 0, 64, 64
5, 506756, Note_on_c, 0, 64, 0
5, 506760, Note_on_c, 0, 62, 64
5, 506876, Note_on_c, 0, 62, 0
5, 506880, Note_on_c, 0, 60, 64
5, 506996, Note_on_c, 0, 60, 0
5, 507000, Note_on_c, 0, 59, 64
5, 507116, Note_on_c, 0, 59, 0
5, 507120, Note_on_c, 0, 60, 64
5, 507236, Note_on_c, 0, 60, 0
5, 507240, Note_on_c, 0, 62, 64
5, 507356, Note_on_c, 0, 62, 0
5, 507360, Note_on_c, 0, 64, 64
5, 507476, Note_on_c, 0, 64, 0
5, 507480, Note_on_c, 0, 65, 64
5, 507596, Note_on_c, 0, 65, 0
5, 507600, Note_on_c, 0, 67, 64
5, 507716, Note_on_c, 0, 67, 0
5, 507720, Note_on_c, 0, 69, 64
5, 507836, Note_on_c, 0, 69, 0
5, 507840, Note_on_c, 0, 67, 64
5, 507956, Note_on_c, 0, 67, 0
5, 507960, Note_on_c, 0, 65, 64
5, 508076, Note_on_c, 0, 65, 0
5, 508080, Note_on_c, 0, 64, 64
5, 508196, Note_on_c, 0, 64, 0
5, 508200, Note_on_c, 0, 62, 64
5, 508316, Note_on_c, 0, 62, 0
5, 508320, Note_on_c, 0, 64, 64
5, 508556, Note_on_c, 0, 64, 0
5, 508560, Note_on_c, 0, 67, 64
5, 508796, Note_on_c, 0, 67, 0
5, 508800, Note_on_c, 0, 72, 64
5, 509036, Note_on_c, 0, 72, 0
5, 509040, Note_on_c, 0, 71, 64
5, 509156, Note_on_c, 0, 71, 0
5, 509160, Note_on_c, 0, 72, 64
5, 509276, Note_on_c, 0, 72, 0
5, 509280, Note_on_c, 0, 71, 64
5, 509396, Note_on_c, 0, 71, 0
5, 509400, Note_on_c, 0, 69, 64
5, 509516, Note_on_c, 0, 69, 0
5, 509520, Note_on_c, 0, 67, 64
5, 509636, Note_on_c, 0, 67, 0
5, 509640, Note_on_c, 0, 65, 64
5, 509756, Note_on_c, 0, 65, 0
5, 509760, Note_on_c, 0, 64, 64
5, 509996, Note_on_c, 0, 64, 0
5, 510000, Note_on_c, 0, 60, 64
5, 510236, Note_on_c, 0, 60, 0
5, 510240, Note_on_c, 0, 67, 64
5, 510476, Note_on_c, 0, 67, 0
5, 510480, Note_on_c, 0, 67, 64
5, 510716, Note_on_c, 0, 67, 0
5, 510720, Note_on_c, 0, 67, 64
5, 510956, Note_on_c, 0, 67, 0
5, 510960, Note_on_c, 0, 67, 64
5, 511196, Note_on_c, 0, 67, 0
5, 511200, Note_on_c, 0, 67, 64
5, 511436, Note_on_c, 0, 67, 0
5, 511440, Note_on_c, 0, 67, 64
5, 511676, Note_on_c, 0, 67, 0
5, 511680, Note_on_c, 0, 67, 64
5, 511916, Note_on_c, 0, 67, 0
5, 511920, Note_on_c, 0, 67, 64
5, 512156, Note_on_c, 0, 67, 0
5, 512160, Note_on_c, 0, 67, 64
5, 512396, Note_on_c, 0, 67, 0
5, 512400, Note_on_c, 0, 67, 64
5, 512636, Note_on_c, 0, 67, 0
5, 512640, Note_on_c, 0, 67, 64
5, 512876, Note_on_c, 0, 67, 0
5, 512880, Note_on_c, 0, 72, 64
5, 513116, Note_on_c, 0, 72, 0
5, 513120, Note_on_c, 0, 67, 64
5, 513356, Note_on_c, 0, 67, 0
5, 513360, Note_on_c, 0, 69, 64
5, 513476, Note_on_c, 0, 69, 0
5, 513480, Note_on_c, 0, 71, 64
5, 513596, Note_on_c, 0, 71, 0
5, 513600, Note_on_c, 0, 69, 64
5, 513716, Note_on_c, 0, 69, 0
5, 513720, Note_on_c, 0, 67, 64
5, 513836, Note_on_c, 0, 67, 0
5, 513840, Note_on_c, 0, 66, 64
5, 513956, Note_on_c, 0, 66, 0
5, 513960, Note_on_c, 0, 64, 64
5, 514076, Note_on_c, 0, 64, 0
5, 514080, Note_on_c, 0, 66, 64
5, 514316, Note_on_c, 0, 66, 0
5, 514320, Note_on_c, 0, 71, 64
5, 514556, Note_on_c, 0, 71, 0
5, 514560, Note_on_c, 0, 66, 64
5, 514796, Note_on_c, 0, 66, 0
5, 514800, Note_on_c, 0, 67, 64
5, 514916, Note_on_c, 0, 67, 0
5, 514920, Note_on_c, 0, 69, 64
5, 515036, Note_on_c, 0, 69, 0
5, 515040, Note_on_c, 0, 67, 64
5, 515156, Note_on_c, 0, 67, 0
5, 515160, Note_on_c, 0, 66, 64
5, 515276, Note_on_c, 0, 66, 0
5, 515280, Note_on_c, 0, 64, 64
5, 515396, Note_on_c, 0, 64, 0
5, 515400, Note_on_c, 0, 62, 64
5, 515516, Note_on_c, 0, 62, 0
5, 515520, Note_on_c, 0, 64, 64
5, 515756, Note_on_c, 0, 64, 0
5, 515760, Note_on_c, 0, 69, 64
5, 515996, Note_on_c, 0, 69, 0
5, 516000, Note_on_c, 0, 64, 64
5, 516236, Note_on_c, 0, 64, 0
5, 516240, Note_on_c, 0, 66, 64
5, 516476, Note_on_c, 0, 66, 0
5, 516480, Note_on_c, 0, 69, 64
5, 516716, Note_on_c, 0, 69, 0
5, 516720, Note_on_c, 0, 74, 64
5, 516956, Note_on_c, 0, 74, 0
5, 516960, Note_on_c, 0, 67, 64
5, 517196, Note_on_c, 0, 67, 0
5, 517200, Note_on_c, 0, 71, 64
5, 517436, Note_on_c, 0, 71, 0
5, 517440, Note_on_c, 0, 74, 64
5, 517676, Note_on_c, 0, 74, 0
5, 517680, Note_on_c, 0, 66, 64
5, 517916, Note_on_c, 0, 66, 0
5, 517920, Note_on_c, 0, 69, 64
5, 518156, Note_on_c, 0, 69, 0
5, 518160, Note_on_c, 0, 74, 64
5, 518396, Note_on_c, 0, 74, 0
5, 518400, Note_on_c, 0, 67, 64
5, 518636, Note_on_c, 0, 67, 0
5, 518640, Note_on_c, 0, 71, 64
5, 518876, Note_on_c, 0, 71, 0
5, 518880, Note_on_c, 0, 74, 64
5, 519116, Note_on_c, 0, 74, 0
5, 519120, Note_on_c, 0, 62, 64
5, 519356, Note_on_c, 0, 62, 0
5, 519360, Note_on_c, 0, 69, 64
5, 519596, Note_on_c, 0, 69, 0
5, 519600, Note_on_c, 0, 74, 64
5, 519836, Note_on_c, 0, 74, 0
5, 519840, Note_on_c, 0, 55, 64
5, 519956, Note_on_c, 0, 55, 0
5, 519960, Note_on_c, 0, 54, 64
5, 520076, Note_on_c, 0, 54, 0
5, 520080, Note_on_c, 0, 55, 64
5, 520196, Note_on_c, 0, 55, 0
5, 520200, Note_on_c, 0, 57, 64
5, 520316, Note_on_c, 0, 57, 0
5, 520320, Note_on_c, 0, 59, 64
5, 520436, Note_on_c, 0, 59, 0
5, 520440, Note_on_c, 0, 60, 64
5, 520556, Note_on_c, 0, 60, 0
5, 520560, Note_on_c, 0, 62, 64
5, 520676, Note_on_c, 0, 62, 0
5, 520680, Note_on_c, 0, 64, 64
5, 520796, Note_on_c, 0, 64, 0
5, 520800, Note_on_c, 0, 62, 64
5, 520916, Note_on_c, 0, 62, 0
5, 520920, Note_on_c, 0, 60, 64
5, 521036, Note_on_c, 0, 60, 0
5, 521040, Note_on_c, 0, 59, 64
5, 521156, Note_on_c, 0, 59, 0
5, 521160, Note_on_c, 0, 57, 64
5, 521276, Note_on_c, 0, 57, 0
5, 521280, Note_on_c, 0, 55, 64
5, 521516, Note_on_c, 0, 55, 0
5, 521520, Note_on_c, 0, 59, 64
5, 521756, Note_on_c, 0, 59, 0
5, 521760, Note_on_c, 0, 62, 64
5, 521996, Note_on_c, 0, 62, 0
5, 522000, Note_on_c, 0, 69, 64
5, 522236, Note_on_c, 0, 69, 0
5, 522240, Note_on_c, 0, 72, 64
5, 522476, Note_on_c, 0, 72, 0
5, 522480, Note_on_c, 0, 62, 64
5, 522716, Note_on_c, 0, 62, 0
5, 522720, Note_on_c, 0, 71, 64
5, 522956, Note_on_c, 0, 71, 0
5, 522960, Note_on_c, 0, 71, 64
5, 523196, Note_on_c, 0, 71, 0
5, 523200, Note_on_c, 0, 71, 64
5, 523436, Note_on_c, 0, 71, 0
5, 523440, Note_on_c, 0, 71, 64
5, 523676, Note_on_c, 0, 71, 0
5, 523680, Note_on_c, 0, 71, 64
5, 523916, Note_on_c, 0, 71, 0
5, 523920, Note_on_c, 0, 71, 64
5, 524156, Note_on_c, 0, 71, 0
5, 524160, Note_on_c, 0, 69, 64
5, 524396, Note_on_c, 0, 69, 0
5, 524400, Note_on_c, 0, 69, 64
5, 524636, Note_on_c, 0, 69, 0
5, 524640, Note_on_c, 0, 69, 64
5, 524876, Note_on_c, 0, 69, 0
5, 524880, Note_on_c, 0, 69, 64
5, 525116, Note_on_c, 0, 69, 0
5, 525120, Note_on_c, 0, 69, 64
5, 525356, Note_on_c, 0, 69, 0
5, 525360, Note_on_c, 0, 69, 64
5, 525596, Note_on_c, 0, 69, 0
5, 525600, Note_on_c, 0, 67, 64
5, 525836, Note_on_c, 0, 67, 0
5, 525840, Note_on_c, 0, 67, 64
5, 526076, Note_on_c, 0, 67, 0
5, 526080, Note_on_c, 0, 67, 64
5, 526316, Note_on_c, 0, 67, 0
5, 526320, Note_on_c, 0, 67, 64
5, 526556, Note_on_c, 0, 67, 0
5, 526560, Note_on_c, 0, 67, 64
5, 526796, Note_on_c, 0, 67, 0
5, 526800, Note_on_c, 0, 67, 64
5, 527036, Note_on_c, 0, 67, 0
5, 527040, Note_on_c, 0, 66, 64
5, 527156, Note_on_c, 0, 66, 0
5, 527160, Note_on_c, 0, 69, 64
5, 527276, Note_on_c, 0, 69, 0
5, 527280, Note_on_c, 0, 62, 64
5, 527396, Note_on_c, 0, 62, 0
5, 527400, Note_on_c, 0, 69, 64
5, 527516, Note_on_c, 0, 69, 0
5, 527520, Note_on_c, 0, 66, 64
5, 527636, Note_on_c, 0, 66, 0
5, 527640, Note_on_c, 0, 69, 64
5, 527756, Note_on_c, 0, 69, 0
5, 527760, Note_on_c, 0, 67, 64
5, 527876, Note_on_c, 0, 67, 0
5, 527880, Note_on_c, 0, 71, 64
5, 527996, Note_on_c, 0, 71, 0
5, 528000, Note_on_c, 0, 62, 64
5, 528116, Note_on_c, 0, 62, 0
5, 528120, Note_on_c, 0, 71, 64
5, 528236, Note_on_c, 0, 71, 0
5, 528240, Note_on_c, 0, 67, 64
5, 528356, Note_on_c, 0, 67, 0
5, 528360, Note_on_c, 0, 71, 64
5, 528476, Note_on_c, 0, 71, 0
5, 528480, Note_on_c, 0, 69, 64
5, 528596, Note_on_c, 0, 69, 0
5, 528600, Note_on_c, 0, 72, 64
5, 528716, Note_on_c, 0, 72, 0
5, 528720, Note_on_c, 0, 62, 64
5, 528836, Note_on_c, 0, 62, 0
5, 528840, Note_on_c, 0, 72, 64
5, 528956, Note_on_c, 0, 72, 0
5, 528960, Note_on_c, 0, 69, 64
5, 529076, Note_on_c, 0, 69, 0
5, 529080, Note_on_c, 0, 72, 64
5, 529196, Note_on_c, 0, 72, 0
5, 529200, Note_on_c, 0, 71, 64
5, 529316, Note_on_c, 0, 71, 0
5, 529320, Note_on_c, 0, 74, 64
5, 529436, Note_on_c, 0, 74, 0
5, 529440, Note_on_c, 0, 62, 64
5, 529556, Note_on_c, 0, 62, 0
5, 529560, Note_on_c, 0, 74, 64
5, 529676, Note_on_c, 0, 74, 0
5, 529680, Note_on_c, 0, 71, 64
5, 529796, Note_on_c, 0, 71, 0
5, 529800, Note_on_c, 0, 74, 64
5, 529916, Note_on_c, 0, 74, 0
5, 529920, Note_on_c, 0, 72, 64
5, 530036, Note_on_c, 0, 72, 0
5, 530040, Note_on_c, 0, 66, 64
5, 530156, Note_on_c, 0, 66, 0
5, 530160, Note_on_c, 0, 72, 64
5, 530276, Note_on_c, 0, 72, 0
5, 530280, Note_on_c, 0, 66, 64
5, 530396, Note_on_c, 0, 66, 0
5, 530400, Note_on_c, 0, 72, 64
5, 530516, Note_on_c, 0, 72, 0
5, 530520, Note_on_c, 0, 66, 64
5, 530636, Note_on_c, 0, 66, 0
5, 530640, Note_on_c, 0, 71, 64
5, 530756, Note_on_c, 0, 71, 0
5, 530760, Note_on_c, 0, 67, 64
5, 530876, Note_on_c, 0, 67, 0
5, 530880, Note_on_c, 0, 71, 64
5, 530996, Note_on_c, 0, 71, 0
5, 531000, Note_on_c, 0, 67, 64
5, 531116, Note_on_c, 0, 67, 0
5, 531120, Note_on_c, 0, 71, 64
5, 531236, Note_on_c, 0, 71, 0
5, 531240, Note_on_c, 0, 67, 64
5, 531356, Note_on_c, 0, 67, 0
5, 531360, Note_on_c, 0, 69, 64
5, 531476, Note_on_c, 0, 69, 0
5, 531480, Note_on_c, 0, 62, 64
5, 531596, Note_on_c, 0, 62, 0
5, 531600, Note_on_c, 0, 69, 64
5, 531716, Note_on_c, 0, 69, 0
5, 531720, Note_on_c, 0, 62, 64
5, 531836, Note_on_c, 0, 62, 0
5, 531840, Note_on_c, 0, 69, 64
5, 531956, Note_on_c, 0, 69, 0
5, 531960, Note_on_c, 0, 62, 64
5, 532076, Note_on_c, 0, 62, 0
5, 532080, Note_on_c, 0, 67, 64
5, 532196, Note_on_c, 0, 67, 0
5, 532200, Note_on_c, 0, 62, 64
5, 532316, Note_on_c, 0, 62, 0
5, 532320, Note_on_c, 0, 67, 64
5, 532436, Note_on_c, 0, 67, 0
5, 532440, Note_on_c, 0, 62, 64
5, 532556, Note_on_c, 0, 62, 0
5, 532560, Note_on_c, 0, 67, 64
5, 532676, Note_on_c, 0, 67, 0
5, 532680, Note_on_c, 0, 62, 64
5, 532796, Note_on_c, 0, 62, 0
5, 532800, Note_on_c, 0, 69, 64
5, 532916, Note_on_c, 0, 69, 0
5, 532920, Note_on_c, 0, 72, 64
5, 533036, Note_on_c, 0, 72, 0
5, 533040, Note_on_c, 0, 62, 64
5, 533156, Note_on_c, 0, 62, 0
5, 533160, Note_on_c, 0, 72, 64
5, 533276, Note_on_c, 0, 72, 0
5, 533280, Note_on_c, 0, 69, 64
5, 533396, Note_on_c, 0, 69, 0
5, 533400, Note_on_c, 0, 72, 64
5, 533516, Note_on_c, 0, 72, 0
5, 533520, Note_on_c, 0, 69, 64
5, 533636, Note_on_c, 0, 69, 0
5, 533640, Note_on_c, 0, 72, 64
5, 533756, Note_on_c, 0, 72, 0
5, 533760, Note_on_c, 0, 62, 64
5, 533876, Note_on_c, 0, 62, 0
5, 533880, Note_on_c, 0, 72, 64
5, 533996, Note_on_c, 0, 72, 0
5, 534000, Note_on_c, 0, 69, 64
5, 534116, Note_on_c, 0, 69, 0
5, 534120, Note_on_c, 0, 72, 64
5, 534236, Note_on_c, 0, 72, 0
5, 534240, Note_on_c, 0, 71, 64
5, 534476, Note_on_c, 0, 71, 0
5, 534480, Note_on_c, 0, 55, 64
5, 534716, Note_on_c, 0, 55, 0
5, 534720, Note_on_c, 0, 55, 64
5, 534956, Note_on_c, 0, 55, 0
5, 534960, Note_on_c, 0, 55, 64
5, 535196, Note_on_c, 0, 55, 0
5, 535200, Note_on_c, 0, 55, 64
5, 535436, Note_on_c, 0, 55, 0
5, 535440, Note_on_c, 0, 55, 64
5, 535676, Note_on_c, 0, 55, 0
5, 535680, Note_on_c, 0, 55, 64
5, 535916, Note_on_c, 0, 55, 0
5, 535920, Note_on_c, 0, 55, 64
5, 536156, Note_on_c, 0, 55, 0
5, 536160, Note_on_c, 0, 55, 64
5, 536396, Note_on_c, 0, 55, 0
5, 536400, Note_on_c, 0, 55, 64
5, 536636, Note_on_c, 0, 55, 0
5, 536640, Note_on_c, 0, 55, 64
5, 536876, Note_on_c, 0, 55, 0
5, 536880, Note_on_c, 0, 55, 64
5, 537116, Note_on_c, 0, 55, 0
5, 537120, Note_on_c, 0, 62, 64
5, 537356, Note_on_c, 0, 62, 0
5, 537360, Note_on_c, 0, 62, 64
5, 537596, Note_on_c, 0, 62, 0
5, 537600, Note_on_c, 0, 62, 64
5, 537836, Note_on_c, 0, 62, 0
5, 537840, Note_on_c, 0, 62, 64
5, 538076, Note_on_c, 0, 62, 0
5, 538080, Note_on_c, 0, 62, 64
5, 538316, Note_on_c, 0, 62, 0
5, 538320, Note_on_c, 0, 62, 64
5, 538556, Note_on_c, 0, 62, 0
5, 538560, Note_on_c, 0, 62, 64
5, 538796, Note_on_c, 0, 62, 0
5, 538800, Note_on_c, 0, 55, 64
5, 538916, Note_on_c, 0, 55, 0
5, 538920, Note_on_c, 0, 57, 64
5, 539036, Note_on_c, 0, 57, 0
5, 539040, Note_on_c, 0, 62, 64
5, 539276, Note_on_c, 0, 62, 0
5, 539280, Note_on_c, 0, 50, 64
5, 539516, Note_on_c, 0, 50, 0
5, 539520, Note_on_c, 0, 57, 64
5, 539756, Note_on_c, 0, 57, 0
5, 539760, Note_on_c, 0, 60, 64
5, 539996, Note_on_c, 0, 60, 0
5, 540000, Note_on_c, 0, 59, 64
5, 541436, Note_on_c, 0, 59, 0
5, 541436, End_track
6, 0, Start_track
6, 0, Title_t, "Viola        II"
6, 0, Program_c, 1, 41
6, 0, Control_c, 1, 10, 43
6, 1680, Note_on_c, 1, 55, 64
6, 1916, Note_on_c, 1, 55, 0
6, 1920, Note_on_c, 1, 59, 64
6, 2156, Note_on_c, 1, 59, 0
6, 2160, Note_on_c, 1, 62, 64
6, 2396, Note_on_c, 1, 62, 0
6, 2400, Note_on_c, 1, 59, 64
6, 2636, Note_on_c, 1, 59, 0
6, 2640, Note_on_c, 1, 55, 64
6, 2876, Note_on_c, 1, 55, 0
6, 2880, Note_on_c, 1, 59, 64
6, 3116, Note_on_c, 1, 59, 0
6, 3120, Note_on_c, 1, 62, 64
6, 3356, Note_on_c, 1, 62, 0
6, 3360, Note_on_c, 1, 59, 64
6, 3596, Note_on_c, 1, 59, 0
6, 3600, Note_on_c, 1, 55, 64
6, 3836, Note_on_c, 1, 55, 0
6, 3840, Note_on_c, 1, 59, 64
6, 4076, Note_on_c, 1, 59, 0
6, 4080, Note_on_c, 1, 62, 64
6, 4316, Note_on_c, 1, 62, 0
6, 4320, Note_on_c, 1, 67, 64
6, 4436, Note_on_c, 1, 67, 0
6, 4440, Note_on_c, 1, 71, 64
6, 4556, Note_on_c, 1, 71, 0
6, 4560, Note_on_c, 1, 69, 64
6, 4676, Note_on_c, 1, 69, 0
6, 4680, Note_on_c, 1, 67, 64
6, 4796, Note_on_c, 1, 67, 0
6, 4800, Note_on_c, 1, 66, 64
6, 5036, Note_on_c, 1, 66, 0
6, 5040, Note_on_c, 1, 62, 64
6, 5276, Note_on_c, 1, 62, 0
6, 5520, Note_on_c, 1, 71, 64
6, 5756, Note_on_c, 1, 71, 0
6, 5760, Note_on_c, 1, 67, 64
6, 5996, Note_on_c, 1, 67, 0
6, 6000, Note_on_c, 1, 62, 64
6, 6236, Note_on_c, 1, 62, 0
6, 6480, Note_on_c, 1, 67, 64
6, 6716, Note_on_c, 1, 67, 0
6, 6720, Note_on_c, 1, 66, 64
6, 6956, Note_on_c, 1, 66, 0
6, 6960, Note_on_c, 1, 62, 64
6, 7196, Note_on_c, 1, 62, 0
6, 7440, Note_on_c, 1, 69, 64
6, 7676, Note_on_c, 1, 69, 0
6, 7680, Note_on_c, 1, 62, 64
6, 7916, Note_on_c, 1, 62, 0
6, 7920, Note_on_c, 1, 60, 64
6, 8036, Note_on_c, 1, 60, 0
6, 8040, Note_on_c, 1, 59, 64
6, 8156, Note_on_c, 1, 59, 0
6, 8160, Note_on_c, 1, 60, 64
6, 8396, Note_on_c, 1, 60, 0
6, 8400, Note_on_c, 1, 59, 64
6, 8516, Note_on_c, 1, 59, 0
6, 8520, Note_on_c, 1, 57, 64
6, 8636, Note_on_c, 1, 57, 0
6, 8640, Note_on_c, 1, 55, 64
6, 8876, Note_on_c, 1, 55, 0
6, 8880, Note_on_c, 1, 67, 64
6, 9116, Note_on_c, 1, 67, 0
6, 9120, Note_on_c, 1, 67, 64
6, 9356, Note_on_c, 1, 67, 0
6, 9360, Note_on_c, 1, 55, 64
6, 9596, Note_on_c, 1, 55, 0
6, 9600, Note_on_c, 1, 55, 64
6, 9836, Note_on_c, 1, 55, 0
6, 9840, Note_on_c, 1, 67, 64
6, 10076, Note_on_c, 1, 67, 0
6, 10080, Note_on_c, 1, 67, 64
6, 10316, Note_on_c, 1, 67, 0
6, 10320, Note_on_c, 1, 55, 64
6, 10556, Note_on_c, 1, 55, 0
6, 10560, Note_on_c, 1, 55, 64
6, 10796, Note_on_c, 1, 55, 0
6, 10800, Note_on_c, 1, 67, 64
6, 11036, Note_on_c, 1, 67, 0
6, 11040, Note_on_c, 1, 67, 64
6, 11276, Note_on_c, 1, 67, 0
6, 11280, Note_on_c, 1, 55, 64
6, 11516, Note_on_c, 1, 55, 0
6, 11520, Note_on_c, 1, 55, 64
6, 11756, Note_on_c, 1, 55, 0
6, 11760, Note_on_c, 1, 67, 64
6, 11996, Note_on_c, 1, 67, 0
6, 12000, Note_on_c, 1, 67, 64
6, 12236, Note_on_c, 1, 67, 0
6, 12240, Note_on_c, 1, 67, 64
6, 12476, Note_on_c, 1, 67, 0
6, 12480, Note_on_c, 1, 69, 64
6, 12716, Note_on_c, 1, 69, 0
6, 12720, Note_on_c, 1, 71, 64
6, 12956, Note_on_c, 1, 71, 0
6, 12960, Note_on_c, 1, 72, 64
6, 13196, Note_on_c, 1, 72, 0
6, 13200, Note_on_c, 1, 74, 64
6, 13436, Note_on_c, 1, 74, 0
6, 13440, Note_on_c, 1, 71, 64
6, 13676, Note_on_c, 1, 71, 0
6, 13680, Note_on_c, 1, 69, 64
6, 13796, Note_on_c, 1, 69, 0
6, 13800, Note_on_c, 1, 67, 64
6, 13916, Note_on_c, 1, 67, 0
6, 13920, Note_on_c, 1, 62, 64
6, 14156, Note_on_c, 1, 62, 0
6, 14160, Note_on_c, 1, 67, 64
6, 14396, Note_on_c, 1, 67, 0
6, 14400, Note_on_c, 1, 67, 64
6, 14636, Note_on_c, 1, 67, 0
6, 14640, Note_on_c, 1, 67, 64
6, 14756, Note_on_c, 1, 67, 0
6, 14760, Note_on_c, 1, 64, 64
6, 14876, Note_on_c, 1, 64, 0
6, 14880, Note_on_c, 1, 62, 64
6, 14996, Note_on_c, 1, 62, 0
6, 15000, Note_on_c, 1, 60, 64
6, 15116, Note_on_c, 1, 60, 0
6, 15120, Note_on_c, 1, 59, 64
6, 15236, Note_on_c, 1, 59, 0
6, 15240, Note_on_c, 1, 57, 64
6, 15356, Note_on_c, 1, 57, 0
6, 15360, Note_on_c, 1, 59, 64
6, 15596, Note_on_c, 1, 59, 0
6, 15600, Note_on_c, 1, 57, 64
6, 15716, Note_on_c, 1, 57, 0
6, 15720, Note_on_c, 1, 55, 64
6, 15836, Note_on_c, 1, 55, 0
6, 15840, Note_on_c, 1, 62, 64
6, 16076, Note_on_c, 1, 62, 0
6, 16080, Note_on_c, 1, 50, 64
6, 16316, Note_on_c, 1, 50, 0
6, 16320, Note_on_c, 1, 55, 64
6, 16556, Note_on_c, 1, 55, 0
6, 16560, Note_on_c, 1, 62, 64
6, 16796, Note_on_c, 1, 62, 0
6, 16800, Note_on_c, 1, 67, 64
6, 17036, Note_on_c, 1, 67, 0
6, 18000, Note_on_c, 1, 67, 64
6, 18116, Note_on_c, 1, 67, 0
6, 18120, Note_on_c, 1, 66, 64
6, 18236, Note_on_c, 1, 66, 0
6, 18240, Note_on_c, 1, 67, 64
6, 18476, Note_on_c, 1, 67, 0
6, 18480, Note_on_c, 1, 62, 64
6, 18596, Note_on_c, 1, 62, 0
6, 18600, Note_on_c, 1, 60, 64
6, 18716, Note_on_c, 1, 60, 0
6, 18720, Note_on_c, 1, 62, 64
6, 18956, Note_on_c, 1, 62, 0
6, 19440, Note_on_c, 1, 71, 64
6, 19556, Note_on_c, 1, 71, 0
6, 19560, Note_on_c, 1, 72, 64
6, 19676, Note_on_c, 1, 72, 0
6, 19680, Note_on_c, 1, 74, 64
6, 19916, Note_on_c, 1, 74, 0
6, 19920, Note_on_c, 1, 76, 64
6, 20156, Note_on_c, 1, 76, 0
6, 20160, Note_on_c, 1, 69, 64
6, 20396, Note_on_c, 1, 69, 0
6, 20400, Note_on_c, 1, 69, 64
6, 20516, Note_on_c, 1, 69, 0
6, 20520, Note_on_c, 1, 67, 64
6, 20636, Note_on_c, 1, 67, 0
6, 20640, Note_on_c, 1, 69, 64
6, 20876, Note_on_c, 1, 69, 0
6, 21360, Note_on_c, 1, 69, 64
6, 21476, Note_on_c, 1, 69, 0
6, 21480, Note_on_c, 1, 67, 64
6, 21596, Note_on_c, 1, 67, 0
6, 21600, Note_on_c, 1, 69, 64
6, 21836, Note_on_c, 1, 69, 0
6, 22320, Note_on_c, 1, 69, 64
6, 22436, Note_on_c, 1, 69, 0
6, 22440, Note_on_c, 1, 67, 64
6, 22556, Note_on_c, 1, 67, 0
6, 22560, Note_on_c, 1, 69, 64
6, 22796, Note_on_c, 1, 69, 0
6, 22800, Note_on_c, 1, 69, 64
6, 23036, Note_on_c, 1, 69, 0
6, 23040, Note_on_c, 1, 69, 64
6, 23276, Note_on_c, 1, 69, 0
6, 23280, Note_on_c, 1, 67, 64
6, 23396, Note_on_c, 1, 67, 0
6, 23400, Note_on_c, 1, 66, 64
6, 23516, Note_on_c, 1, 66, 0
6, 23520, Note_on_c, 1, 67, 64
6, 23756, Note_on_c, 1, 67, 0
6, 23760, Note_on_c, 1, 66, 64
6, 23876, Note_on_c, 1, 66, 0
6, 23880, Note_on_c, 1, 64, 64
6, 23996, Note_on_c, 1, 64, 0
6, 24000, Note_on_c, 1, 62, 64
6, 24236, Note_on_c, 1, 62, 0
6, 24240, Note_on_c, 1, 74, 64
6, 24476, Note_on_c, 1, 74, 0
6, 24480, Note_on_c, 1, 74, 64
6, 24716, Note_on_c, 1, 74, 0
6, 24720, Note_on_c, 1, 62, 64
6, 24956, Note_on_c, 1, 62, 0
6, 24960, Note_on_c, 1, 62, 64
6, 25196, Note_on_c, 1, 62, 0
6, 25200, Note_on_c, 1, 74, 64
6, 25436, Note_on_c, 1, 74, 0
6, 25440, Note_on_c, 1, 74, 64
6, 25676, Note_on_c, 1, 74, 0
6, 25680, Note_on_c, 1, 62, 64
6, 25916, Note_on_c, 1, 62, 0
6, 25920, Note_on_c, 1, 62, 64
6, 26156, Note_on_c, 1, 62, 0
6, 26160, Note_on_c, 1, 74, 64
6, 26396, Note_on_c, 1, 74, 0
6, 26400, Note_on_c, 1, 74, 64
6, 26636, Note_on_c, 1, 74, 0
6, 26640, Note_on_c, 1, 62, 64
6, 26876, Note_on_c, 1, 62, 0
6, 26880, Note_on_c, 1, 62, 64
6, 27116, Note_on_c, 1, 62, 0
6, 27120, Note_on_c, 1, 74, 64
6, 27356, Note_on_c, 1, 74, 0
6, 27360, Note_on_c, 1, 73, 64
6, 27596, Note_on_c, 1, 73, 0
6, 27600, Note_on_c, 1, 71, 64
6, 27836, Note_on_c, 1, 71, 0
6, 27840, Note_on_c, 1, 69, 64
6, 28076, Note_on_c, 1, 69, 0
6, 28080, Note_on_c, 1, 62, 64
6, 28316, Note_on_c, 1, 62, 0
6, 28320, Note_on_c, 1, 61, 64
6, 28556, Note_on_c, 1, 61, 0
6, 28560, Note_on_c, 1, 64, 64
6, 28796, Note_on_c, 1, 64, 0
6, 28800, Note_on_c, 1, 62, 64
6, 29036, Note_on_c, 1, 62, 0
6, 29040, Note_on_c, 1, 64, 64
6, 29156, Note_on_c, 1, 64, 0
6, 29160, Note_on_c, 1, 66, 64
6, 29276, Note_on_c, 1, 66, 0
6, 29280, Note_on_c, 1, 64, 64
6, 29516, Note_on_c, 1, 64, 0
6, 29520, Note_on_c, 1, 69, 64
6, 29756, Note_on_c, 1, 69, 0
6, 29760, Note_on_c, 1, 66, 64
6, 30236, Note_on_c, 1, 66, 0
6, 31440, Note_on_c, 1, 67, 64
6, 31556, Note_on_c, 1, 67, 0
6, 31560, Note_on_c, 1, 66, 64
6, 31676, Note_on_c, 1, 66, 0
6, 31680, Note_on_c, 1, 67, 64
6, 31916, Note_on_c, 1, 67, 0
6, 31920, Note_on_c, 1, 62, 64
6, 32036, Note_on_c, 1, 62, 0
6, 32040, Note_on_c, 1, 60, 64
6, 32156, Note_on_c, 1, 60, 0
6, 32160, Note_on_c, 1, 62, 64
6, 32396, Note_on_c, 1, 62, 0
6, 32880, Note_on_c, 1, 62, 64
6, 33116, Note_on_c, 1, 62, 0
6, 33120, Note_on_c, 1, 67, 64
6, 33236, Note_on_c, 1, 67, 0
6, 33240, Note_on_c, 1, 71, 64
6, 33356, Note_on_c, 1, 71, 0
6, 33360, Note_on_c, 1, 69, 64
6, 33476, Note_on_c, 1, 69, 0
6, 33480, Note_on_c, 1, 67, 64
6, 33596, Note_on_c, 1, 67, 0
6, 33600, Note_on_c, 1, 66, 64
6, 34076, Note_on_c, 1, 66, 0
6, 34320, Note_on_c, 1, 64, 64
6, 34556, Note_on_c, 1, 64, 0
6, 34560, Note_on_c, 1, 66, 64
6, 34676, Note_on_c, 1, 66, 0
6, 34680, Note_on_c, 1, 69, 64
6, 34796, Note_on_c, 1, 69, 0
6, 34800, Note_on_c, 1, 62, 64
6, 34916, Note_on_c, 1, 62, 0
6, 34920, Note_on_c, 1, 64, 64
6, 35036, Note_on_c, 1, 64, 0
6, 35040, Note_on_c, 1, 66, 64
6, 35156, Note_on_c, 1, 66, 0
6, 35160, Note_on_c, 1, 67, 64
6, 35276, Note_on_c, 1, 67, 0
6, 35280, Note_on_c, 1, 69, 64
6, 35396, Note_on_c, 1, 69, 0
6, 35400, Note_on_c, 1, 67, 64
6, 35516, Note_on_c, 1, 67, 0
6, 35520, Note_on_c, 1, 66, 64
6, 35756, Note_on_c, 1, 66, 0
6, 35760, Note_on_c, 1, 74, 64
6, 35996, Note_on_c, 1, 74, 0
6, 36240, Note_on_c, 1, 74, 64
6, 36356, Note_on_c, 1, 74, 0
6, 36360, Note_on_c, 1, 73, 64
6, 36476, Note_on_c, 1, 73, 0
6, 36480, Note_on_c, 1, 74, 64
6, 36716, Note_on_c, 1, 74, 0
6, 36720, Note_on_c, 1, 69, 64
6, 36836, Note_on_c, 1, 69, 0
6, 36840, Note_on_c, 1, 67, 64
6, 36956, Note_on_c, 1, 67, 0
6, 36960, Note_on_c, 1, 69, 64
6, 37196, Note_on_c, 1, 69, 0
6, 37200, Note_on_c, 1, 74, 64
6, 37316, Note_on_c, 1, 74, 0
6, 37320, Note_on_c, 1, 73, 64
6, 37436, Note_on_c, 1, 73, 0
6, 37440, Note_on_c, 1, 74, 64
6, 37676, Note_on_c, 1, 74, 0
6, 37680, Note_on_c, 1, 66, 64
6, 37796, Note_on_c, 1, 66, 0
6, 37800, Note_on_c, 1, 64, 64
6, 37916, Note_on_c, 1, 64, 0
6, 37920, Note_on_c, 1, 66, 64
6, 38156, Note_on_c, 1, 66, 0
6, 38160, Note_on_c, 1, 74, 64
6, 38276, Note_on_c, 1, 74, 0
6, 38280, Note_on_c, 1, 73, 64
6, 38396, Note_on_c, 1, 73, 0
6, 38400, Note_on_c, 1, 74, 64
6, 38636, Note_on_c, 1, 74, 0
6, 38640, Note_on_c, 1, 62, 64
6, 38756, Note_on_c, 1, 62, 0
6, 38760, Note_on_c, 1, 64, 64
6, 38876, Note_on_c, 1, 64, 0
6, 38880, Note_on_c, 1, 66, 64
6, 39116, Note_on_c, 1, 66, 0
6, 39120, Note_on_c, 1, 68, 64
6, 39356, Note_on_c, 1, 68, 0
6, 39360, Note_on_c, 1, 69, 64
6, 39596, Note_on_c, 1, 69, 0
6, 39600, Note_on_c, 1, 69, 64
6, 39716, Note_on_c, 1, 69, 0
6, 39720, Note_on_c, 1, 68, 64
6, 39836, Note_on_c, 1, 68, 0
6, 39840, Note_on_c, 1, 69, 64
6, 40076, Note_on_c, 1, 69, 0
6, 40560, Note_on_c, 1, 67, 64
6, 40676, Note_on_c, 1, 67, 0
6, 40680, Note_on_c, 1, 66, 64
6, 40796, Note_on_c, 1, 66, 0
6, 40800, Note_on_c, 1, 64, 64
6, 41036, Note_on_c, 1, 64, 0
6, 41520, Note_on_c, 1, 66, 64
6, 41636, Note_on_c, 1, 66, 0
6, 41640, Note_on_c, 1, 64, 64
6, 41756, Note_on_c, 1, 64, 0
6, 41760, Note_on_c, 1, 66, 64
6, 41996, Note_on_c, 1, 66, 0
6, 42480, Note_on_c, 1, 71, 64
6, 42596, Note_on_c, 1, 71, 0
6, 42600, Note_on_c, 1, 73, 64
6, 42716, Note_on_c, 1, 73, 0
6, 42720, Note_on_c, 1, 71, 64
6, 42956, Note_on_c, 1, 71, 0
6, 42960, Note_on_c, 1, 71, 64
6, 43196, Note_on_c, 1, 71, 0
6, 43200, Note_on_c, 1, 71, 64
6, 43436, Note_on_c, 1, 71, 0
6, 43440, Note_on_c, 1, 69, 64
6, 43556, Note_on_c, 1, 69, 0
6, 43560, Note_on_c, 1, 71, 64
6, 43676, Note_on_c, 1, 71, 0
6, 43680, Note_on_c, 1, 69, 64
6, 43916, Note_on_c, 1, 69, 0
6, 43920, Note_on_c, 1, 69, 64
6, 44036, Note_on_c, 1, 69, 0
6, 44040, Note_on_c, 1, 67, 64
6, 44156, Note_on_c, 1, 67, 0
6, 44160, Note_on_c, 1, 69, 64
6, 44396, Note_on_c, 1, 69, 0
6, 44400, Note_on_c, 1, 64, 64
6, 44636, Note_on_c, 1, 64, 0
6, 44640, Note_on_c, 1, 64, 64
6, 44876, Note_on_c, 1, 64, 0
6, 44880, Note_on_c, 1, 64, 64
6, 45116, Note_on_c, 1, 64, 0
6, 45120, Note_on_c, 1, 62, 64
6, 45356, Note_on_c, 1, 62, 0
6, 45360, Note_on_c, 1, 62, 64
6, 45596, Note_on_c, 1, 62, 0
6, 45600, Note_on_c, 1, 62, 64
6, 45836, Note_on_c, 1, 62, 0
6, 45840, Note_on_c, 1, 62, 64
6, 46076, Note_on_c, 1, 62, 0
6, 46080, Note_on_c, 1, 62, 64
6, 46316, Note_on_c, 1, 62, 0
6, 46320, Note_on_c, 1, 62, 64
6, 46556, Note_on_c, 1, 62, 0
6, 46560, Note_on_c, 1, 62, 64
6, 46796, Note_on_c, 1, 62, 0
6, 46800, Note_on_c, 1, 62, 64
6, 47036, Note_on_c, 1, 62, 0
6, 47040, Note_on_c, 1, 62, 64
6, 47276, Note_on_c, 1, 62, 0
6, 47760, Note_on_c, 1, 62, 64
6, 47876, Note_on_c, 1, 62, 0
6, 47880, Note_on_c, 1, 61, 64
6, 47996, Note_on_c, 1, 61, 0
6, 48000, Note_on_c, 1, 62, 64
6, 48236, Note_on_c, 1, 62, 0
6, 48720, Note_on_c, 1, 62, 64
6, 48836, Note_on_c, 1, 62, 0
6, 48840, Note_on_c, 1, 61, 64
6, 48956, Note_on_c, 1, 61, 0
6, 48960, Note_on_c, 1, 62, 64
6, 49196, Note_on_c, 1, 62, 0
6, 49200, Note_on_c, 1, 62, 64
6, 49436, Note_on_c, 1, 62, 0
6, 49440, Note_on_c, 1, 62, 64
6, 49676, Note_on_c, 1, 62, 0
6, 49680, Note_on_c, 1, 66, 64
6, 49916, Note_on_c, 1, 66, 0
6, 49920, Note_on_c, 1, 62, 64
6, 50156, Note_on_c, 1, 62, 0
6, 50160, Note_on_c, 1, 67, 64
6, 50396, Note_on_c, 1, 67, 0
6, 50400, Note_on_c, 1, 67, 64
6, 50636, Note_on_c, 1, 67, 0
6, 50640, Note_on_c, 1, 67, 64
6, 50876, Note_on_c, 1, 67, 0
6, 50880, Note_on_c, 1, 67, 64
6, 51116, Note_on_c, 1, 67, 0
6, 51120, Note_on_c, 1, 67, 64
6, 51356, Note_on_c, 1, 67, 0
6, 51360, Note_on_c, 1, 67, 64
6, 51596, Note_on_c, 1, 67, 0
6, 51600, Note_on_c, 1, 67, 64
6, 51836, Note_on_c, 1, 67, 0
6, 51840, Note_on_c, 1, 55, 64
6, 51956, Note_on_c, 1, 55, 0
6, 51960, Note_on_c, 1, 54, 64
6, 52076, Note_on_c, 1, 54, 0
6, 52080, Note_on_c, 1, 55, 64
6, 52196, Note_on_c, 1, 55, 0
6, 52200, Note_on_c, 1, 57, 64
6, 52316, Note_on_c, 1, 57, 0
6, 52320, Note_on_c, 1, 55, 64
6, 52436, Note_on_c, 1, 55, 0
6, 52440, Note_on_c, 1, 59, 64
6, 52556, Note_on_c, 1, 59, 0
6, 52560, Note_on_c, 1, 55, 64
6, 52676, Note_on_c, 1, 55, 0
6, 52680, Note_on_c, 1, 60, 64
6, 52796, Note_on_c, 1, 60, 0
6, 52800, Note_on_c, 1, 55, 64
6, 52916, Note_on_c, 1, 55, 0
6, 52920, Note_on_c, 1, 54, 64
6, 53036, Note_on_c, 1, 54, 0
6, 53040, Note_on_c, 1, 55, 64
6, 53156, Note_on_c, 1, 55, 0
6, 53160, Note_on_c, 1, 57, 64
6, 53276, Note_on_c, 1, 57, 0
6, 53280, Note_on_c, 1, 55, 64
6, 53396, Note_on_c, 1, 55, 0
6, 53400, Note_on_c, 1, 62, 64
6, 53516, Note_on_c, 1, 62, 0
6, 53520, Note_on_c, 1, 55, 64
6, 53636, Note_on_c, 1, 55, 0
6, 53640, Note_on_c, 1, 64, 64
6, 53756, Note_on_c, 1, 64, 0
6, 53760, Note_on_c, 1, 65, 64
6, 53876, Note_on_c, 1, 65, 0
6, 53880, Note_on_c, 1, 64, 64
6, 53996, Note_on_c, 1, 64, 0
6, 54000, Note_on_c, 1, 65, 64
6, 54116, Note_on_c, 1, 65, 0
6, 54120, Note_on_c, 1, 67, 64
6, 54236, Note_on_c, 1, 67, 0
6, 54240, Note_on_c, 1, 65, 64
6, 54356, Note_on_c, 1, 65, 0
6, 54360, Note_on_c, 1, 64, 64
6, 54476, Note_on_c, 1, 64, 0
6, 54480, Note_on_c, 1, 65, 64
6, 54596, Note_on_c, 1, 65, 0
6, 54600, Note_on_c, 1, 62, 64
6, 54716, Note_on_c, 1, 62, 0
6, 54720, Note_on_c, 1, 64, 64
6, 54836, Note_on_c, 1, 64, 0
6, 54840, Note_on_c, 1, 59, 64
6, 54956, Note_on_c, 1, 59, 0
6, 54960, Note_on_c, 1, 60, 64
6, 55076, Note_on_c, 1, 60, 0
6, 55080, Note_on_c, 1, 62, 64
6, 55196, Note_on_c, 1, 62, 0
6, 55200, Note_on_c, 1, 64, 64
6, 55316, Note_on_c, 1, 64, 0
6, 55320, Note_on_c, 1, 62, 64
6, 55436, Note_on_c, 1, 62, 0
6, 55440, Note_on_c, 1, 64, 64
6, 55556, Note_on_c, 1, 64, 0
6, 55560, Note_on_c, 1, 65, 64
6, 55676, Note_on_c, 1, 65, 0
6, 55680, Note_on_c, 1, 67, 64
6, 55916, Note_on_c, 1, 67, 0
6, 55920, Note_on_c, 1, 64, 64
6, 56156, Note_on_c, 1, 64, 0
6, 56160, Note_on_c, 1, 64, 64
6, 56396, Note_on_c, 1, 64, 0
6, 56400, Note_on_c, 1, 62, 64
6, 56516, Note_on_c, 1, 62, 0
6, 56520, Note_on_c, 1, 64, 64
6, 56636, Note_on_c, 1, 64, 0
6, 56640, Note_on_c, 1, 62, 64
6, 56876, Note_on_c, 1, 62, 0
6, 56880, Note_on_c, 1, 62, 64
6, 57116, Note_on_c, 1, 62, 0
6, 57120, Note_on_c, 1, 62, 64
6, 57356, Note_on_c, 1, 62, 0
6, 57360, Note_on_c, 1, 60, 64
6, 57476, Note_on_c, 1, 60, 0
6, 57480, Note_on_c, 1, 62, 64
6, 57596, Note_on_c, 1, 62, 0
6, 57600, Note_on_c, 1, 60, 64
6, 57836, Note_on_c, 1, 60, 0
6, 57840, Note_on_c, 1, 60, 64
6, 58076, Note_on_c, 1, 60, 0
6, 58080, Note_on_c, 1, 60, 64
6, 58316, Note_on_c, 1, 60, 0
6, 58320, Note_on_c, 1, 62, 64
6, 58556, Note_on_c, 1, 62, 0
6, 58560, Note_on_c, 1, 62, 64
6, 58796, Note_on_c, 1, 62, 0
6, 58800, Note_on_c, 1, 62, 64
6, 59036, Note_on_c, 1, 62, 0
6, 59040, Note_on_c, 1, 62, 64
6, 59276, Note_on_c, 1, 62, 0
6, 59280, Note_on_c, 1, 62, 64
6, 59516, Note_on_c, 1, 62, 0
6, 59520, Note_on_c, 1, 62, 64
6, 59756, Note_on_c, 1, 62, 0
6, 59760, Note_on_c, 1, 64, 64
6, 59996, Note_on_c, 1, 64, 0
6, 60000, Note_on_c, 1, 65, 64
6, 60236, Note_on_c, 1, 65, 0
6, 60240, Note_on_c, 1, 65, 64
6, 60476, Note_on_c, 1, 65, 0
6, 60480, Note_on_c, 1, 64, 64
6, 60956, Note_on_c, 1, 64, 0
6, 61200, Note_on_c, 1, 60, 64
6, 61436, Note_on_c, 1, 60, 0
6, 61440, Note_on_c, 1, 64, 64
6, 61676, Note_on_c, 1, 64, 0
6, 61680, Note_on_c, 1, 67, 64
6, 61916, Note_on_c, 1, 67, 0
6, 61920, Note_on_c, 1, 64, 64
6, 62156, Note_on_c, 1, 64, 0
6, 62160, Note_on_c, 1, 60, 64
6, 62396, Note_on_c, 1, 60, 0
6, 62400, Note_on_c, 1, 64, 64
6, 62636, Note_on_c, 1, 64, 0
6, 62640, Note_on_c, 1, 67, 64
6, 62876, Note_on_c, 1, 67, 0
6, 62880, Note_on_c, 1, 64, 64
6, 63116, Note_on_c, 1, 64, 0
6, 63120, Note_on_c, 1, 60, 64
6, 63356, Note_on_c, 1, 60, 0
6, 63360, Note_on_c, 1, 67, 64
6, 63596, Note_on_c, 1, 67, 0
6, 63600, Note_on_c, 1, 67, 64
6, 63716, Note_on_c, 1, 67, 0
6, 63720, Note_on_c, 1, 67, 64
6, 63836, Note_on_c, 1, 67, 0
6, 63840, Note_on_c, 1, 67, 64
6, 64076, Note_on_c, 1, 67, 0
6, 64320, Note_on_c, 1, 67, 64
6, 64436, Note_on_c, 1, 67, 0
6, 64440, Note_on_c, 1, 66, 64
6, 64556, Note_on_c, 1, 66, 0
6, 64560, Note_on_c, 1, 67, 64
6, 64676, Note_on_c, 1, 67, 0
6, 64680, Note_on_c, 1, 69, 64
6, 64796, Note_on_c, 1, 69, 0
6, 64800, Note_on_c, 1, 67, 64
6, 64916, Note_on_c, 1, 67, 0
6, 64920, Note_on_c, 1, 71, 64
6, 65036, Note_on_c, 1, 71, 0
6, 65040, Note_on_c, 1, 67, 64
6, 65156, Note_on_c, 1, 67, 0
6, 65160, Note_on_c, 1, 72, 64
6, 65276, Note_on_c, 1, 72, 0
6, 65280, Note_on_c, 1, 71, 64
6, 65396, Note_on_c, 1, 71, 0
6, 65400, Note_on_c, 1, 69, 64
6, 65516, Note_on_c, 1, 69, 0
6, 65520, Note_on_c, 1, 71, 64
6, 65636, Note_on_c, 1, 71, 0
6, 65640, Note_on_c, 1, 72, 64
6, 65756, Note_on_c, 1, 72, 0
6, 65760, Note_on_c, 1, 71, 64
6, 65876, Note_on_c, 1, 71, 0
6, 65880, Note_on_c, 1, 74, 64
6, 65996, Note_on_c, 1, 74, 0
6, 66000, Note_on_c, 1, 72, 64
6, 66116, Note_on_c, 1, 72, 0
6, 66120, Note_on_c, 1, 76, 64
6, 66236, Note_on_c, 1, 76, 0
6, 66240, Note_on_c, 1, 74, 64
6, 66356, Note_on_c, 1, 74, 0
6, 66360, Note_on_c, 1, 72, 64
6, 66476, Note_on_c, 1, 72, 0
6, 66480, Note_on_c, 1, 74, 64
6, 66596, Note_on_c, 1, 74, 0
6, 66600, Note_on_c, 1, 76, 64
6, 66716, Note_on_c, 1, 76, 0
6, 66720, Note_on_c, 1, 74, 64
6, 66836, Note_on_c, 1, 74, 0
6, 66840, Note_on_c, 1, 76, 64
6, 66956, Note_on_c, 1, 76, 0
6, 66960, Note_on_c, 1, 74, 64
6, 67076, Note_on_c, 1, 74, 0
6, 67080, Note_on_c, 1, 72, 64
6, 67196, Note_on_c, 1, 72, 0
6, 67200, Note_on_c, 1, 71, 64
6, 67316, Note_on_c, 1, 71, 0
6, 67320, Note_on_c, 1, 72, 64
6, 67436, Note_on_c, 1, 72, 0
6, 67440, Note_on_c, 1, 71, 64
6, 67556, Note_on_c, 1, 71, 0
6, 67560, Note_on_c, 1, 69, 64
6, 67676, Note_on_c, 1, 69, 0
6, 67680, Note_on_c, 1, 67, 64
6, 67916, Note_on_c, 1, 67, 0
6, 67920, Note_on_c, 1, 64, 64
6, 68156, Note_on_c, 1, 64, 0
6, 68160, Note_on_c, 1, 62, 64
6, 68636, Note_on_c, 1, 62, 0
6, 68880, Note_on_c, 1, 61, 64
6, 69116, Note_on_c, 1, 61, 0
6, 69120, Note_on_c, 1, 62, 64
6, 69356, Note_on_c, 1, 62, 0
6, 69840, Note_on_c, 1, 64, 64
6, 70076, Note_on_c, 1, 64, 0
6, 70080, Note_on_c, 1, 66, 64
6, 70316, Note_on_c, 1, 66, 0
6, 70800, Note_on_c, 1, 57, 64
6, 71036, Note_on_c, 1, 57, 0
6, 71040, Note_on_c, 1, 59, 64
6, 71276, Note_on_c, 1, 59, 0
6, 71280, Note_on_c, 1, 59, 64
6, 71516, Note_on_c, 1, 59, 0
6, 71520, Note_on_c, 1, 57, 64
6, 71756, Note_on_c, 1, 57, 0
6, 71760, Note_on_c, 1, 59, 64
6, 71876, Note_on_c, 1, 59, 0
6, 71880, Note_on_c, 1, 60, 64
6, 71996, Note_on_c, 1, 60, 0
6, 72000, Note_on_c, 1, 59, 64
6, 72236, Note_on_c, 1, 59, 0
6, 72240, Note_on_c, 1, 71, 64
6, 72476, Note_on_c, 1, 71, 0
6, 72480, Note_on_c, 1, 67, 64
6, 72716, Note_on_c, 1, 67, 0
6, 72720, Note_on_c, 1, 62, 64
6, 72956, Note_on_c, 1, 62, 0
6, 73200, Note_on_c, 1, 62, 64
6, 73316, Note_on_c, 1, 62, 0
6, 73320, Note_on_c, 1, 60, 64
6, 73436, Note_on_c, 1, 60, 0
6, 73440, Note_on_c, 1, 62, 64
6, 73676, Note_on_c, 1, 62, 0
6, 73680, Note_on_c, 1, 67, 64
6, 73796, Note_on_c, 1, 67, 0
6, 73800, Note_on_c, 1, 66, 64
6, 73916, Note_on_c, 1, 66, 0
6, 73920, Note_on_c, 1, 67, 64
6, 74156, Note_on_c, 1, 67, 0
6, 75600, Note_on_c, 1, 62, 64
6, 75716, Note_on_c, 1, 62, 0
6, 75720, Note_on_c, 1, 60, 64
6, 75836, Note_on_c, 1, 60, 0
6, 75840, Note_on_c, 1, 62, 64
6, 76076, Note_on_c, 1, 62, 0
6, 76080, Note_on_c, 1, 55, 64
6, 76196, Note_on_c, 1, 55, 0
6, 76200, Note_on_c, 1, 54, 64
6, 76316, Note_on_c, 1, 54, 0
6, 76320, Note_on_c, 1, 55, 64
6, 76556, Note_on_c, 1, 55, 0
6, 76560, Note_on_c, 1, 67, 64
6, 76676, Note_on_c, 1, 67, 0
6, 76680, Note_on_c, 1, 66, 64
6, 76796, Note_on_c, 1, 66, 0
6, 76800, Note_on_c, 1, 67, 64
6, 77036, Note_on_c, 1, 67, 0
6, 77040, Note_on_c, 1, 55, 64
6, 77156, Note_on_c, 1, 55, 0
6, 77160, Note_on_c, 1, 57, 64
6, 77276, Note_on_c, 1, 57, 0
6, 77280, Note_on_c, 1, 59, 64
6, 77516, Note_on_c, 1, 59, 0
6, 77520, Note_on_c, 1, 61, 64
6, 77756, Note_on_c, 1, 61, 0
6, 77760, Note_on_c, 1, 62, 64
6, 77996, Note_on_c, 1, 62, 0
6, 78000, Note_on_c, 1, 69, 64
6, 78116, Note_on_c, 1, 69, 0
6, 78120, Note_on_c, 1, 67, 64
6, 78236, Note_on_c, 1, 67, 0
6, 78240, Note_on_c, 1, 69, 64
6, 78476, Note_on_c, 1, 69, 0
6, 78960, Note_on_c, 1, 57, 64
6, 79076, Note_on_c, 1, 57, 0
6, 79080, Note_on_c, 1, 55, 64
6, 79196, Note_on_c, 1, 55, 0
6, 79200, Note_on_c, 1, 57, 64
6, 79436, Note_on_c, 1, 57, 0
6, 79920, Note_on_c, 1, 62, 64
6, 80156, Note_on_c, 1, 62, 0
6, 80160, Note_on_c, 1, 57, 64
6, 80396, Note_on_c, 1, 57, 0
6, 80400, Note_on_c, 1, 54, 64
6, 80636, Note_on_c, 1, 54, 0
6, 80640, Note_on_c, 1, 62, 64
6, 80876, Note_on_c, 1, 62, 0
6, 80880, Note_on_c, 1, 64, 64
6, 81116, Note_on_c, 1, 64, 0
6, 81120, Note_on_c, 1, 64, 64
6, 81356, Note_on_c, 1, 64, 0
6, 81360, Note_on_c, 1, 62, 64
6, 81596, Note_on_c, 1, 62, 0
6, 81600, Note_on_c, 1, 67, 64
6, 81836, Note_on_c, 1, 67, 0
6, 81840, Note_on_c, 1, 55, 64
6, 82076, Note_on_c, 1, 55, 0
6, 82080, Note_on_c, 1, 55, 64
6, 82316, Note_on_c, 1, 55, 0
6, 82320, Note_on_c, 1, 67, 64
6, 82556, Note_on_c, 1, 67, 0
6, 82560, Note_on_c, 1, 67, 64
6, 82796, Note_on_c, 1, 67, 0
6, 82800, Note_on_c, 1, 55, 64
6, 83036, Note_on_c, 1, 55, 0
6, 83040, Note_on_c, 1, 55, 64
6, 83276, Note_on_c, 1, 55, 0
6, 83280, Note_on_c, 1, 67, 64
6, 83516, Note_on_c, 1, 67, 0
6, 83520, Note_on_c, 1, 67, 64
6, 83756, Note_on_c, 1, 67, 0
6, 83760, Note_on_c, 1, 55, 64
6, 83996, Note_on_c, 1, 55, 0
6, 84000, Note_on_c, 1, 55, 64
6, 84236, Note_on_c, 1, 55, 0
6, 84240, Note_on_c, 1, 64, 64
6, 84476, Note_on_c, 1, 64, 0
6, 84480, Note_on_c, 1, 62, 64
6, 84716, Note_on_c, 1, 62, 0
6, 84720, Note_on_c, 1, 64, 64
6, 84956, Note_on_c, 1, 64, 0
6, 84960, Note_on_c, 1, 66, 64
6, 85196, Note_on_c, 1, 66, 0
6, 85200, Note_on_c, 1, 62, 64
6, 85316, Note_on_c, 1, 62, 0
6, 85320, Note_on_c, 1, 64, 64
6, 85436, Note_on_c, 1, 64, 0
6, 85440, Note_on_c, 1, 66, 64
6, 85676, Note_on_c, 1, 66, 0
6, 85680, Note_on_c, 1, 67, 64
6, 85916, Note_on_c, 1, 67, 0
6, 85920, Note_on_c, 1, 69, 64
6, 86156, Note_on_c, 1, 69, 0
6, 86160, Note_on_c, 1, 66, 64
6, 86396, Note_on_c, 1, 66, 0
6, 86400, Note_on_c, 1, 62, 64
6, 86636, Note_on_c, 1, 62, 0
6, 86640, Note_on_c, 1, 64, 64
6, 86876, Note_on_c, 1, 64, 0
6, 86880, Note_on_c, 1, 66, 64
6, 87116, Note_on_c, 1, 66, 0
6, 87120, Note_on_c, 1, 62, 64
6, 87120, Note_on_c, 1, 69, 64
6, 87356, Note_on_c, 1, 69, 0
6, 87356, Note_on_c, 1, 62, 0
6, 87360, Note_on_c, 1, 67, 64
6, 87596, Note_on_c, 1, 67, 0
6, 87600, Note_on_c, 1, 66, 64
6, 87716, Note_on_c, 1, 66, 0
6, 87720, Note_on_c, 1, 64, 64
6, 87836, Note_on_c, 1, 64, 0
6, 87840, Note_on_c, 1, 62, 64
6, 87956, Note_on_c, 1, 62, 0
6, 87960, Note_on_c, 1, 60, 64
6, 88076, Note_on_c, 1, 60, 0
6, 88080, Note_on_c, 1, 59, 64
6, 88196, Note_on_c, 1, 59, 0
6, 88200, Note_on_c, 1, 57, 64
6, 88316, Note_on_c, 1, 57, 0
6, 88320, Note_on_c, 1, 59, 64
6, 88556, Note_on_c, 1, 59, 0
6, 88560, Note_on_c, 1, 57, 64
6, 88676, Note_on_c, 1, 57, 0
6, 88680, Note_on_c, 1, 55, 64
6, 88796, Note_on_c, 1, 55, 0
6, 88800, Note_on_c, 1, 62, 64
6, 89036, Note_on_c, 1, 62, 0
6, 89040, Note_on_c, 1, 50, 64
6, 89276, Note_on_c, 1, 50, 0
6, 89280, Note_on_c, 1, 67, 64
6, 89516, Note_on_c, 1, 67, 0
6, 89520, Note_on_c, 1, 66, 64
6, 89636, Note_on_c, 1, 66, 0
6, 89640, Note_on_c, 1, 64, 64
6, 89756, Note_on_c, 1, 64, 0
6, 89760, Note_on_c, 1, 62, 64
6, 89876, Note_on_c, 1, 62, 0
6, 89880, Note_on_c, 1, 60, 64
6, 89996, Note_on_c, 1, 60, 0
6, 90000, Note_on_c, 1, 59, 64
6, 90116, Note_on_c, 1, 59, 0
6, 90120, Note_on_c, 1, 57, 64
6, 90236, Note_on_c, 1, 57, 0
6, 90240, Note_on_c, 1, 55, 64
6, 90476, Note_on_c, 1, 55, 0
6, 90480, Note_on_c, 1, 55, 64
6, 90716, Note_on_c, 1, 55, 0
6, 90720, Note_on_c, 1, 55, 64
6, 90956, Note_on_c, 1, 55, 0
6, 90960, Note_on_c, 1, 55, 64
6, 91196, Note_on_c, 1, 55, 0
6, 91200, Note_on_c, 1, 55, 64
6, 91436, Note_on_c, 1, 55, 0
6, 91440, Note_on_c, 1, 55, 64
6, 91676, Note_on_c, 1, 55, 0
6, 91680, Note_on_c, 1, 55, 64
6, 91916, Note_on_c, 1, 55, 0
6, 91920, Note_on_c, 1, 55, 64
6, 92156, Note_on_c, 1, 55, 0
6, 92160, Note_on_c, 1, 55, 64
6, 92396, Note_on_c, 1, 55, 0
6, 92400, Note_on_c, 1, 55, 64
6, 92636, Note_on_c, 1, 55, 0
6, 92640, Note_on_c, 1, 55, 64
6, 92876, Note_on_c, 1, 55, 0
6, 92880, Note_on_c, 1, 55, 64
6, 93116, Note_on_c, 1, 55, 0
6, 93120, Note_on_c, 1, 55, 64
6, 93356, Note_on_c, 1, 55, 0
6, 93360, Note_on_c, 1, 55, 64
6, 93596, Note_on_c, 1, 55, 0
6, 93600, Note_on_c, 1, 55, 64
6, 93836, Note_on_c, 1, 55, 0
6, 93840, Note_on_c, 1, 55, 64
6, 94076, Note_on_c, 1, 55, 0
6, 94080, Note_on_c, 1, 55, 64
6, 94316, Note_on_c, 1, 55, 0
6, 94320, Note_on_c, 1, 55, 64
6, 94556, Note_on_c, 1, 55, 0
6, 94560, Note_on_c, 1, 55, 64
6, 94796, Note_on_c, 1, 55, 0
6, 94800, Note_on_c, 1, 55, 64
6, 95036, Note_on_c, 1, 55, 0
6, 95040, Note_on_c, 1, 55, 64
6, 95276, Note_on_c, 1, 55, 0
6, 95280, Note_on_c, 1, 55, 64
6, 95516, Note_on_c, 1, 55, 0
6, 95520, Note_on_c, 1, 55, 64
6, 95756, Note_on_c, 1, 55, 0
6, 95760, Note_on_c, 1, 55, 64
6, 95996, Note_on_c, 1, 55, 0
6, 96000, Note_on_c, 1, 55, 64
6, 96236, Note_on_c, 1, 55, 0
6, 96240, Note_on_c, 1, 55, 64
6, 96476, Note_on_c, 1, 55, 0
6, 96480, Note_on_c, 1, 55, 64
6, 96716, Note_on_c, 1, 55, 0
6, 96720, Note_on_c, 1, 57, 64
6, 96956, Note_on_c, 1, 57, 0
6, 96960, Note_on_c, 1, 57, 64
6, 97076, Note_on_c, 1, 57, 0
6, 97080, Note_on_c, 1, 74, 64
6, 97196, Note_on_c, 1, 74, 0
6, 97200, Note_on_c, 1, 73, 64
6, 97316, Note_on_c, 1, 73, 0
6, 97320, Note_on_c, 1, 71, 64
6, 97436, Note_on_c, 1, 71, 0
6, 97440, Note_on_c, 1, 69, 64
6, 97556, Note_on_c, 1, 69, 0
6, 97560, Note_on_c, 1, 67, 64
6, 97676, Note_on_c, 1, 67, 0
6, 97680, Note_on_c, 1, 66, 64
6, 97796, Note_on_c, 1, 66, 0
6, 97800, Note_on_c, 1, 64, 64
6, 97916, Note_on_c, 1, 64, 0
6, 97920, Note_on_c, 1, 63, 64
6, 98156, Note_on_c, 1, 63, 0
6, 98160, Note_on_c, 1, 63, 64
6, 98396, Note_on_c, 1, 63, 0
6, 98400, Note_on_c, 1, 63, 64
6, 98636, Note_on_c, 1, 63, 0
6, 98640, Note_on_c, 1, 63, 64
6, 98876, Note_on_c, 1, 63, 0
6, 98880, Note_on_c, 1, 66, 64
6, 99116, Note_on_c, 1, 66, 0
6, 99120, Note_on_c, 1, 66, 64
6, 99356, Note_on_c, 1, 66, 0
6, 99360, Note_on_c, 1, 66, 64
6, 99596, Note_on_c, 1, 66, 0
6, 99600, Note_on_c, 1, 66, 64
6, 99836, Note_on_c, 1, 66, 0
6, 99840, Note_on_c, 1, 69, 64
6, 100076, Note_on_c, 1, 69, 0
6, 100080, Note_on_c, 1, 69, 64
6, 100316, Note_on_c, 1, 69, 0
6, 100320, Note_on_c, 1, 69, 64
6, 100556, Note_on_c, 1, 69, 0
6, 100560, Note_on_c, 1, 69, 64
6, 100796, Note_on_c, 1, 69, 0
6, 100800, Note_on_c, 1, 69, 64
6, 101036, Note_on_c, 1, 69, 0
6, 101040, Note_on_c, 1, 69, 64
6, 101276, Note_on_c, 1, 69, 0
6, 101280, Note_on_c, 1, 69, 64
6, 101516, Note_on_c, 1, 69, 0
6, 101520, Note_on_c, 1, 69, 64
6, 101756, Note_on_c, 1, 69, 0
6, 101760, Note_on_c, 1, 63, 64
6, 101996, Note_on_c, 1, 63, 0
6, 102000, Note_on_c, 1, 63, 64
6, 102236, Note_on_c, 1, 63, 0
6, 102240, Note_on_c, 1, 63, 64
6, 102476, Note_on_c, 1, 63, 0
6, 102480, Note_on_c, 1, 63, 64
6, 102716, Note_on_c, 1, 63, 0
6, 102720, Note_on_c, 1, 59, 64
6, 102956, Note_on_c, 1, 59, 0
6, 102960, Note_on_c, 1, 59, 64
6, 103196, Note_on_c, 1, 59, 0
6, 103200, Note_on_c, 1, 59, 64
6, 103436, Note_on_c, 1, 59, 0
6, 103440, Note_on_c, 1, 59, 64
6, 103676, Note_on_c, 1, 59, 0
6, 103680, Note_on_c, 1, 59, 64
6, 104156, Note_on_c, 1, 59, 0
6, 104400, Note_on_c, 1, 64, 64
6, 104516, Note_on_c, 1, 64, 0
6, 104520, Note_on_c, 1, 63, 64
6, 104636, Note_on_c, 1, 63, 0
6, 104640, Note_on_c, 1, 64, 64
6, 104876, Note_on_c, 1, 64, 0
6, 104880, Note_on_c, 1, 59, 64
6, 104996, Note_on_c, 1, 59, 0
6, 105000, Note_on_c, 1, 57, 64
6, 105116, Note_on_c, 1, 57, 0
6, 105120, Note_on_c, 1, 59, 64
6, 105356, Note_on_c, 1, 59, 0
6, 105840, Note_on_c, 1, 52, 64
6, 105956, Note_on_c, 1, 52, 0
6, 105960, Note_on_c, 1, 54, 64
6, 106076, Note_on_c, 1, 54, 0
6, 106080, Note_on_c, 1, 55, 64
6, 106316, Note_on_c, 1, 55, 0
6, 106320, Note_on_c, 1, 57, 64
6, 106556, Note_on_c, 1, 57, 0
6, 106560, Note_on_c, 1, 59, 64
6, 107036, Note_on_c, 1, 59, 0
6, 107760, Note_on_c, 1, 69, 64
6, 107876, Note_on_c, 1, 69, 0
6, 107880, Note_on_c, 1, 67, 64
6, 107996, Note_on_c, 1, 67, 0
6, 108000, Note_on_c, 1, 69, 64
6, 108236, Note_on_c, 1, 69, 0
6, 108240, Note_on_c, 1, 72, 64
6, 108356, Note_on_c, 1, 72, 0
6, 108360, Note_on_c, 1, 71, 64
6, 108476, Note_on_c, 1, 71, 0
6, 108480, Note_on_c, 1, 72, 64
6, 108716, Note_on_c, 1, 72, 0
6, 108720, Note_on_c, 1, 63, 64
6, 108836, Note_on_c, 1, 63, 0
6, 108840, Note_on_c, 1, 61, 64
6, 108956, Note_on_c, 1, 61, 0
6, 108960, Note_on_c, 1, 63, 64
6, 109196, Note_on_c, 1, 63, 0
6, 109200, Note_on_c, 1, 71, 64
6, 109436, Note_on_c, 1, 71, 0
6, 109440, Note_on_c, 1, 67, 64
6, 109676, Note_on_c, 1, 67, 0
6, 109680, Note_on_c, 1, 66, 64
6, 109796, Note_on_c, 1, 66, 0
6, 109800, Note_on_c, 1, 64, 64
6, 109916, Note_on_c, 1, 64, 0
6, 109920, Note_on_c, 1, 66, 64
6, 110156, Note_on_c, 1, 66, 0
6, 110160, Note_on_c, 1, 64, 64
6, 110276, Note_on_c, 1, 64, 0
6, 110280, Note_on_c, 1, 63, 64
6, 110396, Note_on_c, 1, 63, 0
6, 110400, Note_on_c, 1, 72, 64
6, 110756, Note_on_c, 1, 72, 0
6, 110760, Note_on_c, 1, 71, 64
6, 110876, Note_on_c, 1, 71, 0
6, 110880, Note_on_c, 1, 69, 64
6, 110996, Note_on_c, 1, 69, 0
6, 111000, Note_on_c, 1, 67, 64
6, 111116, Note_on_c, 1, 67, 0
6, 111120, Note_on_c, 1, 66, 64
6, 111236, Note_on_c, 1, 66, 0
6, 111240, Note_on_c, 1, 64, 64
6, 111356, Note_on_c, 1, 64, 0
6, 111360, Note_on_c, 1, 66, 64
6, 111596, Note_on_c, 1, 66, 0
6, 111600, Note_on_c, 1, 71, 64
6, 111836, Note_on_c, 1, 71, 0
6, 111840, Note_on_c, 1, 69, 64
6, 112076, Note_on_c, 1, 69, 0
6, 112080, Note_on_c, 1, 67, 64
6, 112196, Note_on_c, 1, 67, 0
6, 112200, Note_on_c, 1, 66, 64
6, 112316, Note_on_c, 1, 66, 0
6, 112320, Note_on_c, 1, 67, 64
6, 112796, Note_on_c, 1, 67, 0
6, 113040, Note_on_c, 1, 78, 64
6, 113276, Note_on_c, 1, 78, 0
6, 113280, Note_on_c, 1, 67, 64
6, 113396, Note_on_c, 1, 67, 0
6, 113400, Note_on_c, 1, 71, 64
6, 113516, Note_on_c, 1, 71, 0
6, 113520, Note_on_c, 1, 64, 64
6, 113636, Note_on_c, 1, 64, 0
6, 113640, Note_on_c, 1, 66, 64
6, 113756, Note_on_c, 1, 66, 0
6, 113760, Note_on_c, 1, 67, 64
6, 113876, Note_on_c, 1, 67, 0
6, 113880, Note_on_c, 1, 69, 64
6, 113996, Note_on_c, 1, 69, 0
6, 114000, Note_on_c, 1, 71, 64
6, 114116, Note_on_c, 1, 71, 0
6, 114120, Note_on_c, 1, 69, 64
6, 114236, Note_on_c, 1, 69, 0
6, 114240, Note_on_c, 1, 67, 64
6, 114476, Note_on_c, 1, 67, 0
6, 114480, Note_on_c, 1, 76, 64
6, 114716, Note_on_c, 1, 76, 0
6, 114960, Note_on_c, 1, 75, 64
6, 115196, Note_on_c, 1, 75, 0
6, 115200, Note_on_c, 1, 76, 64
6, 115436, Note_on_c, 1, 76, 0
6, 115440, Note_on_c, 1, 71, 64
6, 115676, Note_on_c, 1, 71, 0
6, 115680, Note_on_c, 1, 64, 64
6, 115916, Note_on_c, 1, 64, 0
6, 115920, Note_on_c, 1, 68, 64
6, 116156, Note_on_c, 1, 68, 0
6, 116160, Note_on_c, 1, 61, 64
6, 116396, Note_on_c, 1, 61, 0
6, 116400, Note_on_c, 1, 64, 64
6, 116516, Note_on_c, 1, 64, 0
6, 116520, Note_on_c, 1, 62, 64
6, 116636, Note_on_c, 1, 62, 0
6, 116640, Note_on_c, 1, 64, 64
6, 116876, Note_on_c, 1, 64, 0
6, 117360, Note_on_c, 1, 64, 64
6, 117476, Note_on_c, 1, 64, 0
6, 117480, Note_on_c, 1, 62, 64
6, 117596, Note_on_c, 1, 62, 0
6, 117600, Note_on_c, 1, 64, 64
6, 117836, Note_on_c, 1, 64, 0
6, 118320, Note_on_c, 1, 64, 64
6, 118436, Note_on_c, 1, 64, 0
6, 118440, Note_on_c, 1, 62, 64
6, 118556, Note_on_c, 1, 62, 0
6, 118560, Note_on_c, 1, 64, 64
6, 118796, Note_on_c, 1, 64, 0
6, 119280, Note_on_c, 1, 64, 64
6, 119396, Note_on_c, 1, 64, 0
6, 119400, Note_on_c, 1, 66, 64
6, 119516, Note_on_c, 1, 66, 0
6, 119520, Note_on_c, 1, 67, 64
6, 119756, Note_on_c, 1, 67, 0
6, 119760, Note_on_c, 1, 64, 64
6, 119996, Note_on_c, 1, 64, 0
6, 120000, Note_on_c, 1, 66, 64
6, 120476, Note_on_c, 1, 66, 0
6, 120720, Note_on_c, 1, 66, 64
6, 120836, Note_on_c, 1, 66, 0
6, 120840, Note_on_c, 1, 67, 64
6, 120956, Note_on_c, 1, 67, 0
6, 120960, Note_on_c, 1, 69, 64
6, 121196, Note_on_c, 1, 69, 0
6, 121680, Note_on_c, 1, 66, 64
6, 121796, Note_on_c, 1, 66, 0
6, 121800, Note_on_c, 1, 67, 64
6, 121916, Note_on_c, 1, 67, 0
6, 121920, Note_on_c, 1, 69, 64
6, 122156, Note_on_c, 1, 69, 0
6, 122640, Note_on_c, 1, 66, 64
6, 122756, Note_on_c, 1, 66, 0
6, 122760, Note_on_c, 1, 67, 64
6, 122876, Note_on_c, 1, 67, 0
6, 122880, Note_on_c, 1, 69, 64
6, 123116, Note_on_c, 1, 69, 0
6, 124560, Note_on_c, 1, 54, 64
6, 124796, Note_on_c, 1, 54, 0
6, 124800, Note_on_c, 1, 55, 64
6, 124916, Note_on_c, 1, 55, 0
6, 124920, Note_on_c, 1, 62, 64
6, 125036, Note_on_c, 1, 62, 0
6, 125040, Note_on_c, 1, 55, 64
6, 125156, Note_on_c, 1, 55, 0
6, 125160, Note_on_c, 1, 57, 64
6, 125276, Note_on_c, 1, 57, 0
6, 125280, Note_on_c, 1, 59, 64
6, 125396, Note_on_c, 1, 59, 0
6, 125400, Note_on_c, 1, 60, 64
6, 125516, Note_on_c, 1, 60, 0
6, 125520, Note_on_c, 1, 62, 64
6, 125636, Note_on_c, 1, 62, 0
6, 125640, Note_on_c, 1, 60, 64
6, 125756, Note_on_c, 1, 60, 0
6, 125760, Note_on_c, 1, 59, 64
6, 125996, Note_on_c, 1, 59, 0
6, 126000, Note_on_c, 1, 62, 64
6, 126116, Note_on_c, 1, 62, 0
6, 126120, Note_on_c, 1, 60, 64
6, 126236, Note_on_c, 1, 60, 0
6, 126240, Note_on_c, 1, 62, 64
6, 126476, Note_on_c, 1, 62, 0
6, 127440, Note_on_c, 1, 67, 64
6, 127556, Note_on_c, 1, 67, 0
6, 127560, Note_on_c, 1, 66, 64
6, 127676, Note_on_c, 1, 66, 0
6, 127680, Note_on_c, 1, 67, 64
6, 127916, Note_on_c, 1, 67, 0
6, 127920, Note_on_c, 1, 59, 64
6, 128036, Note_on_c, 1, 59, 0
6, 128040, Note_on_c, 1, 60, 64
6, 128156, Note_on_c, 1, 60, 0
6, 128160, Note_on_c, 1, 62, 64
6, 128276, Note_on_c, 1, 62, 0
6, 128280, Note_on_c, 1, 69, 64
6, 128396, Note_on_c, 1, 69, 0
6, 128400, Note_on_c, 1, 67, 64
6, 128516, Note_on_c, 1, 67, 0
6, 128520, Note_on_c, 1, 66, 64
6, 128636, Note_on_c, 1, 66, 0
6, 128640, Note_on_c, 1, 64, 64
6, 128876, Note_on_c, 1, 64, 0
6, 128880, Note_on_c, 1, 64, 64
6, 129116, Note_on_c, 1, 64, 0
6, 129120, Note_on_c, 1, 64, 64
6, 129356, Note_on_c, 1, 64, 0
6, 129360, Note_on_c, 1, 64, 64
6, 129596, Note_on_c, 1, 64, 0
6, 129600, Note_on_c, 1, 64, 64
6, 129836, Note_on_c, 1, 64, 0
6, 129840, Note_on_c, 1, 64, 64
6, 130076, Note_on_c, 1, 64, 0
6, 130080, Note_on_c, 1, 64, 64
6, 130316, Note_on_c, 1, 64, 0
6, 130320, Note_on_c, 1, 64, 64
6, 130556, Note_on_c, 1, 64, 0
6, 130560, Note_on_c, 1, 64, 64
6, 130796, Note_on_c, 1, 64, 0
6, 130800, Note_on_c, 1, 64, 64
6, 131036, Note_on_c, 1, 64, 0
6, 131040, Note_on_c, 1, 64, 64
6, 131276, Note_on_c, 1, 64, 0
6, 131280, Note_on_c, 1, 64, 64
6, 131516, Note_on_c, 1, 64, 0
6, 131520, Note_on_c, 1, 64, 64
6, 131756, Note_on_c, 1, 64, 0
6, 131760, Note_on_c, 1, 64, 64
6, 131996, Note_on_c, 1, 64, 0
6, 132000, Note_on_c, 1, 64, 64
6, 132236, Note_on_c, 1, 64, 0
6, 132240, Note_on_c, 1, 64, 64
6, 132476, Note_on_c, 1, 64, 0
6, 132480, Note_on_c, 1, 58, 64
6, 132716, Note_on_c, 1, 58, 0
6, 132720, Note_on_c, 1, 58, 64
6, 132956, Note_on_c, 1, 58, 0
6, 132960, Note_on_c, 1, 58, 64
6, 133196, Note_on_c, 1, 58, 0
6, 133200, Note_on_c, 1, 58, 64
6, 133436, Note_on_c, 1, 58, 0
6, 133440, Note_on_c, 1, 54, 64
6, 133676, Note_on_c, 1, 54, 0
6, 133680, Note_on_c, 1, 54, 64
6, 133916, Note_on_c, 1, 54, 0
6, 133920, Note_on_c, 1, 54, 64
6, 134156, Note_on_c, 1, 54, 0
6, 134160, Note_on_c, 1, 54, 64
6, 134396, Note_on_c, 1, 54, 0
6, 134400, Note_on_c, 1, 59, 64
6, 134636, Note_on_c, 1, 59, 0
6, 134640, Note_on_c, 1, 71, 64
6, 134876, Note_on_c, 1, 71, 0
6, 134880, Note_on_c, 1, 66, 64
6, 135116, Note_on_c, 1, 66, 0
6, 135120, Note_on_c, 1, 62, 64
6, 135356, Note_on_c, 1, 62, 0
6, 135360, Note_on_c, 1, 66, 64
6, 135596, Note_on_c, 1, 66, 0
6, 135600, Note_on_c, 1, 71, 64
6, 135836, Note_on_c, 1, 71, 0
6, 135840, Note_on_c, 1, 66, 64
6, 136076, Note_on_c, 1, 66, 0
6, 136080, Note_on_c, 1, 62, 64
6, 136316, Note_on_c, 1, 62, 0
6, 136320, Note_on_c, 1, 71, 64
6, 136556, Note_on_c, 1, 71, 0
6, 136560, Note_on_c, 1, 74, 64
6, 136676, Note_on_c, 1, 74, 0
6, 136680, Note_on_c, 1, 73, 64
6, 136796, Note_on_c, 1, 73, 0
6, 136800, Note_on_c, 1, 71, 64
6, 137036, Note_on_c, 1, 71, 0
6, 137040, Note_on_c, 1, 69, 64
6, 137156, Note_on_c, 1, 69, 0
6, 137160, Note_on_c, 1, 67, 64
6, 137276, Note_on_c, 1, 67, 0
6, 137280, Note_on_c, 1, 66, 64
6, 137516, Note_on_c, 1, 66, 0
6, 137520, Note_on_c, 1, 64, 64
6, 137636, Note_on_c, 1, 64, 0
6, 137640, Note_on_c, 1, 62, 64
6, 137756, Note_on_c, 1, 62, 0
6, 137760, Note_on_c, 1, 61, 64
6, 137996, Note_on_c, 1, 61, 0
6, 138000, Note_on_c, 1, 70, 64
6, 138236, Note_on_c, 1, 70, 0
6, 138240, Note_on_c, 1, 71, 64
6, 138476, Note_on_c, 1, 71, 0
6, 138480, Note_on_c, 1, 59, 64
6, 138716, Note_on_c, 1, 59, 0
6, 138720, Note_on_c, 1, 59, 64
6, 138956, Note_on_c, 1, 59, 0
6, 138960, Note_on_c, 1, 71, 64
6, 139196, Note_on_c, 1, 71, 0
6, 139200, Note_on_c, 1, 71, 64
6, 139436, Note_on_c, 1, 71, 0
6, 139440, Note_on_c, 1, 59, 64
6, 139676, Note_on_c, 1, 59, 0
6, 139680, Note_on_c, 1, 59, 64
6, 139916, Note_on_c, 1, 59, 0
6, 139920, Note_on_c, 1, 71, 64
6, 140156, Note_on_c, 1, 71, 0
6, 140160, Note_on_c, 1, 66, 64
6, 140396, Note_on_c, 1, 66, 0
6, 140400, Note_on_c, 1, 64, 64
6, 140516, Note_on_c, 1, 64, 0
6, 140520, Note_on_c, 1, 62, 64
6, 140636, Note_on_c, 1, 62, 0
6, 140640, Note_on_c, 1, 64, 64
6, 140876, Note_on_c, 1, 64, 0
6, 140880, Note_on_c, 1, 62, 64
6, 140996, Note_on_c, 1, 62, 0
6, 141000, Note_on_c, 1, 61, 64
6, 141116, Note_on_c, 1, 61, 0
6, 141120, Note_on_c, 1, 67, 64
6, 141476, Note_on_c, 1, 67, 0
6, 141480, Note_on_c, 1, 66, 64
6, 141596, Note_on_c, 1, 66, 0
6, 141600, Note_on_c, 1, 64, 64
6, 141716, Note_on_c, 1, 64, 0
6, 141720, Note_on_c, 1, 62, 64
6, 141836, Note_on_c, 1, 62, 0
6, 141840, Note_on_c, 1, 61, 64
6, 141956, Note_on_c, 1, 61, 0
6, 141960, Note_on_c, 1, 59, 64
6, 142076, Note_on_c, 1, 59, 0
6, 142080, Note_on_c, 1, 66, 64
6, 142316, Note_on_c, 1, 66, 0
6, 142320, Note_on_c, 1, 64, 64
6, 142436, Note_on_c, 1, 64, 0
6, 142440, Note_on_c, 1, 62, 64
6, 142556, Note_on_c, 1, 62, 0
6, 142560, Note_on_c, 1, 61, 64
6, 142796, Note_on_c, 1, 61, 0
6, 142800, Note_on_c, 1, 61, 64
6, 143036, Note_on_c, 1, 61, 0
6, 143040, Note_on_c, 1, 62, 64
6, 143516, Note_on_c, 1, 62, 0
6, 144240, Note_on_c, 1, 62, 64
6, 144356, Note_on_c, 1, 62, 0
6, 144360, Note_on_c, 1, 61, 64
6, 144476, Note_on_c, 1, 61, 0
6, 144480, Note_on_c, 1, 62, 64
6, 144716, Note_on_c, 1, 62, 0
6, 144720, Note_on_c, 1, 66, 64
6, 144836, Note_on_c, 1, 66, 0
6, 144840, Note_on_c, 1, 64, 64
6, 144956, Note_on_c, 1, 64, 0
6, 144960, Note_on_c, 1, 66, 64
6, 145196, Note_on_c, 1, 66, 0
6, 146160, Note_on_c, 1, 62, 64
6, 146276, Note_on_c, 1, 62, 0
6, 146280, Note_on_c, 1, 64, 64
6, 146396, Note_on_c, 1, 64, 0
6, 146400, Note_on_c, 1, 62, 64
6, 146636, Note_on_c, 1, 62, 0
6, 146640, Note_on_c, 1, 67, 64
6, 146876, Note_on_c, 1, 67, 0
6, 146880, Note_on_c, 1, 67, 64
6, 147116, Note_on_c, 1, 67, 0
6, 147120, Note_on_c, 1, 66, 64
6, 147236, Note_on_c, 1, 66, 0
6, 147240, Note_on_c, 1, 67, 64
6, 147356, Note_on_c, 1, 67, 0
6, 147360, Note_on_c, 1, 66, 64
6, 147596, Note_on_c, 1, 66, 0
6, 147600, Note_on_c, 1, 66, 64
6, 147716, Note_on_c, 1, 66, 0
6, 147720, Note_on_c, 1, 61, 64
6, 147836, Note_on_c, 1, 61, 0
6, 147840, Note_on_c, 1, 66, 64
6, 148076, Note_on_c, 1, 66, 0
6, 148080, Note_on_c, 1, 59, 64
6, 148316, Note_on_c, 1, 59, 0
6, 148320, Note_on_c, 1, 66, 64
6, 148556, Note_on_c, 1, 66, 0
6, 148560, Note_on_c, 1, 61, 64
6, 148796, Note_on_c, 1, 61, 0
6, 148800, Note_on_c, 1, 62, 64
6, 149276, Note_on_c, 1, 62, 0
6, 149760, Note_on_c, 1, 55, 64
6, 149996, Note_on_c, 1, 55, 0
6, 150000, Note_on_c, 1, 54, 64
6, 150236, Note_on_c, 1, 54, 0
6, 150240, Note_on_c, 1, 55, 64
6, 150476, Note_on_c, 1, 55, 0
6, 150480, Note_on_c, 1, 57, 64
6, 150716, Note_on_c, 1, 57, 0
6, 150720, Note_on_c, 1, 59, 64
6, 150956, Note_on_c, 1, 59, 0
6, 150960, Note_on_c, 1, 60, 64
6, 151196, Note_on_c, 1, 60, 0
6, 151200, Note_on_c, 1, 59, 64
6, 151436, Note_on_c, 1, 59, 0
6, 151440, Note_on_c, 1, 57, 64
6, 151676, Note_on_c, 1, 57, 0
6, 151680, Note_on_c, 1, 55, 64
6, 151916, Note_on_c, 1, 55, 0
6, 151920, Note_on_c, 1, 54, 64
6, 152156, Note_on_c, 1, 54, 0
6, 152160, Note_on_c, 1, 52, 64
6, 152396, Note_on_c, 1, 52, 0
6, 152400, Note_on_c, 1, 57, 64
6, 152636, Note_on_c, 1, 57, 0
6, 152640, Note_on_c, 1, 62, 64
6, 152876, Note_on_c, 1, 62, 0
6, 152880, Note_on_c, 1, 50, 64
6, 153116, Note_on_c, 1, 50, 0
6, 153120, Note_on_c, 1, 54, 64
6, 153356, Note_on_c, 1, 54, 0
6, 153360, Note_on_c, 1, 57, 64
6, 153596, Note_on_c, 1, 57, 0
6, 153600, Note_on_c, 1, 62, 64
6, 154076, Note_on_c, 1, 62, 0
6, 160560, Note_on_c, 1, 59, 64
6, 160676, Note_on_c, 1, 59, 0
6, 160680, Note_on_c, 1, 60, 64
6, 160796, Note_on_c, 1, 60, 0
6, 160800, Note_on_c, 1, 62, 64
6, 161036, Note_on_c, 1, 62, 0
6, 162480, Note_on_c, 1, 55, 64
6, 162596, Note_on_c, 1, 55, 0
6, 162600, Note_on_c, 1, 57, 64
6, 162716, Note_on_c, 1, 57, 0
6, 162720, Note_on_c, 1, 59, 64
6, 162956, Note_on_c, 1, 59, 0
6, 164880, Note_on_c, 1, 67, 64
6, 164996, Note_on_c, 1, 67, 0
6, 165000, Note_on_c, 1, 66, 64
6, 165116, Note_on_c, 1, 66, 0
6, 165120, Note_on_c, 1, 67, 64
6, 165356, Note_on_c, 1, 67, 0
6, 165360, Note_on_c, 1, 59, 64
6, 165476, Note_on_c, 1, 59, 0
6, 165480, Note_on_c, 1, 57, 64
6, 165596, Note_on_c, 1, 57, 0
6, 165600, Note_on_c, 1, 59, 64
6, 165836, Note_on_c, 1, 59, 0
6, 165840, Note_on_c, 1, 67, 64
6, 165956, Note_on_c, 1, 67, 0
6, 165960, Note_on_c, 1, 66, 64
6, 166076, Note_on_c, 1, 66, 0
6, 166080, Note_on_c, 1, 67, 64
6, 166316, Note_on_c, 1, 67, 0
6, 166320, Note_on_c, 1, 55, 64
6, 166436, Note_on_c, 1, 55, 0
6, 166440, Note_on_c, 1, 54, 64
6, 166556, Note_on_c, 1, 54, 0
6, 166560, Note_on_c, 1, 55, 64
6, 166796, Note_on_c, 1, 55, 0
6, 166800, Note_on_c, 1, 67, 64
6, 166916, Note_on_c, 1, 67, 0
6, 166920, Note_on_c, 1, 66, 64
6, 167036, Note_on_c, 1, 66, 0
6, 167040, Note_on_c, 1, 67, 64
6, 167276, Note_on_c, 1, 67, 0
6, 167280, Note_on_c, 1, 55, 64
6, 167396, Note_on_c, 1, 55, 0
6, 167400, Note_on_c, 1, 57, 64
6, 167516, Note_on_c, 1, 57, 0
6, 167520, Note_on_c, 1, 59, 64
6, 167756, Note_on_c, 1, 59, 0
6, 167760, Note_on_c, 1, 61, 64
6, 167996, Note_on_c, 1, 61, 0
6, 168000, Note_on_c, 1, 62, 64
6, 168116, Note_on_c, 1, 62, 0
6, 168120, Note_on_c, 1, 69, 64
6, 168236, Note_on_c, 1, 69, 0
6, 168240, Note_on_c, 1, 66, 64
6, 168356, Note_on_c, 1, 66, 0
6, 168360, Note_on_c, 1, 69, 64
6, 168476, Note_on_c, 1, 69, 0
6, 168480, Note_on_c, 1, 66, 64
6, 168596, Note_on_c, 1, 66, 0
6, 168600, Note_on_c, 1, 69, 64
6, 168716, Note_on_c, 1, 69, 0
6, 168720, Note_on_c, 1, 66, 64
6, 168836, Note_on_c, 1, 66, 0
6, 168840, Note_on_c, 1, 69, 64
6, 168956, Note_on_c, 1, 69, 0
6, 168960, Note_on_c, 1, 59, 64
6, 169076, Note_on_c, 1, 59, 0
6, 169080, Note_on_c, 1, 67, 64
6, 169196, Note_on_c, 1, 67, 0
6, 169200, Note_on_c, 1, 59, 64
6, 169316, Note_on_c, 1, 59, 0
6, 169320, Note_on_c, 1, 67, 64
6, 169436, Note_on_c, 1, 67, 0
6, 169440, Note_on_c, 1, 59, 64
6, 169556, Note_on_c, 1, 59, 0
6, 169560, Note_on_c, 1, 67, 64
6, 169676, Note_on_c, 1, 67, 0
6, 169680, Note_on_c, 1, 59, 64
6, 169796, Note_on_c, 1, 59, 0
6, 169800, Note_on_c, 1, 67, 64
6, 169916, Note_on_c, 1, 67, 0
6, 169920, Note_on_c, 1, 60, 64
6, 170036, Note_on_c, 1, 60, 0
6, 170040, Note_on_c, 1, 67, 64
6, 170156, Note_on_c, 1, 67, 0
6, 170160, Note_on_c, 1, 60, 64
6, 170276, Note_on_c, 1, 60, 0
6, 170280, Note_on_c, 1, 67, 64
6, 170396, Note_on_c, 1, 67, 0
6, 170400, Note_on_c, 1, 60, 64
6, 170516, Note_on_c, 1, 60, 0
6, 170520, Note_on_c, 1, 67, 64
6, 170636, Note_on_c, 1, 67, 0
6, 170640, Note_on_c, 1, 60, 64
6, 170756, Note_on_c, 1, 60, 0
6, 170760, Note_on_c, 1, 67, 64
6, 170876, Note_on_c, 1, 67, 0
6, 170880, Note_on_c, 1, 61, 64
6, 170996, Note_on_c, 1, 61, 0
6, 171000, Note_on_c, 1, 66, 64
6, 171116, Note_on_c, 1, 66, 0
6, 171120, Note_on_c, 1, 61, 64
6, 171236, Note_on_c, 1, 61, 0
6, 171240, Note_on_c, 1, 66, 64
6, 171356, Note_on_c, 1, 66, 0
6, 171360, Note_on_c, 1, 61, 64
6, 171476, Note_on_c, 1, 61, 0
6, 171480, Note_on_c, 1, 66, 64
6, 171596, Note_on_c, 1, 66, 0
6, 171600, Note_on_c, 1, 61, 64
6, 171716, Note_on_c, 1, 61, 0
6, 171720, Note_on_c, 1, 66, 64
6, 171836, Note_on_c, 1, 66, 0
6, 171840, Note_on_c, 1, 63, 64
6, 171956, Note_on_c, 1, 63, 0
6, 171960, Note_on_c, 1, 66, 64
6, 172076, Note_on_c, 1, 66, 0
6, 172080, Note_on_c, 1, 63, 64
6, 172196, Note_on_c, 1, 63, 0
6, 172200, Note_on_c, 1, 66, 64
6, 172316, Note_on_c, 1, 66, 0
6, 172320, Note_on_c, 1, 63, 64
6, 172436, Note_on_c, 1, 63, 0
6, 172440, Note_on_c, 1, 66, 64
6, 172556, Note_on_c, 1, 66, 0
6, 172560, Note_on_c, 1, 63, 64
6, 172676, Note_on_c, 1, 63, 0
6, 172680, Note_on_c, 1, 66, 64
6, 172796, Note_on_c, 1, 66, 0
6, 172800, Note_on_c, 1, 59, 64
6, 172916, Note_on_c, 1, 59, 0
6, 172920, Note_on_c, 1, 64, 64
6, 173036, Note_on_c, 1, 64, 0
6, 173040, Note_on_c, 1, 59, 64
6, 173156, Note_on_c, 1, 59, 0
6, 173160, Note_on_c, 1, 64, 64
6, 173276, Note_on_c, 1, 64, 0
6, 173280, Note_on_c, 1, 59, 64
6, 173396, Note_on_c, 1, 59, 0
6, 173400, Note_on_c, 1, 64, 64
6, 173516, Note_on_c, 1, 64, 0
6, 173520, Note_on_c, 1, 59, 64
6, 173636, Note_on_c, 1, 59, 0
6, 173640, Note_on_c, 1, 64, 64
6, 173756, Note_on_c, 1, 64, 0
6, 173760, Note_on_c, 1, 60, 64
6, 173876, Note_on_c, 1, 60, 0
6, 173880, Note_on_c, 1, 64, 64
6, 173996, Note_on_c, 1, 64, 0
6, 174000, Note_on_c, 1, 60, 64
6, 174116, Note_on_c, 1, 60, 0
6, 174120, Note_on_c, 1, 64, 64
6, 174236, Note_on_c, 1, 64, 0
6, 174240, Note_on_c, 1, 60, 64
6, 174356, Note_on_c, 1, 60, 0
6, 174360, Note_on_c, 1, 64, 64
6, 174476, Note_on_c, 1, 64, 0
6, 174480, Note_on_c, 1, 60, 64
6, 174596, Note_on_c, 1, 60, 0
6, 174600, Note_on_c, 1, 64, 64
6, 174716, Note_on_c, 1, 64, 0
6, 174720, Note_on_c, 1, 62, 64
6, 174956, Note_on_c, 1, 62, 0
6, 174960, Note_on_c, 1, 62, 64
6, 175196, Note_on_c, 1, 62, 0
6, 175200, Note_on_c, 1, 62, 64
6, 175436, Note_on_c, 1, 62, 0
6, 175440, Note_on_c, 1, 62, 64
6, 175676, Note_on_c, 1, 62, 0
6, 175680, Note_on_c, 1, 62, 64
6, 175916, Note_on_c, 1, 62, 0
6, 175920, Note_on_c, 1, 62, 64
6, 176156, Note_on_c, 1, 62, 0
6, 176160, Note_on_c, 1, 62, 64
6, 176396, Note_on_c, 1, 62, 0
6, 176400, Note_on_c, 1, 62, 64
6, 176636, Note_on_c, 1, 62, 0
6, 176640, Note_on_c, 1, 63, 64
6, 176876, Note_on_c, 1, 63, 0
6, 176880, Note_on_c, 1, 63, 64
6, 177116, Note_on_c, 1, 63, 0
6, 177120, Note_on_c, 1, 63, 64
6, 177356, Note_on_c, 1, 63, 0
6, 177360, Note_on_c, 1, 63, 64
6, 177596, Note_on_c, 1, 63, 0
6, 177600, Note_on_c, 1, 63, 64
6, 177836, Note_on_c, 1, 63, 0
6, 177840, Note_on_c, 1, 63, 64
6, 178076, Note_on_c, 1, 63, 0
6, 178080, Note_on_c, 1, 63, 64
6, 178316, Note_on_c, 1, 63, 0
6, 178320, Note_on_c, 1, 63, 64
6, 178556, Note_on_c, 1, 63, 0
6, 178560, Note_on_c, 1, 64, 64
6, 178796, Note_on_c, 1, 64, 0
6, 178800, Note_on_c, 1, 64, 64
6, 179036, Note_on_c, 1, 64, 0
6, 179040, Note_on_c, 1, 64, 64
6, 179276, Note_on_c, 1, 64, 0
6, 179280, Note_on_c, 1, 64, 64
6, 179516, Note_on_c, 1, 64, 0
6, 179520, Note_on_c, 1, 64, 64
6, 179756, Note_on_c, 1, 64, 0
6, 179760, Note_on_c, 1, 64, 64
6, 179996, Note_on_c, 1, 64, 0
6, 180000, Note_on_c, 1, 64, 64
6, 180236, Note_on_c, 1, 64, 0
6, 180240, Note_on_c, 1, 64, 64
6, 180476, Note_on_c, 1, 64, 0
6, 180480, Note_on_c, 1, 63, 64
6, 180716, Note_on_c, 1, 63, 0
6, 180720, Note_on_c, 1, 63, 64
6, 180956, Note_on_c, 1, 63, 0
6, 180960, Note_on_c, 1, 63, 64
6, 181196, Note_on_c, 1, 63, 0
6, 181200, Note_on_c, 1, 63, 64
6, 181436, Note_on_c, 1, 63, 0
6, 181440, Note_on_c, 1, 63, 64
6, 181676, Note_on_c, 1, 63, 0
6, 181680, Note_on_c, 1, 63, 64
6, 181916, Note_on_c, 1, 63, 0
6, 181920, Note_on_c, 1, 63, 64
6, 182156, Note_on_c, 1, 63, 0
6, 182160, Note_on_c, 1, 63, 64
6, 182396, Note_on_c, 1, 63, 0
6, 182400, Note_on_c, 1, 64, 64
6, 182636, Note_on_c, 1, 64, 0
6, 182640, Note_on_c, 1, 64, 64
6, 182876, Note_on_c, 1, 64, 0
6, 182880, Note_on_c, 1, 64, 64
6, 183116, Note_on_c, 1, 64, 0
6, 183120, Note_on_c, 1, 64, 64
6, 183356, Note_on_c, 1, 64, 0
6, 183360, Note_on_c, 1, 64, 64
6, 183596, Note_on_c, 1, 64, 0
6, 183600, Note_on_c, 1, 64, 64
6, 183836, Note_on_c, 1, 64, 0
6, 183840, Note_on_c, 1, 64, 64
6, 184076, Note_on_c, 1, 64, 0
6, 184080, Note_on_c, 1, 64, 64
6, 184316, Note_on_c, 1, 64, 0
6, 184320, Note_on_c, 1, 64, 64
6, 184556, Note_on_c, 1, 64, 0
6, 184560, Note_on_c, 1, 64, 64
6, 184796, Note_on_c, 1, 64, 0
6, 184800, Note_on_c, 1, 64, 64
6, 185036, Note_on_c, 1, 64, 0
6, 185040, Note_on_c, 1, 64, 64
6, 185276, Note_on_c, 1, 64, 0
6, 185280, Note_on_c, 1, 64, 64
6, 185516, Note_on_c, 1, 64, 0
6, 185520, Note_on_c, 1, 64, 64
6, 185756, Note_on_c, 1, 64, 0
6, 185760, Note_on_c, 1, 64, 64
6, 185996, Note_on_c, 1, 64, 0
6, 186000, Note_on_c, 1, 64, 64
6, 186236, Note_on_c, 1, 64, 0
6, 186240, Note_on_c, 1, 64, 64
6, 186476, Note_on_c, 1, 64, 0
6, 186960, Note_on_c, 1, 57, 64
6, 187076, Note_on_c, 1, 57, 0
6, 187080, Note_on_c, 1, 56, 64
6, 187196, Note_on_c, 1, 56, 0
6, 187200, Note_on_c, 1, 57, 64
6, 187436, Note_on_c, 1, 57, 0
6, 187440, Note_on_c, 1, 53, 64
6, 187556, Note_on_c, 1, 53, 0
6, 187560, Note_on_c, 1, 52, 64
6, 187676, Note_on_c, 1, 52, 0
6, 187680, Note_on_c, 1, 53, 64
6, 187916, Note_on_c, 1, 53, 0
6, 187920, Note_on_c, 1, 69, 64
6, 188156, Note_on_c, 1, 69, 0
6, 188160, Note_on_c, 1, 62, 64
6, 188396, Note_on_c, 1, 62, 0
6, 188880, Note_on_c, 1, 55, 64
6, 188996, Note_on_c, 1, 55, 0
6, 189000, Note_on_c, 1, 54, 64
6, 189116, Note_on_c, 1, 54, 0
6, 189120, Note_on_c, 1, 55, 64
6, 189356, Note_on_c, 1, 55, 0
6, 189360, Note_on_c, 1, 52, 64
6, 189476, Note_on_c, 1, 52, 0
6, 189480, Note_on_c, 1, 50, 64
6, 189596, Note_on_c, 1, 50, 0
6, 189600, Note_on_c, 1, 52, 64
6, 189836, Note_on_c, 1, 52, 0
6, 189840, Note_on_c, 1, 67, 64
6, 190076, Note_on_c, 1, 67, 0
6, 190080, Note_on_c, 1, 60, 64
6, 190316, Note_on_c, 1, 60, 0
6, 190800, Note_on_c, 1, 53, 64
6, 190916, Note_on_c, 1, 53, 0
6, 190920, Note_on_c, 1, 52, 64
6, 191036, Note_on_c, 1, 52, 0
6, 191040, Note_on_c, 1, 53, 64
6, 191276, Note_on_c, 1, 53, 0
6, 191280, Note_on_c, 1, 50, 64
6, 191396, Note_on_c, 1, 50, 0
6, 191400, Note_on_c, 1, 49, 64
6, 191516, Note_on_c, 1, 49, 0
6, 191520, Note_on_c, 1, 50, 64
6, 191756, Note_on_c, 1, 50, 0
6, 191760, Note_on_c, 1, 65, 64
6, 191996, Note_on_c, 1, 65, 0
6, 192000, Note_on_c, 1, 59, 64
6, 192236, Note_on_c, 1, 59, 0
6, 192240, Note_on_c, 1, 62, 64
6, 192356, Note_on_c, 1, 62, 0
6, 192360, Note_on_c, 1, 64, 64
6, 192476, Note_on_c, 1, 64, 0
6, 192480, Note_on_c, 1, 62, 64
6, 192716, Note_on_c, 1, 62, 0
6, 192720, Note_on_c, 1, 68, 64
6, 192836, Note_on_c, 1, 68, 0
6, 192840, Note_on_c, 1, 69, 64
6, 192956, Note_on_c, 1, 69, 0
6, 192960, Note_on_c, 1, 68, 64
6, 193196, Note_on_c, 1, 68, 0
6, 193200, Note_on_c, 1, 71, 64
6, 193316, Note_on_c, 1, 71, 0
6, 193320, Note_on_c, 1, 72, 64
6, 193436, Note_on_c, 1, 72, 0
6, 193440, Note_on_c, 1, 71, 64
6, 193676, Note_on_c, 1, 71, 0
6, 193680, Note_on_c, 1, 64, 64
6, 193916, Note_on_c, 1, 64, 0
6, 193920, Note_on_c, 1, 64, 64
6, 194156, Note_on_c, 1, 64, 0
6, 194160, Note_on_c, 1, 62, 64
6, 194396, Note_on_c, 1, 62, 0
6, 194400, Note_on_c, 1, 62, 64
6, 194636, Note_on_c, 1, 62, 0
6, 194640, Note_on_c, 1, 62, 64
6, 194876, Note_on_c, 1, 62, 0
6, 194880, Note_on_c, 1, 60, 64
6, 194996, Note_on_c, 1, 60, 0
6, 195000, Note_on_c, 1, 62, 64
6, 195116, Note_on_c, 1, 62, 0
6, 195120, Note_on_c, 1, 64, 64
6, 195236, Note_on_c, 1, 64, 0
6, 195240, Note_on_c, 1, 65, 64
6, 195356, Note_on_c, 1, 65, 0
6, 195360, Note_on_c, 1, 64, 64
6, 195476, Note_on_c, 1, 64, 0
6, 195480, Note_on_c, 1, 69, 64
6, 195596, Note_on_c, 1, 69, 0
6, 195600, Note_on_c, 1, 68, 64
6, 195716, Note_on_c, 1, 68, 0
6, 195720, Note_on_c, 1, 71, 64
6, 195836, Note_on_c, 1, 71, 0
6, 195840, Note_on_c, 1, 69, 64
6, 195956, Note_on_c, 1, 69, 0
6, 195960, Note_on_c, 1, 68, 64
6, 196076, Note_on_c, 1, 68, 0
6, 196080, Note_on_c, 1, 69, 64
6, 196196, Note_on_c, 1, 69, 0
6, 196200, Note_on_c, 1, 71, 64
6, 196316, Note_on_c, 1, 71, 0
6, 196320, Note_on_c, 1, 69, 64
6, 196436, Note_on_c, 1, 69, 0
6, 196440, Note_on_c, 1, 72, 64
6, 196556, Note_on_c, 1, 72, 0
6, 196560, Note_on_c, 1, 71, 64
6, 196676, Note_on_c, 1, 71, 0
6, 196680, Note_on_c, 1, 74, 64
6, 196796, Note_on_c, 1, 74, 0
6, 196800, Note_on_c, 1, 72, 64
6, 196916, Note_on_c, 1, 72, 0
6, 196920, Note_on_c, 1, 71, 64
6, 197036, Note_on_c, 1, 71, 0
6, 197040, Note_on_c, 1, 72, 64
6, 197156, Note_on_c, 1, 72, 0
6, 197160, Note_on_c, 1, 74, 64
6, 197276, Note_on_c, 1, 74, 0
6, 197280, Note_on_c, 1, 72, 64
6, 197396, Note_on_c, 1, 72, 0
6, 197400, Note_on_c, 1, 74, 64
6, 197516, Note_on_c, 1, 74, 0
6, 197520, Note_on_c, 1, 72, 64
6, 197636, Note_on_c, 1, 72, 0
6, 197640, Note_on_c, 1, 71, 64
6, 197756, Note_on_c, 1, 71, 0
6, 197760, Note_on_c, 1, 69, 64
6, 197876, Note_on_c, 1, 69, 0
6, 197880, Note_on_c, 1, 71, 64
6, 197996, Note_on_c, 1, 71, 0
6, 198000, Note_on_c, 1, 69, 64
6, 198116, Note_on_c, 1, 69, 0
6, 198120, Note_on_c, 1, 68, 64
6, 198236, Note_on_c, 1, 68, 0
6, 198240, Note_on_c, 1, 69, 64
6, 198476, Note_on_c, 1, 69, 0
6, 198480, Note_on_c, 1, 66, 64
6, 198716, Note_on_c, 1, 66, 0
6, 198720, Note_on_c, 1, 64, 64
6, 198956, Note_on_c, 1, 64, 0
6, 198960, Note_on_c, 1, 59, 64
6, 199196, Note_on_c, 1, 59, 0
6, 199440, Note_on_c, 1, 64, 64
6, 199676, Note_on_c, 1, 64, 0
6, 199680, Note_on_c, 1, 67, 64
6, 199916, Note_on_c, 1, 67, 0
6, 199920, Note_on_c, 1, 71, 64
6, 200156, Note_on_c, 1, 71, 0
6, 200160, Note_on_c, 1, 67, 64
6, 200396, Note_on_c, 1, 67, 0
6, 200400, Note_on_c, 1, 64, 64
6, 200636, Note_on_c, 1, 64, 0
6, 200640, Note_on_c, 1, 67, 64
6, 200876, Note_on_c, 1, 67, 0
6, 200880, Note_on_c, 1, 71, 64
6, 201116, Note_on_c, 1, 71, 0
6, 201120, Note_on_c, 1, 67, 64
6, 201356, Note_on_c, 1, 67, 0
6, 201360, Note_on_c, 1, 64, 64
6, 201596, Note_on_c, 1, 64, 0
6, 201600, Note_on_c, 1, 71, 64
6, 201836, Note_on_c, 1, 71, 0
6, 201840, Note_on_c, 1, 71, 64
6, 201956, Note_on_c, 1, 71, 0
6, 201960, Note_on_c, 1, 71, 64
6, 202076, Note_on_c, 1, 71, 0
6, 202080, Note_on_c, 1, 71, 64
6, 202316, Note_on_c, 1, 71, 0
6, 202800, Note_on_c, 1, 59, 64
6, 202916, Note_on_c, 1, 59, 0
6, 202920, Note_on_c, 1, 57, 64
6, 203036, Note_on_c, 1, 57, 0
6, 203040, Note_on_c, 1, 59, 64
6, 203156, Note_on_c, 1, 59, 0
6, 203160, Note_on_c, 1, 60, 64
6, 203276, Note_on_c, 1, 60, 0
6, 203280, Note_on_c, 1, 59, 64
6, 203396, Note_on_c, 1, 59, 0
6, 203400, Note_on_c, 1, 57, 64
6, 203516, Note_on_c, 1, 57, 0
6, 203520, Note_on_c, 1, 55, 64
6, 203636, Note_on_c, 1, 55, 0
6, 203640, Note_on_c, 1, 54, 64
6, 203756, Note_on_c, 1, 54, 0
6, 203760, Note_on_c, 1, 55, 64
6, 203876, Note_on_c, 1, 55, 0
6, 203880, Note_on_c, 1, 57, 64
6, 203996, Note_on_c, 1, 57, 0
6, 204000, Note_on_c, 1, 55, 64
6, 204116, Note_on_c, 1, 55, 0
6, 204120, Note_on_c, 1, 59, 64
6, 204236, Note_on_c, 1, 59, 0
6, 204240, Note_on_c, 1, 57, 64
6, 204356, Note_on_c, 1, 57, 0
6, 204360, Note_on_c, 1, 60, 64
6, 204476, Note_on_c, 1, 60, 0
6, 204480, Note_on_c, 1, 59, 64
6, 204596, Note_on_c, 1, 59, 0
6, 204600, Note_on_c, 1, 57, 64
6, 204716, Note_on_c, 1, 57, 0
6, 204720, Note_on_c, 1, 59, 64
6, 204836, Note_on_c, 1, 59, 0
6, 204840, Note_on_c, 1, 60, 64
6, 204956, Note_on_c, 1, 60, 0
6, 204960, Note_on_c, 1, 59, 64
6, 205076, Note_on_c, 1, 59, 0
6, 205080, Note_on_c, 1, 62, 64
6, 205196, Note_on_c, 1, 62, 0
6, 205200, Note_on_c, 1, 60, 64
6, 205316, Note_on_c, 1, 60, 0
6, 205320, Note_on_c, 1, 64, 64
6, 205436, Note_on_c, 1, 64, 0
6, 205440, Note_on_c, 1, 62, 64
6, 205556, Note_on_c, 1, 62, 0
6, 205560, Note_on_c, 1, 64, 64
6, 205676, Note_on_c, 1, 64, 0
6, 205680, Note_on_c, 1, 62, 64
6, 205796, Note_on_c, 1, 62, 0
6, 205800, Note_on_c, 1, 60, 64
6, 205916, Note_on_c, 1, 60, 0
6, 205920, Note_on_c, 1, 59, 64
6, 206036, Note_on_c, 1, 59, 0
6, 206040, Note_on_c, 1, 67, 64
6, 206156, Note_on_c, 1, 67, 0
6, 206160, Note_on_c, 1, 66, 64
6, 206276, Note_on_c, 1, 66, 0
6, 206280, Note_on_c, 1, 64, 64
6, 206396, Note_on_c, 1, 64, 0
6, 206400, Note_on_c, 1, 62, 64
6, 206516, Note_on_c, 1, 62, 0
6, 206520, Note_on_c, 1, 74, 64
6, 206636, Note_on_c, 1, 74, 0
6, 206640, Note_on_c, 1, 73, 64
6, 206756, Note_on_c, 1, 73, 0
6, 206760, Note_on_c, 1, 71, 64
6, 206876, Note_on_c, 1, 71, 0
6, 206880, Note_on_c, 1, 69, 64
6, 206996, Note_on_c, 1, 69, 0
6, 207000, Note_on_c, 1, 71, 64
6, 207116, Note_on_c, 1, 71, 0
6, 207120, Note_on_c, 1, 69, 64
6, 207236, Note_on_c, 1, 69, 0
6, 207240, Note_on_c, 1, 67, 64
6, 207356, Note_on_c, 1, 67, 0
6, 207360, Note_on_c, 1, 66, 64
6, 207596, Note_on_c, 1, 66, 0
6, 207600, Note_on_c, 1, 66, 64
6, 207836, Note_on_c, 1, 66, 0
6, 207840, Note_on_c, 1, 66, 64
6, 208076, Note_on_c, 1, 66, 0
6, 208080, Note_on_c, 1, 66, 64
6, 208316, Note_on_c, 1, 66, 0
6, 208320, Note_on_c, 1, 66, 64
6, 208556, Note_on_c, 1, 66, 0
6, 208560, Note_on_c, 1, 66, 64
6, 208796, Note_on_c, 1, 66, 0
6, 208800, Note_on_c, 1, 66, 64
6, 209036, Note_on_c, 1, 66, 0
6, 209040, Note_on_c, 1, 66, 64
6, 209276, Note_on_c, 1, 66, 0
6, 209280, Note_on_c, 1, 67, 64
6, 209516, Note_on_c, 1, 67, 0
6, 209520, Note_on_c, 1, 62, 64
6, 209756, Note_on_c, 1, 62, 0
6, 209760, Note_on_c, 1, 62, 64
6, 209996, Note_on_c, 1, 62, 0
6, 210000, Note_on_c, 1, 62, 64
6, 210236, Note_on_c, 1, 62, 0
6, 210240, Note_on_c, 1, 62, 64
6, 210476, Note_on_c, 1, 62, 0
6, 210480, Note_on_c, 1, 62, 64
6, 210716, Note_on_c, 1, 62, 0
6, 210720, Note_on_c, 1, 62, 64
6, 210956, Note_on_c, 1, 62, 0
6, 210960, Note_on_c, 1, 62, 64
6, 211196, Note_on_c, 1, 62, 0
6, 211200, Note_on_c, 1, 64, 64
6, 211436, Note_on_c, 1, 64, 0
6, 211440, Note_on_c, 1, 64, 64
6, 211676, Note_on_c, 1, 64, 0
6, 211680, Note_on_c, 1, 64, 64
6, 211916, Note_on_c, 1, 64, 0
6, 211920, Note_on_c, 1, 64, 64
6, 212156, Note_on_c, 1, 64, 0
6, 212160, Note_on_c, 1, 64, 64
6, 212396, Note_on_c, 1, 64, 0
6, 212400, Note_on_c, 1, 64, 64
6, 212636, Note_on_c, 1, 64, 0
6, 212640, Note_on_c, 1, 64, 64
6, 212876, Note_on_c, 1, 64, 0
6, 212880, Note_on_c, 1, 64, 64
6, 213116, Note_on_c, 1, 64, 0
6, 213120, Note_on_c, 1, 73, 64
6, 213236, Note_on_c, 1, 73, 0
6, 213240, Note_on_c, 1, 71, 64
6, 213356, Note_on_c, 1, 71, 0
6, 213360, Note_on_c, 1, 73, 64
6, 213596, Note_on_c, 1, 73, 0
6, 214080, Note_on_c, 1, 73, 64
6, 214196, Note_on_c, 1, 73, 0
6, 214200, Note_on_c, 1, 71, 64
6, 214316, Note_on_c, 1, 71, 0
6, 214320, Note_on_c, 1, 73, 64
6, 214556, Note_on_c, 1, 73, 0
6, 215040, Note_on_c, 1, 63, 64
6, 215156, Note_on_c, 1, 63, 0
6, 215160, Note_on_c, 1, 62, 64
6, 215276, Note_on_c, 1, 62, 0
6, 215280, Note_on_c, 1, 63, 64
6, 215396, Note_on_c, 1, 63, 0
6, 215400, Note_on_c, 1, 72, 64
6, 215516, Note_on_c, 1, 72, 0
6, 215520, Note_on_c, 1, 69, 64
6, 215636, Note_on_c, 1, 69, 0
6, 215640, Note_on_c, 1, 66, 64
6, 215756, Note_on_c, 1, 66, 0
6, 215760, Note_on_c, 1, 65, 64
6, 215876, Note_on_c, 1, 65, 0
6, 215880, Note_on_c, 1, 60, 64
6, 215996, Note_on_c, 1, 60, 0
6, 216000, Note_on_c, 1, 63, 64
6, 216116, Note_on_c, 1, 63, 0
6, 216120, Note_on_c, 1, 62, 64
6, 216236, Note_on_c, 1, 62, 0
6, 216240, Note_on_c, 1, 63, 64
6, 216356, Note_on_c, 1, 63, 0
6, 216360, Note_on_c, 1, 72, 64
6, 216476, Note_on_c, 1, 72, 0
6, 216480, Note_on_c, 1, 69, 64
6, 216596, Note_on_c, 1, 69, 0
6, 216600, Note_on_c, 1, 66, 64
6, 216716, Note_on_c, 1, 66, 0
6, 216720, Note_on_c, 1, 65, 64
6, 216836, Note_on_c, 1, 65, 0
6, 216840, Note_on_c, 1, 60, 64
6, 216956, Note_on_c, 1, 60, 0
6, 216960, Note_on_c, 1, 59, 64
6, 217076, Note_on_c, 1, 59, 0
6, 217080, Note_on_c, 1, 57, 64
6, 217196, Note_on_c, 1, 57, 0
6, 217200, Note_on_c, 1, 59, 64
6, 217316, Note_on_c, 1, 59, 0
6, 217320, Note_on_c, 1, 68, 64
6, 217436, Note_on_c, 1, 68, 0
6, 217440, Note_on_c, 1, 65, 64
6, 217556, Note_on_c, 1, 65, 0
6, 217560, Note_on_c, 1, 62, 64
6, 217676, Note_on_c, 1, 62, 0
6, 217680, Note_on_c, 1, 59, 64
6, 217796, Note_on_c, 1, 59, 0
6, 217800, Note_on_c, 1, 53, 64
6, 217916, Note_on_c, 1, 53, 0
6, 217920, Note_on_c, 1, 59, 64
6, 218036, Note_on_c, 1, 59, 0
6, 218040, Note_on_c, 1, 57, 64
6, 218156, Note_on_c, 1, 57, 0
6, 218160, Note_on_c, 1, 59, 64
6, 218276, Note_on_c, 1, 59, 0
6, 218280, Note_on_c, 1, 68, 64
6, 218396, Note_on_c, 1, 68, 0
6, 218400, Note_on_c, 1, 65, 64
6, 218516, Note_on_c, 1, 65, 0
6, 218520, Note_on_c, 1, 62, 64
6, 218636, Note_on_c, 1, 62, 0
6, 218640, Note_on_c, 1, 59, 64
6, 218756, Note_on_c, 1, 59, 0
6, 218760, Note_on_c, 1, 53, 64
6, 218876, Note_on_c, 1, 53, 0
6, 219360, Note_on_c, 1, 67, 64
6, 219476, Note_on_c, 1, 67, 0
6, 219480, Note_on_c, 1, 69, 64
6, 219596, Note_on_c, 1, 69, 0
6, 219600, Note_on_c, 1, 67, 64
6, 219836, Note_on_c, 1, 67, 0
6, 220320, Note_on_c, 1, 67, 64
6, 220436, Note_on_c, 1, 67, 0
6, 220440, Note_on_c, 1, 69, 64
6, 220556, Note_on_c, 1, 69, 0
6, 220560, Note_on_c, 1, 67, 64
6, 220796, Note_on_c, 1, 67, 0
6, 221280, Note_on_c, 1, 67, 64
6, 221396, Note_on_c, 1, 67, 0
6, 221400, Note_on_c, 1, 69, 64
6, 221516, Note_on_c, 1, 69, 0
6, 221520, Note_on_c, 1, 67, 64
6, 221756, Note_on_c, 1, 67, 0
6, 222240, Note_on_c, 1, 67, 64
6, 222356, Note_on_c, 1, 67, 0
6, 222360, Note_on_c, 1, 69, 64
6, 222476, Note_on_c, 1, 69, 0
6, 222480, Note_on_c, 1, 67, 64
6, 222716, Note_on_c, 1, 67, 0
6, 223200, Note_on_c, 1, 67, 64
6, 223316, Note_on_c, 1, 67, 0
6, 223320, Note_on_c, 1, 69, 64
6, 223436, Note_on_c, 1, 69, 0
6, 223440, Note_on_c, 1, 67, 64
6, 223676, Note_on_c, 1, 67, 0
6, 224160, Note_on_c, 1, 67, 64
6, 224276, Note_on_c, 1, 67, 0
6, 224280, Note_on_c, 1, 69, 64
6, 224396, Note_on_c, 1, 69, 0
6, 224400, Note_on_c, 1, 67, 64
6, 224636, Note_on_c, 1, 67, 0
6, 225120, Note_on_c, 1, 67, 64
6, 225236, Note_on_c, 1, 67, 0
6, 225240, Note_on_c, 1, 69, 64
6, 225356, Note_on_c, 1, 69, 0
6, 225360, Note_on_c, 1, 67, 64
6, 225596, Note_on_c, 1, 67, 0
6, 226080, Note_on_c, 1, 67, 64
6, 226196, Note_on_c, 1, 67, 0
6, 226200, Note_on_c, 1, 69, 64
6, 226316, Note_on_c, 1, 69, 0
6, 226320, Note_on_c, 1, 67, 64
6, 226556, Note_on_c, 1, 67, 0
6, 227040, Note_on_c, 1, 66, 64
6, 227156, Note_on_c, 1, 66, 0
6, 227160, Note_on_c, 1, 67, 64
6, 227276, Note_on_c, 1, 67, 0
6, 227280, Note_on_c, 1, 66, 64
6, 227516, Note_on_c, 1, 66, 0
6, 228000, Note_on_c, 1, 66, 64
6, 228116, Note_on_c, 1, 66, 0
6, 228120, Note_on_c, 1, 67, 64
6, 228236, Note_on_c, 1, 67, 0
6, 228240, Note_on_c, 1, 62, 64
6, 228476, Note_on_c, 1, 62, 0
6, 228480, Note_on_c, 1, 62, 64
6, 228716, Note_on_c, 1, 62, 0
6, 229200, Note_on_c, 1, 55, 64
6, 229316, Note_on_c, 1, 55, 0
6, 229320, Note_on_c, 1, 54, 64
6, 229436, Note_on_c, 1, 54, 0
6, 229440, Note_on_c, 1, 55, 64
6, 229676, Note_on_c, 1, 55, 0
6, 229680, Note_on_c, 1, 51, 64
6, 229796, Note_on_c, 1, 51, 0
6, 229800, Note_on_c, 1, 50, 64
6, 229916, Note_on_c, 1, 50, 0
6, 229920, Note_on_c, 1, 51, 64
6, 230156, Note_on_c, 1, 51, 0
6, 230160, Note_on_c, 1, 67, 64
6, 230396, Note_on_c, 1, 67, 0
6, 230400, Note_on_c, 1, 60, 64
6, 230636, Note_on_c, 1, 60, 0
6, 231120, Note_on_c, 1, 53, 64
6, 231236, Note_on_c, 1, 53, 0
6, 231240, Note_on_c, 1, 52, 64
6, 231356, Note_on_c, 1, 52, 0
6, 231360, Note_on_c, 1, 53, 64
6, 231596, Note_on_c, 1, 53, 0
6, 231600, Note_on_c, 1, 50, 64
6, 231716, Note_on_c, 1, 50, 0
6, 231720, Note_on_c, 1, 48, 64
6, 231836, Note_on_c, 1, 48, 0
6, 231840, Note_on_c, 1, 50, 64
6, 232076, Note_on_c, 1, 50, 0
6, 232080, Note_on_c, 1, 65, 64
6, 232316, Note_on_c, 1, 65, 0
6, 232320, Note_on_c, 1, 58, 64
6, 232556, Note_on_c, 1, 58, 0
6, 233040, Note_on_c, 1, 51, 64
6, 233156, Note_on_c, 1, 51, 0
6, 233160, Note_on_c, 1, 50, 64
6, 233276, Note_on_c, 1, 50, 0
6, 233280, Note_on_c, 1, 51, 64
6, 233516, Note_on_c, 1, 51, 0
6, 233520, Note_on_c, 1, 48, 64
6, 233636, Note_on_c, 1, 48, 0
6, 233640, Note_on_c, 1, 50, 64
6, 233756, Note_on_c, 1, 50, 0
6, 233760, Note_on_c, 1, 48, 64
6, 233996, Note_on_c, 1, 48, 0
6, 234000, Note_on_c, 1, 63, 64
6, 234236, Note_on_c, 1, 63, 0
6, 234240, Note_on_c, 1, 57, 64
6, 234716, Note_on_c, 1, 57, 0
6, 234960, Note_on_c, 1, 62, 64
6, 235196, Note_on_c, 1, 62, 0
6, 235200, Note_on_c, 1, 57, 64
6, 235316, Note_on_c, 1, 57, 0
6, 235320, Note_on_c, 1, 60, 64
6, 235436, Note_on_c, 1, 60, 0
6, 235440, Note_on_c, 1, 54, 64
6, 235556, Note_on_c, 1, 54, 0
6, 235560, Note_on_c, 1, 55, 64
6, 235676, Note_on_c, 1, 55, 0
6, 235680, Note_on_c, 1, 57, 64
6, 235796, Note_on_c, 1, 57, 0
6, 235800, Note_on_c, 1, 58, 64
6, 235916, Note_on_c, 1, 58, 0
6, 235920, Note_on_c, 1, 60, 64
6, 236036, Note_on_c, 1, 60, 0
6, 236040, Note_on_c, 1, 62, 64
6, 236156, Note_on_c, 1, 62, 0
6, 236160, Note_on_c, 1, 63, 64
6, 236636, Note_on_c, 1, 63, 0
6, 236880, Note_on_c, 1, 57, 64
6, 237116, Note_on_c, 1, 57, 0
6, 237120, Note_on_c, 1, 58, 64
6, 237596, Note_on_c, 1, 58, 0
6, 237840, Note_on_c, 1, 69, 64
6, 237956, Note_on_c, 1, 69, 0
6, 237960, Note_on_c, 1, 67, 64
6, 238076, Note_on_c, 1, 67, 0
6, 238080, Note_on_c, 1, 69, 64
6, 238316, Note_on_c, 1, 69, 0
6, 238800, Note_on_c, 1, 66, 64
6, 238916, Note_on_c, 1, 66, 0
6, 238920, Note_on_c, 1, 64, 64
6, 239036, Note_on_c, 1, 64, 0
6, 239040, Note_on_c, 1, 62, 64
6, 239276, Note_on_c, 1, 62, 0
6, 239760, Note_on_c, 1, 74, 64
6, 239996, Note_on_c, 1, 74, 0
6, 240000, Note_on_c, 1, 75, 64
6, 240356, Note_on_c, 1, 75, 0
6, 240360, Note_on_c, 1, 74, 64
6, 240476, Note_on_c, 1, 74, 0
6, 240480, Note_on_c, 1, 72, 64
6, 240596, Note_on_c, 1, 72, 0
6, 240600, Note_on_c, 1, 70, 64
6, 240716, Note_on_c, 1, 70, 0
6, 240720, Note_on_c, 1, 69, 64
6, 240836, Note_on_c, 1, 69, 0
6, 240840, Note_on_c, 1, 67, 64
6, 240956, Note_on_c, 1, 67, 0
6, 240960, Note_on_c, 1, 69, 64
6, 241196, Note_on_c, 1, 69, 0
6, 241200, Note_on_c, 1, 62, 64
6, 241436, Note_on_c, 1, 62, 0
6, 241440, Note_on_c, 1, 60, 64
6, 241676, Note_on_c, 1, 60, 0
6, 241680, Note_on_c, 1, 59, 64
6, 241796, Note_on_c, 1, 59, 0
6, 241800, Note_on_c, 1, 57, 64
6, 241916, Note_on_c, 1, 57, 0
6, 241920, Note_on_c, 1, 59, 64
6, 242156, Note_on_c, 1, 59, 0
6, 242160, Note_on_c, 1, 62, 64
6, 242396, Note_on_c, 1, 62, 0
6, 242400, Note_on_c, 1, 59, 64
6, 242636, Note_on_c, 1, 59, 0
6, 242640, Note_on_c, 1, 55, 64
6, 242876, Note_on_c, 1, 55, 0
6, 242880, Note_on_c, 1, 59, 64
6, 243116, Note_on_c, 1, 59, 0
6, 243120, Note_on_c, 1, 62, 64
6, 243356, Note_on_c, 1, 62, 0
6, 243360, Note_on_c, 1, 59, 64
6, 243596, Note_on_c, 1, 59, 0
6, 243600, Note_on_c, 1, 55, 64
6, 243836, Note_on_c, 1, 55, 0
6, 243840, Note_on_c, 1, 59, 64
6, 244076, Note_on_c, 1, 59, 0
6, 244080, Note_on_c, 1, 62, 64
6, 244316, Note_on_c, 1, 62, 0
6, 244320, Note_on_c, 1, 67, 64
6, 244436, Note_on_c, 1, 67, 0
6, 244440, Note_on_c, 1, 71, 64
6, 244556, Note_on_c, 1, 71, 0
6, 244560, Note_on_c, 1, 69, 64
6, 244676, Note_on_c, 1, 69, 0
6, 244680, Note_on_c, 1, 67, 64
6, 244796, Note_on_c, 1, 67, 0
6, 244800, Note_on_c, 1, 66, 64
6, 245036, Note_on_c, 1, 66, 0
6, 245040, Note_on_c, 1, 62, 64
6, 245276, Note_on_c, 1, 62, 0
6, 245520, Note_on_c, 1, 71, 64
6, 245756, Note_on_c, 1, 71, 0
6, 245760, Note_on_c, 1, 66, 64
6, 245996, Note_on_c, 1, 66, 0
6, 246000, Note_on_c, 1, 62, 64
6, 246236, Note_on_c, 1, 62, 0
6, 246480, Note_on_c, 1, 69, 64
6, 246716, Note_on_c, 1, 69, 0
6, 246720, Note_on_c, 1, 66, 64
6, 246956, Note_on_c, 1, 66, 0
6, 246960, Note_on_c, 1, 62, 64
6, 247196, Note_on_c, 1, 62, 0
6, 247440, Note_on_c, 1, 69, 64
6, 247676, Note_on_c, 1, 69, 0
6, 247680, Note_on_c, 1, 62, 64
6, 247916, Note_on_c, 1, 62, 0
6, 247920, Note_on_c, 1, 60, 64
6, 248036, Note_on_c, 1, 60, 0
6, 248040, Note_on_c, 1, 59, 64
6, 248156, Note_on_c, 1, 59, 0
6, 248160, Note_on_c, 1, 60, 64
6, 248396, Note_on_c, 1, 60, 0
6, 248400, Note_on_c, 1, 59, 64
6, 248516, Note_on_c, 1, 59, 0
6, 248520, Note_on_c, 1, 57, 64
6, 248636, Note_on_c, 1, 57, 0
6, 248640, Note_on_c, 1, 55, 64
6, 248876, Note_on_c, 1, 55, 0
6, 248880, Note_on_c, 1, 67, 64
6, 249116, Note_on_c, 1, 67, 0
6, 249120, Note_on_c, 1, 67, 64
6, 249356, Note_on_c, 1, 67, 0
6, 249360, Note_on_c, 1, 55, 64
6, 249596, Note_on_c, 1, 55, 0
6, 249600, Note_on_c, 1, 55, 64
6, 249836, Note_on_c, 1, 55, 0
6, 249840, Note_on_c, 1, 67, 64
6, 250076, Note_on_c, 1, 67, 0
6, 250080, Note_on_c, 1, 67, 64
6, 250316, Note_on_c, 1, 67, 0
6, 250320, Note_on_c, 1, 55, 64
6, 250556, Note_on_c, 1, 55, 0
6, 250560, Note_on_c, 1, 55, 64
6, 250796, Note_on_c, 1, 55, 0
6, 250800, Note_on_c, 1, 67, 64
6, 251036, Note_on_c, 1, 67, 0
6, 251040, Note_on_c, 1, 67, 64
6, 251276, Note_on_c, 1, 67, 0
6, 251280, Note_on_c, 1, 55, 64
6, 251516, Note_on_c, 1, 55, 0
6, 251520, Note_on_c, 1, 55, 64
6, 251756, Note_on_c, 1, 55, 0
6, 251760, Note_on_c, 1, 67, 64
6, 251996, Note_on_c, 1, 67, 0
6, 252000, Note_on_c, 1, 66, 64
6, 252236, Note_on_c, 1, 66, 0
6, 252240, Note_on_c, 1, 67, 64
6, 252476, Note_on_c, 1, 67, 0
6, 252480, Note_on_c, 1, 69, 64
6, 252716, Note_on_c, 1, 69, 0
6, 252720, Note_on_c, 1, 71, 64
6, 252956, Note_on_c, 1, 71, 0
6, 252960, Note_on_c, 1, 72, 64
6, 253196, Note_on_c, 1, 72, 0
6, 253200, Note_on_c, 1, 74, 64
6, 253436, Note_on_c, 1, 74, 0
6, 253440, Note_on_c, 1, 71, 64
6, 253676, Note_on_c, 1, 71, 0
6, 253680, Note_on_c, 1, 69, 64
6, 253796, Note_on_c, 1, 69, 0
6, 253800, Note_on_c, 1, 67, 64
6, 253916, Note_on_c, 1, 67, 0
6, 253920, Note_on_c, 1, 62, 64
6, 254156, Note_on_c, 1, 62, 0
6, 254160, Note_on_c, 1, 66, 64
6, 254396, Note_on_c, 1, 66, 0
6, 254400, Note_on_c, 1, 67, 64
6, 254636, Note_on_c, 1, 67, 0
6, 255600, Note_on_c, 1, 59, 64
6, 255716, Note_on_c, 1, 59, 0
6, 255720, Note_on_c, 1, 57, 64
6, 255836, Note_on_c, 1, 57, 0
6, 255840, Note_on_c, 1, 59, 64
6, 256076, Note_on_c, 1, 59, 0
6, 256080, Note_on_c, 1, 62, 64
6, 256196, Note_on_c, 1, 62, 0
6, 256200, Note_on_c, 1, 60, 64
6, 256316, Note_on_c, 1, 60, 0
6, 256320, Note_on_c, 1, 62, 64
6, 256556, Note_on_c, 1, 62, 0
6, 258000, Note_on_c, 1, 62, 64
6, 258236, Note_on_c, 1, 62, 0
6, 258240, Note_on_c, 1, 67, 64
6, 258476, Note_on_c, 1, 67, 0
6, 258480, Note_on_c, 1, 66, 64
6, 258596, Note_on_c, 1, 66, 0
6, 258600, Note_on_c, 1, 64, 64
6, 258716, Note_on_c, 1, 64, 0
6, 258720, Note_on_c, 1, 62, 64
6, 258836, Note_on_c, 1, 62, 0
6, 258840, Note_on_c, 1, 60, 64
6, 258956, Note_on_c, 1, 60, 0
6, 258960, Note_on_c, 1, 59, 64
6, 259076, Note_on_c, 1, 59, 0
6, 259080, Note_on_c, 1, 57, 64
6, 259196, Note_on_c, 1, 57, 0
6, 259200, Note_on_c, 1, 55, 64
6, 259436, Note_on_c, 1, 55, 0
6, 259440, Note_on_c, 1, 60, 64
6, 259556, Note_on_c, 1, 60, 0
6, 259560, Note_on_c, 1, 62, 64
6, 259676, Note_on_c, 1, 62, 0
6, 259680, Note_on_c, 1, 64, 64
6, 259796, Note_on_c, 1, 64, 0
6, 259800, Note_on_c, 1, 66, 64
6, 259916, Note_on_c, 1, 66, 0
6, 259920, Note_on_c, 1, 67, 64
6, 260036, Note_on_c, 1, 67, 0
6, 260040, Note_on_c, 1, 69, 64
6, 260156, Note_on_c, 1, 69, 0
6, 260160, Note_on_c, 1, 71, 64
6, 260396, Note_on_c, 1, 71, 0
6, 260400, Note_on_c, 1, 66, 64
6, 260516, Note_on_c, 1, 66, 0
6, 260520, Note_on_c, 1, 64, 64
6, 260636, Note_on_c, 1, 64, 0
6, 260640, Note_on_c, 1, 62, 64
6, 260756, Note_on_c, 1, 62, 0
6, 260760, Note_on_c, 1, 60, 64
6, 260876, Note_on_c, 1, 60, 0
6, 260880, Note_on_c, 1, 59, 64
6, 260996, Note_on_c, 1, 59, 0
6, 261000, Note_on_c, 1, 57, 64
6, 261116, Note_on_c, 1, 57, 0
6, 261120, Note_on_c, 1, 59, 64
6, 261356, Note_on_c, 1, 59, 0
6, 261360, Note_on_c, 1, 57, 64
6, 261476, Note_on_c, 1, 57, 0
6, 261480, Note_on_c, 1, 55, 64
6, 261596, Note_on_c, 1, 55, 0
6, 261600, Note_on_c, 1, 62, 64
6, 261836, Note_on_c, 1, 62, 0
6, 261840, Note_on_c, 1, 50, 64
6, 262076, Note_on_c, 1, 50, 0
6, 262080, Note_on_c, 1, 55, 64
6, 263036, Note_on_c, 1, 55, 0
6, 263040, Note_on_c, 1, 60, 64
6, 263996, Note_on_c, 1, 60, 0
6, 264000, Note_on_c, 1, 54, 64
6, 264956, Note_on_c, 1, 54, 0
6, 264960, Note_on_c, 1, 67, 64
6, 265196, Note_on_c, 1, 67, 0
6, 265200, Note_on_c, 1, 71, 64
6, 265436, Note_on_c, 1, 71, 0
6, 265440, Note_on_c, 1, 74, 64
6, 265676, Note_on_c, 1, 74, 0
6, 265680, Note_on_c, 1, 66, 64
6, 265916, Note_on_c, 1, 66, 0
6, 265920, Note_on_c, 1, 69, 64
6, 266156, Note_on_c, 1, 69, 0
6, 266160, Note_on_c, 1, 74, 64
6, 266396, Note_on_c, 1, 74, 0
6, 266400, Note_on_c, 1, 67, 64
6, 266636, Note_on_c, 1, 67, 0
6, 266640, Note_on_c, 1, 71, 64
6, 266876, Note_on_c, 1, 71, 0
6, 266880, Note_on_c, 1, 74, 64
6, 267116, Note_on_c, 1, 74, 0
6, 267120, Note_on_c, 1, 62, 64
6, 267356, Note_on_c, 1, 62, 0
6, 267360, Note_on_c, 1, 69, 64
6, 267596, Note_on_c, 1, 69, 0
6, 267600, Note_on_c, 1, 74, 64
6, 267836, Note_on_c, 1, 74, 0
6, 267840, Note_on_c, 1, 67, 64
6, 267956, Note_on_c, 1, 67, 0
6, 267960, Note_on_c, 1, 66, 64
6, 268076, Note_on_c, 1, 66, 0
6, 268080, Note_on_c, 1, 67, 64
6, 268196, Note_on_c, 1, 67, 0
6, 268200, Note_on_c, 1, 69, 64
6, 268316, Note_on_c, 1, 69, 0
6, 268320, Note_on_c, 1, 71, 64
6, 268436, Note_on_c, 1, 71, 0
6, 268440, Note_on_c, 1, 72, 64
6, 268556, Note_on_c, 1, 72, 0
6, 268560, Note_on_c, 1, 74, 64
6, 268676, Note_on_c, 1, 74, 0
6, 268680, Note_on_c, 1, 76, 64
6, 268796, Note_on_c, 1, 76, 0
6, 268800, Note_on_c, 1, 74, 64
6, 268916, Note_on_c, 1, 74, 0
6, 268920, Note_on_c, 1, 72, 64
6, 269036, Note_on_c, 1, 72, 0
6, 269040, Note_on_c, 1, 71, 64
6, 269156, Note_on_c, 1, 71, 0
6, 269160, Note_on_c, 1, 69, 64
6, 269276, Note_on_c, 1, 69, 0
6, 269280, Note_on_c, 1, 67, 64
6, 269516, Note_on_c, 1, 67, 0
6, 269520, Note_on_c, 1, 71, 64
6, 269756, Note_on_c, 1, 71, 0
6, 269760, Note_on_c, 1, 62, 64
6, 269996, Note_on_c, 1, 62, 0
6, 270000, Note_on_c, 1, 69, 64
6, 270236, Note_on_c, 1, 69, 0
6, 270240, Note_on_c, 1, 72, 64
6, 270476, Note_on_c, 1, 72, 0
6, 270480, Note_on_c, 1, 62, 64
6, 270716, Note_on_c, 1, 62, 0
6, 270720, Note_on_c, 1, 71, 64
6, 270956, Note_on_c, 1, 71, 0
6, 270960, Note_on_c, 1, 71, 64
6, 271196, Note_on_c, 1, 71, 0
6, 271200, Note_on_c, 1, 71, 64
6, 271436, Note_on_c, 1, 71, 0
6, 271440, Note_on_c, 1, 71, 64
6, 271676, Note_on_c, 1, 71, 0
6, 271680, Note_on_c, 1, 71, 64
6, 271916, Note_on_c, 1, 71, 0
6, 271920, Note_on_c, 1, 71, 64
6, 272156, Note_on_c, 1, 71, 0
6, 272160, Note_on_c, 1, 69, 64
6, 272396, Note_on_c, 1, 69, 0
6, 272400, Note_on_c, 1, 69, 64
6, 272636, Note_on_c, 1, 69, 0
6, 272640, Note_on_c, 1, 69, 64
6, 272876, Note_on_c, 1, 69, 0
6, 272880, Note_on_c, 1, 69, 64
6, 273116, Note_on_c, 1, 69, 0
6, 273120, Note_on_c, 1, 69, 64
6, 273356, Note_on_c, 1, 69, 0
6, 273360, Note_on_c, 1, 69, 64
6, 273596, Note_on_c, 1, 69, 0
6, 273600, Note_on_c, 1, 67, 64
6, 273836, Note_on_c, 1, 67, 0
6, 273840, Note_on_c, 1, 67, 64
6, 274076, Note_on_c, 1, 67, 0
6, 274080, Note_on_c, 1, 67, 64
6, 274316, Note_on_c, 1, 67, 0
6, 274320, Note_on_c, 1, 67, 64
6, 274556, Note_on_c, 1, 67, 0
6, 274560, Note_on_c, 1, 67, 64
6, 274796, Note_on_c, 1, 67, 0
6, 274800, Note_on_c, 1, 67, 64
6, 275036, Note_on_c, 1, 67, 0
6, 275040, Note_on_c, 1, 66, 64
6, 275276, Note_on_c, 1, 66, 0
6, 275280, Note_on_c, 1, 69, 64
6, 275516, Note_on_c, 1, 69, 0
6, 275520, Note_on_c, 1, 74, 64
6, 275756, Note_on_c, 1, 74, 0
6, 275760, Note_on_c, 1, 64, 64
6, 275996, Note_on_c, 1, 64, 0
6, 276000, Note_on_c, 1, 67, 64
6, 276236, Note_on_c, 1, 67, 0
6, 276240, Note_on_c, 1, 73, 64
6, 276476, Note_on_c, 1, 73, 0
6, 276480, Note_on_c, 1, 62, 64
6, 276596, Note_on_c, 1, 62, 0
6, 276600, Note_on_c, 1, 61, 64
6, 276716, Note_on_c, 1, 61, 0
6, 276720, Note_on_c, 1, 62, 64
6, 276836, Note_on_c, 1, 62, 0
6, 276840, Note_on_c, 1, 64, 64
6, 276956, Note_on_c, 1, 64, 0
6, 276960, Note_on_c, 1, 66, 64
6, 277076, Note_on_c, 1, 66, 0
6, 277080, Note_on_c, 1, 67, 64
6, 277196, Note_on_c, 1, 67, 0
6, 277200, Note_on_c, 1, 69, 64
6, 277316, Note_on_c, 1, 69, 0
6, 277320, Note_on_c, 1, 71, 64
6, 277436, Note_on_c, 1, 71, 0
6, 277440, Note_on_c, 1, 69, 64
6, 277556, Note_on_c, 1, 69, 0
6, 277560, Note_on_c, 1, 67, 64
6, 277676, Note_on_c, 1, 67, 0
6, 277680, Note_on_c, 1, 66, 64
6, 277796, Note_on_c, 1, 66, 0
6, 277800, Note_on_c, 1, 64, 64
6, 277916, Note_on_c, 1, 64, 0
6, 277920, Note_on_c, 1, 66, 64
6, 278156, Note_on_c, 1, 66, 0
6, 278160, Note_on_c, 1, 69, 64
6, 278396, Note_on_c, 1, 69, 0
6, 278400, Note_on_c, 1, 74, 64
6, 278636, Note_on_c, 1, 74, 0
6, 278640, Note_on_c, 1, 73, 64
6, 278756, Note_on_c, 1, 73, 0
6, 278760, Note_on_c, 1, 74, 64
6, 278876, Note_on_c, 1, 74, 0
6, 278880, Note_on_c, 1, 73, 64
6, 278996, Note_on_c, 1, 73, 0
6, 279000, Note_on_c, 1, 71, 64
6, 279116, Note_on_c, 1, 71, 0
6, 279120, Note_on_c, 1, 69, 64
6, 279236, Note_on_c, 1, 69, 0
6, 279240, Note_on_c, 1, 67, 64
6, 279356, Note_on_c, 1, 67, 0
6, 279360, Note_on_c, 1, 66, 64
6, 279596, Note_on_c, 1, 66, 0
6, 279600, Note_on_c, 1, 62, 64
6, 279836, Note_on_c, 1, 62, 0
6, 279840, Note_on_c, 1, 69, 64
6, 280076, Note_on_c, 1, 69, 0
6, 280080, Note_on_c, 1, 69, 64
6, 280316, Note_on_c, 1, 69, 0
6, 280320, Note_on_c, 1, 69, 64
6, 280556, Note_on_c, 1, 69, 0
6, 280560, Note_on_c, 1, 69, 64
6, 280796, Note_on_c, 1, 69, 0
6, 280800, Note_on_c, 1, 69, 64
6, 280916, Note_on_c, 1, 69, 0
6, 280920, Note_on_c, 1, 67, 64
6, 281036, Note_on_c, 1, 67, 0
6, 281040, Note_on_c, 1, 66, 64
6, 281156, Note_on_c, 1, 66, 0
6, 281160, Note_on_c, 1, 64, 64
6, 281276, Note_on_c, 1, 64, 0
6, 281280, Note_on_c, 1, 62, 64
6, 281396, Note_on_c, 1, 62, 0
6, 281400, Note_on_c, 1, 61, 64
6, 281516, Note_on_c, 1, 61, 0
6, 281520, Note_on_c, 1, 59, 64
6, 281636, Note_on_c, 1, 59, 0
6, 281640, Note_on_c, 1, 57, 64
6, 281756, Note_on_c, 1, 57, 0
6, 281760, Note_on_c, 1, 59, 64
6, 281876, Note_on_c, 1, 59, 0
6, 281880, Note_on_c, 1, 61, 64
6, 281996, Note_on_c, 1, 61, 0
6, 282000, Note_on_c, 1, 62, 64
6, 282116, Note_on_c, 1, 62, 0
6, 282120, Note_on_c, 1, 59, 64
6, 282236, Note_on_c, 1, 59, 0
6, 282240, Note_on_c, 1, 64, 64
6, 282356, Note_on_c, 1, 64, 0
6, 282360, Note_on_c, 1, 66, 64
6, 282476, Note_on_c, 1, 66, 0
6, 282480, Note_on_c, 1, 64, 64
6, 282596, Note_on_c, 1, 64, 0
6, 282600, Note_on_c, 1, 62, 64
6, 282716, Note_on_c, 1, 62, 0
6, 282720, Note_on_c, 1, 61, 64
6, 282836, Note_on_c, 1, 61, 0
6, 282840, Note_on_c, 1, 59, 64
6, 282956, Note_on_c, 1, 59, 0
6, 282960, Note_on_c, 1, 57, 64
6, 283076, Note_on_c, 1, 57, 0
6, 283080, Note_on_c, 1, 56, 64
6, 283196, Note_on_c, 1, 56, 0
6, 283200, Note_on_c, 1, 57, 64
6, 283316, Note_on_c, 1, 57, 0
6, 283320, Note_on_c, 1, 59, 64
6, 283436, Note_on_c, 1, 59, 0
6, 283440, Note_on_c, 1, 61, 64
6, 283556, Note_on_c, 1, 61, 0
6, 283560, Note_on_c, 1, 57, 64
6, 283676, Note_on_c, 1, 57, 0
6, 283680, Note_on_c, 1, 62, 64
6, 283796, Note_on_c, 1, 62, 0
6, 283800, Note_on_c, 1, 64, 64
6, 283916, Note_on_c, 1, 64, 0
6, 283920, Note_on_c, 1, 62, 64
6, 284036, Note_on_c, 1, 62, 0
6, 284040, Note_on_c, 1, 61, 64
6, 284156, Note_on_c, 1, 61, 0
6, 284160, Note_on_c, 1, 59, 64
6, 284276, Note_on_c, 1, 59, 0
6, 284280, Note_on_c, 1, 57, 64
6, 284396, Note_on_c, 1, 57, 0
6, 284400, Note_on_c, 1, 56, 64
6, 284516, Note_on_c, 1, 56, 0
6, 284520, Note_on_c, 1, 54, 64
6, 284636, Note_on_c, 1, 54, 0
6, 284640, Note_on_c, 1, 56, 64
6, 284756, Note_on_c, 1, 56, 0
6, 284760, Note_on_c, 1, 57, 64
6, 284876, Note_on_c, 1, 57, 0
6, 284880, Note_on_c, 1, 59, 64
6, 284996, Note_on_c, 1, 59, 0
6, 285000, Note_on_c, 1, 56, 64
6, 285116, Note_on_c, 1, 56, 0
6, 285120, Note_on_c, 1, 64, 64
6, 285356, Note_on_c, 1, 64, 0
6, 285360, Note_on_c, 1, 61, 64
6, 285596, Note_on_c, 1, 61, 0
6, 285600, Note_on_c, 1, 57, 64
6, 285836, Note_on_c, 1, 57, 0
6, 285840, Note_on_c, 1, 66, 64
6, 286076, Note_on_c, 1, 66, 0
6, 286080, Note_on_c, 1, 62, 64
6, 286316, Note_on_c, 1, 62, 0
6, 286320, Note_on_c, 1, 57, 64
6, 286556, Note_on_c, 1, 57, 0
6, 286560, Note_on_c, 1, 64, 64
6, 286796, Note_on_c, 1, 64, 0
6, 286800, Note_on_c, 1, 61, 64
6, 287036, Note_on_c, 1, 61, 0
6, 287040, Note_on_c, 1, 57, 64
6, 287276, Note_on_c, 1, 57, 0
6, 287280, Note_on_c, 1, 62, 64
6, 287516, Note_on_c, 1, 62, 0
6, 287520, Note_on_c, 1, 57, 64
6, 287756, Note_on_c, 1, 57, 0
6, 287760, Note_on_c, 1, 54, 64
6, 287996, Note_on_c, 1, 54, 0
6, 288000, Note_on_c, 1, 61, 64
6, 288476, Note_on_c, 1, 61, 0
6, 288480, Note_on_c, 1, 69, 64
6, 288716, Note_on_c, 1, 69, 0
6, 288720, Note_on_c, 1, 62, 64
6, 289196, Note_on_c, 1, 62, 0
6, 289200, Note_on_c, 1, 69, 64
6, 289436, Note_on_c, 1, 69, 0
6, 289440, Note_on_c, 1, 61, 64
6, 289556, Note_on_c, 1, 61, 0
6, 289560, Note_on_c, 1, 64, 64
6, 289676, Note_on_c, 1, 64, 0
6, 289680, Note_on_c, 1, 57, 64
6, 289796, Note_on_c, 1, 57, 0
6, 289800, Note_on_c, 1, 64, 64
6, 289916, Note_on_c, 1, 64, 0
6, 289920, Note_on_c, 1, 61, 64
6, 290036, Note_on_c, 1, 61, 0
6, 290040, Note_on_c, 1, 64, 64
6, 290156, Note_on_c, 1, 64, 0
6, 290160, Note_on_c, 1, 62, 64
6, 290276, Note_on_c, 1, 62, 0
6, 290280, Note_on_c, 1, 66, 64
6, 290396, Note_on_c, 1, 66, 0
6, 290400, Note_on_c, 1, 57, 64
6, 290516, Note_on_c, 1, 57, 0
6, 290520, Note_on_c, 1, 66, 64
6, 290636, Note_on_c, 1, 66, 0
6, 290640, Note_on_c, 1, 62, 64
6, 290756, Note_on_c, 1, 62, 0
6, 290760, Note_on_c, 1, 66, 64
6, 290876, Note_on_c, 1, 66, 0
6, 290880, Note_on_c, 1, 64, 64
6, 290996, Note_on_c, 1, 64, 0
6, 291000, Note_on_c, 1, 67, 64
6, 291116, Note_on_c, 1, 67, 0
6, 291120, Note_on_c, 1, 57, 64
6, 291236, Note_on_c, 1, 57, 0
6, 291240, Note_on_c, 1, 67, 64
6, 291356, Note_on_c, 1, 67, 0
6, 291360, Note_on_c, 1, 64, 64
6, 291476, Note_on_c, 1, 64, 0
6, 291480, Note_on_c, 1, 67, 64
6, 291596, Note_on_c, 1, 67, 0
6, 291600, Note_on_c, 1, 64, 64
6, 291716, Note_on_c, 1, 64, 0
6, 291720, Note_on_c, 1, 67, 64
6, 291836, Note_on_c, 1, 67, 0
6, 291840, Note_on_c, 1, 57, 64
6, 291956, Note_on_c, 1, 57, 0
6, 291960, Note_on_c, 1, 67, 64
6, 292076, Note_on_c, 1, 67, 0
6, 292080, Note_on_c, 1, 64, 64
6, 292196, Note_on_c, 1, 64, 0
6, 292200, Note_on_c, 1, 67, 64
6, 292316, Note_on_c, 1, 67, 0
6, 292320, Note_on_c, 1, 66, 64
6, 292556, Note_on_c, 1, 66, 0
6, 292560, Note_on_c, 1, 62, 64
6, 292796, Note_on_c, 1, 62, 0
6, 292800, Note_on_c, 1, 62, 64
6, 293036, Note_on_c, 1, 62, 0
6, 293040, Note_on_c, 1, 62, 64
6, 293276, Note_on_c, 1, 62, 0
6, 293280, Note_on_c, 1, 62, 64
6, 293516, Note_on_c, 1, 62, 0
6, 293520, Note_on_c, 1, 62, 64
6, 293756, Note_on_c, 1, 62, 0
6, 293760, Note_on_c, 1, 62, 64
6, 293996, Note_on_c, 1, 62, 0
6, 294000, Note_on_c, 1, 62, 64
6, 294236, Note_on_c, 1, 62, 0
6, 294240, Note_on_c, 1, 62, 64
6, 294476, Note_on_c, 1, 62, 0
6, 294480, Note_on_c, 1, 62, 64
6, 294716, Note_on_c, 1, 62, 0
6, 294720, Note_on_c, 1, 62, 64
6, 294956, Note_on_c, 1, 62, 0
6, 294960, Note_on_c, 1, 62, 64
6, 295196, Note_on_c, 1, 62, 0
6, 295200, Note_on_c, 1, 69, 64
6, 295436, Note_on_c, 1, 69, 0
6, 295440, Note_on_c, 1, 69, 64
6, 295676, Note_on_c, 1, 69, 0
6, 295680, Note_on_c, 1, 69, 64
6, 295916, Note_on_c, 1, 69, 0
6, 295920, Note_on_c, 1, 69, 64
6, 296156, Note_on_c, 1, 69, 0
6, 296160, Note_on_c, 1, 69, 64
6, 296396, Note_on_c, 1, 69, 0
6, 296400, Note_on_c, 1, 69, 64
6, 296636, Note_on_c, 1, 69, 0
6, 296640, Note_on_c, 1, 69, 64
6, 296876, Note_on_c, 1, 69, 0
6, 296880, Note_on_c, 1, 64, 64
6, 296996, Note_on_c, 1, 64, 0
6, 297000, Note_on_c, 1, 66, 64
6, 297116, Note_on_c, 1, 66, 0
6, 297120, Note_on_c, 1, 67, 64
6, 297356, Note_on_c, 1, 67, 0
6, 297360, Note_on_c, 1, 57, 64
6, 297596, Note_on_c, 1, 57, 0
6, 297600, Note_on_c, 1, 64, 64
6, 297836, Note_on_c, 1, 64, 0
6, 297840, Note_on_c, 1, 67, 64
6, 298076, Note_on_c, 1, 67, 0
6, 298080, Note_on_c, 1, 66, 64
6, 299516, Note_on_c, 1, 66, 0
6, 299520, Note_on_c, 1, 67, 64
6, 299756, Note_on_c, 1, 67, 0
6, 299760, Note_on_c, 1, 71, 64
6, 299996, Note_on_c, 1, 71, 0
6, 300000, Note_on_c, 1, 74, 64
6, 300236, Note_on_c, 1, 74, 0
6, 300240, Note_on_c, 1, 66, 64
6, 300476, Note_on_c, 1, 66, 0
6, 300480, Note_on_c, 1, 69, 64
6, 300716, Note_on_c, 1, 69, 0
6, 300720, Note_on_c, 1, 74, 64
6, 300956, Note_on_c, 1, 74, 0
6, 300960, Note_on_c, 1, 67, 64
6, 301196, Note_on_c, 1, 67, 0
6, 301200, Note_on_c, 1, 71, 64
6, 301436, Note_on_c, 1, 71, 0
6, 301440, Note_on_c, 1, 74, 64
6, 301676, Note_on_c, 1, 74, 0
6, 301680, Note_on_c, 1, 62, 64
6, 301916, Note_on_c, 1, 62, 0
6, 301920, Note_on_c, 1, 69, 64
6, 302156, Note_on_c, 1, 69, 0
6, 302160, Note_on_c, 1, 74, 64
6, 302396, Note_on_c, 1, 74, 0
6, 302400, Note_on_c, 1, 67, 64
6, 302516, Note_on_c, 1, 67, 0
6, 302520, Note_on_c, 1, 66, 64
6, 302636, Note_on_c, 1, 66, 0
6, 302640, Note_on_c, 1, 67, 64
6, 302756, Note_on_c, 1, 67, 0
6, 302760, Note_on_c, 1, 69, 64
6, 302876, Note_on_c, 1, 69, 0
6, 302880, Note_on_c, 1, 71, 64
6, 302996, Note_on_c, 1, 71, 0
6, 303000, Note_on_c, 1, 72, 64
6, 303116, Note_on_c, 1, 72, 0
6, 303120, Note_on_c, 1, 74, 64
6, 303236, Note_on_c, 1, 74, 0
6, 303240, Note_on_c, 1, 76, 64
6, 303356, Note_on_c, 1, 76, 0
6, 303360, Note_on_c, 1, 74, 64
6, 303476, Note_on_c, 1, 74, 0
6, 303480, Note_on_c, 1, 72, 64
6, 303596, Note_on_c, 1, 72, 0
6, 303600, Note_on_c, 1, 71, 64
6, 303716, Note_on_c, 1, 71, 0
6, 303720, Note_on_c, 1, 69, 64
6, 303836, Note_on_c, 1, 69, 0
6, 303840, Note_on_c, 1, 67, 64
6, 304076, Note_on_c, 1, 67, 0
6, 304080, Note_on_c, 1, 71, 64
6, 304316, Note_on_c, 1, 71, 0
6, 304320, Note_on_c, 1, 62, 64
6, 304556, Note_on_c, 1, 62, 0
6, 304560, Note_on_c, 1, 69, 64
6, 304796, Note_on_c, 1, 69, 0
6, 304800, Note_on_c, 1, 72, 64
6, 305036, Note_on_c, 1, 72, 0
6, 305040, Note_on_c, 1, 62, 64
6, 305276, Note_on_c, 1, 62, 0
6, 305280, Note_on_c, 1, 71, 64
6, 305516, Note_on_c, 1, 71, 0
6, 305520, Note_on_c, 1, 71, 64
6, 305756, Note_on_c, 1, 71, 0
6, 305760, Note_on_c, 1, 71, 64
6, 305996, Note_on_c, 1, 71, 0
6, 306000, Note_on_c, 1, 71, 64
6, 306236, Note_on_c, 1, 71, 0
6, 306240, Note_on_c, 1, 71, 64
6, 306476, Note_on_c, 1, 71, 0
6, 306480, Note_on_c, 1, 71, 64
6, 306716, Note_on_c, 1, 71, 0
6, 306720, Note_on_c, 1, 69, 64
6, 306956, Note_on_c, 1, 69, 0
6, 306960, Note_on_c, 1, 69, 64
6, 307196, Note_on_c, 1, 69, 0
6, 307200, Note_on_c, 1, 69, 64
6, 307436, Note_on_c, 1, 69, 0
6, 307440, Note_on_c, 1, 69, 64
6, 307676, Note_on_c, 1, 69, 0
6, 307680, Note_on_c, 1, 69, 64
6, 307916, Note_on_c, 1, 69, 0
6, 307920, Note_on_c, 1, 69, 64
6, 308156, Note_on_c, 1, 69, 0
6, 308160, Note_on_c, 1, 67, 64
6, 308396, Note_on_c, 1, 67, 0
6, 308400, Note_on_c, 1, 67, 64
6, 308636, Note_on_c, 1, 67, 0
6, 308640, Note_on_c, 1, 67, 64
6, 308876, Note_on_c, 1, 67, 0
6, 308880, Note_on_c, 1, 67, 64
6, 309116, Note_on_c, 1, 67, 0
6, 309120, Note_on_c, 1, 67, 64
6, 309356, Note_on_c, 1, 67, 0
6, 309360, Note_on_c, 1, 67, 64
6, 309596, Note_on_c, 1, 67, 0
6, 309600, Note_on_c, 1, 66, 64
6, 309836, Note_on_c, 1, 66, 0
6, 309840, Note_on_c, 1, 69, 64
6, 310076, Note_on_c, 1, 69, 0
6, 310080, Note_on_c, 1, 74, 64
6, 310316, Note_on_c, 1, 74, 0
6, 310320, Note_on_c, 1, 64, 64
6, 310556, Note_on_c, 1, 64, 0
6, 310560, Note_on_c, 1, 67, 64
6, 310796, Note_on_c, 1, 67, 0
6, 310800, Note_on_c, 1, 73, 64
6, 311036, Note_on_c, 1, 73, 0
6, 311040, Note_on_c, 1, 62, 64
6, 311156, Note_on_c, 1, 62, 0
6, 311160, Note_on_c, 1, 61, 64
6, 311276, Note_on_c, 1, 61, 0
6, 311280, Note_on_c, 1, 62, 64
6, 311396, Note_on_c, 1, 62, 0
6, 311400, Note_on_c, 1, 64, 64
6, 311516, Note_on_c, 1, 64, 0
6, 311520, Note_on_c, 1, 66, 64
6, 311636, Note_on_c, 1, 66, 0
6, 311640, Note_on_c, 1, 67, 64
6, 311756, Note_on_c, 1, 67, 0
6, 311760, Note_on_c, 1, 69, 64
6, 311876, Note_on_c, 1, 69, 0
6, 311880, Note_on_c, 1, 71, 64
6, 311996, Note_on_c, 1, 71, 0
6, 312000, Note_on_c, 1, 69, 64
6, 312116, Note_on_c, 1, 69, 0
6, 312120, Note_on_c, 1, 67, 64
6, 312236, Note_on_c, 1, 67, 0
6, 312240, Note_on_c, 1, 66, 64
6, 312356, Note_on_c, 1, 66, 0
6, 312360, Note_on_c, 1, 64, 64
6, 312476, Note_on_c, 1, 64, 0
6, 312480, Note_on_c, 1, 66, 64
6, 312716, Note_on_c, 1, 66, 0
6, 312720, Note_on_c, 1, 69, 64
6, 312956, Note_on_c, 1, 69, 0
6, 312960, Note_on_c, 1, 74, 64
6, 313196, Note_on_c, 1, 74, 0
6, 313200, Note_on_c, 1, 73, 64
6, 313316, Note_on_c, 1, 73, 0
6, 313320, Note_on_c, 1, 74, 64
6, 313436, Note_on_c, 1, 74, 0
6, 313440, Note_on_c, 1, 73, 64
6, 313556, Note_on_c, 1, 73, 0
6, 313560, Note_on_c, 1, 71, 64
6, 313676, Note_on_c, 1, 71, 0
6, 313680, Note_on_c, 1, 69, 64
6, 313796, Note_on_c, 1, 69, 0
6, 313800, Note_on_c, 1, 67, 64
6, 313916, Note_on_c, 1, 67, 0
6, 313920, Note_on_c, 1, 66, 64
6, 314156, Note_on_c, 1, 66, 0
6, 314160, Note_on_c, 1, 62, 64
6, 314396, Note_on_c, 1, 62, 0
6, 314400, Note_on_c, 1, 69, 64
6, 314636, Note_on_c, 1, 69, 0
6, 314640, Note_on_c, 1, 69, 64
6, 314876, Note_on_c, 1, 69, 0
6, 314880, Note_on_c, 1, 69, 64
6, 315116, Note_on_c, 1, 69, 0
6, 315120, Note_on_c, 1, 69, 64
6, 315356, Note_on_c, 1, 69, 0
6, 315360, Note_on_c, 1, 69, 64
6, 315476, Note_on_c, 1, 69, 0
6, 315480, Note_on_c, 1, 67, 64
6, 315596, Note_on_c, 1, 67, 0
6, 315600, Note_on_c, 1, 66, 64
6, 315716, Note_on_c, 1, 66, 0
6, 315720, Note_on_c, 1, 64, 64
6, 315836, Note_on_c, 1, 64, 0
6, 315840, Note_on_c, 1, 62, 64
6, 315956, Note_on_c, 1, 62, 0
6, 315960, Note_on_c, 1, 61, 64
6, 316076, Note_on_c, 1, 61, 0
6, 316080, Note_on_c, 1, 59, 64
6, 316196, Note_on_c, 1, 59, 0
6, 316200, Note_on_c, 1, 57, 64
6, 316316, Note_on_c, 1, 57, 0
6, 316320, Note_on_c, 1, 59, 64
6, 316436, Note_on_c, 1, 59, 0
6, 316440, Note_on_c, 1, 61, 64
6, 316556, Note_on_c, 1, 61, 0
6, 316560, Note_on_c, 1, 62, 64
6, 316676, Note_on_c, 1, 62, 0
6, 316680, Note_on_c, 1, 59, 64
6, 316796, Note_on_c, 1, 59, 0
6, 316800, Note_on_c, 1, 64, 64
6, 316916, Note_on_c, 1, 64, 0
6, 316920, Note_on_c, 1, 66, 64
6, 317036, Note_on_c, 1, 66, 0
6, 317040, Note_on_c, 1, 64, 64
6, 317156, Note_on_c, 1, 64, 0
6, 317160, Note_on_c, 1, 62, 64
6, 317276, Note_on_c, 1, 62, 0
6, 317280, Note_on_c, 1, 61, 64
6, 317396, Note_on_c, 1, 61, 0
6, 317400, Note_on_c, 1, 59, 64
6, 317516, Note_on_c, 1, 59, 0
6, 317520, Note_on_c, 1, 57, 64
6, 317636, Note_on_c, 1, 57, 0
6, 317640, Note_on_c, 1, 56, 64
6, 317756, Note_on_c, 1, 56, 0
6, 317760, Note_on_c, 1, 57, 64
6, 317876, Note_on_c, 1, 57, 0
6, 317880, Note_on_c, 1, 59, 64
6, 317996, Note_on_c, 1, 59, 0
6, 318000, Note_on_c, 1, 61, 64
6, 318116, Note_on_c, 1, 61, 0
6, 318120, Note_on_c, 1, 57, 64
6, 318236, Note_on_c, 1, 57, 0
6, 318240, Note_on_c, 1, 62, 64
6, 318356, Note_on_c, 1, 62, 0
6, 318360, Note_on_c, 1, 64, 64
6, 318476, Note_on_c, 1, 64, 0
6, 318480, Note_on_c, 1, 62, 64
6, 318596, Note_on_c, 1, 62, 0
6, 318600, Note_on_c, 1, 61, 64
6, 318716, Note_on_c, 1, 61, 0
6, 318720, Note_on_c, 1, 59, 64
6, 318836, Note_on_c, 1, 59, 0
6, 318840, Note_on_c, 1, 57, 64
6, 318956, Note_on_c, 1, 57, 0
6, 318960, Note_on_c, 1, 56, 64
6, 319076, Note_on_c, 1, 56, 0
6, 319080, Note_on_c, 1, 54, 64
6, 319196, Note_on_c, 1, 54, 0
6, 319200, Note_on_c, 1, 56, 64
6, 319316, Note_on_c, 1, 56, 0
6, 319320, Note_on_c, 1, 57, 64
6, 319436, Note_on_c, 1, 57, 0
6, 319440, Note_on_c, 1, 59, 64
6, 319556, Note_on_c, 1, 59, 0
6, 319560, Note_on_c, 1, 56, 64
6, 319676, Note_on_c, 1, 56, 0
6, 319680, Note_on_c, 1, 64, 64
6, 319916, Note_on_c, 1, 64, 0
6, 319920, Note_on_c, 1, 61, 64
6, 320156, Note_on_c, 1, 61, 0
6, 320160, Note_on_c, 1, 57, 64
6, 320396, Note_on_c, 1, 57, 0
6, 320400, Note_on_c, 1, 66, 64
6, 320636, Note_on_c, 1, 66, 0
6, 320640, Note_on_c, 1, 62, 64
6, 320876, Note_on_c, 1, 62, 0
6, 320880, Note_on_c, 1, 57, 64
6, 321116, Note_on_c, 1, 57, 0
6, 321120, Note_on_c, 1, 64, 64
6, 321356, Note_on_c, 1, 64, 0
6, 321360, Note_on_c, 1, 61, 64
6, 321596, Note_on_c, 1, 61, 0
6, 321600, Note_on_c, 1, 57, 64
6, 321836, Note_on_c, 1, 57, 0
6, 321840, Note_on_c, 1, 62, 64
6, 322076, Note_on_c, 1, 62, 0
6, 322080, Note_on_c, 1, 57, 64
6, 322316, Note_on_c, 1, 57, 0
6, 322320, Note_on_c, 1, 54, 64
6, 322556, Note_on_c, 1, 54, 0
6, 322560, Note_on_c, 1, 61, 64
6, 323036, Note_on_c, 1, 61, 0
6, 323040, Note_on_c, 1, 69, 64
6, 323276, Note_on_c, 1, 69, 0
6, 323280, Note_on_c, 1, 62, 64
6, 323756, Note_on_c, 1, 62, 0
6, 323760, Note_on_c, 1, 69, 64
6, 323996, Note_on_c, 1, 69, 0
6, 324000, Note_on_c, 1, 61, 64
6, 324116, Note_on_c, 1, 61, 0
6, 324120, Note_on_c, 1, 64, 64
6, 324236, Note_on_c, 1, 64, 0
6, 324240, Note_on_c, 1, 57, 64
6, 324356, Note_on_c, 1, 57, 0
6, 324360, Note_on_c, 1, 64, 64
6, 324476, Note_on_c, 1, 64, 0
6, 324480, Note_on_c, 1, 61, 64
6, 324596, Note_on_c, 1, 61, 0
6, 324600, Note_on_c, 1, 64, 64
6, 324716, Note_on_c, 1, 64, 0
6, 324720, Note_on_c, 1, 62, 64
6, 324836, Note_on_c, 1, 62, 0
6, 324840, Note_on_c, 1, 66, 64
6, 324956, Note_on_c, 1, 66, 0
6, 324960, Note_on_c, 1, 57, 64
6, 325076, Note_on_c, 1, 57, 0
6, 325080, Note_on_c, 1, 66, 64
6, 325196, Note_on_c, 1, 66, 0
6, 325200, Note_on_c, 1, 62, 64
6, 325316, Note_on_c, 1, 62, 0
6, 325320, Note_on_c, 1, 66, 64
6, 325436, Note_on_c, 1, 66, 0
6, 325440, Note_on_c, 1, 64, 64
6, 325556, Note_on_c, 1, 64, 0
6, 325560, Note_on_c, 1, 67, 64
6, 325676, Note_on_c, 1, 67, 0
6, 325680, Note_on_c, 1, 57, 64
6, 325796, Note_on_c, 1, 57, 0
6, 325800, Note_on_c, 1, 67, 64
6, 325916, Note_on_c, 1, 67, 0
6, 325920, Note_on_c, 1, 64, 64
6, 326036, Note_on_c, 1, 64, 0
6, 326040, Note_on_c, 1, 67, 64
6, 326156, Note_on_c, 1, 67, 0
6, 326160, Note_on_c, 1, 64, 64
6, 326276, Note_on_c, 1, 64, 0
6, 326280, Note_on_c, 1, 67, 64
6, 326396, Note_on_c, 1, 67, 0
6, 326400, Note_on_c, 1, 57, 64
6, 326516, Note_on_c, 1, 57, 0
6, 326520, Note_on_c, 1, 67, 64
6, 326636, Note_on_c, 1, 67, 0
6, 326640, Note_on_c, 1, 64, 64
6, 326756, Note_on_c, 1, 64, 0
6, 326760, Note_on_c, 1, 67, 64
6, 326876, Note_on_c, 1, 67, 0
6, 326880, Note_on_c, 1, 66, 64
6, 327116, Note_on_c, 1, 66, 0
6, 327120, Note_on_c, 1, 62, 64
6, 327356, Note_on_c, 1, 62, 0
6, 327360, Note_on_c, 1, 62, 64
6, 327596, Note_on_c, 1, 62, 0
6, 327600, Note_on_c, 1, 62, 64
6, 327836, Note_on_c, 1, 62, 0
6, 327840, Note_on_c, 1, 62, 64
6, 328076, Note_on_c, 1, 62, 0
6, 328080, Note_on_c, 1, 62, 64
6, 328316, Note_on_c, 1, 62, 0
6, 328320, Note_on_c, 1, 62, 64
6, 328556, Note_on_c, 1, 62, 0
6, 328560, Note_on_c, 1, 62, 64
6, 328796, Note_on_c, 1, 62, 0
6, 328800, Note_on_c, 1, 62, 64
6, 329036, Note_on_c, 1, 62, 0
6, 329040, Note_on_c, 1, 62, 64
6, 329276, Note_on_c, 1, 62, 0
6, 329280, Note_on_c, 1, 62, 64
6, 329516, Note_on_c, 1, 62, 0
6, 329520, Note_on_c, 1, 62, 64
6, 329756, Note_on_c, 1, 62, 0
6, 329760, Note_on_c, 1, 69, 64
6, 329996, Note_on_c, 1, 69, 0
6, 330000, Note_on_c, 1, 69, 64
6, 330236, Note_on_c, 1, 69, 0
6, 330240, Note_on_c, 1, 69, 64
6, 330476, Note_on_c, 1, 69, 0
6, 330480, Note_on_c, 1, 69, 64
6, 330716, Note_on_c, 1, 69, 0
6, 330720, Note_on_c, 1, 69, 64
6, 330956, Note_on_c, 1, 69, 0
6, 330960, Note_on_c, 1, 69, 64
6, 331196, Note_on_c, 1, 69, 0
6, 331200, Note_on_c, 1, 69, 64
6, 331436, Note_on_c, 1, 69, 0
6, 331440, Note_on_c, 1, 64, 64
6, 331556, Note_on_c, 1, 64, 0
6, 331560, Note_on_c, 1, 66, 64
6, 331676, Note_on_c, 1, 66, 0
6, 331680, Note_on_c, 1, 67, 64
6, 331916, Note_on_c, 1, 67, 0
6, 331920, Note_on_c, 1, 57, 64
6, 332156, Note_on_c, 1, 57, 0
6, 332160, Note_on_c, 1, 64, 64
6, 332396, Note_on_c, 1, 64, 0
6, 332400, Note_on_c, 1, 67, 64
6, 332636, Note_on_c, 1, 67, 0
6, 332640, Note_on_c, 1, 66, 64
6, 334076, Note_on_c, 1, 66, 0
6, 334080, Note_on_c, 1, 69, 64
6, 334316, Note_on_c, 1, 69, 0
6, 334320, Note_on_c, 1, 69, 64
6, 334556, Note_on_c, 1, 69, 0
6, 334560, Note_on_c, 1, 69, 64
6, 334796, Note_on_c, 1, 69, 0
6, 334800, Note_on_c, 1, 69, 64
6, 335036, Note_on_c, 1, 69, 0
6, 335040, Note_on_c, 1, 69, 64
6, 335276, Note_on_c, 1, 69, 0
6, 335280, Note_on_c, 1, 69, 64
6, 335516, Note_on_c, 1, 69, 0
6, 335520, Note_on_c, 1, 69, 64
6, 335756, Note_on_c, 1, 69, 0
6, 335760, Note_on_c, 1, 69, 64
6, 335996, Note_on_c, 1, 69, 0
6, 336000, Note_on_c, 1, 69, 64
6, 336236, Note_on_c, 1, 69, 0
6, 336240, Note_on_c, 1, 69, 64
6, 336476, Note_on_c, 1, 69, 0
6, 336480, Note_on_c, 1, 69, 64
6, 336716, Note_on_c, 1, 69, 0
6, 336720, Note_on_c, 1, 69, 64
6, 336956, Note_on_c, 1, 69, 0
6, 336960, Note_on_c, 1, 67, 64
6, 337076, Note_on_c, 1, 67, 0
6, 337080, Note_on_c, 1, 66, 64
6, 337196, Note_on_c, 1, 66, 0
6, 337200, Note_on_c, 1, 64, 64
6, 337316, Note_on_c, 1, 64, 0
6, 337320, Note_on_c, 1, 66, 64
6, 337436, Note_on_c, 1, 66, 0
6, 337440, Note_on_c, 1, 67, 64
6, 337556, Note_on_c, 1, 67, 0
6, 337560, Note_on_c, 1, 69, 64
6, 337676, Note_on_c, 1, 69, 0
6, 337680, Note_on_c, 1, 71, 64
6, 337796, Note_on_c, 1, 71, 0
6, 337800, Note_on_c, 1, 72, 64
6, 337916, Note_on_c, 1, 72, 0
6, 337920, Note_on_c, 1, 71, 64
6, 338036, Note_on_c, 1, 71, 0
6, 338040, Note_on_c, 1, 69, 64
6, 338156, Note_on_c, 1, 69, 0
6, 338160, Note_on_c, 1, 67, 64
6, 338276, Note_on_c, 1, 67, 0
6, 338280, Note_on_c, 1, 66, 64
6, 338396, Note_on_c, 1, 66, 0
6, 338400, Note_on_c, 1, 67, 64
6, 338516, Note_on_c, 1, 67, 0
6, 338520, Note_on_c, 1, 71, 64
6, 338636, Note_on_c, 1, 71, 0
6, 338640, Note_on_c, 1, 69, 64
6, 338756, Note_on_c, 1, 69, 0
6, 338760, Note_on_c, 1, 67, 64
6, 338876, Note_on_c, 1, 67, 0
6, 338880, Note_on_c, 1, 66, 64
6, 338996, Note_on_c, 1, 66, 0
6, 339000, Note_on_c, 1, 64, 64
6, 339116, Note_on_c, 1, 64, 0
6, 339120, Note_on_c, 1, 63, 64
6, 339236, Note_on_c, 1, 63, 0
6, 339240, Note_on_c, 1, 64, 64
6, 339356, Note_on_c, 1, 64, 0
6, 339360, Note_on_c, 1, 63, 64
6, 339476, Note_on_c, 1, 63, 0
6, 339480, Note_on_c, 1, 61, 64
6, 339596, Note_on_c, 1, 61, 0
6, 339600, Note_on_c, 1, 59, 64
6, 339716, Note_on_c, 1, 59, 0
6, 339720, Note_on_c, 1, 57, 64
6, 339836, Note_on_c, 1, 57, 0
6, 339840, Note_on_c, 1, 55, 64
6, 340076, Note_on_c, 1, 55, 0
6, 340080, Note_on_c, 1, 64, 64
6, 340316, Note_on_c, 1, 64, 0
6, 340320, Note_on_c, 1, 64, 64
6, 340556, Note_on_c, 1, 64, 0
6, 340560, Note_on_c, 1, 64, 64
6, 340796, Note_on_c, 1, 64, 0
6, 340800, Note_on_c, 1, 64, 64
6, 341036, Note_on_c, 1, 64, 0
6, 341040, Note_on_c, 1, 64, 64
6, 341276, Note_on_c, 1, 64, 0
6, 341280, Note_on_c, 1, 64, 64
6, 341516, Note_on_c, 1, 64, 0
6, 341520, Note_on_c, 1, 64, 64
6, 341756, Note_on_c, 1, 64, 0
6, 341760, Note_on_c, 1, 64, 64
6, 341996, Note_on_c, 1, 64, 0
6, 342000, Note_on_c, 1, 64, 64
6, 342236, Note_on_c, 1, 64, 0
6, 342240, Note_on_c, 1, 64, 64
6, 342476, Note_on_c, 1, 64, 0
6, 342480, Note_on_c, 1, 64, 64
6, 342716, Note_on_c, 1, 64, 0
6, 342720, Note_on_c, 1, 64, 64
6, 342956, Note_on_c, 1, 64, 0
6, 342960, Note_on_c, 1, 64, 64
6, 343196, Note_on_c, 1, 64, 0
6, 343200, Note_on_c, 1, 64, 64
6, 343436, Note_on_c, 1, 64, 0
6, 343440, Note_on_c, 1, 64, 64
6, 343676, Note_on_c, 1, 64, 0
6, 343680, Note_on_c, 1, 64, 64
6, 343916, Note_on_c, 1, 64, 0
6, 343920, Note_on_c, 1, 64, 64
6, 344156, Note_on_c, 1, 64, 0
6, 344160, Note_on_c, 1, 67, 64
6, 344396, Note_on_c, 1, 67, 0
6, 344400, Note_on_c, 1, 71, 64
6, 344636, Note_on_c, 1, 71, 0
6, 344640, Note_on_c, 1, 66, 64
6, 344876, Note_on_c, 1, 66, 0
6, 344880, Note_on_c, 1, 67, 64
6, 345356, Note_on_c, 1, 67, 0
6, 345600, Note_on_c, 1, 64, 64
6, 345836, Note_on_c, 1, 64, 0
6, 345840, Note_on_c, 1, 67, 64
6, 346076, Note_on_c, 1, 67, 0
6, 346080, Note_on_c, 1, 71, 64
6, 346316, Note_on_c, 1, 71, 0
6, 346320, Note_on_c, 1, 63, 64
6, 346556, Note_on_c, 1, 63, 0
6, 346560, Note_on_c, 1, 66, 64
6, 346796, Note_on_c, 1, 66, 0
6, 346800, Note_on_c, 1, 71, 64
6, 347036, Note_on_c, 1, 71, 0
6, 347040, Note_on_c, 1, 64, 64
6, 347276, Note_on_c, 1, 64, 0
6, 347280, Note_on_c, 1, 67, 64
6, 347516, Note_on_c, 1, 67, 0
6, 347520, Note_on_c, 1, 71, 64
6, 347756, Note_on_c, 1, 71, 0
6, 347760, Note_on_c, 1, 59, 64
6, 347996, Note_on_c, 1, 59, 0
6, 348000, Note_on_c, 1, 66, 64
6, 348236, Note_on_c, 1, 66, 0
6, 348240, Note_on_c, 1, 71, 64
6, 348476, Note_on_c, 1, 71, 0
6, 348480, Note_on_c, 1, 64, 64
6, 348596, Note_on_c, 1, 64, 0
6, 348600, Note_on_c, 1, 63, 64
6, 348716, Note_on_c, 1, 63, 0
6, 348720, Note_on_c, 1, 64, 64
6, 348836, Note_on_c, 1, 64, 0
6, 348840, Note_on_c, 1, 66, 64
6, 348956, Note_on_c, 1, 66, 0
6, 348960, Note_on_c, 1, 67, 64
6, 349076, Note_on_c, 1, 67, 0
6, 349080, Note_on_c, 1, 69, 64
6, 349196, Note_on_c, 1, 69, 0
6, 349200, Note_on_c, 1, 71, 64
6, 349316, Note_on_c, 1, 71, 0
6, 349320, Note_on_c, 1, 72, 64
6, 349436, Note_on_c, 1, 72, 0
6, 349440, Note_on_c, 1, 71, 64
6, 349556, Note_on_c, 1, 71, 0
6, 349560, Note_on_c, 1, 69, 64
6, 349676, Note_on_c, 1, 69, 0
6, 349680, Note_on_c, 1, 67, 64
6, 349796, Note_on_c, 1, 67, 0
6, 349800, Note_on_c, 1, 66, 64
6, 349916, Note_on_c, 1, 66, 0
6, 349920, Note_on_c, 1, 64, 64
6, 350156, Note_on_c, 1, 64, 0
6, 350160, Note_on_c, 1, 67, 64
6, 350396, Note_on_c, 1, 67, 0
6, 350400, Note_on_c, 1, 59, 64
6, 350636, Note_on_c, 1, 59, 0
6, 350640, Note_on_c, 1, 66, 64
6, 350876, Note_on_c, 1, 66, 0
6, 350880, Note_on_c, 1, 69, 64
6, 351116, Note_on_c, 1, 69, 0
6, 351120, Note_on_c, 1, 59, 64
6, 351356, Note_on_c, 1, 59, 0
6, 351360, Note_on_c, 1, 67, 64
6, 351596, Note_on_c, 1, 67, 0
6, 351600, Note_on_c, 1, 67, 64
6, 351836, Note_on_c, 1, 67, 0
6, 351840, Note_on_c, 1, 67, 64
6, 352076, Note_on_c, 1, 67, 0
6, 352080, Note_on_c, 1, 67, 64
6, 352316, Note_on_c, 1, 67, 0
6, 352320, Note_on_c, 1, 67, 64
6, 352556, Note_on_c, 1, 67, 0
6, 352560, Note_on_c, 1, 67, 64
6, 352796, Note_on_c, 1, 67, 0
6, 352800, Note_on_c, 1, 66, 64
6, 353036, Note_on_c, 1, 66, 0
6, 353040, Note_on_c, 1, 66, 64
6, 353276, Note_on_c, 1, 66, 0
6, 353280, Note_on_c, 1, 66, 64
6, 353516, Note_on_c, 1, 66, 0
6, 353520, Note_on_c, 1, 66, 64
6, 353756, Note_on_c, 1, 66, 0
6, 353760, Note_on_c, 1, 66, 64
6, 353996, Note_on_c, 1, 66, 0
6, 354000, Note_on_c, 1, 66, 64
6, 354236, Note_on_c, 1, 66, 0
6, 354240, Note_on_c, 1, 64, 64
6, 354476, Note_on_c, 1, 64, 0
6, 354480, Note_on_c, 1, 64, 64
6, 354716, Note_on_c, 1, 64, 0
6, 354720, Note_on_c, 1, 64, 64
6, 354956, Note_on_c, 1, 64, 0
6, 354960, Note_on_c, 1, 64, 64
6, 355196, Note_on_c, 1, 64, 0
6, 355200, Note_on_c, 1, 64, 64
6, 355436, Note_on_c, 1, 64, 0
6, 355440, Note_on_c, 1, 64, 64
6, 355676, Note_on_c, 1, 64, 0
6, 355680, Note_on_c, 1, 62, 64
6, 355916, Note_on_c, 1, 62, 0
6, 355920, Note_on_c, 1, 66, 64
6, 356156, Note_on_c, 1, 66, 0
6, 356160, Note_on_c, 1, 71, 64
6, 356396, Note_on_c, 1, 71, 0
6, 356400, Note_on_c, 1, 61, 64
6, 356636, Note_on_c, 1, 61, 0
6, 356640, Note_on_c, 1, 64, 64
6, 356876, Note_on_c, 1, 64, 0
6, 356880, Note_on_c, 1, 70, 64
6, 357116, Note_on_c, 1, 70, 0
6, 357120, Note_on_c, 1, 59, 64
6, 357236, Note_on_c, 1, 59, 0
6, 357240, Note_on_c, 1, 58, 64
6, 357356, Note_on_c, 1, 58, 0
6, 357360, Note_on_c, 1, 59, 64
6, 357476, Note_on_c, 1, 59, 0
6, 357480, Note_on_c, 1, 61, 64
6, 357596, Note_on_c, 1, 61, 0
6, 357600, Note_on_c, 1, 62, 64
6, 357716, Note_on_c, 1, 62, 0
6, 357720, Note_on_c, 1, 64, 64
6, 357836, Note_on_c, 1, 64, 0
6, 357840, Note_on_c, 1, 66, 64
6, 357956, Note_on_c, 1, 66, 0
6, 357960, Note_on_c, 1, 67, 64
6, 358076, Note_on_c, 1, 67, 0
6, 358080, Note_on_c, 1, 66, 64
6, 358196, Note_on_c, 1, 66, 0
6, 358200, Note_on_c, 1, 64, 64
6, 358316, Note_on_c, 1, 64, 0
6, 358320, Note_on_c, 1, 62, 64
6, 358436, Note_on_c, 1, 62, 0
6, 358440, Note_on_c, 1, 61, 64
6, 358556, Note_on_c, 1, 61, 0
6, 358560, Note_on_c, 1, 62, 64
6, 358796, Note_on_c, 1, 62, 0
6, 358800, Note_on_c, 1, 66, 64
6, 359036, Note_on_c, 1, 66, 0
6, 359040, Note_on_c, 1, 71, 64
6, 359276, Note_on_c, 1, 71, 0
6, 359280, Note_on_c, 1, 70, 64
6, 359396, Note_on_c, 1, 70, 0
6, 359400, Note_on_c, 1, 71, 64
6, 359516, Note_on_c, 1, 71, 0
6, 359520, Note_on_c, 1, 70, 64
6, 359636, Note_on_c, 1, 70, 0
6, 359640, Note_on_c, 1, 68, 64
6, 359756, Note_on_c, 1, 68, 0
6, 359760, Note_on_c, 1, 66, 64
6, 359876, Note_on_c, 1, 66, 0
6, 359880, Note_on_c, 1, 64, 64
6, 359996, Note_on_c, 1, 64, 0
6, 360000, Note_on_c, 1, 62, 64
6, 360236, Note_on_c, 1, 62, 0
6, 360240, Note_on_c, 1, 59, 64
6, 360476, Note_on_c, 1, 59, 0
6, 360480, Note_on_c, 1, 66, 64
6, 360716, Note_on_c, 1, 66, 0
6, 360720, Note_on_c, 1, 66, 64
6, 360956, Note_on_c, 1, 66, 0
6, 360960, Note_on_c, 1, 66, 64
6, 361196, Note_on_c, 1, 66, 0
6, 361200, Note_on_c, 1, 66, 64
6, 361436, Note_on_c, 1, 66, 0
6, 361440, Note_on_c, 1, 66, 64
6, 361676, Note_on_c, 1, 66, 0
6, 361680, Note_on_c, 1, 71, 64
6, 361916, Note_on_c, 1, 71, 0
6, 361920, Note_on_c, 1, 66, 64
6, 362156, Note_on_c, 1, 66, 0
6, 362160, Note_on_c, 1, 67, 64
6, 362276, Note_on_c, 1, 67, 0
6, 362280, Note_on_c, 1, 69, 64
6, 362396, Note_on_c, 1, 69, 0
6, 362400, Note_on_c, 1, 67, 64
6, 362516, Note_on_c, 1, 67, 0
6, 362520, Note_on_c, 1, 66, 64
6, 362636, Note_on_c, 1, 66, 0
6, 362640, Note_on_c, 1, 64, 64
6, 362756, Note_on_c, 1, 64, 0
6, 362760, Note_on_c, 1, 62, 64
6, 362876, Note_on_c, 1, 62, 0
6, 362880, Note_on_c, 1, 64, 64
6, 363116, Note_on_c, 1, 64, 0
6, 363120, Note_on_c, 1, 69, 64
6, 363356, Note_on_c, 1, 69, 0
6, 363360, Note_on_c, 1, 64, 64
6, 363596, Note_on_c, 1, 64, 0
6, 363600, Note_on_c, 1, 66, 64
6, 363716, Note_on_c, 1, 66, 0
6, 363720, Note_on_c, 1, 67, 64
6, 363836, Note_on_c, 1, 67, 0
6, 363840, Note_on_c, 1, 66, 64
6, 363956, Note_on_c, 1, 66, 0
6, 363960, Note_on_c, 1, 64, 64
6, 364076, Note_on_c, 1, 64, 0
6, 364080, Note_on_c, 1, 62, 64
6, 364196, Note_on_c, 1, 62, 0
6, 364200, Note_on_c, 1, 61, 64
6, 364316, Note_on_c, 1, 61, 0
6, 364320, Note_on_c, 1, 62, 64
6, 364556, Note_on_c, 1, 62, 0
6, 364560, Note_on_c, 1, 67, 64
6, 364796, Note_on_c, 1, 67, 0
6, 364800, Note_on_c, 1, 62, 64
6, 365036, Note_on_c, 1, 62, 0
6, 365040, Note_on_c, 1, 64, 64
6, 365156, Note_on_c, 1, 64, 0
6, 365160, Note_on_c, 1, 66, 64
6, 365276, Note_on_c, 1, 66, 0
6, 365280, Note_on_c, 1, 64, 64
6, 365396, Note_on_c, 1, 64, 0
6, 365400, Note_on_c, 1, 62, 64
6, 365516, Note_on_c, 1, 62, 0
6, 365520, Note_on_c, 1, 61, 64
6, 365636, Note_on_c, 1, 61, 0
6, 365640, Note_on_c, 1, 59, 64
6, 365756, Note_on_c, 1, 59, 0
6, 365760, Note_on_c, 1, 61, 64
6, 365996, Note_on_c, 1, 61, 0
6, 366000, Note_on_c, 1, 58, 64
6, 366236, Note_on_c, 1, 58, 0
6, 366240, Note_on_c, 1, 54, 64
6, 366476, Note_on_c, 1, 54, 0
6, 366480, Note_on_c, 1, 62, 64
6, 366716, Note_on_c, 1, 62, 0
6, 366720, Note_on_c, 1, 59, 64
6, 366956, Note_on_c, 1, 59, 0
6, 366960, Note_on_c, 1, 54, 64
6, 367196, Note_on_c, 1, 54, 0
6, 367200, Note_on_c, 1, 61, 64
6, 367436, Note_on_c, 1, 61, 0
6, 367440, Note_on_c, 1, 58, 64
6, 367676, Note_on_c, 1, 58, 0
6, 367680, Note_on_c, 1, 54, 64
6, 367916, Note_on_c, 1, 54, 0
6, 367920, Note_on_c, 1, 62, 64
6, 368156, Note_on_c, 1, 62, 0
6, 368160, Note_on_c, 1, 54, 64
6, 368396, Note_on_c, 1, 54, 0
6, 368400, Note_on_c, 1, 50, 64
6, 368636, Note_on_c, 1, 50, 0
6, 368640, Note_on_c, 1, 58, 64
6, 369116, Note_on_c, 1, 58, 0
6, 369120, Note_on_c, 1, 66, 64
6, 369356, Note_on_c, 1, 66, 0
6, 369360, Note_on_c, 1, 62, 64
6, 369836, Note_on_c, 1, 62, 0
6, 369840, Note_on_c, 1, 71, 64
6, 370076, Note_on_c, 1, 71, 0
6, 370080, Note_on_c, 1, 70, 64
6, 370196, Note_on_c, 1, 70, 0
6, 370200, Note_on_c, 1, 73, 64
6, 370316, Note_on_c, 1, 73, 0
6, 370320, Note_on_c, 1, 66, 64
6, 370436, Note_on_c, 1, 66, 0
6, 370440, Note_on_c, 1, 73, 64
6, 370556, Note_on_c, 1, 73, 0
6, 370560, Note_on_c, 1, 70, 64
6, 370676, Note_on_c, 1, 70, 0
6, 370680, Note_on_c, 1, 73, 64
6, 370796, Note_on_c, 1, 73, 0
6, 370800, Note_on_c, 1, 71, 64
6, 370916, Note_on_c, 1, 71, 0
6, 370920, Note_on_c, 1, 74, 64
6, 371036, Note_on_c, 1, 74, 0
6, 371040, Note_on_c, 1, 66, 64
6, 371156, Note_on_c, 1, 66, 0
6, 371160, Note_on_c, 1, 74, 64
6, 371276, Note_on_c, 1, 74, 0
6, 371280, Note_on_c, 1, 71, 64
6, 371396, Note_on_c, 1, 71, 0
6, 371400, Note_on_c, 1, 74, 64
6, 371516, Note_on_c, 1, 74, 0
6, 371520, Note_on_c, 1, 73, 64
6, 371636, Note_on_c, 1, 73, 0
6, 371640, Note_on_c, 1, 76, 64
6, 371756, Note_on_c, 1, 76, 0
6, 371760, Note_on_c, 1, 66, 64
6, 371876, Note_on_c, 1, 66, 0
6, 371880, Note_on_c, 1, 76, 64
6, 371996, Note_on_c, 1, 76, 0
6, 372000, Note_on_c, 1, 73, 64
6, 372116, Note_on_c, 1, 73, 0
6, 372120, Note_on_c, 1, 76, 64
6, 372236, Note_on_c, 1, 76, 0
6, 372240, Note_on_c, 1, 73, 64
6, 372356, Note_on_c, 1, 73, 0
6, 372360, Note_on_c, 1, 76, 64
6, 372476, Note_on_c, 1, 76, 0
6, 372480, Note_on_c, 1, 66, 64
6, 372596, Note_on_c, 1, 66, 0
6, 372600, Note_on_c, 1, 76, 64
6, 372716, Note_on_c, 1, 76, 0
6, 372720, Note_on_c, 1, 73, 64
6, 372836, Note_on_c, 1, 73, 0
6, 372840, Note_on_c, 1, 76, 64
6, 372956, Note_on_c, 1, 76, 0
6, 372960, Note_on_c, 1, 75, 64
6, 373196, Note_on_c, 1, 75, 0
6, 373200, Note_on_c, 1, 59, 64
6, 373436, Note_on_c, 1, 59, 0
6, 373440, Note_on_c, 1, 59, 64
6, 373676, Note_on_c, 1, 59, 0
6, 373680, Note_on_c, 1, 59, 64
6, 373916, Note_on_c, 1, 59, 0
6, 373920, Note_on_c, 1, 59, 64
6, 374156, Note_on_c, 1, 59, 0
6, 374160, Note_on_c, 1, 59, 64
6, 374396, Note_on_c, 1, 59, 0
6, 374400, Note_on_c, 1, 59, 64
6, 374636, Note_on_c, 1, 59, 0
6, 374640, Note_on_c, 1, 59, 64
6, 374876, Note_on_c, 1, 59, 0
6, 374880, Note_on_c, 1, 59, 64
6, 375116, Note_on_c, 1, 59, 0
6, 375120, Note_on_c, 1, 59, 64
6, 375356, Note_on_c, 1, 59, 0
6, 375360, Note_on_c, 1, 59, 64
6, 375596, Note_on_c, 1, 59, 0
6, 375600, Note_on_c, 1, 59, 64
6, 375836, Note_on_c, 1, 59, 0
6, 375840, Note_on_c, 1, 66, 64
6, 376076, Note_on_c, 1, 66, 0
6, 376080, Note_on_c, 1, 66, 64
6, 376316, Note_on_c, 1, 66, 0
6, 376320, Note_on_c, 1, 66, 64
6, 376556, Note_on_c, 1, 66, 0
6, 376560, Note_on_c, 1, 66, 64
6, 376796, Note_on_c, 1, 66, 0
6, 376800, Note_on_c, 1, 66, 64
6, 377036, Note_on_c, 1, 66, 0
6, 377040, Note_on_c, 1, 66, 64
6, 377276, Note_on_c, 1, 66, 0
6, 377280, Note_on_c, 1, 66, 64
6, 377396, Note_on_c, 1, 66, 0
6, 377400, Note_on_c, 1, 64, 64
6, 377516, Note_on_c, 1, 64, 0
6, 377520, Note_on_c, 1, 62, 64
6, 377636, Note_on_c, 1, 62, 0
6, 377640, Note_on_c, 1, 64, 64
6, 377756, Note_on_c, 1, 64, 0
6, 377760, Note_on_c, 1, 66, 64
6, 377996, Note_on_c, 1, 66, 0
6, 378000, Note_on_c, 1, 54, 64
6, 378236, Note_on_c, 1, 54, 0
6, 378240, Note_on_c, 1, 61, 64
6, 378356, Note_on_c, 1, 61, 0
6, 378360, Note_on_c, 1, 62, 64
6, 378476, Note_on_c, 1, 62, 0
6, 378480, Note_on_c, 1, 64, 64
6, 378716, Note_on_c, 1, 64, 0
6, 378720, Note_on_c, 1, 62, 64
6, 380156, Note_on_c, 1, 62, 0
6, 380160, Note_on_c, 1, 66, 64
6, 380396, Note_on_c, 1, 66, 0
6, 380400, Note_on_c, 1, 66, 64
6, 380636, Note_on_c, 1, 66, 0
6, 380640, Note_on_c, 1, 66, 64
6, 380876, Note_on_c, 1, 66, 0
6, 380880, Note_on_c, 1, 66, 64
6, 381116, Note_on_c, 1, 66, 0
6, 381120, Note_on_c, 1, 66, 64
6, 381356, Note_on_c, 1, 66, 0
6, 381360, Note_on_c, 1, 66, 64
6, 381596, Note_on_c, 1, 66, 0
6, 381600, Note_on_c, 1, 66, 64
6, 381836, Note_on_c, 1, 66, 0
6, 381840, Note_on_c, 1, 64, 64
6, 382076, Note_on_c, 1, 64, 0
6, 382080, Note_on_c, 1, 63, 64
6, 382316, Note_on_c, 1, 63, 0
6, 382320, Note_on_c, 1, 64, 64
6, 382796, Note_on_c, 1, 64, 0
6, 383040, Note_on_c, 1, 74, 64
6, 383276, Note_on_c, 1, 74, 0
6, 383280, Note_on_c, 1, 74, 64
6, 383516, Note_on_c, 1, 74, 0
6, 383520, Note_on_c, 1, 74, 64
6, 383756, Note_on_c, 1, 74, 0
6, 383760, Note_on_c, 1, 74, 64
6, 383996, Note_on_c, 1, 74, 0
6, 384000, Note_on_c, 1, 74, 64
6, 384236, Note_on_c, 1, 74, 0
6, 384240, Note_on_c, 1, 74, 64
6, 384476, Note_on_c, 1, 74, 0
6, 384480, Note_on_c, 1, 74, 64
6, 384716, Note_on_c, 1, 74, 0
6, 384720, Note_on_c, 1, 78, 64
6, 384836, Note_on_c, 1, 78, 0
6, 384840, Note_on_c, 1, 76, 64
6, 384956, Note_on_c, 1, 76, 0
6, 384960, Note_on_c, 1, 74, 64
6, 385076, Note_on_c, 1, 74, 0
6, 385080, Note_on_c, 1, 72, 64
6, 385196, Note_on_c, 1, 72, 0
6, 385200, Note_on_c, 1, 71, 64
6, 385316, Note_on_c, 1, 71, 0
6, 385320, Note_on_c, 1, 72, 64
6, 385556, Note_on_c, 1, 72, 0
6, 385560, Note_on_c, 1, 69, 64
6, 385796, Note_on_c, 1, 69, 0
6, 386040, Note_on_c, 1, 62, 64
6, 386156, Note_on_c, 1, 62, 0
6, 386160, Note_on_c, 1, 65, 64
6, 386276, Note_on_c, 1, 65, 0
6, 386280, Note_on_c, 1, 69, 64
6, 386396, Note_on_c, 1, 69, 0
6, 386400, Note_on_c, 1, 65, 64
6, 386516, Note_on_c, 1, 65, 0
6, 386520, Note_on_c, 1, 62, 64
6, 386636, Note_on_c, 1, 62, 0
6, 386640, Note_on_c, 1, 71, 64
6, 386876, Note_on_c, 1, 71, 0
6, 386880, Note_on_c, 1, 71, 64
6, 387116, Note_on_c, 1, 71, 0
6, 387120, Note_on_c, 1, 71, 64
6, 387356, Note_on_c, 1, 71, 0
6, 387360, Note_on_c, 1, 71, 64
6, 387476, Note_on_c, 1, 71, 0
6, 387480, Note_on_c, 1, 60, 64
6, 387596, Note_on_c, 1, 60, 0
6, 387600, Note_on_c, 1, 64, 64
6, 387716, Note_on_c, 1, 64, 0
6, 387720, Note_on_c, 1, 67, 64
6, 387836, Note_on_c, 1, 67, 0
6, 387840, Note_on_c, 1, 64, 64
6, 387956, Note_on_c, 1, 64, 0
6, 387960, Note_on_c, 1, 60, 64
6, 388076, Note_on_c, 1, 60, 0
6, 388080, Note_on_c, 1, 69, 64
6, 388316, Note_on_c, 1, 69, 0
6, 388320, Note_on_c, 1, 69, 64
6, 388556, Note_on_c, 1, 69, 0
6, 388560, Note_on_c, 1, 69, 64
6, 388796, Note_on_c, 1, 69, 0
6, 388800, Note_on_c, 1, 59, 64
6, 389036, Note_on_c, 1, 59, 0
6, 389040, Note_on_c, 1, 62, 64
6, 389276, Note_on_c, 1, 62, 0
6, 389280, Note_on_c, 1, 67, 64
6, 389516, Note_on_c, 1, 67, 0
6, 389520, Note_on_c, 1, 60, 64
6, 389756, Note_on_c, 1, 60, 0
6, 389760, Note_on_c, 1, 64, 64
6, 389996, Note_on_c, 1, 64, 0
6, 390000, Note_on_c, 1, 67, 64
6, 390236, Note_on_c, 1, 67, 0
6, 390240, Note_on_c, 1, 59, 64
6, 390356, Note_on_c, 1, 59, 0
6, 390360, Note_on_c, 1, 62, 64
6, 390476, Note_on_c, 1, 62, 0
6, 390480, Note_on_c, 1, 55, 64
6, 390596, Note_on_c, 1, 55, 0
6, 390600, Note_on_c, 1, 62, 64
6, 390716, Note_on_c, 1, 62, 0
6, 390720, Note_on_c, 1, 59, 64
6, 390836, Note_on_c, 1, 59, 0
6, 390840, Note_on_c, 1, 62, 64
6, 390956, Note_on_c, 1, 62, 0
6, 390960, Note_on_c, 1, 60, 64
6, 391076, Note_on_c, 1, 60, 0
6, 391080, Note_on_c, 1, 64, 64
6, 391196, Note_on_c, 1, 64, 0
6, 391200, Note_on_c, 1, 55, 64
6, 391316, Note_on_c, 1, 55, 0
6, 391320, Note_on_c, 1, 64, 64
6, 391436, Note_on_c, 1, 64, 0
6, 391440, Note_on_c, 1, 60, 64
6, 391556, Note_on_c, 1, 60, 0
6, 391560, Note_on_c, 1, 64, 64
6, 391676, Note_on_c, 1, 64, 0
6, 391680, Note_on_c, 1, 62, 64
6, 391796, Note_on_c, 1, 62, 0
6, 391800, Note_on_c, 1, 65, 64
6, 391916, Note_on_c, 1, 65, 0
6, 391920, Note_on_c, 1, 55, 64
6, 392036, Note_on_c, 1, 55, 0
6, 392040, Note_on_c, 1, 65, 64
6, 392156, Note_on_c, 1, 65, 0
6, 392160, Note_on_c, 1, 62, 64
6, 392276, Note_on_c, 1, 62, 0
6, 392280, Note_on_c, 1, 65, 64
6, 392396, Note_on_c, 1, 65, 0
6, 392400, Note_on_c, 1, 64, 64
6, 392516, Note_on_c, 1, 64, 0
6, 392520, Note_on_c, 1, 67, 64
6, 392636, Note_on_c, 1, 67, 0
6, 392640, Note_on_c, 1, 55, 64
6, 392756, Note_on_c, 1, 55, 0
6, 392760, Note_on_c, 1, 67, 64
6, 392876, Note_on_c, 1, 67, 0
6, 392880, Note_on_c, 1, 64, 64
6, 392996, Note_on_c, 1, 64, 0
6, 393000, Note_on_c, 1, 67, 64
6, 393116, Note_on_c, 1, 67, 0
6, 393120, Note_on_c, 1, 65, 64
6, 393236, Note_on_c, 1, 65, 0
6, 393240, Note_on_c, 1, 59, 64
6, 393356, Note_on_c, 1, 59, 0
6, 393360, Note_on_c, 1, 65, 64
6, 393476, Note_on_c, 1, 65, 0
6, 393480, Note_on_c, 1, 59, 64
6, 393596, Note_on_c, 1, 59, 0
6, 393600, Note_on_c, 1, 65, 64
6, 393716, Note_on_c, 1, 65, 0
6, 393720, Note_on_c, 1, 59, 64
6, 393836, Note_on_c, 1, 59, 0
6, 393840, Note_on_c, 1, 64, 64
6, 393956, Note_on_c, 1, 64, 0
6, 393960, Note_on_c, 1, 60, 64
6, 394076, Note_on_c, 1, 60, 0
6, 394080, Note_on_c, 1, 64, 64
6, 394196, Note_on_c, 1, 64, 0
6, 394200, Note_on_c, 1, 60, 64
6, 394316, Note_on_c, 1, 60, 0
6, 394320, Note_on_c, 1, 64, 64
6, 394436, Note_on_c, 1, 64, 0
6, 394440, Note_on_c, 1, 60, 64
6, 394556, Note_on_c, 1, 60, 0
6, 394560, Note_on_c, 1, 57, 64
6, 394796, Note_on_c, 1, 57, 0
6, 394800, Note_on_c, 1, 60, 64
6, 395036, Note_on_c, 1, 60, 0
6, 395040, Note_on_c, 1, 63, 64
6, 395276, Note_on_c, 1, 63, 0
6, 395280, Note_on_c, 1, 60, 64
6, 395516, Note_on_c, 1, 60, 0
6, 395520, Note_on_c, 1, 63, 64
6, 395756, Note_on_c, 1, 63, 0
6, 395760, Note_on_c, 1, 69, 64
6, 395996, Note_on_c, 1, 69, 0
6, 396000, Note_on_c, 1, 67, 64
6, 396116, Note_on_c, 1, 67, 0
6, 396120, Note_on_c, 1, 71, 64
6, 396236, Note_on_c, 1, 71, 0
6, 396240, Note_on_c, 1, 62, 64
6, 396356, Note_on_c, 1, 62, 0
6, 396360, Note_on_c, 1, 71, 64
6, 396476, Note_on_c, 1, 71, 0
6, 396480, Note_on_c, 1, 67, 64
6, 396596, Note_on_c, 1, 67, 0
6, 396600, Note_on_c, 1, 66, 64
6, 396716, Note_on_c, 1, 66, 0
6, 396720, Note_on_c, 1, 67, 64
6, 396836, Note_on_c, 1, 67, 0
6, 396840, Note_on_c, 1, 71, 64
6, 396956, Note_on_c, 1, 71, 0
6, 396960, Note_on_c, 1, 62, 64
6, 397076, Note_on_c, 1, 62, 0
6, 397080, Note_on_c, 1, 71, 64
6, 397196, Note_on_c, 1, 71, 0
6, 397200, Note_on_c, 1, 67, 64
6, 397316, Note_on_c, 1, 67, 0
6, 397320, Note_on_c, 1, 71, 64
6, 397436, Note_on_c, 1, 71, 0
6, 397440, Note_on_c, 1, 67, 64
6, 397676, Note_on_c, 1, 67, 0
6, 397680, Note_on_c, 1, 72, 64
6, 397916, Note_on_c, 1, 72, 0
6, 397920, Note_on_c, 1, 76, 64
6, 398156, Note_on_c, 1, 76, 0
6, 398160, Note_on_c, 1, 69, 64
6, 398396, Note_on_c, 1, 69, 0
6, 398400, Note_on_c, 1, 72, 64
6, 398636, Note_on_c, 1, 72, 0
6, 398640, Note_on_c, 1, 76, 64
6, 398876, Note_on_c, 1, 76, 0
6, 398880, Note_on_c, 1, 67, 64
6, 399116, Note_on_c, 1, 67, 0
6, 399120, Note_on_c, 1, 72, 64
6, 399356, Note_on_c, 1, 72, 0
6, 399360, Note_on_c, 1, 76, 64
6, 399596, Note_on_c, 1, 76, 0
6, 399600, Note_on_c, 1, 65, 64
6, 399836, Note_on_c, 1, 65, 0
6, 399840, Note_on_c, 1, 72, 64
6, 400076, Note_on_c, 1, 72, 0
6, 400080, Note_on_c, 1, 76, 64
6, 400316, Note_on_c, 1, 76, 0
6, 400320, Note_on_c, 1, 67, 64
6, 400556, Note_on_c, 1, 67, 0
6, 400560, Note_on_c, 1, 72, 64
6, 400796, Note_on_c, 1, 72, 0
6, 400800, Note_on_c, 1, 76, 64
6, 401036, Note_on_c, 1, 76, 0
6, 401040, Note_on_c, 1, 69, 64
6, 401276, Note_on_c, 1, 69, 0
6, 401280, Note_on_c, 1, 72, 64
6, 401516, Note_on_c, 1, 72, 0
6, 401520, Note_on_c, 1, 76, 64
6, 401756, Note_on_c, 1, 76, 0
6, 401760, Note_on_c, 1, 67, 64
6, 401996, Note_on_c, 1, 67, 0
6, 402000, Note_on_c, 1, 72, 64
6, 402236, Note_on_c, 1, 72, 0
6, 402240, Note_on_c, 1, 71, 64
6, 402476, Note_on_c, 1, 71, 0
6, 402480, Note_on_c, 1, 72, 64
6, 402716, Note_on_c, 1, 72, 0
6, 402720, Note_on_c, 1, 55, 64
6, 402956, Note_on_c, 1, 55, 0
6, 402960, Note_on_c, 1, 55, 64
6, 403196, Note_on_c, 1, 55, 0
6, 403200, Note_on_c, 1, 55, 64
6, 403436, Note_on_c, 1, 55, 0
6, 403440, Note_on_c, 1, 55, 64
6, 403676, Note_on_c, 1, 55, 0
6, 403680, Note_on_c, 1, 55, 64
6, 403916, Note_on_c, 1, 55, 0
6, 403920, Note_on_c, 1, 55, 64
6, 404156, Note_on_c, 1, 55, 0
6, 404160, Note_on_c, 1, 55, 64
6, 404396, Note_on_c, 1, 55, 0
6, 404400, Note_on_c, 1, 55, 64
6, 404636, Note_on_c, 1, 55, 0
6, 404640, Note_on_c, 1, 60, 64
6, 404756, Note_on_c, 1, 60, 0
6, 404760, Note_on_c, 1, 59, 64
6, 404876, Note_on_c, 1, 59, 0
6, 404880, Note_on_c, 1, 60, 64
6, 404996, Note_on_c, 1, 60, 0
6, 405000, Note_on_c, 1, 62, 64
6, 405116, Note_on_c, 1, 62, 0
6, 405120, Note_on_c, 1, 64, 64
6, 405236, Note_on_c, 1, 64, 0
6, 405240, Note_on_c, 1, 65, 64
6, 405356, Note_on_c, 1, 65, 0
6, 405360, Note_on_c, 1, 67, 64
6, 405476, Note_on_c, 1, 67, 0
6, 405480, Note_on_c, 1, 69, 64
6, 405596, Note_on_c, 1, 69, 0
6, 405600, Note_on_c, 1, 67, 64
6, 405716, Note_on_c, 1, 67, 0
6, 405720, Note_on_c, 1, 65, 64
6, 405836, Note_on_c, 1, 65, 0
6, 405840, Note_on_c, 1, 64, 64
6, 405956, Note_on_c, 1, 64, 0
6, 405960, Note_on_c, 1, 62, 64
6, 406076, Note_on_c, 1, 62, 0
6, 406080, Note_on_c, 1, 64, 64
6, 406316, Note_on_c, 1, 64, 0
6, 406320, Note_on_c, 1, 67, 64
6, 406556, Note_on_c, 1, 67, 0
6, 406560, Note_on_c, 1, 72, 64
6, 406796, Note_on_c, 1, 72, 0
6, 406800, Note_on_c, 1, 71, 64
6, 406916, Note_on_c, 1, 71, 0
6, 406920, Note_on_c, 1, 72, 64
6, 407036, Note_on_c, 1, 72, 0
6, 407040, Note_on_c, 1, 71, 64
6, 407156, Note_on_c, 1, 71, 0
6, 407160, Note_on_c, 1, 69, 64
6, 407276, Note_on_c, 1, 69, 0
6, 407280, Note_on_c, 1, 67, 64
6, 407396, Note_on_c, 1, 67, 0
6, 407400, Note_on_c, 1, 65, 64
6, 407516, Note_on_c, 1, 65, 0
6, 407520, Note_on_c, 1, 64, 64
6, 407756, Note_on_c, 1, 64, 0
6, 407760, Note_on_c, 1, 60, 64
6, 407996, Note_on_c, 1, 60, 0
6, 408000, Note_on_c, 1, 67, 64
6, 408236, Note_on_c, 1, 67, 0
6, 408240, Note_on_c, 1, 67, 64
6, 408476, Note_on_c, 1, 67, 0
6, 408480, Note_on_c, 1, 67, 64
6, 408716, Note_on_c, 1, 67, 0
6, 408720, Note_on_c, 1, 67, 64
6, 408956, Note_on_c, 1, 67, 0
6, 408960, Note_on_c, 1, 64, 64
6, 409076, Note_on_c, 1, 64, 0
6, 409080, Note_on_c, 1, 65, 64
6, 409196, Note_on_c, 1, 65, 0
6, 409200, Note_on_c, 1, 64, 64
6, 409316, Note_on_c, 1, 64, 0
6, 409320, Note_on_c, 1, 62, 64
6, 409436, Note_on_c, 1, 62, 0
6, 409440, Note_on_c, 1, 60, 64
6, 409556, Note_on_c, 1, 60, 0
6, 409560, Note_on_c, 1, 59, 64
6, 409676, Note_on_c, 1, 59, 0
6, 409680, Note_on_c, 1, 57, 64
6, 409796, Note_on_c, 1, 57, 0
6, 409800, Note_on_c, 1, 55, 64
6, 409916, Note_on_c, 1, 55, 0
6, 409920, Note_on_c, 1, 57, 64
6, 410036, Note_on_c, 1, 57, 0
6, 410040, Note_on_c, 1, 59, 64
6, 410156, Note_on_c, 1, 59, 0
6, 410160, Note_on_c, 1, 60, 64
6, 410276, Note_on_c, 1, 60, 0
6, 410280, Note_on_c, 1, 57, 64
6, 410396, Note_on_c, 1, 57, 0
6, 410400, Note_on_c, 1, 62, 64
6, 410516, Note_on_c, 1, 62, 0
6, 410520, Note_on_c, 1, 64, 64
6, 410636, Note_on_c, 1, 64, 0
6, 410640, Note_on_c, 1, 62, 64
6, 410756, Note_on_c, 1, 62, 0
6, 410760, Note_on_c, 1, 60, 64
6, 410876, Note_on_c, 1, 60, 0
6, 410880, Note_on_c, 1, 59, 64
6, 410996, Note_on_c, 1, 59, 0
6, 411000, Note_on_c, 1, 57, 64
6, 411116, Note_on_c, 1, 57, 0
6, 411120, Note_on_c, 1, 55, 64
6, 411236, Note_on_c, 1, 55, 0
6, 411240, Note_on_c, 1, 54, 64
6, 411356, Note_on_c, 1, 54, 0
6, 411360, Note_on_c, 1, 55, 64
6, 411476, Note_on_c, 1, 55, 0
6, 411480, Note_on_c, 1, 57, 64
6, 411596, Note_on_c, 1, 57, 0
6, 411600, Note_on_c, 1, 59, 64
6, 411716, Note_on_c, 1, 59, 0
6, 411720, Note_on_c, 1, 55, 64
6, 411836, Note_on_c, 1, 55, 0
6, 411840, Note_on_c, 1, 60, 64
6, 411956, Note_on_c, 1, 60, 0
6, 411960, Note_on_c, 1, 62, 64
6, 412076, Note_on_c, 1, 62, 0
6, 412080, Note_on_c, 1, 60, 64
6, 412196, Note_on_c, 1, 60, 0
6, 412200, Note_on_c, 1, 59, 64
6, 412316, Note_on_c, 1, 59, 0
6, 412320, Note_on_c, 1, 57, 64
6, 412436, Note_on_c, 1, 57, 0
6, 412440, Note_on_c, 1, 55, 64
6, 412556, Note_on_c, 1, 55, 0
6, 412560, Note_on_c, 1, 54, 64
6, 412676, Note_on_c, 1, 54, 0
6, 412680, Note_on_c, 1, 52, 64
6, 412796, Note_on_c, 1, 52, 0
6, 412800, Note_on_c, 1, 54, 64
6, 412916, Note_on_c, 1, 54, 0
6, 412920, Note_on_c, 1, 55, 64
6, 413036, Note_on_c, 1, 55, 0
6, 413040, Note_on_c, 1, 57, 64
6, 413156, Note_on_c, 1, 57, 0
6, 413160, Note_on_c, 1, 54, 64
6, 413276, Note_on_c, 1, 54, 0
6, 413280, Note_on_c, 1, 67, 64
6, 413516, Note_on_c, 1, 67, 0
6, 413520, Note_on_c, 1, 71, 64
6, 413756, Note_on_c, 1, 71, 0
6, 413760, Note_on_c, 1, 74, 64
6, 413996, Note_on_c, 1, 74, 0
6, 414000, Note_on_c, 1, 66, 64
6, 414236, Note_on_c, 1, 66, 0
6, 414240, Note_on_c, 1, 69, 64
6, 414476, Note_on_c, 1, 69, 0
6, 414480, Note_on_c, 1, 74, 64
6, 414716, Note_on_c, 1, 74, 0
6, 414720, Note_on_c, 1, 67, 64
6, 414956, Note_on_c, 1, 67, 0
6, 414960, Note_on_c, 1, 71, 64
6, 415196, Note_on_c, 1, 71, 0
6, 415200, Note_on_c, 1, 74, 64
6, 415436, Note_on_c, 1, 74, 0
6, 415440, Note_on_c, 1, 62, 64
6, 415676, Note_on_c, 1, 62, 0
6, 415680, Note_on_c, 1, 69, 64
6, 415916, Note_on_c, 1, 69, 0
6, 415920, Note_on_c, 1, 74, 64
6, 416156, Note_on_c, 1, 74, 0
6, 416160, Note_on_c, 1, 55, 64
6, 416276, Note_on_c, 1, 55, 0
6, 416280, Note_on_c, 1, 54, 64
6, 416396, Note_on_c, 1, 54, 0
6, 416400, Note_on_c, 1, 55, 64
6, 416516, Note_on_c, 1, 55, 0
6, 416520, Note_on_c, 1, 57, 64
6, 416636, Note_on_c, 1, 57, 0
6, 416640, Note_on_c, 1, 59, 64
6, 416756, Note_on_c, 1, 59, 0
6, 416760, Note_on_c, 1, 60, 64
6, 416876, Note_on_c, 1, 60, 0
6, 416880, Note_on_c, 1, 62, 64
6, 416996, Note_on_c, 1, 62, 0
6, 417000, Note_on_c, 1, 64, 64
6, 417116, Note_on_c, 1, 64, 0
6, 417120, Note_on_c, 1, 62, 64
6, 417236, Note_on_c, 1, 62, 0
6, 417240, Note_on_c, 1, 60, 64
6, 417356, Note_on_c, 1, 60, 0
6, 417360, Note_on_c, 1, 59, 64
6, 417476, Note_on_c, 1, 59, 0
6, 417480, Note_on_c, 1, 57, 64
6, 417596, Note_on_c, 1, 57, 0
6, 417600, Note_on_c, 1, 55, 64
6, 417836, Note_on_c, 1, 55, 0
6, 417840, Note_on_c, 1, 59, 64
6, 418076, Note_on_c, 1, 59, 0
6, 418080, Note_on_c, 1, 62, 64
6, 418316, Note_on_c, 1, 62, 0
6, 418320, Note_on_c, 1, 69, 64
6, 418556, Note_on_c, 1, 69, 0
6, 418560, Note_on_c, 1, 72, 64
6, 418796, Note_on_c, 1, 72, 0
6, 418800, Note_on_c, 1, 62, 64
6, 419036, Note_on_c, 1, 62, 0
6, 419040, Note_on_c, 1, 71, 64
6, 419276, Note_on_c, 1, 71, 0
6, 419280, Note_on_c, 1, 71, 64
6, 419516, Note_on_c, 1, 71, 0
6, 419520, Note_on_c, 1, 71, 64
6, 419756, Note_on_c, 1, 71, 0
6, 419760, Note_on_c, 1, 71, 64
6, 419996, Note_on_c, 1, 71, 0
6, 420000, Note_on_c, 1, 71, 64
6, 420236, Note_on_c, 1, 71, 0
6, 420240, Note_on_c, 1, 71, 64
6, 420476, Note_on_c, 1, 71, 0
6, 420480, Note_on_c, 1, 69, 64
6, 420716, Note_on_c, 1, 69, 0
6, 420720, Note_on_c, 1, 69, 64
6, 420956, Note_on_c, 1, 69, 0
6, 420960, Note_on_c, 1, 69, 64
6, 421196, Note_on_c, 1, 69, 0
6, 421200, Note_on_c, 1, 69, 64
6, 421436, Note_on_c, 1, 69, 0
6, 421440, Note_on_c, 1, 69, 64
6, 421676, Note_on_c, 1, 69, 0
6, 421680, Note_on_c, 1, 69, 64
6, 421916, Note_on_c, 1, 69, 0
6, 421920, Note_on_c, 1, 67, 64
6, 422156, Note_on_c, 1, 67, 0
6, 422160, Note_on_c, 1, 67, 64
6, 422396, Note_on_c, 1, 67, 0
6, 422400, Note_on_c, 1, 67, 64
6, 422636, Note_on_c, 1, 67, 0
6, 422640, Note_on_c, 1, 67, 64
6, 422876, Note_on_c, 1, 67, 0
6, 422880, Note_on_c, 1, 67, 64
6, 423116, Note_on_c, 1, 67, 0
6, 423120, Note_on_c, 1, 67, 64
6, 423356, Note_on_c, 1, 67, 0
6, 423360, Note_on_c, 1, 66, 64
6, 423596, Note_on_c, 1, 66, 0
6, 423600, Note_on_c, 1, 69, 64
6, 423836, Note_on_c, 1, 69, 0
6, 423840, Note_on_c, 1, 74, 64
6, 424076, Note_on_c, 1, 74, 0
6, 424080, Note_on_c, 1, 67, 64
6, 424316, Note_on_c, 1, 67, 0
6, 424320, Note_on_c, 1, 71, 64
6, 424556, Note_on_c, 1, 71, 0
6, 424560, Note_on_c, 1, 74, 64
6, 424796, Note_on_c, 1, 74, 0
6, 424800, Note_on_c, 1, 66, 64
6, 424916, Note_on_c, 1, 66, 0
6, 424920, Note_on_c, 1, 69, 64
6, 425036, Note_on_c, 1, 69, 0
6, 425040, Note_on_c, 1, 62, 64
6, 425156, Note_on_c, 1, 62, 0
6, 425160, Note_on_c, 1, 69, 64
6, 425276, Note_on_c, 1, 69, 0
6, 425280, Note_on_c, 1, 66, 64
6, 425396, Note_on_c, 1, 66, 0
6, 425400, Note_on_c, 1, 69, 64
6, 425516, Note_on_c, 1, 69, 0
6, 425520, Note_on_c, 1, 67, 64
6, 425636, Note_on_c, 1, 67, 0
6, 425640, Note_on_c, 1, 71, 64
6, 425756, Note_on_c, 1, 71, 0
6, 425760, Note_on_c, 1, 62, 64
6, 425876, Note_on_c, 1, 62, 0
6, 425880, Note_on_c, 1, 71, 64
6, 425996, Note_on_c, 1, 71, 0
6, 426000, Note_on_c, 1, 67, 64
6, 426116, Note_on_c, 1, 67, 0
6, 426120, Note_on_c, 1, 71, 64
6, 426236, Note_on_c, 1, 71, 0
6, 426240, Note_on_c, 1, 69, 64
6, 426356, Note_on_c, 1, 69, 0
6, 426360, Note_on_c, 1, 72, 64
6, 426476, Note_on_c, 1, 72, 0
6, 426480, Note_on_c, 1, 62, 64
6, 426596, Note_on_c, 1, 62, 0
6, 426600, Note_on_c, 1, 72, 64
6, 426716, Note_on_c, 1, 72, 0
6, 426720, Note_on_c, 1, 69, 64
6, 426836, Note_on_c, 1, 69, 0
6, 426840, Note_on_c, 1, 72, 64
6, 426956, Note_on_c, 1, 72, 0
6, 426960, Note_on_c, 1, 71, 64
6, 427076, Note_on_c, 1, 71, 0
6, 427080, Note_on_c, 1, 74, 64
6, 427196, Note_on_c, 1, 74, 0
6, 427200, Note_on_c, 1, 62, 64
6, 427316, Note_on_c, 1, 62, 0
6, 427320, Note_on_c, 1, 74, 64
6, 427436, Note_on_c, 1, 74, 0
6, 427440, Note_on_c, 1, 71, 64
6, 427556, Note_on_c, 1, 71, 0
6, 427560, Note_on_c, 1, 74, 64
6, 427676, Note_on_c, 1, 74, 0
6, 427680, Note_on_c, 1, 72, 64
6, 427796, Note_on_c, 1, 72, 0
6, 427800, Note_on_c, 1, 66, 64
6, 427916, Note_on_c, 1, 66, 0
6, 427920, Note_on_c, 1, 72, 64
6, 428036, Note_on_c, 1, 72, 0
6, 428040, Note_on_c, 1, 66, 64
6, 428156, Note_on_c, 1, 66, 0
6, 428160, Note_on_c, 1, 72, 64
6, 428276, Note_on_c, 1, 72, 0
6, 428280, Note_on_c, 1, 66, 64
6, 428396, Note_on_c, 1, 66, 0
6, 428400, Note_on_c, 1, 71, 64
6, 428516, Note_on_c, 1, 71, 0
6, 428520, Note_on_c, 1, 67, 64
6, 428636, Note_on_c, 1, 67, 0
6, 428640, Note_on_c, 1, 71, 64
6, 428756, Note_on_c, 1, 71, 0
6, 428760, Note_on_c, 1, 67, 64
6, 428876, Note_on_c, 1, 67, 0
6, 428880, Note_on_c, 1, 71, 64
6, 428996, Note_on_c, 1, 71, 0
6, 429000, Note_on_c, 1, 67, 64
6, 429116, Note_on_c, 1, 67, 0
6, 429120, Note_on_c, 1, 66, 64
6, 429236, Note_on_c, 1, 66, 0
6, 429240, Note_on_c, 1, 69, 64
6, 429356, Note_on_c, 1, 69, 0
6, 429360, Note_on_c, 1, 62, 64
6, 429476, Note_on_c, 1, 62, 0
6, 429480, Note_on_c, 1, 69, 64
6, 429596, Note_on_c, 1, 69, 0
6, 429600, Note_on_c, 1, 66, 64
6, 429716, Note_on_c, 1, 66, 0
6, 429720, Note_on_c, 1, 69, 64
6, 429836, Note_on_c, 1, 69, 0
6, 429840, Note_on_c, 1, 66, 64
6, 429956, Note_on_c, 1, 66, 0
6, 429960, Note_on_c, 1, 69, 64
6, 430076, Note_on_c, 1, 69, 0
6, 430080, Note_on_c, 1, 62, 64
6, 430196, Note_on_c, 1, 62, 0
6, 430200, Note_on_c, 1, 69, 64
6, 430316, Note_on_c, 1, 69, 0
6, 430320, Note_on_c, 1, 66, 64
6, 430436, Note_on_c, 1, 66, 0
6, 430440, Note_on_c, 1, 69, 64
6, 430556, Note_on_c, 1, 69, 0
6, 430560, Note_on_c, 1, 67, 64
6, 430560, Note_on_c, 1, 71, 64
6, 430796, Note_on_c, 1, 71, 0
6, 430796, Note_on_c, 1, 67, 0
6, 430800, Note_on_c, 1, 55, 64
6, 431036, Note_on_c, 1, 55, 0
6, 431040, Note_on_c, 1, 55, 64
6, 431276, Note_on_c, 1, 55, 0
6, 431280, Note_on_c, 1, 55, 64
6, 431516, Note_on_c, 1, 55, 0
6, 431520, Note_on_c, 1, 55, 64
6, 431756, Note_on_c, 1, 55, 0
6, 431760, Note_on_c, 1, 55, 64
6, 431996, Note_on_c, 1, 55, 0
6, 432000, Note_on_c, 1, 55, 64
6, 432236, Note_on_c, 1, 55, 0
6, 432240, Note_on_c, 1, 55, 64
6, 432476, Note_on_c, 1, 55, 0
6, 432480, Note_on_c, 1, 55, 64
6, 432716, Note_on_c, 1, 55, 0
6, 432720, Note_on_c, 1, 55, 64
6, 432956, Note_on_c, 1, 55, 0
6, 432960, Note_on_c, 1, 55, 64
6, 433196, Note_on_c, 1, 55, 0
6, 433200, Note_on_c, 1, 55, 64
6, 433436, Note_on_c, 1, 55, 0
6, 433440, Note_on_c, 1, 62, 64
6, 433676, Note_on_c, 1, 62, 0
6, 433680, Note_on_c, 1, 62, 64
6, 433916, Note_on_c, 1, 62, 0
6, 433920, Note_on_c, 1, 62, 64
6, 434156, Note_on_c, 1, 62, 0
6, 434160, Note_on_c, 1, 62, 64
6, 434396, Note_on_c, 1, 62, 0
6, 434400, Note_on_c, 1, 62, 64
6, 434636, Note_on_c, 1, 62, 0
6, 434640, Note_on_c, 1, 62, 64
6, 434876, Note_on_c, 1, 62, 0
6, 434880, Note_on_c, 1, 62, 64
6, 435116, Note_on_c, 1, 62, 0
6, 437760, Note_on_c, 1, 69, 64
6, 437996, Note_on_c, 1, 69, 0
6, 438000, Note_on_c, 1, 69, 64
6, 438236, Note_on_c, 1, 69, 0
6, 438240, Note_on_c, 1, 69, 64
6, 438476, Note_on_c, 1, 69, 0
6, 438480, Note_on_c, 1, 69, 64
6, 438716, Note_on_c, 1, 69, 0
6, 438720, Note_on_c, 1, 69, 64
6, 438956, Note_on_c, 1, 69, 0
6, 438960, Note_on_c, 1, 69, 64
6, 439196, Note_on_c, 1, 69, 0
6, 439200, Note_on_c, 1, 69, 64
6, 439436, Note_on_c, 1, 69, 0
6, 439440, Note_on_c, 1, 69, 64
6, 439676, Note_on_c, 1, 69, 0
6, 439680, Note_on_c, 1, 69, 64
6, 439916, Note_on_c, 1, 69, 0
6, 439920, Note_on_c, 1, 69, 64
6, 440156, Note_on_c, 1, 69, 0
6, 440160, Note_on_c, 1, 69, 64
6, 440396, Note_on_c, 1, 69, 0
6, 440400, Note_on_c, 1, 69, 64
6, 440636, Note_on_c, 1, 69, 0
6, 440640, Note_on_c, 1, 67, 64
6, 440756, Note_on_c, 1, 67, 0
6, 440760, Note_on_c, 1, 66, 64
6, 440876, Note_on_c, 1, 66, 0
6, 440880, Note_on_c, 1, 64, 64
6, 440996, Note_on_c, 1, 64, 0
6, 441000, Note_on_c, 1, 66, 64
6, 441116, Note_on_c, 1, 66, 0
6, 441120, Note_on_c, 1, 67, 64
6, 441236, Note_on_c, 1, 67, 0
6, 441240, Note_on_c, 1, 69, 64
6, 441356, Note_on_c, 1, 69, 0
6, 441360, Note_on_c, 1, 71, 64
6, 441476, Note_on_c, 1, 71, 0
6, 441480, Note_on_c, 1, 72, 64
6, 441596, Note_on_c, 1, 72, 0
6, 441600, Note_on_c, 1, 71, 64
6, 441716, Note_on_c, 1, 71, 0
6, 441720, Note_on_c, 1, 69, 64
6, 441836, Note_on_c, 1, 69, 0
6, 441840, Note_on_c, 1, 67, 64
6, 441956, Note_on_c, 1, 67, 0
6, 441960, Note_on_c, 1, 66, 64
6, 442076, Note_on_c, 1, 66, 0
6, 442080, Note_on_c, 1, 67, 64
6, 442196, Note_on_c, 1, 67, 0
6, 442200, Note_on_c, 1, 71, 64
6, 442316, Note_on_c, 1, 71, 0
6, 442320, Note_on_c, 1, 69, 64
6, 442436, Note_on_c, 1, 69, 0
6, 442440, Note_on_c, 1, 67, 64
6, 442556, Note_on_c, 1, 67, 0
6, 442560, Note_on_c, 1, 66, 64
6, 442676, Note_on_c, 1, 66, 0
6, 442680, Note_on_c, 1, 64, 64
6, 442796, Note_on_c, 1, 64, 0
6, 442800, Note_on_c, 1, 63, 64
6, 442916, Note_on_c, 1, 63, 0
6, 442920, Note_on_c, 1, 64, 64
6, 443036, Note_on_c, 1, 64, 0
6, 443040, Note_on_c, 1, 63, 64
6, 443156, Note_on_c, 1, 63, 0
6, 443160, Note_on_c, 1, 61, 64
6, 443276, Note_on_c, 1, 61, 0
6, 443280, Note_on_c, 1, 59, 64
6, 443396, Note_on_c, 1, 59, 0
6, 443400, Note_on_c, 1, 57, 64
6, 443516, Note_on_c, 1, 57, 0
6, 443520, Note_on_c, 1, 55, 64
6, 443756, Note_on_c, 1, 55, 0
6, 443760, Note_on_c, 1, 64, 64
6, 443996, Note_on_c, 1, 64, 0
6, 444000, Note_on_c, 1, 64, 64
6, 444236, Note_on_c, 1, 64, 0
6, 444240, Note_on_c, 1, 64, 64
6, 444476, Note_on_c, 1, 64, 0
6, 444480, Note_on_c, 1, 64, 64
6, 444716, Note_on_c, 1, 64, 0
6, 444720, Note_on_c, 1, 64, 64
6, 444956, Note_on_c, 1, 64, 0
6, 444960, Note_on_c, 1, 64, 64
6, 445196, Note_on_c, 1, 64, 0
6, 445200, Note_on_c, 1, 64, 64
6, 445436, Note_on_c, 1, 64, 0
6, 445440, Note_on_c, 1, 64, 64
6, 445676, Note_on_c, 1, 64, 0
6, 445680, Note_on_c, 1, 64, 64
6, 445916, Note_on_c, 1, 64, 0
6, 445920, Note_on_c, 1, 64, 64
6, 446156, Note_on_c, 1, 64, 0
6, 446160, Note_on_c, 1, 64, 64
6, 446396, Note_on_c, 1, 64, 0
6, 446400, Note_on_c, 1, 64, 64
6, 446636, Note_on_c, 1, 64, 0
6, 446640, Note_on_c, 1, 64, 64
6, 446876, Note_on_c, 1, 64, 0
6, 446880, Note_on_c, 1, 64, 64
6, 447116, Note_on_c, 1, 64, 0
6, 447120, Note_on_c, 1, 64, 64
6, 447356, Note_on_c, 1, 64, 0
6, 447360, Note_on_c, 1, 64, 64
6, 447596, Note_on_c, 1, 64, 0
6, 447600, Note_on_c, 1, 64, 64
6, 447836, Note_on_c, 1, 64, 0
6, 447840, Note_on_c, 1, 67, 64
6, 448076, Note_on_c, 1, 67, 0
6, 448080, Note_on_c, 1, 71, 64
6, 448316, Note_on_c, 1, 71, 0
6, 448320, Note_on_c, 1, 66, 64
6, 448556, Note_on_c, 1, 66, 0
6, 448560, Note_on_c, 1, 67, 64
6, 449036, Note_on_c, 1, 67, 0
6, 449280, Note_on_c, 1, 64, 64
6, 449516, Note_on_c, 1, 64, 0
6, 449520, Note_on_c, 1, 67, 64
6, 449756, Note_on_c, 1, 67, 0
6, 449760, Note_on_c, 1, 71, 64
6, 449996, Note_on_c, 1, 71, 0
6, 450000, Note_on_c, 1, 63, 64
6, 450236, Note_on_c, 1, 63, 0
6, 450240, Note_on_c, 1, 66, 64
6, 450476, Note_on_c, 1, 66, 0
6, 450480, Note_on_c, 1, 71, 64
6, 450716, Note_on_c, 1, 71, 0
6, 450720, Note_on_c, 1, 64, 64
6, 450956, Note_on_c, 1, 64, 0
6, 450960, Note_on_c, 1, 67, 64
6, 451196, Note_on_c, 1, 67, 0
6, 451200, Note_on_c, 1, 71, 64
6, 451436, Note_on_c, 1, 71, 0
6, 451440, Note_on_c, 1, 59, 64
6, 451676, Note_on_c, 1, 59, 0
6, 451680, Note_on_c, 1, 66, 64
6, 451916, Note_on_c, 1, 66, 0
6, 451920, Note_on_c, 1, 71, 64
6, 452156, Note_on_c, 1, 71, 0
6, 452160, Note_on_c, 1, 64, 64
6, 452276, Note_on_c, 1, 64, 0
6, 452280, Note_on_c, 1, 63, 64
6, 452396, Note_on_c, 1, 63, 0
6, 452400, Note_on_c, 1, 64, 64
6, 452516, Note_on_c, 1, 64, 0
6, 452520, Note_on_c, 1, 66, 64
6, 452636, Note_on_c, 1, 66, 0
6, 452640, Note_on_c, 1, 67, 64
6, 452756, Note_on_c, 1, 67, 0
6, 452760, Note_on_c, 1, 69, 64
6, 452876, Note_on_c, 1, 69, 0
6, 452880, Note_on_c, 1, 71, 64
6, 452996, Note_on_c, 1, 71, 0
6, 453000, Note_on_c, 1, 72, 64
6, 453116, Note_on_c, 1, 72, 0
6, 453120, Note_on_c, 1, 71, 64
6, 453236, Note_on_c, 1, 71, 0
6, 453240, Note_on_c, 1, 69, 64
6, 453356, Note_on_c, 1, 69, 0
6, 453360, Note_on_c, 1, 67, 64
6, 453476, Note_on_c, 1, 67, 0
6, 453480, Note_on_c, 1, 66, 64
6, 453596, Note_on_c, 1, 66, 0
6, 453600, Note_on_c, 1, 64, 64
6, 453836, Note_on_c, 1, 64, 0
6, 453840, Note_on_c, 1, 67, 64
6, 454076, Note_on_c, 1, 67, 0
6, 454080, Note_on_c, 1, 59, 64
6, 454316, Note_on_c, 1, 59, 0
6, 454320, Note_on_c, 1, 66, 64
6, 454556, Note_on_c, 1, 66, 0
6, 454560, Note_on_c, 1, 69, 64
6, 454796, Note_on_c, 1, 69, 0
6, 454800, Note_on_c, 1, 59, 64
6, 455036, Note_on_c, 1, 59, 0
6, 455040, Note_on_c, 1, 67, 64
6, 455276, Note_on_c, 1, 67, 0
6, 455280, Note_on_c, 1, 67, 64
6, 455516, Note_on_c, 1, 67, 0
6, 455520, Note_on_c, 1, 67, 64
6, 455756, Note_on_c, 1, 67, 0
6, 455760, Note_on_c, 1, 67, 64
6, 455996, Note_on_c, 1, 67, 0
6, 456000, Note_on_c, 1, 67, 64
6, 456236, Note_on_c, 1, 67, 0
6, 456240, Note_on_c, 1, 67, 64
6, 456476, Note_on_c, 1, 67, 0
6, 456480, Note_on_c, 1, 66, 64
6, 456716, Note_on_c, 1, 66, 0
6, 456720, Note_on_c, 1, 66, 64
6, 456956, Note_on_c, 1, 66, 0
6, 456960, Note_on_c, 1, 66, 64
6, 457196, Note_on_c, 1, 66, 0
6, 457200, Note_on_c, 1, 66, 64
6, 457436, Note_on_c, 1, 66, 0
6, 457440, Note_on_c, 1, 66, 64
6, 457676, Note_on_c, 1, 66, 0
6, 457680, Note_on_c, 1, 66, 64
6, 457916, Note_on_c, 1, 66, 0
6, 457920, Note_on_c, 1, 64, 64
6, 458156, Note_on_c, 1, 64, 0
6, 458160, Note_on_c, 1, 64, 64
6, 458396, Note_on_c, 1, 64, 0
6, 458400, Note_on_c, 1, 64, 64
6, 458636, Note_on_c, 1, 64, 0
6, 458640, Note_on_c, 1, 64, 64
6, 458876, Note_on_c, 1, 64, 0
6, 458880, Note_on_c, 1, 64, 64
6, 459116, Note_on_c, 1, 64, 0
6, 459120, Note_on_c, 1, 64, 64
6, 459356, Note_on_c, 1, 64, 0
6, 459360, Note_on_c, 1, 62, 64
6, 459596, Note_on_c, 1, 62, 0
6, 459600, Note_on_c, 1, 66, 64
6, 459836, Note_on_c, 1, 66, 0
6, 459840, Note_on_c, 1, 71, 64
6, 460076, Note_on_c, 1, 71, 0
6, 460080, Note_on_c, 1, 61, 64
6, 460316, Note_on_c, 1, 61, 0
6, 460320, Note_on_c, 1, 64, 64
6, 460556, Note_on_c, 1, 64, 0
6, 460560, Note_on_c, 1, 70, 64
6, 460796, Note_on_c, 1, 70, 0
6, 460800, Note_on_c, 1, 59, 64
6, 460916, Note_on_c, 1, 59, 0
6, 460920, Note_on_c, 1, 58, 64
6, 461036, Note_on_c, 1, 58, 0
6, 461040, Note_on_c, 1, 59, 64
6, 461156, Note_on_c, 1, 59, 0
6, 461160, Note_on_c, 1, 61, 64
6, 461276, Note_on_c, 1, 61, 0
6, 461280, Note_on_c, 1, 62, 64
6, 461396, Note_on_c, 1, 62, 0
6, 461400, Note_on_c, 1, 64, 64
6, 461516, Note_on_c, 1, 64, 0
6, 461520, Note_on_c, 1, 66, 64
6, 461636, Note_on_c, 1, 66, 0
6, 461640, Note_on_c, 1, 67, 64
6, 461756, Note_on_c, 1, 67, 0
6, 461760, Note_on_c, 1, 66, 64
6, 461876, Note_on_c, 1, 66, 0
6, 461880, Note_on_c, 1, 64, 64
6, 461996, Note_on_c, 1, 64, 0
6, 462000, Note_on_c, 1, 62, 64
6, 462116, Note_on_c, 1, 62, 0
6, 462120, Note_on_c, 1, 61, 64
6, 462236, Note_on_c, 1, 61, 0
6, 462240, Note_on_c, 1, 62, 64
6, 462476, Note_on_c, 1, 62, 0
6, 462480, Note_on_c, 1, 66, 64
6, 462716, Note_on_c, 1, 66, 0
6, 462720, Note_on_c, 1, 71, 64
6, 462956, Note_on_c, 1, 71, 0
6, 462960, Note_on_c, 1, 70, 64
6, 463076, Note_on_c, 1, 70, 0
6, 463080, Note_on_c, 1, 71, 64
6, 463196, Note_on_c, 1, 71, 0
6, 463200, Note_on_c, 1, 70, 64
6, 463316, Note_on_c, 1, 70, 0
6, 463320, Note_on_c, 1, 68, 64
6, 463436, Note_on_c, 1, 68, 0
6, 463440, Note_on_c, 1, 66, 64
6, 463556, Note_on_c, 1, 66, 0
6, 463560, Note_on_c, 1, 64, 64
6, 463676, Note_on_c, 1, 64, 0
6, 463680, Note_on_c, 1, 62, 64
6, 463916, Note_on_c, 1, 62, 0
6, 463920, Note_on_c, 1, 59, 64
6, 464156, Note_on_c, 1, 59, 0
6, 464160, Note_on_c, 1, 66, 64
6, 464396, Note_on_c, 1, 66, 0
6, 464400, Note_on_c, 1, 66, 64
6, 464636, Note_on_c, 1, 66, 0
6, 464640, Note_on_c, 1, 66, 64
6, 464876, Note_on_c, 1, 66, 0
6, 464880, Note_on_c, 1, 66, 64
6, 465116, Note_on_c, 1, 66, 0
6, 465120, Note_on_c, 1, 66, 64
6, 465356, Note_on_c, 1, 66, 0
6, 465360, Note_on_c, 1, 71, 64
6, 465596, Note_on_c, 1, 71, 0
6, 465600, Note_on_c, 1, 66, 64
6, 465836, Note_on_c, 1, 66, 0
6, 465840, Note_on_c, 1, 67, 64
6, 465956, Note_on_c, 1, 67, 0
6, 465960, Note_on_c, 1, 69, 64
6, 466076, Note_on_c, 1, 69, 0
6, 466080, Note_on_c, 1, 67, 64
6, 466196, Note_on_c, 1, 67, 0
6, 466200, Note_on_c, 1, 66, 64
6, 466316, Note_on_c, 1, 66, 0
6, 466320, Note_on_c, 1, 64, 64
6, 466436, Note_on_c, 1, 64, 0
6, 466440, Note_on_c, 1, 62, 64
6, 466556, Note_on_c, 1, 62, 0
6, 466560, Note_on_c, 1, 64, 64
6, 466796, Note_on_c, 1, 64, 0
6, 466800, Note_on_c, 1, 69, 64
6, 467036, Note_on_c, 1, 69, 0
6, 467040, Note_on_c, 1, 64, 64
6, 467276, Note_on_c, 1, 64, 0
6, 467280, Note_on_c, 1, 66, 64
6, 467396, Note_on_c, 1, 66, 0
6, 467400, Note_on_c, 1, 67, 64
6, 467516, Note_on_c, 1, 67, 0
6, 467520, Note_on_c, 1, 66, 64
6, 467636, Note_on_c, 1, 66, 0
6, 467640, Note_on_c, 1, 64, 64
6, 467756, Note_on_c, 1, 64, 0
6, 467760, Note_on_c, 1, 62, 64
6, 467876, Note_on_c, 1, 62, 0
6, 467880, Note_on_c, 1, 61, 64
6, 467996, Note_on_c, 1, 61, 0
6, 468000, Note_on_c, 1, 62, 64
6, 468236, Note_on_c, 1, 62, 0
6, 468240, Note_on_c, 1, 67, 64
6, 468476, Note_on_c, 1, 67, 0
6, 468480, Note_on_c, 1, 62, 64
6, 468716, Note_on_c, 1, 62, 0
6, 468720, Note_on_c, 1, 64, 64
6, 468836, Note_on_c, 1, 64, 0
6, 468840, Note_on_c, 1, 66, 64
6, 468956, Note_on_c, 1, 66, 0
6, 468960, Note_on_c, 1, 64, 64
6, 469076, Note_on_c, 1, 64, 0
6, 469080, Note_on_c, 1, 62, 64
6, 469196, Note_on_c, 1, 62, 0
6, 469200, Note_on_c, 1, 61, 64
6, 469316, Note_on_c, 1, 61, 0
6, 469320, Note_on_c, 1, 59, 64
6, 469436, Note_on_c, 1, 59, 0
6, 469440, Note_on_c, 1, 61, 64
6, 469676, Note_on_c, 1, 61, 0
6, 469680, Note_on_c, 1, 58, 64
6, 469916, Note_on_c, 1, 58, 0
6, 469920, Note_on_c, 1, 54, 64
6, 470156, Note_on_c, 1, 54, 0
6, 470160, Note_on_c, 1, 62, 64
6, 470396, Note_on_c, 1, 62, 0
6, 470400, Note_on_c, 1, 59, 64
6, 470636, Note_on_c, 1, 59, 0
6, 470640, Note_on_c, 1, 54, 64
6, 470876, Note_on_c, 1, 54, 0
6, 470880, Note_on_c, 1, 61, 64
6, 471116, Note_on_c, 1, 61, 0
6, 471120, Note_on_c, 1, 58, 64
6, 471356, Note_on_c, 1, 58, 0
6, 471360, Note_on_c, 1, 54, 64
6, 471596, Note_on_c, 1, 54, 0
6, 471600, Note_on_c, 1, 62, 64
6, 471836, Note_on_c, 1, 62, 0
6, 471840, Note_on_c, 1, 54, 64
6, 472076, Note_on_c, 1, 54, 0
6, 472080, Note_on_c, 1, 50, 64
6, 472316, Note_on_c, 1, 50, 0
6, 472320, Note_on_c, 1, 58, 64
6, 472796, Note_on_c, 1, 58, 0
6, 472800, Note_on_c, 1, 66, 64
6, 473036, Note_on_c, 1, 66, 0
6, 473040, Note_on_c, 1, 62, 64
6, 473516, Note_on_c, 1, 62, 0
6, 473520, Note_on_c, 1, 71, 64
6, 473756, Note_on_c, 1, 71, 0
6, 473760, Note_on_c, 1, 70, 64
6, 473876, Note_on_c, 1, 70, 0
6, 473880, Note_on_c, 1, 73, 64
6, 473996, Note_on_c, 1, 73, 0
6, 474000, Note_on_c, 1, 66, 64
6, 474116, Note_on_c, 1, 66, 0
6, 474120, Note_on_c, 1, 73, 64
6, 474236, Note_on_c, 1, 73, 0
6, 474240, Note_on_c, 1, 70, 64
6, 474356, Note_on_c, 1, 70, 0
6, 474360, Note_on_c, 1, 73, 64
6, 474476, Note_on_c, 1, 73, 0
6, 474480, Note_on_c, 1, 71, 64
6, 474596, Note_on_c, 1, 71, 0
6, 474600, Note_on_c, 1, 74, 64
6, 474716, Note_on_c, 1, 74, 0
6, 474720, Note_on_c, 1, 66, 64
6, 474836, Note_on_c, 1, 66, 0
6, 474840, Note_on_c, 1, 74, 64
6, 474956, Note_on_c, 1, 74, 0
6, 474960, Note_on_c, 1, 71, 64
6, 475076, Note_on_c, 1, 71, 0
6, 475080, Note_on_c, 1, 74, 64
6, 475196, Note_on_c, 1, 74, 0
6, 475200, Note_on_c, 1, 73, 64
6, 475316, Note_on_c, 1, 73, 0
6, 475320, Note_on_c, 1, 76, 64
6, 475436, Note_on_c, 1, 76, 0
6, 475440, Note_on_c, 1, 66, 64
6, 475556, Note_on_c, 1, 66, 0
6, 475560, Note_on_c, 1, 76, 64
6, 475676, Note_on_c, 1, 76, 0
6, 475680, Note_on_c, 1, 73, 64
6, 475796, Note_on_c, 1, 73, 0
6, 475800, Note_on_c, 1, 76, 64
6, 475916, Note_on_c, 1, 76, 0
6, 475920, Note_on_c, 1, 73, 64
6, 476036, Note_on_c, 1, 73, 0
6, 476040, Note_on_c, 1, 76, 64
6, 476156, Note_on_c, 1, 76, 0
6, 476160, Note_on_c, 1, 66, 64
6, 476276, Note_on_c, 1, 66, 0
6, 476280, Note_on_c, 1, 76, 64
6, 476396, Note_on_c, 1, 76, 0
6, 476400, Note_on_c, 1, 73, 64
6, 476516, Note_on_c, 1, 73, 0
6, 476520, Note_on_c, 1, 76, 64
6, 476636, Note_on_c, 1, 76, 0
6, 476640, Note_on_c, 1, 75, 64
6, 476876, Note_on_c, 1, 75, 0
6, 476880, Note_on_c, 1, 59, 64
6, 477116, Note_on_c, 1, 59, 0
6, 477120, Note_on_c, 1, 59, 64
6, 477356, Note_on_c, 1, 59, 0
6, 477360, Note_on_c, 1, 59, 64
6, 477596, Note_on_c, 1, 59, 0
6, 477600, Note_on_c, 1, 59, 64
6, 477836, Note_on_c, 1, 59, 0
6, 477840, Note_on_c, 1, 59, 64
6, 478076, Note_on_c, 1, 59, 0
6, 478080, Note_on_c, 1, 59, 64
6, 478316, Note_on_c, 1, 59, 0
6, 478320, Note_on_c, 1, 59, 64
6, 478556, Note_on_c, 1, 59, 0
6, 478560, Note_on_c, 1, 59, 64
6, 478796, Note_on_c, 1, 59, 0
6, 478800, Note_on_c, 1, 59, 64
6, 479036, Note_on_c, 1, 59, 0
6, 479040, Note_on_c, 1, 59, 64
6, 479276, Note_on_c, 1, 59, 0
6, 479280, Note_on_c, 1, 59, 64
6, 479516, Note_on_c, 1, 59, 0
6, 479520, Note_on_c, 1, 66, 64
6, 479756, Note_on_c, 1, 66, 0
6, 479760, Note_on_c, 1, 66, 64
6, 479996, Note_on_c, 1, 66, 0
6, 480000, Note_on_c, 1, 66, 64
6, 480236, Note_on_c, 1, 66, 0
6, 480240, Note_on_c, 1, 66, 64
6, 480476, Note_on_c, 1, 66, 0
6, 480480, Note_on_c, 1, 66, 64
6, 480716, Note_on_c, 1, 66, 0
6, 480720, Note_on_c, 1, 66, 64
6, 480956, Note_on_c, 1, 66, 0
6, 480960, Note_on_c, 1, 66, 64
6, 481076, Note_on_c, 1, 66, 0
6, 481080, Note_on_c, 1, 64, 64
6, 481196, Note_on_c, 1, 64, 0
6, 481200, Note_on_c, 1, 62, 64
6, 481316, Note_on_c, 1, 62, 0
6, 481320, Note_on_c, 1, 64, 64
6, 481436, Note_on_c, 1, 64, 0
6, 481440, Note_on_c, 1, 66, 64
6, 481676, Note_on_c, 1, 66, 0
6, 481680, Note_on_c, 1, 54, 64
6, 481916, Note_on_c, 1, 54, 0
6, 481920, Note_on_c, 1, 61, 64
6, 482036, Note_on_c, 1, 61, 0
6, 482040, Note_on_c, 1, 62, 64
6, 482156, Note_on_c, 1, 62, 0
6, 482160, Note_on_c, 1, 64, 64
6, 482396, Note_on_c, 1, 64, 0
6, 482400, Note_on_c, 1, 62, 64
6, 483836, Note_on_c, 1, 62, 0
6, 483840, Note_on_c, 1, 66, 64
6, 484076, Note_on_c, 1, 66, 0
6, 484080, Note_on_c, 1, 66, 64
6, 484316, Note_on_c, 1, 66, 0
6, 484320, Note_on_c, 1, 66, 64
6, 484556, Note_on_c, 1, 66, 0
6, 484560, Note_on_c, 1, 66, 64
6, 484796, Note_on_c, 1, 66, 0
6, 484800, Note_on_c, 1, 66, 64
6, 485036, Note_on_c, 1, 66, 0
6, 485040, Note_on_c, 1, 66, 64
6, 485276, Note_on_c, 1, 66, 0
6, 485280, Note_on_c, 1, 66, 64
6, 485516, Note_on_c, 1, 66, 0
6, 485520, Note_on_c, 1, 64, 64
6, 485756, Note_on_c, 1, 64, 0
6, 485760, Note_on_c, 1, 63, 64
6, 485996, Note_on_c, 1, 63, 0
6, 486000, Note_on_c, 1, 64, 64
6, 486476, Note_on_c, 1, 64, 0
6, 486720, Note_on_c, 1, 74, 64
6, 486956, Note_on_c, 1, 74, 0
6, 486960, Note_on_c, 1, 74, 64
6, 487196, Note_on_c, 1, 74, 0
6, 487200, Note_on_c, 1, 74, 64
6, 487436, Note_on_c, 1, 74, 0
6, 487440, Note_on_c, 1, 74, 64
6, 487676, Note_on_c, 1, 74, 0
6, 487680, Note_on_c, 1, 74, 64
6, 487916, Note_on_c, 1, 74, 0
6, 487920, Note_on_c, 1, 74, 64
6, 488156, Note_on_c, 1, 74, 0
6, 488160, Note_on_c, 1, 74, 64
6, 488396, Note_on_c, 1, 74, 0
6, 488400, Note_on_c, 1, 78, 64
6, 488516, Note_on_c, 1, 78, 0
6, 488520, Note_on_c, 1, 76, 64
6, 488636, Note_on_c, 1, 76, 0
6, 488640, Note_on_c, 1, 74, 64
6, 488756, Note_on_c, 1, 74, 0
6, 488760, Note_on_c, 1, 72, 64
6, 488876, Note_on_c, 1, 72, 0
6, 488880, Note_on_c, 1, 71, 64
6, 488996, Note_on_c, 1, 71, 0
6, 489000, Note_on_c, 1, 72, 64
6, 489236, Note_on_c, 1, 72, 0
6, 489240, Note_on_c, 1, 69, 64
6, 489476, Note_on_c, 1, 69, 0
6, 489720, Note_on_c, 1, 62, 64
6, 489836, Note_on_c, 1, 62, 0
6, 489840, Note_on_c, 1, 65, 64
6, 489956, Note_on_c, 1, 65, 0
6, 489960, Note_on_c, 1, 69, 64
6, 490076, Note_on_c, 1, 69, 0
6, 490080, Note_on_c, 1, 65, 64
6, 490196, Note_on_c, 1, 65, 0
6, 490200, Note_on_c, 1, 62, 64
6, 490316, Note_on_c, 1, 62, 0
6, 490320, Note_on_c, 1, 71, 64
6, 490556, Note_on_c, 1, 71, 0
6, 490560, Note_on_c, 1, 71, 64
6, 490796, Note_on_c, 1, 71, 0
6, 490800, Note_on_c, 1, 71, 64
6, 491036, Note_on_c, 1, 71, 0
6, 491040, Note_on_c, 1, 71, 64
6, 491156, Note_on_c, 1, 71, 0
6, 491160, Note_on_c, 1, 60, 64
6, 491276, Note_on_c, 1, 60, 0
6, 491280, Note_on_c, 1, 64, 64
6, 491396, Note_on_c, 1, 64, 0
6, 491400, Note_on_c, 1, 67, 64
6, 491516, Note_on_c, 1, 67, 0
6, 491520, Note_on_c, 1, 64, 64
6, 491636, Note_on_c, 1, 64, 0
6, 491640, Note_on_c, 1, 60, 64
6, 491756, Note_on_c, 1, 60, 0
6, 491760, Note_on_c, 1, 69, 64
6, 491996, Note_on_c, 1, 69, 0
6, 492000, Note_on_c, 1, 69, 64
6, 492236, Note_on_c, 1, 69, 0
6, 492240, Note_on_c, 1, 69, 64
6, 492476, Note_on_c, 1, 69, 0
6, 492480, Note_on_c, 1, 59, 64
6, 492716, Note_on_c, 1, 59, 0
6, 492720, Note_on_c, 1, 62, 64
6, 492956, Note_on_c, 1, 62, 0
6, 492960, Note_on_c, 1, 67, 64
6, 493196, Note_on_c, 1, 67, 0
6, 493200, Note_on_c, 1, 60, 64
6, 493436, Note_on_c, 1, 60, 0
6, 493440, Note_on_c, 1, 64, 64
6, 493676, Note_on_c, 1, 64, 0
6, 493680, Note_on_c, 1, 67, 64
6, 493916, Note_on_c, 1, 67, 0
6, 493920, Note_on_c, 1, 59, 64
6, 494036, Note_on_c, 1, 59, 0
6, 494040, Note_on_c, 1, 62, 64
6, 494156, Note_on_c, 1, 62, 0
6, 494160, Note_on_c, 1, 55, 64
6, 494276, Note_on_c, 1, 55, 0
6, 494280, Note_on_c, 1, 62, 64
6, 494396, Note_on_c, 1, 62, 0
6, 494400, Note_on_c, 1, 59, 64
6, 494516, Note_on_c, 1, 59, 0
6, 494520, Note_on_c, 1, 62, 64
6, 494636, Note_on_c, 1, 62, 0
6, 494640, Note_on_c, 1, 60, 64
6, 494756, Note_on_c, 1, 60, 0
6, 494760, Note_on_c, 1, 64, 64
6, 494876, Note_on_c, 1, 64, 0
6, 494880, Note_on_c, 1, 55, 64
6, 494996, Note_on_c, 1, 55, 0
6, 495000, Note_on_c, 1, 64, 64
6, 495116, Note_on_c, 1, 64, 0
6, 495120, Note_on_c, 1, 60, 64
6, 495236, Note_on_c, 1, 60, 0
6, 495240, Note_on_c, 1, 64, 64
6, 495356, Note_on_c, 1, 64, 0
6, 495360, Note_on_c, 1, 62, 64
6, 495476, Note_on_c, 1, 62, 0
6, 495480, Note_on_c, 1, 65, 64
6, 495596, Note_on_c, 1, 65, 0
6, 495600, Note_on_c, 1, 55, 64
6, 495716, Note_on_c, 1, 55, 0
6, 495720, Note_on_c, 1, 65, 64
6, 495836, Note_on_c, 1, 65, 0
6, 495840, Note_on_c, 1, 62, 64
6, 495956, Note_on_c, 1, 62, 0
6, 495960, Note_on_c, 1, 65, 64
6, 496076, Note_on_c, 1, 65, 0
6, 496080, Note_on_c, 1, 64, 64
6, 496196, Note_on_c, 1, 64, 0
6, 496200, Note_on_c, 1, 67, 64
6, 496316, Note_on_c, 1, 67, 0
6, 496320, Note_on_c, 1, 55, 64
6, 496436, Note_on_c, 1, 55, 0
6, 496440, Note_on_c, 1, 67, 64
6, 496556, Note_on_c, 1, 67, 0
6, 496560, Note_on_c, 1, 64, 64
6, 496676, Note_on_c, 1, 64, 0
6, 496680, Note_on_c, 1, 67, 64
6, 496796, Note_on_c, 1, 67, 0
6, 496800, Note_on_c, 1, 65, 64
6, 496916, Note_on_c, 1, 65, 0
6, 496920, Note_on_c, 1, 59, 64
6, 497036, Note_on_c, 1, 59, 0
6, 497040, Note_on_c, 1, 65, 64
6, 497156, Note_on_c, 1, 65, 0
6, 497160, Note_on_c, 1, 59, 64
6, 497276, Note_on_c, 1, 59, 0
6, 497280, Note_on_c, 1, 65, 64
6, 497396, Note_on_c, 1, 65, 0
6, 497400, Note_on_c, 1, 59, 64
6, 497516, Note_on_c, 1, 59, 0
6, 497520, Note_on_c, 1, 64, 64
6, 497636, Note_on_c, 1, 64, 0
6, 497640, Note_on_c, 1, 60, 64
6, 497756, Note_on_c, 1, 60, 0
6, 497760, Note_on_c, 1, 64, 64
6, 497876, Note_on_c, 1, 64, 0
6, 497880, Note_on_c, 1, 60, 64
6, 497996, Note_on_c, 1, 60, 0
6, 498000, Note_on_c, 1, 64, 64
6, 498116, Note_on_c, 1, 64, 0
6, 498120, Note_on_c, 1, 60, 64
6, 498236, Note_on_c, 1, 60, 0
6, 498240, Note_on_c, 1, 57, 64
6, 498476, Note_on_c, 1, 57, 0
6, 498480, Note_on_c, 1, 60, 64
6, 498716, Note_on_c, 1, 60, 0
6, 498720, Note_on_c, 1, 63, 64
6, 498956, Note_on_c, 1, 63, 0
6, 498960, Note_on_c, 1, 60, 64
6, 499196, Note_on_c, 1, 60, 0
6, 499200, Note_on_c, 1, 63, 64
6, 499436, Note_on_c, 1, 63, 0
6, 499440, Note_on_c, 1, 69, 64
6, 499676, Note_on_c, 1, 69, 0
6, 499680, Note_on_c, 1, 67, 64
6, 499796, Note_on_c, 1, 67, 0
6, 499800, Note_on_c, 1, 71, 64
6, 499916, Note_on_c, 1, 71, 0
6, 499920, Note_on_c, 1, 62, 64
6, 500036, Note_on_c, 1, 62, 0
6, 500040, Note_on_c, 1, 71, 64
6, 500156, Note_on_c, 1, 71, 0
6, 500160, Note_on_c, 1, 67, 64
6, 500276, Note_on_c, 1, 67, 0
6, 500280, Note_on_c, 1, 66, 64
6, 500396, Note_on_c, 1, 66, 0
6, 500400, Note_on_c, 1, 67, 64
6, 500516, Note_on_c, 1, 67, 0
6, 500520, Note_on_c, 1, 71, 64
6, 500636, Note_on_c, 1, 71, 0
6, 500640, Note_on_c, 1, 62, 64
6, 500756, Note_on_c, 1, 62, 0
6, 500760, Note_on_c, 1, 71, 64
6, 500876, Note_on_c, 1, 71, 0
6, 500880, Note_on_c, 1, 67, 64
6, 500996, Note_on_c, 1, 67, 0
6, 501000, Note_on_c, 1, 71, 64
6, 501116, Note_on_c, 1, 71, 0
6, 501120, Note_on_c, 1, 67, 64
6, 501356, Note_on_c, 1, 67, 0
6, 501360, Note_on_c, 1, 72, 64
6, 501596, Note_on_c, 1, 72, 0
6, 501600, Note_on_c, 1, 76, 64
6, 501836, Note_on_c, 1, 76, 0
6, 501840, Note_on_c, 1, 69, 64
6, 502076, Note_on_c, 1, 69, 0
6, 502080, Note_on_c, 1, 72, 64
6, 502316, Note_on_c, 1, 72, 0
6, 502320, Note_on_c, 1, 76, 64
6, 502556, Note_on_c, 1, 76, 0
6, 502560, Note_on_c, 1, 67, 64
6, 502796, Note_on_c, 1, 67, 0
6, 502800, Note_on_c, 1, 72, 64
6, 503036, Note_on_c, 1, 72, 0
6, 503040, Note_on_c, 1, 76, 64
6, 503276, Note_on_c, 1, 76, 0
6, 503280, Note_on_c, 1, 65, 64
6, 503516, Note_on_c, 1, 65, 0
6, 503520, Note_on_c, 1, 72, 64
6, 503756, Note_on_c, 1, 72, 0
6, 503760, Note_on_c, 1, 76, 64
6, 503996, Note_on_c, 1, 76, 0
6, 504000, Note_on_c, 1, 67, 64
6, 504236, Note_on_c, 1, 67, 0
6, 504240, Note_on_c, 1, 72, 64
6, 504476, Note_on_c, 1, 72, 0
6, 504480, Note_on_c, 1, 76, 64
6, 504716, Note_on_c, 1, 76, 0
6, 504720, Note_on_c, 1, 69, 64
6, 504956, Note_on_c, 1, 69, 0
6, 504960, Note_on_c, 1, 72, 64
6, 505196, Note_on_c, 1, 72, 0
6, 505200, Note_on_c, 1, 76, 64
6, 505436, Note_on_c, 1, 76, 0
6, 505440, Note_on_c, 1, 67, 64
6, 505676, Note_on_c, 1, 67, 0
6, 505680, Note_on_c, 1, 72, 64
6, 505916, Note_on_c, 1, 72, 0
6, 505920, Note_on_c, 1, 71, 64
6, 506156, Note_on_c, 1, 71, 0
6, 506160, Note_on_c, 1, 72, 64
6, 506396, Note_on_c, 1, 72, 0
6, 506400, Note_on_c, 1, 55, 64
6, 506636, Note_on_c, 1, 55, 0
6, 506640, Note_on_c, 1, 55, 64
6, 506876, Note_on_c, 1, 55, 0
6, 506880, Note_on_c, 1, 55, 64
6, 507116, Note_on_c, 1, 55, 0
6, 507120, Note_on_c, 1, 55, 64
6, 507356, Note_on_c, 1, 55, 0
6, 507360, Note_on_c, 1, 55, 64
6, 507596, Note_on_c, 1, 55, 0
6, 507600, Note_on_c, 1, 55, 64
6, 507836, Note_on_c, 1, 55, 0
6, 507840, Note_on_c, 1, 55, 64
6, 508076, Note_on_c, 1, 55, 0
6, 508080, Note_on_c, 1, 55, 64
6, 508316, Note_on_c, 1, 55, 0
6, 508320, Note_on_c, 1, 60, 64
6, 508436, Note_on_c, 1, 60, 0
6, 508440, Note_on_c, 1, 59, 64
6, 508556, Note_on_c, 1, 59, 0
6, 508560, Note_on_c, 1, 60, 64
6, 508676, Note_on_c, 1, 60, 0
6, 508680, Note_on_c, 1, 62, 64
6, 508796, Note_on_c, 1, 62, 0
6, 508800, Note_on_c, 1, 64, 64
6, 508916, Note_on_c, 1, 64, 0
6, 508920, Note_on_c, 1, 65, 64
6, 509036, Note_on_c, 1, 65, 0
6, 509040, Note_on_c, 1, 67, 64
6, 509156, Note_on_c, 1, 67, 0
6, 509160, Note_on_c, 1, 69, 64
6, 509276, Note_on_c, 1, 69, 0
6, 509280, Note_on_c, 1, 67, 64
6, 509396, Note_on_c, 1, 67, 0
6, 509400, Note_on_c, 1, 65, 64
6, 509516, Note_on_c, 1, 65, 0
6, 509520, Note_on_c, 1, 64, 64
6, 509636, Note_on_c, 1, 64, 0
6, 509640, Note_on_c, 1, 62, 64
6, 509756, Note_on_c, 1, 62, 0
6, 509760, Note_on_c, 1, 64, 64
6, 509996, Note_on_c, 1, 64, 0
6, 510000, Note_on_c, 1, 67, 64
6, 510236, Note_on_c, 1, 67, 0
6, 510240, Note_on_c, 1, 72, 64
6, 510476, Note_on_c, 1, 72, 0
6, 510480, Note_on_c, 1, 71, 64
6, 510596, Note_on_c, 1, 71, 0
6, 510600, Note_on_c, 1, 72, 64
6, 510716, Note_on_c, 1, 72, 0
6, 510720, Note_on_c, 1, 71, 64
6, 510836, Note_on_c, 1, 71, 0
6, 510840, Note_on_c, 1, 69, 64
6, 510956, Note_on_c, 1, 69, 0
6, 510960, Note_on_c, 1, 67, 64
6, 511076, Note_on_c, 1, 67, 0
6, 511080, Note_on_c, 1, 65, 64
6, 511196, Note_on_c, 1, 65, 0
6, 511200, Note_on_c, 1, 64, 64
6, 511436, Note_on_c, 1, 64, 0
6, 511440, Note_on_c, 1, 60, 64
6, 511676, Note_on_c, 1, 60, 0
6, 511680, Note_on_c, 1, 67, 64
6, 511916, Note_on_c, 1, 67, 0
6, 511920, Note_on_c, 1, 67, 64
6, 512156, Note_on_c, 1, 67, 0
6, 512160, Note_on_c, 1, 67, 64
6, 512396, Note_on_c, 1, 67, 0
6, 512400, Note_on_c, 1, 67, 64
6, 512636, Note_on_c, 1, 67, 0
6, 512640, Note_on_c, 1, 64, 64
6, 512756, Note_on_c, 1, 64, 0
6, 512760, Note_on_c, 1, 65, 64
6, 512876, Note_on_c, 1, 65, 0
6, 512880, Note_on_c, 1, 64, 64
6, 512996, Note_on_c, 1, 64, 0
6, 513000, Note_on_c, 1, 62, 64
6, 513116, Note_on_c, 1, 62, 0
6, 513120, Note_on_c, 1, 60, 64
6, 513236, Note_on_c, 1, 60, 0
6, 513240, Note_on_c, 1, 59, 64
6, 513356, Note_on_c, 1, 59, 0
6, 513360, Note_on_c, 1, 57, 64
6, 513476, Note_on_c, 1, 57, 0
6, 513480, Note_on_c, 1, 55, 64
6, 513596, Note_on_c, 1, 55, 0
6, 513600, Note_on_c, 1, 57, 64
6, 513716, Note_on_c, 1, 57, 0
6, 513720, Note_on_c, 1, 59, 64
6, 513836, Note_on_c, 1, 59, 0
6, 513840, Note_on_c, 1, 60, 64
6, 513956, Note_on_c, 1, 60, 0
6, 513960, Note_on_c, 1, 57, 64
6, 514076, Note_on_c, 1, 57, 0
6, 514080, Note_on_c, 1, 62, 64
6, 514196, Note_on_c, 1, 62, 0
6, 514200, Note_on_c, 1, 64, 64
6, 514316, Note_on_c, 1, 64, 0
6, 514320, Note_on_c, 1, 62, 64
6, 514436, Note_on_c, 1, 62, 0
6, 514440, Note_on_c, 1, 60, 64
6, 514556, Note_on_c, 1, 60, 0
6, 514560, Note_on_c, 1, 59, 64
6, 514676, Note_on_c, 1, 59, 0
6, 514680, Note_on_c, 1, 57, 64
6, 514796, Note_on_c, 1, 57, 0
6, 514800, Note_on_c, 1, 55, 64
6, 514916, Note_on_c, 1, 55, 0
6, 514920, Note_on_c, 1, 54, 64
6, 515036, Note_on_c, 1, 54, 0
6, 515040, Note_on_c, 1, 55, 64
6, 515156, Note_on_c, 1, 55, 0
6, 515160, Note_on_c, 1, 57, 64
6, 515276, Note_on_c, 1, 57, 0
6, 515280, Note_on_c, 1, 59, 64
6, 515396, Note_on_c, 1, 59, 0
6, 515400, Note_on_c, 1, 55, 64
6, 515516, Note_on_c, 1, 55, 0
6, 515520, Note_on_c, 1, 60, 64
6, 515636, Note_on_c, 1, 60, 0
6, 515640, Note_on_c, 1, 62, 64
6, 515756, Note_on_c, 1, 62, 0
6, 515760, Note_on_c, 1, 60, 64
6, 515876, Note_on_c, 1, 60, 0
6, 515880, Note_on_c, 1, 59, 64
6, 515996, Note_on_c, 1, 59, 0
6, 516000, Note_on_c, 1, 57, 64
6, 516116, Note_on_c, 1, 57, 0
6, 516120, Note_on_c, 1, 55, 64
6, 516236, Note_on_c, 1, 55, 0
6, 516240, Note_on_c, 1, 54, 64
6, 516356, Note_on_c, 1, 54, 0
6, 516360, Note_on_c, 1, 52, 64
6, 516476, Note_on_c, 1, 52, 0
6, 516480, Note_on_c, 1, 54, 64
6, 516596, Note_on_c, 1, 54, 0
6, 516600, Note_on_c, 1, 55, 64
6, 516716, Note_on_c, 1, 55, 0
6, 516720, Note_on_c, 1, 57, 64
6, 516836, Note_on_c, 1, 57, 0
6, 516840, Note_on_c, 1, 54, 64
6, 516956, Note_on_c, 1, 54, 0
6, 516960, Note_on_c, 1, 67, 64
6, 517196, Note_on_c, 1, 67, 0
6, 517200, Note_on_c, 1, 71, 64
6, 517436, Note_on_c, 1, 71, 0
6, 517440, Note_on_c, 1, 74, 64
6, 517676, Note_on_c, 1, 74, 0
6, 517680, Note_on_c, 1, 66, 64
6, 517916, Note_on_c, 1, 66, 0
6, 517920, Note_on_c, 1, 69, 64
6, 518156, Note_on_c, 1, 69, 0
6, 518160, Note_on_c, 1, 74, 64
6, 518396, Note_on_c, 1, 74, 0
6, 518400, Note_on_c, 1, 67, 64
6, 518636, Note_on_c, 1, 67, 0
6, 518640, Note_on_c, 1, 71, 64
6, 518876, Note_on_c, 1, 71, 0
6, 518880, Note_on_c, 1, 74, 64
6, 519116, Note_on_c, 1, 74, 0
6, 519120, Note_on_c, 1, 62, 64
6, 519356, Note_on_c, 1, 62, 0
6, 519360, Note_on_c, 1, 69, 64
6, 519596, Note_on_c, 1, 69, 0
6, 519600, Note_on_c, 1, 74, 64
6, 519836, Note_on_c, 1, 74, 0
6, 519840, Note_on_c, 1, 55, 64
6, 519956, Note_on_c, 1, 55, 0
6, 519960, Note_on_c, 1, 54, 64
6, 520076, Note_on_c, 1, 54, 0
6, 520080, Note_on_c, 1, 55, 64
6, 520196, Note_on_c, 1, 55, 0
6, 520200, Note_on_c, 1, 57, 64
6, 520316, Note_on_c, 1, 57, 0
6, 520320, Note_on_c, 1, 59, 64
6, 520436, Note_on_c, 1, 59, 0
6, 520440, Note_on_c, 1, 60, 64
6, 520556, Note_on_c, 1, 60, 0
6, 520560, Note_on_c, 1, 62, 64
6, 520676, Note_on_c, 1, 62, 0
6, 520680, Note_on_c, 1, 64, 64
6, 520796, Note_on_c, 1, 64, 0
6, 520800, Note_on_c, 1, 62, 64
6, 520916, Note_on_c, 1, 62, 0
6, 520920, Note_on_c, 1, 60, 64
6, 521036, Note_on_c, 1, 60, 0
6, 521040, Note_on_c, 1, 59, 64
6, 521156, Note_on_c, 1, 59, 0
6, 521160, Note_on_c, 1, 57, 64
6, 521276, Note_on_c, 1, 57, 0
6, 521280, Note_on_c, 1, 55, 64
6, 521516, Note_on_c, 1, 55, 0
6, 521520, Note_on_c, 1, 59, 64
6, 521756, Note_on_c, 1, 59, 0
6, 521760, Note_on_c, 1, 62, 64
6, 521996, Note_on_c, 1, 62, 0
6, 522000, Note_on_c, 1, 69, 64
6, 522236, Note_on_c, 1, 69, 0
6, 522240, Note_on_c, 1, 72, 64
6, 522476, Note_on_c, 1, 72, 0
6, 522480, Note_on_c, 1, 62, 64
6, 522716, Note_on_c, 1, 62, 0
6, 522720, Note_on_c, 1, 71, 64
6, 522956, Note_on_c, 1, 71, 0
6, 522960, Note_on_c, 1, 71, 64
6, 523196, Note_on_c, 1, 71, 0
6, 523200, Note_on_c, 1, 71, 64
6, 523436, Note_on_c, 1, 71, 0
6, 523440, Note_on_c, 1, 71, 64
6, 523676, Note_on_c, 1, 71, 0
6, 523680, Note_on_c, 1, 71, 64
6, 523916, Note_on_c, 1, 71, 0
6, 523920, Note_on_c, 1, 71, 64
6, 524156, Note_on_c, 1, 71, 0
6, 524160, Note_on_c, 1, 69, 64
6, 524396, Note_on_c, 1, 69, 0
6, 524400, Note_on_c, 1, 69, 64
6, 524636, Note_on_c, 1, 69, 0
6, 524640, Note_on_c, 1, 69, 64
6, 524876, Note_on_c, 1, 69, 0
6, 524880, Note_on_c, 1, 69, 64
6, 525116, Note_on_c, 1, 69, 0
6, 525120, Note_on_c, 1, 69, 64
6, 525356, Note_on_c, 1, 69, 0
6, 525360, Note_on_c, 1, 69, 64
6, 525596, Note_on_c, 1, 69, 0
6, 525600, Note_on_c, 1, 67, 64
6, 525836, Note_on_c, 1, 67, 0
6, 525840, Note_on_c, 1, 67, 64
6, 526076, Note_on_c, 1, 67, 0
6, 526080, Note_on_c, 1, 67, 64
6, 526316, Note_on_c, 1, 67, 0
6, 526320, Note_on_c, 1, 67, 64
6, 526556, Note_on_c, 1, 67, 0
6, 526560, Note_on_c, 1, 67, 64
6, 526796, Note_on_c, 1, 67, 0
6, 526800, Note_on_c, 1, 67, 64
6, 527036, Note_on_c, 1, 67, 0
6, 527040, Note_on_c, 1, 66, 64
6, 527276, Note_on_c, 1, 66, 0
6, 527280, Note_on_c, 1, 69, 64
6, 527516, Note_on_c, 1, 69, 0
6, 527520, Note_on_c, 1, 74, 64
6, 527756, Note_on_c, 1, 74, 0
6, 527760, Note_on_c, 1, 67, 64
6, 527996, Note_on_c, 1, 67, 0
6, 528000, Note_on_c, 1, 71, 64
6, 528236, Note_on_c, 1, 71, 0
6, 528240, Note_on_c, 1, 74, 64
6, 528476, Note_on_c, 1, 74, 0
6, 528480, Note_on_c, 1, 66, 64
6, 528596, Note_on_c, 1, 66, 0
6, 528600, Note_on_c, 1, 69, 64
6, 528716, Note_on_c, 1, 69, 0
6, 528720, Note_on_c, 1, 62, 64
6, 528836, Note_on_c, 1, 62, 0
6, 528840, Note_on_c, 1, 69, 64
6, 528956, Note_on_c, 1, 69, 0
6, 528960, Note_on_c, 1, 66, 64
6, 529076, Note_on_c, 1, 66, 0
6, 529080, Note_on_c, 1, 69, 64
6, 529196, Note_on_c, 1, 69, 0
6, 529200, Note_on_c, 1, 67, 64
6, 529316, Note_on_c, 1, 67, 0
6, 529320, Note_on_c, 1, 71, 64
6, 529436, Note_on_c, 1, 71, 0
6, 529440, Note_on_c, 1, 62, 64
6, 529556, Note_on_c, 1, 62, 0
6, 529560, Note_on_c, 1, 71, 64
6, 529676, Note_on_c, 1, 71, 0
6, 529680, Note_on_c, 1, 67, 64
6, 529796, Note_on_c, 1, 67, 0
6, 529800, Note_on_c, 1, 71, 64
6, 529916, Note_on_c, 1, 71, 0
6, 529920, Note_on_c, 1, 69, 64
6, 530036, Note_on_c, 1, 69, 0
6, 530040, Note_on_c, 1, 72, 64
6, 530156, Note_on_c, 1, 72, 0
6, 530160, Note_on_c, 1, 62, 64
6, 530276, Note_on_c, 1, 62, 0
6, 530280, Note_on_c, 1, 72, 64
6, 530396, Note_on_c, 1, 72, 0
6, 530400, Note_on_c, 1, 69, 64
6, 530516, Note_on_c, 1, 69, 0
6, 530520, Note_on_c, 1, 72, 64
6, 530636, Note_on_c, 1, 72, 0
6, 530640, Note_on_c, 1, 71, 64
6, 530756, Note_on_c, 1, 71, 0
6, 530760, Note_on_c, 1, 74, 64
6, 530876, Note_on_c, 1, 74, 0
6, 530880, Note_on_c, 1, 62, 64
6, 530996, Note_on_c, 1, 62, 0
6, 531000, Note_on_c, 1, 74, 64
6, 531116, Note_on_c, 1, 74, 0
6, 531120, Note_on_c, 1, 71, 64
6, 531236, Note_on_c, 1, 71, 0
6, 531240, Note_on_c, 1, 74, 64
6, 531356, Note_on_c, 1, 74, 0
6, 531360, Note_on_c, 1, 72, 64
6, 531476, Note_on_c, 1, 72, 0
6, 531480, Note_on_c, 1, 66, 64
6, 531596, Note_on_c, 1, 66, 0
6, 531600, Note_on_c, 1, 72, 64
6, 531716, Note_on_c, 1, 72, 0
6, 531720, Note_on_c, 1, 66, 64
6, 531836, Note_on_c, 1, 66, 0
6, 531840, Note_on_c, 1, 72, 64
6, 531956, Note_on_c, 1, 72, 0
6, 531960, Note_on_c, 1, 66, 64
6, 532076, Note_on_c, 1, 66, 0
6, 532080, Note_on_c, 1, 71, 64
6, 532196, Note_on_c, 1, 71, 0
6, 532200, Note_on_c, 1, 67, 64
6, 532316, Note_on_c, 1, 67, 0
6, 532320, Note_on_c, 1, 71, 64
6, 532436, Note_on_c, 1, 71, 0
6, 532440, Note_on_c, 1, 67, 64
6, 532556, Note_on_c, 1, 67, 0
6, 532560, Note_on_c, 1, 71, 64
6, 532676, Note_on_c, 1, 71, 0
6, 532680, Note_on_c, 1, 67, 64
6, 532796, Note_on_c, 1, 67, 0
6, 532800, Note_on_c, 1, 66, 64
6, 532916, Note_on_c, 1, 66, 0
6, 532920, Note_on_c, 1, 69, 64
6, 533036, Note_on_c, 1, 69, 0
6, 533040, Note_on_c, 1, 62, 64
6, 533156, Note_on_c, 1, 62, 0
6, 533160, Note_on_c, 1, 69, 64
6, 533276, Note_on_c, 1, 69, 0
6, 533280, Note_on_c, 1, 66, 64
6, 533396, Note_on_c, 1, 66, 0
6, 533400, Note_on_c, 1, 69, 64
6, 533516, Note_on_c, 1, 69, 0
6, 533520, Note_on_c, 1, 66, 64
6, 533636, Note_on_c, 1, 66, 0
6, 533640, Note_on_c, 1, 69, 64
6, 533756, Note_on_c, 1, 69, 0
6, 533760, Note_on_c, 1, 62, 64
6, 533876, Note_on_c, 1, 62, 0
6, 533880, Note_on_c, 1, 69, 64
6, 533996, Note_on_c, 1, 69, 0
6, 534000, Note_on_c, 1, 66, 64
6, 534116, Note_on_c, 1, 66, 0
6, 534120, Note_on_c, 1, 69, 64
6, 534236, Note_on_c, 1, 69, 0
6, 534240, Note_on_c, 1, 67, 64
6, 534240, Note_on_c, 1, 71, 64
6, 534476, Note_on_c, 1, 71, 0
6, 534476, Note_on_c, 1, 67, 0
6, 534480, Note_on_c, 1, 55, 64
6, 534716, Note_on_c, 1, 55, 0
6, 534720, Note_on_c, 1, 55, 64
6, 534956, Note_on_c, 1, 55, 0
6, 534960, Note_on_c, 1, 55, 64
6, 535196, Note_on_c, 1, 55, 0
6, 535200, Note_on_c, 1, 55, 64
6, 535436, Note_on_c, 1, 55, 0
6, 535440, Note_on_c, 1, 55, 64
6, 535676, Note_on_c, 1, 55, 0
6, 535680, Note_on_c, 1, 55, 64
6, 535916, Note_on_c, 1, 55, 0
6, 535920, Note_on_c, 1, 55, 64
6, 536156, Note_on_c, 1, 55, 0
6, 536160, Note_on_c, 1, 55, 64
6, 536396, Note_on_c, 1, 55, 0
6, 536400, Note_on_c, 1, 55, 64
6, 536636, Note_on_c, 1, 55, 0
6, 536640, Note_on_c, 1, 55, 64
6, 536876, Note_on_c, 1, 55, 0
6, 536880, Note_on_c, 1, 55, 64
6, 537116, Note_on_c, 1, 55, 0
6, 537120, Note_on_c, 1, 62, 64
6, 537356, Note_on_c, 1, 62, 0
6, 537360, Note_on_c, 1, 62, 64
6, 537596, Note_on_c, 1, 62, 0
6, 537600, Note_on_c, 1, 62, 64
6, 537836, Note_on_c, 1, 62, 0
6, 537840, Note_on_c, 1, 62, 64
6, 538076, Note_on_c, 1, 62, 0
6, 538080, Note_on_c, 1, 62, 64
6, 538316, Note_on_c, 1, 62, 0
6, 538320, Note_on_c, 1, 62, 64
6, 538556, Note_on_c, 1, 62, 0
6, 538560, Note_on_c, 1, 62, 64
6, 538796, Note_on_c, 1, 62, 0
6, 538796, End_track
7, 0, Start_track
7, 0, Title_t, "Viola       III"
7, 0, Program_c, 2, 41
7, 0, Control_c, 2, 10, 55
7, 1680, Note_on_c, 2, 43, 64
7, 1916, Note_on_c, 2, 43, 0
7, 1920, Note_on_c, 2, 47, 64
7, 2156, Note_on_c, 2, 47, 0
7, 2160, Note_on_c, 2, 50, 64
7, 2396, Note_on_c, 2, 50, 0
7, 2400, Note_on_c, 2, 47, 64
7, 2636, Note_on_c, 2, 47, 0
7, 2640, Note_on_c, 2, 43, 64
7, 2876, Note_on_c, 2, 43, 0
7, 2880, Note_on_c, 2, 47, 64
7, 3116, Note_on_c, 2, 47, 0
7, 3120, Note_on_c, 2, 50, 64
7, 3356, Note_on_c, 2, 50, 0
7, 3360, Note_on_c, 2, 47, 64
7, 3596, Note_on_c, 2, 47, 0
7, 3600, Note_on_c, 2, 43, 64
7, 3836, Note_on_c, 2, 43, 0
7, 3840, Note_on_c, 2, 47, 64
7, 4076, Note_on_c, 2, 47, 0
7, 4080, Note_on_c, 2, 50, 64
7, 4316, Note_on_c, 2, 50, 0
7, 4320, Note_on_c, 2, 55, 64
7, 4436, Note_on_c, 2, 55, 0
7, 4440, Note_on_c, 2, 59, 64
7, 4556, Note_on_c, 2, 59, 0
7, 4560, Note_on_c, 2, 57, 64
7, 4676, Note_on_c, 2, 57, 0
7, 4680, Note_on_c, 2, 55, 64
7, 4796, Note_on_c, 2, 55, 0
7, 4800, Note_on_c, 2, 54, 64
7, 5036, Note_on_c, 2, 54, 0
7, 5040, Note_on_c, 2, 50, 64
7, 5276, Note_on_c, 2, 50, 0
7, 5520, Note_on_c, 2, 59, 64
7, 5756, Note_on_c, 2, 59, 0
7, 5760, Note_on_c, 2, 55, 64
7, 5996, Note_on_c, 2, 55, 0
7, 6000, Note_on_c, 2, 50, 64
7, 6236, Note_on_c, 2, 50, 0
7, 6480, Note_on_c, 2, 55, 64
7, 6716, Note_on_c, 2, 55, 0
7, 6720, Note_on_c, 2, 54, 64
7, 6956, Note_on_c, 2, 54, 0
7, 6960, Note_on_c, 2, 50, 64
7, 7196, Note_on_c, 2, 50, 0
7, 7440, Note_on_c, 2, 57, 64
7, 7676, Note_on_c, 2, 57, 0
7, 7680, Note_on_c, 2, 50, 64
7, 7916, Note_on_c, 2, 50, 0
7, 7920, Note_on_c, 2, 48, 64
7, 8036, Note_on_c, 2, 48, 0
7, 8040, Note_on_c, 2, 47, 64
7, 8156, Note_on_c, 2, 47, 0
7, 8160, Note_on_c, 2, 48, 64
7, 8396, Note_on_c, 2, 48, 0
7, 8400, Note_on_c, 2, 47, 64
7, 8516, Note_on_c, 2, 47, 0
7, 8520, Note_on_c, 2, 45, 64
7, 8636, Note_on_c, 2, 45, 0
7, 8640, Note_on_c, 2, 43, 64
7, 8876, Note_on_c, 2, 43, 0
7, 8880, Note_on_c, 2, 55, 64
7, 9116, Note_on_c, 2, 55, 0
7, 9120, Note_on_c, 2, 55, 64
7, 9356, Note_on_c, 2, 55, 0
7, 9360, Note_on_c, 2, 43, 64
7, 9596, Note_on_c, 2, 43, 0
7, 9600, Note_on_c, 2, 43, 64
7, 9836, Note_on_c, 2, 43, 0
7, 9840, Note_on_c, 2, 55, 64
7, 10076, Note_on_c, 2, 55, 0
7, 10080, Note_on_c, 2, 55, 64
7, 10316, Note_on_c, 2, 55, 0
7, 10320, Note_on_c, 2, 43, 64
7, 10556, Note_on_c, 2, 43, 0
7, 10560, Note_on_c, 2, 43, 64
7, 10796, Note_on_c, 2, 43, 0
7, 10800, Note_on_c, 2, 55, 64
7, 11036, Note_on_c, 2, 55, 0
7, 11040, Note_on_c, 2, 55, 64
7, 11276, Note_on_c, 2, 55, 0
7, 11280, Note_on_c, 2, 43, 64
7, 11516, Note_on_c, 2, 43, 0
7, 11520, Note_on_c, 2, 43, 64
7, 11756, Note_on_c, 2, 43, 0
7, 11760, Note_on_c, 2, 55, 64
7, 11996, Note_on_c, 2, 55, 0
7, 12000, Note_on_c, 2, 55, 64
7, 12236, Note_on_c, 2, 55, 0
7, 12240, Note_on_c, 2, 55, 64
7, 12476, Note_on_c, 2, 55, 0
7, 12480, Note_on_c, 2, 57, 64
7, 12716, Note_on_c, 2, 57, 0
7, 12720, Note_on_c, 2, 59, 64
7, 12956, Note_on_c, 2, 59, 0
7, 12960, Note_on_c, 2, 60, 64
7, 13196, Note_on_c, 2, 60, 0
7, 13200, Note_on_c, 2, 62, 64
7, 13436, Note_on_c, 2, 62, 0
7, 13440, Note_on_c, 2, 59, 64
7, 13676, Note_on_c, 2, 59, 0
7, 13680, Note_on_c, 2, 57, 64
7, 13796, Note_on_c, 2, 57, 0
7, 13800, Note_on_c, 2, 55, 64
7, 13916, Note_on_c, 2, 55, 0
7, 13920, Note_on_c, 2, 50, 64
7, 14156, Note_on_c, 2, 50, 0
7, 14160, Note_on_c, 2, 55, 64
7, 14396, Note_on_c, 2, 55, 0
7, 14400, Note_on_c, 2, 55, 64
7, 14636, Note_on_c, 2, 55, 0
7, 14640, Note_on_c, 2, 55, 64
7, 14756, Note_on_c, 2, 55, 0
7, 14760, Note_on_c, 2, 52, 64
7, 14876, Note_on_c, 2, 52, 0
7, 14880, Note_on_c, 2, 50, 64
7, 14996, Note_on_c, 2, 50, 0
7, 15000, Note_on_c, 2, 48, 64
7, 15116, Note_on_c, 2, 48, 0
7, 15120, Note_on_c, 2, 47, 64
7, 15236, Note_on_c, 2, 47, 0
7, 15240, Note_on_c, 2, 45, 64
7, 15356, Note_on_c, 2, 45, 0
7, 15360, Note_on_c, 2, 47, 64
7, 15596, Note_on_c, 2, 47, 0
7, 15600, Note_on_c, 2, 45, 64
7, 15716, Note_on_c, 2, 45, 0
7, 15720, Note_on_c, 2, 43, 64
7, 15836, Note_on_c, 2, 43, 0
7, 15840, Note_on_c, 2, 50, 64
7, 16076, Note_on_c, 2, 50, 0
7, 16080, Note_on_c, 2, 38, 64
7, 16316, Note_on_c, 2, 38, 0
7, 16320, Note_on_c, 2, 43, 64
7, 16556, Note_on_c, 2, 43, 0
7, 16560, Note_on_c, 2, 50, 64
7, 16796, Note_on_c, 2, 50, 0
7, 16800, Note_on_c, 2, 55, 64
7, 17036, Note_on_c, 2, 55, 0
7, 18000, Note_on_c, 2, 50, 64
7, 18116, Note_on_c, 2, 50, 0
7, 18120, Note_on_c, 2, 48, 64
7, 18236, Note_on_c, 2, 48, 0
7, 18240, Note_on_c, 2, 50, 64
7, 18476, Note_on_c, 2, 50, 0
7, 18480, Note_on_c, 2, 47, 64
7, 18596, Note_on_c, 2, 47, 0
7, 18600, Note_on_c, 2, 45, 64
7, 18716, Note_on_c, 2, 45, 0
7, 18720, Note_on_c, 2, 47, 64
7, 18956, Note_on_c, 2, 47, 0
7, 19440, Note_on_c, 2, 71, 64
7, 19556, Note_on_c, 2, 71, 0
7, 19560, Note_on_c, 2, 72, 64
7, 19676, Note_on_c, 2, 72, 0
7, 19680, Note_on_c, 2, 74, 64
7, 19916, Note_on_c, 2, 74, 0
7, 19920, Note_on_c, 2, 76, 64
7, 20156, Note_on_c, 2, 76, 0
7, 20160, Note_on_c, 2, 69, 64
7, 20396, Note_on_c, 2, 69, 0
7, 20400, Note_on_c, 2, 66, 64
7, 20400, Note_on_c, 2, 74, 64
7, 20516, Note_on_c, 2, 74, 0
7, 20516, Note_on_c, 2, 66, 0
7, 20520, Note_on_c, 2, 64, 64
7, 20520, Note_on_c, 2, 73, 64
7, 20636, Note_on_c, 2, 73, 0
7, 20636, Note_on_c, 2, 64, 0
7, 20640, Note_on_c, 2, 62, 64
7, 20640, Note_on_c, 2, 74, 64
7, 20876, Note_on_c, 2, 74, 0
7, 20876, Note_on_c, 2, 62, 0
7, 21360, Note_on_c, 2, 66, 64
7, 21476, Note_on_c, 2, 66, 0
7, 21480, Note_on_c, 2, 64, 64
7, 21596, Note_on_c, 2, 64, 0
7, 21600, Note_on_c, 2, 62, 64
7, 21836, Note_on_c, 2, 62, 0
7, 22320, Note_on_c, 2, 66, 64
7, 22436, Note_on_c, 2, 66, 0
7, 22440, Note_on_c, 2, 64, 64
7, 22556, Note_on_c, 2, 64, 0
7, 22560, Note_on_c, 2, 62, 64
7, 22796, Note_on_c, 2, 62, 0
7, 22800, Note_on_c, 2, 69, 64
7, 23036, Note_on_c, 2, 69, 0
7, 23040, Note_on_c, 2, 69, 64
7, 23276, Note_on_c, 2, 69, 0
7, 23280, Note_on_c, 2, 67, 64
7, 23396, Note_on_c, 2, 67, 0
7, 23400, Note_on_c, 2, 66, 64
7, 23516, Note_on_c, 2, 66, 0
7, 23520, Note_on_c, 2, 67, 64
7, 23756, Note_on_c, 2, 67, 0
7, 23760, Note_on_c, 2, 66, 64
7, 23876, Note_on_c, 2, 66, 0
7, 23880, Note_on_c, 2, 64, 64
7, 23996, Note_on_c, 2, 64, 0
7, 24000, Note_on_c, 2, 62, 64
7, 24236, Note_on_c, 2, 62, 0
7, 24240, Note_on_c, 2, 74, 64
7, 24476, Note_on_c, 2, 74, 0
7, 24480, Note_on_c, 2, 74, 64
7, 24716, Note_on_c, 2, 74, 0
7, 24720, Note_on_c, 2, 62, 64
7, 24956, Note_on_c, 2, 62, 0
7, 24960, Note_on_c, 2, 62, 64
7, 25196, Note_on_c, 2, 62, 0
7, 25200, Note_on_c, 2, 74, 64
7, 25436, Note_on_c, 2, 74, 0
7, 25440, Note_on_c, 2, 74, 64
7, 25676, Note_on_c, 2, 74, 0
7, 25680, Note_on_c, 2, 62, 64
7, 25916, Note_on_c, 2, 62, 0
7, 25920, Note_on_c, 2, 62, 64
7, 26156, Note_on_c, 2, 62, 0
7, 26160, Note_on_c, 2, 74, 64
7, 26396, Note_on_c, 2, 74, 0
7, 26400, Note_on_c, 2, 74, 64
7, 26636, Note_on_c, 2, 74, 0
7, 26640, Note_on_c, 2, 62, 64
7, 26876, Note_on_c, 2, 62, 0
7, 26880, Note_on_c, 2, 62, 64
7, 27116, Note_on_c, 2, 62, 0
7, 27120, Note_on_c, 2, 74, 64
7, 27356, Note_on_c, 2, 74, 0
7, 27360, Note_on_c, 2, 73, 64
7, 27596, Note_on_c, 2, 73, 0
7, 27600, Note_on_c, 2, 71, 64
7, 27836, Note_on_c, 2, 71, 0
7, 27840, Note_on_c, 2, 69, 64
7, 28076, Note_on_c, 2, 69, 0
7, 28080, Note_on_c, 2, 62, 64
7, 28316, Note_on_c, 2, 62, 0
7, 28320, Note_on_c, 2, 61, 64
7, 28556, Note_on_c, 2, 61, 0
7, 28560, Note_on_c, 2, 64, 64
7, 28796, Note_on_c, 2, 64, 0
7, 28800, Note_on_c, 2, 62, 64
7, 29036, Note_on_c, 2, 62, 0
7, 29040, Note_on_c, 2, 64, 64
7, 29156, Note_on_c, 2, 64, 0
7, 29160, Note_on_c, 2, 66, 64
7, 29276, Note_on_c, 2, 66, 0
7, 29280, Note_on_c, 2, 64, 64
7, 29516, Note_on_c, 2, 64, 0
7, 29520, Note_on_c, 2, 69, 64
7, 29756, Note_on_c, 2, 69, 0
7, 29760, Note_on_c, 2, 66, 64
7, 30236, Note_on_c, 2, 66, 0
7, 31440, Note_on_c, 2, 62, 64
7, 31556, Note_on_c, 2, 62, 0
7, 31560, Note_on_c, 2, 60, 64
7, 31676, Note_on_c, 2, 60, 0
7, 31680, Note_on_c, 2, 62, 64
7, 31916, Note_on_c, 2, 62, 0
7, 31920, Note_on_c, 2, 59, 64
7, 32036, Note_on_c, 2, 59, 0
7, 32040, Note_on_c, 2, 57, 64
7, 32156, Note_on_c, 2, 57, 0
7, 32160, Note_on_c, 2, 59, 64
7, 32396, Note_on_c, 2, 59, 0
7, 32880, Note_on_c, 2, 62, 64
7, 33116, Note_on_c, 2, 62, 0
7, 33120, Note_on_c, 2, 67, 64
7, 33236, Note_on_c, 2, 67, 0
7, 33240, Note_on_c, 2, 71, 64
7, 33356, Note_on_c, 2, 71, 0
7, 33360, Note_on_c, 2, 69, 64
7, 33476, Note_on_c, 2, 69, 0
7, 33480, Note_on_c, 2, 67, 64
7, 33596, Note_on_c, 2, 67, 0
7, 33600, Note_on_c, 2, 66, 64
7, 34076, Note_on_c, 2, 66, 0
7, 34320, Note_on_c, 2, 61, 64
7, 34556, Note_on_c, 2, 61, 0
7, 34560, Note_on_c, 2, 62, 64
7, 35036, Note_on_c, 2, 62, 0
7, 35280, Note_on_c, 2, 64, 64
7, 35516, Note_on_c, 2, 64, 0
7, 35520, Note_on_c, 2, 66, 64
7, 35636, Note_on_c, 2, 66, 0
7, 35640, Note_on_c, 2, 69, 64
7, 35756, Note_on_c, 2, 69, 0
7, 35760, Note_on_c, 2, 62, 64
7, 35876, Note_on_c, 2, 62, 0
7, 35880, Note_on_c, 2, 64, 64
7, 35996, Note_on_c, 2, 64, 0
7, 36000, Note_on_c, 2, 66, 64
7, 36116, Note_on_c, 2, 66, 0
7, 36120, Note_on_c, 2, 67, 64
7, 36236, Note_on_c, 2, 67, 0
7, 36240, Note_on_c, 2, 69, 64
7, 36356, Note_on_c, 2, 69, 0
7, 36360, Note_on_c, 2, 67, 64
7, 36476, Note_on_c, 2, 67, 0
7, 36480, Note_on_c, 2, 66, 64
7, 36716, Note_on_c, 2, 66, 0
7, 36720, Note_on_c, 2, 69, 64
7, 36836, Note_on_c, 2, 69, 0
7, 36840, Note_on_c, 2, 67, 64
7, 36956, Note_on_c, 2, 67, 0
7, 36960, Note_on_c, 2, 69, 64
7, 37196, Note_on_c, 2, 69, 0
7, 37200, Note_on_c, 2, 74, 64
7, 37316, Note_on_c, 2, 74, 0
7, 37320, Note_on_c, 2, 73, 64
7, 37436, Note_on_c, 2, 73, 0
7, 37440, Note_on_c, 2, 74, 64
7, 37676, Note_on_c, 2, 74, 0
7, 37680, Note_on_c, 2, 66, 64
7, 37796, Note_on_c, 2, 66, 0
7, 37800, Note_on_c, 2, 64, 64
7, 37916, Note_on_c, 2, 64, 0
7, 37920, Note_on_c, 2, 66, 64
7, 38156, Note_on_c, 2, 66, 0
7, 38160, Note_on_c, 2, 74, 64
7, 38276, Note_on_c, 2, 74, 0
7, 38280, Note_on_c, 2, 73, 64
7, 38396, Note_on_c, 2, 73, 0
7, 38400, Note_on_c, 2, 74, 64
7, 38636, Note_on_c, 2, 74, 0
7, 38640, Note_on_c, 2, 62, 64
7, 38756, Note_on_c, 2, 62, 0
7, 38760, Note_on_c, 2, 64, 64
7, 38876, Note_on_c, 2, 64, 0
7, 38880, Note_on_c, 2, 66, 64
7, 39116, Note_on_c, 2, 66, 0
7, 39120, Note_on_c, 2, 68, 64
7, 39356, Note_on_c, 2, 68, 0
7, 39360, Note_on_c, 2, 69, 64
7, 39596, Note_on_c, 2, 69, 0
7, 39600, Note_on_c, 2, 64, 64
7, 39716, Note_on_c, 2, 64, 0
7, 39720, Note_on_c, 2, 62, 64
7, 39836, Note_on_c, 2, 62, 0
7, 39840, Note_on_c, 2, 64, 64
7, 40076, Note_on_c, 2, 64, 0
7, 40560, Note_on_c, 2, 64, 64
7, 40676, Note_on_c, 2, 64, 0
7, 40680, Note_on_c, 2, 63, 64
7, 40796, Note_on_c, 2, 63, 0
7, 40800, Note_on_c, 2, 64, 64
7, 41036, Note_on_c, 2, 64, 0
7, 41520, Note_on_c, 2, 62, 64
7, 41636, Note_on_c, 2, 62, 0
7, 41640, Note_on_c, 2, 61, 64
7, 41756, Note_on_c, 2, 61, 0
7, 41760, Note_on_c, 2, 59, 64
7, 41996, Note_on_c, 2, 59, 0
7, 42480, Note_on_c, 2, 66, 64
7, 42596, Note_on_c, 2, 66, 0
7, 42600, Note_on_c, 2, 67, 64
7, 42716, Note_on_c, 2, 67, 0
7, 42720, Note_on_c, 2, 66, 64
7, 42956, Note_on_c, 2, 66, 0
7, 42960, Note_on_c, 2, 67, 64
7, 43196, Note_on_c, 2, 67, 0
7, 43200, Note_on_c, 2, 67, 64
7, 43436, Note_on_c, 2, 67, 0
7, 43440, Note_on_c, 2, 64, 64
7, 43556, Note_on_c, 2, 64, 0
7, 43560, Note_on_c, 2, 66, 64
7, 43676, Note_on_c, 2, 66, 0
7, 43680, Note_on_c, 2, 64, 64
7, 43916, Note_on_c, 2, 64, 0
7, 43920, Note_on_c, 2, 66, 64
7, 44036, Note_on_c, 2, 66, 0
7, 44040, Note_on_c, 2, 67, 64
7, 44156, Note_on_c, 2, 67, 0
7, 44160, Note_on_c, 2, 66, 64
7, 44396, Note_on_c, 2, 66, 0
7, 44400, Note_on_c, 2, 59, 64
7, 44636, Note_on_c, 2, 59, 0
7, 44640, Note_on_c, 2, 61, 64
7, 44876, Note_on_c, 2, 61, 0
7, 44880, Note_on_c, 2, 61, 64
7, 45116, Note_on_c, 2, 61, 0
7, 45120, Note_on_c, 2, 57, 64
7, 45356, Note_on_c, 2, 57, 0
7, 45360, Note_on_c, 2, 57, 64
7, 45596, Note_on_c, 2, 57, 0
7, 45600, Note_on_c, 2, 57, 64
7, 45836, Note_on_c, 2, 57, 0
7, 45840, Note_on_c, 2, 59, 64
7, 46076, Note_on_c, 2, 59, 0
7, 46080, Note_on_c, 2, 54, 64
7, 46316, Note_on_c, 2, 54, 0
7, 46320, Note_on_c, 2, 54, 64
7, 46556, Note_on_c, 2, 54, 0
7, 46560, Note_on_c, 2, 54, 64
7, 46796, Note_on_c, 2, 54, 0
7, 46800, Note_on_c, 2, 55, 64
7, 47036, Note_on_c, 2, 55, 0
7, 47040, Note_on_c, 2, 57, 64
7, 47276, Note_on_c, 2, 57, 0
7, 47760, Note_on_c, 2, 62, 64
7, 47876, Note_on_c, 2, 62, 0
7, 47880, Note_on_c, 2, 61, 64
7, 47996, Note_on_c, 2, 61, 0
7, 48000, Note_on_c, 2, 62, 64
7, 48236, Note_on_c, 2, 62, 0
7, 48720, Note_on_c, 2, 62, 64
7, 48836, Note_on_c, 2, 62, 0
7, 48840, Note_on_c, 2, 61, 64
7, 48956, Note_on_c, 2, 61, 0
7, 48960, Note_on_c, 2, 62, 64
7, 49196, Note_on_c, 2, 62, 0
7, 49200, Note_on_c, 2, 57, 64
7, 49436, Note_on_c, 2, 57, 0
7, 49440, Note_on_c, 2, 57, 64
7, 49676, Note_on_c, 2, 57, 0
7, 49680, Note_on_c, 2, 62, 64
7, 49916, Note_on_c, 2, 62, 0
7, 49920, Note_on_c, 2, 62, 64
7, 50156, Note_on_c, 2, 62, 0
7, 50160, Note_on_c, 2, 62, 64
7, 50396, Note_on_c, 2, 62, 0
7, 50400, Note_on_c, 2, 62, 64
7, 50636, Note_on_c, 2, 62, 0
7, 50640, Note_on_c, 2, 64, 64
7, 50876, Note_on_c, 2, 64, 0
7, 50880, Note_on_c, 2, 59, 64
7, 51116, Note_on_c, 2, 59, 0
7, 51120, Note_on_c, 2, 59, 64
7, 51356, Note_on_c, 2, 59, 0
7, 51360, Note_on_c, 2, 59, 64
7, 51596, Note_on_c, 2, 59, 0
7, 51600, Note_on_c, 2, 60, 64
7, 51836, Note_on_c, 2, 60, 0
7, 51840, Note_on_c, 2, 62, 64
7, 52076, Note_on_c, 2, 62, 0
7, 52560, Note_on_c, 2, 55, 64
7, 52676, Note_on_c, 2, 55, 0
7, 52680, Note_on_c, 2, 54, 64
7, 52796, Note_on_c, 2, 54, 0
7, 52800, Note_on_c, 2, 55, 64
7, 53036, Note_on_c, 2, 55, 0
7, 53520, Note_on_c, 2, 55, 64
7, 53756, Note_on_c, 2, 55, 0
7, 53760, Note_on_c, 2, 55, 64
7, 53760, Note_on_c, 2, 54, 64
7, 53996, Note_on_c, 2, 54, 0
7, 53996, Note_on_c, 2, 55, 0
7, 54000, Note_on_c, 2, 50, 64
7, 54236, Note_on_c, 2, 50, 0
7, 54240, Note_on_c, 2, 50, 64
7, 54476, Note_on_c, 2, 50, 0
7, 54480, Note_on_c, 2, 55, 64
7, 54716, Note_on_c, 2, 55, 0
7, 54720, Note_on_c, 2, 55, 64
7, 54836, Note_on_c, 2, 55, 0
7, 54840, Note_on_c, 2, 59, 64
7, 54956, Note_on_c, 2, 59, 0
7, 54960, Note_on_c, 2, 60, 64
7, 55076, Note_on_c, 2, 60, 0
7, 55080, Note_on_c, 2, 62, 64
7, 55196, Note_on_c, 2, 62, 0
7, 55200, Note_on_c, 2, 64, 64
7, 55316, Note_on_c, 2, 64, 0
7, 55320, Note_on_c, 2, 62, 64
7, 55436, Note_on_c, 2, 62, 0
7, 55440, Note_on_c, 2, 64, 64
7, 55556, Note_on_c, 2, 64, 0
7, 55560, Note_on_c, 2, 65, 64
7, 55676, Note_on_c, 2, 65, 0
7, 55680, Note_on_c, 2, 67, 64
7, 55916, Note_on_c, 2, 67, 0
7, 55920, Note_on_c, 2, 60, 64
7, 56156, Note_on_c, 2, 60, 0
7, 56160, Note_on_c, 2, 60, 64
7, 56396, Note_on_c, 2, 60, 0
7, 56400, Note_on_c, 2, 57, 64
7, 56516, Note_on_c, 2, 57, 0
7, 56520, Note_on_c, 2, 59, 64
7, 56636, Note_on_c, 2, 59, 0
7, 56640, Note_on_c, 2, 57, 64
7, 56876, Note_on_c, 2, 57, 0
7, 56880, Note_on_c, 2, 59, 64
7, 57116, Note_on_c, 2, 59, 0
7, 57120, Note_on_c, 2, 59, 64
7, 57356, Note_on_c, 2, 59, 0
7, 57360, Note_on_c, 2, 55, 64
7, 57476, Note_on_c, 2, 55, 0
7, 57480, Note_on_c, 2, 57, 64
7, 57596, Note_on_c, 2, 57, 0
7, 57600, Note_on_c, 2, 55, 64
7, 57836, Note_on_c, 2, 55, 0
7, 57840, Note_on_c, 2, 57, 64
7, 58076, Note_on_c, 2, 57, 0
7, 58080, Note_on_c, 2, 57, 64
7, 58316, Note_on_c, 2, 57, 0
7, 58320, Note_on_c, 2, 57, 64
7, 58556, Note_on_c, 2, 57, 0
7, 58560, Note_on_c, 2, 50, 64
7, 58796, Note_on_c, 2, 50, 0
7, 58800, Note_on_c, 2, 55, 64
7, 59036, Note_on_c, 2, 55, 0
7, 59040, Note_on_c, 2, 55, 64
7, 59276, Note_on_c, 2, 55, 0
7, 59280, Note_on_c, 2, 55, 64
7, 59516, Note_on_c, 2, 55, 0
7, 59520, Note_on_c, 2, 55, 64
7, 59756, Note_on_c, 2, 55, 0
7, 59760, Note_on_c, 2, 55, 64
7, 59996, Note_on_c, 2, 55, 0
7, 60000, Note_on_c, 2, 55, 64
7, 60236, Note_on_c, 2, 55, 0
7, 60240, Note_on_c, 2, 55, 64
7, 60476, Note_on_c, 2, 55, 0
7, 60480, Note_on_c, 2, 55, 64
7, 60956, Note_on_c, 2, 55, 0
7, 61200, Note_on_c, 2, 60, 64
7, 61436, Note_on_c, 2, 60, 0
7, 61440, Note_on_c, 2, 64, 64
7, 61676, Note_on_c, 2, 64, 0
7, 61680, Note_on_c, 2, 67, 64
7, 61916, Note_on_c, 2, 67, 0
7, 61920, Note_on_c, 2, 64, 64
7, 62156, Note_on_c, 2, 64, 0
7, 62160, Note_on_c, 2, 60, 64
7, 62396, Note_on_c, 2, 60, 0
7, 62400, Note_on_c, 2, 64, 64
7, 62636, Note_on_c, 2, 64, 0
7, 62640, Note_on_c, 2, 67, 64
7, 62876, Note_on_c, 2, 67, 0
7, 62880, Note_on_c, 2, 64, 64
7, 63116, Note_on_c, 2, 64, 0
7, 63120, Note_on_c, 2, 60, 64
7, 63356, Note_on_c, 2, 60, 0
7, 63360, Note_on_c, 2, 67, 64
7, 63596, Note_on_c, 2, 67, 0
7, 63600, Note_on_c, 2, 67, 64
7, 63716, Note_on_c, 2, 67, 0
7, 63720, Note_on_c, 2, 67, 64
7, 63836, Note_on_c, 2, 67, 0
7, 63840, Note_on_c, 2, 67, 64
7, 64076, Note_on_c, 2, 67, 0
7, 64320, Note_on_c, 2, 59, 64
7, 64436, Note_on_c, 2, 59, 0
7, 64440, Note_on_c, 2, 57, 64
7, 64556, Note_on_c, 2, 57, 0
7, 64560, Note_on_c, 2, 59, 64
7, 64676, Note_on_c, 2, 59, 0
7, 64680, Note_on_c, 2, 60, 64
7, 64796, Note_on_c, 2, 60, 0
7, 64800, Note_on_c, 2, 59, 64
7, 64916, Note_on_c, 2, 59, 0
7, 64920, Note_on_c, 2, 62, 64
7, 65036, Note_on_c, 2, 62, 0
7, 65040, Note_on_c, 2, 60, 64
7, 65156, Note_on_c, 2, 60, 0
7, 65160, Note_on_c, 2, 64, 64
7, 65276, Note_on_c, 2, 64, 0
7, 65280, Note_on_c, 2, 62, 64
7, 65396, Note_on_c, 2, 62, 0
7, 65400, Note_on_c, 2, 60, 64
7, 65516, Note_on_c, 2, 60, 0
7, 65520, Note_on_c, 2, 62, 64
7, 65636, Note_on_c, 2, 62, 0
7, 65640, Note_on_c, 2, 64, 64
7, 65756, Note_on_c, 2, 64, 0
7, 65760, Note_on_c, 2, 62, 64
7, 65876, Note_on_c, 2, 62, 0
7, 65880, Note_on_c, 2, 65, 64
7, 65996, Note_on_c, 2, 65, 0
7, 66000, Note_on_c, 2, 62, 64
7, 66116, Note_on_c, 2, 62, 0
7, 66120, Note_on_c, 2, 67, 64
7, 66236, Note_on_c, 2, 67, 0
7, 66240, Note_on_c, 2, 62, 64
7, 66356, Note_on_c, 2, 62, 0
7, 66360, Note_on_c, 2, 67, 64
7, 66476, Note_on_c, 2, 67, 0
7, 66480, Note_on_c, 2, 62, 64
7, 66596, Note_on_c, 2, 62, 0
7, 66600, Note_on_c, 2, 66, 64
7, 66716, Note_on_c, 2, 66, 0
7, 66720, Note_on_c, 2, 62, 64
7, 66836, Note_on_c, 2, 62, 0
7, 66840, Note_on_c, 2, 67, 64
7, 66956, Note_on_c, 2, 67, 0
7, 66960, Note_on_c, 2, 62, 64
7, 67076, Note_on_c, 2, 62, 0
7, 67080, Note_on_c, 2, 66, 64
7, 67196, Note_on_c, 2, 66, 0
7, 67200, Note_on_c, 2, 62, 64
7, 67316, Note_on_c, 2, 62, 0
7, 67320, Note_on_c, 2, 64, 64
7, 67436, Note_on_c, 2, 64, 0
7, 67440, Note_on_c, 2, 62, 64
7, 67556, Note_on_c, 2, 62, 0
7, 67560, Note_on_c, 2, 60, 64
7, 67676, Note_on_c, 2, 60, 0
7, 67680, Note_on_c, 2, 62, 64
7, 67916, Note_on_c, 2, 62, 0
7, 67920, Note_on_c, 2, 57, 64
7, 68156, Note_on_c, 2, 57, 0
7, 68160, Note_on_c, 2, 57, 64
7, 68636, Note_on_c, 2, 57, 0
7, 68880, Note_on_c, 2, 55, 64
7, 69116, Note_on_c, 2, 55, 0
7, 69120, Note_on_c, 2, 57, 64
7, 69356, Note_on_c, 2, 57, 0
7, 69840, Note_on_c, 2, 59, 64
7, 70076, Note_on_c, 2, 59, 0
7, 70080, Note_on_c, 2, 60, 64
7, 70316, Note_on_c, 2, 60, 0
7, 70800, Note_on_c, 2, 62, 64
7, 71036, Note_on_c, 2, 62, 0
7, 71040, Note_on_c, 2, 55, 64
7, 71276, Note_on_c, 2, 55, 0
7, 71280, Note_on_c, 2, 55, 64
7, 71516, Note_on_c, 2, 55, 0
7, 71520, Note_on_c, 2, 48, 64
7, 71756, Note_on_c, 2, 48, 0
7, 71760, Note_on_c, 2, 57, 64
7, 71996, Note_on_c, 2, 57, 0
7, 72000, Note_on_c, 2, 50, 64
7, 72236, Note_on_c, 2, 50, 0
7, 72240, Note_on_c, 2, 67, 64
7, 72476, Note_on_c, 2, 67, 0
7, 72480, Note_on_c, 2, 62, 64
7, 72716, Note_on_c, 2, 62, 0
7, 72720, Note_on_c, 2, 59, 64
7, 72956, Note_on_c, 2, 59, 0
7, 73200, Note_on_c, 2, 59, 64
7, 73316, Note_on_c, 2, 59, 0
7, 73320, Note_on_c, 2, 57, 64
7, 73436, Note_on_c, 2, 57, 0
7, 73440, Note_on_c, 2, 59, 64
7, 73676, Note_on_c, 2, 59, 0
7, 73680, Note_on_c, 2, 62, 64
7, 73796, Note_on_c, 2, 62, 0
7, 73800, Note_on_c, 2, 60, 64
7, 73916, Note_on_c, 2, 60, 0
7, 73920, Note_on_c, 2, 62, 64
7, 74156, Note_on_c, 2, 62, 0
7, 75600, Note_on_c, 2, 59, 64
7, 75716, Note_on_c, 2, 59, 0
7, 75720, Note_on_c, 2, 57, 64
7, 75836, Note_on_c, 2, 57, 0
7, 75840, Note_on_c, 2, 59, 64
7, 76076, Note_on_c, 2, 59, 0
7, 76080, Note_on_c, 2, 50, 64
7, 76196, Note_on_c, 2, 50, 0
7, 76200, Note_on_c, 2, 48, 64
7, 76316, Note_on_c, 2, 48, 0
7, 76320, Note_on_c, 2, 50, 64
7, 76556, Note_on_c, 2, 50, 0
7, 76560, Note_on_c, 2, 67, 64
7, 76676, Note_on_c, 2, 67, 0
7, 76680, Note_on_c, 2, 66, 64
7, 76796, Note_on_c, 2, 66, 0
7, 76800, Note_on_c, 2, 67, 64
7, 77036, Note_on_c, 2, 67, 0
7, 77040, Note_on_c, 2, 55, 64
7, 77156, Note_on_c, 2, 55, 0
7, 77160, Note_on_c, 2, 57, 64
7, 77276, Note_on_c, 2, 57, 0
7, 77280, Note_on_c, 2, 59, 64
7, 77516, Note_on_c, 2, 59, 0
7, 77520, Note_on_c, 2, 61, 64
7, 77756, Note_on_c, 2, 61, 0
7, 77760, Note_on_c, 2, 62, 64
7, 77996, Note_on_c, 2, 62, 0
7, 78000, Note_on_c, 2, 66, 64
7, 78116, Note_on_c, 2, 66, 0
7, 78120, Note_on_c, 2, 64, 64
7, 78236, Note_on_c, 2, 64, 0
7, 78240, Note_on_c, 2, 66, 64
7, 78476, Note_on_c, 2, 66, 0
7, 78960, Note_on_c, 2, 54, 64
7, 79076, Note_on_c, 2, 54, 0
7, 79080, Note_on_c, 2, 52, 64
7, 79196, Note_on_c, 2, 52, 0
7, 79200, Note_on_c, 2, 54, 64
7, 79436, Note_on_c, 2, 54, 0
7, 79920, Note_on_c, 2, 62, 64
7, 80156, Note_on_c, 2, 62, 0
7, 80160, Note_on_c, 2, 57, 64
7, 80396, Note_on_c, 2, 57, 0
7, 80400, Note_on_c, 2, 54, 64
7, 80636, Note_on_c, 2, 54, 0
7, 80640, Note_on_c, 2, 50, 64
7, 80876, Note_on_c, 2, 50, 0
7, 80880, Note_on_c, 2, 54, 64
7, 81116, Note_on_c, 2, 54, 0
7, 81120, Note_on_c, 2, 60, 64
7, 81356, Note_on_c, 2, 60, 0
7, 81360, Note_on_c, 2, 60, 64
7, 81596, Note_on_c, 2, 60, 0
7, 81600, Note_on_c, 2, 59, 64
7, 81836, Note_on_c, 2, 59, 0
7, 81840, Note_on_c, 2, 55, 64
7, 82076, Note_on_c, 2, 55, 0
7, 82080, Note_on_c, 2, 55, 64
7, 82316, Note_on_c, 2, 55, 0
7, 82320, Note_on_c, 2, 67, 64
7, 82556, Note_on_c, 2, 67, 0
7, 82560, Note_on_c, 2, 67, 64
7, 82796, Note_on_c, 2, 67, 0
7, 82800, Note_on_c, 2, 55, 64
7, 83036, Note_on_c, 2, 55, 0
7, 83040, Note_on_c, 2, 55, 64
7, 83276, Note_on_c, 2, 55, 0
7, 83280, Note_on_c, 2, 67, 64
7, 83516, Note_on_c, 2, 67, 0
7, 83520, Note_on_c, 2, 67, 64
7, 83756, Note_on_c, 2, 67, 0
7, 83760, Note_on_c, 2, 55, 64
7, 83996, Note_on_c, 2, 55, 0
7, 84000, Note_on_c, 2, 55, 64
7, 84236, Note_on_c, 2, 55, 0
7, 84240, Note_on_c, 2, 64, 64
7, 84476, Note_on_c, 2, 64, 0
7, 84480, Note_on_c, 2, 62, 64
7, 84716, Note_on_c, 2, 62, 0
7, 84720, Note_on_c, 2, 64, 64
7, 84956, Note_on_c, 2, 64, 0
7, 84960, Note_on_c, 2, 66, 64
7, 85196, Note_on_c, 2, 66, 0
7, 85200, Note_on_c, 2, 62, 64
7, 85316, Note_on_c, 2, 62, 0
7, 85320, Note_on_c, 2, 64, 64
7, 85436, Note_on_c, 2, 64, 0
7, 85440, Note_on_c, 2, 66, 64
7, 85676, Note_on_c, 2, 66, 0
7, 85680, Note_on_c, 2, 67, 64
7, 85916, Note_on_c, 2, 67, 0
7, 85920, Note_on_c, 2, 69, 64
7, 86156, Note_on_c, 2, 69, 0
7, 86160, Note_on_c, 2, 57, 64
7, 86396, Note_on_c, 2, 57, 0
7, 86400, Note_on_c, 2, 59, 64
7, 86636, Note_on_c, 2, 59, 0
7, 86640, Note_on_c, 2, 60, 64
7, 86876, Note_on_c, 2, 60, 0
7, 86880, Note_on_c, 2, 60, 64
7, 87116, Note_on_c, 2, 60, 0
7, 87120, Note_on_c, 2, 60, 64
7, 87356, Note_on_c, 2, 60, 0
7, 87360, Note_on_c, 2, 59, 64
7, 87476, Note_on_c, 2, 59, 0
7, 87480, Note_on_c, 2, 67, 64
7, 87596, Note_on_c, 2, 67, 0
7, 87720, Note_on_c, 2, 64, 64
7, 87836, Note_on_c, 2, 64, 0
7, 87840, Note_on_c, 2, 62, 64
7, 87956, Note_on_c, 2, 62, 0
7, 87960, Note_on_c, 2, 60, 64
7, 88076, Note_on_c, 2, 60, 0
7, 88080, Note_on_c, 2, 59, 64
7, 88196, Note_on_c, 2, 59, 0
7, 88200, Note_on_c, 2, 57, 64
7, 88316, Note_on_c, 2, 57, 0
7, 88320, Note_on_c, 2, 59, 64
7, 88556, Note_on_c, 2, 59, 0
7, 88560, Note_on_c, 2, 57, 64
7, 88676, Note_on_c, 2, 57, 0
7, 88680, Note_on_c, 2, 55, 64
7, 88796, Note_on_c, 2, 55, 0
7, 88800, Note_on_c, 2, 62, 64
7, 89036, Note_on_c, 2, 62, 0
7, 89040, Note_on_c, 2, 50, 64
7, 89276, Note_on_c, 2, 50, 0
7, 89280, Note_on_c, 2, 67, 64
7, 89516, Note_on_c, 2, 67, 0
7, 89520, Note_on_c, 2, 66, 64
7, 89636, Note_on_c, 2, 66, 0
7, 89640, Note_on_c, 2, 64, 64
7, 89756, Note_on_c, 2, 64, 0
7, 89760, Note_on_c, 2, 62, 64
7, 89876, Note_on_c, 2, 62, 0
7, 89880, Note_on_c, 2, 60, 64
7, 89996, Note_on_c, 2, 60, 0
7, 90000, Note_on_c, 2, 59, 64
7, 90116, Note_on_c, 2, 59, 0
7, 90120, Note_on_c, 2, 57, 64
7, 90236, Note_on_c, 2, 57, 0
7, 90240, Note_on_c, 2, 55, 64
7, 90476, Note_on_c, 2, 55, 0
7, 90480, Note_on_c, 2, 55, 64
7, 90716, Note_on_c, 2, 55, 0
7, 90720, Note_on_c, 2, 55, 64
7, 90956, Note_on_c, 2, 55, 0
7, 90960, Note_on_c, 2, 55, 64
7, 91196, Note_on_c, 2, 55, 0
7, 91200, Note_on_c, 2, 55, 64
7, 91436, Note_on_c, 2, 55, 0
7, 91440, Note_on_c, 2, 55, 64
7, 91676, Note_on_c, 2, 55, 0
7, 91680, Note_on_c, 2, 55, 64
7, 91916, Note_on_c, 2, 55, 0
7, 91920, Note_on_c, 2, 55, 64
7, 92156, Note_on_c, 2, 55, 0
7, 92160, Note_on_c, 2, 55, 64
7, 92396, Note_on_c, 2, 55, 0
7, 92400, Note_on_c, 2, 55, 64
7, 92636, Note_on_c, 2, 55, 0
7, 92640, Note_on_c, 2, 55, 64
7, 92876, Note_on_c, 2, 55, 0
7, 92880, Note_on_c, 2, 55, 64
7, 93116, Note_on_c, 2, 55, 0
7, 93120, Note_on_c, 2, 55, 64
7, 93356, Note_on_c, 2, 55, 0
7, 93360, Note_on_c, 2, 55, 64
7, 93596, Note_on_c, 2, 55, 0
7, 93600, Note_on_c, 2, 55, 64
7, 93836, Note_on_c, 2, 55, 0
7, 93840, Note_on_c, 2, 55, 64
7, 94076, Note_on_c, 2, 55, 0
7, 94080, Note_on_c, 2, 55, 64
7, 94316, Note_on_c, 2, 55, 0
7, 94320, Note_on_c, 2, 55, 64
7, 94556, Note_on_c, 2, 55, 0
7, 94560, Note_on_c, 2, 55, 64
7, 94796, Note_on_c, 2, 55, 0
7, 94800, Note_on_c, 2, 55, 64
7, 95036, Note_on_c, 2, 55, 0
7, 95040, Note_on_c, 2, 55, 64
7, 95276, Note_on_c, 2, 55, 0
7, 95280, Note_on_c, 2, 55, 64
7, 95516, Note_on_c, 2, 55, 0
7, 95520, Note_on_c, 2, 55, 64
7, 95756, Note_on_c, 2, 55, 0
7, 95760, Note_on_c, 2, 55, 64
7, 95996, Note_on_c, 2, 55, 0
7, 96000, Note_on_c, 2, 55, 64
7, 96236, Note_on_c, 2, 55, 0
7, 96240, Note_on_c, 2, 55, 64
7, 96476, Note_on_c, 2, 55, 0
7, 96480, Note_on_c, 2, 55, 64
7, 96716, Note_on_c, 2, 55, 0
7, 96720, Note_on_c, 2, 57, 64
7, 96956, Note_on_c, 2, 57, 0
7, 96960, Note_on_c, 2, 57, 64
7, 97076, Note_on_c, 2, 57, 0
7, 97080, Note_on_c, 2, 74, 64
7, 97196, Note_on_c, 2, 74, 0
7, 97200, Note_on_c, 2, 73, 64
7, 97316, Note_on_c, 2, 73, 0
7, 97320, Note_on_c, 2, 71, 64
7, 97436, Note_on_c, 2, 71, 0
7, 97440, Note_on_c, 2, 69, 64
7, 97556, Note_on_c, 2, 69, 0
7, 97560, Note_on_c, 2, 67, 64
7, 97676, Note_on_c, 2, 67, 0
7, 97680, Note_on_c, 2, 66, 64
7, 97796, Note_on_c, 2, 66, 0
7, 97800, Note_on_c, 2, 64, 64
7, 97916, Note_on_c, 2, 64, 0
7, 97920, Note_on_c, 2, 63, 64
7, 98156, Note_on_c, 2, 63, 0
7, 98160, Note_on_c, 2, 63, 64
7, 98396, Note_on_c, 2, 63, 0
7, 98400, Note_on_c, 2, 63, 64
7, 98636, Note_on_c, 2, 63, 0
7, 98640, Note_on_c, 2, 63, 64
7, 98876, Note_on_c, 2, 63, 0
7, 98880, Note_on_c, 2, 66, 64
7, 99116, Note_on_c, 2, 66, 0
7, 99120, Note_on_c, 2, 66, 64
7, 99356, Note_on_c, 2, 66, 0
7, 99360, Note_on_c, 2, 66, 64
7, 99596, Note_on_c, 2, 66, 0
7, 99600, Note_on_c, 2, 66, 64
7, 99836, Note_on_c, 2, 66, 0
7, 99840, Note_on_c, 2, 69, 64
7, 100076, Note_on_c, 2, 69, 0
7, 100080, Note_on_c, 2, 69, 64
7, 100316, Note_on_c, 2, 69, 0
7, 100320, Note_on_c, 2, 69, 64
7, 100556, Note_on_c, 2, 69, 0
7, 100560, Note_on_c, 2, 69, 64
7, 100796, Note_on_c, 2, 69, 0
7, 100800, Note_on_c, 2, 69, 64
7, 101036, Note_on_c, 2, 69, 0
7, 101040, Note_on_c, 2, 69, 64
7, 101276, Note_on_c, 2, 69, 0
7, 101280, Note_on_c, 2, 69, 64
7, 101516, Note_on_c, 2, 69, 0
7, 101520, Note_on_c, 2, 69, 64
7, 101756, Note_on_c, 2, 69, 0
7, 101760, Note_on_c, 2, 63, 64
7, 101996, Note_on_c, 2, 63, 0
7, 102000, Note_on_c, 2, 63, 64
7, 102236, Note_on_c, 2, 63, 0
7, 102240, Note_on_c, 2, 63, 64
7, 102476, Note_on_c, 2, 63, 0
7, 102480, Note_on_c, 2, 63, 64
7, 102716, Note_on_c, 2, 63, 0
7, 102720, Note_on_c, 2, 59, 64
7, 102956, Note_on_c, 2, 59, 0
7, 102960, Note_on_c, 2, 59, 64
7, 103196, Note_on_c, 2, 59, 0
7, 103200, Note_on_c, 2, 59, 64
7, 103436, Note_on_c, 2, 59, 0
7, 103440, Note_on_c, 2, 59, 64
7, 103676, Note_on_c, 2, 59, 0
7, 103680, Note_on_c, 2, 59, 64
7, 104156, Note_on_c, 2, 59, 0
7, 104400, Note_on_c, 2, 59, 64
7, 104516, Note_on_c, 2, 59, 0
7, 104520, Note_on_c, 2, 57, 64
7, 104636, Note_on_c, 2, 57, 0
7, 104640, Note_on_c, 2, 59, 64
7, 104876, Note_on_c, 2, 59, 0
7, 104880, Note_on_c, 2, 55, 64
7, 104996, Note_on_c, 2, 55, 0
7, 105000, Note_on_c, 2, 54, 64
7, 105116, Note_on_c, 2, 54, 0
7, 105120, Note_on_c, 2, 55, 64
7, 105356, Note_on_c, 2, 55, 0
7, 105840, Note_on_c, 2, 52, 64
7, 105956, Note_on_c, 2, 52, 0
7, 105960, Note_on_c, 2, 54, 64
7, 106076, Note_on_c, 2, 54, 0
7, 106080, Note_on_c, 2, 55, 64
7, 106316, Note_on_c, 2, 55, 0
7, 106320, Note_on_c, 2, 57, 64
7, 106556, Note_on_c, 2, 57, 0
7, 106560, Note_on_c, 2, 59, 64
7, 107036, Note_on_c, 2, 59, 0
7, 107760, Note_on_c, 2, 63, 64
7, 107876, Note_on_c, 2, 63, 0
7, 107880, Note_on_c, 2, 64, 64
7, 107996, Note_on_c, 2, 64, 0
7, 108000, Note_on_c, 2, 63, 64
7, 108236, Note_on_c, 2, 63, 0
7, 108240, Note_on_c, 2, 63, 64
7, 108356, Note_on_c, 2, 63, 0
7, 108360, Note_on_c, 2, 64, 64
7, 108476, Note_on_c, 2, 64, 0
7, 108480, Note_on_c, 2, 63, 64
7, 108716, Note_on_c, 2, 63, 0
7, 108720, Note_on_c, 2, 63, 64
7, 108836, Note_on_c, 2, 63, 0
7, 108840, Note_on_c, 2, 61, 64
7, 108956, Note_on_c, 2, 61, 0
7, 108960, Note_on_c, 2, 63, 64
7, 109196, Note_on_c, 2, 63, 0
7, 109200, Note_on_c, 2, 71, 64
7, 109436, Note_on_c, 2, 71, 0
7, 109440, Note_on_c, 2, 67, 64
7, 109676, Note_on_c, 2, 67, 0
7, 109680, Note_on_c, 2, 66, 64
7, 109796, Note_on_c, 2, 66, 0
7, 109800, Note_on_c, 2, 64, 64
7, 109916, Note_on_c, 2, 64, 0
7, 109920, Note_on_c, 2, 66, 64
7, 110156, Note_on_c, 2, 66, 0
7, 110160, Note_on_c, 2, 64, 64
7, 110276, Note_on_c, 2, 64, 0
7, 110280, Note_on_c, 2, 63, 64
7, 110396, Note_on_c, 2, 63, 0
7, 110400, Note_on_c, 2, 72, 64
7, 110756, Note_on_c, 2, 72, 0
7, 110760, Note_on_c, 2, 71, 64
7, 110876, Note_on_c, 2, 71, 0
7, 110880, Note_on_c, 2, 69, 64
7, 110996, Note_on_c, 2, 69, 0
7, 111000, Note_on_c, 2, 67, 64
7, 111116, Note_on_c, 2, 67, 0
7, 111120, Note_on_c, 2, 66, 64
7, 111236, Note_on_c, 2, 66, 0
7, 111240, Note_on_c, 2, 64, 64
7, 111356, Note_on_c, 2, 64, 0
7, 111360, Note_on_c, 2, 66, 64
7, 111596, Note_on_c, 2, 66, 0
7, 111600, Note_on_c, 2, 71, 64
7, 111836, Note_on_c, 2, 71, 0
7, 111840, Note_on_c, 2, 69, 64
7, 112076, Note_on_c, 2, 69, 0
7, 112080, Note_on_c, 2, 67, 64
7, 112196, Note_on_c, 2, 67, 0
7, 112200, Note_on_c, 2, 66, 64
7, 112316, Note_on_c, 2, 66, 0
7, 112320, Note_on_c, 2, 67, 64
7, 112436, Note_on_c, 2, 67, 0
7, 112440, Note_on_c, 2, 71, 64
7, 112556, Note_on_c, 2, 71, 0
7, 112560, Note_on_c, 2, 64, 64
7, 112676, Note_on_c, 2, 64, 0
7, 112680, Note_on_c, 2, 66, 64
7, 112796, Note_on_c, 2, 66, 0
7, 112800, Note_on_c, 2, 67, 64
7, 112916, Note_on_c, 2, 67, 0
7, 112920, Note_on_c, 2, 69, 64
7, 113036, Note_on_c, 2, 69, 0
7, 113040, Note_on_c, 2, 63, 64
7, 113276, Note_on_c, 2, 63, 0
7, 113280, Note_on_c, 2, 59, 64
7, 113516, Note_on_c, 2, 59, 0
7, 113520, Note_on_c, 2, 67, 64
7, 113756, Note_on_c, 2, 67, 0
7, 114000, Note_on_c, 2, 66, 64
7, 114236, Note_on_c, 2, 66, 0
7, 114240, Note_on_c, 2, 67, 64
7, 114356, Note_on_c, 2, 67, 0
7, 114360, Note_on_c, 2, 71, 64
7, 114476, Note_on_c, 2, 71, 0
7, 114480, Note_on_c, 2, 64, 64
7, 114596, Note_on_c, 2, 64, 0
7, 114600, Note_on_c, 2, 66, 64
7, 114716, Note_on_c, 2, 66, 0
7, 114720, Note_on_c, 2, 67, 64
7, 114836, Note_on_c, 2, 67, 0
7, 114840, Note_on_c, 2, 69, 64
7, 114956, Note_on_c, 2, 69, 0
7, 114960, Note_on_c, 2, 71, 64
7, 115076, Note_on_c, 2, 71, 0
7, 115080, Note_on_c, 2, 69, 64
7, 115196, Note_on_c, 2, 69, 0
7, 115200, Note_on_c, 2, 67, 64
7, 115436, Note_on_c, 2, 67, 0
7, 115440, Note_on_c, 2, 76, 64
7, 115676, Note_on_c, 2, 76, 0
7, 115680, Note_on_c, 2, 67, 64
7, 115916, Note_on_c, 2, 67, 0
7, 115920, Note_on_c, 2, 71, 64
7, 116156, Note_on_c, 2, 71, 0
7, 116160, Note_on_c, 2, 64, 64
7, 116396, Note_on_c, 2, 64, 0
7, 116400, Note_on_c, 2, 61, 64
7, 116516, Note_on_c, 2, 61, 0
7, 116520, Note_on_c, 2, 59, 64
7, 116636, Note_on_c, 2, 59, 0
7, 116640, Note_on_c, 2, 57, 64
7, 116876, Note_on_c, 2, 57, 0
7, 117360, Note_on_c, 2, 61, 64
7, 117476, Note_on_c, 2, 61, 0
7, 117480, Note_on_c, 2, 59, 64
7, 117596, Note_on_c, 2, 59, 0
7, 117600, Note_on_c, 2, 57, 64
7, 117836, Note_on_c, 2, 57, 0
7, 118320, Note_on_c, 2, 61, 64
7, 118436, Note_on_c, 2, 61, 0
7, 118440, Note_on_c, 2, 59, 64
7, 118556, Note_on_c, 2, 59, 0
7, 118560, Note_on_c, 2, 57, 64
7, 118796, Note_on_c, 2, 57, 0
7, 119280, Note_on_c, 2, 61, 64
7, 119396, Note_on_c, 2, 61, 0
7, 119400, Note_on_c, 2, 62, 64
7, 119516, Note_on_c, 2, 62, 0
7, 119520, Note_on_c, 2, 64, 64
7, 119756, Note_on_c, 2, 64, 0
7, 119760, Note_on_c, 2, 57, 64
7, 119996, Note_on_c, 2, 57, 0
7, 120000, Note_on_c, 2, 64, 64
7, 120476, Note_on_c, 2, 64, 0
7, 120720, Note_on_c, 2, 62, 64
7, 120836, Note_on_c, 2, 62, 0
7, 120840, Note_on_c, 2, 64, 64
7, 120956, Note_on_c, 2, 64, 0
7, 120960, Note_on_c, 2, 66, 64
7, 121196, Note_on_c, 2, 66, 0
7, 121680, Note_on_c, 2, 62, 64
7, 121796, Note_on_c, 2, 62, 0
7, 121800, Note_on_c, 2, 64, 64
7, 121916, Note_on_c, 2, 64, 0
7, 121920, Note_on_c, 2, 66, 64
7, 122156, Note_on_c, 2, 66, 0
7, 122640, Note_on_c, 2, 62, 64
7, 122756, Note_on_c, 2, 62, 0
7, 122760, Note_on_c, 2, 64, 64
7, 122876, Note_on_c, 2, 64, 0
7, 122880, Note_on_c, 2, 66, 64
7, 123116, Note_on_c, 2, 66, 0
7, 124560, Note_on_c, 2, 50, 64
7, 124796, Note_on_c, 2, 50, 0
7, 124800, Note_on_c, 2, 50, 64
7, 124916, Note_on_c, 2, 50, 0
7, 124920, Note_on_c, 2, 62, 64
7, 125036, Note_on_c, 2, 62, 0
7, 125040, Note_on_c, 2, 55, 64
7, 125156, Note_on_c, 2, 55, 0
7, 125160, Note_on_c, 2, 57, 64
7, 125276, Note_on_c, 2, 57, 0
7, 125280, Note_on_c, 2, 59, 64
7, 125396, Note_on_c, 2, 59, 0
7, 125400, Note_on_c, 2, 60, 64
7, 125516, Note_on_c, 2, 60, 0
7, 125520, Note_on_c, 2, 62, 64
7, 125636, Note_on_c, 2, 62, 0
7, 125640, Note_on_c, 2, 60, 64
7, 125756, Note_on_c, 2, 60, 0
7, 125760, Note_on_c, 2, 59, 64
7, 125996, Note_on_c, 2, 59, 0
7, 126000, Note_on_c, 2, 59, 64
7, 126116, Note_on_c, 2, 59, 0
7, 126120, Note_on_c, 2, 57, 64
7, 126236, Note_on_c, 2, 57, 0
7, 126240, Note_on_c, 2, 55, 64
7, 126476, Note_on_c, 2, 55, 0
7, 127440, Note_on_c, 2, 59, 64
7, 127556, Note_on_c, 2, 59, 0
7, 127560, Note_on_c, 2, 60, 64
7, 127676, Note_on_c, 2, 60, 0
7, 127680, Note_on_c, 2, 62, 64
7, 127916, Note_on_c, 2, 62, 0
7, 127920, Note_on_c, 2, 55, 64
7, 128036, Note_on_c, 2, 55, 0
7, 128040, Note_on_c, 2, 57, 64
7, 128156, Note_on_c, 2, 57, 0
7, 128160, Note_on_c, 2, 59, 64
7, 128276, Note_on_c, 2, 59, 0
7, 128280, Note_on_c, 2, 69, 64
7, 128396, Note_on_c, 2, 69, 0
7, 128400, Note_on_c, 2, 67, 64
7, 128516, Note_on_c, 2, 67, 0
7, 128520, Note_on_c, 2, 66, 64
7, 128636, Note_on_c, 2, 66, 0
7, 128640, Note_on_c, 2, 64, 64
7, 128876, Note_on_c, 2, 64, 0
7, 128880, Note_on_c, 2, 64, 64
7, 129116, Note_on_c, 2, 64, 0
7, 129120, Note_on_c, 2, 64, 64
7, 129356, Note_on_c, 2, 64, 0
7, 129360, Note_on_c, 2, 64, 64
7, 129596, Note_on_c, 2, 64, 0
7, 129600, Note_on_c, 2, 64, 64
7, 129836, Note_on_c, 2, 64, 0
7, 129840, Note_on_c, 2, 64, 64
7, 130076, Note_on_c, 2, 64, 0
7, 130080, Note_on_c, 2, 64, 64
7, 130316, Note_on_c, 2, 64, 0
7, 130320, Note_on_c, 2, 64, 64
7, 130556, Note_on_c, 2, 64, 0
7, 130560, Note_on_c, 2, 64, 64
7, 130796, Note_on_c, 2, 64, 0
7, 130800, Note_on_c, 2, 64, 64
7, 131036, Note_on_c, 2, 64, 0
7, 131040, Note_on_c, 2, 64, 64
7, 131276, Note_on_c, 2, 64, 0
7, 131280, Note_on_c, 2, 64, 64
7, 131516, Note_on_c, 2, 64, 0
7, 131520, Note_on_c, 2, 64, 64
7, 131756, Note_on_c, 2, 64, 0
7, 131760, Note_on_c, 2, 64, 64
7, 131996, Note_on_c, 2, 64, 0
7, 132000, Note_on_c, 2, 64, 64
7, 132236, Note_on_c, 2, 64, 0
7, 132240, Note_on_c, 2, 64, 64
7, 132476, Note_on_c, 2, 64, 0
7, 132480, Note_on_c, 2, 58, 64
7, 132716, Note_on_c, 2, 58, 0
7, 132720, Note_on_c, 2, 58, 64
7, 132956, Note_on_c, 2, 58, 0
7, 132960, Note_on_c, 2, 58, 64
7, 133196, Note_on_c, 2, 58, 0
7, 133200, Note_on_c, 2, 58, 64
7, 133436, Note_on_c, 2, 58, 0
7, 133440, Note_on_c, 2, 54, 64
7, 133676, Note_on_c, 2, 54, 0
7, 133680, Note_on_c, 2, 54, 64
7, 133916, Note_on_c, 2, 54, 0
7, 133920, Note_on_c, 2, 54, 64
7, 134156, Note_on_c, 2, 54, 0
7, 134160, Note_on_c, 2, 54, 64
7, 134396, Note_on_c, 2, 54, 0
7, 134400, Note_on_c, 2, 59, 64
7, 134636, Note_on_c, 2, 59, 0
7, 134640, Note_on_c, 2, 66, 64
7, 134876, Note_on_c, 2, 66, 0
7, 134880, Note_on_c, 2, 62, 64
7, 135116, Note_on_c, 2, 62, 0
7, 135120, Note_on_c, 2, 59, 64
7, 135356, Note_on_c, 2, 59, 0
7, 135360, Note_on_c, 2, 62, 64
7, 135596, Note_on_c, 2, 62, 0
7, 135600, Note_on_c, 2, 66, 64
7, 135836, Note_on_c, 2, 66, 0
7, 135840, Note_on_c, 2, 62, 64
7, 136076, Note_on_c, 2, 62, 0
7, 136080, Note_on_c, 2, 59, 64
7, 136316, Note_on_c, 2, 59, 0
7, 136320, Note_on_c, 2, 71, 64
7, 136556, Note_on_c, 2, 71, 0
7, 136560, Note_on_c, 2, 74, 64
7, 136676, Note_on_c, 2, 74, 0
7, 136680, Note_on_c, 2, 73, 64
7, 136796, Note_on_c, 2, 73, 0
7, 136800, Note_on_c, 2, 71, 64
7, 137036, Note_on_c, 2, 71, 0
7, 137040, Note_on_c, 2, 69, 64
7, 137156, Note_on_c, 2, 69, 0
7, 137160, Note_on_c, 2, 67, 64
7, 137276, Note_on_c, 2, 67, 0
7, 137280, Note_on_c, 2, 66, 64
7, 137516, Note_on_c, 2, 66, 0
7, 137520, Note_on_c, 2, 64, 64
7, 137636, Note_on_c, 2, 64, 0
7, 137640, Note_on_c, 2, 62, 64
7, 137756, Note_on_c, 2, 62, 0
7, 137760, Note_on_c, 2, 61, 64
7, 137996, Note_on_c, 2, 61, 0
7, 138000, Note_on_c, 2, 70, 64
7, 138236, Note_on_c, 2, 70, 0
7, 138240, Note_on_c, 2, 71, 64
7, 138476, Note_on_c, 2, 71, 0
7, 138480, Note_on_c, 2, 59, 64
7, 138716, Note_on_c, 2, 59, 0
7, 138720, Note_on_c, 2, 59, 64
7, 138956, Note_on_c, 2, 59, 0
7, 138960, Note_on_c, 2, 71, 64
7, 139196, Note_on_c, 2, 71, 0
7, 139200, Note_on_c, 2, 71, 64
7, 139436, Note_on_c, 2, 71, 0
7, 139440, Note_on_c, 2, 59, 64
7, 139676, Note_on_c, 2, 59, 0
7, 139680, Note_on_c, 2, 59, 64
7, 139916, Note_on_c, 2, 59, 0
7, 139920, Note_on_c, 2, 71, 64
7, 140156, Note_on_c, 2, 71, 0
7, 140160, Note_on_c, 2, 66, 64
7, 140396, Note_on_c, 2, 66, 0
7, 140400, Note_on_c, 2, 64, 64
7, 140516, Note_on_c, 2, 64, 0
7, 140520, Note_on_c, 2, 62, 64
7, 140636, Note_on_c, 2, 62, 0
7, 140640, Note_on_c, 2, 64, 64
7, 140876, Note_on_c, 2, 64, 0
7, 140880, Note_on_c, 2, 62, 64
7, 140996, Note_on_c, 2, 62, 0
7, 141000, Note_on_c, 2, 61, 64
7, 141116, Note_on_c, 2, 61, 0
7, 141120, Note_on_c, 2, 67, 64
7, 141476, Note_on_c, 2, 67, 0
7, 141480, Note_on_c, 2, 66, 64
7, 141596, Note_on_c, 2, 66, 0
7, 141600, Note_on_c, 2, 64, 64
7, 141716, Note_on_c, 2, 64, 0
7, 141720, Note_on_c, 2, 62, 64
7, 141836, Note_on_c, 2, 62, 0
7, 141840, Note_on_c, 2, 61, 64
7, 141956, Note_on_c, 2, 61, 0
7, 141960, Note_on_c, 2, 59, 64
7, 142076, Note_on_c, 2, 59, 0
7, 142080, Note_on_c, 2, 62, 64
7, 142316, Note_on_c, 2, 62, 0
7, 142320, Note_on_c, 2, 61, 64
7, 142556, Note_on_c, 2, 61, 0
7, 142560, Note_on_c, 2, 61, 64
7, 142796, Note_on_c, 2, 61, 0
7, 142800, Note_on_c, 2, 54, 64
7, 143036, Note_on_c, 2, 54, 0
7, 143040, Note_on_c, 2, 54, 64
7, 143516, Note_on_c, 2, 54, 0
7, 144240, Note_on_c, 2, 59, 64
7, 144356, Note_on_c, 2, 59, 0
7, 144360, Note_on_c, 2, 58, 64
7, 144476, Note_on_c, 2, 58, 0
7, 144480, Note_on_c, 2, 59, 64
7, 144716, Note_on_c, 2, 59, 0
7, 144720, Note_on_c, 2, 62, 64
7, 144836, Note_on_c, 2, 62, 0
7, 144840, Note_on_c, 2, 61, 64
7, 144956, Note_on_c, 2, 61, 0
7, 144960, Note_on_c, 2, 62, 64
7, 145196, Note_on_c, 2, 62, 0
7, 146160, Note_on_c, 2, 59, 64
7, 146276, Note_on_c, 2, 59, 0
7, 146280, Note_on_c, 2, 61, 64
7, 146396, Note_on_c, 2, 61, 0
7, 146400, Note_on_c, 2, 59, 64
7, 146636, Note_on_c, 2, 59, 0
7, 146640, Note_on_c, 2, 64, 64
7, 146876, Note_on_c, 2, 64, 0
7, 146880, Note_on_c, 2, 64, 64
7, 147116, Note_on_c, 2, 64, 0
7, 147120, Note_on_c, 2, 61, 64
7, 147236, Note_on_c, 2, 61, 0
7, 147240, Note_on_c, 2, 62, 64
7, 147356, Note_on_c, 2, 62, 0
7, 147360, Note_on_c, 2, 61, 64
7, 147596, Note_on_c, 2, 61, 0
7, 147600, Note_on_c, 2, 62, 64
7, 147716, Note_on_c, 2, 62, 0
7, 147720, Note_on_c, 2, 64, 64
7, 147836, Note_on_c, 2, 64, 0
7, 147840, Note_on_c, 2, 62, 64
7, 148076, Note_on_c, 2, 62, 0
7, 148080, Note_on_c, 2, 64, 64
7, 148316, Note_on_c, 2, 64, 0
7, 148320, Note_on_c, 2, 64, 64
7, 148556, Note_on_c, 2, 64, 0
7, 148560, Note_on_c, 2, 58, 64
7, 148796, Note_on_c, 2, 58, 0
7, 148800, Note_on_c, 2, 54, 64
7, 149276, Note_on_c, 2, 54, 0
7, 149760, Note_on_c, 2, 55, 64
7, 149996, Note_on_c, 2, 55, 0
7, 150000, Note_on_c, 2, 54, 64
7, 150236, Note_on_c, 2, 54, 0
7, 150240, Note_on_c, 2, 55, 64
7, 150476, Note_on_c, 2, 55, 0
7, 150480, Note_on_c, 2, 57, 64
7, 150716, Note_on_c, 2, 57, 0
7, 150720, Note_on_c, 2, 59, 64
7, 150956, Note_on_c, 2, 59, 0
7, 150960, Note_on_c, 2, 60, 64
7, 151196, Note_on_c, 2, 60, 0
7, 151200, Note_on_c, 2, 59, 64
7, 151436, Note_on_c, 2, 59, 0
7, 151440, Note_on_c, 2, 57, 64
7, 151676, Note_on_c, 2, 57, 0
7, 151680, Note_on_c, 2, 55, 64
7, 151916, Note_on_c, 2, 55, 0
7, 151920, Note_on_c, 2, 54, 64
7, 152156, Note_on_c, 2, 54, 0
7, 152160, Note_on_c, 2, 52, 64
7, 152396, Note_on_c, 2, 52, 0
7, 152400, Note_on_c, 2, 57, 64
7, 152636, Note_on_c, 2, 57, 0
7, 152640, Note_on_c, 2, 62, 64
7, 152876, Note_on_c, 2, 62, 0
7, 152880, Note_on_c, 2, 50, 64
7, 153116, Note_on_c, 2, 50, 0
7, 153120, Note_on_c, 2, 54, 64
7, 153356, Note_on_c, 2, 54, 0
7, 153360, Note_on_c, 2, 57, 64
7, 153596, Note_on_c, 2, 57, 0
7, 153600, Note_on_c, 2, 62, 64
7, 154076, Note_on_c, 2, 62, 0
7, 160560, Note_on_c, 2, 55, 64
7, 160676, Note_on_c, 2, 55, 0
7, 160680, Note_on_c, 2, 57, 64
7, 160796, Note_on_c, 2, 57, 0
7, 160800, Note_on_c, 2, 59, 64
7, 161036, Note_on_c, 2, 59, 0
7, 162960, Note_on_c, 2, 52, 64
7, 163076, Note_on_c, 2, 52, 0
7, 163080, Note_on_c, 2, 54, 64
7, 163196, Note_on_c, 2, 54, 0
7, 163200, Note_on_c, 2, 55, 64
7, 163436, Note_on_c, 2, 55, 0
7, 165120, Note_on_c, 2, 55, 64
7, 165596, Note_on_c, 2, 55, 0
7, 165600, Note_on_c, 2, 59, 64
7, 166076, Note_on_c, 2, 59, 0
7, 166080, Note_on_c, 2, 62, 64
7, 166556, Note_on_c, 2, 62, 0
7, 166560, Note_on_c, 2, 62, 64
7, 166796, Note_on_c, 2, 62, 0
7, 167040, Note_on_c, 2, 59, 64
7, 167276, Note_on_c, 2, 59, 0
7, 167280, Note_on_c, 2, 62, 64
7, 167516, Note_on_c, 2, 62, 0
7, 167520, Note_on_c, 2, 67, 64
7, 167636, Note_on_c, 2, 67, 0
7, 167640, Note_on_c, 2, 71, 64
7, 167756, Note_on_c, 2, 71, 0
7, 167760, Note_on_c, 2, 69, 64
7, 167876, Note_on_c, 2, 69, 0
7, 167880, Note_on_c, 2, 67, 64
7, 167996, Note_on_c, 2, 67, 0
7, 168000, Note_on_c, 2, 69, 64
7, 168116, Note_on_c, 2, 69, 0
7, 168120, Note_on_c, 2, 66, 64
7, 168236, Note_on_c, 2, 66, 0
7, 168240, Note_on_c, 2, 57, 64
7, 168356, Note_on_c, 2, 57, 0
7, 168360, Note_on_c, 2, 66, 64
7, 168476, Note_on_c, 2, 66, 0
7, 168480, Note_on_c, 2, 57, 64
7, 168596, Note_on_c, 2, 57, 0
7, 168600, Note_on_c, 2, 66, 64
7, 168716, Note_on_c, 2, 66, 0
7, 168720, Note_on_c, 2, 57, 64
7, 168836, Note_on_c, 2, 57, 0
7, 168840, Note_on_c, 2, 66, 64
7, 168956, Note_on_c, 2, 66, 0
7, 168960, Note_on_c, 2, 55, 64
7, 169076, Note_on_c, 2, 55, 0
7, 169080, Note_on_c, 2, 62, 64
7, 169196, Note_on_c, 2, 62, 0
7, 169200, Note_on_c, 2, 55, 64
7, 169316, Note_on_c, 2, 55, 0
7, 169320, Note_on_c, 2, 62, 64
7, 169436, Note_on_c, 2, 62, 0
7, 169440, Note_on_c, 2, 55, 64
7, 169556, Note_on_c, 2, 55, 0
7, 169560, Note_on_c, 2, 62, 64
7, 169676, Note_on_c, 2, 62, 0
7, 169680, Note_on_c, 2, 55, 64
7, 169796, Note_on_c, 2, 55, 0
7, 169800, Note_on_c, 2, 62, 64
7, 169916, Note_on_c, 2, 62, 0
7, 169920, Note_on_c, 2, 55, 64
7, 170036, Note_on_c, 2, 55, 0
7, 170040, Note_on_c, 2, 64, 64
7, 170156, Note_on_c, 2, 64, 0
7, 170160, Note_on_c, 2, 55, 64
7, 170276, Note_on_c, 2, 55, 0
7, 170280, Note_on_c, 2, 64, 64
7, 170396, Note_on_c, 2, 64, 0
7, 170400, Note_on_c, 2, 55, 64
7, 170516, Note_on_c, 2, 55, 0
7, 170520, Note_on_c, 2, 64, 64
7, 170636, Note_on_c, 2, 64, 0
7, 170640, Note_on_c, 2, 55, 64
7, 170756, Note_on_c, 2, 55, 0
7, 170760, Note_on_c, 2, 64, 64
7, 170876, Note_on_c, 2, 64, 0
7, 170880, Note_on_c, 2, 58, 64
7, 170996, Note_on_c, 2, 58, 0
7, 171000, Note_on_c, 2, 61, 64
7, 171116, Note_on_c, 2, 61, 0
7, 171120, Note_on_c, 2, 58, 64
7, 171236, Note_on_c, 2, 58, 0
7, 171240, Note_on_c, 2, 61, 64
7, 171356, Note_on_c, 2, 61, 0
7, 171360, Note_on_c, 2, 58, 64
7, 171476, Note_on_c, 2, 58, 0
7, 171480, Note_on_c, 2, 61, 64
7, 171596, Note_on_c, 2, 61, 0
7, 171600, Note_on_c, 2, 58, 64
7, 171716, Note_on_c, 2, 58, 0
7, 171720, Note_on_c, 2, 61, 64
7, 171836, Note_on_c, 2, 61, 0
7, 171840, Note_on_c, 2, 58, 64
7, 171956, Note_on_c, 2, 58, 0
7, 171960, Note_on_c, 2, 63, 64
7, 172076, Note_on_c, 2, 63, 0
7, 172080, Note_on_c, 2, 58, 64
7, 172196, Note_on_c, 2, 58, 0
7, 172200, Note_on_c, 2, 63, 64
7, 172316, Note_on_c, 2, 63, 0
7, 172320, Note_on_c, 2, 58, 64
7, 172436, Note_on_c, 2, 58, 0
7, 172440, Note_on_c, 2, 63, 64
7, 172556, Note_on_c, 2, 63, 0
7, 172560, Note_on_c, 2, 58, 64
7, 172676, Note_on_c, 2, 58, 0
7, 172680, Note_on_c, 2, 63, 64
7, 172796, Note_on_c, 2, 63, 0
7, 172800, Note_on_c, 2, 56, 64
7, 172916, Note_on_c, 2, 56, 0
7, 172920, Note_on_c, 2, 59, 64
7, 173036, Note_on_c, 2, 59, 0
7, 173040, Note_on_c, 2, 56, 64
7, 173156, Note_on_c, 2, 56, 0
7, 173160, Note_on_c, 2, 59, 64
7, 173276, Note_on_c, 2, 59, 0
7, 173280, Note_on_c, 2, 56, 64
7, 173396, Note_on_c, 2, 56, 0
7, 173400, Note_on_c, 2, 59, 64
7, 173516, Note_on_c, 2, 59, 0
7, 173520, Note_on_c, 2, 56, 64
7, 173636, Note_on_c, 2, 56, 0
7, 173640, Note_on_c, 2, 59, 64
7, 173756, Note_on_c, 2, 59, 0
7, 173760, Note_on_c, 2, 57, 64
7, 173876, Note_on_c, 2, 57, 0
7, 173880, Note_on_c, 2, 60, 64
7, 173996, Note_on_c, 2, 60, 0
7, 174000, Note_on_c, 2, 57, 64
7, 174116, Note_on_c, 2, 57, 0
7, 174120, Note_on_c, 2, 60, 64
7, 174236, Note_on_c, 2, 60, 0
7, 174240, Note_on_c, 2, 57, 64
7, 174356, Note_on_c, 2, 57, 0
7, 174360, Note_on_c, 2, 60, 64
7, 174476, Note_on_c, 2, 60, 0
7, 174480, Note_on_c, 2, 57, 64
7, 174596, Note_on_c, 2, 57, 0
7, 174600, Note_on_c, 2, 60, 64
7, 174716, Note_on_c, 2, 60, 0
7, 174720, Note_on_c, 2, 62, 64
7, 174956, Note_on_c, 2, 62, 0
7, 174960, Note_on_c, 2, 62, 64
7, 175196, Note_on_c, 2, 62, 0
7, 175200, Note_on_c, 2, 62, 64
7, 175436, Note_on_c, 2, 62, 0
7, 175440, Note_on_c, 2, 62, 64
7, 175676, Note_on_c, 2, 62, 0
7, 175680, Note_on_c, 2, 62, 64
7, 175916, Note_on_c, 2, 62, 0
7, 175920, Note_on_c, 2, 62, 64
7, 176156, Note_on_c, 2, 62, 0
7, 176160, Note_on_c, 2, 62, 64
7, 176396, Note_on_c, 2, 62, 0
7, 176400, Note_on_c, 2, 62, 64
7, 176636, Note_on_c, 2, 62, 0
7, 176640, Note_on_c, 2, 63, 64
7, 176876, Note_on_c, 2, 63, 0
7, 176880, Note_on_c, 2, 63, 64
7, 177116, Note_on_c, 2, 63, 0
7, 177120, Note_on_c, 2, 63, 64
7, 177356, Note_on_c, 2, 63, 0
7, 177360, Note_on_c, 2, 63, 64
7, 177596, Note_on_c, 2, 63, 0
7, 177600, Note_on_c, 2, 63, 64
7, 177836, Note_on_c, 2, 63, 0
7, 177840, Note_on_c, 2, 63, 64
7, 178076, Note_on_c, 2, 63, 0
7, 178080, Note_on_c, 2, 63, 64
7, 178316, Note_on_c, 2, 63, 0
7, 178320, Note_on_c, 2, 63, 64
7, 178556, Note_on_c, 2, 63, 0
7, 178560, Note_on_c, 2, 64, 64
7, 178796, Note_on_c, 2, 64, 0
7, 178800, Note_on_c, 2, 64, 64
7, 179036, Note_on_c, 2, 64, 0
7, 179040, Note_on_c, 2, 64, 64
7, 179276, Note_on_c, 2, 64, 0
7, 179280, Note_on_c, 2, 64, 64
7, 179516, Note_on_c, 2, 64, 0
7, 179520, Note_on_c, 2, 64, 64
7, 179756, Note_on_c, 2, 64, 0
7, 179760, Note_on_c, 2, 64, 64
7, 179996, Note_on_c, 2, 64, 0
7, 180000, Note_on_c, 2, 64, 64
7, 180236, Note_on_c, 2, 64, 0
7, 180240, Note_on_c, 2, 64, 64
7, 180476, Note_on_c, 2, 64, 0
7, 180480, Note_on_c, 2, 63, 64
7, 180716, Note_on_c, 2, 63, 0
7, 180720, Note_on_c, 2, 63, 64
7, 180956, Note_on_c, 2, 63, 0
7, 180960, Note_on_c, 2, 63, 64
7, 181196, Note_on_c, 2, 63, 0
7, 181200, Note_on_c, 2, 63, 64
7, 181436, Note_on_c, 2, 63, 0
7, 181440, Note_on_c, 2, 63, 64
7, 181676, Note_on_c, 2, 63, 0
7, 181680, Note_on_c, 2, 63, 64
7, 181916, Note_on_c, 2, 63, 0
7, 181920, Note_on_c, 2, 63, 64
7, 182156, Note_on_c, 2, 63, 0
7, 182160, Note_on_c, 2, 63, 64
7, 182396, Note_on_c, 2, 63, 0
7, 182400, Note_on_c, 2, 64, 64
7, 182636, Note_on_c, 2, 64, 0
7, 182640, Note_on_c, 2, 64, 64
7, 182876, Note_on_c, 2, 64, 0
7, 182880, Note_on_c, 2, 64, 64
7, 183116, Note_on_c, 2, 64, 0
7, 183120, Note_on_c, 2, 64, 64
7, 183356, Note_on_c, 2, 64, 0
7, 183360, Note_on_c, 2, 64, 64
7, 183596, Note_on_c, 2, 64, 0
7, 183600, Note_on_c, 2, 64, 64
7, 183836, Note_on_c, 2, 64, 0
7, 183840, Note_on_c, 2, 64, 64
7, 184076, Note_on_c, 2, 64, 0
7, 184080, Note_on_c, 2, 64, 64
7, 184316, Note_on_c, 2, 64, 0
7, 184320, Note_on_c, 2, 64, 64
7, 184556, Note_on_c, 2, 64, 0
7, 184560, Note_on_c, 2, 64, 64
7, 184796, Note_on_c, 2, 64, 0
7, 184800, Note_on_c, 2, 64, 64
7, 185036, Note_on_c, 2, 64, 0
7, 185040, Note_on_c, 2, 64, 64
7, 185276, Note_on_c, 2, 64, 0
7, 185280, Note_on_c, 2, 64, 64
7, 185516, Note_on_c, 2, 64, 0
7, 185520, Note_on_c, 2, 64, 64
7, 185756, Note_on_c, 2, 64, 0
7, 185760, Note_on_c, 2, 64, 64
7, 185996, Note_on_c, 2, 64, 0
7, 186000, Note_on_c, 2, 64, 64
7, 186236, Note_on_c, 2, 64, 0
7, 186240, Note_on_c, 2, 60, 64
7, 186476, Note_on_c, 2, 60, 0
7, 187920, Note_on_c, 2, 60, 64
7, 188156, Note_on_c, 2, 60, 0
7, 188160, Note_on_c, 2, 67, 64
7, 188396, Note_on_c, 2, 67, 0
7, 189840, Note_on_c, 2, 59, 64
7, 190076, Note_on_c, 2, 59, 0
7, 190080, Note_on_c, 2, 65, 64
7, 190316, Note_on_c, 2, 65, 0
7, 191760, Note_on_c, 2, 57, 64
7, 191996, Note_on_c, 2, 57, 0
7, 192000, Note_on_c, 2, 64, 64
7, 192236, Note_on_c, 2, 64, 0
7, 192240, Note_on_c, 2, 59, 64
7, 192356, Note_on_c, 2, 59, 0
7, 192360, Note_on_c, 2, 60, 64
7, 192476, Note_on_c, 2, 60, 0
7, 192480, Note_on_c, 2, 59, 64
7, 192716, Note_on_c, 2, 59, 0
7, 192720, Note_on_c, 2, 62, 64
7, 192836, Note_on_c, 2, 62, 0
7, 192840, Note_on_c, 2, 64, 64
7, 192956, Note_on_c, 2, 64, 0
7, 192960, Note_on_c, 2, 62, 64
7, 193196, Note_on_c, 2, 62, 0
7, 193200, Note_on_c, 2, 68, 64
7, 193316, Note_on_c, 2, 68, 0
7, 193320, Note_on_c, 2, 69, 64
7, 193436, Note_on_c, 2, 69, 0
7, 193440, Note_on_c, 2, 68, 64
7, 193676, Note_on_c, 2, 68, 0
7, 193680, Note_on_c, 2, 59, 64
7, 193916, Note_on_c, 2, 59, 0
7, 193920, Note_on_c, 2, 57, 64
7, 194156, Note_on_c, 2, 57, 0
7, 194160, Note_on_c, 2, 57, 64
7, 194396, Note_on_c, 2, 57, 0
7, 194400, Note_on_c, 2, 64, 64
7, 194636, Note_on_c, 2, 64, 0
7, 194640, Note_on_c, 2, 64, 64
7, 194876, Note_on_c, 2, 64, 0
7, 194880, Note_on_c, 2, 64, 64
7, 194996, Note_on_c, 2, 64, 0
7, 195000, Note_on_c, 2, 59, 64
7, 195116, Note_on_c, 2, 59, 0
7, 195120, Note_on_c, 2, 60, 64
7, 195236, Note_on_c, 2, 60, 0
7, 195240, Note_on_c, 2, 62, 64
7, 195356, Note_on_c, 2, 62, 0
7, 195360, Note_on_c, 2, 60, 64
7, 195476, Note_on_c, 2, 60, 0
7, 195480, Note_on_c, 2, 64, 64
7, 195596, Note_on_c, 2, 64, 0
7, 195600, Note_on_c, 2, 62, 64
7, 195716, Note_on_c, 2, 62, 0
7, 195720, Note_on_c, 2, 65, 64
7, 195836, Note_on_c, 2, 65, 0
7, 195840, Note_on_c, 2, 64, 64
7, 195956, Note_on_c, 2, 64, 0
7, 195960, Note_on_c, 2, 62, 64
7, 196076, Note_on_c, 2, 62, 0
7, 196080, Note_on_c, 2, 64, 64
7, 196196, Note_on_c, 2, 64, 0
7, 196200, Note_on_c, 2, 65, 64
7, 196316, Note_on_c, 2, 65, 0
7, 196320, Note_on_c, 2, 64, 64
7, 196436, Note_on_c, 2, 64, 0
7, 196440, Note_on_c, 2, 69, 64
7, 196556, Note_on_c, 2, 69, 0
7, 196560, Note_on_c, 2, 64, 64
7, 196676, Note_on_c, 2, 64, 0
7, 196680, Note_on_c, 2, 71, 64
7, 196796, Note_on_c, 2, 71, 0
7, 196800, Note_on_c, 2, 64, 64
7, 196916, Note_on_c, 2, 64, 0
7, 196920, Note_on_c, 2, 69, 64
7, 197036, Note_on_c, 2, 69, 0
7, 197040, Note_on_c, 2, 64, 64
7, 197156, Note_on_c, 2, 64, 0
7, 197160, Note_on_c, 2, 68, 64
7, 197276, Note_on_c, 2, 68, 0
7, 197280, Note_on_c, 2, 64, 64
7, 197396, Note_on_c, 2, 64, 0
7, 197400, Note_on_c, 2, 69, 64
7, 197516, Note_on_c, 2, 69, 0
7, 197520, Note_on_c, 2, 64, 64
7, 197636, Note_on_c, 2, 64, 0
7, 197640, Note_on_c, 2, 68, 64
7, 197756, Note_on_c, 2, 68, 0
7, 197760, Note_on_c, 2, 64, 64
7, 197876, Note_on_c, 2, 64, 0
7, 197880, Note_on_c, 2, 65, 64
7, 197996, Note_on_c, 2, 65, 0
7, 198000, Note_on_c, 2, 64, 64
7, 198116, Note_on_c, 2, 64, 0
7, 198120, Note_on_c, 2, 62, 64
7, 198236, Note_on_c, 2, 62, 0
7, 198240, Note_on_c, 2, 64, 64
7, 198476, Note_on_c, 2, 64, 0
7, 198480, Note_on_c, 2, 59, 64
7, 198716, Note_on_c, 2, 59, 0
7, 198720, Note_on_c, 2, 59, 64
7, 198956, Note_on_c, 2, 59, 0
7, 198960, Note_on_c, 2, 55, 64
7, 199196, Note_on_c, 2, 55, 0
7, 199440, Note_on_c, 2, 64, 64
7, 199676, Note_on_c, 2, 64, 0
7, 199680, Note_on_c, 2, 67, 64
7, 199916, Note_on_c, 2, 67, 0
7, 199920, Note_on_c, 2, 71, 64
7, 200156, Note_on_c, 2, 71, 0
7, 200160, Note_on_c, 2, 67, 64
7, 200396, Note_on_c, 2, 67, 0
7, 200400, Note_on_c, 2, 64, 64
7, 200636, Note_on_c, 2, 64, 0
7, 200640, Note_on_c, 2, 67, 64
7, 200876, Note_on_c, 2, 67, 0
7, 200880, Note_on_c, 2, 71, 64
7, 201116, Note_on_c, 2, 71, 0
7, 201120, Note_on_c, 2, 67, 64
7, 201356, Note_on_c, 2, 67, 0
7, 201360, Note_on_c, 2, 64, 64
7, 201596, Note_on_c, 2, 64, 0
7, 201600, Note_on_c, 2, 71, 64
7, 201836, Note_on_c, 2, 71, 0
7, 201840, Note_on_c, 2, 71, 64
7, 201956, Note_on_c, 2, 71, 0
7, 201960, Note_on_c, 2, 71, 64
7, 202076, Note_on_c, 2, 71, 0
7, 202080, Note_on_c, 2, 71, 64
7, 202316, Note_on_c, 2, 71, 0
7, 202800, Note_on_c, 2, 59, 64
7, 202916, Note_on_c, 2, 59, 0
7, 202920, Note_on_c, 2, 57, 64
7, 203036, Note_on_c, 2, 57, 0
7, 203040, Note_on_c, 2, 59, 64
7, 203156, Note_on_c, 2, 59, 0
7, 203160, Note_on_c, 2, 60, 64
7, 203276, Note_on_c, 2, 60, 0
7, 203280, Note_on_c, 2, 59, 64
7, 203396, Note_on_c, 2, 59, 0
7, 203400, Note_on_c, 2, 57, 64
7, 203516, Note_on_c, 2, 57, 0
7, 203520, Note_on_c, 2, 55, 64
7, 203636, Note_on_c, 2, 55, 0
7, 203640, Note_on_c, 2, 54, 64
7, 203756, Note_on_c, 2, 54, 0
7, 203760, Note_on_c, 2, 55, 64
7, 203876, Note_on_c, 2, 55, 0
7, 203880, Note_on_c, 2, 57, 64
7, 203996, Note_on_c, 2, 57, 0
7, 204000, Note_on_c, 2, 55, 64
7, 204116, Note_on_c, 2, 55, 0
7, 204120, Note_on_c, 2, 59, 64
7, 204236, Note_on_c, 2, 59, 0
7, 204240, Note_on_c, 2, 57, 64
7, 204356, Note_on_c, 2, 57, 0
7, 204360, Note_on_c, 2, 60, 64
7, 204476, Note_on_c, 2, 60, 0
7, 204480, Note_on_c, 2, 59, 64
7, 204596, Note_on_c, 2, 59, 0
7, 204600, Note_on_c, 2, 57, 64
7, 204716, Note_on_c, 2, 57, 0
7, 204720, Note_on_c, 2, 59, 64
7, 204836, Note_on_c, 2, 59, 0
7, 204840, Note_on_c, 2, 60, 64
7, 204956, Note_on_c, 2, 60, 0
7, 204960, Note_on_c, 2, 59, 64
7, 205076, Note_on_c, 2, 59, 0
7, 205080, Note_on_c, 2, 62, 64
7, 205196, Note_on_c, 2, 62, 0
7, 205200, Note_on_c, 2, 60, 64
7, 205316, Note_on_c, 2, 60, 0
7, 205320, Note_on_c, 2, 64, 64
7, 205436, Note_on_c, 2, 64, 0
7, 205440, Note_on_c, 2, 62, 64
7, 205556, Note_on_c, 2, 62, 0
7, 205560, Note_on_c, 2, 64, 64
7, 205676, Note_on_c, 2, 64, 0
7, 205680, Note_on_c, 2, 62, 64
7, 205796, Note_on_c, 2, 62, 0
7, 205800, Note_on_c, 2, 60, 64
7, 205916, Note_on_c, 2, 60, 0
7, 205920, Note_on_c, 2, 59, 64
7, 206036, Note_on_c, 2, 59, 0
7, 206040, Note_on_c, 2, 67, 64
7, 206156, Note_on_c, 2, 67, 0
7, 206160, Note_on_c, 2, 66, 64
7, 206276, Note_on_c, 2, 66, 0
7, 206280, Note_on_c, 2, 64, 64
7, 206396, Note_on_c, 2, 64, 0
7, 206400, Note_on_c, 2, 62, 64
7, 206516, Note_on_c, 2, 62, 0
7, 206520, Note_on_c, 2, 74, 64
7, 206636, Note_on_c, 2, 74, 0
7, 206640, Note_on_c, 2, 73, 64
7, 206756, Note_on_c, 2, 73, 0
7, 206760, Note_on_c, 2, 71, 64
7, 206876, Note_on_c, 2, 71, 0
7, 206880, Note_on_c, 2, 69, 64
7, 206996, Note_on_c, 2, 69, 0
7, 207000, Note_on_c, 2, 71, 64
7, 207116, Note_on_c, 2, 71, 0
7, 207120, Note_on_c, 2, 69, 64
7, 207236, Note_on_c, 2, 69, 0
7, 207240, Note_on_c, 2, 67, 64
7, 207356, Note_on_c, 2, 67, 0
7, 207360, Note_on_c, 2, 66, 64
7, 207596, Note_on_c, 2, 66, 0
7, 207600, Note_on_c, 2, 62, 64
7, 207836, Note_on_c, 2, 62, 0
7, 207840, Note_on_c, 2, 62, 64
7, 208076, Note_on_c, 2, 62, 0
7, 208080, Note_on_c, 2, 62, 64
7, 208316, Note_on_c, 2, 62, 0
7, 208320, Note_on_c, 2, 62, 64
7, 208556, Note_on_c, 2, 62, 0
7, 208560, Note_on_c, 2, 62, 64
7, 208796, Note_on_c, 2, 62, 0
7, 208800, Note_on_c, 2, 62, 64
7, 209036, Note_on_c, 2, 62, 0
7, 209040, Note_on_c, 2, 62, 64
7, 209276, Note_on_c, 2, 62, 0
7, 209280, Note_on_c, 2, 62, 64
7, 209516, Note_on_c, 2, 62, 0
7, 209520, Note_on_c, 2, 55, 64
7, 209756, Note_on_c, 2, 55, 0
7, 209760, Note_on_c, 2, 55, 64
7, 209996, Note_on_c, 2, 55, 0
7, 210000, Note_on_c, 2, 55, 64
7, 210236, Note_on_c, 2, 55, 0
7, 210240, Note_on_c, 2, 55, 64
7, 210476, Note_on_c, 2, 55, 0
7, 210480, Note_on_c, 2, 55, 64
7, 210716, Note_on_c, 2, 55, 0
7, 210720, Note_on_c, 2, 55, 64
7, 210956, Note_on_c, 2, 55, 0
7, 210960, Note_on_c, 2, 55, 64
7, 211196, Note_on_c, 2, 55, 0
7, 211200, Note_on_c, 2, 59, 64
7, 211436, Note_on_c, 2, 59, 0
7, 211440, Note_on_c, 2, 56, 64
7, 211676, Note_on_c, 2, 56, 0
7, 211680, Note_on_c, 2, 56, 64
7, 211916, Note_on_c, 2, 56, 0
7, 211920, Note_on_c, 2, 56, 64
7, 212156, Note_on_c, 2, 56, 0
7, 212160, Note_on_c, 2, 56, 64
7, 212396, Note_on_c, 2, 56, 0
7, 212400, Note_on_c, 2, 56, 64
7, 212636, Note_on_c, 2, 56, 0
7, 212640, Note_on_c, 2, 56, 64
7, 212876, Note_on_c, 2, 56, 0
7, 212880, Note_on_c, 2, 56, 64
7, 213116, Note_on_c, 2, 56, 0
7, 213120, Note_on_c, 2, 63, 64
7, 213236, Note_on_c, 2, 63, 0
7, 213240, Note_on_c, 2, 62, 64
7, 213356, Note_on_c, 2, 62, 0
7, 213360, Note_on_c, 2, 63, 64
7, 213596, Note_on_c, 2, 63, 0
7, 214080, Note_on_c, 2, 63, 64
7, 214196, Note_on_c, 2, 63, 0
7, 214200, Note_on_c, 2, 62, 64
7, 214316, Note_on_c, 2, 62, 0
7, 214320, Note_on_c, 2, 63, 64
7, 214556, Note_on_c, 2, 63, 0
7, 215040, Note_on_c, 2, 72, 64
7, 215156, Note_on_c, 2, 72, 0
7, 215160, Note_on_c, 2, 71, 64
7, 215276, Note_on_c, 2, 71, 0
7, 215280, Note_on_c, 2, 72, 64
7, 215516, Note_on_c, 2, 72, 0
7, 216000, Note_on_c, 2, 72, 64
7, 216116, Note_on_c, 2, 72, 0
7, 216120, Note_on_c, 2, 71, 64
7, 216236, Note_on_c, 2, 71, 0
7, 216240, Note_on_c, 2, 72, 64
7, 216476, Note_on_c, 2, 72, 0
7, 216960, Note_on_c, 2, 65, 64
7, 217076, Note_on_c, 2, 65, 0
7, 217080, Note_on_c, 2, 67, 64
7, 217196, Note_on_c, 2, 67, 0
7, 217200, Note_on_c, 2, 65, 64
7, 217436, Note_on_c, 2, 65, 0
7, 217920, Note_on_c, 2, 65, 64
7, 218036, Note_on_c, 2, 65, 0
7, 218040, Note_on_c, 2, 67, 64
7, 218156, Note_on_c, 2, 67, 0
7, 218160, Note_on_c, 2, 65, 64
7, 218396, Note_on_c, 2, 65, 0
7, 218880, Note_on_c, 2, 52, 64
7, 219116, Note_on_c, 2, 52, 0
7, 219360, Note_on_c, 2, 64, 64
7, 219476, Note_on_c, 2, 64, 0
7, 219480, Note_on_c, 2, 66, 64
7, 219596, Note_on_c, 2, 66, 0
7, 219600, Note_on_c, 2, 64, 64
7, 219836, Note_on_c, 2, 64, 0
7, 220320, Note_on_c, 2, 64, 64
7, 220436, Note_on_c, 2, 64, 0
7, 220440, Note_on_c, 2, 66, 64
7, 220556, Note_on_c, 2, 66, 0
7, 220560, Note_on_c, 2, 64, 64
7, 220796, Note_on_c, 2, 64, 0
7, 221280, Note_on_c, 2, 62, 64
7, 221396, Note_on_c, 2, 62, 0
7, 221400, Note_on_c, 2, 63, 64
7, 221516, Note_on_c, 2, 63, 0
7, 221520, Note_on_c, 2, 62, 64
7, 221756, Note_on_c, 2, 62, 0
7, 222240, Note_on_c, 2, 62, 64
7, 222356, Note_on_c, 2, 62, 0
7, 222360, Note_on_c, 2, 63, 64
7, 222476, Note_on_c, 2, 63, 0
7, 222480, Note_on_c, 2, 62, 64
7, 222716, Note_on_c, 2, 62, 0
7, 223200, Note_on_c, 2, 64, 64
7, 223316, Note_on_c, 2, 64, 0
7, 223320, Note_on_c, 2, 62, 64
7, 223436, Note_on_c, 2, 62, 0
7, 223440, Note_on_c, 2, 64, 64
7, 223676, Note_on_c, 2, 64, 0
7, 224160, Note_on_c, 2, 64, 64
7, 224276, Note_on_c, 2, 64, 0
7, 224280, Note_on_c, 2, 62, 64
7, 224396, Note_on_c, 2, 62, 0
7, 224400, Note_on_c, 2, 64, 64
7, 224636, Note_on_c, 2, 64, 0
7, 225120, Note_on_c, 2, 62, 64
7, 225236, Note_on_c, 2, 62, 0
7, 225240, Note_on_c, 2, 63, 64
7, 225356, Note_on_c, 2, 63, 0
7, 225360, Note_on_c, 2, 62, 64
7, 225596, Note_on_c, 2, 62, 0
7, 226080, Note_on_c, 2, 62, 64
7, 226196, Note_on_c, 2, 62, 0
7, 226200, Note_on_c, 2, 63, 64
7, 226316, Note_on_c, 2, 63, 0
7, 226320, Note_on_c, 2, 62, 64
7, 226556, Note_on_c, 2, 62, 0
7, 227040, Note_on_c, 2, 60, 64
7, 227156, Note_on_c, 2, 60, 0
7, 227160, Note_on_c, 2, 62, 64
7, 227276, Note_on_c, 2, 62, 0
7, 227280, Note_on_c, 2, 60, 64
7, 227516, Note_on_c, 2, 60, 0
7, 228000, Note_on_c, 2, 60, 64
7, 228116, Note_on_c, 2, 60, 0
7, 228120, Note_on_c, 2, 62, 64
7, 228236, Note_on_c, 2, 62, 0
7, 228240, Note_on_c, 2, 60, 64
7, 228476, Note_on_c, 2, 60, 0
7, 228480, Note_on_c, 2, 62, 64
7, 228716, Note_on_c, 2, 62, 0
7, 230160, Note_on_c, 2, 58, 64
7, 230396, Note_on_c, 2, 58, 0
7, 230400, Note_on_c, 2, 65, 64
7, 230636, Note_on_c, 2, 65, 0
7, 232080, Note_on_c, 2, 57, 64
7, 232316, Note_on_c, 2, 57, 0
7, 232320, Note_on_c, 2, 63, 64
7, 232556, Note_on_c, 2, 63, 0
7, 234000, Note_on_c, 2, 55, 64
7, 234236, Note_on_c, 2, 55, 0
7, 234240, Note_on_c, 2, 62, 64
7, 234716, Note_on_c, 2, 62, 0
7, 234960, Note_on_c, 2, 66, 64
7, 235196, Note_on_c, 2, 66, 0
7, 235200, Note_on_c, 2, 66, 64
7, 235676, Note_on_c, 2, 66, 0
7, 235920, Note_on_c, 2, 66, 64
7, 236156, Note_on_c, 2, 66, 0
7, 236160, Note_on_c, 2, 69, 64
7, 236276, Note_on_c, 2, 69, 0
7, 236280, Note_on_c, 2, 60, 64
7, 236396, Note_on_c, 2, 60, 0
7, 236400, Note_on_c, 2, 57, 64
7, 236516, Note_on_c, 2, 57, 0
7, 236520, Note_on_c, 2, 58, 64
7, 236636, Note_on_c, 2, 58, 0
7, 236640, Note_on_c, 2, 60, 64
7, 236756, Note_on_c, 2, 60, 0
7, 236760, Note_on_c, 2, 62, 64
7, 236876, Note_on_c, 2, 62, 0
7, 236880, Note_on_c, 2, 64, 64
7, 236996, Note_on_c, 2, 64, 0
7, 237000, Note_on_c, 2, 66, 64
7, 237116, Note_on_c, 2, 66, 0
7, 237120, Note_on_c, 2, 67, 64
7, 237596, Note_on_c, 2, 67, 0
7, 237840, Note_on_c, 2, 66, 64
7, 237956, Note_on_c, 2, 66, 0
7, 237960, Note_on_c, 2, 64, 64
7, 238076, Note_on_c, 2, 64, 0
7, 238080, Note_on_c, 2, 62, 64
7, 238316, Note_on_c, 2, 62, 0
7, 238800, Note_on_c, 2, 60, 64
7, 238916, Note_on_c, 2, 60, 0
7, 238920, Note_on_c, 2, 58, 64
7, 239036, Note_on_c, 2, 58, 0
7, 239040, Note_on_c, 2, 57, 64
7, 239276, Note_on_c, 2, 57, 0
7, 239760, Note_on_c, 2, 74, 64
7, 239996, Note_on_c, 2, 74, 0
7, 240000, Note_on_c, 2, 75, 64
7, 240356, Note_on_c, 2, 75, 0
7, 240360, Note_on_c, 2, 74, 64
7, 240476, Note_on_c, 2, 74, 0
7, 240480, Note_on_c, 2, 72, 64
7, 240596, Note_on_c, 2, 72, 0
7, 240600, Note_on_c, 2, 70, 64
7, 240716, Note_on_c, 2, 70, 0
7, 240720, Note_on_c, 2, 69, 64
7, 240836, Note_on_c, 2, 69, 0
7, 240840, Note_on_c, 2, 67, 64
7, 240956, Note_on_c, 2, 67, 0
7, 240960, Note_on_c, 2, 69, 64
7, 241196, Note_on_c, 2, 69, 0
7, 241200, Note_on_c, 2, 62, 64
7, 241436, Note_on_c, 2, 62, 0
7, 241440, Note_on_c, 2, 60, 64
7, 241676, Note_on_c, 2, 60, 0
7, 241680, Note_on_c, 2, 59, 64
7, 241796, Note_on_c, 2, 59, 0
7, 241800, Note_on_c, 2, 57, 64
7, 241916, Note_on_c, 2, 57, 0
7, 241920, Note_on_c, 2, 59, 64
7, 242156, Note_on_c, 2, 59, 0
7, 242160, Note_on_c, 2, 62, 64
7, 242396, Note_on_c, 2, 62, 0
7, 242400, Note_on_c, 2, 59, 64
7, 242636, Note_on_c, 2, 59, 0
7, 242640, Note_on_c, 2, 55, 64
7, 242876, Note_on_c, 2, 55, 0
7, 242880, Note_on_c, 2, 59, 64
7, 243116, Note_on_c, 2, 59, 0
7, 243120, Note_on_c, 2, 62, 64
7, 243356, Note_on_c, 2, 62, 0
7, 243360, Note_on_c, 2, 59, 64
7, 243596, Note_on_c, 2, 59, 0
7, 243600, Note_on_c, 2, 55, 64
7, 243836, Note_on_c, 2, 55, 0
7, 243840, Note_on_c, 2, 59, 64
7, 244076, Note_on_c, 2, 59, 0
7, 244080, Note_on_c, 2, 62, 64
7, 244316, Note_on_c, 2, 62, 0
7, 244320, Note_on_c, 2, 67, 64
7, 244436, Note_on_c, 2, 67, 0
7, 244440, Note_on_c, 2, 71, 64
7, 244556, Note_on_c, 2, 71, 0
7, 244560, Note_on_c, 2, 69, 64
7, 244676, Note_on_c, 2, 69, 0
7, 244680, Note_on_c, 2, 67, 64
7, 244796, Note_on_c, 2, 67, 0
7, 244800, Note_on_c, 2, 66, 64
7, 245036, Note_on_c, 2, 66, 0
7, 245040, Note_on_c, 2, 62, 64
7, 245276, Note_on_c, 2, 62, 0
7, 245520, Note_on_c, 2, 71, 64
7, 245756, Note_on_c, 2, 71, 0
7, 245760, Note_on_c, 2, 66, 64
7, 245996, Note_on_c, 2, 66, 0
7, 246000, Note_on_c, 2, 62, 64
7, 246236, Note_on_c, 2, 62, 0
7, 246480, Note_on_c, 2, 69, 64
7, 246716, Note_on_c, 2, 69, 0
7, 246720, Note_on_c, 2, 66, 64
7, 246956, Note_on_c, 2, 66, 0
7, 246960, Note_on_c, 2, 62, 64
7, 247196, Note_on_c, 2, 62, 0
7, 247440, Note_on_c, 2, 69, 64
7, 247676, Note_on_c, 2, 69, 0
7, 247680, Note_on_c, 2, 62, 64
7, 247916, Note_on_c, 2, 62, 0
7, 247920, Note_on_c, 2, 60, 64
7, 248036, Note_on_c, 2, 60, 0
7, 248040, Note_on_c, 2, 59, 64
7, 248156, Note_on_c, 2, 59, 0
7, 248160, Note_on_c, 2, 60, 64
7, 248396, Note_on_c, 2, 60, 0
7, 248400, Note_on_c, 2, 59, 64
7, 248516, Note_on_c, 2, 59, 0
7, 248520, Note_on_c, 2, 57, 64
7, 248636, Note_on_c, 2, 57, 0
7, 248640, Note_on_c, 2, 55, 64
7, 248876, Note_on_c, 2, 55, 0
7, 248880, Note_on_c, 2, 67, 64
7, 249116, Note_on_c, 2, 67, 0
7, 249120, Note_on_c, 2, 67, 64
7, 249356, Note_on_c, 2, 67, 0
7, 249360, Note_on_c, 2, 55, 64
7, 249596, Note_on_c, 2, 55, 0
7, 249600, Note_on_c, 2, 55, 64
7, 249836, Note_on_c, 2, 55, 0
7, 249840, Note_on_c, 2, 67, 64
7, 250076, Note_on_c, 2, 67, 0
7, 250080, Note_on_c, 2, 67, 64
7, 250316, Note_on_c, 2, 67, 0
7, 250320, Note_on_c, 2, 55, 64
7, 250556, Note_on_c, 2, 55, 0
7, 250560, Note_on_c, 2, 55, 64
7, 250796, Note_on_c, 2, 55, 0
7, 250800, Note_on_c, 2, 67, 64
7, 251036, Note_on_c, 2, 67, 0
7, 251040, Note_on_c, 2, 67, 64
7, 251276, Note_on_c, 2, 67, 0
7, 251280, Note_on_c, 2, 55, 64
7, 251516, Note_on_c, 2, 55, 0
7, 251520, Note_on_c, 2, 55, 64
7, 251756, Note_on_c, 2, 55, 0
7, 251760, Note_on_c, 2, 67, 64
7, 251996, Note_on_c, 2, 67, 0
7, 252000, Note_on_c, 2, 66, 64
7, 252236, Note_on_c, 2, 66, 0
7, 252240, Note_on_c, 2, 67, 64
7, 252476, Note_on_c, 2, 67, 0
7, 252480, Note_on_c, 2, 69, 64
7, 252716, Note_on_c, 2, 69, 0
7, 252720, Note_on_c, 2, 71, 64
7, 252956, Note_on_c, 2, 71, 0
7, 252960, Note_on_c, 2, 72, 64
7, 253196, Note_on_c, 2, 72, 0
7, 253200, Note_on_c, 2, 74, 64
7, 253436, Note_on_c, 2, 74, 0
7, 253440, Note_on_c, 2, 71, 64
7, 253676, Note_on_c, 2, 71, 0
7, 253680, Note_on_c, 2, 69, 64
7, 253796, Note_on_c, 2, 69, 0
7, 253800, Note_on_c, 2, 67, 64
7, 253916, Note_on_c, 2, 67, 0
7, 253920, Note_on_c, 2, 62, 64
7, 254156, Note_on_c, 2, 62, 0
7, 254160, Note_on_c, 2, 66, 64
7, 254396, Note_on_c, 2, 66, 0
7, 254400, Note_on_c, 2, 67, 64
7, 254636, Note_on_c, 2, 67, 0
7, 255600, Note_on_c, 2, 55, 64
7, 255716, Note_on_c, 2, 55, 0
7, 255720, Note_on_c, 2, 54, 64
7, 255836, Note_on_c, 2, 54, 0
7, 255840, Note_on_c, 2, 55, 64
7, 256076, Note_on_c, 2, 55, 0
7, 256080, Note_on_c, 2, 59, 64
7, 256196, Note_on_c, 2, 59, 0
7, 256200, Note_on_c, 2, 57, 64
7, 256316, Note_on_c, 2, 57, 0
7, 256320, Note_on_c, 2, 59, 64
7, 256556, Note_on_c, 2, 59, 0
7, 258000, Note_on_c, 2, 62, 64
7, 258236, Note_on_c, 2, 62, 0
7, 258240, Note_on_c, 2, 67, 64
7, 258476, Note_on_c, 2, 67, 0
7, 258480, Note_on_c, 2, 66, 64
7, 258596, Note_on_c, 2, 66, 0
7, 258600, Note_on_c, 2, 64, 64
7, 258716, Note_on_c, 2, 64, 0
7, 258720, Note_on_c, 2, 62, 64
7, 258836, Note_on_c, 2, 62, 0
7, 258840, Note_on_c, 2, 60, 64
7, 258956, Note_on_c, 2, 60, 0
7, 258960, Note_on_c, 2, 59, 64
7, 259076, Note_on_c, 2, 59, 0
7, 259080, Note_on_c, 2, 57, 64
7, 259196, Note_on_c, 2, 57, 0
7, 259200, Note_on_c, 2, 55, 64
7, 259316, Note_on_c, 2, 55, 0
7, 259320, Note_on_c, 2, 50, 64
7, 259436, Note_on_c, 2, 50, 0
7, 259440, Note_on_c, 2, 52, 64
7, 259556, Note_on_c, 2, 52, 0
7, 259560, Note_on_c, 2, 54, 64
7, 259676, Note_on_c, 2, 54, 0
7, 259680, Note_on_c, 2, 55, 64
7, 259796, Note_on_c, 2, 55, 0
7, 259800, Note_on_c, 2, 57, 64
7, 259916, Note_on_c, 2, 57, 0
7, 259920, Note_on_c, 2, 59, 64
7, 260036, Note_on_c, 2, 59, 0
7, 260040, Note_on_c, 2, 60, 64
7, 260156, Note_on_c, 2, 60, 0
7, 260160, Note_on_c, 2, 62, 64
7, 260276, Note_on_c, 2, 62, 0
7, 260280, Note_on_c, 2, 67, 64
7, 260396, Note_on_c, 2, 67, 0
7, 260400, Note_on_c, 2, 66, 64
7, 260516, Note_on_c, 2, 66, 0
7, 260520, Note_on_c, 2, 64, 64
7, 260636, Note_on_c, 2, 64, 0
7, 260640, Note_on_c, 2, 62, 64
7, 260756, Note_on_c, 2, 62, 0
7, 260760, Note_on_c, 2, 60, 64
7, 260876, Note_on_c, 2, 60, 0
7, 260880, Note_on_c, 2, 59, 64
7, 260996, Note_on_c, 2, 59, 0
7, 261000, Note_on_c, 2, 57, 64
7, 261116, Note_on_c, 2, 57, 0
7, 261120, Note_on_c, 2, 59, 64
7, 261356, Note_on_c, 2, 59, 0
7, 261360, Note_on_c, 2, 57, 64
7, 261476, Note_on_c, 2, 57, 0
7, 261480, Note_on_c, 2, 55, 64
7, 261596, Note_on_c, 2, 55, 0
7, 261600, Note_on_c, 2, 62, 64
7, 261836, Note_on_c, 2, 62, 0
7, 261840, Note_on_c, 2, 50, 64
7, 262076, Note_on_c, 2, 50, 0
7, 262080, Note_on_c, 2, 55, 64
7, 263036, Note_on_c, 2, 55, 0
7, 263040, Note_on_c, 2, 52, 64
7, 263996, Note_on_c, 2, 52, 0
7, 264000, Note_on_c, 2, 59, 64
7, 264956, Note_on_c, 2, 59, 0
7, 264960, Note_on_c, 2, 67, 64
7, 265196, Note_on_c, 2, 67, 0
7, 265200, Note_on_c, 2, 71, 64
7, 265436, Note_on_c, 2, 71, 0
7, 265440, Note_on_c, 2, 74, 64
7, 265676, Note_on_c, 2, 74, 0
7, 265680, Note_on_c, 2, 66, 64
7, 265916, Note_on_c, 2, 66, 0
7, 265920, Note_on_c, 2, 69, 64
7, 266156, Note_on_c, 2, 69, 0
7, 266160, Note_on_c, 2, 74, 64
7, 266396, Note_on_c, 2, 74, 0
7, 266400, Note_on_c, 2, 67, 64
7, 266636, Note_on_c, 2, 67, 0
7, 266640, Note_on_c, 2, 71, 64
7, 266876, Note_on_c, 2, 71, 0
7, 266880, Note_on_c, 2, 74, 64
7, 267116, Note_on_c, 2, 74, 0
7, 267120, Note_on_c, 2, 62, 64
7, 267356, Note_on_c, 2, 62, 0
7, 267360, Note_on_c, 2, 69, 64
7, 267596, Note_on_c, 2, 69, 0
7, 267600, Note_on_c, 2, 74, 64
7, 267836, Note_on_c, 2, 74, 0
7, 267840, Note_on_c, 2, 67, 64
7, 267956, Note_on_c, 2, 67, 0
7, 267960, Note_on_c, 2, 66, 64
7, 268076, Note_on_c, 2, 66, 0
7, 268080, Note_on_c, 2, 67, 64
7, 268196, Note_on_c, 2, 67, 0
7, 268200, Note_on_c, 2, 69, 64
7, 268316, Note_on_c, 2, 69, 0
7, 268320, Note_on_c, 2, 71, 64
7, 268436, Note_on_c, 2, 71, 0
7, 268440, Note_on_c, 2, 72, 64
7, 268556, Note_on_c, 2, 72, 0
7, 268560, Note_on_c, 2, 74, 64
7, 268676, Note_on_c, 2, 74, 0
7, 268680, Note_on_c, 2, 76, 64
7, 268796, Note_on_c, 2, 76, 0
7, 268800, Note_on_c, 2, 74, 64
7, 268916, Note_on_c, 2, 74, 0
7, 268920, Note_on_c, 2, 72, 64
7, 269036, Note_on_c, 2, 72, 0
7, 269040, Note_on_c, 2, 71, 64
7, 269156, Note_on_c, 2, 71, 0
7, 269160, Note_on_c, 2, 69, 64
7, 269276, Note_on_c, 2, 69, 0
7, 269280, Note_on_c, 2, 67, 64
7, 269516, Note_on_c, 2, 67, 0
7, 269520, Note_on_c, 2, 71, 64
7, 269756, Note_on_c, 2, 71, 0
7, 269760, Note_on_c, 2, 62, 64
7, 269996, Note_on_c, 2, 62, 0
7, 270000, Note_on_c, 2, 69, 64
7, 270236, Note_on_c, 2, 69, 0
7, 270240, Note_on_c, 2, 72, 64
7, 270476, Note_on_c, 2, 72, 0
7, 270480, Note_on_c, 2, 62, 64
7, 270716, Note_on_c, 2, 62, 0
7, 270720, Note_on_c, 2, 71, 64
7, 270956, Note_on_c, 2, 71, 0
7, 270960, Note_on_c, 2, 71, 64
7, 271196, Note_on_c, 2, 71, 0
7, 271200, Note_on_c, 2, 71, 64
7, 271436, Note_on_c, 2, 71, 0
7, 271440, Note_on_c, 2, 71, 64
7, 271676, Note_on_c, 2, 71, 0
7, 271680, Note_on_c, 2, 71, 64
7, 271916, Note_on_c, 2, 71, 0
7, 271920, Note_on_c, 2, 71, 64
7, 272156, Note_on_c, 2, 71, 0
7, 272160, Note_on_c, 2, 69, 64
7, 272396, Note_on_c, 2, 69, 0
7, 272400, Note_on_c, 2, 69, 64
7, 272636, Note_on_c, 2, 69, 0
7, 272640, Note_on_c, 2, 69, 64
7, 272876, Note_on_c, 2, 69, 0
7, 272880, Note_on_c, 2, 69, 64
7, 273116, Note_on_c, 2, 69, 0
7, 273120, Note_on_c, 2, 69, 64
7, 273356, Note_on_c, 2, 69, 0
7, 273360, Note_on_c, 2, 69, 64
7, 273596, Note_on_c, 2, 69, 0
7, 273600, Note_on_c, 2, 67, 64
7, 273836, Note_on_c, 2, 67, 0
7, 273840, Note_on_c, 2, 67, 64
7, 274076, Note_on_c, 2, 67, 0
7, 274080, Note_on_c, 2, 67, 64
7, 274316, Note_on_c, 2, 67, 0
7, 274320, Note_on_c, 2, 67, 64
7, 274556, Note_on_c, 2, 67, 0
7, 274560, Note_on_c, 2, 67, 64
7, 274796, Note_on_c, 2, 67, 0
7, 274800, Note_on_c, 2, 67, 64
7, 275036, Note_on_c, 2, 67, 0
7, 275040, Note_on_c, 2, 66, 64
7, 275276, Note_on_c, 2, 66, 0
7, 275280, Note_on_c, 2, 69, 64
7, 275516, Note_on_c, 2, 69, 0
7, 275520, Note_on_c, 2, 74, 64
7, 275756, Note_on_c, 2, 74, 0
7, 275760, Note_on_c, 2, 64, 64
7, 275996, Note_on_c, 2, 64, 0
7, 276000, Note_on_c, 2, 67, 64
7, 276236, Note_on_c, 2, 67, 0
7, 276240, Note_on_c, 2, 73, 64
7, 276476, Note_on_c, 2, 73, 0
7, 276480, Note_on_c, 2, 62, 64
7, 276596, Note_on_c, 2, 62, 0
7, 276600, Note_on_c, 2, 61, 64
7, 276716, Note_on_c, 2, 61, 0
7, 276720, Note_on_c, 2, 62, 64
7, 276836, Note_on_c, 2, 62, 0
7, 276840, Note_on_c, 2, 64, 64
7, 276956, Note_on_c, 2, 64, 0
7, 276960, Note_on_c, 2, 66, 64
7, 277076, Note_on_c, 2, 66, 0
7, 277080, Note_on_c, 2, 67, 64
7, 277196, Note_on_c, 2, 67, 0
7, 277200, Note_on_c, 2, 69, 64
7, 277316, Note_on_c, 2, 69, 0
7, 277320, Note_on_c, 2, 71, 64
7, 277436, Note_on_c, 2, 71, 0
7, 277440, Note_on_c, 2, 69, 64
7, 277556, Note_on_c, 2, 69, 0
7, 277560, Note_on_c, 2, 67, 64
7, 277676, Note_on_c, 2, 67, 0
7, 277680, Note_on_c, 2, 66, 64
7, 277796, Note_on_c, 2, 66, 0
7, 277800, Note_on_c, 2, 64, 64
7, 277916, Note_on_c, 2, 64, 0
7, 277920, Note_on_c, 2, 66, 64
7, 278156, Note_on_c, 2, 66, 0
7, 278160, Note_on_c, 2, 69, 64
7, 278396, Note_on_c, 2, 69, 0
7, 278400, Note_on_c, 2, 74, 64
7, 278636, Note_on_c, 2, 74, 0
7, 278640, Note_on_c, 2, 73, 64
7, 278756, Note_on_c, 2, 73, 0
7, 278760, Note_on_c, 2, 74, 64
7, 278876, Note_on_c, 2, 74, 0
7, 278880, Note_on_c, 2, 73, 64
7, 278996, Note_on_c, 2, 73, 0
7, 279000, Note_on_c, 2, 71, 64
7, 279116, Note_on_c, 2, 71, 0
7, 279120, Note_on_c, 2, 69, 64
7, 279236, Note_on_c, 2, 69, 0
7, 279240, Note_on_c, 2, 67, 64
7, 279356, Note_on_c, 2, 67, 0
7, 279360, Note_on_c, 2, 66, 64
7, 279596, Note_on_c, 2, 66, 0
7, 279600, Note_on_c, 2, 69, 64
7, 279836, Note_on_c, 2, 69, 0
7, 279840, Note_on_c, 2, 62, 64
7, 280076, Note_on_c, 2, 62, 0
7, 280080, Note_on_c, 2, 61, 64
7, 280196, Note_on_c, 2, 61, 0
7, 280200, Note_on_c, 2, 62, 64
7, 280316, Note_on_c, 2, 62, 0
7, 280320, Note_on_c, 2, 61, 64
7, 280436, Note_on_c, 2, 61, 0
7, 280440, Note_on_c, 2, 59, 64
7, 280556, Note_on_c, 2, 59, 0
7, 280560, Note_on_c, 2, 57, 64
7, 280676, Note_on_c, 2, 57, 0
7, 280680, Note_on_c, 2, 55, 64
7, 280796, Note_on_c, 2, 55, 0
7, 280800, Note_on_c, 2, 57, 64
7, 281036, Note_on_c, 2, 57, 0
7, 281040, Note_on_c, 2, 69, 64
7, 281156, Note_on_c, 2, 69, 0
7, 281160, Note_on_c, 2, 67, 64
7, 281276, Note_on_c, 2, 67, 0
7, 281280, Note_on_c, 2, 66, 64
7, 281396, Note_on_c, 2, 66, 0
7, 281400, Note_on_c, 2, 64, 64
7, 281516, Note_on_c, 2, 64, 0
7, 281520, Note_on_c, 2, 62, 64
7, 281756, Note_on_c, 2, 62, 0
7, 281760, Note_on_c, 2, 67, 64
7, 281996, Note_on_c, 2, 67, 0
7, 282000, Note_on_c, 2, 62, 64
7, 282236, Note_on_c, 2, 62, 0
7, 282240, Note_on_c, 2, 64, 64
7, 282356, Note_on_c, 2, 64, 0
7, 282360, Note_on_c, 2, 69, 64
7, 282476, Note_on_c, 2, 69, 0
7, 282480, Note_on_c, 2, 67, 64
7, 282596, Note_on_c, 2, 67, 0
7, 282600, Note_on_c, 2, 66, 64
7, 282716, Note_on_c, 2, 66, 0
7, 282720, Note_on_c, 2, 64, 64
7, 282836, Note_on_c, 2, 64, 0
7, 282840, Note_on_c, 2, 62, 64
7, 282956, Note_on_c, 2, 62, 0
7, 282960, Note_on_c, 2, 61, 64
7, 283196, Note_on_c, 2, 61, 0
7, 283200, Note_on_c, 2, 66, 64
7, 283436, Note_on_c, 2, 66, 0
7, 283440, Note_on_c, 2, 61, 64
7, 283676, Note_on_c, 2, 61, 0
7, 283680, Note_on_c, 2, 62, 64
7, 283796, Note_on_c, 2, 62, 0
7, 283800, Note_on_c, 2, 67, 64
7, 283916, Note_on_c, 2, 67, 0
7, 283920, Note_on_c, 2, 66, 64
7, 284036, Note_on_c, 2, 66, 0
7, 284040, Note_on_c, 2, 64, 64
7, 284156, Note_on_c, 2, 64, 0
7, 284160, Note_on_c, 2, 62, 64
7, 284276, Note_on_c, 2, 62, 0
7, 284280, Note_on_c, 2, 61, 64
7, 284396, Note_on_c, 2, 61, 0
7, 284400, Note_on_c, 2, 59, 64
7, 284636, Note_on_c, 2, 59, 0
7, 284640, Note_on_c, 2, 64, 64
7, 284876, Note_on_c, 2, 64, 0
7, 284880, Note_on_c, 2, 68, 64
7, 285116, Note_on_c, 2, 68, 0
7, 285120, Note_on_c, 2, 69, 64
7, 285596, Note_on_c, 2, 69, 0
7, 285600, Note_on_c, 2, 64, 64
7, 285836, Note_on_c, 2, 64, 0
7, 285840, Note_on_c, 2, 69, 64
7, 286316, Note_on_c, 2, 69, 0
7, 286320, Note_on_c, 2, 66, 64
7, 286556, Note_on_c, 2, 66, 0
7, 286560, Note_on_c, 2, 69, 64
7, 287036, Note_on_c, 2, 69, 0
7, 287040, Note_on_c, 2, 64, 64
7, 287276, Note_on_c, 2, 64, 0
7, 287280, Note_on_c, 2, 69, 64
7, 287756, Note_on_c, 2, 69, 0
7, 287760, Note_on_c, 2, 62, 64
7, 287996, Note_on_c, 2, 62, 0
7, 288000, Note_on_c, 2, 69, 64
7, 288236, Note_on_c, 2, 69, 0
7, 288240, Note_on_c, 2, 64, 64
7, 288476, Note_on_c, 2, 64, 0
7, 288480, Note_on_c, 2, 61, 64
7, 288716, Note_on_c, 2, 61, 0
7, 288720, Note_on_c, 2, 69, 64
7, 288956, Note_on_c, 2, 69, 0
7, 288960, Note_on_c, 2, 66, 64
7, 289196, Note_on_c, 2, 66, 0
7, 289200, Note_on_c, 2, 62, 64
7, 289436, Note_on_c, 2, 62, 0
7, 289440, Note_on_c, 2, 61, 64
7, 289556, Note_on_c, 2, 61, 0
7, 289560, Note_on_c, 2, 64, 64
7, 289676, Note_on_c, 2, 64, 0
7, 289680, Note_on_c, 2, 57, 64
7, 289796, Note_on_c, 2, 57, 0
7, 289800, Note_on_c, 2, 64, 64
7, 289916, Note_on_c, 2, 64, 0
7, 289920, Note_on_c, 2, 61, 64
7, 290036, Note_on_c, 2, 61, 0
7, 290040, Note_on_c, 2, 64, 64
7, 290156, Note_on_c, 2, 64, 0
7, 290160, Note_on_c, 2, 62, 64
7, 290276, Note_on_c, 2, 62, 0
7, 290280, Note_on_c, 2, 66, 64
7, 290396, Note_on_c, 2, 66, 0
7, 290400, Note_on_c, 2, 57, 64
7, 290516, Note_on_c, 2, 57, 0
7, 290520, Note_on_c, 2, 66, 64
7, 290636, Note_on_c, 2, 66, 0
7, 290640, Note_on_c, 2, 62, 64
7, 290756, Note_on_c, 2, 62, 0
7, 290760, Note_on_c, 2, 66, 64
7, 290876, Note_on_c, 2, 66, 0
7, 290880, Note_on_c, 2, 64, 64
7, 290996, Note_on_c, 2, 64, 0
7, 291000, Note_on_c, 2, 67, 64
7, 291116, Note_on_c, 2, 67, 0
7, 291120, Note_on_c, 2, 57, 64
7, 291236, Note_on_c, 2, 57, 0
7, 291240, Note_on_c, 2, 67, 64
7, 291356, Note_on_c, 2, 67, 0
7, 291360, Note_on_c, 2, 64, 64
7, 291476, Note_on_c, 2, 64, 0
7, 291480, Note_on_c, 2, 67, 64
7, 291596, Note_on_c, 2, 67, 0
7, 291600, Note_on_c, 2, 64, 64
7, 291716, Note_on_c, 2, 64, 0
7, 291720, Note_on_c, 2, 67, 64
7, 291836, Note_on_c, 2, 67, 0
7, 291840, Note_on_c, 2, 57, 64
7, 291956, Note_on_c, 2, 57, 0
7, 291960, Note_on_c, 2, 67, 64
7, 292076, Note_on_c, 2, 67, 0
7, 292080, Note_on_c, 2, 64, 64
7, 292196, Note_on_c, 2, 64, 0
7, 292200, Note_on_c, 2, 67, 64
7, 292316, Note_on_c, 2, 67, 0
7, 292320, Note_on_c, 2, 66, 64
7, 292556, Note_on_c, 2, 66, 0
7, 292560, Note_on_c, 2, 62, 64
7, 292796, Note_on_c, 2, 62, 0
7, 292800, Note_on_c, 2, 62, 64
7, 293036, Note_on_c, 2, 62, 0
7, 293040, Note_on_c, 2, 62, 64
7, 293276, Note_on_c, 2, 62, 0
7, 293280, Note_on_c, 2, 62, 64
7, 293516, Note_on_c, 2, 62, 0
7, 293520, Note_on_c, 2, 62, 64
7, 293756, Note_on_c, 2, 62, 0
7, 293760, Note_on_c, 2, 62, 64
7, 293996, Note_on_c, 2, 62, 0
7, 294000, Note_on_c, 2, 62, 64
7, 294236, Note_on_c, 2, 62, 0
7, 294240, Note_on_c, 2, 62, 64
7, 294476, Note_on_c, 2, 62, 0
7, 294480, Note_on_c, 2, 62, 64
7, 294716, Note_on_c, 2, 62, 0
7, 294720, Note_on_c, 2, 62, 64
7, 294956, Note_on_c, 2, 62, 0
7, 294960, Note_on_c, 2, 62, 64
7, 295196, Note_on_c, 2, 62, 0
7, 295200, Note_on_c, 2, 69, 64
7, 295436, Note_on_c, 2, 69, 0
7, 295440, Note_on_c, 2, 69, 64
7, 295676, Note_on_c, 2, 69, 0
7, 295680, Note_on_c, 2, 69, 64
7, 295916, Note_on_c, 2, 69, 0
7, 295920, Note_on_c, 2, 69, 64
7, 296156, Note_on_c, 2, 69, 0
7, 296160, Note_on_c, 2, 69, 64
7, 296396, Note_on_c, 2, 69, 0
7, 296400, Note_on_c, 2, 69, 64
7, 296636, Note_on_c, 2, 69, 0
7, 296640, Note_on_c, 2, 69, 64
7, 296876, Note_on_c, 2, 69, 0
7, 296880, Note_on_c, 2, 64, 64
7, 296996, Note_on_c, 2, 64, 0
7, 297000, Note_on_c, 2, 66, 64
7, 297116, Note_on_c, 2, 66, 0
7, 297120, Note_on_c, 2, 67, 64
7, 297356, Note_on_c, 2, 67, 0
7, 297360, Note_on_c, 2, 57, 64
7, 297596, Note_on_c, 2, 57, 0
7, 297600, Note_on_c, 2, 64, 64
7, 297836, Note_on_c, 2, 64, 0
7, 297840, Note_on_c, 2, 67, 64
7, 298076, Note_on_c, 2, 67, 0
7, 298080, Note_on_c, 2, 66, 64
7, 299516, Note_on_c, 2, 66, 0
7, 299520, Note_on_c, 2, 67, 64
7, 299756, Note_on_c, 2, 67, 0
7, 299760, Note_on_c, 2, 71, 64
7, 299996, Note_on_c, 2, 71, 0
7, 300000, Note_on_c, 2, 74, 64
7, 300236, Note_on_c, 2, 74, 0
7, 300240, Note_on_c, 2, 66, 64
7, 300476, Note_on_c, 2, 66, 0
7, 300480, Note_on_c, 2, 69, 64
7, 300716, Note_on_c, 2, 69, 0
7, 300720, Note_on_c, 2, 74, 64
7, 300956, Note_on_c, 2, 74, 0
7, 300960, Note_on_c, 2, 67, 64
7, 301196, Note_on_c, 2, 67, 0
7, 301200, Note_on_c, 2, 71, 64
7, 301436, Note_on_c, 2, 71, 0
7, 301440, Note_on_c, 2, 74, 64
7, 301676, Note_on_c, 2, 74, 0
7, 301680, Note_on_c, 2, 62, 64
7, 301916, Note_on_c, 2, 62, 0
7, 301920, Note_on_c, 2, 69, 64
7, 302156, Note_on_c, 2, 69, 0
7, 302160, Note_on_c, 2, 74, 64
7, 302396, Note_on_c, 2, 74, 0
7, 302400, Note_on_c, 2, 67, 64
7, 302516, Note_on_c, 2, 67, 0
7, 302520, Note_on_c, 2, 66, 64
7, 302636, Note_on_c, 2, 66, 0
7, 302640, Note_on_c, 2, 67, 64
7, 302756, Note_on_c, 2, 67, 0
7, 302760, Note_on_c, 2, 69, 64
7, 302876, Note_on_c, 2, 69, 0
7, 302880, Note_on_c, 2, 71, 64
7, 302996, Note_on_c, 2, 71, 0
7, 303000, Note_on_c, 2, 72, 64
7, 303116, Note_on_c, 2, 72, 0
7, 303120, Note_on_c, 2, 74, 64
7, 303236, Note_on_c, 2, 74, 0
7, 303240, Note_on_c, 2, 76, 64
7, 303356, Note_on_c, 2, 76, 0
7, 303360, Note_on_c, 2, 74, 64
7, 303476, Note_on_c, 2, 74, 0
7, 303480, Note_on_c, 2, 72, 64
7, 303596, Note_on_c, 2, 72, 0
7, 303600, Note_on_c, 2, 71, 64
7, 303716, Note_on_c, 2, 71, 0
7, 303720, Note_on_c, 2, 69, 64
7, 303836, Note_on_c, 2, 69, 0
7, 303840, Note_on_c, 2, 67, 64
7, 304076, Note_on_c, 2, 67, 0
7, 304080, Note_on_c, 2, 71, 64
7, 304316, Note_on_c, 2, 71, 0
7, 304320, Note_on_c, 2, 62, 64
7, 304556, Note_on_c, 2, 62, 0
7, 304560, Note_on_c, 2, 69, 64
7, 304796, Note_on_c, 2, 69, 0
7, 304800, Note_on_c, 2, 72, 64
7, 305036, Note_on_c, 2, 72, 0
7, 305040, Note_on_c, 2, 62, 64
7, 305276, Note_on_c, 2, 62, 0
7, 305280, Note_on_c, 2, 71, 64
7, 305516, Note_on_c, 2, 71, 0
7, 305520, Note_on_c, 2, 71, 64
7, 305756, Note_on_c, 2, 71, 0
7, 305760, Note_on_c, 2, 71, 64
7, 305996, Note_on_c, 2, 71, 0
7, 306000, Note_on_c, 2, 71, 64
7, 306236, Note_on_c, 2, 71, 0
7, 306240, Note_on_c, 2, 71, 64
7, 306476, Note_on_c, 2, 71, 0
7, 306480, Note_on_c, 2, 71, 64
7, 306716, Note_on_c, 2, 71, 0
7, 306720, Note_on_c, 2, 69, 64
7, 306956, Note_on_c, 2, 69, 0
7, 306960, Note_on_c, 2, 69, 64
7, 307196, Note_on_c, 2, 69, 0
7, 307200, Note_on_c, 2, 69, 64
7, 307436, Note_on_c, 2, 69, 0
7, 307440, Note_on_c, 2, 69, 64
7, 307676, Note_on_c, 2, 69, 0
7, 307680, Note_on_c, 2, 69, 64
7, 307916, Note_on_c, 2, 69, 0
7, 307920, Note_on_c, 2, 69, 64
7, 308156, Note_on_c, 2, 69, 0
7, 308160, Note_on_c, 2, 67, 64
7, 308396, Note_on_c, 2, 67, 0
7, 308400, Note_on_c, 2, 67, 64
7, 308636, Note_on_c, 2, 67, 0
7, 308640, Note_on_c, 2, 67, 64
7, 308876, Note_on_c, 2, 67, 0
7, 308880, Note_on_c, 2, 67, 64
7, 309116, Note_on_c, 2, 67, 0
7, 309120, Note_on_c, 2, 67, 64
7, 309356, Note_on_c, 2, 67, 0
7, 309360, Note_on_c, 2, 67, 64
7, 309596, Note_on_c, 2, 67, 0
7, 309600, Note_on_c, 2, 66, 64
7, 309836, Note_on_c, 2, 66, 0
7, 309840, Note_on_c, 2, 69, 64
7, 310076, Note_on_c, 2, 69, 0
7, 310080, Note_on_c, 2, 74, 64
7, 310316, Note_on_c, 2, 74, 0
7, 310320, Note_on_c, 2, 64, 64
7, 310556, Note_on_c, 2, 64, 0
7, 310560, Note_on_c, 2, 67, 64
7, 310796, Note_on_c, 2, 67, 0
7, 310800, Note_on_c, 2, 73, 64
7, 311036, Note_on_c, 2, 73, 0
7, 311040, Note_on_c, 2, 62, 64
7, 311156, Note_on_c, 2, 62, 0
7, 311160, Note_on_c, 2, 61, 64
7, 311276, Note_on_c, 2, 61, 0
7, 311280, Note_on_c, 2, 62, 64
7, 311396, Note_on_c, 2, 62, 0
7, 311400, Note_on_c, 2, 64, 64
7, 311516, Note_on_c, 2, 64, 0
7, 311520, Note_on_c, 2, 66, 64
7, 311636, Note_on_c, 2, 66, 0
7, 311640, Note_on_c, 2, 67, 64
7, 311756, Note_on_c, 2, 67, 0
7, 311760, Note_on_c, 2, 69, 64
7, 311876, Note_on_c, 2, 69, 0
7, 311880, Note_on_c, 2, 71, 64
7, 311996, Note_on_c, 2, 71, 0
7, 312000, Note_on_c, 2, 69, 64
7, 312116, Note_on_c, 2, 69, 0
7, 312120, Note_on_c, 2, 67, 64
7, 312236, Note_on_c, 2, 67, 0
7, 312240, Note_on_c, 2, 66, 64
7, 312356, Note_on_c, 2, 66, 0
7, 312360, Note_on_c, 2, 64, 64
7, 312476, Note_on_c, 2, 64, 0
7, 312480, Note_on_c, 2, 66, 64
7, 312716, Note_on_c, 2, 66, 0
7, 312720, Note_on_c, 2, 69, 64
7, 312956, Note_on_c, 2, 69, 0
7, 312960, Note_on_c, 2, 74, 64
7, 313196, Note_on_c, 2, 74, 0
7, 313200, Note_on_c, 2, 73, 64
7, 313316, Note_on_c, 2, 73, 0
7, 313320, Note_on_c, 2, 74, 64
7, 313436, Note_on_c, 2, 74, 0
7, 313440, Note_on_c, 2, 73, 64
7, 313556, Note_on_c, 2, 73, 0
7, 313560, Note_on_c, 2, 71, 64
7, 313676, Note_on_c, 2, 71, 0
7, 313680, Note_on_c, 2, 69, 64
7, 313796, Note_on_c, 2, 69, 0
7, 313800, Note_on_c, 2, 67, 64
7, 313916, Note_on_c, 2, 67, 0
7, 313920, Note_on_c, 2, 66, 64
7, 314156, Note_on_c, 2, 66, 0
7, 314160, Note_on_c, 2, 69, 64
7, 314396, Note_on_c, 2, 69, 0
7, 314400, Note_on_c, 2, 62, 64
7, 314636, Note_on_c, 2, 62, 0
7, 314640, Note_on_c, 2, 61, 64
7, 314756, Note_on_c, 2, 61, 0
7, 314760, Note_on_c, 2, 62, 64
7, 314876, Note_on_c, 2, 62, 0
7, 314880, Note_on_c, 2, 61, 64
7, 314996, Note_on_c, 2, 61, 0
7, 315000, Note_on_c, 2, 59, 64
7, 315116, Note_on_c, 2, 59, 0
7, 315120, Note_on_c, 2, 57, 64
7, 315236, Note_on_c, 2, 57, 0
7, 315240, Note_on_c, 2, 55, 64
7, 315356, Note_on_c, 2, 55, 0
7, 315360, Note_on_c, 2, 57, 64
7, 315596, Note_on_c, 2, 57, 0
7, 315600, Note_on_c, 2, 69, 64
7, 315716, Note_on_c, 2, 69, 0
7, 315720, Note_on_c, 2, 67, 64
7, 315836, Note_on_c, 2, 67, 0
7, 315840, Note_on_c, 2, 66, 64
7, 315956, Note_on_c, 2, 66, 0
7, 315960, Note_on_c, 2, 64, 64
7, 316076, Note_on_c, 2, 64, 0
7, 316080, Note_on_c, 2, 62, 64
7, 316316, Note_on_c, 2, 62, 0
7, 316320, Note_on_c, 2, 67, 64
7, 316556, Note_on_c, 2, 67, 0
7, 316560, Note_on_c, 2, 62, 64
7, 316796, Note_on_c, 2, 62, 0
7, 316800, Note_on_c, 2, 64, 64
7, 316916, Note_on_c, 2, 64, 0
7, 316920, Note_on_c, 2, 69, 64
7, 317036, Note_on_c, 2, 69, 0
7, 317040, Note_on_c, 2, 67, 64
7, 317156, Note_on_c, 2, 67, 0
7, 317160, Note_on_c, 2, 66, 64
7, 317276, Note_on_c, 2, 66, 0
7, 317280, Note_on_c, 2, 64, 64
7, 317396, Note_on_c, 2, 64, 0
7, 317400, Note_on_c, 2, 62, 64
7, 317516, Note_on_c, 2, 62, 0
7, 317520, Note_on_c, 2, 61, 64
7, 317756, Note_on_c, 2, 61, 0
7, 317760, Note_on_c, 2, 66, 64
7, 317996, Note_on_c, 2, 66, 0
7, 318000, Note_on_c, 2, 61, 64
7, 318236, Note_on_c, 2, 61, 0
7, 318240, Note_on_c, 2, 62, 64
7, 318356, Note_on_c, 2, 62, 0
7, 318360, Note_on_c, 2, 67, 64
7, 318476, Note_on_c, 2, 67, 0
7, 318480, Note_on_c, 2, 66, 64
7, 318596, Note_on_c, 2, 66, 0
7, 318600, Note_on_c, 2, 64, 64
7, 318716, Note_on_c, 2, 64, 0
7, 318720, Note_on_c, 2, 62, 64
7, 318836, Note_on_c, 2, 62, 0
7, 318840, Note_on_c, 2, 61, 64
7, 318956, Note_on_c, 2, 61, 0
7, 318960, Note_on_c, 2, 59, 64
7, 319196, Note_on_c, 2, 59, 0
7, 319200, Note_on_c, 2, 64, 64
7, 319436, Note_on_c, 2, 64, 0
7, 319440, Note_on_c, 2, 68, 64
7, 319676, Note_on_c, 2, 68, 0
7, 319680, Note_on_c, 2, 69, 64
7, 320156, Note_on_c, 2, 69, 0
7, 320160, Note_on_c, 2, 64, 64
7, 320396, Note_on_c, 2, 64, 0
7, 320400, Note_on_c, 2, 69, 64
7, 320876, Note_on_c, 2, 69, 0
7, 320880, Note_on_c, 2, 66, 64
7, 321116, Note_on_c, 2, 66, 0
7, 321120, Note_on_c, 2, 69, 64
7, 321596, Note_on_c, 2, 69, 0
7, 321600, Note_on_c, 2, 64, 64
7, 321836, Note_on_c, 2, 64, 0
7, 321840, Note_on_c, 2, 69, 64
7, 322316, Note_on_c, 2, 69, 0
7, 322320, Note_on_c, 2, 62, 64
7, 322556, Note_on_c, 2, 62, 0
7, 322560, Note_on_c, 2, 69, 64
7, 322796, Note_on_c, 2, 69, 0
7, 322800, Note_on_c, 2, 64, 64
7, 323036, Note_on_c, 2, 64, 0
7, 323040, Note_on_c, 2, 61, 64
7, 323276, Note_on_c, 2, 61, 0
7, 323280, Note_on_c, 2, 69, 64
7, 323516, Note_on_c, 2, 69, 0
7, 323520, Note_on_c, 2, 66, 64
7, 323756, Note_on_c, 2, 66, 0
7, 323760, Note_on_c, 2, 62, 64
7, 323996, Note_on_c, 2, 62, 0
7, 324000, Note_on_c, 2, 61, 64
7, 324116, Note_on_c, 2, 61, 0
7, 324120, Note_on_c, 2, 64, 64
7, 324236, Note_on_c, 2, 64, 0
7, 324240, Note_on_c, 2, 57, 64
7, 324356, Note_on_c, 2, 57, 0
7, 324360, Note_on_c, 2, 64, 64
7, 324476, Note_on_c, 2, 64, 0
7, 324480, Note_on_c, 2, 61, 64
7, 324596, Note_on_c, 2, 61, 0
7, 324600, Note_on_c, 2, 64, 64
7, 324716, Note_on_c, 2, 64, 0
7, 324720, Note_on_c, 2, 62, 64
7, 324836, Note_on_c, 2, 62, 0
7, 324840, Note_on_c, 2, 66, 64
7, 324956, Note_on_c, 2, 66, 0
7, 324960, Note_on_c, 2, 57, 64
7, 325076, Note_on_c, 2, 57, 0
7, 325080, Note_on_c, 2, 66, 64
7, 325196, Note_on_c, 2, 66, 0
7, 325200, Note_on_c, 2, 62, 64
7, 325316, Note_on_c, 2, 62, 0
7, 325320, Note_on_c, 2, 66, 64
7, 325436, Note_on_c, 2, 66, 0
7, 325440, Note_on_c, 2, 64, 64
7, 325556, Note_on_c, 2, 64, 0
7, 325560, Note_on_c, 2, 67, 64
7, 325676, Note_on_c, 2, 67, 0
7, 325680, Note_on_c, 2, 57, 64
7, 325796, Note_on_c, 2, 57, 0
7, 325800, Note_on_c, 2, 67, 64
7, 325916, Note_on_c, 2, 67, 0
7, 325920, Note_on_c, 2, 64, 64
7, 326036, Note_on_c, 2, 64, 0
7, 326040, Note_on_c, 2, 67, 64
7, 326156, Note_on_c, 2, 67, 0
7, 326160, Note_on_c, 2, 64, 64
7, 326276, Note_on_c, 2, 64, 0
7, 326280, Note_on_c, 2, 67, 64
7, 326396, Note_on_c, 2, 67, 0
7, 326400, Note_on_c, 2, 57, 64
7, 326516, Note_on_c, 2, 57, 0
7, 326520, Note_on_c, 2, 67, 64
7, 326636, Note_on_c, 2, 67, 0
7, 326640, Note_on_c, 2, 64, 64
7, 326756, Note_on_c, 2, 64, 0
7, 326760, Note_on_c, 2, 67, 64
7, 326876, Note_on_c, 2, 67, 0
7, 326880, Note_on_c, 2, 66, 64
7, 327116, Note_on_c, 2, 66, 0
7, 327120, Note_on_c, 2, 62, 64
7, 327356, Note_on_c, 2, 62, 0
7, 327360, Note_on_c, 2, 62, 64
7, 327596, Note_on_c, 2, 62, 0
7, 327600, Note_on_c, 2, 62, 64
7, 327836, Note_on_c, 2, 62, 0
7, 327840, Note_on_c, 2, 62, 64
7, 328076, Note_on_c, 2, 62, 0
7, 328080, Note_on_c, 2, 62, 64
7, 328316, Note_on_c, 2, 62, 0
7, 328320, Note_on_c, 2, 62, 64
7, 328556, Note_on_c, 2, 62, 0
7, 328560, Note_on_c, 2, 62, 64
7, 328796, Note_on_c, 2, 62, 0
7, 328800, Note_on_c, 2, 62, 64
7, 329036, Note_on_c, 2, 62, 0
7, 329040, Note_on_c, 2, 62, 64
7, 329276, Note_on_c, 2, 62, 0
7, 329280, Note_on_c, 2, 62, 64
7, 329516, Note_on_c, 2, 62, 0
7, 329520, Note_on_c, 2, 62, 64
7, 329756, Note_on_c, 2, 62, 0
7, 329760, Note_on_c, 2, 69, 64
7, 329996, Note_on_c, 2, 69, 0
7, 330000, Note_on_c, 2, 69, 64
7, 330236, Note_on_c, 2, 69, 0
7, 330240, Note_on_c, 2, 69, 64
7, 330476, Note_on_c, 2, 69, 0
7, 330480, Note_on_c, 2, 69, 64
7, 330716, Note_on_c, 2, 69, 0
7, 330720, Note_on_c, 2, 69, 64
7, 330956, Note_on_c, 2, 69, 0
7, 330960, Note_on_c, 2, 69, 64
7, 331196, Note_on_c, 2, 69, 0
7, 331200, Note_on_c, 2, 69, 64
7, 331436, Note_on_c, 2, 69, 0
7, 331440, Note_on_c, 2, 64, 64
7, 331556, Note_on_c, 2, 64, 0
7, 331560, Note_on_c, 2, 66, 64
7, 331676, Note_on_c, 2, 66, 0
7, 331680, Note_on_c, 2, 67, 64
7, 331916, Note_on_c, 2, 67, 0
7, 331920, Note_on_c, 2, 57, 64
7, 332156, Note_on_c, 2, 57, 0
7, 332160, Note_on_c, 2, 64, 64
7, 332396, Note_on_c, 2, 64, 0
7, 332400, Note_on_c, 2, 67, 64
7, 332636, Note_on_c, 2, 67, 0
7, 332640, Note_on_c, 2, 66, 64
7, 334076, Note_on_c, 2, 66, 0
7, 334080, Note_on_c, 2, 69, 64
7, 334316, Note_on_c, 2, 69, 0
7, 334320, Note_on_c, 2, 69, 64
7, 334556, Note_on_c, 2, 69, 0
7, 334560, Note_on_c, 2, 69, 64
7, 334796, Note_on_c, 2, 69, 0
7, 334800, Note_on_c, 2, 69, 64
7, 335036, Note_on_c, 2, 69, 0
7, 335040, Note_on_c, 2, 69, 64
7, 335276, Note_on_c, 2, 69, 0
7, 335280, Note_on_c, 2, 69, 64
7, 335516, Note_on_c, 2, 69, 0
7, 335520, Note_on_c, 2, 69, 64
7, 335756, Note_on_c, 2, 69, 0
7, 335760, Note_on_c, 2, 69, 64
7, 335996, Note_on_c, 2, 69, 0
7, 336000, Note_on_c, 2, 69, 64
7, 336236, Note_on_c, 2, 69, 0
7, 336240, Note_on_c, 2, 69, 64
7, 336476, Note_on_c, 2, 69, 0
7, 336480, Note_on_c, 2, 69, 64
7, 336716, Note_on_c, 2, 69, 0
7, 336720, Note_on_c, 2, 69, 64
7, 336956, Note_on_c, 2, 69, 0
7, 336960, Note_on_c, 2, 67, 64
7, 337076, Note_on_c, 2, 67, 0
7, 337080, Note_on_c, 2, 66, 64
7, 337196, Note_on_c, 2, 66, 0
7, 337200, Note_on_c, 2, 64, 64
7, 337316, Note_on_c, 2, 64, 0
7, 337320, Note_on_c, 2, 66, 64
7, 337436, Note_on_c, 2, 66, 0
7, 337440, Note_on_c, 2, 67, 64
7, 337556, Note_on_c, 2, 67, 0
7, 337560, Note_on_c, 2, 69, 64
7, 337676, Note_on_c, 2, 69, 0
7, 337680, Note_on_c, 2, 71, 64
7, 337796, Note_on_c, 2, 71, 0
7, 337800, Note_on_c, 2, 72, 64
7, 337916, Note_on_c, 2, 72, 0
7, 337920, Note_on_c, 2, 71, 64
7, 338036, Note_on_c, 2, 71, 0
7, 338040, Note_on_c, 2, 69, 64
7, 338156, Note_on_c, 2, 69, 0
7, 338160, Note_on_c, 2, 67, 64
7, 338276, Note_on_c, 2, 67, 0
7, 338280, Note_on_c, 2, 66, 64
7, 338396, Note_on_c, 2, 66, 0
7, 338400, Note_on_c, 2, 67, 64
7, 338516, Note_on_c, 2, 67, 0
7, 338520, Note_on_c, 2, 71, 64
7, 338636, Note_on_c, 2, 71, 0
7, 338640, Note_on_c, 2, 69, 64
7, 338756, Note_on_c, 2, 69, 0
7, 338760, Note_on_c, 2, 67, 64
7, 338876, Note_on_c, 2, 67, 0
7, 338880, Note_on_c, 2, 66, 64
7, 338996, Note_on_c, 2, 66, 0
7, 339000, Note_on_c, 2, 64, 64
7, 339116, Note_on_c, 2, 64, 0
7, 339120, Note_on_c, 2, 63, 64
7, 339236, Note_on_c, 2, 63, 0
7, 339240, Note_on_c, 2, 64, 64
7, 339356, Note_on_c, 2, 64, 0
7, 339360, Note_on_c, 2, 63, 64
7, 339476, Note_on_c, 2, 63, 0
7, 339480, Note_on_c, 2, 61, 64
7, 339596, Note_on_c, 2, 61, 0
7, 339600, Note_on_c, 2, 59, 64
7, 339716, Note_on_c, 2, 59, 0
7, 339720, Note_on_c, 2, 57, 64
7, 339836, Note_on_c, 2, 57, 0
7, 339840, Note_on_c, 2, 55, 64
7, 340076, Note_on_c, 2, 55, 0
7, 340080, Note_on_c, 2, 64, 64
7, 340316, Note_on_c, 2, 64, 0
7, 340320, Note_on_c, 2, 64, 64
7, 340556, Note_on_c, 2, 64, 0
7, 340560, Note_on_c, 2, 64, 64
7, 340796, Note_on_c, 2, 64, 0
7, 340800, Note_on_c, 2, 64, 64
7, 341036, Note_on_c, 2, 64, 0
7, 341040, Note_on_c, 2, 64, 64
7, 341276, Note_on_c, 2, 64, 0
7, 341280, Note_on_c, 2, 64, 64
7, 341516, Note_on_c, 2, 64, 0
7, 341520, Note_on_c, 2, 64, 64
7, 341756, Note_on_c, 2, 64, 0
7, 341760, Note_on_c, 2, 64, 64
7, 341996, Note_on_c, 2, 64, 0
7, 342000, Note_on_c, 2, 64, 64
7, 342236, Note_on_c, 2, 64, 0
7, 342240, Note_on_c, 2, 64, 64
7, 342476, Note_on_c, 2, 64, 0
7, 342480, Note_on_c, 2, 64, 64
7, 342716, Note_on_c, 2, 64, 0
7, 342720, Note_on_c, 2, 64, 64
7, 342956, Note_on_c, 2, 64, 0
7, 342960, Note_on_c, 2, 64, 64
7, 343196, Note_on_c, 2, 64, 0
7, 343200, Note_on_c, 2, 64, 64
7, 343436, Note_on_c, 2, 64, 0
7, 343440, Note_on_c, 2, 64, 64
7, 343676, Note_on_c, 2, 64, 0
7, 343680, Note_on_c, 2, 64, 64
7, 343916, Note_on_c, 2, 64, 0
7, 343920, Note_on_c, 2, 64, 64
7, 344156, Note_on_c, 2, 64, 0
7, 344160, Note_on_c, 2, 67, 64
7, 344396, Note_on_c, 2, 67, 0
7, 344400, Note_on_c, 2, 71, 64
7, 344636, Note_on_c, 2, 71, 0
7, 344640, Note_on_c, 2, 66, 64
7, 344876, Note_on_c, 2, 66, 0
7, 344880, Note_on_c, 2, 67, 64
7, 345356, Note_on_c, 2, 67, 0
7, 345600, Note_on_c, 2, 64, 64
7, 345836, Note_on_c, 2, 64, 0
7, 345840, Note_on_c, 2, 67, 64
7, 346076, Note_on_c, 2, 67, 0
7, 346080, Note_on_c, 2, 71, 64
7, 346316, Note_on_c, 2, 71, 0
7, 346320, Note_on_c, 2, 63, 64
7, 346556, Note_on_c, 2, 63, 0
7, 346560, Note_on_c, 2, 66, 64
7, 346796, Note_on_c, 2, 66, 0
7, 346800, Note_on_c, 2, 71, 64
7, 347036, Note_on_c, 2, 71, 0
7, 347040, Note_on_c, 2, 64, 64
7, 347276, Note_on_c, 2, 64, 0
7, 347280, Note_on_c, 2, 67, 64
7, 347516, Note_on_c, 2, 67, 0
7, 347520, Note_on_c, 2, 71, 64
7, 347756, Note_on_c, 2, 71, 0
7, 347760, Note_on_c, 2, 59, 64
7, 347996, Note_on_c, 2, 59, 0
7, 348000, Note_on_c, 2, 66, 64
7, 348236, Note_on_c, 2, 66, 0
7, 348240, Note_on_c, 2, 71, 64
7, 348476, Note_on_c, 2, 71, 0
7, 348480, Note_on_c, 2, 64, 64
7, 348596, Note_on_c, 2, 64, 0
7, 348600, Note_on_c, 2, 63, 64
7, 348716, Note_on_c, 2, 63, 0
7, 348720, Note_on_c, 2, 64, 64
7, 348836, Note_on_c, 2, 64, 0
7, 348840, Note_on_c, 2, 66, 64
7, 348956, Note_on_c, 2, 66, 0
7, 348960, Note_on_c, 2, 67, 64
7, 349076, Note_on_c, 2, 67, 0
7, 349080, Note_on_c, 2, 69, 64
7, 349196, Note_on_c, 2, 69, 0
7, 349200, Note_on_c, 2, 71, 64
7, 349316, Note_on_c, 2, 71, 0
7, 349320, Note_on_c, 2, 72, 64
7, 349436, Note_on_c, 2, 72, 0
7, 349440, Note_on_c, 2, 71, 64
7, 349556, Note_on_c, 2, 71, 0
7, 349560, Note_on_c, 2, 69, 64
7, 349676, Note_on_c, 2, 69, 0
7, 349680, Note_on_c, 2, 67, 64
7, 349796, Note_on_c, 2, 67, 0
7, 349800, Note_on_c, 2, 66, 64
7, 349916, Note_on_c, 2, 66, 0
7, 349920, Note_on_c, 2, 64, 64
7, 350156, Note_on_c, 2, 64, 0
7, 350160, Note_on_c, 2, 67, 64
7, 350396, Note_on_c, 2, 67, 0
7, 350400, Note_on_c, 2, 59, 64
7, 350636, Note_on_c, 2, 59, 0
7, 350640, Note_on_c, 2, 66, 64
7, 350876, Note_on_c, 2, 66, 0
7, 350880, Note_on_c, 2, 69, 64
7, 351116, Note_on_c, 2, 69, 0
7, 351120, Note_on_c, 2, 59, 64
7, 351356, Note_on_c, 2, 59, 0
7, 351360, Note_on_c, 2, 67, 64
7, 351596, Note_on_c, 2, 67, 0
7, 351600, Note_on_c, 2, 67, 64
7, 351836, Note_on_c, 2, 67, 0
7, 351840, Note_on_c, 2, 67, 64
7, 352076, Note_on_c, 2, 67, 0
7, 352080, Note_on_c, 2, 67, 64
7, 352316, Note_on_c, 2, 67, 0
7, 352320, Note_on_c, 2, 67, 64
7, 352556, Note_on_c, 2, 67, 0
7, 352560, Note_on_c, 2, 67, 64
7, 352796, Note_on_c, 2, 67, 0
7, 352800, Note_on_c, 2, 66, 64
7, 353036, Note_on_c, 2, 66, 0
7, 353040, Note_on_c, 2, 66, 64
7, 353276, Note_on_c, 2, 66, 0
7, 353280, Note_on_c, 2, 66, 64
7, 353516, Note_on_c, 2, 66, 0
7, 353520, Note_on_c, 2, 66, 64
7, 353756, Note_on_c, 2, 66, 0
7, 353760, Note_on_c, 2, 66, 64
7, 353996, Note_on_c, 2, 66, 0
7, 354000, Note_on_c, 2, 66, 64
7, 354236, Note_on_c, 2, 66, 0
7, 354240, Note_on_c, 2, 64, 64
7, 354476, Note_on_c, 2, 64, 0
7, 354480, Note_on_c, 2, 64, 64
7, 354716, Note_on_c, 2, 64, 0
7, 354720, Note_on_c, 2, 64, 64
7, 354956, Note_on_c, 2, 64, 0
7, 354960, Note_on_c, 2, 64, 64
7, 355196, Note_on_c, 2, 64, 0
7, 355200, Note_on_c, 2, 64, 64
7, 355436, Note_on_c, 2, 64, 0
7, 355440, Note_on_c, 2, 64, 64
7, 355676, Note_on_c, 2, 64, 0
7, 355680, Note_on_c, 2, 62, 64
7, 355916, Note_on_c, 2, 62, 0
7, 355920, Note_on_c, 2, 66, 64
7, 356156, Note_on_c, 2, 66, 0
7, 356160, Note_on_c, 2, 71, 64
7, 356396, Note_on_c, 2, 71, 0
7, 356400, Note_on_c, 2, 61, 64
7, 356636, Note_on_c, 2, 61, 0
7, 356640, Note_on_c, 2, 64, 64
7, 356876, Note_on_c, 2, 64, 0
7, 356880, Note_on_c, 2, 70, 64
7, 357116, Note_on_c, 2, 70, 0
7, 357120, Note_on_c, 2, 59, 64
7, 357236, Note_on_c, 2, 59, 0
7, 357240, Note_on_c, 2, 58, 64
7, 357356, Note_on_c, 2, 58, 0
7, 357360, Note_on_c, 2, 59, 64
7, 357476, Note_on_c, 2, 59, 0
7, 357480, Note_on_c, 2, 61, 64
7, 357596, Note_on_c, 2, 61, 0
7, 357600, Note_on_c, 2, 62, 64
7, 357716, Note_on_c, 2, 62, 0
7, 357720, Note_on_c, 2, 64, 64
7, 357836, Note_on_c, 2, 64, 0
7, 357840, Note_on_c, 2, 66, 64
7, 357956, Note_on_c, 2, 66, 0
7, 357960, Note_on_c, 2, 67, 64
7, 358076, Note_on_c, 2, 67, 0
7, 358080, Note_on_c, 2, 66, 64
7, 358196, Note_on_c, 2, 66, 0
7, 358200, Note_on_c, 2, 64, 64
7, 358316, Note_on_c, 2, 64, 0
7, 358320, Note_on_c, 2, 62, 64
7, 358436, Note_on_c, 2, 62, 0
7, 358440, Note_on_c, 2, 61, 64
7, 358556, Note_on_c, 2, 61, 0
7, 358560, Note_on_c, 2, 62, 64
7, 358796, Note_on_c, 2, 62, 0
7, 358800, Note_on_c, 2, 66, 64
7, 359036, Note_on_c, 2, 66, 0
7, 359040, Note_on_c, 2, 71, 64
7, 359276, Note_on_c, 2, 71, 0
7, 359280, Note_on_c, 2, 70, 64
7, 359396, Note_on_c, 2, 70, 0
7, 359400, Note_on_c, 2, 71, 64
7, 359516, Note_on_c, 2, 71, 0
7, 359520, Note_on_c, 2, 70, 64
7, 359636, Note_on_c, 2, 70, 0
7, 359640, Note_on_c, 2, 68, 64
7, 359756, Note_on_c, 2, 68, 0
7, 359760, Note_on_c, 2, 66, 64
7, 359876, Note_on_c, 2, 66, 0
7, 360000, Note_on_c, 2, 62, 64
7, 360236, Note_on_c, 2, 62, 0
7, 360240, Note_on_c, 2, 66, 64
7, 360476, Note_on_c, 2, 66, 0
7, 360480, Note_on_c, 2, 71, 64
7, 360716, Note_on_c, 2, 71, 0
7, 360720, Note_on_c, 2, 70, 64
7, 360836, Note_on_c, 2, 70, 0
7, 360840, Note_on_c, 2, 71, 64
7, 360956, Note_on_c, 2, 71, 0
7, 360960, Note_on_c, 2, 70, 64
7, 361076, Note_on_c, 2, 70, 0
7, 361080, Note_on_c, 2, 68, 64
7, 361196, Note_on_c, 2, 68, 0
7, 361200, Note_on_c, 2, 66, 64
7, 361316, Note_on_c, 2, 66, 0
7, 361320, Note_on_c, 2, 64, 64
7, 361436, Note_on_c, 2, 64, 0
7, 361440, Note_on_c, 2, 66, 64
7, 361556, Note_on_c, 2, 66, 0
7, 361560, Note_on_c, 2, 67, 64
7, 361676, Note_on_c, 2, 67, 0
7, 361680, Note_on_c, 2, 66, 64
7, 361796, Note_on_c, 2, 66, 0
7, 361800, Note_on_c, 2, 64, 64
7, 361916, Note_on_c, 2, 64, 0
7, 361920, Note_on_c, 2, 62, 64
7, 362036, Note_on_c, 2, 62, 0
7, 362040, Note_on_c, 2, 61, 64
7, 362156, Note_on_c, 2, 61, 0
7, 362160, Note_on_c, 2, 59, 64
7, 362396, Note_on_c, 2, 59, 0
7, 362400, Note_on_c, 2, 64, 64
7, 362636, Note_on_c, 2, 64, 0
7, 362640, Note_on_c, 2, 59, 64
7, 362876, Note_on_c, 2, 59, 0
7, 362880, Note_on_c, 2, 61, 64
7, 362996, Note_on_c, 2, 61, 0
7, 363000, Note_on_c, 2, 66, 64
7, 363116, Note_on_c, 2, 66, 0
7, 363120, Note_on_c, 2, 64, 64
7, 363236, Note_on_c, 2, 64, 0
7, 363240, Note_on_c, 2, 62, 64
7, 363356, Note_on_c, 2, 62, 0
7, 363360, Note_on_c, 2, 61, 64
7, 363476, Note_on_c, 2, 61, 0
7, 363480, Note_on_c, 2, 59, 64
7, 363596, Note_on_c, 2, 59, 0
7, 363600, Note_on_c, 2, 57, 64
7, 363836, Note_on_c, 2, 57, 0
7, 363840, Note_on_c, 2, 62, 64
7, 364076, Note_on_c, 2, 62, 0
7, 364080, Note_on_c, 2, 57, 64
7, 364316, Note_on_c, 2, 57, 0
7, 364320, Note_on_c, 2, 59, 64
7, 364436, Note_on_c, 2, 59, 0
7, 364440, Note_on_c, 2, 64, 64
7, 364556, Note_on_c, 2, 64, 0
7, 364560, Note_on_c, 2, 62, 64
7, 364676, Note_on_c, 2, 62, 0
7, 364680, Note_on_c, 2, 61, 64
7, 364796, Note_on_c, 2, 61, 0
7, 364800, Note_on_c, 2, 59, 64
7, 364916, Note_on_c, 2, 59, 0
7, 364920, Note_on_c, 2, 57, 64
7, 365036, Note_on_c, 2, 57, 0
7, 365040, Note_on_c, 2, 55, 64
7, 365276, Note_on_c, 2, 55, 0
7, 365280, Note_on_c, 2, 67, 64
7, 365516, Note_on_c, 2, 67, 0
7, 365520, Note_on_c, 2, 61, 64
7, 365756, Note_on_c, 2, 61, 0
7, 365760, Note_on_c, 2, 66, 64
7, 366236, Note_on_c, 2, 66, 0
7, 366240, Note_on_c, 2, 61, 64
7, 366476, Note_on_c, 2, 61, 0
7, 366480, Note_on_c, 2, 66, 64
7, 366956, Note_on_c, 2, 66, 0
7, 366960, Note_on_c, 2, 62, 64
7, 367196, Note_on_c, 2, 62, 0
7, 367200, Note_on_c, 2, 66, 64
7, 367676, Note_on_c, 2, 66, 0
7, 367680, Note_on_c, 2, 61, 64
7, 367916, Note_on_c, 2, 61, 0
7, 367920, Note_on_c, 2, 66, 64
7, 368396, Note_on_c, 2, 66, 0
7, 368400, Note_on_c, 2, 59, 64
7, 368636, Note_on_c, 2, 59, 0
7, 368640, Note_on_c, 2, 66, 64
7, 368876, Note_on_c, 2, 66, 0
7, 368880, Note_on_c, 2, 61, 64
7, 369116, Note_on_c, 2, 61, 0
7, 369120, Note_on_c, 2, 58, 64
7, 369356, Note_on_c, 2, 58, 0
7, 369360, Note_on_c, 2, 66, 64
7, 369596, Note_on_c, 2, 66, 0
7, 369600, Note_on_c, 2, 61, 64
7, 369836, Note_on_c, 2, 61, 0
7, 369840, Note_on_c, 2, 58, 64
7, 370076, Note_on_c, 2, 58, 0
7, 370080, Note_on_c, 2, 70, 64
7, 370196, Note_on_c, 2, 70, 0
7, 370200, Note_on_c, 2, 73, 64
7, 370316, Note_on_c, 2, 73, 0
7, 370320, Note_on_c, 2, 66, 64
7, 370436, Note_on_c, 2, 66, 0
7, 370440, Note_on_c, 2, 73, 64
7, 370556, Note_on_c, 2, 73, 0
7, 370560, Note_on_c, 2, 70, 64
7, 370676, Note_on_c, 2, 70, 0
7, 370680, Note_on_c, 2, 73, 64
7, 370796, Note_on_c, 2, 73, 0
7, 370800, Note_on_c, 2, 71, 64
7, 370916, Note_on_c, 2, 71, 0
7, 370920, Note_on_c, 2, 74, 64
7, 371036, Note_on_c, 2, 74, 0
7, 371040, Note_on_c, 2, 66, 64
7, 371156, Note_on_c, 2, 66, 0
7, 371160, Note_on_c, 2, 74, 64
7, 371276, Note_on_c, 2, 74, 0
7, 371280, Note_on_c, 2, 71, 64
7, 371396, Note_on_c, 2, 71, 0
7, 371400, Note_on_c, 2, 74, 64
7, 371516, Note_on_c, 2, 74, 0
7, 371520, Note_on_c, 2, 73, 64
7, 371636, Note_on_c, 2, 73, 0
7, 371640, Note_on_c, 2, 76, 64
7, 371756, Note_on_c, 2, 76, 0
7, 371760, Note_on_c, 2, 66, 64
7, 371876, Note_on_c, 2, 66, 0
7, 371880, Note_on_c, 2, 76, 64
7, 371996, Note_on_c, 2, 76, 0
7, 372000, Note_on_c, 2, 73, 64
7, 372116, Note_on_c, 2, 73, 0
7, 372120, Note_on_c, 2, 76, 64
7, 372236, Note_on_c, 2, 76, 0
7, 372240, Note_on_c, 2, 73, 64
7, 372356, Note_on_c, 2, 73, 0
7, 372360, Note_on_c, 2, 76, 64
7, 372476, Note_on_c, 2, 76, 0
7, 372480, Note_on_c, 2, 66, 64
7, 372596, Note_on_c, 2, 66, 0
7, 372600, Note_on_c, 2, 76, 64
7, 372716, Note_on_c, 2, 76, 0
7, 372720, Note_on_c, 2, 73, 64
7, 372836, Note_on_c, 2, 73, 0
7, 372840, Note_on_c, 2, 76, 64
7, 372956, Note_on_c, 2, 76, 0
7, 372960, Note_on_c, 2, 75, 64
7, 373196, Note_on_c, 2, 75, 0
7, 373200, Note_on_c, 2, 59, 64
7, 373436, Note_on_c, 2, 59, 0
7, 373440, Note_on_c, 2, 59, 64
7, 373676, Note_on_c, 2, 59, 0
7, 373680, Note_on_c, 2, 59, 64
7, 373916, Note_on_c, 2, 59, 0
7, 373920, Note_on_c, 2, 59, 64
7, 374156, Note_on_c, 2, 59, 0
7, 374160, Note_on_c, 2, 59, 64
7, 374396, Note_on_c, 2, 59, 0
7, 374400, Note_on_c, 2, 59, 64
7, 374636, Note_on_c, 2, 59, 0
7, 374640, Note_on_c, 2, 59, 64
7, 374876, Note_on_c, 2, 59, 0
7, 374880, Note_on_c, 2, 59, 64
7, 375116, Note_on_c, 2, 59, 0
7, 375120, Note_on_c, 2, 59, 64
7, 375356, Note_on_c, 2, 59, 0
7, 375360, Note_on_c, 2, 59, 64
7, 375596, Note_on_c, 2, 59, 0
7, 375600, Note_on_c, 2, 59, 64
7, 375836, Note_on_c, 2, 59, 0
7, 375840, Note_on_c, 2, 66, 64
7, 376076, Note_on_c, 2, 66, 0
7, 376080, Note_on_c, 2, 66, 64
7, 376316, Note_on_c, 2, 66, 0
7, 376320, Note_on_c, 2, 66, 64
7, 376556, Note_on_c, 2, 66, 0
7, 376560, Note_on_c, 2, 66, 64
7, 376796, Note_on_c, 2, 66, 0
7, 376800, Note_on_c, 2, 66, 64
7, 377036, Note_on_c, 2, 66, 0
7, 377040, Note_on_c, 2, 66, 64
7, 377276, Note_on_c, 2, 66, 0
7, 377280, Note_on_c, 2, 66, 64
7, 377396, Note_on_c, 2, 66, 0
7, 377400, Note_on_c, 2, 64, 64
7, 377516, Note_on_c, 2, 64, 0
7, 377520, Note_on_c, 2, 62, 64
7, 377636, Note_on_c, 2, 62, 0
7, 377640, Note_on_c, 2, 64, 64
7, 377756, Note_on_c, 2, 64, 0
7, 377760, Note_on_c, 2, 66, 64
7, 377996, Note_on_c, 2, 66, 0
7, 378000, Note_on_c, 2, 54, 64
7, 378236, Note_on_c, 2, 54, 0
7, 378240, Note_on_c, 2, 61, 64
7, 378356, Note_on_c, 2, 61, 0
7, 378360, Note_on_c, 2, 62, 64
7, 378476, Note_on_c, 2, 62, 0
7, 378480, Note_on_c, 2, 64, 64
7, 378716, Note_on_c, 2, 64, 0
7, 378720, Note_on_c, 2, 62, 64
7, 380156, Note_on_c, 2, 62, 0
7, 380160, Note_on_c, 2, 59, 64
7, 380396, Note_on_c, 2, 59, 0
7, 380400, Note_on_c, 2, 59, 64
7, 380636, Note_on_c, 2, 59, 0
7, 380640, Note_on_c, 2, 59, 64
7, 380876, Note_on_c, 2, 59, 0
7, 380880, Note_on_c, 2, 63, 64
7, 381116, Note_on_c, 2, 63, 0
7, 381120, Note_on_c, 2, 63, 64
7, 381356, Note_on_c, 2, 63, 0
7, 381360, Note_on_c, 2, 63, 64
7, 381596, Note_on_c, 2, 63, 0
7, 381600, Note_on_c, 2, 63, 64
7, 381836, Note_on_c, 2, 63, 0
7, 381840, Note_on_c, 2, 59, 64
7, 382076, Note_on_c, 2, 59, 0
7, 382080, Note_on_c, 2, 59, 64
7, 382316, Note_on_c, 2, 59, 0
7, 382320, Note_on_c, 2, 59, 64
7, 382796, Note_on_c, 2, 59, 0
7, 383040, Note_on_c, 2, 74, 64
7, 383276, Note_on_c, 2, 74, 0
7, 383280, Note_on_c, 2, 74, 64
7, 383516, Note_on_c, 2, 74, 0
7, 383520, Note_on_c, 2, 74, 64
7, 383756, Note_on_c, 2, 74, 0
7, 383760, Note_on_c, 2, 74, 64
7, 383996, Note_on_c, 2, 74, 0
7, 384000, Note_on_c, 2, 74, 64
7, 384236, Note_on_c, 2, 74, 0
7, 384240, Note_on_c, 2, 74, 64
7, 384476, Note_on_c, 2, 74, 0
7, 384480, Note_on_c, 2, 74, 64
7, 384716, Note_on_c, 2, 74, 0
7, 384720, Note_on_c, 2, 78, 64
7, 384836, Note_on_c, 2, 78, 0
7, 384840, Note_on_c, 2, 76, 64
7, 384956, Note_on_c, 2, 76, 0
7, 384960, Note_on_c, 2, 74, 64
7, 385076, Note_on_c, 2, 74, 0
7, 385080, Note_on_c, 2, 72, 64
7, 385196, Note_on_c, 2, 72, 0
7, 385200, Note_on_c, 2, 71, 64
7, 385316, Note_on_c, 2, 71, 0
7, 385320, Note_on_c, 2, 72, 64
7, 385556, Note_on_c, 2, 72, 0
7, 385560, Note_on_c, 2, 69, 64
7, 385796, Note_on_c, 2, 69, 0
7, 386040, Note_on_c, 2, 62, 64
7, 386156, Note_on_c, 2, 62, 0
7, 386160, Note_on_c, 2, 65, 64
7, 386276, Note_on_c, 2, 65, 0
7, 386280, Note_on_c, 2, 69, 64
7, 386396, Note_on_c, 2, 69, 0
7, 386400, Note_on_c, 2, 65, 64
7, 386516, Note_on_c, 2, 65, 0
7, 386520, Note_on_c, 2, 62, 64
7, 386636, Note_on_c, 2, 62, 0
7, 386640, Note_on_c, 2, 71, 64
7, 386876, Note_on_c, 2, 71, 0
7, 386880, Note_on_c, 2, 71, 64
7, 387116, Note_on_c, 2, 71, 0
7, 387120, Note_on_c, 2, 71, 64
7, 387356, Note_on_c, 2, 71, 0
7, 387360, Note_on_c, 2, 71, 64
7, 387476, Note_on_c, 2, 71, 0
7, 387480, Note_on_c, 2, 60, 64
7, 387596, Note_on_c, 2, 60, 0
7, 387600, Note_on_c, 2, 64, 64
7, 387716, Note_on_c, 2, 64, 0
7, 387720, Note_on_c, 2, 67, 64
7, 387836, Note_on_c, 2, 67, 0
7, 387840, Note_on_c, 2, 64, 64
7, 387956, Note_on_c, 2, 64, 0
7, 387960, Note_on_c, 2, 60, 64
7, 388076, Note_on_c, 2, 60, 0
7, 388080, Note_on_c, 2, 69, 64
7, 388316, Note_on_c, 2, 69, 0
7, 388320, Note_on_c, 2, 69, 64
7, 388556, Note_on_c, 2, 69, 0
7, 388560, Note_on_c, 2, 69, 64
7, 388796, Note_on_c, 2, 69, 0
7, 388800, Note_on_c, 2, 55, 64
7, 389036, Note_on_c, 2, 55, 0
7, 389040, Note_on_c, 2, 59, 64
7, 389276, Note_on_c, 2, 59, 0
7, 389280, Note_on_c, 2, 62, 64
7, 389516, Note_on_c, 2, 62, 0
7, 389520, Note_on_c, 2, 55, 64
7, 389756, Note_on_c, 2, 55, 0
7, 389760, Note_on_c, 2, 60, 64
7, 389996, Note_on_c, 2, 60, 0
7, 390000, Note_on_c, 2, 64, 64
7, 390236, Note_on_c, 2, 64, 0
7, 390240, Note_on_c, 2, 55, 64
7, 390476, Note_on_c, 2, 55, 0
7, 390480, Note_on_c, 2, 62, 64
7, 390716, Note_on_c, 2, 62, 0
7, 390720, Note_on_c, 2, 65, 64
7, 390956, Note_on_c, 2, 65, 0
7, 390960, Note_on_c, 2, 55, 64
7, 391196, Note_on_c, 2, 55, 0
7, 391200, Note_on_c, 2, 64, 64
7, 391436, Note_on_c, 2, 64, 0
7, 391440, Note_on_c, 2, 67, 64
7, 391676, Note_on_c, 2, 67, 0
7, 391680, Note_on_c, 2, 59, 64
7, 391796, Note_on_c, 2, 59, 0
7, 391800, Note_on_c, 2, 62, 64
7, 391916, Note_on_c, 2, 62, 0
7, 391920, Note_on_c, 2, 55, 64
7, 392036, Note_on_c, 2, 55, 0
7, 392040, Note_on_c, 2, 62, 64
7, 392156, Note_on_c, 2, 62, 0
7, 392160, Note_on_c, 2, 59, 64
7, 392276, Note_on_c, 2, 59, 0
7, 392280, Note_on_c, 2, 62, 64
7, 392396, Note_on_c, 2, 62, 0
7, 392400, Note_on_c, 2, 60, 64
7, 392516, Note_on_c, 2, 60, 0
7, 392520, Note_on_c, 2, 64, 64
7, 392636, Note_on_c, 2, 64, 0
7, 392640, Note_on_c, 2, 55, 64
7, 392756, Note_on_c, 2, 55, 0
7, 392760, Note_on_c, 2, 64, 64
7, 392876, Note_on_c, 2, 64, 0
7, 392880, Note_on_c, 2, 60, 64
7, 392996, Note_on_c, 2, 60, 0
7, 393000, Note_on_c, 2, 64, 64
7, 393116, Note_on_c, 2, 64, 0
7, 393120, Note_on_c, 2, 62, 64
7, 393236, Note_on_c, 2, 62, 0
7, 393240, Note_on_c, 2, 65, 64
7, 393356, Note_on_c, 2, 65, 0
7, 393360, Note_on_c, 2, 55, 64
7, 393476, Note_on_c, 2, 55, 0
7, 393480, Note_on_c, 2, 65, 64
7, 393596, Note_on_c, 2, 65, 0
7, 393600, Note_on_c, 2, 62, 64
7, 393716, Note_on_c, 2, 62, 0
7, 393720, Note_on_c, 2, 65, 64
7, 393836, Note_on_c, 2, 65, 0
7, 393840, Note_on_c, 2, 64, 64
7, 393956, Note_on_c, 2, 64, 0
7, 393960, Note_on_c, 2, 67, 64
7, 394076, Note_on_c, 2, 67, 0
7, 394080, Note_on_c, 2, 55, 64
7, 394196, Note_on_c, 2, 55, 0
7, 394200, Note_on_c, 2, 67, 64
7, 394316, Note_on_c, 2, 67, 0
7, 394320, Note_on_c, 2, 64, 64
7, 394436, Note_on_c, 2, 64, 0
7, 394440, Note_on_c, 2, 67, 64
7, 394556, Note_on_c, 2, 67, 0
7, 394560, Note_on_c, 2, 54, 64
7, 394796, Note_on_c, 2, 54, 0
7, 394800, Note_on_c, 2, 57, 64
7, 395036, Note_on_c, 2, 57, 0
7, 395040, Note_on_c, 2, 60, 64
7, 395276, Note_on_c, 2, 60, 0
7, 395280, Note_on_c, 2, 57, 64
7, 395516, Note_on_c, 2, 57, 0
7, 395520, Note_on_c, 2, 60, 64
7, 395756, Note_on_c, 2, 60, 0
7, 395760, Note_on_c, 2, 63, 64
7, 395996, Note_on_c, 2, 63, 0
7, 396000, Note_on_c, 2, 62, 64
7, 396116, Note_on_c, 2, 62, 0
7, 396120, Note_on_c, 2, 67, 64
7, 396236, Note_on_c, 2, 67, 0
7, 396240, Note_on_c, 2, 59, 64
7, 396356, Note_on_c, 2, 59, 0
7, 396360, Note_on_c, 2, 67, 64
7, 396476, Note_on_c, 2, 67, 0
7, 396480, Note_on_c, 2, 62, 64
7, 396596, Note_on_c, 2, 62, 0
7, 396600, Note_on_c, 2, 60, 64
7, 396716, Note_on_c, 2, 60, 0
7, 396720, Note_on_c, 2, 62, 64
7, 396836, Note_on_c, 2, 62, 0
7, 396840, Note_on_c, 2, 67, 64
7, 396956, Note_on_c, 2, 67, 0
7, 396960, Note_on_c, 2, 59, 64
7, 397076, Note_on_c, 2, 59, 0
7, 397080, Note_on_c, 2, 67, 64
7, 397196, Note_on_c, 2, 67, 0
7, 397200, Note_on_c, 2, 62, 64
7, 397316, Note_on_c, 2, 62, 0
7, 397320, Note_on_c, 2, 65, 64
7, 397436, Note_on_c, 2, 65, 0
7, 397440, Note_on_c, 2, 67, 64
7, 397676, Note_on_c, 2, 67, 0
7, 397680, Note_on_c, 2, 72, 64
7, 397916, Note_on_c, 2, 72, 0
7, 397920, Note_on_c, 2, 76, 64
7, 398156, Note_on_c, 2, 76, 0
7, 398160, Note_on_c, 2, 69, 64
7, 398396, Note_on_c, 2, 69, 0
7, 398400, Note_on_c, 2, 72, 64
7, 398636, Note_on_c, 2, 72, 0
7, 398640, Note_on_c, 2, 76, 64
7, 398876, Note_on_c, 2, 76, 0
7, 398880, Note_on_c, 2, 67, 64
7, 399116, Note_on_c, 2, 67, 0
7, 399120, Note_on_c, 2, 72, 64
7, 399356, Note_on_c, 2, 72, 0
7, 399360, Note_on_c, 2, 76, 64
7, 399596, Note_on_c, 2, 76, 0
7, 399600, Note_on_c, 2, 65, 64
7, 399836, Note_on_c, 2, 65, 0
7, 399840, Note_on_c, 2, 72, 64
7, 400076, Note_on_c, 2, 72, 0
7, 400080, Note_on_c, 2, 76, 64
7, 400316, Note_on_c, 2, 76, 0
7, 400320, Note_on_c, 2, 67, 64
7, 400556, Note_on_c, 2, 67, 0
7, 400560, Note_on_c, 2, 72, 64
7, 400796, Note_on_c, 2, 72, 0
7, 400800, Note_on_c, 2, 76, 64
7, 401036, Note_on_c, 2, 76, 0
7, 401040, Note_on_c, 2, 69, 64
7, 401276, Note_on_c, 2, 69, 0
7, 401280, Note_on_c, 2, 72, 64
7, 401516, Note_on_c, 2, 72, 0
7, 401520, Note_on_c, 2, 76, 64
7, 401756, Note_on_c, 2, 76, 0
7, 401760, Note_on_c, 2, 67, 64
7, 401996, Note_on_c, 2, 67, 0
7, 402000, Note_on_c, 2, 72, 64
7, 402236, Note_on_c, 2, 72, 0
7, 402240, Note_on_c, 2, 71, 64
7, 402476, Note_on_c, 2, 71, 0
7, 402480, Note_on_c, 2, 72, 64
7, 402716, Note_on_c, 2, 72, 0
7, 402720, Note_on_c, 2, 55, 64
7, 402956, Note_on_c, 2, 55, 0
7, 402960, Note_on_c, 2, 55, 64
7, 403196, Note_on_c, 2, 55, 0
7, 403200, Note_on_c, 2, 55, 64
7, 403436, Note_on_c, 2, 55, 0
7, 403440, Note_on_c, 2, 55, 64
7, 403676, Note_on_c, 2, 55, 0
7, 403680, Note_on_c, 2, 55, 64
7, 403916, Note_on_c, 2, 55, 0
7, 403920, Note_on_c, 2, 55, 64
7, 404156, Note_on_c, 2, 55, 0
7, 404160, Note_on_c, 2, 55, 64
7, 404396, Note_on_c, 2, 55, 0
7, 404400, Note_on_c, 2, 55, 64
7, 404636, Note_on_c, 2, 55, 0
7, 404640, Note_on_c, 2, 55, 64
7, 404876, Note_on_c, 2, 55, 0
7, 404880, Note_on_c, 2, 55, 64
7, 405116, Note_on_c, 2, 55, 0
7, 405120, Note_on_c, 2, 55, 64
7, 405356, Note_on_c, 2, 55, 0
7, 405360, Note_on_c, 2, 55, 64
7, 405596, Note_on_c, 2, 55, 0
7, 405600, Note_on_c, 2, 55, 64
7, 405836, Note_on_c, 2, 55, 0
7, 405840, Note_on_c, 2, 55, 64
7, 406076, Note_on_c, 2, 55, 0
7, 406080, Note_on_c, 2, 55, 64
7, 406316, Note_on_c, 2, 55, 0
7, 406320, Note_on_c, 2, 55, 64
7, 406556, Note_on_c, 2, 55, 0
7, 406560, Note_on_c, 2, 55, 64
7, 406796, Note_on_c, 2, 55, 0
7, 406800, Note_on_c, 2, 55, 64
7, 407036, Note_on_c, 2, 55, 0
7, 407040, Note_on_c, 2, 55, 64
7, 407276, Note_on_c, 2, 55, 0
7, 407280, Note_on_c, 2, 55, 64
7, 407516, Note_on_c, 2, 55, 0
7, 407520, Note_on_c, 2, 55, 64
7, 407756, Note_on_c, 2, 55, 0
7, 407760, Note_on_c, 2, 67, 64
7, 407996, Note_on_c, 2, 67, 0
7, 408000, Note_on_c, 2, 72, 64
7, 408236, Note_on_c, 2, 72, 0
7, 408240, Note_on_c, 2, 71, 64
7, 408356, Note_on_c, 2, 71, 0
7, 408360, Note_on_c, 2, 72, 64
7, 408476, Note_on_c, 2, 72, 0
7, 408480, Note_on_c, 2, 71, 64
7, 408596, Note_on_c, 2, 71, 0
7, 408600, Note_on_c, 2, 69, 64
7, 408716, Note_on_c, 2, 69, 0
7, 408720, Note_on_c, 2, 67, 64
7, 408836, Note_on_c, 2, 67, 0
7, 408840, Note_on_c, 2, 65, 64
7, 408956, Note_on_c, 2, 65, 0
7, 408960, Note_on_c, 2, 67, 64
7, 409076, Note_on_c, 2, 67, 0
7, 409080, Note_on_c, 2, 69, 64
7, 409196, Note_on_c, 2, 69, 0
7, 409200, Note_on_c, 2, 67, 64
7, 409316, Note_on_c, 2, 67, 0
7, 409320, Note_on_c, 2, 65, 64
7, 409436, Note_on_c, 2, 65, 0
7, 409440, Note_on_c, 2, 64, 64
7, 409556, Note_on_c, 2, 64, 0
7, 409560, Note_on_c, 2, 62, 64
7, 409676, Note_on_c, 2, 62, 0
7, 409680, Note_on_c, 2, 60, 64
7, 409916, Note_on_c, 2, 60, 0
7, 409920, Note_on_c, 2, 69, 64
7, 410156, Note_on_c, 2, 69, 0
7, 410160, Note_on_c, 2, 60, 64
7, 410396, Note_on_c, 2, 60, 0
7, 410400, Note_on_c, 2, 62, 64
7, 410516, Note_on_c, 2, 62, 0
7, 410520, Note_on_c, 2, 67, 64
7, 410636, Note_on_c, 2, 67, 0
7, 410640, Note_on_c, 2, 66, 64
7, 410756, Note_on_c, 2, 66, 0
7, 410760, Note_on_c, 2, 64, 64
7, 410876, Note_on_c, 2, 64, 0
7, 410880, Note_on_c, 2, 62, 64
7, 410996, Note_on_c, 2, 62, 0
7, 411000, Note_on_c, 2, 60, 64
7, 411116, Note_on_c, 2, 60, 0
7, 411120, Note_on_c, 2, 59, 64
7, 411356, Note_on_c, 2, 59, 0
7, 411360, Note_on_c, 2, 64, 64
7, 411596, Note_on_c, 2, 64, 0
7, 411600, Note_on_c, 2, 59, 64
7, 411836, Note_on_c, 2, 59, 0
7, 411840, Note_on_c, 2, 60, 64
7, 411956, Note_on_c, 2, 60, 0
7, 411960, Note_on_c, 2, 65, 64
7, 412076, Note_on_c, 2, 65, 0
7, 412080, Note_on_c, 2, 64, 64
7, 412196, Note_on_c, 2, 64, 0
7, 412200, Note_on_c, 2, 62, 64
7, 412316, Note_on_c, 2, 62, 0
7, 412320, Note_on_c, 2, 60, 64
7, 412436, Note_on_c, 2, 60, 0
7, 412440, Note_on_c, 2, 59, 64
7, 412556, Note_on_c, 2, 59, 0
7, 412560, Note_on_c, 2, 57, 64
7, 412796, Note_on_c, 2, 57, 0
7, 412800, Note_on_c, 2, 62, 64
7, 413036, Note_on_c, 2, 62, 0
7, 413040, Note_on_c, 2, 66, 64
7, 413276, Note_on_c, 2, 66, 0
7, 413280, Note_on_c, 2, 67, 64
7, 413516, Note_on_c, 2, 67, 0
7, 413520, Note_on_c, 2, 71, 64
7, 413756, Note_on_c, 2, 71, 0
7, 413760, Note_on_c, 2, 74, 64
7, 413996, Note_on_c, 2, 74, 0
7, 414000, Note_on_c, 2, 66, 64
7, 414236, Note_on_c, 2, 66, 0
7, 414240, Note_on_c, 2, 69, 64
7, 414476, Note_on_c, 2, 69, 0
7, 414480, Note_on_c, 2, 74, 64
7, 414716, Note_on_c, 2, 74, 0
7, 414720, Note_on_c, 2, 67, 64
7, 414956, Note_on_c, 2, 67, 0
7, 414960, Note_on_c, 2, 71, 64
7, 415196, Note_on_c, 2, 71, 0
7, 415200, Note_on_c, 2, 74, 64
7, 415436, Note_on_c, 2, 74, 0
7, 415440, Note_on_c, 2, 62, 64
7, 415676, Note_on_c, 2, 62, 0
7, 415680, Note_on_c, 2, 69, 64
7, 415916, Note_on_c, 2, 69, 0
7, 415920, Note_on_c, 2, 74, 64
7, 416156, Note_on_c, 2, 74, 0
7, 416160, Note_on_c, 2, 55, 64
7, 416276, Note_on_c, 2, 55, 0
7, 416280, Note_on_c, 2, 54, 64
7, 416396, Note_on_c, 2, 54, 0
7, 416400, Note_on_c, 2, 55, 64
7, 416516, Note_on_c, 2, 55, 0
7, 416520, Note_on_c, 2, 57, 64
7, 416636, Note_on_c, 2, 57, 0
7, 416640, Note_on_c, 2, 59, 64
7, 416756, Note_on_c, 2, 59, 0
7, 416760, Note_on_c, 2, 60, 64
7, 416876, Note_on_c, 2, 60, 0
7, 416880, Note_on_c, 2, 62, 64
7, 416996, Note_on_c, 2, 62, 0
7, 417000, Note_on_c, 2, 64, 64
7, 417116, Note_on_c, 2, 64, 0
7, 417120, Note_on_c, 2, 62, 64
7, 417236, Note_on_c, 2, 62, 0
7, 417240, Note_on_c, 2, 60, 64
7, 417356, Note_on_c, 2, 60, 0
7, 417360, Note_on_c, 2, 59, 64
7, 417476, Note_on_c, 2, 59, 0
7, 417480, Note_on_c, 2, 57, 64
7, 417596, Note_on_c, 2, 57, 0
7, 417600, Note_on_c, 2, 55, 64
7, 417836, Note_on_c, 2, 55, 0
7, 417840, Note_on_c, 2, 59, 64
7, 418076, Note_on_c, 2, 59, 0
7, 418080, Note_on_c, 2, 62, 64
7, 418316, Note_on_c, 2, 62, 0
7, 418320, Note_on_c, 2, 69, 64
7, 418556, Note_on_c, 2, 69, 0
7, 418560, Note_on_c, 2, 72, 64
7, 418796, Note_on_c, 2, 72, 0
7, 418800, Note_on_c, 2, 62, 64
7, 419036, Note_on_c, 2, 62, 0
7, 419040, Note_on_c, 2, 71, 64
7, 419276, Note_on_c, 2, 71, 0
7, 419280, Note_on_c, 2, 71, 64
7, 419516, Note_on_c, 2, 71, 0
7, 419520, Note_on_c, 2, 71, 64
7, 419756, Note_on_c, 2, 71, 0
7, 419760, Note_on_c, 2, 71, 64
7, 419996, Note_on_c, 2, 71, 0
7, 420000, Note_on_c, 2, 71, 64
7, 420236, Note_on_c, 2, 71, 0
7, 420240, Note_on_c, 2, 71, 64
7, 420476, Note_on_c, 2, 71, 0
7, 420480, Note_on_c, 2, 69, 64
7, 420716, Note_on_c, 2, 69, 0
7, 420720, Note_on_c, 2, 69, 64
7, 420956, Note_on_c, 2, 69, 0
7, 420960, Note_on_c, 2, 69, 64
7, 421196, Note_on_c, 2, 69, 0
7, 421200, Note_on_c, 2, 69, 64
7, 421436, Note_on_c, 2, 69, 0
7, 421440, Note_on_c, 2, 69, 64
7, 421676, Note_on_c, 2, 69, 0
7, 421680, Note_on_c, 2, 69, 64
7, 421916, Note_on_c, 2, 69, 0
7, 421920, Note_on_c, 2, 67, 64
7, 422156, Note_on_c, 2, 67, 0
7, 422160, Note_on_c, 2, 67, 64
7, 422396, Note_on_c, 2, 67, 0
7, 422400, Note_on_c, 2, 67, 64
7, 422636, Note_on_c, 2, 67, 0
7, 422640, Note_on_c, 2, 67, 64
7, 422876, Note_on_c, 2, 67, 0
7, 422880, Note_on_c, 2, 67, 64
7, 423116, Note_on_c, 2, 67, 0
7, 423120, Note_on_c, 2, 67, 64
7, 423356, Note_on_c, 2, 67, 0
7, 423360, Note_on_c, 2, 66, 64
7, 423836, Note_on_c, 2, 66, 0
7, 423840, Note_on_c, 2, 69, 64
7, 424076, Note_on_c, 2, 69, 0
7, 424080, Note_on_c, 2, 67, 64
7, 424556, Note_on_c, 2, 67, 0
7, 424560, Note_on_c, 2, 71, 64
7, 424796, Note_on_c, 2, 71, 0
7, 424800, Note_on_c, 2, 69, 64
7, 425276, Note_on_c, 2, 69, 0
7, 425280, Note_on_c, 2, 72, 64
7, 425516, Note_on_c, 2, 72, 0
7, 425520, Note_on_c, 2, 71, 64
7, 425996, Note_on_c, 2, 71, 0
7, 426000, Note_on_c, 2, 74, 64
7, 426236, Note_on_c, 2, 74, 0
7, 426240, Note_on_c, 2, 66, 64
7, 426356, Note_on_c, 2, 66, 0
7, 426360, Note_on_c, 2, 69, 64
7, 426476, Note_on_c, 2, 69, 0
7, 426480, Note_on_c, 2, 62, 64
7, 426596, Note_on_c, 2, 62, 0
7, 426600, Note_on_c, 2, 69, 64
7, 426716, Note_on_c, 2, 69, 0
7, 426720, Note_on_c, 2, 66, 64
7, 426836, Note_on_c, 2, 66, 0
7, 426840, Note_on_c, 2, 69, 64
7, 426956, Note_on_c, 2, 69, 0
7, 426960, Note_on_c, 2, 67, 64
7, 427076, Note_on_c, 2, 67, 0
7, 427080, Note_on_c, 2, 71, 64
7, 427196, Note_on_c, 2, 71, 0
7, 427200, Note_on_c, 2, 62, 64
7, 427316, Note_on_c, 2, 62, 0
7, 427320, Note_on_c, 2, 71, 64
7, 427436, Note_on_c, 2, 71, 0
7, 427440, Note_on_c, 2, 67, 64
7, 427556, Note_on_c, 2, 67, 0
7, 427560, Note_on_c, 2, 71, 64
7, 427676, Note_on_c, 2, 71, 0
7, 427680, Note_on_c, 2, 69, 64
7, 427796, Note_on_c, 2, 69, 0
7, 427800, Note_on_c, 2, 72, 64
7, 427916, Note_on_c, 2, 72, 0
7, 427920, Note_on_c, 2, 62, 64
7, 428036, Note_on_c, 2, 62, 0
7, 428040, Note_on_c, 2, 72, 64
7, 428156, Note_on_c, 2, 72, 0
7, 428160, Note_on_c, 2, 69, 64
7, 428276, Note_on_c, 2, 69, 0
7, 428280, Note_on_c, 2, 72, 64
7, 428396, Note_on_c, 2, 72, 0
7, 428400, Note_on_c, 2, 71, 64
7, 428516, Note_on_c, 2, 71, 0
7, 428520, Note_on_c, 2, 74, 64
7, 428636, Note_on_c, 2, 74, 0
7, 428640, Note_on_c, 2, 62, 64
7, 428756, Note_on_c, 2, 62, 0
7, 428760, Note_on_c, 2, 74, 64
7, 428876, Note_on_c, 2, 74, 0
7, 428880, Note_on_c, 2, 71, 64
7, 428996, Note_on_c, 2, 71, 0
7, 429000, Note_on_c, 2, 74, 64
7, 429116, Note_on_c, 2, 74, 0
7, 429120, Note_on_c, 2, 62, 64
7, 429236, Note_on_c, 2, 62, 0
7, 429240, Note_on_c, 2, 66, 64
7, 429356, Note_on_c, 2, 66, 0
7, 429360, Note_on_c, 2, 69, 64
7, 429476, Note_on_c, 2, 69, 0
7, 429480, Note_on_c, 2, 66, 64
7, 429596, Note_on_c, 2, 66, 0
7, 429600, Note_on_c, 2, 62, 64
7, 429716, Note_on_c, 2, 62, 0
7, 429720, Note_on_c, 2, 57, 64
7, 429836, Note_on_c, 2, 57, 0
7, 429840, Note_on_c, 2, 62, 64
7, 429956, Note_on_c, 2, 62, 0
7, 429960, Note_on_c, 2, 57, 64
7, 430076, Note_on_c, 2, 57, 0
7, 430080, Note_on_c, 2, 62, 64
7, 430196, Note_on_c, 2, 62, 0
7, 430200, Note_on_c, 2, 66, 64
7, 430316, Note_on_c, 2, 66, 0
7, 430320, Note_on_c, 2, 69, 64
7, 430436, Note_on_c, 2, 69, 0
7, 430440, Note_on_c, 2, 66, 64
7, 430556, Note_on_c, 2, 66, 0
7, 430560, Note_on_c, 2, 71, 64
7, 430796, Note_on_c, 2, 71, 0
7, 430800, Note_on_c, 2, 55, 64
7, 431036, Note_on_c, 2, 55, 0
7, 431040, Note_on_c, 2, 55, 64
7, 431276, Note_on_c, 2, 55, 0
7, 431280, Note_on_c, 2, 55, 64
7, 431516, Note_on_c, 2, 55, 0
7, 431520, Note_on_c, 2, 55, 64
7, 431756, Note_on_c, 2, 55, 0
7, 431760, Note_on_c, 2, 55, 64
7, 431996, Note_on_c, 2, 55, 0
7, 432000, Note_on_c, 2, 55, 64
7, 432236, Note_on_c, 2, 55, 0
7, 432240, Note_on_c, 2, 55, 64
7, 432476, Note_on_c, 2, 55, 0
7, 432480, Note_on_c, 2, 55, 64
7, 432716, Note_on_c, 2, 55, 0
7, 432720, Note_on_c, 2, 55, 64
7, 432956, Note_on_c, 2, 55, 0
7, 432960, Note_on_c, 2, 55, 64
7, 433196, Note_on_c, 2, 55, 0
7, 433200, Note_on_c, 2, 55, 64
7, 433436, Note_on_c, 2, 55, 0
7, 433440, Note_on_c, 2, 62, 64
7, 433676, Note_on_c, 2, 62, 0
7, 433680, Note_on_c, 2, 62, 64
7, 433916, Note_on_c, 2, 62, 0
7, 433920, Note_on_c, 2, 62, 64
7, 434156, Note_on_c, 2, 62, 0
7, 434160, Note_on_c, 2, 62, 64
7, 434396, Note_on_c, 2, 62, 0
7, 434400, Note_on_c, 2, 62, 64
7, 434636, Note_on_c, 2, 62, 0
7, 434640, Note_on_c, 2, 62, 64
7, 434876, Note_on_c, 2, 62, 0
7, 434880, Note_on_c, 2, 62, 64
7, 435116, Note_on_c, 2, 62, 0
7, 437760, Note_on_c, 2, 69, 64
7, 437996, Note_on_c, 2, 69, 0
7, 438000, Note_on_c, 2, 69, 64
7, 438236, Note_on_c, 2, 69, 0
7, 438240, Note_on_c, 2, 69, 64
7, 438476, Note_on_c, 2, 69, 0
7, 438480, Note_on_c, 2, 69, 64
7, 438716, Note_on_c, 2, 69, 0
7, 438720, Note_on_c, 2, 69, 64
7, 438956, Note_on_c, 2, 69, 0
7, 438960, Note_on_c, 2, 69, 64
7, 439196, Note_on_c, 2, 69, 0
7, 439200, Note_on_c, 2, 69, 64
7, 439436, Note_on_c, 2, 69, 0
7, 439440, Note_on_c, 2, 69, 64
7, 439676, Note_on_c, 2, 69, 0
7, 439680, Note_on_c, 2, 69, 64
7, 439916, Note_on_c, 2, 69, 0
7, 439920, Note_on_c, 2, 69, 64
7, 440156, Note_on_c, 2, 69, 0
7, 440160, Note_on_c, 2, 69, 64
7, 440396, Note_on_c, 2, 69, 0
7, 440400, Note_on_c, 2, 69, 64
7, 440636, Note_on_c, 2, 69, 0
7, 440640, Note_on_c, 2, 67, 64
7, 440756, Note_on_c, 2, 67, 0
7, 440760, Note_on_c, 2, 66, 64
7, 440876, Note_on_c, 2, 66, 0
7, 440880, Note_on_c, 2, 64, 64
7, 440996, Note_on_c, 2, 64, 0
7, 441000, Note_on_c, 2, 66, 64
7, 441116, Note_on_c, 2, 66, 0
7, 441120, Note_on_c, 2, 67, 64
7, 441236, Note_on_c, 2, 67, 0
7, 441240, Note_on_c, 2, 69, 64
7, 441356, Note_on_c, 2, 69, 0
7, 441360, Note_on_c, 2, 71, 64
7, 441476, Note_on_c, 2, 71, 0
7, 441480, Note_on_c, 2, 72, 64
7, 441596, Note_on_c, 2, 72, 0
7, 441600, Note_on_c, 2, 71, 64
7, 441716, Note_on_c, 2, 71, 0
7, 441720, Note_on_c, 2, 69, 64
7, 441836, Note_on_c, 2, 69, 0
7, 441840, Note_on_c, 2, 67, 64
7, 441956, Note_on_c, 2, 67, 0
7, 441960, Note_on_c, 2, 66, 64
7, 442076, Note_on_c, 2, 66, 0
7, 442080, Note_on_c, 2, 67, 64
7, 442196, Note_on_c, 2, 67, 0
7, 442200, Note_on_c, 2, 71, 64
7, 442316, Note_on_c, 2, 71, 0
7, 442320, Note_on_c, 2, 69, 64
7, 442436, Note_on_c, 2, 69, 0
7, 442440, Note_on_c, 2, 67, 64
7, 442556, Note_on_c, 2, 67, 0
7, 442560, Note_on_c, 2, 66, 64
7, 442676, Note_on_c, 2, 66, 0
7, 442680, Note_on_c, 2, 64, 64
7, 442796, Note_on_c, 2, 64, 0
7, 442800, Note_on_c, 2, 63, 64
7, 442916, Note_on_c, 2, 63, 0
7, 442920, Note_on_c, 2, 64, 64
7, 443036, Note_on_c, 2, 64, 0
7, 443040, Note_on_c, 2, 63, 64
7, 443156, Note_on_c, 2, 63, 0
7, 443160, Note_on_c, 2, 61, 64
7, 443276, Note_on_c, 2, 61, 0
7, 443280, Note_on_c, 2, 59, 64
7, 443396, Note_on_c, 2, 59, 0
7, 443400, Note_on_c, 2, 57, 64
7, 443516, Note_on_c, 2, 57, 0
7, 443520, Note_on_c, 2, 55, 64
7, 443756, Note_on_c, 2, 55, 0
7, 443760, Note_on_c, 2, 64, 64
7, 443996, Note_on_c, 2, 64, 0
7, 444000, Note_on_c, 2, 64, 64
7, 444236, Note_on_c, 2, 64, 0
7, 444240, Note_on_c, 2, 64, 64
7, 444476, Note_on_c, 2, 64, 0
7, 444480, Note_on_c, 2, 64, 64
7, 444716, Note_on_c, 2, 64, 0
7, 444720, Note_on_c, 2, 64, 64
7, 444956, Note_on_c, 2, 64, 0
7, 444960, Note_on_c, 2, 64, 64
7, 445196, Note_on_c, 2, 64, 0
7, 445200, Note_on_c, 2, 64, 64
7, 445436, Note_on_c, 2, 64, 0
7, 445440, Note_on_c, 2, 64, 64
7, 445676, Note_on_c, 2, 64, 0
7, 445680, Note_on_c, 2, 64, 64
7, 445916, Note_on_c, 2, 64, 0
7, 445920, Note_on_c, 2, 64, 64
7, 446156, Note_on_c, 2, 64, 0
7, 446160, Note_on_c, 2, 64, 64
7, 446396, Note_on_c, 2, 64, 0
7, 446400, Note_on_c, 2, 64, 64
7, 446636, Note_on_c, 2, 64, 0
7, 446640, Note_on_c, 2, 64, 64
7, 446876, Note_on_c, 2, 64, 0
7, 446880, Note_on_c, 2, 64, 64
7, 447116, Note_on_c, 2, 64, 0
7, 447120, Note_on_c, 2, 64, 64
7, 447356, Note_on_c, 2, 64, 0
7, 447360, Note_on_c, 2, 64, 64
7, 447596, Note_on_c, 2, 64, 0
7, 447600, Note_on_c, 2, 64, 64
7, 447836, Note_on_c, 2, 64, 0
7, 447840, Note_on_c, 2, 67, 64
7, 448076, Note_on_c, 2, 67, 0
7, 448080, Note_on_c, 2, 71, 64
7, 448316, Note_on_c, 2, 71, 0
7, 448320, Note_on_c, 2, 66, 64
7, 448556, Note_on_c, 2, 66, 0
7, 448560, Note_on_c, 2, 67, 64
7, 449036, Note_on_c, 2, 67, 0
7, 449280, Note_on_c, 2, 64, 64
7, 449516, Note_on_c, 2, 64, 0
7, 449520, Note_on_c, 2, 67, 64
7, 449756, Note_on_c, 2, 67, 0
7, 449760, Note_on_c, 2, 71, 64
7, 449996, Note_on_c, 2, 71, 0
7, 450000, Note_on_c, 2, 63, 64
7, 450236, Note_on_c, 2, 63, 0
7, 450240, Note_on_c, 2, 66, 64
7, 450476, Note_on_c, 2, 66, 0
7, 450480, Note_on_c, 2, 71, 64
7, 450716, Note_on_c, 2, 71, 0
7, 450720, Note_on_c, 2, 64, 64
7, 450956, Note_on_c, 2, 64, 0
7, 450960, Note_on_c, 2, 67, 64
7, 451196, Note_on_c, 2, 67, 0
7, 451200, Note_on_c, 2, 71, 64
7, 451436, Note_on_c, 2, 71, 0
7, 451440, Note_on_c, 2, 59, 64
7, 451676, Note_on_c, 2, 59, 0
7, 451680, Note_on_c, 2, 66, 64
7, 451916, Note_on_c, 2, 66, 0
7, 451920, Note_on_c, 2, 71, 64
7, 452156, Note_on_c, 2, 71, 0
7, 452160, Note_on_c, 2, 64, 64
7, 452276, Note_on_c, 2, 64, 0
7, 452280, Note_on_c, 2, 63, 64
7, 452396, Note_on_c, 2, 63, 0
7, 452400, Note_on_c, 2, 64, 64
7, 452516, Note_on_c, 2, 64, 0
7, 452520, Note_on_c, 2, 66, 64
7, 452636, Note_on_c, 2, 66, 0
7, 452640, Note_on_c, 2, 67, 64
7, 452756, Note_on_c, 2, 67, 0
7, 452760, Note_on_c, 2, 69, 64
7, 452876, Note_on_c, 2, 69, 0
7, 452880, Note_on_c, 2, 71, 64
7, 452996, Note_on_c, 2, 71, 0
7, 453000, Note_on_c, 2, 72, 64
7, 453116, Note_on_c, 2, 72, 0
7, 453120, Note_on_c, 2, 71, 64
7, 453236, Note_on_c, 2, 71, 0
7, 453240, Note_on_c, 2, 69, 64
7, 453356, Note_on_c, 2, 69, 0
7, 453360, Note_on_c, 2, 67, 64
7, 453476, Note_on_c, 2, 67, 0
7, 453480, Note_on_c, 2, 66, 64
7, 453596, Note_on_c, 2, 66, 0
7, 453600, Note_on_c, 2, 64, 64
7, 453836, Note_on_c, 2, 64, 0
7, 453840, Note_on_c, 2, 67, 64
7, 454076, Note_on_c, 2, 67, 0
7, 454080, Note_on_c, 2, 59, 64
7, 454316, Note_on_c, 2, 59, 0
7, 454320, Note_on_c, 2, 66, 64
7, 454556, Note_on_c, 2, 66, 0
7, 454560, Note_on_c, 2, 69, 64
7, 454796, Note_on_c, 2, 69, 0
7, 454800, Note_on_c, 2, 59, 64
7, 455036, Note_on_c, 2, 59, 0
7, 455040, Note_on_c, 2, 67, 64
7, 455276, Note_on_c, 2, 67, 0
7, 455280, Note_on_c, 2, 67, 64
7, 455516, Note_on_c, 2, 67, 0
7, 455520, Note_on_c, 2, 67, 64
7, 455756, Note_on_c, 2, 67, 0
7, 455760, Note_on_c, 2, 67, 64
7, 455996, Note_on_c, 2, 67, 0
7, 456000, Note_on_c, 2, 67, 64
7, 456236, Note_on_c, 2, 67, 0
7, 456240, Note_on_c, 2, 67, 64
7, 456476, Note_on_c, 2, 67, 0
7, 456480, Note_on_c, 2, 66, 64
7, 456716, Note_on_c, 2, 66, 0
7, 456720, Note_on_c, 2, 66, 64
7, 456956, Note_on_c, 2, 66, 0
7, 456960, Note_on_c, 2, 66, 64
7, 457196, Note_on_c, 2, 66, 0
7, 457200, Note_on_c, 2, 66, 64
7, 457436, Note_on_c, 2, 66, 0
7, 457440, Note_on_c, 2, 66, 64
7, 457676, Note_on_c, 2, 66, 0
7, 457680, Note_on_c, 2, 66, 64
7, 457916, Note_on_c, 2, 66, 0
7, 457920, Note_on_c, 2, 64, 64
7, 458156, Note_on_c, 2, 64, 0
7, 458160, Note_on_c, 2, 64, 64
7, 458396, Note_on_c, 2, 64, 0
7, 458400, Note_on_c, 2, 64, 64
7, 458636, Note_on_c, 2, 64, 0
7, 458640, Note_on_c, 2, 64, 64
7, 458876, Note_on_c, 2, 64, 0
7, 458880, Note_on_c, 2, 64, 64
7, 459116, Note_on_c, 2, 64, 0
7, 459120, Note_on_c, 2, 64, 64
7, 459356, Note_on_c, 2, 64, 0
7, 459360, Note_on_c, 2, 62, 64
7, 459596, Note_on_c, 2, 62, 0
7, 459600, Note_on_c, 2, 66, 64
7, 459836, Note_on_c, 2, 66, 0
7, 459840, Note_on_c, 2, 71, 64
7, 460076, Note_on_c, 2, 71, 0
7, 460080, Note_on_c, 2, 61, 64
7, 460316, Note_on_c, 2, 61, 0
7, 460320, Note_on_c, 2, 64, 64
7, 460556, Note_on_c, 2, 64, 0
7, 460560, Note_on_c, 2, 70, 64
7, 460796, Note_on_c, 2, 70, 0
7, 460800, Note_on_c, 2, 59, 64
7, 460916, Note_on_c, 2, 59, 0
7, 460920, Note_on_c, 2, 58, 64
7, 461036, Note_on_c, 2, 58, 0
7, 461040, Note_on_c, 2, 59, 64
7, 461156, Note_on_c, 2, 59, 0
7, 461160, Note_on_c, 2, 61, 64
7, 461276, Note_on_c, 2, 61, 0
7, 461280, Note_on_c, 2, 62, 64
7, 461396, Note_on_c, 2, 62, 0
7, 461400, Note_on_c, 2, 64, 64
7, 461516, Note_on_c, 2, 64, 0
7, 461520, Note_on_c, 2, 66, 64
7, 461636, Note_on_c, 2, 66, 0
7, 461640, Note_on_c, 2, 67, 64
7, 461756, Note_on_c, 2, 67, 0
7, 461760, Note_on_c, 2, 66, 64
7, 461876, Note_on_c, 2, 66, 0
7, 461880, Note_on_c, 2, 64, 64
7, 461996, Note_on_c, 2, 64, 0
7, 462000, Note_on_c, 2, 62, 64
7, 462116, Note_on_c, 2, 62, 0
7, 462120, Note_on_c, 2, 61, 64
7, 462236, Note_on_c, 2, 61, 0
7, 462240, Note_on_c, 2, 62, 64
7, 462476, Note_on_c, 2, 62, 0
7, 462480, Note_on_c, 2, 66, 64
7, 462716, Note_on_c, 2, 66, 0
7, 462720, Note_on_c, 2, 71, 64
7, 462956, Note_on_c, 2, 71, 0
7, 462960, Note_on_c, 2, 70, 64
7, 463076, Note_on_c, 2, 70, 0
7, 463080, Note_on_c, 2, 71, 64
7, 463196, Note_on_c, 2, 71, 0
7, 463200, Note_on_c, 2, 70, 64
7, 463316, Note_on_c, 2, 70, 0
7, 463320, Note_on_c, 2, 68, 64
7, 463436, Note_on_c, 2, 68, 0
7, 463440, Note_on_c, 2, 66, 64
7, 463556, Note_on_c, 2, 66, 0
7, 463680, Note_on_c, 2, 62, 64
7, 463916, Note_on_c, 2, 62, 0
7, 463920, Note_on_c, 2, 66, 64
7, 464156, Note_on_c, 2, 66, 0
7, 464160, Note_on_c, 2, 71, 64
7, 464396, Note_on_c, 2, 71, 0
7, 464400, Note_on_c, 2, 70, 64
7, 464516, Note_on_c, 2, 70, 0
7, 464520, Note_on_c, 2, 71, 64
7, 464636, Note_on_c, 2, 71, 0
7, 464640, Note_on_c, 2, 70, 64
7, 464756, Note_on_c, 2, 70, 0
7, 464760, Note_on_c, 2, 68, 64
7, 464876, Note_on_c, 2, 68, 0
7, 464880, Note_on_c, 2, 66, 64
7, 464996, Note_on_c, 2, 66, 0
7, 465000, Note_on_c, 2, 64, 64
7, 465116, Note_on_c, 2, 64, 0
7, 465120, Note_on_c, 2, 66, 64
7, 465236, Note_on_c, 2, 66, 0
7, 465240, Note_on_c, 2, 67, 64
7, 465356, Note_on_c, 2, 67, 0
7, 465360, Note_on_c, 2, 66, 64
7, 465476, Note_on_c, 2, 66, 0
7, 465480, Note_on_c, 2, 64, 64
7, 465596, Note_on_c, 2, 64, 0
7, 465600, Note_on_c, 2, 62, 64
7, 465716, Note_on_c, 2, 62, 0
7, 465720, Note_on_c, 2, 61, 64
7, 465836, Note_on_c, 2, 61, 0
7, 465840, Note_on_c, 2, 59, 64
7, 466076, Note_on_c, 2, 59, 0
7, 466080, Note_on_c, 2, 64, 64
7, 466316, Note_on_c, 2, 64, 0
7, 466320, Note_on_c, 2, 59, 64
7, 466556, Note_on_c, 2, 59, 0
7, 466560, Note_on_c, 2, 61, 64
7, 466676, Note_on_c, 2, 61, 0
7, 466680, Note_on_c, 2, 66, 64
7, 466796, Note_on_c, 2, 66, 0
7, 466800, Note_on_c, 2, 64, 64
7, 466916, Note_on_c, 2, 64, 0
7, 466920, Note_on_c, 2, 62, 64
7, 467036, Note_on_c, 2, 62, 0
7, 467040, Note_on_c, 2, 61, 64
7, 467156, Note_on_c, 2, 61, 0
7, 467160, Note_on_c, 2, 59, 64
7, 467276, Note_on_c, 2, 59, 0
7, 467280, Note_on_c, 2, 57, 64
7, 467516, Note_on_c, 2, 57, 0
7, 467520, Note_on_c, 2, 62, 64
7, 467756, Note_on_c, 2, 62, 0
7, 467760, Note_on_c, 2, 57, 64
7, 467996, Note_on_c, 2, 57, 0
7, 468000, Note_on_c, 2, 59, 64
7, 468116, Note_on_c, 2, 59, 0
7, 468120, Note_on_c, 2, 64, 64
7, 468236, Note_on_c, 2, 64, 0
7, 468240, Note_on_c, 2, 62, 64
7, 468356, Note_on_c, 2, 62, 0
7, 468360, Note_on_c, 2, 61, 64
7, 468476, Note_on_c, 2, 61, 0
7, 468480, Note_on_c, 2, 59, 64
7, 468596, Note_on_c, 2, 59, 0
7, 468600, Note_on_c, 2, 57, 64
7, 468716, Note_on_c, 2, 57, 0
7, 468720, Note_on_c, 2, 55, 64
7, 468956, Note_on_c, 2, 55, 0
7, 468960, Note_on_c, 2, 67, 64
7, 469196, Note_on_c, 2, 67, 0
7, 469200, Note_on_c, 2, 61, 64
7, 469436, Note_on_c, 2, 61, 0
7, 469440, Note_on_c, 2, 66, 64
7, 469916, Note_on_c, 2, 66, 0
7, 469920, Note_on_c, 2, 61, 64
7, 470156, Note_on_c, 2, 61, 0
7, 470160, Note_on_c, 2, 66, 64
7, 470636, Note_on_c, 2, 66, 0
7, 470640, Note_on_c, 2, 62, 64
7, 470876, Note_on_c, 2, 62, 0
7, 470880, Note_on_c, 2, 66, 64
7, 471356, Note_on_c, 2, 66, 0
7, 471360, Note_on_c, 2, 61, 64
7, 471596, Note_on_c, 2, 61, 0
7, 471600, Note_on_c, 2, 66, 64
7, 472076, Note_on_c, 2, 66, 0
7, 472080, Note_on_c, 2, 59, 64
7, 472316, Note_on_c, 2, 59, 0
7, 472320, Note_on_c, 2, 66, 64
7, 472556, Note_on_c, 2, 66, 0
7, 472560, Note_on_c, 2, 61, 64
7, 472796, Note_on_c, 2, 61, 0
7, 472800, Note_on_c, 2, 58, 64
7, 473036, Note_on_c, 2, 58, 0
7, 473040, Note_on_c, 2, 66, 64
7, 473276, Note_on_c, 2, 66, 0
7, 473280, Note_on_c, 2, 61, 64
7, 473516, Note_on_c, 2, 61, 0
7, 473520, Note_on_c, 2, 58, 64
7, 473756, Note_on_c, 2, 58, 0
7, 473760, Note_on_c, 2, 70, 64
7, 473876, Note_on_c, 2, 70, 0
7, 473880, Note_on_c, 2, 73, 64
7, 473996, Note_on_c, 2, 73, 0
7, 474000, Note_on_c, 2, 66, 64
7, 474116, Note_on_c, 2, 66, 0
7, 474120, Note_on_c, 2, 73, 64
7, 474236, Note_on_c, 2, 73, 0
7, 474240, Note_on_c, 2, 70, 64
7, 474356, Note_on_c, 2, 70, 0
7, 474360, Note_on_c, 2, 73, 64
7, 474476, Note_on_c, 2, 73, 0
7, 474480, Note_on_c, 2, 71, 64
7, 474596, Note_on_c, 2, 71, 0
7, 474600, Note_on_c, 2, 74, 64
7, 474716, Note_on_c, 2, 74, 0
7, 474720, Note_on_c, 2, 66, 64
7, 474836, Note_on_c, 2, 66, 0
7, 474840, Note_on_c, 2, 74, 64
7, 474956, Note_on_c, 2, 74, 0
7, 474960, Note_on_c, 2, 71, 64
7, 475076, Note_on_c, 2, 71, 0
7, 475080, Note_on_c, 2, 74, 64
7, 475196, Note_on_c, 2, 74, 0
7, 475200, Note_on_c, 2, 73, 64
7, 475316, Note_on_c, 2, 73, 0
7, 475320, Note_on_c, 2, 76, 64
7, 475436, Note_on_c, 2, 76, 0
7, 475440, Note_on_c, 2, 66, 64
7, 475556, Note_on_c, 2, 66, 0
7, 475560, Note_on_c, 2, 76, 64
7, 475676, Note_on_c, 2, 76, 0
7, 475680, Note_on_c, 2, 73, 64
7, 475796, Note_on_c, 2, 73, 0
7, 475800, Note_on_c, 2, 76, 64
7, 475916, Note_on_c, 2, 76, 0
7, 475920, Note_on_c, 2, 73, 64
7, 476036, Note_on_c, 2, 73, 0
7, 476040, Note_on_c, 2, 76, 64
7, 476156, Note_on_c, 2, 76, 0
7, 476160, Note_on_c, 2, 66, 64
7, 476276, Note_on_c, 2, 66, 0
7, 476280, Note_on_c, 2, 76, 64
7, 476396, Note_on_c, 2, 76, 0
7, 476400, Note_on_c, 2, 73, 64
7, 476516, Note_on_c, 2, 73, 0
7, 476520, Note_on_c, 2, 76, 64
7, 476636, Note_on_c, 2, 76, 0
7, 476640, Note_on_c, 2, 75, 64
7, 476876, Note_on_c, 2, 75, 0
7, 476880, Note_on_c, 2, 59, 64
7, 477116, Note_on_c, 2, 59, 0
7, 477120, Note_on_c, 2, 59, 64
7, 477356, Note_on_c, 2, 59, 0
7, 477360, Note_on_c, 2, 59, 64
7, 477596, Note_on_c, 2, 59, 0
7, 477600, Note_on_c, 2, 59, 64
7, 477836, Note_on_c, 2, 59, 0
7, 477840, Note_on_c, 2, 59, 64
7, 478076, Note_on_c, 2, 59, 0
7, 478080, Note_on_c, 2, 59, 64
7, 478316, Note_on_c, 2, 59, 0
7, 478320, Note_on_c, 2, 59, 64
7, 478556, Note_on_c, 2, 59, 0
7, 478560, Note_on_c, 2, 59, 64
7, 478796, Note_on_c, 2, 59, 0
7, 478800, Note_on_c, 2, 59, 64
7, 479036, Note_on_c, 2, 59, 0
7, 479040, Note_on_c, 2, 59, 64
7, 479276, Note_on_c, 2, 59, 0
7, 479280, Note_on_c, 2, 59, 64
7, 479516, Note_on_c, 2, 59, 0
7, 479520, Note_on_c, 2, 66, 64
7, 479756, Note_on_c, 2, 66, 0
7, 479760, Note_on_c, 2, 66, 64
7, 479996, Note_on_c, 2, 66, 0
7, 480000, Note_on_c, 2, 66, 64
7, 480236, Note_on_c, 2, 66, 0
7, 480240, Note_on_c, 2, 66, 64
7, 480476, Note_on_c, 2, 66, 0
7, 480480, Note_on_c, 2, 66, 64
7, 480716, Note_on_c, 2, 66, 0
7, 480720, Note_on_c, 2, 66, 64
7, 480956, Note_on_c, 2, 66, 0
7, 480960, Note_on_c, 2, 66, 64
7, 481076, Note_on_c, 2, 66, 0
7, 481080, Note_on_c, 2, 64, 64
7, 481196, Note_on_c, 2, 64, 0
7, 481200, Note_on_c, 2, 62, 64
7, 481316, Note_on_c, 2, 62, 0
7, 481320, Note_on_c, 2, 64, 64
7, 481436, Note_on_c, 2, 64, 0
7, 481440, Note_on_c, 2, 66, 64
7, 481676, Note_on_c, 2, 66, 0
7, 481680, Note_on_c, 2, 54, 64
7, 481916, Note_on_c, 2, 54, 0
7, 481920, Note_on_c, 2, 61, 64
7, 482036, Note_on_c, 2, 61, 0
7, 482040, Note_on_c, 2, 62, 64
7, 482156, Note_on_c, 2, 62, 0
7, 482160, Note_on_c, 2, 64, 64
7, 482396, Note_on_c, 2, 64, 0
7, 482400, Note_on_c, 2, 62, 64
7, 483836, Note_on_c, 2, 62, 0
7, 483840, Note_on_c, 2, 59, 64
7, 484076, Note_on_c, 2, 59, 0
7, 484080, Note_on_c, 2, 59, 64
7, 484316, Note_on_c, 2, 59, 0
7, 484320, Note_on_c, 2, 59, 64
7, 484556, Note_on_c, 2, 59, 0
7, 484560, Note_on_c, 2, 63, 64
7, 484796, Note_on_c, 2, 63, 0
7, 484800, Note_on_c, 2, 63, 64
7, 485036, Note_on_c, 2, 63, 0
7, 485040, Note_on_c, 2, 63, 64
7, 485276, Note_on_c, 2, 63, 0
7, 485280, Note_on_c, 2, 63, 64
7, 485516, Note_on_c, 2, 63, 0
7, 485520, Note_on_c, 2, 59, 64
7, 485756, Note_on_c, 2, 59, 0
7, 485760, Note_on_c, 2, 59, 64
7, 485996, Note_on_c, 2, 59, 0
7, 486000, Note_on_c, 2, 59, 64
7, 486476, Note_on_c, 2, 59, 0
7, 486720, Note_on_c, 2, 74, 64
7, 486956, Note_on_c, 2, 74, 0
7, 486960, Note_on_c, 2, 74, 64
7, 487196, Note_on_c, 2, 74, 0
7, 487200, Note_on_c, 2, 74, 64
7, 487436, Note_on_c, 2, 74, 0
7, 487440, Note_on_c, 2, 74, 64
7, 487676, Note_on_c, 2, 74, 0
7, 487680, Note_on_c, 2, 74, 64
7, 487916, Note_on_c, 2, 74, 0
7, 487920, Note_on_c, 2, 74, 64
7, 488156, Note_on_c, 2, 74, 0
7, 488160, Note_on_c, 2, 74, 64
7, 488396, Note_on_c, 2, 74, 0
7, 488400, Note_on_c, 2, 78, 64
7, 488516, Note_on_c, 2, 78, 0
7, 488520, Note_on_c, 2, 76, 64
7, 488636, Note_on_c, 2, 76, 0
7, 488640, Note_on_c, 2, 74, 64
7, 488756, Note_on_c, 2, 74, 0
7, 488760, Note_on_c, 2, 72, 64
7, 488876, Note_on_c, 2, 72, 0
7, 488880, Note_on_c, 2, 71, 64
7, 488996, Note_on_c, 2, 71, 0
7, 489000, Note_on_c, 2, 72, 64
7, 489236, Note_on_c, 2, 72, 0
7, 489240, Note_on_c, 2, 69, 64
7, 489476, Note_on_c, 2, 69, 0
7, 489720, Note_on_c, 2, 62, 64
7, 489836, Note_on_c, 2, 62, 0
7, 489840, Note_on_c, 2, 65, 64
7, 489956, Note_on_c, 2, 65, 0
7, 489960, Note_on_c, 2, 69, 64
7, 490076, Note_on_c, 2, 69, 0
7, 490080, Note_on_c, 2, 65, 64
7, 490196, Note_on_c, 2, 65, 0
7, 490200, Note_on_c, 2, 62, 64
7, 490316, Note_on_c, 2, 62, 0
7, 490320, Note_on_c, 2, 71, 64
7, 490556, Note_on_c, 2, 71, 0
7, 490560, Note_on_c, 2, 71, 64
7, 490796, Note_on_c, 2, 71, 0
7, 490800, Note_on_c, 2, 71, 64
7, 491036, Note_on_c, 2, 71, 0
7, 491040, Note_on_c, 2, 71, 64
7, 491156, Note_on_c, 2, 71, 0
7, 491160, Note_on_c, 2, 60, 64
7, 491276, Note_on_c, 2, 60, 0
7, 491280, Note_on_c, 2, 64, 64
7, 491396, Note_on_c, 2, 64, 0
7, 491400, Note_on_c, 2, 67, 64
7, 491516, Note_on_c, 2, 67, 0
7, 491520, Note_on_c, 2, 64, 64
7, 491636, Note_on_c, 2, 64, 0
7, 491640, Note_on_c, 2, 60, 64
7, 491756, Note_on_c, 2, 60, 0
7, 491760, Note_on_c, 2, 69, 64
7, 491996, Note_on_c, 2, 69, 0
7, 492000, Note_on_c, 2, 69, 64
7, 492236, Note_on_c, 2, 69, 0
7, 492240, Note_on_c, 2, 69, 64
7, 492476, Note_on_c, 2, 69, 0
7, 492480, Note_on_c, 2, 55, 64
7, 492716, Note_on_c, 2, 55, 0
7, 492720, Note_on_c, 2, 59, 64
7, 492956, Note_on_c, 2, 59, 0
7, 492960, Note_on_c, 2, 62, 64
7, 493196, Note_on_c, 2, 62, 0
7, 493200, Note_on_c, 2, 55, 64
7, 493436, Note_on_c, 2, 55, 0
7, 493440, Note_on_c, 2, 60, 64
7, 493676, Note_on_c, 2, 60, 0
7, 493680, Note_on_c, 2, 64, 64
7, 493916, Note_on_c, 2, 64, 0
7, 493920, Note_on_c, 2, 55, 64
7, 494156, Note_on_c, 2, 55, 0
7, 494160, Note_on_c, 2, 62, 64
7, 494396, Note_on_c, 2, 62, 0
7, 494400, Note_on_c, 2, 65, 64
7, 494636, Note_on_c, 2, 65, 0
7, 494640, Note_on_c, 2, 55, 64
7, 494876, Note_on_c, 2, 55, 0
7, 494880, Note_on_c, 2, 64, 64
7, 495116, Note_on_c, 2, 64, 0
7, 495120, Note_on_c, 2, 67, 64
7, 495356, Note_on_c, 2, 67, 0
7, 495360, Note_on_c, 2, 59, 64
7, 495476, Note_on_c, 2, 59, 0
7, 495480, Note_on_c, 2, 62, 64
7, 495596, Note_on_c, 2, 62, 0
7, 495600, Note_on_c, 2, 55, 64
7, 495716, Note_on_c, 2, 55, 0
7, 495720, Note_on_c, 2, 62, 64
7, 495836, Note_on_c, 2, 62, 0
7, 495840, Note_on_c, 2, 59, 64
7, 495956, Note_on_c, 2, 59, 0
7, 495960, Note_on_c, 2, 62, 64
7, 496076, Note_on_c, 2, 62, 0
7, 496080, Note_on_c, 2, 60, 64
7, 496196, Note_on_c, 2, 60, 0
7, 496200, Note_on_c, 2, 64, 64
7, 496316, Note_on_c, 2, 64, 0
7, 496320, Note_on_c, 2, 55, 64
7, 496436, Note_on_c, 2, 55, 0
7, 496440, Note_on_c, 2, 64, 64
7, 496556, Note_on_c, 2, 64, 0
7, 496560, Note_on_c, 2, 60, 64
7, 496676, Note_on_c, 2, 60, 0
7, 496680, Note_on_c, 2, 64, 64
7, 496796, Note_on_c, 2, 64, 0
7, 496800, Note_on_c, 2, 62, 64
7, 496916, Note_on_c, 2, 62, 0
7, 496920, Note_on_c, 2, 65, 64
7, 497036, Note_on_c, 2, 65, 0
7, 497040, Note_on_c, 2, 55, 64
7, 497156, Note_on_c, 2, 55, 0
7, 497160, Note_on_c, 2, 65, 64
7, 497276, Note_on_c, 2, 65, 0
7, 497280, Note_on_c, 2, 62, 64
7, 497396, Note_on_c, 2, 62, 0
7, 497400, Note_on_c, 2, 65, 64
7, 497516, Note_on_c, 2, 65, 0
7, 497520, Note_on_c, 2, 64, 64
7, 497636, Note_on_c, 2, 64, 0
7, 497640, Note_on_c, 2, 67, 64
7, 497756, Note_on_c, 2, 67, 0
7, 497760, Note_on_c, 2, 55, 64
7, 497876, Note_on_c, 2, 55, 0
7, 497880, Note_on_c, 2, 67, 64
7, 497996, Note_on_c, 2, 67, 0
7, 498000, Note_on_c, 2, 64, 64
7, 498116, Note_on_c, 2, 64, 0
7, 498120, Note_on_c, 2, 67, 64
7, 498236, Note_on_c, 2, 67, 0
7, 498240, Note_on_c, 2, 54, 64
7, 498476, Note_on_c, 2, 54, 0
7, 498480, Note_on_c, 2, 57, 64
7, 498716, Note_on_c, 2, 57, 0
7, 498720, Note_on_c, 2, 60, 64
7, 498956, Note_on_c, 2, 60, 0
7, 498960, Note_on_c, 2, 57, 64
7, 499196, Note_on_c, 2, 57, 0
7, 499200, Note_on_c, 2, 60, 64
7, 499436, Note_on_c, 2, 60, 0
7, 499440, Note_on_c, 2, 63, 64
7, 499676, Note_on_c, 2, 63, 0
7, 499680, Note_on_c, 2, 62, 64
7, 499796, Note_on_c, 2, 62, 0
7, 499800, Note_on_c, 2, 67, 64
7, 499916, Note_on_c, 2, 67, 0
7, 499920, Note_on_c, 2, 59, 64
7, 500036, Note_on_c, 2, 59, 0
7, 500040, Note_on_c, 2, 67, 64
7, 500156, Note_on_c, 2, 67, 0
7, 500160, Note_on_c, 2, 62, 64
7, 500276, Note_on_c, 2, 62, 0
7, 500280, Note_on_c, 2, 60, 64
7, 500396, Note_on_c, 2, 60, 0
7, 500400, Note_on_c, 2, 62, 64
7, 500516, Note_on_c, 2, 62, 0
7, 500520, Note_on_c, 2, 67, 64
7, 500636, Note_on_c, 2, 67, 0
7, 500640, Note_on_c, 2, 59, 64
7, 500756, Note_on_c, 2, 59, 0
7, 500760, Note_on_c, 2, 67, 64
7, 500876, Note_on_c, 2, 67, 0
7, 500880, Note_on_c, 2, 62, 64
7, 500996, Note_on_c, 2, 62, 0
7, 501000, Note_on_c, 2, 65, 64
7, 501116, Note_on_c, 2, 65, 0
7, 501120, Note_on_c, 2, 67, 64
7, 501356, Note_on_c, 2, 67, 0
7, 501360, Note_on_c, 2, 72, 64
7, 501596, Note_on_c, 2, 72, 0
7, 501600, Note_on_c, 2, 76, 64
7, 501836, Note_on_c, 2, 76, 0
7, 501840, Note_on_c, 2, 69, 64
7, 502076, Note_on_c, 2, 69, 0
7, 502080, Note_on_c, 2, 72, 64
7, 502316, Note_on_c, 2, 72, 0
7, 502320, Note_on_c, 2, 76, 64
7, 502556, Note_on_c, 2, 76, 0
7, 502560, Note_on_c, 2, 67, 64
7, 502796, Note_on_c, 2, 67, 0
7, 502800, Note_on_c, 2, 72, 64
7, 503036, Note_on_c, 2, 72, 0
7, 503040, Note_on_c, 2, 76, 64
7, 503276, Note_on_c, 2, 76, 0
7, 503280, Note_on_c, 2, 65, 64
7, 503516, Note_on_c, 2, 65, 0
7, 503520, Note_on_c, 2, 72, 64
7, 503756, Note_on_c, 2, 72, 0
7, 503760, Note_on_c, 2, 76, 64
7, 503996, Note_on_c, 2, 76, 0
7, 504000, Note_on_c, 2, 67, 64
7, 504236, Note_on_c, 2, 67, 0
7, 504240, Note_on_c, 2, 72, 64
7, 504476, Note_on_c, 2, 72, 0
7, 504480, Note_on_c, 2, 76, 64
7, 504716, Note_on_c, 2, 76, 0
7, 504720, Note_on_c, 2, 69, 64
7, 504956, Note_on_c, 2, 69, 0
7, 504960, Note_on_c, 2, 72, 64
7, 505196, Note_on_c, 2, 72, 0
7, 505200, Note_on_c, 2, 76, 64
7, 505436, Note_on_c, 2, 76, 0
7, 505440, Note_on_c, 2, 67, 64
7, 505676, Note_on_c, 2, 67, 0
7, 505680, Note_on_c, 2, 72, 64
7, 505916, Note_on_c, 2, 72, 0
7, 505920, Note_on_c, 2, 71, 64
7, 506156, Note_on_c, 2, 71, 0
7, 506160, Note_on_c, 2, 72, 64
7, 506396, Note_on_c, 2, 72, 0
7, 506400, Note_on_c, 2, 55, 64
7, 506636, Note_on_c, 2, 55, 0
7, 506640, Note_on_c, 2, 55, 64
7, 506876, Note_on_c, 2, 55, 0
7, 506880, Note_on_c, 2, 55, 64
7, 507116, Note_on_c, 2, 55, 0
7, 507120, Note_on_c, 2, 55, 64
7, 507356, Note_on_c, 2, 55, 0
7, 507360, Note_on_c, 2, 55, 64
7, 507596, Note_on_c, 2, 55, 0
7, 507600, Note_on_c, 2, 55, 64
7, 507836, Note_on_c, 2, 55, 0
7, 507840, Note_on_c, 2, 55, 64
7, 508076, Note_on_c, 2, 55, 0
7, 508080, Note_on_c, 2, 55, 64
7, 508316, Note_on_c, 2, 55, 0
7, 508320, Note_on_c, 2, 55, 64
7, 508556, Note_on_c, 2, 55, 0
7, 508560, Note_on_c, 2, 55, 64
7, 508796, Note_on_c, 2, 55, 0
7, 508800, Note_on_c, 2, 55, 64
7, 509036, Note_on_c, 2, 55, 0
7, 509040, Note_on_c, 2, 55, 64
7, 509276, Note_on_c, 2, 55, 0
7, 509280, Note_on_c, 2, 55, 64
7, 509516, Note_on_c, 2, 55, 0
7, 509520, Note_on_c, 2, 55, 64
7, 509756, Note_on_c, 2, 55, 0
7, 509760, Note_on_c, 2, 55, 64
7, 509996, Note_on_c, 2, 55, 0
7, 510000, Note_on_c, 2, 55, 64
7, 510236, Note_on_c, 2, 55, 0
7, 510240, Note_on_c, 2, 55, 64
7, 510476, Note_on_c, 2, 55, 0
7, 510480, Note_on_c, 2, 55, 64
7, 510716, Note_on_c, 2, 55, 0
7, 510720, Note_on_c, 2, 55, 64
7, 510956, Note_on_c, 2, 55, 0
7, 510960, Note_on_c, 2, 55, 64
7, 511196, Note_on_c, 2, 55, 0
7, 511200, Note_on_c, 2, 55, 64
7, 511436, Note_on_c, 2, 55, 0
7, 511440, Note_on_c, 2, 67, 64
7, 511676, Note_on_c, 2, 67, 0
7, 511680, Note_on_c, 2, 72, 64
7, 511916, Note_on_c, 2, 72, 0
7, 511920, Note_on_c, 2, 71, 64
7, 512036, Note_on_c, 2, 71, 0
7, 512040, Note_on_c, 2, 72, 64
7, 512156, Note_on_c, 2, 72, 0
7, 512160, Note_on_c, 2, 71, 64
7, 512276, Note_on_c, 2, 71, 0
7, 512280, Note_on_c, 2, 69, 64
7, 512396, Note_on_c, 2, 69, 0
7, 512400, Note_on_c, 2, 67, 64
7, 512516, Note_on_c, 2, 67, 0
7, 512520, Note_on_c, 2, 65, 64
7, 512636, Note_on_c, 2, 65, 0
7, 512640, Note_on_c, 2, 67, 64
7, 512756, Note_on_c, 2, 67, 0
7, 512760, Note_on_c, 2, 69, 64
7, 512876, Note_on_c, 2, 69, 0
7, 512880, Note_on_c, 2, 67, 64
7, 512996, Note_on_c, 2, 67, 0
7, 513000, Note_on_c, 2, 65, 64
7, 513116, Note_on_c, 2, 65, 0
7, 513120, Note_on_c, 2, 64, 64
7, 513236, Note_on_c, 2, 64, 0
7, 513240, Note_on_c, 2, 62, 64
7, 513356, Note_on_c, 2, 62, 0
7, 513360, Note_on_c, 2, 60, 64
7, 513596, Note_on_c, 2, 60, 0
7, 513600, Note_on_c, 2, 69, 64
7, 513836, Note_on_c, 2, 69, 0
7, 513840, Note_on_c, 2, 60, 64
7, 514076, Note_on_c, 2, 60, 0
7, 514080, Note_on_c, 2, 62, 64
7, 514196, Note_on_c, 2, 62, 0
7, 514200, Note_on_c, 2, 67, 64
7, 514316, Note_on_c, 2, 67, 0
7, 514320, Note_on_c, 2, 66, 64
7, 514436, Note_on_c, 2, 66, 0
7, 514440, Note_on_c, 2, 64, 64
7, 514556, Note_on_c, 2, 64, 0
7, 514560, Note_on_c, 2, 62, 64
7, 514676, Note_on_c, 2, 62, 0
7, 514680, Note_on_c, 2, 60, 64
7, 514796, Note_on_c, 2, 60, 0
7, 514800, Note_on_c, 2, 59, 64
7, 515036, Note_on_c, 2, 59, 0
7, 515040, Note_on_c, 2, 64, 64
7, 515276, Note_on_c, 2, 64, 0
7, 515280, Note_on_c, 2, 59, 64
7, 515516, Note_on_c, 2, 59, 0
7, 515520, Note_on_c, 2, 60, 64
7, 515636, Note_on_c, 2, 60, 0
7, 515640, Note_on_c, 2, 65, 64
7, 515756, Note_on_c, 2, 65, 0
7, 515760, Note_on_c, 2, 64, 64
7, 515876, Note_on_c, 2, 64, 0
7, 515880, Note_on_c, 2, 62, 64
7, 515996, Note_on_c, 2, 62, 0
7, 516000, Note_on_c, 2, 60, 64
7, 516116, Note_on_c, 2, 60, 0
7, 516120, Note_on_c, 2, 59, 64
7, 516236, Note_on_c, 2, 59, 0
7, 516240, Note_on_c, 2, 57, 64
7, 516476, Note_on_c, 2, 57, 0
7, 516480, Note_on_c, 2, 62, 64
7, 516716, Note_on_c, 2, 62, 0
7, 516720, Note_on_c, 2, 66, 64
7, 516956, Note_on_c, 2, 66, 0
7, 516960, Note_on_c, 2, 67, 64
7, 517196, Note_on_c, 2, 67, 0
7, 517200, Note_on_c, 2, 71, 64
7, 517436, Note_on_c, 2, 71, 0
7, 517440, Note_on_c, 2, 74, 64
7, 517676, Note_on_c, 2, 74, 0
7, 517680, Note_on_c, 2, 66, 64
7, 517916, Note_on_c, 2, 66, 0
7, 517920, Note_on_c, 2, 69, 64
7, 518156, Note_on_c, 2, 69, 0
7, 518160, Note_on_c, 2, 74, 64
7, 518396, Note_on_c, 2, 74, 0
7, 518400, Note_on_c, 2, 67, 64
7, 518636, Note_on_c, 2, 67, 0
7, 518640, Note_on_c, 2, 71, 64
7, 518876, Note_on_c, 2, 71, 0
7, 518880, Note_on_c, 2, 74, 64
7, 519116, Note_on_c, 2, 74, 0
7, 519120, Note_on_c, 2, 62, 64
7, 519356, Note_on_c, 2, 62, 0
7, 519360, Note_on_c, 2, 69, 64
7, 519596, Note_on_c, 2, 69, 0
7, 519600, Note_on_c, 2, 74, 64
7, 519836, Note_on_c, 2, 74, 0
7, 519840, Note_on_c, 2, 55, 64
7, 519956, Note_on_c, 2, 55, 0
7, 519960, Note_on_c, 2, 54, 64
7, 520076, Note_on_c, 2, 54, 0
7, 520080, Note_on_c, 2, 55, 64
7, 520196, Note_on_c, 2, 55, 0
7, 520200, Note_on_c, 2, 57, 64
7, 520316, Note_on_c, 2, 57, 0
7, 520320, Note_on_c, 2, 59, 64
7, 520436, Note_on_c, 2, 59, 0
7, 520440, Note_on_c, 2, 60, 64
7, 520556, Note_on_c, 2, 60, 0
7, 520560, Note_on_c, 2, 62, 64
7, 520676, Note_on_c, 2, 62, 0
7, 520680, Note_on_c, 2, 64, 64
7, 520796, Note_on_c, 2, 64, 0
7, 520800, Note_on_c, 2, 62, 64
7, 520916, Note_on_c, 2, 62, 0
7, 520920, Note_on_c, 2, 60, 64
7, 521036, Note_on_c, 2, 60, 0
7, 521040, Note_on_c, 2, 59, 64
7, 521156, Note_on_c, 2, 59, 0
7, 521160, Note_on_c, 2, 57, 64
7, 521276, Note_on_c, 2, 57, 0
7, 521280, Note_on_c, 2, 55, 64
7, 521516, Note_on_c, 2, 55, 0
7, 521520, Note_on_c, 2, 59, 64
7, 521756, Note_on_c, 2, 59, 0
7, 521760, Note_on_c, 2, 62, 64
7, 521996, Note_on_c, 2, 62, 0
7, 522000, Note_on_c, 2, 69, 64
7, 522236, Note_on_c, 2, 69, 0
7, 522240, Note_on_c, 2, 72, 64
7, 522476, Note_on_c, 2, 72, 0
7, 522480, Note_on_c, 2, 62, 64
7, 522716, Note_on_c, 2, 62, 0
7, 522720, Note_on_c, 2, 71, 64
7, 522956, Note_on_c, 2, 71, 0
7, 522960, Note_on_c, 2, 71, 64
7, 523196, Note_on_c, 2, 71, 0
7, 523200, Note_on_c, 2, 71, 64
7, 523436, Note_on_c, 2, 71, 0
7, 523440, Note_on_c, 2, 71, 64
7, 523676, Note_on_c, 2, 71, 0
7, 523680, Note_on_c, 2, 71, 64
7, 523916, Note_on_c, 2, 71, 0
7, 523920, Note_on_c, 2, 71, 64
7, 524156, Note_on_c, 2, 71, 0
7, 524160, Note_on_c, 2, 69, 64
7, 524396, Note_on_c, 2, 69, 0
7, 524400, Note_on_c, 2, 69, 64
7, 524636, Note_on_c, 2, 69, 0
7, 524640, Note_on_c, 2, 69, 64
7, 524876, Note_on_c, 2, 69, 0
7, 524880, Note_on_c, 2, 69, 64
7, 525116, Note_on_c, 2, 69, 0
7, 525120, Note_on_c, 2, 69, 64
7, 525356, Note_on_c, 2, 69, 0
7, 525360, Note_on_c, 2, 69, 64
7, 525596, Note_on_c, 2, 69, 0
7, 525600, Note_on_c, 2, 67, 64
7, 525836, Note_on_c, 2, 67, 0
7, 525840, Note_on_c, 2, 67, 64
7, 526076, Note_on_c, 2, 67, 0
7, 526080, Note_on_c, 2, 67, 64
7, 526316, Note_on_c, 2, 67, 0
7, 526320, Note_on_c, 2, 67, 64
7, 526556, Note_on_c, 2, 67, 0
7, 526560, Note_on_c, 2, 67, 64
7, 526796, Note_on_c, 2, 67, 0
7, 526800, Note_on_c, 2, 67, 64
7, 527036, Note_on_c, 2, 67, 0
7, 527040, Note_on_c, 2, 66, 64
7, 527516, Note_on_c, 2, 66, 0
7, 527520, Note_on_c, 2, 69, 64
7, 527756, Note_on_c, 2, 69, 0
7, 527760, Note_on_c, 2, 67, 64
7, 528236, Note_on_c, 2, 67, 0
7, 528240, Note_on_c, 2, 71, 64
7, 528476, Note_on_c, 2, 71, 0
7, 528480, Note_on_c, 2, 69, 64
7, 528956, Note_on_c, 2, 69, 0
7, 528960, Note_on_c, 2, 72, 64
7, 529196, Note_on_c, 2, 72, 0
7, 529200, Note_on_c, 2, 71, 64
7, 529676, Note_on_c, 2, 71, 0
7, 529680, Note_on_c, 2, 74, 64
7, 529916, Note_on_c, 2, 74, 0
7, 529920, Note_on_c, 2, 66, 64
7, 530036, Note_on_c, 2, 66, 0
7, 530040, Note_on_c, 2, 69, 64
7, 530156, Note_on_c, 2, 69, 0
7, 530160, Note_on_c, 2, 62, 64
7, 530276, Note_on_c, 2, 62, 0
7, 530280, Note_on_c, 2, 69, 64
7, 530396, Note_on_c, 2, 69, 0
7, 530400, Note_on_c, 2, 66, 64
7, 530516, Note_on_c, 2, 66, 0
7, 530520, Note_on_c, 2, 69, 64
7, 530636, Note_on_c, 2, 69, 0
7, 530640, Note_on_c, 2, 67, 64
7, 530756, Note_on_c, 2, 67, 0
7, 530760, Note_on_c, 2, 71, 64
7, 530876, Note_on_c, 2, 71, 0
7, 530880, Note_on_c, 2, 62, 64
7, 530996, Note_on_c, 2, 62, 0
7, 531000, Note_on_c, 2, 71, 64
7, 531116, Note_on_c, 2, 71, 0
7, 531120, Note_on_c, 2, 67, 64
7, 531236, Note_on_c, 2, 67, 0
7, 531240, Note_on_c, 2, 71, 64
7, 531356, Note_on_c, 2, 71, 0
7, 531360, Note_on_c, 2, 69, 64
7, 531476, Note_on_c, 2, 69, 0
7, 531480, Note_on_c, 2, 72, 64
7, 531596, Note_on_c, 2, 72, 0
7, 531600, Note_on_c, 2, 62, 64
7, 531716, Note_on_c, 2, 62, 0
7, 531720, Note_on_c, 2, 72, 64
7, 531836, Note_on_c, 2, 72, 0
7, 531840, Note_on_c, 2, 69, 64
7, 531956, Note_on_c, 2, 69, 0
7, 531960, Note_on_c, 2, 72, 64
7, 532076, Note_on_c, 2, 72, 0
7, 532080, Note_on_c, 2, 71, 64
7, 532196, Note_on_c, 2, 71, 0
7, 532200, Note_on_c, 2, 74, 64
7, 532316, Note_on_c, 2, 74, 0
7, 532320, Note_on_c, 2, 62, 64
7, 532436, Note_on_c, 2, 62, 0
7, 532440, Note_on_c, 2, 74, 64
7, 532556, Note_on_c, 2, 74, 0
7, 532560, Note_on_c, 2, 71, 64
7, 532676, Note_on_c, 2, 71, 0
7, 532680, Note_on_c, 2, 74, 64
7, 532796, Note_on_c, 2, 74, 0
7, 532800, Note_on_c, 2, 62, 64
7, 532916, Note_on_c, 2, 62, 0
7, 532920, Note_on_c, 2, 66, 64
7, 533036, Note_on_c, 2, 66, 0
7, 533040, Note_on_c, 2, 69, 64
7, 533156, Note_on_c, 2, 69, 0
7, 533160, Note_on_c, 2, 66, 64
7, 533276, Note_on_c, 2, 66, 0
7, 533280, Note_on_c, 2, 62, 64
7, 533396, Note_on_c, 2, 62, 0
7, 533400, Note_on_c, 2, 57, 64
7, 533516, Note_on_c, 2, 57, 0
7, 533520, Note_on_c, 2, 62, 64
7, 533636, Note_on_c, 2, 62, 0
7, 533640, Note_on_c, 2, 57, 64
7, 533756, Note_on_c, 2, 57, 0
7, 533760, Note_on_c, 2, 62, 64
7, 533876, Note_on_c, 2, 62, 0
7, 533880, Note_on_c, 2, 66, 64
7, 533996, Note_on_c, 2, 66, 0
7, 534000, Note_on_c, 2, 69, 64
7, 534116, Note_on_c, 2, 69, 0
7, 534120, Note_on_c, 2, 66, 64
7, 534236, Note_on_c, 2, 66, 0
7, 534240, Note_on_c, 2, 71, 64
7, 534476, Note_on_c, 2, 71, 0
7, 534480, Note_on_c, 2, 55, 64
7, 534716, Note_on_c, 2, 55, 0
7, 534720, Note_on_c, 2, 55, 64
7, 534956, Note_on_c, 2, 55, 0
7, 534960, Note_on_c, 2, 55, 64
7, 535196, Note_on_c, 2, 55, 0
7, 535200, Note_on_c, 2, 55, 64
7, 535436, Note_on_c, 2, 55, 0
7, 535440, Note_on_c, 2, 55, 64
7, 535676, Note_on_c, 2, 55, 0
7, 535680, Note_on_c, 2, 55, 64
7, 535916, Note_on_c, 2, 55, 0
7, 535920, Note_on_c, 2, 55, 64
7, 536156, Note_on_c, 2, 55, 0
7, 536160, Note_on_c, 2, 55, 64
7, 536396, Note_on_c, 2, 55, 0
7, 536400, Note_on_c, 2, 55, 64
7, 536636, Note_on_c, 2, 55, 0
7, 536640, Note_on_c, 2, 55, 64
7, 536876, Note_on_c, 2, 55, 0
7, 536880, Note_on_c, 2, 55, 64
7, 537116, Note_on_c, 2, 55, 0
7, 537120, Note_on_c, 2, 62, 64
7, 537356, Note_on_c, 2, 62, 0
7, 537360, Note_on_c, 2, 62, 64
7, 537596, Note_on_c, 2, 62, 0
7, 537600, Note_on_c, 2, 62, 64
7, 537836, Note_on_c, 2, 62, 0
7, 537840, Note_on_c, 2, 62, 64
7, 538076, Note_on_c, 2, 62, 0
7, 538080, Note_on_c, 2, 62, 64
7, 538316, Note_on_c, 2, 62, 0
7, 538320, Note_on_c, 2, 62, 64
7, 538556, Note_on_c, 2, 62, 0
7, 538560, Note_on_c, 2, 62, 64
7, 538796, Note_on_c, 2, 62, 0
7, 538796, End_track
8, 0, Start_track
8, 0, Title_t, "Violoncello   I"
8, 0, Program_c, 3, 42
8, 0, Control_c, 3, 10, 90
8, 1680, Note_on_c, 3, 43, 64
8, 1916, Note_on_c, 3, 43, 0
8, 1920, Note_on_c, 3, 43, 64
8, 2156, Note_on_c, 3, 43, 0
8, 2160, Note_on_c, 3, 55, 64
8, 2396, Note_on_c, 3, 55, 0
8, 2400, Note_on_c, 3, 55, 64
8, 2636, Note_on_c, 3, 55, 0
8, 2640, Note_on_c, 3, 43, 64
8, 2876, Note_on_c, 3, 43, 0
8, 2880, Note_on_c, 3, 43, 64
8, 3116, Note_on_c, 3, 43, 0
8, 3120, Note_on_c, 3, 55, 64
8, 3356, Note_on_c, 3, 55, 0
8, 3360, Note_on_c, 3, 55, 64
8, 3596, Note_on_c, 3, 55, 0
8, 3600, Note_on_c, 3, 43, 64
8, 3836, Note_on_c, 3, 43, 0
8, 3840, Note_on_c, 3, 43, 64
8, 4076, Note_on_c, 3, 43, 0
8, 4080, Note_on_c, 3, 55, 64
8, 4196, Note_on_c, 3, 55, 0
8, 4200, Note_on_c, 3, 54, 64
8, 4316, Note_on_c, 3, 54, 0
8, 4320, Note_on_c, 3, 52, 64
8, 4556, Note_on_c, 3, 52, 0
8, 4560, Note_on_c, 3, 57, 64
8, 4796, Note_on_c, 3, 57, 0
8, 4800, Note_on_c, 3, 50, 64
8, 5036, Note_on_c, 3, 50, 0
8, 5040, Note_on_c, 3, 62, 64
8, 5156, Note_on_c, 3, 62, 0
8, 5160, Note_on_c, 3, 61, 64
8, 5276, Note_on_c, 3, 61, 0
8, 5280, Note_on_c, 3, 62, 64
8, 5516, Note_on_c, 3, 62, 0
8, 5520, Note_on_c, 3, 50, 64
8, 5756, Note_on_c, 3, 50, 0
8, 5760, Note_on_c, 3, 50, 64
8, 5996, Note_on_c, 3, 50, 0
8, 6000, Note_on_c, 3, 62, 64
8, 6116, Note_on_c, 3, 62, 0
8, 6120, Note_on_c, 3, 61, 64
8, 6236, Note_on_c, 3, 61, 0
8, 6240, Note_on_c, 3, 62, 64
8, 6476, Note_on_c, 3, 62, 0
8, 6480, Note_on_c, 3, 50, 64
8, 6716, Note_on_c, 3, 50, 0
8, 6720, Note_on_c, 3, 50, 64
8, 6956, Note_on_c, 3, 50, 0
8, 6960, Note_on_c, 3, 62, 64
8, 7076, Note_on_c, 3, 62, 0
8, 7080, Note_on_c, 3, 61, 64
8, 7196, Note_on_c, 3, 61, 0
8, 7200, Note_on_c, 3, 62, 64
8, 7436, Note_on_c, 3, 62, 0
8, 7440, Note_on_c, 3, 50, 64
8, 7676, Note_on_c, 3, 50, 0
8, 7680, Note_on_c, 3, 55, 64
8, 7916, Note_on_c, 3, 55, 0
8, 7920, Note_on_c, 3, 52, 64
8, 8156, Note_on_c, 3, 52, 0
8, 8160, Note_on_c, 3, 48, 64
8, 8396, Note_on_c, 3, 48, 0
8, 8400, Note_on_c, 3, 50, 64
8, 8636, Note_on_c, 3, 50, 0
8, 8640, Note_on_c, 3, 52, 64
8, 8876, Note_on_c, 3, 52, 0
8, 8880, Note_on_c, 3, 50, 64
8, 8996, Note_on_c, 3, 50, 0
8, 9000, Note_on_c, 3, 48, 64
8, 9116, Note_on_c, 3, 48, 0
8, 9120, Note_on_c, 3, 47, 64
8, 9356, Note_on_c, 3, 47, 0
8, 9360, Note_on_c, 3, 45, 64
8, 9476, Note_on_c, 3, 45, 0
8, 9480, Note_on_c, 3, 43, 64
8, 9596, Note_on_c, 3, 43, 0
8, 9600, Note_on_c, 3, 48, 64
8, 9836, Note_on_c, 3, 48, 0
8, 9840, Note_on_c, 3, 47, 64
8, 9956, Note_on_c, 3, 47, 0
8, 9960, Note_on_c, 3, 45, 64
8, 10076, Note_on_c, 3, 45, 0
8, 10080, Note_on_c, 3, 43, 64
8, 10316, Note_on_c, 3, 43, 0
8, 10320, Note_on_c, 3, 55, 64
8, 10436, Note_on_c, 3, 55, 0
8, 10440, Note_on_c, 3, 54, 64
8, 10556, Note_on_c, 3, 54, 0
8, 10560, Note_on_c, 3, 52, 64
8, 10796, Note_on_c, 3, 52, 0
8, 10800, Note_on_c, 3, 50, 64
8, 10916, Note_on_c, 3, 50, 0
8, 10920, Note_on_c, 3, 48, 64
8, 11036, Note_on_c, 3, 48, 0
8, 11040, Note_on_c, 3, 47, 64
8, 11276, Note_on_c, 3, 47, 0
8, 11280, Note_on_c, 3, 49, 64
8, 11516, Note_on_c, 3, 49, 0
8, 11520, Note_on_c, 3, 50, 64
8, 11756, Note_on_c, 3, 50, 0
8, 11760, Note_on_c, 3, 38, 64
8, 11996, Note_on_c, 3, 38, 0
8, 12000, Note_on_c, 3, 38, 64
8, 12236, Note_on_c, 3, 38, 0
8, 12240, Note_on_c, 3, 50, 64
8, 12356, Note_on_c, 3, 50, 0
8, 12360, Note_on_c, 3, 52, 64
8, 12476, Note_on_c, 3, 52, 0
8, 12480, Note_on_c, 3, 54, 64
8, 12716, Note_on_c, 3, 54, 0
8, 12720, Note_on_c, 3, 55, 64
8, 12956, Note_on_c, 3, 55, 0
8, 12960, Note_on_c, 3, 57, 64
8, 13196, Note_on_c, 3, 57, 0
8, 13200, Note_on_c, 3, 54, 64
8, 13436, Note_on_c, 3, 54, 0
8, 13440, Note_on_c, 3, 55, 64
8, 13676, Note_on_c, 3, 55, 0
8, 13680, Note_on_c, 3, 60, 64
8, 13916, Note_on_c, 3, 60, 0
8, 13920, Note_on_c, 3, 62, 64
8, 14156, Note_on_c, 3, 62, 0
8, 14160, Note_on_c, 3, 50, 64
8, 14396, Note_on_c, 3, 50, 0
8, 14400, Note_on_c, 3, 55, 64
8, 14636, Note_on_c, 3, 55, 0
8, 14640, Note_on_c, 3, 54, 64
8, 14756, Note_on_c, 3, 54, 0
8, 14760, Note_on_c, 3, 52, 64
8, 14876, Note_on_c, 3, 52, 0
8, 14880, Note_on_c, 3, 50, 64
8, 14996, Note_on_c, 3, 50, 0
8, 15000, Note_on_c, 3, 48, 64
8, 15116, Note_on_c, 3, 48, 0
8, 15120, Note_on_c, 3, 47, 64
8, 15236, Note_on_c, 3, 47, 0
8, 15240, Note_on_c, 3, 45, 64
8, 15356, Note_on_c, 3, 45, 0
8, 15360, Note_on_c, 3, 47, 64
8, 15596, Note_on_c, 3, 47, 0
8, 15600, Note_on_c, 3, 45, 64
8, 15716, Note_on_c, 3, 45, 0
8, 15720, Note_on_c, 3, 43, 64
8, 15836, Note_on_c, 3, 43, 0
8, 15840, Note_on_c, 3, 50, 64
8, 16076, Note_on_c, 3, 50, 0
8, 16080, Note_on_c, 3, 38, 64
8, 16316, Note_on_c, 3, 38, 0
8, 16320, Note_on_c, 3, 43, 64
8, 16796, Note_on_c, 3, 43, 0
8, 17040, Note_on_c, 3, 50, 64
8, 17276, Note_on_c, 3, 50, 0
8, 17280, Note_on_c, 3, 43, 64
8, 17756, Note_on_c, 3, 43, 0
8, 18960, Note_on_c, 3, 62, 64
8, 19076, Note_on_c, 3, 62, 0
8, 19080, Note_on_c, 3, 60, 64
8, 19196, Note_on_c, 3, 60, 0
8, 19200, Note_on_c, 3, 59, 64
8, 19316, Note_on_c, 3, 59, 0
8, 19320, Note_on_c, 3, 60, 64
8, 19436, Note_on_c, 3, 60, 0
8, 19440, Note_on_c, 3, 59, 64
8, 19556, Note_on_c, 3, 59, 0
8, 19560, Note_on_c, 3, 57, 64
8, 19676, Note_on_c, 3, 57, 0
8, 19680, Note_on_c, 3, 55, 64
8, 19916, Note_on_c, 3, 55, 0
8, 19920, Note_on_c, 3, 49, 64
8, 20156, Note_on_c, 3, 49, 0
8, 20160, Note_on_c, 3, 50, 64
8, 20636, Note_on_c, 3, 50, 0
8, 20880, Note_on_c, 3, 57, 64
8, 21116, Note_on_c, 3, 57, 0
8, 21120, Note_on_c, 3, 62, 64
8, 21596, Note_on_c, 3, 62, 0
8, 21840, Note_on_c, 3, 57, 64
8, 22076, Note_on_c, 3, 57, 0
8, 22080, Note_on_c, 3, 50, 64
8, 22556, Note_on_c, 3, 50, 0
8, 22800, Note_on_c, 3, 45, 64
8, 23036, Note_on_c, 3, 45, 0
8, 23040, Note_on_c, 3, 38, 64
8, 23276, Note_on_c, 3, 38, 0
8, 23280, Note_on_c, 3, 47, 64
8, 23516, Note_on_c, 3, 47, 0
8, 23520, Note_on_c, 3, 43, 64
8, 23756, Note_on_c, 3, 43, 0
8, 23760, Note_on_c, 3, 45, 64
8, 23996, Note_on_c, 3, 45, 0
8, 24000, Note_on_c, 3, 47, 64
8, 24236, Note_on_c, 3, 47, 0
8, 24240, Note_on_c, 3, 45, 64
8, 24356, Note_on_c, 3, 45, 0
8, 24360, Note_on_c, 3, 43, 64
8, 24476, Note_on_c, 3, 43, 0
8, 24480, Note_on_c, 3, 42, 64
8, 24716, Note_on_c, 3, 42, 0
8, 24720, Note_on_c, 3, 40, 64
8, 24836, Note_on_c, 3, 40, 0
8, 24840, Note_on_c, 3, 38, 64
8, 24956, Note_on_c, 3, 38, 0
8, 24960, Note_on_c, 3, 43, 64
8, 25196, Note_on_c, 3, 43, 0
8, 25200, Note_on_c, 3, 42, 64
8, 25316, Note_on_c, 3, 42, 0
8, 25320, Note_on_c, 3, 40, 64
8, 25436, Note_on_c, 3, 40, 0
8, 25440, Note_on_c, 3, 38, 64
8, 25676, Note_on_c, 3, 38, 0
8, 25680, Note_on_c, 3, 62, 64
8, 25796, Note_on_c, 3, 62, 0
8, 25800, Note_on_c, 3, 61, 64
8, 25916, Note_on_c, 3, 61, 0
8, 25920, Note_on_c, 3, 59, 64
8, 26156, Note_on_c, 3, 59, 0
8, 26160, Note_on_c, 3, 57, 64
8, 26276, Note_on_c, 3, 57, 0
8, 26280, Note_on_c, 3, 55, 64
8, 26396, Note_on_c, 3, 55, 0
8, 26400, Note_on_c, 3, 54, 64
8, 26636, Note_on_c, 3, 54, 0
8, 26640, Note_on_c, 3, 56, 64
8, 26876, Note_on_c, 3, 56, 0
8, 26880, Note_on_c, 3, 57, 64
8, 27116, Note_on_c, 3, 57, 0
8, 27120, Note_on_c, 3, 45, 64
8, 27356, Note_on_c, 3, 45, 0
8, 27360, Note_on_c, 3, 45, 64
8, 27596, Note_on_c, 3, 45, 0
8, 27600, Note_on_c, 3, 57, 64
8, 27716, Note_on_c, 3, 57, 0
8, 27720, Note_on_c, 3, 59, 64
8, 27836, Note_on_c, 3, 59, 0
8, 27840, Note_on_c, 3, 61, 64
8, 28076, Note_on_c, 3, 61, 0
8, 28080, Note_on_c, 3, 62, 64
8, 28316, Note_on_c, 3, 62, 0
8, 28320, Note_on_c, 3, 64, 64
8, 28556, Note_on_c, 3, 64, 0
8, 28560, Note_on_c, 3, 61, 64
8, 28796, Note_on_c, 3, 61, 0
8, 28800, Note_on_c, 3, 62, 64
8, 29036, Note_on_c, 3, 62, 0
8, 29040, Note_on_c, 3, 55, 64
8, 29276, Note_on_c, 3, 55, 0
8, 29280, Note_on_c, 3, 57, 64
8, 29516, Note_on_c, 3, 57, 0
8, 29520, Note_on_c, 3, 45, 64
8, 29756, Note_on_c, 3, 45, 0
8, 29760, Note_on_c, 3, 50, 64
8, 29996, Note_on_c, 3, 50, 0
8, 30000, Note_on_c, 3, 62, 64
8, 30116, Note_on_c, 3, 62, 0
8, 30120, Note_on_c, 3, 61, 64
8, 30236, Note_on_c, 3, 61, 0
8, 30240, Note_on_c, 3, 59, 64
8, 30356, Note_on_c, 3, 59, 0
8, 30360, Note_on_c, 3, 61, 64
8, 30476, Note_on_c, 3, 61, 0
8, 30480, Note_on_c, 3, 59, 64
8, 30596, Note_on_c, 3, 59, 0
8, 30600, Note_on_c, 3, 57, 64
8, 30716, Note_on_c, 3, 57, 0
8, 30720, Note_on_c, 3, 55, 64
8, 31196, Note_on_c, 3, 55, 0
8, 32400, Note_on_c, 3, 55, 64
8, 32516, Note_on_c, 3, 55, 0
8, 32520, Note_on_c, 3, 54, 64
8, 32636, Note_on_c, 3, 54, 0
8, 32640, Note_on_c, 3, 55, 64
8, 32876, Note_on_c, 3, 55, 0
8, 32880, Note_on_c, 3, 43, 64
8, 32996, Note_on_c, 3, 43, 0
8, 33000, Note_on_c, 3, 45, 64
8, 33116, Note_on_c, 3, 45, 0
8, 33120, Note_on_c, 3, 47, 64
8, 33356, Note_on_c, 3, 47, 0
8, 33360, Note_on_c, 3, 49, 64
8, 33596, Note_on_c, 3, 49, 0
8, 33600, Note_on_c, 3, 50, 64
8, 34076, Note_on_c, 3, 50, 0
8, 34320, Note_on_c, 3, 57, 64
8, 34556, Note_on_c, 3, 57, 0
8, 34560, Note_on_c, 3, 62, 64
8, 35036, Note_on_c, 3, 62, 0
8, 35280, Note_on_c, 3, 57, 64
8, 35516, Note_on_c, 3, 57, 0
8, 35520, Note_on_c, 3, 50, 64
8, 35996, Note_on_c, 3, 50, 0
8, 36240, Note_on_c, 3, 45, 64
8, 36476, Note_on_c, 3, 45, 0
8, 36480, Note_on_c, 3, 38, 64
8, 36716, Note_on_c, 3, 38, 0
8, 36720, Note_on_c, 3, 50, 64
8, 36956, Note_on_c, 3, 50, 0
8, 36960, Note_on_c, 3, 50, 64
8, 37196, Note_on_c, 3, 50, 0
8, 37200, Note_on_c, 3, 38, 64
8, 37436, Note_on_c, 3, 38, 0
8, 37440, Note_on_c, 3, 38, 64
8, 37676, Note_on_c, 3, 38, 0
8, 37680, Note_on_c, 3, 50, 64
8, 37916, Note_on_c, 3, 50, 0
8, 37920, Note_on_c, 3, 50, 64
8, 38156, Note_on_c, 3, 50, 0
8, 38160, Note_on_c, 3, 38, 64
8, 38396, Note_on_c, 3, 38, 0
8, 38400, Note_on_c, 3, 38, 64
8, 38636, Note_on_c, 3, 38, 0
8, 38640, Note_on_c, 3, 50, 64
8, 38756, Note_on_c, 3, 50, 0
8, 38760, Note_on_c, 3, 49, 64
8, 38876, Note_on_c, 3, 49, 0
8, 38880, Note_on_c, 3, 47, 64
8, 39116, Note_on_c, 3, 47, 0
8, 39120, Note_on_c, 3, 52, 64
8, 39356, Note_on_c, 3, 52, 0
8, 39360, Note_on_c, 3, 45, 64
8, 39836, Note_on_c, 3, 45, 0
8, 40080, Note_on_c, 3, 45, 64
8, 40316, Note_on_c, 3, 45, 0
8, 40320, Note_on_c, 3, 52, 64
8, 40796, Note_on_c, 3, 52, 0
8, 41040, Note_on_c, 3, 52, 64
8, 41276, Note_on_c, 3, 52, 0
8, 41280, Note_on_c, 3, 47, 64
8, 41756, Note_on_c, 3, 47, 0
8, 42000, Note_on_c, 3, 47, 64
8, 42236, Note_on_c, 3, 47, 0
8, 42240, Note_on_c, 3, 54, 64
8, 42476, Note_on_c, 3, 54, 0
8, 42480, Note_on_c, 3, 59, 64
8, 42596, Note_on_c, 3, 59, 0
8, 42600, Note_on_c, 3, 57, 64
8, 42716, Note_on_c, 3, 57, 0
8, 42720, Note_on_c, 3, 59, 64
8, 42956, Note_on_c, 3, 59, 0
8, 42960, Note_on_c, 3, 52, 64
8, 43076, Note_on_c, 3, 52, 0
8, 43080, Note_on_c, 3, 50, 64
8, 43196, Note_on_c, 3, 50, 0
8, 43200, Note_on_c, 3, 52, 64
8, 43436, Note_on_c, 3, 52, 0
8, 43440, Note_on_c, 3, 57, 64
8, 43556, Note_on_c, 3, 57, 0
8, 43560, Note_on_c, 3, 55, 64
8, 43676, Note_on_c, 3, 55, 0
8, 43680, Note_on_c, 3, 57, 64
8, 43916, Note_on_c, 3, 57, 0
8, 43920, Note_on_c, 3, 50, 64
8, 44036, Note_on_c, 3, 50, 0
8, 44040, Note_on_c, 3, 49, 64
8, 44156, Note_on_c, 3, 49, 0
8, 44160, Note_on_c, 3, 50, 64
8, 44396, Note_on_c, 3, 50, 0
8, 44400, Note_on_c, 3, 55, 64
8, 44636, Note_on_c, 3, 55, 0
8, 44640, Note_on_c, 3, 57, 64
8, 44876, Note_on_c, 3, 57, 0
8, 44880, Note_on_c, 3, 45, 64
8, 45116, Note_on_c, 3, 45, 0
8, 45120, Note_on_c, 3, 50, 64
8, 45356, Note_on_c, 3, 50, 0
8, 45360, Note_on_c, 3, 62, 64
8, 45476, Note_on_c, 3, 62, 0
8, 45480, Note_on_c, 3, 61, 64
8, 45596, Note_on_c, 3, 61, 0
8, 45600, Note_on_c, 3, 62, 64
8, 45836, Note_on_c, 3, 62, 0
8, 46320, Note_on_c, 3, 62, 64
8, 46436, Note_on_c, 3, 62, 0
8, 46440, Note_on_c, 3, 61, 64
8, 46556, Note_on_c, 3, 61, 0
8, 46560, Note_on_c, 3, 62, 64
8, 46796, Note_on_c, 3, 62, 0
8, 47280, Note_on_c, 3, 50, 64
8, 47396, Note_on_c, 3, 50, 0
8, 47400, Note_on_c, 3, 49, 64
8, 47516, Note_on_c, 3, 49, 0
8, 47520, Note_on_c, 3, 50, 64
8, 47756, Note_on_c, 3, 50, 0
8, 48240, Note_on_c, 3, 50, 64
8, 48356, Note_on_c, 3, 50, 0
8, 48360, Note_on_c, 3, 49, 64
8, 48476, Note_on_c, 3, 49, 0
8, 48480, Note_on_c, 3, 50, 64
8, 48716, Note_on_c, 3, 50, 0
8, 49200, Note_on_c, 3, 62, 64
8, 49316, Note_on_c, 3, 62, 0
8, 49320, Note_on_c, 3, 61, 64
8, 49436, Note_on_c, 3, 61, 0
8, 49440, Note_on_c, 3, 62, 64
8, 49676, Note_on_c, 3, 62, 0
8, 49680, Note_on_c, 3, 50, 64
8, 49916, Note_on_c, 3, 50, 0
8, 49920, Note_on_c, 3, 43, 64
8, 50156, Note_on_c, 3, 43, 0
8, 50160, Note_on_c, 3, 55, 64
8, 50276, Note_on_c, 3, 55, 0
8, 50280, Note_on_c, 3, 54, 64
8, 50396, Note_on_c, 3, 54, 0
8, 50400, Note_on_c, 3, 55, 64
8, 50636, Note_on_c, 3, 55, 0
8, 51120, Note_on_c, 3, 55, 64
8, 51236, Note_on_c, 3, 55, 0
8, 51240, Note_on_c, 3, 54, 64
8, 51356, Note_on_c, 3, 54, 0
8, 51360, Note_on_c, 3, 55, 64
8, 51596, Note_on_c, 3, 55, 0
8, 52080, Note_on_c, 3, 43, 64
8, 52196, Note_on_c, 3, 43, 0
8, 52200, Note_on_c, 3, 42, 64
8, 52316, Note_on_c, 3, 42, 0
8, 52320, Note_on_c, 3, 43, 64
8, 52556, Note_on_c, 3, 43, 0
8, 53040, Note_on_c, 3, 43, 64
8, 53156, Note_on_c, 3, 43, 0
8, 53160, Note_on_c, 3, 42, 64
8, 53276, Note_on_c, 3, 42, 0
8, 53280, Note_on_c, 3, 43, 64
8, 53516, Note_on_c, 3, 43, 0
8, 54000, Note_on_c, 3, 55, 64
8, 54116, Note_on_c, 3, 55, 0
8, 54120, Note_on_c, 3, 53, 64
8, 54236, Note_on_c, 3, 53, 0
8, 54240, Note_on_c, 3, 55, 64
8, 54476, Note_on_c, 3, 55, 0
8, 54480, Note_on_c, 3, 43, 64
8, 54716, Note_on_c, 3, 43, 0
8, 54720, Note_on_c, 3, 48, 64
8, 55196, Note_on_c, 3, 48, 0
8, 55320, Note_on_c, 3, 47, 64
8, 55436, Note_on_c, 3, 47, 0
8, 55440, Note_on_c, 3, 48, 64
8, 55556, Note_on_c, 3, 48, 0
8, 55560, Note_on_c, 3, 50, 64
8, 55676, Note_on_c, 3, 50, 0
8, 55680, Note_on_c, 3, 52, 64
8, 55916, Note_on_c, 3, 52, 0
8, 55920, Note_on_c, 3, 57, 64
8, 56036, Note_on_c, 3, 57, 0
8, 56040, Note_on_c, 3, 55, 64
8, 56156, Note_on_c, 3, 55, 0
8, 56160, Note_on_c, 3, 57, 64
8, 56396, Note_on_c, 3, 57, 0
8, 56400, Note_on_c, 3, 50, 64
8, 56516, Note_on_c, 3, 50, 0
8, 56520, Note_on_c, 3, 48, 64
8, 56636, Note_on_c, 3, 48, 0
8, 56640, Note_on_c, 3, 50, 64
8, 56876, Note_on_c, 3, 50, 0
8, 56880, Note_on_c, 3, 55, 64
8, 56996, Note_on_c, 3, 55, 0
8, 57000, Note_on_c, 3, 53, 64
8, 57116, Note_on_c, 3, 53, 0
8, 57120, Note_on_c, 3, 55, 64
8, 57356, Note_on_c, 3, 55, 0
8, 57360, Note_on_c, 3, 48, 64
8, 57476, Note_on_c, 3, 48, 0
8, 57480, Note_on_c, 3, 47, 64
8, 57596, Note_on_c, 3, 47, 0
8, 57600, Note_on_c, 3, 48, 64
8, 57836, Note_on_c, 3, 48, 0
8, 57840, Note_on_c, 3, 53, 64
8, 57956, Note_on_c, 3, 53, 0
8, 57960, Note_on_c, 3, 52, 64
8, 58076, Note_on_c, 3, 52, 0
8, 58080, Note_on_c, 3, 53, 64
8, 58676, Note_on_c, 3, 53, 0
8, 58680, Note_on_c, 3, 55, 64
8, 58796, Note_on_c, 3, 55, 0
8, 58800, Note_on_c, 3, 53, 64
8, 58916, Note_on_c, 3, 53, 0
8, 58920, Note_on_c, 3, 52, 64
8, 59036, Note_on_c, 3, 52, 0
8, 59040, Note_on_c, 3, 50, 64
8, 59156, Note_on_c, 3, 50, 0
8, 59160, Note_on_c, 3, 48, 64
8, 59276, Note_on_c, 3, 48, 0
8, 59280, Note_on_c, 3, 47, 64
8, 59396, Note_on_c, 3, 47, 0
8, 59400, Note_on_c, 3, 45, 64
8, 59516, Note_on_c, 3, 45, 0
8, 59520, Note_on_c, 3, 43, 64
8, 59756, Note_on_c, 3, 43, 0
8, 59760, Note_on_c, 3, 48, 64
8, 59996, Note_on_c, 3, 48, 0
8, 60000, Note_on_c, 3, 55, 64
8, 60236, Note_on_c, 3, 55, 0
8, 60240, Note_on_c, 3, 43, 64
8, 60476, Note_on_c, 3, 43, 0
8, 60480, Note_on_c, 3, 48, 64
8, 60956, Note_on_c, 3, 48, 0
8, 61200, Note_on_c, 3, 60, 64
8, 61316, Note_on_c, 3, 60, 0
8, 61320, Note_on_c, 3, 59, 64
8, 61436, Note_on_c, 3, 59, 0
8, 61440, Note_on_c, 3, 60, 64
8, 61676, Note_on_c, 3, 60, 0
8, 61680, Note_on_c, 3, 55, 64
8, 61796, Note_on_c, 3, 55, 0
8, 61800, Note_on_c, 3, 53, 64
8, 61916, Note_on_c, 3, 53, 0
8, 61920, Note_on_c, 3, 55, 64
8, 62156, Note_on_c, 3, 55, 0
8, 62160, Note_on_c, 3, 60, 64
8, 62276, Note_on_c, 3, 60, 0
8, 62280, Note_on_c, 3, 59, 64
8, 62396, Note_on_c, 3, 59, 0
8, 62400, Note_on_c, 3, 60, 64
8, 62636, Note_on_c, 3, 60, 0
8, 62640, Note_on_c, 3, 52, 64
8, 62756, Note_on_c, 3, 52, 0
8, 62760, Note_on_c, 3, 50, 64
8, 62876, Note_on_c, 3, 50, 0
8, 62880, Note_on_c, 3, 52, 64
8, 63116, Note_on_c, 3, 52, 0
8, 63120, Note_on_c, 3, 60, 64
8, 63236, Note_on_c, 3, 60, 0
8, 63240, Note_on_c, 3, 59, 64
8, 63356, Note_on_c, 3, 59, 0
8, 63360, Note_on_c, 3, 60, 64
8, 63596, Note_on_c, 3, 60, 0
8, 63600, Note_on_c, 3, 48, 64
8, 63716, Note_on_c, 3, 48, 0
8, 63720, Note_on_c, 3, 50, 64
8, 63836, Note_on_c, 3, 50, 0
8, 63840, Note_on_c, 3, 52, 64
8, 64076, Note_on_c, 3, 52, 0
8, 64080, Note_on_c, 3, 54, 64
8, 64316, Note_on_c, 3, 54, 0
8, 64320, Note_on_c, 3, 55, 64
8, 64556, Note_on_c, 3, 55, 0
8, 64560, Note_on_c, 3, 43, 64
8, 64796, Note_on_c, 3, 43, 0
8, 65040, Note_on_c, 3, 55, 64
8, 65156, Note_on_c, 3, 55, 0
8, 65160, Note_on_c, 3, 54, 64
8, 65276, Note_on_c, 3, 54, 0
8, 65280, Note_on_c, 3, 55, 64
8, 65516, Note_on_c, 3, 55, 0
8, 65520, Note_on_c, 3, 50, 64
8, 65636, Note_on_c, 3, 50, 0
8, 65640, Note_on_c, 3, 48, 64
8, 65756, Note_on_c, 3, 48, 0
8, 65760, Note_on_c, 3, 50, 64
8, 65996, Note_on_c, 3, 50, 0
8, 66000, Note_on_c, 3, 55, 64
8, 66116, Note_on_c, 3, 55, 0
8, 66120, Note_on_c, 3, 54, 64
8, 66236, Note_on_c, 3, 54, 0
8, 66240, Note_on_c, 3, 55, 64
8, 66476, Note_on_c, 3, 55, 0
8, 66480, Note_on_c, 3, 47, 64
8, 66596, Note_on_c, 3, 47, 0
8, 66600, Note_on_c, 3, 45, 64
8, 66716, Note_on_c, 3, 45, 0
8, 66720, Note_on_c, 3, 47, 64
8, 66956, Note_on_c, 3, 47, 0
8, 66960, Note_on_c, 3, 55, 64
8, 67076, Note_on_c, 3, 55, 0
8, 67080, Note_on_c, 3, 54, 64
8, 67196, Note_on_c, 3, 54, 0
8, 67200, Note_on_c, 3, 55, 64
8, 67436, Note_on_c, 3, 55, 0
8, 67440, Note_on_c, 3, 43, 64
8, 67556, Note_on_c, 3, 43, 0
8, 67560, Note_on_c, 3, 45, 64
8, 67676, Note_on_c, 3, 45, 0
8, 67680, Note_on_c, 3, 47, 64
8, 67916, Note_on_c, 3, 47, 0
8, 67920, Note_on_c, 3, 49, 64
8, 68156, Note_on_c, 3, 49, 0
8, 68160, Note_on_c, 3, 50, 64
8, 68276, Note_on_c, 3, 50, 0
8, 68280, Note_on_c, 3, 49, 64
8, 68396, Note_on_c, 3, 49, 0
8, 68400, Note_on_c, 3, 50, 64
8, 68516, Note_on_c, 3, 50, 0
8, 68520, Note_on_c, 3, 52, 64
8, 68636, Note_on_c, 3, 52, 0
8, 68640, Note_on_c, 3, 50, 64
8, 68756, Note_on_c, 3, 50, 0
8, 68760, Note_on_c, 3, 54, 64
8, 68876, Note_on_c, 3, 54, 0
8, 68880, Note_on_c, 3, 50, 64
8, 68996, Note_on_c, 3, 50, 0
8, 69000, Note_on_c, 3, 55, 64
8, 69116, Note_on_c, 3, 55, 0
8, 69120, Note_on_c, 3, 50, 64
8, 69236, Note_on_c, 3, 50, 0
8, 69240, Note_on_c, 3, 49, 64
8, 69356, Note_on_c, 3, 49, 0
8, 69360, Note_on_c, 3, 50, 64
8, 69476, Note_on_c, 3, 50, 0
8, 69480, Note_on_c, 3, 52, 64
8, 69596, Note_on_c, 3, 52, 0
8, 69600, Note_on_c, 3, 50, 64
8, 69716, Note_on_c, 3, 50, 0
8, 69720, Note_on_c, 3, 57, 64
8, 69836, Note_on_c, 3, 57, 0
8, 69840, Note_on_c, 3, 50, 64
8, 69956, Note_on_c, 3, 50, 0
8, 69960, Note_on_c, 3, 59, 64
8, 70076, Note_on_c, 3, 59, 0
8, 70080, Note_on_c, 3, 50, 64
8, 70196, Note_on_c, 3, 50, 0
8, 70200, Note_on_c, 3, 49, 64
8, 70316, Note_on_c, 3, 49, 0
8, 70320, Note_on_c, 3, 50, 64
8, 70436, Note_on_c, 3, 50, 0
8, 70440, Note_on_c, 3, 52, 64
8, 70556, Note_on_c, 3, 52, 0
8, 70560, Note_on_c, 3, 50, 64
8, 70676, Note_on_c, 3, 50, 0
8, 70680, Note_on_c, 3, 60, 64
8, 70796, Note_on_c, 3, 60, 0
8, 70800, Note_on_c, 3, 50, 64
8, 70916, Note_on_c, 3, 50, 0
8, 70920, Note_on_c, 3, 62, 64
8, 71036, Note_on_c, 3, 62, 0
8, 71040, Note_on_c, 3, 59, 64
8, 71276, Note_on_c, 3, 59, 0
8, 71280, Note_on_c, 3, 57, 64
8, 71396, Note_on_c, 3, 57, 0
8, 71400, Note_on_c, 3, 55, 64
8, 71516, Note_on_c, 3, 55, 0
8, 71520, Note_on_c, 3, 57, 64
8, 71756, Note_on_c, 3, 57, 0
8, 71760, Note_on_c, 3, 55, 64
8, 71876, Note_on_c, 3, 55, 0
8, 71880, Note_on_c, 3, 54, 64
8, 71996, Note_on_c, 3, 54, 0
8, 72000, Note_on_c, 3, 55, 64
8, 72236, Note_on_c, 3, 55, 0
8, 72240, Note_on_c, 3, 59, 64
8, 72356, Note_on_c, 3, 59, 0
8, 72360, Note_on_c, 3, 57, 64
8, 72476, Note_on_c, 3, 57, 0
8, 72480, Note_on_c, 3, 59, 64
8, 72716, Note_on_c, 3, 59, 0
8, 72720, Note_on_c, 3, 62, 64
8, 72836, Note_on_c, 3, 62, 0
8, 72840, Note_on_c, 3, 60, 64
8, 72956, Note_on_c, 3, 60, 0
8, 72960, Note_on_c, 3, 62, 64
8, 73196, Note_on_c, 3, 62, 0
8, 74640, Note_on_c, 3, 55, 64
8, 74876, Note_on_c, 3, 55, 0
8, 74880, Note_on_c, 3, 55, 64
8, 75116, Note_on_c, 3, 55, 0
8, 75120, Note_on_c, 3, 43, 64
8, 75356, Note_on_c, 3, 43, 0
8, 75360, Note_on_c, 3, 43, 64
8, 75596, Note_on_c, 3, 43, 0
8, 75600, Note_on_c, 3, 55, 64
8, 75836, Note_on_c, 3, 55, 0
8, 75840, Note_on_c, 3, 55, 64
8, 76076, Note_on_c, 3, 55, 0
8, 76080, Note_on_c, 3, 43, 64
8, 76316, Note_on_c, 3, 43, 0
8, 76320, Note_on_c, 3, 43, 64
8, 76556, Note_on_c, 3, 43, 0
8, 76560, Note_on_c, 3, 55, 64
8, 76676, Note_on_c, 3, 55, 0
8, 76680, Note_on_c, 3, 54, 64
8, 76796, Note_on_c, 3, 54, 0
8, 76800, Note_on_c, 3, 55, 64
8, 77036, Note_on_c, 3, 55, 0
8, 77040, Note_on_c, 3, 43, 64
8, 77156, Note_on_c, 3, 43, 0
8, 77160, Note_on_c, 3, 45, 64
8, 77276, Note_on_c, 3, 45, 0
8, 77280, Note_on_c, 3, 47, 64
8, 77516, Note_on_c, 3, 47, 0
8, 77520, Note_on_c, 3, 49, 64
8, 77756, Note_on_c, 3, 49, 0
8, 77760, Note_on_c, 3, 50, 64
8, 77996, Note_on_c, 3, 50, 0
8, 78000, Note_on_c, 3, 38, 64
8, 78236, Note_on_c, 3, 38, 0
8, 78240, Note_on_c, 3, 38, 64
8, 78476, Note_on_c, 3, 38, 0
8, 78480, Note_on_c, 3, 62, 64
8, 78596, Note_on_c, 3, 62, 0
8, 78600, Note_on_c, 3, 61, 64
8, 78716, Note_on_c, 3, 61, 0
8, 78720, Note_on_c, 3, 62, 64
8, 78956, Note_on_c, 3, 62, 0
8, 78960, Note_on_c, 3, 50, 64
8, 79196, Note_on_c, 3, 50, 0
8, 79200, Note_on_c, 3, 38, 64
8, 79436, Note_on_c, 3, 38, 0
8, 79440, Note_on_c, 3, 50, 64
8, 79556, Note_on_c, 3, 50, 0
8, 79560, Note_on_c, 3, 49, 64
8, 79676, Note_on_c, 3, 49, 0
8, 79680, Note_on_c, 3, 50, 64
8, 79916, Note_on_c, 3, 50, 0
8, 79920, Note_on_c, 3, 38, 64
8, 80156, Note_on_c, 3, 38, 0
8, 80160, Note_on_c, 3, 38, 64
8, 80396, Note_on_c, 3, 38, 0
8, 80400, Note_on_c, 3, 54, 64
8, 80636, Note_on_c, 3, 54, 0
8, 80640, Note_on_c, 3, 55, 64
8, 80876, Note_on_c, 3, 55, 0
8, 80880, Note_on_c, 3, 52, 64
8, 81116, Note_on_c, 3, 52, 0
8, 81120, Note_on_c, 3, 48, 64
8, 81356, Note_on_c, 3, 48, 0
8, 81360, Note_on_c, 3, 50, 64
8, 81596, Note_on_c, 3, 50, 0
8, 81600, Note_on_c, 3, 52, 64
8, 81836, Note_on_c, 3, 52, 0
8, 81840, Note_on_c, 3, 50, 64
8, 81956, Note_on_c, 3, 50, 0
8, 81960, Note_on_c, 3, 48, 64
8, 82076, Note_on_c, 3, 48, 0
8, 82080, Note_on_c, 3, 47, 64
8, 82316, Note_on_c, 3, 47, 0
8, 82320, Note_on_c, 3, 45, 64
8, 82436, Note_on_c, 3, 45, 0
8, 82440, Note_on_c, 3, 43, 64
8, 82556, Note_on_c, 3, 43, 0
8, 82560, Note_on_c, 3, 48, 64
8, 82796, Note_on_c, 3, 48, 0
8, 82800, Note_on_c, 3, 47, 64
8, 82916, Note_on_c, 3, 47, 0
8, 82920, Note_on_c, 3, 45, 64
8, 83036, Note_on_c, 3, 45, 0
8, 83040, Note_on_c, 3, 43, 64
8, 83276, Note_on_c, 3, 43, 0
8, 83280, Note_on_c, 3, 55, 64
8, 83396, Note_on_c, 3, 55, 0
8, 83400, Note_on_c, 3, 54, 64
8, 83516, Note_on_c, 3, 54, 0
8, 83520, Note_on_c, 3, 52, 64
8, 83756, Note_on_c, 3, 52, 0
8, 83760, Note_on_c, 3, 50, 64
8, 83876, Note_on_c, 3, 50, 0
8, 83880, Note_on_c, 3, 48, 64
8, 83996, Note_on_c, 3, 48, 0
8, 84000, Note_on_c, 3, 47, 64
8, 84236, Note_on_c, 3, 47, 0
8, 84240, Note_on_c, 3, 49, 64
8, 84476, Note_on_c, 3, 49, 0
8, 84480, Note_on_c, 3, 50, 64
8, 84716, Note_on_c, 3, 50, 0
8, 84720, Note_on_c, 3, 38, 64
8, 84956, Note_on_c, 3, 38, 0
8, 84960, Note_on_c, 3, 38, 64
8, 85196, Note_on_c, 3, 38, 0
8, 85200, Note_on_c, 3, 50, 64
8, 85316, Note_on_c, 3, 50, 0
8, 85320, Note_on_c, 3, 52, 64
8, 85436, Note_on_c, 3, 52, 0
8, 85440, Note_on_c, 3, 54, 64
8, 85676, Note_on_c, 3, 54, 0
8, 85680, Note_on_c, 3, 55, 64
8, 85916, Note_on_c, 3, 55, 0
8, 85920, Note_on_c, 3, 57, 64
8, 86156, Note_on_c, 3, 57, 0
8, 86160, Note_on_c, 3, 50, 64
8, 86396, Note_on_c, 3, 50, 0
8, 86400, Note_on_c, 3, 55, 64
8, 86636, Note_on_c, 3, 55, 0
8, 86640, Note_on_c, 3, 48, 64
8, 86876, Note_on_c, 3, 48, 0
8, 86880, Note_on_c, 3, 50, 64
8, 87116, Note_on_c, 3, 50, 0
8, 87120, Note_on_c, 3, 38, 64
8, 87356, Note_on_c, 3, 38, 0
8, 87360, Note_on_c, 3, 40, 64
8, 87836, Note_on_c, 3, 40, 0
8, 88080, Note_on_c, 3, 41, 64
8, 88316, Note_on_c, 3, 41, 0
8, 88320, Note_on_c, 3, 43, 64
8, 88556, Note_on_c, 3, 43, 0
8, 88560, Note_on_c, 3, 36, 64
8, 88796, Note_on_c, 3, 36, 0
8, 88800, Note_on_c, 3, 38, 64
8, 89036, Note_on_c, 3, 38, 0
8, 89040, Note_on_c, 3, 50, 64
8, 89276, Note_on_c, 3, 50, 0
8, 89280, Note_on_c, 3, 55, 64
8, 89516, Note_on_c, 3, 55, 0
8, 89520, Note_on_c, 3, 54, 64
8, 89636, Note_on_c, 3, 54, 0
8, 89640, Note_on_c, 3, 52, 64
8, 89756, Note_on_c, 3, 52, 0
8, 89760, Note_on_c, 3, 50, 64
8, 89876, Note_on_c, 3, 50, 0
8, 89880, Note_on_c, 3, 48, 64
8, 89996, Note_on_c, 3, 48, 0
8, 90000, Note_on_c, 3, 47, 64
8, 90116, Note_on_c, 3, 47, 0
8, 90120, Note_on_c, 3, 45, 64
8, 90236, Note_on_c, 3, 45, 0
8, 90240, Note_on_c, 3, 43, 64
8, 90716, Note_on_c, 3, 43, 0
8, 91200, Note_on_c, 3, 43, 64
8, 91676, Note_on_c, 3, 43, 0
8, 92160, Note_on_c, 3, 43, 64
8, 92636, Note_on_c, 3, 43, 0
8, 93120, Note_on_c, 3, 43, 64
8, 93596, Note_on_c, 3, 43, 0
8, 94080, Note_on_c, 3, 43, 64
8, 94556, Note_on_c, 3, 43, 0
8, 95040, Note_on_c, 3, 43, 64
8, 95516, Note_on_c, 3, 43, 0
8, 96000, Note_on_c, 3, 55, 64
8, 96236, Note_on_c, 3, 55, 0
8, 96240, Note_on_c, 3, 54, 64
8, 96476, Note_on_c, 3, 54, 0
8, 96480, Note_on_c, 3, 52, 64
8, 96716, Note_on_c, 3, 52, 0
8, 96720, Note_on_c, 3, 57, 64
8, 96956, Note_on_c, 3, 57, 0
8, 96960, Note_on_c, 3, 50, 64
8, 97196, Note_on_c, 3, 50, 0
8, 97200, Note_on_c, 3, 49, 64
8, 97316, Note_on_c, 3, 49, 0
8, 97320, Note_on_c, 3, 47, 64
8, 97436, Note_on_c, 3, 47, 0
8, 97440, Note_on_c, 3, 45, 64
8, 97556, Note_on_c, 3, 45, 0
8, 97560, Note_on_c, 3, 43, 64
8, 97676, Note_on_c, 3, 43, 0
8, 97680, Note_on_c, 3, 42, 64
8, 97796, Note_on_c, 3, 42, 0
8, 97800, Note_on_c, 3, 40, 64
8, 97916, Note_on_c, 3, 40, 0
8, 97920, Note_on_c, 3, 39, 64
8, 98396, Note_on_c, 3, 39, 0
8, 98880, Note_on_c, 3, 42, 64
8, 99356, Note_on_c, 3, 42, 0
8, 99840, Note_on_c, 3, 45, 64
8, 100316, Note_on_c, 3, 45, 0
8, 100800, Note_on_c, 3, 57, 64
8, 101276, Note_on_c, 3, 57, 0
8, 101760, Note_on_c, 3, 51, 64
8, 102236, Note_on_c, 3, 51, 0
8, 102720, Note_on_c, 3, 47, 64
8, 103196, Note_on_c, 3, 47, 0
8, 103680, Note_on_c, 3, 52, 64
8, 104156, Note_on_c, 3, 52, 0
8, 105360, Note_on_c, 3, 55, 64
8, 105476, Note_on_c, 3, 55, 0
8, 105480, Note_on_c, 3, 54, 64
8, 105596, Note_on_c, 3, 54, 0
8, 105600, Note_on_c, 3, 52, 64
8, 105836, Note_on_c, 3, 52, 0
8, 105840, Note_on_c, 3, 40, 64
8, 105956, Note_on_c, 3, 40, 0
8, 105960, Note_on_c, 3, 42, 64
8, 106076, Note_on_c, 3, 42, 0
8, 106080, Note_on_c, 3, 43, 64
8, 106316, Note_on_c, 3, 43, 0
8, 106320, Note_on_c, 3, 45, 64
8, 106556, Note_on_c, 3, 45, 0
8, 106560, Note_on_c, 3, 47, 64
8, 106676, Note_on_c, 3, 47, 0
8, 106680, Note_on_c, 3, 46, 64
8, 106796, Note_on_c, 3, 46, 0
8, 106800, Note_on_c, 3, 47, 64
8, 106916, Note_on_c, 3, 47, 0
8, 106920, Note_on_c, 3, 49, 64
8, 107036, Note_on_c, 3, 49, 0
8, 107040, Note_on_c, 3, 47, 64
8, 107156, Note_on_c, 3, 47, 0
8, 107160, Note_on_c, 3, 51, 64
8, 107276, Note_on_c, 3, 51, 0
8, 107280, Note_on_c, 3, 47, 64
8, 107396, Note_on_c, 3, 47, 0
8, 107400, Note_on_c, 3, 52, 64
8, 107516, Note_on_c, 3, 52, 0
8, 107520, Note_on_c, 3, 47, 64
8, 107636, Note_on_c, 3, 47, 0
8, 107640, Note_on_c, 3, 46, 64
8, 107756, Note_on_c, 3, 46, 0
8, 107760, Note_on_c, 3, 47, 64
8, 107876, Note_on_c, 3, 47, 0
8, 107880, Note_on_c, 3, 49, 64
8, 107996, Note_on_c, 3, 49, 0
8, 108000, Note_on_c, 3, 47, 64
8, 108116, Note_on_c, 3, 47, 0
8, 108120, Note_on_c, 3, 54, 64
8, 108236, Note_on_c, 3, 54, 0
8, 108240, Note_on_c, 3, 47, 64
8, 108356, Note_on_c, 3, 47, 0
8, 108360, Note_on_c, 3, 55, 64
8, 108476, Note_on_c, 3, 55, 0
8, 108480, Note_on_c, 3, 47, 64
8, 108596, Note_on_c, 3, 47, 0
8, 108600, Note_on_c, 3, 46, 64
8, 108716, Note_on_c, 3, 46, 0
8, 108720, Note_on_c, 3, 47, 64
8, 108836, Note_on_c, 3, 47, 0
8, 108840, Note_on_c, 3, 49, 64
8, 108956, Note_on_c, 3, 49, 0
8, 108960, Note_on_c, 3, 47, 64
8, 109076, Note_on_c, 3, 47, 0
8, 109080, Note_on_c, 3, 57, 64
8, 109196, Note_on_c, 3, 57, 0
8, 109200, Note_on_c, 3, 47, 64
8, 109316, Note_on_c, 3, 47, 0
8, 109320, Note_on_c, 3, 59, 64
8, 109436, Note_on_c, 3, 59, 0
8, 109440, Note_on_c, 3, 55, 64
8, 109676, Note_on_c, 3, 55, 0
8, 109680, Note_on_c, 3, 54, 64
8, 109796, Note_on_c, 3, 54, 0
8, 109800, Note_on_c, 3, 52, 64
8, 109916, Note_on_c, 3, 52, 0
8, 109920, Note_on_c, 3, 54, 64
8, 110156, Note_on_c, 3, 54, 0
8, 110160, Note_on_c, 3, 52, 64
8, 110276, Note_on_c, 3, 52, 0
8, 110280, Note_on_c, 3, 51, 64
8, 110396, Note_on_c, 3, 51, 0
8, 110400, Note_on_c, 3, 60, 64
8, 110756, Note_on_c, 3, 60, 0
8, 110760, Note_on_c, 3, 59, 64
8, 110876, Note_on_c, 3, 59, 0
8, 110880, Note_on_c, 3, 57, 64
8, 110996, Note_on_c, 3, 57, 0
8, 111000, Note_on_c, 3, 55, 64
8, 111116, Note_on_c, 3, 55, 0
8, 111120, Note_on_c, 3, 54, 64
8, 111236, Note_on_c, 3, 54, 0
8, 111240, Note_on_c, 3, 52, 64
8, 111356, Note_on_c, 3, 52, 0
8, 111360, Note_on_c, 3, 51, 64
8, 111596, Note_on_c, 3, 51, 0
8, 111600, Note_on_c, 3, 52, 64
8, 111836, Note_on_c, 3, 52, 0
8, 111840, Note_on_c, 3, 45, 64
8, 112076, Note_on_c, 3, 45, 0
8, 112080, Note_on_c, 3, 47, 64
8, 112316, Note_on_c, 3, 47, 0
8, 112320, Note_on_c, 3, 40, 64
8, 112796, Note_on_c, 3, 40, 0
8, 113040, Note_on_c, 3, 47, 64
8, 113276, Note_on_c, 3, 47, 0
8, 113280, Note_on_c, 3, 52, 64
8, 113756, Note_on_c, 3, 52, 0
8, 114000, Note_on_c, 3, 59, 64
8, 114236, Note_on_c, 3, 59, 0
8, 114240, Note_on_c, 3, 64, 64
8, 114716, Note_on_c, 3, 64, 0
8, 114960, Note_on_c, 3, 59, 64
8, 115196, Note_on_c, 3, 59, 0
8, 115200, Note_on_c, 3, 52, 64
8, 115316, Note_on_c, 3, 52, 0
8, 115320, Note_on_c, 3, 54, 64
8, 115436, Note_on_c, 3, 54, 0
8, 115440, Note_on_c, 3, 55, 64
8, 115556, Note_on_c, 3, 55, 0
8, 115560, Note_on_c, 3, 54, 64
8, 115676, Note_on_c, 3, 54, 0
8, 115680, Note_on_c, 3, 52, 64
8, 115796, Note_on_c, 3, 52, 0
8, 115800, Note_on_c, 3, 50, 64
8, 115916, Note_on_c, 3, 50, 0
8, 115920, Note_on_c, 3, 49, 64
8, 116036, Note_on_c, 3, 49, 0
8, 116040, Note_on_c, 3, 47, 64
8, 116156, Note_on_c, 3, 47, 0
8, 116160, Note_on_c, 3, 45, 64
8, 116636, Note_on_c, 3, 45, 0
8, 116880, Note_on_c, 3, 40, 64
8, 117116, Note_on_c, 3, 40, 0
8, 117120, Note_on_c, 3, 45, 64
8, 117596, Note_on_c, 3, 45, 0
8, 117840, Note_on_c, 3, 52, 64
8, 118076, Note_on_c, 3, 52, 0
8, 118080, Note_on_c, 3, 57, 64
8, 118556, Note_on_c, 3, 57, 0
8, 118800, Note_on_c, 3, 52, 64
8, 119036, Note_on_c, 3, 52, 0
8, 119040, Note_on_c, 3, 45, 64
8, 119156, Note_on_c, 3, 45, 0
8, 119160, Note_on_c, 3, 47, 64
8, 119276, Note_on_c, 3, 47, 0
8, 119280, Note_on_c, 3, 49, 64
8, 119396, Note_on_c, 3, 49, 0
8, 119400, Note_on_c, 3, 47, 64
8, 119516, Note_on_c, 3, 47, 0
8, 119520, Note_on_c, 3, 45, 64
8, 119636, Note_on_c, 3, 45, 0
8, 119640, Note_on_c, 3, 43, 64
8, 119756, Note_on_c, 3, 43, 0
8, 119760, Note_on_c, 3, 42, 64
8, 119876, Note_on_c, 3, 42, 0
8, 119880, Note_on_c, 3, 40, 64
8, 119996, Note_on_c, 3, 40, 0
8, 120000, Note_on_c, 3, 38, 64
8, 120116, Note_on_c, 3, 38, 0
8, 120120, Note_on_c, 3, 57, 64
8, 120236, Note_on_c, 3, 57, 0
8, 120240, Note_on_c, 3, 50, 64
8, 120356, Note_on_c, 3, 50, 0
8, 120360, Note_on_c, 3, 52, 64
8, 120476, Note_on_c, 3, 52, 0
8, 120480, Note_on_c, 3, 54, 64
8, 120596, Note_on_c, 3, 54, 0
8, 120600, Note_on_c, 3, 55, 64
8, 120716, Note_on_c, 3, 55, 0
8, 120720, Note_on_c, 3, 57, 64
8, 120836, Note_on_c, 3, 57, 0
8, 120840, Note_on_c, 3, 55, 64
8, 120956, Note_on_c, 3, 55, 0
8, 120960, Note_on_c, 3, 54, 64
8, 121196, Note_on_c, 3, 54, 0
8, 121200, Note_on_c, 3, 62, 64
8, 121436, Note_on_c, 3, 62, 0
8, 121680, Note_on_c, 3, 57, 64
8, 121916, Note_on_c, 3, 57, 0
8, 121920, Note_on_c, 3, 62, 64
8, 122156, Note_on_c, 3, 62, 0
8, 122160, Note_on_c, 3, 57, 64
8, 122396, Note_on_c, 3, 57, 0
8, 122400, Note_on_c, 3, 50, 64
8, 122636, Note_on_c, 3, 50, 0
8, 122640, Note_on_c, 3, 45, 64
8, 122876, Note_on_c, 3, 45, 0
8, 122880, Note_on_c, 3, 38, 64
8, 122996, Note_on_c, 3, 38, 0
8, 123000, Note_on_c, 3, 59, 64
8, 123116, Note_on_c, 3, 59, 0
8, 123120, Note_on_c, 3, 57, 64
8, 123236, Note_on_c, 3, 57, 0
8, 123240, Note_on_c, 3, 55, 64
8, 123356, Note_on_c, 3, 55, 0
8, 123360, Note_on_c, 3, 54, 64
8, 123476, Note_on_c, 3, 54, 0
8, 123480, Note_on_c, 3, 52, 64
8, 123596, Note_on_c, 3, 52, 0
8, 123600, Note_on_c, 3, 50, 64
8, 123716, Note_on_c, 3, 50, 0
8, 123720, Note_on_c, 3, 48, 64
8, 123836, Note_on_c, 3, 48, 0
8, 123840, Note_on_c, 3, 50, 64
8, 124076, Note_on_c, 3, 50, 0
8, 124080, Note_on_c, 3, 55, 64
8, 124196, Note_on_c, 3, 55, 0
8, 124200, Note_on_c, 3, 54, 64
8, 124316, Note_on_c, 3, 54, 0
8, 124320, Note_on_c, 3, 55, 64
8, 124556, Note_on_c, 3, 55, 0
8, 124560, Note_on_c, 3, 50, 64
8, 124796, Note_on_c, 3, 50, 0
8, 124800, Note_on_c, 3, 43, 64
8, 125276, Note_on_c, 3, 43, 0
8, 125520, Note_on_c, 3, 54, 64
8, 125756, Note_on_c, 3, 54, 0
8, 125760, Note_on_c, 3, 55, 64
8, 125876, Note_on_c, 3, 55, 0
8, 125880, Note_on_c, 3, 50, 64
8, 125996, Note_on_c, 3, 50, 0
8, 126000, Note_on_c, 3, 43, 64
8, 126116, Note_on_c, 3, 43, 0
8, 126120, Note_on_c, 3, 45, 64
8, 126236, Note_on_c, 3, 45, 0
8, 126240, Note_on_c, 3, 47, 64
8, 126356, Note_on_c, 3, 47, 0
8, 126360, Note_on_c, 3, 48, 64
8, 126476, Note_on_c, 3, 48, 0
8, 126480, Note_on_c, 3, 50, 64
8, 126596, Note_on_c, 3, 50, 0
8, 126600, Note_on_c, 3, 48, 64
8, 126716, Note_on_c, 3, 48, 0
8, 126720, Note_on_c, 3, 47, 64
8, 126836, Note_on_c, 3, 47, 0
8, 126840, Note_on_c, 3, 50, 64
8, 126956, Note_on_c, 3, 50, 0
8, 126960, Note_on_c, 3, 43, 64
8, 127076, Note_on_c, 3, 43, 0
8, 127080, Note_on_c, 3, 45, 64
8, 127196, Note_on_c, 3, 45, 0
8, 127200, Note_on_c, 3, 47, 64
8, 127316, Note_on_c, 3, 47, 0
8, 127320, Note_on_c, 3, 48, 64
8, 127436, Note_on_c, 3, 48, 0
8, 127440, Note_on_c, 3, 50, 64
8, 127556, Note_on_c, 3, 50, 0
8, 127560, Note_on_c, 3, 48, 64
8, 127676, Note_on_c, 3, 48, 0
8, 127680, Note_on_c, 3, 47, 64
8, 127796, Note_on_c, 3, 47, 0
8, 127800, Note_on_c, 3, 48, 64
8, 127916, Note_on_c, 3, 48, 0
8, 127920, Note_on_c, 3, 50, 64
8, 128036, Note_on_c, 3, 50, 0
8, 128040, Note_on_c, 3, 48, 64
8, 128156, Note_on_c, 3, 48, 0
8, 128160, Note_on_c, 3, 47, 64
8, 128276, Note_on_c, 3, 47, 0
8, 128280, Note_on_c, 3, 45, 64
8, 128396, Note_on_c, 3, 45, 0
8, 128400, Note_on_c, 3, 43, 64
8, 128516, Note_on_c, 3, 43, 0
8, 128520, Note_on_c, 3, 42, 64
8, 128636, Note_on_c, 3, 42, 0
8, 128640, Note_on_c, 3, 40, 64
8, 129116, Note_on_c, 3, 40, 0
8, 129600, Note_on_c, 3, 40, 64
8, 130076, Note_on_c, 3, 40, 0
8, 130560, Note_on_c, 3, 52, 64
8, 131036, Note_on_c, 3, 52, 0
8, 131520, Note_on_c, 3, 52, 64
8, 131996, Note_on_c, 3, 52, 0
8, 132480, Note_on_c, 3, 46, 64
8, 132956, Note_on_c, 3, 46, 0
8, 133440, Note_on_c, 3, 42, 64
8, 133916, Note_on_c, 3, 42, 0
8, 134400, Note_on_c, 3, 47, 64
8, 134636, Note_on_c, 3, 47, 0
8, 134640, Note_on_c, 3, 59, 64
8, 134876, Note_on_c, 3, 59, 0
8, 134880, Note_on_c, 3, 59, 64
8, 135116, Note_on_c, 3, 59, 0
8, 135120, Note_on_c, 3, 47, 64
8, 135356, Note_on_c, 3, 47, 0
8, 135360, Note_on_c, 3, 47, 64
8, 135596, Note_on_c, 3, 47, 0
8, 135600, Note_on_c, 3, 59, 64
8, 135836, Note_on_c, 3, 59, 0
8, 135840, Note_on_c, 3, 59, 64
8, 136076, Note_on_c, 3, 59, 0
8, 136080, Note_on_c, 3, 47, 64
8, 136316, Note_on_c, 3, 47, 0
8, 136320, Note_on_c, 3, 47, 64
8, 136556, Note_on_c, 3, 47, 0
8, 136560, Note_on_c, 3, 59, 64
8, 136676, Note_on_c, 3, 59, 0
8, 136680, Note_on_c, 3, 57, 64
8, 136796, Note_on_c, 3, 57, 0
8, 136800, Note_on_c, 3, 55, 64
8, 137036, Note_on_c, 3, 55, 0
8, 137040, Note_on_c, 3, 54, 64
8, 137156, Note_on_c, 3, 54, 0
8, 137160, Note_on_c, 3, 52, 64
8, 137276, Note_on_c, 3, 52, 0
8, 137280, Note_on_c, 3, 50, 64
8, 137516, Note_on_c, 3, 50, 0
8, 137520, Note_on_c, 3, 49, 64
8, 137636, Note_on_c, 3, 49, 0
8, 137640, Note_on_c, 3, 47, 64
8, 137756, Note_on_c, 3, 47, 0
8, 137760, Note_on_c, 3, 46, 64
8, 137996, Note_on_c, 3, 46, 0
8, 138000, Note_on_c, 3, 42, 64
8, 138236, Note_on_c, 3, 42, 0
8, 138240, Note_on_c, 3, 47, 64
8, 138476, Note_on_c, 3, 47, 0
8, 138480, Note_on_c, 3, 59, 64
8, 138596, Note_on_c, 3, 59, 0
8, 138600, Note_on_c, 3, 57, 64
8, 138716, Note_on_c, 3, 57, 0
8, 138720, Note_on_c, 3, 55, 64
8, 138956, Note_on_c, 3, 55, 0
8, 138960, Note_on_c, 3, 54, 64
8, 139076, Note_on_c, 3, 54, 0
8, 139080, Note_on_c, 3, 52, 64
8, 139196, Note_on_c, 3, 52, 0
8, 139200, Note_on_c, 3, 50, 64
8, 139316, Note_on_c, 3, 50, 0
8, 139320, Note_on_c, 3, 49, 64
8, 139436, Note_on_c, 3, 49, 0
8, 139440, Note_on_c, 3, 50, 64
8, 139556, Note_on_c, 3, 50, 0
8, 139560, Note_on_c, 3, 52, 64
8, 139676, Note_on_c, 3, 52, 0
8, 139680, Note_on_c, 3, 50, 64
8, 139796, Note_on_c, 3, 50, 0
8, 139800, Note_on_c, 3, 52, 64
8, 139916, Note_on_c, 3, 52, 0
8, 139920, Note_on_c, 3, 50, 64
8, 140036, Note_on_c, 3, 50, 0
8, 140040, Note_on_c, 3, 49, 64
8, 140156, Note_on_c, 3, 49, 0
8, 140160, Note_on_c, 3, 47, 64
8, 140396, Note_on_c, 3, 47, 0
8, 140400, Note_on_c, 3, 55, 64
8, 140636, Note_on_c, 3, 55, 0
8, 140640, Note_on_c, 3, 52, 64
8, 140876, Note_on_c, 3, 52, 0
8, 140880, Note_on_c, 3, 54, 64
8, 141116, Note_on_c, 3, 54, 0
8, 141120, Note_on_c, 3, 55, 64
8, 141476, Note_on_c, 3, 55, 0
8, 141480, Note_on_c, 3, 54, 64
8, 141596, Note_on_c, 3, 54, 0
8, 141600, Note_on_c, 3, 52, 64
8, 141716, Note_on_c, 3, 52, 0
8, 141720, Note_on_c, 3, 50, 64
8, 141836, Note_on_c, 3, 50, 0
8, 141840, Note_on_c, 3, 49, 64
8, 141956, Note_on_c, 3, 49, 0
8, 141960, Note_on_c, 3, 47, 64
8, 142076, Note_on_c, 3, 47, 0
8, 142080, Note_on_c, 3, 50, 64
8, 142316, Note_on_c, 3, 50, 0
8, 142320, Note_on_c, 3, 52, 64
8, 142556, Note_on_c, 3, 52, 0
8, 142560, Note_on_c, 3, 54, 64
8, 142796, Note_on_c, 3, 54, 0
8, 142800, Note_on_c, 3, 42, 64
8, 143036, Note_on_c, 3, 42, 0
8, 143040, Note_on_c, 3, 47, 64
8, 143276, Note_on_c, 3, 47, 0
8, 143280, Note_on_c, 3, 59, 64
8, 143396, Note_on_c, 3, 59, 0
8, 143400, Note_on_c, 3, 58, 64
8, 143516, Note_on_c, 3, 58, 0
8, 143520, Note_on_c, 3, 59, 64
8, 143756, Note_on_c, 3, 59, 0
8, 143760, Note_on_c, 3, 62, 64
8, 143876, Note_on_c, 3, 62, 0
8, 143880, Note_on_c, 3, 61, 64
8, 143996, Note_on_c, 3, 61, 0
8, 144000, Note_on_c, 3, 62, 64
8, 144236, Note_on_c, 3, 62, 0
8, 145680, Note_on_c, 3, 47, 64
8, 145796, Note_on_c, 3, 47, 0
8, 145800, Note_on_c, 3, 49, 64
8, 145916, Note_on_c, 3, 49, 0
8, 145920, Note_on_c, 3, 50, 64
8, 146156, Note_on_c, 3, 50, 0
8, 146160, Note_on_c, 3, 55, 64
8, 146276, Note_on_c, 3, 55, 0
8, 146280, Note_on_c, 3, 54, 64
8, 146396, Note_on_c, 3, 54, 0
8, 146400, Note_on_c, 3, 55, 64
8, 146636, Note_on_c, 3, 55, 0
8, 146640, Note_on_c, 3, 49, 64
8, 146756, Note_on_c, 3, 49, 0
8, 146760, Note_on_c, 3, 47, 64
8, 146876, Note_on_c, 3, 47, 0
8, 146880, Note_on_c, 3, 49, 64
8, 147116, Note_on_c, 3, 49, 0
8, 147120, Note_on_c, 3, 54, 64
8, 147236, Note_on_c, 3, 54, 0
8, 147240, Note_on_c, 3, 52, 64
8, 147356, Note_on_c, 3, 52, 0
8, 147360, Note_on_c, 3, 54, 64
8, 147596, Note_on_c, 3, 54, 0
8, 147600, Note_on_c, 3, 47, 64
8, 147716, Note_on_c, 3, 47, 0
8, 147720, Note_on_c, 3, 46, 64
8, 147836, Note_on_c, 3, 46, 0
8, 147840, Note_on_c, 3, 47, 64
8, 148076, Note_on_c, 3, 47, 0
8, 148080, Note_on_c, 3, 52, 64
8, 148316, Note_on_c, 3, 52, 0
8, 148320, Note_on_c, 3, 54, 64
8, 148556, Note_on_c, 3, 54, 0
8, 148560, Note_on_c, 3, 42, 64
8, 148796, Note_on_c, 3, 42, 0
8, 148800, Note_on_c, 3, 47, 64
8, 149036, Note_on_c, 3, 47, 0
8, 149040, Note_on_c, 3, 48, 64
8, 149276, Note_on_c, 3, 48, 0
8, 149280, Note_on_c, 3, 47, 64
8, 149516, Note_on_c, 3, 47, 0
8, 149520, Note_on_c, 3, 45, 64
8, 149756, Note_on_c, 3, 45, 0
8, 149760, Note_on_c, 3, 43, 64
8, 150236, Note_on_c, 3, 43, 0
8, 153600, Note_on_c, 3, 50, 64
8, 153836, Note_on_c, 3, 50, 0
8, 153840, Note_on_c, 3, 49, 64
8, 154076, Note_on_c, 3, 49, 0
8, 154080, Note_on_c, 3, 50, 64
8, 154316, Note_on_c, 3, 50, 0
8, 154320, Note_on_c, 3, 52, 64
8, 154556, Note_on_c, 3, 52, 0
8, 154560, Note_on_c, 3, 54, 64
8, 154796, Note_on_c, 3, 54, 0
8, 154800, Note_on_c, 3, 55, 64
8, 155036, Note_on_c, 3, 55, 0
8, 155040, Note_on_c, 3, 54, 64
8, 155276, Note_on_c, 3, 54, 0
8, 155280, Note_on_c, 3, 52, 64
8, 155516, Note_on_c, 3, 52, 0
8, 155520, Note_on_c, 3, 50, 64
8, 155756, Note_on_c, 3, 50, 0
8, 155760, Note_on_c, 3, 49, 64
8, 155996, Note_on_c, 3, 49, 0
8, 156000, Note_on_c, 3, 47, 64
8, 156236, Note_on_c, 3, 47, 0
8, 156240, Note_on_c, 3, 52, 64
8, 156476, Note_on_c, 3, 52, 0
8, 156480, Note_on_c, 3, 45, 64
8, 156956, Note_on_c, 3, 45, 0
8, 157200, Note_on_c, 3, 45, 64
8, 157436, Note_on_c, 3, 45, 0
8, 157440, Note_on_c, 3, 50, 64
8, 157676, Note_on_c, 3, 50, 0
8, 157680, Note_on_c, 3, 38, 64
8, 157916, Note_on_c, 3, 38, 0
8, 157920, Note_on_c, 3, 42, 64
8, 158156, Note_on_c, 3, 42, 0
8, 158160, Note_on_c, 3, 45, 64
8, 158396, Note_on_c, 3, 45, 0
8, 158400, Note_on_c, 3, 50, 64
8, 158876, Note_on_c, 3, 50, 0
8, 159120, Note_on_c, 3, 50, 64
8, 159356, Note_on_c, 3, 50, 0
8, 159360, Note_on_c, 3, 55, 64
8, 159596, Note_on_c, 3, 55, 0
8, 159600, Note_on_c, 3, 43, 64
8, 159836, Note_on_c, 3, 43, 0
8, 159840, Note_on_c, 3, 47, 64
8, 160076, Note_on_c, 3, 47, 0
8, 160080, Note_on_c, 3, 50, 64
8, 160316, Note_on_c, 3, 50, 0
8, 160320, Note_on_c, 3, 55, 64
8, 160796, Note_on_c, 3, 55, 0
8, 161040, Note_on_c, 3, 47, 64
8, 161276, Note_on_c, 3, 47, 0
8, 161280, Note_on_c, 3, 52, 64
8, 161516, Note_on_c, 3, 52, 0
8, 161520, Note_on_c, 3, 40, 64
8, 161756, Note_on_c, 3, 40, 0
8, 161760, Note_on_c, 3, 43, 64
8, 161996, Note_on_c, 3, 43, 0
8, 162000, Note_on_c, 3, 47, 64
8, 162236, Note_on_c, 3, 47, 0
8, 162240, Note_on_c, 3, 52, 64
8, 162716, Note_on_c, 3, 52, 0
8, 162960, Note_on_c, 3, 43, 64
8, 163196, Note_on_c, 3, 43, 0
8, 163200, Note_on_c, 3, 48, 64
8, 163436, Note_on_c, 3, 48, 0
8, 163440, Note_on_c, 3, 50, 64
8, 163676, Note_on_c, 3, 50, 0
8, 163680, Note_on_c, 3, 43, 64
8, 163916, Note_on_c, 3, 43, 0
8, 163920, Note_on_c, 3, 48, 64
8, 164156, Note_on_c, 3, 48, 0
8, 164160, Note_on_c, 3, 50, 64
8, 164396, Note_on_c, 3, 50, 0
8, 164400, Note_on_c, 3, 48, 64
8, 164636, Note_on_c, 3, 48, 0
8, 164640, Note_on_c, 3, 47, 64
8, 164876, Note_on_c, 3, 47, 0
8, 164880, Note_on_c, 3, 45, 64
8, 165116, Note_on_c, 3, 45, 0
8, 165120, Note_on_c, 3, 43, 64
8, 165356, Note_on_c, 3, 43, 0
8, 165360, Note_on_c, 3, 55, 64
8, 165596, Note_on_c, 3, 55, 0
8, 165600, Note_on_c, 3, 55, 64
8, 165836, Note_on_c, 3, 55, 0
8, 165840, Note_on_c, 3, 43, 64
8, 166076, Note_on_c, 3, 43, 0
8, 166080, Note_on_c, 3, 43, 64
8, 166316, Note_on_c, 3, 43, 0
8, 166320, Note_on_c, 3, 55, 64
8, 166556, Note_on_c, 3, 55, 0
8, 166560, Note_on_c, 3, 55, 64
8, 166796, Note_on_c, 3, 55, 0
8, 166800, Note_on_c, 3, 43, 64
8, 167036, Note_on_c, 3, 43, 0
8, 167040, Note_on_c, 3, 43, 64
8, 167276, Note_on_c, 3, 43, 0
8, 167280, Note_on_c, 3, 55, 64
8, 167396, Note_on_c, 3, 55, 0
8, 167400, Note_on_c, 3, 54, 64
8, 167516, Note_on_c, 3, 54, 0
8, 167520, Note_on_c, 3, 52, 64
8, 167756, Note_on_c, 3, 52, 0
8, 167760, Note_on_c, 3, 57, 64
8, 167996, Note_on_c, 3, 57, 0
8, 168000, Note_on_c, 3, 62, 64
8, 168236, Note_on_c, 3, 62, 0
8, 168240, Note_on_c, 3, 60, 64
8, 168476, Note_on_c, 3, 60, 0
8, 168480, Note_on_c, 3, 59, 64
8, 168716, Note_on_c, 3, 59, 0
8, 168720, Note_on_c, 3, 57, 64
8, 168956, Note_on_c, 3, 57, 0
8, 168960, Note_on_c, 3, 55, 64
8, 169196, Note_on_c, 3, 55, 0
8, 169200, Note_on_c, 3, 53, 64
8, 169436, Note_on_c, 3, 53, 0
8, 169440, Note_on_c, 3, 52, 64
8, 169676, Note_on_c, 3, 52, 0
8, 169680, Note_on_c, 3, 50, 64
8, 169916, Note_on_c, 3, 50, 0
8, 169920, Note_on_c, 3, 60, 64
8, 170156, Note_on_c, 3, 60, 0
8, 170160, Note_on_c, 3, 58, 64
8, 170396, Note_on_c, 3, 58, 0
8, 170400, Note_on_c, 3, 57, 64
8, 170636, Note_on_c, 3, 57, 0
8, 170640, Note_on_c, 3, 55, 64
8, 170876, Note_on_c, 3, 55, 0
8, 170880, Note_on_c, 3, 54, 64
8, 171116, Note_on_c, 3, 54, 0
8, 171120, Note_on_c, 3, 52, 64
8, 171356, Note_on_c, 3, 52, 0
8, 171360, Note_on_c, 3, 50, 64
8, 171596, Note_on_c, 3, 50, 0
8, 171600, Note_on_c, 3, 49, 64
8, 171836, Note_on_c, 3, 49, 0
8, 171840, Note_on_c, 3, 59, 64
8, 172076, Note_on_c, 3, 59, 0
8, 172080, Note_on_c, 3, 57, 64
8, 172316, Note_on_c, 3, 57, 0
8, 172320, Note_on_c, 3, 55, 64
8, 172556, Note_on_c, 3, 55, 0
8, 172560, Note_on_c, 3, 54, 64
8, 172796, Note_on_c, 3, 54, 0
8, 172800, Note_on_c, 3, 52, 64
8, 173036, Note_on_c, 3, 52, 0
8, 173040, Note_on_c, 3, 50, 64
8, 173276, Note_on_c, 3, 50, 0
8, 173280, Note_on_c, 3, 48, 64
8, 173516, Note_on_c, 3, 48, 0
8, 173520, Note_on_c, 3, 47, 64
8, 173756, Note_on_c, 3, 47, 0
8, 173760, Note_on_c, 3, 45, 64
8, 173996, Note_on_c, 3, 45, 0
8, 174000, Note_on_c, 3, 43, 64
8, 174236, Note_on_c, 3, 43, 0
8, 174240, Note_on_c, 3, 41, 64
8, 174476, Note_on_c, 3, 41, 0
8, 174480, Note_on_c, 3, 40, 64
8, 174716, Note_on_c, 3, 40, 0
8, 174720, Note_on_c, 3, 38, 64
8, 175196, Note_on_c, 3, 38, 0
8, 176640, Note_on_c, 3, 39, 64
8, 177116, Note_on_c, 3, 39, 0
8, 178560, Note_on_c, 3, 40, 64
8, 179036, Note_on_c, 3, 40, 0
8, 180480, Note_on_c, 3, 40, 64
8, 180956, Note_on_c, 3, 40, 0
8, 182400, Note_on_c, 3, 40, 64
8, 182876, Note_on_c, 3, 40, 0
8, 184320, Note_on_c, 3, 40, 64
8, 184796, Note_on_c, 3, 40, 0
8, 186240, Note_on_c, 3, 45, 64
8, 186716, Note_on_c, 3, 45, 0
8, 187920, Note_on_c, 3, 57, 64
8, 188156, Note_on_c, 3, 57, 0
8, 188160, Note_on_c, 3, 43, 64
8, 188396, Note_on_c, 3, 43, 0
8, 189840, Note_on_c, 3, 55, 64
8, 190076, Note_on_c, 3, 55, 0
8, 190080, Note_on_c, 3, 41, 64
8, 190316, Note_on_c, 3, 41, 0
8, 191760, Note_on_c, 3, 53, 64
8, 191996, Note_on_c, 3, 53, 0
8, 192000, Note_on_c, 3, 40, 64
8, 192236, Note_on_c, 3, 40, 0
8, 192240, Note_on_c, 3, 52, 64
8, 192476, Note_on_c, 3, 52, 0
8, 192480, Note_on_c, 3, 52, 64
8, 192716, Note_on_c, 3, 52, 0
8, 192720, Note_on_c, 3, 40, 64
8, 192956, Note_on_c, 3, 40, 0
8, 192960, Note_on_c, 3, 40, 64
8, 193196, Note_on_c, 3, 40, 0
8, 193200, Note_on_c, 3, 52, 64
8, 193436, Note_on_c, 3, 52, 0
8, 193440, Note_on_c, 3, 52, 64
8, 193676, Note_on_c, 3, 52, 0
8, 193680, Note_on_c, 3, 50, 64
8, 193916, Note_on_c, 3, 50, 0
8, 193920, Note_on_c, 3, 48, 64
8, 194156, Note_on_c, 3, 48, 0
8, 194160, Note_on_c, 3, 50, 64
8, 194396, Note_on_c, 3, 50, 0
8, 194400, Note_on_c, 3, 52, 64
8, 194636, Note_on_c, 3, 52, 0
8, 194640, Note_on_c, 3, 40, 64
8, 194876, Note_on_c, 3, 40, 0
8, 194880, Note_on_c, 3, 45, 64
8, 195356, Note_on_c, 3, 45, 0
8, 195600, Note_on_c, 3, 57, 64
8, 195716, Note_on_c, 3, 57, 0
8, 195720, Note_on_c, 3, 56, 64
8, 195836, Note_on_c, 3, 56, 0
8, 195840, Note_on_c, 3, 57, 64
8, 196076, Note_on_c, 3, 57, 0
8, 196080, Note_on_c, 3, 52, 64
8, 196196, Note_on_c, 3, 52, 0
8, 196200, Note_on_c, 3, 50, 64
8, 196316, Note_on_c, 3, 50, 0
8, 196320, Note_on_c, 3, 52, 64
8, 196556, Note_on_c, 3, 52, 0
8, 196560, Note_on_c, 3, 57, 64
8, 196676, Note_on_c, 3, 57, 0
8, 196680, Note_on_c, 3, 56, 64
8, 196796, Note_on_c, 3, 56, 0
8, 196800, Note_on_c, 3, 57, 64
8, 197036, Note_on_c, 3, 57, 0
8, 197040, Note_on_c, 3, 48, 64
8, 197156, Note_on_c, 3, 48, 0
8, 197160, Note_on_c, 3, 47, 64
8, 197276, Note_on_c, 3, 47, 0
8, 197280, Note_on_c, 3, 48, 64
8, 197516, Note_on_c, 3, 48, 0
8, 197520, Note_on_c, 3, 57, 64
8, 197636, Note_on_c, 3, 57, 0
8, 197640, Note_on_c, 3, 56, 64
8, 197756, Note_on_c, 3, 56, 0
8, 197760, Note_on_c, 3, 57, 64
8, 197996, Note_on_c, 3, 57, 0
8, 198000, Note_on_c, 3, 45, 64
8, 198116, Note_on_c, 3, 45, 0
8, 198120, Note_on_c, 3, 47, 64
8, 198236, Note_on_c, 3, 47, 0
8, 198240, Note_on_c, 3, 49, 64
8, 198476, Note_on_c, 3, 49, 0
8, 198480, Note_on_c, 3, 51, 64
8, 198716, Note_on_c, 3, 51, 0
8, 198720, Note_on_c, 3, 52, 64
8, 198956, Note_on_c, 3, 52, 0
8, 198960, Note_on_c, 3, 40, 64
8, 199196, Note_on_c, 3, 40, 0
8, 199440, Note_on_c, 3, 52, 64
8, 199556, Note_on_c, 3, 52, 0
8, 199560, Note_on_c, 3, 51, 64
8, 199676, Note_on_c, 3, 51, 0
8, 199680, Note_on_c, 3, 52, 64
8, 199916, Note_on_c, 3, 52, 0
8, 199920, Note_on_c, 3, 47, 64
8, 200036, Note_on_c, 3, 47, 0
8, 200040, Note_on_c, 3, 45, 64
8, 200156, Note_on_c, 3, 45, 0
8, 200160, Note_on_c, 3, 47, 64
8, 200396, Note_on_c, 3, 47, 0
8, 200400, Note_on_c, 3, 52, 64
8, 200516, Note_on_c, 3, 52, 0
8, 200520, Note_on_c, 3, 51, 64
8, 200636, Note_on_c, 3, 51, 0
8, 200640, Note_on_c, 3, 52, 64
8, 200876, Note_on_c, 3, 52, 0
8, 200880, Note_on_c, 3, 43, 64
8, 200996, Note_on_c, 3, 43, 0
8, 201000, Note_on_c, 3, 42, 64
8, 201116, Note_on_c, 3, 42, 0
8, 201120, Note_on_c, 3, 43, 64
8, 201356, Note_on_c, 3, 43, 0
8, 201360, Note_on_c, 3, 52, 64
8, 201476, Note_on_c, 3, 52, 0
8, 201480, Note_on_c, 3, 51, 64
8, 201596, Note_on_c, 3, 51, 0
8, 201600, Note_on_c, 3, 52, 64
8, 201836, Note_on_c, 3, 52, 0
8, 201840, Note_on_c, 3, 40, 64
8, 201956, Note_on_c, 3, 40, 0
8, 201960, Note_on_c, 3, 42, 64
8, 202076, Note_on_c, 3, 42, 0
8, 202080, Note_on_c, 3, 43, 64
8, 202316, Note_on_c, 3, 43, 0
8, 202320, Note_on_c, 3, 45, 64
8, 202556, Note_on_c, 3, 45, 0
8, 202560, Note_on_c, 3, 47, 64
8, 202676, Note_on_c, 3, 47, 0
8, 202680, Note_on_c, 3, 45, 64
8, 202796, Note_on_c, 3, 45, 0
8, 202800, Note_on_c, 3, 47, 64
8, 202916, Note_on_c, 3, 47, 0
8, 202920, Note_on_c, 3, 48, 64
8, 203036, Note_on_c, 3, 48, 0
8, 203040, Note_on_c, 3, 47, 64
8, 203156, Note_on_c, 3, 47, 0
8, 203160, Note_on_c, 3, 48, 64
8, 203276, Note_on_c, 3, 48, 0
8, 203280, Note_on_c, 3, 47, 64
8, 203396, Note_on_c, 3, 47, 0
8, 203400, Note_on_c, 3, 45, 64
8, 203516, Note_on_c, 3, 45, 0
8, 203520, Note_on_c, 3, 43, 64
8, 203996, Note_on_c, 3, 43, 0
8, 204240, Note_on_c, 3, 50, 64
8, 204476, Note_on_c, 3, 50, 0
8, 204480, Note_on_c, 3, 55, 64
8, 204596, Note_on_c, 3, 55, 0
8, 204600, Note_on_c, 3, 54, 64
8, 204716, Note_on_c, 3, 54, 0
8, 204720, Note_on_c, 3, 55, 64
8, 204836, Note_on_c, 3, 55, 0
8, 204840, Note_on_c, 3, 57, 64
8, 204956, Note_on_c, 3, 57, 0
8, 204960, Note_on_c, 3, 55, 64
8, 205076, Note_on_c, 3, 55, 0
8, 205080, Note_on_c, 3, 59, 64
8, 205196, Note_on_c, 3, 59, 0
8, 205200, Note_on_c, 3, 57, 64
8, 205316, Note_on_c, 3, 57, 0
8, 205320, Note_on_c, 3, 60, 64
8, 205436, Note_on_c, 3, 60, 0
8, 205440, Note_on_c, 3, 59, 64
8, 205556, Note_on_c, 3, 59, 0
8, 205560, Note_on_c, 3, 60, 64
8, 205676, Note_on_c, 3, 60, 0
8, 205680, Note_on_c, 3, 59, 64
8, 205796, Note_on_c, 3, 59, 0
8, 205800, Note_on_c, 3, 57, 64
8, 205916, Note_on_c, 3, 57, 0
8, 205920, Note_on_c, 3, 55, 64
8, 206036, Note_on_c, 3, 55, 0
8, 206040, Note_on_c, 3, 59, 64
8, 206156, Note_on_c, 3, 59, 0
8, 206160, Note_on_c, 3, 57, 64
8, 206276, Note_on_c, 3, 57, 0
8, 206280, Note_on_c, 3, 55, 64
8, 206396, Note_on_c, 3, 55, 0
8, 206400, Note_on_c, 3, 54, 64
8, 206516, Note_on_c, 3, 54, 0
8, 206520, Note_on_c, 3, 59, 64
8, 206636, Note_on_c, 3, 59, 0
8, 206640, Note_on_c, 3, 57, 64
8, 206756, Note_on_c, 3, 57, 0
8, 206760, Note_on_c, 3, 55, 64
8, 206876, Note_on_c, 3, 55, 0
8, 206880, Note_on_c, 3, 54, 64
8, 206996, Note_on_c, 3, 54, 0
8, 207000, Note_on_c, 3, 55, 64
8, 207116, Note_on_c, 3, 55, 0
8, 207120, Note_on_c, 3, 54, 64
8, 207236, Note_on_c, 3, 54, 0
8, 207240, Note_on_c, 3, 52, 64
8, 207356, Note_on_c, 3, 52, 0
8, 207360, Note_on_c, 3, 50, 64
8, 207836, Note_on_c, 3, 50, 0
8, 208320, Note_on_c, 3, 50, 64
8, 208796, Note_on_c, 3, 50, 0
8, 209280, Note_on_c, 3, 43, 64
8, 209756, Note_on_c, 3, 43, 0
8, 210240, Note_on_c, 3, 43, 64
8, 210716, Note_on_c, 3, 43, 0
8, 211200, Note_on_c, 3, 42, 64
8, 211676, Note_on_c, 3, 42, 0
8, 212160, Note_on_c, 3, 42, 64
8, 212636, Note_on_c, 3, 42, 0
8, 213120, Note_on_c, 3, 45, 64
8, 213596, Note_on_c, 3, 45, 0
8, 214080, Note_on_c, 3, 45, 64
8, 214556, Note_on_c, 3, 45, 0
8, 215040, Note_on_c, 3, 42, 64
8, 215516, Note_on_c, 3, 42, 0
8, 216000, Note_on_c, 3, 42, 64
8, 216476, Note_on_c, 3, 42, 0
8, 216960, Note_on_c, 3, 41, 64
8, 217436, Note_on_c, 3, 41, 0
8, 217920, Note_on_c, 3, 41, 64
8, 218396, Note_on_c, 3, 41, 0
8, 218880, Note_on_c, 3, 37, 64
8, 218996, Note_on_c, 3, 37, 0
8, 219000, Note_on_c, 3, 38, 64
8, 219116, Note_on_c, 3, 38, 0
8, 219120, Note_on_c, 3, 37, 64
8, 219236, Note_on_c, 3, 37, 0
8, 219240, Note_on_c, 3, 58, 64
8, 219356, Note_on_c, 3, 58, 0
8, 219360, Note_on_c, 3, 55, 64
8, 219476, Note_on_c, 3, 55, 0
8, 219480, Note_on_c, 3, 52, 64
8, 219596, Note_on_c, 3, 52, 0
8, 219600, Note_on_c, 3, 49, 64
8, 219716, Note_on_c, 3, 49, 0
8, 219720, Note_on_c, 3, 43, 64
8, 219836, Note_on_c, 3, 43, 0
8, 219840, Note_on_c, 3, 37, 64
8, 219956, Note_on_c, 3, 37, 0
8, 219960, Note_on_c, 3, 38, 64
8, 220076, Note_on_c, 3, 38, 0
8, 220080, Note_on_c, 3, 37, 64
8, 220196, Note_on_c, 3, 37, 0
8, 220200, Note_on_c, 3, 58, 64
8, 220316, Note_on_c, 3, 58, 0
8, 220320, Note_on_c, 3, 55, 64
8, 220436, Note_on_c, 3, 55, 0
8, 220440, Note_on_c, 3, 52, 64
8, 220556, Note_on_c, 3, 52, 0
8, 220560, Note_on_c, 3, 49, 64
8, 220676, Note_on_c, 3, 49, 0
8, 220680, Note_on_c, 3, 43, 64
8, 220796, Note_on_c, 3, 43, 0
8, 220800, Note_on_c, 3, 38, 64
8, 220916, Note_on_c, 3, 38, 0
8, 220920, Note_on_c, 3, 39, 64
8, 221036, Note_on_c, 3, 39, 0
8, 221040, Note_on_c, 3, 38, 64
8, 221156, Note_on_c, 3, 38, 0
8, 221160, Note_on_c, 3, 58, 64
8, 221276, Note_on_c, 3, 58, 0
8, 221280, Note_on_c, 3, 55, 64
8, 221396, Note_on_c, 3, 55, 0
8, 221400, Note_on_c, 3, 50, 64
8, 221516, Note_on_c, 3, 50, 0
8, 221520, Note_on_c, 3, 46, 64
8, 221636, Note_on_c, 3, 46, 0
8, 221640, Note_on_c, 3, 43, 64
8, 221756, Note_on_c, 3, 43, 0
8, 221760, Note_on_c, 3, 38, 64
8, 221876, Note_on_c, 3, 38, 0
8, 221880, Note_on_c, 3, 39, 64
8, 221996, Note_on_c, 3, 39, 0
8, 222000, Note_on_c, 3, 38, 64
8, 222116, Note_on_c, 3, 38, 0
8, 222120, Note_on_c, 3, 58, 64
8, 222236, Note_on_c, 3, 58, 0
8, 222240, Note_on_c, 3, 55, 64
8, 222356, Note_on_c, 3, 55, 0
8, 222360, Note_on_c, 3, 50, 64
8, 222476, Note_on_c, 3, 50, 0
8, 222480, Note_on_c, 3, 46, 64
8, 222596, Note_on_c, 3, 46, 0
8, 222600, Note_on_c, 3, 43, 64
8, 222716, Note_on_c, 3, 43, 0
8, 222720, Note_on_c, 3, 38, 64
8, 222836, Note_on_c, 3, 38, 0
8, 222840, Note_on_c, 3, 39, 64
8, 222956, Note_on_c, 3, 39, 0
8, 222960, Note_on_c, 3, 38, 64
8, 223076, Note_on_c, 3, 38, 0
8, 223080, Note_on_c, 3, 61, 64
8, 223196, Note_on_c, 3, 61, 0
8, 223200, Note_on_c, 3, 58, 64
8, 223316, Note_on_c, 3, 58, 0
8, 223320, Note_on_c, 3, 55, 64
8, 223436, Note_on_c, 3, 55, 0
8, 223440, Note_on_c, 3, 52, 64
8, 223556, Note_on_c, 3, 52, 0
8, 223560, Note_on_c, 3, 49, 64
8, 223676, Note_on_c, 3, 49, 0
8, 223680, Note_on_c, 3, 38, 64
8, 223796, Note_on_c, 3, 38, 0
8, 223800, Note_on_c, 3, 39, 64
8, 223916, Note_on_c, 3, 39, 0
8, 223920, Note_on_c, 3, 38, 64
8, 224036, Note_on_c, 3, 38, 0
8, 224040, Note_on_c, 3, 61, 64
8, 224156, Note_on_c, 3, 61, 0
8, 224160, Note_on_c, 3, 58, 64
8, 224276, Note_on_c, 3, 58, 0
8, 224280, Note_on_c, 3, 55, 64
8, 224396, Note_on_c, 3, 55, 0
8, 224400, Note_on_c, 3, 52, 64
8, 224516, Note_on_c, 3, 52, 0
8, 224520, Note_on_c, 3, 49, 64
8, 224636, Note_on_c, 3, 49, 0
8, 224640, Note_on_c, 3, 38, 64
8, 224756, Note_on_c, 3, 38, 0
8, 224760, Note_on_c, 3, 39, 64
8, 224876, Note_on_c, 3, 39, 0
8, 224880, Note_on_c, 3, 38, 64
8, 224996, Note_on_c, 3, 38, 0
8, 225000, Note_on_c, 3, 62, 64
8, 225116, Note_on_c, 3, 62, 0
8, 225120, Note_on_c, 3, 58, 64
8, 225236, Note_on_c, 3, 58, 0
8, 225240, Note_on_c, 3, 55, 64
8, 225356, Note_on_c, 3, 55, 0
8, 225360, Note_on_c, 3, 50, 64
8, 225476, Note_on_c, 3, 50, 0
8, 225480, Note_on_c, 3, 46, 64
8, 225596, Note_on_c, 3, 46, 0
8, 225600, Note_on_c, 3, 38, 64
8, 225716, Note_on_c, 3, 38, 0
8, 225720, Note_on_c, 3, 39, 64
8, 225836, Note_on_c, 3, 39, 0
8, 225840, Note_on_c, 3, 38, 64
8, 225956, Note_on_c, 3, 38, 0
8, 225960, Note_on_c, 3, 62, 64
8, 226076, Note_on_c, 3, 62, 0
8, 226080, Note_on_c, 3, 58, 64
8, 226196, Note_on_c, 3, 58, 0
8, 226200, Note_on_c, 3, 55, 64
8, 226316, Note_on_c, 3, 55, 0
8, 226320, Note_on_c, 3, 50, 64
8, 226436, Note_on_c, 3, 50, 0
8, 226440, Note_on_c, 3, 46, 64
8, 226556, Note_on_c, 3, 46, 0
8, 226560, Note_on_c, 3, 38, 64
8, 226676, Note_on_c, 3, 38, 0
8, 226680, Note_on_c, 3, 39, 64
8, 226796, Note_on_c, 3, 39, 0
8, 226800, Note_on_c, 3, 38, 64
8, 226916, Note_on_c, 3, 38, 0
8, 226920, Note_on_c, 3, 63, 64
8, 227036, Note_on_c, 3, 63, 0
8, 227040, Note_on_c, 3, 60, 64
8, 227156, Note_on_c, 3, 60, 0
8, 227160, Note_on_c, 3, 57, 64
8, 227276, Note_on_c, 3, 57, 0
8, 227280, Note_on_c, 3, 54, 64
8, 227396, Note_on_c, 3, 54, 0
8, 227400, Note_on_c, 3, 50, 64
8, 227516, Note_on_c, 3, 50, 0
8, 227520, Note_on_c, 3, 38, 64
8, 227636, Note_on_c, 3, 38, 0
8, 227640, Note_on_c, 3, 39, 64
8, 227756, Note_on_c, 3, 39, 0
8, 227760, Note_on_c, 3, 38, 64
8, 227876, Note_on_c, 3, 38, 0
8, 227880, Note_on_c, 3, 63, 64
8, 227996, Note_on_c, 3, 63, 0
8, 228000, Note_on_c, 3, 60, 64
8, 228116, Note_on_c, 3, 60, 0
8, 228120, Note_on_c, 3, 57, 64
8, 228236, Note_on_c, 3, 57, 0
8, 228240, Note_on_c, 3, 54, 64
8, 228356, Note_on_c, 3, 54, 0
8, 228360, Note_on_c, 3, 50, 64
8, 228476, Note_on_c, 3, 50, 0
8, 228480, Note_on_c, 3, 43, 64
8, 228716, Note_on_c, 3, 43, 0
8, 230160, Note_on_c, 3, 55, 64
8, 230396, Note_on_c, 3, 55, 0
8, 230400, Note_on_c, 3, 41, 64
8, 230636, Note_on_c, 3, 41, 0
8, 232080, Note_on_c, 3, 53, 64
8, 232316, Note_on_c, 3, 53, 0
8, 232320, Note_on_c, 3, 39, 64
8, 232556, Note_on_c, 3, 39, 0
8, 234000, Note_on_c, 3, 51, 64
8, 234236, Note_on_c, 3, 51, 0
8, 234240, Note_on_c, 3, 38, 64
8, 234716, Note_on_c, 3, 38, 0
8, 234960, Note_on_c, 3, 50, 64
8, 235196, Note_on_c, 3, 50, 0
8, 235200, Note_on_c, 3, 38, 64
8, 235676, Note_on_c, 3, 38, 0
8, 235920, Note_on_c, 3, 50, 64
8, 236156, Note_on_c, 3, 50, 0
8, 236160, Note_on_c, 3, 36, 64
8, 236636, Note_on_c, 3, 36, 0
8, 236880, Note_on_c, 3, 48, 64
8, 237116, Note_on_c, 3, 48, 0
8, 237120, Note_on_c, 3, 46, 64
8, 237236, Note_on_c, 3, 46, 0
8, 237240, Note_on_c, 3, 50, 64
8, 237356, Note_on_c, 3, 50, 0
8, 237360, Note_on_c, 3, 43, 64
8, 237476, Note_on_c, 3, 43, 0
8, 237480, Note_on_c, 3, 45, 64
8, 237596, Note_on_c, 3, 45, 0
8, 237600, Note_on_c, 3, 46, 64
8, 237716, Note_on_c, 3, 46, 0
8, 237720, Note_on_c, 3, 48, 64
8, 237836, Note_on_c, 3, 48, 0
8, 237840, Note_on_c, 3, 50, 64
8, 237956, Note_on_c, 3, 50, 0
8, 237960, Note_on_c, 3, 52, 64
8, 238076, Note_on_c, 3, 52, 0
8, 238080, Note_on_c, 3, 54, 64
8, 238196, Note_on_c, 3, 54, 0
8, 238200, Note_on_c, 3, 57, 64
8, 238316, Note_on_c, 3, 57, 0
8, 238320, Note_on_c, 3, 50, 64
8, 238436, Note_on_c, 3, 50, 0
8, 238440, Note_on_c, 3, 52, 64
8, 238556, Note_on_c, 3, 52, 0
8, 238560, Note_on_c, 3, 54, 64
8, 238676, Note_on_c, 3, 54, 0
8, 238680, Note_on_c, 3, 55, 64
8, 238796, Note_on_c, 3, 55, 0
8, 238800, Note_on_c, 3, 57, 64
8, 238916, Note_on_c, 3, 57, 0
8, 238920, Note_on_c, 3, 58, 64
8, 239036, Note_on_c, 3, 58, 0
8, 239040, Note_on_c, 3, 60, 64
8, 239156, Note_on_c, 3, 60, 0
8, 239160, Note_on_c, 3, 57, 64
8, 239276, Note_on_c, 3, 57, 0
8, 239280, Note_on_c, 3, 54, 64
8, 239396, Note_on_c, 3, 54, 0
8, 239400, Note_on_c, 3, 55, 64
8, 239516, Note_on_c, 3, 55, 0
8, 239520, Note_on_c, 3, 57, 64
8, 239636, Note_on_c, 3, 57, 0
8, 239640, Note_on_c, 3, 58, 64
8, 239756, Note_on_c, 3, 58, 0
8, 239760, Note_on_c, 3, 60, 64
8, 239876, Note_on_c, 3, 60, 0
8, 239880, Note_on_c, 3, 62, 64
8, 239996, Note_on_c, 3, 62, 0
8, 240000, Note_on_c, 3, 63, 64
8, 240356, Note_on_c, 3, 63, 0
8, 240360, Note_on_c, 3, 62, 64
8, 240476, Note_on_c, 3, 62, 0
8, 240480, Note_on_c, 3, 60, 64
8, 240596, Note_on_c, 3, 60, 0
8, 240600, Note_on_c, 3, 58, 64
8, 240716, Note_on_c, 3, 58, 0
8, 240720, Note_on_c, 3, 57, 64
8, 240836, Note_on_c, 3, 57, 0
8, 240840, Note_on_c, 3, 55, 64
8, 240956, Note_on_c, 3, 55, 0
8, 240960, Note_on_c, 3, 54, 64
8, 241196, Note_on_c, 3, 54, 0
8, 241200, Note_on_c, 3, 57, 64
8, 241436, Note_on_c, 3, 57, 0
8, 241440, Note_on_c, 3, 62, 64
8, 241676, Note_on_c, 3, 62, 0
8, 241680, Note_on_c, 3, 50, 64
8, 241916, Note_on_c, 3, 50, 0
8, 241920, Note_on_c, 3, 43, 64
8, 242156, Note_on_c, 3, 43, 0
8, 242160, Note_on_c, 3, 55, 64
8, 242396, Note_on_c, 3, 55, 0
8, 242400, Note_on_c, 3, 55, 64
8, 242636, Note_on_c, 3, 55, 0
8, 242640, Note_on_c, 3, 43, 64
8, 242876, Note_on_c, 3, 43, 0
8, 242880, Note_on_c, 3, 43, 64
8, 243116, Note_on_c, 3, 43, 0
8, 243120, Note_on_c, 3, 55, 64
8, 243356, Note_on_c, 3, 55, 0
8, 243360, Note_on_c, 3, 55, 64
8, 243596, Note_on_c, 3, 55, 0
8, 243600, Note_on_c, 3, 43, 64
8, 243836, Note_on_c, 3, 43, 0
8, 243840, Note_on_c, 3, 43, 64
8, 244076, Note_on_c, 3, 43, 0
8, 244080, Note_on_c, 3, 55, 64
8, 244196, Note_on_c, 3, 55, 0
8, 244200, Note_on_c, 3, 54, 64
8, 244316, Note_on_c, 3, 54, 0
8, 244320, Note_on_c, 3, 52, 64
8, 244556, Note_on_c, 3, 52, 0
8, 244560, Note_on_c, 3, 57, 64
8, 244796, Note_on_c, 3, 57, 0
8, 244800, Note_on_c, 3, 50, 64
8, 245036, Note_on_c, 3, 50, 0
8, 245040, Note_on_c, 3, 62, 64
8, 245156, Note_on_c, 3, 62, 0
8, 245160, Note_on_c, 3, 61, 64
8, 245276, Note_on_c, 3, 61, 0
8, 245280, Note_on_c, 3, 62, 64
8, 245516, Note_on_c, 3, 62, 0
8, 245520, Note_on_c, 3, 50, 64
8, 245756, Note_on_c, 3, 50, 0
8, 245760, Note_on_c, 3, 50, 64
8, 245996, Note_on_c, 3, 50, 0
8, 246000, Note_on_c, 3, 62, 64
8, 246116, Note_on_c, 3, 62, 0
8, 246120, Note_on_c, 3, 61, 64
8, 246236, Note_on_c, 3, 61, 0
8, 246240, Note_on_c, 3, 62, 64
8, 246476, Note_on_c, 3, 62, 0
8, 246480, Note_on_c, 3, 50, 64
8, 246716, Note_on_c, 3, 50, 0
8, 246720, Note_on_c, 3, 50, 64
8, 246956, Note_on_c, 3, 50, 0
8, 246960, Note_on_c, 3, 62, 64
8, 247076, Note_on_c, 3, 62, 0
8, 247080, Note_on_c, 3, 61, 64
8, 247196, Note_on_c, 3, 61, 0
8, 247200, Note_on_c, 3, 62, 64
8, 247436, Note_on_c, 3, 62, 0
8, 247440, Note_on_c, 3, 54, 64
8, 247676, Note_on_c, 3, 54, 0
8, 247680, Note_on_c, 3, 55, 64
8, 247916, Note_on_c, 3, 55, 0
8, 247920, Note_on_c, 3, 52, 64
8, 248156, Note_on_c, 3, 52, 0
8, 248160, Note_on_c, 3, 48, 64
8, 248396, Note_on_c, 3, 48, 0
8, 248400, Note_on_c, 3, 50, 64
8, 248636, Note_on_c, 3, 50, 0
8, 248640, Note_on_c, 3, 52, 64
8, 248876, Note_on_c, 3, 52, 0
8, 248880, Note_on_c, 3, 50, 64
8, 248996, Note_on_c, 3, 50, 0
8, 249000, Note_on_c, 3, 48, 64
8, 249116, Note_on_c, 3, 48, 0
8, 249120, Note_on_c, 3, 47, 64
8, 249356, Note_on_c, 3, 47, 0
8, 249360, Note_on_c, 3, 45, 64
8, 249476, Note_on_c, 3, 45, 0
8, 249480, Note_on_c, 3, 43, 64
8, 249596, Note_on_c, 3, 43, 0
8, 249600, Note_on_c, 3, 48, 64
8, 249836, Note_on_c, 3, 48, 0
8, 249840, Note_on_c, 3, 47, 64
8, 249956, Note_on_c, 3, 47, 0
8, 249960, Note_on_c, 3, 45, 64
8, 250076, Note_on_c, 3, 45, 0
8, 250080, Note_on_c, 3, 43, 64
8, 250316, Note_on_c, 3, 43, 0
8, 250320, Note_on_c, 3, 55, 64
8, 250436, Note_on_c, 3, 55, 0
8, 250440, Note_on_c, 3, 54, 64
8, 250556, Note_on_c, 3, 54, 0
8, 250560, Note_on_c, 3, 52, 64
8, 250796, Note_on_c, 3, 52, 0
8, 250800, Note_on_c, 3, 50, 64
8, 250916, Note_on_c, 3, 50, 0
8, 250920, Note_on_c, 3, 48, 64
8, 251036, Note_on_c, 3, 48, 0
8, 251040, Note_on_c, 3, 47, 64
8, 251276, Note_on_c, 3, 47, 0
8, 251280, Note_on_c, 3, 49, 64
8, 251516, Note_on_c, 3, 49, 0
8, 251520, Note_on_c, 3, 50, 64
8, 251756, Note_on_c, 3, 50, 0
8, 251760, Note_on_c, 3, 38, 64
8, 251996, Note_on_c, 3, 38, 0
8, 252000, Note_on_c, 3, 38, 64
8, 252236, Note_on_c, 3, 38, 0
8, 252240, Note_on_c, 3, 50, 64
8, 252356, Note_on_c, 3, 50, 0
8, 252360, Note_on_c, 3, 52, 64
8, 252476, Note_on_c, 3, 52, 0
8, 252480, Note_on_c, 3, 54, 64
8, 252716, Note_on_c, 3, 54, 0
8, 252720, Note_on_c, 3, 55, 64
8, 252956, Note_on_c, 3, 55, 0
8, 252960, Note_on_c, 3, 57, 64
8, 253196, Note_on_c, 3, 57, 0
8, 253200, Note_on_c, 3, 54, 64
8, 253436, Note_on_c, 3, 54, 0
8, 253440, Note_on_c, 3, 55, 64
8, 253676, Note_on_c, 3, 55, 0
8, 253680, Note_on_c, 3, 60, 64
8, 253916, Note_on_c, 3, 60, 0
8, 253920, Note_on_c, 3, 62, 64
8, 254156, Note_on_c, 3, 62, 0
8, 254160, Note_on_c, 3, 50, 64
8, 254396, Note_on_c, 3, 50, 0
8, 254400, Note_on_c, 3, 55, 64
8, 254636, Note_on_c, 3, 55, 0
8, 254640, Note_on_c, 3, 55, 64
8, 254756, Note_on_c, 3, 55, 0
8, 254760, Note_on_c, 3, 54, 64
8, 254876, Note_on_c, 3, 54, 0
8, 254880, Note_on_c, 3, 55, 64
8, 255116, Note_on_c, 3, 55, 0
8, 255120, Note_on_c, 3, 59, 64
8, 255236, Note_on_c, 3, 59, 0
8, 255240, Note_on_c, 3, 57, 64
8, 255356, Note_on_c, 3, 57, 0
8, 255360, Note_on_c, 3, 59, 64
8, 255596, Note_on_c, 3, 59, 0
8, 259920, Note_on_c, 3, 50, 64
8, 260156, Note_on_c, 3, 50, 0
8, 260160, Note_on_c, 3, 55, 64
8, 260396, Note_on_c, 3, 55, 0
8, 260400, Note_on_c, 3, 54, 64
8, 260516, Note_on_c, 3, 54, 0
8, 260520, Note_on_c, 3, 52, 64
8, 260636, Note_on_c, 3, 52, 0
8, 260640, Note_on_c, 3, 50, 64
8, 260756, Note_on_c, 3, 50, 0
8, 260760, Note_on_c, 3, 48, 64
8, 260876, Note_on_c, 3, 48, 0
8, 260880, Note_on_c, 3, 47, 64
8, 260996, Note_on_c, 3, 47, 0
8, 261000, Note_on_c, 3, 45, 64
8, 261116, Note_on_c, 3, 45, 0
8, 261120, Note_on_c, 3, 47, 64
8, 261356, Note_on_c, 3, 47, 0
8, 261360, Note_on_c, 3, 45, 64
8, 261476, Note_on_c, 3, 45, 0
8, 261480, Note_on_c, 3, 43, 64
8, 261596, Note_on_c, 3, 43, 0
8, 261600, Note_on_c, 3, 50, 64
8, 261836, Note_on_c, 3, 50, 0
8, 261840, Note_on_c, 3, 38, 64
8, 262076, Note_on_c, 3, 38, 0
8, 262080, Note_on_c, 3, 43, 64
8, 263036, Note_on_c, 3, 43, 0
8, 263040, Note_on_c, 3, 48, 64
8, 263996, Note_on_c, 3, 48, 0
8, 264000, Note_on_c, 3, 47, 64
8, 264956, Note_on_c, 3, 47, 0
8, 269280, Note_on_c, 3, 55, 64
8, 269396, Note_on_c, 3, 55, 0
8, 269400, Note_on_c, 3, 54, 64
8, 269516, Note_on_c, 3, 54, 0
8, 269520, Note_on_c, 3, 55, 64
8, 269636, Note_on_c, 3, 55, 0
8, 269640, Note_on_c, 3, 57, 64
8, 269756, Note_on_c, 3, 57, 0
8, 269760, Note_on_c, 3, 59, 64
8, 269876, Note_on_c, 3, 59, 0
8, 269880, Note_on_c, 3, 60, 64
8, 269996, Note_on_c, 3, 60, 0
8, 270000, Note_on_c, 3, 62, 64
8, 270116, Note_on_c, 3, 62, 0
8, 270120, Note_on_c, 3, 64, 64
8, 270236, Note_on_c, 3, 64, 0
8, 270240, Note_on_c, 3, 62, 64
8, 270356, Note_on_c, 3, 62, 0
8, 270360, Note_on_c, 3, 60, 64
8, 270476, Note_on_c, 3, 60, 0
8, 270480, Note_on_c, 3, 59, 64
8, 270596, Note_on_c, 3, 59, 0
8, 270600, Note_on_c, 3, 57, 64
8, 270716, Note_on_c, 3, 57, 0
8, 270720, Note_on_c, 3, 55, 64
8, 270836, Note_on_c, 3, 55, 0
8, 270840, Note_on_c, 3, 54, 64
8, 270956, Note_on_c, 3, 54, 0
8, 270960, Note_on_c, 3, 55, 64
8, 271076, Note_on_c, 3, 55, 0
8, 271080, Note_on_c, 3, 57, 64
8, 271196, Note_on_c, 3, 57, 0
8, 271200, Note_on_c, 3, 59, 64
8, 271316, Note_on_c, 3, 59, 0
8, 271320, Note_on_c, 3, 55, 64
8, 271436, Note_on_c, 3, 55, 0
8, 271440, Note_on_c, 3, 60, 64
8, 271556, Note_on_c, 3, 60, 0
8, 271560, Note_on_c, 3, 62, 64
8, 271676, Note_on_c, 3, 62, 0
8, 271680, Note_on_c, 3, 60, 64
8, 271796, Note_on_c, 3, 60, 0
8, 271800, Note_on_c, 3, 59, 64
8, 271916, Note_on_c, 3, 59, 0
8, 271920, Note_on_c, 3, 57, 64
8, 272036, Note_on_c, 3, 57, 0
8, 272040, Note_on_c, 3, 55, 64
8, 272156, Note_on_c, 3, 55, 0
8, 272160, Note_on_c, 3, 54, 64
8, 272276, Note_on_c, 3, 54, 0
8, 272280, Note_on_c, 3, 52, 64
8, 272396, Note_on_c, 3, 52, 0
8, 272400, Note_on_c, 3, 54, 64
8, 272516, Note_on_c, 3, 54, 0
8, 272520, Note_on_c, 3, 55, 64
8, 272636, Note_on_c, 3, 55, 0
8, 272640, Note_on_c, 3, 57, 64
8, 272756, Note_on_c, 3, 57, 0
8, 272760, Note_on_c, 3, 54, 64
8, 272876, Note_on_c, 3, 54, 0
8, 272880, Note_on_c, 3, 59, 64
8, 272996, Note_on_c, 3, 59, 0
8, 273000, Note_on_c, 3, 61, 64
8, 273116, Note_on_c, 3, 61, 0
8, 273120, Note_on_c, 3, 59, 64
8, 273236, Note_on_c, 3, 59, 0
8, 273240, Note_on_c, 3, 57, 64
8, 273356, Note_on_c, 3, 57, 0
8, 273360, Note_on_c, 3, 55, 64
8, 273476, Note_on_c, 3, 55, 0
8, 273480, Note_on_c, 3, 54, 64
8, 273596, Note_on_c, 3, 54, 0
8, 273600, Note_on_c, 3, 52, 64
8, 273716, Note_on_c, 3, 52, 0
8, 273720, Note_on_c, 3, 50, 64
8, 273836, Note_on_c, 3, 50, 0
8, 273840, Note_on_c, 3, 52, 64
8, 273956, Note_on_c, 3, 52, 0
8, 273960, Note_on_c, 3, 54, 64
8, 274076, Note_on_c, 3, 54, 0
8, 274080, Note_on_c, 3, 55, 64
8, 274196, Note_on_c, 3, 55, 0
8, 274200, Note_on_c, 3, 52, 64
8, 274316, Note_on_c, 3, 52, 0
8, 274320, Note_on_c, 3, 57, 64
8, 274436, Note_on_c, 3, 57, 0
8, 274440, Note_on_c, 3, 59, 64
8, 274556, Note_on_c, 3, 59, 0
8, 274560, Note_on_c, 3, 57, 64
8, 274676, Note_on_c, 3, 57, 0
8, 274680, Note_on_c, 3, 55, 64
8, 274796, Note_on_c, 3, 55, 0
8, 274800, Note_on_c, 3, 54, 64
8, 274916, Note_on_c, 3, 54, 0
8, 274920, Note_on_c, 3, 52, 64
8, 275036, Note_on_c, 3, 52, 0
8, 275040, Note_on_c, 3, 50, 64
8, 275516, Note_on_c, 3, 50, 0
8, 275760, Note_on_c, 3, 45, 64
8, 276236, Note_on_c, 3, 45, 0
8, 276480, Note_on_c, 3, 38, 64
8, 276956, Note_on_c, 3, 38, 0
8, 277200, Note_on_c, 3, 45, 64
8, 277676, Note_on_c, 3, 45, 0
8, 277920, Note_on_c, 3, 50, 64
8, 278156, Note_on_c, 3, 50, 0
8, 278160, Note_on_c, 3, 54, 64
8, 278396, Note_on_c, 3, 54, 0
8, 278400, Note_on_c, 3, 57, 64
8, 278636, Note_on_c, 3, 57, 0
8, 278640, Note_on_c, 3, 45, 64
8, 278876, Note_on_c, 3, 45, 0
8, 278880, Note_on_c, 3, 52, 64
8, 279116, Note_on_c, 3, 52, 0
8, 279120, Note_on_c, 3, 57, 64
8, 279356, Note_on_c, 3, 57, 0
8, 279360, Note_on_c, 3, 50, 64
8, 279476, Note_on_c, 3, 50, 0
8, 279480, Note_on_c, 3, 49, 64
8, 279596, Note_on_c, 3, 49, 0
8, 279600, Note_on_c, 3, 50, 64
8, 279716, Note_on_c, 3, 50, 0
8, 279720, Note_on_c, 3, 52, 64
8, 279836, Note_on_c, 3, 52, 0
8, 279840, Note_on_c, 3, 54, 64
8, 279956, Note_on_c, 3, 54, 0
8, 279960, Note_on_c, 3, 55, 64
8, 280076, Note_on_c, 3, 55, 0
8, 280080, Note_on_c, 3, 57, 64
8, 280196, Note_on_c, 3, 57, 0
8, 280200, Note_on_c, 3, 59, 64
8, 280316, Note_on_c, 3, 59, 0
8, 280320, Note_on_c, 3, 57, 64
8, 280436, Note_on_c, 3, 57, 0
8, 280440, Note_on_c, 3, 55, 64
8, 280556, Note_on_c, 3, 55, 0
8, 280560, Note_on_c, 3, 54, 64
8, 280676, Note_on_c, 3, 54, 0
8, 280680, Note_on_c, 3, 52, 64
8, 280796, Note_on_c, 3, 52, 0
8, 280800, Note_on_c, 3, 50, 64
8, 280916, Note_on_c, 3, 50, 0
8, 280920, Note_on_c, 3, 49, 64
8, 281036, Note_on_c, 3, 49, 0
8, 281040, Note_on_c, 3, 50, 64
8, 281156, Note_on_c, 3, 50, 0
8, 281160, Note_on_c, 3, 52, 64
8, 281276, Note_on_c, 3, 52, 0
8, 281280, Note_on_c, 3, 54, 64
8, 281396, Note_on_c, 3, 54, 0
8, 281400, Note_on_c, 3, 50, 64
8, 281516, Note_on_c, 3, 50, 0
8, 281520, Note_on_c, 3, 55, 64
8, 281636, Note_on_c, 3, 55, 0
8, 281640, Note_on_c, 3, 57, 64
8, 281756, Note_on_c, 3, 57, 0
8, 281760, Note_on_c, 3, 55, 64
8, 281876, Note_on_c, 3, 55, 0
8, 281880, Note_on_c, 3, 54, 64
8, 281996, Note_on_c, 3, 54, 0
8, 282000, Note_on_c, 3, 52, 64
8, 282116, Note_on_c, 3, 52, 0
8, 282120, Note_on_c, 3, 50, 64
8, 282236, Note_on_c, 3, 50, 0
8, 282240, Note_on_c, 3, 49, 64
8, 282356, Note_on_c, 3, 49, 0
8, 282360, Note_on_c, 3, 47, 64
8, 282476, Note_on_c, 3, 47, 0
8, 282480, Note_on_c, 3, 49, 64
8, 282596, Note_on_c, 3, 49, 0
8, 282600, Note_on_c, 3, 50, 64
8, 282716, Note_on_c, 3, 50, 0
8, 282720, Note_on_c, 3, 52, 64
8, 282836, Note_on_c, 3, 52, 0
8, 282840, Note_on_c, 3, 49, 64
8, 282956, Note_on_c, 3, 49, 0
8, 282960, Note_on_c, 3, 54, 64
8, 283076, Note_on_c, 3, 54, 0
8, 283080, Note_on_c, 3, 55, 64
8, 283196, Note_on_c, 3, 55, 0
8, 283200, Note_on_c, 3, 54, 64
8, 283316, Note_on_c, 3, 54, 0
8, 283320, Note_on_c, 3, 52, 64
8, 283436, Note_on_c, 3, 52, 0
8, 283440, Note_on_c, 3, 50, 64
8, 283556, Note_on_c, 3, 50, 0
8, 283560, Note_on_c, 3, 49, 64
8, 283676, Note_on_c, 3, 49, 0
8, 283680, Note_on_c, 3, 47, 64
8, 283796, Note_on_c, 3, 47, 0
8, 283800, Note_on_c, 3, 45, 64
8, 283916, Note_on_c, 3, 45, 0
8, 283920, Note_on_c, 3, 47, 64
8, 284036, Note_on_c, 3, 47, 0
8, 284040, Note_on_c, 3, 49, 64
8, 284156, Note_on_c, 3, 49, 0
8, 284160, Note_on_c, 3, 50, 64
8, 284276, Note_on_c, 3, 50, 0
8, 284280, Note_on_c, 3, 47, 64
8, 284396, Note_on_c, 3, 47, 0
8, 284400, Note_on_c, 3, 52, 64
8, 284516, Note_on_c, 3, 52, 0
8, 284520, Note_on_c, 3, 54, 64
8, 284636, Note_on_c, 3, 54, 0
8, 284640, Note_on_c, 3, 52, 64
8, 284756, Note_on_c, 3, 52, 0
8, 284760, Note_on_c, 3, 50, 64
8, 284876, Note_on_c, 3, 50, 0
8, 284880, Note_on_c, 3, 49, 64
8, 284996, Note_on_c, 3, 49, 0
8, 285000, Note_on_c, 3, 47, 64
8, 285116, Note_on_c, 3, 47, 0
8, 285120, Note_on_c, 3, 45, 64
8, 285356, Note_on_c, 3, 45, 0
8, 285360, Note_on_c, 3, 45, 64
8, 285596, Note_on_c, 3, 45, 0
8, 285600, Note_on_c, 3, 45, 64
8, 285836, Note_on_c, 3, 45, 0
8, 285840, Note_on_c, 3, 45, 64
8, 286076, Note_on_c, 3, 45, 0
8, 286080, Note_on_c, 3, 45, 64
8, 286316, Note_on_c, 3, 45, 0
8, 286320, Note_on_c, 3, 45, 64
8, 286556, Note_on_c, 3, 45, 0
8, 286560, Note_on_c, 3, 45, 64
8, 286796, Note_on_c, 3, 45, 0
8, 286800, Note_on_c, 3, 45, 64
8, 287036, Note_on_c, 3, 45, 0
8, 287040, Note_on_c, 3, 45, 64
8, 287276, Note_on_c, 3, 45, 0
8, 287280, Note_on_c, 3, 45, 64
8, 287516, Note_on_c, 3, 45, 0
8, 287520, Note_on_c, 3, 45, 64
8, 287756, Note_on_c, 3, 45, 0
8, 287760, Note_on_c, 3, 45, 64
8, 287996, Note_on_c, 3, 45, 0
8, 288000, Note_on_c, 3, 45, 64
8, 288236, Note_on_c, 3, 45, 0
8, 288240, Note_on_c, 3, 45, 64
8, 288476, Note_on_c, 3, 45, 0
8, 288480, Note_on_c, 3, 45, 64
8, 288716, Note_on_c, 3, 45, 0
8, 288720, Note_on_c, 3, 45, 64
8, 288956, Note_on_c, 3, 45, 0
8, 288960, Note_on_c, 3, 45, 64
8, 289196, Note_on_c, 3, 45, 0
8, 289200, Note_on_c, 3, 45, 64
8, 289436, Note_on_c, 3, 45, 0
8, 289440, Note_on_c, 3, 45, 64
8, 289676, Note_on_c, 3, 45, 0
8, 289680, Note_on_c, 3, 45, 64
8, 289916, Note_on_c, 3, 45, 0
8, 289920, Note_on_c, 3, 45, 64
8, 290156, Note_on_c, 3, 45, 0
8, 290160, Note_on_c, 3, 45, 64
8, 290396, Note_on_c, 3, 45, 0
8, 290400, Note_on_c, 3, 45, 64
8, 290636, Note_on_c, 3, 45, 0
8, 290640, Note_on_c, 3, 45, 64
8, 290876, Note_on_c, 3, 45, 0
8, 290880, Note_on_c, 3, 45, 64
8, 291116, Note_on_c, 3, 45, 0
8, 291120, Note_on_c, 3, 49, 64
8, 291356, Note_on_c, 3, 49, 0
8, 291360, Note_on_c, 3, 52, 64
8, 291596, Note_on_c, 3, 52, 0
8, 291600, Note_on_c, 3, 49, 64
8, 291836, Note_on_c, 3, 49, 0
8, 291840, Note_on_c, 3, 52, 64
8, 292076, Note_on_c, 3, 52, 0
8, 292080, Note_on_c, 3, 57, 64
8, 292316, Note_on_c, 3, 57, 0
8, 292320, Note_on_c, 3, 50, 64
8, 292556, Note_on_c, 3, 50, 0
8, 292560, Note_on_c, 3, 54, 64
8, 292796, Note_on_c, 3, 54, 0
8, 292800, Note_on_c, 3, 57, 64
8, 293036, Note_on_c, 3, 57, 0
8, 293040, Note_on_c, 3, 54, 64
8, 293276, Note_on_c, 3, 54, 0
8, 293280, Note_on_c, 3, 57, 64
8, 293516, Note_on_c, 3, 57, 0
8, 293520, Note_on_c, 3, 62, 64
8, 293756, Note_on_c, 3, 62, 0
8, 293760, Note_on_c, 3, 43, 64
8, 294236, Note_on_c, 3, 43, 0
8, 295200, Note_on_c, 3, 55, 64
8, 295676, Note_on_c, 3, 55, 0
8, 296640, Note_on_c, 3, 54, 64
8, 296876, Note_on_c, 3, 54, 0
8, 296880, Note_on_c, 3, 52, 64
8, 297116, Note_on_c, 3, 52, 0
8, 297120, Note_on_c, 3, 50, 64
8, 297356, Note_on_c, 3, 50, 0
8, 297360, Note_on_c, 3, 57, 64
8, 297836, Note_on_c, 3, 57, 0
8, 297840, Note_on_c, 3, 45, 64
8, 298076, Note_on_c, 3, 45, 0
8, 298080, Note_on_c, 3, 38, 64
8, 299516, Note_on_c, 3, 38, 0
8, 303840, Note_on_c, 3, 55, 64
8, 303956, Note_on_c, 3, 55, 0
8, 303960, Note_on_c, 3, 54, 64
8, 304076, Note_on_c, 3, 54, 0
8, 304080, Note_on_c, 3, 55, 64
8, 304196, Note_on_c, 3, 55, 0
8, 304200, Note_on_c, 3, 57, 64
8, 304316, Note_on_c, 3, 57, 0
8, 304320, Note_on_c, 3, 59, 64
8, 304436, Note_on_c, 3, 59, 0
8, 304440, Note_on_c, 3, 60, 64
8, 304556, Note_on_c, 3, 60, 0
8, 304560, Note_on_c, 3, 62, 64
8, 304676, Note_on_c, 3, 62, 0
8, 304680, Note_on_c, 3, 64, 64
8, 304796, Note_on_c, 3, 64, 0
8, 304800, Note_on_c, 3, 62, 64
8, 304916, Note_on_c, 3, 62, 0
8, 304920, Note_on_c, 3, 60, 64
8, 305036, Note_on_c, 3, 60, 0
8, 305040, Note_on_c, 3, 59, 64
8, 305156, Note_on_c, 3, 59, 0
8, 305160, Note_on_c, 3, 57, 64
8, 305276, Note_on_c, 3, 57, 0
8, 305280, Note_on_c, 3, 55, 64
8, 305396, Note_on_c, 3, 55, 0
8, 305400, Note_on_c, 3, 54, 64
8, 305516, Note_on_c, 3, 54, 0
8, 305520, Note_on_c, 3, 55, 64
8, 305636, Note_on_c, 3, 55, 0
8, 305640, Note_on_c, 3, 57, 64
8, 305756, Note_on_c, 3, 57, 0
8, 305760, Note_on_c, 3, 59, 64
8, 305876, Note_on_c, 3, 59, 0
8, 305880, Note_on_c, 3, 55, 64
8, 305996, Note_on_c, 3, 55, 0
8, 306000, Note_on_c, 3, 60, 64
8, 306116, Note_on_c, 3, 60, 0
8, 306120, Note_on_c, 3, 62, 64
8, 306236, Note_on_c, 3, 62, 0
8, 306240, Note_on_c, 3, 60, 64
8, 306356, Note_on_c, 3, 60, 0
8, 306360, Note_on_c, 3, 59, 64
8, 306476, Note_on_c, 3, 59, 0
8, 306480, Note_on_c, 3, 57, 64
8, 306596, Note_on_c, 3, 57, 0
8, 306600, Note_on_c, 3, 55, 64
8, 306716, Note_on_c, 3, 55, 0
8, 306720, Note_on_c, 3, 54, 64
8, 306836, Note_on_c, 3, 54, 0
8, 306840, Note_on_c, 3, 52, 64
8, 306956, Note_on_c, 3, 52, 0
8, 306960, Note_on_c, 3, 54, 64
8, 307076, Note_on_c, 3, 54, 0
8, 307080, Note_on_c, 3, 55, 64
8, 307196, Note_on_c, 3, 55, 0
8, 307200, Note_on_c, 3, 57, 64
8, 307316, Note_on_c, 3, 57, 0
8, 307320, Note_on_c, 3, 54, 64
8, 307436, Note_on_c, 3, 54, 0
8, 307440, Note_on_c, 3, 59, 64
8, 307556, Note_on_c, 3, 59, 0
8, 307560, Note_on_c, 3, 61, 64
8, 307676, Note_on_c, 3, 61, 0
8, 307680, Note_on_c, 3, 59, 64
8, 307796, Note_on_c, 3, 59, 0
8, 307800, Note_on_c, 3, 57, 64
8, 307916, Note_on_c, 3, 57, 0
8, 307920, Note_on_c, 3, 55, 64
8, 308036, Note_on_c, 3, 55, 0
8, 308040, Note_on_c, 3, 54, 64
8, 308156, Note_on_c, 3, 54, 0
8, 308160, Note_on_c, 3, 52, 64
8, 308276, Note_on_c, 3, 52, 0
8, 308280, Note_on_c, 3, 50, 64
8, 308396, Note_on_c, 3, 50, 0
8, 308400, Note_on_c, 3, 52, 64
8, 308516, Note_on_c, 3, 52, 0
8, 308520, Note_on_c, 3, 54, 64
8, 308636, Note_on_c, 3, 54, 0
8, 308640, Note_on_c, 3, 55, 64
8, 308756, Note_on_c, 3, 55, 0
8, 308760, Note_on_c, 3, 52, 64
8, 308876, Note_on_c, 3, 52, 0
8, 308880, Note_on_c, 3, 57, 64
8, 308996, Note_on_c, 3, 57, 0
8, 309000, Note_on_c, 3, 59, 64
8, 309116, Note_on_c, 3, 59, 0
8, 309120, Note_on_c, 3, 57, 64
8, 309236, Note_on_c, 3, 57, 0
8, 309240, Note_on_c, 3, 55, 64
8, 309356, Note_on_c, 3, 55, 0
8, 309360, Note_on_c, 3, 54, 64
8, 309476, Note_on_c, 3, 54, 0
8, 309480, Note_on_c, 3, 52, 64
8, 309596, Note_on_c, 3, 52, 0
8, 309600, Note_on_c, 3, 50, 64
8, 310076, Note_on_c, 3, 50, 0
8, 310320, Note_on_c, 3, 45, 64
8, 310796, Note_on_c, 3, 45, 0
8, 311040, Note_on_c, 3, 38, 64
8, 311516, Note_on_c, 3, 38, 0
8, 311760, Note_on_c, 3, 45, 64
8, 312236, Note_on_c, 3, 45, 0
8, 312480, Note_on_c, 3, 50, 64
8, 312716, Note_on_c, 3, 50, 0
8, 312720, Note_on_c, 3, 54, 64
8, 312956, Note_on_c, 3, 54, 0
8, 312960, Note_on_c, 3, 57, 64
8, 313196, Note_on_c, 3, 57, 0
8, 313200, Note_on_c, 3, 45, 64
8, 313436, Note_on_c, 3, 45, 0
8, 313440, Note_on_c, 3, 52, 64
8, 313676, Note_on_c, 3, 52, 0
8, 313680, Note_on_c, 3, 57, 64
8, 313916, Note_on_c, 3, 57, 0
8, 313920, Note_on_c, 3, 50, 64
8, 314036, Note_on_c, 3, 50, 0
8, 314040, Note_on_c, 3, 49, 64
8, 314156, Note_on_c, 3, 49, 0
8, 314160, Note_on_c, 3, 50, 64
8, 314276, Note_on_c, 3, 50, 0
8, 314280, Note_on_c, 3, 52, 64
8, 314396, Note_on_c, 3, 52, 0
8, 314400, Note_on_c, 3, 54, 64
8, 314516, Note_on_c, 3, 54, 0
8, 314520, Note_on_c, 3, 55, 64
8, 314636, Note_on_c, 3, 55, 0
8, 314640, Note_on_c, 3, 57, 64
8, 314756, Note_on_c, 3, 57, 0
8, 314760, Note_on_c, 3, 59, 64
8, 314876, Note_on_c, 3, 59, 0
8, 314880, Note_on_c, 3, 57, 64
8, 314996, Note_on_c, 3, 57, 0
8, 315000, Note_on_c, 3, 55, 64
8, 315116, Note_on_c, 3, 55, 0
8, 315120, Note_on_c, 3, 54, 64
8, 315236, Note_on_c, 3, 54, 0
8, 315240, Note_on_c, 3, 52, 64
8, 315356, Note_on_c, 3, 52, 0
8, 315360, Note_on_c, 3, 50, 64
8, 315476, Note_on_c, 3, 50, 0
8, 315480, Note_on_c, 3, 49, 64
8, 315596, Note_on_c, 3, 49, 0
8, 315600, Note_on_c, 3, 50, 64
8, 315716, Note_on_c, 3, 50, 0
8, 315720, Note_on_c, 3, 52, 64
8, 315836, Note_on_c, 3, 52, 0
8, 315840, Note_on_c, 3, 54, 64
8, 315956, Note_on_c, 3, 54, 0
8, 315960, Note_on_c, 3, 50, 64
8, 316076, Note_on_c, 3, 50, 0
8, 316080, Note_on_c, 3, 55, 64
8, 316196, Note_on_c, 3, 55, 0
8, 316200, Note_on_c, 3, 57, 64
8, 316316, Note_on_c, 3, 57, 0
8, 316320, Note_on_c, 3, 55, 64
8, 316436, Note_on_c, 3, 55, 0
8, 316440, Note_on_c, 3, 54, 64
8, 316556, Note_on_c, 3, 54, 0
8, 316560, Note_on_c, 3, 52, 64
8, 316676, Note_on_c, 3, 52, 0
8, 316680, Note_on_c, 3, 50, 64
8, 316796, Note_on_c, 3, 50, 0
8, 316800, Note_on_c, 3, 49, 64
8, 316916, Note_on_c, 3, 49, 0
8, 316920, Note_on_c, 3, 47, 64
8, 317036, Note_on_c, 3, 47, 0
8, 317040, Note_on_c, 3, 49, 64
8, 317156, Note_on_c, 3, 49, 0
8, 317160, Note_on_c, 3, 50, 64
8, 317276, Note_on_c, 3, 50, 0
8, 317280, Note_on_c, 3, 52, 64
8, 317396, Note_on_c, 3, 52, 0
8, 317400, Note_on_c, 3, 49, 64
8, 317516, Note_on_c, 3, 49, 0
8, 317520, Note_on_c, 3, 54, 64
8, 317636, Note_on_c, 3, 54, 0
8, 317640, Note_on_c, 3, 55, 64
8, 317756, Note_on_c, 3, 55, 0
8, 317760, Note_on_c, 3, 54, 64
8, 317876, Note_on_c, 3, 54, 0
8, 317880, Note_on_c, 3, 52, 64
8, 317996, Note_on_c, 3, 52, 0
8, 318000, Note_on_c, 3, 50, 64
8, 318116, Note_on_c, 3, 50, 0
8, 318120, Note_on_c, 3, 49, 64
8, 318236, Note_on_c, 3, 49, 0
8, 318240, Note_on_c, 3, 47, 64
8, 318356, Note_on_c, 3, 47, 0
8, 318360, Note_on_c, 3, 45, 64
8, 318476, Note_on_c, 3, 45, 0
8, 318480, Note_on_c, 3, 47, 64
8, 318596, Note_on_c, 3, 47, 0
8, 318600, Note_on_c, 3, 49, 64
8, 318716, Note_on_c, 3, 49, 0
8, 318720, Note_on_c, 3, 50, 64
8, 318836, Note_on_c, 3, 50, 0
8, 318840, Note_on_c, 3, 47, 64
8, 318956, Note_on_c, 3, 47, 0
8, 318960, Note_on_c, 3, 52, 64
8, 319076, Note_on_c, 3, 52, 0
8, 319080, Note_on_c, 3, 54, 64
8, 319196, Note_on_c, 3, 54, 0
8, 319200, Note_on_c, 3, 52, 64
8, 319316, Note_on_c, 3, 52, 0
8, 319320, Note_on_c, 3, 50, 64
8, 319436, Note_on_c, 3, 50, 0
8, 319440, Note_on_c, 3, 49, 64
8, 319556, Note_on_c, 3, 49, 0
8, 319560, Note_on_c, 3, 47, 64
8, 319676, Note_on_c, 3, 47, 0
8, 319680, Note_on_c, 3, 45, 64
8, 319916, Note_on_c, 3, 45, 0
8, 319920, Note_on_c, 3, 45, 64
8, 320156, Note_on_c, 3, 45, 0
8, 320160, Note_on_c, 3, 45, 64
8, 320396, Note_on_c, 3, 45, 0
8, 320400, Note_on_c, 3, 45, 64
8, 320636, Note_on_c, 3, 45, 0
8, 320640, Note_on_c, 3, 45, 64
8, 320876, Note_on_c, 3, 45, 0
8, 320880, Note_on_c, 3, 45, 64
8, 321116, Note_on_c, 3, 45, 0
8, 321120, Note_on_c, 3, 45, 64
8, 321356, Note_on_c, 3, 45, 0
8, 321360, Note_on_c, 3, 45, 64
8, 321596, Note_on_c, 3, 45, 0
8, 321600, Note_on_c, 3, 45, 64
8, 321836, Note_on_c, 3, 45, 0
8, 321840, Note_on_c, 3, 45, 64
8, 322076, Note_on_c, 3, 45, 0
8, 322080, Note_on_c, 3, 45, 64
8, 322316, Note_on_c, 3, 45, 0
8, 322320, Note_on_c, 3, 45, 64
8, 322556, Note_on_c, 3, 45, 0
8, 322560, Note_on_c, 3, 45, 64
8, 322796, Note_on_c, 3, 45, 0
8, 322800, Note_on_c, 3, 45, 64
8, 323036, Note_on_c, 3, 45, 0
8, 323040, Note_on_c, 3, 45, 64
8, 323276, Note_on_c, 3, 45, 0
8, 323280, Note_on_c, 3, 45, 64
8, 323516, Note_on_c, 3, 45, 0
8, 323520, Note_on_c, 3, 45, 64
8, 323756, Note_on_c, 3, 45, 0
8, 323760, Note_on_c, 3, 45, 64
8, 323996, Note_on_c, 3, 45, 0
8, 324000, Note_on_c, 3, 45, 64
8, 324236, Note_on_c, 3, 45, 0
8, 324240, Note_on_c, 3, 45, 64
8, 324476, Note_on_c, 3, 45, 0
8, 324480, Note_on_c, 3, 45, 64
8, 324716, Note_on_c, 3, 45, 0
8, 324720, Note_on_c, 3, 45, 64
8, 324956, Note_on_c, 3, 45, 0
8, 324960, Note_on_c, 3, 45, 64
8, 325196, Note_on_c, 3, 45, 0
8, 325200, Note_on_c, 3, 45, 64
8, 325436, Note_on_c, 3, 45, 0
8, 325440, Note_on_c, 3, 45, 64
8, 325676, Note_on_c, 3, 45, 0
8, 325680, Note_on_c, 3, 49, 64
8, 325916, Note_on_c, 3, 49, 0
8, 325920, Note_on_c, 3, 52, 64
8, 326156, Note_on_c, 3, 52, 0
8, 326160, Note_on_c, 3, 49, 64
8, 326396, Note_on_c, 3, 49, 0
8, 326400, Note_on_c, 3, 52, 64
8, 326636, Note_on_c, 3, 52, 0
8, 326640, Note_on_c, 3, 57, 64
8, 326876, Note_on_c, 3, 57, 0
8, 326880, Note_on_c, 3, 50, 64
8, 327116, Note_on_c, 3, 50, 0
8, 327120, Note_on_c, 3, 54, 64
8, 327356, Note_on_c, 3, 54, 0
8, 327360, Note_on_c, 3, 57, 64
8, 327596, Note_on_c, 3, 57, 0
8, 327600, Note_on_c, 3, 54, 64
8, 327836, Note_on_c, 3, 54, 0
8, 327840, Note_on_c, 3, 57, 64
8, 328076, Note_on_c, 3, 57, 0
8, 328080, Note_on_c, 3, 62, 64
8, 328316, Note_on_c, 3, 62, 0
8, 328320, Note_on_c, 3, 43, 64
8, 328796, Note_on_c, 3, 43, 0
8, 329760, Note_on_c, 3, 55, 64
8, 330236, Note_on_c, 3, 55, 0
8, 331200, Note_on_c, 3, 54, 64
8, 331436, Note_on_c, 3, 54, 0
8, 331440, Note_on_c, 3, 52, 64
8, 331676, Note_on_c, 3, 52, 0
8, 331680, Note_on_c, 3, 50, 64
8, 331916, Note_on_c, 3, 50, 0
8, 331920, Note_on_c, 3, 57, 64
8, 332396, Note_on_c, 3, 57, 0
8, 332400, Note_on_c, 3, 45, 64
8, 332636, Note_on_c, 3, 45, 0
8, 332640, Note_on_c, 3, 38, 64
8, 334076, Note_on_c, 3, 38, 0
8, 334080, Note_on_c, 3, 50, 64
8, 334196, Note_on_c, 3, 50, 0
8, 334200, Note_on_c, 3, 49, 64
8, 334316, Note_on_c, 3, 49, 0
8, 334320, Note_on_c, 3, 50, 64
8, 334436, Note_on_c, 3, 50, 0
8, 334440, Note_on_c, 3, 52, 64
8, 334556, Note_on_c, 3, 52, 0
8, 334560, Note_on_c, 3, 54, 64
8, 334676, Note_on_c, 3, 54, 0
8, 334680, Note_on_c, 3, 55, 64
8, 334796, Note_on_c, 3, 55, 0
8, 334800, Note_on_c, 3, 57, 64
8, 334916, Note_on_c, 3, 57, 0
8, 334920, Note_on_c, 3, 59, 64
8, 335036, Note_on_c, 3, 59, 0
8, 335040, Note_on_c, 3, 57, 64
8, 335156, Note_on_c, 3, 57, 0
8, 335160, Note_on_c, 3, 55, 64
8, 335276, Note_on_c, 3, 55, 0
8, 335280, Note_on_c, 3, 54, 64
8, 335396, Note_on_c, 3, 54, 0
8, 335400, Note_on_c, 3, 52, 64
8, 335516, Note_on_c, 3, 52, 0
8, 335520, Note_on_c, 3, 54, 64
8, 335636, Note_on_c, 3, 54, 0
8, 335640, Note_on_c, 3, 57, 64
8, 335756, Note_on_c, 3, 57, 0
8, 335760, Note_on_c, 3, 55, 64
8, 335876, Note_on_c, 3, 55, 0
8, 335880, Note_on_c, 3, 54, 64
8, 335996, Note_on_c, 3, 54, 0
8, 336000, Note_on_c, 3, 52, 64
8, 336116, Note_on_c, 3, 52, 0
8, 336120, Note_on_c, 3, 50, 64
8, 336236, Note_on_c, 3, 50, 0
8, 336240, Note_on_c, 3, 49, 64
8, 336356, Note_on_c, 3, 49, 0
8, 336360, Note_on_c, 3, 52, 64
8, 336476, Note_on_c, 3, 52, 0
8, 336480, Note_on_c, 3, 50, 64
8, 336596, Note_on_c, 3, 50, 0
8, 336600, Note_on_c, 3, 49, 64
8, 336716, Note_on_c, 3, 49, 0
8, 336720, Note_on_c, 3, 47, 64
8, 336836, Note_on_c, 3, 47, 0
8, 336840, Note_on_c, 3, 45, 64
8, 336956, Note_on_c, 3, 45, 0
8, 336960, Note_on_c, 3, 52, 64
8, 337196, Note_on_c, 3, 52, 0
8, 337200, Note_on_c, 3, 55, 64
8, 337436, Note_on_c, 3, 55, 0
8, 337440, Note_on_c, 3, 59, 64
8, 337676, Note_on_c, 3, 59, 0
8, 337680, Note_on_c, 3, 51, 64
8, 337916, Note_on_c, 3, 51, 0
8, 337920, Note_on_c, 3, 54, 64
8, 338156, Note_on_c, 3, 54, 0
8, 338160, Note_on_c, 3, 59, 64
8, 338396, Note_on_c, 3, 59, 0
8, 338400, Note_on_c, 3, 52, 64
8, 338636, Note_on_c, 3, 52, 0
8, 338640, Note_on_c, 3, 55, 64
8, 338876, Note_on_c, 3, 55, 0
8, 338880, Note_on_c, 3, 59, 64
8, 339116, Note_on_c, 3, 59, 0
8, 339120, Note_on_c, 3, 47, 64
8, 339356, Note_on_c, 3, 47, 0
8, 339360, Note_on_c, 3, 54, 64
8, 339596, Note_on_c, 3, 54, 0
8, 339600, Note_on_c, 3, 59, 64
8, 339836, Note_on_c, 3, 59, 0
8, 339840, Note_on_c, 3, 43, 64
8, 340316, Note_on_c, 3, 43, 0
8, 340560, Note_on_c, 3, 45, 64
8, 341036, Note_on_c, 3, 45, 0
8, 341280, Note_on_c, 3, 47, 64
8, 341756, Note_on_c, 3, 47, 0
8, 342000, Note_on_c, 3, 48, 64
8, 342476, Note_on_c, 3, 48, 0
8, 342720, Note_on_c, 3, 43, 64
8, 343196, Note_on_c, 3, 43, 0
8, 343440, Note_on_c, 3, 45, 64
8, 343916, Note_on_c, 3, 45, 0
8, 344160, Note_on_c, 3, 47, 64
8, 344396, Note_on_c, 3, 47, 0
8, 344400, Note_on_c, 3, 45, 64
8, 344636, Note_on_c, 3, 45, 0
8, 344640, Note_on_c, 3, 47, 64
8, 344876, Note_on_c, 3, 47, 0
8, 344880, Note_on_c, 3, 40, 64
8, 345116, Note_on_c, 3, 40, 0
8, 345120, Note_on_c, 3, 43, 64
8, 345356, Note_on_c, 3, 43, 0
8, 345360, Note_on_c, 3, 47, 64
8, 345596, Note_on_c, 3, 47, 0
8, 345600, Note_on_c, 3, 52, 64
8, 346076, Note_on_c, 3, 52, 0
8, 349920, Note_on_c, 3, 52, 64
8, 350036, Note_on_c, 3, 52, 0
8, 350040, Note_on_c, 3, 51, 64
8, 350156, Note_on_c, 3, 51, 0
8, 350160, Note_on_c, 3, 52, 64
8, 350276, Note_on_c, 3, 52, 0
8, 350280, Note_on_c, 3, 54, 64
8, 350396, Note_on_c, 3, 54, 0
8, 350400, Note_on_c, 3, 55, 64
8, 350516, Note_on_c, 3, 55, 0
8, 350520, Note_on_c, 3, 57, 64
8, 350636, Note_on_c, 3, 57, 0
8, 350640, Note_on_c, 3, 59, 64
8, 350756, Note_on_c, 3, 59, 0
8, 350760, Note_on_c, 3, 60, 64
8, 350876, Note_on_c, 3, 60, 0
8, 350880, Note_on_c, 3, 59, 64
8, 350996, Note_on_c, 3, 59, 0
8, 351000, Note_on_c, 3, 57, 64
8, 351116, Note_on_c, 3, 57, 0
8, 351120, Note_on_c, 3, 55, 64
8, 351236, Note_on_c, 3, 55, 0
8, 351240, Note_on_c, 3, 54, 64
8, 351356, Note_on_c, 3, 54, 0
8, 351360, Note_on_c, 3, 52, 64
8, 351476, Note_on_c, 3, 52, 0
8, 351480, Note_on_c, 3, 51, 64
8, 351596, Note_on_c, 3, 51, 0
8, 351600, Note_on_c, 3, 52, 64
8, 351716, Note_on_c, 3, 52, 0
8, 351720, Note_on_c, 3, 54, 64
8, 351836, Note_on_c, 3, 54, 0
8, 351840, Note_on_c, 3, 55, 64
8, 351956, Note_on_c, 3, 55, 0
8, 351960, Note_on_c, 3, 52, 64
8, 352076, Note_on_c, 3, 52, 0
8, 352080, Note_on_c, 3, 57, 64
8, 352196, Note_on_c, 3, 57, 0
8, 352200, Note_on_c, 3, 59, 64
8, 352316, Note_on_c, 3, 59, 0
8, 352320, Note_on_c, 3, 57, 64
8, 352436, Note_on_c, 3, 57, 0
8, 352440, Note_on_c, 3, 55, 64
8, 352556, Note_on_c, 3, 55, 0
8, 352560, Note_on_c, 3, 54, 64
8, 352676, Note_on_c, 3, 54, 0
8, 352680, Note_on_c, 3, 52, 64
8, 352796, Note_on_c, 3, 52, 0
8, 352800, Note_on_c, 3, 50, 64
8, 352916, Note_on_c, 3, 50, 0
8, 352920, Note_on_c, 3, 49, 64
8, 353036, Note_on_c, 3, 49, 0
8, 353040, Note_on_c, 3, 50, 64
8, 353156, Note_on_c, 3, 50, 0
8, 353160, Note_on_c, 3, 52, 64
8, 353276, Note_on_c, 3, 52, 0
8, 353280, Note_on_c, 3, 54, 64
8, 353396, Note_on_c, 3, 54, 0
8, 353400, Note_on_c, 3, 50, 64
8, 353516, Note_on_c, 3, 50, 0
8, 353520, Note_on_c, 3, 55, 64
8, 353636, Note_on_c, 3, 55, 0
8, 353640, Note_on_c, 3, 57, 64
8, 353756, Note_on_c, 3, 57, 0
8, 353760, Note_on_c, 3, 55, 64
8, 353876, Note_on_c, 3, 55, 0
8, 353880, Note_on_c, 3, 54, 64
8, 353996, Note_on_c, 3, 54, 0
8, 354000, Note_on_c, 3, 52, 64
8, 354116, Note_on_c, 3, 52, 0
8, 354120, Note_on_c, 3, 50, 64
8, 354236, Note_on_c, 3, 50, 0
8, 354240, Note_on_c, 3, 49, 64
8, 354356, Note_on_c, 3, 49, 0
8, 354360, Note_on_c, 3, 47, 64
8, 354476, Note_on_c, 3, 47, 0
8, 354480, Note_on_c, 3, 49, 64
8, 354596, Note_on_c, 3, 49, 0
8, 354600, Note_on_c, 3, 50, 64
8, 354716, Note_on_c, 3, 50, 0
8, 354720, Note_on_c, 3, 52, 64
8, 354836, Note_on_c, 3, 52, 0
8, 354840, Note_on_c, 3, 49, 64
8, 354956, Note_on_c, 3, 49, 0
8, 354960, Note_on_c, 3, 54, 64
8, 355076, Note_on_c, 3, 54, 0
8, 355080, Note_on_c, 3, 55, 64
8, 355196, Note_on_c, 3, 55, 0
8, 355200, Note_on_c, 3, 54, 64
8, 355316, Note_on_c, 3, 54, 0
8, 355320, Note_on_c, 3, 52, 64
8, 355436, Note_on_c, 3, 52, 0
8, 355440, Note_on_c, 3, 50, 64
8, 355556, Note_on_c, 3, 50, 0
8, 355560, Note_on_c, 3, 49, 64
8, 355676, Note_on_c, 3, 49, 0
8, 355680, Note_on_c, 3, 47, 64
8, 356156, Note_on_c, 3, 47, 0
8, 356400, Note_on_c, 3, 42, 64
8, 356876, Note_on_c, 3, 42, 0
8, 357120, Note_on_c, 3, 47, 64
8, 357596, Note_on_c, 3, 47, 0
8, 357840, Note_on_c, 3, 54, 64
8, 358316, Note_on_c, 3, 54, 0
8, 358560, Note_on_c, 3, 47, 64
8, 358796, Note_on_c, 3, 47, 0
8, 358800, Note_on_c, 3, 50, 64
8, 359036, Note_on_c, 3, 50, 0
8, 359040, Note_on_c, 3, 54, 64
8, 359276, Note_on_c, 3, 54, 0
8, 359280, Note_on_c, 3, 46, 64
8, 359516, Note_on_c, 3, 46, 0
8, 359520, Note_on_c, 3, 49, 64
8, 359756, Note_on_c, 3, 49, 0
8, 359760, Note_on_c, 3, 54, 64
8, 359996, Note_on_c, 3, 54, 0
8, 360000, Note_on_c, 3, 47, 64
8, 360116, Note_on_c, 3, 47, 0
8, 360120, Note_on_c, 3, 46, 64
8, 360236, Note_on_c, 3, 46, 0
8, 360240, Note_on_c, 3, 47, 64
8, 360356, Note_on_c, 3, 47, 0
8, 360360, Note_on_c, 3, 49, 64
8, 360476, Note_on_c, 3, 49, 0
8, 360480, Note_on_c, 3, 50, 64
8, 360596, Note_on_c, 3, 50, 0
8, 360600, Note_on_c, 3, 52, 64
8, 360716, Note_on_c, 3, 52, 0
8, 360720, Note_on_c, 3, 54, 64
8, 360836, Note_on_c, 3, 54, 0
8, 360840, Note_on_c, 3, 55, 64
8, 360956, Note_on_c, 3, 55, 0
8, 360960, Note_on_c, 3, 54, 64
8, 361076, Note_on_c, 3, 54, 0
8, 361080, Note_on_c, 3, 52, 64
8, 361196, Note_on_c, 3, 52, 0
8, 361200, Note_on_c, 3, 50, 64
8, 361316, Note_on_c, 3, 50, 0
8, 361320, Note_on_c, 3, 49, 64
8, 361436, Note_on_c, 3, 49, 0
8, 361440, Note_on_c, 3, 47, 64
8, 361556, Note_on_c, 3, 47, 0
8, 361560, Note_on_c, 3, 46, 64
8, 361676, Note_on_c, 3, 46, 0
8, 361680, Note_on_c, 3, 47, 64
8, 361796, Note_on_c, 3, 47, 0
8, 361800, Note_on_c, 3, 49, 64
8, 361916, Note_on_c, 3, 49, 0
8, 361920, Note_on_c, 3, 50, 64
8, 362036, Note_on_c, 3, 50, 0
8, 362040, Note_on_c, 3, 47, 64
8, 362156, Note_on_c, 3, 47, 0
8, 362160, Note_on_c, 3, 52, 64
8, 362276, Note_on_c, 3, 52, 0
8, 362280, Note_on_c, 3, 54, 64
8, 362396, Note_on_c, 3, 54, 0
8, 362400, Note_on_c, 3, 52, 64
8, 362516, Note_on_c, 3, 52, 0
8, 362520, Note_on_c, 3, 50, 64
8, 362636, Note_on_c, 3, 50, 0
8, 362640, Note_on_c, 3, 49, 64
8, 362756, Note_on_c, 3, 49, 0
8, 362760, Note_on_c, 3, 47, 64
8, 362876, Note_on_c, 3, 47, 0
8, 362880, Note_on_c, 3, 45, 64
8, 362996, Note_on_c, 3, 45, 0
8, 363000, Note_on_c, 3, 43, 64
8, 363116, Note_on_c, 3, 43, 0
8, 363120, Note_on_c, 3, 45, 64
8, 363236, Note_on_c, 3, 45, 0
8, 363240, Note_on_c, 3, 47, 64
8, 363356, Note_on_c, 3, 47, 0
8, 363360, Note_on_c, 3, 49, 64
8, 363476, Note_on_c, 3, 49, 0
8, 363480, Note_on_c, 3, 45, 64
8, 363596, Note_on_c, 3, 45, 0
8, 363600, Note_on_c, 3, 50, 64
8, 363716, Note_on_c, 3, 50, 0
8, 363720, Note_on_c, 3, 52, 64
8, 363836, Note_on_c, 3, 52, 0
8, 363840, Note_on_c, 3, 50, 64
8, 363956, Note_on_c, 3, 50, 0
8, 363960, Note_on_c, 3, 49, 64
8, 364076, Note_on_c, 3, 49, 0
8, 364080, Note_on_c, 3, 47, 64
8, 364196, Note_on_c, 3, 47, 0
8, 364200, Note_on_c, 3, 45, 64
8, 364316, Note_on_c, 3, 45, 0
8, 364320, Note_on_c, 3, 43, 64
8, 364436, Note_on_c, 3, 43, 0
8, 364440, Note_on_c, 3, 42, 64
8, 364556, Note_on_c, 3, 42, 0
8, 364560, Note_on_c, 3, 43, 64
8, 364676, Note_on_c, 3, 43, 0
8, 364680, Note_on_c, 3, 45, 64
8, 364796, Note_on_c, 3, 45, 0
8, 364800, Note_on_c, 3, 47, 64
8, 364916, Note_on_c, 3, 47, 0
8, 364920, Note_on_c, 3, 43, 64
8, 365036, Note_on_c, 3, 43, 0
8, 365040, Note_on_c, 3, 49, 64
8, 365156, Note_on_c, 3, 49, 0
8, 365160, Note_on_c, 3, 50, 64
8, 365276, Note_on_c, 3, 50, 0
8, 365280, Note_on_c, 3, 49, 64
8, 365396, Note_on_c, 3, 49, 0
8, 365400, Note_on_c, 3, 47, 64
8, 365516, Note_on_c, 3, 47, 0
8, 365520, Note_on_c, 3, 46, 64
8, 365636, Note_on_c, 3, 46, 0
8, 365640, Note_on_c, 3, 44, 64
8, 365756, Note_on_c, 3, 44, 0
8, 365760, Note_on_c, 3, 42, 64
8, 365996, Note_on_c, 3, 42, 0
8, 366000, Note_on_c, 3, 42, 64
8, 366236, Note_on_c, 3, 42, 0
8, 366240, Note_on_c, 3, 42, 64
8, 366476, Note_on_c, 3, 42, 0
8, 366480, Note_on_c, 3, 42, 64
8, 366716, Note_on_c, 3, 42, 0
8, 366720, Note_on_c, 3, 42, 64
8, 366956, Note_on_c, 3, 42, 0
8, 366960, Note_on_c, 3, 42, 64
8, 367196, Note_on_c, 3, 42, 0
8, 367200, Note_on_c, 3, 42, 64
8, 367436, Note_on_c, 3, 42, 0
8, 367440, Note_on_c, 3, 42, 64
8, 367676, Note_on_c, 3, 42, 0
8, 367680, Note_on_c, 3, 42, 64
8, 367916, Note_on_c, 3, 42, 0
8, 367920, Note_on_c, 3, 42, 64
8, 368156, Note_on_c, 3, 42, 0
8, 368160, Note_on_c, 3, 42, 64
8, 368396, Note_on_c, 3, 42, 0
8, 368400, Note_on_c, 3, 42, 64
8, 368636, Note_on_c, 3, 42, 0
8, 368640, Note_on_c, 3, 42, 64
8, 368876, Note_on_c, 3, 42, 0
8, 368880, Note_on_c, 3, 42, 64
8, 369116, Note_on_c, 3, 42, 0
8, 369120, Note_on_c, 3, 42, 64
8, 369356, Note_on_c, 3, 42, 0
8, 369360, Note_on_c, 3, 42, 64
8, 369596, Note_on_c, 3, 42, 0
8, 369600, Note_on_c, 3, 42, 64
8, 369836, Note_on_c, 3, 42, 0
8, 369840, Note_on_c, 3, 42, 64
8, 370076, Note_on_c, 3, 42, 0
8, 370080, Note_on_c, 3, 42, 64
8, 370316, Note_on_c, 3, 42, 0
8, 370320, Note_on_c, 3, 42, 64
8, 370556, Note_on_c, 3, 42, 0
8, 370560, Note_on_c, 3, 42, 64
8, 370796, Note_on_c, 3, 42, 0
8, 370800, Note_on_c, 3, 42, 64
8, 371036, Note_on_c, 3, 42, 0
8, 371040, Note_on_c, 3, 42, 64
8, 371276, Note_on_c, 3, 42, 0
8, 371280, Note_on_c, 3, 42, 64
8, 371516, Note_on_c, 3, 42, 0
8, 371520, Note_on_c, 3, 42, 64
8, 371756, Note_on_c, 3, 42, 0
8, 371760, Note_on_c, 3, 46, 64
8, 371996, Note_on_c, 3, 46, 0
8, 372000, Note_on_c, 3, 49, 64
8, 372236, Note_on_c, 3, 49, 0
8, 372240, Note_on_c, 3, 46, 64
8, 372476, Note_on_c, 3, 46, 0
8, 372480, Note_on_c, 3, 49, 64
8, 372716, Note_on_c, 3, 49, 0
8, 372720, Note_on_c, 3, 54, 64
8, 372956, Note_on_c, 3, 54, 0
8, 372960, Note_on_c, 3, 47, 64
8, 373196, Note_on_c, 3, 47, 0
8, 373200, Note_on_c, 3, 51, 64
8, 373436, Note_on_c, 3, 51, 0
8, 373440, Note_on_c, 3, 54, 64
8, 373676, Note_on_c, 3, 54, 0
8, 373680, Note_on_c, 3, 51, 64
8, 373916, Note_on_c, 3, 51, 0
8, 373920, Note_on_c, 3, 54, 64
8, 374156, Note_on_c, 3, 54, 0
8, 374160, Note_on_c, 3, 59, 64
8, 374396, Note_on_c, 3, 59, 0
8, 374400, Note_on_c, 3, 40, 64
8, 374876, Note_on_c, 3, 40, 0
8, 375840, Note_on_c, 3, 52, 64
8, 376316, Note_on_c, 3, 52, 0
8, 377280, Note_on_c, 3, 50, 64
8, 377516, Note_on_c, 3, 50, 0
8, 377520, Note_on_c, 3, 49, 64
8, 377756, Note_on_c, 3, 49, 0
8, 377760, Note_on_c, 3, 47, 64
8, 377996, Note_on_c, 3, 47, 0
8, 378000, Note_on_c, 3, 54, 64
8, 378476, Note_on_c, 3, 54, 0
8, 378480, Note_on_c, 3, 42, 64
8, 378716, Note_on_c, 3, 42, 0
8, 378720, Note_on_c, 3, 47, 64
8, 378956, Note_on_c, 3, 47, 0
8, 378960, Note_on_c, 3, 50, 64
8, 379196, Note_on_c, 3, 50, 0
8, 379200, Note_on_c, 3, 54, 64
8, 379436, Note_on_c, 3, 54, 0
8, 379440, Note_on_c, 3, 59, 64
8, 379676, Note_on_c, 3, 59, 0
8, 379680, Note_on_c, 3, 57, 64
8, 379796, Note_on_c, 3, 57, 0
8, 379800, Note_on_c, 3, 55, 64
8, 379916, Note_on_c, 3, 55, 0
8, 379920, Note_on_c, 3, 54, 64
8, 380036, Note_on_c, 3, 54, 0
8, 380040, Note_on_c, 3, 52, 64
8, 380156, Note_on_c, 3, 52, 0
8, 380160, Note_on_c, 3, 51, 64
8, 380396, Note_on_c, 3, 51, 0
8, 380400, Note_on_c, 3, 54, 64
8, 380636, Note_on_c, 3, 54, 0
8, 380640, Note_on_c, 3, 59, 64
8, 380876, Note_on_c, 3, 59, 0
8, 380880, Note_on_c, 3, 47, 64
8, 381116, Note_on_c, 3, 47, 0
8, 381120, Note_on_c, 3, 54, 64
8, 381356, Note_on_c, 3, 54, 0
8, 381360, Note_on_c, 3, 59, 64
8, 381596, Note_on_c, 3, 59, 0
8, 381600, Note_on_c, 3, 52, 64
8, 381836, Note_on_c, 3, 52, 0
8, 381840, Note_on_c, 3, 55, 64
8, 382076, Note_on_c, 3, 55, 0
8, 382080, Note_on_c, 3, 59, 64
8, 382316, Note_on_c, 3, 59, 0
8, 382320, Note_on_c, 3, 64, 64
8, 382556, Note_on_c, 3, 64, 0
8, 382560, Note_on_c, 3, 62, 64
8, 382676, Note_on_c, 3, 62, 0
8, 382680, Note_on_c, 3, 60, 64
8, 382796, Note_on_c, 3, 60, 0
8, 382800, Note_on_c, 3, 59, 64
8, 382916, Note_on_c, 3, 59, 0
8, 382920, Note_on_c, 3, 57, 64
8, 383036, Note_on_c, 3, 57, 0
8, 383040, Note_on_c, 3, 56, 64
8, 383276, Note_on_c, 3, 56, 0
8, 383280, Note_on_c, 3, 59, 64
8, 383516, Note_on_c, 3, 59, 0
8, 383520, Note_on_c, 3, 64, 64
8, 383756, Note_on_c, 3, 64, 0
8, 383760, Note_on_c, 3, 52, 64
8, 383996, Note_on_c, 3, 52, 0
8, 384000, Note_on_c, 3, 59, 64
8, 384236, Note_on_c, 3, 59, 0
8, 384240, Note_on_c, 3, 64, 64
8, 384476, Note_on_c, 3, 64, 0
8, 384480, Note_on_c, 3, 45, 64
8, 384716, Note_on_c, 3, 45, 0
8, 384720, Note_on_c, 3, 48, 64
8, 384956, Note_on_c, 3, 48, 0
8, 384960, Note_on_c, 3, 52, 64
8, 385196, Note_on_c, 3, 52, 0
8, 385200, Note_on_c, 3, 57, 64
8, 385316, Note_on_c, 3, 57, 0
8, 385320, Note_on_c, 3, 59, 64
8, 385436, Note_on_c, 3, 59, 0
8, 385440, Note_on_c, 3, 57, 64
8, 385556, Note_on_c, 3, 57, 0
8, 385560, Note_on_c, 3, 55, 64
8, 385676, Note_on_c, 3, 55, 0
8, 385680, Note_on_c, 3, 53, 64
8, 385796, Note_on_c, 3, 53, 0
8, 385800, Note_on_c, 3, 52, 64
8, 385916, Note_on_c, 3, 52, 0
8, 385920, Note_on_c, 3, 50, 64
8, 386156, Note_on_c, 3, 50, 0
8, 386160, Note_on_c, 3, 57, 64
8, 386396, Note_on_c, 3, 57, 0
8, 386400, Note_on_c, 3, 62, 64
8, 386636, Note_on_c, 3, 62, 0
8, 386640, Note_on_c, 3, 55, 64
8, 386876, Note_on_c, 3, 55, 0
8, 386880, Note_on_c, 3, 50, 64
8, 387116, Note_on_c, 3, 50, 0
8, 387120, Note_on_c, 3, 43, 64
8, 387356, Note_on_c, 3, 43, 0
8, 387360, Note_on_c, 3, 48, 64
8, 387596, Note_on_c, 3, 48, 0
8, 387600, Note_on_c, 3, 55, 64
8, 387836, Note_on_c, 3, 55, 0
8, 387840, Note_on_c, 3, 60, 64
8, 388076, Note_on_c, 3, 60, 0
8, 388080, Note_on_c, 3, 53, 64
8, 388316, Note_on_c, 3, 53, 0
8, 388320, Note_on_c, 3, 48, 64
8, 388556, Note_on_c, 3, 48, 0
8, 388560, Note_on_c, 3, 41, 64
8, 388796, Note_on_c, 3, 41, 0
8, 388800, Note_on_c, 3, 53, 64
8, 389276, Note_on_c, 3, 53, 0
8, 389520, Note_on_c, 3, 52, 64
8, 389996, Note_on_c, 3, 52, 0
8, 390240, Note_on_c, 3, 50, 64
8, 390716, Note_on_c, 3, 50, 0
8, 390960, Note_on_c, 3, 48, 64
8, 391436, Note_on_c, 3, 48, 0
8, 391680, Note_on_c, 3, 47, 64
8, 391916, Note_on_c, 3, 47, 0
8, 391920, Note_on_c, 3, 50, 64
8, 392156, Note_on_c, 3, 50, 0
8, 392160, Note_on_c, 3, 55, 64
8, 392396, Note_on_c, 3, 55, 0
8, 392400, Note_on_c, 3, 48, 64
8, 392636, Note_on_c, 3, 48, 0
8, 392640, Note_on_c, 3, 52, 64
8, 392876, Note_on_c, 3, 52, 0
8, 392880, Note_on_c, 3, 55, 64
8, 393116, Note_on_c, 3, 55, 0
8, 393120, Note_on_c, 3, 47, 64
8, 393236, Note_on_c, 3, 47, 0
8, 393240, Note_on_c, 3, 50, 64
8, 393356, Note_on_c, 3, 50, 0
8, 393360, Note_on_c, 3, 43, 64
8, 393476, Note_on_c, 3, 43, 0
8, 393480, Note_on_c, 3, 50, 64
8, 393596, Note_on_c, 3, 50, 0
8, 393600, Note_on_c, 3, 47, 64
8, 393716, Note_on_c, 3, 47, 0
8, 393720, Note_on_c, 3, 50, 64
8, 393836, Note_on_c, 3, 50, 0
8, 393840, Note_on_c, 3, 48, 64
8, 393956, Note_on_c, 3, 48, 0
8, 393960, Note_on_c, 3, 52, 64
8, 394076, Note_on_c, 3, 52, 0
8, 394080, Note_on_c, 3, 43, 64
8, 394196, Note_on_c, 3, 43, 0
8, 394200, Note_on_c, 3, 52, 64
8, 394316, Note_on_c, 3, 52, 0
8, 394320, Note_on_c, 3, 48, 64
8, 394436, Note_on_c, 3, 48, 0
8, 394440, Note_on_c, 3, 52, 64
8, 394556, Note_on_c, 3, 52, 0
8, 394560, Note_on_c, 3, 42, 64
8, 394796, Note_on_c, 3, 42, 0
8, 394800, Note_on_c, 3, 42, 64
8, 395036, Note_on_c, 3, 42, 0
8, 395040, Note_on_c, 3, 42, 64
8, 395276, Note_on_c, 3, 42, 0
8, 395280, Note_on_c, 3, 42, 64
8, 395516, Note_on_c, 3, 42, 0
8, 395520, Note_on_c, 3, 42, 64
8, 395756, Note_on_c, 3, 42, 0
8, 395760, Note_on_c, 3, 42, 64
8, 395996, Note_on_c, 3, 42, 0
8, 396000, Note_on_c, 3, 41, 64
8, 396236, Note_on_c, 3, 41, 0
8, 396240, Note_on_c, 3, 41, 64
8, 396476, Note_on_c, 3, 41, 0
8, 396480, Note_on_c, 3, 41, 64
8, 396716, Note_on_c, 3, 41, 0
8, 396720, Note_on_c, 3, 41, 64
8, 396956, Note_on_c, 3, 41, 0
8, 396960, Note_on_c, 3, 41, 64
8, 397196, Note_on_c, 3, 41, 0
8, 397200, Note_on_c, 3, 41, 64
8, 397436, Note_on_c, 3, 41, 0
8, 397440, Note_on_c, 3, 40, 64
8, 397916, Note_on_c, 3, 40, 0
8, 398160, Note_on_c, 3, 41, 64
8, 398636, Note_on_c, 3, 41, 0
8, 398880, Note_on_c, 3, 43, 64
8, 399356, Note_on_c, 3, 43, 0
8, 399600, Note_on_c, 3, 45, 64
8, 400076, Note_on_c, 3, 45, 0
8, 400320, Note_on_c, 3, 40, 64
8, 400796, Note_on_c, 3, 40, 0
8, 401040, Note_on_c, 3, 41, 64
8, 401516, Note_on_c, 3, 41, 0
8, 401760, Note_on_c, 3, 43, 64
8, 401996, Note_on_c, 3, 43, 0
8, 402000, Note_on_c, 3, 41, 64
8, 402236, Note_on_c, 3, 41, 0
8, 402240, Note_on_c, 3, 43, 64
8, 402476, Note_on_c, 3, 43, 0
8, 402480, Note_on_c, 3, 36, 64
8, 402956, Note_on_c, 3, 36, 0
8, 402960, Note_on_c, 3, 38, 64
8, 403196, Note_on_c, 3, 38, 0
8, 403200, Note_on_c, 3, 40, 64
8, 403436, Note_on_c, 3, 40, 0
8, 403440, Note_on_c, 3, 38, 64
8, 403676, Note_on_c, 3, 38, 0
8, 403680, Note_on_c, 3, 36, 64
8, 403916, Note_on_c, 3, 36, 0
8, 403920, Note_on_c, 3, 43, 64
8, 404156, Note_on_c, 3, 43, 0
8, 404160, Note_on_c, 3, 45, 64
8, 404396, Note_on_c, 3, 45, 0
8, 404400, Note_on_c, 3, 47, 64
8, 404636, Note_on_c, 3, 47, 0
8, 404640, Note_on_c, 3, 48, 64
8, 405116, Note_on_c, 3, 48, 0
8, 405360, Note_on_c, 3, 55, 64
8, 405836, Note_on_c, 3, 55, 0
8, 406080, Note_on_c, 3, 48, 64
8, 406556, Note_on_c, 3, 48, 0
8, 406800, Note_on_c, 3, 43, 64
8, 407276, Note_on_c, 3, 43, 0
8, 407520, Note_on_c, 3, 48, 64
8, 407636, Note_on_c, 3, 48, 0
8, 407640, Note_on_c, 3, 47, 64
8, 407756, Note_on_c, 3, 47, 0
8, 407760, Note_on_c, 3, 48, 64
8, 407876, Note_on_c, 3, 48, 0
8, 407880, Note_on_c, 3, 50, 64
8, 407996, Note_on_c, 3, 50, 0
8, 408000, Note_on_c, 3, 52, 64
8, 408116, Note_on_c, 3, 52, 0
8, 408120, Note_on_c, 3, 53, 64
8, 408236, Note_on_c, 3, 53, 0
8, 408240, Note_on_c, 3, 55, 64
8, 408356, Note_on_c, 3, 55, 0
8, 408360, Note_on_c, 3, 57, 64
8, 408476, Note_on_c, 3, 57, 0
8, 408480, Note_on_c, 3, 55, 64
8, 408596, Note_on_c, 3, 55, 0
8, 408600, Note_on_c, 3, 53, 64
8, 408716, Note_on_c, 3, 53, 0
8, 408720, Note_on_c, 3, 52, 64
8, 408836, Note_on_c, 3, 52, 0
8, 408840, Note_on_c, 3, 50, 64
8, 408956, Note_on_c, 3, 50, 0
8, 408960, Note_on_c, 3, 48, 64
8, 409076, Note_on_c, 3, 48, 0
8, 409080, Note_on_c, 3, 47, 64
8, 409196, Note_on_c, 3, 47, 0
8, 409200, Note_on_c, 3, 48, 64
8, 409316, Note_on_c, 3, 48, 0
8, 409320, Note_on_c, 3, 50, 64
8, 409436, Note_on_c, 3, 50, 0
8, 409440, Note_on_c, 3, 52, 64
8, 409556, Note_on_c, 3, 52, 0
8, 409560, Note_on_c, 3, 48, 64
8, 409676, Note_on_c, 3, 48, 0
8, 409680, Note_on_c, 3, 54, 64
8, 409796, Note_on_c, 3, 54, 0
8, 409800, Note_on_c, 3, 55, 64
8, 409916, Note_on_c, 3, 55, 0
8, 409920, Note_on_c, 3, 54, 64
8, 410036, Note_on_c, 3, 54, 0
8, 410040, Note_on_c, 3, 52, 64
8, 410156, Note_on_c, 3, 52, 0
8, 410160, Note_on_c, 3, 50, 64
8, 410276, Note_on_c, 3, 50, 0
8, 410280, Note_on_c, 3, 48, 64
8, 410396, Note_on_c, 3, 48, 0
8, 410400, Note_on_c, 3, 47, 64
8, 410516, Note_on_c, 3, 47, 0
8, 410520, Note_on_c, 3, 45, 64
8, 410636, Note_on_c, 3, 45, 0
8, 410640, Note_on_c, 3, 47, 64
8, 410756, Note_on_c, 3, 47, 0
8, 410760, Note_on_c, 3, 48, 64
8, 410876, Note_on_c, 3, 48, 0
8, 410880, Note_on_c, 3, 50, 64
8, 410996, Note_on_c, 3, 50, 0
8, 411000, Note_on_c, 3, 47, 64
8, 411116, Note_on_c, 3, 47, 0
8, 411120, Note_on_c, 3, 52, 64
8, 411236, Note_on_c, 3, 52, 0
8, 411240, Note_on_c, 3, 54, 64
8, 411356, Note_on_c, 3, 54, 0
8, 411360, Note_on_c, 3, 52, 64
8, 411476, Note_on_c, 3, 52, 0
8, 411480, Note_on_c, 3, 50, 64
8, 411596, Note_on_c, 3, 50, 0
8, 411600, Note_on_c, 3, 48, 64
8, 411716, Note_on_c, 3, 48, 0
8, 411720, Note_on_c, 3, 47, 64
8, 411836, Note_on_c, 3, 47, 0
8, 411840, Note_on_c, 3, 45, 64
8, 411956, Note_on_c, 3, 45, 0
8, 411960, Note_on_c, 3, 43, 64
8, 412076, Note_on_c, 3, 43, 0
8, 412080, Note_on_c, 3, 45, 64
8, 412196, Note_on_c, 3, 45, 0
8, 412200, Note_on_c, 3, 47, 64
8, 412316, Note_on_c, 3, 47, 0
8, 412320, Note_on_c, 3, 48, 64
8, 412436, Note_on_c, 3, 48, 0
8, 412440, Note_on_c, 3, 45, 64
8, 412556, Note_on_c, 3, 45, 0
8, 412560, Note_on_c, 3, 50, 64
8, 412676, Note_on_c, 3, 50, 0
8, 412680, Note_on_c, 3, 52, 64
8, 412796, Note_on_c, 3, 52, 0
8, 412800, Note_on_c, 3, 50, 64
8, 412916, Note_on_c, 3, 50, 0
8, 412920, Note_on_c, 3, 48, 64
8, 413036, Note_on_c, 3, 48, 0
8, 413040, Note_on_c, 3, 47, 64
8, 413156, Note_on_c, 3, 47, 0
8, 413160, Note_on_c, 3, 45, 64
8, 413276, Note_on_c, 3, 45, 0
8, 413280, Note_on_c, 3, 43, 64
8, 413756, Note_on_c, 3, 43, 0
8, 414000, Note_on_c, 3, 38, 64
8, 414476, Note_on_c, 3, 38, 0
8, 414720, Note_on_c, 3, 43, 64
8, 415196, Note_on_c, 3, 43, 0
8, 415440, Note_on_c, 3, 50, 64
8, 415916, Note_on_c, 3, 50, 0
8, 416160, Note_on_c, 3, 55, 64
8, 416396, Note_on_c, 3, 55, 0
8, 416400, Note_on_c, 3, 59, 64
8, 416636, Note_on_c, 3, 59, 0
8, 416640, Note_on_c, 3, 62, 64
8, 416876, Note_on_c, 3, 62, 0
8, 416880, Note_on_c, 3, 50, 64
8, 417116, Note_on_c, 3, 50, 0
8, 417120, Note_on_c, 3, 57, 64
8, 417356, Note_on_c, 3, 57, 0
8, 417360, Note_on_c, 3, 62, 64
8, 417596, Note_on_c, 3, 62, 0
8, 417600, Note_on_c, 3, 43, 64
8, 417716, Note_on_c, 3, 43, 0
8, 417720, Note_on_c, 3, 42, 64
8, 417836, Note_on_c, 3, 42, 0
8, 417840, Note_on_c, 3, 43, 64
8, 417956, Note_on_c, 3, 43, 0
8, 417960, Note_on_c, 3, 45, 64
8, 418076, Note_on_c, 3, 45, 0
8, 418080, Note_on_c, 3, 47, 64
8, 418196, Note_on_c, 3, 47, 0
8, 418200, Note_on_c, 3, 48, 64
8, 418316, Note_on_c, 3, 48, 0
8, 418320, Note_on_c, 3, 50, 64
8, 418436, Note_on_c, 3, 50, 0
8, 418440, Note_on_c, 3, 52, 64
8, 418556, Note_on_c, 3, 52, 0
8, 418560, Note_on_c, 3, 50, 64
8, 418676, Note_on_c, 3, 50, 0
8, 418680, Note_on_c, 3, 48, 64
8, 418796, Note_on_c, 3, 48, 0
8, 418800, Note_on_c, 3, 47, 64
8, 418916, Note_on_c, 3, 47, 0
8, 418920, Note_on_c, 3, 45, 64
8, 419036, Note_on_c, 3, 45, 0
8, 419040, Note_on_c, 3, 43, 64
8, 419156, Note_on_c, 3, 43, 0
8, 419160, Note_on_c, 3, 42, 64
8, 419276, Note_on_c, 3, 42, 0
8, 419280, Note_on_c, 3, 43, 64
8, 419396, Note_on_c, 3, 43, 0
8, 419400, Note_on_c, 3, 45, 64
8, 419516, Note_on_c, 3, 45, 0
8, 419520, Note_on_c, 3, 47, 64
8, 419636, Note_on_c, 3, 47, 0
8, 419640, Note_on_c, 3, 43, 64
8, 419756, Note_on_c, 3, 43, 0
8, 419760, Note_on_c, 3, 48, 64
8, 419876, Note_on_c, 3, 48, 0
8, 419880, Note_on_c, 3, 50, 64
8, 419996, Note_on_c, 3, 50, 0
8, 420000, Note_on_c, 3, 48, 64
8, 420116, Note_on_c, 3, 48, 0
8, 420120, Note_on_c, 3, 47, 64
8, 420236, Note_on_c, 3, 47, 0
8, 420240, Note_on_c, 3, 45, 64
8, 420356, Note_on_c, 3, 45, 0
8, 420360, Note_on_c, 3, 43, 64
8, 420476, Note_on_c, 3, 43, 0
8, 420480, Note_on_c, 3, 42, 64
8, 420596, Note_on_c, 3, 42, 0
8, 420600, Note_on_c, 3, 40, 64
8, 420716, Note_on_c, 3, 40, 0
8, 420720, Note_on_c, 3, 42, 64
8, 420836, Note_on_c, 3, 42, 0
8, 420840, Note_on_c, 3, 43, 64
8, 420956, Note_on_c, 3, 43, 0
8, 420960, Note_on_c, 3, 45, 64
8, 421076, Note_on_c, 3, 45, 0
8, 421080, Note_on_c, 3, 42, 64
8, 421196, Note_on_c, 3, 42, 0
8, 421200, Note_on_c, 3, 47, 64
8, 421316, Note_on_c, 3, 47, 0
8, 421320, Note_on_c, 3, 48, 64
8, 421436, Note_on_c, 3, 48, 0
8, 421440, Note_on_c, 3, 47, 64
8, 421556, Note_on_c, 3, 47, 0
8, 421560, Note_on_c, 3, 45, 64
8, 421676, Note_on_c, 3, 45, 0
8, 421680, Note_on_c, 3, 43, 64
8, 421796, Note_on_c, 3, 43, 0
8, 421800, Note_on_c, 3, 42, 64
8, 421916, Note_on_c, 3, 42, 0
8, 421920, Note_on_c, 3, 40, 64
8, 422036, Note_on_c, 3, 40, 0
8, 422040, Note_on_c, 3, 38, 64
8, 422156, Note_on_c, 3, 38, 0
8, 422160, Note_on_c, 3, 40, 64
8, 422276, Note_on_c, 3, 40, 0
8, 422280, Note_on_c, 3, 42, 64
8, 422396, Note_on_c, 3, 42, 0
8, 422400, Note_on_c, 3, 43, 64
8, 422516, Note_on_c, 3, 43, 0
8, 422520, Note_on_c, 3, 40, 64
8, 422636, Note_on_c, 3, 40, 0
8, 422640, Note_on_c, 3, 45, 64
8, 422756, Note_on_c, 3, 45, 0
8, 422760, Note_on_c, 3, 47, 64
8, 422876, Note_on_c, 3, 47, 0
8, 422880, Note_on_c, 3, 45, 64
8, 422996, Note_on_c, 3, 45, 0
8, 423000, Note_on_c, 3, 43, 64
8, 423116, Note_on_c, 3, 43, 0
8, 423120, Note_on_c, 3, 42, 64
8, 423236, Note_on_c, 3, 42, 0
8, 423240, Note_on_c, 3, 40, 64
8, 423356, Note_on_c, 3, 40, 0
8, 423360, Note_on_c, 3, 38, 64
8, 423596, Note_on_c, 3, 38, 0
8, 423600, Note_on_c, 3, 38, 64
8, 423836, Note_on_c, 3, 38, 0
8, 423840, Note_on_c, 3, 38, 64
8, 424076, Note_on_c, 3, 38, 0
8, 424080, Note_on_c, 3, 38, 64
8, 424316, Note_on_c, 3, 38, 0
8, 424320, Note_on_c, 3, 38, 64
8, 424556, Note_on_c, 3, 38, 0
8, 424560, Note_on_c, 3, 38, 64
8, 424796, Note_on_c, 3, 38, 0
8, 424800, Note_on_c, 3, 38, 64
8, 425036, Note_on_c, 3, 38, 0
8, 425040, Note_on_c, 3, 38, 64
8, 425276, Note_on_c, 3, 38, 0
8, 425280, Note_on_c, 3, 38, 64
8, 425516, Note_on_c, 3, 38, 0
8, 425520, Note_on_c, 3, 38, 64
8, 425756, Note_on_c, 3, 38, 0
8, 425760, Note_on_c, 3, 38, 64
8, 425996, Note_on_c, 3, 38, 0
8, 426000, Note_on_c, 3, 38, 64
8, 426236, Note_on_c, 3, 38, 0
8, 426240, Note_on_c, 3, 38, 64
8, 426476, Note_on_c, 3, 38, 0
8, 426480, Note_on_c, 3, 38, 64
8, 426716, Note_on_c, 3, 38, 0
8, 426720, Note_on_c, 3, 38, 64
8, 426956, Note_on_c, 3, 38, 0
8, 426960, Note_on_c, 3, 38, 64
8, 427196, Note_on_c, 3, 38, 0
8, 427200, Note_on_c, 3, 38, 64
8, 427436, Note_on_c, 3, 38, 0
8, 427440, Note_on_c, 3, 38, 64
8, 427676, Note_on_c, 3, 38, 0
8, 427680, Note_on_c, 3, 38, 64
8, 427916, Note_on_c, 3, 38, 0
8, 427920, Note_on_c, 3, 38, 64
8, 428156, Note_on_c, 3, 38, 0
8, 428160, Note_on_c, 3, 38, 64
8, 428396, Note_on_c, 3, 38, 0
8, 428400, Note_on_c, 3, 38, 64
8, 428636, Note_on_c, 3, 38, 0
8, 428640, Note_on_c, 3, 38, 64
8, 428876, Note_on_c, 3, 38, 0
8, 428880, Note_on_c, 3, 38, 64
8, 429116, Note_on_c, 3, 38, 0
8, 429120, Note_on_c, 3, 38, 64
8, 429356, Note_on_c, 3, 38, 0
8, 429360, Note_on_c, 3, 42, 64
8, 429596, Note_on_c, 3, 42, 0
8, 429600, Note_on_c, 3, 45, 64
8, 429836, Note_on_c, 3, 45, 0
8, 429840, Note_on_c, 3, 42, 64
8, 430076, Note_on_c, 3, 42, 0
8, 430080, Note_on_c, 3, 45, 64
8, 430316, Note_on_c, 3, 45, 0
8, 430320, Note_on_c, 3, 50, 64
8, 430556, Note_on_c, 3, 50, 0
8, 430560, Note_on_c, 3, 43, 64
8, 430796, Note_on_c, 3, 43, 0
8, 430800, Note_on_c, 3, 47, 64
8, 431036, Note_on_c, 3, 47, 0
8, 431040, Note_on_c, 3, 50, 64
8, 431276, Note_on_c, 3, 50, 0
8, 431280, Note_on_c, 3, 47, 64
8, 431516, Note_on_c, 3, 47, 0
8, 431520, Note_on_c, 3, 50, 64
8, 431756, Note_on_c, 3, 50, 0
8, 431760, Note_on_c, 3, 55, 64
8, 431996, Note_on_c, 3, 55, 0
8, 432000, Note_on_c, 3, 36, 64
8, 432476, Note_on_c, 3, 36, 0
8, 433440, Note_on_c, 3, 48, 64
8, 433916, Note_on_c, 3, 48, 0
8, 434880, Note_on_c, 3, 47, 64
8, 435116, Note_on_c, 3, 47, 0
8, 435120, Note_on_c, 3, 45, 64
8, 435356, Note_on_c, 3, 45, 0
8, 435360, Note_on_c, 3, 43, 64
8, 435596, Note_on_c, 3, 43, 0
8, 435600, Note_on_c, 3, 50, 64
8, 436076, Note_on_c, 3, 50, 0
8, 436080, Note_on_c, 3, 38, 64
8, 436316, Note_on_c, 3, 38, 0
8, 436320, Note_on_c, 3, 43, 64
8, 437756, Note_on_c, 3, 43, 0
8, 437760, Note_on_c, 3, 50, 64
8, 437876, Note_on_c, 3, 50, 0
8, 437880, Note_on_c, 3, 49, 64
8, 437996, Note_on_c, 3, 49, 0
8, 438000, Note_on_c, 3, 50, 64
8, 438116, Note_on_c, 3, 50, 0
8, 438120, Note_on_c, 3, 52, 64
8, 438236, Note_on_c, 3, 52, 0
8, 438240, Note_on_c, 3, 54, 64
8, 438356, Note_on_c, 3, 54, 0
8, 438360, Note_on_c, 3, 55, 64
8, 438476, Note_on_c, 3, 55, 0
8, 438480, Note_on_c, 3, 57, 64
8, 438596, Note_on_c, 3, 57, 0
8, 438600, Note_on_c, 3, 59, 64
8, 438716, Note_on_c, 3, 59, 0
8, 438720, Note_on_c, 3, 57, 64
8, 438836, Note_on_c, 3, 57, 0
8, 438840, Note_on_c, 3, 55, 64
8, 438956, Note_on_c, 3, 55, 0
8, 438960, Note_on_c, 3, 54, 64
8, 439076, Note_on_c, 3, 54, 0
8, 439080, Note_on_c, 3, 52, 64
8, 439196, Note_on_c, 3, 52, 0
8, 439200, Note_on_c, 3, 54, 64
8, 439316, Note_on_c, 3, 54, 0
8, 439320, Note_on_c, 3, 57, 64
8, 439436, Note_on_c, 3, 57, 0
8, 439440, Note_on_c, 3, 55, 64
8, 439556, Note_on_c, 3, 55, 0
8, 439560, Note_on_c, 3, 54, 64
8, 439676, Note_on_c, 3, 54, 0
8, 439680, Note_on_c, 3, 52, 64
8, 439796, Note_on_c, 3, 52, 0
8, 439800, Note_on_c, 3, 50, 64
8, 439916, Note_on_c, 3, 50, 0
8, 439920, Note_on_c, 3, 49, 64
8, 440036, Note_on_c, 3, 49, 0
8, 440040, Note_on_c, 3, 52, 64
8, 440156, Note_on_c, 3, 52, 0
8, 440160, Note_on_c, 3, 50, 64
8, 440276, Note_on_c, 3, 50, 0
8, 440280, Note_on_c, 3, 49, 64
8, 440396, Note_on_c, 3, 49, 0
8, 440400, Note_on_c, 3, 47, 64
8, 440516, Note_on_c, 3, 47, 0
8, 440520, Note_on_c, 3, 45, 64
8, 440636, Note_on_c, 3, 45, 0
8, 440640, Note_on_c, 3, 52, 64
8, 440876, Note_on_c, 3, 52, 0
8, 440880, Note_on_c, 3, 55, 64
8, 441116, Note_on_c, 3, 55, 0
8, 441120, Note_on_c, 3, 59, 64
8, 441356, Note_on_c, 3, 59, 0
8, 441360, Note_on_c, 3, 51, 64
8, 441596, Note_on_c, 3, 51, 0
8, 441600, Note_on_c, 3, 54, 64
8, 441836, Note_on_c, 3, 54, 0
8, 441840, Note_on_c, 3, 59, 64
8, 442076, Note_on_c, 3, 59, 0
8, 442080, Note_on_c, 3, 52, 64
8, 442316, Note_on_c, 3, 52, 0
8, 442320, Note_on_c, 3, 55, 64
8, 442556, Note_on_c, 3, 55, 0
8, 442560, Note_on_c, 3, 59, 64
8, 442796, Note_on_c, 3, 59, 0
8, 442800, Note_on_c, 3, 47, 64
8, 443036, Note_on_c, 3, 47, 0
8, 443040, Note_on_c, 3, 54, 64
8, 443276, Note_on_c, 3, 54, 0
8, 443280, Note_on_c, 3, 59, 64
8, 443516, Note_on_c, 3, 59, 0
8, 443520, Note_on_c, 3, 43, 64
8, 443996, Note_on_c, 3, 43, 0
8, 444240, Note_on_c, 3, 45, 64
8, 444716, Note_on_c, 3, 45, 0
8, 444960, Note_on_c, 3, 47, 64
8, 445436, Note_on_c, 3, 47, 0
8, 445680, Note_on_c, 3, 48, 64
8, 446156, Note_on_c, 3, 48, 0
8, 446400, Note_on_c, 3, 43, 64
8, 446876, Note_on_c, 3, 43, 0
8, 447120, Note_on_c, 3, 45, 64
8, 447596, Note_on_c, 3, 45, 0
8, 447840, Note_on_c, 3, 47, 64
8, 448076, Note_on_c, 3, 47, 0
8, 448080, Note_on_c, 3, 45, 64
8, 448316, Note_on_c, 3, 45, 0
8, 448320, Note_on_c, 3, 47, 64
8, 448556, Note_on_c, 3, 47, 0
8, 448560, Note_on_c, 3, 40, 64
8, 448796, Note_on_c, 3, 40, 0
8, 448800, Note_on_c, 3, 43, 64
8, 449036, Note_on_c, 3, 43, 0
8, 449040, Note_on_c, 3, 47, 64
8, 449276, Note_on_c, 3, 47, 0
8, 449280, Note_on_c, 3, 52, 64
8, 449756, Note_on_c, 3, 52, 0
8, 453600, Note_on_c, 3, 52, 64
8, 453716, Note_on_c, 3, 52, 0
8, 453720, Note_on_c, 3, 51, 64
8, 453836, Note_on_c, 3, 51, 0
8, 453840, Note_on_c, 3, 52, 64
8, 453956, Note_on_c, 3, 52, 0
8, 453960, Note_on_c, 3, 54, 64
8, 454076, Note_on_c, 3, 54, 0
8, 454080, Note_on_c, 3, 55, 64
8, 454196, Note_on_c, 3, 55, 0
8, 454200, Note_on_c, 3, 57, 64
8, 454316, Note_on_c, 3, 57, 0
8, 454320, Note_on_c, 3, 59, 64
8, 454436, Note_on_c, 3, 59, 0
8, 454440, Note_on_c, 3, 60, 64
8, 454556, Note_on_c, 3, 60, 0
8, 454560, Note_on_c, 3, 59, 64
8, 454676, Note_on_c, 3, 59, 0
8, 454680, Note_on_c, 3, 57, 64
8, 454796, Note_on_c, 3, 57, 0
8, 454800, Note_on_c, 3, 55, 64
8, 454916, Note_on_c, 3, 55, 0
8, 454920, Note_on_c, 3, 54, 64
8, 455036, Note_on_c, 3, 54, 0
8, 455040, Note_on_c, 3, 52, 64
8, 455156, Note_on_c, 3, 52, 0
8, 455160, Note_on_c, 3, 51, 64
8, 455276, Note_on_c, 3, 51, 0
8, 455280, Note_on_c, 3, 52, 64
8, 455396, Note_on_c, 3, 52, 0
8, 455400, Note_on_c, 3, 54, 64
8, 455516, Note_on_c, 3, 54, 0
8, 455520, Note_on_c, 3, 55, 64
8, 455636, Note_on_c, 3, 55, 0
8, 455640, Note_on_c, 3, 52, 64
8, 455756, Note_on_c, 3, 52, 0
8, 455760, Note_on_c, 3, 57, 64
8, 455876, Note_on_c, 3, 57, 0
8, 455880, Note_on_c, 3, 59, 64
8, 455996, Note_on_c, 3, 59, 0
8, 456000, Note_on_c, 3, 57, 64
8, 456116, Note_on_c, 3, 57, 0
8, 456120, Note_on_c, 3, 55, 64
8, 456236, Note_on_c, 3, 55, 0
8, 456240, Note_on_c, 3, 54, 64
8, 456356, Note_on_c, 3, 54, 0
8, 456360, Note_on_c, 3, 52, 64
8, 456476, Note_on_c, 3, 52, 0
8, 456480, Note_on_c, 3, 50, 64
8, 456596, Note_on_c, 3, 50, 0
8, 456600, Note_on_c, 3, 49, 64
8, 456716, Note_on_c, 3, 49, 0
8, 456720, Note_on_c, 3, 50, 64
8, 456836, Note_on_c, 3, 50, 0
8, 456840, Note_on_c, 3, 52, 64
8, 456956, Note_on_c, 3, 52, 0
8, 456960, Note_on_c, 3, 54, 64
8, 457076, Note_on_c, 3, 54, 0
8, 457080, Note_on_c, 3, 50, 64
8, 457196, Note_on_c, 3, 50, 0
8, 457200, Note_on_c, 3, 55, 64
8, 457316, Note_on_c, 3, 55, 0
8, 457320, Note_on_c, 3, 57, 64
8, 457436, Note_on_c, 3, 57, 0
8, 457440, Note_on_c, 3, 55, 64
8, 457556, Note_on_c, 3, 55, 0
8, 457560, Note_on_c, 3, 54, 64
8, 457676, Note_on_c, 3, 54, 0
8, 457680, Note_on_c, 3, 52, 64
8, 457796, Note_on_c, 3, 52, 0
8, 457800, Note_on_c, 3, 50, 64
8, 457916, Note_on_c, 3, 50, 0
8, 457920, Note_on_c, 3, 49, 64
8, 458036, Note_on_c, 3, 49, 0
8, 458040, Note_on_c, 3, 47, 64
8, 458156, Note_on_c, 3, 47, 0
8, 458160, Note_on_c, 3, 49, 64
8, 458276, Note_on_c, 3, 49, 0
8, 458280, Note_on_c, 3, 50, 64
8, 458396, Note_on_c, 3, 50, 0
8, 458400, Note_on_c, 3, 52, 64
8, 458516, Note_on_c, 3, 52, 0
8, 458520, Note_on_c, 3, 49, 64
8, 458636, Note_on_c, 3, 49, 0
8, 458640, Note_on_c, 3, 54, 64
8, 458756, Note_on_c, 3, 54, 0
8, 458760, Note_on_c, 3, 55, 64
8, 458876, Note_on_c, 3, 55, 0
8, 458880, Note_on_c, 3, 54, 64
8, 458996, Note_on_c, 3, 54, 0
8, 459000, Note_on_c, 3, 52, 64
8, 459116, Note_on_c, 3, 52, 0
8, 459120, Note_on_c, 3, 50, 64
8, 459236, Note_on_c, 3, 50, 0
8, 459240, Note_on_c, 3, 49, 64
8, 459356, Note_on_c, 3, 49, 0
8, 459360, Note_on_c, 3, 47, 64
8, 459836, Note_on_c, 3, 47, 0
8, 460080, Note_on_c, 3, 42, 64
8, 460556, Note_on_c, 3, 42, 0
8, 460800, Note_on_c, 3, 47, 64
8, 461276, Note_on_c, 3, 47, 0
8, 461520, Note_on_c, 3, 54, 64
8, 461996, Note_on_c, 3, 54, 0
8, 462240, Note_on_c, 3, 47, 64
8, 462476, Note_on_c, 3, 47, 0
8, 462480, Note_on_c, 3, 50, 64
8, 462716, Note_on_c, 3, 50, 0
8, 462720, Note_on_c, 3, 54, 64
8, 462956, Note_on_c, 3, 54, 0
8, 462960, Note_on_c, 3, 46, 64
8, 463196, Note_on_c, 3, 46, 0
8, 463200, Note_on_c, 3, 49, 64
8, 463436, Note_on_c, 3, 49, 0
8, 463440, Note_on_c, 3, 54, 64
8, 463676, Note_on_c, 3, 54, 0
8, 463680, Note_on_c, 3, 47, 64
8, 463796, Note_on_c, 3, 47, 0
8, 463800, Note_on_c, 3, 46, 64
8, 463916, Note_on_c, 3, 46, 0
8, 463920, Note_on_c, 3, 47, 64
8, 464036, Note_on_c, 3, 47, 0
8, 464040, Note_on_c, 3, 49, 64
8, 464156, Note_on_c, 3, 49, 0
8, 464160, Note_on_c, 3, 50, 64
8, 464276, Note_on_c, 3, 50, 0
8, 464280, Note_on_c, 3, 52, 64
8, 464396, Note_on_c, 3, 52, 0
8, 464400, Note_on_c, 3, 54, 64
8, 464516, Note_on_c, 3, 54, 0
8, 464520, Note_on_c, 3, 55, 64
8, 464636, Note_on_c, 3, 55, 0
8, 464640, Note_on_c, 3, 54, 64
8, 464756, Note_on_c, 3, 54, 0
8, 464760, Note_on_c, 3, 52, 64
8, 464876, Note_on_c, 3, 52, 0
8, 464880, Note_on_c, 3, 50, 64
8, 464996, Note_on_c, 3, 50, 0
8, 465000, Note_on_c, 3, 49, 64
8, 465116, Note_on_c, 3, 49, 0
8, 465120, Note_on_c, 3, 47, 64
8, 465236, Note_on_c, 3, 47, 0
8, 465240, Note_on_c, 3, 46, 64
8, 465356, Note_on_c, 3, 46, 0
8, 465360, Note_on_c, 3, 47, 64
8, 465476, Note_on_c, 3, 47, 0
8, 465480, Note_on_c, 3, 49, 64
8, 465596, Note_on_c, 3, 49, 0
8, 465600, Note_on_c, 3, 50, 64
8, 465716, Note_on_c, 3, 50, 0
8, 465720, Note_on_c, 3, 47, 64
8, 465836, Note_on_c, 3, 47, 0
8, 465840, Note_on_c, 3, 52, 64
8, 465956, Note_on_c, 3, 52, 0
8, 465960, Note_on_c, 3, 54, 64
8, 466076, Note_on_c, 3, 54, 0
8, 466080, Note_on_c, 3, 52, 64
8, 466196, Note_on_c, 3, 52, 0
8, 466200, Note_on_c, 3, 50, 64
8, 466316, Note_on_c, 3, 50, 0
8, 466320, Note_on_c, 3, 49, 64
8, 466436, Note_on_c, 3, 49, 0
8, 466440, Note_on_c, 3, 47, 64
8, 466556, Note_on_c, 3, 47, 0
8, 466560, Note_on_c, 3, 45, 64
8, 466676, Note_on_c, 3, 45, 0
8, 466680, Note_on_c, 3, 43, 64
8, 466796, Note_on_c, 3, 43, 0
8, 466800, Note_on_c, 3, 45, 64
8, 466916, Note_on_c, 3, 45, 0
8, 466920, Note_on_c, 3, 47, 64
8, 467036, Note_on_c, 3, 47, 0
8, 467040, Note_on_c, 3, 49, 64
8, 467156, Note_on_c, 3, 49, 0
8, 467160, Note_on_c, 3, 45, 64
8, 467276, Note_on_c, 3, 45, 0
8, 467280, Note_on_c, 3, 50, 64
8, 467396, Note_on_c, 3, 50, 0
8, 467400, Note_on_c, 3, 52, 64
8, 467516, Note_on_c, 3, 52, 0
8, 467520, Note_on_c, 3, 50, 64
8, 467636, Note_on_c, 3, 50, 0
8, 467640, Note_on_c, 3, 49, 64
8, 467756, Note_on_c, 3, 49, 0
8, 467760, Note_on_c, 3, 47, 64
8, 467876, Note_on_c, 3, 47, 0
8, 467880, Note_on_c, 3, 45, 64
8, 467996, Note_on_c, 3, 45, 0
8, 468000, Note_on_c, 3, 43, 64
8, 468116, Note_on_c, 3, 43, 0
8, 468120, Note_on_c, 3, 42, 64
8, 468236, Note_on_c, 3, 42, 0
8, 468240, Note_on_c, 3, 43, 64
8, 468356, Note_on_c, 3, 43, 0
8, 468360, Note_on_c, 3, 45, 64
8, 468476, Note_on_c, 3, 45, 0
8, 468480, Note_on_c, 3, 47, 64
8, 468596, Note_on_c, 3, 47, 0
8, 468600, Note_on_c, 3, 43, 64
8, 468716, Note_on_c, 3, 43, 0
8, 468720, Note_on_c, 3, 49, 64
8, 468836, Note_on_c, 3, 49, 0
8, 468840, Note_on_c, 3, 50, 64
8, 468956, Note_on_c, 3, 50, 0
8, 468960, Note_on_c, 3, 49, 64
8, 469076, Note_on_c, 3, 49, 0
8, 469080, Note_on_c, 3, 47, 64
8, 469196, Note_on_c, 3, 47, 0
8, 469200, Note_on_c, 3, 46, 64
8, 469316, Note_on_c, 3, 46, 0
8, 469320, Note_on_c, 3, 44, 64
8, 469436, Note_on_c, 3, 44, 0
8, 469440, Note_on_c, 3, 42, 64
8, 469676, Note_on_c, 3, 42, 0
8, 469680, Note_on_c, 3, 42, 64
8, 469916, Note_on_c, 3, 42, 0
8, 469920, Note_on_c, 3, 42, 64
8, 470156, Note_on_c, 3, 42, 0
8, 470160, Note_on_c, 3, 42, 64
8, 470396, Note_on_c, 3, 42, 0
8, 470400, Note_on_c, 3, 42, 64
8, 470636, Note_on_c, 3, 42, 0
8, 470640, Note_on_c, 3, 42, 64
8, 470876, Note_on_c, 3, 42, 0
8, 470880, Note_on_c, 3, 42, 64
8, 471116, Note_on_c, 3, 42, 0
8, 471120, Note_on_c, 3, 42, 64
8, 471356, Note_on_c, 3, 42, 0
8, 471360, Note_on_c, 3, 42, 64
8, 471596, Note_on_c, 3, 42, 0
8, 471600, Note_on_c, 3, 42, 64
8, 471836, Note_on_c, 3, 42, 0
8, 471840, Note_on_c, 3, 42, 64
8, 472076, Note_on_c, 3, 42, 0
8, 472080, Note_on_c, 3, 42, 64
8, 472316, Note_on_c, 3, 42, 0
8, 472320, Note_on_c, 3, 42, 64
8, 472556, Note_on_c, 3, 42, 0
8, 472560, Note_on_c, 3, 42, 64
8, 472796, Note_on_c, 3, 42, 0
8, 472800, Note_on_c, 3, 42, 64
8, 473036, Note_on_c, 3, 42, 0
8, 473040, Note_on_c, 3, 42, 64
8, 473276, Note_on_c, 3, 42, 0
8, 473280, Note_on_c, 3, 42, 64
8, 473516, Note_on_c, 3, 42, 0
8, 473520, Note_on_c, 3, 42, 64
8, 473756, Note_on_c, 3, 42, 0
8, 473760, Note_on_c, 3, 42, 64
8, 473996, Note_on_c, 3, 42, 0
8, 474000, Note_on_c, 3, 42, 64
8, 474236, Note_on_c, 3, 42, 0
8, 474240, Note_on_c, 3, 42, 64
8, 474476, Note_on_c, 3, 42, 0
8, 474480, Note_on_c, 3, 42, 64
8, 474716, Note_on_c, 3, 42, 0
8, 474720, Note_on_c, 3, 42, 64
8, 474956, Note_on_c, 3, 42, 0
8, 474960, Note_on_c, 3, 42, 64
8, 475196, Note_on_c, 3, 42, 0
8, 475200, Note_on_c, 3, 42, 64
8, 475436, Note_on_c, 3, 42, 0
8, 475440, Note_on_c, 3, 46, 64
8, 475676, Note_on_c, 3, 46, 0
8, 475680, Note_on_c, 3, 49, 64
8, 475916, Note_on_c, 3, 49, 0
8, 475920, Note_on_c, 3, 46, 64
8, 476156, Note_on_c, 3, 46, 0
8, 476160, Note_on_c, 3, 49, 64
8, 476396, Note_on_c, 3, 49, 0
8, 476400, Note_on_c, 3, 54, 64
8, 476636, Note_on_c, 3, 54, 0
8, 476640, Note_on_c, 3, 47, 64
8, 476876, Note_on_c, 3, 47, 0
8, 476880, Note_on_c, 3, 51, 64
8, 477116, Note_on_c, 3, 51, 0
8, 477120, Note_on_c, 3, 54, 64
8, 477356, Note_on_c, 3, 54, 0
8, 477360, Note_on_c, 3, 51, 64
8, 477596, Note_on_c, 3, 51, 0
8, 477600, Note_on_c, 3, 54, 64
8, 477836, Note_on_c, 3, 54, 0
8, 477840, Note_on_c, 3, 59, 64
8, 478076, Note_on_c, 3, 59, 0
8, 478080, Note_on_c, 3, 40, 64
8, 478556, Note_on_c, 3, 40, 0
8, 479520, Note_on_c, 3, 52, 64
8, 479996, Note_on_c, 3, 52, 0
8, 480960, Note_on_c, 3, 50, 64
8, 481196, Note_on_c, 3, 50, 0
8, 481200, Note_on_c, 3, 49, 64
8, 481436, Note_on_c, 3, 49, 0
8, 481440, Note_on_c, 3, 47, 64
8, 481676, Note_on_c, 3, 47, 0
8, 481680, Note_on_c, 3, 54, 64
8, 482156, Note_on_c, 3, 54, 0
8, 482160, Note_on_c, 3, 42, 64
8, 482396, Note_on_c, 3, 42, 0
8, 482400, Note_on_c, 3, 47, 64
8, 482636, Note_on_c, 3, 47, 0
8, 482640, Note_on_c, 3, 50, 64
8, 482876, Note_on_c, 3, 50, 0
8, 482880, Note_on_c, 3, 54, 64
8, 483116, Note_on_c, 3, 54, 0
8, 483120, Note_on_c, 3, 59, 64
8, 483356, Note_on_c, 3, 59, 0
8, 483360, Note_on_c, 3, 57, 64
8, 483476, Note_on_c, 3, 57, 0
8, 483480, Note_on_c, 3, 55, 64
8, 483596, Note_on_c, 3, 55, 0
8, 483600, Note_on_c, 3, 54, 64
8, 483716, Note_on_c, 3, 54, 0
8, 483720, Note_on_c, 3, 52, 64
8, 483836, Note_on_c, 3, 52, 0
8, 483840, Note_on_c, 3, 51, 64
8, 484076, Note_on_c, 3, 51, 0
8, 484080, Note_on_c, 3, 54, 64
8, 484316, Note_on_c, 3, 54, 0
8, 484320, Note_on_c, 3, 59, 64
8, 484556, Note_on_c, 3, 59, 0
8, 484560, Note_on_c, 3, 47, 64
8, 484796, Note_on_c, 3, 47, 0
8, 484800, Note_on_c, 3, 54, 64
8, 485036, Note_on_c, 3, 54, 0
8, 485040, Note_on_c, 3, 59, 64
8, 485276, Note_on_c, 3, 59, 0
8, 485280, Note_on_c, 3, 52, 64
8, 485516, Note_on_c, 3, 52, 0
8, 485520, Note_on_c, 3, 55, 64
8, 485756, Note_on_c, 3, 55, 0
8, 485760, Note_on_c, 3, 59, 64
8, 485996, Note_on_c, 3, 59, 0
8, 486000, Note_on_c, 3, 64, 64
8, 486236, Note_on_c, 3, 64, 0
8, 486240, Note_on_c, 3, 62, 64
8, 486356, Note_on_c, 3, 62, 0
8, 486360, Note_on_c, 3, 60, 64
8, 486476, Note_on_c, 3, 60, 0
8, 486480, Note_on_c, 3, 59, 64
8, 486596, Note_on_c, 3, 59, 0
8, 486600, Note_on_c, 3, 57, 64
8, 486716, Note_on_c, 3, 57, 0
8, 486720, Note_on_c, 3, 56, 64
8, 486956, Note_on_c, 3, 56, 0
8, 486960, Note_on_c, 3, 59, 64
8, 487196, Note_on_c, 3, 59, 0
8, 487200, Note_on_c, 3, 64, 64
8, 487436, Note_on_c, 3, 64, 0
8, 487440, Note_on_c, 3, 52, 64
8, 487676, Note_on_c, 3, 52, 0
8, 487680, Note_on_c, 3, 59, 64
8, 487916, Note_on_c, 3, 59, 0
8, 487920, Note_on_c, 3, 64, 64
8, 488156, Note_on_c, 3, 64, 0
8, 488160, Note_on_c, 3, 45, 64
8, 488396, Note_on_c, 3, 45, 0
8, 488400, Note_on_c, 3, 48, 64
8, 488636, Note_on_c, 3, 48, 0
8, 488640, Note_on_c, 3, 52, 64
8, 488876, Note_on_c, 3, 52, 0
8, 488880, Note_on_c, 3, 57, 64
8, 488996, Note_on_c, 3, 57, 0
8, 489000, Note_on_c, 3, 59, 64
8, 489116, Note_on_c, 3, 59, 0
8, 489120, Note_on_c, 3, 57, 64
8, 489236, Note_on_c, 3, 57, 0
8, 489240, Note_on_c, 3, 55, 64
8, 489356, Note_on_c, 3, 55, 0
8, 489360, Note_on_c, 3, 53, 64
8, 489476, Note_on_c, 3, 53, 0
8, 489480, Note_on_c, 3, 52, 64
8, 489596, Note_on_c, 3, 52, 0
8, 489600, Note_on_c, 3, 50, 64
8, 489836, Note_on_c, 3, 50, 0
8, 489840, Note_on_c, 3, 57, 64
8, 490076, Note_on_c, 3, 57, 0
8, 490080, Note_on_c, 3, 62, 64
8, 490316, Note_on_c, 3, 62, 0
8, 490320, Note_on_c, 3, 55, 64
8, 490556, Note_on_c, 3, 55, 0
8, 490560, Note_on_c, 3, 50, 64
8, 490796, Note_on_c, 3, 50, 0
8, 490800, Note_on_c, 3, 43, 64
8, 491036, Note_on_c, 3, 43, 0
8, 491040, Note_on_c, 3, 48, 64
8, 491276, Note_on_c, 3, 48, 0
8, 491280, Note_on_c, 3, 55, 64
8, 491516, Note_on_c, 3, 55, 0
8, 491520, Note_on_c, 3, 60, 64
8, 491756, Note_on_c, 3, 60, 0
8, 491760, Note_on_c, 3, 53, 64
8, 491996, Note_on_c, 3, 53, 0
8, 492000, Note_on_c, 3, 48, 64
8, 492236, Note_on_c, 3, 48, 0
8, 492240, Note_on_c, 3, 41, 64
8, 492476, Note_on_c, 3, 41, 0
8, 492480, Note_on_c, 3, 53, 64
8, 492956, Note_on_c, 3, 53, 0
8, 493200, Note_on_c, 3, 52, 64
8, 493676, Note_on_c, 3, 52, 0
8, 493920, Note_on_c, 3, 50, 64
8, 494396, Note_on_c, 3, 50, 0
8, 494640, Note_on_c, 3, 48, 64
8, 495116, Note_on_c, 3, 48, 0
8, 495360, Note_on_c, 3, 47, 64
8, 495596, Note_on_c, 3, 47, 0
8, 495600, Note_on_c, 3, 50, 64
8, 495836, Note_on_c, 3, 50, 0
8, 495840, Note_on_c, 3, 55, 64
8, 496076, Note_on_c, 3, 55, 0
8, 496080, Note_on_c, 3, 48, 64
8, 496316, Note_on_c, 3, 48, 0
8, 496320, Note_on_c, 3, 52, 64
8, 496556, Note_on_c, 3, 52, 0
8, 496560, Note_on_c, 3, 55, 64
8, 496796, Note_on_c, 3, 55, 0
8, 496800, Note_on_c, 3, 47, 64
8, 496916, Note_on_c, 3, 47, 0
8, 496920, Note_on_c, 3, 50, 64
8, 497036, Note_on_c, 3, 50, 0
8, 497040, Note_on_c, 3, 43, 64
8, 497156, Note_on_c, 3, 43, 0
8, 497160, Note_on_c, 3, 50, 64
8, 497276, Note_on_c, 3, 50, 0
8, 497280, Note_on_c, 3, 47, 64
8, 497396, Note_on_c, 3, 47, 0
8, 497400, Note_on_c, 3, 50, 64
8, 497516, Note_on_c, 3, 50, 0
8, 497520, Note_on_c, 3, 48, 64
8, 497636, Note_on_c, 3, 48, 0
8, 497640, Note_on_c, 3, 52, 64
8, 497756, Note_on_c, 3, 52, 0
8, 497760, Note_on_c, 3, 43, 64
8, 497876, Note_on_c, 3, 43, 0
8, 497880, Note_on_c, 3, 52, 64
8, 497996, Note_on_c, 3, 52, 0
8, 498000, Note_on_c, 3, 48, 64
8, 498116, Note_on_c, 3, 48, 0
8, 498120, Note_on_c, 3, 52, 64
8, 498236, Note_on_c, 3, 52, 0
8, 498240, Note_on_c, 3, 42, 64
8, 498476, Note_on_c, 3, 42, 0
8, 498480, Note_on_c, 3, 42, 64
8, 498716, Note_on_c, 3, 42, 0
8, 498720, Note_on_c, 3, 42, 64
8, 498956, Note_on_c, 3, 42, 0
8, 498960, Note_on_c, 3, 42, 64
8, 499196, Note_on_c, 3, 42, 0
8, 499200, Note_on_c, 3, 42, 64
8, 499436, Note_on_c, 3, 42, 0
8, 499440, Note_on_c, 3, 42, 64
8, 499676, Note_on_c, 3, 42, 0
8, 499680, Note_on_c, 3, 41, 64
8, 499916, Note_on_c, 3, 41, 0
8, 499920, Note_on_c, 3, 41, 64
8, 500156, Note_on_c, 3, 41, 0
8, 500160, Note_on_c, 3, 41, 64
8, 500396, Note_on_c, 3, 41, 0
8, 500400, Note_on_c, 3, 41, 64
8, 500636, Note_on_c, 3, 41, 0
8, 500640, Note_on_c, 3, 41, 64
8, 500876, Note_on_c, 3, 41, 0
8, 500880, Note_on_c, 3, 41, 64
8, 501116, Note_on_c, 3, 41, 0
8, 501120, Note_on_c, 3, 40, 64
8, 501596, Note_on_c, 3, 40, 0
8, 501840, Note_on_c, 3, 41, 64
8, 502316, Note_on_c, 3, 41, 0
8, 502560, Note_on_c, 3, 43, 64
8, 503036, Note_on_c, 3, 43, 0
8, 503280, Note_on_c, 3, 45, 64
8, 503756, Note_on_c, 3, 45, 0
8, 504000, Note_on_c, 3, 40, 64
8, 504476, Note_on_c, 3, 40, 0
8, 504720, Note_on_c, 3, 41, 64
8, 505196, Note_on_c, 3, 41, 0
8, 505440, Note_on_c, 3, 43, 64
8, 505676, Note_on_c, 3, 43, 0
8, 505680, Note_on_c, 3, 41, 64
8, 505916, Note_on_c, 3, 41, 0
8, 505920, Note_on_c, 3, 43, 64
8, 506156, Note_on_c, 3, 43, 0
8, 506160, Note_on_c, 3, 36, 64
8, 506636, Note_on_c, 3, 36, 0
8, 506640, Note_on_c, 3, 38, 64
8, 506876, Note_on_c, 3, 38, 0
8, 506880, Note_on_c, 3, 40, 64
8, 507116, Note_on_c, 3, 40, 0
8, 507120, Note_on_c, 3, 38, 64
8, 507356, Note_on_c, 3, 38, 0
8, 507360, Note_on_c, 3, 36, 64
8, 507596, Note_on_c, 3, 36, 0
8, 507600, Note_on_c, 3, 43, 64
8, 507836, Note_on_c, 3, 43, 0
8, 507840, Note_on_c, 3, 45, 64
8, 508076, Note_on_c, 3, 45, 0
8, 508080, Note_on_c, 3, 47, 64
8, 508316, Note_on_c, 3, 47, 0
8, 508320, Note_on_c, 3, 48, 64
8, 508796, Note_on_c, 3, 48, 0
8, 509040, Note_on_c, 3, 55, 64
8, 509516, Note_on_c, 3, 55, 0
8, 509760, Note_on_c, 3, 48, 64
8, 510236, Note_on_c, 3, 48, 0
8, 510480, Note_on_c, 3, 43, 64
8, 510956, Note_on_c, 3, 43, 0
8, 511200, Note_on_c, 3, 48, 64
8, 511316, Note_on_c, 3, 48, 0
8, 511320, Note_on_c, 3, 47, 64
8, 511436, Note_on_c, 3, 47, 0
8, 511440, Note_on_c, 3, 48, 64
8, 511556, Note_on_c, 3, 48, 0
8, 511560, Note_on_c, 3, 50, 64
8, 511676, Note_on_c, 3, 50, 0
8, 511680, Note_on_c, 3, 52, 64
8, 511796, Note_on_c, 3, 52, 0
8, 511800, Note_on_c, 3, 53, 64
8, 511916, Note_on_c, 3, 53, 0
8, 511920, Note_on_c, 3, 55, 64
8, 512036, Note_on_c, 3, 55, 0
8, 512040, Note_on_c, 3, 57, 64
8, 512156, Note_on_c, 3, 57, 0
8, 512160, Note_on_c, 3, 55, 64
8, 512276, Note_on_c, 3, 55, 0
8, 512280, Note_on_c, 3, 53, 64
8, 512396, Note_on_c, 3, 53, 0
8, 512400, Note_on_c, 3, 52, 64
8, 512516, Note_on_c, 3, 52, 0
8, 512520, Note_on_c, 3, 50, 64
8, 512636, Note_on_c, 3, 50, 0
8, 512640, Note_on_c, 3, 48, 64
8, 512756, Note_on_c, 3, 48, 0
8, 512760, Note_on_c, 3, 47, 64
8, 512876, Note_on_c, 3, 47, 0
8, 512880, Note_on_c, 3, 48, 64
8, 512996, Note_on_c, 3, 48, 0
8, 513000, Note_on_c, 3, 50, 64
8, 513116, Note_on_c, 3, 50, 0
8, 513120, Note_on_c, 3, 52, 64
8, 513236, Note_on_c, 3, 52, 0
8, 513240, Note_on_c, 3, 48, 64
8, 513356, Note_on_c, 3, 48, 0
8, 513360, Note_on_c, 3, 54, 64
8, 513476, Note_on_c, 3, 54, 0
8, 513480, Note_on_c, 3, 55, 64
8, 513596, Note_on_c, 3, 55, 0
8, 513600, Note_on_c, 3, 54, 64
8, 513716, Note_on_c, 3, 54, 0
8, 513720, Note_on_c, 3, 52, 64
8, 513836, Note_on_c, 3, 52, 0
8, 513840, Note_on_c, 3, 50, 64
8, 513956, Note_on_c, 3, 50, 0
8, 513960, Note_on_c, 3, 48, 64
8, 514076, Note_on_c, 3, 48, 0
8, 514080, Note_on_c, 3, 47, 64
8, 514196, Note_on_c, 3, 47, 0
8, 514200, Note_on_c, 3, 45, 64
8, 514316, Note_on_c, 3, 45, 0
8, 514320, Note_on_c, 3, 47, 64
8, 514436, Note_on_c, 3, 47, 0
8, 514440, Note_on_c, 3, 48, 64
8, 514556, Note_on_c, 3, 48, 0
8, 514560, Note_on_c, 3, 50, 64
8, 514676, Note_on_c, 3, 50, 0
8, 514680, Note_on_c, 3, 47, 64
8, 514796, Note_on_c, 3, 47, 0
8, 514800, Note_on_c, 3, 52, 64
8, 514916, Note_on_c, 3, 52, 0
8, 514920, Note_on_c, 3, 54, 64
8, 515036, Note_on_c, 3, 54, 0
8, 515040, Note_on_c, 3, 52, 64
8, 515156, Note_on_c, 3, 52, 0
8, 515160, Note_on_c, 3, 50, 64
8, 515276, Note_on_c, 3, 50, 0
8, 515280, Note_on_c, 3, 48, 64
8, 515396, Note_on_c, 3, 48, 0
8, 515400, Note_on_c, 3, 47, 64
8, 515516, Note_on_c, 3, 47, 0
8, 515520, Note_on_c, 3, 45, 64
8, 515636, Note_on_c, 3, 45, 0
8, 515640, Note_on_c, 3, 43, 64
8, 515756, Note_on_c, 3, 43, 0
8, 515760, Note_on_c, 3, 45, 64
8, 515876, Note_on_c, 3, 45, 0
8, 515880, Note_on_c, 3, 47, 64
8, 515996, Note_on_c, 3, 47, 0
8, 516000, Note_on_c, 3, 48, 64
8, 516116, Note_on_c, 3, 48, 0
8, 516120, Note_on_c, 3, 45, 64
8, 516236, Note_on_c, 3, 45, 0
8, 516240, Note_on_c, 3, 50, 64
8, 516356, Note_on_c, 3, 50, 0
8, 516360, Note_on_c, 3, 52, 64
8, 516476, Note_on_c, 3, 52, 0
8, 516480, Note_on_c, 3, 50, 64
8, 516596, Note_on_c, 3, 50, 0
8, 516600, Note_on_c, 3, 48, 64
8, 516716, Note_on_c, 3, 48, 0
8, 516720, Note_on_c, 3, 47, 64
8, 516836, Note_on_c, 3, 47, 0
8, 516840, Note_on_c, 3, 45, 64
8, 516956, Note_on_c, 3, 45, 0
8, 516960, Note_on_c, 3, 43, 64
8, 517436, Note_on_c, 3, 43, 0
8, 517680, Note_on_c, 3, 38, 64
8, 518156, Note_on_c, 3, 38, 0
8, 518400, Note_on_c, 3, 43, 64
8, 518876, Note_on_c, 3, 43, 0
8, 519120, Note_on_c, 3, 50, 64
8, 519596, Note_on_c, 3, 50, 0
8, 519840, Note_on_c, 3, 55, 64
8, 520076, Note_on_c, 3, 55, 0
8, 520080, Note_on_c, 3, 59, 64
8, 520316, Note_on_c, 3, 59, 0
8, 520320, Note_on_c, 3, 62, 64
8, 520556, Note_on_c, 3, 62, 0
8, 520560, Note_on_c, 3, 50, 64
8, 520796, Note_on_c, 3, 50, 0
8, 520800, Note_on_c, 3, 57, 64
8, 521036, Note_on_c, 3, 57, 0
8, 521040, Note_on_c, 3, 62, 64
8, 521276, Note_on_c, 3, 62, 0
8, 521280, Note_on_c, 3, 43, 64
8, 521396, Note_on_c, 3, 43, 0
8, 521400, Note_on_c, 3, 42, 64
8, 521516, Note_on_c, 3, 42, 0
8, 521520, Note_on_c, 3, 43, 64
8, 521636, Note_on_c, 3, 43, 0
8, 521640, Note_on_c, 3, 45, 64
8, 521756, Note_on_c, 3, 45, 0
8, 521760, Note_on_c, 3, 47, 64
8, 521876, Note_on_c, 3, 47, 0
8, 521880, Note_on_c, 3, 48, 64
8, 521996, Note_on_c, 3, 48, 0
8, 522000, Note_on_c, 3, 50, 64
8, 522116, Note_on_c, 3, 50, 0
8, 522120, Note_on_c, 3, 52, 64
8, 522236, Note_on_c, 3, 52, 0
8, 522240, Note_on_c, 3, 50, 64
8, 522356, Note_on_c, 3, 50, 0
8, 522360, Note_on_c, 3, 48, 64
8, 522476, Note_on_c, 3, 48, 0
8, 522480, Note_on_c, 3, 47, 64
8, 522596, Note_on_c, 3, 47, 0
8, 522600, Note_on_c, 3, 45, 64
8, 522716, Note_on_c, 3, 45, 0
8, 522720, Note_on_c, 3, 43, 64
8, 522836, Note_on_c, 3, 43, 0
8, 522840, Note_on_c, 3, 42, 64
8, 522956, Note_on_c, 3, 42, 0
8, 522960, Note_on_c, 3, 43, 64
8, 523076, Note_on_c, 3, 43, 0
8, 523080, Note_on_c, 3, 45, 64
8, 523196, Note_on_c, 3, 45, 0
8, 523200, Note_on_c, 3, 47, 64
8, 523316, Note_on_c, 3, 47, 0
8, 523320, Note_on_c, 3, 43, 64
8, 523436, Note_on_c, 3, 43, 0
8, 523440, Note_on_c, 3, 48, 64
8, 523556, Note_on_c, 3, 48, 0
8, 523560, Note_on_c, 3, 50, 64
8, 523676, Note_on_c, 3, 50, 0
8, 523680, Note_on_c, 3, 48, 64
8, 523796, Note_on_c, 3, 48, 0
8, 523800, Note_on_c, 3, 47, 64
8, 523916, Note_on_c, 3, 47, 0
8, 523920, Note_on_c, 3, 45, 64
8, 524036, Note_on_c, 3, 45, 0
8, 524040, Note_on_c, 3, 43, 64
8, 524156, Note_on_c, 3, 43, 0
8, 524160, Note_on_c, 3, 42, 64
8, 524276, Note_on_c, 3, 42, 0
8, 524280, Note_on_c, 3, 40, 64
8, 524396, Note_on_c, 3, 40, 0
8, 524400, Note_on_c, 3, 42, 64
8, 524516, Note_on_c, 3, 42, 0
8, 524520, Note_on_c, 3, 43, 64
8, 524636, Note_on_c, 3, 43, 0
8, 524640, Note_on_c, 3, 45, 64
8, 524756, Note_on_c, 3, 45, 0
8, 524760, Note_on_c, 3, 42, 64
8, 524876, Note_on_c, 3, 42, 0
8, 524880, Note_on_c, 3, 47, 64
8, 524996, Note_on_c, 3, 47, 0
8, 525000, Note_on_c, 3, 48, 64
8, 525116, Note_on_c, 3, 48, 0
8, 525120, Note_on_c, 3, 47, 64
8, 525236, Note_on_c, 3, 47, 0
8, 525240, Note_on_c, 3, 45, 64
8, 525356, Note_on_c, 3, 45, 0
8, 525360, Note_on_c, 3, 43, 64
8, 525476, Note_on_c, 3, 43, 0
8, 525480, Note_on_c, 3, 42, 64
8, 525596, Note_on_c, 3, 42, 0
8, 525600, Note_on_c, 3, 40, 64
8, 525716, Note_on_c, 3, 40, 0
8, 525720, Note_on_c, 3, 38, 64
8, 525836, Note_on_c, 3, 38, 0
8, 525840, Note_on_c, 3, 40, 64
8, 525956, Note_on_c, 3, 40, 0
8, 525960, Note_on_c, 3, 42, 64
8, 526076, Note_on_c, 3, 42, 0
8, 526080, Note_on_c, 3, 43, 64
8, 526196, Note_on_c, 3, 43, 0
8, 526200, Note_on_c, 3, 40, 64
8, 526316, Note_on_c, 3, 40, 0
8, 526320, Note_on_c, 3, 45, 64
8, 526436, Note_on_c, 3, 45, 0
8, 526440, Note_on_c, 3, 47, 64
8, 526556, Note_on_c, 3, 47, 0
8, 526560, Note_on_c, 3, 45, 64
8, 526676, Note_on_c, 3, 45, 0
8, 526680, Note_on_c, 3, 43, 64
8, 526796, Note_on_c, 3, 43, 0
8, 526800, Note_on_c, 3, 42, 64
8, 526916, Note_on_c, 3, 42, 0
8, 526920, Note_on_c, 3, 40, 64
8, 527036, Note_on_c, 3, 40, 0
8, 527040, Note_on_c, 3, 38, 64
8, 527276, Note_on_c, 3, 38, 0
8, 527280, Note_on_c, 3, 38, 64
8, 527516, Note_on_c, 3, 38, 0
8, 527520, Note_on_c, 3, 38, 64
8, 527756, Note_on_c, 3, 38, 0
8, 527760, Note_on_c, 3, 38, 64
8, 527996, Note_on_c, 3, 38, 0
8, 528000, Note_on_c, 3, 38, 64
8, 528236, Note_on_c, 3, 38, 0
8, 528240, Note_on_c, 3, 38, 64
8, 528476, Note_on_c, 3, 38, 0
8, 528480, Note_on_c, 3, 38, 64
8, 528716, Note_on_c, 3, 38, 0
8, 528720, Note_on_c, 3, 38, 64
8, 528956, Note_on_c, 3, 38, 0
8, 528960, Note_on_c, 3, 38, 64
8, 529196, Note_on_c, 3, 38, 0
8, 529200, Note_on_c, 3, 38, 64
8, 529436, Note_on_c, 3, 38, 0
8, 529440, Note_on_c, 3, 38, 64
8, 529676, Note_on_c, 3, 38, 0
8, 529680, Note_on_c, 3, 38, 64
8, 529916, Note_on_c, 3, 38, 0
8, 529920, Note_on_c, 3, 38, 64
8, 530156, Note_on_c, 3, 38, 0
8, 530160, Note_on_c, 3, 38, 64
8, 530396, Note_on_c, 3, 38, 0
8, 530400, Note_on_c, 3, 38, 64
8, 530636, Note_on_c, 3, 38, 0
8, 530640, Note_on_c, 3, 38, 64
8, 530876, Note_on_c, 3, 38, 0
8, 530880, Note_on_c, 3, 38, 64
8, 531116, Note_on_c, 3, 38, 0
8, 531120, Note_on_c, 3, 38, 64
8, 531356, Note_on_c, 3, 38, 0
8, 531360, Note_on_c, 3, 38, 64
8, 531596, Note_on_c, 3, 38, 0
8, 531600, Note_on_c, 3, 38, 64
8, 531836, Note_on_c, 3, 38, 0
8, 531840, Note_on_c, 3, 38, 64
8, 532076, Note_on_c, 3, 38, 0
8, 532080, Note_on_c, 3, 38, 64
8, 532316, Note_on_c, 3, 38, 0
8, 532320, Note_on_c, 3, 38, 64
8, 532556, Note_on_c, 3, 38, 0
8, 532560, Note_on_c, 3, 38, 64
8, 532796, Note_on_c, 3, 38, 0
8, 532800, Note_on_c, 3, 38, 64
8, 533036, Note_on_c, 3, 38, 0
8, 533040, Note_on_c, 3, 42, 64
8, 533276, Note_on_c, 3, 42, 0
8, 533280, Note_on_c, 3, 45, 64
8, 533516, Note_on_c, 3, 45, 0
8, 533520, Note_on_c, 3, 42, 64
8, 533756, Note_on_c, 3, 42, 0
8, 533760, Note_on_c, 3, 45, 64
8, 533996, Note_on_c, 3, 45, 0
8, 534000, Note_on_c, 3, 50, 64
8, 534236, Note_on_c, 3, 50, 0
8, 534240, Note_on_c, 3, 43, 64
8, 534476, Note_on_c, 3, 43, 0
8, 534480, Note_on_c, 3, 47, 64
8, 534716, Note_on_c, 3, 47, 0
8, 534720, Note_on_c, 3, 50, 64
8, 534956, Note_on_c, 3, 50, 0
8, 534960, Note_on_c, 3, 47, 64
8, 535196, Note_on_c, 3, 47, 0
8, 535200, Note_on_c, 3, 50, 64
8, 535436, Note_on_c, 3, 50, 0
8, 535440, Note_on_c, 3, 55, 64
8, 535676, Note_on_c, 3, 55, 0
8, 535680, Note_on_c, 3, 36, 64
8, 536156, Note_on_c, 3, 36, 0
8, 537120, Note_on_c, 3, 48, 64
8, 537596, Note_on_c, 3, 48, 0
8, 538560, Note_on_c, 3, 47, 64
8, 538796, Note_on_c, 3, 47, 0
8, 538800, Note_on_c, 3, 45, 64
8, 539036, Note_on_c, 3, 45, 0
8, 539040, Note_on_c, 3, 43, 64
8, 539276, Note_on_c, 3, 43, 0
8, 539280, Note_on_c, 3, 50, 64
8, 539756, Note_on_c, 3, 50, 0
8, 539760, Note_on_c, 3, 38, 64
8, 539996, Note_on_c, 3, 38, 0
8, 540000, Note_on_c, 3, 43, 64
8, 541436, Note_on_c, 3, 43, 0
8, 541436, End_track
9, 0, Start_track
9, 0, Title_t, "Violoncello  II"
9, 0, Program_c, 4, 42
9, 0, Control_c, 4, 10, 83
9, 1680, Note_on_c, 4, 43, 64
9, 1916, Note_on_c, 4, 43, 0
9, 1920, Note_on_c, 4, 43, 64
9, 2156, Note_on_c, 4, 43, 0
9, 2160, Note_on_c, 4, 55, 64
9, 2396, Note_on_c, 4, 55, 0
9, 2400, Note_on_c, 4, 55, 64
9, 2636, Note_on_c, 4, 55, 0
9, 2640, Note_on_c, 4, 43, 64
9, 2876, Note_on_c, 4, 43, 0
9, 2880, Note_on_c, 4, 43, 64
9, 3116, Note_on_c, 4, 43, 0
9, 3120, Note_on_c, 4, 55, 64
9, 3356, Note_on_c, 4, 55, 0
9, 3360, Note_on_c, 4, 55, 64
9, 3596, Note_on_c, 4, 55, 0
9, 3600, Note_on_c, 4, 43, 64
9, 3836, Note_on_c, 4, 43, 0
9, 3840, Note_on_c, 4, 43, 64
9, 4076, Note_on_c, 4, 43, 0
9, 4080, Note_on_c, 4, 55, 64
9, 4196, Note_on_c, 4, 55, 0
9, 4200, Note_on_c, 4, 54, 64
9, 4316, Note_on_c, 4, 54, 0
9, 4320, Note_on_c, 4, 52, 64
9, 4556, Note_on_c, 4, 52, 0
9, 4560, Note_on_c, 4, 57, 64
9, 4796, Note_on_c, 4, 57, 0
9, 4800, Note_on_c, 4, 50, 64
9, 5036, Note_on_c, 4, 50, 0
9, 5040, Note_on_c, 4, 62, 64
9, 5156, Note_on_c, 4, 62, 0
9, 5160, Note_on_c, 4, 61, 64
9, 5276, Note_on_c, 4, 61, 0
9, 5280, Note_on_c, 4, 62, 64
9, 5516, Note_on_c, 4, 62, 0
9, 5520, Note_on_c, 4, 50, 64
9, 5756, Note_on_c, 4, 50, 0
9, 5760, Note_on_c, 4, 50, 64
9, 5996, Note_on_c, 4, 50, 0
9, 6000, Note_on_c, 4, 62, 64
9, 6116, Note_on_c, 4, 62, 0
9, 6120, Note_on_c, 4, 61, 64
9, 6236, Note_on_c, 4, 61, 0
9, 6240, Note_on_c, 4, 62, 64
9, 6476, Note_on_c, 4, 62, 0
9, 6480, Note_on_c, 4, 50, 64
9, 6716, Note_on_c, 4, 50, 0
9, 6720, Note_on_c, 4, 50, 64
9, 6956, Note_on_c, 4, 50, 0
9, 6960, Note_on_c, 4, 62, 64
9, 7076, Note_on_c, 4, 62, 0
9, 7080, Note_on_c, 4, 61, 64
9, 7196, Note_on_c, 4, 61, 0
9, 7200, Note_on_c, 4, 62, 64
9, 7436, Note_on_c, 4, 62, 0
9, 7440, Note_on_c, 4, 50, 64
9, 7676, Note_on_c, 4, 50, 0
9, 7680, Note_on_c, 4, 55, 64
9, 7916, Note_on_c, 4, 55, 0
9, 7920, Note_on_c, 4, 52, 64
9, 8156, Note_on_c, 4, 52, 0
9, 8160, Note_on_c, 4, 48, 64
9, 8396, Note_on_c, 4, 48, 0
9, 8400, Note_on_c, 4, 50, 64
9, 8636, Note_on_c, 4, 50, 0
9, 8640, Note_on_c, 4, 52, 64
9, 8876, Note_on_c, 4, 52, 0
9, 8880, Note_on_c, 4, 50, 64
9, 8996, Note_on_c, 4, 50, 0
9, 9000, Note_on_c, 4, 48, 64
9, 9116, Note_on_c, 4, 48, 0
9, 9120, Note_on_c, 4, 47, 64
9, 9356, Note_on_c, 4, 47, 0
9, 9360, Note_on_c, 4, 45, 64
9, 9476, Note_on_c, 4, 45, 0
9, 9480, Note_on_c, 4, 43, 64
9, 9596, Note_on_c, 4, 43, 0
9, 9600, Note_on_c, 4, 48, 64
9, 9836, Note_on_c, 4, 48, 0
9, 9840, Note_on_c, 4, 47, 64
9, 9956, Note_on_c, 4, 47, 0
9, 9960, Note_on_c, 4, 45, 64
9, 10076, Note_on_c, 4, 45, 0
9, 10080, Note_on_c, 4, 43, 64
9, 10316, Note_on_c, 4, 43, 0
9, 10320, Note_on_c, 4, 55, 64
9, 10436, Note_on_c, 4, 55, 0
9, 10440, Note_on_c, 4, 54, 64
9, 10556, Note_on_c, 4, 54, 0
9, 10560, Note_on_c, 4, 52, 64
9, 10796, Note_on_c, 4, 52, 0
9, 10800, Note_on_c, 4, 50, 64
9, 10916, Note_on_c, 4, 50, 0
9, 10920, Note_on_c, 4, 48, 64
9, 11036, Note_on_c, 4, 48, 0
9, 11040, Note_on_c, 4, 47, 64
9, 11276, Note_on_c, 4, 47, 0
9, 11280, Note_on_c, 4, 49, 64
9, 11516, Note_on_c, 4, 49, 0
9, 11520, Note_on_c, 4, 50, 64
9, 11756, Note_on_c, 4, 50, 0
9, 11760, Note_on_c, 4, 38, 64
9, 11996, Note_on_c, 4, 38, 0
9, 12000, Note_on_c, 4, 38, 64
9, 12236, Note_on_c, 4, 38, 0
9, 12240, Note_on_c, 4, 50, 64
9, 12356, Note_on_c, 4, 50, 0
9, 12360, Note_on_c, 4, 52, 64
9, 12476, Note_on_c, 4, 52, 0
9, 12480, Note_on_c, 4, 54, 64
9, 12716, Note_on_c, 4, 54, 0
9, 12720, Note_on_c, 4, 55, 64
9, 12956, Note_on_c, 4, 55, 0
9, 12960, Note_on_c, 4, 57, 64
9, 13196, Note_on_c, 4, 57, 0
9, 13200, Note_on_c, 4, 54, 64
9, 13436, Note_on_c, 4, 54, 0
9, 13440, Note_on_c, 4, 55, 64
9, 13676, Note_on_c, 4, 55, 0
9, 13680, Note_on_c, 4, 60, 64
9, 13916, Note_on_c, 4, 60, 0
9, 13920, Note_on_c, 4, 62, 64
9, 14156, Note_on_c, 4, 62, 0
9, 14160, Note_on_c, 4, 50, 64
9, 14396, Note_on_c, 4, 50, 0
9, 14400, Note_on_c, 4, 55, 64
9, 14636, Note_on_c, 4, 55, 0
9, 14640, Note_on_c, 4, 54, 64
9, 14756, Note_on_c, 4, 54, 0
9, 14760, Note_on_c, 4, 52, 64
9, 14876, Note_on_c, 4, 52, 0
9, 14880, Note_on_c, 4, 50, 64
9, 14996, Note_on_c, 4, 50, 0
9, 15000, Note_on_c, 4, 48, 64
9, 15116, Note_on_c, 4, 48, 0
9, 15120, Note_on_c, 4, 47, 64
9, 15236, Note_on_c, 4, 47, 0
9, 15240, Note_on_c, 4, 45, 64
9, 15356, Note_on_c, 4, 45, 0
9, 15360, Note_on_c, 4, 47, 64
9, 15596, Note_on_c, 4, 47, 0
9, 15600, Note_on_c, 4, 45, 64
9, 15716, Note_on_c, 4, 45, 0
9, 15720, Note_on_c, 4, 43, 64
9, 15836, Note_on_c, 4, 43, 0
9, 15840, Note_on_c, 4, 50, 64
9, 16076, Note_on_c, 4, 50, 0
9, 16080, Note_on_c, 4, 38, 64
9, 16316, Note_on_c, 4, 38, 0
9, 16320, Note_on_c, 4, 43, 64
9, 16796, Note_on_c, 4, 43, 0
9, 17040, Note_on_c, 4, 50, 64
9, 17276, Note_on_c, 4, 50, 0
9, 17280, Note_on_c, 4, 43, 64
9, 17756, Note_on_c, 4, 43, 0
9, 18960, Note_on_c, 4, 59, 64
9, 19076, Note_on_c, 4, 59, 0
9, 19080, Note_on_c, 4, 57, 64
9, 19196, Note_on_c, 4, 57, 0
9, 19200, Note_on_c, 4, 55, 64
9, 19436, Note_on_c, 4, 55, 0
9, 19440, Note_on_c, 4, 50, 64
9, 19676, Note_on_c, 4, 50, 0
9, 19680, Note_on_c, 4, 47, 64
9, 19916, Note_on_c, 4, 47, 0
9, 19920, Note_on_c, 4, 49, 64
9, 20156, Note_on_c, 4, 49, 0
9, 20160, Note_on_c, 4, 50, 64
9, 20636, Note_on_c, 4, 50, 0
9, 20880, Note_on_c, 4, 57, 64
9, 21116, Note_on_c, 4, 57, 0
9, 21120, Note_on_c, 4, 62, 64
9, 21596, Note_on_c, 4, 62, 0
9, 21840, Note_on_c, 4, 57, 64
9, 22076, Note_on_c, 4, 57, 0
9, 22080, Note_on_c, 4, 50, 64
9, 22556, Note_on_c, 4, 50, 0
9, 22800, Note_on_c, 4, 45, 64
9, 23036, Note_on_c, 4, 45, 0
9, 23040, Note_on_c, 4, 38, 64
9, 23276, Note_on_c, 4, 38, 0
9, 23280, Note_on_c, 4, 47, 64
9, 23516, Note_on_c, 4, 47, 0
9, 23520, Note_on_c, 4, 43, 64
9, 23756, Note_on_c, 4, 43, 0
9, 23760, Note_on_c, 4, 45, 64
9, 23996, Note_on_c, 4, 45, 0
9, 24000, Note_on_c, 4, 47, 64
9, 24236, Note_on_c, 4, 47, 0
9, 24240, Note_on_c, 4, 45, 64
9, 24356, Note_on_c, 4, 45, 0
9, 24360, Note_on_c, 4, 43, 64
9, 24476, Note_on_c, 4, 43, 0
9, 24480, Note_on_c, 4, 42, 64
9, 24716, Note_on_c, 4, 42, 0
9, 24720, Note_on_c, 4, 40, 64
9, 24836, Note_on_c, 4, 40, 0
9, 24840, Note_on_c, 4, 38, 64
9, 24956, Note_on_c, 4, 38, 0
9, 24960, Note_on_c, 4, 43, 64
9, 25196, Note_on_c, 4, 43, 0
9, 25200, Note_on_c, 4, 42, 64
9, 25316, Note_on_c, 4, 42, 0
9, 25320, Note_on_c, 4, 40, 64
9, 25436, Note_on_c, 4, 40, 0
9, 25440, Note_on_c, 4, 38, 64
9, 25676, Note_on_c, 4, 38, 0
9, 25680, Note_on_c, 4, 62, 64
9, 25796, Note_on_c, 4, 62, 0
9, 25800, Note_on_c, 4, 61, 64
9, 25916, Note_on_c, 4, 61, 0
9, 25920, Note_on_c, 4, 59, 64
9, 26156, Note_on_c, 4, 59, 0
9, 26160, Note_on_c, 4, 57, 64
9, 26276, Note_on_c, 4, 57, 0
9, 26280, Note_on_c, 4, 55, 64
9, 26396, Note_on_c, 4, 55, 0
9, 26400, Note_on_c, 4, 54, 64
9, 26636, Note_on_c, 4, 54, 0
9, 26640, Note_on_c, 4, 56, 64
9, 26876, Note_on_c, 4, 56, 0
9, 26880, Note_on_c, 4, 57, 64
9, 27116, Note_on_c, 4, 57, 0
9, 27120, Note_on_c, 4, 45, 64
9, 27356, Note_on_c, 4, 45, 0
9, 27360, Note_on_c, 4, 45, 64
9, 27596, Note_on_c, 4, 45, 0
9, 27600, Note_on_c, 4, 57, 64
9, 27716, Note_on_c, 4, 57, 0
9, 27720, Note_on_c, 4, 59, 64
9, 27836, Note_on_c, 4, 59, 0
9, 27840, Note_on_c, 4, 61, 64
9, 28076, Note_on_c, 4, 61, 0
9, 28080, Note_on_c, 4, 62, 64
9, 28316, Note_on_c, 4, 62, 0
9, 28320, Note_on_c, 4, 64, 64
9, 28556, Note_on_c, 4, 64, 0
9, 28560, Note_on_c, 4, 61, 64
9, 28796, Note_on_c, 4, 61, 0
9, 28800, Note_on_c, 4, 62, 64
9, 29036, Note_on_c, 4, 62, 0
9, 29040, Note_on_c, 4, 55, 64
9, 29276, Note_on_c, 4, 55, 0
9, 29280, Note_on_c, 4, 57, 64
9, 29516, Note_on_c, 4, 57, 0
9, 29520, Note_on_c, 4, 45, 64
9, 29756, Note_on_c, 4, 45, 0
9, 29760, Note_on_c, 4, 50, 64
9, 29996, Note_on_c, 4, 50, 0
9, 30000, Note_on_c, 4, 62, 64
9, 30116, Note_on_c, 4, 62, 0
9, 30120, Note_on_c, 4, 61, 64
9, 30236, Note_on_c, 4, 61, 0
9, 30240, Note_on_c, 4, 59, 64
9, 30356, Note_on_c, 4, 59, 0
9, 30360, Note_on_c, 4, 61, 64
9, 30476, Note_on_c, 4, 61, 0
9, 30480, Note_on_c, 4, 59, 64
9, 30596, Note_on_c, 4, 59, 0
9, 30600, Note_on_c, 4, 57, 64
9, 30716, Note_on_c, 4, 57, 0
9, 30720, Note_on_c, 4, 55, 64
9, 31196, Note_on_c, 4, 55, 0
9, 32400, Note_on_c, 4, 62, 64
9, 32516, Note_on_c, 4, 62, 0
9, 32520, Note_on_c, 4, 60, 64
9, 32636, Note_on_c, 4, 60, 0
9, 32640, Note_on_c, 4, 59, 64
9, 32756, Note_on_c, 4, 59, 0
9, 32760, Note_on_c, 4, 60, 64
9, 32876, Note_on_c, 4, 60, 0
9, 32880, Note_on_c, 4, 59, 64
9, 32996, Note_on_c, 4, 59, 0
9, 33000, Note_on_c, 4, 57, 64
9, 33116, Note_on_c, 4, 57, 0
9, 33120, Note_on_c, 4, 55, 64
9, 33356, Note_on_c, 4, 55, 0
9, 33360, Note_on_c, 4, 49, 64
9, 33596, Note_on_c, 4, 49, 0
9, 33600, Note_on_c, 4, 50, 64
9, 34076, Note_on_c, 4, 50, 0
9, 34320, Note_on_c, 4, 57, 64
9, 34556, Note_on_c, 4, 57, 0
9, 34560, Note_on_c, 4, 62, 64
9, 35036, Note_on_c, 4, 62, 0
9, 35280, Note_on_c, 4, 57, 64
9, 35516, Note_on_c, 4, 57, 0
9, 35520, Note_on_c, 4, 50, 64
9, 35996, Note_on_c, 4, 50, 0
9, 36240, Note_on_c, 4, 45, 64
9, 36476, Note_on_c, 4, 45, 0
9, 36480, Note_on_c, 4, 38, 64
9, 36716, Note_on_c, 4, 38, 0
9, 36720, Note_on_c, 4, 50, 64
9, 36956, Note_on_c, 4, 50, 0
9, 36960, Note_on_c, 4, 50, 64
9, 37196, Note_on_c, 4, 50, 0
9, 37200, Note_on_c, 4, 38, 64
9, 37436, Note_on_c, 4, 38, 0
9, 37440, Note_on_c, 4, 38, 64
9, 37676, Note_on_c, 4, 38, 0
9, 37680, Note_on_c, 4, 50, 64
9, 37916, Note_on_c, 4, 50, 0
9, 37920, Note_on_c, 4, 50, 64
9, 38156, Note_on_c, 4, 50, 0
9, 38160, Note_on_c, 4, 38, 64
9, 38396, Note_on_c, 4, 38, 0
9, 38400, Note_on_c, 4, 38, 64
9, 38636, Note_on_c, 4, 38, 0
9, 38640, Note_on_c, 4, 50, 64
9, 38756, Note_on_c, 4, 50, 0
9, 38760, Note_on_c, 4, 49, 64
9, 38876, Note_on_c, 4, 49, 0
9, 38880, Note_on_c, 4, 47, 64
9, 39116, Note_on_c, 4, 47, 0
9, 39120, Note_on_c, 4, 52, 64
9, 39356, Note_on_c, 4, 52, 0
9, 39360, Note_on_c, 4, 45, 64
9, 39836, Note_on_c, 4, 45, 0
9, 40080, Note_on_c, 4, 45, 64
9, 40316, Note_on_c, 4, 45, 0
9, 40320, Note_on_c, 4, 52, 64
9, 40796, Note_on_c, 4, 52, 0
9, 41040, Note_on_c, 4, 52, 64
9, 41276, Note_on_c, 4, 52, 0
9, 41280, Note_on_c, 4, 47, 64
9, 41756, Note_on_c, 4, 47, 0
9, 42000, Note_on_c, 4, 47, 64
9, 42236, Note_on_c, 4, 47, 0
9, 42240, Note_on_c, 4, 54, 64
9, 42476, Note_on_c, 4, 54, 0
9, 42480, Note_on_c, 4, 59, 64
9, 42596, Note_on_c, 4, 59, 0
9, 42600, Note_on_c, 4, 57, 64
9, 42716, Note_on_c, 4, 57, 0
9, 42720, Note_on_c, 4, 59, 64
9, 42956, Note_on_c, 4, 59, 0
9, 42960, Note_on_c, 4, 52, 64
9, 43076, Note_on_c, 4, 52, 0
9, 43080, Note_on_c, 4, 50, 64
9, 43196, Note_on_c, 4, 50, 0
9, 43200, Note_on_c, 4, 52, 64
9, 43436, Note_on_c, 4, 52, 0
9, 43440, Note_on_c, 4, 57, 64
9, 43556, Note_on_c, 4, 57, 0
9, 43560, Note_on_c, 4, 55, 64
9, 43676, Note_on_c, 4, 55, 0
9, 43680, Note_on_c, 4, 57, 64
9, 43916, Note_on_c, 4, 57, 0
9, 43920, Note_on_c, 4, 50, 64
9, 44036, Note_on_c, 4, 50, 0
9, 44040, Note_on_c, 4, 49, 64
9, 44156, Note_on_c, 4, 49, 0
9, 44160, Note_on_c, 4, 50, 64
9, 44396, Note_on_c, 4, 50, 0
9, 44400, Note_on_c, 4, 55, 64
9, 44636, Note_on_c, 4, 55, 0
9, 44640, Note_on_c, 4, 57, 64
9, 44876, Note_on_c, 4, 57, 0
9, 44880, Note_on_c, 4, 45, 64
9, 45116, Note_on_c, 4, 45, 0
9, 45120, Note_on_c, 4, 50, 64
9, 45356, Note_on_c, 4, 50, 0
9, 45360, Note_on_c, 4, 62, 64
9, 45476, Note_on_c, 4, 62, 0
9, 45480, Note_on_c, 4, 61, 64
9, 45596, Note_on_c, 4, 61, 0
9, 45600, Note_on_c, 4, 62, 64
9, 45836, Note_on_c, 4, 62, 0
9, 46320, Note_on_c, 4, 62, 64
9, 46436, Note_on_c, 4, 62, 0
9, 46440, Note_on_c, 4, 61, 64
9, 46556, Note_on_c, 4, 61, 0
9, 46560, Note_on_c, 4, 62, 64
9, 46796, Note_on_c, 4, 62, 0
9, 47280, Note_on_c, 4, 50, 64
9, 47396, Note_on_c, 4, 50, 0
9, 47400, Note_on_c, 4, 49, 64
9, 47516, Note_on_c, 4, 49, 0
9, 47520, Note_on_c, 4, 50, 64
9, 47756, Note_on_c, 4, 50, 0
9, 48240, Note_on_c, 4, 50, 64
9, 48356, Note_on_c, 4, 50, 0
9, 48360, Note_on_c, 4, 49, 64
9, 48476, Note_on_c, 4, 49, 0
9, 48480, Note_on_c, 4, 50, 64
9, 48716, Note_on_c, 4, 50, 0
9, 49200, Note_on_c, 4, 62, 64
9, 49316, Note_on_c, 4, 62, 0
9, 49320, Note_on_c, 4, 61, 64
9, 49436, Note_on_c, 4, 61, 0
9, 49440, Note_on_c, 4, 62, 64
9, 49676, Note_on_c, 4, 62, 0
9, 49680, Note_on_c, 4, 50, 64
9, 49916, Note_on_c, 4, 50, 0
9, 49920, Note_on_c, 4, 43, 64
9, 50156, Note_on_c, 4, 43, 0
9, 50160, Note_on_c, 4, 55, 64
9, 50276, Note_on_c, 4, 55, 0
9, 50280, Note_on_c, 4, 54, 64
9, 50396, Note_on_c, 4, 54, 0
9, 50400, Note_on_c, 4, 55, 64
9, 50636, Note_on_c, 4, 55, 0
9, 51120, Note_on_c, 4, 55, 64
9, 51236, Note_on_c, 4, 55, 0
9, 51240, Note_on_c, 4, 54, 64
9, 51356, Note_on_c, 4, 54, 0
9, 51360, Note_on_c, 4, 55, 64
9, 51596, Note_on_c, 4, 55, 0
9, 52080, Note_on_c, 4, 43, 64
9, 52196, Note_on_c, 4, 43, 0
9, 52200, Note_on_c, 4, 42, 64
9, 52316, Note_on_c, 4, 42, 0
9, 52320, Note_on_c, 4, 43, 64
9, 52556, Note_on_c, 4, 43, 0
9, 53040, Note_on_c, 4, 43, 64
9, 53156, Note_on_c, 4, 43, 0
9, 53160, Note_on_c, 4, 42, 64
9, 53276, Note_on_c, 4, 42, 0
9, 53280, Note_on_c, 4, 43, 64
9, 53516, Note_on_c, 4, 43, 0
9, 54000, Note_on_c, 4, 55, 64
9, 54116, Note_on_c, 4, 55, 0
9, 54120, Note_on_c, 4, 53, 64
9, 54236, Note_on_c, 4, 53, 0
9, 54240, Note_on_c, 4, 55, 64
9, 54476, Note_on_c, 4, 55, 0
9, 54480, Note_on_c, 4, 43, 64
9, 54716, Note_on_c, 4, 43, 0
9, 54720, Note_on_c, 4, 48, 64
9, 55196, Note_on_c, 4, 48, 0
9, 55320, Note_on_c, 4, 47, 64
9, 55436, Note_on_c, 4, 47, 0
9, 55440, Note_on_c, 4, 48, 64
9, 55556, Note_on_c, 4, 48, 0
9, 55560, Note_on_c, 4, 50, 64
9, 55676, Note_on_c, 4, 50, 0
9, 55680, Note_on_c, 4, 52, 64
9, 55916, Note_on_c, 4, 52, 0
9, 55920, Note_on_c, 4, 57, 64
9, 56036, Note_on_c, 4, 57, 0
9, 56040, Note_on_c, 4, 55, 64
9, 56156, Note_on_c, 4, 55, 0
9, 56160, Note_on_c, 4, 57, 64
9, 56396, Note_on_c, 4, 57, 0
9, 56400, Note_on_c, 4, 50, 64
9, 56516, Note_on_c, 4, 50, 0
9, 56520, Note_on_c, 4, 48, 64
9, 56636, Note_on_c, 4, 48, 0
9, 56640, Note_on_c, 4, 50, 64
9, 56876, Note_on_c, 4, 50, 0
9, 56880, Note_on_c, 4, 55, 64
9, 56996, Note_on_c, 4, 55, 0
9, 57000, Note_on_c, 4, 53, 64
9, 57116, Note_on_c, 4, 53, 0
9, 57120, Note_on_c, 4, 55, 64
9, 57356, Note_on_c, 4, 55, 0
9, 57360, Note_on_c, 4, 48, 64
9, 57476, Note_on_c, 4, 48, 0
9, 57480, Note_on_c, 4, 47, 64
9, 57596, Note_on_c, 4, 47, 0
9, 57600, Note_on_c, 4, 48, 64
9, 57836, Note_on_c, 4, 48, 0
9, 57840, Note_on_c, 4, 53, 64
9, 57956, Note_on_c, 4, 53, 0
9, 57960, Note_on_c, 4, 52, 64
9, 58076, Note_on_c, 4, 52, 0
9, 58080, Note_on_c, 4, 53, 64
9, 58676, Note_on_c, 4, 53, 0
9, 58680, Note_on_c, 4, 55, 64
9, 58796, Note_on_c, 4, 55, 0
9, 58800, Note_on_c, 4, 53, 64
9, 58916, Note_on_c, 4, 53, 0
9, 58920, Note_on_c, 4, 52, 64
9, 59036, Note_on_c, 4, 52, 0
9, 59040, Note_on_c, 4, 50, 64
9, 59156, Note_on_c, 4, 50, 0
9, 59160, Note_on_c, 4, 48, 64
9, 59276, Note_on_c, 4, 48, 0
9, 59280, Note_on_c, 4, 47, 64
9, 59396, Note_on_c, 4, 47, 0
9, 59400, Note_on_c, 4, 45, 64
9, 59516, Note_on_c, 4, 45, 0
9, 59520, Note_on_c, 4, 43, 64
9, 59756, Note_on_c, 4, 43, 0
9, 59760, Note_on_c, 4, 48, 64
9, 59996, Note_on_c, 4, 48, 0
9, 60000, Note_on_c, 4, 55, 64
9, 60236, Note_on_c, 4, 55, 0
9, 60240, Note_on_c, 4, 43, 64
9, 60476, Note_on_c, 4, 43, 0
9, 60480, Note_on_c, 4, 48, 64
9, 60956, Note_on_c, 4, 48, 0
9, 61200, Note_on_c, 4, 60, 64
9, 61316, Note_on_c, 4, 60, 0
9, 61320, Note_on_c, 4, 59, 64
9, 61436, Note_on_c, 4, 59, 0
9, 61440, Note_on_c, 4, 60, 64
9, 61676, Note_on_c, 4, 60, 0
9, 61680, Note_on_c, 4, 55, 64
9, 61796, Note_on_c, 4, 55, 0
9, 61800, Note_on_c, 4, 53, 64
9, 61916, Note_on_c, 4, 53, 0
9, 61920, Note_on_c, 4, 55, 64
9, 62156, Note_on_c, 4, 55, 0
9, 62160, Note_on_c, 4, 60, 64
9, 62276, Note_on_c, 4, 60, 0
9, 62280, Note_on_c, 4, 59, 64
9, 62396, Note_on_c, 4, 59, 0
9, 62400, Note_on_c, 4, 60, 64
9, 62636, Note_on_c, 4, 60, 0
9, 62640, Note_on_c, 4, 52, 64
9, 62756, Note_on_c, 4, 52, 0
9, 62760, Note_on_c, 4, 50, 64
9, 62876, Note_on_c, 4, 50, 0
9, 62880, Note_on_c, 4, 52, 64
9, 63116, Note_on_c, 4, 52, 0
9, 63120, Note_on_c, 4, 60, 64
9, 63236, Note_on_c, 4, 60, 0
9, 63240, Note_on_c, 4, 59, 64
9, 63356, Note_on_c, 4, 59, 0
9, 63360, Note_on_c, 4, 60, 64
9, 63596, Note_on_c, 4, 60, 0
9, 63600, Note_on_c, 4, 48, 64
9, 63716, Note_on_c, 4, 48, 0
9, 63720, Note_on_c, 4, 50, 64
9, 63836, Note_on_c, 4, 50, 0
9, 63840, Note_on_c, 4, 52, 64
9, 64076, Note_on_c, 4, 52, 0
9, 64080, Note_on_c, 4, 54, 64
9, 64316, Note_on_c, 4, 54, 0
9, 64320, Note_on_c, 4, 55, 64
9, 64556, Note_on_c, 4, 55, 0
9, 64560, Note_on_c, 4, 43, 64
9, 64796, Note_on_c, 4, 43, 0
9, 65040, Note_on_c, 4, 55, 64
9, 65156, Note_on_c, 4, 55, 0
9, 65160, Note_on_c, 4, 54, 64
9, 65276, Note_on_c, 4, 54, 0
9, 65280, Note_on_c, 4, 55, 64
9, 65516, Note_on_c, 4, 55, 0
9, 65520, Note_on_c, 4, 50, 64
9, 65636, Note_on_c, 4, 50, 0
9, 65640, Note_on_c, 4, 48, 64
9, 65756, Note_on_c, 4, 48, 0
9, 65760, Note_on_c, 4, 50, 64
9, 65996, Note_on_c, 4, 50, 0
9, 66000, Note_on_c, 4, 55, 64
9, 66116, Note_on_c, 4, 55, 0
9, 66120, Note_on_c, 4, 54, 64
9, 66236, Note_on_c, 4, 54, 0
9, 66240, Note_on_c, 4, 55, 64
9, 66476, Note_on_c, 4, 55, 0
9, 66480, Note_on_c, 4, 47, 64
9, 66596, Note_on_c, 4, 47, 0
9, 66600, Note_on_c, 4, 45, 64
9, 66716, Note_on_c, 4, 45, 0
9, 66720, Note_on_c, 4, 47, 64
9, 66956, Note_on_c, 4, 47, 0
9, 66960, Note_on_c, 4, 55, 64
9, 67076, Note_on_c, 4, 55, 0
9, 67080, Note_on_c, 4, 54, 64
9, 67196, Note_on_c, 4, 54, 0
9, 67200, Note_on_c, 4, 55, 64
9, 67436, Note_on_c, 4, 55, 0
9, 67440, Note_on_c, 4, 43, 64
9, 67556, Note_on_c, 4, 43, 0
9, 67560, Note_on_c, 4, 45, 64
9, 67676, Note_on_c, 4, 45, 0
9, 67680, Note_on_c, 4, 47, 64
9, 67916, Note_on_c, 4, 47, 0
9, 67920, Note_on_c, 4, 49, 64
9, 68156, Note_on_c, 4, 49, 0
9, 68160, Note_on_c, 4, 50, 64
9, 68276, Note_on_c, 4, 50, 0
9, 68280, Note_on_c, 4, 49, 64
9, 68396, Note_on_c, 4, 49, 0
9, 68400, Note_on_c, 4, 50, 64
9, 68516, Note_on_c, 4, 50, 0
9, 68520, Note_on_c, 4, 52, 64
9, 68636, Note_on_c, 4, 52, 0
9, 68640, Note_on_c, 4, 50, 64
9, 68756, Note_on_c, 4, 50, 0
9, 68760, Note_on_c, 4, 54, 64
9, 68876, Note_on_c, 4, 54, 0
9, 68880, Note_on_c, 4, 50, 64
9, 68996, Note_on_c, 4, 50, 0
9, 69000, Note_on_c, 4, 55, 64
9, 69116, Note_on_c, 4, 55, 0
9, 69120, Note_on_c, 4, 50, 64
9, 69236, Note_on_c, 4, 50, 0
9, 69240, Note_on_c, 4, 49, 64
9, 69356, Note_on_c, 4, 49, 0
9, 69360, Note_on_c, 4, 50, 64
9, 69476, Note_on_c, 4, 50, 0
9, 69480, Note_on_c, 4, 52, 64
9, 69596, Note_on_c, 4, 52, 0
9, 69600, Note_on_c, 4, 50, 64
9, 69716, Note_on_c, 4, 50, 0
9, 69720, Note_on_c, 4, 57, 64
9, 69836, Note_on_c, 4, 57, 0
9, 69840, Note_on_c, 4, 50, 64
9, 69956, Note_on_c, 4, 50, 0
9, 69960, Note_on_c, 4, 59, 64
9, 70076, Note_on_c, 4, 59, 0
9, 70080, Note_on_c, 4, 50, 64
9, 70196, Note_on_c, 4, 50, 0
9, 70200, Note_on_c, 4, 49, 64
9, 70316, Note_on_c, 4, 49, 0
9, 70320, Note_on_c, 4, 50, 64
9, 70436, Note_on_c, 4, 50, 0
9, 70440, Note_on_c, 4, 52, 64
9, 70556, Note_on_c, 4, 52, 0
9, 70560, Note_on_c, 4, 50, 64
9, 70676, Note_on_c, 4, 50, 0
9, 70680, Note_on_c, 4, 60, 64
9, 70796, Note_on_c, 4, 60, 0
9, 70800, Note_on_c, 4, 50, 64
9, 70916, Note_on_c, 4, 50, 0
9, 70920, Note_on_c, 4, 62, 64
9, 71036, Note_on_c, 4, 62, 0
9, 71040, Note_on_c, 4, 59, 64
9, 71276, Note_on_c, 4, 59, 0
9, 71280, Note_on_c, 4, 57, 64
9, 71396, Note_on_c, 4, 57, 0
9, 71400, Note_on_c, 4, 55, 64
9, 71516, Note_on_c, 4, 55, 0
9, 71520, Note_on_c, 4, 57, 64
9, 71756, Note_on_c, 4, 57, 0
9, 71760, Note_on_c, 4, 55, 64
9, 71876, Note_on_c, 4, 55, 0
9, 71880, Note_on_c, 4, 54, 64
9, 71996, Note_on_c, 4, 54, 0
9, 72000, Note_on_c, 4, 55, 64
9, 72236, Note_on_c, 4, 55, 0
9, 72240, Note_on_c, 4, 59, 64
9, 72356, Note_on_c, 4, 59, 0
9, 72360, Note_on_c, 4, 57, 64
9, 72476, Note_on_c, 4, 57, 0
9, 72480, Note_on_c, 4, 59, 64
9, 72716, Note_on_c, 4, 59, 0
9, 72720, Note_on_c, 4, 62, 64
9, 72836, Note_on_c, 4, 62, 0
9, 72840, Note_on_c, 4, 60, 64
9, 72956, Note_on_c, 4, 60, 0
9, 72960, Note_on_c, 4, 62, 64
9, 73196, Note_on_c, 4, 62, 0
9, 74640, Note_on_c, 4, 55, 64
9, 74876, Note_on_c, 4, 55, 0
9, 74880, Note_on_c, 4, 55, 64
9, 75116, Note_on_c, 4, 55, 0
9, 75120, Note_on_c, 4, 43, 64
9, 75356, Note_on_c, 4, 43, 0
9, 75360, Note_on_c, 4, 43, 64
9, 75596, Note_on_c, 4, 43, 0
9, 75600, Note_on_c, 4, 55, 64
9, 75836, Note_on_c, 4, 55, 0
9, 75840, Note_on_c, 4, 55, 64
9, 76076, Note_on_c, 4, 55, 0
9, 76080, Note_on_c, 4, 43, 64
9, 76316, Note_on_c, 4, 43, 0
9, 76320, Note_on_c, 4, 43, 64
9, 76556, Note_on_c, 4, 43, 0
9, 76560, Note_on_c, 4, 55, 64
9, 76676, Note_on_c, 4, 55, 0
9, 76680, Note_on_c, 4, 54, 64
9, 76796, Note_on_c, 4, 54, 0
9, 76800, Note_on_c, 4, 55, 64
9, 77036, Note_on_c, 4, 55, 0
9, 77040, Note_on_c, 4, 43, 64
9, 77156, Note_on_c, 4, 43, 0
9, 77160, Note_on_c, 4, 45, 64
9, 77276, Note_on_c, 4, 45, 0
9, 77280, Note_on_c, 4, 47, 64
9, 77516, Note_on_c, 4, 47, 0
9, 77520, Note_on_c, 4, 49, 64
9, 77756, Note_on_c, 4, 49, 0
9, 77760, Note_on_c, 4, 50, 64
9, 77996, Note_on_c, 4, 50, 0
9, 78000, Note_on_c, 4, 38, 64
9, 78236, Note_on_c, 4, 38, 0
9, 78240, Note_on_c, 4, 38, 64
9, 78476, Note_on_c, 4, 38, 0
9, 78480, Note_on_c, 4, 62, 64
9, 78596, Note_on_c, 4, 62, 0
9, 78600, Note_on_c, 4, 61, 64
9, 78716, Note_on_c, 4, 61, 0
9, 78720, Note_on_c, 4, 62, 64
9, 78956, Note_on_c, 4, 62, 0
9, 78960, Note_on_c, 4, 50, 64
9, 79196, Note_on_c, 4, 50, 0
9, 79200, Note_on_c, 4, 38, 64
9, 79436, Note_on_c, 4, 38, 0
9, 79440, Note_on_c, 4, 50, 64
9, 79556, Note_on_c, 4, 50, 0
9, 79560, Note_on_c, 4, 49, 64
9, 79676, Note_on_c, 4, 49, 0
9, 79680, Note_on_c, 4, 50, 64
9, 79916, Note_on_c, 4, 50, 0
9, 79920, Note_on_c, 4, 38, 64
9, 80156, Note_on_c, 4, 38, 0
9, 80160, Note_on_c, 4, 38, 64
9, 80396, Note_on_c, 4, 38, 0
9, 80400, Note_on_c, 4, 54, 64
9, 80636, Note_on_c, 4, 54, 0
9, 80640, Note_on_c, 4, 55, 64
9, 80876, Note_on_c, 4, 55, 0
9, 80880, Note_on_c, 4, 52, 64
9, 81116, Note_on_c, 4, 52, 0
9, 81120, Note_on_c, 4, 48, 64
9, 81356, Note_on_c, 4, 48, 0
9, 81360, Note_on_c, 4, 50, 64
9, 81596, Note_on_c, 4, 50, 0
9, 81600, Note_on_c, 4, 52, 64
9, 81836, Note_on_c, 4, 52, 0
9, 81840, Note_on_c, 4, 50, 64
9, 81956, Note_on_c, 4, 50, 0
9, 81960, Note_on_c, 4, 48, 64
9, 82076, Note_on_c, 4, 48, 0
9, 82080, Note_on_c, 4, 47, 64
9, 82316, Note_on_c, 4, 47, 0
9, 82320, Note_on_c, 4, 45, 64
9, 82436, Note_on_c, 4, 45, 0
9, 82440, Note_on_c, 4, 43, 64
9, 82556, Note_on_c, 4, 43, 0
9, 82560, Note_on_c, 4, 48, 64
9, 82796, Note_on_c, 4, 48, 0
9, 82800, Note_on_c, 4, 47, 64
9, 82916, Note_on_c, 4, 47, 0
9, 82920, Note_on_c, 4, 45, 64
9, 83036, Note_on_c, 4, 45, 0
9, 83040, Note_on_c, 4, 43, 64
9, 83276, Note_on_c, 4, 43, 0
9, 83280, Note_on_c, 4, 55, 64
9, 83396, Note_on_c, 4, 55, 0
9, 83400, Note_on_c, 4, 54, 64
9, 83516, Note_on_c, 4, 54, 0
9, 83520, Note_on_c, 4, 52, 64
9, 83756, Note_on_c, 4, 52, 0
9, 83760, Note_on_c, 4, 50, 64
9, 83876, Note_on_c, 4, 50, 0
9, 83880, Note_on_c, 4, 48, 64
9, 83996, Note_on_c, 4, 48, 0
9, 84000, Note_on_c, 4, 47, 64
9, 84236, Note_on_c, 4, 47, 0
9, 84240, Note_on_c, 4, 49, 64
9, 84476, Note_on_c, 4, 49, 0
9, 84480, Note_on_c, 4, 50, 64
9, 84716, Note_on_c, 4, 50, 0
9, 84720, Note_on_c, 4, 38, 64
9, 84956, Note_on_c, 4, 38, 0
9, 84960, Note_on_c, 4, 38, 64
9, 85196, Note_on_c, 4, 38, 0
9, 85200, Note_on_c, 4, 50, 64
9, 85316, Note_on_c, 4, 50, 0
9, 85320, Note_on_c, 4, 52, 64
9, 85436, Note_on_c, 4, 52, 0
9, 85440, Note_on_c, 4, 54, 64
9, 85676, Note_on_c, 4, 54, 0
9, 85680, Note_on_c, 4, 55, 64
9, 85916, Note_on_c, 4, 55, 0
9, 85920, Note_on_c, 4, 57, 64
9, 86156, Note_on_c, 4, 57, 0
9, 86160, Note_on_c, 4, 50, 64
9, 86396, Note_on_c, 4, 50, 0
9, 86400, Note_on_c, 4, 55, 64
9, 86636, Note_on_c, 4, 55, 0
9, 86640, Note_on_c, 4, 48, 64
9, 86876, Note_on_c, 4, 48, 0
9, 86880, Note_on_c, 4, 50, 64
9, 87116, Note_on_c, 4, 50, 0
9, 87120, Note_on_c, 4, 38, 64
9, 87356, Note_on_c, 4, 38, 0
9, 87360, Note_on_c, 4, 40, 64
9, 87836, Note_on_c, 4, 40, 0
9, 88080, Note_on_c, 4, 41, 64
9, 88316, Note_on_c, 4, 41, 0
9, 88320, Note_on_c, 4, 43, 64
9, 88556, Note_on_c, 4, 43, 0
9, 88560, Note_on_c, 4, 36, 64
9, 88796, Note_on_c, 4, 36, 0
9, 88800, Note_on_c, 4, 38, 64
9, 89036, Note_on_c, 4, 38, 0
9, 89040, Note_on_c, 4, 50, 64
9, 89276, Note_on_c, 4, 50, 0
9, 89280, Note_on_c, 4, 55, 64
9, 89516, Note_on_c, 4, 55, 0
9, 89520, Note_on_c, 4, 54, 64
9, 89636, Note_on_c, 4, 54, 0
9, 89640, Note_on_c, 4, 52, 64
9, 89756, Note_on_c, 4, 52, 0
9, 89760, Note_on_c, 4, 50, 64
9, 89876, Note_on_c, 4, 50, 0
9, 89880, Note_on_c, 4, 48, 64
9, 89996, Note_on_c, 4, 48, 0
9, 90000, Note_on_c, 4, 47, 64
9, 90116, Note_on_c, 4, 47, 0
9, 90120, Note_on_c, 4, 45, 64
9, 90236, Note_on_c, 4, 45, 0
9, 90240, Note_on_c, 4, 43, 64
9, 90716, Note_on_c, 4, 43, 0
9, 91200, Note_on_c, 4, 43, 64
9, 91676, Note_on_c, 4, 43, 0
9, 92160, Note_on_c, 4, 43, 64
9, 92636, Note_on_c, 4, 43, 0
9, 93120, Note_on_c, 4, 43, 64
9, 93596, Note_on_c, 4, 43, 0
9, 94080, Note_on_c, 4, 43, 64
9, 94556, Note_on_c, 4, 43, 0
9, 95040, Note_on_c, 4, 43, 64
9, 95516, Note_on_c, 4, 43, 0
9, 96000, Note_on_c, 4, 55, 64
9, 96236, Note_on_c, 4, 55, 0
9, 96240, Note_on_c, 4, 54, 64
9, 96476, Note_on_c, 4, 54, 0
9, 96480, Note_on_c, 4, 52, 64
9, 96716, Note_on_c, 4, 52, 0
9, 96720, Note_on_c, 4, 57, 64
9, 96956, Note_on_c, 4, 57, 0
9, 96960, Note_on_c, 4, 50, 64
9, 97196, Note_on_c, 4, 50, 0
9, 97200, Note_on_c, 4, 49, 64
9, 97316, Note_on_c, 4, 49, 0
9, 97320, Note_on_c, 4, 47, 64
9, 97436, Note_on_c, 4, 47, 0
9, 97440, Note_on_c, 4, 45, 64
9, 97556, Note_on_c, 4, 45, 0
9, 97560, Note_on_c, 4, 43, 64
9, 97676, Note_on_c, 4, 43, 0
9, 97680, Note_on_c, 4, 42, 64
9, 97796, Note_on_c, 4, 42, 0
9, 97800, Note_on_c, 4, 40, 64
9, 97916, Note_on_c, 4, 40, 0
9, 97920, Note_on_c, 4, 39, 64
9, 98396, Note_on_c, 4, 39, 0
9, 98880, Note_on_c, 4, 42, 64
9, 99356, Note_on_c, 4, 42, 0
9, 99840, Note_on_c, 4, 45, 64
9, 100316, Note_on_c, 4, 45, 0
9, 100800, Note_on_c, 4, 57, 64
9, 101276, Note_on_c, 4, 57, 0
9, 101760, Note_on_c, 4, 51, 64
9, 102236, Note_on_c, 4, 51, 0
9, 102720, Note_on_c, 4, 47, 64
9, 103196, Note_on_c, 4, 47, 0
9, 103680, Note_on_c, 4, 52, 64
9, 104156, Note_on_c, 4, 52, 0
9, 105360, Note_on_c, 4, 55, 64
9, 105476, Note_on_c, 4, 55, 0
9, 105480, Note_on_c, 4, 54, 64
9, 105596, Note_on_c, 4, 54, 0
9, 105600, Note_on_c, 4, 52, 64
9, 105836, Note_on_c, 4, 52, 0
9, 105840, Note_on_c, 4, 40, 64
9, 105956, Note_on_c, 4, 40, 0
9, 105960, Note_on_c, 4, 42, 64
9, 106076, Note_on_c, 4, 42, 0
9, 106080, Note_on_c, 4, 43, 64
9, 106316, Note_on_c, 4, 43, 0
9, 106320, Note_on_c, 4, 45, 64
9, 106556, Note_on_c, 4, 45, 0
9, 106560, Note_on_c, 4, 47, 64
9, 106676, Note_on_c, 4, 47, 0
9, 106680, Note_on_c, 4, 46, 64
9, 106796, Note_on_c, 4, 46, 0
9, 106800, Note_on_c, 4, 47, 64
9, 106916, Note_on_c, 4, 47, 0
9, 106920, Note_on_c, 4, 49, 64
9, 107036, Note_on_c, 4, 49, 0
9, 107040, Note_on_c, 4, 47, 64
9, 107156, Note_on_c, 4, 47, 0
9, 107160, Note_on_c, 4, 51, 64
9, 107276, Note_on_c, 4, 51, 0
9, 107280, Note_on_c, 4, 47, 64
9, 107396, Note_on_c, 4, 47, 0
9, 107400, Note_on_c, 4, 52, 64
9, 107516, Note_on_c, 4, 52, 0
9, 107520, Note_on_c, 4, 47, 64
9, 107636, Note_on_c, 4, 47, 0
9, 107640, Note_on_c, 4, 46, 64
9, 107756, Note_on_c, 4, 46, 0
9, 107760, Note_on_c, 4, 47, 64
9, 107876, Note_on_c, 4, 47, 0
9, 107880, Note_on_c, 4, 49, 64
9, 107996, Note_on_c, 4, 49, 0
9, 108000, Note_on_c, 4, 47, 64
9, 108116, Note_on_c, 4, 47, 0
9, 108120, Note_on_c, 4, 54, 64
9, 108236, Note_on_c, 4, 54, 0
9, 108240, Note_on_c, 4, 47, 64
9, 108356, Note_on_c, 4, 47, 0
9, 108360, Note_on_c, 4, 55, 64
9, 108476, Note_on_c, 4, 55, 0
9, 108480, Note_on_c, 4, 47, 64
9, 108596, Note_on_c, 4, 47, 0
9, 108600, Note_on_c, 4, 46, 64
9, 108716, Note_on_c, 4, 46, 0
9, 108720, Note_on_c, 4, 47, 64
9, 108836, Note_on_c, 4, 47, 0
9, 108840, Note_on_c, 4, 49, 64
9, 108956, Note_on_c, 4, 49, 0
9, 108960, Note_on_c, 4, 47, 64
9, 109076, Note_on_c, 4, 47, 0
9, 109080, Note_on_c, 4, 57, 64
9, 109196, Note_on_c, 4, 57, 0
9, 109200, Note_on_c, 4, 47, 64
9, 109316, Note_on_c, 4, 47, 0
9, 109320, Note_on_c, 4, 59, 64
9, 109436, Note_on_c, 4, 59, 0
9, 109440, Note_on_c, 4, 55, 64
9, 109676, Note_on_c, 4, 55, 0
9, 109680, Note_on_c, 4, 54, 64
9, 109796, Note_on_c, 4, 54, 0
9, 109800, Note_on_c, 4, 52, 64
9, 109916, Note_on_c, 4, 52, 0
9, 109920, Note_on_c, 4, 54, 64
9, 110156, Note_on_c, 4, 54, 0
9, 110160, Note_on_c, 4, 52, 64
9, 110276, Note_on_c, 4, 52, 0
9, 110280, Note_on_c, 4, 51, 64
9, 110396, Note_on_c, 4, 51, 0
9, 110400, Note_on_c, 4, 60, 64
9, 110756, Note_on_c, 4, 60, 0
9, 110760, Note_on_c, 4, 59, 64
9, 110876, Note_on_c, 4, 59, 0
9, 110880, Note_on_c, 4, 57, 64
9, 110996, Note_on_c, 4, 57, 0
9, 111000, Note_on_c, 4, 55, 64
9, 111116, Note_on_c, 4, 55, 0
9, 111120, Note_on_c, 4, 54, 64
9, 111236, Note_on_c, 4, 54, 0
9, 111240, Note_on_c, 4, 52, 64
9, 111356, Note_on_c, 4, 52, 0
9, 111360, Note_on_c, 4, 51, 64
9, 111596, Note_on_c, 4, 51, 0
9, 111600, Note_on_c, 4, 52, 64
9, 111836, Note_on_c, 4, 52, 0
9, 111840, Note_on_c, 4, 45, 64
9, 112076, Note_on_c, 4, 45, 0
9, 112080, Note_on_c, 4, 47, 64
9, 112316, Note_on_c, 4, 47, 0
9, 112320, Note_on_c, 4, 40, 64
9, 112796, Note_on_c, 4, 40, 0
9, 113040, Note_on_c, 4, 47, 64
9, 113276, Note_on_c, 4, 47, 0
9, 113280, Note_on_c, 4, 52, 64
9, 113756, Note_on_c, 4, 52, 0
9, 114000, Note_on_c, 4, 59, 64
9, 114236, Note_on_c, 4, 59, 0
9, 114240, Note_on_c, 4, 64, 64
9, 114716, Note_on_c, 4, 64, 0
9, 114960, Note_on_c, 4, 59, 64
9, 115196, Note_on_c, 4, 59, 0
9, 115200, Note_on_c, 4, 52, 64
9, 115316, Note_on_c, 4, 52, 0
9, 115320, Note_on_c, 4, 54, 64
9, 115436, Note_on_c, 4, 54, 0
9, 115440, Note_on_c, 4, 55, 64
9, 115556, Note_on_c, 4, 55, 0
9, 115560, Note_on_c, 4, 54, 64
9, 115676, Note_on_c, 4, 54, 0
9, 115680, Note_on_c, 4, 52, 64
9, 115796, Note_on_c, 4, 52, 0
9, 115800, Note_on_c, 4, 50, 64
9, 115916, Note_on_c, 4, 50, 0
9, 115920, Note_on_c, 4, 49, 64
9, 116036, Note_on_c, 4, 49, 0
9, 116040, Note_on_c, 4, 47, 64
9, 116156, Note_on_c, 4, 47, 0
9, 116160, Note_on_c, 4, 45, 64
9, 116636, Note_on_c, 4, 45, 0
9, 116880, Note_on_c, 4, 40, 64
9, 117116, Note_on_c, 4, 40, 0
9, 117120, Note_on_c, 4, 45, 64
9, 117596, Note_on_c, 4, 45, 0
9, 117840, Note_on_c, 4, 52, 64
9, 118076, Note_on_c, 4, 52, 0
9, 118080, Note_on_c, 4, 57, 64
9, 118556, Note_on_c, 4, 57, 0
9, 118800, Note_on_c, 4, 52, 64
9, 119036, Note_on_c, 4, 52, 0
9, 119040, Note_on_c, 4, 45, 64
9, 119156, Note_on_c, 4, 45, 0
9, 119160, Note_on_c, 4, 47, 64
9, 119276, Note_on_c, 4, 47, 0
9, 119280, Note_on_c, 4, 49, 64
9, 119396, Note_on_c, 4, 49, 0
9, 119400, Note_on_c, 4, 47, 64
9, 119516, Note_on_c, 4, 47, 0
9, 119520, Note_on_c, 4, 45, 64
9, 119636, Note_on_c, 4, 45, 0
9, 119640, Note_on_c, 4, 43, 64
9, 119756, Note_on_c, 4, 43, 0
9, 119760, Note_on_c, 4, 42, 64
9, 119876, Note_on_c, 4, 42, 0
9, 119880, Note_on_c, 4, 40, 64
9, 119996, Note_on_c, 4, 40, 0
9, 120000, Note_on_c, 4, 38, 64
9, 120476, Note_on_c, 4, 38, 0
9, 120720, Note_on_c, 4, 57, 64
9, 120956, Note_on_c, 4, 57, 0
9, 120960, Note_on_c, 4, 50, 64
9, 121076, Note_on_c, 4, 50, 0
9, 121080, Note_on_c, 4, 57, 64
9, 121196, Note_on_c, 4, 57, 0
9, 121200, Note_on_c, 4, 50, 64
9, 121316, Note_on_c, 4, 50, 0
9, 121320, Note_on_c, 4, 52, 64
9, 121436, Note_on_c, 4, 52, 0
9, 121440, Note_on_c, 4, 54, 64
9, 121556, Note_on_c, 4, 54, 0
9, 121560, Note_on_c, 4, 55, 64
9, 121676, Note_on_c, 4, 55, 0
9, 121680, Note_on_c, 4, 57, 64
9, 121796, Note_on_c, 4, 57, 0
9, 121800, Note_on_c, 4, 55, 64
9, 121916, Note_on_c, 4, 55, 0
9, 121920, Note_on_c, 4, 54, 64
9, 122156, Note_on_c, 4, 54, 0
9, 122160, Note_on_c, 4, 62, 64
9, 122396, Note_on_c, 4, 62, 0
9, 122640, Note_on_c, 4, 57, 64
9, 122876, Note_on_c, 4, 57, 0
9, 122880, Note_on_c, 4, 62, 64
9, 122996, Note_on_c, 4, 62, 0
9, 123000, Note_on_c, 4, 64, 64
9, 123116, Note_on_c, 4, 64, 0
9, 123120, Note_on_c, 4, 62, 64
9, 123236, Note_on_c, 4, 62, 0
9, 123240, Note_on_c, 4, 60, 64
9, 123356, Note_on_c, 4, 60, 0
9, 123360, Note_on_c, 4, 59, 64
9, 123476, Note_on_c, 4, 59, 0
9, 123480, Note_on_c, 4, 57, 64
9, 123596, Note_on_c, 4, 57, 0
9, 123600, Note_on_c, 4, 55, 64
9, 123716, Note_on_c, 4, 55, 0
9, 123720, Note_on_c, 4, 54, 64
9, 123836, Note_on_c, 4, 54, 0
9, 123840, Note_on_c, 4, 55, 64
9, 124076, Note_on_c, 4, 55, 0
9, 124080, Note_on_c, 4, 50, 64
9, 124196, Note_on_c, 4, 50, 0
9, 124200, Note_on_c, 4, 48, 64
9, 124316, Note_on_c, 4, 48, 0
9, 124320, Note_on_c, 4, 50, 64
9, 124556, Note_on_c, 4, 50, 0
9, 124560, Note_on_c, 4, 38, 64
9, 124796, Note_on_c, 4, 38, 0
9, 124800, Note_on_c, 4, 43, 64
9, 125276, Note_on_c, 4, 43, 0
9, 125520, Note_on_c, 4, 54, 64
9, 125756, Note_on_c, 4, 54, 0
9, 125760, Note_on_c, 4, 55, 64
9, 125876, Note_on_c, 4, 55, 0
9, 125880, Note_on_c, 4, 50, 64
9, 125996, Note_on_c, 4, 50, 0
9, 126000, Note_on_c, 4, 43, 64
9, 126116, Note_on_c, 4, 43, 0
9, 126120, Note_on_c, 4, 45, 64
9, 126236, Note_on_c, 4, 45, 0
9, 126240, Note_on_c, 4, 47, 64
9, 126356, Note_on_c, 4, 47, 0
9, 126360, Note_on_c, 4, 48, 64
9, 126476, Note_on_c, 4, 48, 0
9, 126480, Note_on_c, 4, 50, 64
9, 126596, Note_on_c, 4, 50, 0
9, 126600, Note_on_c, 4, 48, 64
9, 126716, Note_on_c, 4, 48, 0
9, 126720, Note_on_c, 4, 47, 64
9, 126836, Note_on_c, 4, 47, 0
9, 126840, Note_on_c, 4, 50, 64
9, 126956, Note_on_c, 4, 50, 0
9, 126960, Note_on_c, 4, 43, 64
9, 127076, Note_on_c, 4, 43, 0
9, 127080, Note_on_c, 4, 45, 64
9, 127196, Note_on_c, 4, 45, 0
9, 127200, Note_on_c, 4, 47, 64
9, 127316, Note_on_c, 4, 47, 0
9, 127320, Note_on_c, 4, 48, 64
9, 127436, Note_on_c, 4, 48, 0
9, 127440, Note_on_c, 4, 50, 64
9, 127556, Note_on_c, 4, 50, 0
9, 127560, Note_on_c, 4, 48, 64
9, 127676, Note_on_c, 4, 48, 0
9, 127680, Note_on_c, 4, 47, 64
9, 127796, Note_on_c, 4, 47, 0
9, 127800, Note_on_c, 4, 48, 64
9, 127916, Note_on_c, 4, 48, 0
9, 127920, Note_on_c, 4, 50, 64
9, 128036, Note_on_c, 4, 50, 0
9, 128040, Note_on_c, 4, 48, 64
9, 128156, Note_on_c, 4, 48, 0
9, 128160, Note_on_c, 4, 47, 64
9, 128276, Note_on_c, 4, 47, 0
9, 128280, Note_on_c, 4, 45, 64
9, 128396, Note_on_c, 4, 45, 0
9, 128400, Note_on_c, 4, 43, 64
9, 128516, Note_on_c, 4, 43, 0
9, 128520, Note_on_c, 4, 42, 64
9, 128636, Note_on_c, 4, 42, 0
9, 128640, Note_on_c, 4, 40, 64
9, 129116, Note_on_c, 4, 40, 0
9, 129600, Note_on_c, 4, 40, 64
9, 130076, Note_on_c, 4, 40, 0
9, 130560, Note_on_c, 4, 52, 64
9, 131036, Note_on_c, 4, 52, 0
9, 131520, Note_on_c, 4, 52, 64
9, 131996, Note_on_c, 4, 52, 0
9, 132480, Note_on_c, 4, 46, 64
9, 132956, Note_on_c, 4, 46, 0
9, 133440, Note_on_c, 4, 42, 64
9, 133916, Note_on_c, 4, 42, 0
9, 134400, Note_on_c, 4, 47, 64
9, 134636, Note_on_c, 4, 47, 0
9, 134640, Note_on_c, 4, 59, 64
9, 134876, Note_on_c, 4, 59, 0
9, 134880, Note_on_c, 4, 59, 64
9, 135116, Note_on_c, 4, 59, 0
9, 135120, Note_on_c, 4, 47, 64
9, 135356, Note_on_c, 4, 47, 0
9, 135360, Note_on_c, 4, 47, 64
9, 135596, Note_on_c, 4, 47, 0
9, 135600, Note_on_c, 4, 59, 64
9, 135836, Note_on_c, 4, 59, 0
9, 135840, Note_on_c, 4, 59, 64
9, 136076, Note_on_c, 4, 59, 0
9, 136080, Note_on_c, 4, 47, 64
9, 136316, Note_on_c, 4, 47, 0
9, 136320, Note_on_c, 4, 47, 64
9, 136556, Note_on_c, 4, 47, 0
9, 136560, Note_on_c, 4, 59, 64
9, 136676, Note_on_c, 4, 59, 0
9, 136680, Note_on_c, 4, 57, 64
9, 136796, Note_on_c, 4, 57, 0
9, 136800, Note_on_c, 4, 55, 64
9, 137036, Note_on_c, 4, 55, 0
9, 137040, Note_on_c, 4, 54, 64
9, 137156, Note_on_c, 4, 54, 0
9, 137160, Note_on_c, 4, 52, 64
9, 137276, Note_on_c, 4, 52, 0
9, 137280, Note_on_c, 4, 50, 64
9, 137516, Note_on_c, 4, 50, 0
9, 137520, Note_on_c, 4, 49, 64
9, 137636, Note_on_c, 4, 49, 0
9, 137640, Note_on_c, 4, 47, 64
9, 137756, Note_on_c, 4, 47, 0
9, 137760, Note_on_c, 4, 46, 64
9, 137996, Note_on_c, 4, 46, 0
9, 138000, Note_on_c, 4, 42, 64
9, 138236, Note_on_c, 4, 42, 0
9, 138240, Note_on_c, 4, 47, 64
9, 138476, Note_on_c, 4, 47, 0
9, 138480, Note_on_c, 4, 59, 64
9, 138596, Note_on_c, 4, 59, 0
9, 138600, Note_on_c, 4, 57, 64
9, 138716, Note_on_c, 4, 57, 0
9, 138720, Note_on_c, 4, 55, 64
9, 138956, Note_on_c, 4, 55, 0
9, 138960, Note_on_c, 4, 54, 64
9, 139076, Note_on_c, 4, 54, 0
9, 139080, Note_on_c, 4, 52, 64
9, 139196, Note_on_c, 4, 52, 0
9, 139200, Note_on_c, 4, 50, 64
9, 139316, Note_on_c, 4, 50, 0
9, 139320, Note_on_c, 4, 49, 64
9, 139436, Note_on_c, 4, 49, 0
9, 139440, Note_on_c, 4, 50, 64
9, 139556, Note_on_c, 4, 50, 0
9, 139560, Note_on_c, 4, 52, 64
9, 139676, Note_on_c, 4, 52, 0
9, 139680, Note_on_c, 4, 50, 64
9, 139796, Note_on_c, 4, 50, 0
9, 139800, Note_on_c, 4, 52, 64
9, 139916, Note_on_c, 4, 52, 0
9, 139920, Note_on_c, 4, 50, 64
9, 140036, Note_on_c, 4, 50, 0
9, 140040, Note_on_c, 4, 49, 64
9, 140156, Note_on_c, 4, 49, 0
9, 140160, Note_on_c, 4, 47, 64
9, 140396, Note_on_c, 4, 47, 0
9, 140400, Note_on_c, 4, 55, 64
9, 140636, Note_on_c, 4, 55, 0
9, 140640, Note_on_c, 4, 52, 64
9, 140876, Note_on_c, 4, 52, 0
9, 140880, Note_on_c, 4, 54, 64
9, 141116, Note_on_c, 4, 54, 0
9, 141120, Note_on_c, 4, 55, 64
9, 141476, Note_on_c, 4, 55, 0
9, 141480, Note_on_c, 4, 54, 64
9, 141596, Note_on_c, 4, 54, 0
9, 141600, Note_on_c, 4, 52, 64
9, 141716, Note_on_c, 4, 52, 0
9, 141720, Note_on_c, 4, 50, 64
9, 141836, Note_on_c, 4, 50, 0
9, 141840, Note_on_c, 4, 49, 64
9, 141956, Note_on_c, 4, 49, 0
9, 141960, Note_on_c, 4, 47, 64
9, 142076, Note_on_c, 4, 47, 0
9, 142080, Note_on_c, 4, 50, 64
9, 142316, Note_on_c, 4, 50, 0
9, 142320, Note_on_c, 4, 52, 64
9, 142556, Note_on_c, 4, 52, 0
9, 142560, Note_on_c, 4, 54, 64
9, 142796, Note_on_c, 4, 54, 0
9, 142800, Note_on_c, 4, 42, 64
9, 143036, Note_on_c, 4, 42, 0
9, 143040, Note_on_c, 4, 47, 64
9, 143276, Note_on_c, 4, 47, 0
9, 143280, Note_on_c, 4, 54, 64
9, 143396, Note_on_c, 4, 54, 0
9, 143400, Note_on_c, 4, 52, 64
9, 143516, Note_on_c, 4, 52, 0
9, 143520, Note_on_c, 4, 54, 64
9, 143756, Note_on_c, 4, 54, 0
9, 143760, Note_on_c, 4, 59, 64
9, 143876, Note_on_c, 4, 59, 0
9, 143880, Note_on_c, 4, 58, 64
9, 143996, Note_on_c, 4, 58, 0
9, 144000, Note_on_c, 4, 59, 64
9, 144236, Note_on_c, 4, 59, 0
9, 145680, Note_on_c, 4, 47, 64
9, 145796, Note_on_c, 4, 47, 0
9, 145800, Note_on_c, 4, 49, 64
9, 145916, Note_on_c, 4, 49, 0
9, 145920, Note_on_c, 4, 50, 64
9, 146156, Note_on_c, 4, 50, 0
9, 146160, Note_on_c, 4, 55, 64
9, 146276, Note_on_c, 4, 55, 0
9, 146280, Note_on_c, 4, 54, 64
9, 146396, Note_on_c, 4, 54, 0
9, 146400, Note_on_c, 4, 55, 64
9, 146636, Note_on_c, 4, 55, 0
9, 146640, Note_on_c, 4, 49, 64
9, 146756, Note_on_c, 4, 49, 0
9, 146760, Note_on_c, 4, 47, 64
9, 146876, Note_on_c, 4, 47, 0
9, 146880, Note_on_c, 4, 49, 64
9, 147116, Note_on_c, 4, 49, 0
9, 147120, Note_on_c, 4, 54, 64
9, 147236, Note_on_c, 4, 54, 0
9, 147240, Note_on_c, 4, 52, 64
9, 147356, Note_on_c, 4, 52, 0
9, 147360, Note_on_c, 4, 54, 64
9, 147596, Note_on_c, 4, 54, 0
9, 147600, Note_on_c, 4, 47, 64
9, 147716, Note_on_c, 4, 47, 0
9, 147720, Note_on_c, 4, 46, 64
9, 147836, Note_on_c, 4, 46, 0
9, 147840, Note_on_c, 4, 47, 64
9, 148076, Note_on_c, 4, 47, 0
9, 148080, Note_on_c, 4, 52, 64
9, 148316, Note_on_c, 4, 52, 0
9, 148320, Note_on_c, 4, 54, 64
9, 148556, Note_on_c, 4, 54, 0
9, 148560, Note_on_c, 4, 42, 64
9, 148796, Note_on_c, 4, 42, 0
9, 148800, Note_on_c, 4, 47, 64
9, 149036, Note_on_c, 4, 47, 0
9, 149040, Note_on_c, 4, 48, 64
9, 149276, Note_on_c, 4, 48, 0
9, 149280, Note_on_c, 4, 47, 64
9, 149516, Note_on_c, 4, 47, 0
9, 149520, Note_on_c, 4, 45, 64
9, 149756, Note_on_c, 4, 45, 0
9, 149760, Note_on_c, 4, 43, 64
9, 150236, Note_on_c, 4, 43, 0
9, 153600, Note_on_c, 4, 50, 64
9, 153836, Note_on_c, 4, 50, 0
9, 153840, Note_on_c, 4, 49, 64
9, 154076, Note_on_c, 4, 49, 0
9, 154080, Note_on_c, 4, 50, 64
9, 154316, Note_on_c, 4, 50, 0
9, 154320, Note_on_c, 4, 52, 64
9, 154556, Note_on_c, 4, 52, 0
9, 154560, Note_on_c, 4, 54, 64
9, 154796, Note_on_c, 4, 54, 0
9, 154800, Note_on_c, 4, 55, 64
9, 155036, Note_on_c, 4, 55, 0
9, 155040, Note_on_c, 4, 54, 64
9, 155276, Note_on_c, 4, 54, 0
9, 155280, Note_on_c, 4, 52, 64
9, 155516, Note_on_c, 4, 52, 0
9, 155520, Note_on_c, 4, 50, 64
9, 155756, Note_on_c, 4, 50, 0
9, 155760, Note_on_c, 4, 49, 64
9, 155996, Note_on_c, 4, 49, 0
9, 156000, Note_on_c, 4, 47, 64
9, 156236, Note_on_c, 4, 47, 0
9, 156240, Note_on_c, 4, 52, 64
9, 156476, Note_on_c, 4, 52, 0
9, 156480, Note_on_c, 4, 45, 64
9, 156956, Note_on_c, 4, 45, 0
9, 157200, Note_on_c, 4, 45, 64
9, 157436, Note_on_c, 4, 45, 0
9, 157440, Note_on_c, 4, 50, 64
9, 157676, Note_on_c, 4, 50, 0
9, 157680, Note_on_c, 4, 38, 64
9, 157916, Note_on_c, 4, 38, 0
9, 157920, Note_on_c, 4, 42, 64
9, 158156, Note_on_c, 4, 42, 0
9, 158160, Note_on_c, 4, 45, 64
9, 158396, Note_on_c, 4, 45, 0
9, 158400, Note_on_c, 4, 50, 64
9, 158876, Note_on_c, 4, 50, 0
9, 159120, Note_on_c, 4, 50, 64
9, 159356, Note_on_c, 4, 50, 0
9, 159360, Note_on_c, 4, 55, 64
9, 159596, Note_on_c, 4, 55, 0
9, 159600, Note_on_c, 4, 43, 64
9, 159836, Note_on_c, 4, 43, 0
9, 159840, Note_on_c, 4, 47, 64
9, 160076, Note_on_c, 4, 47, 0
9, 160080, Note_on_c, 4, 50, 64
9, 160316, Note_on_c, 4, 50, 0
9, 160320, Note_on_c, 4, 55, 64
9, 160796, Note_on_c, 4, 55, 0
9, 161040, Note_on_c, 4, 47, 64
9, 161276, Note_on_c, 4, 47, 0
9, 161280, Note_on_c, 4, 52, 64
9, 161516, Note_on_c, 4, 52, 0
9, 161520, Note_on_c, 4, 40, 64
9, 161756, Note_on_c, 4, 40, 0
9, 161760, Note_on_c, 4, 43, 64
9, 161996, Note_on_c, 4, 43, 0
9, 162000, Note_on_c, 4, 47, 64
9, 162236, Note_on_c, 4, 47, 0
9, 162240, Note_on_c, 4, 52, 64
9, 162716, Note_on_c, 4, 52, 0
9, 162960, Note_on_c, 4, 43, 64
9, 163196, Note_on_c, 4, 43, 0
9, 163200, Note_on_c, 4, 48, 64
9, 163436, Note_on_c, 4, 48, 0
9, 163440, Note_on_c, 4, 50, 64
9, 163676, Note_on_c, 4, 50, 0
9, 163680, Note_on_c, 4, 43, 64
9, 163916, Note_on_c, 4, 43, 0
9, 163920, Note_on_c, 4, 48, 64
9, 164156, Note_on_c, 4, 48, 0
9, 164160, Note_on_c, 4, 50, 64
9, 164396, Note_on_c, 4, 50, 0
9, 164400, Note_on_c, 4, 48, 64
9, 164636, Note_on_c, 4, 48, 0
9, 164640, Note_on_c, 4, 47, 64
9, 164876, Note_on_c, 4, 47, 0
9, 164880, Note_on_c, 4, 45, 64
9, 165116, Note_on_c, 4, 45, 0
9, 165120, Note_on_c, 4, 43, 64
9, 165356, Note_on_c, 4, 43, 0
9, 165360, Note_on_c, 4, 55, 64
9, 165596, Note_on_c, 4, 55, 0
9, 165600, Note_on_c, 4, 55, 64
9, 165836, Note_on_c, 4, 55, 0
9, 165840, Note_on_c, 4, 43, 64
9, 166076, Note_on_c, 4, 43, 0
9, 166080, Note_on_c, 4, 43, 64
9, 166316, Note_on_c, 4, 43, 0
9, 166320, Note_on_c, 4, 55, 64
9, 166556, Note_on_c, 4, 55, 0
9, 166560, Note_on_c, 4, 55, 64
9, 166796, Note_on_c, 4, 55, 0
9, 166800, Note_on_c, 4, 43, 64
9, 167036, Note_on_c, 4, 43, 0
9, 167040, Note_on_c, 4, 43, 64
9, 167276, Note_on_c, 4, 43, 0
9, 167280, Note_on_c, 4, 55, 64
9, 167396, Note_on_c, 4, 55, 0
9, 167400, Note_on_c, 4, 54, 64
9, 167516, Note_on_c, 4, 54, 0
9, 167520, Note_on_c, 4, 52, 64
9, 167756, Note_on_c, 4, 52, 0
9, 167760, Note_on_c, 4, 57, 64
9, 167996, Note_on_c, 4, 57, 0
9, 168000, Note_on_c, 4, 62, 64
9, 168236, Note_on_c, 4, 62, 0
9, 168240, Note_on_c, 4, 60, 64
9, 168476, Note_on_c, 4, 60, 0
9, 168480, Note_on_c, 4, 59, 64
9, 168716, Note_on_c, 4, 59, 0
9, 168720, Note_on_c, 4, 57, 64
9, 168956, Note_on_c, 4, 57, 0
9, 168960, Note_on_c, 4, 55, 64
9, 169196, Note_on_c, 4, 55, 0
9, 169200, Note_on_c, 4, 53, 64
9, 169436, Note_on_c, 4, 53, 0
9, 169440, Note_on_c, 4, 52, 64
9, 169676, Note_on_c, 4, 52, 0
9, 169680, Note_on_c, 4, 50, 64
9, 169916, Note_on_c, 4, 50, 0
9, 169920, Note_on_c, 4, 60, 64
9, 170156, Note_on_c, 4, 60, 0
9, 170160, Note_on_c, 4, 58, 64
9, 170396, Note_on_c, 4, 58, 0
9, 170400, Note_on_c, 4, 57, 64
9, 170636, Note_on_c, 4, 57, 0
9, 170640, Note_on_c, 4, 55, 64
9, 170876, Note_on_c, 4, 55, 0
9, 170880, Note_on_c, 4, 54, 64
9, 171116, Note_on_c, 4, 54, 0
9, 171120, Note_on_c, 4, 52, 64
9, 171356, Note_on_c, 4, 52, 0
9, 171360, Note_on_c, 4, 50, 64
9, 171596, Note_on_c, 4, 50, 0
9, 171600, Note_on_c, 4, 49, 64
9, 171836, Note_on_c, 4, 49, 0
9, 171840, Note_on_c, 4, 59, 64
9, 172076, Note_on_c, 4, 59, 0
9, 172080, Note_on_c, 4, 57, 64
9, 172316, Note_on_c, 4, 57, 0
9, 172320, Note_on_c, 4, 55, 64
9, 172556, Note_on_c, 4, 55, 0
9, 172560, Note_on_c, 4, 54, 64
9, 172796, Note_on_c, 4, 54, 0
9, 172800, Note_on_c, 4, 52, 64
9, 173036, Note_on_c, 4, 52, 0
9, 173040, Note_on_c, 4, 50, 64
9, 173276, Note_on_c, 4, 50, 0
9, 173280, Note_on_c, 4, 48, 64
9, 173516, Note_on_c, 4, 48, 0
9, 173520, Note_on_c, 4, 47, 64
9, 173756, Note_on_c, 4, 47, 0
9, 173760, Note_on_c, 4, 45, 64
9, 173996, Note_on_c, 4, 45, 0
9, 174000, Note_on_c, 4, 43, 64
9, 174236, Note_on_c, 4, 43, 0
9, 174240, Note_on_c, 4, 41, 64
9, 174476, Note_on_c, 4, 41, 0
9, 174480, Note_on_c, 4, 40, 64
9, 174716, Note_on_c, 4, 40, 0
9, 174720, Note_on_c, 4, 38, 64
9, 175196, Note_on_c, 4, 38, 0
9, 176640, Note_on_c, 4, 39, 64
9, 177116, Note_on_c, 4, 39, 0
9, 178560, Note_on_c, 4, 40, 64
9, 179036, Note_on_c, 4, 40, 0
9, 180480, Note_on_c, 4, 40, 64
9, 180956, Note_on_c, 4, 40, 0
9, 182400, Note_on_c, 4, 40, 64
9, 182876, Note_on_c, 4, 40, 0
9, 184320, Note_on_c, 4, 40, 64
9, 184796, Note_on_c, 4, 40, 0
9, 186240, Note_on_c, 4, 45, 64
9, 186716, Note_on_c, 4, 45, 0
9, 187920, Note_on_c, 4, 57, 64
9, 188156, Note_on_c, 4, 57, 0
9, 188160, Note_on_c, 4, 43, 64
9, 188396, Note_on_c, 4, 43, 0
9, 189840, Note_on_c, 4, 55, 64
9, 190076, Note_on_c, 4, 55, 0
9, 190080, Note_on_c, 4, 41, 64
9, 190316, Note_on_c, 4, 41, 0
9, 191760, Note_on_c, 4, 53, 64
9, 191996, Note_on_c, 4, 53, 0
9, 192000, Note_on_c, 4, 40, 64
9, 192236, Note_on_c, 4, 40, 0
9, 192240, Note_on_c, 4, 52, 64
9, 192476, Note_on_c, 4, 52, 0
9, 192480, Note_on_c, 4, 52, 64
9, 192716, Note_on_c, 4, 52, 0
9, 192720, Note_on_c, 4, 40, 64
9, 192956, Note_on_c, 4, 40, 0
9, 192960, Note_on_c, 4, 40, 64
9, 193196, Note_on_c, 4, 40, 0
9, 193200, Note_on_c, 4, 52, 64
9, 193436, Note_on_c, 4, 52, 0
9, 193440, Note_on_c, 4, 52, 64
9, 193676, Note_on_c, 4, 52, 0
9, 193680, Note_on_c, 4, 50, 64
9, 193916, Note_on_c, 4, 50, 0
9, 193920, Note_on_c, 4, 48, 64
9, 194156, Note_on_c, 4, 48, 0
9, 194160, Note_on_c, 4, 50, 64
9, 194396, Note_on_c, 4, 50, 0
9, 194400, Note_on_c, 4, 52, 64
9, 194636, Note_on_c, 4, 52, 0
9, 194640, Note_on_c, 4, 40, 64
9, 194876, Note_on_c, 4, 40, 0
9, 194880, Note_on_c, 4, 45, 64
9, 195356, Note_on_c, 4, 45, 0
9, 195600, Note_on_c, 4, 57, 64
9, 195716, Note_on_c, 4, 57, 0
9, 195720, Note_on_c, 4, 56, 64
9, 195836, Note_on_c, 4, 56, 0
9, 195840, Note_on_c, 4, 57, 64
9, 196076, Note_on_c, 4, 57, 0
9, 196080, Note_on_c, 4, 52, 64
9, 196196, Note_on_c, 4, 52, 0
9, 196200, Note_on_c, 4, 50, 64
9, 196316, Note_on_c, 4, 50, 0
9, 196320, Note_on_c, 4, 52, 64
9, 196556, Note_on_c, 4, 52, 0
9, 196560, Note_on_c, 4, 57, 64
9, 196676, Note_on_c, 4, 57, 0
9, 196680, Note_on_c, 4, 56, 64
9, 196796, Note_on_c, 4, 56, 0
9, 196800, Note_on_c, 4, 57, 64
9, 197036, Note_on_c, 4, 57, 0
9, 197040, Note_on_c, 4, 48, 64
9, 197156, Note_on_c, 4, 48, 0
9, 197160, Note_on_c, 4, 47, 64
9, 197276, Note_on_c, 4, 47, 0
9, 197280, Note_on_c, 4, 48, 64
9, 197516, Note_on_c, 4, 48, 0
9, 197520, Note_on_c, 4, 57, 64
9, 197636, Note_on_c, 4, 57, 0
9, 197640, Note_on_c, 4, 56, 64
9, 197756, Note_on_c, 4, 56, 0
9, 197760, Note_on_c, 4, 57, 64
9, 197996, Note_on_c, 4, 57, 0
9, 198000, Note_on_c, 4, 45, 64
9, 198116, Note_on_c, 4, 45, 0
9, 198120, Note_on_c, 4, 47, 64
9, 198236, Note_on_c, 4, 47, 0
9, 198240, Note_on_c, 4, 49, 64
9, 198476, Note_on_c, 4, 49, 0
9, 198480, Note_on_c, 4, 51, 64
9, 198716, Note_on_c, 4, 51, 0
9, 198720, Note_on_c, 4, 52, 64
9, 198956, Note_on_c, 4, 52, 0
9, 198960, Note_on_c, 4, 40, 64
9, 199196, Note_on_c, 4, 40, 0
9, 199440, Note_on_c, 4, 52, 64
9, 199556, Note_on_c, 4, 52, 0
9, 199560, Note_on_c, 4, 51, 64
9, 199676, Note_on_c, 4, 51, 0
9, 199680, Note_on_c, 4, 52, 64
9, 199916, Note_on_c, 4, 52, 0
9, 199920, Note_on_c, 4, 47, 64
9, 200036, Note_on_c, 4, 47, 0
9, 200040, Note_on_c, 4, 45, 64
9, 200156, Note_on_c, 4, 45, 0
9, 200160, Note_on_c, 4, 47, 64
9, 200396, Note_on_c, 4, 47, 0
9, 200400, Note_on_c, 4, 52, 64
9, 200516, Note_on_c, 4, 52, 0
9, 200520, Note_on_c, 4, 51, 64
9, 200636, Note_on_c, 4, 51, 0
9, 200640, Note_on_c, 4, 52, 64
9, 200876, Note_on_c, 4, 52, 0
9, 200880, Note_on_c, 4, 43, 64
9, 200996, Note_on_c, 4, 43, 0
9, 201000, Note_on_c, 4, 42, 64
9, 201116, Note_on_c, 4, 42, 0
9, 201120, Note_on_c, 4, 43, 64
9, 201356, Note_on_c, 4, 43, 0
9, 201360, Note_on_c, 4, 52, 64
9, 201476, Note_on_c, 4, 52, 0
9, 201480, Note_on_c, 4, 51, 64
9, 201596, Note_on_c, 4, 51, 0
9, 201600, Note_on_c, 4, 52, 64
9, 201836, Note_on_c, 4, 52, 0
9, 201840, Note_on_c, 4, 40, 64
9, 201956, Note_on_c, 4, 40, 0
9, 201960, Note_on_c, 4, 42, 64
9, 202076, Note_on_c, 4, 42, 0
9, 202080, Note_on_c, 4, 43, 64
9, 202316, Note_on_c, 4, 43, 0
9, 202320, Note_on_c, 4, 45, 64
9, 202556, Note_on_c, 4, 45, 0
9, 202560, Note_on_c, 4, 47, 64
9, 202676, Note_on_c, 4, 47, 0
9, 202680, Note_on_c, 4, 45, 64
9, 202796, Note_on_c, 4, 45, 0
9, 202800, Note_on_c, 4, 47, 64
9, 202916, Note_on_c, 4, 47, 0
9, 202920, Note_on_c, 4, 48, 64
9, 203036, Note_on_c, 4, 48, 0
9, 203040, Note_on_c, 4, 47, 64
9, 203156, Note_on_c, 4, 47, 0
9, 203160, Note_on_c, 4, 48, 64
9, 203276, Note_on_c, 4, 48, 0
9, 203280, Note_on_c, 4, 47, 64
9, 203396, Note_on_c, 4, 47, 0
9, 203400, Note_on_c, 4, 45, 64
9, 203516, Note_on_c, 4, 45, 0
9, 203520, Note_on_c, 4, 43, 64
9, 203996, Note_on_c, 4, 43, 0
9, 204240, Note_on_c, 4, 50, 64
9, 204476, Note_on_c, 4, 50, 0
9, 204480, Note_on_c, 4, 55, 64
9, 204596, Note_on_c, 4, 55, 0
9, 204600, Note_on_c, 4, 54, 64
9, 204716, Note_on_c, 4, 54, 0
9, 204720, Note_on_c, 4, 55, 64
9, 204836, Note_on_c, 4, 55, 0
9, 204840, Note_on_c, 4, 57, 64
9, 204956, Note_on_c, 4, 57, 0
9, 204960, Note_on_c, 4, 55, 64
9, 205076, Note_on_c, 4, 55, 0
9, 205080, Note_on_c, 4, 59, 64
9, 205196, Note_on_c, 4, 59, 0
9, 205200, Note_on_c, 4, 57, 64
9, 205316, Note_on_c, 4, 57, 0
9, 205320, Note_on_c, 4, 60, 64
9, 205436, Note_on_c, 4, 60, 0
9, 205440, Note_on_c, 4, 59, 64
9, 205556, Note_on_c, 4, 59, 0
9, 205560, Note_on_c, 4, 60, 64
9, 205676, Note_on_c, 4, 60, 0
9, 205680, Note_on_c, 4, 59, 64
9, 205796, Note_on_c, 4, 59, 0
9, 205800, Note_on_c, 4, 57, 64
9, 205916, Note_on_c, 4, 57, 0
9, 205920, Note_on_c, 4, 55, 64
9, 206036, Note_on_c, 4, 55, 0
9, 206040, Note_on_c, 4, 59, 64
9, 206156, Note_on_c, 4, 59, 0
9, 206160, Note_on_c, 4, 57, 64
9, 206276, Note_on_c, 4, 57, 0
9, 206280, Note_on_c, 4, 55, 64
9, 206396, Note_on_c, 4, 55, 0
9, 206400, Note_on_c, 4, 54, 64
9, 206516, Note_on_c, 4, 54, 0
9, 206520, Note_on_c, 4, 59, 64
9, 206636, Note_on_c, 4, 59, 0
9, 206640, Note_on_c, 4, 57, 64
9, 206756, Note_on_c, 4, 57, 0
9, 206760, Note_on_c, 4, 55, 64
9, 206876, Note_on_c, 4, 55, 0
9, 206880, Note_on_c, 4, 54, 64
9, 206996, Note_on_c, 4, 54, 0
9, 207000, Note_on_c, 4, 55, 64
9, 207116, Note_on_c, 4, 55, 0
9, 207120, Note_on_c, 4, 54, 64
9, 207236, Note_on_c, 4, 54, 0
9, 207240, Note_on_c, 4, 52, 64
9, 207356, Note_on_c, 4, 52, 0
9, 207360, Note_on_c, 4, 50, 64
9, 207836, Note_on_c, 4, 50, 0
9, 208320, Note_on_c, 4, 50, 64
9, 208796, Note_on_c, 4, 50, 0
9, 209280, Note_on_c, 4, 43, 64
9, 209756, Note_on_c, 4, 43, 0
9, 210240, Note_on_c, 4, 43, 64
9, 210716, Note_on_c, 4, 43, 0
9, 211200, Note_on_c, 4, 42, 64
9, 211676, Note_on_c, 4, 42, 0
9, 212160, Note_on_c, 4, 42, 64
9, 212636, Note_on_c, 4, 42, 0
9, 213120, Note_on_c, 4, 45, 64
9, 213596, Note_on_c, 4, 45, 0
9, 214080, Note_on_c, 4, 45, 64
9, 214556, Note_on_c, 4, 45, 0
9, 215040, Note_on_c, 4, 42, 64
9, 215516, Note_on_c, 4, 42, 0
9, 216000, Note_on_c, 4, 42, 64
9, 216476, Note_on_c, 4, 42, 0
9, 216960, Note_on_c, 4, 41, 64
9, 217436, Note_on_c, 4, 41, 0
9, 217920, Note_on_c, 4, 41, 64
9, 218396, Note_on_c, 4, 41, 0
9, 218880, Note_on_c, 4, 37, 64
9, 218996, Note_on_c, 4, 37, 0
9, 219000, Note_on_c, 4, 38, 64
9, 219116, Note_on_c, 4, 38, 0
9, 219120, Note_on_c, 4, 37, 64
9, 219236, Note_on_c, 4, 37, 0
9, 219240, Note_on_c, 4, 58, 64
9, 219356, Note_on_c, 4, 58, 0
9, 219360, Note_on_c, 4, 55, 64
9, 219476, Note_on_c, 4, 55, 0
9, 219480, Note_on_c, 4, 52, 64
9, 219596, Note_on_c, 4, 52, 0
9, 219600, Note_on_c, 4, 49, 64
9, 219716, Note_on_c, 4, 49, 0
9, 219720, Note_on_c, 4, 43, 64
9, 219836, Note_on_c, 4, 43, 0
9, 219840, Note_on_c, 4, 37, 64
9, 219956, Note_on_c, 4, 37, 0
9, 219960, Note_on_c, 4, 38, 64
9, 220076, Note_on_c, 4, 38, 0
9, 220080, Note_on_c, 4, 37, 64
9, 220196, Note_on_c, 4, 37, 0
9, 220200, Note_on_c, 4, 58, 64
9, 220316, Note_on_c, 4, 58, 0
9, 220320, Note_on_c, 4, 55, 64
9, 220436, Note_on_c, 4, 55, 0
9, 220440, Note_on_c, 4, 52, 64
9, 220556, Note_on_c, 4, 52, 0
9, 220560, Note_on_c, 4, 49, 64
9, 220676, Note_on_c, 4, 49, 0
9, 220680, Note_on_c, 4, 43, 64
9, 220796, Note_on_c, 4, 43, 0
9, 220800, Note_on_c, 4, 38, 64
9, 220916, Note_on_c, 4, 38, 0
9, 220920, Note_on_c, 4, 39, 64
9, 221036, Note_on_c, 4, 39, 0
9, 221040, Note_on_c, 4, 38, 64
9, 221156, Note_on_c, 4, 38, 0
9, 221160, Note_on_c, 4, 58, 64
9, 221276, Note_on_c, 4, 58, 0
9, 221280, Note_on_c, 4, 55, 64
9, 221396, Note_on_c, 4, 55, 0
9, 221400, Note_on_c, 4, 50, 64
9, 221516, Note_on_c, 4, 50, 0
9, 221520, Note_on_c, 4, 46, 64
9, 221636, Note_on_c, 4, 46, 0
9, 221640, Note_on_c, 4, 43, 64
9, 221756, Note_on_c, 4, 43, 0
9, 221760, Note_on_c, 4, 38, 64
9, 221876, Note_on_c, 4, 38, 0
9, 221880, Note_on_c, 4, 39, 64
9, 221996, Note_on_c, 4, 39, 0
9, 222000, Note_on_c, 4, 38, 64
9, 222116, Note_on_c, 4, 38, 0
9, 222120, Note_on_c, 4, 58, 64
9, 222236, Note_on_c, 4, 58, 0
9, 222240, Note_on_c, 4, 55, 64
9, 222356, Note_on_c, 4, 55, 0
9, 222360, Note_on_c, 4, 50, 64
9, 222476, Note_on_c, 4, 50, 0
9, 222480, Note_on_c, 4, 46, 64
9, 222596, Note_on_c, 4, 46, 0
9, 222600, Note_on_c, 4, 43, 64
9, 222716, Note_on_c, 4, 43, 0
9, 222720, Note_on_c, 4, 38, 64
9, 222836, Note_on_c, 4, 38, 0
9, 222840, Note_on_c, 4, 39, 64
9, 222956, Note_on_c, 4, 39, 0
9, 222960, Note_on_c, 4, 38, 64
9, 223076, Note_on_c, 4, 38, 0
9, 223080, Note_on_c, 4, 61, 64
9, 223196, Note_on_c, 4, 61, 0
9, 223200, Note_on_c, 4, 58, 64
9, 223316, Note_on_c, 4, 58, 0
9, 223320, Note_on_c, 4, 55, 64
9, 223436, Note_on_c, 4, 55, 0
9, 223440, Note_on_c, 4, 52, 64
9, 223556, Note_on_c, 4, 52, 0
9, 223560, Note_on_c, 4, 49, 64
9, 223676, Note_on_c, 4, 49, 0
9, 223680, Note_on_c, 4, 38, 64
9, 223796, Note_on_c, 4, 38, 0
9, 223800, Note_on_c, 4, 39, 64
9, 223916, Note_on_c, 4, 39, 0
9, 223920, Note_on_c, 4, 38, 64
9, 224036, Note_on_c, 4, 38, 0
9, 224040, Note_on_c, 4, 61, 64
9, 224156, Note_on_c, 4, 61, 0
9, 224160, Note_on_c, 4, 58, 64
9, 224276, Note_on_c, 4, 58, 0
9, 224280, Note_on_c, 4, 55, 64
9, 224396, Note_on_c, 4, 55, 0
9, 224400, Note_on_c, 4, 52, 64
9, 224516, Note_on_c, 4, 52, 0
9, 224520, Note_on_c, 4, 49, 64
9, 224636, Note_on_c, 4, 49, 0
9, 224640, Note_on_c, 4, 38, 64
9, 224756, Note_on_c, 4, 38, 0
9, 224760, Note_on_c, 4, 39, 64
9, 224876, Note_on_c, 4, 39, 0
9, 224880, Note_on_c, 4, 38, 64
9, 224996, Note_on_c, 4, 38, 0
9, 225000, Note_on_c, 4, 62, 64
9, 225116, Note_on_c, 4, 62, 0
9, 225120, Note_on_c, 4, 58, 64
9, 225236, Note_on_c, 4, 58, 0
9, 225240, Note_on_c, 4, 55, 64
9, 225356, Note_on_c, 4, 55, 0
9, 225360, Note_on_c, 4, 50, 64
9, 225476, Note_on_c, 4, 50, 0
9, 225480, Note_on_c, 4, 46, 64
9, 225596, Note_on_c, 4, 46, 0
9, 225600, Note_on_c, 4, 38, 64
9, 225716, Note_on_c, 4, 38, 0
9, 225720, Note_on_c, 4, 39, 64
9, 225836, Note_on_c, 4, 39, 0
9, 225840, Note_on_c, 4, 38, 64
9, 225956, Note_on_c, 4, 38, 0
9, 225960, Note_on_c, 4, 62, 64
9, 226076, Note_on_c, 4, 62, 0
9, 226080, Note_on_c, 4, 58, 64
9, 226196, Note_on_c, 4, 58, 0
9, 226200, Note_on_c, 4, 55, 64
9, 226316, Note_on_c, 4, 55, 0
9, 226320, Note_on_c, 4, 50, 64
9, 226436, Note_on_c, 4, 50, 0
9, 226440, Note_on_c, 4, 46, 64
9, 226556, Note_on_c, 4, 46, 0
9, 226560, Note_on_c, 4, 38, 64
9, 226676, Note_on_c, 4, 38, 0
9, 226680, Note_on_c, 4, 39, 64
9, 226796, Note_on_c, 4, 39, 0
9, 226800, Note_on_c, 4, 38, 64
9, 226916, Note_on_c, 4, 38, 0
9, 226920, Note_on_c, 4, 63, 64
9, 227036, Note_on_c, 4, 63, 0
9, 227040, Note_on_c, 4, 60, 64
9, 227156, Note_on_c, 4, 60, 0
9, 227160, Note_on_c, 4, 57, 64
9, 227276, Note_on_c, 4, 57, 0
9, 227280, Note_on_c, 4, 54, 64
9, 227396, Note_on_c, 4, 54, 0
9, 227400, Note_on_c, 4, 50, 64
9, 227516, Note_on_c, 4, 50, 0
9, 227520, Note_on_c, 4, 38, 64
9, 227636, Note_on_c, 4, 38, 0
9, 227640, Note_on_c, 4, 39, 64
9, 227756, Note_on_c, 4, 39, 0
9, 227760, Note_on_c, 4, 38, 64
9, 227876, Note_on_c, 4, 38, 0
9, 227880, Note_on_c, 4, 63, 64
9, 227996, Note_on_c, 4, 63, 0
9, 228000, Note_on_c, 4, 60, 64
9, 228116, Note_on_c, 4, 60, 0
9, 228120, Note_on_c, 4, 57, 64
9, 228236, Note_on_c, 4, 57, 0
9, 228240, Note_on_c, 4, 54, 64
9, 228356, Note_on_c, 4, 54, 0
9, 228360, Note_on_c, 4, 50, 64
9, 228476, Note_on_c, 4, 50, 0
9, 228480, Note_on_c, 4, 43, 64
9, 228716, Note_on_c, 4, 43, 0
9, 230160, Note_on_c, 4, 55, 64
9, 230396, Note_on_c, 4, 55, 0
9, 230400, Note_on_c, 4, 41, 64
9, 230636, Note_on_c, 4, 41, 0
9, 232080, Note_on_c, 4, 53, 64
9, 232316, Note_on_c, 4, 53, 0
9, 232320, Note_on_c, 4, 39, 64
9, 232556, Note_on_c, 4, 39, 0
9, 234000, Note_on_c, 4, 51, 64
9, 234236, Note_on_c, 4, 51, 0
9, 234240, Note_on_c, 4, 38, 64
9, 234716, Note_on_c, 4, 38, 0
9, 234960, Note_on_c, 4, 50, 64
9, 235196, Note_on_c, 4, 50, 0
9, 235200, Note_on_c, 4, 38, 64
9, 235676, Note_on_c, 4, 38, 0
9, 235920, Note_on_c, 4, 50, 64
9, 236156, Note_on_c, 4, 50, 0
9, 236160, Note_on_c, 4, 36, 64
9, 236636, Note_on_c, 4, 36, 0
9, 236880, Note_on_c, 4, 48, 64
9, 237116, Note_on_c, 4, 48, 0
9, 237120, Note_on_c, 4, 46, 64
9, 237236, Note_on_c, 4, 46, 0
9, 237240, Note_on_c, 4, 50, 64
9, 237356, Note_on_c, 4, 50, 0
9, 237360, Note_on_c, 4, 43, 64
9, 237476, Note_on_c, 4, 43, 0
9, 237480, Note_on_c, 4, 45, 64
9, 237596, Note_on_c, 4, 45, 0
9, 237600, Note_on_c, 4, 46, 64
9, 237716, Note_on_c, 4, 46, 0
9, 237720, Note_on_c, 4, 48, 64
9, 237836, Note_on_c, 4, 48, 0
9, 237840, Note_on_c, 4, 50, 64
9, 237956, Note_on_c, 4, 50, 0
9, 237960, Note_on_c, 4, 52, 64
9, 238076, Note_on_c, 4, 52, 0
9, 238080, Note_on_c, 4, 54, 64
9, 238196, Note_on_c, 4, 54, 0
9, 238200, Note_on_c, 4, 57, 64
9, 238316, Note_on_c, 4, 57, 0
9, 238320, Note_on_c, 4, 50, 64
9, 238436, Note_on_c, 4, 50, 0
9, 238440, Note_on_c, 4, 52, 64
9, 238556, Note_on_c, 4, 52, 0
9, 238560, Note_on_c, 4, 54, 64
9, 238676, Note_on_c, 4, 54, 0
9, 238680, Note_on_c, 4, 55, 64
9, 238796, Note_on_c, 4, 55, 0
9, 238800, Note_on_c, 4, 57, 64
9, 238916, Note_on_c, 4, 57, 0
9, 238920, Note_on_c, 4, 58, 64
9, 239036, Note_on_c, 4, 58, 0
9, 239040, Note_on_c, 4, 60, 64
9, 239156, Note_on_c, 4, 60, 0
9, 239160, Note_on_c, 4, 57, 64
9, 239276, Note_on_c, 4, 57, 0
9, 239280, Note_on_c, 4, 54, 64
9, 239396, Note_on_c, 4, 54, 0
9, 239400, Note_on_c, 4, 55, 64
9, 239516, Note_on_c, 4, 55, 0
9, 239520, Note_on_c, 4, 57, 64
9, 239636, Note_on_c, 4, 57, 0
9, 239640, Note_on_c, 4, 58, 64
9, 239756, Note_on_c, 4, 58, 0
9, 239760, Note_on_c, 4, 60, 64
9, 239876, Note_on_c, 4, 60, 0
9, 239880, Note_on_c, 4, 62, 64
9, 239996, Note_on_c, 4, 62, 0
9, 240000, Note_on_c, 4, 63, 64
9, 240356, Note_on_c, 4, 63, 0
9, 240360, Note_on_c, 4, 62, 64
9, 240476, Note_on_c, 4, 62, 0
9, 240480, Note_on_c, 4, 60, 64
9, 240596, Note_on_c, 4, 60, 0
9, 240600, Note_on_c, 4, 58, 64
9, 240716, Note_on_c, 4, 58, 0
9, 240720, Note_on_c, 4, 57, 64
9, 240836, Note_on_c, 4, 57, 0
9, 240840, Note_on_c, 4, 55, 64
9, 240956, Note_on_c, 4, 55, 0
9, 240960, Note_on_c, 4, 54, 64
9, 241196, Note_on_c, 4, 54, 0
9, 241200, Note_on_c, 4, 57, 64
9, 241436, Note_on_c, 4, 57, 0
9, 241440, Note_on_c, 4, 62, 64
9, 241676, Note_on_c, 4, 62, 0
9, 241680, Note_on_c, 4, 50, 64
9, 241916, Note_on_c, 4, 50, 0
9, 241920, Note_on_c, 4, 43, 64
9, 242156, Note_on_c, 4, 43, 0
9, 242160, Note_on_c, 4, 55, 64
9, 242396, Note_on_c, 4, 55, 0
9, 242400, Note_on_c, 4, 55, 64
9, 242636, Note_on_c, 4, 55, 0
9, 242640, Note_on_c, 4, 43, 64
9, 242876, Note_on_c, 4, 43, 0
9, 242880, Note_on_c, 4, 43, 64
9, 243116, Note_on_c, 4, 43, 0
9, 243120, Note_on_c, 4, 55, 64
9, 243356, Note_on_c, 4, 55, 0
9, 243360, Note_on_c, 4, 55, 64
9, 243596, Note_on_c, 4, 55, 0
9, 243600, Note_on_c, 4, 43, 64
9, 243836, Note_on_c, 4, 43, 0
9, 243840, Note_on_c, 4, 43, 64
9, 244076, Note_on_c, 4, 43, 0
9, 244080, Note_on_c, 4, 55, 64
9, 244196, Note_on_c, 4, 55, 0
9, 244200, Note_on_c, 4, 54, 64
9, 244316, Note_on_c, 4, 54, 0
9, 244320, Note_on_c, 4, 52, 64
9, 244556, Note_on_c, 4, 52, 0
9, 244560, Note_on_c, 4, 57, 64
9, 244796, Note_on_c, 4, 57, 0
9, 244800, Note_on_c, 4, 50, 64
9, 245036, Note_on_c, 4, 50, 0
9, 245040, Note_on_c, 4, 62, 64
9, 245156, Note_on_c, 4, 62, 0
9, 245160, Note_on_c, 4, 61, 64
9, 245276, Note_on_c, 4, 61, 0
9, 245280, Note_on_c, 4, 62, 64
9, 245516, Note_on_c, 4, 62, 0
9, 245520, Note_on_c, 4, 50, 64
9, 245756, Note_on_c, 4, 50, 0
9, 245760, Note_on_c, 4, 50, 64
9, 245996, Note_on_c, 4, 50, 0
9, 246000, Note_on_c, 4, 62, 64
9, 246116, Note_on_c, 4, 62, 0
9, 246120, Note_on_c, 4, 61, 64
9, 246236, Note_on_c, 4, 61, 0
9, 246240, Note_on_c, 4, 62, 64
9, 246476, Note_on_c, 4, 62, 0
9, 246480, Note_on_c, 4, 50, 64
9, 246716, Note_on_c, 4, 50, 0
9, 246720, Note_on_c, 4, 50, 64
9, 246956, Note_on_c, 4, 50, 0
9, 246960, Note_on_c, 4, 62, 64
9, 247076, Note_on_c, 4, 62, 0
9, 247080, Note_on_c, 4, 61, 64
9, 247196, Note_on_c, 4, 61, 0
9, 247200, Note_on_c, 4, 62, 64
9, 247436, Note_on_c, 4, 62, 0
9, 247440, Note_on_c, 4, 54, 64
9, 247676, Note_on_c, 4, 54, 0
9, 247680, Note_on_c, 4, 55, 64
9, 247916, Note_on_c, 4, 55, 0
9, 247920, Note_on_c, 4, 52, 64
9, 248156, Note_on_c, 4, 52, 0
9, 248160, Note_on_c, 4, 48, 64
9, 248396, Note_on_c, 4, 48, 0
9, 248400, Note_on_c, 4, 50, 64
9, 248636, Note_on_c, 4, 50, 0
9, 248640, Note_on_c, 4, 52, 64
9, 248876, Note_on_c, 4, 52, 0
9, 248880, Note_on_c, 4, 50, 64
9, 248996, Note_on_c, 4, 50, 0
9, 249000, Note_on_c, 4, 48, 64
9, 249116, Note_on_c, 4, 48, 0
9, 249120, Note_on_c, 4, 47, 64
9, 249356, Note_on_c, 4, 47, 0
9, 249360, Note_on_c, 4, 45, 64
9, 249476, Note_on_c, 4, 45, 0
9, 249480, Note_on_c, 4, 43, 64
9, 249596, Note_on_c, 4, 43, 0
9, 249600, Note_on_c, 4, 48, 64
9, 249836, Note_on_c, 4, 48, 0
9, 249840, Note_on_c, 4, 47, 64
9, 249956, Note_on_c, 4, 47, 0
9, 249960, Note_on_c, 4, 45, 64
9, 250076, Note_on_c, 4, 45, 0
9, 250080, Note_on_c, 4, 43, 64
9, 250316, Note_on_c, 4, 43, 0
9, 250320, Note_on_c, 4, 55, 64
9, 250436, Note_on_c, 4, 55, 0
9, 250440, Note_on_c, 4, 54, 64
9, 250556, Note_on_c, 4, 54, 0
9, 250560, Note_on_c, 4, 52, 64
9, 250796, Note_on_c, 4, 52, 0
9, 250800, Note_on_c, 4, 50, 64
9, 250916, Note_on_c, 4, 50, 0
9, 250920, Note_on_c, 4, 48, 64
9, 251036, Note_on_c, 4, 48, 0
9, 251040, Note_on_c, 4, 47, 64
9, 251276, Note_on_c, 4, 47, 0
9, 251280, Note_on_c, 4, 49, 64
9, 251516, Note_on_c, 4, 49, 0
9, 251520, Note_on_c, 4, 50, 64
9, 251756, Note_on_c, 4, 50, 0
9, 251760, Note_on_c, 4, 38, 64
9, 251996, Note_on_c, 4, 38, 0
9, 252000, Note_on_c, 4, 38, 64
9, 252236, Note_on_c, 4, 38, 0
9, 252240, Note_on_c, 4, 50, 64
9, 252356, Note_on_c, 4, 50, 0
9, 252360, Note_on_c, 4, 52, 64
9, 252476, Note_on_c, 4, 52, 0
9, 252480, Note_on_c, 4, 54, 64
9, 252716, Note_on_c, 4, 54, 0
9, 252720, Note_on_c, 4, 55, 64
9, 252956, Note_on_c, 4, 55, 0
9, 252960, Note_on_c, 4, 57, 64
9, 253196, Note_on_c, 4, 57, 0
9, 253200, Note_on_c, 4, 54, 64
9, 253436, Note_on_c, 4, 54, 0
9, 253440, Note_on_c, 4, 55, 64
9, 253676, Note_on_c, 4, 55, 0
9, 253680, Note_on_c, 4, 60, 64
9, 253916, Note_on_c, 4, 60, 0
9, 253920, Note_on_c, 4, 62, 64
9, 254156, Note_on_c, 4, 62, 0
9, 254160, Note_on_c, 4, 50, 64
9, 254396, Note_on_c, 4, 50, 0
9, 254400, Note_on_c, 4, 55, 64
9, 254636, Note_on_c, 4, 55, 0
9, 254640, Note_on_c, 4, 50, 64
9, 254756, Note_on_c, 4, 50, 0
9, 254760, Note_on_c, 4, 48, 64
9, 254876, Note_on_c, 4, 48, 0
9, 254880, Note_on_c, 4, 50, 64
9, 255116, Note_on_c, 4, 50, 0
9, 255120, Note_on_c, 4, 55, 64
9, 255236, Note_on_c, 4, 55, 0
9, 255240, Note_on_c, 4, 54, 64
9, 255356, Note_on_c, 4, 54, 0
9, 255360, Note_on_c, 4, 55, 64
9, 255360, Note_on_c, 4, 59, 64
9, 255596, Note_on_c, 4, 59, 0
9, 255596, Note_on_c, 4, 55, 0
9, 259920, Note_on_c, 4, 50, 64
9, 260156, Note_on_c, 4, 50, 0
9, 260160, Note_on_c, 4, 55, 64
9, 260396, Note_on_c, 4, 55, 0
9, 260400, Note_on_c, 4, 54, 64
9, 260516, Note_on_c, 4, 54, 0
9, 260520, Note_on_c, 4, 52, 64
9, 260636, Note_on_c, 4, 52, 0
9, 260640, Note_on_c, 4, 50, 64
9, 260756, Note_on_c, 4, 50, 0
9, 260760, Note_on_c, 4, 48, 64
9, 260876, Note_on_c, 4, 48, 0
9, 260880, Note_on_c, 4, 47, 64
9, 260996, Note_on_c, 4, 47, 0
9, 261000, Note_on_c, 4, 45, 64
9, 261116, Note_on_c, 4, 45, 0
9, 261120, Note_on_c, 4, 47, 64
9, 261356, Note_on_c, 4, 47, 0
9, 261360, Note_on_c, 4, 45, 64
9, 261476, Note_on_c, 4, 45, 0
9, 261480, Note_on_c, 4, 43, 64
9, 261596, Note_on_c, 4, 43, 0
9, 261600, Note_on_c, 4, 50, 64
9, 261836, Note_on_c, 4, 50, 0
9, 261840, Note_on_c, 4, 38, 64
9, 262076, Note_on_c, 4, 38, 0
9, 262080, Note_on_c, 4, 43, 64
9, 263036, Note_on_c, 4, 43, 0
9, 263040, Note_on_c, 4, 48, 64
9, 263996, Note_on_c, 4, 48, 0
9, 264000, Note_on_c, 4, 47, 64
9, 264956, Note_on_c, 4, 47, 0
9, 269280, Note_on_c, 4, 55, 64
9, 269396, Note_on_c, 4, 55, 0
9, 269400, Note_on_c, 4, 54, 64
9, 269516, Note_on_c, 4, 54, 0
9, 269520, Note_on_c, 4, 55, 64
9, 269636, Note_on_c, 4, 55, 0
9, 269640, Note_on_c, 4, 57, 64
9, 269756, Note_on_c, 4, 57, 0
9, 269760, Note_on_c, 4, 59, 64
9, 269876, Note_on_c, 4, 59, 0
9, 269880, Note_on_c, 4, 60, 64
9, 269996, Note_on_c, 4, 60, 0
9, 270000, Note_on_c, 4, 62, 64
9, 270116, Note_on_c, 4, 62, 0
9, 270120, Note_on_c, 4, 64, 64
9, 270236, Note_on_c, 4, 64, 0
9, 270240, Note_on_c, 4, 62, 64
9, 270356, Note_on_c, 4, 62, 0
9, 270360, Note_on_c, 4, 60, 64
9, 270476, Note_on_c, 4, 60, 0
9, 270480, Note_on_c, 4, 59, 64
9, 270596, Note_on_c, 4, 59, 0
9, 270600, Note_on_c, 4, 57, 64
9, 270716, Note_on_c, 4, 57, 0
9, 270720, Note_on_c, 4, 55, 64
9, 270836, Note_on_c, 4, 55, 0
9, 270840, Note_on_c, 4, 54, 64
9, 270956, Note_on_c, 4, 54, 0
9, 270960, Note_on_c, 4, 55, 64
9, 271076, Note_on_c, 4, 55, 0
9, 271080, Note_on_c, 4, 57, 64
9, 271196, Note_on_c, 4, 57, 0
9, 271200, Note_on_c, 4, 59, 64
9, 271316, Note_on_c, 4, 59, 0
9, 271320, Note_on_c, 4, 55, 64
9, 271436, Note_on_c, 4, 55, 0
9, 271440, Note_on_c, 4, 60, 64
9, 271556, Note_on_c, 4, 60, 0
9, 271560, Note_on_c, 4, 62, 64
9, 271676, Note_on_c, 4, 62, 0
9, 271680, Note_on_c, 4, 60, 64
9, 271796, Note_on_c, 4, 60, 0
9, 271800, Note_on_c, 4, 59, 64
9, 271916, Note_on_c, 4, 59, 0
9, 271920, Note_on_c, 4, 57, 64
9, 272036, Note_on_c, 4, 57, 0
9, 272040, Note_on_c, 4, 55, 64
9, 272156, Note_on_c, 4, 55, 0
9, 272160, Note_on_c, 4, 54, 64
9, 272276, Note_on_c, 4, 54, 0
9, 272280, Note_on_c, 4, 52, 64
9, 272396, Note_on_c, 4, 52, 0
9, 272400, Note_on_c, 4, 54, 64
9, 272516, Note_on_c, 4, 54, 0
9, 272520, Note_on_c, 4, 55, 64
9, 272636, Note_on_c, 4, 55, 0
9, 272640, Note_on_c, 4, 57, 64
9, 272756, Note_on_c, 4, 57, 0
9, 272760, Note_on_c, 4, 54, 64
9, 272876, Note_on_c, 4, 54, 0
9, 272880, Note_on_c, 4, 59, 64
9, 272996, Note_on_c, 4, 59, 0
9, 273000, Note_on_c, 4, 61, 64
9, 273116, Note_on_c, 4, 61, 0
9, 273120, Note_on_c, 4, 59, 64
9, 273236, Note_on_c, 4, 59, 0
9, 273240, Note_on_c, 4, 57, 64
9, 273356, Note_on_c, 4, 57, 0
9, 273360, Note_on_c, 4, 55, 64
9, 273476, Note_on_c, 4, 55, 0
9, 273480, Note_on_c, 4, 54, 64
9, 273596, Note_on_c, 4, 54, 0
9, 273600, Note_on_c, 4, 52, 64
9, 273716, Note_on_c, 4, 52, 0
9, 273720, Note_on_c, 4, 50, 64
9, 273836, Note_on_c, 4, 50, 0
9, 273840, Note_on_c, 4, 52, 64
9, 273956, Note_on_c, 4, 52, 0
9, 273960, Note_on_c, 4, 54, 64
9, 274076, Note_on_c, 4, 54, 0
9, 274080, Note_on_c, 4, 55, 64
9, 274196, Note_on_c, 4, 55, 0
9, 274200, Note_on_c, 4, 52, 64
9, 274316, Note_on_c, 4, 52, 0
9, 274320, Note_on_c, 4, 57, 64
9, 274436, Note_on_c, 4, 57, 0
9, 274440, Note_on_c, 4, 59, 64
9, 274556, Note_on_c, 4, 59, 0
9, 274560, Note_on_c, 4, 57, 64
9, 274676, Note_on_c, 4, 57, 0
9, 274680, Note_on_c, 4, 55, 64
9, 274796, Note_on_c, 4, 55, 0
9, 274800, Note_on_c, 4, 54, 64
9, 274916, Note_on_c, 4, 54, 0
9, 274920, Note_on_c, 4, 52, 64
9, 275036, Note_on_c, 4, 52, 0
9, 275040, Note_on_c, 4, 50, 64
9, 275516, Note_on_c, 4, 50, 0
9, 275760, Note_on_c, 4, 45, 64
9, 276236, Note_on_c, 4, 45, 0
9, 276480, Note_on_c, 4, 38, 64
9, 276956, Note_on_c, 4, 38, 0
9, 277200, Note_on_c, 4, 45, 64
9, 277676, Note_on_c, 4, 45, 0
9, 277920, Note_on_c, 4, 50, 64
9, 278156, Note_on_c, 4, 50, 0
9, 278160, Note_on_c, 4, 54, 64
9, 278396, Note_on_c, 4, 54, 0
9, 278400, Note_on_c, 4, 57, 64
9, 278636, Note_on_c, 4, 57, 0
9, 278640, Note_on_c, 4, 45, 64
9, 278876, Note_on_c, 4, 45, 0
9, 278880, Note_on_c, 4, 52, 64
9, 279116, Note_on_c, 4, 52, 0
9, 279120, Note_on_c, 4, 57, 64
9, 279356, Note_on_c, 4, 57, 0
9, 279360, Note_on_c, 4, 50, 64
9, 279476, Note_on_c, 4, 50, 0
9, 279480, Note_on_c, 4, 49, 64
9, 279596, Note_on_c, 4, 49, 0
9, 279600, Note_on_c, 4, 50, 64
9, 279716, Note_on_c, 4, 50, 0
9, 279720, Note_on_c, 4, 52, 64
9, 279836, Note_on_c, 4, 52, 0
9, 279840, Note_on_c, 4, 54, 64
9, 279956, Note_on_c, 4, 54, 0
9, 279960, Note_on_c, 4, 55, 64
9, 280076, Note_on_c, 4, 55, 0
9, 280080, Note_on_c, 4, 57, 64
9, 280196, Note_on_c, 4, 57, 0
9, 280200, Note_on_c, 4, 59, 64
9, 280316, Note_on_c, 4, 59, 0
9, 280320, Note_on_c, 4, 57, 64
9, 280436, Note_on_c, 4, 57, 0
9, 280440, Note_on_c, 4, 55, 64
9, 280556, Note_on_c, 4, 55, 0
9, 280560, Note_on_c, 4, 54, 64
9, 280676, Note_on_c, 4, 54, 0
9, 280680, Note_on_c, 4, 52, 64
9, 280796, Note_on_c, 4, 52, 0
9, 280800, Note_on_c, 4, 50, 64
9, 280916, Note_on_c, 4, 50, 0
9, 280920, Note_on_c, 4, 49, 64
9, 281036, Note_on_c, 4, 49, 0
9, 281040, Note_on_c, 4, 50, 64
9, 281156, Note_on_c, 4, 50, 0
9, 281160, Note_on_c, 4, 52, 64
9, 281276, Note_on_c, 4, 52, 0
9, 281280, Note_on_c, 4, 54, 64
9, 281396, Note_on_c, 4, 54, 0
9, 281400, Note_on_c, 4, 50, 64
9, 281516, Note_on_c, 4, 50, 0
9, 281520, Note_on_c, 4, 55, 64
9, 281636, Note_on_c, 4, 55, 0
9, 281640, Note_on_c, 4, 57, 64
9, 281756, Note_on_c, 4, 57, 0
9, 281760, Note_on_c, 4, 55, 64
9, 281876, Note_on_c, 4, 55, 0
9, 281880, Note_on_c, 4, 54, 64
9, 281996, Note_on_c, 4, 54, 0
9, 282000, Note_on_c, 4, 52, 64
9, 282116, Note_on_c, 4, 52, 0
9, 282120, Note_on_c, 4, 50, 64
9, 282236, Note_on_c, 4, 50, 0
9, 282240, Note_on_c, 4, 49, 64
9, 282356, Note_on_c, 4, 49, 0
9, 282360, Note_on_c, 4, 47, 64
9, 282476, Note_on_c, 4, 47, 0
9, 282480, Note_on_c, 4, 49, 64
9, 282596, Note_on_c, 4, 49, 0
9, 282600, Note_on_c, 4, 50, 64
9, 282716, Note_on_c, 4, 50, 0
9, 282720, Note_on_c, 4, 52, 64
9, 282836, Note_on_c, 4, 52, 0
9, 282840, Note_on_c, 4, 49, 64
9, 282956, Note_on_c, 4, 49, 0
9, 282960, Note_on_c, 4, 54, 64
9, 283076, Note_on_c, 4, 54, 0
9, 283080, Note_on_c, 4, 55, 64
9, 283196, Note_on_c, 4, 55, 0
9, 283200, Note_on_c, 4, 54, 64
9, 283316, Note_on_c, 4, 54, 0
9, 283320, Note_on_c, 4, 52, 64
9, 283436, Note_on_c, 4, 52, 0
9, 283440, Note_on_c, 4, 50, 64
9, 283556, Note_on_c, 4, 50, 0
9, 283560, Note_on_c, 4, 49, 64
9, 283676, Note_on_c, 4, 49, 0
9, 283680, Note_on_c, 4, 47, 64
9, 283796, Note_on_c, 4, 47, 0
9, 283800, Note_on_c, 4, 45, 64
9, 283916, Note_on_c, 4, 45, 0
9, 283920, Note_on_c, 4, 47, 64
9, 284036, Note_on_c, 4, 47, 0
9, 284040, Note_on_c, 4, 49, 64
9, 284156, Note_on_c, 4, 49, 0
9, 284160, Note_on_c, 4, 50, 64
9, 284276, Note_on_c, 4, 50, 0
9, 284280, Note_on_c, 4, 47, 64
9, 284396, Note_on_c, 4, 47, 0
9, 284400, Note_on_c, 4, 52, 64
9, 284516, Note_on_c, 4, 52, 0
9, 284520, Note_on_c, 4, 54, 64
9, 284636, Note_on_c, 4, 54, 0
9, 284640, Note_on_c, 4, 52, 64
9, 284756, Note_on_c, 4, 52, 0
9, 284760, Note_on_c, 4, 50, 64
9, 284876, Note_on_c, 4, 50, 0
9, 284880, Note_on_c, 4, 49, 64
9, 284996, Note_on_c, 4, 49, 0
9, 285000, Note_on_c, 4, 47, 64
9, 285116, Note_on_c, 4, 47, 0
9, 285120, Note_on_c, 4, 45, 64
9, 285356, Note_on_c, 4, 45, 0
9, 285360, Note_on_c, 4, 45, 64
9, 285596, Note_on_c, 4, 45, 0
9, 285600, Note_on_c, 4, 45, 64
9, 285836, Note_on_c, 4, 45, 0
9, 285840, Note_on_c, 4, 45, 64
9, 286076, Note_on_c, 4, 45, 0
9, 286080, Note_on_c, 4, 45, 64
9, 286316, Note_on_c, 4, 45, 0
9, 286320, Note_on_c, 4, 45, 64
9, 286556, Note_on_c, 4, 45, 0
9, 286560, Note_on_c, 4, 45, 64
9, 286796, Note_on_c, 4, 45, 0
9, 286800, Note_on_c, 4, 45, 64
9, 287036, Note_on_c, 4, 45, 0
9, 287040, Note_on_c, 4, 45, 64
9, 287276, Note_on_c, 4, 45, 0
9, 287280, Note_on_c, 4, 45, 64
9, 287516, Note_on_c, 4, 45, 0
9, 287520, Note_on_c, 4, 45, 64
9, 287756, Note_on_c, 4, 45, 0
9, 287760, Note_on_c, 4, 45, 64
9, 287996, Note_on_c, 4, 45, 0
9, 288000, Note_on_c, 4, 45, 64
9, 288236, Note_on_c, 4, 45, 0
9, 288240, Note_on_c, 4, 45, 64
9, 288476, Note_on_c, 4, 45, 0
9, 288480, Note_on_c, 4, 45, 64
9, 288716, Note_on_c, 4, 45, 0
9, 288720, Note_on_c, 4, 45, 64
9, 288956, Note_on_c, 4, 45, 0
9, 288960, Note_on_c, 4, 45, 64
9, 289196, Note_on_c, 4, 45, 0
9, 289200, Note_on_c, 4, 45, 64
9, 289436, Note_on_c, 4, 45, 0
9, 289440, Note_on_c, 4, 45, 64
9, 289676, Note_on_c, 4, 45, 0
9, 289680, Note_on_c, 4, 45, 64
9, 289916, Note_on_c, 4, 45, 0
9, 289920, Note_on_c, 4, 45, 64
9, 290156, Note_on_c, 4, 45, 0
9, 290160, Note_on_c, 4, 45, 64
9, 290396, Note_on_c, 4, 45, 0
9, 290400, Note_on_c, 4, 45, 64
9, 290636, Note_on_c, 4, 45, 0
9, 290640, Note_on_c, 4, 45, 64
9, 290876, Note_on_c, 4, 45, 0
9, 290880, Note_on_c, 4, 45, 64
9, 291116, Note_on_c, 4, 45, 0
9, 291120, Note_on_c, 4, 49, 64
9, 291356, Note_on_c, 4, 49, 0
9, 291360, Note_on_c, 4, 52, 64
9, 291596, Note_on_c, 4, 52, 0
9, 291600, Note_on_c, 4, 49, 64
9, 291836, Note_on_c, 4, 49, 0
9, 291840, Note_on_c, 4, 52, 64
9, 292076, Note_on_c, 4, 52, 0
9, 292080, Note_on_c, 4, 57, 64
9, 292316, Note_on_c, 4, 57, 0
9, 292320, Note_on_c, 4, 50, 64
9, 292556, Note_on_c, 4, 50, 0
9, 292560, Note_on_c, 4, 54, 64
9, 292796, Note_on_c, 4, 54, 0
9, 292800, Note_on_c, 4, 57, 64
9, 293036, Note_on_c, 4, 57, 0
9, 293040, Note_on_c, 4, 54, 64
9, 293276, Note_on_c, 4, 54, 0
9, 293280, Note_on_c, 4, 57, 64
9, 293516, Note_on_c, 4, 57, 0
9, 293520, Note_on_c, 4, 62, 64
9, 293756, Note_on_c, 4, 62, 0
9, 293760, Note_on_c, 4, 43, 64
9, 294236, Note_on_c, 4, 43, 0
9, 295200, Note_on_c, 4, 55, 64
9, 295676, Note_on_c, 4, 55, 0
9, 296640, Note_on_c, 4, 54, 64
9, 296876, Note_on_c, 4, 54, 0
9, 296880, Note_on_c, 4, 52, 64
9, 297116, Note_on_c, 4, 52, 0
9, 297120, Note_on_c, 4, 50, 64
9, 297356, Note_on_c, 4, 50, 0
9, 297360, Note_on_c, 4, 57, 64
9, 297836, Note_on_c, 4, 57, 0
9, 297840, Note_on_c, 4, 45, 64
9, 298076, Note_on_c, 4, 45, 0
9, 298080, Note_on_c, 4, 38, 64
9, 299516, Note_on_c, 4, 38, 0
9, 303840, Note_on_c, 4, 55, 64
9, 303956, Note_on_c, 4, 55, 0
9, 303960, Note_on_c, 4, 54, 64
9, 304076, Note_on_c, 4, 54, 0
9, 304080, Note_on_c, 4, 55, 64
9, 304196, Note_on_c, 4, 55, 0
9, 304200, Note_on_c, 4, 57, 64
9, 304316, Note_on_c, 4, 57, 0
9, 304320, Note_on_c, 4, 59, 64
9, 304436, Note_on_c, 4, 59, 0
9, 304440, Note_on_c, 4, 60, 64
9, 304556, Note_on_c, 4, 60, 0
9, 304560, Note_on_c, 4, 62, 64
9, 304676, Note_on_c, 4, 62, 0
9, 304680, Note_on_c, 4, 64, 64
9, 304796, Note_on_c, 4, 64, 0
9, 304800, Note_on_c, 4, 62, 64
9, 304916, Note_on_c, 4, 62, 0
9, 304920, Note_on_c, 4, 60, 64
9, 305036, Note_on_c, 4, 60, 0
9, 305040, Note_on_c, 4, 59, 64
9, 305156, Note_on_c, 4, 59, 0
9, 305160, Note_on_c, 4, 57, 64
9, 305276, Note_on_c, 4, 57, 0
9, 305280, Note_on_c, 4, 55, 64
9, 305396, Note_on_c, 4, 55, 0
9, 305400, Note_on_c, 4, 54, 64
9, 305516, Note_on_c, 4, 54, 0
9, 305520, Note_on_c, 4, 55, 64
9, 305636, Note_on_c, 4, 55, 0
9, 305640, Note_on_c, 4, 57, 64
9, 305756, Note_on_c, 4, 57, 0
9, 305760, Note_on_c, 4, 59, 64
9, 305876, Note_on_c, 4, 59, 0
9, 305880, Note_on_c, 4, 55, 64
9, 305996, Note_on_c, 4, 55, 0
9, 306000, Note_on_c, 4, 60, 64
9, 306116, Note_on_c, 4, 60, 0
9, 306120, Note_on_c, 4, 62, 64
9, 306236, Note_on_c, 4, 62, 0
9, 306240, Note_on_c, 4, 60, 64
9, 306356, Note_on_c, 4, 60, 0
9, 306360, Note_on_c, 4, 59, 64
9, 306476, Note_on_c, 4, 59, 0
9, 306480, Note_on_c, 4, 57, 64
9, 306596, Note_on_c, 4, 57, 0
9, 306600, Note_on_c, 4, 55, 64
9, 306716, Note_on_c, 4, 55, 0
9, 306720, Note_on_c, 4, 54, 64
9, 306836, Note_on_c, 4, 54, 0
9, 306840, Note_on_c, 4, 52, 64
9, 306956, Note_on_c, 4, 52, 0
9, 306960, Note_on_c, 4, 54, 64
9, 307076, Note_on_c, 4, 54, 0
9, 307080, Note_on_c, 4, 55, 64
9, 307196, Note_on_c, 4, 55, 0
9, 307200, Note_on_c, 4, 57, 64
9, 307316, Note_on_c, 4, 57, 0
9, 307320, Note_on_c, 4, 54, 64
9, 307436, Note_on_c, 4, 54, 0
9, 307440, Note_on_c, 4, 59, 64
9, 307556, Note_on_c, 4, 59, 0
9, 307560, Note_on_c, 4, 61, 64
9, 307676, Note_on_c, 4, 61, 0
9, 307680, Note_on_c, 4, 59, 64
9, 307796, Note_on_c, 4, 59, 0
9, 307800, Note_on_c, 4, 57, 64
9, 307916, Note_on_c, 4, 57, 0
9, 307920, Note_on_c, 4, 55, 64
9, 308036, Note_on_c, 4, 55, 0
9, 308040, Note_on_c, 4, 54, 64
9, 308156, Note_on_c, 4, 54, 0
9, 308160, Note_on_c, 4, 52, 64
9, 308276, Note_on_c, 4, 52, 0
9, 308280, Note_on_c, 4, 50, 64
9, 308396, Note_on_c, 4, 50, 0
9, 308400, Note_on_c, 4, 52, 64
9, 308516, Note_on_c, 4, 52, 0
9, 308520, Note_on_c, 4, 54, 64
9, 308636, Note_on_c, 4, 54, 0
9, 308640, Note_on_c, 4, 55, 64
9, 308756, Note_on_c, 4, 55, 0
9, 308760, Note_on_c, 4, 52, 64
9, 308876, Note_on_c, 4, 52, 0
9, 308880, Note_on_c, 4, 57, 64
9, 308996, Note_on_c, 4, 57, 0
9, 309000, Note_on_c, 4, 59, 64
9, 309116, Note_on_c, 4, 59, 0
9, 309120, Note_on_c, 4, 57, 64
9, 309236, Note_on_c, 4, 57, 0
9, 309240, Note_on_c, 4, 55, 64
9, 309356, Note_on_c, 4, 55, 0
9, 309360, Note_on_c, 4, 54, 64
9, 309476, Note_on_c, 4, 54, 0
9, 309480, Note_on_c, 4, 52, 64
9, 309596, Note_on_c, 4, 52, 0
9, 309600, Note_on_c, 4, 50, 64
9, 310076, Note_on_c, 4, 50, 0
9, 310320, Note_on_c, 4, 45, 64
9, 310796, Note_on_c, 4, 45, 0
9, 311040, Note_on_c, 4, 38, 64
9, 311516, Note_on_c, 4, 38, 0
9, 311760, Note_on_c, 4, 45, 64
9, 312236, Note_on_c, 4, 45, 0
9, 312480, Note_on_c, 4, 50, 64
9, 312716, Note_on_c, 4, 50, 0
9, 312720, Note_on_c, 4, 54, 64
9, 312956, Note_on_c, 4, 54, 0
9, 312960, Note_on_c, 4, 57, 64
9, 313196, Note_on_c, 4, 57, 0
9, 313200, Note_on_c, 4, 45, 64
9, 313436, Note_on_c, 4, 45, 0
9, 313440, Note_on_c, 4, 52, 64
9, 313676, Note_on_c, 4, 52, 0
9, 313680, Note_on_c, 4, 57, 64
9, 313916, Note_on_c, 4, 57, 0
9, 313920, Note_on_c, 4, 50, 64
9, 314036, Note_on_c, 4, 50, 0
9, 314040, Note_on_c, 4, 49, 64
9, 314156, Note_on_c, 4, 49, 0
9, 314160, Note_on_c, 4, 50, 64
9, 314276, Note_on_c, 4, 50, 0
9, 314280, Note_on_c, 4, 52, 64
9, 314396, Note_on_c, 4, 52, 0
9, 314400, Note_on_c, 4, 54, 64
9, 314516, Note_on_c, 4, 54, 0
9, 314520, Note_on_c, 4, 55, 64
9, 314636, Note_on_c, 4, 55, 0
9, 314640, Note_on_c, 4, 57, 64
9, 314756, Note_on_c, 4, 57, 0
9, 314760, Note_on_c, 4, 59, 64
9, 314876, Note_on_c, 4, 59, 0
9, 314880, Note_on_c, 4, 57, 64
9, 314996, Note_on_c, 4, 57, 0
9, 315000, Note_on_c, 4, 55, 64
9, 315116, Note_on_c, 4, 55, 0
9, 315120, Note_on_c, 4, 54, 64
9, 315236, Note_on_c, 4, 54, 0
9, 315240, Note_on_c, 4, 52, 64
9, 315356, Note_on_c, 4, 52, 0
9, 315360, Note_on_c, 4, 50, 64
9, 315476, Note_on_c, 4, 50, 0
9, 315480, Note_on_c, 4, 49, 64
9, 315596, Note_on_c, 4, 49, 0
9, 315600, Note_on_c, 4, 50, 64
9, 315716, Note_on_c, 4, 50, 0
9, 315720, Note_on_c, 4, 52, 64
9, 315836, Note_on_c, 4, 52, 0
9, 315840, Note_on_c, 4, 54, 64
9, 315956, Note_on_c, 4, 54, 0
9, 315960, Note_on_c, 4, 50, 64
9, 316076, Note_on_c, 4, 50, 0
9, 316080, Note_on_c, 4, 55, 64
9, 316196, Note_on_c, 4, 55, 0
9, 316200, Note_on_c, 4, 57, 64
9, 316316, Note_on_c, 4, 57, 0
9, 316320, Note_on_c, 4, 55, 64
9, 316436, Note_on_c, 4, 55, 0
9, 316440, Note_on_c, 4, 54, 64
9, 316556, Note_on_c, 4, 54, 0
9, 316560, Note_on_c, 4, 52, 64
9, 316676, Note_on_c, 4, 52, 0
9, 316680, Note_on_c, 4, 50, 64
9, 316796, Note_on_c, 4, 50, 0
9, 316800, Note_on_c, 4, 49, 64
9, 316916, Note_on_c, 4, 49, 0
9, 316920, Note_on_c, 4, 47, 64
9, 317036, Note_on_c, 4, 47, 0
9, 317040, Note_on_c, 4, 49, 64
9, 317156, Note_on_c, 4, 49, 0
9, 317160, Note_on_c, 4, 50, 64
9, 317276, Note_on_c, 4, 50, 0
9, 317280, Note_on_c, 4, 52, 64
9, 317396, Note_on_c, 4, 52, 0
9, 317400, Note_on_c, 4, 49, 64
9, 317516, Note_on_c, 4, 49, 0
9, 317520, Note_on_c, 4, 54, 64
9, 317636, Note_on_c, 4, 54, 0
9, 317640, Note_on_c, 4, 55, 64
9, 317756, Note_on_c, 4, 55, 0
9, 317760, Note_on_c, 4, 54, 64
9, 317876, Note_on_c, 4, 54, 0
9, 317880, Note_on_c, 4, 52, 64
9, 317996, Note_on_c, 4, 52, 0
9, 318000, Note_on_c, 4, 50, 64
9, 318116, Note_on_c, 4, 50, 0
9, 318120, Note_on_c, 4, 49, 64
9, 318236, Note_on_c, 4, 49, 0
9, 318240, Note_on_c, 4, 47, 64
9, 318356, Note_on_c, 4, 47, 0
9, 318360, Note_on_c, 4, 45, 64
9, 318476, Note_on_c, 4, 45, 0
9, 318480, Note_on_c, 4, 47, 64
9, 318596, Note_on_c, 4, 47, 0
9, 318600, Note_on_c, 4, 49, 64
9, 318716, Note_on_c, 4, 49, 0
9, 318720, Note_on_c, 4, 50, 64
9, 318836, Note_on_c, 4, 50, 0
9, 318840, Note_on_c, 4, 47, 64
9, 318956, Note_on_c, 4, 47, 0
9, 318960, Note_on_c, 4, 52, 64
9, 319076, Note_on_c, 4, 52, 0
9, 319080, Note_on_c, 4, 54, 64
9, 319196, Note_on_c, 4, 54, 0
9, 319200, Note_on_c, 4, 52, 64
9, 319316, Note_on_c, 4, 52, 0
9, 319320, Note_on_c, 4, 50, 64
9, 319436, Note_on_c, 4, 50, 0
9, 319440, Note_on_c, 4, 49, 64
9, 319556, Note_on_c, 4, 49, 0
9, 319560, Note_on_c, 4, 47, 64
9, 319676, Note_on_c, 4, 47, 0
9, 319680, Note_on_c, 4, 45, 64
9, 319916, Note_on_c, 4, 45, 0
9, 319920, Note_on_c, 4, 45, 64
9, 320156, Note_on_c, 4, 45, 0
9, 320160, Note_on_c, 4, 45, 64
9, 320396, Note_on_c, 4, 45, 0
9, 320400, Note_on_c, 4, 45, 64
9, 320636, Note_on_c, 4, 45, 0
9, 320640, Note_on_c, 4, 45, 64
9, 320876, Note_on_c, 4, 45, 0
9, 320880, Note_on_c, 4, 45, 64
9, 321116, Note_on_c, 4, 45, 0
9, 321120, Note_on_c, 4, 45, 64
9, 321356, Note_on_c, 4, 45, 0
9, 321360, Note_on_c, 4, 45, 64
9, 321596, Note_on_c, 4, 45, 0
9, 321600, Note_on_c, 4, 45, 64
9, 321836, Note_on_c, 4, 45, 0
9, 321840, Note_on_c, 4, 45, 64
9, 322076, Note_on_c, 4, 45, 0
9, 322080, Note_on_c, 4, 45, 64
9, 322316, Note_on_c, 4, 45, 0
9, 322320, Note_on_c, 4, 45, 64
9, 322556, Note_on_c, 4, 45, 0
9, 322560, Note_on_c, 4, 45, 64
9, 322796, Note_on_c, 4, 45, 0
9, 322800, Note_on_c, 4, 45, 64
9, 323036, Note_on_c, 4, 45, 0
9, 323040, Note_on_c, 4, 45, 64
9, 323276, Note_on_c, 4, 45, 0
9, 323280, Note_on_c, 4, 45, 64
9, 323516, Note_on_c, 4, 45, 0
9, 323520, Note_on_c, 4, 45, 64
9, 323756, Note_on_c, 4, 45, 0
9, 323760, Note_on_c, 4, 45, 64
9, 323996, Note_on_c, 4, 45, 0
9, 324000, Note_on_c, 4, 45, 64
9, 324236, Note_on_c, 4, 45, 0
9, 324240, Note_on_c, 4, 45, 64
9, 324476, Note_on_c, 4, 45, 0
9, 324480, Note_on_c, 4, 45, 64
9, 324716, Note_on_c, 4, 45, 0
9, 324720, Note_on_c, 4, 45, 64
9, 324956, Note_on_c, 4, 45, 0
9, 324960, Note_on_c, 4, 45, 64
9, 325196, Note_on_c, 4, 45, 0
9, 325200, Note_on_c, 4, 45, 64
9, 325436, Note_on_c, 4, 45, 0
9, 325440, Note_on_c, 4, 45, 64
9, 325676, Note_on_c, 4, 45, 0
9, 325680, Note_on_c, 4, 49, 64
9, 325916, Note_on_c, 4, 49, 0
9, 325920, Note_on_c, 4, 52, 64
9, 326156, Note_on_c, 4, 52, 0
9, 326160, Note_on_c, 4, 49, 64
9, 326396, Note_on_c, 4, 49, 0
9, 326400, Note_on_c, 4, 52, 64
9, 326636, Note_on_c, 4, 52, 0
9, 326640, Note_on_c, 4, 57, 64
9, 326876, Note_on_c, 4, 57, 0
9, 326880, Note_on_c, 4, 50, 64
9, 327116, Note_on_c, 4, 50, 0
9, 327120, Note_on_c, 4, 54, 64
9, 327356, Note_on_c, 4, 54, 0
9, 327360, Note_on_c, 4, 57, 64
9, 327596, Note_on_c, 4, 57, 0
9, 327600, Note_on_c, 4, 54, 64
9, 327836, Note_on_c, 4, 54, 0
9, 327840, Note_on_c, 4, 57, 64
9, 328076, Note_on_c, 4, 57, 0
9, 328080, Note_on_c, 4, 62, 64
9, 328316, Note_on_c, 4, 62, 0
9, 328320, Note_on_c, 4, 43, 64
9, 328796, Note_on_c, 4, 43, 0
9, 329760, Note_on_c, 4, 55, 64
9, 330236, Note_on_c, 4, 55, 0
9, 331200, Note_on_c, 4, 54, 64
9, 331436, Note_on_c, 4, 54, 0
9, 331440, Note_on_c, 4, 52, 64
9, 331676, Note_on_c, 4, 52, 0
9, 331680, Note_on_c, 4, 50, 64
9, 331916, Note_on_c, 4, 50, 0
9, 331920, Note_on_c, 4, 57, 64
9, 332396, Note_on_c, 4, 57, 0
9, 332400, Note_on_c, 4, 45, 64
9, 332636, Note_on_c, 4, 45, 0
9, 332640, Note_on_c, 4, 38, 64
9, 334076, Note_on_c, 4, 38, 0
9, 334080, Note_on_c, 4, 50, 64
9, 334196, Note_on_c, 4, 50, 0
9, 334200, Note_on_c, 4, 49, 64
9, 334316, Note_on_c, 4, 49, 0
9, 334320, Note_on_c, 4, 50, 64
9, 334436, Note_on_c, 4, 50, 0
9, 334440, Note_on_c, 4, 52, 64
9, 334556, Note_on_c, 4, 52, 0
9, 334560, Note_on_c, 4, 54, 64
9, 334676, Note_on_c, 4, 54, 0
9, 334680, Note_on_c, 4, 55, 64
9, 334796, Note_on_c, 4, 55, 0
9, 334800, Note_on_c, 4, 57, 64
9, 334916, Note_on_c, 4, 57, 0
9, 334920, Note_on_c, 4, 59, 64
9, 335036, Note_on_c, 4, 59, 0
9, 335040, Note_on_c, 4, 57, 64
9, 335156, Note_on_c, 4, 57, 0
9, 335160, Note_on_c, 4, 55, 64
9, 335276, Note_on_c, 4, 55, 0
9, 335280, Note_on_c, 4, 54, 64
9, 335396, Note_on_c, 4, 54, 0
9, 335400, Note_on_c, 4, 52, 64
9, 335516, Note_on_c, 4, 52, 0
9, 335520, Note_on_c, 4, 54, 64
9, 335636, Note_on_c, 4, 54, 0
9, 335640, Note_on_c, 4, 57, 64
9, 335756, Note_on_c, 4, 57, 0
9, 335760, Note_on_c, 4, 55, 64
9, 335876, Note_on_c, 4, 55, 0
9, 335880, Note_on_c, 4, 54, 64
9, 335996, Note_on_c, 4, 54, 0
9, 336000, Note_on_c, 4, 52, 64
9, 336116, Note_on_c, 4, 52, 0
9, 336120, Note_on_c, 4, 50, 64
9, 336236, Note_on_c, 4, 50, 0
9, 336240, Note_on_c, 4, 49, 64
9, 336356, Note_on_c, 4, 49, 0
9, 336360, Note_on_c, 4, 52, 64
9, 336476, Note_on_c, 4, 52, 0
9, 336480, Note_on_c, 4, 50, 64
9, 336596, Note_on_c, 4, 50, 0
9, 336600, Note_on_c, 4, 49, 64
9, 336716, Note_on_c, 4, 49, 0
9, 336720, Note_on_c, 4, 47, 64
9, 336836, Note_on_c, 4, 47, 0
9, 336840, Note_on_c, 4, 45, 64
9, 336956, Note_on_c, 4, 45, 0
9, 336960, Note_on_c, 4, 52, 64
9, 337196, Note_on_c, 4, 52, 0
9, 337200, Note_on_c, 4, 55, 64
9, 337436, Note_on_c, 4, 55, 0
9, 337440, Note_on_c, 4, 59, 64
9, 337676, Note_on_c, 4, 59, 0
9, 337680, Note_on_c, 4, 51, 64
9, 337916, Note_on_c, 4, 51, 0
9, 337920, Note_on_c, 4, 54, 64
9, 338156, Note_on_c, 4, 54, 0
9, 338160, Note_on_c, 4, 59, 64
9, 338396, Note_on_c, 4, 59, 0
9, 338400, Note_on_c, 4, 52, 64
9, 338636, Note_on_c, 4, 52, 0
9, 338640, Note_on_c, 4, 55, 64
9, 338876, Note_on_c, 4, 55, 0
9, 338880, Note_on_c, 4, 59, 64
9, 339116, Note_on_c, 4, 59, 0
9, 339120, Note_on_c, 4, 47, 64
9, 339356, Note_on_c, 4, 47, 0
9, 339360, Note_on_c, 4, 54, 64
9, 339596, Note_on_c, 4, 54, 0
9, 339600, Note_on_c, 4, 59, 64
9, 339836, Note_on_c, 4, 59, 0
9, 339840, Note_on_c, 4, 43, 64
9, 340316, Note_on_c, 4, 43, 0
9, 340560, Note_on_c, 4, 45, 64
9, 341036, Note_on_c, 4, 45, 0
9, 341280, Note_on_c, 4, 47, 64
9, 341756, Note_on_c, 4, 47, 0
9, 342000, Note_on_c, 4, 48, 64
9, 342476, Note_on_c, 4, 48, 0
9, 342720, Note_on_c, 4, 43, 64
9, 343196, Note_on_c, 4, 43, 0
9, 343440, Note_on_c, 4, 45, 64
9, 343916, Note_on_c, 4, 45, 0
9, 344160, Note_on_c, 4, 47, 64
9, 344396, Note_on_c, 4, 47, 0
9, 344400, Note_on_c, 4, 45, 64
9, 344636, Note_on_c, 4, 45, 0
9, 344640, Note_on_c, 4, 47, 64
9, 344876, Note_on_c, 4, 47, 0
9, 344880, Note_on_c, 4, 40, 64
9, 345116, Note_on_c, 4, 40, 0
9, 345120, Note_on_c, 4, 43, 64
9, 345356, Note_on_c, 4, 43, 0
9, 345360, Note_on_c, 4, 47, 64
9, 345596, Note_on_c, 4, 47, 0
9, 345600, Note_on_c, 4, 52, 64
9, 346076, Note_on_c, 4, 52, 0
9, 349920, Note_on_c, 4, 52, 64
9, 350036, Note_on_c, 4, 52, 0
9, 350040, Note_on_c, 4, 51, 64
9, 350156, Note_on_c, 4, 51, 0
9, 350160, Note_on_c, 4, 52, 64
9, 350276, Note_on_c, 4, 52, 0
9, 350280, Note_on_c, 4, 54, 64
9, 350396, Note_on_c, 4, 54, 0
9, 350400, Note_on_c, 4, 55, 64
9, 350516, Note_on_c, 4, 55, 0
9, 350520, Note_on_c, 4, 57, 64
9, 350636, Note_on_c, 4, 57, 0
9, 350640, Note_on_c, 4, 59, 64
9, 350756, Note_on_c, 4, 59, 0
9, 350760, Note_on_c, 4, 60, 64
9, 350876, Note_on_c, 4, 60, 0
9, 350880, Note_on_c, 4, 59, 64
9, 350996, Note_on_c, 4, 59, 0
9, 351000, Note_on_c, 4, 57, 64
9, 351116, Note_on_c, 4, 57, 0
9, 351120, Note_on_c, 4, 55, 64
9, 351236, Note_on_c, 4, 55, 0
9, 351240, Note_on_c, 4, 54, 64
9, 351356, Note_on_c, 4, 54, 0
9, 351360, Note_on_c, 4, 52, 64
9, 351476, Note_on_c, 4, 52, 0
9, 351480, Note_on_c, 4, 51, 64
9, 351596, Note_on_c, 4, 51, 0
9, 351600, Note_on_c, 4, 52, 64
9, 351716, Note_on_c, 4, 52, 0
9, 351720, Note_on_c, 4, 54, 64
9, 351836, Note_on_c, 4, 54, 0
9, 351840, Note_on_c, 4, 55, 64
9, 351956, Note_on_c, 4, 55, 0
9, 351960, Note_on_c, 4, 52, 64
9, 352076, Note_on_c, 4, 52, 0
9, 352080, Note_on_c, 4, 57, 64
9, 352196, Note_on_c, 4, 57, 0
9, 352200, Note_on_c, 4, 59, 64
9, 352316, Note_on_c, 4, 59, 0
9, 352320, Note_on_c, 4, 57, 64
9, 352436, Note_on_c, 4, 57, 0
9, 352440, Note_on_c, 4, 55, 64
9, 352556, Note_on_c, 4, 55, 0
9, 352560, Note_on_c, 4, 54, 64
9, 352676, Note_on_c, 4, 54, 0
9, 352680, Note_on_c, 4, 52, 64
9, 352796, Note_on_c, 4, 52, 0
9, 352800, Note_on_c, 4, 50, 64
9, 352916, Note_on_c, 4, 50, 0
9, 352920, Note_on_c, 4, 49, 64
9, 353036, Note_on_c, 4, 49, 0
9, 353040, Note_on_c, 4, 50, 64
9, 353156, Note_on_c, 4, 50, 0
9, 353160, Note_on_c, 4, 52, 64
9, 353276, Note_on_c, 4, 52, 0
9, 353280, Note_on_c, 4, 54, 64
9, 353396, Note_on_c, 4, 54, 0
9, 353400, Note_on_c, 4, 50, 64
9, 353516, Note_on_c, 4, 50, 0
9, 353520, Note_on_c, 4, 55, 64
9, 353636, Note_on_c, 4, 55, 0
9, 353640, Note_on_c, 4, 57, 64
9, 353756, Note_on_c, 4, 57, 0
9, 353760, Note_on_c, 4, 55, 64
9, 353876, Note_on_c, 4, 55, 0
9, 353880, Note_on_c, 4, 54, 64
9, 353996, Note_on_c, 4, 54, 0
9, 354000, Note_on_c, 4, 52, 64
9, 354116, Note_on_c, 4, 52, 0
9, 354120, Note_on_c, 4, 50, 64
9, 354236, Note_on_c, 4, 50, 0
9, 354240, Note_on_c, 4, 49, 64
9, 354356, Note_on_c, 4, 49, 0
9, 354360, Note_on_c, 4, 47, 64
9, 354476, Note_on_c, 4, 47, 0
9, 354480, Note_on_c, 4, 49, 64
9, 354596, Note_on_c, 4, 49, 0
9, 354600, Note_on_c, 4, 50, 64
9, 354716, Note_on_c, 4, 50, 0
9, 354720, Note_on_c, 4, 52, 64
9, 354836, Note_on_c, 4, 52, 0
9, 354840, Note_on_c, 4, 49, 64
9, 354956, Note_on_c, 4, 49, 0
9, 354960, Note_on_c, 4, 54, 64
9, 355076, Note_on_c, 4, 54, 0
9, 355080, Note_on_c, 4, 55, 64
9, 355196, Note_on_c, 4, 55, 0
9, 355200, Note_on_c, 4, 54, 64
9, 355316, Note_on_c, 4, 54, 0
9, 355320, Note_on_c, 4, 52, 64
9, 355436, Note_on_c, 4, 52, 0
9, 355440, Note_on_c, 4, 50, 64
9, 355556, Note_on_c, 4, 50, 0
9, 355560, Note_on_c, 4, 49, 64
9, 355676, Note_on_c, 4, 49, 0
9, 355680, Note_on_c, 4, 47, 64
9, 356156, Note_on_c, 4, 47, 0
9, 356400, Note_on_c, 4, 42, 64
9, 356876, Note_on_c, 4, 42, 0
9, 357120, Note_on_c, 4, 47, 64
9, 357596, Note_on_c, 4, 47, 0
9, 357840, Note_on_c, 4, 54, 64
9, 358316, Note_on_c, 4, 54, 0
9, 358560, Note_on_c, 4, 47, 64
9, 358796, Note_on_c, 4, 47, 0
9, 358800, Note_on_c, 4, 50, 64
9, 359036, Note_on_c, 4, 50, 0
9, 359040, Note_on_c, 4, 54, 64
9, 359276, Note_on_c, 4, 54, 0
9, 359280, Note_on_c, 4, 46, 64
9, 359516, Note_on_c, 4, 46, 0
9, 359520, Note_on_c, 4, 49, 64
9, 359756, Note_on_c, 4, 49, 0
9, 359760, Note_on_c, 4, 54, 64
9, 359996, Note_on_c, 4, 54, 0
9, 360000, Note_on_c, 4, 47, 64
9, 360116, Note_on_c, 4, 47, 0
9, 360120, Note_on_c, 4, 46, 64
9, 360236, Note_on_c, 4, 46, 0
9, 360240, Note_on_c, 4, 47, 64
9, 360356, Note_on_c, 4, 47, 0
9, 360360, Note_on_c, 4, 49, 64
9, 360476, Note_on_c, 4, 49, 0
9, 360480, Note_on_c, 4, 50, 64
9, 360596, Note_on_c, 4, 50, 0
9, 360600, Note_on_c, 4, 52, 64
9, 360716, Note_on_c, 4, 52, 0
9, 360720, Note_on_c, 4, 54, 64
9, 360836, Note_on_c, 4, 54, 0
9, 360840, Note_on_c, 4, 55, 64
9, 360956, Note_on_c, 4, 55, 0
9, 360960, Note_on_c, 4, 54, 64
9, 361076, Note_on_c, 4, 54, 0
9, 361080, Note_on_c, 4, 52, 64
9, 361196, Note_on_c, 4, 52, 0
9, 361200, Note_on_c, 4, 50, 64
9, 361316, Note_on_c, 4, 50, 0
9, 361320, Note_on_c, 4, 49, 64
9, 361436, Note_on_c, 4, 49, 0
9, 361440, Note_on_c, 4, 47, 64
9, 361556, Note_on_c, 4, 47, 0
9, 361560, Note_on_c, 4, 46, 64
9, 361676, Note_on_c, 4, 46, 0
9, 361680, Note_on_c, 4, 47, 64
9, 361796, Note_on_c, 4, 47, 0
9, 361800, Note_on_c, 4, 49, 64
9, 361916, Note_on_c, 4, 49, 0
9, 361920, Note_on_c, 4, 50, 64
9, 362036, Note_on_c, 4, 50, 0
9, 362040, Note_on_c, 4, 47, 64
9, 362156, Note_on_c, 4, 47, 0
9, 362160, Note_on_c, 4, 52, 64
9, 362276, Note_on_c, 4, 52, 0
9, 362280, Note_on_c, 4, 54, 64
9, 362396, Note_on_c, 4, 54, 0
9, 362400, Note_on_c, 4, 52, 64
9, 362516, Note_on_c, 4, 52, 0
9, 362520, Note_on_c, 4, 50, 64
9, 362636, Note_on_c, 4, 50, 0
9, 362640, Note_on_c, 4, 49, 64
9, 362756, Note_on_c, 4, 49, 0
9, 362760, Note_on_c, 4, 47, 64
9, 362876, Note_on_c, 4, 47, 0
9, 362880, Note_on_c, 4, 45, 64
9, 362996, Note_on_c, 4, 45, 0
9, 363000, Note_on_c, 4, 43, 64
9, 363116, Note_on_c, 4, 43, 0
9, 363120, Note_on_c, 4, 45, 64
9, 363236, Note_on_c, 4, 45, 0
9, 363240, Note_on_c, 4, 47, 64
9, 363356, Note_on_c, 4, 47, 0
9, 363360, Note_on_c, 4, 49, 64
9, 363476, Note_on_c, 4, 49, 0
9, 363480, Note_on_c, 4, 45, 64
9, 363596, Note_on_c, 4, 45, 0
9, 363600, Note_on_c, 4, 50, 64
9, 363716, Note_on_c, 4, 50, 0
9, 363720, Note_on_c, 4, 52, 64
9, 363836, Note_on_c, 4, 52, 0
9, 363840, Note_on_c, 4, 50, 64
9, 363956, Note_on_c, 4, 50, 0
9, 363960, Note_on_c, 4, 49, 64
9, 364076, Note_on_c, 4, 49, 0
9, 364080, Note_on_c, 4, 47, 64
9, 364196, Note_on_c, 4, 47, 0
9, 364200, Note_on_c, 4, 45, 64
9, 364316, Note_on_c, 4, 45, 0
9, 364320, Note_on_c, 4, 43, 64
9, 364436, Note_on_c, 4, 43, 0
9, 364440, Note_on_c, 4, 42, 64
9, 364556, Note_on_c, 4, 42, 0
9, 364560, Note_on_c, 4, 43, 64
9, 364676, Note_on_c, 4, 43, 0
9, 364680, Note_on_c, 4, 45, 64
9, 364796, Note_on_c, 4, 45, 0
9, 364800, Note_on_c, 4, 47, 64
9, 364916, Note_on_c, 4, 47, 0
9, 364920, Note_on_c, 4, 43, 64
9, 365036, Note_on_c, 4, 43, 0
9, 365040, Note_on_c, 4, 49, 64
9, 365156, Note_on_c, 4, 49, 0
9, 365160, Note_on_c, 4, 50, 64
9, 365276, Note_on_c, 4, 50, 0
9, 365280, Note_on_c, 4, 49, 64
9, 365396, Note_on_c, 4, 49, 0
9, 365400, Note_on_c, 4, 47, 64
9, 365516, Note_on_c, 4, 47, 0
9, 365520, Note_on_c, 4, 46, 64
9, 365636, Note_on_c, 4, 46, 0
9, 365640, Note_on_c, 4, 44, 64
9, 365756, Note_on_c, 4, 44, 0
9, 365760, Note_on_c, 4, 42, 64
9, 365996, Note_on_c, 4, 42, 0
9, 366000, Note_on_c, 4, 42, 64
9, 366236, Note_on_c, 4, 42, 0
9, 366240, Note_on_c, 4, 42, 64
9, 366476, Note_on_c, 4, 42, 0
9, 366480, Note_on_c, 4, 42, 64
9, 366716, Note_on_c, 4, 42, 0
9, 366720, Note_on_c, 4, 42, 64
9, 366956, Note_on_c, 4, 42, 0
9, 366960, Note_on_c, 4, 42, 64
9, 367196, Note_on_c, 4, 42, 0
9, 367200, Note_on_c, 4, 42, 64
9, 367436, Note_on_c, 4, 42, 0
9, 367440, Note_on_c, 4, 42, 64
9, 367676, Note_on_c, 4, 42, 0
9, 367680, Note_on_c, 4, 42, 64
9, 367916, Note_on_c, 4, 42, 0
9, 367920, Note_on_c, 4, 42, 64
9, 368156, Note_on_c, 4, 42, 0
9, 368160, Note_on_c, 4, 42, 64
9, 368396, Note_on_c, 4, 42, 0
9, 368400, Note_on_c, 4, 42, 64
9, 368636, Note_on_c, 4, 42, 0
9, 368640, Note_on_c, 4, 42, 64
9, 368876, Note_on_c, 4, 42, 0
9, 368880, Note_on_c, 4, 42, 64
9, 369116, Note_on_c, 4, 42, 0
9, 369120, Note_on_c, 4, 42, 64
9, 369356, Note_on_c, 4, 42, 0
9, 369360, Note_on_c, 4, 42, 64
9, 369596, Note_on_c, 4, 42, 0
9, 369600, Note_on_c, 4, 42, 64
9, 369836, Note_on_c, 4, 42, 0
9, 369840, Note_on_c, 4, 42, 64
9, 370076, Note_on_c, 4, 42, 0
9, 370080, Note_on_c, 4, 42, 64
9, 370316, Note_on_c, 4, 42, 0
9, 370320, Note_on_c, 4, 42, 64
9, 370556, Note_on_c, 4, 42, 0
9, 370560, Note_on_c, 4, 42, 64
9, 370796, Note_on_c, 4, 42, 0
9, 370800, Note_on_c, 4, 42, 64
9, 371036, Note_on_c, 4, 42, 0
9, 371040, Note_on_c, 4, 42, 64
9, 371276, Note_on_c, 4, 42, 0
9, 371280, Note_on_c, 4, 42, 64
9, 371516, Note_on_c, 4, 42, 0
9, 371520, Note_on_c, 4, 42, 64
9, 371756, Note_on_c, 4, 42, 0
9, 371760, Note_on_c, 4, 46, 64
9, 371996, Note_on_c, 4, 46, 0
9, 372000, Note_on_c, 4, 49, 64
9, 372236, Note_on_c, 4, 49, 0
9, 372240, Note_on_c, 4, 46, 64
9, 372476, Note_on_c, 4, 46, 0
9, 372480, Note_on_c, 4, 49, 64
9, 372716, Note_on_c, 4, 49, 0
9, 372720, Note_on_c, 4, 54, 64
9, 372956, Note_on_c, 4, 54, 0
9, 372960, Note_on_c, 4, 47, 64
9, 373196, Note_on_c, 4, 47, 0
9, 373200, Note_on_c, 4, 51, 64
9, 373436, Note_on_c, 4, 51, 0
9, 373440, Note_on_c, 4, 54, 64
9, 373676, Note_on_c, 4, 54, 0
9, 373680, Note_on_c, 4, 51, 64
9, 373916, Note_on_c, 4, 51, 0
9, 373920, Note_on_c, 4, 54, 64
9, 374156, Note_on_c, 4, 54, 0
9, 374160, Note_on_c, 4, 59, 64
9, 374396, Note_on_c, 4, 59, 0
9, 374400, Note_on_c, 4, 40, 64
9, 374876, Note_on_c, 4, 40, 0
9, 375840, Note_on_c, 4, 52, 64
9, 376316, Note_on_c, 4, 52, 0
9, 377280, Note_on_c, 4, 50, 64
9, 377516, Note_on_c, 4, 50, 0
9, 377520, Note_on_c, 4, 49, 64
9, 377756, Note_on_c, 4, 49, 0
9, 377760, Note_on_c, 4, 47, 64
9, 377996, Note_on_c, 4, 47, 0
9, 378000, Note_on_c, 4, 54, 64
9, 378476, Note_on_c, 4, 54, 0
9, 378480, Note_on_c, 4, 42, 64
9, 378716, Note_on_c, 4, 42, 0
9, 378720, Note_on_c, 4, 47, 64
9, 378956, Note_on_c, 4, 47, 0
9, 378960, Note_on_c, 4, 50, 64
9, 379196, Note_on_c, 4, 50, 0
9, 379200, Note_on_c, 4, 54, 64
9, 379436, Note_on_c, 4, 54, 0
9, 379440, Note_on_c, 4, 59, 64
9, 379676, Note_on_c, 4, 59, 0
9, 379680, Note_on_c, 4, 57, 64
9, 379796, Note_on_c, 4, 57, 0
9, 379800, Note_on_c, 4, 55, 64
9, 379916, Note_on_c, 4, 55, 0
9, 379920, Note_on_c, 4, 54, 64
9, 380036, Note_on_c, 4, 54, 0
9, 380040, Note_on_c, 4, 52, 64
9, 380156, Note_on_c, 4, 52, 0
9, 380160, Note_on_c, 4, 51, 64
9, 380396, Note_on_c, 4, 51, 0
9, 380400, Note_on_c, 4, 54, 64
9, 380636, Note_on_c, 4, 54, 0
9, 380640, Note_on_c, 4, 59, 64
9, 380876, Note_on_c, 4, 59, 0
9, 380880, Note_on_c, 4, 47, 64
9, 381116, Note_on_c, 4, 47, 0
9, 381120, Note_on_c, 4, 54, 64
9, 381356, Note_on_c, 4, 54, 0
9, 381360, Note_on_c, 4, 59, 64
9, 381596, Note_on_c, 4, 59, 0
9, 381600, Note_on_c, 4, 52, 64
9, 381836, Note_on_c, 4, 52, 0
9, 381840, Note_on_c, 4, 55, 64
9, 382076, Note_on_c, 4, 55, 0
9, 382080, Note_on_c, 4, 59, 64
9, 382316, Note_on_c, 4, 59, 0
9, 382320, Note_on_c, 4, 64, 64
9, 382556, Note_on_c, 4, 64, 0
9, 382560, Note_on_c, 4, 62, 64
9, 382676, Note_on_c, 4, 62, 0
9, 382680, Note_on_c, 4, 60, 64
9, 382796, Note_on_c, 4, 60, 0
9, 382800, Note_on_c, 4, 59, 64
9, 382916, Note_on_c, 4, 59, 0
9, 382920, Note_on_c, 4, 57, 64
9, 383036, Note_on_c, 4, 57, 0
9, 383040, Note_on_c, 4, 56, 64
9, 383276, Note_on_c, 4, 56, 0
9, 383280, Note_on_c, 4, 59, 64
9, 383516, Note_on_c, 4, 59, 0
9, 383520, Note_on_c, 4, 64, 64
9, 383756, Note_on_c, 4, 64, 0
9, 383760, Note_on_c, 4, 52, 64
9, 383996, Note_on_c, 4, 52, 0
9, 384000, Note_on_c, 4, 59, 64
9, 384236, Note_on_c, 4, 59, 0
9, 384240, Note_on_c, 4, 64, 64
9, 384476, Note_on_c, 4, 64, 0
9, 384480, Note_on_c, 4, 45, 64
9, 384716, Note_on_c, 4, 45, 0
9, 384720, Note_on_c, 4, 48, 64
9, 384956, Note_on_c, 4, 48, 0
9, 384960, Note_on_c, 4, 52, 64
9, 385196, Note_on_c, 4, 52, 0
9, 385200, Note_on_c, 4, 57, 64
9, 385316, Note_on_c, 4, 57, 0
9, 385320, Note_on_c, 4, 59, 64
9, 385436, Note_on_c, 4, 59, 0
9, 385440, Note_on_c, 4, 57, 64
9, 385556, Note_on_c, 4, 57, 0
9, 385560, Note_on_c, 4, 55, 64
9, 385676, Note_on_c, 4, 55, 0
9, 385680, Note_on_c, 4, 53, 64
9, 385796, Note_on_c, 4, 53, 0
9, 385800, Note_on_c, 4, 52, 64
9, 385916, Note_on_c, 4, 52, 0
9, 385920, Note_on_c, 4, 50, 64
9, 386156, Note_on_c, 4, 50, 0
9, 386160, Note_on_c, 4, 57, 64
9, 386396, Note_on_c, 4, 57, 0
9, 386400, Note_on_c, 4, 62, 64
9, 386636, Note_on_c, 4, 62, 0
9, 386640, Note_on_c, 4, 55, 64
9, 386876, Note_on_c, 4, 55, 0
9, 386880, Note_on_c, 4, 50, 64
9, 387116, Note_on_c, 4, 50, 0
9, 387120, Note_on_c, 4, 43, 64
9, 387356, Note_on_c, 4, 43, 0
9, 387360, Note_on_c, 4, 48, 64
9, 387596, Note_on_c, 4, 48, 0
9, 387600, Note_on_c, 4, 55, 64
9, 387836, Note_on_c, 4, 55, 0
9, 387840, Note_on_c, 4, 60, 64
9, 388076, Note_on_c, 4, 60, 0
9, 388080, Note_on_c, 4, 53, 64
9, 388316, Note_on_c, 4, 53, 0
9, 388320, Note_on_c, 4, 48, 64
9, 388556, Note_on_c, 4, 48, 0
9, 388560, Note_on_c, 4, 41, 64
9, 388796, Note_on_c, 4, 41, 0
9, 388800, Note_on_c, 4, 53, 64
9, 389276, Note_on_c, 4, 53, 0
9, 389520, Note_on_c, 4, 52, 64
9, 389996, Note_on_c, 4, 52, 0
9, 390240, Note_on_c, 4, 50, 64
9, 390716, Note_on_c, 4, 50, 0
9, 390960, Note_on_c, 4, 48, 64
9, 391436, Note_on_c, 4, 48, 0
9, 391680, Note_on_c, 4, 47, 64
9, 391916, Note_on_c, 4, 47, 0
9, 391920, Note_on_c, 4, 50, 64
9, 392156, Note_on_c, 4, 50, 0
9, 392160, Note_on_c, 4, 55, 64
9, 392396, Note_on_c, 4, 55, 0
9, 392400, Note_on_c, 4, 48, 64
9, 392636, Note_on_c, 4, 48, 0
9, 392640, Note_on_c, 4, 52, 64
9, 392876, Note_on_c, 4, 52, 0
9, 392880, Note_on_c, 4, 55, 64
9, 393116, Note_on_c, 4, 55, 0
9, 393120, Note_on_c, 4, 47, 64
9, 393236, Note_on_c, 4, 47, 0
9, 393240, Note_on_c, 4, 50, 64
9, 393356, Note_on_c, 4, 50, 0
9, 393360, Note_on_c, 4, 43, 64
9, 393476, Note_on_c, 4, 43, 0
9, 393480, Note_on_c, 4, 50, 64
9, 393596, Note_on_c, 4, 50, 0
9, 393600, Note_on_c, 4, 47, 64
9, 393716, Note_on_c, 4, 47, 0
9, 393720, Note_on_c, 4, 50, 64
9, 393836, Note_on_c, 4, 50, 0
9, 393840, Note_on_c, 4, 48, 64
9, 393956, Note_on_c, 4, 48, 0
9, 393960, Note_on_c, 4, 52, 64
9, 394076, Note_on_c, 4, 52, 0
9, 394080, Note_on_c, 4, 43, 64
9, 394196, Note_on_c, 4, 43, 0
9, 394200, Note_on_c, 4, 52, 64
9, 394316, Note_on_c, 4, 52, 0
9, 394320, Note_on_c, 4, 48, 64
9, 394436, Note_on_c, 4, 48, 0
9, 394440, Note_on_c, 4, 52, 64
9, 394556, Note_on_c, 4, 52, 0
9, 394560, Note_on_c, 4, 42, 64
9, 394796, Note_on_c, 4, 42, 0
9, 394800, Note_on_c, 4, 42, 64
9, 395036, Note_on_c, 4, 42, 0
9, 395040, Note_on_c, 4, 42, 64
9, 395276, Note_on_c, 4, 42, 0
9, 395280, Note_on_c, 4, 42, 64
9, 395516, Note_on_c, 4, 42, 0
9, 395520, Note_on_c, 4, 42, 64
9, 395756, Note_on_c, 4, 42, 0
9, 395760, Note_on_c, 4, 42, 64
9, 395996, Note_on_c, 4, 42, 0
9, 396000, Note_on_c, 4, 41, 64
9, 396236, Note_on_c, 4, 41, 0
9, 396240, Note_on_c, 4, 41, 64
9, 396476, Note_on_c, 4, 41, 0
9, 396480, Note_on_c, 4, 41, 64
9, 396716, Note_on_c, 4, 41, 0
9, 396720, Note_on_c, 4, 41, 64
9, 396956, Note_on_c, 4, 41, 0
9, 396960, Note_on_c, 4, 41, 64
9, 397196, Note_on_c, 4, 41, 0
9, 397200, Note_on_c, 4, 41, 64
9, 397436, Note_on_c, 4, 41, 0
9, 397440, Note_on_c, 4, 40, 64
9, 397916, Note_on_c, 4, 40, 0
9, 398160, Note_on_c, 4, 41, 64
9, 398636, Note_on_c, 4, 41, 0
9, 398880, Note_on_c, 4, 43, 64
9, 399356, Note_on_c, 4, 43, 0
9, 399600, Note_on_c, 4, 45, 64
9, 400076, Note_on_c, 4, 45, 0
9, 400320, Note_on_c, 4, 40, 64
9, 400796, Note_on_c, 4, 40, 0
9, 401040, Note_on_c, 4, 41, 64
9, 401516, Note_on_c, 4, 41, 0
9, 401760, Note_on_c, 4, 43, 64
9, 401996, Note_on_c, 4, 43, 0
9, 402000, Note_on_c, 4, 41, 64
9, 402236, Note_on_c, 4, 41, 0
9, 402240, Note_on_c, 4, 43, 64
9, 402476, Note_on_c, 4, 43, 0
9, 402480, Note_on_c, 4, 36, 64
9, 402956, Note_on_c, 4, 36, 0
9, 402960, Note_on_c, 4, 38, 64
9, 403196, Note_on_c, 4, 38, 0
9, 403200, Note_on_c, 4, 40, 64
9, 403436, Note_on_c, 4, 40, 0
9, 403440, Note_on_c, 4, 38, 64
9, 403676, Note_on_c, 4, 38, 0
9, 403680, Note_on_c, 4, 36, 64
9, 403916, Note_on_c, 4, 36, 0
9, 403920, Note_on_c, 4, 43, 64
9, 404156, Note_on_c, 4, 43, 0
9, 404160, Note_on_c, 4, 45, 64
9, 404396, Note_on_c, 4, 45, 0
9, 404400, Note_on_c, 4, 47, 64
9, 404636, Note_on_c, 4, 47, 0
9, 404640, Note_on_c, 4, 48, 64
9, 405116, Note_on_c, 4, 48, 0
9, 405360, Note_on_c, 4, 55, 64
9, 405836, Note_on_c, 4, 55, 0
9, 406080, Note_on_c, 4, 48, 64
9, 406556, Note_on_c, 4, 48, 0
9, 406800, Note_on_c, 4, 43, 64
9, 407276, Note_on_c, 4, 43, 0
9, 407520, Note_on_c, 4, 48, 64
9, 407636, Note_on_c, 4, 48, 0
9, 407640, Note_on_c, 4, 47, 64
9, 407756, Note_on_c, 4, 47, 0
9, 407760, Note_on_c, 4, 48, 64
9, 407876, Note_on_c, 4, 48, 0
9, 407880, Note_on_c, 4, 50, 64
9, 407996, Note_on_c, 4, 50, 0
9, 408000, Note_on_c, 4, 52, 64
9, 408116, Note_on_c, 4, 52, 0
9, 408120, Note_on_c, 4, 53, 64
9, 408236, Note_on_c, 4, 53, 0
9, 408240, Note_on_c, 4, 55, 64
9, 408356, Note_on_c, 4, 55, 0
9, 408360, Note_on_c, 4, 57, 64
9, 408476, Note_on_c, 4, 57, 0
9, 408480, Note_on_c, 4, 55, 64
9, 408596, Note_on_c, 4, 55, 0
9, 408600, Note_on_c, 4, 53, 64
9, 408716, Note_on_c, 4, 53, 0
9, 408720, Note_on_c, 4, 52, 64
9, 408836, Note_on_c, 4, 52, 0
9, 408840, Note_on_c, 4, 50, 64
9, 408956, Note_on_c, 4, 50, 0
9, 408960, Note_on_c, 4, 48, 64
9, 409076, Note_on_c, 4, 48, 0
9, 409080, Note_on_c, 4, 47, 64
9, 409196, Note_on_c, 4, 47, 0
9, 409200, Note_on_c, 4, 48, 64
9, 409316, Note_on_c, 4, 48, 0
9, 409320, Note_on_c, 4, 50, 64
9, 409436, Note_on_c, 4, 50, 0
9, 409440, Note_on_c, 4, 52, 64
9, 409556, Note_on_c, 4, 52, 0
9, 409560, Note_on_c, 4, 48, 64
9, 409676, Note_on_c, 4, 48, 0
9, 409680, Note_on_c, 4, 54, 64
9, 409796, Note_on_c, 4, 54, 0
9, 409800, Note_on_c, 4, 55, 64
9, 409916, Note_on_c, 4, 55, 0
9, 409920, Note_on_c, 4, 54, 64
9, 410036, Note_on_c, 4, 54, 0
9, 410040, Note_on_c, 4, 52, 64
9, 410156, Note_on_c, 4, 52, 0
9, 410160, Note_on_c, 4, 50, 64
9, 410276, Note_on_c, 4, 50, 0
9, 410280, Note_on_c, 4, 48, 64
9, 410396, Note_on_c, 4, 48, 0
9, 410400, Note_on_c, 4, 47, 64
9, 410516, Note_on_c, 4, 47, 0
9, 410520, Note_on_c, 4, 45, 64
9, 410636, Note_on_c, 4, 45, 0
9, 410640, Note_on_c, 4, 47, 64
9, 410756, Note_on_c, 4, 47, 0
9, 410760, Note_on_c, 4, 48, 64
9, 410876, Note_on_c, 4, 48, 0
9, 410880, Note_on_c, 4, 50, 64
9, 410996, Note_on_c, 4, 50, 0
9, 411000, Note_on_c, 4, 47, 64
9, 411116, Note_on_c, 4, 47, 0
9, 411120, Note_on_c, 4, 52, 64
9, 411236, Note_on_c, 4, 52, 0
9, 411240, Note_on_c, 4, 54, 64
9, 411356, Note_on_c, 4, 54, 0
9, 411360, Note_on_c, 4, 52, 64
9, 411476, Note_on_c, 4, 52, 0
9, 411480, Note_on_c, 4, 50, 64
9, 411596, Note_on_c, 4, 50, 0
9, 411600, Note_on_c, 4, 48, 64
9, 411716, Note_on_c, 4, 48, 0
9, 411720, Note_on_c, 4, 47, 64
9, 411836, Note_on_c, 4, 47, 0
9, 411840, Note_on_c, 4, 45, 64
9, 411956, Note_on_c, 4, 45, 0
9, 411960, Note_on_c, 4, 43, 64
9, 412076, Note_on_c, 4, 43, 0
9, 412080, Note_on_c, 4, 45, 64
9, 412196, Note_on_c, 4, 45, 0
9, 412200, Note_on_c, 4, 47, 64
9, 412316, Note_on_c, 4, 47, 0
9, 412320, Note_on_c, 4, 48, 64
9, 412436, Note_on_c, 4, 48, 0
9, 412440, Note_on_c, 4, 45, 64
9, 412556, Note_on_c, 4, 45, 0
9, 412560, Note_on_c, 4, 50, 64
9, 412676, Note_on_c, 4, 50, 0
9, 412680, Note_on_c, 4, 52, 64
9, 412796, Note_on_c, 4, 52, 0
9, 412800, Note_on_c, 4, 50, 64
9, 412916, Note_on_c, 4, 50, 0
9, 412920, Note_on_c, 4, 48, 64
9, 413036, Note_on_c, 4, 48, 0
9, 413040, Note_on_c, 4, 47, 64
9, 413156, Note_on_c, 4, 47, 0
9, 413160, Note_on_c, 4, 45, 64
9, 413276, Note_on_c, 4, 45, 0
9, 413280, Note_on_c, 4, 43, 64
9, 413756, Note_on_c, 4, 43, 0
9, 414000, Note_on_c, 4, 38, 64
9, 414476, Note_on_c, 4, 38, 0
9, 414720, Note_on_c, 4, 43, 64
9, 415196, Note_on_c, 4, 43, 0
9, 415440, Note_on_c, 4, 50, 64
9, 415916, Note_on_c, 4, 50, 0
9, 416160, Note_on_c, 4, 55, 64
9, 416396, Note_on_c, 4, 55, 0
9, 416400, Note_on_c, 4, 59, 64
9, 416636, Note_on_c, 4, 59, 0
9, 416640, Note_on_c, 4, 62, 64
9, 416876, Note_on_c, 4, 62, 0
9, 416880, Note_on_c, 4, 50, 64
9, 417116, Note_on_c, 4, 50, 0
9, 417120, Note_on_c, 4, 57, 64
9, 417356, Note_on_c, 4, 57, 0
9, 417360, Note_on_c, 4, 62, 64
9, 417596, Note_on_c, 4, 62, 0
9, 417600, Note_on_c, 4, 43, 64
9, 417716, Note_on_c, 4, 43, 0
9, 417720, Note_on_c, 4, 42, 64
9, 417836, Note_on_c, 4, 42, 0
9, 417840, Note_on_c, 4, 43, 64
9, 417956, Note_on_c, 4, 43, 0
9, 417960, Note_on_c, 4, 45, 64
9, 418076, Note_on_c, 4, 45, 0
9, 418080, Note_on_c, 4, 47, 64
9, 418196, Note_on_c, 4, 47, 0
9, 418200, Note_on_c, 4, 48, 64
9, 418316, Note_on_c, 4, 48, 0
9, 418320, Note_on_c, 4, 50, 64
9, 418436, Note_on_c, 4, 50, 0
9, 418440, Note_on_c, 4, 52, 64
9, 418556, Note_on_c, 4, 52, 0
9, 418560, Note_on_c, 4, 50, 64
9, 418676, Note_on_c, 4, 50, 0
9, 418680, Note_on_c, 4, 48, 64
9, 418796, Note_on_c, 4, 48, 0
9, 418800, Note_on_c, 4, 47, 64
9, 418916, Note_on_c, 4, 47, 0
9, 418920, Note_on_c, 4, 45, 64
9, 419036, Note_on_c, 4, 45, 0
9, 419040, Note_on_c, 4, 43, 64
9, 419156, Note_on_c, 4, 43, 0
9, 419160, Note_on_c, 4, 42, 64
9, 419276, Note_on_c, 4, 42, 0
9, 419280, Note_on_c, 4, 43, 64
9, 419396, Note_on_c, 4, 43, 0
9, 419400, Note_on_c, 4, 45, 64
9, 419516, Note_on_c, 4, 45, 0
9, 419520, Note_on_c, 4, 47, 64
9, 419636, Note_on_c, 4, 47, 0
9, 419640, Note_on_c, 4, 43, 64
9, 419756, Note_on_c, 4, 43, 0
9, 419760, Note_on_c, 4, 48, 64
9, 419876, Note_on_c, 4, 48, 0
9, 419880, Note_on_c, 4, 50, 64
9, 419996, Note_on_c, 4, 50, 0
9, 420000, Note_on_c, 4, 48, 64
9, 420116, Note_on_c, 4, 48, 0
9, 420120, Note_on_c, 4, 47, 64
9, 420236, Note_on_c, 4, 47, 0
9, 420240, Note_on_c, 4, 45, 64
9, 420356, Note_on_c, 4, 45, 0
9, 420360, Note_on_c, 4, 43, 64
9, 420476, Note_on_c, 4, 43, 0
9, 420480, Note_on_c, 4, 42, 64
9, 420596, Note_on_c, 4, 42, 0
9, 420600, Note_on_c, 4, 40, 64
9, 420716, Note_on_c, 4, 40, 0
9, 420720, Note_on_c, 4, 42, 64
9, 420836, Note_on_c, 4, 42, 0
9, 420840, Note_on_c, 4, 43, 64
9, 420956, Note_on_c, 4, 43, 0
9, 420960, Note_on_c, 4, 45, 64
9, 421076, Note_on_c, 4, 45, 0
9, 421080, Note_on_c, 4, 42, 64
9, 421196, Note_on_c, 4, 42, 0
9, 421200, Note_on_c, 4, 47, 64
9, 421316, Note_on_c, 4, 47, 0
9, 421320, Note_on_c, 4, 48, 64
9, 421436, Note_on_c, 4, 48, 0
9, 421440, Note_on_c, 4, 47, 64
9, 421556, Note_on_c, 4, 47, 0
9, 421560, Note_on_c, 4, 45, 64
9, 421676, Note_on_c, 4, 45, 0
9, 421680, Note_on_c, 4, 43, 64
9, 421796, Note_on_c, 4, 43, 0
9, 421800, Note_on_c, 4, 42, 64
9, 421916, Note_on_c, 4, 42, 0
9, 421920, Note_on_c, 4, 40, 64
9, 422036, Note_on_c, 4, 40, 0
9, 422040, Note_on_c, 4, 38, 64
9, 422156, Note_on_c, 4, 38, 0
9, 422160, Note_on_c, 4, 40, 64
9, 422276, Note_on_c, 4, 40, 0
9, 422280, Note_on_c, 4, 42, 64
9, 422396, Note_on_c, 4, 42, 0
9, 422400, Note_on_c, 4, 43, 64
9, 422516, Note_on_c, 4, 43, 0
9, 422520, Note_on_c, 4, 40, 64
9, 422636, Note_on_c, 4, 40, 0
9, 422640, Note_on_c, 4, 45, 64
9, 422756, Note_on_c, 4, 45, 0
9, 422760, Note_on_c, 4, 47, 64
9, 422876, Note_on_c, 4, 47, 0
9, 422880, Note_on_c, 4, 45, 64
9, 422996, Note_on_c, 4, 45, 0
9, 423000, Note_on_c, 4, 43, 64
9, 423116, Note_on_c, 4, 43, 0
9, 423120, Note_on_c, 4, 42, 64
9, 423236, Note_on_c, 4, 42, 0
9, 423240, Note_on_c, 4, 40, 64
9, 423356, Note_on_c, 4, 40, 0
9, 423360, Note_on_c, 4, 38, 64
9, 423596, Note_on_c, 4, 38, 0
9, 423600, Note_on_c, 4, 38, 64
9, 423836, Note_on_c, 4, 38, 0
9, 423840, Note_on_c, 4, 38, 64
9, 424076, Note_on_c, 4, 38, 0
9, 424080, Note_on_c, 4, 38, 64
9, 424316, Note_on_c, 4, 38, 0
9, 424320, Note_on_c, 4, 38, 64
9, 424556, Note_on_c, 4, 38, 0
9, 424560, Note_on_c, 4, 38, 64
9, 424796, Note_on_c, 4, 38, 0
9, 424800, Note_on_c, 4, 38, 64
9, 425036, Note_on_c, 4, 38, 0
9, 425040, Note_on_c, 4, 38, 64
9, 425276, Note_on_c, 4, 38, 0
9, 425280, Note_on_c, 4, 38, 64
9, 425516, Note_on_c, 4, 38, 0
9, 425520, Note_on_c, 4, 38, 64
9, 425756, Note_on_c, 4, 38, 0
9, 425760, Note_on_c, 4, 38, 64
9, 425996, Note_on_c, 4, 38, 0
9, 426000, Note_on_c, 4, 38, 64
9, 426236, Note_on_c, 4, 38, 0
9, 426240, Note_on_c, 4, 38, 64
9, 426476, Note_on_c, 4, 38, 0
9, 426480, Note_on_c, 4, 38, 64
9, 426716, Note_on_c, 4, 38, 0
9, 426720, Note_on_c, 4, 38, 64
9, 426956, Note_on_c, 4, 38, 0
9, 426960, Note_on_c, 4, 38, 64
9, 427196, Note_on_c, 4, 38, 0
9, 427200, Note_on_c, 4, 38, 64
9, 427436, Note_on_c, 4, 38, 0
9, 427440, Note_on_c, 4, 38, 64
9, 427676, Note_on_c, 4, 38, 0
9, 427680, Note_on_c, 4, 38, 64
9, 427916, Note_on_c, 4, 38, 0
9, 427920, Note_on_c, 4, 38, 64
9, 428156, Note_on_c, 4, 38, 0
9, 428160, Note_on_c, 4, 38, 64
9, 428396, Note_on_c, 4, 38, 0
9, 428400, Note_on_c, 4, 38, 64
9, 428636, Note_on_c, 4, 38, 0
9, 428640, Note_on_c, 4, 38, 64
9, 428876, Note_on_c, 4, 38, 0
9, 428880, Note_on_c, 4, 38, 64
9, 429116, Note_on_c, 4, 38, 0
9, 429120, Note_on_c, 4, 38, 64
9, 429356, Note_on_c, 4, 38, 0
9, 429360, Note_on_c, 4, 42, 64
9, 429596, Note_on_c, 4, 42, 0
9, 429600, Note_on_c, 4, 45, 64
9, 429836, Note_on_c, 4, 45, 0
9, 429840, Note_on_c, 4, 42, 64
9, 430076, Note_on_c, 4, 42, 0
9, 430080, Note_on_c, 4, 45, 64
9, 430316, Note_on_c, 4, 45, 0
9, 430320, Note_on_c, 4, 50, 64
9, 430556, Note_on_c, 4, 50, 0
9, 430560, Note_on_c, 4, 43, 64
9, 430796, Note_on_c, 4, 43, 0
9, 430800, Note_on_c, 4, 47, 64
9, 431036, Note_on_c, 4, 47, 0
9, 431040, Note_on_c, 4, 50, 64
9, 431276, Note_on_c, 4, 50, 0
9, 431280, Note_on_c, 4, 47, 64
9, 431516, Note_on_c, 4, 47, 0
9, 431520, Note_on_c, 4, 50, 64
9, 431756, Note_on_c, 4, 50, 0
9, 431760, Note_on_c, 4, 55, 64
9, 431996, Note_on_c, 4, 55, 0
9, 432000, Note_on_c, 4, 36, 64
9, 432476, Note_on_c, 4, 36, 0
9, 433440, Note_on_c, 4, 48, 64
9, 433916, Note_on_c, 4, 48, 0
9, 434880, Note_on_c, 4, 47, 64
9, 435116, Note_on_c, 4, 47, 0
9, 435120, Note_on_c, 4, 45, 64
9, 435356, Note_on_c, 4, 45, 0
9, 435360, Note_on_c, 4, 43, 64
9, 435596, Note_on_c, 4, 43, 0
9, 435600, Note_on_c, 4, 50, 64
9, 436076, Note_on_c, 4, 50, 0
9, 436080, Note_on_c, 4, 38, 64
9, 436316, Note_on_c, 4, 38, 0
9, 436320, Note_on_c, 4, 43, 64
9, 437756, Note_on_c, 4, 43, 0
9, 437760, Note_on_c, 4, 50, 64
9, 437876, Note_on_c, 4, 50, 0
9, 437880, Note_on_c, 4, 49, 64
9, 437996, Note_on_c, 4, 49, 0
9, 438000, Note_on_c, 4, 50, 64
9, 438116, Note_on_c, 4, 50, 0
9, 438120, Note_on_c, 4, 52, 64
9, 438236, Note_on_c, 4, 52, 0
9, 438240, Note_on_c, 4, 54, 64
9, 438356, Note_on_c, 4, 54, 0
9, 438360, Note_on_c, 4, 55, 64
9, 438476, Note_on_c, 4, 55, 0
9, 438480, Note_on_c, 4, 57, 64
9, 438596, Note_on_c, 4, 57, 0
9, 438600, Note_on_c, 4, 59, 64
9, 438716, Note_on_c, 4, 59, 0
9, 438720, Note_on_c, 4, 57, 64
9, 438836, Note_on_c, 4, 57, 0
9, 438840, Note_on_c, 4, 55, 64
9, 438956, Note_on_c, 4, 55, 0
9, 438960, Note_on_c, 4, 54, 64
9, 439076, Note_on_c, 4, 54, 0
9, 439080, Note_on_c, 4, 52, 64
9, 439196, Note_on_c, 4, 52, 0
9, 439200, Note_on_c, 4, 54, 64
9, 439316, Note_on_c, 4, 54, 0
9, 439320, Note_on_c, 4, 57, 64
9, 439436, Note_on_c, 4, 57, 0
9, 439440, Note_on_c, 4, 55, 64
9, 439556, Note_on_c, 4, 55, 0
9, 439560, Note_on_c, 4, 54, 64
9, 439676, Note_on_c, 4, 54, 0
9, 439680, Note_on_c, 4, 52, 64
9, 439796, Note_on_c, 4, 52, 0
9, 439800, Note_on_c, 4, 50, 64
9, 439916, Note_on_c, 4, 50, 0
9, 439920, Note_on_c, 4, 49, 64
9, 440036, Note_on_c, 4, 49, 0
9, 440040, Note_on_c, 4, 52, 64
9, 440156, Note_on_c, 4, 52, 0
9, 440160, Note_on_c, 4, 50, 64
9, 440276, Note_on_c, 4, 50, 0
9, 440280, Note_on_c, 4, 49, 64
9, 440396, Note_on_c, 4, 49, 0
9, 440400, Note_on_c, 4, 47, 64
9, 440516, Note_on_c, 4, 47, 0
9, 440520, Note_on_c, 4, 45, 64
9, 440636, Note_on_c, 4, 45, 0
9, 440640, Note_on_c, 4, 52, 64
9, 440876, Note_on_c, 4, 52, 0
9, 440880, Note_on_c, 4, 55, 64
9, 441116, Note_on_c, 4, 55, 0
9, 441120, Note_on_c, 4, 59, 64
9, 441356, Note_on_c, 4, 59, 0
9, 441360, Note_on_c, 4, 51, 64
9, 441596, Note_on_c, 4, 51, 0
9, 441600, Note_on_c, 4, 54, 64
9, 441836, Note_on_c, 4, 54, 0
9, 441840, Note_on_c, 4, 59, 64
9, 442076, Note_on_c, 4, 59, 0
9, 442080, Note_on_c, 4, 52, 64
9, 442316, Note_on_c, 4, 52, 0
9, 442320, Note_on_c, 4, 55, 64
9, 442556, Note_on_c, 4, 55, 0
9, 442560, Note_on_c, 4, 59, 64
9, 442796, Note_on_c, 4, 59, 0
9, 442800, Note_on_c, 4, 47, 64
9, 443036, Note_on_c, 4, 47, 0
9, 443040, Note_on_c, 4, 54, 64
9, 443276, Note_on_c, 4, 54, 0
9, 443280, Note_on_c, 4, 59, 64
9, 443516, Note_on_c, 4, 59, 0
9, 443520, Note_on_c, 4, 43, 64
9, 443996, Note_on_c, 4, 43, 0
9, 444240, Note_on_c, 4, 45, 64
9, 444716, Note_on_c, 4, 45, 0
9, 444960, Note_on_c, 4, 47, 64
9, 445436, Note_on_c, 4, 47, 0
9, 445680, Note_on_c, 4, 48, 64
9, 446156, Note_on_c, 4, 48, 0
9, 446400, Note_on_c, 4, 43, 64
9, 446876, Note_on_c, 4, 43, 0
9, 447120, Note_on_c, 4, 45, 64
9, 447596, Note_on_c, 4, 45, 0
9, 447840, Note_on_c, 4, 47, 64
9, 448076, Note_on_c, 4, 47, 0
9, 448080, Note_on_c, 4, 45, 64
9, 448316, Note_on_c, 4, 45, 0
9, 448320, Note_on_c, 4, 47, 64
9, 448556, Note_on_c, 4, 47, 0
9, 448560, Note_on_c, 4, 40, 64
9, 448796, Note_on_c, 4, 40, 0
9, 448800, Note_on_c, 4, 43, 64
9, 449036, Note_on_c, 4, 43, 0
9, 449040, Note_on_c, 4, 47, 64
9, 449276, Note_on_c, 4, 47, 0
9, 449280, Note_on_c, 4, 52, 64
9, 449756, Note_on_c, 4, 52, 0
9, 453600, Note_on_c, 4, 52, 64
9, 453716, Note_on_c, 4, 52, 0
9, 453720, Note_on_c, 4, 51, 64
9, 453836, Note_on_c, 4, 51, 0
9, 453840, Note_on_c, 4, 52, 64
9, 453956, Note_on_c, 4, 52, 0
9, 453960, Note_on_c, 4, 54, 64
9, 454076, Note_on_c, 4, 54, 0
9, 454080, Note_on_c, 4, 55, 64
9, 454196, Note_on_c, 4, 55, 0
9, 454200, Note_on_c, 4, 57, 64
9, 454316, Note_on_c, 4, 57, 0
9, 454320, Note_on_c, 4, 59, 64
9, 454436, Note_on_c, 4, 59, 0
9, 454440, Note_on_c, 4, 60, 64
9, 454556, Note_on_c, 4, 60, 0
9, 454560, Note_on_c, 4, 59, 64
9, 454676, Note_on_c, 4, 59, 0
9, 454680, Note_on_c, 4, 57, 64
9, 454796, Note_on_c, 4, 57, 0
9, 454800, Note_on_c, 4, 55, 64
9, 454916, Note_on_c, 4, 55, 0
9, 454920, Note_on_c, 4, 54, 64
9, 455036, Note_on_c, 4, 54, 0
9, 455040, Note_on_c, 4, 52, 64
9, 455156, Note_on_c, 4, 52, 0
9, 455160, Note_on_c, 4, 51, 64
9, 455276, Note_on_c, 4, 51, 0
9, 455280, Note_on_c, 4, 52, 64
9, 455396, Note_on_c, 4, 52, 0
9, 455400, Note_on_c, 4, 54, 64
9, 455516, Note_on_c, 4, 54, 0
9, 455520, Note_on_c, 4, 55, 64
9, 455636, Note_on_c, 4, 55, 0
9, 455640, Note_on_c, 4, 52, 64
9, 455756, Note_on_c, 4, 52, 0
9, 455760, Note_on_c, 4, 57, 64
9, 455876, Note_on_c, 4, 57, 0
9, 455880, Note_on_c, 4, 59, 64
9, 455996, Note_on_c, 4, 59, 0
9, 456000, Note_on_c, 4, 57, 64
9, 456116, Note_on_c, 4, 57, 0
9, 456120, Note_on_c, 4, 55, 64
9, 456236, Note_on_c, 4, 55, 0
9, 456240, Note_on_c, 4, 54, 64
9, 456356, Note_on_c, 4, 54, 0
9, 456360, Note_on_c, 4, 52, 64
9, 456476, Note_on_c, 4, 52, 0
9, 456480, Note_on_c, 4, 50, 64
9, 456596, Note_on_c, 4, 50, 0
9, 456600, Note_on_c, 4, 49, 64
9, 456716, Note_on_c, 4, 49, 0
9, 456720, Note_on_c, 4, 50, 64
9, 456836, Note_on_c, 4, 50, 0
9, 456840, Note_on_c, 4, 52, 64
9, 456956, Note_on_c, 4, 52, 0
9, 456960, Note_on_c, 4, 54, 64
9, 457076, Note_on_c, 4, 54, 0
9, 457080, Note_on_c, 4, 50, 64
9, 457196, Note_on_c, 4, 50, 0
9, 457200, Note_on_c, 4, 55, 64
9, 457316, Note_on_c, 4, 55, 0
9, 457320, Note_on_c, 4, 57, 64
9, 457436, Note_on_c, 4, 57, 0
9, 457440, Note_on_c, 4, 55, 64
9, 457556, Note_on_c, 4, 55, 0
9, 457560, Note_on_c, 4, 54, 64
9, 457676, Note_on_c, 4, 54, 0
9, 457680, Note_on_c, 4, 52, 64
9, 457796, Note_on_c, 4, 52, 0
9, 457800, Note_on_c, 4, 50, 64
9, 457916, Note_on_c, 4, 50, 0
9, 457920, Note_on_c, 4, 49, 64
9, 458036, Note_on_c, 4, 49, 0
9, 458040, Note_on_c, 4, 47, 64
9, 458156, Note_on_c, 4, 47, 0
9, 458160, Note_on_c, 4, 49, 64
9, 458276, Note_on_c, 4, 49, 0
9, 458280, Note_on_c, 4, 50, 64
9, 458396, Note_on_c, 4, 50, 0
9, 458400, Note_on_c, 4, 52, 64
9, 458516, Note_on_c, 4, 52, 0
9, 458520, Note_on_c, 4, 49, 64
9, 458636, Note_on_c, 4, 49, 0
9, 458640, Note_on_c, 4, 54, 64
9, 458756, Note_on_c, 4, 54, 0
9, 458760, Note_on_c, 4, 55, 64
9, 458876, Note_on_c, 4, 55, 0
9, 458880, Note_on_c, 4, 54, 64
9, 458996, Note_on_c, 4, 54, 0
9, 459000, Note_on_c, 4, 52, 64
9, 459116, Note_on_c, 4, 52, 0
9, 459120, Note_on_c, 4, 50, 64
9, 459236, Note_on_c, 4, 50, 0
9, 459240, Note_on_c, 4, 49, 64
9, 459356, Note_on_c, 4, 49, 0
9, 459360, Note_on_c, 4, 47, 64
9, 459836, Note_on_c, 4, 47, 0
9, 460080, Note_on_c, 4, 42, 64
9, 460556, Note_on_c, 4, 42, 0
9, 460800, Note_on_c, 4, 47, 64
9, 461276, Note_on_c, 4, 47, 0
9, 461520, Note_on_c, 4, 54, 64
9, 461996, Note_on_c, 4, 54, 0
9, 462240, Note_on_c, 4, 47, 64
9, 462476, Note_on_c, 4, 47, 0
9, 462480, Note_on_c, 4, 50, 64
9, 462716, Note_on_c, 4, 50, 0
9, 462720, Note_on_c, 4, 54, 64
9, 462956, Note_on_c, 4, 54, 0
9, 462960, Note_on_c, 4, 46, 64
9, 463196, Note_on_c, 4, 46, 0
9, 463200, Note_on_c, 4, 49, 64
9, 463436, Note_on_c, 4, 49, 0
9, 463440, Note_on_c, 4, 54, 64
9, 463676, Note_on_c, 4, 54, 0
9, 463680, Note_on_c, 4, 47, 64
9, 463796, Note_on_c, 4, 47, 0
9, 463800, Note_on_c, 4, 46, 64
9, 463916, Note_on_c, 4, 46, 0
9, 463920, Note_on_c, 4, 47, 64
9, 464036, Note_on_c, 4, 47, 0
9, 464040, Note_on_c, 4, 49, 64
9, 464156, Note_on_c, 4, 49, 0
9, 464160, Note_on_c, 4, 50, 64
9, 464276, Note_on_c, 4, 50, 0
9, 464280, Note_on_c, 4, 52, 64
9, 464396, Note_on_c, 4, 52, 0
9, 464400, Note_on_c, 4, 54, 64
9, 464516, Note_on_c, 4, 54, 0
9, 464520, Note_on_c, 4, 55, 64
9, 464636, Note_on_c, 4, 55, 0
9, 464640, Note_on_c, 4, 54, 64
9, 464756, Note_on_c, 4, 54, 0
9, 464760, Note_on_c, 4, 52, 64
9, 464876, Note_on_c, 4, 52, 0
9, 464880, Note_on_c, 4, 50, 64
9, 464996, Note_on_c, 4, 50, 0
9, 465000, Note_on_c, 4, 49, 64
9, 465116, Note_on_c, 4, 49, 0
9, 465120, Note_on_c, 4, 47, 64
9, 465236, Note_on_c, 4, 47, 0
9, 465240, Note_on_c, 4, 46, 64
9, 465356, Note_on_c, 4, 46, 0
9, 465360, Note_on_c, 4, 47, 64
9, 465476, Note_on_c, 4, 47, 0
9, 465480, Note_on_c, 4, 49, 64
9, 465596, Note_on_c, 4, 49, 0
9, 465600, Note_on_c, 4, 50, 64
9, 465716, Note_on_c, 4, 50, 0
9, 465720, Note_on_c, 4, 47, 64
9, 465836, Note_on_c, 4, 47, 0
9, 465840, Note_on_c, 4, 52, 64
9, 465956, Note_on_c, 4, 52, 0
9, 465960, Note_on_c, 4, 54, 64
9, 466076, Note_on_c, 4, 54, 0
9, 466080, Note_on_c, 4, 52, 64
9, 466196, Note_on_c, 4, 52, 0
9, 466200, Note_on_c, 4, 50, 64
9, 466316, Note_on_c, 4, 50, 0
9, 466320, Note_on_c, 4, 49, 64
9, 466436, Note_on_c, 4, 49, 0
9, 466440, Note_on_c, 4, 47, 64
9, 466556, Note_on_c, 4, 47, 0
9, 466560, Note_on_c, 4, 45, 64
9, 466676, Note_on_c, 4, 45, 0
9, 466680, Note_on_c, 4, 43, 64
9, 466796, Note_on_c, 4, 43, 0
9, 466800, Note_on_c, 4, 45, 64
9, 466916, Note_on_c, 4, 45, 0
9, 466920, Note_on_c, 4, 47, 64
9, 467036, Note_on_c, 4, 47, 0
9, 467040, Note_on_c, 4, 49, 64
9, 467156, Note_on_c, 4, 49, 0
9, 467160, Note_on_c, 4, 45, 64
9, 467276, Note_on_c, 4, 45, 0
9, 467280, Note_on_c, 4, 50, 64
9, 467396, Note_on_c, 4, 50, 0
9, 467400, Note_on_c, 4, 52, 64
9, 467516, Note_on_c, 4, 52, 0
9, 467520, Note_on_c, 4, 50, 64
9, 467636, Note_on_c, 4, 50, 0
9, 467640, Note_on_c, 4, 49, 64
9, 467756, Note_on_c, 4, 49, 0
9, 467760, Note_on_c, 4, 47, 64
9, 467876, Note_on_c, 4, 47, 0
9, 467880, Note_on_c, 4, 45, 64
9, 467996, Note_on_c, 4, 45, 0
9, 468000, Note_on_c, 4, 43, 64
9, 468116, Note_on_c, 4, 43, 0
9, 468120, Note_on_c, 4, 42, 64
9, 468236, Note_on_c, 4, 42, 0
9, 468240, Note_on_c, 4, 43, 64
9, 468356, Note_on_c, 4, 43, 0
9, 468360, Note_on_c, 4, 45, 64
9, 468476, Note_on_c, 4, 45, 0
9, 468480, Note_on_c, 4, 47, 64
9, 468596, Note_on_c, 4, 47, 0
9, 468600, Note_on_c, 4, 43, 64
9, 468716, Note_on_c, 4, 43, 0
9, 468720, Note_on_c, 4, 49, 64
9, 468836, Note_on_c, 4, 49, 0
9, 468840, Note_on_c, 4, 50, 64
9, 468956, Note_on_c, 4, 50, 0
9, 468960, Note_on_c, 4, 49, 64
9, 469076, Note_on_c, 4, 49, 0
9, 469080, Note_on_c, 4, 47, 64
9, 469196, Note_on_c, 4, 47, 0
9, 469320, Note_on_c, 4, 44, 64
9, 469436, Note_on_c, 4, 44, 0
9, 469440, Note_on_c, 4, 42, 64
9, 469676, Note_on_c, 4, 42, 0
9, 469680, Note_on_c, 4, 42, 64
9, 469916, Note_on_c, 4, 42, 0
9, 469920, Note_on_c, 4, 42, 64
9, 470156, Note_on_c, 4, 42, 0
9, 470160, Note_on_c, 4, 42, 64
9, 470396, Note_on_c, 4, 42, 0
9, 470400, Note_on_c, 4, 42, 64
9, 470636, Note_on_c, 4, 42, 0
9, 470640, Note_on_c, 4, 42, 64
9, 470876, Note_on_c, 4, 42, 0
9, 470880, Note_on_c, 4, 42, 64
9, 471116, Note_on_c, 4, 42, 0
9, 471120, Note_on_c, 4, 42, 64
9, 471356, Note_on_c, 4, 42, 0
9, 471360, Note_on_c, 4, 42, 64
9, 471596, Note_on_c, 4, 42, 0
9, 471600, Note_on_c, 4, 42, 64
9, 471836, Note_on_c, 4, 42, 0
9, 471840, Note_on_c, 4, 42, 64
9, 472076, Note_on_c, 4, 42, 0
9, 472080, Note_on_c, 4, 42, 64
9, 472316, Note_on_c, 4, 42, 0
9, 472320, Note_on_c, 4, 42, 64
9, 472556, Note_on_c, 4, 42, 0
9, 472560, Note_on_c, 4, 42, 64
9, 472796, Note_on_c, 4, 42, 0
9, 472800, Note_on_c, 4, 42, 64
9, 473036, Note_on_c, 4, 42, 0
9, 473040, Note_on_c, 4, 42, 64
9, 473276, Note_on_c, 4, 42, 0
9, 473280, Note_on_c, 4, 42, 64
9, 473516, Note_on_c, 4, 42, 0
9, 473520, Note_on_c, 4, 42, 64
9, 473756, Note_on_c, 4, 42, 0
9, 473760, Note_on_c, 4, 42, 64
9, 473996, Note_on_c, 4, 42, 0
9, 474000, Note_on_c, 4, 42, 64
9, 474236, Note_on_c, 4, 42, 0
9, 474240, Note_on_c, 4, 42, 64
9, 474476, Note_on_c, 4, 42, 0
9, 474480, Note_on_c, 4, 42, 64
9, 474716, Note_on_c, 4, 42, 0
9, 474720, Note_on_c, 4, 42, 64
9, 474956, Note_on_c, 4, 42, 0
9, 474960, Note_on_c, 4, 42, 64
9, 475196, Note_on_c, 4, 42, 0
9, 475200, Note_on_c, 4, 42, 64
9, 475436, Note_on_c, 4, 42, 0
9, 475440, Note_on_c, 4, 46, 64
9, 475676, Note_on_c, 4, 46, 0
9, 475680, Note_on_c, 4, 49, 64
9, 475916, Note_on_c, 4, 49, 0
9, 475920, Note_on_c, 4, 46, 64
9, 476156, Note_on_c, 4, 46, 0
9, 476160, Note_on_c, 4, 49, 64
9, 476396, Note_on_c, 4, 49, 0
9, 476400, Note_on_c, 4, 54, 64
9, 476636, Note_on_c, 4, 54, 0
9, 476640, Note_on_c, 4, 47, 64
9, 476876, Note_on_c, 4, 47, 0
9, 476880, Note_on_c, 4, 51, 64
9, 477116, Note_on_c, 4, 51, 0
9, 477120, Note_on_c, 4, 54, 64
9, 477356, Note_on_c, 4, 54, 0
9, 477360, Note_on_c, 4, 51, 64
9, 477596, Note_on_c, 4, 51, 0
9, 477600, Note_on_c, 4, 54, 64
9, 477836, Note_on_c, 4, 54, 0
9, 477840, Note_on_c, 4, 59, 64
9, 478076, Note_on_c, 4, 59, 0
9, 478080, Note_on_c, 4, 40, 64
9, 478556, Note_on_c, 4, 40, 0
9, 479520, Note_on_c, 4, 52, 64
9, 479996, Note_on_c, 4, 52, 0
9, 480960, Note_on_c, 4, 50, 64
9, 481196, Note_on_c, 4, 50, 0
9, 481200, Note_on_c, 4, 49, 64
9, 481436, Note_on_c, 4, 49, 0
9, 481440, Note_on_c, 4, 47, 64
9, 481676, Note_on_c, 4, 47, 0
9, 481680, Note_on_c, 4, 54, 64
9, 482156, Note_on_c, 4, 54, 0
9, 482160, Note_on_c, 4, 42, 64
9, 482396, Note_on_c, 4, 42, 0
9, 482400, Note_on_c, 4, 47, 64
9, 482636, Note_on_c, 4, 47, 0
9, 482640, Note_on_c, 4, 50, 64
9, 482876, Note_on_c, 4, 50, 0
9, 482880, Note_on_c, 4, 54, 64
9, 483116, Note_on_c, 4, 54, 0
9, 483120, Note_on_c, 4, 59, 64
9, 483356, Note_on_c, 4, 59, 0
9, 483360, Note_on_c, 4, 57, 64
9, 483476, Note_on_c, 4, 57, 0
9, 483480, Note_on_c, 4, 55, 64
9, 483596, Note_on_c, 4, 55, 0
9, 483600, Note_on_c, 4, 54, 64
9, 483716, Note_on_c, 4, 54, 0
9, 483720, Note_on_c, 4, 52, 64
9, 483836, Note_on_c, 4, 52, 0
9, 483840, Note_on_c, 4, 51, 64
9, 484076, Note_on_c, 4, 51, 0
9, 484080, Note_on_c, 4, 54, 64
9, 484316, Note_on_c, 4, 54, 0
9, 484320, Note_on_c, 4, 59, 64
9, 484556, Note_on_c, 4, 59, 0
9, 484560, Note_on_c, 4, 47, 64
9, 484796, Note_on_c, 4, 47, 0
9, 484800, Note_on_c, 4, 54, 64
9, 485036, Note_on_c, 4, 54, 0
9, 485040, Note_on_c, 4, 59, 64
9, 485276, Note_on_c, 4, 59, 0
9, 485280, Note_on_c, 4, 52, 64
9, 485516, Note_on_c, 4, 52, 0
9, 485520, Note_on_c, 4, 55, 64
9, 485756, Note_on_c, 4, 55, 0
9, 485760, Note_on_c, 4, 59, 64
9, 485996, Note_on_c, 4, 59, 0
9, 486000, Note_on_c, 4, 64, 64
9, 486236, Note_on_c, 4, 64, 0
9, 486240, Note_on_c, 4, 62, 64
9, 486356, Note_on_c, 4, 62, 0
9, 486360, Note_on_c, 4, 60, 64
9, 486476, Note_on_c, 4, 60, 0
9, 486480, Note_on_c, 4, 59, 64
9, 486596, Note_on_c, 4, 59, 0
9, 486600, Note_on_c, 4, 57, 64
9, 486716, Note_on_c, 4, 57, 0
9, 486720, Note_on_c, 4, 56, 64
9, 486956, Note_on_c, 4, 56, 0
9, 486960, Note_on_c, 4, 59, 64
9, 487196, Note_on_c, 4, 59, 0
9, 487200, Note_on_c, 4, 64, 64
9, 487436, Note_on_c, 4, 64, 0
9, 487440, Note_on_c, 4, 52, 64
9, 487676, Note_on_c, 4, 52, 0
9, 487680, Note_on_c, 4, 59, 64
9, 487916, Note_on_c, 4, 59, 0
9, 487920, Note_on_c, 4, 64, 64
9, 488156, Note_on_c, 4, 64, 0
9, 488160, Note_on_c, 4, 45, 64
9, 488396, Note_on_c, 4, 45, 0
9, 488400, Note_on_c, 4, 48, 64
9, 488636, Note_on_c, 4, 48, 0
9, 488640, Note_on_c, 4, 52, 64
9, 488876, Note_on_c, 4, 52, 0
9, 488880, Note_on_c, 4, 57, 64
9, 488996, Note_on_c, 4, 57, 0
9, 489000, Note_on_c, 4, 59, 64
9, 489116, Note_on_c, 4, 59, 0
9, 489120, Note_on_c, 4, 57, 64
9, 489236, Note_on_c, 4, 57, 0
9, 489240, Note_on_c, 4, 55, 64
9, 489356, Note_on_c, 4, 55, 0
9, 489360, Note_on_c, 4, 53, 64
9, 489476, Note_on_c, 4, 53, 0
9, 489480, Note_on_c, 4, 52, 64
9, 489596, Note_on_c, 4, 52, 0
9, 489600, Note_on_c, 4, 50, 64
9, 489836, Note_on_c, 4, 50, 0
9, 489840, Note_on_c, 4, 57, 64
9, 490076, Note_on_c, 4, 57, 0
9, 490080, Note_on_c, 4, 62, 64
9, 490316, Note_on_c, 4, 62, 0
9, 490320, Note_on_c, 4, 55, 64
9, 490556, Note_on_c, 4, 55, 0
9, 490560, Note_on_c, 4, 50, 64
9, 490796, Note_on_c, 4, 50, 0
9, 490800, Note_on_c, 4, 43, 64
9, 491036, Note_on_c, 4, 43, 0
9, 491040, Note_on_c, 4, 48, 64
9, 491276, Note_on_c, 4, 48, 0
9, 491280, Note_on_c, 4, 55, 64
9, 491516, Note_on_c, 4, 55, 0
9, 491520, Note_on_c, 4, 60, 64
9, 491756, Note_on_c, 4, 60, 0
9, 491760, Note_on_c, 4, 53, 64
9, 491996, Note_on_c, 4, 53, 0
9, 492000, Note_on_c, 4, 48, 64
9, 492236, Note_on_c, 4, 48, 0
9, 492240, Note_on_c, 4, 41, 64
9, 492476, Note_on_c, 4, 41, 0
9, 492480, Note_on_c, 4, 53, 64
9, 492956, Note_on_c, 4, 53, 0
9, 493200, Note_on_c, 4, 52, 64
9, 493676, Note_on_c, 4, 52, 0
9, 493920, Note_on_c, 4, 50, 64
9, 494396, Note_on_c, 4, 50, 0
9, 494640, Note_on_c, 4, 48, 64
9, 495116, Note_on_c, 4, 48, 0
9, 495360, Note_on_c, 4, 47, 64
9, 495596, Note_on_c, 4, 47, 0
9, 495600, Note_on_c, 4, 50, 64
9, 495836, Note_on_c, 4, 50, 0
9, 495840, Note_on_c, 4, 55, 64
9, 496076, Note_on_c, 4, 55, 0
9, 496080, Note_on_c, 4, 48, 64
9, 496316, Note_on_c, 4, 48, 0
9, 496320, Note_on_c, 4, 52, 64
9, 496556, Note_on_c, 4, 52, 0
9, 496560, Note_on_c, 4, 55, 64
9, 496796, Note_on_c, 4, 55, 0
9, 496800, Note_on_c, 4, 47, 64
9, 496916, Note_on_c, 4, 47, 0
9, 496920, Note_on_c, 4, 50, 64
9, 497036, Note_on_c, 4, 50, 0
9, 497040, Note_on_c, 4, 43, 64
9, 497156, Note_on_c, 4, 43, 0
9, 497160, Note_on_c, 4, 50, 64
9, 497276, Note_on_c, 4, 50, 0
9, 497280, Note_on_c, 4, 47, 64
9, 497396, Note_on_c, 4, 47, 0
9, 497400, Note_on_c, 4, 50, 64
9, 497516, Note_on_c, 4, 50, 0
9, 497520, Note_on_c, 4, 48, 64
9, 497636, Note_on_c, 4, 48, 0
9, 497640, Note_on_c, 4, 52, 64
9, 497756, Note_on_c, 4, 52, 0
9, 497760, Note_on_c, 4, 43, 64
9, 497876, Note_on_c, 4, 43, 0
9, 497880, Note_on_c, 4, 52, 64
9, 497996, Note_on_c, 4, 52, 0
9, 498000, Note_on_c, 4, 48, 64
9, 498116, Note_on_c, 4, 48, 0
9, 498120, Note_on_c, 4, 52, 64
9, 498236, Note_on_c, 4, 52, 0
9, 498240, Note_on_c, 4, 42, 64
9, 498476, Note_on_c, 4, 42, 0
9, 498480, Note_on_c, 4, 42, 64
9, 498716, Note_on_c, 4, 42, 0
9, 498720, Note_on_c, 4, 42, 64
9, 498956, Note_on_c, 4, 42, 0
9, 498960, Note_on_c, 4, 42, 64
9, 499196, Note_on_c, 4, 42, 0
9, 499200, Note_on_c, 4, 42, 64
9, 499436, Note_on_c, 4, 42, 0
9, 499440, Note_on_c, 4, 42, 64
9, 499676, Note_on_c, 4, 42, 0
9, 499680, Note_on_c, 4, 41, 64
9, 499916, Note_on_c, 4, 41, 0
9, 499920, Note_on_c, 4, 41, 64
9, 500156, Note_on_c, 4, 41, 0
9, 500160, Note_on_c, 4, 41, 64
9, 500396, Note_on_c, 4, 41, 0
9, 500400, Note_on_c, 4, 41, 64
9, 500636, Note_on_c, 4, 41, 0
9, 500640, Note_on_c, 4, 41, 64
9, 500876, Note_on_c, 4, 41, 0
9, 500880, Note_on_c, 4, 41, 64
9, 501116, Note_on_c, 4, 41, 0
9, 501120, Note_on_c, 4, 40, 64
9, 501596, Note_on_c, 4, 40, 0
9, 501840, Note_on_c, 4, 41, 64
9, 502316, Note_on_c, 4, 41, 0
9, 502560, Note_on_c, 4, 43, 64
9, 503036, Note_on_c, 4, 43, 0
9, 503280, Note_on_c, 4, 45, 64
9, 503756, Note_on_c, 4, 45, 0
9, 504000, Note_on_c, 4, 40, 64
9, 504476, Note_on_c, 4, 40, 0
9, 504720, Note_on_c, 4, 41, 64
9, 505196, Note_on_c, 4, 41, 0
9, 505440, Note_on_c, 4, 43, 64
9, 505676, Note_on_c, 4, 43, 0
9, 505680, Note_on_c, 4, 41, 64
9, 505916, Note_on_c, 4, 41, 0
9, 505920, Note_on_c, 4, 43, 64
9, 506156, Note_on_c, 4, 43, 0
9, 506160, Note_on_c, 4, 36, 64
9, 506636, Note_on_c, 4, 36, 0
9, 506640, Note_on_c, 4, 38, 64
9, 506876, Note_on_c, 4, 38, 0
9, 506880, Note_on_c, 4, 40, 64
9, 507116, Note_on_c, 4, 40, 0
9, 507120, Note_on_c, 4, 38, 64
9, 507356, Note_on_c, 4, 38, 0
9, 507360, Note_on_c, 4, 36, 64
9, 507596, Note_on_c, 4, 36, 0
9, 507600, Note_on_c, 4, 43, 64
9, 507836, Note_on_c, 4, 43, 0
9, 507840, Note_on_c, 4, 45, 64
9, 508076, Note_on_c, 4, 45, 0
9, 508080, Note_on_c, 4, 47, 64
9, 508316, Note_on_c, 4, 47, 0
9, 508320, Note_on_c, 4, 48, 64
9, 508796, Note_on_c, 4, 48, 0
9, 509040, Note_on_c, 4, 55, 64
9, 509516, Note_on_c, 4, 55, 0
9, 509760, Note_on_c, 4, 48, 64
9, 510236, Note_on_c, 4, 48, 0
9, 510480, Note_on_c, 4, 43, 64
9, 510956, Note_on_c, 4, 43, 0
9, 511200, Note_on_c, 4, 48, 64
9, 511316, Note_on_c, 4, 48, 0
9, 511320, Note_on_c, 4, 47, 64
9, 511436, Note_on_c, 4, 47, 0
9, 511440, Note_on_c, 4, 48, 64
9, 511556, Note_on_c, 4, 48, 0
9, 511560, Note_on_c, 4, 50, 64
9, 511676, Note_on_c, 4, 50, 0
9, 511680, Note_on_c, 4, 52, 64
9, 511796, Note_on_c, 4, 52, 0
9, 511800, Note_on_c, 4, 53, 64
9, 511916, Note_on_c, 4, 53, 0
9, 511920, Note_on_c, 4, 55, 64
9, 512036, Note_on_c, 4, 55, 0
9, 512040, Note_on_c, 4, 57, 64
9, 512156, Note_on_c, 4, 57, 0
9, 512160, Note_on_c, 4, 55, 64
9, 512276, Note_on_c, 4, 55, 0
9, 512280, Note_on_c, 4, 53, 64
9, 512396, Note_on_c, 4, 53, 0
9, 512400, Note_on_c, 4, 52, 64
9, 512516, Note_on_c, 4, 52, 0
9, 512520, Note_on_c, 4, 50, 64
9, 512636, Note_on_c, 4, 50, 0
9, 512640, Note_on_c, 4, 48, 64
9, 512756, Note_on_c, 4, 48, 0
9, 512760, Note_on_c, 4, 47, 64
9, 512876, Note_on_c, 4, 47, 0
9, 512880, Note_on_c, 4, 48, 64
9, 512996, Note_on_c, 4, 48, 0
9, 513000, Note_on_c, 4, 50, 64
9, 513116, Note_on_c, 4, 50, 0
9, 513120, Note_on_c, 4, 52, 64
9, 513236, Note_on_c, 4, 52, 0
9, 513240, Note_on_c, 4, 48, 64
9, 513356, Note_on_c, 4, 48, 0
9, 513360, Note_on_c, 4, 54, 64
9, 513476, Note_on_c, 4, 54, 0
9, 513480, Note_on_c, 4, 55, 64
9, 513596, Note_on_c, 4, 55, 0
9, 513600, Note_on_c, 4, 54, 64
9, 513716, Note_on_c, 4, 54, 0
9, 513720, Note_on_c, 4, 52, 64
9, 513836, Note_on_c, 4, 52, 0
9, 513840, Note_on_c, 4, 50, 64
9, 513956, Note_on_c, 4, 50, 0
9, 513960, Note_on_c, 4, 48, 64
9, 514076, Note_on_c, 4, 48, 0
9, 514080, Note_on_c, 4, 47, 64
9, 514196, Note_on_c, 4, 47, 0
9, 514200, Note_on_c, 4, 45, 64
9, 514316, Note_on_c, 4, 45, 0
9, 514320, Note_on_c, 4, 47, 64
9, 514436, Note_on_c, 4, 47, 0
9, 514440, Note_on_c, 4, 48, 64
9, 514556, Note_on_c, 4, 48, 0
9, 514560, Note_on_c, 4, 50, 64
9, 514676, Note_on_c, 4, 50, 0
9, 514680, Note_on_c, 4, 47, 64
9, 514796, Note_on_c, 4, 47, 0
9, 514800, Note_on_c, 4, 52, 64
9, 514916, Note_on_c, 4, 52, 0
9, 514920, Note_on_c, 4, 54, 64
9, 515036, Note_on_c, 4, 54, 0
9, 515040, Note_on_c, 4, 52, 64
9, 515156, Note_on_c, 4, 52, 0
9, 515160, Note_on_c, 4, 50, 64
9, 515276, Note_on_c, 4, 50, 0
9, 515280, Note_on_c, 4, 48, 64
9, 515396, Note_on_c, 4, 48, 0
9, 515400, Note_on_c, 4, 47, 64
9, 515516, Note_on_c, 4, 47, 0
9, 515520, Note_on_c, 4, 45, 64
9, 515636, Note_on_c, 4, 45, 0
9, 515640, Note_on_c, 4, 43, 64
9, 515756, Note_on_c, 4, 43, 0
9, 515760, Note_on_c, 4, 45, 64
9, 515876, Note_on_c, 4, 45, 0
9, 515880, Note_on_c, 4, 47, 64
9, 515996, Note_on_c, 4, 47, 0
9, 516000, Note_on_c, 4, 48, 64
9, 516116, Note_on_c, 4, 48, 0
9, 516120, Note_on_c, 4, 45, 64
9, 516236, Note_on_c, 4, 45, 0
9, 516240, Note_on_c, 4, 50, 64
9, 516356, Note_on_c, 4, 50, 0
9, 516360, Note_on_c, 4, 52, 64
9, 516476, Note_on_c, 4, 52, 0
9, 516480, Note_on_c, 4, 50, 64
9, 516596, Note_on_c, 4, 50, 0
9, 516600, Note_on_c, 4, 48, 64
9, 516716, Note_on_c, 4, 48, 0
9, 516720, Note_on_c, 4, 47, 64
9, 516836, Note_on_c, 4, 47, 0
9, 516840, Note_on_c, 4, 45, 64
9, 516956, Note_on_c, 4, 45, 0
9, 516960, Note_on_c, 4, 43, 64
9, 517436, Note_on_c, 4, 43, 0
9, 517680, Note_on_c, 4, 38, 64
9, 518156, Note_on_c, 4, 38, 0
9, 518400, Note_on_c, 4, 43, 64
9, 518876, Note_on_c, 4, 43, 0
9, 519120, Note_on_c, 4, 50, 64
9, 519596, Note_on_c, 4, 50, 0
9, 519840, Note_on_c, 4, 55, 64
9, 520076, Note_on_c, 4, 55, 0
9, 520080, Note_on_c, 4, 59, 64
9, 520316, Note_on_c, 4, 59, 0
9, 520320, Note_on_c, 4, 62, 64
9, 520556, Note_on_c, 4, 62, 0
9, 520560, Note_on_c, 4, 50, 64
9, 520796, Note_on_c, 4, 50, 0
9, 520800, Note_on_c, 4, 57, 64
9, 521036, Note_on_c, 4, 57, 0
9, 521040, Note_on_c, 4, 62, 64
9, 521276, Note_on_c, 4, 62, 0
9, 521280, Note_on_c, 4, 43, 64
9, 521396, Note_on_c, 4, 43, 0
9, 521400, Note_on_c, 4, 42, 64
9, 521516, Note_on_c, 4, 42, 0
9, 521520, Note_on_c, 4, 43, 64
9, 521636, Note_on_c, 4, 43, 0
9, 521640, Note_on_c, 4, 45, 64
9, 521756, Note_on_c, 4, 45, 0
9, 521760, Note_on_c, 4, 47, 64
9, 521876, Note_on_c, 4, 47, 0
9, 521880, Note_on_c, 4, 48, 64
9, 521996, Note_on_c, 4, 48, 0
9, 522000, Note_on_c, 4, 50, 64
9, 522116, Note_on_c, 4, 50, 0
9, 522120, Note_on_c, 4, 52, 64
9, 522236, Note_on_c, 4, 52, 0
9, 522240, Note_on_c, 4, 50, 64
9, 522356, Note_on_c, 4, 50, 0
9, 522360, Note_on_c, 4, 48, 64
9, 522476, Note_on_c, 4, 48, 0
9, 522480, Note_on_c, 4, 47, 64
9, 522596, Note_on_c, 4, 47, 0
9, 522600, Note_on_c, 4, 45, 64
9, 522716, Note_on_c, 4, 45, 0
9, 522720, Note_on_c, 4, 43, 64
9, 522836, Note_on_c, 4, 43, 0
9, 522840, Note_on_c, 4, 42, 64
9, 522956, Note_on_c, 4, 42, 0
9, 522960, Note_on_c, 4, 43, 64
9, 523076, Note_on_c, 4, 43, 0
9, 523080, Note_on_c, 4, 45, 64
9, 523196, Note_on_c, 4, 45, 0
9, 523200, Note_on_c, 4, 47, 64
9, 523316, Note_on_c, 4, 47, 0
9, 523320, Note_on_c, 4, 43, 64
9, 523436, Note_on_c, 4, 43, 0
9, 523440, Note_on_c, 4, 48, 64
9, 523556, Note_on_c, 4, 48, 0
9, 523560, Note_on_c, 4, 50, 64
9, 523676, Note_on_c, 4, 50, 0
9, 523680, Note_on_c, 4, 48, 64
9, 523796, Note_on_c, 4, 48, 0
9, 523800, Note_on_c, 4, 47, 64
9, 523916, Note_on_c, 4, 47, 0
9, 523920, Note_on_c, 4, 45, 64
9, 524036, Note_on_c, 4, 45, 0
9, 524040, Note_on_c, 4, 43, 64
9, 524156, Note_on_c, 4, 43, 0
9, 524160, Note_on_c, 4, 42, 64
9, 524276, Note_on_c, 4, 42, 0
9, 524280, Note_on_c, 4, 40, 64
9, 524396, Note_on_c, 4, 40, 0
9, 524400, Note_on_c, 4, 42, 64
9, 524516, Note_on_c, 4, 42, 0
9, 524520, Note_on_c, 4, 43, 64
9, 524636, Note_on_c, 4, 43, 0
9, 524640, Note_on_c, 4, 45, 64
9, 524756, Note_on_c, 4, 45, 0
9, 524760, Note_on_c, 4, 42, 64
9, 524876, Note_on_c, 4, 42, 0
9, 524880, Note_on_c, 4, 47, 64
9, 524996, Note_on_c, 4, 47, 0
9, 525000, Note_on_c, 4, 48, 64
9, 525116, Note_on_c, 4, 48, 0
9, 525120, Note_on_c, 4, 47, 64
9, 525236, Note_on_c, 4, 47, 0
9, 525240, Note_on_c, 4, 45, 64
9, 525356, Note_on_c, 4, 45, 0
9, 525360, Note_on_c, 4, 43, 64
9, 525476, Note_on_c, 4, 43, 0
9, 525480, Note_on_c, 4, 42, 64
9, 525596, Note_on_c, 4, 42, 0
9, 525600, Note_on_c, 4, 40, 64
9, 525716, Note_on_c, 4, 40, 0
9, 525720, Note_on_c, 4, 38, 64
9, 525836, Note_on_c, 4, 38, 0
9, 525840, Note_on_c, 4, 40, 64
9, 525956, Note_on_c, 4, 40, 0
9, 525960, Note_on_c, 4, 42, 64
9, 526076, Note_on_c, 4, 42, 0
9, 526080, Note_on_c, 4, 43, 64
9, 526196, Note_on_c, 4, 43, 0
9, 526200, Note_on_c, 4, 40, 64
9, 526316, Note_on_c, 4, 40, 0
9, 526320, Note_on_c, 4, 45, 64
9, 526436, Note_on_c, 4, 45, 0
9, 526440, Note_on_c, 4, 47, 64
9, 526556, Note_on_c, 4, 47, 0
9, 526560, Note_on_c, 4, 45, 64
9, 526676, Note_on_c, 4, 45, 0
9, 526680, Note_on_c, 4, 43, 64
9, 526796, Note_on_c, 4, 43, 0
9, 526800, Note_on_c, 4, 42, 64
9, 526916, Note_on_c, 4, 42, 0
9, 526920, Note_on_c, 4, 40, 64
9, 527036, Note_on_c, 4, 40, 0
9, 527040, Note_on_c, 4, 38, 64
9, 527276, Note_on_c, 4, 38, 0
9, 527280, Note_on_c, 4, 38, 64
9, 527516, Note_on_c, 4, 38, 0
9, 527520, Note_on_c, 4, 38, 64
9, 527756, Note_on_c, 4, 38, 0
9, 527760, Note_on_c, 4, 38, 64
9, 527996, Note_on_c, 4, 38, 0
9, 528000, Note_on_c, 4, 38, 64
9, 528236, Note_on_c, 4, 38, 0
9, 528240, Note_on_c, 4, 38, 64
9, 528476, Note_on_c, 4, 38, 0
9, 528480, Note_on_c, 4, 38, 64
9, 528716, Note_on_c, 4, 38, 0
9, 528720, Note_on_c, 4, 38, 64
9, 528956, Note_on_c, 4, 38, 0
9, 528960, Note_on_c, 4, 38, 64
9, 529196, Note_on_c, 4, 38, 0
9, 529200, Note_on_c, 4, 38, 64
9, 529436, Note_on_c, 4, 38, 0
9, 529440, Note_on_c, 4, 38, 64
9, 529676, Note_on_c, 4, 38, 0
9, 529680, Note_on_c, 4, 38, 64
9, 529916, Note_on_c, 4, 38, 0
9, 529920, Note_on_c, 4, 38, 64
9, 530156, Note_on_c, 4, 38, 0
9, 530160, Note_on_c, 4, 38, 64
9, 530396, Note_on_c, 4, 38, 0
9, 530400, Note_on_c, 4, 38, 64
9, 530636, Note_on_c, 4, 38, 0
9, 530640, Note_on_c, 4, 38, 64
9, 530876, Note_on_c, 4, 38, 0
9, 530880, Note_on_c, 4, 38, 64
9, 531116, Note_on_c, 4, 38, 0
9, 531120, Note_on_c, 4, 38, 64
9, 531356, Note_on_c, 4, 38, 0
9, 531360, Note_on_c, 4, 38, 64
9, 531596, Note_on_c, 4, 38, 0
9, 531600, Note_on_c, 4, 38, 64
9, 531836, Note_on_c, 4, 38, 0
9, 531840, Note_on_c, 4, 38, 64
9, 532076, Note_on_c, 4, 38, 0
9, 532080, Note_on_c, 4, 38, 64
9, 532316, Note_on_c, 4, 38, 0
9, 532320, Note_on_c, 4, 38, 64
9, 532556, Note_on_c, 4, 38, 0
9, 532560, Note_on_c, 4, 38, 64
9, 532796, Note_on_c, 4, 38, 0
9, 532800, Note_on_c, 4, 38, 64
9, 533036, Note_on_c, 4, 38, 0
9, 533040, Note_on_c, 4, 42, 64
9, 533276, Note_on_c, 4, 42, 0
9, 533280, Note_on_c, 4, 45, 64
9, 533516, Note_on_c, 4, 45, 0
9, 533520, Note_on_c, 4, 42, 64
9, 533756, Note_on_c, 4, 42, 0
9, 533760, Note_on_c, 4, 45, 64
9, 533996, Note_on_c, 4, 45, 0
9, 534000, Note_on_c, 4, 50, 64
9, 534236, Note_on_c, 4, 50, 0
9, 534240, Note_on_c, 4, 43, 64
9, 534476, Note_on_c, 4, 43, 0
9, 534480, Note_on_c, 4, 47, 64
9, 534716, Note_on_c, 4, 47, 0
9, 534720, Note_on_c, 4, 50, 64
9, 534956, Note_on_c, 4, 50, 0
9, 534960, Note_on_c, 4, 47, 64
9, 535196, Note_on_c, 4, 47, 0
9, 535200, Note_on_c, 4, 50, 64
9, 535436, Note_on_c, 4, 50, 0
9, 535440, Note_on_c, 4, 55, 64
9, 535676, Note_on_c, 4, 55, 0
9, 535680, Note_on_c, 4, 36, 64
9, 536156, Note_on_c, 4, 36, 0
9, 537120, Note_on_c, 4, 48, 64
9, 537596, Note_on_c, 4, 48, 0
9, 538560, Note_on_c, 4, 47, 64
9, 538796, Note_on_c, 4, 47, 0
9, 538800, Note_on_c, 4, 45, 64
9, 539036, Note_on_c, 4, 45, 0
9, 539040, Note_on_c, 4, 43, 64
9, 539276, Note_on_c, 4, 43, 0
9, 539280, Note_on_c, 4, 50, 64
9, 539756, Note_on_c, 4, 50, 0
9, 539760, Note_on_c, 4, 38, 64
9, 539996, Note_on_c, 4, 38, 0
9, 540000, Note_on_c, 4, 43, 64
9, 541436, Note_on_c, 4, 43, 0
9, 541436, End_track
10, 0, Start_track
10, 0, Title_t, "Violoncello III"
10, 0, Program_c, 5, 42
10, 0, Control_c, 5, 10, 88
10, 1680, Note_on_c, 5, 43, 64
10, 1916, Note_on_c, 5, 43, 0
10, 1920, Note_on_c, 5, 43, 64
10, 2156, Note_on_c, 5, 43, 0
10, 2160, Note_on_c, 5, 55, 64
10, 2396, Note_on_c, 5, 55, 0
10, 2400, Note_on_c, 5, 55, 64
10, 2636, Note_on_c, 5, 55, 0
10, 2640, Note_on_c, 5, 43, 64
10, 2876, Note_on_c, 5, 43, 0
10, 2880, Note_on_c, 5, 43, 64
10, 3116, Note_on_c, 5, 43, 0
10, 3120, Note_on_c, 5, 55, 64
10, 3356, Note_on_c, 5, 55, 0
10, 3360, Note_on_c, 5, 55, 64
10, 3596, Note_on_c, 5, 55, 0
10, 3600, Note_on_c, 5, 43, 64
10, 3836, Note_on_c, 5, 43, 0
10, 3840, Note_on_c, 5, 43, 64
10, 4076, Note_on_c, 5, 43, 0
10, 4080, Note_on_c, 5, 55, 64
10, 4196, Note_on_c, 5, 55, 0
10, 4200, Note_on_c, 5, 54, 64
10, 4316, Note_on_c, 5, 54, 0
10, 4320, Note_on_c, 5, 52, 64
10, 4556, Note_on_c, 5, 52, 0
10, 4560, Note_on_c, 5, 57, 64
10, 4796, Note_on_c, 5, 57, 0
10, 4800, Note_on_c, 5, 50, 64
10, 5036, Note_on_c, 5, 50, 0
10, 5040, Note_on_c, 5, 62, 64
10, 5156, Note_on_c, 5, 62, 0
10, 5160, Note_on_c, 5, 61, 64
10, 5276, Note_on_c, 5, 61, 0
10, 5280, Note_on_c, 5, 62, 64
10, 5516, Note_on_c, 5, 62, 0
10, 5520, Note_on_c, 5, 50, 64
10, 5756, Note_on_c, 5, 50, 0
10, 5760, Note_on_c, 5, 50, 64
10, 5996, Note_on_c, 5, 50, 0
10, 6000, Note_on_c, 5, 62, 64
10, 6116, Note_on_c, 5, 62, 0
10, 6120, Note_on_c, 5, 61, 64
10, 6236, Note_on_c, 5, 61, 0
10, 6240, Note_on_c, 5, 62, 64
10, 6476, Note_on_c, 5, 62, 0
10, 6480, Note_on_c, 5, 50, 64
10, 6716, Note_on_c, 5, 50, 0
10, 6720, Note_on_c, 5, 50, 64
10, 6956, Note_on_c, 5, 50, 0
10, 6960, Note_on_c, 5, 62, 64
10, 7076, Note_on_c, 5, 62, 0
10, 7080, Note_on_c, 5, 61, 64
10, 7196, Note_on_c, 5, 61, 0
10, 7200, Note_on_c, 5, 62, 64
10, 7436, Note_on_c, 5, 62, 0
10, 7440, Note_on_c, 5, 50, 64
10, 7676, Note_on_c, 5, 50, 0
10, 7680, Note_on_c, 5, 55, 64
10, 7916, Note_on_c, 5, 55, 0
10, 7920, Note_on_c, 5, 52, 64
10, 8156, Note_on_c, 5, 52, 0
10, 8160, Note_on_c, 5, 48, 64
10, 8396, Note_on_c, 5, 48, 0
10, 8400, Note_on_c, 5, 50, 64
10, 8636, Note_on_c, 5, 50, 0
10, 8640, Note_on_c, 5, 52, 64
10, 8876, Note_on_c, 5, 52, 0
10, 8880, Note_on_c, 5, 50, 64
10, 8996, Note_on_c, 5, 50, 0
10, 9000, Note_on_c, 5, 48, 64
10, 9116, Note_on_c, 5, 48, 0
10, 9120, Note_on_c, 5, 47, 64
10, 9356, Note_on_c, 5, 47, 0
10, 9360, Note_on_c, 5, 45, 64
10, 9476, Note_on_c, 5, 45, 0
10, 9480, Note_on_c, 5, 43, 64
10, 9596, Note_on_c, 5, 43, 0
10, 9600, Note_on_c, 5, 48, 64
10, 9836, Note_on_c, 5, 48, 0
10, 9840, Note_on_c, 5, 47, 64
10, 9956, Note_on_c, 5, 47, 0
10, 9960, Note_on_c, 5, 45, 64
10, 10076, Note_on_c, 5, 45, 0
10, 10080, Note_on_c, 5, 43, 64
10, 10316, Note_on_c, 5, 43, 0
10, 10320, Note_on_c, 5, 55, 64
10, 10436, Note_on_c, 5, 55, 0
10, 10440, Note_on_c, 5, 54, 64
10, 10556, Note_on_c, 5, 54, 0
10, 10560, Note_on_c, 5, 52, 64
10, 10796, Note_on_c, 5, 52, 0
10, 10800, Note_on_c, 5, 50, 64
10, 10916, Note_on_c, 5, 50, 0
10, 10920, Note_on_c, 5, 48, 64
10, 11036, Note_on_c, 5, 48, 0
10, 11040, Note_on_c, 5, 47, 64
10, 11276, Note_on_c, 5, 47, 0
10, 11280, Note_on_c, 5, 49, 64
10, 11516, Note_on_c, 5, 49, 0
10, 11520, Note_on_c, 5, 50, 64
10, 11756, Note_on_c, 5, 50, 0
10, 11760, Note_on_c, 5, 38, 64
10, 11996, Note_on_c, 5, 38, 0
10, 12000, Note_on_c, 5, 38, 64
10, 12236, Note_on_c, 5, 38, 0
10, 12240, Note_on_c, 5, 50, 64
10, 12356, Note_on_c, 5, 50, 0
10, 12360, Note_on_c, 5, 52, 64
10, 12476, Note_on_c, 5, 52, 0
10, 12480, Note_on_c, 5, 54, 64
10, 12716, Note_on_c, 5, 54, 0
10, 12720, Note_on_c, 5, 55, 64
10, 12956, Note_on_c, 5, 55, 0
10, 12960, Note_on_c, 5, 57, 64
10, 13196, Note_on_c, 5, 57, 0
10, 13200, Note_on_c, 5, 54, 64
10, 13436, Note_on_c, 5, 54, 0
10, 13440, Note_on_c, 5, 55, 64
10, 13676, Note_on_c, 5, 55, 0
10, 13680, Note_on_c, 5, 60, 64
10, 13916, Note_on_c, 5, 60, 0
10, 13920, Note_on_c, 5, 62, 64
10, 14156, Note_on_c, 5, 62, 0
10, 14160, Note_on_c, 5, 50, 64
10, 14396, Note_on_c, 5, 50, 0
10, 14400, Note_on_c, 5, 55, 64
10, 14636, Note_on_c, 5, 55, 0
10, 14640, Note_on_c, 5, 54, 64
10, 14756, Note_on_c, 5, 54, 0
10, 14760, Note_on_c, 5, 52, 64
10, 14876, Note_on_c, 5, 52, 0
10, 14880, Note_on_c, 5, 50, 64
10, 14996, Note_on_c, 5, 50, 0
10, 15000, Note_on_c, 5, 48, 64
10, 15116, Note_on_c, 5, 48, 0
10, 15120, Note_on_c, 5, 47, 64
10, 15236, Note_on_c, 5, 47, 0
10, 15240, Note_on_c, 5, 45, 64
10, 15356, Note_on_c, 5, 45, 0
10, 15360, Note_on_c, 5, 47, 64
10, 15596, Note_on_c, 5, 47, 0
10, 15600, Note_on_c, 5, 45, 64
10, 15716, Note_on_c, 5, 45, 0
10, 15720, Note_on_c, 5, 43, 64
10, 15836, Note_on_c, 5, 43, 0
10, 15840, Note_on_c, 5, 50, 64
10, 16076, Note_on_c, 5, 50, 0
10, 16080, Note_on_c, 5, 38, 64
10, 16316, Note_on_c, 5, 38, 0
10, 16320, Note_on_c, 5, 43, 64
10, 16796, Note_on_c, 5, 43, 0
10, 17040, Note_on_c, 5, 50, 64
10, 17276, Note_on_c, 5, 50, 0
10, 17280, Note_on_c, 5, 43, 64
10, 17756, Note_on_c, 5, 43, 0
10, 18960, Note_on_c, 5, 50, 64
10, 19076, Note_on_c, 5, 50, 0
10, 19080, Note_on_c, 5, 48, 64
10, 19196, Note_on_c, 5, 48, 0
10, 19200, Note_on_c, 5, 55, 64
10, 19436, Note_on_c, 5, 55, 0
10, 19440, Note_on_c, 5, 43, 64
10, 19556, Note_on_c, 5, 43, 0
10, 19560, Note_on_c, 5, 45, 64
10, 19676, Note_on_c, 5, 45, 0
10, 19680, Note_on_c, 5, 47, 64
10, 19916, Note_on_c, 5, 47, 0
10, 19920, Note_on_c, 5, 49, 64
10, 20156, Note_on_c, 5, 49, 0
10, 20160, Note_on_c, 5, 50, 64
10, 20636, Note_on_c, 5, 50, 0
10, 20880, Note_on_c, 5, 57, 64
10, 21116, Note_on_c, 5, 57, 0
10, 21120, Note_on_c, 5, 62, 64
10, 21596, Note_on_c, 5, 62, 0
10, 21840, Note_on_c, 5, 57, 64
10, 22076, Note_on_c, 5, 57, 0
10, 22080, Note_on_c, 5, 50, 64
10, 22556, Note_on_c, 5, 50, 0
10, 22800, Note_on_c, 5, 45, 64
10, 23036, Note_on_c, 5, 45, 0
10, 23040, Note_on_c, 5, 38, 64
10, 23276, Note_on_c, 5, 38, 0
10, 23280, Note_on_c, 5, 47, 64
10, 23516, Note_on_c, 5, 47, 0
10, 23520, Note_on_c, 5, 43, 64
10, 23756, Note_on_c, 5, 43, 0
10, 23760, Note_on_c, 5, 45, 64
10, 23996, Note_on_c, 5, 45, 0
10, 24000, Note_on_c, 5, 47, 64
10, 24236, Note_on_c, 5, 47, 0
10, 24240, Note_on_c, 5, 45, 64
10, 24356, Note_on_c, 5, 45, 0
10, 24360, Note_on_c, 5, 43, 64
10, 24476, Note_on_c, 5, 43, 0
10, 24480, Note_on_c, 5, 42, 64
10, 24716, Note_on_c, 5, 42, 0
10, 24720, Note_on_c, 5, 40, 64
10, 24836, Note_on_c, 5, 40, 0
10, 24840, Note_on_c, 5, 38, 64
10, 24956, Note_on_c, 5, 38, 0
10, 24960, Note_on_c, 5, 43, 64
10, 25196, Note_on_c, 5, 43, 0
10, 25200, Note_on_c, 5, 42, 64
10, 25316, Note_on_c, 5, 42, 0
10, 25320, Note_on_c, 5, 40, 64
10, 25436, Note_on_c, 5, 40, 0
10, 25440, Note_on_c, 5, 38, 64
10, 25676, Note_on_c, 5, 38, 0
10, 25680, Note_on_c, 5, 62, 64
10, 25796, Note_on_c, 5, 62, 0
10, 25800, Note_on_c, 5, 61, 64
10, 25916, Note_on_c, 5, 61, 0
10, 25920, Note_on_c, 5, 59, 64
10, 26156, Note_on_c, 5, 59, 0
10, 26160, Note_on_c, 5, 57, 64
10, 26276, Note_on_c, 5, 57, 0
10, 26280, Note_on_c, 5, 55, 64
10, 26396, Note_on_c, 5, 55, 0
10, 26400, Note_on_c, 5, 54, 64
10, 26636, Note_on_c, 5, 54, 0
10, 26640, Note_on_c, 5, 56, 64
10, 26876, Note_on_c, 5, 56, 0
10, 26880, Note_on_c, 5, 57, 64
10, 27116, Note_on_c, 5, 57, 0
10, 27120, Note_on_c, 5, 45, 64
10, 27356, Note_on_c, 5, 45, 0
10, 27360, Note_on_c, 5, 45, 64
10, 27596, Note_on_c, 5, 45, 0
10, 27600, Note_on_c, 5, 57, 64
10, 27716, Note_on_c, 5, 57, 0
10, 27720, Note_on_c, 5, 59, 64
10, 27836, Note_on_c, 5, 59, 0
10, 27840, Note_on_c, 5, 61, 64
10, 28076, Note_on_c, 5, 61, 0
10, 28080, Note_on_c, 5, 62, 64
10, 28316, Note_on_c, 5, 62, 0
10, 28320, Note_on_c, 5, 64, 64
10, 28556, Note_on_c, 5, 64, 0
10, 28560, Note_on_c, 5, 61, 64
10, 28796, Note_on_c, 5, 61, 0
10, 28800, Note_on_c, 5, 62, 64
10, 29036, Note_on_c, 5, 62, 0
10, 29040, Note_on_c, 5, 55, 64
10, 29276, Note_on_c, 5, 55, 0
10, 29280, Note_on_c, 5, 57, 64
10, 29516, Note_on_c, 5, 57, 0
10, 29520, Note_on_c, 5, 45, 64
10, 29756, Note_on_c, 5, 45, 0
10, 29760, Note_on_c, 5, 50, 64
10, 29996, Note_on_c, 5, 50, 0
10, 30000, Note_on_c, 5, 50, 64
10, 30116, Note_on_c, 5, 50, 0
10, 30120, Note_on_c, 5, 61, 64
10, 30236, Note_on_c, 5, 61, 0
10, 30240, Note_on_c, 5, 59, 64
10, 30356, Note_on_c, 5, 59, 0
10, 30360, Note_on_c, 5, 61, 64
10, 30476, Note_on_c, 5, 61, 0
10, 30480, Note_on_c, 5, 59, 64
10, 30596, Note_on_c, 5, 59, 0
10, 30600, Note_on_c, 5, 57, 64
10, 30716, Note_on_c, 5, 57, 0
10, 30720, Note_on_c, 5, 55, 64
10, 31196, Note_on_c, 5, 55, 0
10, 32400, Note_on_c, 5, 59, 64
10, 32516, Note_on_c, 5, 59, 0
10, 32520, Note_on_c, 5, 57, 64
10, 32636, Note_on_c, 5, 57, 0
10, 32640, Note_on_c, 5, 55, 64
10, 32876, Note_on_c, 5, 55, 0
10, 32880, Note_on_c, 5, 50, 64
10, 33116, Note_on_c, 5, 50, 0
10, 33120, Note_on_c, 5, 47, 64
10, 33356, Note_on_c, 5, 47, 0
10, 33360, Note_on_c, 5, 49, 64
10, 33596, Note_on_c, 5, 49, 0
10, 33600, Note_on_c, 5, 50, 64
10, 34076, Note_on_c, 5, 50, 0
10, 34320, Note_on_c, 5, 57, 64
10, 34556, Note_on_c, 5, 57, 0
10, 34560, Note_on_c, 5, 62, 64
10, 35036, Note_on_c, 5, 62, 0
10, 35280, Note_on_c, 5, 57, 64
10, 35516, Note_on_c, 5, 57, 0
10, 35520, Note_on_c, 5, 50, 64
10, 35996, Note_on_c, 5, 50, 0
10, 36240, Note_on_c, 5, 45, 64
10, 36476, Note_on_c, 5, 45, 0
10, 36480, Note_on_c, 5, 38, 64
10, 36716, Note_on_c, 5, 38, 0
10, 36720, Note_on_c, 5, 50, 64
10, 36956, Note_on_c, 5, 50, 0
10, 36960, Note_on_c, 5, 50, 64
10, 37196, Note_on_c, 5, 50, 0
10, 37200, Note_on_c, 5, 38, 64
10, 37436, Note_on_c, 5, 38, 0
10, 37440, Note_on_c, 5, 38, 64
10, 37676, Note_on_c, 5, 38, 0
10, 37680, Note_on_c, 5, 50, 64
10, 37916, Note_on_c, 5, 50, 0
10, 37920, Note_on_c, 5, 50, 64
10, 38156, Note_on_c, 5, 50, 0
10, 38160, Note_on_c, 5, 38, 64
10, 38396, Note_on_c, 5, 38, 0
10, 38400, Note_on_c, 5, 38, 64
10, 38636, Note_on_c, 5, 38, 0
10, 38640, Note_on_c, 5, 50, 64
10, 38756, Note_on_c, 5, 50, 0
10, 38760, Note_on_c, 5, 49, 64
10, 38876, Note_on_c, 5, 49, 0
10, 38880, Note_on_c, 5, 47, 64
10, 39116, Note_on_c, 5, 47, 0
10, 39120, Note_on_c, 5, 52, 64
10, 39356, Note_on_c, 5, 52, 0
10, 39360, Note_on_c, 5, 45, 64
10, 39836, Note_on_c, 5, 45, 0
10, 40080, Note_on_c, 5, 45, 64
10, 40316, Note_on_c, 5, 45, 0
10, 40320, Note_on_c, 5, 52, 64
10, 40796, Note_on_c, 5, 52, 0
10, 41040, Note_on_c, 5, 52, 64
10, 41276, Note_on_c, 5, 52, 0
10, 41280, Note_on_c, 5, 47, 64
10, 41756, Note_on_c, 5, 47, 0
10, 42000, Note_on_c, 5, 47, 64
10, 42236, Note_on_c, 5, 47, 0
10, 42240, Note_on_c, 5, 54, 64
10, 42476, Note_on_c, 5, 54, 0
10, 42480, Note_on_c, 5, 59, 64
10, 42596, Note_on_c, 5, 59, 0
10, 42600, Note_on_c, 5, 57, 64
10, 42716, Note_on_c, 5, 57, 0
10, 42720, Note_on_c, 5, 59, 64
10, 42956, Note_on_c, 5, 59, 0
10, 42960, Note_on_c, 5, 52, 64
10, 43076, Note_on_c, 5, 52, 0
10, 43080, Note_on_c, 5, 50, 64
10, 43196, Note_on_c, 5, 50, 0
10, 43200, Note_on_c, 5, 52, 64
10, 43436, Note_on_c, 5, 52, 0
10, 43440, Note_on_c, 5, 57, 64
10, 43556, Note_on_c, 5, 57, 0
10, 43560, Note_on_c, 5, 55, 64
10, 43676, Note_on_c, 5, 55, 0
10, 43680, Note_on_c, 5, 57, 64
10, 43916, Note_on_c, 5, 57, 0
10, 43920, Note_on_c, 5, 50, 64
10, 44036, Note_on_c, 5, 50, 0
10, 44040, Note_on_c, 5, 49, 64
10, 44156, Note_on_c, 5, 49, 0
10, 44160, Note_on_c, 5, 50, 64
10, 44396, Note_on_c, 5, 50, 0
10, 44400, Note_on_c, 5, 55, 64
10, 44636, Note_on_c, 5, 55, 0
10, 44640, Note_on_c, 5, 57, 64
10, 44876, Note_on_c, 5, 57, 0
10, 44880, Note_on_c, 5, 45, 64
10, 45116, Note_on_c, 5, 45, 0
10, 45120, Note_on_c, 5, 50, 64
10, 45356, Note_on_c, 5, 50, 0
10, 45360, Note_on_c, 5, 62, 64
10, 45476, Note_on_c, 5, 62, 0
10, 45480, Note_on_c, 5, 61, 64
10, 45596, Note_on_c, 5, 61, 0
10, 45600, Note_on_c, 5, 62, 64
10, 45836, Note_on_c, 5, 62, 0
10, 46320, Note_on_c, 5, 62, 64
10, 46436, Note_on_c, 5, 62, 0
10, 46440, Note_on_c, 5, 61, 64
10, 46556, Note_on_c, 5, 61, 0
10, 46560, Note_on_c, 5, 62, 64
10, 46796, Note_on_c, 5, 62, 0
10, 47280, Note_on_c, 5, 50, 64
10, 47396, Note_on_c, 5, 50, 0
10, 47400, Note_on_c, 5, 49, 64
10, 47516, Note_on_c, 5, 49, 0
10, 47520, Note_on_c, 5, 50, 64
10, 47756, Note_on_c, 5, 50, 0
10, 48240, Note_on_c, 5, 50, 64
10, 48356, Note_on_c, 5, 50, 0
10, 48360, Note_on_c, 5, 49, 64
10, 48476, Note_on_c, 5, 49, 0
10, 48480, Note_on_c, 5, 50, 64
10, 48716, Note_on_c, 5, 50, 0
10, 49200, Note_on_c, 5, 50, 64
10, 49316, Note_on_c, 5, 50, 0
10, 49320, Note_on_c, 5, 49, 64
10, 49436, Note_on_c, 5, 49, 0
10, 49440, Note_on_c, 5, 50, 64
10, 49676, Note_on_c, 5, 50, 0
10, 49680, Note_on_c, 5, 50, 64
10, 49916, Note_on_c, 5, 50, 0
10, 49920, Note_on_c, 5, 43, 64
10, 50156, Note_on_c, 5, 43, 0
10, 50160, Note_on_c, 5, 55, 64
10, 50276, Note_on_c, 5, 55, 0
10, 50280, Note_on_c, 5, 54, 64
10, 50396, Note_on_c, 5, 54, 0
10, 50400, Note_on_c, 5, 55, 64
10, 50636, Note_on_c, 5, 55, 0
10, 51120, Note_on_c, 5, 55, 64
10, 51236, Note_on_c, 5, 55, 0
10, 51240, Note_on_c, 5, 54, 64
10, 51356, Note_on_c, 5, 54, 0
10, 51360, Note_on_c, 5, 55, 64
10, 51596, Note_on_c, 5, 55, 0
10, 52080, Note_on_c, 5, 43, 64
10, 52196, Note_on_c, 5, 43, 0
10, 52200, Note_on_c, 5, 42, 64
10, 52316, Note_on_c, 5, 42, 0
10, 52320, Note_on_c, 5, 43, 64
10, 52556, Note_on_c, 5, 43, 0
10, 53040, Note_on_c, 5, 43, 64
10, 53156, Note_on_c, 5, 43, 0
10, 53160, Note_on_c, 5, 42, 64
10, 53276, Note_on_c, 5, 42, 0
10, 53280, Note_on_c, 5, 43, 64
10, 53516, Note_on_c, 5, 43, 0
10, 54000, Note_on_c, 5, 55, 64
10, 54116, Note_on_c, 5, 55, 0
10, 54120, Note_on_c, 5, 53, 64
10, 54236, Note_on_c, 5, 53, 0
10, 54240, Note_on_c, 5, 55, 64
10, 54476, Note_on_c, 5, 55, 0
10, 54480, Note_on_c, 5, 43, 64
10, 54716, Note_on_c, 5, 43, 0
10, 54720, Note_on_c, 5, 48, 64
10, 55196, Note_on_c, 5, 48, 0
10, 55320, Note_on_c, 5, 47, 64
10, 55436, Note_on_c, 5, 47, 0
10, 55440, Note_on_c, 5, 48, 64
10, 55556, Note_on_c, 5, 48, 0
10, 55560, Note_on_c, 5, 50, 64
10, 55676, Note_on_c, 5, 50, 0
10, 55680, Note_on_c, 5, 52, 64
10, 55916, Note_on_c, 5, 52, 0
10, 55920, Note_on_c, 5, 57, 64
10, 56036, Note_on_c, 5, 57, 0
10, 56040, Note_on_c, 5, 55, 64
10, 56156, Note_on_c, 5, 55, 0
10, 56160, Note_on_c, 5, 57, 64
10, 56396, Note_on_c, 5, 57, 0
10, 56400, Note_on_c, 5, 50, 64
10, 56516, Note_on_c, 5, 50, 0
10, 56520, Note_on_c, 5, 48, 64
10, 56636, Note_on_c, 5, 48, 0
10, 56640, Note_on_c, 5, 50, 64
10, 56876, Note_on_c, 5, 50, 0
10, 56880, Note_on_c, 5, 55, 64
10, 56996, Note_on_c, 5, 55, 0
10, 57000, Note_on_c, 5, 53, 64
10, 57116, Note_on_c, 5, 53, 0
10, 57120, Note_on_c, 5, 55, 64
10, 57356, Note_on_c, 5, 55, 0
10, 57360, Note_on_c, 5, 48, 64
10, 57476, Note_on_c, 5, 48, 0
10, 57480, Note_on_c, 5, 47, 64
10, 57596, Note_on_c, 5, 47, 0
10, 57600, Note_on_c, 5, 48, 64
10, 57836, Note_on_c, 5, 48, 0
10, 57840, Note_on_c, 5, 53, 64
10, 57956, Note_on_c, 5, 53, 0
10, 57960, Note_on_c, 5, 52, 64
10, 58076, Note_on_c, 5, 52, 0
10, 58080, Note_on_c, 5, 53, 64
10, 58676, Note_on_c, 5, 53, 0
10, 58680, Note_on_c, 5, 55, 64
10, 58796, Note_on_c, 5, 55, 0
10, 58800, Note_on_c, 5, 53, 64
10, 58916, Note_on_c, 5, 53, 0
10, 58920, Note_on_c, 5, 52, 64
10, 59036, Note_on_c, 5, 52, 0
10, 59040, Note_on_c, 5, 50, 64
10, 59156, Note_on_c, 5, 50, 0
10, 59160, Note_on_c, 5, 48, 64
10, 59276, Note_on_c, 5, 48, 0
10, 59280, Note_on_c, 5, 47, 64
10, 59396, Note_on_c, 5, 47, 0
10, 59400, Note_on_c, 5, 45, 64
10, 59516, Note_on_c, 5, 45, 0
10, 59520, Note_on_c, 5, 43, 64
10, 59756, Note_on_c, 5, 43, 0
10, 59760, Note_on_c, 5, 48, 64
10, 59996, Note_on_c, 5, 48, 0
10, 60000, Note_on_c, 5, 55, 64
10, 60236, Note_on_c, 5, 55, 0
10, 60240, Note_on_c, 5, 43, 64
10, 60476, Note_on_c, 5, 43, 0
10, 60480, Note_on_c, 5, 48, 64
10, 60956, Note_on_c, 5, 48, 0
10, 61200, Note_on_c, 5, 60, 64
10, 61316, Note_on_c, 5, 60, 0
10, 61320, Note_on_c, 5, 47, 64
10, 61436, Note_on_c, 5, 47, 0
10, 61440, Note_on_c, 5, 60, 64
10, 61676, Note_on_c, 5, 60, 0
10, 61680, Note_on_c, 5, 55, 64
10, 61796, Note_on_c, 5, 55, 0
10, 61800, Note_on_c, 5, 53, 64
10, 61916, Note_on_c, 5, 53, 0
10, 61920, Note_on_c, 5, 55, 64
10, 62156, Note_on_c, 5, 55, 0
10, 62160, Note_on_c, 5, 60, 64
10, 62276, Note_on_c, 5, 60, 0
10, 62280, Note_on_c, 5, 59, 64
10, 62396, Note_on_c, 5, 59, 0
10, 62400, Note_on_c, 5, 60, 64
10, 62636, Note_on_c, 5, 60, 0
10, 62640, Note_on_c, 5, 52, 64
10, 62756, Note_on_c, 5, 52, 0
10, 62760, Note_on_c, 5, 50, 64
10, 62876, Note_on_c, 5, 50, 0
10, 62880, Note_on_c, 5, 52, 64
10, 63116, Note_on_c, 5, 52, 0
10, 63120, Note_on_c, 5, 60, 64
10, 63236, Note_on_c, 5, 60, 0
10, 63240, Note_on_c, 5, 59, 64
10, 63356, Note_on_c, 5, 59, 0
10, 63360, Note_on_c, 5, 60, 64
10, 63596, Note_on_c, 5, 60, 0
10, 63600, Note_on_c, 5, 48, 64
10, 63716, Note_on_c, 5, 48, 0
10, 63720, Note_on_c, 5, 50, 64
10, 63836, Note_on_c, 5, 50, 0
10, 63840, Note_on_c, 5, 52, 64
10, 64076, Note_on_c, 5, 52, 0
10, 64080, Note_on_c, 5, 54, 64
10, 64316, Note_on_c, 5, 54, 0
10, 64320, Note_on_c, 5, 55, 64
10, 64556, Note_on_c, 5, 55, 0
10, 64560, Note_on_c, 5, 43, 64
10, 64796, Note_on_c, 5, 43, 0
10, 65040, Note_on_c, 5, 55, 64
10, 65156, Note_on_c, 5, 55, 0
10, 65160, Note_on_c, 5, 54, 64
10, 65276, Note_on_c, 5, 54, 0
10, 65280, Note_on_c, 5, 55, 64
10, 65516, Note_on_c, 5, 55, 0
10, 65520, Note_on_c, 5, 50, 64
10, 65636, Note_on_c, 5, 50, 0
10, 65640, Note_on_c, 5, 48, 64
10, 65756, Note_on_c, 5, 48, 0
10, 65760, Note_on_c, 5, 50, 64
10, 65996, Note_on_c, 5, 50, 0
10, 66000, Note_on_c, 5, 55, 64
10, 66116, Note_on_c, 5, 55, 0
10, 66120, Note_on_c, 5, 54, 64
10, 66236, Note_on_c, 5, 54, 0
10, 66240, Note_on_c, 5, 55, 64
10, 66476, Note_on_c, 5, 55, 0
10, 66480, Note_on_c, 5, 47, 64
10, 66596, Note_on_c, 5, 47, 0
10, 66600, Note_on_c, 5, 45, 64
10, 66716, Note_on_c, 5, 45, 0
10, 66720, Note_on_c, 5, 47, 64
10, 66956, Note_on_c, 5, 47, 0
10, 66960, Note_on_c, 5, 55, 64
10, 67076, Note_on_c, 5, 55, 0
10, 67080, Note_on_c, 5, 54, 64
10, 67196, Note_on_c, 5, 54, 0
10, 67200, Note_on_c, 5, 55, 64
10, 67436, Note_on_c, 5, 55, 0
10, 67440, Note_on_c, 5, 43, 64
10, 67556, Note_on_c, 5, 43, 0
10, 67560, Note_on_c, 5, 45, 64
10, 67676, Note_on_c, 5, 45, 0
10, 67680, Note_on_c, 5, 47, 64
10, 67916, Note_on_c, 5, 47, 0
10, 67920, Note_on_c, 5, 49, 64
10, 68156, Note_on_c, 5, 49, 0
10, 68160, Note_on_c, 5, 50, 64
10, 68276, Note_on_c, 5, 50, 0
10, 68280, Note_on_c, 5, 49, 64
10, 68396, Note_on_c, 5, 49, 0
10, 68400, Note_on_c, 5, 50, 64
10, 68516, Note_on_c, 5, 50, 0
10, 68520, Note_on_c, 5, 52, 64
10, 68636, Note_on_c, 5, 52, 0
10, 68640, Note_on_c, 5, 50, 64
10, 68756, Note_on_c, 5, 50, 0
10, 68760, Note_on_c, 5, 54, 64
10, 68876, Note_on_c, 5, 54, 0
10, 68880, Note_on_c, 5, 50, 64
10, 68996, Note_on_c, 5, 50, 0
10, 69000, Note_on_c, 5, 55, 64
10, 69116, Note_on_c, 5, 55, 0
10, 69120, Note_on_c, 5, 50, 64
10, 69236, Note_on_c, 5, 50, 0
10, 69240, Note_on_c, 5, 49, 64
10, 69356, Note_on_c, 5, 49, 0
10, 69360, Note_on_c, 5, 50, 64
10, 69476, Note_on_c, 5, 50, 0
10, 69480, Note_on_c, 5, 52, 64
10, 69596, Note_on_c, 5, 52, 0
10, 69600, Note_on_c, 5, 50, 64
10, 69716, Note_on_c, 5, 50, 0
10, 69720, Note_on_c, 5, 57, 64
10, 69836, Note_on_c, 5, 57, 0
10, 69840, Note_on_c, 5, 50, 64
10, 69956, Note_on_c, 5, 50, 0
10, 69960, Note_on_c, 5, 59, 64
10, 70076, Note_on_c, 5, 59, 0
10, 70080, Note_on_c, 5, 50, 64
10, 70196, Note_on_c, 5, 50, 0
10, 70200, Note_on_c, 5, 49, 64
10, 70316, Note_on_c, 5, 49, 0
10, 70320, Note_on_c, 5, 50, 64
10, 70436, Note_on_c, 5, 50, 0
10, 70440, Note_on_c, 5, 52, 64
10, 70556, Note_on_c, 5, 52, 0
10, 70560, Note_on_c, 5, 50, 64
10, 70676, Note_on_c, 5, 50, 0
10, 70680, Note_on_c, 5, 60, 64
10, 70796, Note_on_c, 5, 60, 0
10, 70800, Note_on_c, 5, 50, 64
10, 70916, Note_on_c, 5, 50, 0
10, 70920, Note_on_c, 5, 62, 64
10, 71036, Note_on_c, 5, 62, 0
10, 71040, Note_on_c, 5, 59, 64
10, 71276, Note_on_c, 5, 59, 0
10, 71280, Note_on_c, 5, 57, 64
10, 71396, Note_on_c, 5, 57, 0
10, 71400, Note_on_c, 5, 55, 64
10, 71516, Note_on_c, 5, 55, 0
10, 71520, Note_on_c, 5, 57, 64
10, 71756, Note_on_c, 5, 57, 0
10, 71760, Note_on_c, 5, 55, 64
10, 71876, Note_on_c, 5, 55, 0
10, 71880, Note_on_c, 5, 54, 64
10, 71996, Note_on_c, 5, 54, 0
10, 72000, Note_on_c, 5, 55, 64
10, 72236, Note_on_c, 5, 55, 0
10, 72240, Note_on_c, 5, 59, 64
10, 72356, Note_on_c, 5, 59, 0
10, 72360, Note_on_c, 5, 57, 64
10, 72476, Note_on_c, 5, 57, 0
10, 72480, Note_on_c, 5, 59, 64
10, 72716, Note_on_c, 5, 59, 0
10, 72720, Note_on_c, 5, 62, 64
10, 72836, Note_on_c, 5, 62, 0
10, 72840, Note_on_c, 5, 60, 64
10, 72956, Note_on_c, 5, 60, 0
10, 72960, Note_on_c, 5, 62, 64
10, 73196, Note_on_c, 5, 62, 0
10, 74640, Note_on_c, 5, 55, 64
10, 74876, Note_on_c, 5, 55, 0
10, 74880, Note_on_c, 5, 55, 64
10, 75116, Note_on_c, 5, 55, 0
10, 75120, Note_on_c, 5, 43, 64
10, 75356, Note_on_c, 5, 43, 0
10, 75360, Note_on_c, 5, 43, 64
10, 75596, Note_on_c, 5, 43, 0
10, 75600, Note_on_c, 5, 55, 64
10, 75836, Note_on_c, 5, 55, 0
10, 75840, Note_on_c, 5, 55, 64
10, 76076, Note_on_c, 5, 55, 0
10, 76080, Note_on_c, 5, 43, 64
10, 76316, Note_on_c, 5, 43, 0
10, 76320, Note_on_c, 5, 43, 64
10, 76556, Note_on_c, 5, 43, 0
10, 76560, Note_on_c, 5, 55, 64
10, 76676, Note_on_c, 5, 55, 0
10, 76680, Note_on_c, 5, 54, 64
10, 76796, Note_on_c, 5, 54, 0
10, 76800, Note_on_c, 5, 55, 64
10, 77036, Note_on_c, 5, 55, 0
10, 77040, Note_on_c, 5, 43, 64
10, 77156, Note_on_c, 5, 43, 0
10, 77160, Note_on_c, 5, 45, 64
10, 77276, Note_on_c, 5, 45, 0
10, 77280, Note_on_c, 5, 47, 64
10, 77516, Note_on_c, 5, 47, 0
10, 77520, Note_on_c, 5, 49, 64
10, 77756, Note_on_c, 5, 49, 0
10, 77760, Note_on_c, 5, 50, 64
10, 77996, Note_on_c, 5, 50, 0
10, 78000, Note_on_c, 5, 38, 64
10, 78236, Note_on_c, 5, 38, 0
10, 78240, Note_on_c, 5, 38, 64
10, 78476, Note_on_c, 5, 38, 0
10, 78480, Note_on_c, 5, 50, 64
10, 78596, Note_on_c, 5, 50, 0
10, 78600, Note_on_c, 5, 61, 64
10, 78716, Note_on_c, 5, 61, 0
10, 78720, Note_on_c, 5, 62, 64
10, 78956, Note_on_c, 5, 62, 0
10, 78960, Note_on_c, 5, 50, 64
10, 79196, Note_on_c, 5, 50, 0
10, 79200, Note_on_c, 5, 38, 64
10, 79436, Note_on_c, 5, 38, 0
10, 79440, Note_on_c, 5, 50, 64
10, 79556, Note_on_c, 5, 50, 0
10, 79560, Note_on_c, 5, 49, 64
10, 79676, Note_on_c, 5, 49, 0
10, 79680, Note_on_c, 5, 50, 64
10, 79916, Note_on_c, 5, 50, 0
10, 79920, Note_on_c, 5, 38, 64
10, 80156, Note_on_c, 5, 38, 0
10, 80160, Note_on_c, 5, 38, 64
10, 80396, Note_on_c, 5, 38, 0
10, 80400, Note_on_c, 5, 54, 64
10, 80636, Note_on_c, 5, 54, 0
10, 80640, Note_on_c, 5, 55, 64
10, 80876, Note_on_c, 5, 55, 0
10, 80880, Note_on_c, 5, 52, 64
10, 81116, Note_on_c, 5, 52, 0
10, 81120, Note_on_c, 5, 48, 64
10, 81356, Note_on_c, 5, 48, 0
10, 81360, Note_on_c, 5, 50, 64
10, 81596, Note_on_c, 5, 50, 0
10, 81600, Note_on_c, 5, 52, 64
10, 81836, Note_on_c, 5, 52, 0
10, 81840, Note_on_c, 5, 50, 64
10, 81956, Note_on_c, 5, 50, 0
10, 81960, Note_on_c, 5, 48, 64
10, 82076, Note_on_c, 5, 48, 0
10, 82080, Note_on_c, 5, 47, 64
10, 82316, Note_on_c, 5, 47, 0
10, 82320, Note_on_c, 5, 45, 64
10, 82436, Note_on_c, 5, 45, 0
10, 82440, Note_on_c, 5, 43, 64
10, 82556, Note_on_c, 5, 43, 0
10, 82560, Note_on_c, 5, 48, 64
10, 82796, Note_on_c, 5, 48, 0
10, 82800, Note_on_c, 5, 47, 64
10, 82916, Note_on_c, 5, 47, 0
10, 82920, Note_on_c, 5, 45, 64
10, 83036, Note_on_c, 5, 45, 0
10, 83040, Note_on_c, 5, 43, 64
10, 83276, Note_on_c, 5, 43, 0
10, 83280, Note_on_c, 5, 55, 64
10, 83396, Note_on_c, 5, 55, 0
10, 83400, Note_on_c, 5, 54, 64
10, 83516, Note_on_c, 5, 54, 0
10, 83520, Note_on_c, 5, 52, 64
10, 83756, Note_on_c, 5, 52, 0
10, 83760, Note_on_c, 5, 50, 64
10, 83876, Note_on_c, 5, 50, 0
10, 83880, Note_on_c, 5, 48, 64
10, 83996, Note_on_c, 5, 48, 0
10, 84000, Note_on_c, 5, 47, 64
10, 84236, Note_on_c, 5, 47, 0
10, 84240, Note_on_c, 5, 49, 64
10, 84476, Note_on_c, 5, 49, 0
10, 84480, Note_on_c, 5, 50, 64
10, 84716, Note_on_c, 5, 50, 0
10, 84720, Note_on_c, 5, 38, 64
10, 84956, Note_on_c, 5, 38, 0
10, 84960, Note_on_c, 5, 38, 64
10, 85196, Note_on_c, 5, 38, 0
10, 85200, Note_on_c, 5, 50, 64
10, 85316, Note_on_c, 5, 50, 0
10, 85320, Note_on_c, 5, 52, 64
10, 85436, Note_on_c, 5, 52, 0
10, 85440, Note_on_c, 5, 54, 64
10, 85676, Note_on_c, 5, 54, 0
10, 85680, Note_on_c, 5, 55, 64
10, 85916, Note_on_c, 5, 55, 0
10, 85920, Note_on_c, 5, 57, 64
10, 86156, Note_on_c, 5, 57, 0
10, 86160, Note_on_c, 5, 50, 64
10, 86396, Note_on_c, 5, 50, 0
10, 86400, Note_on_c, 5, 55, 64
10, 86636, Note_on_c, 5, 55, 0
10, 86640, Note_on_c, 5, 48, 64
10, 86876, Note_on_c, 5, 48, 0
10, 86880, Note_on_c, 5, 50, 64
10, 87116, Note_on_c, 5, 50, 0
10, 87120, Note_on_c, 5, 38, 64
10, 87356, Note_on_c, 5, 38, 0
10, 87360, Note_on_c, 5, 40, 64
10, 87836, Note_on_c, 5, 40, 0
10, 88080, Note_on_c, 5, 41, 64
10, 88316, Note_on_c, 5, 41, 0
10, 88320, Note_on_c, 5, 43, 64
10, 88556, Note_on_c, 5, 43, 0
10, 88560, Note_on_c, 5, 36, 64
10, 88796, Note_on_c, 5, 36, 0
10, 88800, Note_on_c, 5, 38, 64
10, 89036, Note_on_c, 5, 38, 0
10, 89040, Note_on_c, 5, 50, 64
10, 89276, Note_on_c, 5, 50, 0
10, 89280, Note_on_c, 5, 55, 64
10, 89516, Note_on_c, 5, 55, 0
10, 89520, Note_on_c, 5, 54, 64
10, 89636, Note_on_c, 5, 54, 0
10, 89640, Note_on_c, 5, 52, 64
10, 89756, Note_on_c, 5, 52, 0
10, 89760, Note_on_c, 5, 50, 64
10, 89876, Note_on_c, 5, 50, 0
10, 89880, Note_on_c, 5, 48, 64
10, 89996, Note_on_c, 5, 48, 0
10, 90000, Note_on_c, 5, 47, 64
10, 90116, Note_on_c, 5, 47, 0
10, 90120, Note_on_c, 5, 45, 64
10, 90236, Note_on_c, 5, 45, 0
10, 90240, Note_on_c, 5, 43, 64
10, 90716, Note_on_c, 5, 43, 0
10, 91200, Note_on_c, 5, 43, 64
10, 91676, Note_on_c, 5, 43, 0
10, 92160, Note_on_c, 5, 43, 64
10, 92636, Note_on_c, 5, 43, 0
10, 93120, Note_on_c, 5, 43, 64
10, 93596, Note_on_c, 5, 43, 0
10, 94080, Note_on_c, 5, 43, 64
10, 94556, Note_on_c, 5, 43, 0
10, 95040, Note_on_c, 5, 43, 64
10, 95516, Note_on_c, 5, 43, 0
10, 96000, Note_on_c, 5, 55, 64
10, 96236, Note_on_c, 5, 55, 0
10, 96240, Note_on_c, 5, 54, 64
10, 96476, Note_on_c, 5, 54, 0
10, 96480, Note_on_c, 5, 52, 64
10, 96716, Note_on_c, 5, 52, 0
10, 96720, Note_on_c, 5, 57, 64
10, 96956, Note_on_c, 5, 57, 0
10, 96960, Note_on_c, 5, 50, 64
10, 97196, Note_on_c, 5, 50, 0
10, 97200, Note_on_c, 5, 49, 64
10, 97316, Note_on_c, 5, 49, 0
10, 97320, Note_on_c, 5, 47, 64
10, 97436, Note_on_c, 5, 47, 0
10, 97440, Note_on_c, 5, 45, 64
10, 97556, Note_on_c, 5, 45, 0
10, 97560, Note_on_c, 5, 43, 64
10, 97676, Note_on_c, 5, 43, 0
10, 97680, Note_on_c, 5, 42, 64
10, 97796, Note_on_c, 5, 42, 0
10, 97800, Note_on_c, 5, 40, 64
10, 97916, Note_on_c, 5, 40, 0
10, 97920, Note_on_c, 5, 39, 64
10, 98396, Note_on_c, 5, 39, 0
10, 98880, Note_on_c, 5, 42, 64
10, 99356, Note_on_c, 5, 42, 0
10, 99840, Note_on_c, 5, 45, 64
10, 100316, Note_on_c, 5, 45, 0
10, 100800, Note_on_c, 5, 57, 64
10, 101276, Note_on_c, 5, 57, 0
10, 101760, Note_on_c, 5, 51, 64
10, 102236, Note_on_c, 5, 51, 0
10, 102720, Note_on_c, 5, 47, 64
10, 103196, Note_on_c, 5, 47, 0
10, 103680, Note_on_c, 5, 52, 64
10, 104156, Note_on_c, 5, 52, 0
10, 105360, Note_on_c, 5, 55, 64
10, 105476, Note_on_c, 5, 55, 0
10, 105480, Note_on_c, 5, 54, 64
10, 105596, Note_on_c, 5, 54, 0
10, 105600, Note_on_c, 5, 52, 64
10, 105836, Note_on_c, 5, 52, 0
10, 105840, Note_on_c, 5, 40, 64
10, 105956, Note_on_c, 5, 40, 0
10, 105960, Note_on_c, 5, 42, 64
10, 106076, Note_on_c, 5, 42, 0
10, 106080, Note_on_c, 5, 43, 64
10, 106316, Note_on_c, 5, 43, 0
10, 106320, Note_on_c, 5, 45, 64
10, 106556, Note_on_c, 5, 45, 0
10, 106560, Note_on_c, 5, 47, 64
10, 106676, Note_on_c, 5, 47, 0
10, 106680, Note_on_c, 5, 46, 64
10, 106796, Note_on_c, 5, 46, 0
10, 106800, Note_on_c, 5, 47, 64
10, 106916, Note_on_c, 5, 47, 0
10, 106920, Note_on_c, 5, 49, 64
10, 107036, Note_on_c, 5, 49, 0
10, 107040, Note_on_c, 5, 47, 64
10, 107156, Note_on_c, 5, 47, 0
10, 107160, Note_on_c, 5, 51, 64
10, 107276, Note_on_c, 5, 51, 0
10, 107280, Note_on_c, 5, 47, 64
10, 107396, Note_on_c, 5, 47, 0
10, 107400, Note_on_c, 5, 52, 64
10, 107516, Note_on_c, 5, 52, 0
10, 107520, Note_on_c, 5, 47, 64
10, 107636, Note_on_c, 5, 47, 0
10, 107640, Note_on_c, 5, 46, 64
10, 107756, Note_on_c, 5, 46, 0
10, 107760, Note_on_c, 5, 47, 64
10, 107876, Note_on_c, 5, 47, 0
10, 107880, Note_on_c, 5, 49, 64
10, 107996, Note_on_c, 5, 49, 0
10, 108000, Note_on_c, 5, 47, 64
10, 108116, Note_on_c, 5, 47, 0
10, 108120, Note_on_c, 5, 54, 64
10, 108236, Note_on_c, 5, 54, 0
10, 108240, Note_on_c, 5, 47, 64
10, 108356, Note_on_c, 5, 47, 0
10, 108360, Note_on_c, 5, 55, 64
10, 108476, Note_on_c, 5, 55, 0
10, 108480, Note_on_c, 5, 47, 64
10, 108596, Note_on_c, 5, 47, 0
10, 108600, Note_on_c, 5, 46, 64
10, 108716, Note_on_c, 5, 46, 0
10, 108720, Note_on_c, 5, 47, 64
10, 108836, Note_on_c, 5, 47, 0
10, 108840, Note_on_c, 5, 49, 64
10, 108956, Note_on_c, 5, 49, 0
10, 108960, Note_on_c, 5, 47, 64
10, 109076, Note_on_c, 5, 47, 0
10, 109080, Note_on_c, 5, 57, 64
10, 109196, Note_on_c, 5, 57, 0
10, 109200, Note_on_c, 5, 47, 64
10, 109316, Note_on_c, 5, 47, 0
10, 109320, Note_on_c, 5, 59, 64
10, 109436, Note_on_c, 5, 59, 0
10, 109440, Note_on_c, 5, 55, 64
10, 109676, Note_on_c, 5, 55, 0
10, 109680, Note_on_c, 5, 54, 64
10, 109796, Note_on_c, 5, 54, 0
10, 109800, Note_on_c, 5, 52, 64
10, 109916, Note_on_c, 5, 52, 0
10, 109920, Note_on_c, 5, 54, 64
10, 110156, Note_on_c, 5, 54, 0
10, 110160, Note_on_c, 5, 52, 64
10, 110276, Note_on_c, 5, 52, 0
10, 110280, Note_on_c, 5, 51, 64
10, 110396, Note_on_c, 5, 51, 0
10, 110400, Note_on_c, 5, 60, 64
10, 110756, Note_on_c, 5, 60, 0
10, 110760, Note_on_c, 5, 59, 64
10, 110876, Note_on_c, 5, 59, 0
10, 110880, Note_on_c, 5, 57, 64
10, 110996, Note_on_c, 5, 57, 0
10, 111000, Note_on_c, 5, 55, 64
10, 111116, Note_on_c, 5, 55, 0
10, 111120, Note_on_c, 5, 54, 64
10, 111236, Note_on_c, 5, 54, 0
10, 111240, Note_on_c, 5, 52, 64
10, 111356, Note_on_c, 5, 52, 0
10, 111360, Note_on_c, 5, 51, 64
10, 111596, Note_on_c, 5, 51, 0
10, 111600, Note_on_c, 5, 52, 64
10, 111836, Note_on_c, 5, 52, 0
10, 111840, Note_on_c, 5, 45, 64
10, 112076, Note_on_c, 5, 45, 0
10, 112080, Note_on_c, 5, 47, 64
10, 112316, Note_on_c, 5, 47, 0
10, 112320, Note_on_c, 5, 40, 64
10, 112796, Note_on_c, 5, 40, 0
10, 113040, Note_on_c, 5, 47, 64
10, 113276, Note_on_c, 5, 47, 0
10, 113280, Note_on_c, 5, 52, 64
10, 113756, Note_on_c, 5, 52, 0
10, 114000, Note_on_c, 5, 59, 64
10, 114236, Note_on_c, 5, 59, 0
10, 114240, Note_on_c, 5, 64, 64
10, 114716, Note_on_c, 5, 64, 0
10, 114960, Note_on_c, 5, 59, 64
10, 115196, Note_on_c, 5, 59, 0
10, 115200, Note_on_c, 5, 52, 64
10, 115316, Note_on_c, 5, 52, 0
10, 115320, Note_on_c, 5, 54, 64
10, 115436, Note_on_c, 5, 54, 0
10, 115440, Note_on_c, 5, 55, 64
10, 115556, Note_on_c, 5, 55, 0
10, 115560, Note_on_c, 5, 54, 64
10, 115676, Note_on_c, 5, 54, 0
10, 115680, Note_on_c, 5, 52, 64
10, 115796, Note_on_c, 5, 52, 0
10, 115800, Note_on_c, 5, 50, 64
10, 115916, Note_on_c, 5, 50, 0
10, 115920, Note_on_c, 5, 49, 64
10, 116036, Note_on_c, 5, 49, 0
10, 116040, Note_on_c, 5, 47, 64
10, 116156, Note_on_c, 5, 47, 0
10, 116160, Note_on_c, 5, 45, 64
10, 116636, Note_on_c, 5, 45, 0
10, 116880, Note_on_c, 5, 40, 64
10, 117116, Note_on_c, 5, 40, 0
10, 117120, Note_on_c, 5, 45, 64
10, 117596, Note_on_c, 5, 45, 0
10, 117840, Note_on_c, 5, 52, 64
10, 118076, Note_on_c, 5, 52, 0
10, 118080, Note_on_c, 5, 57, 64
10, 118556, Note_on_c, 5, 57, 0
10, 118800, Note_on_c, 5, 52, 64
10, 119036, Note_on_c, 5, 52, 0
10, 119040, Note_on_c, 5, 45, 64
10, 119156, Note_on_c, 5, 45, 0
10, 119160, Note_on_c, 5, 47, 64
10, 119276, Note_on_c, 5, 47, 0
10, 119280, Note_on_c, 5, 49, 64
10, 119396, Note_on_c, 5, 49, 0
10, 119400, Note_on_c, 5, 47, 64
10, 119516, Note_on_c, 5, 47, 0
10, 119520, Note_on_c, 5, 45, 64
10, 119636, Note_on_c, 5, 45, 0
10, 119640, Note_on_c, 5, 43, 64
10, 119756, Note_on_c, 5, 43, 0
10, 119760, Note_on_c, 5, 42, 64
10, 119876, Note_on_c, 5, 42, 0
10, 119880, Note_on_c, 5, 40, 64
10, 119996, Note_on_c, 5, 40, 0
10, 120000, Note_on_c, 5, 38, 64
10, 120476, Note_on_c, 5, 38, 0
10, 120720, Note_on_c, 5, 57, 64
10, 120956, Note_on_c, 5, 57, 0
10, 120960, Note_on_c, 5, 50, 64
10, 121436, Note_on_c, 5, 50, 0
10, 121680, Note_on_c, 5, 57, 64
10, 121916, Note_on_c, 5, 57, 0
10, 121920, Note_on_c, 5, 50, 64
10, 122036, Note_on_c, 5, 50, 0
10, 122040, Note_on_c, 5, 57, 64
10, 122156, Note_on_c, 5, 57, 0
10, 122160, Note_on_c, 5, 62, 64
10, 122276, Note_on_c, 5, 62, 0
10, 122280, Note_on_c, 5, 52, 64
10, 122396, Note_on_c, 5, 52, 0
10, 122400, Note_on_c, 5, 54, 64
10, 122516, Note_on_c, 5, 54, 0
10, 122520, Note_on_c, 5, 55, 64
10, 122636, Note_on_c, 5, 55, 0
10, 122640, Note_on_c, 5, 57, 64
10, 122756, Note_on_c, 5, 57, 0
10, 122760, Note_on_c, 5, 55, 64
10, 122876, Note_on_c, 5, 55, 0
10, 122880, Note_on_c, 5, 54, 64
10, 122996, Note_on_c, 5, 54, 0
10, 123000, Note_on_c, 5, 55, 64
10, 123116, Note_on_c, 5, 55, 0
10, 123120, Note_on_c, 5, 54, 64
10, 123236, Note_on_c, 5, 54, 0
10, 123240, Note_on_c, 5, 52, 64
10, 123356, Note_on_c, 5, 52, 0
10, 123360, Note_on_c, 5, 50, 64
10, 123476, Note_on_c, 5, 50, 0
10, 123480, Note_on_c, 5, 48, 64
10, 123596, Note_on_c, 5, 48, 0
10, 123600, Note_on_c, 5, 47, 64
10, 123716, Note_on_c, 5, 47, 0
10, 123720, Note_on_c, 5, 45, 64
10, 123836, Note_on_c, 5, 45, 0
10, 123840, Note_on_c, 5, 43, 64
10, 124076, Note_on_c, 5, 43, 0
10, 124080, Note_on_c, 5, 47, 64
10, 124196, Note_on_c, 5, 47, 0
10, 124200, Note_on_c, 5, 45, 64
10, 124316, Note_on_c, 5, 45, 0
10, 124320, Note_on_c, 5, 43, 64
10, 124556, Note_on_c, 5, 43, 0
10, 124560, Note_on_c, 5, 38, 64
10, 124796, Note_on_c, 5, 38, 0
10, 124800, Note_on_c, 5, 43, 64
10, 125276, Note_on_c, 5, 43, 0
10, 125520, Note_on_c, 5, 54, 64
10, 125756, Note_on_c, 5, 54, 0
10, 125760, Note_on_c, 5, 55, 64
10, 125876, Note_on_c, 5, 55, 0
10, 125880, Note_on_c, 5, 50, 64
10, 125996, Note_on_c, 5, 50, 0
10, 126000, Note_on_c, 5, 43, 64
10, 126116, Note_on_c, 5, 43, 0
10, 126120, Note_on_c, 5, 45, 64
10, 126236, Note_on_c, 5, 45, 0
10, 126240, Note_on_c, 5, 47, 64
10, 126356, Note_on_c, 5, 47, 0
10, 126360, Note_on_c, 5, 48, 64
10, 126476, Note_on_c, 5, 48, 0
10, 126480, Note_on_c, 5, 50, 64
10, 126596, Note_on_c, 5, 50, 0
10, 126600, Note_on_c, 5, 48, 64
10, 126716, Note_on_c, 5, 48, 0
10, 126720, Note_on_c, 5, 47, 64
10, 126836, Note_on_c, 5, 47, 0
10, 126840, Note_on_c, 5, 50, 64
10, 126956, Note_on_c, 5, 50, 0
10, 126960, Note_on_c, 5, 43, 64
10, 127076, Note_on_c, 5, 43, 0
10, 127080, Note_on_c, 5, 45, 64
10, 127196, Note_on_c, 5, 45, 0
10, 127200, Note_on_c, 5, 47, 64
10, 127316, Note_on_c, 5, 47, 0
10, 127320, Note_on_c, 5, 48, 64
10, 127436, Note_on_c, 5, 48, 0
10, 127440, Note_on_c, 5, 50, 64
10, 127556, Note_on_c, 5, 50, 0
10, 127560, Note_on_c, 5, 48, 64
10, 127676, Note_on_c, 5, 48, 0
10, 127680, Note_on_c, 5, 47, 64
10, 127796, Note_on_c, 5, 47, 0
10, 127800, Note_on_c, 5, 48, 64
10, 127916, Note_on_c, 5, 48, 0
10, 127920, Note_on_c, 5, 50, 64
10, 128036, Note_on_c, 5, 50, 0
10, 128040, Note_on_c, 5, 48, 64
10, 128156, Note_on_c, 5, 48, 0
10, 128160, Note_on_c, 5, 47, 64
10, 128276, Note_on_c, 5, 47, 0
10, 128280, Note_on_c, 5, 45, 64
10, 128396, Note_on_c, 5, 45, 0
10, 128400, Note_on_c, 5, 43, 64
10, 128516, Note_on_c, 5, 43, 0
10, 128520, Note_on_c, 5, 42, 64
10, 128636, Note_on_c, 5, 42, 0
10, 128640, Note_on_c, 5, 40, 64
10, 129116, Note_on_c, 5, 40, 0
10, 129600, Note_on_c, 5, 40, 64
10, 130076, Note_on_c, 5, 40, 0
10, 130560, Note_on_c, 5, 52, 64
10, 131036, Note_on_c, 5, 52, 0
10, 131520, Note_on_c, 5, 52, 64
10, 131996, Note_on_c, 5, 52, 0
10, 132480, Note_on_c, 5, 46, 64
10, 132956, Note_on_c, 5, 46, 0
10, 133440, Note_on_c, 5, 42, 64
10, 133916, Note_on_c, 5, 42, 0
10, 134400, Note_on_c, 5, 47, 64
10, 134636, Note_on_c, 5, 47, 0
10, 134640, Note_on_c, 5, 59, 64
10, 134876, Note_on_c, 5, 59, 0
10, 134880, Note_on_c, 5, 59, 64
10, 135116, Note_on_c, 5, 59, 0
10, 135120, Note_on_c, 5, 47, 64
10, 135356, Note_on_c, 5, 47, 0
10, 135360, Note_on_c, 5, 47, 64
10, 135596, Note_on_c, 5, 47, 0
10, 135600, Note_on_c, 5, 59, 64
10, 135836, Note_on_c, 5, 59, 0
10, 135840, Note_on_c, 5, 59, 64
10, 136076, Note_on_c, 5, 59, 0
10, 136080, Note_on_c, 5, 47, 64
10, 136316, Note_on_c, 5, 47, 0
10, 136320, Note_on_c, 5, 47, 64
10, 136556, Note_on_c, 5, 47, 0
10, 136560, Note_on_c, 5, 59, 64
10, 136676, Note_on_c, 5, 59, 0
10, 136680, Note_on_c, 5, 57, 64
10, 136796, Note_on_c, 5, 57, 0
10, 136800, Note_on_c, 5, 55, 64
10, 137036, Note_on_c, 5, 55, 0
10, 137040, Note_on_c, 5, 54, 64
10, 137156, Note_on_c, 5, 54, 0
10, 137160, Note_on_c, 5, 52, 64
10, 137276, Note_on_c, 5, 52, 0
10, 137280, Note_on_c, 5, 50, 64
10, 137516, Note_on_c, 5, 50, 0
10, 137520, Note_on_c, 5, 49, 64
10, 137636, Note_on_c, 5, 49, 0
10, 137640, Note_on_c, 5, 47, 64
10, 137756, Note_on_c, 5, 47, 0
10, 137760, Note_on_c, 5, 46, 64
10, 137996, Note_on_c, 5, 46, 0
10, 138000, Note_on_c, 5, 42, 64
10, 138236, Note_on_c, 5, 42, 0
10, 138240, Note_on_c, 5, 47, 64
10, 138476, Note_on_c, 5, 47, 0
10, 138480, Note_on_c, 5, 59, 64
10, 138596, Note_on_c, 5, 59, 0
10, 138600, Note_on_c, 5, 57, 64
10, 138716, Note_on_c, 5, 57, 0
10, 138720, Note_on_c, 5, 55, 64
10, 138956, Note_on_c, 5, 55, 0
10, 138960, Note_on_c, 5, 54, 64
10, 139076, Note_on_c, 5, 54, 0
10, 139080, Note_on_c, 5, 52, 64
10, 139196, Note_on_c, 5, 52, 0
10, 139200, Note_on_c, 5, 50, 64
10, 139316, Note_on_c, 5, 50, 0
10, 139320, Note_on_c, 5, 49, 64
10, 139436, Note_on_c, 5, 49, 0
10, 139440, Note_on_c, 5, 50, 64
10, 139556, Note_on_c, 5, 50, 0
10, 139560, Note_on_c, 5, 52, 64
10, 139676, Note_on_c, 5, 52, 0
10, 139680, Note_on_c, 5, 50, 64
10, 139796, Note_on_c, 5, 50, 0
10, 139800, Note_on_c, 5, 52, 64
10, 139916, Note_on_c, 5, 52, 0
10, 139920, Note_on_c, 5, 50, 64
10, 140036, Note_on_c, 5, 50, 0
10, 140040, Note_on_c, 5, 49, 64
10, 140156, Note_on_c, 5, 49, 0
10, 140160, Note_on_c, 5, 47, 64
10, 140396, Note_on_c, 5, 47, 0
10, 140400, Note_on_c, 5, 55, 64
10, 140636, Note_on_c, 5, 55, 0
10, 140640, Note_on_c, 5, 52, 64
10, 140876, Note_on_c, 5, 52, 0
10, 140880, Note_on_c, 5, 54, 64
10, 141116, Note_on_c, 5, 54, 0
10, 141120, Note_on_c, 5, 55, 64
10, 141476, Note_on_c, 5, 55, 0
10, 141480, Note_on_c, 5, 54, 64
10, 141596, Note_on_c, 5, 54, 0
10, 141600, Note_on_c, 5, 52, 64
10, 141716, Note_on_c, 5, 52, 0
10, 141720, Note_on_c, 5, 50, 64
10, 141836, Note_on_c, 5, 50, 0
10, 141840, Note_on_c, 5, 49, 64
10, 141956, Note_on_c, 5, 49, 0
10, 141960, Note_on_c, 5, 47, 64
10, 142076, Note_on_c, 5, 47, 0
10, 142080, Note_on_c, 5, 50, 64
10, 142316, Note_on_c, 5, 50, 0
10, 142320, Note_on_c, 5, 52, 64
10, 142556, Note_on_c, 5, 52, 0
10, 142560, Note_on_c, 5, 54, 64
10, 142796, Note_on_c, 5, 54, 0
10, 142800, Note_on_c, 5, 42, 64
10, 143036, Note_on_c, 5, 42, 0
10, 143040, Note_on_c, 5, 47, 64
10, 143276, Note_on_c, 5, 47, 0
10, 143280, Note_on_c, 5, 50, 64
10, 143396, Note_on_c, 5, 50, 0
10, 143400, Note_on_c, 5, 49, 64
10, 143516, Note_on_c, 5, 49, 0
10, 143520, Note_on_c, 5, 50, 64
10, 143756, Note_on_c, 5, 50, 0
10, 143760, Note_on_c, 5, 54, 64
10, 143760, Note_on_c, 5, 50, 64
10, 143876, Note_on_c, 5, 50, 0
10, 143876, Note_on_c, 5, 54, 0
10, 143880, Note_on_c, 5, 52, 64
10, 143880, Note_on_c, 5, 49, 64
10, 143996, Note_on_c, 5, 49, 0
10, 143996, Note_on_c, 5, 52, 0
10, 144000, Note_on_c, 5, 54, 64
10, 144000, Note_on_c, 5, 50, 64
10, 144236, Note_on_c, 5, 50, 0
10, 144236, Note_on_c, 5, 54, 0
10, 145680, Note_on_c, 5, 47, 64
10, 145796, Note_on_c, 5, 47, 0
10, 145800, Note_on_c, 5, 49, 64
10, 145916, Note_on_c, 5, 49, 0
10, 145920, Note_on_c, 5, 50, 64
10, 146156, Note_on_c, 5, 50, 0
10, 146160, Note_on_c, 5, 55, 64
10, 146276, Note_on_c, 5, 55, 0
10, 146280, Note_on_c, 5, 54, 64
10, 146396, Note_on_c, 5, 54, 0
10, 146400, Note_on_c, 5, 55, 64
10, 146636, Note_on_c, 5, 55, 0
10, 146640, Note_on_c, 5, 49, 64
10, 146756, Note_on_c, 5, 49, 0
10, 146760, Note_on_c, 5, 47, 64
10, 146876, Note_on_c, 5, 47, 0
10, 146880, Note_on_c, 5, 49, 64
10, 147116, Note_on_c, 5, 49, 0
10, 147120, Note_on_c, 5, 54, 64
10, 147236, Note_on_c, 5, 54, 0
10, 147240, Note_on_c, 5, 52, 64
10, 147356, Note_on_c, 5, 52, 0
10, 147360, Note_on_c, 5, 54, 64
10, 147596, Note_on_c, 5, 54, 0
10, 147600, Note_on_c, 5, 47, 64
10, 147716, Note_on_c, 5, 47, 0
10, 147720, Note_on_c, 5, 46, 64
10, 147836, Note_on_c, 5, 46, 0
10, 147840, Note_on_c, 5, 47, 64
10, 148076, Note_on_c, 5, 47, 0
10, 148080, Note_on_c, 5, 52, 64
10, 148316, Note_on_c, 5, 52, 0
10, 148320, Note_on_c, 5, 54, 64
10, 148556, Note_on_c, 5, 54, 0
10, 148560, Note_on_c, 5, 42, 64
10, 148796, Note_on_c, 5, 42, 0
10, 148800, Note_on_c, 5, 47, 64
10, 149036, Note_on_c, 5, 47, 0
10, 149040, Note_on_c, 5, 48, 64
10, 149276, Note_on_c, 5, 48, 0
10, 149280, Note_on_c, 5, 47, 64
10, 149516, Note_on_c, 5, 47, 0
10, 149520, Note_on_c, 5, 45, 64
10, 149756, Note_on_c, 5, 45, 0
10, 149760, Note_on_c, 5, 43, 64
10, 150236, Note_on_c, 5, 43, 0
10, 153600, Note_on_c, 5, 50, 64
10, 153836, Note_on_c, 5, 50, 0
10, 153840, Note_on_c, 5, 49, 64
10, 154076, Note_on_c, 5, 49, 0
10, 154080, Note_on_c, 5, 50, 64
10, 154316, Note_on_c, 5, 50, 0
10, 154320, Note_on_c, 5, 52, 64
10, 154556, Note_on_c, 5, 52, 0
10, 154560, Note_on_c, 5, 54, 64
10, 154796, Note_on_c, 5, 54, 0
10, 154800, Note_on_c, 5, 55, 64
10, 155036, Note_on_c, 5, 55, 0
10, 155040, Note_on_c, 5, 54, 64
10, 155276, Note_on_c, 5, 54, 0
10, 155280, Note_on_c, 5, 52, 64
10, 155516, Note_on_c, 5, 52, 0
10, 155520, Note_on_c, 5, 50, 64
10, 155756, Note_on_c, 5, 50, 0
10, 155760, Note_on_c, 5, 49, 64
10, 155996, Note_on_c, 5, 49, 0
10, 156000, Note_on_c, 5, 47, 64
10, 156236, Note_on_c, 5, 47, 0
10, 156240, Note_on_c, 5, 52, 64
10, 156476, Note_on_c, 5, 52, 0
10, 156480, Note_on_c, 5, 45, 64
10, 156956, Note_on_c, 5, 45, 0
10, 157200, Note_on_c, 5, 45, 64
10, 157436, Note_on_c, 5, 45, 0
10, 157440, Note_on_c, 5, 50, 64
10, 157676, Note_on_c, 5, 50, 0
10, 157680, Note_on_c, 5, 38, 64
10, 157916, Note_on_c, 5, 38, 0
10, 157920, Note_on_c, 5, 42, 64
10, 158156, Note_on_c, 5, 42, 0
10, 158160, Note_on_c, 5, 45, 64
10, 158396, Note_on_c, 5, 45, 0
10, 158400, Note_on_c, 5, 50, 64
10, 158876, Note_on_c, 5, 50, 0
10, 159120, Note_on_c, 5, 50, 64
10, 159356, Note_on_c, 5, 50, 0
10, 159360, Note_on_c, 5, 55, 64
10, 159596, Note_on_c, 5, 55, 0
10, 159600, Note_on_c, 5, 43, 64
10, 159836, Note_on_c, 5, 43, 0
10, 159840, Note_on_c, 5, 47, 64
10, 160076, Note_on_c, 5, 47, 0
10, 160080, Note_on_c, 5, 50, 64
10, 160316, Note_on_c, 5, 50, 0
10, 160320, Note_on_c, 5, 55, 64
10, 160796, Note_on_c, 5, 55, 0
10, 161040, Note_on_c, 5, 47, 64
10, 161276, Note_on_c, 5, 47, 0
10, 161280, Note_on_c, 5, 52, 64
10, 161516, Note_on_c, 5, 52, 0
10, 161520, Note_on_c, 5, 40, 64
10, 161756, Note_on_c, 5, 40, 0
10, 161760, Note_on_c, 5, 43, 64
10, 161996, Note_on_c, 5, 43, 0
10, 162000, Note_on_c, 5, 47, 64
10, 162236, Note_on_c, 5, 47, 0
10, 162240, Note_on_c, 5, 52, 64
10, 162716, Note_on_c, 5, 52, 0
10, 162960, Note_on_c, 5, 43, 64
10, 163196, Note_on_c, 5, 43, 0
10, 163200, Note_on_c, 5, 48, 64
10, 163436, Note_on_c, 5, 48, 0
10, 163440, Note_on_c, 5, 50, 64
10, 163676, Note_on_c, 5, 50, 0
10, 163680, Note_on_c, 5, 43, 64
10, 163916, Note_on_c, 5, 43, 0
10, 163920, Note_on_c, 5, 48, 64
10, 164156, Note_on_c, 5, 48, 0
10, 164160, Note_on_c, 5, 50, 64
10, 164396, Note_on_c, 5, 50, 0
10, 164400, Note_on_c, 5, 48, 64
10, 164636, Note_on_c, 5, 48, 0
10, 164640, Note_on_c, 5, 47, 64
10, 164876, Note_on_c, 5, 47, 0
10, 164880, Note_on_c, 5, 45, 64
10, 165116, Note_on_c, 5, 45, 0
10, 165120, Note_on_c, 5, 43, 64
10, 165356, Note_on_c, 5, 43, 0
10, 165360, Note_on_c, 5, 55, 64
10, 165596, Note_on_c, 5, 55, 0
10, 165600, Note_on_c, 5, 55, 64
10, 165836, Note_on_c, 5, 55, 0
10, 165840, Note_on_c, 5, 43, 64
10, 166076, Note_on_c, 5, 43, 0
10, 166080, Note_on_c, 5, 43, 64
10, 166316, Note_on_c, 5, 43, 0
10, 166320, Note_on_c, 5, 55, 64
10, 166556, Note_on_c, 5, 55, 0
10, 166560, Note_on_c, 5, 55, 64
10, 166796, Note_on_c, 5, 55, 0
10, 166800, Note_on_c, 5, 43, 64
10, 167036, Note_on_c, 5, 43, 0
10, 167040, Note_on_c, 5, 43, 64
10, 167276, Note_on_c, 5, 43, 0
10, 167280, Note_on_c, 5, 55, 64
10, 167396, Note_on_c, 5, 55, 0
10, 167400, Note_on_c, 5, 54, 64
10, 167516, Note_on_c, 5, 54, 0
10, 167520, Note_on_c, 5, 52, 64
10, 167756, Note_on_c, 5, 52, 0
10, 167760, Note_on_c, 5, 57, 64
10, 167996, Note_on_c, 5, 57, 0
10, 168000, Note_on_c, 5, 62, 64
10, 168236, Note_on_c, 5, 62, 0
10, 168240, Note_on_c, 5, 60, 64
10, 168476, Note_on_c, 5, 60, 0
10, 168480, Note_on_c, 5, 59, 64
10, 168716, Note_on_c, 5, 59, 0
10, 168720, Note_on_c, 5, 57, 64
10, 168956, Note_on_c, 5, 57, 0
10, 168960, Note_on_c, 5, 55, 64
10, 169196, Note_on_c, 5, 55, 0
10, 169200, Note_on_c, 5, 53, 64
10, 169436, Note_on_c, 5, 53, 0
10, 169440, Note_on_c, 5, 52, 64
10, 169676, Note_on_c, 5, 52, 0
10, 169680, Note_on_c, 5, 50, 64
10, 169916, Note_on_c, 5, 50, 0
10, 169920, Note_on_c, 5, 60, 64
10, 170156, Note_on_c, 5, 60, 0
10, 170160, Note_on_c, 5, 58, 64
10, 170396, Note_on_c, 5, 58, 0
10, 170400, Note_on_c, 5, 57, 64
10, 170636, Note_on_c, 5, 57, 0
10, 170640, Note_on_c, 5, 55, 64
10, 170876, Note_on_c, 5, 55, 0
10, 170880, Note_on_c, 5, 54, 64
10, 171116, Note_on_c, 5, 54, 0
10, 171120, Note_on_c, 5, 52, 64
10, 171356, Note_on_c, 5, 52, 0
10, 171360, Note_on_c, 5, 50, 64
10, 171596, Note_on_c, 5, 50, 0
10, 171600, Note_on_c, 5, 49, 64
10, 171836, Note_on_c, 5, 49, 0
10, 171840, Note_on_c, 5, 59, 64
10, 172076, Note_on_c, 5, 59, 0
10, 172080, Note_on_c, 5, 57, 64
10, 172316, Note_on_c, 5, 57, 0
10, 172320, Note_on_c, 5, 55, 64
10, 172556, Note_on_c, 5, 55, 0
10, 172560, Note_on_c, 5, 54, 64
10, 172796, Note_on_c, 5, 54, 0
10, 172800, Note_on_c, 5, 52, 64
10, 173036, Note_on_c, 5, 52, 0
10, 173040, Note_on_c, 5, 50, 64
10, 173276, Note_on_c, 5, 50, 0
10, 173280, Note_on_c, 5, 48, 64
10, 173516, Note_on_c, 5, 48, 0
10, 173520, Note_on_c, 5, 47, 64
10, 173756, Note_on_c, 5, 47, 0
10, 173760, Note_on_c, 5, 45, 64
10, 173996, Note_on_c, 5, 45, 0
10, 174000, Note_on_c, 5, 43, 64
10, 174236, Note_on_c, 5, 43, 0
10, 174240, Note_on_c, 5, 41, 64
10, 174476, Note_on_c, 5, 41, 0
10, 174480, Note_on_c, 5, 40, 64
10, 174716, Note_on_c, 5, 40, 0
10, 174720, Note_on_c, 5, 38, 64
10, 175196, Note_on_c, 5, 38, 0
10, 176640, Note_on_c, 5, 39, 64
10, 177116, Note_on_c, 5, 39, 0
10, 178560, Note_on_c, 5, 40, 64
10, 179036, Note_on_c, 5, 40, 0
10, 180480, Note_on_c, 5, 40, 64
10, 180956, Note_on_c, 5, 40, 0
10, 182400, Note_on_c, 5, 40, 64
10, 182876, Note_on_c, 5, 40, 0
10, 184320, Note_on_c, 5, 40, 64
10, 184796, Note_on_c, 5, 40, 0
10, 186240, Note_on_c, 5, 45, 64
10, 186716, Note_on_c, 5, 45, 0
10, 187920, Note_on_c, 5, 57, 64
10, 188156, Note_on_c, 5, 57, 0
10, 188160, Note_on_c, 5, 43, 64
10, 188396, Note_on_c, 5, 43, 0
10, 189840, Note_on_c, 5, 55, 64
10, 190076, Note_on_c, 5, 55, 0
10, 190080, Note_on_c, 5, 41, 64
10, 190316, Note_on_c, 5, 41, 0
10, 191760, Note_on_c, 5, 53, 64
10, 191996, Note_on_c, 5, 53, 0
10, 192000, Note_on_c, 5, 40, 64
10, 192236, Note_on_c, 5, 40, 0
10, 192240, Note_on_c, 5, 52, 64
10, 192476, Note_on_c, 5, 52, 0
10, 192480, Note_on_c, 5, 52, 64
10, 192716, Note_on_c, 5, 52, 0
10, 192720, Note_on_c, 5, 40, 64
10, 192956, Note_on_c, 5, 40, 0
10, 192960, Note_on_c, 5, 40, 64
10, 193196, Note_on_c, 5, 40, 0
10, 193200, Note_on_c, 5, 52, 64
10, 193436, Note_on_c, 5, 52, 0
10, 193440, Note_on_c, 5, 52, 64
10, 193676, Note_on_c, 5, 52, 0
10, 193680, Note_on_c, 5, 50, 64
10, 193916, Note_on_c, 5, 50, 0
10, 193920, Note_on_c, 5, 48, 64
10, 194156, Note_on_c, 5, 48, 0
10, 194160, Note_on_c, 5, 50, 64
10, 194396, Note_on_c, 5, 50, 0
10, 194400, Note_on_c, 5, 52, 64
10, 194636, Note_on_c, 5, 52, 0
10, 194640, Note_on_c, 5, 40, 64
10, 194876, Note_on_c, 5, 40, 0
10, 194880, Note_on_c, 5, 45, 64
10, 195356, Note_on_c, 5, 45, 0
10, 195600, Note_on_c, 5, 57, 64
10, 195716, Note_on_c, 5, 57, 0
10, 195720, Note_on_c, 5, 56, 64
10, 195836, Note_on_c, 5, 56, 0
10, 195840, Note_on_c, 5, 57, 64
10, 196076, Note_on_c, 5, 57, 0
10, 196080, Note_on_c, 5, 52, 64
10, 196196, Note_on_c, 5, 52, 0
10, 196200, Note_on_c, 5, 50, 64
10, 196316, Note_on_c, 5, 50, 0
10, 196320, Note_on_c, 5, 52, 64
10, 196556, Note_on_c, 5, 52, 0
10, 196560, Note_on_c, 5, 57, 64
10, 196676, Note_on_c, 5, 57, 0
10, 196680, Note_on_c, 5, 56, 64
10, 196796, Note_on_c, 5, 56, 0
10, 196800, Note_on_c, 5, 57, 64
10, 197036, Note_on_c, 5, 57, 0
10, 197040, Note_on_c, 5, 48, 64
10, 197156, Note_on_c, 5, 48, 0
10, 197160, Note_on_c, 5, 47, 64
10, 197276, Note_on_c, 5, 47, 0
10, 197280, Note_on_c, 5, 48, 64
10, 197516, Note_on_c, 5, 48, 0
10, 197520, Note_on_c, 5, 57, 64
10, 197636, Note_on_c, 5, 57, 0
10, 197640, Note_on_c, 5, 56, 64
10, 197756, Note_on_c, 5, 56, 0
10, 197760, Note_on_c, 5, 57, 64
10, 197996, Note_on_c, 5, 57, 0
10, 198000, Note_on_c, 5, 45, 64
10, 198116, Note_on_c, 5, 45, 0
10, 198120, Note_on_c, 5, 47, 64
10, 198236, Note_on_c, 5, 47, 0
10, 198240, Note_on_c, 5, 49, 64
10, 198476, Note_on_c, 5, 49, 0
10, 198480, Note_on_c, 5, 51, 64
10, 198716, Note_on_c, 5, 51, 0
10, 198720, Note_on_c, 5, 52, 64
10, 198956, Note_on_c, 5, 52, 0
10, 198960, Note_on_c, 5, 40, 64
10, 199196, Note_on_c, 5, 40, 0
10, 199440, Note_on_c, 5, 52, 64
10, 199556, Note_on_c, 5, 52, 0
10, 199560, Note_on_c, 5, 51, 64
10, 199676, Note_on_c, 5, 51, 0
10, 199680, Note_on_c, 5, 52, 64
10, 199916, Note_on_c, 5, 52, 0
10, 199920, Note_on_c, 5, 47, 64
10, 200036, Note_on_c, 5, 47, 0
10, 200040, Note_on_c, 5, 45, 64
10, 200156, Note_on_c, 5, 45, 0
10, 200160, Note_on_c, 5, 47, 64
10, 200396, Note_on_c, 5, 47, 0
10, 200400, Note_on_c, 5, 52, 64
10, 200516, Note_on_c, 5, 52, 0
10, 200520, Note_on_c, 5, 51, 64
10, 200636, Note_on_c, 5, 51, 0
10, 200640, Note_on_c, 5, 52, 64
10, 200876, Note_on_c, 5, 52, 0
10, 200880, Note_on_c, 5, 43, 64
10, 200996, Note_on_c, 5, 43, 0
10, 201000, Note_on_c, 5, 42, 64
10, 201116, Note_on_c, 5, 42, 0
10, 201120, Note_on_c, 5, 43, 64
10, 201356, Note_on_c, 5, 43, 0
10, 201360, Note_on_c, 5, 52, 64
10, 201476, Note_on_c, 5, 52, 0
10, 201480, Note_on_c, 5, 51, 64
10, 201596, Note_on_c, 5, 51, 0
10, 201600, Note_on_c, 5, 52, 64
10, 201836, Note_on_c, 5, 52, 0
10, 201840, Note_on_c, 5, 40, 64
10, 201956, Note_on_c, 5, 40, 0
10, 201960, Note_on_c, 5, 42, 64
10, 202076, Note_on_c, 5, 42, 0
10, 202080, Note_on_c, 5, 43, 64
10, 202316, Note_on_c, 5, 43, 0
10, 202320, Note_on_c, 5, 45, 64
10, 202556, Note_on_c, 5, 45, 0
10, 202560, Note_on_c, 5, 47, 64
10, 202676, Note_on_c, 5, 47, 0
10, 202680, Note_on_c, 5, 45, 64
10, 202796, Note_on_c, 5, 45, 0
10, 202800, Note_on_c, 5, 47, 64
10, 202916, Note_on_c, 5, 47, 0
10, 202920, Note_on_c, 5, 48, 64
10, 203036, Note_on_c, 5, 48, 0
10, 203040, Note_on_c, 5, 47, 64
10, 203156, Note_on_c, 5, 47, 0
10, 203160, Note_on_c, 5, 48, 64
10, 203276, Note_on_c, 5, 48, 0
10, 203280, Note_on_c, 5, 47, 64
10, 203396, Note_on_c, 5, 47, 0
10, 203400, Note_on_c, 5, 45, 64
10, 203516, Note_on_c, 5, 45, 0
10, 203520, Note_on_c, 5, 43, 64
10, 203996, Note_on_c, 5, 43, 0
10, 204240, Note_on_c, 5, 50, 64
10, 204476, Note_on_c, 5, 50, 0
10, 204480, Note_on_c, 5, 55, 64
10, 204596, Note_on_c, 5, 55, 0
10, 204600, Note_on_c, 5, 54, 64
10, 204716, Note_on_c, 5, 54, 0
10, 204720, Note_on_c, 5, 55, 64
10, 204836, Note_on_c, 5, 55, 0
10, 204840, Note_on_c, 5, 57, 64
10, 204956, Note_on_c, 5, 57, 0
10, 204960, Note_on_c, 5, 55, 64
10, 205076, Note_on_c, 5, 55, 0
10, 205080, Note_on_c, 5, 59, 64
10, 205196, Note_on_c, 5, 59, 0
10, 205200, Note_on_c, 5, 57, 64
10, 205316, Note_on_c, 5, 57, 0
10, 205320, Note_on_c, 5, 48, 64
10, 205436, Note_on_c, 5, 48, 0
10, 205440, Note_on_c, 5, 59, 64
10, 205556, Note_on_c, 5, 59, 0
10, 205560, Note_on_c, 5, 48, 64
10, 205676, Note_on_c, 5, 48, 0
10, 205680, Note_on_c, 5, 59, 64
10, 205796, Note_on_c, 5, 59, 0
10, 205800, Note_on_c, 5, 57, 64
10, 205916, Note_on_c, 5, 57, 0
10, 205920, Note_on_c, 5, 55, 64
10, 206036, Note_on_c, 5, 55, 0
10, 206040, Note_on_c, 5, 59, 64
10, 206156, Note_on_c, 5, 59, 0
10, 206160, Note_on_c, 5, 57, 64
10, 206276, Note_on_c, 5, 57, 0
10, 206280, Note_on_c, 5, 55, 64
10, 206396, Note_on_c, 5, 55, 0
10, 206400, Note_on_c, 5, 54, 64
10, 206516, Note_on_c, 5, 54, 0
10, 206520, Note_on_c, 5, 59, 64
10, 206636, Note_on_c, 5, 59, 0
10, 206640, Note_on_c, 5, 57, 64
10, 206756, Note_on_c, 5, 57, 0
10, 206760, Note_on_c, 5, 55, 64
10, 206876, Note_on_c, 5, 55, 0
10, 206880, Note_on_c, 5, 54, 64
10, 206996, Note_on_c, 5, 54, 0
10, 207000, Note_on_c, 5, 55, 64
10, 207116, Note_on_c, 5, 55, 0
10, 207120, Note_on_c, 5, 54, 64
10, 207236, Note_on_c, 5, 54, 0
10, 207240, Note_on_c, 5, 52, 64
10, 207356, Note_on_c, 5, 52, 0
10, 207360, Note_on_c, 5, 50, 64
10, 207836, Note_on_c, 5, 50, 0
10, 208320, Note_on_c, 5, 50, 64
10, 208796, Note_on_c, 5, 50, 0
10, 209280, Note_on_c, 5, 43, 64
10, 209756, Note_on_c, 5, 43, 0
10, 210240, Note_on_c, 5, 43, 64
10, 210716, Note_on_c, 5, 43, 0
10, 211200, Note_on_c, 5, 42, 64
10, 211676, Note_on_c, 5, 42, 0
10, 212160, Note_on_c, 5, 42, 64
10, 212636, Note_on_c, 5, 42, 0
10, 213120, Note_on_c, 5, 45, 64
10, 213596, Note_on_c, 5, 45, 0
10, 214080, Note_on_c, 5, 45, 64
10, 214556, Note_on_c, 5, 45, 0
10, 215040, Note_on_c, 5, 42, 64
10, 215516, Note_on_c, 5, 42, 0
10, 216000, Note_on_c, 5, 42, 64
10, 216476, Note_on_c, 5, 42, 0
10, 216960, Note_on_c, 5, 41, 64
10, 217436, Note_on_c, 5, 41, 0
10, 217920, Note_on_c, 5, 41, 64
10, 218396, Note_on_c, 5, 41, 0
10, 218880, Note_on_c, 5, 37, 64
10, 218996, Note_on_c, 5, 37, 0
10, 219000, Note_on_c, 5, 38, 64
10, 219116, Note_on_c, 5, 38, 0
10, 219120, Note_on_c, 5, 37, 64
10, 219236, Note_on_c, 5, 37, 0
10, 219240, Note_on_c, 5, 58, 64
10, 219356, Note_on_c, 5, 58, 0
10, 219360, Note_on_c, 5, 55, 64
10, 219476, Note_on_c, 5, 55, 0
10, 219480, Note_on_c, 5, 52, 64
10, 219596, Note_on_c, 5, 52, 0
10, 219600, Note_on_c, 5, 49, 64
10, 219716, Note_on_c, 5, 49, 0
10, 219720, Note_on_c, 5, 43, 64
10, 219836, Note_on_c, 5, 43, 0
10, 219840, Note_on_c, 5, 37, 64
10, 219956, Note_on_c, 5, 37, 0
10, 219960, Note_on_c, 5, 38, 64
10, 220076, Note_on_c, 5, 38, 0
10, 220080, Note_on_c, 5, 37, 64
10, 220196, Note_on_c, 5, 37, 0
10, 220200, Note_on_c, 5, 58, 64
10, 220316, Note_on_c, 5, 58, 0
10, 220320, Note_on_c, 5, 55, 64
10, 220436, Note_on_c, 5, 55, 0
10, 220440, Note_on_c, 5, 52, 64
10, 220556, Note_on_c, 5, 52, 0
10, 220560, Note_on_c, 5, 49, 64
10, 220676, Note_on_c, 5, 49, 0
10, 220680, Note_on_c, 5, 43, 64
10, 220796, Note_on_c, 5, 43, 0
10, 220800, Note_on_c, 5, 38, 64
10, 220916, Note_on_c, 5, 38, 0
10, 220920, Note_on_c, 5, 39, 64
10, 221036, Note_on_c, 5, 39, 0
10, 221040, Note_on_c, 5, 38, 64
10, 221156, Note_on_c, 5, 38, 0
10, 221160, Note_on_c, 5, 58, 64
10, 221276, Note_on_c, 5, 58, 0
10, 221280, Note_on_c, 5, 55, 64
10, 221396, Note_on_c, 5, 55, 0
10, 221400, Note_on_c, 5, 50, 64
10, 221516, Note_on_c, 5, 50, 0
10, 221520, Note_on_c, 5, 46, 64
10, 221636, Note_on_c, 5, 46, 0
10, 221640, Note_on_c, 5, 43, 64
10, 221756, Note_on_c, 5, 43, 0
10, 221760, Note_on_c, 5, 38, 64
10, 221876, Note_on_c, 5, 38, 0
10, 221880, Note_on_c, 5, 39, 64
10, 221996, Note_on_c, 5, 39, 0
10, 222000, Note_on_c, 5, 38, 64
10, 222116, Note_on_c, 5, 38, 0
10, 222120, Note_on_c, 5, 58, 64
10, 222236, Note_on_c, 5, 58, 0
10, 222240, Note_on_c, 5, 55, 64
10, 222356, Note_on_c, 5, 55, 0
10, 222360, Note_on_c, 5, 50, 64
10, 222476, Note_on_c, 5, 50, 0
10, 222480, Note_on_c, 5, 46, 64
10, 222596, Note_on_c, 5, 46, 0
10, 222600, Note_on_c, 5, 43, 64
10, 222716, Note_on_c, 5, 43, 0
10, 222720, Note_on_c, 5, 38, 64
10, 222836, Note_on_c, 5, 38, 0
10, 222840, Note_on_c, 5, 39, 64
10, 222956, Note_on_c, 5, 39, 0
10, 222960, Note_on_c, 5, 38, 64
10, 223076, Note_on_c, 5, 38, 0
10, 223080, Note_on_c, 5, 61, 64
10, 223196, Note_on_c, 5, 61, 0
10, 223200, Note_on_c, 5, 58, 64
10, 223316, Note_on_c, 5, 58, 0
10, 223320, Note_on_c, 5, 55, 64
10, 223436, Note_on_c, 5, 55, 0
10, 223440, Note_on_c, 5, 52, 64
10, 223556, Note_on_c, 5, 52, 0
10, 223560, Note_on_c, 5, 49, 64
10, 223676, Note_on_c, 5, 49, 0
10, 223680, Note_on_c, 5, 38, 64
10, 223796, Note_on_c, 5, 38, 0
10, 223800, Note_on_c, 5, 39, 64
10, 223916, Note_on_c, 5, 39, 0
10, 223920, Note_on_c, 5, 38, 64
10, 224036, Note_on_c, 5, 38, 0
10, 224040, Note_on_c, 5, 61, 64
10, 224156, Note_on_c, 5, 61, 0
10, 224160, Note_on_c, 5, 58, 64
10, 224276, Note_on_c, 5, 58, 0
10, 224280, Note_on_c, 5, 55, 64
10, 224396, Note_on_c, 5, 55, 0
10, 224400, Note_on_c, 5, 52, 64
10, 224516, Note_on_c, 5, 52, 0
10, 224520, Note_on_c, 5, 49, 64
10, 224636, Note_on_c, 5, 49, 0
10, 224640, Note_on_c, 5, 38, 64
10, 224756, Note_on_c, 5, 38, 0
10, 224760, Note_on_c, 5, 39, 64
10, 224876, Note_on_c, 5, 39, 0
10, 224880, Note_on_c, 5, 38, 64
10, 224996, Note_on_c, 5, 38, 0
10, 225000, Note_on_c, 5, 50, 64
10, 225116, Note_on_c, 5, 50, 0
10, 225120, Note_on_c, 5, 58, 64
10, 225236, Note_on_c, 5, 58, 0
10, 225240, Note_on_c, 5, 55, 64
10, 225356, Note_on_c, 5, 55, 0
10, 225360, Note_on_c, 5, 50, 64
10, 225476, Note_on_c, 5, 50, 0
10, 225480, Note_on_c, 5, 46, 64
10, 225596, Note_on_c, 5, 46, 0
10, 225600, Note_on_c, 5, 38, 64
10, 225716, Note_on_c, 5, 38, 0
10, 225720, Note_on_c, 5, 39, 64
10, 225836, Note_on_c, 5, 39, 0
10, 225840, Note_on_c, 5, 38, 64
10, 225956, Note_on_c, 5, 38, 0
10, 225960, Note_on_c, 5, 62, 64
10, 226076, Note_on_c, 5, 62, 0
10, 226080, Note_on_c, 5, 58, 64
10, 226196, Note_on_c, 5, 58, 0
10, 226200, Note_on_c, 5, 55, 64
10, 226316, Note_on_c, 5, 55, 0
10, 226320, Note_on_c, 5, 50, 64
10, 226436, Note_on_c, 5, 50, 0
10, 226440, Note_on_c, 5, 46, 64
10, 226556, Note_on_c, 5, 46, 0
10, 226560, Note_on_c, 5, 38, 64
10, 226676, Note_on_c, 5, 38, 0
10, 226680, Note_on_c, 5, 39, 64
10, 226796, Note_on_c, 5, 39, 0
10, 226800, Note_on_c, 5, 38, 64
10, 226916, Note_on_c, 5, 38, 0
10, 226920, Note_on_c, 5, 63, 64
10, 227036, Note_on_c, 5, 63, 0
10, 227040, Note_on_c, 5, 60, 64
10, 227156, Note_on_c, 5, 60, 0
10, 227160, Note_on_c, 5, 57, 64
10, 227276, Note_on_c, 5, 57, 0
10, 227280, Note_on_c, 5, 54, 64
10, 227396, Note_on_c, 5, 54, 0
10, 227400, Note_on_c, 5, 50, 64
10, 227516, Note_on_c, 5, 50, 0
10, 227520, Note_on_c, 5, 38, 64
10, 227636, Note_on_c, 5, 38, 0
10, 227640, Note_on_c, 5, 39, 64
10, 227756, Note_on_c, 5, 39, 0
10, 227760, Note_on_c, 5, 38, 64
10, 227876, Note_on_c, 5, 38, 0
10, 227880, Note_on_c, 5, 63, 64
10, 227996, Note_on_c, 5, 63, 0
10, 228000, Note_on_c, 5, 60, 64
10, 228116, Note_on_c, 5, 60, 0
10, 228120, Note_on_c, 5, 57, 64
10, 228236, Note_on_c, 5, 57, 0
10, 228240, Note_on_c, 5, 54, 64
10, 228356, Note_on_c, 5, 54, 0
10, 228360, Note_on_c, 5, 50, 64
10, 228476, Note_on_c, 5, 50, 0
10, 228480, Note_on_c, 5, 43, 64
10, 228716, Note_on_c, 5, 43, 0
10, 230160, Note_on_c, 5, 55, 64
10, 230396, Note_on_c, 5, 55, 0
10, 230400, Note_on_c, 5, 41, 64
10, 230636, Note_on_c, 5, 41, 0
10, 232080, Note_on_c, 5, 53, 64
10, 232316, Note_on_c, 5, 53, 0
10, 232320, Note_on_c, 5, 39, 64
10, 232556, Note_on_c, 5, 39, 0
10, 234000, Note_on_c, 5, 51, 64
10, 234236, Note_on_c, 5, 51, 0
10, 234240, Note_on_c, 5, 38, 64
10, 234716, Note_on_c, 5, 38, 0
10, 234960, Note_on_c, 5, 50, 64
10, 235196, Note_on_c, 5, 50, 0
10, 235200, Note_on_c, 5, 38, 64
10, 235676, Note_on_c, 5, 38, 0
10, 235920, Note_on_c, 5, 50, 64
10, 236156, Note_on_c, 5, 50, 0
10, 236160, Note_on_c, 5, 36, 64
10, 236636, Note_on_c, 5, 36, 0
10, 236880, Note_on_c, 5, 48, 64
10, 237116, Note_on_c, 5, 48, 0
10, 237120, Note_on_c, 5, 46, 64
10, 237236, Note_on_c, 5, 46, 0
10, 237240, Note_on_c, 5, 50, 64
10, 237356, Note_on_c, 5, 50, 0
10, 237360, Note_on_c, 5, 43, 64
10, 237476, Note_on_c, 5, 43, 0
10, 237480, Note_on_c, 5, 45, 64
10, 237596, Note_on_c, 5, 45, 0
10, 237600, Note_on_c, 5, 46, 64
10, 237716, Note_on_c, 5, 46, 0
10, 237720, Note_on_c, 5, 48, 64
10, 237836, Note_on_c, 5, 48, 0
10, 237840, Note_on_c, 5, 50, 64
10, 237956, Note_on_c, 5, 50, 0
10, 237960, Note_on_c, 5, 52, 64
10, 238076, Note_on_c, 5, 52, 0
10, 238080, Note_on_c, 5, 54, 64
10, 238196, Note_on_c, 5, 54, 0
10, 238200, Note_on_c, 5, 57, 64
10, 238316, Note_on_c, 5, 57, 0
10, 238320, Note_on_c, 5, 50, 64
10, 238436, Note_on_c, 5, 50, 0
10, 238440, Note_on_c, 5, 52, 64
10, 238556, Note_on_c, 5, 52, 0
10, 238560, Note_on_c, 5, 54, 64
10, 238676, Note_on_c, 5, 54, 0
10, 238680, Note_on_c, 5, 55, 64
10, 238796, Note_on_c, 5, 55, 0
10, 238800, Note_on_c, 5, 57, 64
10, 238916, Note_on_c, 5, 57, 0
10, 238920, Note_on_c, 5, 58, 64
10, 239036, Note_on_c, 5, 58, 0
10, 239040, Note_on_c, 5, 60, 64
10, 239156, Note_on_c, 5, 60, 0
10, 239160, Note_on_c, 5, 57, 64
10, 239276, Note_on_c, 5, 57, 0
10, 239280, Note_on_c, 5, 54, 64
10, 239396, Note_on_c, 5, 54, 0
10, 239400, Note_on_c, 5, 55, 64
10, 239516, Note_on_c, 5, 55, 0
10, 239520, Note_on_c, 5, 57, 64
10, 239636, Note_on_c, 5, 57, 0
10, 239640, Note_on_c, 5, 58, 64
10, 239756, Note_on_c, 5, 58, 0
10, 239760, Note_on_c, 5, 60, 64
10, 239876, Note_on_c, 5, 60, 0
10, 239880, Note_on_c, 5, 62, 64
10, 239996, Note_on_c, 5, 62, 0
10, 240000, Note_on_c, 5, 63, 64
10, 240356, Note_on_c, 5, 63, 0
10, 240360, Note_on_c, 5, 62, 64
10, 240476, Note_on_c, 5, 62, 0
10, 240480, Note_on_c, 5, 60, 64
10, 240596, Note_on_c, 5, 60, 0
10, 240600, Note_on_c, 5, 58, 64
10, 240716, Note_on_c, 5, 58, 0
10, 240720, Note_on_c, 5, 57, 64
10, 240836, Note_on_c, 5, 57, 0
10, 240840, Note_on_c, 5, 55, 64
10, 240956, Note_on_c, 5, 55, 0
10, 240960, Note_on_c, 5, 54, 64
10, 241196, Note_on_c, 5, 54, 0
10, 241200, Note_on_c, 5, 57, 64
10, 241436, Note_on_c, 5, 57, 0
10, 241440, Note_on_c, 5, 62, 64
10, 241676, Note_on_c, 5, 62, 0
10, 241680, Note_on_c, 5, 50, 64
10, 241916, Note_on_c, 5, 50, 0
10, 241920, Note_on_c, 5, 43, 64
10, 242156, Note_on_c, 5, 43, 0
10, 242160, Note_on_c, 5, 55, 64
10, 242396, Note_on_c, 5, 55, 0
10, 242400, Note_on_c, 5, 55, 64
10, 242636, Note_on_c, 5, 55, 0
10, 242640, Note_on_c, 5, 43, 64
10, 242876, Note_on_c, 5, 43, 0
10, 242880, Note_on_c, 5, 43, 64
10, 243116, Note_on_c, 5, 43, 0
10, 243120, Note_on_c, 5, 55, 64
10, 243356, Note_on_c, 5, 55, 0
10, 243360, Note_on_c, 5, 55, 64
10, 243596, Note_on_c, 5, 55, 0
10, 243600, Note_on_c, 5, 43, 64
10, 243836, Note_on_c, 5, 43, 0
10, 243840, Note_on_c, 5, 43, 64
10, 244076, Note_on_c, 5, 43, 0
10, 244080, Note_on_c, 5, 55, 64
10, 244196, Note_on_c, 5, 55, 0
10, 244200, Note_on_c, 5, 54, 64
10, 244316, Note_on_c, 5, 54, 0
10, 244320, Note_on_c, 5, 52, 64
10, 244556, Note_on_c, 5, 52, 0
10, 244560, Note_on_c, 5, 57, 64
10, 244796, Note_on_c, 5, 57, 0
10, 244800, Note_on_c, 5, 50, 64
10, 245036, Note_on_c, 5, 50, 0
10, 245040, Note_on_c, 5, 62, 64
10, 245156, Note_on_c, 5, 62, 0
10, 245160, Note_on_c, 5, 61, 64
10, 245276, Note_on_c, 5, 61, 0
10, 245280, Note_on_c, 5, 62, 64
10, 245516, Note_on_c, 5, 62, 0
10, 245520, Note_on_c, 5, 50, 64
10, 245756, Note_on_c, 5, 50, 0
10, 245760, Note_on_c, 5, 50, 64
10, 245996, Note_on_c, 5, 50, 0
10, 246000, Note_on_c, 5, 62, 64
10, 246116, Note_on_c, 5, 62, 0
10, 246120, Note_on_c, 5, 61, 64
10, 246236, Note_on_c, 5, 61, 0
10, 246240, Note_on_c, 5, 62, 64
10, 246476, Note_on_c, 5, 62, 0
10, 246480, Note_on_c, 5, 50, 64
10, 246716, Note_on_c, 5, 50, 0
10, 246720, Note_on_c, 5, 50, 64
10, 246956, Note_on_c, 5, 50, 0
10, 246960, Note_on_c, 5, 62, 64
10, 247076, Note_on_c, 5, 62, 0
10, 247080, Note_on_c, 5, 61, 64
10, 247196, Note_on_c, 5, 61, 0
10, 247200, Note_on_c, 5, 62, 64
10, 247436, Note_on_c, 5, 62, 0
10, 247440, Note_on_c, 5, 54, 64
10, 247676, Note_on_c, 5, 54, 0
10, 247680, Note_on_c, 5, 55, 64
10, 247916, Note_on_c, 5, 55, 0
10, 247920, Note_on_c, 5, 52, 64
10, 248156, Note_on_c, 5, 52, 0
10, 248160, Note_on_c, 5, 48, 64
10, 248396, Note_on_c, 5, 48, 0
10, 248400, Note_on_c, 5, 50, 64
10, 248636, Note_on_c, 5, 50, 0
10, 248640, Note_on_c, 5, 52, 64
10, 248876, Note_on_c, 5, 52, 0
10, 248880, Note_on_c, 5, 50, 64
10, 248996, Note_on_c, 5, 50, 0
10, 249000, Note_on_c, 5, 48, 64
10, 249116, Note_on_c, 5, 48, 0
10, 249120, Note_on_c, 5, 47, 64
10, 249356, Note_on_c, 5, 47, 0
10, 249360, Note_on_c, 5, 45, 64
10, 249476, Note_on_c, 5, 45, 0
10, 249480, Note_on_c, 5, 43, 64
10, 249596, Note_on_c, 5, 43, 0
10, 249600, Note_on_c, 5, 48, 64
10, 249836, Note_on_c, 5, 48, 0
10, 249840, Note_on_c, 5, 47, 64
10, 249956, Note_on_c, 5, 47, 0
10, 249960, Note_on_c, 5, 45, 64
10, 250076, Note_on_c, 5, 45, 0
10, 250080, Note_on_c, 5, 43, 64
10, 250316, Note_on_c, 5, 43, 0
10, 250320, Note_on_c, 5, 55, 64
10, 250436, Note_on_c, 5, 55, 0
10, 250440, Note_on_c, 5, 54, 64
10, 250556, Note_on_c, 5, 54, 0
10, 250560, Note_on_c, 5, 52, 64
10, 250796, Note_on_c, 5, 52, 0
10, 250800, Note_on_c, 5, 50, 64
10, 250916, Note_on_c, 5, 50, 0
10, 250920, Note_on_c, 5, 48, 64
10, 251036, Note_on_c, 5, 48, 0
10, 251040, Note_on_c, 5, 47, 64
10, 251276, Note_on_c, 5, 47, 0
10, 251280, Note_on_c, 5, 49, 64
10, 251516, Note_on_c, 5, 49, 0
10, 251520, Note_on_c, 5, 50, 64
10, 251756, Note_on_c, 5, 50, 0
10, 251760, Note_on_c, 5, 38, 64
10, 251996, Note_on_c, 5, 38, 0
10, 252000, Note_on_c, 5, 38, 64
10, 252236, Note_on_c, 5, 38, 0
10, 252240, Note_on_c, 5, 50, 64
10, 252356, Note_on_c, 5, 50, 0
10, 252360, Note_on_c, 5, 52, 64
10, 252476, Note_on_c, 5, 52, 0
10, 252480, Note_on_c, 5, 54, 64
10, 252716, Note_on_c, 5, 54, 0
10, 252720, Note_on_c, 5, 55, 64
10, 252956, Note_on_c, 5, 55, 0
10, 252960, Note_on_c, 5, 57, 64
10, 253196, Note_on_c, 5, 57, 0
10, 253200, Note_on_c, 5, 54, 64
10, 253436, Note_on_c, 5, 54, 0
10, 253440, Note_on_c, 5, 55, 64
10, 253676, Note_on_c, 5, 55, 0
10, 253680, Note_on_c, 5, 48, 64
10, 253916, Note_on_c, 5, 48, 0
10, 253920, Note_on_c, 5, 50, 64
10, 254156, Note_on_c, 5, 50, 0
10, 254160, Note_on_c, 5, 50, 64
10, 254396, Note_on_c, 5, 50, 0
10, 254400, Note_on_c, 5, 55, 64
10, 254636, Note_on_c, 5, 55, 0
10, 254640, Note_on_c, 5, 47, 64
10, 254756, Note_on_c, 5, 47, 0
10, 254760, Note_on_c, 5, 45, 64
10, 254876, Note_on_c, 5, 45, 0
10, 254880, Note_on_c, 5, 47, 64
10, 255116, Note_on_c, 5, 47, 0
10, 255120, Note_on_c, 5, 50, 64
10, 255236, Note_on_c, 5, 50, 0
10, 255240, Note_on_c, 5, 48, 64
10, 255356, Note_on_c, 5, 48, 0
10, 255360, Note_on_c, 5, 50, 64
10, 255360, Note_on_c, 5, 59, 64
10, 255596, Note_on_c, 5, 59, 0
10, 255596, Note_on_c, 5, 50, 0
10, 259920, Note_on_c, 5, 50, 64
10, 260156, Note_on_c, 5, 50, 0
10, 260160, Note_on_c, 5, 55, 64
10, 260396, Note_on_c, 5, 55, 0
10, 260400, Note_on_c, 5, 54, 64
10, 260516, Note_on_c, 5, 54, 0
10, 260520, Note_on_c, 5, 52, 64
10, 260636, Note_on_c, 5, 52, 0
10, 260640, Note_on_c, 5, 50, 64
10, 260756, Note_on_c, 5, 50, 0
10, 260760, Note_on_c, 5, 48, 64
10, 260876, Note_on_c, 5, 48, 0
10, 260880, Note_on_c, 5, 47, 64
10, 260996, Note_on_c, 5, 47, 0
10, 261000, Note_on_c, 5, 45, 64
10, 261116, Note_on_c, 5, 45, 0
10, 261120, Note_on_c, 5, 47, 64
10, 261356, Note_on_c, 5, 47, 0
10, 261360, Note_on_c, 5, 45, 64
10, 261476, Note_on_c, 5, 45, 0
10, 261480, Note_on_c, 5, 43, 64
10, 261596, Note_on_c, 5, 43, 0
10, 261600, Note_on_c, 5, 50, 64
10, 261836, Note_on_c, 5, 50, 0
10, 261840, Note_on_c, 5, 38, 64
10, 262076, Note_on_c, 5, 38, 0
10, 262080, Note_on_c, 5, 43, 64
10, 263036, Note_on_c, 5, 43, 0
10, 263040, Note_on_c, 5, 48, 64
10, 263996, Note_on_c, 5, 48, 0
10, 264000, Note_on_c, 5, 47, 64
10, 264956, Note_on_c, 5, 47, 0
10, 269280, Note_on_c, 5, 55, 64
10, 269396, Note_on_c, 5, 55, 0
10, 269400, Note_on_c, 5, 54, 64
10, 269516, Note_on_c, 5, 54, 0
10, 269520, Note_on_c, 5, 55, 64
10, 269636, Note_on_c, 5, 55, 0
10, 269640, Note_on_c, 5, 57, 64
10, 269756, Note_on_c, 5, 57, 0
10, 269760, Note_on_c, 5, 59, 64
10, 269876, Note_on_c, 5, 59, 0
10, 269880, Note_on_c, 5, 60, 64
10, 269996, Note_on_c, 5, 60, 0
10, 270000, Note_on_c, 5, 62, 64
10, 270116, Note_on_c, 5, 62, 0
10, 270120, Note_on_c, 5, 64, 64
10, 270236, Note_on_c, 5, 64, 0
10, 270240, Note_on_c, 5, 62, 64
10, 270356, Note_on_c, 5, 62, 0
10, 270360, Note_on_c, 5, 60, 64
10, 270476, Note_on_c, 5, 60, 0
10, 270480, Note_on_c, 5, 59, 64
10, 270596, Note_on_c, 5, 59, 0
10, 270600, Note_on_c, 5, 57, 64
10, 270716, Note_on_c, 5, 57, 0
10, 270720, Note_on_c, 5, 55, 64
10, 270836, Note_on_c, 5, 55, 0
10, 270840, Note_on_c, 5, 54, 64
10, 270956, Note_on_c, 5, 54, 0
10, 270960, Note_on_c, 5, 55, 64
10, 271076, Note_on_c, 5, 55, 0
10, 271080, Note_on_c, 5, 57, 64
10, 271196, Note_on_c, 5, 57, 0
10, 271200, Note_on_c, 5, 59, 64
10, 271316, Note_on_c, 5, 59, 0
10, 271320, Note_on_c, 5, 55, 64
10, 271436, Note_on_c, 5, 55, 0
10, 271440, Note_on_c, 5, 60, 64
10, 271556, Note_on_c, 5, 60, 0
10, 271560, Note_on_c, 5, 62, 64
10, 271676, Note_on_c, 5, 62, 0
10, 271680, Note_on_c, 5, 60, 64
10, 271796, Note_on_c, 5, 60, 0
10, 271800, Note_on_c, 5, 59, 64
10, 271916, Note_on_c, 5, 59, 0
10, 271920, Note_on_c, 5, 57, 64
10, 272036, Note_on_c, 5, 57, 0
10, 272040, Note_on_c, 5, 55, 64
10, 272156, Note_on_c, 5, 55, 0
10, 272160, Note_on_c, 5, 54, 64
10, 272276, Note_on_c, 5, 54, 0
10, 272280, Note_on_c, 5, 52, 64
10, 272396, Note_on_c, 5, 52, 0
10, 272400, Note_on_c, 5, 54, 64
10, 272516, Note_on_c, 5, 54, 0
10, 272520, Note_on_c, 5, 55, 64
10, 272636, Note_on_c, 5, 55, 0
10, 272640, Note_on_c, 5, 57, 64
10, 272756, Note_on_c, 5, 57, 0
10, 272760, Note_on_c, 5, 54, 64
10, 272876, Note_on_c, 5, 54, 0
10, 272880, Note_on_c, 5, 59, 64
10, 272996, Note_on_c, 5, 59, 0
10, 273000, Note_on_c, 5, 61, 64
10, 273116, Note_on_c, 5, 61, 0
10, 273120, Note_on_c, 5, 59, 64
10, 273236, Note_on_c, 5, 59, 0
10, 273240, Note_on_c, 5, 57, 64
10, 273356, Note_on_c, 5, 57, 0
10, 273360, Note_on_c, 5, 55, 64
10, 273476, Note_on_c, 5, 55, 0
10, 273480, Note_on_c, 5, 54, 64
10, 273596, Note_on_c, 5, 54, 0
10, 273600, Note_on_c, 5, 52, 64
10, 273716, Note_on_c, 5, 52, 0
10, 273720, Note_on_c, 5, 50, 64
10, 273836, Note_on_c, 5, 50, 0
10, 273840, Note_on_c, 5, 52, 64
10, 273956, Note_on_c, 5, 52, 0
10, 273960, Note_on_c, 5, 54, 64
10, 274076, Note_on_c, 5, 54, 0
10, 274080, Note_on_c, 5, 55, 64
10, 274196, Note_on_c, 5, 55, 0
10, 274200, Note_on_c, 5, 52, 64
10, 274316, Note_on_c, 5, 52, 0
10, 274320, Note_on_c, 5, 57, 64
10, 274436, Note_on_c, 5, 57, 0
10, 274440, Note_on_c, 5, 59, 64
10, 274556, Note_on_c, 5, 59, 0
10, 274560, Note_on_c, 5, 57, 64
10, 274676, Note_on_c, 5, 57, 0
10, 274680, Note_on_c, 5, 55, 64
10, 274796, Note_on_c, 5, 55, 0
10, 274800, Note_on_c, 5, 54, 64
10, 274916, Note_on_c, 5, 54, 0
10, 274920, Note_on_c, 5, 52, 64
10, 275036, Note_on_c, 5, 52, 0
10, 275040, Note_on_c, 5, 50, 64
10, 275516, Note_on_c, 5, 50, 0
10, 275760, Note_on_c, 5, 45, 64
10, 276236, Note_on_c, 5, 45, 0
10, 276480, Note_on_c, 5, 38, 64
10, 276956, Note_on_c, 5, 38, 0
10, 277200, Note_on_c, 5, 45, 64
10, 277676, Note_on_c, 5, 45, 0
10, 277920, Note_on_c, 5, 50, 64
10, 278156, Note_on_c, 5, 50, 0
10, 278160, Note_on_c, 5, 54, 64
10, 278396, Note_on_c, 5, 54, 0
10, 278400, Note_on_c, 5, 57, 64
10, 278636, Note_on_c, 5, 57, 0
10, 278640, Note_on_c, 5, 45, 64
10, 278876, Note_on_c, 5, 45, 0
10, 278880, Note_on_c, 5, 52, 64
10, 279116, Note_on_c, 5, 52, 0
10, 279120, Note_on_c, 5, 57, 64
10, 279356, Note_on_c, 5, 57, 0
10, 279360, Note_on_c, 5, 50, 64
10, 279476, Note_on_c, 5, 50, 0
10, 279480, Note_on_c, 5, 49, 64
10, 279596, Note_on_c, 5, 49, 0
10, 279600, Note_on_c, 5, 50, 64
10, 279716, Note_on_c, 5, 50, 0
10, 279720, Note_on_c, 5, 52, 64
10, 279836, Note_on_c, 5, 52, 0
10, 279840, Note_on_c, 5, 54, 64
10, 279956, Note_on_c, 5, 54, 0
10, 279960, Note_on_c, 5, 55, 64
10, 280076, Note_on_c, 5, 55, 0
10, 280080, Note_on_c, 5, 57, 64
10, 280196, Note_on_c, 5, 57, 0
10, 280200, Note_on_c, 5, 59, 64
10, 280316, Note_on_c, 5, 59, 0
10, 280320, Note_on_c, 5, 57, 64
10, 280436, Note_on_c, 5, 57, 0
10, 280440, Note_on_c, 5, 55, 64
10, 280556, Note_on_c, 5, 55, 0
10, 280560, Note_on_c, 5, 54, 64
10, 280676, Note_on_c, 5, 54, 0
10, 280680, Note_on_c, 5, 52, 64
10, 280796, Note_on_c, 5, 52, 0
10, 280800, Note_on_c, 5, 50, 64
10, 280916, Note_on_c, 5, 50, 0
10, 280920, Note_on_c, 5, 49, 64
10, 281036, Note_on_c, 5, 49, 0
10, 281040, Note_on_c, 5, 50, 64
10, 281156, Note_on_c, 5, 50, 0
10, 281160, Note_on_c, 5, 52, 64
10, 281276, Note_on_c, 5, 52, 0
10, 281280, Note_on_c, 5, 54, 64
10, 281396, Note_on_c, 5, 54, 0
10, 281400, Note_on_c, 5, 50, 64
10, 281516, Note_on_c, 5, 50, 0
10, 281520, Note_on_c, 5, 55, 64
10, 281636, Note_on_c, 5, 55, 0
10, 281640, Note_on_c, 5, 57, 64
10, 281756, Note_on_c, 5, 57, 0
10, 281760, Note_on_c, 5, 55, 64
10, 281876, Note_on_c, 5, 55, 0
10, 281880, Note_on_c, 5, 54, 64
10, 281996, Note_on_c, 5, 54, 0
10, 282000, Note_on_c, 5, 52, 64
10, 282116, Note_on_c, 5, 52, 0
10, 282120, Note_on_c, 5, 50, 64
10, 282236, Note_on_c, 5, 50, 0
10, 282240, Note_on_c, 5, 49, 64
10, 282356, Note_on_c, 5, 49, 0
10, 282360, Note_on_c, 5, 47, 64
10, 282476, Note_on_c, 5, 47, 0
10, 282480, Note_on_c, 5, 49, 64
10, 282596, Note_on_c, 5, 49, 0
10, 282600, Note_on_c, 5, 50, 64
10, 282716, Note_on_c, 5, 50, 0
10, 282720, Note_on_c, 5, 52, 64
10, 282836, Note_on_c, 5, 52, 0
10, 282840, Note_on_c, 5, 49, 64
10, 282956, Note_on_c, 5, 49, 0
10, 282960, Note_on_c, 5, 54, 64
10, 283076, Note_on_c, 5, 54, 0
10, 283080, Note_on_c, 5, 55, 64
10, 283196, Note_on_c, 5, 55, 0
10, 283200, Note_on_c, 5, 54, 64
10, 283316, Note_on_c, 5, 54, 0
10, 283320, Note_on_c, 5, 52, 64
10, 283436, Note_on_c, 5, 52, 0
10, 283440, Note_on_c, 5, 50, 64
10, 283556, Note_on_c, 5, 50, 0
10, 283560, Note_on_c, 5, 49, 64
10, 283676, Note_on_c, 5, 49, 0
10, 283680, Note_on_c, 5, 47, 64
10, 283796, Note_on_c, 5, 47, 0
10, 283800, Note_on_c, 5, 45, 64
10, 283916, Note_on_c, 5, 45, 0
10, 283920, Note_on_c, 5, 47, 64
10, 284036, Note_on_c, 5, 47, 0
10, 284040, Note_on_c, 5, 49, 64
10, 284156, Note_on_c, 5, 49, 0
10, 284160, Note_on_c, 5, 50, 64
10, 284276, Note_on_c, 5, 50, 0
10, 284280, Note_on_c, 5, 47, 64
10, 284396, Note_on_c, 5, 47, 0
10, 284400, Note_on_c, 5, 52, 64
10, 284516, Note_on_c, 5, 52, 0
10, 284520, Note_on_c, 5, 54, 64
10, 284636, Note_on_c, 5, 54, 0
10, 284640, Note_on_c, 5, 52, 64
10, 284756, Note_on_c, 5, 52, 0
10, 284760, Note_on_c, 5, 50, 64
10, 284876, Note_on_c, 5, 50, 0
10, 284880, Note_on_c, 5, 49, 64
10, 284996, Note_on_c, 5, 49, 0
10, 285000, Note_on_c, 5, 47, 64
10, 285116, Note_on_c, 5, 47, 0
10, 285120, Note_on_c, 5, 45, 64
10, 285356, Note_on_c, 5, 45, 0
10, 285360, Note_on_c, 5, 45, 64
10, 285596, Note_on_c, 5, 45, 0
10, 285600, Note_on_c, 5, 45, 64
10, 285836, Note_on_c, 5, 45, 0
10, 285840, Note_on_c, 5, 45, 64
10, 286076, Note_on_c, 5, 45, 0
10, 286080, Note_on_c, 5, 45, 64
10, 286316, Note_on_c, 5, 45, 0
10, 286320, Note_on_c, 5, 45, 64
10, 286556, Note_on_c, 5, 45, 0
10, 286560, Note_on_c, 5, 45, 64
10, 286796, Note_on_c, 5, 45, 0
10, 286800, Note_on_c, 5, 45, 64
10, 287036, Note_on_c, 5, 45, 0
10, 287040, Note_on_c, 5, 45, 64
10, 287276, Note_on_c, 5, 45, 0
10, 287280, Note_on_c, 5, 45, 64
10, 287516, Note_on_c, 5, 45, 0
10, 287520, Note_on_c, 5, 45, 64
10, 287756, Note_on_c, 5, 45, 0
10, 287760, Note_on_c, 5, 45, 64
10, 287996, Note_on_c, 5, 45, 0
10, 288000, Note_on_c, 5, 45, 64
10, 288236, Note_on_c, 5, 45, 0
10, 288240, Note_on_c, 5, 45, 64
10, 288476, Note_on_c, 5, 45, 0
10, 288480, Note_on_c, 5, 45, 64
10, 288716, Note_on_c, 5, 45, 0
10, 288720, Note_on_c, 5, 45, 64
10, 288956, Note_on_c, 5, 45, 0
10, 288960, Note_on_c, 5, 45, 64
10, 289196, Note_on_c, 5, 45, 0
10, 289200, Note_on_c, 5, 45, 64
10, 289436, Note_on_c, 5, 45, 0
10, 289440, Note_on_c, 5, 45, 64
10, 289676, Note_on_c, 5, 45, 0
10, 289680, Note_on_c, 5, 45, 64
10, 289916, Note_on_c, 5, 45, 0
10, 289920, Note_on_c, 5, 45, 64
10, 290156, Note_on_c, 5, 45, 0
10, 290160, Note_on_c, 5, 45, 64
10, 290396, Note_on_c, 5, 45, 0
10, 290400, Note_on_c, 5, 45, 64
10, 290636, Note_on_c, 5, 45, 0
10, 290640, Note_on_c, 5, 45, 64
10, 290876, Note_on_c, 5, 45, 0
10, 290880, Note_on_c, 5, 45, 64
10, 291116, Note_on_c, 5, 45, 0
10, 291120, Note_on_c, 5, 49, 64
10, 291356, Note_on_c, 5, 49, 0
10, 291360, Note_on_c, 5, 52, 64
10, 291596, Note_on_c, 5, 52, 0
10, 291600, Note_on_c, 5, 49, 64
10, 291836, Note_on_c, 5, 49, 0
10, 291840, Note_on_c, 5, 52, 64
10, 292076, Note_on_c, 5, 52, 0
10, 292080, Note_on_c, 5, 57, 64
10, 292316, Note_on_c, 5, 57, 0
10, 292320, Note_on_c, 5, 50, 64
10, 292556, Note_on_c, 5, 50, 0
10, 292560, Note_on_c, 5, 54, 64
10, 292796, Note_on_c, 5, 54, 0
10, 292800, Note_on_c, 5, 57, 64
10, 293036, Note_on_c, 5, 57, 0
10, 293040, Note_on_c, 5, 54, 64
10, 293276, Note_on_c, 5, 54, 0
10, 293280, Note_on_c, 5, 57, 64
10, 293516, Note_on_c, 5, 57, 0
10, 293520, Note_on_c, 5, 62, 64
10, 293756, Note_on_c, 5, 62, 0
10, 293760, Note_on_c, 5, 43, 64
10, 294236, Note_on_c, 5, 43, 0
10, 295200, Note_on_c, 5, 55, 64
10, 295676, Note_on_c, 5, 55, 0
10, 296640, Note_on_c, 5, 54, 64
10, 296876, Note_on_c, 5, 54, 0
10, 296880, Note_on_c, 5, 52, 64
10, 297116, Note_on_c, 5, 52, 0
10, 297120, Note_on_c, 5, 50, 64
10, 297356, Note_on_c, 5, 50, 0
10, 297360, Note_on_c, 5, 57, 64
10, 297836, Note_on_c, 5, 57, 0
10, 297840, Note_on_c, 5, 45, 64
10, 298076, Note_on_c, 5, 45, 0
10, 298080, Note_on_c, 5, 38, 64
10, 299516, Note_on_c, 5, 38, 0
10, 303840, Note_on_c, 5, 55, 64
10, 303956, Note_on_c, 5, 55, 0
10, 303960, Note_on_c, 5, 54, 64
10, 304076, Note_on_c, 5, 54, 0
10, 304080, Note_on_c, 5, 55, 64
10, 304196, Note_on_c, 5, 55, 0
10, 304200, Note_on_c, 5, 57, 64
10, 304316, Note_on_c, 5, 57, 0
10, 304320, Note_on_c, 5, 59, 64
10, 304436, Note_on_c, 5, 59, 0
10, 304440, Note_on_c, 5, 60, 64
10, 304556, Note_on_c, 5, 60, 0
10, 304560, Note_on_c, 5, 62, 64
10, 304676, Note_on_c, 5, 62, 0
10, 304680, Note_on_c, 5, 64, 64
10, 304796, Note_on_c, 5, 64, 0
10, 304800, Note_on_c, 5, 62, 64
10, 304916, Note_on_c, 5, 62, 0
10, 304920, Note_on_c, 5, 60, 64
10, 305036, Note_on_c, 5, 60, 0
10, 305040, Note_on_c, 5, 59, 64
10, 305156, Note_on_c, 5, 59, 0
10, 305160, Note_on_c, 5, 57, 64
10, 305276, Note_on_c, 5, 57, 0
10, 305280, Note_on_c, 5, 55, 64
10, 305396, Note_on_c, 5, 55, 0
10, 305400, Note_on_c, 5, 54, 64
10, 305516, Note_on_c, 5, 54, 0
10, 305520, Note_on_c, 5, 55, 64
10, 305636, Note_on_c, 5, 55, 0
10, 305640, Note_on_c, 5, 57, 64
10, 305756, Note_on_c, 5, 57, 0
10, 305760, Note_on_c, 5, 59, 64
10, 305876, Note_on_c, 5, 59, 0
10, 305880, Note_on_c, 5, 55, 64
10, 305996, Note_on_c, 5, 55, 0
10, 306000, Note_on_c, 5, 60, 64
10, 306116, Note_on_c, 5, 60, 0
10, 306120, Note_on_c, 5, 62, 64
10, 306236, Note_on_c, 5, 62, 0
10, 306240, Note_on_c, 5, 60, 64
10, 306356, Note_on_c, 5, 60, 0
10, 306360, Note_on_c, 5, 59, 64
10, 306476, Note_on_c, 5, 59, 0
10, 306480, Note_on_c, 5, 57, 64
10, 306596, Note_on_c, 5, 57, 0
10, 306600, Note_on_c, 5, 55, 64
10, 306716, Note_on_c, 5, 55, 0
10, 306720, Note_on_c, 5, 54, 64
10, 306836, Note_on_c, 5, 54, 0
10, 306840, Note_on_c, 5, 52, 64
10, 306956, Note_on_c, 5, 52, 0
10, 306960, Note_on_c, 5, 54, 64
10, 307076, Note_on_c, 5, 54, 0
10, 307080, Note_on_c, 5, 55, 64
10, 307196, Note_on_c, 5, 55, 0
10, 307200, Note_on_c, 5, 57, 64
10, 307316, Note_on_c, 5, 57, 0
10, 307320, Note_on_c, 5, 54, 64
10, 307436, Note_on_c, 5, 54, 0
10, 307440, Note_on_c, 5, 59, 64
10, 307556, Note_on_c, 5, 59, 0
10, 307560, Note_on_c, 5, 61, 64
10, 307676, Note_on_c, 5, 61, 0
10, 307680, Note_on_c, 5, 59, 64
10, 307796, Note_on_c, 5, 59, 0
10, 307800, Note_on_c, 5, 57, 64
10, 307916, Note_on_c, 5, 57, 0
10, 307920, Note_on_c, 5, 55, 64
10, 308036, Note_on_c, 5, 55, 0
10, 308040, Note_on_c, 5, 54, 64
10, 308156, Note_on_c, 5, 54, 0
10, 308160, Note_on_c, 5, 52, 64
10, 308276, Note_on_c, 5, 52, 0
10, 308280, Note_on_c, 5, 50, 64
10, 308396, Note_on_c, 5, 50, 0
10, 308400, Note_on_c, 5, 52, 64
10, 308516, Note_on_c, 5, 52, 0
10, 308520, Note_on_c, 5, 54, 64
10, 308636, Note_on_c, 5, 54, 0
10, 308640, Note_on_c, 5, 55, 64
10, 308756, Note_on_c, 5, 55, 0
10, 308760, Note_on_c, 5, 52, 64
10, 308876, Note_on_c, 5, 52, 0
10, 308880, Note_on_c, 5, 57, 64
10, 308996, Note_on_c, 5, 57, 0
10, 309000, Note_on_c, 5, 59, 64
10, 309116, Note_on_c, 5, 59, 0
10, 309120, Note_on_c, 5, 57, 64
10, 309236, Note_on_c, 5, 57, 0
10, 309240, Note_on_c, 5, 55, 64
10, 309356, Note_on_c, 5, 55, 0
10, 309360, Note_on_c, 5, 54, 64
10, 309476, Note_on_c, 5, 54, 0
10, 309480, Note_on_c, 5, 52, 64
10, 309596, Note_on_c, 5, 52, 0
10, 309600, Note_on_c, 5, 50, 64
10, 310076, Note_on_c, 5, 50, 0
10, 310320, Note_on_c, 5, 45, 64
10, 310796, Note_on_c, 5, 45, 0
10, 311040, Note_on_c, 5, 38, 64
10, 311516, Note_on_c, 5, 38, 0
10, 311760, Note_on_c, 5, 45, 64
10, 312236, Note_on_c, 5, 45, 0
10, 312480, Note_on_c, 5, 50, 64
10, 312716, Note_on_c, 5, 50, 0
10, 312720, Note_on_c, 5, 54, 64
10, 312956, Note_on_c, 5, 54, 0
10, 312960, Note_on_c, 5, 57, 64
10, 313196, Note_on_c, 5, 57, 0
10, 313200, Note_on_c, 5, 45, 64
10, 313436, Note_on_c, 5, 45, 0
10, 313440, Note_on_c, 5, 52, 64
10, 313676, Note_on_c, 5, 52, 0
10, 313680, Note_on_c, 5, 57, 64
10, 313916, Note_on_c, 5, 57, 0
10, 313920, Note_on_c, 5, 50, 64
10, 314036, Note_on_c, 5, 50, 0
10, 314040, Note_on_c, 5, 49, 64
10, 314156, Note_on_c, 5, 49, 0
10, 314160, Note_on_c, 5, 50, 64
10, 314276, Note_on_c, 5, 50, 0
10, 314280, Note_on_c, 5, 52, 64
10, 314396, Note_on_c, 5, 52, 0
10, 314400, Note_on_c, 5, 54, 64
10, 314516, Note_on_c, 5, 54, 0
10, 314520, Note_on_c, 5, 55, 64
10, 314636, Note_on_c, 5, 55, 0
10, 314640, Note_on_c, 5, 57, 64
10, 314756, Note_on_c, 5, 57, 0
10, 314760, Note_on_c, 5, 59, 64
10, 314876, Note_on_c, 5, 59, 0
10, 314880, Note_on_c, 5, 57, 64
10, 314996, Note_on_c, 5, 57, 0
10, 315000, Note_on_c, 5, 55, 64
10, 315116, Note_on_c, 5, 55, 0
10, 315120, Note_on_c, 5, 54, 64
10, 315236, Note_on_c, 5, 54, 0
10, 315240, Note_on_c, 5, 52, 64
10, 315356, Note_on_c, 5, 52, 0
10, 315360, Note_on_c, 5, 50, 64
10, 315476, Note_on_c, 5, 50, 0
10, 315480, Note_on_c, 5, 49, 64
10, 315596, Note_on_c, 5, 49, 0
10, 315600, Note_on_c, 5, 50, 64
10, 315716, Note_on_c, 5, 50, 0
10, 315720, Note_on_c, 5, 52, 64
10, 315836, Note_on_c, 5, 52, 0
10, 315840, Note_on_c, 5, 54, 64
10, 315956, Note_on_c, 5, 54, 0
10, 315960, Note_on_c, 5, 50, 64
10, 316076, Note_on_c, 5, 50, 0
10, 316080, Note_on_c, 5, 55, 64
10, 316196, Note_on_c, 5, 55, 0
10, 316200, Note_on_c, 5, 57, 64
10, 316316, Note_on_c, 5, 57, 0
10, 316320, Note_on_c, 5, 55, 64
10, 316436, Note_on_c, 5, 55, 0
10, 316440, Note_on_c, 5, 54, 64
10, 316556, Note_on_c, 5, 54, 0
10, 316560, Note_on_c, 5, 52, 64
10, 316676, Note_on_c, 5, 52, 0
10, 316680, Note_on_c, 5, 50, 64
10, 316796, Note_on_c, 5, 50, 0
10, 316800, Note_on_c, 5, 49, 64
10, 316916, Note_on_c, 5, 49, 0
10, 316920, Note_on_c, 5, 47, 64
10, 317036, Note_on_c, 5, 47, 0
10, 317040, Note_on_c, 5, 49, 64
10, 317156, Note_on_c, 5, 49, 0
10, 317160, Note_on_c, 5, 50, 64
10, 317276, Note_on_c, 5, 50, 0
10, 317280, Note_on_c, 5, 52, 64
10, 317396, Note_on_c, 5, 52, 0
10, 317400, Note_on_c, 5, 49, 64
10, 317516, Note_on_c, 5, 49, 0
10, 317520, Note_on_c, 5, 54, 64
10, 317636, Note_on_c, 5, 54, 0
10, 317640, Note_on_c, 5, 55, 64
10, 317756, Note_on_c, 5, 55, 0
10, 317760, Note_on_c, 5, 54, 64
10, 317876, Note_on_c, 5, 54, 0
10, 317880, Note_on_c, 5, 52, 64
10, 317996, Note_on_c, 5, 52, 0
10, 318000, Note_on_c, 5, 50, 64
10, 318116, Note_on_c, 5, 50, 0
10, 318120, Note_on_c, 5, 49, 64
10, 318236, Note_on_c, 5, 49, 0
10, 318240, Note_on_c, 5, 47, 64
10, 318356, Note_on_c, 5, 47, 0
10, 318360, Note_on_c, 5, 45, 64
10, 318476, Note_on_c, 5, 45, 0
10, 318480, Note_on_c, 5, 47, 64
10, 318596, Note_on_c, 5, 47, 0
10, 318600, Note_on_c, 5, 49, 64
10, 318716, Note_on_c, 5, 49, 0
10, 318720, Note_on_c, 5, 50, 64
10, 318836, Note_on_c, 5, 50, 0
10, 318840, Note_on_c, 5, 47, 64
10, 318956, Note_on_c, 5, 47, 0
10, 318960, Note_on_c, 5, 52, 64
10, 319076, Note_on_c, 5, 52, 0
10, 319080, Note_on_c, 5, 54, 64
10, 319196, Note_on_c, 5, 54, 0
10, 319200, Note_on_c, 5, 52, 64
10, 319316, Note_on_c, 5, 52, 0
10, 319320, Note_on_c, 5, 50, 64
10, 319436, Note_on_c, 5, 50, 0
10, 319440, Note_on_c, 5, 49, 64
10, 319556, Note_on_c, 5, 49, 0
10, 319560, Note_on_c, 5, 47, 64
10, 319676, Note_on_c, 5, 47, 0
10, 319680, Note_on_c, 5, 45, 64
10, 319916, Note_on_c, 5, 45, 0
10, 319920, Note_on_c, 5, 45, 64
10, 320156, Note_on_c, 5, 45, 0
10, 320160, Note_on_c, 5, 45, 64
10, 320396, Note_on_c, 5, 45, 0
10, 320400, Note_on_c, 5, 45, 64
10, 320636, Note_on_c, 5, 45, 0
10, 320640, Note_on_c, 5, 45, 64
10, 320876, Note_on_c, 5, 45, 0
10, 320880, Note_on_c, 5, 45, 64
10, 321116, Note_on_c, 5, 45, 0
10, 321120, Note_on_c, 5, 45, 64
10, 321356, Note_on_c, 5, 45, 0
10, 321360, Note_on_c, 5, 45, 64
10, 321596, Note_on_c, 5, 45, 0
10, 321600, Note_on_c, 5, 45, 64
10, 321836, Note_on_c, 5, 45, 0
10, 321840, Note_on_c, 5, 45, 64
10, 322076, Note_on_c, 5, 45, 0
10, 322080, Note_on_c, 5, 45, 64
10, 322316, Note_on_c, 5, 45, 0
10, 322320, Note_on_c, 5, 45, 64
10, 322556, Note_on_c, 5, 45, 0
10, 322560, Note_on_c, 5, 45, 64
10, 322796, Note_on_c, 5, 45, 0
10, 322800, Note_on_c, 5, 45, 64
10, 323036, Note_on_c, 5, 45, 0
10, 323040, Note_on_c, 5, 45, 64
10, 323276, Note_on_c, 5, 45, 0
10, 323280, Note_on_c, 5, 45, 64
10, 323516, Note_on_c, 5, 45, 0
10, 323520, Note_on_c, 5, 45, 64
10, 323756, Note_on_c, 5, 45, 0
10, 323760, Note_on_c, 5, 45, 64
10, 323996, Note_on_c, 5, 45, 0
10, 324000, Note_on_c, 5, 45, 64
10, 324236, Note_on_c, 5, 45, 0
10, 324240, Note_on_c, 5, 45, 64
10, 324476, Note_on_c, 5, 45, 0
10, 324480, Note_on_c, 5, 45, 64
10, 324716, Note_on_c, 5, 45, 0
10, 324720, Note_on_c, 5, 45, 64
10, 324956, Note_on_c, 5, 45, 0
10, 324960, Note_on_c, 5, 45, 64
10, 325196, Note_on_c, 5, 45, 0
10, 325200, Note_on_c, 5, 45, 64
10, 325436, Note_on_c, 5, 45, 0
10, 325440, Note_on_c, 5, 45, 64
10, 325676, Note_on_c, 5, 45, 0
10, 325680, Note_on_c, 5, 49, 64
10, 325916, Note_on_c, 5, 49, 0
10, 325920, Note_on_c, 5, 52, 64
10, 326156, Note_on_c, 5, 52, 0
10, 326160, Note_on_c, 5, 49, 64
10, 326396, Note_on_c, 5, 49, 0
10, 326400, Note_on_c, 5, 52, 64
10, 326636, Note_on_c, 5, 52, 0
10, 326640, Note_on_c, 5, 57, 64
10, 326876, Note_on_c, 5, 57, 0
10, 326880, Note_on_c, 5, 50, 64
10, 327116, Note_on_c, 5, 50, 0
10, 327120, Note_on_c, 5, 54, 64
10, 327356, Note_on_c, 5, 54, 0
10, 327360, Note_on_c, 5, 57, 64
10, 327596, Note_on_c, 5, 57, 0
10, 327600, Note_on_c, 5, 54, 64
10, 327836, Note_on_c, 5, 54, 0
10, 327840, Note_on_c, 5, 57, 64
10, 328076, Note_on_c, 5, 57, 0
10, 328080, Note_on_c, 5, 62, 64
10, 328316, Note_on_c, 5, 62, 0
10, 328320, Note_on_c, 5, 43, 64
10, 328796, Note_on_c, 5, 43, 0
10, 329760, Note_on_c, 5, 55, 64
10, 330236, Note_on_c, 5, 55, 0
10, 331200, Note_on_c, 5, 54, 64
10, 331436, Note_on_c, 5, 54, 0
10, 331440, Note_on_c, 5, 52, 64
10, 331676, Note_on_c, 5, 52, 0
10, 331680, Note_on_c, 5, 50, 64
10, 331916, Note_on_c, 5, 50, 0
10, 331920, Note_on_c, 5, 57, 64
10, 332396, Note_on_c, 5, 57, 0
10, 332400, Note_on_c, 5, 45, 64
10, 332636, Note_on_c, 5, 45, 0
10, 332640, Note_on_c, 5, 38, 64
10, 334076, Note_on_c, 5, 38, 0
10, 334080, Note_on_c, 5, 50, 64
10, 334196, Note_on_c, 5, 50, 0
10, 334200, Note_on_c, 5, 49, 64
10, 334316, Note_on_c, 5, 49, 0
10, 334320, Note_on_c, 5, 50, 64
10, 334436, Note_on_c, 5, 50, 0
10, 334440, Note_on_c, 5, 52, 64
10, 334556, Note_on_c, 5, 52, 0
10, 334560, Note_on_c, 5, 54, 64
10, 334676, Note_on_c, 5, 54, 0
10, 334680, Note_on_c, 5, 55, 64
10, 334796, Note_on_c, 5, 55, 0
10, 334800, Note_on_c, 5, 57, 64
10, 334916, Note_on_c, 5, 57, 0
10, 334920, Note_on_c, 5, 59, 64
10, 335036, Note_on_c, 5, 59, 0
10, 335040, Note_on_c, 5, 57, 64
10, 335156, Note_on_c, 5, 57, 0
10, 335160, Note_on_c, 5, 55, 64
10, 335276, Note_on_c, 5, 55, 0
10, 335280, Note_on_c, 5, 54, 64
10, 335396, Note_on_c, 5, 54, 0
10, 335400, Note_on_c, 5, 52, 64
10, 335516, Note_on_c, 5, 52, 0
10, 335520, Note_on_c, 5, 54, 64
10, 335636, Note_on_c, 5, 54, 0
10, 335640, Note_on_c, 5, 57, 64
10, 335756, Note_on_c, 5, 57, 0
10, 335760, Note_on_c, 5, 55, 64
10, 335876, Note_on_c, 5, 55, 0
10, 335880, Note_on_c, 5, 54, 64
10, 335996, Note_on_c, 5, 54, 0
10, 336000, Note_on_c, 5, 52, 64
10, 336116, Note_on_c, 5, 52, 0
10, 336120, Note_on_c, 5, 50, 64
10, 336236, Note_on_c, 5, 50, 0
10, 336240, Note_on_c, 5, 49, 64
10, 336356, Note_on_c, 5, 49, 0
10, 336360, Note_on_c, 5, 52, 64
10, 336476, Note_on_c, 5, 52, 0
10, 336480, Note_on_c, 5, 50, 64
10, 336596, Note_on_c, 5, 50, 0
10, 336600, Note_on_c, 5, 49, 64
10, 336716, Note_on_c, 5, 49, 0
10, 336720, Note_on_c, 5, 47, 64
10, 336836, Note_on_c, 5, 47, 0
10, 336840, Note_on_c, 5, 45, 64
10, 336956, Note_on_c, 5, 45, 0
10, 336960, Note_on_c, 5, 52, 64
10, 337196, Note_on_c, 5, 52, 0
10, 337200, Note_on_c, 5, 55, 64
10, 337436, Note_on_c, 5, 55, 0
10, 337440, Note_on_c, 5, 59, 64
10, 337676, Note_on_c, 5, 59, 0
10, 337680, Note_on_c, 5, 51, 64
10, 337916, Note_on_c, 5, 51, 0
10, 337920, Note_on_c, 5, 54, 64
10, 338156, Note_on_c, 5, 54, 0
10, 338160, Note_on_c, 5, 59, 64
10, 338396, Note_on_c, 5, 59, 0
10, 338400, Note_on_c, 5, 52, 64
10, 338636, Note_on_c, 5, 52, 0
10, 338640, Note_on_c, 5, 55, 64
10, 338876, Note_on_c, 5, 55, 0
10, 338880, Note_on_c, 5, 59, 64
10, 339116, Note_on_c, 5, 59, 0
10, 339120, Note_on_c, 5, 47, 64
10, 339356, Note_on_c, 5, 47, 0
10, 339360, Note_on_c, 5, 54, 64
10, 339596, Note_on_c, 5, 54, 0
10, 339600, Note_on_c, 5, 59, 64
10, 339836, Note_on_c, 5, 59, 0
10, 339840, Note_on_c, 5, 43, 64
10, 340316, Note_on_c, 5, 43, 0
10, 340560, Note_on_c, 5, 45, 64
10, 341036, Note_on_c, 5, 45, 0
10, 341280, Note_on_c, 5, 47, 64
10, 341756, Note_on_c, 5, 47, 0
10, 342000, Note_on_c, 5, 48, 64
10, 342476, Note_on_c, 5, 48, 0
10, 342720, Note_on_c, 5, 43, 64
10, 343196, Note_on_c, 5, 43, 0
10, 343440, Note_on_c, 5, 45, 64
10, 343916, Note_on_c, 5, 45, 0
10, 344160, Note_on_c, 5, 47, 64
10, 344396, Note_on_c, 5, 47, 0
10, 344400, Note_on_c, 5, 45, 64
10, 344636, Note_on_c, 5, 45, 0
10, 344640, Note_on_c, 5, 47, 64
10, 344876, Note_on_c, 5, 47, 0
10, 344880, Note_on_c, 5, 40, 64
10, 345116, Note_on_c, 5, 40, 0
10, 345120, Note_on_c, 5, 43, 64
10, 345356, Note_on_c, 5, 43, 0
10, 345360, Note_on_c, 5, 47, 64
10, 345596, Note_on_c, 5, 47, 0
10, 345600, Note_on_c, 5, 52, 64
10, 346076, Note_on_c, 5, 52, 0
10, 349920, Note_on_c, 5, 52, 64
10, 350036, Note_on_c, 5, 52, 0
10, 350040, Note_on_c, 5, 51, 64
10, 350156, Note_on_c, 5, 51, 0
10, 350160, Note_on_c, 5, 52, 64
10, 350276, Note_on_c, 5, 52, 0
10, 350280, Note_on_c, 5, 54, 64
10, 350396, Note_on_c, 5, 54, 0
10, 350400, Note_on_c, 5, 55, 64
10, 350516, Note_on_c, 5, 55, 0
10, 350520, Note_on_c, 5, 57, 64
10, 350636, Note_on_c, 5, 57, 0
10, 350640, Note_on_c, 5, 59, 64
10, 350756, Note_on_c, 5, 59, 0
10, 350760, Note_on_c, 5, 60, 64
10, 350876, Note_on_c, 5, 60, 0
10, 350880, Note_on_c, 5, 59, 64
10, 350996, Note_on_c, 5, 59, 0
10, 351000, Note_on_c, 5, 57, 64
10, 351116, Note_on_c, 5, 57, 0
10, 351120, Note_on_c, 5, 55, 64
10, 351236, Note_on_c, 5, 55, 0
10, 351240, Note_on_c, 5, 54, 64
10, 351356, Note_on_c, 5, 54, 0
10, 351360, Note_on_c, 5, 52, 64
10, 351476, Note_on_c, 5, 52, 0
10, 351480, Note_on_c, 5, 51, 64
10, 351596, Note_on_c, 5, 51, 0
10, 351600, Note_on_c, 5, 52, 64
10, 351716, Note_on_c, 5, 52, 0
10, 351720, Note_on_c, 5, 54, 64
10, 351836, Note_on_c, 5, 54, 0
10, 351840, Note_on_c, 5, 55, 64
10, 351956, Note_on_c, 5, 55, 0
10, 351960, Note_on_c, 5, 52, 64
10, 352076, Note_on_c, 5, 52, 0
10, 352080, Note_on_c, 5, 57, 64
10, 352196, Note_on_c, 5, 57, 0
10, 352200, Note_on_c, 5, 59, 64
10, 352316, Note_on_c, 5, 59, 0
10, 352320, Note_on_c, 5, 57, 64
10, 352436, Note_on_c, 5, 57, 0
10, 352440, Note_on_c, 5, 55, 64
10, 352556, Note_on_c, 5, 55, 0
10, 352560, Note_on_c, 5, 54, 64
10, 352676, Note_on_c, 5, 54, 0
10, 352680, Note_on_c, 5, 52, 64
10, 352796, Note_on_c, 5, 52, 0
10, 352800, Note_on_c, 5, 50, 64
10, 352916, Note_on_c, 5, 50, 0
10, 352920, Note_on_c, 5, 49, 64
10, 353036, Note_on_c, 5, 49, 0
10, 353040, Note_on_c, 5, 50, 64
10, 353156, Note_on_c, 5, 50, 0
10, 353160, Note_on_c, 5, 52, 64
10, 353276, Note_on_c, 5, 52, 0
10, 353280, Note_on_c, 5, 54, 64
10, 353396, Note_on_c, 5, 54, 0
10, 353400, Note_on_c, 5, 50, 64
10, 353516, Note_on_c, 5, 50, 0
10, 353520, Note_on_c, 5, 55, 64
10, 353636, Note_on_c, 5, 55, 0
10, 353640, Note_on_c, 5, 57, 64
10, 353756, Note_on_c, 5, 57, 0
10, 353760, Note_on_c, 5, 55, 64
10, 353876, Note_on_c, 5, 55, 0
10, 353880, Note_on_c, 5, 54, 64
10, 353996, Note_on_c, 5, 54, 0
10, 354000, Note_on_c, 5, 52, 64
10, 354116, Note_on_c, 5, 52, 0
10, 354120, Note_on_c, 5, 50, 64
10, 354236, Note_on_c, 5, 50, 0
10, 354240, Note_on_c, 5, 49, 64
10, 354356, Note_on_c, 5, 49, 0
10, 354360, Note_on_c, 5, 47, 64
10, 354476, Note_on_c, 5, 47, 0
10, 354480, Note_on_c, 5, 49, 64
10, 354596, Note_on_c, 5, 49, 0
10, 354600, Note_on_c, 5, 50, 64
10, 354716, Note_on_c, 5, 50, 0
10, 354720, Note_on_c, 5, 52, 64
10, 354836, Note_on_c, 5, 52, 0
10, 354840, Note_on_c, 5, 49, 64
10, 354956, Note_on_c, 5, 49, 0
10, 354960, Note_on_c, 5, 54, 64
10, 355076, Note_on_c, 5, 54, 0
10, 355080, Note_on_c, 5, 55, 64
10, 355196, Note_on_c, 5, 55, 0
10, 355200, Note_on_c, 5, 54, 64
10, 355316, Note_on_c, 5, 54, 0
10, 355320, Note_on_c, 5, 52, 64
10, 355436, Note_on_c, 5, 52, 0
10, 355440, Note_on_c, 5, 50, 64
10, 355556, Note_on_c, 5, 50, 0
10, 355560, Note_on_c, 5, 49, 64
10, 355676, Note_on_c, 5, 49, 0
10, 355680, Note_on_c, 5, 47, 64
10, 356156, Note_on_c, 5, 47, 0
10, 356400, Note_on_c, 5, 42, 64
10, 356876, Note_on_c, 5, 42, 0
10, 357120, Note_on_c, 5, 47, 64
10, 357596, Note_on_c, 5, 47, 0
10, 357840, Note_on_c, 5, 54, 64
10, 358316, Note_on_c, 5, 54, 0
10, 358560, Note_on_c, 5, 47, 64
10, 358796, Note_on_c, 5, 47, 0
10, 358800, Note_on_c, 5, 50, 64
10, 359036, Note_on_c, 5, 50, 0
10, 359040, Note_on_c, 5, 54, 64
10, 359276, Note_on_c, 5, 54, 0
10, 359280, Note_on_c, 5, 46, 64
10, 359516, Note_on_c, 5, 46, 0
10, 359520, Note_on_c, 5, 49, 64
10, 359756, Note_on_c, 5, 49, 0
10, 359760, Note_on_c, 5, 54, 64
10, 359996, Note_on_c, 5, 54, 0
10, 360000, Note_on_c, 5, 47, 64
10, 360116, Note_on_c, 5, 47, 0
10, 360120, Note_on_c, 5, 46, 64
10, 360236, Note_on_c, 5, 46, 0
10, 360240, Note_on_c, 5, 47, 64
10, 360356, Note_on_c, 5, 47, 0
10, 360360, Note_on_c, 5, 49, 64
10, 360476, Note_on_c, 5, 49, 0
10, 360480, Note_on_c, 5, 50, 64
10, 360596, Note_on_c, 5, 50, 0
10, 360600, Note_on_c, 5, 52, 64
10, 360716, Note_on_c, 5, 52, 0
10, 360720, Note_on_c, 5, 54, 64
10, 360836, Note_on_c, 5, 54, 0
10, 360840, Note_on_c, 5, 55, 64
10, 360956, Note_on_c, 5, 55, 0
10, 360960, Note_on_c, 5, 54, 64
10, 361076, Note_on_c, 5, 54, 0
10, 361080, Note_on_c, 5, 52, 64
10, 361196, Note_on_c, 5, 52, 0
10, 361200, Note_on_c, 5, 50, 64
10, 361316, Note_on_c, 5, 50, 0
10, 361320, Note_on_c, 5, 49, 64
10, 361436, Note_on_c, 5, 49, 0
10, 361440, Note_on_c, 5, 47, 64
10, 361556, Note_on_c, 5, 47, 0
10, 361560, Note_on_c, 5, 46, 64
10, 361676, Note_on_c, 5, 46, 0
10, 361680, Note_on_c, 5, 47, 64
10, 361796, Note_on_c, 5, 47, 0
10, 361800, Note_on_c, 5, 49, 64
10, 361916, Note_on_c, 5, 49, 0
10, 361920, Note_on_c, 5, 50, 64
10, 362036, Note_on_c, 5, 50, 0
10, 362040, Note_on_c, 5, 47, 64
10, 362156, Note_on_c, 5, 47, 0
10, 362160, Note_on_c, 5, 52, 64
10, 362276, Note_on_c, 5, 52, 0
10, 362280, Note_on_c, 5, 54, 64
10, 362396, Note_on_c, 5, 54, 0
10, 362400, Note_on_c, 5, 52, 64
10, 362516, Note_on_c, 5, 52, 0
10, 362520, Note_on_c, 5, 50, 64
10, 362636, Note_on_c, 5, 50, 0
10, 362640, Note_on_c, 5, 49, 64
10, 362756, Note_on_c, 5, 49, 0
10, 362760, Note_on_c, 5, 47, 64
10, 362876, Note_on_c, 5, 47, 0
10, 362880, Note_on_c, 5, 45, 64
10, 362996, Note_on_c, 5, 45, 0
10, 363000, Note_on_c, 5, 43, 64
10, 363116, Note_on_c, 5, 43, 0
10, 363120, Note_on_c, 5, 45, 64
10, 363236, Note_on_c, 5, 45, 0
10, 363240, Note_on_c, 5, 47, 64
10, 363356, Note_on_c, 5, 47, 0
10, 363360, Note_on_c, 5, 49, 64
10, 363476, Note_on_c, 5, 49, 0
10, 363480, Note_on_c, 5, 45, 64
10, 363596, Note_on_c, 5, 45, 0
10, 363600, Note_on_c, 5, 50, 64
10, 363716, Note_on_c, 5, 50, 0
10, 363720, Note_on_c, 5, 52, 64
10, 363836, Note_on_c, 5, 52, 0
10, 363840, Note_on_c, 5, 50, 64
10, 363956, Note_on_c, 5, 50, 0
10, 363960, Note_on_c, 5, 49, 64
10, 364076, Note_on_c, 5, 49, 0
10, 364080, Note_on_c, 5, 47, 64
10, 364196, Note_on_c, 5, 47, 0
10, 364200, Note_on_c, 5, 45, 64
10, 364316, Note_on_c, 5, 45, 0
10, 364320, Note_on_c, 5, 43, 64
10, 364436, Note_on_c, 5, 43, 0
10, 364440, Note_on_c, 5, 42, 64
10, 364556, Note_on_c, 5, 42, 0
10, 364560, Note_on_c, 5, 43, 64
10, 364676, Note_on_c, 5, 43, 0
10, 364680, Note_on_c, 5, 45, 64
10, 364796, Note_on_c, 5, 45, 0
10, 364800, Note_on_c, 5, 47, 64
10, 364916, Note_on_c, 5, 47, 0
10, 364920, Note_on_c, 5, 43, 64
10, 365036, Note_on_c, 5, 43, 0
10, 365040, Note_on_c, 5, 49, 64
10, 365156, Note_on_c, 5, 49, 0
10, 365160, Note_on_c, 5, 50, 64
10, 365276, Note_on_c, 5, 50, 0
10, 365280, Note_on_c, 5, 49, 64
10, 365396, Note_on_c, 5, 49, 0
10, 365400, Note_on_c, 5, 47, 64
10, 365516, Note_on_c, 5, 47, 0
10, 365520, Note_on_c, 5, 46, 64
10, 365636, Note_on_c, 5, 46, 0
10, 365640, Note_on_c, 5, 44, 64
10, 365756, Note_on_c, 5, 44, 0
10, 365760, Note_on_c, 5, 42, 64
10, 365996, Note_on_c, 5, 42, 0
10, 366000, Note_on_c, 5, 42, 64
10, 366236, Note_on_c, 5, 42, 0
10, 366240, Note_on_c, 5, 42, 64
10, 366476, Note_on_c, 5, 42, 0
10, 366480, Note_on_c, 5, 42, 64
10, 366716, Note_on_c, 5, 42, 0
10, 366720, Note_on_c, 5, 42, 64
10, 366956, Note_on_c, 5, 42, 0
10, 366960, Note_on_c, 5, 42, 64
10, 367196, Note_on_c, 5, 42, 0
10, 367200, Note_on_c, 5, 42, 64
10, 367436, Note_on_c, 5, 42, 0
10, 367440, Note_on_c, 5, 42, 64
10, 367676, Note_on_c, 5, 42, 0
10, 367680, Note_on_c, 5, 42, 64
10, 367916, Note_on_c, 5, 42, 0
10, 367920, Note_on_c, 5, 42, 64
10, 368156, Note_on_c, 5, 42, 0
10, 368160, Note_on_c, 5, 42, 64
10, 368396, Note_on_c, 5, 42, 0
10, 368400, Note_on_c, 5, 42, 64
10, 368636, Note_on_c, 5, 42, 0
10, 368640, Note_on_c, 5, 42, 64
10, 368876, Note_on_c, 5, 42, 0
10, 368880, Note_on_c, 5, 42, 64
10, 369116, Note_on_c, 5, 42, 0
10, 369120, Note_on_c, 5, 42, 64
10, 369356, Note_on_c, 5, 42, 0
10, 369360, Note_on_c, 5, 42, 64
10, 369596, Note_on_c, 5, 42, 0
10, 369600, Note_on_c, 5, 42, 64
10, 369836, Note_on_c, 5, 42, 0
10, 369840, Note_on_c, 5, 42, 64
10, 370076, Note_on_c, 5, 42, 0
10, 370080, Note_on_c, 5, 42, 64
10, 370316, Note_on_c, 5, 42, 0
10, 370320, Note_on_c, 5, 42, 64
10, 370556, Note_on_c, 5, 42, 0
10, 370560, Note_on_c, 5, 42, 64
10, 370796, Note_on_c, 5, 42, 0
10, 370800, Note_on_c, 5, 42, 64
10, 371036, Note_on_c, 5, 42, 0
10, 371040, Note_on_c, 5, 42, 64
10, 371276, Note_on_c, 5, 42, 0
10, 371280, Note_on_c, 5, 42, 64
10, 371516, Note_on_c, 5, 42, 0
10, 371520, Note_on_c, 5, 42, 64
10, 371756, Note_on_c, 5, 42, 0
10, 371760, Note_on_c, 5, 46, 64
10, 371996, Note_on_c, 5, 46, 0
10, 372000, Note_on_c, 5, 49, 64
10, 372236, Note_on_c, 5, 49, 0
10, 372240, Note_on_c, 5, 46, 64
10, 372476, Note_on_c, 5, 46, 0
10, 372480, Note_on_c, 5, 49, 64
10, 372716, Note_on_c, 5, 49, 0
10, 372720, Note_on_c, 5, 54, 64
10, 372956, Note_on_c, 5, 54, 0
10, 372960, Note_on_c, 5, 47, 64
10, 373196, Note_on_c, 5, 47, 0
10, 373200, Note_on_c, 5, 51, 64
10, 373436, Note_on_c, 5, 51, 0
10, 373440, Note_on_c, 5, 54, 64
10, 373676, Note_on_c, 5, 54, 0
10, 373680, Note_on_c, 5, 51, 64
10, 373916, Note_on_c, 5, 51, 0
10, 373920, Note_on_c, 5, 54, 64
10, 374156, Note_on_c, 5, 54, 0
10, 374160, Note_on_c, 5, 59, 64
10, 374396, Note_on_c, 5, 59, 0
10, 374400, Note_on_c, 5, 40, 64
10, 374876, Note_on_c, 5, 40, 0
10, 375840, Note_on_c, 5, 52, 64
10, 376316, Note_on_c, 5, 52, 0
10, 377280, Note_on_c, 5, 50, 64
10, 377516, Note_on_c, 5, 50, 0
10, 377520, Note_on_c, 5, 49, 64
10, 377756, Note_on_c, 5, 49, 0
10, 377760, Note_on_c, 5, 47, 64
10, 377996, Note_on_c, 5, 47, 0
10, 378000, Note_on_c, 5, 54, 64
10, 378476, Note_on_c, 5, 54, 0
10, 378480, Note_on_c, 5, 42, 64
10, 378716, Note_on_c, 5, 42, 0
10, 378720, Note_on_c, 5, 47, 64
10, 378956, Note_on_c, 5, 47, 0
10, 378960, Note_on_c, 5, 50, 64
10, 379196, Note_on_c, 5, 50, 0
10, 379200, Note_on_c, 5, 54, 64
10, 379436, Note_on_c, 5, 54, 0
10, 379440, Note_on_c, 5, 59, 64
10, 379676, Note_on_c, 5, 59, 0
10, 379680, Note_on_c, 5, 57, 64
10, 379796, Note_on_c, 5, 57, 0
10, 379800, Note_on_c, 5, 55, 64
10, 379916, Note_on_c, 5, 55, 0
10, 379920, Note_on_c, 5, 54, 64
10, 380036, Note_on_c, 5, 54, 0
10, 380040, Note_on_c, 5, 52, 64
10, 380156, Note_on_c, 5, 52, 0
10, 380160, Note_on_c, 5, 51, 64
10, 380396, Note_on_c, 5, 51, 0
10, 380400, Note_on_c, 5, 54, 64
10, 380636, Note_on_c, 5, 54, 0
10, 380640, Note_on_c, 5, 59, 64
10, 380876, Note_on_c, 5, 59, 0
10, 380880, Note_on_c, 5, 47, 64
10, 381116, Note_on_c, 5, 47, 0
10, 381120, Note_on_c, 5, 54, 64
10, 381356, Note_on_c, 5, 54, 0
10, 381360, Note_on_c, 5, 59, 64
10, 381596, Note_on_c, 5, 59, 0
10, 381600, Note_on_c, 5, 52, 64
10, 381836, Note_on_c, 5, 52, 0
10, 381840, Note_on_c, 5, 55, 64
10, 382076, Note_on_c, 5, 55, 0
10, 382080, Note_on_c, 5, 59, 64
10, 382316, Note_on_c, 5, 59, 0
10, 382320, Note_on_c, 5, 64, 64
10, 382556, Note_on_c, 5, 64, 0
10, 382560, Note_on_c, 5, 62, 64
10, 382676, Note_on_c, 5, 62, 0
10, 382680, Note_on_c, 5, 60, 64
10, 382796, Note_on_c, 5, 60, 0
10, 382800, Note_on_c, 5, 59, 64
10, 382916, Note_on_c, 5, 59, 0
10, 382920, Note_on_c, 5, 57, 64
10, 383036, Note_on_c, 5, 57, 0
10, 383040, Note_on_c, 5, 56, 64
10, 383276, Note_on_c, 5, 56, 0
10, 383280, Note_on_c, 5, 59, 64
10, 383516, Note_on_c, 5, 59, 0
10, 383520, Note_on_c, 5, 64, 64
10, 383756, Note_on_c, 5, 64, 0
10, 383760, Note_on_c, 5, 52, 64
10, 383996, Note_on_c, 5, 52, 0
10, 384000, Note_on_c, 5, 59, 64
10, 384236, Note_on_c, 5, 59, 0
10, 384240, Note_on_c, 5, 64, 64
10, 384476, Note_on_c, 5, 64, 0
10, 384480, Note_on_c, 5, 45, 64
10, 384716, Note_on_c, 5, 45, 0
10, 384720, Note_on_c, 5, 48, 64
10, 384956, Note_on_c, 5, 48, 0
10, 384960, Note_on_c, 5, 52, 64
10, 385196, Note_on_c, 5, 52, 0
10, 385200, Note_on_c, 5, 57, 64
10, 385316, Note_on_c, 5, 57, 0
10, 385320, Note_on_c, 5, 59, 64
10, 385436, Note_on_c, 5, 59, 0
10, 385440, Note_on_c, 5, 57, 64
10, 385556, Note_on_c, 5, 57, 0
10, 385560, Note_on_c, 5, 55, 64
10, 385676, Note_on_c, 5, 55, 0
10, 385680, Note_on_c, 5, 53, 64
10, 385796, Note_on_c, 5, 53, 0
10, 385800, Note_on_c, 5, 52, 64
10, 385916, Note_on_c, 5, 52, 0
10, 385920, Note_on_c, 5, 50, 64
10, 386156, Note_on_c, 5, 50, 0
10, 386160, Note_on_c, 5, 57, 64
10, 386396, Note_on_c, 5, 57, 0
10, 386400, Note_on_c, 5, 62, 64
10, 386636, Note_on_c, 5, 62, 0
10, 386640, Note_on_c, 5, 55, 64
10, 386876, Note_on_c, 5, 55, 0
10, 386880, Note_on_c, 5, 50, 64
10, 387116, Note_on_c, 5, 50, 0
10, 387120, Note_on_c, 5, 43, 64
10, 387356, Note_on_c, 5, 43, 0
10, 387360, Note_on_c, 5, 48, 64
10, 387596, Note_on_c, 5, 48, 0
10, 387600, Note_on_c, 5, 55, 64
10, 387836, Note_on_c, 5, 55, 0
10, 387840, Note_on_c, 5, 60, 64
10, 388076, Note_on_c, 5, 60, 0
10, 388080, Note_on_c, 5, 53, 64
10, 388316, Note_on_c, 5, 53, 0
10, 388320, Note_on_c, 5, 48, 64
10, 388556, Note_on_c, 5, 48, 0
10, 388560, Note_on_c, 5, 41, 64
10, 388796, Note_on_c, 5, 41, 0
10, 388800, Note_on_c, 5, 53, 64
10, 389276, Note_on_c, 5, 53, 0
10, 389520, Note_on_c, 5, 52, 64
10, 389996, Note_on_c, 5, 52, 0
10, 390240, Note_on_c, 5, 50, 64
10, 390716, Note_on_c, 5, 50, 0
10, 390960, Note_on_c, 5, 48, 64
10, 391436, Note_on_c, 5, 48, 0
10, 391680, Note_on_c, 5, 47, 64
10, 391916, Note_on_c, 5, 47, 0
10, 391920, Note_on_c, 5, 50, 64
10, 392156, Note_on_c, 5, 50, 0
10, 392160, Note_on_c, 5, 55, 64
10, 392396, Note_on_c, 5, 55, 0
10, 392400, Note_on_c, 5, 48, 64
10, 392636, Note_on_c, 5, 48, 0
10, 392640, Note_on_c, 5, 52, 64
10, 392876, Note_on_c, 5, 52, 0
10, 392880, Note_on_c, 5, 55, 64
10, 393116, Note_on_c, 5, 55, 0
10, 393120, Note_on_c, 5, 47, 64
10, 393236, Note_on_c, 5, 47, 0
10, 393240, Note_on_c, 5, 50, 64
10, 393356, Note_on_c, 5, 50, 0
10, 393360, Note_on_c, 5, 43, 64
10, 393476, Note_on_c, 5, 43, 0
10, 393480, Note_on_c, 5, 50, 64
10, 393596, Note_on_c, 5, 50, 0
10, 393600, Note_on_c, 5, 47, 64
10, 393716, Note_on_c, 5, 47, 0
10, 393720, Note_on_c, 5, 50, 64
10, 393836, Note_on_c, 5, 50, 0
10, 393840, Note_on_c, 5, 48, 64
10, 393956, Note_on_c, 5, 48, 0
10, 393960, Note_on_c, 5, 52, 64
10, 394076, Note_on_c, 5, 52, 0
10, 394080, Note_on_c, 5, 43, 64
10, 394196, Note_on_c, 5, 43, 0
10, 394200, Note_on_c, 5, 52, 64
10, 394316, Note_on_c, 5, 52, 0
10, 394320, Note_on_c, 5, 48, 64
10, 394436, Note_on_c, 5, 48, 0
10, 394440, Note_on_c, 5, 52, 64
10, 394556, Note_on_c, 5, 52, 0
10, 394560, Note_on_c, 5, 42, 64
10, 394796, Note_on_c, 5, 42, 0
10, 394800, Note_on_c, 5, 42, 64
10, 395036, Note_on_c, 5, 42, 0
10, 395040, Note_on_c, 5, 42, 64
10, 395276, Note_on_c, 5, 42, 0
10, 395280, Note_on_c, 5, 42, 64
10, 395516, Note_on_c, 5, 42, 0
10, 395520, Note_on_c, 5, 42, 64
10, 395756, Note_on_c, 5, 42, 0
10, 395760, Note_on_c, 5, 42, 64
10, 395996, Note_on_c, 5, 42, 0
10, 396000, Note_on_c, 5, 41, 64
10, 396236, Note_on_c, 5, 41, 0
10, 396240, Note_on_c, 5, 41, 64
10, 396476, Note_on_c, 5, 41, 0
10, 396480, Note_on_c, 5, 41, 64
10, 396716, Note_on_c, 5, 41, 0
10, 396720, Note_on_c, 5, 41, 64
10, 396956, Note_on_c, 5, 41, 0
10, 396960, Note_on_c, 5, 41, 64
10, 397196, Note_on_c, 5, 41, 0
10, 397200, Note_on_c, 5, 41, 64
10, 397436, Note_on_c, 5, 41, 0
10, 397440, Note_on_c, 5, 40, 64
10, 397916, Note_on_c, 5, 40, 0
10, 398160, Note_on_c, 5, 41, 64
10, 398636, Note_on_c, 5, 41, 0
10, 398880, Note_on_c, 5, 43, 64
10, 399356, Note_on_c, 5, 43, 0
10, 399600, Note_on_c, 5, 45, 64
10, 400076, Note_on_c, 5, 45, 0
10, 400320, Note_on_c, 5, 40, 64
10, 400796, Note_on_c, 5, 40, 0
10, 401040, Note_on_c, 5, 41, 64
10, 401516, Note_on_c, 5, 41, 0
10, 401760, Note_on_c, 5, 43, 64
10, 401996, Note_on_c, 5, 43, 0
10, 402000, Note_on_c, 5, 41, 64
10, 402236, Note_on_c, 5, 41, 0
10, 402240, Note_on_c, 5, 43, 64
10, 402476, Note_on_c, 5, 43, 0
10, 402480, Note_on_c, 5, 36, 64
10, 402956, Note_on_c, 5, 36, 0
10, 402960, Note_on_c, 5, 38, 64
10, 403196, Note_on_c, 5, 38, 0
10, 403200, Note_on_c, 5, 40, 64
10, 403436, Note_on_c, 5, 40, 0
10, 403440, Note_on_c, 5, 38, 64
10, 403676, Note_on_c, 5, 38, 0
10, 403680, Note_on_c, 5, 36, 64
10, 403916, Note_on_c, 5, 36, 0
10, 403920, Note_on_c, 5, 43, 64
10, 404156, Note_on_c, 5, 43, 0
10, 404160, Note_on_c, 5, 45, 64
10, 404396, Note_on_c, 5, 45, 0
10, 404400, Note_on_c, 5, 47, 64
10, 404636, Note_on_c, 5, 47, 0
10, 404640, Note_on_c, 5, 48, 64
10, 405116, Note_on_c, 5, 48, 0
10, 405360, Note_on_c, 5, 55, 64
10, 405836, Note_on_c, 5, 55, 0
10, 406080, Note_on_c, 5, 48, 64
10, 406556, Note_on_c, 5, 48, 0
10, 406800, Note_on_c, 5, 43, 64
10, 407276, Note_on_c, 5, 43, 0
10, 407520, Note_on_c, 5, 48, 64
10, 407636, Note_on_c, 5, 48, 0
10, 407640, Note_on_c, 5, 47, 64
10, 407756, Note_on_c, 5, 47, 0
10, 407760, Note_on_c, 5, 48, 64
10, 407876, Note_on_c, 5, 48, 0
10, 407880, Note_on_c, 5, 50, 64
10, 407996, Note_on_c, 5, 50, 0
10, 408000, Note_on_c, 5, 52, 64
10, 408116, Note_on_c, 5, 52, 0
10, 408120, Note_on_c, 5, 53, 64
10, 408236, Note_on_c, 5, 53, 0
10, 408240, Note_on_c, 5, 55, 64
10, 408356, Note_on_c, 5, 55, 0
10, 408360, Note_on_c, 5, 57, 64
10, 408476, Note_on_c, 5, 57, 0
10, 408480, Note_on_c, 5, 55, 64
10, 408596, Note_on_c, 5, 55, 0
10, 408600, Note_on_c, 5, 53, 64
10, 408716, Note_on_c, 5, 53, 0
10, 408720, Note_on_c, 5, 52, 64
10, 408836, Note_on_c, 5, 52, 0
10, 408840, Note_on_c, 5, 50, 64
10, 408956, Note_on_c, 5, 50, 0
10, 408960, Note_on_c, 5, 48, 64
10, 409076, Note_on_c, 5, 48, 0
10, 409080, Note_on_c, 5, 47, 64
10, 409196, Note_on_c, 5, 47, 0
10, 409200, Note_on_c, 5, 48, 64
10, 409316, Note_on_c, 5, 48, 0
10, 409320, Note_on_c, 5, 50, 64
10, 409436, Note_on_c, 5, 50, 0
10, 409440, Note_on_c, 5, 52, 64
10, 409556, Note_on_c, 5, 52, 0
10, 409560, Note_on_c, 5, 48, 64
10, 409676, Note_on_c, 5, 48, 0
10, 409680, Note_on_c, 5, 54, 64
10, 409796, Note_on_c, 5, 54, 0
10, 409800, Note_on_c, 5, 55, 64
10, 409916, Note_on_c, 5, 55, 0
10, 409920, Note_on_c, 5, 54, 64
10, 410036, Note_on_c, 5, 54, 0
10, 410040, Note_on_c, 5, 52, 64
10, 410156, Note_on_c, 5, 52, 0
10, 410160, Note_on_c, 5, 50, 64
10, 410276, Note_on_c, 5, 50, 0
10, 410280, Note_on_c, 5, 48, 64
10, 410396, Note_on_c, 5, 48, 0
10, 410400, Note_on_c, 5, 47, 64
10, 410516, Note_on_c, 5, 47, 0
10, 410520, Note_on_c, 5, 45, 64
10, 410636, Note_on_c, 5, 45, 0
10, 410640, Note_on_c, 5, 47, 64
10, 410756, Note_on_c, 5, 47, 0
10, 410760, Note_on_c, 5, 48, 64
10, 410876, Note_on_c, 5, 48, 0
10, 410880, Note_on_c, 5, 50, 64
10, 410996, Note_on_c, 5, 50, 0
10, 411000, Note_on_c, 5, 47, 64
10, 411116, Note_on_c, 5, 47, 0
10, 411120, Note_on_c, 5, 52, 64
10, 411236, Note_on_c, 5, 52, 0
10, 411240, Note_on_c, 5, 54, 64
10, 411356, Note_on_c, 5, 54, 0
10, 411360, Note_on_c, 5, 52, 64
10, 411476, Note_on_c, 5, 52, 0
10, 411480, Note_on_c, 5, 50, 64
10, 411596, Note_on_c, 5, 50, 0
10, 411600, Note_on_c, 5, 48, 64
10, 411716, Note_on_c, 5, 48, 0
10, 411720, Note_on_c, 5, 47, 64
10, 411836, Note_on_c, 5, 47, 0
10, 411840, Note_on_c, 5, 45, 64
10, 411956, Note_on_c, 5, 45, 0
10, 411960, Note_on_c, 5, 43, 64
10, 412076, Note_on_c, 5, 43, 0
10, 412080, Note_on_c, 5, 45, 64
10, 412196, Note_on_c, 5, 45, 0
10, 412200, Note_on_c, 5, 47, 64
10, 412316, Note_on_c, 5, 47, 0
10, 412320, Note_on_c, 5, 48, 64
10, 412436, Note_on_c, 5, 48, 0
10, 412440, Note_on_c, 5, 45, 64
10, 412556, Note_on_c, 5, 45, 0
10, 412560, Note_on_c, 5, 50, 64
10, 412676, Note_on_c, 5, 50, 0
10, 412680, Note_on_c, 5, 52, 64
10, 412796, Note_on_c, 5, 52, 0
10, 412800, Note_on_c, 5, 50, 64
10, 412916, Note_on_c, 5, 50, 0
10, 412920, Note_on_c, 5, 48, 64
10, 413036, Note_on_c, 5, 48, 0
10, 413040, Note_on_c, 5, 47, 64
10, 413156, Note_on_c, 5, 47, 0
10, 413160, Note_on_c, 5, 45, 64
10, 413276, Note_on_c, 5, 45, 0
10, 413280, Note_on_c, 5, 43, 64
10, 413756, Note_on_c, 5, 43, 0
10, 414000, Note_on_c, 5, 38, 64
10, 414476, Note_on_c, 5, 38, 0
10, 414720, Note_on_c, 5, 43, 64
10, 415196, Note_on_c, 5, 43, 0
10, 415440, Note_on_c, 5, 50, 64
10, 415916, Note_on_c, 5, 50, 0
10, 416160, Note_on_c, 5, 55, 64
10, 416396, Note_on_c, 5, 55, 0
10, 416400, Note_on_c, 5, 59, 64
10, 416636, Note_on_c, 5, 59, 0
10, 416640, Note_on_c, 5, 62, 64
10, 416876, Note_on_c, 5, 62, 0
10, 416880, Note_on_c, 5, 50, 64
10, 417116, Note_on_c, 5, 50, 0
10, 417120, Note_on_c, 5, 57, 64
10, 417356, Note_on_c, 5, 57, 0
10, 417360, Note_on_c, 5, 62, 64
10, 417596, Note_on_c, 5, 62, 0
10, 417600, Note_on_c, 5, 43, 64
10, 417716, Note_on_c, 5, 43, 0
10, 417720, Note_on_c, 5, 42, 64
10, 417836, Note_on_c, 5, 42, 0
10, 417840, Note_on_c, 5, 43, 64
10, 417956, Note_on_c, 5, 43, 0
10, 417960, Note_on_c, 5, 45, 64
10, 418076, Note_on_c, 5, 45, 0
10, 418080, Note_on_c, 5, 47, 64
10, 418196, Note_on_c, 5, 47, 0
10, 418200, Note_on_c, 5, 48, 64
10, 418316, Note_on_c, 5, 48, 0
10, 418320, Note_on_c, 5, 50, 64
10, 418436, Note_on_c, 5, 50, 0
10, 418440, Note_on_c, 5, 52, 64
10, 418556, Note_on_c, 5, 52, 0
10, 418560, Note_on_c, 5, 50, 64
10, 418676, Note_on_c, 5, 50, 0
10, 418680, Note_on_c, 5, 48, 64
10, 418796, Note_on_c, 5, 48, 0
10, 418800, Note_on_c, 5, 47, 64
10, 418916, Note_on_c, 5, 47, 0
10, 418920, Note_on_c, 5, 45, 64
10, 419036, Note_on_c, 5, 45, 0
10, 419040, Note_on_c, 5, 43, 64
10, 419156, Note_on_c, 5, 43, 0
10, 419160, Note_on_c, 5, 42, 64
10, 419276, Note_on_c, 5, 42, 0
10, 419280, Note_on_c, 5, 43, 64
10, 419396, Note_on_c, 5, 43, 0
10, 419400, Note_on_c, 5, 45, 64
10, 419516, Note_on_c, 5, 45, 0
10, 419520, Note_on_c, 5, 47, 64
10, 419636, Note_on_c, 5, 47, 0
10, 419640, Note_on_c, 5, 43, 64
10, 419756, Note_on_c, 5, 43, 0
10, 419760, Note_on_c, 5, 48, 64
10, 419876, Note_on_c, 5, 48, 0
10, 419880, Note_on_c, 5, 50, 64
10, 419996, Note_on_c, 5, 50, 0
10, 420000, Note_on_c, 5, 48, 64
10, 420116, Note_on_c, 5, 48, 0
10, 420120, Note_on_c, 5, 47, 64
10, 420236, Note_on_c, 5, 47, 0
10, 420240, Note_on_c, 5, 45, 64
10, 420356, Note_on_c, 5, 45, 0
10, 420360, Note_on_c, 5, 43, 64
10, 420476, Note_on_c, 5, 43, 0
10, 420480, Note_on_c, 5, 42, 64
10, 420596, Note_on_c, 5, 42, 0
10, 420600, Note_on_c, 5, 40, 64
10, 420716, Note_on_c, 5, 40, 0
10, 420720, Note_on_c, 5, 42, 64
10, 420836, Note_on_c, 5, 42, 0
10, 420840, Note_on_c, 5, 43, 64
10, 420956, Note_on_c, 5, 43, 0
10, 420960, Note_on_c, 5, 45, 64
10, 421076, Note_on_c, 5, 45, 0
10, 421080, Note_on_c, 5, 42, 64
10, 421196, Note_on_c, 5, 42, 0
10, 421200, Note_on_c, 5, 47, 64
10, 421316, Note_on_c, 5, 47, 0
10, 421320, Note_on_c, 5, 48, 64
10, 421436, Note_on_c, 5, 48, 0
10, 421440, Note_on_c, 5, 47, 64
10, 421556, Note_on_c, 5, 47, 0
10, 421560, Note_on_c, 5, 45, 64
10, 421676, Note_on_c, 5, 45, 0
10, 421680, Note_on_c, 5, 43, 64
10, 421796, Note_on_c, 5, 43, 0
10, 421800, Note_on_c, 5, 42, 64
10, 421916, Note_on_c, 5, 42, 0
10, 421920, Note_on_c, 5, 40, 64
10, 422036, Note_on_c, 5, 40, 0
10, 422040, Note_on_c, 5, 38, 64
10, 422156, Note_on_c, 5, 38, 0
10, 422160, Note_on_c, 5, 40, 64
10, 422276, Note_on_c, 5, 40, 0
10, 422280, Note_on_c, 5, 42, 64
10, 422396, Note_on_c, 5, 42, 0
10, 422400, Note_on_c, 5, 43, 64
10, 422516, Note_on_c, 5, 43, 0
10, 422520, Note_on_c, 5, 40, 64
10, 422636, Note_on_c, 5, 40, 0
10, 422640, Note_on_c, 5, 45, 64
10, 422756, Note_on_c, 5, 45, 0
10, 422760, Note_on_c, 5, 47, 64
10, 422876, Note_on_c, 5, 47, 0
10, 422880, Note_on_c, 5, 45, 64
10, 422996, Note_on_c, 5, 45, 0
10, 423000, Note_on_c, 5, 43, 64
10, 423116, Note_on_c, 5, 43, 0
10, 423120, Note_on_c, 5, 42, 64
10, 423236, Note_on_c, 5, 42, 0
10, 423240, Note_on_c, 5, 40, 64
10, 423356, Note_on_c, 5, 40, 0
10, 423360, Note_on_c, 5, 38, 64
10, 423596, Note_on_c, 5, 38, 0
10, 423600, Note_on_c, 5, 38, 64
10, 423836, Note_on_c, 5, 38, 0
10, 423840, Note_on_c, 5, 38, 64
10, 424076, Note_on_c, 5, 38, 0
10, 424080, Note_on_c, 5, 38, 64
10, 424316, Note_on_c, 5, 38, 0
10, 424320, Note_on_c, 5, 38, 64
10, 424556, Note_on_c, 5, 38, 0
10, 424560, Note_on_c, 5, 38, 64
10, 424796, Note_on_c, 5, 38, 0
10, 424800, Note_on_c, 5, 38, 64
10, 425036, Note_on_c, 5, 38, 0
10, 425040, Note_on_c, 5, 38, 64
10, 425276, Note_on_c, 5, 38, 0
10, 425280, Note_on_c, 5, 38, 64
10, 425516, Note_on_c, 5, 38, 0
10, 425520, Note_on_c, 5, 38, 64
10, 425756, Note_on_c, 5, 38, 0
10, 425760, Note_on_c, 5, 38, 64
10, 425996, Note_on_c, 5, 38, 0
10, 426000, Note_on_c, 5, 38, 64
10, 426236, Note_on_c, 5, 38, 0
10, 426240, Note_on_c, 5, 38, 64
10, 426476, Note_on_c, 5, 38, 0
10, 426480, Note_on_c, 5, 38, 64
10, 426716, Note_on_c, 5, 38, 0
10, 426720, Note_on_c, 5, 38, 64
10, 426956, Note_on_c, 5, 38, 0
10, 426960, Note_on_c, 5, 38, 64
10, 427196, Note_on_c, 5, 38, 0
10, 427200, Note_on_c, 5, 38, 64
10, 427436, Note_on_c, 5, 38, 0
10, 427440, Note_on_c, 5, 38, 64
10, 427676, Note_on_c, 5, 38, 0
10, 427680, Note_on_c, 5, 38, 64
10, 427916, Note_on_c, 5, 38, 0
10, 427920, Note_on_c, 5, 38, 64
10, 428156, Note_on_c, 5, 38, 0
10, 428160, Note_on_c, 5, 38, 64
10, 428396, Note_on_c, 5, 38, 0
10, 428400, Note_on_c, 5, 38, 64
10, 428636, Note_on_c, 5, 38, 0
10, 428640, Note_on_c, 5, 38, 64
10, 428876, Note_on_c, 5, 38, 0
10, 428880, Note_on_c, 5, 38, 64
10, 429116, Note_on_c, 5, 38, 0
10, 429120, Note_on_c, 5, 38, 64
10, 429356, Note_on_c, 5, 38, 0
10, 429360, Note_on_c, 5, 42, 64
10, 429596, Note_on_c, 5, 42, 0
10, 429600, Note_on_c, 5, 45, 64
10, 429836, Note_on_c, 5, 45, 0
10, 429840, Note_on_c, 5, 42, 64
10, 430076, Note_on_c, 5, 42, 0
10, 430080, Note_on_c, 5, 45, 64
10, 430316, Note_on_c, 5, 45, 0
10, 430320, Note_on_c, 5, 50, 64
10, 430556, Note_on_c, 5, 50, 0
10, 430560, Note_on_c, 5, 43, 64
10, 430796, Note_on_c, 5, 43, 0
10, 430800, Note_on_c, 5, 47, 64
10, 431036, Note_on_c, 5, 47, 0
10, 431040, Note_on_c, 5, 50, 64
10, 431276, Note_on_c, 5, 50, 0
10, 431280, Note_on_c, 5, 47, 64
10, 431516, Note_on_c, 5, 47, 0
10, 431520, Note_on_c, 5, 50, 64
10, 431756, Note_on_c, 5, 50, 0
10, 431760, Note_on_c, 5, 55, 64
10, 431996, Note_on_c, 5, 55, 0
10, 432000, Note_on_c, 5, 36, 64
10, 432476, Note_on_c, 5, 36, 0
10, 433440, Note_on_c, 5, 48, 64
10, 433916, Note_on_c, 5, 48, 0
10, 434880, Note_on_c, 5, 47, 64
10, 435116, Note_on_c, 5, 47, 0
10, 435120, Note_on_c, 5, 45, 64
10, 435356, Note_on_c, 5, 45, 0
10, 435360, Note_on_c, 5, 43, 64
10, 435596, Note_on_c, 5, 43, 0
10, 435600, Note_on_c, 5, 50, 64
10, 436076, Note_on_c, 5, 50, 0
10, 436080, Note_on_c, 5, 38, 64
10, 436316, Note_on_c, 5, 38, 0
10, 436320, Note_on_c, 5, 43, 64
10, 437756, Note_on_c, 5, 43, 0
10, 437760, Note_on_c, 5, 50, 64
10, 437876, Note_on_c, 5, 50, 0
10, 437880, Note_on_c, 5, 49, 64
10, 437996, Note_on_c, 5, 49, 0
10, 438000, Note_on_c, 5, 50, 64
10, 438116, Note_on_c, 5, 50, 0
10, 438120, Note_on_c, 5, 52, 64
10, 438236, Note_on_c, 5, 52, 0
10, 438240, Note_on_c, 5, 54, 64
10, 438356, Note_on_c, 5, 54, 0
10, 438360, Note_on_c, 5, 55, 64
10, 438476, Note_on_c, 5, 55, 0
10, 438480, Note_on_c, 5, 57, 64
10, 438596, Note_on_c, 5, 57, 0
10, 438600, Note_on_c, 5, 59, 64
10, 438716, Note_on_c, 5, 59, 0
10, 438720, Note_on_c, 5, 57, 64
10, 438836, Note_on_c, 5, 57, 0
10, 438840, Note_on_c, 5, 55, 64
10, 438956, Note_on_c, 5, 55, 0
10, 438960, Note_on_c, 5, 54, 64
10, 439076, Note_on_c, 5, 54, 0
10, 439080, Note_on_c, 5, 52, 64
10, 439196, Note_on_c, 5, 52, 0
10, 439200, Note_on_c, 5, 54, 64
10, 439316, Note_on_c, 5, 54, 0
10, 439320, Note_on_c, 5, 57, 64
10, 439436, Note_on_c, 5, 57, 0
10, 439440, Note_on_c, 5, 55, 64
10, 439556, Note_on_c, 5, 55, 0
10, 439560, Note_on_c, 5, 54, 64
10, 439676, Note_on_c, 5, 54, 0
10, 439680, Note_on_c, 5, 52, 64
10, 439796, Note_on_c, 5, 52, 0
10, 439800, Note_on_c, 5, 50, 64
10, 439916, Note_on_c, 5, 50, 0
10, 439920, Note_on_c, 5, 49, 64
10, 440036, Note_on_c, 5, 49, 0
10, 440040, Note_on_c, 5, 52, 64
10, 440156, Note_on_c, 5, 52, 0
10, 440160, Note_on_c, 5, 50, 64
10, 440276, Note_on_c, 5, 50, 0
10, 440280, Note_on_c, 5, 49, 64
10, 440396, Note_on_c, 5, 49, 0
10, 440400, Note_on_c, 5, 47, 64
10, 440516, Note_on_c, 5, 47, 0
10, 440520, Note_on_c, 5, 45, 64
10, 440636, Note_on_c, 5, 45, 0
10, 440640, Note_on_c, 5, 52, 64
10, 440876, Note_on_c, 5, 52, 0
10, 440880, Note_on_c, 5, 55, 64
10, 441116, Note_on_c, 5, 55, 0
10, 441120, Note_on_c, 5, 59, 64
10, 441356, Note_on_c, 5, 59, 0
10, 441360, Note_on_c, 5, 51, 64
10, 441596, Note_on_c, 5, 51, 0
10, 441600, Note_on_c, 5, 54, 64
10, 441836, Note_on_c, 5, 54, 0
10, 441840, Note_on_c, 5, 59, 64
10, 442076, Note_on_c, 5, 59, 0
10, 442080, Note_on_c, 5, 52, 64
10, 442316, Note_on_c, 5, 52, 0
10, 442320, Note_on_c, 5, 55, 64
10, 442556, Note_on_c, 5, 55, 0
10, 442560, Note_on_c, 5, 59, 64
10, 442796, Note_on_c, 5, 59, 0
10, 442800, Note_on_c, 5, 47, 64
10, 443036, Note_on_c, 5, 47, 0
10, 443040, Note_on_c, 5, 54, 64
10, 443276, Note_on_c, 5, 54, 0
10, 443280, Note_on_c, 5, 59, 64
10, 443516, Note_on_c, 5, 59, 0
10, 443520, Note_on_c, 5, 43, 64
10, 443996, Note_on_c, 5, 43, 0
10, 444240, Note_on_c, 5, 45, 64
10, 444716, Note_on_c, 5, 45, 0
10, 444960, Note_on_c, 5, 47, 64
10, 445436, Note_on_c, 5, 47, 0
10, 445680, Note_on_c, 5, 48, 64
10, 446156, Note_on_c, 5, 48, 0
10, 446400, Note_on_c, 5, 43, 64
10, 446876, Note_on_c, 5, 43, 0
10, 447120, Note_on_c, 5, 45, 64
10, 447596, Note_on_c, 5, 45, 0
10, 447840, Note_on_c, 5, 47, 64
10, 448076, Note_on_c, 5, 47, 0
10, 448080, Note_on_c, 5, 45, 64
10, 448316, Note_on_c, 5, 45, 0
10, 448320, Note_on_c, 5, 47, 64
10, 448556, Note_on_c, 5, 47, 0
10, 448560, Note_on_c, 5, 40, 64
10, 448796, Note_on_c, 5, 40, 0
10, 448800, Note_on_c, 5, 43, 64
10, 449036, Note_on_c, 5, 43, 0
10, 449040, Note_on_c, 5, 47, 64
10, 449276, Note_on_c, 5, 47, 0
10, 449280, Note_on_c, 5, 52, 64
10, 449756, Note_on_c, 5, 52, 0
10, 453600, Note_on_c, 5, 52, 64
10, 453716, Note_on_c, 5, 52, 0
10, 453720, Note_on_c, 5, 51, 64
10, 453836, Note_on_c, 5, 51, 0
10, 453840, Note_on_c, 5, 52, 64
10, 453956, Note_on_c, 5, 52, 0
10, 453960, Note_on_c, 5, 54, 64
10, 454076, Note_on_c, 5, 54, 0
10, 454080, Note_on_c, 5, 55, 64
10, 454196, Note_on_c, 5, 55, 0
10, 454200, Note_on_c, 5, 57, 64
10, 454316, Note_on_c, 5, 57, 0
10, 454320, Note_on_c, 5, 59, 64
10, 454436, Note_on_c, 5, 59, 0
10, 454440, Note_on_c, 5, 60, 64
10, 454556, Note_on_c, 5, 60, 0
10, 454560, Note_on_c, 5, 59, 64
10, 454676, Note_on_c, 5, 59, 0
10, 454680, Note_on_c, 5, 57, 64
10, 454796, Note_on_c, 5, 57, 0
10, 454800, Note_on_c, 5, 55, 64
10, 454916, Note_on_c, 5, 55, 0
10, 454920, Note_on_c, 5, 54, 64
10, 455036, Note_on_c, 5, 54, 0
10, 455040, Note_on_c, 5, 52, 64
10, 455156, Note_on_c, 5, 52, 0
10, 455160, Note_on_c, 5, 51, 64
10, 455276, Note_on_c, 5, 51, 0
10, 455280, Note_on_c, 5, 52, 64
10, 455396, Note_on_c, 5, 52, 0
10, 455400, Note_on_c, 5, 54, 64
10, 455516, Note_on_c, 5, 54, 0
10, 455520, Note_on_c, 5, 55, 64
10, 455636, Note_on_c, 5, 55, 0
10, 455640, Note_on_c, 5, 52, 64
10, 455756, Note_on_c, 5, 52, 0
10, 455760, Note_on_c, 5, 57, 64
10, 455876, Note_on_c, 5, 57, 0
10, 455880, Note_on_c, 5, 59, 64
10, 455996, Note_on_c, 5, 59, 0
10, 456000, Note_on_c, 5, 57, 64
10, 456116, Note_on_c, 5, 57, 0
10, 456120, Note_on_c, 5, 55, 64
10, 456236, Note_on_c, 5, 55, 0
10, 456240, Note_on_c, 5, 54, 64
10, 456356, Note_on_c, 5, 54, 0
10, 456360, Note_on_c, 5, 52, 64
10, 456476, Note_on_c, 5, 52, 0
10, 456480, Note_on_c, 5, 50, 64
10, 456596, Note_on_c, 5, 50, 0
10, 456600, Note_on_c, 5, 49, 64
10, 456716, Note_on_c, 5, 49, 0
10, 456720, Note_on_c, 5, 50, 64
10, 456836, Note_on_c, 5, 50, 0
10, 456840, Note_on_c, 5, 52, 64
10, 456956, Note_on_c, 5, 52, 0
10, 456960, Note_on_c, 5, 54, 64
10, 457076, Note_on_c, 5, 54, 0
10, 457080, Note_on_c, 5, 50, 64
10, 457196, Note_on_c, 5, 50, 0
10, 457200, Note_on_c, 5, 55, 64
10, 457316, Note_on_c, 5, 55, 0
10, 457320, Note_on_c, 5, 57, 64
10, 457436, Note_on_c, 5, 57, 0
10, 457440, Note_on_c, 5, 55, 64
10, 457556, Note_on_c, 5, 55, 0
10, 457560, Note_on_c, 5, 54, 64
10, 457676, Note_on_c, 5, 54, 0
10, 457680, Note_on_c, 5, 52, 64
10, 457796, Note_on_c, 5, 52, 0
10, 457800, Note_on_c, 5, 50, 64
10, 457916, Note_on_c, 5, 50, 0
10, 457920, Note_on_c, 5, 49, 64
10, 458036, Note_on_c, 5, 49, 0
10, 458040, Note_on_c, 5, 47, 64
10, 458156, Note_on_c, 5, 47, 0
10, 458160, Note_on_c, 5, 49, 64
10, 458276, Note_on_c, 5, 49, 0
10, 458280, Note_on_c, 5, 50, 64
10, 458396, Note_on_c, 5, 50, 0
10, 458400, Note_on_c, 5, 52, 64
10, 458516, Note_on_c, 5, 52, 0
10, 458520, Note_on_c, 5, 49, 64
10, 458636, Note_on_c, 5, 49, 0
10, 458640, Note_on_c, 5, 54, 64
10, 458756, Note_on_c, 5, 54, 0
10, 458760, Note_on_c, 5, 55, 64
10, 458876, Note_on_c, 5, 55, 0
10, 458880, Note_on_c, 5, 54, 64
10, 458996, Note_on_c, 5, 54, 0
10, 459000, Note_on_c, 5, 52, 64
10, 459116, Note_on_c, 5, 52, 0
10, 459120, Note_on_c, 5, 50, 64
10, 459236, Note_on_c, 5, 50, 0
10, 459240, Note_on_c, 5, 49, 64
10, 459356, Note_on_c, 5, 49, 0
10, 459360, Note_on_c, 5, 47, 64
10, 459836, Note_on_c, 5, 47, 0
10, 460080, Note_on_c, 5, 42, 64
10, 460556, Note_on_c, 5, 42, 0
10, 460800, Note_on_c, 5, 47, 64
10, 461276, Note_on_c, 5, 47, 0
10, 461520, Note_on_c, 5, 54, 64
10, 461996, Note_on_c, 5, 54, 0
10, 462240, Note_on_c, 5, 47, 64
10, 462476, Note_on_c, 5, 47, 0
10, 462480, Note_on_c, 5, 50, 64
10, 462716, Note_on_c, 5, 50, 0
10, 462720, Note_on_c, 5, 54, 64
10, 462956, Note_on_c, 5, 54, 0
10, 462960, Note_on_c, 5, 46, 64
10, 463196, Note_on_c, 5, 46, 0
10, 463200, Note_on_c, 5, 49, 64
10, 463436, Note_on_c, 5, 49, 0
10, 463440, Note_on_c, 5, 54, 64
10, 463676, Note_on_c, 5, 54, 0
10, 463680, Note_on_c, 5, 47, 64
10, 463796, Note_on_c, 5, 47, 0
10, 463800, Note_on_c, 5, 46, 64
10, 463916, Note_on_c, 5, 46, 0
10, 463920, Note_on_c, 5, 47, 64
10, 464036, Note_on_c, 5, 47, 0
10, 464040, Note_on_c, 5, 49, 64
10, 464156, Note_on_c, 5, 49, 0
10, 464160, Note_on_c, 5, 50, 64
10, 464276, Note_on_c, 5, 50, 0
10, 464280, Note_on_c, 5, 52, 64
10, 464396, Note_on_c, 5, 52, 0
10, 464400, Note_on_c, 5, 54, 64
10, 464516, Note_on_c, 5, 54, 0
10, 464520, Note_on_c, 5, 55, 64
10, 464636, Note_on_c, 5, 55, 0
10, 464640, Note_on_c, 5, 54, 64
10, 464756, Note_on_c, 5, 54, 0
10, 464760, Note_on_c, 5, 52, 64
10, 464876, Note_on_c, 5, 52, 0
10, 464880, Note_on_c, 5, 50, 64
10, 464996, Note_on_c, 5, 50, 0
10, 465000, Note_on_c, 5, 49, 64
10, 465116, Note_on_c, 5, 49, 0
10, 465120, Note_on_c, 5, 47, 64
10, 465236, Note_on_c, 5, 47, 0
10, 465240, Note_on_c, 5, 46, 64
10, 465356, Note_on_c, 5, 46, 0
10, 465360, Note_on_c, 5, 47, 64
10, 465476, Note_on_c, 5, 47, 0
10, 465480, Note_on_c, 5, 49, 64
10, 465596, Note_on_c, 5, 49, 0
10, 465600, Note_on_c, 5, 50, 64
10, 465716, Note_on_c, 5, 50, 0
10, 465720, Note_on_c, 5, 47, 64
10, 465836, Note_on_c, 5, 47, 0
10, 465840, Note_on_c, 5, 52, 64
10, 465956, Note_on_c, 5, 52, 0
10, 465960, Note_on_c, 5, 54, 64
10, 466076, Note_on_c, 5, 54, 0
10, 466080, Note_on_c, 5, 52, 64
10, 466196, Note_on_c, 5, 52, 0
10, 466200, Note_on_c, 5, 50, 64
10, 466316, Note_on_c, 5, 50, 0
10, 466320, Note_on_c, 5, 49, 64
10, 466436, Note_on_c, 5, 49, 0
10, 466440, Note_on_c, 5, 47, 64
10, 466556, Note_on_c, 5, 47, 0
10, 466560, Note_on_c, 5, 45, 64
10, 466676, Note_on_c, 5, 45, 0
10, 466680, Note_on_c, 5, 43, 64
10, 466796, Note_on_c, 5, 43, 0
10, 466800, Note_on_c, 5, 45, 64
10, 466916, Note_on_c, 5, 45, 0
10, 466920, Note_on_c, 5, 47, 64
10, 467036, Note_on_c, 5, 47, 0
10, 467040, Note_on_c, 5, 49, 64
10, 467156, Note_on_c, 5, 49, 0
10, 467160, Note_on_c, 5, 45, 64
10, 467276, Note_on_c, 5, 45, 0
10, 467280, Note_on_c, 5, 50, 64
10, 467396, Note_on_c, 5, 50, 0
10, 467400, Note_on_c, 5, 52, 64
10, 467516, Note_on_c, 5, 52, 0
10, 467520, Note_on_c, 5, 50, 64
10, 467636, Note_on_c, 5, 50, 0
10, 467640, Note_on_c, 5, 49, 64
10, 467756, Note_on_c, 5, 49, 0
10, 467760, Note_on_c, 5, 47, 64
10, 467876, Note_on_c, 5, 47, 0
10, 467880, Note_on_c, 5, 45, 64
10, 467996, Note_on_c, 5, 45, 0
10, 468000, Note_on_c, 5, 43, 64
10, 468116, Note_on_c, 5, 43, 0
10, 468120, Note_on_c, 5, 42, 64
10, 468236, Note_on_c, 5, 42, 0
10, 468240, Note_on_c, 5, 43, 64
10, 468356, Note_on_c, 5, 43, 0
10, 468360, Note_on_c, 5, 45, 64
10, 468476, Note_on_c, 5, 45, 0
10, 468480, Note_on_c, 5, 47, 64
10, 468596, Note_on_c, 5, 47, 0
10, 468600, Note_on_c, 5, 43, 64
10, 468716, Note_on_c, 5, 43, 0
10, 468720, Note_on_c, 5, 49, 64
10, 468836, Note_on_c, 5, 49, 0
10, 468840, Note_on_c, 5, 50, 64
10, 468956, Note_on_c, 5, 50, 0
10, 468960, Note_on_c, 5, 49, 64
10, 469076, Note_on_c, 5, 49, 0
10, 469080, Note_on_c, 5, 47, 64
10, 469196, Note_on_c, 5, 47, 0
10, 469200, Note_on_c, 5, 46, 64
10, 469316, Note_on_c, 5, 46, 0
10, 469320, Note_on_c, 5, 44, 64
10, 469436, Note_on_c, 5, 44, 0
10, 469440, Note_on_c, 5, 42, 64
10, 469676, Note_on_c, 5, 42, 0
10, 469680, Note_on_c, 5, 42, 64
10, 469916, Note_on_c, 5, 42, 0
10, 469920, Note_on_c, 5, 42, 64
10, 470156, Note_on_c, 5, 42, 0
10, 470160, Note_on_c, 5, 42, 64
10, 470396, Note_on_c, 5, 42, 0
10, 470400, Note_on_c, 5, 42, 64
10, 470636, Note_on_c, 5, 42, 0
10, 470640, Note_on_c, 5, 42, 64
10, 470876, Note_on_c, 5, 42, 0
10, 470880, Note_on_c, 5, 42, 64
10, 471116, Note_on_c, 5, 42, 0
10, 471120, Note_on_c, 5, 42, 64
10, 471356, Note_on_c, 5, 42, 0
10, 471360, Note_on_c, 5, 42, 64
10, 471596, Note_on_c, 5, 42, 0
10, 471600, Note_on_c, 5, 42, 64
10, 471836, Note_on_c, 5, 42, 0
10, 471840, Note_on_c, 5, 42, 64
10, 472076, Note_on_c, 5, 42, 0
10, 472080, Note_on_c, 5, 42, 64
10, 472316, Note_on_c, 5, 42, 0
10, 472320, Note_on_c, 5, 42, 64
10, 472556, Note_on_c, 5, 42, 0
10, 472560, Note_on_c, 5, 42, 64
10, 472796, Note_on_c, 5, 42, 0
10, 472800, Note_on_c, 5, 42, 64
10, 473036, Note_on_c, 5, 42, 0
10, 473040, Note_on_c, 5, 42, 64
10, 473276, Note_on_c, 5, 42, 0
10, 473280, Note_on_c, 5, 42, 64
10, 473516, Note_on_c, 5, 42, 0
10, 473520, Note_on_c, 5, 42, 64
10, 473756, Note_on_c, 5, 42, 0
10, 473760, Note_on_c, 5, 42, 64
10, 473996, Note_on_c, 5, 42, 0
10, 474000, Note_on_c, 5, 42, 64
10, 474236, Note_on_c, 5, 42, 0
10, 474240, Note_on_c, 5, 42, 64
10, 474476, Note_on_c, 5, 42, 0
10, 474480, Note_on_c, 5, 42, 64
10, 474716, Note_on_c, 5, 42, 0
10, 474720, Note_on_c, 5, 42, 64
10, 474956, Note_on_c, 5, 42, 0
10, 474960, Note_on_c, 5, 42, 64
10, 475196, Note_on_c, 5, 42, 0
10, 475200, Note_on_c, 5, 42, 64
10, 475436, Note_on_c, 5, 42, 0
10, 475440, Note_on_c, 5, 46, 64
10, 475676, Note_on_c, 5, 46, 0
10, 475680, Note_on_c, 5, 49, 64
10, 475916, Note_on_c, 5, 49, 0
10, 475920, Note_on_c, 5, 46, 64
10, 476156, Note_on_c, 5, 46, 0
10, 476160, Note_on_c, 5, 49, 64
10, 476396, Note_on_c, 5, 49, 0
10, 476400, Note_on_c, 5, 54, 64
10, 476636, Note_on_c, 5, 54, 0
10, 476640, Note_on_c, 5, 47, 64
10, 476876, Note_on_c, 5, 47, 0
10, 476880, Note_on_c, 5, 51, 64
10, 477116, Note_on_c, 5, 51, 0
10, 477120, Note_on_c, 5, 54, 64
10, 477356, Note_on_c, 5, 54, 0
10, 477360, Note_on_c, 5, 51, 64
10, 477596, Note_on_c, 5, 51, 0
10, 477600, Note_on_c, 5, 54, 64
10, 477836, Note_on_c, 5, 54, 0
10, 477840, Note_on_c, 5, 59, 64
10, 478076, Note_on_c, 5, 59, 0
10, 478080, Note_on_c, 5, 40, 64
10, 478556, Note_on_c, 5, 40, 0
10, 479520, Note_on_c, 5, 52, 64
10, 479996, Note_on_c, 5, 52, 0
10, 480960, Note_on_c, 5, 50, 64
10, 481196, Note_on_c, 5, 50, 0
10, 481200, Note_on_c, 5, 49, 64
10, 481436, Note_on_c, 5, 49, 0
10, 481440, Note_on_c, 5, 47, 64
10, 481676, Note_on_c, 5, 47, 0
10, 481680, Note_on_c, 5, 54, 64
10, 482156, Note_on_c, 5, 54, 0
10, 482160, Note_on_c, 5, 42, 64
10, 482396, Note_on_c, 5, 42, 0
10, 482400, Note_on_c, 5, 47, 64
10, 482636, Note_on_c, 5, 47, 0
10, 482640, Note_on_c, 5, 50, 64
10, 482876, Note_on_c, 5, 50, 0
10, 482880, Note_on_c, 5, 54, 64
10, 483116, Note_on_c, 5, 54, 0
10, 483120, Note_on_c, 5, 59, 64
10, 483356, Note_on_c, 5, 59, 0
10, 483360, Note_on_c, 5, 57, 64
10, 483476, Note_on_c, 5, 57, 0
10, 483480, Note_on_c, 5, 55, 64
10, 483596, Note_on_c, 5, 55, 0
10, 483600, Note_on_c, 5, 54, 64
10, 483716, Note_on_c, 5, 54, 0
10, 483720, Note_on_c, 5, 52, 64
10, 483836, Note_on_c, 5, 52, 0
10, 483840, Note_on_c, 5, 51, 64
10, 484076, Note_on_c, 5, 51, 0
10, 484080, Note_on_c, 5, 54, 64
10, 484316, Note_on_c, 5, 54, 0
10, 484320, Note_on_c, 5, 59, 64
10, 484556, Note_on_c, 5, 59, 0
10, 484560, Note_on_c, 5, 47, 64
10, 484796, Note_on_c, 5, 47, 0
10, 484800, Note_on_c, 5, 54, 64
10, 485036, Note_on_c, 5, 54, 0
10, 485040, Note_on_c, 5, 59, 64
10, 485276, Note_on_c, 5, 59, 0
10, 485280, Note_on_c, 5, 52, 64
10, 485516, Note_on_c, 5, 52, 0
10, 485520, Note_on_c, 5, 55, 64
10, 485756, Note_on_c, 5, 55, 0
10, 485760, Note_on_c, 5, 59, 64
10, 485996, Note_on_c, 5, 59, 0
10, 486000, Note_on_c, 5, 64, 64
10, 486236, Note_on_c, 5, 64, 0
10, 486240, Note_on_c, 5, 62, 64
10, 486356, Note_on_c, 5, 62, 0
10, 486360, Note_on_c, 5, 60, 64
10, 486476, Note_on_c, 5, 60, 0
10, 486480, Note_on_c, 5, 59, 64
10, 486596, Note_on_c, 5, 59, 0
10, 486600, Note_on_c, 5, 57, 64
10, 486716, Note_on_c, 5, 57, 0
10, 486720, Note_on_c, 5, 56, 64
10, 486956, Note_on_c, 5, 56, 0
10, 486960, Note_on_c, 5, 59, 64
10, 487196, Note_on_c, 5, 59, 0
10, 487200, Note_on_c, 5, 64, 64
10, 487436, Note_on_c, 5, 64, 0
10, 487440, Note_on_c, 5, 52, 64
10, 487676, Note_on_c, 5, 52, 0
10, 487680, Note_on_c, 5, 59, 64
10, 487916, Note_on_c, 5, 59, 0
10, 487920, Note_on_c, 5, 64, 64
10, 488156, Note_on_c, 5, 64, 0
10, 488160, Note_on_c, 5, 45, 64
10, 488396, Note_on_c, 5, 45, 0
10, 488400, Note_on_c, 5, 48, 64
10, 488636, Note_on_c, 5, 48, 0
10, 488640, Note_on_c, 5, 52, 64
10, 488876, Note_on_c, 5, 52, 0
10, 488880, Note_on_c, 5, 57, 64
10, 488996, Note_on_c, 5, 57, 0
10, 489000, Note_on_c, 5, 59, 64
10, 489116, Note_on_c, 5, 59, 0
10, 489120, Note_on_c, 5, 57, 64
10, 489236, Note_on_c, 5, 57, 0
10, 489240, Note_on_c, 5, 55, 64
10, 489356, Note_on_c, 5, 55, 0
10, 489360, Note_on_c, 5, 53, 64
10, 489476, Note_on_c, 5, 53, 0
10, 489480, Note_on_c, 5, 52, 64
10, 489596, Note_on_c, 5, 52, 0
10, 489600, Note_on_c, 5, 50, 64
10, 489836, Note_on_c, 5, 50, 0
10, 489840, Note_on_c, 5, 57, 64
10, 490076, Note_on_c, 5, 57, 0
10, 490080, Note_on_c, 5, 62, 64
10, 490316, Note_on_c, 5, 62, 0
10, 490320, Note_on_c, 5, 55, 64
10, 490556, Note_on_c, 5, 55, 0
10, 490560, Note_on_c, 5, 50, 64
10, 490796, Note_on_c, 5, 50, 0
10, 490800, Note_on_c, 5, 43, 64
10, 491036, Note_on_c, 5, 43, 0
10, 491040, Note_on_c, 5, 48, 64
10, 491276, Note_on_c, 5, 48, 0
10, 491280, Note_on_c, 5, 55, 64
10, 491516, Note_on_c, 5, 55, 0
10, 491520, Note_on_c, 5, 60, 64
10, 491756, Note_on_c, 5, 60, 0
10, 491760, Note_on_c, 5, 53, 64
10, 491996, Note_on_c, 5, 53, 0
10, 492000, Note_on_c, 5, 48, 64
10, 492236, Note_on_c, 5, 48, 0
10, 492240, Note_on_c, 5, 41, 64
10, 492476, Note_on_c, 5, 41, 0
10, 492480, Note_on_c, 5, 53, 64
10, 492956, Note_on_c, 5, 53, 0
10, 493200, Note_on_c, 5, 52, 64
10, 493676, Note_on_c, 5, 52, 0
10, 493920, Note_on_c, 5, 50, 64
10, 494396, Note_on_c, 5, 50, 0
10, 494640, Note_on_c, 5, 48, 64
10, 495116, Note_on_c, 5, 48, 0
10, 495360, Note_on_c, 5, 47, 64
10, 495596, Note_on_c, 5, 47, 0
10, 495600, Note_on_c, 5, 50, 64
10, 495836, Note_on_c, 5, 50, 0
10, 495840, Note_on_c, 5, 55, 64
10, 496076, Note_on_c, 5, 55, 0
10, 496080, Note_on_c, 5, 48, 64
10, 496316, Note_on_c, 5, 48, 0
10, 496320, Note_on_c, 5, 52, 64
10, 496556, Note_on_c, 5, 52, 0
10, 496560, Note_on_c, 5, 55, 64
10, 496796, Note_on_c, 5, 55, 0
10, 496800, Note_on_c, 5, 47, 64
10, 496916, Note_on_c, 5, 47, 0
10, 496920, Note_on_c, 5, 50, 64
10, 497036, Note_on_c, 5, 50, 0
10, 497040, Note_on_c, 5, 43, 64
10, 497156, Note_on_c, 5, 43, 0
10, 497160, Note_on_c, 5, 50, 64
10, 497276, Note_on_c, 5, 50, 0
10, 497280, Note_on_c, 5, 47, 64
10, 497396, Note_on_c, 5, 47, 0
10, 497400, Note_on_c, 5, 50, 64
10, 497516, Note_on_c, 5, 50, 0
10, 497520, Note_on_c, 5, 48, 64
10, 497636, Note_on_c, 5, 48, 0
10, 497640, Note_on_c, 5, 52, 64
10, 497756, Note_on_c, 5, 52, 0
10, 497760, Note_on_c, 5, 43, 64
10, 497876, Note_on_c, 5, 43, 0
10, 497880, Note_on_c, 5, 52, 64
10, 497996, Note_on_c, 5, 52, 0
10, 498000, Note_on_c, 5, 48, 64
10, 498116, Note_on_c, 5, 48, 0
10, 498120, Note_on_c, 5, 52, 64
10, 498236, Note_on_c, 5, 52, 0
10, 498240, Note_on_c, 5, 42, 64
10, 498476, Note_on_c, 5, 42, 0
10, 498480, Note_on_c, 5, 42, 64
10, 498716, Note_on_c, 5, 42, 0
10, 498720, Note_on_c, 5, 42, 64
10, 498956, Note_on_c, 5, 42, 0
10, 498960, Note_on_c, 5, 42, 64
10, 499196, Note_on_c, 5, 42, 0
10, 499200, Note_on_c, 5, 42, 64
10, 499436, Note_on_c, 5, 42, 0
10, 499440, Note_on_c, 5, 42, 64
10, 499676, Note_on_c, 5, 42, 0
10, 499680, Note_on_c, 5, 41, 64
10, 499916, Note_on_c, 5, 41, 0
10, 499920, Note_on_c, 5, 41, 64
10, 500156, Note_on_c, 5, 41, 0
10, 500160, Note_on_c, 5, 41, 64
10, 500396, Note_on_c, 5, 41, 0
10, 500400, Note_on_c, 5, 41, 64
10, 500636, Note_on_c, 5, 41, 0
10, 500640, Note_on_c, 5, 41, 64
10, 500876, Note_on_c, 5, 41, 0
10, 500880, Note_on_c, 5, 41, 64
10, 501116, Note_on_c, 5, 41, 0
10, 501120, Note_on_c, 5, 40, 64
10, 501596, Note_on_c, 5, 40, 0
10, 501840, Note_on_c, 5, 41, 64
10, 502316, Note_on_c, 5, 41, 0
10, 502560, Note_on_c, 5, 43, 64
10, 503036, Note_on_c, 5, 43, 0
10, 503280, Note_on_c, 5, 45, 64
10, 503756, Note_on_c, 5, 45, 0
10, 504000, Note_on_c, 5, 40, 64
10, 504476, Note_on_c, 5, 40, 0
10, 504720, Note_on_c, 5, 41, 64
10, 505196, Note_on_c, 5, 41, 0
10, 505440, Note_on_c, 5, 43, 64
10, 505676, Note_on_c, 5, 43, 0
10, 505680, Note_on_c, 5, 41, 64
10, 505916, Note_on_c, 5, 41, 0
10, 505920, Note_on_c, 5, 43, 64
10, 506156, Note_on_c, 5, 43, 0
10, 506160, Note_on_c, 5, 36, 64
10, 506636, Note_on_c, 5, 36, 0
10, 506640, Note_on_c, 5, 38, 64
10, 506876, Note_on_c, 5, 38, 0
10, 506880, Note_on_c, 5, 40, 64
10, 507116, Note_on_c, 5, 40, 0
10, 507120, Note_on_c, 5, 38, 64
10, 507356, Note_on_c, 5, 38, 0
10, 507360, Note_on_c, 5, 36, 64
10, 507596, Note_on_c, 5, 36, 0
10, 507600, Note_on_c, 5, 43, 64
10, 507836, Note_on_c, 5, 43, 0
10, 507840, Note_on_c, 5, 45, 64
10, 508076, Note_on_c, 5, 45, 0
10, 508080, Note_on_c, 5, 47, 64
10, 508316, Note_on_c, 5, 47, 0
10, 508320, Note_on_c, 5, 48, 64
10, 508796, Note_on_c, 5, 48, 0
10, 509040, Note_on_c, 5, 55, 64
10, 509516, Note_on_c, 5, 55, 0
10, 509760, Note_on_c, 5, 48, 64
10, 510236, Note_on_c, 5, 48, 0
10, 510480, Note_on_c, 5, 43, 64
10, 510956, Note_on_c, 5, 43, 0
10, 511200, Note_on_c, 5, 48, 64
10, 511316, Note_on_c, 5, 48, 0
10, 511320, Note_on_c, 5, 47, 64
10, 511436, Note_on_c, 5, 47, 0
10, 511440, Note_on_c, 5, 48, 64
10, 511556, Note_on_c, 5, 48, 0
10, 511560, Note_on_c, 5, 50, 64
10, 511676, Note_on_c, 5, 50, 0
10, 511680, Note_on_c, 5, 52, 64
10, 511796, Note_on_c, 5, 52, 0
10, 511800, Note_on_c, 5, 53, 64
10, 511916, Note_on_c, 5, 53, 0
10, 511920, Note_on_c, 5, 55, 64
10, 512036, Note_on_c, 5, 55, 0
10, 512040, Note_on_c, 5, 57, 64
10, 512156, Note_on_c, 5, 57, 0
10, 512160, Note_on_c, 5, 55, 64
10, 512276, Note_on_c, 5, 55, 0
10, 512280, Note_on_c, 5, 53, 64
10, 512396, Note_on_c, 5, 53, 0
10, 512400, Note_on_c, 5, 52, 64
10, 512516, Note_on_c, 5, 52, 0
10, 512520, Note_on_c, 5, 50, 64
10, 512636, Note_on_c, 5, 50, 0
10, 512640, Note_on_c, 5, 48, 64
10, 512756, Note_on_c, 5, 48, 0
10, 512760, Note_on_c, 5, 47, 64
10, 512876, Note_on_c, 5, 47, 0
10, 512880, Note_on_c, 5, 48, 64
10, 512996, Note_on_c, 5, 48, 0
10, 513000, Note_on_c, 5, 50, 64
10, 513116, Note_on_c, 5, 50, 0
10, 513120, Note_on_c, 5, 52, 64
10, 513236, Note_on_c, 5, 52, 0
10, 513240, Note_on_c, 5, 48, 64
10, 513356, Note_on_c, 5, 48, 0
10, 513360, Note_on_c, 5, 54, 64
10, 513476, Note_on_c, 5, 54, 0
10, 513480, Note_on_c, 5, 55, 64
10, 513596, Note_on_c, 5, 55, 0
10, 513600, Note_on_c, 5, 54, 64
10, 513716, Note_on_c, 5, 54, 0
10, 513720, Note_on_c, 5, 52, 64
10, 513836, Note_on_c, 5, 52, 0
10, 513840, Note_on_c, 5, 50, 64
10, 513956, Note_on_c, 5, 50, 0
10, 513960, Note_on_c, 5, 48, 64
10, 514076, Note_on_c, 5, 48, 0
10, 514080, Note_on_c, 5, 47, 64
10, 514196, Note_on_c, 5, 47, 0
10, 514200, Note_on_c, 5, 45, 64
10, 514316, Note_on_c, 5, 45, 0
10, 514320, Note_on_c, 5, 47, 64
10, 514436, Note_on_c, 5, 47, 0
10, 514440, Note_on_c, 5, 48, 64
10, 514556, Note_on_c, 5, 48, 0
10, 514560, Note_on_c, 5, 50, 64
10, 514676, Note_on_c, 5, 50, 0
10, 514680, Note_on_c, 5, 47, 64
10, 514796, Note_on_c, 5, 47, 0
10, 514800, Note_on_c, 5, 52, 64
10, 514916, Note_on_c, 5, 52, 0
10, 514920, Note_on_c, 5, 54, 64
10, 515036, Note_on_c, 5, 54, 0
10, 515040, Note_on_c, 5, 52, 64
10, 515156, Note_on_c, 5, 52, 0
10, 515160, Note_on_c, 5, 50, 64
10, 515276, Note_on_c, 5, 50, 0
10, 515280, Note_on_c, 5, 48, 64
10, 515396, Note_on_c, 5, 48, 0
10, 515400, Note_on_c, 5, 47, 64
10, 515516, Note_on_c, 5, 47, 0
10, 515520, Note_on_c, 5, 45, 64
10, 515636, Note_on_c, 5, 45, 0
10, 515640, Note_on_c, 5, 43, 64
10, 515756, Note_on_c, 5, 43, 0
10, 515760, Note_on_c, 5, 45, 64
10, 515876, Note_on_c, 5, 45, 0
10, 515880, Note_on_c, 5, 47, 64
10, 515996, Note_on_c, 5, 47, 0
10, 516000, Note_on_c, 5, 48, 64
10, 516116, Note_on_c, 5, 48, 0
10, 516120, Note_on_c, 5, 45, 64
10, 516236, Note_on_c, 5, 45, 0
10, 516240, Note_on_c, 5, 50, 64
10, 516356, Note_on_c, 5, 50, 0
10, 516360, Note_on_c, 5, 52, 64
10, 516476, Note_on_c, 5, 52, 0
10, 516480, Note_on_c, 5, 50, 64
10, 516596, Note_on_c, 5, 50, 0
10, 516600, Note_on_c, 5, 48, 64
10, 516716, Note_on_c, 5, 48, 0
10, 516720, Note_on_c, 5, 47, 64
10, 516836, Note_on_c, 5, 47, 0
10, 516840, Note_on_c, 5, 45, 64
10, 516956, Note_on_c, 5, 45, 0
10, 516960, Note_on_c, 5, 43, 64
10, 517436, Note_on_c, 5, 43, 0
10, 517680, Note_on_c, 5, 38, 64
10, 518156, Note_on_c, 5, 38, 0
10, 518400, Note_on_c, 5, 43, 64
10, 518876, Note_on_c, 5, 43, 0
10, 519120, Note_on_c, 5, 50, 64
10, 519596, Note_on_c, 5, 50, 0
10, 519840, Note_on_c, 5, 55, 64
10, 520076, Note_on_c, 5, 55, 0
10, 520080, Note_on_c, 5, 59, 64
10, 520316, Note_on_c, 5, 59, 0
10, 520320, Note_on_c, 5, 62, 64
10, 520556, Note_on_c, 5, 62, 0
10, 520560, Note_on_c, 5, 50, 64
10, 520796, Note_on_c, 5, 50, 0
10, 520800, Note_on_c, 5, 57, 64
10, 521036, Note_on_c, 5, 57, 0
10, 521040, Note_on_c, 5, 62, 64
10, 521276, Note_on_c, 5, 62, 0
10, 521280, Note_on_c, 5, 43, 64
10, 521396, Note_on_c, 5, 43, 0
10, 521400, Note_on_c, 5, 42, 64
10, 521516, Note_on_c, 5, 42, 0
10, 521520, Note_on_c, 5, 43, 64
10, 521636, Note_on_c, 5, 43, 0
10, 521640, Note_on_c, 5, 45, 64
10, 521756, Note_on_c, 5, 45, 0
10, 521760, Note_on_c, 5, 47, 64
10, 521876, Note_on_c, 5, 47, 0
10, 521880, Note_on_c, 5, 48, 64
10, 521996, Note_on_c, 5, 48, 0
10, 522000, Note_on_c, 5, 50, 64
10, 522116, Note_on_c, 5, 50, 0
10, 522120, Note_on_c, 5, 52, 64
10, 522236, Note_on_c, 5, 52, 0
10, 522240, Note_on_c, 5, 50, 64
10, 522356, Note_on_c, 5, 50, 0
10, 522360, Note_on_c, 5, 48, 64
10, 522476, Note_on_c, 5, 48, 0
10, 522480, Note_on_c, 5, 47, 64
10, 522596, Note_on_c, 5, 47, 0
10, 522600, Note_on_c, 5, 45, 64
10, 522716, Note_on_c, 5, 45, 0
10, 522720, Note_on_c, 5, 43, 64
10, 522836, Note_on_c, 5, 43, 0
10, 522840, Note_on_c, 5, 42, 64
10, 522956, Note_on_c, 5, 42, 0
10, 522960, Note_on_c, 5, 43, 64
10, 523076, Note_on_c, 5, 43, 0
10, 523080, Note_on_c, 5, 45, 64
10, 523196, Note_on_c, 5, 45, 0
10, 523200, Note_on_c, 5, 47, 64
10, 523316, Note_on_c, 5, 47, 0
10, 523320, Note_on_c, 5, 43, 64
10, 523436, Note_on_c, 5, 43, 0
10, 523440, Note_on_c, 5, 48, 64
10, 523556, Note_on_c, 5, 48, 0
10, 523560, Note_on_c, 5, 50, 64
10, 523676, Note_on_c, 5, 50, 0
10, 523680, Note_on_c, 5, 48, 64
10, 523796, Note_on_c, 5, 48, 0
10, 523800, Note_on_c, 5, 47, 64
10, 523916, Note_on_c, 5, 47, 0
10, 523920, Note_on_c, 5, 45, 64
10, 524036, Note_on_c, 5, 45, 0
10, 524040, Note_on_c, 5, 43, 64
10, 524156, Note_on_c, 5, 43, 0
10, 524160, Note_on_c, 5, 42, 64
10, 524276, Note_on_c, 5, 42, 0
10, 524280, Note_on_c, 5, 40, 64
10, 524396, Note_on_c, 5, 40, 0
10, 524400, Note_on_c, 5, 42, 64
10, 524516, Note_on_c, 5, 42, 0
10, 524520, Note_on_c, 5, 43, 64
10, 524636, Note_on_c, 5, 43, 0
10, 524640, Note_on_c, 5, 45, 64
10, 524756, Note_on_c, 5, 45, 0
10, 524760, Note_on_c, 5, 42, 64
10, 524876, Note_on_c, 5, 42, 0
10, 524880, Note_on_c, 5, 47, 64
10, 524996, Note_on_c, 5, 47, 0
10, 525000, Note_on_c, 5, 48, 64
10, 525116, Note_on_c, 5, 48, 0
10, 525120, Note_on_c, 5, 47, 64
10, 525236, Note_on_c, 5, 47, 0
10, 525240, Note_on_c, 5, 45, 64
10, 525356, Note_on_c, 5, 45, 0
10, 525360, Note_on_c, 5, 43, 64
10, 525476, Note_on_c, 5, 43, 0
10, 525480, Note_on_c, 5, 42, 64
10, 525596, Note_on_c, 5, 42, 0
10, 525600, Note_on_c, 5, 40, 64
10, 525716, Note_on_c, 5, 40, 0
10, 525720, Note_on_c, 5, 38, 64
10, 525836, Note_on_c, 5, 38, 0
10, 525840, Note_on_c, 5, 40, 64
10, 525956, Note_on_c, 5, 40, 0
10, 525960, Note_on_c, 5, 42, 64
10, 526076, Note_on_c, 5, 42, 0
10, 526080, Note_on_c, 5, 43, 64
10, 526196, Note_on_c, 5, 43, 0
10, 526200, Note_on_c, 5, 40, 64
10, 526316, Note_on_c, 5, 40, 0
10, 526320, Note_on_c, 5, 45, 64
10, 526436, Note_on_c, 5, 45, 0
10, 526440, Note_on_c, 5, 47, 64
10, 526556, Note_on_c, 5, 47, 0
10, 526560, Note_on_c, 5, 45, 64
10, 526676, Note_on_c, 5, 45, 0
10, 526680, Note_on_c, 5, 43, 64
10, 526796, Note_on_c, 5, 43, 0
10, 526800, Note_on_c, 5, 42, 64
10, 526916, Note_on_c, 5, 42, 0
10, 526920, Note_on_c, 5, 40, 64
10, 527036, Note_on_c, 5, 40, 0
10, 527040, Note_on_c, 5, 38, 64
10, 527276, Note_on_c, 5, 38, 0
10, 527280, Note_on_c, 5, 38, 64
10, 527516, Note_on_c, 5, 38, 0
10, 527520, Note_on_c, 5, 38, 64
10, 527756, Note_on_c, 5, 38, 0
10, 527760, Note_on_c, 5, 38, 64
10, 527996, Note_on_c, 5, 38, 0
10, 528000, Note_on_c, 5, 38, 64
10, 528236, Note_on_c, 5, 38, 0
10, 528240, Note_on_c, 5, 38, 64
10, 528476, Note_on_c, 5, 38, 0
10, 528480, Note_on_c, 5, 38, 64
10, 528716, Note_on_c, 5, 38, 0
10, 528720, Note_on_c, 5, 38, 64
10, 528956, Note_on_c, 5, 38, 0
10, 528960, Note_on_c, 5, 38, 64
10, 529196, Note_on_c, 5, 38, 0
10, 529200, Note_on_c, 5, 38, 64
10, 529436, Note_on_c, 5, 38, 0
10, 529440, Note_on_c, 5, 38, 64
10, 529676, Note_on_c, 5, 38, 0
10, 529680, Note_on_c, 5, 38, 64
10, 529916, Note_on_c, 5, 38, 0
10, 529920, Note_on_c, 5, 38, 64
10, 530156, Note_on_c, 5, 38, 0
10, 530160, Note_on_c, 5, 38, 64
10, 530396, Note_on_c, 5, 38, 0
10, 530400, Note_on_c, 5, 38, 64
10, 530636, Note_on_c, 5, 38, 0
10, 530640, Note_on_c, 5, 38, 64
10, 530876, Note_on_c, 5, 38, 0
10, 530880, Note_on_c, 5, 38, 64
10, 531116, Note_on_c, 5, 38, 0
10, 531120, Note_on_c, 5, 38, 64
10, 531356, Note_on_c, 5, 38, 0
10, 531360, Note_on_c, 5, 38, 64
10, 531596, Note_on_c, 5, 38, 0
10, 531600, Note_on_c, 5, 38, 64
10, 531836, Note_on_c, 5, 38, 0
10, 531840, Note_on_c, 5, 38, 64
10, 532076, Note_on_c, 5, 38, 0
10, 532080, Note_on_c, 5, 38, 64
10, 532316, Note_on_c, 5, 38, 0
10, 532320, Note_on_c, 5, 38, 64
10, 532556, Note_on_c, 5, 38, 0
10, 532560, Note_on_c, 5, 38, 64
10, 532796, Note_on_c, 5, 38, 0
10, 532800, Note_on_c, 5, 38, 64
10, 533036, Note_on_c, 5, 38, 0
10, 533040, Note_on_c, 5, 42, 64
10, 533276, Note_on_c, 5, 42, 0
10, 533280, Note_on_c, 5, 45, 64
10, 533516, Note_on_c, 5, 45, 0
10, 533520, Note_on_c, 5, 42, 64
10, 533756, Note_on_c, 5, 42, 0
10, 533760, Note_on_c, 5, 45, 64
10, 533996, Note_on_c, 5, 45, 0
10, 534000, Note_on_c, 5, 50, 64
10, 534236, Note_on_c, 5, 50, 0
10, 534240, Note_on_c, 5, 43, 64
10, 534476, Note_on_c, 5, 43, 0
10, 534480, Note_on_c, 5, 47, 64
10, 534716, Note_on_c, 5, 47, 0
10, 534720, Note_on_c, 5, 50, 64
10, 534956, Note_on_c, 5, 50, 0
10, 534960, Note_on_c, 5, 47, 64
10, 535196, Note_on_c, 5, 47, 0
10, 535200, Note_on_c, 5, 50, 64
10, 535436, Note_on_c, 5, 50, 0
10, 535440, Note_on_c, 5, 55, 64
10, 535676, Note_on_c, 5, 55, 0
10, 535680, Note_on_c, 5, 36, 64
10, 536156, Note_on_c, 5, 36, 0
10, 537120, Note_on_c, 5, 48, 64
10, 537596, Note_on_c, 5, 48, 0
10, 538560, Note_on_c, 5, 47, 64
10, 538796, Note_on_c, 5, 47, 0
10, 538800, Note_on_c, 5, 45, 64
10, 539036, Note_on_c, 5, 45, 0
10, 539040, Note_on_c, 5, 43, 64
10, 539276, Note_on_c, 5, 43, 0
10, 539280, Note_on_c, 5, 50, 64
10, 539756, Note_on_c, 5, 50, 0
10, 539760, Note_on_c, 5, 38, 64
10, 539996, Note_on_c, 5, 38, 0
10, 540000, Note_on_c, 5, 43, 64
10, 541436, Note_on_c, 5, 43, 0
10, 541436, End_track
11, 0, Start_track
11, 0, Title_t, "Violone"
11, 0, Program_c, 6, 43
11, 1680, Note_on_c, 6, 43, 64
11, 1916, Note_on_c, 6, 43, 0
11, 1920, Note_on_c, 6, 43, 64
11, 2156, Note_on_c, 6, 43, 0
11, 2160, Note_on_c, 6, 55, 64
11, 2396, Note_on_c, 6, 55, 0
11, 2400, Note_on_c, 6, 55, 64
11, 2636, Note_on_c, 6, 55, 0
11, 2640, Note_on_c, 6, 43, 64
11, 2876, Note_on_c, 6, 43, 0
11, 2880, Note_on_c, 6, 43, 64
11, 3116, Note_on_c, 6, 43, 0
11, 3120, Note_on_c, 6, 55, 64
11, 3356, Note_on_c, 6, 55, 0
11, 3360, Note_on_c, 6, 55, 64
11, 3596, Note_on_c, 6, 55, 0
11, 3600, Note_on_c, 6, 43, 64
11, 3836, Note_on_c, 6, 43, 0
11, 3840, Note_on_c, 6, 43, 64
11, 4076, Note_on_c, 6, 43, 0
11, 4080, Note_on_c, 6, 55, 64
11, 4196, Note_on_c, 6, 55, 0
11, 4200, Note_on_c, 6, 54, 64
11, 4316, Note_on_c, 6, 54, 0
11, 4320, Note_on_c, 6, 52, 64
11, 4556, Note_on_c, 6, 52, 0
11, 4560, Note_on_c, 6, 57, 64
11, 4796, Note_on_c, 6, 57, 0
11, 4800, Note_on_c, 6, 50, 64
11, 5036, Note_on_c, 6, 50, 0
11, 5040, Note_on_c, 6, 62, 64
11, 5156, Note_on_c, 6, 62, 0
11, 5160, Note_on_c, 6, 61, 64
11, 5276, Note_on_c, 6, 61, 0
11, 5280, Note_on_c, 6, 62, 64
11, 5516, Note_on_c, 6, 62, 0
11, 5520, Note_on_c, 6, 50, 64
11, 5756, Note_on_c, 6, 50, 0
11, 5760, Note_on_c, 6, 50, 64
11, 5996, Note_on_c, 6, 50, 0
11, 6000, Note_on_c, 6, 62, 64
11, 6116, Note_on_c, 6, 62, 0
11, 6120, Note_on_c, 6, 61, 64
11, 6236, Note_on_c, 6, 61, 0
11, 6240, Note_on_c, 6, 62, 64
11, 6476, Note_on_c, 6, 62, 0
11, 6480, Note_on_c, 6, 50, 64
11, 6716, Note_on_c, 6, 50, 0
11, 6720, Note_on_c, 6, 50, 64
11, 6956, Note_on_c, 6, 50, 0
11, 6960, Note_on_c, 6, 62, 64
11, 7076, Note_on_c, 6, 62, 0
11, 7080, Note_on_c, 6, 61, 64
11, 7196, Note_on_c, 6, 61, 0
11, 7200, Note_on_c, 6, 62, 64
11, 7436, Note_on_c, 6, 62, 0
11, 7440, Note_on_c, 6, 50, 64
11, 7676, Note_on_c, 6, 50, 0
11, 7680, Note_on_c, 6, 55, 64
11, 7916, Note_on_c, 6, 55, 0
11, 7920, Note_on_c, 6, 52, 64
11, 8156, Note_on_c, 6, 52, 0
11, 8160, Note_on_c, 6, 48, 64
11, 8396, Note_on_c, 6, 48, 0
11, 8400, Note_on_c, 6, 50, 64
11, 8636, Note_on_c, 6, 50, 0
11, 8640, Note_on_c, 6, 52, 64
11, 8876, Note_on_c, 6, 52, 0
11, 8880, Note_on_c, 6, 50, 64
11, 8996, Note_on_c, 6, 50, 0
11, 9000, Note_on_c, 6, 48, 64
11, 9116, Note_on_c, 6, 48, 0
11, 9120, Note_on_c, 6, 47, 64
11, 9356, Note_on_c, 6, 47, 0
11, 9360, Note_on_c, 6, 45, 64
11, 9476, Note_on_c, 6, 45, 0
11, 9480, Note_on_c, 6, 43, 64
11, 9596, Note_on_c, 6, 43, 0
11, 9600, Note_on_c, 6, 48, 64
11, 9836, Note_on_c, 6, 48, 0
11, 9840, Note_on_c, 6, 47, 64
11, 9956, Note_on_c, 6, 47, 0
11, 9960, Note_on_c, 6, 45, 64
11, 10076, Note_on_c, 6, 45, 0
11, 10080, Note_on_c, 6, 43, 64
11, 10316, Note_on_c, 6, 43, 0
11, 10320, Note_on_c, 6, 55, 64
11, 10436, Note_on_c, 6, 55, 0
11, 10440, Note_on_c, 6, 54, 64
11, 10556, Note_on_c, 6, 54, 0
11, 10560, Note_on_c, 6, 52, 64
11, 10796, Note_on_c, 6, 52, 0
11, 10800, Note_on_c, 6, 50, 64
11, 10916, Note_on_c, 6, 50, 0
11, 10920, Note_on_c, 6, 48, 64
11, 11036, Note_on_c, 6, 48, 0
11, 11040, Note_on_c, 6, 47, 64
11, 11276, Note_on_c, 6, 47, 0
11, 11280, Note_on_c, 6, 49, 64
11, 11516, Note_on_c, 6, 49, 0
11, 11520, Note_on_c, 6, 50, 64
11, 11756, Note_on_c, 6, 50, 0
11, 11760, Note_on_c, 6, 38, 64
11, 11996, Note_on_c, 6, 38, 0
11, 12000, Note_on_c, 6, 38, 64
11, 12236, Note_on_c, 6, 38, 0
11, 12240, Note_on_c, 6, 50, 64
11, 12356, Note_on_c, 6, 50, 0
11, 12360, Note_on_c, 6, 52, 64
11, 12476, Note_on_c, 6, 52, 0
11, 12480, Note_on_c, 6, 54, 64
11, 12716, Note_on_c, 6, 54, 0
11, 12720, Note_on_c, 6, 55, 64
11, 12956, Note_on_c, 6, 55, 0
11, 12960, Note_on_c, 6, 57, 64
11, 13196, Note_on_c, 6, 57, 0
11, 13200, Note_on_c, 6, 54, 64
11, 13436, Note_on_c, 6, 54, 0
11, 13440, Note_on_c, 6, 55, 64
11, 13676, Note_on_c, 6, 55, 0
11, 13680, Note_on_c, 6, 60, 64
11, 13916, Note_on_c, 6, 60, 0
11, 13920, Note_on_c, 6, 62, 64
11, 14156, Note_on_c, 6, 62, 0
11, 14160, Note_on_c, 6, 50, 64
11, 14396, Note_on_c, 6, 50, 0
11, 14400, Note_on_c, 6, 55, 64
11, 14636, Note_on_c, 6, 55, 0
11, 14640, Note_on_c, 6, 54, 64
11, 14756, Note_on_c, 6, 54, 0
11, 14760, Note_on_c, 6, 52, 64
11, 14876, Note_on_c, 6, 52, 0
11, 14880, Note_on_c, 6, 50, 64
11, 14996, Note_on_c, 6, 50, 0
11, 15000, Note_on_c, 6, 48, 64
11, 15116, Note_on_c, 6, 48, 0
11, 15120, Note_on_c, 6, 47, 64
11, 15236, Note_on_c, 6, 47, 0
11, 15240, Note_on_c, 6, 45, 64
11, 15356, Note_on_c, 6, 45, 0
11, 15360, Note_on_c, 6, 47, 64
11, 15596, Note_on_c, 6, 47, 0
11, 15600, Note_on_c, 6, 45, 64
11, 15716, Note_on_c, 6, 45, 0
11, 15720, Note_on_c, 6, 43, 64
11, 15836, Note_on_c, 6, 43, 0
11, 15840, Note_on_c, 6, 50, 64
11, 16076, Note_on_c, 6, 50, 0
11, 16080, Note_on_c, 6, 38, 64
11, 16316, Note_on_c, 6, 38, 0
11, 16320, Note_on_c, 6, 43, 64
11, 16796, Note_on_c, 6, 43, 0
11, 17040, Note_on_c, 6, 50, 64
11, 17276, Note_on_c, 6, 50, 0
11, 17280, Note_on_c, 6, 43, 64
11, 17756, Note_on_c, 6, 43, 0
11, 18960, Note_on_c, 6, 50, 64
11, 19076, Note_on_c, 6, 50, 0
11, 19080, Note_on_c, 6, 48, 64
11, 19196, Note_on_c, 6, 48, 0
11, 19440, Note_on_c, 6, 43, 64
11, 19556, Note_on_c, 6, 43, 0
11, 19560, Note_on_c, 6, 45, 64
11, 19676, Note_on_c, 6, 45, 0
11, 19680, Note_on_c, 6, 47, 64
11, 19916, Note_on_c, 6, 47, 0
11, 19920, Note_on_c, 6, 49, 64
11, 20156, Note_on_c, 6, 49, 0
11, 20160, Note_on_c, 6, 50, 64
11, 20636, Note_on_c, 6, 50, 0
11, 20880, Note_on_c, 6, 57, 64
11, 21116, Note_on_c, 6, 57, 0
11, 21120, Note_on_c, 6, 62, 64
11, 21596, Note_on_c, 6, 62, 0
11, 21840, Note_on_c, 6, 57, 64
11, 22076, Note_on_c, 6, 57, 0
11, 22080, Note_on_c, 6, 50, 64
11, 22556, Note_on_c, 6, 50, 0
11, 22800, Note_on_c, 6, 45, 64
11, 23036, Note_on_c, 6, 45, 0
11, 23040, Note_on_c, 6, 38, 64
11, 23276, Note_on_c, 6, 38, 0
11, 23280, Note_on_c, 6, 47, 64
11, 23516, Note_on_c, 6, 47, 0
11, 23520, Note_on_c, 6, 43, 64
11, 23756, Note_on_c, 6, 43, 0
11, 23760, Note_on_c, 6, 45, 64
11, 23996, Note_on_c, 6, 45, 0
11, 24000, Note_on_c, 6, 47, 64
11, 24236, Note_on_c, 6, 47, 0
11, 24240, Note_on_c, 6, 45, 64
11, 24356, Note_on_c, 6, 45, 0
11, 24360, Note_on_c, 6, 43, 64
11, 24476, Note_on_c, 6, 43, 0
11, 24480, Note_on_c, 6, 42, 64
11, 24716, Note_on_c, 6, 42, 0
11, 24720, Note_on_c, 6, 40, 64
11, 24836, Note_on_c, 6, 40, 0
11, 24840, Note_on_c, 6, 38, 64
11, 24956, Note_on_c, 6, 38, 0
11, 24960, Note_on_c, 6, 43, 64
11, 25196, Note_on_c, 6, 43, 0
11, 25200, Note_on_c, 6, 42, 64
11, 25316, Note_on_c, 6, 42, 0
11, 25320, Note_on_c, 6, 40, 64
11, 25436, Note_on_c, 6, 40, 0
11, 25440, Note_on_c, 6, 38, 64
11, 25676, Note_on_c, 6, 38, 0
11, 25680, Note_on_c, 6, 62, 64
11, 25796, Note_on_c, 6, 62, 0
11, 25800, Note_on_c, 6, 61, 64
11, 25916, Note_on_c, 6, 61, 0
11, 25920, Note_on_c, 6, 59, 64
11, 26156, Note_on_c, 6, 59, 0
11, 26160, Note_on_c, 6, 57, 64
11, 26276, Note_on_c, 6, 57, 0
11, 26280, Note_on_c, 6, 55, 64
11, 26396, Note_on_c, 6, 55, 0
11, 26400, Note_on_c, 6, 54, 64
11, 26636, Note_on_c, 6, 54, 0
11, 26640, Note_on_c, 6, 56, 64
11, 26876, Note_on_c, 6, 56, 0
11, 26880, Note_on_c, 6, 57, 64
11, 27116, Note_on_c, 6, 57, 0
11, 27120, Note_on_c, 6, 45, 64
11, 27356, Note_on_c, 6, 45, 0
11, 27360, Note_on_c, 6, 45, 64
11, 27596, Note_on_c, 6, 45, 0
11, 27600, Note_on_c, 6, 57, 64
11, 27716, Note_on_c, 6, 57, 0
11, 27720, Note_on_c, 6, 59, 64
11, 27836, Note_on_c, 6, 59, 0
11, 27840, Note_on_c, 6, 61, 64
11, 28076, Note_on_c, 6, 61, 0
11, 28080, Note_on_c, 6, 62, 64
11, 28316, Note_on_c, 6, 62, 0
11, 28320, Note_on_c, 6, 64, 64
11, 28556, Note_on_c, 6, 64, 0
11, 28560, Note_on_c, 6, 61, 64
11, 28796, Note_on_c, 6, 61, 0
11, 28800, Note_on_c, 6, 62, 64
11, 29036, Note_on_c, 6, 62, 0
11, 29040, Note_on_c, 6, 55, 64
11, 29276, Note_on_c, 6, 55, 0
11, 29280, Note_on_c, 6, 57, 64
11, 29516, Note_on_c, 6, 57, 0
11, 29520, Note_on_c, 6, 45, 64
11, 29756, Note_on_c, 6, 45, 0
11, 29760, Note_on_c, 6, 50, 64
11, 29996, Note_on_c, 6, 50, 0
11, 30000, Note_on_c, 6, 50, 64
11, 30116, Note_on_c, 6, 50, 0
11, 30120, Note_on_c, 6, 61, 64
11, 30236, Note_on_c, 6, 61, 0
11, 30240, Note_on_c, 6, 59, 64
11, 30356, Note_on_c, 6, 59, 0
11, 30360, Note_on_c, 6, 61, 64
11, 30476, Note_on_c, 6, 61, 0
11, 30480, Note_on_c, 6, 59, 64
11, 30596, Note_on_c, 6, 59, 0
11, 30600, Note_on_c, 6, 57, 64
11, 30716, Note_on_c, 6, 57, 0
11, 30720, Note_on_c, 6, 55, 64
11, 31196, Note_on_c, 6, 55, 0
11, 32880, Note_on_c, 6, 43, 64
11, 32996, Note_on_c, 6, 43, 0
11, 33000, Note_on_c, 6, 45, 64
11, 33116, Note_on_c, 6, 45, 0
11, 33120, Note_on_c, 6, 47, 64
11, 33356, Note_on_c, 6, 47, 0
11, 33360, Note_on_c, 6, 49, 64
11, 33596, Note_on_c, 6, 49, 0
11, 33600, Note_on_c, 6, 50, 64
11, 34076, Note_on_c, 6, 50, 0
11, 34320, Note_on_c, 6, 57, 64
11, 34556, Note_on_c, 6, 57, 0
11, 34560, Note_on_c, 6, 50, 64
11, 35036, Note_on_c, 6, 50, 0
11, 35280, Note_on_c, 6, 57, 64
11, 35516, Note_on_c, 6, 57, 0
11, 35520, Note_on_c, 6, 50, 64
11, 35996, Note_on_c, 6, 50, 0
11, 36240, Note_on_c, 6, 45, 64
11, 36476, Note_on_c, 6, 45, 0
11, 36480, Note_on_c, 6, 38, 64
11, 36716, Note_on_c, 6, 38, 0
11, 36720, Note_on_c, 6, 50, 64
11, 36956, Note_on_c, 6, 50, 0
11, 36960, Note_on_c, 6, 50, 64
11, 37196, Note_on_c, 6, 50, 0
11, 37200, Note_on_c, 6, 38, 64
11, 37436, Note_on_c, 6, 38, 0
11, 37440, Note_on_c, 6, 38, 64
11, 37676, Note_on_c, 6, 38, 0
11, 37680, Note_on_c, 6, 50, 64
11, 37916, Note_on_c, 6, 50, 0
11, 37920, Note_on_c, 6, 50, 64
11, 38156, Note_on_c, 6, 50, 0
11, 38160, Note_on_c, 6, 38, 64
11, 38396, Note_on_c, 6, 38, 0
11, 38400, Note_on_c, 6, 38, 64
11, 38636, Note_on_c, 6, 38, 0
11, 38640, Note_on_c, 6, 50, 64
11, 38756, Note_on_c, 6, 50, 0
11, 38760, Note_on_c, 6, 49, 64
11, 38876, Note_on_c, 6, 49, 0
11, 38880, Note_on_c, 6, 47, 64
11, 39116, Note_on_c, 6, 47, 0
11, 39120, Note_on_c, 6, 52, 64
11, 39356, Note_on_c, 6, 52, 0
11, 39360, Note_on_c, 6, 45, 64
11, 39836, Note_on_c, 6, 45, 0
11, 40080, Note_on_c, 6, 45, 64
11, 40316, Note_on_c, 6, 45, 0
11, 40320, Note_on_c, 6, 52, 64
11, 40796, Note_on_c, 6, 52, 0
11, 41040, Note_on_c, 6, 52, 64
11, 41276, Note_on_c, 6, 52, 0
11, 41280, Note_on_c, 6, 47, 64
11, 41756, Note_on_c, 6, 47, 0
11, 42000, Note_on_c, 6, 47, 64
11, 42236, Note_on_c, 6, 47, 0
11, 42240, Note_on_c, 6, 54, 64
11, 42476, Note_on_c, 6, 54, 0
11, 42480, Note_on_c, 6, 59, 64
11, 42596, Note_on_c, 6, 59, 0
11, 42600, Note_on_c, 6, 57, 64
11, 42716, Note_on_c, 6, 57, 0
11, 42720, Note_on_c, 6, 59, 64
11, 42956, Note_on_c, 6, 59, 0
11, 42960, Note_on_c, 6, 52, 64
11, 43076, Note_on_c, 6, 52, 0
11, 43080, Note_on_c, 6, 50, 64
11, 43196, Note_on_c, 6, 50, 0
11, 43200, Note_on_c, 6, 52, 64
11, 43436, Note_on_c, 6, 52, 0
11, 43440, Note_on_c, 6, 57, 64
11, 43556, Note_on_c, 6, 57, 0
11, 43560, Note_on_c, 6, 55, 64
11, 43676, Note_on_c, 6, 55, 0
11, 43680, Note_on_c, 6, 57, 64
11, 43916, Note_on_c, 6, 57, 0
11, 43920, Note_on_c, 6, 50, 64
11, 44036, Note_on_c, 6, 50, 0
11, 44040, Note_on_c, 6, 49, 64
11, 44156, Note_on_c, 6, 49, 0
11, 44160, Note_on_c, 6, 50, 64
11, 44396, Note_on_c, 6, 50, 0
11, 44400, Note_on_c, 6, 55, 64
11, 44636, Note_on_c, 6, 55, 0
11, 44640, Note_on_c, 6, 57, 64
11, 44876, Note_on_c, 6, 57, 0
11, 44880, Note_on_c, 6, 45, 64
11, 45116, Note_on_c, 6, 45, 0
11, 45120, Note_on_c, 6, 50, 64
11, 45356, Note_on_c, 6, 50, 0
11, 45360, Note_on_c, 6, 62, 64
11, 45476, Note_on_c, 6, 62, 0
11, 45480, Note_on_c, 6, 61, 64
11, 45596, Note_on_c, 6, 61, 0
11, 45600, Note_on_c, 6, 62, 64
11, 45836, Note_on_c, 6, 62, 0
11, 46320, Note_on_c, 6, 62, 64
11, 46436, Note_on_c, 6, 62, 0
11, 46440, Note_on_c, 6, 61, 64
11, 46556, Note_on_c, 6, 61, 0
11, 46560, Note_on_c, 6, 62, 64
11, 46796, Note_on_c, 6, 62, 0
11, 47280, Note_on_c, 6, 50, 64
11, 47396, Note_on_c, 6, 50, 0
11, 47400, Note_on_c, 6, 49, 64
11, 47516, Note_on_c, 6, 49, 0
11, 47520, Note_on_c, 6, 50, 64
11, 47756, Note_on_c, 6, 50, 0
11, 48240, Note_on_c, 6, 50, 64
11, 48356, Note_on_c, 6, 50, 0
11, 48360, Note_on_c, 6, 49, 64
11, 48476, Note_on_c, 6, 49, 0
11, 48480, Note_on_c, 6, 50, 64
11, 48716, Note_on_c, 6, 50, 0
11, 49200, Note_on_c, 6, 50, 64
11, 49316, Note_on_c, 6, 50, 0
11, 49320, Note_on_c, 6, 49, 64
11, 49436, Note_on_c, 6, 49, 0
11, 49440, Note_on_c, 6, 50, 64
11, 49676, Note_on_c, 6, 50, 0
11, 49680, Note_on_c, 6, 50, 64
11, 49916, Note_on_c, 6, 50, 0
11, 49920, Note_on_c, 6, 43, 64
11, 50156, Note_on_c, 6, 43, 0
11, 50160, Note_on_c, 6, 55, 64
11, 50276, Note_on_c, 6, 55, 0
11, 50280, Note_on_c, 6, 54, 64
11, 50396, Note_on_c, 6, 54, 0
11, 50400, Note_on_c, 6, 55, 64
11, 50636, Note_on_c, 6, 55, 0
11, 51120, Note_on_c, 6, 55, 64
11, 51236, Note_on_c, 6, 55, 0
11, 51240, Note_on_c, 6, 54, 64
11, 51356, Note_on_c, 6, 54, 0
11, 51360, Note_on_c, 6, 55, 64
11, 51596, Note_on_c, 6, 55, 0
11, 52080, Note_on_c, 6, 43, 64
11, 52196, Note_on_c, 6, 43, 0
11, 52200, Note_on_c, 6, 42, 64
11, 52316, Note_on_c, 6, 42, 0
11, 52320, Note_on_c, 6, 43, 64
11, 52556, Note_on_c, 6, 43, 0
11, 53040, Note_on_c, 6, 43, 64
11, 53156, Note_on_c, 6, 43, 0
11, 53160, Note_on_c, 6, 42, 64
11, 53276, Note_on_c, 6, 42, 0
11, 53280, Note_on_c, 6, 43, 64
11, 53516, Note_on_c, 6, 43, 0
11, 54000, Note_on_c, 6, 55, 64
11, 54116, Note_on_c, 6, 55, 0
11, 54120, Note_on_c, 6, 53, 64
11, 54236, Note_on_c, 6, 53, 0
11, 54240, Note_on_c, 6, 55, 64
11, 54476, Note_on_c, 6, 55, 0
11, 54480, Note_on_c, 6, 43, 64
11, 54716, Note_on_c, 6, 43, 0
11, 54720, Note_on_c, 6, 48, 64
11, 55196, Note_on_c, 6, 48, 0
11, 55320, Note_on_c, 6, 47, 64
11, 55436, Note_on_c, 6, 47, 0
11, 55440, Note_on_c, 6, 48, 64
11, 55556, Note_on_c, 6, 48, 0
11, 55560, Note_on_c, 6, 50, 64
11, 55676, Note_on_c, 6, 50, 0
11, 55680, Note_on_c, 6, 52, 64
11, 55916, Note_on_c, 6, 52, 0
11, 55920, Note_on_c, 6, 57, 64
11, 56036, Note_on_c, 6, 57, 0
11, 56040, Note_on_c, 6, 55, 64
11, 56156, Note_on_c, 6, 55, 0
11, 56160, Note_on_c, 6, 57, 64
11, 56396, Note_on_c, 6, 57, 0
11, 56400, Note_on_c, 6, 50, 64
11, 56516, Note_on_c, 6, 50, 0
11, 56520, Note_on_c, 6, 48, 64
11, 56636, Note_on_c, 6, 48, 0
11, 56640, Note_on_c, 6, 50, 64
11, 56876, Note_on_c, 6, 50, 0
11, 56880, Note_on_c, 6, 55, 64
11, 56996, Note_on_c, 6, 55, 0
11, 57000, Note_on_c, 6, 53, 64
11, 57116, Note_on_c, 6, 53, 0
11, 57120, Note_on_c, 6, 55, 64
11, 57356, Note_on_c, 6, 55, 0
11, 57360, Note_on_c, 6, 48, 64
11, 57476, Note_on_c, 6, 48, 0
11, 57480, Note_on_c, 6, 47, 64
11, 57596, Note_on_c, 6, 47, 0
11, 57600, Note_on_c, 6, 48, 64
11, 57836, Note_on_c, 6, 48, 0
11, 57840, Note_on_c, 6, 53, 64
11, 57956, Note_on_c, 6, 53, 0
11, 57960, Note_on_c, 6, 52, 64
11, 58076, Note_on_c, 6, 52, 0
11, 58080, Note_on_c, 6, 53, 64
11, 58676, Note_on_c, 6, 53, 0
11, 58680, Note_on_c, 6, 55, 64
11, 58796, Note_on_c, 6, 55, 0
11, 58800, Note_on_c, 6, 53, 64
11, 58916, Note_on_c, 6, 53, 0
11, 58920, Note_on_c, 6, 52, 64
11, 59036, Note_on_c, 6, 52, 0
11, 59040, Note_on_c, 6, 50, 64
11, 59156, Note_on_c, 6, 50, 0
11, 59160, Note_on_c, 6, 48, 64
11, 59276, Note_on_c, 6, 48, 0
11, 59280, Note_on_c, 6, 47, 64
11, 59396, Note_on_c, 6, 47, 0
11, 59400, Note_on_c, 6, 45, 64
11, 59516, Note_on_c, 6, 45, 0
11, 59520, Note_on_c, 6, 43, 64
11, 59756, Note_on_c, 6, 43, 0
11, 59760, Note_on_c, 6, 48, 64
11, 59996, Note_on_c, 6, 48, 0
11, 60000, Note_on_c, 6, 55, 64
11, 60236, Note_on_c, 6, 55, 0
11, 60240, Note_on_c, 6, 43, 64
11, 60476, Note_on_c, 6, 43, 0
11, 60480, Note_on_c, 6, 48, 64
11, 60956, Note_on_c, 6, 48, 0
11, 61200, Note_on_c, 6, 60, 64
11, 61316, Note_on_c, 6, 60, 0
11, 61320, Note_on_c, 6, 59, 64
11, 61436, Note_on_c, 6, 59, 0
11, 61440, Note_on_c, 6, 60, 64
11, 61676, Note_on_c, 6, 60, 0
11, 61680, Note_on_c, 6, 55, 64
11, 61796, Note_on_c, 6, 55, 0
11, 61800, Note_on_c, 6, 53, 64
11, 61916, Note_on_c, 6, 53, 0
11, 61920, Note_on_c, 6, 55, 64
11, 62156, Note_on_c, 6, 55, 0
11, 62160, Note_on_c, 6, 60, 64
11, 62276, Note_on_c, 6, 60, 0
11, 62280, Note_on_c, 6, 59, 64
11, 62396, Note_on_c, 6, 59, 0
11, 62400, Note_on_c, 6, 60, 64
11, 62636, Note_on_c, 6, 60, 0
11, 62640, Note_on_c, 6, 52, 64
11, 62756, Note_on_c, 6, 52, 0
11, 62760, Note_on_c, 6, 50, 64
11, 62876, Note_on_c, 6, 50, 0
11, 62880, Note_on_c, 6, 52, 64
11, 63116, Note_on_c, 6, 52, 0
11, 63120, Note_on_c, 6, 60, 64
11, 63236, Note_on_c, 6, 60, 0
11, 63240, Note_on_c, 6, 59, 64
11, 63356, Note_on_c, 6, 59, 0
11, 63360, Note_on_c, 6, 60, 64
11, 63596, Note_on_c, 6, 60, 0
11, 63600, Note_on_c, 6, 48, 64
11, 63716, Note_on_c, 6, 48, 0
11, 63720, Note_on_c, 6, 50, 64
11, 63836, Note_on_c, 6, 50, 0
11, 63840, Note_on_c, 6, 52, 64
11, 64076, Note_on_c, 6, 52, 0
11, 64080, Note_on_c, 6, 54, 64
11, 64316, Note_on_c, 6, 54, 0
11, 64320, Note_on_c, 6, 55, 64
11, 64556, Note_on_c, 6, 55, 0
11, 64560, Note_on_c, 6, 43, 64
11, 64796, Note_on_c, 6, 43, 0
11, 65040, Note_on_c, 6, 55, 64
11, 65156, Note_on_c, 6, 55, 0
11, 65160, Note_on_c, 6, 54, 64
11, 65276, Note_on_c, 6, 54, 0
11, 65280, Note_on_c, 6, 55, 64
11, 65516, Note_on_c, 6, 55, 0
11, 65520, Note_on_c, 6, 50, 64
11, 65636, Note_on_c, 6, 50, 0
11, 65640, Note_on_c, 6, 48, 64
11, 65756, Note_on_c, 6, 48, 0
11, 65760, Note_on_c, 6, 50, 64
11, 65996, Note_on_c, 6, 50, 0
11, 66000, Note_on_c, 6, 55, 64
11, 66116, Note_on_c, 6, 55, 0
11, 66120, Note_on_c, 6, 54, 64
11, 66236, Note_on_c, 6, 54, 0
11, 66240, Note_on_c, 6, 55, 64
11, 66476, Note_on_c, 6, 55, 0
11, 66480, Note_on_c, 6, 47, 64
11, 66596, Note_on_c, 6, 47, 0
11, 66600, Note_on_c, 6, 45, 64
11, 66716, Note_on_c, 6, 45, 0
11, 66720, Note_on_c, 6, 47, 64
11, 66956, Note_on_c, 6, 47, 0
11, 66960, Note_on_c, 6, 55, 64
11, 67076, Note_on_c, 6, 55, 0
11, 67080, Note_on_c, 6, 54, 64
11, 67196, Note_on_c, 6, 54, 0
11, 67200, Note_on_c, 6, 55, 64
11, 67436, Note_on_c, 6, 55, 0
11, 67440, Note_on_c, 6, 43, 64
11, 67556, Note_on_c, 6, 43, 0
11, 67560, Note_on_c, 6, 45, 64
11, 67676, Note_on_c, 6, 45, 0
11, 67680, Note_on_c, 6, 47, 64
11, 67916, Note_on_c, 6, 47, 0
11, 67920, Note_on_c, 6, 49, 64
11, 68156, Note_on_c, 6, 49, 0
11, 68160, Note_on_c, 6, 50, 64
11, 68396, Note_on_c, 6, 50, 0
11, 68400, Note_on_c, 6, 50, 64
11, 68636, Note_on_c, 6, 50, 0
11, 68640, Note_on_c, 6, 50, 64
11, 68876, Note_on_c, 6, 50, 0
11, 68880, Note_on_c, 6, 50, 64
11, 69116, Note_on_c, 6, 50, 0
11, 69120, Note_on_c, 6, 50, 64
11, 69356, Note_on_c, 6, 50, 0
11, 69360, Note_on_c, 6, 50, 64
11, 69596, Note_on_c, 6, 50, 0
11, 69600, Note_on_c, 6, 50, 64
11, 69836, Note_on_c, 6, 50, 0
11, 69840, Note_on_c, 6, 50, 64
11, 70076, Note_on_c, 6, 50, 0
11, 70080, Note_on_c, 6, 50, 64
11, 70316, Note_on_c, 6, 50, 0
11, 70320, Note_on_c, 6, 50, 64
11, 70556, Note_on_c, 6, 50, 0
11, 70560, Note_on_c, 6, 50, 64
11, 70796, Note_on_c, 6, 50, 0
11, 70800, Note_on_c, 6, 50, 64
11, 71036, Note_on_c, 6, 50, 0
11, 71040, Note_on_c, 6, 59, 64
11, 71276, Note_on_c, 6, 59, 0
11, 71280, Note_on_c, 6, 57, 64
11, 71396, Note_on_c, 6, 57, 0
11, 71400, Note_on_c, 6, 55, 64
11, 71516, Note_on_c, 6, 55, 0
11, 71520, Note_on_c, 6, 57, 64
11, 71756, Note_on_c, 6, 57, 0
11, 71760, Note_on_c, 6, 55, 64
11, 71876, Note_on_c, 6, 55, 0
11, 71880, Note_on_c, 6, 54, 64
11, 71996, Note_on_c, 6, 54, 0
11, 72000, Note_on_c, 6, 55, 64
11, 72000, Note_on_c, 6, 55, 64
11, 72236, Note_on_c, 6, 55, 0
11, 72236, Note_on_c, 6, 55, 0
11, 72240, Note_on_c, 6, 55, 64
11, 72476, Note_on_c, 6, 55, 0
11, 72480, Note_on_c, 6, 55, 64
11, 72716, Note_on_c, 6, 55, 0
11, 72720, Note_on_c, 6, 55, 64
11, 72956, Note_on_c, 6, 55, 0
11, 72960, Note_on_c, 6, 55, 64
11, 73196, Note_on_c, 6, 55, 0
11, 73200, Note_on_c, 6, 55, 64
11, 73436, Note_on_c, 6, 55, 0
11, 73440, Note_on_c, 6, 55, 64
11, 73676, Note_on_c, 6, 55, 0
11, 73680, Note_on_c, 6, 55, 64
11, 73916, Note_on_c, 6, 55, 0
11, 73920, Note_on_c, 6, 55, 64
11, 74156, Note_on_c, 6, 55, 0
11, 74160, Note_on_c, 6, 55, 64
11, 74396, Note_on_c, 6, 55, 0
11, 74400, Note_on_c, 6, 55, 64
11, 74636, Note_on_c, 6, 55, 0
11, 74640, Note_on_c, 6, 55, 64
11, 74876, Note_on_c, 6, 55, 0
11, 74880, Note_on_c, 6, 55, 64
11, 75116, Note_on_c, 6, 55, 0
11, 75120, Note_on_c, 6, 43, 64
11, 75356, Note_on_c, 6, 43, 0
11, 75360, Note_on_c, 6, 43, 64
11, 75596, Note_on_c, 6, 43, 0
11, 75600, Note_on_c, 6, 55, 64
11, 75836, Note_on_c, 6, 55, 0
11, 75840, Note_on_c, 6, 55, 64
11, 76076, Note_on_c, 6, 55, 0
11, 76080, Note_on_c, 6, 43, 64
11, 76316, Note_on_c, 6, 43, 0
11, 76320, Note_on_c, 6, 43, 64
11, 76556, Note_on_c, 6, 43, 0
11, 76560, Note_on_c, 6, 55, 64
11, 76676, Note_on_c, 6, 55, 0
11, 76680, Note_on_c, 6, 54, 64
11, 76796, Note_on_c, 6, 54, 0
11, 76800, Note_on_c, 6, 55, 64
11, 77036, Note_on_c, 6, 55, 0
11, 77040, Note_on_c, 6, 43, 64
11, 77156, Note_on_c, 6, 43, 0
11, 77160, Note_on_c, 6, 45, 64
11, 77276, Note_on_c, 6, 45, 0
11, 77280, Note_on_c, 6, 47, 64
11, 77516, Note_on_c, 6, 47, 0
11, 77520, Note_on_c, 6, 49, 64
11, 77756, Note_on_c, 6, 49, 0
11, 77760, Note_on_c, 6, 50, 64
11, 77996, Note_on_c, 6, 50, 0
11, 78000, Note_on_c, 6, 38, 64
11, 78236, Note_on_c, 6, 38, 0
11, 78240, Note_on_c, 6, 38, 64
11, 78476, Note_on_c, 6, 38, 0
11, 78480, Note_on_c, 6, 50, 64
11, 78596, Note_on_c, 6, 50, 0
11, 78600, Note_on_c, 6, 61, 64
11, 78716, Note_on_c, 6, 61, 0
11, 78720, Note_on_c, 6, 62, 64
11, 78956, Note_on_c, 6, 62, 0
11, 78960, Note_on_c, 6, 50, 64
11, 79196, Note_on_c, 6, 50, 0
11, 79200, Note_on_c, 6, 38, 64
11, 79436, Note_on_c, 6, 38, 0
11, 79440, Note_on_c, 6, 50, 64
11, 79556, Note_on_c, 6, 50, 0
11, 79560, Note_on_c, 6, 49, 64
11, 79676, Note_on_c, 6, 49, 0
11, 79680, Note_on_c, 6, 50, 64
11, 79916, Note_on_c, 6, 50, 0
11, 79920, Note_on_c, 6, 38, 64
11, 80156, Note_on_c, 6, 38, 0
11, 80160, Note_on_c, 6, 38, 64
11, 80396, Note_on_c, 6, 38, 0
11, 80400, Note_on_c, 6, 54, 64
11, 80636, Note_on_c, 6, 54, 0
11, 80640, Note_on_c, 6, 55, 64
11, 80876, Note_on_c, 6, 55, 0
11, 80880, Note_on_c, 6, 52, 64
11, 81116, Note_on_c, 6, 52, 0
11, 81120, Note_on_c, 6, 48, 64
11, 81356, Note_on_c, 6, 48, 0
11, 81360, Note_on_c, 6, 50, 64
11, 81596, Note_on_c, 6, 50, 0
11, 81600, Note_on_c, 6, 52, 64
11, 81836, Note_on_c, 6, 52, 0
11, 81840, Note_on_c, 6, 50, 64
11, 81956, Note_on_c, 6, 50, 0
11, 81960, Note_on_c, 6, 48, 64
11, 82076, Note_on_c, 6, 48, 0
11, 82080, Note_on_c, 6, 47, 64
11, 82316, Note_on_c, 6, 47, 0
11, 82320, Note_on_c, 6, 45, 64
11, 82436, Note_on_c, 6, 45, 0
11, 82440, Note_on_c, 6, 43, 64
11, 82556, Note_on_c, 6, 43, 0
11, 82560, Note_on_c, 6, 48, 64
11, 82796, Note_on_c, 6, 48, 0
11, 82800, Note_on_c, 6, 47, 64
11, 82916, Note_on_c, 6, 47, 0
11, 82920, Note_on_c, 6, 45, 64
11, 83036, Note_on_c, 6, 45, 0
11, 83040, Note_on_c, 6, 43, 64
11, 83276, Note_on_c, 6, 43, 0
11, 83280, Note_on_c, 6, 55, 64
11, 83396, Note_on_c, 6, 55, 0
11, 83400, Note_on_c, 6, 54, 64
11, 83516, Note_on_c, 6, 54, 0
11, 83520, Note_on_c, 6, 52, 64
11, 83756, Note_on_c, 6, 52, 0
11, 83760, Note_on_c, 6, 50, 64
11, 83876, Note_on_c, 6, 50, 0
11, 83880, Note_on_c, 6, 48, 64
11, 83996, Note_on_c, 6, 48, 0
11, 84000, Note_on_c, 6, 47, 64
11, 84236, Note_on_c, 6, 47, 0
11, 84240, Note_on_c, 6, 49, 64
11, 84476, Note_on_c, 6, 49, 0
11, 84480, Note_on_c, 6, 50, 64
11, 84716, Note_on_c, 6, 50, 0
11, 84720, Note_on_c, 6, 38, 64
11, 84956, Note_on_c, 6, 38, 0
11, 84960, Note_on_c, 6, 38, 64
11, 85196, Note_on_c, 6, 38, 0
11, 85200, Note_on_c, 6, 50, 64
11, 85316, Note_on_c, 6, 50, 0
11, 85320, Note_on_c, 6, 52, 64
11, 85436, Note_on_c, 6, 52, 0
11, 85440, Note_on_c, 6, 54, 64
11, 85676, Note_on_c, 6, 54, 0
11, 85680, Note_on_c, 6, 55, 64
11, 85916, Note_on_c, 6, 55, 0
11, 85920, Note_on_c, 6, 57, 64
11, 86156, Note_on_c, 6, 57, 0
11, 86160, Note_on_c, 6, 50, 64
11, 86396, Note_on_c, 6, 50, 0
11, 86400, Note_on_c, 6, 55, 64
11, 86636, Note_on_c, 6, 55, 0
11, 86640, Note_on_c, 6, 48, 64
11, 86876, Note_on_c, 6, 48, 0
11, 86880, Note_on_c, 6, 50, 64
11, 87116, Note_on_c, 6, 50, 0
11, 87120, Note_on_c, 6, 38, 64
11, 87356, Note_on_c, 6, 38, 0
11, 87360, Note_on_c, 6, 40, 64
11, 87836, Note_on_c, 6, 40, 0
11, 88080, Note_on_c, 6, 41, 64
11, 88316, Note_on_c, 6, 41, 0
11, 88320, Note_on_c, 6, 43, 64
11, 88556, Note_on_c, 6, 43, 0
11, 88560, Note_on_c, 6, 36, 64
11, 88796, Note_on_c, 6, 36, 0
11, 88800, Note_on_c, 6, 38, 64
11, 89036, Note_on_c, 6, 38, 0
11, 89040, Note_on_c, 6, 50, 64
11, 89276, Note_on_c, 6, 50, 0
11, 89280, Note_on_c, 6, 55, 64
11, 89516, Note_on_c, 6, 55, 0
11, 89520, Note_on_c, 6, 54, 64
11, 89636, Note_on_c, 6, 54, 0
11, 89640, Note_on_c, 6, 52, 64
11, 89756, Note_on_c, 6, 52, 0
11, 89760, Note_on_c, 6, 50, 64
11, 89876, Note_on_c, 6, 50, 0
11, 89880, Note_on_c, 6, 48, 64
11, 89996, Note_on_c, 6, 48, 0
11, 90000, Note_on_c, 6, 47, 64
11, 90116, Note_on_c, 6, 47, 0
11, 90120, Note_on_c, 6, 45, 64
11, 90236, Note_on_c, 6, 45, 0
11, 90240, Note_on_c, 6, 43, 64
11, 90716, Note_on_c, 6, 43, 0
11, 91200, Note_on_c, 6, 43, 64
11, 91676, Note_on_c, 6, 43, 0
11, 92160, Note_on_c, 6, 43, 64
11, 92636, Note_on_c, 6, 43, 0
11, 93120, Note_on_c, 6, 43, 64
11, 93596, Note_on_c, 6, 43, 0
11, 94080, Note_on_c, 6, 43, 64
11, 94556, Note_on_c, 6, 43, 0
11, 95040, Note_on_c, 6, 43, 64
11, 95516, Note_on_c, 6, 43, 0
11, 96000, Note_on_c, 6, 55, 64
11, 96236, Note_on_c, 6, 55, 0
11, 96240, Note_on_c, 6, 54, 64
11, 96476, Note_on_c, 6, 54, 0
11, 96480, Note_on_c, 6, 52, 64
11, 96716, Note_on_c, 6, 52, 0
11, 96720, Note_on_c, 6, 57, 64
11, 96956, Note_on_c, 6, 57, 0
11, 96960, Note_on_c, 6, 50, 64
11, 97196, Note_on_c, 6, 50, 0
11, 97200, Note_on_c, 6, 49, 64
11, 97316, Note_on_c, 6, 49, 0
11, 97320, Note_on_c, 6, 47, 64
11, 97436, Note_on_c, 6, 47, 0
11, 97440, Note_on_c, 6, 45, 64
11, 97556, Note_on_c, 6, 45, 0
11, 97560, Note_on_c, 6, 43, 64
11, 97676, Note_on_c, 6, 43, 0
11, 97680, Note_on_c, 6, 42, 64
11, 97796, Note_on_c, 6, 42, 0
11, 97800, Note_on_c, 6, 40, 64
11, 97916, Note_on_c, 6, 40, 0
11, 97920, Note_on_c, 6, 39, 64
11, 98396, Note_on_c, 6, 39, 0
11, 98880, Note_on_c, 6, 42, 64
11, 99356, Note_on_c, 6, 42, 0
11, 99840, Note_on_c, 6, 45, 64
11, 100316, Note_on_c, 6, 45, 0
11, 100800, Note_on_c, 6, 57, 64
11, 101276, Note_on_c, 6, 57, 0
11, 101760, Note_on_c, 6, 51, 64
11, 102236, Note_on_c, 6, 51, 0
11, 102720, Note_on_c, 6, 47, 64
11, 103196, Note_on_c, 6, 47, 0
11, 103680, Note_on_c, 6, 52, 64
11, 104156, Note_on_c, 6, 52, 0
11, 105360, Note_on_c, 6, 55, 64
11, 105476, Note_on_c, 6, 55, 0
11, 105480, Note_on_c, 6, 54, 64
11, 105596, Note_on_c, 6, 54, 0
11, 105600, Note_on_c, 6, 52, 64
11, 105836, Note_on_c, 6, 52, 0
11, 105840, Note_on_c, 6, 40, 64
11, 105956, Note_on_c, 6, 40, 0
11, 105960, Note_on_c, 6, 42, 64
11, 106076, Note_on_c, 6, 42, 0
11, 106080, Note_on_c, 6, 43, 64
11, 106316, Note_on_c, 6, 43, 0
11, 106320, Note_on_c, 6, 45, 64
11, 106556, Note_on_c, 6, 45, 0
11, 106560, Note_on_c, 6, 47, 64
11, 106676, Note_on_c, 6, 47, 0
11, 106680, Note_on_c, 6, 46, 64
11, 106796, Note_on_c, 6, 46, 0
11, 106800, Note_on_c, 6, 47, 64
11, 106916, Note_on_c, 6, 47, 0
11, 106920, Note_on_c, 6, 49, 64
11, 107036, Note_on_c, 6, 49, 0
11, 107040, Note_on_c, 6, 47, 64
11, 107156, Note_on_c, 6, 47, 0
11, 107160, Note_on_c, 6, 51, 64
11, 107276, Note_on_c, 6, 51, 0
11, 107280, Note_on_c, 6, 47, 64
11, 107396, Note_on_c, 6, 47, 0
11, 107400, Note_on_c, 6, 52, 64
11, 107516, Note_on_c, 6, 52, 0
11, 107520, Note_on_c, 6, 47, 64
11, 107636, Note_on_c, 6, 47, 0
11, 107640, Note_on_c, 6, 46, 64
11, 107756, Note_on_c, 6, 46, 0
11, 107760, Note_on_c, 6, 47, 64
11, 107876, Note_on_c, 6, 47, 0
11, 107880, Note_on_c, 6, 49, 64
11, 107996, Note_on_c, 6, 49, 0
11, 108000, Note_on_c, 6, 47, 64
11, 108116, Note_on_c, 6, 47, 0
11, 108120, Note_on_c, 6, 54, 64
11, 108236, Note_on_c, 6, 54, 0
11, 108240, Note_on_c, 6, 47, 64
11, 108356, Note_on_c, 6, 47, 0
11, 108360, Note_on_c, 6, 55, 64
11, 108476, Note_on_c, 6, 55, 0
11, 108480, Note_on_c, 6, 47, 64
11, 108596, Note_on_c, 6, 47, 0
11, 108600, Note_on_c, 6, 46, 64
11, 108716, Note_on_c, 6, 46, 0
11, 108720, Note_on_c, 6, 47, 64
11, 108836, Note_on_c, 6, 47, 0
11, 108840, Note_on_c, 6, 49, 64
11, 108956, Note_on_c, 6, 49, 0
11, 108960, Note_on_c, 6, 47, 64
11, 109076, Note_on_c, 6, 47, 0
11, 109080, Note_on_c, 6, 57, 64
11, 109196, Note_on_c, 6, 57, 0
11, 109200, Note_on_c, 6, 47, 64
11, 109316, Note_on_c, 6, 47, 0
11, 109320, Note_on_c, 6, 59, 64
11, 109436, Note_on_c, 6, 59, 0
11, 109440, Note_on_c, 6, 55, 64
11, 109676, Note_on_c, 6, 55, 0
11, 109680, Note_on_c, 6, 54, 64
11, 109796, Note_on_c, 6, 54, 0
11, 109800, Note_on_c, 6, 52, 64
11, 109916, Note_on_c, 6, 52, 0
11, 109920, Note_on_c, 6, 54, 64
11, 110156, Note_on_c, 6, 54, 0
11, 110160, Note_on_c, 6, 52, 64
11, 110276, Note_on_c, 6, 52, 0
11, 110280, Note_on_c, 6, 51, 64
11, 110396, Note_on_c, 6, 51, 0
11, 110400, Note_on_c, 6, 60, 64
11, 110756, Note_on_c, 6, 60, 0
11, 110760, Note_on_c, 6, 59, 64
11, 110876, Note_on_c, 6, 59, 0
11, 110880, Note_on_c, 6, 57, 64
11, 110996, Note_on_c, 6, 57, 0
11, 111000, Note_on_c, 6, 55, 64
11, 111116, Note_on_c, 6, 55, 0
11, 111120, Note_on_c, 6, 54, 64
11, 111236, Note_on_c, 6, 54, 0
11, 111240, Note_on_c, 6, 52, 64
11, 111356, Note_on_c, 6, 52, 0
11, 111360, Note_on_c, 6, 51, 64
11, 111596, Note_on_c, 6, 51, 0
11, 111600, Note_on_c, 6, 52, 64
11, 111836, Note_on_c, 6, 52, 0
11, 111840, Note_on_c, 6, 45, 64
11, 112076, Note_on_c, 6, 45, 0
11, 112080, Note_on_c, 6, 47, 64
11, 112316, Note_on_c, 6, 47, 0
11, 112320, Note_on_c, 6, 40, 64
11, 112796, Note_on_c, 6, 40, 0
11, 113040, Note_on_c, 6, 47, 64
11, 113276, Note_on_c, 6, 47, 0
11, 113280, Note_on_c, 6, 52, 64
11, 113756, Note_on_c, 6, 52, 0
11, 114000, Note_on_c, 6, 59, 64
11, 114236, Note_on_c, 6, 59, 0
11, 114240, Note_on_c, 6, 64, 64
11, 114716, Note_on_c, 6, 64, 0
11, 114960, Note_on_c, 6, 59, 64
11, 115196, Note_on_c, 6, 59, 0
11, 115200, Note_on_c, 6, 52, 64
11, 115316, Note_on_c, 6, 52, 0
11, 115320, Note_on_c, 6, 54, 64
11, 115436, Note_on_c, 6, 54, 0
11, 115440, Note_on_c, 6, 55, 64
11, 115556, Note_on_c, 6, 55, 0
11, 115560, Note_on_c, 6, 54, 64
11, 115676, Note_on_c, 6, 54, 0
11, 115680, Note_on_c, 6, 52, 64
11, 115796, Note_on_c, 6, 52, 0
11, 115800, Note_on_c, 6, 50, 64
11, 115916, Note_on_c, 6, 50, 0
11, 115920, Note_on_c, 6, 49, 64
11, 116036, Note_on_c, 6, 49, 0
11, 116040, Note_on_c, 6, 47, 64
11, 116156, Note_on_c, 6, 47, 0
11, 116160, Note_on_c, 6, 45, 64
11, 116636, Note_on_c, 6, 45, 0
11, 116880, Note_on_c, 6, 40, 64
11, 117116, Note_on_c, 6, 40, 0
11, 117120, Note_on_c, 6, 45, 64
11, 117596, Note_on_c, 6, 45, 0
11, 117840, Note_on_c, 6, 52, 64
11, 118076, Note_on_c, 6, 52, 0
11, 118080, Note_on_c, 6, 57, 64
11, 118556, Note_on_c, 6, 57, 0
11, 118800, Note_on_c, 6, 52, 64
11, 119036, Note_on_c, 6, 52, 0
11, 119040, Note_on_c, 6, 45, 64
11, 119156, Note_on_c, 6, 45, 0
11, 119160, Note_on_c, 6, 47, 64
11, 119276, Note_on_c, 6, 47, 0
11, 119280, Note_on_c, 6, 49, 64
11, 119396, Note_on_c, 6, 49, 0
11, 119400, Note_on_c, 6, 47, 64
11, 119516, Note_on_c, 6, 47, 0
11, 119520, Note_on_c, 6, 45, 64
11, 119636, Note_on_c, 6, 45, 0
11, 119640, Note_on_c, 6, 43, 64
11, 119756, Note_on_c, 6, 43, 0
11, 119760, Note_on_c, 6, 42, 64
11, 119876, Note_on_c, 6, 42, 0
11, 119880, Note_on_c, 6, 40, 64
11, 119996, Note_on_c, 6, 40, 0
11, 120000, Note_on_c, 6, 38, 64
11, 120476, Note_on_c, 6, 38, 0
11, 120720, Note_on_c, 6, 57, 64
11, 120956, Note_on_c, 6, 57, 0
11, 120960, Note_on_c, 6, 50, 64
11, 121436, Note_on_c, 6, 50, 0
11, 121680, Note_on_c, 6, 57, 64
11, 121916, Note_on_c, 6, 57, 0
11, 121920, Note_on_c, 6, 50, 64
11, 122396, Note_on_c, 6, 50, 0
11, 122640, Note_on_c, 6, 57, 64
11, 122876, Note_on_c, 6, 57, 0
11, 122880, Note_on_c, 6, 62, 64
11, 123356, Note_on_c, 6, 62, 0
11, 123600, Note_on_c, 6, 38, 64
11, 123836, Note_on_c, 6, 38, 0
11, 123840, Note_on_c, 6, 43, 64
11, 124316, Note_on_c, 6, 43, 0
11, 124560, Note_on_c, 6, 38, 64
11, 124796, Note_on_c, 6, 38, 0
11, 124800, Note_on_c, 6, 43, 64
11, 125276, Note_on_c, 6, 43, 0
11, 125520, Note_on_c, 6, 54, 64
11, 125756, Note_on_c, 6, 54, 0
11, 125760, Note_on_c, 6, 55, 64
11, 125876, Note_on_c, 6, 55, 0
11, 125880, Note_on_c, 6, 50, 64
11, 125996, Note_on_c, 6, 50, 0
11, 126000, Note_on_c, 6, 43, 64
11, 126116, Note_on_c, 6, 43, 0
11, 126120, Note_on_c, 6, 45, 64
11, 126236, Note_on_c, 6, 45, 0
11, 126240, Note_on_c, 6, 47, 64
11, 126356, Note_on_c, 6, 47, 0
11, 126360, Note_on_c, 6, 48, 64
11, 126476, Note_on_c, 6, 48, 0
11, 126480, Note_on_c, 6, 50, 64
11, 126596, Note_on_c, 6, 50, 0
11, 126600, Note_on_c, 6, 48, 64
11, 126716, Note_on_c, 6, 48, 0
11, 126720, Note_on_c, 6, 47, 64
11, 126836, Note_on_c, 6, 47, 0
11, 126840, Note_on_c, 6, 50, 64
11, 126956, Note_on_c, 6, 50, 0
11, 126960, Note_on_c, 6, 43, 64
11, 127076, Note_on_c, 6, 43, 0
11, 127080, Note_on_c, 6, 45, 64
11, 127196, Note_on_c, 6, 45, 0
11, 127200, Note_on_c, 6, 47, 64
11, 127316, Note_on_c, 6, 47, 0
11, 127320, Note_on_c, 6, 48, 64
11, 127436, Note_on_c, 6, 48, 0
11, 127440, Note_on_c, 6, 50, 64
11, 127556, Note_on_c, 6, 50, 0
11, 127560, Note_on_c, 6, 48, 64
11, 127676, Note_on_c, 6, 48, 0
11, 127680, Note_on_c, 6, 47, 64
11, 127796, Note_on_c, 6, 47, 0
11, 127800, Note_on_c, 6, 48, 64
11, 127916, Note_on_c, 6, 48, 0
11, 127920, Note_on_c, 6, 50, 64
11, 128036, Note_on_c, 6, 50, 0
11, 128040, Note_on_c, 6, 48, 64
11, 128156, Note_on_c, 6, 48, 0
11, 128160, Note_on_c, 6, 47, 64
11, 128276, Note_on_c, 6, 47, 0
11, 128280, Note_on_c, 6, 45, 64
11, 128396, Note_on_c, 6, 45, 0
11, 128400, Note_on_c, 6, 43, 64
11, 128516, Note_on_c, 6, 43, 0
11, 128520, Note_on_c, 6, 42, 64
11, 128636, Note_on_c, 6, 42, 0
11, 128640, Note_on_c, 6, 40, 64
11, 129116, Note_on_c, 6, 40, 0
11, 129600, Note_on_c, 6, 40, 64
11, 130076, Note_on_c, 6, 40, 0
11, 130560, Note_on_c, 6, 52, 64
11, 131036, Note_on_c, 6, 52, 0
11, 131520, Note_on_c, 6, 52, 64
11, 131996, Note_on_c, 6, 52, 0
11, 132480, Note_on_c, 6, 46, 64
11, 132956, Note_on_c, 6, 46, 0
11, 133440, Note_on_c, 6, 42, 64
11, 133916, Note_on_c, 6, 42, 0
11, 134400, Note_on_c, 6, 47, 64
11, 134636, Note_on_c, 6, 47, 0
11, 134640, Note_on_c, 6, 59, 64
11, 134876, Note_on_c, 6, 59, 0
11, 134880, Note_on_c, 6, 59, 64
11, 135116, Note_on_c, 6, 59, 0
11, 135120, Note_on_c, 6, 47, 64
11, 135356, Note_on_c, 6, 47, 0
11, 135360, Note_on_c, 6, 47, 64
11, 135596, Note_on_c, 6, 47, 0
11, 135600, Note_on_c, 6, 59, 64
11, 135836, Note_on_c, 6, 59, 0
11, 135840, Note_on_c, 6, 59, 64
11, 136076, Note_on_c, 6, 59, 0
11, 136080, Note_on_c, 6, 47, 64
11, 136316, Note_on_c, 6, 47, 0
11, 136320, Note_on_c, 6, 47, 64
11, 136556, Note_on_c, 6, 47, 0
11, 136560, Note_on_c, 6, 59, 64
11, 136676, Note_on_c, 6, 59, 0
11, 136680, Note_on_c, 6, 57, 64
11, 136796, Note_on_c, 6, 57, 0
11, 136800, Note_on_c, 6, 55, 64
11, 137036, Note_on_c, 6, 55, 0
11, 137040, Note_on_c, 6, 54, 64
11, 137156, Note_on_c, 6, 54, 0
11, 137160, Note_on_c, 6, 52, 64
11, 137276, Note_on_c, 6, 52, 0
11, 137280, Note_on_c, 6, 50, 64
11, 137516, Note_on_c, 6, 50, 0
11, 137520, Note_on_c, 6, 49, 64
11, 137636, Note_on_c, 6, 49, 0
11, 137640, Note_on_c, 6, 47, 64
11, 137756, Note_on_c, 6, 47, 0
11, 137760, Note_on_c, 6, 46, 64
11, 137996, Note_on_c, 6, 46, 0
11, 138000, Note_on_c, 6, 42, 64
11, 138236, Note_on_c, 6, 42, 0
11, 138240, Note_on_c, 6, 47, 64
11, 138476, Note_on_c, 6, 47, 0
11, 138480, Note_on_c, 6, 59, 64
11, 138596, Note_on_c, 6, 59, 0
11, 138600, Note_on_c, 6, 57, 64
11, 138716, Note_on_c, 6, 57, 0
11, 138720, Note_on_c, 6, 55, 64
11, 138956, Note_on_c, 6, 55, 0
11, 138960, Note_on_c, 6, 54, 64
11, 139076, Note_on_c, 6, 54, 0
11, 139080, Note_on_c, 6, 52, 64
11, 139196, Note_on_c, 6, 52, 0
11, 139200, Note_on_c, 6, 50, 64
11, 139316, Note_on_c, 6, 50, 0
11, 139320, Note_on_c, 6, 49, 64
11, 139436, Note_on_c, 6, 49, 0
11, 139440, Note_on_c, 6, 50, 64
11, 139556, Note_on_c, 6, 50, 0
11, 139560, Note_on_c, 6, 52, 64
11, 139676, Note_on_c, 6, 52, 0
11, 139680, Note_on_c, 6, 50, 64
11, 139796, Note_on_c, 6, 50, 0
11, 139800, Note_on_c, 6, 52, 64
11, 139916, Note_on_c, 6, 52, 0
11, 139920, Note_on_c, 6, 50, 64
11, 140036, Note_on_c, 6, 50, 0
11, 140040, Note_on_c, 6, 49, 64
11, 140156, Note_on_c, 6, 49, 0
11, 140160, Note_on_c, 6, 47, 64
11, 140396, Note_on_c, 6, 47, 0
11, 140400, Note_on_c, 6, 55, 64
11, 140636, Note_on_c, 6, 55, 0
11, 140640, Note_on_c, 6, 52, 64
11, 140876, Note_on_c, 6, 52, 0
11, 140880, Note_on_c, 6, 54, 64
11, 141116, Note_on_c, 6, 54, 0
11, 141120, Note_on_c, 6, 55, 64
11, 141476, Note_on_c, 6, 55, 0
11, 141480, Note_on_c, 6, 54, 64
11, 141596, Note_on_c, 6, 54, 0
11, 141600, Note_on_c, 6, 52, 64
11, 141716, Note_on_c, 6, 52, 0
11, 141720, Note_on_c, 6, 50, 64
11, 141836, Note_on_c, 6, 50, 0
11, 141840, Note_on_c, 6, 49, 64
11, 141956, Note_on_c, 6, 49, 0
11, 141960, Note_on_c, 6, 47, 64
11, 142076, Note_on_c, 6, 47, 0
11, 142080, Note_on_c, 6, 50, 64
11, 142316, Note_on_c, 6, 50, 0
11, 142320, Note_on_c, 6, 52, 64
11, 142556, Note_on_c, 6, 52, 0
11, 142560, Note_on_c, 6, 54, 64
11, 142796, Note_on_c, 6, 54, 0
11, 142800, Note_on_c, 6, 42, 64
11, 143036, Note_on_c, 6, 42, 0
11, 143040, Note_on_c, 6, 47, 64
11, 143276, Note_on_c, 6, 47, 0
11, 143280, Note_on_c, 6, 47, 64
11, 143516, Note_on_c, 6, 47, 0
11, 143520, Note_on_c, 6, 47, 64
11, 143756, Note_on_c, 6, 47, 0
11, 143760, Note_on_c, 6, 47, 64
11, 143996, Note_on_c, 6, 47, 0
11, 144000, Note_on_c, 6, 47, 64
11, 144236, Note_on_c, 6, 47, 0
11, 144240, Note_on_c, 6, 47, 64
11, 144476, Note_on_c, 6, 47, 0
11, 144480, Note_on_c, 6, 47, 64
11, 144716, Note_on_c, 6, 47, 0
11, 144720, Note_on_c, 6, 47, 64
11, 144956, Note_on_c, 6, 47, 0
11, 144960, Note_on_c, 6, 47, 64
11, 145196, Note_on_c, 6, 47, 0
11, 145200, Note_on_c, 6, 47, 64
11, 145436, Note_on_c, 6, 47, 0
11, 145440, Note_on_c, 6, 47, 64
11, 145676, Note_on_c, 6, 47, 0
11, 145680, Note_on_c, 6, 47, 64
11, 145796, Note_on_c, 6, 47, 0
11, 145800, Note_on_c, 6, 49, 64
11, 145916, Note_on_c, 6, 49, 0
11, 145920, Note_on_c, 6, 50, 64
11, 146156, Note_on_c, 6, 50, 0
11, 146160, Note_on_c, 6, 55, 64
11, 146276, Note_on_c, 6, 55, 0
11, 146280, Note_on_c, 6, 54, 64
11, 146396, Note_on_c, 6, 54, 0
11, 146400, Note_on_c, 6, 55, 64
11, 146636, Note_on_c, 6, 55, 0
11, 146640, Note_on_c, 6, 49, 64
11, 146756, Note_on_c, 6, 49, 0
11, 146760, Note_on_c, 6, 47, 64
11, 146876, Note_on_c, 6, 47, 0
11, 146880, Note_on_c, 6, 49, 64
11, 147116, Note_on_c, 6, 49, 0
11, 147120, Note_on_c, 6, 54, 64
11, 147236, Note_on_c, 6, 54, 0
11, 147240, Note_on_c, 6, 52, 64
11, 147356, Note_on_c, 6, 52, 0
11, 147360, Note_on_c, 6, 54, 64
11, 147596, Note_on_c, 6, 54, 0
11, 147600, Note_on_c, 6, 47, 64
11, 147716, Note_on_c, 6, 47, 0
11, 147720, Note_on_c, 6, 46, 64
11, 147836, Note_on_c, 6, 46, 0
11, 147840, Note_on_c, 6, 47, 64
11, 148076, Note_on_c, 6, 47, 0
11, 148080, Note_on_c, 6, 52, 64
11, 148316, Note_on_c, 6, 52, 0
11, 148320, Note_on_c, 6, 54, 64
11, 148556, Note_on_c, 6, 54, 0
11, 148560, Note_on_c, 6, 42, 64
11, 148796, Note_on_c, 6, 42, 0
11, 148800, Note_on_c, 6, 47, 64
11, 149036, Note_on_c, 6, 47, 0
11, 149040, Note_on_c, 6, 48, 64
11, 149276, Note_on_c, 6, 48, 0
11, 149280, Note_on_c, 6, 47, 64
11, 149516, Note_on_c, 6, 47, 0
11, 149520, Note_on_c, 6, 45, 64
11, 149756, Note_on_c, 6, 45, 0
11, 149760, Note_on_c, 6, 43, 64
11, 150236, Note_on_c, 6, 43, 0
11, 153600, Note_on_c, 6, 50, 64
11, 153836, Note_on_c, 6, 50, 0
11, 153840, Note_on_c, 6, 49, 64
11, 154076, Note_on_c, 6, 49, 0
11, 154080, Note_on_c, 6, 50, 64
11, 154316, Note_on_c, 6, 50, 0
11, 154320, Note_on_c, 6, 52, 64
11, 154556, Note_on_c, 6, 52, 0
11, 154560, Note_on_c, 6, 54, 64
11, 154796, Note_on_c, 6, 54, 0
11, 154800, Note_on_c, 6, 55, 64
11, 155036, Note_on_c, 6, 55, 0
11, 155040, Note_on_c, 6, 54, 64
11, 155276, Note_on_c, 6, 54, 0
11, 155280, Note_on_c, 6, 52, 64
11, 155516, Note_on_c, 6, 52, 0
11, 155520, Note_on_c, 6, 50, 64
11, 155756, Note_on_c, 6, 50, 0
11, 155760, Note_on_c, 6, 49, 64
11, 155996, Note_on_c, 6, 49, 0
11, 156000, Note_on_c, 6, 47, 64
11, 156236, Note_on_c, 6, 47, 0
11, 156240, Note_on_c, 6, 52, 64
11, 156476, Note_on_c, 6, 52, 0
11, 156480, Note_on_c, 6, 45, 64
11, 156956, Note_on_c, 6, 45, 0
11, 157200, Note_on_c, 6, 45, 64
11, 157436, Note_on_c, 6, 45, 0
11, 157440, Note_on_c, 6, 50, 64
11, 157676, Note_on_c, 6, 50, 0
11, 157680, Note_on_c, 6, 38, 64
11, 157916, Note_on_c, 6, 38, 0
11, 157920, Note_on_c, 6, 42, 64
11, 158156, Note_on_c, 6, 42, 0
11, 158160, Note_on_c, 6, 45, 64
11, 158396, Note_on_c, 6, 45, 0
11, 158400, Note_on_c, 6, 50, 64
11, 158876, Note_on_c, 6, 50, 0
11, 159120, Note_on_c, 6, 50, 64
11, 159356, Note_on_c, 6, 50, 0
11, 159360, Note_on_c, 6, 55, 64
11, 159596, Note_on_c, 6, 55, 0
11, 159600, Note_on_c, 6, 43, 64
11, 159836, Note_on_c, 6, 43, 0
11, 159840, Note_on_c, 6, 47, 64
11, 160076, Note_on_c, 6, 47, 0
11, 160080, Note_on_c, 6, 50, 64
11, 160316, Note_on_c, 6, 50, 0
11, 160320, Note_on_c, 6, 55, 64
11, 160796, Note_on_c, 6, 55, 0
11, 161040, Note_on_c, 6, 47, 64
11, 161276, Note_on_c, 6, 47, 0
11, 161280, Note_on_c, 6, 52, 64
11, 161516, Note_on_c, 6, 52, 0
11, 161520, Note_on_c, 6, 40, 64
11, 161756, Note_on_c, 6, 40, 0
11, 161760, Note_on_c, 6, 43, 64
11, 161996, Note_on_c, 6, 43, 0
11, 162000, Note_on_c, 6, 47, 64
11, 162236, Note_on_c, 6, 47, 0
11, 162240, Note_on_c, 6, 52, 64
11, 162716, Note_on_c, 6, 52, 0
11, 162960, Note_on_c, 6, 43, 64
11, 163196, Note_on_c, 6, 43, 0
11, 163200, Note_on_c, 6, 48, 64
11, 163436, Note_on_c, 6, 48, 0
11, 163440, Note_on_c, 6, 50, 64
11, 163676, Note_on_c, 6, 50, 0
11, 163680, Note_on_c, 6, 43, 64
11, 163916, Note_on_c, 6, 43, 0
11, 163920, Note_on_c, 6, 48, 64
11, 164156, Note_on_c, 6, 48, 0
11, 164160, Note_on_c, 6, 50, 64
11, 164396, Note_on_c, 6, 50, 0
11, 164400, Note_on_c, 6, 48, 64
11, 164636, Note_on_c, 6, 48, 0
11, 164640, Note_on_c, 6, 47, 64
11, 164876, Note_on_c, 6, 47, 0
11, 164880, Note_on_c, 6, 45, 64
11, 165116, Note_on_c, 6, 45, 0
11, 165120, Note_on_c, 6, 43, 64
11, 165356, Note_on_c, 6, 43, 0
11, 165360, Note_on_c, 6, 55, 64
11, 165596, Note_on_c, 6, 55, 0
11, 165600, Note_on_c, 6, 55, 64
11, 165836, Note_on_c, 6, 55, 0
11, 165840, Note_on_c, 6, 43, 64
11, 166076, Note_on_c, 6, 43, 0
11, 166080, Note_on_c, 6, 43, 64
11, 166316, Note_on_c, 6, 43, 0
11, 166320, Note_on_c, 6, 55, 64
11, 166556, Note_on_c, 6, 55, 0
11, 166560, Note_on_c, 6, 55, 64
11, 166796, Note_on_c, 6, 55, 0
11, 166800, Note_on_c, 6, 43, 64
11, 167036, Note_on_c, 6, 43, 0
11, 167040, Note_on_c, 6, 43, 64
11, 167276, Note_on_c, 6, 43, 0
11, 167280, Note_on_c, 6, 55, 64
11, 167396, Note_on_c, 6, 55, 0
11, 167400, Note_on_c, 6, 54, 64
11, 167516, Note_on_c, 6, 54, 0
11, 167520, Note_on_c, 6, 52, 64
11, 167756, Note_on_c, 6, 52, 0
11, 167760, Note_on_c, 6, 57, 64
11, 167996, Note_on_c, 6, 57, 0
11, 168000, Note_on_c, 6, 62, 64
11, 168236, Note_on_c, 6, 62, 0
11, 168240, Note_on_c, 6, 60, 64
11, 168476, Note_on_c, 6, 60, 0
11, 168480, Note_on_c, 6, 59, 64
11, 168716, Note_on_c, 6, 59, 0
11, 168720, Note_on_c, 6, 57, 64
11, 168956, Note_on_c, 6, 57, 0
11, 168960, Note_on_c, 6, 55, 64
11, 169196, Note_on_c, 6, 55, 0
11, 169200, Note_on_c, 6, 53, 64
11, 169436, Note_on_c, 6, 53, 0
11, 169440, Note_on_c, 6, 52, 64
11, 169676, Note_on_c, 6, 52, 0
11, 169680, Note_on_c, 6, 50, 64
11, 169916, Note_on_c, 6, 50, 0
11, 169920, Note_on_c, 6, 60, 64
11, 170156, Note_on_c, 6, 60, 0
11, 170160, Note_on_c, 6, 58, 64
11, 170396, Note_on_c, 6, 58, 0
11, 170400, Note_on_c, 6, 57, 64
11, 170636, Note_on_c, 6, 57, 0
11, 170640, Note_on_c, 6, 55, 64
11, 170876, Note_on_c, 6, 55, 0
11, 170880, Note_on_c, 6, 54, 64
11, 171116, Note_on_c, 6, 54, 0
11, 171120, Note_on_c, 6, 52, 64
11, 171356, Note_on_c, 6, 52, 0
11, 171360, Note_on_c, 6, 50, 64
11, 171596, Note_on_c, 6, 50, 0
11, 171600, Note_on_c, 6, 49, 64
11, 171836, Note_on_c, 6, 49, 0
11, 171840, Note_on_c, 6, 59, 64
11, 172076, Note_on_c, 6, 59, 0
11, 172080, Note_on_c, 6, 57, 64
11, 172316, Note_on_c, 6, 57, 0
11, 172320, Note_on_c, 6, 55, 64
11, 172556, Note_on_c, 6, 55, 0
11, 172560, Note_on_c, 6, 54, 64
11, 172796, Note_on_c, 6, 54, 0
11, 172800, Note_on_c, 6, 52, 64
11, 173036, Note_on_c, 6, 52, 0
11, 173040, Note_on_c, 6, 50, 64
11, 173276, Note_on_c, 6, 50, 0
11, 173280, Note_on_c, 6, 48, 64
11, 173516, Note_on_c, 6, 48, 0
11, 173520, Note_on_c, 6, 47, 64
11, 173756, Note_on_c, 6, 47, 0
11, 173760, Note_on_c, 6, 45, 64
11, 173996, Note_on_c, 6, 45, 0
11, 174000, Note_on_c, 6, 43, 64
11, 174236, Note_on_c, 6, 43, 0
11, 174240, Note_on_c, 6, 41, 64
11, 174476, Note_on_c, 6, 41, 0
11, 174480, Note_on_c, 6, 40, 64
11, 174716, Note_on_c, 6, 40, 0
11, 174720, Note_on_c, 6, 38, 64
11, 175196, Note_on_c, 6, 38, 0
11, 176640, Note_on_c, 6, 39, 64
11, 177116, Note_on_c, 6, 39, 0
11, 178560, Note_on_c, 6, 40, 64
11, 179036, Note_on_c, 6, 40, 0
11, 180480, Note_on_c, 6, 40, 64
11, 180956, Note_on_c, 6, 40, 0
11, 182400, Note_on_c, 6, 40, 64
11, 182876, Note_on_c, 6, 40, 0
11, 184320, Note_on_c, 6, 40, 64
11, 184796, Note_on_c, 6, 40, 0
11, 186240, Note_on_c, 6, 45, 64
11, 186476, Note_on_c, 6, 45, 0
11, 186480, Note_on_c, 6, 57, 64
11, 186716, Note_on_c, 6, 57, 0
11, 186720, Note_on_c, 6, 57, 64
11, 186956, Note_on_c, 6, 57, 0
11, 186960, Note_on_c, 6, 45, 64
11, 187196, Note_on_c, 6, 45, 0
11, 187200, Note_on_c, 6, 45, 64
11, 187436, Note_on_c, 6, 45, 0
11, 187440, Note_on_c, 6, 57, 64
11, 187676, Note_on_c, 6, 57, 0
11, 187680, Note_on_c, 6, 57, 64
11, 187916, Note_on_c, 6, 57, 0
11, 187920, Note_on_c, 6, 45, 64
11, 188156, Note_on_c, 6, 45, 0
11, 188160, Note_on_c, 6, 43, 64
11, 188396, Note_on_c, 6, 43, 0
11, 188400, Note_on_c, 6, 55, 64
11, 188636, Note_on_c, 6, 55, 0
11, 188640, Note_on_c, 6, 55, 64
11, 188876, Note_on_c, 6, 55, 0
11, 188880, Note_on_c, 6, 43, 64
11, 189116, Note_on_c, 6, 43, 0
11, 189120, Note_on_c, 6, 43, 64
11, 189356, Note_on_c, 6, 43, 0
11, 189360, Note_on_c, 6, 55, 64
11, 189596, Note_on_c, 6, 55, 0
11, 189600, Note_on_c, 6, 55, 64
11, 189836, Note_on_c, 6, 55, 0
11, 189840, Note_on_c, 6, 43, 64
11, 190076, Note_on_c, 6, 43, 0
11, 190080, Note_on_c, 6, 41, 64
11, 190316, Note_on_c, 6, 41, 0
11, 190320, Note_on_c, 6, 53, 64
11, 190556, Note_on_c, 6, 53, 0
11, 190560, Note_on_c, 6, 53, 64
11, 190796, Note_on_c, 6, 53, 0
11, 190800, Note_on_c, 6, 41, 64
11, 191036, Note_on_c, 6, 41, 0
11, 191040, Note_on_c, 6, 41, 64
11, 191276, Note_on_c, 6, 41, 0
11, 191280, Note_on_c, 6, 53, 64
11, 191516, Note_on_c, 6, 53, 0
11, 191520, Note_on_c, 6, 53, 64
11, 191756, Note_on_c, 6, 53, 0
11, 191760, Note_on_c, 6, 41, 64
11, 191996, Note_on_c, 6, 41, 0
11, 192000, Note_on_c, 6, 40, 64
11, 192236, Note_on_c, 6, 40, 0
11, 192240, Note_on_c, 6, 52, 64
11, 192476, Note_on_c, 6, 52, 0
11, 192480, Note_on_c, 6, 52, 64
11, 192716, Note_on_c, 6, 52, 0
11, 192720, Note_on_c, 6, 40, 64
11, 192956, Note_on_c, 6, 40, 0
11, 192960, Note_on_c, 6, 40, 64
11, 193196, Note_on_c, 6, 40, 0
11, 193200, Note_on_c, 6, 52, 64
11, 193436, Note_on_c, 6, 52, 0
11, 193440, Note_on_c, 6, 52, 64
11, 193676, Note_on_c, 6, 52, 0
11, 193680, Note_on_c, 6, 50, 64
11, 193916, Note_on_c, 6, 50, 0
11, 193920, Note_on_c, 6, 48, 64
11, 194156, Note_on_c, 6, 48, 0
11, 194160, Note_on_c, 6, 50, 64
11, 194396, Note_on_c, 6, 50, 0
11, 194400, Note_on_c, 6, 52, 64
11, 194636, Note_on_c, 6, 52, 0
11, 194640, Note_on_c, 6, 40, 64
11, 194876, Note_on_c, 6, 40, 0
11, 194880, Note_on_c, 6, 45, 64
11, 195356, Note_on_c, 6, 45, 0
11, 195600, Note_on_c, 6, 57, 64
11, 195716, Note_on_c, 6, 57, 0
11, 195720, Note_on_c, 6, 56, 64
11, 195836, Note_on_c, 6, 56, 0
11, 195840, Note_on_c, 6, 57, 64
11, 196076, Note_on_c, 6, 57, 0
11, 196080, Note_on_c, 6, 52, 64
11, 196196, Note_on_c, 6, 52, 0
11, 196200, Note_on_c, 6, 50, 64
11, 196316, Note_on_c, 6, 50, 0
11, 196320, Note_on_c, 6, 52, 64
11, 196556, Note_on_c, 6, 52, 0
11, 196560, Note_on_c, 6, 57, 64
11, 196676, Note_on_c, 6, 57, 0
11, 196680, Note_on_c, 6, 56, 64
11, 196796, Note_on_c, 6, 56, 0
11, 196800, Note_on_c, 6, 57, 64
11, 197036, Note_on_c, 6, 57, 0
11, 197040, Note_on_c, 6, 48, 64
11, 197156, Note_on_c, 6, 48, 0
11, 197160, Note_on_c, 6, 47, 64
11, 197276, Note_on_c, 6, 47, 0
11, 197280, Note_on_c, 6, 48, 64
11, 197516, Note_on_c, 6, 48, 0
11, 197520, Note_on_c, 6, 57, 64
11, 197636, Note_on_c, 6, 57, 0
11, 197640, Note_on_c, 6, 56, 64
11, 197756, Note_on_c, 6, 56, 0
11, 197760, Note_on_c, 6, 57, 64
11, 197996, Note_on_c, 6, 57, 0
11, 198000, Note_on_c, 6, 45, 64
11, 198116, Note_on_c, 6, 45, 0
11, 198120, Note_on_c, 6, 47, 64
11, 198236, Note_on_c, 6, 47, 0
11, 198240, Note_on_c, 6, 49, 64
11, 198476, Note_on_c, 6, 49, 0
11, 198480, Note_on_c, 6, 51, 64
11, 198716, Note_on_c, 6, 51, 0
11, 198720, Note_on_c, 6, 52, 64
11, 198956, Note_on_c, 6, 52, 0
11, 198960, Note_on_c, 6, 40, 64
11, 199196, Note_on_c, 6, 40, 0
11, 199440, Note_on_c, 6, 52, 64
11, 199556, Note_on_c, 6, 52, 0
11, 199560, Note_on_c, 6, 51, 64
11, 199676, Note_on_c, 6, 51, 0
11, 199680, Note_on_c, 6, 52, 64
11, 199916, Note_on_c, 6, 52, 0
11, 199920, Note_on_c, 6, 47, 64
11, 200036, Note_on_c, 6, 47, 0
11, 200040, Note_on_c, 6, 45, 64
11, 200156, Note_on_c, 6, 45, 0
11, 200160, Note_on_c, 6, 47, 64
11, 200396, Note_on_c, 6, 47, 0
11, 200400, Note_on_c, 6, 52, 64
11, 200516, Note_on_c, 6, 52, 0
11, 200520, Note_on_c, 6, 51, 64
11, 200636, Note_on_c, 6, 51, 0
11, 200640, Note_on_c, 6, 52, 64
11, 200876, Note_on_c, 6, 52, 0
11, 200880, Note_on_c, 6, 43, 64
11, 200996, Note_on_c, 6, 43, 0
11, 201000, Note_on_c, 6, 42, 64
11, 201116, Note_on_c, 6, 42, 0
11, 201120, Note_on_c, 6, 43, 64
11, 201356, Note_on_c, 6, 43, 0
11, 201360, Note_on_c, 6, 52, 64
11, 201476, Note_on_c, 6, 52, 0
11, 201480, Note_on_c, 6, 51, 64
11, 201596, Note_on_c, 6, 51, 0
11, 201600, Note_on_c, 6, 52, 64
11, 201836, Note_on_c, 6, 52, 0
11, 201840, Note_on_c, 6, 40, 64
11, 201956, Note_on_c, 6, 40, 0
11, 201960, Note_on_c, 6, 42, 64
11, 202076, Note_on_c, 6, 42, 0
11, 202080, Note_on_c, 6, 43, 64
11, 202316, Note_on_c, 6, 43, 0
11, 202320, Note_on_c, 6, 45, 64
11, 202556, Note_on_c, 6, 45, 0
11, 202560, Note_on_c, 6, 47, 64
11, 202676, Note_on_c, 6, 47, 0
11, 202680, Note_on_c, 6, 45, 64
11, 202796, Note_on_c, 6, 45, 0
11, 202800, Note_on_c, 6, 47, 64
11, 202916, Note_on_c, 6, 47, 0
11, 202920, Note_on_c, 6, 48, 64
11, 203036, Note_on_c, 6, 48, 0
11, 203040, Note_on_c, 6, 47, 64
11, 203156, Note_on_c, 6, 47, 0
11, 203160, Note_on_c, 6, 48, 64
11, 203276, Note_on_c, 6, 48, 0
11, 203280, Note_on_c, 6, 47, 64
11, 203396, Note_on_c, 6, 47, 0
11, 203400, Note_on_c, 6, 45, 64
11, 203516, Note_on_c, 6, 45, 0
11, 203520, Note_on_c, 6, 43, 64
11, 203996, Note_on_c, 6, 43, 0
11, 204240, Note_on_c, 6, 50, 64
11, 204476, Note_on_c, 6, 50, 0
11, 204480, Note_on_c, 6, 55, 64
11, 204596, Note_on_c, 6, 55, 0
11, 204600, Note_on_c, 6, 54, 64
11, 204716, Note_on_c, 6, 54, 0
11, 204720, Note_on_c, 6, 55, 64
11, 204836, Note_on_c, 6, 55, 0
11, 204840, Note_on_c, 6, 57, 64
11, 204956, Note_on_c, 6, 57, 0
11, 204960, Note_on_c, 6, 55, 64
11, 205076, Note_on_c, 6, 55, 0
11, 205080, Note_on_c, 6, 59, 64
11, 205196, Note_on_c, 6, 59, 0
11, 205200, Note_on_c, 6, 57, 64
11, 205316, Note_on_c, 6, 57, 0
11, 205320, Note_on_c, 6, 48, 64
11, 205436, Note_on_c, 6, 48, 0
11, 205440, Note_on_c, 6, 59, 64
11, 205556, Note_on_c, 6, 59, 0
11, 205560, Note_on_c, 6, 48, 64
11, 205676, Note_on_c, 6, 48, 0
11, 205680, Note_on_c, 6, 59, 64
11, 205796, Note_on_c, 6, 59, 0
11, 205800, Note_on_c, 6, 57, 64
11, 205916, Note_on_c, 6, 57, 0
11, 205920, Note_on_c, 6, 55, 64
11, 206036, Note_on_c, 6, 55, 0
11, 206040, Note_on_c, 6, 59, 64
11, 206156, Note_on_c, 6, 59, 0
11, 206160, Note_on_c, 6, 57, 64
11, 206276, Note_on_c, 6, 57, 0
11, 206280, Note_on_c, 6, 55, 64
11, 206396, Note_on_c, 6, 55, 0
11, 206400, Note_on_c, 6, 54, 64
11, 206516, Note_on_c, 6, 54, 0
11, 206520, Note_on_c, 6, 59, 64
11, 206636, Note_on_c, 6, 59, 0
11, 206640, Note_on_c, 6, 57, 64
11, 206756, Note_on_c, 6, 57, 0
11, 206760, Note_on_c, 6, 55, 64
11, 206876, Note_on_c, 6, 55, 0
11, 206880, Note_on_c, 6, 54, 64
11, 206996, Note_on_c, 6, 54, 0
11, 207000, Note_on_c, 6, 55, 64
11, 207116, Note_on_c, 6, 55, 0
11, 207120, Note_on_c, 6, 54, 64
11, 207236, Note_on_c, 6, 54, 0
11, 207240, Note_on_c, 6, 52, 64
11, 207356, Note_on_c, 6, 52, 0
11, 207360, Note_on_c, 6, 50, 64
11, 207836, Note_on_c, 6, 50, 0
11, 208320, Note_on_c, 6, 50, 64
11, 208796, Note_on_c, 6, 50, 0
11, 209280, Note_on_c, 6, 43, 64
11, 209756, Note_on_c, 6, 43, 0
11, 210240, Note_on_c, 6, 43, 64
11, 210716, Note_on_c, 6, 43, 0
11, 211200, Note_on_c, 6, 42, 64
11, 211676, Note_on_c, 6, 42, 0
11, 212160, Note_on_c, 6, 42, 64
11, 212636, Note_on_c, 6, 42, 0
11, 213120, Note_on_c, 6, 45, 64
11, 213596, Note_on_c, 6, 45, 0
11, 214080, Note_on_c, 6, 45, 64
11, 214556, Note_on_c, 6, 45, 0
11, 215040, Note_on_c, 6, 42, 64
11, 215516, Note_on_c, 6, 42, 0
11, 216000, Note_on_c, 6, 42, 64
11, 216476, Note_on_c, 6, 42, 0
11, 216960, Note_on_c, 6, 41, 64
11, 217436, Note_on_c, 6, 41, 0
11, 217920, Note_on_c, 6, 41, 64
11, 218396, Note_on_c, 6, 41, 0
11, 218880, Note_on_c, 6, 37, 64
11, 219116, Note_on_c, 6, 37, 0
11, 219120, Note_on_c, 6, 37, 64
11, 219356, Note_on_c, 6, 37, 0
11, 219360, Note_on_c, 6, 37, 64
11, 219596, Note_on_c, 6, 37, 0
11, 219600, Note_on_c, 6, 37, 64
11, 219836, Note_on_c, 6, 37, 0
11, 219840, Note_on_c, 6, 37, 64
11, 220076, Note_on_c, 6, 37, 0
11, 220080, Note_on_c, 6, 37, 64
11, 220316, Note_on_c, 6, 37, 0
11, 220320, Note_on_c, 6, 37, 64
11, 220556, Note_on_c, 6, 37, 0
11, 220560, Note_on_c, 6, 37, 64
11, 220796, Note_on_c, 6, 37, 0
11, 220800, Note_on_c, 6, 38, 64
11, 221036, Note_on_c, 6, 38, 0
11, 221040, Note_on_c, 6, 38, 64
11, 221276, Note_on_c, 6, 38, 0
11, 221280, Note_on_c, 6, 38, 64
11, 221516, Note_on_c, 6, 38, 0
11, 221520, Note_on_c, 6, 38, 64
11, 221756, Note_on_c, 6, 38, 0
11, 221760, Note_on_c, 6, 38, 64
11, 221996, Note_on_c, 6, 38, 0
11, 222000, Note_on_c, 6, 38, 64
11, 222236, Note_on_c, 6, 38, 0
11, 222240, Note_on_c, 6, 38, 64
11, 222476, Note_on_c, 6, 38, 0
11, 222480, Note_on_c, 6, 38, 64
11, 222716, Note_on_c, 6, 38, 0
11, 222720, Note_on_c, 6, 38, 64
11, 222956, Note_on_c, 6, 38, 0
11, 222960, Note_on_c, 6, 38, 64
11, 223196, Note_on_c, 6, 38, 0
11, 223200, Note_on_c, 6, 38, 64
11, 223436, Note_on_c, 6, 38, 0
11, 223440, Note_on_c, 6, 38, 64
11, 223676, Note_on_c, 6, 38, 0
11, 223680, Note_on_c, 6, 38, 64
11, 223916, Note_on_c, 6, 38, 0
11, 223920, Note_on_c, 6, 38, 64
11, 224156, Note_on_c, 6, 38, 0
11, 224160, Note_on_c, 6, 38, 64
11, 224396, Note_on_c, 6, 38, 0
11, 224400, Note_on_c, 6, 38, 64
11, 224636, Note_on_c, 6, 38, 0
11, 224640, Note_on_c, 6, 38, 64
11, 224876, Note_on_c, 6, 38, 0
11, 224880, Note_on_c, 6, 38, 64
11, 225116, Note_on_c, 6, 38, 0
11, 225120, Note_on_c, 6, 38, 64
11, 225356, Note_on_c, 6, 38, 0
11, 225360, Note_on_c, 6, 38, 64
11, 225596, Note_on_c, 6, 38, 0
11, 225600, Note_on_c, 6, 38, 64
11, 225836, Note_on_c, 6, 38, 0
11, 225840, Note_on_c, 6, 38, 64
11, 226076, Note_on_c, 6, 38, 0
11, 226080, Note_on_c, 6, 38, 64
11, 226316, Note_on_c, 6, 38, 0
11, 226320, Note_on_c, 6, 38, 64
11, 226556, Note_on_c, 6, 38, 0
11, 226560, Note_on_c, 6, 38, 64
11, 226796, Note_on_c, 6, 38, 0
11, 226800, Note_on_c, 6, 38, 64
11, 227036, Note_on_c, 6, 38, 0
11, 227040, Note_on_c, 6, 38, 64
11, 227276, Note_on_c, 6, 38, 0
11, 227280, Note_on_c, 6, 38, 64
11, 227516, Note_on_c, 6, 38, 0
11, 227520, Note_on_c, 6, 38, 64
11, 227756, Note_on_c, 6, 38, 0
11, 227760, Note_on_c, 6, 38, 64
11, 227996, Note_on_c, 6, 38, 0
11, 228000, Note_on_c, 6, 38, 64
11, 228236, Note_on_c, 6, 38, 0
11, 228240, Note_on_c, 6, 38, 64
11, 228476, Note_on_c, 6, 38, 0
11, 228480, Note_on_c, 6, 43, 64
11, 228716, Note_on_c, 6, 43, 0
11, 228720, Note_on_c, 6, 55, 64
11, 228956, Note_on_c, 6, 55, 0
11, 228960, Note_on_c, 6, 55, 64
11, 229196, Note_on_c, 6, 55, 0
11, 229200, Note_on_c, 6, 43, 64
11, 229436, Note_on_c, 6, 43, 0
11, 229440, Note_on_c, 6, 43, 64
11, 229676, Note_on_c, 6, 43, 0
11, 229680, Note_on_c, 6, 55, 64
11, 229916, Note_on_c, 6, 55, 0
11, 229920, Note_on_c, 6, 55, 64
11, 230156, Note_on_c, 6, 55, 0
11, 230160, Note_on_c, 6, 43, 64
11, 230396, Note_on_c, 6, 43, 0
11, 230400, Note_on_c, 6, 41, 64
11, 230636, Note_on_c, 6, 41, 0
11, 230640, Note_on_c, 6, 53, 64
11, 230876, Note_on_c, 6, 53, 0
11, 230880, Note_on_c, 6, 53, 64
11, 231116, Note_on_c, 6, 53, 0
11, 231120, Note_on_c, 6, 41, 64
11, 231356, Note_on_c, 6, 41, 0
11, 231360, Note_on_c, 6, 41, 64
11, 231596, Note_on_c, 6, 41, 0
11, 231600, Note_on_c, 6, 53, 64
11, 231836, Note_on_c, 6, 53, 0
11, 231840, Note_on_c, 6, 53, 64
11, 232076, Note_on_c, 6, 53, 0
11, 232080, Note_on_c, 6, 41, 64
11, 232316, Note_on_c, 6, 41, 0
11, 232320, Note_on_c, 6, 39, 64
11, 232556, Note_on_c, 6, 39, 0
11, 232560, Note_on_c, 6, 51, 64
11, 232796, Note_on_c, 6, 51, 0
11, 232800, Note_on_c, 6, 51, 64
11, 233036, Note_on_c, 6, 51, 0
11, 233040, Note_on_c, 6, 39, 64
11, 233276, Note_on_c, 6, 39, 0
11, 233280, Note_on_c, 6, 39, 64
11, 233516, Note_on_c, 6, 39, 0
11, 233520, Note_on_c, 6, 51, 64
11, 233756, Note_on_c, 6, 51, 0
11, 233760, Note_on_c, 6, 51, 64
11, 233996, Note_on_c, 6, 51, 0
11, 234000, Note_on_c, 6, 39, 64
11, 234236, Note_on_c, 6, 39, 0
11, 234240, Note_on_c, 6, 38, 64
11, 234240, Note_on_c, 6, 38, 64
11, 234476, Note_on_c, 6, 38, 0
11, 234476, Note_on_c, 6, 38, 0
11, 234960, Note_on_c, 6, 50, 64
11, 235196, Note_on_c, 6, 50, 0
11, 235200, Note_on_c, 6, 38, 64
11, 235676, Note_on_c, 6, 38, 0
11, 235920, Note_on_c, 6, 50, 64
11, 236156, Note_on_c, 6, 50, 0
11, 236160, Note_on_c, 6, 36, 64
11, 236636, Note_on_c, 6, 36, 0
11, 236880, Note_on_c, 6, 48, 64
11, 237116, Note_on_c, 6, 48, 0
11, 237120, Note_on_c, 6, 46, 64
11, 237236, Note_on_c, 6, 46, 0
11, 237240, Note_on_c, 6, 50, 64
11, 237356, Note_on_c, 6, 50, 0
11, 237360, Note_on_c, 6, 43, 64
11, 237476, Note_on_c, 6, 43, 0
11, 237480, Note_on_c, 6, 45, 64
11, 237596, Note_on_c, 6, 45, 0
11, 237600, Note_on_c, 6, 46, 64
11, 237716, Note_on_c, 6, 46, 0
11, 237720, Note_on_c, 6, 48, 64
11, 237836, Note_on_c, 6, 48, 0
11, 237840, Note_on_c, 6, 50, 64
11, 237956, Note_on_c, 6, 50, 0
11, 237960, Note_on_c, 6, 52, 64
11, 238076, Note_on_c, 6, 52, 0
11, 238080, Note_on_c, 6, 54, 64
11, 238196, Note_on_c, 6, 54, 0
11, 238200, Note_on_c, 6, 57, 64
11, 238316, Note_on_c, 6, 57, 0
11, 238320, Note_on_c, 6, 50, 64
11, 238436, Note_on_c, 6, 50, 0
11, 238440, Note_on_c, 6, 52, 64
11, 238556, Note_on_c, 6, 52, 0
11, 238560, Note_on_c, 6, 54, 64
11, 238676, Note_on_c, 6, 54, 0
11, 238680, Note_on_c, 6, 55, 64
11, 238796, Note_on_c, 6, 55, 0
11, 238800, Note_on_c, 6, 57, 64
11, 238916, Note_on_c, 6, 57, 0
11, 238920, Note_on_c, 6, 58, 64
11, 239036, Note_on_c, 6, 58, 0
11, 239040, Note_on_c, 6, 60, 64
11, 239156, Note_on_c, 6, 60, 0
11, 239160, Note_on_c, 6, 57, 64
11, 239276, Note_on_c, 6, 57, 0
11, 239280, Note_on_c, 6, 54, 64
11, 239396, Note_on_c, 6, 54, 0
11, 239400, Note_on_c, 6, 55, 64
11, 239516, Note_on_c, 6, 55, 0
11, 239520, Note_on_c, 6, 57, 64
11, 239636, Note_on_c, 6, 57, 0
11, 239640, Note_on_c, 6, 58, 64
11, 239756, Note_on_c, 6, 58, 0
11, 239760, Note_on_c, 6, 60, 64
11, 239876, Note_on_c, 6, 60, 0
11, 239880, Note_on_c, 6, 62, 64
11, 239996, Note_on_c, 6, 62, 0
11, 240000, Note_on_c, 6, 63, 64
11, 240356, Note_on_c, 6, 63, 0
11, 240360, Note_on_c, 6, 62, 64
11, 240476, Note_on_c, 6, 62, 0
11, 240480, Note_on_c, 6, 60, 64
11, 240596, Note_on_c, 6, 60, 0
11, 240600, Note_on_c, 6, 58, 64
11, 240716, Note_on_c, 6, 58, 0
11, 240720, Note_on_c, 6, 57, 64
11, 240836, Note_on_c, 6, 57, 0
11, 240840, Note_on_c, 6, 55, 64
11, 240956, Note_on_c, 6, 55, 0
11, 240960, Note_on_c, 6, 54, 64
11, 241196, Note_on_c, 6, 54, 0
11, 241200, Note_on_c, 6, 57, 64
11, 241436, Note_on_c, 6, 57, 0
11, 241440, Note_on_c, 6, 62, 64
11, 241676, Note_on_c, 6, 62, 0
11, 241680, Note_on_c, 6, 50, 64
11, 241916, Note_on_c, 6, 50, 0
11, 241920, Note_on_c, 6, 43, 64
11, 242156, Note_on_c, 6, 43, 0
11, 242160, Note_on_c, 6, 55, 64
11, 242396, Note_on_c, 6, 55, 0
11, 242400, Note_on_c, 6, 55, 64
11, 242636, Note_on_c, 6, 55, 0
11, 242640, Note_on_c, 6, 43, 64
11, 242876, Note_on_c, 6, 43, 0
11, 242880, Note_on_c, 6, 43, 64
11, 243116, Note_on_c, 6, 43, 0
11, 243120, Note_on_c, 6, 55, 64
11, 243356, Note_on_c, 6, 55, 0
11, 243360, Note_on_c, 6, 55, 64
11, 243596, Note_on_c, 6, 55, 0
11, 243600, Note_on_c, 6, 43, 64
11, 243836, Note_on_c, 6, 43, 0
11, 243840, Note_on_c, 6, 43, 64
11, 244076, Note_on_c, 6, 43, 0
11, 244080, Note_on_c, 6, 55, 64
11, 244196, Note_on_c, 6, 55, 0
11, 244200, Note_on_c, 6, 54, 64
11, 244316, Note_on_c, 6, 54, 0
11, 244320, Note_on_c, 6, 52, 64
11, 244556, Note_on_c, 6, 52, 0
11, 244560, Note_on_c, 6, 57, 64
11, 244796, Note_on_c, 6, 57, 0
11, 244800, Note_on_c, 6, 50, 64
11, 245036, Note_on_c, 6, 50, 0
11, 245040, Note_on_c, 6, 62, 64
11, 245156, Note_on_c, 6, 62, 0
11, 245160, Note_on_c, 6, 61, 64
11, 245276, Note_on_c, 6, 61, 0
11, 245280, Note_on_c, 6, 62, 64
11, 245516, Note_on_c, 6, 62, 0
11, 245520, Note_on_c, 6, 50, 64
11, 245756, Note_on_c, 6, 50, 0
11, 245760, Note_on_c, 6, 50, 64
11, 245996, Note_on_c, 6, 50, 0
11, 246000, Note_on_c, 6, 62, 64
11, 246116, Note_on_c, 6, 62, 0
11, 246120, Note_on_c, 6, 61, 64
11, 246236, Note_on_c, 6, 61, 0
11, 246240, Note_on_c, 6, 62, 64
11, 246476, Note_on_c, 6, 62, 0
11, 246480, Note_on_c, 6, 50, 64
11, 246716, Note_on_c, 6, 50, 0
11, 246720, Note_on_c, 6, 50, 64
11, 246956, Note_on_c, 6, 50, 0
11, 246960, Note_on_c, 6, 62, 64
11, 247076, Note_on_c, 6, 62, 0
11, 247080, Note_on_c, 6, 61, 64
11, 247196, Note_on_c, 6, 61, 0
11, 247200, Note_on_c, 6, 62, 64
11, 247436, Note_on_c, 6, 62, 0
11, 247440, Note_on_c, 6, 54, 64
11, 247676, Note_on_c, 6, 54, 0
11, 247680, Note_on_c, 6, 55, 64
11, 247916, Note_on_c, 6, 55, 0
11, 247920, Note_on_c, 6, 52, 64
11, 248156, Note_on_c, 6, 52, 0
11, 248160, Note_on_c, 6, 48, 64
11, 248396, Note_on_c, 6, 48, 0
11, 248400, Note_on_c, 6, 50, 64
11, 248636, Note_on_c, 6, 50, 0
11, 248640, Note_on_c, 6, 52, 64
11, 248876, Note_on_c, 6, 52, 0
11, 248880, Note_on_c, 6, 50, 64
11, 248996, Note_on_c, 6, 50, 0
11, 249000, Note_on_c, 6, 48, 64
11, 249116, Note_on_c, 6, 48, 0
11, 249120, Note_on_c, 6, 47, 64
11, 249356, Note_on_c, 6, 47, 0
11, 249360, Note_on_c, 6, 45, 64
11, 249476, Note_on_c, 6, 45, 0
11, 249480, Note_on_c, 6, 43, 64
11, 249596, Note_on_c, 6, 43, 0
11, 249600, Note_on_c, 6, 48, 64
11, 249836, Note_on_c, 6, 48, 0
11, 249840, Note_on_c, 6, 47, 64
11, 249956, Note_on_c, 6, 47, 0
11, 249960, Note_on_c, 6, 45, 64
11, 250076, Note_on_c, 6, 45, 0
11, 250080, Note_on_c, 6, 43, 64
11, 250316, Note_on_c, 6, 43, 0
11, 250320, Note_on_c, 6, 55, 64
11, 250436, Note_on_c, 6, 55, 0
11, 250440, Note_on_c, 6, 54, 64
11, 250556, Note_on_c, 6, 54, 0
11, 250560, Note_on_c, 6, 52, 64
11, 250796, Note_on_c, 6, 52, 0
11, 250800, Note_on_c, 6, 50, 64
11, 250916, Note_on_c, 6, 50, 0
11, 250920, Note_on_c, 6, 48, 64
11, 251036, Note_on_c, 6, 48, 0
11, 251040, Note_on_c, 6, 47, 64
11, 251276, Note_on_c, 6, 47, 0
11, 251280, Note_on_c, 6, 49, 64
11, 251516, Note_on_c, 6, 49, 0
11, 251520, Note_on_c, 6, 50, 64
11, 251756, Note_on_c, 6, 50, 0
11, 251760, Note_on_c, 6, 38, 64
11, 251996, Note_on_c, 6, 38, 0
11, 252000, Note_on_c, 6, 38, 64
11, 252236, Note_on_c, 6, 38, 0
11, 252240, Note_on_c, 6, 50, 64
11, 252356, Note_on_c, 6, 50, 0
11, 252360, Note_on_c, 6, 52, 64
11, 252476, Note_on_c, 6, 52, 0
11, 252480, Note_on_c, 6, 54, 64
11, 252716, Note_on_c, 6, 54, 0
11, 252720, Note_on_c, 6, 55, 64
11, 252956, Note_on_c, 6, 55, 0
11, 252960, Note_on_c, 6, 57, 64
11, 253196, Note_on_c, 6, 57, 0
11, 253200, Note_on_c, 6, 54, 64
11, 253436, Note_on_c, 6, 54, 0
11, 253440, Note_on_c, 6, 55, 64
11, 253676, Note_on_c, 6, 55, 0
11, 253680, Note_on_c, 6, 48, 64
11, 253916, Note_on_c, 6, 48, 0
11, 253920, Note_on_c, 6, 50, 64
11, 254156, Note_on_c, 6, 50, 0
11, 254160, Note_on_c, 6, 50, 64
11, 254396, Note_on_c, 6, 50, 0
11, 254400, Note_on_c, 6, 55, 64
11, 254636, Note_on_c, 6, 55, 0
11, 254640, Note_on_c, 6, 43, 64
11, 254640, Note_on_c, 6, 47, 64
11, 254756, Note_on_c, 6, 47, 0
11, 254876, Note_on_c, 6, 43, 0
11, 254880, Note_on_c, 6, 43, 64
11, 255116, Note_on_c, 6, 43, 0
11, 255120, Note_on_c, 6, 43, 64
11, 255356, Note_on_c, 6, 43, 0
11, 255360, Note_on_c, 6, 43, 64
11, 255596, Note_on_c, 6, 43, 0
11, 255600, Note_on_c, 6, 43, 64
11, 255836, Note_on_c, 6, 43, 0
11, 255840, Note_on_c, 6, 43, 64
11, 256076, Note_on_c, 6, 43, 0
11, 256080, Note_on_c, 6, 43, 64
11, 256316, Note_on_c, 6, 43, 0
11, 256320, Note_on_c, 6, 43, 64
11, 256556, Note_on_c, 6, 43, 0
11, 256560, Note_on_c, 6, 43, 64
11, 256796, Note_on_c, 6, 43, 0
11, 256800, Note_on_c, 6, 43, 64
11, 257036, Note_on_c, 6, 43, 0
11, 257040, Note_on_c, 6, 43, 64
11, 257276, Note_on_c, 6, 43, 0
11, 257280, Note_on_c, 6, 43, 64
11, 257516, Note_on_c, 6, 43, 0
11, 257520, Note_on_c, 6, 43, 64
11, 257756, Note_on_c, 6, 43, 0
11, 257760, Note_on_c, 6, 43, 64
11, 257996, Note_on_c, 6, 43, 0
11, 258000, Note_on_c, 6, 43, 64
11, 258236, Note_on_c, 6, 43, 0
11, 258240, Note_on_c, 6, 43, 64
11, 258476, Note_on_c, 6, 43, 0
11, 258480, Note_on_c, 6, 43, 64
11, 258716, Note_on_c, 6, 43, 0
11, 258720, Note_on_c, 6, 43, 64
11, 258956, Note_on_c, 6, 43, 0
11, 258960, Note_on_c, 6, 43, 64
11, 259196, Note_on_c, 6, 43, 0
11, 259200, Note_on_c, 6, 43, 64
11, 259436, Note_on_c, 6, 43, 0
11, 259440, Note_on_c, 6, 43, 64
11, 259676, Note_on_c, 6, 43, 0
11, 259680, Note_on_c, 6, 43, 64
11, 259916, Note_on_c, 6, 43, 0
11, 259920, Note_on_c, 6, 50, 64
11, 260156, Note_on_c, 6, 50, 0
11, 260160, Note_on_c, 6, 55, 64
11, 260396, Note_on_c, 6, 55, 0
11, 260400, Note_on_c, 6, 54, 64
11, 260516, Note_on_c, 6, 54, 0
11, 260520, Note_on_c, 6, 52, 64
11, 260636, Note_on_c, 6, 52, 0
11, 260640, Note_on_c, 6, 50, 64
11, 260756, Note_on_c, 6, 50, 0
11, 260760, Note_on_c, 6, 48, 64
11, 260876, Note_on_c, 6, 48, 0
11, 260880, Note_on_c, 6, 47, 64
11, 260996, Note_on_c, 6, 47, 0
11, 261000, Note_on_c, 6, 45, 64
11, 261116, Note_on_c, 6, 45, 0
11, 261120, Note_on_c, 6, 47, 64
11, 261356, Note_on_c, 6, 47, 0
11, 261360, Note_on_c, 6, 45, 64
11, 261476, Note_on_c, 6, 45, 0
11, 261480, Note_on_c, 6, 43, 64
11, 261596, Note_on_c, 6, 43, 0
11, 261600, Note_on_c, 6, 50, 64
11, 261836, Note_on_c, 6, 50, 0
11, 261840, Note_on_c, 6, 38, 64
11, 262076, Note_on_c, 6, 38, 0
11, 262080, Note_on_c, 6, 43, 64
11, 263036, Note_on_c, 6, 43, 0
11, 263040, Note_on_c, 6, 48, 64
11, 263996, Note_on_c, 6, 48, 0
11, 264000, Note_on_c, 6, 47, 64
11, 264956, Note_on_c, 6, 47, 0
11, 269280, Note_on_c, 6, 55, 64
11, 269396, Note_on_c, 6, 55, 0
11, 269400, Note_on_c, 6, 54, 64
11, 269516, Note_on_c, 6, 54, 0
11, 269520, Note_on_c, 6, 55, 64
11, 269636, Note_on_c, 6, 55, 0
11, 269640, Note_on_c, 6, 57, 64
11, 269756, Note_on_c, 6, 57, 0
11, 269760, Note_on_c, 6, 59, 64
11, 269876, Note_on_c, 6, 59, 0
11, 269880, Note_on_c, 6, 60, 64
11, 269996, Note_on_c, 6, 60, 0
11, 270000, Note_on_c, 6, 62, 64
11, 270116, Note_on_c, 6, 62, 0
11, 270120, Note_on_c, 6, 64, 64
11, 270236, Note_on_c, 6, 64, 0
11, 270240, Note_on_c, 6, 62, 64
11, 270356, Note_on_c, 6, 62, 0
11, 270360, Note_on_c, 6, 60, 64
11, 270476, Note_on_c, 6, 60, 0
11, 270480, Note_on_c, 6, 59, 64
11, 270596, Note_on_c, 6, 59, 0
11, 270600, Note_on_c, 6, 57, 64
11, 270716, Note_on_c, 6, 57, 0
11, 270720, Note_on_c, 6, 55, 64
11, 270836, Note_on_c, 6, 55, 0
11, 270840, Note_on_c, 6, 54, 64
11, 270956, Note_on_c, 6, 54, 0
11, 270960, Note_on_c, 6, 55, 64
11, 271076, Note_on_c, 6, 55, 0
11, 271080, Note_on_c, 6, 57, 64
11, 271196, Note_on_c, 6, 57, 0
11, 271200, Note_on_c, 6, 59, 64
11, 271316, Note_on_c, 6, 59, 0
11, 271320, Note_on_c, 6, 55, 64
11, 271436, Note_on_c, 6, 55, 0
11, 271440, Note_on_c, 6, 60, 64
11, 271556, Note_on_c, 6, 60, 0
11, 271560, Note_on_c, 6, 62, 64
11, 271676, Note_on_c, 6, 62, 0
11, 271680, Note_on_c, 6, 60, 64
11, 271796, Note_on_c, 6, 60, 0
11, 271800, Note_on_c, 6, 59, 64
11, 271916, Note_on_c, 6, 59, 0
11, 271920, Note_on_c, 6, 57, 64
11, 272036, Note_on_c, 6, 57, 0
11, 272040, Note_on_c, 6, 55, 64
11, 272156, Note_on_c, 6, 55, 0
11, 272160, Note_on_c, 6, 54, 64
11, 272276, Note_on_c, 6, 54, 0
11, 272280, Note_on_c, 6, 52, 64
11, 272396, Note_on_c, 6, 52, 0
11, 272400, Note_on_c, 6, 54, 64
11, 272516, Note_on_c, 6, 54, 0
11, 272520, Note_on_c, 6, 55, 64
11, 272636, Note_on_c, 6, 55, 0
11, 272640, Note_on_c, 6, 57, 64
11, 272756, Note_on_c, 6, 57, 0
11, 272760, Note_on_c, 6, 54, 64
11, 272876, Note_on_c, 6, 54, 0
11, 272880, Note_on_c, 6, 59, 64
11, 272996, Note_on_c, 6, 59, 0
11, 273000, Note_on_c, 6, 61, 64
11, 273116, Note_on_c, 6, 61, 0
11, 273120, Note_on_c, 6, 59, 64
11, 273236, Note_on_c, 6, 59, 0
11, 273240, Note_on_c, 6, 57, 64
11, 273356, Note_on_c, 6, 57, 0
11, 273360, Note_on_c, 6, 55, 64
11, 273476, Note_on_c, 6, 55, 0
11, 273480, Note_on_c, 6, 54, 64
11, 273596, Note_on_c, 6, 54, 0
11, 273600, Note_on_c, 6, 52, 64
11, 273716, Note_on_c, 6, 52, 0
11, 273720, Note_on_c, 6, 50, 64
11, 273836, Note_on_c, 6, 50, 0
11, 273840, Note_on_c, 6, 52, 64
11, 273956, Note_on_c, 6, 52, 0
11, 273960, Note_on_c, 6, 54, 64
11, 274076, Note_on_c, 6, 54, 0
11, 274080, Note_on_c, 6, 55, 64
11, 274196, Note_on_c, 6, 55, 0
11, 274200, Note_on_c, 6, 52, 64
11, 274316, Note_on_c, 6, 52, 0
11, 274320, Note_on_c, 6, 57, 64
11, 274436, Note_on_c, 6, 57, 0
11, 274440, Note_on_c, 6, 59, 64
11, 274556, Note_on_c, 6, 59, 0
11, 274560, Note_on_c, 6, 57, 64
11, 274676, Note_on_c, 6, 57, 0
11, 274680, Note_on_c, 6, 55, 64
11, 274796, Note_on_c, 6, 55, 0
11, 274800, Note_on_c, 6, 54, 64
11, 274916, Note_on_c, 6, 54, 0
11, 274920, Note_on_c, 6, 52, 64
11, 275036, Note_on_c, 6, 52, 0
11, 275040, Note_on_c, 6, 50, 64
11, 275516, Note_on_c, 6, 50, 0
11, 275760, Note_on_c, 6, 45, 64
11, 276236, Note_on_c, 6, 45, 0
11, 276480, Note_on_c, 6, 38, 64
11, 276956, Note_on_c, 6, 38, 0
11, 277200, Note_on_c, 6, 45, 64
11, 277676, Note_on_c, 6, 45, 0
11, 277920, Note_on_c, 6, 50, 64
11, 278156, Note_on_c, 6, 50, 0
11, 278160, Note_on_c, 6, 54, 64
11, 278396, Note_on_c, 6, 54, 0
11, 278400, Note_on_c, 6, 57, 64
11, 278636, Note_on_c, 6, 57, 0
11, 278640, Note_on_c, 6, 45, 64
11, 278876, Note_on_c, 6, 45, 0
11, 278880, Note_on_c, 6, 52, 64
11, 279116, Note_on_c, 6, 52, 0
11, 279120, Note_on_c, 6, 57, 64
11, 279356, Note_on_c, 6, 57, 0
11, 279360, Note_on_c, 6, 50, 64
11, 279476, Note_on_c, 6, 50, 0
11, 279480, Note_on_c, 6, 49, 64
11, 279596, Note_on_c, 6, 49, 0
11, 279600, Note_on_c, 6, 50, 64
11, 279716, Note_on_c, 6, 50, 0
11, 279720, Note_on_c, 6, 52, 64
11, 279836, Note_on_c, 6, 52, 0
11, 279840, Note_on_c, 6, 54, 64
11, 279956, Note_on_c, 6, 54, 0
11, 279960, Note_on_c, 6, 55, 64
11, 280076, Note_on_c, 6, 55, 0
11, 280080, Note_on_c, 6, 57, 64
11, 280196, Note_on_c, 6, 57, 0
11, 280200, Note_on_c, 6, 59, 64
11, 280316, Note_on_c, 6, 59, 0
11, 280320, Note_on_c, 6, 57, 64
11, 280436, Note_on_c, 6, 57, 0
11, 280440, Note_on_c, 6, 55, 64
11, 280556, Note_on_c, 6, 55, 0
11, 280560, Note_on_c, 6, 54, 64
11, 280676, Note_on_c, 6, 54, 0
11, 280680, Note_on_c, 6, 52, 64
11, 280796, Note_on_c, 6, 52, 0
11, 280800, Note_on_c, 6, 50, 64
11, 280916, Note_on_c, 6, 50, 0
11, 280920, Note_on_c, 6, 49, 64
11, 281036, Note_on_c, 6, 49, 0
11, 281040, Note_on_c, 6, 50, 64
11, 281156, Note_on_c, 6, 50, 0
11, 281160, Note_on_c, 6, 52, 64
11, 281276, Note_on_c, 6, 52, 0
11, 281280, Note_on_c, 6, 54, 64
11, 281396, Note_on_c, 6, 54, 0
11, 281400, Note_on_c, 6, 50, 64
11, 281516, Note_on_c, 6, 50, 0
11, 281520, Note_on_c, 6, 55, 64
11, 281636, Note_on_c, 6, 55, 0
11, 281640, Note_on_c, 6, 57, 64
11, 281756, Note_on_c, 6, 57, 0
11, 281760, Note_on_c, 6, 55, 64
11, 281876, Note_on_c, 6, 55, 0
11, 281880, Note_on_c, 6, 54, 64
11, 281996, Note_on_c, 6, 54, 0
11, 282000, Note_on_c, 6, 52, 64
11, 282116, Note_on_c, 6, 52, 0
11, 282120, Note_on_c, 6, 50, 64
11, 282236, Note_on_c, 6, 50, 0
11, 282240, Note_on_c, 6, 49, 64
11, 282356, Note_on_c, 6, 49, 0
11, 282360, Note_on_c, 6, 47, 64
11, 282476, Note_on_c, 6, 47, 0
11, 282480, Note_on_c, 6, 49, 64
11, 282596, Note_on_c, 6, 49, 0
11, 282600, Note_on_c, 6, 50, 64
11, 282716, Note_on_c, 6, 50, 0
11, 282720, Note_on_c, 6, 52, 64
11, 282836, Note_on_c, 6, 52, 0
11, 282840, Note_on_c, 6, 49, 64
11, 282956, Note_on_c, 6, 49, 0
11, 282960, Note_on_c, 6, 54, 64
11, 283076, Note_on_c, 6, 54, 0
11, 283080, Note_on_c, 6, 55, 64
11, 283196, Note_on_c, 6, 55, 0
11, 283200, Note_on_c, 6, 54, 64
11, 283316, Note_on_c, 6, 54, 0
11, 283320, Note_on_c, 6, 52, 64
11, 283436, Note_on_c, 6, 52, 0
11, 283440, Note_on_c, 6, 50, 64
11, 283556, Note_on_c, 6, 50, 0
11, 283560, Note_on_c, 6, 49, 64
11, 283676, Note_on_c, 6, 49, 0
11, 283680, Note_on_c, 6, 47, 64
11, 283796, Note_on_c, 6, 47, 0
11, 283800, Note_on_c, 6, 45, 64
11, 283916, Note_on_c, 6, 45, 0
11, 283920, Note_on_c, 6, 47, 64
11, 284036, Note_on_c, 6, 47, 0
11, 284040, Note_on_c, 6, 49, 64
11, 284156, Note_on_c, 6, 49, 0
11, 284160, Note_on_c, 6, 50, 64
11, 284276, Note_on_c, 6, 50, 0
11, 284280, Note_on_c, 6, 47, 64
11, 284396, Note_on_c, 6, 47, 0
11, 284400, Note_on_c, 6, 52, 64
11, 284516, Note_on_c, 6, 52, 0
11, 284520, Note_on_c, 6, 54, 64
11, 284636, Note_on_c, 6, 54, 0
11, 284640, Note_on_c, 6, 52, 64
11, 284756, Note_on_c, 6, 52, 0
11, 284760, Note_on_c, 6, 50, 64
11, 284876, Note_on_c, 6, 50, 0
11, 284880, Note_on_c, 6, 49, 64
11, 284996, Note_on_c, 6, 49, 0
11, 285000, Note_on_c, 6, 47, 64
11, 285116, Note_on_c, 6, 47, 0
11, 285120, Note_on_c, 6, 45, 64
11, 285356, Note_on_c, 6, 45, 0
11, 285360, Note_on_c, 6, 45, 64
11, 285596, Note_on_c, 6, 45, 0
11, 285600, Note_on_c, 6, 45, 64
11, 285836, Note_on_c, 6, 45, 0
11, 285840, Note_on_c, 6, 45, 64
11, 286076, Note_on_c, 6, 45, 0
11, 286080, Note_on_c, 6, 45, 64
11, 286316, Note_on_c, 6, 45, 0
11, 286320, Note_on_c, 6, 45, 64
11, 286556, Note_on_c, 6, 45, 0
11, 286560, Note_on_c, 6, 45, 64
11, 286796, Note_on_c, 6, 45, 0
11, 286800, Note_on_c, 6, 45, 64
11, 287036, Note_on_c, 6, 45, 0
11, 287040, Note_on_c, 6, 45, 64
11, 287276, Note_on_c, 6, 45, 0
11, 287280, Note_on_c, 6, 45, 64
11, 287516, Note_on_c, 6, 45, 0
11, 287520, Note_on_c, 6, 45, 64
11, 287756, Note_on_c, 6, 45, 0
11, 287760, Note_on_c, 6, 45, 64
11, 287996, Note_on_c, 6, 45, 0
11, 288000, Note_on_c, 6, 45, 64
11, 288236, Note_on_c, 6, 45, 0
11, 288240, Note_on_c, 6, 45, 64
11, 288476, Note_on_c, 6, 45, 0
11, 288480, Note_on_c, 6, 45, 64
11, 288716, Note_on_c, 6, 45, 0
11, 288720, Note_on_c, 6, 45, 64
11, 288956, Note_on_c, 6, 45, 0
11, 288960, Note_on_c, 6, 45, 64
11, 289196, Note_on_c, 6, 45, 0
11, 289200, Note_on_c, 6, 45, 64
11, 289436, Note_on_c, 6, 45, 0
11, 289440, Note_on_c, 6, 45, 64
11, 289676, Note_on_c, 6, 45, 0
11, 289680, Note_on_c, 6, 45, 64
11, 289916, Note_on_c, 6, 45, 0
11, 289920, Note_on_c, 6, 45, 64
11, 290156, Note_on_c, 6, 45, 0
11, 290160, Note_on_c, 6, 45, 64
11, 290396, Note_on_c, 6, 45, 0
11, 290400, Note_on_c, 6, 45, 64
11, 290636, Note_on_c, 6, 45, 0
11, 290640, Note_on_c, 6, 45, 64
11, 290876, Note_on_c, 6, 45, 0
11, 290880, Note_on_c, 6, 45, 64
11, 291116, Note_on_c, 6, 45, 0
11, 291120, Note_on_c, 6, 49, 64
11, 291356, Note_on_c, 6, 49, 0
11, 291360, Note_on_c, 6, 52, 64
11, 291596, Note_on_c, 6, 52, 0
11, 291600, Note_on_c, 6, 49, 64
11, 291836, Note_on_c, 6, 49, 0
11, 291840, Note_on_c, 6, 52, 64
11, 292076, Note_on_c, 6, 52, 0
11, 292080, Note_on_c, 6, 57, 64
11, 292316, Note_on_c, 6, 57, 0
11, 292320, Note_on_c, 6, 50, 64
11, 292556, Note_on_c, 6, 50, 0
11, 292560, Note_on_c, 6, 54, 64
11, 292796, Note_on_c, 6, 54, 0
11, 292800, Note_on_c, 6, 57, 64
11, 293036, Note_on_c, 6, 57, 0
11, 293040, Note_on_c, 6, 54, 64
11, 293276, Note_on_c, 6, 54, 0
11, 293280, Note_on_c, 6, 57, 64
11, 293516, Note_on_c, 6, 57, 0
11, 293520, Note_on_c, 6, 62, 64
11, 293756, Note_on_c, 6, 62, 0
11, 293760, Note_on_c, 6, 43, 64
11, 294236, Note_on_c, 6, 43, 0
11, 295200, Note_on_c, 6, 55, 64
11, 295676, Note_on_c, 6, 55, 0
11, 296640, Note_on_c, 6, 54, 64
11, 296876, Note_on_c, 6, 54, 0
11, 296880, Note_on_c, 6, 52, 64
11, 297116, Note_on_c, 6, 52, 0
11, 297120, Note_on_c, 6, 50, 64
11, 297356, Note_on_c, 6, 50, 0
11, 297360, Note_on_c, 6, 57, 64
11, 297836, Note_on_c, 6, 57, 0
11, 297840, Note_on_c, 6, 45, 64
11, 298076, Note_on_c, 6, 45, 0
11, 298080, Note_on_c, 6, 38, 64
11, 299516, Note_on_c, 6, 38, 0
11, 303840, Note_on_c, 6, 55, 64
11, 303956, Note_on_c, 6, 55, 0
11, 303960, Note_on_c, 6, 54, 64
11, 304076, Note_on_c, 6, 54, 0
11, 304080, Note_on_c, 6, 55, 64
11, 304196, Note_on_c, 6, 55, 0
11, 304200, Note_on_c, 6, 57, 64
11, 304316, Note_on_c, 6, 57, 0
11, 304320, Note_on_c, 6, 59, 64
11, 304436, Note_on_c, 6, 59, 0
11, 304440, Note_on_c, 6, 60, 64
11, 304556, Note_on_c, 6, 60, 0
11, 304560, Note_on_c, 6, 62, 64
11, 304676, Note_on_c, 6, 62, 0
11, 304680, Note_on_c, 6, 64, 64
11, 304796, Note_on_c, 6, 64, 0
11, 304800, Note_on_c, 6, 62, 64
11, 304916, Note_on_c, 6, 62, 0
11, 304920, Note_on_c, 6, 60, 64
11, 305036, Note_on_c, 6, 60, 0
11, 305040, Note_on_c, 6, 59, 64
11, 305156, Note_on_c, 6, 59, 0
11, 305160, Note_on_c, 6, 57, 64
11, 305276, Note_on_c, 6, 57, 0
11, 305280, Note_on_c, 6, 55, 64
11, 305396, Note_on_c, 6, 55, 0
11, 305400, Note_on_c, 6, 54, 64
11, 305516, Note_on_c, 6, 54, 0
11, 305520, Note_on_c, 6, 55, 64
11, 305636, Note_on_c, 6, 55, 0
11, 305640, Note_on_c, 6, 57, 64
11, 305756, Note_on_c, 6, 57, 0
11, 305760, Note_on_c, 6, 59, 64
11, 305876, Note_on_c, 6, 59, 0
11, 305880, Note_on_c, 6, 55, 64
11, 305996, Note_on_c, 6, 55, 0
11, 306000, Note_on_c, 6, 60, 64
11, 306116, Note_on_c, 6, 60, 0
11, 306120, Note_on_c, 6, 62, 64
11, 306236, Note_on_c, 6, 62, 0
11, 306240, Note_on_c, 6, 60, 64
11, 306356, Note_on_c, 6, 60, 0
11, 306360, Note_on_c, 6, 59, 64
11, 306476, Note_on_c, 6, 59, 0
11, 306480, Note_on_c, 6, 57, 64
11, 306596, Note_on_c, 6, 57, 0
11, 306600, Note_on_c, 6, 55, 64
11, 306716, Note_on_c, 6, 55, 0
11, 306720, Note_on_c, 6, 54, 64
11, 306836, Note_on_c, 6, 54, 0
11, 306840, Note_on_c, 6, 52, 64
11, 306956, Note_on_c, 6, 52, 0
11, 306960, Note_on_c, 6, 54, 64
11, 307076, Note_on_c, 6, 54, 0
11, 307080, Note_on_c, 6, 55, 64
11, 307196, Note_on_c, 6, 55, 0
11, 307200, Note_on_c, 6, 57, 64
11, 307316, Note_on_c, 6, 57, 0
11, 307320, Note_on_c, 6, 54, 64
11, 307436, Note_on_c, 6, 54, 0
11, 307440, Note_on_c, 6, 59, 64
11, 307556, Note_on_c, 6, 59, 0
11, 307560, Note_on_c, 6, 61, 64
11, 307676, Note_on_c, 6, 61, 0
11, 307680, Note_on_c, 6, 59, 64
11, 307796, Note_on_c, 6, 59, 0
11, 307800, Note_on_c, 6, 57, 64
11, 307916, Note_on_c, 6, 57, 0
11, 307920, Note_on_c, 6, 55, 64
11, 308036, Note_on_c, 6, 55, 0
11, 308040, Note_on_c, 6, 54, 64
11, 308156, Note_on_c, 6, 54, 0
11, 308160, Note_on_c, 6, 52, 64
11, 308276, Note_on_c, 6, 52, 0
11, 308280, Note_on_c, 6, 50, 64
11, 308396, Note_on_c, 6, 50, 0
11, 308400, Note_on_c, 6, 52, 64
11, 308516, Note_on_c, 6, 52, 0
11, 308520, Note_on_c, 6, 54, 64
11, 308636, Note_on_c, 6, 54, 0
11, 308640, Note_on_c, 6, 55, 64
11, 308756, Note_on_c, 6, 55, 0
11, 308760, Note_on_c, 6, 52, 64
11, 308876, Note_on_c, 6, 52, 0
11, 308880, Note_on_c, 6, 57, 64
11, 308996, Note_on_c, 6, 57, 0
11, 309000, Note_on_c, 6, 59, 64
11, 309116, Note_on_c, 6, 59, 0
11, 309120, Note_on_c, 6, 57, 64
11, 309236, Note_on_c, 6, 57, 0
11, 309240, Note_on_c, 6, 55, 64
11, 309356, Note_on_c, 6, 55, 0
11, 309360, Note_on_c, 6, 54, 64
11, 309476, Note_on_c, 6, 54, 0
11, 309480, Note_on_c, 6, 52, 64
11, 309596, Note_on_c, 6, 52, 0
11, 309600, Note_on_c, 6, 50, 64
11, 310076, Note_on_c, 6, 50, 0
11, 310320, Note_on_c, 6, 45, 64
11, 310796, Note_on_c, 6, 45, 0
11, 311040, Note_on_c, 6, 38, 64
11, 311516, Note_on_c, 6, 38, 0
11, 311760, Note_on_c, 6, 45, 64
11, 312236, Note_on_c, 6, 45, 0
11, 312480, Note_on_c, 6, 50, 64
11, 312716, Note_on_c, 6, 50, 0
11, 312720, Note_on_c, 6, 54, 64
11, 312956, Note_on_c, 6, 54, 0
11, 312960, Note_on_c, 6, 57, 64
11, 313196, Note_on_c, 6, 57, 0
11, 313200, Note_on_c, 6, 45, 64
11, 313436, Note_on_c, 6, 45, 0
11, 313440, Note_on_c, 6, 52, 64
11, 313676, Note_on_c, 6, 52, 0
11, 313680, Note_on_c, 6, 57, 64
11, 313916, Note_on_c, 6, 57, 0
11, 313920, Note_on_c, 6, 50, 64
11, 314036, Note_on_c, 6, 50, 0
11, 314040, Note_on_c, 6, 49, 64
11, 314156, Note_on_c, 6, 49, 0
11, 314160, Note_on_c, 6, 50, 64
11, 314276, Note_on_c, 6, 50, 0
11, 314280, Note_on_c, 6, 52, 64
11, 314396, Note_on_c, 6, 52, 0
11, 314400, Note_on_c, 6, 54, 64
11, 314516, Note_on_c, 6, 54, 0
11, 314520, Note_on_c, 6, 55, 64
11, 314636, Note_on_c, 6, 55, 0
11, 314640, Note_on_c, 6, 57, 64
11, 314756, Note_on_c, 6, 57, 0
11, 314760, Note_on_c, 6, 59, 64
11, 314876, Note_on_c, 6, 59, 0
11, 314880, Note_on_c, 6, 57, 64
11, 314996, Note_on_c, 6, 57, 0
11, 315000, Note_on_c, 6, 55, 64
11, 315116, Note_on_c, 6, 55, 0
11, 315120, Note_on_c, 6, 54, 64
11, 315236, Note_on_c, 6, 54, 0
11, 315240, Note_on_c, 6, 52, 64
11, 315356, Note_on_c, 6, 52, 0
11, 315360, Note_on_c, 6, 50, 64
11, 315476, Note_on_c, 6, 50, 0
11, 315480, Note_on_c, 6, 49, 64
11, 315596, Note_on_c, 6, 49, 0
11, 315600, Note_on_c, 6, 50, 64
11, 315716, Note_on_c, 6, 50, 0
11, 315720, Note_on_c, 6, 52, 64
11, 315836, Note_on_c, 6, 52, 0
11, 315840, Note_on_c, 6, 54, 64
11, 315956, Note_on_c, 6, 54, 0
11, 315960, Note_on_c, 6, 50, 64
11, 316076, Note_on_c, 6, 50, 0
11, 316080, Note_on_c, 6, 55, 64
11, 316196, Note_on_c, 6, 55, 0
11, 316200, Note_on_c, 6, 57, 64
11, 316316, Note_on_c, 6, 57, 0
11, 316320, Note_on_c, 6, 55, 64
11, 316436, Note_on_c, 6, 55, 0
11, 316440, Note_on_c, 6, 54, 64
11, 316556, Note_on_c, 6, 54, 0
11, 316560, Note_on_c, 6, 52, 64
11, 316676, Note_on_c, 6, 52, 0
11, 316680, Note_on_c, 6, 50, 64
11, 316796, Note_on_c, 6, 50, 0
11, 316800, Note_on_c, 6, 49, 64
11, 316916, Note_on_c, 6, 49, 0
11, 316920, Note_on_c, 6, 47, 64
11, 317036, Note_on_c, 6, 47, 0
11, 317040, Note_on_c, 6, 49, 64
11, 317156, Note_on_c, 6, 49, 0
11, 317160, Note_on_c, 6, 50, 64
11, 317276, Note_on_c, 6, 50, 0
11, 317280, Note_on_c, 6, 52, 64
11, 317396, Note_on_c, 6, 52, 0
11, 317400, Note_on_c, 6, 49, 64
11, 317516, Note_on_c, 6, 49, 0
11, 317520, Note_on_c, 6, 54, 64
11, 317636, Note_on_c, 6, 54, 0
11, 317640, Note_on_c, 6, 55, 64
11, 317756, Note_on_c, 6, 55, 0
11, 317760, Note_on_c, 6, 54, 64
11, 317876, Note_on_c, 6, 54, 0
11, 317880, Note_on_c, 6, 52, 64
11, 317996, Note_on_c, 6, 52, 0
11, 318000, Note_on_c, 6, 50, 64
11, 318116, Note_on_c, 6, 50, 0
11, 318120, Note_on_c, 6, 49, 64
11, 318236, Note_on_c, 6, 49, 0
11, 318240, Note_on_c, 6, 47, 64
11, 318356, Note_on_c, 6, 47, 0
11, 318360, Note_on_c, 6, 45, 64
11, 318476, Note_on_c, 6, 45, 0
11, 318480, Note_on_c, 6, 47, 64
11, 318596, Note_on_c, 6, 47, 0
11, 318600, Note_on_c, 6, 49, 64
11, 318716, Note_on_c, 6, 49, 0
11, 318720, Note_on_c, 6, 50, 64
11, 318836, Note_on_c, 6, 50, 0
11, 318840, Note_on_c, 6, 47, 64
11, 318956, Note_on_c, 6, 47, 0
11, 318960, Note_on_c, 6, 52, 64
11, 319076, Note_on_c, 6, 52, 0
11, 319080, Note_on_c, 6, 54, 64
11, 319196, Note_on_c, 6, 54, 0
11, 319200, Note_on_c, 6, 52, 64
11, 319316, Note_on_c, 6, 52, 0
11, 319320, Note_on_c, 6, 50, 64
11, 319436, Note_on_c, 6, 50, 0
11, 319440, Note_on_c, 6, 49, 64
11, 319556, Note_on_c, 6, 49, 0
11, 319560, Note_on_c, 6, 47, 64
11, 319676, Note_on_c, 6, 47, 0
11, 319680, Note_on_c, 6, 45, 64
11, 319916, Note_on_c, 6, 45, 0
11, 319920, Note_on_c, 6, 45, 64
11, 320156, Note_on_c, 6, 45, 0
11, 320160, Note_on_c, 6, 45, 64
11, 320396, Note_on_c, 6, 45, 0
11, 320400, Note_on_c, 6, 45, 64
11, 320636, Note_on_c, 6, 45, 0
11, 320640, Note_on_c, 6, 45, 64
11, 320876, Note_on_c, 6, 45, 0
11, 320880, Note_on_c, 6, 45, 64
11, 321116, Note_on_c, 6, 45, 0
11, 321120, Note_on_c, 6, 45, 64
11, 321356, Note_on_c, 6, 45, 0
11, 321360, Note_on_c, 6, 45, 64
11, 321596, Note_on_c, 6, 45, 0
11, 321600, Note_on_c, 6, 45, 64
11, 321836, Note_on_c, 6, 45, 0
11, 321840, Note_on_c, 6, 45, 64
11, 322076, Note_on_c, 6, 45, 0
11, 322080, Note_on_c, 6, 45, 64
11, 322316, Note_on_c, 6, 45, 0
11, 322320, Note_on_c, 6, 45, 64
11, 322556, Note_on_c, 6, 45, 0
11, 322560, Note_on_c, 6, 45, 64
11, 322796, Note_on_c, 6, 45, 0
11, 322800, Note_on_c, 6, 45, 64
11, 323036, Note_on_c, 6, 45, 0
11, 323040, Note_on_c, 6, 45, 64
11, 323276, Note_on_c, 6, 45, 0
11, 323280, Note_on_c, 6, 45, 64
11, 323516, Note_on_c, 6, 45, 0
11, 323520, Note_on_c, 6, 45, 64
11, 323756, Note_on_c, 6, 45, 0
11, 323760, Note_on_c, 6, 45, 64
11, 323996, Note_on_c, 6, 45, 0
11, 324000, Note_on_c, 6, 45, 64
11, 324236, Note_on_c, 6, 45, 0
11, 324240, Note_on_c, 6, 45, 64
11, 324476, Note_on_c, 6, 45, 0
11, 324480, Note_on_c, 6, 45, 64
11, 324716, Note_on_c, 6, 45, 0
11, 324720, Note_on_c, 6, 45, 64
11, 324956, Note_on_c, 6, 45, 0
11, 324960, Note_on_c, 6, 45, 64
11, 325196, Note_on_c, 6, 45, 0
11, 325200, Note_on_c, 6, 45, 64
11, 325436, Note_on_c, 6, 45, 0
11, 325440, Note_on_c, 6, 45, 64
11, 325676, Note_on_c, 6, 45, 0
11, 325680, Note_on_c, 6, 49, 64
11, 325916, Note_on_c, 6, 49, 0
11, 325920, Note_on_c, 6, 52, 64
11, 326156, Note_on_c, 6, 52, 0
11, 326160, Note_on_c, 6, 49, 64
11, 326396, Note_on_c, 6, 49, 0
11, 326400, Note_on_c, 6, 52, 64
11, 326636, Note_on_c, 6, 52, 0
11, 326640, Note_on_c, 6, 57, 64
11, 326876, Note_on_c, 6, 57, 0
11, 326880, Note_on_c, 6, 50, 64
11, 327116, Note_on_c, 6, 50, 0
11, 327120, Note_on_c, 6, 54, 64
11, 327356, Note_on_c, 6, 54, 0
11, 327360, Note_on_c, 6, 57, 64
11, 327596, Note_on_c, 6, 57, 0
11, 327600, Note_on_c, 6, 54, 64
11, 327836, Note_on_c, 6, 54, 0
11, 327840, Note_on_c, 6, 57, 64
11, 328076, Note_on_c, 6, 57, 0
11, 328080, Note_on_c, 6, 62, 64
11, 328316, Note_on_c, 6, 62, 0
11, 328320, Note_on_c, 6, 43, 64
11, 328796, Note_on_c, 6, 43, 0
11, 329760, Note_on_c, 6, 55, 64
11, 330236, Note_on_c, 6, 55, 0
11, 331200, Note_on_c, 6, 54, 64
11, 331436, Note_on_c, 6, 54, 0
11, 331440, Note_on_c, 6, 52, 64
11, 331676, Note_on_c, 6, 52, 0
11, 331680, Note_on_c, 6, 50, 64
11, 331916, Note_on_c, 6, 50, 0
11, 331920, Note_on_c, 6, 57, 64
11, 332396, Note_on_c, 6, 57, 0
11, 332400, Note_on_c, 6, 45, 64
11, 332636, Note_on_c, 6, 45, 0
11, 332640, Note_on_c, 6, 38, 64
11, 334076, Note_on_c, 6, 38, 0
11, 334080, Note_on_c, 6, 50, 64
11, 334196, Note_on_c, 6, 50, 0
11, 334200, Note_on_c, 6, 49, 64
11, 334316, Note_on_c, 6, 49, 0
11, 334320, Note_on_c, 6, 50, 64
11, 334436, Note_on_c, 6, 50, 0
11, 334440, Note_on_c, 6, 52, 64
11, 334556, Note_on_c, 6, 52, 0
11, 334560, Note_on_c, 6, 54, 64
11, 334676, Note_on_c, 6, 54, 0
11, 334680, Note_on_c, 6, 55, 64
11, 334796, Note_on_c, 6, 55, 0
11, 334800, Note_on_c, 6, 57, 64
11, 334916, Note_on_c, 6, 57, 0
11, 334920, Note_on_c, 6, 59, 64
11, 335036, Note_on_c, 6, 59, 0
11, 335040, Note_on_c, 6, 57, 64
11, 335156, Note_on_c, 6, 57, 0
11, 335160, Note_on_c, 6, 55, 64
11, 335276, Note_on_c, 6, 55, 0
11, 335280, Note_on_c, 6, 54, 64
11, 335396, Note_on_c, 6, 54, 0
11, 335400, Note_on_c, 6, 52, 64
11, 335516, Note_on_c, 6, 52, 0
11, 335520, Note_on_c, 6, 54, 64
11, 335636, Note_on_c, 6, 54, 0
11, 335640, Note_on_c, 6, 57, 64
11, 335756, Note_on_c, 6, 57, 0
11, 335760, Note_on_c, 6, 55, 64
11, 335876, Note_on_c, 6, 55, 0
11, 335880, Note_on_c, 6, 54, 64
11, 335996, Note_on_c, 6, 54, 0
11, 336000, Note_on_c, 6, 52, 64
11, 336116, Note_on_c, 6, 52, 0
11, 336120, Note_on_c, 6, 50, 64
11, 336236, Note_on_c, 6, 50, 0
11, 336240, Note_on_c, 6, 49, 64
11, 336356, Note_on_c, 6, 49, 0
11, 336360, Note_on_c, 6, 52, 64
11, 336476, Note_on_c, 6, 52, 0
11, 336480, Note_on_c, 6, 50, 64
11, 336596, Note_on_c, 6, 50, 0
11, 336600, Note_on_c, 6, 49, 64
11, 336716, Note_on_c, 6, 49, 0
11, 336720, Note_on_c, 6, 47, 64
11, 336836, Note_on_c, 6, 47, 0
11, 336840, Note_on_c, 6, 45, 64
11, 336956, Note_on_c, 6, 45, 0
11, 336960, Note_on_c, 6, 52, 64
11, 337196, Note_on_c, 6, 52, 0
11, 337200, Note_on_c, 6, 55, 64
11, 337436, Note_on_c, 6, 55, 0
11, 337440, Note_on_c, 6, 59, 64
11, 337676, Note_on_c, 6, 59, 0
11, 337680, Note_on_c, 6, 51, 64
11, 337916, Note_on_c, 6, 51, 0
11, 337920, Note_on_c, 6, 54, 64
11, 338156, Note_on_c, 6, 54, 0
11, 338160, Note_on_c, 6, 59, 64
11, 338396, Note_on_c, 6, 59, 0
11, 338400, Note_on_c, 6, 52, 64
11, 338636, Note_on_c, 6, 52, 0
11, 338640, Note_on_c, 6, 55, 64
11, 338876, Note_on_c, 6, 55, 0
11, 338880, Note_on_c, 6, 59, 64
11, 339116, Note_on_c, 6, 59, 0
11, 339120, Note_on_c, 6, 47, 64
11, 339356, Note_on_c, 6, 47, 0
11, 339360, Note_on_c, 6, 54, 64
11, 339596, Note_on_c, 6, 54, 0
11, 339600, Note_on_c, 6, 59, 64
11, 339836, Note_on_c, 6, 59, 0
11, 339840, Note_on_c, 6, 43, 64
11, 340316, Note_on_c, 6, 43, 0
11, 340560, Note_on_c, 6, 45, 64
11, 341036, Note_on_c, 6, 45, 0
11, 341280, Note_on_c, 6, 47, 64
11, 341756, Note_on_c, 6, 47, 0
11, 342000, Note_on_c, 6, 48, 64
11, 342476, Note_on_c, 6, 48, 0
11, 342720, Note_on_c, 6, 43, 64
11, 343196, Note_on_c, 6, 43, 0
11, 343440, Note_on_c, 6, 45, 64
11, 343916, Note_on_c, 6, 45, 0
11, 344160, Note_on_c, 6, 47, 64
11, 344396, Note_on_c, 6, 47, 0
11, 344400, Note_on_c, 6, 45, 64
11, 344636, Note_on_c, 6, 45, 0
11, 344640, Note_on_c, 6, 47, 64
11, 344876, Note_on_c, 6, 47, 0
11, 344880, Note_on_c, 6, 40, 64
11, 345116, Note_on_c, 6, 40, 0
11, 345120, Note_on_c, 6, 43, 64
11, 345356, Note_on_c, 6, 43, 0
11, 345360, Note_on_c, 6, 47, 64
11, 345596, Note_on_c, 6, 47, 0
11, 345600, Note_on_c, 6, 52, 64
11, 346076, Note_on_c, 6, 52, 0
11, 349920, Note_on_c, 6, 52, 64
11, 350036, Note_on_c, 6, 52, 0
11, 350040, Note_on_c, 6, 51, 64
11, 350156, Note_on_c, 6, 51, 0
11, 350160, Note_on_c, 6, 52, 64
11, 350276, Note_on_c, 6, 52, 0
11, 350280, Note_on_c, 6, 54, 64
11, 350396, Note_on_c, 6, 54, 0
11, 350400, Note_on_c, 6, 55, 64
11, 350516, Note_on_c, 6, 55, 0
11, 350520, Note_on_c, 6, 57, 64
11, 350636, Note_on_c, 6, 57, 0
11, 350640, Note_on_c, 6, 59, 64
11, 350756, Note_on_c, 6, 59, 0
11, 350760, Note_on_c, 6, 60, 64
11, 350876, Note_on_c, 6, 60, 0
11, 350880, Note_on_c, 6, 59, 64
11, 350996, Note_on_c, 6, 59, 0
11, 351000, Note_on_c, 6, 57, 64
11, 351116, Note_on_c, 6, 57, 0
11, 351120, Note_on_c, 6, 55, 64
11, 351236, Note_on_c, 6, 55, 0
11, 351240, Note_on_c, 6, 54, 64
11, 351356, Note_on_c, 6, 54, 0
11, 351360, Note_on_c, 6, 52, 64
11, 351476, Note_on_c, 6, 52, 0
11, 351480, Note_on_c, 6, 51, 64
11, 351596, Note_on_c, 6, 51, 0
11, 351600, Note_on_c, 6, 52, 64
11, 351716, Note_on_c, 6, 52, 0
11, 351720, Note_on_c, 6, 54, 64
11, 351836, Note_on_c, 6, 54, 0
11, 351840, Note_on_c, 6, 55, 64
11, 351956, Note_on_c, 6, 55, 0
11, 351960, Note_on_c, 6, 52, 64
11, 352076, Note_on_c, 6, 52, 0
11, 352080, Note_on_c, 6, 57, 64
11, 352196, Note_on_c, 6, 57, 0
11, 352200, Note_on_c, 6, 59, 64
11, 352316, Note_on_c, 6, 59, 0
11, 352320, Note_on_c, 6, 57, 64
11, 352436, Note_on_c, 6, 57, 0
11, 352440, Note_on_c, 6, 55, 64
11, 352556, Note_on_c, 6, 55, 0
11, 352560, Note_on_c, 6, 54, 64
11, 352676, Note_on_c, 6, 54, 0
11, 352680, Note_on_c, 6, 52, 64
11, 352796, Note_on_c, 6, 52, 0
11, 352800, Note_on_c, 6, 50, 64
11, 352916, Note_on_c, 6, 50, 0
11, 352920, Note_on_c, 6, 49, 64
11, 353036, Note_on_c, 6, 49, 0
11, 353040, Note_on_c, 6, 50, 64
11, 353156, Note_on_c, 6, 50, 0
11, 353160, Note_on_c, 6, 52, 64
11, 353276, Note_on_c, 6, 52, 0
11, 353280, Note_on_c, 6, 54, 64
11, 353396, Note_on_c, 6, 54, 0
11, 353400, Note_on_c, 6, 50, 64
11, 353516, Note_on_c, 6, 50, 0
11, 353520, Note_on_c, 6, 55, 64
11, 353636, Note_on_c, 6, 55, 0
11, 353640, Note_on_c, 6, 57, 64
11, 353756, Note_on_c, 6, 57, 0
11, 353760, Note_on_c, 6, 55, 64
11, 353876, Note_on_c, 6, 55, 0
11, 353880, Note_on_c, 6, 54, 64
11, 353996, Note_on_c, 6, 54, 0
11, 354000, Note_on_c, 6, 52, 64
11, 354116, Note_on_c, 6, 52, 0
11, 354120, Note_on_c, 6, 50, 64
11, 354236, Note_on_c, 6, 50, 0
11, 354240, Note_on_c, 6, 49, 64
11, 354356, Note_on_c, 6, 49, 0
11, 354360, Note_on_c, 6, 47, 64
11, 354476, Note_on_c, 6, 47, 0
11, 354480, Note_on_c, 6, 49, 64
11, 354596, Note_on_c, 6, 49, 0
11, 354600, Note_on_c, 6, 50, 64
11, 354716, Note_on_c, 6, 50, 0
11, 354720, Note_on_c, 6, 52, 64
11, 354836, Note_on_c, 6, 52, 0
11, 354840, Note_on_c, 6, 49, 64
11, 354956, Note_on_c, 6, 49, 0
11, 354960, Note_on_c, 6, 54, 64
11, 355076, Note_on_c, 6, 54, 0
11, 355080, Note_on_c, 6, 55, 64
11, 355196, Note_on_c, 6, 55, 0
11, 355200, Note_on_c, 6, 54, 64
11, 355316, Note_on_c, 6, 54, 0
11, 355320, Note_on_c, 6, 52, 64
11, 355436, Note_on_c, 6, 52, 0
11, 355440, Note_on_c, 6, 50, 64
11, 355556, Note_on_c, 6, 50, 0
11, 355560, Note_on_c, 6, 49, 64
11, 355676, Note_on_c, 6, 49, 0
11, 355680, Note_on_c, 6, 47, 64
11, 356156, Note_on_c, 6, 47, 0
11, 356400, Note_on_c, 6, 42, 64
11, 356876, Note_on_c, 6, 42, 0
11, 357120, Note_on_c, 6, 47, 64
11, 357596, Note_on_c, 6, 47, 0
11, 357840, Note_on_c, 6, 54, 64
11, 358316, Note_on_c, 6, 54, 0
11, 358560, Note_on_c, 6, 47, 64
11, 358796, Note_on_c, 6, 47, 0
11, 358800, Note_on_c, 6, 50, 64
11, 359036, Note_on_c, 6, 50, 0
11, 359040, Note_on_c, 6, 54, 64
11, 359276, Note_on_c, 6, 54, 0
11, 359280, Note_on_c, 6, 46, 64
11, 359516, Note_on_c, 6, 46, 0
11, 359520, Note_on_c, 6, 49, 64
11, 359756, Note_on_c, 6, 49, 0
11, 359760, Note_on_c, 6, 54, 64
11, 359996, Note_on_c, 6, 54, 0
11, 360000, Note_on_c, 6, 47, 64
11, 360116, Note_on_c, 6, 47, 0
11, 360120, Note_on_c, 6, 46, 64
11, 360236, Note_on_c, 6, 46, 0
11, 360240, Note_on_c, 6, 47, 64
11, 360356, Note_on_c, 6, 47, 0
11, 360360, Note_on_c, 6, 49, 64
11, 360476, Note_on_c, 6, 49, 0
11, 360480, Note_on_c, 6, 50, 64
11, 360596, Note_on_c, 6, 50, 0
11, 360600, Note_on_c, 6, 52, 64
11, 360716, Note_on_c, 6, 52, 0
11, 360720, Note_on_c, 6, 54, 64
11, 360836, Note_on_c, 6, 54, 0
11, 360840, Note_on_c, 6, 55, 64
11, 360956, Note_on_c, 6, 55, 0
11, 360960, Note_on_c, 6, 54, 64
11, 361076, Note_on_c, 6, 54, 0
11, 361080, Note_on_c, 6, 52, 64
11, 361196, Note_on_c, 6, 52, 0
11, 361200, Note_on_c, 6, 50, 64
11, 361316, Note_on_c, 6, 50, 0
11, 361320, Note_on_c, 6, 49, 64
11, 361436, Note_on_c, 6, 49, 0
11, 361440, Note_on_c, 6, 47, 64
11, 361556, Note_on_c, 6, 47, 0
11, 361560, Note_on_c, 6, 46, 64
11, 361676, Note_on_c, 6, 46, 0
11, 361680, Note_on_c, 6, 47, 64
11, 361796, Note_on_c, 6, 47, 0
11, 361800, Note_on_c, 6, 49, 64
11, 361916, Note_on_c, 6, 49, 0
11, 361920, Note_on_c, 6, 50, 64
11, 362036, Note_on_c, 6, 50, 0
11, 362040, Note_on_c, 6, 47, 64
11, 362156, Note_on_c, 6, 47, 0
11, 362160, Note_on_c, 6, 52, 64
11, 362276, Note_on_c, 6, 52, 0
11, 362280, Note_on_c, 6, 54, 64
11, 362396, Note_on_c, 6, 54, 0
11, 362400, Note_on_c, 6, 52, 64
11, 362516, Note_on_c, 6, 52, 0
11, 362520, Note_on_c, 6, 50, 64
11, 362636, Note_on_c, 6, 50, 0
11, 362640, Note_on_c, 6, 49, 64
11, 362756, Note_on_c, 6, 49, 0
11, 362760, Note_on_c, 6, 47, 64
11, 362876, Note_on_c, 6, 47, 0
11, 362880, Note_on_c, 6, 45, 64
11, 362996, Note_on_c, 6, 45, 0
11, 363000, Note_on_c, 6, 43, 64
11, 363116, Note_on_c, 6, 43, 0
11, 363120, Note_on_c, 6, 45, 64
11, 363236, Note_on_c, 6, 45, 0
11, 363240, Note_on_c, 6, 47, 64
11, 363356, Note_on_c, 6, 47, 0
11, 363360, Note_on_c, 6, 49, 64
11, 363476, Note_on_c, 6, 49, 0
11, 363480, Note_on_c, 6, 45, 64
11, 363596, Note_on_c, 6, 45, 0
11, 363600, Note_on_c, 6, 50, 64
11, 363716, Note_on_c, 6, 50, 0
11, 363720, Note_on_c, 6, 52, 64
11, 363836, Note_on_c, 6, 52, 0
11, 363840, Note_on_c, 6, 50, 64
11, 363956, Note_on_c, 6, 50, 0
11, 363960, Note_on_c, 6, 49, 64
11, 364076, Note_on_c, 6, 49, 0
11, 364080, Note_on_c, 6, 47, 64
11, 364196, Note_on_c, 6, 47, 0
11, 364200, Note_on_c, 6, 45, 64
11, 364316, Note_on_c, 6, 45, 0
11, 364320, Note_on_c, 6, 43, 64
11, 364436, Note_on_c, 6, 43, 0
11, 364440, Note_on_c, 6, 42, 64
11, 364556, Note_on_c, 6, 42, 0
11, 364560, Note_on_c, 6, 43, 64
11, 364676, Note_on_c, 6, 43, 0
11, 364680, Note_on_c, 6, 45, 64
11, 364796, Note_on_c, 6, 45, 0
11, 364800, Note_on_c, 6, 47, 64
11, 364916, Note_on_c, 6, 47, 0
11, 364920, Note_on_c, 6, 43, 64
11, 365036, Note_on_c, 6, 43, 0
11, 365040, Note_on_c, 6, 49, 64
11, 365156, Note_on_c, 6, 49, 0
11, 365160, Note_on_c, 6, 50, 64
11, 365276, Note_on_c, 6, 50, 0
11, 365280, Note_on_c, 6, 49, 64
11, 365396, Note_on_c, 6, 49, 0
11, 365400, Note_on_c, 6, 47, 64
11, 365516, Note_on_c, 6, 47, 0
11, 365520, Note_on_c, 6, 46, 64
11, 365636, Note_on_c, 6, 46, 0
11, 365640, Note_on_c, 6, 44, 64
11, 365756, Note_on_c, 6, 44, 0
11, 365760, Note_on_c, 6, 42, 64
11, 365996, Note_on_c, 6, 42, 0
11, 366000, Note_on_c, 6, 42, 64
11, 366236, Note_on_c, 6, 42, 0
11, 366240, Note_on_c, 6, 42, 64
11, 366476, Note_on_c, 6, 42, 0
11, 366480, Note_on_c, 6, 42, 64
11, 366716, Note_on_c, 6, 42, 0
11, 366720, Note_on_c, 6, 42, 64
11, 366956, Note_on_c, 6, 42, 0
11, 366960, Note_on_c, 6, 42, 64
11, 367196, Note_on_c, 6, 42, 0
11, 367200, Note_on_c, 6, 42, 64
11, 367436, Note_on_c, 6, 42, 0
11, 367440, Note_on_c, 6, 42, 64
11, 367676, Note_on_c, 6, 42, 0
11, 367680, Note_on_c, 6, 42, 64
11, 367916, Note_on_c, 6, 42, 0
11, 367920, Note_on_c, 6, 42, 64
11, 368156, Note_on_c, 6, 42, 0
11, 368160, Note_on_c, 6, 42, 64
11, 368396, Note_on_c, 6, 42, 0
11, 368400, Note_on_c, 6, 42, 64
11, 368636, Note_on_c, 6, 42, 0
11, 368640, Note_on_c, 6, 42, 64
11, 368876, Note_on_c, 6, 42, 0
11, 368880, Note_on_c, 6, 42, 64
11, 369116, Note_on_c, 6, 42, 0
11, 369120, Note_on_c, 6, 42, 64
11, 369356, Note_on_c, 6, 42, 0
11, 369360, Note_on_c, 6, 42, 64
11, 369596, Note_on_c, 6, 42, 0
11, 369600, Note_on_c, 6, 42, 64
11, 369836, Note_on_c, 6, 42, 0
11, 369840, Note_on_c, 6, 42, 64
11, 370076, Note_on_c, 6, 42, 0
11, 370080, Note_on_c, 6, 42, 64
11, 370316, Note_on_c, 6, 42, 0
11, 370320, Note_on_c, 6, 42, 64
11, 370556, Note_on_c, 6, 42, 0
11, 370560, Note_on_c, 6, 42, 64
11, 370796, Note_on_c, 6, 42, 0
11, 370800, Note_on_c, 6, 42, 64
11, 371036, Note_on_c, 6, 42, 0
11, 371040, Note_on_c, 6, 42, 64
11, 371276, Note_on_c, 6, 42, 0
11, 371280, Note_on_c, 6, 42, 64
11, 371516, Note_on_c, 6, 42, 0
11, 371520, Note_on_c, 6, 42, 64
11, 371756, Note_on_c, 6, 42, 0
11, 371760, Note_on_c, 6, 46, 64
11, 371996, Note_on_c, 6, 46, 0
11, 372000, Note_on_c, 6, 49, 64
11, 372236, Note_on_c, 6, 49, 0
11, 372240, Note_on_c, 6, 46, 64
11, 372476, Note_on_c, 6, 46, 0
11, 372480, Note_on_c, 6, 49, 64
11, 372716, Note_on_c, 6, 49, 0
11, 372720, Note_on_c, 6, 54, 64
11, 372956, Note_on_c, 6, 54, 0
11, 372960, Note_on_c, 6, 47, 64
11, 373196, Note_on_c, 6, 47, 0
11, 373200, Note_on_c, 6, 51, 64
11, 373436, Note_on_c, 6, 51, 0
11, 373440, Note_on_c, 6, 54, 64
11, 373676, Note_on_c, 6, 54, 0
11, 373680, Note_on_c, 6, 51, 64
11, 373916, Note_on_c, 6, 51, 0
11, 373920, Note_on_c, 6, 54, 64
11, 374156, Note_on_c, 6, 54, 0
11, 374160, Note_on_c, 6, 59, 64
11, 374396, Note_on_c, 6, 59, 0
11, 374400, Note_on_c, 6, 40, 64
11, 374876, Note_on_c, 6, 40, 0
11, 375840, Note_on_c, 6, 52, 64
11, 376316, Note_on_c, 6, 52, 0
11, 377280, Note_on_c, 6, 50, 64
11, 377516, Note_on_c, 6, 50, 0
11, 377520, Note_on_c, 6, 49, 64
11, 377756, Note_on_c, 6, 49, 0
11, 377760, Note_on_c, 6, 47, 64
11, 377996, Note_on_c, 6, 47, 0
11, 378000, Note_on_c, 6, 54, 64
11, 378476, Note_on_c, 6, 54, 0
11, 378480, Note_on_c, 6, 42, 64
11, 378716, Note_on_c, 6, 42, 0
11, 378720, Note_on_c, 6, 47, 64
11, 378956, Note_on_c, 6, 47, 0
11, 378960, Note_on_c, 6, 50, 64
11, 379196, Note_on_c, 6, 50, 0
11, 379200, Note_on_c, 6, 54, 64
11, 379436, Note_on_c, 6, 54, 0
11, 379440, Note_on_c, 6, 59, 64
11, 379676, Note_on_c, 6, 59, 0
11, 379680, Note_on_c, 6, 57, 64
11, 379796, Note_on_c, 6, 57, 0
11, 379800, Note_on_c, 6, 55, 64
11, 379916, Note_on_c, 6, 55, 0
11, 379920, Note_on_c, 6, 54, 64
11, 380036, Note_on_c, 6, 54, 0
11, 380040, Note_on_c, 6, 52, 64
11, 380156, Note_on_c, 6, 52, 0
11, 380160, Note_on_c, 6, 51, 64
11, 380396, Note_on_c, 6, 51, 0
11, 380400, Note_on_c, 6, 54, 64
11, 380636, Note_on_c, 6, 54, 0
11, 380640, Note_on_c, 6, 59, 64
11, 380876, Note_on_c, 6, 59, 0
11, 380880, Note_on_c, 6, 47, 64
11, 381116, Note_on_c, 6, 47, 0
11, 381120, Note_on_c, 6, 54, 64
11, 381356, Note_on_c, 6, 54, 0
11, 381360, Note_on_c, 6, 59, 64
11, 381596, Note_on_c, 6, 59, 0
11, 381600, Note_on_c, 6, 52, 64
11, 381836, Note_on_c, 6, 52, 0
11, 381840, Note_on_c, 6, 55, 64
11, 382076, Note_on_c, 6, 55, 0
11, 382080, Note_on_c, 6, 59, 64
11, 382316, Note_on_c, 6, 59, 0
11, 382320, Note_on_c, 6, 64, 64
11, 382556, Note_on_c, 6, 64, 0
11, 382560, Note_on_c, 6, 62, 64
11, 382676, Note_on_c, 6, 62, 0
11, 382680, Note_on_c, 6, 60, 64
11, 382796, Note_on_c, 6, 60, 0
11, 382800, Note_on_c, 6, 59, 64
11, 382916, Note_on_c, 6, 59, 0
11, 382920, Note_on_c, 6, 57, 64
11, 383036, Note_on_c, 6, 57, 0
11, 383040, Note_on_c, 6, 56, 64
11, 383276, Note_on_c, 6, 56, 0
11, 383280, Note_on_c, 6, 59, 64
11, 383516, Note_on_c, 6, 59, 0
11, 383520, Note_on_c, 6, 64, 64
11, 383756, Note_on_c, 6, 64, 0
11, 383760, Note_on_c, 6, 52, 64
11, 383996, Note_on_c, 6, 52, 0
11, 384000, Note_on_c, 6, 59, 64
11, 384236, Note_on_c, 6, 59, 0
11, 384240, Note_on_c, 6, 64, 64
11, 384476, Note_on_c, 6, 64, 0
11, 384480, Note_on_c, 6, 45, 64
11, 384716, Note_on_c, 6, 45, 0
11, 384720, Note_on_c, 6, 48, 64
11, 384956, Note_on_c, 6, 48, 0
11, 384960, Note_on_c, 6, 52, 64
11, 385196, Note_on_c, 6, 52, 0
11, 385200, Note_on_c, 6, 57, 64
11, 385316, Note_on_c, 6, 57, 0
11, 385320, Note_on_c, 6, 59, 64
11, 385436, Note_on_c, 6, 59, 0
11, 385440, Note_on_c, 6, 57, 64
11, 385556, Note_on_c, 6, 57, 0
11, 385560, Note_on_c, 6, 55, 64
11, 385676, Note_on_c, 6, 55, 0
11, 385680, Note_on_c, 6, 53, 64
11, 385796, Note_on_c, 6, 53, 0
11, 385800, Note_on_c, 6, 52, 64
11, 385916, Note_on_c, 6, 52, 0
11, 385920, Note_on_c, 6, 50, 64
11, 386156, Note_on_c, 6, 50, 0
11, 386160, Note_on_c, 6, 57, 64
11, 386396, Note_on_c, 6, 57, 0
11, 386400, Note_on_c, 6, 62, 64
11, 386636, Note_on_c, 6, 62, 0
11, 386640, Note_on_c, 6, 55, 64
11, 386876, Note_on_c, 6, 55, 0
11, 386880, Note_on_c, 6, 50, 64
11, 387116, Note_on_c, 6, 50, 0
11, 387120, Note_on_c, 6, 43, 64
11, 387356, Note_on_c, 6, 43, 0
11, 387360, Note_on_c, 6, 48, 64
11, 387596, Note_on_c, 6, 48, 0
11, 387600, Note_on_c, 6, 55, 64
11, 387836, Note_on_c, 6, 55, 0
11, 387840, Note_on_c, 6, 60, 64
11, 388076, Note_on_c, 6, 60, 0
11, 388080, Note_on_c, 6, 53, 64
11, 388316, Note_on_c, 6, 53, 0
11, 388320, Note_on_c, 6, 48, 64
11, 388556, Note_on_c, 6, 48, 0
11, 388560, Note_on_c, 6, 41, 64
11, 388796, Note_on_c, 6, 41, 0
11, 388800, Note_on_c, 6, 53, 64
11, 389276, Note_on_c, 6, 53, 0
11, 389520, Note_on_c, 6, 52, 64
11, 389996, Note_on_c, 6, 52, 0
11, 390240, Note_on_c, 6, 50, 64
11, 390716, Note_on_c, 6, 50, 0
11, 390960, Note_on_c, 6, 48, 64
11, 391436, Note_on_c, 6, 48, 0
11, 391680, Note_on_c, 6, 47, 64
11, 391916, Note_on_c, 6, 47, 0
11, 391920, Note_on_c, 6, 50, 64
11, 392156, Note_on_c, 6, 50, 0
11, 392160, Note_on_c, 6, 55, 64
11, 392396, Note_on_c, 6, 55, 0
11, 392400, Note_on_c, 6, 48, 64
11, 392636, Note_on_c, 6, 48, 0
11, 392640, Note_on_c, 6, 52, 64
11, 392876, Note_on_c, 6, 52, 0
11, 392880, Note_on_c, 6, 55, 64
11, 393116, Note_on_c, 6, 55, 0
11, 393120, Note_on_c, 6, 47, 64
11, 393236, Note_on_c, 6, 47, 0
11, 393240, Note_on_c, 6, 50, 64
11, 393356, Note_on_c, 6, 50, 0
11, 393360, Note_on_c, 6, 43, 64
11, 393476, Note_on_c, 6, 43, 0
11, 393480, Note_on_c, 6, 50, 64
11, 393596, Note_on_c, 6, 50, 0
11, 393600, Note_on_c, 6, 47, 64
11, 393716, Note_on_c, 6, 47, 0
11, 393720, Note_on_c, 6, 50, 64
11, 393836, Note_on_c, 6, 50, 0
11, 393840, Note_on_c, 6, 48, 64
11, 393956, Note_on_c, 6, 48, 0
11, 393960, Note_on_c, 6, 52, 64
11, 394076, Note_on_c, 6, 52, 0
11, 394080, Note_on_c, 6, 43, 64
11, 394196, Note_on_c, 6, 43, 0
11, 394200, Note_on_c, 6, 52, 64
11, 394316, Note_on_c, 6, 52, 0
11, 394320, Note_on_c, 6, 48, 64
11, 394436, Note_on_c, 6, 48, 0
11, 394440, Note_on_c, 6, 52, 64
11, 394556, Note_on_c, 6, 52, 0
11, 394560, Note_on_c, 6, 42, 64
11, 394796, Note_on_c, 6, 42, 0
11, 394800, Note_on_c, 6, 42, 64
11, 395036, Note_on_c, 6, 42, 0
11, 395040, Note_on_c, 6, 42, 64
11, 395276, Note_on_c, 6, 42, 0
11, 395280, Note_on_c, 6, 42, 64
11, 395516, Note_on_c, 6, 42, 0
11, 395520, Note_on_c, 6, 42, 64
11, 395756, Note_on_c, 6, 42, 0
11, 395760, Note_on_c, 6, 42, 64
11, 395996, Note_on_c, 6, 42, 0
11, 396000, Note_on_c, 6, 41, 64
11, 396236, Note_on_c, 6, 41, 0
11, 396240, Note_on_c, 6, 41, 64
11, 396476, Note_on_c, 6, 41, 0
11, 396480, Note_on_c, 6, 41, 64
11, 396716, Note_on_c, 6, 41, 0
11, 396720, Note_on_c, 6, 41, 64
11, 396956, Note_on_c, 6, 41, 0
11, 396960, Note_on_c, 6, 41, 64
11, 397196, Note_on_c, 6, 41, 0
11, 397200, Note_on_c, 6, 41, 64
11, 397436, Note_on_c, 6, 41, 0
11, 397440, Note_on_c, 6, 40, 64
11, 397916, Note_on_c, 6, 40, 0
11, 398160, Note_on_c, 6, 41, 64
11, 398636, Note_on_c, 6, 41, 0
11, 398880, Note_on_c, 6, 43, 64
11, 399356, Note_on_c, 6, 43, 0
11, 399600, Note_on_c, 6, 45, 64
11, 400076, Note_on_c, 6, 45, 0
11, 400320, Note_on_c, 6, 40, 64
11, 400796, Note_on_c, 6, 40, 0
11, 401040, Note_on_c, 6, 41, 64
11, 401516, Note_on_c, 6, 41, 0
11, 401760, Note_on_c, 6, 43, 64
11, 401996, Note_on_c, 6, 43, 0
11, 402000, Note_on_c, 6, 41, 64
11, 402236, Note_on_c, 6, 41, 0
11, 402240, Note_on_c, 6, 43, 64
11, 402476, Note_on_c, 6, 43, 0
11, 402480, Note_on_c, 6, 36, 64
11, 402956, Note_on_c, 6, 36, 0
11, 402960, Note_on_c, 6, 38, 64
11, 403196, Note_on_c, 6, 38, 0
11, 403200, Note_on_c, 6, 40, 64
11, 403436, Note_on_c, 6, 40, 0
11, 403440, Note_on_c, 6, 38, 64
11, 403676, Note_on_c, 6, 38, 0
11, 403680, Note_on_c, 6, 36, 64
11, 403916, Note_on_c, 6, 36, 0
11, 403920, Note_on_c, 6, 43, 64
11, 404156, Note_on_c, 6, 43, 0
11, 404160, Note_on_c, 6, 45, 64
11, 404396, Note_on_c, 6, 45, 0
11, 404400, Note_on_c, 6, 47, 64
11, 404636, Note_on_c, 6, 47, 0
11, 404640, Note_on_c, 6, 48, 64
11, 405116, Note_on_c, 6, 48, 0
11, 405360, Note_on_c, 6, 55, 64
11, 405836, Note_on_c, 6, 55, 0
11, 406080, Note_on_c, 6, 48, 64
11, 406556, Note_on_c, 6, 48, 0
11, 406800, Note_on_c, 6, 43, 64
11, 407276, Note_on_c, 6, 43, 0
11, 407520, Note_on_c, 6, 48, 64
11, 407636, Note_on_c, 6, 48, 0
11, 407640, Note_on_c, 6, 47, 64
11, 407756, Note_on_c, 6, 47, 0
11, 407760, Note_on_c, 6, 48, 64
11, 407876, Note_on_c, 6, 48, 0
11, 407880, Note_on_c, 6, 50, 64
11, 407996, Note_on_c, 6, 50, 0
11, 408000, Note_on_c, 6, 52, 64
11, 408116, Note_on_c, 6, 52, 0
11, 408120, Note_on_c, 6, 53, 64
11, 408236, Note_on_c, 6, 53, 0
11, 408240, Note_on_c, 6, 55, 64
11, 408356, Note_on_c, 6, 55, 0
11, 408360, Note_on_c, 6, 57, 64
11, 408476, Note_on_c, 6, 57, 0
11, 408480, Note_on_c, 6, 55, 64
11, 408596, Note_on_c, 6, 55, 0
11, 408600, Note_on_c, 6, 53, 64
11, 408716, Note_on_c, 6, 53, 0
11, 408720, Note_on_c, 6, 52, 64
11, 408836, Note_on_c, 6, 52, 0
11, 408840, Note_on_c, 6, 50, 64
11, 408956, Note_on_c, 6, 50, 0
11, 408960, Note_on_c, 6, 48, 64
11, 409076, Note_on_c, 6, 48, 0
11, 409080, Note_on_c, 6, 47, 64
11, 409196, Note_on_c, 6, 47, 0
11, 409200, Note_on_c, 6, 48, 64
11, 409316, Note_on_c, 6, 48, 0
11, 409320, Note_on_c, 6, 50, 64
11, 409436, Note_on_c, 6, 50, 0
11, 409440, Note_on_c, 6, 52, 64
11, 409556, Note_on_c, 6, 52, 0
11, 409560, Note_on_c, 6, 48, 64
11, 409676, Note_on_c, 6, 48, 0
11, 409680, Note_on_c, 6, 54, 64
11, 409796, Note_on_c, 6, 54, 0
11, 409800, Note_on_c, 6, 55, 64
11, 409916, Note_on_c, 6, 55, 0
11, 409920, Note_on_c, 6, 54, 64
11, 410036, Note_on_c, 6, 54, 0
11, 410040, Note_on_c, 6, 52, 64
11, 410156, Note_on_c, 6, 52, 0
11, 410160, Note_on_c, 6, 50, 64
11, 410276, Note_on_c, 6, 50, 0
11, 410280, Note_on_c, 6, 48, 64
11, 410396, Note_on_c, 6, 48, 0
11, 410400, Note_on_c, 6, 47, 64
11, 410516, Note_on_c, 6, 47, 0
11, 410520, Note_on_c, 6, 45, 64
11, 410636, Note_on_c, 6, 45, 0
11, 410640, Note_on_c, 6, 47, 64
11, 410756, Note_on_c, 6, 47, 0
11, 410760, Note_on_c, 6, 48, 64
11, 410876, Note_on_c, 6, 48, 0
11, 410880, Note_on_c, 6, 50, 64
11, 410996, Note_on_c, 6, 50, 0
11, 411000, Note_on_c, 6, 47, 64
11, 411116, Note_on_c, 6, 47, 0
11, 411120, Note_on_c, 6, 52, 64
11, 411236, Note_on_c, 6, 52, 0
11, 411240, Note_on_c, 6, 54, 64
11, 411356, Note_on_c, 6, 54, 0
11, 411360, Note_on_c, 6, 52, 64
11, 411476, Note_on_c, 6, 52, 0
11, 411480, Note_on_c, 6, 50, 64
11, 411596, Note_on_c, 6, 50, 0
11, 411600, Note_on_c, 6, 48, 64
11, 411716, Note_on_c, 6, 48, 0
11, 411720, Note_on_c, 6, 47, 64
11, 411836, Note_on_c, 6, 47, 0
11, 411840, Note_on_c, 6, 45, 64
11, 411956, Note_on_c, 6, 45, 0
11, 411960, Note_on_c, 6, 43, 64
11, 412076, Note_on_c, 6, 43, 0
11, 412080, Note_on_c, 6, 45, 64
11, 412196, Note_on_c, 6, 45, 0
11, 412200, Note_on_c, 6, 47, 64
11, 412316, Note_on_c, 6, 47, 0
11, 412320, Note_on_c, 6, 48, 64
11, 412436, Note_on_c, 6, 48, 0
11, 412440, Note_on_c, 6, 45, 64
11, 412556, Note_on_c, 6, 45, 0
11, 412560, Note_on_c, 6, 50, 64
11, 412676, Note_on_c, 6, 50, 0
11, 412680, Note_on_c, 6, 52, 64
11, 412796, Note_on_c, 6, 52, 0
11, 412800, Note_on_c, 6, 50, 64
11, 412916, Note_on_c, 6, 50, 0
11, 412920, Note_on_c, 6, 48, 64
11, 413036, Note_on_c, 6, 48, 0
11, 413040, Note_on_c, 6, 47, 64
11, 413156, Note_on_c, 6, 47, 0
11, 413160, Note_on_c, 6, 45, 64
11, 413276, Note_on_c, 6, 45, 0
11, 413280, Note_on_c, 6, 43, 64
11, 413756, Note_on_c, 6, 43, 0
11, 414000, Note_on_c, 6, 38, 64
11, 414476, Note_on_c, 6, 38, 0
11, 414720, Note_on_c, 6, 43, 64
11, 415196, Note_on_c, 6, 43, 0
11, 415440, Note_on_c, 6, 50, 64
11, 415916, Note_on_c, 6, 50, 0
11, 416160, Note_on_c, 6, 55, 64
11, 416396, Note_on_c, 6, 55, 0
11, 416400, Note_on_c, 6, 59, 64
11, 416636, Note_on_c, 6, 59, 0
11, 416640, Note_on_c, 6, 62, 64
11, 416876, Note_on_c, 6, 62, 0
11, 416880, Note_on_c, 6, 50, 64
11, 417116, Note_on_c, 6, 50, 0
11, 417120, Note_on_c, 6, 57, 64
11, 417356, Note_on_c, 6, 57, 0
11, 417360, Note_on_c, 6, 62, 64
11, 417596, Note_on_c, 6, 62, 0
11, 417600, Note_on_c, 6, 43, 64
11, 417716, Note_on_c, 6, 43, 0
11, 417720, Note_on_c, 6, 42, 64
11, 417836, Note_on_c, 6, 42, 0
11, 417840, Note_on_c, 6, 43, 64
11, 417956, Note_on_c, 6, 43, 0
11, 417960, Note_on_c, 6, 45, 64
11, 418076, Note_on_c, 6, 45, 0
11, 418080, Note_on_c, 6, 47, 64
11, 418196, Note_on_c, 6, 47, 0
11, 418200, Note_on_c, 6, 48, 64
11, 418316, Note_on_c, 6, 48, 0
11, 418320, Note_on_c, 6, 50, 64
11, 418436, Note_on_c, 6, 50, 0
11, 418440, Note_on_c, 6, 52, 64
11, 418556, Note_on_c, 6, 52, 0
11, 418560, Note_on_c, 6, 50, 64
11, 418676, Note_on_c, 6, 50, 0
11, 418680, Note_on_c, 6, 48, 64
11, 418796, Note_on_c, 6, 48, 0
11, 418800, Note_on_c, 6, 47, 64
11, 418916, Note_on_c, 6, 47, 0
11, 418920, Note_on_c, 6, 45, 64
11, 419036, Note_on_c, 6, 45, 0
11, 419040, Note_on_c, 6, 43, 64
11, 419156, Note_on_c, 6, 43, 0
11, 419160, Note_on_c, 6, 42, 64
11, 419276, Note_on_c, 6, 42, 0
11, 419280, Note_on_c, 6, 43, 64
11, 419396, Note_on_c, 6, 43, 0
11, 419400, Note_on_c, 6, 45, 64
11, 419516, Note_on_c, 6, 45, 0
11, 419520, Note_on_c, 6, 47, 64
11, 419636, Note_on_c, 6, 47, 0
11, 419640, Note_on_c, 6, 43, 64
11, 419756, Note_on_c, 6, 43, 0
11, 419760, Note_on_c, 6, 48, 64
11, 419876, Note_on_c, 6, 48, 0
11, 419880, Note_on_c, 6, 50, 64
11, 419996, Note_on_c, 6, 50, 0
11, 420000, Note_on_c, 6, 48, 64
11, 420116, Note_on_c, 6, 48, 0
11, 420120, Note_on_c, 6, 47, 64
11, 420236, Note_on_c, 6, 47, 0
11, 420240, Note_on_c, 6, 45, 64
11, 420356, Note_on_c, 6, 45, 0
11, 420360, Note_on_c, 6, 43, 64
11, 420476, Note_on_c, 6, 43, 0
11, 420480, Note_on_c, 6, 42, 64
11, 420596, Note_on_c, 6, 42, 0
11, 420600, Note_on_c, 6, 40, 64
11, 420716, Note_on_c, 6, 40, 0
11, 420720, Note_on_c, 6, 42, 64
11, 420836, Note_on_c, 6, 42, 0
11, 420840, Note_on_c, 6, 43, 64
11, 420956, Note_on_c, 6, 43, 0
11, 420960, Note_on_c, 6, 45, 64
11, 421076, Note_on_c, 6, 45, 0
11, 421080, Note_on_c, 6, 42, 64
11, 421196, Note_on_c, 6, 42, 0
11, 421200, Note_on_c, 6, 47, 64
11, 421316, Note_on_c, 6, 47, 0
11, 421320, Note_on_c, 6, 48, 64
11, 421436, Note_on_c, 6, 48, 0
11, 421440, Note_on_c, 6, 47, 64
11, 421556, Note_on_c, 6, 47, 0
11, 421560, Note_on_c, 6, 45, 64
11, 421676, Note_on_c, 6, 45, 0
11, 421680, Note_on_c, 6, 43, 64
11, 421796, Note_on_c, 6, 43, 0
11, 421800, Note_on_c, 6, 42, 64
11, 421916, Note_on_c, 6, 42, 0
11, 421920, Note_on_c, 6, 40, 64
11, 422036, Note_on_c, 6, 40, 0
11, 422040, Note_on_c, 6, 38, 64
11, 422156, Note_on_c, 6, 38, 0
11, 422160, Note_on_c, 6, 40, 64
11, 422276, Note_on_c, 6, 40, 0
11, 422280, Note_on_c, 6, 42, 64
11, 422396, Note_on_c, 6, 42, 0
11, 422400, Note_on_c, 6, 43, 64
11, 422516, Note_on_c, 6, 43, 0
11, 422520, Note_on_c, 6, 40, 64
11, 422636, Note_on_c, 6, 40, 0
11, 422640, Note_on_c, 6, 45, 64
11, 422756, Note_on_c, 6, 45, 0
11, 422760, Note_on_c, 6, 47, 64
11, 422876, Note_on_c, 6, 47, 0
11, 422880, Note_on_c, 6, 45, 64
11, 422996, Note_on_c, 6, 45, 0
11, 423000, Note_on_c, 6, 43, 64
11, 423116, Note_on_c, 6, 43, 0
11, 423120, Note_on_c, 6, 42, 64
11, 423236, Note_on_c, 6, 42, 0
11, 423240, Note_on_c, 6, 40, 64
11, 423356, Note_on_c, 6, 40, 0
11, 423360, Note_on_c, 6, 38, 64
11, 423596, Note_on_c, 6, 38, 0
11, 423600, Note_on_c, 6, 38, 64
11, 423836, Note_on_c, 6, 38, 0
11, 423840, Note_on_c, 6, 38, 64
11, 424076, Note_on_c, 6, 38, 0
11, 424080, Note_on_c, 6, 38, 64
11, 424316, Note_on_c, 6, 38, 0
11, 424320, Note_on_c, 6, 38, 64
11, 424556, Note_on_c, 6, 38, 0
11, 424560, Note_on_c, 6, 38, 64
11, 424796, Note_on_c, 6, 38, 0
11, 424800, Note_on_c, 6, 38, 64
11, 425036, Note_on_c, 6, 38, 0
11, 425040, Note_on_c, 6, 38, 64
11, 425276, Note_on_c, 6, 38, 0
11, 425280, Note_on_c, 6, 38, 64
11, 425516, Note_on_c, 6, 38, 0
11, 425520, Note_on_c, 6, 38, 64
11, 425756, Note_on_c, 6, 38, 0
11, 425760, Note_on_c, 6, 38, 64
11, 425996, Note_on_c, 6, 38, 0
11, 426000, Note_on_c, 6, 38, 64
11, 426236, Note_on_c, 6, 38, 0
11, 426240, Note_on_c, 6, 38, 64
11, 426476, Note_on_c, 6, 38, 0
11, 426480, Note_on_c, 6, 38, 64
11, 426716, Note_on_c, 6, 38, 0
11, 426720, Note_on_c, 6, 38, 64
11, 426956, Note_on_c, 6, 38, 0
11, 426960, Note_on_c, 6, 38, 64
11, 427196, Note_on_c, 6, 38, 0
11, 427200, Note_on_c, 6, 38, 64
11, 427436, Note_on_c, 6, 38, 0
11, 427440, Note_on_c, 6, 38, 64
11, 427676, Note_on_c, 6, 38, 0
11, 427680, Note_on_c, 6, 38, 64
11, 427916, Note_on_c, 6, 38, 0
11, 427920, Note_on_c, 6, 38, 64
11, 428156, Note_on_c, 6, 38, 0
11, 428160, Note_on_c, 6, 38, 64
11, 428396, Note_on_c, 6, 38, 0
11, 428400, Note_on_c, 6, 38, 64
11, 428636, Note_on_c, 6, 38, 0
11, 428640, Note_on_c, 6, 38, 64
11, 428876, Note_on_c, 6, 38, 0
11, 428880, Note_on_c, 6, 38, 64
11, 429116, Note_on_c, 6, 38, 0
11, 429120, Note_on_c, 6, 38, 64
11, 429356, Note_on_c, 6, 38, 0
11, 429360, Note_on_c, 6, 42, 64
11, 429596, Note_on_c, 6, 42, 0
11, 429600, Note_on_c, 6, 45, 64
11, 429836, Note_on_c, 6, 45, 0
11, 429840, Note_on_c, 6, 42, 64
11, 430076, Note_on_c, 6, 42, 0
11, 430080, Note_on_c, 6, 45, 64
11, 430316, Note_on_c, 6, 45, 0
11, 430320, Note_on_c, 6, 50, 64
11, 430556, Note_on_c, 6, 50, 0
11, 430560, Note_on_c, 6, 43, 64
11, 430796, Note_on_c, 6, 43, 0
11, 430800, Note_on_c, 6, 47, 64
11, 431036, Note_on_c, 6, 47, 0
11, 431040, Note_on_c, 6, 50, 64
11, 431276, Note_on_c, 6, 50, 0
11, 431280, Note_on_c, 6, 47, 64
11, 431516, Note_on_c, 6, 47, 0
11, 431520, Note_on_c, 6, 50, 64
11, 431756, Note_on_c, 6, 50, 0
11, 431760, Note_on_c, 6, 55, 64
11, 431996, Note_on_c, 6, 55, 0
11, 432000, Note_on_c, 6, 36, 64
11, 432476, Note_on_c, 6, 36, 0
11, 433440, Note_on_c, 6, 48, 64
11, 433916, Note_on_c, 6, 48, 0
11, 434880, Note_on_c, 6, 47, 64
11, 435116, Note_on_c, 6, 47, 0
11, 435120, Note_on_c, 6, 45, 64
11, 435356, Note_on_c, 6, 45, 0
11, 435360, Note_on_c, 6, 43, 64
11, 435596, Note_on_c, 6, 43, 0
11, 435600, Note_on_c, 6, 50, 64
11, 436076, Note_on_c, 6, 50, 0
11, 436080, Note_on_c, 6, 38, 64
11, 436316, Note_on_c, 6, 38, 0
11, 436320, Note_on_c, 6, 43, 64
11, 437756, Note_on_c, 6, 43, 0
11, 437760, Note_on_c, 6, 50, 64
11, 437876, Note_on_c, 6, 50, 0
11, 437880, Note_on_c, 6, 49, 64
11, 437996, Note_on_c, 6, 49, 0
11, 438000, Note_on_c, 6, 50, 64
11, 438116, Note_on_c, 6, 50, 0
11, 438120, Note_on_c, 6, 52, 64
11, 438236, Note_on_c, 6, 52, 0
11, 438240, Note_on_c, 6, 54, 64
11, 438356, Note_on_c, 6, 54, 0
11, 438360, Note_on_c, 6, 55, 64
11, 438476, Note_on_c, 6, 55, 0
11, 438480, Note_on_c, 6, 57, 64
11, 438596, Note_on_c, 6, 57, 0
11, 438600, Note_on_c, 6, 59, 64
11, 438716, Note_on_c, 6, 59, 0
11, 438720, Note_on_c, 6, 57, 64
11, 438836, Note_on_c, 6, 57, 0
11, 438840, Note_on_c, 6, 55, 64
11, 438956, Note_on_c, 6, 55, 0
11, 438960, Note_on_c, 6, 54, 64
11, 439076, Note_on_c, 6, 54, 0
11, 439080, Note_on_c, 6, 52, 64
11, 439196, Note_on_c, 6, 52, 0
11, 439200, Note_on_c, 6, 54, 64
11, 439316, Note_on_c, 6, 54, 0
11, 439320, Note_on_c, 6, 57, 64
11, 439436, Note_on_c, 6, 57, 0
11, 439440, Note_on_c, 6, 55, 64
11, 439556, Note_on_c, 6, 55, 0
11, 439560, Note_on_c, 6, 54, 64
11, 439676, Note_on_c, 6, 54, 0
11, 439680, Note_on_c, 6, 52, 64
11, 439796, Note_on_c, 6, 52, 0
11, 439800, Note_on_c, 6, 50, 64
11, 439916, Note_on_c, 6, 50, 0
11, 439920, Note_on_c, 6, 49, 64
11, 440036, Note_on_c, 6, 49, 0
11, 440040, Note_on_c, 6, 52, 64
11, 440156, Note_on_c, 6, 52, 0
11, 440160, Note_on_c, 6, 50, 64
11, 440276, Note_on_c, 6, 50, 0
11, 440280, Note_on_c, 6, 49, 64
11, 440396, Note_on_c, 6, 49, 0
11, 440400, Note_on_c, 6, 47, 64
11, 440516, Note_on_c, 6, 47, 0
11, 440520, Note_on_c, 6, 45, 64
11, 440636, Note_on_c, 6, 45, 0
11, 440640, Note_on_c, 6, 52, 64
11, 440876, Note_on_c, 6, 52, 0
11, 440880, Note_on_c, 6, 55, 64
11, 441116, Note_on_c, 6, 55, 0
11, 441120, Note_on_c, 6, 59, 64
11, 441356, Note_on_c, 6, 59, 0
11, 441360, Note_on_c, 6, 51, 64
11, 441596, Note_on_c, 6, 51, 0
11, 441600, Note_on_c, 6, 54, 64
11, 441836, Note_on_c, 6, 54, 0
11, 441840, Note_on_c, 6, 59, 64
11, 442076, Note_on_c, 6, 59, 0
11, 442080, Note_on_c, 6, 52, 64
11, 442316, Note_on_c, 6, 52, 0
11, 442320, Note_on_c, 6, 55, 64
11, 442556, Note_on_c, 6, 55, 0
11, 442560, Note_on_c, 6, 59, 64
11, 442796, Note_on_c, 6, 59, 0
11, 442800, Note_on_c, 6, 47, 64
11, 443036, Note_on_c, 6, 47, 0
11, 443040, Note_on_c, 6, 54, 64
11, 443276, Note_on_c, 6, 54, 0
11, 443280, Note_on_c, 6, 59, 64
11, 443516, Note_on_c, 6, 59, 0
11, 443520, Note_on_c, 6, 43, 64
11, 443996, Note_on_c, 6, 43, 0
11, 444240, Note_on_c, 6, 45, 64
11, 444716, Note_on_c, 6, 45, 0
11, 444960, Note_on_c, 6, 47, 64
11, 445436, Note_on_c, 6, 47, 0
11, 445680, Note_on_c, 6, 48, 64
11, 446156, Note_on_c, 6, 48, 0
11, 446400, Note_on_c, 6, 43, 64
11, 446876, Note_on_c, 6, 43, 0
11, 447120, Note_on_c, 6, 45, 64
11, 447596, Note_on_c, 6, 45, 0
11, 447840, Note_on_c, 6, 47, 64
11, 448076, Note_on_c, 6, 47, 0
11, 448080, Note_on_c, 6, 45, 64
11, 448316, Note_on_c, 6, 45, 0
11, 448320, Note_on_c, 6, 47, 64
11, 448556, Note_on_c, 6, 47, 0
11, 448560, Note_on_c, 6, 40, 64
11, 448796, Note_on_c, 6, 40, 0
11, 448800, Note_on_c, 6, 43, 64
11, 449036, Note_on_c, 6, 43, 0
11, 449040, Note_on_c, 6, 47, 64
11, 449276, Note_on_c, 6, 47, 0
11, 449280, Note_on_c, 6, 52, 64
11, 449756, Note_on_c, 6, 52, 0
11, 453600, Note_on_c, 6, 52, 64
11, 453716, Note_on_c, 6, 52, 0
11, 453720, Note_on_c, 6, 51, 64
11, 453836, Note_on_c, 6, 51, 0
11, 453840, Note_on_c, 6, 52, 64
11, 453956, Note_on_c, 6, 52, 0
11, 453960, Note_on_c, 6, 54, 64
11, 454076, Note_on_c, 6, 54, 0
11, 454080, Note_on_c, 6, 55, 64
11, 454196, Note_on_c, 6, 55, 0
11, 454200, Note_on_c, 6, 57, 64
11, 454316, Note_on_c, 6, 57, 0
11, 454320, Note_on_c, 6, 59, 64
11, 454436, Note_on_c, 6, 59, 0
11, 454440, Note_on_c, 6, 60, 64
11, 454556, Note_on_c, 6, 60, 0
11, 454560, Note_on_c, 6, 59, 64
11, 454676, Note_on_c, 6, 59, 0
11, 454680, Note_on_c, 6, 57, 64
11, 454796, Note_on_c, 6, 57, 0
11, 454800, Note_on_c, 6, 55, 64
11, 454916, Note_on_c, 6, 55, 0
11, 454920, Note_on_c, 6, 54, 64
11, 455036, Note_on_c, 6, 54, 0
11, 455040, Note_on_c, 6, 52, 64
11, 455156, Note_on_c, 6, 52, 0
11, 455160, Note_on_c, 6, 51, 64
11, 455276, Note_on_c, 6, 51, 0
11, 455280, Note_on_c, 6, 52, 64
11, 455396, Note_on_c, 6, 52, 0
11, 455400, Note_on_c, 6, 54, 64
11, 455516, Note_on_c, 6, 54, 0
11, 455520, Note_on_c, 6, 55, 64
11, 455636, Note_on_c, 6, 55, 0
11, 455640, Note_on_c, 6, 52, 64
11, 455756, Note_on_c, 6, 52, 0
11, 455760, Note_on_c, 6, 57, 64
11, 455876, Note_on_c, 6, 57, 0
11, 455880, Note_on_c, 6, 59, 64
11, 455996, Note_on_c, 6, 59, 0
11, 456000, Note_on_c, 6, 57, 64
11, 456116, Note_on_c, 6, 57, 0
11, 456120, Note_on_c, 6, 55, 64
11, 456236, Note_on_c, 6, 55, 0
11, 456240, Note_on_c, 6, 54, 64
11, 456356, Note_on_c, 6, 54, 0
11, 456360, Note_on_c, 6, 52, 64
11, 456476, Note_on_c, 6, 52, 0
11, 456480, Note_on_c, 6, 50, 64
11, 456596, Note_on_c, 6, 50, 0
11, 456600, Note_on_c, 6, 49, 64
11, 456716, Note_on_c, 6, 49, 0
11, 456720, Note_on_c, 6, 50, 64
11, 456836, Note_on_c, 6, 50, 0
11, 456840, Note_on_c, 6, 52, 64
11, 456956, Note_on_c, 6, 52, 0
11, 456960, Note_on_c, 6, 54, 64
11, 457076, Note_on_c, 6, 54, 0
11, 457080, Note_on_c, 6, 50, 64
11, 457196, Note_on_c, 6, 50, 0
11, 457200, Note_on_c, 6, 55, 64
11, 457316, Note_on_c, 6, 55, 0
11, 457320, Note_on_c, 6, 57, 64
11, 457436, Note_on_c, 6, 57, 0
11, 457440, Note_on_c, 6, 55, 64
11, 457556, Note_on_c, 6, 55, 0
11, 457560, Note_on_c, 6, 54, 64
11, 457676, Note_on_c, 6, 54, 0
11, 457680, Note_on_c, 6, 52, 64
11, 457796, Note_on_c, 6, 52, 0
11, 457800, Note_on_c, 6, 50, 64
11, 457916, Note_on_c, 6, 50, 0
11, 457920, Note_on_c, 6, 49, 64
11, 458036, Note_on_c, 6, 49, 0
11, 458040, Note_on_c, 6, 47, 64
11, 458156, Note_on_c, 6, 47, 0
11, 458160, Note_on_c, 6, 49, 64
11, 458276, Note_on_c, 6, 49, 0
11, 458280, Note_on_c, 6, 50, 64
11, 458396, Note_on_c, 6, 50, 0
11, 458400, Note_on_c, 6, 52, 64
11, 458516, Note_on_c, 6, 52, 0
11, 458520, Note_on_c, 6, 49, 64
11, 458636, Note_on_c, 6, 49, 0
11, 458640, Note_on_c, 6, 54, 64
11, 458756, Note_on_c, 6, 54, 0
11, 458760, Note_on_c, 6, 55, 64
11, 458876, Note_on_c, 6, 55, 0
11, 458880, Note_on_c, 6, 54, 64
11, 458996, Note_on_c, 6, 54, 0
11, 459000, Note_on_c, 6, 52, 64
11, 459116, Note_on_c, 6, 52, 0
11, 459120, Note_on_c, 6, 50, 64
11, 459236, Note_on_c, 6, 50, 0
11, 459240, Note_on_c, 6, 49, 64
11, 459356, Note_on_c, 6, 49, 0
11, 459360, Note_on_c, 6, 47, 64
11, 459836, Note_on_c, 6, 47, 0
11, 460080, Note_on_c, 6, 42, 64
11, 460556, Note_on_c, 6, 42, 0
11, 460800, Note_on_c, 6, 47, 64
11, 461276, Note_on_c, 6, 47, 0
11, 461520, Note_on_c, 6, 54, 64
11, 461996, Note_on_c, 6, 54, 0
11, 462240, Note_on_c, 6, 47, 64
11, 462476, Note_on_c, 6, 47, 0
11, 462480, Note_on_c, 6, 50, 64
11, 462716, Note_on_c, 6, 50, 0
11, 462720, Note_on_c, 6, 54, 64
11, 462956, Note_on_c, 6, 54, 0
11, 462960, Note_on_c, 6, 46, 64
11, 463196, Note_on_c, 6, 46, 0
11, 463200, Note_on_c, 6, 49, 64
11, 463436, Note_on_c, 6, 49, 0
11, 463440, Note_on_c, 6, 54, 64
11, 463676, Note_on_c, 6, 54, 0
11, 463680, Note_on_c, 6, 47, 64
11, 463796, Note_on_c, 6, 47, 0
11, 463800, Note_on_c, 6, 46, 64
11, 463916, Note_on_c, 6, 46, 0
11, 463920, Note_on_c, 6, 47, 64
11, 464036, Note_on_c, 6, 47, 0
11, 464040, Note_on_c, 6, 49, 64
11, 464156, Note_on_c, 6, 49, 0
11, 464160, Note_on_c, 6, 50, 64
11, 464276, Note_on_c, 6, 50, 0
11, 464280, Note_on_c, 6, 52, 64
11, 464396, Note_on_c, 6, 52, 0
11, 464400, Note_on_c, 6, 54, 64
11, 464516, Note_on_c, 6, 54, 0
11, 464520, Note_on_c, 6, 55, 64
11, 464636, Note_on_c, 6, 55, 0
11, 464640, Note_on_c, 6, 54, 64
11, 464756, Note_on_c, 6, 54, 0
11, 464760, Note_on_c, 6, 52, 64
11, 464876, Note_on_c, 6, 52, 0
11, 464880, Note_on_c, 6, 50, 64
11, 464996, Note_on_c, 6, 50, 0
11, 465000, Note_on_c, 6, 49, 64
11, 465116, Note_on_c, 6, 49, 0
11, 465120, Note_on_c, 6, 47, 64
11, 465236, Note_on_c, 6, 47, 0
11, 465240, Note_on_c, 6, 46, 64
11, 465356, Note_on_c, 6, 46, 0
11, 465360, Note_on_c, 6, 47, 64
11, 465476, Note_on_c, 6, 47, 0
11, 465480, Note_on_c, 6, 49, 64
11, 465596, Note_on_c, 6, 49, 0
11, 465600, Note_on_c, 6, 50, 64
11, 465716, Note_on_c, 6, 50, 0
11, 465720, Note_on_c, 6, 47, 64
11, 465836, Note_on_c, 6, 47, 0
11, 465840, Note_on_c, 6, 52, 64
11, 465956, Note_on_c, 6, 52, 0
11, 465960, Note_on_c, 6, 54, 64
11, 466076, Note_on_c, 6, 54, 0
11, 466080, Note_on_c, 6, 52, 64
11, 466196, Note_on_c, 6, 52, 0
11, 466200, Note_on_c, 6, 50, 64
11, 466316, Note_on_c, 6, 50, 0
11, 466320, Note_on_c, 6, 49, 64
11, 466436, Note_on_c, 6, 49, 0
11, 466440, Note_on_c, 6, 47, 64
11, 466556, Note_on_c, 6, 47, 0
11, 466560, Note_on_c, 6, 45, 64
11, 466676, Note_on_c, 6, 45, 0
11, 466680, Note_on_c, 6, 43, 64
11, 466796, Note_on_c, 6, 43, 0
11, 466800, Note_on_c, 6, 45, 64
11, 466916, Note_on_c, 6, 45, 0
11, 466920, Note_on_c, 6, 47, 64
11, 467036, Note_on_c, 6, 47, 0
11, 467040, Note_on_c, 6, 49, 64
11, 467156, Note_on_c, 6, 49, 0
11, 467160, Note_on_c, 6, 45, 64
11, 467276, Note_on_c, 6, 45, 0
11, 467280, Note_on_c, 6, 50, 64
11, 467396, Note_on_c, 6, 50, 0
11, 467400, Note_on_c, 6, 52, 64
11, 467516, Note_on_c, 6, 52, 0
11, 467520, Note_on_c, 6, 50, 64
11, 467636, Note_on_c, 6, 50, 0
11, 467640, Note_on_c, 6, 49, 64
11, 467756, Note_on_c, 6, 49, 0
11, 467760, Note_on_c, 6, 47, 64
11, 467876, Note_on_c, 6, 47, 0
11, 467880, Note_on_c, 6, 45, 64
11, 467996, Note_on_c, 6, 45, 0
11, 468000, Note_on_c, 6, 43, 64
11, 468116, Note_on_c, 6, 43, 0
11, 468120, Note_on_c, 6, 42, 64
11, 468236, Note_on_c, 6, 42, 0
11, 468240, Note_on_c, 6, 43, 64
11, 468356, Note_on_c, 6, 43, 0
11, 468360, Note_on_c, 6, 45, 64
11, 468476, Note_on_c, 6, 45, 0
11, 468480, Note_on_c, 6, 47, 64
11, 468596, Note_on_c, 6, 47, 0
11, 468600, Note_on_c, 6, 43, 64
11, 468716, Note_on_c, 6, 43, 0
11, 468720, Note_on_c, 6, 49, 64
11, 468836, Note_on_c, 6, 49, 0
11, 468840, Note_on_c, 6, 50, 64
11, 468956, Note_on_c, 6, 50, 0
11, 468960, Note_on_c, 6, 49, 64
11, 469076, Note_on_c, 6, 49, 0
11, 469080, Note_on_c, 6, 47, 64
11, 469196, Note_on_c, 6, 47, 0
11, 469200, Note_on_c, 6, 46, 64
11, 469316, Note_on_c, 6, 46, 0
11, 469320, Note_on_c, 6, 44, 64
11, 469436, Note_on_c, 6, 44, 0
11, 469440, Note_on_c, 6, 42, 64
11, 469676, Note_on_c, 6, 42, 0
11, 469680, Note_on_c, 6, 42, 64
11, 469916, Note_on_c, 6, 42, 0
11, 469920, Note_on_c, 6, 42, 64
11, 470156, Note_on_c, 6, 42, 0
11, 470160, Note_on_c, 6, 42, 64
11, 470396, Note_on_c, 6, 42, 0
11, 470400, Note_on_c, 6, 42, 64
11, 470636, Note_on_c, 6, 42, 0
11, 470640, Note_on_c, 6, 42, 64
11, 470876, Note_on_c, 6, 42, 0
11, 470880, Note_on_c, 6, 42, 64
11, 471116, Note_on_c, 6, 42, 0
11, 471120, Note_on_c, 6, 42, 64
11, 471356, Note_on_c, 6, 42, 0
11, 471360, Note_on_c, 6, 42, 64
11, 471596, Note_on_c, 6, 42, 0
11, 471600, Note_on_c, 6, 42, 64
11, 471836, Note_on_c, 6, 42, 0
11, 471840, Note_on_c, 6, 42, 64
11, 472076, Note_on_c, 6, 42, 0
11, 472080, Note_on_c, 6, 42, 64
11, 472316, Note_on_c, 6, 42, 0
11, 472320, Note_on_c, 6, 42, 64
11, 472556, Note_on_c, 6, 42, 0
11, 472560, Note_on_c, 6, 42, 64
11, 472796, Note_on_c, 6, 42, 0
11, 472800, Note_on_c, 6, 42, 64
11, 473036, Note_on_c, 6, 42, 0
11, 473040, Note_on_c, 6, 42, 64
11, 473276, Note_on_c, 6, 42, 0
11, 473280, Note_on_c, 6, 42, 64
11, 473516, Note_on_c, 6, 42, 0
11, 473520, Note_on_c, 6, 42, 64
11, 473756, Note_on_c, 6, 42, 0
11, 473760, Note_on_c, 6, 42, 64
11, 473996, Note_on_c, 6, 42, 0
11, 474000, Note_on_c, 6, 42, 64
11, 474236, Note_on_c, 6, 42, 0
11, 474240, Note_on_c, 6, 42, 64
11, 474476, Note_on_c, 6, 42, 0
11, 474480, Note_on_c, 6, 42, 64
11, 474716, Note_on_c, 6, 42, 0
11, 474720, Note_on_c, 6, 42, 64
11, 474956, Note_on_c, 6, 42, 0
11, 474960, Note_on_c, 6, 42, 64
11, 475196, Note_on_c, 6, 42, 0
11, 475200, Note_on_c, 6, 42, 64
11, 475436, Note_on_c, 6, 42, 0
11, 475440, Note_on_c, 6, 46, 64
11, 475676, Note_on_c, 6, 46, 0
11, 475680, Note_on_c, 6, 49, 64
11, 475916, Note_on_c, 6, 49, 0
11, 475920, Note_on_c, 6, 46, 64
11, 476156, Note_on_c, 6, 46, 0
11, 476160, Note_on_c, 6, 49, 64
11, 476396, Note_on_c, 6, 49, 0
11, 476400, Note_on_c, 6, 54, 64
11, 476636, Note_on_c, 6, 54, 0
11, 476640, Note_on_c, 6, 47, 64
11, 476876, Note_on_c, 6, 47, 0
11, 476880, Note_on_c, 6, 51, 64
11, 477116, Note_on_c, 6, 51, 0
11, 477120, Note_on_c, 6, 54, 64
11, 477356, Note_on_c, 6, 54, 0
11, 477360, Note_on_c, 6, 51, 64
11, 477596, Note_on_c, 6, 51, 0
11, 477600, Note_on_c, 6, 54, 64
11, 477836, Note_on_c, 6, 54, 0
11, 477840, Note_on_c, 6, 59, 64
11, 478076, Note_on_c, 6, 59, 0
11, 478080, Note_on_c, 6, 40, 64
11, 478556, Note_on_c, 6, 40, 0
11, 479520, Note_on_c, 6, 52, 64
11, 479996, Note_on_c, 6, 52, 0
11, 480960, Note_on_c, 6, 50, 64
11, 481196, Note_on_c, 6, 50, 0
11, 481200, Note_on_c, 6, 49, 64
11, 481436, Note_on_c, 6, 49, 0
11, 481440, Note_on_c, 6, 47, 64
11, 481676, Note_on_c, 6, 47, 0
11, 481680, Note_on_c, 6, 54, 64
11, 482156, Note_on_c, 6, 54, 0
11, 482160, Note_on_c, 6, 42, 64
11, 482396, Note_on_c, 6, 42, 0
11, 482400, Note_on_c, 6, 47, 64
11, 482636, Note_on_c, 6, 47, 0
11, 482880, Note_on_c, 6, 54, 64
11, 483116, Note_on_c, 6, 54, 0
11, 483120, Note_on_c, 6, 59, 64
11, 483356, Note_on_c, 6, 59, 0
11, 483360, Note_on_c, 6, 57, 64
11, 483476, Note_on_c, 6, 57, 0
11, 483480, Note_on_c, 6, 55, 64
11, 483596, Note_on_c, 6, 55, 0
11, 483600, Note_on_c, 6, 54, 64
11, 483716, Note_on_c, 6, 54, 0
11, 483720, Note_on_c, 6, 52, 64
11, 483836, Note_on_c, 6, 52, 0
11, 483840, Note_on_c, 6, 51, 64
11, 484076, Note_on_c, 6, 51, 0
11, 484080, Note_on_c, 6, 54, 64
11, 484316, Note_on_c, 6, 54, 0
11, 484320, Note_on_c, 6, 59, 64
11, 484556, Note_on_c, 6, 59, 0
11, 484560, Note_on_c, 6, 47, 64
11, 484796, Note_on_c, 6, 47, 0
11, 484800, Note_on_c, 6, 54, 64
11, 485036, Note_on_c, 6, 54, 0
11, 485040, Note_on_c, 6, 59, 64
11, 485276, Note_on_c, 6, 59, 0
11, 485280, Note_on_c, 6, 52, 64
11, 485516, Note_on_c, 6, 52, 0
11, 485520, Note_on_c, 6, 55, 64
11, 485756, Note_on_c, 6, 55, 0
11, 485760, Note_on_c, 6, 59, 64
11, 485996, Note_on_c, 6, 59, 0
11, 486000, Note_on_c, 6, 64, 64
11, 486236, Note_on_c, 6, 64, 0
11, 486240, Note_on_c, 6, 62, 64
11, 486356, Note_on_c, 6, 62, 0
11, 486360, Note_on_c, 6, 60, 64
11, 486476, Note_on_c, 6, 60, 0
11, 486480, Note_on_c, 6, 59, 64
11, 486596, Note_on_c, 6, 59, 0
11, 486600, Note_on_c, 6, 57, 64
11, 486716, Note_on_c, 6, 57, 0
11, 486720, Note_on_c, 6, 56, 64
11, 486956, Note_on_c, 6, 56, 0
11, 486960, Note_on_c, 6, 59, 64
11, 487196, Note_on_c, 6, 59, 0
11, 487200, Note_on_c, 6, 64, 64
11, 487436, Note_on_c, 6, 64, 0
11, 487440, Note_on_c, 6, 52, 64
11, 487676, Note_on_c, 6, 52, 0
11, 487680, Note_on_c, 6, 59, 64
11, 487916, Note_on_c, 6, 59, 0
11, 487920, Note_on_c, 6, 64, 64
11, 488156, Note_on_c, 6, 64, 0
11, 488160, Note_on_c, 6, 45, 64
11, 488396, Note_on_c, 6, 45, 0
11, 488400, Note_on_c, 6, 48, 64
11, 488636, Note_on_c, 6, 48, 0
11, 488640, Note_on_c, 6, 52, 64
11, 488876, Note_on_c, 6, 52, 0
11, 488880, Note_on_c, 6, 57, 64
11, 488996, Note_on_c, 6, 57, 0
11, 489000, Note_on_c, 6, 59, 64
11, 489116, Note_on_c, 6, 59, 0
11, 489120, Note_on_c, 6, 57, 64
11, 489236, Note_on_c, 6, 57, 0
11, 489240, Note_on_c, 6, 55, 64
11, 489356, Note_on_c, 6, 55, 0
11, 489360, Note_on_c, 6, 53, 64
11, 489476, Note_on_c, 6, 53, 0
11, 489480, Note_on_c, 6, 52, 64
11, 489596, Note_on_c, 6, 52, 0
11, 489600, Note_on_c, 6, 50, 64
11, 489836, Note_on_c, 6, 50, 0
11, 489840, Note_on_c, 6, 57, 64
11, 490076, Note_on_c, 6, 57, 0
11, 490080, Note_on_c, 6, 62, 64
11, 490316, Note_on_c, 6, 62, 0
11, 490320, Note_on_c, 6, 55, 64
11, 490556, Note_on_c, 6, 55, 0
11, 490560, Note_on_c, 6, 50, 64
11, 490796, Note_on_c, 6, 50, 0
11, 490800, Note_on_c, 6, 43, 64
11, 491036, Note_on_c, 6, 43, 0
11, 491040, Note_on_c, 6, 48, 64
11, 491276, Note_on_c, 6, 48, 0
11, 491280, Note_on_c, 6, 55, 64
11, 491516, Note_on_c, 6, 55, 0
11, 491520, Note_on_c, 6, 60, 64
11, 491756, Note_on_c, 6, 60, 0
11, 491760, Note_on_c, 6, 53, 64
11, 491996, Note_on_c, 6, 53, 0
11, 492000, Note_on_c, 6, 48, 64
11, 492236, Note_on_c, 6, 48, 0
11, 492240, Note_on_c, 6, 41, 64
11, 492476, Note_on_c, 6, 41, 0
11, 492480, Note_on_c, 6, 53, 64
11, 492956, Note_on_c, 6, 53, 0
11, 493200, Note_on_c, 6, 52, 64
11, 493676, Note_on_c, 6, 52, 0
11, 493920, Note_on_c, 6, 50, 64
11, 494396, Note_on_c, 6, 50, 0
11, 494640, Note_on_c, 6, 48, 64
11, 495116, Note_on_c, 6, 48, 0
11, 495360, Note_on_c, 6, 47, 64
11, 495596, Note_on_c, 6, 47, 0
11, 495600, Note_on_c, 6, 50, 64
11, 495836, Note_on_c, 6, 50, 0
11, 495840, Note_on_c, 6, 55, 64
11, 496076, Note_on_c, 6, 55, 0
11, 496080, Note_on_c, 6, 48, 64
11, 496316, Note_on_c, 6, 48, 0
11, 496320, Note_on_c, 6, 52, 64
11, 496556, Note_on_c, 6, 52, 0
11, 496560, Note_on_c, 6, 55, 64
11, 496796, Note_on_c, 6, 55, 0
11, 496800, Note_on_c, 6, 47, 64
11, 496916, Note_on_c, 6, 47, 0
11, 496920, Note_on_c, 6, 50, 64
11, 497036, Note_on_c, 6, 50, 0
11, 497040, Note_on_c, 6, 43, 64
11, 497156, Note_on_c, 6, 43, 0
11, 497160, Note_on_c, 6, 50, 64
11, 497276, Note_on_c, 6, 50, 0
11, 497280, Note_on_c, 6, 47, 64
11, 497396, Note_on_c, 6, 47, 0
11, 497400, Note_on_c, 6, 50, 64
11, 497516, Note_on_c, 6, 50, 0
11, 497520, Note_on_c, 6, 48, 64
11, 497636, Note_on_c, 6, 48, 0
11, 497640, Note_on_c, 6, 52, 64
11, 497756, Note_on_c, 6, 52, 0
11, 497760, Note_on_c, 6, 43, 64
11, 497876, Note_on_c, 6, 43, 0
11, 497880, Note_on_c, 6, 52, 64
11, 497996, Note_on_c, 6, 52, 0
11, 498000, Note_on_c, 6, 48, 64
11, 498116, Note_on_c, 6, 48, 0
11, 498120, Note_on_c, 6, 52, 64
11, 498236, Note_on_c, 6, 52, 0
11, 498240, Note_on_c, 6, 42, 64
11, 498476, Note_on_c, 6, 42, 0
11, 498480, Note_on_c, 6, 42, 64
11, 498716, Note_on_c, 6, 42, 0
11, 498720, Note_on_c, 6, 42, 64
11, 498956, Note_on_c, 6, 42, 0
11, 498960, Note_on_c, 6, 42, 64
11, 499196, Note_on_c, 6, 42, 0
11, 499200, Note_on_c, 6, 42, 64
11, 499436, Note_on_c, 6, 42, 0
11, 499440, Note_on_c, 6, 42, 64
11, 499676, Note_on_c, 6, 42, 0
11, 499680, Note_on_c, 6, 41, 64
11, 499916, Note_on_c, 6, 41, 0
11, 499920, Note_on_c, 6, 41, 64
11, 500156, Note_on_c, 6, 41, 0
11, 500160, Note_on_c, 6, 41, 64
11, 500396, Note_on_c, 6, 41, 0
11, 500400, Note_on_c, 6, 41, 64
11, 500636, Note_on_c, 6, 41, 0
11, 500640, Note_on_c, 6, 41, 64
11, 500876, Note_on_c, 6, 41, 0
11, 500880, Note_on_c, 6, 41, 64
11, 501116, Note_on_c, 6, 41, 0
11, 501120, Note_on_c, 6, 40, 64
11, 501596, Note_on_c, 6, 40, 0
11, 501840, Note_on_c, 6, 41, 64
11, 502316, Note_on_c, 6, 41, 0
11, 502560, Note_on_c, 6, 43, 64
11, 503036, Note_on_c, 6, 43, 0
11, 503280, Note_on_c, 6, 45, 64
11, 503756, Note_on_c, 6, 45, 0
11, 504000, Note_on_c, 6, 40, 64
11, 504476, Note_on_c, 6, 40, 0
11, 504720, Note_on_c, 6, 41, 64
11, 505196, Note_on_c, 6, 41, 0
11, 505440, Note_on_c, 6, 43, 64
11, 505676, Note_on_c, 6, 43, 0
11, 505680, Note_on_c, 6, 41, 64
11, 505916, Note_on_c, 6, 41, 0
11, 505920, Note_on_c, 6, 43, 64
11, 506156, Note_on_c, 6, 43, 0
11, 506160, Note_on_c, 6, 36, 64
11, 506636, Note_on_c, 6, 36, 0
11, 506640, Note_on_c, 6, 38, 64
11, 506876, Note_on_c, 6, 38, 0
11, 506880, Note_on_c, 6, 40, 64
11, 507116, Note_on_c, 6, 40, 0
11, 507120, Note_on_c, 6, 38, 64
11, 507356, Note_on_c, 6, 38, 0
11, 507360, Note_on_c, 6, 36, 64
11, 507596, Note_on_c, 6, 36, 0
11, 507600, Note_on_c, 6, 43, 64
11, 507836, Note_on_c, 6, 43, 0
11, 507840, Note_on_c, 6, 45, 64
11, 508076, Note_on_c, 6, 45, 0
11, 508080, Note_on_c, 6, 47, 64
11, 508316, Note_on_c, 6, 47, 0
11, 508320, Note_on_c, 6, 48, 64
11, 508796, Note_on_c, 6, 48, 0
11, 509040, Note_on_c, 6, 55, 64
11, 509516, Note_on_c, 6, 55, 0
11, 509760, Note_on_c, 6, 48, 64
11, 510236, Note_on_c, 6, 48, 0
11, 510480, Note_on_c, 6, 43, 64
11, 510956, Note_on_c, 6, 43, 0
11, 511200, Note_on_c, 6, 48, 64
11, 511316, Note_on_c, 6, 48, 0
11, 511320, Note_on_c, 6, 47, 64
11, 511436, Note_on_c, 6, 47, 0
11, 511440, Note_on_c, 6, 48, 64
11, 511556, Note_on_c, 6, 48, 0
11, 511560, Note_on_c, 6, 50, 64
11, 511676, Note_on_c, 6, 50, 0
11, 511680, Note_on_c, 6, 52, 64
11, 511796, Note_on_c, 6, 52, 0
11, 511800, Note_on_c, 6, 53, 64
11, 511916, Note_on_c, 6, 53, 0
11, 511920, Note_on_c, 6, 55, 64
11, 512036, Note_on_c, 6, 55, 0
11, 512040, Note_on_c, 6, 57, 64
11, 512156, Note_on_c, 6, 57, 0
11, 512160, Note_on_c, 6, 55, 64
11, 512276, Note_on_c, 6, 55, 0
11, 512280, Note_on_c, 6, 53, 64
11, 512396, Note_on_c, 6, 53, 0
11, 512400, Note_on_c, 6, 52, 64
11, 512516, Note_on_c, 6, 52, 0
11, 512520, Note_on_c, 6, 50, 64
11, 512636, Note_on_c, 6, 50, 0
11, 512640, Note_on_c, 6, 48, 64
11, 512756, Note_on_c, 6, 48, 0
11, 512760, Note_on_c, 6, 47, 64
11, 512876, Note_on_c, 6, 47, 0
11, 512880, Note_on_c, 6, 48, 64
11, 512996, Note_on_c, 6, 48, 0
11, 513000, Note_on_c, 6, 50, 64
11, 513116, Note_on_c, 6, 50, 0
11, 513120, Note_on_c, 6, 52, 64
11, 513236, Note_on_c, 6, 52, 0
11, 513240, Note_on_c, 6, 48, 64
11, 513356, Note_on_c, 6, 48, 0
11, 513360, Note_on_c, 6, 54, 64
11, 513476, Note_on_c, 6, 54, 0
11, 513480, Note_on_c, 6, 55, 64
11, 513596, Note_on_c, 6, 55, 0
11, 513600, Note_on_c, 6, 54, 64
11, 513716, Note_on_c, 6, 54, 0
11, 513720, Note_on_c, 6, 52, 64
11, 513836, Note_on_c, 6, 52, 0
11, 513840, Note_on_c, 6, 50, 64
11, 513956, Note_on_c, 6, 50, 0
11, 513960, Note_on_c, 6, 48, 64
11, 514076, Note_on_c, 6, 48, 0
11, 514080, Note_on_c, 6, 47, 64
11, 514196, Note_on_c, 6, 47, 0
11, 514200, Note_on_c, 6, 45, 64
11, 514316, Note_on_c, 6, 45, 0
11, 514320, Note_on_c, 6, 47, 64
11, 514436, Note_on_c, 6, 47, 0
11, 514440, Note_on_c, 6, 48, 64
11, 514556, Note_on_c, 6, 48, 0
11, 514560, Note_on_c, 6, 50, 64
11, 514676, Note_on_c, 6, 50, 0
11, 514680, Note_on_c, 6, 47, 64
11, 514796, Note_on_c, 6, 47, 0
11, 514800, Note_on_c, 6, 52, 64
11, 514916, Note_on_c, 6, 52, 0
11, 514920, Note_on_c, 6, 54, 64
11, 515036, Note_on_c, 6, 54, 0
11, 515040, Note_on_c, 6, 52, 64
11, 515156, Note_on_c, 6, 52, 0
11, 515160, Note_on_c, 6, 50, 64
11, 515276, Note_on_c, 6, 50, 0
11, 515280, Note_on_c, 6, 48, 64
11, 515396, Note_on_c, 6, 48, 0
11, 515400, Note_on_c, 6, 47, 64
11, 515516, Note_on_c, 6, 47, 0
11, 515520, Note_on_c, 6, 45, 64
11, 515636, Note_on_c, 6, 45, 0
11, 515640, Note_on_c, 6, 43, 64
11, 515756, Note_on_c, 6, 43, 0
11, 515760, Note_on_c, 6, 45, 64
11, 515876, Note_on_c, 6, 45, 0
11, 515880, Note_on_c, 6, 47, 64
11, 515996, Note_on_c, 6, 47, 0
11, 516000, Note_on_c, 6, 48, 64
11, 516116, Note_on_c, 6, 48, 0
11, 516120, Note_on_c, 6, 45, 64
11, 516236, Note_on_c, 6, 45, 0
11, 516240, Note_on_c, 6, 50, 64
11, 516356, Note_on_c, 6, 50, 0
11, 516360, Note_on_c, 6, 52, 64
11, 516476, Note_on_c, 6, 52, 0
11, 516480, Note_on_c, 6, 50, 64
11, 516596, Note_on_c, 6, 50, 0
11, 516600, Note_on_c, 6, 48, 64
11, 516716, Note_on_c, 6, 48, 0
11, 516720, Note_on_c, 6, 47, 64
11, 516836, Note_on_c, 6, 47, 0
11, 516840, Note_on_c, 6, 45, 64
11, 516956, Note_on_c, 6, 45, 0
11, 516960, Note_on_c, 6, 43, 64
11, 517436, Note_on_c, 6, 43, 0
11, 517680, Note_on_c, 6, 38, 64
11, 518156, Note_on_c, 6, 38, 0
11, 518400, Note_on_c, 6, 43, 64
11, 518876, Note_on_c, 6, 43, 0
11, 519120, Note_on_c, 6, 50, 64
11, 519596, Note_on_c, 6, 50, 0
11, 519840, Note_on_c, 6, 55, 64
11, 520076, Note_on_c, 6, 55, 0
11, 520080, Note_on_c, 6, 59, 64
11, 520316, Note_on_c, 6, 59, 0
11, 520320, Note_on_c, 6, 62, 64
11, 520556, Note_on_c, 6, 62, 0
11, 520560, Note_on_c, 6, 50, 64
11, 520796, Note_on_c, 6, 50, 0
11, 520800, Note_on_c, 6, 57, 64
11, 521036, Note_on_c, 6, 57, 0
11, 521040, Note_on_c, 6, 62, 64
11, 521276, Note_on_c, 6, 62, 0
11, 521280, Note_on_c, 6, 43, 64
11, 521396, Note_on_c, 6, 43, 0
11, 521400, Note_on_c, 6, 42, 64
11, 521516, Note_on_c, 6, 42, 0
11, 521520, Note_on_c, 6, 43, 64
11, 521636, Note_on_c, 6, 43, 0
11, 521640, Note_on_c, 6, 45, 64
11, 521756, Note_on_c, 6, 45, 0
11, 521760, Note_on_c, 6, 47, 64
11, 521876, Note_on_c, 6, 47, 0
11, 521880, Note_on_c, 6, 48, 64
11, 521996, Note_on_c, 6, 48, 0
11, 522000, Note_on_c, 6, 50, 64
11, 522116, Note_on_c, 6, 50, 0
11, 522120, Note_on_c, 6, 52, 64
11, 522236, Note_on_c, 6, 52, 0
11, 522240, Note_on_c, 6, 50, 64
11, 522356, Note_on_c, 6, 50, 0
11, 522360, Note_on_c, 6, 48, 64
11, 522476, Note_on_c, 6, 48, 0
11, 522480, Note_on_c, 6, 47, 64
11, 522596, Note_on_c, 6, 47, 0
11, 522600, Note_on_c, 6, 45, 64
11, 522716, Note_on_c, 6, 45, 0
11, 522720, Note_on_c, 6, 43, 64
11, 522836, Note_on_c, 6, 43, 0
11, 522840, Note_on_c, 6, 42, 64
11, 522956, Note_on_c, 6, 42, 0
11, 522960, Note_on_c, 6, 43, 64
11, 523076, Note_on_c, 6, 43, 0
11, 523080, Note_on_c, 6, 45, 64
11, 523196, Note_on_c, 6, 45, 0
11, 523200, Note_on_c, 6, 47, 64
11, 523316, Note_on_c, 6, 47, 0
11, 523320, Note_on_c, 6, 43, 64
11, 523436, Note_on_c, 6, 43, 0
11, 523440, Note_on_c, 6, 48, 64
11, 523556, Note_on_c, 6, 48, 0
11, 523560, Note_on_c, 6, 50, 64
11, 523676, Note_on_c, 6, 50, 0
11, 523680, Note_on_c, 6, 48, 64
11, 523796, Note_on_c, 6, 48, 0
11, 523800, Note_on_c, 6, 47, 64
11, 523916, Note_on_c, 6, 47, 0
11, 523920, Note_on_c, 6, 45, 64
11, 524036, Note_on_c, 6, 45, 0
11, 524040, Note_on_c, 6, 43, 64
11, 524156, Note_on_c, 6, 43, 0
11, 524160, Note_on_c, 6, 42, 64
11, 524276, Note_on_c, 6, 42, 0
11, 524280, Note_on_c, 6, 40, 64
11, 524396, Note_on_c, 6, 40, 0
11, 524400, Note_on_c, 6, 42, 64
11, 524516, Note_on_c, 6, 42, 0
11, 524520, Note_on_c, 6, 43, 64
11, 524636, Note_on_c, 6, 43, 0
11, 524640, Note_on_c, 6, 45, 64
11, 524756, Note_on_c, 6, 45, 0
11, 524760, Note_on_c, 6, 42, 64
11, 524876, Note_on_c, 6, 42, 0
11, 524880, Note_on_c, 6, 47, 64
11, 524996, Note_on_c, 6, 47, 0
11, 525000, Note_on_c, 6, 48, 64
11, 525116, Note_on_c, 6, 48, 0
11, 525120, Note_on_c, 6, 47, 64
11, 525236, Note_on_c, 6, 47, 0
11, 525240, Note_on_c, 6, 45, 64
11, 525356, Note_on_c, 6, 45, 0
11, 525360, Note_on_c, 6, 43, 64
11, 525476, Note_on_c, 6, 43, 0
11, 525480, Note_on_c, 6, 42, 64
11, 525596, Note_on_c, 6, 42, 0
11, 525600, Note_on_c, 6, 40, 64
11, 525716, Note_on_c, 6, 40, 0
11, 525720, Note_on_c, 6, 38, 64
11, 525836, Note_on_c, 6, 38, 0
11, 525840, Note_on_c, 6, 40, 64
11, 525956, Note_on_c, 6, 40, 0
11, 525960, Note_on_c, 6, 42, 64
11, 526076, Note_on_c, 6, 42, 0
11, 526080, Note_on_c, 6, 43, 64
11, 526196, Note_on_c, 6, 43, 0
11, 526200, Note_on_c, 6, 40, 64
11, 526316, Note_on_c, 6, 40, 0
11, 526320, Note_on_c, 6, 45, 64
11, 526436, Note_on_c, 6, 45, 0
11, 526440, Note_on_c, 6, 47, 64
11, 526556, Note_on_c, 6, 47, 0
11, 526560, Note_on_c, 6, 45, 64
11, 526676, Note_on_c, 6, 45, 0
11, 526680, Note_on_c, 6, 43, 64
11, 526796, Note_on_c, 6, 43, 0
11, 526800, Note_on_c, 6, 42, 64
11, 526916, Note_on_c, 6, 42, 0
11, 526920, Note_on_c, 6, 40, 64
11, 527036, Note_on_c, 6, 40, 0
11, 527040, Note_on_c, 6, 38, 64
11, 527276, Note_on_c, 6, 38, 0
11, 527280, Note_on_c, 6, 38, 64
11, 527516, Note_on_c, 6, 38, 0
11, 527520, Note_on_c, 6, 38, 64
11, 527756, Note_on_c, 6, 38, 0
11, 527760, Note_on_c, 6, 38, 64
11, 527996, Note_on_c, 6, 38, 0
11, 528000, Note_on_c, 6, 38, 64
11, 528236, Note_on_c, 6, 38, 0
11, 528240, Note_on_c, 6, 38, 64
11, 528476, Note_on_c, 6, 38, 0
11, 528480, Note_on_c, 6, 38, 64
11, 528716, Note_on_c, 6, 38, 0
11, 528720, Note_on_c, 6, 38, 64
11, 528956, Note_on_c, 6, 38, 0
11, 528960, Note_on_c, 6, 38, 64
11, 529196, Note_on_c, 6, 38, 0
11, 529200, Note_on_c, 6, 38, 64
11, 529436, Note_on_c, 6, 38, 0
11, 529440, Note_on_c, 6, 38, 64
11, 529676, Note_on_c, 6, 38, 0
11, 529680, Note_on_c, 6, 38, 64
11, 529916, Note_on_c, 6, 38, 0
11, 529920, Note_on_c, 6, 38, 64
11, 530156, Note_on_c, 6, 38, 0
11, 530160, Note_on_c, 6, 38, 64
11, 530396, Note_on_c, 6, 38, 0
11, 530400, Note_on_c, 6, 38, 64
11, 530636, Note_on_c, 6, 38, 0
11, 530640, Note_on_c, 6, 38, 64
11, 530876, Note_on_c, 6, 38, 0
11, 530880, Note_on_c, 6, 38, 64
11, 531116, Note_on_c, 6, 38, 0
11, 531120, Note_on_c, 6, 38, 64
11, 531356, Note_on_c, 6, 38, 0
11, 531360, Note_on_c, 6, 38, 64
11, 531596, Note_on_c, 6, 38, 0
11, 531600, Note_on_c, 6, 38, 64
11, 531836, Note_on_c, 6, 38, 0
11, 531840, Note_on_c, 6, 38, 64
11, 532076, Note_on_c, 6, 38, 0
11, 532080, Note_on_c, 6, 38, 64
11, 532316, Note_on_c, 6, 38, 0
11, 532320, Note_on_c, 6, 38, 64
11, 532556, Note_on_c, 6, 38, 0
11, 532560, Note_on_c, 6, 38, 64
11, 532796, Note_on_c, 6, 38, 0
11, 532800, Note_on_c, 6, 38, 64
11, 533036, Note_on_c, 6, 38, 0
11, 533040, Note_on_c, 6, 42, 64
11, 533276, Note_on_c, 6, 42, 0
11, 533280, Note_on_c, 6, 45, 64
11, 533516, Note_on_c, 6, 45, 0
11, 533520, Note_on_c, 6, 42, 64
11, 533756, Note_on_c, 6, 42, 0
11, 533760, Note_on_c, 6, 45, 64
11, 533996, Note_on_c, 6, 45, 0
11, 534000, Note_on_c, 6, 50, 64
11, 534236, Note_on_c, 6, 50, 0
11, 534240, Note_on_c, 6, 43, 64
11, 534476, Note_on_c, 6, 43, 0
11, 534480, Note_on_c, 6, 47, 64
11, 534716, Note_on_c, 6, 47, 0
11, 534720, Note_on_c, 6, 50, 64
11, 534956, Note_on_c, 6, 50, 0
11, 534960, Note_on_c, 6, 47, 64
11, 535196, Note_on_c, 6, 47, 0
11, 535200, Note_on_c, 6, 50, 64
11, 535436, Note_on_c, 6, 50, 0
11, 535440, Note_on_c, 6, 55, 64
11, 535676, Note_on_c, 6, 55, 0
11, 535680, Note_on_c, 6, 36, 64
11, 536156, Note_on_c, 6, 36, 0
11, 537120, Note_on_c, 6, 48, 64
11, 537596, Note_on_c, 6, 48, 0
11, 538560, Note_on_c, 6, 47, 64
11, 538796, Note_on_c, 6, 47, 0
11, 538800, Note_on_c, 6, 45, 64
11, 539036, Note_on_c, 6, 45, 0
11, 539040, Note_on_c, 6, 43, 64
11, 539276, Note_on_c, 6, 43, 0
11, 539280, Note_on_c, 6, 50, 64
11, 539756, Note_on_c, 6, 50, 0
11, 539760, Note_on_c, 6, 38, 64
11, 539996, Note_on_c, 6, 38, 0
11, 540000, Note_on_c, 6, 43, 64
11, 541436, Note_on_c, 6, 43, 0
11, 541436, End_track
12, 0, Start_track
12, 0, End_track
0, 0, End_of_file
