0, 0, Header, 1, 25, 240
1, 0, Start_track
1, 0, Time_signature, 4, 2, 24, 8
1, 0, Tempo, 326087
1, 0, Marker_t, "Bourrée 1"
1, 46080, Tempo, 348837
1, 47040, Marker_t, "Bourrée 2"
1, 99840, Tempo, 333333
1, 100800, Tempo, 326087
1, 100800, Marker_t, "Bourrée 1 Repeat"
1, 145080, Tempo, 348837
1, 145368, Tempo, 372671
1, 145752, Tempo, 431655
1, 145920, Tempo, 375000
1, 145920, End_track
2, 0, Start_track
2, 0, Title_t, "Trumpet"
2, 0, Program_c, 0, 56
2, 0, Control_c, 0, 7, 127
2, 709, Note_on_c, 0, 78, 98
2, 767, Note_off_c, 0, 78, 64
2, 812, Note_on_c, 0, 76, 89
2, 873, Note_off_c, 0, 76, 64
2, 935, Note_on_c, 0, 78, 100
2, 1001, Note_off_c, 0, 78, 64
2, 1173, Note_on_c, 0, 79, 87
2, 1488, Note_off_c, 0, 79, 64
2, 1548, Note_on_c, 0, 78, 87
2, 1603, Note_off_c, 0, 78, 64
2, 1664, Note_on_c, 0, 76, 95
2, 1721, Note_off_c, 0, 76, 64
2, 1778, Note_on_c, 0, 74, 85
2, 1842, Note_off_c, 0, 74, 64
2, 1920, Note_on_c, 0, 81, 91
2, 1972, Note_off_c, 0, 81, 64
2, 2155, Note_on_c, 0, 74, 89
2, 2635, Note_off_c, 0, 74, 64
2, 8403, Note_on_c, 0, 78, 107
2, 8459, Note_off_c, 0, 78, 64
2, 8504, Note_on_c, 0, 76, 98
2, 8562, Note_off_c, 0, 76, 64
2, 8621, Note_on_c, 0, 78, 98
2, 8685, Note_off_c, 0, 78, 64
2, 8861, Note_on_c, 0, 79, 89
2, 9178, Note_off_c, 0, 79, 64
2, 9229, Note_on_c, 0, 78, 87
2, 9288, Note_off_c, 0, 78, 64
2, 9335, Note_on_c, 0, 76, 91
2, 9394, Note_off_c, 0, 76, 64
2, 9442, Note_on_c, 0, 74, 98
2, 9514, Note_off_c, 0, 74, 64
2, 9587, Note_on_c, 0, 81, 100
2, 9651, Note_off_c, 0, 81, 64
2, 9829, Note_on_c, 0, 74, 98
2, 10340, Note_off_c, 0, 74, 64
2, 100549, Note_on_c, 0, 78, 98
2, 100607, Note_off_c, 0, 78, 64
2, 100652, Note_on_c, 0, 76, 89
2, 100713, Note_off_c, 0, 76, 64
2, 100775, Note_on_c, 0, 78, 100
2, 100841, Note_off_c, 0, 78, 64
2, 101013, Note_on_c, 0, 79, 87
2, 101328, Note_off_c, 0, 79, 64
2, 101388, Note_on_c, 0, 78, 87
2, 101443, Note_off_c, 0, 78, 64
2, 101504, Note_on_c, 0, 76, 95
2, 101561, Note_off_c, 0, 76, 64
2, 101618, Note_on_c, 0, 74, 85
2, 101682, Note_off_c, 0, 74, 64
2, 101760, Note_on_c, 0, 81, 91
2, 101812, Note_off_c, 0, 81, 64
2, 101995, Note_on_c, 0, 74, 89
2, 102475, Note_off_c, 0, 74, 64
2, 108243, Note_on_c, 0, 78, 107
2, 108299, Note_off_c, 0, 78, 64
2, 108344, Note_on_c, 0, 76, 98
2, 108402, Note_off_c, 0, 76, 64
2, 108461, Note_on_c, 0, 78, 98
2, 108525, Note_off_c, 0, 78, 64
2, 108701, Note_on_c, 0, 79, 89
2, 109018, Note_off_c, 0, 79, 64
2, 109069, Note_on_c, 0, 78, 87
2, 109128, Note_off_c, 0, 78, 64
2, 109175, Note_on_c, 0, 76, 91
2, 109234, Note_off_c, 0, 76, 64
2, 109282, Note_on_c, 0, 74, 98
2, 109354, Note_off_c, 0, 74, 64
2, 109427, Note_on_c, 0, 81, 100
2, 109491, Note_off_c, 0, 81, 64
2, 109669, Note_on_c, 0, 74, 98
2, 110180, Note_off_c, 0, 74, 64
2, 110180, End_track
3, 0, Start_track
3, 0, Title_t, "Trumpet"
3, 0, Program_c, 1, 56
3, 0, Control_c, 1, 7, 127
3, 721, Note_on_c, 1, 74, 102
3, 804, Note_off_c, 1, 74, 64
3, 968, Note_on_c, 1, 74, 102
3, 1096, Note_off_c, 1, 74, 64
3, 1427, Note_on_c, 1, 74, 105
3, 1567, Note_off_c, 1, 74, 64
3, 1910, Note_on_c, 1, 74, 113
3, 1973, Note_off_c, 1, 74, 64
3, 2153, Note_on_c, 1, 69, 82
3, 2644, Note_off_c, 1, 69, 64
3, 8402, Note_on_c, 1, 74, 100
3, 8495, Note_off_c, 1, 74, 64
3, 8649, Note_on_c, 1, 74, 98
3, 8785, Note_off_c, 1, 74, 64
3, 9105, Note_on_c, 1, 74, 93
3, 9238, Note_off_c, 1, 74, 64
3, 9559, Note_on_c, 1, 74, 102
3, 9630, Note_off_c, 1, 74, 64
3, 9819, Note_on_c, 1, 69, 98
3, 10334, Note_off_c, 1, 69, 64
3, 100561, Note_on_c, 1, 74, 102
3, 100644, Note_off_c, 1, 74, 64
3, 100808, Note_on_c, 1, 74, 102
3, 100936, Note_off_c, 1, 74, 64
3, 101267, Note_on_c, 1, 74, 105
3, 101407, Note_off_c, 1, 74, 64
3, 101750, Note_on_c, 1, 74, 113
3, 101813, Note_off_c, 1, 74, 64
3, 101993, Note_on_c, 1, 69, 82
3, 102484, Note_off_c, 1, 69, 64
3, 108242, Note_on_c, 1, 74, 100
3, 108335, Note_off_c, 1, 74, 64
3, 108489, Note_on_c, 1, 74, 98
3, 108625, Note_off_c, 1, 74, 64
3, 108945, Note_on_c, 1, 74, 93
3, 109078, Note_off_c, 1, 74, 64
3, 109399, Note_on_c, 1, 74, 102
3, 109470, Note_off_c, 1, 74, 64
3, 109659, Note_on_c, 1, 69, 98
3, 110174, Note_off_c, 1, 69, 64
3, 110174, End_track
4, 0, Start_track
4, 0, Title_t, "Trumpet"
4, 0, Program_c, 2, 56
4, 0, Control_c, 2, 7, 127
4, 709, Note_on_c, 2, 69, 102
4, 785, Note_off_c, 2, 69, 64
4, 956, Note_on_c, 2, 62, 100
4, 1084, Note_off_c, 2, 62, 64
4, 1427, Note_on_c, 2, 62, 89
4, 1541, Note_off_c, 2, 62, 64
4, 1903, Note_on_c, 2, 62, 87
4, 1987, Note_off_c, 2, 62, 64
4, 2148, Note_on_c, 2, 66, 102
4, 2640, Note_off_c, 2, 66, 64
4, 8395, Note_on_c, 2, 69, 100
4, 8493, Note_off_c, 2, 69, 64
4, 8628, Note_on_c, 2, 62, 100
4, 8771, Note_off_c, 2, 62, 64
4, 9103, Note_on_c, 2, 62, 100
4, 9228, Note_off_c, 2, 62, 64
4, 9572, Note_on_c, 2, 62, 102
4, 9653, Note_off_c, 2, 62, 64
4, 9815, Note_on_c, 2, 66, 105
4, 10294, Note_off_c, 2, 66, 64
4, 100549, Note_on_c, 2, 69, 102
4, 100625, Note_off_c, 2, 69, 64
4, 100796, Note_on_c, 2, 62, 100
4, 100924, Note_off_c, 2, 62, 64
4, 101267, Note_on_c, 2, 62, 89
4, 101381, Note_off_c, 2, 62, 64
4, 101743, Note_on_c, 2, 62, 87
4, 101827, Note_off_c, 2, 62, 64
4, 101988, Note_on_c, 2, 66, 102
4, 102480, Note_off_c, 2, 66, 64
4, 108235, Note_on_c, 2, 69, 100
4, 108333, Note_off_c, 2, 69, 64
4, 108468, Note_on_c, 2, 62, 100
4, 108611, Note_off_c, 2, 62, 64
4, 108943, Note_on_c, 2, 62, 100
4, 109068, Note_off_c, 2, 62, 64
4, 109412, Note_on_c, 2, 62, 102
4, 109493, Note_off_c, 2, 62, 64
4, 109655, Note_on_c, 2, 66, 105
4, 110134, Note_off_c, 2, 66, 64
4, 110134, End_track
5, 0, Start_track
5, 0, Title_t, "Timpani"
5, 0, Program_c, 3, 47
5, 0, Control_c, 3, 7, 100
5, 714, Note_on_c, 3, 50, 107
5, 762, Note_off_c, 3, 50, 64
5, 817, Note_on_c, 3, 50, 102
5, 873, Note_off_c, 3, 50, 64
5, 933, Note_on_c, 3, 50, 113
5, 1028, Note_off_c, 3, 50, 64
5, 1419, Note_on_c, 3, 50, 110
5, 1509, Note_off_c, 3, 50, 64
5, 1913, Note_on_c, 3, 50, 116
5, 1996, Note_off_c, 3, 50, 64
5, 2153, Note_on_c, 3, 50, 107
5, 2200, Note_off_c, 3, 50, 64
5, 2266, Note_on_c, 3, 50, 105
5, 2319, Note_off_c, 3, 50, 64
5, 2386, Note_on_c, 3, 50, 119
5, 2463, Note_off_c, 3, 50, 64
5, 8403, Note_on_c, 3, 50, 119
5, 8457, Note_off_c, 3, 50, 64
5, 8512, Note_on_c, 3, 50, 107
5, 8573, Note_off_c, 3, 50, 64
5, 8633, Note_on_c, 3, 50, 116
5, 8723, Note_off_c, 3, 50, 64
5, 9112, Note_on_c, 3, 50, 122
5, 9209, Note_off_c, 3, 50, 64
5, 9577, Note_on_c, 3, 50, 116
5, 9654, Note_off_c, 3, 50, 64
5, 9826, Note_on_c, 3, 50, 119
5, 9874, Note_off_c, 3, 50, 64
5, 9933, Note_on_c, 3, 50, 105
5, 9990, Note_off_c, 3, 50, 64
5, 10061, Note_on_c, 3, 50, 127
5, 10126, Note_off_c, 3, 50, 64
5, 100554, Note_on_c, 3, 50, 107
5, 100602, Note_off_c, 3, 50, 64
5, 100657, Note_on_c, 3, 50, 102
5, 100713, Note_off_c, 3, 50, 64
5, 100773, Note_on_c, 3, 50, 113
5, 100868, Note_off_c, 3, 50, 64
5, 101259, Note_on_c, 3, 50, 110
5, 101349, Note_off_c, 3, 50, 64
5, 101753, Note_on_c, 3, 50, 116
5, 101836, Note_off_c, 3, 50, 64
5, 101993, Note_on_c, 3, 50, 107
5, 102040, Note_off_c, 3, 50, 64
5, 102106, Note_on_c, 3, 50, 105
5, 102159, Note_off_c, 3, 50, 64
5, 102226, Note_on_c, 3, 50, 119
5, 102303, Note_off_c, 3, 50, 64
5, 108243, Note_on_c, 3, 50, 119
5, 108297, Note_off_c, 3, 50, 64
5, 108352, Note_on_c, 3, 50, 107
5, 108413, Note_off_c, 3, 50, 64
5, 108473, Note_on_c, 3, 50, 116
5, 108563, Note_off_c, 3, 50, 64
5, 108952, Note_on_c, 3, 50, 122
5, 109049, Note_off_c, 3, 50, 64
5, 109417, Note_on_c, 3, 50, 116
5, 109494, Note_off_c, 3, 50, 64
5, 109666, Note_on_c, 3, 50, 119
5, 109714, Note_off_c, 3, 50, 64
5, 109773, Note_on_c, 3, 50, 105
5, 109830, Note_off_c, 3, 50, 64
5, 109901, Note_on_c, 3, 50, 127
5, 109966, Note_off_c, 3, 50, 64
5, 109966, End_track
6, 0, Start_track
6, 0, Title_t, "Oboe"
6, 0, Program_c, 4, 68
6, 0, Control_c, 4, 7, 100
6, 722, Note_on_c, 4, 78, 95
6, 800, Note_off_c, 4, 78, 64
6, 828, Note_on_c, 4, 76, 80
6, 905, Note_off_c, 4, 76, 64
6, 947, Note_on_c, 4, 78, 82
6, 1040, Note_off_c, 4, 78, 64
6, 1199, Note_on_c, 4, 79, 78
6, 1515, Note_off_c, 4, 79, 64
6, 1545, Note_on_c, 4, 78, 78
6, 1609, Note_off_c, 4, 78, 64
6, 1654, Note_on_c, 4, 76, 70
6, 1728, Note_off_c, 4, 76, 64
6, 1755, Note_on_c, 4, 74, 80
6, 1834, Note_off_c, 4, 74, 64
6, 1901, Note_on_c, 4, 81, 95
6, 1965, Note_off_c, 4, 81, 64
6, 2155, Note_on_c, 4, 74, 85
6, 2516, Note_off_c, 4, 74, 64
6, 2633, Note_on_c, 4, 76, 80
6, 2687, Note_off_c, 4, 76, 64
6, 2749, Note_on_c, 4, 78, 82
6, 2803, Note_off_c, 4, 78, 64
6, 2870, Note_on_c, 4, 71, 85
6, 3109, Note_off_c, 4, 71, 64
6, 3129, Note_on_c, 4, 73, 64
6, 3280, Note_off_c, 4, 73, 64
6, 3361, Note_on_c, 4, 73, 85
6, 3461, Note_on_c, 4, 71, 72
6, 3490, Note_off_c, 4, 73, 64
6, 3534, Note_off_c, 4, 71, 64
6, 3579, Note_on_c, 4, 73, 89
6, 3691, Note_on_c, 4, 74, 80
6, 3706, Note_off_c, 4, 73, 64
6, 3770, Note_off_c, 4, 74, 64
6, 3820, Note_on_c, 4, 76, 95
6, 3907, Note_off_c, 4, 76, 64
6, 4062, Note_on_c, 4, 69, 89
6, 4411, Note_off_c, 4, 69, 64
6, 4551, Note_on_c, 4, 71, 82
6, 4621, Note_off_c, 4, 71, 64
6, 4660, Note_on_c, 4, 73, 78
6, 4729, Note_off_c, 4, 73, 64
6, 4781, Note_on_c, 4, 74, 87
6, 4887, Note_on_c, 4, 73, 78
6, 4918, Note_off_c, 4, 74, 64
6, 4976, Note_off_c, 4, 73, 64
6, 5002, Note_on_c, 4, 74, 70
6, 5077, Note_off_c, 4, 74, 64
6, 5123, Note_on_c, 4, 78, 82
6, 5168, Note_off_c, 4, 78, 64
6, 5262, Note_on_c, 4, 76, 93
6, 5376, Note_on_c, 4, 74, 68
6, 5383, Note_off_c, 4, 76, 64
6, 5483, Note_on_c, 4, 73, 68
6, 5491, Note_off_c, 4, 74, 64
6, 5569, Note_off_c, 4, 73, 64
6, 5597, Note_on_c, 4, 71, 80
6, 5683, Note_off_c, 4, 71, 64
6, 5742, Note_on_c, 4, 83, 87
6, 5813, Note_off_c, 4, 83, 64
6, 5987, Note_on_c, 4, 74, 89
6, 6350, Note_off_c, 4, 74, 64
6, 6483, Note_on_c, 4, 73, 85
6, 6568, Note_off_c, 4, 73, 64
6, 6592, Note_on_c, 4, 74, 82
6, 6653, Note_off_c, 4, 74, 64
6, 6704, Note_on_c, 4, 76, 78
6, 6768, Note_off_c, 4, 76, 64
6, 6810, Note_on_c, 4, 73, 70
6, 6867, Note_off_c, 4, 73, 64
6, 6933, Note_on_c, 4, 74, 82
6, 7088, Note_off_c, 4, 74, 64
6, 7181, Note_on_c, 4, 73, 91
6, 7256, Note_off_c, 4, 73, 64
6, 7287, Note_on_c, 4, 69, 64
6, 7354, Note_off_c, 4, 69, 64
6, 7413, Note_on_c, 4, 71, 82
6, 7494, Note_off_c, 4, 71, 64
6, 7670, Note_on_c, 4, 69, 82
6, 8177, Note_off_c, 4, 69, 64
6, 8382, Note_on_c, 4, 78, 98
6, 8453, Note_off_c, 4, 78, 64
6, 8488, Note_on_c, 4, 76, 82
6, 8553, Note_off_c, 4, 76, 64
6, 8610, Note_on_c, 4, 78, 85
6, 8676, Note_off_c, 4, 78, 64
6, 8861, Note_on_c, 4, 79, 82
6, 9203, Note_off_c, 4, 79, 64
6, 9234, Note_on_c, 4, 78, 80
6, 9295, Note_off_c, 4, 78, 64
6, 9348, Note_on_c, 4, 76, 80
6, 9407, Note_off_c, 4, 76, 64
6, 9454, Note_on_c, 4, 74, 85
6, 9537, Note_off_c, 4, 74, 64
6, 9595, Note_on_c, 4, 81, 89
6, 9668, Note_off_c, 4, 81, 64
6, 9841, Note_on_c, 4, 74, 87
6, 10200, Note_off_c, 4, 74, 64
6, 10300, Note_on_c, 4, 76, 82
6, 10359, Note_off_c, 4, 76, 64
6, 10414, Note_on_c, 4, 78, 85
6, 10466, Note_off_c, 4, 78, 64
6, 10537, Note_on_c, 4, 71, 91
6, 10784, Note_off_c, 4, 71, 64
6, 10791, Note_on_c, 4, 73, 62
6, 10978, Note_off_c, 4, 73, 64
6, 11031, Note_on_c, 4, 73, 87
6, 11144, Note_on_c, 4, 71, 82
6, 11166, Note_off_c, 4, 73, 64
6, 11202, Note_off_c, 4, 71, 64
6, 11259, Note_on_c, 4, 73, 89
6, 11367, Note_on_c, 4, 74, 82
6, 11370, Note_off_c, 4, 73, 64
6, 11441, Note_off_c, 4, 74, 64
6, 11500, Note_on_c, 4, 76, 98
6, 11565, Note_off_c, 4, 76, 64
6, 11749, Note_on_c, 4, 69, 87
6, 12091, Note_off_c, 4, 69, 64
6, 12227, Note_on_c, 4, 71, 85
6, 12300, Note_off_c, 4, 71, 64
6, 12338, Note_on_c, 4, 73, 85
6, 12407, Note_off_c, 4, 73, 64
6, 12460, Note_on_c, 4, 74, 89
6, 12571, Note_on_c, 4, 73, 82
6, 12602, Note_off_c, 4, 74, 64
6, 12678, Note_off_c, 4, 73, 64
6, 12689, Note_on_c, 4, 74, 78
6, 12752, Note_off_c, 4, 74, 64
6, 12808, Note_on_c, 4, 78, 80
6, 12858, Note_off_c, 4, 78, 64
6, 12937, Note_on_c, 4, 76, 100
6, 13043, Note_on_c, 4, 74, 78
6, 13053, Note_off_c, 4, 76, 64
6, 13148, Note_on_c, 4, 73, 68
6, 13160, Note_off_c, 4, 74, 64
6, 13236, Note_off_c, 4, 73, 64
6, 13266, Note_on_c, 4, 71, 68
6, 13349, Note_off_c, 4, 71, 64
6, 13415, Note_on_c, 4, 83, 82
6, 13471, Note_off_c, 4, 83, 64
6, 13661, Note_on_c, 4, 74, 87
6, 14045, Note_off_c, 4, 74, 64
6, 14147, Note_on_c, 4, 73, 87
6, 14244, Note_on_c, 4, 74, 82
6, 14254, Note_off_c, 4, 73, 64
6, 14318, Note_off_c, 4, 74, 64
6, 14364, Note_on_c, 4, 76, 82
6, 14432, Note_off_c, 4, 76, 64
6, 14474, Note_on_c, 4, 73, 82
6, 14534, Note_off_c, 4, 73, 64
6, 14601, Note_on_c, 4, 74, 85
6, 14726, Note_off_c, 4, 74, 64
6, 14854, Note_on_c, 4, 73, 87
6, 14928, Note_off_c, 4, 73, 64
6, 14964, Note_on_c, 4, 69, 78
6, 15033, Note_off_c, 4, 69, 64
6, 15094, Note_on_c, 4, 71, 82
6, 15179, Note_off_c, 4, 71, 64
6, 15351, Note_on_c, 4, 69, 89
6, 15853, Note_off_c, 4, 69, 64
6, 46820, Note_on_c, 4, 78, 100
6, 46910, Note_off_c, 4, 78, 64
6, 47059, Note_on_c, 4, 76, 85
6, 47304, Note_on_c, 4, 74, 42
6, 47306, Note_off_c, 4, 76, 64
6, 47564, Note_off_c, 4, 74, 64
6, 47741, Note_on_c, 4, 76, 80
6, 47828, Note_off_c, 4, 76, 64
6, 47992, Note_on_c, 4, 74, 87
6, 48229, Note_on_c, 4, 73, 42
6, 48232, Note_off_c, 4, 74, 64
6, 48490, Note_off_c, 4, 73, 64
6, 48726, Note_on_c, 4, 79, 78
6, 48840, Note_off_c, 4, 79, 64
6, 48960, Note_on_c, 4, 78, 61
6, 49188, Note_off_c, 4, 78, 64
6, 49195, Note_on_c, 4, 76, 68
6, 49430, Note_off_c, 4, 76, 64
6, 49435, Note_on_c, 4, 74, 74
6, 49672, Note_off_c, 4, 74, 64
6, 49687, Note_on_c, 4, 73, 57
6, 49887, Note_off_c, 4, 73, 64
6, 49918, Note_on_c, 4, 74, 82
6, 50136, Note_off_c, 4, 74, 64
6, 50156, Note_on_c, 4, 73, 55
6, 50247, Note_on_c, 4, 74, 53
6, 50252, Note_off_c, 4, 73, 64
6, 50359, Note_off_c, 4, 74, 64
6, 50389, Note_on_c, 4, 71, 52
6, 50491, Note_off_c, 4, 71, 64
6, 50627, Note_on_c, 4, 74, 85
6, 50727, Note_off_c, 4, 74, 64
6, 50885, Note_on_c, 4, 74, 85
6, 51113, Note_on_c, 4, 76, 62
6, 51135, Note_off_c, 4, 74, 64
6, 51398, Note_off_c, 4, 76, 64
6, 51597, Note_on_c, 4, 73, 66
6, 51687, Note_off_c, 4, 73, 64
6, 51840, Note_on_c, 4, 73, 80
6, 52086, Note_on_c, 4, 74, 57
6, 52102, Note_off_c, 4, 73, 64
6, 52316, Note_off_c, 4, 74, 64
6, 52557, Note_on_c, 4, 78, 72
6, 52649, Note_off_c, 4, 78, 64
6, 52805, Note_on_c, 4, 78, 100
6, 53027, Note_on_c, 4, 79, 56
6, 53033, Note_off_c, 4, 78, 64
6, 53319, Note_off_c, 4, 79, 64
6, 53520, Note_on_c, 4, 76, 85
6, 53612, Note_off_c, 4, 76, 64
6, 53751, Note_on_c, 4, 76, 85
6, 53998, Note_on_c, 4, 78, 40
6, 54007, Note_off_c, 4, 76, 64
6, 54256, Note_off_c, 4, 78, 64
6, 54472, Note_on_c, 4, 81, 74
6, 54565, Note_off_c, 4, 81, 64
6, 54716, Note_on_c, 4, 81, 87
6, 54956, Note_on_c, 4, 83, 52
6, 54978, Note_off_c, 4, 81, 64
6, 55263, Note_off_c, 4, 83, 64
6, 55417, Note_on_c, 4, 80, 85
6, 55514, Note_off_c, 4, 80, 64
6, 55661, Note_on_c, 4, 80, 95
6, 55896, Note_off_c, 4, 80, 64
6, 55903, Note_on_c, 4, 85, 57
6, 56193, Note_off_c, 4, 85, 64
6, 56385, Note_on_c, 4, 83, 72
6, 56466, Note_off_c, 4, 83, 64
6, 56634, Note_on_c, 4, 81, 85
6, 56801, Note_off_c, 4, 81, 64
6, 56867, Note_on_c, 4, 80, 66
6, 56947, Note_off_c, 4, 80, 64
6, 56967, Note_on_c, 4, 78, 80
6, 57045, Note_off_c, 4, 78, 64
6, 57087, Note_on_c, 4, 80, 70
6, 57186, Note_off_c, 4, 80, 64
6, 57339, Note_on_c, 4, 77, 78
6, 57432, Note_off_c, 4, 77, 64
6, 57589, Note_on_c, 4, 78, 64
6, 58075, Note_off_c, 4, 78, 64
6, 58313, Note_on_c, 4, 78, 66
6, 58403, Note_off_c, 4, 78, 64
6, 58564, Note_on_c, 4, 76, 85
6, 58808, Note_on_c, 4, 74, 59
6, 58837, Note_off_c, 4, 76, 64
6, 59082, Note_off_c, 4, 74, 64
6, 59266, Note_on_c, 4, 76, 82
6, 59361, Note_off_c, 4, 76, 64
6, 59509, Note_on_c, 4, 74, 89
6, 59761, Note_on_c, 4, 73, 42
6, 59770, Note_off_c, 4, 74, 64
6, 60044, Note_off_c, 4, 73, 64
6, 60237, Note_on_c, 4, 79, 68
6, 60434, Note_off_c, 4, 79, 64
6, 60461, Note_on_c, 4, 78, 60
6, 60703, Note_on_c, 4, 76, 61
6, 60707, Note_off_c, 4, 78, 64
6, 60943, Note_off_c, 4, 76, 64
6, 60952, Note_on_c, 4, 74, 60
6, 61180, Note_on_c, 4, 73, 56
6, 61192, Note_off_c, 4, 74, 64
6, 61377, Note_off_c, 4, 73, 64
6, 61427, Note_on_c, 4, 74, 70
6, 61655, Note_on_c, 4, 73, 51
6, 61659, Note_off_c, 4, 74, 64
6, 61764, Note_on_c, 4, 74, 57
6, 61767, Note_off_c, 4, 73, 64
6, 61880, Note_off_c, 4, 74, 64
6, 61900, Note_on_c, 4, 71, 43
6, 62022, Note_off_c, 4, 71, 64
6, 62143, Note_on_c, 4, 74, 78
6, 62241, Note_off_c, 4, 74, 64
6, 62400, Note_on_c, 4, 74, 85
6, 62639, Note_on_c, 4, 76, 47
6, 62640, Note_off_c, 4, 74, 64
6, 62914, Note_off_c, 4, 76, 64
6, 63119, Note_on_c, 4, 73, 64
6, 63197, Note_off_c, 4, 73, 64
6, 63359, Note_on_c, 4, 73, 72
6, 63602, Note_on_c, 4, 74, 53
6, 63615, Note_off_c, 4, 73, 64
6, 63878, Note_off_c, 4, 74, 64
6, 64069, Note_on_c, 4, 78, 64
6, 64161, Note_off_c, 4, 78, 64
6, 64320, Note_on_c, 4, 78, 95
6, 64562, Note_on_c, 4, 79, 57
6, 64567, Note_off_c, 4, 78, 64
6, 64873, Note_off_c, 4, 79, 64
6, 65032, Note_on_c, 4, 76, 68
6, 65118, Note_off_c, 4, 76, 64
6, 65274, Note_on_c, 4, 76, 87
6, 65505, Note_off_c, 4, 76, 64
6, 65512, Note_on_c, 4, 78, 42
6, 65784, Note_off_c, 4, 78, 64
6, 65987, Note_on_c, 4, 81, 76
6, 66070, Note_off_c, 4, 81, 64
6, 66228, Note_on_c, 4, 81, 80
6, 66475, Note_off_c, 4, 81, 64
6, 66480, Note_on_c, 4, 83, 41
6, 66758, Note_off_c, 4, 83, 64
6, 66938, Note_on_c, 4, 80, 59
6, 67026, Note_off_c, 4, 80, 64
6, 67185, Note_on_c, 4, 80, 80
6, 67411, Note_off_c, 4, 80, 64
6, 67418, Note_on_c, 4, 85, 57
6, 67691, Note_off_c, 4, 85, 64
6, 67899, Note_on_c, 4, 83, 78
6, 67975, Note_off_c, 4, 83, 64
6, 68141, Note_on_c, 4, 81, 85
6, 68339, Note_off_c, 4, 81, 64
6, 68384, Note_on_c, 4, 80, 58
6, 68488, Note_on_c, 4, 78, 63
6, 68493, Note_off_c, 4, 80, 64
6, 68560, Note_off_c, 4, 78, 64
6, 68612, Note_on_c, 4, 80, 70
6, 68752, Note_off_c, 4, 80, 64
6, 68846, Note_on_c, 4, 78, 64
6, 68949, Note_on_c, 4, 77, 76
6, 68968, Note_off_c, 4, 78, 64
6, 69032, Note_off_c, 4, 77, 64
6, 69100, Note_on_c, 4, 77, 70
6, 69345, Note_on_c, 4, 78, 53
6, 69355, Note_off_c, 4, 77, 64
6, 69602, Note_off_c, 4, 78, 64
6, 100562, Note_on_c, 4, 78, 95
6, 100640, Note_off_c, 4, 78, 64
6, 100668, Note_on_c, 4, 76, 80
6, 100745, Note_off_c, 4, 76, 64
6, 100787, Note_on_c, 4, 78, 82
6, 100880, Note_off_c, 4, 78, 64
6, 101039, Note_on_c, 4, 79, 78
6, 101355, Note_off_c, 4, 79, 64
6, 101385, Note_on_c, 4, 78, 78
6, 101449, Note_off_c, 4, 78, 64
6, 101494, Note_on_c, 4, 76, 70
6, 101568, Note_off_c, 4, 76, 64
6, 101595, Note_on_c, 4, 74, 80
6, 101674, Note_off_c, 4, 74, 64
6, 101741, Note_on_c, 4, 81, 95
6, 101805, Note_off_c, 4, 81, 64
6, 101995, Note_on_c, 4, 74, 85
6, 102356, Note_off_c, 4, 74, 64
6, 102473, Note_on_c, 4, 76, 80
6, 102527, Note_off_c, 4, 76, 64
6, 102589, Note_on_c, 4, 78, 82
6, 102643, Note_off_c, 4, 78, 64
6, 102710, Note_on_c, 4, 71, 85
6, 102949, Note_off_c, 4, 71, 64
6, 102969, Note_on_c, 4, 73, 64
6, 103120, Note_off_c, 4, 73, 64
6, 103201, Note_on_c, 4, 73, 85
6, 103301, Note_on_c, 4, 71, 72
6, 103330, Note_off_c, 4, 73, 64
6, 103374, Note_off_c, 4, 71, 64
6, 103419, Note_on_c, 4, 73, 89
6, 103531, Note_on_c, 4, 74, 80
6, 103546, Note_off_c, 4, 73, 64
6, 103610, Note_off_c, 4, 74, 64
6, 103660, Note_on_c, 4, 76, 95
6, 103747, Note_off_c, 4, 76, 64
6, 103902, Note_on_c, 4, 69, 89
6, 104251, Note_off_c, 4, 69, 64
6, 104391, Note_on_c, 4, 71, 82
6, 104461, Note_off_c, 4, 71, 64
6, 104500, Note_on_c, 4, 73, 78
6, 104569, Note_off_c, 4, 73, 64
6, 104621, Note_on_c, 4, 74, 87
6, 104727, Note_on_c, 4, 73, 78
6, 104758, Note_off_c, 4, 74, 64
6, 104816, Note_off_c, 4, 73, 64
6, 104842, Note_on_c, 4, 74, 70
6, 104917, Note_off_c, 4, 74, 64
6, 104963, Note_on_c, 4, 78, 82
6, 105008, Note_off_c, 4, 78, 64
6, 105102, Note_on_c, 4, 76, 93
6, 105216, Note_on_c, 4, 74, 68
6, 105223, Note_off_c, 4, 76, 64
6, 105323, Note_on_c, 4, 73, 68
6, 105331, Note_off_c, 4, 74, 64
6, 105409, Note_off_c, 4, 73, 64
6, 105437, Note_on_c, 4, 71, 80
6, 105523, Note_off_c, 4, 71, 64
6, 105582, Note_on_c, 4, 83, 87
6, 105653, Note_off_c, 4, 83, 64
6, 105827, Note_on_c, 4, 74, 89
6, 106190, Note_off_c, 4, 74, 64
6, 106323, Note_on_c, 4, 73, 85
6, 106408, Note_off_c, 4, 73, 64
6, 106432, Note_on_c, 4, 74, 82
6, 106493, Note_off_c, 4, 74, 64
6, 106544, Note_on_c, 4, 76, 78
6, 106608, Note_off_c, 4, 76, 64
6, 106650, Note_on_c, 4, 73, 70
6, 106707, Note_off_c, 4, 73, 64
6, 106773, Note_on_c, 4, 74, 82
6, 106928, Note_off_c, 4, 74, 64
6, 107021, Note_on_c, 4, 73, 91
6, 107096, Note_off_c, 4, 73, 64
6, 107127, Note_on_c, 4, 69, 64
6, 107194, Note_off_c, 4, 69, 64
6, 107253, Note_on_c, 4, 71, 82
6, 107334, Note_off_c, 4, 71, 64
6, 107510, Note_on_c, 4, 69, 82
6, 108017, Note_off_c, 4, 69, 64
6, 108222, Note_on_c, 4, 78, 98
6, 108293, Note_off_c, 4, 78, 64
6, 108328, Note_on_c, 4, 76, 82
6, 108393, Note_off_c, 4, 76, 64
6, 108450, Note_on_c, 4, 78, 85
6, 108516, Note_off_c, 4, 78, 64
6, 108701, Note_on_c, 4, 79, 82
6, 109043, Note_off_c, 4, 79, 64
6, 109074, Note_on_c, 4, 78, 80
6, 109135, Note_off_c, 4, 78, 64
6, 109188, Note_on_c, 4, 76, 80
6, 109247, Note_off_c, 4, 76, 64
6, 109294, Note_on_c, 4, 74, 85
6, 109377, Note_off_c, 4, 74, 64
6, 109435, Note_on_c, 4, 81, 89
6, 109508, Note_off_c, 4, 81, 64
6, 109681, Note_on_c, 4, 74, 87
6, 110040, Note_off_c, 4, 74, 64
6, 110140, Note_on_c, 4, 76, 82
6, 110199, Note_off_c, 4, 76, 64
6, 110254, Note_on_c, 4, 78, 85
6, 110306, Note_off_c, 4, 78, 64
6, 110377, Note_on_c, 4, 71, 91
6, 110624, Note_off_c, 4, 71, 64
6, 110631, Note_on_c, 4, 73, 62
6, 110818, Note_off_c, 4, 73, 64
6, 110871, Note_on_c, 4, 73, 87
6, 110984, Note_on_c, 4, 71, 82
6, 111006, Note_off_c, 4, 73, 64
6, 111042, Note_off_c, 4, 71, 64
6, 111099, Note_on_c, 4, 73, 89
6, 111207, Note_on_c, 4, 74, 82
6, 111210, Note_off_c, 4, 73, 64
6, 111281, Note_off_c, 4, 74, 64
6, 111340, Note_on_c, 4, 76, 98
6, 111405, Note_off_c, 4, 76, 64
6, 111589, Note_on_c, 4, 69, 87
6, 111931, Note_off_c, 4, 69, 64
6, 112067, Note_on_c, 4, 71, 85
6, 112140, Note_off_c, 4, 71, 64
6, 112178, Note_on_c, 4, 73, 85
6, 112247, Note_off_c, 4, 73, 64
6, 112300, Note_on_c, 4, 74, 89
6, 112411, Note_on_c, 4, 73, 82
6, 112442, Note_off_c, 4, 74, 64
6, 112518, Note_off_c, 4, 73, 64
6, 112529, Note_on_c, 4, 74, 78
6, 112592, Note_off_c, 4, 74, 64
6, 112648, Note_on_c, 4, 78, 80
6, 112698, Note_off_c, 4, 78, 64
6, 112777, Note_on_c, 4, 76, 100
6, 112883, Note_on_c, 4, 74, 78
6, 112893, Note_off_c, 4, 76, 64
6, 112988, Note_on_c, 4, 73, 68
6, 113000, Note_off_c, 4, 74, 64
6, 113076, Note_off_c, 4, 73, 64
6, 113106, Note_on_c, 4, 71, 68
6, 113189, Note_off_c, 4, 71, 64
6, 113255, Note_on_c, 4, 83, 82
6, 113311, Note_off_c, 4, 83, 64
6, 113501, Note_on_c, 4, 74, 87
6, 113885, Note_off_c, 4, 74, 64
6, 113987, Note_on_c, 4, 73, 87
6, 114084, Note_on_c, 4, 74, 82
6, 114094, Note_off_c, 4, 73, 64
6, 114158, Note_off_c, 4, 74, 64
6, 114204, Note_on_c, 4, 76, 82
6, 114272, Note_off_c, 4, 76, 64
6, 114314, Note_on_c, 4, 73, 82
6, 114374, Note_off_c, 4, 73, 64
6, 114441, Note_on_c, 4, 74, 85
6, 114566, Note_off_c, 4, 74, 64
6, 114694, Note_on_c, 4, 73, 87
6, 114768, Note_off_c, 4, 73, 64
6, 114804, Note_on_c, 4, 69, 78
6, 114873, Note_off_c, 4, 69, 64
6, 114934, Note_on_c, 4, 71, 82
6, 115019, Note_off_c, 4, 71, 64
6, 115191, Note_on_c, 4, 69, 89
6, 115693, Note_off_c, 4, 69, 64
6, 115693, End_track
7, 0, Start_track
7, 0, Title_t, "Oboe"
7, 0, Program_c, 5, 68
7, 0, Control_c, 5, 7, 100
7, 707, Note_on_c, 5, 74, 82
7, 795, Note_off_c, 5, 74, 64
7, 952, Note_on_c, 5, 74, 82
7, 1270, Note_off_c, 5, 74, 64
7, 1437, Note_on_c, 5, 74, 78
7, 1726, Note_off_c, 5, 74, 64
7, 1892, Note_on_c, 5, 74, 85
7, 1965, Note_off_c, 5, 74, 64
7, 2131, Note_on_c, 5, 69, 82
7, 2501, Note_off_c, 5, 69, 64
7, 2627, Note_on_c, 5, 69, 80
7, 2713, Note_off_c, 5, 69, 64
7, 2867, Note_on_c, 5, 67, 85
7, 3097, Note_off_c, 5, 67, 64
7, 3107, Note_on_c, 5, 69, 70
7, 3219, Note_off_c, 5, 69, 64
7, 3356, Note_on_c, 5, 69, 95
7, 3456, Note_on_c, 5, 67, 78
7, 3460, Note_off_c, 5, 69, 64
7, 3524, Note_off_c, 5, 67, 64
7, 3586, Note_on_c, 5, 69, 72
7, 3691, Note_on_c, 5, 71, 85
7, 3708, Note_off_c, 5, 69, 64
7, 3764, Note_off_c, 5, 71, 64
7, 3820, Note_on_c, 5, 73, 76
7, 3913, Note_off_c, 5, 73, 64
7, 4057, Note_on_c, 5, 69, 85
7, 4379, Note_off_c, 5, 69, 64
7, 4538, Note_on_c, 5, 64, 78
7, 4647, Note_off_c, 5, 64, 64
7, 4792, Note_on_c, 5, 69, 82
7, 4965, Note_off_c, 5, 69, 64
7, 5016, Note_on_c, 5, 68, 68
7, 5136, Note_off_c, 5, 68, 64
7, 5262, Note_on_c, 5, 69, 70
7, 5395, Note_off_c, 5, 69, 64
7, 5497, Note_on_c, 5, 78, 68
7, 5606, Note_off_c, 5, 78, 64
7, 5749, Note_on_c, 5, 78, 85
7, 5827, Note_off_c, 5, 78, 64
7, 5993, Note_on_c, 5, 76, 82
7, 6342, Note_off_c, 5, 76, 64
7, 6474, Note_on_c, 5, 68, 70
7, 6573, Note_off_c, 5, 68, 64
7, 6721, Note_on_c, 5, 73, 74
7, 6883, Note_off_c, 5, 73, 64
7, 6945, Note_on_c, 5, 69, 78
7, 7062, Note_off_c, 5, 69, 64
7, 7190, Note_on_c, 5, 69, 76
7, 7304, Note_off_c, 5, 69, 64
7, 7429, Note_on_c, 5, 68, 66
7, 7527, Note_off_c, 5, 68, 64
7, 7669, Note_on_c, 5, 69, 64
7, 8182, Note_off_c, 5, 69, 64
7, 8386, Note_on_c, 5, 74, 82
7, 8483, Note_off_c, 5, 74, 64
7, 8631, Note_on_c, 5, 74, 80
7, 8977, Note_off_c, 5, 74, 64
7, 9100, Note_on_c, 5, 74, 80
7, 9425, Note_off_c, 5, 74, 64
7, 9584, Note_on_c, 5, 74, 85
7, 9665, Note_off_c, 5, 74, 64
7, 9834, Note_on_c, 5, 69, 76
7, 10171, Note_off_c, 5, 69, 64
7, 10323, Note_on_c, 5, 69, 82
7, 10408, Note_off_c, 5, 69, 64
7, 10551, Note_on_c, 5, 67, 85
7, 10781, Note_off_c, 5, 67, 64
7, 10781, Note_on_c, 5, 69, 78
7, 10885, Note_off_c, 5, 69, 64
7, 11025, Note_on_c, 5, 69, 78
7, 11128, Note_on_c, 5, 67, 74
7, 11146, Note_off_c, 5, 69, 64
7, 11196, Note_off_c, 5, 67, 64
7, 11249, Note_on_c, 5, 69, 68
7, 11362, Note_on_c, 5, 71, 82
7, 11377, Note_off_c, 5, 69, 64
7, 11439, Note_off_c, 5, 71, 64
7, 11488, Note_on_c, 5, 73, 68
7, 11569, Note_off_c, 5, 73, 64
7, 11730, Note_on_c, 5, 69, 72
7, 12078, Note_off_c, 5, 69, 64
7, 12221, Note_on_c, 5, 64, 80
7, 12310, Note_off_c, 5, 64, 64
7, 12459, Note_on_c, 5, 69, 82
7, 12665, Note_off_c, 5, 69, 64
7, 12699, Note_on_c, 5, 68, 74
7, 12805, Note_off_c, 5, 68, 64
7, 12934, Note_on_c, 5, 69, 70
7, 13059, Note_off_c, 5, 69, 64
7, 13162, Note_on_c, 5, 78, 74
7, 13256, Note_off_c, 5, 78, 64
7, 13409, Note_on_c, 5, 78, 74
7, 13503, Note_off_c, 5, 78, 64
7, 13650, Note_on_c, 5, 76, 78
7, 13988, Note_off_c, 5, 76, 64
7, 14135, Note_on_c, 5, 68, 74
7, 14234, Note_off_c, 5, 68, 64
7, 14382, Note_on_c, 5, 73, 66
7, 14496, Note_off_c, 5, 73, 64
7, 14616, Note_on_c, 5, 69, 80
7, 14719, Note_off_c, 5, 69, 64
7, 14859, Note_on_c, 5, 69, 78
7, 14975, Note_off_c, 5, 69, 64
7, 15080, Note_on_c, 5, 69, 68
7, 15125, Note_on_c, 5, 68, 78
7, 15130, Note_off_c, 5, 69, 64
7, 15167, Note_on_c, 5, 69, 66
7, 15170, Note_off_c, 5, 68, 64
7, 15215, Note_on_c, 5, 68, 68
7, 15234, Note_off_c, 5, 69, 64
7, 15289, Note_off_c, 5, 68, 64
7, 15360, Note_on_c, 5, 69, 76
7, 15913, Note_off_c, 5, 69, 64
7, 46788, Note_on_c, 5, 74, 78
7, 46901, Note_off_c, 5, 74, 64
7, 47036, Note_on_c, 5, 73, 62
7, 47287, Note_on_c, 5, 71, 35
7, 47297, Note_off_c, 5, 73, 64
7, 47598, Note_off_c, 5, 71, 64
7, 47754, Note_on_c, 5, 73, 64
7, 47843, Note_off_c, 5, 73, 64
7, 47996, Note_on_c, 5, 71, 87
7, 48231, Note_on_c, 5, 70, 37
7, 48248, Note_off_c, 5, 71, 64
7, 48555, Note_off_c, 5, 70, 64
7, 48702, Note_on_c, 5, 76, 64
7, 48910, Note_off_c, 5, 76, 64
7, 48950, Note_on_c, 5, 74, 68
7, 49195, Note_off_c, 5, 74, 64
7, 49198, Note_on_c, 5, 73, 58
7, 49420, Note_off_c, 5, 73, 64
7, 49425, Note_on_c, 5, 71, 63
7, 49666, Note_on_c, 5, 70, 66
7, 49675, Note_off_c, 5, 71, 64
7, 49889, Note_off_c, 5, 70, 64
7, 49917, Note_on_c, 5, 71, 72
7, 50147, Note_on_c, 5, 70, 53
7, 50154, Note_off_c, 5, 71, 64
7, 50245, Note_on_c, 5, 71, 64
7, 50255, Note_off_c, 5, 70, 64
7, 50354, Note_off_c, 5, 71, 64
7, 50389, Note_on_c, 5, 66, 51
7, 50506, Note_off_c, 5, 66, 64
7, 50631, Note_on_c, 5, 71, 66
7, 50724, Note_off_c, 5, 71, 64
7, 50883, Note_on_c, 5, 71, 82
7, 51132, Note_off_c, 5, 71, 64
7, 51149, Note_on_c, 5, 73, 25
7, 51420, Note_off_c, 5, 73, 64
7, 51597, Note_on_c, 5, 73, 60
7, 51669, Note_off_c, 5, 73, 64
7, 51835, Note_on_c, 5, 73, 82
7, 52084, Note_on_c, 5, 71, 44
7, 52101, Note_off_c, 5, 73, 64
7, 52440, Note_off_c, 5, 71, 64
7, 52547, Note_on_c, 5, 74, 62
7, 52625, Note_off_c, 5, 74, 64
7, 52789, Note_on_c, 5, 74, 68
7, 53328, Note_off_c, 5, 74, 64
7, 53501, Note_on_c, 5, 73, 63
7, 53589, Note_off_c, 5, 73, 64
7, 53739, Note_on_c, 5, 73, 66
7, 53993, Note_on_c, 5, 74, 52
7, 54016, Note_off_c, 5, 73, 64
7, 54299, Note_off_c, 5, 74, 64
7, 54458, Note_on_c, 5, 78, 80
7, 54539, Note_off_c, 5, 78, 64
7, 54717, Note_on_c, 5, 76, 80
7, 54949, Note_off_c, 5, 76, 64
7, 54954, Note_on_c, 5, 78, 36
7, 55295, Note_off_c, 5, 78, 64
7, 55422, Note_on_c, 5, 77, 70
7, 55497, Note_off_c, 5, 77, 64
7, 55670, Note_on_c, 5, 77, 76
7, 55892, Note_on_c, 5, 78, 42
7, 55898, Note_off_c, 5, 77, 64
7, 56247, Note_off_c, 5, 78, 64
7, 56383, Note_on_c, 5, 80, 72
7, 56475, Note_off_c, 5, 80, 64
7, 56627, Note_on_c, 5, 78, 66
7, 56762, Note_off_c, 5, 78, 64
7, 56865, Note_on_c, 5, 69, 63
7, 56991, Note_off_c, 5, 69, 64
7, 57104, Note_on_c, 5, 71, 63
7, 57198, Note_off_c, 5, 71, 64
7, 57346, Note_on_c, 5, 68, 61
7, 57439, Note_off_c, 5, 68, 64
7, 57591, Note_on_c, 5, 70, 57
7, 58089, Note_off_c, 5, 70, 64
7, 58319, Note_on_c, 5, 74, 68
7, 58414, Note_off_c, 5, 74, 64
7, 58566, Note_on_c, 5, 73, 68
7, 58809, Note_on_c, 5, 71, 41
7, 58815, Note_off_c, 5, 73, 64
7, 59100, Note_off_c, 5, 71, 64
7, 59252, Note_on_c, 5, 73, 64
7, 59336, Note_off_c, 5, 73, 64
7, 59506, Note_on_c, 5, 71, 85
7, 59749, Note_on_c, 5, 70, 47
7, 59756, Note_off_c, 5, 71, 64
7, 60085, Note_off_c, 5, 70, 64
7, 60216, Note_on_c, 5, 76, 70
7, 60348, Note_off_c, 5, 76, 64
7, 60466, Note_on_c, 5, 74, 78
7, 60708, Note_off_c, 5, 74, 64
7, 60708, Note_on_c, 5, 73, 58
7, 60952, Note_off_c, 5, 73, 64
7, 60954, Note_on_c, 5, 71, 64
7, 61185, Note_on_c, 5, 70, 60
7, 61187, Note_off_c, 5, 71, 64
7, 61391, Note_off_c, 5, 70, 64
7, 61427, Note_on_c, 5, 71, 78
7, 61643, Note_off_c, 5, 71, 64
7, 61661, Note_on_c, 5, 70, 45
7, 61757, Note_on_c, 5, 71, 66
7, 61762, Note_off_c, 5, 70, 64
7, 61851, Note_off_c, 5, 71, 64
7, 61896, Note_on_c, 5, 66, 44
7, 62030, Note_off_c, 5, 66, 64
7, 62143, Note_on_c, 5, 71, 60
7, 62220, Note_off_c, 5, 71, 64
7, 62395, Note_on_c, 5, 71, 85
7, 62645, Note_off_c, 5, 71, 64
7, 62670, Note_on_c, 5, 73, 23
7, 62960, Note_off_c, 5, 73, 64
7, 63102, Note_on_c, 5, 73, 58
7, 63186, Note_off_c, 5, 73, 64
7, 63352, Note_on_c, 5, 73, 82
7, 63603, Note_on_c, 5, 71, 44
7, 63627, Note_off_c, 5, 73, 64
7, 63943, Note_off_c, 5, 71, 64
7, 64062, Note_on_c, 5, 74, 61
7, 64140, Note_off_c, 5, 74, 64
7, 64311, Note_on_c, 5, 74, 64
7, 64844, Note_off_c, 5, 74, 64
7, 65032, Note_on_c, 5, 73, 61
7, 65115, Note_off_c, 5, 73, 64
7, 65265, Note_on_c, 5, 73, 82
7, 65517, Note_on_c, 5, 74, 52
7, 65547, Note_off_c, 5, 73, 64
7, 65813, Note_off_c, 5, 74, 64
7, 65991, Note_on_c, 5, 78, 61
7, 66072, Note_off_c, 5, 78, 64
7, 66245, Note_on_c, 5, 76, 76
7, 66482, Note_on_c, 5, 78, 45
7, 66483, Note_off_c, 5, 76, 64
7, 66800, Note_off_c, 5, 78, 64
7, 66936, Note_on_c, 5, 77, 76
7, 67003, Note_off_c, 5, 77, 64
7, 67190, Note_on_c, 5, 77, 80
7, 67425, Note_on_c, 5, 78, 48
7, 67451, Note_off_c, 5, 77, 64
7, 67712, Note_off_c, 5, 78, 64
7, 67912, Note_on_c, 5, 80, 66
7, 68021, Note_off_c, 5, 80, 64
7, 68147, Note_on_c, 5, 78, 63
7, 68255, Note_off_c, 5, 78, 64
7, 68382, Note_on_c, 5, 69, 62
7, 68496, Note_off_c, 5, 69, 64
7, 68628, Note_on_c, 5, 71, 82
7, 68714, Note_off_c, 5, 71, 64
7, 68856, Note_on_c, 5, 69, 78
7, 68956, Note_on_c, 5, 68, 59
7, 68958, Note_off_c, 5, 69, 64
7, 69030, Note_off_c, 5, 68, 64
7, 69108, Note_on_c, 5, 68, 64
7, 69341, Note_on_c, 5, 70, 53
7, 69359, Note_off_c, 5, 68, 64
7, 69647, Note_off_c, 5, 70, 64
7, 100547, Note_on_c, 5, 74, 82
7, 100635, Note_off_c, 5, 74, 64
7, 100792, Note_on_c, 5, 74, 82
7, 101110, Note_off_c, 5, 74, 64
7, 101277, Note_on_c, 5, 74, 78
7, 101566, Note_off_c, 5, 74, 64
7, 101732, Note_on_c, 5, 74, 85
7, 101805, Note_off_c, 5, 74, 64
7, 101971, Note_on_c, 5, 69, 82
7, 102341, Note_off_c, 5, 69, 64
7, 102467, Note_on_c, 5, 69, 80
7, 102553, Note_off_c, 5, 69, 64
7, 102707, Note_on_c, 5, 67, 85
7, 102937, Note_off_c, 5, 67, 64
7, 102947, Note_on_c, 5, 69, 70
7, 103059, Note_off_c, 5, 69, 64
7, 103196, Note_on_c, 5, 69, 95
7, 103296, Note_on_c, 5, 67, 78
7, 103300, Note_off_c, 5, 69, 64
7, 103364, Note_off_c, 5, 67, 64
7, 103426, Note_on_c, 5, 69, 72
7, 103531, Note_on_c, 5, 71, 85
7, 103548, Note_off_c, 5, 69, 64
7, 103604, Note_off_c, 5, 71, 64
7, 103660, Note_on_c, 5, 73, 76
7, 103753, Note_off_c, 5, 73, 64
7, 103897, Note_on_c, 5, 69, 85
7, 104219, Note_off_c, 5, 69, 64
7, 104378, Note_on_c, 5, 64, 78
7, 104487, Note_off_c, 5, 64, 64
7, 104632, Note_on_c, 5, 69, 82
7, 104805, Note_off_c, 5, 69, 64
7, 104856, Note_on_c, 5, 68, 68
7, 104976, Note_off_c, 5, 68, 64
7, 105102, Note_on_c, 5, 69, 70
7, 105235, Note_off_c, 5, 69, 64
7, 105337, Note_on_c, 5, 78, 68
7, 105446, Note_off_c, 5, 78, 64
7, 105589, Note_on_c, 5, 78, 85
7, 105667, Note_off_c, 5, 78, 64
7, 105833, Note_on_c, 5, 76, 82
7, 106182, Note_off_c, 5, 76, 64
7, 106314, Note_on_c, 5, 68, 70
7, 106413, Note_off_c, 5, 68, 64
7, 106561, Note_on_c, 5, 73, 74
7, 106723, Note_off_c, 5, 73, 64
7, 106785, Note_on_c, 5, 69, 78
7, 106902, Note_off_c, 5, 69, 64
7, 107030, Note_on_c, 5, 69, 76
7, 107144, Note_off_c, 5, 69, 64
7, 107269, Note_on_c, 5, 68, 66
7, 107367, Note_off_c, 5, 68, 64
7, 107509, Note_on_c, 5, 69, 64
7, 108022, Note_off_c, 5, 69, 64
7, 108226, Note_on_c, 5, 74, 82
7, 108323, Note_off_c, 5, 74, 64
7, 108471, Note_on_c, 5, 74, 80
7, 108817, Note_off_c, 5, 74, 64
7, 108940, Note_on_c, 5, 74, 80
7, 109265, Note_off_c, 5, 74, 64
7, 109424, Note_on_c, 5, 74, 85
7, 109505, Note_off_c, 5, 74, 64
7, 109674, Note_on_c, 5, 69, 76
7, 110011, Note_off_c, 5, 69, 64
7, 110163, Note_on_c, 5, 69, 82
7, 110248, Note_off_c, 5, 69, 64
7, 110391, Note_on_c, 5, 67, 85
7, 110621, Note_off_c, 5, 67, 64
7, 110621, Note_on_c, 5, 69, 78
7, 110725, Note_off_c, 5, 69, 64
7, 110865, Note_on_c, 5, 69, 78
7, 110968, Note_on_c, 5, 67, 74
7, 110986, Note_off_c, 5, 69, 64
7, 111036, Note_off_c, 5, 67, 64
7, 111089, Note_on_c, 5, 69, 68
7, 111202, Note_on_c, 5, 71, 82
7, 111217, Note_off_c, 5, 69, 64
7, 111279, Note_off_c, 5, 71, 64
7, 111328, Note_on_c, 5, 73, 68
7, 111409, Note_off_c, 5, 73, 64
7, 111570, Note_on_c, 5, 69, 72
7, 111918, Note_off_c, 5, 69, 64
7, 112061, Note_on_c, 5, 64, 80
7, 112150, Note_off_c, 5, 64, 64
7, 112299, Note_on_c, 5, 69, 82
7, 112505, Note_off_c, 5, 69, 64
7, 112539, Note_on_c, 5, 68, 74
7, 112645, Note_off_c, 5, 68, 64
7, 112774, Note_on_c, 5, 69, 70
7, 112899, Note_off_c, 5, 69, 64
7, 113002, Note_on_c, 5, 78, 74
7, 113096, Note_off_c, 5, 78, 64
7, 113249, Note_on_c, 5, 78, 74
7, 113343, Note_off_c, 5, 78, 64
7, 113490, Note_on_c, 5, 76, 78
7, 113828, Note_off_c, 5, 76, 64
7, 113975, Note_on_c, 5, 68, 74
7, 114074, Note_off_c, 5, 68, 64
7, 114222, Note_on_c, 5, 73, 66
7, 114336, Note_off_c, 5, 73, 64
7, 114456, Note_on_c, 5, 69, 80
7, 114559, Note_off_c, 5, 69, 64
7, 114699, Note_on_c, 5, 69, 78
7, 114815, Note_off_c, 5, 69, 64
7, 114920, Note_on_c, 5, 69, 68
7, 114965, Note_on_c, 5, 68, 78
7, 114970, Note_off_c, 5, 69, 64
7, 115007, Note_on_c, 5, 69, 66
7, 115010, Note_off_c, 5, 68, 64
7, 115055, Note_on_c, 5, 68, 68
7, 115074, Note_off_c, 5, 69, 64
7, 115129, Note_off_c, 5, 68, 64
7, 115200, Note_on_c, 5, 69, 76
7, 115753, Note_off_c, 5, 69, 64
7, 115753, End_track
8, 0, Start_track
8, 0, Title_t, "Oboe"
8, 0, Program_c, 6, 68
8, 0, Control_c, 6, 7, 100
8, 711, Note_on_c, 6, 69, 82
8, 810, Note_off_c, 6, 69, 64
8, 962, Note_on_c, 6, 62, 68
8, 1327, Note_off_c, 6, 62, 64
8, 1432, Note_on_c, 6, 71, 68
8, 1790, Note_off_c, 6, 71, 64
8, 1893, Note_on_c, 6, 69, 72
8, 1976, Note_off_c, 6, 69, 64
8, 2137, Note_on_c, 6, 66, 61
8, 2500, Note_off_c, 6, 66, 64
8, 2619, Note_on_c, 6, 66, 58
8, 2737, Note_off_c, 6, 66, 64
8, 2868, Note_on_c, 6, 62, 66
8, 3055, Note_off_c, 6, 62, 64
8, 3108, Note_on_c, 6, 64, 68
8, 3240, Note_off_c, 6, 64, 64
8, 3347, Note_on_c, 6, 66, 60
8, 3483, Note_off_c, 6, 66, 64
8, 3590, Note_on_c, 6, 66, 60
8, 3704, Note_off_c, 6, 66, 64
8, 3826, Note_on_c, 6, 64, 66
8, 3900, Note_off_c, 6, 64, 64
8, 4069, Note_on_c, 6, 64, 72
8, 4413, Note_off_c, 6, 64, 64
8, 4537, Note_on_c, 6, 64, 59
8, 4660, Note_off_c, 6, 64, 64
8, 4779, Note_on_c, 6, 66, 57
8, 4955, Note_off_c, 6, 66, 64
8, 5023, Note_on_c, 6, 62, 64
8, 5135, Note_off_c, 6, 62, 64
8, 5256, Note_on_c, 6, 64, 60
8, 5396, Note_off_c, 6, 64, 64
8, 5488, Note_on_c, 6, 69, 64
8, 5614, Note_off_c, 6, 69, 64
8, 5735, Note_on_c, 6, 74, 80
8, 5811, Note_off_c, 6, 74, 64
8, 5980, Note_on_c, 6, 74, 82
8, 6336, Note_off_c, 6, 74, 64
8, 6471, Note_on_c, 6, 76, 78
8, 6585, Note_off_c, 6, 76, 64
8, 6715, Note_on_c, 6, 69, 66
8, 6849, Note_off_c, 6, 69, 64
8, 6943, Note_on_c, 6, 62, 60
8, 7076, Note_off_c, 6, 62, 64
8, 7176, Note_on_c, 6, 64, 64
8, 7297, Note_off_c, 6, 64, 64
8, 7420, Note_on_c, 6, 64, 61
8, 7527, Note_off_c, 6, 64, 64
8, 7660, Note_on_c, 6, 64, 60
8, 8230, Note_off_c, 6, 64, 64
8, 8377, Note_on_c, 6, 69, 80
8, 8484, Note_off_c, 6, 69, 64
8, 8617, Note_on_c, 6, 62, 72
8, 8970, Note_off_c, 6, 62, 64
8, 9094, Note_on_c, 6, 71, 70
8, 9455, Note_off_c, 6, 71, 64
8, 9583, Note_on_c, 6, 69, 78
8, 9668, Note_off_c, 6, 69, 64
8, 9825, Note_on_c, 6, 66, 68
8, 10200, Note_off_c, 6, 66, 64
8, 10314, Note_on_c, 6, 66, 60
8, 10418, Note_off_c, 6, 66, 64
8, 10556, Note_on_c, 6, 62, 68
8, 10734, Note_off_c, 6, 62, 64
8, 10786, Note_on_c, 6, 64, 66
8, 10920, Note_off_c, 6, 64, 64
8, 11036, Note_on_c, 6, 66, 60
8, 11175, Note_off_c, 6, 66, 64
8, 11268, Note_on_c, 6, 66, 59
8, 11377, Note_off_c, 6, 66, 64
8, 11502, Note_on_c, 6, 64, 76
8, 11565, Note_off_c, 6, 64, 64
8, 11743, Note_on_c, 6, 64, 74
8, 12108, Note_off_c, 6, 64, 64
8, 12234, Note_on_c, 6, 64, 66
8, 12324, Note_off_c, 6, 64, 64
8, 12458, Note_on_c, 6, 66, 64
8, 12666, Note_off_c, 6, 66, 64
8, 12692, Note_on_c, 6, 62, 64
8, 12811, Note_off_c, 6, 62, 64
8, 12918, Note_on_c, 6, 64, 59
8, 13025, Note_off_c, 6, 64, 64
8, 13158, Note_on_c, 6, 69, 78
8, 13265, Note_off_c, 6, 69, 64
8, 13400, Note_on_c, 6, 74, 80
8, 13474, Note_off_c, 6, 74, 64
8, 13651, Note_on_c, 6, 74, 82
8, 13996, Note_off_c, 6, 74, 64
8, 14140, Note_on_c, 6, 76, 78
8, 14249, Note_off_c, 6, 76, 64
8, 14383, Note_on_c, 6, 69, 74
8, 14516, Note_off_c, 6, 69, 64
8, 14613, Note_on_c, 6, 62, 66
8, 14745, Note_off_c, 6, 62, 64
8, 14852, Note_on_c, 6, 64, 63
8, 14962, Note_off_c, 6, 64, 64
8, 15095, Note_on_c, 6, 64, 66
8, 15197, Note_off_c, 6, 64, 64
8, 15348, Note_on_c, 6, 64, 68
8, 15933, Note_off_c, 6, 64, 64
8, 46796, Note_on_c, 6, 71, 70
8, 46872, Note_off_c, 6, 71, 64
8, 47052, Note_on_c, 6, 66, 53
8, 47596, Note_off_c, 6, 66, 64
8, 47735, Note_on_c, 6, 67, 66
8, 47823, Note_off_c, 6, 67, 64
8, 47990, Note_on_c, 6, 66, 57
8, 48548, Note_off_c, 6, 66, 64
8, 48705, Note_on_c, 6, 70, 58
8, 48811, Note_off_c, 6, 70, 64
8, 48932, Note_on_c, 6, 71, 64
8, 49101, Note_off_c, 6, 71, 64
8, 49174, Note_on_c, 6, 67, 64
8, 49362, Note_off_c, 6, 67, 64
8, 49411, Note_on_c, 6, 66, 52
8, 49584, Note_off_c, 6, 66, 64
8, 49647, Note_on_c, 6, 66, 59
8, 49820, Note_off_c, 6, 66, 64
8, 49895, Note_on_c, 6, 66, 57
8, 50138, Note_off_c, 6, 66, 64
8, 50143, Note_on_c, 6, 64, 53
8, 50251, Note_on_c, 6, 66, 53
8, 50261, Note_off_c, 6, 64, 64
8, 50340, Note_off_c, 6, 66, 64
8, 50366, Note_on_c, 6, 62, 61
8, 50539, Note_off_c, 6, 62, 64
8, 50624, Note_on_c, 6, 66, 60
8, 50707, Note_off_c, 6, 66, 64
8, 50884, Note_on_c, 6, 66, 57
8, 51427, Note_off_c, 6, 66, 64
8, 51574, Note_on_c, 6, 66, 54
8, 51669, Note_off_c, 6, 66, 64
8, 51823, Note_on_c, 6, 66, 63
8, 52320, Note_off_c, 6, 66, 64
8, 52545, Note_on_c, 6, 71, 64
8, 52611, Note_off_c, 6, 71, 64
8, 52779, Note_on_c, 6, 71, 60
8, 53342, Note_off_c, 6, 71, 64
8, 53503, Note_on_c, 6, 69, 57
8, 53577, Note_off_c, 6, 69, 64
8, 53746, Note_on_c, 6, 69, 62
8, 54322, Note_off_c, 6, 69, 64
8, 54455, Note_on_c, 6, 74, 62
8, 54538, Note_off_c, 6, 74, 64
8, 54693, Note_on_c, 6, 74, 68
8, 55286, Note_off_c, 6, 74, 64
8, 55422, Note_on_c, 6, 73, 47
8, 55509, Note_off_c, 6, 73, 64
8, 55661, Note_on_c, 6, 73, 46
8, 56223, Note_off_c, 6, 73, 64
8, 56383, Note_on_c, 6, 73, 54
8, 56492, Note_off_c, 6, 73, 64
8, 56623, Note_on_c, 6, 73, 57
8, 56829, Note_off_c, 6, 73, 64
8, 56853, Note_on_c, 6, 74, 55
8, 57004, Note_off_c, 6, 74, 64
8, 57104, Note_on_c, 6, 74, 68
8, 57325, Note_off_c, 6, 74, 64
8, 57337, Note_on_c, 6, 73, 53
8, 57456, Note_off_c, 6, 73, 64
8, 57591, Note_on_c, 6, 73, 51
8, 58092, Note_off_c, 6, 73, 64
8, 58317, Note_on_c, 6, 71, 64
8, 58398, Note_off_c, 6, 71, 64
8, 58559, Note_on_c, 6, 66, 47
8, 59084, Note_off_c, 6, 66, 64
8, 59240, Note_on_c, 6, 67, 58
8, 59336, Note_off_c, 6, 67, 64
8, 59502, Note_on_c, 6, 66, 53
8, 60045, Note_off_c, 6, 66, 64
8, 60218, Note_on_c, 6, 70, 52
8, 60335, Note_off_c, 6, 70, 64
8, 60460, Note_on_c, 6, 71, 57
8, 60641, Note_off_c, 6, 71, 64
8, 60696, Note_on_c, 6, 67, 60
8, 60902, Note_off_c, 6, 67, 64
8, 60933, Note_on_c, 6, 66, 56
8, 61113, Note_off_c, 6, 66, 64
8, 61165, Note_on_c, 6, 66, 52
8, 61346, Note_off_c, 6, 66, 64
8, 61410, Note_on_c, 6, 66, 58
8, 61650, Note_off_c, 6, 66, 64
8, 61657, Note_on_c, 6, 64, 55
8, 61764, Note_on_c, 6, 66, 53
8, 61775, Note_off_c, 6, 64, 64
8, 61858, Note_off_c, 6, 66, 64
8, 61883, Note_on_c, 6, 62, 59
8, 62034, Note_off_c, 6, 62, 64
8, 62134, Note_on_c, 6, 66, 56
8, 62232, Note_off_c, 6, 66, 64
8, 62388, Note_on_c, 6, 66, 59
8, 62950, Note_off_c, 6, 66, 64
8, 63094, Note_on_c, 6, 66, 50
8, 63181, Note_off_c, 6, 66, 64
8, 63345, Note_on_c, 6, 66, 63
8, 63886, Note_off_c, 6, 66, 64
8, 64075, Note_on_c, 6, 71, 66
8, 64147, Note_off_c, 6, 71, 64
8, 64311, Note_on_c, 6, 71, 66
8, 64845, Note_off_c, 6, 71, 64
8, 65032, Note_on_c, 6, 69, 57
8, 65096, Note_off_c, 6, 69, 64
8, 65270, Note_on_c, 6, 69, 63
8, 65842, Note_off_c, 6, 69, 64
8, 65974, Note_on_c, 6, 74, 62
8, 66046, Note_off_c, 6, 74, 64
8, 66226, Note_on_c, 6, 74, 66
8, 66808, Note_off_c, 6, 74, 64
8, 66943, Note_on_c, 6, 73, 53
8, 67024, Note_off_c, 6, 73, 64
8, 67185, Note_on_c, 6, 73, 62
8, 67679, Note_off_c, 6, 73, 64
8, 67878, Note_on_c, 6, 73, 52
8, 67978, Note_off_c, 6, 73, 64
8, 68132, Note_on_c, 6, 73, 57
8, 68320, Note_off_c, 6, 73, 64
8, 68367, Note_on_c, 6, 74, 62
8, 68477, Note_off_c, 6, 74, 64
8, 68619, Note_on_c, 6, 74, 70
8, 68852, Note_off_c, 6, 74, 64
8, 68865, Note_on_c, 6, 73, 48
8, 68980, Note_off_c, 6, 73, 64
8, 69094, Note_on_c, 6, 73, 55
8, 69623, Note_off_c, 6, 73, 64
8, 100551, Note_on_c, 6, 69, 82
8, 100650, Note_off_c, 6, 69, 64
8, 100802, Note_on_c, 6, 62, 68
8, 101167, Note_off_c, 6, 62, 64
8, 101272, Note_on_c, 6, 71, 68
8, 101630, Note_off_c, 6, 71, 64
8, 101733, Note_on_c, 6, 69, 72
8, 101816, Note_off_c, 6, 69, 64
8, 101977, Note_on_c, 6, 66, 61
8, 102340, Note_off_c, 6, 66, 64
8, 102459, Note_on_c, 6, 66, 58
8, 102577, Note_off_c, 6, 66, 64
8, 102708, Note_on_c, 6, 62, 66
8, 102895, Note_off_c, 6, 62, 64
8, 102948, Note_on_c, 6, 64, 68
8, 103080, Note_off_c, 6, 64, 64
8, 103187, Note_on_c, 6, 66, 60
8, 103323, Note_off_c, 6, 66, 64
8, 103430, Note_on_c, 6, 66, 60
8, 103544, Note_off_c, 6, 66, 64
8, 103666, Note_on_c, 6, 64, 66
8, 103740, Note_off_c, 6, 64, 64
8, 103909, Note_on_c, 6, 64, 72
8, 104253, Note_off_c, 6, 64, 64
8, 104377, Note_on_c, 6, 64, 59
8, 104500, Note_off_c, 6, 64, 64
8, 104619, Note_on_c, 6, 66, 57
8, 104795, Note_off_c, 6, 66, 64
8, 104863, Note_on_c, 6, 62, 64
8, 104975, Note_off_c, 6, 62, 64
8, 105096, Note_on_c, 6, 64, 60
8, 105236, Note_off_c, 6, 64, 64
8, 105328, Note_on_c, 6, 69, 64
8, 105454, Note_off_c, 6, 69, 64
8, 105575, Note_on_c, 6, 74, 80
8, 105651, Note_off_c, 6, 74, 64
8, 105820, Note_on_c, 6, 74, 82
8, 106176, Note_off_c, 6, 74, 64
8, 106311, Note_on_c, 6, 76, 78
8, 106425, Note_off_c, 6, 76, 64
8, 106555, Note_on_c, 6, 69, 66
8, 106689, Note_off_c, 6, 69, 64
8, 106783, Note_on_c, 6, 62, 60
8, 106916, Note_off_c, 6, 62, 64
8, 107016, Note_on_c, 6, 64, 64
8, 107137, Note_off_c, 6, 64, 64
8, 107260, Note_on_c, 6, 64, 61
8, 107367, Note_off_c, 6, 64, 64
8, 107500, Note_on_c, 6, 64, 60
8, 108070, Note_off_c, 6, 64, 64
8, 108217, Note_on_c, 6, 69, 80
8, 108324, Note_off_c, 6, 69, 64
8, 108457, Note_on_c, 6, 62, 72
8, 108810, Note_off_c, 6, 62, 64
8, 108934, Note_on_c, 6, 71, 70
8, 109295, Note_off_c, 6, 71, 64
8, 109423, Note_on_c, 6, 69, 78
8, 109508, Note_off_c, 6, 69, 64
8, 109665, Note_on_c, 6, 66, 68
8, 110040, Note_off_c, 6, 66, 64
8, 110154, Note_on_c, 6, 66, 60
8, 110258, Note_off_c, 6, 66, 64
8, 110396, Note_on_c, 6, 62, 68
8, 110574, Note_off_c, 6, 62, 64
8, 110626, Note_on_c, 6, 64, 66
8, 110760, Note_off_c, 6, 64, 64
8, 110876, Note_on_c, 6, 66, 60
8, 111015, Note_off_c, 6, 66, 64
8, 111108, Note_on_c, 6, 66, 59
8, 111217, Note_off_c, 6, 66, 64
8, 111342, Note_on_c, 6, 64, 76
8, 111405, Note_off_c, 6, 64, 64
8, 111583, Note_on_c, 6, 64, 74
8, 111948, Note_off_c, 6, 64, 64
8, 112074, Note_on_c, 6, 64, 66
8, 112164, Note_off_c, 6, 64, 64
8, 112298, Note_on_c, 6, 66, 64
8, 112506, Note_off_c, 6, 66, 64
8, 112532, Note_on_c, 6, 62, 64
8, 112651, Note_off_c, 6, 62, 64
8, 112758, Note_on_c, 6, 64, 59
8, 112865, Note_off_c, 6, 64, 64
8, 112998, Note_on_c, 6, 69, 78
8, 113105, Note_off_c, 6, 69, 64
8, 113240, Note_on_c, 6, 74, 80
8, 113314, Note_off_c, 6, 74, 64
8, 113491, Note_on_c, 6, 74, 82
8, 113836, Note_off_c, 6, 74, 64
8, 113980, Note_on_c, 6, 76, 78
8, 114089, Note_off_c, 6, 76, 64
8, 114223, Note_on_c, 6, 69, 74
8, 114356, Note_off_c, 6, 69, 64
8, 114453, Note_on_c, 6, 62, 66
8, 114585, Note_off_c, 6, 62, 64
8, 114692, Note_on_c, 6, 64, 63
8, 114802, Note_off_c, 6, 64, 64
8, 114935, Note_on_c, 6, 64, 66
8, 115037, Note_off_c, 6, 64, 64
8, 115188, Note_on_c, 6, 64, 68
8, 115773, Note_off_c, 6, 64, 64
8, 115773, End_track
9, 0, Start_track
9, 0, Title_t, "Bassoon"
9, 0, Program_c, 7, 70
9, 0, Control_c, 7, 7, 100
9, 705, Note_on_c, 7, 62, 87
9, 779, Note_off_c, 7, 62, 64
9, 812, Note_on_c, 7, 61, 82
9, 881, Note_off_c, 7, 61, 64
9, 937, Note_on_c, 7, 59, 82
9, 1020, Note_off_c, 7, 59, 64
9, 1201, Note_on_c, 7, 47, 80
9, 1310, Note_off_c, 7, 47, 64
9, 1441, Note_on_c, 7, 45, 70
9, 1533, Note_off_c, 7, 45, 64
9, 1675, Note_on_c, 7, 43, 70
9, 1780, Note_off_c, 7, 43, 64
9, 1906, Note_on_c, 7, 42, 74
9, 2024, Note_off_c, 7, 42, 64
9, 2148, Note_on_c, 7, 54, 74
9, 2264, Note_off_c, 7, 54, 64
9, 2393, Note_on_c, 7, 52, 82
9, 2492, Note_off_c, 7, 52, 64
9, 2627, Note_on_c, 7, 50, 76
9, 2742, Note_off_c, 7, 50, 64
9, 2877, Note_on_c, 7, 55, 87
9, 2979, Note_off_c, 7, 55, 64
9, 3117, Note_on_c, 7, 42, 74
9, 3240, Note_off_c, 7, 42, 64
9, 3370, Note_on_c, 7, 40, 87
9, 3480, Note_off_c, 7, 40, 64
9, 3613, Note_on_c, 7, 38, 80
9, 3719, Note_off_c, 7, 38, 64
9, 3843, Note_on_c, 7, 45, 78
9, 3966, Note_off_c, 7, 45, 64
9, 4077, Note_on_c, 7, 49, 87
9, 4139, Note_off_c, 7, 49, 64
9, 4172, Note_on_c, 7, 47, 89
9, 4241, Note_off_c, 7, 47, 64
9, 4300, Note_on_c, 7, 45, 72
9, 4407, Note_off_c, 7, 45, 64
9, 4545, Note_on_c, 7, 43, 80
9, 4645, Note_off_c, 7, 43, 64
9, 4794, Note_on_c, 7, 42, 72
9, 4921, Note_off_c, 7, 42, 64
9, 5032, Note_on_c, 7, 47, 80
9, 5143, Note_off_c, 7, 47, 64
9, 5262, Note_on_c, 7, 49, 66
9, 5369, Note_off_c, 7, 49, 64
9, 5495, Note_on_c, 7, 50, 76
9, 5611, Note_off_c, 7, 50, 64
9, 5735, Note_on_c, 7, 44, 80
9, 5848, Note_off_c, 7, 44, 64
9, 5982, Note_on_c, 7, 56, 78
9, 6090, Note_off_c, 7, 56, 64
9, 6223, Note_on_c, 7, 54, 66
9, 6337, Note_off_c, 7, 54, 64
9, 6461, Note_on_c, 7, 52, 61
9, 6567, Note_off_c, 7, 52, 64
9, 6712, Note_on_c, 7, 61, 80
9, 6834, Note_off_c, 7, 61, 64
9, 6954, Note_on_c, 7, 54, 66
9, 7056, Note_off_c, 7, 54, 64
9, 7190, Note_on_c, 7, 52, 68
9, 7287, Note_off_c, 7, 52, 64
9, 7422, Note_on_c, 7, 40, 80
9, 7513, Note_off_c, 7, 40, 64
9, 7666, Note_on_c, 7, 45, 85
9, 8234, Note_off_c, 7, 45, 64
9, 8377, Note_on_c, 7, 62, 82
9, 8457, Note_off_c, 7, 62, 64
9, 8488, Note_on_c, 7, 61, 72
9, 8564, Note_off_c, 7, 61, 64
9, 8621, Note_on_c, 7, 59, 72
9, 8723, Note_off_c, 7, 59, 64
9, 8866, Note_on_c, 7, 47, 82
9, 8996, Note_off_c, 7, 47, 64
9, 9107, Note_on_c, 7, 45, 72
9, 9219, Note_off_c, 7, 45, 64
9, 9348, Note_on_c, 7, 43, 80
9, 9473, Note_off_c, 7, 43, 64
9, 9599, Note_on_c, 7, 42, 66
9, 9710, Note_off_c, 7, 42, 64
9, 9831, Note_on_c, 7, 54, 85
9, 9941, Note_off_c, 7, 54, 64
9, 10071, Note_on_c, 7, 52, 72
9, 10176, Note_off_c, 7, 52, 64
9, 10309, Note_on_c, 7, 50, 80
9, 10429, Note_off_c, 7, 50, 64
9, 10555, Note_on_c, 7, 55, 80
9, 10662, Note_off_c, 7, 55, 64
9, 10785, Note_on_c, 7, 42, 76
9, 10909, Note_off_c, 7, 42, 64
9, 11026, Note_on_c, 7, 40, 85
9, 11142, Note_off_c, 7, 40, 64
9, 11275, Note_on_c, 7, 38, 85
9, 11388, Note_off_c, 7, 38, 64
9, 11516, Note_on_c, 7, 45, 85
9, 11643, Note_off_c, 7, 45, 64
9, 11744, Note_on_c, 7, 49, 72
9, 11818, Note_off_c, 7, 49, 64
9, 11852, Note_on_c, 7, 47, 85
9, 11927, Note_off_c, 7, 47, 64
9, 11980, Note_on_c, 7, 45, 70
9, 12072, Note_off_c, 7, 45, 64
9, 12219, Note_on_c, 7, 43, 76
9, 12330, Note_off_c, 7, 43, 64
9, 12471, Note_on_c, 7, 42, 68
9, 12599, Note_off_c, 7, 42, 64
9, 12722, Note_on_c, 7, 47, 85
9, 12827, Note_off_c, 7, 47, 64
9, 12945, Note_on_c, 7, 49, 76
9, 13050, Note_off_c, 7, 49, 64
9, 13174, Note_on_c, 7, 50, 80
9, 13283, Note_off_c, 7, 50, 64
9, 13418, Note_on_c, 7, 44, 76
9, 13517, Note_off_c, 7, 44, 64
9, 13653, Note_on_c, 7, 56, 72
9, 13760, Note_off_c, 7, 56, 64
9, 13893, Note_on_c, 7, 54, 68
9, 14004, Note_off_c, 7, 54, 64
9, 14132, Note_on_c, 7, 52, 61
9, 14234, Note_off_c, 7, 52, 64
9, 14387, Note_on_c, 7, 61, 72
9, 14501, Note_off_c, 7, 61, 64
9, 14624, Note_on_c, 7, 54, 68
9, 14723, Note_off_c, 7, 54, 64
9, 14851, Note_on_c, 7, 52, 80
9, 14951, Note_off_c, 7, 52, 64
9, 15091, Note_on_c, 7, 40, 80
9, 15182, Note_off_c, 7, 40, 64
9, 15345, Note_on_c, 7, 45, 74
9, 15877, Note_off_c, 7, 45, 64
9, 46784, Note_on_c, 7, 59, 68
9, 46895, Note_on_c, 7, 58, 70
9, 46900, Note_off_c, 7, 59, 64
9, 46992, Note_off_c, 7, 58, 64
9, 47031, Note_on_c, 7, 59, 82
9, 47151, Note_on_c, 7, 61, 62
9, 47190, Note_off_c, 7, 59, 64
9, 47277, Note_on_c, 7, 62, 72
9, 47303, Note_off_c, 7, 61, 64
9, 47392, Note_on_c, 7, 59, 68
9, 47406, Note_off_c, 7, 62, 64
9, 47517, Note_on_c, 7, 57, 63
9, 47522, Note_off_c, 7, 59, 64
9, 47633, Note_on_c, 7, 55, 55
9, 47659, Note_off_c, 7, 57, 64
9, 47748, Note_off_c, 7, 55, 64
9, 47755, Note_on_c, 7, 54, 55
9, 47875, Note_on_c, 7, 52, 66
9, 47887, Note_off_c, 7, 54, 64
9, 47959, Note_off_c, 7, 52, 64
9, 47989, Note_on_c, 7, 54, 72
9, 48106, Note_on_c, 7, 56, 62
9, 48139, Note_off_c, 7, 54, 64
9, 48225, Note_on_c, 7, 58, 57
9, 48250, Note_off_c, 7, 56, 64
9, 48350, Note_on_c, 7, 56, 63
9, 48383, Note_off_c, 7, 58, 64
9, 48462, Note_off_c, 7, 56, 64
9, 48471, Note_on_c, 7, 54, 60
9, 48585, Note_on_c, 7, 52, 70
9, 48590, Note_off_c, 7, 54, 64
9, 48697, Note_on_c, 7, 50, 64
9, 48710, Note_off_c, 7, 52, 64
9, 48808, Note_on_c, 7, 49, 52
9, 48821, Note_off_c, 7, 50, 64
9, 48904, Note_off_c, 7, 49, 64
9, 48944, Note_on_c, 7, 50, 87
9, 49051, Note_on_c, 7, 49, 58
9, 49070, Note_off_c, 7, 50, 64
9, 49176, Note_off_c, 7, 49, 64
9, 49179, Note_on_c, 7, 50, 58
9, 49292, Note_on_c, 7, 52, 66
9, 49321, Note_off_c, 7, 50, 64
9, 49407, Note_off_c, 7, 52, 64
9, 49408, Note_on_c, 7, 54, 62
9, 49523, Note_on_c, 7, 52, 61
9, 49552, Note_off_c, 7, 54, 64
9, 49635, Note_off_c, 7, 52, 64
9, 49644, Note_on_c, 7, 50, 57
9, 49755, Note_on_c, 7, 49, 68
9, 49768, Note_off_c, 7, 50, 64
9, 49851, Note_off_c, 7, 49, 64
9, 49882, Note_on_c, 7, 47, 72
9, 50024, Note_off_c, 7, 47, 64
9, 50142, Note_on_c, 7, 54, 63
9, 50233, Note_off_c, 7, 54, 64
9, 50385, Note_on_c, 7, 59, 80
9, 50498, Note_off_c, 7, 59, 64
9, 50507, Note_on_c, 7, 62, 78
9, 50631, Note_on_c, 7, 61, 55
9, 50638, Note_off_c, 7, 62, 64
9, 50745, Note_on_c, 7, 59, 66
9, 50774, Note_off_c, 7, 61, 64
9, 50833, Note_off_c, 7, 59, 64
9, 50873, Note_on_c, 7, 58, 80
9, 50985, Note_on_c, 7, 59, 70
9, 51009, Note_off_c, 7, 58, 64
9, 51106, Note_off_c, 7, 59, 64
9, 51125, Note_on_c, 7, 61, 49
9, 51232, Note_on_c, 7, 58, 58
9, 51246, Note_off_c, 7, 61, 64
9, 51315, Note_off_c, 7, 58, 64
9, 51351, Note_on_c, 7, 54, 63
9, 51462, Note_on_c, 7, 56, 60
9, 51484, Note_off_c, 7, 54, 64
9, 51586, Note_off_c, 7, 56, 64
9, 51593, Note_on_c, 7, 58, 57
9, 51685, Note_off_c, 7, 58, 64
9, 51690, Note_on_c, 7, 54, 49
9, 51756, Note_off_c, 7, 54, 64
9, 51816, Note_on_c, 7, 59, 82
9, 51935, Note_on_c, 7, 61, 59
9, 51954, Note_off_c, 7, 59, 64
9, 52060, Note_on_c, 7, 62, 64
9, 52080, Note_off_c, 7, 61, 64
9, 52167, Note_off_c, 7, 62, 64
9, 52170, Note_on_c, 7, 61, 56
9, 52295, Note_off_c, 7, 61, 64
9, 52295, Note_on_c, 7, 59, 76
9, 52407, Note_on_c, 7, 57, 63
9, 52414, Note_off_c, 7, 59, 64
9, 52533, Note_on_c, 7, 55, 55
9, 52557, Note_off_c, 7, 57, 64
9, 52658, Note_on_c, 7, 54, 53
9, 52666, Note_off_c, 7, 55, 64
9, 52753, Note_off_c, 7, 54, 64
9, 52794, Note_on_c, 7, 52, 82
9, 52911, Note_on_c, 7, 54, 57
9, 52950, Note_off_c, 7, 52, 64
9, 53033, Note_off_c, 7, 54, 64
9, 53037, Note_on_c, 7, 55, 52
9, 53128, Note_off_c, 7, 55, 64
9, 53154, Note_on_c, 7, 52, 56
9, 53224, Note_off_c, 7, 52, 64
9, 53269, Note_on_c, 7, 57, 82
9, 53382, Note_on_c, 7, 59, 68
9, 53383, Note_off_c, 7, 57, 64
9, 53506, Note_off_c, 7, 59, 64
9, 53508, Note_on_c, 7, 61, 55
9, 53594, Note_off_c, 7, 61, 64
9, 53607, Note_on_c, 7, 57, 56
9, 53690, Note_off_c, 7, 57, 64
9, 53733, Note_on_c, 7, 62, 80
9, 53848, Note_off_c, 7, 62, 64
9, 53855, Note_on_c, 7, 64, 66
9, 53974, Note_on_c, 7, 66, 57
9, 53990, Note_off_c, 7, 64, 64
9, 54090, Note_on_c, 7, 64, 63
9, 54128, Note_off_c, 7, 66, 64
9, 54182, Note_off_c, 7, 64, 64
9, 54204, Note_on_c, 7, 62, 76
9, 54311, Note_on_c, 7, 61, 66
9, 54334, Note_off_c, 7, 62, 64
9, 54441, Note_on_c, 7, 59, 61
9, 54470, Note_off_c, 7, 61, 64
9, 54553, Note_off_c, 7, 59, 64
9, 54553, Note_on_c, 7, 57, 59
9, 54659, Note_off_c, 7, 57, 64
9, 54695, Note_on_c, 7, 56, 64
9, 54799, Note_on_c, 7, 57, 66
9, 54819, Note_off_c, 7, 56, 64
9, 54943, Note_on_c, 7, 59, 47
9, 54952, Note_off_c, 7, 57, 64
9, 55060, Note_off_c, 7, 59, 64
9, 55061, Note_on_c, 7, 56, 56
9, 55168, Note_off_c, 7, 56, 64
9, 55184, Note_on_c, 7, 53, 74
9, 55293, Note_on_c, 7, 54, 59
9, 55319, Note_off_c, 7, 53, 64
9, 55421, Note_on_c, 7, 56, 52
9, 55422, Note_off_c, 7, 54, 64
9, 55504, Note_off_c, 7, 56, 64
9, 55535, Note_on_c, 7, 53, 56
9, 55616, Note_off_c, 7, 53, 64
9, 55652, Note_on_c, 7, 57, 82
9, 55765, Note_off_c, 7, 57, 64
9, 55766, Note_on_c, 7, 59, 70
9, 55886, Note_on_c, 7, 61, 54
9, 55896, Note_off_c, 7, 59, 64
9, 55996, Note_on_c, 7, 59, 62
9, 56039, Note_off_c, 7, 61, 64
9, 56107, Note_off_c, 7, 59, 64
9, 56129, Note_on_c, 7, 57, 80
9, 56243, Note_on_c, 7, 56, 57
9, 56270, Note_off_c, 7, 57, 64
9, 56362, Note_on_c, 7, 54, 52
9, 56381, Note_off_c, 7, 56, 64
9, 56471, Note_off_c, 7, 54, 64
9, 56473, Note_on_c, 7, 53, 62
9, 56566, Note_off_c, 7, 53, 64
9, 56604, Note_on_c, 7, 54, 72
9, 56718, Note_off_c, 7, 54, 64
9, 56858, Note_on_c, 7, 50, 76
9, 56959, Note_off_c, 7, 50, 64
9, 57088, Note_on_c, 7, 47, 68
9, 57197, Note_off_c, 7, 47, 64
9, 57332, Note_on_c, 7, 49, 66
9, 57423, Note_off_c, 7, 49, 64
9, 57582, Note_on_c, 7, 42, 66
9, 58100, Note_off_c, 7, 42, 64
9, 58313, Note_on_c, 7, 59, 70
9, 58422, Note_on_c, 7, 58, 63
9, 58427, Note_off_c, 7, 59, 64
9, 58528, Note_off_c, 7, 58, 64
9, 58555, Note_on_c, 7, 59, 68
9, 58676, Note_on_c, 7, 61, 60
9, 58690, Note_off_c, 7, 59, 64
9, 58787, Note_on_c, 7, 62, 64
9, 58819, Note_off_c, 7, 61, 64
9, 58904, Note_on_c, 7, 59, 68
9, 58913, Note_off_c, 7, 62, 64
9, 59020, Note_off_c, 7, 59, 64
9, 59031, Note_on_c, 7, 57, 68
9, 59141, Note_on_c, 7, 55, 57
9, 59172, Note_off_c, 7, 57, 64
9, 59270, Note_on_c, 7, 54, 47
9, 59279, Note_off_c, 7, 55, 64
9, 59383, Note_on_c, 7, 52, 62
9, 59409, Note_off_c, 7, 54, 64
9, 59483, Note_off_c, 7, 52, 64
9, 59513, Note_on_c, 7, 54, 72
9, 59623, Note_on_c, 7, 56, 62
9, 59644, Note_off_c, 7, 54, 64
9, 59746, Note_on_c, 7, 58, 51
9, 59756, Note_off_c, 7, 56, 64
9, 59858, Note_on_c, 7, 56, 57
9, 59891, Note_off_c, 7, 58, 64
9, 59964, Note_off_c, 7, 56, 64
9, 59984, Note_on_c, 7, 54, 64
9, 60098, Note_on_c, 7, 52, 70
9, 60104, Note_off_c, 7, 54, 64
9, 60211, Note_on_c, 7, 50, 63
9, 60231, Note_off_c, 7, 52, 64
9, 60335, Note_on_c, 7, 49, 68
9, 60351, Note_off_c, 7, 50, 64
9, 60426, Note_off_c, 7, 49, 64
9, 60463, Note_on_c, 7, 50, 82
9, 60568, Note_on_c, 7, 49, 57
9, 60586, Note_off_c, 7, 50, 64
9, 60696, Note_on_c, 7, 50, 60
9, 60703, Note_off_c, 7, 49, 64
9, 60812, Note_on_c, 7, 52, 68
9, 60841, Note_off_c, 7, 50, 64
9, 60900, Note_off_c, 7, 52, 64
9, 60930, Note_on_c, 7, 54, 64
9, 61039, Note_on_c, 7, 52, 56
9, 61075, Note_off_c, 7, 54, 64
9, 61146, Note_off_c, 7, 52, 64
9, 61158, Note_on_c, 7, 50, 57
9, 61270, Note_on_c, 7, 49, 72
9, 61284, Note_off_c, 7, 50, 64
9, 61381, Note_off_c, 7, 49, 64
9, 61400, Note_on_c, 7, 47, 60
9, 61549, Note_off_c, 7, 47, 64
9, 61657, Note_on_c, 7, 54, 66
9, 61759, Note_off_c, 7, 54, 64
9, 61913, Note_on_c, 7, 59, 80
9, 62029, Note_off_c, 7, 59, 64
9, 62037, Note_on_c, 7, 62, 74
9, 62150, Note_on_c, 7, 61, 58
9, 62156, Note_off_c, 7, 62, 64
9, 62252, Note_on_c, 7, 59, 63
9, 62272, Note_off_c, 7, 61, 64
9, 62362, Note_off_c, 7, 59, 64
9, 62388, Note_on_c, 7, 58, 68
9, 62514, Note_on_c, 7, 59, 63
9, 62540, Note_off_c, 7, 58, 64
9, 62644, Note_on_c, 7, 61, 56
9, 62652, Note_off_c, 7, 59, 64
9, 62744, Note_on_c, 7, 58, 48
9, 62760, Note_off_c, 7, 61, 64
9, 62839, Note_off_c, 7, 58, 64
9, 62870, Note_on_c, 7, 54, 66
9, 62984, Note_on_c, 7, 56, 64
9, 63007, Note_off_c, 7, 54, 64
9, 63109, Note_off_c, 7, 56, 64
9, 63112, Note_on_c, 7, 58, 57
9, 63198, Note_off_c, 7, 58, 64
9, 63204, Note_on_c, 7, 54, 56
9, 63292, Note_off_c, 7, 54, 64
9, 63337, Note_on_c, 7, 59, 72
9, 63466, Note_on_c, 7, 61, 53
9, 63475, Note_off_c, 7, 59, 64
9, 63575, Note_off_c, 7, 61, 64
9, 63575, Note_on_c, 7, 62, 59
9, 63694, Note_on_c, 7, 61, 53
9, 63712, Note_off_c, 7, 62, 64
9, 63803, Note_on_c, 7, 59, 68
9, 63814, Note_off_c, 7, 61, 64
9, 63916, Note_on_c, 7, 57, 58
9, 63921, Note_off_c, 7, 59, 64
9, 64023, Note_off_c, 7, 57, 64
9, 64026, Note_on_c, 7, 55, 56
9, 64154, Note_on_c, 7, 54, 55
9, 64178, Note_off_c, 7, 55, 64
9, 64265, Note_off_c, 7, 54, 64
9, 64294, Note_on_c, 7, 52, 68
9, 64417, Note_on_c, 7, 54, 53
9, 64451, Note_off_c, 7, 52, 64
9, 64543, Note_on_c, 7, 55, 61
9, 64560, Note_off_c, 7, 54, 64
9, 64629, Note_off_c, 7, 55, 64
9, 64651, Note_on_c, 7, 52, 58
9, 64769, Note_on_c, 7, 57, 68
9, 64774, Note_off_c, 7, 52, 64
9, 64888, Note_off_c, 7, 57, 64
9, 64895, Note_on_c, 7, 59, 64
9, 65011, Note_off_c, 7, 59, 64
9, 65011, Note_on_c, 7, 61, 57
9, 65101, Note_off_c, 7, 61, 64
9, 65129, Note_on_c, 7, 57, 54
9, 65213, Note_off_c, 7, 57, 64
9, 65250, Note_on_c, 7, 62, 74
9, 65379, Note_off_c, 7, 62, 64
9, 65379, Note_on_c, 7, 64, 66
9, 65488, Note_on_c, 7, 66, 57
9, 65509, Note_off_c, 7, 64, 64
9, 65604, Note_on_c, 7, 64, 63
9, 65637, Note_off_c, 7, 66, 64
9, 65721, Note_off_c, 7, 64, 64
9, 65727, Note_on_c, 7, 62, 68
9, 65830, Note_on_c, 7, 61, 56
9, 65849, Note_off_c, 7, 62, 64
9, 65963, Note_on_c, 7, 59, 57
9, 65984, Note_off_c, 7, 61, 64
9, 66081, Note_off_c, 7, 59, 64
9, 66082, Note_on_c, 7, 57, 58
9, 66188, Note_off_c, 7, 57, 64
9, 66219, Note_on_c, 7, 56, 64
9, 66326, Note_on_c, 7, 57, 66
9, 66376, Note_off_c, 7, 56, 64
9, 66461, Note_on_c, 7, 59, 59
9, 66490, Note_off_c, 7, 57, 64
9, 66568, Note_off_c, 7, 59, 64
9, 66568, Note_on_c, 7, 56, 53
9, 66682, Note_off_c, 7, 56, 64
9, 66696, Note_on_c, 7, 53, 80
9, 66812, Note_on_c, 7, 54, 54
9, 66822, Note_off_c, 7, 53, 64
9, 66936, Note_on_c, 7, 56, 57
9, 66938, Note_off_c, 7, 54, 64
9, 67021, Note_off_c, 7, 56, 64
9, 67049, Note_on_c, 7, 53, 60
9, 67133, Note_off_c, 7, 53, 64
9, 67175, Note_on_c, 7, 57, 82
9, 67291, Note_on_c, 7, 59, 70
9, 67299, Note_off_c, 7, 57, 64
9, 67408, Note_on_c, 7, 61, 55
9, 67429, Note_off_c, 7, 59, 64
9, 67512, Note_on_c, 7, 59, 64
9, 67567, Note_off_c, 7, 61, 64
9, 67627, Note_off_c, 7, 59, 64
9, 67643, Note_on_c, 7, 57, 78
9, 67759, Note_on_c, 7, 56, 58
9, 67779, Note_off_c, 7, 57, 64
9, 67869, Note_on_c, 7, 54, 44
9, 67894, Note_off_c, 7, 56, 64
9, 67988, Note_on_c, 7, 53, 60
9, 67999, Note_off_c, 7, 54, 64
9, 68090, Note_off_c, 7, 53, 64
9, 68123, Note_on_c, 7, 54, 60
9, 68236, Note_off_c, 7, 54, 64
9, 68381, Note_on_c, 7, 50, 66
9, 68486, Note_off_c, 7, 50, 64
9, 68609, Note_on_c, 7, 47, 70
9, 68725, Note_off_c, 7, 47, 64
9, 68852, Note_on_c, 7, 49, 63
9, 68954, Note_off_c, 7, 49, 64
9, 69103, Note_on_c, 7, 42, 60
9, 69608, Note_off_c, 7, 42, 64
9, 100545, Note_on_c, 7, 62, 87
9, 100619, Note_off_c, 7, 62, 64
9, 100652, Note_on_c, 7, 61, 82
9, 100721, Note_off_c, 7, 61, 64
9, 100777, Note_on_c, 7, 59, 82
9, 100860, Note_off_c, 7, 59, 64
9, 101041, Note_on_c, 7, 47, 80
9, 101150, Note_off_c, 7, 47, 64
9, 101281, Note_on_c, 7, 45, 70
9, 101373, Note_off_c, 7, 45, 64
9, 101515, Note_on_c, 7, 43, 70
9, 101620, Note_off_c, 7, 43, 64
9, 101746, Note_on_c, 7, 42, 74
9, 101864, Note_off_c, 7, 42, 64
9, 101988, Note_on_c, 7, 54, 74
9, 102104, Note_off_c, 7, 54, 64
9, 102233, Note_on_c, 7, 52, 82
9, 102332, Note_off_c, 7, 52, 64
9, 102467, Note_on_c, 7, 50, 76
9, 102582, Note_off_c, 7, 50, 64
9, 102717, Note_on_c, 7, 55, 87
9, 102819, Note_off_c, 7, 55, 64
9, 102957, Note_on_c, 7, 42, 74
9, 103080, Note_off_c, 7, 42, 64
9, 103210, Note_on_c, 7, 40, 87
9, 103320, Note_off_c, 7, 40, 64
9, 103453, Note_on_c, 7, 38, 80
9, 103559, Note_off_c, 7, 38, 64
9, 103683, Note_on_c, 7, 45, 78
9, 103806, Note_off_c, 7, 45, 64
9, 103917, Note_on_c, 7, 49, 87
9, 103979, Note_off_c, 7, 49, 64
9, 104012, Note_on_c, 7, 47, 89
9, 104081, Note_off_c, 7, 47, 64
9, 104140, Note_on_c, 7, 45, 72
9, 104247, Note_off_c, 7, 45, 64
9, 104385, Note_on_c, 7, 43, 80
9, 104485, Note_off_c, 7, 43, 64
9, 104634, Note_on_c, 7, 42, 72
9, 104761, Note_off_c, 7, 42, 64
9, 104872, Note_on_c, 7, 47, 80
9, 104983, Note_off_c, 7, 47, 64
9, 105102, Note_on_c, 7, 49, 66
9, 105209, Note_off_c, 7, 49, 64
9, 105335, Note_on_c, 7, 50, 76
9, 105451, Note_off_c, 7, 50, 64
9, 105575, Note_on_c, 7, 44, 80
9, 105688, Note_off_c, 7, 44, 64
9, 105822, Note_on_c, 7, 56, 78
9, 105930, Note_off_c, 7, 56, 64
9, 106063, Note_on_c, 7, 54, 66
9, 106177, Note_off_c, 7, 54, 64
9, 106301, Note_on_c, 7, 52, 61
9, 106407, Note_off_c, 7, 52, 64
9, 106552, Note_on_c, 7, 61, 80
9, 106674, Note_off_c, 7, 61, 64
9, 106794, Note_on_c, 7, 54, 66
9, 106896, Note_off_c, 7, 54, 64
9, 107030, Note_on_c, 7, 52, 68
9, 107127, Note_off_c, 7, 52, 64
9, 107262, Note_on_c, 7, 40, 80
9, 107353, Note_off_c, 7, 40, 64
9, 107506, Note_on_c, 7, 45, 85
9, 108074, Note_off_c, 7, 45, 64
9, 108217, Note_on_c, 7, 62, 82
9, 108297, Note_off_c, 7, 62, 64
9, 108328, Note_on_c, 7, 61, 72
9, 108404, Note_off_c, 7, 61, 64
9, 108461, Note_on_c, 7, 59, 72
9, 108563, Note_off_c, 7, 59, 64
9, 108706, Note_on_c, 7, 47, 82
9, 108836, Note_off_c, 7, 47, 64
9, 108947, Note_on_c, 7, 45, 72
9, 109059, Note_off_c, 7, 45, 64
9, 109188, Note_on_c, 7, 43, 80
9, 109313, Note_off_c, 7, 43, 64
9, 109439, Note_on_c, 7, 42, 66
9, 109550, Note_off_c, 7, 42, 64
9, 109671, Note_on_c, 7, 54, 85
9, 109781, Note_off_c, 7, 54, 64
9, 109911, Note_on_c, 7, 52, 72
9, 110016, Note_off_c, 7, 52, 64
9, 110149, Note_on_c, 7, 50, 80
9, 110269, Note_off_c, 7, 50, 64
9, 110395, Note_on_c, 7, 55, 80
9, 110502, Note_off_c, 7, 55, 64
9, 110625, Note_on_c, 7, 42, 76
9, 110749, Note_off_c, 7, 42, 64
9, 110866, Note_on_c, 7, 40, 85
9, 110982, Note_off_c, 7, 40, 64
9, 111115, Note_on_c, 7, 38, 85
9, 111228, Note_off_c, 7, 38, 64
9, 111356, Note_on_c, 7, 45, 85
9, 111483, Note_off_c, 7, 45, 64
9, 111584, Note_on_c, 7, 49, 72
9, 111658, Note_off_c, 7, 49, 64
9, 111692, Note_on_c, 7, 47, 85
9, 111767, Note_off_c, 7, 47, 64
9, 111820, Note_on_c, 7, 45, 70
9, 111912, Note_off_c, 7, 45, 64
9, 112059, Note_on_c, 7, 43, 76
9, 112170, Note_off_c, 7, 43, 64
9, 112311, Note_on_c, 7, 42, 68
9, 112439, Note_off_c, 7, 42, 64
9, 112562, Note_on_c, 7, 47, 85
9, 112667, Note_off_c, 7, 47, 64
9, 112785, Note_on_c, 7, 49, 76
9, 112890, Note_off_c, 7, 49, 64
9, 113014, Note_on_c, 7, 50, 80
9, 113123, Note_off_c, 7, 50, 64
9, 113258, Note_on_c, 7, 44, 76
9, 113357, Note_off_c, 7, 44, 64
9, 113493, Note_on_c, 7, 56, 72
9, 113600, Note_off_c, 7, 56, 64
9, 113733, Note_on_c, 7, 54, 68
9, 113844, Note_off_c, 7, 54, 64
9, 113972, Note_on_c, 7, 52, 61
9, 114074, Note_off_c, 7, 52, 64
9, 114227, Note_on_c, 7, 61, 72
9, 114341, Note_off_c, 7, 61, 64
9, 114464, Note_on_c, 7, 54, 68
9, 114563, Note_off_c, 7, 54, 64
9, 114691, Note_on_c, 7, 52, 80
9, 114791, Note_off_c, 7, 52, 64
9, 114931, Note_on_c, 7, 40, 80
9, 115022, Note_off_c, 7, 40, 64
9, 115185, Note_on_c, 7, 45, 74
9, 115717, Note_off_c, 7, 45, 64
9, 115717, End_track
10, 0, Start_track
10, 0, Title_t, "Violin"
10, 0, Program_c, 8, 40
10, 0, Control_c, 8, 7, 100
10, 2128, Note_on_c, 8, 74, 70
10, 2213, Note_off_c, 8, 74, 64
10, 2224, Note_on_c, 8, 78, 72
10, 2301, Note_off_c, 8, 78, 64
10, 2346, Note_on_c, 8, 81, 87
10, 2456, Note_off_c, 8, 81, 64
10, 4063, Note_on_c, 8, 73, 85
10, 4151, Note_off_c, 8, 73, 64
10, 4167, Note_on_c, 8, 76, 82
10, 4241, Note_off_c, 8, 76, 64
10, 4290, Note_on_c, 8, 81, 89
10, 4400, Note_off_c, 8, 81, 64
10, 5985, Note_on_c, 8, 74, 95
10, 6071, Note_off_c, 8, 74, 64
10, 6087, Note_on_c, 8, 80, 82
10, 6159, Note_off_c, 8, 80, 64
10, 6208, Note_on_c, 8, 83, 85
10, 6331, Note_off_c, 8, 83, 64
10, 7920, Note_on_c, 8, 73, 87
10, 8014, Note_off_c, 8, 73, 64
10, 8015, Note_on_c, 8, 76, 80
10, 8097, Note_off_c, 8, 76, 64
10, 8143, Note_on_c, 8, 81, 85
10, 8269, Note_off_c, 8, 81, 64
10, 9830, Note_on_c, 8, 74, 85
10, 9923, Note_off_c, 8, 74, 64
10, 9939, Note_on_c, 8, 78, 78
10, 10023, Note_off_c, 8, 78, 64
10, 10060, Note_on_c, 8, 81, 89
10, 10193, Note_off_c, 8, 81, 64
10, 11750, Note_on_c, 8, 73, 100
10, 11836, Note_off_c, 8, 73, 64
10, 11848, Note_on_c, 8, 76, 85
10, 11933, Note_off_c, 8, 76, 64
10, 11974, Note_on_c, 8, 81, 87
10, 12099, Note_off_c, 8, 81, 64
10, 13664, Note_on_c, 8, 74, 91
10, 13749, Note_off_c, 8, 74, 64
10, 13766, Note_on_c, 8, 80, 80
10, 13844, Note_off_c, 8, 80, 64
10, 13891, Note_on_c, 8, 83, 87
10, 14015, Note_off_c, 8, 83, 64
10, 15599, Note_on_c, 8, 73, 87
10, 15691, Note_off_c, 8, 73, 64
10, 15705, Note_on_c, 8, 76, 80
10, 15777, Note_off_c, 8, 76, 64
10, 15826, Note_on_c, 8, 81, 89
10, 15924, Note_off_c, 8, 81, 64
10, 47273, Note_on_c, 8, 66, 82
10, 47327, Note_on_c, 8, 64, 57
10, 47356, Note_off_c, 8, 66, 64
10, 47365, Note_on_c, 8, 62, 68
10, 47389, Note_off_c, 8, 64, 64
10, 47434, Note_on_c, 8, 64, 76
10, 47455, Note_off_c, 8, 62, 64
10, 47503, Note_on_c, 8, 66, 66
10, 47531, Note_off_c, 8, 64, 64
10, 47733, Note_off_c, 8, 66, 64
10, 48236, Note_on_c, 8, 66, 70
10, 48284, Note_on_c, 8, 64, 70
10, 48324, Note_off_c, 8, 66, 64
10, 48339, Note_on_c, 8, 62, 64
10, 48353, Note_off_c, 8, 64, 64
10, 48410, Note_on_c, 8, 64, 74
10, 48429, Note_off_c, 8, 62, 64
10, 48472, Note_on_c, 8, 66, 62
10, 48490, Note_off_c, 8, 64, 64
10, 48737, Note_off_c, 8, 66, 64
10, 50133, Note_on_c, 8, 66, 76
10, 50178, Note_on_c, 8, 64, 62
10, 50219, Note_off_c, 8, 66, 64
10, 50228, Note_on_c, 8, 62, 64
10, 50245, Note_off_c, 8, 64, 64
10, 50297, Note_on_c, 8, 64, 72
10, 50318, Note_off_c, 8, 62, 64
10, 50370, Note_on_c, 8, 66, 62
10, 50391, Note_off_c, 8, 64, 64
10, 50620, Note_off_c, 8, 66, 64
10, 51092, Note_on_c, 8, 66, 60
10, 51135, Note_on_c, 8, 64, 60
10, 51175, Note_off_c, 8, 66, 64
10, 51201, Note_on_c, 8, 62, 61
10, 51206, Note_off_c, 8, 64, 64
10, 51265, Note_on_c, 8, 64, 68
10, 51287, Note_off_c, 8, 62, 64
10, 51331, Note_on_c, 8, 66, 64
10, 51351, Note_off_c, 8, 64, 64
10, 51593, Note_off_c, 8, 66, 64
10, 52044, Note_on_c, 8, 66, 63
10, 52100, Note_on_c, 8, 64, 56
10, 52138, Note_off_c, 8, 66, 64
10, 52157, Note_on_c, 8, 62, 58
10, 52169, Note_off_c, 8, 64, 64
10, 52226, Note_on_c, 8, 64, 66
10, 52250, Note_off_c, 8, 62, 64
10, 52284, Note_on_c, 8, 66, 60
10, 52309, Note_off_c, 8, 64, 64
10, 52576, Note_off_c, 8, 66, 64
10, 53015, Note_on_c, 8, 64, 68
10, 53078, Note_on_c, 8, 62, 68
10, 53110, Note_on_c, 8, 61, 63
10, 53119, Note_off_c, 8, 64, 64
10, 53141, Note_off_c, 8, 62, 64
10, 53188, Note_on_c, 8, 62, 76
10, 53200, Note_off_c, 8, 61, 64
10, 53264, Note_on_c, 8, 64, 66
10, 53276, Note_off_c, 8, 62, 64
10, 53550, Note_off_c, 8, 64, 64
10, 53974, Note_on_c, 8, 62, 66
10, 54018, Note_on_c, 8, 61, 60
10, 54052, Note_off_c, 8, 62, 64
10, 54094, Note_off_c, 8, 61, 64
10, 54099, Note_on_c, 8, 59, 61
10, 54151, Note_on_c, 8, 61, 64
10, 54185, Note_off_c, 8, 59, 64
10, 54221, Note_on_c, 8, 62, 72
10, 54232, Note_off_c, 8, 61, 64
10, 54512, Note_off_c, 8, 62, 64
10, 54921, Note_on_c, 8, 62, 70
10, 54970, Note_on_c, 8, 61, 64
10, 55003, Note_off_c, 8, 62, 64
10, 55035, Note_on_c, 8, 59, 60
10, 55051, Note_off_c, 8, 61, 64
10, 55094, Note_on_c, 8, 61, 61
10, 55141, Note_off_c, 8, 59, 64
10, 55160, Note_on_c, 8, 62, 64
10, 55174, Note_off_c, 8, 61, 64
10, 55470, Note_off_c, 8, 62, 64
10, 55860, Note_on_c, 8, 61, 63
10, 55907, Note_on_c, 8, 59, 62
10, 55956, Note_off_c, 8, 61, 64
10, 55974, Note_on_c, 8, 57, 62
10, 55986, Note_off_c, 8, 59, 64
10, 56041, Note_on_c, 8, 59, 78
10, 56069, Note_off_c, 8, 57, 64
10, 56110, Note_on_c, 8, 61, 66
10, 56138, Note_off_c, 8, 59, 64
10, 56414, Note_off_c, 8, 61, 64
10, 57804, Note_on_c, 8, 61, 62
10, 57857, Note_on_c, 8, 59, 72
10, 57904, Note_off_c, 8, 61, 64
10, 57925, Note_on_c, 8, 58, 58
10, 57938, Note_off_c, 8, 59, 64
10, 57982, Note_on_c, 8, 59, 59
10, 58013, Note_off_c, 8, 58, 64
10, 58052, Note_on_c, 8, 61, 64
10, 58066, Note_off_c, 8, 59, 64
10, 58331, Note_off_c, 8, 61, 64
10, 58792, Note_on_c, 8, 66, 60
10, 58839, Note_on_c, 8, 64, 59
10, 58881, Note_off_c, 8, 66, 64
10, 58903, Note_on_c, 8, 62, 61
10, 58911, Note_off_c, 8, 64, 64
10, 58965, Note_on_c, 8, 64, 66
10, 58988, Note_off_c, 8, 62, 64
10, 59020, Note_on_c, 8, 66, 59
10, 59044, Note_off_c, 8, 64, 64
10, 59288, Note_off_c, 8, 66, 64
10, 59699, Note_on_c, 8, 66, 59
10, 59755, Note_on_c, 8, 64, 56
10, 59789, Note_off_c, 8, 66, 64
10, 59808, Note_on_c, 8, 62, 59
10, 59826, Note_off_c, 8, 64, 64
10, 59879, Note_on_c, 8, 64, 63
10, 59903, Note_off_c, 8, 62, 64
10, 59945, Note_on_c, 8, 66, 60
10, 59976, Note_off_c, 8, 64, 64
10, 60252, Note_off_c, 8, 66, 64
10, 61629, Note_on_c, 8, 66, 59
10, 61683, Note_on_c, 8, 64, 66
10, 61730, Note_off_c, 8, 66, 64
10, 61749, Note_on_c, 8, 62, 59
10, 61771, Note_off_c, 8, 64, 64
10, 61811, Note_on_c, 8, 64, 66
10, 61840, Note_off_c, 8, 62, 64
10, 61875, Note_on_c, 8, 66, 60
10, 61908, Note_off_c, 8, 64, 64
10, 62173, Note_off_c, 8, 66, 64
10, 62618, Note_on_c, 8, 66, 63
10, 62679, Note_on_c, 8, 64, 63
10, 62727, Note_off_c, 8, 66, 64
10, 62742, Note_on_c, 8, 62, 57
10, 62766, Note_off_c, 8, 64, 64
10, 62811, Note_on_c, 8, 64, 68
10, 62844, Note_off_c, 8, 62, 64
10, 62867, Note_on_c, 8, 66, 62
10, 62898, Note_off_c, 8, 64, 64
10, 63143, Note_off_c, 8, 66, 64
10, 63559, Note_on_c, 8, 66, 59
10, 63603, Note_on_c, 8, 64, 60
10, 63649, Note_off_c, 8, 66, 64
10, 63663, Note_on_c, 8, 62, 60
10, 63684, Note_off_c, 8, 64, 64
10, 63731, Note_on_c, 8, 64, 66
10, 63764, Note_off_c, 8, 62, 64
10, 63791, Note_on_c, 8, 66, 63
10, 63822, Note_off_c, 8, 64, 64
10, 64125, Note_off_c, 8, 66, 64
10, 64527, Note_on_c, 8, 64, 68
10, 64572, Note_on_c, 8, 62, 72
10, 64614, Note_on_c, 8, 61, 60
10, 64620, Note_off_c, 8, 64, 64
10, 64650, Note_off_c, 8, 62, 64
10, 64688, Note_on_c, 8, 62, 70
10, 64705, Note_off_c, 8, 61, 64
10, 64761, Note_on_c, 8, 64, 64
10, 64783, Note_off_c, 8, 62, 64
10, 65039, Note_off_c, 8, 64, 64
10, 65478, Note_on_c, 8, 62, 66
10, 65526, Note_on_c, 8, 61, 70
10, 65566, Note_off_c, 8, 62, 64
10, 65592, Note_on_c, 8, 59, 64
10, 65603, Note_off_c, 8, 61, 64
10, 65650, Note_on_c, 8, 61, 66
10, 65688, Note_off_c, 8, 59, 64
10, 65721, Note_on_c, 8, 62, 72
10, 65734, Note_off_c, 8, 61, 64
10, 66017, Note_off_c, 8, 62, 64
10, 66445, Note_on_c, 8, 62, 66
10, 66490, Note_on_c, 8, 61, 60
10, 66528, Note_off_c, 8, 62, 64
10, 66566, Note_on_c, 8, 59, 66
10, 66573, Note_off_c, 8, 61, 64
10, 66623, Note_on_c, 8, 61, 66
10, 66679, Note_off_c, 8, 59, 64
10, 66680, Note_on_c, 8, 62, 68
10, 66705, Note_off_c, 8, 61, 64
10, 66962, Note_off_c, 8, 62, 64
10, 67389, Note_on_c, 8, 61, 66
10, 67434, Note_on_c, 8, 59, 60
10, 67480, Note_off_c, 8, 61, 64
10, 67501, Note_on_c, 8, 57, 58
10, 67519, Note_off_c, 8, 59, 64
10, 67570, Note_on_c, 8, 59, 70
10, 67607, Note_off_c, 8, 57, 64
10, 67636, Note_on_c, 8, 61, 63
10, 67667, Note_off_c, 8, 59, 64
10, 67942, Note_off_c, 8, 61, 64
10, 69336, Note_on_c, 8, 61, 64
10, 69400, Note_on_c, 8, 59, 60
10, 69435, Note_off_c, 8, 61, 64
10, 69457, Note_on_c, 8, 58, 63
10, 69476, Note_off_c, 8, 59, 64
10, 69521, Note_on_c, 8, 59, 63
10, 69571, Note_off_c, 8, 58, 64
10, 69592, Note_on_c, 8, 61, 68
10, 69620, Note_off_c, 8, 59, 64
10, 69858, Note_off_c, 8, 61, 64
10, 101968, Note_on_c, 8, 74, 70
10, 102053, Note_off_c, 8, 74, 64
10, 102064, Note_on_c, 8, 78, 72
10, 102141, Note_off_c, 8, 78, 64
10, 102186, Note_on_c, 8, 81, 87
10, 102296, Note_off_c, 8, 81, 64
10, 103903, Note_on_c, 8, 73, 85
10, 103991, Note_off_c, 8, 73, 64
10, 104007, Note_on_c, 8, 76, 82
10, 104081, Note_off_c, 8, 76, 64
10, 104130, Note_on_c, 8, 81, 89
10, 104240, Note_off_c, 8, 81, 64
10, 105825, Note_on_c, 8, 74, 95
10, 105911, Note_off_c, 8, 74, 64
10, 105927, Note_on_c, 8, 80, 82
10, 105999, Note_off_c, 8, 80, 64
10, 106048, Note_on_c, 8, 83, 85
10, 106171, Note_off_c, 8, 83, 64
10, 107760, Note_on_c, 8, 73, 87
10, 107854, Note_off_c, 8, 73, 64
10, 107855, Note_on_c, 8, 76, 80
10, 107937, Note_off_c, 8, 76, 64
10, 107983, Note_on_c, 8, 81, 85
10, 108109, Note_off_c, 8, 81, 64
10, 109670, Note_on_c, 8, 74, 85
10, 109763, Note_off_c, 8, 74, 64
10, 109779, Note_on_c, 8, 78, 78
10, 109863, Note_off_c, 8, 78, 64
10, 109900, Note_on_c, 8, 81, 89
10, 110033, Note_off_c, 8, 81, 64
10, 111590, Note_on_c, 8, 73, 100
10, 111676, Note_off_c, 8, 73, 64
10, 111688, Note_on_c, 8, 76, 85
10, 111773, Note_off_c, 8, 76, 64
10, 111814, Note_on_c, 8, 81, 87
10, 111939, Note_off_c, 8, 81, 64
10, 113504, Note_on_c, 8, 74, 91
10, 113589, Note_off_c, 8, 74, 64
10, 113606, Note_on_c, 8, 80, 80
10, 113684, Note_off_c, 8, 80, 64
10, 113731, Note_on_c, 8, 83, 87
10, 113855, Note_off_c, 8, 83, 64
10, 115439, Note_on_c, 8, 73, 87
10, 115531, Note_off_c, 8, 73, 64
10, 115545, Note_on_c, 8, 76, 80
10, 115617, Note_off_c, 8, 76, 64
10, 115666, Note_on_c, 8, 81, 89
10, 115764, Note_off_c, 8, 81, 64
10, 115764, End_track
11, 0, Start_track
11, 0, Title_t, "Violin"
11, 0, Program_c, 10, 40
11, 0, Control_c, 10, 7, 100
11, 2138, Note_on_c, 10, 69, 89
11, 2226, Note_off_c, 10, 69, 64
11, 2243, Note_on_c, 10, 74, 82
11, 2341, Note_off_c, 10, 74, 64
11, 2364, Note_on_c, 10, 78, 91
11, 2468, Note_off_c, 10, 78, 64
11, 4066, Note_on_c, 10, 69, 95
11, 4150, Note_off_c, 10, 69, 64
11, 4170, Note_on_c, 10, 73, 76
11, 4253, Note_off_c, 10, 73, 64
11, 4292, Note_on_c, 10, 76, 89
11, 4416, Note_off_c, 10, 76, 64
11, 5986, Note_on_c, 10, 71, 87
11, 6080, Note_off_c, 10, 71, 64
11, 6102, Note_on_c, 10, 76, 80
11, 6185, Note_off_c, 10, 76, 64
11, 6223, Note_on_c, 10, 80, 102
11, 6335, Note_off_c, 10, 80, 64
11, 7913, Note_on_c, 10, 69, 91
11, 7997, Note_off_c, 10, 69, 64
11, 8020, Note_on_c, 10, 73, 68
11, 8110, Note_off_c, 10, 73, 64
11, 8149, Note_on_c, 10, 76, 85
11, 8265, Note_off_c, 10, 76, 64
11, 9820, Note_on_c, 10, 69, 91
11, 9911, Note_off_c, 10, 69, 64
11, 9929, Note_on_c, 10, 74, 70
11, 10009, Note_off_c, 10, 74, 64
11, 10052, Note_on_c, 10, 78, 91
11, 10152, Note_off_c, 10, 78, 64
11, 11743, Note_on_c, 10, 69, 85
11, 11828, Note_off_c, 10, 69, 64
11, 11847, Note_on_c, 10, 73, 70
11, 11925, Note_off_c, 10, 73, 64
11, 11970, Note_on_c, 10, 76, 80
11, 12089, Note_off_c, 10, 76, 64
11, 13656, Note_on_c, 10, 71, 87
11, 13746, Note_off_c, 10, 71, 64
11, 13769, Note_on_c, 10, 76, 76
11, 13847, Note_off_c, 10, 76, 64
11, 13895, Note_on_c, 10, 80, 98
11, 13999, Note_off_c, 10, 80, 64
11, 15590, Note_on_c, 10, 69, 85
11, 15673, Note_off_c, 10, 69, 64
11, 15702, Note_on_c, 10, 73, 68
11, 15782, Note_off_c, 10, 73, 64
11, 15825, Note_on_c, 10, 76, 82
11, 15915, Note_off_c, 10, 76, 64
11, 47273, Note_on_c, 10, 66, 59
11, 47320, Note_on_c, 10, 64, 60
11, 47361, Note_off_c, 10, 66, 64
11, 47386, Note_on_c, 10, 62, 60
11, 47398, Note_off_c, 10, 64, 64
11, 47449, Note_on_c, 10, 64, 61
11, 47472, Note_off_c, 10, 62, 64
11, 47510, Note_on_c, 10, 66, 60
11, 47531, Note_off_c, 10, 64, 64
11, 47754, Note_off_c, 10, 66, 64
11, 48224, Note_on_c, 10, 66, 60
11, 48279, Note_on_c, 10, 64, 53
11, 48317, Note_off_c, 10, 66, 64
11, 48331, Note_on_c, 10, 62, 59
11, 48346, Note_off_c, 10, 64, 64
11, 48400, Note_on_c, 10, 64, 63
11, 48421, Note_off_c, 10, 62, 64
11, 48455, Note_on_c, 10, 66, 63
11, 48478, Note_off_c, 10, 64, 64
11, 48732, Note_off_c, 10, 66, 64
11, 50140, Note_on_c, 10, 66, 57
11, 50181, Note_on_c, 10, 64, 60
11, 50223, Note_off_c, 10, 66, 64
11, 50237, Note_on_c, 10, 62, 59
11, 50258, Note_off_c, 10, 64, 64
11, 50306, Note_on_c, 10, 64, 63
11, 50333, Note_off_c, 10, 62, 64
11, 50366, Note_on_c, 10, 66, 59
11, 50389, Note_off_c, 10, 64, 64
11, 50632, Note_off_c, 10, 66, 64
11, 51087, Note_on_c, 10, 66, 60
11, 51140, Note_on_c, 10, 64, 63
11, 51178, Note_off_c, 10, 66, 64
11, 51203, Note_on_c, 10, 62, 59
11, 51215, Note_off_c, 10, 64, 64
11, 51261, Note_on_c, 10, 64, 64
11, 51286, Note_off_c, 10, 62, 64
11, 51325, Note_on_c, 10, 66, 60
11, 51351, Note_off_c, 10, 64, 64
11, 51591, Note_off_c, 10, 66, 64
11, 52042, Note_on_c, 10, 66, 62
11, 52098, Note_on_c, 10, 64, 57
11, 52150, Note_off_c, 10, 66, 64
11, 52165, Note_on_c, 10, 62, 59
11, 52181, Note_off_c, 10, 64, 64
11, 52229, Note_on_c, 10, 64, 70
11, 52258, Note_off_c, 10, 62, 64
11, 52283, Note_on_c, 10, 66, 63
11, 52316, Note_off_c, 10, 64, 64
11, 52559, Note_off_c, 10, 66, 64
11, 53024, Note_on_c, 10, 64, 70
11, 53084, Note_on_c, 10, 62, 72
11, 53120, Note_on_c, 10, 61, 60
11, 53133, Note_off_c, 10, 64, 64
11, 53155, Note_off_c, 10, 62, 64
11, 53200, Note_on_c, 10, 62, 72
11, 53214, Note_off_c, 10, 61, 64
11, 53273, Note_on_c, 10, 64, 63
11, 53288, Note_off_c, 10, 62, 64
11, 53520, Note_off_c, 10, 64, 64
11, 53966, Note_on_c, 10, 62, 66
11, 54011, Note_on_c, 10, 61, 62
11, 54054, Note_off_c, 10, 62, 64
11, 54076, Note_on_c, 10, 59, 60
11, 54092, Note_off_c, 10, 61, 64
11, 54139, Note_on_c, 10, 61, 63
11, 54178, Note_off_c, 10, 59, 64
11, 54197, Note_on_c, 10, 62, 64
11, 54215, Note_off_c, 10, 61, 64
11, 54495, Note_off_c, 10, 62, 64
11, 54948, Note_on_c, 10, 62, 70
11, 55006, Note_on_c, 10, 61, 57
11, 55039, Note_off_c, 10, 62, 64
11, 55065, Note_on_c, 10, 59, 59
11, 55079, Note_off_c, 10, 61, 64
11, 55124, Note_on_c, 10, 61, 70
11, 55160, Note_off_c, 10, 59, 64
11, 55177, Note_on_c, 10, 62, 63
11, 55200, Note_off_c, 10, 61, 64
11, 55488, Note_off_c, 10, 62, 64
11, 55887, Note_on_c, 10, 61, 64
11, 55941, Note_on_c, 10, 59, 52
11, 55982, Note_off_c, 10, 61, 64
11, 55996, Note_on_c, 10, 57, 63
11, 56010, Note_off_c, 10, 59, 64
11, 56060, Note_on_c, 10, 59, 68
11, 56086, Note_off_c, 10, 57, 64
11, 56119, Note_on_c, 10, 61, 61
11, 56155, Note_off_c, 10, 59, 64
11, 56425, Note_off_c, 10, 61, 64
11, 57805, Note_on_c, 10, 61, 68
11, 57857, Note_on_c, 10, 59, 68
11, 57899, Note_off_c, 10, 61, 64
11, 57918, Note_on_c, 10, 58, 60
11, 57930, Note_off_c, 10, 59, 64
11, 57976, Note_on_c, 10, 59, 57
11, 58013, Note_off_c, 10, 58, 64
11, 58039, Note_on_c, 10, 61, 61
11, 58070, Note_off_c, 10, 59, 64
11, 58329, Note_off_c, 10, 61, 64
11, 58782, Note_on_c, 10, 66, 62
11, 58840, Note_on_c, 10, 64, 59
11, 58875, Note_off_c, 10, 66, 64
11, 58885, Note_on_c, 10, 62, 59
11, 58908, Note_off_c, 10, 64, 64
11, 58948, Note_on_c, 10, 64, 61
11, 58976, Note_off_c, 10, 62, 64
11, 59010, Note_on_c, 10, 66, 62
11, 59039, Note_off_c, 10, 64, 64
11, 59290, Note_off_c, 10, 66, 64
11, 59730, Note_on_c, 10, 66, 64
11, 59786, Note_on_c, 10, 64, 59
11, 59822, Note_off_c, 10, 66, 64
11, 59837, Note_on_c, 10, 62, 58
11, 59855, Note_off_c, 10, 64, 64
11, 59902, Note_on_c, 10, 64, 66
11, 59931, Note_off_c, 10, 62, 64
11, 59960, Note_on_c, 10, 66, 60
11, 59991, Note_off_c, 10, 64, 64
11, 60259, Note_off_c, 10, 66, 64
11, 61666, Note_on_c, 10, 66, 66
11, 61716, Note_on_c, 10, 64, 60
11, 61754, Note_off_c, 10, 66, 64
11, 61764, Note_on_c, 10, 62, 63
11, 61783, Note_off_c, 10, 64, 64
11, 61833, Note_on_c, 10, 64, 66
11, 61858, Note_off_c, 10, 62, 64
11, 61892, Note_on_c, 10, 66, 60
11, 61921, Note_off_c, 10, 64, 64
11, 62201, Note_off_c, 10, 66, 64
11, 62613, Note_on_c, 10, 66, 60
11, 62670, Note_on_c, 10, 64, 57
11, 62711, Note_off_c, 10, 66, 64
11, 62718, Note_on_c, 10, 62, 55
11, 62747, Note_off_c, 10, 64, 64
11, 62792, Note_on_c, 10, 64, 66
11, 62822, Note_off_c, 10, 62, 64
11, 62853, Note_on_c, 10, 66, 64
11, 62886, Note_off_c, 10, 64, 64
11, 63155, Note_off_c, 10, 66, 64
11, 63563, Note_on_c, 10, 66, 66
11, 63622, Note_on_c, 10, 64, 57
11, 63658, Note_off_c, 10, 66, 64
11, 63670, Note_on_c, 10, 62, 64
11, 63686, Note_off_c, 10, 64, 64
11, 63743, Note_on_c, 10, 64, 66
11, 63772, Note_off_c, 10, 62, 64
11, 63800, Note_on_c, 10, 66, 60
11, 63829, Note_off_c, 10, 64, 64
11, 64123, Note_off_c, 10, 66, 64
11, 64534, Note_on_c, 10, 64, 62
11, 64579, Note_on_c, 10, 62, 68
11, 64607, Note_off_c, 10, 64, 64
11, 64651, Note_on_c, 10, 61, 64
11, 64662, Note_off_c, 10, 62, 64
11, 64705, Note_on_c, 10, 62, 64
11, 64729, Note_off_c, 10, 61, 64
11, 64792, Note_on_c, 10, 64, 59
11, 64805, Note_off_c, 10, 62, 64
11, 65068, Note_off_c, 10, 64, 64
11, 65490, Note_on_c, 10, 62, 70
11, 65531, Note_on_c, 10, 61, 63
11, 65574, Note_off_c, 10, 62, 64
11, 65611, Note_on_c, 10, 59, 64
11, 65621, Note_off_c, 10, 61, 64
11, 65673, Note_on_c, 10, 61, 66
11, 65718, Note_off_c, 10, 59, 64
11, 65732, Note_on_c, 10, 62, 70
11, 65749, Note_off_c, 10, 61, 64
11, 66024, Note_off_c, 10, 62, 64
11, 66439, Note_on_c, 10, 62, 76
11, 66484, Note_on_c, 10, 61, 74
11, 66520, Note_off_c, 10, 62, 64
11, 66568, Note_on_c, 10, 59, 68
11, 66575, Note_off_c, 10, 61, 64
11, 66622, Note_on_c, 10, 61, 64
11, 66679, Note_off_c, 10, 59, 64
11, 66679, Note_on_c, 10, 62, 66
11, 66696, Note_off_c, 10, 61, 64
11, 66991, Note_off_c, 10, 62, 64
11, 67404, Note_on_c, 10, 61, 68
11, 67458, Note_on_c, 10, 59, 59
11, 67499, Note_off_c, 10, 61, 64
11, 67524, Note_on_c, 10, 57, 60
11, 67537, Note_off_c, 10, 59, 64
11, 67584, Note_on_c, 10, 59, 66
11, 67626, Note_off_c, 10, 57, 64
11, 67650, Note_on_c, 10, 61, 63
11, 67684, Note_off_c, 10, 59, 64
11, 67973, Note_off_c, 10, 61, 64
11, 69341, Note_on_c, 10, 61, 70
11, 69404, Note_on_c, 10, 59, 58
11, 69447, Note_off_c, 10, 61, 64
11, 69471, Note_on_c, 10, 58, 66
11, 69485, Note_off_c, 10, 59, 64
11, 69525, Note_on_c, 10, 59, 70
11, 69556, Note_off_c, 10, 58, 64
11, 69592, Note_on_c, 10, 61, 66
11, 69627, Note_off_c, 10, 59, 64
11, 69874, Note_off_c, 10, 61, 64
11, 101978, Note_on_c, 10, 69, 89
11, 102066, Note_off_c, 10, 69, 64
11, 102083, Note_on_c, 10, 74, 82
11, 102181, Note_off_c, 10, 74, 64
11, 102204, Note_on_c, 10, 78, 91
11, 102308, Note_off_c, 10, 78, 64
11, 103906, Note_on_c, 10, 69, 95
11, 103990, Note_off_c, 10, 69, 64
11, 104010, Note_on_c, 10, 73, 76
11, 104093, Note_off_c, 10, 73, 64
11, 104132, Note_on_c, 10, 76, 89
11, 104256, Note_off_c, 10, 76, 64
11, 105826, Note_on_c, 10, 71, 87
11, 105920, Note_off_c, 10, 71, 64
11, 105942, Note_on_c, 10, 76, 80
11, 106025, Note_off_c, 10, 76, 64
11, 106063, Note_on_c, 10, 80, 102
11, 106175, Note_off_c, 10, 80, 64
11, 107753, Note_on_c, 10, 69, 91
11, 107837, Note_off_c, 10, 69, 64
11, 107860, Note_on_c, 10, 73, 68
11, 107950, Note_off_c, 10, 73, 64
11, 107989, Note_on_c, 10, 76, 85
11, 108105, Note_off_c, 10, 76, 64
11, 109660, Note_on_c, 10, 69, 91
11, 109751, Note_off_c, 10, 69, 64
11, 109769, Note_on_c, 10, 74, 70
11, 109849, Note_off_c, 10, 74, 64
11, 109892, Note_on_c, 10, 78, 91
11, 109992, Note_off_c, 10, 78, 64
11, 111583, Note_on_c, 10, 69, 85
11, 111668, Note_off_c, 10, 69, 64
11, 111687, Note_on_c, 10, 73, 70
11, 111765, Note_off_c, 10, 73, 64
11, 111810, Note_on_c, 10, 76, 80
11, 111929, Note_off_c, 10, 76, 64
11, 113496, Note_on_c, 10, 71, 87
11, 113586, Note_off_c, 10, 71, 64
11, 113609, Note_on_c, 10, 76, 76
11, 113687, Note_off_c, 10, 76, 64
11, 113735, Note_on_c, 10, 80, 98
11, 113839, Note_off_c, 10, 80, 64
11, 115430, Note_on_c, 10, 69, 85
11, 115513, Note_off_c, 10, 69, 64
11, 115542, Note_on_c, 10, 73, 68
11, 115622, Note_off_c, 10, 73, 64
11, 115665, Note_on_c, 10, 76, 82
11, 115755, Note_off_c, 10, 76, 64
11, 115755, End_track
12, 0, Start_track
12, 0, Title_t, "Viola"
12, 0, Program_c, 11, 41
12, 0, Control_c, 11, 7, 100
12, 2146, Note_on_c, 11, 66, 87
12, 2233, Note_off_c, 11, 66, 64
12, 2248, Note_on_c, 11, 69, 80
12, 2340, Note_off_c, 11, 69, 64
12, 2371, Note_on_c, 11, 74, 85
12, 2471, Note_off_c, 11, 74, 64
12, 4066, Note_on_c, 11, 64, 89
12, 4149, Note_off_c, 11, 64, 64
12, 4178, Note_on_c, 11, 69, 78
12, 4251, Note_off_c, 11, 69, 64
12, 4303, Note_on_c, 11, 73, 80
12, 4403, Note_off_c, 11, 73, 64
12, 5980, Note_on_c, 11, 64, 87
12, 6055, Note_off_c, 11, 64, 64
12, 6095, Note_on_c, 11, 71, 76
12, 6169, Note_off_c, 11, 71, 64
12, 6212, Note_on_c, 11, 74, 82
12, 6318, Note_off_c, 11, 74, 64
12, 7918, Note_on_c, 11, 64, 80
12, 7999, Note_off_c, 11, 64, 64
12, 8019, Note_on_c, 11, 69, 74
12, 8089, Note_off_c, 11, 69, 64
12, 8146, Note_on_c, 11, 73, 72
12, 8247, Note_off_c, 11, 73, 64
12, 9831, Note_on_c, 11, 66, 82
12, 9924, Note_off_c, 11, 66, 64
12, 9936, Note_on_c, 11, 69, 76
12, 10019, Note_off_c, 11, 69, 64
12, 10064, Note_on_c, 11, 74, 85
12, 10164, Note_off_c, 11, 74, 64
12, 11738, Note_on_c, 11, 64, 82
12, 11820, Note_off_c, 11, 64, 64
12, 11849, Note_on_c, 11, 69, 70
12, 11922, Note_off_c, 11, 69, 64
12, 11983, Note_on_c, 11, 73, 80
12, 12077, Note_off_c, 11, 73, 64
12, 13663, Note_on_c, 11, 64, 85
12, 13750, Note_off_c, 11, 64, 64
12, 13783, Note_on_c, 11, 71, 80
12, 13855, Note_off_c, 11, 71, 64
12, 13902, Note_on_c, 11, 74, 82
12, 14010, Note_off_c, 11, 74, 64
12, 15599, Note_on_c, 11, 64, 87
12, 15680, Note_off_c, 11, 64, 64
12, 15708, Note_on_c, 11, 69, 68
12, 15775, Note_off_c, 11, 69, 64
12, 15832, Note_on_c, 11, 73, 80
12, 15929, Note_off_c, 11, 73, 64
12, 47287, Note_on_c, 11, 66, 72
12, 47339, Note_on_c, 11, 64, 58
12, 47382, Note_off_c, 11, 66, 64
12, 47387, Note_on_c, 11, 62, 64
12, 47410, Note_off_c, 11, 64, 64
12, 47455, Note_on_c, 11, 64, 72
12, 47481, Note_off_c, 11, 62, 64
12, 47527, Note_on_c, 11, 66, 59
12, 47544, Note_off_c, 11, 64, 64
12, 47812, Note_off_c, 11, 66, 64
12, 48229, Note_on_c, 11, 66, 70
12, 48285, Note_on_c, 11, 64, 59
12, 48323, Note_off_c, 11, 66, 64
12, 48338, Note_on_c, 11, 62, 60
12, 48358, Note_off_c, 11, 64, 64
12, 48405, Note_on_c, 11, 64, 60
12, 48429, Note_off_c, 11, 62, 64
12, 48459, Note_on_c, 11, 66, 61
12, 48483, Note_off_c, 11, 64, 64
12, 48771, Note_off_c, 11, 66, 64
12, 50124, Note_on_c, 11, 66, 66
12, 50176, Note_on_c, 11, 64, 60
12, 50221, Note_off_c, 11, 66, 64
12, 50233, Note_on_c, 11, 62, 63
12, 50254, Note_off_c, 11, 64, 64
12, 50299, Note_on_c, 11, 64, 64
12, 50325, Note_off_c, 11, 62, 64
12, 50354, Note_on_c, 11, 66, 63
12, 50377, Note_off_c, 11, 64, 64
12, 50691, Note_off_c, 11, 66, 64
12, 51096, Note_on_c, 11, 66, 62
12, 51149, Note_on_c, 11, 64, 58
12, 51189, Note_off_c, 11, 66, 64
12, 51208, Note_on_c, 11, 62, 60
12, 51222, Note_off_c, 11, 64, 64
12, 51272, Note_on_c, 11, 64, 64
12, 51299, Note_off_c, 11, 62, 64
12, 51331, Note_on_c, 11, 66, 64
12, 51357, Note_off_c, 11, 64, 64
12, 51671, Note_off_c, 11, 66, 64
12, 52058, Note_on_c, 11, 66, 64
12, 52105, Note_on_c, 11, 64, 57
12, 52155, Note_off_c, 11, 66, 64
12, 52167, Note_on_c, 11, 62, 59
12, 52177, Note_off_c, 11, 64, 64
12, 52227, Note_on_c, 11, 64, 61
12, 52262, Note_off_c, 11, 62, 64
12, 52290, Note_on_c, 11, 66, 66
12, 52317, Note_off_c, 11, 64, 64
12, 52635, Note_off_c, 11, 66, 64
12, 53022, Note_on_c, 11, 64, 70
12, 53076, Note_on_c, 11, 62, 59
12, 53133, Note_off_c, 11, 64, 64
12, 53141, Note_on_c, 11, 61, 59
12, 53155, Note_off_c, 11, 62, 64
12, 53208, Note_on_c, 11, 62, 68
12, 53242, Note_off_c, 11, 61, 64
12, 53269, Note_on_c, 11, 64, 68
12, 53299, Note_off_c, 11, 62, 64
12, 53584, Note_off_c, 11, 64, 64
12, 53955, Note_on_c, 11, 62, 70
12, 54007, Note_on_c, 11, 61, 60
12, 54061, Note_off_c, 11, 62, 64
12, 54069, Note_on_c, 11, 59, 57
12, 54094, Note_off_c, 11, 61, 64
12, 54133, Note_on_c, 11, 61, 58
12, 54168, Note_off_c, 11, 59, 64
12, 54197, Note_on_c, 11, 62, 68
12, 54232, Note_off_c, 11, 61, 64
12, 54526, Note_off_c, 11, 62, 64
12, 54911, Note_on_c, 11, 62, 64
12, 54970, Note_on_c, 11, 61, 57
12, 55020, Note_off_c, 11, 62, 64
12, 55037, Note_on_c, 11, 59, 58
12, 55047, Note_off_c, 11, 61, 64
12, 55103, Note_on_c, 11, 61, 60
12, 55134, Note_off_c, 11, 59, 64
12, 55167, Note_on_c, 11, 62, 64
12, 55188, Note_off_c, 11, 61, 64
12, 55521, Note_off_c, 11, 62, 64
12, 55868, Note_on_c, 11, 61, 68
12, 55930, Note_on_c, 11, 59, 53
12, 55974, Note_off_c, 11, 61, 64
12, 55984, Note_on_c, 11, 57, 62
12, 55998, Note_off_c, 11, 59, 64
12, 56053, Note_on_c, 11, 59, 60
12, 56084, Note_off_c, 11, 57, 64
12, 56112, Note_on_c, 11, 61, 64
12, 56138, Note_off_c, 11, 59, 64
12, 56452, Note_off_c, 11, 61, 64
12, 57807, Note_on_c, 11, 61, 66
12, 57871, Note_on_c, 11, 59, 58
12, 57899, Note_off_c, 11, 61, 64
12, 57925, Note_on_c, 11, 58, 72
12, 57938, Note_off_c, 11, 59, 64
12, 57975, Note_on_c, 11, 59, 68
12, 57998, Note_off_c, 11, 58, 64
12, 58039, Note_on_c, 11, 61, 61
12, 58054, Note_off_c, 11, 59, 64
12, 58358, Note_off_c, 11, 61, 64
12, 58796, Note_on_c, 11, 66, 62
12, 58846, Note_on_c, 11, 64, 60
12, 58894, Note_off_c, 11, 66, 64
12, 58910, Note_on_c, 11, 62, 59
12, 58920, Note_off_c, 11, 64, 64
12, 58970, Note_on_c, 11, 64, 60
12, 58996, Note_off_c, 11, 62, 64
12, 59029, Note_on_c, 11, 66, 61
12, 59046, Note_off_c, 11, 64, 64
12, 59328, Note_off_c, 11, 66, 64
12, 59741, Note_on_c, 11, 66, 66
12, 59794, Note_on_c, 11, 64, 59
12, 59837, Note_off_c, 11, 66, 64
12, 59850, Note_on_c, 11, 62, 60
12, 59860, Note_off_c, 11, 64, 64
12, 59912, Note_on_c, 11, 64, 62
12, 59938, Note_off_c, 11, 62, 64
12, 59969, Note_on_c, 11, 66, 66
12, 59984, Note_off_c, 11, 64, 64
12, 60297, Note_off_c, 11, 66, 64
12, 61654, Note_on_c, 11, 66, 64
12, 61704, Note_on_c, 11, 64, 60
12, 61745, Note_off_c, 11, 66, 64
12, 61757, Note_on_c, 11, 62, 63
12, 61773, Note_off_c, 11, 64, 64
12, 61820, Note_on_c, 11, 64, 64
12, 61845, Note_off_c, 11, 62, 64
12, 61887, Note_on_c, 11, 66, 60
12, 61896, Note_off_c, 11, 64, 64
12, 62198, Note_off_c, 11, 66, 64
12, 62639, Note_on_c, 11, 66, 66
12, 62689, Note_on_c, 11, 64, 58
12, 62725, Note_off_c, 11, 66, 64
12, 62744, Note_on_c, 11, 62, 58
12, 62754, Note_off_c, 11, 64, 64
12, 62806, Note_on_c, 11, 64, 62
12, 62827, Note_off_c, 11, 62, 64
12, 62865, Note_on_c, 11, 66, 61
12, 62886, Note_off_c, 11, 64, 64
12, 63198, Note_off_c, 11, 66, 64
12, 63590, Note_on_c, 11, 66, 63
12, 63644, Note_on_c, 11, 64, 53
12, 63682, Note_off_c, 11, 66, 64
12, 63698, Note_on_c, 11, 62, 58
12, 63713, Note_off_c, 11, 64, 64
12, 63762, Note_on_c, 11, 64, 64
12, 63796, Note_off_c, 11, 62, 64
12, 63820, Note_on_c, 11, 66, 59
12, 63843, Note_off_c, 11, 64, 64
12, 64159, Note_off_c, 11, 66, 64
12, 64543, Note_on_c, 11, 64, 68
12, 64595, Note_on_c, 11, 62, 62
12, 64645, Note_off_c, 11, 64, 64
12, 64650, Note_on_c, 11, 61, 57
12, 64665, Note_off_c, 11, 62, 64
12, 64716, Note_on_c, 11, 62, 68
12, 64742, Note_off_c, 11, 61, 64
12, 64776, Note_on_c, 11, 64, 66
12, 64799, Note_off_c, 11, 62, 64
12, 65099, Note_off_c, 11, 64, 64
12, 65512, Note_on_c, 11, 62, 70
12, 65572, Note_on_c, 11, 61, 66
12, 65614, Note_off_c, 11, 62, 64
12, 65618, Note_on_c, 11, 59, 64
12, 65642, Note_off_c, 11, 61, 64
12, 65687, Note_on_c, 11, 61, 78
12, 65725, Note_off_c, 11, 59, 64
12, 65742, Note_on_c, 11, 62, 66
12, 65773, Note_off_c, 11, 61, 64
12, 66069, Note_off_c, 11, 62, 64
12, 66451, Note_on_c, 11, 62, 68
12, 66499, Note_on_c, 11, 61, 56
12, 66546, Note_off_c, 11, 62, 64
12, 66568, Note_on_c, 11, 59, 57
12, 66575, Note_off_c, 11, 61, 64
12, 66625, Note_on_c, 11, 61, 63
12, 66663, Note_off_c, 11, 59, 64
12, 66686, Note_on_c, 11, 62, 66
12, 66711, Note_off_c, 11, 61, 64
12, 67024, Note_off_c, 11, 62, 64
12, 67415, Note_on_c, 11, 61, 68
12, 67468, Note_on_c, 11, 59, 57
12, 67513, Note_off_c, 11, 61, 64
12, 67520, Note_on_c, 11, 57, 59
12, 67536, Note_off_c, 11, 59, 64
12, 67582, Note_on_c, 11, 59, 63
12, 67612, Note_off_c, 11, 57, 64
12, 67645, Note_on_c, 11, 61, 70
12, 67664, Note_off_c, 11, 59, 64
12, 68001, Note_off_c, 11, 61, 64
12, 69338, Note_on_c, 11, 61, 68
12, 69399, Note_on_c, 11, 59, 47
12, 69419, Note_off_c, 11, 61, 64
12, 69447, Note_on_c, 11, 58, 76
12, 69464, Note_off_c, 11, 59, 64
12, 69497, Note_on_c, 11, 59, 72
12, 69521, Note_off_c, 11, 58, 64
12, 69576, Note_on_c, 11, 61, 70
12, 69583, Note_off_c, 11, 59, 64
12, 69870, Note_off_c, 11, 61, 64
12, 101986, Note_on_c, 11, 66, 87
12, 102073, Note_off_c, 11, 66, 64
12, 102088, Note_on_c, 11, 69, 80
12, 102180, Note_off_c, 11, 69, 64
12, 102211, Note_on_c, 11, 74, 85
12, 102311, Note_off_c, 11, 74, 64
12, 103906, Note_on_c, 11, 64, 89
12, 103989, Note_off_c, 11, 64, 64
12, 104018, Note_on_c, 11, 69, 78
12, 104091, Note_off_c, 11, 69, 64
12, 104143, Note_on_c, 11, 73, 80
12, 104243, Note_off_c, 11, 73, 64
12, 105820, Note_on_c, 11, 64, 87
12, 105895, Note_off_c, 11, 64, 64
12, 105935, Note_on_c, 11, 71, 76
12, 106009, Note_off_c, 11, 71, 64
12, 106052, Note_on_c, 11, 74, 82
12, 106158, Note_off_c, 11, 74, 64
12, 107758, Note_on_c, 11, 64, 80
12, 107839, Note_off_c, 11, 64, 64
12, 107859, Note_on_c, 11, 69, 74
12, 107929, Note_off_c, 11, 69, 64
12, 107986, Note_on_c, 11, 73, 72
12, 108087, Note_off_c, 11, 73, 64
12, 109671, Note_on_c, 11, 66, 82
12, 109764, Note_off_c, 11, 66, 64
12, 109776, Note_on_c, 11, 69, 76
12, 109859, Note_off_c, 11, 69, 64
12, 109904, Note_on_c, 11, 74, 85
12, 110004, Note_off_c, 11, 74, 64
12, 111578, Note_on_c, 11, 64, 82
12, 111660, Note_off_c, 11, 64, 64
12, 111689, Note_on_c, 11, 69, 70
12, 111762, Note_off_c, 11, 69, 64
12, 111823, Note_on_c, 11, 73, 80
12, 111917, Note_off_c, 11, 73, 64
12, 113503, Note_on_c, 11, 64, 85
12, 113590, Note_off_c, 11, 64, 64
12, 113623, Note_on_c, 11, 71, 80
12, 113695, Note_off_c, 11, 71, 64
12, 113742, Note_on_c, 11, 74, 82
12, 113850, Note_off_c, 11, 74, 64
12, 115439, Note_on_c, 11, 64, 87
12, 115520, Note_off_c, 11, 64, 64
12, 115548, Note_on_c, 11, 69, 68
12, 115615, Note_off_c, 11, 69, 64
12, 115672, Note_on_c, 11, 73, 80
12, 115769, Note_off_c, 11, 73, 64
12, 115769, End_track
13, 0, Start_track
13, 0, Title_t, "Cello"
13, 0, Program_c, 12, 42
13, 0, Control_c, 12, 7, 100
13, 700, Note_on_c, 12, 62, 82
13, 779, Note_off_c, 12, 62, 64
13, 809, Note_on_c, 12, 61, 80
13, 874, Note_off_c, 12, 61, 64
13, 923, Note_on_c, 12, 59, 78
13, 1016, Note_off_c, 12, 59, 64
13, 1177, Note_on_c, 12, 47, 85
13, 1300, Note_off_c, 12, 47, 64
13, 1422, Note_on_c, 12, 45, 80
13, 1524, Note_off_c, 12, 45, 64
13, 1671, Note_on_c, 12, 43, 85
13, 1764, Note_off_c, 12, 43, 64
13, 1911, Note_on_c, 12, 42, 80
13, 2001, Note_off_c, 12, 42, 64
13, 2136, Note_on_c, 12, 54, 80
13, 2219, Note_off_c, 12, 54, 64
13, 2386, Note_on_c, 12, 52, 85
13, 2471, Note_off_c, 12, 52, 64
13, 2618, Note_on_c, 12, 50, 78
13, 2713, Note_off_c, 12, 50, 64
13, 2865, Note_on_c, 12, 55, 87
13, 2953, Note_off_c, 12, 55, 64
13, 3114, Note_on_c, 12, 42, 80
13, 3209, Note_off_c, 12, 42, 64
13, 3347, Note_on_c, 12, 40, 85
13, 3445, Note_off_c, 12, 40, 64
13, 3598, Note_on_c, 12, 38, 87
13, 3677, Note_off_c, 12, 38, 64
13, 3833, Note_on_c, 12, 45, 82
13, 3935, Note_off_c, 12, 45, 64
13, 4062, Note_on_c, 12, 49, 91
13, 4132, Note_off_c, 12, 49, 64
13, 4161, Note_on_c, 12, 47, 87
13, 4242, Note_off_c, 12, 47, 64
13, 4286, Note_on_c, 12, 45, 82
13, 4379, Note_off_c, 12, 45, 64
13, 4535, Note_on_c, 12, 43, 78
13, 4642, Note_off_c, 12, 43, 64
13, 4784, Note_on_c, 12, 42, 70
13, 4889, Note_off_c, 12, 42, 64
13, 5023, Note_on_c, 12, 47, 82
13, 5118, Note_off_c, 12, 47, 64
13, 5248, Note_on_c, 12, 49, 64
13, 5345, Note_off_c, 12, 49, 64
13, 5485, Note_on_c, 12, 50, 85
13, 5576, Note_off_c, 12, 50, 64
13, 5737, Note_on_c, 12, 44, 80
13, 5846, Note_off_c, 12, 44, 64
13, 5972, Note_on_c, 12, 56, 74
13, 6064, Note_off_c, 12, 56, 64
13, 6209, Note_on_c, 12, 54, 72
13, 6309, Note_off_c, 12, 54, 64
13, 6463, Note_on_c, 12, 52, 74
13, 6567, Note_off_c, 12, 52, 64
13, 6713, Note_on_c, 12, 61, 82
13, 6834, Note_off_c, 12, 61, 64
13, 6948, Note_on_c, 12, 54, 74
13, 7043, Note_off_c, 12, 54, 64
13, 7183, Note_on_c, 12, 52, 76
13, 7268, Note_off_c, 12, 52, 64
13, 7431, Note_on_c, 12, 40, 85
13, 7517, Note_off_c, 12, 40, 64
13, 7662, Note_on_c, 12, 45, 78
13, 8163, Note_off_c, 12, 45, 64
13, 8400, Note_on_c, 12, 62, 78
13, 8486, Note_off_c, 12, 62, 64
13, 8512, Note_on_c, 12, 61, 70
13, 8583, Note_off_c, 12, 61, 64
13, 8623, Note_on_c, 12, 59, 72
13, 8718, Note_off_c, 12, 59, 64
13, 8861, Note_on_c, 12, 47, 80
13, 8981, Note_off_c, 12, 47, 64
13, 9101, Note_on_c, 12, 45, 78
13, 9210, Note_off_c, 12, 45, 64
13, 9342, Note_on_c, 12, 43, 78
13, 9442, Note_off_c, 12, 43, 64
13, 9589, Note_on_c, 12, 42, 80
13, 9694, Note_off_c, 12, 42, 64
13, 9829, Note_on_c, 12, 54, 72
13, 9931, Note_off_c, 12, 54, 64
13, 10074, Note_on_c, 12, 52, 82
13, 10162, Note_off_c, 12, 52, 64
13, 10306, Note_on_c, 12, 50, 76
13, 10410, Note_off_c, 12, 50, 64
13, 10548, Note_on_c, 12, 55, 87
13, 10642, Note_off_c, 12, 55, 64
13, 10790, Note_on_c, 12, 42, 78
13, 10907, Note_off_c, 12, 42, 64
13, 11035, Note_on_c, 12, 40, 74
13, 11135, Note_off_c, 12, 40, 64
13, 11263, Note_on_c, 12, 38, 66
13, 11363, Note_off_c, 12, 38, 64
13, 11503, Note_on_c, 12, 45, 76
13, 11611, Note_off_c, 12, 45, 64
13, 11745, Note_on_c, 12, 49, 95
13, 11820, Note_off_c, 12, 49, 64
13, 11854, Note_on_c, 12, 47, 80
13, 11937, Note_off_c, 12, 47, 64
13, 11986, Note_on_c, 12, 45, 80
13, 12084, Note_off_c, 12, 45, 64
13, 12226, Note_on_c, 12, 43, 78
13, 12333, Note_off_c, 12, 43, 64
13, 12464, Note_on_c, 12, 42, 62
13, 12573, Note_off_c, 12, 42, 64
13, 12697, Note_on_c, 12, 47, 70
13, 12791, Note_off_c, 12, 47, 64
13, 12922, Note_on_c, 12, 49, 62
13, 13021, Note_off_c, 12, 49, 64
13, 13161, Note_on_c, 12, 50, 72
13, 13256, Note_off_c, 12, 50, 64
13, 13413, Note_on_c, 12, 44, 72
13, 13499, Note_off_c, 12, 44, 64
13, 13641, Note_on_c, 12, 56, 80
13, 13746, Note_off_c, 12, 56, 64
13, 13885, Note_on_c, 12, 54, 66
13, 14000, Note_off_c, 12, 54, 64
13, 14139, Note_on_c, 12, 52, 68
13, 14241, Note_off_c, 12, 52, 64
13, 14387, Note_on_c, 12, 61, 87
13, 14512, Note_off_c, 12, 61, 64
13, 14617, Note_on_c, 12, 54, 74
13, 14707, Note_off_c, 12, 54, 64
13, 14857, Note_on_c, 12, 52, 78
13, 14943, Note_off_c, 12, 52, 64
13, 15096, Note_on_c, 12, 40, 85
13, 15177, Note_off_c, 12, 40, 64
13, 15345, Note_on_c, 12, 45, 82
13, 15831, Note_off_c, 12, 45, 64
13, 46797, Note_on_c, 12, 47, 80
13, 46890, Note_off_c, 12, 47, 64
13, 47038, Note_on_c, 12, 59, 68
13, 47492, Note_off_c, 12, 59, 64
13, 47741, Note_on_c, 12, 52, 85
13, 47833, Note_off_c, 12, 52, 64
13, 47980, Note_on_c, 12, 54, 66
13, 48474, Note_off_c, 12, 54, 64
13, 48708, Note_on_c, 12, 49, 72
13, 48816, Note_off_c, 12, 49, 64
13, 48951, Note_on_c, 12, 50, 80
13, 49076, Note_off_c, 12, 50, 64
13, 49195, Note_on_c, 12, 52, 85
13, 49311, Note_off_c, 12, 52, 64
13, 49435, Note_on_c, 12, 54, 78
13, 49540, Note_off_c, 12, 54, 64
13, 49661, Note_on_c, 12, 42, 72
13, 49753, Note_off_c, 12, 42, 64
13, 49901, Note_on_c, 12, 47, 85
13, 50057, Note_off_c, 12, 47, 64
13, 50140, Note_on_c, 12, 54, 68
13, 50257, Note_off_c, 12, 54, 64
13, 50396, Note_on_c, 12, 59, 87
13, 50511, Note_off_c, 12, 59, 64
13, 50632, Note_on_c, 12, 47, 80
13, 50750, Note_off_c, 12, 47, 64
13, 50881, Note_on_c, 12, 54, 70
13, 51360, Note_off_c, 12, 54, 64
13, 51583, Note_on_c, 12, 58, 70
13, 51706, Note_off_c, 12, 58, 64
13, 51837, Note_on_c, 12, 59, 85
13, 52345, Note_off_c, 12, 59, 64
13, 52570, Note_on_c, 12, 47, 89
13, 52671, Note_off_c, 12, 47, 64
13, 52810, Note_on_c, 12, 52, 78
13, 53349, Note_off_c, 12, 52, 64
13, 53506, Note_on_c, 12, 45, 85
13, 53648, Note_off_c, 12, 45, 64
13, 53770, Note_on_c, 12, 50, 72
13, 54313, Note_off_c, 12, 50, 64
13, 54462, Note_on_c, 12, 62, 93
13, 54577, Note_off_c, 12, 62, 64
13, 54712, Note_on_c, 12, 56, 72
13, 55240, Note_off_c, 12, 56, 64
13, 55417, Note_on_c, 12, 61, 78
13, 55534, Note_off_c, 12, 61, 64
13, 55673, Note_on_c, 12, 57, 87
13, 56180, Note_off_c, 12, 57, 64
13, 56390, Note_on_c, 12, 53, 85
13, 56490, Note_off_c, 12, 53, 64
13, 56623, Note_on_c, 12, 54, 76
13, 56748, Note_off_c, 12, 54, 64
13, 56858, Note_on_c, 12, 50, 87
13, 56967, Note_off_c, 12, 50, 64
13, 57109, Note_on_c, 12, 47, 82
13, 57225, Note_off_c, 12, 47, 64
13, 57350, Note_on_c, 12, 49, 78
13, 57453, Note_off_c, 12, 49, 64
13, 57588, Note_on_c, 12, 42, 68
13, 58104, Note_off_c, 12, 42, 64
13, 58308, Note_on_c, 12, 47, 85
13, 58427, Note_off_c, 12, 47, 64
13, 58563, Note_on_c, 12, 59, 80
13, 59067, Note_off_c, 12, 59, 64
13, 59278, Note_on_c, 12, 52, 80
13, 59380, Note_off_c, 12, 52, 64
13, 59520, Note_on_c, 12, 54, 70
13, 60043, Note_off_c, 12, 54, 64
13, 60226, Note_on_c, 12, 49, 78
13, 60330, Note_off_c, 12, 49, 64
13, 60473, Note_on_c, 12, 50, 76
13, 60593, Note_off_c, 12, 50, 64
13, 60710, Note_on_c, 12, 52, 76
13, 60841, Note_off_c, 12, 52, 64
13, 60947, Note_on_c, 12, 54, 70
13, 61059, Note_off_c, 12, 54, 64
13, 61185, Note_on_c, 12, 42, 82
13, 61301, Note_off_c, 12, 42, 64
13, 61424, Note_on_c, 12, 47, 80
13, 61536, Note_off_c, 12, 47, 64
13, 61652, Note_on_c, 12, 54, 68
13, 61757, Note_off_c, 12, 54, 64
13, 61892, Note_on_c, 12, 59, 80
13, 62010, Note_off_c, 12, 59, 64
13, 62146, Note_on_c, 12, 47, 78
13, 62257, Note_off_c, 12, 47, 64
13, 62386, Note_on_c, 12, 54, 68
13, 62885, Note_off_c, 12, 54, 64
13, 63090, Note_on_c, 12, 58, 76
13, 63217, Note_off_c, 12, 58, 64
13, 63354, Note_on_c, 12, 59, 80
13, 63855, Note_off_c, 12, 59, 64
13, 64075, Note_on_c, 12, 47, 82
13, 64192, Note_off_c, 12, 47, 64
13, 64306, Note_on_c, 12, 52, 78
13, 64811, Note_off_c, 12, 52, 64
13, 65030, Note_on_c, 12, 45, 82
13, 65129, Note_off_c, 12, 45, 64
13, 65263, Note_on_c, 12, 50, 72
13, 65830, Note_off_c, 12, 50, 64
13, 65968, Note_on_c, 12, 62, 85
13, 66067, Note_off_c, 12, 62, 64
13, 66217, Note_on_c, 12, 56, 74
13, 66710, Note_off_c, 12, 56, 64
13, 66950, Note_on_c, 12, 61, 80
13, 67054, Note_off_c, 12, 61, 64
13, 67195, Note_on_c, 12, 57, 82
13, 67652, Note_off_c, 12, 57, 64
13, 67892, Note_on_c, 12, 53, 82
13, 68013, Note_off_c, 12, 53, 64
13, 68142, Note_on_c, 12, 54, 70
13, 68274, Note_off_c, 12, 54, 64
13, 68377, Note_on_c, 12, 50, 85
13, 68474, Note_off_c, 12, 50, 64
13, 68602, Note_on_c, 12, 47, 82
13, 68718, Note_off_c, 12, 47, 64
13, 68851, Note_on_c, 12, 49, 68
13, 68948, Note_off_c, 12, 49, 64
13, 69101, Note_on_c, 12, 42, 70
13, 69611, Note_off_c, 12, 42, 64
13, 100540, Note_on_c, 12, 62, 82
13, 100619, Note_off_c, 12, 62, 64
13, 100649, Note_on_c, 12, 61, 80
13, 100714, Note_off_c, 12, 61, 64
13, 100763, Note_on_c, 12, 59, 78
13, 100856, Note_off_c, 12, 59, 64
13, 101017, Note_on_c, 12, 47, 85
13, 101140, Note_off_c, 12, 47, 64
13, 101262, Note_on_c, 12, 45, 80
13, 101364, Note_off_c, 12, 45, 64
13, 101511, Note_on_c, 12, 43, 85
13, 101604, Note_off_c, 12, 43, 64
13, 101751, Note_on_c, 12, 42, 80
13, 101841, Note_off_c, 12, 42, 64
13, 101976, Note_on_c, 12, 54, 80
13, 102059, Note_off_c, 12, 54, 64
13, 102226, Note_on_c, 12, 52, 85
13, 102311, Note_off_c, 12, 52, 64
13, 102458, Note_on_c, 12, 50, 78
13, 102553, Note_off_c, 12, 50, 64
13, 102705, Note_on_c, 12, 55, 87
13, 102793, Note_off_c, 12, 55, 64
13, 102954, Note_on_c, 12, 42, 80
13, 103049, Note_off_c, 12, 42, 64
13, 103187, Note_on_c, 12, 40, 85
13, 103285, Note_off_c, 12, 40, 64
13, 103438, Note_on_c, 12, 38, 87
13, 103517, Note_off_c, 12, 38, 64
13, 103673, Note_on_c, 12, 45, 82
13, 103775, Note_off_c, 12, 45, 64
13, 103902, Note_on_c, 12, 49, 91
13, 103972, Note_off_c, 12, 49, 64
13, 104001, Note_on_c, 12, 47, 87
13, 104082, Note_off_c, 12, 47, 64
13, 104126, Note_on_c, 12, 45, 82
13, 104219, Note_off_c, 12, 45, 64
13, 104375, Note_on_c, 12, 43, 78
13, 104482, Note_off_c, 12, 43, 64
13, 104624, Note_on_c, 12, 42, 70
13, 104729, Note_off_c, 12, 42, 64
13, 104863, Note_on_c, 12, 47, 82
13, 104958, Note_off_c, 12, 47, 64
13, 105088, Note_on_c, 12, 49, 64
13, 105185, Note_off_c, 12, 49, 64
13, 105325, Note_on_c, 12, 50, 85
13, 105416, Note_off_c, 12, 50, 64
13, 105577, Note_on_c, 12, 44, 80
13, 105686, Note_off_c, 12, 44, 64
13, 105812, Note_on_c, 12, 56, 74
13, 105904, Note_off_c, 12, 56, 64
13, 106049, Note_on_c, 12, 54, 72
13, 106149, Note_off_c, 12, 54, 64
13, 106303, Note_on_c, 12, 52, 74
13, 106407, Note_off_c, 12, 52, 64
13, 106553, Note_on_c, 12, 61, 82
13, 106674, Note_off_c, 12, 61, 64
13, 106788, Note_on_c, 12, 54, 74
13, 106883, Note_off_c, 12, 54, 64
13, 107023, Note_on_c, 12, 52, 76
13, 107108, Note_off_c, 12, 52, 64
13, 107271, Note_on_c, 12, 40, 85
13, 107357, Note_off_c, 12, 40, 64
13, 107502, Note_on_c, 12, 45, 78
13, 108003, Note_off_c, 12, 45, 64
13, 108240, Note_on_c, 12, 62, 78
13, 108326, Note_off_c, 12, 62, 64
13, 108352, Note_on_c, 12, 61, 70
13, 108423, Note_off_c, 12, 61, 64
13, 108463, Note_on_c, 12, 59, 72
13, 108558, Note_off_c, 12, 59, 64
13, 108701, Note_on_c, 12, 47, 80
13, 108821, Note_off_c, 12, 47, 64
13, 108941, Note_on_c, 12, 45, 78
13, 109050, Note_off_c, 12, 45, 64
13, 109182, Note_on_c, 12, 43, 78
13, 109282, Note_off_c, 12, 43, 64
13, 109429, Note_on_c, 12, 42, 80
13, 109534, Note_off_c, 12, 42, 64
13, 109669, Note_on_c, 12, 54, 72
13, 109771, Note_off_c, 12, 54, 64
13, 109914, Note_on_c, 12, 52, 82
13, 110002, Note_off_c, 12, 52, 64
13, 110146, Note_on_c, 12, 50, 76
13, 110250, Note_off_c, 12, 50, 64
13, 110388, Note_on_c, 12, 55, 87
13, 110482, Note_off_c, 12, 55, 64
13, 110630, Note_on_c, 12, 42, 78
13, 110747, Note_off_c, 12, 42, 64
13, 110875, Note_on_c, 12, 40, 74
13, 110975, Note_off_c, 12, 40, 64
13, 111103, Note_on_c, 12, 38, 66
13, 111203, Note_off_c, 12, 38, 64
13, 111343, Note_on_c, 12, 45, 76
13, 111451, Note_off_c, 12, 45, 64
13, 111585, Note_on_c, 12, 49, 95
13, 111660, Note_off_c, 12, 49, 64
13, 111694, Note_on_c, 12, 47, 80
13, 111777, Note_off_c, 12, 47, 64
13, 111826, Note_on_c, 12, 45, 80
13, 111924, Note_off_c, 12, 45, 64
13, 112066, Note_on_c, 12, 43, 78
13, 112173, Note_off_c, 12, 43, 64
13, 112304, Note_on_c, 12, 42, 62
13, 112413, Note_off_c, 12, 42, 64
13, 112537, Note_on_c, 12, 47, 70
13, 112631, Note_off_c, 12, 47, 64
13, 112762, Note_on_c, 12, 49, 62
13, 112861, Note_off_c, 12, 49, 64
13, 113001, Note_on_c, 12, 50, 72
13, 113096, Note_off_c, 12, 50, 64
13, 113253, Note_on_c, 12, 44, 72
13, 113339, Note_off_c, 12, 44, 64
13, 113481, Note_on_c, 12, 56, 80
13, 113586, Note_off_c, 12, 56, 64
13, 113725, Note_on_c, 12, 54, 66
13, 113840, Note_off_c, 12, 54, 64
13, 113979, Note_on_c, 12, 52, 68
13, 114081, Note_off_c, 12, 52, 64
13, 114227, Note_on_c, 12, 61, 87
13, 114352, Note_off_c, 12, 61, 64
13, 114457, Note_on_c, 12, 54, 74
13, 114547, Note_off_c, 12, 54, 64
13, 114697, Note_on_c, 12, 52, 78
13, 114783, Note_off_c, 12, 52, 64
13, 114936, Note_on_c, 12, 40, 85
13, 115017, Note_off_c, 12, 40, 64
13, 115185, Note_on_c, 12, 45, 82
13, 115671, Note_off_c, 12, 45, 64
13, 115671, End_track
14, 0, Start_track
14, 0, Title_t, "Trumpet"
14, 0, Program_c, 0, 56
14, 0, Control_c, 0, 7, 127
14, 29507, Note_on_c, 0, 81, 110
14, 29573, Note_off_c, 0, 81, 64
14, 29604, Note_on_c, 0, 83, 91
14, 29681, Note_off_c, 0, 83, 64
14, 29735, Note_on_c, 0, 81, 100
14, 29835, Note_off_c, 0, 81, 64
14, 29972, Note_on_c, 0, 79, 91
14, 30082, Note_off_c, 0, 79, 64
14, 30210, Note_on_c, 0, 78, 95
14, 30316, Note_off_c, 0, 78, 64
14, 30456, Note_on_c, 0, 76, 89
14, 30542, Note_off_c, 0, 76, 64
14, 30720, Note_on_c, 0, 74, 105
14, 31245, Note_off_c, 0, 74, 64
14, 44867, Note_on_c, 0, 81, 107
14, 44938, Note_off_c, 0, 81, 64
14, 44969, Note_on_c, 0, 83, 89
14, 45055, Note_off_c, 0, 83, 64
14, 45105, Note_on_c, 0, 81, 98
14, 45202, Note_off_c, 0, 81, 64
14, 45349, Note_on_c, 0, 79, 89
14, 45456, Note_off_c, 0, 79, 64
14, 45587, Note_on_c, 0, 78, 98
14, 45686, Note_off_c, 0, 78, 64
14, 45829, Note_on_c, 0, 76, 95
14, 45914, Note_off_c, 0, 76, 64
14, 46082, Note_on_c, 0, 74, 107
14, 46667, Note_off_c, 0, 74, 64
14, 129347, Note_on_c, 0, 81, 110
14, 129413, Note_off_c, 0, 81, 64
14, 129444, Note_on_c, 0, 83, 91
14, 129521, Note_off_c, 0, 83, 64
14, 129575, Note_on_c, 0, 81, 100
14, 129675, Note_off_c, 0, 81, 64
14, 129812, Note_on_c, 0, 79, 91
14, 129922, Note_off_c, 0, 79, 64
14, 130050, Note_on_c, 0, 78, 95
14, 130156, Note_off_c, 0, 78, 64
14, 130296, Note_on_c, 0, 76, 89
14, 130382, Note_off_c, 0, 76, 64
14, 130560, Note_on_c, 0, 74, 105
14, 131085, Note_off_c, 0, 74, 64
14, 144707, Note_on_c, 0, 81, 107
14, 144778, Note_off_c, 0, 81, 64
14, 144809, Note_on_c, 0, 83, 89
14, 144895, Note_off_c, 0, 83, 64
14, 144945, Note_on_c, 0, 81, 98
14, 145042, Note_off_c, 0, 81, 64
14, 145189, Note_on_c, 0, 79, 89
14, 145296, Note_off_c, 0, 79, 64
14, 145427, Note_on_c, 0, 78, 98
14, 145526, Note_off_c, 0, 78, 64
14, 145669, Note_on_c, 0, 76, 95
14, 145754, Note_off_c, 0, 76, 64
14, 145922, Note_on_c, 0, 74, 107
14, 146507, Note_off_c, 0, 74, 64
14, 146507, End_track
15, 0, Start_track
15, 0, Title_t, "Trumpet"
15, 0, Program_c, 1, 56
15, 0, Control_c, 1, 7, 127
15, 29502, Note_on_c, 1, 78, 102
15, 29571, Note_off_c, 1, 78, 64
15, 29604, Note_on_c, 1, 79, 87
15, 29678, Note_off_c, 1, 79, 64
15, 29730, Note_on_c, 1, 78, 95
15, 29813, Note_off_c, 1, 78, 64
15, 29975, Note_on_c, 1, 76, 89
15, 30068, Note_off_c, 1, 76, 64
15, 30208, Note_on_c, 1, 74, 93
15, 30324, Note_off_c, 1, 74, 64
15, 30442, Note_on_c, 1, 69, 85
15, 30554, Note_off_c, 1, 69, 64
15, 30701, Note_on_c, 1, 69, 87
15, 31240, Note_off_c, 1, 69, 64
15, 44865, Note_on_c, 1, 78, 100
15, 44920, Note_off_c, 1, 78, 64
15, 44962, Note_on_c, 1, 79, 98
15, 45036, Note_off_c, 1, 79, 64
15, 45092, Note_on_c, 1, 78, 102
15, 45200, Note_off_c, 1, 78, 64
15, 45337, Note_on_c, 1, 76, 95
15, 45444, Note_off_c, 1, 76, 64
15, 45584, Note_on_c, 1, 74, 93
15, 45670, Note_off_c, 1, 74, 64
15, 45822, Note_on_c, 1, 69, 95
15, 45911, Note_off_c, 1, 69, 64
15, 46074, Note_on_c, 1, 69, 105
15, 46629, Note_off_c, 1, 69, 64
15, 129342, Note_on_c, 1, 78, 102
15, 129411, Note_off_c, 1, 78, 64
15, 129444, Note_on_c, 1, 79, 87
15, 129518, Note_off_c, 1, 79, 64
15, 129570, Note_on_c, 1, 78, 95
15, 129653, Note_off_c, 1, 78, 64
15, 129815, Note_on_c, 1, 76, 89
15, 129908, Note_off_c, 1, 76, 64
15, 130048, Note_on_c, 1, 74, 93
15, 130164, Note_off_c, 1, 74, 64
15, 130282, Note_on_c, 1, 69, 85
15, 130394, Note_off_c, 1, 69, 64
15, 130541, Note_on_c, 1, 69, 87
15, 131080, Note_off_c, 1, 69, 64
15, 144705, Note_on_c, 1, 78, 100
15, 144760, Note_off_c, 1, 78, 64
15, 144802, Note_on_c, 1, 79, 98
15, 144876, Note_off_c, 1, 79, 64
15, 144932, Note_on_c, 1, 78, 102
15, 145040, Note_off_c, 1, 78, 64
15, 145177, Note_on_c, 1, 76, 95
15, 145284, Note_off_c, 1, 76, 64
15, 145424, Note_on_c, 1, 74, 93
15, 145510, Note_off_c, 1, 74, 64
15, 145662, Note_on_c, 1, 69, 95
15, 145751, Note_off_c, 1, 69, 64
15, 145914, Note_on_c, 1, 69, 105
15, 146469, Note_off_c, 1, 69, 64
15, 146469, End_track
16, 0, Start_track
16, 0, Title_t, "Trumpet"
16, 0, Program_c, 2, 56
16, 0, Control_c, 2, 7, 127
16, 29502, Note_on_c, 2, 69, 110
16, 29550, Note_off_c, 2, 69, 64
16, 29605, Note_on_c, 2, 69, 93
16, 29655, Note_off_c, 2, 69, 64
16, 29735, Note_on_c, 2, 69, 107
16, 29965, Note_off_c, 2, 69, 64
16, 30457, Note_on_c, 2, 69, 105
16, 30513, Note_off_c, 2, 69, 64
16, 30559, Note_on_c, 2, 69, 100
16, 30611, Note_off_c, 2, 69, 64
16, 30689, Note_on_c, 2, 66, 85
16, 31245, Note_off_c, 2, 66, 64
16, 44872, Note_on_c, 2, 69, 107
16, 44934, Note_off_c, 2, 69, 64
16, 44980, Note_on_c, 2, 69, 93
16, 45043, Note_off_c, 2, 69, 64
16, 45112, Note_on_c, 2, 69, 110
16, 45308, Note_off_c, 2, 69, 64
16, 45831, Note_on_c, 2, 69, 116
16, 45881, Note_off_c, 2, 69, 64
16, 45943, Note_on_c, 2, 69, 102
16, 45999, Note_off_c, 2, 69, 64
16, 46075, Note_on_c, 2, 66, 102
16, 46629, Note_off_c, 2, 66, 64
16, 129342, Note_on_c, 2, 69, 110
16, 129390, Note_off_c, 2, 69, 64
16, 129445, Note_on_c, 2, 69, 93
16, 129495, Note_off_c, 2, 69, 64
16, 129575, Note_on_c, 2, 69, 107
16, 129805, Note_off_c, 2, 69, 64
16, 130297, Note_on_c, 2, 69, 105
16, 130353, Note_off_c, 2, 69, 64
16, 130399, Note_on_c, 2, 69, 100
16, 130451, Note_off_c, 2, 69, 64
16, 130529, Note_on_c, 2, 66, 85
16, 131085, Note_off_c, 2, 66, 64
16, 144712, Note_on_c, 2, 69, 107
16, 144774, Note_off_c, 2, 69, 64
16, 144820, Note_on_c, 2, 69, 93
16, 144883, Note_off_c, 2, 69, 64
16, 144952, Note_on_c, 2, 69, 110
16, 145148, Note_off_c, 2, 69, 64
16, 145671, Note_on_c, 2, 69, 116
16, 145721, Note_off_c, 2, 69, 64
16, 145783, Note_on_c, 2, 69, 102
16, 145839, Note_off_c, 2, 69, 64
16, 145915, Note_on_c, 2, 66, 102
16, 146469, Note_off_c, 2, 66, 64
16, 146469, End_track
17, 0, Start_track
17, 0, Title_t, "Timpani"
17, 0, Program_c, 3, 47
17, 0, Control_c, 3, 7, 100
17, 29512, Note_on_c, 3, 45, 105
17, 29560, Note_off_c, 3, 45, 64
17, 29619, Note_on_c, 3, 45, 102
17, 29687, Note_off_c, 3, 45, 64
17, 29737, Note_on_c, 3, 50, 119
17, 29808, Note_off_c, 3, 50, 64
17, 30469, Note_on_c, 3, 45, 113
17, 30516, Note_off_c, 3, 45, 64
17, 30578, Note_on_c, 3, 45, 105
17, 30635, Note_off_c, 3, 45, 64
17, 30701, Note_on_c, 3, 50, 119
17, 30758, Note_off_c, 3, 50, 64
17, 44881, Note_on_c, 3, 45, 107
17, 44933, Note_off_c, 3, 45, 64
17, 44993, Note_on_c, 3, 45, 107
17, 45064, Note_off_c, 3, 45, 64
17, 45114, Note_on_c, 3, 50, 122
17, 45201, Note_off_c, 3, 50, 64
17, 45848, Note_on_c, 3, 45, 116
17, 45900, Note_off_c, 3, 45, 64
17, 45956, Note_on_c, 3, 45, 107
17, 46023, Note_off_c, 3, 45, 64
17, 46080, Note_on_c, 3, 50, 127
17, 46156, Note_off_c, 3, 50, 64
17, 129352, Note_on_c, 3, 45, 105
17, 129400, Note_off_c, 3, 45, 64
17, 129459, Note_on_c, 3, 45, 102
17, 129527, Note_off_c, 3, 45, 64
17, 129577, Note_on_c, 3, 50, 119
17, 129648, Note_off_c, 3, 50, 64
17, 130309, Note_on_c, 3, 45, 113
17, 130356, Note_off_c, 3, 45, 64
17, 130418, Note_on_c, 3, 45, 105
17, 130475, Note_off_c, 3, 45, 64
17, 130541, Note_on_c, 3, 50, 119
17, 130598, Note_off_c, 3, 50, 64
17, 144721, Note_on_c, 3, 45, 107
17, 144773, Note_off_c, 3, 45, 64
17, 144833, Note_on_c, 3, 45, 107
17, 144904, Note_off_c, 3, 45, 64
17, 144954, Note_on_c, 3, 50, 122
17, 145041, Note_off_c, 3, 50, 64
17, 145688, Note_on_c, 3, 45, 116
17, 145740, Note_off_c, 3, 45, 64
17, 145796, Note_on_c, 3, 45, 107
17, 145863, Note_off_c, 3, 45, 64
17, 145920, Note_on_c, 3, 50, 127
17, 145996, Note_off_c, 3, 50, 64
17, 145996, End_track
18, 0, Start_track
18, 0, Title_t, "Oboe"
18, 0, Program_c, 4, 68
18, 0, Control_c, 4, 7, 100
18, 17511, Note_on_c, 4, 73, 58
18, 17603, Note_on_c, 4, 76, 72
18, 17615, Note_off_c, 4, 73, 64
18, 17691, Note_off_c, 4, 76, 64
18, 17727, Note_on_c, 4, 81, 82
18, 17867, Note_off_c, 4, 81, 64
18, 19432, Note_on_c, 4, 74, 78
18, 19525, Note_on_c, 4, 78, 64
18, 19542, Note_off_c, 4, 74, 64
18, 19625, Note_off_c, 4, 78, 64
18, 19651, Note_on_c, 4, 83, 82
18, 19784, Note_off_c, 4, 83, 64
18, 20385, Note_on_c, 4, 73, 68
18, 20473, Note_off_c, 4, 73, 64
18, 20487, Note_on_c, 4, 76, 72
18, 20591, Note_off_c, 4, 76, 64
18, 20612, Note_on_c, 4, 79, 85
18, 20748, Note_off_c, 4, 79, 64
18, 21363, Note_on_c, 4, 70, 62
18, 21460, Note_off_c, 4, 70, 64
18, 21469, Note_on_c, 4, 73, 62
18, 21564, Note_off_c, 4, 73, 64
18, 21595, Note_on_c, 4, 76, 89
18, 21714, Note_off_c, 4, 76, 64
18, 23273, Note_on_c, 4, 74, 74
18, 23371, Note_off_c, 4, 74, 64
18, 23371, Note_on_c, 4, 78, 70
18, 23463, Note_off_c, 4, 78, 64
18, 23494, Note_on_c, 4, 83, 85
18, 23618, Note_off_c, 4, 83, 64
18, 25206, Note_on_c, 4, 72, 82
18, 25300, Note_on_c, 4, 78, 68
18, 25329, Note_off_c, 4, 72, 64
18, 25414, Note_off_c, 4, 78, 64
18, 25424, Note_on_c, 4, 81, 85
18, 25516, Note_off_c, 4, 81, 64
18, 25656, Note_on_c, 4, 71, 78
18, 25752, Note_off_c, 4, 71, 64
18, 25759, Note_on_c, 4, 69, 72
18, 25851, Note_off_c, 4, 69, 64
18, 25891, Note_on_c, 4, 71, 78
18, 26119, Note_off_c, 4, 71, 64
18, 26141, Note_on_c, 4, 73, 66
18, 26314, Note_off_c, 4, 73, 64
18, 26390, Note_on_c, 4, 73, 80
18, 26494, Note_on_c, 4, 71, 89
18, 26530, Note_off_c, 4, 73, 64
18, 26582, Note_off_c, 4, 71, 64
18, 26618, Note_on_c, 4, 73, 95
18, 26724, Note_on_c, 4, 74, 85
18, 26734, Note_off_c, 4, 73, 64
18, 26806, Note_off_c, 4, 74, 64
18, 26862, Note_on_c, 4, 76, 98
18, 26926, Note_off_c, 4, 76, 64
18, 27111, Note_on_c, 4, 69, 78
18, 27600, Note_off_c, 4, 69, 64
18, 29011, Note_on_c, 4, 73, 68
18, 29105, Note_on_c, 4, 76, 80
18, 29113, Note_off_c, 4, 73, 64
18, 29200, Note_off_c, 4, 76, 64
18, 29234, Note_on_c, 4, 79, 82
18, 29362, Note_off_c, 4, 79, 64
18, 29481, Note_on_c, 4, 81, 72
18, 29588, Note_on_c, 4, 83, 70
18, 29620, Note_off_c, 4, 81, 64
18, 29664, Note_off_c, 4, 83, 64
18, 29718, Note_on_c, 4, 81, 76
18, 29810, Note_off_c, 4, 81, 64
18, 29829, Note_on_c, 4, 78, 64
18, 29898, Note_off_c, 4, 78, 64
18, 29951, Note_on_c, 4, 79, 72
18, 30030, Note_off_c, 4, 79, 64
18, 30209, Note_on_c, 4, 78, 87
18, 30299, Note_off_c, 4, 78, 64
18, 30314, Note_on_c, 4, 74, 70
18, 30385, Note_off_c, 4, 74, 64
18, 30442, Note_on_c, 4, 76, 76
18, 30513, Note_off_c, 4, 76, 64
18, 30710, Note_on_c, 4, 74, 68
18, 31249, Note_off_c, 4, 74, 64
18, 32879, Note_on_c, 4, 73, 58
18, 32977, Note_on_c, 4, 76, 80
18, 32991, Note_off_c, 4, 73, 64
18, 33072, Note_off_c, 4, 76, 64
18, 33110, Note_on_c, 4, 81, 93
18, 33247, Note_off_c, 4, 81, 64
18, 34778, Note_on_c, 4, 74, 68
18, 34866, Note_off_c, 4, 74, 64
18, 34881, Note_on_c, 4, 78, 64
18, 34997, Note_off_c, 4, 78, 64
18, 35004, Note_on_c, 4, 83, 82
18, 35142, Note_off_c, 4, 83, 64
18, 35756, Note_on_c, 4, 73, 60
18, 35852, Note_off_c, 4, 73, 64
18, 35873, Note_on_c, 4, 76, 80
18, 35961, Note_off_c, 4, 76, 64
18, 35995, Note_on_c, 4, 79, 87
18, 36110, Note_off_c, 4, 79, 64
18, 36716, Note_on_c, 4, 70, 66
18, 36822, Note_on_c, 4, 73, 63
18, 36824, Note_off_c, 4, 70, 64
18, 36926, Note_off_c, 4, 73, 64
18, 36948, Note_on_c, 4, 76, 82
18, 37083, Note_off_c, 4, 76, 64
18, 38641, Note_on_c, 4, 74, 70
18, 38740, Note_on_c, 4, 78, 64
18, 38749, Note_off_c, 4, 74, 64
18, 38838, Note_off_c, 4, 78, 64
18, 38860, Note_on_c, 4, 83, 85
18, 38972, Note_off_c, 4, 83, 64
18, 40570, Note_on_c, 4, 72, 82
18, 40661, Note_on_c, 4, 78, 68
18, 40678, Note_off_c, 4, 72, 64
18, 40753, Note_off_c, 4, 78, 64
18, 40791, Note_on_c, 4, 81, 85
18, 40888, Note_off_c, 4, 81, 64
18, 41023, Note_on_c, 4, 71, 78
18, 41114, Note_off_c, 4, 71, 64
18, 41133, Note_on_c, 4, 69, 76
18, 41208, Note_off_c, 4, 69, 64
18, 41266, Note_on_c, 4, 71, 87
18, 41498, Note_off_c, 4, 71, 64
18, 41502, Note_on_c, 4, 73, 60
18, 41678, Note_off_c, 4, 73, 64
18, 41750, Note_on_c, 4, 73, 70
18, 41857, Note_on_c, 4, 71, 80
18, 41875, Note_off_c, 4, 73, 64
18, 41945, Note_off_c, 4, 71, 64
18, 41983, Note_on_c, 4, 73, 82
18, 42089, Note_on_c, 4, 74, 82
18, 42097, Note_off_c, 4, 73, 64
18, 42172, Note_off_c, 4, 74, 64
18, 42225, Note_on_c, 4, 76, 89
18, 42310, Note_off_c, 4, 76, 64
18, 42483, Note_on_c, 4, 69, 66
18, 42951, Note_off_c, 4, 69, 64
18, 44382, Note_on_c, 4, 73, 63
18, 44467, Note_on_c, 4, 76, 76
18, 44498, Note_off_c, 4, 73, 64
18, 44562, Note_off_c, 4, 76, 64
18, 44603, Note_on_c, 4, 79, 85
18, 44738, Note_off_c, 4, 79, 64
18, 44852, Note_on_c, 4, 81, 68
18, 44938, Note_off_c, 4, 81, 64
18, 44966, Note_on_c, 4, 83, 70
18, 45051, Note_off_c, 4, 83, 64
18, 45096, Note_on_c, 4, 81, 80
18, 45202, Note_off_c, 4, 81, 64
18, 45206, Note_on_c, 4, 78, 72
18, 45279, Note_off_c, 4, 78, 64
18, 45337, Note_on_c, 4, 79, 78
18, 45412, Note_off_c, 4, 79, 64
18, 45583, Note_on_c, 4, 78, 68
18, 45669, Note_off_c, 4, 78, 64
18, 45685, Note_on_c, 4, 74, 68
18, 45757, Note_off_c, 4, 74, 64
18, 45816, Note_on_c, 4, 76, 80
18, 45890, Note_off_c, 4, 76, 64
18, 46068, Note_on_c, 4, 74, 80
18, 46563, Note_off_c, 4, 74, 64
18, 69835, Note_on_c, 4, 76, 66
18, 69922, Note_off_c, 4, 76, 64
18, 70073, Note_on_c, 4, 76, 85
18, 70314, Note_off_c, 4, 76, 64
18, 70319, Note_on_c, 4, 75, 30
18, 70585, Note_off_c, 4, 75, 64
18, 70787, Note_on_c, 4, 78, 62
18, 70879, Note_off_c, 4, 78, 64
18, 71038, Note_on_c, 4, 78, 72
18, 71280, Note_off_c, 4, 78, 64
18, 71285, Note_on_c, 4, 76, 44
18, 71528, Note_off_c, 4, 76, 64
18, 71765, Note_on_c, 4, 79, 70
18, 71839, Note_off_c, 4, 79, 64
18, 71998, Note_on_c, 4, 79, 78
18, 72055, Note_on_c, 4, 78, 55
18, 72057, Note_off_c, 4, 79, 64
18, 72090, Note_on_c, 4, 79, 58
18, 72109, Note_off_c, 4, 78, 64
18, 72159, Note_on_c, 4, 78, 60
18, 72185, Note_off_c, 4, 79, 64
18, 72243, Note_on_c, 4, 76, 63
18, 72245, Note_off_c, 4, 78, 64
18, 72353, Note_on_c, 4, 75, 62
18, 72361, Note_off_c, 4, 76, 64
18, 72427, Note_off_c, 4, 75, 64
18, 72479, Note_on_c, 4, 76, 66
18, 72595, Note_off_c, 4, 76, 64
18, 72721, Note_on_c, 4, 78, 64
18, 72813, Note_off_c, 4, 78, 64
18, 72956, Note_on_c, 4, 75, 74
18, 73175, Note_off_c, 4, 75, 64
18, 73211, Note_on_c, 4, 73, 51
18, 73308, Note_on_c, 4, 75, 57
18, 73313, Note_off_c, 4, 73, 64
18, 73395, Note_off_c, 4, 75, 64
18, 73441, Note_on_c, 4, 71, 50
18, 73529, Note_off_c, 4, 71, 64
18, 73685, Note_on_c, 4, 83, 80
18, 73772, Note_off_c, 4, 83, 64
18, 73927, Note_on_c, 4, 81, 80
18, 74165, Note_on_c, 4, 80, 52
18, 74176, Note_off_c, 4, 81, 64
18, 74381, Note_off_c, 4, 80, 64
18, 74627, Note_on_c, 4, 81, 68
18, 74746, Note_on_c, 4, 83, 64
18, 74753, Note_off_c, 4, 81, 64
18, 74796, Note_on_c, 4, 84, 70
18, 74812, Note_off_c, 4, 83, 64
18, 74843, Note_off_c, 4, 84, 64
18, 74858, Note_on_c, 4, 76, 56
18, 75105, Note_on_c, 4, 75, 47
18, 75114, Note_off_c, 4, 76, 64
18, 75354, Note_off_c, 4, 75, 64
18, 75587, Note_on_c, 4, 81, 76
18, 75663, Note_off_c, 4, 81, 64
18, 75826, Note_on_c, 4, 81, 89
18, 75938, Note_on_c, 4, 79, 82
18, 75964, Note_off_c, 4, 81, 64
18, 76018, Note_off_c, 4, 79, 64
18, 76064, Note_on_c, 4, 78, 52
18, 76170, Note_off_c, 4, 78, 64
18, 76175, Note_on_c, 4, 76, 55
18, 76260, Note_off_c, 4, 76, 64
18, 76308, Note_on_c, 4, 78, 59
18, 76388, Note_off_c, 4, 78, 64
18, 76541, Note_on_c, 4, 75, 62
18, 76616, Note_off_c, 4, 75, 64
18, 76800, Note_on_c, 4, 75, 64
18, 77048, Note_off_c, 4, 75, 64
18, 77055, Note_on_c, 4, 76, 28
18, 77264, Note_off_c, 4, 76, 64
18, 77519, Note_on_c, 4, 76, 85
18, 77594, Note_off_c, 4, 76, 64
18, 77760, Note_on_c, 4, 74, 87
18, 78005, Note_off_c, 4, 74, 64
18, 78014, Note_on_c, 4, 73, 36
18, 78280, Note_off_c, 4, 73, 64
18, 78470, Note_on_c, 4, 81, 78
18, 78580, Note_off_c, 4, 81, 64
18, 78720, Note_on_c, 4, 79, 85
18, 78969, Note_on_c, 4, 78, 49
18, 78980, Note_off_c, 4, 79, 64
18, 79206, Note_off_c, 4, 78, 64
18, 79432, Note_on_c, 4, 83, 68
18, 79524, Note_off_c, 4, 83, 64
18, 79655, Note_on_c, 4, 83, 85
18, 79705, Note_on_c, 4, 82, 62
18, 79723, Note_off_c, 4, 83, 64
18, 79755, Note_on_c, 4, 83, 58
18, 79769, Note_off_c, 4, 82, 64
18, 79800, Note_on_c, 4, 82, 61
18, 79835, Note_off_c, 4, 83, 64
18, 79885, Note_off_c, 4, 82, 64
18, 79913, Note_on_c, 4, 83, 72
18, 80046, Note_off_c, 4, 83, 64
18, 80151, Note_on_c, 4, 85, 60
18, 80256, Note_off_c, 4, 85, 64
18, 80400, Note_on_c, 4, 86, 82
18, 80519, Note_off_c, 4, 86, 64
18, 80638, Note_on_c, 4, 85, 66
18, 80749, Note_on_c, 4, 83, 60
18, 80761, Note_off_c, 4, 85, 64
18, 80868, Note_on_c, 4, 82, 66
18, 80894, Note_off_c, 4, 83, 64
18, 80986, Note_on_c, 4, 80, 50
18, 81000, Note_off_c, 4, 82, 64
18, 81060, Note_off_c, 4, 80, 64
18, 81117, Note_on_c, 4, 78, 52
18, 81228, Note_off_c, 4, 78, 64
18, 81354, Note_on_c, 4, 83, 74
18, 81440, Note_off_c, 4, 83, 64
18, 81597, Note_on_c, 4, 81, 82
18, 81832, Note_on_c, 4, 79, 47
18, 81848, Note_off_c, 4, 81, 64
18, 82077, Note_off_c, 4, 79, 64
18, 82320, Note_on_c, 4, 81, 66
18, 82418, Note_off_c, 4, 81, 64
18, 82563, Note_on_c, 4, 79, 85
18, 82817, Note_on_c, 4, 78, 45
18, 82819, Note_off_c, 4, 79, 64
18, 83061, Note_off_c, 4, 78, 64
18, 83258, Note_on_c, 4, 76, 70
18, 83334, Note_off_c, 4, 76, 64
18, 83503, Note_on_c, 4, 76, 80
18, 83612, Note_on_c, 4, 74, 68
18, 83617, Note_off_c, 4, 76, 64
18, 83695, Note_off_c, 4, 74, 64
18, 83749, Note_on_c, 4, 73, 48
18, 83855, Note_on_c, 4, 71, 64
18, 83863, Note_off_c, 4, 73, 64
18, 83935, Note_off_c, 4, 71, 64
18, 83986, Note_on_c, 4, 73, 56
18, 84082, Note_off_c, 4, 73, 64
18, 84227, Note_on_c, 4, 70, 53
18, 84324, Note_off_c, 4, 70, 64
18, 84481, Note_on_c, 4, 71, 64
18, 84930, Note_off_c, 4, 71, 64
18, 85181, Note_on_c, 4, 76, 62
18, 85269, Note_off_c, 4, 76, 64
18, 85427, Note_on_c, 4, 76, 85
18, 85667, Note_off_c, 4, 76, 64
18, 85670, Note_on_c, 4, 75, 41
18, 85974, Note_off_c, 4, 75, 64
18, 86158, Note_on_c, 4, 78, 60
18, 86251, Note_off_c, 4, 78, 64
18, 86391, Note_on_c, 4, 78, 74
18, 86640, Note_off_c, 4, 78, 64
18, 86643, Note_on_c, 4, 76, 48
18, 86928, Note_off_c, 4, 76, 64
18, 87117, Note_on_c, 4, 79, 74
18, 87201, Note_off_c, 4, 79, 64
18, 87343, Note_on_c, 4, 79, 74
18, 87386, Note_on_c, 4, 78, 58
18, 87407, Note_off_c, 4, 79, 64
18, 87447, Note_off_c, 4, 78, 64
18, 87452, Note_on_c, 4, 79, 60
18, 87505, Note_on_c, 4, 78, 57
18, 87533, Note_off_c, 4, 79, 64
18, 87600, Note_on_c, 4, 76, 66
18, 87606, Note_off_c, 4, 78, 64
18, 87713, Note_on_c, 4, 75, 63
18, 87721, Note_off_c, 4, 76, 64
18, 87792, Note_off_c, 4, 75, 64
18, 87841, Note_on_c, 4, 76, 66
18, 87955, Note_off_c, 4, 76, 64
18, 88064, Note_on_c, 4, 78, 64
18, 88157, Note_off_c, 4, 78, 64
18, 88309, Note_on_c, 4, 76, 70
18, 88371, Note_on_c, 4, 75, 64
18, 88378, Note_off_c, 4, 76, 64
18, 88421, Note_on_c, 4, 76, 64
18, 88425, Note_off_c, 4, 75, 64
18, 88478, Note_on_c, 4, 75, 64
18, 88499, Note_off_c, 4, 76, 64
18, 88535, Note_on_c, 4, 73, 58
18, 88551, Note_off_c, 4, 75, 64
18, 88656, Note_on_c, 4, 75, 64
18, 88667, Note_off_c, 4, 73, 64
18, 88734, Note_off_c, 4, 75, 64
18, 88795, Note_on_c, 4, 71, 68
18, 88891, Note_off_c, 4, 71, 64
18, 89042, Note_on_c, 4, 83, 80
18, 89121, Note_off_c, 4, 83, 64
18, 89273, Note_on_c, 4, 81, 80
18, 89512, Note_off_c, 4, 81, 64
18, 89513, Note_on_c, 4, 80, 53
18, 89754, Note_off_c, 4, 80, 64
18, 89987, Note_on_c, 4, 81, 62
18, 90099, Note_on_c, 4, 83, 66
18, 90113, Note_off_c, 4, 81, 64
18, 90154, Note_on_c, 4, 84, 60
18, 90163, Note_off_c, 4, 83, 64
18, 90208, Note_off_c, 4, 84, 64
18, 90222, Note_on_c, 4, 76, 55
18, 90450, Note_on_c, 4, 75, 47
18, 90468, Note_off_c, 4, 76, 64
18, 90739, Note_off_c, 4, 75, 64
18, 90955, Note_on_c, 4, 81, 80
18, 91032, Note_off_c, 4, 81, 64
18, 91184, Note_on_c, 4, 81, 82
18, 91305, Note_on_c, 4, 79, 66
18, 91319, Note_off_c, 4, 81, 64
18, 91425, Note_off_c, 4, 79, 64
18, 91430, Note_on_c, 4, 78, 52
18, 91521, Note_off_c, 4, 78, 64
18, 91527, Note_on_c, 4, 76, 59
18, 91618, Note_off_c, 4, 76, 64
18, 91663, Note_on_c, 4, 78, 64
18, 91751, Note_off_c, 4, 78, 64
18, 91907, Note_on_c, 4, 76, 70
18, 92014, Note_on_c, 4, 75, 51
18, 92016, Note_off_c, 4, 76, 64
18, 92090, Note_off_c, 4, 75, 64
18, 92156, Note_on_c, 4, 75, 68
18, 92389, Note_off_c, 4, 75, 64
18, 92392, Note_on_c, 4, 76, 50
18, 92629, Note_off_c, 4, 76, 64
18, 92862, Note_on_c, 4, 76, 68
18, 92943, Note_off_c, 4, 76, 64
18, 93116, Note_on_c, 4, 74, 85
18, 93344, Note_off_c, 4, 74, 64
18, 93356, Note_on_c, 4, 73, 40
18, 93636, Note_off_c, 4, 73, 64
18, 93826, Note_on_c, 4, 81, 78
18, 93906, Note_off_c, 4, 81, 64
18, 94080, Note_on_c, 4, 79, 82
18, 94318, Note_off_c, 4, 79, 64
18, 94329, Note_on_c, 4, 78, 42
18, 94639, Note_off_c, 4, 78, 64
18, 94798, Note_on_c, 4, 83, 72
18, 94896, Note_off_c, 4, 83, 64
18, 95012, Note_on_c, 4, 83, 66
18, 95071, Note_on_c, 4, 82, 63
18, 95083, Note_off_c, 4, 83, 64
18, 95110, Note_on_c, 4, 83, 58
18, 95126, Note_off_c, 4, 82, 64
18, 95180, Note_on_c, 4, 82, 51
18, 95204, Note_off_c, 4, 83, 64
18, 95240, Note_off_c, 4, 82, 64
18, 95271, Note_on_c, 4, 83, 70
18, 95411, Note_off_c, 4, 83, 64
18, 95525, Note_on_c, 4, 85, 63
18, 95624, Note_off_c, 4, 85, 64
18, 95758, Note_on_c, 4, 86, 70
18, 95878, Note_off_c, 4, 86, 64
18, 95995, Note_on_c, 4, 85, 64
18, 96113, Note_on_c, 4, 83, 54
18, 96126, Note_off_c, 4, 85, 64
18, 96232, Note_on_c, 4, 82, 57
18, 96242, Note_off_c, 4, 83, 64
18, 96329, Note_on_c, 4, 80, 47
18, 96351, Note_off_c, 4, 82, 64
18, 96450, Note_off_c, 4, 80, 64
18, 96460, Note_on_c, 4, 78, 55
18, 96567, Note_off_c, 4, 78, 64
18, 96709, Note_on_c, 4, 83, 66
18, 96795, Note_off_c, 4, 83, 64
18, 96956, Note_on_c, 4, 81, 85
18, 97205, Note_off_c, 4, 81, 64
18, 97205, Note_on_c, 4, 79, 42
18, 97467, Note_off_c, 4, 79, 64
18, 97682, Note_on_c, 4, 81, 68
18, 97766, Note_off_c, 4, 81, 64
18, 97915, Note_on_c, 4, 79, 85
18, 98155, Note_on_c, 4, 78, 52
18, 98164, Note_off_c, 4, 79, 64
18, 98428, Note_off_c, 4, 78, 64
18, 98636, Note_on_c, 4, 76, 70
18, 98710, Note_off_c, 4, 76, 64
18, 98871, Note_on_c, 4, 76, 82
18, 98986, Note_on_c, 4, 74, 68
18, 99005, Note_off_c, 4, 76, 64
18, 99111, Note_off_c, 4, 74, 64
18, 99111, Note_on_c, 4, 73, 52
18, 99212, Note_off_c, 4, 73, 64
18, 99216, Note_on_c, 4, 71, 57
18, 99301, Note_off_c, 4, 71, 64
18, 99349, Note_on_c, 4, 73, 62
18, 99437, Note_off_c, 4, 73, 64
18, 99586, Note_on_c, 4, 71, 70
18, 99691, Note_on_c, 4, 70, 57
18, 99698, Note_off_c, 4, 71, 64
18, 99766, Note_off_c, 4, 70, 64
18, 99845, Note_on_c, 4, 70, 66
18, 100065, Note_on_c, 4, 71, 51
18, 100082, Note_off_c, 4, 70, 64
18, 100329, Note_off_c, 4, 71, 64
18, 117351, Note_on_c, 4, 73, 58
18, 117443, Note_on_c, 4, 76, 72
18, 117455, Note_off_c, 4, 73, 64
18, 117531, Note_off_c, 4, 76, 64
18, 117567, Note_on_c, 4, 81, 82
18, 117707, Note_off_c, 4, 81, 64
18, 119272, Note_on_c, 4, 74, 78
18, 119365, Note_on_c, 4, 78, 64
18, 119382, Note_off_c, 4, 74, 64
18, 119465, Note_off_c, 4, 78, 64
18, 119491, Note_on_c, 4, 83, 82
18, 119624, Note_off_c, 4, 83, 64
18, 120225, Note_on_c, 4, 73, 68
18, 120313, Note_off_c, 4, 73, 64
18, 120327, Note_on_c, 4, 76, 72
18, 120431, Note_off_c, 4, 76, 64
18, 120452, Note_on_c, 4, 79, 85
18, 120588, Note_off_c, 4, 79, 64
18, 121203, Note_on_c, 4, 70, 62
18, 121300, Note_off_c, 4, 70, 64
18, 121309, Note_on_c, 4, 73, 62
18, 121404, Note_off_c, 4, 73, 64
18, 121435, Note_on_c, 4, 76, 89
18, 121554, Note_off_c, 4, 76, 64
18, 123113, Note_on_c, 4, 74, 74
18, 123211, Note_off_c, 4, 74, 64
18, 123211, Note_on_c, 4, 78, 70
18, 123303, Note_off_c, 4, 78, 64
18, 123334, Note_on_c, 4, 83, 85
18, 123458, Note_off_c, 4, 83, 64
18, 125046, Note_on_c, 4, 72, 82
18, 125140, Note_on_c, 4, 78, 68
18, 125169, Note_off_c, 4, 72, 64
18, 125254, Note_off_c, 4, 78, 64
18, 125264, Note_on_c, 4, 81, 85
18, 125356, Note_off_c, 4, 81, 64
18, 125496, Note_on_c, 4, 71, 78
18, 125592, Note_off_c, 4, 71, 64
18, 125599, Note_on_c, 4, 69, 72
18, 125691, Note_off_c, 4, 69, 64
18, 125731, Note_on_c, 4, 71, 78
18, 125959, Note_off_c, 4, 71, 64
18, 125981, Note_on_c, 4, 73, 66
18, 126154, Note_off_c, 4, 73, 64
18, 126230, Note_on_c, 4, 73, 80
18, 126334, Note_on_c, 4, 71, 89
18, 126370, Note_off_c, 4, 73, 64
18, 126422, Note_off_c, 4, 71, 64
18, 126458, Note_on_c, 4, 73, 95
18, 126564, Note_on_c, 4, 74, 85
18, 126574, Note_off_c, 4, 73, 64
18, 126646, Note_off_c, 4, 74, 64
18, 126702, Note_on_c, 4, 76, 98
18, 126766, Note_off_c, 4, 76, 64
18, 126951, Note_on_c, 4, 69, 78
18, 127440, Note_off_c, 4, 69, 64
18, 128851, Note_on_c, 4, 73, 68
18, 128945, Note_on_c, 4, 76, 80
18, 128953, Note_off_c, 4, 73, 64
18, 129040, Note_off_c, 4, 76, 64
18, 129074, Note_on_c, 4, 79, 82
18, 129202, Note_off_c, 4, 79, 64
18, 129321, Note_on_c, 4, 81, 72
18, 129428, Note_on_c, 4, 83, 70
18, 129460, Note_off_c, 4, 81, 64
18, 129504, Note_off_c, 4, 83, 64
18, 129558, Note_on_c, 4, 81, 76
18, 129650, Note_off_c, 4, 81, 64
18, 129669, Note_on_c, 4, 78, 64
18, 129738, Note_off_c, 4, 78, 64
18, 129791, Note_on_c, 4, 79, 72
18, 129870, Note_off_c, 4, 79, 64
18, 130049, Note_on_c, 4, 78, 87
18, 130139, Note_off_c, 4, 78, 64
18, 130154, Note_on_c, 4, 74, 70
18, 130225, Note_off_c, 4, 74, 64
18, 130282, Note_on_c, 4, 76, 76
18, 130353, Note_off_c, 4, 76, 64
18, 130550, Note_on_c, 4, 74, 68
18, 131089, Note_off_c, 4, 74, 64
18, 132719, Note_on_c, 4, 73, 58
18, 132817, Note_on_c, 4, 76, 80
18, 132831, Note_off_c, 4, 73, 64
18, 132912, Note_off_c, 4, 76, 64
18, 132950, Note_on_c, 4, 81, 93
18, 133087, Note_off_c, 4, 81, 64
18, 134618, Note_on_c, 4, 74, 68
18, 134706, Note_off_c, 4, 74, 64
18, 134721, Note_on_c, 4, 78, 64
18, 134837, Note_off_c, 4, 78, 64
18, 134844, Note_on_c, 4, 83, 82
18, 134982, Note_off_c, 4, 83, 64
18, 135596, Note_on_c, 4, 73, 60
18, 135692, Note_off_c, 4, 73, 64
18, 135713, Note_on_c, 4, 76, 80
18, 135801, Note_off_c, 4, 76, 64
18, 135835, Note_on_c, 4, 79, 87
18, 135950, Note_off_c, 4, 79, 64
18, 136556, Note_on_c, 4, 70, 66
18, 136662, Note_on_c, 4, 73, 63
18, 136664, Note_off_c, 4, 70, 64
18, 136766, Note_off_c, 4, 73, 64
18, 136788, Note_on_c, 4, 76, 82
18, 136923, Note_off_c, 4, 76, 64
18, 138481, Note_on_c, 4, 74, 70
18, 138580, Note_on_c, 4, 78, 64
18, 138589, Note_off_c, 4, 74, 64
18, 138678, Note_off_c, 4, 78, 64
18, 138700, Note_on_c, 4, 83, 85
18, 138812, Note_off_c, 4, 83, 64
18, 140410, Note_on_c, 4, 72, 82
18, 140501, Note_on_c, 4, 78, 68
18, 140518, Note_off_c, 4, 72, 64
18, 140593, Note_off_c, 4, 78, 64
18, 140631, Note_on_c, 4, 81, 85
18, 140728, Note_off_c, 4, 81, 64
18, 140863, Note_on_c, 4, 71, 78
18, 140954, Note_off_c, 4, 71, 64
18, 140973, Note_on_c, 4, 69, 76
18, 141048, Note_off_c, 4, 69, 64
18, 141106, Note_on_c, 4, 71, 87
18, 141338, Note_off_c, 4, 71, 64
18, 141342, Note_on_c, 4, 73, 60
18, 141518, Note_off_c, 4, 73, 64
18, 141590, Note_on_c, 4, 73, 70
18, 141697, Note_on_c, 4, 71, 80
18, 141715, Note_off_c, 4, 73, 64
18, 141785, Note_off_c, 4, 71, 64
18, 141823, Note_on_c, 4, 73, 82
18, 141929, Note_on_c, 4, 74, 82
18, 141937, Note_off_c, 4, 73, 64
18, 142012, Note_off_c, 4, 74, 64
18, 142065, Note_on_c, 4, 76, 89
18, 142150, Note_off_c, 4, 76, 64
18, 142323, Note_on_c, 4, 69, 66
18, 142791, Note_off_c, 4, 69, 64
18, 144222, Note_on_c, 4, 73, 63
18, 144307, Note_on_c, 4, 76, 76
18, 144338, Note_off_c, 4, 73, 64
18, 144402, Note_off_c, 4, 76, 64
18, 144443, Note_on_c, 4, 79, 85
18, 144578, Note_off_c, 4, 79, 64
18, 144692, Note_on_c, 4, 81, 68
18, 144778, Note_off_c, 4, 81, 64
18, 144806, Note_on_c, 4, 83, 70
18, 144891, Note_off_c, 4, 83, 64
18, 144936, Note_on_c, 4, 81, 80
18, 145042, Note_off_c, 4, 81, 64
18, 145046, Note_on_c, 4, 78, 72
18, 145119, Note_off_c, 4, 78, 64
18, 145177, Note_on_c, 4, 79, 78
18, 145252, Note_off_c, 4, 79, 64
18, 145423, Note_on_c, 4, 78, 68
18, 145509, Note_off_c, 4, 78, 64
18, 145525, Note_on_c, 4, 74, 68
18, 145597, Note_off_c, 4, 74, 64
18, 145656, Note_on_c, 4, 76, 80
18, 145730, Note_off_c, 4, 76, 64
18, 145908, Note_on_c, 4, 74, 80
18, 146403, Note_off_c, 4, 74, 64
18, 146403, End_track
19, 0, Start_track
19, 0, Title_t, "Oboe"
19, 0, Program_c, 5, 68
19, 0, Control_c, 5, 7, 100
19, 17513, Note_on_c, 5, 69, 74
19, 17624, Note_on_c, 5, 73, 66
19, 17634, Note_off_c, 5, 69, 64
19, 17727, Note_off_c, 5, 73, 64
19, 17750, Note_on_c, 5, 76, 80
19, 17878, Note_off_c, 5, 76, 64
19, 19438, Note_on_c, 5, 71, 68
19, 19544, Note_off_c, 5, 71, 64
19, 19544, Note_on_c, 5, 74, 80
19, 19647, Note_off_c, 5, 74, 64
19, 19663, Note_on_c, 5, 78, 62
19, 19796, Note_off_c, 5, 78, 64
19, 20392, Note_on_c, 5, 67, 80
19, 20497, Note_on_c, 5, 73, 64
19, 20515, Note_off_c, 5, 67, 64
19, 20598, Note_off_c, 5, 73, 64
19, 20616, Note_on_c, 5, 76, 87
19, 20743, Note_off_c, 5, 76, 64
19, 21370, Note_on_c, 5, 66, 63
19, 21465, Note_on_c, 5, 70, 72
19, 21482, Note_off_c, 5, 66, 64
19, 21572, Note_off_c, 5, 70, 64
19, 21597, Note_on_c, 5, 73, 68
19, 21712, Note_off_c, 5, 73, 64
19, 23281, Note_on_c, 5, 71, 68
19, 23371, Note_off_c, 5, 71, 64
19, 23383, Note_on_c, 5, 74, 78
19, 23473, Note_off_c, 5, 74, 64
19, 23492, Note_on_c, 5, 78, 63
19, 23610, Note_off_c, 5, 78, 64
19, 25201, Note_on_c, 5, 69, 68
19, 25294, Note_on_c, 5, 72, 82
19, 25310, Note_off_c, 5, 69, 64
19, 25391, Note_off_c, 5, 72, 64
19, 25434, Note_on_c, 5, 78, 68
19, 25524, Note_off_c, 5, 78, 64
19, 25669, Note_on_c, 5, 66, 63
19, 25774, Note_off_c, 5, 66, 64
19, 25911, Note_on_c, 5, 67, 68
19, 26132, Note_off_c, 5, 67, 64
19, 26143, Note_on_c, 5, 69, 64
19, 26271, Note_off_c, 5, 69, 64
19, 26397, Note_on_c, 5, 69, 76
19, 26502, Note_on_c, 5, 67, 70
19, 26517, Note_off_c, 5, 69, 64
19, 26587, Note_off_c, 5, 67, 64
19, 26634, Note_on_c, 5, 69, 68
19, 26739, Note_on_c, 5, 71, 82
19, 26744, Note_off_c, 5, 69, 64
19, 26813, Note_off_c, 5, 71, 64
19, 26869, Note_on_c, 5, 73, 64
19, 26950, Note_off_c, 5, 73, 64
19, 27116, Note_on_c, 5, 69, 70
19, 27606, Note_off_c, 5, 69, 64
19, 29013, Note_on_c, 5, 69, 80
19, 29099, Note_on_c, 5, 73, 66
19, 29124, Note_off_c, 5, 69, 64
19, 29196, Note_off_c, 5, 73, 64
19, 29232, Note_on_c, 5, 76, 80
19, 29334, Note_off_c, 5, 76, 64
19, 29490, Note_on_c, 5, 78, 62
19, 29588, Note_off_c, 5, 78, 64
19, 29594, Note_on_c, 5, 79, 74
19, 29689, Note_off_c, 5, 79, 64
19, 29739, Note_on_c, 5, 78, 78
19, 29832, Note_off_c, 5, 78, 64
19, 29974, Note_on_c, 5, 71, 74
19, 30062, Note_off_c, 5, 71, 64
19, 30213, Note_on_c, 5, 69, 74
19, 30300, Note_off_c, 5, 69, 64
19, 30461, Note_on_c, 5, 69, 78
19, 30542, Note_off_c, 5, 69, 64
19, 30708, Note_on_c, 5, 69, 78
19, 31251, Note_off_c, 5, 69, 64
19, 32872, Note_on_c, 5, 69, 82
19, 32977, Note_on_c, 5, 73, 64
19, 32986, Note_off_c, 5, 69, 64
19, 33072, Note_off_c, 5, 73, 64
19, 33091, Note_on_c, 5, 76, 70
19, 33226, Note_off_c, 5, 76, 64
19, 34785, Note_on_c, 5, 71, 72
19, 34892, Note_on_c, 5, 74, 78
19, 34902, Note_off_c, 5, 71, 64
19, 34985, Note_off_c, 5, 74, 64
19, 35006, Note_on_c, 5, 78, 60
19, 35137, Note_off_c, 5, 78, 64
19, 35761, Note_on_c, 5, 67, 80
19, 35867, Note_on_c, 5, 73, 66
19, 35880, Note_off_c, 5, 67, 64
19, 35967, Note_off_c, 5, 73, 64
19, 35989, Note_on_c, 5, 76, 82
19, 36136, Note_off_c, 5, 76, 64
19, 36729, Note_on_c, 5, 66, 72
19, 36832, Note_off_c, 5, 66, 64
19, 36832, Note_on_c, 5, 70, 76
19, 36945, Note_off_c, 5, 70, 64
19, 36964, Note_on_c, 5, 73, 64
19, 37112, Note_off_c, 5, 73, 64
19, 38636, Note_on_c, 5, 71, 72
19, 38743, Note_on_c, 5, 74, 85
19, 38749, Note_off_c, 5, 71, 64
19, 38838, Note_off_c, 5, 74, 64
19, 38859, Note_on_c, 5, 78, 62
19, 38987, Note_off_c, 5, 78, 64
19, 40566, Note_on_c, 5, 69, 68
19, 40660, Note_on_c, 5, 72, 82
19, 40675, Note_off_c, 5, 69, 64
19, 40744, Note_off_c, 5, 72, 64
19, 40801, Note_on_c, 5, 78, 82
19, 40893, Note_off_c, 5, 78, 64
19, 41036, Note_on_c, 5, 66, 64
19, 41144, Note_off_c, 5, 66, 64
19, 41276, Note_on_c, 5, 67, 76
19, 41496, Note_off_c, 5, 67, 64
19, 41506, Note_on_c, 5, 69, 78
19, 41636, Note_off_c, 5, 69, 64
19, 41748, Note_on_c, 5, 69, 66
19, 41859, Note_on_c, 5, 67, 70
19, 41864, Note_off_c, 5, 69, 64
19, 41944, Note_off_c, 5, 67, 64
19, 41983, Note_on_c, 5, 69, 70
19, 42082, Note_on_c, 5, 71, 85
19, 42089, Note_off_c, 5, 69, 64
19, 42177, Note_off_c, 5, 71, 64
19, 42217, Note_on_c, 5, 73, 63
19, 42303, Note_off_c, 5, 73, 64
19, 42471, Note_on_c, 5, 69, 64
19, 42974, Note_off_c, 5, 69, 64
19, 44382, Note_on_c, 5, 69, 76
19, 44470, Note_on_c, 5, 73, 63
19, 44499, Note_off_c, 5, 69, 64
19, 44567, Note_off_c, 5, 73, 64
19, 44593, Note_on_c, 5, 76, 78
19, 44693, Note_off_c, 5, 76, 64
19, 44848, Note_on_c, 5, 78, 66
19, 44950, Note_on_c, 5, 79, 63
19, 44956, Note_off_c, 5, 78, 64
19, 45047, Note_off_c, 5, 79, 64
19, 45099, Note_on_c, 5, 78, 80
19, 45187, Note_off_c, 5, 78, 64
19, 45336, Note_on_c, 5, 71, 74
19, 45445, Note_off_c, 5, 71, 64
19, 45588, Note_on_c, 5, 69, 80
19, 45681, Note_off_c, 5, 69, 64
19, 45835, Note_on_c, 5, 69, 80
19, 45919, Note_off_c, 5, 69, 64
19, 46067, Note_on_c, 5, 69, 66
19, 46614, Note_off_c, 5, 69, 64
19, 69836, Note_on_c, 5, 70, 52
19, 69925, Note_off_c, 5, 70, 64
19, 70079, Note_on_c, 5, 70, 78
19, 70333, Note_on_c, 5, 71, 56
19, 70342, Note_off_c, 5, 70, 64
19, 70625, Note_off_c, 5, 71, 64
19, 70788, Note_on_c, 5, 72, 64
19, 70863, Note_off_c, 5, 72, 64
19, 71028, Note_on_c, 5, 72, 80
19, 71268, Note_on_c, 5, 71, 46
19, 71269, Note_off_c, 5, 72, 64
19, 71551, Note_off_c, 5, 71, 64
19, 71728, Note_on_c, 5, 71, 72
19, 71842, Note_off_c, 5, 71, 64
19, 71987, Note_on_c, 5, 72, 66
19, 72141, Note_off_c, 5, 72, 64
19, 72227, Note_on_c, 5, 71, 58
19, 72353, Note_off_c, 5, 71, 64
19, 72457, Note_on_c, 5, 69, 59
19, 72578, Note_off_c, 5, 69, 64
19, 72701, Note_on_c, 5, 72, 66
19, 72820, Note_off_c, 5, 72, 64
19, 72956, Note_on_c, 5, 71, 64
19, 73148, Note_off_c, 5, 71, 64
19, 73205, Note_on_c, 5, 70, 61
19, 73279, Note_off_c, 5, 70, 64
19, 73297, Note_on_c, 5, 71, 63
19, 73373, Note_off_c, 5, 71, 64
19, 73418, Note_on_c, 5, 66, 48
19, 73544, Note_off_c, 5, 66, 64
19, 73656, Note_on_c, 5, 78, 66
19, 73722, Note_off_c, 5, 78, 64
19, 73908, Note_on_c, 5, 78, 82
19, 74157, Note_off_c, 5, 78, 64
19, 74178, Note_on_c, 5, 76, 57
19, 74416, Note_off_c, 5, 76, 64
19, 74619, Note_on_c, 5, 64, 64
19, 74698, Note_off_c, 5, 64, 64
19, 74874, Note_on_c, 5, 64, 66
19, 75132, Note_off_c, 5, 64, 64
19, 75132, Note_on_c, 5, 66, 42
19, 75400, Note_off_c, 5, 66, 64
19, 75621, Note_on_c, 5, 78, 87
19, 75721, Note_off_c, 5, 78, 64
19, 75859, Note_on_c, 5, 76, 70
19, 75949, Note_off_c, 5, 76, 64
19, 76080, Note_on_c, 5, 67, 70
19, 76184, Note_off_c, 5, 67, 64
19, 76312, Note_on_c, 5, 69, 76
19, 76412, Note_off_c, 5, 69, 64
19, 76552, Note_on_c, 5, 66, 60
19, 76656, Note_off_c, 5, 66, 64
19, 76811, Note_on_c, 5, 67, 58
19, 77313, Note_off_c, 5, 67, 64
19, 77499, Note_on_c, 5, 71, 72
19, 77572, Note_off_c, 5, 71, 64
19, 77746, Note_on_c, 5, 71, 78
19, 77988, Note_off_c, 5, 71, 64
19, 77992, Note_on_c, 5, 69, 52
19, 78294, Note_off_c, 5, 69, 64
19, 78455, Note_on_c, 5, 76, 80
19, 78533, Note_off_c, 5, 76, 64
19, 78712, Note_on_c, 5, 69, 62
19, 79203, Note_off_c, 5, 69, 64
19, 79424, Note_on_c, 5, 78, 68
19, 79536, Note_off_c, 5, 78, 64
19, 79668, Note_on_c, 5, 76, 63
19, 79829, Note_off_c, 5, 76, 64
19, 79905, Note_on_c, 5, 78, 52
19, 80008, Note_off_c, 5, 78, 64
19, 80145, Note_on_c, 5, 78, 57
19, 80259, Note_off_c, 5, 78, 64
19, 80383, Note_on_c, 5, 78, 61
19, 80504, Note_off_c, 5, 78, 64
19, 80630, Note_on_c, 5, 78, 64
19, 80741, Note_off_c, 5, 78, 64
19, 80872, Note_on_c, 5, 73, 56
19, 80981, Note_off_c, 5, 73, 64
19, 81104, Note_on_c, 5, 74, 63
19, 81223, Note_off_c, 5, 74, 64
19, 81347, Note_on_c, 5, 78, 68
19, 81432, Note_off_c, 5, 78, 64
19, 81607, Note_on_c, 5, 78, 80
19, 81852, Note_on_c, 5, 76, 49
19, 81861, Note_off_c, 5, 78, 64
19, 82134, Note_off_c, 5, 76, 64
19, 82305, Note_on_c, 5, 76, 68
19, 82391, Note_off_c, 5, 76, 64
19, 82555, Note_on_c, 5, 76, 80
19, 82799, Note_on_c, 5, 74, 52
19, 82802, Note_off_c, 5, 76, 64
19, 83067, Note_off_c, 5, 74, 64
19, 83276, Note_on_c, 5, 73, 62
19, 83395, Note_off_c, 5, 73, 64
19, 83502, Note_on_c, 5, 71, 64
19, 83596, Note_off_c, 5, 71, 64
19, 83737, Note_on_c, 5, 62, 60
19, 83856, Note_off_c, 5, 62, 64
19, 83972, Note_on_c, 5, 64, 63
19, 84085, Note_off_c, 5, 64, 64
19, 84225, Note_on_c, 5, 64, 62
19, 84327, Note_off_c, 5, 64, 64
19, 84485, Note_on_c, 5, 62, 60
19, 84973, Note_off_c, 5, 62, 64
19, 85184, Note_on_c, 5, 70, 61
19, 85270, Note_off_c, 5, 70, 64
19, 85443, Note_on_c, 5, 70, 87
19, 85688, Note_on_c, 5, 71, 57
19, 85697, Note_off_c, 5, 70, 64
19, 85978, Note_off_c, 5, 71, 64
19, 86148, Note_on_c, 5, 72, 68
19, 86224, Note_off_c, 5, 72, 64
19, 86398, Note_on_c, 5, 72, 80
19, 86656, Note_on_c, 5, 71, 44
19, 86657, Note_off_c, 5, 72, 64
19, 86958, Note_off_c, 5, 71, 64
19, 87110, Note_on_c, 5, 71, 64
19, 87231, Note_off_c, 5, 71, 64
19, 87351, Note_on_c, 5, 72, 72
19, 87475, Note_off_c, 5, 72, 64
19, 87575, Note_on_c, 5, 71, 70
19, 87689, Note_off_c, 5, 71, 64
19, 87812, Note_on_c, 5, 69, 61
19, 87921, Note_off_c, 5, 69, 64
19, 88061, Note_on_c, 5, 72, 76
19, 88170, Note_off_c, 5, 72, 64
19, 88291, Note_on_c, 5, 72, 68
19, 88346, Note_on_c, 5, 71, 72
19, 88360, Note_off_c, 5, 72, 64
19, 88401, Note_on_c, 5, 72, 66
19, 88412, Note_off_c, 5, 71, 64
19, 88456, Note_on_c, 5, 71, 66
19, 88463, Note_off_c, 5, 72, 64
19, 88520, Note_on_c, 5, 70, 63
19, 88534, Note_off_c, 5, 71, 64
19, 88615, Note_off_c, 5, 70, 64
19, 88645, Note_on_c, 5, 71, 70
19, 88743, Note_off_c, 5, 71, 64
19, 88774, Note_on_c, 5, 66, 64
19, 88899, Note_off_c, 5, 66, 64
19, 89018, Note_on_c, 5, 78, 66
19, 89092, Note_off_c, 5, 78, 64
19, 89263, Note_on_c, 5, 78, 72
19, 89497, Note_off_c, 5, 78, 64
19, 89500, Note_on_c, 5, 76, 47
19, 89790, Note_off_c, 5, 76, 64
19, 89987, Note_on_c, 5, 64, 76
19, 90074, Note_off_c, 5, 64, 64
19, 90224, Note_on_c, 5, 64, 70
19, 90476, Note_off_c, 5, 64, 64
19, 90480, Note_on_c, 5, 66, 48
19, 90765, Note_off_c, 5, 66, 64
19, 90962, Note_on_c, 5, 78, 58
19, 91054, Note_off_c, 5, 78, 64
19, 91206, Note_on_c, 5, 76, 63
19, 91297, Note_off_c, 5, 76, 64
19, 91425, Note_on_c, 5, 67, 60
19, 91536, Note_off_c, 5, 67, 64
19, 91653, Note_on_c, 5, 69, 68
19, 91759, Note_off_c, 5, 69, 64
19, 91890, Note_on_c, 5, 67, 78
19, 91982, Note_on_c, 5, 66, 60
19, 91992, Note_off_c, 5, 67, 64
19, 92056, Note_off_c, 5, 66, 64
19, 92139, Note_on_c, 5, 66, 68
19, 92380, Note_on_c, 5, 67, 57
19, 92384, Note_off_c, 5, 66, 64
19, 92642, Note_off_c, 5, 67, 64
19, 92866, Note_on_c, 5, 71, 72
19, 92954, Note_off_c, 5, 71, 64
19, 93117, Note_on_c, 5, 71, 82
19, 93359, Note_on_c, 5, 69, 52
19, 93360, Note_off_c, 5, 71, 64
19, 93618, Note_off_c, 5, 69, 64
19, 93837, Note_on_c, 5, 76, 85
19, 93913, Note_off_c, 5, 76, 64
19, 94072, Note_on_c, 5, 71, 70
19, 94317, Note_on_c, 5, 69, 53
19, 94324, Note_off_c, 5, 71, 64
19, 94593, Note_off_c, 5, 69, 64
19, 94788, Note_on_c, 5, 78, 66
19, 94888, Note_off_c, 5, 78, 64
19, 95002, Note_on_c, 5, 78, 80
19, 95047, Note_on_c, 5, 76, 62
19, 95056, Note_off_c, 5, 78, 64
19, 95106, Note_off_c, 5, 76, 64
19, 95106, Note_on_c, 5, 78, 60
19, 95161, Note_on_c, 5, 76, 61
19, 95175, Note_off_c, 5, 78, 64
19, 95253, Note_on_c, 5, 78, 66
19, 95266, Note_off_c, 5, 76, 64
19, 95379, Note_off_c, 5, 78, 64
19, 95500, Note_on_c, 5, 78, 59
19, 95612, Note_off_c, 5, 78, 64
19, 95747, Note_on_c, 5, 78, 63
19, 95854, Note_off_c, 5, 78, 64
19, 96001, Note_on_c, 5, 78, 64
19, 96146, Note_off_c, 5, 78, 64
19, 96243, Note_on_c, 5, 73, 57
19, 96336, Note_off_c, 5, 73, 64
19, 96464, Note_on_c, 5, 74, 66
19, 96562, Note_off_c, 5, 74, 64
19, 96706, Note_on_c, 5, 78, 66
19, 96782, Note_off_c, 5, 78, 64
19, 96966, Note_on_c, 5, 78, 85
19, 97212, Note_on_c, 5, 76, 49
19, 97221, Note_off_c, 5, 78, 64
19, 97487, Note_off_c, 5, 76, 64
19, 97661, Note_on_c, 5, 76, 68
19, 97748, Note_off_c, 5, 76, 64
19, 97909, Note_on_c, 5, 76, 70
19, 98156, Note_on_c, 5, 74, 53
19, 98157, Note_off_c, 5, 76, 64
19, 98399, Note_off_c, 5, 74, 64
19, 98634, Note_on_c, 5, 73, 64
19, 98762, Note_off_c, 5, 73, 64
19, 98866, Note_on_c, 5, 71, 66
19, 98952, Note_off_c, 5, 71, 64
19, 99101, Note_on_c, 5, 62, 59
19, 99208, Note_off_c, 5, 62, 64
19, 99346, Note_on_c, 5, 64, 58
19, 99426, Note_off_c, 5, 64, 64
19, 99585, Note_on_c, 5, 64, 66
19, 99669, Note_off_c, 5, 64, 64
19, 99844, Note_on_c, 5, 64, 80
19, 100109, Note_on_c, 5, 62, 39
19, 100112, Note_off_c, 5, 64, 64
19, 100445, Note_off_c, 5, 62, 64
19, 117353, Note_on_c, 5, 69, 74
19, 117464, Note_on_c, 5, 73, 66
19, 117474, Note_off_c, 5, 69, 64
19, 117567, Note_off_c, 5, 73, 64
19, 117590, Note_on_c, 5, 76, 80
19, 117718, Note_off_c, 5, 76, 64
19, 119278, Note_on_c, 5, 71, 68
19, 119384, Note_off_c, 5, 71, 64
19, 119384, Note_on_c, 5, 74, 80
19, 119487, Note_off_c, 5, 74, 64
19, 119503, Note_on_c, 5, 78, 62
19, 119636, Note_off_c, 5, 78, 64
19, 120232, Note_on_c, 5, 67, 80
19, 120337, Note_on_c, 5, 73, 64
19, 120355, Note_off_c, 5, 67, 64
19, 120438, Note_off_c, 5, 73, 64
19, 120456, Note_on_c, 5, 76, 87
19, 120583, Note_off_c, 5, 76, 64
19, 121210, Note_on_c, 5, 66, 63
19, 121305, Note_on_c, 5, 70, 72
19, 121322, Note_off_c, 5, 66, 64
19, 121412, Note_off_c, 5, 70, 64
19, 121437, Note_on_c, 5, 73, 68
19, 121552, Note_off_c, 5, 73, 64
19, 123121, Note_on_c, 5, 71, 68
19, 123211, Note_off_c, 5, 71, 64
19, 123223, Note_on_c, 5, 74, 78
19, 123313, Note_off_c, 5, 74, 64
19, 123332, Note_on_c, 5, 78, 63
19, 123450, Note_off_c, 5, 78, 64
19, 125041, Note_on_c, 5, 69, 68
19, 125134, Note_on_c, 5, 72, 82
19, 125150, Note_off_c, 5, 69, 64
19, 125231, Note_off_c, 5, 72, 64
19, 125274, Note_on_c, 5, 78, 68
19, 125364, Note_off_c, 5, 78, 64
19, 125509, Note_on_c, 5, 66, 63
19, 125614, Note_off_c, 5, 66, 64
19, 125751, Note_on_c, 5, 67, 68
19, 125972, Note_off_c, 5, 67, 64
19, 125983, Note_on_c, 5, 69, 64
19, 126111, Note_off_c, 5, 69, 64
19, 126237, Note_on_c, 5, 69, 76
19, 126342, Note_on_c, 5, 67, 70
19, 126357, Note_off_c, 5, 69, 64
19, 126427, Note_off_c, 5, 67, 64
19, 126474, Note_on_c, 5, 69, 68
19, 126579, Note_on_c, 5, 71, 82
19, 126584, Note_off_c, 5, 69, 64
19, 126653, Note_off_c, 5, 71, 64
19, 126709, Note_on_c, 5, 73, 64
19, 126790, Note_off_c, 5, 73, 64
19, 126956, Note_on_c, 5, 69, 70
19, 127446, Note_off_c, 5, 69, 64
19, 128853, Note_on_c, 5, 69, 80
19, 128939, Note_on_c, 5, 73, 66
19, 128964, Note_off_c, 5, 69, 64
19, 129036, Note_off_c, 5, 73, 64
19, 129072, Note_on_c, 5, 76, 80
19, 129174, Note_off_c, 5, 76, 64
19, 129330, Note_on_c, 5, 78, 62
19, 129428, Note_off_c, 5, 78, 64
19, 129434, Note_on_c, 5, 79, 74
19, 129529, Note_off_c, 5, 79, 64
19, 129579, Note_on_c, 5, 78, 78
19, 129672, Note_off_c, 5, 78, 64
19, 129814, Note_on_c, 5, 71, 74
19, 129902, Note_off_c, 5, 71, 64
19, 130053, Note_on_c, 5, 69, 74
19, 130140, Note_off_c, 5, 69, 64
19, 130301, Note_on_c, 5, 69, 78
19, 130382, Note_off_c, 5, 69, 64
19, 130548, Note_on_c, 5, 69, 78
19, 131091, Note_off_c, 5, 69, 64
19, 132712, Note_on_c, 5, 69, 82
19, 132817, Note_on_c, 5, 73, 64
19, 132826, Note_off_c, 5, 69, 64
19, 132912, Note_off_c, 5, 73, 64
19, 132931, Note_on_c, 5, 76, 70
19, 133066, Note_off_c, 5, 76, 64
19, 134625, Note_on_c, 5, 71, 72
19, 134732, Note_on_c, 5, 74, 78
19, 134742, Note_off_c, 5, 71, 64
19, 134825, Note_off_c, 5, 74, 64
19, 134846, Note_on_c, 5, 78, 60
19, 134977, Note_off_c, 5, 78, 64
19, 135601, Note_on_c, 5, 67, 80
19, 135707, Note_on_c, 5, 73, 66
19, 135720, Note_off_c, 5, 67, 64
19, 135807, Note_off_c, 5, 73, 64
19, 135829, Note_on_c, 5, 76, 82
19, 135976, Note_off_c, 5, 76, 64
19, 136569, Note_on_c, 5, 66, 72
19, 136672, Note_off_c, 5, 66, 64
19, 136672, Note_on_c, 5, 70, 76
19, 136785, Note_off_c, 5, 70, 64
19, 136804, Note_on_c, 5, 73, 64
19, 136952, Note_off_c, 5, 73, 64
19, 138476, Note_on_c, 5, 71, 72
19, 138583, Note_on_c, 5, 74, 85
19, 138589, Note_off_c, 5, 71, 64
19, 138678, Note_off_c, 5, 74, 64
19, 138699, Note_on_c, 5, 78, 62
19, 138827, Note_off_c, 5, 78, 64
19, 140406, Note_on_c, 5, 69, 68
19, 140500, Note_on_c, 5, 72, 82
19, 140515, Note_off_c, 5, 69, 64
19, 140584, Note_off_c, 5, 72, 64
19, 140641, Note_on_c, 5, 78, 82
19, 140733, Note_off_c, 5, 78, 64
19, 140876, Note_on_c, 5, 66, 64
19, 140984, Note_off_c, 5, 66, 64
19, 141116, Note_on_c, 5, 67, 76
19, 141336, Note_off_c, 5, 67, 64
19, 141346, Note_on_c, 5, 69, 78
19, 141476, Note_off_c, 5, 69, 64
19, 141588, Note_on_c, 5, 69, 66
19, 141699, Note_on_c, 5, 67, 70
19, 141704, Note_off_c, 5, 69, 64
19, 141784, Note_off_c, 5, 67, 64
19, 141823, Note_on_c, 5, 69, 70
19, 141922, Note_on_c, 5, 71, 85
19, 141929, Note_off_c, 5, 69, 64
19, 142017, Note_off_c, 5, 71, 64
19, 142057, Note_on_c, 5, 73, 63
19, 142143, Note_off_c, 5, 73, 64
19, 142311, Note_on_c, 5, 69, 64
19, 142814, Note_off_c, 5, 69, 64
19, 144222, Note_on_c, 5, 69, 76
19, 144310, Note_on_c, 5, 73, 63
19, 144339, Note_off_c, 5, 69, 64
19, 144407, Note_off_c, 5, 73, 64
19, 144433, Note_on_c, 5, 76, 78
19, 144533, Note_off_c, 5, 76, 64
19, 144688, Note_on_c, 5, 78, 66
19, 144790, Note_on_c, 5, 79, 63
19, 144796, Note_off_c, 5, 78, 64
19, 144887, Note_off_c, 5, 79, 64
19, 144939, Note_on_c, 5, 78, 80
19, 145027, Note_off_c, 5, 78, 64
19, 145176, Note_on_c, 5, 71, 74
19, 145285, Note_off_c, 5, 71, 64
19, 145428, Note_on_c, 5, 69, 80
19, 145521, Note_off_c, 5, 69, 64
19, 145675, Note_on_c, 5, 69, 80
19, 145759, Note_off_c, 5, 69, 64
19, 145907, Note_on_c, 5, 69, 66
19, 146454, Note_off_c, 5, 69, 64
19, 146454, End_track
20, 0, Start_track
20, 0, Title_t, "Oboe"
20, 0, Program_c, 6, 68
20, 0, Control_c, 6, 7, 100
20, 17523, Note_on_c, 6, 64, 70
20, 17632, Note_on_c, 6, 69, 80
20, 17640, Note_off_c, 6, 64, 64
20, 17725, Note_off_c, 6, 69, 64
20, 17746, Note_on_c, 6, 73, 57
20, 17884, Note_off_c, 6, 73, 64
20, 19438, Note_on_c, 6, 66, 66
20, 19544, Note_on_c, 6, 71, 72
20, 19560, Note_off_c, 6, 66, 64
20, 19652, Note_off_c, 6, 71, 64
20, 19665, Note_on_c, 6, 74, 72
20, 19787, Note_off_c, 6, 74, 64
20, 20402, Note_on_c, 6, 64, 70
20, 20502, Note_on_c, 6, 67, 70
20, 20523, Note_off_c, 6, 64, 64
20, 20620, Note_off_c, 6, 67, 64
20, 20632, Note_on_c, 6, 73, 58
20, 20766, Note_off_c, 6, 73, 64
20, 21359, Note_on_c, 6, 73, 60
20, 21465, Note_on_c, 6, 70, 58
20, 21487, Note_off_c, 6, 73, 64
20, 21603, Note_on_c, 6, 66, 64
20, 21615, Note_off_c, 6, 70, 64
20, 21748, Note_off_c, 6, 66, 64
20, 23279, Note_on_c, 6, 66, 58
20, 23383, Note_on_c, 6, 71, 66
20, 23402, Note_off_c, 6, 66, 64
20, 23488, Note_off_c, 6, 71, 64
20, 23507, Note_on_c, 6, 74, 63
20, 23637, Note_off_c, 6, 74, 64
20, 25190, Note_on_c, 6, 62, 70
20, 25294, Note_on_c, 6, 69, 78
20, 25311, Note_off_c, 6, 62, 64
20, 25405, Note_off_c, 6, 69, 64
20, 25429, Note_on_c, 6, 72, 80
20, 25527, Note_off_c, 6, 72, 64
20, 25672, Note_on_c, 6, 62, 68
20, 25785, Note_off_c, 6, 62, 64
20, 25911, Note_on_c, 6, 62, 82
20, 26139, Note_on_c, 6, 64, 58
20, 26149, Note_off_c, 6, 62, 64
20, 26256, Note_off_c, 6, 64, 64
20, 26393, Note_on_c, 6, 66, 60
20, 26503, Note_off_c, 6, 66, 64
20, 26638, Note_on_c, 6, 66, 63
20, 26740, Note_off_c, 6, 66, 64
20, 26866, Note_on_c, 6, 64, 78
20, 26932, Note_off_c, 6, 64, 64
20, 27108, Note_on_c, 6, 64, 70
20, 27611, Note_off_c, 6, 64, 64
20, 29014, Note_on_c, 6, 64, 66
20, 29116, Note_on_c, 6, 69, 76
20, 29133, Note_off_c, 6, 64, 64
20, 29218, Note_off_c, 6, 69, 64
20, 29239, Note_on_c, 6, 73, 61
20, 29341, Note_off_c, 6, 73, 64
20, 29482, Note_on_c, 6, 73, 60
20, 29584, Note_off_c, 6, 73, 64
20, 29722, Note_on_c, 6, 74, 70
20, 29825, Note_off_c, 6, 74, 64
20, 29963, Note_on_c, 6, 64, 72
20, 30082, Note_off_c, 6, 64, 64
20, 30198, Note_on_c, 6, 66, 60
20, 30303, Note_off_c, 6, 66, 64
20, 30451, Note_on_c, 6, 67, 70
20, 30552, Note_off_c, 6, 67, 64
20, 30704, Note_on_c, 6, 66, 60
20, 31280, Note_off_c, 6, 66, 64
20, 32873, Note_on_c, 6, 64, 70
20, 32982, Note_on_c, 6, 69, 78
20, 33001, Note_off_c, 6, 64, 64
20, 33089, Note_off_c, 6, 69, 64
20, 33104, Note_on_c, 6, 73, 57
20, 33231, Note_off_c, 6, 73, 64
20, 34779, Note_on_c, 6, 66, 70
20, 34870, Note_on_c, 6, 71, 78
20, 34889, Note_off_c, 6, 66, 64
20, 34988, Note_off_c, 6, 71, 64
20, 35012, Note_on_c, 6, 74, 80
20, 35142, Note_off_c, 6, 74, 64
20, 35759, Note_on_c, 6, 64, 70
20, 35862, Note_on_c, 6, 67, 78
20, 35874, Note_off_c, 6, 64, 64
20, 35968, Note_off_c, 6, 67, 64
20, 35994, Note_on_c, 6, 73, 64
20, 36132, Note_off_c, 6, 73, 64
20, 36707, Note_on_c, 6, 73, 68
20, 36811, Note_on_c, 6, 70, 61
20, 36822, Note_off_c, 6, 73, 64
20, 36915, Note_off_c, 6, 70, 64
20, 36941, Note_on_c, 6, 66, 64
20, 37093, Note_off_c, 6, 66, 64
20, 38641, Note_on_c, 6, 66, 66
20, 38739, Note_on_c, 6, 71, 80
20, 38758, Note_off_c, 6, 66, 64
20, 38850, Note_off_c, 6, 71, 64
20, 38869, Note_on_c, 6, 74, 82
20, 38988, Note_off_c, 6, 74, 64
20, 40561, Note_on_c, 6, 62, 72
20, 40666, Note_on_c, 6, 69, 74
20, 40689, Note_off_c, 6, 62, 64
20, 40785, Note_off_c, 6, 69, 64
20, 40803, Note_on_c, 6, 72, 80
20, 40901, Note_off_c, 6, 72, 64
20, 41036, Note_on_c, 6, 62, 74
20, 41159, Note_off_c, 6, 62, 64
20, 41273, Note_on_c, 6, 62, 85
20, 41502, Note_on_c, 6, 64, 58
20, 41511, Note_off_c, 6, 62, 64
20, 41632, Note_off_c, 6, 64, 64
20, 41756, Note_on_c, 6, 66, 62
20, 41898, Note_off_c, 6, 66, 64
20, 41998, Note_on_c, 6, 66, 61
20, 42111, Note_off_c, 6, 66, 64
20, 42235, Note_on_c, 6, 64, 78
20, 42303, Note_off_c, 6, 64, 64
20, 42489, Note_on_c, 6, 64, 70
20, 42973, Note_off_c, 6, 64, 64
20, 44374, Note_on_c, 6, 64, 70
20, 44483, Note_on_c, 6, 69, 82
20, 44511, Note_off_c, 6, 64, 64
20, 44583, Note_off_c, 6, 69, 64
20, 44611, Note_on_c, 6, 73, 66
20, 44710, Note_off_c, 6, 73, 64
20, 44853, Note_on_c, 6, 73, 64
20, 44964, Note_off_c, 6, 73, 64
20, 45107, Note_on_c, 6, 74, 82
20, 45203, Note_off_c, 6, 74, 64
20, 45340, Note_on_c, 6, 64, 66
20, 45446, Note_off_c, 6, 64, 64
20, 45570, Note_on_c, 6, 66, 64
20, 45684, Note_off_c, 6, 66, 64
20, 45821, Note_on_c, 6, 67, 78
20, 45914, Note_off_c, 6, 67, 64
20, 46064, Note_on_c, 6, 66, 62
20, 46664, Note_off_c, 6, 66, 64
20, 69837, Note_on_c, 6, 66, 55
20, 69912, Note_off_c, 6, 66, 64
20, 70072, Note_on_c, 6, 66, 57
20, 70596, Note_off_c, 6, 66, 64
20, 70795, Note_on_c, 6, 63, 64
20, 70879, Note_off_c, 6, 63, 64
20, 71037, Note_on_c, 6, 64, 64
20, 71513, Note_off_c, 6, 64, 64
20, 71733, Note_on_c, 6, 64, 68
20, 71833, Note_off_c, 6, 64, 64
20, 71980, Note_on_c, 6, 69, 66
20, 72168, Note_off_c, 6, 69, 64
20, 72220, Note_on_c, 6, 67, 70
20, 72374, Note_off_c, 6, 67, 64
20, 72459, Note_on_c, 6, 66, 57
20, 72595, Note_off_c, 6, 66, 64
20, 72713, Note_on_c, 6, 66, 60
20, 72828, Note_off_c, 6, 66, 64
20, 72950, Note_on_c, 6, 66, 66
20, 73167, Note_off_c, 6, 66, 64
20, 73187, Note_on_c, 6, 64, 64
20, 73286, Note_off_c, 6, 64, 64
20, 73293, Note_on_c, 6, 66, 66
20, 73380, Note_off_c, 6, 66, 64
20, 73412, Note_on_c, 6, 63, 56
20, 73524, Note_off_c, 6, 63, 64
20, 73644, Note_on_c, 6, 71, 72
20, 73734, Note_off_c, 6, 71, 64
20, 73910, Note_on_c, 6, 74, 72
20, 74453, Note_off_c, 6, 74, 64
20, 74632, Note_on_c, 6, 72, 78
20, 74743, Note_off_c, 6, 72, 64
20, 74866, Note_on_c, 6, 71, 72
20, 75362, Note_off_c, 6, 71, 64
20, 75576, Note_on_c, 6, 71, 60
20, 75683, Note_off_c, 6, 71, 64
20, 75832, Note_on_c, 6, 71, 60
20, 75968, Note_off_c, 6, 71, 64
20, 76068, Note_on_c, 6, 72, 72
20, 76182, Note_off_c, 6, 72, 64
20, 76305, Note_on_c, 6, 72, 78
20, 76521, Note_off_c, 6, 72, 64
20, 76542, Note_on_c, 6, 71, 66
20, 76699, Note_off_c, 6, 71, 64
20, 76808, Note_on_c, 6, 71, 57
20, 77361, Note_off_c, 6, 71, 64
20, 77510, Note_on_c, 6, 67, 70
20, 77603, Note_off_c, 6, 67, 64
20, 77755, Note_on_c, 6, 64, 66
20, 78254, Note_off_c, 6, 64, 64
20, 78467, Note_on_c, 6, 69, 80
20, 78564, Note_off_c, 6, 69, 64
20, 78707, Note_on_c, 6, 74, 78
20, 79244, Note_off_c, 6, 74, 64
20, 79426, Note_on_c, 6, 71, 66
20, 79533, Note_off_c, 6, 71, 64
20, 79659, Note_on_c, 6, 73, 60
20, 79820, Note_off_c, 6, 73, 64
20, 79887, Note_on_c, 6, 74, 76
20, 80008, Note_off_c, 6, 74, 64
20, 80143, Note_on_c, 6, 66, 59
20, 80259, Note_off_c, 6, 66, 64
20, 80383, Note_on_c, 6, 71, 76
20, 80494, Note_off_c, 6, 71, 64
20, 80637, Note_on_c, 6, 70, 62
20, 80780, Note_off_c, 6, 70, 64
20, 80876, Note_on_c, 6, 66, 61
20, 81004, Note_off_c, 6, 66, 64
20, 81107, Note_on_c, 6, 71, 59
20, 81223, Note_off_c, 6, 71, 64
20, 81354, Note_on_c, 6, 74, 82
20, 81449, Note_off_c, 6, 74, 64
20, 81612, Note_on_c, 6, 71, 64
20, 82116, Note_off_c, 6, 71, 64
20, 82310, Note_on_c, 6, 69, 78
20, 82410, Note_off_c, 6, 69, 64
20, 82555, Note_on_c, 6, 69, 74
20, 83070, Note_off_c, 6, 69, 64
20, 83267, Note_on_c, 6, 66, 64
20, 83367, Note_off_c, 6, 66, 64
20, 83501, Note_on_c, 6, 66, 60
20, 83673, Note_off_c, 6, 66, 64
20, 83736, Note_on_c, 6, 67, 64
20, 83850, Note_off_c, 6, 67, 64
20, 83976, Note_on_c, 6, 67, 68
20, 84102, Note_off_c, 6, 67, 64
20, 84211, Note_on_c, 6, 66, 52
20, 84324, Note_off_c, 6, 66, 64
20, 84480, Note_on_c, 6, 66, 59
20, 84973, Note_off_c, 6, 66, 64
20, 85187, Note_on_c, 6, 66, 68
20, 85280, Note_off_c, 6, 66, 64
20, 85432, Note_on_c, 6, 67, 82
20, 85669, Note_on_c, 6, 66, 47
20, 85674, Note_off_c, 6, 67, 64
20, 85932, Note_off_c, 6, 66, 64
20, 86137, Note_on_c, 6, 63, 64
20, 86231, Note_off_c, 6, 63, 64
20, 86397, Note_on_c, 6, 63, 78
20, 86632, Note_on_c, 6, 64, 56
20, 86639, Note_off_c, 6, 63, 64
20, 86922, Note_off_c, 6, 64, 64
20, 87113, Note_on_c, 6, 64, 59
20, 87214, Note_off_c, 6, 64, 64
20, 87342, Note_on_c, 6, 69, 80
20, 87537, Note_off_c, 6, 69, 64
20, 87587, Note_on_c, 6, 67, 70
20, 87727, Note_off_c, 6, 67, 64
20, 87821, Note_on_c, 6, 66, 59
20, 87947, Note_off_c, 6, 66, 64
20, 88071, Note_on_c, 6, 66, 59
20, 88190, Note_off_c, 6, 66, 64
20, 88313, Note_on_c, 6, 67, 64
20, 88367, Note_on_c, 6, 66, 58
20, 88377, Note_off_c, 6, 67, 64
20, 88417, Note_on_c, 6, 67, 60
20, 88426, Note_off_c, 6, 66, 64
20, 88470, Note_on_c, 6, 66, 61
20, 88500, Note_off_c, 6, 67, 64
20, 88530, Note_on_c, 6, 64, 66
20, 88560, Note_off_c, 6, 66, 64
20, 88642, Note_on_c, 6, 66, 59
20, 88645, Note_off_c, 6, 64, 64
20, 88716, Note_off_c, 6, 66, 64
20, 88776, Note_on_c, 6, 63, 40
20, 88885, Note_off_c, 6, 63, 64
20, 89013, Note_on_c, 6, 71, 53
20, 89089, Note_off_c, 6, 71, 64
20, 89262, Note_on_c, 6, 74, 68
20, 89854, Note_off_c, 6, 74, 64
20, 90001, Note_on_c, 6, 72, 76
20, 90101, Note_off_c, 6, 72, 64
20, 90233, Note_on_c, 6, 72, 78
20, 90485, Note_on_c, 6, 71, 53
20, 90490, Note_off_c, 6, 72, 64
20, 90784, Note_off_c, 6, 71, 64
20, 90952, Note_on_c, 6, 71, 64
20, 91035, Note_off_c, 6, 71, 64
20, 91188, Note_on_c, 6, 71, 60
20, 91334, Note_off_c, 6, 71, 64
20, 91420, Note_on_c, 6, 72, 66
20, 91518, Note_off_c, 6, 72, 64
20, 91657, Note_on_c, 6, 72, 78
20, 91833, Note_off_c, 6, 72, 64
20, 91893, Note_on_c, 6, 71, 64
20, 91987, Note_off_c, 6, 71, 64
20, 92139, Note_on_c, 6, 69, 80
20, 92381, Note_on_c, 6, 71, 58
20, 92389, Note_off_c, 6, 69, 64
20, 92654, Note_off_c, 6, 71, 64
20, 92870, Note_on_c, 6, 67, 70
20, 92965, Note_off_c, 6, 67, 64
20, 93101, Note_on_c, 6, 66, 82
20, 93352, Note_on_c, 6, 64, 56
20, 93363, Note_off_c, 6, 66, 64
20, 93640, Note_off_c, 6, 64, 64
20, 93824, Note_on_c, 6, 69, 72
20, 93920, Note_off_c, 6, 69, 64
20, 94073, Note_on_c, 6, 73, 72
20, 94316, Note_on_c, 6, 74, 68
20, 94330, Note_off_c, 6, 73, 64
20, 94601, Note_off_c, 6, 74, 64
20, 94798, Note_on_c, 6, 71, 76
20, 94900, Note_off_c, 6, 71, 64
20, 95037, Note_on_c, 6, 73, 66
20, 95175, Note_off_c, 6, 73, 64
20, 95268, Note_on_c, 6, 74, 70
20, 95389, Note_off_c, 6, 74, 64
20, 95507, Note_on_c, 6, 66, 64
20, 95616, Note_off_c, 6, 66, 64
20, 95746, Note_on_c, 6, 71, 72
20, 95864, Note_off_c, 6, 71, 64
20, 95994, Note_on_c, 6, 70, 60
20, 96116, Note_off_c, 6, 70, 64
20, 96229, Note_on_c, 6, 66, 58
20, 96333, Note_off_c, 6, 66, 64
20, 96461, Note_on_c, 6, 71, 64
20, 96583, Note_off_c, 6, 71, 64
20, 96711, Note_on_c, 6, 74, 85
20, 96796, Note_off_c, 6, 74, 64
20, 96955, Note_on_c, 6, 71, 70
20, 97478, Note_off_c, 6, 71, 64
20, 97663, Note_on_c, 6, 69, 66
20, 97751, Note_off_c, 6, 69, 64
20, 97905, Note_on_c, 6, 69, 74
20, 98391, Note_off_c, 6, 69, 64
20, 98622, Note_on_c, 6, 66, 63
20, 98716, Note_off_c, 6, 66, 64
20, 98868, Note_on_c, 6, 66, 80
20, 99046, Note_off_c, 6, 66, 64
20, 99096, Note_on_c, 6, 67, 64
20, 99208, Note_off_c, 6, 67, 64
20, 99338, Note_on_c, 6, 67, 72
20, 99438, Note_off_c, 6, 67, 64
20, 99580, Note_on_c, 6, 66, 66
20, 99666, Note_off_c, 6, 66, 64
20, 99829, Note_on_c, 6, 64, 85
20, 100081, Note_on_c, 6, 66, 54
20, 100095, Note_off_c, 6, 64, 64
20, 100437, Note_off_c, 6, 66, 64
20, 117363, Note_on_c, 6, 64, 70
20, 117472, Note_on_c, 6, 69, 80
20, 117480, Note_off_c, 6, 64, 64
20, 117565, Note_off_c, 6, 69, 64
20, 117586, Note_on_c, 6, 73, 57
20, 117724, Note_off_c, 6, 73, 64
20, 119278, Note_on_c, 6, 66, 66
20, 119384, Note_on_c, 6, 71, 72
20, 119400, Note_off_c, 6, 66, 64
20, 119492, Note_off_c, 6, 71, 64
20, 119505, Note_on_c, 6, 74, 72
20, 119627, Note_off_c, 6, 74, 64
20, 120242, Note_on_c, 6, 64, 70
20, 120342, Note_on_c, 6, 67, 70
20, 120363, Note_off_c, 6, 64, 64
20, 120460, Note_off_c, 6, 67, 64
20, 120472, Note_on_c, 6, 73, 58
20, 120606, Note_off_c, 6, 73, 64
20, 121199, Note_on_c, 6, 73, 60
20, 121305, Note_on_c, 6, 70, 58
20, 121327, Note_off_c, 6, 73, 64
20, 121443, Note_on_c, 6, 66, 64
20, 121455, Note_off_c, 6, 70, 64
20, 121588, Note_off_c, 6, 66, 64
20, 123119, Note_on_c, 6, 66, 58
20, 123223, Note_on_c, 6, 71, 66
20, 123242, Note_off_c, 6, 66, 64
20, 123328, Note_off_c, 6, 71, 64
20, 123347, Note_on_c, 6, 74, 63
20, 123477, Note_off_c, 6, 74, 64
20, 125030, Note_on_c, 6, 62, 70
20, 125134, Note_on_c, 6, 69, 78
20, 125151, Note_off_c, 6, 62, 64
20, 125245, Note_off_c, 6, 69, 64
20, 125269, Note_on_c, 6, 72, 80
20, 125367, Note_off_c, 6, 72, 64
20, 125512, Note_on_c, 6, 62, 68
20, 125625, Note_off_c, 6, 62, 64
20, 125751, Note_on_c, 6, 62, 82
20, 125979, Note_on_c, 6, 64, 58
20, 125989, Note_off_c, 6, 62, 64
20, 126096, Note_off_c, 6, 64, 64
20, 126233, Note_on_c, 6, 66, 60
20, 126343, Note_off_c, 6, 66, 64
20, 126478, Note_on_c, 6, 66, 63
20, 126580, Note_off_c, 6, 66, 64
20, 126706, Note_on_c, 6, 64, 78
20, 126772, Note_off_c, 6, 64, 64
20, 126948, Note_on_c, 6, 64, 70
20, 127451, Note_off_c, 6, 64, 64
20, 128854, Note_on_c, 6, 64, 66
20, 128956, Note_on_c, 6, 69, 76
20, 128973, Note_off_c, 6, 64, 64
20, 129058, Note_off_c, 6, 69, 64
20, 129079, Note_on_c, 6, 73, 61
20, 129181, Note_off_c, 6, 73, 64
20, 129322, Note_on_c, 6, 73, 60
20, 129424, Note_off_c, 6, 73, 64
20, 129562, Note_on_c, 6, 74, 70
20, 129665, Note_off_c, 6, 74, 64
20, 129803, Note_on_c, 6, 64, 72
20, 129922, Note_off_c, 6, 64, 64
20, 130038, Note_on_c, 6, 66, 60
20, 130143, Note_off_c, 6, 66, 64
20, 130291, Note_on_c, 6, 67, 70
20, 130392, Note_off_c, 6, 67, 64
20, 130544, Note_on_c, 6, 66, 60
20, 131120, Note_off_c, 6, 66, 64
20, 132713, Note_on_c, 6, 64, 70
20, 132822, Note_on_c, 6, 69, 78
20, 132841, Note_off_c, 6, 64, 64
20, 132929, Note_off_c, 6, 69, 64
20, 132944, Note_on_c, 6, 73, 57
20, 133071, Note_off_c, 6, 73, 64
20, 134619, Note_on_c, 6, 66, 70
20, 134710, Note_on_c, 6, 71, 78
20, 134729, Note_off_c, 6, 66, 64
20, 134828, Note_off_c, 6, 71, 64
20, 134852, Note_on_c, 6, 74, 80
20, 134982, Note_off_c, 6, 74, 64
20, 135599, Note_on_c, 6, 64, 70
20, 135702, Note_on_c, 6, 67, 78
20, 135714, Note_off_c, 6, 64, 64
20, 135808, Note_off_c, 6, 67, 64
20, 135834, Note_on_c, 6, 73, 64
20, 135972, Note_off_c, 6, 73, 64
20, 136547, Note_on_c, 6, 73, 68
20, 136651, Note_on_c, 6, 70, 61
20, 136662, Note_off_c, 6, 73, 64
20, 136755, Note_off_c, 6, 70, 64
20, 136781, Note_on_c, 6, 66, 64
20, 136933, Note_off_c, 6, 66, 64
20, 138481, Note_on_c, 6, 66, 66
20, 138579, Note_on_c, 6, 71, 80
20, 138598, Note_off_c, 6, 66, 64
20, 138690, Note_off_c, 6, 71, 64
20, 138709, Note_on_c, 6, 74, 82
20, 138828, Note_off_c, 6, 74, 64
20, 140401, Note_on_c, 6, 62, 72
20, 140506, Note_on_c, 6, 69, 74
20, 140529, Note_off_c, 6, 62, 64
20, 140625, Note_off_c, 6, 69, 64
20, 140643, Note_on_c, 6, 72, 80
20, 140741, Note_off_c, 6, 72, 64
20, 140876, Note_on_c, 6, 62, 74
20, 140999, Note_off_c, 6, 62, 64
20, 141113, Note_on_c, 6, 62, 85
20, 141342, Note_on_c, 6, 64, 58
20, 141351, Note_off_c, 6, 62, 64
20, 141472, Note_off_c, 6, 64, 64
20, 141596, Note_on_c, 6, 66, 62
20, 141738, Note_off_c, 6, 66, 64
20, 141838, Note_on_c, 6, 66, 61
20, 141951, Note_off_c, 6, 66, 64
20, 142075, Note_on_c, 6, 64, 78
20, 142143, Note_off_c, 6, 64, 64
20, 142329, Note_on_c, 6, 64, 70
20, 142813, Note_off_c, 6, 64, 64
20, 144214, Note_on_c, 6, 64, 70
20, 144323, Note_on_c, 6, 69, 82
20, 144351, Note_off_c, 6, 64, 64
20, 144423, Note_off_c, 6, 69, 64
20, 144451, Note_on_c, 6, 73, 66
20, 144550, Note_off_c, 6, 73, 64
20, 144693, Note_on_c, 6, 73, 64
20, 144804, Note_off_c, 6, 73, 64
20, 144947, Note_on_c, 6, 74, 82
20, 145043, Note_off_c, 6, 74, 64
20, 145180, Note_on_c, 6, 64, 66
20, 145286, Note_off_c, 6, 64, 64
20, 145410, Note_on_c, 6, 66, 64
20, 145524, Note_off_c, 6, 66, 64
20, 145661, Note_on_c, 6, 67, 78
20, 145754, Note_off_c, 6, 67, 64
20, 145904, Note_on_c, 6, 66, 62
20, 146504, Note_off_c, 6, 66, 64
20, 146504, End_track
21, 0, Start_track
21, 0, Title_t, "Bassoon"
21, 0, Program_c, 7, 70
21, 0, Control_c, 7, 7, 100
21, 16088, Note_on_c, 7, 45, 74
21, 16215, Note_off_c, 7, 45, 64
21, 16319, Note_on_c, 7, 57, 68
21, 16426, Note_off_c, 7, 57, 64
21, 16556, Note_on_c, 7, 57, 74
21, 16661, Note_off_c, 7, 57, 64
21, 16796, Note_on_c, 7, 57, 72
21, 16915, Note_off_c, 7, 57, 64
21, 17031, Note_on_c, 7, 45, 70
21, 17152, Note_off_c, 7, 45, 64
21, 17273, Note_on_c, 7, 57, 76
21, 17392, Note_off_c, 7, 57, 64
21, 17513, Note_on_c, 7, 55, 82
21, 17632, Note_off_c, 7, 55, 64
21, 17757, Note_on_c, 7, 54, 61
21, 17869, Note_off_c, 7, 54, 64
21, 17994, Note_on_c, 7, 52, 68
21, 18094, Note_off_c, 7, 52, 64
21, 18234, Note_on_c, 7, 50, 78
21, 18356, Note_off_c, 7, 50, 64
21, 18474, Note_on_c, 7, 47, 70
21, 18579, Note_off_c, 7, 47, 64
21, 18702, Note_on_c, 7, 50, 78
21, 18820, Note_off_c, 7, 50, 64
21, 18947, Note_on_c, 7, 54, 64
21, 19040, Note_off_c, 7, 54, 64
21, 19186, Note_on_c, 7, 59, 80
21, 19300, Note_off_c, 7, 59, 64
21, 19438, Note_on_c, 7, 45, 78
21, 19557, Note_off_c, 7, 45, 64
21, 19684, Note_on_c, 7, 43, 66
21, 19808, Note_off_c, 7, 43, 64
21, 19913, Note_on_c, 7, 42, 68
21, 20021, Note_off_c, 7, 42, 64
21, 20157, Note_on_c, 7, 40, 80
21, 20254, Note_off_c, 7, 40, 64
21, 20385, Note_on_c, 7, 52, 80
21, 20510, Note_off_c, 7, 52, 64
21, 20620, Note_on_c, 7, 50, 80
21, 20762, Note_off_c, 7, 50, 64
21, 20874, Note_on_c, 7, 49, 64
21, 20990, Note_off_c, 7, 49, 64
21, 21121, Note_on_c, 7, 54, 80
21, 21223, Note_off_c, 7, 54, 64
21, 21358, Note_on_c, 7, 42, 62
21, 21470, Note_off_c, 7, 42, 64
21, 21593, Note_on_c, 7, 44, 76
21, 21692, Note_off_c, 7, 44, 64
21, 21847, Note_on_c, 7, 46, 76
21, 21946, Note_off_c, 7, 46, 64
21, 22085, Note_on_c, 7, 38, 82
21, 22187, Note_off_c, 7, 38, 64
21, 22314, Note_on_c, 7, 43, 70
21, 22417, Note_off_c, 7, 43, 64
21, 22547, Note_on_c, 7, 42, 72
21, 22654, Note_off_c, 7, 42, 64
21, 22782, Note_on_c, 7, 54, 68
21, 22887, Note_off_c, 7, 54, 64
21, 23031, Note_on_c, 7, 59, 80
21, 23148, Note_off_c, 7, 59, 64
21, 23257, Note_on_c, 7, 54, 66
21, 23381, Note_off_c, 7, 54, 64
21, 23508, Note_on_c, 7, 50, 72
21, 23611, Note_off_c, 7, 50, 64
21, 23746, Note_on_c, 7, 54, 68
21, 23853, Note_off_c, 7, 54, 64
21, 23986, Note_on_c, 7, 47, 85
21, 24102, Note_off_c, 7, 47, 64
21, 24230, Note_on_c, 7, 59, 82
21, 24354, Note_off_c, 7, 59, 64
21, 24477, Note_on_c, 7, 57, 70
21, 24595, Note_off_c, 7, 57, 64
21, 24712, Note_on_c, 7, 55, 62
21, 24816, Note_off_c, 7, 55, 64
21, 24938, Note_on_c, 7, 54, 49
21, 25063, Note_off_c, 7, 54, 64
21, 25196, Note_on_c, 7, 42, 78
21, 25334, Note_off_c, 7, 42, 64
21, 25434, Note_on_c, 7, 40, 66
21, 25536, Note_off_c, 7, 40, 64
21, 25681, Note_on_c, 7, 38, 70
21, 25775, Note_off_c, 7, 38, 64
21, 25904, Note_on_c, 7, 43, 76
21, 26015, Note_off_c, 7, 43, 64
21, 26138, Note_on_c, 7, 54, 66
21, 26253, Note_off_c, 7, 54, 64
21, 26380, Note_on_c, 7, 52, 70
21, 26482, Note_off_c, 7, 52, 64
21, 26634, Note_on_c, 7, 50, 70
21, 26760, Note_off_c, 7, 50, 64
21, 26876, Note_on_c, 7, 57, 74
21, 26970, Note_off_c, 7, 57, 64
21, 27098, Note_on_c, 7, 49, 70
21, 27168, Note_off_c, 7, 49, 64
21, 27206, Note_on_c, 7, 47, 68
21, 27283, Note_off_c, 7, 47, 64
21, 27333, Note_on_c, 7, 45, 78
21, 27449, Note_off_c, 7, 45, 64
21, 27586, Note_on_c, 7, 43, 70
21, 27681, Note_off_c, 7, 43, 64
21, 27816, Note_on_c, 7, 42, 64
21, 27940, Note_off_c, 7, 42, 64
21, 28066, Note_on_c, 7, 54, 68
21, 28180, Note_off_c, 7, 54, 64
21, 28305, Note_on_c, 7, 55, 72
21, 28414, Note_off_c, 7, 55, 64
21, 28533, Note_on_c, 7, 57, 82
21, 28617, Note_off_c, 7, 57, 64
21, 28773, Note_on_c, 7, 55, 70
21, 28880, Note_off_c, 7, 55, 64
21, 29001, Note_on_c, 7, 52, 68
21, 29122, Note_off_c, 7, 52, 64
21, 29245, Note_on_c, 7, 49, 63
21, 29364, Note_off_c, 7, 49, 64
21, 29485, Note_on_c, 7, 45, 63
21, 29601, Note_off_c, 7, 45, 64
21, 29725, Note_on_c, 7, 50, 74
21, 29834, Note_off_c, 7, 50, 64
21, 29963, Note_on_c, 7, 55, 74
21, 30085, Note_off_c, 7, 55, 64
21, 30200, Note_on_c, 7, 57, 80
21, 30321, Note_off_c, 7, 57, 64
21, 30442, Note_on_c, 7, 45, 76
21, 30556, Note_off_c, 7, 45, 64
21, 30701, Note_on_c, 7, 50, 82
21, 30850, Note_off_c, 7, 50, 64
21, 30950, Note_on_c, 7, 54, 66
21, 31024, Note_off_c, 7, 54, 64
21, 31057, Note_on_c, 7, 57, 80
21, 31140, Note_off_c, 7, 57, 64
21, 31183, Note_on_c, 7, 62, 78
21, 31304, Note_off_c, 7, 62, 64
21, 31427, Note_on_c, 7, 45, 72
21, 31538, Note_off_c, 7, 45, 64
21, 31669, Note_on_c, 7, 57, 72
21, 31776, Note_off_c, 7, 57, 64
21, 31911, Note_on_c, 7, 57, 66
21, 32006, Note_off_c, 7, 57, 64
21, 32139, Note_on_c, 7, 57, 63
21, 32247, Note_off_c, 7, 57, 64
21, 32376, Note_on_c, 7, 45, 70
21, 32498, Note_off_c, 7, 45, 64
21, 32623, Note_on_c, 7, 57, 80
21, 32725, Note_off_c, 7, 57, 64
21, 32868, Note_on_c, 7, 55, 64
21, 32982, Note_off_c, 7, 55, 64
21, 33108, Note_on_c, 7, 54, 57
21, 33229, Note_off_c, 7, 54, 64
21, 33356, Note_on_c, 7, 52, 62
21, 33457, Note_off_c, 7, 52, 64
21, 33589, Note_on_c, 7, 50, 66
21, 33718, Note_off_c, 7, 50, 64
21, 33818, Note_on_c, 7, 47, 68
21, 33940, Note_off_c, 7, 47, 64
21, 34054, Note_on_c, 7, 50, 66
21, 34190, Note_off_c, 7, 50, 64
21, 34309, Note_on_c, 7, 54, 66
21, 34406, Note_off_c, 7, 54, 64
21, 34543, Note_on_c, 7, 59, 87
21, 34655, Note_off_c, 7, 59, 64
21, 34778, Note_on_c, 7, 45, 68
21, 34904, Note_off_c, 7, 45, 64
21, 35018, Note_on_c, 7, 43, 68
21, 35141, Note_off_c, 7, 43, 64
21, 35243, Note_on_c, 7, 42, 63
21, 35355, Note_off_c, 7, 42, 64
21, 35505, Note_on_c, 7, 40, 76
21, 35619, Note_off_c, 7, 40, 64
21, 35740, Note_on_c, 7, 52, 72
21, 35849, Note_off_c, 7, 52, 64
21, 35980, Note_on_c, 7, 50, 74
21, 36108, Note_off_c, 7, 50, 64
21, 36233, Note_on_c, 7, 49, 63
21, 36348, Note_off_c, 7, 49, 64
21, 36466, Note_on_c, 7, 54, 78
21, 36580, Note_off_c, 7, 54, 64
21, 36703, Note_on_c, 7, 42, 66
21, 36829, Note_off_c, 7, 42, 64
21, 36946, Note_on_c, 7, 44, 78
21, 37062, Note_off_c, 7, 44, 64
21, 37193, Note_on_c, 7, 46, 68
21, 37294, Note_off_c, 7, 46, 64
21, 37426, Note_on_c, 7, 38, 63
21, 37549, Note_off_c, 7, 38, 64
21, 37660, Note_on_c, 7, 43, 68
21, 37776, Note_off_c, 7, 43, 64
21, 37892, Note_on_c, 7, 42, 57
21, 38011, Note_off_c, 7, 42, 64
21, 38139, Note_on_c, 7, 54, 64
21, 38232, Note_off_c, 7, 54, 64
21, 38387, Note_on_c, 7, 59, 80
21, 38495, Note_off_c, 7, 59, 64
21, 38614, Note_on_c, 7, 54, 63
21, 38756, Note_off_c, 7, 54, 64
21, 38868, Note_on_c, 7, 50, 66
21, 38970, Note_off_c, 7, 50, 64
21, 39105, Note_on_c, 7, 54, 61
21, 39194, Note_off_c, 7, 54, 64
21, 39340, Note_on_c, 7, 47, 61
21, 39451, Note_off_c, 7, 47, 64
21, 39585, Note_on_c, 7, 59, 82
21, 39701, Note_off_c, 7, 59, 64
21, 39827, Note_on_c, 7, 57, 68
21, 39962, Note_off_c, 7, 57, 64
21, 40067, Note_on_c, 7, 55, 72
21, 40176, Note_off_c, 7, 55, 64
21, 40316, Note_on_c, 7, 54, 64
21, 40437, Note_off_c, 7, 54, 64
21, 40556, Note_on_c, 7, 42, 64
21, 40689, Note_off_c, 7, 42, 64
21, 40796, Note_on_c, 7, 40, 78
21, 40902, Note_off_c, 7, 40, 64
21, 41035, Note_on_c, 7, 38, 82
21, 41125, Note_off_c, 7, 38, 64
21, 41265, Note_on_c, 7, 43, 78
21, 41384, Note_off_c, 7, 43, 64
21, 41513, Note_on_c, 7, 54, 64
21, 41621, Note_off_c, 7, 54, 64
21, 41748, Note_on_c, 7, 52, 74
21, 41868, Note_off_c, 7, 52, 64
21, 41990, Note_on_c, 7, 50, 74
21, 42110, Note_off_c, 7, 50, 64
21, 42236, Note_on_c, 7, 57, 85
21, 42327, Note_off_c, 7, 57, 64
21, 42460, Note_on_c, 7, 49, 74
21, 42536, Note_off_c, 7, 49, 64
21, 42566, Note_on_c, 7, 47, 74
21, 42650, Note_off_c, 7, 47, 64
21, 42694, Note_on_c, 7, 45, 66
21, 42820, Note_off_c, 7, 45, 64
21, 42934, Note_on_c, 7, 43, 64
21, 43034, Note_off_c, 7, 43, 64
21, 43179, Note_on_c, 7, 42, 70
21, 43305, Note_off_c, 7, 42, 64
21, 43416, Note_on_c, 7, 54, 66
21, 43535, Note_off_c, 7, 54, 64
21, 43660, Note_on_c, 7, 55, 70
21, 43772, Note_off_c, 7, 55, 64
21, 43904, Note_on_c, 7, 57, 80
21, 43984, Note_off_c, 7, 57, 64
21, 44136, Note_on_c, 7, 55, 72
21, 44249, Note_off_c, 7, 55, 64
21, 44372, Note_on_c, 7, 52, 64
21, 44489, Note_off_c, 7, 52, 64
21, 44613, Note_on_c, 7, 49, 60
21, 44723, Note_off_c, 7, 49, 64
21, 44859, Note_on_c, 7, 45, 78
21, 44964, Note_off_c, 7, 45, 64
21, 45099, Note_on_c, 7, 50, 68
21, 45201, Note_off_c, 7, 50, 64
21, 45337, Note_on_c, 7, 55, 68
21, 45443, Note_off_c, 7, 55, 64
21, 45578, Note_on_c, 7, 57, 76
21, 45688, Note_off_c, 7, 57, 64
21, 45816, Note_on_c, 7, 45, 74
21, 45915, Note_off_c, 7, 45, 64
21, 46055, Note_on_c, 7, 50, 76
21, 46181, Note_off_c, 7, 50, 64
21, 46295, Note_on_c, 7, 54, 63
21, 46381, Note_off_c, 7, 54, 64
21, 46414, Note_on_c, 7, 57, 85
21, 46492, Note_off_c, 7, 57, 64
21, 46544, Note_on_c, 7, 62, 80
21, 46649, Note_off_c, 7, 62, 64
21, 69833, Note_on_c, 7, 54, 64
21, 69950, Note_off_c, 7, 54, 64
21, 70079, Note_on_c, 7, 59, 78
21, 70197, Note_on_c, 7, 57, 56
21, 70223, Note_off_c, 7, 59, 64
21, 70309, Note_on_c, 7, 59, 63
21, 70326, Note_off_c, 7, 57, 64
21, 70430, Note_on_c, 7, 60, 64
21, 70464, Note_off_c, 7, 59, 64
21, 70551, Note_off_c, 7, 60, 64
21, 70558, Note_on_c, 7, 59, 64
21, 70670, Note_on_c, 7, 57, 61
21, 70688, Note_off_c, 7, 59, 64
21, 70786, Note_on_c, 7, 55, 59
21, 70793, Note_off_c, 7, 57, 64
21, 70896, Note_on_c, 7, 54, 64
21, 70917, Note_off_c, 7, 55, 64
21, 70990, Note_off_c, 7, 54, 64
21, 71017, Note_on_c, 7, 55, 63
21, 71135, Note_on_c, 7, 57, 66
21, 71145, Note_off_c, 7, 55, 64
21, 71266, Note_on_c, 7, 55, 66
21, 71275, Note_off_c, 7, 57, 64
21, 71382, Note_on_c, 7, 54, 57
21, 71396, Note_off_c, 7, 55, 64
21, 71506, Note_on_c, 7, 52, 61
21, 71522, Note_off_c, 7, 54, 64
21, 71615, Note_on_c, 7, 50, 64
21, 71619, Note_off_c, 7, 52, 64
21, 71721, Note_on_c, 7, 48, 53
21, 71743, Note_off_c, 7, 50, 64
21, 71838, Note_on_c, 7, 47, 57
21, 71864, Note_off_c, 7, 48, 64
21, 71940, Note_off_c, 7, 47, 64
21, 71961, Note_on_c, 7, 45, 76
21, 72078, Note_on_c, 7, 47, 66
21, 72094, Note_off_c, 7, 45, 64
21, 72203, Note_on_c, 7, 48, 57
21, 72232, Note_off_c, 7, 47, 64
21, 72324, Note_on_c, 7, 45, 68
21, 72348, Note_off_c, 7, 48, 64
21, 72421, Note_off_c, 7, 45, 64
21, 72438, Note_on_c, 7, 42, 64
21, 72574, Note_on_c, 7, 43, 48
21, 72585, Note_off_c, 7, 42, 64
21, 72675, Note_off_c, 7, 43, 64
21, 72682, Note_on_c, 7, 45, 57
21, 72790, Note_off_c, 7, 45, 64
21, 72801, Note_on_c, 7, 42, 64
21, 72872, Note_off_c, 7, 42, 64
21, 72942, Note_on_c, 7, 47, 70
21, 73026, Note_off_c, 7, 47, 64
21, 73198, Note_on_c, 7, 54, 68
21, 73276, Note_off_c, 7, 54, 64
21, 73438, Note_on_c, 7, 59, 78
21, 73549, Note_on_c, 7, 61, 48
21, 73582, Note_off_c, 7, 59, 64
21, 73665, Note_on_c, 7, 63, 57
21, 73668, Note_off_c, 7, 61, 64
21, 73765, Note_off_c, 7, 63, 64
21, 73779, Note_on_c, 7, 59, 70
21, 73877, Note_off_c, 7, 59, 64
21, 73903, Note_on_c, 7, 64, 80
21, 74017, Note_on_c, 7, 57, 60
21, 74024, Note_off_c, 7, 64, 64
21, 74133, Note_on_c, 7, 56, 53
21, 74144, Note_off_c, 7, 57, 64
21, 74252, Note_on_c, 7, 54, 57
21, 74290, Note_off_c, 7, 56, 64
21, 74363, Note_on_c, 7, 52, 63
21, 74372, Note_off_c, 7, 54, 64
21, 74473, Note_on_c, 7, 50, 59
21, 74494, Note_off_c, 7, 52, 64
21, 74611, Note_on_c, 7, 48, 59
21, 74619, Note_off_c, 7, 50, 64
21, 74715, Note_on_c, 7, 47, 63
21, 74721, Note_off_c, 7, 48, 64
21, 74843, Note_off_c, 7, 47, 64
21, 74852, Note_on_c, 7, 45, 70
21, 74957, Note_on_c, 7, 55, 66
21, 74975, Note_off_c, 7, 45, 64
21, 75090, Note_on_c, 7, 54, 59
21, 75120, Note_off_c, 7, 55, 64
21, 75220, Note_on_c, 7, 52, 70
21, 75242, Note_off_c, 7, 54, 64
21, 75329, Note_on_c, 7, 51, 60
21, 75336, Note_off_c, 7, 52, 64
21, 75445, Note_on_c, 7, 52, 66
21, 75466, Note_off_c, 7, 51, 64
21, 75566, Note_on_c, 7, 54, 60
21, 75579, Note_off_c, 7, 52, 64
21, 75680, Note_off_c, 7, 54, 64
21, 75681, Note_on_c, 7, 51, 55
21, 75773, Note_off_c, 7, 51, 64
21, 75827, Note_on_c, 7, 52, 78
21, 75942, Note_off_c, 7, 52, 64
21, 76065, Note_on_c, 7, 48, 70
21, 76174, Note_off_c, 7, 48, 64
21, 76300, Note_on_c, 7, 45, 64
21, 76404, Note_off_c, 7, 45, 64
21, 76523, Note_on_c, 7, 47, 68
21, 76609, Note_off_c, 7, 47, 64
21, 76777, Note_on_c, 7, 40, 64
21, 76884, Note_off_c, 7, 40, 64
21, 76886, Note_on_c, 7, 47, 68
21, 77012, Note_on_c, 7, 49, 56
21, 77034, Note_off_c, 7, 47, 64
21, 77141, Note_on_c, 7, 51, 59
21, 77150, Note_off_c, 7, 49, 64
21, 77243, Note_off_c, 7, 51, 64
21, 77264, Note_on_c, 7, 52, 78
21, 77382, Note_on_c, 7, 54, 62
21, 77396, Note_off_c, 7, 52, 64
21, 77496, Note_on_c, 7, 55, 72
21, 77504, Note_off_c, 7, 54, 64
21, 77579, Note_off_c, 7, 55, 64
21, 77601, Note_on_c, 7, 52, 63
21, 77698, Note_off_c, 7, 52, 64
21, 77734, Note_on_c, 7, 57, 78
21, 77857, Note_on_c, 7, 59, 72
21, 77869, Note_off_c, 7, 57, 64
21, 77976, Note_on_c, 7, 61, 60
21, 77995, Note_off_c, 7, 59, 64
21, 78094, Note_on_c, 7, 59, 70
21, 78126, Note_off_c, 7, 61, 64
21, 78215, Note_on_c, 7, 57, 59
21, 78221, Note_off_c, 7, 59, 64
21, 78330, Note_off_c, 7, 57, 64
21, 78334, Note_on_c, 7, 55, 60
21, 78441, Note_on_c, 7, 54, 52
21, 78446, Note_off_c, 7, 55, 64
21, 78564, Note_on_c, 7, 52, 59
21, 78595, Note_off_c, 7, 54, 64
21, 78666, Note_off_c, 7, 52, 64
21, 78692, Note_on_c, 7, 50, 76
21, 78812, Note_on_c, 7, 52, 60
21, 78838, Note_off_c, 7, 50, 64
21, 78936, Note_on_c, 7, 54, 55
21, 78943, Note_off_c, 7, 52, 64
21, 79061, Note_on_c, 7, 52, 57
21, 79094, Note_off_c, 7, 54, 64
21, 79175, Note_on_c, 7, 50, 63
21, 79179, Note_off_c, 7, 52, 64
21, 79279, Note_on_c, 7, 49, 60
21, 79293, Note_off_c, 7, 50, 64
21, 79400, Note_on_c, 7, 47, 60
21, 79407, Note_off_c, 7, 49, 64
21, 79523, Note_on_c, 7, 50, 59
21, 79549, Note_off_c, 7, 47, 64
21, 79649, Note_on_c, 7, 49, 57
21, 79650, Note_off_c, 7, 50, 64
21, 79765, Note_on_c, 7, 54, 61
21, 79770, Note_off_c, 7, 49, 64
21, 79872, Note_on_c, 7, 52, 63
21, 79886, Note_off_c, 7, 54, 64
21, 79979, Note_off_c, 7, 52, 64
21, 79986, Note_on_c, 7, 50, 61
21, 80079, Note_off_c, 7, 50, 64
21, 80093, Note_on_c, 7, 49, 64
21, 80210, Note_off_c, 7, 49, 64
21, 80224, Note_on_c, 7, 47, 49
21, 80331, Note_on_c, 7, 46, 58
21, 80343, Note_off_c, 7, 47, 64
21, 80440, Note_on_c, 7, 47, 68
21, 80445, Note_off_c, 7, 46, 64
21, 80584, Note_off_c, 7, 47, 64
21, 80594, Note_on_c, 7, 42, 57
21, 80694, Note_off_c, 7, 42, 64
21, 80725, Note_on_c, 7, 55, 72
21, 80841, Note_on_c, 7, 54, 64
21, 80872, Note_off_c, 7, 55, 64
21, 80972, Note_on_c, 7, 52, 68
21, 80991, Note_off_c, 7, 54, 64
21, 81099, Note_on_c, 7, 50, 60
21, 81118, Note_off_c, 7, 52, 64
21, 81220, Note_on_c, 7, 49, 68
21, 81242, Note_off_c, 7, 50, 64
21, 81337, Note_on_c, 7, 50, 59
21, 81342, Note_off_c, 7, 49, 64
21, 81437, Note_off_c, 7, 50, 64
21, 81453, Note_on_c, 7, 47, 66
21, 81548, Note_off_c, 7, 47, 64
21, 81588, Note_on_c, 7, 52, 66
21, 81696, Note_on_c, 7, 54, 53
21, 81719, Note_off_c, 7, 52, 64
21, 81823, Note_on_c, 7, 55, 59
21, 81845, Note_off_c, 7, 54, 64
21, 81938, Note_on_c, 7, 52, 64
21, 81949, Note_off_c, 7, 55, 64
21, 82011, Note_off_c, 7, 52, 64
21, 82065, Note_on_c, 7, 49, 72
21, 82172, Note_off_c, 7, 49, 64
21, 82174, Note_on_c, 7, 50, 70
21, 82274, Note_off_c, 7, 50, 64
21, 82286, Note_on_c, 7, 52, 66
21, 82386, Note_on_c, 7, 49, 55
21, 82391, Note_off_c, 7, 52, 64
21, 82488, Note_off_c, 7, 49, 64
21, 82529, Note_on_c, 7, 50, 78
21, 82656, Note_on_c, 7, 52, 68
21, 82678, Note_off_c, 7, 50, 64
21, 82770, Note_on_c, 7, 54, 59
21, 82799, Note_off_c, 7, 52, 64
21, 82897, Note_on_c, 7, 56, 52
21, 82925, Note_off_c, 7, 54, 64
21, 83018, Note_on_c, 7, 58, 66
21, 83046, Note_off_c, 7, 56, 64
21, 83129, Note_off_c, 7, 58, 64
21, 83129, Note_on_c, 7, 59, 78
21, 83250, Note_on_c, 7, 61, 58
21, 83278, Note_off_c, 7, 59, 64
21, 83357, Note_on_c, 7, 58, 61
21, 83359, Note_off_c, 7, 61, 64
21, 83463, Note_off_c, 7, 58, 64
21, 83496, Note_on_c, 7, 59, 66
21, 83640, Note_off_c, 7, 59, 64
21, 83732, Note_on_c, 7, 55, 68
21, 83839, Note_off_c, 7, 55, 64
21, 83978, Note_on_c, 7, 52, 72
21, 84088, Note_off_c, 7, 52, 64
21, 84221, Note_on_c, 7, 54, 64
21, 84320, Note_off_c, 7, 54, 64
21, 84479, Note_on_c, 7, 47, 80
21, 84980, Note_off_c, 7, 47, 64
21, 85201, Note_on_c, 7, 54, 63
21, 85322, Note_off_c, 7, 54, 64
21, 85429, Note_on_c, 7, 59, 66
21, 85555, Note_on_c, 7, 57, 64
21, 85595, Note_off_c, 7, 59, 64
21, 85674, Note_on_c, 7, 59, 68
21, 85676, Note_off_c, 7, 57, 64
21, 85787, Note_on_c, 7, 60, 64
21, 85835, Note_off_c, 7, 59, 64
21, 85899, Note_off_c, 7, 60, 64
21, 85911, Note_on_c, 7, 59, 72
21, 86025, Note_on_c, 7, 57, 64
21, 86051, Note_off_c, 7, 59, 64
21, 86150, Note_off_c, 7, 57, 64
21, 86150, Note_on_c, 7, 55, 57
21, 86251, Note_on_c, 7, 54, 60
21, 86274, Note_off_c, 7, 55, 64
21, 86343, Note_off_c, 7, 54, 64
21, 86376, Note_on_c, 7, 55, 76
21, 86497, Note_on_c, 7, 57, 66
21, 86512, Note_off_c, 7, 55, 64
21, 86625, Note_on_c, 7, 55, 60
21, 86632, Note_off_c, 7, 57, 64
21, 86746, Note_on_c, 7, 54, 55
21, 86758, Note_off_c, 7, 55, 64
21, 86860, Note_on_c, 7, 52, 60
21, 86906, Note_off_c, 7, 54, 64
21, 86981, Note_on_c, 7, 50, 64
21, 86986, Note_off_c, 7, 52, 64
21, 87088, Note_on_c, 7, 48, 57
21, 87112, Note_off_c, 7, 50, 64
21, 87218, Note_on_c, 7, 47, 63
21, 87243, Note_off_c, 7, 48, 64
21, 87318, Note_off_c, 7, 47, 64
21, 87342, Note_on_c, 7, 45, 72
21, 87463, Note_on_c, 7, 47, 70
21, 87468, Note_off_c, 7, 45, 64
21, 87580, Note_on_c, 7, 48, 61
21, 87610, Note_off_c, 7, 47, 64
21, 87697, Note_on_c, 7, 45, 68
21, 87729, Note_off_c, 7, 48, 64
21, 87784, Note_off_c, 7, 45, 64
21, 87812, Note_on_c, 7, 42, 72
21, 87931, Note_on_c, 7, 43, 46
21, 87952, Note_off_c, 7, 42, 64
21, 88042, Note_off_c, 7, 43, 64
21, 88050, Note_on_c, 7, 45, 52
21, 88159, Note_off_c, 7, 45, 64
21, 88163, Note_on_c, 7, 42, 57
21, 88221, Note_off_c, 7, 42, 64
21, 88300, Note_on_c, 7, 47, 82
21, 88412, Note_off_c, 7, 47, 64
21, 88546, Note_on_c, 7, 54, 62
21, 88622, Note_off_c, 7, 54, 64
21, 88792, Note_on_c, 7, 59, 82
21, 88901, Note_on_c, 7, 61, 63
21, 88932, Note_off_c, 7, 59, 64
21, 89018, Note_off_c, 7, 61, 64
21, 89020, Note_on_c, 7, 63, 61
21, 89141, Note_on_c, 7, 59, 76
21, 89144, Note_off_c, 7, 63, 64
21, 89236, Note_off_c, 7, 59, 64
21, 89269, Note_on_c, 7, 64, 76
21, 89374, Note_on_c, 7, 57, 64
21, 89390, Note_off_c, 7, 64, 64
21, 89490, Note_on_c, 7, 56, 56
21, 89513, Note_off_c, 7, 57, 64
21, 89607, Note_on_c, 7, 54, 57
21, 89638, Note_off_c, 7, 56, 64
21, 89720, Note_on_c, 7, 52, 66
21, 89723, Note_off_c, 7, 54, 64
21, 89825, Note_on_c, 7, 50, 58
21, 89850, Note_off_c, 7, 52, 64
21, 89953, Note_on_c, 7, 48, 57
21, 89960, Note_off_c, 7, 50, 64
21, 90063, Note_off_c, 7, 48, 64
21, 90072, Note_on_c, 7, 47, 63
21, 90181, Note_off_c, 7, 47, 64
21, 90209, Note_on_c, 7, 45, 70
21, 90321, Note_on_c, 7, 55, 66
21, 90324, Note_off_c, 7, 45, 64
21, 90430, Note_on_c, 7, 54, 59
21, 90468, Note_off_c, 7, 55, 64
21, 90547, Note_on_c, 7, 52, 64
21, 90554, Note_off_c, 7, 54, 64
21, 90665, Note_off_c, 7, 52, 64
21, 90675, Note_on_c, 7, 51, 56
21, 90800, Note_on_c, 7, 52, 63
21, 90805, Note_off_c, 7, 51, 64
21, 90919, Note_on_c, 7, 54, 58
21, 90936, Note_off_c, 7, 52, 64
21, 91036, Note_on_c, 7, 51, 57
21, 91040, Note_off_c, 7, 54, 64
21, 91142, Note_off_c, 7, 51, 64
21, 91180, Note_on_c, 7, 52, 60
21, 91282, Note_off_c, 7, 52, 64
21, 91427, Note_on_c, 7, 48, 76
21, 91530, Note_off_c, 7, 48, 64
21, 91669, Note_on_c, 7, 45, 68
21, 91779, Note_off_c, 7, 45, 64
21, 91883, Note_on_c, 7, 47, 64
21, 91987, Note_off_c, 7, 47, 64
21, 92146, Note_on_c, 7, 40, 82
21, 92234, Note_off_c, 7, 40, 64
21, 92260, Note_on_c, 7, 47, 70
21, 92379, Note_on_c, 7, 49, 60
21, 92405, Note_off_c, 7, 47, 64
21, 92517, Note_on_c, 7, 51, 58
21, 92535, Note_off_c, 7, 49, 64
21, 92624, Note_off_c, 7, 51, 64
21, 92635, Note_on_c, 7, 52, 64
21, 92754, Note_on_c, 7, 54, 62
21, 92771, Note_off_c, 7, 52, 64
21, 92866, Note_off_c, 7, 54, 64
21, 92874, Note_on_c, 7, 55, 64
21, 92944, Note_off_c, 7, 55, 64
21, 92986, Note_on_c, 7, 52, 57
21, 93075, Note_off_c, 7, 52, 64
21, 93113, Note_on_c, 7, 57, 82
21, 93236, Note_on_c, 7, 59, 66
21, 93238, Note_off_c, 7, 57, 64
21, 93355, Note_on_c, 7, 61, 61
21, 93380, Note_off_c, 7, 59, 64
21, 93471, Note_on_c, 7, 59, 66
21, 93480, Note_off_c, 7, 61, 64
21, 93594, Note_on_c, 7, 57, 62
21, 93611, Note_off_c, 7, 59, 64
21, 93711, Note_off_c, 7, 57, 64
21, 93713, Note_on_c, 7, 55, 61
21, 93817, Note_on_c, 7, 54, 61
21, 93829, Note_off_c, 7, 55, 64
21, 93936, Note_on_c, 7, 52, 59
21, 93960, Note_off_c, 7, 54, 64
21, 94036, Note_off_c, 7, 52, 64
21, 94060, Note_on_c, 7, 50, 76
21, 94180, Note_on_c, 7, 52, 63
21, 94202, Note_off_c, 7, 50, 64
21, 94306, Note_on_c, 7, 54, 58
21, 94317, Note_off_c, 7, 52, 64
21, 94421, Note_on_c, 7, 52, 62
21, 94456, Note_off_c, 7, 54, 64
21, 94530, Note_on_c, 7, 50, 66
21, 94541, Note_off_c, 7, 52, 64
21, 94649, Note_on_c, 7, 49, 74
21, 94667, Note_off_c, 7, 50, 64
21, 94760, Note_on_c, 7, 47, 64
21, 94774, Note_off_c, 7, 49, 64
21, 94871, Note_on_c, 7, 50, 63
21, 94898, Note_off_c, 7, 47, 64
21, 94990, Note_off_c, 7, 50, 64
21, 95000, Note_on_c, 7, 49, 68
21, 95130, Note_off_c, 7, 49, 64
21, 95130, Note_on_c, 7, 54, 61
21, 95253, Note_on_c, 7, 52, 57
21, 95279, Note_off_c, 7, 54, 64
21, 95362, Note_off_c, 7, 52, 64
21, 95364, Note_on_c, 7, 50, 60
21, 95472, Note_off_c, 7, 50, 64
21, 95476, Note_on_c, 7, 49, 60
21, 95591, Note_on_c, 7, 47, 58
21, 95597, Note_off_c, 7, 49, 64
21, 95726, Note_on_c, 7, 46, 63
21, 95752, Note_off_c, 7, 47, 64
21, 95840, Note_off_c, 7, 46, 64
21, 95847, Note_on_c, 7, 47, 72
21, 95951, Note_off_c, 7, 47, 64
21, 95972, Note_on_c, 7, 42, 66
21, 96098, Note_off_c, 7, 42, 64
21, 96099, Note_on_c, 7, 55, 66
21, 96215, Note_on_c, 7, 54, 58
21, 96241, Note_off_c, 7, 55, 64
21, 96336, Note_on_c, 7, 52, 66
21, 96346, Note_off_c, 7, 54, 64
21, 96454, Note_off_c, 7, 52, 64
21, 96455, Note_on_c, 7, 50, 64
21, 96561, Note_on_c, 7, 49, 64
21, 96575, Note_off_c, 7, 50, 64
21, 96675, Note_off_c, 7, 49, 64
21, 96685, Note_on_c, 7, 50, 64
21, 96782, Note_off_c, 7, 50, 64
21, 96801, Note_on_c, 7, 47, 64
21, 96913, Note_off_c, 7, 47, 64
21, 96943, Note_on_c, 7, 52, 48
21, 97052, Note_on_c, 7, 54, 57
21, 97074, Note_off_c, 7, 52, 64
21, 97170, Note_on_c, 7, 55, 60
21, 97205, Note_off_c, 7, 54, 64
21, 97290, Note_on_c, 7, 52, 66
21, 97302, Note_off_c, 7, 55, 64
21, 97394, Note_off_c, 7, 52, 64
21, 97414, Note_on_c, 7, 49, 64
21, 97544, Note_on_c, 7, 50, 66
21, 97547, Note_off_c, 7, 49, 64
21, 97647, Note_off_c, 7, 50, 64
21, 97655, Note_on_c, 7, 52, 72
21, 97763, Note_on_c, 7, 49, 58
21, 97769, Note_off_c, 7, 52, 64
21, 97857, Note_off_c, 7, 49, 64
21, 97903, Note_on_c, 7, 50, 78
21, 98023, Note_on_c, 7, 52, 74
21, 98043, Note_off_c, 7, 50, 64
21, 98138, Note_on_c, 7, 54, 61
21, 98151, Note_off_c, 7, 52, 64
21, 98259, Note_on_c, 7, 56, 59
21, 98280, Note_off_c, 7, 54, 64
21, 98377, Note_on_c, 7, 58, 63
21, 98436, Note_off_c, 7, 56, 64
21, 98486, Note_off_c, 7, 58, 64
21, 98491, Note_on_c, 7, 59, 66
21, 98610, Note_off_c, 7, 59, 64
21, 98619, Note_on_c, 7, 61, 53
21, 98721, Note_off_c, 7, 61, 64
21, 98721, Note_on_c, 7, 58, 57
21, 98830, Note_off_c, 7, 58, 64
21, 98859, Note_on_c, 7, 59, 66
21, 98987, Note_off_c, 7, 59, 64
21, 99099, Note_on_c, 7, 55, 66
21, 99203, Note_off_c, 7, 55, 64
21, 99334, Note_on_c, 7, 52, 74
21, 99433, Note_off_c, 7, 52, 64
21, 99578, Note_on_c, 7, 54, 68
21, 99673, Note_off_c, 7, 54, 64
21, 99832, Note_on_c, 7, 47, 70
21, 100349, Note_off_c, 7, 47, 64
21, 115928, Note_on_c, 7, 45, 74
21, 116055, Note_off_c, 7, 45, 64
21, 116159, Note_on_c, 7, 57, 68
21, 116266, Note_off_c, 7, 57, 64
21, 116396, Note_on_c, 7, 57, 74
21, 116501, Note_off_c, 7, 57, 64
21, 116636, Note_on_c, 7, 57, 72
21, 116755, Note_off_c, 7, 57, 64
21, 116871, Note_on_c, 7, 45, 70
21, 116992, Note_off_c, 7, 45, 64
21, 117113, Note_on_c, 7, 57, 76
21, 117232, Note_off_c, 7, 57, 64
21, 117353, Note_on_c, 7, 55, 82
21, 117472, Note_off_c, 7, 55, 64
21, 117597, Note_on_c, 7, 54, 61
21, 117709, Note_off_c, 7, 54, 64
21, 117834, Note_on_c, 7, 52, 68
21, 117934, Note_off_c, 7, 52, 64
21, 118074, Note_on_c, 7, 50, 78
21, 118196, Note_off_c, 7, 50, 64
21, 118314, Note_on_c, 7, 47, 70
21, 118419, Note_off_c, 7, 47, 64
21, 118542, Note_on_c, 7, 50, 78
21, 118660, Note_off_c, 7, 50, 64
21, 118787, Note_on_c, 7, 54, 64
21, 118880, Note_off_c, 7, 54, 64
21, 119026, Note_on_c, 7, 59, 80
21, 119140, Note_off_c, 7, 59, 64
21, 119278, Note_on_c, 7, 45, 78
21, 119397, Note_off_c, 7, 45, 64
21, 119524, Note_on_c, 7, 43, 66
21, 119648, Note_off_c, 7, 43, 64
21, 119753, Note_on_c, 7, 42, 68
21, 119861, Note_off_c, 7, 42, 64
21, 119997, Note_on_c, 7, 40, 80
21, 120094, Note_off_c, 7, 40, 64
21, 120225, Note_on_c, 7, 52, 80
21, 120350, Note_off_c, 7, 52, 64
21, 120460, Note_on_c, 7, 50, 80
21, 120602, Note_off_c, 7, 50, 64
21, 120714, Note_on_c, 7, 49, 64
21, 120830, Note_off_c, 7, 49, 64
21, 120961, Note_on_c, 7, 54, 80
21, 121063, Note_off_c, 7, 54, 64
21, 121198, Note_on_c, 7, 42, 62
21, 121310, Note_off_c, 7, 42, 64
21, 121433, Note_on_c, 7, 44, 76
21, 121532, Note_off_c, 7, 44, 64
21, 121687, Note_on_c, 7, 46, 76
21, 121786, Note_off_c, 7, 46, 64
21, 121925, Note_on_c, 7, 38, 82
21, 122027, Note_off_c, 7, 38, 64
21, 122154, Note_on_c, 7, 43, 70
21, 122257, Note_off_c, 7, 43, 64
21, 122387, Note_on_c, 7, 42, 72
21, 122494, Note_off_c, 7, 42, 64
21, 122622, Note_on_c, 7, 54, 68
21, 122727, Note_off_c, 7, 54, 64
21, 122871, Note_on_c, 7, 59, 80
21, 122988, Note_off_c, 7, 59, 64
21, 123097, Note_on_c, 7, 54, 66
21, 123221, Note_off_c, 7, 54, 64
21, 123348, Note_on_c, 7, 50, 72
21, 123451, Note_off_c, 7, 50, 64
21, 123586, Note_on_c, 7, 54, 68
21, 123693, Note_off_c, 7, 54, 64
21, 123826, Note_on_c, 7, 47, 85
21, 123942, Note_off_c, 7, 47, 64
21, 124070, Note_on_c, 7, 59, 82
21, 124194, Note_off_c, 7, 59, 64
21, 124317, Note_on_c, 7, 57, 70
21, 124435, Note_off_c, 7, 57, 64
21, 124552, Note_on_c, 7, 55, 62
21, 124656, Note_off_c, 7, 55, 64
21, 124778, Note_on_c, 7, 54, 49
21, 124903, Note_off_c, 7, 54, 64
21, 125036, Note_on_c, 7, 42, 78
21, 125174, Note_off_c, 7, 42, 64
21, 125274, Note_on_c, 7, 40, 66
21, 125376, Note_off_c, 7, 40, 64
21, 125521, Note_on_c, 7, 38, 70
21, 125615, Note_off_c, 7, 38, 64
21, 125744, Note_on_c, 7, 43, 76
21, 125855, Note_off_c, 7, 43, 64
21, 125978, Note_on_c, 7, 54, 66
21, 126093, Note_off_c, 7, 54, 64
21, 126220, Note_on_c, 7, 52, 70
21, 126322, Note_off_c, 7, 52, 64
21, 126474, Note_on_c, 7, 50, 70
21, 126600, Note_off_c, 7, 50, 64
21, 126716, Note_on_c, 7, 57, 74
21, 126810, Note_off_c, 7, 57, 64
21, 126938, Note_on_c, 7, 49, 70
21, 127008, Note_off_c, 7, 49, 64
21, 127046, Note_on_c, 7, 47, 68
21, 127123, Note_off_c, 7, 47, 64
21, 127173, Note_on_c, 7, 45, 78
21, 127289, Note_off_c, 7, 45, 64
21, 127426, Note_on_c, 7, 43, 70
21, 127521, Note_off_c, 7, 43, 64
21, 127656, Note_on_c, 7, 42, 64
21, 127780, Note_off_c, 7, 42, 64
21, 127906, Note_on_c, 7, 54, 68
21, 128020, Note_off_c, 7, 54, 64
21, 128145, Note_on_c, 7, 55, 72
21, 128254, Note_off_c, 7, 55, 64
21, 128373, Note_on_c, 7, 57, 82
21, 128457, Note_off_c, 7, 57, 64
21, 128613, Note_on_c, 7, 55, 70
21, 128720, Note_off_c, 7, 55, 64
21, 128841, Note_on_c, 7, 52, 68
21, 128962, Note_off_c, 7, 52, 64
21, 129085, Note_on_c, 7, 49, 63
21, 129204, Note_off_c, 7, 49, 64
21, 129325, Note_on_c, 7, 45, 63
21, 129441, Note_off_c, 7, 45, 64
21, 129565, Note_on_c, 7, 50, 74
21, 129674, Note_off_c, 7, 50, 64
21, 129803, Note_on_c, 7, 55, 74
21, 129925, Note_off_c, 7, 55, 64
21, 130040, Note_on_c, 7, 57, 80
21, 130161, Note_off_c, 7, 57, 64
21, 130282, Note_on_c, 7, 45, 76
21, 130396, Note_off_c, 7, 45, 64
21, 130541, Note_on_c, 7, 50, 82
21, 130690, Note_off_c, 7, 50, 64
21, 130790, Note_on_c, 7, 54, 66
21, 130864, Note_off_c, 7, 54, 64
21, 130897, Note_on_c, 7, 57, 80
21, 130980, Note_off_c, 7, 57, 64
21, 131023, Note_on_c, 7, 62, 78
21, 131144, Note_off_c, 7, 62, 64
21, 131267, Note_on_c, 7, 45, 72
21, 131378, Note_off_c, 7, 45, 64
21, 131509, Note_on_c, 7, 57, 72
21, 131616, Note_off_c, 7, 57, 64
21, 131751, Note_on_c, 7, 57, 66
21, 131846, Note_off_c, 7, 57, 64
21, 131979, Note_on_c, 7, 57, 63
21, 132087, Note_off_c, 7, 57, 64
21, 132216, Note_on_c, 7, 45, 70
21, 132338, Note_off_c, 7, 45, 64
21, 132463, Note_on_c, 7, 57, 80
21, 132565, Note_off_c, 7, 57, 64
21, 132708, Note_on_c, 7, 55, 64
21, 132822, Note_off_c, 7, 55, 64
21, 132948, Note_on_c, 7, 54, 57
21, 133069, Note_off_c, 7, 54, 64
21, 133196, Note_on_c, 7, 52, 62
21, 133297, Note_off_c, 7, 52, 64
21, 133429, Note_on_c, 7, 50, 66
21, 133558, Note_off_c, 7, 50, 64
21, 133658, Note_on_c, 7, 47, 68
21, 133780, Note_off_c, 7, 47, 64
21, 133894, Note_on_c, 7, 50, 66
21, 134030, Note_off_c, 7, 50, 64
21, 134149, Note_on_c, 7, 54, 66
21, 134246, Note_off_c, 7, 54, 64
21, 134383, Note_on_c, 7, 59, 87
21, 134495, Note_off_c, 7, 59, 64
21, 134618, Note_on_c, 7, 45, 68
21, 134744, Note_off_c, 7, 45, 64
21, 134858, Note_on_c, 7, 43, 68
21, 134981, Note_off_c, 7, 43, 64
21, 135083, Note_on_c, 7, 42, 63
21, 135195, Note_off_c, 7, 42, 64
21, 135345, Note_on_c, 7, 40, 76
21, 135459, Note_off_c, 7, 40, 64
21, 135580, Note_on_c, 7, 52, 72
21, 135689, Note_off_c, 7, 52, 64
21, 135820, Note_on_c, 7, 50, 74
21, 135948, Note_off_c, 7, 50, 64
21, 136073, Note_on_c, 7, 49, 63
21, 136188, Note_off_c, 7, 49, 64
21, 136306, Note_on_c, 7, 54, 78
21, 136420, Note_off_c, 7, 54, 64
21, 136543, Note_on_c, 7, 42, 66
21, 136669, Note_off_c, 7, 42, 64
21, 136786, Note_on_c, 7, 44, 78
21, 136902, Note_off_c, 7, 44, 64
21, 137033, Note_on_c, 7, 46, 68
21, 137134, Note_off_c, 7, 46, 64
21, 137266, Note_on_c, 7, 38, 63
21, 137389, Note_off_c, 7, 38, 64
21, 137500, Note_on_c, 7, 43, 68
21, 137616, Note_off_c, 7, 43, 64
21, 137732, Note_on_c, 7, 42, 57
21, 137851, Note_off_c, 7, 42, 64
21, 137979, Note_on_c, 7, 54, 64
21, 138072, Note_off_c, 7, 54, 64
21, 138227, Note_on_c, 7, 59, 80
21, 138335, Note_off_c, 7, 59, 64
21, 138454, Note_on_c, 7, 54, 63
21, 138596, Note_off_c, 7, 54, 64
21, 138708, Note_on_c, 7, 50, 66
21, 138810, Note_off_c, 7, 50, 64
21, 138945, Note_on_c, 7, 54, 61
21, 139034, Note_off_c, 7, 54, 64
21, 139180, Note_on_c, 7, 47, 61
21, 139291, Note_off_c, 7, 47, 64
21, 139425, Note_on_c, 7, 59, 82
21, 139541, Note_off_c, 7, 59, 64
21, 139667, Note_on_c, 7, 57, 68
21, 139802, Note_off_c, 7, 57, 64
21, 139907, Note_on_c, 7, 55, 72
21, 140016, Note_off_c, 7, 55, 64
21, 140156, Note_on_c, 7, 54, 64
21, 140277, Note_off_c, 7, 54, 64
21, 140396, Note_on_c, 7, 42, 64
21, 140529, Note_off_c, 7, 42, 64
21, 140636, Note_on_c, 7, 40, 78
21, 140742, Note_off_c, 7, 40, 64
21, 140875, Note_on_c, 7, 38, 82
21, 140965, Note_off_c, 7, 38, 64
21, 141105, Note_on_c, 7, 43, 78
21, 141224, Note_off_c, 7, 43, 64
21, 141353, Note_on_c, 7, 54, 64
21, 141461, Note_off_c, 7, 54, 64
21, 141588, Note_on_c, 7, 52, 74
21, 141708, Note_off_c, 7, 52, 64
21, 141830, Note_on_c, 7, 50, 74
21, 141950, Note_off_c, 7, 50, 64
21, 142076, Note_on_c, 7, 57, 85
21, 142167, Note_off_c, 7, 57, 64
21, 142300, Note_on_c, 7, 49, 74
21, 142376, Note_off_c, 7, 49, 64
21, 142406, Note_on_c, 7, 47, 74
21, 142490, Note_off_c, 7, 47, 64
21, 142534, Note_on_c, 7, 45, 66
21, 142660, Note_off_c, 7, 45, 64
21, 142774, Note_on_c, 7, 43, 64
21, 142874, Note_off_c, 7, 43, 64
21, 143019, Note_on_c, 7, 42, 70
21, 143145, Note_off_c, 7, 42, 64
21, 143256, Note_on_c, 7, 54, 66
21, 143375, Note_off_c, 7, 54, 64
21, 143500, Note_on_c, 7, 55, 70
21, 143612, Note_off_c, 7, 55, 64
21, 143744, Note_on_c, 7, 57, 80
21, 143824, Note_off_c, 7, 57, 64
21, 143976, Note_on_c, 7, 55, 72
21, 144089, Note_off_c, 7, 55, 64
21, 144212, Note_on_c, 7, 52, 64
21, 144329, Note_off_c, 7, 52, 64
21, 144453, Note_on_c, 7, 49, 60
21, 144563, Note_off_c, 7, 49, 64
21, 144699, Note_on_c, 7, 45, 78
21, 144804, Note_off_c, 7, 45, 64
21, 144939, Note_on_c, 7, 50, 68
21, 145041, Note_off_c, 7, 50, 64
21, 145177, Note_on_c, 7, 55, 68
21, 145283, Note_off_c, 7, 55, 64
21, 145418, Note_on_c, 7, 57, 76
21, 145528, Note_off_c, 7, 57, 64
21, 145656, Note_on_c, 7, 45, 74
21, 145755, Note_off_c, 7, 45, 64
21, 145895, Note_on_c, 7, 50, 76
21, 146021, Note_off_c, 7, 50, 64
21, 146135, Note_on_c, 7, 54, 63
21, 146221, Note_off_c, 7, 54, 64
21, 146254, Note_on_c, 7, 57, 85
21, 146332, Note_off_c, 7, 57, 64
21, 146384, Note_on_c, 7, 62, 80
21, 146489, Note_off_c, 7, 62, 64
21, 146489, End_track
22, 0, Start_track
22, 0, Title_t, "Violin"
22, 0, Program_c, 8, 40
22, 0, Control_c, 8, 7, 100
22, 16082, Note_on_c, 8, 73, 82
22, 16176, Note_off_c, 8, 73, 64
22, 16186, Note_on_c, 8, 74, 82
22, 16281, Note_off_c, 8, 74, 64
22, 16306, Note_on_c, 8, 76, 85
22, 16402, Note_off_c, 8, 76, 64
22, 16414, Note_on_c, 8, 74, 85
22, 16533, Note_on_c, 8, 76, 80
22, 16535, Note_off_c, 8, 74, 64
22, 16648, Note_off_c, 8, 76, 64
22, 16653, Note_on_c, 8, 81, 85
22, 16746, Note_off_c, 8, 81, 64
22, 16774, Note_on_c, 8, 76, 82
22, 16877, Note_off_c, 8, 76, 64
22, 16886, Note_on_c, 8, 74, 78
22, 16988, Note_off_c, 8, 74, 64
22, 17007, Note_on_c, 8, 73, 62
22, 17117, Note_on_c, 8, 74, 82
22, 17123, Note_off_c, 8, 73, 64
22, 17226, Note_off_c, 8, 74, 64
22, 17249, Note_on_c, 8, 76, 85
22, 17349, Note_off_c, 8, 76, 64
22, 17496, Note_on_c, 8, 69, 82
22, 17854, Note_off_c, 8, 69, 64
22, 17981, Note_on_c, 8, 74, 95
22, 18089, Note_on_c, 8, 76, 85
22, 18099, Note_off_c, 8, 74, 64
22, 18194, Note_off_c, 8, 76, 64
22, 18211, Note_on_c, 8, 78, 85
22, 18320, Note_off_c, 8, 78, 64
22, 18324, Note_on_c, 8, 76, 72
22, 18441, Note_on_c, 8, 78, 66
22, 18465, Note_off_c, 8, 76, 64
22, 18545, Note_off_c, 8, 78, 64
22, 18557, Note_on_c, 8, 83, 80
22, 18671, Note_off_c, 8, 83, 64
22, 18681, Note_on_c, 8, 78, 66
22, 18785, Note_off_c, 8, 78, 64
22, 18797, Note_on_c, 8, 76, 74
22, 18899, Note_off_c, 8, 76, 64
22, 18918, Note_on_c, 8, 74, 72
22, 19030, Note_off_c, 8, 74, 64
22, 19034, Note_on_c, 8, 76, 78
22, 19115, Note_off_c, 8, 76, 64
22, 19162, Note_on_c, 8, 78, 85
22, 19274, Note_off_c, 8, 78, 64
22, 19405, Note_on_c, 8, 71, 85
22, 19772, Note_off_c, 8, 71, 64
22, 19906, Note_on_c, 8, 83, 87
22, 19998, Note_off_c, 8, 83, 64
22, 20015, Note_on_c, 8, 81, 80
22, 20091, Note_off_c, 8, 81, 64
22, 20133, Note_on_c, 8, 79, 87
22, 20235, Note_off_c, 8, 79, 64
22, 20390, Note_on_c, 8, 73, 85
22, 20779, Note_off_c, 8, 73, 64
22, 20864, Note_on_c, 8, 74, 87
22, 20954, Note_off_c, 8, 74, 64
22, 20971, Note_on_c, 8, 76, 82
22, 21076, Note_off_c, 8, 76, 64
22, 21113, Note_on_c, 8, 70, 87
22, 21221, Note_off_c, 8, 70, 64
22, 21353, Note_on_c, 8, 76, 87
22, 21745, Note_off_c, 8, 76, 64
22, 21821, Note_on_c, 8, 78, 87
22, 21906, Note_off_c, 8, 78, 64
22, 21927, Note_on_c, 8, 79, 72
22, 22011, Note_off_c, 8, 79, 64
22, 22047, Note_on_c, 8, 78, 98
22, 22137, Note_off_c, 8, 78, 64
22, 22156, Note_on_c, 8, 74, 78
22, 22234, Note_off_c, 8, 74, 64
22, 22281, Note_on_c, 8, 76, 82
22, 22390, Note_off_c, 8, 76, 64
22, 22526, Note_on_c, 8, 74, 82
22, 22626, Note_off_c, 8, 74, 64
22, 22630, Note_on_c, 8, 71, 72
22, 22716, Note_off_c, 8, 71, 64
22, 22758, Note_on_c, 8, 73, 78
22, 22867, Note_off_c, 8, 73, 64
22, 23012, Note_on_c, 8, 71, 85
22, 23530, Note_off_c, 8, 71, 64
22, 23753, Note_on_c, 8, 66, 93
22, 23841, Note_off_c, 8, 66, 64
22, 23857, Note_on_c, 8, 64, 82
22, 23940, Note_off_c, 8, 64, 64
22, 23979, Note_on_c, 8, 66, 80
22, 24114, Note_off_c, 8, 66, 64
22, 24225, Note_on_c, 8, 67, 82
22, 24382, Note_off_c, 8, 67, 64
22, 24472, Note_on_c, 8, 67, 95
22, 24576, Note_on_c, 8, 66, 82
22, 24589, Note_off_c, 8, 67, 64
22, 24679, Note_off_c, 8, 66, 64
22, 24696, Note_on_c, 8, 64, 68
22, 24798, Note_off_c, 8, 64, 64
22, 24816, Note_on_c, 8, 62, 70
22, 24937, Note_off_c, 8, 62, 64
22, 24945, Note_on_c, 8, 69, 87
22, 25049, Note_on_c, 8, 71, 87
22, 25056, Note_off_c, 8, 69, 64
22, 25139, Note_off_c, 8, 71, 64
22, 25180, Note_on_c, 8, 72, 85
22, 25694, Note_off_c, 8, 72, 64
22, 27112, Note_on_c, 8, 69, 85
22, 27199, Note_on_c, 8, 73, 68
22, 27230, Note_off_c, 8, 69, 64
22, 27302, Note_off_c, 8, 73, 64
22, 27328, Note_on_c, 8, 76, 82
22, 27454, Note_off_c, 8, 76, 64
22, 27571, Note_on_c, 8, 78, 63
22, 27666, Note_off_c, 8, 78, 64
22, 27666, Note_on_c, 8, 79, 82
22, 27779, Note_off_c, 8, 79, 64
22, 27812, Note_on_c, 8, 81, 91
22, 27914, Note_on_c, 8, 79, 89
22, 27920, Note_off_c, 8, 81, 64
22, 28007, Note_off_c, 8, 79, 64
22, 28038, Note_on_c, 8, 81, 85
22, 28147, Note_off_c, 8, 81, 64
22, 28152, Note_on_c, 8, 84, 89
22, 28268, Note_on_c, 8, 83, 76
22, 28284, Note_off_c, 8, 84, 64
22, 28368, Note_off_c, 8, 83, 64
22, 28382, Note_on_c, 8, 81, 80
22, 28498, Note_off_c, 8, 81, 64
22, 28508, Note_on_c, 8, 79, 76
22, 28619, Note_on_c, 8, 78, 80
22, 28640, Note_off_c, 8, 79, 64
22, 28711, Note_off_c, 8, 78, 64
22, 28745, Note_on_c, 8, 76, 89
22, 28859, Note_on_c, 8, 78, 89
22, 28864, Note_off_c, 8, 76, 64
22, 28959, Note_off_c, 8, 78, 64
22, 28997, Note_on_c, 8, 79, 87
22, 29400, Note_off_c, 8, 79, 64
22, 29466, Note_on_c, 8, 78, 89
22, 29545, Note_off_c, 8, 78, 64
22, 29573, Note_on_c, 8, 76, 80
22, 29680, Note_off_c, 8, 76, 64
22, 29699, Note_on_c, 8, 78, 72
22, 29794, Note_off_c, 8, 78, 64
22, 29822, Note_on_c, 8, 74, 80
22, 29927, Note_off_c, 8, 74, 64
22, 29958, Note_on_c, 8, 76, 85
22, 30060, Note_off_c, 8, 76, 64
22, 30216, Note_on_c, 8, 69, 89
22, 30306, Note_off_c, 8, 69, 64
22, 30461, Note_on_c, 8, 73, 87
22, 30561, Note_off_c, 8, 73, 64
22, 30715, Note_on_c, 8, 74, 89
22, 31211, Note_off_c, 8, 74, 64
22, 31431, Note_on_c, 8, 73, 93
22, 31546, Note_off_c, 8, 73, 64
22, 31548, Note_on_c, 8, 74, 80
22, 31655, Note_off_c, 8, 74, 64
22, 31670, Note_on_c, 8, 76, 87
22, 31781, Note_on_c, 8, 74, 85
22, 31783, Note_off_c, 8, 76, 64
22, 31890, Note_off_c, 8, 74, 64
22, 31899, Note_on_c, 8, 76, 80
22, 32008, Note_off_c, 8, 76, 64
22, 32013, Note_on_c, 8, 81, 85
22, 32134, Note_on_c, 8, 76, 76
22, 32139, Note_off_c, 8, 81, 64
22, 32241, Note_off_c, 8, 76, 64
22, 32243, Note_on_c, 8, 74, 80
22, 32341, Note_off_c, 8, 74, 64
22, 32366, Note_on_c, 8, 73, 64
22, 32448, Note_off_c, 8, 73, 64
22, 32478, Note_on_c, 8, 74, 87
22, 32580, Note_off_c, 8, 74, 64
22, 32607, Note_on_c, 8, 76, 85
22, 32701, Note_off_c, 8, 76, 64
22, 32854, Note_on_c, 8, 69, 78
22, 33193, Note_off_c, 8, 69, 64
22, 33336, Note_on_c, 8, 74, 80
22, 33444, Note_on_c, 8, 76, 70
22, 33464, Note_off_c, 8, 74, 64
22, 33556, Note_off_c, 8, 76, 64
22, 33575, Note_on_c, 8, 78, 76
22, 33675, Note_off_c, 8, 78, 64
22, 33682, Note_on_c, 8, 76, 78
22, 33808, Note_on_c, 8, 78, 64
22, 33827, Note_off_c, 8, 76, 64
22, 33903, Note_off_c, 8, 78, 64
22, 33921, Note_on_c, 8, 83, 76
22, 34017, Note_off_c, 8, 83, 64
22, 34038, Note_on_c, 8, 78, 66
22, 34140, Note_off_c, 8, 78, 64
22, 34150, Note_on_c, 8, 76, 78
22, 34277, Note_on_c, 8, 74, 80
22, 34283, Note_off_c, 8, 76, 64
22, 34372, Note_off_c, 8, 74, 64
22, 34390, Note_on_c, 8, 76, 74
22, 34493, Note_off_c, 8, 76, 64
22, 34522, Note_on_c, 8, 78, 82
22, 34627, Note_off_c, 8, 78, 64
22, 34774, Note_on_c, 8, 71, 82
22, 35116, Note_off_c, 8, 71, 64
22, 35274, Note_on_c, 8, 83, 89
22, 35353, Note_off_c, 8, 83, 64
22, 35374, Note_on_c, 8, 81, 85
22, 35457, Note_off_c, 8, 81, 64
22, 35498, Note_on_c, 8, 79, 91
22, 35600, Note_off_c, 8, 79, 64
22, 35740, Note_on_c, 8, 73, 82
22, 36174, Note_off_c, 8, 73, 64
22, 36214, Note_on_c, 8, 74, 87
22, 36307, Note_off_c, 8, 74, 64
22, 36317, Note_on_c, 8, 76, 82
22, 36419, Note_off_c, 8, 76, 64
22, 36450, Note_on_c, 8, 70, 80
22, 36575, Note_off_c, 8, 70, 64
22, 36697, Note_on_c, 8, 76, 89
22, 37097, Note_off_c, 8, 76, 64
22, 37169, Note_on_c, 8, 78, 87
22, 37254, Note_off_c, 8, 78, 64
22, 37282, Note_on_c, 8, 79, 78
22, 37359, Note_off_c, 8, 79, 64
22, 37399, Note_on_c, 8, 78, 98
22, 37503, Note_off_c, 8, 78, 64
22, 37504, Note_on_c, 8, 74, 85
22, 37610, Note_off_c, 8, 74, 64
22, 37634, Note_on_c, 8, 76, 85
22, 37792, Note_off_c, 8, 76, 64
22, 37885, Note_on_c, 8, 74, 80
22, 37988, Note_off_c, 8, 74, 64
22, 37995, Note_on_c, 8, 71, 66
22, 38095, Note_off_c, 8, 71, 64
22, 38123, Note_on_c, 8, 73, 72
22, 38239, Note_off_c, 8, 73, 64
22, 38372, Note_on_c, 8, 71, 85
22, 38887, Note_off_c, 8, 71, 64
22, 39094, Note_on_c, 8, 66, 82
22, 39200, Note_off_c, 8, 66, 64
22, 39207, Note_on_c, 8, 64, 82
22, 39302, Note_off_c, 8, 64, 64
22, 39338, Note_on_c, 8, 66, 85
22, 39471, Note_off_c, 8, 66, 64
22, 39583, Note_on_c, 8, 67, 80
22, 39730, Note_off_c, 8, 67, 64
22, 39827, Note_on_c, 8, 67, 91
22, 39939, Note_on_c, 8, 66, 80
22, 39950, Note_off_c, 8, 67, 64
22, 40036, Note_off_c, 8, 66, 64
22, 40060, Note_on_c, 8, 64, 80
22, 40153, Note_off_c, 8, 64, 64
22, 40171, Note_on_c, 8, 62, 66
22, 40280, Note_off_c, 8, 62, 64
22, 40300, Note_on_c, 8, 69, 82
22, 40407, Note_off_c, 8, 69, 64
22, 40414, Note_on_c, 8, 71, 82
22, 40501, Note_off_c, 8, 71, 64
22, 40541, Note_on_c, 8, 72, 82
22, 41049, Note_off_c, 8, 72, 64
22, 42485, Note_on_c, 8, 69, 91
22, 42580, Note_on_c, 8, 73, 76
22, 42604, Note_off_c, 8, 69, 64
22, 42682, Note_off_c, 8, 73, 64
22, 42707, Note_on_c, 8, 76, 87
22, 42820, Note_off_c, 8, 76, 64
22, 42939, Note_on_c, 8, 78, 80
22, 43039, Note_off_c, 8, 78, 64
22, 43044, Note_on_c, 8, 79, 87
22, 43145, Note_off_c, 8, 79, 64
22, 43172, Note_on_c, 8, 81, 89
22, 43285, Note_on_c, 8, 79, 87
22, 43305, Note_off_c, 8, 81, 64
22, 43381, Note_off_c, 8, 79, 64
22, 43399, Note_on_c, 8, 81, 80
22, 43509, Note_off_c, 8, 81, 64
22, 43516, Note_on_c, 8, 84, 95
22, 43616, Note_off_c, 8, 84, 64
22, 43632, Note_on_c, 8, 83, 78
22, 43734, Note_off_c, 8, 83, 64
22, 43751, Note_on_c, 8, 81, 80
22, 43857, Note_off_c, 8, 81, 64
22, 43872, Note_on_c, 8, 79, 80
22, 43981, Note_on_c, 8, 78, 72
22, 44000, Note_off_c, 8, 79, 64
22, 44083, Note_off_c, 8, 78, 64
22, 44112, Note_on_c, 8, 76, 93
22, 44225, Note_off_c, 8, 76, 64
22, 44228, Note_on_c, 8, 78, 89
22, 44330, Note_off_c, 8, 78, 64
22, 44358, Note_on_c, 8, 79, 85
22, 44800, Note_off_c, 8, 79, 64
22, 44859, Note_on_c, 8, 78, 89
22, 44949, Note_off_c, 8, 78, 64
22, 44968, Note_on_c, 8, 76, 72
22, 45056, Note_off_c, 8, 76, 64
22, 45082, Note_on_c, 8, 78, 85
22, 45177, Note_off_c, 8, 78, 64
22, 45196, Note_on_c, 8, 74, 78
22, 45299, Note_off_c, 8, 74, 64
22, 45325, Note_on_c, 8, 76, 87
22, 45434, Note_off_c, 8, 76, 64
22, 45578, Note_on_c, 8, 69, 89
22, 45674, Note_off_c, 8, 69, 64
22, 45826, Note_on_c, 8, 73, 80
22, 45927, Note_off_c, 8, 73, 64
22, 46067, Note_on_c, 8, 74, 85
22, 46666, Note_off_c, 8, 74, 64
22, 70307, Note_on_c, 8, 66, 62
22, 70373, Note_on_c, 8, 64, 58
22, 70404, Note_off_c, 8, 66, 64
22, 70413, Note_on_c, 8, 63, 60
22, 70442, Note_off_c, 8, 64, 64
22, 70477, Note_on_c, 8, 64, 62
22, 70511, Note_off_c, 8, 63, 64
22, 70554, Note_on_c, 8, 66, 60
22, 70579, Note_off_c, 8, 64, 64
22, 70850, Note_off_c, 8, 66, 64
22, 71280, Note_on_c, 8, 59, 72
22, 71334, Note_on_c, 8, 57, 62
22, 71361, Note_off_c, 8, 59, 64
22, 71392, Note_on_c, 8, 55, 68
22, 71405, Note_off_c, 8, 57, 64
22, 71451, Note_on_c, 8, 57, 60
22, 71470, Note_off_c, 8, 55, 64
22, 71510, Note_on_c, 8, 59, 68
22, 71527, Note_off_c, 8, 57, 64
22, 71814, Note_off_c, 8, 59, 64
22, 73177, Note_on_c, 8, 66, 60
22, 73233, Note_on_c, 8, 64, 66
22, 73271, Note_off_c, 8, 66, 64
22, 73297, Note_on_c, 8, 63, 57
22, 73311, Note_off_c, 8, 64, 64
22, 73350, Note_on_c, 8, 64, 74
22, 73380, Note_off_c, 8, 63, 64
22, 73420, Note_on_c, 8, 66, 60
22, 73440, Note_off_c, 8, 64, 64
22, 73727, Note_off_c, 8, 66, 64
22, 74138, Note_on_c, 8, 59, 66
22, 74190, Note_on_c, 8, 57, 68
22, 74221, Note_off_c, 8, 59, 64
22, 74264, Note_on_c, 8, 56, 74
22, 74276, Note_off_c, 8, 57, 64
22, 74304, Note_on_c, 8, 57, 62
22, 74335, Note_off_c, 8, 56, 64
22, 74387, Note_on_c, 8, 59, 68
22, 74394, Note_off_c, 8, 57, 64
22, 74698, Note_off_c, 8, 59, 64
22, 75096, Note_on_c, 8, 66, 66
22, 75153, Note_on_c, 8, 64, 64
22, 75191, Note_off_c, 8, 66, 64
22, 75220, Note_on_c, 8, 63, 59
22, 75237, Note_off_c, 8, 64, 64
22, 75286, Note_on_c, 8, 64, 78
22, 75306, Note_off_c, 8, 63, 64
22, 75346, Note_on_c, 8, 66, 64
22, 75370, Note_off_c, 8, 64, 64
22, 75638, Note_off_c, 8, 66, 64
22, 77033, Note_on_c, 8, 67, 68
22, 77079, Note_on_c, 8, 66, 56
22, 77114, Note_off_c, 8, 67, 64
22, 77147, Note_on_c, 8, 64, 63
22, 77159, Note_off_c, 8, 66, 64
22, 77209, Note_on_c, 8, 66, 60
22, 77235, Note_off_c, 8, 64, 64
22, 77276, Note_on_c, 8, 67, 60
22, 77283, Note_off_c, 8, 66, 64
22, 77565, Note_off_c, 8, 67, 64
22, 78002, Note_on_c, 8, 67, 70
22, 78052, Note_on_c, 8, 66, 57
22, 78090, Note_off_c, 8, 67, 64
22, 78116, Note_on_c, 8, 64, 66
22, 78125, Note_off_c, 8, 66, 64
22, 78173, Note_on_c, 8, 66, 58
22, 78200, Note_off_c, 8, 64, 64
22, 78227, Note_on_c, 8, 67, 56
22, 78239, Note_off_c, 8, 66, 64
22, 78514, Note_off_c, 8, 67, 64
22, 78937, Note_on_c, 8, 66, 63
22, 78994, Note_on_c, 8, 64, 60
22, 79028, Note_off_c, 8, 66, 64
22, 79051, Note_on_c, 8, 62, 63
22, 79063, Note_off_c, 8, 64, 64
22, 79115, Note_on_c, 8, 64, 60
22, 79129, Note_off_c, 8, 62, 64
22, 79167, Note_on_c, 8, 66, 60
22, 79187, Note_off_c, 8, 64, 64
22, 79479, Note_off_c, 8, 66, 64
22, 80843, Note_on_c, 8, 66, 58
22, 80890, Note_on_c, 8, 64, 59
22, 80921, Note_off_c, 8, 66, 64
22, 80950, Note_on_c, 8, 62, 60
22, 80964, Note_off_c, 8, 64, 64
22, 81017, Note_on_c, 8, 64, 58
22, 81042, Note_off_c, 8, 62, 64
22, 81071, Note_on_c, 8, 66, 60
22, 81088, Note_off_c, 8, 64, 64
22, 81387, Note_off_c, 8, 66, 64
22, 81830, Note_on_c, 8, 64, 68
22, 81901, Note_on_c, 8, 62, 60
22, 81930, Note_on_c, 8, 61, 63
22, 81935, Note_off_c, 8, 64, 64
22, 81957, Note_off_c, 8, 62, 64
22, 82001, Note_on_c, 8, 62, 74
22, 82009, Note_off_c, 8, 61, 64
22, 82065, Note_on_c, 8, 64, 64
22, 82084, Note_off_c, 8, 62, 64
22, 82344, Note_off_c, 8, 64, 64
22, 82761, Note_on_c, 8, 61, 59
22, 82821, Note_on_c, 8, 59, 53
22, 82853, Note_on_c, 8, 58, 57
22, 82865, Note_off_c, 8, 61, 64
22, 82883, Note_off_c, 8, 59, 64
22, 82930, Note_on_c, 8, 59, 66
22, 82949, Note_off_c, 8, 58, 64
22, 83006, Note_on_c, 8, 61, 61
22, 83024, Note_off_c, 8, 59, 64
22, 83298, Note_off_c, 8, 61, 64
22, 84705, Note_on_c, 8, 62, 63
22, 84753, Note_on_c, 8, 61, 60
22, 84784, Note_off_c, 8, 62, 64
22, 84805, Note_on_c, 8, 59, 61
22, 84819, Note_off_c, 8, 61, 64
22, 84869, Note_on_c, 8, 61, 59
22, 84897, Note_off_c, 8, 59, 64
22, 84928, Note_on_c, 8, 62, 60
22, 84936, Note_off_c, 8, 61, 64
22, 85213, Note_off_c, 8, 62, 64
22, 85652, Note_on_c, 8, 66, 62
22, 85712, Note_on_c, 8, 64, 61
22, 85752, Note_off_c, 8, 66, 64
22, 85780, Note_on_c, 8, 63, 57
22, 85791, Note_off_c, 8, 64, 64
22, 85828, Note_on_c, 8, 64, 63
22, 85854, Note_off_c, 8, 63, 64
22, 85894, Note_on_c, 8, 66, 60
22, 85911, Note_off_c, 8, 64, 64
22, 86204, Note_off_c, 8, 66, 64
22, 86623, Note_on_c, 8, 59, 63
22, 86677, Note_on_c, 8, 57, 57
22, 86715, Note_off_c, 8, 59, 64
22, 86739, Note_on_c, 8, 55, 62
22, 86744, Note_off_c, 8, 57, 64
22, 86798, Note_on_c, 8, 57, 64
22, 86820, Note_off_c, 8, 55, 64
22, 86861, Note_on_c, 8, 59, 61
22, 86875, Note_off_c, 8, 57, 64
22, 87193, Note_off_c, 8, 59, 64
22, 88545, Note_on_c, 8, 66, 64
22, 88598, Note_on_c, 8, 64, 66
22, 88631, Note_off_c, 8, 66, 64
22, 88652, Note_on_c, 8, 63, 56
22, 88666, Note_off_c, 8, 64, 64
22, 88710, Note_on_c, 8, 64, 63
22, 88729, Note_off_c, 8, 63, 64
22, 88764, Note_on_c, 8, 66, 61
22, 88793, Note_off_c, 8, 64, 64
22, 89075, Note_off_c, 8, 66, 64
22, 89485, Note_on_c, 8, 59, 72
22, 89547, Note_on_c, 8, 57, 62
22, 89576, Note_off_c, 8, 59, 64
22, 89619, Note_on_c, 8, 56, 76
22, 89692, Note_off_c, 8, 56, 64
22, 89752, Note_on_c, 8, 59, 60
22, 89766, Note_off_c, 8, 57, 64
22, 90039, Note_off_c, 8, 59, 64
22, 90461, Note_on_c, 8, 66, 64
22, 90520, Note_on_c, 8, 64, 62
22, 90577, Note_off_c, 8, 66, 64
22, 90594, Note_on_c, 8, 63, 60
22, 90608, Note_off_c, 8, 64, 64
22, 90654, Note_on_c, 8, 64, 59
22, 90715, Note_on_c, 8, 66, 56
22, 90736, Note_off_c, 8, 63, 64
22, 90741, Note_off_c, 8, 64, 64
22, 91024, Note_off_c, 8, 66, 64
22, 92391, Note_on_c, 8, 67, 72
22, 92445, Note_on_c, 8, 66, 59
22, 92476, Note_off_c, 8, 67, 64
22, 92498, Note_on_c, 8, 64, 66
22, 92512, Note_off_c, 8, 66, 64
22, 92557, Note_on_c, 8, 66, 60
22, 92590, Note_off_c, 8, 64, 64
22, 92624, Note_on_c, 8, 67, 60
22, 92643, Note_off_c, 8, 66, 64
22, 92915, Note_off_c, 8, 67, 64
22, 93341, Note_on_c, 8, 67, 66
22, 93393, Note_on_c, 8, 66, 59
22, 93431, Note_off_c, 8, 67, 64
22, 93459, Note_on_c, 8, 64, 62
22, 93461, Note_off_c, 8, 66, 64
22, 93513, Note_on_c, 8, 66, 60
22, 93549, Note_off_c, 8, 64, 64
22, 93573, Note_on_c, 8, 67, 58
22, 93590, Note_off_c, 8, 66, 64
22, 93881, Note_off_c, 8, 67, 64
22, 94285, Note_on_c, 8, 66, 59
22, 94340, Note_on_c, 8, 64, 59
22, 94378, Note_off_c, 8, 66, 64
22, 94394, Note_on_c, 8, 62, 59
22, 94408, Note_off_c, 8, 64, 64
22, 94458, Note_on_c, 8, 64, 64
22, 94479, Note_off_c, 8, 62, 64
22, 94523, Note_on_c, 8, 66, 60
22, 94546, Note_off_c, 8, 64, 64
22, 94845, Note_off_c, 8, 66, 64
22, 96200, Note_on_c, 8, 66, 59
22, 96248, Note_on_c, 8, 64, 58
22, 96286, Note_off_c, 8, 66, 64
22, 96300, Note_on_c, 8, 62, 60
22, 96314, Note_off_c, 8, 64, 64
22, 96367, Note_on_c, 8, 64, 61
22, 96390, Note_off_c, 8, 62, 64
22, 96435, Note_on_c, 8, 66, 58
22, 96461, Note_off_c, 8, 64, 64
22, 96775, Note_off_c, 8, 66, 64
22, 97186, Note_on_c, 8, 64, 62
22, 97243, Note_on_c, 8, 62, 68
22, 97276, Note_off_c, 8, 64, 64
22, 97281, Note_on_c, 8, 61, 49
22, 97307, Note_off_c, 8, 62, 64
22, 97356, Note_on_c, 8, 62, 70
22, 97364, Note_off_c, 8, 61, 64
22, 97437, Note_on_c, 8, 64, 58
22, 97451, Note_off_c, 8, 62, 64
22, 97719, Note_off_c, 8, 64, 64
22, 98126, Note_on_c, 8, 61, 60
22, 98185, Note_on_c, 8, 59, 68
22, 98216, Note_off_c, 8, 61, 64
22, 98249, Note_on_c, 8, 58, 57
22, 98260, Note_off_c, 8, 59, 64
22, 98304, Note_on_c, 8, 59, 70
22, 98334, Note_off_c, 8, 58, 64
22, 98376, Note_on_c, 8, 61, 61
22, 98406, Note_off_c, 8, 59, 64
22, 98697, Note_off_c, 8, 61, 64
22, 100062, Note_on_c, 8, 62, 64
22, 100108, Note_on_c, 8, 61, 61
22, 100145, Note_off_c, 8, 62, 64
22, 100172, Note_on_c, 8, 59, 60
22, 100174, Note_off_c, 8, 61, 64
22, 100228, Note_on_c, 8, 61, 63
22, 100266, Note_off_c, 8, 59, 64
22, 100293, Note_on_c, 8, 62, 58
22, 100305, Note_off_c, 8, 61, 64
22, 100571, Note_off_c, 8, 62, 64
22, 115922, Note_on_c, 8, 73, 82
22, 116016, Note_off_c, 8, 73, 64
22, 116026, Note_on_c, 8, 74, 82
22, 116121, Note_off_c, 8, 74, 64
22, 116146, Note_on_c, 8, 76, 85
22, 116242, Note_off_c, 8, 76, 64
22, 116254, Note_on_c, 8, 74, 85
22, 116373, Note_on_c, 8, 76, 80
22, 116375, Note_off_c, 8, 74, 64
22, 116488, Note_off_c, 8, 76, 64
22, 116493, Note_on_c, 8, 81, 85
22, 116586, Note_off_c, 8, 81, 64
22, 116614, Note_on_c, 8, 76, 82
22, 116717, Note_off_c, 8, 76, 64
22, 116726, Note_on_c, 8, 74, 78
22, 116828, Note_off_c, 8, 74, 64
22, 116847, Note_on_c, 8, 73, 62
22, 116957, Note_on_c, 8, 74, 82
22, 116963, Note_off_c, 8, 73, 64
22, 117066, Note_off_c, 8, 74, 64
22, 117089, Note_on_c, 8, 76, 85
22, 117189, Note_off_c, 8, 76, 64
22, 117336, Note_on_c, 8, 69, 82
22, 117694, Note_off_c, 8, 69, 64
22, 117821, Note_on_c, 8, 74, 95
22, 117929, Note_on_c, 8, 76, 85
22, 117939, Note_off_c, 8, 74, 64
22, 118034, Note_off_c, 8, 76, 64
22, 118051, Note_on_c, 8, 78, 85
22, 118160, Note_off_c, 8, 78, 64
22, 118164, Note_on_c, 8, 76, 72
22, 118281, Note_on_c, 8, 78, 66
22, 118305, Note_off_c, 8, 76, 64
22, 118385, Note_off_c, 8, 78, 64
22, 118397, Note_on_c, 8, 83, 80
22, 118511, Note_off_c, 8, 83, 64
22, 118521, Note_on_c, 8, 78, 66
22, 118625, Note_off_c, 8, 78, 64
22, 118637, Note_on_c, 8, 76, 74
22, 118739, Note_off_c, 8, 76, 64
22, 118758, Note_on_c, 8, 74, 72
22, 118870, Note_off_c, 8, 74, 64
22, 118874, Note_on_c, 8, 76, 78
22, 118955, Note_off_c, 8, 76, 64
22, 119002, Note_on_c, 8, 78, 85
22, 119114, Note_off_c, 8, 78, 64
22, 119245, Note_on_c, 8, 71, 85
22, 119612, Note_off_c, 8, 71, 64
22, 119746, Note_on_c, 8, 83, 87
22, 119838, Note_off_c, 8, 83, 64
22, 119855, Note_on_c, 8, 81, 80
22, 119931, Note_off_c, 8, 81, 64
22, 119973, Note_on_c, 8, 79, 87
22, 120075, Note_off_c, 8, 79, 64
22, 120230, Note_on_c, 8, 73, 85
22, 120619, Note_off_c, 8, 73, 64
22, 120704, Note_on_c, 8, 74, 87
22, 120794, Note_off_c, 8, 74, 64
22, 120811, Note_on_c, 8, 76, 82
22, 120916, Note_off_c, 8, 76, 64
22, 120953, Note_on_c, 8, 70, 87
22, 121061, Note_off_c, 8, 70, 64
22, 121193, Note_on_c, 8, 76, 87
22, 121585, Note_off_c, 8, 76, 64
22, 121661, Note_on_c, 8, 78, 87
22, 121746, Note_off_c, 8, 78, 64
22, 121767, Note_on_c, 8, 79, 72
22, 121851, Note_off_c, 8, 79, 64
22, 121887, Note_on_c, 8, 78, 98
22, 121977, Note_off_c, 8, 78, 64
22, 121996, Note_on_c, 8, 74, 78
22, 122074, Note_off_c, 8, 74, 64
22, 122121, Note_on_c, 8, 76, 82
22, 122230, Note_off_c, 8, 76, 64
22, 122366, Note_on_c, 8, 74, 82
22, 122466, Note_off_c, 8, 74, 64
22, 122470, Note_on_c, 8, 71, 72
22, 122556, Note_off_c, 8, 71, 64
22, 122598, Note_on_c, 8, 73, 78
22, 122707, Note_off_c, 8, 73, 64
22, 122852, Note_on_c, 8, 71, 85
22, 123370, Note_off_c, 8, 71, 64
22, 123593, Note_on_c, 8, 66, 93
22, 123681, Note_off_c, 8, 66, 64
22, 123697, Note_on_c, 8, 64, 82
22, 123780, Note_off_c, 8, 64, 64
22, 123819, Note_on_c, 8, 66, 80
22, 123954, Note_off_c, 8, 66, 64
22, 124065, Note_on_c, 8, 67, 82
22, 124222, Note_off_c, 8, 67, 64
22, 124312, Note_on_c, 8, 67, 95
22, 124416, Note_on_c, 8, 66, 82
22, 124429, Note_off_c, 8, 67, 64
22, 124519, Note_off_c, 8, 66, 64
22, 124536, Note_on_c, 8, 64, 68
22, 124638, Note_off_c, 8, 64, 64
22, 124656, Note_on_c, 8, 62, 70
22, 124777, Note_off_c, 8, 62, 64
22, 124785, Note_on_c, 8, 69, 87
22, 124889, Note_on_c, 8, 71, 87
22, 124896, Note_off_c, 8, 69, 64
22, 124979, Note_off_c, 8, 71, 64
22, 125020, Note_on_c, 8, 72, 85
22, 125534, Note_off_c, 8, 72, 64
22, 126952, Note_on_c, 8, 69, 85
22, 127039, Note_on_c, 8, 73, 68
22, 127070, Note_off_c, 8, 69, 64
22, 127142, Note_off_c, 8, 73, 64
22, 127168, Note_on_c, 8, 76, 82
22, 127294, Note_off_c, 8, 76, 64
22, 127411, Note_on_c, 8, 78, 63
22, 127506, Note_off_c, 8, 78, 64
22, 127506, Note_on_c, 8, 79, 82
22, 127619, Note_off_c, 8, 79, 64
22, 127652, Note_on_c, 8, 81, 91
22, 127754, Note_on_c, 8, 79, 89
22, 127760, Note_off_c, 8, 81, 64
22, 127847, Note_off_c, 8, 79, 64
22, 127878, Note_on_c, 8, 81, 85
22, 127987, Note_off_c, 8, 81, 64
22, 127992, Note_on_c, 8, 84, 89
22, 128108, Note_on_c, 8, 83, 76
22, 128124, Note_off_c, 8, 84, 64
22, 128208, Note_off_c, 8, 83, 64
22, 128222, Note_on_c, 8, 81, 80
22, 128338, Note_off_c, 8, 81, 64
22, 128348, Note_on_c, 8, 79, 76
22, 128459, Note_on_c, 8, 78, 80
22, 128480, Note_off_c, 8, 79, 64
22, 128551, Note_off_c, 8, 78, 64
22, 128585, Note_on_c, 8, 76, 89
22, 128699, Note_on_c, 8, 78, 89
22, 128704, Note_off_c, 8, 76, 64
22, 128799, Note_off_c, 8, 78, 64
22, 128837, Note_on_c, 8, 79, 87
22, 129240, Note_off_c, 8, 79, 64
22, 129306, Note_on_c, 8, 78, 89
22, 129385, Note_off_c, 8, 78, 64
22, 129413, Note_on_c, 8, 76, 80
22, 129520, Note_off_c, 8, 76, 64
22, 129539, Note_on_c, 8, 78, 72
22, 129634, Note_off_c, 8, 78, 64
22, 129662, Note_on_c, 8, 74, 80
22, 129767, Note_off_c, 8, 74, 64
22, 129798, Note_on_c, 8, 76, 85
22, 129900, Note_off_c, 8, 76, 64
22, 130056, Note_on_c, 8, 69, 89
22, 130146, Note_off_c, 8, 69, 64
22, 130301, Note_on_c, 8, 73, 87
22, 130401, Note_off_c, 8, 73, 64
22, 130555, Note_on_c, 8, 74, 89
22, 131051, Note_off_c, 8, 74, 64
22, 131271, Note_on_c, 8, 73, 93
22, 131386, Note_off_c, 8, 73, 64
22, 131388, Note_on_c, 8, 74, 80
22, 131495, Note_off_c, 8, 74, 64
22, 131510, Note_on_c, 8, 76, 87
22, 131621, Note_on_c, 8, 74, 85
22, 131623, Note_off_c, 8, 76, 64
22, 131730, Note_off_c, 8, 74, 64
22, 131739, Note_on_c, 8, 76, 80
22, 131848, Note_off_c, 8, 76, 64
22, 131853, Note_on_c, 8, 81, 85
22, 131974, Note_on_c, 8, 76, 76
22, 131979, Note_off_c, 8, 81, 64
22, 132081, Note_off_c, 8, 76, 64
22, 132083, Note_on_c, 8, 74, 80
22, 132181, Note_off_c, 8, 74, 64
22, 132206, Note_on_c, 8, 73, 64
22, 132288, Note_off_c, 8, 73, 64
22, 132318, Note_on_c, 8, 74, 87
22, 132420, Note_off_c, 8, 74, 64
22, 132447, Note_on_c, 8, 76, 85
22, 132541, Note_off_c, 8, 76, 64
22, 132694, Note_on_c, 8, 69, 78
22, 133033, Note_off_c, 8, 69, 64
22, 133176, Note_on_c, 8, 74, 80
22, 133284, Note_on_c, 8, 76, 70
22, 133304, Note_off_c, 8, 74, 64
22, 133396, Note_off_c, 8, 76, 64
22, 133415, Note_on_c, 8, 78, 76
22, 133515, Note_off_c, 8, 78, 64
22, 133522, Note_on_c, 8, 76, 78
22, 133648, Note_on_c, 8, 78, 64
22, 133667, Note_off_c, 8, 76, 64
22, 133743, Note_off_c, 8, 78, 64
22, 133761, Note_on_c, 8, 83, 76
22, 133857, Note_off_c, 8, 83, 64
22, 133878, Note_on_c, 8, 78, 66
22, 133980, Note_off_c, 8, 78, 64
22, 133990, Note_on_c, 8, 76, 78
22, 134117, Note_on_c, 8, 74, 80
22, 134123, Note_off_c, 8, 76, 64
22, 134212, Note_off_c, 8, 74, 64
22, 134230, Note_on_c, 8, 76, 74
22, 134333, Note_off_c, 8, 76, 64
22, 134362, Note_on_c, 8, 78, 82
22, 134467, Note_off_c, 8, 78, 64
22, 134614, Note_on_c, 8, 71, 82
22, 134956, Note_off_c, 8, 71, 64
22, 135114, Note_on_c, 8, 83, 89
22, 135193, Note_off_c, 8, 83, 64
22, 135214, Note_on_c, 8, 81, 85
22, 135297, Note_off_c, 8, 81, 64
22, 135338, Note_on_c, 8, 79, 91
22, 135440, Note_off_c, 8, 79, 64
22, 135580, Note_on_c, 8, 73, 82
22, 136014, Note_off_c, 8, 73, 64
22, 136054, Note_on_c, 8, 74, 87
22, 136147, Note_off_c, 8, 74, 64
22, 136157, Note_on_c, 8, 76, 82
22, 136259, Note_off_c, 8, 76, 64
22, 136290, Note_on_c, 8, 70, 80
22, 136415, Note_off_c, 8, 70, 64
22, 136537, Note_on_c, 8, 76, 89
22, 136937, Note_off_c, 8, 76, 64
22, 137009, Note_on_c, 8, 78, 87
22, 137094, Note_off_c, 8, 78, 64
22, 137122, Note_on_c, 8, 79, 78
22, 137199, Note_off_c, 8, 79, 64
22, 137239, Note_on_c, 8, 78, 98
22, 137343, Note_off_c, 8, 78, 64
22, 137344, Note_on_c, 8, 74, 85
22, 137450, Note_off_c, 8, 74, 64
22, 137474, Note_on_c, 8, 76, 85
22, 137632, Note_off_c, 8, 76, 64
22, 137725, Note_on_c, 8, 74, 80
22, 137828, Note_off_c, 8, 74, 64
22, 137835, Note_on_c, 8, 71, 66
22, 137935, Note_off_c, 8, 71, 64
22, 137963, Note_on_c, 8, 73, 72
22, 138079, Note_off_c, 8, 73, 64
22, 138212, Note_on_c, 8, 71, 85
22, 138727, Note_off_c, 8, 71, 64
22, 138934, Note_on_c, 8, 66, 82
22, 139040, Note_off_c, 8, 66, 64
22, 139047, Note_on_c, 8, 64, 82
22, 139142, Note_off_c, 8, 64, 64
22, 139178, Note_on_c, 8, 66, 85
22, 139311, Note_off_c, 8, 66, 64
22, 139423, Note_on_c, 8, 67, 80
22, 139570, Note_off_c, 8, 67, 64
22, 139667, Note_on_c, 8, 67, 91
22, 139779, Note_on_c, 8, 66, 80
22, 139790, Note_off_c, 8, 67, 64
22, 139876, Note_off_c, 8, 66, 64
22, 139900, Note_on_c, 8, 64, 80
22, 139993, Note_off_c, 8, 64, 64
22, 140011, Note_on_c, 8, 62, 66
22, 140120, Note_off_c, 8, 62, 64
22, 140140, Note_on_c, 8, 69, 82
22, 140247, Note_off_c, 8, 69, 64
22, 140254, Note_on_c, 8, 71, 82
22, 140341, Note_off_c, 8, 71, 64
22, 140381, Note_on_c, 8, 72, 82
22, 140889, Note_off_c, 8, 72, 64
22, 142325, Note_on_c, 8, 69, 91
22, 142420, Note_on_c, 8, 73, 76
22, 142444, Note_off_c, 8, 69, 64
22, 142522, Note_off_c, 8, 73, 64
22, 142547, Note_on_c, 8, 76, 87
22, 142660, Note_off_c, 8, 76, 64
22, 142779, Note_on_c, 8, 78, 80
22, 142879, Note_off_c, 8, 78, 64
22, 142884, Note_on_c, 8, 79, 87
22, 142985, Note_off_c, 8, 79, 64
22, 143012, Note_on_c, 8, 81, 89
22, 143125, Note_on_c, 8, 79, 87
22, 143145, Note_off_c, 8, 81, 64
22, 143221, Note_off_c, 8, 79, 64
22, 143239, Note_on_c, 8, 81, 80
22, 143349, Note_off_c, 8, 81, 64
22, 143356, Note_on_c, 8, 84, 95
22, 143456, Note_off_c, 8, 84, 64
22, 143472, Note_on_c, 8, 83, 78
22, 143574, Note_off_c, 8, 83, 64
22, 143591, Note_on_c, 8, 81, 80
22, 143697, Note_off_c, 8, 81, 64
22, 143712, Note_on_c, 8, 79, 80
22, 143821, Note_on_c, 8, 78, 72
22, 143840, Note_off_c, 8, 79, 64
22, 143923, Note_off_c, 8, 78, 64
22, 143952, Note_on_c, 8, 76, 93
22, 144065, Note_off_c, 8, 76, 64
22, 144068, Note_on_c, 8, 78, 89
22, 144170, Note_off_c, 8, 78, 64
22, 144198, Note_on_c, 8, 79, 85
22, 144640, Note_off_c, 8, 79, 64
22, 144699, Note_on_c, 8, 78, 89
22, 144789, Note_off_c, 8, 78, 64
22, 144808, Note_on_c, 8, 76, 72
22, 144896, Note_off_c, 8, 76, 64
22, 144922, Note_on_c, 8, 78, 85
22, 145017, Note_off_c, 8, 78, 64
22, 145036, Note_on_c, 8, 74, 78
22, 145139, Note_off_c, 8, 74, 64
22, 145165, Note_on_c, 8, 76, 87
22, 145274, Note_off_c, 8, 76, 64
22, 145418, Note_on_c, 8, 69, 89
22, 145514, Note_off_c, 8, 69, 64
22, 145666, Note_on_c, 8, 73, 80
22, 145767, Note_off_c, 8, 73, 64
22, 145907, Note_on_c, 8, 74, 85
22, 146506, Note_off_c, 8, 74, 64
22, 146506, End_track
23, 0, Start_track
23, 0, Title_t, "Violin"
23, 0, Program_c, 10, 40
23, 0, Control_c, 10, 7, 100
23, 16092, Note_on_c, 10, 69, 76
23, 16198, Note_on_c, 10, 71, 78
23, 16213, Note_off_c, 10, 69, 64
23, 16308, Note_off_c, 10, 71, 64
23, 16319, Note_on_c, 10, 73, 66
23, 16426, Note_on_c, 10, 71, 59
23, 16460, Note_off_c, 10, 73, 64
23, 16545, Note_on_c, 10, 73, 63
23, 16559, Note_off_c, 10, 71, 64
23, 16659, Note_on_c, 10, 76, 78
23, 16666, Note_off_c, 10, 73, 64
23, 16761, Note_off_c, 10, 76, 64
23, 16770, Note_on_c, 10, 73, 60
23, 16892, Note_on_c, 10, 71, 64
23, 16927, Note_off_c, 10, 73, 64
23, 17002, Note_off_c, 10, 71, 64
23, 17015, Note_on_c, 10, 69, 62
23, 17127, Note_off_c, 10, 69, 64
23, 17127, Note_on_c, 10, 71, 66
23, 17226, Note_off_c, 10, 71, 64
23, 17255, Note_on_c, 10, 73, 68
23, 17348, Note_off_c, 10, 73, 64
23, 17501, Note_on_c, 10, 64, 66
23, 17882, Note_off_c, 10, 64, 64
23, 17984, Note_on_c, 10, 66, 63
23, 18090, Note_off_c, 10, 66, 64
23, 18098, Note_on_c, 10, 67, 70
23, 18212, Note_off_c, 10, 67, 64
23, 18226, Note_on_c, 10, 69, 82
23, 18361, Note_off_c, 10, 69, 64
23, 18447, Note_on_c, 10, 74, 85
23, 18567, Note_off_c, 10, 74, 64
23, 18696, Note_on_c, 10, 74, 82
23, 18816, Note_on_c, 10, 73, 76
23, 18821, Note_off_c, 10, 74, 64
23, 18927, Note_on_c, 10, 71, 72
23, 18935, Note_off_c, 10, 73, 64
23, 19042, Note_on_c, 10, 73, 68
23, 19056, Note_off_c, 10, 71, 64
23, 19143, Note_off_c, 10, 73, 64
23, 19165, Note_on_c, 10, 74, 85
23, 19280, Note_off_c, 10, 74, 64
23, 19412, Note_on_c, 10, 66, 70
23, 19781, Note_off_c, 10, 66, 64
23, 19904, Note_on_c, 10, 75, 80
23, 20065, Note_off_c, 10, 75, 64
23, 20134, Note_on_c, 10, 76, 82
23, 20229, Note_off_c, 10, 76, 64
23, 20374, Note_on_c, 10, 67, 80
23, 20739, Note_off_c, 10, 67, 64
23, 20849, Note_on_c, 10, 67, 68
23, 20976, Note_off_c, 10, 67, 64
23, 21093, Note_on_c, 10, 66, 70
23, 21195, Note_off_c, 10, 66, 64
23, 21352, Note_on_c, 10, 73, 72
23, 21706, Note_off_c, 10, 73, 64
23, 21838, Note_on_c, 10, 73, 76
23, 22220, Note_off_c, 10, 73, 64
23, 22304, Note_on_c, 10, 71, 85
23, 22683, Note_off_c, 10, 71, 64
23, 22773, Note_on_c, 10, 70, 70
23, 22871, Note_off_c, 10, 70, 64
23, 23023, Note_on_c, 10, 66, 66
23, 23524, Note_off_c, 10, 66, 64
23, 23737, Note_on_c, 10, 62, 82
23, 23844, Note_on_c, 10, 61, 78
23, 23849, Note_off_c, 10, 62, 64
23, 23943, Note_off_c, 10, 61, 64
23, 23981, Note_on_c, 10, 62, 70
23, 24449, Note_off_c, 10, 62, 64
23, 24468, Note_on_c, 10, 64, 70
23, 24893, Note_off_c, 10, 64, 64
23, 24953, Note_on_c, 10, 66, 68
23, 25057, Note_on_c, 10, 67, 80
23, 25066, Note_off_c, 10, 66, 64
23, 25150, Note_off_c, 10, 67, 64
23, 25187, Note_on_c, 10, 69, 72
23, 25684, Note_off_c, 10, 69, 64
23, 27106, Note_on_c, 10, 64, 78
23, 27214, Note_on_c, 10, 69, 82
23, 27233, Note_off_c, 10, 64, 64
23, 27326, Note_off_c, 10, 69, 64
23, 27336, Note_on_c, 10, 73, 70
23, 27468, Note_off_c, 10, 73, 64
23, 27589, Note_on_c, 10, 73, 68
23, 27711, Note_off_c, 10, 73, 64
23, 27822, Note_on_c, 10, 74, 82
23, 27915, Note_off_c, 10, 74, 64
23, 28057, Note_on_c, 10, 81, 82
23, 28235, Note_off_c, 10, 81, 64
23, 28292, Note_on_c, 10, 79, 82
23, 28404, Note_on_c, 10, 78, 62
23, 28432, Note_off_c, 10, 79, 64
23, 28520, Note_on_c, 10, 76, 66
23, 28541, Note_off_c, 10, 78, 64
23, 28637, Note_off_c, 10, 76, 64
23, 28644, Note_on_c, 10, 74, 72
23, 28745, Note_off_c, 10, 74, 64
23, 28759, Note_on_c, 10, 73, 62
23, 28864, Note_on_c, 10, 74, 72
23, 28886, Note_off_c, 10, 73, 64
23, 28973, Note_off_c, 10, 74, 64
23, 29000, Note_on_c, 10, 76, 76
23, 29420, Note_off_c, 10, 76, 64
23, 29482, Note_on_c, 10, 73, 72
23, 29595, Note_off_c, 10, 73, 64
23, 29714, Note_on_c, 10, 74, 68
23, 29848, Note_off_c, 10, 74, 64
23, 29946, Note_on_c, 10, 71, 66
23, 30061, Note_off_c, 10, 71, 64
23, 30191, Note_on_c, 10, 69, 66
23, 30295, Note_off_c, 10, 69, 64
23, 30442, Note_on_c, 10, 69, 76
23, 30547, Note_off_c, 10, 69, 64
23, 30716, Note_on_c, 10, 69, 66
23, 31271, Note_off_c, 10, 69, 64
23, 31428, Note_on_c, 10, 69, 80
23, 31534, Note_on_c, 10, 71, 76
23, 31555, Note_off_c, 10, 69, 64
23, 31653, Note_off_c, 10, 71, 64
23, 31665, Note_on_c, 10, 73, 72
23, 31781, Note_on_c, 10, 71, 66
23, 31808, Note_off_c, 10, 73, 64
23, 31902, Note_on_c, 10, 73, 68
23, 31907, Note_off_c, 10, 71, 64
23, 32019, Note_on_c, 10, 76, 85
23, 32028, Note_off_c, 10, 73, 64
23, 32118, Note_off_c, 10, 76, 64
23, 32139, Note_on_c, 10, 73, 68
23, 32248, Note_on_c, 10, 71, 63
23, 32279, Note_off_c, 10, 73, 64
23, 32375, Note_off_c, 10, 71, 64
23, 32379, Note_on_c, 10, 69, 66
23, 32482, Note_off_c, 10, 69, 64
23, 32484, Note_on_c, 10, 71, 72
23, 32596, Note_off_c, 10, 71, 64
23, 32607, Note_on_c, 10, 73, 64
23, 32700, Note_off_c, 10, 73, 64
23, 32852, Note_on_c, 10, 64, 66
23, 33255, Note_off_c, 10, 64, 64
23, 33332, Note_on_c, 10, 66, 63
23, 33441, Note_on_c, 10, 67, 70
23, 33447, Note_off_c, 10, 66, 64
23, 33564, Note_off_c, 10, 67, 64
23, 33573, Note_on_c, 10, 69, 78
23, 33707, Note_off_c, 10, 69, 64
23, 33800, Note_on_c, 10, 74, 78
23, 33939, Note_off_c, 10, 74, 64
23, 34053, Note_on_c, 10, 74, 85
23, 34164, Note_on_c, 10, 73, 64
23, 34184, Note_off_c, 10, 74, 64
23, 34278, Note_on_c, 10, 71, 72
23, 34297, Note_off_c, 10, 73, 64
23, 34395, Note_on_c, 10, 73, 66
23, 34411, Note_off_c, 10, 71, 64
23, 34502, Note_off_c, 10, 73, 64
23, 34514, Note_on_c, 10, 74, 85
23, 34637, Note_off_c, 10, 74, 64
23, 34765, Note_on_c, 10, 66, 66
23, 35097, Note_off_c, 10, 66, 64
23, 35264, Note_on_c, 10, 75, 76
23, 35441, Note_off_c, 10, 75, 64
23, 35505, Note_on_c, 10, 76, 85
23, 35605, Note_off_c, 10, 76, 64
23, 35753, Note_on_c, 10, 67, 74
23, 36092, Note_off_c, 10, 67, 64
23, 36229, Note_on_c, 10, 67, 70
23, 36396, Note_off_c, 10, 67, 64
23, 36460, Note_on_c, 10, 66, 59
23, 36579, Note_off_c, 10, 66, 64
23, 36711, Note_on_c, 10, 73, 70
23, 37046, Note_off_c, 10, 73, 64
23, 37183, Note_on_c, 10, 73, 60
23, 37601, Note_off_c, 10, 73, 64
23, 37665, Note_on_c, 10, 71, 78
23, 38060, Note_off_c, 10, 71, 64
23, 38129, Note_on_c, 10, 70, 59
23, 38280, Note_off_c, 10, 70, 64
23, 38383, Note_on_c, 10, 66, 54
23, 38898, Note_off_c, 10, 66, 64
23, 39101, Note_on_c, 10, 62, 80
23, 39197, Note_off_c, 10, 62, 64
23, 39216, Note_on_c, 10, 61, 76
23, 39311, Note_off_c, 10, 61, 64
23, 39346, Note_on_c, 10, 62, 76
23, 39785, Note_off_c, 10, 62, 64
23, 39831, Note_on_c, 10, 64, 78
23, 40265, Note_off_c, 10, 64, 64
23, 40312, Note_on_c, 10, 66, 72
23, 40412, Note_off_c, 10, 66, 64
23, 40417, Note_on_c, 10, 67, 72
23, 40521, Note_off_c, 10, 67, 64
23, 40547, Note_on_c, 10, 69, 70
23, 41057, Note_off_c, 10, 69, 64
23, 42470, Note_on_c, 10, 64, 72
23, 42576, Note_on_c, 10, 69, 80
23, 42589, Note_off_c, 10, 64, 64
23, 42681, Note_off_c, 10, 69, 64
23, 42696, Note_on_c, 10, 73, 63
23, 42812, Note_off_c, 10, 73, 64
23, 42935, Note_on_c, 10, 73, 64
23, 43054, Note_off_c, 10, 73, 64
23, 43175, Note_on_c, 10, 74, 82
23, 43317, Note_off_c, 10, 74, 64
23, 43414, Note_on_c, 10, 81, 80
23, 43567, Note_off_c, 10, 81, 64
23, 43661, Note_on_c, 10, 79, 70
23, 43768, Note_on_c, 10, 78, 55
23, 43790, Note_off_c, 10, 79, 64
23, 43884, Note_on_c, 10, 76, 61
23, 43906, Note_off_c, 10, 78, 64
23, 43996, Note_off_c, 10, 76, 64
23, 44006, Note_on_c, 10, 74, 68
23, 44119, Note_on_c, 10, 73, 57
23, 44120, Note_off_c, 10, 74, 64
23, 44238, Note_on_c, 10, 74, 70
23, 44264, Note_off_c, 10, 73, 64
23, 44354, Note_off_c, 10, 74, 64
23, 44367, Note_on_c, 10, 76, 76
23, 44799, Note_off_c, 10, 76, 64
23, 44858, Note_on_c, 10, 73, 66
23, 45038, Note_off_c, 10, 73, 64
23, 45098, Note_on_c, 10, 74, 78
23, 45249, Note_off_c, 10, 74, 64
23, 45333, Note_on_c, 10, 71, 72
23, 45456, Note_off_c, 10, 71, 64
23, 45581, Note_on_c, 10, 69, 68
23, 45686, Note_off_c, 10, 69, 64
23, 45816, Note_on_c, 10, 69, 74
23, 45909, Note_off_c, 10, 69, 64
23, 46056, Note_on_c, 10, 69, 62
23, 46688, Note_off_c, 10, 69, 64
23, 70312, Note_on_c, 10, 66, 60
23, 70364, Note_on_c, 10, 64, 66
23, 70418, Note_off_c, 10, 66, 64
23, 70423, Note_on_c, 10, 63, 61
23, 70445, Note_off_c, 10, 64, 64
23, 70480, Note_on_c, 10, 64, 59
23, 70497, Note_off_c, 10, 63, 64
23, 70549, Note_on_c, 10, 66, 66
23, 70579, Note_off_c, 10, 64, 64
23, 70834, Note_off_c, 10, 66, 64
23, 71261, Note_on_c, 10, 59, 63
23, 71297, Note_on_c, 10, 57, 52
23, 71342, Note_off_c, 10, 59, 64
23, 71369, Note_off_c, 10, 57, 64
23, 71372, Note_on_c, 10, 55, 47
23, 71424, Note_on_c, 10, 57, 63
23, 71460, Note_off_c, 10, 55, 64
23, 71505, Note_on_c, 10, 59, 62
23, 71519, Note_off_c, 10, 57, 64
23, 71831, Note_off_c, 10, 59, 64
23, 73188, Note_on_c, 10, 66, 60
23, 73240, Note_on_c, 10, 64, 66
23, 73281, Note_off_c, 10, 66, 64
23, 73305, Note_on_c, 10, 63, 59
23, 73314, Note_off_c, 10, 64, 64
23, 73355, Note_on_c, 10, 64, 76
23, 73383, Note_off_c, 10, 63, 64
23, 73431, Note_on_c, 10, 66, 57
23, 73450, Note_off_c, 10, 64, 64
23, 73715, Note_off_c, 10, 66, 64
23, 74152, Note_on_c, 10, 59, 70
23, 74213, Note_on_c, 10, 57, 64
23, 74242, Note_on_c, 10, 56, 55
23, 74259, Note_off_c, 10, 59, 64
23, 74278, Note_off_c, 10, 57, 64
23, 74323, Note_on_c, 10, 57, 70
23, 74332, Note_off_c, 10, 56, 64
23, 74402, Note_on_c, 10, 59, 70
23, 74413, Note_off_c, 10, 57, 64
23, 74660, Note_off_c, 10, 59, 64
23, 75090, Note_on_c, 10, 66, 60
23, 75153, Note_on_c, 10, 64, 68
23, 75185, Note_off_c, 10, 66, 64
23, 75216, Note_on_c, 10, 63, 58
23, 75227, Note_off_c, 10, 64, 64
23, 75268, Note_on_c, 10, 64, 70
23, 75301, Note_off_c, 10, 63, 64
23, 75341, Note_on_c, 10, 66, 58
23, 75365, Note_off_c, 10, 64, 64
23, 75614, Note_off_c, 10, 66, 64
23, 77036, Note_on_c, 10, 67, 53
23, 77071, Note_on_c, 10, 66, 56
23, 77114, Note_off_c, 10, 67, 64
23, 77143, Note_on_c, 10, 64, 60
23, 77148, Note_off_c, 10, 66, 64
23, 77204, Note_on_c, 10, 66, 58
23, 77239, Note_off_c, 10, 64, 64
23, 77261, Note_on_c, 10, 67, 54
23, 77280, Note_off_c, 10, 66, 64
23, 77580, Note_off_c, 10, 67, 64
23, 77983, Note_on_c, 10, 67, 59
23, 78031, Note_on_c, 10, 66, 55
23, 78066, Note_off_c, 10, 67, 64
23, 78095, Note_on_c, 10, 64, 63
23, 78097, Note_off_c, 10, 66, 64
23, 78158, Note_on_c, 10, 66, 54
23, 78180, Note_off_c, 10, 64, 64
23, 78211, Note_on_c, 10, 67, 60
23, 78230, Note_off_c, 10, 66, 64
23, 78553, Note_off_c, 10, 67, 64
23, 78927, Note_on_c, 10, 66, 59
23, 78984, Note_on_c, 10, 64, 58
23, 79018, Note_off_c, 10, 66, 64
23, 79040, Note_on_c, 10, 62, 54
23, 79048, Note_off_c, 10, 64, 64
23, 79099, Note_on_c, 10, 64, 62
23, 79117, Note_off_c, 10, 62, 64
23, 79160, Note_on_c, 10, 66, 57
23, 79182, Note_off_c, 10, 64, 64
23, 79498, Note_off_c, 10, 66, 64
23, 80850, Note_on_c, 10, 66, 57
23, 80909, Note_on_c, 10, 64, 58
23, 80947, Note_off_c, 10, 66, 64
23, 80969, Note_on_c, 10, 62, 58
23, 80976, Note_off_c, 10, 64, 64
23, 81030, Note_on_c, 10, 64, 60
23, 81054, Note_off_c, 10, 62, 64
23, 81085, Note_on_c, 10, 66, 57
23, 81112, Note_off_c, 10, 64, 64
23, 81396, Note_off_c, 10, 66, 64
23, 81821, Note_on_c, 10, 64, 68
23, 81883, Note_on_c, 10, 62, 66
23, 81921, Note_on_c, 10, 61, 58
23, 81930, Note_off_c, 10, 64, 64
23, 81947, Note_off_c, 10, 62, 64
23, 81997, Note_on_c, 10, 62, 76
23, 82013, Note_off_c, 10, 61, 64
23, 82074, Note_on_c, 10, 64, 68
23, 82086, Note_off_c, 10, 62, 64
23, 82336, Note_off_c, 10, 64, 64
23, 82757, Note_on_c, 10, 61, 63
23, 82814, Note_on_c, 10, 59, 66
23, 82851, Note_off_c, 10, 61, 64
23, 82874, Note_on_c, 10, 58, 55
23, 82889, Note_off_c, 10, 59, 64
23, 82930, Note_on_c, 10, 59, 80
23, 82963, Note_off_c, 10, 58, 64
23, 83001, Note_on_c, 10, 61, 58
23, 83029, Note_off_c, 10, 59, 64
23, 83310, Note_off_c, 10, 61, 64
23, 84707, Note_on_c, 10, 62, 61
23, 84759, Note_on_c, 10, 61, 59
23, 84791, Note_off_c, 10, 62, 64
23, 84817, Note_on_c, 10, 59, 59
23, 84826, Note_off_c, 10, 61, 64
23, 84874, Note_on_c, 10, 61, 60
23, 84907, Note_off_c, 10, 59, 64
23, 84942, Note_on_c, 10, 62, 60
23, 84954, Note_off_c, 10, 61, 64
23, 85216, Note_off_c, 10, 62, 64
23, 85650, Note_on_c, 10, 66, 63
23, 85714, Note_on_c, 10, 64, 62
23, 85759, Note_off_c, 10, 66, 64
23, 85775, Note_on_c, 10, 63, 53
23, 85787, Note_off_c, 10, 64, 64
23, 85832, Note_on_c, 10, 64, 60
23, 85861, Note_off_c, 10, 63, 64
23, 85901, Note_on_c, 10, 66, 58
23, 85927, Note_off_c, 10, 64, 64
23, 86234, Note_off_c, 10, 66, 64
23, 86616, Note_on_c, 10, 59, 66
23, 86675, Note_on_c, 10, 57, 57
23, 86711, Note_off_c, 10, 59, 64
23, 86735, Note_off_c, 10, 57, 64
23, 86735, Note_on_c, 10, 55, 57
23, 86790, Note_on_c, 10, 57, 63
23, 86818, Note_off_c, 10, 55, 64
23, 86851, Note_on_c, 10, 59, 68
23, 86875, Note_off_c, 10, 57, 64
23, 87176, Note_off_c, 10, 59, 64
23, 88527, Note_on_c, 10, 66, 60
23, 88584, Note_on_c, 10, 64, 64
23, 88626, Note_off_c, 10, 66, 64
23, 88640, Note_on_c, 10, 63, 54
23, 88653, Note_off_c, 10, 64, 64
23, 88702, Note_on_c, 10, 64, 59
23, 88742, Note_off_c, 10, 63, 64
23, 88763, Note_on_c, 10, 66, 60
23, 88786, Note_off_c, 10, 64, 64
23, 89056, Note_off_c, 10, 66, 64
23, 89498, Note_on_c, 10, 59, 64
23, 89561, Note_on_c, 10, 57, 62
23, 89587, Note_on_c, 10, 56, 59
23, 89602, Note_off_c, 10, 59, 64
23, 89614, Note_off_c, 10, 57, 64
23, 89666, Note_on_c, 10, 57, 80
23, 89682, Note_off_c, 10, 56, 64
23, 89746, Note_on_c, 10, 59, 68
23, 89752, Note_off_c, 10, 57, 64
23, 90025, Note_off_c, 10, 59, 64
23, 90444, Note_on_c, 10, 66, 60
23, 90504, Note_on_c, 10, 64, 62
23, 90530, Note_off_c, 10, 66, 64
23, 90570, Note_on_c, 10, 63, 52
23, 90578, Note_off_c, 10, 64, 64
23, 90618, Note_on_c, 10, 64, 76
23, 90644, Note_off_c, 10, 63, 64
23, 90694, Note_on_c, 10, 66, 58
23, 90722, Note_off_c, 10, 64, 64
23, 90988, Note_off_c, 10, 66, 64
23, 92388, Note_on_c, 10, 67, 64
23, 92439, Note_on_c, 10, 66, 58
23, 92479, Note_off_c, 10, 67, 64
23, 92507, Note_on_c, 10, 64, 61
23, 92511, Note_off_c, 10, 66, 64
23, 92557, Note_on_c, 10, 66, 63
23, 92595, Note_off_c, 10, 64, 64
23, 92624, Note_on_c, 10, 67, 60
23, 92647, Note_off_c, 10, 66, 64
23, 92909, Note_off_c, 10, 67, 64
23, 93340, Note_on_c, 10, 67, 60
23, 93385, Note_on_c, 10, 66, 54
23, 93431, Note_off_c, 10, 67, 64
23, 93457, Note_off_c, 10, 66, 64
23, 93461, Note_on_c, 10, 64, 58
23, 93514, Note_on_c, 10, 66, 57
23, 93552, Note_off_c, 10, 64, 64
23, 93573, Note_on_c, 10, 67, 55
23, 93589, Note_off_c, 10, 66, 64
23, 93877, Note_off_c, 10, 67, 64
23, 94280, Note_on_c, 10, 66, 60
23, 94344, Note_on_c, 10, 64, 55
23, 94383, Note_off_c, 10, 66, 64
23, 94398, Note_on_c, 10, 62, 59
23, 94409, Note_off_c, 10, 64, 64
23, 94461, Note_on_c, 10, 64, 61
23, 94484, Note_off_c, 10, 62, 64
23, 94522, Note_on_c, 10, 66, 59
23, 94546, Note_off_c, 10, 64, 64
23, 94836, Note_off_c, 10, 66, 64
23, 96208, Note_on_c, 10, 66, 57
23, 96262, Note_on_c, 10, 64, 54
23, 96298, Note_off_c, 10, 66, 64
23, 96319, Note_on_c, 10, 62, 58
23, 96327, Note_off_c, 10, 64, 64
23, 96379, Note_on_c, 10, 64, 61
23, 96404, Note_off_c, 10, 62, 64
23, 96435, Note_on_c, 10, 66, 59
23, 96466, Note_off_c, 10, 64, 64
23, 96742, Note_off_c, 10, 66, 64
23, 97174, Note_on_c, 10, 64, 66
23, 97245, Note_on_c, 10, 62, 64
23, 97287, Note_on_c, 10, 61, 57
23, 97299, Note_off_c, 10, 64, 64
23, 97318, Note_off_c, 10, 62, 64
23, 97363, Note_on_c, 10, 62, 68
23, 97368, Note_off_c, 10, 61, 64
23, 97430, Note_on_c, 10, 64, 62
23, 97451, Note_off_c, 10, 62, 64
23, 97719, Note_off_c, 10, 64, 64
23, 98106, Note_on_c, 10, 61, 58
23, 98170, Note_on_c, 10, 59, 58
23, 98208, Note_off_c, 10, 61, 64
23, 98230, Note_on_c, 10, 58, 57
23, 98246, Note_off_c, 10, 59, 64
23, 98290, Note_on_c, 10, 59, 68
23, 98319, Note_off_c, 10, 58, 64
23, 98354, Note_on_c, 10, 61, 57
23, 98389, Note_off_c, 10, 59, 64
23, 98693, Note_off_c, 10, 61, 64
23, 100059, Note_on_c, 10, 62, 63
23, 100108, Note_on_c, 10, 61, 59
23, 100146, Note_off_c, 10, 62, 64
23, 100176, Note_on_c, 10, 59, 64
23, 100179, Note_off_c, 10, 61, 64
23, 100233, Note_on_c, 10, 61, 59
23, 100267, Note_off_c, 10, 59, 64
23, 100293, Note_on_c, 10, 62, 59
23, 100302, Note_off_c, 10, 61, 64
23, 100571, Note_off_c, 10, 62, 64
23, 115932, Note_on_c, 10, 69, 76
23, 116038, Note_on_c, 10, 71, 78
23, 116053, Note_off_c, 10, 69, 64
23, 116148, Note_off_c, 10, 71, 64
23, 116159, Note_on_c, 10, 73, 66
23, 116266, Note_on_c, 10, 71, 59
23, 116300, Note_off_c, 10, 73, 64
23, 116385, Note_on_c, 10, 73, 63
23, 116399, Note_off_c, 10, 71, 64
23, 116499, Note_on_c, 10, 76, 78
23, 116506, Note_off_c, 10, 73, 64
23, 116601, Note_off_c, 10, 76, 64
23, 116610, Note_on_c, 10, 73, 60
23, 116732, Note_on_c, 10, 71, 64
23, 116767, Note_off_c, 10, 73, 64
23, 116842, Note_off_c, 10, 71, 64
23, 116855, Note_on_c, 10, 69, 62
23, 116967, Note_off_c, 10, 69, 64
23, 116967, Note_on_c, 10, 71, 66
23, 117066, Note_off_c, 10, 71, 64
23, 117095, Note_on_c, 10, 73, 68
23, 117188, Note_off_c, 10, 73, 64
23, 117341, Note_on_c, 10, 64, 66
23, 117722, Note_off_c, 10, 64, 64
23, 117824, Note_on_c, 10, 66, 63
23, 117930, Note_off_c, 10, 66, 64
23, 117938, Note_on_c, 10, 67, 70
23, 118052, Note_off_c, 10, 67, 64
23, 118066, Note_on_c, 10, 69, 82
23, 118201, Note_off_c, 10, 69, 64
23, 118287, Note_on_c, 10, 74, 85
23, 118407, Note_off_c, 10, 74, 64
23, 118536, Note_on_c, 10, 74, 82
23, 118656, Note_on_c, 10, 73, 76
23, 118661, Note_off_c, 10, 74, 64
23, 118767, Note_on_c, 10, 71, 72
23, 118775, Note_off_c, 10, 73, 64
23, 118882, Note_on_c, 10, 73, 68
23, 118896, Note_off_c, 10, 71, 64
23, 118983, Note_off_c, 10, 73, 64
23, 119005, Note_on_c, 10, 74, 85
23, 119120, Note_off_c, 10, 74, 64
23, 119252, Note_on_c, 10, 66, 70
23, 119621, Note_off_c, 10, 66, 64
23, 119744, Note_on_c, 10, 75, 80
23, 119905, Note_off_c, 10, 75, 64
23, 119974, Note_on_c, 10, 76, 82
23, 120069, Note_off_c, 10, 76, 64
23, 120214, Note_on_c, 10, 67, 80
23, 120579, Note_off_c, 10, 67, 64
23, 120689, Note_on_c, 10, 67, 68
23, 120816, Note_off_c, 10, 67, 64
23, 120933, Note_on_c, 10, 66, 70
23, 121035, Note_off_c, 10, 66, 64
23, 121192, Note_on_c, 10, 73, 72
23, 121546, Note_off_c, 10, 73, 64
23, 121678, Note_on_c, 10, 73, 76
23, 122060, Note_off_c, 10, 73, 64
23, 122144, Note_on_c, 10, 71, 85
23, 122523, Note_off_c, 10, 71, 64
23, 122613, Note_on_c, 10, 70, 70
23, 122711, Note_off_c, 10, 70, 64
23, 122863, Note_on_c, 10, 66, 66
23, 123364, Note_off_c, 10, 66, 64
23, 123577, Note_on_c, 10, 62, 82
23, 123684, Note_on_c, 10, 61, 78
23, 123689, Note_off_c, 10, 62, 64
23, 123783, Note_off_c, 10, 61, 64
23, 123821, Note_on_c, 10, 62, 70
23, 124289, Note_off_c, 10, 62, 64
23, 124308, Note_on_c, 10, 64, 70
23, 124733, Note_off_c, 10, 64, 64
23, 124793, Note_on_c, 10, 66, 68
23, 124897, Note_on_c, 10, 67, 80
23, 124906, Note_off_c, 10, 66, 64
23, 124990, Note_off_c, 10, 67, 64
23, 125027, Note_on_c, 10, 69, 72
23, 125524, Note_off_c, 10, 69, 64
23, 126946, Note_on_c, 10, 64, 78
23, 127054, Note_on_c, 10, 69, 82
23, 127073, Note_off_c, 10, 64, 64
23, 127166, Note_off_c, 10, 69, 64
23, 127176, Note_on_c, 10, 73, 70
23, 127308, Note_off_c, 10, 73, 64
23, 127429, Note_on_c, 10, 73, 68
23, 127551, Note_off_c, 10, 73, 64
23, 127662, Note_on_c, 10, 74, 82
23, 127755, Note_off_c, 10, 74, 64
23, 127897, Note_on_c, 10, 81, 82
23, 128075, Note_off_c, 10, 81, 64
23, 128132, Note_on_c, 10, 79, 82
23, 128244, Note_on_c, 10, 78, 62
23, 128272, Note_off_c, 10, 79, 64
23, 128360, Note_on_c, 10, 76, 66
23, 128381, Note_off_c, 10, 78, 64
23, 128477, Note_off_c, 10, 76, 64
23, 128484, Note_on_c, 10, 74, 72
23, 128585, Note_off_c, 10, 74, 64
23, 128599, Note_on_c, 10, 73, 62
23, 128704, Note_on_c, 10, 74, 72
23, 128726, Note_off_c, 10, 73, 64
23, 128813, Note_off_c, 10, 74, 64
23, 128840, Note_on_c, 10, 76, 76
23, 129260, Note_off_c, 10, 76, 64
23, 129322, Note_on_c, 10, 73, 72
23, 129435, Note_off_c, 10, 73, 64
23, 129554, Note_on_c, 10, 74, 68
23, 129688, Note_off_c, 10, 74, 64
23, 129786, Note_on_c, 10, 71, 66
23, 129901, Note_off_c, 10, 71, 64
23, 130031, Note_on_c, 10, 69, 66
23, 130135, Note_off_c, 10, 69, 64
23, 130282, Note_on_c, 10, 69, 76
23, 130387, Note_off_c, 10, 69, 64
23, 130556, Note_on_c, 10, 69, 66
23, 131111, Note_off_c, 10, 69, 64
23, 131268, Note_on_c, 10, 69, 80
23, 131374, Note_on_c, 10, 71, 76
23, 131395, Note_off_c, 10, 69, 64
23, 131493, Note_off_c, 10, 71, 64
23, 131505, Note_on_c, 10, 73, 72
23, 131621, Note_on_c, 10, 71, 66
23, 131648, Note_off_c, 10, 73, 64
23, 131742, Note_on_c, 10, 73, 68
23, 131747, Note_off_c, 10, 71, 64
23, 131859, Note_on_c, 10, 76, 85
23, 131868, Note_off_c, 10, 73, 64
23, 131958, Note_off_c, 10, 76, 64
23, 131979, Note_on_c, 10, 73, 68
23, 132088, Note_on_c, 10, 71, 63
23, 132119, Note_off_c, 10, 73, 64
23, 132215, Note_off_c, 10, 71, 64
23, 132219, Note_on_c, 10, 69, 66
23, 132322, Note_off_c, 10, 69, 64
23, 132324, Note_on_c, 10, 71, 72
23, 132436, Note_off_c, 10, 71, 64
23, 132447, Note_on_c, 10, 73, 64
23, 132540, Note_off_c, 10, 73, 64
23, 132692, Note_on_c, 10, 64, 66
23, 133095, Note_off_c, 10, 64, 64
23, 133172, Note_on_c, 10, 66, 63
23, 133281, Note_on_c, 10, 67, 70
23, 133287, Note_off_c, 10, 66, 64
23, 133404, Note_off_c, 10, 67, 64
23, 133413, Note_on_c, 10, 69, 78
23, 133547, Note_off_c, 10, 69, 64
23, 133640, Note_on_c, 10, 74, 78
23, 133779, Note_off_c, 10, 74, 64
23, 133893, Note_on_c, 10, 74, 85
23, 134004, Note_on_c, 10, 73, 64
23, 134024, Note_off_c, 10, 74, 64
23, 134118, Note_on_c, 10, 71, 72
23, 134137, Note_off_c, 10, 73, 64
23, 134235, Note_on_c, 10, 73, 66
23, 134251, Note_off_c, 10, 71, 64
23, 134342, Note_off_c, 10, 73, 64
23, 134354, Note_on_c, 10, 74, 85
23, 134477, Note_off_c, 10, 74, 64
23, 134605, Note_on_c, 10, 66, 66
23, 134937, Note_off_c, 10, 66, 64
23, 135104, Note_on_c, 10, 75, 76
23, 135281, Note_off_c, 10, 75, 64
23, 135345, Note_on_c, 10, 76, 85
23, 135445, Note_off_c, 10, 76, 64
23, 135593, Note_on_c, 10, 67, 74
23, 135932, Note_off_c, 10, 67, 64
23, 136069, Note_on_c, 10, 67, 70
23, 136236, Note_off_c, 10, 67, 64
23, 136300, Note_on_c, 10, 66, 59
23, 136419, Note_off_c, 10, 66, 64
23, 136551, Note_on_c, 10, 73, 70
23, 136886, Note_off_c, 10, 73, 64
23, 137023, Note_on_c, 10, 73, 60
23, 137441, Note_off_c, 10, 73, 64
23, 137505, Note_on_c, 10, 71, 78
23, 137900, Note_off_c, 10, 71, 64
23, 137969, Note_on_c, 10, 70, 59
23, 138120, Note_off_c, 10, 70, 64
23, 138223, Note_on_c, 10, 66, 54
23, 138738, Note_off_c, 10, 66, 64
23, 138941, Note_on_c, 10, 62, 80
23, 139037, Note_off_c, 10, 62, 64
23, 139056, Note_on_c, 10, 61, 76
23, 139151, Note_off_c, 10, 61, 64
23, 139186, Note_on_c, 10, 62, 76
23, 139625, Note_off_c, 10, 62, 64
23, 139671, Note_on_c, 10, 64, 78
23, 140105, Note_off_c, 10, 64, 64
23, 140152, Note_on_c, 10, 66, 72
23, 140252, Note_off_c, 10, 66, 64
23, 140257, Note_on_c, 10, 67, 72
23, 140361, Note_off_c, 10, 67, 64
23, 140387, Note_on_c, 10, 69, 70
23, 140897, Note_off_c, 10, 69, 64
23, 142310, Note_on_c, 10, 64, 72
23, 142416, Note_on_c, 10, 69, 80
23, 142429, Note_off_c, 10, 64, 64
23, 142521, Note_off_c, 10, 69, 64
23, 142536, Note_on_c, 10, 73, 63
23, 142652, Note_off_c, 10, 73, 64
23, 142775, Note_on_c, 10, 73, 64
23, 142894, Note_off_c, 10, 73, 64
23, 143015, Note_on_c, 10, 74, 82
23, 143157, Note_off_c, 10, 74, 64
23, 143254, Note_on_c, 10, 81, 80
23, 143407, Note_off_c, 10, 81, 64
23, 143501, Note_on_c, 10, 79, 70
23, 143608, Note_on_c, 10, 78, 55
23, 143630, Note_off_c, 10, 79, 64
23, 143724, Note_on_c, 10, 76, 61
23, 143746, Note_off_c, 10, 78, 64
23, 143836, Note_off_c, 10, 76, 64
23, 143846, Note_on_c, 10, 74, 68
23, 143959, Note_on_c, 10, 73, 57
23, 143960, Note_off_c, 10, 74, 64
23, 144078, Note_on_c, 10, 74, 70
23, 144104, Note_off_c, 10, 73, 64
23, 144194, Note_off_c, 10, 74, 64
23, 144207, Note_on_c, 10, 76, 76
23, 144639, Note_off_c, 10, 76, 64
23, 144698, Note_on_c, 10, 73, 66
23, 144878, Note_off_c, 10, 73, 64
23, 144938, Note_on_c, 10, 74, 78
23, 145089, Note_off_c, 10, 74, 64
23, 145173, Note_on_c, 10, 71, 72
23, 145296, Note_off_c, 10, 71, 64
23, 145421, Note_on_c, 10, 69, 68
23, 145526, Note_off_c, 10, 69, 64
23, 145656, Note_on_c, 10, 69, 74
23, 145749, Note_off_c, 10, 69, 64
23, 145896, Note_on_c, 10, 69, 62
23, 146528, Note_off_c, 10, 69, 64
23, 146528, End_track
24, 0, Start_track
24, 0, Title_t, "Viola"
24, 0, Program_c, 11, 41
24, 0, Control_c, 11, 7, 100
24, 16067, Note_on_c, 11, 64, 68
24, 16177, Note_off_c, 11, 64, 64
24, 16311, Note_on_c, 11, 69, 82
24, 16416, Note_off_c, 11, 69, 64
24, 16561, Note_on_c, 11, 64, 76
24, 16675, Note_off_c, 11, 64, 64
24, 16791, Note_on_c, 11, 69, 82
24, 16907, Note_off_c, 11, 69, 64
24, 17029, Note_on_c, 11, 64, 82
24, 17130, Note_off_c, 11, 64, 64
24, 17261, Note_on_c, 11, 69, 82
24, 17370, Note_off_c, 11, 69, 64
24, 17517, Note_on_c, 11, 57, 82
24, 17865, Note_off_c, 11, 57, 64
24, 17981, Note_on_c, 11, 61, 68
24, 18092, Note_off_c, 11, 61, 64
24, 18222, Note_on_c, 11, 62, 66
24, 18344, Note_off_c, 11, 62, 64
24, 18453, Note_on_c, 11, 66, 80
24, 18574, Note_off_c, 11, 66, 64
24, 18693, Note_on_c, 11, 71, 82
24, 18799, Note_off_c, 11, 71, 64
24, 18923, Note_on_c, 11, 66, 74
24, 19053, Note_off_c, 11, 66, 64
24, 19174, Note_on_c, 11, 66, 76
24, 19274, Note_off_c, 11, 66, 64
24, 19424, Note_on_c, 11, 62, 82
24, 19780, Note_off_c, 11, 62, 64
24, 19898, Note_on_c, 11, 66, 70
24, 20000, Note_off_c, 11, 66, 64
24, 20135, Note_on_c, 11, 59, 76
24, 20233, Note_off_c, 11, 59, 64
24, 20394, Note_on_c, 11, 64, 85
24, 20720, Note_off_c, 11, 64, 64
24, 20862, Note_on_c, 11, 64, 82
24, 20962, Note_off_c, 11, 64, 64
24, 21099, Note_on_c, 11, 61, 70
24, 21192, Note_off_c, 11, 61, 64
24, 21348, Note_on_c, 11, 70, 76
24, 21702, Note_off_c, 11, 70, 64
24, 21828, Note_on_c, 11, 61, 76
24, 21937, Note_off_c, 11, 61, 64
24, 22068, Note_on_c, 11, 62, 76
24, 22181, Note_off_c, 11, 62, 64
24, 22307, Note_on_c, 11, 64, 80
24, 22414, Note_off_c, 11, 64, 64
24, 22550, Note_on_c, 11, 66, 80
24, 22651, Note_off_c, 11, 66, 64
24, 22785, Note_on_c, 11, 64, 78
24, 22887, Note_off_c, 11, 64, 64
24, 23032, Note_on_c, 11, 62, 74
24, 23530, Note_off_c, 11, 62, 64
24, 23580, Note_on_c, 11, 58, 39
24, 23613, Note_off_c, 11, 58, 64
24, 23731, Note_on_c, 11, 59, 66
24, 23831, Note_off_c, 11, 59, 64
24, 23988, Note_on_c, 11, 59, 72
24, 24411, Note_off_c, 11, 59, 64
24, 24479, Note_on_c, 11, 61, 82
24, 24888, Note_off_c, 11, 61, 64
24, 24945, Note_on_c, 11, 62, 80
24, 25042, Note_off_c, 11, 62, 64
24, 25198, Note_on_c, 11, 62, 85
24, 25697, Note_off_c, 11, 62, 64
24, 27100, Note_on_c, 11, 61, 82
24, 27199, Note_on_c, 11, 64, 85
24, 27214, Note_off_c, 11, 61, 64
24, 27306, Note_off_c, 11, 64, 64
24, 27328, Note_on_c, 11, 69, 85
24, 27454, Note_off_c, 11, 69, 64
24, 27579, Note_on_c, 11, 69, 80
24, 27700, Note_off_c, 11, 69, 64
24, 27817, Note_on_c, 11, 69, 78
24, 27969, Note_off_c, 11, 69, 64
24, 28056, Note_on_c, 11, 62, 64
24, 28187, Note_off_c, 11, 62, 64
24, 28294, Note_on_c, 11, 62, 68
24, 28438, Note_off_c, 11, 62, 64
24, 28526, Note_on_c, 11, 69, 82
24, 28648, Note_off_c, 11, 69, 64
24, 28768, Note_on_c, 11, 69, 85
24, 28864, Note_off_c, 11, 69, 64
24, 29020, Note_on_c, 11, 61, 87
24, 29357, Note_off_c, 11, 61, 64
24, 29490, Note_on_c, 11, 69, 82
24, 29620, Note_off_c, 11, 69, 64
24, 29716, Note_on_c, 11, 69, 85
24, 29836, Note_off_c, 11, 69, 64
24, 29958, Note_on_c, 11, 71, 85
24, 30069, Note_off_c, 11, 71, 64
24, 30188, Note_on_c, 11, 66, 76
24, 30299, Note_off_c, 11, 66, 64
24, 30440, Note_on_c, 11, 67, 82
24, 30561, Note_off_c, 11, 67, 64
24, 30708, Note_on_c, 11, 66, 62
24, 31235, Note_off_c, 11, 66, 64
24, 31422, Note_on_c, 11, 64, 74
24, 31539, Note_off_c, 11, 64, 64
24, 31657, Note_on_c, 11, 69, 76
24, 31799, Note_off_c, 11, 69, 64
24, 31899, Note_on_c, 11, 64, 70
24, 32035, Note_off_c, 11, 64, 64
24, 32141, Note_on_c, 11, 69, 78
24, 32256, Note_off_c, 11, 69, 64
24, 32372, Note_on_c, 11, 64, 68
24, 32492, Note_off_c, 11, 64, 64
24, 32618, Note_on_c, 11, 69, 85
24, 32716, Note_off_c, 11, 69, 64
24, 32861, Note_on_c, 11, 57, 78
24, 33226, Note_off_c, 11, 57, 64
24, 33338, Note_on_c, 11, 61, 72
24, 33456, Note_off_c, 11, 61, 64
24, 33580, Note_on_c, 11, 62, 82
24, 33722, Note_off_c, 11, 62, 64
24, 33812, Note_on_c, 11, 66, 72
24, 33952, Note_off_c, 11, 66, 64
24, 34050, Note_on_c, 11, 71, 70
24, 34185, Note_off_c, 11, 71, 64
24, 34283, Note_on_c, 11, 66, 78
24, 34410, Note_off_c, 11, 66, 64
24, 34537, Note_on_c, 11, 66, 78
24, 34636, Note_off_c, 11, 66, 64
24, 34781, Note_on_c, 11, 62, 70
24, 35144, Note_off_c, 11, 62, 64
24, 35260, Note_on_c, 11, 66, 82
24, 35370, Note_off_c, 11, 66, 64
24, 35495, Note_on_c, 11, 59, 64
24, 35604, Note_off_c, 11, 59, 64
24, 35747, Note_on_c, 11, 64, 82
24, 36067, Note_off_c, 11, 64, 64
24, 36219, Note_on_c, 11, 64, 68
24, 36324, Note_off_c, 11, 64, 64
24, 36454, Note_on_c, 11, 61, 68
24, 36552, Note_off_c, 11, 61, 64
24, 36708, Note_on_c, 11, 70, 70
24, 37050, Note_off_c, 11, 70, 64
24, 37188, Note_on_c, 11, 61, 78
24, 37309, Note_off_c, 11, 61, 64
24, 37413, Note_on_c, 11, 62, 66
24, 37546, Note_off_c, 11, 62, 64
24, 37662, Note_on_c, 11, 64, 72
24, 37784, Note_off_c, 11, 64, 64
24, 37901, Note_on_c, 11, 66, 74
24, 38025, Note_off_c, 11, 66, 64
24, 38139, Note_on_c, 11, 64, 74
24, 38249, Note_off_c, 11, 64, 64
24, 38387, Note_on_c, 11, 62, 68
24, 38873, Note_off_c, 11, 62, 64
24, 39096, Note_on_c, 11, 59, 58
24, 39198, Note_off_c, 11, 59, 64
24, 39346, Note_on_c, 11, 59, 64
24, 39725, Note_off_c, 11, 59, 64
24, 39830, Note_on_c, 11, 61, 64
24, 40186, Note_off_c, 11, 61, 64
24, 40300, Note_on_c, 11, 62, 70
24, 40385, Note_off_c, 11, 62, 64
24, 40560, Note_on_c, 11, 62, 78
24, 41036, Note_off_c, 11, 62, 64
24, 42474, Note_on_c, 11, 61, 85
24, 42566, Note_on_c, 11, 64, 82
24, 42585, Note_off_c, 11, 61, 64
24, 42669, Note_off_c, 11, 64, 64
24, 42687, Note_on_c, 11, 69, 85
24, 42821, Note_off_c, 11, 69, 64
24, 42939, Note_on_c, 11, 69, 72
24, 43074, Note_off_c, 11, 69, 64
24, 43184, Note_on_c, 11, 69, 82
24, 43326, Note_off_c, 11, 69, 64
24, 43428, Note_on_c, 11, 62, 59
24, 43556, Note_off_c, 11, 62, 64
24, 43661, Note_on_c, 11, 62, 78
24, 43796, Note_off_c, 11, 62, 64
24, 43884, Note_on_c, 11, 69, 78
24, 44002, Note_off_c, 11, 69, 64
24, 44131, Note_on_c, 11, 69, 82
24, 44223, Note_off_c, 11, 69, 64
24, 44375, Note_on_c, 11, 61, 82
24, 44722, Note_off_c, 11, 61, 64
24, 44840, Note_on_c, 11, 69, 85
24, 44980, Note_off_c, 11, 69, 64
24, 45094, Note_on_c, 11, 69, 85
24, 45230, Note_off_c, 11, 69, 64
24, 45336, Note_on_c, 11, 71, 85
24, 45479, Note_off_c, 11, 71, 64
24, 45566, Note_on_c, 11, 66, 80
24, 45699, Note_off_c, 11, 66, 64
24, 45814, Note_on_c, 11, 67, 82
24, 45920, Note_off_c, 11, 67, 64
24, 46063, Note_on_c, 11, 66, 80
24, 46644, Note_off_c, 11, 66, 64
24, 70312, Note_on_c, 11, 66, 72
24, 70369, Note_on_c, 11, 64, 68
24, 70404, Note_off_c, 11, 66, 64
24, 70409, Note_on_c, 11, 63, 57
24, 70435, Note_off_c, 11, 64, 64
24, 70477, Note_on_c, 11, 64, 68
24, 70490, Note_off_c, 11, 63, 64
24, 70549, Note_on_c, 11, 66, 55
24, 70570, Note_off_c, 11, 64, 64
24, 70860, Note_off_c, 11, 66, 64
24, 71265, Note_on_c, 11, 59, 64
24, 71327, Note_on_c, 11, 57, 51
24, 71356, Note_off_c, 11, 59, 64
24, 71372, Note_on_c, 11, 55, 53
24, 71382, Note_off_c, 11, 57, 64
24, 71430, Note_on_c, 11, 57, 68
24, 71456, Note_off_c, 11, 55, 64
24, 71498, Note_on_c, 11, 59, 64
24, 71522, Note_off_c, 11, 57, 64
24, 71852, Note_off_c, 11, 59, 64
24, 73171, Note_on_c, 11, 66, 68
24, 73231, Note_on_c, 11, 64, 63
24, 73267, Note_on_c, 11, 63, 53
24, 73278, Note_off_c, 11, 66, 64
24, 73295, Note_off_c, 11, 64, 64
24, 73343, Note_on_c, 11, 64, 64
24, 73355, Note_off_c, 11, 63, 64
24, 73423, Note_on_c, 11, 66, 57
24, 73431, Note_off_c, 11, 64, 64
24, 73737, Note_off_c, 11, 66, 64
24, 74154, Note_on_c, 11, 59, 68
24, 74220, Note_on_c, 11, 57, 64
24, 74246, Note_on_c, 11, 56, 57
24, 74266, Note_off_c, 11, 59, 64
24, 74285, Note_off_c, 11, 57, 64
24, 74321, Note_on_c, 11, 57, 53
24, 74339, Note_off_c, 11, 56, 64
24, 74393, Note_on_c, 11, 59, 60
24, 74416, Note_off_c, 11, 57, 64
24, 74696, Note_off_c, 11, 59, 64
24, 75080, Note_on_c, 11, 66, 63
24, 75147, Note_on_c, 11, 64, 64
24, 75185, Note_on_c, 11, 63, 51
24, 75186, Note_off_c, 11, 66, 64
24, 75211, Note_off_c, 11, 64, 64
24, 75261, Note_on_c, 11, 64, 64
24, 75280, Note_off_c, 11, 63, 64
24, 75334, Note_on_c, 11, 66, 58
24, 75348, Note_off_c, 11, 64, 64
24, 75671, Note_off_c, 11, 66, 64
24, 77033, Note_on_c, 11, 67, 59
24, 77083, Note_on_c, 11, 66, 59
24, 77119, Note_off_c, 11, 67, 64
24, 77140, Note_on_c, 11, 64, 60
24, 77154, Note_off_c, 11, 66, 64
24, 77205, Note_on_c, 11, 66, 60
24, 77233, Note_off_c, 11, 64, 64
24, 77271, Note_on_c, 11, 67, 58
24, 77288, Note_off_c, 11, 66, 64
24, 77584, Note_off_c, 11, 67, 64
24, 77995, Note_on_c, 11, 67, 57
24, 78045, Note_on_c, 11, 66, 52
24, 78073, Note_off_c, 11, 67, 64
24, 78094, Note_on_c, 11, 64, 59
24, 78101, Note_off_c, 11, 66, 64
24, 78154, Note_on_c, 11, 66, 60
24, 78181, Note_off_c, 11, 64, 64
24, 78220, Note_on_c, 11, 67, 58
24, 78237, Note_off_c, 11, 66, 64
24, 78571, Note_off_c, 11, 67, 64
24, 78935, Note_on_c, 11, 66, 64
24, 78990, Note_on_c, 11, 64, 52
24, 79027, Note_off_c, 11, 66, 64
24, 79047, Note_on_c, 11, 62, 55
24, 79053, Note_off_c, 11, 64, 64
24, 79104, Note_on_c, 11, 64, 58
24, 79125, Note_off_c, 11, 62, 64
24, 79177, Note_on_c, 11, 66, 55
24, 79193, Note_off_c, 11, 64, 64
24, 79535, Note_off_c, 11, 66, 64
24, 80850, Note_on_c, 11, 66, 60
24, 80893, Note_on_c, 11, 64, 51
24, 80926, Note_off_c, 11, 66, 64
24, 80947, Note_on_c, 11, 62, 56
24, 80957, Note_off_c, 11, 64, 64
24, 81009, Note_on_c, 11, 64, 58
24, 81029, Note_off_c, 11, 62, 64
24, 81081, Note_on_c, 11, 66, 53
24, 81092, Note_off_c, 11, 64, 64
24, 81403, Note_off_c, 11, 66, 64
24, 81835, Note_on_c, 11, 64, 64
24, 81885, Note_on_c, 11, 62, 48
24, 81916, Note_off_c, 11, 64, 64
24, 81928, Note_on_c, 11, 61, 60
24, 81935, Note_off_c, 11, 62, 64
24, 81994, Note_on_c, 11, 62, 63
24, 82018, Note_off_c, 11, 61, 64
24, 82073, Note_on_c, 11, 64, 60
24, 82099, Note_off_c, 11, 62, 64
24, 82365, Note_off_c, 11, 64, 64
24, 82756, Note_on_c, 11, 61, 66
24, 82808, Note_on_c, 11, 59, 64
24, 82839, Note_on_c, 11, 58, 55
24, 82847, Note_off_c, 11, 61, 64
24, 82873, Note_off_c, 11, 59, 64
24, 82923, Note_on_c, 11, 59, 68
24, 82939, Note_off_c, 11, 58, 64
24, 82992, Note_on_c, 11, 61, 61
24, 83010, Note_off_c, 11, 59, 64
24, 83310, Note_off_c, 11, 61, 64
24, 84705, Note_on_c, 11, 62, 63
24, 84757, Note_on_c, 11, 61, 57
24, 84784, Note_off_c, 11, 62, 64
24, 84810, Note_on_c, 11, 59, 61
24, 84821, Note_off_c, 11, 61, 64
24, 84869, Note_on_c, 11, 61, 59
24, 84897, Note_off_c, 11, 59, 64
24, 84936, Note_on_c, 11, 62, 57
24, 84950, Note_off_c, 11, 61, 64
24, 85244, Note_off_c, 11, 62, 64
24, 85657, Note_on_c, 11, 66, 60
24, 85704, Note_on_c, 11, 64, 58
24, 85733, Note_off_c, 11, 66, 64
24, 85785, Note_on_c, 11, 63, 59
24, 85790, Note_off_c, 11, 64, 64
24, 85834, Note_on_c, 11, 64, 78
24, 85858, Note_off_c, 11, 63, 64
24, 85906, Note_on_c, 11, 66, 60
24, 85916, Note_off_c, 11, 64, 64
24, 86253, Note_off_c, 11, 66, 64
24, 86623, Note_on_c, 11, 59, 63
24, 86684, Note_on_c, 11, 57, 56
24, 86716, Note_off_c, 11, 59, 64
24, 86742, Note_on_c, 11, 55, 58
24, 86747, Note_off_c, 11, 57, 64
24, 86798, Note_on_c, 11, 57, 60
24, 86830, Note_off_c, 11, 55, 64
24, 86865, Note_on_c, 11, 59, 59
24, 86882, Note_off_c, 11, 57, 64
24, 87188, Note_off_c, 11, 59, 64
24, 88546, Note_on_c, 11, 66, 57
24, 88603, Note_on_c, 11, 64, 60
24, 88626, Note_off_c, 11, 66, 64
24, 88669, Note_on_c, 11, 63, 55
24, 88676, Note_off_c, 11, 64, 64
24, 88717, Note_on_c, 11, 64, 80
24, 88743, Note_off_c, 11, 63, 64
24, 88795, Note_on_c, 11, 66, 53
24, 88804, Note_off_c, 11, 64, 64
24, 89099, Note_off_c, 11, 66, 64
24, 89507, Note_on_c, 11, 59, 70
24, 89559, Note_on_c, 11, 57, 72
24, 89585, Note_off_c, 11, 59, 64
24, 89630, Note_on_c, 11, 56, 63
24, 89640, Note_off_c, 11, 57, 64
24, 89671, Note_on_c, 11, 57, 78
24, 89692, Note_off_c, 11, 56, 64
24, 89749, Note_on_c, 11, 59, 55
24, 89752, Note_off_c, 11, 57, 64
24, 90055, Note_off_c, 11, 59, 64
24, 90447, Note_on_c, 11, 66, 66
24, 90513, Note_on_c, 11, 64, 61
24, 90533, Note_off_c, 11, 66, 64
24, 90580, Note_on_c, 11, 63, 47
24, 90591, Note_off_c, 11, 64, 64
24, 90625, Note_on_c, 11, 64, 70
24, 90637, Note_off_c, 11, 63, 64
24, 90710, Note_on_c, 11, 66, 59
24, 90713, Note_off_c, 11, 64, 64
24, 91023, Note_off_c, 11, 66, 64
24, 92377, Note_on_c, 11, 67, 64
24, 92431, Note_on_c, 11, 66, 60
24, 92471, Note_off_c, 11, 67, 64
24, 92490, Note_on_c, 11, 64, 59
24, 92496, Note_off_c, 11, 66, 64
24, 92541, Note_on_c, 11, 66, 66
24, 92564, Note_off_c, 11, 64, 64
24, 92614, Note_on_c, 11, 67, 56
24, 92633, Note_off_c, 11, 66, 64
24, 92894, Note_off_c, 11, 67, 64
24, 93345, Note_on_c, 11, 67, 66
24, 93402, Note_on_c, 11, 66, 57
24, 93437, Note_off_c, 11, 67, 64
24, 93459, Note_on_c, 11, 64, 60
24, 93462, Note_off_c, 11, 66, 64
24, 93513, Note_on_c, 11, 66, 63
24, 93538, Note_off_c, 11, 64, 64
24, 93580, Note_on_c, 11, 67, 59
24, 93601, Note_off_c, 11, 66, 64
24, 93874, Note_off_c, 11, 67, 64
24, 94295, Note_on_c, 11, 66, 63
24, 94349, Note_on_c, 11, 64, 57
24, 94394, Note_off_c, 11, 66, 64
24, 94416, Note_off_c, 11, 64, 64
24, 94416, Note_on_c, 11, 62, 53
24, 94466, Note_on_c, 11, 64, 63
24, 94484, Note_off_c, 11, 62, 64
24, 94539, Note_on_c, 11, 66, 58
24, 94551, Note_off_c, 11, 64, 64
24, 94850, Note_off_c, 11, 66, 64
24, 96212, Note_on_c, 11, 66, 66
24, 96272, Note_on_c, 11, 64, 57
24, 96310, Note_off_c, 11, 66, 64
24, 96329, Note_on_c, 11, 62, 58
24, 96338, Note_off_c, 11, 64, 64
24, 96388, Note_on_c, 11, 64, 61
24, 96410, Note_off_c, 11, 62, 64
24, 96450, Note_on_c, 11, 66, 60
24, 96469, Note_off_c, 11, 64, 64
24, 96751, Note_off_c, 11, 66, 64
24, 97185, Note_on_c, 11, 64, 61
24, 97238, Note_on_c, 11, 62, 60
24, 97274, Note_off_c, 11, 64, 64
24, 97304, Note_on_c, 11, 61, 57
24, 97307, Note_off_c, 11, 62, 64
24, 97366, Note_on_c, 11, 62, 60
24, 97385, Note_off_c, 11, 61, 64
24, 97421, Note_on_c, 11, 64, 60
24, 97437, Note_off_c, 11, 62, 64
24, 97717, Note_off_c, 11, 64, 64
24, 98128, Note_on_c, 11, 61, 66
24, 98194, Note_on_c, 11, 59, 68
24, 98221, Note_on_c, 11, 58, 60
24, 98239, Note_off_c, 11, 61, 64
24, 98254, Note_off_c, 11, 59, 64
24, 98308, Note_on_c, 11, 59, 74
24, 98320, Note_off_c, 11, 58, 64
24, 98380, Note_on_c, 11, 61, 64
24, 98399, Note_off_c, 11, 59, 64
24, 98690, Note_off_c, 11, 61, 64
24, 100072, Note_on_c, 11, 62, 62
24, 100129, Note_on_c, 11, 61, 54
24, 100165, Note_off_c, 11, 62, 64
24, 100181, Note_on_c, 11, 59, 59
24, 100186, Note_off_c, 11, 61, 64
24, 100245, Note_on_c, 11, 61, 60
24, 100264, Note_off_c, 11, 59, 64
24, 100298, Note_on_c, 11, 62, 64
24, 100312, Note_off_c, 11, 61, 64
24, 100551, Note_off_c, 11, 62, 64
24, 115907, Note_on_c, 11, 64, 68
24, 116017, Note_off_c, 11, 64, 64
24, 116151, Note_on_c, 11, 69, 82
24, 116256, Note_off_c, 11, 69, 64
24, 116401, Note_on_c, 11, 64, 76
24, 116515, Note_off_c, 11, 64, 64
24, 116631, Note_on_c, 11, 69, 82
24, 116747, Note_off_c, 11, 69, 64
24, 116869, Note_on_c, 11, 64, 82
24, 116970, Note_off_c, 11, 64, 64
24, 117101, Note_on_c, 11, 69, 82
24, 117210, Note_off_c, 11, 69, 64
24, 117357, Note_on_c, 11, 57, 82
24, 117705, Note_off_c, 11, 57, 64
24, 117821, Note_on_c, 11, 61, 68
24, 117932, Note_off_c, 11, 61, 64
24, 118062, Note_on_c, 11, 62, 66
24, 118184, Note_off_c, 11, 62, 64
24, 118293, Note_on_c, 11, 66, 80
24, 118414, Note_off_c, 11, 66, 64
24, 118533, Note_on_c, 11, 71, 82
24, 118639, Note_off_c, 11, 71, 64
24, 118763, Note_on_c, 11, 66, 74
24, 118893, Note_off_c, 11, 66, 64
24, 119014, Note_on_c, 11, 66, 76
24, 119114, Note_off_c, 11, 66, 64
24, 119264, Note_on_c, 11, 62, 82
24, 119620, Note_off_c, 11, 62, 64
24, 119738, Note_on_c, 11, 66, 70
24, 119840, Note_off_c, 11, 66, 64
24, 119975, Note_on_c, 11, 59, 76
24, 120073, Note_off_c, 11, 59, 64
24, 120234, Note_on_c, 11, 64, 85
24, 120560, Note_off_c, 11, 64, 64
24, 120702, Note_on_c, 11, 64, 82
24, 120802, Note_off_c, 11, 64, 64
24, 120939, Note_on_c, 11, 61, 70
24, 121032, Note_off_c, 11, 61, 64
24, 121188, Note_on_c, 11, 70, 76
24, 121542, Note_off_c, 11, 70, 64
24, 121668, Note_on_c, 11, 61, 76
24, 121777, Note_off_c, 11, 61, 64
24, 121908, Note_on_c, 11, 62, 76
24, 122021, Note_off_c, 11, 62, 64
24, 122147, Note_on_c, 11, 64, 80
24, 122254, Note_off_c, 11, 64, 64
24, 122390, Note_on_c, 11, 66, 80
24, 122491, Note_off_c, 11, 66, 64
24, 122625, Note_on_c, 11, 64, 78
24, 122727, Note_off_c, 11, 64, 64
24, 122872, Note_on_c, 11, 62, 74
24, 123370, Note_off_c, 11, 62, 64
24, 123420, Note_on_c, 11, 58, 39
24, 123453, Note_off_c, 11, 58, 64
24, 123571, Note_on_c, 11, 59, 66
24, 123671, Note_off_c, 11, 59, 64
24, 123828, Note_on_c, 11, 59, 72
24, 124251, Note_off_c, 11, 59, 64
24, 124319, Note_on_c, 11, 61, 82
24, 124728, Note_off_c, 11, 61, 64
24, 124785, Note_on_c, 11, 62, 80
24, 124882, Note_off_c, 11, 62, 64
24, 125038, Note_on_c, 11, 62, 85
24, 125537, Note_off_c, 11, 62, 64
24, 126940, Note_on_c, 11, 61, 82
24, 127039, Note_on_c, 11, 64, 85
24, 127054, Note_off_c, 11, 61, 64
24, 127146, Note_off_c, 11, 64, 64
24, 127168, Note_on_c, 11, 69, 85
24, 127294, Note_off_c, 11, 69, 64
24, 127419, Note_on_c, 11, 69, 80
24, 127540, Note_off_c, 11, 69, 64
24, 127657, Note_on_c, 11, 69, 78
24, 127809, Note_off_c, 11, 69, 64
24, 127896, Note_on_c, 11, 62, 64
24, 128027, Note_off_c, 11, 62, 64
24, 128134, Note_on_c, 11, 62, 68
24, 128278, Note_off_c, 11, 62, 64
24, 128366, Note_on_c, 11, 69, 82
24, 128488, Note_off_c, 11, 69, 64
24, 128608, Note_on_c, 11, 69, 85
24, 128704, Note_off_c, 11, 69, 64
24, 128860, Note_on_c, 11, 61, 87
24, 129197, Note_off_c, 11, 61, 64
24, 129330, Note_on_c, 11, 69, 82
24, 129460, Note_off_c, 11, 69, 64
24, 129556, Note_on_c, 11, 69, 85
24, 129676, Note_off_c, 11, 69, 64
24, 129798, Note_on_c, 11, 71, 85
24, 129909, Note_off_c, 11, 71, 64
24, 130028, Note_on_c, 11, 66, 76
24, 130139, Note_off_c, 11, 66, 64
24, 130280, Note_on_c, 11, 67, 82
24, 130401, Note_off_c, 11, 67, 64
24, 130548, Note_on_c, 11, 66, 62
24, 131075, Note_off_c, 11, 66, 64
24, 131262, Note_on_c, 11, 64, 74
24, 131379, Note_off_c, 11, 64, 64
24, 131497, Note_on_c, 11, 69, 76
24, 131639, Note_off_c, 11, 69, 64
24, 131739, Note_on_c, 11, 64, 70
24, 131875, Note_off_c, 11, 64, 64
24, 131981, Note_on_c, 11, 69, 78
24, 132096, Note_off_c, 11, 69, 64
24, 132212, Note_on_c, 11, 64, 68
24, 132332, Note_off_c, 11, 64, 64
24, 132458, Note_on_c, 11, 69, 85
24, 132556, Note_off_c, 11, 69, 64
24, 132701, Note_on_c, 11, 57, 78
24, 133066, Note_off_c, 11, 57, 64
24, 133178, Note_on_c, 11, 61, 72
24, 133296, Note_off_c, 11, 61, 64
24, 133420, Note_on_c, 11, 62, 82
24, 133562, Note_off_c, 11, 62, 64
24, 133652, Note_on_c, 11, 66, 72
24, 133792, Note_off_c, 11, 66, 64
24, 133890, Note_on_c, 11, 71, 70
24, 134025, Note_off_c, 11, 71, 64
24, 134123, Note_on_c, 11, 66, 78
24, 134250, Note_off_c, 11, 66, 64
24, 134377, Note_on_c, 11, 66, 78
24, 134476, Note_off_c, 11, 66, 64
24, 134621, Note_on_c, 11, 62, 70
24, 134984, Note_off_c, 11, 62, 64
24, 135100, Note_on_c, 11, 66, 82
24, 135210, Note_off_c, 11, 66, 64
24, 135335, Note_on_c, 11, 59, 64
24, 135444, Note_off_c, 11, 59, 64
24, 135587, Note_on_c, 11, 64, 82
24, 135907, Note_off_c, 11, 64, 64
24, 136059, Note_on_c, 11, 64, 68
24, 136164, Note_off_c, 11, 64, 64
24, 136294, Note_on_c, 11, 61, 68
24, 136392, Note_off_c, 11, 61, 64
24, 136548, Note_on_c, 11, 70, 70
24, 136890, Note_off_c, 11, 70, 64
24, 137028, Note_on_c, 11, 61, 78
24, 137149, Note_off_c, 11, 61, 64
24, 137253, Note_on_c, 11, 62, 66
24, 137386, Note_off_c, 11, 62, 64
24, 137502, Note_on_c, 11, 64, 72
24, 137624, Note_off_c, 11, 64, 64
24, 137741, Note_on_c, 11, 66, 74
24, 137865, Note_off_c, 11, 66, 64
24, 137979, Note_on_c, 11, 64, 74
24, 138089, Note_off_c, 11, 64, 64
24, 138227, Note_on_c, 11, 62, 68
24, 138713, Note_off_c, 11, 62, 64
24, 138936, Note_on_c, 11, 59, 58
24, 139038, Note_off_c, 11, 59, 64
24, 139186, Note_on_c, 11, 59, 64
24, 139565, Note_off_c, 11, 59, 64
24, 139670, Note_on_c, 11, 61, 64
24, 140026, Note_off_c, 11, 61, 64
24, 140140, Note_on_c, 11, 62, 70
24, 140225, Note_off_c, 11, 62, 64
24, 140400, Note_on_c, 11, 62, 78
24, 140876, Note_off_c, 11, 62, 64
24, 142314, Note_on_c, 11, 61, 85
24, 142406, Note_on_c, 11, 64, 82
24, 142425, Note_off_c, 11, 61, 64
24, 142509, Note_off_c, 11, 64, 64
24, 142527, Note_on_c, 11, 69, 85
24, 142661, Note_off_c, 11, 69, 64
24, 142779, Note_on_c, 11, 69, 72
24, 142914, Note_off_c, 11, 69, 64
24, 143024, Note_on_c, 11, 69, 82
24, 143166, Note_off_c, 11, 69, 64
24, 143268, Note_on_c, 11, 62, 59
24, 143396, Note_off_c, 11, 62, 64
24, 143501, Note_on_c, 11, 62, 78
24, 143636, Note_off_c, 11, 62, 64
24, 143724, Note_on_c, 11, 69, 78
24, 143842, Note_off_c, 11, 69, 64
24, 143971, Note_on_c, 11, 69, 82
24, 144063, Note_off_c, 11, 69, 64
24, 144215, Note_on_c, 11, 61, 82
24, 144562, Note_off_c, 11, 61, 64
24, 144680, Note_on_c, 11, 69, 85
24, 144820, Note_off_c, 11, 69, 64
24, 144934, Note_on_c, 11, 69, 85
24, 145070, Note_off_c, 11, 69, 64
24, 145176, Note_on_c, 11, 71, 85
24, 145319, Note_off_c, 11, 71, 64
24, 145406, Note_on_c, 11, 66, 80
24, 145539, Note_off_c, 11, 66, 64
24, 145654, Note_on_c, 11, 67, 82
24, 145760, Note_off_c, 11, 67, 64
24, 145903, Note_on_c, 11, 66, 80
24, 146484, Note_off_c, 11, 66, 64
24, 146484, End_track
25, 0, Start_track
25, 0, Title_t, "Cello"
25, 0, Program_c, 12, 42
25, 0, Control_c, 12, 7, 100
25, 16082, Note_on_c, 12, 45, 72
25, 16198, Note_off_c, 12, 45, 64
25, 16319, Note_on_c, 12, 57, 78
25, 16431, Note_off_c, 12, 57, 64
25, 16547, Note_on_c, 12, 57, 72
25, 16658, Note_off_c, 12, 57, 64
25, 16787, Note_on_c, 12, 57, 78
25, 16898, Note_off_c, 12, 57, 64
25, 17028, Note_on_c, 12, 45, 82
25, 17147, Note_off_c, 12, 45, 64
25, 17270, Note_on_c, 12, 57, 93
25, 17380, Note_off_c, 12, 57, 64
25, 17505, Note_on_c, 12, 55, 82
25, 17653, Note_off_c, 12, 55, 64
25, 17760, Note_on_c, 12, 54, 66
25, 17874, Note_off_c, 12, 54, 64
25, 17997, Note_on_c, 12, 52, 66
25, 18108, Note_off_c, 12, 52, 64
25, 18226, Note_on_c, 12, 50, 82
25, 18350, Note_off_c, 12, 50, 64
25, 18455, Note_on_c, 12, 47, 80
25, 18574, Note_off_c, 12, 47, 64
25, 18690, Note_on_c, 12, 50, 82
25, 18815, Note_off_c, 12, 50, 64
25, 18937, Note_on_c, 12, 54, 70
25, 19055, Note_off_c, 12, 54, 64
25, 19189, Note_on_c, 12, 59, 91
25, 19300, Note_off_c, 12, 59, 64
25, 19424, Note_on_c, 12, 45, 68
25, 19557, Note_off_c, 12, 45, 64
25, 19658, Note_on_c, 12, 43, 68
25, 19777, Note_off_c, 12, 43, 64
25, 19891, Note_on_c, 12, 42, 63
25, 20027, Note_off_c, 12, 42, 64
25, 20147, Note_on_c, 12, 40, 80
25, 20269, Note_off_c, 12, 40, 64
25, 20380, Note_on_c, 12, 52, 85
25, 20496, Note_off_c, 12, 52, 64
25, 20629, Note_on_c, 12, 50, 78
25, 20751, Note_off_c, 12, 50, 64
25, 20874, Note_on_c, 12, 49, 63
25, 20997, Note_off_c, 12, 49, 64
25, 21113, Note_on_c, 12, 54, 82
25, 21227, Note_off_c, 12, 54, 64
25, 21348, Note_on_c, 12, 42, 66
25, 21466, Note_off_c, 12, 42, 64
25, 21590, Note_on_c, 12, 44, 82
25, 21707, Note_off_c, 12, 44, 64
25, 21825, Note_on_c, 12, 46, 68
25, 21942, Note_off_c, 12, 46, 64
25, 22065, Note_on_c, 12, 38, 82
25, 22193, Note_off_c, 12, 38, 64
25, 22293, Note_on_c, 12, 43, 82
25, 22424, Note_off_c, 12, 43, 64
25, 22536, Note_on_c, 12, 42, 82
25, 22619, Note_off_c, 12, 42, 64
25, 22768, Note_on_c, 12, 54, 62
25, 22880, Note_off_c, 12, 54, 64
25, 23000, Note_on_c, 12, 59, 80
25, 23124, Note_off_c, 12, 59, 64
25, 23235, Note_on_c, 12, 54, 64
25, 23387, Note_off_c, 12, 54, 64
25, 23489, Note_on_c, 12, 50, 78
25, 23597, Note_off_c, 12, 50, 64
25, 23725, Note_on_c, 12, 54, 66
25, 23838, Note_off_c, 12, 54, 64
25, 23978, Note_on_c, 12, 47, 80
25, 24119, Note_off_c, 12, 47, 64
25, 24216, Note_on_c, 12, 59, 89
25, 24342, Note_off_c, 12, 59, 64
25, 24460, Note_on_c, 12, 57, 76
25, 24579, Note_off_c, 12, 57, 64
25, 24691, Note_on_c, 12, 55, 72
25, 24792, Note_off_c, 12, 55, 64
25, 24930, Note_on_c, 12, 54, 63
25, 25047, Note_off_c, 12, 54, 64
25, 25198, Note_on_c, 12, 42, 89
25, 25339, Note_off_c, 12, 42, 64
25, 25429, Note_on_c, 12, 40, 76
25, 25555, Note_off_c, 12, 40, 64
25, 25676, Note_on_c, 12, 38, 80
25, 25789, Note_off_c, 12, 38, 64
25, 25922, Note_on_c, 12, 43, 70
25, 26051, Note_off_c, 12, 43, 64
25, 26158, Note_on_c, 12, 54, 82
25, 26276, Note_off_c, 12, 54, 64
25, 26404, Note_on_c, 12, 52, 64
25, 26518, Note_off_c, 12, 52, 64
25, 26639, Note_on_c, 12, 50, 70
25, 26755, Note_off_c, 12, 50, 64
25, 26889, Note_on_c, 12, 57, 89
25, 26996, Note_off_c, 12, 57, 64
25, 27136, Note_on_c, 12, 49, 72
25, 27219, Note_off_c, 12, 49, 64
25, 27235, Note_on_c, 12, 47, 80
25, 27309, Note_off_c, 12, 47, 64
25, 27352, Note_on_c, 12, 45, 78
25, 27466, Note_off_c, 12, 45, 64
25, 27584, Note_on_c, 12, 43, 72
25, 27703, Note_off_c, 12, 43, 64
25, 27826, Note_on_c, 12, 42, 85
25, 27950, Note_off_c, 12, 42, 64
25, 28068, Note_on_c, 12, 54, 78
25, 28203, Note_off_c, 12, 54, 64
25, 28305, Note_on_c, 12, 55, 74
25, 28436, Note_off_c, 12, 55, 64
25, 28531, Note_on_c, 12, 57, 80
25, 28636, Note_off_c, 12, 57, 64
25, 28773, Note_on_c, 12, 55, 72
25, 28889, Note_off_c, 12, 55, 64
25, 29015, Note_on_c, 12, 52, 82
25, 29129, Note_off_c, 12, 52, 64
25, 29252, Note_on_c, 12, 49, 68
25, 29386, Note_off_c, 12, 49, 64
25, 29487, Note_on_c, 12, 45, 82
25, 29609, Note_off_c, 12, 45, 64
25, 29728, Note_on_c, 12, 50, 82
25, 29853, Note_off_c, 12, 50, 64
25, 29955, Note_on_c, 12, 55, 70
25, 30067, Note_off_c, 12, 55, 64
25, 30205, Note_on_c, 12, 57, 82
25, 30292, Note_off_c, 12, 57, 64
25, 30451, Note_on_c, 12, 45, 80
25, 30525, Note_off_c, 12, 45, 64
25, 30696, Note_on_c, 12, 50, 82
25, 30848, Note_off_c, 12, 50, 64
25, 30952, Note_on_c, 12, 54, 70
25, 31037, Note_off_c, 12, 54, 64
25, 31062, Note_on_c, 12, 57, 87
25, 31149, Note_off_c, 12, 57, 64
25, 31192, Note_on_c, 12, 62, 80
25, 31297, Note_off_c, 12, 62, 64
25, 31425, Note_on_c, 12, 45, 80
25, 31540, Note_off_c, 12, 45, 64
25, 31671, Note_on_c, 12, 57, 82
25, 31788, Note_off_c, 12, 57, 64
25, 31911, Note_on_c, 12, 57, 85
25, 32020, Note_off_c, 12, 57, 64
25, 32148, Note_on_c, 12, 57, 89
25, 32248, Note_off_c, 12, 57, 64
25, 32377, Note_on_c, 12, 45, 72
25, 32515, Note_off_c, 12, 45, 64
25, 32628, Note_on_c, 12, 57, 93
25, 32739, Note_off_c, 12, 57, 64
25, 32851, Note_on_c, 12, 55, 74
25, 32998, Note_off_c, 12, 55, 64
25, 33096, Note_on_c, 12, 54, 63
25, 33224, Note_off_c, 12, 54, 64
25, 33317, Note_on_c, 12, 52, 66
25, 33421, Note_off_c, 12, 52, 64
25, 33573, Note_on_c, 12, 50, 80
25, 33696, Note_off_c, 12, 50, 64
25, 33810, Note_on_c, 12, 47, 80
25, 33941, Note_off_c, 12, 47, 64
25, 34054, Note_on_c, 12, 50, 82
25, 34176, Note_off_c, 12, 50, 64
25, 34290, Note_on_c, 12, 54, 74
25, 34415, Note_off_c, 12, 54, 64
25, 34520, Note_on_c, 12, 59, 85
25, 34646, Note_off_c, 12, 59, 64
25, 34772, Note_on_c, 12, 45, 85
25, 34902, Note_off_c, 12, 45, 64
25, 35008, Note_on_c, 12, 43, 82
25, 35139, Note_off_c, 12, 43, 64
25, 35248, Note_on_c, 12, 42, 76
25, 35370, Note_off_c, 12, 42, 64
25, 35496, Note_on_c, 12, 40, 80
25, 35609, Note_off_c, 12, 40, 64
25, 35733, Note_on_c, 12, 52, 85
25, 35846, Note_off_c, 12, 52, 64
25, 35984, Note_on_c, 12, 50, 82
25, 36138, Note_off_c, 12, 50, 64
25, 36219, Note_on_c, 12, 49, 68
25, 36360, Note_off_c, 12, 49, 64
25, 36463, Note_on_c, 12, 54, 78
25, 36564, Note_off_c, 12, 54, 64
25, 36708, Note_on_c, 12, 42, 68
25, 36815, Note_off_c, 12, 42, 64
25, 36950, Note_on_c, 12, 44, 80
25, 37060, Note_off_c, 12, 44, 64
25, 37183, Note_on_c, 12, 46, 82
25, 37285, Note_off_c, 12, 46, 64
25, 37416, Note_on_c, 12, 38, 89
25, 37536, Note_off_c, 12, 38, 64
25, 37646, Note_on_c, 12, 43, 76
25, 37765, Note_off_c, 12, 43, 64
25, 37895, Note_on_c, 12, 42, 74
25, 38007, Note_off_c, 12, 42, 64
25, 38118, Note_on_c, 12, 54, 72
25, 38239, Note_off_c, 12, 54, 64
25, 38384, Note_on_c, 12, 59, 87
25, 38500, Note_off_c, 12, 59, 64
25, 38616, Note_on_c, 12, 54, 66
25, 38733, Note_off_c, 12, 54, 64
25, 38851, Note_on_c, 12, 50, 74
25, 38960, Note_off_c, 12, 50, 64
25, 39080, Note_on_c, 12, 54, 70
25, 39193, Note_off_c, 12, 54, 64
25, 39331, Note_on_c, 12, 47, 78
25, 39460, Note_off_c, 12, 47, 64
25, 39576, Note_on_c, 12, 59, 87
25, 39691, Note_off_c, 12, 59, 64
25, 39830, Note_on_c, 12, 57, 76
25, 39969, Note_off_c, 12, 57, 64
25, 40065, Note_on_c, 12, 55, 72
25, 40169, Note_off_c, 12, 55, 64
25, 40304, Note_on_c, 12, 54, 68
25, 40420, Note_off_c, 12, 54, 64
25, 40551, Note_on_c, 12, 42, 82
25, 40701, Note_off_c, 12, 42, 64
25, 40789, Note_on_c, 12, 40, 78
25, 40922, Note_off_c, 12, 40, 64
25, 41031, Note_on_c, 12, 38, 80
25, 41133, Note_off_c, 12, 38, 64
25, 41268, Note_on_c, 12, 43, 87
25, 41397, Note_off_c, 12, 43, 64
25, 41512, Note_on_c, 12, 54, 72
25, 41631, Note_off_c, 12, 54, 64
25, 41745, Note_on_c, 12, 52, 80
25, 41864, Note_off_c, 12, 52, 64
25, 41990, Note_on_c, 12, 50, 68
25, 42123, Note_off_c, 12, 50, 64
25, 42236, Note_on_c, 12, 57, 93
25, 42351, Note_off_c, 12, 57, 64
25, 42460, Note_on_c, 12, 49, 68
25, 42562, Note_off_c, 12, 49, 64
25, 42574, Note_on_c, 12, 47, 87
25, 42652, Note_off_c, 12, 47, 64
25, 42702, Note_on_c, 12, 45, 70
25, 42813, Note_off_c, 12, 45, 64
25, 42932, Note_on_c, 12, 43, 80
25, 43039, Note_off_c, 12, 43, 64
25, 43179, Note_on_c, 12, 42, 80
25, 43319, Note_off_c, 12, 42, 64
25, 43423, Note_on_c, 12, 54, 70
25, 43546, Note_off_c, 12, 54, 64
25, 43658, Note_on_c, 12, 55, 78
25, 43770, Note_off_c, 12, 55, 64
25, 43896, Note_on_c, 12, 57, 85
25, 43979, Note_off_c, 12, 57, 64
25, 44124, Note_on_c, 12, 55, 72
25, 44240, Note_off_c, 12, 55, 64
25, 44366, Note_on_c, 12, 52, 78
25, 44479, Note_off_c, 12, 52, 64
25, 44612, Note_on_c, 12, 49, 78
25, 44734, Note_off_c, 12, 49, 64
25, 44867, Note_on_c, 12, 45, 82
25, 44988, Note_off_c, 12, 45, 64
25, 45092, Note_on_c, 12, 50, 80
25, 45213, Note_off_c, 12, 50, 64
25, 45341, Note_on_c, 12, 55, 78
25, 45448, Note_off_c, 12, 55, 64
25, 45574, Note_on_c, 12, 57, 85
25, 45685, Note_off_c, 12, 57, 64
25, 45820, Note_on_c, 12, 45, 82
25, 45918, Note_off_c, 12, 45, 64
25, 46065, Note_on_c, 12, 50, 85
25, 46189, Note_off_c, 12, 50, 64
25, 46302, Note_on_c, 12, 54, 68
25, 46385, Note_off_c, 12, 54, 64
25, 46412, Note_on_c, 12, 57, 85
25, 46494, Note_off_c, 12, 57, 64
25, 46549, Note_on_c, 12, 62, 93
25, 46663, Note_off_c, 12, 62, 64
25, 69827, Note_on_c, 12, 54, 66
25, 69925, Note_off_c, 12, 54, 64
25, 70072, Note_on_c, 12, 59, 72
25, 70579, Note_off_c, 12, 59, 64
25, 70807, Note_on_c, 12, 57, 78
25, 70900, Note_off_c, 12, 57, 64
25, 71049, Note_on_c, 12, 55, 68
25, 71532, Note_off_c, 12, 55, 64
25, 71750, Note_on_c, 12, 52, 68
25, 71875, Note_off_c, 12, 52, 64
25, 71997, Note_on_c, 12, 45, 80
25, 72116, Note_off_c, 12, 45, 64
25, 72231, Note_on_c, 12, 47, 68
25, 72343, Note_off_c, 12, 47, 64
25, 72485, Note_on_c, 12, 48, 85
25, 72585, Note_off_c, 12, 48, 64
25, 72721, Note_on_c, 12, 45, 80
25, 72818, Note_off_c, 12, 45, 64
25, 72961, Note_on_c, 12, 47, 89
25, 73050, Note_off_c, 12, 47, 64
25, 73183, Note_on_c, 12, 54, 68
25, 73278, Note_off_c, 12, 54, 64
25, 73438, Note_on_c, 12, 59, 85
25, 73528, Note_off_c, 12, 59, 64
25, 73691, Note_on_c, 12, 47, 68
25, 73778, Note_off_c, 12, 47, 64
25, 73926, Note_on_c, 12, 52, 80
25, 74410, Note_off_c, 12, 52, 64
25, 74622, Note_on_c, 12, 45, 76
25, 74717, Note_off_c, 12, 45, 64
25, 74880, Note_on_c, 12, 57, 80
25, 75360, Note_off_c, 12, 57, 64
25, 75588, Note_on_c, 12, 51, 74
25, 75697, Note_off_c, 12, 51, 64
25, 75837, Note_on_c, 12, 52, 76
25, 75942, Note_off_c, 12, 52, 64
25, 76078, Note_on_c, 12, 48, 70
25, 76179, Note_off_c, 12, 48, 64
25, 76320, Note_on_c, 12, 45, 85
25, 76435, Note_off_c, 12, 45, 64
25, 76551, Note_on_c, 12, 47, 70
25, 76652, Note_off_c, 12, 47, 64
25, 76798, Note_on_c, 12, 40, 66
25, 76913, Note_off_c, 12, 40, 64
25, 77027, Note_on_c, 12, 47, 66
25, 77138, Note_off_c, 12, 47, 64
25, 77275, Note_on_c, 12, 52, 72
25, 77371, Note_off_c, 12, 52, 64
25, 77508, Note_on_c, 12, 40, 64
25, 77612, Note_off_c, 12, 40, 64
25, 77765, Note_on_c, 12, 45, 64
25, 78275, Note_off_c, 12, 45, 64
25, 78465, Note_on_c, 12, 49, 64
25, 78555, Note_off_c, 12, 49, 64
25, 78717, Note_on_c, 12, 50, 78
25, 79196, Note_off_c, 12, 50, 64
25, 79419, Note_on_c, 12, 62, 76
25, 79519, Note_off_c, 12, 62, 64
25, 79666, Note_on_c, 12, 61, 66
25, 79787, Note_off_c, 12, 61, 64
25, 79896, Note_on_c, 12, 59, 68
25, 80029, Note_off_c, 12, 59, 64
25, 80136, Note_on_c, 12, 58, 59
25, 80255, Note_off_c, 12, 58, 64
25, 80378, Note_on_c, 12, 59, 80
25, 80482, Note_off_c, 12, 59, 64
25, 80622, Note_on_c, 12, 54, 68
25, 80751, Note_off_c, 12, 54, 64
25, 80872, Note_on_c, 12, 52, 72
25, 80967, Note_off_c, 12, 52, 64
25, 81118, Note_on_c, 12, 50, 76
25, 81233, Note_off_c, 12, 50, 64
25, 81349, Note_on_c, 12, 47, 85
25, 81474, Note_off_c, 12, 47, 64
25, 81598, Note_on_c, 12, 52, 74
25, 82073, Note_off_c, 12, 52, 64
25, 82303, Note_on_c, 12, 49, 76
25, 82407, Note_off_c, 12, 49, 64
25, 82560, Note_on_c, 12, 50, 80
25, 83053, Note_off_c, 12, 50, 64
25, 83274, Note_on_c, 12, 46, 82
25, 83374, Note_off_c, 12, 46, 64
25, 83513, Note_on_c, 12, 47, 80
25, 83630, Note_off_c, 12, 47, 64
25, 83742, Note_on_c, 12, 43, 82
25, 83843, Note_off_c, 12, 43, 64
25, 83986, Note_on_c, 12, 40, 78
25, 84090, Note_off_c, 12, 40, 64
25, 84216, Note_on_c, 12, 42, 68
25, 84330, Note_off_c, 12, 42, 64
25, 84485, Note_on_c, 12, 47, 70
25, 84959, Note_off_c, 12, 47, 64
25, 85185, Note_on_c, 12, 54, 72
25, 85272, Note_off_c, 12, 54, 64
25, 85441, Note_on_c, 12, 59, 68
25, 85944, Note_off_c, 12, 59, 64
25, 86153, Note_on_c, 12, 57, 80
25, 86255, Note_off_c, 12, 57, 64
25, 86400, Note_on_c, 12, 55, 66
25, 86877, Note_off_c, 12, 55, 64
25, 87099, Note_on_c, 12, 52, 56
25, 87221, Note_off_c, 12, 52, 64
25, 87349, Note_on_c, 12, 45, 70
25, 87482, Note_off_c, 12, 45, 64
25, 87587, Note_on_c, 12, 47, 78
25, 87698, Note_off_c, 12, 47, 64
25, 87819, Note_on_c, 12, 48, 72
25, 87935, Note_off_c, 12, 48, 64
25, 88069, Note_on_c, 12, 45, 72
25, 88170, Note_off_c, 12, 45, 64
25, 88315, Note_on_c, 12, 47, 78
25, 88446, Note_off_c, 12, 47, 64
25, 88567, Note_on_c, 12, 54, 68
25, 88666, Note_off_c, 12, 54, 64
25, 88807, Note_on_c, 12, 59, 85
25, 88888, Note_off_c, 12, 59, 64
25, 89040, Note_on_c, 12, 47, 68
25, 89136, Note_off_c, 12, 47, 64
25, 89286, Note_on_c, 12, 52, 74
25, 89742, Note_off_c, 12, 52, 64
25, 89996, Note_on_c, 12, 45, 80
25, 90108, Note_off_c, 12, 45, 64
25, 90252, Note_on_c, 12, 57, 74
25, 90717, Note_off_c, 12, 57, 64
25, 90934, Note_on_c, 12, 51, 78
25, 91050, Note_off_c, 12, 51, 64
25, 91176, Note_on_c, 12, 52, 76
25, 91292, Note_off_c, 12, 52, 64
25, 91418, Note_on_c, 12, 48, 82
25, 91524, Note_off_c, 12, 48, 64
25, 91672, Note_on_c, 12, 45, 70
25, 91772, Note_off_c, 12, 45, 64
25, 91899, Note_on_c, 12, 47, 78
25, 92004, Note_off_c, 12, 47, 64
25, 92149, Note_on_c, 12, 40, 76
25, 92280, Note_off_c, 12, 40, 64
25, 92395, Note_on_c, 12, 47, 68
25, 92502, Note_off_c, 12, 47, 64
25, 92621, Note_on_c, 12, 52, 72
25, 92742, Note_off_c, 12, 52, 64
25, 92854, Note_on_c, 12, 40, 76
25, 92949, Note_off_c, 12, 40, 64
25, 93106, Note_on_c, 12, 45, 62
25, 93590, Note_off_c, 12, 45, 64
25, 93813, Note_on_c, 12, 49, 66
25, 93908, Note_off_c, 12, 49, 64
25, 94081, Note_on_c, 12, 50, 70
25, 94561, Note_off_c, 12, 50, 64
25, 94793, Note_on_c, 12, 62, 80
25, 94890, Note_off_c, 12, 62, 64
25, 95031, Note_on_c, 12, 61, 70
25, 95146, Note_off_c, 12, 61, 64
25, 95258, Note_on_c, 12, 59, 82
25, 95379, Note_off_c, 12, 59, 64
25, 95500, Note_on_c, 12, 58, 60
25, 95624, Note_off_c, 12, 58, 64
25, 95736, Note_on_c, 12, 59, 70
25, 95868, Note_off_c, 12, 59, 64
25, 95985, Note_on_c, 12, 54, 72
25, 96118, Note_off_c, 12, 54, 64
25, 96236, Note_on_c, 12, 52, 62
25, 96357, Note_off_c, 12, 52, 64
25, 96469, Note_on_c, 12, 50, 82
25, 96602, Note_off_c, 12, 50, 64
25, 96709, Note_on_c, 12, 47, 78
25, 96823, Note_off_c, 12, 47, 64
25, 96964, Note_on_c, 12, 52, 70
25, 97451, Note_off_c, 12, 52, 64
25, 97667, Note_on_c, 12, 49, 72
25, 97773, Note_off_c, 12, 49, 64
25, 97916, Note_on_c, 12, 50, 82
25, 98405, Note_off_c, 12, 50, 64
25, 98624, Note_on_c, 12, 46, 72
25, 98731, Note_off_c, 12, 46, 64
25, 98868, Note_on_c, 12, 47, 78
25, 98983, Note_off_c, 12, 47, 64
25, 99094, Note_on_c, 12, 43, 80
25, 99215, Note_off_c, 12, 43, 64
25, 99332, Note_on_c, 12, 40, 78
25, 99429, Note_off_c, 12, 40, 64
25, 99583, Note_on_c, 12, 42, 72
25, 99680, Note_off_c, 12, 42, 64
25, 99841, Note_on_c, 12, 47, 72
25, 100390, Note_off_c, 12, 47, 64
25, 115922, Note_on_c, 12, 45, 72
25, 116038, Note_off_c, 12, 45, 64
25, 116159, Note_on_c, 12, 57, 78
25, 116271, Note_off_c, 12, 57, 64
25, 116387, Note_on_c, 12, 57, 72
25, 116498, Note_off_c, 12, 57, 64
25, 116627, Note_on_c, 12, 57, 78
25, 116738, Note_off_c, 12, 57, 64
25, 116868, Note_on_c, 12, 45, 82
25, 116987, Note_off_c, 12, 45, 64
25, 117110, Note_on_c, 12, 57, 93
25, 117220, Note_off_c, 12, 57, 64
25, 117345, Note_on_c, 12, 55, 82
25, 117493, Note_off_c, 12, 55, 64
25, 117600, Note_on_c, 12, 54, 66
25, 117714, Note_off_c, 12, 54, 64
25, 117837, Note_on_c, 12, 52, 66
25, 117948, Note_off_c, 12, 52, 64
25, 118066, Note_on_c, 12, 50, 82
25, 118190, Note_off_c, 12, 50, 64
25, 118295, Note_on_c, 12, 47, 80
25, 118414, Note_off_c, 12, 47, 64
25, 118530, Note_on_c, 12, 50, 82
25, 118655, Note_off_c, 12, 50, 64
25, 118777, Note_on_c, 12, 54, 70
25, 118895, Note_off_c, 12, 54, 64
25, 119029, Note_on_c, 12, 59, 91
25, 119140, Note_off_c, 12, 59, 64
25, 119264, Note_on_c, 12, 45, 68
25, 119397, Note_off_c, 12, 45, 64
25, 119498, Note_on_c, 12, 43, 68
25, 119617, Note_off_c, 12, 43, 64
25, 119731, Note_on_c, 12, 42, 63
25, 119867, Note_off_c, 12, 42, 64
25, 119987, Note_on_c, 12, 40, 80
25, 120109, Note_off_c, 12, 40, 64
25, 120220, Note_on_c, 12, 52, 85
25, 120336, Note_off_c, 12, 52, 64
25, 120469, Note_on_c, 12, 50, 78
25, 120591, Note_off_c, 12, 50, 64
25, 120714, Note_on_c, 12, 49, 63
25, 120837, Note_off_c, 12, 49, 64
25, 120953, Note_on_c, 12, 54, 82
25, 121067, Note_off_c, 12, 54, 64
25, 121188, Note_on_c, 12, 42, 66
25, 121306, Note_off_c, 12, 42, 64
25, 121430, Note_on_c, 12, 44, 82
25, 121547, Note_off_c, 12, 44, 64
25, 121665, Note_on_c, 12, 46, 68
25, 121782, Note_off_c, 12, 46, 64
25, 121905, Note_on_c, 12, 38, 82
25, 122033, Note_off_c, 12, 38, 64
25, 122133, Note_on_c, 12, 43, 82
25, 122264, Note_off_c, 12, 43, 64
25, 122376, Note_on_c, 12, 42, 82
25, 122459, Note_off_c, 12, 42, 64
25, 122608, Note_on_c, 12, 54, 62
25, 122720, Note_off_c, 12, 54, 64
25, 122840, Note_on_c, 12, 59, 80
25, 122964, Note_off_c, 12, 59, 64
25, 123075, Note_on_c, 12, 54, 64
25, 123227, Note_off_c, 12, 54, 64
25, 123329, Note_on_c, 12, 50, 78
25, 123437, Note_off_c, 12, 50, 64
25, 123565, Note_on_c, 12, 54, 66
25, 123678, Note_off_c, 12, 54, 64
25, 123818, Note_on_c, 12, 47, 80
25, 123959, Note_off_c, 12, 47, 64
25, 124056, Note_on_c, 12, 59, 89
25, 124182, Note_off_c, 12, 59, 64
25, 124300, Note_on_c, 12, 57, 76
25, 124419, Note_off_c, 12, 57, 64
25, 124531, Note_on_c, 12, 55, 72
25, 124632, Note_off_c, 12, 55, 64
25, 124770, Note_on_c, 12, 54, 63
25, 124887, Note_off_c, 12, 54, 64
25, 125038, Note_on_c, 12, 42, 89
25, 125179, Note_off_c, 12, 42, 64
25, 125269, Note_on_c, 12, 40, 76
25, 125395, Note_off_c, 12, 40, 64
25, 125516, Note_on_c, 12, 38, 80
25, 125629, Note_off_c, 12, 38, 64
25, 125762, Note_on_c, 12, 43, 70
25, 125891, Note_off_c, 12, 43, 64
25, 125998, Note_on_c, 12, 54, 82
25, 126116, Note_off_c, 12, 54, 64
25, 126244, Note_on_c, 12, 52, 64
25, 126358, Note_off_c, 12, 52, 64
25, 126479, Note_on_c, 12, 50, 70
25, 126595, Note_off_c, 12, 50, 64
25, 126729, Note_on_c, 12, 57, 89
25, 126836, Note_off_c, 12, 57, 64
25, 126976, Note_on_c, 12, 49, 72
25, 127059, Note_off_c, 12, 49, 64
25, 127075, Note_on_c, 12, 47, 80
25, 127149, Note_off_c, 12, 47, 64
25, 127192, Note_on_c, 12, 45, 78
25, 127306, Note_off_c, 12, 45, 64
25, 127424, Note_on_c, 12, 43, 72
25, 127543, Note_off_c, 12, 43, 64
25, 127666, Note_on_c, 12, 42, 85
25, 127790, Note_off_c, 12, 42, 64
25, 127908, Note_on_c, 12, 54, 78
25, 128043, Note_off_c, 12, 54, 64
25, 128145, Note_on_c, 12, 55, 74
25, 128276, Note_off_c, 12, 55, 64
25, 128371, Note_on_c, 12, 57, 80
25, 128476, Note_off_c, 12, 57, 64
25, 128613, Note_on_c, 12, 55, 72
25, 128729, Note_off_c, 12, 55, 64
25, 128855, Note_on_c, 12, 52, 82
25, 128969, Note_off_c, 12, 52, 64
25, 129092, Note_on_c, 12, 49, 68
25, 129226, Note_off_c, 12, 49, 64
25, 129327, Note_on_c, 12, 45, 82
25, 129449, Note_off_c, 12, 45, 64
25, 129568, Note_on_c, 12, 50, 82
25, 129693, Note_off_c, 12, 50, 64
25, 129795, Note_on_c, 12, 55, 70
25, 129907, Note_off_c, 12, 55, 64
25, 130045, Note_on_c, 12, 57, 82
25, 130132, Note_off_c, 12, 57, 64
25, 130291, Note_on_c, 12, 45, 80
25, 130365, Note_off_c, 12, 45, 64
25, 130536, Note_on_c, 12, 50, 82
25, 130688, Note_off_c, 12, 50, 64
25, 130792, Note_on_c, 12, 54, 70
25, 130877, Note_off_c, 12, 54, 64
25, 130902, Note_on_c, 12, 57, 87
25, 130989, Note_off_c, 12, 57, 64
25, 131032, Note_on_c, 12, 62, 80
25, 131137, Note_off_c, 12, 62, 64
25, 131265, Note_on_c, 12, 45, 80
25, 131380, Note_off_c, 12, 45, 64
25, 131511, Note_on_c, 12, 57, 82
25, 131628, Note_off_c, 12, 57, 64
25, 131751, Note_on_c, 12, 57, 85
25, 131860, Note_off_c, 12, 57, 64
25, 131988, Note_on_c, 12, 57, 89
25, 132088, Note_off_c, 12, 57, 64
25, 132217, Note_on_c, 12, 45, 72
25, 132355, Note_off_c, 12, 45, 64
25, 132468, Note_on_c, 12, 57, 93
25, 132579, Note_off_c, 12, 57, 64
25, 132691, Note_on_c, 12, 55, 74
25, 132838, Note_off_c, 12, 55, 64
25, 132936, Note_on_c, 12, 54, 63
25, 133064, Note_off_c, 12, 54, 64
25, 133157, Note_on_c, 12, 52, 66
25, 133261, Note_off_c, 12, 52, 64
25, 133413, Note_on_c, 12, 50, 80
25, 133536, Note_off_c, 12, 50, 64
25, 133650, Note_on_c, 12, 47, 80
25, 133781, Note_off_c, 12, 47, 64
25, 133894, Note_on_c, 12, 50, 82
25, 134016, Note_off_c, 12, 50, 64
25, 134130, Note_on_c, 12, 54, 74
25, 134255, Note_off_c, 12, 54, 64
25, 134360, Note_on_c, 12, 59, 85
25, 134486, Note_off_c, 12, 59, 64
25, 134612, Note_on_c, 12, 45, 85
25, 134742, Note_off_c, 12, 45, 64
25, 134848, Note_on_c, 12, 43, 82
25, 134979, Note_off_c, 12, 43, 64
25, 135088, Note_on_c, 12, 42, 76
25, 135210, Note_off_c, 12, 42, 64
25, 135336, Note_on_c, 12, 40, 80
25, 135449, Note_off_c, 12, 40, 64
25, 135573, Note_on_c, 12, 52, 85
25, 135686, Note_off_c, 12, 52, 64
25, 135824, Note_on_c, 12, 50, 82
25, 135978, Note_off_c, 12, 50, 64
25, 136059, Note_on_c, 12, 49, 68
25, 136200, Note_off_c, 12, 49, 64
25, 136303, Note_on_c, 12, 54, 78
25, 136404, Note_off_c, 12, 54, 64
25, 136548, Note_on_c, 12, 42, 68
25, 136655, Note_off_c, 12, 42, 64
25, 136790, Note_on_c, 12, 44, 80
25, 136900, Note_off_c, 12, 44, 64
25, 137023, Note_on_c, 12, 46, 82
25, 137125, Note_off_c, 12, 46, 64
25, 137256, Note_on_c, 12, 38, 89
25, 137376, Note_off_c, 12, 38, 64
25, 137486, Note_on_c, 12, 43, 76
25, 137605, Note_off_c, 12, 43, 64
25, 137735, Note_on_c, 12, 42, 74
25, 137847, Note_off_c, 12, 42, 64
25, 137958, Note_on_c, 12, 54, 72
25, 138079, Note_off_c, 12, 54, 64
25, 138224, Note_on_c, 12, 59, 87
25, 138340, Note_off_c, 12, 59, 64
25, 138456, Note_on_c, 12, 54, 66
25, 138573, Note_off_c, 12, 54, 64
25, 138691, Note_on_c, 12, 50, 74
25, 138800, Note_off_c, 12, 50, 64
25, 138920, Note_on_c, 12, 54, 70
25, 139033, Note_off_c, 12, 54, 64
25, 139171, Note_on_c, 12, 47, 78
25, 139300, Note_off_c, 12, 47, 64
25, 139416, Note_on_c, 12, 59, 87
25, 139531, Note_off_c, 12, 59, 64
25, 139670, Note_on_c, 12, 57, 76
25, 139809, Note_off_c, 12, 57, 64
25, 139905, Note_on_c, 12, 55, 72
25, 140009, Note_off_c, 12, 55, 64
25, 140144, Note_on_c, 12, 54, 68
25, 140260, Note_off_c, 12, 54, 64
25, 140391, Note_on_c, 12, 42, 82
25, 140541, Note_off_c, 12, 42, 64
25, 140629, Note_on_c, 12, 40, 78
25, 140762, Note_off_c, 12, 40, 64
25, 140871, Note_on_c, 12, 38, 80
25, 140973, Note_off_c, 12, 38, 64
25, 141108, Note_on_c, 12, 43, 87
25, 141237, Note_off_c, 12, 43, 64
25, 141352, Note_on_c, 12, 54, 72
25, 141471, Note_off_c, 12, 54, 64
25, 141585, Note_on_c, 12, 52, 80
25, 141704, Note_off_c, 12, 52, 64
25, 141830, Note_on_c, 12, 50, 68
25, 141963, Note_off_c, 12, 50, 64
25, 142076, Note_on_c, 12, 57, 93
25, 142191, Note_off_c, 12, 57, 64
25, 142300, Note_on_c, 12, 49, 68
25, 142402, Note_off_c, 12, 49, 64
25, 142414, Note_on_c, 12, 47, 87
25, 142492, Note_off_c, 12, 47, 64
25, 142542, Note_on_c, 12, 45, 70
25, 142653, Note_off_c, 12, 45, 64
25, 142772, Note_on_c, 12, 43, 80
25, 142879, Note_off_c, 12, 43, 64
25, 143019, Note_on_c, 12, 42, 80
25, 143159, Note_off_c, 12, 42, 64
25, 143263, Note_on_c, 12, 54, 70
25, 143386, Note_off_c, 12, 54, 64
25, 143498, Note_on_c, 12, 55, 78
25, 143610, Note_off_c, 12, 55, 64
25, 143736, Note_on_c, 12, 57, 85
25, 143819, Note_off_c, 12, 57, 64
25, 143964, Note_on_c, 12, 55, 72
25, 144080, Note_off_c, 12, 55, 64
25, 144206, Note_on_c, 12, 52, 78
25, 144319, Note_off_c, 12, 52, 64
25, 144452, Note_on_c, 12, 49, 78
25, 144574, Note_off_c, 12, 49, 64
25, 144707, Note_on_c, 12, 45, 82
25, 144828, Note_off_c, 12, 45, 64
25, 144932, Note_on_c, 12, 50, 80
25, 145053, Note_off_c, 12, 50, 64
25, 145181, Note_on_c, 12, 55, 78
25, 145288, Note_off_c, 12, 55, 64
25, 145414, Note_on_c, 12, 57, 85
25, 145525, Note_off_c, 12, 57, 64
25, 145660, Note_on_c, 12, 45, 82
25, 145758, Note_off_c, 12, 45, 64
25, 145905, Note_on_c, 12, 50, 85
25, 146029, Note_off_c, 12, 50, 64
25, 146142, Note_on_c, 12, 54, 68
25, 146225, Note_off_c, 12, 54, 64
25, 146252, Note_on_c, 12, 57, 85
25, 146334, Note_off_c, 12, 57, 64
25, 146389, Note_on_c, 12, 62, 93
25, 146503, Note_off_c, 12, 62, 64
25, 146503, End_track
0, 0, End_of_file
