0, 0, Header, 1, 15, 240
1, 0, Start_track
1, 0, Time_signature, 2, 1, 48, 8
1, 0, Tempo, 277778
1, 0, Marker_t, "Bourrée 1"
1, 46080, Tempo, 300000
1, 47040, Marker_t, "Bourrée 2"
1, 91680, Tempo, 329670
1, 91920, Tempo, 301508
1, 92160, Tempo, 277778
1, 92700, Tempo, 312500
1, 92916, Tempo, 280374
1, 93120, Tempo, 277778
1, 93120, Marker_t, "Bourrée 1 Repeat"
1, 137628, Tempo, 317460
1, 137892, Tempo, 333333
1, 138048, Tempo, 359281
1, 138132, Tempo, 422535
1, 138240, Tempo, 277778
1, 138240, End_track
2, 0, Start_track
2, 0, Title_t, "Violin1"
2, 0, Program_c, 0, 40
2, 0, Control_c, 0, 7, 100
2, 735, Note_on_c, 0, 64, 91
2, 819, Note_off_c, 0, 64, 64
2, 826, Note_on_c, 0, 65, 91
2, 912, Note_off_c, 0, 65, 64
2, 953, Note_on_c, 0, 67, 100
2, 1049, Note_off_c, 0, 67, 64
2, 1200, Note_on_c, 0, 72, 91
2, 1493, Note_off_c, 0, 72, 64
2, 1661, Note_on_c, 0, 67, 87
2, 1740, Note_off_c, 0, 67, 64
2, 1903, Note_on_c, 0, 64, 95
2, 2009, Note_off_c, 0, 64, 64
2, 2009, Note_on_c, 0, 62, 85
2, 2103, Note_off_c, 0, 62, 64
2, 2122, Note_on_c, 0, 64, 82
2, 2237, Note_off_c, 0, 64, 64
2, 2237, Note_on_c, 0, 65, 98
2, 2331, Note_off_c, 0, 65, 64
2, 2371, Note_on_c, 0, 67, 89
2, 2544, Note_off_c, 0, 67, 64
2, 2610, Note_on_c, 0, 69, 82
2, 2707, Note_off_c, 0, 69, 64
2, 2712, Note_on_c, 0, 71, 80
2, 2818, Note_off_c, 0, 71, 64
2, 2837, Note_on_c, 0, 72, 87
2, 2919, Note_off_c, 0, 72, 64
2, 2959, Note_on_c, 0, 74, 100
2, 3053, Note_off_c, 0, 74, 64
2, 3072, Note_on_c, 0, 76, 85
2, 3163, Note_off_c, 0, 76, 64
2, 3197, Note_on_c, 0, 77, 100
2, 3284, Note_off_c, 0, 77, 64
2, 3324, Note_on_c, 0, 79, 98
2, 3427, Note_off_c, 0, 79, 64
2, 3583, Note_on_c, 0, 81, 100
2, 3679, Note_off_c, 0, 81, 64
2, 3816, Note_on_c, 0, 74, 105
2, 3927, Note_off_c, 0, 74, 64
2, 3927, Note_on_c, 0, 72, 87
2, 4025, Note_off_c, 0, 72, 64
2, 4042, Note_on_c, 0, 74, 91
2, 4150, Note_off_c, 0, 74, 64
2, 4164, Note_on_c, 0, 76, 87
2, 4248, Note_off_c, 0, 76, 64
2, 4291, Note_on_c, 0, 74, 102
2, 4479, Note_off_c, 0, 74, 64
2, 4531, Note_on_c, 0, 76, 80
2, 4620, Note_off_c, 0, 76, 64
2, 4644, Note_on_c, 0, 78, 87
2, 4733, Note_off_c, 0, 78, 64
2, 4785, Note_on_c, 0, 79, 105
2, 4947, Note_off_c, 0, 79, 64
2, 5021, Note_on_c, 0, 71, 85
2, 5105, Note_off_c, 0, 71, 64
2, 5119, Note_on_c, 0, 72, 82
2, 5206, Note_off_c, 0, 72, 64
2, 5254, Note_on_c, 0, 74, 102
2, 5400, Note_off_c, 0, 74, 64
2, 5501, Note_on_c, 0, 76, 93
2, 5587, Note_off_c, 0, 76, 64
2, 5609, Note_on_c, 0, 78, 66
2, 5698, Note_off_c, 0, 78, 64
2, 5746, Note_on_c, 0, 79, 107
2, 5887, Note_off_c, 0, 79, 64
2, 5971, Note_on_c, 0, 69, 89
2, 6065, Note_off_c, 0, 69, 64
2, 6077, Note_on_c, 0, 71, 80
2, 6166, Note_off_c, 0, 71, 64
2, 6221, Note_on_c, 0, 72, 100
2, 6353, Note_off_c, 0, 72, 64
2, 6475, Note_on_c, 0, 74, 95
2, 6571, Note_off_c, 0, 74, 64
2, 6718, Note_on_c, 0, 71, 100
2, 6975, Note_off_c, 0, 71, 64
2, 7049, Note_on_c, 0, 69, 64
2, 7116, Note_off_c, 0, 69, 64
2, 7157, Note_on_c, 0, 71, 85
2, 7210, Note_off_c, 0, 71, 64
2, 7212, Note_on_c, 0, 69, 78
2, 7263, Note_on_c, 0, 71, 93
2, 7268, Note_off_c, 0, 69, 64
2, 7289, Note_on_c, 0, 72, 50
2, 7303, Note_off_c, 0, 72, 64
2, 7339, Note_on_c, 0, 69, 74
2, 7354, Note_off_c, 0, 71, 64
2, 7467, Note_off_c, 0, 69, 64
2, 7522, Note_on_c, 0, 67, 82
2, 7594, Note_off_c, 0, 67, 64
2, 7638, Note_on_c, 0, 67, 89
2, 8131, Note_off_c, 0, 67, 64
2, 8379, Note_on_c, 0, 64, 89
2, 8472, Note_off_c, 0, 64, 64
2, 8472, Note_on_c, 0, 65, 87
2, 8561, Note_off_c, 0, 65, 64
2, 8604, Note_on_c, 0, 67, 100
2, 8691, Note_off_c, 0, 67, 64
2, 8856, Note_on_c, 0, 72, 87
2, 9147, Note_off_c, 0, 72, 64
2, 9339, Note_on_c, 0, 67, 89
2, 9423, Note_off_c, 0, 67, 64
2, 9581, Note_on_c, 0, 64, 87
2, 9685, Note_on_c, 0, 62, 80
2, 9689, Note_off_c, 0, 64, 64
2, 9792, Note_on_c, 0, 64, 80
2, 9819, Note_off_c, 0, 62, 64
2, 9898, Note_on_c, 0, 65, 82
2, 9903, Note_off_c, 0, 64, 64
2, 9989, Note_off_c, 0, 65, 64
2, 10039, Note_on_c, 0, 67, 95
2, 10215, Note_off_c, 0, 67, 64
2, 10272, Note_on_c, 0, 69, 78
2, 10383, Note_on_c, 0, 71, 85
2, 10385, Note_off_c, 0, 69, 64
2, 10500, Note_off_c, 0, 71, 64
2, 10510, Note_on_c, 0, 72, 87
2, 10618, Note_off_c, 0, 72, 64
2, 10639, Note_on_c, 0, 74, 100
2, 10739, Note_off_c, 0, 74, 64
2, 10759, Note_on_c, 0, 76, 80
2, 10855, Note_off_c, 0, 76, 64
2, 10882, Note_on_c, 0, 77, 93
2, 10963, Note_off_c, 0, 77, 64
2, 11014, Note_on_c, 0, 79, 95
2, 11122, Note_off_c, 0, 79, 64
2, 11261, Note_on_c, 0, 81, 85
2, 11359, Note_off_c, 0, 81, 64
2, 11494, Note_on_c, 0, 74, 102
2, 11604, Note_off_c, 0, 74, 64
2, 11609, Note_on_c, 0, 72, 85
2, 11712, Note_off_c, 0, 72, 64
2, 11727, Note_on_c, 0, 74, 85
2, 11823, Note_off_c, 0, 74, 64
2, 11844, Note_on_c, 0, 76, 78
2, 11935, Note_off_c, 0, 76, 64
2, 11974, Note_on_c, 0, 74, 102
2, 12154, Note_off_c, 0, 74, 64
2, 12214, Note_on_c, 0, 76, 85
2, 12300, Note_off_c, 0, 76, 64
2, 12323, Note_on_c, 0, 78, 70
2, 12418, Note_off_c, 0, 78, 64
2, 12463, Note_on_c, 0, 79, 105
2, 12622, Note_off_c, 0, 79, 64
2, 12691, Note_on_c, 0, 71, 78
2, 12783, Note_off_c, 0, 71, 64
2, 12797, Note_on_c, 0, 72, 82
2, 12883, Note_off_c, 0, 72, 64
2, 12934, Note_on_c, 0, 74, 102
2, 13078, Note_off_c, 0, 74, 64
2, 13176, Note_on_c, 0, 76, 85
2, 13265, Note_off_c, 0, 76, 64
2, 13284, Note_on_c, 0, 78, 80
2, 13373, Note_off_c, 0, 78, 64
2, 13419, Note_on_c, 0, 79, 107
2, 13558, Note_off_c, 0, 79, 64
2, 13642, Note_on_c, 0, 69, 76
2, 13733, Note_off_c, 0, 69, 64
2, 13755, Note_on_c, 0, 71, 87
2, 13851, Note_off_c, 0, 71, 64
2, 13906, Note_on_c, 0, 72, 102
2, 14014, Note_off_c, 0, 72, 64
2, 14158, Note_on_c, 0, 74, 98
2, 14247, Note_off_c, 0, 74, 64
2, 14400, Note_on_c, 0, 71, 102
2, 14676, Note_off_c, 0, 71, 64
2, 14734, Note_on_c, 0, 69, 82
2, 14803, Note_off_c, 0, 69, 64
2, 14851, Note_on_c, 0, 71, 87
2, 14899, Note_on_c, 0, 69, 87
2, 14907, Note_off_c, 0, 71, 64
2, 14967, Note_off_c, 0, 69, 64
2, 14967, Note_on_c, 0, 71, 82
2, 15019, Note_on_c, 0, 69, 78
2, 15048, Note_off_c, 0, 71, 64
2, 15147, Note_off_c, 0, 69, 64
2, 15190, Note_on_c, 0, 67, 85
2, 15257, Note_off_c, 0, 67, 64
2, 15324, Note_on_c, 0, 67, 98
2, 15797, Note_off_c, 0, 67, 64
2, 31460, Note_on_c, 0, 71, 100
2, 31544, Note_off_c, 0, 71, 64
2, 31559, Note_on_c, 0, 72, 89
2, 31650, Note_off_c, 0, 72, 64
2, 31679, Note_on_c, 0, 74, 93
2, 31777, Note_off_c, 0, 74, 64
2, 31936, Note_on_c, 0, 79, 85
2, 32192, Note_off_c, 0, 79, 64
2, 32404, Note_on_c, 0, 82, 110
2, 32500, Note_off_c, 0, 82, 64
2, 32646, Note_on_c, 0, 73, 62
2, 32754, Note_on_c, 0, 71, 82
2, 32768, Note_off_c, 0, 73, 64
2, 32879, Note_on_c, 0, 73, 56
2, 32894, Note_off_c, 0, 71, 64
2, 32989, Note_on_c, 0, 74, 85
2, 32999, Note_off_c, 0, 73, 64
2, 33100, Note_off_c, 0, 74, 64
2, 33120, Note_on_c, 0, 76, 100
2, 33272, Note_off_c, 0, 76, 64
2, 33342, Note_on_c, 0, 77, 66
2, 33455, Note_off_c, 0, 77, 64
2, 33458, Note_on_c, 0, 79, 68
2, 33560, Note_off_c, 0, 79, 64
2, 33599, Note_on_c, 0, 81, 89
2, 33702, Note_off_c, 0, 81, 64
2, 33707, Note_on_c, 0, 79, 59
2, 33798, Note_off_c, 0, 79, 64
2, 33820, Note_on_c, 0, 81, 66
2, 33949, Note_on_c, 0, 82, 80
2, 33956, Note_off_c, 0, 81, 64
2, 34033, Note_off_c, 0, 82, 64
2, 34064, Note_on_c, 0, 81, 82
2, 34192, Note_off_c, 0, 81, 64
2, 34199, Note_on_c, 0, 79, 78
2, 34302, Note_off_c, 0, 79, 64
2, 34314, Note_on_c, 0, 77, 64
2, 34408, Note_off_c, 0, 77, 64
2, 34424, Note_on_c, 0, 76, 63
2, 34506, Note_off_c, 0, 76, 64
2, 34554, Note_on_c, 0, 77, 102
2, 34672, Note_on_c, 0, 79, 78
2, 34679, Note_off_c, 0, 77, 64
2, 34794, Note_on_c, 0, 77, 66
2, 34804, Note_off_c, 0, 79, 64
2, 34895, Note_off_c, 0, 77, 64
2, 34907, Note_on_c, 0, 76, 72
2, 35000, Note_off_c, 0, 76, 64
2, 35032, Note_on_c, 0, 74, 87
2, 35184, Note_off_c, 0, 74, 64
2, 35267, Note_on_c, 0, 83, 82
2, 35382, Note_off_c, 0, 83, 64
2, 35387, Note_on_c, 0, 84, 78
2, 35473, Note_off_c, 0, 84, 64
2, 35504, Note_on_c, 0, 86, 100
2, 35640, Note_off_c, 0, 86, 64
2, 35735, Note_on_c, 0, 80, 63
2, 35836, Note_off_c, 0, 80, 64
2, 35843, Note_on_c, 0, 81, 82
2, 35929, Note_off_c, 0, 81, 64
2, 35982, Note_on_c, 0, 83, 100
2, 36124, Note_off_c, 0, 83, 64
2, 36229, Note_on_c, 0, 74, 89
2, 36320, Note_off_c, 0, 74, 64
2, 36344, Note_on_c, 0, 76, 72
2, 36440, Note_off_c, 0, 76, 64
2, 36472, Note_on_c, 0, 77, 102
2, 36590, Note_off_c, 0, 77, 64
2, 36702, Note_on_c, 0, 71, 80
2, 36808, Note_off_c, 0, 71, 64
2, 36829, Note_on_c, 0, 72, 66
2, 36944, Note_off_c, 0, 72, 64
2, 36952, Note_on_c, 0, 74, 76
2, 37036, Note_off_c, 0, 74, 64
2, 37184, Note_on_c, 0, 68, 87
2, 37290, Note_off_c, 0, 68, 64
2, 37408, Note_on_c, 0, 69, 87
2, 37679, Note_off_c, 0, 69, 64
2, 37751, Note_on_c, 0, 71, 80
2, 37830, Note_off_c, 0, 71, 64
2, 37883, Note_on_c, 0, 72, 91
2, 37948, Note_on_c, 0, 71, 85
2, 37950, Note_off_c, 0, 72, 64
2, 38022, Note_on_c, 0, 72, 93
2, 38039, Note_off_c, 0, 71, 64
2, 38075, Note_on_c, 0, 71, 70
2, 38108, Note_off_c, 0, 72, 64
2, 38176, Note_off_c, 0, 71, 64
2, 38236, Note_on_c, 0, 69, 80
2, 38312, Note_off_c, 0, 69, 64
2, 38365, Note_on_c, 0, 69, 93
2, 38872, Note_off_c, 0, 69, 64
2, 39085, Note_on_c, 0, 76, 80
2, 39179, Note_off_c, 0, 76, 64
2, 39186, Note_on_c, 0, 77, 82
2, 39268, Note_off_c, 0, 77, 64
2, 39318, Note_on_c, 0, 79, 93
2, 39400, Note_off_c, 0, 79, 64
2, 39582, Note_on_c, 0, 84, 98
2, 39906, Note_off_c, 0, 84, 64
2, 40093, Note_on_c, 0, 79, 87
2, 40182, Note_off_c, 0, 79, 64
2, 40331, Note_on_c, 0, 76, 85
2, 40434, Note_on_c, 0, 74, 76
2, 40441, Note_off_c, 0, 76, 64
2, 40537, Note_off_c, 0, 74, 64
2, 40538, Note_on_c, 0, 76, 76
2, 40650, Note_off_c, 0, 76, 64
2, 40657, Note_on_c, 0, 77, 85
2, 40751, Note_off_c, 0, 77, 64
2, 40789, Note_on_c, 0, 79, 95
2, 40892, Note_off_c, 0, 79, 64
2, 41041, Note_on_c, 0, 70, 100
2, 41147, Note_off_c, 0, 70, 64
2, 41269, Note_on_c, 0, 69, 85
2, 41467, Note_off_c, 0, 69, 64
2, 41531, Note_on_c, 0, 74, 93
2, 41641, Note_on_c, 0, 72, 82
2, 41658, Note_off_c, 0, 74, 64
2, 41735, Note_off_c, 0, 72, 64
2, 41750, Note_on_c, 0, 70, 82
2, 41847, Note_off_c, 0, 70, 64
2, 41855, Note_on_c, 0, 69, 80
2, 41948, Note_off_c, 0, 69, 64
2, 41972, Note_on_c, 0, 70, 68
2, 42090, Note_on_c, 0, 67, 82
2, 42097, Note_off_c, 0, 70, 64
2, 42188, Note_off_c, 0, 67, 64
2, 42217, Note_on_c, 0, 69, 80
2, 42320, Note_on_c, 0, 70, 78
2, 42328, Note_off_c, 0, 69, 64
2, 42438, Note_on_c, 0, 69, 82
2, 42455, Note_off_c, 0, 70, 64
2, 42539, Note_off_c, 0, 69, 64
2, 42556, Note_on_c, 0, 67, 95
2, 42656, Note_off_c, 0, 67, 64
2, 42685, Note_on_c, 0, 65, 87
2, 42793, Note_off_c, 0, 65, 64
2, 42940, Note_on_c, 0, 77, 82
2, 43033, Note_off_c, 0, 77, 64
2, 43048, Note_on_c, 0, 79, 82
2, 43144, Note_off_c, 0, 79, 64
2, 43177, Note_on_c, 0, 81, 100
2, 43302, Note_off_c, 0, 81, 64
2, 43417, Note_on_c, 0, 74, 85
2, 43513, Note_off_c, 0, 74, 64
2, 43530, Note_on_c, 0, 76, 82
2, 43632, Note_off_c, 0, 76, 64
2, 43657, Note_on_c, 0, 77, 100
2, 43763, Note_off_c, 0, 77, 64
2, 43890, Note_on_c, 0, 71, 82
2, 43988, Note_off_c, 0, 71, 64
2, 44000, Note_on_c, 0, 72, 82
2, 44096, Note_off_c, 0, 72, 64
2, 44130, Note_on_c, 0, 74, 95
2, 44219, Note_off_c, 0, 74, 64
2, 44382, Note_on_c, 0, 67, 74
2, 44466, Note_off_c, 0, 67, 64
2, 44632, Note_on_c, 0, 79, 93
2, 44718, Note_off_c, 0, 79, 64
2, 44864, Note_on_c, 0, 71, 87
2, 44946, Note_off_c, 0, 71, 64
2, 45109, Note_on_c, 0, 72, 87
2, 45352, Note_off_c, 0, 72, 64
2, 45440, Note_on_c, 0, 74, 82
2, 45503, Note_off_c, 0, 74, 64
2, 45584, Note_on_c, 0, 76, 93
2, 45649, Note_on_c, 0, 74, 102
2, 45659, Note_off_c, 0, 76, 64
2, 45707, Note_on_c, 0, 76, 66
2, 45719, Note_off_c, 0, 74, 64
2, 45772, Note_on_c, 0, 74, 82
2, 45788, Note_off_c, 0, 76, 64
2, 45880, Note_off_c, 0, 74, 64
2, 45916, Note_on_c, 0, 72, 85
2, 45988, Note_off_c, 0, 72, 64
2, 46060, Note_on_c, 0, 72, 98
2, 46482, Note_off_c, 0, 72, 64
2, 108260, Note_on_c, 0, 71, 100
2, 108344, Note_off_c, 0, 71, 64
2, 108359, Note_on_c, 0, 72, 89
2, 108450, Note_off_c, 0, 72, 64
2, 108479, Note_on_c, 0, 74, 93
2, 108577, Note_off_c, 0, 74, 64
2, 108736, Note_on_c, 0, 79, 85
2, 108992, Note_off_c, 0, 79, 64
2, 109204, Note_on_c, 0, 82, 110
2, 109300, Note_off_c, 0, 82, 64
2, 109446, Note_on_c, 0, 73, 62
2, 109554, Note_on_c, 0, 71, 82
2, 109568, Note_off_c, 0, 73, 64
2, 109679, Note_on_c, 0, 73, 56
2, 109694, Note_off_c, 0, 71, 64
2, 109789, Note_on_c, 0, 74, 85
2, 109799, Note_off_c, 0, 73, 64
2, 109900, Note_off_c, 0, 74, 64
2, 109920, Note_on_c, 0, 76, 100
2, 110072, Note_off_c, 0, 76, 64
2, 110142, Note_on_c, 0, 77, 66
2, 110255, Note_off_c, 0, 77, 64
2, 110258, Note_on_c, 0, 79, 68
2, 110360, Note_off_c, 0, 79, 64
2, 110399, Note_on_c, 0, 81, 89
2, 110502, Note_off_c, 0, 81, 64
2, 110507, Note_on_c, 0, 79, 59
2, 110598, Note_off_c, 0, 79, 64
2, 110620, Note_on_c, 0, 81, 66
2, 110749, Note_on_c, 0, 82, 80
2, 110756, Note_off_c, 0, 81, 64
2, 110833, Note_off_c, 0, 82, 64
2, 110864, Note_on_c, 0, 81, 82
2, 110992, Note_off_c, 0, 81, 64
2, 110999, Note_on_c, 0, 79, 78
2, 111102, Note_off_c, 0, 79, 64
2, 111114, Note_on_c, 0, 77, 64
2, 111208, Note_off_c, 0, 77, 64
2, 111224, Note_on_c, 0, 76, 63
2, 111306, Note_off_c, 0, 76, 64
2, 111354, Note_on_c, 0, 77, 102
2, 111472, Note_on_c, 0, 79, 78
2, 111479, Note_off_c, 0, 77, 64
2, 111594, Note_on_c, 0, 77, 66
2, 111604, Note_off_c, 0, 79, 64
2, 111695, Note_off_c, 0, 77, 64
2, 111707, Note_on_c, 0, 76, 72
2, 111800, Note_off_c, 0, 76, 64
2, 111832, Note_on_c, 0, 74, 87
2, 111984, Note_off_c, 0, 74, 64
2, 112067, Note_on_c, 0, 83, 82
2, 112182, Note_off_c, 0, 83, 64
2, 112187, Note_on_c, 0, 84, 78
2, 112273, Note_off_c, 0, 84, 64
2, 112304, Note_on_c, 0, 86, 100
2, 112440, Note_off_c, 0, 86, 64
2, 112535, Note_on_c, 0, 80, 63
2, 112636, Note_off_c, 0, 80, 64
2, 112643, Note_on_c, 0, 81, 82
2, 112729, Note_off_c, 0, 81, 64
2, 112782, Note_on_c, 0, 83, 100
2, 112924, Note_off_c, 0, 83, 64
2, 113029, Note_on_c, 0, 74, 89
2, 113120, Note_off_c, 0, 74, 64
2, 113144, Note_on_c, 0, 76, 72
2, 113240, Note_off_c, 0, 76, 64
2, 113272, Note_on_c, 0, 77, 102
2, 113390, Note_off_c, 0, 77, 64
2, 113502, Note_on_c, 0, 71, 80
2, 113608, Note_off_c, 0, 71, 64
2, 113629, Note_on_c, 0, 72, 66
2, 113744, Note_off_c, 0, 72, 64
2, 113752, Note_on_c, 0, 74, 76
2, 113836, Note_off_c, 0, 74, 64
2, 113984, Note_on_c, 0, 68, 87
2, 114090, Note_off_c, 0, 68, 64
2, 114208, Note_on_c, 0, 69, 87
2, 114479, Note_off_c, 0, 69, 64
2, 114551, Note_on_c, 0, 71, 80
2, 114630, Note_off_c, 0, 71, 64
2, 114683, Note_on_c, 0, 72, 91
2, 114748, Note_on_c, 0, 71, 85
2, 114750, Note_off_c, 0, 72, 64
2, 114822, Note_on_c, 0, 72, 93
2, 114839, Note_off_c, 0, 71, 64
2, 114875, Note_on_c, 0, 71, 70
2, 114908, Note_off_c, 0, 72, 64
2, 114976, Note_off_c, 0, 71, 64
2, 115036, Note_on_c, 0, 69, 80
2, 115112, Note_off_c, 0, 69, 64
2, 115165, Note_on_c, 0, 69, 93
2, 115672, Note_off_c, 0, 69, 64
2, 115885, Note_on_c, 0, 76, 80
2, 115979, Note_off_c, 0, 76, 64
2, 115986, Note_on_c, 0, 77, 82
2, 116068, Note_off_c, 0, 77, 64
2, 116118, Note_on_c, 0, 79, 93
2, 116200, Note_off_c, 0, 79, 64
2, 116382, Note_on_c, 0, 84, 98
2, 116706, Note_off_c, 0, 84, 64
2, 116893, Note_on_c, 0, 79, 87
2, 116982, Note_off_c, 0, 79, 64
2, 117131, Note_on_c, 0, 76, 85
2, 117234, Note_on_c, 0, 74, 76
2, 117241, Note_off_c, 0, 76, 64
2, 117337, Note_off_c, 0, 74, 64
2, 117338, Note_on_c, 0, 76, 76
2, 117450, Note_off_c, 0, 76, 64
2, 117457, Note_on_c, 0, 77, 85
2, 117551, Note_off_c, 0, 77, 64
2, 117589, Note_on_c, 0, 79, 95
2, 117692, Note_off_c, 0, 79, 64
2, 117841, Note_on_c, 0, 70, 100
2, 117947, Note_off_c, 0, 70, 64
2, 118069, Note_on_c, 0, 69, 85
2, 118267, Note_off_c, 0, 69, 64
2, 118331, Note_on_c, 0, 74, 93
2, 118441, Note_on_c, 0, 72, 82
2, 118458, Note_off_c, 0, 74, 64
2, 118535, Note_off_c, 0, 72, 64
2, 118550, Note_on_c, 0, 70, 82
2, 118647, Note_off_c, 0, 70, 64
2, 118655, Note_on_c, 0, 69, 80
2, 118748, Note_off_c, 0, 69, 64
2, 118772, Note_on_c, 0, 70, 68
2, 118890, Note_on_c, 0, 67, 82
2, 118897, Note_off_c, 0, 70, 64
2, 118988, Note_off_c, 0, 67, 64
2, 119017, Note_on_c, 0, 69, 80
2, 119120, Note_on_c, 0, 70, 78
2, 119128, Note_off_c, 0, 69, 64
2, 119238, Note_on_c, 0, 69, 82
2, 119255, Note_off_c, 0, 70, 64
2, 119339, Note_off_c, 0, 69, 64
2, 119356, Note_on_c, 0, 67, 95
2, 119456, Note_off_c, 0, 67, 64
2, 119485, Note_on_c, 0, 65, 87
2, 119593, Note_off_c, 0, 65, 64
2, 119740, Note_on_c, 0, 77, 82
2, 119833, Note_off_c, 0, 77, 64
2, 119848, Note_on_c, 0, 79, 82
2, 119944, Note_off_c, 0, 79, 64
2, 119977, Note_on_c, 0, 81, 100
2, 120102, Note_off_c, 0, 81, 64
2, 120217, Note_on_c, 0, 74, 85
2, 120313, Note_off_c, 0, 74, 64
2, 120330, Note_on_c, 0, 76, 82
2, 120432, Note_off_c, 0, 76, 64
2, 120457, Note_on_c, 0, 77, 100
2, 120563, Note_off_c, 0, 77, 64
2, 120690, Note_on_c, 0, 71, 82
2, 120788, Note_off_c, 0, 71, 64
2, 120800, Note_on_c, 0, 72, 82
2, 120896, Note_off_c, 0, 72, 64
2, 120930, Note_on_c, 0, 74, 95
2, 121019, Note_off_c, 0, 74, 64
2, 121182, Note_on_c, 0, 67, 74
2, 121266, Note_off_c, 0, 67, 64
2, 121432, Note_on_c, 0, 79, 93
2, 121518, Note_off_c, 0, 79, 64
2, 121664, Note_on_c, 0, 71, 87
2, 121746, Note_off_c, 0, 71, 64
2, 121909, Note_on_c, 0, 72, 87
2, 122152, Note_off_c, 0, 72, 64
2, 122240, Note_on_c, 0, 74, 82
2, 122303, Note_off_c, 0, 74, 64
2, 122384, Note_on_c, 0, 76, 93
2, 122449, Note_on_c, 0, 74, 102
2, 122459, Note_off_c, 0, 76, 64
2, 122507, Note_on_c, 0, 76, 66
2, 122519, Note_off_c, 0, 74, 64
2, 122572, Note_on_c, 0, 74, 82
2, 122588, Note_off_c, 0, 76, 64
2, 122680, Note_off_c, 0, 74, 64
2, 122716, Note_on_c, 0, 72, 85
2, 122788, Note_off_c, 0, 72, 64
2, 122860, Note_on_c, 0, 72, 98
2, 123282, Note_off_c, 0, 72, 64
2, 123282, End_track
3, 0, Start_track
3, 0, Title_t, "Violin2"
3, 0, Program_c, 1, 40
3, 0, Control_c, 1, 7, 100
3, 1212, Note_on_c, 1, 64, 85
3, 1303, Note_off_c, 1, 64, 64
3, 1308, Note_on_c, 1, 65, 85
3, 1390, Note_off_c, 1, 65, 64
3, 1433, Note_on_c, 1, 67, 98
3, 1519, Note_off_c, 1, 67, 64
3, 1668, Note_on_c, 1, 59, 78
3, 1767, Note_off_c, 1, 59, 64
3, 1919, Note_on_c, 1, 60, 89
3, 2014, Note_on_c, 1, 59, 87
3, 2019, Note_off_c, 1, 60, 64
3, 2127, Note_on_c, 1, 60, 85
3, 2131, Note_off_c, 1, 59, 64
3, 2232, Note_off_c, 1, 60, 64
3, 2239, Note_on_c, 1, 62, 82
3, 2331, Note_off_c, 1, 62, 64
3, 2369, Note_on_c, 1, 64, 95
3, 2482, Note_off_c, 1, 64, 64
3, 2623, Note_on_c, 1, 65, 78
3, 2703, Note_off_c, 1, 65, 64
3, 2868, Note_on_c, 1, 67, 100
3, 2967, Note_off_c, 1, 67, 64
3, 3108, Note_on_c, 1, 71, 89
3, 3197, Note_off_c, 1, 71, 64
3, 3343, Note_on_c, 1, 72, 100
3, 3427, Note_off_c, 1, 72, 64
3, 3574, Note_on_c, 1, 72, 95
3, 3665, Note_off_c, 1, 72, 64
3, 3828, Note_on_c, 1, 71, 95
3, 3929, Note_off_c, 1, 71, 64
3, 4083, Note_on_c, 1, 72, 87
3, 4171, Note_off_c, 1, 72, 64
3, 4308, Note_on_c, 1, 74, 98
3, 4402, Note_off_c, 1, 74, 64
3, 4548, Note_on_c, 1, 72, 82
3, 4637, Note_off_c, 1, 72, 64
3, 4803, Note_on_c, 1, 74, 91
3, 5023, Note_off_c, 1, 74, 64
3, 5499, Note_on_c, 1, 67, 85
3, 5578, Note_off_c, 1, 67, 64
3, 5595, Note_on_c, 1, 69, 87
3, 5674, Note_off_c, 1, 69, 64
3, 5727, Note_on_c, 1, 71, 95
3, 5955, Note_off_c, 1, 71, 64
3, 6461, Note_on_c, 1, 69, 91
3, 6550, Note_off_c, 1, 69, 64
3, 6699, Note_on_c, 1, 67, 87
3, 6797, Note_off_c, 1, 67, 64
3, 6943, Note_on_c, 1, 67, 93
3, 7032, Note_off_c, 1, 67, 64
3, 7174, Note_on_c, 1, 67, 98
3, 7263, Note_off_c, 1, 67, 64
3, 7404, Note_on_c, 1, 66, 100
3, 7491, Note_off_c, 1, 66, 64
3, 7663, Note_on_c, 1, 62, 102
3, 8155, Note_off_c, 1, 62, 64
3, 8868, Note_on_c, 1, 64, 89
3, 8950, Note_off_c, 1, 64, 64
3, 8976, Note_on_c, 1, 65, 87
3, 9060, Note_off_c, 1, 65, 64
3, 9091, Note_on_c, 1, 67, 87
3, 9183, Note_off_c, 1, 67, 64
3, 9334, Note_on_c, 1, 59, 87
3, 9442, Note_off_c, 1, 59, 64
3, 9583, Note_on_c, 1, 60, 95
3, 9699, Note_on_c, 1, 59, 95
3, 9706, Note_off_c, 1, 60, 64
3, 9804, Note_off_c, 1, 59, 64
3, 9804, Note_on_c, 1, 60, 82
3, 9917, Note_on_c, 1, 62, 87
3, 9922, Note_off_c, 1, 60, 64
3, 10020, Note_off_c, 1, 62, 64
3, 10047, Note_on_c, 1, 64, 100
3, 10167, Note_off_c, 1, 64, 64
3, 10301, Note_on_c, 1, 65, 89
3, 10414, Note_off_c, 1, 65, 64
3, 10519, Note_on_c, 1, 67, 82
3, 10654, Note_off_c, 1, 67, 64
3, 10762, Note_on_c, 1, 71, 87
3, 10870, Note_off_c, 1, 71, 64
3, 11007, Note_on_c, 1, 72, 89
3, 11119, Note_off_c, 1, 72, 64
3, 11249, Note_on_c, 1, 72, 100
3, 11359, Note_off_c, 1, 72, 64
3, 11496, Note_on_c, 1, 71, 85
3, 11638, Note_off_c, 1, 71, 64
3, 11729, Note_on_c, 1, 72, 85
3, 11850, Note_off_c, 1, 72, 64
3, 11971, Note_on_c, 1, 74, 89
3, 12079, Note_off_c, 1, 74, 64
3, 12209, Note_on_c, 1, 72, 85
3, 12312, Note_off_c, 1, 72, 64
3, 12456, Note_on_c, 1, 74, 98
3, 12655, Note_off_c, 1, 74, 64
3, 13176, Note_on_c, 1, 67, 82
3, 13270, Note_off_c, 1, 67, 64
3, 13270, Note_on_c, 1, 69, 91
3, 13354, Note_off_c, 1, 69, 64
3, 13397, Note_on_c, 1, 71, 91
3, 13615, Note_off_c, 1, 71, 64
3, 14132, Note_on_c, 1, 69, 85
3, 14239, Note_off_c, 1, 69, 64
3, 14386, Note_on_c, 1, 67, 82
3, 14499, Note_off_c, 1, 67, 64
3, 14626, Note_on_c, 1, 67, 91
3, 14741, Note_off_c, 1, 67, 64
3, 14868, Note_on_c, 1, 67, 98
3, 14962, Note_off_c, 1, 67, 64
3, 15101, Note_on_c, 1, 66, 100
3, 15187, Note_off_c, 1, 66, 64
3, 15343, Note_on_c, 1, 62, 105
3, 15857, Note_off_c, 1, 62, 64
3, 31929, Note_on_c, 1, 74, 87
3, 32030, Note_off_c, 1, 74, 64
3, 32168, Note_on_c, 1, 73, 82
3, 32291, Note_off_c, 1, 73, 64
3, 32396, Note_on_c, 1, 74, 91
3, 32480, Note_off_c, 1, 74, 64
3, 32624, Note_on_c, 1, 69, 87
3, 32742, Note_on_c, 1, 67, 80
3, 32752, Note_off_c, 1, 69, 64
3, 32848, Note_off_c, 1, 67, 64
3, 32850, Note_on_c, 1, 69, 78
3, 32960, Note_on_c, 1, 71, 82
3, 32970, Note_off_c, 1, 69, 64
3, 33066, Note_off_c, 1, 71, 64
3, 33092, Note_on_c, 1, 73, 95
3, 33232, Note_off_c, 1, 73, 64
3, 33332, Note_on_c, 1, 74, 78
3, 33440, Note_on_c, 1, 76, 82
3, 33448, Note_off_c, 1, 74, 64
3, 33534, Note_off_c, 1, 76, 64
3, 33570, Note_on_c, 1, 77, 102
3, 33781, Note_off_c, 1, 77, 64
3, 33817, Note_on_c, 1, 76, 80
3, 33911, Note_off_c, 1, 76, 64
3, 33918, Note_on_c, 1, 74, 80
3, 34002, Note_off_c, 1, 74, 64
3, 34045, Note_on_c, 1, 73, 95
3, 34175, Note_off_c, 1, 73, 64
3, 34314, Note_on_c, 1, 73, 87
3, 34404, Note_off_c, 1, 73, 64
3, 34547, Note_on_c, 1, 74, 80
3, 34645, Note_off_c, 1, 74, 64
3, 34780, Note_on_c, 1, 69, 72
3, 34859, Note_off_c, 1, 69, 64
3, 35022, Note_on_c, 1, 69, 74
3, 35144, Note_off_c, 1, 69, 64
3, 35255, Note_on_c, 1, 74, 80
3, 35368, Note_on_c, 1, 72, 82
3, 35370, Note_off_c, 1, 74, 64
3, 35452, Note_off_c, 1, 72, 64
3, 35510, Note_on_c, 1, 71, 93
3, 35617, Note_off_c, 1, 71, 64
3, 35627, Note_on_c, 1, 72, 68
3, 35720, Note_on_c, 1, 71, 72
3, 35752, Note_off_c, 1, 72, 64
3, 35838, Note_off_c, 1, 71, 64
3, 35850, Note_on_c, 1, 69, 74
3, 35922, Note_off_c, 1, 69, 64
3, 35977, Note_on_c, 1, 68, 87
3, 36121, Note_off_c, 1, 68, 64
3, 36234, Note_on_c, 1, 59, 85
3, 36326, Note_on_c, 1, 60, 82
3, 36342, Note_off_c, 1, 59, 64
3, 36426, Note_off_c, 1, 60, 64
3, 36462, Note_on_c, 1, 62, 89
3, 36587, Note_off_c, 1, 62, 64
3, 36716, Note_on_c, 1, 62, 78
3, 36822, Note_off_c, 1, 62, 64
3, 36839, Note_on_c, 1, 64, 66
3, 36937, Note_off_c, 1, 64, 64
3, 36978, Note_on_c, 1, 65, 87
3, 37095, Note_off_c, 1, 65, 64
3, 37189, Note_on_c, 1, 64, 82
3, 37291, Note_off_c, 1, 64, 64
3, 37420, Note_on_c, 1, 64, 64
3, 37552, Note_off_c, 1, 64, 64
3, 37664, Note_on_c, 1, 69, 87
3, 37756, Note_off_c, 1, 69, 64
3, 37880, Note_on_c, 1, 69, 85
3, 37938, Note_on_c, 1, 68, 100
3, 37960, Note_off_c, 1, 69, 64
3, 38003, Note_off_c, 1, 68, 64
3, 38005, Note_on_c, 1, 69, 72
3, 38063, Note_on_c, 1, 68, 80
3, 38094, Note_off_c, 1, 69, 64
3, 38186, Note_off_c, 1, 68, 64
3, 38260, Note_on_c, 1, 64, 74
3, 38322, Note_off_c, 1, 64, 64
3, 38399, Note_on_c, 1, 64, 87
3, 38910, Note_off_c, 1, 64, 64
3, 39565, Note_on_c, 1, 79, 89
3, 39673, Note_on_c, 1, 77, 82
3, 39676, Note_off_c, 1, 79, 64
3, 39781, Note_off_c, 1, 77, 64
3, 39798, Note_on_c, 1, 76, 66
3, 39911, Note_off_c, 1, 76, 64
3, 39916, Note_on_c, 1, 74, 80
3, 40014, Note_off_c, 1, 74, 64
3, 40033, Note_on_c, 1, 76, 68
3, 40141, Note_off_c, 1, 76, 64
3, 40151, Note_on_c, 1, 72, 80
3, 40230, Note_off_c, 1, 72, 64
3, 40273, Note_on_c, 1, 70, 89
3, 40386, Note_off_c, 1, 70, 64
3, 40408, Note_on_c, 1, 72, 80
3, 40528, Note_on_c, 1, 70, 64
3, 40535, Note_off_c, 1, 72, 64
3, 40638, Note_off_c, 1, 70, 64
3, 40648, Note_on_c, 1, 69, 76
3, 40761, Note_off_c, 1, 69, 64
3, 40780, Note_on_c, 1, 67, 80
3, 40892, Note_off_c, 1, 67, 64
3, 41029, Note_on_c, 1, 67, 85
3, 41135, Note_off_c, 1, 67, 64
3, 41274, Note_on_c, 1, 65, 80
3, 41392, Note_off_c, 1, 65, 64
3, 41507, Note_on_c, 1, 65, 87
3, 41617, Note_off_c, 1, 65, 64
3, 41747, Note_on_c, 1, 65, 78
3, 41869, Note_off_c, 1, 65, 64
3, 41980, Note_on_c, 1, 64, 72
3, 42109, Note_off_c, 1, 64, 64
3, 42229, Note_on_c, 1, 65, 85
3, 42354, Note_off_c, 1, 65, 64
3, 42452, Note_on_c, 1, 60, 80
3, 42563, Note_off_c, 1, 60, 64
3, 42692, Note_on_c, 1, 60, 93
3, 42800, Note_off_c, 1, 60, 64
3, 42906, Note_on_c, 1, 62, 80
3, 43007, Note_on_c, 1, 64, 78
3, 43036, Note_off_c, 1, 62, 64
3, 43120, Note_off_c, 1, 64, 64
3, 43158, Note_on_c, 1, 65, 85
3, 43319, Note_off_c, 1, 65, 64
3, 43410, Note_on_c, 1, 65, 76
3, 43535, Note_on_c, 1, 67, 76
3, 43544, Note_off_c, 1, 65, 64
3, 43638, Note_off_c, 1, 67, 64
3, 43650, Note_on_c, 1, 69, 85
3, 43777, Note_on_c, 1, 67, 91
3, 43790, Note_off_c, 1, 69, 64
3, 43884, Note_on_c, 1, 65, 80
3, 43897, Note_off_c, 1, 67, 64
3, 44012, Note_on_c, 1, 64, 82
3, 44017, Note_off_c, 1, 65, 64
3, 44128, Note_off_c, 1, 64, 64
3, 44135, Note_on_c, 1, 62, 82
3, 44233, Note_off_c, 1, 62, 64
3, 44243, Note_on_c, 1, 64, 64
3, 44356, Note_on_c, 1, 62, 70
3, 44368, Note_off_c, 1, 64, 64
3, 44455, Note_on_c, 1, 60, 64
3, 44464, Note_off_c, 1, 62, 64
3, 44601, Note_on_c, 1, 59, 82
3, 44622, Note_off_c, 1, 60, 64
3, 44668, Note_off_c, 1, 59, 64
3, 44848, Note_on_c, 1, 67, 82
3, 44948, Note_off_c, 1, 67, 64
3, 45090, Note_on_c, 1, 67, 80
3, 45217, Note_off_c, 1, 67, 64
3, 45325, Note_on_c, 1, 72, 85
3, 45455, Note_off_c, 1, 72, 64
3, 45565, Note_on_c, 1, 71, 80
3, 45697, Note_off_c, 1, 71, 64
3, 45818, Note_on_c, 1, 67, 85
3, 45911, Note_off_c, 1, 67, 64
3, 46062, Note_on_c, 1, 67, 87
3, 46571, Note_off_c, 1, 67, 64
3, 108729, Note_on_c, 1, 74, 87
3, 108830, Note_off_c, 1, 74, 64
3, 108968, Note_on_c, 1, 73, 82
3, 109091, Note_off_c, 1, 73, 64
3, 109196, Note_on_c, 1, 74, 91
3, 109280, Note_off_c, 1, 74, 64
3, 109424, Note_on_c, 1, 69, 87
3, 109542, Note_on_c, 1, 67, 80
3, 109552, Note_off_c, 1, 69, 64
3, 109648, Note_off_c, 1, 67, 64
3, 109650, Note_on_c, 1, 69, 78
3, 109760, Note_on_c, 1, 71, 82
3, 109770, Note_off_c, 1, 69, 64
3, 109866, Note_off_c, 1, 71, 64
3, 109892, Note_on_c, 1, 73, 95
3, 110032, Note_off_c, 1, 73, 64
3, 110132, Note_on_c, 1, 74, 78
3, 110240, Note_on_c, 1, 76, 82
3, 110248, Note_off_c, 1, 74, 64
3, 110334, Note_off_c, 1, 76, 64
3, 110370, Note_on_c, 1, 77, 102
3, 110581, Note_off_c, 1, 77, 64
3, 110617, Note_on_c, 1, 76, 80
3, 110711, Note_off_c, 1, 76, 64
3, 110718, Note_on_c, 1, 74, 80
3, 110802, Note_off_c, 1, 74, 64
3, 110845, Note_on_c, 1, 73, 95
3, 110975, Note_off_c, 1, 73, 64
3, 111114, Note_on_c, 1, 73, 87
3, 111204, Note_off_c, 1, 73, 64
3, 111347, Note_on_c, 1, 74, 80
3, 111445, Note_off_c, 1, 74, 64
3, 111580, Note_on_c, 1, 69, 72
3, 111659, Note_off_c, 1, 69, 64
3, 111822, Note_on_c, 1, 69, 74
3, 111944, Note_off_c, 1, 69, 64
3, 112055, Note_on_c, 1, 74, 80
3, 112168, Note_on_c, 1, 72, 82
3, 112170, Note_off_c, 1, 74, 64
3, 112252, Note_off_c, 1, 72, 64
3, 112310, Note_on_c, 1, 71, 93
3, 112417, Note_off_c, 1, 71, 64
3, 112427, Note_on_c, 1, 72, 68
3, 112520, Note_on_c, 1, 71, 72
3, 112552, Note_off_c, 1, 72, 64
3, 112638, Note_off_c, 1, 71, 64
3, 112650, Note_on_c, 1, 69, 74
3, 112722, Note_off_c, 1, 69, 64
3, 112777, Note_on_c, 1, 68, 87
3, 112921, Note_off_c, 1, 68, 64
3, 113034, Note_on_c, 1, 59, 85
3, 113126, Note_on_c, 1, 60, 82
3, 113142, Note_off_c, 1, 59, 64
3, 113226, Note_off_c, 1, 60, 64
3, 113262, Note_on_c, 1, 62, 89
3, 113387, Note_off_c, 1, 62, 64
3, 113516, Note_on_c, 1, 62, 78
3, 113622, Note_off_c, 1, 62, 64
3, 113639, Note_on_c, 1, 64, 66
3, 113737, Note_off_c, 1, 64, 64
3, 113778, Note_on_c, 1, 65, 87
3, 113895, Note_off_c, 1, 65, 64
3, 113989, Note_on_c, 1, 64, 82
3, 114091, Note_off_c, 1, 64, 64
3, 114220, Note_on_c, 1, 64, 64
3, 114352, Note_off_c, 1, 64, 64
3, 114464, Note_on_c, 1, 69, 87
3, 114556, Note_off_c, 1, 69, 64
3, 114680, Note_on_c, 1, 69, 85
3, 114738, Note_on_c, 1, 68, 100
3, 114760, Note_off_c, 1, 69, 64
3, 114803, Note_off_c, 1, 68, 64
3, 114805, Note_on_c, 1, 69, 72
3, 114863, Note_on_c, 1, 68, 80
3, 114894, Note_off_c, 1, 69, 64
3, 114986, Note_off_c, 1, 68, 64
3, 115060, Note_on_c, 1, 64, 74
3, 115122, Note_off_c, 1, 64, 64
3, 115199, Note_on_c, 1, 64, 87
3, 115710, Note_off_c, 1, 64, 64
3, 116365, Note_on_c, 1, 79, 89
3, 116473, Note_on_c, 1, 77, 82
3, 116476, Note_off_c, 1, 79, 64
3, 116581, Note_off_c, 1, 77, 64
3, 116598, Note_on_c, 1, 76, 66
3, 116711, Note_off_c, 1, 76, 64
3, 116716, Note_on_c, 1, 74, 80
3, 116814, Note_off_c, 1, 74, 64
3, 116833, Note_on_c, 1, 76, 68
3, 116941, Note_off_c, 1, 76, 64
3, 116951, Note_on_c, 1, 72, 80
3, 117030, Note_off_c, 1, 72, 64
3, 117073, Note_on_c, 1, 70, 89
3, 117186, Note_off_c, 1, 70, 64
3, 117208, Note_on_c, 1, 72, 80
3, 117328, Note_on_c, 1, 70, 64
3, 117335, Note_off_c, 1, 72, 64
3, 117438, Note_off_c, 1, 70, 64
3, 117448, Note_on_c, 1, 69, 76
3, 117561, Note_off_c, 1, 69, 64
3, 117580, Note_on_c, 1, 67, 80
3, 117692, Note_off_c, 1, 67, 64
3, 117829, Note_on_c, 1, 67, 85
3, 117935, Note_off_c, 1, 67, 64
3, 118074, Note_on_c, 1, 65, 80
3, 118192, Note_off_c, 1, 65, 64
3, 118307, Note_on_c, 1, 65, 87
3, 118417, Note_off_c, 1, 65, 64
3, 118547, Note_on_c, 1, 65, 78
3, 118669, Note_off_c, 1, 65, 64
3, 118780, Note_on_c, 1, 64, 72
3, 118909, Note_off_c, 1, 64, 64
3, 119029, Note_on_c, 1, 65, 85
3, 119154, Note_off_c, 1, 65, 64
3, 119252, Note_on_c, 1, 60, 80
3, 119363, Note_off_c, 1, 60, 64
3, 119492, Note_on_c, 1, 60, 93
3, 119600, Note_off_c, 1, 60, 64
3, 119706, Note_on_c, 1, 62, 80
3, 119807, Note_on_c, 1, 64, 78
3, 119836, Note_off_c, 1, 62, 64
3, 119920, Note_off_c, 1, 64, 64
3, 119958, Note_on_c, 1, 65, 85
3, 120119, Note_off_c, 1, 65, 64
3, 120210, Note_on_c, 1, 65, 76
3, 120335, Note_on_c, 1, 67, 76
3, 120344, Note_off_c, 1, 65, 64
3, 120438, Note_off_c, 1, 67, 64
3, 120450, Note_on_c, 1, 69, 85
3, 120577, Note_on_c, 1, 67, 91
3, 120590, Note_off_c, 1, 69, 64
3, 120684, Note_on_c, 1, 65, 80
3, 120697, Note_off_c, 1, 67, 64
3, 120812, Note_on_c, 1, 64, 82
3, 120817, Note_off_c, 1, 65, 64
3, 120928, Note_off_c, 1, 64, 64
3, 120935, Note_on_c, 1, 62, 82
3, 121033, Note_off_c, 1, 62, 64
3, 121043, Note_on_c, 1, 64, 64
3, 121156, Note_on_c, 1, 62, 70
3, 121168, Note_off_c, 1, 64, 64
3, 121255, Note_on_c, 1, 60, 64
3, 121264, Note_off_c, 1, 62, 64
3, 121401, Note_on_c, 1, 59, 82
3, 121422, Note_off_c, 1, 60, 64
3, 121468, Note_off_c, 1, 59, 64
3, 121648, Note_on_c, 1, 67, 82
3, 121748, Note_off_c, 1, 67, 64
3, 121890, Note_on_c, 1, 67, 80
3, 122017, Note_off_c, 1, 67, 64
3, 122125, Note_on_c, 1, 72, 85
3, 122255, Note_off_c, 1, 72, 64
3, 122365, Note_on_c, 1, 71, 80
3, 122497, Note_off_c, 1, 71, 64
3, 122618, Note_on_c, 1, 67, 85
3, 122711, Note_off_c, 1, 67, 64
3, 122862, Note_on_c, 1, 67, 87
3, 123371, Note_off_c, 1, 67, 64
3, 123371, End_track
4, 0, Start_track
4, 0, Title_t, "Viola"
4, 0, Program_c, 2, 41
4, 0, Control_c, 2, 7, 100
4, 1186, Note_on_c, 2, 55, 87
4, 1273, Note_off_c, 2, 55, 64
4, 1420, Note_on_c, 2, 60, 80
4, 1555, Note_off_c, 2, 60, 64
4, 1661, Note_on_c, 2, 62, 78
4, 1774, Note_off_c, 2, 62, 64
4, 1899, Note_on_c, 2, 64, 91
4, 2088, Note_off_c, 2, 64, 64
4, 2127, Note_on_c, 2, 67, 85
4, 2223, Note_off_c, 2, 67, 64
4, 2242, Note_on_c, 2, 65, 95
4, 2324, Note_off_c, 2, 65, 64
4, 2367, Note_on_c, 2, 64, 100
4, 2482, Note_off_c, 2, 64, 64
4, 2621, Note_on_c, 2, 60, 102
4, 2727, Note_off_c, 2, 60, 64
4, 2847, Note_on_c, 2, 60, 87
4, 2967, Note_off_c, 2, 60, 64
4, 3077, Note_on_c, 2, 65, 76
4, 3211, Note_off_c, 2, 65, 64
4, 3319, Note_on_c, 2, 64, 85
4, 3432, Note_off_c, 2, 64, 64
4, 3550, Note_on_c, 2, 60, 89
4, 3660, Note_off_c, 2, 60, 64
4, 3797, Note_on_c, 2, 67, 85
4, 3912, Note_off_c, 2, 67, 64
4, 4056, Note_on_c, 2, 66, 82
4, 4162, Note_off_c, 2, 66, 64
4, 4280, Note_on_c, 2, 67, 85
4, 4395, Note_off_c, 2, 67, 64
4, 4512, Note_on_c, 2, 67, 85
4, 4599, Note_off_c, 2, 67, 64
4, 4623, Note_on_c, 2, 69, 89
4, 4695, Note_off_c, 2, 69, 64
4, 4750, Note_on_c, 2, 71, 91
4, 4959, Note_off_c, 2, 71, 64
4, 5501, Note_on_c, 2, 59, 85
4, 5595, Note_off_c, 2, 59, 64
4, 5748, Note_on_c, 2, 64, 91
4, 5952, Note_off_c, 2, 64, 64
4, 6461, Note_on_c, 2, 57, 82
4, 6555, Note_off_c, 2, 57, 64
4, 6715, Note_on_c, 2, 62, 85
4, 6826, Note_off_c, 2, 62, 64
4, 6940, Note_on_c, 2, 64, 80
4, 7051, Note_off_c, 2, 64, 64
4, 7188, Note_on_c, 2, 62, 80
4, 7270, Note_off_c, 2, 62, 64
4, 7419, Note_on_c, 2, 60, 93
4, 7507, Note_off_c, 2, 60, 64
4, 7671, Note_on_c, 2, 59, 98
4, 8165, Note_off_c, 2, 59, 64
4, 8863, Note_on_c, 2, 55, 87
4, 8964, Note_off_c, 2, 55, 64
4, 9099, Note_on_c, 2, 60, 82
4, 9228, Note_off_c, 2, 60, 64
4, 9336, Note_on_c, 2, 62, 78
4, 9439, Note_off_c, 2, 62, 64
4, 9593, Note_on_c, 2, 64, 89
4, 9778, Note_off_c, 2, 64, 64
4, 9819, Note_on_c, 2, 67, 80
4, 9919, Note_off_c, 2, 67, 64
4, 9931, Note_on_c, 2, 65, 87
4, 10011, Note_off_c, 2, 65, 64
4, 10049, Note_on_c, 2, 64, 102
4, 10195, Note_off_c, 2, 64, 64
4, 10301, Note_on_c, 2, 60, 87
4, 10392, Note_off_c, 2, 60, 64
4, 10539, Note_on_c, 2, 60, 82
4, 10651, Note_off_c, 2, 60, 64
4, 10755, Note_on_c, 2, 65, 80
4, 10872, Note_off_c, 2, 65, 64
4, 11007, Note_on_c, 2, 64, 82
4, 11100, Note_off_c, 2, 64, 64
4, 11245, Note_on_c, 2, 60, 85
4, 11347, Note_off_c, 2, 60, 64
4, 11501, Note_on_c, 2, 67, 82
4, 11609, Note_off_c, 2, 67, 64
4, 11748, Note_on_c, 2, 66, 80
4, 11856, Note_off_c, 2, 66, 64
4, 11980, Note_on_c, 2, 67, 82
4, 12087, Note_off_c, 2, 67, 64
4, 12211, Note_on_c, 2, 67, 78
4, 12293, Note_off_c, 2, 67, 64
4, 12312, Note_on_c, 2, 69, 72
4, 12389, Note_off_c, 2, 69, 64
4, 12442, Note_on_c, 2, 71, 89
4, 12667, Note_off_c, 2, 71, 64
4, 13181, Note_on_c, 2, 59, 80
4, 13266, Note_off_c, 2, 59, 64
4, 13440, Note_on_c, 2, 64, 95
4, 13666, Note_off_c, 2, 64, 64
4, 14139, Note_on_c, 2, 57, 80
4, 14230, Note_off_c, 2, 57, 64
4, 14400, Note_on_c, 2, 62, 89
4, 14506, Note_off_c, 2, 62, 64
4, 14635, Note_on_c, 2, 64, 80
4, 14741, Note_off_c, 2, 64, 64
4, 14878, Note_on_c, 2, 62, 82
4, 14959, Note_off_c, 2, 62, 64
4, 15115, Note_on_c, 2, 60, 93
4, 15204, Note_off_c, 2, 60, 64
4, 15372, Note_on_c, 2, 59, 98
4, 15811, Note_off_c, 2, 59, 64
4, 31916, Note_on_c, 2, 71, 89
4, 32000, Note_off_c, 2, 71, 64
4, 32015, Note_on_c, 2, 69, 80
4, 32136, Note_off_c, 2, 69, 64
4, 32142, Note_on_c, 2, 67, 89
4, 32272, Note_off_c, 2, 67, 64
4, 32375, Note_on_c, 2, 65, 76
4, 32480, Note_off_c, 2, 65, 64
4, 32617, Note_on_c, 2, 64, 70
4, 32732, Note_off_c, 2, 64, 64
4, 32740, Note_on_c, 2, 62, 68
4, 32848, Note_on_c, 2, 64, 87
4, 32869, Note_off_c, 2, 62, 64
4, 32946, Note_on_c, 2, 65, 74
4, 32956, Note_off_c, 2, 64, 64
4, 33064, Note_off_c, 2, 65, 64
4, 33090, Note_on_c, 2, 64, 95
4, 33205, Note_off_c, 2, 64, 64
4, 33342, Note_on_c, 2, 57, 70
4, 33455, Note_off_c, 2, 57, 64
4, 33592, Note_on_c, 2, 62, 87
4, 33702, Note_off_c, 2, 62, 64
4, 33820, Note_on_c, 2, 67, 76
4, 33906, Note_off_c, 2, 67, 64
4, 34072, Note_on_c, 2, 64, 80
4, 34151, Note_off_c, 2, 64, 64
4, 34309, Note_on_c, 2, 69, 80
4, 34417, Note_off_c, 2, 69, 64
4, 34559, Note_on_c, 2, 69, 85
4, 34670, Note_on_c, 2, 70, 64
4, 34684, Note_off_c, 2, 69, 64
4, 34768, Note_on_c, 2, 69, 68
4, 34806, Note_off_c, 2, 70, 64
4, 34878, Note_on_c, 2, 67, 74
4, 34883, Note_off_c, 2, 69, 64
4, 34967, Note_off_c, 2, 67, 64
4, 35022, Note_on_c, 2, 65, 95
4, 35120, Note_off_c, 2, 65, 64
4, 35135, Note_on_c, 2, 67, 76
4, 35262, Note_off_c, 2, 67, 64
4, 35262, Note_on_c, 2, 65, 63
4, 35358, Note_off_c, 2, 65, 64
4, 35358, Note_on_c, 2, 64, 78
4, 35471, Note_off_c, 2, 64, 64
4, 35500, Note_on_c, 2, 62, 82
4, 35605, Note_off_c, 2, 62, 64
4, 35742, Note_on_c, 2, 62, 82
4, 35845, Note_off_c, 2, 62, 64
4, 35850, Note_on_c, 2, 64, 72
4, 35939, Note_off_c, 2, 64, 64
4, 35984, Note_on_c, 2, 65, 85
4, 36097, Note_off_c, 2, 65, 64
4, 36203, Note_on_c, 2, 59, 70
4, 36308, Note_on_c, 2, 60, 70
4, 36335, Note_off_c, 2, 59, 64
4, 36431, Note_off_c, 2, 60, 64
4, 36455, Note_on_c, 2, 62, 70
4, 36577, Note_off_c, 2, 62, 64
4, 36700, Note_on_c, 2, 62, 85
4, 36798, Note_on_c, 2, 64, 85
4, 36815, Note_off_c, 2, 62, 64
4, 36894, Note_off_c, 2, 64, 64
4, 36930, Note_on_c, 2, 65, 76
4, 37028, Note_off_c, 2, 65, 64
4, 37168, Note_on_c, 2, 59, 70
4, 37283, Note_off_c, 2, 59, 64
4, 37434, Note_on_c, 2, 60, 72
4, 37544, Note_off_c, 2, 60, 64
4, 37684, Note_on_c, 2, 64, 82
4, 37780, Note_off_c, 2, 64, 64
4, 37909, Note_on_c, 2, 64, 87
4, 38003, Note_off_c, 2, 64, 64
4, 38137, Note_on_c, 2, 59, 78
4, 38228, Note_off_c, 2, 59, 64
4, 38392, Note_on_c, 2, 60, 89
4, 38903, Note_off_c, 2, 60, 64
4, 39563, Note_on_c, 2, 64, 80
4, 39640, Note_on_c, 2, 65, 70
4, 39680, Note_off_c, 2, 64, 64
4, 39755, Note_off_c, 2, 65, 64
4, 39788, Note_on_c, 2, 67, 82
4, 39920, Note_off_c, 2, 67, 64
4, 40048, Note_on_c, 2, 67, 78
4, 40160, Note_on_c, 2, 69, 76
4, 40165, Note_off_c, 2, 67, 64
4, 40271, Note_off_c, 2, 69, 64
4, 40288, Note_on_c, 2, 70, 78
4, 40398, Note_on_c, 2, 69, 68
4, 40427, Note_off_c, 2, 70, 64
4, 40511, Note_off_c, 2, 69, 64
4, 40518, Note_on_c, 2, 67, 68
4, 40616, Note_off_c, 2, 67, 64
4, 40645, Note_on_c, 2, 65, 82
4, 40727, Note_off_c, 2, 65, 64
4, 40780, Note_on_c, 2, 64, 87
4, 40904, Note_off_c, 2, 64, 64
4, 41028, Note_on_c, 2, 60, 80
4, 41130, Note_off_c, 2, 60, 64
4, 41267, Note_on_c, 2, 60, 89
4, 41476, Note_off_c, 2, 60, 64
4, 41519, Note_on_c, 2, 58, 80
4, 41608, Note_on_c, 2, 60, 85
4, 41623, Note_off_c, 2, 58, 64
4, 41724, Note_off_c, 2, 60, 64
4, 41740, Note_on_c, 2, 62, 87
4, 41864, Note_off_c, 2, 62, 64
4, 41989, Note_on_c, 2, 60, 80
4, 42102, Note_off_c, 2, 60, 64
4, 42224, Note_on_c, 2, 60, 87
4, 42337, Note_on_c, 2, 62, 82
4, 42354, Note_off_c, 2, 60, 64
4, 42450, Note_on_c, 2, 60, 85
4, 42457, Note_off_c, 2, 62, 64
4, 42548, Note_off_c, 2, 60, 64
4, 42556, Note_on_c, 2, 58, 76
4, 42652, Note_off_c, 2, 58, 64
4, 42697, Note_on_c, 2, 57, 91
4, 42940, Note_off_c, 2, 57, 64
4, 43909, Note_on_c, 2, 55, 82
4, 43984, Note_on_c, 2, 57, 80
4, 44017, Note_off_c, 2, 55, 64
4, 44089, Note_off_c, 2, 57, 64
4, 44120, Note_on_c, 2, 59, 89
4, 44243, Note_off_c, 2, 59, 64
4, 44372, Note_on_c, 2, 59, 72
4, 44468, Note_on_c, 2, 60, 66
4, 44490, Note_off_c, 2, 59, 64
4, 44576, Note_off_c, 2, 60, 64
4, 44615, Note_on_c, 2, 62, 82
4, 44735, Note_off_c, 2, 62, 64
4, 44862, Note_on_c, 2, 62, 80
4, 44977, Note_off_c, 2, 62, 64
4, 45117, Note_on_c, 2, 64, 85
4, 45229, Note_off_c, 2, 64, 64
4, 45342, Note_on_c, 2, 69, 78
4, 45469, Note_off_c, 2, 69, 64
4, 45577, Note_on_c, 2, 67, 85
4, 45695, Note_off_c, 2, 67, 64
4, 45815, Note_on_c, 2, 62, 85
4, 45918, Note_off_c, 2, 62, 64
4, 46081, Note_on_c, 2, 64, 87
4, 46547, Note_off_c, 2, 64, 64
4, 108716, Note_on_c, 2, 71, 89
4, 108800, Note_off_c, 2, 71, 64
4, 108815, Note_on_c, 2, 69, 80
4, 108936, Note_off_c, 2, 69, 64
4, 108942, Note_on_c, 2, 67, 89
4, 109072, Note_off_c, 2, 67, 64
4, 109175, Note_on_c, 2, 65, 76
4, 109280, Note_off_c, 2, 65, 64
4, 109417, Note_on_c, 2, 64, 70
4, 109532, Note_off_c, 2, 64, 64
4, 109540, Note_on_c, 2, 62, 68
4, 109648, Note_on_c, 2, 64, 87
4, 109669, Note_off_c, 2, 62, 64
4, 109746, Note_on_c, 2, 65, 74
4, 109756, Note_off_c, 2, 64, 64
4, 109864, Note_off_c, 2, 65, 64
4, 109890, Note_on_c, 2, 64, 95
4, 110005, Note_off_c, 2, 64, 64
4, 110142, Note_on_c, 2, 57, 70
4, 110255, Note_off_c, 2, 57, 64
4, 110392, Note_on_c, 2, 62, 87
4, 110502, Note_off_c, 2, 62, 64
4, 110620, Note_on_c, 2, 67, 76
4, 110706, Note_off_c, 2, 67, 64
4, 110872, Note_on_c, 2, 64, 80
4, 110951, Note_off_c, 2, 64, 64
4, 111109, Note_on_c, 2, 69, 80
4, 111217, Note_off_c, 2, 69, 64
4, 111359, Note_on_c, 2, 69, 85
4, 111470, Note_on_c, 2, 70, 64
4, 111484, Note_off_c, 2, 69, 64
4, 111568, Note_on_c, 2, 69, 68
4, 111606, Note_off_c, 2, 70, 64
4, 111678, Note_on_c, 2, 67, 74
4, 111683, Note_off_c, 2, 69, 64
4, 111767, Note_off_c, 2, 67, 64
4, 111822, Note_on_c, 2, 65, 95
4, 111920, Note_off_c, 2, 65, 64
4, 111935, Note_on_c, 2, 67, 76
4, 112062, Note_off_c, 2, 67, 64
4, 112062, Note_on_c, 2, 65, 63
4, 112158, Note_off_c, 2, 65, 64
4, 112158, Note_on_c, 2, 64, 78
4, 112271, Note_off_c, 2, 64, 64
4, 112300, Note_on_c, 2, 62, 82
4, 112405, Note_off_c, 2, 62, 64
4, 112542, Note_on_c, 2, 62, 82
4, 112645, Note_off_c, 2, 62, 64
4, 112650, Note_on_c, 2, 64, 72
4, 112739, Note_off_c, 2, 64, 64
4, 112784, Note_on_c, 2, 65, 85
4, 112897, Note_off_c, 2, 65, 64
4, 113003, Note_on_c, 2, 59, 70
4, 113108, Note_on_c, 2, 60, 70
4, 113135, Note_off_c, 2, 59, 64
4, 113231, Note_off_c, 2, 60, 64
4, 113255, Note_on_c, 2, 62, 70
4, 113377, Note_off_c, 2, 62, 64
4, 113500, Note_on_c, 2, 62, 85
4, 113598, Note_on_c, 2, 64, 85
4, 113615, Note_off_c, 2, 62, 64
4, 113694, Note_off_c, 2, 64, 64
4, 113730, Note_on_c, 2, 65, 76
4, 113828, Note_off_c, 2, 65, 64
4, 113968, Note_on_c, 2, 59, 70
4, 114083, Note_off_c, 2, 59, 64
4, 114234, Note_on_c, 2, 60, 72
4, 114344, Note_off_c, 2, 60, 64
4, 114484, Note_on_c, 2, 64, 82
4, 114580, Note_off_c, 2, 64, 64
4, 114709, Note_on_c, 2, 64, 87
4, 114803, Note_off_c, 2, 64, 64
4, 114937, Note_on_c, 2, 59, 78
4, 115028, Note_off_c, 2, 59, 64
4, 115192, Note_on_c, 2, 60, 89
4, 115703, Note_off_c, 2, 60, 64
4, 116363, Note_on_c, 2, 64, 80
4, 116440, Note_on_c, 2, 65, 70
4, 116480, Note_off_c, 2, 64, 64
4, 116555, Note_off_c, 2, 65, 64
4, 116588, Note_on_c, 2, 67, 82
4, 116720, Note_off_c, 2, 67, 64
4, 116848, Note_on_c, 2, 67, 78
4, 116960, Note_on_c, 2, 69, 76
4, 116965, Note_off_c, 2, 67, 64
4, 117071, Note_off_c, 2, 69, 64
4, 117088, Note_on_c, 2, 70, 78
4, 117198, Note_on_c, 2, 69, 68
4, 117227, Note_off_c, 2, 70, 64
4, 117311, Note_off_c, 2, 69, 64
4, 117318, Note_on_c, 2, 67, 68
4, 117416, Note_off_c, 2, 67, 64
4, 117445, Note_on_c, 2, 65, 82
4, 117527, Note_off_c, 2, 65, 64
4, 117580, Note_on_c, 2, 64, 87
4, 117704, Note_off_c, 2, 64, 64
4, 117828, Note_on_c, 2, 60, 80
4, 117930, Note_off_c, 2, 60, 64
4, 118067, Note_on_c, 2, 60, 89
4, 118276, Note_off_c, 2, 60, 64
4, 118319, Note_on_c, 2, 58, 80
4, 118408, Note_on_c, 2, 60, 85
4, 118423, Note_off_c, 2, 58, 64
4, 118524, Note_off_c, 2, 60, 64
4, 118540, Note_on_c, 2, 62, 87
4, 118664, Note_off_c, 2, 62, 64
4, 118789, Note_on_c, 2, 60, 80
4, 118902, Note_off_c, 2, 60, 64
4, 119024, Note_on_c, 2, 60, 87
4, 119137, Note_on_c, 2, 62, 82
4, 119154, Note_off_c, 2, 60, 64
4, 119250, Note_on_c, 2, 60, 85
4, 119257, Note_off_c, 2, 62, 64
4, 119348, Note_off_c, 2, 60, 64
4, 119356, Note_on_c, 2, 58, 76
4, 119452, Note_off_c, 2, 58, 64
4, 119497, Note_on_c, 2, 57, 91
4, 119740, Note_off_c, 2, 57, 64
4, 120709, Note_on_c, 2, 55, 82
4, 120784, Note_on_c, 2, 57, 80
4, 120817, Note_off_c, 2, 55, 64
4, 120889, Note_off_c, 2, 57, 64
4, 120920, Note_on_c, 2, 59, 89
4, 121043, Note_off_c, 2, 59, 64
4, 121172, Note_on_c, 2, 59, 72
4, 121268, Note_on_c, 2, 60, 66
4, 121290, Note_off_c, 2, 59, 64
4, 121376, Note_off_c, 2, 60, 64
4, 121415, Note_on_c, 2, 62, 82
4, 121535, Note_off_c, 2, 62, 64
4, 121662, Note_on_c, 2, 62, 80
4, 121777, Note_off_c, 2, 62, 64
4, 121917, Note_on_c, 2, 64, 85
4, 122029, Note_off_c, 2, 64, 64
4, 122142, Note_on_c, 2, 69, 78
4, 122269, Note_off_c, 2, 69, 64
4, 122377, Note_on_c, 2, 67, 85
4, 122495, Note_off_c, 2, 67, 64
4, 122615, Note_on_c, 2, 62, 85
4, 122718, Note_off_c, 2, 62, 64
4, 122881, Note_on_c, 2, 64, 87
4, 123347, Note_off_c, 2, 64, 64
4, 123347, End_track
5, 0, Start_track
5, 0, Title_t, "Cello"
5, 0, Program_c, 3, 42
5, 0, Control_c, 3, 7, 100
5, 1200, Note_on_c, 3, 48, 87
5, 1311, Note_on_c, 3, 50, 82
5, 1313, Note_off_c, 3, 48, 64
5, 1407, Note_off_c, 3, 50, 64
5, 1431, Note_on_c, 3, 52, 100
5, 1522, Note_off_c, 3, 52, 64
5, 1668, Note_on_c, 3, 55, 80
5, 1763, Note_off_c, 3, 55, 64
5, 1918, Note_on_c, 3, 60, 91
5, 2005, Note_off_c, 3, 60, 64
5, 2146, Note_on_c, 3, 55, 80
5, 2231, Note_off_c, 3, 55, 64
5, 2391, Note_on_c, 3, 48, 87
5, 2482, Note_off_c, 3, 48, 64
5, 2619, Note_on_c, 3, 53, 82
5, 2710, Note_off_c, 3, 53, 64
5, 2847, Note_on_c, 3, 52, 72
5, 2952, Note_off_c, 3, 52, 64
5, 3082, Note_on_c, 3, 50, 82
5, 3183, Note_off_c, 3, 50, 64
5, 3315, Note_on_c, 3, 52, 80
5, 3442, Note_off_c, 3, 52, 64
5, 3555, Note_on_c, 3, 53, 82
5, 3647, Note_off_c, 3, 53, 64
5, 3816, Note_on_c, 3, 55, 76
5, 3939, Note_off_c, 3, 55, 64
5, 4049, Note_on_c, 3, 57, 85
5, 4171, Note_off_c, 3, 57, 64
5, 4289, Note_on_c, 3, 59, 82
5, 4414, Note_off_c, 3, 59, 64
5, 4524, Note_on_c, 3, 60, 80
5, 4644, Note_off_c, 3, 60, 64
5, 4762, Note_on_c, 3, 59, 89
5, 4875, Note_off_c, 3, 59, 64
5, 4998, Note_on_c, 3, 57, 82
5, 5119, Note_off_c, 3, 57, 64
5, 5244, Note_on_c, 3, 55, 87
5, 5347, Note_off_c, 3, 55, 64
5, 5475, Note_on_c, 3, 54, 76
5, 5590, Note_off_c, 3, 54, 64
5, 5727, Note_on_c, 3, 52, 76
5, 5856, Note_off_c, 3, 52, 64
5, 5952, Note_on_c, 3, 50, 82
5, 6079, Note_off_c, 3, 50, 64
5, 6195, Note_on_c, 3, 52, 76
5, 6327, Note_off_c, 3, 52, 64
5, 6447, Note_on_c, 3, 54, 78
5, 6571, Note_off_c, 3, 54, 64
5, 6696, Note_on_c, 3, 55, 80
5, 6804, Note_off_c, 3, 55, 64
5, 6943, Note_on_c, 3, 48, 85
5, 7059, Note_off_c, 3, 48, 64
5, 7188, Note_on_c, 3, 50, 87
5, 7296, Note_off_c, 3, 50, 64
5, 7428, Note_on_c, 3, 38, 87
5, 7510, Note_off_c, 3, 38, 64
5, 7683, Note_on_c, 3, 43, 91
5, 7782, Note_off_c, 3, 43, 64
5, 7901, Note_on_c, 3, 50, 87
5, 7985, Note_off_c, 3, 50, 64
5, 8153, Note_on_c, 3, 55, 89
5, 8387, Note_off_c, 3, 55, 64
5, 8871, Note_on_c, 3, 48, 85
5, 8948, Note_on_c, 3, 50, 82
5, 8955, Note_off_c, 3, 48, 64
5, 9063, Note_off_c, 3, 50, 64
5, 9084, Note_on_c, 3, 52, 82
5, 9199, Note_off_c, 3, 52, 64
5, 9343, Note_on_c, 3, 55, 80
5, 9413, Note_off_c, 3, 55, 64
5, 9593, Note_on_c, 3, 60, 66
5, 9711, Note_off_c, 3, 60, 64
5, 9843, Note_on_c, 3, 55, 85
5, 9946, Note_off_c, 3, 55, 64
5, 10078, Note_on_c, 3, 48, 80
5, 10182, Note_off_c, 3, 48, 64
5, 10315, Note_on_c, 3, 53, 89
5, 10411, Note_off_c, 3, 53, 64
5, 10558, Note_on_c, 3, 52, 70
5, 10671, Note_off_c, 3, 52, 64
5, 10776, Note_on_c, 3, 50, 85
5, 10896, Note_off_c, 3, 50, 64
5, 11009, Note_on_c, 3, 52, 68
5, 11122, Note_off_c, 3, 52, 64
5, 11256, Note_on_c, 3, 53, 82
5, 11352, Note_off_c, 3, 53, 64
5, 11513, Note_on_c, 3, 55, 85
5, 11628, Note_off_c, 3, 55, 64
5, 11739, Note_on_c, 3, 57, 82
5, 11871, Note_off_c, 3, 57, 64
5, 11971, Note_on_c, 3, 59, 82
5, 12094, Note_off_c, 3, 59, 64
5, 12199, Note_on_c, 3, 60, 82
5, 12329, Note_off_c, 3, 60, 64
5, 12447, Note_on_c, 3, 59, 85
5, 12567, Note_off_c, 3, 59, 64
5, 12679, Note_on_c, 3, 57, 85
5, 12797, Note_off_c, 3, 57, 64
5, 12922, Note_on_c, 3, 55, 87
5, 13032, Note_off_c, 3, 55, 64
5, 13159, Note_on_c, 3, 54, 66
5, 13289, Note_off_c, 3, 54, 64
5, 13421, Note_on_c, 3, 52, 70
5, 13558, Note_off_c, 3, 52, 64
5, 13642, Note_on_c, 3, 50, 80
5, 13774, Note_off_c, 3, 50, 64
5, 13882, Note_on_c, 3, 52, 72
5, 14014, Note_off_c, 3, 52, 64
5, 14127, Note_on_c, 3, 54, 82
5, 14232, Note_off_c, 3, 54, 64
5, 14371, Note_on_c, 3, 55, 87
5, 14503, Note_off_c, 3, 55, 64
5, 14616, Note_on_c, 3, 48, 82
5, 14734, Note_off_c, 3, 48, 64
5, 14854, Note_on_c, 3, 50, 87
5, 14950, Note_off_c, 3, 50, 64
5, 15094, Note_on_c, 3, 38, 87
5, 15190, Note_off_c, 3, 38, 64
5, 15367, Note_on_c, 3, 43, 95
5, 15451, Note_off_c, 3, 43, 64
5, 15569, Note_on_c, 3, 50, 82
5, 15653, Note_off_c, 3, 50, 64
5, 15835, Note_on_c, 3, 55, 87
5, 16054, Note_off_c, 3, 55, 64
5, 31921, Note_on_c, 3, 55, 89
5, 32012, Note_off_c, 3, 55, 64
5, 32029, Note_on_c, 3, 53, 80
5, 32125, Note_off_c, 3, 53, 64
5, 32147, Note_on_c, 3, 52, 85
5, 32240, Note_off_c, 3, 52, 64
5, 32394, Note_on_c, 3, 55, 87
5, 32488, Note_off_c, 3, 55, 64
5, 32641, Note_on_c, 3, 57, 82
5, 32740, Note_off_c, 3, 57, 64
5, 32881, Note_on_c, 3, 45, 85
5, 32984, Note_off_c, 3, 45, 64
5, 33119, Note_on_c, 3, 57, 80
5, 33208, Note_off_c, 3, 57, 64
5, 33342, Note_on_c, 3, 55, 70
5, 33443, Note_off_c, 3, 55, 64
5, 33596, Note_on_c, 3, 53, 85
5, 33700, Note_off_c, 3, 53, 64
5, 33812, Note_on_c, 3, 55, 78
5, 33916, Note_off_c, 3, 55, 64
5, 34060, Note_on_c, 3, 57, 87
5, 34139, Note_off_c, 3, 57, 64
5, 34290, Note_on_c, 3, 45, 80
5, 34388, Note_off_c, 3, 45, 64
5, 34540, Note_on_c, 3, 50, 91
5, 34628, Note_off_c, 3, 50, 64
5, 34788, Note_on_c, 3, 45, 78
5, 34876, Note_off_c, 3, 45, 64
5, 35039, Note_on_c, 3, 38, 91
5, 35168, Note_off_c, 3, 38, 64
5, 35274, Note_on_c, 3, 56, 64
5, 35368, Note_on_c, 3, 57, 82
5, 35382, Note_off_c, 3, 56, 64
5, 35473, Note_off_c, 3, 57, 64
5, 35503, Note_on_c, 3, 59, 91
5, 35600, Note_off_c, 3, 59, 64
5, 35756, Note_on_c, 3, 59, 82
5, 35850, Note_on_c, 3, 60, 78
5, 35864, Note_off_c, 3, 59, 64
5, 35934, Note_off_c, 3, 60, 64
5, 35980, Note_on_c, 3, 62, 95
5, 36133, Note_off_c, 3, 62, 64
5, 37201, Note_on_c, 3, 50, 87
5, 37292, Note_off_c, 3, 50, 64
5, 37429, Note_on_c, 3, 48, 91
5, 37542, Note_on_c, 3, 47, 89
5, 37556, Note_off_c, 3, 48, 64
5, 37640, Note_off_c, 3, 47, 64
5, 37657, Note_on_c, 3, 48, 87
5, 37768, Note_off_c, 3, 48, 64
5, 37780, Note_on_c, 3, 50, 85
5, 37888, Note_off_c, 3, 50, 64
5, 37907, Note_on_c, 3, 52, 91
5, 38017, Note_off_c, 3, 52, 64
5, 38159, Note_on_c, 3, 40, 87
5, 38262, Note_off_c, 3, 40, 64
5, 38392, Note_on_c, 3, 45, 98
5, 38478, Note_off_c, 3, 45, 64
5, 38612, Note_on_c, 3, 52, 82
5, 38708, Note_off_c, 3, 52, 64
5, 38848, Note_on_c, 3, 57, 87
5, 39116, Note_off_c, 3, 57, 64
5, 39578, Note_on_c, 3, 48, 91
5, 39666, Note_on_c, 3, 50, 85
5, 39685, Note_off_c, 3, 48, 64
5, 39774, Note_off_c, 3, 50, 64
5, 39808, Note_on_c, 3, 52, 91
5, 39911, Note_off_c, 3, 52, 64
5, 40057, Note_on_c, 3, 52, 85
5, 40160, Note_on_c, 3, 53, 70
5, 40170, Note_off_c, 3, 52, 64
5, 40280, Note_off_c, 3, 53, 64
5, 40288, Note_on_c, 3, 55, 87
5, 40398, Note_off_c, 3, 55, 64
5, 40535, Note_on_c, 3, 55, 62
5, 40636, Note_on_c, 3, 57, 72
5, 40648, Note_off_c, 3, 55, 64
5, 40746, Note_off_c, 3, 57, 64
5, 40780, Note_on_c, 3, 58, 85
5, 40880, Note_off_c, 3, 58, 64
5, 41024, Note_on_c, 3, 52, 72
5, 41125, Note_off_c, 3, 52, 64
5, 41284, Note_on_c, 3, 53, 93
5, 41394, Note_off_c, 3, 53, 64
5, 41538, Note_on_c, 3, 46, 80
5, 41656, Note_off_c, 3, 46, 64
5, 41764, Note_on_c, 3, 43, 82
5, 41862, Note_off_c, 3, 43, 64
5, 42000, Note_on_c, 3, 48, 89
5, 42085, Note_off_c, 3, 48, 64
5, 42241, Note_on_c, 3, 41, 91
5, 42347, Note_off_c, 3, 41, 64
5, 42469, Note_on_c, 3, 53, 80
5, 42570, Note_on_c, 3, 55, 72
5, 42580, Note_off_c, 3, 53, 64
5, 42666, Note_off_c, 3, 55, 64
5, 42703, Note_on_c, 3, 57, 89
5, 42815, Note_off_c, 3, 57, 64
5, 42815, Note_on_c, 3, 58, 78
5, 42930, Note_on_c, 3, 57, 72
5, 42937, Note_off_c, 3, 58, 64
5, 43069, Note_on_c, 3, 55, 85
5, 43076, Note_off_c, 3, 57, 64
5, 43175, Note_off_c, 3, 55, 64
5, 43192, Note_on_c, 3, 53, 82
5, 43288, Note_off_c, 3, 53, 64
5, 43309, Note_on_c, 3, 55, 70
5, 43424, Note_on_c, 3, 53, 72
5, 43441, Note_off_c, 3, 55, 64
5, 43526, Note_on_c, 3, 52, 68
5, 43532, Note_off_c, 3, 53, 64
5, 43613, Note_off_c, 3, 52, 64
5, 43655, Note_on_c, 3, 50, 76
5, 43768, Note_off_c, 3, 50, 64
5, 43768, Note_on_c, 3, 52, 68
5, 43892, Note_on_c, 3, 50, 66
5, 43921, Note_off_c, 3, 52, 64
5, 44000, Note_on_c, 3, 48, 74
5, 44010, Note_off_c, 3, 50, 64
5, 44084, Note_off_c, 3, 48, 64
5, 44137, Note_on_c, 3, 47, 85
5, 44243, Note_off_c, 3, 47, 64
5, 44257, Note_on_c, 3, 48, 66
5, 44353, Note_on_c, 3, 47, 58
5, 44389, Note_off_c, 3, 48, 64
5, 44478, Note_on_c, 3, 45, 78
5, 44500, Note_off_c, 3, 47, 64
5, 44588, Note_off_c, 3, 45, 64
5, 44591, Note_on_c, 3, 43, 80
5, 44701, Note_off_c, 3, 43, 64
5, 44723, Note_on_c, 3, 45, 70
5, 44838, Note_on_c, 3, 43, 70
5, 44862, Note_off_c, 3, 45, 64
5, 44951, Note_on_c, 3, 41, 76
5, 44958, Note_off_c, 3, 43, 64
5, 45054, Note_off_c, 3, 41, 64
5, 45081, Note_on_c, 3, 40, 76
5, 45210, Note_off_c, 3, 40, 64
5, 45310, Note_on_c, 3, 41, 82
5, 45438, Note_off_c, 3, 41, 64
5, 45568, Note_on_c, 3, 43, 87
5, 45680, Note_off_c, 3, 43, 64
5, 45817, Note_on_c, 3, 43, 89
5, 45904, Note_off_c, 3, 43, 64
5, 46091, Note_on_c, 3, 36, 98
5, 46595, Note_off_c, 3, 36, 64
5, 108721, Note_on_c, 3, 55, 89
5, 108812, Note_off_c, 3, 55, 64
5, 108829, Note_on_c, 3, 53, 80
5, 108925, Note_off_c, 3, 53, 64
5, 108947, Note_on_c, 3, 52, 85
5, 109040, Note_off_c, 3, 52, 64
5, 109194, Note_on_c, 3, 55, 87
5, 109288, Note_off_c, 3, 55, 64
5, 109441, Note_on_c, 3, 57, 82
5, 109540, Note_off_c, 3, 57, 64
5, 109681, Note_on_c, 3, 45, 85
5, 109784, Note_off_c, 3, 45, 64
5, 109919, Note_on_c, 3, 57, 80
5, 110008, Note_off_c, 3, 57, 64
5, 110142, Note_on_c, 3, 55, 70
5, 110243, Note_off_c, 3, 55, 64
5, 110396, Note_on_c, 3, 53, 85
5, 110500, Note_off_c, 3, 53, 64
5, 110612, Note_on_c, 3, 55, 78
5, 110716, Note_off_c, 3, 55, 64
5, 110860, Note_on_c, 3, 57, 87
5, 110939, Note_off_c, 3, 57, 64
5, 111090, Note_on_c, 3, 45, 80
5, 111188, Note_off_c, 3, 45, 64
5, 111340, Note_on_c, 3, 50, 91
5, 111428, Note_off_c, 3, 50, 64
5, 111588, Note_on_c, 3, 45, 78
5, 111676, Note_off_c, 3, 45, 64
5, 111839, Note_on_c, 3, 38, 91
5, 111968, Note_off_c, 3, 38, 64
5, 112074, Note_on_c, 3, 56, 64
5, 112168, Note_on_c, 3, 57, 82
5, 112182, Note_off_c, 3, 56, 64
5, 112273, Note_off_c, 3, 57, 64
5, 112303, Note_on_c, 3, 59, 91
5, 112400, Note_off_c, 3, 59, 64
5, 112556, Note_on_c, 3, 59, 82
5, 112650, Note_on_c, 3, 60, 78
5, 112664, Note_off_c, 3, 59, 64
5, 112734, Note_off_c, 3, 60, 64
5, 112780, Note_on_c, 3, 62, 95
5, 112933, Note_off_c, 3, 62, 64
5, 114001, Note_on_c, 3, 50, 87
5, 114092, Note_off_c, 3, 50, 64
5, 114229, Note_on_c, 3, 48, 91
5, 114342, Note_on_c, 3, 47, 89
5, 114356, Note_off_c, 3, 48, 64
5, 114440, Note_off_c, 3, 47, 64
5, 114457, Note_on_c, 3, 48, 87
5, 114568, Note_off_c, 3, 48, 64
5, 114580, Note_on_c, 3, 50, 85
5, 114688, Note_off_c, 3, 50, 64
5, 114707, Note_on_c, 3, 52, 91
5, 114817, Note_off_c, 3, 52, 64
5, 114959, Note_on_c, 3, 40, 87
5, 115062, Note_off_c, 3, 40, 64
5, 115192, Note_on_c, 3, 45, 98
5, 115278, Note_off_c, 3, 45, 64
5, 115412, Note_on_c, 3, 52, 82
5, 115508, Note_off_c, 3, 52, 64
5, 115648, Note_on_c, 3, 57, 87
5, 115916, Note_off_c, 3, 57, 64
5, 116378, Note_on_c, 3, 48, 91
5, 116466, Note_on_c, 3, 50, 85
5, 116485, Note_off_c, 3, 48, 64
5, 116574, Note_off_c, 3, 50, 64
5, 116608, Note_on_c, 3, 52, 91
5, 116711, Note_off_c, 3, 52, 64
5, 116857, Note_on_c, 3, 52, 85
5, 116960, Note_on_c, 3, 53, 70
5, 116970, Note_off_c, 3, 52, 64
5, 117080, Note_off_c, 3, 53, 64
5, 117088, Note_on_c, 3, 55, 87
5, 117198, Note_off_c, 3, 55, 64
5, 117335, Note_on_c, 3, 55, 62
5, 117436, Note_on_c, 3, 57, 72
5, 117448, Note_off_c, 3, 55, 64
5, 117546, Note_off_c, 3, 57, 64
5, 117580, Note_on_c, 3, 58, 85
5, 117680, Note_off_c, 3, 58, 64
5, 117824, Note_on_c, 3, 52, 72
5, 117925, Note_off_c, 3, 52, 64
5, 118084, Note_on_c, 3, 53, 93
5, 118194, Note_off_c, 3, 53, 64
5, 118338, Note_on_c, 3, 46, 80
5, 118456, Note_off_c, 3, 46, 64
5, 118564, Note_on_c, 3, 43, 82
5, 118662, Note_off_c, 3, 43, 64
5, 118800, Note_on_c, 3, 48, 89
5, 118885, Note_off_c, 3, 48, 64
5, 119041, Note_on_c, 3, 41, 91
5, 119147, Note_off_c, 3, 41, 64
5, 119269, Note_on_c, 3, 53, 80
5, 119370, Note_on_c, 3, 55, 72
5, 119380, Note_off_c, 3, 53, 64
5, 119466, Note_off_c, 3, 55, 64
5, 119503, Note_on_c, 3, 57, 89
5, 119615, Note_off_c, 3, 57, 64
5, 119615, Note_on_c, 3, 58, 78
5, 119730, Note_on_c, 3, 57, 72
5, 119737, Note_off_c, 3, 58, 64
5, 119869, Note_on_c, 3, 55, 85
5, 119876, Note_off_c, 3, 57, 64
5, 119975, Note_off_c, 3, 55, 64
5, 119992, Note_on_c, 3, 53, 82
5, 120088, Note_off_c, 3, 53, 64
5, 120109, Note_on_c, 3, 55, 70
5, 120224, Note_on_c, 3, 53, 72
5, 120241, Note_off_c, 3, 55, 64
5, 120326, Note_on_c, 3, 52, 68
5, 120332, Note_off_c, 3, 53, 64
5, 120413, Note_off_c, 3, 52, 64
5, 120455, Note_on_c, 3, 50, 76
5, 120568, Note_off_c, 3, 50, 64
5, 120568, Note_on_c, 3, 52, 68
5, 120692, Note_on_c, 3, 50, 66
5, 120721, Note_off_c, 3, 52, 64
5, 120800, Note_on_c, 3, 48, 74
5, 120810, Note_off_c, 3, 50, 64
5, 120884, Note_off_c, 3, 48, 64
5, 120937, Note_on_c, 3, 47, 85
5, 121043, Note_off_c, 3, 47, 64
5, 121057, Note_on_c, 3, 48, 66
5, 121153, Note_on_c, 3, 47, 58
5, 121189, Note_off_c, 3, 48, 64
5, 121278, Note_on_c, 3, 45, 78
5, 121300, Note_off_c, 3, 47, 64
5, 121388, Note_off_c, 3, 45, 64
5, 121391, Note_on_c, 3, 43, 80
5, 121501, Note_off_c, 3, 43, 64
5, 121523, Note_on_c, 3, 45, 70
5, 121638, Note_on_c, 3, 43, 70
5, 121662, Note_off_c, 3, 45, 64
5, 121751, Note_on_c, 3, 41, 76
5, 121758, Note_off_c, 3, 43, 64
5, 121854, Note_off_c, 3, 41, 64
5, 121881, Note_on_c, 3, 40, 76
5, 122010, Note_off_c, 3, 40, 64
5, 122110, Note_on_c, 3, 41, 82
5, 122238, Note_off_c, 3, 41, 64
5, 122368, Note_on_c, 3, 43, 87
5, 122480, Note_off_c, 3, 43, 64
5, 122617, Note_on_c, 3, 43, 89
5, 122704, Note_off_c, 3, 43, 64
5, 122891, Note_on_c, 3, 36, 98
5, 123395, Note_off_c, 3, 36, 64
5, 123395, End_track
6, 0, Start_track
6, 0, Title_t, "Oboe1"
6, 0, Program_c, 4, 68
6, 0, Control_c, 4, 7, 100
6, 713, Note_on_c, 4, 64, 91
6, 811, Note_on_c, 4, 65, 82
6, 819, Note_off_c, 4, 64, 64
6, 903, Note_off_c, 4, 65, 64
6, 946, Note_on_c, 4, 67, 80
6, 1031, Note_off_c, 4, 67, 64
6, 1190, Note_on_c, 4, 72, 82
6, 1491, Note_off_c, 4, 72, 64
6, 1683, Note_on_c, 4, 67, 82
6, 1755, Note_off_c, 4, 67, 64
6, 1932, Note_on_c, 4, 64, 85
6, 2026, Note_on_c, 4, 62, 70
6, 2038, Note_off_c, 4, 64, 64
6, 2129, Note_off_c, 4, 62, 64
6, 2136, Note_on_c, 4, 64, 78
6, 2235, Note_on_c, 4, 65, 89
6, 2251, Note_off_c, 4, 64, 64
6, 2323, Note_off_c, 4, 65, 64
6, 2372, Note_on_c, 4, 67, 93
6, 2520, Note_off_c, 4, 67, 64
6, 2619, Note_on_c, 4, 69, 82
6, 2712, Note_on_c, 4, 71, 78
6, 2722, Note_off_c, 4, 69, 64
6, 2835, Note_off_c, 4, 71, 64
6, 2842, Note_on_c, 4, 72, 80
6, 2931, Note_off_c, 4, 72, 64
6, 2959, Note_on_c, 4, 74, 85
6, 3060, Note_off_c, 4, 74, 64
6, 3063, Note_on_c, 4, 76, 82
6, 3180, Note_off_c, 4, 76, 64
6, 3190, Note_on_c, 4, 77, 91
6, 3276, Note_off_c, 4, 77, 64
6, 3322, Note_on_c, 4, 79, 95
6, 3419, Note_off_c, 4, 79, 64
6, 3576, Note_on_c, 4, 81, 85
6, 3646, Note_off_c, 4, 81, 64
6, 3823, Note_on_c, 4, 74, 89
6, 3934, Note_off_c, 4, 74, 64
6, 3939, Note_on_c, 4, 72, 82
6, 4032, Note_off_c, 4, 72, 64
6, 4051, Note_on_c, 4, 74, 80
6, 4150, Note_off_c, 4, 74, 64
6, 4167, Note_on_c, 4, 76, 66
6, 4239, Note_off_c, 4, 76, 64
6, 4294, Note_on_c, 4, 74, 102
6, 4486, Note_off_c, 4, 74, 64
6, 4543, Note_on_c, 4, 76, 87
6, 4630, Note_off_c, 4, 76, 64
6, 4659, Note_on_c, 4, 78, 66
6, 4752, Note_off_c, 4, 78, 64
6, 4795, Note_on_c, 4, 79, 105
6, 4932, Note_off_c, 4, 79, 64
6, 5016, Note_on_c, 4, 71, 85
6, 5098, Note_off_c, 4, 71, 64
6, 5127, Note_on_c, 4, 72, 80
6, 5211, Note_off_c, 4, 72, 64
6, 5261, Note_on_c, 4, 74, 100
6, 5376, Note_off_c, 4, 74, 64
6, 5508, Note_on_c, 4, 76, 57
6, 5515, Note_on_c, 4, 74, 70
6, 5542, Note_off_c, 4, 74, 64
6, 5585, Note_off_c, 4, 76, 64
6, 5611, Note_on_c, 4, 78, 63
6, 5698, Note_off_c, 4, 78, 64
6, 5755, Note_on_c, 4, 79, 107
6, 5892, Note_off_c, 4, 79, 64
6, 5986, Note_on_c, 4, 69, 87
6, 6067, Note_off_c, 4, 69, 64
6, 6087, Note_on_c, 4, 71, 80
6, 6180, Note_off_c, 4, 71, 64
6, 6227, Note_on_c, 4, 72, 100
6, 6341, Note_off_c, 4, 72, 64
6, 6480, Note_on_c, 4, 74, 89
6, 6567, Note_off_c, 4, 74, 64
6, 6725, Note_on_c, 4, 71, 102
6, 6996, Note_off_c, 4, 71, 64
6, 7044, Note_on_c, 4, 69, 70
6, 7107, Note_off_c, 4, 69, 64
6, 7159, Note_on_c, 4, 71, 80
6, 7212, Note_on_c, 4, 69, 82
6, 7215, Note_off_c, 4, 71, 64
6, 7270, Note_off_c, 4, 69, 64
6, 7272, Note_on_c, 4, 71, 80
6, 7327, Note_on_c, 4, 69, 68
6, 7354, Note_off_c, 4, 71, 64
6, 7464, Note_off_c, 4, 69, 64
6, 7534, Note_on_c, 4, 67, 78
6, 7611, Note_off_c, 4, 67, 64
6, 7678, Note_on_c, 4, 67, 85
6, 8158, Note_off_c, 4, 67, 64
6, 8403, Note_on_c, 4, 64, 82
6, 8485, Note_off_c, 4, 64, 64
6, 8503, Note_on_c, 4, 65, 66
6, 8592, Note_off_c, 4, 65, 64
6, 8631, Note_on_c, 4, 67, 82
6, 8703, Note_off_c, 4, 67, 64
6, 8878, Note_on_c, 4, 72, 85
6, 9149, Note_off_c, 4, 72, 64
6, 9355, Note_on_c, 4, 67, 87
6, 9427, Note_off_c, 4, 67, 64
6, 9595, Note_on_c, 4, 64, 82
6, 9706, Note_on_c, 4, 62, 82
6, 9715, Note_off_c, 4, 64, 64
6, 9811, Note_off_c, 4, 62, 64
6, 9816, Note_on_c, 4, 64, 78
6, 9931, Note_off_c, 4, 64, 64
6, 9943, Note_on_c, 4, 65, 85
6, 10042, Note_off_c, 4, 65, 64
6, 10075, Note_on_c, 4, 67, 85
6, 10229, Note_off_c, 4, 67, 64
6, 10301, Note_on_c, 4, 69, 87
6, 10409, Note_off_c, 4, 69, 64
6, 10409, Note_on_c, 4, 71, 78
6, 10517, Note_off_c, 4, 71, 64
6, 10524, Note_on_c, 4, 72, 78
6, 10623, Note_off_c, 4, 72, 64
6, 10651, Note_on_c, 4, 74, 87
6, 10747, Note_off_c, 4, 74, 64
6, 10752, Note_on_c, 4, 76, 74
6, 10858, Note_off_c, 4, 76, 64
6, 10879, Note_on_c, 4, 77, 85
6, 10963, Note_off_c, 4, 77, 64
6, 11014, Note_on_c, 4, 79, 98
6, 11119, Note_off_c, 4, 79, 64
6, 11266, Note_on_c, 4, 81, 87
6, 11352, Note_off_c, 4, 81, 64
6, 11511, Note_on_c, 4, 74, 85
6, 11619, Note_off_c, 4, 74, 64
6, 11623, Note_on_c, 4, 72, 80
6, 11722, Note_off_c, 4, 72, 64
6, 11736, Note_on_c, 4, 74, 66
6, 11857, Note_off_c, 4, 74, 64
6, 11857, Note_on_c, 4, 76, 62
6, 11933, Note_off_c, 4, 76, 64
6, 11979, Note_on_c, 4, 74, 102
6, 12168, Note_off_c, 4, 74, 64
6, 12228, Note_on_c, 4, 76, 82
6, 12319, Note_off_c, 4, 76, 64
6, 12331, Note_on_c, 4, 78, 72
6, 12435, Note_off_c, 4, 78, 64
6, 12478, Note_on_c, 4, 79, 102
6, 12631, Note_off_c, 4, 79, 64
6, 12706, Note_on_c, 4, 71, 85
6, 12795, Note_off_c, 4, 71, 64
6, 12804, Note_on_c, 4, 72, 76
6, 12881, Note_off_c, 4, 72, 64
6, 12934, Note_on_c, 4, 74, 98
6, 13078, Note_off_c, 4, 74, 64
6, 13181, Note_on_c, 4, 76, 87
6, 13270, Note_off_c, 4, 76, 64
6, 13289, Note_on_c, 4, 78, 70
6, 13380, Note_off_c, 4, 78, 64
6, 13423, Note_on_c, 4, 79, 102
6, 13558, Note_off_c, 4, 79, 64
6, 13649, Note_on_c, 4, 69, 76
6, 13738, Note_off_c, 4, 69, 64
6, 13769, Note_on_c, 4, 71, 78
6, 13855, Note_off_c, 4, 71, 64
6, 13896, Note_on_c, 4, 72, 91
6, 14011, Note_off_c, 4, 72, 64
6, 14151, Note_on_c, 4, 74, 93
6, 14242, Note_off_c, 4, 74, 64
6, 14406, Note_on_c, 4, 71, 93
6, 14686, Note_off_c, 4, 71, 64
6, 14753, Note_on_c, 4, 69, 80
6, 14820, Note_off_c, 4, 69, 64
6, 14856, Note_on_c, 4, 71, 85
6, 14923, Note_off_c, 4, 71, 64
6, 14926, Note_on_c, 4, 69, 72
6, 14986, Note_on_c, 4, 71, 89
6, 14995, Note_off_c, 4, 69, 64
6, 15034, Note_on_c, 4, 69, 64
6, 15063, Note_off_c, 4, 71, 64
6, 15149, Note_off_c, 4, 69, 64
6, 15214, Note_on_c, 4, 67, 82
6, 15284, Note_off_c, 4, 67, 64
6, 15358, Note_on_c, 4, 67, 95
6, 15799, Note_off_c, 4, 67, 64
6, 31444, Note_on_c, 4, 71, 93
6, 31536, Note_on_c, 4, 72, 85
6, 31554, Note_off_c, 4, 71, 64
6, 31631, Note_off_c, 4, 72, 64
6, 31681, Note_on_c, 4, 74, 82
6, 31770, Note_off_c, 4, 74, 64
6, 31916, Note_on_c, 4, 79, 85
6, 32180, Note_off_c, 4, 79, 64
6, 32419, Note_on_c, 4, 82, 91
6, 32497, Note_off_c, 4, 82, 64
6, 32665, Note_on_c, 4, 73, 82
6, 32773, Note_on_c, 4, 71, 68
6, 32791, Note_off_c, 4, 73, 64
6, 32888, Note_on_c, 4, 73, 62
6, 32921, Note_off_c, 4, 71, 64
6, 33004, Note_off_c, 4, 73, 64
6, 33016, Note_on_c, 4, 74, 76
6, 33136, Note_on_c, 4, 76, 100
6, 33143, Note_off_c, 4, 74, 64
6, 33254, Note_off_c, 4, 76, 64
6, 33354, Note_on_c, 4, 77, 82
6, 33462, Note_off_c, 4, 77, 64
6, 33464, Note_on_c, 4, 79, 80
6, 33560, Note_off_c, 4, 79, 64
6, 33596, Note_on_c, 4, 81, 98
6, 33697, Note_off_c, 4, 81, 64
6, 33709, Note_on_c, 4, 79, 64
6, 33800, Note_off_c, 4, 79, 64
6, 33840, Note_on_c, 4, 81, 80
6, 33956, Note_on_c, 4, 82, 80
6, 33959, Note_off_c, 4, 81, 64
6, 34038, Note_off_c, 4, 82, 64
6, 34074, Note_on_c, 4, 81, 89
6, 34192, Note_off_c, 4, 81, 64
6, 34192, Note_on_c, 4, 79, 80
6, 34302, Note_off_c, 4, 79, 64
6, 34314, Note_on_c, 4, 77, 70
6, 34412, Note_off_c, 4, 77, 64
6, 34424, Note_on_c, 4, 76, 59
6, 34494, Note_off_c, 4, 76, 64
6, 34549, Note_on_c, 4, 77, 100
6, 34679, Note_off_c, 4, 77, 64
6, 34679, Note_on_c, 4, 79, 80
6, 34794, Note_on_c, 4, 77, 66
6, 34828, Note_off_c, 4, 79, 64
6, 34900, Note_off_c, 4, 77, 64
6, 34901, Note_on_c, 4, 76, 66
6, 35000, Note_off_c, 4, 76, 64
6, 35029, Note_on_c, 4, 74, 93
6, 35147, Note_off_c, 4, 74, 64
6, 35279, Note_on_c, 4, 83, 82
6, 35404, Note_on_c, 4, 84, 78
6, 35405, Note_off_c, 4, 83, 64
6, 35495, Note_off_c, 4, 84, 64
6, 35531, Note_on_c, 4, 86, 102
6, 35639, Note_off_c, 4, 86, 64
6, 35768, Note_on_c, 4, 80, 78
6, 35871, Note_off_c, 4, 80, 64
6, 35876, Note_on_c, 4, 81, 82
6, 35963, Note_off_c, 4, 81, 64
6, 36008, Note_on_c, 4, 83, 100
6, 36114, Note_off_c, 4, 83, 64
6, 36256, Note_on_c, 4, 74, 82
6, 36356, Note_on_c, 4, 76, 68
6, 36369, Note_off_c, 4, 74, 64
6, 36462, Note_off_c, 4, 76, 64
6, 36491, Note_on_c, 4, 77, 87
6, 36590, Note_off_c, 4, 77, 64
6, 36716, Note_on_c, 4, 71, 70
6, 36834, Note_off_c, 4, 71, 64
6, 36858, Note_on_c, 4, 72, 60
6, 36964, Note_on_c, 4, 74, 80
6, 36973, Note_off_c, 4, 72, 64
6, 37048, Note_off_c, 4, 74, 64
6, 37194, Note_on_c, 4, 68, 64
6, 37298, Note_off_c, 4, 68, 64
6, 37434, Note_on_c, 4, 69, 85
6, 37698, Note_off_c, 4, 69, 64
6, 37772, Note_on_c, 4, 71, 82
6, 37852, Note_off_c, 4, 71, 64
6, 37916, Note_on_c, 4, 72, 93
6, 37976, Note_on_c, 4, 71, 87
6, 37981, Note_off_c, 4, 72, 64
6, 38041, Note_on_c, 4, 72, 80
6, 38053, Note_off_c, 4, 71, 64
6, 38101, Note_on_c, 4, 71, 72
6, 38128, Note_off_c, 4, 72, 64
6, 38209, Note_off_c, 4, 71, 64
6, 38269, Note_on_c, 4, 69, 66
6, 38351, Note_off_c, 4, 69, 64
6, 38413, Note_on_c, 4, 69, 89
6, 38891, Note_off_c, 4, 69, 64
6, 39112, Note_on_c, 4, 76, 85
6, 39208, Note_off_c, 4, 76, 64
6, 39208, Note_on_c, 4, 77, 85
6, 39296, Note_off_c, 4, 77, 64
6, 39344, Note_on_c, 4, 79, 85
6, 39424, Note_off_c, 4, 79, 64
6, 39589, Note_on_c, 4, 84, 85
6, 39884, Note_off_c, 4, 84, 64
6, 40067, Note_on_c, 4, 79, 85
6, 40154, Note_off_c, 4, 79, 64
6, 40316, Note_on_c, 4, 76, 78
6, 40415, Note_on_c, 4, 74, 66
6, 40424, Note_off_c, 4, 76, 64
6, 40513, Note_on_c, 4, 76, 78
6, 40525, Note_off_c, 4, 74, 64
6, 40631, Note_off_c, 4, 76, 64
6, 40636, Note_on_c, 4, 77, 82
6, 40741, Note_off_c, 4, 77, 64
6, 40768, Note_on_c, 4, 79, 87
6, 40844, Note_off_c, 4, 79, 64
6, 41029, Note_on_c, 4, 70, 74
6, 41135, Note_off_c, 4, 70, 64
6, 41288, Note_on_c, 4, 69, 82
6, 41454, Note_off_c, 4, 69, 64
6, 41531, Note_on_c, 4, 74, 82
6, 41641, Note_on_c, 4, 72, 76
6, 41672, Note_off_c, 4, 74, 64
6, 41761, Note_off_c, 4, 72, 64
6, 41768, Note_on_c, 4, 70, 85
6, 41886, Note_on_c, 4, 69, 85
6, 41888, Note_off_c, 4, 70, 64
6, 41996, Note_off_c, 4, 69, 64
6, 41996, Note_on_c, 4, 70, 72
6, 42114, Note_off_c, 4, 70, 64
6, 42114, Note_on_c, 4, 67, 66
6, 42199, Note_off_c, 4, 67, 64
6, 42244, Note_on_c, 4, 69, 89
6, 42337, Note_on_c, 4, 70, 63
6, 42352, Note_off_c, 4, 69, 64
6, 42450, Note_on_c, 4, 69, 64
6, 42481, Note_off_c, 4, 70, 64
6, 42558, Note_off_c, 4, 69, 64
6, 42570, Note_on_c, 4, 67, 85
6, 42678, Note_off_c, 4, 67, 64
6, 42700, Note_on_c, 4, 65, 87
6, 42793, Note_off_c, 4, 65, 64
6, 42937, Note_on_c, 4, 77, 61
6, 43052, Note_off_c, 4, 77, 64
6, 43052, Note_on_c, 4, 79, 74
6, 43151, Note_off_c, 4, 79, 64
6, 43180, Note_on_c, 4, 81, 91
6, 43285, Note_off_c, 4, 81, 64
6, 43420, Note_on_c, 4, 74, 80
6, 43526, Note_off_c, 4, 74, 64
6, 43537, Note_on_c, 4, 76, 76
6, 43628, Note_off_c, 4, 76, 64
6, 43657, Note_on_c, 4, 77, 87
6, 43768, Note_off_c, 4, 77, 64
6, 43897, Note_on_c, 4, 71, 76
6, 43998, Note_on_c, 4, 72, 82
6, 44024, Note_off_c, 4, 71, 64
6, 44101, Note_off_c, 4, 72, 64
6, 44137, Note_on_c, 4, 74, 89
6, 44233, Note_off_c, 4, 74, 64
6, 44389, Note_on_c, 4, 67, 66
6, 44485, Note_off_c, 4, 67, 64
6, 44644, Note_on_c, 4, 79, 93
6, 44716, Note_off_c, 4, 79, 64
6, 44872, Note_on_c, 4, 71, 87
6, 44968, Note_off_c, 4, 71, 64
6, 45121, Note_on_c, 4, 72, 85
6, 45378, Note_off_c, 4, 72, 64
6, 45455, Note_on_c, 4, 74, 80
6, 45512, Note_off_c, 4, 74, 64
6, 45600, Note_on_c, 4, 76, 87
6, 45666, Note_on_c, 4, 74, 100
6, 45671, Note_off_c, 4, 76, 64
6, 45736, Note_on_c, 4, 76, 74
6, 45738, Note_off_c, 4, 74, 64
6, 45798, Note_on_c, 4, 74, 78
6, 45815, Note_off_c, 4, 76, 64
6, 45899, Note_off_c, 4, 74, 64
6, 45956, Note_on_c, 4, 72, 82
6, 46030, Note_off_c, 4, 72, 64
6, 46108, Note_on_c, 4, 72, 100
6, 46537, Note_off_c, 4, 72, 64
6, 62155, Note_on_c, 4, 79, 74
6, 62248, Note_off_c, 4, 79, 64
6, 62250, Note_on_c, 4, 77, 59
6, 62330, Note_off_c, 4, 77, 64
6, 62385, Note_on_c, 4, 79, 78
6, 62469, Note_off_c, 4, 79, 64
6, 62646, Note_on_c, 4, 81, 78
6, 63008, Note_off_c, 4, 81, 64
6, 63138, Note_on_c, 4, 82, 82
6, 63251, Note_off_c, 4, 82, 64
6, 63365, Note_on_c, 4, 74, 61
6, 63471, Note_off_c, 4, 74, 64
6, 63471, Note_on_c, 4, 72, 64
6, 63584, Note_off_c, 4, 72, 64
6, 63597, Note_on_c, 4, 74, 57
6, 63710, Note_on_c, 4, 75, 52
6, 63719, Note_off_c, 4, 74, 64
6, 63829, Note_off_c, 4, 75, 64
6, 63844, Note_on_c, 4, 77, 56
6, 63950, Note_on_c, 4, 75, 62
6, 63951, Note_off_c, 4, 77, 64
6, 64030, Note_off_c, 4, 75, 64
6, 64056, Note_on_c, 4, 77, 66
6, 64154, Note_off_c, 4, 77, 64
6, 64173, Note_on_c, 4, 79, 66
6, 64266, Note_off_c, 4, 79, 64
6, 64299, Note_on_c, 4, 80, 57
6, 64401, Note_off_c, 4, 80, 64
6, 64423, Note_on_c, 4, 79, 53
6, 64518, Note_off_c, 4, 79, 64
6, 64560, Note_on_c, 4, 82, 70
6, 64948, Note_off_c, 4, 82, 64
6, 65026, Note_on_c, 4, 80, 57
6, 65127, Note_off_c, 4, 80, 64
6, 65137, Note_on_c, 4, 79, 56
6, 65231, Note_off_c, 4, 79, 64
6, 65277, Note_on_c, 4, 80, 70
6, 65388, Note_on_c, 4, 79, 72
6, 65403, Note_off_c, 4, 80, 64
6, 65489, Note_off_c, 4, 79, 64
6, 65519, Note_on_c, 4, 77, 46
6, 65611, Note_on_c, 4, 80, 62
6, 65631, Note_off_c, 4, 77, 64
6, 65743, Note_on_c, 4, 79, 64
6, 65755, Note_off_c, 4, 80, 64
6, 65860, Note_off_c, 4, 79, 64
6, 65877, Note_on_c, 4, 77, 53
6, 65958, Note_off_c, 4, 77, 64
6, 66004, Note_on_c, 4, 75, 78
6, 66112, Note_off_c, 4, 75, 64
6, 66112, Note_on_c, 4, 74, 53
6, 66205, Note_off_c, 4, 74, 64
6, 66238, Note_on_c, 4, 75, 64
6, 66346, Note_off_c, 4, 75, 64
6, 66351, Note_on_c, 4, 74, 56
6, 66437, Note_off_c, 4, 74, 64
6, 66479, Note_on_c, 4, 77, 80
6, 66874, Note_off_c, 4, 77, 64
6, 66938, Note_on_c, 4, 75, 59
6, 67026, Note_off_c, 4, 75, 64
6, 67028, Note_on_c, 4, 74, 52
6, 67126, Note_off_c, 4, 74, 64
6, 67172, Note_on_c, 4, 75, 74
6, 67254, Note_off_c, 4, 75, 64
6, 67280, Note_on_c, 4, 72, 66
6, 67357, Note_off_c, 4, 72, 64
6, 67419, Note_on_c, 4, 78, 63
6, 67814, Note_off_c, 4, 78, 64
6, 67912, Note_on_c, 4, 79, 74
6, 68020, Note_on_c, 4, 81, 66
6, 68025, Note_off_c, 4, 79, 64
6, 68097, Note_off_c, 4, 81, 64
6, 68157, Note_on_c, 4, 74, 78
6, 68378, Note_off_c, 4, 74, 64
6, 68393, Note_on_c, 4, 72, 66
6, 68484, Note_off_c, 4, 72, 64
6, 68508, Note_on_c, 4, 70, 66
6, 68590, Note_off_c, 4, 70, 64
6, 68627, Note_on_c, 4, 72, 72
6, 68740, Note_on_c, 4, 70, 59
6, 68742, Note_off_c, 4, 72, 64
6, 68837, Note_off_c, 4, 70, 64
6, 68870, Note_on_c, 4, 69, 55
6, 68980, Note_off_c, 4, 69, 64
6, 68983, Note_on_c, 4, 70, 66
6, 69071, Note_off_c, 4, 70, 64
6, 69117, Note_on_c, 4, 67, 70
6, 69654, Note_off_c, 4, 67, 64
6, 69824, Note_on_c, 4, 67, 70
6, 69930, Note_on_c, 4, 68, 61
6, 69940, Note_off_c, 4, 67, 64
6, 70036, Note_off_c, 4, 68, 64
6, 70069, Note_on_c, 4, 70, 66
6, 70167, Note_off_c, 4, 70, 64
6, 70181, Note_on_c, 4, 72, 66
6, 70270, Note_off_c, 4, 72, 64
6, 70310, Note_on_c, 4, 73, 64
6, 70669, Note_off_c, 4, 73, 64
6, 70736, Note_on_c, 4, 72, 63
6, 70862, Note_off_c, 4, 72, 64
6, 70864, Note_on_c, 4, 70, 64
6, 70956, Note_off_c, 4, 70, 64
6, 70983, Note_on_c, 4, 76, 76
6, 71099, Note_off_c, 4, 76, 64
6, 71250, Note_on_c, 4, 77, 70
6, 71639, Note_off_c, 4, 77, 64
6, 71758, Note_on_c, 4, 79, 82
6, 71875, Note_on_c, 4, 80, 62
6, 71877, Note_off_c, 4, 79, 64
6, 71948, Note_off_c, 4, 80, 64
6, 71990, Note_on_c, 4, 79, 66
6, 72085, Note_off_c, 4, 79, 64
6, 72096, Note_on_c, 4, 77, 53
6, 72204, Note_off_c, 4, 77, 64
6, 72225, Note_on_c, 4, 75, 63
6, 72346, Note_off_c, 4, 75, 64
6, 72348, Note_on_c, 4, 79, 70
6, 72473, Note_off_c, 4, 79, 64
6, 72482, Note_on_c, 4, 77, 70
6, 72604, Note_on_c, 4, 75, 64
6, 72608, Note_off_c, 4, 77, 64
6, 72732, Note_off_c, 4, 75, 64
6, 72741, Note_on_c, 4, 74, 60
6, 72853, Note_off_c, 4, 74, 64
6, 72855, Note_on_c, 4, 72, 59
6, 72948, Note_off_c, 4, 72, 64
6, 72988, Note_on_c, 4, 71, 58
6, 73089, Note_off_c, 4, 71, 64
6, 73096, Note_on_c, 4, 69, 53
6, 73206, Note_on_c, 4, 71, 62
6, 73215, Note_off_c, 4, 69, 64
6, 73306, Note_off_c, 4, 71, 64
6, 73315, Note_on_c, 4, 72, 62
6, 73416, Note_off_c, 4, 72, 64
6, 73436, Note_on_c, 4, 74, 60
6, 73551, Note_on_c, 4, 75, 66
6, 73560, Note_off_c, 4, 74, 64
6, 73663, Note_off_c, 4, 75, 64
6, 73668, Note_on_c, 4, 77, 60
6, 73778, Note_on_c, 4, 74, 61
6, 73785, Note_off_c, 4, 77, 64
6, 73869, Note_off_c, 4, 74, 64
6, 73902, Note_on_c, 4, 75, 68
6, 74001, Note_off_c, 4, 75, 64
6, 74158, Note_on_c, 4, 74, 70
6, 74518, Note_off_c, 4, 74, 64
6, 74617, Note_on_c, 4, 72, 59
6, 74714, Note_on_c, 4, 71, 66
6, 74721, Note_off_c, 4, 72, 64
6, 74812, Note_off_c, 4, 71, 64
6, 74849, Note_on_c, 4, 72, 76
6, 75020, Note_off_c, 4, 72, 64
6, 75079, Note_on_c, 4, 74, 72
6, 75132, Note_on_c, 4, 75, 57
6, 75156, Note_off_c, 4, 74, 64
6, 75198, Note_on_c, 4, 77, 78
6, 75225, Note_off_c, 4, 75, 64
6, 75525, Note_off_c, 4, 77, 64
6, 75580, Note_on_c, 4, 75, 64
6, 75684, Note_off_c, 4, 75, 64
6, 75686, Note_on_c, 4, 74, 63
6, 75777, Note_off_c, 4, 74, 64
6, 75816, Note_on_c, 4, 75, 74
6, 75913, Note_off_c, 4, 75, 64
6, 75933, Note_on_c, 4, 72, 60
6, 76002, Note_off_c, 4, 72, 64
6, 76064, Note_on_c, 4, 74, 70
6, 76435, Note_off_c, 4, 74, 64
6, 76527, Note_on_c, 4, 72, 62
6, 76631, Note_off_c, 4, 72, 64
6, 76642, Note_on_c, 4, 71, 60
6, 76737, Note_off_c, 4, 71, 64
6, 76781, Note_on_c, 4, 72, 66
6, 77247, Note_off_c, 4, 72, 64
6, 77511, Note_on_c, 4, 79, 70
6, 77594, Note_off_c, 4, 79, 64
6, 77611, Note_on_c, 4, 77, 64
6, 77693, Note_off_c, 4, 77, 64
6, 77753, Note_on_c, 4, 79, 70
6, 77843, Note_off_c, 4, 79, 64
6, 78000, Note_on_c, 4, 81, 82
6, 78389, Note_off_c, 4, 81, 64
6, 78490, Note_on_c, 4, 82, 74
6, 78616, Note_off_c, 4, 82, 64
6, 78722, Note_on_c, 4, 74, 46
6, 78815, Note_off_c, 4, 74, 64
6, 78828, Note_on_c, 4, 72, 60
6, 78938, Note_on_c, 4, 74, 64
6, 78956, Note_off_c, 4, 72, 64
6, 79051, Note_on_c, 4, 75, 59
6, 79082, Note_off_c, 4, 74, 64
6, 79181, Note_off_c, 4, 75, 64
6, 79181, Note_on_c, 4, 77, 59
6, 79296, Note_on_c, 4, 75, 63
6, 79314, Note_off_c, 4, 77, 64
6, 79380, Note_off_c, 4, 75, 64
6, 79402, Note_on_c, 4, 77, 64
6, 79515, Note_off_c, 4, 77, 64
6, 79526, Note_on_c, 4, 79, 64
6, 79629, Note_off_c, 4, 79, 64
6, 79643, Note_on_c, 4, 80, 56
6, 79758, Note_off_c, 4, 80, 64
6, 79764, Note_on_c, 4, 79, 54
6, 79875, Note_off_c, 4, 79, 64
6, 79914, Note_on_c, 4, 82, 66
6, 80310, Note_off_c, 4, 82, 64
6, 80374, Note_on_c, 4, 80, 61
6, 80462, Note_off_c, 4, 80, 64
6, 80478, Note_on_c, 4, 79, 63
6, 80570, Note_off_c, 4, 79, 64
6, 80623, Note_on_c, 4, 80, 87
6, 80731, Note_on_c, 4, 79, 66
6, 80745, Note_off_c, 4, 80, 64
6, 80853, Note_off_c, 4, 79, 64
6, 80858, Note_on_c, 4, 77, 51
6, 80961, Note_on_c, 4, 80, 57
6, 80976, Note_off_c, 4, 77, 64
6, 81091, Note_on_c, 4, 79, 60
6, 81100, Note_off_c, 4, 80, 64
6, 81210, Note_off_c, 4, 79, 64
6, 81215, Note_on_c, 4, 77, 58
6, 81310, Note_off_c, 4, 77, 64
6, 81343, Note_on_c, 4, 75, 63
6, 81451, Note_on_c, 4, 74, 53
6, 81452, Note_off_c, 4, 75, 64
6, 81546, Note_off_c, 4, 74, 64
6, 81584, Note_on_c, 4, 75, 76
6, 81692, Note_off_c, 4, 75, 64
6, 81701, Note_on_c, 4, 74, 59
6, 81789, Note_off_c, 4, 74, 64
6, 81835, Note_on_c, 4, 77, 80
6, 82231, Note_off_c, 4, 77, 64
6, 82306, Note_on_c, 4, 75, 68
6, 82396, Note_off_c, 4, 75, 64
6, 82429, Note_on_c, 4, 74, 59
6, 82509, Note_off_c, 4, 74, 64
6, 82537, Note_on_c, 4, 75, 74
6, 82620, Note_off_c, 4, 75, 64
6, 82657, Note_on_c, 4, 72, 62
6, 82738, Note_off_c, 4, 72, 64
6, 82787, Note_on_c, 4, 78, 57
6, 83215, Note_off_c, 4, 78, 64
6, 83279, Note_on_c, 4, 79, 70
6, 83381, Note_off_c, 4, 79, 64
6, 83385, Note_on_c, 4, 81, 66
6, 83467, Note_off_c, 4, 81, 64
6, 83518, Note_on_c, 4, 74, 70
6, 83725, Note_off_c, 4, 74, 64
6, 83758, Note_on_c, 4, 72, 58
6, 83849, Note_off_c, 4, 72, 64
6, 83867, Note_on_c, 4, 70, 82
6, 83951, Note_off_c, 4, 70, 64
6, 83992, Note_on_c, 4, 72, 80
6, 84098, Note_on_c, 4, 70, 58
6, 84110, Note_off_c, 4, 72, 64
6, 84227, Note_on_c, 4, 69, 82
6, 84233, Note_off_c, 4, 70, 64
6, 84324, Note_off_c, 4, 69, 64
6, 84339, Note_on_c, 4, 70, 60
6, 84430, Note_off_c, 4, 70, 64
6, 84469, Note_on_c, 4, 67, 64
6, 85010, Note_off_c, 4, 67, 64
6, 85191, Note_on_c, 4, 67, 70
6, 85291, Note_off_c, 4, 67, 64
6, 85291, Note_on_c, 4, 68, 63
6, 85411, Note_off_c, 4, 68, 64
6, 85417, Note_on_c, 4, 70, 63
6, 85507, Note_off_c, 4, 70, 64
6, 85525, Note_on_c, 4, 72, 64
6, 85637, Note_off_c, 4, 72, 64
6, 85657, Note_on_c, 4, 73, 64
6, 86013, Note_off_c, 4, 73, 64
6, 86112, Note_on_c, 4, 72, 64
6, 86220, Note_off_c, 4, 72, 64
6, 86229, Note_on_c, 4, 70, 58
6, 86320, Note_off_c, 4, 70, 64
6, 86349, Note_on_c, 4, 76, 80
6, 86463, Note_off_c, 4, 76, 64
6, 86600, Note_on_c, 4, 77, 78
6, 86964, Note_off_c, 4, 77, 64
6, 87115, Note_on_c, 4, 79, 85
6, 87227, Note_on_c, 4, 80, 66
6, 87238, Note_off_c, 4, 79, 64
6, 87327, Note_off_c, 4, 80, 64
6, 87346, Note_on_c, 4, 79, 68
6, 87455, Note_on_c, 4, 77, 62
6, 87457, Note_off_c, 4, 79, 64
6, 87580, Note_off_c, 4, 77, 64
6, 87588, Note_on_c, 4, 75, 78
6, 87698, Note_off_c, 4, 75, 64
6, 87709, Note_on_c, 4, 79, 76
6, 87828, Note_on_c, 4, 77, 66
6, 87841, Note_off_c, 4, 79, 64
6, 87950, Note_on_c, 4, 75, 59
6, 87954, Note_off_c, 4, 77, 64
6, 88062, Note_off_c, 4, 75, 64
6, 88084, Note_on_c, 4, 74, 61
6, 88197, Note_off_c, 4, 74, 64
6, 88197, Note_on_c, 4, 72, 60
6, 88285, Note_off_c, 4, 72, 64
6, 88327, Note_on_c, 4, 71, 57
6, 88426, Note_off_c, 4, 71, 64
6, 88429, Note_on_c, 4, 69, 55
6, 88552, Note_off_c, 4, 69, 64
6, 88561, Note_on_c, 4, 71, 58
6, 88665, Note_off_c, 4, 71, 64
6, 88668, Note_on_c, 4, 72, 64
6, 88764, Note_off_c, 4, 72, 64
6, 88790, Note_on_c, 4, 74, 60
6, 88901, Note_on_c, 4, 75, 74
6, 88910, Note_off_c, 4, 74, 64
6, 89018, Note_on_c, 4, 77, 66
6, 89033, Note_off_c, 4, 75, 64
6, 89137, Note_on_c, 4, 74, 63
6, 89146, Note_off_c, 4, 77, 64
6, 89230, Note_off_c, 4, 74, 64
6, 89259, Note_on_c, 4, 75, 70
6, 89345, Note_off_c, 4, 75, 64
6, 89508, Note_on_c, 4, 74, 74
6, 89890, Note_off_c, 4, 74, 64
6, 89967, Note_on_c, 4, 72, 57
6, 90064, Note_on_c, 4, 71, 63
6, 90073, Note_off_c, 4, 72, 64
6, 90157, Note_off_c, 4, 71, 64
6, 90197, Note_on_c, 4, 72, 68
6, 90380, Note_off_c, 4, 72, 64
6, 90460, Note_on_c, 4, 74, 72
6, 90511, Note_on_c, 4, 75, 63
6, 90530, Note_off_c, 4, 74, 64
6, 90583, Note_on_c, 4, 77, 74
6, 90610, Note_off_c, 4, 75, 64
6, 90921, Note_off_c, 4, 77, 64
6, 90970, Note_on_c, 4, 75, 74
6, 91060, Note_off_c, 4, 75, 64
6, 91067, Note_on_c, 4, 74, 66
6, 91153, Note_off_c, 4, 74, 64
6, 91193, Note_on_c, 4, 75, 80
6, 91281, Note_off_c, 4, 75, 64
6, 91303, Note_on_c, 4, 72, 63
6, 91372, Note_off_c, 4, 72, 64
6, 91431, Note_on_c, 4, 74, 64
6, 91820, Note_off_c, 4, 74, 64
6, 91889, Note_on_c, 4, 72, 66
6, 91990, Note_off_c, 4, 72, 64
6, 91992, Note_on_c, 4, 71, 68
6, 92080, Note_off_c, 4, 71, 64
6, 92138, Note_on_c, 4, 72, 59
6, 92638, Note_off_c, 4, 72, 64
6, 108244, Note_on_c, 4, 71, 93
6, 108336, Note_on_c, 4, 72, 85
6, 108354, Note_off_c, 4, 71, 64
6, 108431, Note_off_c, 4, 72, 64
6, 108481, Note_on_c, 4, 74, 82
6, 108570, Note_off_c, 4, 74, 64
6, 108716, Note_on_c, 4, 79, 85
6, 108980, Note_off_c, 4, 79, 64
6, 109219, Note_on_c, 4, 82, 91
6, 109297, Note_off_c, 4, 82, 64
6, 109465, Note_on_c, 4, 73, 82
6, 109573, Note_on_c, 4, 71, 68
6, 109591, Note_off_c, 4, 73, 64
6, 109688, Note_on_c, 4, 73, 62
6, 109721, Note_off_c, 4, 71, 64
6, 109804, Note_off_c, 4, 73, 64
6, 109816, Note_on_c, 4, 74, 76
6, 109936, Note_on_c, 4, 76, 100
6, 109943, Note_off_c, 4, 74, 64
6, 110054, Note_off_c, 4, 76, 64
6, 110154, Note_on_c, 4, 77, 82
6, 110262, Note_off_c, 4, 77, 64
6, 110264, Note_on_c, 4, 79, 80
6, 110360, Note_off_c, 4, 79, 64
6, 110396, Note_on_c, 4, 81, 98
6, 110497, Note_off_c, 4, 81, 64
6, 110509, Note_on_c, 4, 79, 64
6, 110600, Note_off_c, 4, 79, 64
6, 110640, Note_on_c, 4, 81, 80
6, 110756, Note_on_c, 4, 82, 80
6, 110759, Note_off_c, 4, 81, 64
6, 110838, Note_off_c, 4, 82, 64
6, 110874, Note_on_c, 4, 81, 89
6, 110992, Note_off_c, 4, 81, 64
6, 110992, Note_on_c, 4, 79, 80
6, 111102, Note_off_c, 4, 79, 64
6, 111114, Note_on_c, 4, 77, 70
6, 111212, Note_off_c, 4, 77, 64
6, 111224, Note_on_c, 4, 76, 59
6, 111294, Note_off_c, 4, 76, 64
6, 111349, Note_on_c, 4, 77, 100
6, 111479, Note_off_c, 4, 77, 64
6, 111479, Note_on_c, 4, 79, 80
6, 111594, Note_on_c, 4, 77, 66
6, 111628, Note_off_c, 4, 79, 64
6, 111700, Note_off_c, 4, 77, 64
6, 111701, Note_on_c, 4, 76, 66
6, 111800, Note_off_c, 4, 76, 64
6, 111829, Note_on_c, 4, 74, 93
6, 111947, Note_off_c, 4, 74, 64
6, 112079, Note_on_c, 4, 83, 82
6, 112204, Note_on_c, 4, 84, 78
6, 112205, Note_off_c, 4, 83, 64
6, 112295, Note_off_c, 4, 84, 64
6, 112331, Note_on_c, 4, 86, 102
6, 112439, Note_off_c, 4, 86, 64
6, 112568, Note_on_c, 4, 80, 78
6, 112671, Note_off_c, 4, 80, 64
6, 112676, Note_on_c, 4, 81, 82
6, 112763, Note_off_c, 4, 81, 64
6, 112808, Note_on_c, 4, 83, 100
6, 112914, Note_off_c, 4, 83, 64
6, 113056, Note_on_c, 4, 74, 82
6, 113156, Note_on_c, 4, 76, 68
6, 113169, Note_off_c, 4, 74, 64
6, 113262, Note_off_c, 4, 76, 64
6, 113291, Note_on_c, 4, 77, 87
6, 113390, Note_off_c, 4, 77, 64
6, 113516, Note_on_c, 4, 71, 70
6, 113634, Note_off_c, 4, 71, 64
6, 113658, Note_on_c, 4, 72, 60
6, 113764, Note_on_c, 4, 74, 80
6, 113773, Note_off_c, 4, 72, 64
6, 113848, Note_off_c, 4, 74, 64
6, 113994, Note_on_c, 4, 68, 64
6, 114098, Note_off_c, 4, 68, 64
6, 114234, Note_on_c, 4, 69, 85
6, 114498, Note_off_c, 4, 69, 64
6, 114572, Note_on_c, 4, 71, 82
6, 114652, Note_off_c, 4, 71, 64
6, 114716, Note_on_c, 4, 72, 93
6, 114776, Note_on_c, 4, 71, 87
6, 114781, Note_off_c, 4, 72, 64
6, 114841, Note_on_c, 4, 72, 80
6, 114853, Note_off_c, 4, 71, 64
6, 114901, Note_on_c, 4, 71, 72
6, 114928, Note_off_c, 4, 72, 64
6, 115009, Note_off_c, 4, 71, 64
6, 115069, Note_on_c, 4, 69, 66
6, 115151, Note_off_c, 4, 69, 64
6, 115213, Note_on_c, 4, 69, 89
6, 115691, Note_off_c, 4, 69, 64
6, 115912, Note_on_c, 4, 76, 85
6, 116008, Note_off_c, 4, 76, 64
6, 116008, Note_on_c, 4, 77, 85
6, 116096, Note_off_c, 4, 77, 64
6, 116144, Note_on_c, 4, 79, 85
6, 116224, Note_off_c, 4, 79, 64
6, 116389, Note_on_c, 4, 84, 85
6, 116684, Note_off_c, 4, 84, 64
6, 116867, Note_on_c, 4, 79, 85
6, 116954, Note_off_c, 4, 79, 64
6, 117116, Note_on_c, 4, 76, 78
6, 117215, Note_on_c, 4, 74, 66
6, 117224, Note_off_c, 4, 76, 64
6, 117313, Note_on_c, 4, 76, 78
6, 117325, Note_off_c, 4, 74, 64
6, 117431, Note_off_c, 4, 76, 64
6, 117436, Note_on_c, 4, 77, 82
6, 117541, Note_off_c, 4, 77, 64
6, 117568, Note_on_c, 4, 79, 87
6, 117644, Note_off_c, 4, 79, 64
6, 117829, Note_on_c, 4, 70, 74
6, 117935, Note_off_c, 4, 70, 64
6, 118088, Note_on_c, 4, 69, 82
6, 118254, Note_off_c, 4, 69, 64
6, 118331, Note_on_c, 4, 74, 82
6, 118441, Note_on_c, 4, 72, 76
6, 118472, Note_off_c, 4, 74, 64
6, 118561, Note_off_c, 4, 72, 64
6, 118568, Note_on_c, 4, 70, 85
6, 118686, Note_on_c, 4, 69, 85
6, 118688, Note_off_c, 4, 70, 64
6, 118796, Note_off_c, 4, 69, 64
6, 118796, Note_on_c, 4, 70, 72
6, 118914, Note_off_c, 4, 70, 64
6, 118914, Note_on_c, 4, 67, 66
6, 118999, Note_off_c, 4, 67, 64
6, 119044, Note_on_c, 4, 69, 89
6, 119137, Note_on_c, 4, 70, 63
6, 119152, Note_off_c, 4, 69, 64
6, 119250, Note_on_c, 4, 69, 64
6, 119281, Note_off_c, 4, 70, 64
6, 119358, Note_off_c, 4, 69, 64
6, 119370, Note_on_c, 4, 67, 85
6, 119478, Note_off_c, 4, 67, 64
6, 119500, Note_on_c, 4, 65, 87
6, 119593, Note_off_c, 4, 65, 64
6, 119737, Note_on_c, 4, 77, 61
6, 119852, Note_off_c, 4, 77, 64
6, 119852, Note_on_c, 4, 79, 74
6, 119951, Note_off_c, 4, 79, 64
6, 119980, Note_on_c, 4, 81, 91
6, 120085, Note_off_c, 4, 81, 64
6, 120220, Note_on_c, 4, 74, 80
6, 120326, Note_off_c, 4, 74, 64
6, 120337, Note_on_c, 4, 76, 76
6, 120428, Note_off_c, 4, 76, 64
6, 120457, Note_on_c, 4, 77, 87
6, 120568, Note_off_c, 4, 77, 64
6, 120697, Note_on_c, 4, 71, 76
6, 120798, Note_on_c, 4, 72, 82
6, 120824, Note_off_c, 4, 71, 64
6, 120901, Note_off_c, 4, 72, 64
6, 120937, Note_on_c, 4, 74, 89
6, 121033, Note_off_c, 4, 74, 64
6, 121189, Note_on_c, 4, 67, 66
6, 121285, Note_off_c, 4, 67, 64
6, 121444, Note_on_c, 4, 79, 93
6, 121516, Note_off_c, 4, 79, 64
6, 121672, Note_on_c, 4, 71, 87
6, 121768, Note_off_c, 4, 71, 64
6, 121921, Note_on_c, 4, 72, 85
6, 122178, Note_off_c, 4, 72, 64
6, 122255, Note_on_c, 4, 74, 80
6, 122312, Note_off_c, 4, 74, 64
6, 122400, Note_on_c, 4, 76, 87
6, 122466, Note_on_c, 4, 74, 100
6, 122471, Note_off_c, 4, 76, 64
6, 122536, Note_on_c, 4, 76, 74
6, 122538, Note_off_c, 4, 74, 64
6, 122598, Note_on_c, 4, 74, 78
6, 122615, Note_off_c, 4, 76, 64
6, 122699, Note_off_c, 4, 74, 64
6, 122756, Note_on_c, 4, 72, 82
6, 122830, Note_off_c, 4, 72, 64
6, 122908, Note_on_c, 4, 72, 100
6, 123337, Note_off_c, 4, 72, 64
6, 123337, End_track
7, 0, Start_track
7, 0, Title_t, "Oboe2"
7, 0, Program_c, 5, 68
7, 0, Control_c, 5, 7, 100
7, 711, Note_on_c, 5, 64, 95
7, 785, Note_off_c, 5, 64, 64
7, 807, Note_on_c, 5, 65, 89
7, 896, Note_off_c, 5, 65, 64
7, 930, Note_on_c, 5, 67, 91
7, 1012, Note_off_c, 5, 67, 64
7, 1183, Note_on_c, 5, 72, 80
7, 1471, Note_off_c, 5, 72, 64
7, 1692, Note_on_c, 5, 67, 82
7, 1774, Note_off_c, 5, 67, 64
7, 1947, Note_on_c, 5, 64, 85
7, 2045, Note_on_c, 5, 62, 76
7, 2057, Note_off_c, 5, 64, 64
7, 2139, Note_off_c, 5, 62, 64
7, 2160, Note_on_c, 5, 64, 80
7, 2271, Note_off_c, 5, 64, 64
7, 2280, Note_on_c, 5, 65, 85
7, 2367, Note_off_c, 5, 65, 64
7, 2400, Note_on_c, 5, 67, 98
7, 2547, Note_off_c, 5, 67, 64
7, 2631, Note_on_c, 5, 69, 80
7, 2719, Note_on_c, 5, 71, 68
7, 2729, Note_off_c, 5, 69, 64
7, 2845, Note_off_c, 5, 71, 64
7, 2861, Note_on_c, 5, 72, 80
7, 2947, Note_off_c, 5, 72, 64
7, 2976, Note_on_c, 5, 74, 93
7, 3070, Note_off_c, 5, 74, 64
7, 3084, Note_on_c, 5, 76, 70
7, 3187, Note_off_c, 5, 76, 64
7, 3199, Note_on_c, 5, 77, 85
7, 3291, Note_off_c, 5, 77, 64
7, 3343, Note_on_c, 5, 79, 87
7, 3447, Note_off_c, 5, 79, 64
7, 3583, Note_on_c, 5, 81, 85
7, 3658, Note_off_c, 5, 81, 64
7, 3826, Note_on_c, 5, 74, 91
7, 3931, Note_off_c, 5, 74, 64
7, 3934, Note_on_c, 5, 72, 80
7, 4025, Note_off_c, 5, 72, 64
7, 4039, Note_on_c, 5, 74, 74
7, 4164, Note_off_c, 5, 74, 64
7, 4167, Note_on_c, 5, 76, 63
7, 4260, Note_off_c, 5, 76, 64
7, 4284, Note_on_c, 5, 74, 87
7, 4488, Note_off_c, 5, 74, 64
7, 4546, Note_on_c, 5, 76, 78
7, 4642, Note_off_c, 5, 76, 64
7, 4661, Note_on_c, 5, 78, 66
7, 4759, Note_off_c, 5, 78, 64
7, 4807, Note_on_c, 5, 79, 100
7, 4939, Note_off_c, 5, 79, 64
7, 5031, Note_on_c, 5, 71, 72
7, 5115, Note_off_c, 5, 71, 64
7, 5139, Note_on_c, 5, 72, 63
7, 5230, Note_off_c, 5, 72, 64
7, 5280, Note_on_c, 5, 74, 91
7, 5434, Note_off_c, 5, 74, 64
7, 5511, Note_on_c, 5, 76, 87
7, 5607, Note_off_c, 5, 76, 64
7, 5621, Note_on_c, 5, 78, 66
7, 5703, Note_off_c, 5, 78, 64
7, 5760, Note_on_c, 5, 79, 102
7, 5895, Note_off_c, 5, 79, 64
7, 5976, Note_on_c, 5, 69, 70
7, 6060, Note_off_c, 5, 69, 64
7, 6094, Note_on_c, 5, 71, 72
7, 6183, Note_off_c, 5, 71, 64
7, 6216, Note_on_c, 5, 72, 91
7, 6329, Note_off_c, 5, 72, 64
7, 6478, Note_on_c, 5, 74, 87
7, 6571, Note_off_c, 5, 74, 64
7, 6735, Note_on_c, 5, 71, 91
7, 7013, Note_off_c, 5, 71, 64
7, 7056, Note_on_c, 5, 69, 68
7, 7126, Note_off_c, 5, 69, 64
7, 7186, Note_on_c, 5, 71, 82
7, 7239, Note_on_c, 5, 69, 64
7, 7241, Note_off_c, 5, 71, 64
7, 7301, Note_off_c, 5, 69, 64
7, 7301, Note_on_c, 5, 71, 80
7, 7356, Note_on_c, 5, 69, 72
7, 7380, Note_off_c, 5, 71, 64
7, 7459, Note_off_c, 5, 69, 64
7, 7536, Note_on_c, 5, 67, 87
7, 7594, Note_off_c, 5, 67, 64
7, 7675, Note_on_c, 5, 67, 82
7, 8151, Note_off_c, 5, 67, 64
7, 8395, Note_on_c, 5, 64, 82
7, 8475, Note_on_c, 5, 65, 80
7, 8479, Note_off_c, 5, 64, 64
7, 8563, Note_off_c, 5, 65, 64
7, 8623, Note_on_c, 5, 67, 85
7, 8700, Note_off_c, 5, 67, 64
7, 8880, Note_on_c, 5, 72, 78
7, 9161, Note_off_c, 5, 72, 64
7, 9349, Note_on_c, 5, 67, 80
7, 9435, Note_off_c, 5, 67, 64
7, 9603, Note_on_c, 5, 64, 82
7, 9706, Note_off_c, 5, 64, 64
7, 9713, Note_on_c, 5, 62, 76
7, 9826, Note_on_c, 5, 64, 70
7, 9828, Note_off_c, 5, 62, 64
7, 9951, Note_on_c, 5, 65, 68
7, 9955, Note_off_c, 5, 64, 64
7, 10068, Note_off_c, 5, 65, 64
7, 10075, Note_on_c, 5, 67, 82
7, 10234, Note_off_c, 5, 67, 64
7, 10294, Note_on_c, 5, 69, 70
7, 10390, Note_on_c, 5, 71, 72
7, 10411, Note_off_c, 5, 69, 64
7, 10536, Note_off_c, 5, 71, 64
7, 10541, Note_on_c, 5, 72, 78
7, 10644, Note_off_c, 5, 72, 64
7, 10667, Note_on_c, 5, 74, 82
7, 10776, Note_on_c, 5, 76, 80
7, 10793, Note_off_c, 5, 74, 64
7, 10894, Note_on_c, 5, 77, 70
7, 10911, Note_off_c, 5, 76, 64
7, 11004, Note_off_c, 5, 77, 64
7, 11028, Note_on_c, 5, 79, 80
7, 11153, Note_off_c, 5, 79, 64
7, 11256, Note_on_c, 5, 81, 87
7, 11352, Note_off_c, 5, 81, 64
7, 11515, Note_on_c, 5, 74, 87
7, 11634, Note_on_c, 5, 72, 82
7, 11643, Note_off_c, 5, 74, 64
7, 11736, Note_on_c, 5, 74, 78
7, 11746, Note_off_c, 5, 72, 64
7, 11842, Note_off_c, 5, 74, 64
7, 11866, Note_on_c, 5, 76, 72
7, 11938, Note_off_c, 5, 76, 64
7, 11981, Note_on_c, 5, 74, 87
7, 12190, Note_off_c, 5, 74, 64
7, 12235, Note_on_c, 5, 76, 82
7, 12339, Note_off_c, 5, 76, 64
7, 12348, Note_on_c, 5, 78, 78
7, 12456, Note_off_c, 5, 78, 64
7, 12487, Note_on_c, 5, 79, 100
7, 12636, Note_off_c, 5, 79, 64
7, 12715, Note_on_c, 5, 71, 72
7, 12797, Note_off_c, 5, 71, 64
7, 12821, Note_on_c, 5, 72, 80
7, 12903, Note_off_c, 5, 72, 64
7, 12951, Note_on_c, 5, 74, 95
7, 13080, Note_off_c, 5, 74, 64
7, 13183, Note_on_c, 5, 76, 80
7, 13282, Note_off_c, 5, 76, 64
7, 13294, Note_on_c, 5, 78, 68
7, 13387, Note_off_c, 5, 78, 64
7, 13428, Note_on_c, 5, 79, 95
7, 13570, Note_off_c, 5, 79, 64
7, 13659, Note_on_c, 5, 69, 68
7, 13757, Note_off_c, 5, 69, 64
7, 13767, Note_on_c, 5, 71, 78
7, 13855, Note_off_c, 5, 71, 64
7, 13906, Note_on_c, 5, 72, 100
7, 14014, Note_off_c, 5, 72, 64
7, 14155, Note_on_c, 5, 74, 87
7, 14249, Note_off_c, 5, 74, 64
7, 14393, Note_on_c, 5, 71, 87
7, 14671, Note_off_c, 5, 71, 64
7, 14707, Note_on_c, 5, 69, 70
7, 14784, Note_off_c, 5, 69, 64
7, 14830, Note_on_c, 5, 71, 91
7, 14897, Note_off_c, 5, 71, 64
7, 14904, Note_on_c, 5, 69, 55
7, 14952, Note_on_c, 5, 71, 74
7, 14959, Note_off_c, 5, 69, 64
7, 15005, Note_on_c, 5, 69, 70
7, 15029, Note_off_c, 5, 71, 64
7, 15123, Note_off_c, 5, 69, 64
7, 15211, Note_on_c, 5, 67, 74
7, 15272, Note_off_c, 5, 67, 64
7, 15382, Note_on_c, 5, 67, 95
7, 15804, Note_off_c, 5, 67, 64
7, 31438, Note_on_c, 5, 71, 89
7, 31534, Note_on_c, 5, 72, 80
7, 31548, Note_off_c, 5, 71, 64
7, 31628, Note_off_c, 5, 72, 64
7, 31685, Note_on_c, 5, 74, 89
7, 31770, Note_off_c, 5, 74, 64
7, 31918, Note_on_c, 5, 79, 87
7, 32256, Note_off_c, 5, 79, 64
7, 32420, Note_on_c, 5, 82, 93
7, 32507, Note_off_c, 5, 82, 64
7, 32667, Note_on_c, 5, 73, 66
7, 32768, Note_on_c, 5, 71, 82
7, 32777, Note_off_c, 5, 73, 64
7, 32878, Note_on_c, 5, 73, 66
7, 32919, Note_off_c, 5, 71, 64
7, 32996, Note_on_c, 5, 74, 78
7, 33003, Note_off_c, 5, 73, 64
7, 33101, Note_off_c, 5, 74, 64
7, 33118, Note_on_c, 5, 76, 100
7, 33257, Note_off_c, 5, 76, 64
7, 33368, Note_on_c, 5, 77, 87
7, 33478, Note_off_c, 5, 77, 64
7, 33478, Note_on_c, 5, 79, 87
7, 33576, Note_off_c, 5, 79, 64
7, 33608, Note_on_c, 5, 81, 85
7, 33704, Note_on_c, 5, 79, 63
7, 33713, Note_off_c, 5, 81, 64
7, 33807, Note_off_c, 5, 79, 64
7, 33831, Note_on_c, 5, 81, 68
7, 33936, Note_on_c, 5, 82, 80
7, 33946, Note_off_c, 5, 81, 64
7, 34033, Note_off_c, 5, 82, 64
7, 34047, Note_on_c, 5, 81, 76
7, 34179, Note_on_c, 5, 79, 82
7, 34180, Note_off_c, 5, 81, 64
7, 34294, Note_off_c, 5, 79, 64
7, 34299, Note_on_c, 5, 77, 68
7, 34388, Note_off_c, 5, 77, 64
7, 34414, Note_on_c, 5, 76, 62
7, 34498, Note_off_c, 5, 76, 64
7, 34544, Note_on_c, 5, 77, 93
7, 34670, Note_off_c, 5, 77, 64
7, 34678, Note_on_c, 5, 79, 70
7, 34794, Note_on_c, 5, 77, 70
7, 34803, Note_off_c, 5, 79, 64
7, 34900, Note_off_c, 5, 77, 64
7, 34916, Note_on_c, 5, 76, 87
7, 35012, Note_off_c, 5, 76, 64
7, 35043, Note_on_c, 5, 74, 91
7, 35180, Note_off_c, 5, 74, 64
7, 35290, Note_on_c, 5, 83, 82
7, 35403, Note_off_c, 5, 83, 64
7, 35415, Note_on_c, 5, 84, 82
7, 35508, Note_off_c, 5, 84, 64
7, 35537, Note_on_c, 5, 86, 98
7, 35652, Note_off_c, 5, 86, 64
7, 35760, Note_on_c, 5, 80, 68
7, 35861, Note_off_c, 5, 80, 64
7, 35871, Note_on_c, 5, 81, 72
7, 35967, Note_off_c, 5, 81, 64
7, 36005, Note_on_c, 5, 83, 98
7, 36118, Note_off_c, 5, 83, 64
7, 36245, Note_on_c, 5, 74, 82
7, 36346, Note_on_c, 5, 76, 72
7, 36363, Note_off_c, 5, 74, 64
7, 36454, Note_off_c, 5, 76, 64
7, 36483, Note_on_c, 5, 77, 95
7, 36577, Note_off_c, 5, 77, 64
7, 36718, Note_on_c, 5, 71, 72
7, 36833, Note_off_c, 5, 71, 64
7, 36848, Note_on_c, 5, 72, 64
7, 36951, Note_off_c, 5, 72, 64
7, 36951, Note_on_c, 5, 74, 82
7, 37042, Note_off_c, 5, 74, 64
7, 37189, Note_on_c, 5, 68, 82
7, 37306, Note_off_c, 5, 68, 64
7, 37426, Note_on_c, 5, 69, 82
7, 37690, Note_off_c, 5, 69, 64
7, 37772, Note_on_c, 5, 71, 85
7, 37848, Note_off_c, 5, 71, 64
7, 37904, Note_on_c, 5, 72, 85
7, 37973, Note_off_c, 5, 72, 64
7, 37976, Note_on_c, 5, 71, 82
7, 38040, Note_on_c, 5, 72, 80
7, 38052, Note_off_c, 5, 71, 64
7, 38108, Note_on_c, 5, 71, 68
7, 38124, Note_off_c, 5, 72, 64
7, 38206, Note_off_c, 5, 71, 64
7, 38261, Note_on_c, 5, 69, 74
7, 38338, Note_off_c, 5, 69, 64
7, 38403, Note_on_c, 5, 69, 85
7, 38897, Note_off_c, 5, 69, 64
7, 39130, Note_on_c, 5, 76, 91
7, 39220, Note_on_c, 5, 77, 80
7, 39224, Note_off_c, 5, 76, 64
7, 39305, Note_off_c, 5, 77, 64
7, 39353, Note_on_c, 5, 79, 89
7, 39432, Note_off_c, 5, 79, 64
7, 39596, Note_on_c, 5, 84, 95
7, 39898, Note_off_c, 5, 84, 64
7, 40056, Note_on_c, 5, 79, 85
7, 40148, Note_off_c, 5, 79, 64
7, 40311, Note_on_c, 5, 76, 80
7, 40412, Note_off_c, 5, 76, 64
7, 40419, Note_on_c, 5, 74, 66
7, 40520, Note_on_c, 5, 76, 63
7, 40524, Note_off_c, 5, 74, 64
7, 40620, Note_off_c, 5, 76, 64
7, 40637, Note_on_c, 5, 77, 78
7, 40726, Note_off_c, 5, 77, 64
7, 40769, Note_on_c, 5, 79, 87
7, 40853, Note_off_c, 5, 79, 64
7, 41033, Note_on_c, 5, 70, 78
7, 41132, Note_off_c, 5, 70, 64
7, 41290, Note_on_c, 5, 69, 82
7, 41434, Note_off_c, 5, 69, 64
7, 41525, Note_on_c, 5, 74, 78
7, 41640, Note_on_c, 5, 72, 68
7, 41681, Note_off_c, 5, 74, 64
7, 41760, Note_on_c, 5, 70, 63
7, 41772, Note_off_c, 5, 72, 64
7, 41885, Note_on_c, 5, 69, 85
7, 41895, Note_off_c, 5, 70, 64
7, 41986, Note_on_c, 5, 70, 58
7, 41991, Note_off_c, 5, 69, 64
7, 42109, Note_off_c, 5, 70, 64
7, 42109, Note_on_c, 5, 67, 72
7, 42207, Note_off_c, 5, 67, 64
7, 42236, Note_on_c, 5, 69, 82
7, 42336, Note_off_c, 5, 69, 64
7, 42336, Note_on_c, 5, 70, 64
7, 42440, Note_on_c, 5, 69, 63
7, 42473, Note_off_c, 5, 70, 64
7, 42555, Note_off_c, 5, 69, 64
7, 42567, Note_on_c, 5, 67, 76
7, 42665, Note_off_c, 5, 67, 64
7, 42684, Note_on_c, 5, 65, 80
7, 42809, Note_off_c, 5, 65, 64
7, 42953, Note_on_c, 5, 77, 80
7, 43056, Note_off_c, 5, 77, 64
7, 43057, Note_on_c, 5, 79, 82
7, 43160, Note_off_c, 5, 79, 64
7, 43176, Note_on_c, 5, 81, 98
7, 43304, Note_off_c, 5, 81, 64
7, 43409, Note_on_c, 5, 74, 76
7, 43517, Note_off_c, 5, 74, 64
7, 43520, Note_on_c, 5, 76, 72
7, 43613, Note_off_c, 5, 76, 64
7, 43642, Note_on_c, 5, 77, 98
7, 43770, Note_off_c, 5, 77, 64
7, 43899, Note_on_c, 5, 71, 78
7, 43993, Note_on_c, 5, 72, 80
7, 44002, Note_off_c, 5, 71, 64
7, 44091, Note_off_c, 5, 72, 64
7, 44127, Note_on_c, 5, 74, 89
7, 44216, Note_off_c, 5, 74, 64
7, 44381, Note_on_c, 5, 67, 72
7, 44476, Note_off_c, 5, 67, 64
7, 44628, Note_on_c, 5, 79, 87
7, 44693, Note_off_c, 5, 79, 64
7, 44862, Note_on_c, 5, 71, 85
7, 44960, Note_off_c, 5, 71, 64
7, 45111, Note_on_c, 5, 72, 87
7, 45356, Note_off_c, 5, 72, 64
7, 45447, Note_on_c, 5, 74, 85
7, 45503, Note_off_c, 5, 74, 64
7, 45591, Note_on_c, 5, 76, 89
7, 45660, Note_on_c, 5, 74, 95
7, 45665, Note_off_c, 5, 76, 64
7, 45725, Note_on_c, 5, 76, 76
7, 45733, Note_off_c, 5, 74, 64
7, 45785, Note_on_c, 5, 74, 80
7, 45802, Note_off_c, 5, 76, 64
7, 45896, Note_off_c, 5, 74, 64
7, 45934, Note_on_c, 5, 72, 82
7, 45999, Note_off_c, 5, 72, 64
7, 46078, Note_on_c, 5, 72, 98
7, 46566, Note_off_c, 5, 72, 64
7, 62175, Note_on_c, 5, 70, 68
7, 62266, Note_off_c, 5, 70, 64
7, 62279, Note_on_c, 5, 69, 60
7, 62363, Note_off_c, 5, 69, 64
7, 62400, Note_on_c, 5, 70, 74
7, 62495, Note_off_c, 5, 70, 64
7, 62646, Note_on_c, 5, 72, 80
7, 62930, Note_off_c, 5, 72, 64
7, 63141, Note_on_c, 5, 74, 68
7, 63240, Note_on_c, 5, 75, 62
7, 63242, Note_off_c, 5, 74, 64
7, 63330, Note_off_c, 5, 75, 64
7, 63370, Note_on_c, 5, 77, 85
7, 63584, Note_off_c, 5, 77, 64
7, 63619, Note_on_c, 5, 70, 58
7, 63727, Note_on_c, 5, 72, 78
7, 63728, Note_off_c, 5, 70, 64
7, 63838, Note_off_c, 5, 72, 64
7, 63864, Note_on_c, 5, 74, 68
7, 63964, Note_on_c, 5, 72, 58
7, 63970, Note_off_c, 5, 74, 64
7, 64068, Note_off_c, 5, 72, 64
7, 64094, Note_on_c, 5, 74, 64
7, 64193, Note_on_c, 5, 76, 72
7, 64207, Note_off_c, 5, 74, 64
7, 64304, Note_off_c, 5, 76, 64
7, 64317, Note_on_c, 5, 77, 64
7, 64421, Note_off_c, 5, 77, 64
7, 64427, Note_on_c, 5, 76, 59
7, 64518, Note_off_c, 5, 76, 64
7, 64567, Note_on_c, 5, 79, 85
7, 64957, Note_off_c, 5, 79, 64
7, 65015, Note_on_c, 5, 77, 62
7, 65121, Note_off_c, 5, 77, 64
7, 65121, Note_on_c, 5, 76, 64
7, 65207, Note_off_c, 5, 76, 64
7, 65263, Note_on_c, 5, 77, 80
7, 65368, Note_off_c, 5, 77, 64
7, 65508, Note_on_c, 5, 72, 59
7, 65615, Note_off_c, 5, 72, 64
7, 65746, Note_on_c, 5, 74, 70
7, 65841, Note_off_c, 5, 74, 64
7, 65984, Note_on_c, 5, 71, 68
7, 66088, Note_off_c, 5, 71, 64
7, 66234, Note_on_c, 5, 72, 66
7, 66346, Note_on_c, 5, 71, 56
7, 66351, Note_off_c, 5, 72, 64
7, 66421, Note_off_c, 5, 71, 64
7, 66481, Note_on_c, 5, 74, 80
7, 66856, Note_off_c, 5, 74, 64
7, 66958, Note_on_c, 5, 67, 58
7, 67059, Note_off_c, 5, 67, 64
7, 67201, Note_on_c, 5, 72, 66
7, 67313, Note_off_c, 5, 72, 64
7, 67320, Note_on_c, 5, 67, 35
7, 67373, Note_off_c, 5, 67, 64
7, 67432, Note_on_c, 5, 75, 78
7, 67830, Note_off_c, 5, 75, 64
7, 67914, Note_on_c, 5, 74, 78
7, 68007, Note_off_c, 5, 74, 64
7, 68015, Note_on_c, 5, 72, 68
7, 68075, Note_off_c, 5, 72, 64
7, 68155, Note_on_c, 5, 70, 80
7, 68327, Note_off_c, 5, 70, 64
7, 68386, Note_on_c, 5, 69, 68
7, 68479, Note_off_c, 5, 69, 64
7, 68480, Note_on_c, 5, 67, 70
7, 68541, Note_off_c, 5, 67, 64
7, 68605, Note_on_c, 5, 62, 64
7, 68707, Note_off_c, 5, 62, 64
7, 68865, Note_on_c, 5, 66, 80
7, 68945, Note_off_c, 5, 66, 64
7, 69127, Note_on_c, 5, 67, 76
7, 69649, Note_off_c, 5, 67, 64
7, 70312, Note_on_c, 5, 67, 72
7, 70411, Note_on_c, 5, 68, 59
7, 70435, Note_off_c, 5, 67, 64
7, 70530, Note_on_c, 5, 70, 59
7, 70540, Note_off_c, 5, 68, 64
7, 70636, Note_off_c, 5, 70, 64
7, 70658, Note_on_c, 5, 72, 59
7, 70738, Note_off_c, 5, 72, 64
7, 70784, Note_on_c, 5, 73, 57
7, 71182, Note_off_c, 5, 73, 64
7, 71241, Note_on_c, 5, 72, 70
7, 71341, Note_on_c, 5, 70, 57
7, 71364, Note_off_c, 5, 72, 64
7, 71462, Note_on_c, 5, 68, 60
7, 71504, Note_off_c, 5, 70, 64
7, 71561, Note_off_c, 5, 68, 64
7, 71584, Note_on_c, 5, 65, 56
7, 71663, Note_off_c, 5, 65, 64
7, 71720, Note_on_c, 5, 74, 82
7, 72195, Note_off_c, 5, 74, 64
7, 72233, Note_on_c, 5, 72, 78
7, 72341, Note_on_c, 5, 70, 66
7, 72363, Note_off_c, 5, 72, 64
7, 72456, Note_on_c, 5, 68, 60
7, 72502, Note_off_c, 5, 70, 64
7, 72571, Note_on_c, 5, 67, 74
7, 72580, Note_off_c, 5, 68, 64
7, 72683, Note_on_c, 5, 65, 59
7, 72718, Note_off_c, 5, 67, 64
7, 72824, Note_on_c, 5, 63, 60
7, 72834, Note_off_c, 5, 65, 64
7, 72924, Note_off_c, 5, 63, 64
7, 72939, Note_on_c, 5, 62, 60
7, 73070, Note_on_c, 5, 60, 58
7, 73078, Note_off_c, 5, 62, 64
7, 73173, Note_off_c, 5, 60, 64
7, 73184, Note_on_c, 5, 62, 61
7, 73308, Note_off_c, 5, 62, 64
7, 73308, Note_on_c, 5, 63, 63
7, 73385, Note_off_c, 5, 63, 64
7, 73425, Note_on_c, 5, 65, 68
7, 73533, Note_on_c, 5, 67, 59
7, 73544, Note_off_c, 5, 65, 64
7, 73648, Note_on_c, 5, 68, 52
7, 73650, Note_off_c, 5, 67, 64
7, 73753, Note_off_c, 5, 68, 64
7, 73754, Note_on_c, 5, 65, 64
7, 73832, Note_off_c, 5, 65, 64
7, 73884, Note_on_c, 5, 67, 78
7, 73959, Note_off_c, 5, 67, 64
7, 74147, Note_on_c, 5, 65, 70
7, 74538, Note_off_c, 5, 65, 64
7, 74631, Note_on_c, 5, 63, 60
7, 74725, Note_off_c, 5, 63, 64
7, 74734, Note_on_c, 5, 62, 58
7, 74836, Note_off_c, 5, 62, 64
7, 74862, Note_on_c, 5, 63, 66
7, 75021, Note_off_c, 5, 63, 64
7, 75074, Note_on_c, 5, 65, 58
7, 75145, Note_on_c, 5, 67, 82
7, 75169, Note_off_c, 5, 65, 64
7, 75231, Note_on_c, 5, 68, 59
7, 75244, Note_off_c, 5, 67, 64
7, 75536, Note_off_c, 5, 68, 64
7, 75587, Note_on_c, 5, 67, 74
7, 75682, Note_on_c, 5, 65, 55
7, 75684, Note_off_c, 5, 67, 64
7, 75772, Note_off_c, 5, 65, 64
7, 75818, Note_on_c, 5, 67, 49
7, 75920, Note_on_c, 5, 63, 57
7, 75927, Note_off_c, 5, 67, 64
7, 76000, Note_off_c, 5, 63, 64
7, 76050, Note_on_c, 5, 65, 82
7, 76415, Note_off_c, 5, 65, 64
7, 76538, Note_on_c, 5, 63, 61
7, 76641, Note_on_c, 5, 62, 64
7, 76642, Note_off_c, 5, 63, 64
7, 76730, Note_off_c, 5, 62, 64
7, 76781, Note_on_c, 5, 63, 64
7, 77287, Note_off_c, 5, 63, 64
7, 77508, Note_on_c, 5, 70, 70
7, 77594, Note_on_c, 5, 69, 60
7, 77605, Note_off_c, 5, 70, 64
7, 77706, Note_off_c, 5, 69, 64
7, 77735, Note_on_c, 5, 70, 72
7, 77852, Note_off_c, 5, 70, 64
7, 77998, Note_on_c, 5, 72, 82
7, 78362, Note_off_c, 5, 72, 64
7, 78477, Note_on_c, 5, 74, 66
7, 78574, Note_off_c, 5, 74, 64
7, 78574, Note_on_c, 5, 75, 70
7, 78673, Note_off_c, 5, 75, 64
7, 78715, Note_on_c, 5, 77, 87
7, 78896, Note_off_c, 5, 77, 64
7, 78960, Note_on_c, 5, 70, 68
7, 79069, Note_off_c, 5, 70, 64
7, 79073, Note_on_c, 5, 72, 66
7, 79175, Note_off_c, 5, 72, 64
7, 79201, Note_on_c, 5, 74, 70
7, 79285, Note_off_c, 5, 74, 64
7, 79318, Note_on_c, 5, 72, 58
7, 79414, Note_off_c, 5, 72, 64
7, 79437, Note_on_c, 5, 74, 70
7, 79554, Note_off_c, 5, 74, 64
7, 79561, Note_on_c, 5, 76, 59
7, 79649, Note_off_c, 5, 76, 64
7, 79676, Note_on_c, 5, 77, 68
7, 79780, Note_off_c, 5, 77, 64
7, 79780, Note_on_c, 5, 76, 63
7, 79855, Note_off_c, 5, 76, 64
7, 79914, Note_on_c, 5, 79, 74
7, 80307, Note_off_c, 5, 79, 64
7, 80385, Note_on_c, 5, 77, 59
7, 80491, Note_on_c, 5, 76, 74
7, 80497, Note_off_c, 5, 77, 64
7, 80572, Note_off_c, 5, 76, 64
7, 80623, Note_on_c, 5, 77, 70
7, 80727, Note_off_c, 5, 77, 64
7, 80879, Note_on_c, 5, 72, 68
7, 80968, Note_off_c, 5, 72, 64
7, 81113, Note_on_c, 5, 74, 74
7, 81208, Note_off_c, 5, 74, 64
7, 81352, Note_on_c, 5, 71, 70
7, 81444, Note_off_c, 5, 71, 64
7, 81603, Note_on_c, 5, 72, 68
7, 81692, Note_on_c, 5, 71, 66
7, 81714, Note_off_c, 5, 72, 64
7, 81798, Note_off_c, 5, 71, 64
7, 81835, Note_on_c, 5, 74, 85
7, 82222, Note_off_c, 5, 74, 64
7, 82317, Note_on_c, 5, 67, 70
7, 82407, Note_off_c, 5, 67, 64
7, 82562, Note_on_c, 5, 72, 72
7, 82650, Note_off_c, 5, 72, 64
7, 82663, Note_on_c, 5, 67, 63
7, 82743, Note_off_c, 5, 67, 64
7, 82789, Note_on_c, 5, 75, 80
7, 83169, Note_off_c, 5, 75, 64
7, 83248, Note_on_c, 5, 74, 80
7, 83357, Note_off_c, 5, 74, 64
7, 83359, Note_on_c, 5, 72, 64
7, 83434, Note_off_c, 5, 72, 64
7, 83505, Note_on_c, 5, 70, 76
7, 83686, Note_off_c, 5, 70, 64
7, 83743, Note_on_c, 5, 69, 68
7, 83825, Note_off_c, 5, 69, 64
7, 83845, Note_on_c, 5, 67, 59
7, 83900, Note_off_c, 5, 67, 64
7, 83970, Note_on_c, 5, 62, 57
7, 84072, Note_off_c, 5, 62, 64
7, 84218, Note_on_c, 5, 66, 68
7, 84305, Note_off_c, 5, 66, 64
7, 84469, Note_on_c, 5, 67, 68
7, 84988, Note_off_c, 5, 67, 64
7, 85666, Note_on_c, 5, 67, 72
7, 85768, Note_on_c, 5, 68, 60
7, 85790, Note_off_c, 5, 67, 64
7, 85881, Note_on_c, 5, 70, 62
7, 85885, Note_off_c, 5, 68, 64
7, 85977, Note_off_c, 5, 70, 64
7, 86008, Note_on_c, 5, 72, 72
7, 86110, Note_off_c, 5, 72, 64
7, 86139, Note_on_c, 5, 73, 66
7, 86558, Note_off_c, 5, 73, 64
7, 86596, Note_on_c, 5, 72, 64
7, 86705, Note_on_c, 5, 70, 64
7, 86711, Note_off_c, 5, 72, 64
7, 86821, Note_on_c, 5, 68, 61
7, 86836, Note_off_c, 5, 70, 64
7, 86923, Note_off_c, 5, 68, 64
7, 86949, Note_on_c, 5, 65, 47
7, 87031, Note_off_c, 5, 65, 64
7, 87090, Note_on_c, 5, 74, 78
7, 87541, Note_off_c, 5, 74, 64
7, 87589, Note_on_c, 5, 72, 64
7, 87698, Note_on_c, 5, 70, 72
7, 87724, Note_off_c, 5, 72, 64
7, 87822, Note_on_c, 5, 68, 62
7, 87856, Note_off_c, 5, 70, 64
7, 87930, Note_on_c, 5, 67, 72
7, 87945, Note_off_c, 5, 68, 64
7, 88053, Note_on_c, 5, 65, 55
7, 88065, Note_off_c, 5, 67, 64
7, 88183, Note_off_c, 5, 65, 64
7, 88186, Note_on_c, 5, 63, 55
7, 88283, Note_off_c, 5, 63, 64
7, 88303, Note_on_c, 5, 62, 66
7, 88418, Note_on_c, 5, 60, 56
7, 88420, Note_off_c, 5, 62, 64
7, 88514, Note_off_c, 5, 60, 64
7, 88530, Note_on_c, 5, 62, 66
7, 88640, Note_off_c, 5, 62, 64
7, 88649, Note_on_c, 5, 63, 63
7, 88733, Note_off_c, 5, 63, 64
7, 88782, Note_on_c, 5, 65, 62
7, 88894, Note_off_c, 5, 65, 64
7, 88894, Note_on_c, 5, 67, 74
7, 89000, Note_off_c, 5, 67, 64
7, 89011, Note_on_c, 5, 68, 56
7, 89117, Note_off_c, 5, 68, 64
7, 89126, Note_on_c, 5, 65, 66
7, 89203, Note_off_c, 5, 65, 64
7, 89272, Note_on_c, 5, 67, 78
7, 89360, Note_off_c, 5, 67, 64
7, 89515, Note_on_c, 5, 65, 63
7, 89879, Note_off_c, 5, 65, 64
7, 89987, Note_on_c, 5, 63, 60
7, 90078, Note_off_c, 5, 63, 64
7, 90084, Note_on_c, 5, 62, 64
7, 90193, Note_off_c, 5, 62, 64
7, 90221, Note_on_c, 5, 63, 66
7, 90380, Note_off_c, 5, 63, 64
7, 90458, Note_on_c, 5, 65, 62
7, 90528, Note_on_c, 5, 67, 76
7, 90552, Note_off_c, 5, 65, 64
7, 90603, Note_on_c, 5, 68, 64
7, 90621, Note_off_c, 5, 67, 64
7, 90915, Note_off_c, 5, 68, 64
7, 90985, Note_on_c, 5, 67, 76
7, 91076, Note_off_c, 5, 67, 64
7, 91098, Note_on_c, 5, 65, 59
7, 91174, Note_off_c, 5, 65, 64
7, 91208, Note_on_c, 5, 67, 59
7, 91281, Note_off_c, 5, 67, 64
7, 91310, Note_on_c, 5, 63, 62
7, 91378, Note_off_c, 5, 63, 64
7, 91443, Note_on_c, 5, 65, 80
7, 91785, Note_off_c, 5, 65, 64
7, 91899, Note_on_c, 5, 63, 66
7, 91988, Note_off_c, 5, 63, 64
7, 92003, Note_on_c, 5, 62, 66
7, 92083, Note_off_c, 5, 62, 64
7, 92144, Note_on_c, 5, 63, 66
7, 92626, Note_off_c, 5, 63, 64
7, 108238, Note_on_c, 5, 71, 89
7, 108334, Note_on_c, 5, 72, 80
7, 108348, Note_off_c, 5, 71, 64
7, 108428, Note_off_c, 5, 72, 64
7, 108485, Note_on_c, 5, 74, 89
7, 108570, Note_off_c, 5, 74, 64
7, 108718, Note_on_c, 5, 79, 87
7, 109056, Note_off_c, 5, 79, 64
7, 109220, Note_on_c, 5, 82, 93
7, 109307, Note_off_c, 5, 82, 64
7, 109467, Note_on_c, 5, 73, 66
7, 109568, Note_on_c, 5, 71, 82
7, 109577, Note_off_c, 5, 73, 64
7, 109678, Note_on_c, 5, 73, 66
7, 109719, Note_off_c, 5, 71, 64
7, 109796, Note_on_c, 5, 74, 78
7, 109803, Note_off_c, 5, 73, 64
7, 109901, Note_off_c, 5, 74, 64
7, 109918, Note_on_c, 5, 76, 100
7, 110057, Note_off_c, 5, 76, 64
7, 110168, Note_on_c, 5, 77, 87
7, 110278, Note_off_c, 5, 77, 64
7, 110278, Note_on_c, 5, 79, 87
7, 110376, Note_off_c, 5, 79, 64
7, 110408, Note_on_c, 5, 81, 85
7, 110504, Note_on_c, 5, 79, 63
7, 110513, Note_off_c, 5, 81, 64
7, 110607, Note_off_c, 5, 79, 64
7, 110631, Note_on_c, 5, 81, 68
7, 110736, Note_on_c, 5, 82, 80
7, 110746, Note_off_c, 5, 81, 64
7, 110833, Note_off_c, 5, 82, 64
7, 110847, Note_on_c, 5, 81, 76
7, 110979, Note_on_c, 5, 79, 82
7, 110980, Note_off_c, 5, 81, 64
7, 111094, Note_off_c, 5, 79, 64
7, 111099, Note_on_c, 5, 77, 68
7, 111188, Note_off_c, 5, 77, 64
7, 111214, Note_on_c, 5, 76, 62
7, 111298, Note_off_c, 5, 76, 64
7, 111344, Note_on_c, 5, 77, 93
7, 111470, Note_off_c, 5, 77, 64
7, 111478, Note_on_c, 5, 79, 70
7, 111594, Note_on_c, 5, 77, 70
7, 111603, Note_off_c, 5, 79, 64
7, 111700, Note_off_c, 5, 77, 64
7, 111716, Note_on_c, 5, 76, 87
7, 111812, Note_off_c, 5, 76, 64
7, 111843, Note_on_c, 5, 74, 91
7, 111980, Note_off_c, 5, 74, 64
7, 112090, Note_on_c, 5, 83, 82
7, 112203, Note_off_c, 5, 83, 64
7, 112215, Note_on_c, 5, 84, 82
7, 112308, Note_off_c, 5, 84, 64
7, 112337, Note_on_c, 5, 86, 98
7, 112452, Note_off_c, 5, 86, 64
7, 112560, Note_on_c, 5, 80, 68
7, 112661, Note_off_c, 5, 80, 64
7, 112671, Note_on_c, 5, 81, 72
7, 112767, Note_off_c, 5, 81, 64
7, 112805, Note_on_c, 5, 83, 98
7, 112918, Note_off_c, 5, 83, 64
7, 113045, Note_on_c, 5, 74, 82
7, 113146, Note_on_c, 5, 76, 72
7, 113163, Note_off_c, 5, 74, 64
7, 113254, Note_off_c, 5, 76, 64
7, 113283, Note_on_c, 5, 77, 95
7, 113377, Note_off_c, 5, 77, 64
7, 113518, Note_on_c, 5, 71, 72
7, 113633, Note_off_c, 5, 71, 64
7, 113648, Note_on_c, 5, 72, 64
7, 113751, Note_off_c, 5, 72, 64
7, 113751, Note_on_c, 5, 74, 82
7, 113842, Note_off_c, 5, 74, 64
7, 113989, Note_on_c, 5, 68, 82
7, 114106, Note_off_c, 5, 68, 64
7, 114226, Note_on_c, 5, 69, 82
7, 114490, Note_off_c, 5, 69, 64
7, 114572, Note_on_c, 5, 71, 85
7, 114648, Note_off_c, 5, 71, 64
7, 114704, Note_on_c, 5, 72, 85
7, 114773, Note_off_c, 5, 72, 64
7, 114776, Note_on_c, 5, 71, 82
7, 114840, Note_on_c, 5, 72, 80
7, 114852, Note_off_c, 5, 71, 64
7, 114908, Note_on_c, 5, 71, 68
7, 114924, Note_off_c, 5, 72, 64
7, 115006, Note_off_c, 5, 71, 64
7, 115061, Note_on_c, 5, 69, 74
7, 115138, Note_off_c, 5, 69, 64
7, 115203, Note_on_c, 5, 69, 85
7, 115697, Note_off_c, 5, 69, 64
7, 115930, Note_on_c, 5, 76, 91
7, 116020, Note_on_c, 5, 77, 80
7, 116024, Note_off_c, 5, 76, 64
7, 116105, Note_off_c, 5, 77, 64
7, 116153, Note_on_c, 5, 79, 89
7, 116232, Note_off_c, 5, 79, 64
7, 116396, Note_on_c, 5, 84, 95
7, 116698, Note_off_c, 5, 84, 64
7, 116856, Note_on_c, 5, 79, 85
7, 116948, Note_off_c, 5, 79, 64
7, 117111, Note_on_c, 5, 76, 80
7, 117212, Note_off_c, 5, 76, 64
7, 117219, Note_on_c, 5, 74, 66
7, 117320, Note_on_c, 5, 76, 63
7, 117324, Note_off_c, 5, 74, 64
7, 117420, Note_off_c, 5, 76, 64
7, 117437, Note_on_c, 5, 77, 78
7, 117526, Note_off_c, 5, 77, 64
7, 117569, Note_on_c, 5, 79, 87
7, 117653, Note_off_c, 5, 79, 64
7, 117833, Note_on_c, 5, 70, 78
7, 117932, Note_off_c, 5, 70, 64
7, 118090, Note_on_c, 5, 69, 82
7, 118234, Note_off_c, 5, 69, 64
7, 118325, Note_on_c, 5, 74, 78
7, 118440, Note_on_c, 5, 72, 68
7, 118481, Note_off_c, 5, 74, 64
7, 118560, Note_on_c, 5, 70, 63
7, 118572, Note_off_c, 5, 72, 64
7, 118685, Note_on_c, 5, 69, 85
7, 118695, Note_off_c, 5, 70, 64
7, 118786, Note_on_c, 5, 70, 58
7, 118791, Note_off_c, 5, 69, 64
7, 118909, Note_off_c, 5, 70, 64
7, 118909, Note_on_c, 5, 67, 72
7, 119007, Note_off_c, 5, 67, 64
7, 119036, Note_on_c, 5, 69, 82
7, 119136, Note_off_c, 5, 69, 64
7, 119136, Note_on_c, 5, 70, 64
7, 119240, Note_on_c, 5, 69, 63
7, 119273, Note_off_c, 5, 70, 64
7, 119355, Note_off_c, 5, 69, 64
7, 119367, Note_on_c, 5, 67, 76
7, 119465, Note_off_c, 5, 67, 64
7, 119484, Note_on_c, 5, 65, 80
7, 119609, Note_off_c, 5, 65, 64
7, 119753, Note_on_c, 5, 77, 80
7, 119856, Note_off_c, 5, 77, 64
7, 119857, Note_on_c, 5, 79, 82
7, 119960, Note_off_c, 5, 79, 64
7, 119976, Note_on_c, 5, 81, 98
7, 120104, Note_off_c, 5, 81, 64
7, 120209, Note_on_c, 5, 74, 76
7, 120317, Note_off_c, 5, 74, 64
7, 120320, Note_on_c, 5, 76, 72
7, 120413, Note_off_c, 5, 76, 64
7, 120442, Note_on_c, 5, 77, 98
7, 120570, Note_off_c, 5, 77, 64
7, 120699, Note_on_c, 5, 71, 78
7, 120793, Note_on_c, 5, 72, 80
7, 120802, Note_off_c, 5, 71, 64
7, 120891, Note_off_c, 5, 72, 64
7, 120927, Note_on_c, 5, 74, 89
7, 121016, Note_off_c, 5, 74, 64
7, 121181, Note_on_c, 5, 67, 72
7, 121276, Note_off_c, 5, 67, 64
7, 121428, Note_on_c, 5, 79, 87
7, 121493, Note_off_c, 5, 79, 64
7, 121662, Note_on_c, 5, 71, 85
7, 121760, Note_off_c, 5, 71, 64
7, 121911, Note_on_c, 5, 72, 87
7, 122156, Note_off_c, 5, 72, 64
7, 122247, Note_on_c, 5, 74, 85
7, 122303, Note_off_c, 5, 74, 64
7, 122391, Note_on_c, 5, 76, 89
7, 122460, Note_on_c, 5, 74, 95
7, 122465, Note_off_c, 5, 76, 64
7, 122525, Note_on_c, 5, 76, 76
7, 122533, Note_off_c, 5, 74, 64
7, 122585, Note_on_c, 5, 74, 80
7, 122602, Note_off_c, 5, 76, 64
7, 122696, Note_off_c, 5, 74, 64
7, 122734, Note_on_c, 5, 72, 82
7, 122799, Note_off_c, 5, 72, 64
7, 122878, Note_on_c, 5, 72, 98
7, 123366, Note_off_c, 5, 72, 64
7, 123366, End_track
8, 0, Start_track
8, 0, Title_t, "Bassoon"
8, 0, Program_c, 6, 70
8, 0, Control_c, 6, 7, 100
8, 1195, Note_on_c, 6, 48, 89
8, 1299, Note_off_c, 6, 48, 64
8, 1311, Note_on_c, 6, 50, 82
8, 1409, Note_off_c, 6, 50, 64
8, 1438, Note_on_c, 6, 52, 102
8, 1534, Note_off_c, 6, 52, 64
8, 1678, Note_on_c, 6, 55, 76
8, 1762, Note_off_c, 6, 55, 64
8, 1927, Note_on_c, 6, 60, 85
8, 2031, Note_off_c, 6, 60, 64
8, 2155, Note_on_c, 6, 55, 85
8, 2239, Note_off_c, 6, 55, 64
8, 2395, Note_on_c, 6, 48, 89
8, 2482, Note_off_c, 6, 48, 64
8, 2619, Note_on_c, 6, 53, 82
8, 2712, Note_off_c, 6, 53, 64
8, 2859, Note_on_c, 6, 52, 68
8, 2969, Note_off_c, 6, 52, 64
8, 3091, Note_on_c, 6, 50, 80
8, 3190, Note_off_c, 6, 50, 64
8, 3312, Note_on_c, 6, 52, 66
8, 3425, Note_off_c, 6, 52, 64
8, 3559, Note_on_c, 6, 53, 80
8, 3672, Note_off_c, 6, 53, 64
8, 3810, Note_on_c, 6, 55, 80
8, 3924, Note_off_c, 6, 55, 64
8, 4049, Note_on_c, 6, 57, 80
8, 4155, Note_off_c, 6, 57, 64
8, 4272, Note_on_c, 6, 59, 76
8, 4397, Note_off_c, 6, 59, 64
8, 4512, Note_on_c, 6, 60, 78
8, 4627, Note_off_c, 6, 60, 64
8, 4760, Note_on_c, 6, 59, 80
8, 4884, Note_off_c, 6, 59, 64
8, 5009, Note_on_c, 6, 57, 82
8, 5107, Note_off_c, 6, 57, 64
8, 5239, Note_on_c, 6, 55, 68
8, 5374, Note_off_c, 6, 55, 64
8, 5491, Note_on_c, 6, 54, 68
8, 5604, Note_off_c, 6, 54, 64
8, 5744, Note_on_c, 6, 52, 68
8, 5866, Note_off_c, 6, 52, 64
8, 5983, Note_on_c, 6, 50, 78
8, 6110, Note_off_c, 6, 50, 64
8, 6233, Note_on_c, 6, 52, 78
8, 6360, Note_off_c, 6, 52, 64
8, 6467, Note_on_c, 6, 54, 87
8, 6579, Note_off_c, 6, 54, 64
8, 6701, Note_on_c, 6, 55, 85
8, 6816, Note_off_c, 6, 55, 64
8, 6953, Note_on_c, 6, 48, 80
8, 7059, Note_off_c, 6, 48, 64
8, 7198, Note_on_c, 6, 50, 85
8, 7280, Note_off_c, 6, 50, 64
8, 7423, Note_on_c, 6, 38, 87
8, 7517, Note_off_c, 6, 38, 64
8, 7680, Note_on_c, 6, 43, 87
8, 7781, Note_off_c, 6, 43, 64
8, 7897, Note_on_c, 6, 50, 82
8, 7978, Note_off_c, 6, 50, 64
8, 8153, Note_on_c, 6, 55, 87
8, 8376, Note_off_c, 6, 55, 64
8, 8890, Note_on_c, 6, 48, 93
8, 8979, Note_off_c, 6, 48, 64
8, 8991, Note_on_c, 6, 50, 89
8, 9091, Note_off_c, 6, 50, 64
8, 9108, Note_on_c, 6, 52, 91
8, 9235, Note_off_c, 6, 52, 64
8, 9370, Note_on_c, 6, 55, 80
8, 9461, Note_off_c, 6, 55, 64
8, 9612, Note_on_c, 6, 60, 82
8, 9725, Note_off_c, 6, 60, 64
8, 9850, Note_on_c, 6, 55, 82
8, 9936, Note_off_c, 6, 55, 64
8, 10095, Note_on_c, 6, 48, 89
8, 10188, Note_off_c, 6, 48, 64
8, 10325, Note_on_c, 6, 53, 87
8, 10423, Note_off_c, 6, 53, 64
8, 10560, Note_on_c, 6, 52, 70
8, 10685, Note_off_c, 6, 52, 64
8, 10798, Note_on_c, 6, 50, 76
8, 10918, Note_off_c, 6, 50, 64
8, 11009, Note_on_c, 6, 52, 70
8, 11122, Note_off_c, 6, 52, 64
8, 11239, Note_on_c, 6, 53, 78
8, 11367, Note_off_c, 6, 53, 64
8, 11494, Note_on_c, 6, 55, 82
8, 11616, Note_off_c, 6, 55, 64
8, 11729, Note_on_c, 6, 57, 76
8, 11849, Note_off_c, 6, 57, 64
8, 11950, Note_on_c, 6, 59, 68
8, 12101, Note_off_c, 6, 59, 64
8, 12203, Note_on_c, 6, 60, 76
8, 12331, Note_off_c, 6, 60, 64
8, 12451, Note_on_c, 6, 59, 70
8, 12571, Note_off_c, 6, 59, 64
8, 12692, Note_on_c, 6, 57, 80
8, 12802, Note_off_c, 6, 57, 64
8, 12927, Note_on_c, 6, 55, 80
8, 13059, Note_off_c, 6, 55, 64
8, 13162, Note_on_c, 6, 54, 76
8, 13277, Note_off_c, 6, 54, 64
8, 13411, Note_on_c, 6, 52, 78
8, 13541, Note_off_c, 6, 52, 64
8, 13637, Note_on_c, 6, 50, 78
8, 13769, Note_off_c, 6, 50, 64
8, 13889, Note_on_c, 6, 52, 72
8, 14028, Note_off_c, 6, 52, 64
8, 14139, Note_on_c, 6, 54, 82
8, 14249, Note_off_c, 6, 54, 64
8, 14379, Note_on_c, 6, 55, 82
8, 14506, Note_off_c, 6, 55, 64
8, 14621, Note_on_c, 6, 48, 85
8, 14741, Note_off_c, 6, 48, 64
8, 14863, Note_on_c, 6, 50, 89
8, 14955, Note_off_c, 6, 50, 64
8, 15104, Note_on_c, 6, 38, 87
8, 15197, Note_off_c, 6, 38, 64
8, 15368, Note_on_c, 6, 43, 95
8, 15468, Note_off_c, 6, 43, 64
8, 15564, Note_on_c, 6, 50, 82
8, 15648, Note_off_c, 6, 50, 64
8, 15826, Note_on_c, 6, 55, 85
8, 16044, Note_off_c, 6, 55, 64
8, 31904, Note_on_c, 6, 55, 89
8, 32005, Note_off_c, 6, 55, 64
8, 32012, Note_on_c, 6, 53, 80
8, 32118, Note_off_c, 6, 53, 64
8, 32135, Note_on_c, 6, 52, 87
8, 32238, Note_off_c, 6, 52, 64
8, 32389, Note_on_c, 6, 55, 85
8, 32497, Note_off_c, 6, 55, 64
8, 32648, Note_on_c, 6, 57, 85
8, 32761, Note_off_c, 6, 57, 64
8, 32886, Note_on_c, 6, 45, 85
8, 33004, Note_off_c, 6, 45, 64
8, 33114, Note_on_c, 6, 57, 82
8, 33220, Note_off_c, 6, 57, 64
8, 33337, Note_on_c, 6, 55, 80
8, 33455, Note_off_c, 6, 55, 64
8, 33589, Note_on_c, 6, 53, 80
8, 33708, Note_off_c, 6, 53, 64
8, 33810, Note_on_c, 6, 55, 80
8, 33913, Note_off_c, 6, 55, 64
8, 34048, Note_on_c, 6, 57, 82
8, 34136, Note_off_c, 6, 57, 64
8, 34316, Note_on_c, 6, 45, 85
8, 34422, Note_off_c, 6, 45, 64
8, 34530, Note_on_c, 6, 50, 89
8, 34628, Note_off_c, 6, 50, 64
8, 34777, Note_on_c, 6, 45, 87
8, 34861, Note_off_c, 6, 45, 64
8, 35027, Note_on_c, 6, 38, 91
8, 35156, Note_off_c, 6, 38, 64
8, 35262, Note_on_c, 6, 56, 80
8, 35365, Note_on_c, 6, 57, 72
8, 35377, Note_off_c, 6, 56, 64
8, 35476, Note_off_c, 6, 57, 64
8, 35500, Note_on_c, 6, 59, 87
8, 35622, Note_off_c, 6, 59, 64
8, 35751, Note_on_c, 6, 59, 82
8, 35862, Note_off_c, 6, 59, 64
8, 35864, Note_on_c, 6, 60, 78
8, 35944, Note_off_c, 6, 60, 64
8, 35977, Note_on_c, 6, 62, 91
8, 36133, Note_off_c, 6, 62, 64
8, 37213, Note_on_c, 6, 50, 85
8, 37302, Note_off_c, 6, 50, 64
8, 37429, Note_on_c, 6, 48, 87
8, 37533, Note_off_c, 6, 48, 64
8, 37542, Note_on_c, 6, 47, 82
8, 37652, Note_off_c, 6, 47, 64
8, 37655, Note_on_c, 6, 48, 87
8, 37763, Note_off_c, 6, 48, 64
8, 37784, Note_on_c, 6, 50, 80
8, 37890, Note_off_c, 6, 50, 64
8, 37890, Note_on_c, 6, 52, 91
8, 37991, Note_off_c, 6, 52, 64
8, 38132, Note_on_c, 6, 40, 89
8, 38226, Note_off_c, 6, 40, 64
8, 38380, Note_on_c, 6, 45, 93
8, 38471, Note_off_c, 6, 45, 64
8, 38605, Note_on_c, 6, 52, 78
8, 38689, Note_off_c, 6, 52, 64
8, 38857, Note_on_c, 6, 57, 93
8, 39080, Note_off_c, 6, 57, 64
8, 39568, Note_on_c, 6, 48, 80
8, 39649, Note_on_c, 6, 50, 78
8, 39672, Note_off_c, 6, 48, 64
8, 39750, Note_off_c, 6, 50, 64
8, 39791, Note_on_c, 6, 52, 89
8, 39894, Note_off_c, 6, 52, 64
8, 40062, Note_on_c, 6, 52, 68
8, 40156, Note_on_c, 6, 53, 68
8, 40184, Note_off_c, 6, 52, 64
8, 40259, Note_off_c, 6, 53, 64
8, 40285, Note_on_c, 6, 55, 82
8, 40396, Note_off_c, 6, 55, 64
8, 40544, Note_on_c, 6, 55, 82
8, 40648, Note_on_c, 6, 57, 70
8, 40664, Note_off_c, 6, 55, 64
8, 40764, Note_off_c, 6, 57, 64
8, 40789, Note_on_c, 6, 58, 80
8, 40878, Note_off_c, 6, 58, 64
8, 41020, Note_on_c, 6, 52, 68
8, 41128, Note_off_c, 6, 52, 64
8, 41260, Note_on_c, 6, 53, 89
8, 41358, Note_off_c, 6, 53, 64
8, 41497, Note_on_c, 6, 46, 68
8, 41617, Note_off_c, 6, 46, 64
8, 41768, Note_on_c, 6, 43, 89
8, 41872, Note_off_c, 6, 43, 64
8, 41986, Note_on_c, 6, 48, 85
8, 42073, Note_off_c, 6, 48, 64
8, 42239, Note_on_c, 6, 41, 87
8, 42332, Note_off_c, 6, 41, 64
8, 42462, Note_on_c, 6, 53, 76
8, 42572, Note_off_c, 6, 53, 64
8, 42580, Note_on_c, 6, 55, 66
8, 42680, Note_off_c, 6, 55, 64
8, 42693, Note_on_c, 6, 57, 80
8, 42815, Note_off_c, 6, 57, 64
8, 42816, Note_on_c, 6, 58, 72
8, 42923, Note_on_c, 6, 57, 63
8, 42956, Note_off_c, 6, 58, 64
8, 43063, Note_on_c, 6, 55, 78
8, 43081, Note_off_c, 6, 57, 64
8, 43172, Note_off_c, 6, 55, 64
8, 43182, Note_on_c, 6, 53, 68
8, 43297, Note_off_c, 6, 53, 64
8, 43300, Note_on_c, 6, 55, 64
8, 43424, Note_on_c, 6, 53, 70
8, 43453, Note_off_c, 6, 55, 64
8, 43532, Note_on_c, 6, 52, 80
8, 43537, Note_off_c, 6, 53, 64
8, 43616, Note_off_c, 6, 52, 64
8, 43667, Note_on_c, 6, 50, 80
8, 43770, Note_off_c, 6, 50, 64
8, 43777, Note_on_c, 6, 52, 64
8, 43900, Note_on_c, 6, 50, 76
8, 43924, Note_off_c, 6, 52, 64
8, 44012, Note_off_c, 6, 50, 64
8, 44012, Note_on_c, 6, 48, 66
8, 44094, Note_off_c, 6, 48, 64
8, 44148, Note_on_c, 6, 47, 87
8, 44248, Note_off_c, 6, 47, 64
8, 44264, Note_on_c, 6, 48, 64
8, 44370, Note_on_c, 6, 47, 58
8, 44396, Note_off_c, 6, 48, 64
8, 44492, Note_on_c, 6, 45, 68
8, 44516, Note_off_c, 6, 47, 64
8, 44610, Note_on_c, 6, 43, 70
8, 44612, Note_off_c, 6, 45, 64
8, 44725, Note_on_c, 6, 45, 72
8, 44732, Note_off_c, 6, 43, 64
8, 44855, Note_on_c, 6, 43, 80
8, 44898, Note_off_c, 6, 45, 64
8, 44968, Note_on_c, 6, 41, 85
8, 44977, Note_off_c, 6, 43, 64
8, 45079, Note_off_c, 6, 41, 64
8, 45100, Note_on_c, 6, 40, 85
8, 45208, Note_off_c, 6, 40, 64
8, 45342, Note_on_c, 6, 41, 95
8, 45447, Note_off_c, 6, 41, 64
8, 45575, Note_on_c, 6, 43, 85
8, 45668, Note_off_c, 6, 43, 64
8, 45805, Note_on_c, 6, 43, 95
8, 45894, Note_off_c, 6, 43, 64
8, 46076, Note_on_c, 6, 36, 98
8, 46612, Note_off_c, 6, 36, 64
8, 62169, Note_on_c, 6, 51, 64
8, 62277, Note_off_c, 6, 51, 64
8, 62409, Note_on_c, 6, 50, 60
8, 62763, Note_off_c, 6, 50, 64
8, 62906, Note_on_c, 6, 48, 74
8, 63189, Note_off_c, 6, 48, 64
8, 63370, Note_on_c, 6, 46, 64
8, 63502, Note_off_c, 6, 46, 64
8, 63595, Note_on_c, 6, 58, 63
8, 63699, Note_off_c, 6, 58, 64
8, 63836, Note_on_c, 6, 56, 64
8, 63955, Note_off_c, 6, 56, 64
8, 64076, Note_on_c, 6, 55, 72
8, 64152, Note_off_c, 6, 55, 64
8, 64321, Note_on_c, 6, 53, 68
8, 64477, Note_off_c, 6, 53, 64
8, 64533, Note_on_c, 6, 49, 63
8, 64642, Note_off_c, 6, 49, 64
8, 64646, Note_on_c, 6, 46, 68
8, 64723, Note_off_c, 6, 46, 64
8, 64781, Note_on_c, 6, 48, 59
8, 64922, Note_off_c, 6, 48, 64
8, 65037, Note_on_c, 6, 36, 82
8, 65134, Note_off_c, 6, 36, 64
8, 65286, Note_on_c, 6, 41, 85
8, 65401, Note_off_c, 6, 41, 64
8, 65520, Note_on_c, 6, 53, 62
8, 65622, Note_off_c, 6, 53, 64
8, 65732, Note_on_c, 6, 47, 70
8, 65847, Note_off_c, 6, 47, 64
8, 65991, Note_on_c, 6, 55, 74
8, 66050, Note_off_c, 6, 55, 64
8, 66231, Note_on_c, 6, 60, 66
8, 66613, Note_off_c, 6, 60, 64
8, 66715, Note_on_c, 6, 59, 68
8, 67106, Note_off_c, 6, 59, 64
8, 67207, Note_on_c, 6, 60, 78
8, 67605, Note_off_c, 6, 60, 64
8, 67680, Note_on_c, 6, 57, 62
8, 68057, Note_off_c, 6, 57, 64
8, 68166, Note_on_c, 6, 58, 57
8, 68263, Note_off_c, 6, 58, 64
8, 68395, Note_on_c, 6, 60, 80
8, 68488, Note_off_c, 6, 60, 64
8, 68629, Note_on_c, 6, 62, 80
8, 68720, Note_off_c, 6, 62, 64
8, 68865, Note_on_c, 6, 50, 80
8, 68960, Note_off_c, 6, 50, 64
8, 69102, Note_on_c, 6, 55, 72
8, 69199, Note_off_c, 6, 55, 64
8, 69353, Note_on_c, 6, 50, 82
8, 69430, Note_off_c, 6, 50, 64
8, 69601, Note_on_c, 6, 43, 80
8, 69696, Note_off_c, 6, 43, 64
8, 69833, Note_on_c, 6, 53, 74
8, 69921, Note_off_c, 6, 53, 64
8, 70082, Note_on_c, 6, 52, 63
8, 70462, Note_off_c, 6, 52, 64
8, 70555, Note_on_c, 6, 55, 70
8, 70899, Note_off_c, 6, 55, 64
8, 71036, Note_on_c, 6, 48, 72
8, 71144, Note_off_c, 6, 48, 64
8, 71252, Note_on_c, 6, 56, 63
8, 71354, Note_off_c, 6, 56, 64
8, 71497, Note_on_c, 6, 50, 80
8, 71603, Note_off_c, 6, 50, 64
8, 71738, Note_on_c, 6, 59, 78
8, 71846, Note_off_c, 6, 59, 64
8, 71977, Note_on_c, 6, 51, 66
8, 72089, Note_off_c, 6, 51, 64
8, 72228, Note_on_c, 6, 60, 76
8, 72332, Note_off_c, 6, 60, 64
8, 72491, Note_on_c, 6, 53, 78
8, 72588, Note_off_c, 6, 53, 64
8, 72725, Note_on_c, 6, 62, 76
8, 72829, Note_off_c, 6, 62, 64
8, 72958, Note_on_c, 6, 55, 74
8, 73070, Note_off_c, 6, 55, 64
8, 73176, Note_on_c, 6, 53, 80
8, 73268, Note_off_c, 6, 53, 64
8, 73410, Note_on_c, 6, 51, 74
8, 73502, Note_off_c, 6, 51, 64
8, 73666, Note_on_c, 6, 50, 72
8, 73754, Note_off_c, 6, 50, 64
8, 73909, Note_on_c, 6, 48, 87
8, 74297, Note_off_c, 6, 48, 64
8, 74408, Note_on_c, 6, 43, 68
8, 74787, Note_off_c, 6, 43, 64
8, 74871, Note_on_c, 6, 51, 70
8, 75059, Note_off_c, 6, 51, 64
8, 75103, Note_on_c, 6, 50, 72
8, 75188, Note_off_c, 6, 50, 64
8, 75213, Note_on_c, 6, 48, 64
8, 75302, Note_off_c, 6, 48, 64
8, 75331, Note_on_c, 6, 47, 70
8, 75428, Note_off_c, 6, 47, 64
8, 75587, Note_on_c, 6, 43, 85
8, 75682, Note_off_c, 6, 43, 64
8, 75832, Note_on_c, 6, 48, 78
8, 76008, Note_off_c, 6, 48, 64
8, 76064, Note_on_c, 6, 44, 66
8, 76152, Note_off_c, 6, 44, 64
8, 76163, Note_on_c, 6, 41, 72
8, 76242, Note_off_c, 6, 41, 64
8, 76311, Note_on_c, 6, 43, 70
8, 76408, Note_off_c, 6, 43, 64
8, 76559, Note_on_c, 6, 43, 68
8, 76655, Note_off_c, 6, 43, 64
8, 76814, Note_on_c, 6, 36, 76
8, 77296, Note_off_c, 6, 36, 64
8, 77527, Note_on_c, 6, 51, 68
8, 77622, Note_off_c, 6, 51, 64
8, 77764, Note_on_c, 6, 50, 68
8, 78119, Note_off_c, 6, 50, 64
8, 78247, Note_on_c, 6, 48, 64
8, 78560, Note_off_c, 6, 48, 64
8, 78731, Note_on_c, 6, 46, 59
8, 78857, Note_off_c, 6, 46, 64
8, 78941, Note_on_c, 6, 58, 63
8, 79047, Note_off_c, 6, 58, 64
8, 79183, Note_on_c, 6, 56, 64
8, 79278, Note_off_c, 6, 56, 64
8, 79409, Note_on_c, 6, 55, 66
8, 79482, Note_off_c, 6, 55, 64
8, 79660, Note_on_c, 6, 53, 70
8, 79824, Note_off_c, 6, 53, 64
8, 79877, Note_on_c, 6, 49, 68
8, 79992, Note_on_c, 6, 46, 66
8, 79998, Note_off_c, 6, 49, 64
8, 80076, Note_off_c, 6, 46, 64
8, 80126, Note_on_c, 6, 48, 78
8, 80237, Note_off_c, 6, 48, 64
8, 80387, Note_on_c, 6, 36, 80
8, 80477, Note_off_c, 6, 36, 64
8, 80632, Note_on_c, 6, 41, 85
8, 80747, Note_off_c, 6, 41, 64
8, 80877, Note_on_c, 6, 53, 72
8, 80959, Note_off_c, 6, 53, 64
8, 81104, Note_on_c, 6, 47, 80
8, 81217, Note_off_c, 6, 47, 64
8, 81345, Note_on_c, 6, 55, 74
8, 81444, Note_off_c, 6, 55, 64
8, 81608, Note_on_c, 6, 60, 64
8, 82001, Note_off_c, 6, 60, 64
8, 82087, Note_on_c, 6, 59, 59
8, 82478, Note_off_c, 6, 59, 64
8, 82568, Note_on_c, 6, 60, 66
8, 82959, Note_off_c, 6, 60, 64
8, 83050, Note_on_c, 6, 57, 59
8, 83418, Note_off_c, 6, 57, 64
8, 83507, Note_on_c, 6, 58, 64
8, 83604, Note_off_c, 6, 58, 64
8, 83739, Note_on_c, 6, 60, 76
8, 83829, Note_off_c, 6, 60, 64
8, 83984, Note_on_c, 6, 62, 85
8, 84076, Note_off_c, 6, 62, 64
8, 84227, Note_on_c, 6, 50, 68
8, 84324, Note_off_c, 6, 50, 64
8, 84472, Note_on_c, 6, 55, 82
8, 84582, Note_off_c, 6, 55, 64
8, 84710, Note_on_c, 6, 50, 66
8, 84805, Note_off_c, 6, 50, 64
8, 84955, Note_on_c, 6, 43, 70
8, 85057, Note_off_c, 6, 43, 64
8, 85194, Note_on_c, 6, 53, 72
8, 85271, Note_off_c, 6, 53, 64
8, 85430, Note_on_c, 6, 52, 63
8, 85807, Note_off_c, 6, 52, 64
8, 85924, Note_on_c, 6, 55, 70
8, 86258, Note_off_c, 6, 55, 64
8, 86401, Note_on_c, 6, 48, 66
8, 86507, Note_off_c, 6, 48, 64
8, 86609, Note_on_c, 6, 56, 66
8, 86695, Note_off_c, 6, 56, 64
8, 86847, Note_on_c, 6, 50, 80
8, 86959, Note_off_c, 6, 50, 64
8, 87095, Note_on_c, 6, 59, 78
8, 87187, Note_off_c, 6, 59, 64
8, 87362, Note_on_c, 6, 51, 72
8, 87470, Note_off_c, 6, 51, 64
8, 87594, Note_on_c, 6, 60, 78
8, 87695, Note_off_c, 6, 60, 64
8, 87839, Note_on_c, 6, 53, 82
8, 87943, Note_off_c, 6, 53, 64
8, 88071, Note_on_c, 6, 62, 80
8, 88172, Note_off_c, 6, 62, 64
8, 88320, Note_on_c, 6, 55, 70
8, 88439, Note_off_c, 6, 55, 64
8, 88559, Note_on_c, 6, 53, 66
8, 88673, Note_off_c, 6, 53, 64
8, 88786, Note_on_c, 6, 51, 64
8, 88892, Note_off_c, 6, 51, 64
8, 89031, Note_on_c, 6, 50, 68
8, 89138, Note_off_c, 6, 50, 64
8, 89278, Note_on_c, 6, 48, 70
8, 89636, Note_off_c, 6, 48, 64
8, 89784, Note_on_c, 6, 43, 68
8, 90126, Note_off_c, 6, 43, 64
8, 90224, Note_on_c, 6, 51, 66
8, 90420, Note_off_c, 6, 51, 64
8, 90471, Note_on_c, 6, 50, 85
8, 90550, Note_off_c, 6, 50, 64
8, 90581, Note_on_c, 6, 48, 76
8, 90678, Note_off_c, 6, 48, 64
8, 90700, Note_on_c, 6, 47, 82
8, 90780, Note_off_c, 6, 47, 64
8, 90954, Note_on_c, 6, 43, 82
8, 91076, Note_off_c, 6, 43, 64
8, 91186, Note_on_c, 6, 48, 80
8, 91378, Note_off_c, 6, 48, 64
8, 91431, Note_on_c, 6, 44, 68
8, 91528, Note_off_c, 6, 44, 64
8, 91528, Note_on_c, 6, 41, 74
8, 91615, Note_off_c, 6, 41, 64
8, 91668, Note_on_c, 6, 43, 76
8, 91778, Note_off_c, 6, 43, 64
8, 91913, Note_on_c, 6, 43, 74
8, 92008, Note_off_c, 6, 43, 64
8, 92164, Note_on_c, 6, 36, 82
8, 92679, Note_off_c, 6, 36, 64
8, 108704, Note_on_c, 6, 55, 89
8, 108805, Note_off_c, 6, 55, 64
8, 108812, Note_on_c, 6, 53, 80
8, 108918, Note_off_c, 6, 53, 64
8, 108935, Note_on_c, 6, 52, 87
8, 109038, Note_off_c, 6, 52, 64
8, 109189, Note_on_c, 6, 55, 85
8, 109297, Note_off_c, 6, 55, 64
8, 109448, Note_on_c, 6, 57, 85
8, 109561, Note_off_c, 6, 57, 64
8, 109686, Note_on_c, 6, 45, 85
8, 109804, Note_off_c, 6, 45, 64
8, 109914, Note_on_c, 6, 57, 82
8, 110020, Note_off_c, 6, 57, 64
8, 110137, Note_on_c, 6, 55, 80
8, 110255, Note_off_c, 6, 55, 64
8, 110389, Note_on_c, 6, 53, 80
8, 110508, Note_off_c, 6, 53, 64
8, 110610, Note_on_c, 6, 55, 80
8, 110713, Note_off_c, 6, 55, 64
8, 110848, Note_on_c, 6, 57, 82
8, 110936, Note_off_c, 6, 57, 64
8, 111116, Note_on_c, 6, 45, 85
8, 111222, Note_off_c, 6, 45, 64
8, 111330, Note_on_c, 6, 50, 89
8, 111428, Note_off_c, 6, 50, 64
8, 111577, Note_on_c, 6, 45, 87
8, 111661, Note_off_c, 6, 45, 64
8, 111827, Note_on_c, 6, 38, 91
8, 111956, Note_off_c, 6, 38, 64
8, 112062, Note_on_c, 6, 56, 80
8, 112165, Note_on_c, 6, 57, 72
8, 112177, Note_off_c, 6, 56, 64
8, 112276, Note_off_c, 6, 57, 64
8, 112300, Note_on_c, 6, 59, 87
8, 112422, Note_off_c, 6, 59, 64
8, 112551, Note_on_c, 6, 59, 82
8, 112662, Note_off_c, 6, 59, 64
8, 112664, Note_on_c, 6, 60, 78
8, 112744, Note_off_c, 6, 60, 64
8, 112777, Note_on_c, 6, 62, 91
8, 112933, Note_off_c, 6, 62, 64
8, 114013, Note_on_c, 6, 50, 85
8, 114102, Note_off_c, 6, 50, 64
8, 114229, Note_on_c, 6, 48, 87
8, 114333, Note_off_c, 6, 48, 64
8, 114342, Note_on_c, 6, 47, 82
8, 114452, Note_off_c, 6, 47, 64
8, 114455, Note_on_c, 6, 48, 87
8, 114563, Note_off_c, 6, 48, 64
8, 114584, Note_on_c, 6, 50, 80
8, 114690, Note_off_c, 6, 50, 64
8, 114690, Note_on_c, 6, 52, 91
8, 114791, Note_off_c, 6, 52, 64
8, 114932, Note_on_c, 6, 40, 89
8, 115026, Note_off_c, 6, 40, 64
8, 115180, Note_on_c, 6, 45, 93
8, 115271, Note_off_c, 6, 45, 64
8, 115405, Note_on_c, 6, 52, 78
8, 115489, Note_off_c, 6, 52, 64
8, 115657, Note_on_c, 6, 57, 93
8, 115880, Note_off_c, 6, 57, 64
8, 116368, Note_on_c, 6, 48, 80
8, 116449, Note_on_c, 6, 50, 78
8, 116472, Note_off_c, 6, 48, 64
8, 116550, Note_off_c, 6, 50, 64
8, 116591, Note_on_c, 6, 52, 89
8, 116694, Note_off_c, 6, 52, 64
8, 116862, Note_on_c, 6, 52, 68
8, 116956, Note_on_c, 6, 53, 68
8, 116984, Note_off_c, 6, 52, 64
8, 117059, Note_off_c, 6, 53, 64
8, 117085, Note_on_c, 6, 55, 82
8, 117196, Note_off_c, 6, 55, 64
8, 117344, Note_on_c, 6, 55, 82
8, 117448, Note_on_c, 6, 57, 70
8, 117464, Note_off_c, 6, 55, 64
8, 117564, Note_off_c, 6, 57, 64
8, 117589, Note_on_c, 6, 58, 80
8, 117678, Note_off_c, 6, 58, 64
8, 117820, Note_on_c, 6, 52, 68
8, 117928, Note_off_c, 6, 52, 64
8, 118060, Note_on_c, 6, 53, 89
8, 118158, Note_off_c, 6, 53, 64
8, 118297, Note_on_c, 6, 46, 68
8, 118417, Note_off_c, 6, 46, 64
8, 118568, Note_on_c, 6, 43, 89
8, 118672, Note_off_c, 6, 43, 64
8, 118786, Note_on_c, 6, 48, 85
8, 118873, Note_off_c, 6, 48, 64
8, 119039, Note_on_c, 6, 41, 87
8, 119132, Note_off_c, 6, 41, 64
8, 119262, Note_on_c, 6, 53, 76
8, 119372, Note_off_c, 6, 53, 64
8, 119380, Note_on_c, 6, 55, 66
8, 119480, Note_off_c, 6, 55, 64
8, 119493, Note_on_c, 6, 57, 80
8, 119615, Note_off_c, 6, 57, 64
8, 119616, Note_on_c, 6, 58, 72
8, 119723, Note_on_c, 6, 57, 63
8, 119756, Note_off_c, 6, 58, 64
8, 119863, Note_on_c, 6, 55, 78
8, 119881, Note_off_c, 6, 57, 64
8, 119972, Note_off_c, 6, 55, 64
8, 119982, Note_on_c, 6, 53, 68
8, 120097, Note_off_c, 6, 53, 64
8, 120100, Note_on_c, 6, 55, 64
8, 120224, Note_on_c, 6, 53, 70
8, 120253, Note_off_c, 6, 55, 64
8, 120332, Note_on_c, 6, 52, 80
8, 120337, Note_off_c, 6, 53, 64
8, 120416, Note_off_c, 6, 52, 64
8, 120467, Note_on_c, 6, 50, 80
8, 120570, Note_off_c, 6, 50, 64
8, 120577, Note_on_c, 6, 52, 64
8, 120700, Note_on_c, 6, 50, 76
8, 120724, Note_off_c, 6, 52, 64
8, 120812, Note_off_c, 6, 50, 64
8, 120812, Note_on_c, 6, 48, 66
8, 120894, Note_off_c, 6, 48, 64
8, 120948, Note_on_c, 6, 47, 87
8, 121048, Note_off_c, 6, 47, 64
8, 121064, Note_on_c, 6, 48, 64
8, 121170, Note_on_c, 6, 47, 58
8, 121196, Note_off_c, 6, 48, 64
8, 121292, Note_on_c, 6, 45, 68
8, 121316, Note_off_c, 6, 47, 64
8, 121410, Note_on_c, 6, 43, 70
8, 121412, Note_off_c, 6, 45, 64
8, 121525, Note_on_c, 6, 45, 72
8, 121532, Note_off_c, 6, 43, 64
8, 121655, Note_on_c, 6, 43, 80
8, 121698, Note_off_c, 6, 45, 64
8, 121768, Note_on_c, 6, 41, 85
8, 121777, Note_off_c, 6, 43, 64
8, 121879, Note_off_c, 6, 41, 64
8, 121900, Note_on_c, 6, 40, 85
8, 122008, Note_off_c, 6, 40, 64
8, 122142, Note_on_c, 6, 41, 95
8, 122247, Note_off_c, 6, 41, 64
8, 122375, Note_on_c, 6, 43, 85
8, 122468, Note_off_c, 6, 43, 64
8, 122605, Note_on_c, 6, 43, 95
8, 122694, Note_off_c, 6, 43, 64
8, 122876, Note_on_c, 6, 36, 98
8, 123412, Note_off_c, 6, 36, 64
8, 123412, End_track
9, 0, Start_track
9, 0, Title_t, "Violin1"
9, 0, Program_c, 0, 40
9, 0, Control_c, 0, 7, 100
9, 16100, Note_on_c, 0, 71, 100
9, 16184, Note_off_c, 0, 71, 64
9, 16199, Note_on_c, 0, 72, 89
9, 16290, Note_off_c, 0, 72, 64
9, 16319, Note_on_c, 0, 74, 93
9, 16417, Note_off_c, 0, 74, 64
9, 16576, Note_on_c, 0, 79, 85
9, 16832, Note_off_c, 0, 79, 64
9, 17044, Note_on_c, 0, 82, 110
9, 17140, Note_off_c, 0, 82, 64
9, 17286, Note_on_c, 0, 73, 62
9, 17394, Note_on_c, 0, 71, 82
9, 17408, Note_off_c, 0, 73, 64
9, 17519, Note_on_c, 0, 73, 56
9, 17534, Note_off_c, 0, 71, 64
9, 17629, Note_on_c, 0, 74, 85
9, 17639, Note_off_c, 0, 73, 64
9, 17740, Note_off_c, 0, 74, 64
9, 17760, Note_on_c, 0, 76, 100
9, 17912, Note_off_c, 0, 76, 64
9, 17982, Note_on_c, 0, 77, 66
9, 18095, Note_off_c, 0, 77, 64
9, 18098, Note_on_c, 0, 79, 68
9, 18200, Note_off_c, 0, 79, 64
9, 18239, Note_on_c, 0, 81, 89
9, 18342, Note_off_c, 0, 81, 64
9, 18347, Note_on_c, 0, 79, 59
9, 18438, Note_off_c, 0, 79, 64
9, 18460, Note_on_c, 0, 81, 66
9, 18589, Note_on_c, 0, 82, 80
9, 18596, Note_off_c, 0, 81, 64
9, 18673, Note_off_c, 0, 82, 64
9, 18704, Note_on_c, 0, 81, 82
9, 18832, Note_off_c, 0, 81, 64
9, 18839, Note_on_c, 0, 79, 78
9, 18942, Note_off_c, 0, 79, 64
9, 18954, Note_on_c, 0, 77, 64
9, 19048, Note_off_c, 0, 77, 64
9, 19064, Note_on_c, 0, 76, 63
9, 19146, Note_off_c, 0, 76, 64
9, 19194, Note_on_c, 0, 77, 102
9, 19312, Note_on_c, 0, 79, 78
9, 19319, Note_off_c, 0, 77, 64
9, 19434, Note_on_c, 0, 77, 66
9, 19444, Note_off_c, 0, 79, 64
9, 19535, Note_off_c, 0, 77, 64
9, 19547, Note_on_c, 0, 76, 72
9, 19640, Note_off_c, 0, 76, 64
9, 19672, Note_on_c, 0, 74, 87
9, 19824, Note_off_c, 0, 74, 64
9, 19907, Note_on_c, 0, 83, 82
9, 20022, Note_off_c, 0, 83, 64
9, 20027, Note_on_c, 0, 84, 78
9, 20113, Note_off_c, 0, 84, 64
9, 20144, Note_on_c, 0, 86, 100
9, 20280, Note_off_c, 0, 86, 64
9, 20375, Note_on_c, 0, 80, 63
9, 20476, Note_off_c, 0, 80, 64
9, 20483, Note_on_c, 0, 81, 82
9, 20569, Note_off_c, 0, 81, 64
9, 20622, Note_on_c, 0, 83, 100
9, 20764, Note_off_c, 0, 83, 64
9, 20869, Note_on_c, 0, 74, 89
9, 20960, Note_off_c, 0, 74, 64
9, 20984, Note_on_c, 0, 76, 72
9, 21080, Note_off_c, 0, 76, 64
9, 21112, Note_on_c, 0, 77, 102
9, 21230, Note_off_c, 0, 77, 64
9, 21342, Note_on_c, 0, 71, 80
9, 21448, Note_off_c, 0, 71, 64
9, 21469, Note_on_c, 0, 72, 66
9, 21584, Note_off_c, 0, 72, 64
9, 21592, Note_on_c, 0, 74, 76
9, 21676, Note_off_c, 0, 74, 64
9, 21824, Note_on_c, 0, 68, 87
9, 21930, Note_off_c, 0, 68, 64
9, 22048, Note_on_c, 0, 69, 87
9, 22319, Note_off_c, 0, 69, 64
9, 22391, Note_on_c, 0, 71, 80
9, 22470, Note_off_c, 0, 71, 64
9, 22523, Note_on_c, 0, 72, 91
9, 22588, Note_on_c, 0, 71, 85
9, 22590, Note_off_c, 0, 72, 64
9, 22662, Note_on_c, 0, 72, 93
9, 22679, Note_off_c, 0, 71, 64
9, 22715, Note_on_c, 0, 71, 70
9, 22748, Note_off_c, 0, 72, 64
9, 22816, Note_off_c, 0, 71, 64
9, 22876, Note_on_c, 0, 69, 80
9, 22952, Note_off_c, 0, 69, 64
9, 23005, Note_on_c, 0, 69, 93
9, 23512, Note_off_c, 0, 69, 64
9, 23725, Note_on_c, 0, 76, 80
9, 23819, Note_off_c, 0, 76, 64
9, 23826, Note_on_c, 0, 77, 82
9, 23908, Note_off_c, 0, 77, 64
9, 23958, Note_on_c, 0, 79, 93
9, 24040, Note_off_c, 0, 79, 64
9, 24222, Note_on_c, 0, 84, 98
9, 24546, Note_off_c, 0, 84, 64
9, 24733, Note_on_c, 0, 79, 87
9, 24822, Note_off_c, 0, 79, 64
9, 24971, Note_on_c, 0, 76, 85
9, 25074, Note_on_c, 0, 74, 76
9, 25081, Note_off_c, 0, 76, 64
9, 25177, Note_off_c, 0, 74, 64
9, 25178, Note_on_c, 0, 76, 76
9, 25290, Note_off_c, 0, 76, 64
9, 25297, Note_on_c, 0, 77, 85
9, 25391, Note_off_c, 0, 77, 64
9, 25429, Note_on_c, 0, 79, 95
9, 25532, Note_off_c, 0, 79, 64
9, 25681, Note_on_c, 0, 70, 100
9, 25787, Note_off_c, 0, 70, 64
9, 25909, Note_on_c, 0, 69, 85
9, 26107, Note_off_c, 0, 69, 64
9, 26171, Note_on_c, 0, 74, 93
9, 26281, Note_on_c, 0, 72, 82
9, 26298, Note_off_c, 0, 74, 64
9, 26375, Note_off_c, 0, 72, 64
9, 26390, Note_on_c, 0, 70, 82
9, 26487, Note_off_c, 0, 70, 64
9, 26495, Note_on_c, 0, 69, 80
9, 26588, Note_off_c, 0, 69, 64
9, 26612, Note_on_c, 0, 70, 68
9, 26730, Note_on_c, 0, 67, 82
9, 26737, Note_off_c, 0, 70, 64
9, 26828, Note_off_c, 0, 67, 64
9, 26857, Note_on_c, 0, 69, 80
9, 26960, Note_on_c, 0, 70, 78
9, 26968, Note_off_c, 0, 69, 64
9, 27078, Note_on_c, 0, 69, 82
9, 27095, Note_off_c, 0, 70, 64
9, 27179, Note_off_c, 0, 69, 64
9, 27196, Note_on_c, 0, 67, 95
9, 27296, Note_off_c, 0, 67, 64
9, 27325, Note_on_c, 0, 65, 87
9, 27433, Note_off_c, 0, 65, 64
9, 27580, Note_on_c, 0, 77, 82
9, 27673, Note_off_c, 0, 77, 64
9, 27688, Note_on_c, 0, 79, 82
9, 27784, Note_off_c, 0, 79, 64
9, 27817, Note_on_c, 0, 81, 100
9, 27942, Note_off_c, 0, 81, 64
9, 28057, Note_on_c, 0, 74, 85
9, 28153, Note_off_c, 0, 74, 64
9, 28170, Note_on_c, 0, 76, 82
9, 28272, Note_off_c, 0, 76, 64
9, 28297, Note_on_c, 0, 77, 100
9, 28403, Note_off_c, 0, 77, 64
9, 28530, Note_on_c, 0, 71, 82
9, 28628, Note_off_c, 0, 71, 64
9, 28640, Note_on_c, 0, 72, 82
9, 28736, Note_off_c, 0, 72, 64
9, 28770, Note_on_c, 0, 74, 95
9, 28859, Note_off_c, 0, 74, 64
9, 29022, Note_on_c, 0, 67, 74
9, 29106, Note_off_c, 0, 67, 64
9, 29272, Note_on_c, 0, 79, 93
9, 29358, Note_off_c, 0, 79, 64
9, 29504, Note_on_c, 0, 71, 87
9, 29586, Note_off_c, 0, 71, 64
9, 29749, Note_on_c, 0, 72, 87
9, 29992, Note_off_c, 0, 72, 64
9, 30080, Note_on_c, 0, 74, 82
9, 30143, Note_off_c, 0, 74, 64
9, 30224, Note_on_c, 0, 76, 93
9, 30289, Note_on_c, 0, 74, 102
9, 30299, Note_off_c, 0, 76, 64
9, 30347, Note_on_c, 0, 76, 66
9, 30359, Note_off_c, 0, 74, 64
9, 30412, Note_on_c, 0, 74, 82
9, 30428, Note_off_c, 0, 76, 64
9, 30520, Note_off_c, 0, 74, 64
9, 30556, Note_on_c, 0, 72, 85
9, 30628, Note_off_c, 0, 72, 64
9, 30700, Note_on_c, 0, 72, 98
9, 31122, Note_off_c, 0, 72, 64
9, 92895, Note_on_c, 0, 64, 91
9, 92979, Note_off_c, 0, 64, 64
9, 92986, Note_on_c, 0, 65, 91
9, 93072, Note_off_c, 0, 65, 64
9, 93113, Note_on_c, 0, 67, 100
9, 93209, Note_off_c, 0, 67, 64
9, 93360, Note_on_c, 0, 72, 91
9, 93653, Note_off_c, 0, 72, 64
9, 93821, Note_on_c, 0, 67, 87
9, 93900, Note_off_c, 0, 67, 64
9, 94063, Note_on_c, 0, 64, 95
9, 94169, Note_off_c, 0, 64, 64
9, 94169, Note_on_c, 0, 62, 85
9, 94263, Note_off_c, 0, 62, 64
9, 94282, Note_on_c, 0, 64, 82
9, 94397, Note_off_c, 0, 64, 64
9, 94397, Note_on_c, 0, 65, 98
9, 94491, Note_off_c, 0, 65, 64
9, 94531, Note_on_c, 0, 67, 89
9, 94704, Note_off_c, 0, 67, 64
9, 94770, Note_on_c, 0, 69, 82
9, 94867, Note_off_c, 0, 69, 64
9, 94872, Note_on_c, 0, 71, 80
9, 94978, Note_off_c, 0, 71, 64
9, 94997, Note_on_c, 0, 72, 87
9, 95079, Note_off_c, 0, 72, 64
9, 95119, Note_on_c, 0, 74, 100
9, 95213, Note_off_c, 0, 74, 64
9, 95232, Note_on_c, 0, 76, 85
9, 95323, Note_off_c, 0, 76, 64
9, 95357, Note_on_c, 0, 77, 100
9, 95444, Note_off_c, 0, 77, 64
9, 95484, Note_on_c, 0, 79, 98
9, 95587, Note_off_c, 0, 79, 64
9, 95743, Note_on_c, 0, 81, 100
9, 95839, Note_off_c, 0, 81, 64
9, 95976, Note_on_c, 0, 74, 105
9, 96087, Note_off_c, 0, 74, 64
9, 96087, Note_on_c, 0, 72, 87
9, 96185, Note_off_c, 0, 72, 64
9, 96202, Note_on_c, 0, 74, 91
9, 96310, Note_off_c, 0, 74, 64
9, 96324, Note_on_c, 0, 76, 87
9, 96408, Note_off_c, 0, 76, 64
9, 96451, Note_on_c, 0, 74, 102
9, 96639, Note_off_c, 0, 74, 64
9, 96691, Note_on_c, 0, 76, 80
9, 96780, Note_off_c, 0, 76, 64
9, 96804, Note_on_c, 0, 78, 87
9, 96893, Note_off_c, 0, 78, 64
9, 96945, Note_on_c, 0, 79, 105
9, 97107, Note_off_c, 0, 79, 64
9, 97181, Note_on_c, 0, 71, 85
9, 97265, Note_off_c, 0, 71, 64
9, 97279, Note_on_c, 0, 72, 82
9, 97366, Note_off_c, 0, 72, 64
9, 97414, Note_on_c, 0, 74, 102
9, 97560, Note_off_c, 0, 74, 64
9, 97661, Note_on_c, 0, 76, 93
9, 97747, Note_off_c, 0, 76, 64
9, 97769, Note_on_c, 0, 78, 66
9, 97858, Note_off_c, 0, 78, 64
9, 97906, Note_on_c, 0, 79, 107
9, 98047, Note_off_c, 0, 79, 64
9, 98131, Note_on_c, 0, 69, 89
9, 98225, Note_off_c, 0, 69, 64
9, 98237, Note_on_c, 0, 71, 80
9, 98326, Note_off_c, 0, 71, 64
9, 98381, Note_on_c, 0, 72, 100
9, 98513, Note_off_c, 0, 72, 64
9, 98635, Note_on_c, 0, 74, 95
9, 98731, Note_off_c, 0, 74, 64
9, 98878, Note_on_c, 0, 71, 100
9, 99135, Note_off_c, 0, 71, 64
9, 99209, Note_on_c, 0, 69, 64
9, 99276, Note_off_c, 0, 69, 64
9, 99317, Note_on_c, 0, 71, 85
9, 99370, Note_off_c, 0, 71, 64
9, 99372, Note_on_c, 0, 69, 78
9, 99423, Note_on_c, 0, 71, 93
9, 99428, Note_off_c, 0, 69, 64
9, 99449, Note_on_c, 0, 72, 50
9, 99463, Note_off_c, 0, 72, 64
9, 99499, Note_on_c, 0, 69, 74
9, 99514, Note_off_c, 0, 71, 64
9, 99627, Note_off_c, 0, 69, 64
9, 99682, Note_on_c, 0, 67, 82
9, 99754, Note_off_c, 0, 67, 64
9, 99798, Note_on_c, 0, 67, 89
9, 100291, Note_off_c, 0, 67, 64
9, 100539, Note_on_c, 0, 64, 89
9, 100632, Note_off_c, 0, 64, 64
9, 100632, Note_on_c, 0, 65, 87
9, 100721, Note_off_c, 0, 65, 64
9, 100764, Note_on_c, 0, 67, 100
9, 100851, Note_off_c, 0, 67, 64
9, 101016, Note_on_c, 0, 72, 87
9, 101307, Note_off_c, 0, 72, 64
9, 101499, Note_on_c, 0, 67, 89
9, 101583, Note_off_c, 0, 67, 64
9, 101741, Note_on_c, 0, 64, 87
9, 101845, Note_on_c, 0, 62, 80
9, 101849, Note_off_c, 0, 64, 64
9, 101952, Note_on_c, 0, 64, 80
9, 101979, Note_off_c, 0, 62, 64
9, 102058, Note_on_c, 0, 65, 82
9, 102063, Note_off_c, 0, 64, 64
9, 102149, Note_off_c, 0, 65, 64
9, 102199, Note_on_c, 0, 67, 95
9, 102375, Note_off_c, 0, 67, 64
9, 102432, Note_on_c, 0, 69, 78
9, 102543, Note_on_c, 0, 71, 85
9, 102545, Note_off_c, 0, 69, 64
9, 102660, Note_off_c, 0, 71, 64
9, 102670, Note_on_c, 0, 72, 87
9, 102778, Note_off_c, 0, 72, 64
9, 102799, Note_on_c, 0, 74, 100
9, 102899, Note_off_c, 0, 74, 64
9, 102919, Note_on_c, 0, 76, 80
9, 103015, Note_off_c, 0, 76, 64
9, 103042, Note_on_c, 0, 77, 93
9, 103123, Note_off_c, 0, 77, 64
9, 103174, Note_on_c, 0, 79, 95
9, 103282, Note_off_c, 0, 79, 64
9, 103421, Note_on_c, 0, 81, 85
9, 103519, Note_off_c, 0, 81, 64
9, 103654, Note_on_c, 0, 74, 102
9, 103764, Note_off_c, 0, 74, 64
9, 103769, Note_on_c, 0, 72, 85
9, 103872, Note_off_c, 0, 72, 64
9, 103887, Note_on_c, 0, 74, 85
9, 103983, Note_off_c, 0, 74, 64
9, 104004, Note_on_c, 0, 76, 78
9, 104095, Note_off_c, 0, 76, 64
9, 104134, Note_on_c, 0, 74, 102
9, 104314, Note_off_c, 0, 74, 64
9, 104374, Note_on_c, 0, 76, 85
9, 104460, Note_off_c, 0, 76, 64
9, 104483, Note_on_c, 0, 78, 70
9, 104578, Note_off_c, 0, 78, 64
9, 104623, Note_on_c, 0, 79, 105
9, 104782, Note_off_c, 0, 79, 64
9, 104851, Note_on_c, 0, 71, 78
9, 104943, Note_off_c, 0, 71, 64
9, 104957, Note_on_c, 0, 72, 82
9, 105043, Note_off_c, 0, 72, 64
9, 105094, Note_on_c, 0, 74, 102
9, 105238, Note_off_c, 0, 74, 64
9, 105336, Note_on_c, 0, 76, 85
9, 105425, Note_off_c, 0, 76, 64
9, 105444, Note_on_c, 0, 78, 80
9, 105533, Note_off_c, 0, 78, 64
9, 105579, Note_on_c, 0, 79, 107
9, 105718, Note_off_c, 0, 79, 64
9, 105802, Note_on_c, 0, 69, 76
9, 105893, Note_off_c, 0, 69, 64
9, 105915, Note_on_c, 0, 71, 87
9, 106011, Note_off_c, 0, 71, 64
9, 106066, Note_on_c, 0, 72, 102
9, 106174, Note_off_c, 0, 72, 64
9, 106318, Note_on_c, 0, 74, 98
9, 106407, Note_off_c, 0, 74, 64
9, 106560, Note_on_c, 0, 71, 102
9, 106836, Note_off_c, 0, 71, 64
9, 106894, Note_on_c, 0, 69, 82
9, 106963, Note_off_c, 0, 69, 64
9, 107011, Note_on_c, 0, 71, 87
9, 107059, Note_on_c, 0, 69, 87
9, 107067, Note_off_c, 0, 71, 64
9, 107127, Note_off_c, 0, 69, 64
9, 107127, Note_on_c, 0, 71, 82
9, 107179, Note_on_c, 0, 69, 78
9, 107208, Note_off_c, 0, 71, 64
9, 107307, Note_off_c, 0, 69, 64
9, 107350, Note_on_c, 0, 67, 85
9, 107417, Note_off_c, 0, 67, 64
9, 107484, Note_on_c, 0, 67, 98
9, 107957, Note_off_c, 0, 67, 64
9, 123620, Note_on_c, 0, 71, 100
9, 123704, Note_off_c, 0, 71, 64
9, 123719, Note_on_c, 0, 72, 89
9, 123810, Note_off_c, 0, 72, 64
9, 123839, Note_on_c, 0, 74, 93
9, 123937, Note_off_c, 0, 74, 64
9, 124096, Note_on_c, 0, 79, 85
9, 124352, Note_off_c, 0, 79, 64
9, 124564, Note_on_c, 0, 82, 110
9, 124660, Note_off_c, 0, 82, 64
9, 124806, Note_on_c, 0, 73, 62
9, 124914, Note_on_c, 0, 71, 82
9, 124928, Note_off_c, 0, 73, 64
9, 125039, Note_on_c, 0, 73, 56
9, 125054, Note_off_c, 0, 71, 64
9, 125149, Note_on_c, 0, 74, 85
9, 125159, Note_off_c, 0, 73, 64
9, 125260, Note_off_c, 0, 74, 64
9, 125280, Note_on_c, 0, 76, 100
9, 125432, Note_off_c, 0, 76, 64
9, 125502, Note_on_c, 0, 77, 66
9, 125615, Note_off_c, 0, 77, 64
9, 125618, Note_on_c, 0, 79, 68
9, 125720, Note_off_c, 0, 79, 64
9, 125759, Note_on_c, 0, 81, 89
9, 125862, Note_off_c, 0, 81, 64
9, 125867, Note_on_c, 0, 79, 59
9, 125958, Note_off_c, 0, 79, 64
9, 125980, Note_on_c, 0, 81, 66
9, 126109, Note_on_c, 0, 82, 80
9, 126116, Note_off_c, 0, 81, 64
9, 126193, Note_off_c, 0, 82, 64
9, 126224, Note_on_c, 0, 81, 82
9, 126352, Note_off_c, 0, 81, 64
9, 126359, Note_on_c, 0, 79, 78
9, 126462, Note_off_c, 0, 79, 64
9, 126474, Note_on_c, 0, 77, 64
9, 126568, Note_off_c, 0, 77, 64
9, 126584, Note_on_c, 0, 76, 63
9, 126666, Note_off_c, 0, 76, 64
9, 126714, Note_on_c, 0, 77, 102
9, 126832, Note_on_c, 0, 79, 78
9, 126839, Note_off_c, 0, 77, 64
9, 126954, Note_on_c, 0, 77, 66
9, 126964, Note_off_c, 0, 79, 64
9, 127055, Note_off_c, 0, 77, 64
9, 127067, Note_on_c, 0, 76, 72
9, 127160, Note_off_c, 0, 76, 64
9, 127192, Note_on_c, 0, 74, 87
9, 127344, Note_off_c, 0, 74, 64
9, 127427, Note_on_c, 0, 83, 82
9, 127542, Note_off_c, 0, 83, 64
9, 127547, Note_on_c, 0, 84, 78
9, 127633, Note_off_c, 0, 84, 64
9, 127664, Note_on_c, 0, 86, 100
9, 127800, Note_off_c, 0, 86, 64
9, 127895, Note_on_c, 0, 80, 63
9, 127996, Note_off_c, 0, 80, 64
9, 128003, Note_on_c, 0, 81, 82
9, 128089, Note_off_c, 0, 81, 64
9, 128142, Note_on_c, 0, 83, 100
9, 128284, Note_off_c, 0, 83, 64
9, 128389, Note_on_c, 0, 74, 89
9, 128480, Note_off_c, 0, 74, 64
9, 128504, Note_on_c, 0, 76, 72
9, 128600, Note_off_c, 0, 76, 64
9, 128632, Note_on_c, 0, 77, 102
9, 128750, Note_off_c, 0, 77, 64
9, 128862, Note_on_c, 0, 71, 80
9, 128968, Note_off_c, 0, 71, 64
9, 128989, Note_on_c, 0, 72, 66
9, 129104, Note_off_c, 0, 72, 64
9, 129112, Note_on_c, 0, 74, 76
9, 129196, Note_off_c, 0, 74, 64
9, 129344, Note_on_c, 0, 68, 87
9, 129450, Note_off_c, 0, 68, 64
9, 129568, Note_on_c, 0, 69, 87
9, 129839, Note_off_c, 0, 69, 64
9, 129911, Note_on_c, 0, 71, 80
9, 129990, Note_off_c, 0, 71, 64
9, 130043, Note_on_c, 0, 72, 91
9, 130108, Note_on_c, 0, 71, 85
9, 130110, Note_off_c, 0, 72, 64
9, 130182, Note_on_c, 0, 72, 93
9, 130199, Note_off_c, 0, 71, 64
9, 130235, Note_on_c, 0, 71, 70
9, 130268, Note_off_c, 0, 72, 64
9, 130336, Note_off_c, 0, 71, 64
9, 130396, Note_on_c, 0, 69, 80
9, 130472, Note_off_c, 0, 69, 64
9, 130525, Note_on_c, 0, 69, 93
9, 131032, Note_off_c, 0, 69, 64
9, 131245, Note_on_c, 0, 76, 80
9, 131339, Note_off_c, 0, 76, 64
9, 131346, Note_on_c, 0, 77, 82
9, 131428, Note_off_c, 0, 77, 64
9, 131478, Note_on_c, 0, 79, 93
9, 131560, Note_off_c, 0, 79, 64
9, 131742, Note_on_c, 0, 84, 98
9, 132066, Note_off_c, 0, 84, 64
9, 132253, Note_on_c, 0, 79, 87
9, 132342, Note_off_c, 0, 79, 64
9, 132491, Note_on_c, 0, 76, 85
9, 132594, Note_on_c, 0, 74, 76
9, 132601, Note_off_c, 0, 76, 64
9, 132697, Note_off_c, 0, 74, 64
9, 132698, Note_on_c, 0, 76, 76
9, 132810, Note_off_c, 0, 76, 64
9, 132817, Note_on_c, 0, 77, 85
9, 132911, Note_off_c, 0, 77, 64
9, 132949, Note_on_c, 0, 79, 95
9, 133052, Note_off_c, 0, 79, 64
9, 133201, Note_on_c, 0, 70, 100
9, 133307, Note_off_c, 0, 70, 64
9, 133429, Note_on_c, 0, 69, 85
9, 133627, Note_off_c, 0, 69, 64
9, 133691, Note_on_c, 0, 74, 93
9, 133801, Note_on_c, 0, 72, 82
9, 133818, Note_off_c, 0, 74, 64
9, 133895, Note_off_c, 0, 72, 64
9, 133910, Note_on_c, 0, 70, 82
9, 134007, Note_off_c, 0, 70, 64
9, 134015, Note_on_c, 0, 69, 80
9, 134108, Note_off_c, 0, 69, 64
9, 134132, Note_on_c, 0, 70, 68
9, 134250, Note_on_c, 0, 67, 82
9, 134257, Note_off_c, 0, 70, 64
9, 134348, Note_off_c, 0, 67, 64
9, 134377, Note_on_c, 0, 69, 80
9, 134480, Note_on_c, 0, 70, 78
9, 134488, Note_off_c, 0, 69, 64
9, 134598, Note_on_c, 0, 69, 82
9, 134615, Note_off_c, 0, 70, 64
9, 134699, Note_off_c, 0, 69, 64
9, 134716, Note_on_c, 0, 67, 95
9, 134816, Note_off_c, 0, 67, 64
9, 134845, Note_on_c, 0, 65, 87
9, 134953, Note_off_c, 0, 65, 64
9, 135100, Note_on_c, 0, 77, 82
9, 135193, Note_off_c, 0, 77, 64
9, 135208, Note_on_c, 0, 79, 82
9, 135304, Note_off_c, 0, 79, 64
9, 135337, Note_on_c, 0, 81, 100
9, 135462, Note_off_c, 0, 81, 64
9, 135577, Note_on_c, 0, 74, 85
9, 135673, Note_off_c, 0, 74, 64
9, 135690, Note_on_c, 0, 76, 82
9, 135792, Note_off_c, 0, 76, 64
9, 135817, Note_on_c, 0, 77, 100
9, 135923, Note_off_c, 0, 77, 64
9, 136050, Note_on_c, 0, 71, 82
9, 136148, Note_off_c, 0, 71, 64
9, 136160, Note_on_c, 0, 72, 82
9, 136256, Note_off_c, 0, 72, 64
9, 136290, Note_on_c, 0, 74, 95
9, 136379, Note_off_c, 0, 74, 64
9, 136542, Note_on_c, 0, 67, 74
9, 136626, Note_off_c, 0, 67, 64
9, 136792, Note_on_c, 0, 79, 93
9, 136878, Note_off_c, 0, 79, 64
9, 137024, Note_on_c, 0, 71, 87
9, 137106, Note_off_c, 0, 71, 64
9, 137269, Note_on_c, 0, 72, 87
9, 137512, Note_off_c, 0, 72, 64
9, 137600, Note_on_c, 0, 74, 82
9, 137663, Note_off_c, 0, 74, 64
9, 137744, Note_on_c, 0, 76, 93
9, 137809, Note_on_c, 0, 74, 102
9, 137819, Note_off_c, 0, 76, 64
9, 137867, Note_on_c, 0, 76, 66
9, 137879, Note_off_c, 0, 74, 64
9, 137932, Note_on_c, 0, 74, 82
9, 137948, Note_off_c, 0, 76, 64
9, 138040, Note_off_c, 0, 74, 64
9, 138076, Note_on_c, 0, 72, 85
9, 138148, Note_off_c, 0, 72, 64
9, 138220, Note_on_c, 0, 72, 98
9, 138642, Note_off_c, 0, 72, 64
9, 138642, End_track
10, 0, Start_track
10, 0, Title_t, "Violin2"
10, 0, Program_c, 1, 40
10, 0, Control_c, 1, 7, 100
10, 16569, Note_on_c, 1, 74, 87
10, 16670, Note_off_c, 1, 74, 64
10, 16808, Note_on_c, 1, 73, 82
10, 16931, Note_off_c, 1, 73, 64
10, 17036, Note_on_c, 1, 74, 91
10, 17120, Note_off_c, 1, 74, 64
10, 17264, Note_on_c, 1, 69, 87
10, 17382, Note_on_c, 1, 67, 80
10, 17392, Note_off_c, 1, 69, 64
10, 17488, Note_off_c, 1, 67, 64
10, 17490, Note_on_c, 1, 69, 78
10, 17600, Note_on_c, 1, 71, 82
10, 17610, Note_off_c, 1, 69, 64
10, 17706, Note_off_c, 1, 71, 64
10, 17732, Note_on_c, 1, 73, 95
10, 17872, Note_off_c, 1, 73, 64
10, 17972, Note_on_c, 1, 74, 78
10, 18080, Note_on_c, 1, 76, 82
10, 18088, Note_off_c, 1, 74, 64
10, 18174, Note_off_c, 1, 76, 64
10, 18210, Note_on_c, 1, 77, 102
10, 18421, Note_off_c, 1, 77, 64
10, 18457, Note_on_c, 1, 76, 80
10, 18551, Note_off_c, 1, 76, 64
10, 18558, Note_on_c, 1, 74, 80
10, 18642, Note_off_c, 1, 74, 64
10, 18685, Note_on_c, 1, 73, 95
10, 18815, Note_off_c, 1, 73, 64
10, 18954, Note_on_c, 1, 73, 87
10, 19044, Note_off_c, 1, 73, 64
10, 19187, Note_on_c, 1, 74, 80
10, 19285, Note_off_c, 1, 74, 64
10, 19420, Note_on_c, 1, 69, 72
10, 19499, Note_off_c, 1, 69, 64
10, 19662, Note_on_c, 1, 69, 74
10, 19784, Note_off_c, 1, 69, 64
10, 19895, Note_on_c, 1, 74, 80
10, 20008, Note_on_c, 1, 72, 82
10, 20010, Note_off_c, 1, 74, 64
10, 20092, Note_off_c, 1, 72, 64
10, 20150, Note_on_c, 1, 71, 93
10, 20257, Note_off_c, 1, 71, 64
10, 20267, Note_on_c, 1, 72, 68
10, 20360, Note_on_c, 1, 71, 72
10, 20392, Note_off_c, 1, 72, 64
10, 20478, Note_off_c, 1, 71, 64
10, 20490, Note_on_c, 1, 69, 74
10, 20562, Note_off_c, 1, 69, 64
10, 20617, Note_on_c, 1, 68, 87
10, 20761, Note_off_c, 1, 68, 64
10, 20874, Note_on_c, 1, 59, 85
10, 20966, Note_on_c, 1, 60, 82
10, 20982, Note_off_c, 1, 59, 64
10, 21066, Note_off_c, 1, 60, 64
10, 21102, Note_on_c, 1, 62, 89
10, 21227, Note_off_c, 1, 62, 64
10, 21356, Note_on_c, 1, 62, 78
10, 21462, Note_off_c, 1, 62, 64
10, 21479, Note_on_c, 1, 64, 66
10, 21577, Note_off_c, 1, 64, 64
10, 21618, Note_on_c, 1, 65, 87
10, 21735, Note_off_c, 1, 65, 64
10, 21829, Note_on_c, 1, 64, 82
10, 21931, Note_off_c, 1, 64, 64
10, 22060, Note_on_c, 1, 64, 64
10, 22192, Note_off_c, 1, 64, 64
10, 22304, Note_on_c, 1, 69, 87
10, 22396, Note_off_c, 1, 69, 64
10, 22520, Note_on_c, 1, 69, 85
10, 22578, Note_on_c, 1, 68, 100
10, 22600, Note_off_c, 1, 69, 64
10, 22643, Note_off_c, 1, 68, 64
10, 22645, Note_on_c, 1, 69, 72
10, 22703, Note_on_c, 1, 68, 80
10, 22734, Note_off_c, 1, 69, 64
10, 22826, Note_off_c, 1, 68, 64
10, 22900, Note_on_c, 1, 64, 74
10, 22962, Note_off_c, 1, 64, 64
10, 23039, Note_on_c, 1, 64, 87
10, 23550, Note_off_c, 1, 64, 64
10, 24205, Note_on_c, 1, 79, 89
10, 24313, Note_on_c, 1, 77, 82
10, 24316, Note_off_c, 1, 79, 64
10, 24421, Note_off_c, 1, 77, 64
10, 24438, Note_on_c, 1, 76, 66
10, 24551, Note_off_c, 1, 76, 64
10, 24556, Note_on_c, 1, 74, 80
10, 24654, Note_off_c, 1, 74, 64
10, 24673, Note_on_c, 1, 76, 68
10, 24781, Note_off_c, 1, 76, 64
10, 24791, Note_on_c, 1, 72, 80
10, 24870, Note_off_c, 1, 72, 64
10, 24913, Note_on_c, 1, 70, 89
10, 25026, Note_off_c, 1, 70, 64
10, 25048, Note_on_c, 1, 72, 80
10, 25168, Note_on_c, 1, 70, 64
10, 25175, Note_off_c, 1, 72, 64
10, 25278, Note_off_c, 1, 70, 64
10, 25288, Note_on_c, 1, 69, 76
10, 25401, Note_off_c, 1, 69, 64
10, 25420, Note_on_c, 1, 67, 80
10, 25532, Note_off_c, 1, 67, 64
10, 25669, Note_on_c, 1, 67, 85
10, 25775, Note_off_c, 1, 67, 64
10, 25914, Note_on_c, 1, 65, 80
10, 26032, Note_off_c, 1, 65, 64
10, 26147, Note_on_c, 1, 65, 87
10, 26257, Note_off_c, 1, 65, 64
10, 26387, Note_on_c, 1, 65, 78
10, 26509, Note_off_c, 1, 65, 64
10, 26620, Note_on_c, 1, 64, 72
10, 26749, Note_off_c, 1, 64, 64
10, 26869, Note_on_c, 1, 65, 85
10, 26994, Note_off_c, 1, 65, 64
10, 27092, Note_on_c, 1, 60, 80
10, 27203, Note_off_c, 1, 60, 64
10, 27332, Note_on_c, 1, 60, 93
10, 27440, Note_off_c, 1, 60, 64
10, 27546, Note_on_c, 1, 62, 80
10, 27647, Note_on_c, 1, 64, 78
10, 27676, Note_off_c, 1, 62, 64
10, 27760, Note_off_c, 1, 64, 64
10, 27798, Note_on_c, 1, 65, 85
10, 27959, Note_off_c, 1, 65, 64
10, 28050, Note_on_c, 1, 65, 76
10, 28175, Note_on_c, 1, 67, 76
10, 28184, Note_off_c, 1, 65, 64
10, 28278, Note_off_c, 1, 67, 64
10, 28290, Note_on_c, 1, 69, 85
10, 28417, Note_on_c, 1, 67, 91
10, 28430, Note_off_c, 1, 69, 64
10, 28524, Note_on_c, 1, 65, 80
10, 28537, Note_off_c, 1, 67, 64
10, 28652, Note_on_c, 1, 64, 82
10, 28657, Note_off_c, 1, 65, 64
10, 28768, Note_off_c, 1, 64, 64
10, 28775, Note_on_c, 1, 62, 82
10, 28873, Note_off_c, 1, 62, 64
10, 28883, Note_on_c, 1, 64, 64
10, 28996, Note_on_c, 1, 62, 70
10, 29008, Note_off_c, 1, 64, 64
10, 29095, Note_on_c, 1, 60, 64
10, 29104, Note_off_c, 1, 62, 64
10, 29241, Note_on_c, 1, 59, 82
10, 29262, Note_off_c, 1, 60, 64
10, 29308, Note_off_c, 1, 59, 64
10, 29488, Note_on_c, 1, 67, 82
10, 29588, Note_off_c, 1, 67, 64
10, 29730, Note_on_c, 1, 67, 80
10, 29857, Note_off_c, 1, 67, 64
10, 29965, Note_on_c, 1, 72, 85
10, 30095, Note_off_c, 1, 72, 64
10, 30205, Note_on_c, 1, 71, 80
10, 30337, Note_off_c, 1, 71, 64
10, 30458, Note_on_c, 1, 67, 85
10, 30551, Note_off_c, 1, 67, 64
10, 30702, Note_on_c, 1, 67, 87
10, 31211, Note_off_c, 1, 67, 64
10, 93372, Note_on_c, 1, 64, 85
10, 93463, Note_off_c, 1, 64, 64
10, 93468, Note_on_c, 1, 65, 85
10, 93550, Note_off_c, 1, 65, 64
10, 93593, Note_on_c, 1, 67, 98
10, 93679, Note_off_c, 1, 67, 64
10, 93828, Note_on_c, 1, 59, 78
10, 93927, Note_off_c, 1, 59, 64
10, 94079, Note_on_c, 1, 60, 89
10, 94174, Note_on_c, 1, 59, 87
10, 94179, Note_off_c, 1, 60, 64
10, 94287, Note_on_c, 1, 60, 85
10, 94291, Note_off_c, 1, 59, 64
10, 94392, Note_off_c, 1, 60, 64
10, 94399, Note_on_c, 1, 62, 82
10, 94491, Note_off_c, 1, 62, 64
10, 94529, Note_on_c, 1, 64, 95
10, 94642, Note_off_c, 1, 64, 64
10, 94783, Note_on_c, 1, 65, 78
10, 94863, Note_off_c, 1, 65, 64
10, 95028, Note_on_c, 1, 67, 100
10, 95127, Note_off_c, 1, 67, 64
10, 95268, Note_on_c, 1, 71, 89
10, 95357, Note_off_c, 1, 71, 64
10, 95503, Note_on_c, 1, 72, 100
10, 95587, Note_off_c, 1, 72, 64
10, 95734, Note_on_c, 1, 72, 95
10, 95825, Note_off_c, 1, 72, 64
10, 95988, Note_on_c, 1, 71, 95
10, 96089, Note_off_c, 1, 71, 64
10, 96243, Note_on_c, 1, 72, 87
10, 96331, Note_off_c, 1, 72, 64
10, 96468, Note_on_c, 1, 74, 98
10, 96562, Note_off_c, 1, 74, 64
10, 96708, Note_on_c, 1, 72, 82
10, 96797, Note_off_c, 1, 72, 64
10, 96963, Note_on_c, 1, 74, 91
10, 97183, Note_off_c, 1, 74, 64
10, 97659, Note_on_c, 1, 67, 85
10, 97738, Note_off_c, 1, 67, 64
10, 97755, Note_on_c, 1, 69, 87
10, 97834, Note_off_c, 1, 69, 64
10, 97887, Note_on_c, 1, 71, 95
10, 98115, Note_off_c, 1, 71, 64
10, 98621, Note_on_c, 1, 69, 91
10, 98710, Note_off_c, 1, 69, 64
10, 98859, Note_on_c, 1, 67, 87
10, 98957, Note_off_c, 1, 67, 64
10, 99103, Note_on_c, 1, 67, 93
10, 99192, Note_off_c, 1, 67, 64
10, 99334, Note_on_c, 1, 67, 98
10, 99423, Note_off_c, 1, 67, 64
10, 99564, Note_on_c, 1, 66, 100
10, 99651, Note_off_c, 1, 66, 64
10, 99823, Note_on_c, 1, 62, 102
10, 100315, Note_off_c, 1, 62, 64
10, 101028, Note_on_c, 1, 64, 89
10, 101110, Note_off_c, 1, 64, 64
10, 101136, Note_on_c, 1, 65, 87
10, 101220, Note_off_c, 1, 65, 64
10, 101251, Note_on_c, 1, 67, 87
10, 101343, Note_off_c, 1, 67, 64
10, 101494, Note_on_c, 1, 59, 87
10, 101602, Note_off_c, 1, 59, 64
10, 101743, Note_on_c, 1, 60, 95
10, 101859, Note_on_c, 1, 59, 95
10, 101866, Note_off_c, 1, 60, 64
10, 101964, Note_off_c, 1, 59, 64
10, 101964, Note_on_c, 1, 60, 82
10, 102077, Note_on_c, 1, 62, 87
10, 102082, Note_off_c, 1, 60, 64
10, 102180, Note_off_c, 1, 62, 64
10, 102207, Note_on_c, 1, 64, 100
10, 102327, Note_off_c, 1, 64, 64
10, 102461, Note_on_c, 1, 65, 89
10, 102574, Note_off_c, 1, 65, 64
10, 102679, Note_on_c, 1, 67, 82
10, 102814, Note_off_c, 1, 67, 64
10, 102922, Note_on_c, 1, 71, 87
10, 103030, Note_off_c, 1, 71, 64
10, 103167, Note_on_c, 1, 72, 89
10, 103279, Note_off_c, 1, 72, 64
10, 103409, Note_on_c, 1, 72, 100
10, 103519, Note_off_c, 1, 72, 64
10, 103656, Note_on_c, 1, 71, 85
10, 103798, Note_off_c, 1, 71, 64
10, 103889, Note_on_c, 1, 72, 85
10, 104010, Note_off_c, 1, 72, 64
10, 104131, Note_on_c, 1, 74, 89
10, 104239, Note_off_c, 1, 74, 64
10, 104369, Note_on_c, 1, 72, 85
10, 104472, Note_off_c, 1, 72, 64
10, 104616, Note_on_c, 1, 74, 98
10, 104815, Note_off_c, 1, 74, 64
10, 105336, Note_on_c, 1, 67, 82
10, 105430, Note_off_c, 1, 67, 64
10, 105430, Note_on_c, 1, 69, 91
10, 105514, Note_off_c, 1, 69, 64
10, 105557, Note_on_c, 1, 71, 91
10, 105775, Note_off_c, 1, 71, 64
10, 106292, Note_on_c, 1, 69, 85
10, 106399, Note_off_c, 1, 69, 64
10, 106546, Note_on_c, 1, 67, 82
10, 106659, Note_off_c, 1, 67, 64
10, 106786, Note_on_c, 1, 67, 91
10, 106901, Note_off_c, 1, 67, 64
10, 107028, Note_on_c, 1, 67, 98
10, 107122, Note_off_c, 1, 67, 64
10, 107261, Note_on_c, 1, 66, 100
10, 107347, Note_off_c, 1, 66, 64
10, 107503, Note_on_c, 1, 62, 105
10, 108017, Note_off_c, 1, 62, 64
10, 124089, Note_on_c, 1, 74, 87
10, 124190, Note_off_c, 1, 74, 64
10, 124328, Note_on_c, 1, 73, 82
10, 124451, Note_off_c, 1, 73, 64
10, 124556, Note_on_c, 1, 74, 91
10, 124640, Note_off_c, 1, 74, 64
10, 124784, Note_on_c, 1, 69, 87
10, 124902, Note_on_c, 1, 67, 80
10, 124912, Note_off_c, 1, 69, 64
10, 125008, Note_off_c, 1, 67, 64
10, 125010, Note_on_c, 1, 69, 78
10, 125120, Note_on_c, 1, 71, 82
10, 125130, Note_off_c, 1, 69, 64
10, 125226, Note_off_c, 1, 71, 64
10, 125252, Note_on_c, 1, 73, 95
10, 125392, Note_off_c, 1, 73, 64
10, 125492, Note_on_c, 1, 74, 78
10, 125600, Note_on_c, 1, 76, 82
10, 125608, Note_off_c, 1, 74, 64
10, 125694, Note_off_c, 1, 76, 64
10, 125730, Note_on_c, 1, 77, 102
10, 125941, Note_off_c, 1, 77, 64
10, 125977, Note_on_c, 1, 76, 80
10, 126071, Note_off_c, 1, 76, 64
10, 126078, Note_on_c, 1, 74, 80
10, 126162, Note_off_c, 1, 74, 64
10, 126205, Note_on_c, 1, 73, 95
10, 126335, Note_off_c, 1, 73, 64
10, 126474, Note_on_c, 1, 73, 87
10, 126564, Note_off_c, 1, 73, 64
10, 126707, Note_on_c, 1, 74, 80
10, 126805, Note_off_c, 1, 74, 64
10, 126940, Note_on_c, 1, 69, 72
10, 127019, Note_off_c, 1, 69, 64
10, 127182, Note_on_c, 1, 69, 74
10, 127304, Note_off_c, 1, 69, 64
10, 127415, Note_on_c, 1, 74, 80
10, 127528, Note_on_c, 1, 72, 82
10, 127530, Note_off_c, 1, 74, 64
10, 127612, Note_off_c, 1, 72, 64
10, 127670, Note_on_c, 1, 71, 93
10, 127777, Note_off_c, 1, 71, 64
10, 127787, Note_on_c, 1, 72, 68
10, 127880, Note_on_c, 1, 71, 72
10, 127912, Note_off_c, 1, 72, 64
10, 127998, Note_off_c, 1, 71, 64
10, 128010, Note_on_c, 1, 69, 74
10, 128082, Note_off_c, 1, 69, 64
10, 128137, Note_on_c, 1, 68, 87
10, 128281, Note_off_c, 1, 68, 64
10, 128394, Note_on_c, 1, 59, 85
10, 128486, Note_on_c, 1, 60, 82
10, 128502, Note_off_c, 1, 59, 64
10, 128586, Note_off_c, 1, 60, 64
10, 128622, Note_on_c, 1, 62, 89
10, 128747, Note_off_c, 1, 62, 64
10, 128876, Note_on_c, 1, 62, 78
10, 128982, Note_off_c, 1, 62, 64
10, 128999, Note_on_c, 1, 64, 66
10, 129097, Note_off_c, 1, 64, 64
10, 129138, Note_on_c, 1, 65, 87
10, 129255, Note_off_c, 1, 65, 64
10, 129349, Note_on_c, 1, 64, 82
10, 129451, Note_off_c, 1, 64, 64
10, 129580, Note_on_c, 1, 64, 64
10, 129712, Note_off_c, 1, 64, 64
10, 129824, Note_on_c, 1, 69, 87
10, 129916, Note_off_c, 1, 69, 64
10, 130040, Note_on_c, 1, 69, 85
10, 130098, Note_on_c, 1, 68, 100
10, 130120, Note_off_c, 1, 69, 64
10, 130163, Note_off_c, 1, 68, 64
10, 130165, Note_on_c, 1, 69, 72
10, 130223, Note_on_c, 1, 68, 80
10, 130254, Note_off_c, 1, 69, 64
10, 130346, Note_off_c, 1, 68, 64
10, 130420, Note_on_c, 1, 64, 74
10, 130482, Note_off_c, 1, 64, 64
10, 130559, Note_on_c, 1, 64, 87
10, 131070, Note_off_c, 1, 64, 64
10, 131725, Note_on_c, 1, 79, 89
10, 131833, Note_on_c, 1, 77, 82
10, 131836, Note_off_c, 1, 79, 64
10, 131941, Note_off_c, 1, 77, 64
10, 131958, Note_on_c, 1, 76, 66
10, 132071, Note_off_c, 1, 76, 64
10, 132076, Note_on_c, 1, 74, 80
10, 132174, Note_off_c, 1, 74, 64
10, 132193, Note_on_c, 1, 76, 68
10, 132301, Note_off_c, 1, 76, 64
10, 132311, Note_on_c, 1, 72, 80
10, 132390, Note_off_c, 1, 72, 64
10, 132433, Note_on_c, 1, 70, 89
10, 132546, Note_off_c, 1, 70, 64
10, 132568, Note_on_c, 1, 72, 80
10, 132688, Note_on_c, 1, 70, 64
10, 132695, Note_off_c, 1, 72, 64
10, 132798, Note_off_c, 1, 70, 64
10, 132808, Note_on_c, 1, 69, 76
10, 132921, Note_off_c, 1, 69, 64
10, 132940, Note_on_c, 1, 67, 80
10, 133052, Note_off_c, 1, 67, 64
10, 133189, Note_on_c, 1, 67, 85
10, 133295, Note_off_c, 1, 67, 64
10, 133434, Note_on_c, 1, 65, 80
10, 133552, Note_off_c, 1, 65, 64
10, 133667, Note_on_c, 1, 65, 87
10, 133777, Note_off_c, 1, 65, 64
10, 133907, Note_on_c, 1, 65, 78
10, 134029, Note_off_c, 1, 65, 64
10, 134140, Note_on_c, 1, 64, 72
10, 134269, Note_off_c, 1, 64, 64
10, 134389, Note_on_c, 1, 65, 85
10, 134514, Note_off_c, 1, 65, 64
10, 134612, Note_on_c, 1, 60, 80
10, 134723, Note_off_c, 1, 60, 64
10, 134852, Note_on_c, 1, 60, 93
10, 134960, Note_off_c, 1, 60, 64
10, 135066, Note_on_c, 1, 62, 80
10, 135167, Note_on_c, 1, 64, 78
10, 135196, Note_off_c, 1, 62, 64
10, 135280, Note_off_c, 1, 64, 64
10, 135318, Note_on_c, 1, 65, 85
10, 135479, Note_off_c, 1, 65, 64
10, 135570, Note_on_c, 1, 65, 76
10, 135695, Note_on_c, 1, 67, 76
10, 135704, Note_off_c, 1, 65, 64
10, 135798, Note_off_c, 1, 67, 64
10, 135810, Note_on_c, 1, 69, 85
10, 135937, Note_on_c, 1, 67, 91
10, 135950, Note_off_c, 1, 69, 64
10, 136044, Note_on_c, 1, 65, 80
10, 136057, Note_off_c, 1, 67, 64
10, 136172, Note_on_c, 1, 64, 82
10, 136177, Note_off_c, 1, 65, 64
10, 136288, Note_off_c, 1, 64, 64
10, 136295, Note_on_c, 1, 62, 82
10, 136393, Note_off_c, 1, 62, 64
10, 136403, Note_on_c, 1, 64, 64
10, 136516, Note_on_c, 1, 62, 70
10, 136528, Note_off_c, 1, 64, 64
10, 136615, Note_on_c, 1, 60, 64
10, 136624, Note_off_c, 1, 62, 64
10, 136761, Note_on_c, 1, 59, 82
10, 136782, Note_off_c, 1, 60, 64
10, 136828, Note_off_c, 1, 59, 64
10, 137008, Note_on_c, 1, 67, 82
10, 137108, Note_off_c, 1, 67, 64
10, 137250, Note_on_c, 1, 67, 80
10, 137377, Note_off_c, 1, 67, 64
10, 137485, Note_on_c, 1, 72, 85
10, 137615, Note_off_c, 1, 72, 64
10, 137725, Note_on_c, 1, 71, 80
10, 137857, Note_off_c, 1, 71, 64
10, 137978, Note_on_c, 1, 67, 85
10, 138071, Note_off_c, 1, 67, 64
10, 138222, Note_on_c, 1, 67, 87
10, 138731, Note_off_c, 1, 67, 64
10, 138731, End_track
11, 0, Start_track
11, 0, Title_t, "Viola"
11, 0, Program_c, 2, 41
11, 0, Control_c, 2, 7, 100
11, 16556, Note_on_c, 2, 71, 89
11, 16640, Note_off_c, 2, 71, 64
11, 16655, Note_on_c, 2, 69, 80
11, 16776, Note_off_c, 2, 69, 64
11, 16782, Note_on_c, 2, 67, 89
11, 16912, Note_off_c, 2, 67, 64
11, 17015, Note_on_c, 2, 65, 76
11, 17120, Note_off_c, 2, 65, 64
11, 17257, Note_on_c, 2, 64, 70
11, 17372, Note_off_c, 2, 64, 64
11, 17380, Note_on_c, 2, 62, 68
11, 17488, Note_on_c, 2, 64, 87
11, 17509, Note_off_c, 2, 62, 64
11, 17586, Note_on_c, 2, 65, 74
11, 17596, Note_off_c, 2, 64, 64
11, 17704, Note_off_c, 2, 65, 64
11, 17730, Note_on_c, 2, 64, 95
11, 17845, Note_off_c, 2, 64, 64
11, 17982, Note_on_c, 2, 57, 70
11, 18095, Note_off_c, 2, 57, 64
11, 18232, Note_on_c, 2, 62, 87
11, 18342, Note_off_c, 2, 62, 64
11, 18460, Note_on_c, 2, 67, 76
11, 18546, Note_off_c, 2, 67, 64
11, 18712, Note_on_c, 2, 64, 80
11, 18791, Note_off_c, 2, 64, 64
11, 18949, Note_on_c, 2, 69, 80
11, 19057, Note_off_c, 2, 69, 64
11, 19199, Note_on_c, 2, 69, 85
11, 19310, Note_on_c, 2, 70, 64
11, 19324, Note_off_c, 2, 69, 64
11, 19408, Note_on_c, 2, 69, 68
11, 19446, Note_off_c, 2, 70, 64
11, 19518, Note_on_c, 2, 67, 74
11, 19523, Note_off_c, 2, 69, 64
11, 19607, Note_off_c, 2, 67, 64
11, 19662, Note_on_c, 2, 65, 95
11, 19760, Note_off_c, 2, 65, 64
11, 19775, Note_on_c, 2, 67, 76
11, 19902, Note_off_c, 2, 67, 64
11, 19902, Note_on_c, 2, 65, 63
11, 19998, Note_off_c, 2, 65, 64
11, 19998, Note_on_c, 2, 64, 78
11, 20111, Note_off_c, 2, 64, 64
11, 20140, Note_on_c, 2, 62, 82
11, 20245, Note_off_c, 2, 62, 64
11, 20382, Note_on_c, 2, 62, 82
11, 20485, Note_off_c, 2, 62, 64
11, 20490, Note_on_c, 2, 64, 72
11, 20579, Note_off_c, 2, 64, 64
11, 20624, Note_on_c, 2, 65, 85
11, 20737, Note_off_c, 2, 65, 64
11, 20843, Note_on_c, 2, 59, 70
11, 20948, Note_on_c, 2, 60, 70
11, 20975, Note_off_c, 2, 59, 64
11, 21071, Note_off_c, 2, 60, 64
11, 21095, Note_on_c, 2, 62, 70
11, 21217, Note_off_c, 2, 62, 64
11, 21340, Note_on_c, 2, 62, 85
11, 21438, Note_on_c, 2, 64, 85
11, 21455, Note_off_c, 2, 62, 64
11, 21534, Note_off_c, 2, 64, 64
11, 21570, Note_on_c, 2, 65, 76
11, 21668, Note_off_c, 2, 65, 64
11, 21808, Note_on_c, 2, 59, 70
11, 21923, Note_off_c, 2, 59, 64
11, 22074, Note_on_c, 2, 60, 72
11, 22184, Note_off_c, 2, 60, 64
11, 22324, Note_on_c, 2, 64, 82
11, 22420, Note_off_c, 2, 64, 64
11, 22549, Note_on_c, 2, 64, 87
11, 22643, Note_off_c, 2, 64, 64
11, 22777, Note_on_c, 2, 59, 78
11, 22868, Note_off_c, 2, 59, 64
11, 23032, Note_on_c, 2, 60, 89
11, 23543, Note_off_c, 2, 60, 64
11, 24203, Note_on_c, 2, 64, 80
11, 24280, Note_on_c, 2, 65, 70
11, 24320, Note_off_c, 2, 64, 64
11, 24395, Note_off_c, 2, 65, 64
11, 24428, Note_on_c, 2, 67, 82
11, 24560, Note_off_c, 2, 67, 64
11, 24688, Note_on_c, 2, 67, 78
11, 24800, Note_on_c, 2, 69, 76
11, 24805, Note_off_c, 2, 67, 64
11, 24911, Note_off_c, 2, 69, 64
11, 24928, Note_on_c, 2, 70, 78
11, 25038, Note_on_c, 2, 69, 68
11, 25067, Note_off_c, 2, 70, 64
11, 25151, Note_off_c, 2, 69, 64
11, 25158, Note_on_c, 2, 67, 68
11, 25256, Note_off_c, 2, 67, 64
11, 25285, Note_on_c, 2, 65, 82
11, 25367, Note_off_c, 2, 65, 64
11, 25420, Note_on_c, 2, 64, 87
11, 25544, Note_off_c, 2, 64, 64
11, 25668, Note_on_c, 2, 60, 80
11, 25770, Note_off_c, 2, 60, 64
11, 25907, Note_on_c, 2, 60, 89
11, 26116, Note_off_c, 2, 60, 64
11, 26159, Note_on_c, 2, 58, 80
11, 26248, Note_on_c, 2, 60, 85
11, 26263, Note_off_c, 2, 58, 64
11, 26364, Note_off_c, 2, 60, 64
11, 26380, Note_on_c, 2, 62, 87
11, 26504, Note_off_c, 2, 62, 64
11, 26629, Note_on_c, 2, 60, 80
11, 26742, Note_off_c, 2, 60, 64
11, 26864, Note_on_c, 2, 60, 87
11, 26977, Note_on_c, 2, 62, 82
11, 26994, Note_off_c, 2, 60, 64
11, 27090, Note_on_c, 2, 60, 85
11, 27097, Note_off_c, 2, 62, 64
11, 27188, Note_off_c, 2, 60, 64
11, 27196, Note_on_c, 2, 58, 76
11, 27292, Note_off_c, 2, 58, 64
11, 27337, Note_on_c, 2, 57, 91
11, 27580, Note_off_c, 2, 57, 64
11, 28549, Note_on_c, 2, 55, 82
11, 28624, Note_on_c, 2, 57, 80
11, 28657, Note_off_c, 2, 55, 64
11, 28729, Note_off_c, 2, 57, 64
11, 28760, Note_on_c, 2, 59, 89
11, 28883, Note_off_c, 2, 59, 64
11, 29012, Note_on_c, 2, 59, 72
11, 29108, Note_on_c, 2, 60, 66
11, 29130, Note_off_c, 2, 59, 64
11, 29216, Note_off_c, 2, 60, 64
11, 29255, Note_on_c, 2, 62, 82
11, 29375, Note_off_c, 2, 62, 64
11, 29502, Note_on_c, 2, 62, 80
11, 29617, Note_off_c, 2, 62, 64
11, 29757, Note_on_c, 2, 64, 85
11, 29869, Note_off_c, 2, 64, 64
11, 29982, Note_on_c, 2, 69, 78
11, 30109, Note_off_c, 2, 69, 64
11, 30217, Note_on_c, 2, 67, 85
11, 30335, Note_off_c, 2, 67, 64
11, 30455, Note_on_c, 2, 62, 85
11, 30558, Note_off_c, 2, 62, 64
11, 30721, Note_on_c, 2, 64, 87
11, 31187, Note_off_c, 2, 64, 64
11, 93346, Note_on_c, 2, 55, 87
11, 93433, Note_off_c, 2, 55, 64
11, 93580, Note_on_c, 2, 60, 80
11, 93715, Note_off_c, 2, 60, 64
11, 93821, Note_on_c, 2, 62, 78
11, 93934, Note_off_c, 2, 62, 64
11, 94059, Note_on_c, 2, 64, 91
11, 94248, Note_off_c, 2, 64, 64
11, 94287, Note_on_c, 2, 67, 85
11, 94383, Note_off_c, 2, 67, 64
11, 94402, Note_on_c, 2, 65, 95
11, 94484, Note_off_c, 2, 65, 64
11, 94527, Note_on_c, 2, 64, 100
11, 94642, Note_off_c, 2, 64, 64
11, 94781, Note_on_c, 2, 60, 102
11, 94887, Note_off_c, 2, 60, 64
11, 95007, Note_on_c, 2, 60, 87
11, 95127, Note_off_c, 2, 60, 64
11, 95237, Note_on_c, 2, 65, 76
11, 95371, Note_off_c, 2, 65, 64
11, 95479, Note_on_c, 2, 64, 85
11, 95592, Note_off_c, 2, 64, 64
11, 95710, Note_on_c, 2, 60, 89
11, 95820, Note_off_c, 2, 60, 64
11, 95957, Note_on_c, 2, 67, 85
11, 96072, Note_off_c, 2, 67, 64
11, 96216, Note_on_c, 2, 66, 82
11, 96322, Note_off_c, 2, 66, 64
11, 96440, Note_on_c, 2, 67, 85
11, 96555, Note_off_c, 2, 67, 64
11, 96672, Note_on_c, 2, 67, 85
11, 96759, Note_off_c, 2, 67, 64
11, 96783, Note_on_c, 2, 69, 89
11, 96855, Note_off_c, 2, 69, 64
11, 96910, Note_on_c, 2, 71, 91
11, 97119, Note_off_c, 2, 71, 64
11, 97661, Note_on_c, 2, 59, 85
11, 97755, Note_off_c, 2, 59, 64
11, 97908, Note_on_c, 2, 64, 91
11, 98112, Note_off_c, 2, 64, 64
11, 98621, Note_on_c, 2, 57, 82
11, 98715, Note_off_c, 2, 57, 64
11, 98875, Note_on_c, 2, 62, 85
11, 98986, Note_off_c, 2, 62, 64
11, 99100, Note_on_c, 2, 64, 80
11, 99211, Note_off_c, 2, 64, 64
11, 99348, Note_on_c, 2, 62, 80
11, 99430, Note_off_c, 2, 62, 64
11, 99579, Note_on_c, 2, 60, 93
11, 99667, Note_off_c, 2, 60, 64
11, 99831, Note_on_c, 2, 59, 98
11, 100325, Note_off_c, 2, 59, 64
11, 101023, Note_on_c, 2, 55, 87
11, 101124, Note_off_c, 2, 55, 64
11, 101259, Note_on_c, 2, 60, 82
11, 101388, Note_off_c, 2, 60, 64
11, 101496, Note_on_c, 2, 62, 78
11, 101599, Note_off_c, 2, 62, 64
11, 101753, Note_on_c, 2, 64, 89
11, 101938, Note_off_c, 2, 64, 64
11, 101979, Note_on_c, 2, 67, 80
11, 102079, Note_off_c, 2, 67, 64
11, 102091, Note_on_c, 2, 65, 87
11, 102171, Note_off_c, 2, 65, 64
11, 102209, Note_on_c, 2, 64, 102
11, 102355, Note_off_c, 2, 64, 64
11, 102461, Note_on_c, 2, 60, 87
11, 102552, Note_off_c, 2, 60, 64
11, 102699, Note_on_c, 2, 60, 82
11, 102811, Note_off_c, 2, 60, 64
11, 102915, Note_on_c, 2, 65, 80
11, 103032, Note_off_c, 2, 65, 64
11, 103167, Note_on_c, 2, 64, 82
11, 103260, Note_off_c, 2, 64, 64
11, 103405, Note_on_c, 2, 60, 85
11, 103507, Note_off_c, 2, 60, 64
11, 103661, Note_on_c, 2, 67, 82
11, 103769, Note_off_c, 2, 67, 64
11, 103908, Note_on_c, 2, 66, 80
11, 104016, Note_off_c, 2, 66, 64
11, 104140, Note_on_c, 2, 67, 82
11, 104247, Note_off_c, 2, 67, 64
11, 104371, Note_on_c, 2, 67, 78
11, 104453, Note_off_c, 2, 67, 64
11, 104472, Note_on_c, 2, 69, 72
11, 104549, Note_off_c, 2, 69, 64
11, 104602, Note_on_c, 2, 71, 89
11, 104827, Note_off_c, 2, 71, 64
11, 105341, Note_on_c, 2, 59, 80
11, 105426, Note_off_c, 2, 59, 64
11, 105600, Note_on_c, 2, 64, 95
11, 105826, Note_off_c, 2, 64, 64
11, 106299, Note_on_c, 2, 57, 80
11, 106390, Note_off_c, 2, 57, 64
11, 106560, Note_on_c, 2, 62, 89
11, 106666, Note_off_c, 2, 62, 64
11, 106795, Note_on_c, 2, 64, 80
11, 106901, Note_off_c, 2, 64, 64
11, 107038, Note_on_c, 2, 62, 82
11, 107119, Note_off_c, 2, 62, 64
11, 107275, Note_on_c, 2, 60, 93
11, 107364, Note_off_c, 2, 60, 64
11, 107532, Note_on_c, 2, 59, 98
11, 107971, Note_off_c, 2, 59, 64
11, 124076, Note_on_c, 2, 71, 89
11, 124160, Note_off_c, 2, 71, 64
11, 124175, Note_on_c, 2, 69, 80
11, 124296, Note_off_c, 2, 69, 64
11, 124302, Note_on_c, 2, 67, 89
11, 124432, Note_off_c, 2, 67, 64
11, 124535, Note_on_c, 2, 65, 76
11, 124640, Note_off_c, 2, 65, 64
11, 124777, Note_on_c, 2, 64, 70
11, 124892, Note_off_c, 2, 64, 64
11, 124900, Note_on_c, 2, 62, 68
11, 125008, Note_on_c, 2, 64, 87
11, 125029, Note_off_c, 2, 62, 64
11, 125106, Note_on_c, 2, 65, 74
11, 125116, Note_off_c, 2, 64, 64
11, 125224, Note_off_c, 2, 65, 64
11, 125250, Note_on_c, 2, 64, 95
11, 125365, Note_off_c, 2, 64, 64
11, 125502, Note_on_c, 2, 57, 70
11, 125615, Note_off_c, 2, 57, 64
11, 125752, Note_on_c, 2, 62, 87
11, 125862, Note_off_c, 2, 62, 64
11, 125980, Note_on_c, 2, 67, 76
11, 126066, Note_off_c, 2, 67, 64
11, 126232, Note_on_c, 2, 64, 80
11, 126311, Note_off_c, 2, 64, 64
11, 126469, Note_on_c, 2, 69, 80
11, 126577, Note_off_c, 2, 69, 64
11, 126719, Note_on_c, 2, 69, 85
11, 126830, Note_on_c, 2, 70, 64
11, 126844, Note_off_c, 2, 69, 64
11, 126928, Note_on_c, 2, 69, 68
11, 126966, Note_off_c, 2, 70, 64
11, 127038, Note_on_c, 2, 67, 74
11, 127043, Note_off_c, 2, 69, 64
11, 127127, Note_off_c, 2, 67, 64
11, 127182, Note_on_c, 2, 65, 95
11, 127280, Note_off_c, 2, 65, 64
11, 127295, Note_on_c, 2, 67, 76
11, 127422, Note_off_c, 2, 67, 64
11, 127422, Note_on_c, 2, 65, 63
11, 127518, Note_off_c, 2, 65, 64
11, 127518, Note_on_c, 2, 64, 78
11, 127631, Note_off_c, 2, 64, 64
11, 127660, Note_on_c, 2, 62, 82
11, 127765, Note_off_c, 2, 62, 64
11, 127902, Note_on_c, 2, 62, 82
11, 128005, Note_off_c, 2, 62, 64
11, 128010, Note_on_c, 2, 64, 72
11, 128099, Note_off_c, 2, 64, 64
11, 128144, Note_on_c, 2, 65, 85
11, 128257, Note_off_c, 2, 65, 64
11, 128363, Note_on_c, 2, 59, 70
11, 128468, Note_on_c, 2, 60, 70
11, 128495, Note_off_c, 2, 59, 64
11, 128591, Note_off_c, 2, 60, 64
11, 128615, Note_on_c, 2, 62, 70
11, 128737, Note_off_c, 2, 62, 64
11, 128860, Note_on_c, 2, 62, 85
11, 128958, Note_on_c, 2, 64, 85
11, 128975, Note_off_c, 2, 62, 64
11, 129054, Note_off_c, 2, 64, 64
11, 129090, Note_on_c, 2, 65, 76
11, 129188, Note_off_c, 2, 65, 64
11, 129328, Note_on_c, 2, 59, 70
11, 129443, Note_off_c, 2, 59, 64
11, 129594, Note_on_c, 2, 60, 72
11, 129704, Note_off_c, 2, 60, 64
11, 129844, Note_on_c, 2, 64, 82
11, 129940, Note_off_c, 2, 64, 64
11, 130069, Note_on_c, 2, 64, 87
11, 130163, Note_off_c, 2, 64, 64
11, 130297, Note_on_c, 2, 59, 78
11, 130388, Note_off_c, 2, 59, 64
11, 130552, Note_on_c, 2, 60, 89
11, 131063, Note_off_c, 2, 60, 64
11, 131723, Note_on_c, 2, 64, 80
11, 131800, Note_on_c, 2, 65, 70
11, 131840, Note_off_c, 2, 64, 64
11, 131915, Note_off_c, 2, 65, 64
11, 131948, Note_on_c, 2, 67, 82
11, 132080, Note_off_c, 2, 67, 64
11, 132208, Note_on_c, 2, 67, 78
11, 132320, Note_on_c, 2, 69, 76
11, 132325, Note_off_c, 2, 67, 64
11, 132431, Note_off_c, 2, 69, 64
11, 132448, Note_on_c, 2, 70, 78
11, 132558, Note_on_c, 2, 69, 68
11, 132587, Note_off_c, 2, 70, 64
11, 132671, Note_off_c, 2, 69, 64
11, 132678, Note_on_c, 2, 67, 68
11, 132776, Note_off_c, 2, 67, 64
11, 132805, Note_on_c, 2, 65, 82
11, 132887, Note_off_c, 2, 65, 64
11, 132940, Note_on_c, 2, 64, 87
11, 133064, Note_off_c, 2, 64, 64
11, 133188, Note_on_c, 2, 60, 80
11, 133290, Note_off_c, 2, 60, 64
11, 133427, Note_on_c, 2, 60, 89
11, 133636, Note_off_c, 2, 60, 64
11, 133679, Note_on_c, 2, 58, 80
11, 133768, Note_on_c, 2, 60, 85
11, 133783, Note_off_c, 2, 58, 64
11, 133884, Note_off_c, 2, 60, 64
11, 133900, Note_on_c, 2, 62, 87
11, 134024, Note_off_c, 2, 62, 64
11, 134149, Note_on_c, 2, 60, 80
11, 134262, Note_off_c, 2, 60, 64
11, 134384, Note_on_c, 2, 60, 87
11, 134497, Note_on_c, 2, 62, 82
11, 134514, Note_off_c, 2, 60, 64
11, 134610, Note_on_c, 2, 60, 85
11, 134617, Note_off_c, 2, 62, 64
11, 134708, Note_off_c, 2, 60, 64
11, 134716, Note_on_c, 2, 58, 76
11, 134812, Note_off_c, 2, 58, 64
11, 134857, Note_on_c, 2, 57, 91
11, 135100, Note_off_c, 2, 57, 64
11, 136069, Note_on_c, 2, 55, 82
11, 136144, Note_on_c, 2, 57, 80
11, 136177, Note_off_c, 2, 55, 64
11, 136249, Note_off_c, 2, 57, 64
11, 136280, Note_on_c, 2, 59, 89
11, 136403, Note_off_c, 2, 59, 64
11, 136532, Note_on_c, 2, 59, 72
11, 136628, Note_on_c, 2, 60, 66
11, 136650, Note_off_c, 2, 59, 64
11, 136736, Note_off_c, 2, 60, 64
11, 136775, Note_on_c, 2, 62, 82
11, 136895, Note_off_c, 2, 62, 64
11, 137022, Note_on_c, 2, 62, 80
11, 137137, Note_off_c, 2, 62, 64
11, 137277, Note_on_c, 2, 64, 85
11, 137389, Note_off_c, 2, 64, 64
11, 137502, Note_on_c, 2, 69, 78
11, 137629, Note_off_c, 2, 69, 64
11, 137737, Note_on_c, 2, 67, 85
11, 137855, Note_off_c, 2, 67, 64
11, 137975, Note_on_c, 2, 62, 85
11, 138078, Note_off_c, 2, 62, 64
11, 138241, Note_on_c, 2, 64, 87
11, 138707, Note_off_c, 2, 64, 64
11, 138707, End_track
12, 0, Start_track
12, 0, Title_t, "Cello"
12, 0, Program_c, 3, 42
12, 0, Control_c, 3, 7, 100
12, 16561, Note_on_c, 3, 55, 89
12, 16652, Note_off_c, 3, 55, 64
12, 16669, Note_on_c, 3, 53, 80
12, 16765, Note_off_c, 3, 53, 64
12, 16787, Note_on_c, 3, 52, 85
12, 16880, Note_off_c, 3, 52, 64
12, 17034, Note_on_c, 3, 55, 87
12, 17128, Note_off_c, 3, 55, 64
12, 17281, Note_on_c, 3, 57, 82
12, 17380, Note_off_c, 3, 57, 64
12, 17521, Note_on_c, 3, 45, 85
12, 17624, Note_off_c, 3, 45, 64
12, 17759, Note_on_c, 3, 57, 80
12, 17848, Note_off_c, 3, 57, 64
12, 17982, Note_on_c, 3, 55, 70
12, 18083, Note_off_c, 3, 55, 64
12, 18236, Note_on_c, 3, 53, 85
12, 18340, Note_off_c, 3, 53, 64
12, 18452, Note_on_c, 3, 55, 78
12, 18556, Note_off_c, 3, 55, 64
12, 18700, Note_on_c, 3, 57, 87
12, 18779, Note_off_c, 3, 57, 64
12, 18930, Note_on_c, 3, 45, 80
12, 19028, Note_off_c, 3, 45, 64
12, 19180, Note_on_c, 3, 50, 91
12, 19268, Note_off_c, 3, 50, 64
12, 19428, Note_on_c, 3, 45, 78
12, 19516, Note_off_c, 3, 45, 64
12, 19679, Note_on_c, 3, 38, 91
12, 19808, Note_off_c, 3, 38, 64
12, 19914, Note_on_c, 3, 56, 64
12, 20008, Note_on_c, 3, 57, 82
12, 20022, Note_off_c, 3, 56, 64
12, 20113, Note_off_c, 3, 57, 64
12, 20143, Note_on_c, 3, 59, 91
12, 20240, Note_off_c, 3, 59, 64
12, 20396, Note_on_c, 3, 59, 82
12, 20490, Note_on_c, 3, 60, 78
12, 20504, Note_off_c, 3, 59, 64
12, 20574, Note_off_c, 3, 60, 64
12, 20620, Note_on_c, 3, 62, 95
12, 20773, Note_off_c, 3, 62, 64
12, 21841, Note_on_c, 3, 50, 87
12, 21932, Note_off_c, 3, 50, 64
12, 22069, Note_on_c, 3, 48, 91
12, 22182, Note_on_c, 3, 47, 89
12, 22196, Note_off_c, 3, 48, 64
12, 22280, Note_off_c, 3, 47, 64
12, 22297, Note_on_c, 3, 48, 87
12, 22408, Note_off_c, 3, 48, 64
12, 22420, Note_on_c, 3, 50, 85
12, 22528, Note_off_c, 3, 50, 64
12, 22547, Note_on_c, 3, 52, 91
12, 22657, Note_off_c, 3, 52, 64
12, 22799, Note_on_c, 3, 40, 87
12, 22902, Note_off_c, 3, 40, 64
12, 23032, Note_on_c, 3, 45, 98
12, 23118, Note_off_c, 3, 45, 64
12, 23252, Note_on_c, 3, 52, 82
12, 23348, Note_off_c, 3, 52, 64
12, 23488, Note_on_c, 3, 57, 87
12, 23756, Note_off_c, 3, 57, 64
12, 24218, Note_on_c, 3, 48, 91
12, 24306, Note_on_c, 3, 50, 85
12, 24325, Note_off_c, 3, 48, 64
12, 24414, Note_off_c, 3, 50, 64
12, 24448, Note_on_c, 3, 52, 91
12, 24551, Note_off_c, 3, 52, 64
12, 24697, Note_on_c, 3, 52, 85
12, 24800, Note_on_c, 3, 53, 70
12, 24810, Note_off_c, 3, 52, 64
12, 24920, Note_off_c, 3, 53, 64
12, 24928, Note_on_c, 3, 55, 87
12, 25038, Note_off_c, 3, 55, 64
12, 25175, Note_on_c, 3, 55, 62
12, 25276, Note_on_c, 3, 57, 72
12, 25288, Note_off_c, 3, 55, 64
12, 25386, Note_off_c, 3, 57, 64
12, 25420, Note_on_c, 3, 58, 85
12, 25520, Note_off_c, 3, 58, 64
12, 25664, Note_on_c, 3, 52, 72
12, 25765, Note_off_c, 3, 52, 64
12, 25924, Note_on_c, 3, 53, 93
12, 26034, Note_off_c, 3, 53, 64
12, 26178, Note_on_c, 3, 46, 80
12, 26296, Note_off_c, 3, 46, 64
12, 26404, Note_on_c, 3, 43, 82
12, 26502, Note_off_c, 3, 43, 64
12, 26640, Note_on_c, 3, 48, 89
12, 26725, Note_off_c, 3, 48, 64
12, 26881, Note_on_c, 3, 41, 91
12, 26987, Note_off_c, 3, 41, 64
12, 27109, Note_on_c, 3, 53, 80
12, 27210, Note_on_c, 3, 55, 72
12, 27220, Note_off_c, 3, 53, 64
12, 27306, Note_off_c, 3, 55, 64
12, 27343, Note_on_c, 3, 57, 89
12, 27455, Note_off_c, 3, 57, 64
12, 27455, Note_on_c, 3, 58, 78
12, 27570, Note_on_c, 3, 57, 72
12, 27577, Note_off_c, 3, 58, 64
12, 27709, Note_on_c, 3, 55, 85
12, 27716, Note_off_c, 3, 57, 64
12, 27815, Note_off_c, 3, 55, 64
12, 27832, Note_on_c, 3, 53, 82
12, 27928, Note_off_c, 3, 53, 64
12, 27949, Note_on_c, 3, 55, 70
12, 28064, Note_on_c, 3, 53, 72
12, 28081, Note_off_c, 3, 55, 64
12, 28166, Note_on_c, 3, 52, 68
12, 28172, Note_off_c, 3, 53, 64
12, 28253, Note_off_c, 3, 52, 64
12, 28295, Note_on_c, 3, 50, 76
12, 28408, Note_off_c, 3, 50, 64
12, 28408, Note_on_c, 3, 52, 68
12, 28532, Note_on_c, 3, 50, 66
12, 28561, Note_off_c, 3, 52, 64
12, 28640, Note_on_c, 3, 48, 74
12, 28650, Note_off_c, 3, 50, 64
12, 28724, Note_off_c, 3, 48, 64
12, 28777, Note_on_c, 3, 47, 85
12, 28883, Note_off_c, 3, 47, 64
12, 28897, Note_on_c, 3, 48, 66
12, 28993, Note_on_c, 3, 47, 58
12, 29029, Note_off_c, 3, 48, 64
12, 29118, Note_on_c, 3, 45, 78
12, 29140, Note_off_c, 3, 47, 64
12, 29228, Note_off_c, 3, 45, 64
12, 29231, Note_on_c, 3, 43, 80
12, 29341, Note_off_c, 3, 43, 64
12, 29363, Note_on_c, 3, 45, 70
12, 29478, Note_on_c, 3, 43, 70
12, 29502, Note_off_c, 3, 45, 64
12, 29591, Note_on_c, 3, 41, 76
12, 29598, Note_off_c, 3, 43, 64
12, 29694, Note_off_c, 3, 41, 64
12, 29721, Note_on_c, 3, 40, 76
12, 29850, Note_off_c, 3, 40, 64
12, 29950, Note_on_c, 3, 41, 82
12, 30078, Note_off_c, 3, 41, 64
12, 30208, Note_on_c, 3, 43, 87
12, 30320, Note_off_c, 3, 43, 64
12, 30457, Note_on_c, 3, 43, 89
12, 30544, Note_off_c, 3, 43, 64
12, 30731, Note_on_c, 3, 36, 98
12, 31235, Note_off_c, 3, 36, 64
12, 93360, Note_on_c, 3, 48, 87
12, 93471, Note_on_c, 3, 50, 82
12, 93473, Note_off_c, 3, 48, 64
12, 93567, Note_off_c, 3, 50, 64
12, 93591, Note_on_c, 3, 52, 100
12, 93682, Note_off_c, 3, 52, 64
12, 93828, Note_on_c, 3, 55, 80
12, 93923, Note_off_c, 3, 55, 64
12, 94078, Note_on_c, 3, 60, 91
12, 94165, Note_off_c, 3, 60, 64
12, 94306, Note_on_c, 3, 55, 80
12, 94391, Note_off_c, 3, 55, 64
12, 94551, Note_on_c, 3, 48, 87
12, 94642, Note_off_c, 3, 48, 64
12, 94779, Note_on_c, 3, 53, 82
12, 94870, Note_off_c, 3, 53, 64
12, 95007, Note_on_c, 3, 52, 72
12, 95112, Note_off_c, 3, 52, 64
12, 95242, Note_on_c, 3, 50, 82
12, 95343, Note_off_c, 3, 50, 64
12, 95475, Note_on_c, 3, 52, 80
12, 95602, Note_off_c, 3, 52, 64
12, 95715, Note_on_c, 3, 53, 82
12, 95807, Note_off_c, 3, 53, 64
12, 95976, Note_on_c, 3, 55, 76
12, 96099, Note_off_c, 3, 55, 64
12, 96209, Note_on_c, 3, 57, 85
12, 96331, Note_off_c, 3, 57, 64
12, 96449, Note_on_c, 3, 59, 82
12, 96574, Note_off_c, 3, 59, 64
12, 96684, Note_on_c, 3, 60, 80
12, 96804, Note_off_c, 3, 60, 64
12, 96922, Note_on_c, 3, 59, 89
12, 97035, Note_off_c, 3, 59, 64
12, 97158, Note_on_c, 3, 57, 82
12, 97279, Note_off_c, 3, 57, 64
12, 97404, Note_on_c, 3, 55, 87
12, 97507, Note_off_c, 3, 55, 64
12, 97635, Note_on_c, 3, 54, 76
12, 97750, Note_off_c, 3, 54, 64
12, 97887, Note_on_c, 3, 52, 76
12, 98016, Note_off_c, 3, 52, 64
12, 98112, Note_on_c, 3, 50, 82
12, 98239, Note_off_c, 3, 50, 64
12, 98355, Note_on_c, 3, 52, 76
12, 98487, Note_off_c, 3, 52, 64
12, 98607, Note_on_c, 3, 54, 78
12, 98731, Note_off_c, 3, 54, 64
12, 98856, Note_on_c, 3, 55, 80
12, 98964, Note_off_c, 3, 55, 64
12, 99103, Note_on_c, 3, 48, 85
12, 99219, Note_off_c, 3, 48, 64
12, 99348, Note_on_c, 3, 50, 87
12, 99456, Note_off_c, 3, 50, 64
12, 99588, Note_on_c, 3, 38, 87
12, 99670, Note_off_c, 3, 38, 64
12, 99843, Note_on_c, 3, 43, 91
12, 99942, Note_off_c, 3, 43, 64
12, 100061, Note_on_c, 3, 50, 87
12, 100145, Note_off_c, 3, 50, 64
12, 100313, Note_on_c, 3, 55, 89
12, 100547, Note_off_c, 3, 55, 64
12, 101031, Note_on_c, 3, 48, 85
12, 101108, Note_on_c, 3, 50, 82
12, 101115, Note_off_c, 3, 48, 64
12, 101223, Note_off_c, 3, 50, 64
12, 101244, Note_on_c, 3, 52, 82
12, 101359, Note_off_c, 3, 52, 64
12, 101503, Note_on_c, 3, 55, 80
12, 101573, Note_off_c, 3, 55, 64
12, 101753, Note_on_c, 3, 60, 66
12, 101871, Note_off_c, 3, 60, 64
12, 102003, Note_on_c, 3, 55, 85
12, 102106, Note_off_c, 3, 55, 64
12, 102238, Note_on_c, 3, 48, 80
12, 102342, Note_off_c, 3, 48, 64
12, 102475, Note_on_c, 3, 53, 89
12, 102571, Note_off_c, 3, 53, 64
12, 102718, Note_on_c, 3, 52, 70
12, 102831, Note_off_c, 3, 52, 64
12, 102936, Note_on_c, 3, 50, 85
12, 103056, Note_off_c, 3, 50, 64
12, 103169, Note_on_c, 3, 52, 68
12, 103282, Note_off_c, 3, 52, 64
12, 103416, Note_on_c, 3, 53, 82
12, 103512, Note_off_c, 3, 53, 64
12, 103673, Note_on_c, 3, 55, 85
12, 103788, Note_off_c, 3, 55, 64
12, 103899, Note_on_c, 3, 57, 82
12, 104031, Note_off_c, 3, 57, 64
12, 104131, Note_on_c, 3, 59, 82
12, 104254, Note_off_c, 3, 59, 64
12, 104359, Note_on_c, 3, 60, 82
12, 104489, Note_off_c, 3, 60, 64
12, 104607, Note_on_c, 3, 59, 85
12, 104727, Note_off_c, 3, 59, 64
12, 104839, Note_on_c, 3, 57, 85
12, 104957, Note_off_c, 3, 57, 64
12, 105082, Note_on_c, 3, 55, 87
12, 105192, Note_off_c, 3, 55, 64
12, 105319, Note_on_c, 3, 54, 66
12, 105449, Note_off_c, 3, 54, 64
12, 105581, Note_on_c, 3, 52, 70
12, 105718, Note_off_c, 3, 52, 64
12, 105802, Note_on_c, 3, 50, 80
12, 105934, Note_off_c, 3, 50, 64
12, 106042, Note_on_c, 3, 52, 72
12, 106174, Note_off_c, 3, 52, 64
12, 106287, Note_on_c, 3, 54, 82
12, 106392, Note_off_c, 3, 54, 64
12, 106531, Note_on_c, 3, 55, 87
12, 106663, Note_off_c, 3, 55, 64
12, 106776, Note_on_c, 3, 48, 82
12, 106894, Note_off_c, 3, 48, 64
12, 107014, Note_on_c, 3, 50, 87
12, 107110, Note_off_c, 3, 50, 64
12, 107254, Note_on_c, 3, 38, 87
12, 107350, Note_off_c, 3, 38, 64
12, 107527, Note_on_c, 3, 43, 95
12, 107611, Note_off_c, 3, 43, 64
12, 107729, Note_on_c, 3, 50, 82
12, 107813, Note_off_c, 3, 50, 64
12, 107995, Note_on_c, 3, 55, 87
12, 108214, Note_off_c, 3, 55, 64
12, 124081, Note_on_c, 3, 55, 89
12, 124172, Note_off_c, 3, 55, 64
12, 124189, Note_on_c, 3, 53, 80
12, 124285, Note_off_c, 3, 53, 64
12, 124307, Note_on_c, 3, 52, 85
12, 124400, Note_off_c, 3, 52, 64
12, 124554, Note_on_c, 3, 55, 87
12, 124648, Note_off_c, 3, 55, 64
12, 124801, Note_on_c, 3, 57, 82
12, 124900, Note_off_c, 3, 57, 64
12, 125041, Note_on_c, 3, 45, 85
12, 125144, Note_off_c, 3, 45, 64
12, 125279, Note_on_c, 3, 57, 80
12, 125368, Note_off_c, 3, 57, 64
12, 125502, Note_on_c, 3, 55, 70
12, 125603, Note_off_c, 3, 55, 64
12, 125756, Note_on_c, 3, 53, 85
12, 125860, Note_off_c, 3, 53, 64
12, 125972, Note_on_c, 3, 55, 78
12, 126076, Note_off_c, 3, 55, 64
12, 126220, Note_on_c, 3, 57, 87
12, 126299, Note_off_c, 3, 57, 64
12, 126450, Note_on_c, 3, 45, 80
12, 126548, Note_off_c, 3, 45, 64
12, 126700, Note_on_c, 3, 50, 91
12, 126788, Note_off_c, 3, 50, 64
12, 126948, Note_on_c, 3, 45, 78
12, 127036, Note_off_c, 3, 45, 64
12, 127199, Note_on_c, 3, 38, 91
12, 127328, Note_off_c, 3, 38, 64
12, 127434, Note_on_c, 3, 56, 64
12, 127528, Note_on_c, 3, 57, 82
12, 127542, Note_off_c, 3, 56, 64
12, 127633, Note_off_c, 3, 57, 64
12, 127663, Note_on_c, 3, 59, 91
12, 127760, Note_off_c, 3, 59, 64
12, 127916, Note_on_c, 3, 59, 82
12, 128010, Note_on_c, 3, 60, 78
12, 128024, Note_off_c, 3, 59, 64
12, 128094, Note_off_c, 3, 60, 64
12, 128140, Note_on_c, 3, 62, 95
12, 128293, Note_off_c, 3, 62, 64
12, 129361, Note_on_c, 3, 50, 87
12, 129452, Note_off_c, 3, 50, 64
12, 129589, Note_on_c, 3, 48, 91
12, 129702, Note_on_c, 3, 47, 89
12, 129716, Note_off_c, 3, 48, 64
12, 129800, Note_off_c, 3, 47, 64
12, 129817, Note_on_c, 3, 48, 87
12, 129928, Note_off_c, 3, 48, 64
12, 129940, Note_on_c, 3, 50, 85
12, 130048, Note_off_c, 3, 50, 64
12, 130067, Note_on_c, 3, 52, 91
12, 130177, Note_off_c, 3, 52, 64
12, 130319, Note_on_c, 3, 40, 87
12, 130422, Note_off_c, 3, 40, 64
12, 130552, Note_on_c, 3, 45, 98
12, 130638, Note_off_c, 3, 45, 64
12, 130772, Note_on_c, 3, 52, 82
12, 130868, Note_off_c, 3, 52, 64
12, 131008, Note_on_c, 3, 57, 87
12, 131276, Note_off_c, 3, 57, 64
12, 131738, Note_on_c, 3, 48, 91
12, 131826, Note_on_c, 3, 50, 85
12, 131845, Note_off_c, 3, 48, 64
12, 131934, Note_off_c, 3, 50, 64
12, 131968, Note_on_c, 3, 52, 91
12, 132071, Note_off_c, 3, 52, 64
12, 132217, Note_on_c, 3, 52, 85
12, 132320, Note_on_c, 3, 53, 70
12, 132330, Note_off_c, 3, 52, 64
12, 132440, Note_off_c, 3, 53, 64
12, 132448, Note_on_c, 3, 55, 87
12, 132558, Note_off_c, 3, 55, 64
12, 132695, Note_on_c, 3, 55, 62
12, 132796, Note_on_c, 3, 57, 72
12, 132808, Note_off_c, 3, 55, 64
12, 132906, Note_off_c, 3, 57, 64
12, 132940, Note_on_c, 3, 58, 85
12, 133040, Note_off_c, 3, 58, 64
12, 133184, Note_on_c, 3, 52, 72
12, 133285, Note_off_c, 3, 52, 64
12, 133444, Note_on_c, 3, 53, 93
12, 133554, Note_off_c, 3, 53, 64
12, 133698, Note_on_c, 3, 46, 80
12, 133816, Note_off_c, 3, 46, 64
12, 133924, Note_on_c, 3, 43, 82
12, 134022, Note_off_c, 3, 43, 64
12, 134160, Note_on_c, 3, 48, 89
12, 134245, Note_off_c, 3, 48, 64
12, 134401, Note_on_c, 3, 41, 91
12, 134507, Note_off_c, 3, 41, 64
12, 134629, Note_on_c, 3, 53, 80
12, 134730, Note_on_c, 3, 55, 72
12, 134740, Note_off_c, 3, 53, 64
12, 134826, Note_off_c, 3, 55, 64
12, 134863, Note_on_c, 3, 57, 89
12, 134975, Note_off_c, 3, 57, 64
12, 134975, Note_on_c, 3, 58, 78
12, 135090, Note_on_c, 3, 57, 72
12, 135097, Note_off_c, 3, 58, 64
12, 135229, Note_on_c, 3, 55, 85
12, 135236, Note_off_c, 3, 57, 64
12, 135335, Note_off_c, 3, 55, 64
12, 135352, Note_on_c, 3, 53, 82
12, 135448, Note_off_c, 3, 53, 64
12, 135469, Note_on_c, 3, 55, 70
12, 135584, Note_on_c, 3, 53, 72
12, 135601, Note_off_c, 3, 55, 64
12, 135686, Note_on_c, 3, 52, 68
12, 135692, Note_off_c, 3, 53, 64
12, 135773, Note_off_c, 3, 52, 64
12, 135815, Note_on_c, 3, 50, 76
12, 135928, Note_off_c, 3, 50, 64
12, 135928, Note_on_c, 3, 52, 68
12, 136052, Note_on_c, 3, 50, 66
12, 136081, Note_off_c, 3, 52, 64
12, 136160, Note_on_c, 3, 48, 74
12, 136170, Note_off_c, 3, 50, 64
12, 136244, Note_off_c, 3, 48, 64
12, 136297, Note_on_c, 3, 47, 85
12, 136403, Note_off_c, 3, 47, 64
12, 136417, Note_on_c, 3, 48, 66
12, 136513, Note_on_c, 3, 47, 58
12, 136549, Note_off_c, 3, 48, 64
12, 136638, Note_on_c, 3, 45, 78
12, 136660, Note_off_c, 3, 47, 64
12, 136748, Note_off_c, 3, 45, 64
12, 136751, Note_on_c, 3, 43, 80
12, 136861, Note_off_c, 3, 43, 64
12, 136883, Note_on_c, 3, 45, 70
12, 136998, Note_on_c, 3, 43, 70
12, 137022, Note_off_c, 3, 45, 64
12, 137111, Note_on_c, 3, 41, 76
12, 137118, Note_off_c, 3, 43, 64
12, 137214, Note_off_c, 3, 41, 64
12, 137241, Note_on_c, 3, 40, 76
12, 137370, Note_off_c, 3, 40, 64
12, 137470, Note_on_c, 3, 41, 82
12, 137598, Note_off_c, 3, 41, 64
12, 137728, Note_on_c, 3, 43, 87
12, 137840, Note_off_c, 3, 43, 64
12, 137977, Note_on_c, 3, 43, 89
12, 138064, Note_off_c, 3, 43, 64
12, 138251, Note_on_c, 3, 36, 98
12, 138755, Note_off_c, 3, 36, 64
12, 138755, End_track
13, 0, Start_track
13, 0, Title_t, "Oboe1"
13, 0, Program_c, 4, 68
13, 0, Control_c, 4, 7, 100
13, 16084, Note_on_c, 4, 71, 93
13, 16176, Note_on_c, 4, 72, 85
13, 16194, Note_off_c, 4, 71, 64
13, 16271, Note_off_c, 4, 72, 64
13, 16321, Note_on_c, 4, 74, 82
13, 16410, Note_off_c, 4, 74, 64
13, 16556, Note_on_c, 4, 79, 85
13, 16820, Note_off_c, 4, 79, 64
13, 17059, Note_on_c, 4, 82, 91
13, 17137, Note_off_c, 4, 82, 64
13, 17305, Note_on_c, 4, 73, 82
13, 17413, Note_on_c, 4, 71, 68
13, 17431, Note_off_c, 4, 73, 64
13, 17528, Note_on_c, 4, 73, 62
13, 17561, Note_off_c, 4, 71, 64
13, 17644, Note_off_c, 4, 73, 64
13, 17656, Note_on_c, 4, 74, 76
13, 17776, Note_on_c, 4, 76, 100
13, 17783, Note_off_c, 4, 74, 64
13, 17894, Note_off_c, 4, 76, 64
13, 17994, Note_on_c, 4, 77, 82
13, 18102, Note_off_c, 4, 77, 64
13, 18104, Note_on_c, 4, 79, 80
13, 18200, Note_off_c, 4, 79, 64
13, 18236, Note_on_c, 4, 81, 98
13, 18337, Note_off_c, 4, 81, 64
13, 18349, Note_on_c, 4, 79, 64
13, 18440, Note_off_c, 4, 79, 64
13, 18480, Note_on_c, 4, 81, 80
13, 18596, Note_on_c, 4, 82, 80
13, 18599, Note_off_c, 4, 81, 64
13, 18678, Note_off_c, 4, 82, 64
13, 18714, Note_on_c, 4, 81, 89
13, 18832, Note_off_c, 4, 81, 64
13, 18832, Note_on_c, 4, 79, 80
13, 18942, Note_off_c, 4, 79, 64
13, 18954, Note_on_c, 4, 77, 70
13, 19052, Note_off_c, 4, 77, 64
13, 19064, Note_on_c, 4, 76, 59
13, 19134, Note_off_c, 4, 76, 64
13, 19189, Note_on_c, 4, 77, 100
13, 19319, Note_off_c, 4, 77, 64
13, 19319, Note_on_c, 4, 79, 80
13, 19434, Note_on_c, 4, 77, 66
13, 19468, Note_off_c, 4, 79, 64
13, 19540, Note_off_c, 4, 77, 64
13, 19541, Note_on_c, 4, 76, 66
13, 19640, Note_off_c, 4, 76, 64
13, 19669, Note_on_c, 4, 74, 93
13, 19787, Note_off_c, 4, 74, 64
13, 19919, Note_on_c, 4, 83, 82
13, 20044, Note_on_c, 4, 84, 78
13, 20045, Note_off_c, 4, 83, 64
13, 20135, Note_off_c, 4, 84, 64
13, 20171, Note_on_c, 4, 86, 102
13, 20279, Note_off_c, 4, 86, 64
13, 20408, Note_on_c, 4, 80, 78
13, 20511, Note_off_c, 4, 80, 64
13, 20516, Note_on_c, 4, 81, 82
13, 20603, Note_off_c, 4, 81, 64
13, 20648, Note_on_c, 4, 83, 100
13, 20754, Note_off_c, 4, 83, 64
13, 20896, Note_on_c, 4, 74, 82
13, 20996, Note_on_c, 4, 76, 68
13, 21009, Note_off_c, 4, 74, 64
13, 21102, Note_off_c, 4, 76, 64
13, 21131, Note_on_c, 4, 77, 87
13, 21230, Note_off_c, 4, 77, 64
13, 21356, Note_on_c, 4, 71, 70
13, 21474, Note_off_c, 4, 71, 64
13, 21498, Note_on_c, 4, 72, 60
13, 21604, Note_on_c, 4, 74, 80
13, 21613, Note_off_c, 4, 72, 64
13, 21688, Note_off_c, 4, 74, 64
13, 21834, Note_on_c, 4, 68, 64
13, 21938, Note_off_c, 4, 68, 64
13, 22074, Note_on_c, 4, 69, 85
13, 22338, Note_off_c, 4, 69, 64
13, 22412, Note_on_c, 4, 71, 82
13, 22492, Note_off_c, 4, 71, 64
13, 22556, Note_on_c, 4, 72, 93
13, 22616, Note_on_c, 4, 71, 87
13, 22621, Note_off_c, 4, 72, 64
13, 22681, Note_on_c, 4, 72, 80
13, 22693, Note_off_c, 4, 71, 64
13, 22741, Note_on_c, 4, 71, 72
13, 22768, Note_off_c, 4, 72, 64
13, 22849, Note_off_c, 4, 71, 64
13, 22909, Note_on_c, 4, 69, 66
13, 22991, Note_off_c, 4, 69, 64
13, 23053, Note_on_c, 4, 69, 89
13, 23531, Note_off_c, 4, 69, 64
13, 23752, Note_on_c, 4, 76, 85
13, 23848, Note_off_c, 4, 76, 64
13, 23848, Note_on_c, 4, 77, 85
13, 23936, Note_off_c, 4, 77, 64
13, 23984, Note_on_c, 4, 79, 85
13, 24064, Note_off_c, 4, 79, 64
13, 24229, Note_on_c, 4, 84, 85
13, 24524, Note_off_c, 4, 84, 64
13, 24707, Note_on_c, 4, 79, 85
13, 24794, Note_off_c, 4, 79, 64
13, 24956, Note_on_c, 4, 76, 78
13, 25055, Note_on_c, 4, 74, 66
13, 25064, Note_off_c, 4, 76, 64
13, 25153, Note_on_c, 4, 76, 78
13, 25165, Note_off_c, 4, 74, 64
13, 25271, Note_off_c, 4, 76, 64
13, 25276, Note_on_c, 4, 77, 82
13, 25381, Note_off_c, 4, 77, 64
13, 25408, Note_on_c, 4, 79, 87
13, 25484, Note_off_c, 4, 79, 64
13, 25669, Note_on_c, 4, 70, 74
13, 25775, Note_off_c, 4, 70, 64
13, 25928, Note_on_c, 4, 69, 82
13, 26094, Note_off_c, 4, 69, 64
13, 26171, Note_on_c, 4, 74, 82
13, 26281, Note_on_c, 4, 72, 76
13, 26312, Note_off_c, 4, 74, 64
13, 26401, Note_off_c, 4, 72, 64
13, 26408, Note_on_c, 4, 70, 85
13, 26526, Note_on_c, 4, 69, 85
13, 26528, Note_off_c, 4, 70, 64
13, 26636, Note_off_c, 4, 69, 64
13, 26636, Note_on_c, 4, 70, 72
13, 26754, Note_off_c, 4, 70, 64
13, 26754, Note_on_c, 4, 67, 66
13, 26839, Note_off_c, 4, 67, 64
13, 26884, Note_on_c, 4, 69, 89
13, 26977, Note_on_c, 4, 70, 63
13, 26992, Note_off_c, 4, 69, 64
13, 27090, Note_on_c, 4, 69, 64
13, 27121, Note_off_c, 4, 70, 64
13, 27198, Note_off_c, 4, 69, 64
13, 27210, Note_on_c, 4, 67, 85
13, 27318, Note_off_c, 4, 67, 64
13, 27340, Note_on_c, 4, 65, 87
13, 27433, Note_off_c, 4, 65, 64
13, 27577, Note_on_c, 4, 77, 61
13, 27692, Note_off_c, 4, 77, 64
13, 27692, Note_on_c, 4, 79, 74
13, 27791, Note_off_c, 4, 79, 64
13, 27820, Note_on_c, 4, 81, 91
13, 27925, Note_off_c, 4, 81, 64
13, 28060, Note_on_c, 4, 74, 80
13, 28166, Note_off_c, 4, 74, 64
13, 28177, Note_on_c, 4, 76, 76
13, 28268, Note_off_c, 4, 76, 64
13, 28297, Note_on_c, 4, 77, 87
13, 28408, Note_off_c, 4, 77, 64
13, 28537, Note_on_c, 4, 71, 76
13, 28638, Note_on_c, 4, 72, 82
13, 28664, Note_off_c, 4, 71, 64
13, 28741, Note_off_c, 4, 72, 64
13, 28777, Note_on_c, 4, 74, 89
13, 28873, Note_off_c, 4, 74, 64
13, 29029, Note_on_c, 4, 67, 66
13, 29125, Note_off_c, 4, 67, 64
13, 29284, Note_on_c, 4, 79, 93
13, 29356, Note_off_c, 4, 79, 64
13, 29512, Note_on_c, 4, 71, 87
13, 29608, Note_off_c, 4, 71, 64
13, 29761, Note_on_c, 4, 72, 85
13, 30018, Note_off_c, 4, 72, 64
13, 30095, Note_on_c, 4, 74, 80
13, 30152, Note_off_c, 4, 74, 64
13, 30240, Note_on_c, 4, 76, 87
13, 30306, Note_on_c, 4, 74, 100
13, 30311, Note_off_c, 4, 76, 64
13, 30376, Note_on_c, 4, 76, 74
13, 30378, Note_off_c, 4, 74, 64
13, 30438, Note_on_c, 4, 74, 78
13, 30455, Note_off_c, 4, 76, 64
13, 30539, Note_off_c, 4, 74, 64
13, 30596, Note_on_c, 4, 72, 82
13, 30670, Note_off_c, 4, 72, 64
13, 30748, Note_on_c, 4, 72, 100
13, 31177, Note_off_c, 4, 72, 64
13, 46830, Note_on_c, 4, 75, 80
13, 46936, Note_on_c, 4, 74, 66
13, 46945, Note_off_c, 4, 75, 64
13, 47023, Note_off_c, 4, 74, 64
13, 47066, Note_on_c, 4, 75, 80
13, 47150, Note_off_c, 4, 75, 64
13, 47298, Note_on_c, 4, 74, 76
13, 47644, Note_off_c, 4, 74, 64
13, 47733, Note_on_c, 4, 72, 68
13, 47835, Note_off_c, 4, 72, 64
13, 47839, Note_on_c, 4, 71, 64
13, 47940, Note_off_c, 4, 71, 64
13, 47969, Note_on_c, 4, 72, 80
13, 48132, Note_off_c, 4, 72, 64
13, 48201, Note_on_c, 4, 74, 80
13, 48258, Note_on_c, 4, 75, 68
13, 48278, Note_off_c, 4, 74, 64
13, 48325, Note_on_c, 4, 77, 82
13, 48353, Note_off_c, 4, 75, 64
13, 48665, Note_off_c, 4, 77, 64
13, 48721, Note_on_c, 4, 75, 64
13, 48810, Note_off_c, 4, 75, 64
13, 48826, Note_on_c, 4, 74, 78
13, 48914, Note_off_c, 4, 74, 64
13, 48952, Note_on_c, 4, 75, 78
13, 49049, Note_off_c, 4, 75, 64
13, 49055, Note_on_c, 4, 72, 66
13, 49130, Note_off_c, 4, 72, 64
13, 49179, Note_on_c, 4, 74, 78
13, 49508, Note_off_c, 4, 74, 64
13, 49645, Note_on_c, 4, 72, 66
13, 49753, Note_off_c, 4, 72, 64
13, 49755, Note_on_c, 4, 71, 59
13, 49844, Note_off_c, 4, 71, 64
13, 49879, Note_on_c, 4, 72, 70
13, 49978, Note_off_c, 4, 72, 64
13, 49998, Note_on_c, 4, 67, 70
13, 50117, Note_on_c, 4, 69, 58
13, 50140, Note_off_c, 4, 67, 64
13, 50234, Note_off_c, 4, 69, 64
13, 50241, Note_on_c, 4, 71, 68
13, 50343, Note_off_c, 4, 71, 64
13, 50374, Note_on_c, 4, 72, 80
13, 50488, Note_off_c, 4, 72, 64
13, 50493, Note_on_c, 4, 74, 64
13, 50590, Note_on_c, 4, 75, 52
13, 50601, Note_off_c, 4, 74, 64
13, 50703, Note_off_c, 4, 75, 64
13, 50714, Note_on_c, 4, 77, 64
13, 50815, Note_off_c, 4, 77, 64
13, 50846, Note_on_c, 4, 75, 80
13, 50928, Note_off_c, 4, 75, 64
13, 51098, Note_on_c, 4, 74, 70
13, 51449, Note_off_c, 4, 74, 64
13, 51588, Note_on_c, 4, 72, 82
13, 51685, Note_off_c, 4, 72, 64
13, 51690, Note_on_c, 4, 71, 78
13, 51800, Note_off_c, 4, 71, 64
13, 51829, Note_on_c, 4, 72, 80
13, 51937, Note_off_c, 4, 72, 64
13, 52080, Note_on_c, 4, 80, 85
13, 52456, Note_off_c, 4, 80, 64
13, 52542, Note_on_c, 4, 79, 76
13, 52640, Note_off_c, 4, 79, 64
13, 52648, Note_on_c, 4, 77, 64
13, 52734, Note_off_c, 4, 77, 64
13, 52780, Note_on_c, 4, 79, 72
13, 52880, Note_off_c, 4, 79, 64
13, 52891, Note_on_c, 4, 75, 58
13, 52961, Note_off_c, 4, 75, 64
13, 53017, Note_on_c, 4, 77, 70
13, 53365, Note_off_c, 4, 77, 64
13, 53478, Note_on_c, 4, 75, 57
13, 53563, Note_off_c, 4, 75, 64
13, 53575, Note_on_c, 4, 74, 74
13, 53653, Note_off_c, 4, 74, 64
13, 53716, Note_on_c, 4, 75, 82
13, 54257, Note_off_c, 4, 75, 64
13, 54492, Note_on_c, 4, 75, 64
13, 54584, Note_on_c, 4, 74, 66
13, 54595, Note_off_c, 4, 75, 64
13, 54699, Note_off_c, 4, 74, 64
13, 54717, Note_on_c, 4, 75, 64
13, 54803, Note_off_c, 4, 75, 64
13, 54971, Note_on_c, 4, 74, 78
13, 55324, Note_off_c, 4, 74, 64
13, 55421, Note_on_c, 4, 72, 63
13, 55509, Note_on_c, 4, 71, 59
13, 55525, Note_off_c, 4, 72, 64
13, 55598, Note_off_c, 4, 71, 64
13, 55642, Note_on_c, 4, 72, 80
13, 55807, Note_off_c, 4, 72, 64
13, 55863, Note_on_c, 4, 74, 76
13, 55896, Note_on_c, 4, 75, 62
13, 55927, Note_off_c, 4, 74, 64
13, 55973, Note_on_c, 4, 77, 87
13, 56000, Note_off_c, 4, 75, 64
13, 56309, Note_off_c, 4, 77, 64
13, 56382, Note_on_c, 4, 75, 72
13, 56472, Note_off_c, 4, 75, 64
13, 56476, Note_on_c, 4, 74, 61
13, 56563, Note_off_c, 4, 74, 64
13, 56607, Note_on_c, 4, 75, 70
13, 56702, Note_off_c, 4, 75, 64
13, 56715, Note_on_c, 4, 72, 72
13, 56803, Note_off_c, 4, 72, 64
13, 56845, Note_on_c, 4, 74, 72
13, 57245, Note_off_c, 4, 74, 64
13, 57342, Note_on_c, 4, 72, 70
13, 57435, Note_off_c, 4, 72, 64
13, 57444, Note_on_c, 4, 71, 68
13, 57541, Note_off_c, 4, 71, 64
13, 57575, Note_on_c, 4, 72, 64
13, 57678, Note_off_c, 4, 72, 64
13, 57693, Note_on_c, 4, 67, 66
13, 57823, Note_on_c, 4, 69, 53
13, 57859, Note_off_c, 4, 67, 64
13, 57938, Note_on_c, 4, 71, 66
13, 57940, Note_off_c, 4, 69, 64
13, 58044, Note_off_c, 4, 71, 64
13, 58069, Note_on_c, 4, 72, 82
13, 58166, Note_off_c, 4, 72, 64
13, 58180, Note_on_c, 4, 74, 68
13, 58278, Note_on_c, 4, 75, 59
13, 58294, Note_off_c, 4, 74, 64
13, 58400, Note_off_c, 4, 75, 64
13, 58404, Note_on_c, 4, 77, 63
13, 58499, Note_off_c, 4, 77, 64
13, 58526, Note_on_c, 4, 75, 78
13, 58612, Note_off_c, 4, 75, 64
13, 58770, Note_on_c, 4, 74, 76
13, 59146, Note_off_c, 4, 74, 64
13, 59270, Note_on_c, 4, 72, 80
13, 59371, Note_off_c, 4, 72, 64
13, 59376, Note_on_c, 4, 71, 68
13, 59506, Note_off_c, 4, 71, 64
13, 59519, Note_on_c, 4, 72, 72
13, 59647, Note_off_c, 4, 72, 64
13, 59742, Note_on_c, 4, 77, 80
13, 59808, Note_on_c, 4, 79, 87
13, 59817, Note_off_c, 4, 77, 64
13, 59870, Note_on_c, 4, 80, 57
13, 59892, Note_off_c, 4, 79, 64
13, 60164, Note_off_c, 4, 80, 64
13, 60232, Note_on_c, 4, 79, 82
13, 60321, Note_off_c, 4, 79, 64
13, 60340, Note_on_c, 4, 77, 60
13, 60418, Note_off_c, 4, 77, 64
13, 60453, Note_on_c, 4, 79, 51
13, 60552, Note_off_c, 4, 79, 64
13, 60552, Note_on_c, 4, 75, 78
13, 60628, Note_off_c, 4, 75, 64
13, 60683, Note_on_c, 4, 77, 68
13, 61074, Note_off_c, 4, 77, 64
13, 61168, Note_on_c, 4, 75, 80
13, 61259, Note_off_c, 4, 75, 64
13, 61270, Note_on_c, 4, 74, 76
13, 61345, Note_off_c, 4, 74, 64
13, 61403, Note_on_c, 4, 75, 64
13, 61920, Note_off_c, 4, 75, 64
13, 92873, Note_on_c, 4, 64, 91
13, 92971, Note_on_c, 4, 65, 82
13, 92979, Note_off_c, 4, 64, 64
13, 93063, Note_off_c, 4, 65, 64
13, 93106, Note_on_c, 4, 67, 80
13, 93191, Note_off_c, 4, 67, 64
13, 93350, Note_on_c, 4, 72, 82
13, 93651, Note_off_c, 4, 72, 64
13, 93843, Note_on_c, 4, 67, 82
13, 93915, Note_off_c, 4, 67, 64
13, 94092, Note_on_c, 4, 64, 85
13, 94186, Note_on_c, 4, 62, 70
13, 94198, Note_off_c, 4, 64, 64
13, 94289, Note_off_c, 4, 62, 64
13, 94296, Note_on_c, 4, 64, 78
13, 94395, Note_on_c, 4, 65, 89
13, 94411, Note_off_c, 4, 64, 64
13, 94483, Note_off_c, 4, 65, 64
13, 94532, Note_on_c, 4, 67, 93
13, 94680, Note_off_c, 4, 67, 64
13, 94779, Note_on_c, 4, 69, 82
13, 94872, Note_on_c, 4, 71, 78
13, 94882, Note_off_c, 4, 69, 64
13, 94995, Note_off_c, 4, 71, 64
13, 95002, Note_on_c, 4, 72, 80
13, 95091, Note_off_c, 4, 72, 64
13, 95119, Note_on_c, 4, 74, 85
13, 95220, Note_off_c, 4, 74, 64
13, 95223, Note_on_c, 4, 76, 82
13, 95340, Note_off_c, 4, 76, 64
13, 95350, Note_on_c, 4, 77, 91
13, 95436, Note_off_c, 4, 77, 64
13, 95482, Note_on_c, 4, 79, 95
13, 95579, Note_off_c, 4, 79, 64
13, 95736, Note_on_c, 4, 81, 85
13, 95806, Note_off_c, 4, 81, 64
13, 95983, Note_on_c, 4, 74, 89
13, 96094, Note_off_c, 4, 74, 64
13, 96099, Note_on_c, 4, 72, 82
13, 96192, Note_off_c, 4, 72, 64
13, 96211, Note_on_c, 4, 74, 80
13, 96310, Note_off_c, 4, 74, 64
13, 96327, Note_on_c, 4, 76, 66
13, 96399, Note_off_c, 4, 76, 64
13, 96454, Note_on_c, 4, 74, 102
13, 96646, Note_off_c, 4, 74, 64
13, 96703, Note_on_c, 4, 76, 87
13, 96790, Note_off_c, 4, 76, 64
13, 96819, Note_on_c, 4, 78, 66
13, 96912, Note_off_c, 4, 78, 64
13, 96955, Note_on_c, 4, 79, 105
13, 97092, Note_off_c, 4, 79, 64
13, 97176, Note_on_c, 4, 71, 85
13, 97258, Note_off_c, 4, 71, 64
13, 97287, Note_on_c, 4, 72, 80
13, 97371, Note_off_c, 4, 72, 64
13, 97421, Note_on_c, 4, 74, 100
13, 97536, Note_off_c, 4, 74, 64
13, 97668, Note_on_c, 4, 76, 57
13, 97675, Note_on_c, 4, 74, 70
13, 97702, Note_off_c, 4, 74, 64
13, 97745, Note_off_c, 4, 76, 64
13, 97771, Note_on_c, 4, 78, 63
13, 97858, Note_off_c, 4, 78, 64
13, 97915, Note_on_c, 4, 79, 107
13, 98052, Note_off_c, 4, 79, 64
13, 98146, Note_on_c, 4, 69, 87
13, 98227, Note_off_c, 4, 69, 64
13, 98247, Note_on_c, 4, 71, 80
13, 98340, Note_off_c, 4, 71, 64
13, 98387, Note_on_c, 4, 72, 100
13, 98501, Note_off_c, 4, 72, 64
13, 98640, Note_on_c, 4, 74, 89
13, 98727, Note_off_c, 4, 74, 64
13, 98885, Note_on_c, 4, 71, 102
13, 99156, Note_off_c, 4, 71, 64
13, 99204, Note_on_c, 4, 69, 70
13, 99267, Note_off_c, 4, 69, 64
13, 99319, Note_on_c, 4, 71, 80
13, 99372, Note_on_c, 4, 69, 82
13, 99375, Note_off_c, 4, 71, 64
13, 99430, Note_off_c, 4, 69, 64
13, 99432, Note_on_c, 4, 71, 80
13, 99487, Note_on_c, 4, 69, 68
13, 99514, Note_off_c, 4, 71, 64
13, 99624, Note_off_c, 4, 69, 64
13, 99694, Note_on_c, 4, 67, 78
13, 99771, Note_off_c, 4, 67, 64
13, 99838, Note_on_c, 4, 67, 85
13, 100318, Note_off_c, 4, 67, 64
13, 100563, Note_on_c, 4, 64, 82
13, 100645, Note_off_c, 4, 64, 64
13, 100663, Note_on_c, 4, 65, 66
13, 100752, Note_off_c, 4, 65, 64
13, 100791, Note_on_c, 4, 67, 82
13, 100863, Note_off_c, 4, 67, 64
13, 101038, Note_on_c, 4, 72, 85
13, 101309, Note_off_c, 4, 72, 64
13, 101515, Note_on_c, 4, 67, 87
13, 101587, Note_off_c, 4, 67, 64
13, 101755, Note_on_c, 4, 64, 82
13, 101866, Note_on_c, 4, 62, 82
13, 101875, Note_off_c, 4, 64, 64
13, 101971, Note_off_c, 4, 62, 64
13, 101976, Note_on_c, 4, 64, 78
13, 102091, Note_off_c, 4, 64, 64
13, 102103, Note_on_c, 4, 65, 85
13, 102202, Note_off_c, 4, 65, 64
13, 102235, Note_on_c, 4, 67, 85
13, 102389, Note_off_c, 4, 67, 64
13, 102461, Note_on_c, 4, 69, 87
13, 102569, Note_off_c, 4, 69, 64
13, 102569, Note_on_c, 4, 71, 78
13, 102677, Note_off_c, 4, 71, 64
13, 102684, Note_on_c, 4, 72, 78
13, 102783, Note_off_c, 4, 72, 64
13, 102811, Note_on_c, 4, 74, 87
13, 102907, Note_off_c, 4, 74, 64
13, 102912, Note_on_c, 4, 76, 74
13, 103018, Note_off_c, 4, 76, 64
13, 103039, Note_on_c, 4, 77, 85
13, 103123, Note_off_c, 4, 77, 64
13, 103174, Note_on_c, 4, 79, 98
13, 103279, Note_off_c, 4, 79, 64
13, 103426, Note_on_c, 4, 81, 87
13, 103512, Note_off_c, 4, 81, 64
13, 103671, Note_on_c, 4, 74, 85
13, 103779, Note_off_c, 4, 74, 64
13, 103783, Note_on_c, 4, 72, 80
13, 103882, Note_off_c, 4, 72, 64
13, 103896, Note_on_c, 4, 74, 66
13, 104017, Note_off_c, 4, 74, 64
13, 104017, Note_on_c, 4, 76, 62
13, 104093, Note_off_c, 4, 76, 64
13, 104139, Note_on_c, 4, 74, 102
13, 104328, Note_off_c, 4, 74, 64
13, 104388, Note_on_c, 4, 76, 82
13, 104479, Note_off_c, 4, 76, 64
13, 104491, Note_on_c, 4, 78, 72
13, 104595, Note_off_c, 4, 78, 64
13, 104638, Note_on_c, 4, 79, 102
13, 104791, Note_off_c, 4, 79, 64
13, 104866, Note_on_c, 4, 71, 85
13, 104955, Note_off_c, 4, 71, 64
13, 104964, Note_on_c, 4, 72, 76
13, 105041, Note_off_c, 4, 72, 64
13, 105094, Note_on_c, 4, 74, 98
13, 105238, Note_off_c, 4, 74, 64
13, 105341, Note_on_c, 4, 76, 87
13, 105430, Note_off_c, 4, 76, 64
13, 105449, Note_on_c, 4, 78, 70
13, 105540, Note_off_c, 4, 78, 64
13, 105583, Note_on_c, 4, 79, 102
13, 105718, Note_off_c, 4, 79, 64
13, 105809, Note_on_c, 4, 69, 76
13, 105898, Note_off_c, 4, 69, 64
13, 105929, Note_on_c, 4, 71, 78
13, 106015, Note_off_c, 4, 71, 64
13, 106056, Note_on_c, 4, 72, 91
13, 106171, Note_off_c, 4, 72, 64
13, 106311, Note_on_c, 4, 74, 93
13, 106402, Note_off_c, 4, 74, 64
13, 106566, Note_on_c, 4, 71, 93
13, 106846, Note_off_c, 4, 71, 64
13, 106913, Note_on_c, 4, 69, 80
13, 106980, Note_off_c, 4, 69, 64
13, 107016, Note_on_c, 4, 71, 85
13, 107083, Note_off_c, 4, 71, 64
13, 107086, Note_on_c, 4, 69, 72
13, 107146, Note_on_c, 4, 71, 89
13, 107155, Note_off_c, 4, 69, 64
13, 107194, Note_on_c, 4, 69, 64
13, 107223, Note_off_c, 4, 71, 64
13, 107309, Note_off_c, 4, 69, 64
13, 107374, Note_on_c, 4, 67, 82
13, 107444, Note_off_c, 4, 67, 64
13, 107518, Note_on_c, 4, 67, 95
13, 107959, Note_off_c, 4, 67, 64
13, 123604, Note_on_c, 4, 71, 93
13, 123696, Note_on_c, 4, 72, 85
13, 123714, Note_off_c, 4, 71, 64
13, 123791, Note_off_c, 4, 72, 64
13, 123841, Note_on_c, 4, 74, 82
13, 123930, Note_off_c, 4, 74, 64
13, 124076, Note_on_c, 4, 79, 85
13, 124340, Note_off_c, 4, 79, 64
13, 124579, Note_on_c, 4, 82, 91
13, 124657, Note_off_c, 4, 82, 64
13, 124825, Note_on_c, 4, 73, 82
13, 124933, Note_on_c, 4, 71, 68
13, 124951, Note_off_c, 4, 73, 64
13, 125048, Note_on_c, 4, 73, 62
13, 125081, Note_off_c, 4, 71, 64
13, 125164, Note_off_c, 4, 73, 64
13, 125176, Note_on_c, 4, 74, 76
13, 125296, Note_on_c, 4, 76, 100
13, 125303, Note_off_c, 4, 74, 64
13, 125414, Note_off_c, 4, 76, 64
13, 125514, Note_on_c, 4, 77, 82
13, 125622, Note_off_c, 4, 77, 64
13, 125624, Note_on_c, 4, 79, 80
13, 125720, Note_off_c, 4, 79, 64
13, 125756, Note_on_c, 4, 81, 98
13, 125857, Note_off_c, 4, 81, 64
13, 125869, Note_on_c, 4, 79, 64
13, 125960, Note_off_c, 4, 79, 64
13, 126000, Note_on_c, 4, 81, 80
13, 126116, Note_on_c, 4, 82, 80
13, 126119, Note_off_c, 4, 81, 64
13, 126198, Note_off_c, 4, 82, 64
13, 126234, Note_on_c, 4, 81, 89
13, 126352, Note_off_c, 4, 81, 64
13, 126352, Note_on_c, 4, 79, 80
13, 126462, Note_off_c, 4, 79, 64
13, 126474, Note_on_c, 4, 77, 70
13, 126572, Note_off_c, 4, 77, 64
13, 126584, Note_on_c, 4, 76, 59
13, 126654, Note_off_c, 4, 76, 64
13, 126709, Note_on_c, 4, 77, 100
13, 126839, Note_off_c, 4, 77, 64
13, 126839, Note_on_c, 4, 79, 80
13, 126954, Note_on_c, 4, 77, 66
13, 126988, Note_off_c, 4, 79, 64
13, 127060, Note_off_c, 4, 77, 64
13, 127061, Note_on_c, 4, 76, 66
13, 127160, Note_off_c, 4, 76, 64
13, 127189, Note_on_c, 4, 74, 93
13, 127307, Note_off_c, 4, 74, 64
13, 127439, Note_on_c, 4, 83, 82
13, 127564, Note_on_c, 4, 84, 78
13, 127565, Note_off_c, 4, 83, 64
13, 127655, Note_off_c, 4, 84, 64
13, 127691, Note_on_c, 4, 86, 102
13, 127799, Note_off_c, 4, 86, 64
13, 127928, Note_on_c, 4, 80, 78
13, 128031, Note_off_c, 4, 80, 64
13, 128036, Note_on_c, 4, 81, 82
13, 128123, Note_off_c, 4, 81, 64
13, 128168, Note_on_c, 4, 83, 100
13, 128274, Note_off_c, 4, 83, 64
13, 128416, Note_on_c, 4, 74, 82
13, 128516, Note_on_c, 4, 76, 68
13, 128529, Note_off_c, 4, 74, 64
13, 128622, Note_off_c, 4, 76, 64
13, 128651, Note_on_c, 4, 77, 87
13, 128750, Note_off_c, 4, 77, 64
13, 128876, Note_on_c, 4, 71, 70
13, 128994, Note_off_c, 4, 71, 64
13, 129018, Note_on_c, 4, 72, 60
13, 129124, Note_on_c, 4, 74, 80
13, 129133, Note_off_c, 4, 72, 64
13, 129208, Note_off_c, 4, 74, 64
13, 129354, Note_on_c, 4, 68, 64
13, 129458, Note_off_c, 4, 68, 64
13, 129594, Note_on_c, 4, 69, 85
13, 129858, Note_off_c, 4, 69, 64
13, 129932, Note_on_c, 4, 71, 82
13, 130012, Note_off_c, 4, 71, 64
13, 130076, Note_on_c, 4, 72, 93
13, 130136, Note_on_c, 4, 71, 87
13, 130141, Note_off_c, 4, 72, 64
13, 130201, Note_on_c, 4, 72, 80
13, 130213, Note_off_c, 4, 71, 64
13, 130261, Note_on_c, 4, 71, 72
13, 130288, Note_off_c, 4, 72, 64
13, 130369, Note_off_c, 4, 71, 64
13, 130429, Note_on_c, 4, 69, 66
13, 130511, Note_off_c, 4, 69, 64
13, 130573, Note_on_c, 4, 69, 89
13, 131051, Note_off_c, 4, 69, 64
13, 131272, Note_on_c, 4, 76, 85
13, 131368, Note_off_c, 4, 76, 64
13, 131368, Note_on_c, 4, 77, 85
13, 131456, Note_off_c, 4, 77, 64
13, 131504, Note_on_c, 4, 79, 85
13, 131584, Note_off_c, 4, 79, 64
13, 131749, Note_on_c, 4, 84, 85
13, 132044, Note_off_c, 4, 84, 64
13, 132227, Note_on_c, 4, 79, 85
13, 132314, Note_off_c, 4, 79, 64
13, 132476, Note_on_c, 4, 76, 78
13, 132575, Note_on_c, 4, 74, 66
13, 132584, Note_off_c, 4, 76, 64
13, 132673, Note_on_c, 4, 76, 78
13, 132685, Note_off_c, 4, 74, 64
13, 132791, Note_off_c, 4, 76, 64
13, 132796, Note_on_c, 4, 77, 82
13, 132901, Note_off_c, 4, 77, 64
13, 132928, Note_on_c, 4, 79, 87
13, 133004, Note_off_c, 4, 79, 64
13, 133189, Note_on_c, 4, 70, 74
13, 133295, Note_off_c, 4, 70, 64
13, 133448, Note_on_c, 4, 69, 82
13, 133614, Note_off_c, 4, 69, 64
13, 133691, Note_on_c, 4, 74, 82
13, 133801, Note_on_c, 4, 72, 76
13, 133832, Note_off_c, 4, 74, 64
13, 133921, Note_off_c, 4, 72, 64
13, 133928, Note_on_c, 4, 70, 85
13, 134046, Note_on_c, 4, 69, 85
13, 134048, Note_off_c, 4, 70, 64
13, 134156, Note_off_c, 4, 69, 64
13, 134156, Note_on_c, 4, 70, 72
13, 134274, Note_off_c, 4, 70, 64
13, 134274, Note_on_c, 4, 67, 66
13, 134359, Note_off_c, 4, 67, 64
13, 134404, Note_on_c, 4, 69, 89
13, 134497, Note_on_c, 4, 70, 63
13, 134512, Note_off_c, 4, 69, 64
13, 134610, Note_on_c, 4, 69, 64
13, 134641, Note_off_c, 4, 70, 64
13, 134718, Note_off_c, 4, 69, 64
13, 134730, Note_on_c, 4, 67, 85
13, 134838, Note_off_c, 4, 67, 64
13, 134860, Note_on_c, 4, 65, 87
13, 134953, Note_off_c, 4, 65, 64
13, 135097, Note_on_c, 4, 77, 61
13, 135212, Note_off_c, 4, 77, 64
13, 135212, Note_on_c, 4, 79, 74
13, 135311, Note_off_c, 4, 79, 64
13, 135340, Note_on_c, 4, 81, 91
13, 135445, Note_off_c, 4, 81, 64
13, 135580, Note_on_c, 4, 74, 80
13, 135686, Note_off_c, 4, 74, 64
13, 135697, Note_on_c, 4, 76, 76
13, 135788, Note_off_c, 4, 76, 64
13, 135817, Note_on_c, 4, 77, 87
13, 135928, Note_off_c, 4, 77, 64
13, 136057, Note_on_c, 4, 71, 76
13, 136158, Note_on_c, 4, 72, 82
13, 136184, Note_off_c, 4, 71, 64
13, 136261, Note_off_c, 4, 72, 64
13, 136297, Note_on_c, 4, 74, 89
13, 136393, Note_off_c, 4, 74, 64
13, 136549, Note_on_c, 4, 67, 66
13, 136645, Note_off_c, 4, 67, 64
13, 136804, Note_on_c, 4, 79, 93
13, 136876, Note_off_c, 4, 79, 64
13, 137032, Note_on_c, 4, 71, 87
13, 137128, Note_off_c, 4, 71, 64
13, 137281, Note_on_c, 4, 72, 85
13, 137538, Note_off_c, 4, 72, 64
13, 137615, Note_on_c, 4, 74, 80
13, 137672, Note_off_c, 4, 74, 64
13, 137760, Note_on_c, 4, 76, 87
13, 137826, Note_on_c, 4, 74, 100
13, 137831, Note_off_c, 4, 76, 64
13, 137896, Note_on_c, 4, 76, 74
13, 137898, Note_off_c, 4, 74, 64
13, 137958, Note_on_c, 4, 74, 78
13, 137975, Note_off_c, 4, 76, 64
13, 138059, Note_off_c, 4, 74, 64
13, 138116, Note_on_c, 4, 72, 82
13, 138190, Note_off_c, 4, 72, 64
13, 138268, Note_on_c, 4, 72, 100
13, 138697, Note_off_c, 4, 72, 64
13, 138697, End_track
14, 0, Start_track
14, 0, Title_t, "Oboe2"
14, 0, Program_c, 5, 68
14, 0, Control_c, 5, 7, 100
14, 16078, Note_on_c, 5, 71, 89
14, 16174, Note_on_c, 5, 72, 80
14, 16188, Note_off_c, 5, 71, 64
14, 16268, Note_off_c, 5, 72, 64
14, 16325, Note_on_c, 5, 74, 89
14, 16410, Note_off_c, 5, 74, 64
14, 16558, Note_on_c, 5, 79, 87
14, 16896, Note_off_c, 5, 79, 64
14, 17060, Note_on_c, 5, 82, 93
14, 17147, Note_off_c, 5, 82, 64
14, 17307, Note_on_c, 5, 73, 66
14, 17408, Note_on_c, 5, 71, 82
14, 17417, Note_off_c, 5, 73, 64
14, 17518, Note_on_c, 5, 73, 66
14, 17559, Note_off_c, 5, 71, 64
14, 17636, Note_on_c, 5, 74, 78
14, 17643, Note_off_c, 5, 73, 64
14, 17741, Note_off_c, 5, 74, 64
14, 17758, Note_on_c, 5, 76, 100
14, 17897, Note_off_c, 5, 76, 64
14, 18008, Note_on_c, 5, 77, 87
14, 18118, Note_off_c, 5, 77, 64
14, 18118, Note_on_c, 5, 79, 87
14, 18216, Note_off_c, 5, 79, 64
14, 18248, Note_on_c, 5, 81, 85
14, 18344, Note_on_c, 5, 79, 63
14, 18353, Note_off_c, 5, 81, 64
14, 18447, Note_off_c, 5, 79, 64
14, 18471, Note_on_c, 5, 81, 68
14, 18576, Note_on_c, 5, 82, 80
14, 18586, Note_off_c, 5, 81, 64
14, 18673, Note_off_c, 5, 82, 64
14, 18687, Note_on_c, 5, 81, 76
14, 18819, Note_on_c, 5, 79, 82
14, 18820, Note_off_c, 5, 81, 64
14, 18934, Note_off_c, 5, 79, 64
14, 18939, Note_on_c, 5, 77, 68
14, 19028, Note_off_c, 5, 77, 64
14, 19054, Note_on_c, 5, 76, 62
14, 19138, Note_off_c, 5, 76, 64
14, 19184, Note_on_c, 5, 77, 93
14, 19310, Note_off_c, 5, 77, 64
14, 19318, Note_on_c, 5, 79, 70
14, 19434, Note_on_c, 5, 77, 70
14, 19443, Note_off_c, 5, 79, 64
14, 19540, Note_off_c, 5, 77, 64
14, 19556, Note_on_c, 5, 76, 87
14, 19652, Note_off_c, 5, 76, 64
14, 19683, Note_on_c, 5, 74, 91
14, 19820, Note_off_c, 5, 74, 64
14, 19930, Note_on_c, 5, 83, 82
14, 20043, Note_off_c, 5, 83, 64
14, 20055, Note_on_c, 5, 84, 82
14, 20148, Note_off_c, 5, 84, 64
14, 20177, Note_on_c, 5, 86, 98
14, 20292, Note_off_c, 5, 86, 64
14, 20400, Note_on_c, 5, 80, 68
14, 20501, Note_off_c, 5, 80, 64
14, 20511, Note_on_c, 5, 81, 72
14, 20607, Note_off_c, 5, 81, 64
14, 20645, Note_on_c, 5, 83, 98
14, 20758, Note_off_c, 5, 83, 64
14, 20885, Note_on_c, 5, 74, 82
14, 20986, Note_on_c, 5, 76, 72
14, 21003, Note_off_c, 5, 74, 64
14, 21094, Note_off_c, 5, 76, 64
14, 21123, Note_on_c, 5, 77, 95
14, 21217, Note_off_c, 5, 77, 64
14, 21358, Note_on_c, 5, 71, 72
14, 21473, Note_off_c, 5, 71, 64
14, 21488, Note_on_c, 5, 72, 64
14, 21591, Note_off_c, 5, 72, 64
14, 21591, Note_on_c, 5, 74, 82
14, 21682, Note_off_c, 5, 74, 64
14, 21829, Note_on_c, 5, 68, 82
14, 21946, Note_off_c, 5, 68, 64
14, 22066, Note_on_c, 5, 69, 82
14, 22330, Note_off_c, 5, 69, 64
14, 22412, Note_on_c, 5, 71, 85
14, 22488, Note_off_c, 5, 71, 64
14, 22544, Note_on_c, 5, 72, 85
14, 22613, Note_off_c, 5, 72, 64
14, 22616, Note_on_c, 5, 71, 82
14, 22680, Note_on_c, 5, 72, 80
14, 22692, Note_off_c, 5, 71, 64
14, 22748, Note_on_c, 5, 71, 68
14, 22764, Note_off_c, 5, 72, 64
14, 22846, Note_off_c, 5, 71, 64
14, 22901, Note_on_c, 5, 69, 74
14, 22978, Note_off_c, 5, 69, 64
14, 23043, Note_on_c, 5, 69, 85
14, 23537, Note_off_c, 5, 69, 64
14, 23770, Note_on_c, 5, 76, 91
14, 23860, Note_on_c, 5, 77, 80
14, 23864, Note_off_c, 5, 76, 64
14, 23945, Note_off_c, 5, 77, 64
14, 23993, Note_on_c, 5, 79, 89
14, 24072, Note_off_c, 5, 79, 64
14, 24236, Note_on_c, 5, 84, 95
14, 24538, Note_off_c, 5, 84, 64
14, 24696, Note_on_c, 5, 79, 85
14, 24788, Note_off_c, 5, 79, 64
14, 24951, Note_on_c, 5, 76, 80
14, 25052, Note_off_c, 5, 76, 64
14, 25059, Note_on_c, 5, 74, 66
14, 25160, Note_on_c, 5, 76, 63
14, 25164, Note_off_c, 5, 74, 64
14, 25260, Note_off_c, 5, 76, 64
14, 25277, Note_on_c, 5, 77, 78
14, 25366, Note_off_c, 5, 77, 64
14, 25409, Note_on_c, 5, 79, 87
14, 25493, Note_off_c, 5, 79, 64
14, 25673, Note_on_c, 5, 70, 78
14, 25772, Note_off_c, 5, 70, 64
14, 25930, Note_on_c, 5, 69, 82
14, 26074, Note_off_c, 5, 69, 64
14, 26165, Note_on_c, 5, 74, 78
14, 26280, Note_on_c, 5, 72, 68
14, 26321, Note_off_c, 5, 74, 64
14, 26400, Note_on_c, 5, 70, 63
14, 26412, Note_off_c, 5, 72, 64
14, 26525, Note_on_c, 5, 69, 85
14, 26535, Note_off_c, 5, 70, 64
14, 26626, Note_on_c, 5, 70, 58
14, 26631, Note_off_c, 5, 69, 64
14, 26749, Note_off_c, 5, 70, 64
14, 26749, Note_on_c, 5, 67, 72
14, 26847, Note_off_c, 5, 67, 64
14, 26876, Note_on_c, 5, 69, 82
14, 26976, Note_off_c, 5, 69, 64
14, 26976, Note_on_c, 5, 70, 64
14, 27080, Note_on_c, 5, 69, 63
14, 27113, Note_off_c, 5, 70, 64
14, 27195, Note_off_c, 5, 69, 64
14, 27207, Note_on_c, 5, 67, 76
14, 27305, Note_off_c, 5, 67, 64
14, 27324, Note_on_c, 5, 65, 80
14, 27449, Note_off_c, 5, 65, 64
14, 27593, Note_on_c, 5, 77, 80
14, 27696, Note_off_c, 5, 77, 64
14, 27697, Note_on_c, 5, 79, 82
14, 27800, Note_off_c, 5, 79, 64
14, 27816, Note_on_c, 5, 81, 98
14, 27944, Note_off_c, 5, 81, 64
14, 28049, Note_on_c, 5, 74, 76
14, 28157, Note_off_c, 5, 74, 64
14, 28160, Note_on_c, 5, 76, 72
14, 28253, Note_off_c, 5, 76, 64
14, 28282, Note_on_c, 5, 77, 98
14, 28410, Note_off_c, 5, 77, 64
14, 28539, Note_on_c, 5, 71, 78
14, 28633, Note_on_c, 5, 72, 80
14, 28642, Note_off_c, 5, 71, 64
14, 28731, Note_off_c, 5, 72, 64
14, 28767, Note_on_c, 5, 74, 89
14, 28856, Note_off_c, 5, 74, 64
14, 29021, Note_on_c, 5, 67, 72
14, 29116, Note_off_c, 5, 67, 64
14, 29268, Note_on_c, 5, 79, 87
14, 29333, Note_off_c, 5, 79, 64
14, 29502, Note_on_c, 5, 71, 85
14, 29600, Note_off_c, 5, 71, 64
14, 29751, Note_on_c, 5, 72, 87
14, 29996, Note_off_c, 5, 72, 64
14, 30087, Note_on_c, 5, 74, 85
14, 30143, Note_off_c, 5, 74, 64
14, 30231, Note_on_c, 5, 76, 89
14, 30300, Note_on_c, 5, 74, 95
14, 30305, Note_off_c, 5, 76, 64
14, 30365, Note_on_c, 5, 76, 76
14, 30373, Note_off_c, 5, 74, 64
14, 30425, Note_on_c, 5, 74, 80
14, 30442, Note_off_c, 5, 76, 64
14, 30536, Note_off_c, 5, 74, 64
14, 30574, Note_on_c, 5, 72, 82
14, 30639, Note_off_c, 5, 72, 64
14, 30718, Note_on_c, 5, 72, 98
14, 31206, Note_off_c, 5, 72, 64
14, 46828, Note_on_c, 5, 67, 68
14, 46936, Note_on_c, 5, 65, 60
14, 46942, Note_off_c, 5, 67, 64
14, 47034, Note_off_c, 5, 65, 64
14, 47066, Note_on_c, 5, 67, 72
14, 47155, Note_off_c, 5, 67, 64
14, 47293, Note_on_c, 5, 65, 70
14, 47634, Note_off_c, 5, 65, 64
14, 47740, Note_on_c, 5, 63, 64
14, 47842, Note_on_c, 5, 62, 63
14, 47854, Note_off_c, 5, 63, 64
14, 47963, Note_on_c, 5, 63, 68
14, 47980, Note_off_c, 5, 62, 64
14, 48108, Note_off_c, 5, 63, 64
14, 48159, Note_on_c, 5, 65, 55
14, 48210, Note_on_c, 5, 67, 80
14, 48234, Note_off_c, 5, 65, 64
14, 48289, Note_on_c, 5, 68, 60
14, 48311, Note_off_c, 5, 67, 64
14, 48623, Note_off_c, 5, 68, 64
14, 48693, Note_on_c, 5, 67, 64
14, 48779, Note_off_c, 5, 67, 64
14, 48795, Note_on_c, 5, 65, 63
14, 48883, Note_off_c, 5, 65, 64
14, 48910, Note_on_c, 5, 67, 64
14, 49000, Note_off_c, 5, 67, 64
14, 49036, Note_on_c, 5, 63, 64
14, 49104, Note_off_c, 5, 63, 64
14, 49172, Note_on_c, 5, 65, 80
14, 49508, Note_off_c, 5, 65, 64
14, 49661, Note_on_c, 5, 63, 59
14, 49760, Note_on_c, 5, 62, 60
14, 49769, Note_off_c, 5, 63, 64
14, 49850, Note_off_c, 5, 62, 64
14, 49894, Note_on_c, 5, 63, 66
14, 50217, Note_off_c, 5, 63, 64
14, 50243, Note_on_c, 5, 62, 63
14, 50348, Note_off_c, 5, 62, 64
14, 50360, Note_on_c, 5, 63, 64
14, 50480, Note_off_c, 5, 63, 64
14, 50495, Note_on_c, 5, 65, 66
14, 50597, Note_off_c, 5, 65, 64
14, 50612, Note_on_c, 5, 67, 66
14, 50714, Note_on_c, 5, 68, 64
14, 50716, Note_off_c, 5, 67, 64
14, 50795, Note_off_c, 5, 68, 64
14, 50844, Note_on_c, 5, 67, 76
14, 50926, Note_off_c, 5, 67, 64
14, 51107, Note_on_c, 5, 65, 72
14, 51460, Note_off_c, 5, 65, 64
14, 51590, Note_on_c, 5, 63, 62
14, 51683, Note_on_c, 5, 62, 70
14, 51690, Note_off_c, 5, 63, 64
14, 51787, Note_off_c, 5, 62, 64
14, 51811, Note_on_c, 5, 63, 66
14, 51939, Note_off_c, 5, 63, 64
14, 52074, Note_on_c, 5, 65, 82
14, 52463, Note_off_c, 5, 65, 64
14, 52551, Note_on_c, 5, 63, 59
14, 52640, Note_on_c, 5, 62, 66
14, 52654, Note_off_c, 5, 63, 64
14, 52730, Note_off_c, 5, 62, 64
14, 52769, Note_on_c, 5, 63, 64
14, 52873, Note_off_c, 5, 63, 64
14, 52888, Note_on_c, 5, 67, 72
14, 52959, Note_off_c, 5, 67, 64
14, 53010, Note_on_c, 5, 68, 72
14, 53407, Note_off_c, 5, 68, 64
14, 53502, Note_on_c, 5, 67, 66
14, 53599, Note_off_c, 5, 67, 64
14, 53606, Note_on_c, 5, 65, 58
14, 53677, Note_off_c, 5, 65, 64
14, 53736, Note_on_c, 5, 67, 68
14, 54222, Note_off_c, 5, 67, 64
14, 54467, Note_on_c, 5, 67, 63
14, 54569, Note_on_c, 5, 65, 49
14, 54571, Note_off_c, 5, 67, 64
14, 54670, Note_off_c, 5, 65, 64
14, 54699, Note_on_c, 5, 67, 64
14, 54787, Note_off_c, 5, 67, 64
14, 54971, Note_on_c, 5, 65, 62
14, 55326, Note_off_c, 5, 65, 64
14, 55442, Note_on_c, 5, 63, 57
14, 55527, Note_on_c, 5, 62, 61
14, 55536, Note_off_c, 5, 63, 64
14, 55642, Note_off_c, 5, 62, 64
14, 55646, Note_on_c, 5, 63, 72
14, 55788, Note_off_c, 5, 63, 64
14, 55860, Note_on_c, 5, 65, 50
14, 55913, Note_on_c, 5, 67, 74
14, 55941, Note_off_c, 5, 65, 64
14, 56002, Note_on_c, 5, 68, 63
14, 56015, Note_off_c, 5, 67, 64
14, 56311, Note_off_c, 5, 68, 64
14, 56377, Note_on_c, 5, 67, 66
14, 56485, Note_on_c, 5, 65, 58
14, 56492, Note_off_c, 5, 67, 64
14, 56567, Note_off_c, 5, 65, 64
14, 56611, Note_on_c, 5, 67, 68
14, 56691, Note_off_c, 5, 67, 64
14, 56728, Note_on_c, 5, 63, 66
14, 56799, Note_off_c, 5, 63, 64
14, 56861, Note_on_c, 5, 65, 78
14, 57236, Note_off_c, 5, 65, 64
14, 57349, Note_on_c, 5, 63, 60
14, 57446, Note_on_c, 5, 62, 64
14, 57450, Note_off_c, 5, 63, 64
14, 57556, Note_off_c, 5, 62, 64
14, 57578, Note_on_c, 5, 63, 64
14, 57865, Note_off_c, 5, 63, 64
14, 57929, Note_on_c, 5, 62, 64
14, 58040, Note_on_c, 5, 63, 63
14, 58051, Note_off_c, 5, 62, 64
14, 58157, Note_off_c, 5, 63, 64
14, 58168, Note_on_c, 5, 65, 64
14, 58269, Note_off_c, 5, 65, 64
14, 58280, Note_on_c, 5, 67, 66
14, 58391, Note_off_c, 5, 67, 64
14, 58391, Note_on_c, 5, 68, 58
14, 58477, Note_off_c, 5, 68, 64
14, 58532, Note_on_c, 5, 67, 85
14, 58614, Note_off_c, 5, 67, 64
14, 58799, Note_on_c, 5, 65, 72
14, 59170, Note_off_c, 5, 65, 64
14, 59256, Note_on_c, 5, 63, 62
14, 59356, Note_on_c, 5, 62, 64
14, 59360, Note_off_c, 5, 63, 64
14, 59471, Note_off_c, 5, 62, 64
14, 59493, Note_on_c, 5, 63, 68
14, 59638, Note_off_c, 5, 63, 64
14, 59766, Note_on_c, 5, 65, 80
14, 60179, Note_off_c, 5, 65, 64
14, 60239, Note_on_c, 5, 63, 76
14, 60336, Note_on_c, 5, 62, 60
14, 60343, Note_off_c, 5, 63, 64
14, 60440, Note_off_c, 5, 62, 64
14, 60457, Note_on_c, 5, 63, 74
14, 60544, Note_off_c, 5, 63, 64
14, 60577, Note_on_c, 5, 67, 76
14, 60656, Note_off_c, 5, 67, 64
14, 60694, Note_on_c, 5, 68, 64
14, 61078, Note_off_c, 5, 68, 64
14, 61160, Note_on_c, 5, 67, 66
14, 61255, Note_off_c, 5, 67, 64
14, 61259, Note_on_c, 5, 65, 68
14, 61327, Note_off_c, 5, 65, 64
14, 61409, Note_on_c, 5, 67, 80
14, 61891, Note_off_c, 5, 67, 64
14, 92871, Note_on_c, 5, 64, 95
14, 92945, Note_off_c, 5, 64, 64
14, 92967, Note_on_c, 5, 65, 89
14, 93056, Note_off_c, 5, 65, 64
14, 93090, Note_on_c, 5, 67, 91
14, 93172, Note_off_c, 5, 67, 64
14, 93343, Note_on_c, 5, 72, 80
14, 93631, Note_off_c, 5, 72, 64
14, 93852, Note_on_c, 5, 67, 82
14, 93934, Note_off_c, 5, 67, 64
14, 94107, Note_on_c, 5, 64, 85
14, 94205, Note_on_c, 5, 62, 76
14, 94217, Note_off_c, 5, 64, 64
14, 94299, Note_off_c, 5, 62, 64
14, 94320, Note_on_c, 5, 64, 80
14, 94431, Note_off_c, 5, 64, 64
14, 94440, Note_on_c, 5, 65, 85
14, 94527, Note_off_c, 5, 65, 64
14, 94560, Note_on_c, 5, 67, 98
14, 94707, Note_off_c, 5, 67, 64
14, 94791, Note_on_c, 5, 69, 80
14, 94879, Note_on_c, 5, 71, 68
14, 94889, Note_off_c, 5, 69, 64
14, 95005, Note_off_c, 5, 71, 64
14, 95021, Note_on_c, 5, 72, 80
14, 95107, Note_off_c, 5, 72, 64
14, 95136, Note_on_c, 5, 74, 93
14, 95230, Note_off_c, 5, 74, 64
14, 95244, Note_on_c, 5, 76, 70
14, 95347, Note_off_c, 5, 76, 64
14, 95359, Note_on_c, 5, 77, 85
14, 95451, Note_off_c, 5, 77, 64
14, 95503, Note_on_c, 5, 79, 87
14, 95607, Note_off_c, 5, 79, 64
14, 95743, Note_on_c, 5, 81, 85
14, 95818, Note_off_c, 5, 81, 64
14, 95986, Note_on_c, 5, 74, 91
14, 96091, Note_off_c, 5, 74, 64
14, 96094, Note_on_c, 5, 72, 80
14, 96185, Note_off_c, 5, 72, 64
14, 96199, Note_on_c, 5, 74, 74
14, 96324, Note_off_c, 5, 74, 64
14, 96327, Note_on_c, 5, 76, 63
14, 96420, Note_off_c, 5, 76, 64
14, 96444, Note_on_c, 5, 74, 87
14, 96648, Note_off_c, 5, 74, 64
14, 96706, Note_on_c, 5, 76, 78
14, 96802, Note_off_c, 5, 76, 64
14, 96821, Note_on_c, 5, 78, 66
14, 96919, Note_off_c, 5, 78, 64
14, 96967, Note_on_c, 5, 79, 100
14, 97099, Note_off_c, 5, 79, 64
14, 97191, Note_on_c, 5, 71, 72
14, 97275, Note_off_c, 5, 71, 64
14, 97299, Note_on_c, 5, 72, 63
14, 97390, Note_off_c, 5, 72, 64
14, 97440, Note_on_c, 5, 74, 91
14, 97594, Note_off_c, 5, 74, 64
14, 97671, Note_on_c, 5, 76, 87
14, 97767, Note_off_c, 5, 76, 64
14, 97781, Note_on_c, 5, 78, 66
14, 97863, Note_off_c, 5, 78, 64
14, 97920, Note_on_c, 5, 79, 102
14, 98055, Note_off_c, 5, 79, 64
14, 98136, Note_on_c, 5, 69, 70
14, 98220, Note_off_c, 5, 69, 64
14, 98254, Note_on_c, 5, 71, 72
14, 98343, Note_off_c, 5, 71, 64
14, 98376, Note_on_c, 5, 72, 91
14, 98489, Note_off_c, 5, 72, 64
14, 98638, Note_on_c, 5, 74, 87
14, 98731, Note_off_c, 5, 74, 64
14, 98895, Note_on_c, 5, 71, 91
14, 99173, Note_off_c, 5, 71, 64
14, 99216, Note_on_c, 5, 69, 68
14, 99286, Note_off_c, 5, 69, 64
14, 99346, Note_on_c, 5, 71, 82
14, 99399, Note_on_c, 5, 69, 64
14, 99401, Note_off_c, 5, 71, 64
14, 99461, Note_off_c, 5, 69, 64
14, 99461, Note_on_c, 5, 71, 80
14, 99516, Note_on_c, 5, 69, 72
14, 99540, Note_off_c, 5, 71, 64
14, 99619, Note_off_c, 5, 69, 64
14, 99696, Note_on_c, 5, 67, 87
14, 99754, Note_off_c, 5, 67, 64
14, 99835, Note_on_c, 5, 67, 82
14, 100311, Note_off_c, 5, 67, 64
14, 100555, Note_on_c, 5, 64, 82
14, 100635, Note_on_c, 5, 65, 80
14, 100639, Note_off_c, 5, 64, 64
14, 100723, Note_off_c, 5, 65, 64
14, 100783, Note_on_c, 5, 67, 85
14, 100860, Note_off_c, 5, 67, 64
14, 101040, Note_on_c, 5, 72, 78
14, 101321, Note_off_c, 5, 72, 64
14, 101509, Note_on_c, 5, 67, 80
14, 101595, Note_off_c, 5, 67, 64
14, 101763, Note_on_c, 5, 64, 82
14, 101866, Note_off_c, 5, 64, 64
14, 101873, Note_on_c, 5, 62, 76
14, 101986, Note_on_c, 5, 64, 70
14, 101988, Note_off_c, 5, 62, 64
14, 102111, Note_on_c, 5, 65, 68
14, 102115, Note_off_c, 5, 64, 64
14, 102228, Note_off_c, 5, 65, 64
14, 102235, Note_on_c, 5, 67, 82
14, 102394, Note_off_c, 5, 67, 64
14, 102454, Note_on_c, 5, 69, 70
14, 102550, Note_on_c, 5, 71, 72
14, 102571, Note_off_c, 5, 69, 64
14, 102696, Note_off_c, 5, 71, 64
14, 102701, Note_on_c, 5, 72, 78
14, 102804, Note_off_c, 5, 72, 64
14, 102827, Note_on_c, 5, 74, 82
14, 102936, Note_on_c, 5, 76, 80
14, 102953, Note_off_c, 5, 74, 64
14, 103054, Note_on_c, 5, 77, 70
14, 103071, Note_off_c, 5, 76, 64
14, 103164, Note_off_c, 5, 77, 64
14, 103188, Note_on_c, 5, 79, 80
14, 103313, Note_off_c, 5, 79, 64
14, 103416, Note_on_c, 5, 81, 87
14, 103512, Note_off_c, 5, 81, 64
14, 103675, Note_on_c, 5, 74, 87
14, 103794, Note_on_c, 5, 72, 82
14, 103803, Note_off_c, 5, 74, 64
14, 103896, Note_on_c, 5, 74, 78
14, 103906, Note_off_c, 5, 72, 64
14, 104002, Note_off_c, 5, 74, 64
14, 104026, Note_on_c, 5, 76, 72
14, 104098, Note_off_c, 5, 76, 64
14, 104141, Note_on_c, 5, 74, 87
14, 104350, Note_off_c, 5, 74, 64
14, 104395, Note_on_c, 5, 76, 82
14, 104499, Note_off_c, 5, 76, 64
14, 104508, Note_on_c, 5, 78, 78
14, 104616, Note_off_c, 5, 78, 64
14, 104647, Note_on_c, 5, 79, 100
14, 104796, Note_off_c, 5, 79, 64
14, 104875, Note_on_c, 5, 71, 72
14, 104957, Note_off_c, 5, 71, 64
14, 104981, Note_on_c, 5, 72, 80
14, 105063, Note_off_c, 5, 72, 64
14, 105111, Note_on_c, 5, 74, 95
14, 105240, Note_off_c, 5, 74, 64
14, 105343, Note_on_c, 5, 76, 80
14, 105442, Note_off_c, 5, 76, 64
14, 105454, Note_on_c, 5, 78, 68
14, 105547, Note_off_c, 5, 78, 64
14, 105588, Note_on_c, 5, 79, 95
14, 105730, Note_off_c, 5, 79, 64
14, 105819, Note_on_c, 5, 69, 68
14, 105917, Note_off_c, 5, 69, 64
14, 105927, Note_on_c, 5, 71, 78
14, 106015, Note_off_c, 5, 71, 64
14, 106066, Note_on_c, 5, 72, 100
14, 106174, Note_off_c, 5, 72, 64
14, 106315, Note_on_c, 5, 74, 87
14, 106409, Note_off_c, 5, 74, 64
14, 106553, Note_on_c, 5, 71, 87
14, 106831, Note_off_c, 5, 71, 64
14, 106867, Note_on_c, 5, 69, 70
14, 106944, Note_off_c, 5, 69, 64
14, 106990, Note_on_c, 5, 71, 91
14, 107057, Note_off_c, 5, 71, 64
14, 107064, Note_on_c, 5, 69, 55
14, 107112, Note_on_c, 5, 71, 74
14, 107119, Note_off_c, 5, 69, 64
14, 107165, Note_on_c, 5, 69, 70
14, 107189, Note_off_c, 5, 71, 64
14, 107283, Note_off_c, 5, 69, 64
14, 107371, Note_on_c, 5, 67, 74
14, 107432, Note_off_c, 5, 67, 64
14, 107542, Note_on_c, 5, 67, 95
14, 107964, Note_off_c, 5, 67, 64
14, 123598, Note_on_c, 5, 71, 89
14, 123694, Note_on_c, 5, 72, 80
14, 123708, Note_off_c, 5, 71, 64
14, 123788, Note_off_c, 5, 72, 64
14, 123845, Note_on_c, 5, 74, 89
14, 123930, Note_off_c, 5, 74, 64
14, 124078, Note_on_c, 5, 79, 87
14, 124416, Note_off_c, 5, 79, 64
14, 124580, Note_on_c, 5, 82, 93
14, 124667, Note_off_c, 5, 82, 64
14, 124827, Note_on_c, 5, 73, 66
14, 124928, Note_on_c, 5, 71, 82
14, 124937, Note_off_c, 5, 73, 64
14, 125038, Note_on_c, 5, 73, 66
14, 125079, Note_off_c, 5, 71, 64
14, 125156, Note_on_c, 5, 74, 78
14, 125163, Note_off_c, 5, 73, 64
14, 125261, Note_off_c, 5, 74, 64
14, 125278, Note_on_c, 5, 76, 100
14, 125417, Note_off_c, 5, 76, 64
14, 125528, Note_on_c, 5, 77, 87
14, 125638, Note_off_c, 5, 77, 64
14, 125638, Note_on_c, 5, 79, 87
14, 125736, Note_off_c, 5, 79, 64
14, 125768, Note_on_c, 5, 81, 85
14, 125864, Note_on_c, 5, 79, 63
14, 125873, Note_off_c, 5, 81, 64
14, 125967, Note_off_c, 5, 79, 64
14, 125991, Note_on_c, 5, 81, 68
14, 126096, Note_on_c, 5, 82, 80
14, 126106, Note_off_c, 5, 81, 64
14, 126193, Note_off_c, 5, 82, 64
14, 126207, Note_on_c, 5, 81, 76
14, 126339, Note_on_c, 5, 79, 82
14, 126340, Note_off_c, 5, 81, 64
14, 126454, Note_off_c, 5, 79, 64
14, 126459, Note_on_c, 5, 77, 68
14, 126548, Note_off_c, 5, 77, 64
14, 126574, Note_on_c, 5, 76, 62
14, 126658, Note_off_c, 5, 76, 64
14, 126704, Note_on_c, 5, 77, 93
14, 126830, Note_off_c, 5, 77, 64
14, 126838, Note_on_c, 5, 79, 70
14, 126954, Note_on_c, 5, 77, 70
14, 126963, Note_off_c, 5, 79, 64
14, 127060, Note_off_c, 5, 77, 64
14, 127076, Note_on_c, 5, 76, 87
14, 127172, Note_off_c, 5, 76, 64
14, 127203, Note_on_c, 5, 74, 91
14, 127340, Note_off_c, 5, 74, 64
14, 127450, Note_on_c, 5, 83, 82
14, 127563, Note_off_c, 5, 83, 64
14, 127575, Note_on_c, 5, 84, 82
14, 127668, Note_off_c, 5, 84, 64
14, 127697, Note_on_c, 5, 86, 98
14, 127812, Note_off_c, 5, 86, 64
14, 127920, Note_on_c, 5, 80, 68
14, 128021, Note_off_c, 5, 80, 64
14, 128031, Note_on_c, 5, 81, 72
14, 128127, Note_off_c, 5, 81, 64
14, 128165, Note_on_c, 5, 83, 98
14, 128278, Note_off_c, 5, 83, 64
14, 128405, Note_on_c, 5, 74, 82
14, 128506, Note_on_c, 5, 76, 72
14, 128523, Note_off_c, 5, 74, 64
14, 128614, Note_off_c, 5, 76, 64
14, 128643, Note_on_c, 5, 77, 95
14, 128737, Note_off_c, 5, 77, 64
14, 128878, Note_on_c, 5, 71, 72
14, 128993, Note_off_c, 5, 71, 64
14, 129008, Note_on_c, 5, 72, 64
14, 129111, Note_off_c, 5, 72, 64
14, 129111, Note_on_c, 5, 74, 82
14, 129202, Note_off_c, 5, 74, 64
14, 129349, Note_on_c, 5, 68, 82
14, 129466, Note_off_c, 5, 68, 64
14, 129586, Note_on_c, 5, 69, 82
14, 129850, Note_off_c, 5, 69, 64
14, 129932, Note_on_c, 5, 71, 85
14, 130008, Note_off_c, 5, 71, 64
14, 130064, Note_on_c, 5, 72, 85
14, 130133, Note_off_c, 5, 72, 64
14, 130136, Note_on_c, 5, 71, 82
14, 130200, Note_on_c, 5, 72, 80
14, 130212, Note_off_c, 5, 71, 64
14, 130268, Note_on_c, 5, 71, 68
14, 130284, Note_off_c, 5, 72, 64
14, 130366, Note_off_c, 5, 71, 64
14, 130421, Note_on_c, 5, 69, 74
14, 130498, Note_off_c, 5, 69, 64
14, 130563, Note_on_c, 5, 69, 85
14, 131057, Note_off_c, 5, 69, 64
14, 131290, Note_on_c, 5, 76, 91
14, 131380, Note_on_c, 5, 77, 80
14, 131384, Note_off_c, 5, 76, 64
14, 131465, Note_off_c, 5, 77, 64
14, 131513, Note_on_c, 5, 79, 89
14, 131592, Note_off_c, 5, 79, 64
14, 131756, Note_on_c, 5, 84, 95
14, 132058, Note_off_c, 5, 84, 64
14, 132216, Note_on_c, 5, 79, 85
14, 132308, Note_off_c, 5, 79, 64
14, 132471, Note_on_c, 5, 76, 80
14, 132572, Note_off_c, 5, 76, 64
14, 132579, Note_on_c, 5, 74, 66
14, 132680, Note_on_c, 5, 76, 63
14, 132684, Note_off_c, 5, 74, 64
14, 132780, Note_off_c, 5, 76, 64
14, 132797, Note_on_c, 5, 77, 78
14, 132886, Note_off_c, 5, 77, 64
14, 132929, Note_on_c, 5, 79, 87
14, 133013, Note_off_c, 5, 79, 64
14, 133193, Note_on_c, 5, 70, 78
14, 133292, Note_off_c, 5, 70, 64
14, 133450, Note_on_c, 5, 69, 82
14, 133594, Note_off_c, 5, 69, 64
14, 133685, Note_on_c, 5, 74, 78
14, 133800, Note_on_c, 5, 72, 68
14, 133841, Note_off_c, 5, 74, 64
14, 133920, Note_on_c, 5, 70, 63
14, 133932, Note_off_c, 5, 72, 64
14, 134045, Note_on_c, 5, 69, 85
14, 134055, Note_off_c, 5, 70, 64
14, 134146, Note_on_c, 5, 70, 58
14, 134151, Note_off_c, 5, 69, 64
14, 134269, Note_off_c, 5, 70, 64
14, 134269, Note_on_c, 5, 67, 72
14, 134367, Note_off_c, 5, 67, 64
14, 134396, Note_on_c, 5, 69, 82
14, 134496, Note_off_c, 5, 69, 64
14, 134496, Note_on_c, 5, 70, 64
14, 134600, Note_on_c, 5, 69, 63
14, 134633, Note_off_c, 5, 70, 64
14, 134715, Note_off_c, 5, 69, 64
14, 134727, Note_on_c, 5, 67, 76
14, 134825, Note_off_c, 5, 67, 64
14, 134844, Note_on_c, 5, 65, 80
14, 134969, Note_off_c, 5, 65, 64
14, 135113, Note_on_c, 5, 77, 80
14, 135216, Note_off_c, 5, 77, 64
14, 135217, Note_on_c, 5, 79, 82
14, 135320, Note_off_c, 5, 79, 64
14, 135336, Note_on_c, 5, 81, 98
14, 135464, Note_off_c, 5, 81, 64
14, 135569, Note_on_c, 5, 74, 76
14, 135677, Note_off_c, 5, 74, 64
14, 135680, Note_on_c, 5, 76, 72
14, 135773, Note_off_c, 5, 76, 64
14, 135802, Note_on_c, 5, 77, 98
14, 135930, Note_off_c, 5, 77, 64
14, 136059, Note_on_c, 5, 71, 78
14, 136153, Note_on_c, 5, 72, 80
14, 136162, Note_off_c, 5, 71, 64
14, 136251, Note_off_c, 5, 72, 64
14, 136287, Note_on_c, 5, 74, 89
14, 136376, Note_off_c, 5, 74, 64
14, 136541, Note_on_c, 5, 67, 72
14, 136636, Note_off_c, 5, 67, 64
14, 136788, Note_on_c, 5, 79, 87
14, 136853, Note_off_c, 5, 79, 64
14, 137022, Note_on_c, 5, 71, 85
14, 137120, Note_off_c, 5, 71, 64
14, 137271, Note_on_c, 5, 72, 87
14, 137516, Note_off_c, 5, 72, 64
14, 137607, Note_on_c, 5, 74, 85
14, 137663, Note_off_c, 5, 74, 64
14, 137751, Note_on_c, 5, 76, 89
14, 137820, Note_on_c, 5, 74, 95
14, 137825, Note_off_c, 5, 76, 64
14, 137885, Note_on_c, 5, 76, 76
14, 137893, Note_off_c, 5, 74, 64
14, 137945, Note_on_c, 5, 74, 80
14, 137962, Note_off_c, 5, 76, 64
14, 138056, Note_off_c, 5, 74, 64
14, 138094, Note_on_c, 5, 72, 82
14, 138159, Note_off_c, 5, 72, 64
14, 138238, Note_on_c, 5, 72, 98
14, 138726, Note_off_c, 5, 72, 64
14, 138726, End_track
15, 0, Start_track
15, 0, Title_t, "Bassoon"
15, 0, Program_c, 6, 70
15, 0, Control_c, 6, 7, 100
15, 16544, Note_on_c, 6, 55, 89
15, 16645, Note_off_c, 6, 55, 64
15, 16652, Note_on_c, 6, 53, 80
15, 16758, Note_off_c, 6, 53, 64
15, 16775, Note_on_c, 6, 52, 87
15, 16878, Note_off_c, 6, 52, 64
15, 17029, Note_on_c, 6, 55, 85
15, 17137, Note_off_c, 6, 55, 64
15, 17288, Note_on_c, 6, 57, 85
15, 17401, Note_off_c, 6, 57, 64
15, 17526, Note_on_c, 6, 45, 85
15, 17644, Note_off_c, 6, 45, 64
15, 17754, Note_on_c, 6, 57, 82
15, 17860, Note_off_c, 6, 57, 64
15, 17977, Note_on_c, 6, 55, 80
15, 18095, Note_off_c, 6, 55, 64
15, 18229, Note_on_c, 6, 53, 80
15, 18348, Note_off_c, 6, 53, 64
15, 18450, Note_on_c, 6, 55, 80
15, 18553, Note_off_c, 6, 55, 64
15, 18688, Note_on_c, 6, 57, 82
15, 18776, Note_off_c, 6, 57, 64
15, 18956, Note_on_c, 6, 45, 85
15, 19062, Note_off_c, 6, 45, 64
15, 19170, Note_on_c, 6, 50, 89
15, 19268, Note_off_c, 6, 50, 64
15, 19417, Note_on_c, 6, 45, 87
15, 19501, Note_off_c, 6, 45, 64
15, 19667, Note_on_c, 6, 38, 91
15, 19796, Note_off_c, 6, 38, 64
15, 19902, Note_on_c, 6, 56, 80
15, 20005, Note_on_c, 6, 57, 72
15, 20017, Note_off_c, 6, 56, 64
15, 20116, Note_off_c, 6, 57, 64
15, 20140, Note_on_c, 6, 59, 87
15, 20262, Note_off_c, 6, 59, 64
15, 20391, Note_on_c, 6, 59, 82
15, 20502, Note_off_c, 6, 59, 64
15, 20504, Note_on_c, 6, 60, 78
15, 20584, Note_off_c, 6, 60, 64
15, 20617, Note_on_c, 6, 62, 91
15, 20773, Note_off_c, 6, 62, 64
15, 21853, Note_on_c, 6, 50, 85
15, 21942, Note_off_c, 6, 50, 64
15, 22069, Note_on_c, 6, 48, 87
15, 22173, Note_off_c, 6, 48, 64
15, 22182, Note_on_c, 6, 47, 82
15, 22292, Note_off_c, 6, 47, 64
15, 22295, Note_on_c, 6, 48, 87
15, 22403, Note_off_c, 6, 48, 64
15, 22424, Note_on_c, 6, 50, 80
15, 22530, Note_off_c, 6, 50, 64
15, 22530, Note_on_c, 6, 52, 91
15, 22631, Note_off_c, 6, 52, 64
15, 22772, Note_on_c, 6, 40, 89
15, 22866, Note_off_c, 6, 40, 64
15, 23020, Note_on_c, 6, 45, 93
15, 23111, Note_off_c, 6, 45, 64
15, 23245, Note_on_c, 6, 52, 78
15, 23329, Note_off_c, 6, 52, 64
15, 23497, Note_on_c, 6, 57, 93
15, 23720, Note_off_c, 6, 57, 64
15, 24208, Note_on_c, 6, 48, 80
15, 24289, Note_on_c, 6, 50, 78
15, 24312, Note_off_c, 6, 48, 64
15, 24390, Note_off_c, 6, 50, 64
15, 24431, Note_on_c, 6, 52, 89
15, 24534, Note_off_c, 6, 52, 64
15, 24702, Note_on_c, 6, 52, 68
15, 24796, Note_on_c, 6, 53, 68
15, 24824, Note_off_c, 6, 52, 64
15, 24899, Note_off_c, 6, 53, 64
15, 24925, Note_on_c, 6, 55, 82
15, 25036, Note_off_c, 6, 55, 64
15, 25184, Note_on_c, 6, 55, 82
15, 25288, Note_on_c, 6, 57, 70
15, 25304, Note_off_c, 6, 55, 64
15, 25404, Note_off_c, 6, 57, 64
15, 25429, Note_on_c, 6, 58, 80
15, 25518, Note_off_c, 6, 58, 64
15, 25660, Note_on_c, 6, 52, 68
15, 25768, Note_off_c, 6, 52, 64
15, 25900, Note_on_c, 6, 53, 89
15, 25998, Note_off_c, 6, 53, 64
15, 26137, Note_on_c, 6, 46, 68
15, 26257, Note_off_c, 6, 46, 64
15, 26408, Note_on_c, 6, 43, 89
15, 26512, Note_off_c, 6, 43, 64
15, 26626, Note_on_c, 6, 48, 85
15, 26713, Note_off_c, 6, 48, 64
15, 26879, Note_on_c, 6, 41, 87
15, 26972, Note_off_c, 6, 41, 64
15, 27102, Note_on_c, 6, 53, 76
15, 27212, Note_off_c, 6, 53, 64
15, 27220, Note_on_c, 6, 55, 66
15, 27320, Note_off_c, 6, 55, 64
15, 27333, Note_on_c, 6, 57, 80
15, 27455, Note_off_c, 6, 57, 64
15, 27456, Note_on_c, 6, 58, 72
15, 27563, Note_on_c, 6, 57, 63
15, 27596, Note_off_c, 6, 58, 64
15, 27703, Note_on_c, 6, 55, 78
15, 27721, Note_off_c, 6, 57, 64
15, 27812, Note_off_c, 6, 55, 64
15, 27822, Note_on_c, 6, 53, 68
15, 27937, Note_off_c, 6, 53, 64
15, 27940, Note_on_c, 6, 55, 64
15, 28064, Note_on_c, 6, 53, 70
15, 28093, Note_off_c, 6, 55, 64
15, 28172, Note_on_c, 6, 52, 80
15, 28177, Note_off_c, 6, 53, 64
15, 28256, Note_off_c, 6, 52, 64
15, 28307, Note_on_c, 6, 50, 80
15, 28410, Note_off_c, 6, 50, 64
15, 28417, Note_on_c, 6, 52, 64
15, 28540, Note_on_c, 6, 50, 76
15, 28564, Note_off_c, 6, 52, 64
15, 28652, Note_off_c, 6, 50, 64
15, 28652, Note_on_c, 6, 48, 66
15, 28734, Note_off_c, 6, 48, 64
15, 28788, Note_on_c, 6, 47, 87
15, 28888, Note_off_c, 6, 47, 64
15, 28904, Note_on_c, 6, 48, 64
15, 29010, Note_on_c, 6, 47, 58
15, 29036, Note_off_c, 6, 48, 64
15, 29132, Note_on_c, 6, 45, 68
15, 29156, Note_off_c, 6, 47, 64
15, 29250, Note_on_c, 6, 43, 70
15, 29252, Note_off_c, 6, 45, 64
15, 29365, Note_on_c, 6, 45, 72
15, 29372, Note_off_c, 6, 43, 64
15, 29495, Note_on_c, 6, 43, 80
15, 29538, Note_off_c, 6, 45, 64
15, 29608, Note_on_c, 6, 41, 85
15, 29617, Note_off_c, 6, 43, 64
15, 29719, Note_off_c, 6, 41, 64
15, 29740, Note_on_c, 6, 40, 85
15, 29848, Note_off_c, 6, 40, 64
15, 29982, Note_on_c, 6, 41, 95
15, 30087, Note_off_c, 6, 41, 64
15, 30215, Note_on_c, 6, 43, 85
15, 30308, Note_off_c, 6, 43, 64
15, 30445, Note_on_c, 6, 43, 95
15, 30534, Note_off_c, 6, 43, 64
15, 30716, Note_on_c, 6, 36, 98
15, 31252, Note_off_c, 6, 36, 64
15, 46764, Note_on_c, 6, 60, 85
15, 46909, Note_off_c, 6, 60, 64
15, 47044, Note_on_c, 6, 53, 64
15, 47413, Note_off_c, 6, 53, 64
15, 47525, Note_on_c, 6, 55, 76
15, 47808, Note_off_c, 6, 55, 64
15, 47994, Note_on_c, 6, 51, 76
15, 48196, Note_off_c, 6, 51, 64
15, 48243, Note_on_c, 6, 50, 66
15, 48329, Note_off_c, 6, 50, 64
15, 48339, Note_on_c, 6, 48, 76
15, 48433, Note_off_c, 6, 48, 64
15, 48459, Note_on_c, 6, 47, 85
15, 48552, Note_off_c, 6, 47, 64
15, 48715, Note_on_c, 6, 43, 87
15, 48816, Note_off_c, 6, 43, 64
15, 48960, Note_on_c, 6, 48, 82
15, 49130, Note_off_c, 6, 48, 64
15, 49172, Note_on_c, 6, 44, 63
15, 49261, Note_off_c, 6, 44, 64
15, 49270, Note_on_c, 6, 41, 78
15, 49353, Note_off_c, 6, 41, 64
15, 49414, Note_on_c, 6, 43, 85
15, 49519, Note_off_c, 6, 43, 64
15, 49663, Note_on_c, 6, 43, 80
15, 49762, Note_off_c, 6, 43, 64
15, 49892, Note_on_c, 6, 48, 82
15, 50005, Note_off_c, 6, 48, 64
15, 50146, Note_on_c, 6, 43, 76
15, 50234, Note_off_c, 6, 43, 64
15, 50379, Note_on_c, 6, 39, 72
15, 50488, Note_off_c, 6, 39, 64
15, 50610, Note_on_c, 6, 36, 87
15, 50707, Note_off_c, 6, 36, 64
15, 50881, Note_on_c, 6, 41, 80
15, 51261, Note_off_c, 6, 41, 64
15, 51356, Note_on_c, 6, 43, 76
15, 51478, Note_off_c, 6, 43, 64
15, 51603, Note_on_c, 6, 55, 82
15, 52023, Note_off_c, 6, 55, 64
15, 52100, Note_on_c, 6, 53, 70
15, 52204, Note_off_c, 6, 53, 64
15, 52204, Note_on_c, 6, 51, 68
15, 52295, Note_off_c, 6, 51, 64
15, 52330, Note_on_c, 6, 50, 70
15, 52458, Note_off_c, 6, 50, 64
15, 52571, Note_on_c, 6, 46, 66
15, 52685, Note_off_c, 6, 46, 64
15, 52805, Note_on_c, 6, 51, 68
15, 52964, Note_off_c, 6, 51, 64
15, 53026, Note_on_c, 6, 48, 72
15, 53105, Note_off_c, 6, 48, 64
15, 53116, Note_on_c, 6, 44, 61
15, 53198, Note_off_c, 6, 44, 64
15, 53257, Note_on_c, 6, 46, 82
15, 53357, Note_off_c, 6, 46, 64
15, 53513, Note_on_c, 6, 46, 72
15, 53604, Note_off_c, 6, 46, 64
15, 53763, Note_on_c, 6, 39, 78
15, 54282, Note_off_c, 6, 39, 64
15, 54479, Note_on_c, 6, 60, 82
15, 54564, Note_off_c, 6, 60, 64
15, 54743, Note_on_c, 6, 53, 70
15, 55080, Note_off_c, 6, 53, 64
15, 55211, Note_on_c, 6, 55, 82
15, 55507, Note_off_c, 6, 55, 64
15, 55662, Note_on_c, 6, 51, 76
15, 55885, Note_off_c, 6, 51, 64
15, 55920, Note_on_c, 6, 50, 78
15, 56011, Note_off_c, 6, 50, 64
15, 56022, Note_on_c, 6, 48, 72
15, 56108, Note_off_c, 6, 48, 64
15, 56139, Note_on_c, 6, 47, 70
15, 56238, Note_off_c, 6, 47, 64
15, 56384, Note_on_c, 6, 43, 68
15, 56496, Note_off_c, 6, 43, 64
15, 56642, Note_on_c, 6, 48, 82
15, 56803, Note_off_c, 6, 48, 64
15, 56858, Note_on_c, 6, 44, 76
15, 56938, Note_off_c, 6, 44, 64
15, 56964, Note_on_c, 6, 41, 68
15, 57048, Note_off_c, 6, 41, 64
15, 57095, Note_on_c, 6, 43, 70
15, 57192, Note_off_c, 6, 43, 64
15, 57342, Note_on_c, 6, 43, 78
15, 57442, Note_off_c, 6, 43, 64
15, 57585, Note_on_c, 6, 48, 82
15, 57684, Note_off_c, 6, 48, 64
15, 57841, Note_on_c, 6, 43, 70
15, 57927, Note_off_c, 6, 43, 64
15, 58073, Note_on_c, 6, 39, 76
15, 58166, Note_off_c, 6, 39, 64
15, 58309, Note_on_c, 6, 36, 87
15, 58397, Note_off_c, 6, 36, 64
15, 58545, Note_on_c, 6, 41, 78
15, 58943, Note_off_c, 6, 41, 64
15, 59038, Note_on_c, 6, 43, 85
15, 59142, Note_off_c, 6, 43, 64
15, 59285, Note_on_c, 6, 55, 80
15, 59698, Note_off_c, 6, 55, 64
15, 59775, Note_on_c, 6, 53, 82
15, 59857, Note_off_c, 6, 53, 64
15, 59879, Note_on_c, 6, 51, 78
15, 59970, Note_off_c, 6, 51, 64
15, 60000, Note_on_c, 6, 50, 82
15, 60113, Note_off_c, 6, 50, 64
15, 60226, Note_on_c, 6, 46, 64
15, 60343, Note_off_c, 6, 46, 64
15, 60469, Note_on_c, 6, 51, 76
15, 60641, Note_off_c, 6, 51, 64
15, 60700, Note_on_c, 6, 48, 78
15, 60787, Note_off_c, 6, 48, 64
15, 60813, Note_on_c, 6, 44, 72
15, 60886, Note_off_c, 6, 44, 64
15, 60939, Note_on_c, 6, 46, 76
15, 61040, Note_off_c, 6, 46, 64
15, 61184, Note_on_c, 6, 46, 78
15, 61270, Note_off_c, 6, 46, 64
15, 61429, Note_on_c, 6, 39, 82
15, 61941, Note_off_c, 6, 39, 64
15, 93355, Note_on_c, 6, 48, 89
15, 93459, Note_off_c, 6, 48, 64
15, 93471, Note_on_c, 6, 50, 82
15, 93569, Note_off_c, 6, 50, 64
15, 93598, Note_on_c, 6, 52, 102
15, 93694, Note_off_c, 6, 52, 64
15, 93838, Note_on_c, 6, 55, 76
15, 93922, Note_off_c, 6, 55, 64
15, 94087, Note_on_c, 6, 60, 85
15, 94191, Note_off_c, 6, 60, 64
15, 94315, Note_on_c, 6, 55, 85
15, 94399, Note_off_c, 6, 55, 64
15, 94555, Note_on_c, 6, 48, 89
15, 94642, Note_off_c, 6, 48, 64
15, 94779, Note_on_c, 6, 53, 82
15, 94872, Note_off_c, 6, 53, 64
15, 95019, Note_on_c, 6, 52, 68
15, 95129, Note_off_c, 6, 52, 64
15, 95251, Note_on_c, 6, 50, 80
15, 95350, Note_off_c, 6, 50, 64
15, 95472, Note_on_c, 6, 52, 66
15, 95585, Note_off_c, 6, 52, 64
15, 95719, Note_on_c, 6, 53, 80
15, 95832, Note_off_c, 6, 53, 64
15, 95970, Note_on_c, 6, 55, 80
15, 96084, Note_off_c, 6, 55, 64
15, 96209, Note_on_c, 6, 57, 80
15, 96315, Note_off_c, 6, 57, 64
15, 96432, Note_on_c, 6, 59, 76
15, 96557, Note_off_c, 6, 59, 64
15, 96672, Note_on_c, 6, 60, 78
15, 96787, Note_off_c, 6, 60, 64
15, 96920, Note_on_c, 6, 59, 80
15, 97044, Note_off_c, 6, 59, 64
15, 97169, Note_on_c, 6, 57, 82
15, 97267, Note_off_c, 6, 57, 64
15, 97399, Note_on_c, 6, 55, 68
15, 97534, Note_off_c, 6, 55, 64
15, 97651, Note_on_c, 6, 54, 68
15, 97764, Note_off_c, 6, 54, 64
15, 97904, Note_on_c, 6, 52, 68
15, 98026, Note_off_c, 6, 52, 64
15, 98143, Note_on_c, 6, 50, 78
15, 98270, Note_off_c, 6, 50, 64
15, 98393, Note_on_c, 6, 52, 78
15, 98520, Note_off_c, 6, 52, 64
15, 98627, Note_on_c, 6, 54, 87
15, 98739, Note_off_c, 6, 54, 64
15, 98861, Note_on_c, 6, 55, 85
15, 98976, Note_off_c, 6, 55, 64
15, 99113, Note_on_c, 6, 48, 80
15, 99219, Note_off_c, 6, 48, 64
15, 99358, Note_on_c, 6, 50, 85
15, 99440, Note_off_c, 6, 50, 64
15, 99583, Note_on_c, 6, 38, 87
15, 99677, Note_off_c, 6, 38, 64
15, 99840, Note_on_c, 6, 43, 87
15, 99941, Note_off_c, 6, 43, 64
15, 100057, Note_on_c, 6, 50, 82
15, 100138, Note_off_c, 6, 50, 64
15, 100313, Note_on_c, 6, 55, 87
15, 100536, Note_off_c, 6, 55, 64
15, 101050, Note_on_c, 6, 48, 93
15, 101139, Note_off_c, 6, 48, 64
15, 101151, Note_on_c, 6, 50, 89
15, 101251, Note_off_c, 6, 50, 64
15, 101268, Note_on_c, 6, 52, 91
15, 101395, Note_off_c, 6, 52, 64
15, 101530, Note_on_c, 6, 55, 80
15, 101621, Note_off_c, 6, 55, 64
15, 101772, Note_on_c, 6, 60, 82
15, 101885, Note_off_c, 6, 60, 64
15, 102010, Note_on_c, 6, 55, 82
15, 102096, Note_off_c, 6, 55, 64
15, 102255, Note_on_c, 6, 48, 89
15, 102348, Note_off_c, 6, 48, 64
15, 102485, Note_on_c, 6, 53, 87
15, 102583, Note_off_c, 6, 53, 64
15, 102720, Note_on_c, 6, 52, 70
15, 102845, Note_off_c, 6, 52, 64
15, 102958, Note_on_c, 6, 50, 76
15, 103078, Note_off_c, 6, 50, 64
15, 103169, Note_on_c, 6, 52, 70
15, 103282, Note_off_c, 6, 52, 64
15, 103399, Note_on_c, 6, 53, 78
15, 103527, Note_off_c, 6, 53, 64
15, 103654, Note_on_c, 6, 55, 82
15, 103776, Note_off_c, 6, 55, 64
15, 103889, Note_on_c, 6, 57, 76
15, 104009, Note_off_c, 6, 57, 64
15, 104110, Note_on_c, 6, 59, 68
15, 104261, Note_off_c, 6, 59, 64
15, 104363, Note_on_c, 6, 60, 76
15, 104491, Note_off_c, 6, 60, 64
15, 104611, Note_on_c, 6, 59, 70
15, 104731, Note_off_c, 6, 59, 64
15, 104852, Note_on_c, 6, 57, 80
15, 104962, Note_off_c, 6, 57, 64
15, 105087, Note_on_c, 6, 55, 80
15, 105219, Note_off_c, 6, 55, 64
15, 105322, Note_on_c, 6, 54, 76
15, 105437, Note_off_c, 6, 54, 64
15, 105571, Note_on_c, 6, 52, 78
15, 105701, Note_off_c, 6, 52, 64
15, 105797, Note_on_c, 6, 50, 78
15, 105929, Note_off_c, 6, 50, 64
15, 106049, Note_on_c, 6, 52, 72
15, 106188, Note_off_c, 6, 52, 64
15, 106299, Note_on_c, 6, 54, 82
15, 106409, Note_off_c, 6, 54, 64
15, 106539, Note_on_c, 6, 55, 82
15, 106666, Note_off_c, 6, 55, 64
15, 106781, Note_on_c, 6, 48, 85
15, 106901, Note_off_c, 6, 48, 64
15, 107023, Note_on_c, 6, 50, 89
15, 107115, Note_off_c, 6, 50, 64
15, 107264, Note_on_c, 6, 38, 87
15, 107357, Note_off_c, 6, 38, 64
15, 107528, Note_on_c, 6, 43, 95
15, 107628, Note_off_c, 6, 43, 64
15, 107724, Note_on_c, 6, 50, 82
15, 107808, Note_off_c, 6, 50, 64
15, 107986, Note_on_c, 6, 55, 85
15, 108204, Note_off_c, 6, 55, 64
15, 124064, Note_on_c, 6, 55, 89
15, 124165, Note_off_c, 6, 55, 64
15, 124172, Note_on_c, 6, 53, 80
15, 124278, Note_off_c, 6, 53, 64
15, 124295, Note_on_c, 6, 52, 87
15, 124398, Note_off_c, 6, 52, 64
15, 124549, Note_on_c, 6, 55, 85
15, 124657, Note_off_c, 6, 55, 64
15, 124808, Note_on_c, 6, 57, 85
15, 124921, Note_off_c, 6, 57, 64
15, 125046, Note_on_c, 6, 45, 85
15, 125164, Note_off_c, 6, 45, 64
15, 125274, Note_on_c, 6, 57, 82
15, 125380, Note_off_c, 6, 57, 64
15, 125497, Note_on_c, 6, 55, 80
15, 125615, Note_off_c, 6, 55, 64
15, 125749, Note_on_c, 6, 53, 80
15, 125868, Note_off_c, 6, 53, 64
15, 125970, Note_on_c, 6, 55, 80
15, 126073, Note_off_c, 6, 55, 64
15, 126208, Note_on_c, 6, 57, 82
15, 126296, Note_off_c, 6, 57, 64
15, 126476, Note_on_c, 6, 45, 85
15, 126582, Note_off_c, 6, 45, 64
15, 126690, Note_on_c, 6, 50, 89
15, 126788, Note_off_c, 6, 50, 64
15, 126937, Note_on_c, 6, 45, 87
15, 127021, Note_off_c, 6, 45, 64
15, 127187, Note_on_c, 6, 38, 91
15, 127316, Note_off_c, 6, 38, 64
15, 127422, Note_on_c, 6, 56, 80
15, 127525, Note_on_c, 6, 57, 72
15, 127537, Note_off_c, 6, 56, 64
15, 127636, Note_off_c, 6, 57, 64
15, 127660, Note_on_c, 6, 59, 87
15, 127782, Note_off_c, 6, 59, 64
15, 127911, Note_on_c, 6, 59, 82
15, 128022, Note_off_c, 6, 59, 64
15, 128024, Note_on_c, 6, 60, 78
15, 128104, Note_off_c, 6, 60, 64
15, 128137, Note_on_c, 6, 62, 91
15, 128293, Note_off_c, 6, 62, 64
15, 129373, Note_on_c, 6, 50, 85
15, 129462, Note_off_c, 6, 50, 64
15, 129589, Note_on_c, 6, 48, 87
15, 129693, Note_off_c, 6, 48, 64
15, 129702, Note_on_c, 6, 47, 82
15, 129812, Note_off_c, 6, 47, 64
15, 129815, Note_on_c, 6, 48, 87
15, 129923, Note_off_c, 6, 48, 64
15, 129944, Note_on_c, 6, 50, 80
15, 130050, Note_off_c, 6, 50, 64
15, 130050, Note_on_c, 6, 52, 91
15, 130151, Note_off_c, 6, 52, 64
15, 130292, Note_on_c, 6, 40, 89
15, 130386, Note_off_c, 6, 40, 64
15, 130540, Note_on_c, 6, 45, 93
15, 130631, Note_off_c, 6, 45, 64
15, 130765, Note_on_c, 6, 52, 78
15, 130849, Note_off_c, 6, 52, 64
15, 131017, Note_on_c, 6, 57, 93
15, 131240, Note_off_c, 6, 57, 64
15, 131728, Note_on_c, 6, 48, 80
15, 131809, Note_on_c, 6, 50, 78
15, 131832, Note_off_c, 6, 48, 64
15, 131910, Note_off_c, 6, 50, 64
15, 131951, Note_on_c, 6, 52, 89
15, 132054, Note_off_c, 6, 52, 64
15, 132222, Note_on_c, 6, 52, 68
15, 132316, Note_on_c, 6, 53, 68
15, 132344, Note_off_c, 6, 52, 64
15, 132419, Note_off_c, 6, 53, 64
15, 132445, Note_on_c, 6, 55, 82
15, 132556, Note_off_c, 6, 55, 64
15, 132704, Note_on_c, 6, 55, 82
15, 132808, Note_on_c, 6, 57, 70
15, 132824, Note_off_c, 6, 55, 64
15, 132924, Note_off_c, 6, 57, 64
15, 132949, Note_on_c, 6, 58, 80
15, 133038, Note_off_c, 6, 58, 64
15, 133180, Note_on_c, 6, 52, 68
15, 133288, Note_off_c, 6, 52, 64
15, 133420, Note_on_c, 6, 53, 89
15, 133518, Note_off_c, 6, 53, 64
15, 133657, Note_on_c, 6, 46, 68
15, 133777, Note_off_c, 6, 46, 64
15, 133928, Note_on_c, 6, 43, 89
15, 134032, Note_off_c, 6, 43, 64
15, 134146, Note_on_c, 6, 48, 85
15, 134233, Note_off_c, 6, 48, 64
15, 134399, Note_on_c, 6, 41, 87
15, 134492, Note_off_c, 6, 41, 64
15, 134622, Note_on_c, 6, 53, 76
15, 134732, Note_off_c, 6, 53, 64
15, 134740, Note_on_c, 6, 55, 66
15, 134840, Note_off_c, 6, 55, 64
15, 134853, Note_on_c, 6, 57, 80
15, 134975, Note_off_c, 6, 57, 64
15, 134976, Note_on_c, 6, 58, 72
15, 135083, Note_on_c, 6, 57, 63
15, 135116, Note_off_c, 6, 58, 64
15, 135223, Note_on_c, 6, 55, 78
15, 135241, Note_off_c, 6, 57, 64
15, 135332, Note_off_c, 6, 55, 64
15, 135342, Note_on_c, 6, 53, 68
15, 135457, Note_off_c, 6, 53, 64
15, 135460, Note_on_c, 6, 55, 64
15, 135584, Note_on_c, 6, 53, 70
15, 135613, Note_off_c, 6, 55, 64
15, 135692, Note_on_c, 6, 52, 80
15, 135697, Note_off_c, 6, 53, 64
15, 135776, Note_off_c, 6, 52, 64
15, 135827, Note_on_c, 6, 50, 80
15, 135930, Note_off_c, 6, 50, 64
15, 135937, Note_on_c, 6, 52, 64
15, 136060, Note_on_c, 6, 50, 76
15, 136084, Note_off_c, 6, 52, 64
15, 136172, Note_off_c, 6, 50, 64
15, 136172, Note_on_c, 6, 48, 66
15, 136254, Note_off_c, 6, 48, 64
15, 136308, Note_on_c, 6, 47, 87
15, 136408, Note_off_c, 6, 47, 64
15, 136424, Note_on_c, 6, 48, 64
15, 136530, Note_on_c, 6, 47, 58
15, 136556, Note_off_c, 6, 48, 64
15, 136652, Note_on_c, 6, 45, 68
15, 136676, Note_off_c, 6, 47, 64
15, 136770, Note_on_c, 6, 43, 70
15, 136772, Note_off_c, 6, 45, 64
15, 136885, Note_on_c, 6, 45, 72
15, 136892, Note_off_c, 6, 43, 64
15, 137015, Note_on_c, 6, 43, 80
15, 137058, Note_off_c, 6, 45, 64
15, 137128, Note_on_c, 6, 41, 85
15, 137137, Note_off_c, 6, 43, 64
15, 137239, Note_off_c, 6, 41, 64
15, 137260, Note_on_c, 6, 40, 85
15, 137368, Note_off_c, 6, 40, 64
15, 137502, Note_on_c, 6, 41, 95
15, 137607, Note_off_c, 6, 41, 64
15, 137735, Note_on_c, 6, 43, 85
15, 137828, Note_off_c, 6, 43, 64
15, 137965, Note_on_c, 6, 43, 95
15, 138054, Note_off_c, 6, 43, 64
15, 138236, Note_on_c, 6, 36, 98
15, 138772, Note_off_c, 6, 36, 64
15, 138772, End_track
0, 0, End_of_file
