0, 0, Header, 1, 11, 120
1, 0, Start_track
1, 0, Text_t, "\015\012\015\012Mass in B Minor          Johann Sebastion Bach\015\012No. 7 Duet (Soprano I, Tenor):   Domine Deus\015\012\015\012seq by David Siu  dss@po.cwru.edu\015\012\015\012\015\012"
1, 0, Time_signature, 2, 2, 24, 8
1, 0, Key_signature, 1, "major"
1, 0, Tempo, 625000
1, 240, Time_signature, 4, 2, 24, 8
1, 240, Tempo, 857143
1, 28335, Tempo, 1000000
1, 28454, Tempo, 1200000
1, 28560, Tempo, 857143
1, 45360, Tempo, 1000000
1, 45492, Tempo, 1200000
1, 45554, Tempo, 1333333
1, 45840, End_track
2, 0, Start_track
2, 0, MIDI_port, 0
2, 0, Title_t, "Instrument  1"
2, 0, Program_c, 0, 73
2, 45840, End_track
3, 0, Start_track
3, 0, MIDI_port, 0
3, 0, Title_t, "Flute"
3, 0, Program_c, 0, 73
3, 240, Note_on_c, 0, 79, 64
3, 270, Note_on_c, 0, 79, 0
3, 300, Note_on_c, 0, 78, 64
3, 330, Note_on_c, 0, 78, 0
3, 330, Note_on_c, 0, 76, 64
3, 360, Note_on_c, 0, 76, 0
3, 360, Note_on_c, 0, 74, 64
3, 510, Note_on_c, 0, 74, 0
3, 510, Note_on_c, 0, 72, 64
3, 525, Note_on_c, 0, 72, 0
3, 540, Note_on_c, 0, 76, 64
3, 570, Note_on_c, 0, 76, 0
3, 570, Note_on_c, 0, 74, 64
3, 585, Note_on_c, 0, 74, 0
3, 600, Note_on_c, 0, 72, 64
3, 630, Note_on_c, 0, 72, 0
3, 630, Note_on_c, 0, 71, 64
3, 645, Note_on_c, 0, 71, 0
3, 660, Note_on_c, 0, 74, 64
3, 690, Note_on_c, 0, 74, 0
3, 690, Note_on_c, 0, 72, 64
3, 705, Note_on_c, 0, 72, 0
3, 720, Note_on_c, 0, 72, 64
3, 840, Note_on_c, 0, 72, 0
3, 840, Note_on_c, 0, 71, 64
3, 870, Note_on_c, 0, 71, 0
3, 1200, Note_on_c, 0, 79, 64
3, 1230, Note_on_c, 0, 79, 0
3, 1260, Note_on_c, 0, 78, 64
3, 1290, Note_on_c, 0, 78, 0
3, 1290, Note_on_c, 0, 76, 64
3, 1320, Note_on_c, 0, 76, 0
3, 1320, Note_on_c, 0, 74, 64
3, 1470, Note_on_c, 0, 74, 0
3, 1470, Note_on_c, 0, 72, 64
3, 1485, Note_on_c, 0, 72, 0
3, 1500, Note_on_c, 0, 76, 64
3, 1530, Note_on_c, 0, 76, 0
3, 1530, Note_on_c, 0, 74, 64
3, 1545, Note_on_c, 0, 74, 0
3, 1560, Note_on_c, 0, 72, 64
3, 1590, Note_on_c, 0, 72, 0
3, 1590, Note_on_c, 0, 71, 64
3, 1605, Note_on_c, 0, 71, 0
3, 1620, Note_on_c, 0, 74, 64
3, 1650, Note_on_c, 0, 74, 0
3, 1650, Note_on_c, 0, 72, 64
3, 1665, Note_on_c, 0, 72, 0
3, 1680, Note_on_c, 0, 72, 64
3, 1740, Note_on_c, 0, 72, 0
3, 1740, Note_on_c, 0, 71, 64
3, 1770, Note_on_c, 0, 71, 0
3, 1800, Note_on_c, 0, 83, 64
3, 1830, Note_on_c, 0, 83, 0
3, 1830, Note_on_c, 0, 81, 64
3, 1845, Note_on_c, 0, 81, 0
3, 1860, Note_on_c, 0, 84, 64
3, 1890, Note_on_c, 0, 84, 0
3, 1890, Note_on_c, 0, 83, 64
3, 1905, Note_on_c, 0, 83, 0
3, 1920, Note_on_c, 0, 81, 64
3, 1950, Note_on_c, 0, 81, 0
3, 1950, Note_on_c, 0, 79, 64
3, 1965, Note_on_c, 0, 79, 0
3, 1980, Note_on_c, 0, 83, 64
3, 2010, Note_on_c, 0, 83, 0
3, 2010, Note_on_c, 0, 81, 64
3, 2025, Note_on_c, 0, 81, 0
3, 2040, Note_on_c, 0, 79, 64
3, 2070, Note_on_c, 0, 79, 0
3, 2070, Note_on_c, 0, 78, 64
3, 2085, Note_on_c, 0, 78, 0
3, 2100, Note_on_c, 0, 81, 64
3, 2130, Note_on_c, 0, 81, 0
3, 2130, Note_on_c, 0, 79, 64
3, 2145, Note_on_c, 0, 79, 0
3, 2160, Note_on_c, 0, 79, 64
3, 2280, Note_on_c, 0, 79, 0
3, 2280, Note_on_c, 0, 78, 64
3, 2310, Note_on_c, 0, 78, 0
3, 2310, Note_on_c, 0, 76, 64
3, 2325, Note_on_c, 0, 76, 0
3, 2340, Note_on_c, 0, 79, 64
3, 2370, Note_on_c, 0, 79, 0
3, 2370, Note_on_c, 0, 78, 64
3, 2385, Note_on_c, 0, 78, 0
3, 2400, Note_on_c, 0, 76, 64
3, 2430, Note_on_c, 0, 76, 0
3, 2430, Note_on_c, 0, 74, 64
3, 2445, Note_on_c, 0, 74, 0
3, 2460, Note_on_c, 0, 78, 64
3, 2490, Note_on_c, 0, 78, 0
3, 2490, Note_on_c, 0, 76, 64
3, 2505, Note_on_c, 0, 76, 0
3, 2520, Note_on_c, 0, 74, 64
3, 2550, Note_on_c, 0, 74, 0
3, 2550, Note_on_c, 0, 73, 64
3, 2565, Note_on_c, 0, 73, 0
3, 2580, Note_on_c, 0, 76, 64
3, 2610, Note_on_c, 0, 76, 0
3, 2610, Note_on_c, 0, 74, 64
3, 2625, Note_on_c, 0, 74, 0
3, 2640, Note_on_c, 0, 74, 55
3, 2760, Note_on_c, 0, 74, 0
3, 2760, Note_on_c, 0, 73, 50
3, 2790, Note_on_c, 0, 73, 0
3, 2790, Note_on_c, 0, 71, 49
3, 2805, Note_on_c, 0, 71, 0
3, 2820, Note_on_c, 0, 74, 47
3, 2850, Note_on_c, 0, 74, 0
3, 2850, Note_on_c, 0, 73, 46
3, 2865, Note_on_c, 0, 73, 0
3, 2880, Note_on_c, 0, 71, 45
3, 2910, Note_on_c, 0, 71, 0
3, 2910, Note_on_c, 0, 69, 44
3, 2925, Note_on_c, 0, 69, 0
3, 2940, Note_on_c, 0, 73, 42
3, 2970, Note_on_c, 0, 73, 0
3, 2970, Note_on_c, 0, 71, 41
3, 2985, Note_on_c, 0, 71, 0
3, 3000, Note_on_c, 0, 69, 40
3, 3030, Note_on_c, 0, 69, 0
3, 3030, Note_on_c, 0, 67, 39
3, 3045, Note_on_c, 0, 67, 0
3, 3060, Note_on_c, 0, 71, 37
3, 3090, Note_on_c, 0, 71, 0
3, 3090, Note_on_c, 0, 69, 36
3, 3105, Note_on_c, 0, 69, 0
3, 3120, Note_on_c, 0, 69, 40
3, 3240, Note_on_c, 0, 69, 0
3, 3240, Note_on_c, 0, 67, 41
3, 3255, Note_on_c, 0, 67, 0
3, 3270, Note_on_c, 0, 76, 42
3, 3300, Note_on_c, 0, 76, 0
3, 3300, Note_on_c, 0, 73, 42
3, 3330, Note_on_c, 0, 73, 0
3, 3330, Note_on_c, 0, 69, 42
3, 3360, Note_on_c, 0, 69, 0
3, 3360, Note_on_c, 0, 69, 42
3, 3480, Note_on_c, 0, 69, 0
3, 3480, Note_on_c, 0, 67, 44
3, 3495, Note_on_c, 0, 67, 0
3, 3510, Note_on_c, 0, 76, 44
3, 3540, Note_on_c, 0, 76, 0
3, 3540, Note_on_c, 0, 73, 44
3, 3570, Note_on_c, 0, 73, 0
3, 3570, Note_on_c, 0, 69, 45
3, 3600, Note_on_c, 0, 69, 0
3, 3600, Note_on_c, 0, 67, 45
3, 3630, Note_on_c, 0, 67, 0
3, 3630, Note_on_c, 0, 76, 45
3, 3660, Note_on_c, 0, 76, 0
3, 3660, Note_on_c, 0, 73, 45
3, 3690, Note_on_c, 0, 73, 0
3, 3690, Note_on_c, 0, 69, 46
3, 3720, Note_on_c, 0, 69, 0
3, 3720, Note_on_c, 0, 67, 46
3, 3750, Note_on_c, 0, 67, 0
3, 3750, Note_on_c, 0, 76, 46
3, 3780, Note_on_c, 0, 76, 0
3, 3780, Note_on_c, 0, 73, 47
3, 3810, Note_on_c, 0, 73, 0
3, 3810, Note_on_c, 0, 69, 47
3, 3840, Note_on_c, 0, 69, 0
3, 3840, Note_on_c, 0, 67, 47
3, 3960, Note_on_c, 0, 67, 0
3, 3960, Note_on_c, 0, 66, 48
3, 3975, Note_on_c, 0, 66, 0
3, 3990, Note_on_c, 0, 69, 49
3, 4020, Note_on_c, 0, 69, 0
3, 4020, Note_on_c, 0, 74, 49
3, 4050, Note_on_c, 0, 74, 0
3, 4050, Note_on_c, 0, 71, 49
3, 4080, Note_on_c, 0, 71, 0
3, 4080, Note_on_c, 0, 68, 50
3, 4200, Note_on_c, 0, 68, 0
3, 4200, Note_on_c, 0, 69, 51
3, 4215, Note_on_c, 0, 69, 0
3, 4230, Note_on_c, 0, 73, 51
3, 4260, Note_on_c, 0, 73, 0
3, 4260, Note_on_c, 0, 78, 51
3, 4290, Note_on_c, 0, 78, 0
3, 4290, Note_on_c, 0, 74, 52
3, 4320, Note_on_c, 0, 74, 0
3, 4320, Note_on_c, 0, 68, 52
3, 4440, Note_on_c, 0, 68, 0
3, 4440, Note_on_c, 0, 69, 53
3, 4455, Note_on_c, 0, 69, 0
3, 4470, Note_on_c, 0, 76, 54
3, 4500, Note_on_c, 0, 76, 0
3, 4500, Note_on_c, 0, 81, 54
3, 4530, Note_on_c, 0, 81, 0
3, 4530, Note_on_c, 0, 78, 54
3, 4560, Note_on_c, 0, 78, 0
3, 4560, Note_on_c, 0, 78, 54
3, 4680, Note_on_c, 0, 78, 0
3, 4680, Note_on_c, 0, 79, 56
3, 4695, Note_on_c, 0, 79, 0
3, 4710, Note_on_c, 0, 69, 56
3, 4740, Note_on_c, 0, 69, 0
3, 4740, Note_on_c, 0, 73, 56
3, 4770, Note_on_c, 0, 73, 0
3, 4770, Note_on_c, 0, 71, 57
3, 4785, Note_on_c, 0, 71, 0
3, 4800, Note_on_c, 0, 74, 57
3, 4830, Note_on_c, 0, 74, 0
3, 4830, Note_on_c, 0, 73, 57
3, 4845, Note_on_c, 0, 73, 0
3, 4860, Note_on_c, 0, 76, 57
3, 4890, Note_on_c, 0, 76, 0
3, 4890, Note_on_c, 0, 74, 58
3, 4905, Note_on_c, 0, 74, 0
3, 4920, Note_on_c, 0, 78, 58
3, 4950, Note_on_c, 0, 78, 0
3, 4950, Note_on_c, 0, 76, 58
3, 4965, Note_on_c, 0, 76, 0
3, 4980, Note_on_c, 0, 79, 59
3, 5010, Note_on_c, 0, 79, 0
3, 5010, Note_on_c, 0, 76, 59
3, 5025, Note_on_c, 0, 76, 0
3, 5040, Note_on_c, 0, 76, 59
3, 5160, Note_on_c, 0, 76, 0
3, 5160, Note_on_c, 0, 77, 60
3, 5175, Note_on_c, 0, 77, 0
3, 5190, Note_on_c, 0, 68, 61
3, 5220, Note_on_c, 0, 68, 0
3, 5220, Note_on_c, 0, 71, 61
3, 5250, Note_on_c, 0, 71, 0
3, 5250, Note_on_c, 0, 69, 61
3, 5265, Note_on_c, 0, 69, 0
3, 5280, Note_on_c, 0, 73, 62
3, 5310, Note_on_c, 0, 73, 0
3, 5310, Note_on_c, 0, 71, 62
3, 5325, Note_on_c, 0, 71, 0
3, 5340, Note_on_c, 0, 74, 62
3, 5370, Note_on_c, 0, 74, 0
3, 5370, Note_on_c, 0, 73, 63
3, 5385, Note_on_c, 0, 73, 0
3, 5400, Note_on_c, 0, 76, 63
3, 5430, Note_on_c, 0, 76, 0
3, 5430, Note_on_c, 0, 74, 63
3, 5445, Note_on_c, 0, 74, 0
3, 5460, Note_on_c, 0, 77, 63
3, 5490, Note_on_c, 0, 77, 0
3, 5490, Note_on_c, 0, 76, 64
3, 5505, Note_on_c, 0, 76, 0
3, 5520, Note_on_c, 0, 80, 50
3, 5640, Note_on_c, 0, 80, 0
3, 5640, Note_on_c, 0, 81, 51
3, 5655, Note_on_c, 0, 81, 0
3, 5670, Note_on_c, 0, 69, 52
3, 5700, Note_on_c, 0, 69, 0
3, 5700, Note_on_c, 0, 73, 52
3, 5730, Note_on_c, 0, 73, 0
3, 5730, Note_on_c, 0, 76, 52
3, 5760, Note_on_c, 0, 76, 0
3, 5760, Note_on_c, 0, 81, 53
3, 5790, Note_on_c, 0, 81, 0
3, 5790, Note_on_c, 0, 76, 53
3, 5820, Note_on_c, 0, 76, 0
3, 5820, Note_on_c, 0, 73, 53
3, 5850, Note_on_c, 0, 73, 0
3, 5850, Note_on_c, 0, 69, 53
3, 5880, Note_on_c, 0, 69, 0
3, 5880, Note_on_c, 0, 73, 54
3, 5910, Note_on_c, 0, 73, 0
3, 5910, Note_on_c, 0, 76, 54
3, 5940, Note_on_c, 0, 76, 0
3, 5940, Note_on_c, 0, 81, 54
3, 5970, Note_on_c, 0, 81, 0
3, 5970, Note_on_c, 0, 76, 55
3, 6000, Note_on_c, 0, 76, 0
3, 6000, Note_on_c, 0, 86, 55
3, 6120, Note_on_c, 0, 86, 0
3, 6120, Note_on_c, 0, 85, 56
3, 6135, Note_on_c, 0, 85, 0
3, 6150, Note_on_c, 0, 69, 57
3, 6180, Note_on_c, 0, 69, 0
3, 6180, Note_on_c, 0, 73, 57
3, 6210, Note_on_c, 0, 73, 0
3, 6210, Note_on_c, 0, 76, 57
3, 6240, Note_on_c, 0, 76, 0
3, 6240, Note_on_c, 0, 81, 58
3, 6270, Note_on_c, 0, 81, 0
3, 6270, Note_on_c, 0, 76, 58
3, 6300, Note_on_c, 0, 76, 0
3, 6300, Note_on_c, 0, 73, 58
3, 6330, Note_on_c, 0, 73, 0
3, 6330, Note_on_c, 0, 69, 58
3, 6360, Note_on_c, 0, 69, 0
3, 6360, Note_on_c, 0, 73, 59
3, 6390, Note_on_c, 0, 73, 0
3, 6390, Note_on_c, 0, 76, 59
3, 6420, Note_on_c, 0, 76, 0
3, 6420, Note_on_c, 0, 81, 59
3, 6450, Note_on_c, 0, 81, 0
3, 6450, Note_on_c, 0, 76, 60
3, 6480, Note_on_c, 0, 76, 0
3, 6480, Note_on_c, 0, 85, 60
3, 6600, Note_on_c, 0, 85, 0
3, 6600, Note_on_c, 0, 86, 61
3, 6615, Note_on_c, 0, 86, 0
3, 6630, Note_on_c, 0, 74, 62
3, 6660, Note_on_c, 0, 74, 0
3, 6660, Note_on_c, 0, 78, 62
3, 6690, Note_on_c, 0, 78, 0
3, 6690, Note_on_c, 0, 81, 62
3, 6720, Note_on_c, 0, 81, 0
3, 6720, Note_on_c, 0, 72, 63
3, 6840, Note_on_c, 0, 72, 0
3, 6840, Note_on_c, 0, 71, 64
3, 6855, Note_on_c, 0, 71, 0
3, 6870, Note_on_c, 0, 74, 64
3, 6900, Note_on_c, 0, 74, 0
3, 6900, Note_on_c, 0, 78, 64
3, 6930, Note_on_c, 0, 78, 0
3, 6930, Note_on_c, 0, 81, 65
3, 6960, Note_on_c, 0, 81, 0
3, 6960, Note_on_c, 0, 81, 65
3, 7080, Note_on_c, 0, 81, 0
3, 7080, Note_on_c, 0, 79, 66
3, 7095, Note_on_c, 0, 79, 0
3, 7110, Note_on_c, 0, 71, 67
3, 7140, Note_on_c, 0, 71, 0
3, 7140, Note_on_c, 0, 76, 67
3, 7170, Note_on_c, 0, 76, 0
3, 7170, Note_on_c, 0, 79, 67
3, 7200, Note_on_c, 0, 79, 0
3, 7200, Note_on_c, 0, 71, 68
3, 7320, Note_on_c, 0, 71, 0
3, 7320, Note_on_c, 0, 69, 69
3, 7335, Note_on_c, 0, 69, 0
3, 7350, Note_on_c, 0, 73, 69
3, 7380, Note_on_c, 0, 73, 0
3, 7380, Note_on_c, 0, 76, 69
3, 7410, Note_on_c, 0, 76, 0
3, 7410, Note_on_c, 0, 79, 70
3, 7440, Note_on_c, 0, 79, 0
3, 7440, Note_on_c, 0, 78, 70
3, 7470, Note_on_c, 0, 78, 0
3, 7470, Note_on_c, 0, 81, 70
3, 7500, Note_on_c, 0, 81, 0
3, 7500, Note_on_c, 0, 78, 70
3, 7530, Note_on_c, 0, 78, 0
3, 7530, Note_on_c, 0, 74, 70
3, 7560, Note_on_c, 0, 74, 0
3, 7560, Note_on_c, 0, 69, 70
3, 7590, Note_on_c, 0, 69, 0
3, 7590, Note_on_c, 0, 74, 70
3, 7605, Note_on_c, 0, 74, 0
3, 7620, Note_on_c, 0, 76, 70
3, 7650, Note_on_c, 0, 76, 0
3, 7650, Note_on_c, 0, 73, 70
3, 7665, Note_on_c, 0, 73, 0
3, 7680, Note_on_c, 0, 73, 70
3, 7800, Note_on_c, 0, 73, 0
3, 7800, Note_on_c, 0, 74, 64
3, 7815, Note_on_c, 0, 74, 0
3, 7830, Note_on_c, 0, 78, 59
3, 7860, Note_on_c, 0, 78, 0
3, 7860, Note_on_c, 0, 81, 55
3, 7890, Note_on_c, 0, 81, 0
3, 7890, Note_on_c, 0, 84, 50
3, 7920, Note_on_c, 0, 84, 0
3, 7920, Control_c, 0, 7, 90
3, 7920, Note_on_c, 0, 83, 64
3, 7950, Note_on_c, 0, 83, 0
3, 7950, Note_on_c, 0, 81, 64
3, 7965, Note_on_c, 0, 81, 0
3, 7980, Note_on_c, 0, 84, 64
3, 8010, Note_on_c, 0, 84, 0
3, 8010, Note_on_c, 0, 83, 64
3, 8025, Note_on_c, 0, 83, 0
3, 8040, Note_on_c, 0, 81, 64
3, 8070, Note_on_c, 0, 81, 0
3, 8070, Note_on_c, 0, 79, 64
3, 8085, Note_on_c, 0, 79, 0
3, 8100, Note_on_c, 0, 83, 64
3, 8130, Note_on_c, 0, 83, 0
3, 8130, Note_on_c, 0, 81, 64
3, 8145, Note_on_c, 0, 81, 0
3, 8160, Note_on_c, 0, 79, 64
3, 8190, Note_on_c, 0, 79, 0
3, 8190, Note_on_c, 0, 78, 64
3, 8205, Note_on_c, 0, 78, 0
3, 8220, Note_on_c, 0, 81, 64
3, 8250, Note_on_c, 0, 81, 0
3, 8250, Note_on_c, 0, 79, 64
3, 8265, Note_on_c, 0, 79, 0
3, 8280, Note_on_c, 0, 78, 64
3, 8310, Note_on_c, 0, 78, 0
3, 8310, Note_on_c, 0, 76, 64
3, 8340, Note_on_c, 0, 76, 0
3, 8340, Note_on_c, 0, 74, 64
3, 8370, Note_on_c, 0, 74, 0
3, 8370, Note_on_c, 0, 72, 64
3, 8400, Note_on_c, 0, 72, 0
3, 8400, Note_on_c, 0, 71, 64
3, 8430, Note_on_c, 0, 71, 0
3, 8430, Note_on_c, 0, 69, 64
3, 8460, Note_on_c, 0, 69, 0
3, 8460, Note_on_c, 0, 71, 64
3, 8490, Note_on_c, 0, 71, 0
3, 8490, Note_on_c, 0, 72, 64
3, 8520, Note_on_c, 0, 72, 0
3, 8520, Note_on_c, 0, 74, 64
3, 8580, Note_on_c, 0, 74, 0
3, 8880, Note_on_c, 0, 79, 64
3, 8910, Note_on_c, 0, 79, 0
3, 8940, Note_on_c, 0, 78, 64
3, 8970, Note_on_c, 0, 78, 0
3, 8970, Note_on_c, 0, 76, 64
3, 9000, Note_on_c, 0, 76, 0
3, 9000, Note_on_c, 0, 74, 64
3, 9150, Note_on_c, 0, 74, 0
3, 9150, Note_on_c, 0, 72, 64
3, 9165, Note_on_c, 0, 72, 0
3, 9180, Note_on_c, 0, 76, 64
3, 9210, Note_on_c, 0, 76, 0
3, 9210, Note_on_c, 0, 74, 64
3, 9225, Note_on_c, 0, 74, 0
3, 9240, Note_on_c, 0, 72, 64
3, 9270, Note_on_c, 0, 72, 0
3, 9270, Note_on_c, 0, 71, 64
3, 9285, Note_on_c, 0, 71, 0
3, 9300, Note_on_c, 0, 74, 64
3, 9330, Note_on_c, 0, 74, 0
3, 9330, Note_on_c, 0, 72, 64
3, 9345, Note_on_c, 0, 72, 0
3, 9360, Note_on_c, 0, 71, 64
3, 9390, Note_on_c, 0, 71, 0
3, 10704, Control_c, 0, 7, 127
3, 10710, Note_on_c, 0, 74, 64
3, 10740, Note_on_c, 0, 74, 0
3, 10740, Note_on_c, 0, 78, 64
3, 10770, Note_on_c, 0, 78, 0
3, 10770, Note_on_c, 0, 81, 64
3, 10800, Note_on_c, 0, 81, 0
3, 10800, Note_on_c, 0, 86, 64
3, 10920, Note_on_c, 0, 86, 0
3, 10920, Note_on_c, 0, 84, 64
3, 10935, Note_on_c, 0, 84, 0
3, 10950, Note_on_c, 0, 76, 64
3, 10980, Note_on_c, 0, 76, 0
3, 10980, Note_on_c, 0, 81, 64
3, 11010, Note_on_c, 0, 81, 0
3, 11010, Note_on_c, 0, 84, 64
3, 11040, Note_on_c, 0, 84, 0
3, 11040, Note_on_c, 0, 76, 64
3, 11160, Note_on_c, 0, 76, 0
3, 11160, Note_on_c, 0, 74, 64
3, 11175, Note_on_c, 0, 74, 0
3, 11190, Note_on_c, 0, 78, 64
3, 11220, Note_on_c, 0, 78, 0
3, 11220, Note_on_c, 0, 81, 64
3, 11250, Note_on_c, 0, 81, 0
3, 11250, Note_on_c, 0, 84, 64
3, 11280, Note_on_c, 0, 84, 0
3, 11280, Note_on_c, 0, 83, 64
3, 11310, Note_on_c, 0, 83, 0
3, 11310, Note_on_c, 0, 86, 64
3, 11340, Note_on_c, 0, 86, 0
3, 11340, Note_on_c, 0, 83, 64
3, 11370, Note_on_c, 0, 83, 0
3, 11370, Note_on_c, 0, 79, 64
3, 11400, Note_on_c, 0, 79, 0
3, 11400, Note_on_c, 0, 74, 64
3, 11430, Note_on_c, 0, 74, 0
3, 11430, Note_on_c, 0, 79, 64
3, 11445, Note_on_c, 0, 79, 0
3, 11460, Note_on_c, 0, 81, 64
3, 11490, Note_on_c, 0, 81, 0
3, 11490, Note_on_c, 0, 78, 64
3, 11505, Note_on_c, 0, 78, 0
3, 11520, Note_on_c, 0, 78, 64
3, 11640, Note_on_c, 0, 78, 0
3, 11640, Note_on_c, 0, 79, 64
3, 11760, Control_c, 0, 7, 90
3, 11790, Note_on_c, 0, 79, 0
3, 11820, Note_on_c, 0, 78, 64
3, 11850, Note_on_c, 0, 78, 0
3, 11850, Note_on_c, 0, 76, 64
3, 11880, Note_on_c, 0, 76, 0
3, 11880, Note_on_c, 0, 74, 64
3, 12030, Note_on_c, 0, 74, 0
3, 12030, Note_on_c, 0, 76, 64
3, 12060, Note_on_c, 0, 76, 0
3, 12060, Note_on_c, 0, 78, 64
3, 12090, Note_on_c, 0, 78, 0
3, 12090, Note_on_c, 0, 79, 64
3, 12120, Note_on_c, 0, 79, 0
3, 12120, Note_on_c, 0, 81, 64
3, 12150, Note_on_c, 0, 81, 0
3, 12150, Note_on_c, 0, 83, 64
3, 12180, Note_on_c, 0, 83, 0
3, 12180, Note_on_c, 0, 79, 64
3, 12210, Note_on_c, 0, 79, 0
3, 12210, Note_on_c, 0, 81, 64
3, 12240, Note_on_c, 0, 81, 0
3, 12240, Note_on_c, 0, 83, 64
3, 12270, Note_on_c, 0, 83, 0
3, 12270, Note_on_c, 0, 81, 64
3, 12300, Note_on_c, 0, 81, 0
3, 12300, Note_on_c, 0, 83, 64
3, 12330, Note_on_c, 0, 83, 0
3, 12330, Note_on_c, 0, 84, 64
3, 12360, Note_on_c, 0, 84, 0
3, 12360, Note_on_c, 0, 86, 64
3, 12495, Note_on_c, 0, 86, 0
3, 12510, Note_on_c, 0, 84, 64
3, 12540, Note_on_c, 0, 84, 0
3, 12540, Note_on_c, 0, 88, 64
3, 12570, Note_on_c, 0, 88, 0
3, 12570, Note_on_c, 0, 86, 64
3, 12585, Note_on_c, 0, 86, 0
3, 12600, Note_on_c, 0, 84, 64
3, 12630, Note_on_c, 0, 84, 0
3, 12630, Note_on_c, 0, 83, 64
3, 12645, Note_on_c, 0, 83, 0
3, 12660, Note_on_c, 0, 86, 64
3, 12690, Note_on_c, 0, 86, 0
3, 12690, Note_on_c, 0, 84, 64
3, 12705, Note_on_c, 0, 84, 0
3, 12720, Note_on_c, 0, 83, 64
3, 12780, Note_on_c, 0, 83, 0
3, 13200, Note_on_c, 0, 86, 64
3, 13230, Note_on_c, 0, 86, 0
3, 13230, Note_on_c, 0, 84, 64
3, 13260, Note_on_c, 0, 84, 0
3, 13260, Note_on_c, 0, 83, 64
3, 13290, Note_on_c, 0, 83, 0
3, 13290, Note_on_c, 0, 81, 64
3, 13320, Note_on_c, 0, 81, 0
3, 13320, Note_on_c, 0, 79, 64
3, 13470, Note_on_c, 0, 79, 0
3, 13470, Note_on_c, 0, 78, 64
3, 13500, Note_on_c, 0, 78, 0
3, 13500, Note_on_c, 0, 79, 64
3, 13530, Note_on_c, 0, 79, 0
3, 13530, Note_on_c, 0, 81, 64
3, 13560, Note_on_c, 0, 81, 0
3, 13560, Note_on_c, 0, 83, 64
3, 13590, Note_on_c, 0, 83, 0
3, 13590, Note_on_c, 0, 81, 64
3, 13620, Note_on_c, 0, 81, 0
3, 13620, Note_on_c, 0, 79, 64
3, 13650, Note_on_c, 0, 79, 0
3, 13650, Note_on_c, 0, 81, 64
3, 13680, Note_on_c, 0, 81, 0
3, 13680, Note_on_c, 0, 78, 64
3, 13710, Note_on_c, 0, 78, 0
3, 13710, Note_on_c, 0, 79, 64
3, 13740, Note_on_c, 0, 79, 0
3, 13740, Note_on_c, 0, 81, 64
3, 13770, Note_on_c, 0, 81, 0
3, 13770, Note_on_c, 0, 83, 64
3, 13800, Note_on_c, 0, 83, 0
3, 13800, Note_on_c, 0, 84, 64
3, 13830, Note_on_c, 0, 84, 0
3, 13830, Note_on_c, 0, 86, 64
3, 13860, Note_on_c, 0, 86, 0
3, 13860, Note_on_c, 0, 83, 64
3, 13890, Note_on_c, 0, 83, 0
3, 13890, Note_on_c, 0, 84, 64
3, 13920, Note_on_c, 0, 84, 0
3, 13920, Note_on_c, 0, 86, 64
3, 13950, Note_on_c, 0, 86, 0
3, 13950, Note_on_c, 0, 81, 64
3, 13980, Note_on_c, 0, 81, 0
3, 13980, Note_on_c, 0, 79, 64
3, 14010, Note_on_c, 0, 79, 0
3, 14010, Note_on_c, 0, 78, 64
3, 14040, Note_on_c, 0, 78, 0
3, 14040, Note_on_c, 0, 79, 64
3, 14070, Note_on_c, 0, 79, 0
3, 14070, Note_on_c, 0, 78, 64
3, 14100, Note_on_c, 0, 78, 0
3, 14100, Note_on_c, 0, 79, 64
3, 14130, Note_on_c, 0, 79, 0
3, 14130, Note_on_c, 0, 81, 64
3, 14160, Note_on_c, 0, 81, 0
3, 14160, Note_on_c, 0, 74, 64
3, 14190, Note_on_c, 0, 74, 0
3, 14190, Note_on_c, 0, 72, 64
3, 14220, Note_on_c, 0, 72, 0
3, 14220, Note_on_c, 0, 71, 64
3, 14250, Note_on_c, 0, 71, 0
3, 14250, Note_on_c, 0, 69, 64
3, 14280, Note_on_c, 0, 69, 0
3, 14280, Note_on_c, 0, 67, 64
3, 14340, Note_on_c, 0, 67, 0
3, 14400, Note_on_c, 0, 86, 64
3, 14580, Note_on_c, 0, 86, 0
3, 14580, Note_on_c, 0, 85, 64
3, 14610, Note_on_c, 0, 85, 0
3, 14610, Note_on_c, 0, 83, 64
3, 14640, Note_on_c, 0, 83, 0
3, 14640, Note_on_c, 0, 81, 64
3, 14820, Note_on_c, 0, 81, 0
3, 14820, Note_on_c, 0, 69, 64
3, 14880, Note_on_c, 0, 69, 0
3, 14880, Note_on_c, 0, 74, 64
3, 14910, Note_on_c, 0, 74, 0
3, 14910, Note_on_c, 0, 76, 64
3, 14925, Note_on_c, 0, 76, 0
3, 14940, Note_on_c, 0, 73, 64
3, 14970, Note_on_c, 0, 73, 0
3, 14970, Note_on_c, 0, 74, 64
3, 14985, Note_on_c, 0, 74, 0
3, 15000, Note_on_c, 0, 76, 64
3, 15030, Note_on_c, 0, 76, 0
3, 15030, Note_on_c, 0, 78, 64
3, 15045, Note_on_c, 0, 78, 0
3, 15060, Note_on_c, 0, 74, 64
3, 15090, Note_on_c, 0, 74, 0
3, 15090, Note_on_c, 0, 76, 64
3, 15105, Note_on_c, 0, 76, 0
3, 15120, Note_on_c, 0, 78, 64
3, 15180, Note_on_c, 0, 78, 0
3, 15180, Note_on_c, 0, 76, 64
3, 15210, Note_on_c, 0, 76, 0
3, 15240, Note_on_c, 0, 74, 64
3, 15300, Note_on_c, 0, 74, 0
3, 15300, Note_on_c, 0, 76, 64
3, 15330, Note_on_c, 0, 76, 0
3, 15360, Note_on_c, 0, 78, 64
3, 15390, Note_on_c, 0, 78, 0
3, 15390, Note_on_c, 0, 79, 64
3, 15405, Note_on_c, 0, 79, 0
3, 15420, Note_on_c, 0, 76, 64
3, 15450, Note_on_c, 0, 76, 0
3, 15450, Note_on_c, 0, 78, 64
3, 15465, Note_on_c, 0, 78, 0
3, 15480, Note_on_c, 0, 79, 64
3, 15510, Note_on_c, 0, 79, 0
3, 15510, Note_on_c, 0, 81, 64
3, 15525, Note_on_c, 0, 81, 0
3, 15540, Note_on_c, 0, 78, 64
3, 15570, Note_on_c, 0, 78, 0
3, 15570, Note_on_c, 0, 79, 64
3, 15585, Note_on_c, 0, 79, 0
3, 15600, Note_on_c, 0, 81, 64
3, 15630, Note_on_c, 0, 81, 0
3, 15660, Note_on_c, 0, 83, 64
3, 15690, Note_on_c, 0, 83, 0
3, 15690, Note_on_c, 0, 84, 64
3, 15720, Note_on_c, 0, 84, 0
3, 15720, Note_on_c, 0, 86, 64
3, 15870, Note_on_c, 0, 86, 0
3, 15870, Note_on_c, 0, 84, 64
3, 15885, Note_on_c, 0, 84, 0
3, 15900, Note_on_c, 0, 88, 64
3, 15930, Note_on_c, 0, 88, 0
3, 15930, Note_on_c, 0, 86, 64
3, 15945, Note_on_c, 0, 86, 0
3, 15960, Note_on_c, 0, 84, 64
3, 15990, Note_on_c, 0, 84, 0
3, 15990, Note_on_c, 0, 83, 64
3, 16005, Note_on_c, 0, 83, 0
3, 16020, Note_on_c, 0, 86, 64
3, 16050, Note_on_c, 0, 86, 0
3, 16050, Note_on_c, 0, 84, 64
3, 16065, Note_on_c, 0, 84, 0
3, 16080, Note_on_c, 0, 83, 64
3, 16110, Note_on_c, 0, 83, 0
3, 16110, Note_on_c, 0, 81, 64
3, 16125, Note_on_c, 0, 81, 0
3, 16140, Note_on_c, 0, 84, 64
3, 16170, Note_on_c, 0, 84, 0
3, 16170, Note_on_c, 0, 83, 64
3, 16185, Note_on_c, 0, 83, 0
3, 16200, Note_on_c, 0, 81, 64
3, 16230, Note_on_c, 0, 81, 0
3, 16230, Note_on_c, 0, 79, 64
3, 16245, Note_on_c, 0, 79, 0
3, 16260, Note_on_c, 0, 83, 64
3, 16290, Note_on_c, 0, 83, 0
3, 16290, Note_on_c, 0, 81, 64
3, 16305, Note_on_c, 0, 81, 0
3, 16320, Note_on_c, 0, 79, 64
3, 16500, Note_on_c, 0, 79, 0
3, 16500, Note_on_c, 0, 78, 64
3, 16530, Note_on_c, 0, 78, 0
3, 16530, Note_on_c, 0, 76, 64
3, 16560, Note_on_c, 0, 76, 0
3, 16560, Note_on_c, 0, 74, 64
3, 16740, Note_on_c, 0, 74, 0
3, 16740, Note_on_c, 0, 62, 64
3, 16800, Note_on_c, 0, 62, 0
3, 16800, Note_on_c, 0, 67, 64
3, 16830, Note_on_c, 0, 67, 0
3, 16830, Note_on_c, 0, 69, 64
3, 16845, Note_on_c, 0, 69, 0
3, 16860, Note_on_c, 0, 66, 64
3, 16890, Note_on_c, 0, 66, 0
3, 16890, Note_on_c, 0, 67, 64
3, 16905, Note_on_c, 0, 67, 0
3, 16920, Note_on_c, 0, 69, 64
3, 16950, Note_on_c, 0, 69, 0
3, 16950, Note_on_c, 0, 71, 64
3, 16965, Note_on_c, 0, 71, 0
3, 16980, Note_on_c, 0, 67, 64
3, 17010, Note_on_c, 0, 67, 0
3, 17010, Note_on_c, 0, 69, 64
3, 17025, Note_on_c, 0, 69, 0
3, 17040, Note_on_c, 0, 71, 64
3, 17100, Note_on_c, 0, 71, 0
3, 17100, Note_on_c, 0, 69, 64
3, 17130, Note_on_c, 0, 69, 0
3, 17160, Note_on_c, 0, 67, 64
3, 17220, Note_on_c, 0, 67, 0
3, 17220, Note_on_c, 0, 69, 64
3, 17250, Note_on_c, 0, 69, 0
3, 17280, Note_on_c, 0, 71, 64
3, 17310, Note_on_c, 0, 71, 0
3, 17310, Note_on_c, 0, 72, 64
3, 17325, Note_on_c, 0, 72, 0
3, 17340, Note_on_c, 0, 69, 64
3, 17370, Note_on_c, 0, 69, 0
3, 17370, Note_on_c, 0, 71, 64
3, 17385, Note_on_c, 0, 71, 0
3, 17400, Note_on_c, 0, 72, 64
3, 17430, Note_on_c, 0, 72, 0
3, 17430, Note_on_c, 0, 74, 64
3, 17445, Note_on_c, 0, 74, 0
3, 17460, Note_on_c, 0, 71, 64
3, 17490, Note_on_c, 0, 71, 0
3, 17490, Note_on_c, 0, 72, 64
3, 17505, Note_on_c, 0, 72, 0
3, 17520, Note_on_c, 0, 74, 64
3, 17550, Note_on_c, 0, 74, 0
3, 17580, Note_on_c, 0, 76, 64
3, 17610, Note_on_c, 0, 76, 0
3, 17610, Note_on_c, 0, 78, 64
3, 17640, Note_on_c, 0, 78, 0
3, 17640, Note_on_c, 0, 79, 64
3, 17790, Note_on_c, 0, 79, 0
3, 17790, Note_on_c, 0, 77, 64
3, 17805, Note_on_c, 0, 77, 0
3, 17820, Note_on_c, 0, 81, 64
3, 17850, Note_on_c, 0, 81, 0
3, 17850, Note_on_c, 0, 79, 64
3, 17865, Note_on_c, 0, 79, 0
3, 17880, Note_on_c, 0, 77, 64
3, 17910, Note_on_c, 0, 77, 0
3, 17910, Note_on_c, 0, 76, 64
3, 17925, Note_on_c, 0, 76, 0
3, 17940, Note_on_c, 0, 79, 64
3, 17970, Note_on_c, 0, 79, 0
3, 17970, Note_on_c, 0, 77, 64
3, 17985, Note_on_c, 0, 77, 0
3, 18000, Note_on_c, 0, 76, 64
3, 18030, Note_on_c, 0, 76, 0
3, 18030, Note_on_c, 0, 74, 64
3, 18045, Note_on_c, 0, 74, 0
3, 18060, Note_on_c, 0, 77, 64
3, 18090, Note_on_c, 0, 77, 0
3, 18090, Note_on_c, 0, 76, 64
3, 18105, Note_on_c, 0, 76, 0
3, 18120, Note_on_c, 0, 74, 64
3, 18150, Note_on_c, 0, 74, 0
3, 18150, Note_on_c, 0, 72, 64
3, 18165, Note_on_c, 0, 72, 0
3, 18180, Note_on_c, 0, 76, 64
3, 18210, Note_on_c, 0, 76, 0
3, 18210, Note_on_c, 0, 74, 64
3, 18225, Note_on_c, 0, 74, 0
3, 18240, Note_on_c, 0, 72, 64
3, 18420, Note_on_c, 0, 72, 0
3, 18420, Note_on_c, 0, 71, 64
3, 18450, Note_on_c, 0, 71, 0
3, 18450, Note_on_c, 0, 69, 64
3, 18480, Note_on_c, 0, 69, 0
3, 18480, Note_on_c, 0, 67, 64
3, 18510, Note_on_c, 0, 67, 0
3, 18960, Note_on_c, 0, 79, 64
3, 18990, Note_on_c, 0, 79, 0
3, 19020, Note_on_c, 0, 78, 64
3, 19050, Note_on_c, 0, 78, 0
3, 19050, Note_on_c, 0, 76, 64
3, 19080, Note_on_c, 0, 76, 0
3, 19080, Note_on_c, 0, 74, 64
3, 19110, Note_on_c, 0, 74, 0
3, 22440, Note_on_c, 0, 79, 64
3, 22470, Note_on_c, 0, 79, 0
3, 22470, Note_on_c, 0, 78, 64
3, 22485, Note_on_c, 0, 78, 0
3, 22500, Note_on_c, 0, 81, 64
3, 22530, Note_on_c, 0, 81, 0
3, 22530, Note_on_c, 0, 79, 64
3, 22545, Note_on_c, 0, 79, 0
3, 22560, Note_on_c, 0, 78, 64
3, 22590, Note_on_c, 0, 78, 0
3, 22590, Note_on_c, 0, 76, 64
3, 22605, Note_on_c, 0, 76, 0
3, 22620, Note_on_c, 0, 79, 64
3, 22650, Note_on_c, 0, 79, 0
3, 22650, Note_on_c, 0, 78, 64
3, 22665, Note_on_c, 0, 78, 0
3, 22680, Note_on_c, 0, 76, 64
3, 22710, Note_on_c, 0, 76, 0
3, 22710, Note_on_c, 0, 74, 64
3, 22725, Note_on_c, 0, 74, 0
3, 22740, Note_on_c, 0, 78, 64
3, 22770, Note_on_c, 0, 78, 0
3, 22770, Note_on_c, 0, 76, 64
3, 22785, Note_on_c, 0, 76, 0
3, 22800, Note_on_c, 0, 76, 64
3, 22920, Note_on_c, 0, 76, 0
3, 22920, Note_on_c, 0, 74, 64
3, 22935, Note_on_c, 0, 74, 0
3, 22950, Note_on_c, 0, 72, 64
3, 22980, Note_on_c, 0, 72, 0
3, 22980, Note_on_c, 0, 76, 64
3, 23010, Note_on_c, 0, 76, 0
3, 23010, Note_on_c, 0, 74, 64
3, 23025, Note_on_c, 0, 74, 0
3, 23040, Note_on_c, 0, 72, 64
3, 23070, Note_on_c, 0, 72, 0
3, 23070, Note_on_c, 0, 71, 64
3, 23085, Note_on_c, 0, 71, 0
3, 23100, Note_on_c, 0, 74, 64
3, 23130, Note_on_c, 0, 74, 0
3, 23130, Note_on_c, 0, 72, 64
3, 23145, Note_on_c, 0, 72, 0
3, 23160, Note_on_c, 0, 71, 64
3, 23190, Note_on_c, 0, 71, 0
3, 23190, Note_on_c, 0, 69, 64
3, 23205, Note_on_c, 0, 69, 0
3, 23220, Note_on_c, 0, 72, 64
3, 23250, Note_on_c, 0, 72, 0
3, 23250, Note_on_c, 0, 71, 64
3, 23265, Note_on_c, 0, 71, 0
3, 23280, Note_on_c, 0, 71, 64
3, 23400, Note_on_c, 0, 71, 0
3, 23400, Note_on_c, 0, 69, 64
3, 23415, Note_on_c, 0, 69, 0
3, 23430, Note_on_c, 0, 81, 64
3, 23460, Note_on_c, 0, 81, 0
3, 23460, Note_on_c, 0, 78, 64
3, 23490, Note_on_c, 0, 78, 0
3, 23490, Note_on_c, 0, 74, 64
3, 23520, Note_on_c, 0, 74, 0
3, 23520, Note_on_c, 0, 74, 64
3, 23640, Note_on_c, 0, 74, 0
3, 23640, Note_on_c, 0, 72, 64
3, 23655, Note_on_c, 0, 72, 0
3, 23670, Note_on_c, 0, 81, 64
3, 23700, Note_on_c, 0, 81, 0
3, 23700, Note_on_c, 0, 78, 64
3, 23730, Note_on_c, 0, 78, 0
3, 23730, Note_on_c, 0, 74, 64
3, 23760, Note_on_c, 0, 74, 0
3, 23760, Note_on_c, 0, 72, 64
3, 23790, Note_on_c, 0, 72, 0
3, 23790, Note_on_c, 0, 81, 64
3, 23820, Note_on_c, 0, 81, 0
3, 23820, Note_on_c, 0, 78, 64
3, 23850, Note_on_c, 0, 78, 0
3, 23850, Note_on_c, 0, 74, 64
3, 23880, Note_on_c, 0, 74, 0
3, 23880, Note_on_c, 0, 72, 64
3, 23910, Note_on_c, 0, 72, 0
3, 23910, Note_on_c, 0, 81, 64
3, 23940, Note_on_c, 0, 81, 0
3, 23940, Note_on_c, 0, 78, 64
3, 23970, Note_on_c, 0, 78, 0
3, 23970, Note_on_c, 0, 74, 64
3, 24000, Note_on_c, 0, 74, 0
3, 24000, Note_on_c, 0, 72, 64
3, 24120, Note_on_c, 0, 72, 0
3, 24120, Note_on_c, 0, 71, 64
3, 24135, Note_on_c, 0, 71, 0
3, 24150, Note_on_c, 0, 74, 64
3, 24180, Note_on_c, 0, 74, 0
3, 24180, Note_on_c, 0, 79, 64
3, 24210, Note_on_c, 0, 79, 0
3, 24210, Note_on_c, 0, 76, 64
3, 24240, Note_on_c, 0, 76, 0
3, 24240, Note_on_c, 0, 73, 64
3, 24360, Note_on_c, 0, 73, 0
3, 24360, Note_on_c, 0, 74, 64
3, 24375, Note_on_c, 0, 74, 0
3, 24390, Note_on_c, 0, 78, 64
3, 24420, Note_on_c, 0, 78, 0
3, 24420, Note_on_c, 0, 83, 64
3, 24450, Note_on_c, 0, 83, 0
3, 24450, Note_on_c, 0, 79, 64
3, 24480, Note_on_c, 0, 79, 0
3, 24480, Note_on_c, 0, 73, 64
3, 24600, Note_on_c, 0, 73, 0
3, 24600, Note_on_c, 0, 74, 64
3, 24615, Note_on_c, 0, 74, 0
3, 24630, Note_on_c, 0, 81, 64
3, 24660, Note_on_c, 0, 81, 0
3, 24660, Note_on_c, 0, 86, 64
3, 24690, Note_on_c, 0, 86, 0
3, 24690, Note_on_c, 0, 83, 64
3, 24720, Note_on_c, 0, 83, 0
3, 24720, Note_on_c, 0, 83, 64
3, 24840, Note_on_c, 0, 83, 0
3, 24840, Note_on_c, 0, 84, 64
3, 24855, Note_on_c, 0, 84, 0
3, 24870, Note_on_c, 0, 74, 64
3, 24900, Note_on_c, 0, 74, 0
3, 24900, Note_on_c, 0, 78, 64
3, 24930, Note_on_c, 0, 78, 0
3, 24930, Note_on_c, 0, 76, 64
3, 24945, Note_on_c, 0, 76, 0
3, 24960, Note_on_c, 0, 79, 64
3, 24990, Note_on_c, 0, 79, 0
3, 24990, Note_on_c, 0, 78, 64
3, 25005, Note_on_c, 0, 78, 0
3, 25020, Note_on_c, 0, 81, 64
3, 25050, Note_on_c, 0, 81, 0
3, 25050, Note_on_c, 0, 79, 64
3, 25065, Note_on_c, 0, 79, 0
3, 25080, Note_on_c, 0, 83, 64
3, 25110, Note_on_c, 0, 83, 0
3, 25110, Note_on_c, 0, 81, 64
3, 25125, Note_on_c, 0, 81, 0
3, 25140, Note_on_c, 0, 84, 64
3, 25170, Note_on_c, 0, 84, 0
3, 25170, Note_on_c, 0, 81, 64
3, 25185, Note_on_c, 0, 81, 0
3, 25200, Note_on_c, 0, 81, 64
3, 25320, Note_on_c, 0, 81, 0
3, 25320, Note_on_c, 0, 82, 64
3, 25335, Note_on_c, 0, 82, 0
3, 25350, Note_on_c, 0, 72, 64
3, 25380, Note_on_c, 0, 72, 0
3, 25380, Note_on_c, 0, 75, 64
3, 25410, Note_on_c, 0, 75, 0
3, 25410, Note_on_c, 0, 74, 64
3, 25425, Note_on_c, 0, 74, 0
3, 25440, Note_on_c, 0, 78, 64
3, 25470, Note_on_c, 0, 78, 0
3, 25470, Note_on_c, 0, 76, 64
3, 25485, Note_on_c, 0, 76, 0
3, 25500, Note_on_c, 0, 79, 64
3, 25530, Note_on_c, 0, 79, 0
3, 25530, Note_on_c, 0, 78, 64
3, 25545, Note_on_c, 0, 78, 0
3, 25560, Note_on_c, 0, 81, 64
3, 25590, Note_on_c, 0, 81, 0
3, 25590, Note_on_c, 0, 79, 64
3, 25605, Note_on_c, 0, 79, 0
3, 25620, Note_on_c, 0, 82, 64
3, 25650, Note_on_c, 0, 82, 0
3, 25650, Note_on_c, 0, 81, 64
3, 25665, Note_on_c, 0, 81, 0
3, 25680, Note_on_c, 0, 85, 64
3, 25800, Note_on_c, 0, 85, 0
3, 25800, Note_on_c, 0, 86, 64
3, 25815, Note_on_c, 0, 86, 0
3, 25830, Note_on_c, 0, 62, 64
3, 25860, Note_on_c, 0, 62, 0
3, 25860, Note_on_c, 0, 66, 64
3, 25890, Note_on_c, 0, 66, 0
3, 25890, Note_on_c, 0, 69, 64
3, 25920, Note_on_c, 0, 69, 0
3, 25920, Note_on_c, 0, 74, 64
3, 25950, Note_on_c, 0, 74, 0
3, 25950, Note_on_c, 0, 69, 64
3, 25980, Note_on_c, 0, 69, 0
3, 25980, Note_on_c, 0, 66, 64
3, 26010, Note_on_c, 0, 66, 0
3, 26010, Note_on_c, 0, 62, 64
3, 26040, Note_on_c, 0, 62, 0
3, 26040, Note_on_c, 0, 66, 64
3, 26070, Note_on_c, 0, 66, 0
3, 26070, Note_on_c, 0, 69, 64
3, 26100, Note_on_c, 0, 69, 0
3, 26100, Note_on_c, 0, 74, 64
3, 26130, Note_on_c, 0, 74, 0
3, 26130, Note_on_c, 0, 69, 64
3, 26160, Note_on_c, 0, 69, 0
3, 26160, Note_on_c, 0, 79, 64
3, 26280, Note_on_c, 0, 79, 0
3, 26280, Note_on_c, 0, 78, 64
3, 26295, Note_on_c, 0, 78, 0
3, 26310, Note_on_c, 0, 74, 64
3, 26340, Note_on_c, 0, 74, 0
3, 26340, Note_on_c, 0, 78, 64
3, 26370, Note_on_c, 0, 78, 0
3, 26370, Note_on_c, 0, 81, 64
3, 26400, Note_on_c, 0, 81, 0
3, 26400, Note_on_c, 0, 86, 64
3, 26430, Note_on_c, 0, 86, 0
3, 26430, Note_on_c, 0, 81, 64
3, 26460, Note_on_c, 0, 81, 0
3, 26460, Note_on_c, 0, 78, 64
3, 26490, Note_on_c, 0, 78, 0
3, 26490, Note_on_c, 0, 74, 64
3, 26520, Note_on_c, 0, 74, 0
3, 26520, Note_on_c, 0, 78, 64
3, 26550, Note_on_c, 0, 78, 0
3, 26550, Note_on_c, 0, 81, 64
3, 26580, Note_on_c, 0, 81, 0
3, 26580, Note_on_c, 0, 86, 64
3, 26610, Note_on_c, 0, 86, 0
3, 26610, Note_on_c, 0, 81, 64
3, 26640, Note_on_c, 0, 81, 0
3, 26640, Note_on_c, 0, 90, 64
3, 26760, Note_on_c, 0, 90, 0
3, 26760, Note_on_c, 0, 91, 64
3, 26775, Note_on_c, 0, 91, 0
3, 26790, Note_on_c, 0, 79, 64
3, 26820, Note_on_c, 0, 79, 0
3, 26820, Note_on_c, 0, 83, 64
3, 26850, Note_on_c, 0, 83, 0
3, 26850, Note_on_c, 0, 86, 64
3, 26880, Note_on_c, 0, 86, 0
3, 26880, Note_on_c, 0, 77, 64
3, 27000, Note_on_c, 0, 77, 0
3, 27000, Note_on_c, 0, 76, 64
3, 27015, Note_on_c, 0, 76, 0
3, 27030, Note_on_c, 0, 79, 64
3, 27060, Note_on_c, 0, 79, 0
3, 27060, Note_on_c, 0, 83, 64
3, 27090, Note_on_c, 0, 83, 0
3, 27090, Note_on_c, 0, 86, 64
3, 27120, Note_on_c, 0, 86, 0
3, 27120, Note_on_c, 0, 86, 64
3, 27240, Note_on_c, 0, 86, 0
3, 27240, Note_on_c, 0, 84, 64
3, 27255, Note_on_c, 0, 84, 0
3, 27270, Note_on_c, 0, 76, 64
3, 27300, Note_on_c, 0, 76, 0
3, 27300, Note_on_c, 0, 81, 64
3, 27330, Note_on_c, 0, 81, 0
3, 27330, Note_on_c, 0, 84, 64
3, 27360, Note_on_c, 0, 84, 0
3, 27360, Note_on_c, 0, 76, 64
3, 27480, Note_on_c, 0, 76, 0
3, 27480, Note_on_c, 0, 74, 64
3, 27495, Note_on_c, 0, 74, 0
3, 27510, Note_on_c, 0, 78, 64
3, 27540, Note_on_c, 0, 78, 0
3, 27540, Note_on_c, 0, 81, 64
3, 27570, Note_on_c, 0, 81, 0
3, 27570, Note_on_c, 0, 84, 64
3, 27600, Note_on_c, 0, 84, 0
3, 27600, Note_on_c, 0, 83, 64
3, 27660, Note_on_c, 0, 83, 0
3, 28560, Control_c, 0, 7, 127
3, 28560, Note_on_c, 0, 79, 64
3, 28590, Note_on_c, 0, 79, 0
3, 28620, Note_on_c, 0, 78, 64
3, 28650, Note_on_c, 0, 78, 0
3, 28650, Note_on_c, 0, 76, 64
3, 28680, Note_on_c, 0, 76, 0
3, 28680, Note_on_c, 0, 74, 64
3, 28830, Note_on_c, 0, 74, 0
3, 28830, Note_on_c, 0, 72, 64
3, 28845, Note_on_c, 0, 72, 0
3, 28860, Note_on_c, 0, 76, 64
3, 28890, Note_on_c, 0, 76, 0
3, 28890, Note_on_c, 0, 74, 64
3, 28905, Note_on_c, 0, 74, 0
3, 28920, Note_on_c, 0, 72, 64
3, 28950, Note_on_c, 0, 72, 0
3, 28950, Note_on_c, 0, 71, 64
3, 28965, Note_on_c, 0, 71, 0
3, 28980, Note_on_c, 0, 74, 64
3, 29010, Note_on_c, 0, 74, 0
3, 29010, Note_on_c, 0, 72, 64
3, 29025, Note_on_c, 0, 72, 0
3, 29040, Note_on_c, 0, 72, 64
3, 29160, Note_on_c, 0, 72, 0
3, 29160, Note_on_c, 0, 71, 64
3, 29220, Note_on_c, 0, 71, 0
3, 29520, Note_on_c, 0, 79, 64
3, 29550, Note_on_c, 0, 79, 0
3, 29580, Note_on_c, 0, 78, 64
3, 29610, Note_on_c, 0, 78, 0
3, 29610, Note_on_c, 0, 76, 64
3, 29640, Note_on_c, 0, 76, 0
3, 29640, Note_on_c, 0, 74, 64
3, 29790, Note_on_c, 0, 74, 0
3, 29790, Note_on_c, 0, 72, 64
3, 29805, Note_on_c, 0, 72, 0
3, 29820, Note_on_c, 0, 76, 64
3, 29850, Note_on_c, 0, 76, 0
3, 29850, Note_on_c, 0, 74, 64
3, 29865, Note_on_c, 0, 74, 0
3, 29880, Note_on_c, 0, 72, 64
3, 29910, Note_on_c, 0, 72, 0
3, 29910, Note_on_c, 0, 71, 64
3, 29925, Note_on_c, 0, 71, 0
3, 29940, Note_on_c, 0, 74, 64
3, 29970, Note_on_c, 0, 74, 0
3, 29970, Note_on_c, 0, 72, 64
3, 29985, Note_on_c, 0, 72, 0
3, 30000, Note_on_c, 0, 72, 64
3, 30060, Note_on_c, 0, 72, 0
3, 30060, Note_on_c, 0, 71, 64
3, 30090, Note_on_c, 0, 71, 0
3, 30120, Note_on_c, 0, 83, 64
3, 30150, Note_on_c, 0, 83, 0
3, 30150, Note_on_c, 0, 81, 64
3, 30165, Note_on_c, 0, 81, 0
3, 30180, Note_on_c, 0, 84, 64
3, 30210, Note_on_c, 0, 84, 0
3, 30210, Note_on_c, 0, 83, 64
3, 30225, Note_on_c, 0, 83, 0
3, 30240, Note_on_c, 0, 81, 64
3, 30270, Note_on_c, 0, 81, 0
3, 30270, Note_on_c, 0, 79, 64
3, 30285, Note_on_c, 0, 79, 0
3, 30300, Note_on_c, 0, 83, 64
3, 30330, Note_on_c, 0, 83, 0
3, 30330, Note_on_c, 0, 81, 64
3, 30345, Note_on_c, 0, 81, 0
3, 30360, Note_on_c, 0, 79, 64
3, 30390, Note_on_c, 0, 79, 0
3, 30390, Note_on_c, 0, 78, 64
3, 30405, Note_on_c, 0, 78, 0
3, 30420, Note_on_c, 0, 81, 64
3, 30450, Note_on_c, 0, 81, 0
3, 30450, Note_on_c, 0, 79, 64
3, 30465, Note_on_c, 0, 79, 0
3, 30480, Note_on_c, 0, 79, 64
3, 30600, Note_on_c, 0, 79, 0
3, 30600, Note_on_c, 0, 78, 58
3, 30630, Note_on_c, 0, 78, 0
3, 30630, Note_on_c, 0, 76, 56
3, 30645, Note_on_c, 0, 76, 0
3, 30660, Note_on_c, 0, 79, 55
3, 30690, Note_on_c, 0, 79, 0
3, 30690, Note_on_c, 0, 78, 53
3, 30705, Note_on_c, 0, 78, 0
3, 30720, Note_on_c, 0, 76, 52
3, 30750, Note_on_c, 0, 76, 0
3, 30750, Note_on_c, 0, 74, 50
3, 30765, Note_on_c, 0, 74, 0
3, 30780, Note_on_c, 0, 78, 49
3, 30810, Note_on_c, 0, 78, 0
3, 30810, Note_on_c, 0, 76, 47
3, 30825, Note_on_c, 0, 76, 0
3, 30840, Note_on_c, 0, 74, 46
3, 30870, Note_on_c, 0, 74, 0
3, 30870, Note_on_c, 0, 72, 44
3, 30885, Note_on_c, 0, 72, 0
3, 30900, Note_on_c, 0, 76, 43
3, 30930, Note_on_c, 0, 76, 0
3, 30930, Note_on_c, 0, 74, 41
3, 30945, Note_on_c, 0, 74, 0
3, 30960, Note_on_c, 0, 74, 45
3, 31080, Note_on_c, 0, 74, 0
3, 31080, Note_on_c, 0, 72, 46
3, 31095, Note_on_c, 0, 72, 0
3, 31110, Note_on_c, 0, 81, 46
3, 31140, Note_on_c, 0, 81, 0
3, 31140, Note_on_c, 0, 78, 46
3, 31170, Note_on_c, 0, 78, 0
3, 31170, Note_on_c, 0, 74, 47
3, 31200, Note_on_c, 0, 74, 0
3, 31200, Note_on_c, 0, 74, 47
3, 31320, Note_on_c, 0, 74, 0
3, 31320, Note_on_c, 0, 72, 48
3, 31335, Note_on_c, 0, 72, 0
3, 31350, Note_on_c, 0, 81, 48
3, 31380, Note_on_c, 0, 81, 0
3, 31380, Note_on_c, 0, 78, 48
3, 31410, Note_on_c, 0, 78, 0
3, 31410, Note_on_c, 0, 74, 49
3, 31440, Note_on_c, 0, 74, 0
3, 31440, Note_on_c, 0, 72, 49
3, 31470, Note_on_c, 0, 72, 0
3, 31470, Note_on_c, 0, 81, 49
3, 31500, Note_on_c, 0, 81, 0
3, 31500, Note_on_c, 0, 78, 49
3, 31530, Note_on_c, 0, 78, 0
3, 31530, Note_on_c, 0, 74, 50
3, 31560, Note_on_c, 0, 74, 0
3, 31560, Note_on_c, 0, 72, 50
3, 31590, Note_on_c, 0, 72, 0
3, 31590, Note_on_c, 0, 81, 50
3, 31620, Note_on_c, 0, 81, 0
3, 31620, Note_on_c, 0, 78, 50
3, 31650, Note_on_c, 0, 78, 0
3, 31650, Note_on_c, 0, 74, 51
3, 31680, Note_on_c, 0, 74, 0
3, 31680, Note_on_c, 0, 72, 51
3, 31800, Note_on_c, 0, 72, 0
3, 31800, Note_on_c, 0, 71, 52
3, 31815, Note_on_c, 0, 71, 0
3, 31830, Note_on_c, 0, 74, 52
3, 31860, Note_on_c, 0, 74, 0
3, 31860, Note_on_c, 0, 79, 52
3, 31890, Note_on_c, 0, 79, 0
3, 31890, Note_on_c, 0, 76, 52
3, 31920, Note_on_c, 0, 76, 0
3, 31920, Note_on_c, 0, 73, 53
3, 32040, Note_on_c, 0, 73, 0
3, 32040, Note_on_c, 0, 74, 54
3, 32055, Note_on_c, 0, 74, 0
3, 32070, Note_on_c, 0, 78, 54
3, 32100, Note_on_c, 0, 78, 0
3, 32100, Note_on_c, 0, 83, 54
3, 32130, Note_on_c, 0, 83, 0
3, 32130, Note_on_c, 0, 79, 54
3, 32160, Note_on_c, 0, 79, 0
3, 32160, Note_on_c, 0, 73, 55
3, 32280, Note_on_c, 0, 73, 0
3, 32280, Note_on_c, 0, 74, 56
3, 32295, Note_on_c, 0, 74, 0
3, 32310, Note_on_c, 0, 81, 56
3, 32340, Note_on_c, 0, 81, 0
3, 32340, Note_on_c, 0, 86, 56
3, 32370, Note_on_c, 0, 86, 0
3, 32370, Note_on_c, 0, 83, 56
3, 32400, Note_on_c, 0, 83, 0
3, 32400, Note_on_c, 0, 83, 57
3, 32520, Note_on_c, 0, 83, 0
3, 32520, Note_on_c, 0, 84, 57
3, 32535, Note_on_c, 0, 84, 0
3, 32550, Note_on_c, 0, 74, 58
3, 32580, Note_on_c, 0, 74, 0
3, 32580, Note_on_c, 0, 78, 58
3, 32610, Note_on_c, 0, 78, 0
3, 32610, Note_on_c, 0, 76, 58
3, 32625, Note_on_c, 0, 76, 0
3, 32640, Note_on_c, 0, 79, 58
3, 32670, Note_on_c, 0, 79, 0
3, 32670, Note_on_c, 0, 78, 59
3, 32685, Note_on_c, 0, 78, 0
3, 32700, Note_on_c, 0, 81, 59
3, 32730, Note_on_c, 0, 81, 0
3, 32730, Note_on_c, 0, 79, 59
3, 32745, Note_on_c, 0, 79, 0
3, 32760, Note_on_c, 0, 83, 59
3, 32790, Note_on_c, 0, 83, 0
3, 32790, Note_on_c, 0, 81, 60
3, 32805, Note_on_c, 0, 81, 0
3, 32820, Note_on_c, 0, 84, 60
3, 32850, Note_on_c, 0, 84, 0
3, 32850, Note_on_c, 0, 81, 60
3, 32865, Note_on_c, 0, 81, 0
3, 32880, Note_on_c, 0, 81, 60
3, 33000, Note_on_c, 0, 81, 0
3, 33000, Note_on_c, 0, 82, 61
3, 33015, Note_on_c, 0, 82, 0
3, 33030, Note_on_c, 0, 73, 62
3, 33060, Note_on_c, 0, 73, 0
3, 33060, Note_on_c, 0, 76, 62
3, 33090, Note_on_c, 0, 76, 0
3, 33090, Note_on_c, 0, 74, 62
3, 33105, Note_on_c, 0, 74, 0
3, 33120, Note_on_c, 0, 78, 62
3, 33150, Note_on_c, 0, 78, 0
3, 33150, Note_on_c, 0, 76, 62
3, 33165, Note_on_c, 0, 76, 0
3, 33180, Note_on_c, 0, 79, 63
3, 33210, Note_on_c, 0, 79, 0
3, 33210, Note_on_c, 0, 78, 63
3, 33225, Note_on_c, 0, 78, 0
3, 33240, Note_on_c, 0, 81, 63
3, 33270, Note_on_c, 0, 81, 0
3, 33270, Note_on_c, 0, 79, 63
3, 33285, Note_on_c, 0, 79, 0
3, 33300, Note_on_c, 0, 82, 64
3, 33330, Note_on_c, 0, 82, 0
3, 33330, Note_on_c, 0, 81, 64
3, 33345, Note_on_c, 0, 81, 0
3, 33360, Note_on_c, 0, 85, 64
3, 33480, Note_on_c, 0, 85, 0
3, 33480, Note_on_c, 0, 86, 65
3, 33495, Note_on_c, 0, 86, 0
3, 33510, Note_on_c, 0, 74, 65
3, 33540, Note_on_c, 0, 74, 0
3, 33540, Note_on_c, 0, 78, 66
3, 33570, Note_on_c, 0, 78, 0
3, 33570, Note_on_c, 0, 81, 66
3, 33600, Note_on_c, 0, 81, 0
3, 33600, Note_on_c, 0, 86, 66
3, 33630, Note_on_c, 0, 86, 0
3, 33630, Note_on_c, 0, 81, 66
3, 33660, Note_on_c, 0, 81, 0
3, 33660, Note_on_c, 0, 78, 67
3, 33690, Note_on_c, 0, 78, 0
3, 33690, Note_on_c, 0, 74, 67
3, 33720, Note_on_c, 0, 74, 0
3, 33720, Note_on_c, 0, 78, 67
3, 33750, Note_on_c, 0, 78, 0
3, 33750, Note_on_c, 0, 81, 67
3, 33780, Note_on_c, 0, 81, 0
3, 33780, Note_on_c, 0, 86, 68
3, 33810, Note_on_c, 0, 86, 0
3, 33810, Note_on_c, 0, 81, 68
3, 33840, Note_on_c, 0, 81, 0
3, 33840, Note_on_c, 0, 91, 70
3, 33960, Note_on_c, 0, 91, 0
3, 33960, Note_on_c, 0, 90, 71
3, 33975, Note_on_c, 0, 90, 0
3, 33990, Note_on_c, 0, 74, 71
3, 34020, Note_on_c, 0, 74, 0
3, 34020, Note_on_c, 0, 78, 71
3, 34050, Note_on_c, 0, 78, 0
3, 34050, Note_on_c, 0, 81, 71
3, 34080, Note_on_c, 0, 81, 0
3, 34080, Note_on_c, 0, 86, 72
3, 34110, Note_on_c, 0, 86, 0
3, 34110, Note_on_c, 0, 81, 72
3, 34140, Note_on_c, 0, 81, 0
3, 34140, Note_on_c, 0, 78, 72
3, 34170, Note_on_c, 0, 78, 0
3, 34170, Note_on_c, 0, 74, 72
3, 34200, Note_on_c, 0, 74, 0
3, 34200, Note_on_c, 0, 78, 73
3, 34230, Note_on_c, 0, 78, 0
3, 34230, Note_on_c, 0, 81, 73
3, 34260, Note_on_c, 0, 81, 0
3, 34260, Note_on_c, 0, 86, 73
3, 34290, Note_on_c, 0, 86, 0
3, 34290, Note_on_c, 0, 81, 73
3, 34320, Note_on_c, 0, 81, 0
3, 34320, Note_on_c, 0, 90, 73
3, 34440, Note_on_c, 0, 90, 0
3, 34440, Note_on_c, 0, 91, 74
3, 34455, Note_on_c, 0, 91, 0
3, 34470, Note_on_c, 0, 79, 74
3, 34500, Note_on_c, 0, 79, 0
3, 34500, Note_on_c, 0, 83, 75
3, 34530, Note_on_c, 0, 83, 0
3, 34530, Note_on_c, 0, 86, 75
3, 34560, Note_on_c, 0, 86, 0
3, 34560, Note_on_c, 0, 77, 75
3, 34680, Note_on_c, 0, 77, 0
3, 34680, Note_on_c, 0, 76, 76
3, 34695, Note_on_c, 0, 76, 0
3, 34710, Note_on_c, 0, 79, 76
3, 34740, Note_on_c, 0, 79, 0
3, 34740, Note_on_c, 0, 83, 76
3, 34770, Note_on_c, 0, 83, 0
3, 34770, Note_on_c, 0, 86, 76
3, 34800, Note_on_c, 0, 86, 0
3, 34800, Note_on_c, 0, 86, 77
3, 34920, Note_on_c, 0, 86, 0
3, 34920, Note_on_c, 0, 84, 78
3, 34935, Note_on_c, 0, 84, 0
3, 34950, Note_on_c, 0, 76, 78
3, 34980, Note_on_c, 0, 76, 0
3, 34980, Note_on_c, 0, 81, 78
3, 35010, Note_on_c, 0, 81, 0
3, 35010, Note_on_c, 0, 84, 78
3, 35040, Note_on_c, 0, 84, 0
3, 35040, Note_on_c, 0, 76, 78
3, 35160, Note_on_c, 0, 76, 0
3, 35160, Note_on_c, 0, 74, 79
3, 35175, Note_on_c, 0, 74, 0
3, 35190, Note_on_c, 0, 78, 79
3, 35220, Note_on_c, 0, 78, 0
3, 35220, Note_on_c, 0, 81, 80
3, 35250, Note_on_c, 0, 81, 0
3, 35250, Note_on_c, 0, 84, 80
3, 35280, Note_on_c, 0, 84, 0
3, 35280, Note_on_c, 0, 83, 75
3, 35310, Note_on_c, 0, 83, 0
3, 35310, Note_on_c, 0, 86, 75
3, 35340, Note_on_c, 0, 86, 0
3, 35340, Note_on_c, 0, 83, 75
3, 35370, Note_on_c, 0, 83, 0
3, 35370, Note_on_c, 0, 79, 75
3, 35400, Note_on_c, 0, 79, 0
3, 35400, Note_on_c, 0, 74, 75
3, 35430, Note_on_c, 0, 74, 0
3, 35430, Note_on_c, 0, 79, 75
3, 35445, Note_on_c, 0, 79, 0
3, 35460, Note_on_c, 0, 81, 75
3, 35490, Note_on_c, 0, 81, 0
3, 35490, Note_on_c, 0, 78, 75
3, 35505, Note_on_c, 0, 78, 0
3, 35520, Note_on_c, 0, 78, 75
3, 35640, Note_on_c, 0, 78, 0
3, 35640, Note_on_c, 0, 79, 64
3, 35655, Note_on_c, 0, 79, 0
3, 35670, Note_on_c, 0, 78, 56
3, 35700, Note_on_c, 0, 78, 0
3, 35700, Note_on_c, 0, 76, 48
3, 35730, Note_on_c, 0, 76, 0
3, 35730, Note_on_c, 0, 75, 40
3, 35760, Note_on_c, 0, 75, 0
3, 35760, Control_c, 0, 7, 90
3, 35760, Note_on_c, 0, 76, 64
3, 35790, Note_on_c, 0, 76, 0
3, 35790, Note_on_c, 0, 75, 64
3, 35805, Note_on_c, 0, 75, 0
3, 35820, Note_on_c, 0, 78, 64
3, 35850, Note_on_c, 0, 78, 0
3, 35850, Note_on_c, 0, 76, 64
3, 35865, Note_on_c, 0, 76, 0
3, 35880, Note_on_c, 0, 75, 64
3, 35910, Note_on_c, 0, 75, 0
3, 35910, Note_on_c, 0, 73, 64
3, 35925, Note_on_c, 0, 73, 0
3, 35940, Note_on_c, 0, 76, 64
3, 35970, Note_on_c, 0, 76, 0
3, 35970, Note_on_c, 0, 74, 64
3, 35985, Note_on_c, 0, 74, 0
3, 36000, Note_on_c, 0, 72, 64
3, 36030, Note_on_c, 0, 72, 0
3, 36030, Note_on_c, 0, 71, 64
3, 36045, Note_on_c, 0, 71, 0
3, 36060, Note_on_c, 0, 74, 64
3, 36090, Note_on_c, 0, 74, 0
3, 36090, Note_on_c, 0, 72, 64
3, 36105, Note_on_c, 0, 72, 0
3, 36120, Note_on_c, 0, 71, 64
3, 36150, Note_on_c, 0, 71, 0
3, 36150, Note_on_c, 0, 69, 64
3, 36165, Note_on_c, 0, 69, 0
3, 36180, Note_on_c, 0, 72, 64
3, 36210, Note_on_c, 0, 72, 0
3, 36210, Note_on_c, 0, 71, 64
3, 36225, Note_on_c, 0, 71, 0
3, 36240, Note_on_c, 0, 69, 64
3, 36270, Note_on_c, 0, 69, 0
3, 36270, Note_on_c, 0, 67, 64
3, 36285, Note_on_c, 0, 67, 0
3, 36300, Note_on_c, 0, 71, 64
3, 36330, Note_on_c, 0, 71, 0
3, 36330, Note_on_c, 0, 69, 64
3, 36345, Note_on_c, 0, 69, 0
3, 36360, Note_on_c, 0, 67, 64
3, 36390, Note_on_c, 0, 67, 0
3, 36390, Note_on_c, 0, 66, 64
3, 36405, Note_on_c, 0, 66, 0
3, 36420, Note_on_c, 0, 69, 64
3, 36450, Note_on_c, 0, 69, 0
3, 36450, Note_on_c, 0, 67, 64
3, 36465, Note_on_c, 0, 67, 0
3, 36480, Note_on_c, 0, 67, 64
3, 36600, Note_on_c, 0, 67, 0
3, 36600, Note_on_c, 0, 66, 64
3, 36615, Note_on_c, 0, 66, 0
3, 36630, Note_on_c, 0, 71, 64
3, 36660, Note_on_c, 0, 71, 0
3, 36660, Note_on_c, 0, 75, 64
3, 36690, Note_on_c, 0, 75, 0
3, 36690, Note_on_c, 0, 78, 64
3, 36720, Note_on_c, 0, 78, 0
3, 36720, Note_on_c, 0, 76, 64
3, 36750, Note_on_c, 0, 76, 0
3, 36750, Note_on_c, 0, 75, 64
3, 36765, Note_on_c, 0, 75, 0
3, 36780, Note_on_c, 0, 78, 64
3, 36810, Note_on_c, 0, 78, 0
3, 36810, Note_on_c, 0, 76, 64
3, 36825, Note_on_c, 0, 76, 0
3, 36840, Note_on_c, 0, 79, 64
3, 36870, Note_on_c, 0, 79, 0
3, 36870, Note_on_c, 0, 78, 64
3, 36885, Note_on_c, 0, 78, 0
3, 36900, Note_on_c, 0, 81, 64
3, 36930, Note_on_c, 0, 81, 0
3, 36930, Note_on_c, 0, 79, 64
3, 36945, Note_on_c, 0, 79, 0
3, 36960, Note_on_c, 0, 83, 64
3, 36990, Note_on_c, 0, 83, 0
3, 36990, Note_on_c, 0, 81, 64
3, 37005, Note_on_c, 0, 81, 0
3, 37020, Note_on_c, 0, 84, 64
3, 37050, Note_on_c, 0, 84, 0
3, 37050, Note_on_c, 0, 83, 64
3, 37065, Note_on_c, 0, 83, 0
3, 37080, Note_on_c, 0, 81, 64
3, 37110, Note_on_c, 0, 81, 0
3, 37110, Note_on_c, 0, 79, 64
3, 37125, Note_on_c, 0, 79, 0
3, 37140, Note_on_c, 0, 83, 64
3, 37170, Note_on_c, 0, 83, 0
3, 37170, Note_on_c, 0, 81, 64
3, 37185, Note_on_c, 0, 81, 0
3, 37200, Note_on_c, 0, 79, 64
3, 37230, Note_on_c, 0, 79, 0
3, 37260, Note_on_c, 0, 78, 64
3, 37290, Note_on_c, 0, 78, 0
3, 37290, Note_on_c, 0, 76, 64
3, 37320, Note_on_c, 0, 76, 0
3, 37320, Note_on_c, 0, 74, 64
3, 37470, Note_on_c, 0, 74, 0
3, 37470, Note_on_c, 0, 72, 64
3, 37485, Note_on_c, 0, 72, 0
3, 37500, Note_on_c, 0, 77, 64
3, 37530, Note_on_c, 0, 77, 0
3, 37530, Note_on_c, 0, 76, 64
3, 37545, Note_on_c, 0, 76, 0
3, 37560, Note_on_c, 0, 74, 64
3, 37590, Note_on_c, 0, 74, 0
3, 37590, Note_on_c, 0, 72, 64
3, 37605, Note_on_c, 0, 72, 0
3, 37620, Note_on_c, 0, 76, 64
3, 37650, Note_on_c, 0, 76, 0
3, 37650, Note_on_c, 0, 74, 64
3, 37665, Note_on_c, 0, 74, 0
3, 37680, Note_on_c, 0, 72, 64
3, 37710, Note_on_c, 0, 72, 0
3, 37710, Note_on_c, 0, 71, 64
3, 37725, Note_on_c, 0, 71, 0
3, 37740, Note_on_c, 0, 74, 64
3, 37770, Note_on_c, 0, 74, 0
3, 37770, Note_on_c, 0, 72, 64
3, 37785, Note_on_c, 0, 72, 0
3, 37800, Note_on_c, 0, 71, 64
3, 37830, Note_on_c, 0, 71, 0
3, 37830, Note_on_c, 0, 69, 64
3, 37845, Note_on_c, 0, 69, 0
3, 37860, Note_on_c, 0, 72, 64
3, 37890, Note_on_c, 0, 72, 0
3, 37890, Note_on_c, 0, 71, 64
3, 37905, Note_on_c, 0, 71, 0
3, 37920, Note_on_c, 0, 69, 64
3, 37950, Note_on_c, 0, 69, 0
3, 37950, Note_on_c, 0, 67, 64
3, 37965, Note_on_c, 0, 67, 0
3, 37980, Note_on_c, 0, 72, 64
3, 38010, Note_on_c, 0, 72, 0
3, 38010, Note_on_c, 0, 71, 64
3, 38025, Note_on_c, 0, 71, 0
3, 38040, Note_on_c, 0, 69, 64
3, 38070, Note_on_c, 0, 69, 0
3, 38070, Note_on_c, 0, 67, 64
3, 38085, Note_on_c, 0, 67, 0
3, 38100, Note_on_c, 0, 71, 64
3, 38130, Note_on_c, 0, 71, 0
3, 38130, Note_on_c, 0, 69, 64
3, 38145, Note_on_c, 0, 69, 0
3, 38160, Note_on_c, 0, 67, 64
3, 38190, Note_on_c, 0, 67, 0
3, 38190, Note_on_c, 0, 66, 64
3, 38205, Note_on_c, 0, 66, 0
3, 38220, Note_on_c, 0, 71, 64
3, 38250, Note_on_c, 0, 71, 0
3, 38250, Note_on_c, 0, 69, 64
3, 38265, Note_on_c, 0, 69, 0
3, 38280, Note_on_c, 0, 67, 64
3, 38310, Note_on_c, 0, 67, 0
3, 38310, Note_on_c, 0, 66, 64
3, 38325, Note_on_c, 0, 66, 0
3, 38340, Note_on_c, 0, 69, 64
3, 38370, Note_on_c, 0, 69, 0
3, 38370, Note_on_c, 0, 67, 64
3, 38385, Note_on_c, 0, 67, 0
3, 38400, Note_on_c, 0, 66, 64
3, 38520, Note_on_c, 0, 66, 0
3, 38520, Note_on_c, 0, 64, 64
3, 38535, Note_on_c, 0, 64, 0
3, 38550, Note_on_c, 0, 83, 64
3, 38551, Control_c, 0, 7, 127
3, 38580, Note_on_c, 0, 83, 0
3, 38580, Note_on_c, 0, 79, 64
3, 38610, Note_on_c, 0, 79, 0
3, 38610, Note_on_c, 0, 76, 64
3, 38640, Note_on_c, 0, 76, 0
3, 38640, Note_on_c, 0, 76, 64
3, 38760, Note_on_c, 0, 76, 0
3, 38760, Note_on_c, 0, 74, 64
3, 38775, Note_on_c, 0, 74, 0
3, 38790, Note_on_c, 0, 83, 64
3, 38820, Note_on_c, 0, 83, 0
3, 38820, Note_on_c, 0, 80, 64
3, 38850, Note_on_c, 0, 80, 0
3, 38850, Note_on_c, 0, 76, 64
3, 38880, Note_on_c, 0, 76, 0
3, 38880, Note_on_c, 0, 76, 64
3, 39000, Note_on_c, 0, 76, 0
3, 39000, Note_on_c, 0, 74, 64
3, 39015, Note_on_c, 0, 74, 0
3, 39030, Note_on_c, 0, 83, 64
3, 39060, Note_on_c, 0, 83, 0
3, 39060, Note_on_c, 0, 80, 64
3, 39090, Note_on_c, 0, 80, 0
3, 39090, Note_on_c, 0, 76, 64
3, 39120, Note_on_c, 0, 76, 0
3, 39120, Note_on_c, 0, 74, 64
3, 39150, Note_on_c, 0, 74, 0
3, 39150, Note_on_c, 0, 83, 64
3, 39180, Note_on_c, 0, 83, 0
3, 39180, Note_on_c, 0, 80, 64
3, 39210, Note_on_c, 0, 80, 0
3, 39210, Note_on_c, 0, 76, 64
3, 39240, Note_on_c, 0, 76, 0
3, 39240, Note_on_c, 0, 74, 64
3, 39270, Note_on_c, 0, 74, 0
3, 39270, Note_on_c, 0, 83, 64
3, 39300, Note_on_c, 0, 83, 0
3, 39300, Note_on_c, 0, 80, 64
3, 39330, Note_on_c, 0, 80, 0
3, 39330, Note_on_c, 0, 76, 64
3, 39360, Note_on_c, 0, 76, 0
3, 39360, Note_on_c, 0, 74, 64
3, 39480, Note_on_c, 0, 74, 0
3, 39480, Note_on_c, 0, 72, 64
3, 39495, Note_on_c, 0, 72, 0
3, 39510, Note_on_c, 0, 76, 64
3, 39540, Note_on_c, 0, 76, 0
3, 39540, Note_on_c, 0, 81, 64
3, 39570, Note_on_c, 0, 81, 0
3, 39570, Note_on_c, 0, 78, 64
3, 39600, Note_on_c, 0, 78, 0
3, 39600, Note_on_c, 0, 75, 64
3, 39720, Note_on_c, 0, 75, 0
3, 39720, Note_on_c, 0, 76, 64
3, 39735, Note_on_c, 0, 76, 0
3, 39750, Note_on_c, 0, 71, 64
3, 39780, Note_on_c, 0, 71, 0
3, 39780, Note_on_c, 0, 79, 64
3, 39810, Note_on_c, 0, 79, 0
3, 39810, Note_on_c, 0, 76, 64
3, 39840, Note_on_c, 0, 76, 0
3, 39840, Note_on_c, 0, 70, 64
3, 39960, Note_on_c, 0, 70, 0
3, 39960, Note_on_c, 0, 71, 64
3, 39975, Note_on_c, 0, 71, 0
3, 39990, Note_on_c, 0, 75, 64
3, 40020, Note_on_c, 0, 75, 0
3, 40020, Note_on_c, 0, 78, 64
3, 40050, Note_on_c, 0, 78, 0
3, 40050, Note_on_c, 0, 81, 64
3, 40080, Note_on_c, 0, 81, 0
3, 40080, Note_on_c, 0, 79, 64
3, 40110, Note_on_c, 0, 79, 0
3, 40110, Note_on_c, 0, 83, 64
3, 40140, Note_on_c, 0, 83, 0
3, 40140, Note_on_c, 0, 79, 64
3, 40170, Note_on_c, 0, 79, 0
3, 40170, Note_on_c, 0, 76, 64
3, 40200, Note_on_c, 0, 76, 0
3, 40200, Note_on_c, 0, 71, 64
3, 40230, Note_on_c, 0, 71, 0
3, 40230, Note_on_c, 0, 76, 64
3, 40260, Note_on_c, 0, 76, 0
3, 40260, Note_on_c, 0, 78, 64
3, 40290, Note_on_c, 0, 78, 0
3, 40290, Note_on_c, 0, 75, 64
3, 40320, Note_on_c, 0, 75, 0
3, 40320, Note_on_c, 0, 75, 64
3, 40440, Note_on_c, 0, 75, 0
3, 40440, Note_on_c, 0, 76, 64
3, 40500, Note_on_c, 0, 76, 0
3, 40560, Control_c, 0, 7, 90
3, 40920, Note_on_c, 0, 71, 64
3, 40950, Note_on_c, 0, 71, 0
3, 40950, Note_on_c, 0, 69, 64
3, 40965, Note_on_c, 0, 69, 0
3, 40980, Note_on_c, 0, 73, 64
3, 41010, Note_on_c, 0, 73, 0
3, 41010, Note_on_c, 0, 71, 64
3, 41025, Note_on_c, 0, 71, 0
3, 41040, Note_on_c, 0, 69, 64
3, 41070, Note_on_c, 0, 69, 0
3, 41070, Note_on_c, 0, 67, 64
3, 41085, Note_on_c, 0, 67, 0
3, 41100, Note_on_c, 0, 71, 64
3, 41130, Note_on_c, 0, 71, 0
3, 41130, Note_on_c, 0, 69, 64
3, 41145, Note_on_c, 0, 69, 0
3, 41160, Note_on_c, 0, 67, 64
3, 41190, Note_on_c, 0, 67, 0
3, 41190, Note_on_c, 0, 66, 64
3, 41205, Note_on_c, 0, 66, 0
3, 41220, Note_on_c, 0, 69, 64
3, 41250, Note_on_c, 0, 69, 0
3, 41250, Note_on_c, 0, 67, 64
3, 41265, Note_on_c, 0, 67, 0
3, 41280, Note_on_c, 0, 67, 64
3, 41400, Note_on_c, 0, 67, 0
3, 41400, Note_on_c, 0, 66, 64
3, 41415, Note_on_c, 0, 66, 0
3, 41430, Note_on_c, 0, 64, 64
3, 41460, Note_on_c, 0, 64, 0
3, 41460, Note_on_c, 0, 67, 64
3, 41490, Note_on_c, 0, 67, 0
3, 41490, Note_on_c, 0, 66, 64
3, 41505, Note_on_c, 0, 66, 0
3, 41520, Note_on_c, 0, 71, 64
3, 41550, Note_on_c, 0, 71, 0
3, 41550, Note_on_c, 0, 70, 64
3, 41565, Note_on_c, 0, 70, 0
3, 41580, Note_on_c, 0, 73, 64
3, 41610, Note_on_c, 0, 73, 0
3, 41610, Note_on_c, 0, 71, 64
3, 41625, Note_on_c, 0, 71, 0
3, 41640, Note_on_c, 0, 74, 64
3, 41670, Note_on_c, 0, 74, 0
3, 41670, Note_on_c, 0, 73, 64
3, 41685, Note_on_c, 0, 73, 0
3, 41700, Note_on_c, 0, 76, 64
3, 41730, Note_on_c, 0, 76, 0
3, 41730, Note_on_c, 0, 74, 64
3, 41745, Note_on_c, 0, 74, 0
3, 41760, Note_on_c, 0, 78, 64
3, 41775, Note_on_c, 0, 78, 0
3, 41790, Note_on_c, 0, 76, 64
3, 41820, Note_on_c, 0, 76, 0
3, 41820, Note_on_c, 0, 79, 64
3, 41850, Note_on_c, 0, 79, 0
3, 41850, Note_on_c, 0, 78, 64
3, 41865, Note_on_c, 0, 78, 0
3, 41880, Note_on_c, 0, 76, 64
3, 41910, Note_on_c, 0, 76, 0
3, 41910, Note_on_c, 0, 74, 64
3, 41925, Note_on_c, 0, 74, 0
3, 41940, Note_on_c, 0, 78, 64
3, 41970, Note_on_c, 0, 78, 0
3, 41970, Note_on_c, 0, 76, 64
3, 41985, Note_on_c, 0, 76, 0
3, 42000, Note_on_c, 0, 75, 64
3, 42030, Note_on_c, 0, 75, 0
3, 42030, Note_on_c, 0, 73, 64
3, 42045, Note_on_c, 0, 73, 0
3, 42060, Note_on_c, 0, 76, 64
3, 42090, Note_on_c, 0, 76, 0
3, 42090, Note_on_c, 0, 75, 64
3, 42105, Note_on_c, 0, 75, 0
3, 42120, Note_on_c, 0, 78, 64
3, 42135, Note_on_c, 0, 78, 0
3, 42150, Note_on_c, 0, 76, 64
3, 42180, Note_on_c, 0, 76, 0
3, 42180, Note_on_c, 0, 79, 64
3, 42210, Note_on_c, 0, 79, 0
3, 42210, Note_on_c, 0, 78, 64
3, 42225, Note_on_c, 0, 78, 0
3, 42240, Note_on_c, 0, 72, 64
3, 42360, Note_on_c, 0, 72, 0
3, 42360, Note_on_c, 0, 71, 64
3, 42375, Note_on_c, 0, 71, 0
3, 42390, Note_on_c, 0, 76, 64
3, 42420, Note_on_c, 0, 76, 0
3, 42420, Note_on_c, 0, 81, 64
3, 42450, Note_on_c, 0, 81, 0
3, 42450, Note_on_c, 0, 78, 64
3, 42480, Note_on_c, 0, 78, 0
3, 42480, Note_on_c, 0, 72, 64
3, 42600, Note_on_c, 0, 72, 0
3, 42600, Note_on_c, 0, 71, 64
3, 42615, Note_on_c, 0, 71, 0
3, 42630, Note_on_c, 0, 74, 64
3, 42660, Note_on_c, 0, 74, 0
3, 42660, Note_on_c, 0, 81, 64
3, 42690, Note_on_c, 0, 81, 0
3, 42690, Note_on_c, 0, 78, 64
3, 42720, Note_on_c, 0, 78, 0
3, 42720, Note_on_c, 0, 78, 64
3, 42840, Note_on_c, 0, 78, 0
3, 42840, Note_on_c, 0, 79, 64
3, 42855, Note_on_c, 0, 79, 0
3, 42870, Note_on_c, 0, 76, 64
3, 42900, Note_on_c, 0, 76, 0
3, 42900, Note_on_c, 0, 74, 64
3, 42930, Note_on_c, 0, 74, 0
3, 42930, Note_on_c, 0, 73, 64
3, 42960, Note_on_c, 0, 73, 0
3, 42960, Note_on_c, 0, 78, 64
3, 43080, Note_on_c, 0, 78, 0
3, 43080, Note_on_c, 0, 79, 64
3, 43095, Note_on_c, 0, 79, 0
3, 43110, Note_on_c, 0, 71, 64
3, 43140, Note_on_c, 0, 71, 0
3, 43140, Note_on_c, 0, 76, 64
3, 43170, Note_on_c, 0, 76, 0
3, 43170, Note_on_c, 0, 73, 64
3, 43200, Note_on_c, 0, 73, 0
3, 43200, Note_on_c, 0, 73, 64
3, 43320, Note_on_c, 0, 73, 0
3, 43320, Note_on_c, 0, 74, 64
3, 43335, Note_on_c, 0, 74, 0
3, 43350, Note_on_c, 0, 71, 64
3, 43380, Note_on_c, 0, 71, 0
3, 43380, Note_on_c, 0, 78, 64
3, 43410, Note_on_c, 0, 78, 0
3, 43410, Note_on_c, 0, 76, 64
3, 43440, Note_on_c, 0, 76, 0
3, 43440, Note_on_c, 0, 78, 64
3, 44460, Note_on_c, 0, 78, 0
3, 45840, End_track
4, 0, Start_track
4, 0, MIDI_port, 0
4, 0, Title_t, "Violin I"
4, 0, Program_c, 1, 48
4, 720, Control_c, 1, 7, 80
4, 720, Note_on_c, 1, 79, 55
4, 750, Note_on_c, 1, 79, 0
4, 780, Note_on_c, 1, 78, 55
4, 810, Note_on_c, 1, 78, 0
4, 810, Note_on_c, 1, 76, 55
4, 840, Note_on_c, 1, 76, 0
4, 840, Note_on_c, 1, 74, 55
4, 990, Note_on_c, 1, 74, 0
4, 990, Note_on_c, 1, 72, 55
4, 1005, Note_on_c, 1, 72, 0
4, 1020, Note_on_c, 1, 76, 55
4, 1050, Note_on_c, 1, 76, 0
4, 1050, Note_on_c, 1, 74, 55
4, 1065, Note_on_c, 1, 74, 0
4, 1080, Note_on_c, 1, 72, 55
4, 1110, Note_on_c, 1, 72, 0
4, 1110, Note_on_c, 1, 71, 55
4, 1125, Note_on_c, 1, 71, 0
4, 1140, Note_on_c, 1, 74, 55
4, 1170, Note_on_c, 1, 74, 0
4, 1170, Note_on_c, 1, 72, 55
4, 1185, Note_on_c, 1, 72, 0
4, 1200, Note_on_c, 1, 72, 55
4, 1320, Note_on_c, 1, 72, 0
4, 1320, Note_on_c, 1, 71, 55
4, 1350, Note_on_c, 1, 71, 0
4, 1350, Note_on_c, 1, 69, 55
4, 1380, Note_on_c, 1, 69, 0
4, 1380, Note_on_c, 1, 67, 55
4, 1410, Note_on_c, 1, 67, 0
4, 1410, Note_on_c, 1, 66, 55
4, 1440, Note_on_c, 1, 66, 0
4, 1440, Note_on_c, 1, 67, 55
4, 1470, Note_on_c, 1, 67, 0
4, 1560, Note_on_c, 1, 60, 55
4, 1590, Note_on_c, 1, 60, 0
4, 1710, Note_on_c, 1, 62, 55
4, 1740, Note_on_c, 1, 62, 0
4, 1740, Note_on_c, 1, 64, 55
4, 1770, Note_on_c, 1, 64, 0
4, 1770, Note_on_c, 1, 66, 55
4, 1800, Note_on_c, 1, 66, 0
4, 1800, Note_on_c, 1, 67, 55
4, 1830, Note_on_c, 1, 67, 0
4, 1860, Note_on_c, 1, 76, 55
4, 1890, Note_on_c, 1, 76, 0
4, 1920, Note_on_c, 1, 66, 55
4, 1950, Note_on_c, 1, 66, 0
4, 1980, Note_on_c, 1, 74, 55
4, 2010, Note_on_c, 1, 74, 0
4, 2040, Note_on_c, 1, 64, 55
4, 2070, Note_on_c, 1, 64, 0
4, 2100, Note_on_c, 1, 73, 55
4, 2130, Note_on_c, 1, 73, 0
4, 2160, Note_on_c, 1, 74, 55
4, 2190, Note_on_c, 1, 74, 0
4, 2220, Note_on_c, 1, 62, 55
4, 2250, Note_on_c, 1, 62, 0
4, 2670, Note_on_c, 1, 64, 54
4, 2700, Note_on_c, 1, 64, 0
4, 2700, Note_on_c, 1, 66, 52
4, 2730, Note_on_c, 1, 66, 0
4, 2730, Note_on_c, 1, 67, 51
4, 2760, Note_on_c, 1, 67, 0
4, 2760, Note_on_c, 1, 69, 50
4, 2790, Note_on_c, 1, 69, 0
4, 2820, Note_on_c, 1, 78, 47
4, 2850, Note_on_c, 1, 78, 0
4, 2880, Note_on_c, 1, 67, 45
4, 2910, Note_on_c, 1, 67, 0
4, 2940, Note_on_c, 1, 76, 42
4, 2970, Note_on_c, 1, 76, 0
4, 3000, Note_on_c, 1, 66, 40
4, 3030, Note_on_c, 1, 66, 0
4, 3060, Note_on_c, 1, 74, 37
4, 3090, Note_on_c, 1, 74, 0
4, 3120, Note_on_c, 1, 73, 35
4, 3150, Note_on_c, 1, 73, 0
4, 3180, Note_on_c, 1, 69, 35
4, 3210, Note_on_c, 1, 69, 0
4, 3240, Note_on_c, 1, 73, 36
4, 3270, Note_on_c, 1, 73, 0
4, 3300, Note_on_c, 1, 76, 36
4, 3390, Note_on_c, 1, 76, 0
4, 3420, Note_on_c, 1, 69, 37
4, 3450, Note_on_c, 1, 69, 0
4, 3480, Note_on_c, 1, 73, 38
4, 3510, Note_on_c, 1, 73, 0
4, 3540, Note_on_c, 1, 76, 38
4, 3630, Note_on_c, 1, 76, 0
4, 3660, Note_on_c, 1, 69, 39
4, 3690, Note_on_c, 1, 69, 0
4, 3720, Note_on_c, 1, 73, 39
4, 3750, Note_on_c, 1, 73, 0
4, 3780, Note_on_c, 1, 76, 40
4, 3810, Note_on_c, 1, 76, 0
4, 3840, Note_on_c, 1, 76, 40
4, 3900, Note_on_c, 1, 76, 0
4, 3900, Note_on_c, 1, 74, 40
4, 3930, Note_on_c, 1, 74, 0
4, 4080, Note_on_c, 1, 74, 42
4, 4140, Note_on_c, 1, 74, 0
4, 4140, Note_on_c, 1, 73, 42
4, 4170, Note_on_c, 1, 73, 0
4, 4320, Note_on_c, 1, 77, 43
4, 4380, Note_on_c, 1, 77, 0
4, 4380, Note_on_c, 1, 76, 44
4, 4410, Note_on_c, 1, 76, 0
4, 4560, Note_on_c, 1, 81, 45
4, 4620, Note_on_c, 1, 81, 0
4, 4620, Note_on_c, 1, 79, 45
4, 4650, Note_on_c, 1, 79, 0
4, 4740, Note_on_c, 1, 64, 46
4, 4770, Note_on_c, 1, 64, 0
4, 4800, Note_on_c, 1, 66, 47
4, 4830, Note_on_c, 1, 66, 0
4, 4860, Note_on_c, 1, 67, 47
4, 4890, Note_on_c, 1, 67, 0
4, 4920, Note_on_c, 1, 69, 48
4, 4950, Note_on_c, 1, 69, 0
4, 4980, Note_on_c, 1, 71, 48
4, 5010, Note_on_c, 1, 71, 0
4, 5040, Note_on_c, 1, 73, 48
4, 5070, Note_on_c, 1, 73, 0
4, 5100, Note_on_c, 1, 74, 49
4, 5130, Note_on_c, 1, 74, 0
4, 5160, Note_on_c, 1, 62, 49
4, 5190, Note_on_c, 1, 62, 0
4, 5220, Note_on_c, 1, 65, 50
4, 5250, Note_on_c, 1, 65, 0
4, 5280, Note_on_c, 1, 67, 50
4, 5310, Note_on_c, 1, 67, 0
4, 5340, Note_on_c, 1, 69, 50
4, 5370, Note_on_c, 1, 69, 0
4, 5400, Note_on_c, 1, 71, 51
4, 5430, Note_on_c, 1, 71, 0
4, 5460, Note_on_c, 1, 73, 51
4, 5490, Note_on_c, 1, 73, 0
4, 5520, Note_on_c, 1, 74, 50
4, 5580, Note_on_c, 1, 74, 0
4, 5580, Note_on_c, 1, 76, 50
4, 5610, Note_on_c, 1, 76, 0
4, 6000, Note_on_c, 1, 81, 64
4, 6480, Control_c, 1, 7, 80
4, 6490, Control_c, 1, 7, 81
4, 6500, Control_c, 1, 7, 82
4, 6510, Control_c, 1, 7, 83
4, 6520, Control_c, 1, 7, 84
4, 6531, Control_c, 1, 7, 85
4, 6541, Control_c, 1, 7, 86
4, 6551, Control_c, 1, 7, 87
4, 6561, Control_c, 1, 7, 88
4, 6571, Control_c, 1, 7, 89
4, 6582, Control_c, 1, 7, 90
4, 6592, Control_c, 1, 7, 91
4, 6602, Control_c, 1, 7, 92
4, 6612, Control_c, 1, 7, 93
4, 6622, Control_c, 1, 7, 94
4, 6633, Control_c, 1, 7, 95
4, 6643, Control_c, 1, 7, 96
4, 6653, Control_c, 1, 7, 97
4, 6663, Control_c, 1, 7, 98
4, 6674, Control_c, 1, 7, 99
4, 6684, Control_c, 1, 7, 100
4, 6694, Control_c, 1, 7, 101
4, 6704, Control_c, 1, 7, 102
4, 6714, Control_c, 1, 7, 103
4, 6725, Control_c, 1, 7, 104
4, 6735, Control_c, 1, 7, 105
4, 6745, Control_c, 1, 7, 106
4, 6755, Control_c, 1, 7, 107
4, 6765, Control_c, 1, 7, 108
4, 6776, Control_c, 1, 7, 109
4, 6786, Control_c, 1, 7, 110
4, 6796, Control_c, 1, 7, 111
4, 6806, Control_c, 1, 7, 112
4, 6817, Control_c, 1, 7, 113
4, 6827, Control_c, 1, 7, 114
4, 6837, Control_c, 1, 7, 115
4, 6847, Control_c, 1, 7, 116
4, 6857, Control_c, 1, 7, 117
4, 6868, Control_c, 1, 7, 118
4, 6878, Control_c, 1, 7, 119
4, 6888, Control_c, 1, 7, 120
4, 6898, Control_c, 1, 7, 121
4, 6908, Control_c, 1, 7, 122
4, 6919, Control_c, 1, 7, 123
4, 6929, Control_c, 1, 7, 124
4, 6939, Control_c, 1, 7, 125
4, 6949, Control_c, 1, 7, 126
4, 7020, Note_on_c, 1, 81, 0
4, 7020, Note_on_c, 1, 79, 64
4, 7050, Note_on_c, 1, 79, 0
4, 7050, Note_on_c, 1, 78, 64
4, 7080, Note_on_c, 1, 78, 0
4, 7080, Note_on_c, 1, 79, 64
4, 7091, Control_c, 1, 7, 127
4, 7092, Control_c, 1, 7, 109
4, 7100, Control_c, 1, 7, 108
4, 7107, Control_c, 1, 7, 107
4, 7114, Control_c, 1, 7, 106
4, 7121, Control_c, 1, 7, 105
4, 7128, Control_c, 1, 7, 104
4, 7135, Control_c, 1, 7, 103
4, 7142, Control_c, 1, 7, 102
4, 7149, Control_c, 1, 7, 101
4, 7156, Control_c, 1, 7, 100
4, 7164, Control_c, 1, 7, 99
4, 7171, Control_c, 1, 7, 98
4, 7178, Control_c, 1, 7, 97
4, 7185, Control_c, 1, 7, 96
4, 7192, Control_c, 1, 7, 95
4, 7199, Control_c, 1, 7, 94
4, 7206, Control_c, 1, 7, 93
4, 7213, Control_c, 1, 7, 92
4, 7221, Control_c, 1, 7, 91
4, 7228, Control_c, 1, 7, 90
4, 7235, Control_c, 1, 7, 89
4, 7242, Control_c, 1, 7, 88
4, 7249, Control_c, 1, 7, 87
4, 7256, Control_c, 1, 7, 86
4, 7263, Control_c, 1, 7, 85
4, 7270, Control_c, 1, 7, 84
4, 7278, Control_c, 1, 7, 83
4, 7285, Control_c, 1, 7, 82
4, 7292, Control_c, 1, 7, 81
4, 7299, Control_c, 1, 7, 80
4, 7380, Note_on_c, 1, 79, 0
4, 7380, Note_on_c, 1, 81, 64
4, 7410, Note_on_c, 1, 81, 0
4, 7410, Note_on_c, 1, 79, 64
4, 7440, Note_on_c, 1, 79, 0
4, 7440, Note_on_c, 1, 78, 64
4, 7470, Note_on_c, 1, 78, 0
4, 7500, Note_on_c, 1, 74, 64
4, 7530, Note_on_c, 1, 74, 0
4, 7560, Note_on_c, 1, 69, 64
4, 7590, Note_on_c, 1, 69, 0
4, 7620, Note_on_c, 1, 73, 64
4, 7650, Note_on_c, 1, 73, 0
4, 7680, Note_on_c, 1, 74, 64
4, 7920, Note_on_c, 1, 74, 0
4, 8400, Note_on_c, 1, 67, 64
4, 8430, Note_on_c, 1, 67, 0
4, 8460, Note_on_c, 1, 66, 64
4, 8490, Note_on_c, 1, 66, 0
4, 8490, Note_on_c, 1, 64, 64
4, 8520, Note_on_c, 1, 64, 0
4, 8520, Note_on_c, 1, 62, 64
4, 8670, Note_on_c, 1, 62, 0
4, 8670, Note_on_c, 1, 60, 64
4, 8685, Note_on_c, 1, 60, 0
4, 8700, Note_on_c, 1, 64, 64
4, 8730, Note_on_c, 1, 64, 0
4, 8730, Note_on_c, 1, 62, 64
4, 8745, Note_on_c, 1, 62, 0
4, 8760, Note_on_c, 1, 60, 64
4, 8790, Note_on_c, 1, 60, 0
4, 8790, Note_on_c, 1, 59, 64
4, 8805, Note_on_c, 1, 59, 0
4, 8820, Note_on_c, 1, 62, 64
4, 8850, Note_on_c, 1, 62, 0
4, 8850, Note_on_c, 1, 60, 64
4, 8865, Note_on_c, 1, 60, 0
4, 8880, Note_on_c, 1, 59, 64
4, 8910, Note_on_c, 1, 59, 0
4, 8940, Note_on_c, 1, 60, 64
4, 8970, Note_on_c, 1, 60, 0
4, 9000, Note_on_c, 1, 62, 64
4, 9030, Note_on_c, 1, 62, 0
4, 9060, Note_on_c, 1, 64, 64
4, 9090, Note_on_c, 1, 64, 0
4, 9090, Note_on_c, 1, 66, 64
4, 9120, Note_on_c, 1, 66, 0
4, 9120, Note_on_c, 1, 67, 64
4, 9150, Note_on_c, 1, 67, 0
4, 9240, Note_on_c, 1, 66, 64
4, 9270, Note_on_c, 1, 66, 0
4, 9360, Note_on_c, 1, 67, 64
4, 9390, Note_on_c, 1, 67, 0
4, 10620, Note_on_c, 1, 62, 64
4, 10680, Note_on_c, 1, 62, 0
4, 10680, Note_on_c, 1, 66, 64
4, 10740, Note_on_c, 1, 66, 0
4, 10740, Note_on_c, 1, 69, 64
4, 10800, Note_on_c, 1, 69, 0
4, 10800, Note_on_c, 1, 71, 64
4, 10980, Note_on_c, 1, 71, 0
4, 10980, Note_on_c, 1, 69, 64
4, 11010, Note_on_c, 1, 69, 0
4, 11010, Note_on_c, 1, 67, 64
4, 11040, Note_on_c, 1, 67, 0
4, 11040, Note_on_c, 1, 69, 64
4, 11220, Note_on_c, 1, 69, 0
4, 11220, Note_on_c, 1, 67, 64
4, 11250, Note_on_c, 1, 67, 0
4, 11250, Note_on_c, 1, 66, 64
4, 11280, Note_on_c, 1, 66, 0
4, 11280, Note_on_c, 1, 67, 64
4, 11340, Note_on_c, 1, 67, 0
4, 11340, Note_on_c, 1, 76, 64
4, 11370, Note_on_c, 1, 76, 0
4, 11400, Note_on_c, 1, 74, 64
4, 11460, Note_on_c, 1, 74, 0
4, 11460, Note_on_c, 1, 72, 64
4, 11490, Note_on_c, 1, 72, 0
4, 11520, Note_on_c, 1, 71, 64
4, 11580, Note_on_c, 1, 71, 0
4, 11580, Note_on_c, 1, 69, 64
4, 11610, Note_on_c, 1, 69, 0
4, 11640, Note_on_c, 1, 67, 64
4, 11700, Note_on_c, 1, 67, 0
4, 11700, Note_on_c, 1, 66, 64
4, 11730, Note_on_c, 1, 66, 0
4, 11760, Note_on_c, 1, 67, 64
4, 11820, Note_on_c, 1, 67, 0
4, 12000, Note_on_c, 1, 67, 64
4, 12030, Note_on_c, 1, 67, 0
4, 12060, Note_on_c, 1, 66, 64
4, 12090, Note_on_c, 1, 66, 0
4, 12090, Note_on_c, 1, 64, 64
4, 12120, Note_on_c, 1, 64, 0
4, 12120, Note_on_c, 1, 62, 64
4, 12540, Note_on_c, 1, 62, 0
4, 12540, Note_on_c, 1, 60, 64
4, 12570, Note_on_c, 1, 60, 0
4, 12570, Note_on_c, 1, 59, 64
4, 12585, Note_on_c, 1, 59, 0
4, 12600, Note_on_c, 1, 57, 64
4, 12630, Note_on_c, 1, 57, 0
4, 12630, Note_on_c, 1, 55, 64
4, 12645, Note_on_c, 1, 55, 0
4, 12660, Note_on_c, 1, 59, 64
4, 12690, Note_on_c, 1, 59, 0
4, 12690, Note_on_c, 1, 57, 64
4, 12705, Note_on_c, 1, 57, 0
4, 12720, Note_on_c, 1, 55, 64
4, 12750, Note_on_c, 1, 55, 0
4, 12750, Note_on_c, 1, 67, 64
4, 12780, Note_on_c, 1, 67, 0
4, 12780, Note_on_c, 1, 66, 64
4, 12810, Note_on_c, 1, 66, 0
4, 12810, Note_on_c, 1, 64, 64
4, 12840, Note_on_c, 1, 64, 0
4, 12840, Note_on_c, 1, 62, 64
4, 12990, Note_on_c, 1, 62, 0
4, 12990, Note_on_c, 1, 60, 64
4, 13005, Note_on_c, 1, 60, 0
4, 13020, Note_on_c, 1, 64, 64
4, 13050, Note_on_c, 1, 64, 0
4, 13050, Note_on_c, 1, 62, 64
4, 13065, Note_on_c, 1, 62, 0
4, 13080, Note_on_c, 1, 60, 64
4, 13110, Note_on_c, 1, 60, 0
4, 13110, Note_on_c, 1, 59, 64
4, 13125, Note_on_c, 1, 59, 0
4, 13140, Note_on_c, 1, 62, 64
4, 13170, Note_on_c, 1, 62, 0
4, 13170, Note_on_c, 1, 60, 64
4, 13185, Note_on_c, 1, 60, 0
4, 13200, Note_on_c, 1, 59, 64
4, 13230, Note_on_c, 1, 59, 0
4, 14760, Note_on_c, 1, 74, 64
4, 14790, Note_on_c, 1, 74, 0
4, 14820, Note_on_c, 1, 73, 64
4, 14850, Note_on_c, 1, 73, 0
4, 14850, Note_on_c, 1, 71, 64
4, 14880, Note_on_c, 1, 71, 0
4, 14880, Note_on_c, 1, 69, 64
4, 15240, Note_on_c, 1, 69, 0
4, 15240, Note_on_c, 1, 62, 64
4, 15270, Note_on_c, 1, 62, 0
4, 15300, Note_on_c, 1, 61, 64
4, 15330, Note_on_c, 1, 61, 0
4, 15330, Note_on_c, 1, 59, 64
4, 15360, Note_on_c, 1, 59, 0
4, 15360, Note_on_c, 1, 57, 64
4, 15660, Note_on_c, 1, 57, 0
4, 16020, Note_on_c, 1, 74, 64
4, 16110, Note_on_c, 1, 74, 0
4, 16110, Note_on_c, 1, 72, 64
4, 16125, Note_on_c, 1, 72, 0
4, 16140, Note_on_c, 1, 76, 64
4, 16170, Note_on_c, 1, 76, 0
4, 16170, Note_on_c, 1, 74, 64
4, 16185, Note_on_c, 1, 74, 0
4, 16200, Note_on_c, 1, 72, 64
4, 16230, Note_on_c, 1, 72, 0
4, 16230, Note_on_c, 1, 71, 64
4, 16245, Note_on_c, 1, 71, 0
4, 16260, Note_on_c, 1, 74, 64
4, 16290, Note_on_c, 1, 74, 0
4, 16290, Note_on_c, 1, 72, 64
4, 16305, Note_on_c, 1, 72, 0
4, 16320, Note_on_c, 1, 71, 64
4, 16380, Note_on_c, 1, 71, 0
4, 16680, Note_on_c, 1, 79, 64
4, 16710, Note_on_c, 1, 79, 0
4, 16740, Note_on_c, 1, 78, 64
4, 16770, Note_on_c, 1, 78, 0
4, 16770, Note_on_c, 1, 76, 64
4, 16800, Note_on_c, 1, 76, 0
4, 16800, Note_on_c, 1, 74, 64
4, 17160, Note_on_c, 1, 74, 0
4, 17160, Note_on_c, 1, 67, 64
4, 17190, Note_on_c, 1, 67, 0
4, 17220, Note_on_c, 1, 66, 64
4, 17250, Note_on_c, 1, 66, 0
4, 17250, Note_on_c, 1, 64, 64
4, 17280, Note_on_c, 1, 64, 0
4, 17280, Note_on_c, 1, 62, 64
4, 17580, Note_on_c, 1, 62, 0
4, 17940, Note_on_c, 1, 67, 64
4, 18030, Note_on_c, 1, 67, 0
4, 18030, Note_on_c, 1, 65, 64
4, 18045, Note_on_c, 1, 65, 0
4, 18060, Note_on_c, 1, 69, 64
4, 18090, Note_on_c, 1, 69, 0
4, 18090, Note_on_c, 1, 67, 64
4, 18105, Note_on_c, 1, 67, 0
4, 18120, Note_on_c, 1, 65, 64
4, 18150, Note_on_c, 1, 65, 0
4, 18150, Note_on_c, 1, 64, 64
4, 18165, Note_on_c, 1, 64, 0
4, 18180, Note_on_c, 1, 67, 64
4, 18210, Note_on_c, 1, 67, 0
4, 18210, Note_on_c, 1, 65, 64
4, 18225, Note_on_c, 1, 65, 0
4, 18240, Note_on_c, 1, 64, 64
4, 18300, Note_on_c, 1, 64, 0
4, 18720, Note_on_c, 1, 62, 64
4, 18750, Note_on_c, 1, 62, 0
4, 18780, Note_on_c, 1, 60, 64
4, 18810, Note_on_c, 1, 60, 0
4, 18810, Note_on_c, 1, 59, 64
4, 18840, Note_on_c, 1, 59, 0
4, 18840, Note_on_c, 1, 57, 64
4, 18870, Note_on_c, 1, 57, 0
4, 20160, Note_on_c, 1, 74, 64
4, 20190, Note_on_c, 1, 74, 0
4, 20190, Note_on_c, 1, 72, 64
4, 20220, Note_on_c, 1, 72, 0
4, 20220, Note_on_c, 1, 71, 64
4, 20250, Note_on_c, 1, 71, 0
4, 20250, Note_on_c, 1, 69, 64
4, 20280, Note_on_c, 1, 69, 0
4, 20280, Note_on_c, 1, 67, 64
4, 20310, Note_on_c, 1, 67, 0
4, 20310, Note_on_c, 1, 66, 64
4, 20340, Note_on_c, 1, 66, 0
4, 20340, Note_on_c, 1, 64, 64
4, 20370, Note_on_c, 1, 64, 0
4, 20370, Note_on_c, 1, 62, 64
4, 20400, Note_on_c, 1, 62, 0
4, 20400, Note_on_c, 1, 64, 64
4, 20430, Note_on_c, 1, 64, 0
4, 22440, Note_on_c, 1, 79, 64
4, 22470, Note_on_c, 1, 79, 0
4, 22500, Note_on_c, 1, 78, 64
4, 22620, Note_on_c, 1, 78, 0
4, 22620, Note_on_c, 1, 76, 64
4, 22740, Note_on_c, 1, 76, 0
4, 22740, Note_on_c, 1, 74, 64
4, 22770, Note_on_c, 1, 74, 0
4, 22800, Note_on_c, 1, 81, 64
4, 22830, Note_on_c, 1, 81, 0
4, 22920, Note_on_c, 1, 74, 64
4, 22950, Note_on_c, 1, 74, 0
4, 22980, Note_on_c, 1, 72, 64
4, 23100, Note_on_c, 1, 72, 0
4, 23100, Note_on_c, 1, 71, 64
4, 23220, Note_on_c, 1, 71, 0
4, 23220, Note_on_c, 1, 69, 64
4, 23250, Note_on_c, 1, 69, 0
4, 23280, Note_on_c, 1, 74, 64
4, 23310, Note_on_c, 1, 74, 0
4, 23340, Note_on_c, 1, 62, 64
4, 23370, Note_on_c, 1, 62, 0
4, 23400, Note_on_c, 1, 66, 64
4, 23430, Note_on_c, 1, 66, 0
4, 23460, Note_on_c, 1, 69, 64
4, 23550, Note_on_c, 1, 69, 0
4, 23580, Note_on_c, 1, 62, 64
4, 23610, Note_on_c, 1, 62, 0
4, 23640, Note_on_c, 1, 66, 64
4, 23670, Note_on_c, 1, 66, 0
4, 23700, Note_on_c, 1, 69, 64
4, 23790, Note_on_c, 1, 69, 0
4, 23820, Note_on_c, 1, 62, 64
4, 23850, Note_on_c, 1, 62, 0
4, 23880, Note_on_c, 1, 66, 64
4, 23910, Note_on_c, 1, 66, 0
4, 23940, Note_on_c, 1, 69, 64
4, 23970, Note_on_c, 1, 69, 0
4, 24000, Note_on_c, 1, 69, 64
4, 24060, Note_on_c, 1, 69, 0
4, 24060, Note_on_c, 1, 62, 64
4, 24090, Note_on_c, 1, 62, 0
4, 24240, Note_on_c, 1, 67, 64
4, 24300, Note_on_c, 1, 67, 0
4, 24300, Note_on_c, 1, 66, 64
4, 24330, Note_on_c, 1, 66, 0
4, 24480, Note_on_c, 1, 70, 64
4, 24540, Note_on_c, 1, 70, 0
4, 24540, Note_on_c, 1, 69, 64
4, 24570, Note_on_c, 1, 69, 0
4, 24720, Note_on_c, 1, 74, 64
4, 24780, Note_on_c, 1, 74, 0
4, 24780, Note_on_c, 1, 72, 64
4, 24810, Note_on_c, 1, 72, 0
4, 29040, Note_on_c, 1, 79, 64
4, 29070, Note_on_c, 1, 79, 0
4, 29100, Note_on_c, 1, 78, 64
4, 29130, Note_on_c, 1, 78, 0
4, 29130, Note_on_c, 1, 76, 64
4, 29160, Note_on_c, 1, 76, 0
4, 29160, Note_on_c, 1, 74, 64
4, 29310, Note_on_c, 1, 74, 0
4, 29310, Note_on_c, 1, 72, 64
4, 29325, Note_on_c, 1, 72, 0
4, 29340, Note_on_c, 1, 76, 64
4, 29370, Note_on_c, 1, 76, 0
4, 29370, Note_on_c, 1, 74, 64
4, 29385, Note_on_c, 1, 74, 0
4, 29400, Note_on_c, 1, 72, 64
4, 29430, Note_on_c, 1, 72, 0
4, 29430, Note_on_c, 1, 71, 64
4, 29445, Note_on_c, 1, 71, 0
4, 29460, Note_on_c, 1, 74, 64
4, 29490, Note_on_c, 1, 74, 0
4, 29490, Note_on_c, 1, 72, 64
4, 29505, Note_on_c, 1, 72, 0
4, 29520, Note_on_c, 1, 72, 64
4, 29640, Note_on_c, 1, 72, 0
4, 29640, Note_on_c, 1, 71, 64
4, 29670, Note_on_c, 1, 71, 0
4, 29670, Note_on_c, 1, 69, 64
4, 29700, Note_on_c, 1, 69, 0
4, 29700, Note_on_c, 1, 67, 64
4, 29730, Note_on_c, 1, 67, 0
4, 29730, Note_on_c, 1, 66, 64
4, 29760, Note_on_c, 1, 66, 0
4, 29760, Note_on_c, 1, 67, 64
4, 29790, Note_on_c, 1, 67, 0
4, 29880, Note_on_c, 1, 60, 64
4, 29910, Note_on_c, 1, 60, 0
4, 30000, Note_on_c, 1, 62, 64
4, 30060, Note_on_c, 1, 62, 0
4, 30510, Note_on_c, 1, 69, 62
4, 30540, Note_on_c, 1, 69, 0
4, 30540, Note_on_c, 1, 71, 61
4, 30570, Note_on_c, 1, 71, 0
4, 30570, Note_on_c, 1, 72, 59
4, 30600, Note_on_c, 1, 72, 0
4, 30600, Note_on_c, 1, 74, 58
4, 30630, Note_on_c, 1, 74, 0
4, 30660, Note_on_c, 1, 83, 55
4, 30690, Note_on_c, 1, 83, 0
4, 30720, Note_on_c, 1, 72, 52
4, 30750, Note_on_c, 1, 72, 0
4, 30780, Note_on_c, 1, 81, 49
4, 30810, Note_on_c, 1, 81, 0
4, 30840, Note_on_c, 1, 71, 46
4, 30870, Note_on_c, 1, 71, 0
4, 30900, Note_on_c, 1, 79, 43
4, 30930, Note_on_c, 1, 79, 0
4, 30960, Note_on_c, 1, 78, 40
4, 30990, Note_on_c, 1, 78, 0
4, 31020, Note_on_c, 1, 74, 41
4, 31050, Note_on_c, 1, 74, 0
4, 31080, Note_on_c, 1, 78, 41
4, 31110, Note_on_c, 1, 78, 0
4, 31140, Note_on_c, 1, 81, 42
4, 31230, Note_on_c, 1, 81, 0
4, 31260, Note_on_c, 1, 74, 43
4, 31290, Note_on_c, 1, 74, 0
4, 31320, Note_on_c, 1, 78, 43
4, 31350, Note_on_c, 1, 78, 0
4, 31380, Note_on_c, 1, 81, 44
4, 31470, Note_on_c, 1, 81, 0
4, 31500, Note_on_c, 1, 74, 45
4, 31530, Note_on_c, 1, 74, 0
4, 31560, Note_on_c, 1, 78, 45
4, 31590, Note_on_c, 1, 78, 0
4, 31620, Note_on_c, 1, 81, 46
4, 31650, Note_on_c, 1, 81, 0
4, 31680, Note_on_c, 1, 81, 46
4, 31740, Note_on_c, 1, 81, 0
4, 31740, Note_on_c, 1, 79, 47
4, 31770, Note_on_c, 1, 79, 0
4, 31920, Note_on_c, 1, 79, 48
4, 31980, Note_on_c, 1, 79, 0
4, 31980, Note_on_c, 1, 78, 49
4, 32010, Note_on_c, 1, 78, 0
4, 32160, Note_on_c, 1, 82, 50
4, 32220, Note_on_c, 1, 82, 0
4, 32220, Note_on_c, 1, 81, 51
4, 32250, Note_on_c, 1, 81, 0
4, 32400, Note_on_c, 1, 86, 52
4, 32460, Note_on_c, 1, 86, 0
4, 32460, Note_on_c, 1, 84, 53
4, 32490, Note_on_c, 1, 84, 0
4, 32580, Note_on_c, 1, 69, 54
4, 32610, Note_on_c, 1, 69, 0
4, 32640, Note_on_c, 1, 71, 54
4, 32670, Note_on_c, 1, 71, 0
4, 32700, Note_on_c, 1, 72, 55
4, 32730, Note_on_c, 1, 72, 0
4, 32760, Note_on_c, 1, 74, 55
4, 32790, Note_on_c, 1, 74, 0
4, 32820, Note_on_c, 1, 76, 56
4, 32850, Note_on_c, 1, 76, 0
4, 32880, Note_on_c, 1, 78, 56
4, 32910, Note_on_c, 1, 78, 0
4, 32940, Note_on_c, 1, 79, 57
4, 32970, Note_on_c, 1, 79, 0
4, 33000, Note_on_c, 1, 67, 57
4, 33030, Note_on_c, 1, 67, 0
4, 33060, Note_on_c, 1, 70, 58
4, 33090, Note_on_c, 1, 70, 0
4, 33120, Note_on_c, 1, 72, 58
4, 33150, Note_on_c, 1, 72, 0
4, 33180, Note_on_c, 1, 74, 59
4, 33210, Note_on_c, 1, 74, 0
4, 33240, Note_on_c, 1, 76, 59
4, 33270, Note_on_c, 1, 76, 0
4, 33300, Note_on_c, 1, 78, 60
4, 33330, Note_on_c, 1, 78, 0
4, 33360, Note_on_c, 1, 79, 60
4, 33420, Note_on_c, 1, 79, 0
4, 33420, Note_on_c, 1, 81, 61
4, 33450, Note_on_c, 1, 81, 0
4, 33840, Note_on_c, 1, 86, 64
4, 34551, Control_c, 1, 7, 80
4, 34554, Control_c, 1, 7, 93
4, 34561, Control_c, 1, 7, 94
4, 34568, Control_c, 1, 7, 95
4, 34576, Control_c, 1, 7, 96
4, 34583, Control_c, 1, 7, 97
4, 34590, Control_c, 1, 7, 98
4, 34597, Control_c, 1, 7, 99
4, 34605, Control_c, 1, 7, 100
4, 34612, Control_c, 1, 7, 101
4, 34619, Control_c, 1, 7, 102
4, 34626, Control_c, 1, 7, 103
4, 34633, Control_c, 1, 7, 104
4, 34641, Control_c, 1, 7, 105
4, 34648, Control_c, 1, 7, 106
4, 34655, Control_c, 1, 7, 107
4, 34662, Control_c, 1, 7, 108
4, 34670, Control_c, 1, 7, 109
4, 34677, Control_c, 1, 7, 110
4, 34684, Control_c, 1, 7, 111
4, 34691, Control_c, 1, 7, 112
4, 34698, Control_c, 1, 7, 113
4, 34706, Control_c, 1, 7, 114
4, 34713, Control_c, 1, 7, 115
4, 34720, Control_c, 1, 7, 116
4, 34727, Control_c, 1, 7, 117
4, 34734, Control_c, 1, 7, 118
4, 34742, Control_c, 1, 7, 119
4, 34749, Control_c, 1, 7, 120
4, 34756, Control_c, 1, 7, 121
4, 34763, Control_c, 1, 7, 122
4, 34771, Control_c, 1, 7, 123
4, 34778, Control_c, 1, 7, 124
4, 34785, Control_c, 1, 7, 125
4, 34792, Control_c, 1, 7, 126
4, 34860, Note_on_c, 1, 86, 0
4, 34860, Note_on_c, 1, 84, 64
4, 34890, Note_on_c, 1, 84, 0
4, 34890, Note_on_c, 1, 83, 64
4, 34920, Note_on_c, 1, 83, 0
4, 34920, Note_on_c, 1, 84, 64
4, 34920, Control_c, 1, 7, 127
4, 34921, Control_c, 1, 7, 108
4, 34927, Control_c, 1, 7, 107
4, 34934, Control_c, 1, 7, 106
4, 34940, Control_c, 1, 7, 105
4, 34947, Control_c, 1, 7, 104
4, 34953, Control_c, 1, 7, 103
4, 34959, Control_c, 1, 7, 102
4, 34966, Control_c, 1, 7, 101
4, 34972, Control_c, 1, 7, 100
4, 34979, Control_c, 1, 7, 99
4, 34985, Control_c, 1, 7, 98
4, 34991, Control_c, 1, 7, 97
4, 34998, Control_c, 1, 7, 96
4, 35004, Control_c, 1, 7, 95
4, 35011, Control_c, 1, 7, 94
4, 35017, Control_c, 1, 7, 93
4, 35023, Control_c, 1, 7, 92
4, 35030, Control_c, 1, 7, 91
4, 35036, Control_c, 1, 7, 90
4, 35043, Control_c, 1, 7, 89
4, 35049, Control_c, 1, 7, 88
4, 35055, Control_c, 1, 7, 87
4, 35062, Control_c, 1, 7, 86
4, 35068, Control_c, 1, 7, 85
4, 35075, Control_c, 1, 7, 84
4, 35081, Control_c, 1, 7, 83
4, 35087, Control_c, 1, 7, 82
4, 35094, Control_c, 1, 7, 81
4, 35100, Control_c, 1, 7, 80
4, 35220, Note_on_c, 1, 84, 0
4, 35220, Note_on_c, 1, 86, 64
4, 35250, Note_on_c, 1, 86, 0
4, 35250, Note_on_c, 1, 84, 64
4, 35280, Note_on_c, 1, 84, 0
4, 35280, Note_on_c, 1, 83, 75
4, 35310, Note_on_c, 1, 83, 0
4, 35340, Note_on_c, 1, 79, 75
4, 35370, Note_on_c, 1, 79, 0
4, 35400, Note_on_c, 1, 74, 75
4, 35430, Note_on_c, 1, 74, 0
4, 35460, Note_on_c, 1, 78, 75
4, 35490, Note_on_c, 1, 78, 0
4, 35520, Note_on_c, 1, 79, 75
4, 35760, Note_on_c, 1, 79, 0
4, 38700, Note_on_c, 1, 64, 64
4, 38730, Note_on_c, 1, 64, 0
4, 38760, Note_on_c, 1, 68, 64
4, 38790, Note_on_c, 1, 68, 0
4, 38820, Note_on_c, 1, 71, 64
4, 38910, Note_on_c, 1, 71, 0
4, 38940, Note_on_c, 1, 64, 64
4, 38970, Note_on_c, 1, 64, 0
4, 39000, Note_on_c, 1, 68, 64
4, 39030, Note_on_c, 1, 68, 0
4, 39060, Note_on_c, 1, 71, 64
4, 39150, Note_on_c, 1, 71, 0
4, 39180, Note_on_c, 1, 64, 64
4, 39210, Note_on_c, 1, 64, 0
4, 39240, Note_on_c, 1, 68, 64
4, 39270, Note_on_c, 1, 68, 0
4, 39300, Note_on_c, 1, 71, 64
4, 39330, Note_on_c, 1, 71, 0
4, 39360, Note_on_c, 1, 71, 64
4, 39420, Note_on_c, 1, 71, 0
4, 39420, Note_on_c, 1, 69, 64
4, 39450, Note_on_c, 1, 69, 0
4, 39600, Note_on_c, 1, 78, 64
4, 39660, Note_on_c, 1, 78, 0
4, 39660, Note_on_c, 1, 76, 64
4, 39690, Note_on_c, 1, 76, 0
4, 39840, Note_on_c, 1, 79, 64
4, 39900, Note_on_c, 1, 79, 0
4, 39900, Note_on_c, 1, 78, 64
4, 39930, Note_on_c, 1, 78, 0
4, 40020, Note_on_c, 1, 81, 64
4, 40080, Note_on_c, 1, 81, 0
4, 40080, Note_on_c, 1, 79, 64
4, 40110, Note_on_c, 1, 79, 0
4, 40140, Note_on_c, 1, 76, 64
4, 40170, Note_on_c, 1, 76, 0
4, 40200, Note_on_c, 1, 71, 64
4, 40230, Note_on_c, 1, 71, 0
4, 40260, Note_on_c, 1, 75, 64
4, 40290, Note_on_c, 1, 75, 0
4, 40320, Note_on_c, 1, 64, 64
4, 40440, Note_on_c, 1, 64, 0
4, 40560, Note_on_c, 1, 64, 64
4, 40590, Note_on_c, 1, 64, 0
4, 40620, Note_on_c, 1, 63, 64
4, 40650, Note_on_c, 1, 63, 0
4, 40650, Note_on_c, 1, 61, 64
4, 40680, Note_on_c, 1, 61, 0
4, 40680, Note_on_c, 1, 59, 64
4, 41160, Note_on_c, 1, 59, 0
4, 43560, Note_on_c, 1, 78, 64
4, 43590, Note_on_c, 1, 78, 0
4, 43680, Note_on_c, 1, 76, 64
4, 43710, Note_on_c, 1, 76, 0
4, 43800, Note_on_c, 1, 74, 64
4, 43830, Note_on_c, 1, 74, 0
4, 43920, Note_on_c, 1, 73, 64
4, 43950, Note_on_c, 1, 73, 0
4, 44040, Note_on_c, 1, 76, 64
4, 44070, Note_on_c, 1, 76, 0
4, 44160, Note_on_c, 1, 70, 64
4, 44190, Note_on_c, 1, 70, 0
4, 44280, Note_on_c, 1, 71, 64
4, 44310, Note_on_c, 1, 71, 0
4, 44400, Note_on_c, 1, 70, 64
4, 44430, Note_on_c, 1, 70, 0
4, 45840, End_track
5, 0, Start_track
5, 0, MIDI_port, 0
5, 0, Title_t, "Violin II"
5, 0, Program_c, 2, 48
5, 720, Control_c, 2, 7, 80
5, 720, Note_on_c, 2, 74, 40
5, 870, Note_on_c, 2, 74, 0
5, 870, Note_on_c, 2, 72, 40
5, 900, Note_on_c, 2, 72, 0
5, 900, Note_on_c, 2, 71, 40
5, 930, Note_on_c, 2, 71, 0
5, 930, Note_on_c, 2, 69, 40
5, 960, Note_on_c, 2, 69, 0
5, 960, Note_on_c, 2, 67, 40
5, 1020, Note_on_c, 2, 67, 0
5, 1020, Note_on_c, 2, 71, 40
5, 1140, Note_on_c, 2, 71, 0
5, 1140, Note_on_c, 2, 69, 40
5, 1200, Note_on_c, 2, 69, 0
5, 1200, Note_on_c, 2, 67, 64
5, 1350, Note_on_c, 2, 67, 0
5, 1350, Note_on_c, 2, 66, 64
5, 1380, Note_on_c, 2, 66, 0
5, 1380, Note_on_c, 2, 64, 64
5, 1410, Note_on_c, 2, 64, 0
5, 1410, Note_on_c, 2, 62, 64
5, 1440, Note_on_c, 2, 62, 0
5, 1440, Note_on_c, 2, 74, 64
5, 1470, Note_on_c, 2, 74, 0
5, 1560, Note_on_c, 2, 78, 64
5, 1590, Note_on_c, 2, 78, 0
5, 1710, Note_on_c, 2, 62, 40
5, 1740, Note_on_c, 2, 62, 0
5, 1740, Note_on_c, 2, 64, 40
5, 1770, Note_on_c, 2, 64, 0
5, 1770, Note_on_c, 2, 66, 40
5, 1800, Note_on_c, 2, 66, 0
5, 1800, Note_on_c, 2, 67, 40
5, 1830, Note_on_c, 2, 67, 0
5, 1920, Note_on_c, 2, 66, 40
5, 1950, Note_on_c, 2, 66, 0
5, 2040, Note_on_c, 2, 64, 40
5, 2070, Note_on_c, 2, 64, 0
5, 2160, Note_on_c, 2, 62, 40
5, 2190, Note_on_c, 2, 62, 0
5, 2670, Note_on_c, 2, 64, 54
5, 2700, Note_on_c, 2, 64, 0
5, 2700, Note_on_c, 2, 66, 52
5, 2730, Note_on_c, 2, 66, 0
5, 2730, Note_on_c, 2, 67, 51
5, 2760, Note_on_c, 2, 67, 0
5, 2760, Note_on_c, 2, 69, 50
5, 2790, Note_on_c, 2, 69, 0
5, 2880, Note_on_c, 2, 67, 45
5, 2910, Note_on_c, 2, 67, 0
5, 3000, Note_on_c, 2, 66, 40
5, 3030, Note_on_c, 2, 66, 0
5, 3120, Note_on_c, 2, 64, 35
5, 3150, Note_on_c, 2, 64, 0
5, 3180, Note_on_c, 2, 64, 35
5, 3210, Note_on_c, 2, 64, 0
5, 3240, Note_on_c, 2, 69, 36
5, 3270, Note_on_c, 2, 69, 0
5, 3300, Note_on_c, 2, 73, 36
5, 3390, Note_on_c, 2, 73, 0
5, 3420, Note_on_c, 2, 64, 37
5, 3450, Note_on_c, 2, 64, 0
5, 3480, Note_on_c, 2, 69, 38
5, 3510, Note_on_c, 2, 69, 0
5, 3540, Note_on_c, 2, 73, 38
5, 3630, Note_on_c, 2, 73, 0
5, 3660, Note_on_c, 2, 64, 39
5, 3690, Note_on_c, 2, 64, 0
5, 3720, Note_on_c, 2, 69, 39
5, 3750, Note_on_c, 2, 69, 0
5, 3780, Note_on_c, 2, 73, 40
5, 3810, Note_on_c, 2, 73, 0
5, 3840, Note_on_c, 2, 73, 40
5, 3900, Note_on_c, 2, 73, 0
5, 3900, Note_on_c, 2, 69, 40
5, 3930, Note_on_c, 2, 69, 0
5, 4080, Note_on_c, 2, 65, 42
5, 4140, Note_on_c, 2, 65, 0
5, 4140, Note_on_c, 2, 64, 42
5, 4170, Note_on_c, 2, 64, 0
5, 4320, Note_on_c, 2, 74, 43
5, 4380, Note_on_c, 2, 74, 0
5, 4380, Note_on_c, 2, 73, 44
5, 4410, Note_on_c, 2, 73, 0
5, 4560, Note_on_c, 2, 74, 45
5, 4620, Note_on_c, 2, 74, 0
5, 4620, Note_on_c, 2, 73, 45
5, 4650, Note_on_c, 2, 73, 0
5, 5220, Note_on_c, 2, 62, 50
5, 5250, Note_on_c, 2, 62, 0
5, 5280, Note_on_c, 2, 64, 50
5, 5310, Note_on_c, 2, 64, 0
5, 5340, Note_on_c, 2, 65, 50
5, 5370, Note_on_c, 2, 65, 0
5, 5400, Note_on_c, 2, 67, 51
5, 5430, Note_on_c, 2, 67, 0
5, 5460, Note_on_c, 2, 69, 51
5, 5490, Note_on_c, 2, 69, 0
5, 5520, Note_on_c, 2, 71, 50
5, 5580, Note_on_c, 2, 71, 0
5, 5580, Note_on_c, 2, 73, 50
5, 5610, Note_on_c, 2, 73, 0
5, 5640, Note_on_c, 2, 61, 50
5, 5670, Note_on_c, 2, 61, 0
5, 5760, Note_on_c, 2, 64, 50
5, 5790, Note_on_c, 2, 64, 0
5, 5880, Note_on_c, 2, 69, 50
5, 5910, Note_on_c, 2, 69, 0
5, 6000, Note_on_c, 2, 76, 50
5, 6030, Note_on_c, 2, 76, 0
5, 6120, Note_on_c, 2, 69, 51
5, 6150, Note_on_c, 2, 69, 0
5, 6240, Note_on_c, 2, 73, 52
5, 6270, Note_on_c, 2, 73, 0
5, 6360, Note_on_c, 2, 76, 54
5, 6390, Note_on_c, 2, 76, 0
5, 6480, Note_on_c, 2, 76, 55
5, 6510, Note_on_c, 2, 76, 0
5, 6600, Note_on_c, 2, 69, 56
5, 6630, Note_on_c, 2, 69, 0
5, 6720, Note_on_c, 2, 74, 57
5, 6750, Note_on_c, 2, 74, 0
5, 6840, Note_on_c, 2, 78, 58
5, 6870, Note_on_c, 2, 78, 0
5, 6960, Note_on_c, 2, 78, 59
5, 6990, Note_on_c, 2, 78, 0
5, 7080, Note_on_c, 2, 76, 61
5, 7110, Note_on_c, 2, 76, 0
5, 7200, Note_on_c, 2, 76, 62
5, 7230, Note_on_c, 2, 76, 0
5, 7320, Note_on_c, 2, 73, 63
5, 7350, Note_on_c, 2, 73, 0
5, 7440, Note_on_c, 2, 69, 64
5, 7470, Note_on_c, 2, 69, 0
5, 7500, Note_on_c, 2, 62, 64
5, 7530, Note_on_c, 2, 62, 0
5, 7560, Note_on_c, 2, 66, 64
5, 7590, Note_on_c, 2, 66, 0
5, 7620, Note_on_c, 2, 69, 64
5, 7650, Note_on_c, 2, 69, 0
5, 7680, Note_on_c, 2, 69, 64
5, 7920, Note_on_c, 2, 69, 0
5, 10860, Note_on_c, 2, 71, 64
5, 10920, Note_on_c, 2, 71, 0
5, 10920, Note_on_c, 2, 67, 64
5, 10980, Note_on_c, 2, 67, 0
5, 10980, Note_on_c, 2, 64, 64
5, 11040, Note_on_c, 2, 64, 0
5, 11040, Note_on_c, 2, 66, 64
5, 11070, Note_on_c, 2, 66, 0
5, 11100, Note_on_c, 2, 69, 64
5, 11130, Note_on_c, 2, 69, 0
5, 11160, Note_on_c, 2, 62, 64
5, 11190, Note_on_c, 2, 62, 0
5, 11220, Note_on_c, 2, 74, 64
5, 11310, Note_on_c, 2, 74, 0
5, 11340, Note_on_c, 2, 72, 64
5, 11370, Note_on_c, 2, 72, 0
5, 11400, Note_on_c, 2, 71, 64
5, 11430, Note_on_c, 2, 71, 0
5, 11460, Note_on_c, 2, 69, 64
5, 11490, Note_on_c, 2, 69, 0
5, 11520, Note_on_c, 2, 67, 64
5, 11550, Note_on_c, 2, 67, 0
5, 11580, Note_on_c, 2, 62, 64
5, 11700, Note_on_c, 2, 62, 0
5, 11700, Note_on_c, 2, 60, 64
5, 11730, Note_on_c, 2, 60, 0
5, 11760, Note_on_c, 2, 59, 64
5, 11820, Note_on_c, 2, 59, 0
5, 12720, Note_on_c, 2, 67, 64
5, 12750, Note_on_c, 2, 67, 0
5, 12780, Note_on_c, 2, 66, 64
5, 12810, Note_on_c, 2, 66, 0
5, 12810, Note_on_c, 2, 64, 64
5, 12840, Note_on_c, 2, 64, 0
5, 12840, Note_on_c, 2, 62, 64
5, 12990, Note_on_c, 2, 62, 0
5, 12990, Note_on_c, 2, 60, 64
5, 13005, Note_on_c, 2, 60, 0
5, 13020, Note_on_c, 2, 64, 64
5, 13050, Note_on_c, 2, 64, 0
5, 13050, Note_on_c, 2, 62, 64
5, 13065, Note_on_c, 2, 62, 0
5, 13080, Note_on_c, 2, 60, 64
5, 13110, Note_on_c, 2, 60, 0
5, 13110, Note_on_c, 2, 59, 64
5, 13125, Note_on_c, 2, 59, 0
5, 13140, Note_on_c, 2, 62, 64
5, 13170, Note_on_c, 2, 62, 0
5, 13170, Note_on_c, 2, 60, 64
5, 13185, Note_on_c, 2, 60, 0
5, 13200, Note_on_c, 2, 59, 64
5, 13230, Note_on_c, 2, 59, 0
5, 14760, Note_on_c, 2, 74, 64
5, 14790, Note_on_c, 2, 74, 0
5, 14820, Note_on_c, 2, 73, 64
5, 14850, Note_on_c, 2, 73, 0
5, 14850, Note_on_c, 2, 71, 64
5, 14880, Note_on_c, 2, 71, 0
5, 14880, Note_on_c, 2, 69, 64
5, 15240, Note_on_c, 2, 69, 0
5, 15240, Note_on_c, 2, 62, 64
5, 15270, Note_on_c, 2, 62, 0
5, 15300, Note_on_c, 2, 61, 64
5, 15330, Note_on_c, 2, 61, 0
5, 15330, Note_on_c, 2, 59, 64
5, 15360, Note_on_c, 2, 59, 0
5, 15360, Note_on_c, 2, 57, 64
5, 15660, Note_on_c, 2, 57, 0
5, 16320, Note_on_c, 2, 67, 64
5, 16350, Note_on_c, 2, 67, 0
5, 16380, Note_on_c, 2, 66, 64
5, 16410, Note_on_c, 2, 66, 0
5, 16410, Note_on_c, 2, 64, 64
5, 16440, Note_on_c, 2, 64, 0
5, 16440, Note_on_c, 2, 62, 64
5, 16680, Note_on_c, 2, 62, 0
5, 16680, Note_on_c, 2, 79, 64
5, 16710, Note_on_c, 2, 79, 0
5, 16740, Note_on_c, 2, 78, 64
5, 16770, Note_on_c, 2, 78, 0
5, 16770, Note_on_c, 2, 76, 64
5, 16800, Note_on_c, 2, 76, 0
5, 16800, Note_on_c, 2, 74, 64
5, 17160, Note_on_c, 2, 74, 0
5, 17160, Note_on_c, 2, 67, 64
5, 17190, Note_on_c, 2, 67, 0
5, 17220, Note_on_c, 2, 66, 64
5, 17250, Note_on_c, 2, 66, 0
5, 17250, Note_on_c, 2, 64, 64
5, 17280, Note_on_c, 2, 64, 0
5, 17280, Note_on_c, 2, 62, 64
5, 17580, Note_on_c, 2, 62, 0
5, 18240, Note_on_c, 2, 60, 64
5, 18270, Note_on_c, 2, 60, 0
5, 18300, Note_on_c, 2, 59, 64
5, 18330, Note_on_c, 2, 59, 0
5, 18330, Note_on_c, 2, 57, 64
5, 18360, Note_on_c, 2, 57, 0
5, 18360, Note_on_c, 2, 55, 64
5, 18540, Note_on_c, 2, 55, 0
5, 18720, Note_on_c, 2, 62, 64
5, 18750, Note_on_c, 2, 62, 0
5, 18780, Note_on_c, 2, 60, 64
5, 18810, Note_on_c, 2, 60, 0
5, 18810, Note_on_c, 2, 59, 64
5, 18840, Note_on_c, 2, 59, 0
5, 18840, Note_on_c, 2, 57, 64
5, 18870, Note_on_c, 2, 57, 0
5, 20160, Note_on_c, 2, 74, 64
5, 20190, Note_on_c, 2, 74, 0
5, 20190, Note_on_c, 2, 72, 64
5, 20220, Note_on_c, 2, 72, 0
5, 20220, Note_on_c, 2, 71, 64
5, 20250, Note_on_c, 2, 71, 0
5, 20250, Note_on_c, 2, 69, 64
5, 20280, Note_on_c, 2, 69, 0
5, 20280, Note_on_c, 2, 67, 64
5, 20310, Note_on_c, 2, 67, 0
5, 20310, Note_on_c, 2, 66, 64
5, 20340, Note_on_c, 2, 66, 0
5, 20340, Note_on_c, 2, 64, 64
5, 20370, Note_on_c, 2, 64, 0
5, 20370, Note_on_c, 2, 62, 64
5, 20400, Note_on_c, 2, 62, 0
5, 20400, Note_on_c, 2, 64, 64
5, 20430, Note_on_c, 2, 64, 0
5, 22440, Note_on_c, 2, 71, 64
5, 22470, Note_on_c, 2, 71, 0
5, 22560, Note_on_c, 2, 69, 64
5, 22590, Note_on_c, 2, 69, 0
5, 22680, Note_on_c, 2, 67, 64
5, 22710, Note_on_c, 2, 67, 0
5, 22800, Note_on_c, 2, 66, 64
5, 22830, Note_on_c, 2, 66, 0
5, 22920, Note_on_c, 2, 62, 64
5, 22950, Note_on_c, 2, 62, 0
5, 23040, Note_on_c, 2, 69, 64
5, 23070, Note_on_c, 2, 69, 0
5, 23160, Note_on_c, 2, 62, 64
5, 23190, Note_on_c, 2, 62, 0
5, 23280, Note_on_c, 2, 66, 64
5, 23310, Note_on_c, 2, 66, 0
5, 23340, Note_on_c, 2, 57, 64
5, 23370, Note_on_c, 2, 57, 0
5, 23400, Note_on_c, 2, 62, 64
5, 23430, Note_on_c, 2, 62, 0
5, 23460, Note_on_c, 2, 66, 64
5, 23550, Note_on_c, 2, 66, 0
5, 23580, Note_on_c, 2, 57, 64
5, 23610, Note_on_c, 2, 57, 0
5, 23640, Note_on_c, 2, 62, 64
5, 23670, Note_on_c, 2, 62, 0
5, 23700, Note_on_c, 2, 66, 64
5, 23790, Note_on_c, 2, 66, 0
5, 23820, Note_on_c, 2, 57, 64
5, 23850, Note_on_c, 2, 57, 0
5, 23880, Note_on_c, 2, 62, 64
5, 23910, Note_on_c, 2, 62, 0
5, 23940, Note_on_c, 2, 66, 64
5, 23970, Note_on_c, 2, 66, 0
5, 24000, Note_on_c, 2, 62, 64
5, 24060, Note_on_c, 2, 62, 0
5, 24060, Note_on_c, 2, 67, 64
5, 24090, Note_on_c, 2, 67, 0
5, 24240, Note_on_c, 2, 58, 64
5, 24300, Note_on_c, 2, 58, 0
5, 24300, Note_on_c, 2, 57, 64
5, 24330, Note_on_c, 2, 57, 0
5, 24480, Note_on_c, 2, 67, 64
5, 24540, Note_on_c, 2, 67, 0
5, 24540, Note_on_c, 2, 66, 64
5, 24570, Note_on_c, 2, 66, 0
5, 24720, Note_on_c, 2, 67, 64
5, 24780, Note_on_c, 2, 67, 0
5, 24780, Note_on_c, 2, 66, 64
5, 24810, Note_on_c, 2, 66, 0
5, 29040, Note_on_c, 2, 74, 50
5, 29190, Note_on_c, 2, 74, 0
5, 29190, Note_on_c, 2, 72, 50
5, 29220, Note_on_c, 2, 72, 0
5, 29220, Note_on_c, 2, 71, 50
5, 29250, Note_on_c, 2, 71, 0
5, 29250, Note_on_c, 2, 69, 50
5, 29280, Note_on_c, 2, 69, 0
5, 29280, Note_on_c, 2, 67, 50
5, 29340, Note_on_c, 2, 67, 0
5, 29340, Note_on_c, 2, 71, 50
5, 29460, Note_on_c, 2, 71, 0
5, 29460, Note_on_c, 2, 69, 50
5, 29520, Note_on_c, 2, 69, 0
5, 29520, Note_on_c, 2, 67, 50
5, 29670, Note_on_c, 2, 67, 0
5, 29670, Note_on_c, 2, 66, 50
5, 29700, Note_on_c, 2, 66, 0
5, 29700, Note_on_c, 2, 64, 50
5, 29730, Note_on_c, 2, 64, 0
5, 29730, Note_on_c, 2, 62, 50
5, 29760, Note_on_c, 2, 62, 0
5, 29760, Note_on_c, 2, 74, 50
5, 29790, Note_on_c, 2, 74, 0
5, 29880, Note_on_c, 2, 78, 50
5, 29910, Note_on_c, 2, 78, 0
5, 30000, Note_on_c, 2, 79, 64
5, 30060, Note_on_c, 2, 79, 0
5, 30510, Note_on_c, 2, 69, 62
5, 30540, Note_on_c, 2, 69, 0
5, 30540, Note_on_c, 2, 71, 61
5, 30570, Note_on_c, 2, 71, 0
5, 30570, Note_on_c, 2, 72, 59
5, 30600, Note_on_c, 2, 72, 0
5, 30600, Note_on_c, 2, 74, 58
5, 30630, Note_on_c, 2, 74, 0
5, 30720, Note_on_c, 2, 72, 52
5, 30750, Note_on_c, 2, 72, 0
5, 30840, Note_on_c, 2, 71, 46
5, 30870, Note_on_c, 2, 71, 0
5, 30960, Note_on_c, 2, 69, 40
5, 30990, Note_on_c, 2, 69, 0
5, 31020, Note_on_c, 2, 69, 41
5, 31050, Note_on_c, 2, 69, 0
5, 31080, Note_on_c, 2, 74, 41
5, 31110, Note_on_c, 2, 74, 0
5, 31140, Note_on_c, 2, 78, 42
5, 31230, Note_on_c, 2, 78, 0
5, 31260, Note_on_c, 2, 69, 43
5, 31290, Note_on_c, 2, 69, 0
5, 31320, Note_on_c, 2, 74, 43
5, 31350, Note_on_c, 2, 74, 0
5, 31380, Note_on_c, 2, 78, 44
5, 31470, Note_on_c, 2, 78, 0
5, 31500, Note_on_c, 2, 69, 45
5, 31530, Note_on_c, 2, 69, 0
5, 31560, Note_on_c, 2, 74, 45
5, 31590, Note_on_c, 2, 74, 0
5, 31620, Note_on_c, 2, 78, 46
5, 31650, Note_on_c, 2, 78, 0
5, 31680, Note_on_c, 2, 78, 46
5, 31740, Note_on_c, 2, 78, 0
5, 31740, Note_on_c, 2, 74, 47
5, 31770, Note_on_c, 2, 74, 0
5, 31920, Note_on_c, 2, 70, 48
5, 31980, Note_on_c, 2, 70, 0
5, 31980, Note_on_c, 2, 69, 49
5, 32010, Note_on_c, 2, 69, 0
5, 32160, Note_on_c, 2, 79, 50
5, 32220, Note_on_c, 2, 79, 0
5, 32220, Note_on_c, 2, 78, 51
5, 32250, Note_on_c, 2, 78, 0
5, 32400, Note_on_c, 2, 79, 52
5, 32460, Note_on_c, 2, 79, 0
5, 32460, Note_on_c, 2, 78, 53
5, 32490, Note_on_c, 2, 78, 0
5, 33060, Note_on_c, 2, 67, 58
5, 33090, Note_on_c, 2, 67, 0
5, 33120, Note_on_c, 2, 69, 58
5, 33150, Note_on_c, 2, 69, 0
5, 33180, Note_on_c, 2, 70, 59
5, 33210, Note_on_c, 2, 70, 0
5, 33240, Note_on_c, 2, 72, 59
5, 33270, Note_on_c, 2, 72, 0
5, 33300, Note_on_c, 2, 74, 60
5, 33330, Note_on_c, 2, 74, 0
5, 33360, Note_on_c, 2, 76, 60
5, 33420, Note_on_c, 2, 76, 0
5, 33420, Note_on_c, 2, 78, 61
5, 33450, Note_on_c, 2, 78, 0
5, 33480, Note_on_c, 2, 62, 61
5, 33510, Note_on_c, 2, 62, 0
5, 33600, Note_on_c, 2, 66, 62
5, 33630, Note_on_c, 2, 66, 0
5, 33720, Note_on_c, 2, 69, 63
5, 33750, Note_on_c, 2, 69, 0
5, 33840, Note_on_c, 2, 74, 64
5, 33870, Note_on_c, 2, 74, 0
5, 33960, Note_on_c, 2, 78, 65
5, 33990, Note_on_c, 2, 78, 0
5, 34080, Note_on_c, 2, 81, 66
5, 34110, Note_on_c, 2, 81, 0
5, 34200, Note_on_c, 2, 78, 67
5, 34230, Note_on_c, 2, 78, 0
5, 34320, Note_on_c, 2, 74, 68
5, 34350, Note_on_c, 2, 74, 0
5, 34440, Note_on_c, 2, 79, 69
5, 34470, Note_on_c, 2, 79, 0
5, 34560, Note_on_c, 2, 71, 70
5, 34590, Note_on_c, 2, 71, 0
5, 34680, Note_on_c, 2, 76, 70
5, 34710, Note_on_c, 2, 76, 0
5, 34800, Note_on_c, 2, 76, 71
5, 34830, Note_on_c, 2, 76, 0
5, 34920, Note_on_c, 2, 64, 72
5, 34950, Note_on_c, 2, 64, 0
5, 35040, Note_on_c, 2, 66, 73
5, 35070, Note_on_c, 2, 66, 0
5, 35160, Note_on_c, 2, 69, 74
5, 35190, Note_on_c, 2, 69, 0
5, 35280, Note_on_c, 2, 67, 75
5, 35310, Note_on_c, 2, 67, 0
5, 35340, Note_on_c, 2, 74, 75
5, 35370, Note_on_c, 2, 74, 0
5, 35400, Note_on_c, 2, 71, 75
5, 35430, Note_on_c, 2, 71, 0
5, 35460, Note_on_c, 2, 69, 75
5, 35490, Note_on_c, 2, 69, 0
5, 35520, Note_on_c, 2, 71, 75
5, 35760, Note_on_c, 2, 71, 0
5, 38700, Note_on_c, 2, 59, 64
5, 38730, Note_on_c, 2, 59, 0
5, 38760, Note_on_c, 2, 64, 64
5, 38790, Note_on_c, 2, 64, 0
5, 38820, Note_on_c, 2, 68, 64
5, 38910, Note_on_c, 2, 68, 0
5, 38940, Note_on_c, 2, 59, 64
5, 38970, Note_on_c, 2, 59, 0
5, 39000, Note_on_c, 2, 64, 64
5, 39030, Note_on_c, 2, 64, 0
5, 39060, Note_on_c, 2, 68, 64
5, 39150, Note_on_c, 2, 68, 0
5, 39180, Note_on_c, 2, 59, 64
5, 39210, Note_on_c, 2, 59, 0
5, 39240, Note_on_c, 2, 64, 64
5, 39270, Note_on_c, 2, 64, 0
5, 39300, Note_on_c, 2, 68, 64
5, 39330, Note_on_c, 2, 68, 0
5, 39360, Note_on_c, 2, 68, 64
5, 39420, Note_on_c, 2, 68, 0
5, 39420, Note_on_c, 2, 64, 64
5, 39450, Note_on_c, 2, 64, 0
5, 39600, Note_on_c, 2, 72, 64
5, 39660, Note_on_c, 2, 72, 0
5, 39660, Note_on_c, 2, 71, 64
5, 39690, Note_on_c, 2, 71, 0
5, 39840, Note_on_c, 2, 73, 64
5, 39900, Note_on_c, 2, 73, 0
5, 39900, Note_on_c, 2, 70, 64
5, 39930, Note_on_c, 2, 70, 0
5, 40020, Note_on_c, 2, 75, 64
5, 40080, Note_on_c, 2, 75, 0
5, 40080, Note_on_c, 2, 76, 64
5, 40110, Note_on_c, 2, 76, 0
5, 40140, Note_on_c, 2, 71, 64
5, 40170, Note_on_c, 2, 71, 0
5, 40200, Note_on_c, 2, 67, 64
5, 40230, Note_on_c, 2, 67, 0
5, 40260, Note_on_c, 2, 66, 64
5, 40290, Note_on_c, 2, 66, 0
5, 40320, Note_on_c, 2, 67, 64
5, 40440, Note_on_c, 2, 67, 0
5, 40560, Note_on_c, 2, 64, 64
5, 40590, Note_on_c, 2, 64, 0
5, 40620, Note_on_c, 2, 63, 64
5, 40650, Note_on_c, 2, 63, 0
5, 40650, Note_on_c, 2, 61, 64
5, 40680, Note_on_c, 2, 61, 0
5, 40680, Note_on_c, 2, 59, 64
5, 41160, Note_on_c, 2, 59, 0
5, 43560, Note_on_c, 2, 73, 64
5, 43590, Note_on_c, 2, 73, 0
5, 43680, Note_on_c, 2, 70, 64
5, 43710, Note_on_c, 2, 70, 0
5, 43800, Note_on_c, 2, 66, 64
5, 43830, Note_on_c, 2, 66, 0
5, 43920, Note_on_c, 2, 66, 64
5, 43950, Note_on_c, 2, 66, 0
5, 44040, Note_on_c, 2, 70, 64
5, 44070, Note_on_c, 2, 70, 0
5, 44160, Note_on_c, 2, 66, 64
5, 44190, Note_on_c, 2, 66, 0
5, 44280, Note_on_c, 2, 66, 64
5, 44310, Note_on_c, 2, 66, 0
5, 44400, Note_on_c, 2, 66, 64
5, 44430, Note_on_c, 2, 66, 0
5, 45840, End_track
6, 0, Start_track
6, 0, MIDI_port, 0
6, 0, Title_t, "Viola"
6, 0, Program_c, 3, 48
6, 720, Control_c, 3, 7, 80
6, 720, Note_on_c, 3, 62, 40
6, 750, Note_on_c, 3, 62, 0
6, 780, Note_on_c, 3, 60, 40
6, 810, Note_on_c, 3, 60, 0
6, 840, Note_on_c, 3, 62, 40
6, 870, Note_on_c, 3, 62, 0
6, 900, Note_on_c, 3, 64, 40
6, 930, Note_on_c, 3, 64, 0
6, 930, Note_on_c, 3, 66, 40
6, 960, Note_on_c, 3, 66, 0
6, 960, Note_on_c, 3, 67, 40
6, 990, Note_on_c, 3, 67, 0
6, 1020, Note_on_c, 3, 64, 40
6, 1050, Note_on_c, 3, 64, 0
6, 1080, Note_on_c, 3, 64, 40
6, 1110, Note_on_c, 3, 64, 0
6, 1140, Note_on_c, 3, 69, 40
6, 1170, Note_on_c, 3, 69, 0
6, 1200, Note_on_c, 3, 62, 40
6, 1350, Note_on_c, 3, 62, 0
6, 1350, Note_on_c, 3, 60, 40
6, 1380, Note_on_c, 3, 60, 0
6, 1380, Note_on_c, 3, 59, 40
6, 1410, Note_on_c, 3, 59, 0
6, 1410, Note_on_c, 3, 57, 40
6, 1440, Note_on_c, 3, 57, 0
6, 1440, Note_on_c, 3, 55, 40
6, 1470, Note_on_c, 3, 55, 0
6, 1560, Note_on_c, 3, 57, 40
6, 1590, Note_on_c, 3, 57, 0
6, 1710, Note_on_c, 3, 62, 40
6, 1740, Note_on_c, 3, 62, 0
6, 1740, Note_on_c, 3, 64, 40
6, 1770, Note_on_c, 3, 64, 0
6, 1770, Note_on_c, 3, 66, 40
6, 1800, Note_on_c, 3, 66, 0
6, 1800, Note_on_c, 3, 67, 40
6, 1830, Note_on_c, 3, 67, 0
6, 1920, Note_on_c, 3, 66, 40
6, 1950, Note_on_c, 3, 66, 0
6, 2040, Note_on_c, 3, 64, 40
6, 2070, Note_on_c, 3, 64, 0
6, 2160, Note_on_c, 3, 62, 40
6, 2190, Note_on_c, 3, 62, 0
6, 2670, Note_on_c, 3, 64, 54
6, 2700, Note_on_c, 3, 64, 0
6, 2700, Note_on_c, 3, 66, 52
6, 2730, Note_on_c, 3, 66, 0
6, 2730, Note_on_c, 3, 67, 51
6, 2760, Note_on_c, 3, 67, 0
6, 2760, Note_on_c, 3, 69, 50
6, 2790, Note_on_c, 3, 69, 0
6, 2880, Note_on_c, 3, 67, 45
6, 2910, Note_on_c, 3, 67, 0
6, 3000, Note_on_c, 3, 66, 40
6, 3030, Note_on_c, 3, 66, 0
6, 3120, Note_on_c, 3, 64, 35
6, 3150, Note_on_c, 3, 64, 0
6, 3180, Note_on_c, 3, 61, 35
6, 3210, Note_on_c, 3, 61, 0
6, 3240, Note_on_c, 3, 64, 36
6, 3270, Note_on_c, 3, 64, 0
6, 3300, Note_on_c, 3, 67, 36
6, 3390, Note_on_c, 3, 67, 0
6, 3420, Note_on_c, 3, 61, 37
6, 3450, Note_on_c, 3, 61, 0
6, 3480, Note_on_c, 3, 64, 38
6, 3510, Note_on_c, 3, 64, 0
6, 3540, Note_on_c, 3, 67, 38
6, 3630, Note_on_c, 3, 67, 0
6, 3660, Note_on_c, 3, 61, 39
6, 3690, Note_on_c, 3, 61, 0
6, 3720, Note_on_c, 3, 64, 39
6, 3750, Note_on_c, 3, 64, 0
6, 3780, Note_on_c, 3, 67, 40
6, 3810, Note_on_c, 3, 67, 0
6, 3840, Note_on_c, 3, 62, 40
6, 3900, Note_on_c, 3, 62, 0
6, 3900, Note_on_c, 3, 66, 40
6, 3930, Note_on_c, 3, 66, 0
6, 4080, Note_on_c, 3, 71, 42
6, 4140, Note_on_c, 3, 71, 0
6, 4140, Note_on_c, 3, 69, 42
6, 4170, Note_on_c, 3, 69, 0
6, 4320, Note_on_c, 3, 68, 43
6, 4380, Note_on_c, 3, 68, 0
6, 4380, Note_on_c, 3, 69, 44
6, 4410, Note_on_c, 3, 69, 0
6, 4560, Note_on_c, 3, 66, 45
6, 4620, Note_on_c, 3, 66, 0
6, 4620, Note_on_c, 3, 64, 45
6, 4650, Note_on_c, 3, 64, 0
6, 5640, Note_on_c, 3, 57, 50
6, 5670, Note_on_c, 3, 57, 0
6, 5760, Note_on_c, 3, 61, 50
6, 5790, Note_on_c, 3, 61, 0
6, 5880, Note_on_c, 3, 64, 50
6, 5910, Note_on_c, 3, 64, 0
6, 6000, Note_on_c, 3, 69, 50
6, 6030, Note_on_c, 3, 69, 0
6, 6120, Note_on_c, 3, 73, 51
6, 6150, Note_on_c, 3, 73, 0
6, 6240, Note_on_c, 3, 76, 52
6, 6270, Note_on_c, 3, 76, 0
6, 6360, Note_on_c, 3, 73, 54
6, 6390, Note_on_c, 3, 73, 0
6, 6480, Note_on_c, 3, 69, 55
6, 6510, Note_on_c, 3, 69, 0
6, 6600, Note_on_c, 3, 74, 56
6, 6630, Note_on_c, 3, 74, 0
6, 6720, Note_on_c, 3, 66, 57
6, 6750, Note_on_c, 3, 66, 0
6, 6840, Note_on_c, 3, 71, 58
6, 6870, Note_on_c, 3, 71, 0
6, 6960, Note_on_c, 3, 71, 59
6, 6990, Note_on_c, 3, 71, 0
6, 7080, Note_on_c, 3, 59, 61
6, 7110, Note_on_c, 3, 59, 0
6, 7200, Note_on_c, 3, 61, 62
6, 7230, Note_on_c, 3, 61, 0
6, 7320, Note_on_c, 3, 64, 63
6, 7350, Note_on_c, 3, 64, 0
6, 7440, Note_on_c, 3, 62, 64
6, 7470, Note_on_c, 3, 62, 0
6, 7500, Note_on_c, 3, 69, 64
6, 7530, Note_on_c, 3, 69, 0
6, 7560, Note_on_c, 3, 66, 64
6, 7590, Note_on_c, 3, 66, 0
6, 7620, Note_on_c, 3, 64, 64
6, 7650, Note_on_c, 3, 64, 0
6, 7680, Note_on_c, 3, 66, 64
6, 7920, Note_on_c, 3, 66, 0
6, 10860, Note_on_c, 3, 67, 64
6, 10920, Note_on_c, 3, 67, 0
6, 10920, Note_on_c, 3, 64, 64
6, 10980, Note_on_c, 3, 64, 0
6, 10980, Note_on_c, 3, 60, 64
6, 11040, Note_on_c, 3, 60, 0
6, 11040, Note_on_c, 3, 57, 64
6, 11070, Note_on_c, 3, 57, 0
6, 11100, Note_on_c, 3, 60, 64
6, 11130, Note_on_c, 3, 60, 0
6, 11160, Note_on_c, 3, 66, 64
6, 11190, Note_on_c, 3, 66, 0
6, 11220, Note_on_c, 3, 62, 64
6, 11310, Note_on_c, 3, 62, 0
6, 11340, Note_on_c, 3, 67, 64
6, 11460, Note_on_c, 3, 67, 0
6, 11460, Note_on_c, 3, 62, 64
6, 11490, Note_on_c, 3, 62, 0
6, 11520, Note_on_c, 3, 62, 64
6, 11550, Note_on_c, 3, 62, 0
6, 11580, Note_on_c, 3, 60, 64
6, 11610, Note_on_c, 3, 60, 0
6, 11640, Note_on_c, 3, 59, 64
6, 11670, Note_on_c, 3, 59, 0
6, 11700, Note_on_c, 3, 57, 64
6, 11730, Note_on_c, 3, 57, 0
6, 11760, Note_on_c, 3, 55, 64
6, 11820, Note_on_c, 3, 55, 0
6, 12720, Note_on_c, 3, 67, 64
6, 12750, Note_on_c, 3, 67, 0
6, 12780, Note_on_c, 3, 66, 64
6, 12810, Note_on_c, 3, 66, 0
6, 12810, Note_on_c, 3, 64, 64
6, 12840, Note_on_c, 3, 64, 0
6, 12840, Note_on_c, 3, 62, 64
6, 12990, Note_on_c, 3, 62, 0
6, 12990, Note_on_c, 3, 60, 64
6, 13005, Note_on_c, 3, 60, 0
6, 13020, Note_on_c, 3, 64, 64
6, 13050, Note_on_c, 3, 64, 0
6, 13050, Note_on_c, 3, 62, 64
6, 13065, Note_on_c, 3, 62, 0
6, 13080, Note_on_c, 3, 60, 64
6, 13110, Note_on_c, 3, 60, 0
6, 13110, Note_on_c, 3, 59, 64
6, 13125, Note_on_c, 3, 59, 0
6, 13140, Note_on_c, 3, 62, 64
6, 13170, Note_on_c, 3, 62, 0
6, 13170, Note_on_c, 3, 60, 64
6, 13185, Note_on_c, 3, 60, 0
6, 13200, Note_on_c, 3, 59, 64
6, 13230, Note_on_c, 3, 59, 0
6, 14760, Note_on_c, 3, 74, 64
6, 14790, Note_on_c, 3, 74, 0
6, 14820, Note_on_c, 3, 73, 64
6, 14850, Note_on_c, 3, 73, 0
6, 14850, Note_on_c, 3, 71, 64
6, 14880, Note_on_c, 3, 71, 0
6, 14880, Note_on_c, 3, 69, 64
6, 15240, Note_on_c, 3, 69, 0
6, 15240, Note_on_c, 3, 62, 64
6, 15270, Note_on_c, 3, 62, 0
6, 15300, Note_on_c, 3, 61, 64
6, 15330, Note_on_c, 3, 61, 0
6, 15330, Note_on_c, 3, 59, 64
6, 15360, Note_on_c, 3, 59, 0
6, 15360, Note_on_c, 3, 57, 64
6, 15660, Note_on_c, 3, 57, 0
6, 16320, Note_on_c, 3, 67, 64
6, 16350, Note_on_c, 3, 67, 0
6, 16380, Note_on_c, 3, 66, 64
6, 16410, Note_on_c, 3, 66, 0
6, 16410, Note_on_c, 3, 64, 64
6, 16440, Note_on_c, 3, 64, 0
6, 16440, Note_on_c, 3, 62, 64
6, 17160, Note_on_c, 3, 62, 0
6, 17160, Note_on_c, 3, 67, 64
6, 17190, Note_on_c, 3, 67, 0
6, 17220, Note_on_c, 3, 66, 64
6, 17250, Note_on_c, 3, 66, 0
6, 17250, Note_on_c, 3, 64, 64
6, 17280, Note_on_c, 3, 64, 0
6, 17280, Note_on_c, 3, 62, 64
6, 17580, Note_on_c, 3, 62, 0
6, 18240, Note_on_c, 3, 60, 64
6, 18270, Note_on_c, 3, 60, 0
6, 18300, Note_on_c, 3, 59, 64
6, 18330, Note_on_c, 3, 59, 0
6, 18330, Note_on_c, 3, 57, 64
6, 18360, Note_on_c, 3, 57, 0
6, 18360, Note_on_c, 3, 55, 64
6, 18540, Note_on_c, 3, 55, 0
6, 18720, Note_on_c, 3, 62, 64
6, 18750, Note_on_c, 3, 62, 0
6, 18780, Note_on_c, 3, 60, 64
6, 18810, Note_on_c, 3, 60, 0
6, 18810, Note_on_c, 3, 59, 64
6, 18840, Note_on_c, 3, 59, 0
6, 18840, Note_on_c, 3, 57, 64
6, 18870, Note_on_c, 3, 57, 0
6, 20160, Note_on_c, 3, 74, 64
6, 20190, Note_on_c, 3, 74, 0
6, 20190, Note_on_c, 3, 72, 64
6, 20220, Note_on_c, 3, 72, 0
6, 20220, Note_on_c, 3, 71, 64
6, 20250, Note_on_c, 3, 71, 0
6, 20250, Note_on_c, 3, 69, 64
6, 20280, Note_on_c, 3, 69, 0
6, 20280, Note_on_c, 3, 67, 64
6, 20310, Note_on_c, 3, 67, 0
6, 20310, Note_on_c, 3, 66, 64
6, 20340, Note_on_c, 3, 66, 0
6, 20340, Note_on_c, 3, 64, 64
6, 20370, Note_on_c, 3, 64, 0
6, 20370, Note_on_c, 3, 62, 64
6, 20400, Note_on_c, 3, 62, 0
6, 20400, Note_on_c, 3, 64, 64
6, 20430, Note_on_c, 3, 64, 0
6, 22440, Note_on_c, 3, 62, 64
6, 22470, Note_on_c, 3, 62, 0
6, 22560, Note_on_c, 3, 62, 64
6, 22590, Note_on_c, 3, 62, 0
6, 22680, Note_on_c, 3, 62, 64
6, 22710, Note_on_c, 3, 62, 0
6, 22800, Note_on_c, 3, 62, 64
6, 22830, Note_on_c, 3, 62, 0
6, 22920, Note_on_c, 3, 59, 64
6, 22950, Note_on_c, 3, 59, 0
6, 23040, Note_on_c, 3, 57, 64
6, 23070, Note_on_c, 3, 57, 0
6, 23160, Note_on_c, 3, 55, 64
6, 23190, Note_on_c, 3, 55, 0
6, 23280, Note_on_c, 3, 50, 64
6, 23310, Note_on_c, 3, 50, 0
6, 23340, Note_on_c, 3, 54, 64
6, 23370, Note_on_c, 3, 54, 0
6, 23400, Note_on_c, 3, 57, 64
6, 23430, Note_on_c, 3, 57, 0
6, 23460, Note_on_c, 3, 60, 64
6, 23550, Note_on_c, 3, 60, 0
6, 23580, Note_on_c, 3, 54, 64
6, 23610, Note_on_c, 3, 54, 0
6, 23640, Note_on_c, 3, 57, 64
6, 23670, Note_on_c, 3, 57, 0
6, 23700, Note_on_c, 3, 60, 64
6, 23790, Note_on_c, 3, 60, 0
6, 23820, Note_on_c, 3, 54, 64
6, 23850, Note_on_c, 3, 54, 0
6, 23880, Note_on_c, 3, 57, 64
6, 23910, Note_on_c, 3, 57, 0
6, 23940, Note_on_c, 3, 62, 64
6, 23970, Note_on_c, 3, 62, 0
6, 24000, Note_on_c, 3, 55, 64
6, 24060, Note_on_c, 3, 55, 0
6, 24060, Note_on_c, 3, 59, 64
6, 24090, Note_on_c, 3, 59, 0
6, 24240, Note_on_c, 3, 64, 64
6, 24300, Note_on_c, 3, 64, 0
6, 24300, Note_on_c, 3, 62, 64
6, 24330, Note_on_c, 3, 62, 0
6, 24480, Note_on_c, 3, 61, 64
6, 24540, Note_on_c, 3, 61, 0
6, 24540, Note_on_c, 3, 66, 64
6, 24570, Note_on_c, 3, 66, 0
6, 24720, Note_on_c, 3, 59, 64
6, 24780, Note_on_c, 3, 59, 0
6, 24780, Note_on_c, 3, 57, 64
6, 24810, Note_on_c, 3, 57, 0
6, 29040, Note_on_c, 3, 62, 50
6, 29070, Note_on_c, 3, 62, 0
6, 29100, Note_on_c, 3, 60, 50
6, 29130, Note_on_c, 3, 60, 0
6, 29160, Note_on_c, 3, 62, 50
6, 29190, Note_on_c, 3, 62, 0
6, 29220, Note_on_c, 3, 64, 50
6, 29250, Note_on_c, 3, 64, 0
6, 29250, Note_on_c, 3, 66, 50
6, 29280, Note_on_c, 3, 66, 0
6, 29280, Note_on_c, 3, 67, 50
6, 29310, Note_on_c, 3, 67, 0
6, 29340, Note_on_c, 3, 64, 50
6, 29370, Note_on_c, 3, 64, 0
6, 29400, Note_on_c, 3, 64, 50
6, 29430, Note_on_c, 3, 64, 0
6, 29460, Note_on_c, 3, 69, 50
6, 29490, Note_on_c, 3, 69, 0
6, 29520, Note_on_c, 3, 62, 50
6, 29670, Note_on_c, 3, 62, 0
6, 29670, Note_on_c, 3, 60, 50
6, 29700, Note_on_c, 3, 60, 0
6, 29700, Note_on_c, 3, 59, 50
6, 29730, Note_on_c, 3, 59, 0
6, 29730, Note_on_c, 3, 57, 50
6, 29760, Note_on_c, 3, 57, 0
6, 29760, Note_on_c, 3, 55, 50
6, 29790, Note_on_c, 3, 55, 0
6, 29880, Note_on_c, 3, 57, 50
6, 29910, Note_on_c, 3, 57, 0
6, 30000, Note_on_c, 3, 50, 64
6, 30060, Note_on_c, 3, 50, 0
6, 30510, Note_on_c, 3, 69, 62
6, 30540, Note_on_c, 3, 69, 0
6, 30540, Note_on_c, 3, 71, 61
6, 30570, Note_on_c, 3, 71, 0
6, 30570, Note_on_c, 3, 72, 59
6, 30600, Note_on_c, 3, 72, 0
6, 30600, Note_on_c, 3, 74, 58
6, 30630, Note_on_c, 3, 74, 0
6, 30720, Note_on_c, 3, 72, 52
6, 30750, Note_on_c, 3, 72, 0
6, 30840, Note_on_c, 3, 71, 46
6, 30870, Note_on_c, 3, 71, 0
6, 30960, Note_on_c, 3, 69, 40
6, 30990, Note_on_c, 3, 69, 0
6, 31020, Note_on_c, 3, 66, 41
6, 31050, Note_on_c, 3, 66, 0
6, 31080, Note_on_c, 3, 69, 41
6, 31110, Note_on_c, 3, 69, 0
6, 31140, Note_on_c, 3, 72, 42
6, 31230, Note_on_c, 3, 72, 0
6, 31260, Note_on_c, 3, 66, 43
6, 31290, Note_on_c, 3, 66, 0
6, 31320, Note_on_c, 3, 69, 43
6, 31350, Note_on_c, 3, 69, 0
6, 31380, Note_on_c, 3, 72, 44
6, 31470, Note_on_c, 3, 72, 0
6, 31500, Note_on_c, 3, 66, 45
6, 31530, Note_on_c, 3, 66, 0
6, 31560, Note_on_c, 3, 69, 45
6, 31590, Note_on_c, 3, 69, 0
6, 31620, Note_on_c, 3, 72, 46
6, 31650, Note_on_c, 3, 72, 0
6, 31680, Note_on_c, 3, 67, 46
6, 31740, Note_on_c, 3, 67, 0
6, 31740, Note_on_c, 3, 71, 47
6, 31770, Note_on_c, 3, 71, 0
6, 31920, Note_on_c, 3, 76, 48
6, 31980, Note_on_c, 3, 76, 0
6, 31980, Note_on_c, 3, 74, 49
6, 32010, Note_on_c, 3, 74, 0
6, 32160, Note_on_c, 3, 73, 50
6, 32220, Note_on_c, 3, 73, 0
6, 32220, Note_on_c, 3, 74, 51
6, 32250, Note_on_c, 3, 74, 0
6, 32400, Note_on_c, 3, 71, 52
6, 32460, Note_on_c, 3, 71, 0
6, 32460, Note_on_c, 3, 69, 53
6, 32490, Note_on_c, 3, 69, 0
6, 33480, Note_on_c, 3, 54, 61
6, 33510, Note_on_c, 3, 54, 0
6, 33600, Note_on_c, 3, 57, 62
6, 33630, Note_on_c, 3, 57, 0
6, 33720, Note_on_c, 3, 62, 63
6, 33750, Note_on_c, 3, 62, 0
6, 33840, Note_on_c, 3, 69, 64
6, 33870, Note_on_c, 3, 69, 0
6, 33960, Note_on_c, 3, 62, 65
6, 33990, Note_on_c, 3, 62, 0
6, 34080, Note_on_c, 3, 66, 66
6, 34110, Note_on_c, 3, 66, 0
6, 34200, Note_on_c, 3, 69, 67
6, 34230, Note_on_c, 3, 69, 0
6, 34320, Note_on_c, 3, 69, 68
6, 34350, Note_on_c, 3, 69, 0
6, 34440, Note_on_c, 3, 62, 69
6, 34470, Note_on_c, 3, 62, 0
6, 34560, Note_on_c, 3, 67, 70
6, 34590, Note_on_c, 3, 67, 0
6, 34680, Note_on_c, 3, 71, 70
6, 34710, Note_on_c, 3, 71, 0
6, 34800, Note_on_c, 3, 71, 71
6, 34830, Note_on_c, 3, 71, 0
6, 34920, Note_on_c, 3, 69, 72
6, 34950, Note_on_c, 3, 69, 0
6, 35040, Note_on_c, 3, 69, 73
6, 35070, Note_on_c, 3, 69, 0
6, 35160, Note_on_c, 3, 66, 74
6, 35190, Note_on_c, 3, 66, 0
6, 35280, Note_on_c, 3, 62, 75
6, 35310, Note_on_c, 3, 62, 0
6, 35340, Note_on_c, 3, 55, 75
6, 35370, Note_on_c, 3, 55, 0
6, 35400, Note_on_c, 3, 59, 75
6, 35430, Note_on_c, 3, 59, 0
6, 35460, Note_on_c, 3, 62, 75
6, 35490, Note_on_c, 3, 62, 0
6, 35520, Note_on_c, 3, 62, 75
6, 35760, Note_on_c, 3, 62, 0
6, 38700, Note_on_c, 3, 56, 64
6, 38730, Note_on_c, 3, 56, 0
6, 38760, Note_on_c, 3, 59, 64
6, 38790, Note_on_c, 3, 59, 0
6, 38820, Note_on_c, 3, 62, 64
6, 38910, Note_on_c, 3, 62, 0
6, 38940, Note_on_c, 3, 56, 64
6, 38970, Note_on_c, 3, 56, 0
6, 39000, Note_on_c, 3, 59, 64
6, 39030, Note_on_c, 3, 59, 0
6, 39060, Note_on_c, 3, 62, 64
6, 39150, Note_on_c, 3, 62, 0
6, 39180, Note_on_c, 3, 56, 64
6, 39210, Note_on_c, 3, 56, 0
6, 39240, Note_on_c, 3, 59, 64
6, 39270, Note_on_c, 3, 59, 0
6, 39300, Note_on_c, 3, 62, 64
6, 39330, Note_on_c, 3, 62, 0
6, 39360, Note_on_c, 3, 57, 64
6, 39420, Note_on_c, 3, 57, 0
6, 39420, Note_on_c, 3, 60, 64
6, 39450, Note_on_c, 3, 60, 0
6, 39600, Note_on_c, 3, 69, 64
6, 39660, Note_on_c, 3, 69, 0
6, 39660, Note_on_c, 3, 67, 64
6, 39690, Note_on_c, 3, 67, 0
6, 39840, Note_on_c, 3, 70, 64
6, 39900, Note_on_c, 3, 70, 0
6, 39900, Note_on_c, 3, 76, 64
6, 39930, Note_on_c, 3, 76, 0
6, 40020, Note_on_c, 3, 71, 64
6, 40080, Note_on_c, 3, 71, 0
6, 40080, Note_on_c, 3, 71, 64
6, 40110, Note_on_c, 3, 71, 0
6, 40140, Note_on_c, 3, 64, 64
6, 40170, Note_on_c, 3, 64, 0
6, 40200, Note_on_c, 3, 67, 64
6, 40230, Note_on_c, 3, 67, 0
6, 40260, Note_on_c, 3, 71, 64
6, 40290, Note_on_c, 3, 71, 0
6, 40320, Note_on_c, 3, 71, 64
6, 40440, Note_on_c, 3, 71, 0
6, 40560, Note_on_c, 3, 64, 64
6, 40590, Note_on_c, 3, 64, 0
6, 40620, Note_on_c, 3, 63, 64
6, 40650, Note_on_c, 3, 63, 0
6, 40650, Note_on_c, 3, 61, 64
6, 40680, Note_on_c, 3, 61, 0
6, 40680, Note_on_c, 3, 59, 64
6, 41160, Note_on_c, 3, 59, 0
6, 43560, Note_on_c, 3, 66, 64
6, 43590, Note_on_c, 3, 66, 0
6, 43680, Note_on_c, 3, 66, 64
6, 43710, Note_on_c, 3, 66, 0
6, 43800, Note_on_c, 3, 59, 64
6, 43830, Note_on_c, 3, 59, 0
6, 43920, Note_on_c, 3, 58, 64
6, 43950, Note_on_c, 3, 58, 0
6, 44040, Note_on_c, 3, 61, 64
6, 44070, Note_on_c, 3, 61, 0
6, 44160, Note_on_c, 3, 61, 64
6, 44190, Note_on_c, 3, 61, 0
6, 44280, Note_on_c, 3, 62, 64
6, 44310, Note_on_c, 3, 62, 0
6, 44400, Note_on_c, 3, 61, 64
6, 44430, Note_on_c, 3, 61, 0
6, 45840, End_track
7, 0, Start_track
7, 0, MIDI_port, 0
7, 0, Title_t, "Soprano I"
7, 0, Program_c, 5, 53
7, 8160, Note_on_c, 5, 74, 64
7, 8220, Note_on_c, 5, 74, 0
7, 8220, Note_on_c, 5, 72, 64
7, 8250, Note_on_c, 5, 72, 0
7, 8280, Note_on_c, 5, 72, 64
7, 8310, Note_on_c, 5, 72, 0
7, 8340, Note_on_c, 5, 71, 64
7, 8370, Note_on_c, 5, 71, 0
7, 8400, Note_on_c, 5, 71, 64
7, 8430, Note_on_c, 5, 71, 0
7, 8460, Note_on_c, 5, 69, 64
7, 8490, Note_on_c, 5, 69, 0
7, 8520, Note_on_c, 5, 67, 64
7, 8550, Note_on_c, 5, 67, 0
7, 8580, Note_on_c, 5, 66, 64
7, 8610, Note_on_c, 5, 66, 0
7, 8640, Note_on_c, 5, 67, 64
7, 8670, Note_on_c, 5, 67, 0
7, 8670, Note_on_c, 5, 69, 64
7, 8700, Note_on_c, 5, 69, 0
7, 8700, Note_on_c, 5, 66, 64
7, 8730, Note_on_c, 5, 66, 0
7, 8730, Note_on_c, 5, 67, 64
7, 8760, Note_on_c, 5, 67, 0
7, 8760, Note_on_c, 5, 69, 64
7, 8790, Note_on_c, 5, 69, 0
7, 8790, Note_on_c, 5, 71, 64
7, 8820, Note_on_c, 5, 71, 0
7, 8820, Note_on_c, 5, 67, 64
7, 8850, Note_on_c, 5, 67, 0
7, 8850, Note_on_c, 5, 69, 64
7, 8880, Note_on_c, 5, 69, 0
7, 8880, Note_on_c, 5, 71, 64
7, 9030, Note_on_c, 5, 71, 0
7, 9030, Note_on_c, 5, 69, 64
7, 9060, Note_on_c, 5, 69, 0
7, 9060, Note_on_c, 5, 67, 64
7, 9090, Note_on_c, 5, 67, 0
7, 9090, Note_on_c, 5, 69, 64
7, 9120, Note_on_c, 5, 69, 0
7, 9120, Note_on_c, 5, 71, 64
7, 9150, Note_on_c, 5, 71, 0
7, 9150, Note_on_c, 5, 72, 64
7, 9180, Note_on_c, 5, 72, 0
7, 9180, Note_on_c, 5, 69, 64
7, 9210, Note_on_c, 5, 69, 0
7, 9210, Note_on_c, 5, 71, 64
7, 9240, Note_on_c, 5, 71, 0
7, 9240, Note_on_c, 5, 72, 64
7, 9270, Note_on_c, 5, 72, 0
7, 9270, Note_on_c, 5, 74, 64
7, 9300, Note_on_c, 5, 74, 0
7, 9300, Note_on_c, 5, 71, 64
7, 9330, Note_on_c, 5, 71, 0
7, 9330, Note_on_c, 5, 72, 64
7, 9360, Note_on_c, 5, 72, 0
7, 9360, Note_on_c, 5, 74, 64
7, 9390, Note_on_c, 5, 74, 0
7, 9390, Note_on_c, 5, 76, 64
7, 9420, Note_on_c, 5, 76, 0
7, 9420, Note_on_c, 5, 77, 64
7, 9540, Note_on_c, 5, 77, 0
7, 9540, Note_on_c, 5, 76, 64
7, 9615, Note_on_c, 5, 76, 0
7, 9615, Note_on_c, 5, 77, 64
7, 9630, Note_on_c, 5, 77, 0
7, 9630, Note_on_c, 5, 76, 64
7, 9645, Note_on_c, 5, 76, 0
7, 9645, Note_on_c, 5, 74, 64
7, 9675, Note_on_c, 5, 74, 0
7, 9675, Note_on_c, 5, 76, 64
7, 9735, Note_on_c, 5, 76, 0
7, 9735, Note_on_c, 5, 74, 64
7, 9795, Note_on_c, 5, 74, 0
7, 9840, Note_on_c, 5, 72, 64
7, 9870, Note_on_c, 5, 72, 0
7, 9870, Note_on_c, 5, 71, 64
7, 9900, Note_on_c, 5, 71, 0
7, 9900, Note_on_c, 5, 69, 64
7, 10020, Note_on_c, 5, 69, 0
7, 10020, Note_on_c, 5, 71, 64
7, 10080, Note_on_c, 5, 71, 0
7, 10080, Note_on_c, 5, 72, 64
7, 10110, Note_on_c, 5, 72, 0
7, 10110, Note_on_c, 5, 74, 64
7, 10140, Note_on_c, 5, 74, 0
7, 10140, Note_on_c, 5, 76, 64
7, 10260, Note_on_c, 5, 76, 0
7, 10260, Note_on_c, 5, 74, 64
7, 10290, Note_on_c, 5, 74, 0
7, 10290, Note_on_c, 5, 72, 64
7, 10320, Note_on_c, 5, 72, 0
7, 10320, Note_on_c, 5, 71, 64
7, 10350, Note_on_c, 5, 71, 0
7, 10350, Note_on_c, 5, 72, 64
7, 10380, Note_on_c, 5, 72, 0
7, 10380, Note_on_c, 5, 74, 64
7, 10500, Note_on_c, 5, 74, 0
7, 10500, Note_on_c, 5, 72, 64
7, 10560, Note_on_c, 5, 72, 0
7, 10560, Note_on_c, 5, 71, 64
7, 10680, Note_on_c, 5, 71, 0
7, 10680, Note_on_c, 5, 69, 64
7, 10740, Note_on_c, 5, 69, 0
7, 11760, Note_on_c, 5, 79, 64
7, 11820, Note_on_c, 5, 79, 0
7, 11820, Note_on_c, 5, 78, 64
7, 11850, Note_on_c, 5, 78, 0
7, 11880, Note_on_c, 5, 78, 64
7, 11910, Note_on_c, 5, 78, 0
7, 11940, Note_on_c, 5, 76, 64
7, 11970, Note_on_c, 5, 76, 0
7, 12000, Note_on_c, 5, 74, 64
7, 12300, Note_on_c, 5, 74, 0
7, 12300, Note_on_c, 5, 72, 64
7, 12330, Note_on_c, 5, 72, 0
7, 12360, Note_on_c, 5, 71, 64
7, 12390, Note_on_c, 5, 71, 0
7, 12420, Note_on_c, 5, 69, 64
7, 12450, Note_on_c, 5, 69, 0
7, 12480, Note_on_c, 5, 71, 64
7, 12510, Note_on_c, 5, 71, 0
7, 12510, Note_on_c, 5, 72, 64
7, 12540, Note_on_c, 5, 72, 0
7, 12540, Note_on_c, 5, 69, 64
7, 12570, Note_on_c, 5, 69, 0
7, 12570, Note_on_c, 5, 71, 64
7, 12600, Note_on_c, 5, 71, 0
7, 12600, Note_on_c, 5, 72, 64
7, 12630, Note_on_c, 5, 72, 0
7, 12630, Note_on_c, 5, 74, 64
7, 12660, Note_on_c, 5, 74, 0
7, 12660, Note_on_c, 5, 71, 64
7, 12690, Note_on_c, 5, 71, 0
7, 12690, Note_on_c, 5, 72, 64
7, 12720, Note_on_c, 5, 72, 0
7, 12720, Note_on_c, 5, 74, 64
7, 12870, Note_on_c, 5, 74, 0
7, 12870, Note_on_c, 5, 72, 64
7, 12900, Note_on_c, 5, 72, 0
7, 12900, Note_on_c, 5, 71, 64
7, 12930, Note_on_c, 5, 71, 0
7, 12930, Note_on_c, 5, 69, 64
7, 12960, Note_on_c, 5, 69, 0
7, 12960, Note_on_c, 5, 67, 64
7, 12990, Note_on_c, 5, 67, 0
7, 12990, Note_on_c, 5, 69, 64
7, 13020, Note_on_c, 5, 69, 0
7, 13020, Note_on_c, 5, 66, 64
7, 13050, Note_on_c, 5, 66, 0
7, 13050, Note_on_c, 5, 67, 64
7, 13080, Note_on_c, 5, 67, 0
7, 13080, Note_on_c, 5, 69, 64
7, 13110, Note_on_c, 5, 69, 0
7, 13110, Note_on_c, 5, 71, 64
7, 13140, Note_on_c, 5, 71, 0
7, 13140, Note_on_c, 5, 67, 64
7, 13170, Note_on_c, 5, 67, 0
7, 13170, Note_on_c, 5, 69, 64
7, 13200, Note_on_c, 5, 69, 0
7, 13200, Note_on_c, 5, 71, 64
7, 13230, Note_on_c, 5, 71, 0
7, 13230, Note_on_c, 5, 72, 64
7, 13260, Note_on_c, 5, 72, 0
7, 13260, Note_on_c, 5, 74, 64
7, 13380, Note_on_c, 5, 74, 0
7, 13380, Note_on_c, 5, 72, 64
7, 13455, Note_on_c, 5, 72, 0
7, 13455, Note_on_c, 5, 74, 64
7, 13470, Note_on_c, 5, 74, 0
7, 13470, Note_on_c, 5, 72, 64
7, 13485, Note_on_c, 5, 72, 0
7, 13485, Note_on_c, 5, 71, 64
7, 13515, Note_on_c, 5, 71, 0
7, 13515, Note_on_c, 5, 72, 64
7, 13575, Note_on_c, 5, 72, 0
7, 13575, Note_on_c, 5, 71, 64
7, 13635, Note_on_c, 5, 71, 0
7, 13680, Note_on_c, 5, 69, 64
7, 13710, Note_on_c, 5, 69, 0
7, 13710, Note_on_c, 5, 67, 64
7, 13740, Note_on_c, 5, 67, 0
7, 13740, Note_on_c, 5, 66, 64
7, 13860, Note_on_c, 5, 66, 0
7, 13860, Note_on_c, 5, 67, 64
7, 13920, Note_on_c, 5, 67, 0
7, 13920, Note_on_c, 5, 69, 64
7, 13950, Note_on_c, 5, 69, 0
7, 13950, Note_on_c, 5, 71, 64
7, 13980, Note_on_c, 5, 71, 0
7, 13980, Note_on_c, 5, 72, 64
7, 14100, Note_on_c, 5, 72, 0
7, 14100, Note_on_c, 5, 71, 64
7, 14130, Note_on_c, 5, 71, 0
7, 14130, Note_on_c, 5, 69, 64
7, 14160, Note_on_c, 5, 69, 0
7, 14160, Note_on_c, 5, 67, 64
7, 14190, Note_on_c, 5, 67, 0
7, 14190, Note_on_c, 5, 69, 64
7, 14220, Note_on_c, 5, 69, 0
7, 14220, Note_on_c, 5, 71, 64
7, 14340, Note_on_c, 5, 71, 0
7, 14340, Note_on_c, 5, 69, 64
7, 14400, Note_on_c, 5, 69, 0
7, 14400, Note_on_c, 5, 67, 64
7, 14520, Note_on_c, 5, 67, 0
7, 14520, Note_on_c, 5, 66, 64
7, 14580, Note_on_c, 5, 66, 0
7, 14640, Note_on_c, 5, 74, 75
7, 14670, Note_on_c, 5, 74, 0
7, 14700, Note_on_c, 5, 73, 75
7, 14730, Note_on_c, 5, 73, 0
7, 14730, Note_on_c, 5, 71, 75
7, 14760, Note_on_c, 5, 71, 0
7, 14760, Note_on_c, 5, 69, 75
7, 14940, Note_on_c, 5, 69, 0
7, 14940, Note_on_c, 5, 67, 75
7, 14970, Note_on_c, 5, 67, 0
7, 15000, Note_on_c, 5, 67, 75
7, 15060, Note_on_c, 5, 67, 0
7, 15060, Note_on_c, 5, 66, 75
7, 15090, Note_on_c, 5, 66, 0
7, 15120, Note_on_c, 5, 66, 75
7, 15180, Note_on_c, 5, 66, 0
7, 15180, Note_on_c, 5, 67, 75
7, 15210, Note_on_c, 5, 67, 0
7, 15240, Note_on_c, 5, 69, 75
7, 15300, Note_on_c, 5, 69, 0
7, 15300, Note_on_c, 5, 61, 75
7, 15330, Note_on_c, 5, 61, 0
7, 15360, Note_on_c, 5, 62, 75
7, 15390, Note_on_c, 5, 62, 0
7, 15390, Note_on_c, 5, 64, 75
7, 15420, Note_on_c, 5, 64, 0
7, 15420, Note_on_c, 5, 61, 75
7, 15450, Note_on_c, 5, 61, 0
7, 15450, Note_on_c, 5, 62, 75
7, 15480, Note_on_c, 5, 62, 0
7, 15480, Note_on_c, 5, 64, 75
7, 15510, Note_on_c, 5, 64, 0
7, 15510, Note_on_c, 5, 66, 75
7, 15540, Note_on_c, 5, 66, 0
7, 15540, Note_on_c, 5, 62, 75
7, 15570, Note_on_c, 5, 62, 0
7, 15570, Note_on_c, 5, 64, 75
7, 15600, Note_on_c, 5, 64, 0
7, 15600, Note_on_c, 5, 66, 75
7, 15750, Note_on_c, 5, 66, 0
7, 15750, Note_on_c, 5, 67, 75
7, 15780, Note_on_c, 5, 67, 0
7, 15780, Note_on_c, 5, 64, 75
7, 15810, Note_on_c, 5, 64, 0
7, 15810, Note_on_c, 5, 66, 75
7, 15840, Note_on_c, 5, 66, 0
7, 15840, Note_on_c, 5, 67, 75
7, 15870, Note_on_c, 5, 67, 0
7, 15870, Note_on_c, 5, 69, 75
7, 15900, Note_on_c, 5, 69, 0
7, 15900, Note_on_c, 5, 66, 75
7, 15930, Note_on_c, 5, 66, 0
7, 15930, Note_on_c, 5, 67, 75
7, 15960, Note_on_c, 5, 67, 0
7, 15960, Note_on_c, 5, 69, 75
7, 15990, Note_on_c, 5, 69, 0
7, 15990, Note_on_c, 5, 71, 75
7, 16020, Note_on_c, 5, 71, 0
7, 16020, Note_on_c, 5, 67, 75
7, 16050, Note_on_c, 5, 67, 0
7, 16050, Note_on_c, 5, 69, 75
7, 16080, Note_on_c, 5, 69, 0
7, 16080, Note_on_c, 5, 71, 75
7, 16110, Note_on_c, 5, 71, 0
7, 16110, Note_on_c, 5, 72, 75
7, 16140, Note_on_c, 5, 72, 0
7, 16140, Note_on_c, 5, 69, 75
7, 16170, Note_on_c, 5, 69, 0
7, 16170, Note_on_c, 5, 71, 75
7, 16200, Note_on_c, 5, 71, 0
7, 16200, Note_on_c, 5, 72, 75
7, 16260, Note_on_c, 5, 72, 0
7, 16260, Note_on_c, 5, 69, 75
7, 16320, Note_on_c, 5, 69, 0
7, 16320, Note_on_c, 5, 71, 75
7, 16350, Note_on_c, 5, 71, 0
7, 16350, Note_on_c, 5, 72, 75
7, 16380, Note_on_c, 5, 72, 0
7, 16380, Note_on_c, 5, 74, 75
7, 16410, Note_on_c, 5, 74, 0
7, 16440, Note_on_c, 5, 74, 75
7, 16500, Note_on_c, 5, 74, 0
7, 17040, Note_on_c, 5, 79, 75
7, 17070, Note_on_c, 5, 79, 0
7, 17100, Note_on_c, 5, 78, 75
7, 17130, Note_on_c, 5, 78, 0
7, 17130, Note_on_c, 5, 76, 75
7, 17160, Note_on_c, 5, 76, 0
7, 17160, Note_on_c, 5, 74, 75
7, 17340, Note_on_c, 5, 74, 0
7, 17340, Note_on_c, 5, 72, 75
7, 17370, Note_on_c, 5, 72, 0
7, 17400, Note_on_c, 5, 72, 75
7, 17460, Note_on_c, 5, 72, 0
7, 17460, Note_on_c, 5, 71, 75
7, 17490, Note_on_c, 5, 71, 0
7, 17520, Note_on_c, 5, 71, 75
7, 17550, Note_on_c, 5, 71, 0
7, 17580, Note_on_c, 5, 69, 75
7, 17610, Note_on_c, 5, 69, 0
7, 17640, Note_on_c, 5, 67, 75
7, 17670, Note_on_c, 5, 67, 0
7, 17670, Note_on_c, 5, 69, 75
7, 17700, Note_on_c, 5, 69, 0
7, 17700, Note_on_c, 5, 66, 75
7, 17730, Note_on_c, 5, 66, 0
7, 17730, Note_on_c, 5, 67, 75
7, 17760, Note_on_c, 5, 67, 0
7, 17760, Note_on_c, 5, 69, 75
7, 17790, Note_on_c, 5, 69, 0
7, 17790, Note_on_c, 5, 71, 75
7, 17820, Note_on_c, 5, 71, 0
7, 17820, Note_on_c, 5, 67, 75
7, 17850, Note_on_c, 5, 67, 0
7, 17850, Note_on_c, 5, 69, 75
7, 17880, Note_on_c, 5, 69, 0
7, 17880, Note_on_c, 5, 71, 75
7, 17910, Note_on_c, 5, 71, 0
7, 17910, Note_on_c, 5, 72, 75
7, 17940, Note_on_c, 5, 72, 0
7, 17940, Note_on_c, 5, 69, 75
7, 17970, Note_on_c, 5, 69, 0
7, 17970, Note_on_c, 5, 71, 75
7, 18000, Note_on_c, 5, 71, 0
7, 18000, Note_on_c, 5, 72, 75
7, 18030, Note_on_c, 5, 72, 0
7, 18030, Note_on_c, 5, 74, 75
7, 18060, Note_on_c, 5, 74, 0
7, 18060, Note_on_c, 5, 71, 75
7, 18090, Note_on_c, 5, 71, 0
7, 18090, Note_on_c, 5, 72, 75
7, 18120, Note_on_c, 5, 72, 0
7, 18120, Note_on_c, 5, 74, 75
7, 18180, Note_on_c, 5, 74, 0
7, 18180, Note_on_c, 5, 71, 75
7, 18240, Note_on_c, 5, 71, 0
7, 18240, Note_on_c, 5, 72, 75
7, 18270, Note_on_c, 5, 72, 0
7, 18270, Note_on_c, 5, 74, 75
7, 18300, Note_on_c, 5, 74, 0
7, 18300, Note_on_c, 5, 76, 75
7, 18330, Note_on_c, 5, 76, 0
7, 18360, Note_on_c, 5, 76, 75
7, 18420, Note_on_c, 5, 76, 0
7, 18480, Note_on_c, 5, 76, 50
7, 18540, Note_on_c, 5, 76, 0
7, 18540, Note_on_c, 5, 74, 50
7, 18660, Note_on_c, 5, 74, 0
7, 18660, Note_on_c, 5, 72, 50
7, 18690, Note_on_c, 5, 72, 0
7, 18720, Note_on_c, 5, 71, 50
7, 18780, Note_on_c, 5, 71, 0
7, 18780, Note_on_c, 5, 69, 50
7, 18900, Note_on_c, 5, 69, 0
7, 18900, Note_on_c, 5, 71, 50
7, 18930, Note_on_c, 5, 71, 0
7, 18930, Note_on_c, 5, 72, 50
7, 18960, Note_on_c, 5, 72, 0
7, 18960, Note_on_c, 5, 74, 50
7, 19020, Note_on_c, 5, 74, 0
7, 19020, Note_on_c, 5, 72, 50
7, 19140, Note_on_c, 5, 72, 0
7, 19140, Note_on_c, 5, 71, 50
7, 19200, Note_on_c, 5, 71, 0
7, 19200, Note_on_c, 5, 69, 50
7, 19260, Note_on_c, 5, 69, 0
7, 19260, Note_on_c, 5, 67, 50
7, 19290, Note_on_c, 5, 67, 0
7, 19320, Note_on_c, 5, 72, 50
7, 19470, Note_on_c, 5, 72, 0
7, 19470, Note_on_c, 5, 71, 50
7, 19500, Note_on_c, 5, 71, 0
7, 19500, Note_on_c, 5, 74, 49
7, 19530, Note_on_c, 5, 74, 0
7, 19530, Note_on_c, 5, 72, 49
7, 19560, Note_on_c, 5, 72, 0
7, 19560, Note_on_c, 5, 71, 48
7, 19710, Note_on_c, 5, 71, 0
7, 19710, Note_on_c, 5, 69, 46
7, 19740, Note_on_c, 5, 69, 0
7, 19740, Note_on_c, 5, 72, 45
7, 19770, Note_on_c, 5, 72, 0
7, 19770, Note_on_c, 5, 71, 45
7, 19800, Note_on_c, 5, 71, 0
7, 19800, Note_on_c, 5, 69, 44
7, 19950, Note_on_c, 5, 69, 0
7, 19950, Note_on_c, 5, 67, 42
7, 19980, Note_on_c, 5, 67, 0
7, 19980, Note_on_c, 5, 71, 42
7, 20010, Note_on_c, 5, 71, 0
7, 20010, Note_on_c, 5, 69, 41
7, 20040, Note_on_c, 5, 69, 0
7, 20040, Note_on_c, 5, 67, 41
7, 20070, Note_on_c, 5, 67, 0
7, 20070, Note_on_c, 5, 66, 40
7, 20100, Note_on_c, 5, 66, 0
7, 20100, Note_on_c, 5, 69, 40
7, 20130, Note_on_c, 5, 69, 0
7, 20160, Note_on_c, 5, 67, 39
7, 20220, Note_on_c, 5, 67, 0
7, 20220, Note_on_c, 5, 66, 38
7, 20250, Note_on_c, 5, 66, 0
7, 20400, Note_on_c, 5, 76, 64
7, 20550, Note_on_c, 5, 76, 0
7, 20550, Note_on_c, 5, 74, 59
7, 20580, Note_on_c, 5, 74, 0
7, 20580, Note_on_c, 5, 78, 59
7, 20610, Note_on_c, 5, 78, 0
7, 20610, Note_on_c, 5, 76, 58
7, 20640, Note_on_c, 5, 76, 0
7, 20640, Note_on_c, 5, 74, 57
7, 20790, Note_on_c, 5, 74, 0
7, 20790, Note_on_c, 5, 72, 52
7, 20820, Note_on_c, 5, 72, 0
7, 20820, Note_on_c, 5, 76, 51
7, 20850, Note_on_c, 5, 76, 0
7, 20850, Note_on_c, 5, 74, 50
7, 20880, Note_on_c, 5, 74, 0
7, 20880, Note_on_c, 5, 72, 49
7, 21030, Note_on_c, 5, 72, 0
7, 21030, Note_on_c, 5, 71, 45
7, 21060, Note_on_c, 5, 71, 0
7, 21060, Note_on_c, 5, 74, 44
7, 21090, Note_on_c, 5, 74, 0
7, 21120, Note_on_c, 5, 71, 42
7, 21180, Note_on_c, 5, 71, 0
7, 21180, Note_on_c, 5, 69, 50
7, 21300, Note_on_c, 5, 69, 0
7, 21300, Note_on_c, 5, 67, 54
7, 21330, Note_on_c, 5, 67, 0
7, 21360, Note_on_c, 5, 72, 55
7, 21420, Note_on_c, 5, 72, 0
7, 21420, Note_on_c, 5, 71, 56
7, 21540, Note_on_c, 5, 71, 0
7, 21540, Note_on_c, 5, 69, 58
7, 21600, Note_on_c, 5, 69, 0
7, 21600, Note_on_c, 5, 74, 59
7, 21660, Note_on_c, 5, 74, 0
7, 21660, Note_on_c, 5, 72, 60
7, 21690, Note_on_c, 5, 72, 0
7, 21690, Note_on_c, 5, 71, 60
7, 21720, Note_on_c, 5, 71, 0
7, 21720, Note_on_c, 5, 72, 61
7, 21780, Note_on_c, 5, 72, 0
7, 21780, Note_on_c, 5, 69, 62
7, 21840, Note_on_c, 5, 69, 0
7, 21840, Note_on_c, 5, 71, 63
7, 21900, Note_on_c, 5, 71, 0
7, 21900, Note_on_c, 5, 72, 63
7, 21930, Note_on_c, 5, 72, 0
7, 21930, Note_on_c, 5, 74, 64
7, 21960, Note_on_c, 5, 74, 0
7, 21960, Note_on_c, 5, 71, 64
7, 22020, Note_on_c, 5, 71, 0
7, 22020, Note_on_c, 5, 69, 65
7, 22050, Note_on_c, 5, 69, 0
7, 22050, Note_on_c, 5, 67, 66
7, 22080, Note_on_c, 5, 67, 0
7, 22080, Note_on_c, 5, 67, 66
7, 22110, Note_on_c, 5, 67, 0
7, 22140, Note_on_c, 5, 74, 67
7, 22200, Note_on_c, 5, 74, 0
7, 22200, Note_on_c, 5, 72, 68
7, 22260, Note_on_c, 5, 72, 0
7, 22260, Note_on_c, 5, 71, 69
7, 22320, Note_on_c, 5, 71, 0
7, 22320, Note_on_c, 5, 71, 70
7, 22380, Note_on_c, 5, 71, 0
7, 22380, Note_on_c, 5, 69, 64
7, 22410, Note_on_c, 5, 69, 0
7, 22860, Note_on_c, 5, 71, 69
7, 22920, Note_on_c, 5, 71, 0
7, 22920, Note_on_c, 5, 69, 68
7, 22980, Note_on_c, 5, 69, 0
7, 22980, Note_on_c, 5, 67, 68
7, 23040, Note_on_c, 5, 67, 0
7, 23040, Note_on_c, 5, 67, 67
7, 23100, Note_on_c, 5, 67, 0
7, 23100, Note_on_c, 5, 66, 66
7, 23130, Note_on_c, 5, 66, 0
7, 23520, Note_on_c, 5, 74, 60
7, 23580, Note_on_c, 5, 74, 0
7, 23580, Note_on_c, 5, 72, 60
7, 23610, Note_on_c, 5, 72, 0
7, 23610, Note_on_c, 5, 71, 59
7, 23640, Note_on_c, 5, 71, 0
7, 23640, Note_on_c, 5, 69, 59
7, 23820, Note_on_c, 5, 69, 0
7, 23820, Note_on_c, 5, 72, 56
7, 23850, Note_on_c, 5, 72, 0
7, 23850, Note_on_c, 5, 71, 56
7, 23880, Note_on_c, 5, 71, 0
7, 23880, Note_on_c, 5, 72, 55
7, 23940, Note_on_c, 5, 72, 0
7, 23940, Note_on_c, 5, 72, 54
7, 24000, Note_on_c, 5, 72, 0
7, 24000, Note_on_c, 5, 72, 53
7, 24060, Note_on_c, 5, 72, 0
7, 24060, Note_on_c, 5, 71, 53
7, 24090, Note_on_c, 5, 71, 0
7, 24360, Note_on_c, 5, 67, 70
7, 24540, Note_on_c, 5, 67, 0
7, 24540, Note_on_c, 5, 66, 70
7, 24570, Note_on_c, 5, 66, 0
7, 24600, Note_on_c, 5, 66, 70
7, 24660, Note_on_c, 5, 66, 0
7, 24660, Note_on_c, 5, 64, 70
7, 24690, Note_on_c, 5, 64, 0
7, 24720, Note_on_c, 5, 62, 70
7, 24780, Note_on_c, 5, 62, 0
7, 24780, Note_on_c, 5, 62, 70
7, 24840, Note_on_c, 5, 62, 0
7, 24840, Note_on_c, 5, 62, 69
7, 24900, Note_on_c, 5, 62, 0
7, 24900, Note_on_c, 5, 62, 69
7, 24960, Note_on_c, 5, 62, 0
7, 24960, Note_on_c, 5, 74, 68
7, 24990, Note_on_c, 5, 74, 0
7, 24990, Note_on_c, 5, 71, 68
7, 25020, Note_on_c, 5, 71, 0
7, 25020, Note_on_c, 5, 67, 68
7, 25050, Note_on_c, 5, 67, 0
7, 25320, Note_on_c, 5, 79, 66
7, 25380, Note_on_c, 5, 79, 0
7, 25380, Note_on_c, 5, 67, 66
7, 25440, Note_on_c, 5, 67, 0
7, 25440, Note_on_c, 5, 69, 65
7, 25500, Note_on_c, 5, 69, 0
7, 25500, Note_on_c, 5, 70, 65
7, 25560, Note_on_c, 5, 70, 0
7, 25560, Note_on_c, 5, 72, 65
7, 25620, Note_on_c, 5, 72, 0
7, 25620, Note_on_c, 5, 64, 64
7, 25650, Note_on_c, 5, 64, 0
7, 25650, Note_on_c, 5, 66, 64
7, 25680, Note_on_c, 5, 66, 0
7, 25680, Note_on_c, 5, 67, 64
7, 25710, Note_on_c, 5, 67, 0
7, 25710, Note_on_c, 5, 64, 64
7, 25740, Note_on_c, 5, 64, 0
7, 25740, Note_on_c, 5, 66, 64
7, 25770, Note_on_c, 5, 66, 0
7, 25920, Note_on_c, 5, 74, 40
7, 25980, Note_on_c, 5, 74, 0
7, 25980, Note_on_c, 5, 72, 40
7, 26010, Note_on_c, 5, 72, 0
7, 26040, Note_on_c, 5, 72, 40
7, 26070, Note_on_c, 5, 72, 0
7, 26100, Note_on_c, 5, 71, 40
7, 26130, Note_on_c, 5, 71, 0
7, 26160, Note_on_c, 5, 71, 40
7, 26220, Note_on_c, 5, 71, 0
7, 26220, Note_on_c, 5, 69, 41
7, 26250, Note_on_c, 5, 69, 0
7, 26460, Note_on_c, 5, 72, 45
7, 26520, Note_on_c, 5, 72, 0
7, 26520, Note_on_c, 5, 71, 46
7, 26580, Note_on_c, 5, 71, 0
7, 26580, Note_on_c, 5, 69, 47
7, 26640, Note_on_c, 5, 69, 0
7, 26640, Note_on_c, 5, 74, 48
7, 26700, Note_on_c, 5, 74, 0
7, 26700, Note_on_c, 5, 71, 49
7, 26760, Note_on_c, 5, 71, 0
7, 26760, Note_on_c, 5, 67, 50
7, 26820, Note_on_c, 5, 67, 0
7, 27240, Note_on_c, 5, 72, 58
7, 27420, Note_on_c, 5, 72, 0
7, 27420, Note_on_c, 5, 69, 61
7, 27540, Note_on_c, 5, 69, 0
7, 27540, Note_on_c, 5, 74, 63
7, 27660, Note_on_c, 5, 74, 0
7, 27660, Note_on_c, 5, 72, 65
7, 27690, Note_on_c, 5, 72, 0
7, 27690, Note_on_c, 5, 71, 66
7, 27720, Note_on_c, 5, 71, 0
7, 27720, Note_on_c, 5, 72, 66
7, 27780, Note_on_c, 5, 72, 0
7, 27780, Note_on_c, 5, 69, 67
7, 27840, Note_on_c, 5, 69, 0
7, 27840, Note_on_c, 5, 67, 68
7, 27870, Note_on_c, 5, 67, 0
7, 27900, Note_on_c, 5, 72, 69
7, 27960, Note_on_c, 5, 72, 0
7, 27960, Note_on_c, 5, 71, 70
7, 28020, Note_on_c, 5, 71, 0
7, 28020, Note_on_c, 5, 69, 71
7, 28050, Note_on_c, 5, 69, 0
7, 28080, Note_on_c, 5, 74, 72
7, 28140, Note_on_c, 5, 74, 0
7, 28140, Note_on_c, 5, 62, 73
7, 28200, Note_on_c, 5, 62, 0
7, 28200, Note_on_c, 5, 64, 74
7, 28260, Note_on_c, 5, 64, 0
7, 28260, Note_on_c, 5, 69, 75
7, 28320, Note_on_c, 5, 69, 0
7, 28320, Note_on_c, 5, 66, 76
7, 28500, Note_on_c, 5, 66, 0
7, 28500, Note_on_c, 5, 67, 79
7, 28530, Note_on_c, 5, 67, 0
7, 28560, Note_on_c, 5, 67, 80
7, 28680, Note_on_c, 5, 67, 0
7, 35760, Control_c, 5, 7, 100
7, 35760, Note_on_c, 5, 71, 64
7, 35820, Note_on_c, 5, 71, 0
7, 35820, Note_on_c, 5, 69, 64
7, 35940, Note_on_c, 5, 69, 0
7, 35940, Note_on_c, 5, 71, 64
7, 35970, Note_on_c, 5, 71, 0
7, 35970, Note_on_c, 5, 67, 64
7, 36000, Note_on_c, 5, 67, 0
7, 36000, Note_on_c, 5, 72, 64
7, 36060, Note_on_c, 5, 72, 0
7, 36060, Note_on_c, 5, 71, 64
7, 36180, Note_on_c, 5, 71, 0
7, 36180, Note_on_c, 5, 69, 64
7, 36210, Note_on_c, 5, 69, 0
7, 36240, Note_on_c, 5, 75, 64
7, 36300, Note_on_c, 5, 75, 0
7, 36300, Note_on_c, 5, 76, 64
7, 36420, Note_on_c, 5, 76, 0
7, 36420, Note_on_c, 5, 67, 64
7, 36480, Note_on_c, 5, 67, 0
7, 36480, Note_on_c, 5, 67, 64
7, 36489, Note_on_c, 5, 67, 0
7, 36489, Note_on_c, 5, 69, 64
7, 36500, Note_on_c, 5, 69, 0
7, 36500, Note_on_c, 5, 67, 64
7, 36510, Note_on_c, 5, 67, 0
7, 36510, Note_on_c, 5, 66, 64
7, 36540, Note_on_c, 5, 66, 0
7, 36540, Note_on_c, 5, 67, 64
7, 36600, Note_on_c, 5, 67, 0
7, 36600, Note_on_c, 5, 66, 64
7, 36720, Note_on_c, 5, 66, 0
7, 36720, Note_on_c, 5, 71, 64
7, 36840, Note_on_c, 5, 71, 0
7, 36840, Note_on_c, 5, 71, 64
7, 36900, Note_on_c, 5, 71, 0
7, 36900, Note_on_c, 5, 71, 64
7, 36960, Note_on_c, 5, 71, 0
7, 36960, Note_on_c, 5, 71, 64
7, 37260, Note_on_c, 5, 71, 0
7, 37260, Note_on_c, 5, 69, 64
7, 37290, Note_on_c, 5, 69, 0
7, 37320, Note_on_c, 5, 68, 64
7, 37380, Note_on_c, 5, 68, 0
7, 37380, Note_on_c, 5, 69, 64
7, 37440, Note_on_c, 5, 69, 0
7, 37440, Note_on_c, 5, 71, 64
7, 37470, Note_on_c, 5, 71, 0
7, 37470, Note_on_c, 5, 72, 64
7, 37500, Note_on_c, 5, 72, 0
7, 37500, Note_on_c, 5, 74, 64
7, 37560, Note_on_c, 5, 74, 0
7, 37560, Note_on_c, 5, 74, 64
7, 37680, Note_on_c, 5, 74, 0
7, 37680, Note_on_c, 5, 72, 64
7, 37740, Note_on_c, 5, 72, 0
7, 37740, Note_on_c, 5, 71, 64
7, 37860, Note_on_c, 5, 71, 0
7, 37860, Note_on_c, 5, 69, 64
7, 37920, Note_on_c, 5, 69, 0
7, 37920, Note_on_c, 5, 69, 64
7, 37950, Note_on_c, 5, 69, 0
7, 37950, Note_on_c, 5, 67, 64
7, 37980, Note_on_c, 5, 67, 0
7, 37980, Note_on_c, 5, 69, 64
7, 38100, Note_on_c, 5, 69, 0
7, 38100, Note_on_c, 5, 71, 64
7, 38130, Note_on_c, 5, 71, 0
7, 38160, Note_on_c, 5, 67, 64
7, 38220, Note_on_c, 5, 67, 0
7, 38220, Note_on_c, 5, 71, 64
7, 38250, Note_on_c, 5, 71, 0
7, 38250, Note_on_c, 5, 69, 64
7, 38280, Note_on_c, 5, 69, 0
7, 38280, Note_on_c, 5, 67, 64
7, 38340, Note_on_c, 5, 67, 0
7, 38340, Note_on_c, 5, 66, 64
7, 38400, Note_on_c, 5, 66, 0
7, 38400, Note_on_c, 5, 64, 64
7, 38520, Note_on_c, 5, 64, 0
7, 40560, Control_c, 5, 7, 127
7, 40560, Note_on_c, 5, 71, 64
7, 40620, Note_on_c, 5, 71, 0
7, 40620, Note_on_c, 5, 69, 64
7, 40710, Note_on_c, 5, 69, 0
7, 40710, Note_on_c, 5, 66, 64
7, 40740, Note_on_c, 5, 66, 0
7, 40740, Note_on_c, 5, 67, 64
7, 40800, Note_on_c, 5, 67, 0
7, 40800, Note_on_c, 5, 73, 64
7, 40860, Note_on_c, 5, 73, 0
7, 40860, Note_on_c, 5, 74, 64
7, 40980, Note_on_c, 5, 74, 0
7, 40980, Note_on_c, 5, 71, 64
7, 41010, Note_on_c, 5, 71, 0
7, 41040, Note_on_c, 5, 67, 64
7, 41100, Note_on_c, 5, 67, 0
7, 41100, Note_on_c, 5, 76, 64
7, 41220, Note_on_c, 5, 76, 0
7, 41220, Note_on_c, 5, 67, 64
7, 41280, Note_on_c, 5, 67, 0
7, 41280, Note_on_c, 5, 67, 64
7, 41295, Note_on_c, 5, 67, 0
7, 41295, Note_on_c, 5, 69, 64
7, 41310, Note_on_c, 5, 69, 0
7, 41310, Note_on_c, 5, 67, 64
7, 41325, Note_on_c, 5, 67, 0
7, 41325, Note_on_c, 5, 66, 64
7, 41355, Note_on_c, 5, 66, 0
7, 41355, Note_on_c, 5, 67, 64
7, 41415, Note_on_c, 5, 67, 0
7, 41415, Note_on_c, 5, 66, 64
7, 41475, Note_on_c, 5, 66, 0
7, 41520, Note_on_c, 5, 71, 64
7, 41580, Note_on_c, 5, 71, 0
7, 41580, Note_on_c, 5, 70, 64
7, 41700, Note_on_c, 5, 70, 0
7, 41700, Note_on_c, 5, 73, 64
7, 41730, Note_on_c, 5, 73, 0
7, 41730, Note_on_c, 5, 71, 64
7, 41760, Note_on_c, 5, 71, 0
7, 41760, Note_on_c, 5, 73, 64
7, 41790, Note_on_c, 5, 73, 0
7, 41790, Note_on_c, 5, 74, 64
7, 41820, Note_on_c, 5, 74, 0
7, 41820, Note_on_c, 5, 76, 64
7, 41940, Note_on_c, 5, 76, 0
7, 41940, Note_on_c, 5, 74, 64
7, 41970, Note_on_c, 5, 74, 0
7, 41970, Note_on_c, 5, 73, 64
7, 42000, Note_on_c, 5, 73, 0
7, 42000, Note_on_c, 5, 75, 64
7, 42060, Note_on_c, 5, 75, 0
7, 42060, Note_on_c, 5, 76, 64
7, 42120, Note_on_c, 5, 76, 0
7, 42120, Note_on_c, 5, 69, 64
7, 42300, Note_on_c, 5, 69, 0
7, 42300, Note_on_c, 5, 78, 64
7, 42360, Note_on_c, 5, 78, 0
7, 42360, Note_on_c, 5, 76, 64
7, 42420, Note_on_c, 5, 76, 0
7, 42420, Note_on_c, 5, 75, 64
7, 42450, Note_on_c, 5, 75, 0
7, 42480, Note_on_c, 5, 76, 64
7, 42540, Note_on_c, 5, 76, 0
7, 42540, Note_on_c, 5, 74, 64
7, 42660, Note_on_c, 5, 74, 0
7, 42660, Note_on_c, 5, 73, 64
7, 42690, Note_on_c, 5, 73, 0
7, 42690, Note_on_c, 5, 71, 64
7, 42720, Note_on_c, 5, 71, 0
7, 42720, Note_on_c, 5, 70, 64
7, 42750, Note_on_c, 5, 70, 0
7, 42750, Note_on_c, 5, 71, 64
7, 42780, Note_on_c, 5, 71, 0
7, 42780, Note_on_c, 5, 73, 64
7, 42900, Note_on_c, 5, 73, 0
7, 42900, Note_on_c, 5, 70, 64
7, 42930, Note_on_c, 5, 70, 0
7, 42960, Note_on_c, 5, 66, 64
7, 43020, Note_on_c, 5, 66, 0
7, 43020, Note_on_c, 5, 71, 64
7, 43050, Note_on_c, 5, 71, 0
7, 43050, Note_on_c, 5, 71, 64
7, 43080, Note_on_c, 5, 71, 0
7, 43080, Note_on_c, 5, 71, 64
7, 43140, Note_on_c, 5, 71, 0
7, 43140, Note_on_c, 5, 70, 64
7, 43200, Note_on_c, 5, 70, 0
7, 43200, Note_on_c, 5, 71, 64
7, 43320, Note_on_c, 5, 71, 0
7, 43560, Note_on_c, 5, 73, 64
7, 43620, Note_on_c, 5, 73, 0
7, 43620, Note_on_c, 5, 76, 64
7, 43650, Note_on_c, 5, 76, 0
7, 43650, Note_on_c, 5, 74, 64
7, 43680, Note_on_c, 5, 74, 0
7, 43680, Note_on_c, 5, 76, 64
7, 43740, Note_on_c, 5, 76, 0
7, 43740, Note_on_c, 5, 74, 64
7, 43770, Note_on_c, 5, 74, 0
7, 43770, Note_on_c, 5, 73, 64
7, 43800, Note_on_c, 5, 73, 0
7, 43800, Note_on_c, 5, 74, 64
7, 43860, Note_on_c, 5, 74, 0
7, 43860, Note_on_c, 5, 71, 64
7, 43920, Note_on_c, 5, 71, 0
7, 43920, Note_on_c, 5, 73, 64
7, 43980, Note_on_c, 5, 73, 0
7, 43980, Note_on_c, 5, 78, 64
7, 44040, Note_on_c, 5, 78, 0
7, 44040, Note_on_c, 5, 70, 64
7, 44100, Note_on_c, 5, 70, 0
7, 44100, Note_on_c, 5, 71, 64
7, 44160, Note_on_c, 5, 71, 0
7, 44160, Note_on_c, 5, 73, 64
7, 44220, Note_on_c, 5, 73, 0
7, 44220, Note_on_c, 5, 71, 64
7, 44250, Note_on_c, 5, 71, 0
7, 44250, Note_on_c, 5, 70, 64
7, 44280, Note_on_c, 5, 70, 0
7, 44280, Note_on_c, 5, 71, 64
7, 44340, Note_on_c, 5, 71, 0
7, 44340, Note_on_c, 5, 70, 64
7, 44370, Note_on_c, 5, 70, 0
7, 44370, Note_on_c, 5, 68, 64
7, 44400, Note_on_c, 5, 68, 0
7, 44400, Note_on_c, 5, 70, 64
7, 44460, Note_on_c, 5, 70, 0
7, 44460, Note_on_c, 5, 66, 64
7, 44520, Note_on_c, 5, 66, 0
7, 44520, Note_on_c, 5, 78, 64
7, 44700, Note_on_c, 5, 78, 0
7, 44700, Note_on_c, 5, 74, 64
7, 44760, Note_on_c, 5, 74, 0
7, 44760, Note_on_c, 5, 71, 64
7, 44940, Note_on_c, 5, 71, 0
7, 44940, Note_on_c, 5, 79, 64
7, 45000, Note_on_c, 5, 79, 0
7, 45000, Note_on_c, 5, 73, 64
7, 45060, Note_on_c, 5, 73, 0
7, 45060, Note_on_c, 5, 71, 64
7, 45120, Note_on_c, 5, 71, 0
7, 45120, Note_on_c, 5, 70, 64
7, 45180, Note_on_c, 5, 70, 0
7, 45180, Note_on_c, 5, 66, 64
7, 45240, Note_on_c, 5, 66, 0
7, 45240, Note_on_c, 5, 74, 64
7, 45300, Note_on_c, 5, 74, 0
7, 45300, Note_on_c, 5, 68, 64
7, 45360, Note_on_c, 5, 68, 0
7, 45360, Note_on_c, 5, 71, 64
7, 45480, Note_on_c, 5, 71, 0
7, 45480, Note_on_c, 5, 71, 64
7, 45495, Note_on_c, 5, 71, 0
7, 45495, Note_on_c, 5, 70, 64
7, 45510, Note_on_c, 5, 70, 0
7, 45510, Note_on_c, 5, 71, 64
7, 45525, Note_on_c, 5, 71, 0
7, 45525, Note_on_c, 5, 70, 64
7, 45540, Note_on_c, 5, 70, 0
7, 45540, Note_on_c, 5, 71, 64
7, 45555, Note_on_c, 5, 71, 0
7, 45555, Note_on_c, 5, 70, 64
7, 45570, Note_on_c, 5, 70, 0
7, 45570, Note_on_c, 5, 71, 64
7, 45600, Note_on_c, 5, 71, 0
7, 45600, Note_on_c, 5, 71, 64
7, 45720, Note_on_c, 5, 71, 0
7, 45840, End_track
8, 0, Start_track
8, 0, MIDI_port, 0
8, 0, Title_t, "Tenor"
8, 0, Program_c, 6, 53
8, 7920, Note_on_c, 6, 67, 64
8, 7980, Note_on_c, 6, 67, 0
8, 7980, Note_on_c, 6, 66, 64
8, 8010, Note_on_c, 6, 66, 0
8, 8040, Note_on_c, 6, 66, 64
8, 8070, Note_on_c, 6, 66, 0
8, 8100, Note_on_c, 6, 64, 64
8, 8130, Note_on_c, 6, 64, 0
8, 8160, Note_on_c, 6, 62, 64
8, 8460, Note_on_c, 6, 62, 0
8, 8460, Note_on_c, 6, 60, 64
8, 8490, Note_on_c, 6, 60, 0
8, 8520, Note_on_c, 6, 59, 64
8, 8550, Note_on_c, 6, 59, 0
8, 8580, Note_on_c, 6, 57, 64
8, 8610, Note_on_c, 6, 57, 0
8, 8640, Note_on_c, 6, 59, 64
8, 8670, Note_on_c, 6, 59, 0
8, 8670, Note_on_c, 6, 60, 64
8, 8700, Note_on_c, 6, 60, 0
8, 8700, Note_on_c, 6, 57, 64
8, 8730, Note_on_c, 6, 57, 0
8, 8730, Note_on_c, 6, 59, 64
8, 8760, Note_on_c, 6, 59, 0
8, 8760, Note_on_c, 6, 60, 64
8, 8790, Note_on_c, 6, 60, 0
8, 8790, Note_on_c, 6, 62, 64
8, 8820, Note_on_c, 6, 62, 0
8, 8820, Note_on_c, 6, 59, 64
8, 8850, Note_on_c, 6, 59, 0
8, 8850, Note_on_c, 6, 60, 64
8, 8880, Note_on_c, 6, 60, 0
8, 8880, Note_on_c, 6, 62, 64
8, 9030, Note_on_c, 6, 62, 0
8, 9030, Note_on_c, 6, 60, 64
8, 9060, Note_on_c, 6, 60, 0
8, 9060, Note_on_c, 6, 59, 64
8, 9090, Note_on_c, 6, 59, 0
8, 9090, Note_on_c, 6, 57, 64
8, 9120, Note_on_c, 6, 57, 0
8, 9120, Note_on_c, 6, 55, 64
8, 9150, Note_on_c, 6, 55, 0
8, 9150, Note_on_c, 6, 57, 64
8, 9180, Note_on_c, 6, 57, 0
8, 9180, Note_on_c, 6, 54, 64
8, 9210, Note_on_c, 6, 54, 0
8, 9210, Note_on_c, 6, 55, 64
8, 9240, Note_on_c, 6, 55, 0
8, 9240, Note_on_c, 6, 57, 64
8, 9270, Note_on_c, 6, 57, 0
8, 9270, Note_on_c, 6, 59, 64
8, 9300, Note_on_c, 6, 59, 0
8, 9300, Note_on_c, 6, 55, 64
8, 9330, Note_on_c, 6, 55, 0
8, 9330, Note_on_c, 6, 57, 64
8, 9360, Note_on_c, 6, 57, 0
8, 9360, Note_on_c, 6, 59, 64
8, 9390, Note_on_c, 6, 59, 0
8, 9390, Note_on_c, 6, 60, 64
8, 9420, Note_on_c, 6, 60, 0
8, 9420, Note_on_c, 6, 62, 64
8, 9540, Note_on_c, 6, 62, 0
8, 9540, Note_on_c, 6, 60, 64
8, 9615, Note_on_c, 6, 60, 0
8, 9615, Note_on_c, 6, 62, 64
8, 9630, Note_on_c, 6, 62, 0
8, 9630, Note_on_c, 6, 60, 64
8, 9645, Note_on_c, 6, 60, 0
8, 9645, Note_on_c, 6, 59, 64
8, 9675, Note_on_c, 6, 59, 0
8, 9675, Note_on_c, 6, 60, 64
8, 9735, Note_on_c, 6, 60, 0
8, 9735, Note_on_c, 6, 59, 64
8, 9795, Note_on_c, 6, 59, 0
8, 9840, Note_on_c, 6, 57, 64
8, 9870, Note_on_c, 6, 57, 0
8, 9870, Note_on_c, 6, 55, 64
8, 9900, Note_on_c, 6, 55, 0
8, 9900, Note_on_c, 6, 54, 64
8, 10020, Note_on_c, 6, 54, 0
8, 10020, Note_on_c, 6, 55, 64
8, 10080, Note_on_c, 6, 55, 0
8, 10080, Note_on_c, 6, 57, 64
8, 10110, Note_on_c, 6, 57, 0
8, 10110, Note_on_c, 6, 59, 64
8, 10140, Note_on_c, 6, 59, 0
8, 10140, Note_on_c, 6, 60, 64
8, 10260, Note_on_c, 6, 60, 0
8, 10260, Note_on_c, 6, 59, 64
8, 10290, Note_on_c, 6, 59, 0
8, 10290, Note_on_c, 6, 57, 64
8, 10320, Note_on_c, 6, 57, 0
8, 10320, Note_on_c, 6, 55, 64
8, 10350, Note_on_c, 6, 55, 0
8, 10350, Note_on_c, 6, 57, 64
8, 10380, Note_on_c, 6, 57, 0
8, 10380, Note_on_c, 6, 59, 64
8, 10500, Note_on_c, 6, 59, 0
8, 10500, Note_on_c, 6, 57, 64
8, 10560, Note_on_c, 6, 57, 0
8, 10560, Note_on_c, 6, 55, 64
8, 10680, Note_on_c, 6, 55, 0
8, 10680, Note_on_c, 6, 54, 64
8, 10740, Note_on_c, 6, 54, 0
8, 12000, Note_on_c, 6, 62, 64
8, 12060, Note_on_c, 6, 62, 0
8, 12060, Note_on_c, 6, 60, 64
8, 12090, Note_on_c, 6, 60, 0
8, 12120, Note_on_c, 6, 60, 64
8, 12150, Note_on_c, 6, 60, 0
8, 12180, Note_on_c, 6, 59, 64
8, 12210, Note_on_c, 6, 59, 0
8, 12240, Note_on_c, 6, 59, 64
8, 12270, Note_on_c, 6, 59, 0
8, 12300, Note_on_c, 6, 57, 64
8, 12330, Note_on_c, 6, 57, 0
8, 12360, Note_on_c, 6, 55, 64
8, 12390, Note_on_c, 6, 55, 0
8, 12420, Note_on_c, 6, 54, 64
8, 12450, Note_on_c, 6, 54, 0
8, 12480, Note_on_c, 6, 55, 64
8, 12510, Note_on_c, 6, 55, 0
8, 12510, Note_on_c, 6, 57, 64
8, 12540, Note_on_c, 6, 57, 0
8, 12540, Note_on_c, 6, 54, 64
8, 12570, Note_on_c, 6, 54, 0
8, 12570, Note_on_c, 6, 55, 64
8, 12600, Note_on_c, 6, 55, 0
8, 12600, Note_on_c, 6, 57, 64
8, 12630, Note_on_c, 6, 57, 0
8, 12630, Note_on_c, 6, 59, 64
8, 12660, Note_on_c, 6, 59, 0
8, 12660, Note_on_c, 6, 55, 64
8, 12690, Note_on_c, 6, 55, 0
8, 12690, Note_on_c, 6, 57, 64
8, 12720, Note_on_c, 6, 57, 0
8, 12720, Note_on_c, 6, 59, 64
8, 12870, Note_on_c, 6, 59, 0
8, 12870, Note_on_c, 6, 57, 64
8, 12900, Note_on_c, 6, 57, 0
8, 12900, Note_on_c, 6, 55, 64
8, 12930, Note_on_c, 6, 55, 0
8, 12930, Note_on_c, 6, 57, 64
8, 12960, Note_on_c, 6, 57, 0
8, 12960, Note_on_c, 6, 59, 64
8, 12990, Note_on_c, 6, 59, 0
8, 12990, Note_on_c, 6, 60, 64
8, 13020, Note_on_c, 6, 60, 0
8, 13020, Note_on_c, 6, 57, 64
8, 13050, Note_on_c, 6, 57, 0
8, 13050, Note_on_c, 6, 59, 64
8, 13080, Note_on_c, 6, 59, 0
8, 13080, Note_on_c, 6, 60, 64
8, 13110, Note_on_c, 6, 60, 0
8, 13110, Note_on_c, 6, 62, 64
8, 13140, Note_on_c, 6, 62, 0
8, 13140, Note_on_c, 6, 59, 64
8, 13170, Note_on_c, 6, 59, 0
8, 13170, Note_on_c, 6, 60, 64
8, 13200, Note_on_c, 6, 60, 0
8, 13200, Note_on_c, 6, 62, 64
8, 13230, Note_on_c, 6, 62, 0
8, 13230, Note_on_c, 6, 64, 64
8, 13260, Note_on_c, 6, 64, 0
8, 13260, Note_on_c, 6, 65, 64
8, 13380, Note_on_c, 6, 65, 0
8, 13380, Note_on_c, 6, 64, 64
8, 13455, Note_on_c, 6, 64, 0
8, 13455, Note_on_c, 6, 65, 64
8, 13470, Note_on_c, 6, 65, 0
8, 13470, Note_on_c, 6, 64, 64
8, 13485, Note_on_c, 6, 64, 0
8, 13485, Note_on_c, 6, 62, 64
8, 13515, Note_on_c, 6, 62, 0
8, 13515, Note_on_c, 6, 64, 64
8, 13575, Note_on_c, 6, 64, 0
8, 13575, Note_on_c, 6, 62, 64
8, 13635, Note_on_c, 6, 62, 0
8, 13680, Note_on_c, 6, 60, 64
8, 13710, Note_on_c, 6, 60, 0
8, 13710, Note_on_c, 6, 59, 64
8, 13740, Note_on_c, 6, 59, 0
8, 13740, Note_on_c, 6, 57, 64
8, 13860, Note_on_c, 6, 57, 0
8, 13860, Note_on_c, 6, 59, 64
8, 13920, Note_on_c, 6, 59, 0
8, 13920, Note_on_c, 6, 60, 64
8, 13950, Note_on_c, 6, 60, 0
8, 13950, Note_on_c, 6, 62, 64
8, 13980, Note_on_c, 6, 62, 0
8, 13980, Note_on_c, 6, 64, 64
8, 14100, Note_on_c, 6, 64, 0
8, 14100, Note_on_c, 6, 62, 64
8, 14130, Note_on_c, 6, 62, 0
8, 14130, Note_on_c, 6, 60, 64
8, 14160, Note_on_c, 6, 60, 0
8, 14160, Note_on_c, 6, 59, 64
8, 14190, Note_on_c, 6, 59, 0
8, 14190, Note_on_c, 6, 60, 64
8, 14220, Note_on_c, 6, 60, 0
8, 14220, Note_on_c, 6, 62, 64
8, 14340, Note_on_c, 6, 62, 0
8, 14340, Note_on_c, 6, 60, 64
8, 14400, Note_on_c, 6, 60, 0
8, 14400, Note_on_c, 6, 59, 64
8, 14520, Note_on_c, 6, 59, 0
8, 14520, Note_on_c, 6, 57, 64
8, 14580, Note_on_c, 6, 57, 0
8, 15120, Note_on_c, 6, 62, 75
8, 15150, Note_on_c, 6, 62, 0
8, 15180, Note_on_c, 6, 61, 75
8, 15210, Note_on_c, 6, 61, 0
8, 15210, Note_on_c, 6, 59, 75
8, 15240, Note_on_c, 6, 59, 0
8, 15240, Note_on_c, 6, 57, 75
8, 15420, Note_on_c, 6, 57, 0
8, 15420, Note_on_c, 6, 55, 75
8, 15450, Note_on_c, 6, 55, 0
8, 15480, Note_on_c, 6, 55, 75
8, 15540, Note_on_c, 6, 55, 0
8, 15540, Note_on_c, 6, 54, 75
8, 15570, Note_on_c, 6, 54, 0
8, 15600, Note_on_c, 6, 54, 75
8, 15630, Note_on_c, 6, 54, 0
8, 15660, Note_on_c, 6, 52, 75
8, 15690, Note_on_c, 6, 52, 0
8, 15720, Note_on_c, 6, 50, 75
8, 15750, Note_on_c, 6, 50, 0
8, 15750, Note_on_c, 6, 52, 75
8, 15780, Note_on_c, 6, 52, 0
8, 15780, Note_on_c, 6, 48, 75
8, 15810, Note_on_c, 6, 48, 0
8, 15810, Note_on_c, 6, 50, 75
8, 15840, Note_on_c, 6, 50, 0
8, 15840, Note_on_c, 6, 52, 75
8, 15870, Note_on_c, 6, 52, 0
8, 15870, Note_on_c, 6, 54, 75
8, 15900, Note_on_c, 6, 54, 0
8, 15900, Note_on_c, 6, 50, 75
8, 15930, Note_on_c, 6, 50, 0
8, 15930, Note_on_c, 6, 52, 75
8, 15960, Note_on_c, 6, 52, 0
8, 15960, Note_on_c, 6, 54, 75
8, 15990, Note_on_c, 6, 54, 0
8, 15990, Note_on_c, 6, 55, 75
8, 16020, Note_on_c, 6, 55, 0
8, 16020, Note_on_c, 6, 52, 75
8, 16050, Note_on_c, 6, 52, 0
8, 16050, Note_on_c, 6, 54, 75
8, 16080, Note_on_c, 6, 54, 0
8, 16080, Note_on_c, 6, 55, 75
8, 16110, Note_on_c, 6, 55, 0
8, 16110, Note_on_c, 6, 57, 75
8, 16140, Note_on_c, 6, 57, 0
8, 16140, Note_on_c, 6, 54, 75
8, 16170, Note_on_c, 6, 54, 0
8, 16170, Note_on_c, 6, 55, 75
8, 16200, Note_on_c, 6, 55, 0
8, 16200, Note_on_c, 6, 57, 75
8, 16260, Note_on_c, 6, 57, 0
8, 16260, Note_on_c, 6, 54, 75
8, 16320, Note_on_c, 6, 54, 0
8, 16320, Note_on_c, 6, 55, 75
8, 16350, Note_on_c, 6, 55, 0
8, 16350, Note_on_c, 6, 57, 75
8, 16380, Note_on_c, 6, 57, 0
8, 16380, Note_on_c, 6, 59, 75
8, 16410, Note_on_c, 6, 59, 0
8, 16440, Note_on_c, 6, 59, 75
8, 16500, Note_on_c, 6, 59, 0
8, 16560, Note_on_c, 6, 67, 75
8, 16590, Note_on_c, 6, 67, 0
8, 16620, Note_on_c, 6, 66, 75
8, 16650, Note_on_c, 6, 66, 0
8, 16650, Note_on_c, 6, 64, 75
8, 16680, Note_on_c, 6, 64, 0
8, 16680, Note_on_c, 6, 62, 75
8, 16860, Note_on_c, 6, 62, 0
8, 16860, Note_on_c, 6, 60, 75
8, 16890, Note_on_c, 6, 60, 0
8, 16920, Note_on_c, 6, 60, 75
8, 16980, Note_on_c, 6, 60, 0
8, 16980, Note_on_c, 6, 59, 75
8, 17010, Note_on_c, 6, 59, 0
8, 17040, Note_on_c, 6, 59, 75
8, 17100, Note_on_c, 6, 59, 0
8, 17100, Note_on_c, 6, 60, 75
8, 17130, Note_on_c, 6, 60, 0
8, 17160, Note_on_c, 6, 62, 75
8, 17220, Note_on_c, 6, 62, 0
8, 17220, Note_on_c, 6, 54, 75
8, 17250, Note_on_c, 6, 54, 0
8, 17280, Note_on_c, 6, 55, 75
8, 17310, Note_on_c, 6, 55, 0
8, 17310, Note_on_c, 6, 57, 75
8, 17340, Note_on_c, 6, 57, 0
8, 17340, Note_on_c, 6, 54, 75
8, 17370, Note_on_c, 6, 54, 0
8, 17370, Note_on_c, 6, 55, 75
8, 17400, Note_on_c, 6, 55, 0
8, 17400, Note_on_c, 6, 57, 75
8, 17430, Note_on_c, 6, 57, 0
8, 17430, Note_on_c, 6, 59, 75
8, 17460, Note_on_c, 6, 59, 0
8, 17460, Note_on_c, 6, 55, 75
8, 17490, Note_on_c, 6, 55, 0
8, 17490, Note_on_c, 6, 57, 75
8, 17520, Note_on_c, 6, 57, 0
8, 17520, Note_on_c, 6, 59, 75
8, 17670, Note_on_c, 6, 59, 0
8, 17670, Note_on_c, 6, 60, 75
8, 17700, Note_on_c, 6, 60, 0
8, 17700, Note_on_c, 6, 57, 75
8, 17730, Note_on_c, 6, 57, 0
8, 17730, Note_on_c, 6, 59, 75
8, 17760, Note_on_c, 6, 59, 0
8, 17760, Note_on_c, 6, 60, 75
8, 17790, Note_on_c, 6, 60, 0
8, 17790, Note_on_c, 6, 62, 75
8, 17820, Note_on_c, 6, 62, 0
8, 17820, Note_on_c, 6, 59, 75
8, 17850, Note_on_c, 6, 59, 0
8, 17850, Note_on_c, 6, 60, 75
8, 17880, Note_on_c, 6, 60, 0
8, 17880, Note_on_c, 6, 62, 75
8, 17910, Note_on_c, 6, 62, 0
8, 17910, Note_on_c, 6, 64, 75
8, 17940, Note_on_c, 6, 64, 0
8, 17940, Note_on_c, 6, 60, 75
8, 17970, Note_on_c, 6, 60, 0
8, 17970, Note_on_c, 6, 62, 75
8, 18000, Note_on_c, 6, 62, 0
8, 18000, Note_on_c, 6, 64, 75
8, 18030, Note_on_c, 6, 64, 0
8, 18030, Note_on_c, 6, 65, 75
8, 18060, Note_on_c, 6, 65, 0
8, 18060, Note_on_c, 6, 62, 75
8, 18090, Note_on_c, 6, 62, 0
8, 18090, Note_on_c, 6, 64, 75
8, 18120, Note_on_c, 6, 64, 0
8, 18120, Note_on_c, 6, 65, 75
8, 18180, Note_on_c, 6, 65, 0
8, 18180, Note_on_c, 6, 62, 75
8, 18240, Note_on_c, 6, 62, 0
8, 18240, Note_on_c, 6, 64, 75
8, 18270, Note_on_c, 6, 64, 0
8, 18270, Note_on_c, 6, 65, 75
8, 18300, Note_on_c, 6, 65, 0
8, 18300, Note_on_c, 6, 67, 75
8, 18330, Note_on_c, 6, 67, 0
8, 18360, Note_on_c, 6, 67, 75
8, 18420, Note_on_c, 6, 67, 0
8, 18480, Note_on_c, 6, 60, 50
8, 18540, Note_on_c, 6, 60, 0
8, 18540, Note_on_c, 6, 59, 50
8, 18660, Note_on_c, 6, 59, 0
8, 18660, Note_on_c, 6, 57, 50
8, 18690, Note_on_c, 6, 57, 0
8, 18720, Note_on_c, 6, 55, 50
8, 18780, Note_on_c, 6, 55, 0
8, 18780, Note_on_c, 6, 54, 50
8, 18900, Note_on_c, 6, 54, 0
8, 18900, Note_on_c, 6, 55, 50
8, 18930, Note_on_c, 6, 55, 0
8, 18930, Note_on_c, 6, 57, 50
8, 18960, Note_on_c, 6, 57, 0
8, 18960, Note_on_c, 6, 59, 50
8, 19020, Note_on_c, 6, 59, 0
8, 19020, Note_on_c, 6, 57, 50
8, 19140, Note_on_c, 6, 57, 0
8, 19140, Note_on_c, 6, 55, 50
8, 19200, Note_on_c, 6, 55, 0
8, 19200, Note_on_c, 6, 54, 50
8, 19260, Note_on_c, 6, 54, 0
8, 19260, Note_on_c, 6, 52, 50
8, 19290, Note_on_c, 6, 52, 0
8, 19440, Note_on_c, 6, 62, 50
8, 19590, Note_on_c, 6, 62, 0
8, 19590, Note_on_c, 6, 60, 48
8, 19620, Note_on_c, 6, 60, 0
8, 19620, Note_on_c, 6, 64, 47
8, 19650, Note_on_c, 6, 64, 0
8, 19650, Note_on_c, 6, 62, 47
8, 19680, Note_on_c, 6, 62, 0
8, 19680, Note_on_c, 6, 60, 46
8, 19830, Note_on_c, 6, 60, 0
8, 19830, Note_on_c, 6, 59, 44
8, 19860, Note_on_c, 6, 59, 0
8, 19860, Note_on_c, 6, 62, 43
8, 19890, Note_on_c, 6, 62, 0
8, 19890, Note_on_c, 6, 60, 43
8, 19920, Note_on_c, 6, 60, 0
8, 19920, Note_on_c, 6, 59, 42
8, 20070, Note_on_c, 6, 59, 0
8, 20070, Note_on_c, 6, 57, 40
8, 20100, Note_on_c, 6, 57, 0
8, 20100, Note_on_c, 6, 60, 40
8, 20130, Note_on_c, 6, 60, 0
8, 20160, Note_on_c, 6, 57, 39
8, 20220, Note_on_c, 6, 57, 0
8, 20220, Note_on_c, 6, 50, 38
8, 20250, Note_on_c, 6, 50, 0
8, 20280, Note_on_c, 6, 62, 64
8, 20430, Note_on_c, 6, 62, 0
8, 20430, Note_on_c, 6, 60, 63
8, 20460, Note_on_c, 6, 60, 0
8, 20460, Note_on_c, 6, 64, 62
8, 20490, Note_on_c, 6, 64, 0
8, 20490, Note_on_c, 6, 62, 61
8, 20520, Note_on_c, 6, 62, 0
8, 20520, Note_on_c, 6, 60, 60
8, 20670, Note_on_c, 6, 60, 0
8, 20670, Note_on_c, 6, 59, 56
8, 20700, Note_on_c, 6, 59, 0
8, 20700, Note_on_c, 6, 62, 55
8, 20730, Note_on_c, 6, 62, 0
8, 20730, Note_on_c, 6, 60, 54
8, 20760, Note_on_c, 6, 60, 0
8, 20760, Note_on_c, 6, 59, 53
8, 20910, Note_on_c, 6, 59, 0
8, 20910, Note_on_c, 6, 57, 49
8, 20940, Note_on_c, 6, 57, 0
8, 20940, Note_on_c, 6, 60, 48
8, 20970, Note_on_c, 6, 60, 0
8, 20970, Note_on_c, 6, 59, 47
8, 21000, Note_on_c, 6, 59, 0
8, 21000, Note_on_c, 6, 57, 46
8, 21030, Note_on_c, 6, 57, 0
8, 21030, Note_on_c, 6, 55, 45
8, 21060, Note_on_c, 6, 55, 0
8, 21060, Note_on_c, 6, 59, 44
8, 21090, Note_on_c, 6, 59, 0
8, 21120, Note_on_c, 6, 55, 50
8, 21180, Note_on_c, 6, 55, 0
8, 21180, Note_on_c, 6, 54, 52
8, 21300, Note_on_c, 6, 54, 0
8, 21300, Note_on_c, 6, 52, 55
8, 21330, Note_on_c, 6, 52, 0
8, 21360, Note_on_c, 6, 57, 55
8, 21420, Note_on_c, 6, 57, 0
8, 21420, Note_on_c, 6, 55, 56
8, 21540, Note_on_c, 6, 55, 0
8, 21540, Note_on_c, 6, 54, 58
8, 21600, Note_on_c, 6, 54, 0
8, 21600, Note_on_c, 6, 59, 59
8, 21660, Note_on_c, 6, 59, 0
8, 21660, Note_on_c, 6, 57, 60
8, 21690, Note_on_c, 6, 57, 0
8, 21690, Note_on_c, 6, 55, 60
8, 21720, Note_on_c, 6, 55, 0
8, 21720, Note_on_c, 6, 57, 61
8, 21780, Note_on_c, 6, 57, 0
8, 21780, Note_on_c, 6, 54, 62
8, 21840, Note_on_c, 6, 54, 0
8, 21840, Note_on_c, 6, 55, 63
8, 21900, Note_on_c, 6, 55, 0
8, 21900, Note_on_c, 6, 57, 63
8, 21930, Note_on_c, 6, 57, 0
8, 21930, Note_on_c, 6, 59, 64
8, 21960, Note_on_c, 6, 59, 0
8, 21960, Note_on_c, 6, 50, 64
8, 22020, Note_on_c, 6, 50, 0
8, 22020, Note_on_c, 6, 54, 65
8, 22080, Note_on_c, 6, 54, 0
8, 22080, Note_on_c, 6, 55, 66
8, 22110, Note_on_c, 6, 55, 0
8, 22140, Note_on_c, 6, 59, 67
8, 22200, Note_on_c, 6, 59, 0
8, 22200, Note_on_c, 6, 57, 68
8, 22260, Note_on_c, 6, 57, 0
8, 22260, Note_on_c, 6, 55, 69
8, 22320, Note_on_c, 6, 55, 0
8, 22320, Note_on_c, 6, 55, 70
8, 22380, Note_on_c, 6, 55, 0
8, 22380, Note_on_c, 6, 54, 64
8, 22410, Note_on_c, 6, 54, 0
8, 22860, Note_on_c, 6, 67, 69
8, 22920, Note_on_c, 6, 67, 0
8, 22920, Note_on_c, 6, 66, 68
8, 22980, Note_on_c, 6, 66, 0
8, 22980, Note_on_c, 6, 64, 68
8, 23040, Note_on_c, 6, 64, 0
8, 23040, Note_on_c, 6, 64, 67
8, 23100, Note_on_c, 6, 64, 0
8, 23100, Note_on_c, 6, 62, 66
8, 23130, Note_on_c, 6, 62, 0
8, 23640, Note_on_c, 6, 62, 59
8, 23700, Note_on_c, 6, 62, 0
8, 23700, Note_on_c, 6, 60, 58
8, 23730, Note_on_c, 6, 60, 0
8, 23730, Note_on_c, 6, 59, 57
8, 23760, Note_on_c, 6, 59, 0
8, 23760, Note_on_c, 6, 57, 57
8, 23820, Note_on_c, 6, 57, 0
8, 23820, Note_on_c, 6, 57, 56
8, 23850, Note_on_c, 6, 57, 0
8, 23850, Note_on_c, 6, 55, 56
8, 23880, Note_on_c, 6, 55, 0
8, 23880, Note_on_c, 6, 57, 55
8, 23940, Note_on_c, 6, 57, 0
8, 23940, Note_on_c, 6, 57, 54
8, 24000, Note_on_c, 6, 57, 0
8, 24000, Note_on_c, 6, 57, 53
8, 24030, Note_on_c, 6, 57, 0
8, 24030, Note_on_c, 6, 54, 53
8, 24060, Note_on_c, 6, 54, 0
8, 24060, Note_on_c, 6, 55, 53
8, 24090, Note_on_c, 6, 55, 0
8, 24120, Note_on_c, 6, 67, 70
8, 24300, Note_on_c, 6, 67, 0
8, 24300, Note_on_c, 6, 66, 70
8, 24330, Note_on_c, 6, 66, 0
8, 24360, Note_on_c, 6, 66, 70
8, 24420, Note_on_c, 6, 66, 0
8, 24420, Note_on_c, 6, 64, 70
8, 24450, Note_on_c, 6, 64, 0
8, 24480, Note_on_c, 6, 64, 70
8, 24540, Note_on_c, 6, 64, 0
8, 24540, Note_on_c, 6, 57, 70
8, 24570, Note_on_c, 6, 57, 0
8, 24600, Note_on_c, 6, 57, 70
8, 24630, Note_on_c, 6, 57, 0
8, 24660, Note_on_c, 6, 57, 70
8, 24720, Note_on_c, 6, 57, 0
8, 24720, Note_on_c, 6, 67, 70
8, 24780, Note_on_c, 6, 67, 0
8, 24780, Note_on_c, 6, 66, 70
8, 24810, Note_on_c, 6, 66, 0
8, 24840, Note_on_c, 6, 69, 69
8, 24900, Note_on_c, 6, 69, 0
8, 24900, Note_on_c, 6, 60, 69
8, 24960, Note_on_c, 6, 60, 0
8, 24960, Note_on_c, 6, 59, 68
8, 25020, Note_on_c, 6, 59, 0
8, 25020, Note_on_c, 6, 60, 68
8, 25050, Note_on_c, 6, 60, 0
8, 25080, Note_on_c, 6, 62, 68
8, 25140, Note_on_c, 6, 62, 0
8, 25140, Note_on_c, 6, 64, 67
8, 25200, Note_on_c, 6, 64, 0
8, 25200, Note_on_c, 6, 55, 67
8, 25230, Note_on_c, 6, 55, 0
8, 25230, Note_on_c, 6, 52, 67
8, 25260, Note_on_c, 6, 52, 0
8, 25260, Note_on_c, 6, 54, 67
8, 25290, Note_on_c, 6, 54, 0
8, 25380, Note_on_c, 6, 60, 66
8, 25440, Note_on_c, 6, 60, 0
8, 25440, Note_on_c, 6, 60, 65
8, 25500, Note_on_c, 6, 60, 0
8, 25500, Note_on_c, 6, 62, 65
8, 25530, Note_on_c, 6, 62, 0
8, 25560, Note_on_c, 6, 63, 65
8, 25620, Note_on_c, 6, 63, 0
8, 25620, Note_on_c, 6, 60, 64
8, 25650, Note_on_c, 6, 60, 0
8, 25680, Note_on_c, 6, 58, 64
8, 25740, Note_on_c, 6, 58, 0
8, 25740, Note_on_c, 6, 57, 64
8, 25770, Note_on_c, 6, 57, 0
8, 26160, Note_on_c, 6, 62, 40
8, 26220, Note_on_c, 6, 62, 0
8, 26220, Note_on_c, 6, 60, 41
8, 26250, Note_on_c, 6, 60, 0
8, 26280, Note_on_c, 6, 60, 42
8, 26310, Note_on_c, 6, 60, 0
8, 26340, Note_on_c, 6, 59, 43
8, 26370, Note_on_c, 6, 59, 0
8, 26400, Note_on_c, 6, 59, 44
8, 26460, Note_on_c, 6, 59, 0
8, 26460, Note_on_c, 6, 57, 45
8, 26490, Note_on_c, 6, 57, 0
8, 26700, Note_on_c, 6, 50, 49
8, 26760, Note_on_c, 6, 50, 0
8, 26760, Note_on_c, 6, 62, 50
8, 26820, Note_on_c, 6, 62, 0
8, 26820, Note_on_c, 6, 60, 51
8, 26880, Note_on_c, 6, 60, 0
8, 26880, Note_on_c, 6, 59, 52
8, 26970, Note_on_c, 6, 59, 0
8, 26970, Note_on_c, 6, 60, 54
8, 26985, Note_on_c, 6, 60, 0
8, 26985, Note_on_c, 6, 62, 54
8, 26992, Note_on_c, 6, 62, 0
8, 27000, Note_on_c, 6, 55, 54
8, 27060, Note_on_c, 6, 55, 0
8, 27240, Note_on_c, 6, 57, 58
8, 27420, Note_on_c, 6, 57, 0
8, 27420, Note_on_c, 6, 54, 61
8, 27540, Note_on_c, 6, 54, 0
8, 27540, Note_on_c, 6, 55, 63
8, 27570, Note_on_c, 6, 55, 0
8, 27570, Note_on_c, 6, 57, 64
8, 27600, Note_on_c, 6, 57, 0
8, 27600, Note_on_c, 6, 59, 64
8, 27660, Note_on_c, 6, 59, 0
8, 27660, Note_on_c, 6, 57, 65
8, 27690, Note_on_c, 6, 57, 0
8, 27690, Note_on_c, 6, 55, 66
8, 27720, Note_on_c, 6, 55, 0
8, 27720, Note_on_c, 6, 57, 66
8, 27780, Note_on_c, 6, 57, 0
8, 27780, Note_on_c, 6, 54, 67
8, 27840, Note_on_c, 6, 54, 0
8, 27840, Note_on_c, 6, 55, 68
8, 27960, Note_on_c, 6, 55, 0
8, 28020, Note_on_c, 6, 60, 71
8, 28080, Note_on_c, 6, 60, 0
8, 28080, Note_on_c, 6, 59, 72
8, 28140, Note_on_c, 6, 59, 0
8, 28140, Note_on_c, 6, 57, 73
8, 28200, Note_on_c, 6, 57, 0
8, 28200, Note_on_c, 6, 55, 74
8, 28260, Note_on_c, 6, 55, 0
8, 28260, Note_on_c, 6, 60, 75
8, 28290, Note_on_c, 6, 60, 0
8, 28290, Note_on_c, 6, 57, 76
8, 28320, Note_on_c, 6, 57, 0
8, 28320, Note_on_c, 6, 59, 76
8, 28440, Note_on_c, 6, 59, 0
8, 28440, Note_on_c, 6, 57, 78
8, 28449, Note_on_c, 6, 57, 0
8, 28449, Note_on_c, 6, 59, 78
8, 28460, Note_on_c, 6, 59, 0
8, 28460, Note_on_c, 6, 57, 78
8, 28470, Note_on_c, 6, 57, 0
8, 28470, Note_on_c, 6, 55, 79
8, 28500, Note_on_c, 6, 55, 0
8, 28500, Note_on_c, 6, 57, 79
8, 28530, Note_on_c, 6, 57, 0
8, 28560, Note_on_c, 6, 55, 80
8, 28680, Note_on_c, 6, 55, 0
8, 35760, Control_c, 6, 7, 100
8, 35760, Note_on_c, 6, 67, 64
8, 35820, Note_on_c, 6, 67, 0
8, 35820, Note_on_c, 6, 66, 64
8, 35940, Note_on_c, 6, 66, 0
8, 35940, Note_on_c, 6, 67, 64
8, 35970, Note_on_c, 6, 67, 0
8, 35970, Note_on_c, 6, 64, 64
8, 36000, Note_on_c, 6, 64, 0
8, 36000, Note_on_c, 6, 69, 64
8, 36060, Note_on_c, 6, 69, 0
8, 36060, Note_on_c, 6, 67, 64
8, 36180, Note_on_c, 6, 67, 0
8, 36180, Note_on_c, 6, 66, 64
8, 36210, Note_on_c, 6, 66, 0
8, 36240, Note_on_c, 6, 66, 64
8, 36300, Note_on_c, 6, 66, 0
8, 36300, Note_on_c, 6, 67, 64
8, 36420, Note_on_c, 6, 67, 0
8, 36420, Note_on_c, 6, 64, 64
8, 36480, Note_on_c, 6, 64, 0
8, 36480, Note_on_c, 6, 64, 64
8, 36489, Note_on_c, 6, 64, 0
8, 36489, Note_on_c, 6, 66, 64
8, 36500, Note_on_c, 6, 66, 0
8, 36500, Note_on_c, 6, 64, 64
8, 36510, Note_on_c, 6, 64, 0
8, 36510, Note_on_c, 6, 63, 64
8, 36540, Note_on_c, 6, 63, 0
8, 36540, Note_on_c, 6, 64, 64
8, 36600, Note_on_c, 6, 64, 0
8, 36600, Note_on_c, 6, 63, 64
8, 36720, Note_on_c, 6, 63, 0
8, 36720, Note_on_c, 6, 64, 64
8, 36780, Note_on_c, 6, 64, 0
8, 36780, Note_on_c, 6, 63, 64
8, 36900, Note_on_c, 6, 63, 0
8, 36900, Note_on_c, 6, 66, 64
8, 36930, Note_on_c, 6, 66, 0
8, 36930, Note_on_c, 6, 64, 64
8, 36960, Note_on_c, 6, 64, 0
8, 36960, Note_on_c, 6, 66, 64
8, 37020, Note_on_c, 6, 66, 0
8, 37020, Note_on_c, 6, 57, 64
8, 37140, Note_on_c, 6, 57, 0
8, 37140, Note_on_c, 6, 55, 64
8, 37170, Note_on_c, 6, 55, 0
8, 37170, Note_on_c, 6, 54, 64
8, 37200, Note_on_c, 6, 54, 0
8, 37200, Note_on_c, 6, 55, 64
8, 37260, Note_on_c, 6, 55, 0
8, 37260, Note_on_c, 6, 64, 64
8, 37380, Note_on_c, 6, 64, 0
8, 37380, Note_on_c, 6, 65, 64
8, 37440, Note_on_c, 6, 65, 0
8, 37440, Note_on_c, 6, 62, 64
8, 37500, Note_on_c, 6, 62, 0
8, 37500, Note_on_c, 6, 59, 64
8, 37560, Note_on_c, 6, 59, 0
8, 37560, Note_on_c, 6, 57, 64
8, 37620, Note_on_c, 6, 57, 0
8, 37620, Note_on_c, 6, 56, 64
8, 37650, Note_on_c, 6, 56, 0
8, 37680, Note_on_c, 6, 57, 64
8, 37740, Note_on_c, 6, 57, 0
8, 37740, Note_on_c, 6, 55, 64
8, 37860, Note_on_c, 6, 55, 0
8, 37860, Note_on_c, 6, 54, 64
8, 37920, Note_on_c, 6, 54, 0
8, 37920, Note_on_c, 6, 63, 64
8, 37950, Note_on_c, 6, 63, 0
8, 37950, Note_on_c, 6, 64, 64
8, 37980, Note_on_c, 6, 64, 0
8, 37980, Note_on_c, 6, 66, 64
8, 38100, Note_on_c, 6, 66, 0
8, 38100, Note_on_c, 6, 63, 64
8, 38130, Note_on_c, 6, 63, 0
8, 38160, Note_on_c, 6, 59, 64
8, 38220, Note_on_c, 6, 59, 0
8, 38220, Note_on_c, 6, 64, 64
8, 38250, Note_on_c, 6, 64, 0
8, 38250, Note_on_c, 6, 66, 64
8, 38280, Note_on_c, 6, 66, 0
8, 38280, Note_on_c, 6, 64, 64
8, 38340, Note_on_c, 6, 64, 0
8, 38340, Note_on_c, 6, 63, 64
8, 38400, Note_on_c, 6, 63, 0
8, 38400, Note_on_c, 6, 64, 64
8, 38520, Note_on_c, 6, 64, 0
8, 40560, Control_c, 6, 7, 127
8, 40560, Note_on_c, 6, 67, 64
8, 40620, Note_on_c, 6, 67, 0
8, 40620, Note_on_c, 6, 66, 64
8, 40710, Note_on_c, 6, 66, 0
8, 40710, Note_on_c, 6, 63, 64
8, 40740, Note_on_c, 6, 63, 0
8, 40740, Note_on_c, 6, 64, 64
8, 40800, Note_on_c, 6, 64, 0
8, 40800, Note_on_c, 6, 64, 64
8, 40860, Note_on_c, 6, 64, 0
8, 40860, Note_on_c, 6, 66, 64
8, 40980, Note_on_c, 6, 66, 0
8, 40980, Note_on_c, 6, 62, 64
8, 41010, Note_on_c, 6, 62, 0
8, 41040, Note_on_c, 6, 59, 64
8, 41100, Note_on_c, 6, 59, 0
8, 41100, Note_on_c, 6, 61, 64
8, 41220, Note_on_c, 6, 61, 0
8, 41220, Note_on_c, 6, 64, 64
8, 41280, Note_on_c, 6, 64, 0
8, 41280, Note_on_c, 6, 64, 64
8, 41295, Note_on_c, 6, 64, 0
8, 41295, Note_on_c, 6, 66, 64
8, 41310, Note_on_c, 6, 66, 0
8, 41310, Note_on_c, 6, 64, 64
8, 41325, Note_on_c, 6, 64, 0
8, 41325, Note_on_c, 6, 62, 64
8, 41355, Note_on_c, 6, 62, 0
8, 41355, Note_on_c, 6, 64, 64
8, 41415, Note_on_c, 6, 64, 0
8, 41415, Note_on_c, 6, 62, 64
8, 41475, Note_on_c, 6, 62, 0
8, 41520, Note_on_c, 6, 66, 64
8, 41640, Note_on_c, 6, 66, 0
8, 41640, Note_on_c, 6, 66, 64
8, 41700, Note_on_c, 6, 66, 0
8, 41700, Note_on_c, 6, 66, 64
8, 41760, Note_on_c, 6, 66, 0
8, 41760, Note_on_c, 6, 66, 64
8, 42060, Note_on_c, 6, 66, 0
8, 42060, Note_on_c, 6, 64, 64
8, 42120, Note_on_c, 6, 64, 0
8, 42120, Note_on_c, 6, 63, 64
8, 42180, Note_on_c, 6, 63, 0
8, 42180, Note_on_c, 6, 64, 64
8, 42240, Note_on_c, 6, 64, 0
8, 42240, Note_on_c, 6, 66, 64
8, 42270, Note_on_c, 6, 66, 0
8, 42270, Note_on_c, 6, 67, 64
8, 42300, Note_on_c, 6, 67, 0
8, 42300, Note_on_c, 6, 69, 64
8, 42360, Note_on_c, 6, 69, 0
8, 42360, Note_on_c, 6, 69, 64
8, 42420, Note_on_c, 6, 69, 0
8, 42480, Note_on_c, 6, 67, 64
8, 42540, Note_on_c, 6, 67, 0
8, 42540, Note_on_c, 6, 66, 64
8, 42660, Note_on_c, 6, 66, 0
8, 42660, Note_on_c, 6, 64, 64
8, 42720, Note_on_c, 6, 64, 0
8, 42720, Note_on_c, 6, 64, 64
8, 42750, Note_on_c, 6, 64, 0
8, 42750, Note_on_c, 6, 62, 64
8, 42780, Note_on_c, 6, 62, 0
8, 42780, Note_on_c, 6, 64, 64
8, 42900, Note_on_c, 6, 64, 0
8, 42900, Note_on_c, 6, 66, 64
8, 42930, Note_on_c, 6, 66, 0
8, 42960, Note_on_c, 6, 62, 64
8, 43020, Note_on_c, 6, 62, 0
8, 43020, Note_on_c, 6, 66, 64
8, 43050, Note_on_c, 6, 66, 0
8, 43050, Note_on_c, 6, 64, 64
8, 43080, Note_on_c, 6, 64, 0
8, 43080, Note_on_c, 6, 62, 64
8, 43140, Note_on_c, 6, 62, 0
8, 43140, Note_on_c, 6, 61, 64
8, 43200, Note_on_c, 6, 61, 0
8, 43200, Note_on_c, 6, 59, 64
8, 43320, Note_on_c, 6, 59, 0
8, 43560, Note_on_c, 6, 58, 64
8, 43620, Note_on_c, 6, 58, 0
8, 43620, Note_on_c, 6, 61, 64
8, 43650, Note_on_c, 6, 61, 0
8, 43650, Note_on_c, 6, 59, 64
8, 43680, Note_on_c, 6, 59, 0
8, 43680, Note_on_c, 6, 61, 64
8, 43740, Note_on_c, 6, 61, 0
8, 43740, Note_on_c, 6, 59, 64
8, 43770, Note_on_c, 6, 59, 0
8, 43770, Note_on_c, 6, 58, 64
8, 43800, Note_on_c, 6, 58, 0
8, 43800, Note_on_c, 6, 59, 64
8, 43860, Note_on_c, 6, 59, 0
8, 43860, Note_on_c, 6, 56, 64
8, 43920, Note_on_c, 6, 56, 0
8, 43920, Note_on_c, 6, 58, 64
8, 43980, Note_on_c, 6, 58, 0
8, 43980, Note_on_c, 6, 54, 64
8, 44040, Note_on_c, 6, 54, 0
8, 44040, Note_on_c, 6, 61, 64
8, 44100, Note_on_c, 6, 61, 0
8, 44100, Note_on_c, 6, 62, 64
8, 44160, Note_on_c, 6, 62, 0
8, 44160, Note_on_c, 6, 64, 64
8, 44220, Note_on_c, 6, 64, 0
8, 44220, Note_on_c, 6, 62, 64
8, 44250, Note_on_c, 6, 62, 0
8, 44250, Note_on_c, 6, 61, 64
8, 44280, Note_on_c, 6, 61, 0
8, 44280, Note_on_c, 6, 62, 64
8, 44340, Note_on_c, 6, 62, 0
8, 44340, Note_on_c, 6, 61, 64
8, 44370, Note_on_c, 6, 61, 0
8, 44370, Note_on_c, 6, 59, 64
8, 44400, Note_on_c, 6, 59, 0
8, 44400, Note_on_c, 6, 61, 64
8, 44460, Note_on_c, 6, 61, 0
8, 44460, Note_on_c, 6, 58, 64
8, 44520, Note_on_c, 6, 58, 0
8, 44640, Note_on_c, 6, 66, 64
8, 44820, Note_on_c, 6, 66, 0
8, 44820, Note_on_c, 6, 62, 64
8, 44880, Note_on_c, 6, 62, 0
8, 44880, Note_on_c, 6, 59, 64
8, 44940, Note_on_c, 6, 59, 0
8, 44940, Note_on_c, 6, 61, 64
8, 44970, Note_on_c, 6, 61, 0
8, 44970, Note_on_c, 6, 62, 64
8, 45000, Note_on_c, 6, 62, 0
8, 45000, Note_on_c, 6, 64, 64
8, 45180, Note_on_c, 6, 64, 0
8, 45180, Note_on_c, 6, 58, 64
8, 45210, Note_on_c, 6, 58, 0
8, 45210, Note_on_c, 6, 58, 64
8, 45240, Note_on_c, 6, 58, 0
8, 45240, Note_on_c, 6, 59, 64
8, 45270, Note_on_c, 6, 59, 0
8, 45270, Note_on_c, 6, 61, 64
8, 45300, Note_on_c, 6, 61, 0
8, 45300, Note_on_c, 6, 62, 64
8, 45420, Note_on_c, 6, 62, 0
8, 45420, Note_on_c, 6, 61, 64
8, 45480, Note_on_c, 6, 61, 0
8, 45480, Note_on_c, 6, 62, 64
8, 45495, Note_on_c, 6, 62, 0
8, 45495, Note_on_c, 6, 61, 64
8, 45510, Note_on_c, 6, 61, 0
8, 45510, Note_on_c, 6, 62, 64
8, 45525, Note_on_c, 6, 62, 0
8, 45525, Note_on_c, 6, 61, 64
8, 45540, Note_on_c, 6, 61, 0
8, 45540, Note_on_c, 6, 62, 64
8, 45555, Note_on_c, 6, 62, 0
8, 45555, Note_on_c, 6, 61, 64
8, 45570, Note_on_c, 6, 61, 0
8, 45570, Note_on_c, 6, 59, 64
8, 45585, Note_on_c, 6, 59, 0
8, 45585, Note_on_c, 6, 61, 64
8, 45600, Note_on_c, 6, 61, 0
8, 45600, Note_on_c, 6, 59, 64
8, 45720, Note_on_c, 6, 59, 0
8, 45840, End_track
9, 0, Start_track
9, 0, MIDI_port, 0
9, 0, Title_t, "Harpsichord rh"
9, 0, Program_c, 7, 6
9, 212, Control_c, 7, 11, 88
9, 240, Note_on_c, 7, 59, 40
9, 240, Note_on_c, 7, 62, 40
9, 240, Note_on_c, 7, 67, 40
9, 300, Note_on_c, 7, 67, 0
9, 300, Note_on_c, 7, 62, 0
9, 300, Note_on_c, 7, 59, 0
9, 360, Note_on_c, 7, 55, 40
9, 360, Note_on_c, 7, 62, 40
9, 420, Note_on_c, 7, 62, 0
9, 420, Note_on_c, 7, 55, 0
9, 420, Note_on_c, 7, 57, 40
9, 420, Note_on_c, 7, 62, 40
9, 420, Note_on_c, 7, 66, 40
9, 480, Note_on_c, 7, 66, 0
9, 480, Note_on_c, 7, 62, 0
9, 480, Note_on_c, 7, 57, 0
9, 480, Note_on_c, 7, 55, 40
9, 480, Note_on_c, 7, 62, 40
9, 480, Note_on_c, 7, 67, 40
9, 540, Note_on_c, 7, 67, 0
9, 540, Note_on_c, 7, 62, 0
9, 540, Note_on_c, 7, 55, 0
9, 600, Note_on_c, 7, 60, 40
9, 600, Note_on_c, 7, 66, 40
9, 660, Note_on_c, 7, 66, 0
9, 660, Note_on_c, 7, 60, 0
9, 720, Note_on_c, 7, 59, 40
9, 720, Note_on_c, 7, 62, 40
9, 720, Note_on_c, 7, 67, 40
9, 780, Note_on_c, 7, 67, 0
9, 780, Note_on_c, 7, 62, 0
9, 780, Note_on_c, 7, 59, 0
9, 840, Note_on_c, 7, 55, 40
9, 840, Note_on_c, 7, 62, 40
9, 900, Note_on_c, 7, 62, 0
9, 900, Note_on_c, 7, 55, 0
9, 900, Note_on_c, 7, 55, 40
9, 900, Note_on_c, 7, 64, 40
9, 960, Note_on_c, 7, 64, 0
9, 960, Note_on_c, 7, 55, 0
9, 960, Note_on_c, 7, 55, 40
9, 960, Note_on_c, 7, 62, 40
9, 1020, Note_on_c, 7, 62, 0
9, 1020, Note_on_c, 7, 55, 0
9, 1020, Note_on_c, 7, 64, 40
9, 1050, Note_on_c, 7, 64, 0
9, 1050, Note_on_c, 7, 62, 40
9, 1080, Note_on_c, 7, 62, 0
9, 1080, Note_on_c, 7, 59, 40
9, 1080, Note_on_c, 7, 60, 40
9, 1140, Note_on_c, 7, 60, 0
9, 1140, Note_on_c, 7, 59, 0
9, 1140, Note_on_c, 7, 57, 40
9, 1140, Note_on_c, 7, 62, 40
9, 1200, Note_on_c, 7, 62, 0
9, 1200, Note_on_c, 7, 57, 0
9, 1200, Note_on_c, 7, 59, 40
9, 1200, Note_on_c, 7, 62, 40
9, 1200, Note_on_c, 7, 67, 40
9, 1260, Note_on_c, 7, 67, 0
9, 1260, Note_on_c, 7, 62, 0
9, 1260, Note_on_c, 7, 59, 0
9, 1320, Note_on_c, 7, 55, 40
9, 1320, Note_on_c, 7, 62, 40
9, 1380, Note_on_c, 7, 62, 0
9, 1380, Note_on_c, 7, 55, 0
9, 1380, Note_on_c, 7, 57, 40
9, 1380, Note_on_c, 7, 62, 40
9, 1380, Note_on_c, 7, 66, 40
9, 1440, Note_on_c, 7, 66, 0
9, 1440, Note_on_c, 7, 62, 0
9, 1440, Note_on_c, 7, 57, 0
9, 1440, Note_on_c, 7, 55, 40
9, 1440, Note_on_c, 7, 62, 40
9, 1440, Note_on_c, 7, 67, 40
9, 1500, Note_on_c, 7, 67, 0
9, 1500, Note_on_c, 7, 62, 0
9, 1500, Note_on_c, 7, 55, 0
9, 1560, Note_on_c, 7, 60, 40
9, 1560, Note_on_c, 7, 66, 40
9, 1620, Note_on_c, 7, 66, 0
9, 1620, Note_on_c, 7, 60, 0
9, 1680, Note_on_c, 7, 59, 40
9, 1680, Note_on_c, 7, 62, 40
9, 1680, Note_on_c, 7, 67, 40
9, 1740, Note_on_c, 7, 67, 0
9, 1740, Note_on_c, 7, 62, 0
9, 1740, Note_on_c, 7, 59, 0
9, 2280, Note_on_c, 7, 66, 40
9, 2280, Note_on_c, 7, 69, 40
9, 2340, Note_on_c, 7, 69, 0
9, 2340, Note_on_c, 7, 66, 0
9, 2340, Note_on_c, 7, 62, 40
9, 2340, Note_on_c, 7, 67, 40
9, 2400, Note_on_c, 7, 67, 0
9, 2400, Note_on_c, 7, 62, 0
9, 2400, Note_on_c, 7, 67, 40
9, 2400, Note_on_c, 7, 71, 40
9, 2460, Note_on_c, 7, 71, 0
9, 2460, Note_on_c, 7, 67, 0
9, 2460, Note_on_c, 7, 61, 40
9, 2460, Note_on_c, 7, 64, 40
9, 2460, Note_on_c, 7, 69, 40
9, 2520, Note_on_c, 7, 69, 0
9, 2520, Note_on_c, 7, 64, 0
9, 2520, Note_on_c, 7, 61, 0
9, 2520, Note_on_c, 7, 62, 40
9, 2520, Note_on_c, 7, 66, 40
9, 2580, Note_on_c, 7, 66, 0
9, 2580, Note_on_c, 7, 62, 0
9, 2580, Note_on_c, 7, 62, 40
9, 2580, Note_on_c, 7, 64, 40
9, 2640, Note_on_c, 7, 64, 0
9, 2640, Note_on_c, 7, 62, 0
9, 3120, Note_on_c, 7, 64, 35
9, 3120, Note_on_c, 7, 69, 35
9, 3120, Note_on_c, 7, 73, 35
9, 3180, Note_on_c, 7, 73, 0
9, 3180, Note_on_c, 7, 69, 0
9, 3180, Note_on_c, 7, 64, 0
9, 3600, Note_on_c, 7, 61, 38
9, 3600, Note_on_c, 7, 64, 38
9, 3600, Note_on_c, 7, 67, 38
9, 3600, Note_on_c, 7, 69, 38
9, 3660, Note_on_c, 7, 69, 0
9, 3660, Note_on_c, 7, 61, 0
9, 3660, Note_on_c, 7, 64, 0
9, 3660, Note_on_c, 7, 67, 0
9, 3900, Note_on_c, 7, 62, 40
9, 3900, Note_on_c, 7, 66, 40
9, 3960, Note_on_c, 7, 66, 0
9, 3960, Note_on_c, 7, 62, 0
9, 3960, Note_on_c, 7, 66, 41
9, 3960, Note_on_c, 7, 69, 41
9, 4020, Note_on_c, 7, 69, 0
9, 4020, Note_on_c, 7, 66, 0
9, 4020, Note_on_c, 7, 69, 41
9, 4020, Note_on_c, 7, 74, 41
9, 4080, Note_on_c, 7, 74, 0
9, 4080, Note_on_c, 7, 69, 0
9, 4080, Note_on_c, 7, 62, 42
9, 4080, Note_on_c, 7, 65, 42
9, 4080, Note_on_c, 7, 68, 42
9, 4140, Note_on_c, 7, 68, 0
9, 4140, Note_on_c, 7, 65, 0
9, 4140, Note_on_c, 7, 62, 0
9, 4140, Note_on_c, 7, 61, 42
9, 4140, Note_on_c, 7, 64, 42
9, 4140, Note_on_c, 7, 69, 42
9, 4170, Note_on_c, 7, 69, 0
9, 4170, Note_on_c, 7, 64, 0
9, 4170, Note_on_c, 7, 61, 0
9, 4380, Note_on_c, 7, 61, 44
9, 4380, Note_on_c, 7, 64, 44
9, 4380, Note_on_c, 7, 67, 44
9, 4440, Note_on_c, 7, 67, 0
9, 4440, Note_on_c, 7, 64, 0
9, 4440, Note_on_c, 7, 61, 0
9, 4440, Note_on_c, 7, 64, 44
9, 4440, Note_on_c, 7, 69, 44
9, 4500, Note_on_c, 7, 69, 0
9, 4500, Note_on_c, 7, 64, 0
9, 4500, Note_on_c, 7, 67, 45
9, 4500, Note_on_c, 7, 73, 45
9, 4560, Note_on_c, 7, 73, 0
9, 4560, Note_on_c, 7, 67, 0
9, 4560, Note_on_c, 7, 66, 45
9, 4560, Note_on_c, 7, 74, 45
9, 4620, Note_on_c, 7, 74, 0
9, 4620, Note_on_c, 7, 66, 0
9, 4620, Note_on_c, 7, 64, 45
9, 4620, Note_on_c, 7, 73, 45
9, 4650, Note_on_c, 7, 73, 0
9, 4650, Note_on_c, 7, 64, 0
9, 5040, Note_on_c, 7, 64, 48
9, 5040, Note_on_c, 7, 73, 48
9, 5100, Note_on_c, 7, 73, 0
9, 5100, Note_on_c, 7, 64, 0
9, 5100, Note_on_c, 7, 65, 49
9, 5100, Note_on_c, 7, 74, 49
9, 5130, Note_on_c, 7, 74, 0
9, 5130, Note_on_c, 7, 65, 0
9, 5640, Note_on_c, 7, 57, 50
9, 5640, Note_on_c, 7, 61, 50
9, 5700, Note_on_c, 7, 61, 0
9, 5700, Note_on_c, 7, 57, 0
9, 5760, Note_on_c, 7, 57, 50
9, 5760, Note_on_c, 7, 64, 50
9, 5820, Note_on_c, 7, 64, 0
9, 5820, Note_on_c, 7, 57, 0
9, 5880, Note_on_c, 7, 61, 50
9, 5880, Note_on_c, 7, 69, 50
9, 5940, Note_on_c, 7, 69, 0
9, 5940, Note_on_c, 7, 61, 0
9, 6000, Note_on_c, 7, 67, 50
9, 6000, Note_on_c, 7, 73, 50
9, 6060, Note_on_c, 7, 73, 0
9, 6060, Note_on_c, 7, 67, 0
9, 6120, Note_on_c, 7, 61, 51
9, 6120, Note_on_c, 7, 69, 51
9, 6180, Note_on_c, 7, 69, 0
9, 6180, Note_on_c, 7, 61, 0
9, 6240, Note_on_c, 7, 64, 52
9, 6240, Note_on_c, 7, 69, 52
9, 6300, Note_on_c, 7, 69, 0
9, 6300, Note_on_c, 7, 64, 0
9, 6360, Note_on_c, 7, 69, 54
9, 6360, Note_on_c, 7, 73, 54
9, 6420, Note_on_c, 7, 73, 0
9, 6420, Note_on_c, 7, 69, 0
9, 6480, Note_on_c, 7, 69, 55
9, 6480, Note_on_c, 7, 76, 55
9, 6540, Note_on_c, 7, 76, 0
9, 6540, Note_on_c, 7, 69, 0
9, 6600, Note_on_c, 7, 69, 56
9, 6600, Note_on_c, 7, 74, 56
9, 6660, Note_on_c, 7, 74, 0
9, 6660, Note_on_c, 7, 69, 0
9, 6720, Note_on_c, 7, 66, 57
9, 6720, Note_on_c, 7, 69, 57
9, 6780, Note_on_c, 7, 69, 0
9, 6780, Note_on_c, 7, 66, 0
9, 6840, Note_on_c, 7, 66, 58
9, 6840, Note_on_c, 7, 69, 58
9, 6900, Note_on_c, 7, 69, 0
9, 6900, Note_on_c, 7, 66, 0
9, 6960, Note_on_c, 7, 66, 59
9, 6960, Note_on_c, 7, 69, 59
9, 7020, Note_on_c, 7, 69, 0
9, 7020, Note_on_c, 7, 66, 0
9, 7080, Note_on_c, 7, 64, 61
9, 7080, Note_on_c, 7, 67, 61
9, 7140, Note_on_c, 7, 67, 0
9, 7140, Note_on_c, 7, 64, 0
9, 7200, Note_on_c, 7, 67, 62
9, 7200, Note_on_c, 7, 69, 62
9, 7260, Note_on_c, 7, 69, 0
9, 7260, Note_on_c, 7, 67, 0
9, 7320, Note_on_c, 7, 61, 63
9, 7320, Note_on_c, 7, 67, 63
9, 7380, Note_on_c, 7, 67, 0
9, 7380, Note_on_c, 7, 61, 0
9, 7440, Note_on_c, 7, 62, 64
9, 7440, Note_on_c, 7, 66, 64
9, 7500, Note_on_c, 7, 66, 0
9, 7500, Note_on_c, 7, 62, 0
9, 7500, Note_on_c, 7, 62, 64
9, 7500, Note_on_c, 7, 69, 64
9, 7560, Note_on_c, 7, 69, 0
9, 7560, Note_on_c, 7, 62, 0
9, 7560, Note_on_c, 7, 62, 64
9, 7560, Note_on_c, 7, 66, 64
9, 7620, Note_on_c, 7, 66, 0
9, 7620, Note_on_c, 7, 62, 0
9, 7620, Note_on_c, 7, 61, 64
9, 7620, Note_on_c, 7, 64, 64
9, 7680, Note_on_c, 7, 64, 0
9, 7680, Note_on_c, 7, 61, 0
9, 7680, Note_on_c, 7, 54, 64
9, 7680, Note_on_c, 7, 57, 64
9, 7680, Note_on_c, 7, 62, 64
9, 7800, Note_on_c, 7, 62, 0
9, 7800, Note_on_c, 7, 57, 0
9, 7800, Note_on_c, 7, 54, 0
9, 7920, Control_c, 7, 7, 90
9, 7920, Note_on_c, 7, 67, 64
9, 7920, Note_on_c, 7, 71, 64
9, 7980, Note_on_c, 7, 71, 0
9, 7980, Note_on_c, 7, 67, 0
9, 8040, Note_on_c, 7, 66, 64
9, 8040, Note_on_c, 7, 69, 64
9, 8100, Note_on_c, 7, 69, 0
9, 8100, Note_on_c, 7, 66, 0
9, 8160, Note_on_c, 7, 67, 64
9, 8220, Note_on_c, 7, 67, 0
9, 8280, Note_on_c, 7, 62, 64
9, 8280, Note_on_c, 7, 66, 64
9, 8340, Note_on_c, 7, 66, 0
9, 8340, Note_on_c, 7, 62, 0
9, 8400, Note_on_c, 7, 59, 64
9, 8400, Note_on_c, 7, 67, 64
9, 8460, Note_on_c, 7, 67, 0
9, 8460, Note_on_c, 7, 59, 0
9, 8460, Note_on_c, 7, 60, 64
9, 8460, Note_on_c, 7, 66, 64
9, 8520, Note_on_c, 7, 66, 0
9, 8520, Note_on_c, 7, 60, 0
9, 8520, Note_on_c, 7, 62, 64
9, 8520, Note_on_c, 7, 67, 64
9, 8580, Note_on_c, 7, 67, 0
9, 8580, Note_on_c, 7, 69, 64
9, 8640, Note_on_c, 7, 69, 0
9, 8640, Note_on_c, 7, 62, 0
9, 8640, Note_on_c, 7, 62, 64
9, 8640, Note_on_c, 7, 67, 64
9, 8700, Note_on_c, 7, 67, 0
9, 8700, Note_on_c, 7, 62, 0
9, 8760, Note_on_c, 7, 62, 64
9, 8760, Note_on_c, 7, 66, 64
9, 8820, Note_on_c, 7, 66, 0
9, 8820, Note_on_c, 7, 62, 0
9, 8880, Note_on_c, 7, 59, 64
9, 8880, Note_on_c, 7, 67, 64
9, 8940, Note_on_c, 7, 67, 0
9, 8940, Note_on_c, 7, 59, 0
9, 9000, Note_on_c, 7, 62, 64
9, 9000, Note_on_c, 7, 67, 64
9, 9060, Note_on_c, 7, 67, 0
9, 9060, Note_on_c, 7, 62, 0
9, 9120, Note_on_c, 7, 67, 64
9, 9120, Note_on_c, 7, 74, 64
9, 9180, Note_on_c, 7, 74, 0
9, 9180, Note_on_c, 7, 67, 0
9, 9240, Note_on_c, 7, 66, 64
9, 9240, Note_on_c, 7, 72, 64
9, 9300, Note_on_c, 7, 72, 0
9, 9300, Note_on_c, 7, 66, 0
9, 9360, Note_on_c, 7, 67, 64
9, 9360, Note_on_c, 7, 71, 64
9, 9420, Note_on_c, 7, 71, 0
9, 9420, Note_on_c, 7, 67, 0
9, 9420, Note_on_c, 7, 67, 64
9, 9420, Note_on_c, 7, 74, 64
9, 9420, Note_on_c, 7, 77, 64
9, 9540, Note_on_c, 7, 77, 0
9, 9540, Note_on_c, 7, 74, 0
9, 9540, Note_on_c, 7, 67, 0
9, 9540, Note_on_c, 7, 67, 64
9, 9540, Note_on_c, 7, 72, 64
9, 9540, Note_on_c, 7, 76, 64
9, 9600, Note_on_c, 7, 76, 0
9, 9600, Note_on_c, 7, 72, 0
9, 9600, Note_on_c, 7, 67, 0
9, 9600, Note_on_c, 7, 67, 64
9, 9600, Note_on_c, 7, 72, 64
9, 9600, Note_on_c, 7, 76, 64
9, 9630, Note_on_c, 7, 76, 0
9, 9630, Note_on_c, 7, 72, 0
9, 9630, Note_on_c, 7, 67, 0
9, 9630, Note_on_c, 7, 71, 64
9, 9630, Note_on_c, 7, 74, 64
9, 9660, Note_on_c, 7, 74, 0
9, 9660, Note_on_c, 7, 71, 0
9, 9660, Note_on_c, 7, 72, 64
9, 9660, Note_on_c, 7, 76, 64
9, 9720, Note_on_c, 7, 76, 0
9, 9720, Note_on_c, 7, 72, 0
9, 9720, Note_on_c, 7, 71, 64
9, 9720, Note_on_c, 7, 74, 64
9, 9840, Note_on_c, 7, 74, 0
9, 9840, Note_on_c, 7, 71, 0
9, 9840, Note_on_c, 7, 64, 64
9, 9840, Note_on_c, 7, 69, 64
9, 9840, Note_on_c, 7, 72, 64
9, 9900, Note_on_c, 7, 72, 0
9, 9900, Note_on_c, 7, 69, 0
9, 9900, Note_on_c, 7, 64, 0
9, 9900, Note_on_c, 7, 66, 64
9, 9900, Note_on_c, 7, 69, 64
9, 10020, Note_on_c, 7, 69, 0
9, 10020, Note_on_c, 7, 66, 0
9, 10020, Note_on_c, 7, 62, 64
9, 10020, Note_on_c, 7, 67, 64
9, 10020, Note_on_c, 7, 71, 64
9, 10080, Note_on_c, 7, 71, 0
9, 10080, Note_on_c, 7, 67, 0
9, 10080, Note_on_c, 7, 62, 0
9, 10080, Note_on_c, 7, 62, 64
9, 10080, Note_on_c, 7, 69, 64
9, 10080, Note_on_c, 7, 72, 64
9, 10140, Note_on_c, 7, 72, 0
9, 10140, Note_on_c, 7, 69, 0
9, 10140, Note_on_c, 7, 72, 64
9, 10140, Note_on_c, 7, 76, 64
9, 10260, Note_on_c, 7, 76, 0
9, 10260, Note_on_c, 7, 72, 0
9, 10260, Note_on_c, 7, 62, 0
9, 10260, Note_on_c, 7, 62, 64
9, 10260, Note_on_c, 7, 69, 64
9, 10260, Note_on_c, 7, 72, 64
9, 10320, Note_on_c, 7, 72, 0
9, 10320, Note_on_c, 7, 69, 0
9, 10320, Note_on_c, 7, 62, 0
9, 10320, Note_on_c, 7, 67, 64
9, 10320, Note_on_c, 7, 71, 64
9, 10380, Note_on_c, 7, 71, 0
9, 10380, Note_on_c, 7, 67, 0
9, 10380, Note_on_c, 7, 67, 64
9, 10380, Note_on_c, 7, 71, 64
9, 10380, Note_on_c, 7, 74, 64
9, 10500, Note_on_c, 7, 74, 0
9, 10500, Note_on_c, 7, 71, 0
9, 10500, Note_on_c, 7, 67, 0
9, 10500, Note_on_c, 7, 64, 64
9, 10500, Note_on_c, 7, 69, 64
9, 10500, Note_on_c, 7, 72, 64
9, 10560, Note_on_c, 7, 72, 0
9, 10560, Note_on_c, 7, 69, 0
9, 10560, Note_on_c, 7, 64, 0
9, 10560, Note_on_c, 7, 67, 64
9, 10560, Note_on_c, 7, 71, 64
9, 10680, Note_on_c, 7, 71, 0
9, 10680, Note_on_c, 7, 67, 0
9, 10680, Note_on_c, 7, 69, 64
9, 10704, Control_c, 7, 7, 127
9, 10740, Note_on_c, 7, 69, 0
9, 11040, Note_on_c, 7, 62, 64
9, 11040, Note_on_c, 7, 66, 64
9, 11040, Note_on_c, 7, 69, 64
9, 11100, Note_on_c, 7, 69, 0
9, 11100, Note_on_c, 7, 66, 0
9, 11100, Note_on_c, 7, 62, 0
9, 11220, Note_on_c, 7, 66, 64
9, 11220, Note_on_c, 7, 72, 64
9, 11280, Note_on_c, 7, 72, 0
9, 11280, Note_on_c, 7, 66, 0
9, 11280, Note_on_c, 7, 67, 64
9, 11280, Note_on_c, 7, 71, 64
9, 11460, Note_on_c, 7, 71, 0
9, 11460, Note_on_c, 7, 67, 0
9, 11460, Note_on_c, 7, 66, 64
9, 11460, Note_on_c, 7, 69, 64
9, 11520, Note_on_c, 7, 69, 0
9, 11520, Note_on_c, 7, 66, 0
9, 11520, Note_on_c, 7, 59, 64
9, 11520, Note_on_c, 7, 67, 64
9, 11580, Note_on_c, 7, 67, 0
9, 11580, Note_on_c, 7, 59, 0
9, 11760, Control_c, 7, 7, 90
9, 11760, Note_on_c, 7, 67, 64
9, 11760, Note_on_c, 7, 71, 64
9, 11820, Note_on_c, 7, 71, 0
9, 11820, Note_on_c, 7, 67, 0
9, 11880, Note_on_c, 7, 66, 64
9, 11880, Note_on_c, 7, 69, 64
9, 11940, Note_on_c, 7, 69, 0
9, 11940, Note_on_c, 7, 66, 0
9, 12000, Note_on_c, 7, 67, 64
9, 12060, Note_on_c, 7, 67, 0
9, 12120, Note_on_c, 7, 62, 64
9, 12120, Note_on_c, 7, 66, 64
9, 12180, Note_on_c, 7, 66, 0
9, 12180, Note_on_c, 7, 62, 0
9, 12240, Note_on_c, 7, 59, 64
9, 12240, Note_on_c, 7, 67, 64
9, 12300, Note_on_c, 7, 67, 0
9, 12300, Note_on_c, 7, 59, 0
9, 12300, Note_on_c, 7, 60, 64
9, 12300, Note_on_c, 7, 66, 64
9, 12360, Note_on_c, 7, 66, 0
9, 12360, Note_on_c, 7, 60, 0
9, 12360, Note_on_c, 7, 62, 64
9, 12360, Note_on_c, 7, 67, 64
9, 12420, Note_on_c, 7, 67, 0
9, 12420, Note_on_c, 7, 69, 64
9, 12480, Note_on_c, 7, 69, 0
9, 12480, Note_on_c, 7, 62, 0
9, 12480, Note_on_c, 7, 62, 64
9, 12480, Note_on_c, 7, 67, 64
9, 12540, Note_on_c, 7, 67, 0
9, 12540, Note_on_c, 7, 62, 0
9, 12600, Note_on_c, 7, 62, 64
9, 12600, Note_on_c, 7, 66, 64
9, 12660, Note_on_c, 7, 66, 0
9, 12660, Note_on_c, 7, 62, 0
9, 12720, Note_on_c, 7, 59, 64
9, 12720, Note_on_c, 7, 67, 64
9, 12780, Note_on_c, 7, 67, 0
9, 12780, Note_on_c, 7, 59, 0
9, 12840, Note_on_c, 7, 62, 64
9, 12840, Note_on_c, 7, 67, 64
9, 12900, Note_on_c, 7, 67, 0
9, 12900, Note_on_c, 7, 62, 0
9, 12960, Note_on_c, 7, 67, 64
9, 12960, Note_on_c, 7, 74, 64
9, 13020, Note_on_c, 7, 74, 0
9, 13020, Note_on_c, 7, 67, 0
9, 13080, Note_on_c, 7, 66, 64
9, 13080, Note_on_c, 7, 72, 64
9, 13140, Note_on_c, 7, 72, 0
9, 13140, Note_on_c, 7, 66, 0
9, 13200, Note_on_c, 7, 67, 64
9, 13200, Note_on_c, 7, 71, 64
9, 13260, Note_on_c, 7, 71, 0
9, 13260, Note_on_c, 7, 67, 0
9, 13260, Note_on_c, 7, 67, 64
9, 13260, Note_on_c, 7, 74, 64
9, 13260, Note_on_c, 7, 77, 64
9, 13380, Note_on_c, 7, 77, 0
9, 13380, Note_on_c, 7, 74, 0
9, 13380, Note_on_c, 7, 67, 0
9, 13380, Note_on_c, 7, 67, 64
9, 13380, Note_on_c, 7, 72, 64
9, 13380, Note_on_c, 7, 76, 64
9, 13440, Note_on_c, 7, 76, 0
9, 13440, Note_on_c, 7, 72, 0
9, 13440, Note_on_c, 7, 67, 0
9, 13440, Note_on_c, 7, 67, 64
9, 13440, Note_on_c, 7, 72, 64
9, 13440, Note_on_c, 7, 76, 64
9, 13470, Note_on_c, 7, 76, 0
9, 13470, Note_on_c, 7, 72, 0
9, 13470, Note_on_c, 7, 67, 0
9, 13470, Note_on_c, 7, 71, 64
9, 13470, Note_on_c, 7, 74, 64
9, 13500, Note_on_c, 7, 74, 0
9, 13500, Note_on_c, 7, 71, 0
9, 13500, Note_on_c, 7, 72, 64
9, 13500, Note_on_c, 7, 76, 64
9, 13560, Note_on_c, 7, 76, 0
9, 13560, Note_on_c, 7, 72, 0
9, 13560, Note_on_c, 7, 71, 64
9, 13560, Note_on_c, 7, 74, 64
9, 13680, Note_on_c, 7, 74, 0
9, 13680, Note_on_c, 7, 71, 0
9, 13680, Note_on_c, 7, 64, 64
9, 13680, Note_on_c, 7, 69, 64
9, 13680, Note_on_c, 7, 72, 64
9, 13740, Note_on_c, 7, 72, 0
9, 13740, Note_on_c, 7, 69, 0
9, 13740, Note_on_c, 7, 64, 0
9, 13740, Note_on_c, 7, 66, 64
9, 13740, Note_on_c, 7, 69, 64
9, 13860, Note_on_c, 7, 69, 0
9, 13860, Note_on_c, 7, 66, 0
9, 13860, Note_on_c, 7, 62, 64
9, 13860, Note_on_c, 7, 67, 64
9, 13860, Note_on_c, 7, 71, 64
9, 13920, Note_on_c, 7, 71, 0
9, 13920, Note_on_c, 7, 67, 0
9, 13920, Note_on_c, 7, 62, 0
9, 13920, Note_on_c, 7, 62, 64
9, 13920, Note_on_c, 7, 69, 64
9, 13920, Note_on_c, 7, 72, 64
9, 13980, Note_on_c, 7, 72, 0
9, 13980, Note_on_c, 7, 69, 0
9, 13980, Note_on_c, 7, 72, 64
9, 13980, Note_on_c, 7, 76, 64
9, 14100, Note_on_c, 7, 76, 0
9, 14100, Note_on_c, 7, 72, 0
9, 14100, Note_on_c, 7, 62, 0
9, 14100, Note_on_c, 7, 62, 64
9, 14100, Note_on_c, 7, 69, 64
9, 14100, Note_on_c, 7, 72, 64
9, 14160, Note_on_c, 7, 72, 0
9, 14160, Note_on_c, 7, 69, 0
9, 14160, Note_on_c, 7, 62, 0
9, 14160, Note_on_c, 7, 67, 64
9, 14160, Note_on_c, 7, 71, 64
9, 14220, Note_on_c, 7, 71, 0
9, 14220, Note_on_c, 7, 67, 0
9, 14280, Note_on_c, 7, 62, 64
9, 14280, Note_on_c, 7, 67, 64
9, 14340, Note_on_c, 7, 67, 0
9, 14340, Note_on_c, 7, 62, 0
9, 14340, Note_on_c, 7, 64, 64
9, 14340, Note_on_c, 7, 69, 64
9, 14400, Note_on_c, 7, 69, 0
9, 14400, Note_on_c, 7, 64, 0
9, 14400, Note_on_c, 7, 62, 64
9, 14400, Note_on_c, 7, 67, 64
9, 14400, Note_on_c, 7, 71, 64
9, 14520, Note_on_c, 7, 71, 0
9, 14520, Note_on_c, 7, 67, 0
9, 14520, Note_on_c, 7, 62, 0
9, 14520, Note_on_c, 7, 62, 64
9, 14520, Note_on_c, 7, 66, 64
9, 14520, Note_on_c, 7, 69, 64
9, 14580, Note_on_c, 7, 69, 0
9, 14580, Note_on_c, 7, 66, 0
9, 14580, Note_on_c, 7, 62, 0
9, 14640, Note_on_c, 7, 66, 64
9, 14640, Note_on_c, 7, 74, 64
9, 14700, Note_on_c, 7, 74, 0
9, 14700, Note_on_c, 7, 66, 0
9, 14700, Note_on_c, 7, 67, 64
9, 14700, Note_on_c, 7, 73, 64
9, 14760, Note_on_c, 7, 73, 0
9, 14760, Note_on_c, 7, 67, 0
9, 14760, Note_on_c, 7, 69, 64
9, 14760, Note_on_c, 7, 74, 64
9, 14820, Note_on_c, 7, 74, 0
9, 14820, Note_on_c, 7, 76, 64
9, 14880, Note_on_c, 7, 76, 0
9, 14880, Note_on_c, 7, 69, 0
9, 14880, Note_on_c, 7, 69, 64
9, 14880, Note_on_c, 7, 74, 64
9, 14940, Note_on_c, 7, 74, 0
9, 14940, Note_on_c, 7, 69, 0
9, 15000, Note_on_c, 7, 69, 64
9, 15000, Note_on_c, 7, 73, 64
9, 15060, Note_on_c, 7, 73, 0
9, 15060, Note_on_c, 7, 69, 0
9, 15120, Note_on_c, 7, 66, 64
9, 15120, Note_on_c, 7, 74, 64
9, 15180, Note_on_c, 7, 74, 0
9, 15180, Note_on_c, 7, 66, 0
9, 15180, Note_on_c, 7, 67, 64
9, 15180, Note_on_c, 7, 73, 64
9, 15240, Note_on_c, 7, 73, 0
9, 15240, Note_on_c, 7, 67, 0
9, 15240, Note_on_c, 7, 69, 64
9, 15240, Note_on_c, 7, 74, 64
9, 15300, Note_on_c, 7, 74, 0
9, 15300, Note_on_c, 7, 76, 64
9, 15360, Note_on_c, 7, 76, 0
9, 15360, Note_on_c, 7, 69, 0
9, 15360, Note_on_c, 7, 69, 64
9, 15360, Note_on_c, 7, 74, 64
9, 15420, Note_on_c, 7, 74, 0
9, 15420, Note_on_c, 7, 69, 0
9, 15480, Note_on_c, 7, 69, 64
9, 15480, Note_on_c, 7, 73, 64
9, 15540, Note_on_c, 7, 73, 0
9, 15540, Note_on_c, 7, 69, 0
9, 15600, Note_on_c, 7, 66, 64
9, 15600, Note_on_c, 7, 69, 64
9, 15600, Note_on_c, 7, 74, 64
9, 15660, Note_on_c, 7, 74, 0
9, 15660, Note_on_c, 7, 69, 0
9, 15660, Note_on_c, 7, 66, 0
9, 15720, Note_on_c, 7, 62, 64
9, 15720, Note_on_c, 7, 66, 64
9, 15780, Note_on_c, 7, 66, 0
9, 15780, Note_on_c, 7, 62, 0
9, 15840, Note_on_c, 7, 62, 64
9, 15840, Note_on_c, 7, 67, 64
9, 15900, Note_on_c, 7, 67, 0
9, 15900, Note_on_c, 7, 62, 0
9, 15960, Note_on_c, 7, 66, 64
9, 15960, Note_on_c, 7, 69, 64
9, 16020, Note_on_c, 7, 69, 0
9, 16020, Note_on_c, 7, 66, 0
9, 16080, Note_on_c, 7, 64, 64
9, 16080, Note_on_c, 7, 74, 64
9, 16140, Note_on_c, 7, 74, 0
9, 16140, Note_on_c, 7, 72, 64
9, 16200, Note_on_c, 7, 64, 0
9, 16200, Note_on_c, 7, 62, 64
9, 16260, Note_on_c, 7, 62, 0
9, 16260, Note_on_c, 7, 72, 0
9, 16260, Note_on_c, 7, 66, 64
9, 16260, Note_on_c, 7, 69, 64
9, 16320, Note_on_c, 7, 69, 0
9, 16320, Note_on_c, 7, 66, 0
9, 16320, Note_on_c, 7, 67, 64
9, 16320, Note_on_c, 7, 71, 64
9, 16380, Note_on_c, 7, 71, 0
9, 16380, Note_on_c, 7, 67, 0
9, 16440, Note_on_c, 7, 67, 64
9, 16440, Note_on_c, 7, 74, 64
9, 16500, Note_on_c, 7, 74, 0
9, 16500, Note_on_c, 7, 67, 0
9, 16560, Note_on_c, 7, 59, 64
9, 16560, Note_on_c, 7, 67, 64
9, 16620, Note_on_c, 7, 67, 0
9, 16620, Note_on_c, 7, 59, 0
9, 16620, Note_on_c, 7, 60, 64
9, 16620, Note_on_c, 7, 66, 64
9, 16680, Note_on_c, 7, 66, 0
9, 16680, Note_on_c, 7, 60, 0
9, 16680, Note_on_c, 7, 62, 64
9, 16680, Note_on_c, 7, 67, 64
9, 16740, Note_on_c, 7, 67, 0
9, 16740, Note_on_c, 7, 69, 64
9, 16800, Note_on_c, 7, 69, 0
9, 16800, Note_on_c, 7, 62, 0
9, 16800, Note_on_c, 7, 62, 64
9, 16800, Note_on_c, 7, 67, 64
9, 16860, Note_on_c, 7, 67, 0
9, 16860, Note_on_c, 7, 62, 0
9, 16920, Note_on_c, 7, 62, 64
9, 16920, Note_on_c, 7, 66, 64
9, 16980, Note_on_c, 7, 66, 0
9, 16980, Note_on_c, 7, 62, 0
9, 17040, Note_on_c, 7, 59, 64
9, 17040, Note_on_c, 7, 67, 64
9, 17100, Note_on_c, 7, 67, 0
9, 17100, Note_on_c, 7, 59, 0
9, 17100, Note_on_c, 7, 60, 64
9, 17100, Note_on_c, 7, 66, 64
9, 17160, Note_on_c, 7, 66, 0
9, 17160, Note_on_c, 7, 60, 0
9, 17160, Note_on_c, 7, 62, 64
9, 17160, Note_on_c, 7, 67, 64
9, 17220, Note_on_c, 7, 67, 0
9, 17220, Note_on_c, 7, 69, 64
9, 17280, Note_on_c, 7, 69, 0
9, 17280, Note_on_c, 7, 62, 0
9, 17280, Note_on_c, 7, 62, 64
9, 17280, Note_on_c, 7, 67, 64
9, 17340, Note_on_c, 7, 67, 0
9, 17340, Note_on_c, 7, 62, 0
9, 17400, Note_on_c, 7, 62, 64
9, 17400, Note_on_c, 7, 66, 64
9, 17460, Note_on_c, 7, 66, 0
9, 17460, Note_on_c, 7, 62, 0
9, 17520, Note_on_c, 7, 59, 64
9, 17520, Note_on_c, 7, 62, 64
9, 17520, Note_on_c, 7, 67, 64
9, 17580, Note_on_c, 7, 67, 0
9, 17580, Note_on_c, 7, 62, 0
9, 17580, Note_on_c, 7, 59, 0
9, 17640, Note_on_c, 7, 55, 64
9, 17640, Note_on_c, 7, 59, 64
9, 17700, Note_on_c, 7, 59, 0
9, 17700, Note_on_c, 7, 55, 0
9, 17760, Note_on_c, 7, 55, 64
9, 17760, Note_on_c, 7, 60, 64
9, 17820, Note_on_c, 7, 60, 0
9, 17820, Note_on_c, 7, 55, 0
9, 17880, Note_on_c, 7, 59, 64
9, 17880, Note_on_c, 7, 62, 64
9, 17940, Note_on_c, 7, 62, 0
9, 17940, Note_on_c, 7, 59, 0
9, 18000, Note_on_c, 7, 57, 64
9, 18000, Note_on_c, 7, 67, 64
9, 18060, Note_on_c, 7, 67, 0
9, 18060, Note_on_c, 7, 65, 64
9, 18120, Note_on_c, 7, 57, 0
9, 18120, Note_on_c, 7, 55, 64
9, 18180, Note_on_c, 7, 55, 0
9, 18180, Note_on_c, 7, 65, 0
9, 18180, Note_on_c, 7, 59, 64
9, 18180, Note_on_c, 7, 62, 64
9, 18240, Note_on_c, 7, 62, 0
9, 18240, Note_on_c, 7, 59, 0
9, 18240, Note_on_c, 7, 60, 64
9, 18240, Note_on_c, 7, 64, 64
9, 18300, Note_on_c, 7, 64, 0
9, 18300, Note_on_c, 7, 60, 0
9, 18360, Note_on_c, 7, 60, 64
9, 18360, Note_on_c, 7, 67, 64
9, 18420, Note_on_c, 7, 67, 0
9, 18420, Note_on_c, 7, 60, 0
9, 18480, Note_on_c, 7, 67, 64
9, 18480, Note_on_c, 7, 76, 64
9, 18540, Note_on_c, 7, 76, 0
9, 18540, Note_on_c, 7, 67, 0
9, 18540, Note_on_c, 7, 71, 64
9, 18540, Note_on_c, 7, 74, 64
9, 18660, Note_on_c, 7, 74, 0
9, 18660, Note_on_c, 7, 71, 0
9, 18660, Note_on_c, 7, 69, 64
9, 18660, Note_on_c, 7, 72, 64
9, 18720, Note_on_c, 7, 72, 0
9, 18720, Note_on_c, 7, 69, 0
9, 18720, Note_on_c, 7, 67, 64
9, 18720, Note_on_c, 7, 71, 64
9, 18780, Note_on_c, 7, 71, 0
9, 18780, Note_on_c, 7, 67, 0
9, 18780, Note_on_c, 7, 66, 64
9, 18780, Note_on_c, 7, 69, 64
9, 18900, Note_on_c, 7, 69, 0
9, 18900, Note_on_c, 7, 66, 0
9, 18900, Note_on_c, 7, 67, 64
9, 18900, Note_on_c, 7, 71, 64
9, 18930, Note_on_c, 7, 71, 0
9, 18930, Note_on_c, 7, 67, 0
9, 18930, Note_on_c, 7, 69, 64
9, 18930, Note_on_c, 7, 72, 64
9, 18960, Note_on_c, 7, 72, 0
9, 18960, Note_on_c, 7, 69, 0
9, 18960, Note_on_c, 7, 71, 64
9, 18960, Note_on_c, 7, 74, 64
9, 19020, Note_on_c, 7, 74, 0
9, 19020, Note_on_c, 7, 71, 0
9, 19020, Note_on_c, 7, 69, 64
9, 19020, Note_on_c, 7, 72, 64
9, 19140, Note_on_c, 7, 72, 0
9, 19140, Note_on_c, 7, 69, 0
9, 19140, Note_on_c, 7, 67, 64
9, 19140, Note_on_c, 7, 71, 64
9, 19200, Note_on_c, 7, 71, 0
9, 19200, Note_on_c, 7, 67, 0
9, 19200, Note_on_c, 7, 66, 64
9, 19200, Note_on_c, 7, 69, 64
9, 19260, Note_on_c, 7, 69, 0
9, 19260, Note_on_c, 7, 66, 0
9, 19260, Note_on_c, 7, 64, 64
9, 19260, Note_on_c, 7, 67, 64
9, 19320, Note_on_c, 7, 67, 0
9, 19320, Note_on_c, 7, 64, 0
9, 19320, Note_on_c, 7, 64, 64
9, 19320, Note_on_c, 7, 72, 64
9, 19440, Note_on_c, 7, 64, 0
9, 19440, Note_on_c, 7, 62, 64
9, 19560, Note_on_c, 7, 72, 0
9, 19560, Note_on_c, 7, 71, 64
9, 19680, Note_on_c, 7, 62, 0
9, 19680, Note_on_c, 7, 60, 64
9, 19800, Note_on_c, 7, 71, 0
9, 19800, Note_on_c, 7, 69, 64
9, 19920, Note_on_c, 7, 69, 0
9, 19920, Note_on_c, 7, 60, 0
9, 19920, Note_on_c, 7, 59, 64
9, 19920, Note_on_c, 7, 69, 64
9, 19980, Note_on_c, 7, 69, 0
9, 19980, Note_on_c, 7, 67, 64
9, 20100, Note_on_c, 7, 67, 0
9, 20100, Note_on_c, 7, 59, 0
9, 20100, Note_on_c, 7, 57, 64
9, 20100, Note_on_c, 7, 67, 64
9, 20220, Note_on_c, 7, 67, 0
9, 20220, Note_on_c, 7, 57, 0
9, 20220, Note_on_c, 7, 62, 64
9, 20220, Note_on_c, 7, 66, 64
9, 20280, Note_on_c, 7, 66, 0
9, 20280, Note_on_c, 7, 62, 0
9, 20280, Note_on_c, 7, 62, 64
9, 20280, Note_on_c, 7, 67, 64
9, 20460, Note_on_c, 7, 67, 0
9, 20460, Note_on_c, 7, 62, 0
9, 20460, Note_on_c, 7, 64, 64
9, 20520, Note_on_c, 7, 64, 0
9, 20520, Note_on_c, 7, 60, 64
9, 20520, Note_on_c, 7, 64, 64
9, 20700, Note_on_c, 7, 64, 0
9, 20700, Note_on_c, 7, 60, 0
9, 20700, Note_on_c, 7, 62, 64
9, 20760, Note_on_c, 7, 62, 0
9, 20760, Note_on_c, 7, 59, 64
9, 20760, Note_on_c, 7, 62, 64
9, 20940, Note_on_c, 7, 62, 0
9, 20940, Note_on_c, 7, 59, 0
9, 20940, Note_on_c, 7, 60, 64
9, 21000, Note_on_c, 7, 60, 0
9, 21000, Note_on_c, 7, 57, 64
9, 21000, Note_on_c, 7, 60, 64
9, 21120, Note_on_c, 7, 60, 0
9, 21120, Note_on_c, 7, 57, 0
9, 21120, Note_on_c, 7, 55, 64
9, 21120, Note_on_c, 7, 59, 64
9, 21180, Note_on_c, 7, 59, 0
9, 21180, Note_on_c, 7, 55, 0
9, 21300, Note_on_c, 7, 66, 64
9, 21300, Note_on_c, 7, 69, 64
9, 21360, Note_on_c, 7, 69, 0
9, 21360, Note_on_c, 7, 66, 0
9, 21360, Note_on_c, 7, 64, 64
9, 21360, Note_on_c, 7, 72, 64
9, 21420, Note_on_c, 7, 72, 0
9, 21420, Note_on_c, 7, 64, 0
9, 21540, Note_on_c, 7, 67, 64
9, 21540, Note_on_c, 7, 71, 64
9, 21600, Note_on_c, 7, 71, 0
9, 21600, Note_on_c, 7, 67, 0
9, 21600, Note_on_c, 7, 66, 64
9, 21600, Note_on_c, 7, 74, 64
9, 21660, Note_on_c, 7, 74, 0
9, 21660, Note_on_c, 7, 66, 0
9, 21660, Note_on_c, 7, 69, 64
9, 21660, Note_on_c, 7, 72, 64
9, 21720, Note_on_c, 7, 72, 0
9, 21720, Note_on_c, 7, 69, 0
9, 21720, Note_on_c, 7, 67, 64
9, 21720, Note_on_c, 7, 69, 64
9, 21780, Note_on_c, 7, 67, 0
9, 21780, Note_on_c, 7, 66, 64
9, 21840, Note_on_c, 7, 66, 0
9, 21840, Note_on_c, 7, 69, 0
9, 21840, Note_on_c, 7, 62, 64
9, 21840, Note_on_c, 7, 67, 64
9, 21900, Note_on_c, 7, 67, 0
9, 21900, Note_on_c, 7, 62, 0
9, 21900, Note_on_c, 7, 67, 64
9, 21900, Note_on_c, 7, 71, 64
9, 21960, Note_on_c, 7, 71, 0
9, 21960, Note_on_c, 7, 67, 0
9, 21960, Note_on_c, 7, 59, 64
9, 21960, Note_on_c, 7, 67, 64
9, 22020, Note_on_c, 7, 67, 0
9, 22020, Note_on_c, 7, 59, 0
9, 22020, Note_on_c, 7, 57, 64
9, 22020, Note_on_c, 7, 66, 64
9, 22080, Note_on_c, 7, 66, 0
9, 22080, Note_on_c, 7, 57, 0
9, 22080, Note_on_c, 7, 59, 64
9, 22080, Note_on_c, 7, 67, 64
9, 22140, Note_on_c, 7, 67, 0
9, 22140, Note_on_c, 7, 59, 0
9, 22260, Note_on_c, 7, 67, 64
9, 22260, Note_on_c, 7, 71, 64
9, 22290, Note_on_c, 7, 71, 0
9, 22290, Note_on_c, 7, 67, 0
9, 22320, Note_on_c, 7, 67, 64
9, 22320, Note_on_c, 7, 71, 64
9, 22380, Note_on_c, 7, 71, 0
9, 22380, Note_on_c, 7, 67, 0
9, 22380, Note_on_c, 7, 66, 64
9, 22380, Note_on_c, 7, 69, 64
9, 22410, Note_on_c, 7, 69, 0
9, 22410, Note_on_c, 7, 66, 0
9, 22800, Note_on_c, 7, 62, 64
9, 22800, Note_on_c, 7, 66, 64
9, 22800, Note_on_c, 7, 69, 64
9, 22860, Note_on_c, 7, 69, 0
9, 22860, Note_on_c, 7, 66, 0
9, 22860, Note_on_c, 7, 62, 0
9, 23280, Note_on_c, 7, 62, 64
9, 23280, Note_on_c, 7, 67, 64
9, 23280, Note_on_c, 7, 71, 64
9, 23340, Note_on_c, 7, 71, 0
9, 23340, Note_on_c, 7, 67, 0
9, 23340, Note_on_c, 7, 62, 0
9, 23340, Note_on_c, 7, 66, 64
9, 23340, Note_on_c, 7, 69, 64
9, 23400, Note_on_c, 7, 69, 0
9, 23400, Note_on_c, 7, 66, 0
9, 23760, Note_on_c, 7, 66, 64
9, 23760, Note_on_c, 7, 69, 64
9, 23760, Note_on_c, 7, 72, 64
9, 23820, Note_on_c, 7, 72, 0
9, 23820, Note_on_c, 7, 69, 0
9, 23820, Note_on_c, 7, 66, 0
9, 24120, Note_on_c, 7, 67, 64
9, 24120, Note_on_c, 7, 71, 64
9, 24180, Note_on_c, 7, 71, 0
9, 24180, Note_on_c, 7, 67, 0
9, 24180, Note_on_c, 7, 62, 64
9, 24180, Note_on_c, 7, 67, 64
9, 24240, Note_on_c, 7, 67, 0
9, 24240, Note_on_c, 7, 62, 0
9, 24240, Note_on_c, 7, 61, 64
9, 24240, Note_on_c, 7, 64, 64
9, 24240, Note_on_c, 7, 67, 64
9, 24300, Note_on_c, 7, 67, 0
9, 24300, Note_on_c, 7, 64, 0
9, 24300, Note_on_c, 7, 61, 0
9, 24300, Note_on_c, 7, 57, 64
9, 24300, Note_on_c, 7, 62, 64
9, 24300, Note_on_c, 7, 66, 64
9, 24360, Note_on_c, 7, 66, 0
9, 24360, Note_on_c, 7, 62, 0
9, 24360, Note_on_c, 7, 57, 0
9, 24600, Note_on_c, 7, 62, 64
9, 24600, Note_on_c, 7, 69, 64
9, 24660, Note_on_c, 7, 69, 0
9, 24660, Note_on_c, 7, 62, 0
9, 24720, Note_on_c, 7, 67, 64
9, 24720, Note_on_c, 7, 71, 64
9, 24780, Note_on_c, 7, 71, 0
9, 24780, Note_on_c, 7, 67, 0
9, 24780, Note_on_c, 7, 66, 64
9, 24780, Note_on_c, 7, 69, 64
9, 24810, Note_on_c, 7, 69, 0
9, 24810, Note_on_c, 7, 66, 0
9, 25200, Note_on_c, 7, 59, 64
9, 25200, Note_on_c, 7, 67, 64
9, 25260, Note_on_c, 7, 67, 0
9, 25260, Note_on_c, 7, 59, 0
9, 25260, Note_on_c, 7, 57, 64
9, 25260, Note_on_c, 7, 66, 64
9, 25290, Note_on_c, 7, 66, 0
9, 25290, Note_on_c, 7, 57, 0
9, 25800, Note_on_c, 7, 62, 64
9, 25800, Note_on_c, 7, 66, 64
9, 25860, Note_on_c, 7, 66, 0
9, 25860, Note_on_c, 7, 62, 0
9, 25920, Note_on_c, 7, 62, 64
9, 25920, Note_on_c, 7, 69, 64
9, 25980, Note_on_c, 7, 69, 0
9, 25980, Note_on_c, 7, 62, 0
9, 26040, Note_on_c, 7, 66, 64
9, 26040, Note_on_c, 7, 74, 64
9, 26100, Note_on_c, 7, 74, 0
9, 26100, Note_on_c, 7, 66, 0
9, 26160, Note_on_c, 7, 72, 64
9, 26160, Note_on_c, 7, 78, 64
9, 26220, Note_on_c, 7, 78, 0
9, 26220, Note_on_c, 7, 72, 0
9, 26280, Note_on_c, 7, 66, 64
9, 26280, Note_on_c, 7, 74, 64
9, 26340, Note_on_c, 7, 74, 0
9, 26340, Note_on_c, 7, 66, 0
9, 26400, Note_on_c, 7, 69, 64
9, 26400, Note_on_c, 7, 74, 64
9, 26460, Note_on_c, 7, 74, 0
9, 26460, Note_on_c, 7, 69, 0
9, 26520, Note_on_c, 7, 74, 64
9, 26520, Note_on_c, 7, 78, 64
9, 26580, Note_on_c, 7, 78, 0
9, 26580, Note_on_c, 7, 74, 0
9, 26640, Note_on_c, 7, 74, 64
9, 26640, Note_on_c, 7, 81, 64
9, 26700, Note_on_c, 7, 81, 0
9, 26700, Note_on_c, 7, 74, 0
9, 26760, Note_on_c, 7, 74, 64
9, 26760, Note_on_c, 7, 79, 64
9, 26820, Note_on_c, 7, 79, 0
9, 26820, Note_on_c, 7, 74, 0
9, 26880, Note_on_c, 7, 71, 64
9, 26880, Note_on_c, 7, 74, 64
9, 26940, Note_on_c, 7, 74, 0
9, 26940, Note_on_c, 7, 71, 0
9, 27000, Note_on_c, 7, 71, 64
9, 27000, Note_on_c, 7, 74, 64
9, 27060, Note_on_c, 7, 74, 0
9, 27060, Note_on_c, 7, 71, 0
9, 27120, Note_on_c, 7, 71, 64
9, 27120, Note_on_c, 7, 74, 64
9, 27180, Note_on_c, 7, 74, 0
9, 27180, Note_on_c, 7, 71, 0
9, 27240, Note_on_c, 7, 69, 64
9, 27240, Note_on_c, 7, 72, 64
9, 27300, Note_on_c, 7, 72, 0
9, 27300, Note_on_c, 7, 69, 0
9, 27360, Note_on_c, 7, 72, 64
9, 27360, Note_on_c, 7, 74, 64
9, 27420, Note_on_c, 7, 74, 0
9, 27420, Note_on_c, 7, 72, 0
9, 27480, Note_on_c, 7, 66, 64
9, 27480, Note_on_c, 7, 72, 64
9, 27540, Note_on_c, 7, 72, 0
9, 27540, Note_on_c, 7, 66, 0
9, 27600, Note_on_c, 7, 67, 64
9, 27600, Note_on_c, 7, 71, 64
9, 27660, Note_on_c, 7, 71, 0
9, 27660, Note_on_c, 7, 67, 0
9, 27660, Note_on_c, 7, 67, 64
9, 27660, Note_on_c, 7, 74, 64
9, 27720, Note_on_c, 7, 74, 0
9, 27720, Note_on_c, 7, 67, 0
9, 27720, Note_on_c, 7, 67, 64
9, 27720, Note_on_c, 7, 71, 64
9, 27780, Note_on_c, 7, 71, 0
9, 27780, Note_on_c, 7, 67, 0
9, 27780, Note_on_c, 7, 66, 64
9, 27780, Note_on_c, 7, 69, 64
9, 27840, Note_on_c, 7, 69, 0
9, 27840, Note_on_c, 7, 66, 0
9, 27840, Note_on_c, 7, 62, 64
9, 27840, Note_on_c, 7, 67, 64
9, 27960, Note_on_c, 7, 67, 0
9, 27960, Note_on_c, 7, 62, 0
9, 28020, Note_on_c, 7, 60, 64
9, 28020, Note_on_c, 7, 66, 64
9, 28020, Note_on_c, 7, 69, 64
9, 28080, Note_on_c, 7, 69, 0
9, 28080, Note_on_c, 7, 66, 0
9, 28080, Note_on_c, 7, 60, 0
9, 28080, Note_on_c, 7, 59, 64
9, 28080, Note_on_c, 7, 62, 64
9, 28080, Note_on_c, 7, 67, 64
9, 28140, Note_on_c, 7, 67, 0
9, 28140, Note_on_c, 7, 62, 0
9, 28140, Note_on_c, 7, 59, 0
9, 28260, Note_on_c, 7, 64, 64
9, 28260, Note_on_c, 7, 69, 64
9, 28320, Note_on_c, 7, 69, 0
9, 28320, Note_on_c, 7, 64, 0
9, 28320, Note_on_c, 7, 67, 64
9, 28320, Note_on_c, 7, 71, 64
9, 28380, Note_on_c, 7, 71, 0
9, 28380, Note_on_c, 7, 67, 0
9, 28440, Note_on_c, 7, 66, 64
9, 28440, Note_on_c, 7, 69, 64
9, 28500, Note_on_c, 7, 69, 0
9, 28500, Note_on_c, 7, 66, 0
9, 28560, Control_c, 7, 7, 127
9, 28560, Note_on_c, 7, 59, 64
9, 28560, Note_on_c, 7, 62, 64
9, 28560, Note_on_c, 7, 67, 64
9, 28620, Note_on_c, 7, 67, 0
9, 28620, Note_on_c, 7, 62, 0
9, 28620, Note_on_c, 7, 59, 0
9, 28680, Note_on_c, 7, 55, 64
9, 28680, Note_on_c, 7, 62, 64
9, 28740, Note_on_c, 7, 62, 0
9, 28740, Note_on_c, 7, 55, 0
9, 28740, Note_on_c, 7, 57, 64
9, 28740, Note_on_c, 7, 62, 64
9, 28740, Note_on_c, 7, 66, 64
9, 28800, Note_on_c, 7, 66, 0
9, 28800, Note_on_c, 7, 62, 0
9, 28800, Note_on_c, 7, 57, 0
9, 28800, Note_on_c, 7, 55, 64
9, 28800, Note_on_c, 7, 62, 64
9, 28800, Note_on_c, 7, 67, 64
9, 28860, Note_on_c, 7, 67, 0
9, 28860, Note_on_c, 7, 62, 0
9, 28860, Note_on_c, 7, 55, 0
9, 28920, Note_on_c, 7, 60, 64
9, 28920, Note_on_c, 7, 66, 64
9, 28980, Note_on_c, 7, 66, 0
9, 28980, Note_on_c, 7, 60, 0
9, 29040, Note_on_c, 7, 59, 64
9, 29040, Note_on_c, 7, 62, 64
9, 29040, Note_on_c, 7, 67, 64
9, 29100, Note_on_c, 7, 67, 0
9, 29100, Note_on_c, 7, 62, 0
9, 29100, Note_on_c, 7, 59, 0
9, 29160, Note_on_c, 7, 55, 64
9, 29160, Note_on_c, 7, 62, 64
9, 29220, Note_on_c, 7, 62, 0
9, 29220, Note_on_c, 7, 55, 0
9, 29220, Note_on_c, 7, 55, 64
9, 29220, Note_on_c, 7, 64, 64
9, 29280, Note_on_c, 7, 64, 0
9, 29280, Note_on_c, 7, 55, 0
9, 29280, Note_on_c, 7, 55, 64
9, 29280, Note_on_c, 7, 62, 64
9, 29340, Note_on_c, 7, 62, 0
9, 29340, Note_on_c, 7, 55, 0
9, 29340, Note_on_c, 7, 64, 64
9, 29370, Note_on_c, 7, 64, 0
9, 29370, Note_on_c, 7, 62, 64
9, 29400, Note_on_c, 7, 62, 0
9, 29400, Note_on_c, 7, 59, 64
9, 29400, Note_on_c, 7, 60, 64
9, 29460, Note_on_c, 7, 60, 0
9, 29460, Note_on_c, 7, 59, 0
9, 29460, Note_on_c, 7, 57, 64
9, 29460, Note_on_c, 7, 62, 64
9, 29520, Note_on_c, 7, 62, 0
9, 29520, Note_on_c, 7, 57, 0
9, 29520, Note_on_c, 7, 59, 64
9, 29520, Note_on_c, 7, 62, 64
9, 29520, Note_on_c, 7, 67, 64
9, 29580, Note_on_c, 7, 67, 0
9, 29580, Note_on_c, 7, 62, 0
9, 29580, Note_on_c, 7, 59, 0
9, 29640, Note_on_c, 7, 55, 64
9, 29640, Note_on_c, 7, 62, 64
9, 29700, Note_on_c, 7, 62, 0
9, 29700, Note_on_c, 7, 55, 0
9, 29700, Note_on_c, 7, 57, 64
9, 29700, Note_on_c, 7, 62, 64
9, 29700, Note_on_c, 7, 66, 64
9, 29760, Note_on_c, 7, 66, 0
9, 29760, Note_on_c, 7, 62, 0
9, 29760, Note_on_c, 7, 57, 0
9, 29760, Note_on_c, 7, 55, 64
9, 29760, Note_on_c, 7, 62, 64
9, 29760, Note_on_c, 7, 67, 64
9, 29820, Note_on_c, 7, 67, 0
9, 29820, Note_on_c, 7, 62, 0
9, 29820, Note_on_c, 7, 55, 0
9, 29880, Note_on_c, 7, 60, 64
9, 29880, Note_on_c, 7, 66, 64
9, 29940, Note_on_c, 7, 66, 0
9, 29940, Note_on_c, 7, 60, 0
9, 30120, Note_on_c, 7, 71, 64
9, 30120, Note_on_c, 7, 74, 64
9, 30180, Note_on_c, 7, 74, 0
9, 30180, Note_on_c, 7, 71, 0
9, 30180, Note_on_c, 7, 67, 64
9, 30180, Note_on_c, 7, 72, 64
9, 30240, Note_on_c, 7, 72, 0
9, 30240, Note_on_c, 7, 67, 0
9, 30240, Note_on_c, 7, 72, 64
9, 30240, Note_on_c, 7, 76, 64
9, 30300, Note_on_c, 7, 76, 0
9, 30300, Note_on_c, 7, 72, 0
9, 30300, Note_on_c, 7, 66, 64
9, 30300, Note_on_c, 7, 69, 64
9, 30300, Note_on_c, 7, 74, 64
9, 30360, Note_on_c, 7, 74, 0
9, 30360, Note_on_c, 7, 69, 0
9, 30360, Note_on_c, 7, 66, 0
9, 30360, Note_on_c, 7, 67, 64
9, 30360, Note_on_c, 7, 71, 64
9, 30420, Note_on_c, 7, 71, 0
9, 30420, Note_on_c, 7, 67, 0
9, 30420, Note_on_c, 7, 67, 64
9, 30420, Note_on_c, 7, 69, 64
9, 30480, Note_on_c, 7, 69, 0
9, 30480, Note_on_c, 7, 67, 0
9, 30960, Note_on_c, 7, 57, 40
9, 30960, Note_on_c, 7, 62, 40
9, 30960, Note_on_c, 7, 66, 40
9, 31020, Note_on_c, 7, 66, 0
9, 31020, Note_on_c, 7, 62, 0
9, 31020, Note_on_c, 7, 57, 0
9, 31440, Note_on_c, 7, 54, 44
9, 31440, Note_on_c, 7, 57, 44
9, 31440, Note_on_c, 7, 60, 44
9, 31440, Note_on_c, 7, 62, 44
9, 31500, Note_on_c, 7, 62, 0
9, 31500, Note_on_c, 7, 54, 0
9, 31500, Note_on_c, 7, 57, 0
9, 31500, Note_on_c, 7, 60, 0
9, 31740, Note_on_c, 7, 55, 47
9, 31740, Note_on_c, 7, 59, 47
9, 31800, Note_on_c, 7, 59, 0
9, 31800, Note_on_c, 7, 55, 0
9, 31800, Note_on_c, 7, 59, 47
9, 31800, Note_on_c, 7, 62, 47
9, 31860, Note_on_c, 7, 62, 0
9, 31860, Note_on_c, 7, 59, 0
9, 31860, Note_on_c, 7, 62, 48
9, 31860, Note_on_c, 7, 67, 48
9, 31920, Note_on_c, 7, 67, 0
9, 31920, Note_on_c, 7, 62, 0
9, 31920, Note_on_c, 7, 55, 48
9, 31920, Note_on_c, 7, 58, 48
9, 31920, Note_on_c, 7, 61, 48
9, 31980, Note_on_c, 7, 61, 0
9, 31980, Note_on_c, 7, 58, 0
9, 31980, Note_on_c, 7, 55, 0
9, 31980, Note_on_c, 7, 54, 49
9, 31980, Note_on_c, 7, 57, 49
9, 31980, Note_on_c, 7, 62, 49
9, 32010, Note_on_c, 7, 62, 0
9, 32010, Note_on_c, 7, 57, 0
9, 32010, Note_on_c, 7, 54, 0
9, 32220, Note_on_c, 7, 54, 51
9, 32220, Note_on_c, 7, 57, 51
9, 32220, Note_on_c, 7, 60, 51
9, 32280, Note_on_c, 7, 60, 0
9, 32280, Note_on_c, 7, 57, 0
9, 32280, Note_on_c, 7, 54, 0
9, 32280, Note_on_c, 7, 57, 51
9, 32280, Note_on_c, 7, 62, 51
9, 32340, Note_on_c, 7, 62, 0
9, 32340, Note_on_c, 7, 57, 0
9, 32340, Note_on_c, 7, 60, 52
9, 32340, Note_on_c, 7, 66, 52
9, 32400, Note_on_c, 7, 66, 0
9, 32400, Note_on_c, 7, 60, 0
9, 32400, Note_on_c, 7, 59, 52
9, 32400, Note_on_c, 7, 67, 52
9, 32460, Note_on_c, 7, 67, 0
9, 32460, Note_on_c, 7, 59, 0
9, 32460, Note_on_c, 7, 57, 53
9, 32460, Note_on_c, 7, 66, 53
9, 32490, Note_on_c, 7, 66, 0
9, 32490, Note_on_c, 7, 57, 0
9, 32880, Note_on_c, 7, 57, 56
9, 32880, Note_on_c, 7, 66, 56
9, 32940, Note_on_c, 7, 66, 0
9, 32940, Note_on_c, 7, 57, 0
9, 32940, Note_on_c, 7, 58, 57
9, 32940, Note_on_c, 7, 67, 57
9, 32970, Note_on_c, 7, 67, 0
9, 32970, Note_on_c, 7, 58, 0
9, 33480, Note_on_c, 7, 62, 61
9, 33480, Note_on_c, 7, 66, 61
9, 33540, Note_on_c, 7, 66, 0
9, 33540, Note_on_c, 7, 62, 0
9, 33600, Note_on_c, 7, 62, 62
9, 33600, Note_on_c, 7, 69, 62
9, 33660, Note_on_c, 7, 69, 0
9, 33660, Note_on_c, 7, 62, 0
9, 33720, Note_on_c, 7, 66, 63
9, 33720, Note_on_c, 7, 74, 63
9, 33780, Note_on_c, 7, 74, 0
9, 33780, Note_on_c, 7, 66, 0
9, 33840, Note_on_c, 7, 72, 64
9, 33840, Note_on_c, 7, 78, 64
9, 33900, Note_on_c, 7, 78, 0
9, 33900, Note_on_c, 7, 72, 0
9, 33960, Note_on_c, 7, 66, 65
9, 33960, Note_on_c, 7, 74, 65
9, 34020, Note_on_c, 7, 74, 0
9, 34020, Note_on_c, 7, 66, 0
9, 34080, Note_on_c, 7, 69, 66
9, 34080, Note_on_c, 7, 74, 66
9, 34140, Note_on_c, 7, 74, 0
9, 34140, Note_on_c, 7, 69, 0
9, 34200, Note_on_c, 7, 62, 67
9, 34200, Note_on_c, 7, 66, 67
9, 34260, Note_on_c, 7, 66, 0
9, 34260, Note_on_c, 7, 62, 0
9, 34320, Note_on_c, 7, 62, 68
9, 34320, Note_on_c, 7, 69, 68
9, 34380, Note_on_c, 7, 69, 0
9, 34380, Note_on_c, 7, 62, 0
9, 34440, Note_on_c, 7, 62, 69
9, 34440, Note_on_c, 7, 67, 69
9, 34500, Note_on_c, 7, 67, 0
9, 34500, Note_on_c, 7, 62, 0
9, 34560, Note_on_c, 7, 59, 70
9, 34560, Note_on_c, 7, 62, 70
9, 34620, Note_on_c, 7, 62, 0
9, 34620, Note_on_c, 7, 59, 0
9, 34680, Note_on_c, 7, 59, 70
9, 34680, Note_on_c, 7, 62, 70
9, 34740, Note_on_c, 7, 62, 0
9, 34740, Note_on_c, 7, 59, 0
9, 34800, Note_on_c, 7, 59, 71
9, 34800, Note_on_c, 7, 62, 71
9, 34860, Note_on_c, 7, 62, 0
9, 34860, Note_on_c, 7, 59, 0
9, 34920, Note_on_c, 7, 57, 72
9, 34920, Note_on_c, 7, 60, 72
9, 34980, Note_on_c, 7, 60, 0
9, 34980, Note_on_c, 7, 57, 0
9, 35040, Note_on_c, 7, 60, 73
9, 35040, Note_on_c, 7, 62, 73
9, 35100, Note_on_c, 7, 62, 0
9, 35100, Note_on_c, 7, 60, 0
9, 35160, Note_on_c, 7, 54, 74
9, 35160, Note_on_c, 7, 60, 74
9, 35220, Note_on_c, 7, 60, 0
9, 35220, Note_on_c, 7, 54, 0
9, 35280, Note_on_c, 7, 55, 75
9, 35280, Note_on_c, 7, 59, 75
9, 35340, Note_on_c, 7, 59, 0
9, 35340, Note_on_c, 7, 55, 0
9, 35340, Note_on_c, 7, 62, 75
9, 35340, Note_on_c, 7, 67, 75
9, 35400, Note_on_c, 7, 67, 0
9, 35400, Note_on_c, 7, 62, 0
9, 35400, Note_on_c, 7, 67, 75
9, 35400, Note_on_c, 7, 71, 75
9, 35460, Note_on_c, 7, 71, 0
9, 35460, Note_on_c, 7, 67, 0
9, 35460, Note_on_c, 7, 66, 75
9, 35460, Note_on_c, 7, 69, 75
9, 35520, Note_on_c, 7, 69, 0
9, 35520, Note_on_c, 7, 66, 0
9, 35520, Note_on_c, 7, 59, 75
9, 35520, Note_on_c, 7, 62, 75
9, 35520, Note_on_c, 7, 67, 75
9, 35640, Note_on_c, 7, 67, 0
9, 35640, Note_on_c, 7, 62, 0
9, 35640, Note_on_c, 7, 59, 0
9, 35700, Note_on_c, 7, 63, 40
9, 35700, Note_on_c, 7, 69, 40
9, 35760, Note_on_c, 7, 69, 0
9, 35760, Note_on_c, 7, 63, 0
9, 35760, Control_c, 7, 7, 90
9, 35760, Note_on_c, 7, 64, 64
9, 35760, Note_on_c, 7, 67, 64
9, 35820, Note_on_c, 7, 67, 0
9, 35820, Note_on_c, 7, 64, 0
9, 35880, Note_on_c, 7, 63, 64
9, 35880, Note_on_c, 7, 66, 64
9, 35940, Note_on_c, 7, 66, 0
9, 35940, Note_on_c, 7, 63, 0
9, 36000, Note_on_c, 7, 69, 64
9, 36000, Note_on_c, 7, 72, 64
9, 36060, Note_on_c, 7, 72, 0
9, 36060, Note_on_c, 7, 69, 0
9, 36120, Note_on_c, 7, 67, 64
9, 36120, Note_on_c, 7, 71, 64
9, 36180, Note_on_c, 7, 71, 0
9, 36180, Note_on_c, 7, 67, 0
9, 36240, Note_on_c, 7, 66, 64
9, 36240, Note_on_c, 7, 69, 64
9, 36300, Note_on_c, 7, 69, 0
9, 36300, Note_on_c, 7, 66, 0
9, 36360, Note_on_c, 7, 64, 64
9, 36360, Note_on_c, 7, 67, 64
9, 36420, Note_on_c, 7, 67, 0
9, 36420, Note_on_c, 7, 64, 0
9, 36480, Note_on_c, 7, 64, 64
9, 36480, Note_on_c, 7, 67, 64
9, 36600, Note_on_c, 7, 67, 0
9, 36600, Note_on_c, 7, 64, 0
9, 36600, Note_on_c, 7, 63, 64
9, 36600, Note_on_c, 7, 66, 64
9, 36660, Note_on_c, 7, 66, 0
9, 36660, Note_on_c, 7, 63, 0
9, 36720, Note_on_c, 7, 64, 64
9, 36720, Note_on_c, 7, 71, 64
9, 36840, Note_on_c, 7, 71, 0
9, 36840, Note_on_c, 7, 64, 0
9, 36840, Note_on_c, 7, 69, 64
9, 36840, Note_on_c, 7, 75, 64
9, 36900, Note_on_c, 7, 75, 0
9, 36900, Note_on_c, 7, 69, 0
9, 36900, Note_on_c, 7, 67, 64
9, 36900, Note_on_c, 7, 76, 64
9, 36960, Note_on_c, 7, 76, 0
9, 36960, Note_on_c, 7, 67, 0
9, 36960, Note_on_c, 7, 69, 64
9, 36960, Note_on_c, 7, 71, 64
9, 36960, Note_on_c, 7, 78, 64
9, 37200, Note_on_c, 7, 78, 0
9, 37200, Note_on_c, 7, 71, 0
9, 37200, Note_on_c, 7, 69, 0
9, 37200, Note_on_c, 7, 67, 64
9, 37200, Note_on_c, 7, 71, 64
9, 37200, Note_on_c, 7, 76, 64
9, 37260, Note_on_c, 7, 71, 0
9, 37260, Note_on_c, 7, 67, 0
9, 37260, Note_on_c, 7, 64, 64
9, 37260, Note_on_c, 7, 69, 64
9, 37260, Note_on_c, 7, 72, 64
9, 37320, Note_on_c, 7, 72, 0
9, 37320, Note_on_c, 7, 76, 0
9, 37320, Note_on_c, 7, 64, 0
9, 37320, Note_on_c, 7, 69, 0
9, 37320, Note_on_c, 7, 68, 64
9, 37320, Note_on_c, 7, 71, 64
9, 37320, Note_on_c, 7, 76, 64
9, 37380, Note_on_c, 7, 76, 0
9, 37380, Note_on_c, 7, 71, 0
9, 37380, Note_on_c, 7, 68, 0
9, 37380, Note_on_c, 7, 69, 64
9, 37380, Note_on_c, 7, 74, 64
9, 37380, Note_on_c, 7, 77, 64
9, 37440, Note_on_c, 7, 77, 0
9, 37440, Note_on_c, 7, 74, 0
9, 37440, Note_on_c, 7, 69, 0
9, 37440, Note_on_c, 7, 62, 64
9, 37440, Note_on_c, 7, 71, 64
9, 37440, Note_on_c, 7, 76, 64
9, 37560, Note_on_c, 7, 71, 0
9, 37560, Note_on_c, 7, 62, 0
9, 37560, Note_on_c, 7, 69, 64
9, 37620, Note_on_c, 7, 69, 0
9, 37620, Note_on_c, 7, 76, 0
9, 37620, Note_on_c, 7, 68, 64
9, 37680, Note_on_c, 7, 68, 0
9, 37680, Note_on_c, 7, 69, 64
9, 37680, Note_on_c, 7, 72, 64
9, 37740, Note_on_c, 7, 72, 0
9, 37740, Note_on_c, 7, 69, 0
9, 37800, Note_on_c, 7, 67, 64
9, 37800, Note_on_c, 7, 71, 64
9, 37860, Note_on_c, 7, 71, 0
9, 37860, Note_on_c, 7, 67, 0
9, 37920, Note_on_c, 7, 63, 64
9, 37920, Note_on_c, 7, 69, 64
9, 37980, Note_on_c, 7, 69, 0
9, 37980, Note_on_c, 7, 63, 0
9, 38040, Note_on_c, 7, 59, 64
9, 38040, Note_on_c, 7, 69, 64
9, 38100, Note_on_c, 7, 69, 0
9, 38100, Note_on_c, 7, 59, 0
9, 38160, Note_on_c, 7, 59, 64
9, 38160, Note_on_c, 7, 67, 64
9, 38220, Note_on_c, 7, 67, 0
9, 38220, Note_on_c, 7, 59, 0
9, 38220, Note_on_c, 7, 64, 64
9, 38220, Note_on_c, 7, 71, 64
9, 38280, Note_on_c, 7, 71, 0
9, 38280, Note_on_c, 7, 64, 0
9, 38280, Note_on_c, 7, 64, 64
9, 38280, Note_on_c, 7, 67, 64
9, 38340, Note_on_c, 7, 67, 0
9, 38340, Note_on_c, 7, 64, 0
9, 38340, Note_on_c, 7, 63, 64
9, 38340, Note_on_c, 7, 66, 64
9, 38400, Note_on_c, 7, 66, 0
9, 38400, Note_on_c, 7, 63, 0
9, 38400, Note_on_c, 7, 55, 64
9, 38400, Note_on_c, 7, 59, 64
9, 38400, Note_on_c, 7, 64, 64
9, 38520, Note_on_c, 7, 64, 0
9, 38520, Note_on_c, 7, 59, 0
9, 38520, Note_on_c, 7, 55, 0
9, 38551, Control_c, 7, 7, 127
9, 38640, Note_on_c, 7, 64, 64
9, 38640, Note_on_c, 7, 68, 64
9, 38640, Note_on_c, 7, 71, 64
9, 38640, Note_on_c, 7, 74, 64
9, 38760, Note_on_c, 7, 74, 0
9, 38760, Note_on_c, 7, 64, 0
9, 38760, Note_on_c, 7, 68, 0
9, 38760, Note_on_c, 7, 71, 0
9, 39120, Note_on_c, 7, 62, 64
9, 39120, Note_on_c, 7, 64, 64
9, 39120, Note_on_c, 7, 68, 64
9, 39120, Note_on_c, 7, 71, 64
9, 39240, Note_on_c, 7, 71, 0
9, 39240, Note_on_c, 7, 62, 0
9, 39240, Note_on_c, 7, 64, 0
9, 39240, Note_on_c, 7, 68, 0
9, 39480, Note_on_c, 7, 64, 64
9, 39480, Note_on_c, 7, 69, 64
9, 39480, Note_on_c, 7, 72, 64
9, 39540, Note_on_c, 7, 72, 0
9, 39540, Note_on_c, 7, 69, 0
9, 39540, Note_on_c, 7, 64, 0
9, 39600, Note_on_c, 7, 63, 64
9, 39600, Note_on_c, 7, 69, 64
9, 39660, Note_on_c, 7, 69, 0
9, 39660, Note_on_c, 7, 63, 0
9, 39660, Note_on_c, 7, 64, 64
9, 39660, Note_on_c, 7, 67, 64
9, 39720, Note_on_c, 7, 67, 0
9, 39720, Note_on_c, 7, 64, 0
9, 39720, Note_on_c, 7, 59, 64
9, 39720, Note_on_c, 7, 64, 64
9, 39780, Note_on_c, 7, 59, 0
9, 39780, Note_on_c, 7, 55, 64
9, 39840, Note_on_c, 7, 55, 0
9, 39840, Note_on_c, 7, 64, 0
9, 39840, Note_on_c, 7, 58, 64
9, 39840, Note_on_c, 7, 61, 64
9, 39840, Note_on_c, 7, 64, 64
9, 39960, Note_on_c, 7, 64, 0
9, 39960, Note_on_c, 7, 61, 0
9, 39960, Note_on_c, 7, 58, 0
9, 39960, Note_on_c, 7, 59, 64
9, 39960, Note_on_c, 7, 63, 64
9, 40020, Note_on_c, 7, 63, 0
9, 40020, Note_on_c, 7, 59, 0
9, 40020, Note_on_c, 7, 57, 64
9, 40020, Note_on_c, 7, 63, 64
9, 40020, Note_on_c, 7, 66, 64
9, 40080, Note_on_c, 7, 66, 0
9, 40080, Note_on_c, 7, 63, 0
9, 40080, Note_on_c, 7, 57, 0
9, 40080, Note_on_c, 7, 55, 64
9, 40080, Note_on_c, 7, 59, 64
9, 40080, Note_on_c, 7, 64, 64
9, 40200, Note_on_c, 7, 64, 0
9, 40200, Note_on_c, 7, 59, 0
9, 40200, Note_on_c, 7, 55, 0
9, 40200, Note_on_c, 7, 64, 64
9, 40200, Note_on_c, 7, 67, 64
9, 40260, Note_on_c, 7, 67, 0
9, 40260, Note_on_c, 7, 64, 0
9, 40260, Note_on_c, 7, 63, 64
9, 40260, Note_on_c, 7, 66, 64
9, 40320, Note_on_c, 7, 66, 0
9, 40320, Note_on_c, 7, 63, 0
9, 40320, Note_on_c, 7, 55, 64
9, 40320, Note_on_c, 7, 59, 64
9, 40320, Note_on_c, 7, 64, 64
9, 40440, Note_on_c, 7, 64, 0
9, 40440, Note_on_c, 7, 59, 0
9, 40440, Note_on_c, 7, 55, 0
9, 40560, Control_c, 7, 7, 90
9, 40560, Note_on_c, 7, 64, 64
9, 40560, Note_on_c, 7, 67, 64
9, 40560, Note_on_c, 7, 71, 64
9, 40620, Note_on_c, 7, 71, 0
9, 40620, Note_on_c, 7, 67, 0
9, 40620, Note_on_c, 7, 64, 0
9, 40740, Note_on_c, 7, 64, 64
9, 40740, Note_on_c, 7, 67, 64
9, 40800, Note_on_c, 7, 67, 0
9, 40800, Note_on_c, 7, 64, 0
9, 40800, Note_on_c, 7, 59, 64
9, 40800, Note_on_c, 7, 62, 64
9, 40800, Note_on_c, 7, 66, 64
9, 40860, Note_on_c, 7, 66, 0
9, 40860, Note_on_c, 7, 62, 0
9, 40860, Note_on_c, 7, 59, 0
9, 40980, Note_on_c, 7, 59, 64
9, 40980, Note_on_c, 7, 62, 64
9, 41040, Note_on_c, 7, 62, 0
9, 41040, Note_on_c, 7, 59, 0
9, 41040, Note_on_c, 7, 59, 64
9, 41040, Note_on_c, 7, 62, 64
9, 41100, Note_on_c, 7, 62, 0
9, 41100, Note_on_c, 7, 59, 0
9, 41160, Note_on_c, 7, 61, 64
9, 41160, Note_on_c, 7, 64, 64
9, 41160, Note_on_c, 7, 67, 64
9, 41220, Note_on_c, 7, 67, 0
9, 41220, Note_on_c, 7, 64, 0
9, 41220, Note_on_c, 7, 61, 0
9, 41280, Note_on_c, 7, 64, 64
9, 41280, Note_on_c, 7, 67, 64
9, 41400, Note_on_c, 7, 67, 0
9, 41400, Note_on_c, 7, 64, 0
9, 41400, Note_on_c, 7, 62, 64
9, 41400, Note_on_c, 7, 66, 64
9, 41460, Note_on_c, 7, 66, 0
9, 41460, Note_on_c, 7, 62, 0
9, 41520, Note_on_c, 7, 62, 64
9, 41520, Note_on_c, 7, 66, 64
9, 41520, Note_on_c, 7, 71, 64
9, 41580, Note_on_c, 7, 71, 0
9, 41580, Note_on_c, 7, 66, 0
9, 41580, Note_on_c, 7, 62, 0
9, 41640, Note_on_c, 7, 66, 64
9, 41640, Note_on_c, 7, 70, 64
9, 41700, Note_on_c, 7, 70, 0
9, 41700, Note_on_c, 7, 66, 0
9, 41760, Note_on_c, 7, 66, 64
9, 41760, Note_on_c, 7, 76, 64
9, 42000, Note_on_c, 7, 76, 0
9, 42000, Note_on_c, 7, 66, 0
9, 42000, Note_on_c, 7, 66, 64
9, 42000, Note_on_c, 7, 75, 64
9, 42060, Note_on_c, 7, 75, 0
9, 42060, Note_on_c, 7, 66, 0
9, 42060, Note_on_c, 7, 64, 64
9, 42060, Note_on_c, 7, 71, 64
9, 42120, Note_on_c, 7, 71, 0
9, 42120, Note_on_c, 7, 64, 0
9, 42120, Note_on_c, 7, 63, 64
9, 42120, Note_on_c, 7, 69, 64
9, 42180, Note_on_c, 7, 69, 0
9, 42180, Note_on_c, 7, 63, 0
9, 42180, Note_on_c, 7, 64, 64
9, 42180, Note_on_c, 7, 67, 64
9, 42240, Note_on_c, 7, 67, 0
9, 42240, Note_on_c, 7, 64, 0
9, 42240, Note_on_c, 7, 60, 64
9, 42240, Note_on_c, 7, 66, 64
9, 42300, Note_on_c, 7, 66, 0
9, 42300, Note_on_c, 7, 60, 0
9, 42300, Note_on_c, 7, 59, 64
9, 42300, Note_on_c, 7, 66, 64
9, 42480, Note_on_c, 7, 66, 0
9, 42480, Note_on_c, 7, 59, 0
9, 42480, Note_on_c, 7, 64, 64
9, 42480, Note_on_c, 7, 67, 64
9, 42540, Note_on_c, 7, 67, 0
9, 42540, Note_on_c, 7, 64, 0
9, 42660, Note_on_c, 7, 61, 64
9, 42660, Note_on_c, 7, 64, 64
9, 42720, Note_on_c, 7, 64, 0
9, 42720, Note_on_c, 7, 61, 0
9, 42720, Note_on_c, 7, 58, 64
9, 42720, Note_on_c, 7, 61, 64
9, 42780, Note_on_c, 7, 61, 0
9, 42780, Note_on_c, 7, 58, 0
9, 42900, Note_on_c, 7, 58, 64
9, 42900, Note_on_c, 7, 66, 64
9, 42960, Note_on_c, 7, 58, 0
9, 42960, Note_on_c, 7, 59, 64
9, 43080, Note_on_c, 7, 59, 0
9, 43080, Note_on_c, 7, 66, 0
9, 43080, Note_on_c, 7, 59, 64
9, 43080, Note_on_c, 7, 62, 64
9, 43140, Note_on_c, 7, 62, 0
9, 43140, Note_on_c, 7, 59, 0
9, 43140, Note_on_c, 7, 58, 64
9, 43140, Note_on_c, 7, 61, 64
9, 43200, Note_on_c, 7, 61, 0
9, 43200, Note_on_c, 7, 58, 0
9, 43200, Note_on_c, 7, 54, 64
9, 43200, Note_on_c, 7, 59, 64
9, 43320, Note_on_c, 7, 59, 0
9, 43320, Note_on_c, 7, 54, 0
9, 43380, Note_on_c, 7, 67, 64
9, 43380, Note_on_c, 7, 71, 64
9, 43440, Note_on_c, 7, 71, 0
9, 43440, Note_on_c, 7, 67, 0
9, 43440, Note_on_c, 7, 61, 64
9, 43440, Note_on_c, 7, 66, 64
9, 43440, Note_on_c, 7, 70, 64
9, 43560, Note_on_c, 7, 70, 0
9, 43560, Note_on_c, 7, 66, 0
9, 43560, Note_on_c, 7, 61, 0
9, 43920, Note_on_c, 7, 58, 64
9, 43920, Note_on_c, 7, 61, 64
9, 43920, Note_on_c, 7, 66, 64
9, 44040, Note_on_c, 7, 66, 0
9, 44040, Note_on_c, 7, 61, 0
9, 44040, Note_on_c, 7, 58, 0
9, 44520, Note_on_c, 7, 66, 64
9, 44520, Note_on_c, 7, 71, 64
9, 44580, Note_on_c, 7, 71, 0
9, 44580, Note_on_c, 7, 70, 64
9, 44580, Note_on_c, 7, 73, 64
9, 44640, Note_on_c, 7, 73, 0
9, 44640, Note_on_c, 7, 70, 0
9, 44640, Note_on_c, 7, 71, 64
9, 44640, Note_on_c, 7, 74, 64
9, 44760, Note_on_c, 7, 74, 0
9, 44760, Note_on_c, 7, 71, 0
9, 44760, Note_on_c, 7, 66, 0
9, 44760, Note_on_c, 7, 66, 64
9, 44760, Note_on_c, 7, 71, 64
9, 44820, Note_on_c, 7, 66, 0
9, 44820, Note_on_c, 7, 65, 64
9, 44880, Note_on_c, 7, 65, 0
9, 44880, Note_on_c, 7, 71, 0
9, 44880, Note_on_c, 7, 64, 64
9, 44880, Note_on_c, 7, 71, 64
9, 45000, Note_on_c, 7, 71, 0
9, 45000, Note_on_c, 7, 64, 0
9, 45000, Note_on_c, 7, 67, 64
9, 45000, Note_on_c, 7, 73, 64
9, 45060, Note_on_c, 7, 73, 0
9, 45060, Note_on_c, 7, 67, 0
9, 45060, Note_on_c, 7, 64, 64
9, 45060, Note_on_c, 7, 71, 64
9, 45120, Note_on_c, 7, 71, 0
9, 45120, Note_on_c, 7, 64, 0
9, 45120, Note_on_c, 7, 61, 64
9, 45120, Note_on_c, 7, 66, 64
9, 45120, Note_on_c, 7, 70, 64
9, 45180, Note_on_c, 7, 70, 0
9, 45180, Note_on_c, 7, 66, 0
9, 45180, Note_on_c, 7, 61, 0
9, 45240, Note_on_c, 7, 62, 64
9, 45240, Note_on_c, 7, 68, 64
9, 45240, Note_on_c, 7, 71, 64
9, 45300, Note_on_c, 7, 71, 0
9, 45300, Note_on_c, 7, 68, 0
9, 45300, Note_on_c, 7, 62, 0
9, 45360, Note_on_c, 7, 62, 64
9, 45360, Note_on_c, 7, 66, 64
9, 45360, Note_on_c, 7, 71, 64
9, 45420, Note_on_c, 7, 71, 0
9, 45420, Note_on_c, 7, 66, 0
9, 45420, Note_on_c, 7, 62, 0
9, 45480, Note_on_c, 7, 61, 64
9, 45480, Note_on_c, 7, 66, 64
9, 45480, Note_on_c, 7, 70, 64
9, 45540, Note_on_c, 7, 70, 0
9, 45540, Note_on_c, 7, 66, 0
9, 45540, Note_on_c, 7, 61, 0
9, 45600, Note_on_c, 7, 62, 64
9, 45600, Note_on_c, 7, 66, 64
9, 45600, Note_on_c, 7, 71, 64
9, 45720, Note_on_c, 7, 71, 0
9, 45720, Note_on_c, 7, 66, 0
9, 45720, Note_on_c, 7, 62, 0
9, 45840, End_track
10, 0, Start_track
10, 0, MIDI_port, 0
10, 0, Title_t, "Harpsichord lh"
10, 0, Program_c, 8, 6
10, 196, Control_c, 8, 11, 84
10, 240, Note_on_c, 8, 43, 40
10, 270, Note_on_c, 8, 43, 0
10, 300, Note_on_c, 8, 45, 40
10, 330, Note_on_c, 8, 45, 0
10, 360, Note_on_c, 8, 47, 40
10, 390, Note_on_c, 8, 47, 0
10, 420, Note_on_c, 8, 48, 40
10, 450, Note_on_c, 8, 48, 0
10, 480, Note_on_c, 8, 47, 40
10, 510, Note_on_c, 8, 47, 0
10, 540, Note_on_c, 8, 55, 40
10, 570, Note_on_c, 8, 55, 0
10, 600, Note_on_c, 8, 45, 40
10, 630, Note_on_c, 8, 45, 0
10, 660, Note_on_c, 8, 54, 40
10, 690, Note_on_c, 8, 54, 0
10, 720, Note_on_c, 8, 43, 40
10, 750, Note_on_c, 8, 43, 0
10, 780, Note_on_c, 8, 45, 40
10, 810, Note_on_c, 8, 45, 0
10, 840, Note_on_c, 8, 47, 40
10, 870, Note_on_c, 8, 47, 0
10, 900, Note_on_c, 8, 48, 40
10, 930, Note_on_c, 8, 48, 0
10, 960, Note_on_c, 8, 47, 40
10, 990, Note_on_c, 8, 47, 0
10, 1020, Note_on_c, 8, 55, 40
10, 1050, Note_on_c, 8, 55, 0
10, 1080, Note_on_c, 8, 45, 40
10, 1110, Note_on_c, 8, 45, 0
10, 1140, Note_on_c, 8, 54, 40
10, 1170, Note_on_c, 8, 54, 0
10, 1200, Note_on_c, 8, 43, 40
10, 1230, Note_on_c, 8, 43, 0
10, 1260, Note_on_c, 8, 45, 40
10, 1290, Note_on_c, 8, 45, 0
10, 1320, Note_on_c, 8, 47, 40
10, 1350, Note_on_c, 8, 47, 0
10, 1380, Note_on_c, 8, 48, 40
10, 1410, Note_on_c, 8, 48, 0
10, 1440, Note_on_c, 8, 47, 40
10, 1470, Note_on_c, 8, 47, 0
10, 1500, Note_on_c, 8, 55, 40
10, 1530, Note_on_c, 8, 55, 0
10, 1560, Note_on_c, 8, 45, 40
10, 1590, Note_on_c, 8, 45, 0
10, 1620, Note_on_c, 8, 54, 40
10, 1650, Note_on_c, 8, 54, 0
10, 1680, Note_on_c, 8, 43, 40
10, 1740, Note_on_c, 8, 43, 0
10, 2190, Note_on_c, 8, 45, 40
10, 2220, Note_on_c, 8, 45, 0
10, 2220, Note_on_c, 8, 47, 40
10, 2250, Note_on_c, 8, 47, 0
10, 2250, Note_on_c, 8, 49, 40
10, 2280, Note_on_c, 8, 49, 0
10, 2280, Note_on_c, 8, 50, 40
10, 2310, Note_on_c, 8, 50, 0
10, 2340, Note_on_c, 8, 59, 40
10, 2370, Note_on_c, 8, 59, 0
10, 2400, Note_on_c, 8, 49, 40
10, 2430, Note_on_c, 8, 49, 0
10, 2460, Note_on_c, 8, 57, 40
10, 2490, Note_on_c, 8, 57, 0
10, 2520, Note_on_c, 8, 47, 40
10, 2550, Note_on_c, 8, 47, 0
10, 2580, Note_on_c, 8, 55, 40
10, 2610, Note_on_c, 8, 55, 0
10, 3120, Note_on_c, 8, 57, 35
10, 3180, Note_on_c, 8, 57, 0
10, 3180, Note_on_c, 8, 45, 35
10, 3210, Note_on_c, 8, 45, 0
10, 3600, Note_on_c, 8, 57, 38
10, 3630, Note_on_c, 8, 57, 0
10, 3660, Note_on_c, 8, 45, 39
10, 3690, Note_on_c, 8, 45, 0
10, 3900, Note_on_c, 8, 45, 40
10, 3930, Note_on_c, 8, 45, 0
10, 3960, Note_on_c, 8, 50, 41
10, 3990, Note_on_c, 8, 50, 0
10, 4020, Note_on_c, 8, 54, 41
10, 4050, Note_on_c, 8, 54, 0
10, 4080, Note_on_c, 8, 57, 42
10, 4110, Note_on_c, 8, 57, 0
10, 4140, Note_on_c, 8, 45, 42
10, 4170, Note_on_c, 8, 45, 0
10, 4380, Note_on_c, 8, 45, 44
10, 4410, Note_on_c, 8, 45, 0
10, 4440, Note_on_c, 8, 49, 44
10, 4470, Note_on_c, 8, 49, 0
10, 4500, Note_on_c, 8, 52, 45
10, 4530, Note_on_c, 8, 52, 0
10, 4560, Note_on_c, 8, 57, 45
10, 4590, Note_on_c, 8, 57, 0
10, 4620, Note_on_c, 8, 45, 45
10, 4650, Note_on_c, 8, 45, 0
10, 5040, Note_on_c, 8, 57, 48
10, 5070, Note_on_c, 8, 57, 0
10, 5100, Note_on_c, 8, 45, 49
10, 5130, Note_on_c, 8, 45, 0
10, 5580, Note_on_c, 8, 57, 50
10, 5610, Note_on_c, 8, 57, 0
10, 5640, Note_on_c, 8, 52, 50
10, 5670, Note_on_c, 8, 52, 0
10, 5700, Note_on_c, 8, 57, 50
10, 5730, Note_on_c, 8, 57, 0
10, 5760, Note_on_c, 8, 49, 50
10, 5790, Note_on_c, 8, 49, 0
10, 5820, Note_on_c, 8, 52, 50
10, 5850, Note_on_c, 8, 52, 0
10, 5880, Note_on_c, 8, 45, 50
10, 5910, Note_on_c, 8, 45, 0
10, 5940, Note_on_c, 8, 49, 50
10, 5970, Note_on_c, 8, 49, 0
10, 6000, Note_on_c, 8, 43, 69
10, 6030, Note_on_c, 8, 43, 0
10, 6060, Note_on_c, 8, 57, 51
10, 6090, Note_on_c, 8, 57, 0
10, 6120, Note_on_c, 8, 52, 51
10, 6150, Note_on_c, 8, 52, 0
10, 6180, Note_on_c, 8, 55, 52
10, 6210, Note_on_c, 8, 55, 0
10, 6240, Note_on_c, 8, 49, 52
10, 6270, Note_on_c, 8, 49, 0
10, 6300, Note_on_c, 8, 52, 53
10, 6330, Note_on_c, 8, 52, 0
10, 6360, Note_on_c, 8, 45, 54
10, 6390, Note_on_c, 8, 45, 0
10, 6420, Note_on_c, 8, 49, 54
10, 6450, Note_on_c, 8, 49, 0
10, 6480, Note_on_c, 8, 42, 74
10, 6510, Note_on_c, 8, 42, 0
10, 6540, Note_on_c, 8, 57, 55
10, 6570, Note_on_c, 8, 57, 0
10, 6600, Note_on_c, 8, 54, 56
10, 6630, Note_on_c, 8, 54, 0
10, 6660, Note_on_c, 8, 57, 56
10, 6690, Note_on_c, 8, 57, 0
10, 6720, Note_on_c, 8, 50, 57
10, 6750, Note_on_c, 8, 50, 0
10, 6780, Note_on_c, 8, 54, 58
10, 6810, Note_on_c, 8, 54, 0
10, 6840, Note_on_c, 8, 47, 58
10, 6870, Note_on_c, 8, 47, 0
10, 6900, Note_on_c, 8, 50, 59
10, 6930, Note_on_c, 8, 50, 0
10, 6960, Note_on_c, 8, 40, 78
10, 6990, Note_on_c, 8, 40, 0
10, 7020, Note_on_c, 8, 55, 60
10, 7050, Note_on_c, 8, 55, 0
10, 7080, Note_on_c, 8, 52, 61
10, 7110, Note_on_c, 8, 52, 0
10, 7140, Note_on_c, 8, 55, 61
10, 7170, Note_on_c, 8, 55, 0
10, 7200, Note_on_c, 8, 49, 62
10, 7230, Note_on_c, 8, 49, 0
10, 7260, Note_on_c, 8, 52, 62
10, 7290, Note_on_c, 8, 52, 0
10, 7320, Note_on_c, 8, 45, 63
10, 7350, Note_on_c, 8, 45, 0
10, 7380, Note_on_c, 8, 49, 63
10, 7410, Note_on_c, 8, 49, 0
10, 7440, Note_on_c, 8, 38, 83
10, 7470, Note_on_c, 8, 38, 0
10, 7500, Note_on_c, 8, 54, 64
10, 7530, Note_on_c, 8, 54, 0
10, 7560, Note_on_c, 8, 57, 64
10, 7590, Note_on_c, 8, 57, 0
10, 7620, Note_on_c, 8, 45, 64
10, 7650, Note_on_c, 8, 45, 0
10, 7680, Note_on_c, 8, 50, 64
10, 7710, Note_on_c, 8, 50, 0
10, 7740, Note_on_c, 8, 48, 64
10, 7770, Note_on_c, 8, 48, 0
10, 7800, Note_on_c, 8, 47, 52
10, 7830, Note_on_c, 8, 47, 0
10, 7860, Note_on_c, 8, 45, 40
10, 7890, Note_on_c, 8, 45, 0
10, 7920, Control_c, 8, 7, 90
10, 7920, Note_on_c, 8, 43, 64
10, 7950, Note_on_c, 8, 43, 0
10, 7980, Note_on_c, 8, 45, 64
10, 8010, Note_on_c, 8, 45, 0
10, 8040, Note_on_c, 8, 47, 64
10, 8070, Note_on_c, 8, 47, 0
10, 8100, Note_on_c, 8, 48, 64
10, 8130, Note_on_c, 8, 48, 0
10, 8160, Note_on_c, 8, 47, 64
10, 8190, Note_on_c, 8, 47, 0
10, 8220, Note_on_c, 8, 55, 64
10, 8250, Note_on_c, 8, 55, 0
10, 8280, Note_on_c, 8, 45, 64
10, 8310, Note_on_c, 8, 45, 0
10, 8340, Note_on_c, 8, 54, 64
10, 8370, Note_on_c, 8, 54, 0
10, 8400, Note_on_c, 8, 43, 64
10, 8430, Note_on_c, 8, 43, 0
10, 8460, Note_on_c, 8, 45, 64
10, 8490, Note_on_c, 8, 45, 0
10, 8520, Note_on_c, 8, 47, 64
10, 8550, Note_on_c, 8, 47, 0
10, 8580, Note_on_c, 8, 48, 64
10, 8610, Note_on_c, 8, 48, 0
10, 8640, Note_on_c, 8, 47, 64
10, 8670, Note_on_c, 8, 47, 0
10, 8700, Note_on_c, 8, 55, 64
10, 8730, Note_on_c, 8, 55, 0
10, 8760, Note_on_c, 8, 45, 64
10, 8790, Note_on_c, 8, 45, 0
10, 8820, Note_on_c, 8, 54, 64
10, 8850, Note_on_c, 8, 54, 0
10, 8880, Note_on_c, 8, 43, 64
10, 8910, Note_on_c, 8, 43, 0
10, 8940, Note_on_c, 8, 45, 64
10, 8970, Note_on_c, 8, 45, 0
10, 9000, Note_on_c, 8, 47, 64
10, 9030, Note_on_c, 8, 47, 0
10, 9060, Note_on_c, 8, 48, 64
10, 9090, Note_on_c, 8, 48, 0
10, 9120, Note_on_c, 8, 47, 64
10, 9150, Note_on_c, 8, 47, 0
10, 9180, Note_on_c, 8, 55, 64
10, 9210, Note_on_c, 8, 55, 0
10, 9240, Note_on_c, 8, 45, 64
10, 9270, Note_on_c, 8, 45, 0
10, 9300, Note_on_c, 8, 54, 64
10, 9330, Note_on_c, 8, 54, 0
10, 9360, Note_on_c, 8, 43, 64
10, 9390, Note_on_c, 8, 43, 0
10, 9420, Note_on_c, 8, 55, 64
10, 9450, Note_on_c, 8, 55, 0
10, 9480, Note_on_c, 8, 47, 64
10, 9510, Note_on_c, 8, 47, 0
10, 9540, Note_on_c, 8, 48, 64
10, 9570, Note_on_c, 8, 48, 0
10, 9600, Note_on_c, 8, 43, 64
10, 9630, Note_on_c, 8, 43, 0
10, 9660, Note_on_c, 8, 42, 64
10, 9690, Note_on_c, 8, 42, 0
10, 9720, Note_on_c, 8, 43, 64
10, 9750, Note_on_c, 8, 43, 0
10, 9780, Note_on_c, 8, 40, 64
10, 9810, Note_on_c, 8, 40, 0
10, 9840, Note_on_c, 8, 45, 64
10, 9870, Note_on_c, 8, 45, 0
10, 9900, Note_on_c, 8, 60, 64
10, 9930, Note_on_c, 8, 60, 0
10, 9930, Note_on_c, 8, 59, 64
10, 9960, Note_on_c, 8, 59, 0
10, 9960, Note_on_c, 8, 57, 64
10, 9990, Note_on_c, 8, 57, 0
10, 10020, Note_on_c, 8, 55, 64
10, 10050, Note_on_c, 8, 55, 0
10, 10080, Note_on_c, 8, 54, 64
10, 10110, Note_on_c, 8, 54, 0
10, 10140, Note_on_c, 8, 52, 64
10, 10170, Note_on_c, 8, 52, 0
10, 10170, Note_on_c, 8, 50, 64
10, 10200, Note_on_c, 8, 50, 0
10, 10200, Note_on_c, 8, 52, 64
10, 10230, Note_on_c, 8, 52, 0
10, 10260, Note_on_c, 8, 54, 64
10, 10290, Note_on_c, 8, 54, 0
10, 10320, Note_on_c, 8, 55, 64
10, 10350, Note_on_c, 8, 55, 0
10, 10380, Note_on_c, 8, 52, 64
10, 10410, Note_on_c, 8, 52, 0
10, 10440, Note_on_c, 8, 47, 64
10, 10470, Note_on_c, 8, 47, 0
10, 10500, Note_on_c, 8, 48, 64
10, 10530, Note_on_c, 8, 48, 0
10, 10560, Note_on_c, 8, 50, 64
10, 10590, Note_on_c, 8, 50, 0
10, 10620, Note_on_c, 8, 38, 64
10, 10650, Note_on_c, 8, 38, 0
10, 10704, Control_c, 8, 7, 127
10, 11040, Note_on_c, 8, 50, 64
10, 11100, Note_on_c, 8, 50, 0
10, 11100, Note_on_c, 8, 38, 64
10, 11130, Note_on_c, 8, 38, 0
10, 11220, Note_on_c, 8, 50, 64
10, 11250, Note_on_c, 8, 50, 0
10, 11280, Note_on_c, 8, 55, 64
10, 11310, Note_on_c, 8, 55, 0
10, 11340, Note_on_c, 8, 48, 64
10, 11370, Note_on_c, 8, 48, 0
10, 11400, Note_on_c, 8, 50, 64
10, 11430, Note_on_c, 8, 50, 0
10, 11460, Note_on_c, 8, 38, 64
10, 11490, Note_on_c, 8, 38, 0
10, 11520, Note_on_c, 8, 43, 64
10, 11580, Note_on_c, 8, 43, 0
10, 11760, Control_c, 8, 7, 90
10, 11760, Note_on_c, 8, 43, 64
10, 11790, Note_on_c, 8, 43, 0
10, 11820, Note_on_c, 8, 45, 64
10, 11850, Note_on_c, 8, 45, 0
10, 11880, Note_on_c, 8, 47, 64
10, 11910, Note_on_c, 8, 47, 0
10, 11940, Note_on_c, 8, 48, 64
10, 11970, Note_on_c, 8, 48, 0
10, 12000, Note_on_c, 8, 47, 64
10, 12030, Note_on_c, 8, 47, 0
10, 12060, Note_on_c, 8, 55, 64
10, 12090, Note_on_c, 8, 55, 0
10, 12120, Note_on_c, 8, 45, 64
10, 12150, Note_on_c, 8, 45, 0
10, 12180, Note_on_c, 8, 54, 64
10, 12210, Note_on_c, 8, 54, 0
10, 12240, Note_on_c, 8, 43, 64
10, 12270, Note_on_c, 8, 43, 0
10, 12300, Note_on_c, 8, 45, 64
10, 12330, Note_on_c, 8, 45, 0
10, 12360, Note_on_c, 8, 47, 64
10, 12390, Note_on_c, 8, 47, 0
10, 12420, Note_on_c, 8, 48, 64
10, 12450, Note_on_c, 8, 48, 0
10, 12480, Note_on_c, 8, 47, 64
10, 12510, Note_on_c, 8, 47, 0
10, 12540, Note_on_c, 8, 55, 64
10, 12570, Note_on_c, 8, 55, 0
10, 12600, Note_on_c, 8, 45, 64
10, 12630, Note_on_c, 8, 45, 0
10, 12660, Note_on_c, 8, 54, 64
10, 12690, Note_on_c, 8, 54, 0
10, 12720, Note_on_c, 8, 43, 64
10, 12750, Note_on_c, 8, 43, 0
10, 12780, Note_on_c, 8, 45, 64
10, 12810, Note_on_c, 8, 45, 0
10, 12840, Note_on_c, 8, 47, 64
10, 12870, Note_on_c, 8, 47, 0
10, 12900, Note_on_c, 8, 48, 64
10, 12930, Note_on_c, 8, 48, 0
10, 12960, Note_on_c, 8, 47, 64
10, 12990, Note_on_c, 8, 47, 0
10, 13020, Note_on_c, 8, 55, 64
10, 13050, Note_on_c, 8, 55, 0
10, 13080, Note_on_c, 8, 45, 64
10, 13110, Note_on_c, 8, 45, 0
10, 13140, Note_on_c, 8, 54, 64
10, 13170, Note_on_c, 8, 54, 0
10, 13200, Note_on_c, 8, 43, 64
10, 13230, Note_on_c, 8, 43, 0
10, 13260, Note_on_c, 8, 55, 64
10, 13290, Note_on_c, 8, 55, 0
10, 13320, Note_on_c, 8, 47, 64
10, 13350, Note_on_c, 8, 47, 0
10, 13380, Note_on_c, 8, 48, 64
10, 13410, Note_on_c, 8, 48, 0
10, 13440, Note_on_c, 8, 55, 64
10, 13470, Note_on_c, 8, 55, 0
10, 13500, Note_on_c, 8, 54, 64
10, 13530, Note_on_c, 8, 54, 0
10, 13560, Note_on_c, 8, 55, 64
10, 13590, Note_on_c, 8, 55, 0
10, 13620, Note_on_c, 8, 52, 64
10, 13650, Note_on_c, 8, 52, 0
10, 13680, Note_on_c, 8, 57, 64
10, 13710, Note_on_c, 8, 57, 0
10, 13740, Note_on_c, 8, 60, 64
10, 13770, Note_on_c, 8, 60, 0
10, 13770, Note_on_c, 8, 59, 64
10, 13800, Note_on_c, 8, 59, 0
10, 13800, Note_on_c, 8, 57, 64
10, 13830, Note_on_c, 8, 57, 0
10, 13860, Note_on_c, 8, 55, 64
10, 13890, Note_on_c, 8, 55, 0
10, 13920, Note_on_c, 8, 54, 64
10, 13950, Note_on_c, 8, 54, 0
10, 13980, Note_on_c, 8, 52, 64
10, 14010, Note_on_c, 8, 52, 0
10, 14010, Note_on_c, 8, 50, 64
10, 14040, Note_on_c, 8, 50, 0
10, 14040, Note_on_c, 8, 52, 64
10, 14070, Note_on_c, 8, 52, 0
10, 14100, Note_on_c, 8, 54, 64
10, 14130, Note_on_c, 8, 54, 0
10, 14160, Note_on_c, 8, 55, 64
10, 14190, Note_on_c, 8, 55, 0
10, 14220, Note_on_c, 8, 43, 64
10, 14250, Note_on_c, 8, 43, 0
10, 14250, Note_on_c, 8, 45, 64
10, 14280, Note_on_c, 8, 45, 0
10, 14280, Note_on_c, 8, 47, 64
10, 14310, Note_on_c, 8, 47, 0
10, 14340, Note_on_c, 8, 48, 64
10, 14370, Note_on_c, 8, 48, 0
10, 14400, Note_on_c, 8, 50, 64
10, 14430, Note_on_c, 8, 50, 0
10, 14460, Note_on_c, 8, 38, 64
10, 14490, Note_on_c, 8, 38, 0
10, 14520, Note_on_c, 8, 42, 64
10, 14550, Note_on_c, 8, 42, 0
10, 14580, Note_on_c, 8, 45, 64
10, 14610, Note_on_c, 8, 45, 0
10, 14640, Note_on_c, 8, 50, 64
10, 14670, Note_on_c, 8, 50, 0
10, 14700, Note_on_c, 8, 52, 64
10, 14730, Note_on_c, 8, 52, 0
10, 14760, Note_on_c, 8, 54, 64
10, 14790, Note_on_c, 8, 54, 0
10, 14820, Note_on_c, 8, 55, 64
10, 14850, Note_on_c, 8, 55, 0
10, 14880, Note_on_c, 8, 54, 64
10, 14910, Note_on_c, 8, 54, 0
10, 14940, Note_on_c, 8, 62, 64
10, 14970, Note_on_c, 8, 62, 0
10, 15000, Note_on_c, 8, 52, 64
10, 15030, Note_on_c, 8, 52, 0
10, 15060, Note_on_c, 8, 61, 64
10, 15090, Note_on_c, 8, 61, 0
10, 15120, Note_on_c, 8, 50, 64
10, 15150, Note_on_c, 8, 50, 0
10, 15180, Note_on_c, 8, 52, 64
10, 15210, Note_on_c, 8, 52, 0
10, 15240, Note_on_c, 8, 54, 64
10, 15270, Note_on_c, 8, 54, 0
10, 15300, Note_on_c, 8, 55, 64
10, 15330, Note_on_c, 8, 55, 0
10, 15360, Note_on_c, 8, 54, 64
10, 15390, Note_on_c, 8, 54, 0
10, 15420, Note_on_c, 8, 62, 64
10, 15450, Note_on_c, 8, 62, 0
10, 15480, Note_on_c, 8, 52, 64
10, 15510, Note_on_c, 8, 52, 0
10, 15540, Note_on_c, 8, 61, 64
10, 15570, Note_on_c, 8, 61, 0
10, 15600, Note_on_c, 8, 50, 64
10, 15630, Note_on_c, 8, 50, 0
10, 15660, Note_on_c, 8, 62, 64
10, 15690, Note_on_c, 8, 62, 0
10, 15720, Note_on_c, 8, 48, 64
10, 15750, Note_on_c, 8, 48, 0
10, 15780, Note_on_c, 8, 57, 64
10, 15810, Note_on_c, 8, 57, 0
10, 15840, Note_on_c, 8, 47, 64
10, 15870, Note_on_c, 8, 47, 0
10, 15900, Note_on_c, 8, 55, 64
10, 15930, Note_on_c, 8, 55, 0
10, 15960, Note_on_c, 8, 45, 64
10, 15990, Note_on_c, 8, 45, 0
10, 16020, Note_on_c, 8, 54, 64
10, 16050, Note_on_c, 8, 54, 0
10, 16080, Note_on_c, 8, 43, 64
10, 16110, Note_on_c, 8, 43, 0
10, 16140, Note_on_c, 8, 52, 64
10, 16170, Note_on_c, 8, 52, 0
10, 16200, Note_on_c, 8, 42, 64
10, 16230, Note_on_c, 8, 42, 0
10, 16260, Note_on_c, 8, 50, 64
10, 16290, Note_on_c, 8, 50, 0
10, 16320, Note_on_c, 8, 55, 64
10, 16350, Note_on_c, 8, 55, 0
10, 16380, Note_on_c, 8, 50, 64
10, 16410, Note_on_c, 8, 50, 0
10, 16440, Note_on_c, 8, 47, 64
10, 16470, Note_on_c, 8, 47, 0
10, 16500, Note_on_c, 8, 50, 64
10, 16530, Note_on_c, 8, 50, 0
10, 16560, Note_on_c, 8, 43, 64
10, 16590, Note_on_c, 8, 43, 0
10, 16620, Note_on_c, 8, 45, 64
10, 16650, Note_on_c, 8, 45, 0
10, 16680, Note_on_c, 8, 47, 64
10, 16710, Note_on_c, 8, 47, 0
10, 16740, Note_on_c, 8, 48, 64
10, 16770, Note_on_c, 8, 48, 0
10, 16800, Note_on_c, 8, 47, 64
10, 16830, Note_on_c, 8, 47, 0
10, 16860, Note_on_c, 8, 55, 64
10, 16890, Note_on_c, 8, 55, 0
10, 16920, Note_on_c, 8, 45, 64
10, 16950, Note_on_c, 8, 45, 0
10, 16980, Note_on_c, 8, 54, 64
10, 17010, Note_on_c, 8, 54, 0
10, 17040, Note_on_c, 8, 43, 64
10, 17070, Note_on_c, 8, 43, 0
10, 17100, Note_on_c, 8, 45, 64
10, 17130, Note_on_c, 8, 45, 0
10, 17160, Note_on_c, 8, 47, 64
10, 17190, Note_on_c, 8, 47, 0
10, 17220, Note_on_c, 8, 48, 64
10, 17250, Note_on_c, 8, 48, 0
10, 17280, Note_on_c, 8, 47, 64
10, 17310, Note_on_c, 8, 47, 0
10, 17340, Note_on_c, 8, 55, 64
10, 17370, Note_on_c, 8, 55, 0
10, 17400, Note_on_c, 8, 45, 64
10, 17430, Note_on_c, 8, 45, 0
10, 17460, Note_on_c, 8, 54, 64
10, 17490, Note_on_c, 8, 54, 0
10, 17520, Note_on_c, 8, 43, 64
10, 17550, Note_on_c, 8, 43, 0
10, 17580, Note_on_c, 8, 55, 64
10, 17610, Note_on_c, 8, 55, 0
10, 17640, Note_on_c, 8, 41, 64
10, 17670, Note_on_c, 8, 41, 0
10, 17700, Note_on_c, 8, 50, 64
10, 17730, Note_on_c, 8, 50, 0
10, 17760, Note_on_c, 8, 40, 64
10, 17790, Note_on_c, 8, 40, 0
10, 17820, Note_on_c, 8, 48, 64
10, 17850, Note_on_c, 8, 48, 0
10, 17880, Note_on_c, 8, 38, 64
10, 17910, Note_on_c, 8, 38, 0
10, 17940, Note_on_c, 8, 47, 64
10, 17970, Note_on_c, 8, 47, 0
10, 18000, Note_on_c, 8, 48, 64
10, 18030, Note_on_c, 8, 48, 0
10, 18060, Note_on_c, 8, 57, 64
10, 18090, Note_on_c, 8, 57, 0
10, 18120, Note_on_c, 8, 47, 64
10, 18150, Note_on_c, 8, 47, 0
10, 18180, Note_on_c, 8, 55, 64
10, 18210, Note_on_c, 8, 55, 0
10, 18240, Note_on_c, 8, 60, 64
10, 18270, Note_on_c, 8, 60, 0
10, 18300, Note_on_c, 8, 55, 64
10, 18330, Note_on_c, 8, 55, 0
10, 18360, Note_on_c, 8, 52, 64
10, 18390, Note_on_c, 8, 52, 0
10, 18420, Note_on_c, 8, 55, 64
10, 18450, Note_on_c, 8, 55, 0
10, 18480, Note_on_c, 8, 60, 64
10, 18510, Note_on_c, 8, 60, 0
10, 18600, Note_on_c, 8, 48, 64
10, 18630, Note_on_c, 8, 48, 0
10, 18720, Note_on_c, 8, 50, 64
10, 18750, Note_on_c, 8, 50, 0
10, 18840, Note_on_c, 8, 48, 64
10, 18870, Note_on_c, 8, 48, 0
10, 18960, Note_on_c, 8, 47, 64
10, 18990, Note_on_c, 8, 47, 0
10, 19080, Note_on_c, 8, 59, 64
10, 19110, Note_on_c, 8, 59, 0
10, 19200, Note_on_c, 8, 60, 64
10, 19230, Note_on_c, 8, 60, 0
10, 19260, Note_on_c, 8, 48, 64
10, 19290, Note_on_c, 8, 48, 0
10, 19290, Note_on_c, 8, 47, 64
10, 19320, Note_on_c, 8, 47, 0
10, 19320, Note_on_c, 8, 45, 64
10, 19350, Note_on_c, 8, 45, 0
10, 19380, Note_on_c, 8, 43, 64
10, 19410, Note_on_c, 8, 43, 0
10, 19440, Note_on_c, 8, 42, 64
10, 19470, Note_on_c, 8, 42, 0
10, 19500, Note_on_c, 8, 50, 64
10, 19530, Note_on_c, 8, 50, 0
10, 19560, Note_on_c, 8, 43, 64
10, 19590, Note_on_c, 8, 43, 0
10, 19620, Note_on_c, 8, 52, 64
10, 19650, Note_on_c, 8, 52, 0
10, 19680, Note_on_c, 8, 40, 64
10, 19710, Note_on_c, 8, 40, 0
10, 19740, Note_on_c, 8, 48, 64
10, 19770, Note_on_c, 8, 48, 0
10, 19800, Note_on_c, 8, 42, 64
10, 19830, Note_on_c, 8, 42, 0
10, 19860, Note_on_c, 8, 50, 64
10, 19890, Note_on_c, 8, 50, 0
10, 19920, Note_on_c, 8, 43, 64
10, 19950, Note_on_c, 8, 43, 0
10, 19980, Note_on_c, 8, 55, 64
10, 20010, Note_on_c, 8, 55, 0
10, 20040, Note_on_c, 8, 52, 64
10, 20070, Note_on_c, 8, 52, 0
10, 20100, Note_on_c, 8, 48, 64
10, 20130, Note_on_c, 8, 48, 0
10, 20160, Note_on_c, 8, 50, 64
10, 20190, Note_on_c, 8, 50, 0
10, 20220, Note_on_c, 8, 54, 64
10, 20250, Note_on_c, 8, 54, 0
10, 20280, Note_on_c, 8, 47, 64
10, 20310, Note_on_c, 8, 47, 0
10, 20340, Note_on_c, 8, 55, 64
10, 20370, Note_on_c, 8, 55, 0
10, 20400, Note_on_c, 8, 48, 64
10, 20430, Note_on_c, 8, 48, 0
10, 20460, Note_on_c, 8, 55, 64
10, 20490, Note_on_c, 8, 55, 0
10, 20520, Note_on_c, 8, 45, 64
10, 20550, Note_on_c, 8, 45, 0
10, 20580, Note_on_c, 8, 54, 64
10, 20610, Note_on_c, 8, 54, 0
10, 20640, Note_on_c, 8, 47, 64
10, 20670, Note_on_c, 8, 47, 0
10, 20700, Note_on_c, 8, 54, 64
10, 20730, Note_on_c, 8, 54, 0
10, 20760, Note_on_c, 8, 43, 64
10, 20790, Note_on_c, 8, 43, 0
10, 20820, Note_on_c, 8, 52, 64
10, 20850, Note_on_c, 8, 52, 0
10, 20880, Note_on_c, 8, 45, 64
10, 20910, Note_on_c, 8, 45, 0
10, 20940, Note_on_c, 8, 52, 64
10, 20970, Note_on_c, 8, 52, 0
10, 21000, Note_on_c, 8, 42, 64
10, 21030, Note_on_c, 8, 42, 0
10, 21060, Note_on_c, 8, 50, 64
10, 21090, Note_on_c, 8, 50, 0
10, 21120, Note_on_c, 8, 43, 64
10, 21150, Note_on_c, 8, 43, 0
10, 21240, Note_on_c, 8, 48, 64
10, 21270, Note_on_c, 8, 48, 0
10, 21360, Note_on_c, 8, 45, 64
10, 21390, Note_on_c, 8, 45, 0
10, 21480, Note_on_c, 8, 50, 64
10, 21510, Note_on_c, 8, 50, 0
10, 21600, Note_on_c, 8, 47, 64
10, 21630, Note_on_c, 8, 47, 0
10, 21660, Note_on_c, 8, 52, 64
10, 21690, Note_on_c, 8, 52, 0
10, 21720, Note_on_c, 8, 48, 64
10, 21750, Note_on_c, 8, 48, 0
10, 21780, Note_on_c, 8, 50, 64
10, 21810, Note_on_c, 8, 50, 0
10, 21840, Note_on_c, 8, 47, 64
10, 21870, Note_on_c, 8, 47, 0
10, 21900, Note_on_c, 8, 43, 64
10, 21930, Note_on_c, 8, 43, 0
10, 21960, Note_on_c, 8, 50, 64
10, 21990, Note_on_c, 8, 50, 0
10, 22020, Note_on_c, 8, 38, 64
10, 22050, Note_on_c, 8, 38, 0
10, 22080, Note_on_c, 8, 43, 64
10, 22110, Note_on_c, 8, 43, 0
10, 22200, Note_on_c, 8, 48, 64
10, 22230, Note_on_c, 8, 48, 0
10, 22320, Note_on_c, 8, 50, 64
10, 22350, Note_on_c, 8, 50, 0
10, 22380, Note_on_c, 8, 38, 64
10, 22410, Note_on_c, 8, 38, 0
10, 22800, Note_on_c, 8, 50, 64
10, 22830, Note_on_c, 8, 50, 0
10, 22860, Note_on_c, 8, 38, 64
10, 22890, Note_on_c, 8, 38, 0
10, 23280, Note_on_c, 8, 50, 64
10, 23340, Note_on_c, 8, 50, 0
10, 23340, Note_on_c, 8, 38, 64
10, 23370, Note_on_c, 8, 38, 0
10, 23760, Note_on_c, 8, 50, 64
10, 23790, Note_on_c, 8, 50, 0
10, 23820, Note_on_c, 8, 38, 64
10, 23850, Note_on_c, 8, 38, 0
10, 24060, Note_on_c, 8, 38, 64
10, 24090, Note_on_c, 8, 38, 0
10, 24120, Note_on_c, 8, 43, 64
10, 24150, Note_on_c, 8, 43, 0
10, 24180, Note_on_c, 8, 47, 64
10, 24210, Note_on_c, 8, 47, 0
10, 24240, Note_on_c, 8, 50, 64
10, 24270, Note_on_c, 8, 50, 0
10, 24300, Note_on_c, 8, 38, 64
10, 24330, Note_on_c, 8, 38, 0
10, 24540, Note_on_c, 8, 38, 64
10, 24570, Note_on_c, 8, 38, 0
10, 24600, Note_on_c, 8, 42, 64
10, 24630, Note_on_c, 8, 42, 0
10, 24660, Note_on_c, 8, 45, 64
10, 24690, Note_on_c, 8, 45, 0
10, 24720, Note_on_c, 8, 50, 64
10, 24750, Note_on_c, 8, 50, 0
10, 24780, Note_on_c, 8, 38, 64
10, 24810, Note_on_c, 8, 38, 0
10, 25200, Note_on_c, 8, 50, 64
10, 25230, Note_on_c, 8, 50, 0
10, 25260, Note_on_c, 8, 38, 64
10, 25290, Note_on_c, 8, 38, 0
10, 25740, Note_on_c, 8, 62, 64
10, 25770, Note_on_c, 8, 62, 0
10, 25800, Note_on_c, 8, 57, 64
10, 25830, Note_on_c, 8, 57, 0
10, 25860, Note_on_c, 8, 62, 64
10, 25890, Note_on_c, 8, 62, 0
10, 25920, Note_on_c, 8, 54, 64
10, 25950, Note_on_c, 8, 54, 0
10, 25980, Note_on_c, 8, 57, 64
10, 26010, Note_on_c, 8, 57, 0
10, 26040, Note_on_c, 8, 50, 64
10, 26070, Note_on_c, 8, 50, 0
10, 26100, Note_on_c, 8, 54, 64
10, 26130, Note_on_c, 8, 54, 0
10, 26160, Note_on_c, 8, 48, 83
10, 26190, Note_on_c, 8, 48, 0
10, 26220, Note_on_c, 8, 62, 64
10, 26250, Note_on_c, 8, 62, 0
10, 26280, Note_on_c, 8, 57, 64
10, 26310, Note_on_c, 8, 57, 0
10, 26340, Note_on_c, 8, 60, 64
10, 26370, Note_on_c, 8, 60, 0
10, 26400, Note_on_c, 8, 54, 64
10, 26430, Note_on_c, 8, 54, 0
10, 26460, Note_on_c, 8, 57, 64
10, 26490, Note_on_c, 8, 57, 0
10, 26520, Note_on_c, 8, 50, 64
10, 26550, Note_on_c, 8, 50, 0
10, 26580, Note_on_c, 8, 54, 64
10, 26610, Note_on_c, 8, 54, 0
10, 26640, Note_on_c, 8, 47, 83
10, 26670, Note_on_c, 8, 47, 0
10, 26700, Note_on_c, 8, 62, 64
10, 26730, Note_on_c, 8, 62, 0
10, 26760, Note_on_c, 8, 59, 64
10, 26790, Note_on_c, 8, 59, 0
10, 26820, Note_on_c, 8, 62, 64
10, 26850, Note_on_c, 8, 62, 0
10, 26880, Note_on_c, 8, 55, 64
10, 26910, Note_on_c, 8, 55, 0
10, 26940, Note_on_c, 8, 59, 64
10, 26970, Note_on_c, 8, 59, 0
10, 27000, Note_on_c, 8, 52, 64
10, 27030, Note_on_c, 8, 52, 0
10, 27060, Note_on_c, 8, 55, 64
10, 27090, Note_on_c, 8, 55, 0
10, 27120, Note_on_c, 8, 45, 83
10, 27150, Note_on_c, 8, 45, 0
10, 27180, Note_on_c, 8, 60, 64
10, 27210, Note_on_c, 8, 60, 0
10, 27240, Note_on_c, 8, 57, 64
10, 27270, Note_on_c, 8, 57, 0
10, 27300, Note_on_c, 8, 60, 64
10, 27330, Note_on_c, 8, 60, 0
10, 27360, Note_on_c, 8, 54, 64
10, 27390, Note_on_c, 8, 54, 0
10, 27420, Note_on_c, 8, 57, 64
10, 27450, Note_on_c, 8, 57, 0
10, 27480, Note_on_c, 8, 50, 64
10, 27510, Note_on_c, 8, 50, 0
10, 27540, Note_on_c, 8, 54, 64
10, 27570, Note_on_c, 8, 54, 0
10, 27600, Note_on_c, 8, 43, 64
10, 27630, Note_on_c, 8, 43, 0
10, 27660, Note_on_c, 8, 47, 64
10, 27690, Note_on_c, 8, 47, 0
10, 27720, Note_on_c, 8, 50, 64
10, 27750, Note_on_c, 8, 50, 0
10, 27780, Note_on_c, 8, 38, 64
10, 27810, Note_on_c, 8, 38, 0
10, 27840, Note_on_c, 8, 40, 64
10, 27870, Note_on_c, 8, 40, 0
10, 27870, Note_on_c, 8, 38, 64
10, 27885, Note_on_c, 8, 38, 0
10, 27900, Note_on_c, 8, 42, 64
10, 27930, Note_on_c, 8, 42, 0
10, 27930, Note_on_c, 8, 40, 64
10, 27945, Note_on_c, 8, 40, 0
10, 27960, Note_on_c, 8, 43, 64
10, 27990, Note_on_c, 8, 43, 0
10, 27990, Note_on_c, 8, 42, 64
10, 28005, Note_on_c, 8, 42, 0
10, 28020, Note_on_c, 8, 45, 64
10, 28050, Note_on_c, 8, 45, 0
10, 28050, Note_on_c, 8, 43, 64
10, 28065, Note_on_c, 8, 43, 0
10, 28080, Note_on_c, 8, 47, 64
10, 28110, Note_on_c, 8, 47, 0
10, 28200, Note_on_c, 8, 48, 64
10, 28230, Note_on_c, 8, 48, 0
10, 28320, Note_on_c, 8, 50, 64
10, 28350, Note_on_c, 8, 50, 0
10, 28440, Note_on_c, 8, 38, 64
10, 28470, Note_on_c, 8, 38, 0
10, 28560, Control_c, 8, 7, 127
10, 28560, Note_on_c, 8, 43, 64
10, 28590, Note_on_c, 8, 43, 0
10, 28620, Note_on_c, 8, 45, 64
10, 28650, Note_on_c, 8, 45, 0
10, 28680, Note_on_c, 8, 47, 64
10, 28710, Note_on_c, 8, 47, 0
10, 28740, Note_on_c, 8, 48, 64
10, 28770, Note_on_c, 8, 48, 0
10, 28800, Note_on_c, 8, 47, 64
10, 28830, Note_on_c, 8, 47, 0
10, 28860, Note_on_c, 8, 55, 64
10, 28890, Note_on_c, 8, 55, 0
10, 28920, Note_on_c, 8, 45, 64
10, 28950, Note_on_c, 8, 45, 0
10, 28980, Note_on_c, 8, 54, 64
10, 29010, Note_on_c, 8, 54, 0
10, 29040, Note_on_c, 8, 43, 64
10, 29070, Note_on_c, 8, 43, 0
10, 29100, Note_on_c, 8, 45, 64
10, 29130, Note_on_c, 8, 45, 0
10, 29160, Note_on_c, 8, 47, 64
10, 29190, Note_on_c, 8, 47, 0
10, 29220, Note_on_c, 8, 48, 64
10, 29250, Note_on_c, 8, 48, 0
10, 29280, Note_on_c, 8, 47, 64
10, 29310, Note_on_c, 8, 47, 0
10, 29340, Note_on_c, 8, 55, 64
10, 29370, Note_on_c, 8, 55, 0
10, 29400, Note_on_c, 8, 45, 64
10, 29430, Note_on_c, 8, 45, 0
10, 29460, Note_on_c, 8, 54, 64
10, 29490, Note_on_c, 8, 54, 0
10, 29520, Note_on_c, 8, 43, 64
10, 29550, Note_on_c, 8, 43, 0
10, 29580, Note_on_c, 8, 45, 64
10, 29610, Note_on_c, 8, 45, 0
10, 29640, Note_on_c, 8, 47, 64
10, 29670, Note_on_c, 8, 47, 0
10, 29700, Note_on_c, 8, 48, 64
10, 29730, Note_on_c, 8, 48, 0
10, 29760, Note_on_c, 8, 47, 64
10, 29790, Note_on_c, 8, 47, 0
10, 29820, Note_on_c, 8, 55, 64
10, 29850, Note_on_c, 8, 55, 0
10, 29880, Note_on_c, 8, 45, 64
10, 29910, Note_on_c, 8, 45, 0
10, 29940, Note_on_c, 8, 54, 64
10, 29970, Note_on_c, 8, 54, 0
10, 30000, Note_on_c, 8, 43, 64
10, 30030, Note_on_c, 8, 43, 0
10, 30030, Note_on_c, 8, 50, 64
10, 30060, Note_on_c, 8, 50, 0
10, 30060, Note_on_c, 8, 52, 64
10, 30090, Note_on_c, 8, 52, 0
10, 30090, Note_on_c, 8, 54, 64
10, 30120, Note_on_c, 8, 54, 0
10, 30120, Note_on_c, 8, 55, 64
10, 30150, Note_on_c, 8, 55, 0
10, 30180, Note_on_c, 8, 64, 64
10, 30210, Note_on_c, 8, 64, 0
10, 30240, Note_on_c, 8, 54, 64
10, 30270, Note_on_c, 8, 54, 0
10, 30300, Note_on_c, 8, 62, 64
10, 30330, Note_on_c, 8, 62, 0
10, 30360, Note_on_c, 8, 52, 64
10, 30390, Note_on_c, 8, 52, 0
10, 30420, Note_on_c, 8, 61, 64
10, 30450, Note_on_c, 8, 61, 0
10, 30960, Note_on_c, 8, 50, 40
10, 31020, Note_on_c, 8, 50, 0
10, 31020, Note_on_c, 8, 38, 41
10, 31050, Note_on_c, 8, 38, 0
10, 31440, Note_on_c, 8, 50, 44
10, 31470, Note_on_c, 8, 50, 0
10, 31500, Note_on_c, 8, 38, 45
10, 31530, Note_on_c, 8, 38, 0
10, 31740, Note_on_c, 8, 38, 47
10, 31770, Note_on_c, 8, 38, 0
10, 31800, Note_on_c, 8, 43, 47
10, 31830, Note_on_c, 8, 43, 0
10, 31860, Note_on_c, 8, 47, 48
10, 31890, Note_on_c, 8, 47, 0
10, 31920, Note_on_c, 8, 50, 48
10, 31950, Note_on_c, 8, 50, 0
10, 31980, Note_on_c, 8, 38, 49
10, 32010, Note_on_c, 8, 38, 0
10, 32220, Note_on_c, 8, 38, 51
10, 32250, Note_on_c, 8, 38, 0
10, 32280, Note_on_c, 8, 42, 51
10, 32310, Note_on_c, 8, 42, 0
10, 32340, Note_on_c, 8, 45, 52
10, 32370, Note_on_c, 8, 45, 0
10, 32400, Note_on_c, 8, 50, 52
10, 32430, Note_on_c, 8, 50, 0
10, 32460, Note_on_c, 8, 38, 53
10, 32490, Note_on_c, 8, 38, 0
10, 32880, Note_on_c, 8, 50, 56
10, 32910, Note_on_c, 8, 50, 0
10, 32940, Note_on_c, 8, 38, 57
10, 32970, Note_on_c, 8, 38, 0
10, 33420, Note_on_c, 8, 62, 61
10, 33450, Note_on_c, 8, 62, 0
10, 33480, Note_on_c, 8, 57, 61
10, 33510, Note_on_c, 8, 57, 0
10, 33540, Note_on_c, 8, 62, 62
10, 33570, Note_on_c, 8, 62, 0
10, 33600, Note_on_c, 8, 54, 62
10, 33630, Note_on_c, 8, 54, 0
10, 33660, Note_on_c, 8, 57, 63
10, 33690, Note_on_c, 8, 57, 0
10, 33720, Note_on_c, 8, 50, 63
10, 33750, Note_on_c, 8, 50, 0
10, 33780, Note_on_c, 8, 54, 64
10, 33810, Note_on_c, 8, 54, 0
10, 33840, Note_on_c, 8, 48, 83
10, 33870, Note_on_c, 8, 48, 0
10, 33900, Note_on_c, 8, 62, 64
10, 33930, Note_on_c, 8, 62, 0
10, 33960, Note_on_c, 8, 57, 65
10, 33990, Note_on_c, 8, 57, 0
10, 34020, Note_on_c, 8, 60, 65
10, 34050, Note_on_c, 8, 60, 0
10, 34080, Note_on_c, 8, 54, 66
10, 34110, Note_on_c, 8, 54, 0
10, 34140, Note_on_c, 8, 57, 66
10, 34170, Note_on_c, 8, 57, 0
10, 34200, Note_on_c, 8, 50, 67
10, 34230, Note_on_c, 8, 50, 0
10, 34260, Note_on_c, 8, 54, 67
10, 34290, Note_on_c, 8, 54, 0
10, 34320, Note_on_c, 8, 47, 87
10, 34350, Note_on_c, 8, 47, 0
10, 34380, Note_on_c, 8, 62, 68
10, 34410, Note_on_c, 8, 62, 0
10, 34440, Note_on_c, 8, 59, 69
10, 34470, Note_on_c, 8, 59, 0
10, 34500, Note_on_c, 8, 62, 69
10, 34530, Note_on_c, 8, 62, 0
10, 34560, Note_on_c, 8, 55, 70
10, 34590, Note_on_c, 8, 55, 0
10, 34620, Note_on_c, 8, 59, 70
10, 34650, Note_on_c, 8, 59, 0
10, 34680, Note_on_c, 8, 52, 70
10, 34710, Note_on_c, 8, 52, 0
10, 34740, Note_on_c, 8, 55, 71
10, 34770, Note_on_c, 8, 55, 0
10, 34800, Note_on_c, 8, 45, 90
10, 34830, Note_on_c, 8, 45, 0
10, 34860, Note_on_c, 8, 60, 72
10, 34890, Note_on_c, 8, 60, 0
10, 34920, Note_on_c, 8, 57, 72
10, 34950, Note_on_c, 8, 57, 0
10, 34980, Note_on_c, 8, 60, 73
10, 35010, Note_on_c, 8, 60, 0
10, 35040, Note_on_c, 8, 54, 73
10, 35070, Note_on_c, 8, 54, 0
10, 35100, Note_on_c, 8, 57, 74
10, 35130, Note_on_c, 8, 57, 0
10, 35160, Note_on_c, 8, 50, 74
10, 35190, Note_on_c, 8, 50, 0
10, 35220, Note_on_c, 8, 54, 75
10, 35250, Note_on_c, 8, 54, 0
10, 35280, Note_on_c, 8, 43, 94
10, 35310, Note_on_c, 8, 43, 0
10, 35340, Note_on_c, 8, 47, 75
10, 35370, Note_on_c, 8, 47, 0
10, 35400, Note_on_c, 8, 50, 75
10, 35430, Note_on_c, 8, 50, 0
10, 35460, Note_on_c, 8, 38, 75
10, 35490, Note_on_c, 8, 38, 0
10, 35520, Note_on_c, 8, 43, 75
10, 35550, Note_on_c, 8, 43, 0
10, 35580, Note_on_c, 8, 55, 64
10, 35610, Note_on_c, 8, 55, 0
10, 35640, Note_on_c, 8, 57, 52
10, 35670, Note_on_c, 8, 57, 0
10, 35700, Note_on_c, 8, 59, 40
10, 35730, Note_on_c, 8, 59, 0
10, 35760, Control_c, 8, 7, 90
10, 35760, Note_on_c, 8, 52, 64
10, 35790, Note_on_c, 8, 52, 0
10, 35880, Note_on_c, 8, 40, 64
10, 35910, Note_on_c, 8, 40, 0
10, 36000, Note_on_c, 8, 52, 64
10, 36030, Note_on_c, 8, 52, 0
10, 36120, Note_on_c, 8, 40, 64
10, 36150, Note_on_c, 8, 40, 0
10, 36240, Note_on_c, 8, 48, 64
10, 36270, Note_on_c, 8, 48, 0
10, 36360, Note_on_c, 8, 45, 64
10, 36390, Note_on_c, 8, 45, 0
10, 36480, Note_on_c, 8, 47, 64
10, 36510, Note_on_c, 8, 47, 0
10, 36540, Note_on_c, 8, 59, 64
10, 36660, Note_on_c, 8, 59, 0
10, 36660, Note_on_c, 8, 57, 64
10, 36690, Note_on_c, 8, 57, 0
10, 36720, Note_on_c, 8, 55, 64
10, 36750, Note_on_c, 8, 55, 0
10, 36780, Note_on_c, 8, 43, 64
10, 36810, Note_on_c, 8, 43, 0
10, 36840, Note_on_c, 8, 42, 64
10, 36870, Note_on_c, 8, 42, 0
10, 36900, Note_on_c, 8, 40, 64
10, 36930, Note_on_c, 8, 40, 0
10, 36960, Note_on_c, 8, 39, 64
10, 36990, Note_on_c, 8, 39, 0
10, 37020, Note_on_c, 8, 51, 64
10, 37050, Note_on_c, 8, 51, 0
10, 37080, Note_on_c, 8, 49, 64
10, 37110, Note_on_c, 8, 49, 0
10, 37140, Note_on_c, 8, 47, 64
10, 37170, Note_on_c, 8, 47, 0
10, 37200, Note_on_c, 8, 52, 64
10, 37230, Note_on_c, 8, 52, 0
10, 37260, Note_on_c, 8, 48, 64
10, 37290, Note_on_c, 8, 48, 0
10, 37320, Note_on_c, 8, 47, 64
10, 37350, Note_on_c, 8, 47, 0
10, 37380, Note_on_c, 8, 45, 64
10, 37410, Note_on_c, 8, 45, 0
10, 37440, Note_on_c, 8, 44, 64
10, 37470, Note_on_c, 8, 44, 0
10, 37500, Note_on_c, 8, 56, 64
10, 37530, Note_on_c, 8, 56, 0
10, 37560, Note_on_c, 8, 54, 64
10, 37590, Note_on_c, 8, 54, 0
10, 37620, Note_on_c, 8, 52, 64
10, 37650, Note_on_c, 8, 52, 0
10, 37680, Note_on_c, 8, 57, 64
10, 37710, Note_on_c, 8, 57, 0
10, 37800, Note_on_c, 8, 60, 64
10, 37830, Note_on_c, 8, 60, 0
10, 37920, Note_on_c, 8, 54, 64
10, 37950, Note_on_c, 8, 54, 0
10, 38040, Note_on_c, 8, 51, 64
10, 38070, Note_on_c, 8, 51, 0
10, 38160, Note_on_c, 8, 52, 64
10, 38190, Note_on_c, 8, 52, 0
10, 38220, Note_on_c, 8, 43, 64
10, 38250, Note_on_c, 8, 43, 0
10, 38280, Note_on_c, 8, 45, 64
10, 38310, Note_on_c, 8, 45, 0
10, 38340, Note_on_c, 8, 47, 64
10, 38370, Note_on_c, 8, 47, 0
10, 38400, Note_on_c, 8, 52, 64
10, 38430, Note_on_c, 8, 52, 0
10, 38460, Note_on_c, 8, 40, 64
10, 38490, Note_on_c, 8, 40, 0
10, 38520, Note_on_c, 8, 43, 64
10, 38550, Note_on_c, 8, 43, 0
10, 38551, Control_c, 8, 7, 127
10, 38580, Note_on_c, 8, 47, 64
10, 38610, Note_on_c, 8, 47, 0
10, 38640, Note_on_c, 8, 52, 64
10, 38670, Note_on_c, 8, 52, 0
10, 38700, Note_on_c, 8, 40, 64
10, 38730, Note_on_c, 8, 40, 0
10, 39120, Note_on_c, 8, 52, 64
10, 39150, Note_on_c, 8, 52, 0
10, 39180, Note_on_c, 8, 40, 64
10, 39210, Note_on_c, 8, 40, 0
10, 39420, Note_on_c, 8, 40, 64
10, 39450, Note_on_c, 8, 40, 0
10, 39480, Note_on_c, 8, 45, 64
10, 39510, Note_on_c, 8, 45, 0
10, 39540, Note_on_c, 8, 48, 64
10, 39570, Note_on_c, 8, 48, 0
10, 39600, Note_on_c, 8, 52, 64
10, 39630, Note_on_c, 8, 52, 0
10, 39660, Note_on_c, 8, 40, 64
10, 39690, Note_on_c, 8, 40, 0
10, 39720, Note_on_c, 8, 43, 64
10, 39750, Note_on_c, 8, 43, 0
10, 39780, Note_on_c, 8, 47, 64
10, 39810, Note_on_c, 8, 47, 0
10, 39840, Note_on_c, 8, 52, 64
10, 39870, Note_on_c, 8, 52, 0
10, 39900, Note_on_c, 8, 49, 64
10, 39930, Note_on_c, 8, 49, 0
10, 39960, Note_on_c, 8, 51, 64
10, 39990, Note_on_c, 8, 51, 0
10, 40020, Note_on_c, 8, 47, 64
10, 40050, Note_on_c, 8, 47, 0
10, 40080, Note_on_c, 8, 52, 64
10, 40110, Note_on_c, 8, 52, 0
10, 40140, Note_on_c, 8, 55, 64
10, 40170, Note_on_c, 8, 55, 0
10, 40200, Note_on_c, 8, 59, 64
10, 40230, Note_on_c, 8, 59, 0
10, 40260, Note_on_c, 8, 47, 64
10, 40290, Note_on_c, 8, 47, 0
10, 40320, Note_on_c, 8, 52, 64
10, 40350, Note_on_c, 8, 52, 0
10, 40380, Note_on_c, 8, 47, 64
10, 40410, Note_on_c, 8, 47, 0
10, 40440, Note_on_c, 8, 43, 64
10, 40470, Note_on_c, 8, 43, 0
10, 40500, Note_on_c, 8, 47, 64
10, 40530, Note_on_c, 8, 47, 0
10, 40560, Control_c, 8, 7, 90
10, 40560, Note_on_c, 8, 40, 64
10, 40590, Note_on_c, 8, 40, 0
10, 40680, Note_on_c, 8, 52, 64
10, 40710, Note_on_c, 8, 52, 0
10, 40800, Note_on_c, 8, 47, 64
10, 40830, Note_on_c, 8, 47, 0
10, 40920, Note_on_c, 8, 59, 64
10, 40950, Note_on_c, 8, 59, 0
10, 41040, Note_on_c, 8, 52, 64
10, 41070, Note_on_c, 8, 52, 0
10, 41160, Note_on_c, 8, 57, 64
10, 41190, Note_on_c, 8, 57, 0
10, 41280, Note_on_c, 8, 50, 64
10, 41310, Note_on_c, 8, 50, 0
10, 41340, Note_on_c, 8, 38, 64
10, 41370, Note_on_c, 8, 38, 0
10, 41400, Note_on_c, 8, 42, 64
10, 41430, Note_on_c, 8, 42, 0
10, 41460, Note_on_c, 8, 45, 64
10, 41490, Note_on_c, 8, 45, 0
10, 41520, Note_on_c, 8, 47, 64
10, 41550, Note_on_c, 8, 47, 0
10, 41580, Note_on_c, 8, 62, 64
10, 41610, Note_on_c, 8, 62, 0
10, 41640, Note_on_c, 8, 61, 64
10, 41670, Note_on_c, 8, 61, 0
10, 41700, Note_on_c, 8, 59, 64
10, 41730, Note_on_c, 8, 59, 0
10, 41760, Note_on_c, 8, 58, 64
10, 41790, Note_on_c, 8, 58, 0
10, 41820, Note_on_c, 8, 46, 64
10, 41850, Note_on_c, 8, 46, 0
10, 41880, Note_on_c, 8, 44, 64
10, 41910, Note_on_c, 8, 44, 0
10, 41940, Note_on_c, 8, 42, 64
10, 41970, Note_on_c, 8, 42, 0
10, 42000, Note_on_c, 8, 47, 64
10, 42030, Note_on_c, 8, 47, 0
10, 42060, Note_on_c, 8, 43, 64
10, 42090, Note_on_c, 8, 43, 0
10, 42120, Note_on_c, 8, 42, 64
10, 42150, Note_on_c, 8, 42, 0
10, 42180, Note_on_c, 8, 40, 64
10, 42210, Note_on_c, 8, 40, 0
10, 42240, Note_on_c, 8, 39, 64
10, 42270, Note_on_c, 8, 39, 0
10, 42300, Note_on_c, 8, 51, 64
10, 42330, Note_on_c, 8, 51, 0
10, 42360, Note_on_c, 8, 49, 64
10, 42390, Note_on_c, 8, 49, 0
10, 42420, Note_on_c, 8, 47, 64
10, 42450, Note_on_c, 8, 47, 0
10, 42480, Note_on_c, 8, 52, 64
10, 42510, Note_on_c, 8, 52, 0
10, 42600, Note_on_c, 8, 55, 64
10, 42630, Note_on_c, 8, 55, 0
10, 42720, Note_on_c, 8, 49, 64
10, 42750, Note_on_c, 8, 49, 0
10, 42840, Note_on_c, 8, 46, 64
10, 42870, Note_on_c, 8, 46, 0
10, 42960, Note_on_c, 8, 50, 64
10, 42990, Note_on_c, 8, 50, 0
10, 43020, Note_on_c, 8, 38, 64
10, 43050, Note_on_c, 8, 38, 0
10, 43080, Note_on_c, 8, 40, 64
10, 43110, Note_on_c, 8, 40, 0
10, 43140, Note_on_c, 8, 42, 64
10, 43170, Note_on_c, 8, 42, 0
10, 43200, Note_on_c, 8, 47, 64
10, 43200, Note_on_c, 8, 50, 64
10, 43230, Note_on_c, 8, 50, 0
10, 43230, Note_on_c, 8, 47, 0
10, 43260, Note_on_c, 8, 59, 64
10, 43290, Note_on_c, 8, 59, 0
10, 43320, Note_on_c, 8, 57, 64
10, 43350, Note_on_c, 8, 57, 0
10, 43380, Note_on_c, 8, 55, 64
10, 43410, Note_on_c, 8, 55, 0
10, 43440, Note_on_c, 8, 54, 64
10, 43470, Note_on_c, 8, 54, 0
10, 43500, Note_on_c, 8, 42, 64
10, 43530, Note_on_c, 8, 42, 0
10, 43920, Note_on_c, 8, 54, 64
10, 43950, Note_on_c, 8, 54, 0
10, 43980, Note_on_c, 8, 42, 64
10, 44010, Note_on_c, 8, 42, 0
10, 44460, Note_on_c, 8, 54, 64
10, 44490, Note_on_c, 8, 54, 0
10, 44520, Note_on_c, 8, 50, 64
10, 44550, Note_on_c, 8, 50, 0
10, 44580, Note_on_c, 8, 54, 64
10, 44610, Note_on_c, 8, 54, 0
10, 44640, Note_on_c, 8, 47, 64
10, 44670, Note_on_c, 8, 47, 0
10, 44700, Note_on_c, 8, 50, 64
10, 44730, Note_on_c, 8, 50, 0
10, 44760, Note_on_c, 8, 43, 64
10, 44790, Note_on_c, 8, 43, 0
10, 44820, Note_on_c, 8, 59, 64
10, 44850, Note_on_c, 8, 59, 0
10, 44880, Note_on_c, 8, 55, 64
10, 44910, Note_on_c, 8, 55, 0
10, 44940, Note_on_c, 8, 59, 64
10, 44970, Note_on_c, 8, 59, 0
10, 45000, Note_on_c, 8, 52, 64
10, 45030, Note_on_c, 8, 52, 0
10, 45060, Note_on_c, 8, 55, 64
10, 45090, Note_on_c, 8, 55, 0
10, 45120, Note_on_c, 8, 54, 64
10, 45150, Note_on_c, 8, 54, 0
10, 45240, Note_on_c, 8, 53, 64
10, 45270, Note_on_c, 8, 53, 0
10, 45360, Note_on_c, 8, 54, 64
10, 45390, Note_on_c, 8, 54, 0
10, 45480, Note_on_c, 8, 42, 64
10, 45510, Note_on_c, 8, 42, 0
10, 45600, Note_on_c, 8, 47, 64
10, 45720, Note_on_c, 8, 47, 0
10, 45840, End_track
11, 0, Start_track
11, 0, MIDI_port, 0
11, 0, Title_t, "Cello pizz."
11, 0, Program_c, 4, 45
11, 200, Control_c, 4, 11, 86
11, 240, Note_on_c, 4, 43, 40
11, 270, Note_on_c, 4, 43, 0
11, 300, Note_on_c, 4, 45, 40
11, 330, Note_on_c, 4, 45, 0
11, 360, Note_on_c, 4, 47, 40
11, 390, Note_on_c, 4, 47, 0
11, 420, Note_on_c, 4, 48, 40
11, 450, Note_on_c, 4, 48, 0
11, 480, Note_on_c, 4, 47, 40
11, 510, Note_on_c, 4, 47, 0
11, 540, Note_on_c, 4, 55, 40
11, 570, Note_on_c, 4, 55, 0
11, 600, Note_on_c, 4, 45, 40
11, 630, Note_on_c, 4, 45, 0
11, 660, Note_on_c, 4, 54, 40
11, 690, Note_on_c, 4, 54, 0
11, 720, Note_on_c, 4, 43, 40
11, 750, Note_on_c, 4, 43, 0
11, 780, Note_on_c, 4, 45, 40
11, 810, Note_on_c, 4, 45, 0
11, 840, Note_on_c, 4, 47, 40
11, 870, Note_on_c, 4, 47, 0
11, 900, Note_on_c, 4, 48, 40
11, 930, Note_on_c, 4, 48, 0
11, 960, Note_on_c, 4, 47, 40
11, 990, Note_on_c, 4, 47, 0
11, 1020, Note_on_c, 4, 55, 40
11, 1050, Note_on_c, 4, 55, 0
11, 1080, Note_on_c, 4, 45, 40
11, 1110, Note_on_c, 4, 45, 0
11, 1140, Note_on_c, 4, 54, 40
11, 1170, Note_on_c, 4, 54, 0
11, 1200, Note_on_c, 4, 43, 40
11, 1230, Note_on_c, 4, 43, 0
11, 1260, Note_on_c, 4, 45, 40
11, 1290, Note_on_c, 4, 45, 0
11, 1320, Note_on_c, 4, 47, 40
11, 1350, Note_on_c, 4, 47, 0
11, 1380, Note_on_c, 4, 48, 40
11, 1410, Note_on_c, 4, 48, 0
11, 1440, Note_on_c, 4, 47, 40
11, 1470, Note_on_c, 4, 47, 0
11, 1500, Note_on_c, 4, 55, 40
11, 1530, Note_on_c, 4, 55, 0
11, 1560, Note_on_c, 4, 45, 40
11, 1590, Note_on_c, 4, 45, 0
11, 1620, Note_on_c, 4, 54, 40
11, 1650, Note_on_c, 4, 54, 0
11, 1680, Note_on_c, 4, 43, 40
11, 1740, Note_on_c, 4, 43, 0
11, 2190, Note_on_c, 4, 45, 40
11, 2220, Note_on_c, 4, 45, 0
11, 2220, Note_on_c, 4, 47, 40
11, 2250, Note_on_c, 4, 47, 0
11, 2250, Note_on_c, 4, 49, 40
11, 2280, Note_on_c, 4, 49, 0
11, 2280, Note_on_c, 4, 50, 40
11, 2310, Note_on_c, 4, 50, 0
11, 2340, Note_on_c, 4, 59, 40
11, 2370, Note_on_c, 4, 59, 0
11, 2400, Note_on_c, 4, 49, 40
11, 2430, Note_on_c, 4, 49, 0
11, 2460, Note_on_c, 4, 57, 40
11, 2490, Note_on_c, 4, 57, 0
11, 2520, Note_on_c, 4, 47, 40
11, 2550, Note_on_c, 4, 47, 0
11, 2580, Note_on_c, 4, 55, 40
11, 2610, Note_on_c, 4, 55, 0
11, 2640, Program_c, 4, 48
11, 2640, Note_on_c, 4, 57, 40
11, 3164, Program_c, 4, 45
11, 3180, Note_on_c, 4, 57, 0
11, 3180, Note_on_c, 4, 45, 35
11, 3210, Note_on_c, 4, 45, 0
11, 3600, Note_on_c, 4, 57, 38
11, 3630, Note_on_c, 4, 57, 0
11, 3660, Note_on_c, 4, 45, 39
11, 3690, Note_on_c, 4, 45, 0
11, 3900, Note_on_c, 4, 45, 40
11, 3930, Note_on_c, 4, 45, 0
11, 3960, Note_on_c, 4, 50, 41
11, 3990, Note_on_c, 4, 50, 0
11, 4020, Note_on_c, 4, 54, 41
11, 4050, Note_on_c, 4, 54, 0
11, 4080, Note_on_c, 4, 57, 42
11, 4110, Note_on_c, 4, 57, 0
11, 4140, Note_on_c, 4, 45, 42
11, 4170, Note_on_c, 4, 45, 0
11, 4380, Note_on_c, 4, 45, 44
11, 4410, Note_on_c, 4, 45, 0
11, 4440, Note_on_c, 4, 49, 44
11, 4470, Note_on_c, 4, 49, 0
11, 4500, Note_on_c, 4, 52, 45
11, 4530, Note_on_c, 4, 52, 0
11, 4560, Note_on_c, 4, 57, 45
11, 4590, Note_on_c, 4, 57, 0
11, 4620, Note_on_c, 4, 45, 45
11, 4650, Note_on_c, 4, 45, 0
11, 5040, Note_on_c, 4, 57, 48
11, 5070, Note_on_c, 4, 57, 0
11, 5100, Note_on_c, 4, 45, 49
11, 5130, Note_on_c, 4, 45, 0
11, 5580, Note_on_c, 4, 57, 50
11, 5610, Note_on_c, 4, 57, 0
11, 5640, Note_on_c, 4, 52, 50
11, 5670, Note_on_c, 4, 52, 0
11, 5700, Note_on_c, 4, 57, 50
11, 5730, Note_on_c, 4, 57, 0
11, 5760, Note_on_c, 4, 49, 50
11, 5790, Note_on_c, 4, 49, 0
11, 5820, Note_on_c, 4, 52, 50
11, 5850, Note_on_c, 4, 52, 0
11, 5880, Note_on_c, 4, 45, 50
11, 5910, Note_on_c, 4, 45, 0
11, 5940, Note_on_c, 4, 49, 50
11, 5970, Note_on_c, 4, 49, 0
11, 6000, Note_on_c, 4, 43, 69
11, 6030, Note_on_c, 4, 43, 0
11, 6060, Note_on_c, 4, 57, 51
11, 6090, Note_on_c, 4, 57, 0
11, 6120, Note_on_c, 4, 52, 51
11, 6150, Note_on_c, 4, 52, 0
11, 6180, Note_on_c, 4, 55, 52
11, 6210, Note_on_c, 4, 55, 0
11, 6240, Note_on_c, 4, 49, 52
11, 6270, Note_on_c, 4, 49, 0
11, 6300, Note_on_c, 4, 52, 53
11, 6330, Note_on_c, 4, 52, 0
11, 6360, Note_on_c, 4, 45, 54
11, 6390, Note_on_c, 4, 45, 0
11, 6420, Note_on_c, 4, 49, 54
11, 6450, Note_on_c, 4, 49, 0
11, 6480, Note_on_c, 4, 42, 74
11, 6510, Note_on_c, 4, 42, 0
11, 6540, Note_on_c, 4, 57, 55
11, 6570, Note_on_c, 4, 57, 0
11, 6600, Note_on_c, 4, 54, 56
11, 6630, Note_on_c, 4, 54, 0
11, 6660, Note_on_c, 4, 57, 56
11, 6690, Note_on_c, 4, 57, 0
11, 6720, Note_on_c, 4, 50, 57
11, 6750, Note_on_c, 4, 50, 0
11, 6780, Note_on_c, 4, 54, 58
11, 6810, Note_on_c, 4, 54, 0
11, 6840, Note_on_c, 4, 47, 58
11, 6870, Note_on_c, 4, 47, 0
11, 6900, Note_on_c, 4, 50, 59
11, 6930, Note_on_c, 4, 50, 0
11, 6960, Note_on_c, 4, 40, 78
11, 6990, Note_on_c, 4, 40, 0
11, 7020, Note_on_c, 4, 55, 60
11, 7050, Note_on_c, 4, 55, 0
11, 7080, Note_on_c, 4, 52, 61
11, 7110, Note_on_c, 4, 52, 0
11, 7140, Note_on_c, 4, 55, 61
11, 7170, Note_on_c, 4, 55, 0
11, 7200, Note_on_c, 4, 49, 62
11, 7230, Note_on_c, 4, 49, 0
11, 7260, Note_on_c, 4, 52, 62
11, 7290, Note_on_c, 4, 52, 0
11, 7320, Note_on_c, 4, 45, 63
11, 7350, Note_on_c, 4, 45, 0
11, 7380, Note_on_c, 4, 49, 63
11, 7410, Note_on_c, 4, 49, 0
11, 7440, Note_on_c, 4, 38, 83
11, 7470, Note_on_c, 4, 38, 0
11, 7500, Note_on_c, 4, 54, 64
11, 7530, Note_on_c, 4, 54, 0
11, 7560, Note_on_c, 4, 57, 64
11, 7590, Note_on_c, 4, 57, 0
11, 7620, Note_on_c, 4, 45, 64
11, 7650, Note_on_c, 4, 45, 0
11, 7680, Note_on_c, 4, 50, 64
11, 7710, Note_on_c, 4, 50, 0
11, 7740, Note_on_c, 4, 48, 64
11, 7770, Note_on_c, 4, 48, 0
11, 7800, Note_on_c, 4, 47, 52
11, 7830, Note_on_c, 4, 47, 0
11, 7860, Note_on_c, 4, 45, 40
11, 7890, Note_on_c, 4, 45, 0
11, 7920, Note_on_c, 4, 43, 64
11, 7950, Note_on_c, 4, 43, 0
11, 7980, Note_on_c, 4, 45, 64
11, 8010, Note_on_c, 4, 45, 0
11, 8040, Note_on_c, 4, 47, 64
11, 8070, Note_on_c, 4, 47, 0
11, 8100, Note_on_c, 4, 48, 64
11, 8130, Note_on_c, 4, 48, 0
11, 8160, Note_on_c, 4, 47, 64
11, 8190, Note_on_c, 4, 47, 0
11, 8220, Note_on_c, 4, 55, 64
11, 8250, Note_on_c, 4, 55, 0
11, 8280, Note_on_c, 4, 45, 64
11, 8310, Note_on_c, 4, 45, 0
11, 8340, Note_on_c, 4, 54, 64
11, 8370, Note_on_c, 4, 54, 0
11, 8400, Note_on_c, 4, 43, 64
11, 8430, Note_on_c, 4, 43, 0
11, 8460, Note_on_c, 4, 45, 64
11, 8490, Note_on_c, 4, 45, 0
11, 8520, Note_on_c, 4, 47, 64
11, 8550, Note_on_c, 4, 47, 0
11, 8580, Note_on_c, 4, 48, 64
11, 8610, Note_on_c, 4, 48, 0
11, 8640, Note_on_c, 4, 47, 64
11, 8670, Note_on_c, 4, 47, 0
11, 8700, Note_on_c, 4, 55, 64
11, 8730, Note_on_c, 4, 55, 0
11, 8760, Note_on_c, 4, 45, 64
11, 8790, Note_on_c, 4, 45, 0
11, 8820, Note_on_c, 4, 54, 64
11, 8850, Note_on_c, 4, 54, 0
11, 8880, Note_on_c, 4, 43, 64
11, 8910, Note_on_c, 4, 43, 0
11, 8940, Note_on_c, 4, 45, 64
11, 8970, Note_on_c, 4, 45, 0
11, 9000, Note_on_c, 4, 47, 64
11, 9030, Note_on_c, 4, 47, 0
11, 9060, Note_on_c, 4, 48, 64
11, 9090, Note_on_c, 4, 48, 0
11, 9120, Note_on_c, 4, 47, 64
11, 9150, Note_on_c, 4, 47, 0
11, 9180, Note_on_c, 4, 55, 64
11, 9210, Note_on_c, 4, 55, 0
11, 9240, Note_on_c, 4, 45, 64
11, 9270, Note_on_c, 4, 45, 0
11, 9300, Note_on_c, 4, 54, 64
11, 9330, Note_on_c, 4, 54, 0
11, 9360, Note_on_c, 4, 43, 64
11, 9390, Note_on_c, 4, 43, 0
11, 9420, Note_on_c, 4, 55, 64
11, 9450, Note_on_c, 4, 55, 0
11, 9480, Note_on_c, 4, 47, 64
11, 9510, Note_on_c, 4, 47, 0
11, 9540, Note_on_c, 4, 48, 64
11, 9570, Note_on_c, 4, 48, 0
11, 9600, Note_on_c, 4, 43, 64
11, 9630, Note_on_c, 4, 43, 0
11, 9660, Note_on_c, 4, 42, 64
11, 9690, Note_on_c, 4, 42, 0
11, 9720, Note_on_c, 4, 43, 64
11, 9750, Note_on_c, 4, 43, 0
11, 9780, Note_on_c, 4, 40, 64
11, 9810, Note_on_c, 4, 40, 0
11, 9840, Note_on_c, 4, 45, 64
11, 9870, Note_on_c, 4, 45, 0
11, 9900, Note_on_c, 4, 60, 64
11, 9930, Note_on_c, 4, 60, 0
11, 9930, Note_on_c, 4, 59, 64
11, 9960, Note_on_c, 4, 59, 0
11, 9960, Note_on_c, 4, 57, 64
11, 9990, Note_on_c, 4, 57, 0
11, 10020, Note_on_c, 4, 55, 64
11, 10050, Note_on_c, 4, 55, 0
11, 10080, Note_on_c, 4, 54, 64
11, 10110, Note_on_c, 4, 54, 0
11, 10140, Note_on_c, 4, 52, 64
11, 10170, Note_on_c, 4, 52, 0
11, 10170, Note_on_c, 4, 50, 64
11, 10200, Note_on_c, 4, 50, 0
11, 10200, Note_on_c, 4, 52, 64
11, 10230, Note_on_c, 4, 52, 0
11, 10260, Note_on_c, 4, 54, 64
11, 10290, Note_on_c, 4, 54, 0
11, 10320, Note_on_c, 4, 55, 64
11, 10350, Note_on_c, 4, 55, 0
11, 10380, Note_on_c, 4, 52, 64
11, 10410, Note_on_c, 4, 52, 0
11, 10440, Note_on_c, 4, 47, 64
11, 10470, Note_on_c, 4, 47, 0
11, 10500, Note_on_c, 4, 48, 64
11, 10530, Note_on_c, 4, 48, 0
11, 10560, Note_on_c, 4, 50, 64
11, 10590, Note_on_c, 4, 50, 0
11, 10620, Note_on_c, 4, 38, 64
11, 10650, Note_on_c, 4, 38, 0
11, 11040, Note_on_c, 4, 50, 64
11, 11100, Note_on_c, 4, 50, 0
11, 11100, Note_on_c, 4, 38, 64
11, 11130, Note_on_c, 4, 38, 0
11, 11220, Note_on_c, 4, 50, 64
11, 11250, Note_on_c, 4, 50, 0
11, 11280, Note_on_c, 4, 55, 64
11, 11310, Note_on_c, 4, 55, 0
11, 11340, Note_on_c, 4, 48, 64
11, 11370, Note_on_c, 4, 48, 0
11, 11400, Note_on_c, 4, 50, 64
11, 11430, Note_on_c, 4, 50, 0
11, 11460, Note_on_c, 4, 38, 64
11, 11490, Note_on_c, 4, 38, 0
11, 11520, Note_on_c, 4, 43, 64
11, 11580, Note_on_c, 4, 43, 0
11, 11760, Note_on_c, 4, 43, 64
11, 11790, Note_on_c, 4, 43, 0
11, 11820, Note_on_c, 4, 45, 64
11, 11850, Note_on_c, 4, 45, 0
11, 11880, Note_on_c, 4, 47, 64
11, 11910, Note_on_c, 4, 47, 0
11, 11940, Note_on_c, 4, 48, 64
11, 11970, Note_on_c, 4, 48, 0
11, 12000, Note_on_c, 4, 47, 64
11, 12030, Note_on_c, 4, 47, 0
11, 12060, Note_on_c, 4, 55, 64
11, 12090, Note_on_c, 4, 55, 0
11, 12120, Note_on_c, 4, 45, 64
11, 12150, Note_on_c, 4, 45, 0
11, 12180, Note_on_c, 4, 54, 64
11, 12210, Note_on_c, 4, 54, 0
11, 12240, Note_on_c, 4, 43, 64
11, 12270, Note_on_c, 4, 43, 0
11, 12300, Note_on_c, 4, 45, 64
11, 12330, Note_on_c, 4, 45, 0
11, 12360, Note_on_c, 4, 47, 64
11, 12390, Note_on_c, 4, 47, 0
11, 12420, Note_on_c, 4, 48, 64
11, 12450, Note_on_c, 4, 48, 0
11, 12480, Note_on_c, 4, 47, 64
11, 12510, Note_on_c, 4, 47, 0
11, 12540, Note_on_c, 4, 55, 64
11, 12570, Note_on_c, 4, 55, 0
11, 12600, Note_on_c, 4, 45, 64
11, 12630, Note_on_c, 4, 45, 0
11, 12660, Note_on_c, 4, 54, 64
11, 12690, Note_on_c, 4, 54, 0
11, 12720, Note_on_c, 4, 43, 64
11, 12750, Note_on_c, 4, 43, 0
11, 12780, Note_on_c, 4, 45, 64
11, 12810, Note_on_c, 4, 45, 0
11, 12840, Note_on_c, 4, 47, 64
11, 12870, Note_on_c, 4, 47, 0
11, 12900, Note_on_c, 4, 48, 64
11, 12930, Note_on_c, 4, 48, 0
11, 12960, Note_on_c, 4, 47, 64
11, 12990, Note_on_c, 4, 47, 0
11, 13020, Note_on_c, 4, 55, 64
11, 13050, Note_on_c, 4, 55, 0
11, 13080, Note_on_c, 4, 45, 64
11, 13110, Note_on_c, 4, 45, 0
11, 13140, Note_on_c, 4, 54, 64
11, 13170, Note_on_c, 4, 54, 0
11, 13200, Note_on_c, 4, 43, 64
11, 13230, Note_on_c, 4, 43, 0
11, 13260, Note_on_c, 4, 55, 64
11, 13290, Note_on_c, 4, 55, 0
11, 13320, Note_on_c, 4, 47, 64
11, 13350, Note_on_c, 4, 47, 0
11, 13380, Note_on_c, 4, 48, 64
11, 13410, Note_on_c, 4, 48, 0
11, 13440, Note_on_c, 4, 55, 64
11, 13470, Note_on_c, 4, 55, 0
11, 13500, Note_on_c, 4, 54, 64
11, 13530, Note_on_c, 4, 54, 0
11, 13560, Note_on_c, 4, 55, 64
11, 13590, Note_on_c, 4, 55, 0
11, 13620, Note_on_c, 4, 52, 64
11, 13650, Note_on_c, 4, 52, 0
11, 13680, Note_on_c, 4, 57, 64
11, 13710, Note_on_c, 4, 57, 0
11, 13740, Note_on_c, 4, 60, 64
11, 13770, Note_on_c, 4, 60, 0
11, 13770, Note_on_c, 4, 59, 64
11, 13800, Note_on_c, 4, 59, 0
11, 13800, Note_on_c, 4, 57, 64
11, 13830, Note_on_c, 4, 57, 0
11, 13860, Note_on_c, 4, 55, 64
11, 13890, Note_on_c, 4, 55, 0
11, 13920, Note_on_c, 4, 54, 64
11, 13950, Note_on_c, 4, 54, 0
11, 13980, Note_on_c, 4, 52, 64
11, 14010, Note_on_c, 4, 52, 0
11, 14010, Note_on_c, 4, 50, 64
11, 14040, Note_on_c, 4, 50, 0
11, 14040, Note_on_c, 4, 52, 64
11, 14070, Note_on_c, 4, 52, 0
11, 14100, Note_on_c, 4, 54, 64
11, 14130, Note_on_c, 4, 54, 0
11, 14160, Note_on_c, 4, 55, 64
11, 14190, Note_on_c, 4, 55, 0
11, 14220, Note_on_c, 4, 43, 64
11, 14250, Note_on_c, 4, 43, 0
11, 14250, Note_on_c, 4, 45, 64
11, 14280, Note_on_c, 4, 45, 0
11, 14280, Note_on_c, 4, 47, 64
11, 14310, Note_on_c, 4, 47, 0
11, 14340, Note_on_c, 4, 48, 64
11, 14370, Note_on_c, 4, 48, 0
11, 14400, Note_on_c, 4, 50, 64
11, 14430, Note_on_c, 4, 50, 0
11, 14460, Note_on_c, 4, 38, 64
11, 14490, Note_on_c, 4, 38, 0
11, 14520, Note_on_c, 4, 42, 64
11, 14550, Note_on_c, 4, 42, 0
11, 14580, Note_on_c, 4, 45, 64
11, 14610, Note_on_c, 4, 45, 0
11, 14640, Note_on_c, 4, 50, 64
11, 14670, Note_on_c, 4, 50, 0
11, 14700, Note_on_c, 4, 52, 64
11, 14730, Note_on_c, 4, 52, 0
11, 14760, Note_on_c, 4, 54, 64
11, 14790, Note_on_c, 4, 54, 0
11, 14820, Note_on_c, 4, 55, 64
11, 14850, Note_on_c, 4, 55, 0
11, 14880, Note_on_c, 4, 54, 64
11, 14910, Note_on_c, 4, 54, 0
11, 14940, Note_on_c, 4, 62, 64
11, 14970, Note_on_c, 4, 62, 0
11, 15000, Note_on_c, 4, 52, 64
11, 15030, Note_on_c, 4, 52, 0
11, 15060, Note_on_c, 4, 61, 64
11, 15090, Note_on_c, 4, 61, 0
11, 15120, Note_on_c, 4, 50, 64
11, 15150, Note_on_c, 4, 50, 0
11, 15180, Note_on_c, 4, 52, 64
11, 15210, Note_on_c, 4, 52, 0
11, 15240, Note_on_c, 4, 54, 64
11, 15270, Note_on_c, 4, 54, 0
11, 15300, Note_on_c, 4, 55, 64
11, 15330, Note_on_c, 4, 55, 0
11, 15360, Note_on_c, 4, 54, 64
11, 15390, Note_on_c, 4, 54, 0
11, 15420, Note_on_c, 4, 62, 64
11, 15450, Note_on_c, 4, 62, 0
11, 15480, Note_on_c, 4, 52, 64
11, 15510, Note_on_c, 4, 52, 0
11, 15540, Note_on_c, 4, 61, 64
11, 15570, Note_on_c, 4, 61, 0
11, 15600, Note_on_c, 4, 50, 64
11, 15630, Note_on_c, 4, 50, 0
11, 15660, Note_on_c, 4, 62, 64
11, 15690, Note_on_c, 4, 62, 0
11, 15720, Note_on_c, 4, 48, 64
11, 15750, Note_on_c, 4, 48, 0
11, 15780, Note_on_c, 4, 57, 64
11, 15810, Note_on_c, 4, 57, 0
11, 15840, Note_on_c, 4, 47, 64
11, 15870, Note_on_c, 4, 47, 0
11, 15900, Note_on_c, 4, 55, 64
11, 15930, Note_on_c, 4, 55, 0
11, 15960, Note_on_c, 4, 45, 64
11, 15990, Note_on_c, 4, 45, 0
11, 16020, Note_on_c, 4, 54, 64
11, 16050, Note_on_c, 4, 54, 0
11, 16080, Note_on_c, 4, 43, 64
11, 16110, Note_on_c, 4, 43, 0
11, 16140, Note_on_c, 4, 52, 64
11, 16170, Note_on_c, 4, 52, 0
11, 16200, Note_on_c, 4, 42, 64
11, 16230, Note_on_c, 4, 42, 0
11, 16260, Note_on_c, 4, 50, 64
11, 16290, Note_on_c, 4, 50, 0
11, 16320, Note_on_c, 4, 55, 64
11, 16350, Note_on_c, 4, 55, 0
11, 16380, Note_on_c, 4, 50, 64
11, 16410, Note_on_c, 4, 50, 0
11, 16440, Note_on_c, 4, 47, 64
11, 16470, Note_on_c, 4, 47, 0
11, 16500, Note_on_c, 4, 50, 64
11, 16530, Note_on_c, 4, 50, 0
11, 16560, Note_on_c, 4, 43, 64
11, 16590, Note_on_c, 4, 43, 0
11, 16620, Note_on_c, 4, 45, 64
11, 16650, Note_on_c, 4, 45, 0
11, 16680, Note_on_c, 4, 47, 64
11, 16710, Note_on_c, 4, 47, 0
11, 16740, Note_on_c, 4, 48, 64
11, 16770, Note_on_c, 4, 48, 0
11, 16800, Note_on_c, 4, 47, 64
11, 16830, Note_on_c, 4, 47, 0
11, 16860, Note_on_c, 4, 55, 64
11, 16890, Note_on_c, 4, 55, 0
11, 16920, Note_on_c, 4, 45, 64
11, 16950, Note_on_c, 4, 45, 0
11, 16980, Note_on_c, 4, 54, 64
11, 17010, Note_on_c, 4, 54, 0
11, 17040, Note_on_c, 4, 43, 64
11, 17070, Note_on_c, 4, 43, 0
11, 17100, Note_on_c, 4, 45, 64
11, 17130, Note_on_c, 4, 45, 0
11, 17160, Note_on_c, 4, 47, 64
11, 17190, Note_on_c, 4, 47, 0
11, 17220, Note_on_c, 4, 48, 64
11, 17250, Note_on_c, 4, 48, 0
11, 17280, Note_on_c, 4, 47, 64
11, 17310, Note_on_c, 4, 47, 0
11, 17340, Note_on_c, 4, 55, 64
11, 17370, Note_on_c, 4, 55, 0
11, 17400, Note_on_c, 4, 45, 64
11, 17430, Note_on_c, 4, 45, 0
11, 17460, Note_on_c, 4, 54, 64
11, 17490, Note_on_c, 4, 54, 0
11, 17520, Note_on_c, 4, 43, 64
11, 17550, Note_on_c, 4, 43, 0
11, 17580, Note_on_c, 4, 55, 64
11, 17610, Note_on_c, 4, 55, 0
11, 17640, Note_on_c, 4, 41, 64
11, 17670, Note_on_c, 4, 41, 0
11, 17700, Note_on_c, 4, 50, 64
11, 17730, Note_on_c, 4, 50, 0
11, 17760, Note_on_c, 4, 40, 64
11, 17790, Note_on_c, 4, 40, 0
11, 17820, Note_on_c, 4, 48, 64
11, 17850, Note_on_c, 4, 48, 0
11, 17880, Note_on_c, 4, 38, 64
11, 17910, Note_on_c, 4, 38, 0
11, 17940, Note_on_c, 4, 47, 64
11, 17970, Note_on_c, 4, 47, 0
11, 18000, Note_on_c, 4, 48, 64
11, 18030, Note_on_c, 4, 48, 0
11, 18060, Note_on_c, 4, 57, 64
11, 18090, Note_on_c, 4, 57, 0
11, 18120, Note_on_c, 4, 47, 64
11, 18150, Note_on_c, 4, 47, 0
11, 18180, Note_on_c, 4, 55, 64
11, 18210, Note_on_c, 4, 55, 0
11, 18240, Note_on_c, 4, 60, 64
11, 18270, Note_on_c, 4, 60, 0
11, 18300, Note_on_c, 4, 55, 64
11, 18330, Note_on_c, 4, 55, 0
11, 18360, Note_on_c, 4, 52, 64
11, 18390, Note_on_c, 4, 52, 0
11, 18420, Note_on_c, 4, 55, 64
11, 18450, Note_on_c, 4, 55, 0
11, 18480, Note_on_c, 4, 60, 64
11, 18510, Note_on_c, 4, 60, 0
11, 18600, Note_on_c, 4, 48, 64
11, 18630, Note_on_c, 4, 48, 0
11, 18720, Note_on_c, 4, 50, 64
11, 18750, Note_on_c, 4, 50, 0
11, 18840, Note_on_c, 4, 48, 64
11, 18870, Note_on_c, 4, 48, 0
11, 18960, Note_on_c, 4, 47, 64
11, 18990, Note_on_c, 4, 47, 0
11, 19080, Note_on_c, 4, 59, 64
11, 19110, Note_on_c, 4, 59, 0
11, 19200, Note_on_c, 4, 60, 64
11, 19230, Note_on_c, 4, 60, 0
11, 19260, Note_on_c, 4, 48, 64
11, 19290, Note_on_c, 4, 48, 0
11, 19290, Note_on_c, 4, 47, 64
11, 19320, Note_on_c, 4, 47, 0
11, 19320, Note_on_c, 4, 45, 64
11, 19350, Note_on_c, 4, 45, 0
11, 19380, Note_on_c, 4, 43, 64
11, 19410, Note_on_c, 4, 43, 0
11, 19440, Note_on_c, 4, 42, 64
11, 19470, Note_on_c, 4, 42, 0
11, 19500, Note_on_c, 4, 50, 64
11, 19530, Note_on_c, 4, 50, 0
11, 19560, Note_on_c, 4, 43, 64
11, 19590, Note_on_c, 4, 43, 0
11, 19620, Note_on_c, 4, 52, 64
11, 19650, Note_on_c, 4, 52, 0
11, 19680, Note_on_c, 4, 40, 64
11, 19710, Note_on_c, 4, 40, 0
11, 19740, Note_on_c, 4, 48, 64
11, 19770, Note_on_c, 4, 48, 0
11, 19800, Note_on_c, 4, 42, 64
11, 19830, Note_on_c, 4, 42, 0
11, 19860, Note_on_c, 4, 50, 64
11, 19890, Note_on_c, 4, 50, 0
11, 19920, Note_on_c, 4, 43, 64
11, 19950, Note_on_c, 4, 43, 0
11, 19980, Note_on_c, 4, 55, 64
11, 20010, Note_on_c, 4, 55, 0
11, 20040, Note_on_c, 4, 52, 64
11, 20070, Note_on_c, 4, 52, 0
11, 20100, Note_on_c, 4, 48, 64
11, 20130, Note_on_c, 4, 48, 0
11, 20160, Note_on_c, 4, 50, 64
11, 20190, Note_on_c, 4, 50, 0
11, 20220, Note_on_c, 4, 54, 64
11, 20250, Note_on_c, 4, 54, 0
11, 20280, Note_on_c, 4, 47, 64
11, 20310, Note_on_c, 4, 47, 0
11, 20340, Note_on_c, 4, 55, 64
11, 20370, Note_on_c, 4, 55, 0
11, 20400, Note_on_c, 4, 48, 64
11, 20430, Note_on_c, 4, 48, 0
11, 20460, Note_on_c, 4, 55, 64
11, 20490, Note_on_c, 4, 55, 0
11, 20520, Note_on_c, 4, 45, 64
11, 20550, Note_on_c, 4, 45, 0
11, 20580, Note_on_c, 4, 54, 64
11, 20610, Note_on_c, 4, 54, 0
11, 20640, Note_on_c, 4, 47, 64
11, 20670, Note_on_c, 4, 47, 0
11, 20700, Note_on_c, 4, 54, 64
11, 20730, Note_on_c, 4, 54, 0
11, 20760, Note_on_c, 4, 43, 64
11, 20790, Note_on_c, 4, 43, 0
11, 20820, Note_on_c, 4, 52, 64
11, 20850, Note_on_c, 4, 52, 0
11, 20880, Note_on_c, 4, 45, 64
11, 20910, Note_on_c, 4, 45, 0
11, 20940, Note_on_c, 4, 52, 64
11, 20970, Note_on_c, 4, 52, 0
11, 21000, Note_on_c, 4, 42, 64
11, 21030, Note_on_c, 4, 42, 0
11, 21060, Note_on_c, 4, 50, 64
11, 21090, Note_on_c, 4, 50, 0
11, 21120, Note_on_c, 4, 43, 64
11, 21150, Note_on_c, 4, 43, 0
11, 21240, Note_on_c, 4, 48, 64
11, 21270, Note_on_c, 4, 48, 0
11, 21360, Note_on_c, 4, 45, 64
11, 21390, Note_on_c, 4, 45, 0
11, 21480, Note_on_c, 4, 50, 64
11, 21510, Note_on_c, 4, 50, 0
11, 21600, Note_on_c, 4, 47, 64
11, 21630, Note_on_c, 4, 47, 0
11, 21660, Note_on_c, 4, 52, 64
11, 21690, Note_on_c, 4, 52, 0
11, 21720, Note_on_c, 4, 48, 64
11, 21750, Note_on_c, 4, 48, 0
11, 21780, Note_on_c, 4, 50, 64
11, 21810, Note_on_c, 4, 50, 0
11, 21840, Note_on_c, 4, 47, 64
11, 21870, Note_on_c, 4, 47, 0
11, 21900, Note_on_c, 4, 43, 64
11, 21930, Note_on_c, 4, 43, 0
11, 21960, Note_on_c, 4, 50, 64
11, 21990, Note_on_c, 4, 50, 0
11, 22020, Note_on_c, 4, 38, 64
11, 22050, Note_on_c, 4, 38, 0
11, 22080, Note_on_c, 4, 43, 64
11, 22110, Note_on_c, 4, 43, 0
11, 22200, Note_on_c, 4, 48, 64
11, 22230, Note_on_c, 4, 48, 0
11, 22320, Note_on_c, 4, 50, 64
11, 22350, Note_on_c, 4, 50, 0
11, 22380, Note_on_c, 4, 38, 64
11, 22410, Note_on_c, 4, 38, 0
11, 22800, Note_on_c, 4, 50, 64
11, 22830, Note_on_c, 4, 50, 0
11, 22860, Note_on_c, 4, 38, 64
11, 22890, Note_on_c, 4, 38, 0
11, 23280, Note_on_c, 4, 50, 64
11, 23340, Note_on_c, 4, 50, 0
11, 23340, Note_on_c, 4, 38, 64
11, 23370, Note_on_c, 4, 38, 0
11, 23760, Note_on_c, 4, 50, 64
11, 23790, Note_on_c, 4, 50, 0
11, 23820, Note_on_c, 4, 38, 64
11, 23850, Note_on_c, 4, 38, 0
11, 24060, Note_on_c, 4, 38, 64
11, 24090, Note_on_c, 4, 38, 0
11, 24120, Note_on_c, 4, 43, 64
11, 24150, Note_on_c, 4, 43, 0
11, 24180, Note_on_c, 4, 47, 64
11, 24210, Note_on_c, 4, 47, 0
11, 24240, Note_on_c, 4, 50, 64
11, 24270, Note_on_c, 4, 50, 0
11, 24300, Note_on_c, 4, 38, 64
11, 24330, Note_on_c, 4, 38, 0
11, 24540, Note_on_c, 4, 38, 64
11, 24570, Note_on_c, 4, 38, 0
11, 24600, Note_on_c, 4, 42, 64
11, 24630, Note_on_c, 4, 42, 0
11, 24660, Note_on_c, 4, 45, 64
11, 24690, Note_on_c, 4, 45, 0
11, 24720, Note_on_c, 4, 50, 64
11, 24750, Note_on_c, 4, 50, 0
11, 24780, Note_on_c, 4, 38, 64
11, 24810, Note_on_c, 4, 38, 0
11, 25200, Note_on_c, 4, 50, 64
11, 25230, Note_on_c, 4, 50, 0
11, 25260, Note_on_c, 4, 38, 64
11, 25290, Note_on_c, 4, 38, 0
11, 25740, Note_on_c, 4, 62, 64
11, 25770, Note_on_c, 4, 62, 0
11, 25800, Note_on_c, 4, 57, 64
11, 25830, Note_on_c, 4, 57, 0
11, 25860, Note_on_c, 4, 62, 64
11, 25890, Note_on_c, 4, 62, 0
11, 25920, Note_on_c, 4, 54, 64
11, 25950, Note_on_c, 4, 54, 0
11, 25980, Note_on_c, 4, 57, 64
11, 26010, Note_on_c, 4, 57, 0
11, 26040, Note_on_c, 4, 50, 64
11, 26070, Note_on_c, 4, 50, 0
11, 26100, Note_on_c, 4, 54, 64
11, 26130, Note_on_c, 4, 54, 0
11, 26160, Note_on_c, 4, 48, 83
11, 26190, Note_on_c, 4, 48, 0
11, 26220, Note_on_c, 4, 62, 64
11, 26250, Note_on_c, 4, 62, 0
11, 26280, Note_on_c, 4, 57, 64
11, 26310, Note_on_c, 4, 57, 0
11, 26340, Note_on_c, 4, 60, 64
11, 26370, Note_on_c, 4, 60, 0
11, 26400, Note_on_c, 4, 54, 64
11, 26430, Note_on_c, 4, 54, 0
11, 26460, Note_on_c, 4, 57, 64
11, 26490, Note_on_c, 4, 57, 0
11, 26520, Note_on_c, 4, 50, 64
11, 26550, Note_on_c, 4, 50, 0
11, 26580, Note_on_c, 4, 54, 64
11, 26610, Note_on_c, 4, 54, 0
11, 26640, Note_on_c, 4, 47, 83
11, 26670, Note_on_c, 4, 47, 0
11, 26700, Note_on_c, 4, 62, 64
11, 26730, Note_on_c, 4, 62, 0
11, 26760, Note_on_c, 4, 59, 64
11, 26790, Note_on_c, 4, 59, 0
11, 26820, Note_on_c, 4, 62, 64
11, 26850, Note_on_c, 4, 62, 0
11, 26880, Note_on_c, 4, 55, 64
11, 26910, Note_on_c, 4, 55, 0
11, 26940, Note_on_c, 4, 59, 64
11, 26970, Note_on_c, 4, 59, 0
11, 27000, Note_on_c, 4, 52, 64
11, 27030, Note_on_c, 4, 52, 0
11, 27060, Note_on_c, 4, 55, 64
11, 27090, Note_on_c, 4, 55, 0
11, 27120, Note_on_c, 4, 45, 83
11, 27150, Note_on_c, 4, 45, 0
11, 27180, Note_on_c, 4, 60, 64
11, 27210, Note_on_c, 4, 60, 0
11, 27240, Note_on_c, 4, 57, 64
11, 27270, Note_on_c, 4, 57, 0
11, 27300, Note_on_c, 4, 60, 64
11, 27330, Note_on_c, 4, 60, 0
11, 27360, Note_on_c, 4, 54, 64
11, 27390, Note_on_c, 4, 54, 0
11, 27420, Note_on_c, 4, 57, 64
11, 27450, Note_on_c, 4, 57, 0
11, 27480, Note_on_c, 4, 50, 64
11, 27510, Note_on_c, 4, 50, 0
11, 27540, Note_on_c, 4, 54, 64
11, 27570, Note_on_c, 4, 54, 0
11, 27600, Note_on_c, 4, 43, 64
11, 27630, Note_on_c, 4, 43, 0
11, 27660, Note_on_c, 4, 47, 64
11, 27690, Note_on_c, 4, 47, 0
11, 27720, Note_on_c, 4, 50, 64
11, 27750, Note_on_c, 4, 50, 0
11, 27780, Note_on_c, 4, 38, 64
11, 27810, Note_on_c, 4, 38, 0
11, 27840, Note_on_c, 4, 40, 64
11, 27870, Note_on_c, 4, 40, 0
11, 27870, Note_on_c, 4, 38, 64
11, 27885, Note_on_c, 4, 38, 0
11, 27900, Note_on_c, 4, 42, 64
11, 27930, Note_on_c, 4, 42, 0
11, 27930, Note_on_c, 4, 40, 64
11, 27945, Note_on_c, 4, 40, 0
11, 27960, Note_on_c, 4, 43, 64
11, 27990, Note_on_c, 4, 43, 0
11, 27990, Note_on_c, 4, 42, 64
11, 28005, Note_on_c, 4, 42, 0
11, 28020, Note_on_c, 4, 45, 64
11, 28050, Note_on_c, 4, 45, 0
11, 28050, Note_on_c, 4, 43, 64
11, 28065, Note_on_c, 4, 43, 0
11, 28080, Note_on_c, 4, 47, 64
11, 28110, Note_on_c, 4, 47, 0
11, 28200, Note_on_c, 4, 48, 64
11, 28230, Note_on_c, 4, 48, 0
11, 28320, Note_on_c, 4, 50, 64
11, 28350, Note_on_c, 4, 50, 0
11, 28440, Note_on_c, 4, 38, 64
11, 28470, Note_on_c, 4, 38, 0
11, 28560, Note_on_c, 4, 43, 64
11, 28590, Note_on_c, 4, 43, 0
11, 28620, Note_on_c, 4, 45, 64
11, 28650, Note_on_c, 4, 45, 0
11, 28680, Note_on_c, 4, 47, 64
11, 28710, Note_on_c, 4, 47, 0
11, 28740, Note_on_c, 4, 48, 64
11, 28770, Note_on_c, 4, 48, 0
11, 28800, Note_on_c, 4, 47, 64
11, 28830, Note_on_c, 4, 47, 0
11, 28860, Note_on_c, 4, 55, 64
11, 28890, Note_on_c, 4, 55, 0
11, 28920, Note_on_c, 4, 45, 64
11, 28950, Note_on_c, 4, 45, 0
11, 28980, Note_on_c, 4, 54, 64
11, 29010, Note_on_c, 4, 54, 0
11, 29040, Note_on_c, 4, 43, 64
11, 29070, Note_on_c, 4, 43, 0
11, 29100, Note_on_c, 4, 45, 64
11, 29130, Note_on_c, 4, 45, 0
11, 29160, Note_on_c, 4, 47, 64
11, 29190, Note_on_c, 4, 47, 0
11, 29220, Note_on_c, 4, 48, 64
11, 29250, Note_on_c, 4, 48, 0
11, 29280, Note_on_c, 4, 47, 64
11, 29310, Note_on_c, 4, 47, 0
11, 29340, Note_on_c, 4, 55, 64
11, 29370, Note_on_c, 4, 55, 0
11, 29400, Note_on_c, 4, 45, 64
11, 29430, Note_on_c, 4, 45, 0
11, 29460, Note_on_c, 4, 54, 64
11, 29490, Note_on_c, 4, 54, 0
11, 29520, Note_on_c, 4, 43, 64
11, 29550, Note_on_c, 4, 43, 0
11, 29580, Note_on_c, 4, 45, 64
11, 29610, Note_on_c, 4, 45, 0
11, 29640, Note_on_c, 4, 47, 64
11, 29670, Note_on_c, 4, 47, 0
11, 29700, Note_on_c, 4, 48, 64
11, 29730, Note_on_c, 4, 48, 0
11, 29760, Note_on_c, 4, 47, 64
11, 29790, Note_on_c, 4, 47, 0
11, 29820, Note_on_c, 4, 55, 64
11, 29850, Note_on_c, 4, 55, 0
11, 29880, Note_on_c, 4, 45, 64
11, 29910, Note_on_c, 4, 45, 0
11, 29940, Note_on_c, 4, 54, 64
11, 29970, Note_on_c, 4, 54, 0
11, 30000, Note_on_c, 4, 43, 64
11, 30030, Note_on_c, 4, 43, 0
11, 30030, Note_on_c, 4, 50, 64
11, 30060, Note_on_c, 4, 50, 0
11, 30060, Note_on_c, 4, 52, 64
11, 30090, Note_on_c, 4, 52, 0
11, 30090, Note_on_c, 4, 54, 64
11, 30120, Note_on_c, 4, 54, 0
11, 30120, Note_on_c, 4, 55, 64
11, 30150, Note_on_c, 4, 55, 0
11, 30180, Note_on_c, 4, 64, 64
11, 30210, Note_on_c, 4, 64, 0
11, 30240, Note_on_c, 4, 54, 64
11, 30270, Note_on_c, 4, 54, 0
11, 30300, Note_on_c, 4, 62, 64
11, 30330, Note_on_c, 4, 62, 0
11, 30360, Note_on_c, 4, 52, 64
11, 30390, Note_on_c, 4, 52, 0
11, 30420, Note_on_c, 4, 61, 64
11, 30450, Note_on_c, 4, 61, 0
11, 30480, Program_c, 4, 48
11, 30480, Note_on_c, 4, 50, 64
11, 31017, Program_c, 4, 45
11, 31020, Note_on_c, 4, 50, 0
11, 31020, Note_on_c, 4, 38, 41
11, 31050, Note_on_c, 4, 38, 0
11, 31440, Note_on_c, 4, 50, 44
11, 31470, Note_on_c, 4, 50, 0
11, 31500, Note_on_c, 4, 38, 45
11, 31530, Note_on_c, 4, 38, 0
11, 31740, Note_on_c, 4, 38, 47
11, 31770, Note_on_c, 4, 38, 0
11, 31800, Note_on_c, 4, 43, 47
11, 31830, Note_on_c, 4, 43, 0
11, 31860, Note_on_c, 4, 47, 48
11, 31890, Note_on_c, 4, 47, 0
11, 31920, Note_on_c, 4, 50, 48
11, 31950, Note_on_c, 4, 50, 0
11, 31980, Note_on_c, 4, 38, 49
11, 32010, Note_on_c, 4, 38, 0
11, 32220, Note_on_c, 4, 38, 51
11, 32250, Note_on_c, 4, 38, 0
11, 32280, Note_on_c, 4, 42, 51
11, 32310, Note_on_c, 4, 42, 0
11, 32340, Note_on_c, 4, 45, 52
11, 32370, Note_on_c, 4, 45, 0
11, 32400, Note_on_c, 4, 50, 52
11, 32430, Note_on_c, 4, 50, 0
11, 32460, Note_on_c, 4, 38, 53
11, 32490, Note_on_c, 4, 38, 0
11, 32880, Note_on_c, 4, 50, 56
11, 32910, Note_on_c, 4, 50, 0
11, 32940, Note_on_c, 4, 38, 57
11, 32970, Note_on_c, 4, 38, 0
11, 33420, Note_on_c, 4, 62, 61
11, 33450, Note_on_c, 4, 62, 0
11, 33480, Note_on_c, 4, 57, 61
11, 33510, Note_on_c, 4, 57, 0
11, 33540, Note_on_c, 4, 62, 62
11, 33570, Note_on_c, 4, 62, 0
11, 33600, Note_on_c, 4, 54, 62
11, 33630, Note_on_c, 4, 54, 0
11, 33660, Note_on_c, 4, 57, 63
11, 33690, Note_on_c, 4, 57, 0
11, 33720, Note_on_c, 4, 50, 63
11, 33750, Note_on_c, 4, 50, 0
11, 33780, Note_on_c, 4, 54, 64
11, 33810, Note_on_c, 4, 54, 0
11, 33840, Note_on_c, 4, 48, 83
11, 33870, Note_on_c, 4, 48, 0
11, 33900, Note_on_c, 4, 62, 64
11, 33930, Note_on_c, 4, 62, 0
11, 33960, Note_on_c, 4, 57, 65
11, 33990, Note_on_c, 4, 57, 0
11, 34020, Note_on_c, 4, 60, 65
11, 34050, Note_on_c, 4, 60, 0
11, 34080, Note_on_c, 4, 54, 66
11, 34110, Note_on_c, 4, 54, 0
11, 34140, Note_on_c, 4, 57, 66
11, 34170, Note_on_c, 4, 57, 0
11, 34200, Note_on_c, 4, 50, 67
11, 34230, Note_on_c, 4, 50, 0
11, 34260, Note_on_c, 4, 54, 67
11, 34290, Note_on_c, 4, 54, 0
11, 34320, Note_on_c, 4, 47, 87
11, 34350, Note_on_c, 4, 47, 0
11, 34380, Note_on_c, 4, 62, 68
11, 34410, Note_on_c, 4, 62, 0
11, 34440, Note_on_c, 4, 59, 69
11, 34470, Note_on_c, 4, 59, 0
11, 34500, Note_on_c, 4, 62, 69
11, 34530, Note_on_c, 4, 62, 0
11, 34560, Note_on_c, 4, 55, 70
11, 34590, Note_on_c, 4, 55, 0
11, 34620, Note_on_c, 4, 59, 70
11, 34650, Note_on_c, 4, 59, 0
11, 34680, Note_on_c, 4, 52, 70
11, 34710, Note_on_c, 4, 52, 0
11, 34740, Note_on_c, 4, 55, 71
11, 34770, Note_on_c, 4, 55, 0
11, 34800, Note_on_c, 4, 45, 90
11, 34830, Note_on_c, 4, 45, 0
11, 34860, Note_on_c, 4, 60, 72
11, 34890, Note_on_c, 4, 60, 0
11, 34920, Note_on_c, 4, 57, 72
11, 34950, Note_on_c, 4, 57, 0
11, 34980, Note_on_c, 4, 60, 73
11, 35010, Note_on_c, 4, 60, 0
11, 35040, Note_on_c, 4, 54, 73
11, 35070, Note_on_c, 4, 54, 0
11, 35100, Note_on_c, 4, 57, 74
11, 35130, Note_on_c, 4, 57, 0
11, 35160, Note_on_c, 4, 50, 74
11, 35190, Note_on_c, 4, 50, 0
11, 35220, Note_on_c, 4, 54, 75
11, 35250, Note_on_c, 4, 54, 0
11, 35280, Note_on_c, 4, 43, 94
11, 35310, Note_on_c, 4, 43, 0
11, 35340, Note_on_c, 4, 47, 75
11, 35370, Note_on_c, 4, 47, 0
11, 35400, Note_on_c, 4, 50, 75
11, 35430, Note_on_c, 4, 50, 0
11, 35460, Note_on_c, 4, 38, 75
11, 35490, Note_on_c, 4, 38, 0
11, 35520, Note_on_c, 4, 43, 75
11, 35550, Note_on_c, 4, 43, 0
11, 35580, Note_on_c, 4, 55, 75
11, 35610, Note_on_c, 4, 55, 0
11, 35640, Note_on_c, 4, 57, 75
11, 35670, Note_on_c, 4, 57, 0
11, 35700, Note_on_c, 4, 59, 75
11, 35730, Note_on_c, 4, 59, 0
11, 35760, Note_on_c, 4, 52, 64
11, 35790, Note_on_c, 4, 52, 0
11, 35880, Note_on_c, 4, 40, 64
11, 35910, Note_on_c, 4, 40, 0
11, 36000, Note_on_c, 4, 52, 64
11, 36030, Note_on_c, 4, 52, 0
11, 36120, Note_on_c, 4, 40, 64
11, 36150, Note_on_c, 4, 40, 0
11, 36240, Note_on_c, 4, 48, 64
11, 36270, Note_on_c, 4, 48, 0
11, 36360, Note_on_c, 4, 45, 64
11, 36390, Note_on_c, 4, 45, 0
11, 36480, Note_on_c, 4, 47, 64
11, 36510, Note_on_c, 4, 47, 0
11, 36540, Note_on_c, 4, 59, 64
11, 36660, Note_on_c, 4, 59, 0
11, 36660, Note_on_c, 4, 57, 64
11, 36690, Note_on_c, 4, 57, 0
11, 36720, Note_on_c, 4, 55, 64
11, 36750, Note_on_c, 4, 55, 0
11, 36780, Note_on_c, 4, 43, 64
11, 36810, Note_on_c, 4, 43, 0
11, 36840, Note_on_c, 4, 42, 64
11, 36870, Note_on_c, 4, 42, 0
11, 36900, Note_on_c, 4, 40, 64
11, 36930, Note_on_c, 4, 40, 0
11, 36960, Note_on_c, 4, 39, 64
11, 36990, Note_on_c, 4, 39, 0
11, 37020, Note_on_c, 4, 51, 64
11, 37050, Note_on_c, 4, 51, 0
11, 37080, Note_on_c, 4, 49, 64
11, 37110, Note_on_c, 4, 49, 0
11, 37140, Note_on_c, 4, 47, 64
11, 37170, Note_on_c, 4, 47, 0
11, 37200, Note_on_c, 4, 52, 64
11, 37230, Note_on_c, 4, 52, 0
11, 37260, Note_on_c, 4, 48, 64
11, 37290, Note_on_c, 4, 48, 0
11, 37320, Note_on_c, 4, 47, 64
11, 37350, Note_on_c, 4, 47, 0
11, 37380, Note_on_c, 4, 45, 64
11, 37410, Note_on_c, 4, 45, 0
11, 37440, Note_on_c, 4, 44, 64
11, 37470, Note_on_c, 4, 44, 0
11, 37500, Note_on_c, 4, 56, 64
11, 37530, Note_on_c, 4, 56, 0
11, 37560, Note_on_c, 4, 54, 64
11, 37590, Note_on_c, 4, 54, 0
11, 37620, Note_on_c, 4, 52, 64
11, 37650, Note_on_c, 4, 52, 0
11, 37680, Note_on_c, 4, 57, 64
11, 37710, Note_on_c, 4, 57, 0
11, 37800, Note_on_c, 4, 60, 64
11, 37830, Note_on_c, 4, 60, 0
11, 37920, Note_on_c, 4, 54, 64
11, 37950, Note_on_c, 4, 54, 0
11, 38040, Note_on_c, 4, 51, 64
11, 38070, Note_on_c, 4, 51, 0
11, 38160, Note_on_c, 4, 52, 64
11, 38190, Note_on_c, 4, 52, 0
11, 38220, Note_on_c, 4, 43, 64
11, 38250, Note_on_c, 4, 43, 0
11, 38280, Note_on_c, 4, 45, 64
11, 38310, Note_on_c, 4, 45, 0
11, 38340, Note_on_c, 4, 47, 64
11, 38370, Note_on_c, 4, 47, 0
11, 38400, Note_on_c, 4, 52, 64
11, 38430, Note_on_c, 4, 52, 0
11, 38460, Note_on_c, 4, 40, 64
11, 38490, Note_on_c, 4, 40, 0
11, 38520, Note_on_c, 4, 43, 64
11, 38550, Note_on_c, 4, 43, 0
11, 38580, Note_on_c, 4, 47, 64
11, 38610, Note_on_c, 4, 47, 0
11, 38640, Note_on_c, 4, 52, 64
11, 38670, Note_on_c, 4, 52, 0
11, 38700, Note_on_c, 4, 40, 64
11, 38730, Note_on_c, 4, 40, 0
11, 39120, Note_on_c, 4, 52, 64
11, 39150, Note_on_c, 4, 52, 0
11, 39180, Note_on_c, 4, 40, 64
11, 39210, Note_on_c, 4, 40, 0
11, 39420, Note_on_c, 4, 40, 64
11, 39450, Note_on_c, 4, 40, 0
11, 39480, Note_on_c, 4, 45, 64
11, 39510, Note_on_c, 4, 45, 0
11, 39540, Note_on_c, 4, 48, 64
11, 39570, Note_on_c, 4, 48, 0
11, 39600, Note_on_c, 4, 52, 64
11, 39630, Note_on_c, 4, 52, 0
11, 39660, Note_on_c, 4, 40, 64
11, 39690, Note_on_c, 4, 40, 0
11, 39720, Note_on_c, 4, 43, 64
11, 39750, Note_on_c, 4, 43, 0
11, 39780, Note_on_c, 4, 47, 64
11, 39810, Note_on_c, 4, 47, 0
11, 39840, Note_on_c, 4, 52, 64
11, 39870, Note_on_c, 4, 52, 0
11, 39900, Note_on_c, 4, 49, 64
11, 39930, Note_on_c, 4, 49, 0
11, 39960, Note_on_c, 4, 51, 64
11, 39990, Note_on_c, 4, 51, 0
11, 40020, Note_on_c, 4, 47, 64
11, 40050, Note_on_c, 4, 47, 0
11, 40080, Note_on_c, 4, 52, 64
11, 40110, Note_on_c, 4, 52, 0
11, 40140, Note_on_c, 4, 55, 64
11, 40170, Note_on_c, 4, 55, 0
11, 40200, Note_on_c, 4, 59, 64
11, 40230, Note_on_c, 4, 59, 0
11, 40260, Note_on_c, 4, 47, 64
11, 40290, Note_on_c, 4, 47, 0
11, 40320, Note_on_c, 4, 52, 64
11, 40350, Note_on_c, 4, 52, 0
11, 40380, Note_on_c, 4, 47, 64
11, 40410, Note_on_c, 4, 47, 0
11, 40440, Note_on_c, 4, 43, 64
11, 40470, Note_on_c, 4, 43, 0
11, 40500, Note_on_c, 4, 47, 64
11, 40530, Note_on_c, 4, 47, 0
11, 40560, Note_on_c, 4, 40, 64
11, 40590, Note_on_c, 4, 40, 0
11, 40680, Note_on_c, 4, 52, 64
11, 40710, Note_on_c, 4, 52, 0
11, 40800, Note_on_c, 4, 47, 64
11, 40830, Note_on_c, 4, 47, 0
11, 40920, Note_on_c, 4, 59, 64
11, 40950, Note_on_c, 4, 59, 0
11, 41040, Note_on_c, 4, 52, 64
11, 41070, Note_on_c, 4, 52, 0
11, 41160, Note_on_c, 4, 57, 64
11, 41190, Note_on_c, 4, 57, 0
11, 41280, Note_on_c, 4, 50, 64
11, 41310, Note_on_c, 4, 50, 0
11, 41340, Note_on_c, 4, 38, 64
11, 41370, Note_on_c, 4, 38, 0
11, 41400, Note_on_c, 4, 42, 64
11, 41430, Note_on_c, 4, 42, 0
11, 41460, Note_on_c, 4, 45, 64
11, 41490, Note_on_c, 4, 45, 0
11, 41520, Note_on_c, 4, 47, 64
11, 41550, Note_on_c, 4, 47, 0
11, 41580, Note_on_c, 4, 62, 64
11, 41610, Note_on_c, 4, 62, 0
11, 41640, Note_on_c, 4, 61, 64
11, 41670, Note_on_c, 4, 61, 0
11, 41700, Note_on_c, 4, 59, 64
11, 41730, Note_on_c, 4, 59, 0
11, 41760, Note_on_c, 4, 58, 64
11, 41790, Note_on_c, 4, 58, 0
11, 41820, Note_on_c, 4, 46, 64
11, 41850, Note_on_c, 4, 46, 0
11, 41880, Note_on_c, 4, 44, 64
11, 41910, Note_on_c, 4, 44, 0
11, 41940, Note_on_c, 4, 42, 64
11, 41970, Note_on_c, 4, 42, 0
11, 42000, Note_on_c, 4, 47, 64
11, 42030, Note_on_c, 4, 47, 0
11, 42060, Note_on_c, 4, 43, 64
11, 42090, Note_on_c, 4, 43, 0
11, 42120, Note_on_c, 4, 42, 64
11, 42150, Note_on_c, 4, 42, 0
11, 42180, Note_on_c, 4, 40, 64
11, 42210, Note_on_c, 4, 40, 0
11, 42240, Note_on_c, 4, 39, 64
11, 42270, Note_on_c, 4, 39, 0
11, 42300, Note_on_c, 4, 51, 64
11, 42330, Note_on_c, 4, 51, 0
11, 42360, Note_on_c, 4, 49, 64
11, 42390, Note_on_c, 4, 49, 0
11, 42420, Note_on_c, 4, 47, 64
11, 42450, Note_on_c, 4, 47, 0
11, 42480, Note_on_c, 4, 52, 64
11, 42510, Note_on_c, 4, 52, 0
11, 42600, Note_on_c, 4, 55, 64
11, 42630, Note_on_c, 4, 55, 0
11, 42720, Note_on_c, 4, 49, 64
11, 42750, Note_on_c, 4, 49, 0
11, 42840, Note_on_c, 4, 46, 64
11, 42870, Note_on_c, 4, 46, 0
11, 42960, Note_on_c, 4, 50, 64
11, 42990, Note_on_c, 4, 50, 0
11, 43020, Note_on_c, 4, 38, 64
11, 43050, Note_on_c, 4, 38, 0
11, 43080, Note_on_c, 4, 40, 64
11, 43110, Note_on_c, 4, 40, 0
11, 43140, Note_on_c, 4, 42, 64
11, 43170, Note_on_c, 4, 42, 0
11, 43200, Note_on_c, 4, 47, 64
11, 43230, Note_on_c, 4, 47, 0
11, 43260, Note_on_c, 4, 59, 64
11, 43290, Note_on_c, 4, 59, 0
11, 43320, Note_on_c, 4, 57, 64
11, 43350, Note_on_c, 4, 57, 0
11, 43380, Note_on_c, 4, 55, 64
11, 43410, Note_on_c, 4, 55, 0
11, 43440, Note_on_c, 4, 54, 64
11, 43470, Note_on_c, 4, 54, 0
11, 43500, Note_on_c, 4, 42, 64
11, 43530, Note_on_c, 4, 42, 0
11, 43920, Note_on_c, 4, 54, 64
11, 43950, Note_on_c, 4, 54, 0
11, 43980, Note_on_c, 4, 42, 64
11, 44010, Note_on_c, 4, 42, 0
11, 44460, Note_on_c, 4, 54, 64
11, 44490, Note_on_c, 4, 54, 0
11, 44520, Note_on_c, 4, 50, 64
11, 44550, Note_on_c, 4, 50, 0
11, 44580, Note_on_c, 4, 54, 64
11, 44610, Note_on_c, 4, 54, 0
11, 44640, Note_on_c, 4, 47, 64
11, 44670, Note_on_c, 4, 47, 0
11, 44700, Note_on_c, 4, 50, 64
11, 44730, Note_on_c, 4, 50, 0
11, 44760, Note_on_c, 4, 43, 64
11, 44790, Note_on_c, 4, 43, 0
11, 44820, Note_on_c, 4, 59, 64
11, 44850, Note_on_c, 4, 59, 0
11, 44880, Note_on_c, 4, 55, 64
11, 44910, Note_on_c, 4, 55, 0
11, 44940, Note_on_c, 4, 59, 64
11, 44970, Note_on_c, 4, 59, 0
11, 45000, Note_on_c, 4, 52, 64
11, 45030, Note_on_c, 4, 52, 0
11, 45060, Note_on_c, 4, 55, 64
11, 45090, Note_on_c, 4, 55, 0
11, 45120, Note_on_c, 4, 54, 64
11, 45150, Note_on_c, 4, 54, 0
11, 45240, Note_on_c, 4, 53, 64
11, 45270, Note_on_c, 4, 53, 0
11, 45360, Note_on_c, 4, 54, 64
11, 45390, Note_on_c, 4, 54, 0
11, 45480, Note_on_c, 4, 42, 64
11, 45510, Note_on_c, 4, 42, 0
11, 45600, Note_on_c, 4, 47, 64
11, 45720, Note_on_c, 4, 47, 0
11, 45840, End_track
0, 0, End_of_file
