0, 0, Header, 1, 17, 1024
1, 0, Start_track
1, 0, Time_signature, 1, 2, 24, 8
1, 0, Key_signature, 3, "major"
1, 0, Tempo, 625000
1, 1024, Time_signature, 2, 1, 48, 8
1, 1024, Tempo, 306122
1, 482044, Tempo, 324324
1, 482083, Tempo, 326086
1, 482121, Tempo, 327868
1, 482159, Tempo, 329670
1, 482172, Tempo, 317460
1, 482224, Tempo, 319148
1, 482275, Tempo, 320855
1, 482326, Tempo, 322580
1, 482377, Tempo, 324324
1, 482428, Tempo, 326086
1, 482480, Tempo, 327868
1, 482531, Tempo, 329670
1, 482582, Tempo, 331491
1, 482633, Tempo, 333333
1, 482684, Tempo, 335195
1, 482736, Tempo, 337078
1, 482787, Tempo, 338983
1, 482838, Tempo, 340909
1, 482889, Tempo, 342857
1, 482940, Tempo, 344827
1, 482992, Tempo, 346820
1, 483043, Tempo, 348837
1, 483094, Tempo, 350877
1, 483145, Tempo, 352941
1, 483196, Tempo, 355029
1, 483248, Tempo, 357142
1, 483299, Tempo, 359281
1, 483350, Tempo, 361445
1, 483401, Tempo, 363636
1, 483452, Tempo, 365853
1, 483504, Tempo, 368098
1, 483555, Tempo, 370370
1, 483606, Tempo, 372670
1, 483657, Tempo, 375000
1, 483708, Tempo, 377358
1, 483760, Tempo, 379746
1, 483811, Tempo, 382165
1, 483862, Tempo, 384615
1, 483913, Tempo, 387096
1, 483964, Tempo, 389610
1, 484016, Tempo, 392156
1, 484067, Tempo, 394736
1, 484118, Tempo, 397350
1, 484169, Tempo, 400000
1, 484220, Tempo, 402684
1, 484272, Tempo, 405405
1, 484323, Tempo, 408163
1, 484374, Tempo, 410958
1, 484425, Tempo, 413793
1, 484476, Tempo, 416666
1, 488316, Tempo, 483870
1, 488444, Tempo, 468750
1, 488540, Tempo, 472440
1, 488636, Tempo, 476190
1, 488732, Tempo, 480000
1, 488828, Tempo, 483870
1, 488924, Tempo, 487804
1, 489020, Tempo, 491803
1, 489116, Tempo, 495867
1, 489212, Tempo, 500000
1, 489308, Tempo, 504201
1, 489404, Tempo, 508474
1, 489500, Tempo, 512820
1, 489596, Tempo, 517241
1, 489692, Tempo, 521739
1, 489788, Tempo, 526315
1, 489884, Tempo, 530973
1, 489980, Tempo, 535714
1, 490076, Tempo, 540540
1, 490172, Tempo, 545454
1, 490268, Tempo, 550458
1, 490364, Tempo, 555555
1, 490460, Tempo, 560747
1, 490556, Tempo, 566037
1, 490652, Tempo, 571428
1, 490748, Tempo, 576923
1, 490844, Tempo, 582524
1, 490940, Tempo, 588235
1, 491036, Tempo, 594059
1, 491132, Tempo, 600000
1, 491228, Tempo, 606060
1, 491324, Tempo, 612244
1, 491420, Tempo, 618556
1, 491516, Tempo, 625000
1, 491612, Tempo, 631578
1, 491708, Tempo, 638297
1, 491804, Tempo, 645161
1, 491900, Tempo, 652173
1, 491996, Tempo, 659340
1, 492092, Tempo, 666666
1, 492188, Tempo, 674157
1, 492284, Tempo, 681818
1, 492380, Tempo, 689655
1, 492476, Tempo, 697674
1, 492572, Tempo, 705882
1, 492668, Tempo, 714285
1, 553862, Tempo, 714285
1, 554118, Tempo, 722891
1, 554374, Tempo, 731707
1, 554630, Tempo, 740740
1, 554886, Tempo, 750000
1, 555142, Tempo, 759493
1, 555398, Tempo, 769230
1, 555654, Tempo, 779220
1, 555910, Tempo, 789473
1, 556166, Tempo, 800000
1, 556422, Tempo, 810810
1, 556678, Tempo, 821917
1, 556934, Tempo, 833333
1, 557190, Tempo, 845070
1, 557446, Tempo, 857142
1, 557702, Tempo, 869565
1, 557958, Tempo, 882352
1, 558982, Tempo, 1200000
1, 559878, Tempo, 3750000
1, 560006, Tempo, 714285
1, 586752, Key_signature, 2, "major"
1, 590470, Tempo, 714285
1, 590688, Tempo, 722891
1, 590906, Tempo, 731707
1, 591123, Tempo, 740740
1, 591341, Tempo, 750000
1, 591558, Tempo, 759493
1, 591776, Tempo, 769230
1, 591994, Tempo, 779220
1, 592211, Tempo, 789473
1, 592429, Tempo, 800000
1, 592646, Tempo, 810810
1, 592864, Tempo, 821917
1, 593082, Tempo, 833333
1, 593299, Tempo, 845070
1, 593517, Tempo, 857142
1, 593734, Tempo, 869565
1, 593952, Tempo, 882352
1, 594170, Tempo, 895522
1, 594387, Tempo, 909090
1, 594605, Tempo, 923076
1, 594822, Tempo, 1052631
1, 594848, Tempo, 750000
1, 595088, Tempo, 740740
1, 595328, Tempo, 731707
1, 595568, Tempo, 722891
1, 595808, Tempo, 714285
1, 596048, Tempo, 705882
1, 596288, Tempo, 697674
1, 596528, Tempo, 689655
1, 596660, Tempo, 652173
1, 596681, Tempo, 645161
1, 596702, Tempo, 638297
1, 596723, Tempo, 631578
1, 596744, Tempo, 625000
1, 596765, Tempo, 618556
1, 596786, Tempo, 612244
1, 596807, Tempo, 606060
1, 596828, Tempo, 600000
1, 596849, Tempo, 594059
1, 596870, Tempo, 588235
1, 596891, Tempo, 582524
1, 596912, Tempo, 576923
1, 596933, Tempo, 571428
1, 596954, Tempo, 566037
1, 596975, Tempo, 560747
1, 596996, Tempo, 555555
1, 597017, Tempo, 550458
1, 597038, Tempo, 545454
1, 597059, Tempo, 540540
1, 597080, Tempo, 535714
1, 597101, Tempo, 530973
1, 597122, Tempo, 526315
1, 597143, Tempo, 521739
1, 597164, Tempo, 517241
1, 597185, Tempo, 512820
1, 597206, Tempo, 508474
1, 597227, Tempo, 504201
1, 597248, Tempo, 500000
1, 597269, Tempo, 495867
1, 597290, Tempo, 491803
1, 597311, Tempo, 487804
1, 597332, Tempo, 483870
1, 597353, Tempo, 480000
1, 597374, Tempo, 476190
1, 597395, Tempo, 472440
1, 597416, Tempo, 468750
1, 597437, Tempo, 465116
1, 597458, Tempo, 461538
1, 597479, Tempo, 458015
1, 597500, Tempo, 454545
1, 597521, Tempo, 451127
1, 597542, Tempo, 447761
1, 597563, Tempo, 444444
1, 597584, Tempo, 441176
1, 597605, Tempo, 437956
1, 597626, Tempo, 434782
1, 597647, Tempo, 431654
1, 597668, Tempo, 428571
1, 597689, Tempo, 425531
1, 597710, Tempo, 422535
1, 597731, Tempo, 419580
1, 597752, Tempo, 416666
1, 597773, Tempo, 413793
1, 597794, Tempo, 410958
1, 597815, Tempo, 408163
1, 597836, Tempo, 405405
1, 597857, Tempo, 402684
1, 597878, Tempo, 400000
1, 597899, Tempo, 397350
1, 597920, Tempo, 394736
1, 597940, Tempo, 392156
1, 597961, Tempo, 389610
1, 597982, Tempo, 387096
1, 598003, Tempo, 384615
1, 598024, Tempo, 382165
1, 598045, Tempo, 379746
1, 598066, Tempo, 377358
1, 598087, Tempo, 375000
1, 598108, Tempo, 372670
1, 598129, Tempo, 370370
1, 598150, Tempo, 368098
1, 598171, Tempo, 365853
1, 598192, Tempo, 363636
1, 598213, Tempo, 361445
1, 598234, Tempo, 359281
1, 598255, Tempo, 357142
1, 598276, Tempo, 355029
1, 598297, Tempo, 352941
1, 598318, Tempo, 350877
1, 598339, Tempo, 348837
1, 598360, Tempo, 346820
1, 598381, Tempo, 344827
1, 598402, Tempo, 342857
1, 598423, Tempo, 340909
1, 598444, Tempo, 338983
1, 598465, Tempo, 337078
1, 598486, Tempo, 335195
1, 598507, Tempo, 333333
1, 598528, Tempo, 331491
1, 598549, Tempo, 329670
1, 598570, Tempo, 327868
1, 598591, Tempo, 326086
1, 598612, Tempo, 324324
1, 598633, Tempo, 322580
1, 598654, Tempo, 320855
1, 598675, Tempo, 319148
1, 598696, Tempo, 317460
1, 598717, Tempo, 315789
1, 598738, Tempo, 314136
1, 598759, Tempo, 312500
1, 598780, Tempo, 310880
1, 598801, Tempo, 309278
1, 598822, Tempo, 307692
1, 598843, Tempo, 306122
1, 598864, Tempo, 304568
1, 598885, Tempo, 303030
1, 598906, Tempo, 301507
1, 598927, Tempo, 300000
1, 598948, Tempo, 298507
1, 598969, Tempo, 297029
1, 598990, Tempo, 295566
1, 599011, Tempo, 294117
1, 599032, Tempo, 292682
1, 599053, Tempo, 291262
1, 599074, Tempo, 289855
1, 599095, Tempo, 288461
1, 599116, Tempo, 287081
1, 599137, Tempo, 285714
1, 599158, Tempo, 284360
1, 599179, Tempo, 283018
1, 599200, Tempo, 281690
1, 599220, Tempo, 280373
1, 1021386, Tempo, 306122
1, 1022538, Tempo, 312500
1, 1022846, Tempo, 333333
1, 1023870, Tempo, 379746
1, 1024714, Tempo, 833333
1, 1024766, Tempo, 468750
1, 1025022, Tempo, 681818
1, 1033216, End_track
2, 0, Start_track
2, 1033216, End_track
3, 0, Start_track
3, 0, Title_t, "Trumpet"
3, 0, Program_c, 0, 56
3, 0, Control_c, 0, 121, 127
3, 0, Control_c, 0, 1, 5
3, 0, Control_c, 0, 10, 60
3, 598984, Control_c, 0, 7, 80
3, 602112, Note_on_c, 0, 62, 80
3, 602624, Note_on_c, 0, 62, 0
3, 602624, Note_on_c, 0, 66, 81
3, 603136, Note_on_c, 0, 66, 0
3, 603136, Note_on_c, 0, 69, 81
3, 603750, Note_on_c, 0, 69, 0
3, 606208, Note_on_c, 0, 66, 86
3, 606208, Note_on_c, 0, 62, 86
3, 606720, Note_on_c, 0, 66, 0
3, 606720, Note_on_c, 0, 69, 86
3, 606720, Note_on_c, 0, 62, 0
3, 606720, Note_on_c, 0, 66, 86
3, 607232, Note_on_c, 0, 69, 0
3, 607232, Note_on_c, 0, 66, 0
3, 607232, Note_on_c, 0, 74, 87
3, 607232, Note_on_c, 0, 69, 87
3, 607846, Note_on_c, 0, 74, 0
3, 607846, Note_on_c, 0, 69, 0
3, 610304, Note_on_c, 0, 69, 91
3, 610304, Note_on_c, 0, 66, 91
3, 610304, Note_on_c, 0, 62, 91
3, 610816, Note_on_c, 0, 69, 0
3, 610816, Note_on_c, 0, 74, 92
3, 610816, Note_on_c, 0, 66, 0
3, 610816, Note_on_c, 0, 69, 92
3, 610816, Note_on_c, 0, 62, 0
3, 610816, Note_on_c, 0, 66, 92
3, 611328, Note_on_c, 0, 74, 0
3, 611328, Note_on_c, 0, 69, 0
3, 611328, Note_on_c, 0, 66, 0
3, 611328, Note_on_c, 0, 78, 93
3, 611328, Note_on_c, 0, 74, 93
3, 611328, Note_on_c, 0, 69, 93
3, 611942, Note_on_c, 0, 78, 0
3, 611942, Note_on_c, 0, 74, 0
3, 611942, Note_on_c, 0, 69, 0
3, 614400, Note_on_c, 0, 74, 97
3, 614400, Note_on_c, 0, 69, 97
3, 614400, Note_on_c, 0, 66, 97
3, 614912, Note_on_c, 0, 74, 0
3, 614912, Note_on_c, 0, 78, 98
3, 614912, Note_on_c, 0, 69, 0
3, 614912, Note_on_c, 0, 74, 98
3, 614912, Note_on_c, 0, 66, 0
3, 614912, Note_on_c, 0, 69, 98
3, 615424, Note_on_c, 0, 78, 0
3, 615424, Note_on_c, 0, 74, 0
3, 615424, Note_on_c, 0, 69, 0
3, 615424, Note_on_c, 0, 81, 98
3, 615424, Note_on_c, 0, 78, 98
3, 615424, Note_on_c, 0, 74, 98
3, 616038, Note_on_c, 0, 81, 0
3, 616038, Note_on_c, 0, 78, 0
3, 616038, Note_on_c, 0, 74, 0
3, 616448, Note_on_c, 0, 81, 98
3, 616448, Note_on_c, 0, 78, 98
3, 616448, Note_on_c, 0, 74, 98
3, 617062, Note_on_c, 0, 81, 0
3, 617062, Note_on_c, 0, 78, 0
3, 617062, Note_on_c, 0, 74, 0
3, 617472, Note_on_c, 0, 81, 98
3, 617472, Note_on_c, 0, 78, 98
3, 617472, Note_on_c, 0, 74, 98
3, 618086, Note_on_c, 0, 81, 0
3, 618086, Note_on_c, 0, 78, 0
3, 618086, Note_on_c, 0, 74, 0
3, 618496, Note_on_c, 0, 81, 98
3, 618496, Note_on_c, 0, 78, 98
3, 618496, Note_on_c, 0, 74, 98
3, 619110, Note_on_c, 0, 81, 0
3, 619110, Note_on_c, 0, 78, 0
3, 619110, Note_on_c, 0, 74, 0
3, 619520, Note_on_c, 0, 81, 98
3, 619520, Note_on_c, 0, 78, 98
3, 619520, Note_on_c, 0, 74, 98
3, 620134, Note_on_c, 0, 81, 0
3, 620134, Note_on_c, 0, 78, 0
3, 620134, Note_on_c, 0, 74, 0
3, 620544, Note_on_c, 0, 79, 98
3, 620544, Note_on_c, 0, 76, 98
3, 620544, Note_on_c, 0, 74, 98
3, 621056, Note_on_c, 0, 79, 0
3, 621056, Note_on_c, 0, 81, 98
3, 621056, Note_on_c, 0, 76, 0
3, 621056, Note_on_c, 0, 78, 98
3, 621158, Note_on_c, 0, 74, 0
3, 621568, Note_on_c, 0, 81, 0
3, 621568, Note_on_c, 0, 83, 98
3, 621568, Note_on_c, 0, 78, 0
3, 621568, Note_on_c, 0, 79, 98
3, 621568, Note_on_c, 0, 74, 98
3, 622182, Note_on_c, 0, 83, 0
3, 622182, Note_on_c, 0, 79, 0
3, 622182, Note_on_c, 0, 74, 0
3, 622592, Note_on_c, 0, 81, 98
3, 622592, Note_on_c, 0, 78, 98
3, 622592, Note_on_c, 0, 74, 98
3, 623104, Note_on_c, 0, 81, 0
3, 623104, Note_on_c, 0, 79, 98
3, 623104, Note_on_c, 0, 78, 0
3, 623104, Note_on_c, 0, 76, 98
3, 623206, Note_on_c, 0, 74, 0
3, 623616, Note_on_c, 0, 79, 0
3, 623616, Note_on_c, 0, 76, 0
3, 623616, Note_on_c, 0, 81, 98
3, 623616, Note_on_c, 0, 78, 98
3, 623616, Note_on_c, 0, 74, 98
3, 624230, Note_on_c, 0, 81, 0
3, 624230, Note_on_c, 0, 78, 0
3, 624230, Note_on_c, 0, 74, 0
3, 624640, Note_on_c, 0, 78, 98
3, 624640, Note_on_c, 0, 74, 98
3, 624640, Note_on_c, 0, 69, 98
3, 625152, Note_on_c, 0, 78, 0
3, 625152, Note_on_c, 0, 81, 98
3, 625254, Note_on_c, 0, 74, 0
3, 625254, Note_on_c, 0, 69, 0
3, 625664, Note_on_c, 0, 81, 0
3, 625664, Note_on_c, 0, 86, 98
3, 626278, Note_on_c, 0, 86, 0
3, 626688, Note_on_c, 0, 81, 98
3, 626688, Note_on_c, 0, 78, 98
3, 626688, Note_on_c, 0, 74, 98
3, 627302, Note_on_c, 0, 81, 0
3, 627302, Note_on_c, 0, 78, 0
3, 627302, Note_on_c, 0, 74, 0
3, 627712, Note_on_c, 0, 79, 98
3, 627712, Note_on_c, 0, 76, 98
3, 627712, Note_on_c, 0, 69, 98
3, 628326, Note_on_c, 0, 79, 0
3, 628326, Note_on_c, 0, 76, 0
3, 628326, Note_on_c, 0, 69, 0
3, 628736, Note_on_c, 0, 78, 98
3, 628736, Note_on_c, 0, 74, 98
3, 628736, Note_on_c, 0, 69, 98
3, 629248, Note_on_c, 0, 78, 0
3, 629248, Note_on_c, 0, 79, 98
3, 629248, Note_on_c, 0, 74, 0
3, 629248, Note_on_c, 0, 76, 98
3, 629350, Note_on_c, 0, 69, 0
3, 629760, Note_on_c, 0, 79, 0
3, 629760, Note_on_c, 0, 81, 98
3, 629760, Note_on_c, 0, 76, 0
3, 629760, Note_on_c, 0, 69, 98
3, 629760, Note_on_c, 0, 69, 98
3, 630272, Note_on_c, 0, 81, 0
3, 630272, Note_on_c, 0, 79, 98
3, 630272, Note_on_c, 0, 69, 0
3, 630272, Note_on_c, 0, 76, 98
3, 630374, Note_on_c, 0, 69, 0
3, 630784, Note_on_c, 0, 79, 0
3, 630784, Note_on_c, 0, 78, 98
3, 630784, Note_on_c, 0, 76, 0
3, 630784, Note_on_c, 0, 74, 98
3, 630784, Note_on_c, 0, 69, 98
3, 631296, Note_on_c, 0, 78, 0
3, 631296, Note_on_c, 0, 76, 98
3, 631296, Note_on_c, 0, 74, 0
3, 631296, Note_on_c, 0, 73, 98
3, 631398, Note_on_c, 0, 69, 0
3, 631808, Note_on_c, 0, 76, 0
3, 631808, Note_on_c, 0, 73, 0
3, 631808, Note_on_c, 0, 78, 98
3, 631808, Note_on_c, 0, 74, 98
3, 631808, Note_on_c, 0, 69, 98
3, 632422, Note_on_c, 0, 78, 0
3, 632422, Note_on_c, 0, 74, 0
3, 632422, Note_on_c, 0, 69, 0
3, 632832, Note_on_c, 0, 76, 98
3, 632832, Note_on_c, 0, 69, 98
3, 632832, Note_on_c, 0, 69, 98
3, 633344, Note_on_c, 0, 76, 0
3, 633344, Note_on_c, 0, 78, 98
3, 633446, Note_on_c, 0, 69, 0
3, 633446, Note_on_c, 0, 69, 0
3, 633856, Note_on_c, 0, 78, 0
3, 633856, Note_on_c, 0, 74, 98
3, 633856, Note_on_c, 0, 69, 98
3, 633856, Note_on_c, 0, 69, 98
3, 634470, Note_on_c, 0, 74, 0
3, 634470, Note_on_c, 0, 69, 0
3, 634470, Note_on_c, 0, 69, 0
3, 634880, Note_on_c, 0, 76, 98
3, 634880, Note_on_c, 0, 69, 98
3, 634880, Note_on_c, 0, 69, 98
3, 635494, Note_on_c, 0, 76, 0
3, 635494, Note_on_c, 0, 69, 0
3, 635494, Note_on_c, 0, 69, 0
3, 635904, Note_on_c, 0, 78, 98
3, 635904, Note_on_c, 0, 69, 98
3, 635904, Note_on_c, 0, 69, 98
3, 636416, Note_on_c, 0, 78, 0
3, 636416, Note_on_c, 0, 80, 98
3, 636518, Note_on_c, 0, 69, 0
3, 636518, Note_on_c, 0, 69, 0
3, 636928, Note_on_c, 0, 80, 0
3, 636928, Note_on_c, 0, 76, 98
3, 637440, Note_on_c, 0, 76, 0
3, 637440, Note_on_c, 0, 78, 98
3, 637952, Note_on_c, 0, 78, 0
3, 637952, Note_on_c, 0, 80, 98
3, 637952, Note_on_c, 0, 76, 98
3, 638464, Note_on_c, 0, 80, 0
3, 638464, Note_on_c, 0, 81, 98
3, 638566, Note_on_c, 0, 76, 0
3, 638976, Note_on_c, 0, 81, 0
3, 638976, Note_on_c, 0, 78, 98
3, 639488, Note_on_c, 0, 78, 0
3, 639488, Note_on_c, 0, 80, 98
3, 640000, Note_on_c, 0, 80, 0
3, 640000, Note_on_c, 0, 81, 98
3, 640000, Note_on_c, 0, 76, 98
3, 640000, Note_on_c, 0, 76, 98
3, 640512, Note_on_c, 0, 81, 0
3, 640512, Note_on_c, 0, 83, 98
3, 640614, Note_on_c, 0, 76, 0
3, 640614, Note_on_c, 0, 76, 0
3, 641024, Note_on_c, 0, 83, 0
3, 641024, Note_on_c, 0, 80, 98
3, 641536, Note_on_c, 0, 80, 0
3, 641536, Note_on_c, 0, 81, 98
3, 642048, Note_on_c, 0, 81, 0
3, 642048, Note_on_c, 0, 83, 98
3, 642048, Note_on_c, 0, 76, 98
3, 642560, Note_on_c, 0, 83, 0
3, 642560, Note_on_c, 0, 85, 98
3, 642662, Note_on_c, 0, 76, 0
3, 643072, Note_on_c, 0, 85, 0
3, 643072, Note_on_c, 0, 81, 98
3, 643584, Note_on_c, 0, 81, 0
3, 643584, Note_on_c, 0, 83, 98
3, 644096, Note_on_c, 0, 83, 0
3, 644096, Note_on_c, 0, 85, 98
3, 644096, Note_on_c, 0, 76, 98
3, 644096, Note_on_c, 0, 69, 98
3, 644710, Note_on_c, 0, 85, 0
3, 644710, Note_on_c, 0, 76, 0
3, 644710, Note_on_c, 0, 69, 0
3, 645120, Note_on_c, 0, 83, 98
3, 645120, Note_on_c, 0, 78, 98
3, 645120, Note_on_c, 0, 74, 98
3, 645632, Note_on_c, 0, 83, 0
3, 645632, Note_on_c, 0, 81, 98
3, 645632, Note_on_c, 0, 74, 0
3, 645632, Note_on_c, 0, 73, 98
3, 645734, Note_on_c, 0, 78, 0
3, 646144, Note_on_c, 0, 81, 0
3, 646144, Note_on_c, 0, 83, 98
3, 646144, Note_on_c, 0, 78, 98
3, 646144, Note_on_c, 0, 73, 0
3, 646144, Note_on_c, 0, 74, 98
3, 646758, Note_on_c, 0, 83, 0
3, 646758, Note_on_c, 0, 78, 0
3, 646758, Note_on_c, 0, 74, 0
3, 647168, Note_on_c, 0, 80, 98
3, 647168, Note_on_c, 0, 76, 98
3, 647782, Note_on_c, 0, 80, 0
3, 647782, Note_on_c, 0, 76, 0
3, 648192, Note_on_c, 0, 81, 98
3, 648192, Note_on_c, 0, 76, 98
3, 648192, Note_on_c, 0, 69, 98
3, 650240, Note_on_c, 0, 76, 0
3, 650240, Note_on_c, 0, 69, 0
3, 651264, Note_on_c, 0, 76, 98
3, 651264, Note_on_c, 0, 69, 98
3, 651776, Note_on_c, 0, 76, 0
3, 651776, Note_on_c, 0, 76, 98
3, 651776, Note_on_c, 0, 69, 0
3, 651776, Note_on_c, 0, 69, 98
3, 652288, Note_on_c, 0, 76, 0
3, 652288, Note_on_c, 0, 69, 0
3, 652288, Note_on_c, 0, 76, 95
3, 652288, Note_on_c, 0, 69, 95
3, 654336, Note_on_c, 0, 76, 0
3, 654336, Note_on_c, 0, 69, 0
3, 655360, Note_on_c, 0, 76, 88
3, 655360, Note_on_c, 0, 69, 88
3, 655872, Note_on_c, 0, 76, 0
3, 655872, Note_on_c, 0, 76, 87
3, 655872, Note_on_c, 0, 69, 0
3, 655872, Note_on_c, 0, 69, 87
3, 656384, Note_on_c, 0, 76, 0
3, 656384, Note_on_c, 0, 69, 0
3, 656384, Note_on_c, 0, 74, 86
3, 656384, Note_on_c, 0, 66, 86
3, 658432, Note_on_c, 0, 74, 0
3, 658432, Note_on_c, 0, 66, 0
3, 659456, Note_on_c, 0, 78, 83
3, 659456, Note_on_c, 0, 74, 83
3, 659968, Note_on_c, 0, 78, 0
3, 659968, Note_on_c, 0, 78, 85
3, 659968, Note_on_c, 0, 74, 0
3, 659968, Note_on_c, 0, 74, 85
3, 660480, Note_on_c, 0, 78, 0
3, 660480, Note_on_c, 0, 74, 0
3, 660480, Note_on_c, 0, 78, 86
3, 660480, Note_on_c, 0, 74, 86
3, 662528, Note_on_c, 0, 78, 0
3, 662528, Note_on_c, 0, 74, 0
3, 663552, Note_on_c, 0, 78, 96
3, 663552, Note_on_c, 0, 62, 96
3, 664064, Note_on_c, 0, 78, 0
3, 664064, Note_on_c, 0, 78, 97
3, 664064, Note_on_c, 0, 62, 0
3, 664064, Note_on_c, 0, 62, 97
3, 664576, Note_on_c, 0, 78, 0
3, 664576, Note_on_c, 0, 62, 0
3, 664576, Note_on_c, 0, 76, 96
3, 664576, Note_on_c, 0, 69, 96
3, 666624, Note_on_c, 0, 81, 0
3, 666624, Note_on_c, 0, 76, 0
3, 666624, Note_on_c, 0, 69, 0
3, 733184, Note_on_c, 0, 62, 83
3, 733696, Note_on_c, 0, 62, 0
3, 733696, Note_on_c, 0, 66, 83
3, 734208, Note_on_c, 0, 66, 0
3, 734208, Note_on_c, 0, 69, 83
3, 734822, Note_on_c, 0, 69, 0
3, 737280, Note_on_c, 0, 66, 83
3, 737280, Note_on_c, 0, 62, 83
3, 737792, Note_on_c, 0, 66, 0
3, 737792, Note_on_c, 0, 69, 83
3, 737792, Note_on_c, 0, 62, 0
3, 737792, Note_on_c, 0, 66, 83
3, 738304, Note_on_c, 0, 69, 0
3, 738304, Note_on_c, 0, 66, 0
3, 738304, Note_on_c, 0, 74, 83
3, 738304, Note_on_c, 0, 69, 83
3, 738918, Note_on_c, 0, 74, 0
3, 738918, Note_on_c, 0, 69, 0
3, 741376, Note_on_c, 0, 69, 83
3, 741376, Note_on_c, 0, 66, 83
3, 741376, Note_on_c, 0, 62, 83
3, 741888, Note_on_c, 0, 69, 0
3, 741888, Note_on_c, 0, 74, 83
3, 741888, Note_on_c, 0, 66, 0
3, 741888, Note_on_c, 0, 69, 83
3, 741888, Note_on_c, 0, 62, 0
3, 741888, Note_on_c, 0, 66, 83
3, 742400, Note_on_c, 0, 74, 0
3, 742400, Note_on_c, 0, 69, 0
3, 742400, Note_on_c, 0, 66, 0
3, 742400, Note_on_c, 0, 78, 79
3, 742400, Note_on_c, 0, 74, 79
3, 742400, Note_on_c, 0, 69, 79
3, 743014, Note_on_c, 0, 78, 0
3, 743014, Note_on_c, 0, 74, 0
3, 743014, Note_on_c, 0, 69, 0
3, 745472, Note_on_c, 0, 74, 86
3, 745472, Note_on_c, 0, 69, 86
3, 745472, Note_on_c, 0, 66, 86
3, 745984, Note_on_c, 0, 74, 0
3, 745984, Note_on_c, 0, 78, 87
3, 745984, Note_on_c, 0, 69, 0
3, 745984, Note_on_c, 0, 74, 87
3, 745984, Note_on_c, 0, 66, 0
3, 745984, Note_on_c, 0, 69, 87
3, 746496, Note_on_c, 0, 78, 0
3, 746496, Note_on_c, 0, 74, 0
3, 746496, Note_on_c, 0, 69, 0
3, 746496, Note_on_c, 0, 81, 88
3, 746496, Note_on_c, 0, 78, 88
3, 746496, Note_on_c, 0, 74, 88
3, 747110, Note_on_c, 0, 81, 0
3, 747110, Note_on_c, 0, 78, 0
3, 747110, Note_on_c, 0, 74, 0
3, 747520, Note_on_c, 0, 81, 90
3, 747520, Note_on_c, 0, 78, 90
3, 747520, Note_on_c, 0, 74, 90
3, 748134, Note_on_c, 0, 81, 0
3, 748134, Note_on_c, 0, 78, 0
3, 748134, Note_on_c, 0, 74, 0
3, 748544, Note_on_c, 0, 81, 93
3, 748544, Note_on_c, 0, 78, 93
3, 748544, Note_on_c, 0, 74, 93
3, 749158, Note_on_c, 0, 81, 0
3, 749158, Note_on_c, 0, 78, 0
3, 749158, Note_on_c, 0, 74, 0
3, 749568, Note_on_c, 0, 81, 95
3, 749568, Note_on_c, 0, 78, 95
3, 749568, Note_on_c, 0, 74, 95
3, 750182, Note_on_c, 0, 81, 0
3, 750182, Note_on_c, 0, 78, 0
3, 750182, Note_on_c, 0, 74, 0
3, 750592, Note_on_c, 0, 81, 98
3, 750592, Note_on_c, 0, 78, 98
3, 750592, Note_on_c, 0, 74, 98
3, 751206, Note_on_c, 0, 81, 0
3, 751206, Note_on_c, 0, 78, 0
3, 751206, Note_on_c, 0, 74, 0
3, 751616, Note_on_c, 0, 79, 98
3, 751616, Note_on_c, 0, 76, 98
3, 751616, Note_on_c, 0, 74, 98
3, 752128, Note_on_c, 0, 79, 0
3, 752128, Note_on_c, 0, 81, 98
3, 752128, Note_on_c, 0, 76, 0
3, 752128, Note_on_c, 0, 78, 98
3, 752230, Note_on_c, 0, 74, 0
3, 752640, Note_on_c, 0, 81, 0
3, 752640, Note_on_c, 0, 83, 98
3, 752640, Note_on_c, 0, 78, 0
3, 752640, Note_on_c, 0, 79, 98
3, 752640, Note_on_c, 0, 74, 98
3, 753254, Note_on_c, 0, 83, 0
3, 753254, Note_on_c, 0, 79, 0
3, 753254, Note_on_c, 0, 74, 0
3, 753664, Note_on_c, 0, 81, 98
3, 753664, Note_on_c, 0, 78, 98
3, 753664, Note_on_c, 0, 74, 98
3, 754176, Note_on_c, 0, 81, 0
3, 754176, Note_on_c, 0, 79, 98
3, 754176, Note_on_c, 0, 78, 0
3, 754176, Note_on_c, 0, 76, 98
3, 754278, Note_on_c, 0, 74, 0
3, 754688, Note_on_c, 0, 79, 0
3, 754688, Note_on_c, 0, 76, 0
3, 754688, Note_on_c, 0, 81, 98
3, 754688, Note_on_c, 0, 78, 98
3, 754688, Note_on_c, 0, 74, 98
3, 755302, Note_on_c, 0, 81, 0
3, 755302, Note_on_c, 0, 78, 0
3, 755302, Note_on_c, 0, 74, 0
3, 755712, Note_on_c, 0, 78, 98
3, 755712, Note_on_c, 0, 74, 98
3, 755712, Note_on_c, 0, 69, 98
3, 756224, Note_on_c, 0, 78, 0
3, 756224, Note_on_c, 0, 81, 98
3, 756326, Note_on_c, 0, 74, 0
3, 756326, Note_on_c, 0, 69, 0
3, 756736, Note_on_c, 0, 81, 0
3, 756736, Note_on_c, 0, 86, 98
3, 757350, Note_on_c, 0, 86, 0
3, 757760, Note_on_c, 0, 81, 97
3, 757760, Note_on_c, 0, 78, 97
3, 757760, Note_on_c, 0, 74, 97
3, 758374, Note_on_c, 0, 81, 0
3, 758374, Note_on_c, 0, 78, 0
3, 758374, Note_on_c, 0, 74, 0
3, 758784, Note_on_c, 0, 79, 97
3, 758784, Note_on_c, 0, 76, 97
3, 758784, Note_on_c, 0, 69, 97
3, 759398, Note_on_c, 0, 79, 0
3, 759398, Note_on_c, 0, 76, 0
3, 759398, Note_on_c, 0, 69, 0
3, 759808, Note_on_c, 0, 78, 97
3, 759808, Note_on_c, 0, 74, 97
3, 759808, Note_on_c, 0, 69, 97
3, 760320, Note_on_c, 0, 78, 0
3, 760320, Note_on_c, 0, 79, 97
3, 760320, Note_on_c, 0, 74, 0
3, 760320, Note_on_c, 0, 76, 97
3, 760320, Note_on_c, 0, 69, 0
3, 760320, Note_on_c, 0, 69, 97
3, 760832, Note_on_c, 0, 79, 0
3, 760832, Note_on_c, 0, 81, 97
3, 760832, Note_on_c, 0, 76, 0
3, 760832, Note_on_c, 0, 69, 97
3, 760832, Note_on_c, 0, 69, 0
3, 760832, Note_on_c, 0, 69, 97
3, 761344, Note_on_c, 0, 81, 0
3, 761344, Note_on_c, 0, 79, 97
3, 761344, Note_on_c, 0, 69, 0
3, 761344, Note_on_c, 0, 76, 97
3, 761344, Note_on_c, 0, 69, 0
3, 761344, Note_on_c, 0, 69, 97
3, 761856, Note_on_c, 0, 79, 0
3, 761856, Note_on_c, 0, 78, 97
3, 761856, Note_on_c, 0, 76, 0
3, 761856, Note_on_c, 0, 74, 97
3, 761856, Note_on_c, 0, 69, 0
3, 761856, Note_on_c, 0, 69, 97
3, 762368, Note_on_c, 0, 78, 0
3, 762368, Note_on_c, 0, 76, 97
3, 762368, Note_on_c, 0, 74, 0
3, 762368, Note_on_c, 0, 73, 97
3, 762368, Note_on_c, 0, 69, 0
3, 762368, Note_on_c, 0, 69, 97
3, 762880, Note_on_c, 0, 76, 0
3, 762880, Note_on_c, 0, 73, 0
3, 762880, Note_on_c, 0, 69, 0
3, 762880, Note_on_c, 0, 78, 97
3, 762880, Note_on_c, 0, 74, 97
3, 762880, Note_on_c, 0, 69, 97
3, 763494, Note_on_c, 0, 78, 0
3, 763494, Note_on_c, 0, 74, 0
3, 763494, Note_on_c, 0, 69, 0
3, 763904, Note_on_c, 0, 74, 79
3, 763904, Note_on_c, 0, 69, 79
3, 763904, Note_on_c, 0, 66, 79
3, 764518, Note_on_c, 0, 74, 0
3, 764518, Note_on_c, 0, 69, 0
3, 764518, Note_on_c, 0, 66, 0
3, 797696, Note_on_c, 0, 76, 60
3, 797696, Note_on_c, 0, 69, 60
3, 797696, Note_on_c, 0, 69, 60
3, 798208, Note_on_c, 0, 76, 0
3, 798208, Note_on_c, 0, 78, 62
3, 798310, Note_on_c, 0, 69, 0
3, 798310, Note_on_c, 0, 69, 0
3, 798720, Note_on_c, 0, 78, 0
3, 798720, Note_on_c, 0, 74, 64
3, 799232, Note_on_c, 0, 74, 0
3, 799232, Note_on_c, 0, 76, 66
3, 799744, Note_on_c, 0, 76, 0
3, 799744, Note_on_c, 0, 78, 68
3, 799744, Note_on_c, 0, 74, 68
3, 799744, Note_on_c, 0, 69, 68
3, 800256, Note_on_c, 0, 78, 0
3, 800256, Note_on_c, 0, 80, 70
3, 800358, Note_on_c, 0, 74, 0
3, 800358, Note_on_c, 0, 69, 0
3, 800768, Note_on_c, 0, 80, 0
3, 800768, Note_on_c, 0, 76, 72
3, 801280, Note_on_c, 0, 76, 0
3, 801280, Note_on_c, 0, 78, 74
3, 801792, Note_on_c, 0, 78, 0
3, 801792, Note_on_c, 0, 80, 76
3, 801792, Note_on_c, 0, 76, 76
3, 802304, Note_on_c, 0, 80, 0
3, 802304, Note_on_c, 0, 81, 77
3, 802406, Note_on_c, 0, 76, 0
3, 802816, Note_on_c, 0, 81, 0
3, 802816, Note_on_c, 0, 78, 79
3, 803328, Note_on_c, 0, 78, 0
3, 803328, Note_on_c, 0, 80, 81
3, 803840, Note_on_c, 0, 80, 0
3, 803840, Note_on_c, 0, 81, 85
3, 803840, Note_on_c, 0, 76, 85
3, 803840, Note_on_c, 0, 69, 85
3, 804352, Note_on_c, 0, 81, 0
3, 804352, Note_on_c, 0, 83, 85
3, 804454, Note_on_c, 0, 76, 0
3, 804454, Note_on_c, 0, 69, 0
3, 804864, Note_on_c, 0, 83, 0
3, 804864, Note_on_c, 0, 80, 86
3, 805376, Note_on_c, 0, 80, 0
3, 805376, Note_on_c, 0, 81, 86
3, 805888, Note_on_c, 0, 81, 0
3, 805888, Note_on_c, 0, 83, 86
3, 805888, Note_on_c, 0, 76, 86
3, 805888, Note_on_c, 0, 74, 86
3, 806400, Note_on_c, 0, 83, 0
3, 806400, Note_on_c, 0, 85, 87
3, 806502, Note_on_c, 0, 76, 0
3, 806502, Note_on_c, 0, 74, 0
3, 806912, Note_on_c, 0, 85, 0
3, 806912, Note_on_c, 0, 81, 87
3, 807424, Note_on_c, 0, 81, 0
3, 807424, Note_on_c, 0, 83, 88
3, 807936, Note_on_c, 0, 83, 0
3, 807936, Note_on_c, 0, 85, 88
3, 807936, Note_on_c, 0, 76, 88
3, 807936, Note_on_c, 0, 69, 88
3, 808550, Note_on_c, 0, 85, 0
3, 808550, Note_on_c, 0, 76, 0
3, 808550, Note_on_c, 0, 69, 0
3, 808960, Note_on_c, 0, 83, 89
3, 808960, Note_on_c, 0, 78, 89
3, 808960, Note_on_c, 0, 74, 89
3, 809472, Note_on_c, 0, 83, 0
3, 809472, Note_on_c, 0, 81, 90
3, 809472, Note_on_c, 0, 74, 0
3, 809472, Note_on_c, 0, 73, 90
3, 809574, Note_on_c, 0, 78, 0
3, 809984, Note_on_c, 0, 81, 0
3, 809984, Note_on_c, 0, 83, 90
3, 809984, Note_on_c, 0, 78, 90
3, 809984, Note_on_c, 0, 73, 0
3, 809984, Note_on_c, 0, 74, 90
3, 810598, Note_on_c, 0, 83, 0
3, 810598, Note_on_c, 0, 78, 0
3, 810598, Note_on_c, 0, 74, 0
3, 811008, Note_on_c, 0, 80, 91
3, 811008, Note_on_c, 0, 76, 91
3, 811008, Note_on_c, 0, 76, 91
3, 811622, Note_on_c, 0, 80, 0
3, 811622, Note_on_c, 0, 76, 0
3, 811622, Note_on_c, 0, 76, 0
3, 812032, Note_on_c, 0, 81, 92
3, 812032, Note_on_c, 0, 76, 92
3, 812032, Note_on_c, 0, 69, 92
3, 812646, Note_on_c, 0, 81, 0
3, 812646, Note_on_c, 0, 76, 0
3, 812646, Note_on_c, 0, 69, 0
3, 813056, Note_on_c, 0, 85, 36
3, 813056, Note_on_c, 0, 81, 36
3, 813056, Note_on_c, 0, 76, 36
3, 813670, Note_on_c, 0, 85, 0
3, 813670, Note_on_c, 0, 81, 0
3, 813670, Note_on_c, 0, 76, 0
3, 814080, Note_on_c, 0, 85, 36
3, 814080, Note_on_c, 0, 81, 36
3, 814080, Note_on_c, 0, 76, 36
3, 814694, Note_on_c, 0, 85, 0
3, 814694, Note_on_c, 0, 81, 0
3, 814694, Note_on_c, 0, 76, 0
3, 815104, Note_on_c, 0, 85, 36
3, 815104, Note_on_c, 0, 81, 36
3, 815104, Note_on_c, 0, 76, 36
3, 815718, Note_on_c, 0, 85, 0
3, 815718, Note_on_c, 0, 81, 0
3, 815718, Note_on_c, 0, 76, 0
3, 817152, Note_on_c, 0, 85, 36
3, 817152, Note_on_c, 0, 81, 36
3, 817152, Note_on_c, 0, 76, 36
3, 817766, Note_on_c, 0, 85, 0
3, 817766, Note_on_c, 0, 81, 0
3, 817766, Note_on_c, 0, 76, 0
3, 818176, Note_on_c, 0, 85, 36
3, 818176, Note_on_c, 0, 81, 36
3, 818176, Note_on_c, 0, 76, 36
3, 818790, Note_on_c, 0, 85, 0
3, 818790, Note_on_c, 0, 81, 0
3, 818790, Note_on_c, 0, 76, 0
3, 819200, Note_on_c, 0, 85, 36
3, 819200, Note_on_c, 0, 81, 36
3, 819200, Note_on_c, 0, 76, 36
3, 819814, Note_on_c, 0, 85, 0
3, 819814, Note_on_c, 0, 81, 0
3, 819814, Note_on_c, 0, 76, 0
3, 821248, Note_on_c, 0, 85, 39
3, 821248, Note_on_c, 0, 81, 39
3, 821248, Note_on_c, 0, 76, 39
3, 821862, Note_on_c, 0, 85, 0
3, 821862, Note_on_c, 0, 81, 0
3, 821862, Note_on_c, 0, 76, 0
3, 822272, Note_on_c, 0, 85, 43
3, 822272, Note_on_c, 0, 81, 43
3, 822272, Note_on_c, 0, 76, 43
3, 822886, Note_on_c, 0, 85, 0
3, 822886, Note_on_c, 0, 81, 0
3, 822886, Note_on_c, 0, 76, 0
3, 823296, Note_on_c, 0, 85, 47
3, 823296, Note_on_c, 0, 81, 47
3, 823296, Note_on_c, 0, 76, 47
3, 823910, Note_on_c, 0, 85, 0
3, 823910, Note_on_c, 0, 81, 0
3, 823910, Note_on_c, 0, 76, 0
3, 825344, Note_on_c, 0, 85, 54
3, 825344, Note_on_c, 0, 81, 54
3, 825344, Note_on_c, 0, 76, 54
3, 825958, Note_on_c, 0, 85, 0
3, 825958, Note_on_c, 0, 81, 0
3, 825958, Note_on_c, 0, 76, 0
3, 826368, Note_on_c, 0, 85, 58
3, 826368, Note_on_c, 0, 81, 58
3, 826368, Note_on_c, 0, 76, 58
3, 826982, Note_on_c, 0, 85, 0
3, 826982, Note_on_c, 0, 81, 0
3, 826982, Note_on_c, 0, 76, 0
3, 827392, Note_on_c, 0, 85, 61
3, 827392, Note_on_c, 0, 81, 61
3, 827392, Note_on_c, 0, 76, 61
3, 828006, Note_on_c, 0, 85, 0
3, 828006, Note_on_c, 0, 81, 0
3, 828006, Note_on_c, 0, 76, 0
3, 829440, Note_on_c, 0, 85, 64
3, 829440, Note_on_c, 0, 76, 64
3, 829440, Note_on_c, 0, 69, 64
3, 830054, Note_on_c, 0, 85, 0
3, 830054, Note_on_c, 0, 76, 0
3, 830054, Note_on_c, 0, 69, 0
3, 830464, Note_on_c, 0, 85, 64
3, 830464, Note_on_c, 0, 76, 64
3, 830464, Note_on_c, 0, 69, 64
3, 831078, Note_on_c, 0, 85, 0
3, 831078, Note_on_c, 0, 76, 0
3, 831078, Note_on_c, 0, 69, 0
3, 831488, Note_on_c, 0, 85, 64
3, 831488, Note_on_c, 0, 76, 64
3, 831488, Note_on_c, 0, 69, 64
3, 832102, Note_on_c, 0, 85, 0
3, 832102, Note_on_c, 0, 76, 0
3, 832102, Note_on_c, 0, 69, 0
3, 832512, Note_on_c, 0, 85, 64
3, 832512, Note_on_c, 0, 76, 64
3, 832512, Note_on_c, 0, 69, 64
3, 833126, Note_on_c, 0, 85, 0
3, 833126, Note_on_c, 0, 76, 0
3, 833126, Note_on_c, 0, 69, 0
3, 833536, Note_on_c, 0, 83, 64
3, 833536, Note_on_c, 0, 74, 64
3, 833536, Note_on_c, 0, 69, 64
3, 834048, Note_on_c, 0, 83, 0
3, 834048, Note_on_c, 0, 85, 64
3, 834048, Note_on_c, 0, 74, 0
3, 834048, Note_on_c, 0, 76, 64
3, 834150, Note_on_c, 0, 69, 0
3, 834560, Note_on_c, 0, 85, 0
3, 834560, Note_on_c, 0, 86, 64
3, 834560, Note_on_c, 0, 76, 0
3, 834560, Note_on_c, 0, 78, 64
3, 834560, Note_on_c, 0, 69, 64
3, 835174, Note_on_c, 0, 86, 0
3, 835174, Note_on_c, 0, 78, 0
3, 835174, Note_on_c, 0, 69, 0
3, 835584, Note_on_c, 0, 85, 64
3, 835584, Note_on_c, 0, 76, 64
3, 835584, Note_on_c, 0, 69, 64
3, 836096, Note_on_c, 0, 85, 0
3, 836096, Note_on_c, 0, 83, 64
3, 836096, Note_on_c, 0, 76, 0
3, 836096, Note_on_c, 0, 74, 64
3, 836198, Note_on_c, 0, 69, 0
3, 836608, Note_on_c, 0, 83, 0
3, 836608, Note_on_c, 0, 74, 0
3, 836608, Note_on_c, 0, 85, 64
3, 836608, Note_on_c, 0, 76, 64
3, 836608, Note_on_c, 0, 69, 64
3, 837222, Note_on_c, 0, 85, 0
3, 837222, Note_on_c, 0, 76, 0
3, 837222, Note_on_c, 0, 69, 0
3, 837632, Note_on_c, 0, 85, 64
3, 837632, Note_on_c, 0, 81, 64
3, 837632, Note_on_c, 0, 76, 64
3, 838246, Note_on_c, 0, 85, 0
3, 838246, Note_on_c, 0, 81, 0
3, 838246, Note_on_c, 0, 76, 0
3, 838656, Note_on_c, 0, 85, 64
3, 838656, Note_on_c, 0, 81, 64
3, 838656, Note_on_c, 0, 76, 64
3, 839270, Note_on_c, 0, 85, 0
3, 839270, Note_on_c, 0, 81, 0
3, 839270, Note_on_c, 0, 76, 0
3, 839680, Note_on_c, 0, 85, 64
3, 839680, Note_on_c, 0, 81, 64
3, 839680, Note_on_c, 0, 76, 64
3, 840294, Note_on_c, 0, 85, 0
3, 840294, Note_on_c, 0, 81, 0
3, 840294, Note_on_c, 0, 76, 0
3, 841728, Note_on_c, 0, 83, 58
3, 841728, Note_on_c, 0, 80, 58
3, 841728, Note_on_c, 0, 74, 58
3, 842342, Note_on_c, 0, 83, 0
3, 842342, Note_on_c, 0, 80, 0
3, 842342, Note_on_c, 0, 74, 0
3, 842752, Note_on_c, 0, 83, 55
3, 842752, Note_on_c, 0, 80, 55
3, 842752, Note_on_c, 0, 74, 55
3, 843366, Note_on_c, 0, 83, 0
3, 843366, Note_on_c, 0, 80, 0
3, 843366, Note_on_c, 0, 74, 0
3, 843776, Note_on_c, 0, 83, 52
3, 843776, Note_on_c, 0, 80, 52
3, 843776, Note_on_c, 0, 74, 52
3, 844390, Note_on_c, 0, 83, 0
3, 844390, Note_on_c, 0, 80, 0
3, 844390, Note_on_c, 0, 74, 0
3, 844800, Note_on_c, 0, 81, 48
3, 844800, Note_on_c, 0, 76, 48
3, 844800, Note_on_c, 0, 69, 48
3, 845414, Note_on_c, 0, 81, 0
3, 845414, Note_on_c, 0, 76, 0
3, 845414, Note_on_c, 0, 69, 0
3, 911360, Note_on_c, 0, 79, 56
3, 911872, Note_on_c, 0, 79, 0
3, 911872, Note_on_c, 0, 81, 56
3, 912384, Note_on_c, 0, 81, 0
3, 912384, Note_on_c, 0, 83, 56
3, 912998, Note_on_c, 0, 83, 0
3, 915456, Note_on_c, 0, 83, 57
3, 915968, Note_on_c, 0, 83, 0
3, 915968, Note_on_c, 0, 79, 58
3, 916480, Note_on_c, 0, 79, 0
3, 916480, Note_on_c, 0, 76, 58
3, 917094, Note_on_c, 0, 76, 0
3, 919552, Note_on_c, 0, 78, 59
3, 920064, Note_on_c, 0, 78, 0
3, 920064, Note_on_c, 0, 79, 60
3, 920576, Note_on_c, 0, 79, 0
3, 920576, Note_on_c, 0, 81, 61
3, 921190, Note_on_c, 0, 81, 0
3, 923648, Note_on_c, 0, 81, 68
3, 924160, Note_on_c, 0, 81, 0
3, 924160, Note_on_c, 0, 78, 69
3, 924672, Note_on_c, 0, 78, 0
3, 924672, Note_on_c, 0, 74, 70
3, 925286, Note_on_c, 0, 74, 0
3, 927744, Note_on_c, 0, 76, 75
3, 928256, Note_on_c, 0, 76, 0
3, 928256, Note_on_c, 0, 78, 75
3, 928768, Note_on_c, 0, 78, 0
3, 928768, Note_on_c, 0, 79, 75
3, 929382, Note_on_c, 0, 79, 0
3, 931840, Note_on_c, 0, 79, 77
3, 932352, Note_on_c, 0, 79, 0
3, 932352, Note_on_c, 0, 78, 77
3, 932864, Note_on_c, 0, 78, 0
3, 932864, Note_on_c, 0, 79, 77
3, 933478, Note_on_c, 0, 79, 0
3, 935936, Note_on_c, 0, 69, 78
3, 935936, Note_on_c, 0, 69, 78
3, 935936, Note_on_c, 0, 69, 78
3, 936448, Note_on_c, 0, 69, 0
3, 936448, Note_on_c, 0, 69, 78
3, 936448, Note_on_c, 0, 69, 0
3, 936448, Note_on_c, 0, 69, 78
3, 936448, Note_on_c, 0, 69, 0
3, 936448, Note_on_c, 0, 69, 78
3, 936960, Note_on_c, 0, 69, 0
3, 936960, Note_on_c, 0, 69, 79
3, 936960, Note_on_c, 0, 69, 0
3, 936960, Note_on_c, 0, 69, 79
3, 936960, Note_on_c, 0, 69, 0
3, 936960, Note_on_c, 0, 69, 79
3, 937574, Note_on_c, 0, 69, 0
3, 937574, Note_on_c, 0, 69, 0
3, 937574, Note_on_c, 0, 69, 0
3, 937984, Note_on_c, 0, 69, 79
3, 937984, Note_on_c, 0, 69, 79
3, 937984, Note_on_c, 0, 69, 79
3, 938598, Note_on_c, 0, 69, 0
3, 938598, Note_on_c, 0, 69, 0
3, 938598, Note_on_c, 0, 69, 0
3, 939008, Note_on_c, 0, 69, 79
3, 939008, Note_on_c, 0, 69, 79
3, 939008, Note_on_c, 0, 69, 79
3, 939622, Note_on_c, 0, 69, 0
3, 939622, Note_on_c, 0, 69, 0
3, 939622, Note_on_c, 0, 69, 0
3, 940032, Note_on_c, 0, 69, 80
3, 940032, Note_on_c, 0, 69, 80
3, 940032, Note_on_c, 0, 69, 80
3, 940544, Note_on_c, 0, 69, 0
3, 940544, Note_on_c, 0, 69, 80
3, 940544, Note_on_c, 0, 69, 0
3, 940544, Note_on_c, 0, 69, 80
3, 940544, Note_on_c, 0, 69, 0
3, 940544, Note_on_c, 0, 69, 80
3, 941056, Note_on_c, 0, 69, 0
3, 941056, Note_on_c, 0, 69, 80
3, 941056, Note_on_c, 0, 69, 0
3, 941056, Note_on_c, 0, 69, 80
3, 941056, Note_on_c, 0, 69, 0
3, 941056, Note_on_c, 0, 69, 80
3, 941670, Note_on_c, 0, 69, 0
3, 941670, Note_on_c, 0, 69, 0
3, 941670, Note_on_c, 0, 69, 0
3, 942080, Note_on_c, 0, 69, 81
3, 942080, Note_on_c, 0, 69, 81
3, 942080, Note_on_c, 0, 69, 81
3, 942694, Note_on_c, 0, 69, 0
3, 942694, Note_on_c, 0, 69, 0
3, 942694, Note_on_c, 0, 69, 0
3, 943104, Note_on_c, 0, 69, 81
3, 943104, Note_on_c, 0, 69, 81
3, 943104, Note_on_c, 0, 69, 81
3, 943718, Note_on_c, 0, 69, 0
3, 943718, Note_on_c, 0, 69, 0
3, 943718, Note_on_c, 0, 69, 0
3, 944128, Note_on_c, 0, 74, 81
3, 944128, Note_on_c, 0, 69, 81
3, 944128, Note_on_c, 0, 69, 81
3, 944640, Note_on_c, 0, 74, 0
3, 944640, Note_on_c, 0, 76, 82
3, 944640, Note_on_c, 0, 69, 0
3, 944640, Note_on_c, 0, 69, 82
3, 944640, Note_on_c, 0, 69, 0
3, 944640, Note_on_c, 0, 69, 82
3, 945152, Note_on_c, 0, 76, 0
3, 945152, Note_on_c, 0, 78, 82
3, 945152, Note_on_c, 0, 69, 0
3, 945152, Note_on_c, 0, 74, 82
3, 945152, Note_on_c, 0, 69, 0
3, 945152, Note_on_c, 0, 69, 82
3, 945664, Note_on_c, 0, 78, 0
3, 945664, Note_on_c, 0, 79, 82
3, 945664, Note_on_c, 0, 74, 0
3, 945664, Note_on_c, 0, 76, 82
3, 945766, Note_on_c, 0, 69, 0
3, 946176, Note_on_c, 0, 79, 0
3, 946176, Note_on_c, 0, 81, 82
3, 946176, Note_on_c, 0, 76, 0
3, 946176, Note_on_c, 0, 78, 82
3, 946688, Note_on_c, 0, 81, 0
3, 946688, Note_on_c, 0, 83, 83
3, 946688, Note_on_c, 0, 78, 0
3, 946688, Note_on_c, 0, 79, 83
3, 947200, Note_on_c, 0, 83, 0
3, 947200, Note_on_c, 0, 79, 0
3, 947200, Note_on_c, 0, 81, 83
3, 947200, Note_on_c, 0, 78, 83
3, 947814, Note_on_c, 0, 81, 0
3, 947814, Note_on_c, 0, 78, 0
3, 948224, Note_on_c, 0, 79, 83
3, 948224, Note_on_c, 0, 76, 83
3, 948736, Note_on_c, 0, 79, 0
3, 948736, Note_on_c, 0, 78, 83
3, 948736, Note_on_c, 0, 76, 0
3, 948736, Note_on_c, 0, 74, 83
3, 949248, Note_on_c, 0, 78, 0
3, 949248, Note_on_c, 0, 79, 84
3, 949248, Note_on_c, 0, 74, 0
3, 949248, Note_on_c, 0, 76, 84
3, 949862, Note_on_c, 0, 79, 0
3, 949862, Note_on_c, 0, 76, 0
3, 950272, Note_on_c, 0, 78, 84
3, 950272, Note_on_c, 0, 74, 84
3, 950272, Note_on_c, 0, 69, 84
3, 950784, Note_on_c, 0, 78, 0
3, 950784, Note_on_c, 0, 76, 84
3, 950784, Note_on_c, 0, 74, 0
3, 950784, Note_on_c, 0, 73, 84
3, 950784, Note_on_c, 0, 69, 0
3, 950784, Note_on_c, 0, 69, 84
3, 951296, Note_on_c, 0, 76, 0
3, 951296, Note_on_c, 0, 73, 0
3, 951296, Note_on_c, 0, 69, 0
3, 951296, Note_on_c, 0, 78, 84
3, 951296, Note_on_c, 0, 74, 84
3, 951296, Note_on_c, 0, 69, 84
3, 951910, Note_on_c, 0, 78, 0
3, 951910, Note_on_c, 0, 74, 0
3, 951910, Note_on_c, 0, 69, 0
3, 952320, Note_on_c, 0, 74, 76
3, 952320, Note_on_c, 0, 69, 76
3, 952320, Note_on_c, 0, 66, 76
3, 952934, Note_on_c, 0, 74, 0
3, 952934, Note_on_c, 0, 69, 0
3, 952934, Note_on_c, 0, 66, 0
3, 994304, Note_on_c, 0, 76, 62
3, 994304, Note_on_c, 0, 69, 62
3, 994816, Note_on_c, 0, 76, 0
3, 994816, Note_on_c, 0, 78, 63
3, 994918, Note_on_c, 0, 69, 0
3, 995328, Note_on_c, 0, 78, 0
3, 995328, Note_on_c, 0, 74, 64
3, 995328, Note_on_c, 0, 69, 64
3, 995840, Note_on_c, 0, 74, 0
3, 995840, Note_on_c, 0, 76, 66
3, 995942, Note_on_c, 0, 69, 0
3, 996352, Note_on_c, 0, 76, 0
3, 996352, Note_on_c, 0, 78, 67
3, 996352, Note_on_c, 0, 74, 67
3, 996864, Note_on_c, 0, 78, 0
3, 996864, Note_on_c, 0, 79, 69
3, 996864, Note_on_c, 0, 74, 0
3, 996864, Note_on_c, 0, 76, 69
3, 997376, Note_on_c, 0, 79, 0
3, 997376, Note_on_c, 0, 76, 70
3, 997376, Note_on_c, 0, 76, 0
3, 997376, Note_on_c, 0, 73, 70
3, 997888, Note_on_c, 0, 76, 0
3, 997888, Note_on_c, 0, 78, 72
3, 997888, Note_on_c, 0, 73, 0
3, 997888, Note_on_c, 0, 74, 72
3, 998400, Note_on_c, 0, 78, 0
3, 998400, Note_on_c, 0, 79, 73
3, 998400, Note_on_c, 0, 74, 0
3, 998400, Note_on_c, 0, 76, 73
3, 998912, Note_on_c, 0, 79, 0
3, 998912, Note_on_c, 0, 81, 74
3, 998912, Note_on_c, 0, 76, 0
3, 998912, Note_on_c, 0, 78, 74
3, 999424, Note_on_c, 0, 81, 0
3, 999424, Note_on_c, 0, 78, 76
3, 999424, Note_on_c, 0, 78, 0
3, 999424, Note_on_c, 0, 74, 76
3, 999936, Note_on_c, 0, 78, 0
3, 999936, Note_on_c, 0, 79, 77
3, 999936, Note_on_c, 0, 74, 0
3, 999936, Note_on_c, 0, 76, 77
3, 1000448, Note_on_c, 0, 79, 0
3, 1000448, Note_on_c, 0, 76, 0
3, 1000448, Note_on_c, 0, 81, 82
3, 1000448, Note_on_c, 0, 78, 82
3, 1002496, Note_on_c, 0, 74, 86
3, 1003110, Note_on_c, 0, 74, 0
3, 1004544, Note_on_c, 0, 62, 90
3, 1005158, Note_on_c, 0, 78, 0
3, 1005158, Note_on_c, 0, 62, 0
3, 1005568, Note_on_c, 0, 79, 92
3, 1006080, Note_on_c, 0, 79, 0
3, 1006080, Note_on_c, 0, 78, 93
3, 1006592, Note_on_c, 0, 78, 0
3, 1006592, Note_on_c, 0, 76, 94
3, 1006592, Note_on_c, 0, 69, 94
3, 1007206, Note_on_c, 0, 76, 0
3, 1007206, Note_on_c, 0, 69, 0
3, 1007616, Note_on_c, 0, 78, 97
3, 1008128, Note_on_c, 0, 78, 0
3, 1008128, Note_on_c, 0, 76, 99
3, 1008640, Note_on_c, 0, 76, 0
3, 1008640, Note_on_c, 0, 74, 99
3, 1008640, Note_on_c, 0, 66, 99
3, 1009254, Note_on_c, 0, 74, 0
3, 1009254, Note_on_c, 0, 66, 0
3, 1010688, Note_on_c, 0, 76, 101
3, 1010688, Note_on_c, 0, 69, 101
3, 1011302, Note_on_c, 0, 76, 0
3, 1011302, Note_on_c, 0, 69, 0
3, 1012736, Note_on_c, 0, 78, 102
3, 1012736, Note_on_c, 0, 74, 102
3, 1013350, Note_on_c, 0, 81, 0
3, 1013350, Note_on_c, 0, 78, 0
3, 1013350, Note_on_c, 0, 74, 0
3, 1017344, Note_on_c, 0, 81, 106
3, 1017344, Note_on_c, 0, 78, 106
3, 1017856, Note_on_c, 0, 81, 0
3, 1017856, Note_on_c, 0, 79, 106
3, 1017856, Note_on_c, 0, 78, 0
3, 1017856, Note_on_c, 0, 76, 106
3, 1018368, Note_on_c, 0, 79, 0
3, 1018368, Note_on_c, 0, 81, 106
3, 1018368, Note_on_c, 0, 76, 0
3, 1018368, Note_on_c, 0, 78, 106
3, 1018880, Note_on_c, 0, 81, 0
3, 1018880, Note_on_c, 0, 78, 107
3, 1018880, Note_on_c, 0, 78, 0
3, 1018880, Note_on_c, 0, 74, 107
3, 1018880, Note_on_c, 0, 62, 107
3, 1019392, Note_on_c, 0, 78, 0
3, 1019392, Note_on_c, 0, 81, 107
3, 1019392, Note_on_c, 0, 74, 0
3, 1019392, Note_on_c, 0, 78, 107
3, 1019494, Note_on_c, 0, 62, 0
3, 1019904, Note_on_c, 0, 81, 0
3, 1019904, Note_on_c, 0, 79, 108
3, 1019904, Note_on_c, 0, 78, 0
3, 1019904, Note_on_c, 0, 76, 108
3, 1020416, Note_on_c, 0, 79, 0
3, 1020416, Note_on_c, 0, 81, 108
3, 1020416, Note_on_c, 0, 76, 0
3, 1020416, Note_on_c, 0, 78, 108
3, 1020928, Note_on_c, 0, 81, 0
3, 1020928, Note_on_c, 0, 78, 0
3, 1020928, Note_on_c, 0, 78, 108
3, 1020928, Note_on_c, 0, 74, 108
3, 1020928, Note_on_c, 0, 69, 108
3, 1021440, Note_on_c, 0, 78, 0
3, 1021440, Note_on_c, 0, 81, 108
3, 1021440, Note_on_c, 0, 74, 0
3, 1021440, Note_on_c, 0, 78, 108
3, 1021542, Note_on_c, 0, 69, 0
3, 1021952, Note_on_c, 0, 81, 0
3, 1021952, Note_on_c, 0, 79, 108
3, 1021952, Note_on_c, 0, 78, 0
3, 1021952, Note_on_c, 0, 76, 108
3, 1022464, Note_on_c, 0, 79, 0
3, 1022464, Note_on_c, 0, 81, 108
3, 1022464, Note_on_c, 0, 76, 0
3, 1022464, Note_on_c, 0, 78, 108
3, 1022976, Note_on_c, 0, 81, 0
3, 1022976, Note_on_c, 0, 78, 108
3, 1022976, Note_on_c, 0, 78, 0
3, 1022976, Note_on_c, 0, 74, 108
3, 1022976, Note_on_c, 0, 69, 108
3, 1023488, Note_on_c, 0, 78, 0
3, 1023488, Note_on_c, 0, 81, 108
3, 1023488, Note_on_c, 0, 74, 0
3, 1023488, Note_on_c, 0, 78, 108
3, 1023590, Note_on_c, 0, 69, 0
3, 1024000, Note_on_c, 0, 81, 0
3, 1024000, Note_on_c, 0, 79, 108
3, 1024000, Note_on_c, 0, 78, 0
3, 1024000, Note_on_c, 0, 76, 108
3, 1024512, Note_on_c, 0, 79, 0
3, 1024512, Note_on_c, 0, 81, 108
3, 1024512, Note_on_c, 0, 76, 0
3, 1024512, Note_on_c, 0, 78, 108
3, 1025024, Note_on_c, 0, 81, 0
3, 1025024, Note_on_c, 0, 78, 0
3, 1025024, Note_on_c, 0, 78, 108
3, 1025024, Note_on_c, 0, 74, 108
3, 1025024, Note_on_c, 0, 69, 108
3, 1025638, Note_on_c, 0, 78, 0
3, 1025638, Note_on_c, 0, 74, 0
3, 1025638, Note_on_c, 0, 69, 0
3, 1033216, End_track
4, 0, Start_track
4, 0, Title_t, "Timpani"
4, 0, Program_c, 1, 47
4, 0, Control_c, 1, 121, 127
4, 0, Control_c, 1, 10, 20
4, 598970, Control_c, 1, 7, 95
4, 600064, Note_on_c, 1, 50, 77
4, 600576, Note_on_c, 1, 50, 0
4, 600576, Note_on_c, 1, 50, 78
4, 601088, Note_on_c, 1, 50, 0
4, 601088, Note_on_c, 1, 50, 79
4, 601702, Note_on_c, 1, 50, 0
4, 604160, Note_on_c, 1, 50, 83
4, 604672, Note_on_c, 1, 50, 0
4, 604672, Note_on_c, 1, 50, 84
4, 605184, Note_on_c, 1, 50, 0
4, 605184, Note_on_c, 1, 50, 84
4, 605798, Note_on_c, 1, 50, 0
4, 608256, Note_on_c, 1, 50, 88
4, 608768, Note_on_c, 1, 50, 0
4, 608768, Note_on_c, 1, 50, 89
4, 609280, Note_on_c, 1, 50, 0
4, 609280, Note_on_c, 1, 50, 90
4, 609894, Note_on_c, 1, 50, 0
4, 612352, Note_on_c, 1, 50, 94
4, 612864, Note_on_c, 1, 50, 0
4, 612864, Note_on_c, 1, 50, 95
4, 613376, Note_on_c, 1, 50, 0
4, 613376, Note_on_c, 1, 50, 96
4, 613990, Note_on_c, 1, 50, 0
4, 616448, Note_on_c, 1, 50, 98
4, 616960, Note_on_c, 1, 50, 0
4, 616960, Note_on_c, 1, 50, 98
4, 617472, Note_on_c, 1, 50, 0
4, 617472, Note_on_c, 1, 50, 98
4, 618086, Note_on_c, 1, 50, 0
4, 618496, Note_on_c, 1, 50, 98
4, 619008, Note_on_c, 1, 50, 0
4, 619008, Note_on_c, 1, 50, 98
4, 619520, Note_on_c, 1, 50, 0
4, 619520, Note_on_c, 1, 50, 98
4, 620134, Note_on_c, 1, 50, 0
4, 620544, Note_on_c, 1, 50, 98
4, 621158, Note_on_c, 1, 50, 0
4, 621568, Note_on_c, 1, 50, 98
4, 622182, Note_on_c, 1, 50, 0
4, 622592, Note_on_c, 1, 50, 98
4, 623206, Note_on_c, 1, 50, 0
4, 623616, Note_on_c, 1, 50, 98
4, 625664, Note_on_c, 1, 50, 0
4, 626688, Note_on_c, 1, 50, 98
4, 627200, Note_on_c, 1, 50, 0
4, 627200, Note_on_c, 1, 50, 98
4, 627712, Note_on_c, 1, 50, 0
4, 627712, Note_on_c, 1, 50, 98
4, 628326, Note_on_c, 1, 50, 0
4, 628736, Note_on_c, 1, 50, 98
4, 629350, Note_on_c, 1, 50, 0
4, 629760, Note_on_c, 1, 50, 98
4, 630374, Note_on_c, 1, 50, 0
4, 630784, Note_on_c, 1, 50, 98
4, 631398, Note_on_c, 1, 50, 0
4, 631808, Note_on_c, 1, 50, 98
4, 632422, Note_on_c, 1, 50, 0
4, 632832, Note_on_c, 1, 45, 98
4, 633446, Note_on_c, 1, 45, 0
4, 633856, Note_on_c, 1, 50, 98
4, 634470, Note_on_c, 1, 50, 0
4, 634880, Note_on_c, 1, 45, 98
4, 635494, Note_on_c, 1, 45, 0
4, 635904, Note_on_c, 1, 50, 98
4, 636518, Note_on_c, 1, 50, 0
4, 640000, Note_on_c, 1, 45, 98
4, 640614, Note_on_c, 1, 45, 0
4, 644096, Note_on_c, 1, 45, 98
4, 644710, Note_on_c, 1, 45, 0
4, 645120, Note_on_c, 1, 45, 98
4, 645632, Note_on_c, 1, 45, 0
4, 645632, Note_on_c, 1, 45, 98
4, 646144, Note_on_c, 1, 45, 0
4, 646144, Note_on_c, 1, 50, 98
4, 646758, Note_on_c, 1, 50, 0
4, 648192, Note_on_c, 1, 45, 98
4, 650240, Note_on_c, 1, 45, 0
4, 651264, Note_on_c, 1, 45, 98
4, 651776, Note_on_c, 1, 45, 0
4, 651776, Note_on_c, 1, 45, 98
4, 652288, Note_on_c, 1, 45, 0
4, 652288, Note_on_c, 1, 45, 95
4, 654336, Note_on_c, 1, 45, 0
4, 655360, Note_on_c, 1, 45, 88
4, 655872, Note_on_c, 1, 45, 0
4, 655872, Note_on_c, 1, 45, 87
4, 656384, Note_on_c, 1, 45, 0
4, 656384, Note_on_c, 1, 50, 86
4, 658432, Note_on_c, 1, 50, 0
4, 659456, Note_on_c, 1, 50, 83
4, 659968, Note_on_c, 1, 50, 0
4, 659968, Note_on_c, 1, 50, 85
4, 660480, Note_on_c, 1, 50, 0
4, 660480, Note_on_c, 1, 50, 86
4, 662528, Note_on_c, 1, 50, 0
4, 663552, Note_on_c, 1, 50, 96
4, 664064, Note_on_c, 1, 50, 0
4, 664064, Note_on_c, 1, 50, 97
4, 664576, Note_on_c, 1, 50, 0
4, 664576, Note_on_c, 1, 45, 96
4, 666624, Note_on_c, 1, 45, 0
4, 702464, Note_on_c, 1, 50, 73
4, 702976, Note_on_c, 1, 50, 0
4, 702976, Note_on_c, 1, 50, 74
4, 703488, Note_on_c, 1, 50, 0
4, 703488, Note_on_c, 1, 50, 74
4, 704000, Note_on_c, 1, 50, 0
4, 704000, Note_on_c, 1, 50, 75
4, 704512, Note_on_c, 1, 50, 0
4, 704512, Note_on_c, 1, 50, 75
4, 705024, Note_on_c, 1, 50, 0
4, 705024, Note_on_c, 1, 50, 76
4, 705536, Note_on_c, 1, 50, 0
4, 705536, Note_on_c, 1, 45, 77
4, 706150, Note_on_c, 1, 45, 0
4, 710656, Note_on_c, 1, 45, 83
4, 711168, Note_on_c, 1, 45, 0
4, 711168, Note_on_c, 1, 45, 84
4, 711680, Note_on_c, 1, 45, 0
4, 711680, Note_on_c, 1, 45, 84
4, 712192, Note_on_c, 1, 45, 0
4, 712192, Note_on_c, 1, 45, 85
4, 712704, Note_on_c, 1, 45, 0
4, 712704, Note_on_c, 1, 45, 86
4, 713216, Note_on_c, 1, 45, 0
4, 713216, Note_on_c, 1, 45, 86
4, 713728, Note_on_c, 1, 45, 0
4, 713728, Note_on_c, 1, 50, 87
4, 714342, Note_on_c, 1, 50, 0
4, 718848, Note_on_c, 1, 50, 93
4, 719360, Note_on_c, 1, 50, 0
4, 719360, Note_on_c, 1, 50, 94
4, 719872, Note_on_c, 1, 50, 0
4, 719872, Note_on_c, 1, 50, 95
4, 720384, Note_on_c, 1, 50, 0
4, 720384, Note_on_c, 1, 50, 95
4, 720896, Note_on_c, 1, 50, 0
4, 720896, Note_on_c, 1, 50, 96
4, 721408, Note_on_c, 1, 50, 0
4, 721408, Note_on_c, 1, 50, 97
4, 721920, Note_on_c, 1, 50, 0
4, 721920, Note_on_c, 1, 45, 94
4, 722534, Note_on_c, 1, 45, 0
4, 727040, Note_on_c, 1, 45, 83
4, 727552, Note_on_c, 1, 45, 0
4, 727552, Note_on_c, 1, 45, 83
4, 728064, Note_on_c, 1, 45, 0
4, 728064, Note_on_c, 1, 45, 83
4, 728576, Note_on_c, 1, 45, 0
4, 728576, Note_on_c, 1, 45, 83
4, 729088, Note_on_c, 1, 45, 0
4, 729088, Note_on_c, 1, 45, 83
4, 729600, Note_on_c, 1, 45, 0
4, 729600, Note_on_c, 1, 45, 83
4, 730112, Note_on_c, 1, 45, 0
4, 730112, Note_on_c, 1, 50, 83
4, 730726, Note_on_c, 1, 50, 0
4, 731136, Note_on_c, 1, 50, 83
4, 731648, Note_on_c, 1, 50, 0
4, 731648, Note_on_c, 1, 50, 83
4, 732160, Note_on_c, 1, 50, 0
4, 732160, Note_on_c, 1, 50, 83
4, 732774, Note_on_c, 1, 50, 0
4, 735232, Note_on_c, 1, 50, 83
4, 735744, Note_on_c, 1, 50, 0
4, 735744, Note_on_c, 1, 50, 83
4, 736256, Note_on_c, 1, 50, 0
4, 736256, Note_on_c, 1, 50, 83
4, 736870, Note_on_c, 1, 50, 0
4, 739328, Note_on_c, 1, 50, 83
4, 739840, Note_on_c, 1, 50, 0
4, 739840, Note_on_c, 1, 50, 83
4, 740352, Note_on_c, 1, 50, 0
4, 740352, Note_on_c, 1, 50, 83
4, 740966, Note_on_c, 1, 50, 0
4, 743424, Note_on_c, 1, 50, 81
4, 743936, Note_on_c, 1, 50, 0
4, 743936, Note_on_c, 1, 50, 82
4, 744448, Note_on_c, 1, 50, 0
4, 744448, Note_on_c, 1, 50, 83
4, 745062, Note_on_c, 1, 50, 0
4, 747520, Note_on_c, 1, 50, 90
4, 748032, Note_on_c, 1, 50, 0
4, 748032, Note_on_c, 1, 50, 91
4, 748544, Note_on_c, 1, 50, 0
4, 748544, Note_on_c, 1, 50, 93
4, 749158, Note_on_c, 1, 50, 0
4, 749568, Note_on_c, 1, 50, 95
4, 750080, Note_on_c, 1, 50, 0
4, 750080, Note_on_c, 1, 50, 96
4, 750592, Note_on_c, 1, 50, 0
4, 750592, Note_on_c, 1, 50, 98
4, 751206, Note_on_c, 1, 50, 0
4, 751616, Note_on_c, 1, 50, 98
4, 752230, Note_on_c, 1, 50, 0
4, 752640, Note_on_c, 1, 50, 98
4, 753254, Note_on_c, 1, 50, 0
4, 753664, Note_on_c, 1, 50, 98
4, 754278, Note_on_c, 1, 50, 0
4, 754688, Note_on_c, 1, 50, 98
4, 755302, Note_on_c, 1, 50, 0
4, 757760, Note_on_c, 1, 50, 97
4, 758272, Note_on_c, 1, 50, 0
4, 758272, Note_on_c, 1, 50, 97
4, 758784, Note_on_c, 1, 50, 0
4, 758784, Note_on_c, 1, 50, 97
4, 759398, Note_on_c, 1, 50, 0
4, 759808, Note_on_c, 1, 50, 97
4, 760422, Note_on_c, 1, 50, 0
4, 760832, Note_on_c, 1, 50, 97
4, 761446, Note_on_c, 1, 50, 0
4, 761856, Note_on_c, 1, 50, 97
4, 762470, Note_on_c, 1, 50, 0
4, 762880, Note_on_c, 1, 50, 97
4, 764928, Note_on_c, 1, 50, 0
4, 797696, Note_on_c, 1, 45, 60
4, 798310, Note_on_c, 1, 45, 0
4, 799744, Note_on_c, 1, 50, 68
4, 800358, Note_on_c, 1, 50, 0
4, 803840, Note_on_c, 1, 45, 85
4, 804454, Note_on_c, 1, 45, 0
4, 807936, Note_on_c, 1, 45, 88
4, 808550, Note_on_c, 1, 45, 0
4, 808960, Note_on_c, 1, 45, 89
4, 809472, Note_on_c, 1, 45, 0
4, 809472, Note_on_c, 1, 45, 90
4, 809984, Note_on_c, 1, 45, 0
4, 809984, Note_on_c, 1, 50, 90
4, 810598, Note_on_c, 1, 50, 0
4, 813056, Note_on_c, 1, 45, 36
4, 813568, Note_on_c, 1, 45, 0
4, 813568, Note_on_c, 1, 45, 36
4, 814080, Note_on_c, 1, 45, 0
4, 814080, Note_on_c, 1, 45, 36
4, 814694, Note_on_c, 1, 45, 0
4, 817152, Note_on_c, 1, 45, 36
4, 817664, Note_on_c, 1, 45, 0
4, 817664, Note_on_c, 1, 45, 36
4, 818176, Note_on_c, 1, 45, 0
4, 818176, Note_on_c, 1, 45, 36
4, 818790, Note_on_c, 1, 45, 0
4, 821248, Note_on_c, 1, 45, 39
4, 821760, Note_on_c, 1, 45, 0
4, 821760, Note_on_c, 1, 45, 41
4, 822272, Note_on_c, 1, 45, 0
4, 822272, Note_on_c, 1, 45, 43
4, 822886, Note_on_c, 1, 45, 0
4, 825344, Note_on_c, 1, 45, 54
4, 825856, Note_on_c, 1, 45, 0
4, 825856, Note_on_c, 1, 45, 56
4, 826368, Note_on_c, 1, 45, 0
4, 826368, Note_on_c, 1, 45, 58
4, 826982, Note_on_c, 1, 45, 0
4, 829440, Note_on_c, 1, 45, 64
4, 829952, Note_on_c, 1, 45, 0
4, 829952, Note_on_c, 1, 45, 64
4, 830464, Note_on_c, 1, 45, 0
4, 830464, Note_on_c, 1, 45, 64
4, 831078, Note_on_c, 1, 45, 0
4, 831488, Note_on_c, 1, 45, 64
4, 832000, Note_on_c, 1, 45, 0
4, 832000, Note_on_c, 1, 45, 64
4, 832512, Note_on_c, 1, 45, 0
4, 832512, Note_on_c, 1, 45, 64
4, 833126, Note_on_c, 1, 45, 0
4, 833536, Note_on_c, 1, 45, 64
4, 834150, Note_on_c, 1, 45, 0
4, 834560, Note_on_c, 1, 45, 64
4, 835174, Note_on_c, 1, 45, 0
4, 835584, Note_on_c, 1, 45, 64
4, 836198, Note_on_c, 1, 45, 0
4, 836608, Note_on_c, 1, 45, 64
4, 837222, Note_on_c, 1, 45, 0
4, 837632, Note_on_c, 1, 45, 64
4, 838144, Note_on_c, 1, 45, 0
4, 838144, Note_on_c, 1, 45, 64
4, 838656, Note_on_c, 1, 45, 0
4, 838656, Note_on_c, 1, 45, 64
4, 839270, Note_on_c, 1, 45, 0
4, 841728, Note_on_c, 1, 45, 58
4, 842240, Note_on_c, 1, 45, 0
4, 842240, Note_on_c, 1, 45, 57
4, 842752, Note_on_c, 1, 45, 0
4, 842752, Note_on_c, 1, 45, 55
4, 843366, Note_on_c, 1, 45, 0
4, 844800, Note_on_c, 1, 45, 48
4, 845414, Note_on_c, 1, 45, 0
4, 935936, Note_on_c, 1, 45, 78
4, 936448, Note_on_c, 1, 45, 0
4, 936448, Note_on_c, 1, 45, 78
4, 936960, Note_on_c, 1, 45, 0
4, 936960, Note_on_c, 1, 45, 79
4, 937574, Note_on_c, 1, 45, 0
4, 937984, Note_on_c, 1, 45, 79
4, 938598, Note_on_c, 1, 45, 0
4, 939008, Note_on_c, 1, 45, 79
4, 939622, Note_on_c, 1, 45, 0
4, 940032, Note_on_c, 1, 45, 80
4, 940544, Note_on_c, 1, 45, 0
4, 940544, Note_on_c, 1, 45, 80
4, 941056, Note_on_c, 1, 45, 0
4, 941056, Note_on_c, 1, 45, 80
4, 941670, Note_on_c, 1, 45, 0
4, 942080, Note_on_c, 1, 45, 81
4, 942694, Note_on_c, 1, 45, 0
4, 943104, Note_on_c, 1, 50, 81
4, 943718, Note_on_c, 1, 50, 0
4, 944128, Note_on_c, 1, 50, 81
4, 944640, Note_on_c, 1, 50, 0
4, 944640, Note_on_c, 1, 50, 82
4, 945152, Note_on_c, 1, 50, 0
4, 945152, Note_on_c, 1, 50, 82
4, 945766, Note_on_c, 1, 50, 0
4, 950272, Note_on_c, 1, 45, 84
4, 950784, Note_on_c, 1, 45, 0
4, 950784, Note_on_c, 1, 45, 84
4, 951296, Note_on_c, 1, 45, 0
4, 951296, Note_on_c, 1, 50, 84
4, 951910, Note_on_c, 1, 50, 0
4, 1002496, Note_on_c, 1, 50, 86
4, 1003110, Note_on_c, 1, 50, 0
4, 1004544, Note_on_c, 1, 50, 90
4, 1005158, Note_on_c, 1, 50, 0
4, 1006592, Note_on_c, 1, 45, 94
4, 1007206, Note_on_c, 1, 45, 0
4, 1008640, Note_on_c, 1, 50, 99
4, 1009254, Note_on_c, 1, 50, 0
4, 1010688, Note_on_c, 1, 45, 101
4, 1011302, Note_on_c, 1, 45, 0
4, 1012736, Note_on_c, 1, 50, 102
4, 1013350, Note_on_c, 1, 50, 0
4, 1018880, Note_on_c, 1, 50, 107
4, 1019494, Note_on_c, 1, 50, 0
4, 1020928, Note_on_c, 1, 50, 108
4, 1021542, Note_on_c, 1, 50, 0
4, 1022976, Note_on_c, 1, 45, 108
4, 1023590, Note_on_c, 1, 45, 0
4, 1025024, Note_on_c, 1, 50, 108
4, 1025638, Note_on_c, 1, 50, 0
4, 1033216, End_track
5, 0, Start_track
5, 0, Title_t, "Flute"
5, 0, Program_c, 2, 73
5, 0, Control_c, 2, 121, 127
5, 0, Control_c, 2, 1, 5
5, 0, Control_c, 2, 10, 40
5, 598728, Control_c, 2, 7, 80
5, 600064, Note_on_c, 2, 62, 77
5, 600576, Note_on_c, 2, 62, 0
5, 600576, Note_on_c, 2, 66, 78
5, 601088, Note_on_c, 2, 66, 0
5, 601088, Note_on_c, 2, 69, 79
5, 601702, Note_on_c, 2, 69, 0
5, 602112, Note_on_c, 2, 66, 80
5, 602624, Note_on_c, 2, 66, 0
5, 602624, Note_on_c, 2, 69, 81
5, 603136, Note_on_c, 2, 69, 0
5, 603136, Note_on_c, 2, 74, 81
5, 603750, Note_on_c, 2, 74, 0
5, 604160, Note_on_c, 2, 66, 83
5, 604160, Note_on_c, 2, 62, 83
5, 604672, Note_on_c, 2, 66, 0
5, 604672, Note_on_c, 2, 69, 84
5, 604672, Note_on_c, 2, 62, 0
5, 604672, Note_on_c, 2, 66, 84
5, 605184, Note_on_c, 2, 69, 0
5, 605184, Note_on_c, 2, 74, 84
5, 605184, Note_on_c, 2, 66, 0
5, 605184, Note_on_c, 2, 69, 84
5, 605798, Note_on_c, 2, 74, 0
5, 605798, Note_on_c, 2, 69, 0
5, 606208, Note_on_c, 2, 69, 86
5, 606208, Note_on_c, 2, 66, 86
5, 606720, Note_on_c, 2, 69, 0
5, 606720, Note_on_c, 2, 74, 86
5, 606720, Note_on_c, 2, 66, 0
5, 606720, Note_on_c, 2, 69, 86
5, 607232, Note_on_c, 2, 74, 0
5, 607232, Note_on_c, 2, 69, 0
5, 607232, Note_on_c, 2, 78, 87
5, 607232, Note_on_c, 2, 74, 87
5, 607846, Note_on_c, 2, 78, 0
5, 607846, Note_on_c, 2, 74, 0
5, 608256, Note_on_c, 2, 69, 88
5, 608256, Note_on_c, 2, 66, 88
5, 608768, Note_on_c, 2, 69, 0
5, 608768, Note_on_c, 2, 74, 89
5, 608768, Note_on_c, 2, 66, 0
5, 608768, Note_on_c, 2, 69, 89
5, 609280, Note_on_c, 2, 74, 0
5, 609280, Note_on_c, 2, 78, 90
5, 609280, Note_on_c, 2, 69, 0
5, 609280, Note_on_c, 2, 74, 90
5, 609894, Note_on_c, 2, 78, 0
5, 609894, Note_on_c, 2, 74, 0
5, 610304, Note_on_c, 2, 81, 91
5, 610304, Note_on_c, 2, 78, 91
5, 610816, Note_on_c, 2, 81, 0
5, 610816, Note_on_c, 2, 78, 92
5, 610816, Note_on_c, 2, 78, 0
5, 610816, Note_on_c, 2, 74, 92
5, 611328, Note_on_c, 2, 78, 0
5, 611328, Note_on_c, 2, 74, 0
5, 611328, Note_on_c, 2, 74, 93
5, 611328, Note_on_c, 2, 69, 93
5, 611942, Note_on_c, 2, 74, 0
5, 611942, Note_on_c, 2, 69, 0
5, 612352, Note_on_c, 2, 78, 94
5, 612352, Note_on_c, 2, 74, 94
5, 612864, Note_on_c, 2, 78, 0
5, 612864, Note_on_c, 2, 74, 95
5, 612864, Note_on_c, 2, 74, 0
5, 612864, Note_on_c, 2, 69, 95
5, 613376, Note_on_c, 2, 74, 0
5, 613376, Note_on_c, 2, 69, 96
5, 613376, Note_on_c, 2, 69, 0
5, 613376, Note_on_c, 2, 66, 96
5, 613990, Note_on_c, 2, 69, 0
5, 613990, Note_on_c, 2, 66, 0
5, 614400, Note_on_c, 2, 74, 97
5, 614400, Note_on_c, 2, 69, 97
5, 614912, Note_on_c, 2, 74, 0
5, 614912, Note_on_c, 2, 78, 98
5, 614912, Note_on_c, 2, 69, 0
5, 614912, Note_on_c, 2, 74, 98
5, 615424, Note_on_c, 2, 78, 0
5, 615424, Note_on_c, 2, 74, 0
5, 615424, Note_on_c, 2, 81, 98
5, 615424, Note_on_c, 2, 78, 98
5, 616038, Note_on_c, 2, 81, 0
5, 616038, Note_on_c, 2, 78, 0
5, 616448, Note_on_c, 2, 81, 98
5, 616448, Note_on_c, 2, 78, 98
5, 617062, Note_on_c, 2, 81, 0
5, 617062, Note_on_c, 2, 78, 0
5, 617472, Note_on_c, 2, 81, 98
5, 617472, Note_on_c, 2, 78, 98
5, 618086, Note_on_c, 2, 81, 0
5, 618086, Note_on_c, 2, 78, 0
5, 618496, Note_on_c, 2, 81, 98
5, 618496, Note_on_c, 2, 78, 98
5, 619110, Note_on_c, 2, 81, 0
5, 619110, Note_on_c, 2, 78, 0
5, 619520, Note_on_c, 2, 81, 98
5, 619520, Note_on_c, 2, 78, 98
5, 620134, Note_on_c, 2, 81, 0
5, 620134, Note_on_c, 2, 78, 0
5, 620544, Note_on_c, 2, 79, 98
5, 620544, Note_on_c, 2, 76, 98
5, 621056, Note_on_c, 2, 79, 0
5, 621056, Note_on_c, 2, 81, 98
5, 621056, Note_on_c, 2, 76, 0
5, 621056, Note_on_c, 2, 78, 98
5, 621568, Note_on_c, 2, 81, 0
5, 621568, Note_on_c, 2, 83, 98
5, 621568, Note_on_c, 2, 78, 0
5, 621568, Note_on_c, 2, 79, 98
5, 622182, Note_on_c, 2, 83, 0
5, 622182, Note_on_c, 2, 79, 0
5, 622592, Note_on_c, 2, 81, 98
5, 622592, Note_on_c, 2, 78, 98
5, 623104, Note_on_c, 2, 81, 0
5, 623104, Note_on_c, 2, 79, 98
5, 623104, Note_on_c, 2, 78, 0
5, 623104, Note_on_c, 2, 76, 98
5, 623616, Note_on_c, 2, 79, 0
5, 623616, Note_on_c, 2, 76, 0
5, 623616, Note_on_c, 2, 81, 98
5, 623616, Note_on_c, 2, 78, 98
5, 624230, Note_on_c, 2, 81, 0
5, 624230, Note_on_c, 2, 78, 0
5, 624640, Note_on_c, 2, 78, 98
5, 624640, Note_on_c, 2, 74, 98
5, 625152, Note_on_c, 2, 78, 0
5, 625152, Note_on_c, 2, 81, 98
5, 625254, Note_on_c, 2, 74, 0
5, 625664, Note_on_c, 2, 81, 0
5, 625664, Note_on_c, 2, 86, 98
5, 626278, Note_on_c, 2, 86, 0
5, 626688, Note_on_c, 2, 81, 98
5, 626688, Note_on_c, 2, 78, 98
5, 627302, Note_on_c, 2, 81, 0
5, 627302, Note_on_c, 2, 78, 0
5, 627712, Note_on_c, 2, 79, 98
5, 627712, Note_on_c, 2, 76, 98
5, 628326, Note_on_c, 2, 79, 0
5, 628326, Note_on_c, 2, 76, 0
5, 628736, Note_on_c, 2, 78, 98
5, 628736, Note_on_c, 2, 74, 98
5, 629248, Note_on_c, 2, 78, 0
5, 629248, Note_on_c, 2, 79, 98
5, 629248, Note_on_c, 2, 74, 0
5, 629248, Note_on_c, 2, 76, 98
5, 629760, Note_on_c, 2, 79, 0
5, 629760, Note_on_c, 2, 81, 98
5, 629760, Note_on_c, 2, 76, 0
5, 629760, Note_on_c, 2, 73, 98
5, 630272, Note_on_c, 2, 81, 0
5, 630272, Note_on_c, 2, 79, 98
5, 630272, Note_on_c, 2, 73, 0
5, 630272, Note_on_c, 2, 76, 98
5, 630784, Note_on_c, 2, 79, 0
5, 630784, Note_on_c, 2, 78, 98
5, 630784, Note_on_c, 2, 76, 0
5, 630784, Note_on_c, 2, 74, 98
5, 631296, Note_on_c, 2, 78, 0
5, 631296, Note_on_c, 2, 76, 98
5, 631296, Note_on_c, 2, 74, 0
5, 631296, Note_on_c, 2, 73, 98
5, 631808, Note_on_c, 2, 76, 0
5, 631808, Note_on_c, 2, 73, 0
5, 631808, Note_on_c, 2, 78, 98
5, 631808, Note_on_c, 2, 74, 98
5, 632422, Note_on_c, 2, 78, 0
5, 632422, Note_on_c, 2, 74, 0
5, 632832, Note_on_c, 2, 76, 98
5, 632832, Note_on_c, 2, 73, 98
5, 633344, Note_on_c, 2, 76, 0
5, 633344, Note_on_c, 2, 78, 98
5, 633446, Note_on_c, 2, 73, 0
5, 633856, Note_on_c, 2, 78, 0
5, 633856, Note_on_c, 2, 74, 98
5, 633856, Note_on_c, 2, 74, 98
5, 634470, Note_on_c, 2, 74, 0
5, 634470, Note_on_c, 2, 74, 0
5, 634880, Note_on_c, 2, 76, 98
5, 634880, Note_on_c, 2, 76, 98
5, 635494, Note_on_c, 2, 76, 0
5, 635494, Note_on_c, 2, 76, 0
5, 635904, Note_on_c, 2, 78, 98
5, 635904, Note_on_c, 2, 78, 98
5, 636416, Note_on_c, 2, 78, 0
5, 636416, Note_on_c, 2, 80, 98
5, 636416, Note_on_c, 2, 78, 0
5, 636416, Note_on_c, 2, 80, 98
5, 636928, Note_on_c, 2, 80, 0
5, 636928, Note_on_c, 2, 76, 98
5, 636928, Note_on_c, 2, 80, 0
5, 636928, Note_on_c, 2, 76, 98
5, 637440, Note_on_c, 2, 76, 0
5, 637440, Note_on_c, 2, 78, 98
5, 637440, Note_on_c, 2, 76, 0
5, 637440, Note_on_c, 2, 78, 98
5, 637952, Note_on_c, 2, 78, 0
5, 637952, Note_on_c, 2, 80, 98
5, 637952, Note_on_c, 2, 78, 0
5, 637952, Note_on_c, 2, 80, 98
5, 638464, Note_on_c, 2, 80, 0
5, 638464, Note_on_c, 2, 81, 98
5, 638464, Note_on_c, 2, 80, 0
5, 638464, Note_on_c, 2, 81, 98
5, 638976, Note_on_c, 2, 81, 0
5, 638976, Note_on_c, 2, 78, 98
5, 638976, Note_on_c, 2, 81, 0
5, 638976, Note_on_c, 2, 78, 98
5, 639488, Note_on_c, 2, 78, 0
5, 639488, Note_on_c, 2, 80, 98
5, 639488, Note_on_c, 2, 78, 0
5, 639488, Note_on_c, 2, 80, 98
5, 640000, Note_on_c, 2, 80, 0
5, 640000, Note_on_c, 2, 80, 0
5, 640000, Note_on_c, 2, 81, 98
5, 640000, Note_on_c, 2, 81, 98
5, 640512, Note_on_c, 2, 81, 0
5, 640512, Note_on_c, 2, 83, 98
5, 640512, Note_on_c, 2, 81, 0
5, 640512, Note_on_c, 2, 83, 98
5, 641024, Note_on_c, 2, 83, 0
5, 641024, Note_on_c, 2, 80, 98
5, 641024, Note_on_c, 2, 83, 0
5, 641024, Note_on_c, 2, 80, 98
5, 641536, Note_on_c, 2, 80, 0
5, 641536, Note_on_c, 2, 81, 98
5, 641536, Note_on_c, 2, 80, 0
5, 641536, Note_on_c, 2, 81, 98
5, 642048, Note_on_c, 2, 81, 0
5, 642048, Note_on_c, 2, 83, 98
5, 642048, Note_on_c, 2, 81, 0
5, 642048, Note_on_c, 2, 83, 98
5, 642560, Note_on_c, 2, 83, 0
5, 642560, Note_on_c, 2, 85, 98
5, 642560, Note_on_c, 2, 83, 0
5, 642560, Note_on_c, 2, 85, 98
5, 643072, Note_on_c, 2, 85, 0
5, 643072, Note_on_c, 2, 81, 98
5, 643072, Note_on_c, 2, 85, 0
5, 643072, Note_on_c, 2, 81, 98
5, 643584, Note_on_c, 2, 81, 0
5, 643584, Note_on_c, 2, 83, 98
5, 643584, Note_on_c, 2, 81, 0
5, 643584, Note_on_c, 2, 83, 98
5, 644096, Note_on_c, 2, 83, 0
5, 644096, Note_on_c, 2, 83, 0
5, 644096, Note_on_c, 2, 85, 98
5, 644096, Note_on_c, 2, 85, 98
5, 644710, Note_on_c, 2, 85, 0
5, 644710, Note_on_c, 2, 85, 0
5, 645120, Note_on_c, 2, 83, 98
5, 645120, Note_on_c, 2, 83, 98
5, 645632, Note_on_c, 2, 83, 0
5, 645632, Note_on_c, 2, 81, 98
5, 645632, Note_on_c, 2, 83, 0
5, 645632, Note_on_c, 2, 81, 98
5, 646144, Note_on_c, 2, 81, 0
5, 646144, Note_on_c, 2, 83, 98
5, 646144, Note_on_c, 2, 81, 0
5, 646144, Note_on_c, 2, 83, 98
5, 646758, Note_on_c, 2, 83, 0
5, 646758, Note_on_c, 2, 83, 0
5, 647168, Note_on_c, 2, 80, 98
5, 647168, Note_on_c, 2, 80, 98
5, 647782, Note_on_c, 2, 80, 0
5, 647782, Note_on_c, 2, 80, 0
5, 648192, Note_on_c, 2, 81, 98
5, 648192, Note_on_c, 2, 73, 98
5, 648806, Note_on_c, 2, 81, 0
5, 648806, Note_on_c, 2, 73, 0
5, 649216, Note_on_c, 2, 69, 98
5, 649216, Note_on_c, 2, 64, 98
5, 649728, Note_on_c, 2, 69, 0
5, 649728, Note_on_c, 2, 73, 98
5, 649728, Note_on_c, 2, 64, 0
5, 649728, Note_on_c, 2, 69, 98
5, 650240, Note_on_c, 2, 73, 0
5, 650240, Note_on_c, 2, 76, 98
5, 650240, Note_on_c, 2, 69, 0
5, 650240, Note_on_c, 2, 73, 98
5, 650854, Note_on_c, 2, 76, 0
5, 650854, Note_on_c, 2, 73, 0
5, 651264, Note_on_c, 2, 73, 98
5, 651264, Note_on_c, 2, 69, 98
5, 651776, Note_on_c, 2, 73, 0
5, 651776, Note_on_c, 2, 76, 98
5, 651776, Note_on_c, 2, 69, 0
5, 651776, Note_on_c, 2, 73, 98
5, 652288, Note_on_c, 2, 76, 0
5, 652288, Note_on_c, 2, 73, 0
5, 652288, Note_on_c, 2, 79, 95
5, 652288, Note_on_c, 2, 76, 95
5, 652902, Note_on_c, 2, 79, 0
5, 652902, Note_on_c, 2, 76, 0
5, 653312, Note_on_c, 2, 69, 93
5, 653312, Note_on_c, 2, 64, 93
5, 653824, Note_on_c, 2, 69, 0
5, 653824, Note_on_c, 2, 73, 92
5, 653824, Note_on_c, 2, 64, 0
5, 653824, Note_on_c, 2, 69, 92
5, 654336, Note_on_c, 2, 73, 0
5, 654336, Note_on_c, 2, 76, 91
5, 654336, Note_on_c, 2, 69, 0
5, 654336, Note_on_c, 2, 73, 91
5, 654950, Note_on_c, 2, 76, 0
5, 654950, Note_on_c, 2, 73, 0
5, 655360, Note_on_c, 2, 73, 88
5, 655360, Note_on_c, 2, 69, 88
5, 655872, Note_on_c, 2, 73, 0
5, 655872, Note_on_c, 2, 76, 87
5, 655872, Note_on_c, 2, 69, 0
5, 655872, Note_on_c, 2, 73, 87
5, 656384, Note_on_c, 2, 76, 0
5, 656384, Note_on_c, 2, 73, 0
5, 656384, Note_on_c, 2, 78, 86
5, 656384, Note_on_c, 2, 74, 86
5, 656998, Note_on_c, 2, 78, 0
5, 656998, Note_on_c, 2, 74, 0
5, 657408, Note_on_c, 2, 74, 77
5, 657408, Note_on_c, 2, 69, 77
5, 657920, Note_on_c, 2, 74, 0
5, 657920, Note_on_c, 2, 78, 79
5, 657920, Note_on_c, 2, 69, 0
5, 657920, Note_on_c, 2, 74, 79
5, 658432, Note_on_c, 2, 78, 0
5, 658432, Note_on_c, 2, 81, 80
5, 658432, Note_on_c, 2, 74, 0
5, 658432, Note_on_c, 2, 78, 80
5, 659046, Note_on_c, 2, 81, 0
5, 659046, Note_on_c, 2, 78, 0
5, 659456, Note_on_c, 2, 78, 83
5, 659456, Note_on_c, 2, 74, 83
5, 659968, Note_on_c, 2, 78, 0
5, 659968, Note_on_c, 2, 81, 85
5, 659968, Note_on_c, 2, 74, 0
5, 659968, Note_on_c, 2, 78, 85
5, 660480, Note_on_c, 2, 81, 0
5, 660480, Note_on_c, 2, 78, 0
5, 660480, Note_on_c, 2, 86, 86
5, 660480, Note_on_c, 2, 81, 86
5, 661094, Note_on_c, 2, 86, 0
5, 661094, Note_on_c, 2, 81, 0
5, 661504, Note_on_c, 2, 74, 89
5, 661504, Note_on_c, 2, 69, 89
5, 662016, Note_on_c, 2, 74, 0
5, 662016, Note_on_c, 2, 78, 91
5, 662016, Note_on_c, 2, 69, 0
5, 662016, Note_on_c, 2, 74, 91
5, 662528, Note_on_c, 2, 78, 0
5, 662528, Note_on_c, 2, 81, 92
5, 662528, Note_on_c, 2, 74, 0
5, 662528, Note_on_c, 2, 78, 92
5, 663142, Note_on_c, 2, 81, 0
5, 663142, Note_on_c, 2, 78, 0
5, 663552, Note_on_c, 2, 78, 96
5, 663552, Note_on_c, 2, 74, 96
5, 664064, Note_on_c, 2, 78, 0
5, 664064, Note_on_c, 2, 81, 97
5, 664064, Note_on_c, 2, 74, 0
5, 664064, Note_on_c, 2, 78, 97
5, 664576, Note_on_c, 2, 81, 0
5, 664576, Note_on_c, 2, 78, 0
5, 664576, Note_on_c, 2, 85, 96
5, 664576, Note_on_c, 2, 81, 96
5, 665190, Note_on_c, 2, 85, 0
5, 665190, Note_on_c, 2, 81, 0
5, 665600, Note_on_c, 2, 81, 52
5, 665600, Note_on_c, 2, 76, 52
5, 666112, Note_on_c, 2, 81, 0
5, 666112, Note_on_c, 2, 76, 52
5, 666112, Note_on_c, 2, 76, 0
5, 666112, Note_on_c, 2, 73, 52
5, 666624, Note_on_c, 2, 76, 0
5, 666624, Note_on_c, 2, 73, 52
5, 666624, Note_on_c, 2, 73, 0
5, 666624, Note_on_c, 2, 69, 52
5, 667238, Note_on_c, 2, 73, 0
5, 667238, Note_on_c, 2, 69, 0
5, 669696, Note_on_c, 2, 81, 52
5, 669696, Note_on_c, 2, 78, 52
5, 670208, Note_on_c, 2, 81, 0
5, 670208, Note_on_c, 2, 78, 52
5, 670208, Note_on_c, 2, 78, 0
5, 670208, Note_on_c, 2, 74, 52
5, 670720, Note_on_c, 2, 78, 0
5, 670720, Note_on_c, 2, 74, 52
5, 670720, Note_on_c, 2, 74, 0
5, 670720, Note_on_c, 2, 71, 52
5, 671334, Note_on_c, 2, 74, 0
5, 671334, Note_on_c, 2, 71, 0
5, 673792, Note_on_c, 2, 83, 52
5, 673792, Note_on_c, 2, 76, 52
5, 674304, Note_on_c, 2, 83, 0
5, 674304, Note_on_c, 2, 79, 52
5, 674304, Note_on_c, 2, 76, 0
5, 674304, Note_on_c, 2, 71, 52
5, 674816, Note_on_c, 2, 79, 0
5, 674816, Note_on_c, 2, 76, 52
5, 674816, Note_on_c, 2, 71, 0
5, 674816, Note_on_c, 2, 73, 52
5, 675430, Note_on_c, 2, 76, 0
5, 675430, Note_on_c, 2, 73, 0
5, 675840, Note_on_c, 2, 76, 52
5, 676454, Note_on_c, 2, 76, 0
5, 677888, Note_on_c, 2, 74, 52
5, 677888, Note_on_c, 2, 69, 52
5, 678400, Note_on_c, 2, 74, 0
5, 678400, Note_on_c, 2, 81, 52
5, 678400, Note_on_c, 2, 69, 0
5, 678400, Note_on_c, 2, 74, 52
5, 678912, Note_on_c, 2, 81, 0
5, 678912, Note_on_c, 2, 86, 52
5, 678912, Note_on_c, 2, 74, 0
5, 678912, Note_on_c, 2, 78, 52
5, 679526, Note_on_c, 2, 86, 0
5, 679526, Note_on_c, 2, 78, 0
5, 698368, Note_on_c, 2, 69, 68
5, 698368, Note_on_c, 2, 66, 68
5, 698880, Note_on_c, 2, 69, 0
5, 698880, Note_on_c, 2, 74, 68
5, 698880, Note_on_c, 2, 66, 0
5, 698880, Note_on_c, 2, 69, 68
5, 699392, Note_on_c, 2, 74, 0
5, 699392, Note_on_c, 2, 78, 69
5, 699392, Note_on_c, 2, 69, 0
5, 699392, Note_on_c, 2, 74, 69
5, 700006, Note_on_c, 2, 78, 0
5, 700006, Note_on_c, 2, 74, 0
5, 700416, Note_on_c, 2, 74, 70
5, 700416, Note_on_c, 2, 69, 70
5, 700928, Note_on_c, 2, 74, 0
5, 700928, Note_on_c, 2, 78, 71
5, 700928, Note_on_c, 2, 69, 0
5, 700928, Note_on_c, 2, 74, 71
5, 701440, Note_on_c, 2, 78, 0
5, 701440, Note_on_c, 2, 74, 0
5, 701440, Note_on_c, 2, 81, 72
5, 701440, Note_on_c, 2, 78, 72
5, 702054, Note_on_c, 2, 81, 0
5, 702054, Note_on_c, 2, 78, 0
5, 706560, Note_on_c, 2, 76, 78
5, 706560, Note_on_c, 2, 73, 78
5, 707072, Note_on_c, 2, 76, 0
5, 707072, Note_on_c, 2, 81, 79
5, 707072, Note_on_c, 2, 73, 0
5, 707072, Note_on_c, 2, 76, 79
5, 707584, Note_on_c, 2, 81, 0
5, 707584, Note_on_c, 2, 85, 79
5, 707584, Note_on_c, 2, 76, 0
5, 707584, Note_on_c, 2, 81, 79
5, 708198, Note_on_c, 2, 85, 0
5, 708198, Note_on_c, 2, 81, 0
5, 708608, Note_on_c, 2, 81, 81
5, 708608, Note_on_c, 2, 76, 81
5, 709120, Note_on_c, 2, 81, 0
5, 709120, Note_on_c, 2, 85, 81
5, 709120, Note_on_c, 2, 76, 0
5, 709120, Note_on_c, 2, 81, 81
5, 709632, Note_on_c, 2, 85, 0
5, 709632, Note_on_c, 2, 81, 0
5, 709632, Note_on_c, 2, 88, 82
5, 709632, Note_on_c, 2, 85, 82
5, 710246, Note_on_c, 2, 88, 0
5, 710246, Note_on_c, 2, 85, 0
5, 714752, Note_on_c, 2, 78, 88
5, 714752, Note_on_c, 2, 69, 88
5, 715264, Note_on_c, 2, 78, 0
5, 715264, Note_on_c, 2, 81, 89
5, 715264, Note_on_c, 2, 69, 0
5, 715264, Note_on_c, 2, 74, 89
5, 715776, Note_on_c, 2, 81, 0
5, 715776, Note_on_c, 2, 86, 90
5, 715776, Note_on_c, 2, 74, 0
5, 715776, Note_on_c, 2, 78, 90
5, 716390, Note_on_c, 2, 86, 0
5, 716390, Note_on_c, 2, 78, 0
5, 716800, Note_on_c, 2, 81, 91
5, 716800, Note_on_c, 2, 74, 91
5, 717312, Note_on_c, 2, 81, 0
5, 717312, Note_on_c, 2, 86, 91
5, 717312, Note_on_c, 2, 74, 0
5, 717312, Note_on_c, 2, 78, 91
5, 717824, Note_on_c, 2, 86, 0
5, 717824, Note_on_c, 2, 78, 0
5, 717824, Note_on_c, 2, 90, 92
5, 717824, Note_on_c, 2, 81, 92
5, 718438, Note_on_c, 2, 90, 0
5, 718438, Note_on_c, 2, 81, 0
5, 722944, Note_on_c, 2, 76, 94
5, 722944, Note_on_c, 2, 73, 94
5, 723456, Note_on_c, 2, 76, 0
5, 723456, Note_on_c, 2, 81, 94
5, 723456, Note_on_c, 2, 73, 0
5, 723456, Note_on_c, 2, 76, 94
5, 723968, Note_on_c, 2, 81, 0
5, 723968, Note_on_c, 2, 85, 94
5, 723968, Note_on_c, 2, 76, 0
5, 723968, Note_on_c, 2, 81, 94
5, 724582, Note_on_c, 2, 85, 0
5, 724582, Note_on_c, 2, 81, 0
5, 724992, Note_on_c, 2, 81, 94
5, 724992, Note_on_c, 2, 76, 94
5, 725504, Note_on_c, 2, 81, 0
5, 725504, Note_on_c, 2, 85, 94
5, 725504, Note_on_c, 2, 76, 0
5, 725504, Note_on_c, 2, 81, 94
5, 726016, Note_on_c, 2, 85, 0
5, 726016, Note_on_c, 2, 81, 0
5, 726016, Note_on_c, 2, 88, 94
5, 726016, Note_on_c, 2, 85, 94
5, 726630, Note_on_c, 2, 88, 0
5, 726630, Note_on_c, 2, 85, 0
5, 731136, Note_on_c, 2, 62, 83
5, 731648, Note_on_c, 2, 62, 0
5, 731648, Note_on_c, 2, 66, 83
5, 732160, Note_on_c, 2, 66, 0
5, 732160, Note_on_c, 2, 69, 83
5, 732774, Note_on_c, 2, 69, 0
5, 733184, Note_on_c, 2, 66, 83
5, 733696, Note_on_c, 2, 66, 0
5, 733696, Note_on_c, 2, 69, 83
5, 734208, Note_on_c, 2, 69, 0
5, 734208, Note_on_c, 2, 74, 83
5, 734822, Note_on_c, 2, 74, 0
5, 735232, Note_on_c, 2, 66, 83
5, 735232, Note_on_c, 2, 62, 83
5, 735744, Note_on_c, 2, 66, 0
5, 735744, Note_on_c, 2, 69, 83
5, 735744, Note_on_c, 2, 62, 0
5, 735744, Note_on_c, 2, 66, 83
5, 736256, Note_on_c, 2, 69, 0
5, 736256, Note_on_c, 2, 74, 83
5, 736256, Note_on_c, 2, 66, 0
5, 736256, Note_on_c, 2, 69, 83
5, 736870, Note_on_c, 2, 74, 0
5, 736870, Note_on_c, 2, 69, 0
5, 737280, Note_on_c, 2, 69, 83
5, 737280, Note_on_c, 2, 66, 83
5, 737792, Note_on_c, 2, 69, 0
5, 737792, Note_on_c, 2, 74, 83
5, 737792, Note_on_c, 2, 66, 0
5, 737792, Note_on_c, 2, 69, 83
5, 738304, Note_on_c, 2, 74, 0
5, 738304, Note_on_c, 2, 69, 0
5, 738304, Note_on_c, 2, 78, 83
5, 738304, Note_on_c, 2, 74, 83
5, 738918, Note_on_c, 2, 78, 0
5, 738918, Note_on_c, 2, 74, 0
5, 739328, Note_on_c, 2, 69, 83
5, 739328, Note_on_c, 2, 66, 83
5, 739840, Note_on_c, 2, 69, 0
5, 739840, Note_on_c, 2, 74, 83
5, 739840, Note_on_c, 2, 66, 0
5, 739840, Note_on_c, 2, 69, 83
5, 740352, Note_on_c, 2, 74, 0
5, 740352, Note_on_c, 2, 78, 83
5, 740352, Note_on_c, 2, 69, 0
5, 740352, Note_on_c, 2, 74, 83
5, 740966, Note_on_c, 2, 78, 0
5, 740966, Note_on_c, 2, 74, 0
5, 741376, Note_on_c, 2, 81, 83
5, 741376, Note_on_c, 2, 78, 83
5, 741888, Note_on_c, 2, 81, 0
5, 741888, Note_on_c, 2, 78, 83
5, 741888, Note_on_c, 2, 78, 0
5, 741888, Note_on_c, 2, 74, 83
5, 742400, Note_on_c, 2, 78, 0
5, 742400, Note_on_c, 2, 74, 0
5, 742400, Note_on_c, 2, 74, 79
5, 742400, Note_on_c, 2, 69, 79
5, 743014, Note_on_c, 2, 74, 0
5, 743014, Note_on_c, 2, 69, 0
5, 743424, Note_on_c, 2, 78, 81
5, 743424, Note_on_c, 2, 74, 81
5, 743936, Note_on_c, 2, 78, 0
5, 743936, Note_on_c, 2, 74, 82
5, 743936, Note_on_c, 2, 74, 0
5, 743936, Note_on_c, 2, 69, 82
5, 744448, Note_on_c, 2, 74, 0
5, 744448, Note_on_c, 2, 69, 83
5, 744448, Note_on_c, 2, 69, 0
5, 744448, Note_on_c, 2, 66, 83
5, 745062, Note_on_c, 2, 69, 0
5, 745062, Note_on_c, 2, 66, 0
5, 745472, Note_on_c, 2, 74, 86
5, 745472, Note_on_c, 2, 69, 86
5, 745984, Note_on_c, 2, 74, 0
5, 745984, Note_on_c, 2, 78, 87
5, 745984, Note_on_c, 2, 69, 0
5, 745984, Note_on_c, 2, 74, 87
5, 746496, Note_on_c, 2, 78, 0
5, 746496, Note_on_c, 2, 74, 0
5, 746496, Note_on_c, 2, 81, 88
5, 746496, Note_on_c, 2, 78, 88
5, 747110, Note_on_c, 2, 81, 0
5, 747110, Note_on_c, 2, 78, 0
5, 747520, Note_on_c, 2, 81, 90
5, 747520, Note_on_c, 2, 78, 90
5, 748134, Note_on_c, 2, 81, 0
5, 748134, Note_on_c, 2, 78, 0
5, 748544, Note_on_c, 2, 81, 93
5, 748544, Note_on_c, 2, 78, 93
5, 749158, Note_on_c, 2, 81, 0
5, 749158, Note_on_c, 2, 78, 0
5, 749568, Note_on_c, 2, 81, 95
5, 749568, Note_on_c, 2, 78, 95
5, 750182, Note_on_c, 2, 81, 0
5, 750182, Note_on_c, 2, 78, 0
5, 750592, Note_on_c, 2, 81, 98
5, 750592, Note_on_c, 2, 78, 98
5, 751206, Note_on_c, 2, 81, 0
5, 751206, Note_on_c, 2, 78, 0
5, 751616, Note_on_c, 2, 79, 98
5, 751616, Note_on_c, 2, 76, 98
5, 752128, Note_on_c, 2, 79, 0
5, 752128, Note_on_c, 2, 81, 98
5, 752128, Note_on_c, 2, 76, 0
5, 752128, Note_on_c, 2, 78, 98
5, 752640, Note_on_c, 2, 81, 0
5, 752640, Note_on_c, 2, 83, 98
5, 752640, Note_on_c, 2, 78, 0
5, 752640, Note_on_c, 2, 79, 98
5, 753254, Note_on_c, 2, 83, 0
5, 753254, Note_on_c, 2, 79, 0
5, 753664, Note_on_c, 2, 81, 98
5, 753664, Note_on_c, 2, 78, 98
5, 754176, Note_on_c, 2, 81, 0
5, 754176, Note_on_c, 2, 79, 98
5, 754176, Note_on_c, 2, 78, 0
5, 754176, Note_on_c, 2, 76, 98
5, 754688, Note_on_c, 2, 79, 0
5, 754688, Note_on_c, 2, 76, 0
5, 754688, Note_on_c, 2, 81, 98
5, 754688, Note_on_c, 2, 78, 98
5, 755302, Note_on_c, 2, 81, 0
5, 755302, Note_on_c, 2, 78, 0
5, 755712, Note_on_c, 2, 78, 98
5, 755712, Note_on_c, 2, 74, 98
5, 756224, Note_on_c, 2, 78, 0
5, 756224, Note_on_c, 2, 81, 98
5, 756326, Note_on_c, 2, 74, 0
5, 756736, Note_on_c, 2, 81, 0
5, 756736, Note_on_c, 2, 86, 98
5, 757350, Note_on_c, 2, 86, 0
5, 757760, Note_on_c, 2, 81, 97
5, 757760, Note_on_c, 2, 78, 97
5, 758374, Note_on_c, 2, 81, 0
5, 758374, Note_on_c, 2, 78, 0
5, 758784, Note_on_c, 2, 79, 97
5, 758784, Note_on_c, 2, 76, 97
5, 759398, Note_on_c, 2, 79, 0
5, 759398, Note_on_c, 2, 76, 0
5, 759808, Note_on_c, 2, 78, 97
5, 759808, Note_on_c, 2, 74, 97
5, 760320, Note_on_c, 2, 78, 0
5, 760320, Note_on_c, 2, 79, 97
5, 760320, Note_on_c, 2, 74, 0
5, 760320, Note_on_c, 2, 76, 97
5, 760832, Note_on_c, 2, 79, 0
5, 760832, Note_on_c, 2, 81, 97
5, 760832, Note_on_c, 2, 76, 0
5, 760832, Note_on_c, 2, 73, 97
5, 761344, Note_on_c, 2, 81, 0
5, 761344, Note_on_c, 2, 79, 97
5, 761344, Note_on_c, 2, 73, 0
5, 761344, Note_on_c, 2, 76, 97
5, 761856, Note_on_c, 2, 79, 0
5, 761856, Note_on_c, 2, 78, 97
5, 761856, Note_on_c, 2, 76, 0
5, 761856, Note_on_c, 2, 74, 97
5, 762368, Note_on_c, 2, 78, 0
5, 762368, Note_on_c, 2, 76, 97
5, 762368, Note_on_c, 2, 74, 0
5, 762368, Note_on_c, 2, 73, 97
5, 762880, Note_on_c, 2, 76, 0
5, 762880, Note_on_c, 2, 73, 0
5, 762880, Note_on_c, 2, 78, 97
5, 762880, Note_on_c, 2, 74, 97
5, 763494, Note_on_c, 2, 78, 0
5, 763494, Note_on_c, 2, 74, 0
5, 763904, Note_on_c, 2, 74, 79
5, 763904, Note_on_c, 2, 69, 79
5, 764518, Note_on_c, 2, 74, 0
5, 764518, Note_on_c, 2, 69, 0
5, 796672, Note_on_c, 2, 73, 56
5, 796672, Note_on_c, 2, 73, 56
5, 797184, Note_on_c, 2, 73, 0
5, 797184, Note_on_c, 2, 74, 58
5, 797184, Note_on_c, 2, 73, 0
5, 797184, Note_on_c, 2, 74, 58
5, 797696, Note_on_c, 2, 74, 0
5, 797696, Note_on_c, 2, 76, 60
5, 797696, Note_on_c, 2, 74, 0
5, 797696, Note_on_c, 2, 76, 60
5, 798208, Note_on_c, 2, 76, 0
5, 798208, Note_on_c, 2, 78, 62
5, 798208, Note_on_c, 2, 76, 0
5, 798208, Note_on_c, 2, 78, 62
5, 798720, Note_on_c, 2, 78, 0
5, 798720, Note_on_c, 2, 74, 64
5, 798720, Note_on_c, 2, 78, 0
5, 798720, Note_on_c, 2, 74, 64
5, 799232, Note_on_c, 2, 74, 0
5, 799232, Note_on_c, 2, 76, 66
5, 799232, Note_on_c, 2, 74, 0
5, 799232, Note_on_c, 2, 76, 66
5, 799744, Note_on_c, 2, 76, 0
5, 799744, Note_on_c, 2, 76, 0
5, 799744, Note_on_c, 2, 78, 68
5, 799744, Note_on_c, 2, 78, 68
5, 800256, Note_on_c, 2, 78, 0
5, 800256, Note_on_c, 2, 80, 70
5, 800256, Note_on_c, 2, 78, 0
5, 800256, Note_on_c, 2, 80, 70
5, 800768, Note_on_c, 2, 80, 0
5, 800768, Note_on_c, 2, 76, 72
5, 800768, Note_on_c, 2, 80, 0
5, 800768, Note_on_c, 2, 76, 72
5, 801280, Note_on_c, 2, 76, 0
5, 801280, Note_on_c, 2, 78, 74
5, 801280, Note_on_c, 2, 76, 0
5, 801280, Note_on_c, 2, 78, 74
5, 801792, Note_on_c, 2, 78, 0
5, 801792, Note_on_c, 2, 80, 76
5, 801792, Note_on_c, 2, 78, 0
5, 801792, Note_on_c, 2, 80, 76
5, 802304, Note_on_c, 2, 80, 0
5, 802304, Note_on_c, 2, 81, 77
5, 802304, Note_on_c, 2, 80, 0
5, 802304, Note_on_c, 2, 81, 77
5, 802816, Note_on_c, 2, 81, 0
5, 802816, Note_on_c, 2, 78, 79
5, 802816, Note_on_c, 2, 81, 0
5, 802816, Note_on_c, 2, 78, 79
5, 803328, Note_on_c, 2, 78, 0
5, 803328, Note_on_c, 2, 80, 81
5, 803328, Note_on_c, 2, 78, 0
5, 803328, Note_on_c, 2, 80, 81
5, 803840, Note_on_c, 2, 80, 0
5, 803840, Note_on_c, 2, 80, 0
5, 803840, Note_on_c, 2, 81, 85
5, 803840, Note_on_c, 2, 81, 85
5, 804352, Note_on_c, 2, 81, 0
5, 804352, Note_on_c, 2, 83, 85
5, 804352, Note_on_c, 2, 81, 0
5, 804352, Note_on_c, 2, 83, 85
5, 804864, Note_on_c, 2, 83, 0
5, 804864, Note_on_c, 2, 80, 86
5, 804864, Note_on_c, 2, 83, 0
5, 804864, Note_on_c, 2, 80, 86
5, 805376, Note_on_c, 2, 80, 0
5, 805376, Note_on_c, 2, 81, 86
5, 805376, Note_on_c, 2, 80, 0
5, 805376, Note_on_c, 2, 81, 86
5, 805888, Note_on_c, 2, 81, 0
5, 805888, Note_on_c, 2, 83, 86
5, 805888, Note_on_c, 2, 81, 0
5, 805888, Note_on_c, 2, 83, 86
5, 806400, Note_on_c, 2, 83, 0
5, 806400, Note_on_c, 2, 85, 87
5, 806400, Note_on_c, 2, 83, 0
5, 806400, Note_on_c, 2, 85, 87
5, 806912, Note_on_c, 2, 85, 0
5, 806912, Note_on_c, 2, 81, 87
5, 806912, Note_on_c, 2, 85, 0
5, 806912, Note_on_c, 2, 81, 87
5, 807424, Note_on_c, 2, 81, 0
5, 807424, Note_on_c, 2, 83, 88
5, 807424, Note_on_c, 2, 81, 0
5, 807424, Note_on_c, 2, 83, 88
5, 807936, Note_on_c, 2, 83, 0
5, 807936, Note_on_c, 2, 83, 0
5, 807936, Note_on_c, 2, 85, 88
5, 807936, Note_on_c, 2, 85, 88
5, 808550, Note_on_c, 2, 85, 0
5, 808550, Note_on_c, 2, 85, 0
5, 808960, Note_on_c, 2, 83, 89
5, 808960, Note_on_c, 2, 83, 89
5, 809472, Note_on_c, 2, 83, 0
5, 809472, Note_on_c, 2, 81, 90
5, 809472, Note_on_c, 2, 83, 0
5, 809472, Note_on_c, 2, 81, 90
5, 809984, Note_on_c, 2, 81, 0
5, 809984, Note_on_c, 2, 83, 90
5, 809984, Note_on_c, 2, 81, 0
5, 809984, Note_on_c, 2, 83, 90
5, 810598, Note_on_c, 2, 83, 0
5, 810598, Note_on_c, 2, 83, 0
5, 811008, Note_on_c, 2, 80, 91
5, 811008, Note_on_c, 2, 80, 91
5, 811622, Note_on_c, 2, 80, 0
5, 811622, Note_on_c, 2, 80, 0
5, 812032, Note_on_c, 2, 81, 92
5, 812032, Note_on_c, 2, 81, 92
5, 812646, Note_on_c, 2, 81, 0
5, 812646, Note_on_c, 2, 81, 0
5, 813056, Note_on_c, 2, 85, 36
5, 813568, Note_on_c, 2, 85, 0
5, 813568, Note_on_c, 2, 81, 36
5, 814080, Note_on_c, 2, 81, 0
5, 814080, Note_on_c, 2, 76, 36
5, 814694, Note_on_c, 2, 76, 0
5, 815104, Note_on_c, 2, 81, 36
5, 815616, Note_on_c, 2, 81, 0
5, 815616, Note_on_c, 2, 76, 36
5, 816128, Note_on_c, 2, 76, 0
5, 816128, Note_on_c, 2, 73, 36
5, 816742, Note_on_c, 2, 73, 0
5, 817152, Note_on_c, 2, 81, 36
5, 817152, Note_on_c, 2, 85, 36
5, 817664, Note_on_c, 2, 81, 0
5, 817664, Note_on_c, 2, 76, 36
5, 817664, Note_on_c, 2, 85, 0
5, 817664, Note_on_c, 2, 81, 36
5, 818176, Note_on_c, 2, 76, 0
5, 818176, Note_on_c, 2, 73, 36
5, 818176, Note_on_c, 2, 81, 0
5, 818176, Note_on_c, 2, 76, 36
5, 818790, Note_on_c, 2, 73, 0
5, 818790, Note_on_c, 2, 76, 0
5, 819200, Note_on_c, 2, 76, 36
5, 819200, Note_on_c, 2, 81, 36
5, 819712, Note_on_c, 2, 76, 0
5, 819712, Note_on_c, 2, 73, 36
5, 819712, Note_on_c, 2, 81, 0
5, 819712, Note_on_c, 2, 76, 36
5, 820224, Note_on_c, 2, 73, 0
5, 820224, Note_on_c, 2, 76, 0
5, 820224, Note_on_c, 2, 69, 36
5, 820224, Note_on_c, 2, 73, 36
5, 820838, Note_on_c, 2, 69, 0
5, 820838, Note_on_c, 2, 73, 0
5, 821248, Note_on_c, 2, 76, 39
5, 821248, Note_on_c, 2, 81, 39
5, 821760, Note_on_c, 2, 76, 0
5, 821760, Note_on_c, 2, 73, 41
5, 821760, Note_on_c, 2, 81, 0
5, 821760, Note_on_c, 2, 76, 41
5, 822272, Note_on_c, 2, 73, 0
5, 822272, Note_on_c, 2, 69, 43
5, 822272, Note_on_c, 2, 76, 0
5, 822272, Note_on_c, 2, 73, 43
5, 822886, Note_on_c, 2, 69, 0
5, 822886, Note_on_c, 2, 73, 0
5, 823296, Note_on_c, 2, 73, 47
5, 823296, Note_on_c, 2, 76, 47
5, 823808, Note_on_c, 2, 73, 0
5, 823808, Note_on_c, 2, 69, 48
5, 823808, Note_on_c, 2, 76, 0
5, 823808, Note_on_c, 2, 73, 48
5, 824320, Note_on_c, 2, 69, 0
5, 824320, Note_on_c, 2, 73, 0
5, 824320, Note_on_c, 2, 64, 50
5, 824320, Note_on_c, 2, 69, 50
5, 824934, Note_on_c, 2, 64, 0
5, 824934, Note_on_c, 2, 69, 0
5, 825344, Note_on_c, 2, 69, 54
5, 825344, Note_on_c, 2, 64, 54
5, 825856, Note_on_c, 2, 69, 0
5, 825856, Note_on_c, 2, 73, 56
5, 825856, Note_on_c, 2, 64, 0
5, 825856, Note_on_c, 2, 69, 56
5, 826368, Note_on_c, 2, 73, 0
5, 826368, Note_on_c, 2, 76, 58
5, 826368, Note_on_c, 2, 69, 0
5, 826368, Note_on_c, 2, 73, 58
5, 826982, Note_on_c, 2, 76, 0
5, 826982, Note_on_c, 2, 73, 0
5, 827392, Note_on_c, 2, 73, 61
5, 827392, Note_on_c, 2, 69, 61
5, 827904, Note_on_c, 2, 73, 0
5, 827904, Note_on_c, 2, 76, 63
5, 827904, Note_on_c, 2, 69, 0
5, 827904, Note_on_c, 2, 73, 63
5, 828416, Note_on_c, 2, 76, 0
5, 828416, Note_on_c, 2, 73, 0
5, 828416, Note_on_c, 2, 81, 65
5, 828416, Note_on_c, 2, 76, 65
5, 829030, Note_on_c, 2, 81, 0
5, 829030, Note_on_c, 2, 76, 0
5, 829440, Note_on_c, 2, 76, 64
5, 829440, Note_on_c, 2, 76, 64
5, 830054, Note_on_c, 2, 76, 0
5, 830054, Note_on_c, 2, 76, 0
5, 830464, Note_on_c, 2, 76, 64
5, 830464, Note_on_c, 2, 76, 64
5, 831078, Note_on_c, 2, 76, 0
5, 831078, Note_on_c, 2, 76, 0
5, 831488, Note_on_c, 2, 76, 64
5, 831488, Note_on_c, 2, 76, 64
5, 832102, Note_on_c, 2, 76, 0
5, 832102, Note_on_c, 2, 76, 0
5, 832512, Note_on_c, 2, 76, 64
5, 832512, Note_on_c, 2, 76, 64
5, 833126, Note_on_c, 2, 76, 0
5, 833126, Note_on_c, 2, 76, 0
5, 833536, Note_on_c, 2, 74, 64
5, 833536, Note_on_c, 2, 74, 64
5, 834048, Note_on_c, 2, 74, 0
5, 834048, Note_on_c, 2, 76, 64
5, 834048, Note_on_c, 2, 74, 0
5, 834048, Note_on_c, 2, 76, 64
5, 834560, Note_on_c, 2, 76, 0
5, 834560, Note_on_c, 2, 78, 64
5, 834560, Note_on_c, 2, 76, 0
5, 834560, Note_on_c, 2, 78, 64
5, 835174, Note_on_c, 2, 78, 0
5, 835174, Note_on_c, 2, 78, 0
5, 835584, Note_on_c, 2, 76, 64
5, 835584, Note_on_c, 2, 76, 64
5, 836096, Note_on_c, 2, 76, 0
5, 836096, Note_on_c, 2, 74, 64
5, 836096, Note_on_c, 2, 76, 0
5, 836096, Note_on_c, 2, 74, 64
5, 836608, Note_on_c, 2, 74, 0
5, 836608, Note_on_c, 2, 74, 0
5, 836608, Note_on_c, 2, 76, 64
5, 836608, Note_on_c, 2, 76, 64
5, 837222, Note_on_c, 2, 76, 0
5, 837222, Note_on_c, 2, 76, 0
5, 837632, Note_on_c, 2, 73, 64
5, 837632, Note_on_c, 2, 73, 64
5, 838144, Note_on_c, 2, 73, 0
5, 838144, Note_on_c, 2, 76, 64
5, 838144, Note_on_c, 2, 73, 0
5, 838144, Note_on_c, 2, 76, 64
5, 838656, Note_on_c, 2, 76, 0
5, 838656, Note_on_c, 2, 81, 64
5, 838656, Note_on_c, 2, 76, 0
5, 838656, Note_on_c, 2, 81, 64
5, 839270, Note_on_c, 2, 81, 0
5, 839270, Note_on_c, 2, 81, 0
5, 839680, Note_on_c, 2, 76, 64
5, 839680, Note_on_c, 2, 73, 64
5, 840294, Note_on_c, 2, 76, 0
5, 840294, Note_on_c, 2, 73, 0
5, 840704, Note_on_c, 2, 74, 62
5, 840704, Note_on_c, 2, 71, 62
5, 841318, Note_on_c, 2, 74, 0
5, 841318, Note_on_c, 2, 71, 0
5, 841728, Note_on_c, 2, 73, 58
5, 841728, Note_on_c, 2, 69, 58
5, 842240, Note_on_c, 2, 73, 0
5, 842240, Note_on_c, 2, 74, 57
5, 842240, Note_on_c, 2, 69, 0
5, 842240, Note_on_c, 2, 71, 57
5, 842752, Note_on_c, 2, 74, 0
5, 842752, Note_on_c, 2, 76, 55
5, 842752, Note_on_c, 2, 71, 0
5, 842752, Note_on_c, 2, 68, 55
5, 843264, Note_on_c, 2, 76, 0
5, 843264, Note_on_c, 2, 74, 53
5, 843264, Note_on_c, 2, 68, 0
5, 843264, Note_on_c, 2, 71, 53
5, 843776, Note_on_c, 2, 74, 0
5, 843776, Note_on_c, 2, 73, 52
5, 843776, Note_on_c, 2, 71, 0
5, 843776, Note_on_c, 2, 69, 52
5, 844288, Note_on_c, 2, 73, 0
5, 844288, Note_on_c, 2, 71, 50
5, 844288, Note_on_c, 2, 69, 0
5, 844288, Note_on_c, 2, 68, 50
5, 844800, Note_on_c, 2, 71, 0
5, 844800, Note_on_c, 2, 68, 0
5, 844800, Note_on_c, 2, 73, 48
5, 844800, Note_on_c, 2, 69, 48
5, 845414, Note_on_c, 2, 73, 0
5, 845414, Note_on_c, 2, 69, 0
5, 845824, Note_on_c, 2, 81, 42
5, 845824, Note_on_c, 2, 76, 42
5, 846336, Note_on_c, 2, 81, 0
5, 846336, Note_on_c, 2, 76, 42
5, 846336, Note_on_c, 2, 76, 0
5, 846336, Note_on_c, 2, 73, 42
5, 846848, Note_on_c, 2, 76, 0
5, 846848, Note_on_c, 2, 73, 42
5, 846848, Note_on_c, 2, 73, 0
5, 846848, Note_on_c, 2, 69, 42
5, 847462, Note_on_c, 2, 73, 0
5, 847462, Note_on_c, 2, 69, 0
5, 849920, Note_on_c, 2, 85, 42
5, 849920, Note_on_c, 2, 81, 42
5, 850432, Note_on_c, 2, 85, 0
5, 850432, Note_on_c, 2, 81, 42
5, 850432, Note_on_c, 2, 81, 0
5, 850432, Note_on_c, 2, 78, 42
5, 850944, Note_on_c, 2, 81, 0
5, 850944, Note_on_c, 2, 78, 42
5, 850944, Note_on_c, 2, 78, 0
5, 850944, Note_on_c, 2, 73, 42
5, 851558, Note_on_c, 2, 78, 0
5, 851558, Note_on_c, 2, 73, 0
5, 854016, Note_on_c, 2, 78, 42
5, 854016, Note_on_c, 2, 74, 42
5, 854528, Note_on_c, 2, 78, 0
5, 854528, Note_on_c, 2, 74, 42
5, 854528, Note_on_c, 2, 74, 0
5, 854528, Note_on_c, 2, 71, 42
5, 855040, Note_on_c, 2, 74, 0
5, 855040, Note_on_c, 2, 71, 42
5, 855040, Note_on_c, 2, 71, 0
5, 855040, Note_on_c, 2, 64, 42
5, 855654, Note_on_c, 2, 71, 0
5, 855654, Note_on_c, 2, 64, 0
5, 858112, Note_on_c, 2, 69, 42
5, 858112, Note_on_c, 2, 64, 42
5, 858624, Note_on_c, 2, 69, 0
5, 858624, Note_on_c, 2, 71, 42
5, 858624, Note_on_c, 2, 64, 0
5, 858624, Note_on_c, 2, 62, 42
5, 859136, Note_on_c, 2, 71, 0
5, 859136, Note_on_c, 2, 73, 42
5, 859136, Note_on_c, 2, 62, 0
5, 859136, Note_on_c, 2, 64, 42
5, 859750, Note_on_c, 2, 73, 0
5, 859750, Note_on_c, 2, 64, 0
5, 878592, Note_on_c, 2, 76, 46
5, 878592, Note_on_c, 2, 73, 46
5, 879104, Note_on_c, 2, 76, 0
5, 879104, Note_on_c, 2, 81, 46
5, 879104, Note_on_c, 2, 73, 0
5, 879104, Note_on_c, 2, 76, 46
5, 879616, Note_on_c, 2, 81, 0
5, 879616, Note_on_c, 2, 85, 46
5, 879616, Note_on_c, 2, 76, 0
5, 879616, Note_on_c, 2, 81, 46
5, 880230, Note_on_c, 2, 85, 0
5, 880230, Note_on_c, 2, 81, 0
5, 880640, Note_on_c, 2, 81, 46
5, 880640, Note_on_c, 2, 76, 46
5, 881152, Note_on_c, 2, 81, 0
5, 881152, Note_on_c, 2, 85, 47
5, 881152, Note_on_c, 2, 76, 0
5, 881152, Note_on_c, 2, 81, 47
5, 881664, Note_on_c, 2, 85, 0
5, 881664, Note_on_c, 2, 81, 0
5, 881664, Note_on_c, 2, 88, 47
5, 881664, Note_on_c, 2, 85, 47
5, 882278, Note_on_c, 2, 88, 0
5, 882278, Note_on_c, 2, 85, 0
5, 886784, Note_on_c, 2, 71, 48
5, 886784, Note_on_c, 2, 68, 48
5, 887296, Note_on_c, 2, 71, 0
5, 887296, Note_on_c, 2, 76, 49
5, 887296, Note_on_c, 2, 68, 0
5, 887296, Note_on_c, 2, 71, 49
5, 887808, Note_on_c, 2, 76, 0
5, 887808, Note_on_c, 2, 80, 49
5, 887808, Note_on_c, 2, 71, 0
5, 887808, Note_on_c, 2, 76, 49
5, 888422, Note_on_c, 2, 80, 0
5, 888422, Note_on_c, 2, 76, 0
5, 888832, Note_on_c, 2, 76, 49
5, 888832, Note_on_c, 2, 71, 49
5, 889344, Note_on_c, 2, 76, 0
5, 889344, Note_on_c, 2, 80, 49
5, 889344, Note_on_c, 2, 71, 0
5, 889344, Note_on_c, 2, 76, 49
5, 889856, Note_on_c, 2, 80, 0
5, 889856, Note_on_c, 2, 76, 0
5, 889856, Note_on_c, 2, 83, 50
5, 889856, Note_on_c, 2, 80, 50
5, 890470, Note_on_c, 2, 83, 0
5, 890470, Note_on_c, 2, 80, 0
5, 894976, Note_on_c, 2, 76, 51
5, 894976, Note_on_c, 2, 73, 51
5, 895488, Note_on_c, 2, 76, 0
5, 895488, Note_on_c, 2, 81, 52
5, 895488, Note_on_c, 2, 73, 0
5, 895488, Note_on_c, 2, 76, 52
5, 896000, Note_on_c, 2, 81, 0
5, 896000, Note_on_c, 2, 85, 52
5, 896000, Note_on_c, 2, 76, 0
5, 896000, Note_on_c, 2, 81, 52
5, 896614, Note_on_c, 2, 85, 0
5, 896614, Note_on_c, 2, 81, 0
5, 897024, Note_on_c, 2, 81, 52
5, 897024, Note_on_c, 2, 76, 52
5, 897536, Note_on_c, 2, 81, 0
5, 897536, Note_on_c, 2, 85, 52
5, 897536, Note_on_c, 2, 76, 0
5, 897536, Note_on_c, 2, 81, 52
5, 898048, Note_on_c, 2, 85, 0
5, 898048, Note_on_c, 2, 81, 0
5, 898048, Note_on_c, 2, 88, 52
5, 898048, Note_on_c, 2, 85, 52
5, 898662, Note_on_c, 2, 88, 0
5, 898662, Note_on_c, 2, 85, 0
5, 903168, Note_on_c, 2, 69, 53
5, 903168, Note_on_c, 2, 66, 53
5, 903680, Note_on_c, 2, 69, 0
5, 903680, Note_on_c, 2, 74, 53
5, 903680, Note_on_c, 2, 66, 0
5, 903680, Note_on_c, 2, 69, 53
5, 904192, Note_on_c, 2, 74, 0
5, 904192, Note_on_c, 2, 78, 54
5, 904192, Note_on_c, 2, 69, 0
5, 904192, Note_on_c, 2, 74, 54
5, 904806, Note_on_c, 2, 78, 0
5, 904806, Note_on_c, 2, 74, 0
5, 905216, Note_on_c, 2, 74, 54
5, 905216, Note_on_c, 2, 69, 54
5, 905728, Note_on_c, 2, 74, 0
5, 905728, Note_on_c, 2, 78, 54
5, 905728, Note_on_c, 2, 69, 0
5, 905728, Note_on_c, 2, 74, 54
5, 906240, Note_on_c, 2, 78, 0
5, 906240, Note_on_c, 2, 74, 0
5, 906240, Note_on_c, 2, 81, 54
5, 906240, Note_on_c, 2, 78, 54
5, 906854, Note_on_c, 2, 81, 0
5, 906854, Note_on_c, 2, 78, 0
5, 907264, Note_on_c, 2, 74, 55
5, 907264, Note_on_c, 2, 69, 55
5, 907776, Note_on_c, 2, 74, 0
5, 907776, Note_on_c, 2, 78, 55
5, 907776, Note_on_c, 2, 69, 0
5, 907776, Note_on_c, 2, 74, 55
5, 908288, Note_on_c, 2, 78, 0
5, 908288, Note_on_c, 2, 81, 55
5, 908288, Note_on_c, 2, 74, 0
5, 908288, Note_on_c, 2, 78, 55
5, 908902, Note_on_c, 2, 81, 0
5, 908902, Note_on_c, 2, 78, 0
5, 909312, Note_on_c, 2, 79, 55
5, 909312, Note_on_c, 2, 74, 55
5, 909824, Note_on_c, 2, 79, 0
5, 909824, Note_on_c, 2, 81, 55
5, 909824, Note_on_c, 2, 74, 0
5, 909824, Note_on_c, 2, 78, 55
5, 910336, Note_on_c, 2, 81, 0
5, 910336, Note_on_c, 2, 78, 0
5, 910336, Note_on_c, 2, 83, 56
5, 910336, Note_on_c, 2, 79, 56
5, 910950, Note_on_c, 2, 83, 0
5, 910950, Note_on_c, 2, 79, 0
5, 913408, Note_on_c, 2, 83, 57
5, 913408, Note_on_c, 2, 83, 57
5, 913920, Note_on_c, 2, 83, 0
5, 913920, Note_on_c, 2, 79, 57
5, 913920, Note_on_c, 2, 83, 0
5, 913920, Note_on_c, 2, 79, 57
5, 914432, Note_on_c, 2, 79, 0
5, 914432, Note_on_c, 2, 79, 0
5, 914432, Note_on_c, 2, 76, 57
5, 914432, Note_on_c, 2, 76, 57
5, 915046, Note_on_c, 2, 76, 0
5, 915046, Note_on_c, 2, 76, 0
5, 917504, Note_on_c, 2, 78, 58
5, 917504, Note_on_c, 2, 78, 58
5, 918016, Note_on_c, 2, 78, 0
5, 918016, Note_on_c, 2, 79, 58
5, 918016, Note_on_c, 2, 78, 0
5, 918016, Note_on_c, 2, 79, 58
5, 918528, Note_on_c, 2, 79, 0
5, 918528, Note_on_c, 2, 79, 0
5, 918528, Note_on_c, 2, 81, 57
5, 918528, Note_on_c, 2, 81, 57
5, 919142, Note_on_c, 2, 81, 0
5, 919142, Note_on_c, 2, 81, 0
5, 921600, Note_on_c, 2, 81, 63
5, 921600, Note_on_c, 2, 81, 63
5, 922112, Note_on_c, 2, 81, 0
5, 922112, Note_on_c, 2, 78, 64
5, 922112, Note_on_c, 2, 81, 0
5, 922112, Note_on_c, 2, 78, 64
5, 922624, Note_on_c, 2, 78, 0
5, 922624, Note_on_c, 2, 78, 0
5, 922624, Note_on_c, 2, 74, 65
5, 922624, Note_on_c, 2, 74, 65
5, 923238, Note_on_c, 2, 74, 0
5, 923238, Note_on_c, 2, 74, 0
5, 925696, Note_on_c, 2, 76, 72
5, 925696, Note_on_c, 2, 76, 72
5, 926208, Note_on_c, 2, 76, 0
5, 926208, Note_on_c, 2, 78, 73
5, 926208, Note_on_c, 2, 76, 0
5, 926208, Note_on_c, 2, 78, 73
5, 926720, Note_on_c, 2, 78, 0
5, 926720, Note_on_c, 2, 78, 0
5, 926720, Note_on_c, 2, 79, 74
5, 926720, Note_on_c, 2, 79, 74
5, 927334, Note_on_c, 2, 79, 0
5, 927334, Note_on_c, 2, 79, 0
5, 929792, Note_on_c, 2, 79, 76
5, 929792, Note_on_c, 2, 79, 76
5, 930304, Note_on_c, 2, 79, 0
5, 930304, Note_on_c, 2, 78, 76
5, 930304, Note_on_c, 2, 79, 0
5, 930304, Note_on_c, 2, 78, 76
5, 930816, Note_on_c, 2, 78, 0
5, 930816, Note_on_c, 2, 78, 0
5, 930816, Note_on_c, 2, 79, 76
5, 930816, Note_on_c, 2, 79, 76
5, 931430, Note_on_c, 2, 79, 0
5, 931430, Note_on_c, 2, 79, 0
5, 933888, Note_on_c, 2, 79, 77
5, 933888, Note_on_c, 2, 79, 77
5, 934400, Note_on_c, 2, 79, 0
5, 934400, Note_on_c, 2, 78, 78
5, 934400, Note_on_c, 2, 79, 0
5, 934400, Note_on_c, 2, 78, 78
5, 934912, Note_on_c, 2, 78, 0
5, 934912, Note_on_c, 2, 78, 0
5, 934912, Note_on_c, 2, 79, 78
5, 934912, Note_on_c, 2, 79, 78
5, 935526, Note_on_c, 2, 79, 0
5, 935526, Note_on_c, 2, 79, 0
5, 935936, Note_on_c, 2, 73, 78
5, 935936, Note_on_c, 2, 73, 78
5, 936448, Note_on_c, 2, 73, 0
5, 936448, Note_on_c, 2, 76, 78
5, 936448, Note_on_c, 2, 73, 0
5, 936448, Note_on_c, 2, 76, 78
5, 936960, Note_on_c, 2, 76, 0
5, 936960, Note_on_c, 2, 79, 79
5, 936960, Note_on_c, 2, 76, 0
5, 936960, Note_on_c, 2, 79, 79
5, 937574, Note_on_c, 2, 79, 0
5, 937574, Note_on_c, 2, 79, 0
5, 937984, Note_on_c, 2, 79, 79
5, 937984, Note_on_c, 2, 79, 79
5, 938598, Note_on_c, 2, 79, 0
5, 938598, Note_on_c, 2, 79, 0
5, 939008, Note_on_c, 2, 79, 79
5, 939008, Note_on_c, 2, 79, 79
5, 939622, Note_on_c, 2, 79, 0
5, 939622, Note_on_c, 2, 79, 0
5, 940032, Note_on_c, 2, 73, 80
5, 940032, Note_on_c, 2, 73, 80
5, 940544, Note_on_c, 2, 73, 0
5, 940544, Note_on_c, 2, 76, 80
5, 940544, Note_on_c, 2, 73, 0
5, 940544, Note_on_c, 2, 76, 80
5, 941056, Note_on_c, 2, 76, 0
5, 941056, Note_on_c, 2, 79, 80
5, 941056, Note_on_c, 2, 76, 0
5, 941056, Note_on_c, 2, 79, 80
5, 941670, Note_on_c, 2, 79, 0
5, 941670, Note_on_c, 2, 79, 0
5, 942080, Note_on_c, 2, 79, 81
5, 942080, Note_on_c, 2, 79, 81
5, 942694, Note_on_c, 2, 79, 0
5, 942694, Note_on_c, 2, 79, 0
5, 943104, Note_on_c, 2, 78, 81
5, 943104, Note_on_c, 2, 78, 81
5, 943616, Note_on_c, 2, 78, 0
5, 943616, Note_on_c, 2, 76, 81
5, 943718, Note_on_c, 2, 78, 0
5, 944128, Note_on_c, 2, 76, 0
5, 944128, Note_on_c, 2, 74, 81
5, 944128, Note_on_c, 2, 69, 81
5, 944640, Note_on_c, 2, 74, 0
5, 944640, Note_on_c, 2, 76, 82
5, 944742, Note_on_c, 2, 69, 0
5, 945152, Note_on_c, 2, 76, 0
5, 945152, Note_on_c, 2, 78, 82
5, 945152, Note_on_c, 2, 78, 82
5, 945664, Note_on_c, 2, 78, 0
5, 945664, Note_on_c, 2, 79, 82
5, 945664, Note_on_c, 2, 78, 0
5, 945664, Note_on_c, 2, 79, 82
5, 946176, Note_on_c, 2, 79, 0
5, 946176, Note_on_c, 2, 81, 82
5, 946176, Note_on_c, 2, 79, 0
5, 946176, Note_on_c, 2, 81, 82
5, 946688, Note_on_c, 2, 81, 0
5, 946688, Note_on_c, 2, 83, 83
5, 946688, Note_on_c, 2, 81, 0
5, 946688, Note_on_c, 2, 83, 83
5, 947200, Note_on_c, 2, 83, 0
5, 947200, Note_on_c, 2, 83, 0
5, 947200, Note_on_c, 2, 81, 83
5, 947200, Note_on_c, 2, 81, 83
5, 947814, Note_on_c, 2, 81, 0
5, 947814, Note_on_c, 2, 81, 0
5, 948224, Note_on_c, 2, 79, 83
5, 948224, Note_on_c, 2, 79, 83
5, 948736, Note_on_c, 2, 79, 0
5, 948736, Note_on_c, 2, 78, 83
5, 948736, Note_on_c, 2, 79, 0
5, 948736, Note_on_c, 2, 78, 83
5, 949248, Note_on_c, 2, 78, 0
5, 949248, Note_on_c, 2, 79, 84
5, 949248, Note_on_c, 2, 78, 0
5, 949248, Note_on_c, 2, 79, 84
5, 949862, Note_on_c, 2, 79, 0
5, 949862, Note_on_c, 2, 79, 0
5, 950272, Note_on_c, 2, 78, 84
5, 950272, Note_on_c, 2, 78, 84
5, 950784, Note_on_c, 2, 78, 0
5, 950784, Note_on_c, 2, 76, 84
5, 950784, Note_on_c, 2, 78, 0
5, 950784, Note_on_c, 2, 76, 84
5, 951296, Note_on_c, 2, 76, 0
5, 951296, Note_on_c, 2, 76, 0
5, 951296, Note_on_c, 2, 78, 84
5, 951296, Note_on_c, 2, 78, 84
5, 951910, Note_on_c, 2, 78, 0
5, 951910, Note_on_c, 2, 78, 0
5, 952320, Note_on_c, 2, 74, 76
5, 952320, Note_on_c, 2, 74, 76
5, 952934, Note_on_c, 2, 74, 0
5, 952934, Note_on_c, 2, 74, 0
5, 969728, Note_on_c, 2, 73, 38
5, 969728, Note_on_c, 2, 69, 38
5, 970240, Note_on_c, 2, 73, 0
5, 970240, Note_on_c, 2, 74, 38
5, 970240, Note_on_c, 2, 69, 0
5, 970240, Note_on_c, 2, 71, 38
5, 970752, Note_on_c, 2, 74, 0
5, 970752, Note_on_c, 2, 71, 38
5, 970752, Note_on_c, 2, 71, 0
5, 970752, Note_on_c, 2, 67, 38
5, 971264, Note_on_c, 2, 71, 0
5, 971264, Note_on_c, 2, 73, 38
5, 971264, Note_on_c, 2, 67, 0
5, 971264, Note_on_c, 2, 69, 38
5, 971776, Note_on_c, 2, 73, 0
5, 971776, Note_on_c, 2, 69, 0
5, 971776, Note_on_c, 2, 74, 38
5, 971776, Note_on_c, 2, 71, 38
5, 972288, Note_on_c, 2, 74, 0
5, 972288, Note_on_c, 2, 76, 38
5, 972288, Note_on_c, 2, 71, 0
5, 972288, Note_on_c, 2, 73, 38
5, 972800, Note_on_c, 2, 76, 0
5, 972800, Note_on_c, 2, 73, 38
5, 972800, Note_on_c, 2, 73, 0
5, 972800, Note_on_c, 2, 69, 38
5, 973312, Note_on_c, 2, 73, 0
5, 973312, Note_on_c, 2, 74, 38
5, 973312, Note_on_c, 2, 69, 0
5, 973312, Note_on_c, 2, 71, 38
5, 973824, Note_on_c, 2, 74, 0
5, 973824, Note_on_c, 2, 76, 38
5, 973824, Note_on_c, 2, 71, 0
5, 973824, Note_on_c, 2, 73, 38
5, 974336, Note_on_c, 2, 76, 0
5, 974336, Note_on_c, 2, 78, 38
5, 974336, Note_on_c, 2, 73, 0
5, 974336, Note_on_c, 2, 74, 38
5, 974848, Note_on_c, 2, 78, 0
5, 974848, Note_on_c, 2, 74, 38
5, 974848, Note_on_c, 2, 74, 0
5, 974848, Note_on_c, 2, 71, 38
5, 975360, Note_on_c, 2, 74, 0
5, 975360, Note_on_c, 2, 76, 38
5, 975360, Note_on_c, 2, 71, 0
5, 975360, Note_on_c, 2, 73, 38
5, 975872, Note_on_c, 2, 76, 0
5, 975872, Note_on_c, 2, 73, 0
5, 975872, Note_on_c, 2, 78, 38
5, 975872, Note_on_c, 2, 74, 38
5, 976384, Note_on_c, 2, 78, 0
5, 976384, Note_on_c, 2, 79, 39
5, 976384, Note_on_c, 2, 74, 0
5, 976384, Note_on_c, 2, 76, 39
5, 976896, Note_on_c, 2, 79, 0
5, 976896, Note_on_c, 2, 76, 39
5, 976896, Note_on_c, 2, 76, 0
5, 976896, Note_on_c, 2, 73, 39
5, 977408, Note_on_c, 2, 76, 0
5, 977408, Note_on_c, 2, 78, 39
5, 977408, Note_on_c, 2, 73, 0
5, 977408, Note_on_c, 2, 74, 39
5, 977920, Note_on_c, 2, 78, 0
5, 977920, Note_on_c, 2, 74, 39
5, 977920, Note_on_c, 2, 74, 0
5, 977920, Note_on_c, 2, 71, 39
5, 978432, Note_on_c, 2, 71, 0
5, 978432, Note_on_c, 2, 73, 39
5, 978534, Note_on_c, 2, 74, 0
5, 978944, Note_on_c, 2, 74, 39
5, 978944, Note_on_c, 2, 73, 0
5, 978944, Note_on_c, 2, 69, 39
5, 979456, Note_on_c, 2, 69, 0
5, 979456, Note_on_c, 2, 71, 39
5, 979558, Note_on_c, 2, 74, 0
5, 979968, Note_on_c, 2, 71, 0
5, 979968, Note_on_c, 2, 76, 39
5, 979968, Note_on_c, 2, 73, 39
5, 980480, Note_on_c, 2, 73, 0
5, 980480, Note_on_c, 2, 74, 39
5, 980582, Note_on_c, 2, 76, 0
5, 980992, Note_on_c, 2, 76, 39
5, 980992, Note_on_c, 2, 74, 0
5, 980992, Note_on_c, 2, 71, 39
5, 981504, Note_on_c, 2, 71, 0
5, 981504, Note_on_c, 2, 73, 39
5, 981606, Note_on_c, 2, 76, 0
5, 982016, Note_on_c, 2, 78, 39
5, 982016, Note_on_c, 2, 73, 0
5, 982016, Note_on_c, 2, 75, 39
5, 982528, Note_on_c, 2, 75, 0
5, 982528, Note_on_c, 2, 76, 39
5, 982630, Note_on_c, 2, 78, 0
5, 983040, Note_on_c, 2, 78, 39
5, 983040, Note_on_c, 2, 76, 0
5, 983040, Note_on_c, 2, 73, 39
5, 983552, Note_on_c, 2, 73, 0
5, 983552, Note_on_c, 2, 75, 39
5, 983654, Note_on_c, 2, 78, 0
5, 984064, Note_on_c, 2, 75, 0
5, 984064, Note_on_c, 2, 79, 39
5, 984064, Note_on_c, 2, 76, 39
5, 984576, Note_on_c, 2, 76, 0
5, 984576, Note_on_c, 2, 78, 39
5, 984678, Note_on_c, 2, 79, 0
5, 985088, Note_on_c, 2, 67, 39
5, 985088, Note_on_c, 2, 78, 0
5, 985088, Note_on_c, 2, 74, 39
5, 985600, Note_on_c, 2, 74, 0
5, 985600, Note_on_c, 2, 76, 39
5, 985702, Note_on_c, 2, 67, 0
5, 986112, Note_on_c, 2, 79, 39
5, 986112, Note_on_c, 2, 76, 0
5, 986112, Note_on_c, 2, 73, 39
5, 986624, Note_on_c, 2, 73, 0
5, 986624, Note_on_c, 2, 74, 40
5, 986726, Note_on_c, 2, 79, 0
5, 987136, Note_on_c, 2, 79, 42
5, 987136, Note_on_c, 2, 74, 0
5, 987136, Note_on_c, 2, 71, 42
5, 987648, Note_on_c, 2, 71, 0
5, 987648, Note_on_c, 2, 73, 43
5, 987750, Note_on_c, 2, 79, 0
5, 988160, Note_on_c, 2, 73, 0
5, 988160, Note_on_c, 2, 79, 44
5, 988160, Note_on_c, 2, 69, 44
5, 988672, Note_on_c, 2, 69, 0
5, 988672, Note_on_c, 2, 71, 46
5, 988774, Note_on_c, 2, 79, 0
5, 989184, Note_on_c, 2, 79, 47
5, 989184, Note_on_c, 2, 71, 0
5, 989184, Note_on_c, 2, 67, 47
5, 989696, Note_on_c, 2, 67, 0
5, 989696, Note_on_c, 2, 69, 49
5, 989798, Note_on_c, 2, 79, 0
5, 990208, Note_on_c, 2, 78, 50
5, 990208, Note_on_c, 2, 69, 0
5, 990208, Note_on_c, 2, 71, 50
5, 990720, Note_on_c, 2, 71, 0
5, 990720, Note_on_c, 2, 73, 52
5, 990822, Note_on_c, 2, 78, 0
5, 991232, Note_on_c, 2, 78, 53
5, 991232, Note_on_c, 2, 73, 0
5, 991232, Note_on_c, 2, 69, 53
5, 991744, Note_on_c, 2, 69, 0
5, 991744, Note_on_c, 2, 71, 54
5, 991846, Note_on_c, 2, 78, 0
5, 992256, Note_on_c, 2, 71, 0
5, 992256, Note_on_c, 2, 76, 56
5, 992256, Note_on_c, 2, 73, 56
5, 992768, Note_on_c, 2, 73, 0
5, 992768, Note_on_c, 2, 74, 57
5, 992870, Note_on_c, 2, 76, 0
5, 993280, Note_on_c, 2, 69, 59
5, 993280, Note_on_c, 2, 74, 0
5, 993280, Note_on_c, 2, 76, 59
5, 993792, Note_on_c, 2, 76, 0
5, 993792, Note_on_c, 2, 74, 60
5, 993894, Note_on_c, 2, 69, 0
5, 994304, Note_on_c, 2, 81, 62
5, 994304, Note_on_c, 2, 74, 0
5, 994304, Note_on_c, 2, 73, 62
5, 994816, Note_on_c, 2, 73, 0
5, 994816, Note_on_c, 2, 74, 63
5, 994918, Note_on_c, 2, 81, 0
5, 995328, Note_on_c, 2, 81, 64
5, 995328, Note_on_c, 2, 74, 0
5, 995328, Note_on_c, 2, 71, 64
5, 995840, Note_on_c, 2, 71, 0
5, 995840, Note_on_c, 2, 73, 66
5, 995942, Note_on_c, 2, 81, 0
5, 996352, Note_on_c, 2, 73, 0
5, 996352, Note_on_c, 2, 81, 67
5, 996352, Note_on_c, 2, 74, 67
5, 996864, Note_on_c, 2, 74, 0
5, 996864, Note_on_c, 2, 76, 69
5, 996966, Note_on_c, 2, 81, 0
5, 997376, Note_on_c, 2, 81, 70
5, 997376, Note_on_c, 2, 76, 0
5, 997376, Note_on_c, 2, 73, 70
5, 997888, Note_on_c, 2, 73, 0
5, 997888, Note_on_c, 2, 74, 72
5, 997990, Note_on_c, 2, 81, 0
5, 998400, Note_on_c, 2, 79, 73
5, 998400, Note_on_c, 2, 74, 0
5, 998400, Note_on_c, 2, 76, 73
5, 998912, Note_on_c, 2, 76, 0
5, 998912, Note_on_c, 2, 78, 74
5, 999014, Note_on_c, 2, 79, 0
5, 999424, Note_on_c, 2, 79, 76
5, 999424, Note_on_c, 2, 78, 0
5, 999424, Note_on_c, 2, 74, 76
5, 999936, Note_on_c, 2, 74, 0
5, 999936, Note_on_c, 2, 76, 77
5, 1000038, Note_on_c, 2, 79, 0
5, 1000448, Note_on_c, 2, 76, 0
5, 1000448, Note_on_c, 2, 78, 82
5, 1000448, Note_on_c, 2, 78, 82
5, 1001062, Note_on_c, 2, 78, 0
5, 1001062, Note_on_c, 2, 78, 0
5, 1001472, Note_on_c, 2, 74, 84
5, 1001472, Note_on_c, 2, 74, 84
5, 1002086, Note_on_c, 2, 74, 0
5, 1002086, Note_on_c, 2, 74, 0
5, 1002496, Note_on_c, 2, 69, 86
5, 1002496, Note_on_c, 2, 69, 86
5, 1003008, Note_on_c, 2, 69, 0
5, 1003008, Note_on_c, 2, 71, 87
5, 1003008, Note_on_c, 2, 69, 0
5, 1003008, Note_on_c, 2, 71, 87
5, 1003520, Note_on_c, 2, 71, 0
5, 1003520, Note_on_c, 2, 67, 88
5, 1003520, Note_on_c, 2, 71, 0
5, 1003520, Note_on_c, 2, 67, 88
5, 1004032, Note_on_c, 2, 67, 0
5, 1004032, Note_on_c, 2, 69, 89
5, 1004032, Note_on_c, 2, 67, 0
5, 1004032, Note_on_c, 2, 69, 89
5, 1004544, Note_on_c, 2, 69, 0
5, 1004544, Note_on_c, 2, 69, 0
5, 1004544, Note_on_c, 2, 71, 90
5, 1004544, Note_on_c, 2, 71, 90
5, 1005056, Note_on_c, 2, 71, 0
5, 1005056, Note_on_c, 2, 73, 91
5, 1005056, Note_on_c, 2, 71, 0
5, 1005056, Note_on_c, 2, 73, 91
5, 1005568, Note_on_c, 2, 73, 0
5, 1005568, Note_on_c, 2, 69, 92
5, 1005568, Note_on_c, 2, 73, 0
5, 1005568, Note_on_c, 2, 69, 92
5, 1006080, Note_on_c, 2, 69, 0
5, 1006080, Note_on_c, 2, 71, 93
5, 1006080, Note_on_c, 2, 69, 0
5, 1006080, Note_on_c, 2, 71, 93
5, 1006592, Note_on_c, 2, 71, 0
5, 1006592, Note_on_c, 2, 73, 94
5, 1006592, Note_on_c, 2, 71, 0
5, 1006592, Note_on_c, 2, 73, 94
5, 1007104, Note_on_c, 2, 73, 0
5, 1007104, Note_on_c, 2, 74, 96
5, 1007104, Note_on_c, 2, 73, 0
5, 1007104, Note_on_c, 2, 74, 96
5, 1007616, Note_on_c, 2, 74, 0
5, 1007616, Note_on_c, 2, 71, 97
5, 1007616, Note_on_c, 2, 74, 0
5, 1007616, Note_on_c, 2, 71, 97
5, 1008128, Note_on_c, 2, 71, 0
5, 1008128, Note_on_c, 2, 73, 99
5, 1008128, Note_on_c, 2, 71, 0
5, 1008128, Note_on_c, 2, 73, 99
5, 1008640, Note_on_c, 2, 73, 0
5, 1008640, Note_on_c, 2, 73, 0
5, 1008640, Note_on_c, 2, 74, 99
5, 1008640, Note_on_c, 2, 74, 99
5, 1009152, Note_on_c, 2, 74, 0
5, 1009152, Note_on_c, 2, 76, 99
5, 1009152, Note_on_c, 2, 74, 0
5, 1009152, Note_on_c, 2, 76, 99
5, 1009664, Note_on_c, 2, 76, 0
5, 1009664, Note_on_c, 2, 73, 100
5, 1009664, Note_on_c, 2, 76, 0
5, 1009664, Note_on_c, 2, 73, 100
5, 1010176, Note_on_c, 2, 73, 0
5, 1010176, Note_on_c, 2, 74, 100
5, 1010176, Note_on_c, 2, 73, 0
5, 1010176, Note_on_c, 2, 74, 100
5, 1010688, Note_on_c, 2, 74, 0
5, 1010688, Note_on_c, 2, 76, 101
5, 1010688, Note_on_c, 2, 74, 0
5, 1010688, Note_on_c, 2, 76, 101
5, 1011200, Note_on_c, 2, 76, 0
5, 1011200, Note_on_c, 2, 78, 101
5, 1011200, Note_on_c, 2, 76, 0
5, 1011200, Note_on_c, 2, 78, 101
5, 1011712, Note_on_c, 2, 78, 0
5, 1011712, Note_on_c, 2, 74, 101
5, 1011712, Note_on_c, 2, 78, 0
5, 1011712, Note_on_c, 2, 74, 101
5, 1012224, Note_on_c, 2, 74, 0
5, 1012224, Note_on_c, 2, 76, 102
5, 1012224, Note_on_c, 2, 74, 0
5, 1012224, Note_on_c, 2, 76, 102
5, 1012736, Note_on_c, 2, 76, 0
5, 1012736, Note_on_c, 2, 76, 0
5, 1012736, Note_on_c, 2, 78, 102
5, 1012736, Note_on_c, 2, 78, 102
5, 1013350, Note_on_c, 2, 78, 0
5, 1013350, Note_on_c, 2, 78, 0
5, 1013760, Note_on_c, 2, 76, 103
5, 1013760, Note_on_c, 2, 76, 103
5, 1014272, Note_on_c, 2, 76, 0
5, 1014272, Note_on_c, 2, 74, 103
5, 1014272, Note_on_c, 2, 76, 0
5, 1014272, Note_on_c, 2, 74, 103
5, 1014784, Note_on_c, 2, 74, 0
5, 1014784, Note_on_c, 2, 78, 104
5, 1014784, Note_on_c, 2, 74, 0
5, 1014784, Note_on_c, 2, 78, 104
5, 1015296, Note_on_c, 2, 78, 0
5, 1015296, Note_on_c, 2, 76, 104
5, 1015296, Note_on_c, 2, 78, 0
5, 1015296, Note_on_c, 2, 76, 104
5, 1015808, Note_on_c, 2, 76, 0
5, 1015808, Note_on_c, 2, 74, 104
5, 1015808, Note_on_c, 2, 76, 0
5, 1015808, Note_on_c, 2, 74, 104
5, 1016320, Note_on_c, 2, 74, 0
5, 1016320, Note_on_c, 2, 73, 105
5, 1016320, Note_on_c, 2, 74, 0
5, 1016320, Note_on_c, 2, 73, 105
5, 1016832, Note_on_c, 2, 73, 0
5, 1016832, Note_on_c, 2, 73, 0
5, 1016832, Note_on_c, 2, 74, 105
5, 1016832, Note_on_c, 2, 74, 105
5, 1017446, Note_on_c, 2, 74, 0
5, 1017446, Note_on_c, 2, 74, 0
5, 1017856, Note_on_c, 2, 69, 106
5, 1017856, Note_on_c, 2, 69, 106
5, 1018470, Note_on_c, 2, 69, 0
5, 1018470, Note_on_c, 2, 69, 0
5, 1018880, Note_on_c, 2, 78, 107
5, 1018880, Note_on_c, 2, 78, 107
5, 1019494, Note_on_c, 2, 78, 0
5, 1019494, Note_on_c, 2, 78, 0
5, 1019904, Note_on_c, 2, 74, 108
5, 1019904, Note_on_c, 2, 74, 108
5, 1020518, Note_on_c, 2, 74, 0
5, 1020518, Note_on_c, 2, 74, 0
5, 1020928, Note_on_c, 2, 81, 108
5, 1020928, Note_on_c, 2, 81, 108
5, 1021542, Note_on_c, 2, 81, 0
5, 1021542, Note_on_c, 2, 81, 0
5, 1021952, Note_on_c, 2, 79, 108
5, 1021952, Note_on_c, 2, 79, 108
5, 1022208, Note_on_c, 2, 79, 0
5, 1022208, Note_on_c, 2, 78, 108
5, 1022208, Note_on_c, 2, 79, 0
5, 1022208, Note_on_c, 2, 78, 108
5, 1022464, Note_on_c, 2, 78, 0
5, 1022464, Note_on_c, 2, 76, 108
5, 1022464, Note_on_c, 2, 78, 0
5, 1022464, Note_on_c, 2, 76, 108
5, 1022720, Note_on_c, 2, 76, 0
5, 1022720, Note_on_c, 2, 74, 108
5, 1022720, Note_on_c, 2, 76, 0
5, 1022720, Note_on_c, 2, 74, 108
5, 1022976, Note_on_c, 2, 74, 0
5, 1022976, Note_on_c, 2, 78, 108
5, 1022976, Note_on_c, 2, 74, 0
5, 1022976, Note_on_c, 2, 78, 108
5, 1024000, Note_on_c, 2, 78, 0
5, 1024000, Note_on_c, 2, 76, 108
5, 1024000, Note_on_c, 2, 78, 0
5, 1024000, Note_on_c, 2, 76, 108
5, 1024614, Note_on_c, 2, 76, 0
5, 1024614, Note_on_c, 2, 76, 0
5, 1025024, Note_on_c, 2, 74, 108
5, 1025024, Note_on_c, 2, 74, 108
5, 1025638, Note_on_c, 2, 74, 0
5, 1025638, Note_on_c, 2, 74, 0
5, 1033216, End_track
6, 0, Start_track
6, 0, Title_t, "Bassoon"
6, 0, Program_c, 4, 70
6, 0, Control_c, 4, 121, 127
6, 0, Control_c, 4, 1, 5
6, 0, Control_c, 4, 10, 90
6, 1024, Note_on_c, 4, 54, 64
6, 1638, Note_on_c, 4, 54, 0
6, 2048, Note_on_c, 4, 56, 64
6, 2662, Note_on_c, 4, 56, 0
6, 3072, Note_on_c, 4, 57, 64
6, 3686, Note_on_c, 4, 57, 0
6, 4096, Note_on_c, 4, 54, 64
6, 4710, Note_on_c, 4, 54, 0
6, 5120, Note_on_c, 4, 59, 64
6, 5734, Note_on_c, 4, 59, 0
6, 6144, Note_on_c, 4, 54, 64
6, 6758, Note_on_c, 4, 54, 0
6, 7168, Note_on_c, 4, 50, 64
6, 7782, Note_on_c, 4, 50, 0
6, 8192, Note_on_c, 4, 47, 64
6, 8806, Note_on_c, 4, 47, 0
6, 9216, Note_on_c, 4, 54, 64
6, 9830, Note_on_c, 4, 54, 0
6, 10240, Note_on_c, 4, 52, 64
6, 10854, Note_on_c, 4, 52, 0
6, 11264, Note_on_c, 4, 50, 64
6, 11878, Note_on_c, 4, 50, 0
6, 12288, Note_on_c, 4, 49, 64
6, 12902, Note_on_c, 4, 49, 0
6, 13312, Note_on_c, 4, 47, 64
6, 13926, Note_on_c, 4, 47, 0
6, 14336, Note_on_c, 4, 45, 64
6, 14848, Note_on_c, 4, 45, 0
6, 14848, Note_on_c, 4, 47, 64
6, 15360, Note_on_c, 4, 47, 0
6, 15360, Note_on_c, 4, 49, 64
6, 15974, Note_on_c, 4, 49, 0
6, 16384, Note_on_c, 4, 61, 64
6, 16998, Note_on_c, 4, 61, 0
6, 17408, Note_on_c, 4, 62, 64
6, 18022, Note_on_c, 4, 62, 0
6, 18432, Note_on_c, 4, 50, 64
6, 18944, Note_on_c, 4, 50, 0
6, 18944, Note_on_c, 4, 49, 64
6, 19456, Note_on_c, 4, 49, 0
6, 19456, Note_on_c, 4, 50, 64
6, 20070, Note_on_c, 4, 50, 0
6, 20480, Note_on_c, 4, 47, 64
6, 21094, Note_on_c, 4, 47, 0
6, 21504, Note_on_c, 4, 54, 64
6, 22118, Note_on_c, 4, 54, 0
6, 22528, Note_on_c, 4, 53, 64
6, 23142, Note_on_c, 4, 53, 0
6, 23552, Note_on_c, 4, 54, 64
6, 24166, Note_on_c, 4, 54, 0
6, 24576, Note_on_c, 4, 57, 64
6, 25190, Note_on_c, 4, 57, 0
6, 25600, Note_on_c, 4, 56, 64
6, 26214, Note_on_c, 4, 56, 0
6, 26624, Note_on_c, 4, 54, 64
6, 27238, Note_on_c, 4, 54, 0
6, 27648, Note_on_c, 4, 56, 64
6, 28262, Note_on_c, 4, 56, 0
6, 28672, Note_on_c, 4, 49, 64
6, 29286, Note_on_c, 4, 49, 0
6, 29696, Note_on_c, 4, 50, 64
6, 30310, Note_on_c, 4, 50, 0
6, 30720, Note_on_c, 4, 49, 64
6, 31334, Note_on_c, 4, 49, 0
6, 31744, Note_on_c, 4, 50, 64
6, 32358, Note_on_c, 4, 50, 0
6, 32768, Note_on_c, 4, 38, 64
6, 33382, Note_on_c, 4, 38, 0
6, 33792, Note_on_c, 4, 37, 64
6, 34406, Note_on_c, 4, 37, 0
6, 34816, Note_on_c, 4, 42, 64
6, 35430, Note_on_c, 4, 42, 0
6, 35840, Note_on_c, 4, 54, 64
6, 36352, Note_on_c, 4, 54, 0
6, 36352, Note_on_c, 4, 53, 64
6, 36864, Note_on_c, 4, 53, 0
6, 36864, Note_on_c, 4, 54, 64
6, 38502, Note_on_c, 4, 54, 0
6, 38912, Note_on_c, 4, 54, 64
6, 39526, Note_on_c, 4, 54, 0
6, 39936, Note_on_c, 4, 53, 64
6, 40550, Note_on_c, 4, 53, 0
6, 40960, Note_on_c, 4, 51, 64
6, 41472, Note_on_c, 4, 51, 0
6, 41472, Note_on_c, 4, 53, 64
6, 41984, Note_on_c, 4, 53, 0
6, 41984, Note_on_c, 4, 54, 64
6, 42598, Note_on_c, 4, 54, 0
6, 43008, Note_on_c, 4, 56, 64
6, 43622, Note_on_c, 4, 56, 0
6, 44032, Note_on_c, 4, 57, 64
6, 44646, Note_on_c, 4, 57, 0
6, 45056, Note_on_c, 4, 54, 64
6, 45670, Note_on_c, 4, 54, 0
6, 46080, Note_on_c, 4, 59, 64
6, 46694, Note_on_c, 4, 59, 0
6, 47104, Note_on_c, 4, 47, 64
6, 47718, Note_on_c, 4, 47, 0
6, 48128, Note_on_c, 4, 59, 64
6, 48640, Note_on_c, 4, 59, 0
6, 48640, Note_on_c, 4, 57, 64
6, 49152, Note_on_c, 4, 57, 0
6, 49152, Note_on_c, 4, 59, 64
6, 50790, Note_on_c, 4, 59, 0
6, 51200, Note_on_c, 4, 61, 63
6, 51712, Note_on_c, 4, 61, 0
6, 51712, Note_on_c, 4, 59, 64
6, 52224, Note_on_c, 4, 59, 0
6, 52224, Note_on_c, 4, 57, 65
6, 52838, Note_on_c, 4, 57, 0
6, 53248, Note_on_c, 4, 56, 67
6, 53862, Note_on_c, 4, 56, 0
6, 54272, Note_on_c, 4, 57, 69
6, 54886, Note_on_c, 4, 57, 0
6, 55296, Note_on_c, 4, 56, 71
6, 55910, Note_on_c, 4, 56, 0
6, 56320, Note_on_c, 4, 54, 73
6, 56934, Note_on_c, 4, 54, 0
6, 57344, Note_on_c, 4, 52, 75
6, 57958, Note_on_c, 4, 52, 0
6, 58368, Note_on_c, 4, 50, 77
6, 58982, Note_on_c, 4, 50, 0
6, 59392, Note_on_c, 4, 49, 79
6, 60006, Note_on_c, 4, 49, 0
6, 60416, Note_on_c, 4, 50, 81
6, 62464, Note_on_c, 4, 50, 0
6, 62464, Note_on_c, 4, 49, 64
6, 64512, Note_on_c, 4, 49, 0
6, 65536, Note_on_c, 4, 49, 43
6, 66150, Note_on_c, 4, 49, 0
6, 66560, Note_on_c, 4, 50, 43
6, 68608, Note_on_c, 4, 50, 0
6, 69632, Note_on_c, 4, 51, 43
6, 70246, Note_on_c, 4, 51, 0
6, 70656, Note_on_c, 4, 52, 44
6, 71270, Note_on_c, 4, 52, 0
6, 71680, Note_on_c, 4, 53, 44
6, 72294, Note_on_c, 4, 53, 0
6, 72704, Note_on_c, 4, 54, 44
6, 73318, Note_on_c, 4, 54, 0
6, 73728, Note_on_c, 4, 50, 44
6, 74342, Note_on_c, 4, 50, 0
6, 74752, Note_on_c, 4, 47, 44
6, 75366, Note_on_c, 4, 47, 0
6, 75776, Note_on_c, 4, 50, 44
6, 76390, Note_on_c, 4, 50, 0
6, 76800, Note_on_c, 4, 49, 45
6, 77414, Note_on_c, 4, 49, 0
6, 77824, Note_on_c, 4, 47, 45
6, 78438, Note_on_c, 4, 47, 0
6, 78848, Note_on_c, 4, 46, 45
6, 79462, Note_on_c, 4, 46, 0
6, 79872, Note_on_c, 4, 42, 45
6, 80486, Note_on_c, 4, 42, 0
6, 80896, Note_on_c, 4, 47, 45
6, 81510, Note_on_c, 4, 47, 0
6, 81920, Note_on_c, 4, 51, 46
6, 82534, Note_on_c, 4, 51, 0
6, 82944, Note_on_c, 4, 52, 46
6, 83558, Note_on_c, 4, 52, 0
6, 83968, Note_on_c, 4, 49, 46
6, 84582, Note_on_c, 4, 49, 0
6, 84992, Note_on_c, 4, 54, 46
6, 85606, Note_on_c, 4, 54, 0
6, 86016, Note_on_c, 4, 52, 46
6, 86630, Note_on_c, 4, 52, 0
6, 87040, Note_on_c, 4, 51, 47
6, 87654, Note_on_c, 4, 51, 0
6, 88064, Note_on_c, 4, 47, 47
6, 88678, Note_on_c, 4, 47, 0
6, 89088, Note_on_c, 4, 52, 47
6, 89702, Note_on_c, 4, 52, 0
6, 90112, Note_on_c, 4, 56, 47
6, 90726, Note_on_c, 4, 56, 0
6, 91136, Note_on_c, 4, 57, 47
6, 91750, Note_on_c, 4, 57, 0
6, 92160, Note_on_c, 4, 54, 48
6, 92774, Note_on_c, 4, 54, 0
6, 93184, Note_on_c, 4, 59, 50
6, 93798, Note_on_c, 4, 59, 0
6, 94208, Note_on_c, 4, 57, 52
6, 94822, Note_on_c, 4, 57, 0
6, 95232, Note_on_c, 4, 56, 54
6, 95846, Note_on_c, 4, 56, 0
6, 96256, Note_on_c, 4, 52, 56
6, 96870, Note_on_c, 4, 52, 0
6, 97280, Note_on_c, 4, 57, 58
6, 97894, Note_on_c, 4, 57, 0
6, 98304, Note_on_c, 4, 57, 60
6, 99942, Note_on_c, 4, 57, 0
6, 100352, Note_on_c, 4, 50, 64
6, 100966, Note_on_c, 4, 50, 0
6, 101376, Note_on_c, 4, 55, 66
6, 104038, Note_on_c, 4, 55, 0
6, 104448, Note_on_c, 4, 54, 64
6, 104960, Note_on_c, 4, 54, 0
6, 104960, Note_on_c, 4, 52, 64
6, 105472, Note_on_c, 4, 52, 0
6, 105472, Note_on_c, 4, 54, 64
6, 106086, Note_on_c, 4, 54, 0
6, 106496, Note_on_c, 4, 50, 64
6, 107110, Note_on_c, 4, 50, 0
6, 107520, Note_on_c, 4, 52, 64
6, 109568, Note_on_c, 4, 52, 0
6, 109568, Note_on_c, 4, 45, 64
6, 111616, Note_on_c, 4, 45, 0
6, 111616, Note_on_c, 4, 50, 64
6, 112230, Note_on_c, 4, 50, 0
6, 112640, Note_on_c, 4, 54, 64
6, 113254, Note_on_c, 4, 54, 0
6, 113664, Note_on_c, 4, 55, 65
6, 114278, Note_on_c, 4, 55, 0
6, 114688, Note_on_c, 4, 50, 67
6, 115302, Note_on_c, 4, 50, 0
6, 115712, Note_on_c, 4, 52, 69
6, 116326, Note_on_c, 4, 52, 0
6, 116736, Note_on_c, 4, 49, 70
6, 117350, Note_on_c, 4, 49, 0
6, 117760, Note_on_c, 4, 54, 72
6, 118374, Note_on_c, 4, 54, 0
6, 118784, Note_on_c, 4, 52, 73
6, 119398, Note_on_c, 4, 52, 0
6, 119808, Note_on_c, 4, 51, 75
6, 120422, Note_on_c, 4, 51, 0
6, 120832, Note_on_c, 4, 52, 76
6, 121344, Note_on_c, 4, 52, 0
6, 121344, Note_on_c, 4, 54, 77
6, 121856, Note_on_c, 4, 54, 0
6, 121856, Note_on_c, 4, 55, 78
6, 122470, Note_on_c, 4, 55, 0
6, 122880, Note_on_c, 4, 54, 79
6, 123494, Note_on_c, 4, 54, 0
6, 123904, Note_on_c, 4, 53, 81
6, 125952, Note_on_c, 4, 53, 0
6, 125952, Note_on_c, 4, 54, 84
6, 128000, Note_on_c, 4, 54, 0
6, 128000, Note_on_c, 4, 47, 87
6, 128614, Note_on_c, 4, 47, 0
6, 129024, Note_on_c, 4, 49, 64
6, 129638, Note_on_c, 4, 49, 0
6, 130048, Note_on_c, 4, 50, 64
6, 130662, Note_on_c, 4, 50, 0
6, 131072, Note_on_c, 4, 47, 64
6, 131686, Note_on_c, 4, 47, 0
6, 132096, Note_on_c, 4, 54, 64
6, 132710, Note_on_c, 4, 54, 0
6, 133120, Note_on_c, 4, 57, 64
6, 133734, Note_on_c, 4, 57, 0
6, 134144, Note_on_c, 4, 62, 64
6, 134758, Note_on_c, 4, 62, 0
6, 135168, Note_on_c, 4, 61, 64
6, 135782, Note_on_c, 4, 61, 0
6, 136192, Note_on_c, 4, 59, 64
6, 136806, Note_on_c, 4, 59, 0
6, 137216, Note_on_c, 4, 56, 64
6, 137830, Note_on_c, 4, 56, 0
6, 138240, Note_on_c, 4, 61, 64
6, 138854, Note_on_c, 4, 61, 0
6, 139264, Note_on_c, 4, 49, 64
6, 139878, Note_on_c, 4, 49, 0
6, 140288, Note_on_c, 4, 54, 64
6, 140902, Note_on_c, 4, 54, 0
6, 141312, Note_on_c, 4, 59, 64
6, 141926, Note_on_c, 4, 59, 0
6, 142336, Note_on_c, 4, 57, 64
6, 142950, Note_on_c, 4, 57, 0
6, 143360, Note_on_c, 4, 56, 64
6, 143974, Note_on_c, 4, 56, 0
6, 144384, Note_on_c, 4, 57, 64
6, 144896, Note_on_c, 4, 57, 0
6, 144896, Note_on_c, 4, 59, 64
6, 145408, Note_on_c, 4, 59, 0
6, 145408, Note_on_c, 4, 61, 64
6, 147456, Note_on_c, 4, 61, 0
6, 147456, Note_on_c, 4, 59, 64
6, 149094, Note_on_c, 4, 59, 0
6, 149504, Note_on_c, 4, 57, 64
6, 150016, Note_on_c, 4, 57, 0
6, 150016, Note_on_c, 4, 56, 64
6, 150528, Note_on_c, 4, 56, 0
6, 150528, Note_on_c, 4, 61, 64
6, 151142, Note_on_c, 4, 61, 0
6, 151552, Note_on_c, 4, 59, 64
6, 152166, Note_on_c, 4, 59, 0
6, 152576, Note_on_c, 4, 57, 64
6, 153190, Note_on_c, 4, 57, 0
6, 153600, Note_on_c, 4, 59, 64
6, 154112, Note_on_c, 4, 59, 0
6, 154112, Note_on_c, 4, 61, 64
6, 154624, Note_on_c, 4, 61, 0
6, 154624, Note_on_c, 4, 62, 64
6, 155238, Note_on_c, 4, 62, 0
6, 155648, Note_on_c, 4, 59, 64
6, 156262, Note_on_c, 4, 59, 0
6, 156672, Note_on_c, 4, 61, 64
6, 157286, Note_on_c, 4, 61, 0
6, 157696, Note_on_c, 4, 53, 64
6, 158310, Note_on_c, 4, 53, 0
6, 158720, Note_on_c, 4, 54, 64
6, 159334, Note_on_c, 4, 54, 0
6, 159744, Note_on_c, 4, 57, 64
6, 160358, Note_on_c, 4, 57, 0
6, 160768, Note_on_c, 4, 56, 64
6, 161382, Note_on_c, 4, 56, 0
6, 161792, Note_on_c, 4, 54, 64
6, 162406, Note_on_c, 4, 54, 0
6, 162816, Note_on_c, 4, 56, 64
6, 163430, Note_on_c, 4, 56, 0
6, 163840, Note_on_c, 4, 44, 64
6, 164454, Note_on_c, 4, 44, 0
6, 164864, Note_on_c, 4, 45, 64
6, 165478, Note_on_c, 4, 45, 0
6, 165888, Note_on_c, 4, 57, 64
6, 166400, Note_on_c, 4, 57, 0
6, 166400, Note_on_c, 4, 56, 64
6, 166912, Note_on_c, 4, 56, 0
6, 166912, Note_on_c, 4, 57, 64
6, 167526, Note_on_c, 4, 57, 0
6, 167936, Note_on_c, 4, 45, 64
6, 168550, Note_on_c, 4, 45, 0
6, 168960, Note_on_c, 4, 44, 64
6, 169574, Note_on_c, 4, 44, 0
6, 169984, Note_on_c, 4, 49, 64
6, 170496, Note_on_c, 4, 49, 0
6, 170496, Note_on_c, 4, 48, 64
6, 171008, Note_on_c, 4, 48, 0
6, 171008, Note_on_c, 4, 49, 64
6, 175104, Note_on_c, 4, 49, 0
6, 175104, Note_on_c, 4, 48, 64
6, 177152, Note_on_c, 4, 48, 0
6, 177152, Note_on_c, 4, 49, 64
6, 177766, Note_on_c, 4, 49, 0
6, 178176, Note_on_c, 4, 52, 64
6, 178688, Note_on_c, 4, 52, 0
6, 178688, Note_on_c, 4, 51, 64
6, 179200, Note_on_c, 4, 51, 0
6, 179200, Note_on_c, 4, 49, 64
6, 179814, Note_on_c, 4, 49, 0
6, 180224, Note_on_c, 4, 51, 64
6, 180838, Note_on_c, 4, 51, 0
6, 181248, Note_on_c, 4, 52, 64
6, 181862, Note_on_c, 4, 52, 0
6, 182272, Note_on_c, 4, 56, 64
6, 182886, Note_on_c, 4, 56, 0
6, 183296, Note_on_c, 4, 52, 64
6, 183910, Note_on_c, 4, 52, 0
6, 184320, Note_on_c, 4, 49, 64
6, 184934, Note_on_c, 4, 49, 0
6, 185344, Note_on_c, 4, 54, 64
6, 185958, Note_on_c, 4, 54, 0
6, 186368, Note_on_c, 4, 56, 64
6, 186880, Note_on_c, 4, 56, 0
6, 186880, Note_on_c, 4, 57, 64
6, 187392, Note_on_c, 4, 57, 0
6, 187392, Note_on_c, 4, 59, 64
6, 188006, Note_on_c, 4, 59, 0
6, 188416, Note_on_c, 4, 47, 64
6, 189030, Note_on_c, 4, 47, 0
6, 189440, Note_on_c, 4, 52, 64
6, 190054, Note_on_c, 4, 52, 0
6, 190464, Note_on_c, 4, 40, 64
6, 191078, Note_on_c, 4, 40, 0
6, 191488, Note_on_c, 4, 52, 64
6, 194150, Note_on_c, 4, 52, 0
6, 194560, Note_on_c, 4, 45, 64
6, 195174, Note_on_c, 4, 45, 0
6, 195584, Note_on_c, 4, 50, 64
6, 196198, Note_on_c, 4, 50, 0
6, 196608, Note_on_c, 4, 47, 64
6, 197222, Note_on_c, 4, 47, 0
6, 197632, Note_on_c, 4, 52, 64
6, 198246, Note_on_c, 4, 52, 0
6, 198656, Note_on_c, 4, 54, 64
6, 199168, Note_on_c, 4, 54, 0
6, 199168, Note_on_c, 4, 56, 64
6, 199680, Note_on_c, 4, 56, 0
6, 199680, Note_on_c, 4, 57, 64
6, 200294, Note_on_c, 4, 57, 0
6, 200704, Note_on_c, 4, 54, 64
6, 201318, Note_on_c, 4, 54, 0
6, 201728, Note_on_c, 4, 59, 64
6, 202342, Note_on_c, 4, 59, 0
6, 202752, Note_on_c, 4, 47, 64
6, 203366, Note_on_c, 4, 47, 0
6, 203776, Note_on_c, 4, 59, 64
6, 206438, Note_on_c, 4, 59, 0
6, 206848, Note_on_c, 4, 57, 64
6, 207360, Note_on_c, 4, 57, 0
6, 207360, Note_on_c, 4, 56, 64
6, 207872, Note_on_c, 4, 56, 0
6, 207872, Note_on_c, 4, 57, 64
6, 210534, Note_on_c, 4, 57, 0
6, 210944, Note_on_c, 4, 50, 62
6, 211558, Note_on_c, 4, 50, 0
6, 211968, Note_on_c, 4, 55, 64
6, 214630, Note_on_c, 4, 55, 0
6, 215040, Note_on_c, 4, 54, 70
6, 215552, Note_on_c, 4, 54, 0
6, 215552, Note_on_c, 4, 52, 71
6, 216064, Note_on_c, 4, 52, 0
6, 216064, Note_on_c, 4, 54, 72
6, 216678, Note_on_c, 4, 54, 0
6, 217088, Note_on_c, 4, 50, 74
6, 217702, Note_on_c, 4, 50, 0
6, 218112, Note_on_c, 4, 57, 76
6, 218726, Note_on_c, 4, 57, 0
6, 219136, Note_on_c, 4, 55, 78
6, 219750, Note_on_c, 4, 55, 0
6, 220160, Note_on_c, 4, 57, 80
6, 220774, Note_on_c, 4, 57, 0
6, 221184, Note_on_c, 4, 45, 79
6, 221798, Note_on_c, 4, 45, 0
6, 222208, Note_on_c, 4, 50, 81
6, 222822, Note_on_c, 4, 50, 0
6, 223232, Note_on_c, 4, 52, 52
6, 223846, Note_on_c, 4, 52, 0
6, 224256, Note_on_c, 4, 54, 50
6, 224870, Note_on_c, 4, 54, 0
6, 225280, Note_on_c, 4, 50, 48
6, 225894, Note_on_c, 4, 50, 0
6, 226304, Note_on_c, 4, 57, 46
6, 226918, Note_on_c, 4, 57, 0
6, 227328, Note_on_c, 4, 56, 46
6, 227942, Note_on_c, 4, 56, 0
6, 228352, Note_on_c, 4, 54, 46
6, 228966, Note_on_c, 4, 54, 0
6, 229376, Note_on_c, 4, 56, 46
6, 229888, Note_on_c, 4, 56, 0
6, 229888, Note_on_c, 4, 57, 46
6, 230400, Note_on_c, 4, 57, 0
6, 230400, Note_on_c, 4, 59, 46
6, 231014, Note_on_c, 4, 59, 0
6, 231424, Note_on_c, 4, 61, 46
6, 231936, Note_on_c, 4, 61, 0
6, 231936, Note_on_c, 4, 62, 46
6, 232448, Note_on_c, 4, 62, 0
6, 232448, Note_on_c, 4, 64, 46
6, 233062, Note_on_c, 4, 64, 0
6, 233472, Note_on_c, 4, 52, 46
6, 234086, Note_on_c, 4, 52, 0
6, 234496, Note_on_c, 4, 54, 46
6, 235110, Note_on_c, 4, 54, 0
6, 235520, Note_on_c, 4, 42, 46
6, 236032, Note_on_c, 4, 42, 0
6, 236032, Note_on_c, 4, 40, 46
6, 236544, Note_on_c, 4, 40, 0
6, 236544, Note_on_c, 4, 42, 46
6, 237158, Note_on_c, 4, 42, 0
6, 237568, Note_on_c, 4, 54, 46
6, 238182, Note_on_c, 4, 54, 0
6, 238592, Note_on_c, 4, 52, 46
6, 239206, Note_on_c, 4, 52, 0
6, 239616, Note_on_c, 4, 45, 46
6, 240230, Note_on_c, 4, 45, 0
6, 240640, Note_on_c, 4, 57, 46
6, 243302, Note_on_c, 4, 57, 0
6, 243712, Note_on_c, 4, 56, 46
6, 244224, Note_on_c, 4, 56, 0
6, 244224, Note_on_c, 4, 54, 46
6, 244736, Note_on_c, 4, 54, 0
6, 244736, Note_on_c, 4, 56, 46
6, 245350, Note_on_c, 4, 56, 0
6, 245760, Note_on_c, 4, 52, 46
6, 246374, Note_on_c, 4, 52, 0
6, 246784, Note_on_c, 4, 57, 46
6, 247398, Note_on_c, 4, 57, 0
6, 247808, Note_on_c, 4, 54, 46
6, 248422, Note_on_c, 4, 54, 0
6, 248832, Note_on_c, 4, 59, 46
6, 249446, Note_on_c, 4, 59, 0
6, 249856, Note_on_c, 4, 57, 46
6, 250470, Note_on_c, 4, 57, 0
6, 250880, Note_on_c, 4, 56, 46
6, 251494, Note_on_c, 4, 56, 0
6, 251904, Note_on_c, 4, 52, 46
6, 252518, Note_on_c, 4, 52, 0
6, 252928, Note_on_c, 4, 57, 46
6, 255590, Note_on_c, 4, 57, 0
6, 256000, Note_on_c, 4, 51, 46
6, 256614, Note_on_c, 4, 51, 0
6, 257024, Note_on_c, 4, 56, 46
6, 259686, Note_on_c, 4, 56, 0
6, 260096, Note_on_c, 4, 54, 46
6, 260608, Note_on_c, 4, 54, 0
6, 260608, Note_on_c, 4, 52, 46
6, 261120, Note_on_c, 4, 52, 0
6, 261120, Note_on_c, 4, 54, 46
6, 261734, Note_on_c, 4, 54, 0
6, 262144, Note_on_c, 4, 47, 46
6, 262758, Note_on_c, 4, 47, 0
6, 263168, Note_on_c, 4, 52, 47
6, 263782, Note_on_c, 4, 52, 0
6, 264192, Note_on_c, 4, 52, 49
6, 264806, Note_on_c, 4, 52, 0
6, 265216, Note_on_c, 4, 53, 50
6, 265830, Note_on_c, 4, 53, 0
6, 266240, Note_on_c, 4, 53, 52
6, 266854, Note_on_c, 4, 53, 0
6, 267264, Note_on_c, 4, 54, 54
6, 267878, Note_on_c, 4, 54, 0
6, 268288, Note_on_c, 4, 54, 56
6, 268902, Note_on_c, 4, 54, 0
6, 269312, Note_on_c, 4, 55, 57
6, 269926, Note_on_c, 4, 55, 0
6, 270336, Note_on_c, 4, 55, 59
6, 270950, Note_on_c, 4, 55, 0
6, 271360, Note_on_c, 4, 56, 61
6, 271974, Note_on_c, 4, 56, 0
6, 272384, Note_on_c, 4, 56, 62
6, 272998, Note_on_c, 4, 56, 0
6, 273408, Note_on_c, 4, 56, 64
6, 274022, Note_on_c, 4, 56, 0
6, 274432, Note_on_c, 4, 56, 66
6, 275046, Note_on_c, 4, 56, 0
6, 275456, Note_on_c, 4, 55, 68
6, 276070, Note_on_c, 4, 55, 0
6, 276480, Note_on_c, 4, 55, 69
6, 277094, Note_on_c, 4, 55, 0
6, 277504, Note_on_c, 4, 56, 71
6, 278118, Note_on_c, 4, 56, 0
6, 278528, Note_on_c, 4, 56, 73
6, 279142, Note_on_c, 4, 56, 0
6, 279552, Note_on_c, 4, 49, 50
6, 296550, Note_on_c, 4, 49, 0
6, 296960, Note_on_c, 4, 61, 48
6, 297574, Note_on_c, 4, 61, 0
6, 297984, Note_on_c, 4, 59, 48
6, 298598, Note_on_c, 4, 59, 0
6, 299008, Note_on_c, 4, 57, 48
6, 299622, Note_on_c, 4, 57, 0
6, 300032, Note_on_c, 4, 56, 48
6, 300646, Note_on_c, 4, 56, 0
6, 301056, Note_on_c, 4, 44, 48
6, 301670, Note_on_c, 4, 44, 0
6, 302080, Note_on_c, 4, 42, 48
6, 302694, Note_on_c, 4, 42, 0
6, 303104, Note_on_c, 4, 40, 48
6, 303718, Note_on_c, 4, 40, 0
6, 304128, Note_on_c, 4, 47, 48
6, 304742, Note_on_c, 4, 47, 0
6, 305152, Note_on_c, 4, 59, 48
6, 305766, Note_on_c, 4, 59, 0
6, 306176, Note_on_c, 4, 58, 48
6, 306790, Note_on_c, 4, 58, 0
6, 307200, Note_on_c, 4, 56, 48
6, 307814, Note_on_c, 4, 56, 0
6, 308224, Note_on_c, 4, 58, 48
6, 308838, Note_on_c, 4, 58, 0
6, 309248, Note_on_c, 4, 54, 48
6, 309862, Note_on_c, 4, 54, 0
6, 310272, Note_on_c, 4, 56, 48
6, 310886, Note_on_c, 4, 56, 0
6, 311296, Note_on_c, 4, 58, 48
6, 311910, Note_on_c, 4, 58, 0
6, 312320, Note_on_c, 4, 59, 48
6, 312934, Note_on_c, 4, 59, 0
6, 313344, Note_on_c, 4, 47, 48
6, 313856, Note_on_c, 4, 47, 0
6, 313856, Note_on_c, 4, 46, 48
6, 314368, Note_on_c, 4, 46, 0
6, 314368, Note_on_c, 4, 47, 48
6, 314982, Note_on_c, 4, 47, 0
6, 315392, Note_on_c, 4, 49, 48
6, 316006, Note_on_c, 4, 49, 0
6, 316416, Note_on_c, 4, 50, 48
6, 317030, Note_on_c, 4, 50, 0
6, 317440, Note_on_c, 4, 49, 48
6, 318054, Note_on_c, 4, 49, 0
6, 318464, Note_on_c, 4, 50, 48
6, 319078, Note_on_c, 4, 50, 0
6, 319488, Note_on_c, 4, 52, 48
6, 320102, Note_on_c, 4, 52, 0
6, 320512, Note_on_c, 4, 54, 48
6, 321126, Note_on_c, 4, 54, 0
6, 321536, Note_on_c, 4, 42, 48
6, 322048, Note_on_c, 4, 42, 0
6, 322048, Note_on_c, 4, 41, 48
6, 322560, Note_on_c, 4, 41, 0
6, 322560, Note_on_c, 4, 42, 48
6, 323174, Note_on_c, 4, 42, 0
6, 323584, Note_on_c, 4, 44, 48
6, 324198, Note_on_c, 4, 44, 0
6, 324608, Note_on_c, 4, 45, 48
6, 325222, Note_on_c, 4, 45, 0
6, 325632, Note_on_c, 4, 44, 48
6, 326246, Note_on_c, 4, 44, 0
6, 326656, Note_on_c, 4, 45, 48
6, 327270, Note_on_c, 4, 45, 0
6, 327680, Note_on_c, 4, 47, 48
6, 328294, Note_on_c, 4, 47, 0
6, 328704, Note_on_c, 4, 49, 48
6, 329318, Note_on_c, 4, 49, 0
6, 329728, Note_on_c, 4, 47, 49
6, 330342, Note_on_c, 4, 47, 0
6, 330752, Note_on_c, 4, 49, 50
6, 331366, Note_on_c, 4, 49, 0
6, 331776, Note_on_c, 4, 51, 51
6, 332390, Note_on_c, 4, 51, 0
6, 332800, Note_on_c, 4, 52, 52
6, 333414, Note_on_c, 4, 52, 0
6, 333824, Note_on_c, 4, 49, 53
6, 334438, Note_on_c, 4, 49, 0
6, 334848, Note_on_c, 4, 46, 54
6, 335462, Note_on_c, 4, 46, 0
6, 335872, Note_on_c, 4, 54, 55
6, 336486, Note_on_c, 4, 54, 0
6, 336896, Note_on_c, 4, 59, 56
6, 337510, Note_on_c, 4, 59, 0
6, 337920, Note_on_c, 4, 47, 58
6, 339968, Note_on_c, 4, 47, 0
6, 339968, Note_on_c, 4, 46, 60
6, 340480, Note_on_c, 4, 46, 0
6, 340480, Note_on_c, 4, 44, 60
6, 340992, Note_on_c, 4, 44, 0
6, 340992, Note_on_c, 4, 46, 61
6, 341606, Note_on_c, 4, 46, 0
6, 342016, Note_on_c, 4, 54, 62
6, 344064, Note_on_c, 4, 54, 0
6, 344064, Note_on_c, 4, 53, 64
6, 344576, Note_on_c, 4, 53, 0
6, 344576, Note_on_c, 4, 51, 65
6, 345088, Note_on_c, 4, 51, 0
6, 345088, Note_on_c, 4, 53, 65
6, 345702, Note_on_c, 4, 53, 0
6, 346112, Note_on_c, 4, 49, 66
6, 346726, Note_on_c, 4, 49, 0
6, 347136, Note_on_c, 4, 54, 67
6, 347750, Note_on_c, 4, 54, 0
6, 348160, Note_on_c, 4, 52, 68
6, 348774, Note_on_c, 4, 52, 0
6, 349184, Note_on_c, 4, 51, 69
6, 349798, Note_on_c, 4, 51, 0
6, 350208, Note_on_c, 4, 47, 71
6, 350822, Note_on_c, 4, 47, 0
6, 351232, Note_on_c, 4, 52, 72
6, 353894, Note_on_c, 4, 52, 0
6, 354304, Note_on_c, 4, 51, 75
6, 354816, Note_on_c, 4, 51, 0
6, 354816, Note_on_c, 4, 49, 75
6, 355328, Note_on_c, 4, 49, 0
6, 355328, Note_on_c, 4, 51, 76
6, 355942, Note_on_c, 4, 51, 0
6, 356352, Note_on_c, 4, 44, 77
6, 356966, Note_on_c, 4, 44, 0
6, 357376, Note_on_c, 4, 49, 78
6, 357990, Note_on_c, 4, 49, 0
6, 358400, Note_on_c, 4, 56, 43
6, 359014, Note_on_c, 4, 56, 0
6, 359424, Note_on_c, 4, 61, 43
6, 362086, Note_on_c, 4, 61, 0
6, 362496, Note_on_c, 4, 54, 43
6, 363110, Note_on_c, 4, 54, 0
6, 363520, Note_on_c, 4, 59, 43
6, 366182, Note_on_c, 4, 59, 0
6, 366592, Note_on_c, 4, 57, 43
6, 367104, Note_on_c, 4, 57, 0
6, 367104, Note_on_c, 4, 56, 43
6, 367616, Note_on_c, 4, 56, 0
6, 367616, Note_on_c, 4, 57, 43
6, 368230, Note_on_c, 4, 57, 0
6, 368640, Note_on_c, 4, 54, 43
6, 369254, Note_on_c, 4, 54, 0
6, 369664, Note_on_c, 4, 56, 43
6, 371712, Note_on_c, 4, 56, 0
6, 371712, Note_on_c, 4, 49, 43
6, 373760, Note_on_c, 4, 49, 0
6, 373760, Note_on_c, 4, 54, 43
6, 374374, Note_on_c, 4, 54, 0
6, 374784, Note_on_c, 4, 56, 43
6, 375398, Note_on_c, 4, 56, 0
6, 375808, Note_on_c, 4, 57, 43
6, 376422, Note_on_c, 4, 57, 0
6, 376832, Note_on_c, 4, 54, 43
6, 377446, Note_on_c, 4, 54, 0
6, 377856, Note_on_c, 4, 59, 43
6, 378470, Note_on_c, 4, 59, 0
6, 378880, Note_on_c, 4, 62, 43
6, 379392, Note_on_c, 4, 62, 0
6, 379392, Note_on_c, 4, 61, 43
6, 379904, Note_on_c, 4, 61, 0
6, 379904, Note_on_c, 4, 59, 43
6, 380518, Note_on_c, 4, 59, 0
6, 380928, Note_on_c, 4, 57, 43
6, 381542, Note_on_c, 4, 57, 0
6, 381952, Note_on_c, 4, 56, 43
6, 382566, Note_on_c, 4, 56, 0
6, 382976, Note_on_c, 4, 61, 43
6, 383488, Note_on_c, 4, 61, 0
6, 383488, Note_on_c, 4, 59, 43
6, 384000, Note_on_c, 4, 59, 0
6, 384000, Note_on_c, 4, 61, 43
6, 384614, Note_on_c, 4, 61, 0
6, 385024, Note_on_c, 4, 57, 43
6, 385638, Note_on_c, 4, 57, 0
6, 386048, Note_on_c, 4, 64, 43
6, 386662, Note_on_c, 4, 64, 0
6, 387072, Note_on_c, 4, 52, 43
6, 387584, Note_on_c, 4, 52, 0
6, 387584, Note_on_c, 4, 54, 43
6, 388096, Note_on_c, 4, 54, 0
6, 388096, Note_on_c, 4, 56, 43
6, 388710, Note_on_c, 4, 56, 0
6, 389120, Note_on_c, 4, 52, 43
6, 389734, Note_on_c, 4, 52, 0
6, 390144, Note_on_c, 4, 57, 43
6, 390758, Note_on_c, 4, 57, 0
6, 391168, Note_on_c, 4, 45, 43
6, 391680, Note_on_c, 4, 45, 0
6, 391680, Note_on_c, 4, 47, 43
6, 392192, Note_on_c, 4, 47, 0
6, 392192, Note_on_c, 4, 49, 43
6, 392806, Note_on_c, 4, 49, 0
6, 393216, Note_on_c, 4, 45, 43
6, 393830, Note_on_c, 4, 45, 0
6, 394240, Note_on_c, 4, 40, 43
6, 394854, Note_on_c, 4, 40, 0
6, 395264, Note_on_c, 4, 52, 43
6, 395776, Note_on_c, 4, 52, 0
6, 395776, Note_on_c, 4, 50, 43
6, 396288, Note_on_c, 4, 50, 0
6, 396288, Note_on_c, 4, 52, 43
6, 396902, Note_on_c, 4, 52, 0
6, 397312, Note_on_c, 4, 49, 43
6, 397926, Note_on_c, 4, 49, 0
6, 398336, Note_on_c, 4, 45, 43
6, 398950, Note_on_c, 4, 45, 0
6, 399360, Note_on_c, 4, 42, 43
6, 399974, Note_on_c, 4, 42, 0
6, 400384, Note_on_c, 4, 47, 43
6, 400998, Note_on_c, 4, 47, 0
6, 401408, Note_on_c, 4, 49, 43
6, 401920, Note_on_c, 4, 49, 0
6, 401920, Note_on_c, 4, 50, 43
6, 402432, Note_on_c, 4, 50, 0
6, 402432, Note_on_c, 4, 52, 43
6, 403046, Note_on_c, 4, 52, 0
6, 403456, Note_on_c, 4, 54, 43
6, 403968, Note_on_c, 4, 54, 0
6, 403968, Note_on_c, 4, 56, 43
6, 404480, Note_on_c, 4, 56, 0
6, 404480, Note_on_c, 4, 57, 43
6, 405094, Note_on_c, 4, 57, 0
6, 405504, Note_on_c, 4, 45, 43
6, 406118, Note_on_c, 4, 45, 0
6, 406528, Note_on_c, 4, 40, 43
6, 407142, Note_on_c, 4, 40, 0
6, 407552, Note_on_c, 4, 52, 43
6, 409600, Note_on_c, 4, 52, 0
6, 409600, Note_on_c, 4, 50, 43
6, 410214, Note_on_c, 4, 50, 0
6, 410624, Note_on_c, 4, 49, 43
6, 411238, Note_on_c, 4, 49, 0
6, 411648, Note_on_c, 4, 50, 43
6, 412262, Note_on_c, 4, 50, 0
6, 412672, Note_on_c, 4, 52, 43
6, 413286, Note_on_c, 4, 52, 0
6, 413696, Note_on_c, 4, 49, 43
6, 414310, Note_on_c, 4, 49, 0
6, 414720, Note_on_c, 4, 54, 43
6, 415334, Note_on_c, 4, 54, 0
6, 415744, Note_on_c, 4, 56, 43
6, 416358, Note_on_c, 4, 56, 0
6, 416768, Note_on_c, 4, 58, 43
6, 417382, Note_on_c, 4, 58, 0
6, 417792, Note_on_c, 4, 54, 43
6, 418406, Note_on_c, 4, 54, 0
6, 418816, Note_on_c, 4, 47, 43
6, 419430, Note_on_c, 4, 47, 0
6, 419840, Note_on_c, 4, 49, 43
6, 420454, Note_on_c, 4, 49, 0
6, 420864, Note_on_c, 4, 50, 43
6, 421478, Note_on_c, 4, 50, 0
6, 421888, Note_on_c, 4, 47, 43
6, 422502, Note_on_c, 4, 47, 0
6, 422912, Note_on_c, 4, 42, 43
6, 423526, Note_on_c, 4, 42, 0
6, 423936, Note_on_c, 4, 43, 43
6, 424550, Note_on_c, 4, 43, 0
6, 424960, Note_on_c, 4, 45, 43
6, 425574, Note_on_c, 4, 45, 0
6, 425984, Note_on_c, 4, 42, 43
6, 426598, Note_on_c, 4, 42, 0
6, 427008, Note_on_c, 4, 47, 43
6, 427622, Note_on_c, 4, 47, 0
6, 428032, Note_on_c, 4, 49, 43
6, 428544, Note_on_c, 4, 49, 0
6, 428544, Note_on_c, 4, 50, 44
6, 429056, Note_on_c, 4, 50, 0
6, 429056, Note_on_c, 4, 52, 44
6, 429670, Note_on_c, 4, 52, 0
6, 430080, Note_on_c, 4, 46, 45
6, 430694, Note_on_c, 4, 46, 0
6, 431104, Note_on_c, 4, 47, 45
6, 431718, Note_on_c, 4, 47, 0
6, 432128, Note_on_c, 4, 49, 46
6, 432742, Note_on_c, 4, 49, 0
6, 433152, Note_on_c, 4, 50, 47
6, 433766, Note_on_c, 4, 50, 0
6, 434176, Note_on_c, 4, 47, 48
6, 434790, Note_on_c, 4, 47, 0
6, 435200, Note_on_c, 4, 43, 48
6, 435814, Note_on_c, 4, 43, 0
6, 436224, Note_on_c, 4, 40, 49
6, 436838, Note_on_c, 4, 40, 0
6, 437248, Note_on_c, 4, 47, 50
6, 437862, Note_on_c, 4, 47, 0
6, 438272, Note_on_c, 4, 50, 50
6, 438886, Note_on_c, 4, 50, 0
6, 439296, Note_on_c, 4, 52, 51
6, 439910, Note_on_c, 4, 52, 0
6, 440320, Note_on_c, 4, 50, 52
6, 440934, Note_on_c, 4, 50, 0
6, 441344, Note_on_c, 4, 49, 53
6, 441958, Note_on_c, 4, 49, 0
6, 442368, Note_on_c, 4, 54, 53
6, 442982, Note_on_c, 4, 54, 0
6, 443392, Note_on_c, 4, 47, 54
6, 444006, Note_on_c, 4, 47, 0
6, 444416, Note_on_c, 4, 59, 55
6, 444928, Note_on_c, 4, 59, 0
6, 444928, Note_on_c, 4, 58, 55
6, 445440, Note_on_c, 4, 58, 0
6, 445440, Note_on_c, 4, 59, 56
6, 448102, Note_on_c, 4, 59, 0
6, 448512, Note_on_c, 4, 52, 58
6, 449126, Note_on_c, 4, 52, 0
6, 449536, Note_on_c, 4, 57, 59
6, 450048, Note_on_c, 4, 57, 0
6, 450048, Note_on_c, 4, 55, 59
6, 450560, Note_on_c, 4, 55, 0
6, 450560, Note_on_c, 4, 54, 59
6, 451072, Note_on_c, 4, 54, 0
6, 451072, Note_on_c, 4, 52, 60
6, 451584, Note_on_c, 4, 52, 0
6, 451584, Note_on_c, 4, 50, 60
6, 452198, Note_on_c, 4, 50, 0
6, 452608, Note_on_c, 4, 52, 61
6, 453222, Note_on_c, 4, 52, 0
6, 453632, Note_on_c, 4, 54, 62
6, 454246, Note_on_c, 4, 54, 0
6, 454656, Note_on_c, 4, 50, 62
6, 455270, Note_on_c, 4, 50, 0
6, 455680, Note_on_c, 4, 55, 63
6, 456294, Note_on_c, 4, 55, 0
6, 456704, Note_on_c, 4, 54, 64
6, 457318, Note_on_c, 4, 54, 0
6, 457728, Note_on_c, 4, 55, 64
6, 458342, Note_on_c, 4, 55, 0
6, 458752, Note_on_c, 4, 57, 65
6, 459264, Note_on_c, 4, 57, 0
6, 459264, Note_on_c, 4, 55, 66
6, 459776, Note_on_c, 4, 55, 0
6, 459776, Note_on_c, 4, 54, 66
6, 460390, Note_on_c, 4, 54, 0
6, 460800, Note_on_c, 4, 47, 67
6, 461414, Note_on_c, 4, 47, 0
6, 461824, Note_on_c, 4, 59, 67
6, 465920, Note_on_c, 4, 59, 0
6, 465920, Note_on_c, 4, 58, 67
6, 467968, Note_on_c, 4, 58, 0
6, 467968, Note_on_c, 4, 59, 66
6, 468582, Note_on_c, 4, 59, 0
6, 468992, Note_on_c, 4, 62, 66
6, 469504, Note_on_c, 4, 62, 0
6, 469504, Note_on_c, 4, 61, 66
6, 470016, Note_on_c, 4, 61, 0
6, 470016, Note_on_c, 4, 59, 66
6, 470630, Note_on_c, 4, 59, 0
6, 471040, Note_on_c, 4, 57, 66
6, 471654, Note_on_c, 4, 57, 0
6, 472064, Note_on_c, 4, 56, 66
6, 472678, Note_on_c, 4, 56, 0
6, 473088, Note_on_c, 4, 52, 66
6, 473702, Note_on_c, 4, 52, 0
6, 474112, Note_on_c, 4, 57, 65
6, 474726, Note_on_c, 4, 57, 0
6, 475136, Note_on_c, 4, 55, 65
6, 475750, Note_on_c, 4, 55, 0
6, 476160, Note_on_c, 4, 54, 65
6, 476774, Note_on_c, 4, 54, 0
6, 477184, Note_on_c, 4, 50, 65
6, 477798, Note_on_c, 4, 50, 0
6, 478208, Note_on_c, 4, 52, 65
6, 478822, Note_on_c, 4, 52, 0
6, 479232, Note_on_c, 4, 54, 65
6, 479846, Note_on_c, 4, 54, 0
6, 480256, Note_on_c, 4, 55, 62
6, 480870, Note_on_c, 4, 55, 0
6, 481280, Note_on_c, 4, 57, 58
6, 481894, Note_on_c, 4, 57, 0
6, 482304, Note_on_c, 4, 59, 54
6, 482918, Note_on_c, 4, 59, 0
6, 483328, Note_on_c, 4, 55, 49
6, 483942, Note_on_c, 4, 55, 0
6, 484352, Note_on_c, 4, 52, 43
6, 484966, Note_on_c, 4, 52, 0
6, 485376, Note_on_c, 4, 54, 42
6, 485990, Note_on_c, 4, 54, 0
6, 486400, Note_on_c, 4, 55, 42
6, 487014, Note_on_c, 4, 55, 0
6, 487424, Note_on_c, 4, 52, 41
6, 488038, Note_on_c, 4, 52, 0
6, 488448, Note_on_c, 4, 48, 40
6, 489062, Note_on_c, 4, 48, 0
6, 489472, Note_on_c, 4, 50, 39
6, 490086, Note_on_c, 4, 50, 0
6, 490496, Note_on_c, 4, 52, 38
6, 491110, Note_on_c, 4, 52, 0
6, 491520, Note_on_c, 4, 50, 38
6, 492134, Note_on_c, 4, 50, 0
6, 492544, Note_on_c, 4, 49, 37
6, 493158, Note_on_c, 4, 49, 0
6, 493568, Note_on_c, 4, 49, 39
6, 494182, Note_on_c, 4, 49, 0
6, 494592, Note_on_c, 4, 49, 39
6, 495206, Note_on_c, 4, 49, 0
6, 495616, Note_on_c, 4, 49, 39
6, 496230, Note_on_c, 4, 49, 0
6, 496640, Note_on_c, 4, 50, 39
6, 497254, Note_on_c, 4, 50, 0
6, 497664, Note_on_c, 4, 50, 39
6, 498278, Note_on_c, 4, 50, 0
6, 498688, Note_on_c, 4, 50, 39
6, 499302, Note_on_c, 4, 50, 0
6, 499712, Note_on_c, 4, 50, 39
6, 500326, Note_on_c, 4, 50, 0
6, 500736, Note_on_c, 4, 50, 39
6, 501350, Note_on_c, 4, 50, 0
6, 501760, Note_on_c, 4, 50, 39
6, 502374, Note_on_c, 4, 50, 0
6, 502784, Note_on_c, 4, 50, 39
6, 503398, Note_on_c, 4, 50, 0
6, 503808, Note_on_c, 4, 50, 39
6, 504422, Note_on_c, 4, 50, 0
6, 504832, Note_on_c, 4, 50, 40
6, 505446, Note_on_c, 4, 50, 0
6, 505856, Note_on_c, 4, 50, 48
6, 506470, Note_on_c, 4, 50, 0
6, 506880, Note_on_c, 4, 48, 56
6, 507494, Note_on_c, 4, 48, 0
6, 507904, Note_on_c, 4, 48, 64
6, 508518, Note_on_c, 4, 48, 0
6, 508928, Note_on_c, 4, 46, 72
6, 509542, Note_on_c, 4, 46, 0
6, 509952, Note_on_c, 4, 46, 62
6, 510566, Note_on_c, 4, 46, 0
6, 510976, Note_on_c, 4, 46, 62
6, 511590, Note_on_c, 4, 46, 0
6, 512000, Note_on_c, 4, 46, 61
6, 512614, Note_on_c, 4, 46, 0
6, 513024, Note_on_c, 4, 45, 60
6, 513638, Note_on_c, 4, 45, 0
6, 514048, Note_on_c, 4, 45, 60
6, 514662, Note_on_c, 4, 45, 0
6, 515072, Note_on_c, 4, 45, 59
6, 515686, Note_on_c, 4, 45, 0
6, 516096, Note_on_c, 4, 45, 58
6, 516710, Note_on_c, 4, 45, 0
6, 517120, Note_on_c, 4, 46, 57
6, 517734, Note_on_c, 4, 46, 0
6, 518144, Note_on_c, 4, 46, 57
6, 518758, Note_on_c, 4, 46, 0
6, 519168, Note_on_c, 4, 46, 57
6, 519782, Note_on_c, 4, 46, 0
6, 520192, Note_on_c, 4, 46, 56
6, 520806, Note_on_c, 4, 46, 0
6, 521216, Note_on_c, 4, 46, 56
6, 521830, Note_on_c, 4, 46, 0
6, 522240, Note_on_c, 4, 46, 55
6, 522854, Note_on_c, 4, 46, 0
6, 523264, Note_on_c, 4, 45, 55
6, 523878, Note_on_c, 4, 45, 0
6, 524288, Note_on_c, 4, 45, 54
6, 524902, Note_on_c, 4, 45, 0
6, 525312, Note_on_c, 4, 44, 54
6, 525926, Note_on_c, 4, 44, 0
6, 526336, Note_on_c, 4, 44, 53
6, 526950, Note_on_c, 4, 44, 0
6, 527360, Note_on_c, 4, 44, 53
6, 527974, Note_on_c, 4, 44, 0
6, 528384, Note_on_c, 4, 44, 53
6, 528998, Note_on_c, 4, 44, 0
6, 529408, Note_on_c, 4, 43, 52
6, 530022, Note_on_c, 4, 43, 0
6, 530432, Note_on_c, 4, 43, 52
6, 531046, Note_on_c, 4, 43, 0
6, 531456, Note_on_c, 4, 43, 51
6, 532070, Note_on_c, 4, 43, 0
6, 532480, Note_on_c, 4, 43, 51
6, 533094, Note_on_c, 4, 43, 0
6, 533504, Note_on_c, 4, 41, 50
6, 534118, Note_on_c, 4, 41, 0
6, 534528, Note_on_c, 4, 41, 50
6, 535142, Note_on_c, 4, 41, 0
6, 535552, Note_on_c, 4, 41, 49
6, 536166, Note_on_c, 4, 41, 0
6, 536576, Note_on_c, 4, 41, 49
6, 537190, Note_on_c, 4, 41, 0
6, 537600, Note_on_c, 4, 41, 49
6, 538214, Note_on_c, 4, 41, 0
6, 538624, Note_on_c, 4, 53, 48
6, 539238, Note_on_c, 4, 53, 0
6, 539648, Note_on_c, 4, 52, 48
6, 540262, Note_on_c, 4, 52, 0
6, 540672, Note_on_c, 4, 50, 47
6, 541286, Note_on_c, 4, 50, 0
6, 541696, Note_on_c, 4, 49, 47
6, 542310, Note_on_c, 4, 49, 0
6, 542720, Note_on_c, 4, 45, 46
6, 543334, Note_on_c, 4, 45, 0
6, 543744, Note_on_c, 4, 47, 46
6, 544358, Note_on_c, 4, 47, 0
6, 544768, Note_on_c, 4, 49, 45
6, 545382, Note_on_c, 4, 49, 0
6, 545792, Note_on_c, 4, 50, 45
6, 546406, Note_on_c, 4, 50, 0
6, 546816, Note_on_c, 4, 45, 45
6, 547430, Note_on_c, 4, 45, 0
6, 547840, Note_on_c, 4, 42, 44
6, 548454, Note_on_c, 4, 42, 0
6, 548864, Note_on_c, 4, 38, 44
6, 549478, Note_on_c, 4, 38, 0
6, 549888, Note_on_c, 4, 44, 43
6, 550502, Note_on_c, 4, 44, 0
6, 550912, Note_on_c, 4, 44, 43
6, 551526, Note_on_c, 4, 44, 0
6, 551936, Note_on_c, 4, 44, 42
6, 552550, Note_on_c, 4, 44, 0
6, 552960, Note_on_c, 4, 44, 42
6, 553574, Note_on_c, 4, 44, 0
6, 553984, Note_on_c, 4, 45, 41
6, 554598, Note_on_c, 4, 45, 0
6, 555008, Note_on_c, 4, 45, 41
6, 555622, Note_on_c, 4, 45, 0
6, 556032, Note_on_c, 4, 45, 41
6, 556646, Note_on_c, 4, 45, 0
6, 557056, Note_on_c, 4, 45, 40
6, 557670, Note_on_c, 4, 45, 0
6, 558080, Note_on_c, 4, 45, 40
6, 559923, Note_on_c, 4, 45, 0
6, 564224, Note_on_c, 4, 57, 43
6, 565248, Note_on_c, 4, 55, 43
6, 565248, Note_on_c, 4, 57, 0
6, 565862, Note_on_c, 4, 55, 0
6, 566272, Note_on_c, 4, 54, 43
6, 566886, Note_on_c, 4, 54, 0
6, 567296, Note_on_c, 4, 54, 43
6, 567910, Note_on_c, 4, 54, 0
6, 568320, Note_on_c, 4, 54, 43
6, 568934, Note_on_c, 4, 54, 0
6, 569344, Note_on_c, 4, 54, 43
6, 569958, Note_on_c, 4, 54, 0
6, 570368, Note_on_c, 4, 53, 43
6, 570982, Note_on_c, 4, 53, 0
6, 571392, Note_on_c, 4, 53, 43
6, 572006, Note_on_c, 4, 53, 0
6, 572416, Note_on_c, 4, 53, 43
6, 573030, Note_on_c, 4, 53, 0
6, 573440, Note_on_c, 4, 53, 43
6, 574054, Note_on_c, 4, 53, 0
6, 574464, Note_on_c, 4, 54, 43
6, 575078, Note_on_c, 4, 54, 0
6, 575488, Note_on_c, 4, 54, 43
6, 576102, Note_on_c, 4, 54, 0
6, 576512, Note_on_c, 4, 54, 43
6, 577126, Note_on_c, 4, 54, 0
6, 577536, Note_on_c, 4, 54, 43
6, 578150, Note_on_c, 4, 54, 0
6, 578560, Note_on_c, 4, 49, 43
6, 579174, Note_on_c, 4, 49, 0
6, 579584, Note_on_c, 4, 49, 43
6, 580198, Note_on_c, 4, 49, 0
6, 580608, Note_on_c, 4, 49, 43
6, 581222, Note_on_c, 4, 49, 0
6, 581632, Note_on_c, 4, 49, 43
6, 582246, Note_on_c, 4, 49, 0
6, 582656, Note_on_c, 4, 50, 46
6, 583270, Note_on_c, 4, 50, 0
6, 583680, Note_on_c, 4, 50, 49
6, 584294, Note_on_c, 4, 50, 0
6, 584704, Note_on_c, 4, 50, 52
6, 585318, Note_on_c, 4, 50, 0
6, 585728, Note_on_c, 4, 50, 54
6, 586342, Note_on_c, 4, 50, 0
6, 586752, Note_on_c, 4, 47, 55
6, 587366, Note_on_c, 4, 47, 0
6, 587776, Note_on_c, 4, 47, 55
6, 588390, Note_on_c, 4, 47, 0
6, 588800, Note_on_c, 4, 47, 55
6, 589414, Note_on_c, 4, 47, 0
6, 589824, Note_on_c, 4, 47, 55
6, 590438, Note_on_c, 4, 47, 0
6, 590848, Note_on_c, 4, 46, 56
6, 591462, Note_on_c, 4, 46, 0
6, 591872, Note_on_c, 4, 46, 51
6, 592486, Note_on_c, 4, 46, 0
6, 592896, Note_on_c, 4, 46, 46
6, 593510, Note_on_c, 4, 46, 0
6, 593920, Note_on_c, 4, 46, 41
6, 594534, Note_on_c, 4, 46, 0
6, 594944, Note_on_c, 4, 45, 35
6, 595558, Note_on_c, 4, 45, 0
6, 595968, Note_on_c, 4, 43, 35
6, 596582, Note_on_c, 4, 43, 0
6, 596992, Note_on_c, 4, 42, 36
6, 597606, Note_on_c, 4, 42, 0
6, 598016, Note_on_c, 4, 40, 50
6, 598630, Note_on_c, 4, 40, 0
6, 598842, Control_c, 4, 7, 98
6, 599040, Note_on_c, 4, 38, 76
6, 599654, Note_on_c, 4, 38, 0
6, 603136, Note_on_c, 4, 38, 81
6, 603750, Note_on_c, 4, 38, 0
6, 607232, Note_on_c, 4, 38, 87
6, 607846, Note_on_c, 4, 38, 0
6, 611328, Note_on_c, 4, 38, 93
6, 611942, Note_on_c, 4, 38, 0
6, 616448, Note_on_c, 4, 50, 98
6, 616960, Note_on_c, 4, 50, 0
6, 616960, Note_on_c, 4, 54, 98
6, 617472, Note_on_c, 4, 54, 0
6, 617472, Note_on_c, 4, 57, 98
6, 618086, Note_on_c, 4, 57, 0
6, 618496, Note_on_c, 4, 54, 98
6, 619008, Note_on_c, 4, 54, 0
6, 619008, Note_on_c, 4, 57, 98
6, 619520, Note_on_c, 4, 57, 0
6, 619520, Note_on_c, 4, 62, 98
6, 620134, Note_on_c, 4, 62, 0
6, 620544, Note_on_c, 4, 62, 98
6, 621158, Note_on_c, 4, 62, 0
6, 621568, Note_on_c, 4, 62, 98
6, 622182, Note_on_c, 4, 62, 0
6, 622592, Note_on_c, 4, 62, 98
6, 623206, Note_on_c, 4, 62, 0
6, 623616, Note_on_c, 4, 62, 98
6, 624230, Note_on_c, 4, 62, 0
6, 624640, Note_on_c, 4, 50, 98
6, 625152, Note_on_c, 4, 50, 0
6, 625152, Note_on_c, 4, 54, 98
6, 625664, Note_on_c, 4, 54, 0
6, 625664, Note_on_c, 4, 57, 98
6, 626278, Note_on_c, 4, 57, 0
6, 626688, Note_on_c, 4, 54, 98
6, 627200, Note_on_c, 4, 54, 0
6, 627200, Note_on_c, 4, 57, 98
6, 627712, Note_on_c, 4, 57, 0
6, 627712, Note_on_c, 4, 62, 98
6, 628326, Note_on_c, 4, 62, 0
6, 628736, Note_on_c, 4, 62, 98
6, 629350, Note_on_c, 4, 62, 0
6, 629760, Note_on_c, 4, 62, 98
6, 630374, Note_on_c, 4, 62, 0
6, 630784, Note_on_c, 4, 62, 98
6, 631398, Note_on_c, 4, 62, 0
6, 631808, Note_on_c, 4, 62, 98
6, 632422, Note_on_c, 4, 62, 0
6, 632832, Note_on_c, 4, 57, 98
6, 633446, Note_on_c, 4, 57, 0
6, 633856, Note_on_c, 4, 54, 98
6, 634470, Note_on_c, 4, 54, 0
6, 634880, Note_on_c, 4, 57, 98
6, 635494, Note_on_c, 4, 57, 0
6, 635904, Note_on_c, 4, 50, 98
6, 636518, Note_on_c, 4, 50, 0
6, 636928, Note_on_c, 4, 54, 98
6, 637440, Note_on_c, 4, 54, 0
6, 637440, Note_on_c, 4, 57, 98
6, 637952, Note_on_c, 4, 57, 0
6, 637952, Note_on_c, 4, 62, 98
6, 638566, Note_on_c, 4, 62, 0
6, 638976, Note_on_c, 4, 61, 98
6, 639488, Note_on_c, 4, 61, 0
6, 639488, Note_on_c, 4, 59, 98
6, 640000, Note_on_c, 4, 59, 0
6, 640000, Note_on_c, 4, 61, 98
6, 640614, Note_on_c, 4, 61, 0
6, 641024, Note_on_c, 4, 59, 98
6, 641536, Note_on_c, 4, 59, 0
6, 641536, Note_on_c, 4, 57, 98
6, 642048, Note_on_c, 4, 57, 0
6, 642048, Note_on_c, 4, 56, 98
6, 642662, Note_on_c, 4, 56, 0
6, 643072, Note_on_c, 4, 54, 98
6, 643584, Note_on_c, 4, 54, 0
6, 643584, Note_on_c, 4, 52, 98
6, 644096, Note_on_c, 4, 52, 0
6, 644096, Note_on_c, 4, 57, 98
6, 644710, Note_on_c, 4, 57, 0
6, 645120, Note_on_c, 4, 54, 98
6, 645734, Note_on_c, 4, 54, 0
6, 646144, Note_on_c, 4, 50, 98
6, 646758, Note_on_c, 4, 50, 0
6, 647168, Note_on_c, 4, 52, 98
6, 647782, Note_on_c, 4, 52, 0
6, 648192, Note_on_c, 4, 45, 98
6, 648806, Note_on_c, 4, 45, 0
6, 649216, Note_on_c, 4, 57, 98
6, 649728, Note_on_c, 4, 57, 0
6, 649728, Note_on_c, 4, 52, 98
6, 650240, Note_on_c, 4, 52, 0
6, 650240, Note_on_c, 4, 49, 98
6, 650854, Note_on_c, 4, 49, 0
6, 651264, Note_on_c, 4, 52, 98
6, 651776, Note_on_c, 4, 52, 0
6, 651776, Note_on_c, 4, 49, 98
6, 652288, Note_on_c, 4, 49, 0
6, 652288, Note_on_c, 4, 45, 95
6, 652902, Note_on_c, 4, 45, 0
6, 653312, Note_on_c, 4, 57, 93
6, 653926, Note_on_c, 4, 57, 0
6, 654336, Note_on_c, 4, 57, 91
6, 654950, Note_on_c, 4, 57, 0
6, 655360, Note_on_c, 4, 57, 88
6, 655974, Note_on_c, 4, 57, 0
6, 656384, Note_on_c, 4, 50, 86
6, 656998, Note_on_c, 4, 50, 0
6, 657408, Note_on_c, 4, 62, 77
6, 657920, Note_on_c, 4, 62, 0
6, 657920, Note_on_c, 4, 57, 79
6, 658432, Note_on_c, 4, 57, 0
6, 658432, Note_on_c, 4, 54, 80
6, 659046, Note_on_c, 4, 54, 0
6, 659456, Note_on_c, 4, 57, 83
6, 659968, Note_on_c, 4, 57, 0
6, 659968, Note_on_c, 4, 54, 85
6, 660480, Note_on_c, 4, 54, 0
6, 660480, Note_on_c, 4, 50, 86
6, 661094, Note_on_c, 4, 50, 0
6, 661504, Note_on_c, 4, 57, 89
6, 662016, Note_on_c, 4, 57, 0
6, 662016, Note_on_c, 4, 54, 91
6, 662528, Note_on_c, 4, 54, 0
6, 662528, Note_on_c, 4, 50, 92
6, 663142, Note_on_c, 4, 50, 0
6, 663552, Note_on_c, 4, 54, 96
6, 664064, Note_on_c, 4, 54, 0
6, 664064, Note_on_c, 4, 50, 97
6, 664576, Note_on_c, 4, 50, 0
6, 664576, Note_on_c, 4, 45, 96
6, 665190, Note_on_c, 4, 45, 0
6, 667648, Note_on_c, 4, 61, 52
6, 668160, Note_on_c, 4, 61, 0
6, 668160, Note_on_c, 4, 57, 52
6, 668672, Note_on_c, 4, 57, 0
6, 668672, Note_on_c, 4, 54, 52
6, 670720, Note_on_c, 4, 54, 0
6, 671744, Note_on_c, 4, 59, 52
6, 672256, Note_on_c, 4, 59, 0
6, 672256, Note_on_c, 4, 55, 52
6, 672768, Note_on_c, 4, 55, 0
6, 672768, Note_on_c, 4, 52, 52
6, 674816, Note_on_c, 4, 52, 0
6, 675840, Note_on_c, 4, 57, 52
6, 676352, Note_on_c, 4, 57, 0
6, 676352, Note_on_c, 4, 54, 52
6, 676864, Note_on_c, 4, 54, 0
6, 676864, Note_on_c, 4, 50, 52
6, 678912, Note_on_c, 4, 50, 0
6, 679936, Note_on_c, 4, 54, 52
6, 680448, Note_on_c, 4, 54, 0
6, 680448, Note_on_c, 4, 50, 52
6, 680960, Note_on_c, 4, 50, 0
6, 680960, Note_on_c, 4, 45, 52
6, 681574, Note_on_c, 4, 45, 0
6, 681984, Note_on_c, 4, 52, 52
6, 682598, Note_on_c, 4, 52, 0
6, 683008, Note_on_c, 4, 57, 52
6, 687104, Note_on_c, 4, 57, 0
6, 687104, Note_on_c, 4, 55, 54
6, 689152, Note_on_c, 4, 55, 0
6, 689152, Note_on_c, 4, 54, 56
6, 691200, Note_on_c, 4, 54, 0
6, 691200, Note_on_c, 4, 59, 59
6, 691814, Note_on_c, 4, 59, 0
6, 692224, Note_on_c, 4, 57, 60
6, 692838, Note_on_c, 4, 57, 0
6, 693248, Note_on_c, 4, 55, 61
6, 693862, Note_on_c, 4, 55, 0
6, 694272, Note_on_c, 4, 52, 63
6, 694886, Note_on_c, 4, 52, 0
6, 695296, Note_on_c, 4, 57, 64
6, 695910, Note_on_c, 4, 57, 0
6, 696320, Note_on_c, 4, 55, 65
6, 696934, Note_on_c, 4, 55, 0
6, 697344, Note_on_c, 4, 54, 66
6, 697958, Note_on_c, 4, 54, 0
6, 698368, Note_on_c, 4, 50, 68
6, 698982, Note_on_c, 4, 50, 0
6, 702464, Note_on_c, 4, 45, 73
6, 702976, Note_on_c, 4, 45, 0
6, 702976, Note_on_c, 4, 50, 74
6, 703488, Note_on_c, 4, 50, 0
6, 703488, Note_on_c, 4, 54, 74
6, 704102, Note_on_c, 4, 54, 0
6, 704512, Note_on_c, 4, 50, 75
6, 705024, Note_on_c, 4, 50, 0
6, 705024, Note_on_c, 4, 54, 76
6, 705536, Note_on_c, 4, 54, 0
6, 705536, Note_on_c, 4, 57, 77
6, 706150, Note_on_c, 4, 57, 0
6, 710656, Note_on_c, 4, 52, 83
6, 711168, Note_on_c, 4, 52, 0
6, 711168, Note_on_c, 4, 57, 84
6, 711680, Note_on_c, 4, 57, 0
6, 711680, Note_on_c, 4, 61, 84
6, 712294, Note_on_c, 4, 61, 0
6, 712704, Note_on_c, 4, 57, 86
6, 713216, Note_on_c, 4, 57, 0
6, 713216, Note_on_c, 4, 61, 86
6, 713728, Note_on_c, 4, 61, 0
6, 713728, Note_on_c, 4, 62, 87
6, 714342, Note_on_c, 4, 62, 0
6, 718848, Note_on_c, 4, 57, 93
6, 719360, Note_on_c, 4, 57, 0
6, 719360, Note_on_c, 4, 54, 94
6, 719872, Note_on_c, 4, 54, 0
6, 719872, Note_on_c, 4, 50, 95
6, 720486, Note_on_c, 4, 50, 0
6, 720896, Note_on_c, 4, 54, 96
6, 721408, Note_on_c, 4, 54, 0
6, 721408, Note_on_c, 4, 50, 97
6, 721920, Note_on_c, 4, 50, 0
6, 721920, Note_on_c, 4, 45, 94
6, 722534, Note_on_c, 4, 45, 0
6, 727040, Note_on_c, 4, 49, 83
6, 727552, Note_on_c, 4, 49, 0
6, 727552, Note_on_c, 4, 45, 83
6, 728064, Note_on_c, 4, 45, 0
6, 728064, Note_on_c, 4, 42, 83
6, 728678, Note_on_c, 4, 42, 0
6, 729088, Note_on_c, 4, 45, 83
6, 729600, Note_on_c, 4, 45, 0
6, 729600, Note_on_c, 4, 42, 83
6, 730112, Note_on_c, 4, 42, 0
6, 730112, Note_on_c, 4, 38, 83
6, 730726, Note_on_c, 4, 38, 0
6, 734208, Note_on_c, 4, 38, 83
6, 734822, Note_on_c, 4, 38, 0
6, 738304, Note_on_c, 4, 38, 83
6, 738918, Note_on_c, 4, 38, 0
6, 742400, Note_on_c, 4, 38, 79
6, 743014, Note_on_c, 4, 38, 0
6, 747520, Note_on_c, 4, 38, 90
6, 748032, Note_on_c, 4, 38, 0
6, 748032, Note_on_c, 4, 42, 91
6, 748544, Note_on_c, 4, 42, 0
6, 748544, Note_on_c, 4, 45, 93
6, 749158, Note_on_c, 4, 45, 0
6, 749568, Note_on_c, 4, 42, 95
6, 750080, Note_on_c, 4, 42, 0
6, 750080, Note_on_c, 4, 45, 96
6, 750592, Note_on_c, 4, 45, 0
6, 750592, Note_on_c, 4, 50, 98
6, 751206, Note_on_c, 4, 50, 0
6, 751616, Note_on_c, 4, 50, 98
6, 752230, Note_on_c, 4, 50, 0
6, 752640, Note_on_c, 4, 50, 98
6, 753254, Note_on_c, 4, 50, 0
6, 753664, Note_on_c, 4, 50, 98
6, 754278, Note_on_c, 4, 50, 0
6, 754688, Note_on_c, 4, 50, 98
6, 755302, Note_on_c, 4, 50, 0
6, 755712, Note_on_c, 4, 38, 98
6, 756224, Note_on_c, 4, 38, 0
6, 756224, Note_on_c, 4, 42, 98
6, 756736, Note_on_c, 4, 42, 0
6, 756736, Note_on_c, 4, 45, 98
6, 757350, Note_on_c, 4, 45, 0
6, 757760, Note_on_c, 4, 42, 97
6, 758272, Note_on_c, 4, 42, 0
6, 758272, Note_on_c, 4, 45, 97
6, 758784, Note_on_c, 4, 45, 0
6, 758784, Note_on_c, 4, 50, 97
6, 759398, Note_on_c, 4, 50, 0
6, 759808, Note_on_c, 4, 50, 97
6, 760422, Note_on_c, 4, 50, 0
6, 760832, Note_on_c, 4, 50, 97
6, 761446, Note_on_c, 4, 50, 0
6, 761856, Note_on_c, 4, 50, 97
6, 762470, Note_on_c, 4, 50, 0
6, 762880, Note_on_c, 4, 50, 97
6, 763494, Note_on_c, 4, 50, 0
6, 763904, Note_on_c, 4, 38, 79
6, 764518, Note_on_c, 4, 38, 0
6, 764928, Note_on_c, 4, 49, 50
6, 765542, Note_on_c, 4, 49, 0
6, 765952, Note_on_c, 4, 45, 50
6, 766566, Note_on_c, 4, 45, 0
6, 766976, Note_on_c, 4, 50, 50
6, 767590, Note_on_c, 4, 50, 0
6, 768000, Note_on_c, 4, 49, 50
6, 768512, Note_on_c, 4, 49, 0
6, 768512, Note_on_c, 4, 47, 50
6, 769024, Note_on_c, 4, 47, 0
6, 769024, Note_on_c, 4, 52, 50
6, 769638, Note_on_c, 4, 52, 0
6, 770048, Note_on_c, 4, 40, 50
6, 770662, Note_on_c, 4, 40, 0
6, 771072, Note_on_c, 4, 45, 50
6, 771686, Note_on_c, 4, 45, 0
6, 772096, Note_on_c, 4, 47, 50
6, 772608, Note_on_c, 4, 47, 0
6, 772608, Note_on_c, 4, 49, 50
6, 773120, Note_on_c, 4, 49, 0
6, 773120, Note_on_c, 4, 50, 50
6, 777216, Note_on_c, 4, 50, 0
6, 777216, Note_on_c, 4, 49, 50
6, 779264, Note_on_c, 4, 49, 0
6, 779264, Note_on_c, 4, 47, 50
6, 781312, Note_on_c, 4, 47, 0
6, 787456, Note_on_c, 4, 52, 50
6, 788070, Note_on_c, 4, 52, 0
6, 788480, Note_on_c, 4, 40, 50
6, 789094, Note_on_c, 4, 40, 0
6, 789504, Note_on_c, 4, 52, 50
6, 790016, Note_on_c, 4, 52, 0
6, 790016, Note_on_c, 4, 54, 50
6, 790528, Note_on_c, 4, 54, 0
6, 790528, Note_on_c, 4, 50, 50
6, 791040, Note_on_c, 4, 50, 0
6, 791040, Note_on_c, 4, 52, 50
6, 791552, Note_on_c, 4, 52, 0
6, 791552, Note_on_c, 4, 54, 50
6, 792064, Note_on_c, 4, 54, 0
6, 792064, Note_on_c, 4, 56, 50
6, 792576, Note_on_c, 4, 56, 0
6, 792576, Note_on_c, 4, 52, 50
6, 793088, Note_on_c, 4, 52, 0
6, 793088, Note_on_c, 4, 54, 50
6, 793600, Note_on_c, 4, 54, 0
6, 793600, Note_on_c, 4, 56, 50
6, 794112, Note_on_c, 4, 56, 0
6, 794112, Note_on_c, 4, 57, 50
6, 794624, Note_on_c, 4, 57, 0
6, 794624, Note_on_c, 4, 54, 50
6, 795136, Note_on_c, 4, 54, 0
6, 795136, Note_on_c, 4, 56, 51
6, 795648, Note_on_c, 4, 56, 0
6, 795648, Note_on_c, 4, 57, 53
6, 796160, Note_on_c, 4, 57, 0
6, 796160, Note_on_c, 4, 59, 55
6, 796672, Note_on_c, 4, 59, 0
6, 796672, Note_on_c, 4, 57, 56
6, 797184, Note_on_c, 4, 57, 0
6, 797184, Note_on_c, 4, 59, 58
6, 797696, Note_on_c, 4, 59, 0
6, 797696, Note_on_c, 4, 61, 60
6, 798208, Note_on_c, 4, 61, 0
6, 798208, Note_on_c, 4, 62, 62
6, 798720, Note_on_c, 4, 62, 0
6, 798720, Note_on_c, 4, 59, 64
6, 799232, Note_on_c, 4, 59, 0
6, 799232, Note_on_c, 4, 61, 66
6, 799744, Note_on_c, 4, 61, 0
6, 799744, Note_on_c, 4, 62, 68
6, 800358, Note_on_c, 4, 62, 0
6, 800768, Note_on_c, 4, 50, 72
6, 801382, Note_on_c, 4, 50, 0
6, 801792, Note_on_c, 4, 62, 76
6, 802406, Note_on_c, 4, 62, 0
6, 802816, Note_on_c, 4, 62, 79
6, 803430, Note_on_c, 4, 62, 0
6, 803840, Note_on_c, 4, 61, 85
6, 804454, Note_on_c, 4, 61, 0
6, 804864, Note_on_c, 4, 59, 86
6, 805376, Note_on_c, 4, 59, 0
6, 805376, Note_on_c, 4, 57, 86
6, 805888, Note_on_c, 4, 57, 0
6, 805888, Note_on_c, 4, 56, 86
6, 806502, Note_on_c, 4, 56, 0
6, 806912, Note_on_c, 4, 52, 87
6, 807526, Note_on_c, 4, 52, 0
6, 807936, Note_on_c, 4, 57, 88
6, 808550, Note_on_c, 4, 57, 0
6, 808960, Note_on_c, 4, 54, 89
6, 809574, Note_on_c, 4, 54, 0
6, 809984, Note_on_c, 4, 50, 90
6, 810598, Note_on_c, 4, 50, 0
6, 811008, Note_on_c, 4, 52, 91
6, 811622, Note_on_c, 4, 52, 0
6, 812032, Note_on_c, 4, 45, 92
6, 812646, Note_on_c, 4, 45, 0
6, 816128, Note_on_c, 4, 45, 36
6, 816742, Note_on_c, 4, 45, 0
6, 820224, Note_on_c, 4, 45, 36
6, 820838, Note_on_c, 4, 45, 0
6, 824320, Note_on_c, 4, 45, 50
6, 824934, Note_on_c, 4, 45, 0
6, 829440, Note_on_c, 4, 45, 64
6, 829952, Note_on_c, 4, 45, 0
6, 829952, Note_on_c, 4, 49, 64
6, 830464, Note_on_c, 4, 49, 0
6, 830464, Note_on_c, 4, 52, 64
6, 831078, Note_on_c, 4, 52, 0
6, 831488, Note_on_c, 4, 49, 64
6, 832000, Note_on_c, 4, 49, 0
6, 832000, Note_on_c, 4, 52, 64
6, 832512, Note_on_c, 4, 52, 0
6, 832512, Note_on_c, 4, 57, 64
6, 833126, Note_on_c, 4, 57, 0
6, 833536, Note_on_c, 4, 57, 64
6, 834150, Note_on_c, 4, 57, 0
6, 834560, Note_on_c, 4, 57, 64
6, 835174, Note_on_c, 4, 57, 0
6, 835584, Note_on_c, 4, 57, 64
6, 836198, Note_on_c, 4, 57, 0
6, 836608, Note_on_c, 4, 57, 64
6, 837222, Note_on_c, 4, 57, 0
6, 837632, Note_on_c, 4, 45, 64
6, 838144, Note_on_c, 4, 45, 0
6, 838144, Note_on_c, 4, 49, 64
6, 838656, Note_on_c, 4, 49, 0
6, 838656, Note_on_c, 4, 52, 64
6, 839270, Note_on_c, 4, 52, 0
6, 839680, Note_on_c, 4, 49, 64
6, 840192, Note_on_c, 4, 49, 0
6, 840192, Note_on_c, 4, 52, 63
6, 840704, Note_on_c, 4, 52, 0
6, 840704, Note_on_c, 4, 57, 62
6, 841318, Note_on_c, 4, 57, 0
6, 841728, Note_on_c, 4, 57, 58
6, 842342, Note_on_c, 4, 57, 0
6, 842752, Note_on_c, 4, 57, 55
6, 843366, Note_on_c, 4, 57, 0
6, 843776, Note_on_c, 4, 57, 52
6, 844390, Note_on_c, 4, 57, 0
6, 844800, Note_on_c, 4, 57, 48
6, 846848, Note_on_c, 4, 57, 0
6, 847872, Note_on_c, 4, 61, 42
6, 848384, Note_on_c, 4, 61, 0
6, 848384, Note_on_c, 4, 57, 42
6, 848896, Note_on_c, 4, 57, 0
6, 848896, Note_on_c, 4, 54, 42
6, 850944, Note_on_c, 4, 54, 0
6, 851968, Note_on_c, 4, 54, 42
6, 852480, Note_on_c, 4, 54, 0
6, 852480, Note_on_c, 4, 50, 42
6, 852992, Note_on_c, 4, 50, 0
6, 852992, Note_on_c, 4, 47, 42
6, 855040, Note_on_c, 4, 47, 0
6, 856064, Note_on_c, 4, 52, 42
6, 856576, Note_on_c, 4, 52, 0
6, 856576, Note_on_c, 4, 49, 42
6, 857088, Note_on_c, 4, 49, 0
6, 857088, Note_on_c, 4, 45, 42
6, 857702, Note_on_c, 4, 45, 0
6, 858112, Note_on_c, 4, 52, 42
6, 858726, Note_on_c, 4, 52, 0
6, 859136, Note_on_c, 4, 57, 42
6, 863232, Note_on_c, 4, 57, 0
6, 863232, Note_on_c, 4, 56, 42
6, 865280, Note_on_c, 4, 56, 0
6, 865280, Note_on_c, 4, 57, 42
6, 865894, Note_on_c, 4, 57, 0
6, 866304, Note_on_c, 4, 59, 42
6, 866918, Note_on_c, 4, 59, 0
6, 867328, Note_on_c, 4, 61, 42
6, 867942, Note_on_c, 4, 61, 0
6, 868352, Note_on_c, 4, 57, 42
6, 868966, Note_on_c, 4, 57, 0
6, 869376, Note_on_c, 4, 54, 42
6, 869990, Note_on_c, 4, 54, 0
6, 870400, Note_on_c, 4, 56, 42
6, 871014, Note_on_c, 4, 56, 0
6, 871424, Note_on_c, 4, 57, 42
6, 872038, Note_on_c, 4, 57, 0
6, 872448, Note_on_c, 4, 54, 42
6, 873062, Note_on_c, 4, 54, 0
6, 873472, Note_on_c, 4, 50, 42
6, 874086, Note_on_c, 4, 50, 0
6, 874496, Note_on_c, 4, 47, 42
6, 875110, Note_on_c, 4, 47, 0
6, 875520, Note_on_c, 4, 52, 42
6, 876134, Note_on_c, 4, 52, 0
6, 876544, Note_on_c, 4, 40, 42
6, 877158, Note_on_c, 4, 40, 0
6, 877568, Note_on_c, 4, 45, 42
6, 879616, Note_on_c, 4, 45, 0
6, 882688, Note_on_c, 4, 52, 47
6, 883200, Note_on_c, 4, 52, 0
6, 883200, Note_on_c, 4, 57, 47
6, 883712, Note_on_c, 4, 57, 0
6, 883712, Note_on_c, 4, 61, 47
6, 884326, Note_on_c, 4, 61, 0
6, 884736, Note_on_c, 4, 57, 48
6, 885248, Note_on_c, 4, 57, 0
6, 885248, Note_on_c, 4, 61, 48
6, 885760, Note_on_c, 4, 61, 0
6, 885760, Note_on_c, 4, 64, 48
6, 886374, Note_on_c, 4, 64, 0
6, 890880, Note_on_c, 4, 47, 50
6, 891392, Note_on_c, 4, 47, 0
6, 891392, Note_on_c, 4, 52, 50
6, 891904, Note_on_c, 4, 52, 0
6, 891904, Note_on_c, 4, 56, 50
6, 892518, Note_on_c, 4, 56, 0
6, 892928, Note_on_c, 4, 52, 51
6, 893440, Note_on_c, 4, 52, 0
6, 893440, Note_on_c, 4, 56, 51
6, 893952, Note_on_c, 4, 56, 0
6, 893952, Note_on_c, 4, 57, 51
6, 894566, Note_on_c, 4, 57, 0
6, 899072, Note_on_c, 4, 40, 52
6, 899584, Note_on_c, 4, 40, 0
6, 899584, Note_on_c, 4, 45, 52
6, 900096, Note_on_c, 4, 45, 0
6, 900096, Note_on_c, 4, 49, 52
6, 900710, Note_on_c, 4, 49, 0
6, 901120, Note_on_c, 4, 45, 52
6, 901632, Note_on_c, 4, 45, 0
6, 901632, Note_on_c, 4, 49, 53
6, 902144, Note_on_c, 4, 49, 0
6, 902144, Note_on_c, 4, 50, 53
6, 902758, Note_on_c, 4, 50, 0
6, 903168, Note_on_c, 4, 38, 53
6, 903680, Note_on_c, 4, 38, 0
6, 903680, Note_on_c, 4, 42, 53
6, 904192, Note_on_c, 4, 42, 0
6, 904192, Note_on_c, 4, 45, 54
6, 904806, Note_on_c, 4, 45, 0
6, 905216, Note_on_c, 4, 42, 54
6, 905728, Note_on_c, 4, 42, 0
6, 905728, Note_on_c, 4, 45, 54
6, 906240, Note_on_c, 4, 45, 0
6, 906240, Note_on_c, 4, 48, 54
6, 906854, Note_on_c, 4, 48, 0
6, 907264, Note_on_c, 4, 47, 55
6, 907776, Note_on_c, 4, 47, 0
6, 907776, Note_on_c, 4, 48, 55
6, 908288, Note_on_c, 4, 48, 0
6, 908288, Note_on_c, 4, 50, 55
6, 908800, Note_on_c, 4, 50, 0
6, 908800, Note_on_c, 4, 48, 55
6, 909312, Note_on_c, 4, 48, 0
6, 909312, Note_on_c, 4, 47, 55
6, 909824, Note_on_c, 4, 47, 0
6, 909824, Note_on_c, 4, 45, 55
6, 910336, Note_on_c, 4, 45, 0
6, 910336, Note_on_c, 4, 43, 56
6, 910950, Note_on_c, 4, 43, 0
6, 911360, Note_on_c, 4, 59, 56
6, 911974, Note_on_c, 4, 59, 0
6, 912384, Note_on_c, 4, 55, 56
6, 912998, Note_on_c, 4, 55, 0
6, 913408, Note_on_c, 4, 52, 57
6, 914022, Note_on_c, 4, 52, 0
6, 914432, Note_on_c, 4, 49, 57
6, 915046, Note_on_c, 4, 49, 0
6, 915456, Note_on_c, 4, 52, 57
6, 916070, Note_on_c, 4, 52, 0
6, 916480, Note_on_c, 4, 49, 58
6, 917094, Note_on_c, 4, 49, 0
6, 917504, Note_on_c, 4, 45, 58
6, 918118, Note_on_c, 4, 45, 0
6, 918528, Note_on_c, 4, 42, 57
6, 919142, Note_on_c, 4, 42, 0
6, 919552, Note_on_c, 4, 57, 59
6, 920166, Note_on_c, 4, 57, 0
6, 920576, Note_on_c, 4, 54, 61
6, 921190, Note_on_c, 4, 54, 0
6, 921600, Note_on_c, 4, 50, 63
6, 922214, Note_on_c, 4, 50, 0
6, 922624, Note_on_c, 4, 47, 65
6, 923238, Note_on_c, 4, 47, 0
6, 923648, Note_on_c, 4, 50, 68
6, 924262, Note_on_c, 4, 50, 0
6, 924672, Note_on_c, 4, 47, 70
6, 925286, Note_on_c, 4, 47, 0
6, 925696, Note_on_c, 4, 43, 72
6, 926310, Note_on_c, 4, 43, 0
6, 926720, Note_on_c, 4, 40, 74
6, 927334, Note_on_c, 4, 40, 0
6, 927744, Note_on_c, 4, 59, 75
6, 928256, Note_on_c, 4, 59, 0
6, 928256, Note_on_c, 4, 55, 75
6, 928768, Note_on_c, 4, 55, 0
6, 928768, Note_on_c, 4, 52, 75
6, 929382, Note_on_c, 4, 52, 0
6, 929792, Note_on_c, 4, 55, 76
6, 930304, Note_on_c, 4, 55, 0
6, 930304, Note_on_c, 4, 52, 76
6, 930816, Note_on_c, 4, 52, 0
6, 930816, Note_on_c, 4, 49, 76
6, 931430, Note_on_c, 4, 49, 0
6, 931840, Note_on_c, 4, 55, 77
6, 932352, Note_on_c, 4, 55, 0
6, 932352, Note_on_c, 4, 52, 77
6, 932864, Note_on_c, 4, 52, 0
6, 932864, Note_on_c, 4, 49, 77
6, 933478, Note_on_c, 4, 49, 0
6, 933888, Note_on_c, 4, 52, 77
6, 934400, Note_on_c, 4, 52, 0
6, 934400, Note_on_c, 4, 49, 78
6, 934912, Note_on_c, 4, 49, 0
6, 934912, Note_on_c, 4, 45, 78
6, 935526, Note_on_c, 4, 45, 0
6, 935936, Note_on_c, 4, 45, 78
6, 936448, Note_on_c, 4, 45, 0
6, 936448, Note_on_c, 4, 49, 78
6, 936960, Note_on_c, 4, 49, 0
6, 936960, Note_on_c, 4, 52, 79
6, 937574, Note_on_c, 4, 52, 0
6, 937984, Note_on_c, 4, 49, 79
6, 938496, Note_on_c, 4, 49, 0
6, 938496, Note_on_c, 4, 52, 79
6, 939008, Note_on_c, 4, 52, 0
6, 939008, Note_on_c, 4, 57, 79
6, 939622, Note_on_c, 4, 57, 0
6, 940032, Note_on_c, 4, 52, 80
6, 940544, Note_on_c, 4, 52, 0
6, 940544, Note_on_c, 4, 57, 80
6, 941056, Note_on_c, 4, 57, 0
6, 941056, Note_on_c, 4, 61, 80
6, 941670, Note_on_c, 4, 61, 0
6, 942080, Note_on_c, 4, 57, 81
6, 942592, Note_on_c, 4, 57, 0
6, 942592, Note_on_c, 4, 61, 81
6, 943104, Note_on_c, 4, 61, 0
6, 943104, Note_on_c, 4, 62, 81
6, 943718, Note_on_c, 4, 62, 0
6, 944128, Note_on_c, 4, 50, 81
6, 944742, Note_on_c, 4, 50, 0
6, 945152, Note_on_c, 4, 62, 82
6, 945766, Note_on_c, 4, 62, 0
6, 946176, Note_on_c, 4, 59, 82
6, 946790, Note_on_c, 4, 59, 0
6, 947200, Note_on_c, 4, 54, 83
6, 947814, Note_on_c, 4, 54, 0
6, 948224, Note_on_c, 4, 59, 83
6, 948838, Note_on_c, 4, 59, 0
6, 949248, Note_on_c, 4, 55, 84
6, 949862, Note_on_c, 4, 55, 0
6, 950272, Note_on_c, 4, 57, 84
6, 950886, Note_on_c, 4, 57, 0
6, 951296, Note_on_c, 4, 50, 84
6, 951910, Note_on_c, 4, 50, 0
6, 952320, Note_on_c, 4, 38, 76
6, 952934, Note_on_c, 4, 38, 0
6, 953344, Note_on_c, 4, 50, 38
6, 957440, Note_on_c, 4, 50, 0
6, 957440, Note_on_c, 4, 49, 38
6, 959488, Note_on_c, 4, 49, 0
6, 959488, Note_on_c, 4, 47, 38
6, 960102, Note_on_c, 4, 47, 0
6, 960512, Note_on_c, 4, 50, 38
6, 961126, Note_on_c, 4, 50, 0
6, 961536, Note_on_c, 4, 55, 38
6, 965632, Note_on_c, 4, 55, 0
6, 965632, Note_on_c, 4, 54, 38
6, 967680, Note_on_c, 4, 54, 0
6, 967680, Note_on_c, 4, 52, 38
6, 969728, Note_on_c, 4, 52, 0
6, 969728, Note_on_c, 4, 57, 38
6, 973824, Note_on_c, 4, 57, 0
6, 973824, Note_on_c, 4, 55, 38
6, 975872, Note_on_c, 4, 55, 0
6, 975872, Note_on_c, 4, 54, 38
6, 977920, Note_on_c, 4, 54, 0
6, 977920, Note_on_c, 4, 55, 39
6, 982016, Note_on_c, 4, 55, 0
6, 982016, Note_on_c, 4, 54, 39
6, 984064, Note_on_c, 4, 54, 0
6, 984064, Note_on_c, 4, 52, 39
6, 984678, Note_on_c, 4, 52, 0
6, 985088, Note_on_c, 4, 40, 39
6, 985702, Note_on_c, 4, 40, 0
6, 986112, Note_on_c, 4, 52, 39
6, 986624, Note_on_c, 4, 52, 0
6, 986624, Note_on_c, 4, 54, 40
6, 987136, Note_on_c, 4, 54, 0
6, 987136, Note_on_c, 4, 50, 42
6, 987648, Note_on_c, 4, 50, 0
6, 987648, Note_on_c, 4, 52, 43
6, 988160, Note_on_c, 4, 52, 0
6, 988160, Note_on_c, 4, 54, 44
6, 988672, Note_on_c, 4, 54, 0
6, 988672, Note_on_c, 4, 55, 46
6, 989184, Note_on_c, 4, 55, 0
6, 989184, Note_on_c, 4, 52, 47
6, 989696, Note_on_c, 4, 52, 0
6, 989696, Note_on_c, 4, 54, 49
6, 990208, Note_on_c, 4, 54, 0
6, 990208, Note_on_c, 4, 55, 50
6, 990720, Note_on_c, 4, 55, 0
6, 990720, Note_on_c, 4, 57, 52
6, 991232, Note_on_c, 4, 57, 0
6, 991232, Note_on_c, 4, 54, 53
6, 991744, Note_on_c, 4, 54, 0
6, 991744, Note_on_c, 4, 55, 54
6, 992256, Note_on_c, 4, 55, 0
6, 992256, Note_on_c, 4, 57, 56
6, 992870, Note_on_c, 4, 57, 0
6, 993280, Note_on_c, 4, 45, 59
6, 993894, Note_on_c, 4, 45, 0
6, 995328, Note_on_c, 4, 57, 64
6, 995840, Note_on_c, 4, 57, 0
6, 995840, Note_on_c, 4, 55, 66
6, 996352, Note_on_c, 4, 55, 0
6, 996352, Note_on_c, 4, 54, 67
6, 996966, Note_on_c, 4, 54, 0
6, 997376, Note_on_c, 4, 55, 70
6, 997888, Note_on_c, 4, 55, 0
6, 997888, Note_on_c, 4, 54, 72
6, 998400, Note_on_c, 4, 54, 0
6, 998400, Note_on_c, 4, 52, 73
6, 999014, Note_on_c, 4, 52, 0
6, 999424, Note_on_c, 4, 54, 76
6, 999936, Note_on_c, 4, 54, 0
6, 999936, Note_on_c, 4, 52, 77
6, 1000448, Note_on_c, 4, 52, 0
6, 1000448, Note_on_c, 4, 50, 82
6, 1000960, Note_on_c, 4, 50, 0
6, 1000960, Note_on_c, 4, 49, 83
6, 1001472, Note_on_c, 4, 49, 0
6, 1001472, Note_on_c, 4, 50, 84
6, 1001984, Note_on_c, 4, 50, 0
6, 1001984, Note_on_c, 4, 52, 85
6, 1002496, Note_on_c, 4, 52, 0
6, 1002496, Note_on_c, 4, 54, 86
6, 1003008, Note_on_c, 4, 54, 0
6, 1003008, Note_on_c, 4, 55, 87
6, 1003520, Note_on_c, 4, 55, 0
6, 1003520, Note_on_c, 4, 52, 88
6, 1004032, Note_on_c, 4, 52, 0
6, 1004032, Note_on_c, 4, 54, 89
6, 1004544, Note_on_c, 4, 54, 0
6, 1004544, Note_on_c, 4, 55, 90
6, 1005056, Note_on_c, 4, 55, 0
6, 1005056, Note_on_c, 4, 57, 91
6, 1005568, Note_on_c, 4, 57, 0
6, 1005568, Note_on_c, 4, 54, 92
6, 1006080, Note_on_c, 4, 54, 0
6, 1006080, Note_on_c, 4, 55, 93
6, 1006592, Note_on_c, 4, 55, 0
6, 1006592, Note_on_c, 4, 57, 94
6, 1007104, Note_on_c, 4, 57, 0
6, 1007104, Note_on_c, 4, 59, 96
6, 1007616, Note_on_c, 4, 59, 0
6, 1007616, Note_on_c, 4, 55, 97
6, 1008128, Note_on_c, 4, 55, 0
6, 1008128, Note_on_c, 4, 57, 99
6, 1008640, Note_on_c, 4, 57, 0
6, 1008640, Note_on_c, 4, 59, 99
6, 1009152, Note_on_c, 4, 59, 0
6, 1009152, Note_on_c, 4, 61, 99
6, 1009664, Note_on_c, 4, 61, 0
6, 1009664, Note_on_c, 4, 57, 100
6, 1010176, Note_on_c, 4, 57, 0
6, 1010176, Note_on_c, 4, 59, 100
6, 1010688, Note_on_c, 4, 59, 0
6, 1010688, Note_on_c, 4, 61, 101
6, 1011200, Note_on_c, 4, 61, 0
6, 1011200, Note_on_c, 4, 62, 101
6, 1011712, Note_on_c, 4, 62, 0
6, 1011712, Note_on_c, 4, 59, 101
6, 1012224, Note_on_c, 4, 59, 0
6, 1012224, Note_on_c, 4, 61, 102
6, 1012736, Note_on_c, 4, 61, 0
6, 1012736, Note_on_c, 4, 62, 102
6, 1013350, Note_on_c, 4, 62, 0
6, 1013760, Note_on_c, 4, 59, 103
6, 1014374, Note_on_c, 4, 59, 0
6, 1014784, Note_on_c, 4, 55, 104
6, 1015398, Note_on_c, 4, 55, 0
6, 1015808, Note_on_c, 4, 57, 104
6, 1016422, Note_on_c, 4, 57, 0
6, 1016832, Note_on_c, 4, 50, 105
6, 1017446, Note_on_c, 4, 50, 0
6, 1018880, Note_on_c, 4, 47, 107
6, 1019494, Note_on_c, 4, 47, 0
6, 1020928, Note_on_c, 4, 42, 108
6, 1021542, Note_on_c, 4, 42, 0
6, 1022976, Note_on_c, 4, 45, 108
6, 1023590, Note_on_c, 4, 45, 0
6, 1025024, Note_on_c, 4, 38, 108
6, 1025638, Note_on_c, 4, 38, 0
6, 1033216, End_track
7, 0, Start_track
7, 0, Title_t, "Violin I"
7, 0, Program_c, 5, 48
7, 0, Control_c, 5, 121, 127
7, 0, Control_c, 5, 1, 5
7, 0, Control_c, 5, 10, 30
7, 598862, Control_c, 5, 7, 93
7, 600064, Note_on_c, 5, 62, 77
7, 600576, Note_on_c, 5, 62, 0
7, 600576, Note_on_c, 5, 66, 78
7, 601088, Note_on_c, 5, 66, 0
7, 601088, Note_on_c, 5, 69, 79
7, 601702, Note_on_c, 5, 69, 0
7, 602112, Note_on_c, 5, 66, 80
7, 602624, Note_on_c, 5, 66, 0
7, 602624, Note_on_c, 5, 69, 81
7, 603136, Note_on_c, 5, 69, 0
7, 603136, Note_on_c, 5, 74, 81
7, 603750, Note_on_c, 5, 74, 0
7, 604160, Note_on_c, 5, 66, 83
7, 604672, Note_on_c, 5, 66, 0
7, 604672, Note_on_c, 5, 69, 84
7, 605184, Note_on_c, 5, 69, 0
7, 605184, Note_on_c, 5, 74, 84
7, 605798, Note_on_c, 5, 74, 0
7, 606208, Note_on_c, 5, 69, 86
7, 606720, Note_on_c, 5, 69, 0
7, 606720, Note_on_c, 5, 74, 86
7, 607232, Note_on_c, 5, 74, 0
7, 607232, Note_on_c, 5, 78, 87
7, 607846, Note_on_c, 5, 78, 0
7, 608256, Note_on_c, 5, 69, 88
7, 608768, Note_on_c, 5, 69, 0
7, 608768, Note_on_c, 5, 74, 89
7, 609280, Note_on_c, 5, 74, 0
7, 609280, Note_on_c, 5, 78, 90
7, 609894, Note_on_c, 5, 78, 0
7, 610304, Note_on_c, 5, 81, 91
7, 610816, Note_on_c, 5, 81, 0
7, 610816, Note_on_c, 5, 78, 92
7, 611328, Note_on_c, 5, 78, 0
7, 611328, Note_on_c, 5, 74, 93
7, 611942, Note_on_c, 5, 74, 0
7, 612352, Note_on_c, 5, 78, 94
7, 612864, Note_on_c, 5, 78, 0
7, 612864, Note_on_c, 5, 74, 95
7, 613376, Note_on_c, 5, 74, 0
7, 613376, Note_on_c, 5, 69, 96
7, 613990, Note_on_c, 5, 69, 0
7, 614400, Note_on_c, 5, 74, 97
7, 614912, Note_on_c, 5, 74, 0
7, 614912, Note_on_c, 5, 78, 98
7, 615424, Note_on_c, 5, 78, 0
7, 615424, Note_on_c, 5, 81, 98
7, 616038, Note_on_c, 5, 81, 0
7, 616448, Note_on_c, 5, 81, 98
7, 617062, Note_on_c, 5, 81, 0
7, 617472, Note_on_c, 5, 81, 98
7, 618086, Note_on_c, 5, 81, 0
7, 618496, Note_on_c, 5, 81, 98
7, 619110, Note_on_c, 5, 81, 0
7, 619520, Note_on_c, 5, 81, 98
7, 620134, Note_on_c, 5, 81, 0
7, 620544, Note_on_c, 5, 79, 98
7, 621056, Note_on_c, 5, 79, 0
7, 621056, Note_on_c, 5, 81, 98
7, 621568, Note_on_c, 5, 81, 0
7, 621568, Note_on_c, 5, 83, 98
7, 622182, Note_on_c, 5, 83, 0
7, 622592, Note_on_c, 5, 81, 98
7, 623104, Note_on_c, 5, 81, 0
7, 623104, Note_on_c, 5, 79, 98
7, 623616, Note_on_c, 5, 79, 0
7, 623616, Note_on_c, 5, 81, 98
7, 624230, Note_on_c, 5, 81, 0
7, 624640, Note_on_c, 5, 78, 98
7, 625152, Note_on_c, 5, 78, 0
7, 625152, Note_on_c, 5, 81, 98
7, 625664, Note_on_c, 5, 81, 0
7, 625664, Note_on_c, 5, 86, 98
7, 626278, Note_on_c, 5, 86, 0
7, 626688, Note_on_c, 5, 81, 98
7, 627302, Note_on_c, 5, 81, 0
7, 627712, Note_on_c, 5, 79, 98
7, 628326, Note_on_c, 5, 79, 0
7, 628736, Note_on_c, 5, 78, 98
7, 629248, Note_on_c, 5, 78, 0
7, 629248, Note_on_c, 5, 79, 98
7, 629760, Note_on_c, 5, 79, 0
7, 629760, Note_on_c, 5, 81, 98
7, 630272, Note_on_c, 5, 81, 0
7, 630272, Note_on_c, 5, 79, 98
7, 630784, Note_on_c, 5, 79, 0
7, 630784, Note_on_c, 5, 78, 98
7, 631296, Note_on_c, 5, 78, 0
7, 631296, Note_on_c, 5, 76, 98
7, 631808, Note_on_c, 5, 76, 0
7, 631808, Note_on_c, 5, 78, 98
7, 632422, Note_on_c, 5, 78, 0
7, 632832, Note_on_c, 5, 76, 98
7, 633344, Note_on_c, 5, 76, 0
7, 633344, Note_on_c, 5, 78, 98
7, 633856, Note_on_c, 5, 78, 0
7, 633856, Note_on_c, 5, 74, 98
7, 634470, Note_on_c, 5, 74, 0
7, 634880, Note_on_c, 5, 76, 98
7, 635494, Note_on_c, 5, 76, 0
7, 635904, Note_on_c, 5, 78, 98
7, 636416, Note_on_c, 5, 78, 0
7, 636416, Note_on_c, 5, 80, 98
7, 636928, Note_on_c, 5, 80, 0
7, 636928, Note_on_c, 5, 76, 98
7, 637440, Note_on_c, 5, 76, 0
7, 637440, Note_on_c, 5, 78, 98
7, 637952, Note_on_c, 5, 78, 0
7, 637952, Note_on_c, 5, 80, 98
7, 638464, Note_on_c, 5, 80, 0
7, 638464, Note_on_c, 5, 81, 98
7, 638976, Note_on_c, 5, 81, 0
7, 638976, Note_on_c, 5, 78, 98
7, 639488, Note_on_c, 5, 78, 0
7, 639488, Note_on_c, 5, 80, 98
7, 640000, Note_on_c, 5, 80, 0
7, 640000, Note_on_c, 5, 81, 98
7, 640512, Note_on_c, 5, 81, 0
7, 640512, Note_on_c, 5, 83, 98
7, 641024, Note_on_c, 5, 83, 0
7, 641024, Note_on_c, 5, 80, 98
7, 641536, Note_on_c, 5, 80, 0
7, 641536, Note_on_c, 5, 81, 98
7, 642048, Note_on_c, 5, 81, 0
7, 642048, Note_on_c, 5, 83, 98
7, 642560, Note_on_c, 5, 83, 0
7, 642560, Note_on_c, 5, 85, 98
7, 643072, Note_on_c, 5, 85, 0
7, 643072, Note_on_c, 5, 81, 98
7, 643584, Note_on_c, 5, 81, 0
7, 643584, Note_on_c, 5, 83, 98
7, 644096, Note_on_c, 5, 83, 0
7, 644096, Note_on_c, 5, 85, 98
7, 644710, Note_on_c, 5, 85, 0
7, 645120, Note_on_c, 5, 83, 98
7, 645632, Note_on_c, 5, 83, 0
7, 645632, Note_on_c, 5, 81, 98
7, 646144, Note_on_c, 5, 81, 0
7, 646144, Note_on_c, 5, 83, 98
7, 646758, Note_on_c, 5, 83, 0
7, 647168, Note_on_c, 5, 80, 98
7, 647782, Note_on_c, 5, 80, 0
7, 648192, Note_on_c, 5, 81, 98
7, 648806, Note_on_c, 5, 81, 0
7, 649216, Note_on_c, 5, 69, 98
7, 649728, Note_on_c, 5, 69, 0
7, 649728, Note_on_c, 5, 73, 98
7, 650240, Note_on_c, 5, 73, 0
7, 650240, Note_on_c, 5, 76, 98
7, 650854, Note_on_c, 5, 76, 0
7, 651264, Note_on_c, 5, 73, 98
7, 651776, Note_on_c, 5, 73, 0
7, 651776, Note_on_c, 5, 76, 98
7, 652288, Note_on_c, 5, 76, 0
7, 652288, Note_on_c, 5, 79, 95
7, 652902, Note_on_c, 5, 79, 0
7, 653312, Note_on_c, 5, 69, 93
7, 653824, Note_on_c, 5, 69, 0
7, 653824, Note_on_c, 5, 73, 92
7, 654336, Note_on_c, 5, 73, 0
7, 654336, Note_on_c, 5, 76, 91
7, 654950, Note_on_c, 5, 76, 0
7, 655360, Note_on_c, 5, 73, 88
7, 655872, Note_on_c, 5, 73, 0
7, 655872, Note_on_c, 5, 76, 87
7, 656384, Note_on_c, 5, 76, 0
7, 656384, Note_on_c, 5, 78, 86
7, 656998, Note_on_c, 5, 78, 0
7, 657408, Note_on_c, 5, 74, 77
7, 657920, Note_on_c, 5, 74, 0
7, 657920, Note_on_c, 5, 78, 79
7, 658432, Note_on_c, 5, 78, 0
7, 658432, Note_on_c, 5, 81, 80
7, 659046, Note_on_c, 5, 81, 0
7, 659456, Note_on_c, 5, 78, 83
7, 659968, Note_on_c, 5, 78, 0
7, 659968, Note_on_c, 5, 81, 85
7, 660480, Note_on_c, 5, 81, 0
7, 660480, Note_on_c, 5, 86, 86
7, 661094, Note_on_c, 5, 86, 0
7, 661504, Note_on_c, 5, 74, 89
7, 662016, Note_on_c, 5, 74, 0
7, 662016, Note_on_c, 5, 78, 91
7, 662528, Note_on_c, 5, 78, 0
7, 662528, Note_on_c, 5, 81, 92
7, 663142, Note_on_c, 5, 81, 0
7, 663552, Note_on_c, 5, 78, 96
7, 664064, Note_on_c, 5, 78, 0
7, 664064, Note_on_c, 5, 81, 97
7, 664576, Note_on_c, 5, 81, 0
7, 664576, Note_on_c, 5, 85, 96
7, 666624, Note_on_c, 5, 85, 0
7, 698368, Note_on_c, 5, 81, 68
7, 698880, Note_on_c, 5, 81, 0
7, 698880, Note_on_c, 5, 78, 68
7, 699392, Note_on_c, 5, 78, 0
7, 699392, Note_on_c, 5, 74, 69
7, 700006, Note_on_c, 5, 74, 0
7, 700416, Note_on_c, 5, 78, 70
7, 700928, Note_on_c, 5, 78, 0
7, 700928, Note_on_c, 5, 74, 71
7, 701440, Note_on_c, 5, 74, 0
7, 701440, Note_on_c, 5, 69, 72
7, 702054, Note_on_c, 5, 69, 0
7, 706560, Note_on_c, 5, 79, 78
7, 707072, Note_on_c, 5, 79, 0
7, 707072, Note_on_c, 5, 76, 79
7, 707584, Note_on_c, 5, 76, 0
7, 707584, Note_on_c, 5, 73, 79
7, 708198, Note_on_c, 5, 73, 0
7, 708608, Note_on_c, 5, 76, 81
7, 709120, Note_on_c, 5, 76, 0
7, 709120, Note_on_c, 5, 73, 81
7, 709632, Note_on_c, 5, 73, 0
7, 709632, Note_on_c, 5, 69, 82
7, 710246, Note_on_c, 5, 69, 0
7, 714752, Note_on_c, 5, 78, 88
7, 715264, Note_on_c, 5, 78, 0
7, 715264, Note_on_c, 5, 74, 89
7, 715776, Note_on_c, 5, 74, 0
7, 715776, Note_on_c, 5, 69, 90
7, 716390, Note_on_c, 5, 69, 0
7, 716800, Note_on_c, 5, 74, 91
7, 717312, Note_on_c, 5, 74, 0
7, 717312, Note_on_c, 5, 69, 91
7, 717824, Note_on_c, 5, 69, 0
7, 717824, Note_on_c, 5, 66, 92
7, 718438, Note_on_c, 5, 66, 0
7, 722944, Note_on_c, 5, 76, 94
7, 723456, Note_on_c, 5, 76, 0
7, 723456, Note_on_c, 5, 73, 94
7, 723968, Note_on_c, 5, 73, 0
7, 723968, Note_on_c, 5, 69, 94
7, 724582, Note_on_c, 5, 69, 0
7, 724992, Note_on_c, 5, 73, 94
7, 725504, Note_on_c, 5, 73, 0
7, 725504, Note_on_c, 5, 69, 94
7, 726016, Note_on_c, 5, 69, 0
7, 726016, Note_on_c, 5, 64, 94
7, 726630, Note_on_c, 5, 64, 0
7, 731136, Note_on_c, 5, 62, 83
7, 731648, Note_on_c, 5, 62, 0
7, 731648, Note_on_c, 5, 66, 83
7, 732160, Note_on_c, 5, 66, 0
7, 732160, Note_on_c, 5, 69, 83
7, 732774, Note_on_c, 5, 69, 0
7, 733184, Note_on_c, 5, 66, 83
7, 733696, Note_on_c, 5, 66, 0
7, 733696, Note_on_c, 5, 69, 83
7, 734208, Note_on_c, 5, 69, 0
7, 734208, Note_on_c, 5, 74, 83
7, 734822, Note_on_c, 5, 74, 0
7, 735232, Note_on_c, 5, 66, 83
7, 735744, Note_on_c, 5, 66, 0
7, 735744, Note_on_c, 5, 69, 83
7, 736256, Note_on_c, 5, 69, 0
7, 736256, Note_on_c, 5, 74, 83
7, 736870, Note_on_c, 5, 74, 0
7, 737280, Note_on_c, 5, 69, 83
7, 737792, Note_on_c, 5, 69, 0
7, 737792, Note_on_c, 5, 74, 83
7, 738304, Note_on_c, 5, 74, 0
7, 738304, Note_on_c, 5, 78, 83
7, 738918, Note_on_c, 5, 78, 0
7, 739328, Note_on_c, 5, 69, 83
7, 739840, Note_on_c, 5, 69, 0
7, 739840, Note_on_c, 5, 74, 83
7, 740352, Note_on_c, 5, 74, 0
7, 740352, Note_on_c, 5, 78, 83
7, 740966, Note_on_c, 5, 78, 0
7, 741376, Note_on_c, 5, 81, 83
7, 741888, Note_on_c, 5, 81, 0
7, 741888, Note_on_c, 5, 78, 83
7, 742400, Note_on_c, 5, 78, 0
7, 742400, Note_on_c, 5, 74, 79
7, 743014, Note_on_c, 5, 74, 0
7, 743424, Note_on_c, 5, 78, 81
7, 743936, Note_on_c, 5, 78, 0
7, 743936, Note_on_c, 5, 74, 82
7, 744448, Note_on_c, 5, 74, 0
7, 744448, Note_on_c, 5, 69, 83
7, 745062, Note_on_c, 5, 69, 0
7, 745472, Note_on_c, 5, 74, 86
7, 745984, Note_on_c, 5, 74, 0
7, 745984, Note_on_c, 5, 78, 87
7, 746496, Note_on_c, 5, 78, 0
7, 746496, Note_on_c, 5, 81, 88
7, 747110, Note_on_c, 5, 81, 0
7, 747520, Note_on_c, 5, 81, 90
7, 748134, Note_on_c, 5, 81, 0
7, 748544, Note_on_c, 5, 81, 93
7, 749158, Note_on_c, 5, 81, 0
7, 749568, Note_on_c, 5, 81, 95
7, 750182, Note_on_c, 5, 81, 0
7, 750592, Note_on_c, 5, 81, 98
7, 751206, Note_on_c, 5, 81, 0
7, 751616, Note_on_c, 5, 79, 98
7, 752128, Note_on_c, 5, 79, 0
7, 752128, Note_on_c, 5, 81, 98
7, 752640, Note_on_c, 5, 81, 0
7, 752640, Note_on_c, 5, 83, 98
7, 753254, Note_on_c, 5, 83, 0
7, 753664, Note_on_c, 5, 81, 98
7, 754176, Note_on_c, 5, 81, 0
7, 754176, Note_on_c, 5, 79, 98
7, 754688, Note_on_c, 5, 79, 0
7, 754688, Note_on_c, 5, 81, 98
7, 755302, Note_on_c, 5, 81, 0
7, 755712, Note_on_c, 5, 78, 98
7, 756224, Note_on_c, 5, 78, 0
7, 756224, Note_on_c, 5, 81, 98
7, 756736, Note_on_c, 5, 81, 0
7, 756736, Note_on_c, 5, 86, 98
7, 757350, Note_on_c, 5, 86, 0
7, 757760, Note_on_c, 5, 81, 97
7, 758374, Note_on_c, 5, 81, 0
7, 758784, Note_on_c, 5, 79, 97
7, 759398, Note_on_c, 5, 79, 0
7, 759808, Note_on_c, 5, 78, 97
7, 760320, Note_on_c, 5, 78, 0
7, 760320, Note_on_c, 5, 79, 97
7, 760832, Note_on_c, 5, 79, 0
7, 760832, Note_on_c, 5, 81, 97
7, 761344, Note_on_c, 5, 81, 0
7, 761344, Note_on_c, 5, 79, 97
7, 761856, Note_on_c, 5, 79, 0
7, 761856, Note_on_c, 5, 78, 97
7, 762368, Note_on_c, 5, 78, 0
7, 762368, Note_on_c, 5, 76, 97
7, 762880, Note_on_c, 5, 76, 0
7, 762880, Note_on_c, 5, 78, 97
7, 763494, Note_on_c, 5, 78, 0
7, 763904, Note_on_c, 5, 74, 79
7, 764518, Note_on_c, 5, 74, 0
7, 796672, Note_on_c, 5, 73, 56
7, 797184, Note_on_c, 5, 73, 0
7, 797184, Note_on_c, 5, 74, 58
7, 797696, Note_on_c, 5, 74, 0
7, 797696, Note_on_c, 5, 76, 60
7, 798208, Note_on_c, 5, 76, 0
7, 798208, Note_on_c, 5, 78, 62
7, 798720, Note_on_c, 5, 78, 0
7, 798720, Note_on_c, 5, 74, 64
7, 799232, Note_on_c, 5, 74, 0
7, 799232, Note_on_c, 5, 76, 66
7, 799744, Note_on_c, 5, 76, 0
7, 799744, Note_on_c, 5, 78, 68
7, 800256, Note_on_c, 5, 78, 0
7, 800256, Note_on_c, 5, 80, 70
7, 800768, Note_on_c, 5, 80, 0
7, 800768, Note_on_c, 5, 76, 72
7, 801280, Note_on_c, 5, 76, 0
7, 801280, Note_on_c, 5, 78, 74
7, 801792, Note_on_c, 5, 78, 0
7, 801792, Note_on_c, 5, 80, 76
7, 802304, Note_on_c, 5, 80, 0
7, 802304, Note_on_c, 5, 81, 77
7, 802816, Note_on_c, 5, 81, 0
7, 802816, Note_on_c, 5, 78, 79
7, 803328, Note_on_c, 5, 78, 0
7, 803328, Note_on_c, 5, 80, 81
7, 803840, Note_on_c, 5, 80, 0
7, 803840, Note_on_c, 5, 81, 85
7, 804352, Note_on_c, 5, 81, 0
7, 804352, Note_on_c, 5, 83, 85
7, 804864, Note_on_c, 5, 83, 0
7, 804864, Note_on_c, 5, 80, 86
7, 805376, Note_on_c, 5, 80, 0
7, 805376, Note_on_c, 5, 81, 86
7, 805888, Note_on_c, 5, 81, 0
7, 805888, Note_on_c, 5, 83, 86
7, 806400, Note_on_c, 5, 83, 0
7, 806400, Note_on_c, 5, 85, 87
7, 806912, Note_on_c, 5, 85, 0
7, 806912, Note_on_c, 5, 81, 87
7, 807424, Note_on_c, 5, 81, 0
7, 807424, Note_on_c, 5, 83, 88
7, 807936, Note_on_c, 5, 83, 0
7, 807936, Note_on_c, 5, 85, 88
7, 808550, Note_on_c, 5, 85, 0
7, 808960, Note_on_c, 5, 83, 89
7, 809472, Note_on_c, 5, 83, 0
7, 809472, Note_on_c, 5, 81, 90
7, 809984, Note_on_c, 5, 81, 0
7, 809984, Note_on_c, 5, 83, 90
7, 810598, Note_on_c, 5, 83, 0
7, 811008, Note_on_c, 5, 80, 91
7, 811622, Note_on_c, 5, 80, 0
7, 812032, Note_on_c, 5, 81, 92
7, 812646, Note_on_c, 5, 81, 0
7, 813056, Note_on_c, 5, 57, 36
7, 813568, Note_on_c, 5, 57, 0
7, 813568, Note_on_c, 5, 61, 36
7, 814080, Note_on_c, 5, 61, 0
7, 814080, Note_on_c, 5, 64, 36
7, 814694, Note_on_c, 5, 64, 0
7, 815104, Note_on_c, 5, 61, 36
7, 815616, Note_on_c, 5, 61, 0
7, 815616, Note_on_c, 5, 64, 36
7, 816128, Note_on_c, 5, 64, 0
7, 816128, Note_on_c, 5, 69, 36
7, 816742, Note_on_c, 5, 69, 0
7, 817152, Note_on_c, 5, 61, 36
7, 817664, Note_on_c, 5, 61, 0
7, 817664, Note_on_c, 5, 64, 36
7, 818176, Note_on_c, 5, 64, 0
7, 818176, Note_on_c, 5, 69, 36
7, 818790, Note_on_c, 5, 69, 0
7, 819200, Note_on_c, 5, 64, 36
7, 819712, Note_on_c, 5, 64, 0
7, 819712, Note_on_c, 5, 69, 36
7, 820224, Note_on_c, 5, 69, 0
7, 820224, Note_on_c, 5, 73, 36
7, 820838, Note_on_c, 5, 73, 0
7, 821248, Note_on_c, 5, 64, 39
7, 821760, Note_on_c, 5, 64, 0
7, 821760, Note_on_c, 5, 69, 41
7, 822272, Note_on_c, 5, 69, 0
7, 822272, Note_on_c, 5, 73, 43
7, 822886, Note_on_c, 5, 73, 0
7, 823296, Note_on_c, 5, 69, 47
7, 823808, Note_on_c, 5, 69, 0
7, 823808, Note_on_c, 5, 73, 48
7, 824320, Note_on_c, 5, 73, 0
7, 824320, Note_on_c, 5, 76, 50
7, 824934, Note_on_c, 5, 76, 0
7, 825344, Note_on_c, 5, 69, 54
7, 825856, Note_on_c, 5, 69, 0
7, 825856, Note_on_c, 5, 73, 56
7, 826368, Note_on_c, 5, 73, 0
7, 826368, Note_on_c, 5, 76, 58
7, 826982, Note_on_c, 5, 76, 0
7, 827392, Note_on_c, 5, 73, 61
7, 827904, Note_on_c, 5, 73, 0
7, 827904, Note_on_c, 5, 76, 63
7, 828416, Note_on_c, 5, 76, 0
7, 828416, Note_on_c, 5, 81, 65
7, 829030, Note_on_c, 5, 81, 0
7, 829440, Note_on_c, 5, 76, 64
7, 830054, Note_on_c, 5, 76, 0
7, 830464, Note_on_c, 5, 76, 64
7, 831078, Note_on_c, 5, 76, 0
7, 831488, Note_on_c, 5, 76, 64
7, 832102, Note_on_c, 5, 76, 0
7, 832512, Note_on_c, 5, 76, 64
7, 833126, Note_on_c, 5, 76, 0
7, 833536, Note_on_c, 5, 74, 64
7, 834048, Note_on_c, 5, 74, 0
7, 834048, Note_on_c, 5, 76, 64
7, 834560, Note_on_c, 5, 76, 0
7, 834560, Note_on_c, 5, 78, 64
7, 835174, Note_on_c, 5, 78, 0
7, 835584, Note_on_c, 5, 76, 64
7, 836096, Note_on_c, 5, 76, 0
7, 836096, Note_on_c, 5, 74, 64
7, 836608, Note_on_c, 5, 74, 0
7, 836608, Note_on_c, 5, 76, 64
7, 837222, Note_on_c, 5, 76, 0
7, 837632, Note_on_c, 5, 73, 64
7, 838144, Note_on_c, 5, 73, 0
7, 838144, Note_on_c, 5, 76, 64
7, 838656, Note_on_c, 5, 76, 0
7, 838656, Note_on_c, 5, 81, 64
7, 839270, Note_on_c, 5, 81, 0
7, 839680, Note_on_c, 5, 76, 64
7, 840294, Note_on_c, 5, 76, 0
7, 840704, Note_on_c, 5, 74, 62
7, 841318, Note_on_c, 5, 74, 0
7, 841728, Note_on_c, 5, 73, 58
7, 842240, Note_on_c, 5, 73, 0
7, 842240, Note_on_c, 5, 74, 57
7, 842752, Note_on_c, 5, 74, 0
7, 842752, Note_on_c, 5, 76, 55
7, 843264, Note_on_c, 5, 76, 0
7, 843264, Note_on_c, 5, 74, 53
7, 843776, Note_on_c, 5, 74, 0
7, 843776, Note_on_c, 5, 73, 52
7, 844288, Note_on_c, 5, 73, 0
7, 844288, Note_on_c, 5, 71, 50
7, 844800, Note_on_c, 5, 71, 0
7, 844800, Note_on_c, 5, 73, 48
7, 845414, Note_on_c, 5, 73, 0
7, 845824, Note_on_c, 5, 69, 42
7, 846438, Note_on_c, 5, 69, 0
7, 878592, Note_on_c, 5, 76, 46
7, 879104, Note_on_c, 5, 76, 0
7, 879104, Note_on_c, 5, 73, 46
7, 879616, Note_on_c, 5, 73, 0
7, 879616, Note_on_c, 5, 69, 46
7, 880230, Note_on_c, 5, 69, 0
7, 880640, Note_on_c, 5, 73, 46
7, 881152, Note_on_c, 5, 73, 0
7, 881152, Note_on_c, 5, 69, 47
7, 881664, Note_on_c, 5, 69, 0
7, 881664, Note_on_c, 5, 64, 47
7, 882278, Note_on_c, 5, 64, 0
7, 886784, Note_on_c, 5, 74, 48
7, 887296, Note_on_c, 5, 74, 0
7, 887296, Note_on_c, 5, 71, 49
7, 887808, Note_on_c, 5, 71, 0
7, 887808, Note_on_c, 5, 68, 49
7, 888422, Note_on_c, 5, 68, 0
7, 888832, Note_on_c, 5, 71, 49
7, 889344, Note_on_c, 5, 71, 0
7, 889344, Note_on_c, 5, 68, 49
7, 889856, Note_on_c, 5, 68, 0
7, 889856, Note_on_c, 5, 64, 50
7, 890470, Note_on_c, 5, 64, 0
7, 894976, Note_on_c, 5, 73, 51
7, 895488, Note_on_c, 5, 73, 0
7, 895488, Note_on_c, 5, 69, 52
7, 896000, Note_on_c, 5, 69, 0
7, 896000, Note_on_c, 5, 64, 52
7, 896614, Note_on_c, 5, 64, 0
7, 897024, Note_on_c, 5, 69, 52
7, 897536, Note_on_c, 5, 69, 0
7, 897536, Note_on_c, 5, 64, 52
7, 898048, Note_on_c, 5, 64, 0
7, 898048, Note_on_c, 5, 61, 52
7, 898662, Note_on_c, 5, 61, 0
7, 903168, Note_on_c, 5, 81, 53
7, 903680, Note_on_c, 5, 81, 0
7, 903680, Note_on_c, 5, 78, 53
7, 904192, Note_on_c, 5, 78, 0
7, 904192, Note_on_c, 5, 74, 54
7, 904806, Note_on_c, 5, 74, 0
7, 905216, Note_on_c, 5, 78, 54
7, 905728, Note_on_c, 5, 78, 0
7, 905728, Note_on_c, 5, 74, 54
7, 906240, Note_on_c, 5, 74, 0
7, 906240, Note_on_c, 5, 69, 54
7, 906854, Note_on_c, 5, 69, 0
7, 907264, Note_on_c, 5, 74, 55
7, 907776, Note_on_c, 5, 74, 0
7, 907776, Note_on_c, 5, 78, 55
7, 908288, Note_on_c, 5, 78, 0
7, 908288, Note_on_c, 5, 81, 55
7, 908902, Note_on_c, 5, 81, 0
7, 909312, Note_on_c, 5, 79, 55
7, 909824, Note_on_c, 5, 79, 0
7, 909824, Note_on_c, 5, 81, 55
7, 910336, Note_on_c, 5, 81, 0
7, 910336, Note_on_c, 5, 83, 56
7, 910950, Note_on_c, 5, 83, 0
7, 913408, Note_on_c, 5, 83, 57
7, 913920, Note_on_c, 5, 83, 0
7, 913920, Note_on_c, 5, 79, 57
7, 914432, Note_on_c, 5, 79, 0
7, 914432, Note_on_c, 5, 76, 57
7, 915046, Note_on_c, 5, 76, 0
7, 917504, Note_on_c, 5, 78, 58
7, 918016, Note_on_c, 5, 78, 0
7, 918016, Note_on_c, 5, 79, 58
7, 918528, Note_on_c, 5, 79, 0
7, 918528, Note_on_c, 5, 81, 57
7, 919142, Note_on_c, 5, 81, 0
7, 921600, Note_on_c, 5, 81, 63
7, 922112, Note_on_c, 5, 81, 0
7, 922112, Note_on_c, 5, 78, 64
7, 922624, Note_on_c, 5, 78, 0
7, 922624, Note_on_c, 5, 74, 65
7, 923238, Note_on_c, 5, 74, 0
7, 925696, Note_on_c, 5, 76, 72
7, 926208, Note_on_c, 5, 76, 0
7, 926208, Note_on_c, 5, 78, 73
7, 926720, Note_on_c, 5, 78, 0
7, 926720, Note_on_c, 5, 79, 74
7, 927334, Note_on_c, 5, 79, 0
7, 929792, Note_on_c, 5, 79, 76
7, 930304, Note_on_c, 5, 79, 0
7, 930304, Note_on_c, 5, 78, 76
7, 930816, Note_on_c, 5, 78, 0
7, 930816, Note_on_c, 5, 79, 76
7, 931430, Note_on_c, 5, 79, 0
7, 933888, Note_on_c, 5, 79, 77
7, 934400, Note_on_c, 5, 79, 0
7, 934400, Note_on_c, 5, 78, 78
7, 934912, Note_on_c, 5, 78, 0
7, 934912, Note_on_c, 5, 79, 78
7, 935526, Note_on_c, 5, 79, 0
7, 935936, Note_on_c, 5, 73, 78
7, 936448, Note_on_c, 5, 73, 0
7, 936448, Note_on_c, 5, 76, 78
7, 936960, Note_on_c, 5, 76, 0
7, 936960, Note_on_c, 5, 79, 79
7, 937574, Note_on_c, 5, 79, 0
7, 937984, Note_on_c, 5, 79, 79
7, 938598, Note_on_c, 5, 79, 0
7, 939008, Note_on_c, 5, 79, 79
7, 939622, Note_on_c, 5, 79, 0
7, 940032, Note_on_c, 5, 73, 80
7, 940544, Note_on_c, 5, 73, 0
7, 940544, Note_on_c, 5, 76, 80
7, 941056, Note_on_c, 5, 76, 0
7, 941056, Note_on_c, 5, 79, 80
7, 941670, Note_on_c, 5, 79, 0
7, 942080, Note_on_c, 5, 79, 81
7, 942694, Note_on_c, 5, 79, 0
7, 943104, Note_on_c, 5, 78, 81
7, 943616, Note_on_c, 5, 78, 0
7, 943616, Note_on_c, 5, 76, 81
7, 944128, Note_on_c, 5, 76, 0
7, 944128, Note_on_c, 5, 74, 81
7, 944640, Note_on_c, 5, 74, 0
7, 944640, Note_on_c, 5, 76, 82
7, 945152, Note_on_c, 5, 76, 0
7, 945152, Note_on_c, 5, 78, 82
7, 945664, Note_on_c, 5, 78, 0
7, 945664, Note_on_c, 5, 79, 82
7, 946176, Note_on_c, 5, 79, 0
7, 946176, Note_on_c, 5, 81, 82
7, 946688, Note_on_c, 5, 81, 0
7, 946688, Note_on_c, 5, 83, 83
7, 947200, Note_on_c, 5, 83, 0
7, 947200, Note_on_c, 5, 81, 83
7, 947814, Note_on_c, 5, 81, 0
7, 948224, Note_on_c, 5, 79, 83
7, 948736, Note_on_c, 5, 79, 0
7, 948736, Note_on_c, 5, 78, 83
7, 949248, Note_on_c, 5, 78, 0
7, 949248, Note_on_c, 5, 79, 84
7, 949862, Note_on_c, 5, 79, 0
7, 950272, Note_on_c, 5, 78, 84
7, 950784, Note_on_c, 5, 78, 0
7, 950784, Note_on_c, 5, 76, 84
7, 951296, Note_on_c, 5, 76, 0
7, 951296, Note_on_c, 5, 78, 84
7, 951910, Note_on_c, 5, 78, 0
7, 952320, Note_on_c, 5, 74, 76
7, 952934, Note_on_c, 5, 74, 0
7, 969728, Note_on_c, 5, 73, 38
7, 970240, Note_on_c, 5, 73, 0
7, 970240, Note_on_c, 5, 74, 38
7, 970752, Note_on_c, 5, 74, 0
7, 970752, Note_on_c, 5, 71, 38
7, 971264, Note_on_c, 5, 71, 0
7, 971264, Note_on_c, 5, 73, 38
7, 971776, Note_on_c, 5, 73, 0
7, 971776, Note_on_c, 5, 74, 38
7, 972288, Note_on_c, 5, 74, 0
7, 972288, Note_on_c, 5, 76, 38
7, 972800, Note_on_c, 5, 76, 0
7, 972800, Note_on_c, 5, 73, 38
7, 973312, Note_on_c, 5, 73, 0
7, 973312, Note_on_c, 5, 74, 38
7, 973824, Note_on_c, 5, 74, 0
7, 973824, Note_on_c, 5, 76, 38
7, 974336, Note_on_c, 5, 76, 0
7, 974336, Note_on_c, 5, 78, 38
7, 974848, Note_on_c, 5, 78, 0
7, 974848, Note_on_c, 5, 74, 38
7, 975360, Note_on_c, 5, 74, 0
7, 975360, Note_on_c, 5, 76, 38
7, 975872, Note_on_c, 5, 76, 0
7, 975872, Note_on_c, 5, 78, 38
7, 976384, Note_on_c, 5, 78, 0
7, 976384, Note_on_c, 5, 79, 39
7, 976896, Note_on_c, 5, 79, 0
7, 976896, Note_on_c, 5, 76, 39
7, 977408, Note_on_c, 5, 76, 0
7, 977408, Note_on_c, 5, 78, 39
7, 977920, Note_on_c, 5, 78, 0
7, 977920, Note_on_c, 5, 74, 39
7, 978534, Note_on_c, 5, 74, 0
7, 978944, Note_on_c, 5, 74, 39
7, 979558, Note_on_c, 5, 74, 0
7, 979968, Note_on_c, 5, 76, 39
7, 980582, Note_on_c, 5, 76, 0
7, 980992, Note_on_c, 5, 76, 39
7, 981606, Note_on_c, 5, 76, 0
7, 982016, Note_on_c, 5, 78, 39
7, 982630, Note_on_c, 5, 78, 0
7, 983040, Note_on_c, 5, 78, 39
7, 983654, Note_on_c, 5, 78, 0
7, 984064, Note_on_c, 5, 79, 39
7, 984678, Note_on_c, 5, 79, 0
7, 985088, Note_on_c, 5, 67, 39
7, 985702, Note_on_c, 5, 67, 0
7, 986112, Note_on_c, 5, 79, 39
7, 986726, Note_on_c, 5, 79, 0
7, 987136, Note_on_c, 5, 79, 42
7, 987750, Note_on_c, 5, 79, 0
7, 988160, Note_on_c, 5, 79, 44
7, 988774, Note_on_c, 5, 79, 0
7, 989184, Note_on_c, 5, 79, 47
7, 989798, Note_on_c, 5, 79, 0
7, 990208, Note_on_c, 5, 78, 50
7, 990822, Note_on_c, 5, 78, 0
7, 991232, Note_on_c, 5, 78, 53
7, 991846, Note_on_c, 5, 78, 0
7, 992256, Note_on_c, 5, 76, 56
7, 992870, Note_on_c, 5, 76, 0
7, 993280, Note_on_c, 5, 69, 59
7, 993894, Note_on_c, 5, 69, 0
7, 994304, Note_on_c, 5, 81, 62
7, 994918, Note_on_c, 5, 81, 0
7, 995328, Note_on_c, 5, 81, 64
7, 995942, Note_on_c, 5, 81, 0
7, 996352, Note_on_c, 5, 81, 67
7, 996966, Note_on_c, 5, 81, 0
7, 997376, Note_on_c, 5, 81, 70
7, 997990, Note_on_c, 5, 81, 0
7, 998400, Note_on_c, 5, 79, 73
7, 999014, Note_on_c, 5, 79, 0
7, 999424, Note_on_c, 5, 79, 76
7, 1000038, Note_on_c, 5, 79, 0
7, 1000448, Note_on_c, 5, 78, 82
7, 1001062, Note_on_c, 5, 78, 0
7, 1001472, Note_on_c, 5, 74, 84
7, 1002086, Note_on_c, 5, 74, 0
7, 1002496, Note_on_c, 5, 69, 86
7, 1003008, Note_on_c, 5, 69, 0
7, 1003008, Note_on_c, 5, 71, 87
7, 1003520, Note_on_c, 5, 71, 0
7, 1003520, Note_on_c, 5, 67, 88
7, 1004032, Note_on_c, 5, 67, 0
7, 1004032, Note_on_c, 5, 69, 89
7, 1004544, Note_on_c, 5, 69, 0
7, 1004544, Note_on_c, 5, 71, 90
7, 1005056, Note_on_c, 5, 71, 0
7, 1005056, Note_on_c, 5, 73, 91
7, 1005568, Note_on_c, 5, 73, 0
7, 1005568, Note_on_c, 5, 69, 92
7, 1006080, Note_on_c, 5, 69, 0
7, 1006080, Note_on_c, 5, 71, 93
7, 1006592, Note_on_c, 5, 71, 0
7, 1006592, Note_on_c, 5, 73, 94
7, 1007104, Note_on_c, 5, 73, 0
7, 1007104, Note_on_c, 5, 74, 96
7, 1007616, Note_on_c, 5, 74, 0
7, 1007616, Note_on_c, 5, 71, 97
7, 1008128, Note_on_c, 5, 71, 0
7, 1008128, Note_on_c, 5, 73, 99
7, 1008640, Note_on_c, 5, 73, 0
7, 1008640, Note_on_c, 5, 74, 99
7, 1009152, Note_on_c, 5, 74, 0
7, 1009152, Note_on_c, 5, 76, 99
7, 1009664, Note_on_c, 5, 76, 0
7, 1009664, Note_on_c, 5, 73, 100
7, 1010176, Note_on_c, 5, 73, 0
7, 1010176, Note_on_c, 5, 74, 100
7, 1010688, Note_on_c, 5, 74, 0
7, 1010688, Note_on_c, 5, 76, 101
7, 1011200, Note_on_c, 5, 76, 0
7, 1011200, Note_on_c, 5, 78, 101
7, 1011712, Note_on_c, 5, 78, 0
7, 1011712, Note_on_c, 5, 74, 101
7, 1012224, Note_on_c, 5, 74, 0
7, 1012224, Note_on_c, 5, 76, 102
7, 1012736, Note_on_c, 5, 76, 0
7, 1012736, Note_on_c, 5, 78, 102
7, 1013350, Note_on_c, 5, 78, 0
7, 1013760, Note_on_c, 5, 76, 103
7, 1014272, Note_on_c, 5, 76, 0
7, 1014272, Note_on_c, 5, 74, 103
7, 1014784, Note_on_c, 5, 74, 0
7, 1014784, Note_on_c, 5, 78, 104
7, 1015296, Note_on_c, 5, 78, 0
7, 1015296, Note_on_c, 5, 76, 104
7, 1015808, Note_on_c, 5, 76, 0
7, 1015808, Note_on_c, 5, 74, 104
7, 1016320, Note_on_c, 5, 74, 0
7, 1016320, Note_on_c, 5, 73, 105
7, 1016832, Note_on_c, 5, 73, 0
7, 1016832, Note_on_c, 5, 74, 105
7, 1017446, Note_on_c, 5, 74, 0
7, 1017856, Note_on_c, 5, 69, 106
7, 1018470, Note_on_c, 5, 69, 0
7, 1018880, Note_on_c, 5, 78, 107
7, 1019494, Note_on_c, 5, 78, 0
7, 1019904, Note_on_c, 5, 74, 108
7, 1020518, Note_on_c, 5, 74, 0
7, 1020928, Note_on_c, 5, 81, 108
7, 1021542, Note_on_c, 5, 81, 0
7, 1021952, Note_on_c, 5, 79, 108
7, 1022208, Note_on_c, 5, 79, 0
7, 1022208, Note_on_c, 5, 78, 108
7, 1022464, Note_on_c, 5, 78, 0
7, 1022464, Note_on_c, 5, 76, 108
7, 1022720, Note_on_c, 5, 76, 0
7, 1022720, Note_on_c, 5, 74, 108
7, 1022976, Note_on_c, 5, 74, 0
7, 1022976, Note_on_c, 5, 78, 108
7, 1024000, Note_on_c, 5, 78, 0
7, 1024000, Note_on_c, 5, 76, 108
7, 1024614, Note_on_c, 5, 76, 0
7, 1025024, Note_on_c, 5, 74, 108
7, 1025638, Note_on_c, 5, 74, 0
7, 1033216, End_track
8, 0, Start_track
8, 0, Title_t, "Violin II"
8, 0, Program_c, 6, 48
8, 0, Control_c, 6, 121, 127
8, 0, Control_c, 6, 1, 5
8, 0, Control_c, 6, 10, 90
8, 598970, Control_c, 6, 7, 92
8, 600064, Note_on_c, 6, 57, 77
8, 600576, Note_on_c, 6, 57, 0
8, 600576, Note_on_c, 6, 62, 78
8, 601088, Note_on_c, 6, 62, 0
8, 601088, Note_on_c, 6, 66, 79
8, 601702, Note_on_c, 6, 66, 0
8, 604160, Note_on_c, 6, 62, 83
8, 604672, Note_on_c, 6, 62, 0
8, 604672, Note_on_c, 6, 66, 84
8, 605184, Note_on_c, 6, 66, 0
8, 605184, Note_on_c, 6, 69, 84
8, 605798, Note_on_c, 6, 69, 0
8, 608256, Note_on_c, 6, 66, 88
8, 608768, Note_on_c, 6, 66, 0
8, 608768, Note_on_c, 6, 69, 89
8, 609280, Note_on_c, 6, 69, 0
8, 609280, Note_on_c, 6, 74, 90
8, 609894, Note_on_c, 6, 74, 0
8, 610304, Note_on_c, 6, 78, 91
8, 610816, Note_on_c, 6, 78, 0
8, 610816, Note_on_c, 6, 74, 92
8, 611328, Note_on_c, 6, 74, 0
8, 611328, Note_on_c, 6, 69, 93
8, 611942, Note_on_c, 6, 69, 0
8, 612352, Note_on_c, 6, 74, 94
8, 612864, Note_on_c, 6, 74, 0
8, 612864, Note_on_c, 6, 69, 95
8, 613376, Note_on_c, 6, 69, 0
8, 613376, Note_on_c, 6, 66, 96
8, 613990, Note_on_c, 6, 66, 0
8, 614400, Note_on_c, 6, 69, 97
8, 614912, Note_on_c, 6, 69, 0
8, 614912, Note_on_c, 6, 74, 98
8, 615424, Note_on_c, 6, 74, 0
8, 615424, Note_on_c, 6, 78, 98
8, 616038, Note_on_c, 6, 78, 0
8, 616448, Note_on_c, 6, 78, 98
8, 617062, Note_on_c, 6, 78, 0
8, 617472, Note_on_c, 6, 78, 98
8, 618086, Note_on_c, 6, 78, 0
8, 618496, Note_on_c, 6, 78, 98
8, 619110, Note_on_c, 6, 78, 0
8, 619520, Note_on_c, 6, 78, 98
8, 620134, Note_on_c, 6, 78, 0
8, 620544, Note_on_c, 6, 76, 98
8, 621056, Note_on_c, 6, 76, 0
8, 621056, Note_on_c, 6, 78, 98
8, 621568, Note_on_c, 6, 78, 0
8, 621568, Note_on_c, 6, 79, 98
8, 622182, Note_on_c, 6, 79, 0
8, 622592, Note_on_c, 6, 78, 98
8, 623104, Note_on_c, 6, 78, 0
8, 623104, Note_on_c, 6, 76, 98
8, 623616, Note_on_c, 6, 76, 0
8, 623616, Note_on_c, 6, 78, 98
8, 624230, Note_on_c, 6, 78, 0
8, 624640, Note_on_c, 6, 74, 98
8, 625254, Note_on_c, 6, 74, 0
8, 626688, Note_on_c, 6, 78, 98
8, 627302, Note_on_c, 6, 78, 0
8, 627712, Note_on_c, 6, 76, 98
8, 628326, Note_on_c, 6, 76, 0
8, 628736, Note_on_c, 6, 74, 98
8, 629248, Note_on_c, 6, 74, 0
8, 629248, Note_on_c, 6, 76, 98
8, 629760, Note_on_c, 6, 76, 0
8, 629760, Note_on_c, 6, 73, 98
8, 630272, Note_on_c, 6, 73, 0
8, 630272, Note_on_c, 6, 76, 98
8, 630784, Note_on_c, 6, 76, 0
8, 630784, Note_on_c, 6, 74, 98
8, 631296, Note_on_c, 6, 74, 0
8, 631296, Note_on_c, 6, 73, 98
8, 631808, Note_on_c, 6, 73, 0
8, 631808, Note_on_c, 6, 74, 98
8, 632422, Note_on_c, 6, 74, 0
8, 632832, Note_on_c, 6, 76, 98
8, 633446, Note_on_c, 6, 76, 0
8, 633856, Note_on_c, 6, 78, 98
8, 634470, Note_on_c, 6, 78, 0
8, 634880, Note_on_c, 6, 73, 98
8, 635494, Note_on_c, 6, 73, 0
8, 635904, Note_on_c, 6, 74, 98
8, 636518, Note_on_c, 6, 74, 0
8, 637952, Note_on_c, 6, 76, 98
8, 638566, Note_on_c, 6, 76, 0
8, 640000, Note_on_c, 6, 76, 98
8, 640614, Note_on_c, 6, 76, 0
8, 642048, Note_on_c, 6, 76, 98
8, 642662, Note_on_c, 6, 76, 0
8, 644096, Note_on_c, 6, 76, 98
8, 644710, Note_on_c, 6, 76, 0
8, 645120, Note_on_c, 6, 74, 98
8, 645632, Note_on_c, 6, 74, 0
8, 645632, Note_on_c, 6, 73, 98
8, 646144, Note_on_c, 6, 73, 0
8, 646144, Note_on_c, 6, 74, 98
8, 646758, Note_on_c, 6, 74, 0
8, 647168, Note_on_c, 6, 71, 98
8, 647782, Note_on_c, 6, 71, 0
8, 648192, Note_on_c, 6, 73, 98
8, 648806, Note_on_c, 6, 73, 0
8, 649216, Note_on_c, 6, 64, 98
8, 649728, Note_on_c, 6, 64, 0
8, 649728, Note_on_c, 6, 69, 98
8, 650240, Note_on_c, 6, 69, 0
8, 650240, Note_on_c, 6, 73, 98
8, 650854, Note_on_c, 6, 73, 0
8, 651264, Note_on_c, 6, 69, 98
8, 651776, Note_on_c, 6, 69, 0
8, 651776, Note_on_c, 6, 73, 98
8, 652288, Note_on_c, 6, 73, 0
8, 652288, Note_on_c, 6, 76, 95
8, 652902, Note_on_c, 6, 76, 0
8, 653312, Note_on_c, 6, 64, 93
8, 653824, Note_on_c, 6, 64, 0
8, 653824, Note_on_c, 6, 69, 92
8, 654336, Note_on_c, 6, 69, 0
8, 654336, Note_on_c, 6, 73, 91
8, 654950, Note_on_c, 6, 73, 0
8, 655360, Note_on_c, 6, 69, 88
8, 655872, Note_on_c, 6, 69, 0
8, 655872, Note_on_c, 6, 73, 87
8, 656384, Note_on_c, 6, 73, 0
8, 656384, Note_on_c, 6, 74, 86
8, 656998, Note_on_c, 6, 74, 0
8, 657408, Note_on_c, 6, 69, 77
8, 657920, Note_on_c, 6, 69, 0
8, 657920, Note_on_c, 6, 74, 79
8, 658432, Note_on_c, 6, 74, 0
8, 658432, Note_on_c, 6, 78, 80
8, 659046, Note_on_c, 6, 78, 0
8, 659456, Note_on_c, 6, 74, 83
8, 659968, Note_on_c, 6, 74, 0
8, 659968, Note_on_c, 6, 78, 85
8, 660480, Note_on_c, 6, 78, 0
8, 660480, Note_on_c, 6, 81, 86
8, 661094, Note_on_c, 6, 81, 0
8, 661504, Note_on_c, 6, 69, 89
8, 662016, Note_on_c, 6, 69, 0
8, 662016, Note_on_c, 6, 74, 91
8, 662528, Note_on_c, 6, 74, 0
8, 662528, Note_on_c, 6, 78, 92
8, 663142, Note_on_c, 6, 78, 0
8, 663552, Note_on_c, 6, 74, 96
8, 664064, Note_on_c, 6, 74, 0
8, 664064, Note_on_c, 6, 78, 97
8, 664576, Note_on_c, 6, 78, 0
8, 664576, Note_on_c, 6, 81, 96
8, 666624, Note_on_c, 6, 81, 0
8, 698368, Note_on_c, 6, 78, 68
8, 698880, Note_on_c, 6, 78, 0
8, 698880, Note_on_c, 6, 74, 68
8, 699392, Note_on_c, 6, 74, 0
8, 699392, Note_on_c, 6, 69, 69
8, 700006, Note_on_c, 6, 69, 0
8, 700416, Note_on_c, 6, 74, 70
8, 700928, Note_on_c, 6, 74, 0
8, 700928, Note_on_c, 6, 69, 71
8, 701440, Note_on_c, 6, 69, 0
8, 701440, Note_on_c, 6, 66, 72
8, 702054, Note_on_c, 6, 66, 0
8, 706560, Note_on_c, 6, 76, 78
8, 707072, Note_on_c, 6, 76, 0
8, 707072, Note_on_c, 6, 73, 79
8, 707584, Note_on_c, 6, 73, 0
8, 707584, Note_on_c, 6, 69, 79
8, 708198, Note_on_c, 6, 69, 0
8, 708608, Note_on_c, 6, 73, 81
8, 709120, Note_on_c, 6, 73, 0
8, 709120, Note_on_c, 6, 69, 81
8, 709632, Note_on_c, 6, 69, 0
8, 709632, Note_on_c, 6, 64, 82
8, 710246, Note_on_c, 6, 64, 0
8, 714752, Note_on_c, 6, 74, 88
8, 715264, Note_on_c, 6, 74, 0
8, 715264, Note_on_c, 6, 69, 89
8, 715776, Note_on_c, 6, 69, 0
8, 715776, Note_on_c, 6, 66, 90
8, 716390, Note_on_c, 6, 66, 0
8, 716800, Note_on_c, 6, 69, 91
8, 717312, Note_on_c, 6, 69, 0
8, 717312, Note_on_c, 6, 66, 91
8, 717824, Note_on_c, 6, 66, 0
8, 717824, Note_on_c, 6, 62, 92
8, 718438, Note_on_c, 6, 62, 0
8, 722944, Note_on_c, 6, 73, 94
8, 723456, Note_on_c, 6, 73, 0
8, 723456, Note_on_c, 6, 69, 94
8, 723968, Note_on_c, 6, 69, 0
8, 723968, Note_on_c, 6, 64, 94
8, 724582, Note_on_c, 6, 64, 0
8, 724992, Note_on_c, 6, 69, 94
8, 725504, Note_on_c, 6, 69, 0
8, 725504, Note_on_c, 6, 64, 94
8, 726016, Note_on_c, 6, 64, 0
8, 726016, Note_on_c, 6, 61, 94
8, 726630, Note_on_c, 6, 61, 0
8, 731136, Note_on_c, 6, 57, 83
8, 731648, Note_on_c, 6, 57, 0
8, 731648, Note_on_c, 6, 62, 83
8, 732160, Note_on_c, 6, 62, 0
8, 732160, Note_on_c, 6, 66, 83
8, 732774, Note_on_c, 6, 66, 0
8, 735232, Note_on_c, 6, 62, 83
8, 735744, Note_on_c, 6, 62, 0
8, 735744, Note_on_c, 6, 66, 83
8, 736256, Note_on_c, 6, 66, 0
8, 736256, Note_on_c, 6, 69, 83
8, 736870, Note_on_c, 6, 69, 0
8, 739328, Note_on_c, 6, 66, 83
8, 739840, Note_on_c, 6, 66, 0
8, 739840, Note_on_c, 6, 69, 83
8, 740352, Note_on_c, 6, 69, 0
8, 740352, Note_on_c, 6, 74, 83
8, 740966, Note_on_c, 6, 74, 0
8, 741376, Note_on_c, 6, 78, 83
8, 741888, Note_on_c, 6, 78, 0
8, 741888, Note_on_c, 6, 74, 83
8, 742400, Note_on_c, 6, 74, 0
8, 742400, Note_on_c, 6, 69, 79
8, 743014, Note_on_c, 6, 69, 0
8, 743424, Note_on_c, 6, 74, 81
8, 743936, Note_on_c, 6, 74, 0
8, 743936, Note_on_c, 6, 69, 82
8, 744448, Note_on_c, 6, 69, 0
8, 744448, Note_on_c, 6, 66, 83
8, 745062, Note_on_c, 6, 66, 0
8, 745472, Note_on_c, 6, 69, 86
8, 745984, Note_on_c, 6, 69, 0
8, 745984, Note_on_c, 6, 74, 87
8, 746496, Note_on_c, 6, 74, 0
8, 746496, Note_on_c, 6, 78, 88
8, 747110, Note_on_c, 6, 78, 0
8, 747520, Note_on_c, 6, 78, 90
8, 748134, Note_on_c, 6, 78, 0
8, 748544, Note_on_c, 6, 78, 93
8, 749158, Note_on_c, 6, 78, 0
8, 749568, Note_on_c, 6, 78, 95
8, 750182, Note_on_c, 6, 78, 0
8, 750592, Note_on_c, 6, 78, 98
8, 751206, Note_on_c, 6, 78, 0
8, 751616, Note_on_c, 6, 76, 98
8, 752128, Note_on_c, 6, 76, 0
8, 752128, Note_on_c, 6, 78, 98
8, 752640, Note_on_c, 6, 78, 0
8, 752640, Note_on_c, 6, 79, 98
8, 753254, Note_on_c, 6, 79, 0
8, 753664, Note_on_c, 6, 78, 98
8, 754176, Note_on_c, 6, 78, 0
8, 754176, Note_on_c, 6, 76, 98
8, 754688, Note_on_c, 6, 76, 0
8, 754688, Note_on_c, 6, 78, 98
8, 755302, Note_on_c, 6, 78, 0
8, 755712, Note_on_c, 6, 74, 98
8, 756326, Note_on_c, 6, 74, 0
8, 757760, Note_on_c, 6, 78, 97
8, 758374, Note_on_c, 6, 78, 0
8, 758784, Note_on_c, 6, 76, 97
8, 759398, Note_on_c, 6, 76, 0
8, 759808, Note_on_c, 6, 74, 97
8, 760320, Note_on_c, 6, 74, 0
8, 760320, Note_on_c, 6, 76, 97
8, 760832, Note_on_c, 6, 76, 0
8, 760832, Note_on_c, 6, 73, 97
8, 761344, Note_on_c, 6, 73, 0
8, 761344, Note_on_c, 6, 76, 97
8, 761856, Note_on_c, 6, 76, 0
8, 761856, Note_on_c, 6, 74, 97
8, 762368, Note_on_c, 6, 74, 0
8, 762368, Note_on_c, 6, 73, 97
8, 762880, Note_on_c, 6, 73, 0
8, 762880, Note_on_c, 6, 74, 97
8, 763494, Note_on_c, 6, 74, 0
8, 763904, Note_on_c, 6, 69, 79
8, 764518, Note_on_c, 6, 69, 0
8, 796672, Note_on_c, 6, 69, 56
8, 797286, Note_on_c, 6, 69, 0
8, 797696, Note_on_c, 6, 69, 60
8, 798310, Note_on_c, 6, 69, 0
8, 798720, Note_on_c, 6, 69, 64
8, 799334, Note_on_c, 6, 69, 0
8, 799744, Note_on_c, 6, 74, 68
8, 800256, Note_on_c, 6, 74, 0
8, 800256, Note_on_c, 6, 76, 70
8, 800768, Note_on_c, 6, 76, 0
8, 800768, Note_on_c, 6, 73, 72
8, 801280, Note_on_c, 6, 73, 0
8, 801280, Note_on_c, 6, 74, 74
8, 801792, Note_on_c, 6, 74, 0
8, 801792, Note_on_c, 6, 71, 76
8, 802304, Note_on_c, 6, 71, 0
8, 802304, Note_on_c, 6, 73, 77
8, 802816, Note_on_c, 6, 73, 0
8, 802816, Note_on_c, 6, 69, 79
8, 803328, Note_on_c, 6, 69, 0
8, 803328, Note_on_c, 6, 71, 81
8, 803840, Note_on_c, 6, 71, 0
8, 803840, Note_on_c, 6, 73, 85
8, 804352, Note_on_c, 6, 73, 0
8, 804352, Note_on_c, 6, 74, 85
8, 804864, Note_on_c, 6, 74, 0
8, 804864, Note_on_c, 6, 76, 86
8, 805376, Note_on_c, 6, 76, 0
8, 805376, Note_on_c, 6, 73, 86
8, 805888, Note_on_c, 6, 73, 0
8, 805888, Note_on_c, 6, 74, 86
8, 806502, Note_on_c, 6, 74, 0
8, 806912, Note_on_c, 6, 68, 87
8, 807526, Note_on_c, 6, 68, 0
8, 807936, Note_on_c, 6, 76, 88
8, 808550, Note_on_c, 6, 76, 0
8, 808960, Note_on_c, 6, 74, 89
8, 809472, Note_on_c, 6, 74, 0
8, 809472, Note_on_c, 6, 73, 90
8, 809984, Note_on_c, 6, 73, 0
8, 809984, Note_on_c, 6, 74, 90
8, 810598, Note_on_c, 6, 74, 0
8, 811008, Note_on_c, 6, 71, 91
8, 811622, Note_on_c, 6, 71, 0
8, 812032, Note_on_c, 6, 73, 92
8, 812646, Note_on_c, 6, 73, 0
8, 815104, Note_on_c, 6, 57, 36
8, 815616, Note_on_c, 6, 57, 0
8, 815616, Note_on_c, 6, 61, 36
8, 816128, Note_on_c, 6, 61, 0
8, 816128, Note_on_c, 6, 64, 36
8, 816742, Note_on_c, 6, 64, 0
8, 819200, Note_on_c, 6, 61, 36
8, 819712, Note_on_c, 6, 61, 0
8, 819712, Note_on_c, 6, 64, 36
8, 820224, Note_on_c, 6, 64, 0
8, 820224, Note_on_c, 6, 69, 36
8, 820838, Note_on_c, 6, 69, 0
8, 821248, Note_on_c, 6, 61, 39
8, 821760, Note_on_c, 6, 61, 0
8, 821760, Note_on_c, 6, 64, 41
8, 822272, Note_on_c, 6, 64, 0
8, 822272, Note_on_c, 6, 69, 43
8, 822886, Note_on_c, 6, 69, 0
8, 823296, Note_on_c, 6, 64, 47
8, 823808, Note_on_c, 6, 64, 0
8, 823808, Note_on_c, 6, 69, 48
8, 824320, Note_on_c, 6, 69, 0
8, 824320, Note_on_c, 6, 73, 50
8, 824934, Note_on_c, 6, 73, 0
8, 825344, Note_on_c, 6, 64, 54
8, 825856, Note_on_c, 6, 64, 0
8, 825856, Note_on_c, 6, 69, 56
8, 826368, Note_on_c, 6, 69, 0
8, 826368, Note_on_c, 6, 73, 58
8, 826982, Note_on_c, 6, 73, 0
8, 827392, Note_on_c, 6, 69, 61
8, 827904, Note_on_c, 6, 69, 0
8, 827904, Note_on_c, 6, 73, 63
8, 828416, Note_on_c, 6, 73, 0
8, 828416, Note_on_c, 6, 76, 65
8, 829030, Note_on_c, 6, 76, 0
8, 829440, Note_on_c, 6, 73, 64
8, 830054, Note_on_c, 6, 73, 0
8, 830464, Note_on_c, 6, 73, 64
8, 831078, Note_on_c, 6, 73, 0
8, 831488, Note_on_c, 6, 73, 64
8, 832102, Note_on_c, 6, 73, 0
8, 832512, Note_on_c, 6, 73, 64
8, 833126, Note_on_c, 6, 73, 0
8, 833536, Note_on_c, 6, 69, 64
8, 834150, Note_on_c, 6, 69, 0
8, 834560, Note_on_c, 6, 69, 64
8, 835174, Note_on_c, 6, 69, 0
8, 835584, Note_on_c, 6, 69, 64
8, 836198, Note_on_c, 6, 69, 0
8, 836608, Note_on_c, 6, 69, 64
8, 837222, Note_on_c, 6, 69, 0
8, 837632, Note_on_c, 6, 73, 64
8, 838144, Note_on_c, 6, 73, 0
8, 838144, Note_on_c, 6, 76, 64
8, 838656, Note_on_c, 6, 76, 0
8, 838656, Note_on_c, 6, 81, 64
8, 839270, Note_on_c, 6, 81, 0
8, 839680, Note_on_c, 6, 73, 64
8, 840294, Note_on_c, 6, 73, 0
8, 840704, Note_on_c, 6, 71, 62
8, 841318, Note_on_c, 6, 71, 0
8, 841728, Note_on_c, 6, 69, 58
8, 842240, Note_on_c, 6, 69, 0
8, 842240, Note_on_c, 6, 71, 57
8, 842752, Note_on_c, 6, 71, 0
8, 842752, Note_on_c, 6, 68, 55
8, 843264, Note_on_c, 6, 68, 0
8, 843264, Note_on_c, 6, 71, 53
8, 843776, Note_on_c, 6, 71, 0
8, 843776, Note_on_c, 6, 69, 52
8, 844288, Note_on_c, 6, 69, 0
8, 844288, Note_on_c, 6, 68, 50
8, 844800, Note_on_c, 6, 68, 0
8, 844800, Note_on_c, 6, 69, 48
8, 845414, Note_on_c, 6, 69, 0
8, 845824, Note_on_c, 6, 64, 42
8, 846438, Note_on_c, 6, 64, 0
8, 878592, Note_on_c, 6, 73, 46
8, 879104, Note_on_c, 6, 73, 0
8, 879104, Note_on_c, 6, 69, 46
8, 879616, Note_on_c, 6, 69, 0
8, 879616, Note_on_c, 6, 64, 46
8, 880230, Note_on_c, 6, 64, 0
8, 880640, Note_on_c, 6, 69, 46
8, 881152, Note_on_c, 6, 69, 0
8, 881152, Note_on_c, 6, 64, 47
8, 881664, Note_on_c, 6, 64, 0
8, 881664, Note_on_c, 6, 61, 47
8, 882278, Note_on_c, 6, 61, 0
8, 886784, Note_on_c, 6, 71, 48
8, 887296, Note_on_c, 6, 71, 0
8, 887296, Note_on_c, 6, 68, 49
8, 887808, Note_on_c, 6, 68, 0
8, 887808, Note_on_c, 6, 64, 49
8, 888422, Note_on_c, 6, 64, 0
8, 888832, Note_on_c, 6, 68, 49
8, 889344, Note_on_c, 6, 68, 0
8, 889344, Note_on_c, 6, 64, 49
8, 889856, Note_on_c, 6, 64, 0
8, 889856, Note_on_c, 6, 59, 50
8, 890470, Note_on_c, 6, 59, 0
8, 894976, Note_on_c, 6, 69, 51
8, 895488, Note_on_c, 6, 69, 0
8, 895488, Note_on_c, 6, 64, 52
8, 896000, Note_on_c, 6, 64, 0
8, 896000, Note_on_c, 6, 61, 52
8, 896614, Note_on_c, 6, 61, 0
8, 897024, Note_on_c, 6, 64, 52
8, 897536, Note_on_c, 6, 64, 0
8, 897536, Note_on_c, 6, 61, 52
8, 898048, Note_on_c, 6, 61, 0
8, 898048, Note_on_c, 6, 57, 52
8, 898662, Note_on_c, 6, 57, 0
8, 903168, Note_on_c, 6, 78, 53
8, 903680, Note_on_c, 6, 78, 0
8, 903680, Note_on_c, 6, 74, 53
8, 904192, Note_on_c, 6, 74, 0
8, 904192, Note_on_c, 6, 69, 54
8, 904806, Note_on_c, 6, 69, 0
8, 905216, Note_on_c, 6, 74, 54
8, 905728, Note_on_c, 6, 74, 0
8, 905728, Note_on_c, 6, 69, 54
8, 906240, Note_on_c, 6, 69, 0
8, 906240, Note_on_c, 6, 66, 54
8, 906854, Note_on_c, 6, 66, 0
8, 907264, Note_on_c, 6, 69, 55
8, 907776, Note_on_c, 6, 69, 0
8, 907776, Note_on_c, 6, 74, 55
8, 908288, Note_on_c, 6, 74, 0
8, 908288, Note_on_c, 6, 78, 55
8, 908902, Note_on_c, 6, 78, 0
8, 909312, Note_on_c, 6, 74, 55
8, 909824, Note_on_c, 6, 74, 0
8, 909824, Note_on_c, 6, 78, 55
8, 910336, Note_on_c, 6, 78, 0
8, 910336, Note_on_c, 6, 79, 56
8, 910950, Note_on_c, 6, 79, 0
8, 913408, Note_on_c, 6, 71, 57
8, 913920, Note_on_c, 6, 71, 0
8, 913920, Note_on_c, 6, 71, 57
8, 914432, Note_on_c, 6, 71, 0
8, 914432, Note_on_c, 6, 71, 57
8, 915046, Note_on_c, 6, 71, 0
8, 917504, Note_on_c, 6, 73, 58
8, 918016, Note_on_c, 6, 73, 0
8, 918016, Note_on_c, 6, 76, 58
8, 918528, Note_on_c, 6, 76, 0
8, 918528, Note_on_c, 6, 78, 57
8, 919142, Note_on_c, 6, 78, 0
8, 921600, Note_on_c, 6, 69, 63
8, 922112, Note_on_c, 6, 69, 0
8, 922112, Note_on_c, 6, 69, 64
8, 922624, Note_on_c, 6, 69, 0
8, 922624, Note_on_c, 6, 69, 65
8, 923238, Note_on_c, 6, 69, 0
8, 925696, Note_on_c, 6, 71, 72
8, 926208, Note_on_c, 6, 71, 0
8, 926208, Note_on_c, 6, 74, 73
8, 926720, Note_on_c, 6, 74, 0
8, 926720, Note_on_c, 6, 76, 74
8, 927334, Note_on_c, 6, 76, 0
8, 929792, Note_on_c, 6, 76, 76
8, 930304, Note_on_c, 6, 76, 0
8, 930304, Note_on_c, 6, 74, 76
8, 930816, Note_on_c, 6, 74, 0
8, 930816, Note_on_c, 6, 76, 76
8, 931430, Note_on_c, 6, 76, 0
8, 933888, Note_on_c, 6, 73, 77
8, 934400, Note_on_c, 6, 73, 0
8, 934400, Note_on_c, 6, 74, 78
8, 934912, Note_on_c, 6, 74, 0
8, 934912, Note_on_c, 6, 76, 78
8, 935526, Note_on_c, 6, 76, 0
8, 937984, Note_on_c, 6, 69, 79
8, 938496, Note_on_c, 6, 69, 0
8, 938496, Note_on_c, 6, 73, 79
8, 939008, Note_on_c, 6, 73, 0
8, 939008, Note_on_c, 6, 76, 79
8, 939622, Note_on_c, 6, 76, 0
8, 942080, Note_on_c, 6, 73, 81
8, 942592, Note_on_c, 6, 73, 0
8, 942592, Note_on_c, 6, 76, 81
8, 943104, Note_on_c, 6, 76, 0
8, 943104, Note_on_c, 6, 74, 81
8, 943718, Note_on_c, 6, 74, 0
8, 944128, Note_on_c, 6, 69, 81
8, 944742, Note_on_c, 6, 69, 0
8, 945152, Note_on_c, 6, 74, 82
8, 945664, Note_on_c, 6, 74, 0
8, 945664, Note_on_c, 6, 76, 82
8, 946176, Note_on_c, 6, 76, 0
8, 946176, Note_on_c, 6, 78, 82
8, 946688, Note_on_c, 6, 78, 0
8, 946688, Note_on_c, 6, 79, 83
8, 947200, Note_on_c, 6, 79, 0
8, 947200, Note_on_c, 6, 78, 83
8, 947814, Note_on_c, 6, 78, 0
8, 948224, Note_on_c, 6, 76, 83
8, 948736, Note_on_c, 6, 76, 0
8, 948736, Note_on_c, 6, 74, 83
8, 949248, Note_on_c, 6, 74, 0
8, 949248, Note_on_c, 6, 76, 84
8, 949862, Note_on_c, 6, 76, 0
8, 950272, Note_on_c, 6, 74, 84
8, 950784, Note_on_c, 6, 74, 0
8, 950784, Note_on_c, 6, 73, 84
8, 951296, Note_on_c, 6, 73, 0
8, 951296, Note_on_c, 6, 74, 84
8, 951910, Note_on_c, 6, 74, 0
8, 952320, Note_on_c, 6, 69, 76
8, 952934, Note_on_c, 6, 69, 0
8, 961536, Note_on_c, 6, 62, 38
8, 962048, Note_on_c, 6, 62, 0
8, 962048, Note_on_c, 6, 64, 38
8, 962560, Note_on_c, 6, 64, 0
8, 962560, Note_on_c, 6, 61, 38
8, 963072, Note_on_c, 6, 61, 0
8, 963072, Note_on_c, 6, 62, 38
8, 963584, Note_on_c, 6, 62, 0
8, 963584, Note_on_c, 6, 64, 38
8, 964096, Note_on_c, 6, 64, 0
8, 964096, Note_on_c, 6, 66, 38
8, 964608, Note_on_c, 6, 66, 0
8, 964608, Note_on_c, 6, 62, 38
8, 965120, Note_on_c, 6, 62, 0
8, 965120, Note_on_c, 6, 64, 38
8, 965632, Note_on_c, 6, 64, 0
8, 965632, Note_on_c, 6, 66, 38
8, 966144, Note_on_c, 6, 66, 0
8, 966144, Note_on_c, 6, 67, 38
8, 966656, Note_on_c, 6, 67, 0
8, 966656, Note_on_c, 6, 64, 38
8, 967168, Note_on_c, 6, 64, 0
8, 967168, Note_on_c, 6, 66, 38
8, 967680, Note_on_c, 6, 66, 0
8, 967680, Note_on_c, 6, 67, 38
8, 968192, Note_on_c, 6, 67, 0
8, 968192, Note_on_c, 6, 69, 38
8, 968704, Note_on_c, 6, 69, 0
8, 968704, Note_on_c, 6, 66, 38
8, 969216, Note_on_c, 6, 66, 0
8, 969216, Note_on_c, 6, 67, 38
8, 969728, Note_on_c, 6, 67, 0
8, 969728, Note_on_c, 6, 64, 38
8, 970342, Note_on_c, 6, 64, 0
8, 970752, Note_on_c, 6, 64, 38
8, 971366, Note_on_c, 6, 64, 0
8, 971776, Note_on_c, 6, 66, 38
8, 972390, Note_on_c, 6, 66, 0
8, 972800, Note_on_c, 6, 66, 38
8, 973414, Note_on_c, 6, 66, 0
8, 973824, Note_on_c, 6, 67, 38
8, 974438, Note_on_c, 6, 67, 0
8, 974848, Note_on_c, 6, 67, 38
8, 975462, Note_on_c, 6, 67, 0
8, 975872, Note_on_c, 6, 69, 38
8, 976384, Note_on_c, 6, 69, 0
8, 976384, Note_on_c, 6, 71, 39
8, 976896, Note_on_c, 6, 71, 0
8, 976896, Note_on_c, 6, 67, 39
8, 977408, Note_on_c, 6, 67, 0
8, 977408, Note_on_c, 6, 69, 39
8, 977920, Note_on_c, 6, 69, 0
8, 977920, Note_on_c, 6, 66, 39
8, 978534, Note_on_c, 6, 66, 0
8, 978944, Note_on_c, 6, 66, 39
8, 979558, Note_on_c, 6, 66, 0
8, 979968, Note_on_c, 6, 64, 39
8, 980582, Note_on_c, 6, 64, 0
8, 980992, Note_on_c, 6, 64, 39
8, 981606, Note_on_c, 6, 64, 0
8, 982016, Note_on_c, 6, 57, 39
8, 982630, Note_on_c, 6, 57, 0
8, 983040, Note_on_c, 6, 57, 39
8, 983654, Note_on_c, 6, 57, 0
8, 984064, Note_on_c, 6, 59, 39
8, 984678, Note_on_c, 6, 59, 0
8, 985088, Note_on_c, 6, 71, 39
8, 985702, Note_on_c, 6, 71, 0
8, 986112, Note_on_c, 6, 76, 39
8, 986726, Note_on_c, 6, 76, 0
8, 987136, Note_on_c, 6, 76, 42
8, 987750, Note_on_c, 6, 76, 0
8, 988160, Note_on_c, 6, 76, 44
8, 988774, Note_on_c, 6, 76, 0
8, 989184, Note_on_c, 6, 76, 47
8, 989798, Note_on_c, 6, 76, 0
8, 990208, Note_on_c, 6, 74, 50
8, 990822, Note_on_c, 6, 74, 0
8, 991232, Note_on_c, 6, 74, 53
8, 991846, Note_on_c, 6, 74, 0
8, 992256, Note_on_c, 6, 74, 56
8, 992870, Note_on_c, 6, 74, 0
8, 993280, Note_on_c, 6, 73, 59
8, 993894, Note_on_c, 6, 73, 0
8, 994304, Note_on_c, 6, 64, 62
8, 994816, Note_on_c, 6, 64, 0
8, 994816, Note_on_c, 6, 66, 63
8, 995328, Note_on_c, 6, 66, 0
8, 995328, Note_on_c, 6, 62, 64
8, 995840, Note_on_c, 6, 62, 0
8, 995840, Note_on_c, 6, 64, 66
8, 996352, Note_on_c, 6, 64, 0
8, 996352, Note_on_c, 6, 66, 67
8, 996864, Note_on_c, 6, 66, 0
8, 996864, Note_on_c, 6, 67, 69
8, 997376, Note_on_c, 6, 67, 0
8, 997376, Note_on_c, 6, 64, 70
8, 997888, Note_on_c, 6, 64, 0
8, 997888, Note_on_c, 6, 66, 72
8, 998400, Note_on_c, 6, 66, 0
8, 998400, Note_on_c, 6, 67, 73
8, 998912, Note_on_c, 6, 67, 0
8, 998912, Note_on_c, 6, 69, 74
8, 999424, Note_on_c, 6, 69, 0
8, 999424, Note_on_c, 6, 66, 76
8, 999936, Note_on_c, 6, 66, 0
8, 999936, Note_on_c, 6, 67, 77
8, 1000448, Note_on_c, 6, 67, 0
8, 1000448, Note_on_c, 6, 69, 82
8, 1001062, Note_on_c, 6, 69, 0
8, 1001472, Note_on_c, 6, 66, 84
8, 1002086, Note_on_c, 6, 66, 0
8, 1002496, Note_on_c, 6, 74, 86
8, 1003110, Note_on_c, 6, 74, 0
8, 1003520, Note_on_c, 6, 74, 88
8, 1004134, Note_on_c, 6, 74, 0
8, 1004544, Note_on_c, 6, 74, 90
8, 1005158, Note_on_c, 6, 74, 0
8, 1005568, Note_on_c, 6, 74, 92
8, 1006182, Note_on_c, 6, 74, 0
8, 1006592, Note_on_c, 6, 73, 94
8, 1007104, Note_on_c, 6, 73, 0
8, 1007104, Note_on_c, 6, 71, 96
8, 1007616, Note_on_c, 6, 71, 0
8, 1007616, Note_on_c, 6, 69, 97
8, 1008128, Note_on_c, 6, 69, 0
8, 1008128, Note_on_c, 6, 67, 99
8, 1008640, Note_on_c, 6, 67, 0
8, 1008640, Note_on_c, 6, 66, 99
8, 1009152, Note_on_c, 6, 66, 0
8, 1009152, Note_on_c, 6, 69, 99
8, 1009664, Note_on_c, 6, 69, 0
8, 1009664, Note_on_c, 6, 67, 100
8, 1010176, Note_on_c, 6, 67, 0
8, 1010176, Note_on_c, 6, 66, 100
8, 1010688, Note_on_c, 6, 66, 0
8, 1010688, Note_on_c, 6, 64, 101
8, 1011302, Note_on_c, 6, 64, 0
8, 1011712, Note_on_c, 6, 76, 101
8, 1012326, Note_on_c, 6, 76, 0
8, 1012736, Note_on_c, 6, 74, 102
8, 1013350, Note_on_c, 6, 74, 0
8, 1013760, Note_on_c, 6, 76, 103
8, 1014272, Note_on_c, 6, 76, 0
8, 1014272, Note_on_c, 6, 78, 103
8, 1014784, Note_on_c, 6, 78, 0
8, 1014784, Note_on_c, 6, 79, 104
8, 1015398, Note_on_c, 6, 79, 0
8, 1015808, Note_on_c, 6, 76, 104
8, 1016422, Note_on_c, 6, 76, 0
8, 1016832, Note_on_c, 6, 78, 105
8, 1017446, Note_on_c, 6, 78, 0
8, 1017856, Note_on_c, 6, 74, 106
8, 1018470, Note_on_c, 6, 74, 0
8, 1018880, Note_on_c, 6, 74, 107
8, 1019494, Note_on_c, 6, 74, 0
8, 1019904, Note_on_c, 6, 74, 108
8, 1020518, Note_on_c, 6, 74, 0
8, 1020928, Note_on_c, 6, 74, 108
8, 1021542, Note_on_c, 6, 74, 0
8, 1021952, Note_on_c, 6, 74, 108
8, 1022566, Note_on_c, 6, 74, 0
8, 1022976, Note_on_c, 6, 74, 108
8, 1024000, Note_on_c, 6, 74, 0
8, 1024000, Note_on_c, 6, 73, 108
8, 1024614, Note_on_c, 6, 73, 0
8, 1025024, Note_on_c, 6, 69, 108
8, 1025638, Note_on_c, 6, 69, 0
8, 1033216, End_track
9, 0, Start_track
9, 0, Title_t, "Viola"
9, 0, Program_c, 7, 48
9, 0, Control_c, 7, 121, 127
9, 0, Control_c, 7, 1, 5
9, 0, Control_c, 7, 10, 50
9, 598970, Control_c, 7, 7, 93
9, 600064, Note_on_c, 7, 54, 77
9, 600576, Note_on_c, 7, 54, 0
9, 600576, Note_on_c, 7, 57, 78
9, 601088, Note_on_c, 7, 57, 0
9, 601088, Note_on_c, 7, 62, 79
9, 601702, Note_on_c, 7, 62, 0
9, 604160, Note_on_c, 7, 57, 83
9, 604672, Note_on_c, 7, 57, 0
9, 604672, Note_on_c, 7, 62, 84
9, 605184, Note_on_c, 7, 62, 0
9, 605184, Note_on_c, 7, 66, 84
9, 605798, Note_on_c, 7, 66, 0
9, 608256, Note_on_c, 7, 62, 88
9, 608768, Note_on_c, 7, 62, 0
9, 608768, Note_on_c, 7, 66, 89
9, 609280, Note_on_c, 7, 66, 0
9, 609280, Note_on_c, 7, 69, 90
9, 609894, Note_on_c, 7, 69, 0
9, 610304, Note_on_c, 7, 74, 91
9, 610816, Note_on_c, 7, 74, 0
9, 610816, Note_on_c, 7, 69, 92
9, 611328, Note_on_c, 7, 69, 0
9, 611328, Note_on_c, 7, 66, 93
9, 611942, Note_on_c, 7, 66, 0
9, 612352, Note_on_c, 7, 69, 94
9, 612864, Note_on_c, 7, 69, 0
9, 612864, Note_on_c, 7, 66, 95
9, 613376, Note_on_c, 7, 66, 0
9, 613376, Note_on_c, 7, 62, 96
9, 613990, Note_on_c, 7, 62, 0
9, 614400, Note_on_c, 7, 66, 97
9, 614912, Note_on_c, 7, 66, 0
9, 614912, Note_on_c, 7, 69, 98
9, 615424, Note_on_c, 7, 69, 0
9, 615424, Note_on_c, 7, 74, 98
9, 616038, Note_on_c, 7, 74, 0
9, 616448, Note_on_c, 7, 74, 98
9, 617062, Note_on_c, 7, 74, 0
9, 617472, Note_on_c, 7, 74, 98
9, 618086, Note_on_c, 7, 74, 0
9, 618496, Note_on_c, 7, 74, 98
9, 619110, Note_on_c, 7, 74, 0
9, 619520, Note_on_c, 7, 74, 98
9, 620134, Note_on_c, 7, 74, 0
9, 620544, Note_on_c, 7, 62, 98
9, 621158, Note_on_c, 7, 62, 0
9, 621568, Note_on_c, 7, 67, 98
9, 622182, Note_on_c, 7, 67, 0
9, 622592, Note_on_c, 7, 71, 98
9, 623206, Note_on_c, 7, 71, 0
9, 623616, Note_on_c, 7, 74, 98
9, 624230, Note_on_c, 7, 74, 0
9, 624640, Note_on_c, 7, 69, 98
9, 625254, Note_on_c, 7, 69, 0
9, 626688, Note_on_c, 7, 74, 98
9, 627302, Note_on_c, 7, 74, 0
9, 627712, Note_on_c, 7, 73, 98
9, 628326, Note_on_c, 7, 73, 0
9, 628736, Note_on_c, 7, 69, 98
9, 629350, Note_on_c, 7, 69, 0
9, 629760, Note_on_c, 7, 69, 98
9, 630374, Note_on_c, 7, 69, 0
9, 630784, Note_on_c, 7, 69, 98
9, 631398, Note_on_c, 7, 69, 0
9, 631808, Note_on_c, 7, 69, 98
9, 632422, Note_on_c, 7, 69, 0
9, 632832, Note_on_c, 7, 69, 98
9, 633446, Note_on_c, 7, 69, 0
9, 633856, Note_on_c, 7, 69, 98
9, 634470, Note_on_c, 7, 69, 0
9, 634880, Note_on_c, 7, 69, 98
9, 635494, Note_on_c, 7, 69, 0
9, 635904, Note_on_c, 7, 69, 98
9, 636518, Note_on_c, 7, 69, 0
9, 637952, Note_on_c, 7, 71, 98
9, 638566, Note_on_c, 7, 71, 0
9, 640000, Note_on_c, 7, 69, 98
9, 640614, Note_on_c, 7, 69, 0
9, 642048, Note_on_c, 7, 64, 98
9, 642662, Note_on_c, 7, 64, 0
9, 644096, Note_on_c, 7, 64, 98
9, 644710, Note_on_c, 7, 64, 0
9, 645120, Note_on_c, 7, 66, 98
9, 645734, Note_on_c, 7, 66, 0
9, 646144, Note_on_c, 7, 59, 98
9, 646758, Note_on_c, 7, 59, 0
9, 647168, Note_on_c, 7, 64, 98
9, 647782, Note_on_c, 7, 64, 0
9, 648192, Note_on_c, 7, 64, 98
9, 648806, Note_on_c, 7, 64, 0
9, 649216, Note_on_c, 7, 61, 98
9, 649728, Note_on_c, 7, 61, 0
9, 649728, Note_on_c, 7, 64, 98
9, 650240, Note_on_c, 7, 64, 0
9, 650240, Note_on_c, 7, 69, 98
9, 650854, Note_on_c, 7, 69, 0
9, 651264, Note_on_c, 7, 64, 98
9, 651776, Note_on_c, 7, 64, 0
9, 651776, Note_on_c, 7, 69, 98
9, 652288, Note_on_c, 7, 69, 0
9, 652288, Note_on_c, 7, 73, 95
9, 652902, Note_on_c, 7, 73, 0
9, 653312, Note_on_c, 7, 61, 93
9, 653824, Note_on_c, 7, 61, 0
9, 653824, Note_on_c, 7, 64, 92
9, 654336, Note_on_c, 7, 64, 0
9, 654336, Note_on_c, 7, 69, 91
9, 654950, Note_on_c, 7, 69, 0
9, 655360, Note_on_c, 7, 64, 88
9, 655872, Note_on_c, 7, 64, 0
9, 655872, Note_on_c, 7, 69, 87
9, 656384, Note_on_c, 7, 69, 0
9, 656384, Note_on_c, 7, 73, 86
9, 656998, Note_on_c, 7, 73, 0
9, 657408, Note_on_c, 7, 66, 77
9, 657920, Note_on_c, 7, 66, 0
9, 657920, Note_on_c, 7, 69, 79
9, 658432, Note_on_c, 7, 69, 0
9, 658432, Note_on_c, 7, 74, 80
9, 659046, Note_on_c, 7, 74, 0
9, 659456, Note_on_c, 7, 69, 83
9, 659968, Note_on_c, 7, 69, 0
9, 659968, Note_on_c, 7, 74, 85
9, 660480, Note_on_c, 7, 74, 0
9, 660480, Note_on_c, 7, 66, 86
9, 661094, Note_on_c, 7, 66, 0
9, 661504, Note_on_c, 7, 66, 89
9, 662016, Note_on_c, 7, 66, 0
9, 662016, Note_on_c, 7, 69, 91
9, 662528, Note_on_c, 7, 69, 0
9, 662528, Note_on_c, 7, 74, 92
9, 663142, Note_on_c, 7, 74, 0
9, 663552, Note_on_c, 7, 69, 96
9, 664064, Note_on_c, 7, 69, 0
9, 664064, Note_on_c, 7, 74, 97
9, 664576, Note_on_c, 7, 74, 0
9, 664576, Note_on_c, 7, 76, 96
9, 666624, Note_on_c, 7, 76, 0
9, 698368, Note_on_c, 7, 74, 68
9, 698880, Note_on_c, 7, 74, 0
9, 698880, Note_on_c, 7, 69, 68
9, 699392, Note_on_c, 7, 69, 0
9, 699392, Note_on_c, 7, 66, 69
9, 700006, Note_on_c, 7, 66, 0
9, 700416, Note_on_c, 7, 69, 70
9, 700928, Note_on_c, 7, 69, 0
9, 700928, Note_on_c, 7, 66, 71
9, 701440, Note_on_c, 7, 66, 0
9, 701440, Note_on_c, 7, 62, 72
9, 702054, Note_on_c, 7, 62, 0
9, 706560, Note_on_c, 7, 73, 78
9, 707072, Note_on_c, 7, 73, 0
9, 707072, Note_on_c, 7, 69, 79
9, 707584, Note_on_c, 7, 69, 0
9, 707584, Note_on_c, 7, 64, 79
9, 708198, Note_on_c, 7, 64, 0
9, 708608, Note_on_c, 7, 69, 81
9, 709120, Note_on_c, 7, 69, 0
9, 709120, Note_on_c, 7, 64, 81
9, 709632, Note_on_c, 7, 64, 0
9, 709632, Note_on_c, 7, 61, 82
9, 710246, Note_on_c, 7, 61, 0
9, 714752, Note_on_c, 7, 69, 88
9, 715264, Note_on_c, 7, 69, 0
9, 715264, Note_on_c, 7, 66, 89
9, 715776, Note_on_c, 7, 66, 0
9, 715776, Note_on_c, 7, 62, 90
9, 716390, Note_on_c, 7, 62, 0
9, 716800, Note_on_c, 7, 66, 91
9, 717312, Note_on_c, 7, 66, 0
9, 717312, Note_on_c, 7, 62, 91
9, 717824, Note_on_c, 7, 62, 0
9, 717824, Note_on_c, 7, 57, 92
9, 718438, Note_on_c, 7, 57, 0
9, 722944, Note_on_c, 7, 69, 94
9, 723456, Note_on_c, 7, 69, 0
9, 723456, Note_on_c, 7, 64, 94
9, 723968, Note_on_c, 7, 64, 0
9, 723968, Note_on_c, 7, 61, 94
9, 724582, Note_on_c, 7, 61, 0
9, 724992, Note_on_c, 7, 64, 94
9, 725504, Note_on_c, 7, 64, 0
9, 725504, Note_on_c, 7, 61, 94
9, 726016, Note_on_c, 7, 61, 0
9, 726016, Note_on_c, 7, 57, 94
9, 726630, Note_on_c, 7, 57, 0
9, 731136, Note_on_c, 7, 54, 83
9, 731648, Note_on_c, 7, 54, 0
9, 731648, Note_on_c, 7, 57, 83
9, 732160, Note_on_c, 7, 57, 0
9, 732160, Note_on_c, 7, 62, 83
9, 732774, Note_on_c, 7, 62, 0
9, 735232, Note_on_c, 7, 57, 83
9, 735744, Note_on_c, 7, 57, 0
9, 735744, Note_on_c, 7, 62, 83
9, 736256, Note_on_c, 7, 62, 0
9, 736256, Note_on_c, 7, 66, 83
9, 736870, Note_on_c, 7, 66, 0
9, 739328, Note_on_c, 7, 62, 83
9, 739840, Note_on_c, 7, 62, 0
9, 739840, Note_on_c, 7, 66, 83
9, 740352, Note_on_c, 7, 66, 0
9, 740352, Note_on_c, 7, 69, 83
9, 740966, Note_on_c, 7, 69, 0
9, 741376, Note_on_c, 7, 74, 83
9, 741888, Note_on_c, 7, 74, 0
9, 741888, Note_on_c, 7, 69, 83
9, 742400, Note_on_c, 7, 69, 0
9, 742400, Note_on_c, 7, 66, 79
9, 743014, Note_on_c, 7, 66, 0
9, 743424, Note_on_c, 7, 69, 81
9, 743936, Note_on_c, 7, 69, 0
9, 743936, Note_on_c, 7, 66, 82
9, 744448, Note_on_c, 7, 66, 0
9, 744448, Note_on_c, 7, 62, 83
9, 745062, Note_on_c, 7, 62, 0
9, 745472, Note_on_c, 7, 66, 86
9, 745984, Note_on_c, 7, 66, 0
9, 745984, Note_on_c, 7, 69, 87
9, 746496, Note_on_c, 7, 69, 0
9, 746496, Note_on_c, 7, 74, 88
9, 747110, Note_on_c, 7, 74, 0
9, 747520, Note_on_c, 7, 74, 90
9, 748134, Note_on_c, 7, 74, 0
9, 748544, Note_on_c, 7, 74, 93
9, 749158, Note_on_c, 7, 74, 0
9, 749568, Note_on_c, 7, 74, 95
9, 750182, Note_on_c, 7, 74, 0
9, 750592, Note_on_c, 7, 74, 98
9, 751206, Note_on_c, 7, 74, 0
9, 751616, Note_on_c, 7, 62, 98
9, 752230, Note_on_c, 7, 62, 0
9, 752640, Note_on_c, 7, 67, 98
9, 753254, Note_on_c, 7, 67, 0
9, 753664, Note_on_c, 7, 71, 98
9, 754278, Note_on_c, 7, 71, 0
9, 754688, Note_on_c, 7, 74, 98
9, 755302, Note_on_c, 7, 74, 0
9, 755712, Note_on_c, 7, 69, 98
9, 756326, Note_on_c, 7, 69, 0
9, 757760, Note_on_c, 7, 74, 97
9, 758374, Note_on_c, 7, 74, 0
9, 758784, Note_on_c, 7, 73, 97
9, 759398, Note_on_c, 7, 73, 0
9, 759808, Note_on_c, 7, 69, 97
9, 760422, Note_on_c, 7, 69, 0
9, 760832, Note_on_c, 7, 64, 97
9, 761446, Note_on_c, 7, 64, 0
9, 761856, Note_on_c, 7, 69, 97
9, 762470, Note_on_c, 7, 69, 0
9, 762880, Note_on_c, 7, 69, 97
9, 763494, Note_on_c, 7, 69, 0
9, 763904, Note_on_c, 7, 66, 79
9, 764518, Note_on_c, 7, 66, 0
9, 796672, Note_on_c, 7, 64, 56
9, 797286, Note_on_c, 7, 64, 0
9, 797696, Note_on_c, 7, 64, 60
9, 798310, Note_on_c, 7, 64, 0
9, 798720, Note_on_c, 7, 69, 64
9, 799334, Note_on_c, 7, 69, 0
9, 799744, Note_on_c, 7, 69, 68
9, 800358, Note_on_c, 7, 69, 0
9, 800768, Note_on_c, 7, 69, 72
9, 801382, Note_on_c, 7, 69, 0
9, 801792, Note_on_c, 7, 64, 76
9, 802406, Note_on_c, 7, 64, 0
9, 802816, Note_on_c, 7, 64, 79
9, 803430, Note_on_c, 7, 64, 0
9, 803840, Note_on_c, 7, 64, 85
9, 804454, Note_on_c, 7, 64, 0
9, 804864, Note_on_c, 7, 64, 86
9, 805478, Note_on_c, 7, 64, 0
9, 805888, Note_on_c, 7, 64, 86
9, 806502, Note_on_c, 7, 64, 0
9, 806912, Note_on_c, 7, 64, 87
9, 807526, Note_on_c, 7, 64, 0
9, 807936, Note_on_c, 7, 64, 88
9, 808550, Note_on_c, 7, 64, 0
9, 808960, Note_on_c, 7, 66, 89
9, 809574, Note_on_c, 7, 66, 0
9, 809984, Note_on_c, 7, 66, 90
9, 810598, Note_on_c, 7, 66, 0
9, 811008, Note_on_c, 7, 64, 91
9, 811622, Note_on_c, 7, 64, 0
9, 812032, Note_on_c, 7, 64, 92
9, 812646, Note_on_c, 7, 64, 0
9, 815104, Note_on_c, 7, 52, 36
9, 815616, Note_on_c, 7, 52, 0
9, 815616, Note_on_c, 7, 57, 36
9, 816128, Note_on_c, 7, 57, 0
9, 816128, Note_on_c, 7, 61, 36
9, 816742, Note_on_c, 7, 61, 0
9, 819200, Note_on_c, 7, 57, 36
9, 819712, Note_on_c, 7, 57, 0
9, 819712, Note_on_c, 7, 61, 36
9, 820224, Note_on_c, 7, 61, 0
9, 820224, Note_on_c, 7, 64, 36
9, 820838, Note_on_c, 7, 64, 0
9, 821248, Note_on_c, 7, 57, 39
9, 821760, Note_on_c, 7, 57, 0
9, 821760, Note_on_c, 7, 61, 41
9, 822272, Note_on_c, 7, 61, 0
9, 822272, Note_on_c, 7, 64, 43
9, 822886, Note_on_c, 7, 64, 0
9, 823296, Note_on_c, 7, 61, 47
9, 823808, Note_on_c, 7, 61, 0
9, 823808, Note_on_c, 7, 64, 48
9, 824320, Note_on_c, 7, 64, 0
9, 824320, Note_on_c, 7, 69, 50
9, 824934, Note_on_c, 7, 69, 0
9, 825344, Note_on_c, 7, 61, 54
9, 825856, Note_on_c, 7, 61, 0
9, 825856, Note_on_c, 7, 64, 56
9, 826368, Note_on_c, 7, 64, 0
9, 826368, Note_on_c, 7, 69, 58
9, 826982, Note_on_c, 7, 69, 0
9, 827392, Note_on_c, 7, 64, 61
9, 827904, Note_on_c, 7, 64, 0
9, 827904, Note_on_c, 7, 69, 63
9, 828416, Note_on_c, 7, 69, 0
9, 828416, Note_on_c, 7, 73, 65
9, 829030, Note_on_c, 7, 73, 0
9, 829440, Note_on_c, 7, 69, 64
9, 830054, Note_on_c, 7, 69, 0
9, 830464, Note_on_c, 7, 69, 64
9, 831078, Note_on_c, 7, 69, 0
9, 831488, Note_on_c, 7, 69, 64
9, 832102, Note_on_c, 7, 69, 0
9, 832512, Note_on_c, 7, 69, 64
9, 833126, Note_on_c, 7, 69, 0
9, 833536, Note_on_c, 7, 64, 64
9, 834150, Note_on_c, 7, 64, 0
9, 834560, Note_on_c, 7, 62, 64
9, 835174, Note_on_c, 7, 62, 0
9, 835584, Note_on_c, 7, 66, 64
9, 836198, Note_on_c, 7, 66, 0
9, 836608, Note_on_c, 7, 64, 64
9, 837222, Note_on_c, 7, 64, 0
9, 837632, Note_on_c, 7, 64, 64
9, 838144, Note_on_c, 7, 64, 0
9, 838144, Note_on_c, 7, 69, 64
9, 838656, Note_on_c, 7, 69, 0
9, 838656, Note_on_c, 7, 73, 64
9, 839270, Note_on_c, 7, 73, 0
9, 839680, Note_on_c, 7, 69, 64
9, 840294, Note_on_c, 7, 69, 0
9, 840704, Note_on_c, 7, 68, 62
9, 841318, Note_on_c, 7, 68, 0
9, 841728, Note_on_c, 7, 68, 58
9, 842342, Note_on_c, 7, 68, 0
9, 842752, Note_on_c, 7, 64, 55
9, 843366, Note_on_c, 7, 64, 0
9, 843776, Note_on_c, 7, 64, 52
9, 844390, Note_on_c, 7, 64, 0
9, 844800, Note_on_c, 7, 64, 48
9, 845414, Note_on_c, 7, 64, 0
9, 845824, Note_on_c, 7, 61, 42
9, 846438, Note_on_c, 7, 61, 0
9, 878592, Note_on_c, 7, 69, 46
9, 879104, Note_on_c, 7, 69, 0
9, 879104, Note_on_c, 7, 64, 46
9, 879616, Note_on_c, 7, 64, 0
9, 879616, Note_on_c, 7, 61, 46
9, 880230, Note_on_c, 7, 61, 0
9, 880640, Note_on_c, 7, 64, 46
9, 881152, Note_on_c, 7, 64, 0
9, 881152, Note_on_c, 7, 61, 47
9, 881664, Note_on_c, 7, 61, 0
9, 881664, Note_on_c, 7, 57, 47
9, 882278, Note_on_c, 7, 57, 0
9, 886784, Note_on_c, 7, 68, 48
9, 887296, Note_on_c, 7, 68, 0
9, 887296, Note_on_c, 7, 64, 49
9, 887808, Note_on_c, 7, 64, 0
9, 887808, Note_on_c, 7, 59, 49
9, 888422, Note_on_c, 7, 59, 0
9, 888832, Note_on_c, 7, 64, 49
9, 889344, Note_on_c, 7, 64, 0
9, 889344, Note_on_c, 7, 59, 49
9, 889856, Note_on_c, 7, 59, 0
9, 889856, Note_on_c, 7, 56, 50
9, 890470, Note_on_c, 7, 56, 0
9, 894976, Note_on_c, 7, 64, 51
9, 895488, Note_on_c, 7, 64, 0
9, 895488, Note_on_c, 7, 61, 52
9, 896000, Note_on_c, 7, 61, 0
9, 896000, Note_on_c, 7, 57, 52
9, 896614, Note_on_c, 7, 57, 0
9, 897024, Note_on_c, 7, 61, 52
9, 897536, Note_on_c, 7, 61, 0
9, 897536, Note_on_c, 7, 57, 52
9, 898048, Note_on_c, 7, 57, 0
9, 898048, Note_on_c, 7, 52, 52
9, 898662, Note_on_c, 7, 52, 0
9, 903168, Note_on_c, 7, 74, 53
9, 903680, Note_on_c, 7, 74, 0
9, 903680, Note_on_c, 7, 69, 53
9, 904192, Note_on_c, 7, 69, 0
9, 904192, Note_on_c, 7, 66, 54
9, 904806, Note_on_c, 7, 66, 0
9, 905216, Note_on_c, 7, 69, 54
9, 905728, Note_on_c, 7, 69, 0
9, 905728, Note_on_c, 7, 66, 54
9, 906240, Note_on_c, 7, 66, 0
9, 906240, Note_on_c, 7, 62, 54
9, 906854, Note_on_c, 7, 62, 0
9, 907264, Note_on_c, 7, 66, 55
9, 907776, Note_on_c, 7, 66, 0
9, 907776, Note_on_c, 7, 69, 55
9, 908288, Note_on_c, 7, 69, 0
9, 908288, Note_on_c, 7, 74, 55
9, 908902, Note_on_c, 7, 74, 0
9, 909312, Note_on_c, 7, 69, 55
9, 909824, Note_on_c, 7, 69, 0
9, 909824, Note_on_c, 7, 74, 55
9, 910336, Note_on_c, 7, 74, 0
9, 910336, Note_on_c, 7, 74, 56
9, 910950, Note_on_c, 7, 74, 0
9, 913408, Note_on_c, 7, 67, 57
9, 913920, Note_on_c, 7, 67, 0
9, 913920, Note_on_c, 7, 67, 57
9, 914432, Note_on_c, 7, 67, 0
9, 914432, Note_on_c, 7, 67, 57
9, 915046, Note_on_c, 7, 67, 0
9, 917504, Note_on_c, 7, 69, 58
9, 918016, Note_on_c, 7, 69, 0
9, 918016, Note_on_c, 7, 71, 58
9, 918528, Note_on_c, 7, 71, 0
9, 918528, Note_on_c, 7, 73, 57
9, 919142, Note_on_c, 7, 73, 0
9, 921600, Note_on_c, 7, 66, 63
9, 922112, Note_on_c, 7, 66, 0
9, 922112, Note_on_c, 7, 66, 64
9, 922624, Note_on_c, 7, 66, 0
9, 922624, Note_on_c, 7, 66, 65
9, 923238, Note_on_c, 7, 66, 0
9, 925696, Note_on_c, 7, 67, 72
9, 926208, Note_on_c, 7, 67, 0
9, 926208, Note_on_c, 7, 69, 73
9, 926720, Note_on_c, 7, 69, 0
9, 926720, Note_on_c, 7, 71, 74
9, 927334, Note_on_c, 7, 71, 0
9, 929792, Note_on_c, 7, 71, 76
9, 930304, Note_on_c, 7, 71, 0
9, 930304, Note_on_c, 7, 71, 76
9, 930816, Note_on_c, 7, 71, 0
9, 930816, Note_on_c, 7, 69, 76
9, 931430, Note_on_c, 7, 69, 0
9, 933888, Note_on_c, 7, 69, 77
9, 934400, Note_on_c, 7, 69, 0
9, 934400, Note_on_c, 7, 69, 78
9, 934912, Note_on_c, 7, 69, 0
9, 934912, Note_on_c, 7, 61, 78
9, 935526, Note_on_c, 7, 61, 0
9, 937984, Note_on_c, 7, 64, 79
9, 938496, Note_on_c, 7, 64, 0
9, 938496, Note_on_c, 7, 69, 79
9, 939008, Note_on_c, 7, 69, 0
9, 939008, Note_on_c, 7, 73, 79
9, 939622, Note_on_c, 7, 73, 0
9, 942080, Note_on_c, 7, 64, 81
9, 942592, Note_on_c, 7, 64, 0
9, 942592, Note_on_c, 7, 69, 81
9, 943104, Note_on_c, 7, 69, 0
9, 943104, Note_on_c, 7, 69, 81
9, 943718, Note_on_c, 7, 69, 0
9, 944128, Note_on_c, 7, 66, 81
9, 944742, Note_on_c, 7, 66, 0
9, 945152, Note_on_c, 7, 71, 82
9, 945766, Note_on_c, 7, 71, 0
9, 946176, Note_on_c, 7, 66, 82
9, 946688, Note_on_c, 7, 66, 0
9, 946688, Note_on_c, 7, 64, 83
9, 947200, Note_on_c, 7, 64, 0
9, 947200, Note_on_c, 7, 66, 83
9, 947814, Note_on_c, 7, 66, 0
9, 948224, Note_on_c, 7, 67, 83
9, 948736, Note_on_c, 7, 67, 0
9, 948736, Note_on_c, 7, 69, 83
9, 949248, Note_on_c, 7, 69, 0
9, 949248, Note_on_c, 7, 71, 84
9, 949862, Note_on_c, 7, 71, 0
9, 950272, Note_on_c, 7, 69, 84
9, 950886, Note_on_c, 7, 69, 0
9, 951296, Note_on_c, 7, 69, 84
9, 951910, Note_on_c, 7, 69, 0
9, 952320, Note_on_c, 7, 66, 76
9, 952934, Note_on_c, 7, 66, 0
9, 953344, Note_on_c, 7, 57, 38
9, 953856, Note_on_c, 7, 57, 0
9, 953856, Note_on_c, 7, 59, 38
9, 954368, Note_on_c, 7, 59, 0
9, 954368, Note_on_c, 7, 55, 38
9, 954880, Note_on_c, 7, 55, 0
9, 954880, Note_on_c, 7, 57, 38
9, 955392, Note_on_c, 7, 57, 0
9, 955392, Note_on_c, 7, 59, 38
9, 955904, Note_on_c, 7, 59, 0
9, 955904, Note_on_c, 7, 61, 38
9, 956416, Note_on_c, 7, 61, 0
9, 956416, Note_on_c, 7, 57, 38
9, 956928, Note_on_c, 7, 57, 0
9, 956928, Note_on_c, 7, 59, 38
9, 957440, Note_on_c, 7, 59, 0
9, 957440, Note_on_c, 7, 61, 38
9, 957952, Note_on_c, 7, 61, 0
9, 957952, Note_on_c, 7, 62, 38
9, 958464, Note_on_c, 7, 62, 0
9, 958464, Note_on_c, 7, 59, 38
9, 958976, Note_on_c, 7, 59, 0
9, 958976, Note_on_c, 7, 61, 38
9, 959488, Note_on_c, 7, 61, 0
9, 959488, Note_on_c, 7, 62, 38
9, 960000, Note_on_c, 7, 62, 0
9, 960000, Note_on_c, 7, 64, 38
9, 960512, Note_on_c, 7, 64, 0
9, 960512, Note_on_c, 7, 61, 38
9, 961024, Note_on_c, 7, 61, 0
9, 961024, Note_on_c, 7, 62, 38
9, 961536, Note_on_c, 7, 62, 0
9, 961536, Note_on_c, 7, 59, 38
9, 962150, Note_on_c, 7, 59, 0
9, 962560, Note_on_c, 7, 59, 38
9, 963174, Note_on_c, 7, 59, 0
9, 963584, Note_on_c, 7, 61, 38
9, 964198, Note_on_c, 7, 61, 0
9, 964608, Note_on_c, 7, 61, 38
9, 965222, Note_on_c, 7, 61, 0
9, 965632, Note_on_c, 7, 63, 38
9, 966246, Note_on_c, 7, 63, 0
9, 966656, Note_on_c, 7, 63, 38
9, 967270, Note_on_c, 7, 63, 0
9, 967680, Note_on_c, 7, 64, 38
9, 968192, Note_on_c, 7, 64, 0
9, 968192, Note_on_c, 7, 66, 38
9, 968704, Note_on_c, 7, 66, 0
9, 968704, Note_on_c, 7, 62, 38
9, 969216, Note_on_c, 7, 62, 0
9, 969216, Note_on_c, 7, 64, 38
9, 969728, Note_on_c, 7, 64, 0
9, 969728, Note_on_c, 7, 61, 38
9, 970342, Note_on_c, 7, 61, 0
9, 970752, Note_on_c, 7, 61, 38
9, 971366, Note_on_c, 7, 61, 0
9, 971776, Note_on_c, 7, 59, 38
9, 972390, Note_on_c, 7, 59, 0
9, 972800, Note_on_c, 7, 59, 38
9, 973414, Note_on_c, 7, 59, 0
9, 973824, Note_on_c, 7, 64, 38
9, 974438, Note_on_c, 7, 64, 0
9, 974848, Note_on_c, 7, 64, 38
9, 975462, Note_on_c, 7, 64, 0
9, 975872, Note_on_c, 7, 57, 38
9, 976486, Note_on_c, 7, 57, 0
9, 976896, Note_on_c, 7, 58, 39
9, 977510, Note_on_c, 7, 58, 0
9, 977920, Note_on_c, 7, 59, 39
9, 978432, Note_on_c, 7, 59, 0
9, 978432, Note_on_c, 7, 61, 39
9, 978944, Note_on_c, 7, 61, 0
9, 978944, Note_on_c, 7, 57, 39
9, 979456, Note_on_c, 7, 57, 0
9, 979456, Note_on_c, 7, 59, 39
9, 979968, Note_on_c, 7, 59, 0
9, 979968, Note_on_c, 7, 61, 39
9, 980480, Note_on_c, 7, 61, 0
9, 980480, Note_on_c, 7, 62, 39
9, 980992, Note_on_c, 7, 62, 0
9, 980992, Note_on_c, 7, 59, 39
9, 981504, Note_on_c, 7, 59, 0
9, 981504, Note_on_c, 7, 61, 39
9, 982016, Note_on_c, 7, 61, 0
9, 982016, Note_on_c, 7, 63, 39
9, 982528, Note_on_c, 7, 63, 0
9, 982528, Note_on_c, 7, 64, 39
9, 983040, Note_on_c, 7, 64, 0
9, 983040, Note_on_c, 7, 61, 39
9, 983552, Note_on_c, 7, 61, 0
9, 983552, Note_on_c, 7, 63, 39
9, 984064, Note_on_c, 7, 63, 0
9, 984064, Note_on_c, 7, 64, 39
9, 984576, Note_on_c, 7, 64, 0
9, 984576, Note_on_c, 7, 66, 39
9, 985088, Note_on_c, 7, 66, 0
9, 985088, Note_on_c, 7, 62, 39
9, 985600, Note_on_c, 7, 62, 0
9, 985600, Note_on_c, 7, 64, 39
9, 986112, Note_on_c, 7, 64, 0
9, 986112, Note_on_c, 7, 61, 39
9, 986624, Note_on_c, 7, 61, 0
9, 986624, Note_on_c, 7, 62, 40
9, 987136, Note_on_c, 7, 62, 0
9, 987136, Note_on_c, 7, 59, 42
9, 987648, Note_on_c, 7, 59, 0
9, 987648, Note_on_c, 7, 61, 43
9, 988160, Note_on_c, 7, 61, 0
9, 988160, Note_on_c, 7, 57, 44
9, 988672, Note_on_c, 7, 57, 0
9, 988672, Note_on_c, 7, 59, 46
9, 989184, Note_on_c, 7, 59, 0
9, 989184, Note_on_c, 7, 55, 47
9, 989696, Note_on_c, 7, 55, 0
9, 989696, Note_on_c, 7, 57, 49
9, 990208, Note_on_c, 7, 57, 0
9, 990208, Note_on_c, 7, 59, 50
9, 990720, Note_on_c, 7, 59, 0
9, 990720, Note_on_c, 7, 61, 52
9, 991232, Note_on_c, 7, 61, 0
9, 991232, Note_on_c, 7, 57, 53
9, 991744, Note_on_c, 7, 57, 0
9, 991744, Note_on_c, 7, 59, 54
9, 992256, Note_on_c, 7, 59, 0
9, 992256, Note_on_c, 7, 61, 56
9, 992768, Note_on_c, 7, 61, 0
9, 992768, Note_on_c, 7, 62, 57
9, 993280, Note_on_c, 7, 62, 0
9, 993280, Note_on_c, 7, 64, 59
9, 993792, Note_on_c, 7, 64, 0
9, 993792, Note_on_c, 7, 62, 60
9, 994304, Note_on_c, 7, 62, 0
9, 994304, Note_on_c, 7, 61, 62
9, 994816, Note_on_c, 7, 61, 0
9, 994816, Note_on_c, 7, 62, 63
9, 995328, Note_on_c, 7, 62, 0
9, 995328, Note_on_c, 7, 59, 64
9, 995840, Note_on_c, 7, 59, 0
9, 995840, Note_on_c, 7, 61, 66
9, 996352, Note_on_c, 7, 61, 0
9, 996352, Note_on_c, 7, 62, 67
9, 996864, Note_on_c, 7, 62, 0
9, 996864, Note_on_c, 7, 64, 69
9, 997376, Note_on_c, 7, 64, 0
9, 997376, Note_on_c, 7, 61, 70
9, 997888, Note_on_c, 7, 61, 0
9, 997888, Note_on_c, 7, 62, 72
9, 998400, Note_on_c, 7, 62, 0
9, 998400, Note_on_c, 7, 64, 73
9, 998912, Note_on_c, 7, 64, 0
9, 998912, Note_on_c, 7, 66, 74
9, 999424, Note_on_c, 7, 66, 0
9, 999424, Note_on_c, 7, 62, 76
9, 999936, Note_on_c, 7, 62, 0
9, 999936, Note_on_c, 7, 64, 77
9, 1000448, Note_on_c, 7, 64, 0
9, 1000448, Note_on_c, 7, 66, 82
9, 1000960, Note_on_c, 7, 66, 0
9, 1000960, Note_on_c, 7, 64, 83
9, 1001472, Note_on_c, 7, 64, 0
9, 1001472, Note_on_c, 7, 66, 84
9, 1001984, Note_on_c, 7, 66, 0
9, 1001984, Note_on_c, 7, 67, 85
9, 1002496, Note_on_c, 7, 67, 0
9, 1002496, Note_on_c, 7, 69, 86
9, 1003110, Note_on_c, 7, 69, 0
9, 1003520, Note_on_c, 7, 67, 88
9, 1004032, Note_on_c, 7, 67, 0
9, 1004032, Note_on_c, 7, 66, 89
9, 1004544, Note_on_c, 7, 66, 0
9, 1004544, Note_on_c, 7, 64, 90
9, 1005158, Note_on_c, 7, 64, 0
9, 1005568, Note_on_c, 7, 64, 92
9, 1006182, Note_on_c, 7, 64, 0
9, 1006592, Note_on_c, 7, 64, 94
9, 1007206, Note_on_c, 7, 64, 0
9, 1007616, Note_on_c, 7, 64, 97
9, 1008230, Note_on_c, 7, 64, 0
9, 1008640, Note_on_c, 7, 62, 99
9, 1009254, Note_on_c, 7, 62, 0
9, 1009664, Note_on_c, 7, 62, 100
9, 1010278, Note_on_c, 7, 62, 0
9, 1010688, Note_on_c, 7, 57, 101
9, 1011302, Note_on_c, 7, 57, 0
9, 1011712, Note_on_c, 7, 57, 101
9, 1012326, Note_on_c, 7, 57, 0
9, 1012736, Note_on_c, 7, 69, 102
9, 1013350, Note_on_c, 7, 69, 0
9, 1013760, Note_on_c, 7, 67, 103
9, 1014272, Note_on_c, 7, 67, 0
9, 1014272, Note_on_c, 7, 66, 103
9, 1014784, Note_on_c, 7, 66, 0
9, 1014784, Note_on_c, 7, 71, 104
9, 1015398, Note_on_c, 7, 71, 0
9, 1015808, Note_on_c, 7, 69, 104
9, 1016422, Note_on_c, 7, 69, 0
9, 1016832, Note_on_c, 7, 69, 105
9, 1017446, Note_on_c, 7, 69, 0
9, 1017856, Note_on_c, 7, 66, 106
9, 1018470, Note_on_c, 7, 66, 0
9, 1018880, Note_on_c, 7, 66, 107
9, 1019494, Note_on_c, 7, 66, 0
9, 1019904, Note_on_c, 7, 71, 108
9, 1020518, Note_on_c, 7, 71, 0
9, 1020928, Note_on_c, 7, 69, 108
9, 1021542, Note_on_c, 7, 69, 0
9, 1021952, Note_on_c, 7, 71, 108
9, 1022566, Note_on_c, 7, 71, 0
9, 1022976, Note_on_c, 7, 69, 108
9, 1024000, Note_on_c, 7, 69, 0
9, 1024000, Note_on_c, 7, 67, 108
9, 1024614, Note_on_c, 7, 67, 0
9, 1025024, Note_on_c, 7, 66, 108
9, 1025638, Note_on_c, 7, 66, 0
9, 1033216, End_track
10, 0, Start_track
10, 0, Title_t, "Cello"
10, 0, Program_c, 8, 48
10, 0, Control_c, 8, 121, 127
10, 0, Control_c, 8, 1, 5
10, 0, Control_c, 8, 10, 70
10, 1024, Note_on_c, 8, 54, 64
10, 1638, Note_on_c, 8, 54, 0
10, 2048, Note_on_c, 8, 56, 64
10, 2662, Note_on_c, 8, 56, 0
10, 3072, Note_on_c, 8, 57, 64
10, 3686, Note_on_c, 8, 57, 0
10, 4096, Note_on_c, 8, 54, 64
10, 4710, Note_on_c, 8, 54, 0
10, 5120, Note_on_c, 8, 59, 64
10, 5734, Note_on_c, 8, 59, 0
10, 6144, Note_on_c, 8, 54, 64
10, 6758, Note_on_c, 8, 54, 0
10, 7168, Note_on_c, 8, 50, 64
10, 7782, Note_on_c, 8, 50, 0
10, 8192, Note_on_c, 8, 47, 64
10, 8806, Note_on_c, 8, 47, 0
10, 9216, Note_on_c, 8, 54, 64
10, 9830, Note_on_c, 8, 54, 0
10, 10240, Note_on_c, 8, 52, 64
10, 10854, Note_on_c, 8, 52, 0
10, 11264, Note_on_c, 8, 50, 64
10, 11878, Note_on_c, 8, 50, 0
10, 12288, Note_on_c, 8, 49, 64
10, 12902, Note_on_c, 8, 49, 0
10, 13312, Note_on_c, 8, 47, 64
10, 13926, Note_on_c, 8, 47, 0
10, 14336, Note_on_c, 8, 45, 64
10, 14848, Note_on_c, 8, 45, 0
10, 14848, Note_on_c, 8, 47, 64
10, 15360, Note_on_c, 8, 47, 0
10, 15360, Note_on_c, 8, 49, 64
10, 15974, Note_on_c, 8, 49, 0
10, 16384, Note_on_c, 8, 61, 64
10, 16998, Note_on_c, 8, 61, 0
10, 17408, Note_on_c, 8, 62, 64
10, 18022, Note_on_c, 8, 62, 0
10, 18432, Note_on_c, 8, 50, 64
10, 18944, Note_on_c, 8, 50, 0
10, 18944, Note_on_c, 8, 49, 64
10, 19456, Note_on_c, 8, 49, 0
10, 19456, Note_on_c, 8, 50, 64
10, 20070, Note_on_c, 8, 50, 0
10, 20480, Note_on_c, 8, 47, 64
10, 21094, Note_on_c, 8, 47, 0
10, 21504, Note_on_c, 8, 54, 64
10, 22118, Note_on_c, 8, 54, 0
10, 22528, Note_on_c, 8, 53, 64
10, 23142, Note_on_c, 8, 53, 0
10, 23552, Note_on_c, 8, 54, 64
10, 24166, Note_on_c, 8, 54, 0
10, 24576, Note_on_c, 8, 57, 64
10, 25190, Note_on_c, 8, 57, 0
10, 25600, Note_on_c, 8, 56, 64
10, 26214, Note_on_c, 8, 56, 0
10, 26624, Note_on_c, 8, 54, 64
10, 27238, Note_on_c, 8, 54, 0
10, 27648, Note_on_c, 8, 56, 64
10, 28262, Note_on_c, 8, 56, 0
10, 28672, Note_on_c, 8, 49, 64
10, 29286, Note_on_c, 8, 49, 0
10, 29696, Note_on_c, 8, 50, 64
10, 30310, Note_on_c, 8, 50, 0
10, 30720, Note_on_c, 8, 49, 64
10, 31334, Note_on_c, 8, 49, 0
10, 31744, Note_on_c, 8, 50, 64
10, 32358, Note_on_c, 8, 50, 0
10, 32768, Note_on_c, 8, 38, 64
10, 33382, Note_on_c, 8, 38, 0
10, 33792, Note_on_c, 8, 37, 64
10, 34406, Note_on_c, 8, 37, 0
10, 34816, Note_on_c, 8, 42, 64
10, 35430, Note_on_c, 8, 42, 0
10, 35840, Note_on_c, 8, 54, 64
10, 36352, Note_on_c, 8, 54, 0
10, 36352, Note_on_c, 8, 53, 64
10, 36864, Note_on_c, 8, 53, 0
10, 36864, Note_on_c, 8, 54, 64
10, 38502, Note_on_c, 8, 54, 0
10, 38912, Note_on_c, 8, 54, 64
10, 39526, Note_on_c, 8, 54, 0
10, 39936, Note_on_c, 8, 53, 64
10, 40550, Note_on_c, 8, 53, 0
10, 40960, Note_on_c, 8, 51, 64
10, 41472, Note_on_c, 8, 51, 0
10, 41472, Note_on_c, 8, 53, 64
10, 41984, Note_on_c, 8, 53, 0
10, 41984, Note_on_c, 8, 54, 64
10, 42598, Note_on_c, 8, 54, 0
10, 43008, Note_on_c, 8, 56, 64
10, 43622, Note_on_c, 8, 56, 0
10, 44032, Note_on_c, 8, 57, 64
10, 44646, Note_on_c, 8, 57, 0
10, 45056, Note_on_c, 8, 54, 64
10, 45670, Note_on_c, 8, 54, 0
10, 46080, Note_on_c, 8, 59, 64
10, 46694, Note_on_c, 8, 59, 0
10, 47104, Note_on_c, 8, 47, 64
10, 47718, Note_on_c, 8, 47, 0
10, 48128, Note_on_c, 8, 59, 64
10, 48640, Note_on_c, 8, 59, 0
10, 48640, Note_on_c, 8, 57, 64
10, 49152, Note_on_c, 8, 57, 0
10, 49152, Note_on_c, 8, 59, 64
10, 50790, Note_on_c, 8, 59, 0
10, 51200, Note_on_c, 8, 61, 63
10, 51712, Note_on_c, 8, 61, 0
10, 51712, Note_on_c, 8, 59, 64
10, 52224, Note_on_c, 8, 59, 0
10, 52224, Note_on_c, 8, 57, 65
10, 52838, Note_on_c, 8, 57, 0
10, 53248, Note_on_c, 8, 56, 67
10, 53862, Note_on_c, 8, 56, 0
10, 54272, Note_on_c, 8, 57, 69
10, 54886, Note_on_c, 8, 57, 0
10, 55296, Note_on_c, 8, 56, 71
10, 55910, Note_on_c, 8, 56, 0
10, 56320, Note_on_c, 8, 54, 73
10, 56934, Note_on_c, 8, 54, 0
10, 57344, Note_on_c, 8, 52, 75
10, 57958, Note_on_c, 8, 52, 0
10, 58368, Note_on_c, 8, 50, 77
10, 58982, Note_on_c, 8, 50, 0
10, 59392, Note_on_c, 8, 49, 79
10, 60006, Note_on_c, 8, 49, 0
10, 60416, Note_on_c, 8, 50, 81
10, 62464, Note_on_c, 8, 50, 0
10, 62464, Note_on_c, 8, 49, 64
10, 64512, Note_on_c, 8, 49, 0
10, 65536, Note_on_c, 8, 49, 43
10, 66150, Note_on_c, 8, 49, 0
10, 66560, Note_on_c, 8, 50, 43
10, 68608, Note_on_c, 8, 50, 0
10, 69632, Note_on_c, 8, 51, 43
10, 70246, Note_on_c, 8, 51, 0
10, 70656, Note_on_c, 8, 52, 44
10, 71270, Note_on_c, 8, 52, 0
10, 71680, Note_on_c, 8, 53, 44
10, 72294, Note_on_c, 8, 53, 0
10, 72704, Note_on_c, 8, 54, 44
10, 73318, Note_on_c, 8, 54, 0
10, 73728, Note_on_c, 8, 50, 44
10, 74342, Note_on_c, 8, 50, 0
10, 74752, Note_on_c, 8, 47, 44
10, 75366, Note_on_c, 8, 47, 0
10, 75776, Note_on_c, 8, 50, 44
10, 76390, Note_on_c, 8, 50, 0
10, 76800, Note_on_c, 8, 49, 45
10, 77414, Note_on_c, 8, 49, 0
10, 77824, Note_on_c, 8, 47, 45
10, 78438, Note_on_c, 8, 47, 0
10, 78848, Note_on_c, 8, 46, 45
10, 79462, Note_on_c, 8, 46, 0
10, 79872, Note_on_c, 8, 42, 45
10, 80486, Note_on_c, 8, 42, 0
10, 80896, Note_on_c, 8, 47, 45
10, 81510, Note_on_c, 8, 47, 0
10, 81920, Note_on_c, 8, 51, 46
10, 82534, Note_on_c, 8, 51, 0
10, 82944, Note_on_c, 8, 52, 46
10, 83558, Note_on_c, 8, 52, 0
10, 83968, Note_on_c, 8, 49, 46
10, 84582, Note_on_c, 8, 49, 0
10, 84992, Note_on_c, 8, 54, 46
10, 85606, Note_on_c, 8, 54, 0
10, 86016, Note_on_c, 8, 52, 46
10, 86630, Note_on_c, 8, 52, 0
10, 87040, Note_on_c, 8, 51, 47
10, 87654, Note_on_c, 8, 51, 0
10, 88064, Note_on_c, 8, 47, 47
10, 88678, Note_on_c, 8, 47, 0
10, 89088, Note_on_c, 8, 52, 47
10, 89702, Note_on_c, 8, 52, 0
10, 90112, Note_on_c, 8, 56, 47
10, 90726, Note_on_c, 8, 56, 0
10, 91136, Note_on_c, 8, 57, 47
10, 91750, Note_on_c, 8, 57, 0
10, 92160, Note_on_c, 8, 54, 48
10, 92774, Note_on_c, 8, 54, 0
10, 93184, Note_on_c, 8, 59, 50
10, 93798, Note_on_c, 8, 59, 0
10, 94208, Note_on_c, 8, 57, 52
10, 94822, Note_on_c, 8, 57, 0
10, 95232, Note_on_c, 8, 56, 54
10, 95846, Note_on_c, 8, 56, 0
10, 96256, Note_on_c, 8, 52, 56
10, 96870, Note_on_c, 8, 52, 0
10, 97280, Note_on_c, 8, 57, 58
10, 97894, Note_on_c, 8, 57, 0
10, 98304, Note_on_c, 8, 57, 60
10, 99942, Note_on_c, 8, 57, 0
10, 100352, Note_on_c, 8, 50, 64
10, 100966, Note_on_c, 8, 50, 0
10, 101376, Note_on_c, 8, 55, 66
10, 104038, Note_on_c, 8, 55, 0
10, 104448, Note_on_c, 8, 54, 64
10, 104960, Note_on_c, 8, 54, 0
10, 104960, Note_on_c, 8, 52, 64
10, 105472, Note_on_c, 8, 52, 0
10, 105472, Note_on_c, 8, 54, 64
10, 106086, Note_on_c, 8, 54, 0
10, 106496, Note_on_c, 8, 50, 64
10, 107110, Note_on_c, 8, 50, 0
10, 107520, Note_on_c, 8, 52, 64
10, 109568, Note_on_c, 8, 52, 0
10, 109568, Note_on_c, 8, 45, 64
10, 111616, Note_on_c, 8, 45, 0
10, 111616, Note_on_c, 8, 50, 64
10, 112230, Note_on_c, 8, 50, 0
10, 112640, Note_on_c, 8, 54, 64
10, 113254, Note_on_c, 8, 54, 0
10, 113664, Note_on_c, 8, 55, 65
10, 114278, Note_on_c, 8, 55, 0
10, 114688, Note_on_c, 8, 50, 67
10, 115302, Note_on_c, 8, 50, 0
10, 115712, Note_on_c, 8, 52, 69
10, 116326, Note_on_c, 8, 52, 0
10, 116736, Note_on_c, 8, 49, 70
10, 117350, Note_on_c, 8, 49, 0
10, 117760, Note_on_c, 8, 54, 72
10, 118374, Note_on_c, 8, 54, 0
10, 118784, Note_on_c, 8, 52, 73
10, 119398, Note_on_c, 8, 52, 0
10, 119808, Note_on_c, 8, 51, 75
10, 120422, Note_on_c, 8, 51, 0
10, 120832, Note_on_c, 8, 52, 76
10, 121344, Note_on_c, 8, 52, 0
10, 121344, Note_on_c, 8, 54, 77
10, 121856, Note_on_c, 8, 54, 0
10, 121856, Note_on_c, 8, 55, 78
10, 122470, Note_on_c, 8, 55, 0
10, 122880, Note_on_c, 8, 54, 79
10, 123494, Note_on_c, 8, 54, 0
10, 123904, Note_on_c, 8, 53, 81
10, 125952, Note_on_c, 8, 53, 0
10, 125952, Note_on_c, 8, 54, 84
10, 128000, Note_on_c, 8, 54, 0
10, 128000, Note_on_c, 8, 47, 87
10, 128614, Note_on_c, 8, 47, 0
10, 129024, Note_on_c, 8, 49, 64
10, 129638, Note_on_c, 8, 49, 0
10, 130048, Note_on_c, 8, 50, 64
10, 130662, Note_on_c, 8, 50, 0
10, 131072, Note_on_c, 8, 47, 64
10, 131686, Note_on_c, 8, 47, 0
10, 132096, Note_on_c, 8, 54, 64
10, 132710, Note_on_c, 8, 54, 0
10, 133120, Note_on_c, 8, 57, 64
10, 133734, Note_on_c, 8, 57, 0
10, 134144, Note_on_c, 8, 62, 64
10, 134758, Note_on_c, 8, 62, 0
10, 135168, Note_on_c, 8, 61, 64
10, 135782, Note_on_c, 8, 61, 0
10, 136192, Note_on_c, 8, 59, 64
10, 136806, Note_on_c, 8, 59, 0
10, 137216, Note_on_c, 8, 56, 64
10, 137830, Note_on_c, 8, 56, 0
10, 138240, Note_on_c, 8, 61, 64
10, 138854, Note_on_c, 8, 61, 0
10, 139264, Note_on_c, 8, 49, 64
10, 139878, Note_on_c, 8, 49, 0
10, 140288, Note_on_c, 8, 54, 64
10, 140902, Note_on_c, 8, 54, 0
10, 141312, Note_on_c, 8, 59, 64
10, 141926, Note_on_c, 8, 59, 0
10, 142336, Note_on_c, 8, 57, 64
10, 142950, Note_on_c, 8, 57, 0
10, 143360, Note_on_c, 8, 56, 64
10, 143974, Note_on_c, 8, 56, 0
10, 144384, Note_on_c, 8, 57, 64
10, 144896, Note_on_c, 8, 57, 0
10, 144896, Note_on_c, 8, 59, 64
10, 145408, Note_on_c, 8, 59, 0
10, 145408, Note_on_c, 8, 61, 64
10, 147456, Note_on_c, 8, 61, 0
10, 147456, Note_on_c, 8, 59, 64
10, 149094, Note_on_c, 8, 59, 0
10, 149504, Note_on_c, 8, 57, 64
10, 150016, Note_on_c, 8, 57, 0
10, 150016, Note_on_c, 8, 56, 64
10, 150528, Note_on_c, 8, 56, 0
10, 150528, Note_on_c, 8, 61, 64
10, 151142, Note_on_c, 8, 61, 0
10, 151552, Note_on_c, 8, 59, 64
10, 152166, Note_on_c, 8, 59, 0
10, 152576, Note_on_c, 8, 57, 64
10, 153190, Note_on_c, 8, 57, 0
10, 153600, Note_on_c, 8, 59, 64
10, 154112, Note_on_c, 8, 59, 0
10, 154112, Note_on_c, 8, 61, 64
10, 154624, Note_on_c, 8, 61, 0
10, 154624, Note_on_c, 8, 62, 64
10, 155238, Note_on_c, 8, 62, 0
10, 155648, Note_on_c, 8, 59, 64
10, 156262, Note_on_c, 8, 59, 0
10, 156672, Note_on_c, 8, 61, 64
10, 157286, Note_on_c, 8, 61, 0
10, 157696, Note_on_c, 8, 53, 64
10, 158310, Note_on_c, 8, 53, 0
10, 158720, Note_on_c, 8, 54, 64
10, 159334, Note_on_c, 8, 54, 0
10, 159744, Note_on_c, 8, 57, 64
10, 160358, Note_on_c, 8, 57, 0
10, 160768, Note_on_c, 8, 56, 64
10, 161382, Note_on_c, 8, 56, 0
10, 161792, Note_on_c, 8, 54, 64
10, 162406, Note_on_c, 8, 54, 0
10, 162816, Note_on_c, 8, 56, 64
10, 163430, Note_on_c, 8, 56, 0
10, 163840, Note_on_c, 8, 44, 64
10, 164454, Note_on_c, 8, 44, 0
10, 164864, Note_on_c, 8, 45, 64
10, 165478, Note_on_c, 8, 45, 0
10, 165888, Note_on_c, 8, 57, 64
10, 166400, Note_on_c, 8, 57, 0
10, 166400, Note_on_c, 8, 56, 64
10, 166912, Note_on_c, 8, 56, 0
10, 166912, Note_on_c, 8, 57, 64
10, 167526, Note_on_c, 8, 57, 0
10, 167936, Note_on_c, 8, 45, 64
10, 168550, Note_on_c, 8, 45, 0
10, 168960, Note_on_c, 8, 44, 64
10, 169574, Note_on_c, 8, 44, 0
10, 169984, Note_on_c, 8, 49, 64
10, 170496, Note_on_c, 8, 49, 0
10, 170496, Note_on_c, 8, 48, 64
10, 171008, Note_on_c, 8, 48, 0
10, 171008, Note_on_c, 8, 49, 64
10, 175104, Note_on_c, 8, 49, 0
10, 175104, Note_on_c, 8, 48, 64
10, 177152, Note_on_c, 8, 48, 0
10, 177152, Note_on_c, 8, 49, 64
10, 177766, Note_on_c, 8, 49, 0
10, 178176, Note_on_c, 8, 52, 64
10, 178688, Note_on_c, 8, 52, 0
10, 178688, Note_on_c, 8, 51, 64
10, 179200, Note_on_c, 8, 51, 0
10, 179200, Note_on_c, 8, 49, 64
10, 179814, Note_on_c, 8, 49, 0
10, 180224, Note_on_c, 8, 51, 64
10, 180838, Note_on_c, 8, 51, 0
10, 181248, Note_on_c, 8, 52, 64
10, 181862, Note_on_c, 8, 52, 0
10, 182272, Note_on_c, 8, 56, 64
10, 182886, Note_on_c, 8, 56, 0
10, 183296, Note_on_c, 8, 52, 64
10, 183910, Note_on_c, 8, 52, 0
10, 184320, Note_on_c, 8, 49, 64
10, 184934, Note_on_c, 8, 49, 0
10, 185344, Note_on_c, 8, 54, 64
10, 185958, Note_on_c, 8, 54, 0
10, 186368, Note_on_c, 8, 56, 64
10, 186880, Note_on_c, 8, 56, 0
10, 186880, Note_on_c, 8, 57, 64
10, 187392, Note_on_c, 8, 57, 0
10, 187392, Note_on_c, 8, 59, 64
10, 188006, Note_on_c, 8, 59, 0
10, 188416, Note_on_c, 8, 47, 64
10, 189030, Note_on_c, 8, 47, 0
10, 189440, Note_on_c, 8, 52, 64
10, 190054, Note_on_c, 8, 52, 0
10, 190464, Note_on_c, 8, 40, 64
10, 191078, Note_on_c, 8, 40, 0
10, 191488, Note_on_c, 8, 52, 64
10, 194150, Note_on_c, 8, 52, 0
10, 194560, Note_on_c, 8, 45, 64
10, 195174, Note_on_c, 8, 45, 0
10, 195584, Note_on_c, 8, 50, 64
10, 196198, Note_on_c, 8, 50, 0
10, 196608, Note_on_c, 8, 47, 64
10, 197222, Note_on_c, 8, 47, 0
10, 197632, Note_on_c, 8, 52, 64
10, 198246, Note_on_c, 8, 52, 0
10, 198656, Note_on_c, 8, 54, 64
10, 199168, Note_on_c, 8, 54, 0
10, 199168, Note_on_c, 8, 56, 64
10, 199680, Note_on_c, 8, 56, 0
10, 199680, Note_on_c, 8, 57, 64
10, 200294, Note_on_c, 8, 57, 0
10, 200704, Note_on_c, 8, 54, 64
10, 201318, Note_on_c, 8, 54, 0
10, 201728, Note_on_c, 8, 59, 64
10, 202342, Note_on_c, 8, 59, 0
10, 202752, Note_on_c, 8, 47, 64
10, 203366, Note_on_c, 8, 47, 0
10, 203776, Note_on_c, 8, 59, 64
10, 206438, Note_on_c, 8, 59, 0
10, 206848, Note_on_c, 8, 57, 64
10, 207360, Note_on_c, 8, 57, 0
10, 207360, Note_on_c, 8, 56, 64
10, 207872, Note_on_c, 8, 56, 0
10, 207872, Note_on_c, 8, 57, 64
10, 210534, Note_on_c, 8, 57, 0
10, 210944, Note_on_c, 8, 50, 62
10, 211558, Note_on_c, 8, 50, 0
10, 211968, Note_on_c, 8, 55, 64
10, 214630, Note_on_c, 8, 55, 0
10, 215040, Note_on_c, 8, 54, 70
10, 215552, Note_on_c, 8, 54, 0
10, 215552, Note_on_c, 8, 52, 71
10, 216064, Note_on_c, 8, 52, 0
10, 216064, Note_on_c, 8, 54, 72
10, 216678, Note_on_c, 8, 54, 0
10, 217088, Note_on_c, 8, 50, 74
10, 217702, Note_on_c, 8, 50, 0
10, 218112, Note_on_c, 8, 57, 76
10, 218726, Note_on_c, 8, 57, 0
10, 219136, Note_on_c, 8, 55, 78
10, 219750, Note_on_c, 8, 55, 0
10, 220160, Note_on_c, 8, 57, 80
10, 220774, Note_on_c, 8, 57, 0
10, 221184, Note_on_c, 8, 45, 79
10, 221798, Note_on_c, 8, 45, 0
10, 222208, Note_on_c, 8, 50, 81
10, 222822, Note_on_c, 8, 50, 0
10, 223232, Note_on_c, 8, 52, 52
10, 223846, Note_on_c, 8, 52, 0
10, 224256, Note_on_c, 8, 54, 50
10, 224870, Note_on_c, 8, 54, 0
10, 225280, Note_on_c, 8, 50, 48
10, 225894, Note_on_c, 8, 50, 0
10, 226304, Note_on_c, 8, 57, 46
10, 226918, Note_on_c, 8, 57, 0
10, 227328, Note_on_c, 8, 56, 46
10, 227942, Note_on_c, 8, 56, 0
10, 228352, Note_on_c, 8, 54, 46
10, 228966, Note_on_c, 8, 54, 0
10, 229376, Note_on_c, 8, 56, 46
10, 229888, Note_on_c, 8, 56, 0
10, 229888, Note_on_c, 8, 57, 46
10, 230400, Note_on_c, 8, 57, 0
10, 230400, Note_on_c, 8, 59, 46
10, 231014, Note_on_c, 8, 59, 0
10, 231424, Note_on_c, 8, 61, 46
10, 231936, Note_on_c, 8, 61, 0
10, 231936, Note_on_c, 8, 62, 46
10, 232448, Note_on_c, 8, 62, 0
10, 232448, Note_on_c, 8, 64, 46
10, 233062, Note_on_c, 8, 64, 0
10, 233472, Note_on_c, 8, 52, 46
10, 234086, Note_on_c, 8, 52, 0
10, 234496, Note_on_c, 8, 54, 46
10, 235110, Note_on_c, 8, 54, 0
10, 235520, Note_on_c, 8, 42, 46
10, 236032, Note_on_c, 8, 42, 0
10, 236032, Note_on_c, 8, 40, 46
10, 236544, Note_on_c, 8, 40, 0
10, 236544, Note_on_c, 8, 42, 46
10, 237158, Note_on_c, 8, 42, 0
10, 237568, Note_on_c, 8, 54, 46
10, 238182, Note_on_c, 8, 54, 0
10, 238592, Note_on_c, 8, 52, 46
10, 239206, Note_on_c, 8, 52, 0
10, 239616, Note_on_c, 8, 45, 46
10, 240230, Note_on_c, 8, 45, 0
10, 240640, Note_on_c, 8, 57, 46
10, 243302, Note_on_c, 8, 57, 0
10, 243712, Note_on_c, 8, 56, 46
10, 244224, Note_on_c, 8, 56, 0
10, 244224, Note_on_c, 8, 54, 46
10, 244736, Note_on_c, 8, 54, 0
10, 244736, Note_on_c, 8, 56, 46
10, 245350, Note_on_c, 8, 56, 0
10, 245760, Note_on_c, 8, 52, 46
10, 246374, Note_on_c, 8, 52, 0
10, 246784, Note_on_c, 8, 57, 46
10, 247398, Note_on_c, 8, 57, 0
10, 247808, Note_on_c, 8, 54, 46
10, 248422, Note_on_c, 8, 54, 0
10, 248832, Note_on_c, 8, 59, 46
10, 249446, Note_on_c, 8, 59, 0
10, 249856, Note_on_c, 8, 57, 46
10, 250470, Note_on_c, 8, 57, 0
10, 250880, Note_on_c, 8, 56, 46
10, 251494, Note_on_c, 8, 56, 0
10, 251904, Note_on_c, 8, 52, 46
10, 252518, Note_on_c, 8, 52, 0
10, 252928, Note_on_c, 8, 57, 46
10, 255590, Note_on_c, 8, 57, 0
10, 256000, Note_on_c, 8, 51, 46
10, 256614, Note_on_c, 8, 51, 0
10, 257024, Note_on_c, 8, 56, 46
10, 259686, Note_on_c, 8, 56, 0
10, 260096, Note_on_c, 8, 54, 46
10, 260608, Note_on_c, 8, 54, 0
10, 260608, Note_on_c, 8, 52, 46
10, 261120, Note_on_c, 8, 52, 0
10, 261120, Note_on_c, 8, 54, 46
10, 261734, Note_on_c, 8, 54, 0
10, 262144, Note_on_c, 8, 47, 46
10, 262758, Note_on_c, 8, 47, 0
10, 263168, Note_on_c, 8, 52, 47
10, 263782, Note_on_c, 8, 52, 0
10, 264192, Note_on_c, 8, 52, 49
10, 264806, Note_on_c, 8, 52, 0
10, 265216, Note_on_c, 8, 53, 50
10, 265830, Note_on_c, 8, 53, 0
10, 266240, Note_on_c, 8, 53, 52
10, 266854, Note_on_c, 8, 53, 0
10, 267264, Note_on_c, 8, 54, 54
10, 267878, Note_on_c, 8, 54, 0
10, 268288, Note_on_c, 8, 54, 56
10, 268902, Note_on_c, 8, 54, 0
10, 269312, Note_on_c, 8, 55, 57
10, 269926, Note_on_c, 8, 55, 0
10, 270336, Note_on_c, 8, 55, 59
10, 270950, Note_on_c, 8, 55, 0
10, 271360, Note_on_c, 8, 56, 61
10, 271974, Note_on_c, 8, 56, 0
10, 272384, Note_on_c, 8, 56, 62
10, 272998, Note_on_c, 8, 56, 0
10, 273408, Note_on_c, 8, 56, 64
10, 274022, Note_on_c, 8, 56, 0
10, 274432, Note_on_c, 8, 56, 66
10, 275046, Note_on_c, 8, 56, 0
10, 275456, Note_on_c, 8, 55, 68
10, 276070, Note_on_c, 8, 55, 0
10, 276480, Note_on_c, 8, 55, 69
10, 277094, Note_on_c, 8, 55, 0
10, 277504, Note_on_c, 8, 56, 71
10, 278118, Note_on_c, 8, 56, 0
10, 278528, Note_on_c, 8, 56, 73
10, 279142, Note_on_c, 8, 56, 0
10, 279552, Note_on_c, 8, 49, 50
10, 296550, Note_on_c, 8, 49, 0
10, 296960, Note_on_c, 8, 61, 48
10, 297574, Note_on_c, 8, 61, 0
10, 297984, Note_on_c, 8, 59, 48
10, 298598, Note_on_c, 8, 59, 0
10, 299008, Note_on_c, 8, 57, 48
10, 299622, Note_on_c, 8, 57, 0
10, 300032, Note_on_c, 8, 56, 48
10, 300646, Note_on_c, 8, 56, 0
10, 301056, Note_on_c, 8, 44, 48
10, 301670, Note_on_c, 8, 44, 0
10, 302080, Note_on_c, 8, 42, 48
10, 302694, Note_on_c, 8, 42, 0
10, 303104, Note_on_c, 8, 40, 48
10, 303718, Note_on_c, 8, 40, 0
10, 304128, Note_on_c, 8, 47, 48
10, 304742, Note_on_c, 8, 47, 0
10, 305152, Note_on_c, 8, 59, 48
10, 305766, Note_on_c, 8, 59, 0
10, 306176, Note_on_c, 8, 58, 48
10, 306790, Note_on_c, 8, 58, 0
10, 307200, Note_on_c, 8, 56, 48
10, 307814, Note_on_c, 8, 56, 0
10, 308224, Note_on_c, 8, 58, 48
10, 308838, Note_on_c, 8, 58, 0
10, 309248, Note_on_c, 8, 54, 48
10, 309862, Note_on_c, 8, 54, 0
10, 310272, Note_on_c, 8, 56, 48
10, 310886, Note_on_c, 8, 56, 0
10, 311296, Note_on_c, 8, 58, 48
10, 311910, Note_on_c, 8, 58, 0
10, 312320, Note_on_c, 8, 59, 48
10, 312934, Note_on_c, 8, 59, 0
10, 313344, Note_on_c, 8, 47, 48
10, 313856, Note_on_c, 8, 47, 0
10, 313856, Note_on_c, 8, 46, 48
10, 314368, Note_on_c, 8, 46, 0
10, 314368, Note_on_c, 8, 47, 48
10, 314982, Note_on_c, 8, 47, 0
10, 315392, Note_on_c, 8, 49, 48
10, 316006, Note_on_c, 8, 49, 0
10, 316416, Note_on_c, 8, 50, 48
10, 317030, Note_on_c, 8, 50, 0
10, 317440, Note_on_c, 8, 49, 48
10, 318054, Note_on_c, 8, 49, 0
10, 318464, Note_on_c, 8, 50, 48
10, 319078, Note_on_c, 8, 50, 0
10, 319488, Note_on_c, 8, 52, 48
10, 320102, Note_on_c, 8, 52, 0
10, 320512, Note_on_c, 8, 54, 48
10, 321126, Note_on_c, 8, 54, 0
10, 321536, Note_on_c, 8, 42, 48
10, 322048, Note_on_c, 8, 42, 0
10, 322048, Note_on_c, 8, 41, 48
10, 322560, Note_on_c, 8, 41, 0
10, 322560, Note_on_c, 8, 42, 48
10, 323174, Note_on_c, 8, 42, 0
10, 323584, Note_on_c, 8, 44, 48
10, 324198, Note_on_c, 8, 44, 0
10, 324608, Note_on_c, 8, 45, 48
10, 325222, Note_on_c, 8, 45, 0
10, 325632, Note_on_c, 8, 44, 48
10, 326246, Note_on_c, 8, 44, 0
10, 326656, Note_on_c, 8, 45, 48
10, 327270, Note_on_c, 8, 45, 0
10, 327680, Note_on_c, 8, 47, 48
10, 328294, Note_on_c, 8, 47, 0
10, 328704, Note_on_c, 8, 49, 48
10, 329318, Note_on_c, 8, 49, 0
10, 329728, Note_on_c, 8, 47, 49
10, 330342, Note_on_c, 8, 47, 0
10, 330752, Note_on_c, 8, 49, 50
10, 331366, Note_on_c, 8, 49, 0
10, 331776, Note_on_c, 8, 51, 51
10, 332390, Note_on_c, 8, 51, 0
10, 332800, Note_on_c, 8, 52, 52
10, 333414, Note_on_c, 8, 52, 0
10, 333824, Note_on_c, 8, 49, 53
10, 334438, Note_on_c, 8, 49, 0
10, 334848, Note_on_c, 8, 46, 54
10, 335462, Note_on_c, 8, 46, 0
10, 335872, Note_on_c, 8, 54, 55
10, 336486, Note_on_c, 8, 54, 0
10, 336896, Note_on_c, 8, 59, 56
10, 337510, Note_on_c, 8, 59, 0
10, 337920, Note_on_c, 8, 47, 58
10, 339968, Note_on_c, 8, 47, 0
10, 339968, Note_on_c, 8, 46, 60
10, 340480, Note_on_c, 8, 46, 0
10, 340480, Note_on_c, 8, 44, 60
10, 340992, Note_on_c, 8, 44, 0
10, 340992, Note_on_c, 8, 46, 61
10, 341606, Note_on_c, 8, 46, 0
10, 342016, Note_on_c, 8, 54, 62
10, 344064, Note_on_c, 8, 54, 0
10, 344064, Note_on_c, 8, 53, 64
10, 344576, Note_on_c, 8, 53, 0
10, 344576, Note_on_c, 8, 51, 65
10, 345088, Note_on_c, 8, 51, 0
10, 345088, Note_on_c, 8, 53, 65
10, 345702, Note_on_c, 8, 53, 0
10, 346112, Note_on_c, 8, 49, 66
10, 346726, Note_on_c, 8, 49, 0
10, 347136, Note_on_c, 8, 54, 67
10, 347750, Note_on_c, 8, 54, 0
10, 348160, Note_on_c, 8, 52, 68
10, 348774, Note_on_c, 8, 52, 0
10, 349184, Note_on_c, 8, 51, 69
10, 349798, Note_on_c, 8, 51, 0
10, 350208, Note_on_c, 8, 47, 71
10, 350822, Note_on_c, 8, 47, 0
10, 351232, Note_on_c, 8, 52, 72
10, 353894, Note_on_c, 8, 52, 0
10, 354304, Note_on_c, 8, 51, 75
10, 354816, Note_on_c, 8, 51, 0
10, 354816, Note_on_c, 8, 49, 75
10, 355328, Note_on_c, 8, 49, 0
10, 355328, Note_on_c, 8, 51, 76
10, 355942, Note_on_c, 8, 51, 0
10, 356352, Note_on_c, 8, 44, 77
10, 356966, Note_on_c, 8, 44, 0
10, 357376, Note_on_c, 8, 49, 78
10, 357990, Note_on_c, 8, 49, 0
10, 358400, Note_on_c, 8, 56, 43
10, 359014, Note_on_c, 8, 56, 0
10, 359424, Note_on_c, 8, 61, 43
10, 362086, Note_on_c, 8, 61, 0
10, 362496, Note_on_c, 8, 54, 43
10, 363110, Note_on_c, 8, 54, 0
10, 363520, Note_on_c, 8, 59, 43
10, 366182, Note_on_c, 8, 59, 0
10, 366592, Note_on_c, 8, 57, 43
10, 367104, Note_on_c, 8, 57, 0
10, 367104, Note_on_c, 8, 56, 43
10, 367616, Note_on_c, 8, 56, 0
10, 367616, Note_on_c, 8, 57, 43
10, 368230, Note_on_c, 8, 57, 0
10, 368640, Note_on_c, 8, 54, 43
10, 369254, Note_on_c, 8, 54, 0
10, 369664, Note_on_c, 8, 56, 43
10, 371712, Note_on_c, 8, 56, 0
10, 371712, Note_on_c, 8, 49, 43
10, 373760, Note_on_c, 8, 49, 0
10, 373760, Note_on_c, 8, 54, 43
10, 374374, Note_on_c, 8, 54, 0
10, 374784, Note_on_c, 8, 56, 43
10, 375398, Note_on_c, 8, 56, 0
10, 375808, Note_on_c, 8, 57, 43
10, 376422, Note_on_c, 8, 57, 0
10, 376832, Note_on_c, 8, 54, 43
10, 377446, Note_on_c, 8, 54, 0
10, 377856, Note_on_c, 8, 59, 43
10, 378470, Note_on_c, 8, 59, 0
10, 378880, Note_on_c, 8, 62, 43
10, 379392, Note_on_c, 8, 62, 0
10, 379392, Note_on_c, 8, 61, 43
10, 379904, Note_on_c, 8, 61, 0
10, 379904, Note_on_c, 8, 59, 43
10, 380518, Note_on_c, 8, 59, 0
10, 380928, Note_on_c, 8, 57, 43
10, 381542, Note_on_c, 8, 57, 0
10, 381952, Note_on_c, 8, 56, 43
10, 382566, Note_on_c, 8, 56, 0
10, 382976, Note_on_c, 8, 61, 43
10, 383488, Note_on_c, 8, 61, 0
10, 383488, Note_on_c, 8, 59, 43
10, 384000, Note_on_c, 8, 59, 0
10, 384000, Note_on_c, 8, 61, 43
10, 384614, Note_on_c, 8, 61, 0
10, 385024, Note_on_c, 8, 57, 43
10, 385638, Note_on_c, 8, 57, 0
10, 386048, Note_on_c, 8, 64, 43
10, 386662, Note_on_c, 8, 64, 0
10, 387072, Note_on_c, 8, 52, 43
10, 387584, Note_on_c, 8, 52, 0
10, 387584, Note_on_c, 8, 54, 43
10, 388096, Note_on_c, 8, 54, 0
10, 388096, Note_on_c, 8, 56, 43
10, 388710, Note_on_c, 8, 56, 0
10, 389120, Note_on_c, 8, 52, 43
10, 389734, Note_on_c, 8, 52, 0
10, 390144, Note_on_c, 8, 57, 43
10, 390758, Note_on_c, 8, 57, 0
10, 391168, Note_on_c, 8, 45, 43
10, 391680, Note_on_c, 8, 45, 0
10, 391680, Note_on_c, 8, 47, 43
10, 392192, Note_on_c, 8, 47, 0
10, 392192, Note_on_c, 8, 49, 43
10, 392806, Note_on_c, 8, 49, 0
10, 393216, Note_on_c, 8, 45, 43
10, 393830, Note_on_c, 8, 45, 0
10, 394240, Note_on_c, 8, 40, 43
10, 394854, Note_on_c, 8, 40, 0
10, 395264, Note_on_c, 8, 52, 43
10, 395776, Note_on_c, 8, 52, 0
10, 395776, Note_on_c, 8, 50, 43
10, 396288, Note_on_c, 8, 50, 0
10, 396288, Note_on_c, 8, 52, 43
10, 396902, Note_on_c, 8, 52, 0
10, 397312, Note_on_c, 8, 49, 43
10, 397926, Note_on_c, 8, 49, 0
10, 398336, Note_on_c, 8, 45, 43
10, 398950, Note_on_c, 8, 45, 0
10, 399360, Note_on_c, 8, 42, 43
10, 399974, Note_on_c, 8, 42, 0
10, 400384, Note_on_c, 8, 47, 43
10, 400998, Note_on_c, 8, 47, 0
10, 401408, Note_on_c, 8, 49, 43
10, 401920, Note_on_c, 8, 49, 0
10, 401920, Note_on_c, 8, 50, 43
10, 402432, Note_on_c, 8, 50, 0
10, 402432, Note_on_c, 8, 52, 43
10, 403046, Note_on_c, 8, 52, 0
10, 403456, Note_on_c, 8, 54, 43
10, 403968, Note_on_c, 8, 54, 0
10, 403968, Note_on_c, 8, 56, 43
10, 404480, Note_on_c, 8, 56, 0
10, 404480, Note_on_c, 8, 57, 43
10, 405094, Note_on_c, 8, 57, 0
10, 405504, Note_on_c, 8, 45, 43
10, 406118, Note_on_c, 8, 45, 0
10, 406528, Note_on_c, 8, 40, 43
10, 407142, Note_on_c, 8, 40, 0
10, 407552, Note_on_c, 8, 52, 43
10, 409600, Note_on_c, 8, 52, 0
10, 409600, Note_on_c, 8, 50, 43
10, 410214, Note_on_c, 8, 50, 0
10, 410624, Note_on_c, 8, 49, 43
10, 411238, Note_on_c, 8, 49, 0
10, 411648, Note_on_c, 8, 50, 43
10, 412262, Note_on_c, 8, 50, 0
10, 412672, Note_on_c, 8, 52, 43
10, 413286, Note_on_c, 8, 52, 0
10, 413696, Note_on_c, 8, 49, 43
10, 414310, Note_on_c, 8, 49, 0
10, 414720, Note_on_c, 8, 54, 43
10, 415334, Note_on_c, 8, 54, 0
10, 415744, Note_on_c, 8, 56, 43
10, 416358, Note_on_c, 8, 56, 0
10, 416768, Note_on_c, 8, 58, 43
10, 417382, Note_on_c, 8, 58, 0
10, 417792, Note_on_c, 8, 54, 43
10, 418406, Note_on_c, 8, 54, 0
10, 418816, Note_on_c, 8, 47, 43
10, 419430, Note_on_c, 8, 47, 0
10, 419840, Note_on_c, 8, 49, 43
10, 420454, Note_on_c, 8, 49, 0
10, 420864, Note_on_c, 8, 50, 43
10, 421478, Note_on_c, 8, 50, 0
10, 421888, Note_on_c, 8, 47, 43
10, 422502, Note_on_c, 8, 47, 0
10, 422912, Note_on_c, 8, 42, 43
10, 423526, Note_on_c, 8, 42, 0
10, 423936, Note_on_c, 8, 43, 43
10, 424550, Note_on_c, 8, 43, 0
10, 424960, Note_on_c, 8, 45, 43
10, 425574, Note_on_c, 8, 45, 0
10, 425984, Note_on_c, 8, 42, 43
10, 426598, Note_on_c, 8, 42, 0
10, 427008, Note_on_c, 8, 47, 43
10, 427622, Note_on_c, 8, 47, 0
10, 428032, Note_on_c, 8, 49, 43
10, 428544, Note_on_c, 8, 49, 0
10, 428544, Note_on_c, 8, 50, 44
10, 429056, Note_on_c, 8, 50, 0
10, 429056, Note_on_c, 8, 52, 44
10, 429670, Note_on_c, 8, 52, 0
10, 430080, Note_on_c, 8, 46, 45
10, 430694, Note_on_c, 8, 46, 0
10, 431104, Note_on_c, 8, 47, 45
10, 431718, Note_on_c, 8, 47, 0
10, 432128, Note_on_c, 8, 49, 46
10, 432742, Note_on_c, 8, 49, 0
10, 433152, Note_on_c, 8, 50, 47
10, 433766, Note_on_c, 8, 50, 0
10, 434176, Note_on_c, 8, 47, 48
10, 434790, Note_on_c, 8, 47, 0
10, 435200, Note_on_c, 8, 43, 48
10, 435814, Note_on_c, 8, 43, 0
10, 436224, Note_on_c, 8, 40, 49
10, 436838, Note_on_c, 8, 40, 0
10, 437248, Note_on_c, 8, 47, 50
10, 437862, Note_on_c, 8, 47, 0
10, 438272, Note_on_c, 8, 50, 50
10, 438886, Note_on_c, 8, 50, 0
10, 439296, Note_on_c, 8, 52, 51
10, 439910, Note_on_c, 8, 52, 0
10, 440320, Note_on_c, 8, 50, 52
10, 440934, Note_on_c, 8, 50, 0
10, 441344, Note_on_c, 8, 49, 53
10, 441958, Note_on_c, 8, 49, 0
10, 442368, Note_on_c, 8, 54, 53
10, 442982, Note_on_c, 8, 54, 0
10, 443392, Note_on_c, 8, 47, 54
10, 444006, Note_on_c, 8, 47, 0
10, 444416, Note_on_c, 8, 59, 55
10, 444928, Note_on_c, 8, 59, 0
10, 444928, Note_on_c, 8, 58, 55
10, 445440, Note_on_c, 8, 58, 0
10, 445440, Note_on_c, 8, 59, 56
10, 448102, Note_on_c, 8, 59, 0
10, 448512, Note_on_c, 8, 52, 58
10, 449126, Note_on_c, 8, 52, 0
10, 449536, Note_on_c, 8, 57, 59
10, 450048, Note_on_c, 8, 57, 0
10, 450048, Note_on_c, 8, 55, 59
10, 450560, Note_on_c, 8, 55, 0
10, 450560, Note_on_c, 8, 54, 59
10, 451072, Note_on_c, 8, 54, 0
10, 451072, Note_on_c, 8, 52, 60
10, 451584, Note_on_c, 8, 52, 0
10, 451584, Note_on_c, 8, 50, 60
10, 452198, Note_on_c, 8, 50, 0
10, 452608, Note_on_c, 8, 52, 61
10, 453222, Note_on_c, 8, 52, 0
10, 453632, Note_on_c, 8, 54, 62
10, 454246, Note_on_c, 8, 54, 0
10, 454656, Note_on_c, 8, 50, 62
10, 455270, Note_on_c, 8, 50, 0
10, 455680, Note_on_c, 8, 55, 63
10, 456294, Note_on_c, 8, 55, 0
10, 456704, Note_on_c, 8, 54, 64
10, 457318, Note_on_c, 8, 54, 0
10, 457728, Note_on_c, 8, 55, 64
10, 458342, Note_on_c, 8, 55, 0
10, 458752, Note_on_c, 8, 57, 65
10, 459264, Note_on_c, 8, 57, 0
10, 459264, Note_on_c, 8, 55, 66
10, 459776, Note_on_c, 8, 55, 0
10, 459776, Note_on_c, 8, 54, 66
10, 460390, Note_on_c, 8, 54, 0
10, 460800, Note_on_c, 8, 47, 67
10, 461414, Note_on_c, 8, 47, 0
10, 461824, Note_on_c, 8, 59, 67
10, 465920, Note_on_c, 8, 59, 0
10, 465920, Note_on_c, 8, 58, 67
10, 467968, Note_on_c, 8, 58, 0
10, 467968, Note_on_c, 8, 59, 66
10, 468582, Note_on_c, 8, 59, 0
10, 468992, Note_on_c, 8, 62, 66
10, 469504, Note_on_c, 8, 62, 0
10, 469504, Note_on_c, 8, 61, 66
10, 470016, Note_on_c, 8, 61, 0
10, 470016, Note_on_c, 8, 59, 66
10, 470630, Note_on_c, 8, 59, 0
10, 471040, Note_on_c, 8, 57, 66
10, 471654, Note_on_c, 8, 57, 0
10, 472064, Note_on_c, 8, 56, 66
10, 472678, Note_on_c, 8, 56, 0
10, 473088, Note_on_c, 8, 52, 66
10, 473702, Note_on_c, 8, 52, 0
10, 474112, Note_on_c, 8, 57, 65
10, 474726, Note_on_c, 8, 57, 0
10, 475136, Note_on_c, 8, 55, 65
10, 475750, Note_on_c, 8, 55, 0
10, 476160, Note_on_c, 8, 54, 65
10, 476774, Note_on_c, 8, 54, 0
10, 477184, Note_on_c, 8, 50, 65
10, 477798, Note_on_c, 8, 50, 0
10, 478208, Note_on_c, 8, 52, 65
10, 478822, Note_on_c, 8, 52, 0
10, 479232, Note_on_c, 8, 54, 65
10, 479846, Note_on_c, 8, 54, 0
10, 480256, Note_on_c, 8, 55, 62
10, 480870, Note_on_c, 8, 55, 0
10, 481280, Note_on_c, 8, 57, 58
10, 481894, Note_on_c, 8, 57, 0
10, 482304, Note_on_c, 8, 59, 54
10, 482918, Note_on_c, 8, 59, 0
10, 483328, Note_on_c, 8, 55, 49
10, 483942, Note_on_c, 8, 55, 0
10, 484352, Note_on_c, 8, 52, 43
10, 484966, Note_on_c, 8, 52, 0
10, 485376, Note_on_c, 8, 54, 42
10, 485990, Note_on_c, 8, 54, 0
10, 486400, Note_on_c, 8, 55, 42
10, 487014, Note_on_c, 8, 55, 0
10, 487424, Note_on_c, 8, 52, 41
10, 488038, Note_on_c, 8, 52, 0
10, 488448, Note_on_c, 8, 48, 40
10, 489062, Note_on_c, 8, 48, 0
10, 489472, Note_on_c, 8, 50, 39
10, 490086, Note_on_c, 8, 50, 0
10, 490496, Note_on_c, 8, 52, 38
10, 491110, Note_on_c, 8, 52, 0
10, 491520, Note_on_c, 8, 50, 38
10, 492134, Note_on_c, 8, 50, 0
10, 492544, Note_on_c, 8, 49, 37
10, 493158, Note_on_c, 8, 49, 0
10, 493568, Note_on_c, 8, 49, 39
10, 494182, Note_on_c, 8, 49, 0
10, 494592, Note_on_c, 8, 49, 39
10, 495206, Note_on_c, 8, 49, 0
10, 495616, Note_on_c, 8, 49, 39
10, 496230, Note_on_c, 8, 49, 0
10, 496640, Note_on_c, 8, 50, 39
10, 497254, Note_on_c, 8, 50, 0
10, 497664, Note_on_c, 8, 50, 39
10, 498278, Note_on_c, 8, 50, 0
10, 498688, Note_on_c, 8, 50, 39
10, 499302, Note_on_c, 8, 50, 0
10, 499712, Note_on_c, 8, 50, 39
10, 500326, Note_on_c, 8, 50, 0
10, 500736, Note_on_c, 8, 50, 39
10, 501350, Note_on_c, 8, 50, 0
10, 501760, Note_on_c, 8, 50, 39
10, 502374, Note_on_c, 8, 50, 0
10, 502784, Note_on_c, 8, 50, 39
10, 503398, Note_on_c, 8, 50, 0
10, 503808, Note_on_c, 8, 50, 39
10, 504422, Note_on_c, 8, 50, 0
10, 504832, Note_on_c, 8, 50, 40
10, 505446, Note_on_c, 8, 50, 0
10, 505856, Note_on_c, 8, 50, 48
10, 506470, Note_on_c, 8, 50, 0
10, 506880, Note_on_c, 8, 48, 56
10, 507494, Note_on_c, 8, 48, 0
10, 507904, Note_on_c, 8, 48, 64
10, 508518, Note_on_c, 8, 48, 0
10, 508928, Note_on_c, 8, 46, 72
10, 509542, Note_on_c, 8, 46, 0
10, 509952, Note_on_c, 8, 46, 62
10, 510566, Note_on_c, 8, 46, 0
10, 510976, Note_on_c, 8, 46, 62
10, 511590, Note_on_c, 8, 46, 0
10, 512000, Note_on_c, 8, 46, 61
10, 512614, Note_on_c, 8, 46, 0
10, 513024, Note_on_c, 8, 45, 60
10, 513638, Note_on_c, 8, 45, 0
10, 514048, Note_on_c, 8, 45, 60
10, 514662, Note_on_c, 8, 45, 0
10, 515072, Note_on_c, 8, 45, 59
10, 515686, Note_on_c, 8, 45, 0
10, 516096, Note_on_c, 8, 45, 58
10, 516710, Note_on_c, 8, 45, 0
10, 517120, Note_on_c, 8, 46, 57
10, 517734, Note_on_c, 8, 46, 0
10, 518144, Note_on_c, 8, 46, 57
10, 518758, Note_on_c, 8, 46, 0
10, 519168, Note_on_c, 8, 46, 57
10, 519782, Note_on_c, 8, 46, 0
10, 520192, Note_on_c, 8, 46, 56
10, 520806, Note_on_c, 8, 46, 0
10, 521216, Note_on_c, 8, 46, 56
10, 521830, Note_on_c, 8, 46, 0
10, 522240, Note_on_c, 8, 46, 55
10, 522854, Note_on_c, 8, 46, 0
10, 523264, Note_on_c, 8, 45, 55
10, 523878, Note_on_c, 8, 45, 0
10, 524288, Note_on_c, 8, 45, 54
10, 524902, Note_on_c, 8, 45, 0
10, 525312, Note_on_c, 8, 44, 54
10, 525926, Note_on_c, 8, 44, 0
10, 526336, Note_on_c, 8, 44, 53
10, 526950, Note_on_c, 8, 44, 0
10, 527360, Note_on_c, 8, 44, 53
10, 527974, Note_on_c, 8, 44, 0
10, 528384, Note_on_c, 8, 44, 53
10, 528998, Note_on_c, 8, 44, 0
10, 529408, Note_on_c, 8, 43, 52
10, 530022, Note_on_c, 8, 43, 0
10, 530432, Note_on_c, 8, 43, 52
10, 531046, Note_on_c, 8, 43, 0
10, 531456, Note_on_c, 8, 43, 51
10, 532070, Note_on_c, 8, 43, 0
10, 532480, Note_on_c, 8, 43, 51
10, 533094, Note_on_c, 8, 43, 0
10, 533504, Note_on_c, 8, 41, 50
10, 534118, Note_on_c, 8, 41, 0
10, 534528, Note_on_c, 8, 41, 50
10, 535142, Note_on_c, 8, 41, 0
10, 535552, Note_on_c, 8, 41, 49
10, 536166, Note_on_c, 8, 41, 0
10, 536576, Note_on_c, 8, 41, 49
10, 537190, Note_on_c, 8, 41, 0
10, 537600, Note_on_c, 8, 41, 49
10, 538214, Note_on_c, 8, 41, 0
10, 538624, Note_on_c, 8, 53, 48
10, 539238, Note_on_c, 8, 53, 0
10, 539648, Note_on_c, 8, 52, 48
10, 540262, Note_on_c, 8, 52, 0
10, 540672, Note_on_c, 8, 50, 47
10, 541286, Note_on_c, 8, 50, 0
10, 541696, Note_on_c, 8, 49, 47
10, 542310, Note_on_c, 8, 49, 0
10, 542720, Note_on_c, 8, 45, 46
10, 543334, Note_on_c, 8, 45, 0
10, 543744, Note_on_c, 8, 47, 46
10, 544358, Note_on_c, 8, 47, 0
10, 544768, Note_on_c, 8, 49, 45
10, 545382, Note_on_c, 8, 49, 0
10, 545792, Note_on_c, 8, 50, 45
10, 546406, Note_on_c, 8, 50, 0
10, 546816, Note_on_c, 8, 45, 45
10, 547430, Note_on_c, 8, 45, 0
10, 547840, Note_on_c, 8, 42, 44
10, 548454, Note_on_c, 8, 42, 0
10, 548864, Note_on_c, 8, 38, 44
10, 549478, Note_on_c, 8, 38, 0
10, 549888, Note_on_c, 8, 44, 43
10, 550502, Note_on_c, 8, 44, 0
10, 550912, Note_on_c, 8, 44, 43
10, 551526, Note_on_c, 8, 44, 0
10, 551936, Note_on_c, 8, 44, 42
10, 552550, Note_on_c, 8, 44, 0
10, 552960, Note_on_c, 8, 44, 42
10, 553574, Note_on_c, 8, 44, 0
10, 553984, Note_on_c, 8, 45, 41
10, 554598, Note_on_c, 8, 45, 0
10, 555008, Note_on_c, 8, 45, 41
10, 555622, Note_on_c, 8, 45, 0
10, 556032, Note_on_c, 8, 45, 41
10, 556646, Note_on_c, 8, 45, 0
10, 557056, Note_on_c, 8, 45, 40
10, 557670, Note_on_c, 8, 45, 0
10, 558080, Note_on_c, 8, 45, 40
10, 559923, Note_on_c, 8, 45, 0
10, 564224, Note_on_c, 8, 57, 43
10, 565248, Note_on_c, 8, 55, 43
10, 565248, Note_on_c, 8, 57, 0
10, 565862, Note_on_c, 8, 55, 0
10, 566272, Note_on_c, 8, 54, 43
10, 566886, Note_on_c, 8, 54, 0
10, 567296, Note_on_c, 8, 54, 43
10, 567910, Note_on_c, 8, 54, 0
10, 568320, Note_on_c, 8, 54, 43
10, 568934, Note_on_c, 8, 54, 0
10, 569344, Note_on_c, 8, 54, 43
10, 569958, Note_on_c, 8, 54, 0
10, 570368, Note_on_c, 8, 53, 43
10, 570982, Note_on_c, 8, 53, 0
10, 571392, Note_on_c, 8, 53, 43
10, 572006, Note_on_c, 8, 53, 0
10, 572416, Note_on_c, 8, 53, 43
10, 573030, Note_on_c, 8, 53, 0
10, 573440, Note_on_c, 8, 53, 43
10, 574054, Note_on_c, 8, 53, 0
10, 574464, Note_on_c, 8, 54, 43
10, 575078, Note_on_c, 8, 54, 0
10, 575488, Note_on_c, 8, 54, 43
10, 576102, Note_on_c, 8, 54, 0
10, 576512, Note_on_c, 8, 54, 43
10, 577126, Note_on_c, 8, 54, 0
10, 577536, Note_on_c, 8, 54, 43
10, 578150, Note_on_c, 8, 54, 0
10, 578560, Note_on_c, 8, 49, 43
10, 579174, Note_on_c, 8, 49, 0
10, 579584, Note_on_c, 8, 49, 43
10, 580198, Note_on_c, 8, 49, 0
10, 580608, Note_on_c, 8, 49, 43
10, 581222, Note_on_c, 8, 49, 0
10, 581632, Note_on_c, 8, 49, 43
10, 582246, Note_on_c, 8, 49, 0
10, 582656, Note_on_c, 8, 50, 46
10, 583270, Note_on_c, 8, 50, 0
10, 583680, Note_on_c, 8, 50, 49
10, 584294, Note_on_c, 8, 50, 0
10, 584704, Note_on_c, 8, 50, 52
10, 585318, Note_on_c, 8, 50, 0
10, 585728, Note_on_c, 8, 50, 54
10, 586342, Note_on_c, 8, 50, 0
10, 586752, Note_on_c, 8, 47, 55
10, 587366, Note_on_c, 8, 47, 0
10, 587776, Note_on_c, 8, 47, 55
10, 588390, Note_on_c, 8, 47, 0
10, 588800, Note_on_c, 8, 47, 55
10, 589414, Note_on_c, 8, 47, 0
10, 589824, Note_on_c, 8, 47, 55
10, 590438, Note_on_c, 8, 47, 0
10, 590848, Note_on_c, 8, 46, 56
10, 591462, Note_on_c, 8, 46, 0
10, 591872, Note_on_c, 8, 46, 51
10, 592486, Note_on_c, 8, 46, 0
10, 592896, Note_on_c, 8, 46, 46
10, 593510, Note_on_c, 8, 46, 0
10, 593920, Note_on_c, 8, 46, 41
10, 594534, Note_on_c, 8, 46, 0
10, 594944, Note_on_c, 8, 45, 35
10, 595558, Note_on_c, 8, 45, 0
10, 595968, Note_on_c, 8, 43, 35
10, 596582, Note_on_c, 8, 43, 0
10, 596992, Note_on_c, 8, 42, 36
10, 597606, Note_on_c, 8, 42, 0
10, 598016, Note_on_c, 8, 40, 50
10, 598630, Note_on_c, 8, 40, 0
10, 599040, Note_on_c, 8, 38, 76
10, 599654, Note_on_c, 8, 38, 0
10, 603136, Note_on_c, 8, 38, 81
10, 603750, Note_on_c, 8, 38, 0
10, 607232, Note_on_c, 8, 38, 87
10, 607846, Note_on_c, 8, 38, 0
10, 611328, Note_on_c, 8, 38, 93
10, 611942, Note_on_c, 8, 38, 0
10, 616448, Note_on_c, 8, 50, 98
10, 616960, Note_on_c, 8, 50, 0
10, 616960, Note_on_c, 8, 54, 98
10, 617472, Note_on_c, 8, 54, 0
10, 617472, Note_on_c, 8, 57, 98
10, 618086, Note_on_c, 8, 57, 0
10, 618496, Note_on_c, 8, 54, 98
10, 619008, Note_on_c, 8, 54, 0
10, 619008, Note_on_c, 8, 57, 98
10, 619520, Note_on_c, 8, 57, 0
10, 619520, Note_on_c, 8, 62, 98
10, 620134, Note_on_c, 8, 62, 0
10, 620544, Note_on_c, 8, 62, 98
10, 621158, Note_on_c, 8, 62, 0
10, 621568, Note_on_c, 8, 62, 98
10, 622182, Note_on_c, 8, 62, 0
10, 622592, Note_on_c, 8, 62, 98
10, 623206, Note_on_c, 8, 62, 0
10, 623616, Note_on_c, 8, 62, 98
10, 624230, Note_on_c, 8, 62, 0
10, 624640, Note_on_c, 8, 50, 98
10, 625152, Note_on_c, 8, 50, 0
10, 625152, Note_on_c, 8, 54, 98
10, 625664, Note_on_c, 8, 54, 0
10, 625664, Note_on_c, 8, 57, 98
10, 626278, Note_on_c, 8, 57, 0
10, 626688, Note_on_c, 8, 54, 98
10, 627200, Note_on_c, 8, 54, 0
10, 627200, Note_on_c, 8, 57, 98
10, 627712, Note_on_c, 8, 57, 0
10, 627712, Note_on_c, 8, 62, 98
10, 628326, Note_on_c, 8, 62, 0
10, 628736, Note_on_c, 8, 62, 98
10, 629350, Note_on_c, 8, 62, 0
10, 629760, Note_on_c, 8, 62, 98
10, 630374, Note_on_c, 8, 62, 0
10, 630784, Note_on_c, 8, 62, 98
10, 631398, Note_on_c, 8, 62, 0
10, 631808, Note_on_c, 8, 62, 98
10, 632422, Note_on_c, 8, 62, 0
10, 632832, Note_on_c, 8, 57, 98
10, 633446, Note_on_c, 8, 57, 0
10, 633856, Note_on_c, 8, 54, 98
10, 634470, Note_on_c, 8, 54, 0
10, 634880, Note_on_c, 8, 57, 98
10, 635494, Note_on_c, 8, 57, 0
10, 635904, Note_on_c, 8, 50, 98
10, 636518, Note_on_c, 8, 50, 0
10, 636928, Note_on_c, 8, 54, 98
10, 637440, Note_on_c, 8, 54, 0
10, 637440, Note_on_c, 8, 57, 98
10, 637952, Note_on_c, 8, 57, 0
10, 637952, Note_on_c, 8, 62, 98
10, 638566, Note_on_c, 8, 62, 0
10, 638976, Note_on_c, 8, 61, 98
10, 639488, Note_on_c, 8, 61, 0
10, 639488, Note_on_c, 8, 59, 98
10, 640000, Note_on_c, 8, 59, 0
10, 640000, Note_on_c, 8, 61, 98
10, 640614, Note_on_c, 8, 61, 0
10, 641024, Note_on_c, 8, 59, 98
10, 641536, Note_on_c, 8, 59, 0
10, 641536, Note_on_c, 8, 57, 98
10, 642048, Note_on_c, 8, 57, 0
10, 642048, Note_on_c, 8, 56, 98
10, 642662, Note_on_c, 8, 56, 0
10, 643072, Note_on_c, 8, 54, 98
10, 643584, Note_on_c, 8, 54, 0
10, 643584, Note_on_c, 8, 52, 98
10, 644096, Note_on_c, 8, 52, 0
10, 644096, Note_on_c, 8, 57, 98
10, 644710, Note_on_c, 8, 57, 0
10, 645120, Note_on_c, 8, 54, 98
10, 645734, Note_on_c, 8, 54, 0
10, 646144, Note_on_c, 8, 50, 98
10, 646758, Note_on_c, 8, 50, 0
10, 647168, Note_on_c, 8, 52, 98
10, 647782, Note_on_c, 8, 52, 0
10, 648192, Note_on_c, 8, 45, 98
10, 648806, Note_on_c, 8, 45, 0
10, 649216, Note_on_c, 8, 57, 98
10, 649728, Note_on_c, 8, 57, 0
10, 649728, Note_on_c, 8, 52, 98
10, 650240, Note_on_c, 8, 52, 0
10, 650240, Note_on_c, 8, 49, 98
10, 650854, Note_on_c, 8, 49, 0
10, 651264, Note_on_c, 8, 52, 98
10, 651776, Note_on_c, 8, 52, 0
10, 651776, Note_on_c, 8, 49, 98
10, 652288, Note_on_c, 8, 49, 0
10, 652288, Note_on_c, 8, 45, 95
10, 652902, Note_on_c, 8, 45, 0
10, 653312, Note_on_c, 8, 57, 93
10, 653926, Note_on_c, 8, 57, 0
10, 654336, Note_on_c, 8, 57, 91
10, 654950, Note_on_c, 8, 57, 0
10, 655360, Note_on_c, 8, 57, 88
10, 655974, Note_on_c, 8, 57, 0
10, 656384, Note_on_c, 8, 50, 86
10, 656998, Note_on_c, 8, 50, 0
10, 657408, Note_on_c, 8, 62, 77
10, 657920, Note_on_c, 8, 62, 0
10, 657920, Note_on_c, 8, 57, 79
10, 658432, Note_on_c, 8, 57, 0
10, 658432, Note_on_c, 8, 54, 80
10, 659046, Note_on_c, 8, 54, 0
10, 659456, Note_on_c, 8, 57, 83
10, 659968, Note_on_c, 8, 57, 0
10, 659968, Note_on_c, 8, 54, 85
10, 660480, Note_on_c, 8, 54, 0
10, 660480, Note_on_c, 8, 50, 86
10, 661094, Note_on_c, 8, 50, 0
10, 661504, Note_on_c, 8, 57, 89
10, 662016, Note_on_c, 8, 57, 0
10, 662016, Note_on_c, 8, 54, 91
10, 662528, Note_on_c, 8, 54, 0
10, 662528, Note_on_c, 8, 50, 92
10, 663142, Note_on_c, 8, 50, 0
10, 663552, Note_on_c, 8, 54, 96
10, 664064, Note_on_c, 8, 54, 0
10, 664064, Note_on_c, 8, 50, 97
10, 664576, Note_on_c, 8, 50, 0
10, 664576, Note_on_c, 8, 45, 96
10, 665190, Note_on_c, 8, 45, 0
10, 667648, Note_on_c, 8, 61, 52
10, 668160, Note_on_c, 8, 61, 0
10, 668160, Note_on_c, 8, 57, 52
10, 668672, Note_on_c, 8, 57, 0
10, 668672, Note_on_c, 8, 54, 52
10, 670720, Note_on_c, 8, 54, 0
10, 671744, Note_on_c, 8, 59, 52
10, 672256, Note_on_c, 8, 59, 0
10, 672256, Note_on_c, 8, 55, 52
10, 672768, Note_on_c, 8, 55, 0
10, 672768, Note_on_c, 8, 52, 52
10, 674816, Note_on_c, 8, 52, 0
10, 675840, Note_on_c, 8, 57, 52
10, 676352, Note_on_c, 8, 57, 0
10, 676352, Note_on_c, 8, 54, 52
10, 676864, Note_on_c, 8, 54, 0
10, 676864, Note_on_c, 8, 50, 52
10, 678912, Note_on_c, 8, 50, 0
10, 679936, Note_on_c, 8, 54, 52
10, 680448, Note_on_c, 8, 54, 0
10, 680448, Note_on_c, 8, 50, 52
10, 680960, Note_on_c, 8, 50, 0
10, 680960, Note_on_c, 8, 45, 52
10, 681574, Note_on_c, 8, 45, 0
10, 681984, Note_on_c, 8, 52, 52
10, 682598, Note_on_c, 8, 52, 0
10, 683008, Note_on_c, 8, 57, 52
10, 687104, Note_on_c, 8, 57, 0
10, 687104, Note_on_c, 8, 55, 54
10, 689152, Note_on_c, 8, 55, 0
10, 689152, Note_on_c, 8, 54, 56
10, 691200, Note_on_c, 8, 54, 0
10, 691200, Note_on_c, 8, 59, 59
10, 691814, Note_on_c, 8, 59, 0
10, 692224, Note_on_c, 8, 57, 60
10, 692838, Note_on_c, 8, 57, 0
10, 693248, Note_on_c, 8, 55, 61
10, 693862, Note_on_c, 8, 55, 0
10, 694272, Note_on_c, 8, 52, 63
10, 694886, Note_on_c, 8, 52, 0
10, 695296, Note_on_c, 8, 57, 64
10, 695910, Note_on_c, 8, 57, 0
10, 696320, Note_on_c, 8, 55, 65
10, 696934, Note_on_c, 8, 55, 0
10, 697344, Note_on_c, 8, 54, 66
10, 697958, Note_on_c, 8, 54, 0
10, 698368, Note_on_c, 8, 50, 68
10, 698982, Note_on_c, 8, 50, 0
10, 702464, Note_on_c, 8, 45, 73
10, 702976, Note_on_c, 8, 45, 0
10, 702976, Note_on_c, 8, 50, 74
10, 703488, Note_on_c, 8, 50, 0
10, 703488, Note_on_c, 8, 54, 74
10, 704102, Note_on_c, 8, 54, 0
10, 704512, Note_on_c, 8, 50, 75
10, 705024, Note_on_c, 8, 50, 0
10, 705024, Note_on_c, 8, 54, 76
10, 705536, Note_on_c, 8, 54, 0
10, 705536, Note_on_c, 8, 57, 77
10, 706150, Note_on_c, 8, 57, 0
10, 710656, Note_on_c, 8, 52, 83
10, 711168, Note_on_c, 8, 52, 0
10, 711168, Note_on_c, 8, 57, 84
10, 711680, Note_on_c, 8, 57, 0
10, 711680, Note_on_c, 8, 61, 84
10, 712294, Note_on_c, 8, 61, 0
10, 712704, Note_on_c, 8, 57, 86
10, 713216, Note_on_c, 8, 57, 0
10, 713216, Note_on_c, 8, 61, 86
10, 713728, Note_on_c, 8, 61, 0
10, 713728, Note_on_c, 8, 62, 87
10, 714342, Note_on_c, 8, 62, 0
10, 718848, Note_on_c, 8, 57, 93
10, 719360, Note_on_c, 8, 57, 0
10, 719360, Note_on_c, 8, 54, 94
10, 719872, Note_on_c, 8, 54, 0
10, 719872, Note_on_c, 8, 50, 95
10, 720486, Note_on_c, 8, 50, 0
10, 720896, Note_on_c, 8, 54, 96
10, 721408, Note_on_c, 8, 54, 0
10, 721408, Note_on_c, 8, 50, 97
10, 721920, Note_on_c, 8, 50, 0
10, 721920, Note_on_c, 8, 45, 94
10, 722534, Note_on_c, 8, 45, 0
10, 727040, Note_on_c, 8, 49, 83
10, 727552, Note_on_c, 8, 49, 0
10, 727552, Note_on_c, 8, 45, 83
10, 728064, Note_on_c, 8, 45, 0
10, 728064, Note_on_c, 8, 42, 83
10, 728678, Note_on_c, 8, 42, 0
10, 729088, Note_on_c, 8, 45, 83
10, 729600, Note_on_c, 8, 45, 0
10, 729600, Note_on_c, 8, 42, 83
10, 730112, Note_on_c, 8, 42, 0
10, 730112, Note_on_c, 8, 38, 83
10, 730726, Note_on_c, 8, 38, 0
10, 734208, Note_on_c, 8, 38, 83
10, 734822, Note_on_c, 8, 38, 0
10, 738304, Note_on_c, 8, 38, 83
10, 738918, Note_on_c, 8, 38, 0
10, 742400, Note_on_c, 8, 38, 79
10, 743014, Note_on_c, 8, 38, 0
10, 747520, Note_on_c, 8, 38, 90
10, 748032, Note_on_c, 8, 38, 0
10, 748032, Note_on_c, 8, 42, 91
10, 748544, Note_on_c, 8, 42, 0
10, 748544, Note_on_c, 8, 45, 93
10, 749158, Note_on_c, 8, 45, 0
10, 749568, Note_on_c, 8, 42, 95
10, 750080, Note_on_c, 8, 42, 0
10, 750080, Note_on_c, 8, 45, 96
10, 750592, Note_on_c, 8, 45, 0
10, 750592, Note_on_c, 8, 50, 98
10, 751206, Note_on_c, 8, 50, 0
10, 751616, Note_on_c, 8, 50, 98
10, 752230, Note_on_c, 8, 50, 0
10, 752640, Note_on_c, 8, 50, 98
10, 753254, Note_on_c, 8, 50, 0
10, 753664, Note_on_c, 8, 50, 98
10, 754278, Note_on_c, 8, 50, 0
10, 754688, Note_on_c, 8, 50, 98
10, 755302, Note_on_c, 8, 50, 0
10, 755712, Note_on_c, 8, 38, 98
10, 756224, Note_on_c, 8, 38, 0
10, 756224, Note_on_c, 8, 42, 98
10, 756736, Note_on_c, 8, 42, 0
10, 756736, Note_on_c, 8, 45, 98
10, 757350, Note_on_c, 8, 45, 0
10, 757760, Note_on_c, 8, 42, 97
10, 758272, Note_on_c, 8, 42, 0
10, 758272, Note_on_c, 8, 45, 97
10, 758784, Note_on_c, 8, 45, 0
10, 758784, Note_on_c, 8, 50, 97
10, 759398, Note_on_c, 8, 50, 0
10, 759808, Note_on_c, 8, 50, 97
10, 760422, Note_on_c, 8, 50, 0
10, 760832, Note_on_c, 8, 50, 97
10, 761446, Note_on_c, 8, 50, 0
10, 761856, Note_on_c, 8, 50, 97
10, 762470, Note_on_c, 8, 50, 0
10, 762880, Note_on_c, 8, 50, 97
10, 763494, Note_on_c, 8, 50, 0
10, 763904, Note_on_c, 8, 38, 79
10, 764518, Note_on_c, 8, 38, 0
10, 764928, Note_on_c, 8, 49, 50
10, 765542, Note_on_c, 8, 49, 0
10, 765952, Note_on_c, 8, 45, 50
10, 766566, Note_on_c, 8, 45, 0
10, 766976, Note_on_c, 8, 50, 50
10, 767590, Note_on_c, 8, 50, 0
10, 768000, Note_on_c, 8, 49, 50
10, 768512, Note_on_c, 8, 49, 0
10, 768512, Note_on_c, 8, 47, 50
10, 769024, Note_on_c, 8, 47, 0
10, 769024, Note_on_c, 8, 52, 50
10, 769638, Note_on_c, 8, 52, 0
10, 770048, Note_on_c, 8, 40, 50
10, 770662, Note_on_c, 8, 40, 0
10, 771072, Note_on_c, 8, 45, 50
10, 771686, Note_on_c, 8, 45, 0
10, 772096, Note_on_c, 8, 47, 50
10, 772608, Note_on_c, 8, 47, 0
10, 772608, Note_on_c, 8, 49, 50
10, 773120, Note_on_c, 8, 49, 0
10, 773120, Note_on_c, 8, 50, 50
10, 777216, Note_on_c, 8, 50, 0
10, 777216, Note_on_c, 8, 49, 50
10, 779264, Note_on_c, 8, 49, 0
10, 779264, Note_on_c, 8, 47, 50
10, 781312, Note_on_c, 8, 47, 0
10, 787456, Note_on_c, 8, 52, 50
10, 788070, Note_on_c, 8, 52, 0
10, 788480, Note_on_c, 8, 40, 50
10, 789094, Note_on_c, 8, 40, 0
10, 789504, Note_on_c, 8, 52, 50
10, 790016, Note_on_c, 8, 52, 0
10, 790016, Note_on_c, 8, 54, 50
10, 790528, Note_on_c, 8, 54, 0
10, 790528, Note_on_c, 8, 50, 50
10, 791040, Note_on_c, 8, 50, 0
10, 791040, Note_on_c, 8, 52, 50
10, 791552, Note_on_c, 8, 52, 0
10, 791552, Note_on_c, 8, 54, 50
10, 792064, Note_on_c, 8, 54, 0
10, 792064, Note_on_c, 8, 56, 50
10, 792576, Note_on_c, 8, 56, 0
10, 792576, Note_on_c, 8, 52, 50
10, 793088, Note_on_c, 8, 52, 0
10, 793088, Note_on_c, 8, 54, 50
10, 793600, Note_on_c, 8, 54, 0
10, 793600, Note_on_c, 8, 56, 50
10, 794112, Note_on_c, 8, 56, 0
10, 794112, Note_on_c, 8, 57, 50
10, 794624, Note_on_c, 8, 57, 0
10, 794624, Note_on_c, 8, 54, 50
10, 795136, Note_on_c, 8, 54, 0
10, 795136, Note_on_c, 8, 56, 51
10, 795648, Note_on_c, 8, 56, 0
10, 795648, Note_on_c, 8, 57, 53
10, 796160, Note_on_c, 8, 57, 0
10, 796160, Note_on_c, 8, 59, 55
10, 796672, Note_on_c, 8, 59, 0
10, 796672, Note_on_c, 8, 57, 56
10, 797184, Note_on_c, 8, 57, 0
10, 797184, Note_on_c, 8, 59, 58
10, 797696, Note_on_c, 8, 59, 0
10, 797696, Note_on_c, 8, 61, 60
10, 798208, Note_on_c, 8, 61, 0
10, 798208, Note_on_c, 8, 62, 62
10, 798720, Note_on_c, 8, 62, 0
10, 798720, Note_on_c, 8, 59, 64
10, 799232, Note_on_c, 8, 59, 0
10, 799232, Note_on_c, 8, 61, 66
10, 799744, Note_on_c, 8, 61, 0
10, 799744, Note_on_c, 8, 62, 68
10, 800358, Note_on_c, 8, 62, 0
10, 800768, Note_on_c, 8, 50, 72
10, 801382, Note_on_c, 8, 50, 0
10, 801792, Note_on_c, 8, 62, 76
10, 802406, Note_on_c, 8, 62, 0
10, 802816, Note_on_c, 8, 62, 79
10, 803430, Note_on_c, 8, 62, 0
10, 803840, Note_on_c, 8, 61, 85
10, 804454, Note_on_c, 8, 61, 0
10, 804864, Note_on_c, 8, 59, 86
10, 805376, Note_on_c, 8, 59, 0
10, 805376, Note_on_c, 8, 57, 86
10, 805888, Note_on_c, 8, 57, 0
10, 805888, Note_on_c, 8, 56, 86
10, 806502, Note_on_c, 8, 56, 0
10, 806912, Note_on_c, 8, 52, 87
10, 807526, Note_on_c, 8, 52, 0
10, 807936, Note_on_c, 8, 57, 88
10, 808550, Note_on_c, 8, 57, 0
10, 808960, Note_on_c, 8, 54, 89
10, 809574, Note_on_c, 8, 54, 0
10, 809984, Note_on_c, 8, 50, 90
10, 810598, Note_on_c, 8, 50, 0
10, 811008, Note_on_c, 8, 52, 91
10, 811622, Note_on_c, 8, 52, 0
10, 812032, Note_on_c, 8, 45, 92
10, 812646, Note_on_c, 8, 45, 0
10, 816128, Note_on_c, 8, 45, 36
10, 816742, Note_on_c, 8, 45, 0
10, 820224, Note_on_c, 8, 45, 36
10, 820838, Note_on_c, 8, 45, 0
10, 824320, Note_on_c, 8, 45, 50
10, 824934, Note_on_c, 8, 45, 0
10, 829440, Note_on_c, 8, 45, 64
10, 829952, Note_on_c, 8, 45, 0
10, 829952, Note_on_c, 8, 49, 64
10, 830464, Note_on_c, 8, 49, 0
10, 830464, Note_on_c, 8, 52, 64
10, 831078, Note_on_c, 8, 52, 0
10, 831488, Note_on_c, 8, 49, 64
10, 832000, Note_on_c, 8, 49, 0
10, 832000, Note_on_c, 8, 52, 64
10, 832512, Note_on_c, 8, 52, 0
10, 832512, Note_on_c, 8, 57, 64
10, 833126, Note_on_c, 8, 57, 0
10, 833536, Note_on_c, 8, 57, 64
10, 834150, Note_on_c, 8, 57, 0
10, 834560, Note_on_c, 8, 57, 64
10, 835174, Note_on_c, 8, 57, 0
10, 835584, Note_on_c, 8, 57, 64
10, 836198, Note_on_c, 8, 57, 0
10, 836608, Note_on_c, 8, 57, 64
10, 837222, Note_on_c, 8, 57, 0
10, 837632, Note_on_c, 8, 45, 64
10, 838144, Note_on_c, 8, 45, 0
10, 838144, Note_on_c, 8, 49, 64
10, 838656, Note_on_c, 8, 49, 0
10, 838656, Note_on_c, 8, 52, 64
10, 839270, Note_on_c, 8, 52, 0
10, 839680, Note_on_c, 8, 49, 64
10, 840192, Note_on_c, 8, 49, 0
10, 840192, Note_on_c, 8, 52, 63
10, 840704, Note_on_c, 8, 52, 0
10, 840704, Note_on_c, 8, 57, 62
10, 841318, Note_on_c, 8, 57, 0
10, 841728, Note_on_c, 8, 57, 58
10, 842342, Note_on_c, 8, 57, 0
10, 842752, Note_on_c, 8, 57, 55
10, 843366, Note_on_c, 8, 57, 0
10, 843776, Note_on_c, 8, 57, 52
10, 844390, Note_on_c, 8, 57, 0
10, 844800, Note_on_c, 8, 57, 48
10, 846848, Note_on_c, 8, 57, 0
10, 847872, Note_on_c, 8, 61, 42
10, 848384, Note_on_c, 8, 61, 0
10, 848384, Note_on_c, 8, 57, 42
10, 848896, Note_on_c, 8, 57, 0
10, 848896, Note_on_c, 8, 54, 42
10, 850944, Note_on_c, 8, 54, 0
10, 851968, Note_on_c, 8, 54, 42
10, 852480, Note_on_c, 8, 54, 0
10, 852480, Note_on_c, 8, 50, 42
10, 852992, Note_on_c, 8, 50, 0
10, 852992, Note_on_c, 8, 47, 42
10, 855040, Note_on_c, 8, 47, 0
10, 856064, Note_on_c, 8, 52, 42
10, 856576, Note_on_c, 8, 52, 0
10, 856576, Note_on_c, 8, 49, 42
10, 857088, Note_on_c, 8, 49, 0
10, 857088, Note_on_c, 8, 45, 42
10, 857702, Note_on_c, 8, 45, 0
10, 858112, Note_on_c, 8, 52, 42
10, 858726, Note_on_c, 8, 52, 0
10, 859136, Note_on_c, 8, 57, 42
10, 863232, Note_on_c, 8, 57, 0
10, 863232, Note_on_c, 8, 56, 42
10, 865280, Note_on_c, 8, 56, 0
10, 865280, Note_on_c, 8, 57, 42
10, 865894, Note_on_c, 8, 57, 0
10, 866304, Note_on_c, 8, 59, 42
10, 866918, Note_on_c, 8, 59, 0
10, 867328, Note_on_c, 8, 61, 42
10, 867942, Note_on_c, 8, 61, 0
10, 868352, Note_on_c, 8, 57, 42
10, 868966, Note_on_c, 8, 57, 0
10, 869376, Note_on_c, 8, 54, 42
10, 869990, Note_on_c, 8, 54, 0
10, 870400, Note_on_c, 8, 56, 42
10, 871014, Note_on_c, 8, 56, 0
10, 871424, Note_on_c, 8, 57, 42
10, 872038, Note_on_c, 8, 57, 0
10, 872448, Note_on_c, 8, 54, 42
10, 873062, Note_on_c, 8, 54, 0
10, 873472, Note_on_c, 8, 50, 42
10, 874086, Note_on_c, 8, 50, 0
10, 874496, Note_on_c, 8, 47, 42
10, 875110, Note_on_c, 8, 47, 0
10, 875520, Note_on_c, 8, 52, 42
10, 876134, Note_on_c, 8, 52, 0
10, 876544, Note_on_c, 8, 40, 42
10, 877158, Note_on_c, 8, 40, 0
10, 877568, Note_on_c, 8, 45, 42
10, 879616, Note_on_c, 8, 45, 0
10, 882688, Note_on_c, 8, 52, 47
10, 883200, Note_on_c, 8, 52, 0
10, 883200, Note_on_c, 8, 57, 47
10, 883712, Note_on_c, 8, 57, 0
10, 883712, Note_on_c, 8, 61, 47
10, 884326, Note_on_c, 8, 61, 0
10, 884736, Note_on_c, 8, 57, 48
10, 885248, Note_on_c, 8, 57, 0
10, 885248, Note_on_c, 8, 61, 48
10, 885760, Note_on_c, 8, 61, 0
10, 885760, Note_on_c, 8, 64, 48
10, 886374, Note_on_c, 8, 64, 0
10, 890880, Note_on_c, 8, 47, 50
10, 891392, Note_on_c, 8, 47, 0
10, 891392, Note_on_c, 8, 52, 50
10, 891904, Note_on_c, 8, 52, 0
10, 891904, Note_on_c, 8, 56, 50
10, 892518, Note_on_c, 8, 56, 0
10, 892928, Note_on_c, 8, 52, 51
10, 893440, Note_on_c, 8, 52, 0
10, 893440, Note_on_c, 8, 56, 51
10, 893952, Note_on_c, 8, 56, 0
10, 893952, Note_on_c, 8, 57, 51
10, 894566, Note_on_c, 8, 57, 0
10, 899072, Note_on_c, 8, 40, 52
10, 899584, Note_on_c, 8, 40, 0
10, 899584, Note_on_c, 8, 45, 52
10, 900096, Note_on_c, 8, 45, 0
10, 900096, Note_on_c, 8, 49, 52
10, 900710, Note_on_c, 8, 49, 0
10, 901120, Note_on_c, 8, 45, 52
10, 901632, Note_on_c, 8, 45, 0
10, 901632, Note_on_c, 8, 49, 53
10, 902144, Note_on_c, 8, 49, 0
10, 902144, Note_on_c, 8, 50, 53
10, 902758, Note_on_c, 8, 50, 0
10, 903168, Note_on_c, 8, 38, 53
10, 903680, Note_on_c, 8, 38, 0
10, 903680, Note_on_c, 8, 42, 53
10, 904192, Note_on_c, 8, 42, 0
10, 904192, Note_on_c, 8, 45, 54
10, 904806, Note_on_c, 8, 45, 0
10, 905216, Note_on_c, 8, 42, 54
10, 905728, Note_on_c, 8, 42, 0
10, 905728, Note_on_c, 8, 45, 54
10, 906240, Note_on_c, 8, 45, 0
10, 906240, Note_on_c, 8, 48, 54
10, 906854, Note_on_c, 8, 48, 0
10, 907264, Note_on_c, 8, 47, 55
10, 907776, Note_on_c, 8, 47, 0
10, 907776, Note_on_c, 8, 48, 55
10, 908288, Note_on_c, 8, 48, 0
10, 908288, Note_on_c, 8, 50, 55
10, 908800, Note_on_c, 8, 50, 0
10, 908800, Note_on_c, 8, 48, 55
10, 909312, Note_on_c, 8, 48, 0
10, 909312, Note_on_c, 8, 47, 55
10, 909824, Note_on_c, 8, 47, 0
10, 909824, Note_on_c, 8, 45, 55
10, 910336, Note_on_c, 8, 45, 0
10, 910336, Note_on_c, 8, 43, 56
10, 910950, Note_on_c, 8, 43, 0
10, 911360, Note_on_c, 8, 59, 56
10, 911974, Note_on_c, 8, 59, 0
10, 912384, Note_on_c, 8, 55, 56
10, 912998, Note_on_c, 8, 55, 0
10, 913408, Note_on_c, 8, 52, 57
10, 914022, Note_on_c, 8, 52, 0
10, 914432, Note_on_c, 8, 49, 57
10, 915046, Note_on_c, 8, 49, 0
10, 915456, Note_on_c, 8, 52, 57
10, 916070, Note_on_c, 8, 52, 0
10, 916480, Note_on_c, 8, 49, 58
10, 917094, Note_on_c, 8, 49, 0
10, 917504, Note_on_c, 8, 45, 58
10, 918118, Note_on_c, 8, 45, 0
10, 918528, Note_on_c, 8, 42, 57
10, 919142, Note_on_c, 8, 42, 0
10, 919552, Note_on_c, 8, 57, 59
10, 920166, Note_on_c, 8, 57, 0
10, 920576, Note_on_c, 8, 54, 61
10, 921190, Note_on_c, 8, 54, 0
10, 921600, Note_on_c, 8, 50, 63
10, 922214, Note_on_c, 8, 50, 0
10, 922624, Note_on_c, 8, 47, 65
10, 923238, Note_on_c, 8, 47, 0
10, 923648, Note_on_c, 8, 50, 68
10, 924262, Note_on_c, 8, 50, 0
10, 924672, Note_on_c, 8, 47, 70
10, 925286, Note_on_c, 8, 47, 0
10, 925696, Note_on_c, 8, 43, 72
10, 926310, Note_on_c, 8, 43, 0
10, 926720, Note_on_c, 8, 40, 74
10, 927334, Note_on_c, 8, 40, 0
10, 927744, Note_on_c, 8, 59, 75
10, 928256, Note_on_c, 8, 59, 0
10, 928256, Note_on_c, 8, 55, 75
10, 928768, Note_on_c, 8, 55, 0
10, 928768, Note_on_c, 8, 52, 75
10, 929382, Note_on_c, 8, 52, 0
10, 929792, Note_on_c, 8, 55, 76
10, 930304, Note_on_c, 8, 55, 0
10, 930304, Note_on_c, 8, 52, 76
10, 930816, Note_on_c, 8, 52, 0
10, 930816, Note_on_c, 8, 49, 76
10, 931430, Note_on_c, 8, 49, 0
10, 931840, Note_on_c, 8, 55, 77
10, 932352, Note_on_c, 8, 55, 0
10, 932352, Note_on_c, 8, 52, 77
10, 932864, Note_on_c, 8, 52, 0
10, 932864, Note_on_c, 8, 49, 77
10, 933478, Note_on_c, 8, 49, 0
10, 933888, Note_on_c, 8, 52, 77
10, 934400, Note_on_c, 8, 52, 0
10, 934400, Note_on_c, 8, 49, 78
10, 934912, Note_on_c, 8, 49, 0
10, 934912, Note_on_c, 8, 45, 78
10, 935526, Note_on_c, 8, 45, 0
10, 935936, Note_on_c, 8, 45, 78
10, 936448, Note_on_c, 8, 45, 0
10, 936448, Note_on_c, 8, 49, 78
10, 936960, Note_on_c, 8, 49, 0
10, 936960, Note_on_c, 8, 52, 79
10, 937574, Note_on_c, 8, 52, 0
10, 937984, Note_on_c, 8, 49, 79
10, 938496, Note_on_c, 8, 49, 0
10, 938496, Note_on_c, 8, 52, 79
10, 939008, Note_on_c, 8, 52, 0
10, 939008, Note_on_c, 8, 57, 79
10, 939622, Note_on_c, 8, 57, 0
10, 940032, Note_on_c, 8, 52, 80
10, 940544, Note_on_c, 8, 52, 0
10, 940544, Note_on_c, 8, 57, 80
10, 941056, Note_on_c, 8, 57, 0
10, 941056, Note_on_c, 8, 61, 80
10, 941670, Note_on_c, 8, 61, 0
10, 942080, Note_on_c, 8, 57, 81
10, 942592, Note_on_c, 8, 57, 0
10, 942592, Note_on_c, 8, 61, 81
10, 943104, Note_on_c, 8, 61, 0
10, 943104, Note_on_c, 8, 62, 81
10, 943718, Note_on_c, 8, 62, 0
10, 944128, Note_on_c, 8, 50, 81
10, 944742, Note_on_c, 8, 50, 0
10, 945152, Note_on_c, 8, 62, 82
10, 945766, Note_on_c, 8, 62, 0
10, 946176, Note_on_c, 8, 59, 82
10, 946790, Note_on_c, 8, 59, 0
10, 947200, Note_on_c, 8, 54, 83
10, 947814, Note_on_c, 8, 54, 0
10, 948224, Note_on_c, 8, 59, 83
10, 948838, Note_on_c, 8, 59, 0
10, 949248, Note_on_c, 8, 55, 84
10, 949862, Note_on_c, 8, 55, 0
10, 950272, Note_on_c, 8, 57, 84
10, 950886, Note_on_c, 8, 57, 0
10, 951296, Note_on_c, 8, 50, 84
10, 951910, Note_on_c, 8, 50, 0
10, 952320, Note_on_c, 8, 38, 76
10, 952934, Note_on_c, 8, 38, 0
10, 953344, Note_on_c, 8, 50, 38
10, 957440, Note_on_c, 8, 50, 0
10, 957440, Note_on_c, 8, 49, 38
10, 959488, Note_on_c, 8, 49, 0
10, 959488, Note_on_c, 8, 47, 38
10, 960102, Note_on_c, 8, 47, 0
10, 960512, Note_on_c, 8, 50, 38
10, 961126, Note_on_c, 8, 50, 0
10, 961536, Note_on_c, 8, 55, 38
10, 965632, Note_on_c, 8, 55, 0
10, 965632, Note_on_c, 8, 54, 38
10, 967680, Note_on_c, 8, 54, 0
10, 967680, Note_on_c, 8, 52, 38
10, 969728, Note_on_c, 8, 52, 0
10, 969728, Note_on_c, 8, 57, 38
10, 973824, Note_on_c, 8, 57, 0
10, 973824, Note_on_c, 8, 55, 38
10, 975872, Note_on_c, 8, 55, 0
10, 975872, Note_on_c, 8, 54, 38
10, 977920, Note_on_c, 8, 54, 0
10, 977920, Note_on_c, 8, 55, 39
10, 982016, Note_on_c, 8, 55, 0
10, 982016, Note_on_c, 8, 54, 39
10, 984064, Note_on_c, 8, 54, 0
10, 984064, Note_on_c, 8, 52, 39
10, 984678, Note_on_c, 8, 52, 0
10, 985088, Note_on_c, 8, 40, 39
10, 985702, Note_on_c, 8, 40, 0
10, 986112, Note_on_c, 8, 52, 39
10, 986624, Note_on_c, 8, 52, 0
10, 986624, Note_on_c, 8, 54, 40
10, 987136, Note_on_c, 8, 54, 0
10, 987136, Note_on_c, 8, 50, 42
10, 987648, Note_on_c, 8, 50, 0
10, 987648, Note_on_c, 8, 52, 43
10, 988160, Note_on_c, 8, 52, 0
10, 988160, Note_on_c, 8, 54, 44
10, 988672, Note_on_c, 8, 54, 0
10, 988672, Note_on_c, 8, 55, 46
10, 989184, Note_on_c, 8, 55, 0
10, 989184, Note_on_c, 8, 52, 47
10, 989696, Note_on_c, 8, 52, 0
10, 989696, Note_on_c, 8, 54, 49
10, 990208, Note_on_c, 8, 54, 0
10, 990208, Note_on_c, 8, 55, 50
10, 990720, Note_on_c, 8, 55, 0
10, 990720, Note_on_c, 8, 57, 52
10, 991232, Note_on_c, 8, 57, 0
10, 991232, Note_on_c, 8, 54, 53
10, 991744, Note_on_c, 8, 54, 0
10, 991744, Note_on_c, 8, 55, 54
10, 992256, Note_on_c, 8, 55, 0
10, 992256, Note_on_c, 8, 57, 56
10, 992870, Note_on_c, 8, 57, 0
10, 993280, Note_on_c, 8, 45, 59
10, 993894, Note_on_c, 8, 45, 0
10, 995328, Note_on_c, 8, 57, 64
10, 995840, Note_on_c, 8, 57, 0
10, 995840, Note_on_c, 8, 55, 66
10, 996352, Note_on_c, 8, 55, 0
10, 996352, Note_on_c, 8, 54, 67
10, 996966, Note_on_c, 8, 54, 0
10, 997376, Note_on_c, 8, 55, 70
10, 997888, Note_on_c, 8, 55, 0
10, 997888, Note_on_c, 8, 54, 72
10, 998400, Note_on_c, 8, 54, 0
10, 998400, Note_on_c, 8, 52, 73
10, 999014, Note_on_c, 8, 52, 0
10, 999424, Note_on_c, 8, 54, 76
10, 999936, Note_on_c, 8, 54, 0
10, 999936, Note_on_c, 8, 52, 77
10, 1000448, Note_on_c, 8, 52, 0
10, 1000448, Note_on_c, 8, 50, 82
10, 1000960, Note_on_c, 8, 50, 0
10, 1000960, Note_on_c, 8, 49, 83
10, 1001472, Note_on_c, 8, 49, 0
10, 1001472, Note_on_c, 8, 50, 84
10, 1001984, Note_on_c, 8, 50, 0
10, 1001984, Note_on_c, 8, 52, 85
10, 1002496, Note_on_c, 8, 52, 0
10, 1002496, Note_on_c, 8, 54, 86
10, 1003008, Note_on_c, 8, 54, 0
10, 1003008, Note_on_c, 8, 55, 87
10, 1003520, Note_on_c, 8, 55, 0
10, 1003520, Note_on_c, 8, 52, 88
10, 1004032, Note_on_c, 8, 52, 0
10, 1004032, Note_on_c, 8, 54, 89
10, 1004544, Note_on_c, 8, 54, 0
10, 1004544, Note_on_c, 8, 55, 90
10, 1005056, Note_on_c, 8, 55, 0
10, 1005056, Note_on_c, 8, 57, 91
10, 1005568, Note_on_c, 8, 57, 0
10, 1005568, Note_on_c, 8, 54, 92
10, 1006080, Note_on_c, 8, 54, 0
10, 1006080, Note_on_c, 8, 55, 93
10, 1006592, Note_on_c, 8, 55, 0
10, 1006592, Note_on_c, 8, 57, 94
10, 1007104, Note_on_c, 8, 57, 0
10, 1007104, Note_on_c, 8, 59, 96
10, 1007616, Note_on_c, 8, 59, 0
10, 1007616, Note_on_c, 8, 55, 97
10, 1008128, Note_on_c, 8, 55, 0
10, 1008128, Note_on_c, 8, 57, 99
10, 1008640, Note_on_c, 8, 57, 0
10, 1008640, Note_on_c, 8, 59, 99
10, 1009152, Note_on_c, 8, 59, 0
10, 1009152, Note_on_c, 8, 61, 99
10, 1009664, Note_on_c, 8, 61, 0
10, 1009664, Note_on_c, 8, 57, 100
10, 1010176, Note_on_c, 8, 57, 0
10, 1010176, Note_on_c, 8, 59, 100
10, 1010688, Note_on_c, 8, 59, 0
10, 1010688, Note_on_c, 8, 61, 101
10, 1011200, Note_on_c, 8, 61, 0
10, 1011200, Note_on_c, 8, 62, 101
10, 1011712, Note_on_c, 8, 62, 0
10, 1011712, Note_on_c, 8, 59, 101
10, 1012224, Note_on_c, 8, 59, 0
10, 1012224, Note_on_c, 8, 61, 102
10, 1012736, Note_on_c, 8, 61, 0
10, 1012736, Note_on_c, 8, 62, 102
10, 1013350, Note_on_c, 8, 62, 0
10, 1013760, Note_on_c, 8, 59, 103
10, 1014374, Note_on_c, 8, 59, 0
10, 1014784, Note_on_c, 8, 55, 104
10, 1015398, Note_on_c, 8, 55, 0
10, 1015808, Note_on_c, 8, 57, 104
10, 1016422, Note_on_c, 8, 57, 0
10, 1016832, Note_on_c, 8, 50, 105
10, 1017446, Note_on_c, 8, 50, 0
10, 1018880, Note_on_c, 8, 47, 107
10, 1019494, Note_on_c, 8, 47, 0
10, 1020928, Note_on_c, 8, 42, 108
10, 1021542, Note_on_c, 8, 42, 0
10, 1022976, Note_on_c, 8, 45, 108
10, 1023590, Note_on_c, 8, 45, 0
10, 1025024, Note_on_c, 8, 38, 108
10, 1025638, Note_on_c, 8, 38, 0
10, 1033216, End_track
11, 0, Start_track
11, 0, Title_t, "Soprano I"
11, 0, Program_c, 10, 52
11, 0, Control_c, 10, 121, 127
11, 0, Control_c, 10, 1, 10
11, 0, Control_c, 10, 10, 20
11, 3072, Note_on_c, 10, 73, 89
11, 5120, Note_on_c, 10, 73, 0
11, 5120, Note_on_c, 10, 74, 89
11, 8192, Note_on_c, 10, 74, 0
11, 8192, Note_on_c, 10, 74, 89
11, 9216, Note_on_c, 10, 74, 0
11, 9216, Note_on_c, 10, 73, 89
11, 10240, Note_on_c, 10, 73, 0
11, 10240, Note_on_c, 10, 66, 89
11, 11264, Note_on_c, 10, 66, 0
11, 11264, Note_on_c, 10, 78, 89
11, 15360, Note_on_c, 10, 78, 0
11, 15360, Note_on_c, 10, 77, 89
11, 17408, Note_on_c, 10, 77, 0
11, 17408, Note_on_c, 10, 78, 89
11, 19251, Note_on_c, 10, 78, 0
11, 19456, Note_on_c, 10, 66, 89
11, 22528, Note_on_c, 10, 66, 0
11, 22528, Note_on_c, 10, 68, 89
11, 23552, Note_on_c, 10, 68, 0
11, 23552, Note_on_c, 10, 69, 89
11, 24576, Note_on_c, 10, 69, 0
11, 24576, Note_on_c, 10, 66, 89
11, 25600, Note_on_c, 10, 66, 0
11, 25600, Note_on_c, 10, 71, 89
11, 29696, Note_on_c, 10, 71, 0
11, 29696, Note_on_c, 10, 69, 89
11, 31539, Note_on_c, 10, 69, 0
11, 31744, Note_on_c, 10, 78, 89
11, 33792, Note_on_c, 10, 78, 0
11, 33792, Note_on_c, 10, 76, 89
11, 34816, Note_on_c, 10, 76, 0
11, 34816, Note_on_c, 10, 74, 89
11, 35840, Note_on_c, 10, 74, 0
11, 35840, Note_on_c, 10, 76, 89
11, 36864, Note_on_c, 10, 76, 0
11, 36864, Note_on_c, 10, 73, 89
11, 37888, Note_on_c, 10, 73, 0
11, 37888, Note_on_c, 10, 74, 89
11, 41984, Note_on_c, 10, 74, 0
11, 41984, Note_on_c, 10, 73, 89
11, 43827, Note_on_c, 10, 73, 0
11, 44032, Note_on_c, 10, 73, 89
11, 48128, Note_on_c, 10, 73, 0
11, 48128, Note_on_c, 10, 71, 89
11, 49152, Note_on_c, 10, 71, 0
11, 49152, Note_on_c, 10, 69, 89
11, 50176, Note_on_c, 10, 69, 0
11, 50176, Note_on_c, 10, 68, 89
11, 51200, Note_on_c, 10, 68, 0
11, 51200, Note_on_c, 10, 69, 89
11, 52224, Note_on_c, 10, 69, 0
11, 52224, Note_on_c, 10, 71, 89
11, 56320, Note_on_c, 10, 71, 0
11, 56320, Note_on_c, 10, 69, 89
11, 57344, Note_on_c, 10, 69, 0
11, 57344, Note_on_c, 10, 73, 89
11, 58368, Note_on_c, 10, 73, 0
11, 58368, Note_on_c, 10, 78, 88
11, 62464, Note_on_c, 10, 78, 0
11, 62464, Note_on_c, 10, 77, 74
11, 64307, Note_on_c, 10, 77, 0
11, 89088, Note_on_c, 10, 76, 50
11, 89702, Note_on_c, 10, 76, 0
11, 90112, Note_on_c, 10, 76, 50
11, 90726, Note_on_c, 10, 76, 0
11, 91136, Note_on_c, 10, 76, 50
11, 92160, Note_on_c, 10, 76, 0
11, 92160, Note_on_c, 10, 69, 51
11, 93184, Note_on_c, 10, 69, 0
11, 93184, Note_on_c, 10, 74, 51
11, 96256, Note_on_c, 10, 74, 0
11, 96256, Note_on_c, 10, 73, 51
11, 96768, Note_on_c, 10, 73, 0
11, 96768, Note_on_c, 10, 71, 52
11, 97280, Note_on_c, 10, 71, 0
11, 97280, Note_on_c, 10, 73, 52
11, 98304, Note_on_c, 10, 73, 0
11, 98304, Note_on_c, 10, 69, 52
11, 99328, Note_on_c, 10, 69, 0
11, 99328, Note_on_c, 10, 71, 52
11, 103424, Note_on_c, 10, 71, 0
11, 103424, Note_on_c, 10, 69, 53
11, 104038, Note_on_c, 10, 69, 0
11, 104448, Note_on_c, 10, 73, 53
11, 105472, Note_on_c, 10, 73, 0
11, 105472, Note_on_c, 10, 74, 53
11, 106496, Note_on_c, 10, 74, 0
11, 106496, Note_on_c, 10, 66, 54
11, 107520, Note_on_c, 10, 66, 0
11, 107520, Note_on_c, 10, 67, 54
11, 108544, Note_on_c, 10, 67, 0
11, 108544, Note_on_c, 10, 71, 54
11, 109568, Note_on_c, 10, 71, 0
11, 109568, Note_on_c, 10, 69, 54
11, 110592, Note_on_c, 10, 69, 0
11, 110592, Note_on_c, 10, 67, 54
11, 111616, Note_on_c, 10, 67, 0
11, 111616, Note_on_c, 10, 66, 53
11, 112640, Note_on_c, 10, 66, 0
11, 112640, Note_on_c, 10, 70, 56
11, 113664, Note_on_c, 10, 70, 0
11, 113664, Note_on_c, 10, 71, 58
11, 114688, Note_on_c, 10, 71, 0
11, 114688, Note_on_c, 10, 74, 61
11, 115712, Note_on_c, 10, 74, 0
11, 115712, Note_on_c, 10, 73, 63
11, 119808, Note_on_c, 10, 73, 0
11, 119808, Note_on_c, 10, 71, 74
11, 121856, Note_on_c, 10, 71, 0
11, 125952, Note_on_c, 10, 73, 89
11, 128000, Note_on_c, 10, 73, 0
11, 128000, Note_on_c, 10, 74, 90
11, 131072, Note_on_c, 10, 74, 0
11, 131072, Note_on_c, 10, 74, 90
11, 132096, Note_on_c, 10, 74, 0
11, 132096, Note_on_c, 10, 73, 90
11, 133120, Note_on_c, 10, 73, 0
11, 133120, Note_on_c, 10, 66, 90
11, 134144, Note_on_c, 10, 66, 0
11, 134144, Note_on_c, 10, 78, 90
11, 138240, Note_on_c, 10, 78, 0
11, 138240, Note_on_c, 10, 77, 90
11, 140288, Note_on_c, 10, 77, 0
11, 140288, Note_on_c, 10, 78, 90
11, 143053, Note_on_c, 10, 78, 0
11, 143360, Note_on_c, 10, 78, 89
11, 144384, Note_on_c, 10, 78, 0
11, 144384, Note_on_c, 10, 76, 89
11, 145408, Note_on_c, 10, 76, 0
11, 145408, Note_on_c, 10, 73, 89
11, 146432, Note_on_c, 10, 73, 0
11, 146432, Note_on_c, 10, 74, 89
11, 149504, Note_on_c, 10, 74, 0
11, 149504, Note_on_c, 10, 73, 89
11, 150016, Note_on_c, 10, 73, 0
11, 150016, Note_on_c, 10, 72, 89
11, 150528, Note_on_c, 10, 72, 0
11, 150528, Note_on_c, 10, 73, 89
11, 151142, Note_on_c, 10, 73, 0
11, 151552, Note_on_c, 10, 73, 89
11, 152166, Note_on_c, 10, 73, 0
11, 152576, Note_on_c, 10, 73, 89
11, 153600, Note_on_c, 10, 73, 0
11, 153600, Note_on_c, 10, 66, 89
11, 154624, Note_on_c, 10, 66, 0
11, 154624, Note_on_c, 10, 71, 89
11, 157696, Note_on_c, 10, 71, 0
11, 157696, Note_on_c, 10, 69, 89
11, 158208, Note_on_c, 10, 69, 0
11, 158208, Note_on_c, 10, 68, 88
11, 158720, Note_on_c, 10, 68, 0
11, 158720, Note_on_c, 10, 69, 88
11, 159744, Note_on_c, 10, 69, 0
11, 159744, Note_on_c, 10, 66, 88
11, 160768, Note_on_c, 10, 66, 0
11, 160768, Note_on_c, 10, 68, 88
11, 166912, Note_on_c, 10, 68, 0
11, 166912, Note_on_c, 10, 66, 88
11, 169984, Note_on_c, 10, 66, 0
11, 169984, Note_on_c, 10, 64, 88
11, 170496, Note_on_c, 10, 64, 0
11, 170496, Note_on_c, 10, 63, 88
11, 171008, Note_on_c, 10, 63, 0
11, 171008, Note_on_c, 10, 64, 88
11, 172032, Note_on_c, 10, 64, 0
11, 172032, Note_on_c, 10, 61, 88
11, 173056, Note_on_c, 10, 61, 0
11, 173056, Note_on_c, 10, 63, 88
11, 177152, Note_on_c, 10, 63, 0
11, 177152, Note_on_c, 10, 61, 88
11, 179200, Note_on_c, 10, 61, 0
11, 183296, Note_on_c, 10, 73, 88
11, 183910, Note_on_c, 10, 73, 0
11, 184320, Note_on_c, 10, 73, 88
11, 184934, Note_on_c, 10, 73, 0
11, 185344, Note_on_c, 10, 73, 88
11, 186368, Note_on_c, 10, 73, 0
11, 186368, Note_on_c, 10, 66, 88
11, 187392, Note_on_c, 10, 66, 0
11, 187392, Note_on_c, 10, 71, 88
11, 190464, Note_on_c, 10, 71, 0
11, 190464, Note_on_c, 10, 69, 88
11, 190976, Note_on_c, 10, 69, 0
11, 190976, Note_on_c, 10, 68, 88
11, 191488, Note_on_c, 10, 68, 0
11, 191488, Note_on_c, 10, 69, 88
11, 192512, Note_on_c, 10, 69, 0
11, 192512, Note_on_c, 10, 64, 88
11, 193536, Note_on_c, 10, 64, 0
11, 193536, Note_on_c, 10, 66, 88
11, 195584, Note_on_c, 10, 66, 0
11, 195584, Note_on_c, 10, 66, 88
11, 196198, Note_on_c, 10, 66, 0
11, 196608, Note_on_c, 10, 74, 88
11, 197632, Note_on_c, 10, 74, 0
11, 197632, Note_on_c, 10, 76, 88
11, 200704, Note_on_c, 10, 76, 0
11, 200704, Note_on_c, 10, 76, 88
11, 201728, Note_on_c, 10, 76, 0
11, 201728, Note_on_c, 10, 74, 88
11, 203776, Note_on_c, 10, 74, 0
11, 207872, Note_on_c, 10, 69, 88
11, 209920, Note_on_c, 10, 69, 0
11, 209920, Note_on_c, 10, 71, 88
11, 212992, Note_on_c, 10, 71, 0
11, 212992, Note_on_c, 10, 71, 88
11, 214016, Note_on_c, 10, 71, 0
11, 214016, Note_on_c, 10, 69, 88
11, 215040, Note_on_c, 10, 69, 0
11, 215040, Note_on_c, 10, 62, 88
11, 216064, Note_on_c, 10, 62, 0
11, 216064, Note_on_c, 10, 74, 88
11, 220160, Note_on_c, 10, 74, 0
11, 220160, Note_on_c, 10, 73, 79
11, 222208, Note_on_c, 10, 73, 0
11, 222208, Note_on_c, 10, 74, 71
11, 224256, Note_on_c, 10, 74, 0
11, 224256, Note_on_c, 10, 69, 63
11, 227328, Note_on_c, 10, 69, 0
11, 227328, Note_on_c, 10, 71, 46
11, 228352, Note_on_c, 10, 71, 0
11, 228352, Note_on_c, 10, 73, 46
11, 229376, Note_on_c, 10, 73, 0
11, 229376, Note_on_c, 10, 69, 46
11, 230400, Note_on_c, 10, 69, 0
11, 230400, Note_on_c, 10, 74, 46
11, 234496, Note_on_c, 10, 74, 0
11, 234496, Note_on_c, 10, 73, 47
11, 236544, Note_on_c, 10, 73, 0
11, 244736, Note_on_c, 10, 76, 48
11, 246784, Note_on_c, 10, 76, 0
11, 246784, Note_on_c, 10, 78, 48
11, 249856, Note_on_c, 10, 78, 0
11, 249856, Note_on_c, 10, 78, 49
11, 250880, Note_on_c, 10, 78, 0
11, 250880, Note_on_c, 10, 76, 49
11, 251904, Note_on_c, 10, 76, 0
11, 251904, Note_on_c, 10, 80, 50
11, 252928, Note_on_c, 10, 80, 0
11, 252928, Note_on_c, 10, 78, 50
11, 253952, Note_on_c, 10, 78, 0
11, 253952, Note_on_c, 10, 76, 50
11, 254976, Note_on_c, 10, 76, 0
11, 254976, Note_on_c, 10, 75, 50
11, 256000, Note_on_c, 10, 75, 0
11, 256000, Note_on_c, 10, 71, 51
11, 256614, Note_on_c, 10, 71, 0
11, 257024, Note_on_c, 10, 76, 51
11, 258048, Note_on_c, 10, 76, 0
11, 258048, Note_on_c, 10, 75, 51
11, 259072, Note_on_c, 10, 75, 0
11, 259072, Note_on_c, 10, 73, 51
11, 261120, Note_on_c, 10, 73, 0
11, 261120, Note_on_c, 10, 75, 52
11, 263168, Note_on_c, 10, 75, 0
11, 263168, Note_on_c, 10, 76, 53
11, 264192, Note_on_c, 10, 76, 0
11, 264192, Note_on_c, 10, 78, 56
11, 265216, Note_on_c, 10, 78, 0
11, 265216, Note_on_c, 10, 80, 59
11, 268288, Note_on_c, 10, 80, 0
11, 268288, Note_on_c, 10, 78, 68
11, 268800, Note_on_c, 10, 78, 0
11, 268800, Note_on_c, 10, 76, 70
11, 269312, Note_on_c, 10, 76, 0
11, 269312, Note_on_c, 10, 75, 72
11, 270336, Note_on_c, 10, 75, 0
11, 270336, Note_on_c, 10, 73, 75
11, 270950, Note_on_c, 10, 73, 0
11, 271360, Note_on_c, 10, 72, 78
11, 272384, Note_on_c, 10, 72, 0
11, 272384, Note_on_c, 10, 68, 81
11, 273408, Note_on_c, 10, 68, 0
11, 273408, Note_on_c, 10, 73, 84
11, 275456, Note_on_c, 10, 73, 0
11, 275456, Note_on_c, 10, 73, 91
11, 277504, Note_on_c, 10, 73, 0
11, 277504, Note_on_c, 10, 72, 96
11, 279552, Note_on_c, 10, 72, 0
11, 279552, Note_on_c, 10, 73, 96
11, 281395, Note_on_c, 10, 73, 0
11, 281518, Control_c, 10, 7, 81
11, 281600, Note_on_c, 10, 73, 95
11, 282214, Note_on_c, 10, 73, 0
11, 282624, Note_on_c, 10, 73, 95
11, 283238, Note_on_c, 10, 73, 0
11, 283648, Note_on_c, 10, 73, 95
11, 284672, Note_on_c, 10, 73, 0
11, 284672, Note_on_c, 10, 66, 95
11, 285696, Note_on_c, 10, 66, 0
11, 285696, Note_on_c, 10, 71, 95
11, 288768, Note_on_c, 10, 71, 0
11, 288768, Note_on_c, 10, 69, 95
11, 289280, Note_on_c, 10, 69, 0
11, 289280, Note_on_c, 10, 68, 95
11, 289792, Note_on_c, 10, 68, 0
11, 289792, Note_on_c, 10, 69, 95
11, 290816, Note_on_c, 10, 69, 0
11, 290816, Note_on_c, 10, 66, 95
11, 291840, Note_on_c, 10, 66, 0
11, 291840, Note_on_c, 10, 68, 95
11, 292864, Note_on_c, 10, 68, 0
11, 292864, Note_on_c, 10, 73, 95
11, 294912, Note_on_c, 10, 73, 0
11, 294912, Note_on_c, 10, 72, 95
11, 295936, Note_on_c, 10, 72, 0
11, 295936, Note_on_c, 10, 73, 95
11, 297774, Control_c, 10, 7, 54
11, 297779, Note_on_c, 10, 73, 0
11, 297984, Note_on_c, 10, 78, 95
11, 298598, Note_on_c, 10, 78, 0
11, 299008, Note_on_c, 10, 78, 95
11, 299622, Note_on_c, 10, 78, 0
11, 300032, Note_on_c, 10, 78, 95
11, 301056, Note_on_c, 10, 78, 0
11, 301056, Note_on_c, 10, 71, 95
11, 302080, Note_on_c, 10, 71, 0
11, 302080, Note_on_c, 10, 76, 95
11, 305152, Note_on_c, 10, 76, 0
11, 305152, Note_on_c, 10, 74, 95
11, 305664, Note_on_c, 10, 74, 0
11, 305664, Note_on_c, 10, 73, 95
11, 306176, Note_on_c, 10, 73, 0
11, 306176, Note_on_c, 10, 74, 95
11, 307200, Note_on_c, 10, 74, 0
11, 307200, Note_on_c, 10, 71, 95
11, 308224, Note_on_c, 10, 71, 0
11, 308224, Note_on_c, 10, 73, 95
11, 309248, Note_on_c, 10, 73, 0
11, 309248, Note_on_c, 10, 74, 95
11, 311296, Note_on_c, 10, 74, 0
11, 311296, Note_on_c, 10, 73, 95
11, 313344, Note_on_c, 10, 73, 0
11, 313344, Note_on_c, 10, 71, 95
11, 313958, Note_on_c, 10, 71, 0
11, 314368, Note_on_c, 10, 78, 95
11, 317440, Note_on_c, 10, 78, 0
11, 317440, Note_on_c, 10, 76, 95
11, 318464, Note_on_c, 10, 76, 0
11, 318464, Note_on_c, 10, 74, 95
11, 319488, Note_on_c, 10, 74, 0
11, 319488, Note_on_c, 10, 73, 95
11, 321536, Note_on_c, 10, 73, 0
11, 321536, Note_on_c, 10, 74, 95
11, 322048, Note_on_c, 10, 74, 0
11, 322048, Note_on_c, 10, 73, 95
11, 322560, Note_on_c, 10, 73, 0
11, 322560, Note_on_c, 10, 71, 95
11, 323072, Note_on_c, 10, 71, 0
11, 323072, Note_on_c, 10, 69, 95
11, 323584, Note_on_c, 10, 69, 0
11, 323584, Note_on_c, 10, 71, 95
11, 324608, Note_on_c, 10, 71, 0
11, 324608, Note_on_c, 10, 64, 95
11, 326656, Note_on_c, 10, 64, 0
11, 331776, Note_on_c, 10, 71, 95
11, 332800, Note_on_c, 10, 71, 0
11, 332800, Note_on_c, 10, 73, 95
11, 335872, Note_on_c, 10, 73, 0
11, 335872, Note_on_c, 10, 73, 95
11, 336896, Note_on_c, 10, 73, 0
11, 336896, Note_on_c, 10, 71, 95
11, 337920, Note_on_c, 10, 71, 0
11, 337920, Note_on_c, 10, 66, 95
11, 338944, Note_on_c, 10, 66, 0
11, 338944, Note_on_c, 10, 76, 95
11, 343040, Note_on_c, 10, 76, 0
11, 343040, Note_on_c, 10, 74, 95
11, 345088, Note_on_c, 10, 74, 0
11, 345088, Note_on_c, 10, 73, 95
11, 346931, Note_on_c, 10, 73, 0
11, 347136, Note_on_c, 10, 73, 95
11, 349184, Note_on_c, 10, 73, 0
11, 349184, Note_on_c, 10, 71, 95
11, 352256, Note_on_c, 10, 71, 0
11, 352256, Note_on_c, 10, 68, 95
11, 353280, Note_on_c, 10, 68, 0
11, 353280, Note_on_c, 10, 69, 95
11, 354304, Note_on_c, 10, 69, 0
11, 354304, Note_on_c, 10, 66, 95
11, 355328, Note_on_c, 10, 66, 0
11, 357376, Note_on_c, 10, 76, 95
11, 357990, Note_on_c, 10, 76, 0
11, 358400, Note_on_c, 10, 76, 95
11, 359014, Note_on_c, 10, 76, 0
11, 359424, Note_on_c, 10, 76, 95
11, 360448, Note_on_c, 10, 76, 0
11, 360448, Note_on_c, 10, 69, 95
11, 361472, Note_on_c, 10, 69, 0
11, 361472, Note_on_c, 10, 74, 95
11, 364544, Note_on_c, 10, 74, 0
11, 364544, Note_on_c, 10, 73, 95
11, 365056, Note_on_c, 10, 73, 0
11, 365056, Note_on_c, 10, 71, 95
11, 365568, Note_on_c, 10, 71, 0
11, 365568, Note_on_c, 10, 73, 95
11, 366592, Note_on_c, 10, 73, 0
11, 366592, Note_on_c, 10, 66, 95
11, 367616, Note_on_c, 10, 66, 0
11, 367616, Note_on_c, 10, 78, 95
11, 370688, Note_on_c, 10, 78, 0
11, 370688, Note_on_c, 10, 77, 95
11, 371200, Note_on_c, 10, 77, 0
11, 371200, Note_on_c, 10, 75, 95
11, 371712, Note_on_c, 10, 75, 0
11, 371712, Note_on_c, 10, 77, 95
11, 373760, Note_on_c, 10, 77, 0
11, 373760, Note_on_c, 10, 78, 95
11, 377856, Note_on_c, 10, 78, 0
11, 379904, Note_on_c, 10, 74, 95
11, 380518, Note_on_c, 10, 74, 0
11, 380928, Note_on_c, 10, 74, 95
11, 381542, Note_on_c, 10, 74, 0
11, 381952, Note_on_c, 10, 74, 95
11, 382976, Note_on_c, 10, 74, 0
11, 382976, Note_on_c, 10, 68, 95
11, 384000, Note_on_c, 10, 68, 0
11, 384000, Note_on_c, 10, 73, 95
11, 387072, Note_on_c, 10, 73, 0
11, 387072, Note_on_c, 10, 71, 95
11, 387584, Note_on_c, 10, 71, 0
11, 387584, Note_on_c, 10, 69, 95
11, 388096, Note_on_c, 10, 69, 0
11, 388096, Note_on_c, 10, 71, 95
11, 389120, Note_on_c, 10, 71, 0
11, 389120, Note_on_c, 10, 68, 95
11, 390144, Note_on_c, 10, 68, 0
11, 390144, Note_on_c, 10, 69, 95
11, 396288, Note_on_c, 10, 69, 0
11, 396288, Note_on_c, 10, 68, 95
11, 398336, Note_on_c, 10, 68, 0
11, 400384, Note_on_c, 10, 71, 95
11, 402432, Note_on_c, 10, 71, 0
11, 402432, Note_on_c, 10, 73, 95
11, 405504, Note_on_c, 10, 73, 0
11, 405504, Note_on_c, 10, 73, 95
11, 406528, Note_on_c, 10, 73, 0
11, 406528, Note_on_c, 10, 71, 95
11, 407552, Note_on_c, 10, 71, 0
11, 407552, Note_on_c, 10, 64, 95
11, 408576, Note_on_c, 10, 64, 0
11, 408576, Note_on_c, 10, 76, 95
11, 412672, Note_on_c, 10, 76, 0
11, 412672, Note_on_c, 10, 73, 95
11, 414720, Note_on_c, 10, 73, 0
11, 414720, Note_on_c, 10, 70, 95
11, 416768, Note_on_c, 10, 70, 0
11, 424960, Note_on_c, 10, 69, 95
11, 425574, Note_on_c, 10, 69, 0
11, 425984, Note_on_c, 10, 69, 95
11, 426598, Note_on_c, 10, 69, 0
11, 427008, Note_on_c, 10, 69, 95
11, 428032, Note_on_c, 10, 69, 0
11, 428032, Note_on_c, 10, 62, 95
11, 429056, Note_on_c, 10, 62, 0
11, 429056, Note_on_c, 10, 67, 95
11, 432128, Note_on_c, 10, 67, 0
11, 432128, Note_on_c, 10, 66, 95
11, 432640, Note_on_c, 10, 66, 0
11, 432640, Note_on_c, 10, 64, 95
11, 433152, Note_on_c, 10, 64, 0
11, 433152, Note_on_c, 10, 66, 95
11, 434176, Note_on_c, 10, 66, 0
11, 434176, Note_on_c, 10, 62, 95
11, 435200, Note_on_c, 10, 62, 0
11, 435200, Note_on_c, 10, 67, 95
11, 437248, Note_on_c, 10, 67, 0
11, 437248, Note_on_c, 10, 66, 95
11, 439296, Note_on_c, 10, 66, 0
11, 439296, Note_on_c, 10, 64, 95
11, 441344, Note_on_c, 10, 64, 0
11, 445353, Control_c, 10, 7, 105
11, 449536, Note_on_c, 10, 72, 95
11, 451584, Note_on_c, 10, 72, 0
11, 451584, Note_on_c, 10, 74, 95
11, 454656, Note_on_c, 10, 74, 0
11, 454656, Note_on_c, 10, 72, 95
11, 455680, Note_on_c, 10, 72, 0
11, 455680, Note_on_c, 10, 71, 95
11, 456704, Note_on_c, 10, 71, 0
11, 456704, Note_on_c, 10, 64, 95
11, 457728, Note_on_c, 10, 64, 0
11, 457728, Note_on_c, 10, 76, 95
11, 461824, Note_on_c, 10, 76, 0
11, 461824, Note_on_c, 10, 75, 95
11, 463872, Note_on_c, 10, 75, 0
11, 463872, Note_on_c, 10, 76, 95
11, 465920, Note_on_c, 10, 76, 0
11, 470016, Note_on_c, 10, 74, 95
11, 472064, Note_on_c, 10, 74, 0
11, 472064, Note_on_c, 10, 74, 95
11, 474112, Note_on_c, 10, 74, 0
11, 474112, Note_on_c, 10, 73, 95
11, 476160, Note_on_c, 10, 73, 0
11, 476160, Note_on_c, 10, 72, 95
11, 478208, Note_on_c, 10, 72, 0
11, 478208, Note_on_c, 10, 71, 95
11, 479232, Note_on_c, 10, 71, 0
11, 479232, Note_on_c, 10, 69, 95
11, 480256, Note_on_c, 10, 69, 0
11, 480256, Note_on_c, 10, 71, 89
11, 481280, Note_on_c, 10, 71, 0
11, 481280, Note_on_c, 10, 69, 71
11, 482304, Note_on_c, 10, 69, 0
11, 482304, Note_on_c, 10, 67, 51
11, 485376, Note_on_c, 10, 67, 0
11, 485376, Note_on_c, 10, 66, 49
11, 486400, Note_on_c, 10, 66, 0
11, 486400, Note_on_c, 10, 64, 49
11, 489472, Note_on_c, 10, 64, 0
11, 489472, Note_on_c, 10, 66, 46
11, 490496, Note_on_c, 10, 66, 0
11, 490496, Note_on_c, 10, 67, 46
11, 491520, Note_on_c, 10, 67, 0
11, 491520, Note_on_c, 10, 69, 45
11, 492544, Note_on_c, 10, 69, 0
11, 492544, Note_on_c, 10, 70, 44
11, 500736, Note_on_c, 10, 70, 0
11, 500736, Note_on_c, 10, 69, 39
11, 502569, Control_c, 10, 7, 73
11, 502579, Note_on_c, 10, 69, 0
11, 502688, Control_c, 10, 7, 74
11, 502784, Note_on_c, 10, 74, 62
11, 502806, Control_c, 10, 7, 75
11, 502925, Control_c, 10, 7, 76
11, 503043, Control_c, 10, 7, 77
11, 503161, Control_c, 10, 7, 78
11, 503280, Control_c, 10, 7, 79
11, 503398, Control_c, 10, 7, 80
11, 503516, Control_c, 10, 7, 81
11, 503635, Control_c, 10, 7, 82
11, 503753, Control_c, 10, 7, 83
11, 503871, Control_c, 10, 7, 84
11, 503990, Control_c, 10, 7, 85
11, 504108, Control_c, 10, 7, 86
11, 504226, Control_c, 10, 7, 87
11, 504345, Control_c, 10, 7, 88
11, 504463, Control_c, 10, 7, 89
11, 504581, Control_c, 10, 7, 90
11, 504700, Control_c, 10, 7, 91
11, 504818, Control_c, 10, 7, 92
11, 504936, Control_c, 10, 7, 93
11, 505055, Control_c, 10, 7, 94
11, 505173, Control_c, 10, 7, 95
11, 505291, Control_c, 10, 7, 96
11, 505410, Control_c, 10, 7, 97
11, 505528, Control_c, 10, 7, 98
11, 505646, Control_c, 10, 7, 99
11, 505765, Control_c, 10, 7, 100
11, 505883, Control_c, 10, 7, 101
11, 506001, Control_c, 10, 7, 102
11, 506120, Control_c, 10, 7, 103
11, 506238, Control_c, 10, 7, 104
11, 506356, Control_c, 10, 7, 105
11, 506475, Control_c, 10, 7, 106
11, 506593, Control_c, 10, 7, 107
11, 506711, Control_c, 10, 7, 108
11, 506830, Control_c, 10, 7, 109
11, 506880, Note_on_c, 10, 74, 0
11, 506880, Note_on_c, 10, 75, 74
11, 506948, Control_c, 10, 7, 110
11, 507066, Control_c, 10, 7, 111
11, 507185, Control_c, 10, 7, 112
11, 507303, Control_c, 10, 7, 113
11, 507421, Control_c, 10, 7, 114
11, 507540, Control_c, 10, 7, 115
11, 507658, Control_c, 10, 7, 116
11, 507776, Control_c, 10, 7, 117
11, 507895, Control_c, 10, 7, 118
11, 508013, Control_c, 10, 7, 119
11, 508131, Control_c, 10, 7, 120
11, 508250, Control_c, 10, 7, 121
11, 508368, Control_c, 10, 7, 122
11, 508486, Control_c, 10, 7, 123
11, 508605, Control_c, 10, 7, 124
11, 508723, Control_c, 10, 7, 125
11, 508841, Control_c, 10, 7, 126
11, 508928, Note_on_c, 10, 75, 0
11, 508928, Note_on_c, 10, 75, 74
11, 517120, Note_on_c, 10, 75, 0
11, 517120, Note_on_c, 10, 74, 74
11, 518963, Note_on_c, 10, 74, 0
11, 519168, Note_on_c, 10, 76, 74
11, 521216, Note_on_c, 10, 76, 0
11, 521216, Note_on_c, 10, 77, 73
11, 527360, Note_on_c, 10, 77, 0
11, 527360, Note_on_c, 10, 76, 70
11, 528384, Note_on_c, 10, 76, 0
11, 528384, Note_on_c, 10, 74, 70
11, 529408, Note_on_c, 10, 74, 0
11, 529408, Note_on_c, 10, 73, 69
11, 530432, Note_on_c, 10, 73, 0
11, 530432, Note_on_c, 10, 69, 69
11, 531456, Note_on_c, 10, 69, 0
11, 531456, Note_on_c, 10, 71, 69
11, 532480, Note_on_c, 10, 71, 0
11, 532480, Note_on_c, 10, 73, 68
11, 533504, Note_on_c, 10, 73, 0
11, 533504, Note_on_c, 10, 74, 68
11, 534528, Note_on_c, 10, 74, 0
11, 534528, Note_on_c, 10, 69, 67
11, 535552, Note_on_c, 10, 69, 0
11, 535552, Note_on_c, 10, 65, 67
11, 536576, Note_on_c, 10, 65, 0
11, 536576, Note_on_c, 10, 62, 66
11, 537600, Note_on_c, 10, 62, 0
11, 537600, Note_on_c, 10, 68, 66
11, 541696, Note_on_c, 10, 68, 0
11, 541696, Note_on_c, 10, 67, 64
11, 545792, Note_on_c, 10, 67, 0
11, 545792, Note_on_c, 10, 66, 63
11, 546089, Control_c, 10, 7, 127
11, 546333, Control_c, 10, 7, 126
11, 546577, Control_c, 10, 7, 125
11, 546820, Control_c, 10, 7, 124
11, 547064, Control_c, 10, 7, 123
11, 547307, Control_c, 10, 7, 122
11, 547551, Control_c, 10, 7, 121
11, 547794, Control_c, 10, 7, 120
11, 548038, Control_c, 10, 7, 119
11, 548281, Control_c, 10, 7, 118
11, 548525, Control_c, 10, 7, 117
11, 548768, Control_c, 10, 7, 116
11, 549012, Control_c, 10, 7, 115
11, 549255, Control_c, 10, 7, 114
11, 549499, Control_c, 10, 7, 113
11, 549742, Control_c, 10, 7, 112
11, 549888, Note_on_c, 10, 66, 0
11, 549888, Note_on_c, 10, 65, 56
11, 549986, Control_c, 10, 7, 111
11, 550229, Control_c, 10, 7, 110
11, 550473, Control_c, 10, 7, 109
11, 550716, Control_c, 10, 7, 108
11, 550960, Control_c, 10, 7, 107
11, 551203, Control_c, 10, 7, 106
11, 551447, Control_c, 10, 7, 105
11, 551690, Control_c, 10, 7, 104
11, 551934, Control_c, 10, 7, 103
11, 552177, Control_c, 10, 7, 102
11, 552421, Control_c, 10, 7, 101
11, 552664, Control_c, 10, 7, 100
11, 552908, Control_c, 10, 7, 99
11, 553151, Control_c, 10, 7, 98
11, 553395, Control_c, 10, 7, 97
11, 553638, Control_c, 10, 7, 96
11, 553882, Control_c, 10, 7, 95
11, 554125, Control_c, 10, 7, 94
11, 554369, Control_c, 10, 7, 93
11, 554612, Control_c, 10, 7, 92
11, 554856, Control_c, 10, 7, 91
11, 555099, Control_c, 10, 7, 90
11, 555343, Control_c, 10, 7, 89
11, 555586, Control_c, 10, 7, 88
11, 555830, Control_c, 10, 7, 87
11, 556032, Note_on_c, 10, 65, 0
11, 556032, Note_on_c, 10, 64, 45
11, 556073, Control_c, 10, 7, 86
11, 557056, Note_on_c, 10, 64, 0
11, 557056, Note_on_c, 10, 62, 43
11, 558080, Note_on_c, 10, 62, 0
11, 558080, Note_on_c, 10, 64, 41
11, 559923, Note_on_c, 10, 64, 0
11, 560128, Note_on_c, 10, 69, 39
11, 561152, Note_on_c, 10, 69, 0
11, 561152, Note_on_c, 10, 70, 39
11, 562176, Note_on_c, 10, 70, 0
11, 562176, Note_on_c, 10, 72, 39
11, 566272, Note_on_c, 10, 72, 0
11, 566272, Note_on_c, 10, 72, 39
11, 570368, Note_on_c, 10, 72, 0
11, 570368, Note_on_c, 10, 73, 39
11, 572211, Note_on_c, 10, 73, 0
11, 572416, Note_on_c, 10, 61, 39
11, 573440, Note_on_c, 10, 61, 0
11, 573440, Note_on_c, 10, 71, 39
11, 574464, Note_on_c, 10, 71, 0
11, 574464, Note_on_c, 10, 69, 39
11, 579584, Note_on_c, 10, 69, 0
11, 579584, Note_on_c, 10, 69, 39
11, 580608, Note_on_c, 10, 69, 0
11, 580608, Note_on_c, 10, 70, 39
11, 583680, Note_on_c, 10, 70, 0
11, 583680, Note_on_c, 10, 69, 49
11, 584602, Note_on_c, 10, 69, 0
11, 584704, Note_on_c, 10, 69, 56
11, 586665, Control_c, 10, 7, 95
11, 586752, Note_on_c, 10, 69, 0
11, 586752, Note_on_c, 10, 69, 56
11, 586892, Control_c, 10, 7, 94
11, 587118, Control_c, 10, 7, 93
11, 587344, Control_c, 10, 7, 92
11, 587570, Control_c, 10, 7, 91
11, 587776, Note_on_c, 10, 69, 0
11, 587776, Note_on_c, 10, 65, 56
11, 587797, Control_c, 10, 7, 90
11, 588023, Control_c, 10, 7, 89
11, 588249, Control_c, 10, 7, 88
11, 588475, Control_c, 10, 7, 87
11, 588702, Control_c, 10, 7, 86
11, 588800, Note_on_c, 10, 65, 0
11, 588800, Note_on_c, 10, 61, 56
11, 588928, Control_c, 10, 7, 85
11, 589154, Control_c, 10, 7, 84
11, 589380, Control_c, 10, 7, 83
11, 589607, Control_c, 10, 7, 82
11, 589824, Note_on_c, 10, 61, 0
11, 589824, Note_on_c, 10, 62, 56
11, 589833, Control_c, 10, 7, 81
11, 590059, Control_c, 10, 7, 80
11, 590285, Control_c, 10, 7, 79
11, 590511, Control_c, 10, 7, 78
11, 590738, Control_c, 10, 7, 77
11, 590848, Note_on_c, 10, 62, 0
11, 590848, Note_on_c, 10, 68, 53
11, 590964, Control_c, 10, 7, 76
11, 591190, Control_c, 10, 7, 75
11, 591416, Control_c, 10, 7, 74
11, 591643, Control_c, 10, 7, 73
11, 591869, Control_c, 10, 7, 72
11, 592095, Control_c, 10, 7, 71
11, 592321, Control_c, 10, 7, 70
11, 592548, Control_c, 10, 7, 69
11, 592774, Control_c, 10, 7, 68
11, 593000, Control_c, 10, 7, 67
11, 593226, Control_c, 10, 7, 66
11, 593452, Control_c, 10, 7, 65
11, 593679, Control_c, 10, 7, 64
11, 593905, Control_c, 10, 7, 63
11, 594131, Control_c, 10, 7, 62
11, 594357, Control_c, 10, 7, 61
11, 594584, Control_c, 10, 7, 60
11, 594810, Control_c, 10, 7, 59
11, 594944, Note_on_c, 10, 68, 0
11, 594944, Note_on_c, 10, 69, 53
11, 595036, Control_c, 10, 7, 58
11, 595262, Control_c, 10, 7, 57
11, 595489, Control_c, 10, 7, 56
11, 595715, Control_c, 10, 7, 55
11, 595941, Control_c, 10, 7, 54
11, 596167, Control_c, 10, 7, 53
11, 596393, Control_c, 10, 7, 52
11, 596787, Note_on_c, 10, 69, 0
11, 596905, Control_c, 10, 7, 98
11, 596983, Control_c, 10, 7, 99
11, 596992, Note_on_c, 10, 69, 48
11, 597061, Control_c, 10, 7, 100
11, 597139, Control_c, 10, 7, 101
11, 597216, Control_c, 10, 7, 102
11, 597294, Control_c, 10, 7, 103
11, 597372, Control_c, 10, 7, 104
11, 597449, Control_c, 10, 7, 105
11, 597527, Control_c, 10, 7, 106
11, 597605, Control_c, 10, 7, 107
11, 597606, Note_on_c, 10, 69, 0
11, 597683, Control_c, 10, 7, 108
11, 597760, Control_c, 10, 7, 109
11, 597838, Control_c, 10, 7, 110
11, 597916, Control_c, 10, 7, 111
11, 597993, Control_c, 10, 7, 112
11, 598016, Note_on_c, 10, 69, 64
11, 598071, Control_c, 10, 7, 113
11, 598149, Control_c, 10, 7, 114
11, 598227, Control_c, 10, 7, 115
11, 598304, Control_c, 10, 7, 116
11, 598382, Control_c, 10, 7, 117
11, 598460, Control_c, 10, 7, 118
11, 598537, Control_c, 10, 7, 119
11, 598615, Control_c, 10, 7, 120
11, 598630, Note_on_c, 10, 69, 0
11, 598693, Control_c, 10, 7, 121
11, 598771, Control_c, 10, 7, 122
11, 598848, Control_c, 10, 7, 123
11, 598926, Control_c, 10, 7, 124
11, 599004, Control_c, 10, 7, 125
11, 599040, Note_on_c, 10, 69, 76
11, 599081, Control_c, 10, 7, 126
11, 601088, Note_on_c, 10, 69, 0
11, 601088, Note_on_c, 10, 66, 79
11, 601702, Note_on_c, 10, 66, 0
11, 602112, Note_on_c, 10, 62, 80
11, 602726, Note_on_c, 10, 62, 0
11, 603136, Note_on_c, 10, 74, 81
11, 609280, Note_on_c, 10, 74, 0
11, 609280, Note_on_c, 10, 69, 90
11, 609894, Note_on_c, 10, 69, 0
11, 610304, Note_on_c, 10, 66, 91
11, 610918, Note_on_c, 10, 66, 0
11, 611328, Note_on_c, 10, 78, 93
11, 616038, Note_on_c, 10, 78, 0
11, 616448, Note_on_c, 10, 78, 98
11, 617062, Note_on_c, 10, 78, 0
11, 617472, Note_on_c, 10, 78, 98
11, 618086, Note_on_c, 10, 78, 0
11, 618496, Note_on_c, 10, 78, 98
11, 619110, Note_on_c, 10, 78, 0
11, 619520, Note_on_c, 10, 78, 98
11, 620544, Note_on_c, 10, 78, 0
11, 620544, Note_on_c, 10, 76, 98
11, 621056, Note_on_c, 10, 76, 0
11, 621056, Note_on_c, 10, 78, 98
11, 621568, Note_on_c, 10, 78, 0
11, 621568, Note_on_c, 10, 79, 98
11, 622182, Note_on_c, 10, 79, 0
11, 622592, Note_on_c, 10, 78, 98
11, 623104, Note_on_c, 10, 78, 0
11, 623104, Note_on_c, 10, 76, 98
11, 623616, Note_on_c, 10, 76, 0
11, 623616, Note_on_c, 10, 78, 98
11, 624230, Note_on_c, 10, 78, 0
11, 624640, Note_on_c, 10, 81, 98
11, 625254, Note_on_c, 10, 81, 0
11, 625664, Note_on_c, 10, 78, 98
11, 626278, Note_on_c, 10, 78, 0
11, 626688, Note_on_c, 10, 74, 98
11, 627302, Note_on_c, 10, 74, 0
11, 627712, Note_on_c, 10, 76, 99
11, 631808, Note_on_c, 10, 76, 0
11, 631808, Note_on_c, 10, 74, 110
11, 633856, Note_on_c, 10, 74, 0
11, 683008, Note_on_c, 10, 69, 88
11, 685056, Note_on_c, 10, 69, 0
11, 685056, Note_on_c, 10, 76, 94
11, 689766, Note_on_c, 10, 76, 0
11, 690176, Note_on_c, 10, 74, 97
11, 690790, Note_on_c, 10, 74, 0
11, 691200, Note_on_c, 10, 74, 98
11, 693862, Note_on_c, 10, 74, 0
11, 694272, Note_on_c, 10, 74, 71
11, 694886, Note_on_c, 10, 74, 0
11, 695296, Note_on_c, 10, 73, 72
11, 695910, Note_on_c, 10, 73, 0
11, 696320, Note_on_c, 10, 73, 73
11, 696934, Note_on_c, 10, 73, 0
11, 697344, Note_on_c, 10, 74, 74
11, 698368, Note_on_c, 10, 74, 0
11, 698368, Note_on_c, 10, 66, 75
11, 698880, Note_on_c, 10, 66, 0
11, 698880, Note_on_c, 10, 69, 75
11, 699392, Note_on_c, 10, 69, 0
11, 699392, Note_on_c, 10, 74, 76
11, 700416, Note_on_c, 10, 74, 0
11, 700416, Note_on_c, 10, 69, 77
11, 700928, Note_on_c, 10, 69, 0
11, 700928, Note_on_c, 10, 74, 77
11, 701440, Note_on_c, 10, 74, 0
11, 701440, Note_on_c, 10, 78, 78
11, 702054, Note_on_c, 10, 78, 0
11, 702464, Note_on_c, 10, 74, 78
11, 703078, Note_on_c, 10, 74, 0
11, 703488, Note_on_c, 10, 69, 79
11, 704102, Note_on_c, 10, 69, 0
11, 704512, Note_on_c, 10, 69, 80
11, 705126, Note_on_c, 10, 69, 0
11, 705536, Note_on_c, 10, 69, 81
11, 713728, Note_on_c, 10, 69, 0
11, 713728, Note_on_c, 10, 69, 89
11, 715776, Note_on_c, 10, 69, 0
11, 717824, Note_on_c, 10, 69, 93
11, 718438, Note_on_c, 10, 69, 0
11, 718848, Note_on_c, 10, 69, 94
11, 719462, Note_on_c, 10, 69, 0
11, 719872, Note_on_c, 10, 69, 95
11, 720486, Note_on_c, 10, 69, 0
11, 720896, Note_on_c, 10, 69, 96
11, 721510, Note_on_c, 10, 69, 0
11, 721920, Note_on_c, 10, 73, 97
11, 722944, Note_on_c, 10, 73, 0
11, 722944, Note_on_c, 10, 69, 98
11, 723456, Note_on_c, 10, 69, 0
11, 723456, Note_on_c, 10, 73, 98
11, 723968, Note_on_c, 10, 73, 0
11, 723968, Note_on_c, 10, 76, 99
11, 724992, Note_on_c, 10, 76, 0
11, 724992, Note_on_c, 10, 73, 100
11, 725504, Note_on_c, 10, 73, 0
11, 725504, Note_on_c, 10, 76, 100
11, 726016, Note_on_c, 10, 76, 0
11, 726016, Note_on_c, 10, 79, 101
11, 726630, Note_on_c, 10, 79, 0
11, 727040, Note_on_c, 10, 79, 102
11, 727654, Note_on_c, 10, 79, 0
11, 728064, Note_on_c, 10, 81, 103
11, 728576, Note_on_c, 10, 81, 0
11, 728576, Note_on_c, 10, 79, 103
11, 729088, Note_on_c, 10, 79, 0
11, 729088, Note_on_c, 10, 78, 103
11, 729600, Note_on_c, 10, 78, 0
11, 729600, Note_on_c, 10, 76, 104
11, 730112, Note_on_c, 10, 76, 0
11, 730112, Note_on_c, 10, 78, 104
11, 730726, Note_on_c, 10, 78, 0
11, 731136, Note_on_c, 10, 74, 94
11, 731750, Note_on_c, 10, 74, 0
11, 732160, Note_on_c, 10, 62, 96
11, 734208, Note_on_c, 10, 62, 0
11, 734208, Note_on_c, 10, 69, 99
11, 734822, Note_on_c, 10, 69, 0
11, 735232, Note_on_c, 10, 69, 100
11, 735846, Note_on_c, 10, 69, 0
11, 736256, Note_on_c, 10, 69, 102
11, 740352, Note_on_c, 10, 69, 0
11, 740352, Note_on_c, 10, 66, 108
11, 740966, Note_on_c, 10, 66, 0
11, 741376, Note_on_c, 10, 62, 110
11, 741990, Note_on_c, 10, 62, 0
11, 742400, Note_on_c, 10, 74, 111
11, 744448, Note_on_c, 10, 74, 0
11, 744448, Note_on_c, 10, 69, 114
11, 745062, Note_on_c, 10, 69, 0
11, 745472, Note_on_c, 10, 66, 116
11, 746086, Note_on_c, 10, 66, 0
11, 746496, Note_on_c, 10, 78, 115
11, 747110, Note_on_c, 10, 78, 0
11, 747520, Note_on_c, 10, 78, 115
11, 748134, Note_on_c, 10, 78, 0
11, 748544, Note_on_c, 10, 78, 115
11, 749158, Note_on_c, 10, 78, 0
11, 749568, Note_on_c, 10, 78, 115
11, 750182, Note_on_c, 10, 78, 0
11, 750592, Note_on_c, 10, 78, 115
11, 751616, Note_on_c, 10, 78, 0
11, 751616, Note_on_c, 10, 76, 115
11, 752128, Note_on_c, 10, 76, 0
11, 752128, Note_on_c, 10, 78, 115
11, 752640, Note_on_c, 10, 78, 0
11, 752640, Note_on_c, 10, 79, 115
11, 753254, Note_on_c, 10, 79, 0
11, 753664, Note_on_c, 10, 78, 115
11, 754176, Note_on_c, 10, 78, 0
11, 754176, Note_on_c, 10, 76, 115
11, 754688, Note_on_c, 10, 76, 0
11, 754688, Note_on_c, 10, 78, 115
11, 755302, Note_on_c, 10, 78, 0
11, 755712, Note_on_c, 10, 81, 115
11, 756326, Note_on_c, 10, 81, 0
11, 756736, Note_on_c, 10, 78, 115
11, 757350, Note_on_c, 10, 78, 0
11, 757760, Note_on_c, 10, 74, 115
11, 758374, Note_on_c, 10, 74, 0
11, 758784, Note_on_c, 10, 76, 115
11, 762880, Note_on_c, 10, 76, 0
11, 762880, Note_on_c, 10, 74, 115
11, 764928, Note_on_c, 10, 74, 0
11, 769024, Note_on_c, 10, 71, 64
11, 769638, Note_on_c, 10, 71, 0
11, 770048, Note_on_c, 10, 76, 64
11, 770662, Note_on_c, 10, 76, 0
11, 771072, Note_on_c, 10, 73, 64
11, 771686, Note_on_c, 10, 73, 0
11, 772096, Note_on_c, 10, 69, 64
11, 772710, Note_on_c, 10, 69, 0
11, 773120, Note_on_c, 10, 69, 64
11, 773632, Note_on_c, 10, 69, 0
11, 773632, Note_on_c, 10, 71, 64
11, 774144, Note_on_c, 10, 71, 0
11, 774144, Note_on_c, 10, 68, 64
11, 774656, Note_on_c, 10, 68, 0
11, 774656, Note_on_c, 10, 69, 64
11, 775168, Note_on_c, 10, 69, 0
11, 775168, Note_on_c, 10, 71, 64
11, 775680, Note_on_c, 10, 71, 0
11, 775680, Note_on_c, 10, 73, 64
11, 776192, Note_on_c, 10, 73, 0
11, 776192, Note_on_c, 10, 69, 64
11, 776704, Note_on_c, 10, 69, 0
11, 776704, Note_on_c, 10, 71, 64
11, 777216, Note_on_c, 10, 71, 0
11, 777216, Note_on_c, 10, 73, 64
11, 777728, Note_on_c, 10, 73, 0
11, 777728, Note_on_c, 10, 74, 64
11, 778240, Note_on_c, 10, 74, 0
11, 778240, Note_on_c, 10, 71, 64
11, 778752, Note_on_c, 10, 71, 0
11, 778752, Note_on_c, 10, 73, 64
11, 779264, Note_on_c, 10, 73, 0
11, 779264, Note_on_c, 10, 74, 64
11, 779776, Note_on_c, 10, 74, 0
11, 779776, Note_on_c, 10, 76, 64
11, 780288, Note_on_c, 10, 76, 0
11, 780288, Note_on_c, 10, 73, 64
11, 780800, Note_on_c, 10, 73, 0
11, 780800, Note_on_c, 10, 74, 64
11, 781312, Note_on_c, 10, 74, 0
11, 781312, Note_on_c, 10, 71, 64
11, 781926, Note_on_c, 10, 71, 0
11, 782336, Note_on_c, 10, 71, 64
11, 782950, Note_on_c, 10, 71, 0
11, 783360, Note_on_c, 10, 73, 64
11, 785408, Note_on_c, 10, 73, 0
11, 785408, Note_on_c, 10, 74, 64
11, 787456, Note_on_c, 10, 74, 0
11, 787456, Note_on_c, 10, 76, 64
11, 792166, Note_on_c, 10, 76, 0
11, 792576, Note_on_c, 10, 76, 77
11, 793190, Note_on_c, 10, 76, 0
11, 793600, Note_on_c, 10, 74, 80
11, 794214, Note_on_c, 10, 74, 0
11, 794624, Note_on_c, 10, 74, 83
11, 795238, Note_on_c, 10, 74, 0
11, 795648, Note_on_c, 10, 73, 86
11, 796160, Note_on_c, 10, 73, 0
11, 796160, Note_on_c, 10, 74, 87
11, 796672, Note_on_c, 10, 74, 0
11, 796672, Note_on_c, 10, 73, 89
11, 797184, Note_on_c, 10, 73, 0
11, 797184, Note_on_c, 10, 74, 90
11, 797696, Note_on_c, 10, 74, 0
11, 797696, Note_on_c, 10, 76, 92
11, 798208, Note_on_c, 10, 76, 0
11, 798208, Note_on_c, 10, 78, 93
11, 798720, Note_on_c, 10, 78, 0
11, 798720, Note_on_c, 10, 74, 95
11, 799232, Note_on_c, 10, 74, 0
11, 799232, Note_on_c, 10, 76, 96
11, 799744, Note_on_c, 10, 76, 0
11, 799744, Note_on_c, 10, 78, 98
11, 800358, Note_on_c, 10, 78, 0
11, 800768, Note_on_c, 10, 71, 98
11, 801382, Note_on_c, 10, 71, 0
11, 801792, Note_on_c, 10, 76, 99
11, 804454, Note_on_c, 10, 76, 0
11, 804864, Note_on_c, 10, 69, 102
11, 805478, Note_on_c, 10, 69, 0
11, 805888, Note_on_c, 10, 71, 102
11, 806502, Note_on_c, 10, 71, 0
11, 806912, Note_on_c, 10, 68, 103
11, 807526, Note_on_c, 10, 68, 0
11, 807936, Note_on_c, 10, 69, 104
11, 808550, Note_on_c, 10, 69, 0
11, 808960, Note_on_c, 10, 71, 105
11, 809472, Note_on_c, 10, 71, 0
11, 809472, Note_on_c, 10, 73, 105
11, 809984, Note_on_c, 10, 73, 0
11, 809984, Note_on_c, 10, 74, 106
11, 812032, Note_on_c, 10, 74, 0
11, 812032, Note_on_c, 10, 73, 107
11, 814080, Note_on_c, 10, 73, 0
11, 863232, Note_on_c, 10, 71, 89
11, 865280, Note_on_c, 10, 71, 0
11, 865280, Note_on_c, 10, 76, 90
11, 870400, Note_on_c, 10, 76, 0
11, 870400, Note_on_c, 10, 74, 95
11, 871014, Note_on_c, 10, 74, 0
11, 871424, Note_on_c, 10, 73, 96
11, 872038, Note_on_c, 10, 73, 0
11, 872448, Note_on_c, 10, 78, 97
11, 873062, Note_on_c, 10, 78, 0
11, 873472, Note_on_c, 10, 71, 94
11, 874496, Note_on_c, 10, 71, 0
11, 874496, Note_on_c, 10, 74, 89
11, 875110, Note_on_c, 10, 74, 0
11, 875520, Note_on_c, 10, 73, 83
11, 876544, Note_on_c, 10, 73, 0
11, 876544, Note_on_c, 10, 71, 76
11, 877158, Note_on_c, 10, 71, 0
11, 877568, Note_on_c, 10, 69, 52
11, 883712, Note_on_c, 10, 69, 0
11, 883712, Note_on_c, 10, 64, 58
11, 885760, Note_on_c, 10, 64, 0
11, 885760, Note_on_c, 10, 64, 60
11, 889856, Note_on_c, 10, 64, 0
11, 890880, Note_on_c, 10, 68, 66
11, 891494, Note_on_c, 10, 68, 0
11, 891904, Note_on_c, 10, 71, 67
11, 892518, Note_on_c, 10, 71, 0
11, 892928, Note_on_c, 10, 76, 68
11, 893542, Note_on_c, 10, 76, 0
11, 893952, Note_on_c, 10, 73, 69
11, 894976, Note_on_c, 10, 73, 0
11, 894976, Note_on_c, 10, 69, 70
11, 895488, Note_on_c, 10, 69, 0
11, 895488, Note_on_c, 10, 73, 71
11, 896000, Note_on_c, 10, 73, 0
11, 896000, Note_on_c, 10, 76, 71
11, 897024, Note_on_c, 10, 76, 0
11, 897024, Note_on_c, 10, 73, 72
11, 897536, Note_on_c, 10, 73, 0
11, 897536, Note_on_c, 10, 76, 73
11, 898048, Note_on_c, 10, 76, 0
11, 898048, Note_on_c, 10, 79, 73
11, 899072, Note_on_c, 10, 79, 0
11, 899072, Note_on_c, 10, 78, 75
11, 899584, Note_on_c, 10, 78, 0
11, 899584, Note_on_c, 10, 79, 75
11, 900096, Note_on_c, 10, 79, 0
11, 900096, Note_on_c, 10, 81, 76
11, 900608, Note_on_c, 10, 81, 0
11, 900608, Note_on_c, 10, 79, 76
11, 901120, Note_on_c, 10, 79, 0
11, 901120, Note_on_c, 10, 78, 77
11, 901632, Note_on_c, 10, 78, 0
11, 901632, Note_on_c, 10, 76, 77
11, 902144, Note_on_c, 10, 76, 0
11, 902144, Note_on_c, 10, 78, 78
11, 910950, Note_on_c, 10, 78, 0
11, 911360, Note_on_c, 10, 74, 87
11, 911974, Note_on_c, 10, 74, 0
11, 912384, Note_on_c, 10, 71, 89
11, 912896, Note_on_c, 10, 71, 0
11, 912896, Note_on_c, 10, 73, 89
11, 913408, Note_on_c, 10, 73, 0
11, 913408, Note_on_c, 10, 74, 90
11, 913920, Note_on_c, 10, 74, 0
11, 913920, Note_on_c, 10, 71, 90
11, 914432, Note_on_c, 10, 71, 0
11, 914432, Note_on_c, 10, 76, 91
11, 919040, Note_on_c, 10, 76, 0
11, 919040, Note_on_c, 10, 74, 96
11, 919552, Note_on_c, 10, 74, 0
11, 919552, Note_on_c, 10, 73, 96
11, 920064, Note_on_c, 10, 73, 0
11, 920064, Note_on_c, 10, 71, 97
11, 920576, Note_on_c, 10, 71, 0
11, 920576, Note_on_c, 10, 69, 97
11, 921088, Note_on_c, 10, 69, 0
11, 921088, Note_on_c, 10, 71, 98
11, 921600, Note_on_c, 10, 71, 0
11, 921600, Note_on_c, 10, 73, 98
11, 922112, Note_on_c, 10, 73, 0
11, 922112, Note_on_c, 10, 69, 99
11, 922624, Note_on_c, 10, 69, 0
11, 922624, Note_on_c, 10, 74, 99
11, 926720, Note_on_c, 10, 74, 0
11, 926720, Note_on_c, 10, 74, 103
11, 927334, Note_on_c, 10, 74, 0
11, 927744, Note_on_c, 10, 71, 103
11, 928358, Note_on_c, 10, 71, 0
11, 928768, Note_on_c, 10, 79, 103
11, 929382, Note_on_c, 10, 79, 0
11, 929792, Note_on_c, 10, 79, 103
11, 930406, Note_on_c, 10, 79, 0
11, 931840, Note_on_c, 10, 69, 103
11, 932454, Note_on_c, 10, 69, 0
11, 932864, Note_on_c, 10, 79, 103
11, 933478, Note_on_c, 10, 79, 0
11, 933888, Note_on_c, 10, 79, 103
11, 934502, Note_on_c, 10, 79, 0
11, 934912, Note_on_c, 10, 79, 103
11, 935936, Note_on_c, 10, 79, 0
11, 935936, Note_on_c, 10, 73, 103
11, 936448, Note_on_c, 10, 73, 0
11, 936448, Note_on_c, 10, 76, 103
11, 936960, Note_on_c, 10, 76, 0
11, 936960, Note_on_c, 10, 79, 103
11, 940032, Note_on_c, 10, 79, 0
11, 940032, Note_on_c, 10, 73, 103
11, 940544, Note_on_c, 10, 73, 0
11, 940544, Note_on_c, 10, 76, 103
11, 941056, Note_on_c, 10, 76, 0
11, 941056, Note_on_c, 10, 79, 103
11, 941670, Note_on_c, 10, 79, 0
11, 942080, Note_on_c, 10, 79, 103
11, 942694, Note_on_c, 10, 79, 0
11, 943104, Note_on_c, 10, 78, 103
11, 945152, Note_on_c, 10, 78, 0
11, 946176, Note_on_c, 10, 78, 104
11, 946688, Note_on_c, 10, 78, 0
11, 946688, Note_on_c, 10, 79, 104
11, 947200, Note_on_c, 10, 79, 0
11, 947200, Note_on_c, 10, 78, 105
11, 947814, Note_on_c, 10, 78, 0
11, 948224, Note_on_c, 10, 76, 106
11, 948736, Note_on_c, 10, 76, 0
11, 948736, Note_on_c, 10, 74, 106
11, 949248, Note_on_c, 10, 74, 0
11, 949248, Note_on_c, 10, 76, 107
11, 949862, Note_on_c, 10, 76, 0
11, 950272, Note_on_c, 10, 74, 107
11, 950784, Note_on_c, 10, 74, 0
11, 950784, Note_on_c, 10, 73, 108
11, 951296, Note_on_c, 10, 73, 0
11, 951296, Note_on_c, 10, 74, 108
11, 951910, Note_on_c, 10, 74, 0
11, 952320, Note_on_c, 10, 74, 92
11, 952934, Note_on_c, 10, 74, 0
11, 969728, Note_on_c, 10, 73, 75
11, 970240, Note_on_c, 10, 73, 0
11, 970240, Note_on_c, 10, 74, 76
11, 970752, Note_on_c, 10, 74, 0
11, 970752, Note_on_c, 10, 71, 76
11, 971264, Note_on_c, 10, 71, 0
11, 971264, Note_on_c, 10, 73, 77
11, 971776, Note_on_c, 10, 73, 0
11, 971776, Note_on_c, 10, 74, 77
11, 972288, Note_on_c, 10, 74, 0
11, 972288, Note_on_c, 10, 76, 78
11, 972800, Note_on_c, 10, 76, 0
11, 972800, Note_on_c, 10, 73, 79
11, 973312, Note_on_c, 10, 73, 0
11, 973312, Note_on_c, 10, 74, 79
11, 973824, Note_on_c, 10, 74, 0
11, 973824, Note_on_c, 10, 76, 80
11, 974336, Note_on_c, 10, 76, 0
11, 974336, Note_on_c, 10, 78, 80
11, 974848, Note_on_c, 10, 78, 0
11, 974848, Note_on_c, 10, 74, 81
11, 975360, Note_on_c, 10, 74, 0
11, 975360, Note_on_c, 10, 76, 81
11, 975872, Note_on_c, 10, 76, 0
11, 975872, Note_on_c, 10, 78, 82
11, 976384, Note_on_c, 10, 78, 0
11, 976384, Note_on_c, 10, 79, 83
11, 976896, Note_on_c, 10, 79, 0
11, 976896, Note_on_c, 10, 76, 83
11, 977408, Note_on_c, 10, 76, 0
11, 977408, Note_on_c, 10, 78, 84
11, 977920, Note_on_c, 10, 78, 0
11, 977920, Note_on_c, 10, 74, 84
11, 978534, Note_on_c, 10, 74, 0
11, 978944, Note_on_c, 10, 74, 85
11, 979558, Note_on_c, 10, 74, 0
11, 979968, Note_on_c, 10, 76, 87
11, 982016, Note_on_c, 10, 76, 0
11, 982016, Note_on_c, 10, 78, 89
11, 984064, Note_on_c, 10, 78, 0
11, 984064, Note_on_c, 10, 79, 92
11, 984678, Note_on_c, 10, 79, 0
11, 985088, Note_on_c, 10, 67, 93
11, 985702, Note_on_c, 10, 67, 0
11, 986112, Note_on_c, 10, 79, 95
11, 990208, Note_on_c, 10, 79, 0
11, 990208, Note_on_c, 10, 78, 100
11, 992256, Note_on_c, 10, 78, 0
11, 992256, Note_on_c, 10, 76, 103
11, 992870, Note_on_c, 10, 76, 0
11, 993280, Note_on_c, 10, 69, 104
11, 993894, Note_on_c, 10, 69, 0
11, 994304, Note_on_c, 10, 81, 106
11, 998400, Note_on_c, 10, 81, 0
11, 998400, Note_on_c, 10, 79, 106
11, 1000448, Note_on_c, 10, 79, 0
11, 1000448, Note_on_c, 10, 78, 106
11, 1001062, Note_on_c, 10, 78, 0
11, 1001472, Note_on_c, 10, 74, 106
11, 1002086, Note_on_c, 10, 74, 0
11, 1002496, Note_on_c, 10, 69, 101
11, 1003008, Note_on_c, 10, 69, 0
11, 1003008, Note_on_c, 10, 71, 101
11, 1003520, Note_on_c, 10, 71, 0
11, 1003520, Note_on_c, 10, 67, 102
11, 1004032, Note_on_c, 10, 67, 0
11, 1004032, Note_on_c, 10, 69, 102
11, 1004544, Note_on_c, 10, 69, 0
11, 1004544, Note_on_c, 10, 71, 103
11, 1005056, Note_on_c, 10, 71, 0
11, 1005056, Note_on_c, 10, 73, 104
11, 1005568, Note_on_c, 10, 73, 0
11, 1005568, Note_on_c, 10, 69, 104
11, 1006080, Note_on_c, 10, 69, 0
11, 1006080, Note_on_c, 10, 71, 105
11, 1006592, Note_on_c, 10, 71, 0
11, 1006592, Note_on_c, 10, 73, 105
11, 1007104, Note_on_c, 10, 73, 0
11, 1007104, Note_on_c, 10, 74, 106
11, 1007616, Note_on_c, 10, 74, 0
11, 1007616, Note_on_c, 10, 71, 107
11, 1008128, Note_on_c, 10, 71, 0
11, 1008128, Note_on_c, 10, 73, 107
11, 1008640, Note_on_c, 10, 73, 0
11, 1008640, Note_on_c, 10, 74, 108
11, 1009152, Note_on_c, 10, 74, 0
11, 1009152, Note_on_c, 10, 76, 108
11, 1009664, Note_on_c, 10, 76, 0
11, 1009664, Note_on_c, 10, 73, 109
11, 1010176, Note_on_c, 10, 73, 0
11, 1010176, Note_on_c, 10, 74, 110
11, 1010688, Note_on_c, 10, 74, 0
11, 1010688, Note_on_c, 10, 76, 110
11, 1011200, Note_on_c, 10, 76, 0
11, 1011200, Note_on_c, 10, 78, 111
11, 1011712, Note_on_c, 10, 78, 0
11, 1011712, Note_on_c, 10, 74, 111
11, 1012224, Note_on_c, 10, 74, 0
11, 1012224, Note_on_c, 10, 76, 112
11, 1012736, Note_on_c, 10, 76, 0
11, 1012736, Note_on_c, 10, 78, 113
11, 1013350, Note_on_c, 10, 78, 0
11, 1013760, Note_on_c, 10, 76, 114
11, 1014272, Note_on_c, 10, 76, 0
11, 1014272, Note_on_c, 10, 74, 114
11, 1014784, Note_on_c, 10, 74, 0
11, 1014784, Note_on_c, 10, 78, 115
11, 1015296, Note_on_c, 10, 78, 0
11, 1015296, Note_on_c, 10, 76, 116
11, 1015808, Note_on_c, 10, 76, 0
11, 1015808, Note_on_c, 10, 74, 116
11, 1016320, Note_on_c, 10, 74, 0
11, 1016320, Note_on_c, 10, 73, 117
11, 1016832, Note_on_c, 10, 73, 0
11, 1016832, Note_on_c, 10, 74, 117
11, 1017446, Note_on_c, 10, 74, 0
11, 1017856, Note_on_c, 10, 69, 119
11, 1018470, Note_on_c, 10, 69, 0
11, 1018880, Note_on_c, 10, 78, 120
11, 1019494, Note_on_c, 10, 78, 0
11, 1019904, Note_on_c, 10, 74, 121
11, 1020518, Note_on_c, 10, 74, 0
11, 1020928, Note_on_c, 10, 81, 120
11, 1021542, Note_on_c, 10, 81, 0
11, 1021952, Note_on_c, 10, 74, 120
11, 1022464, Note_on_c, 10, 74, 0
11, 1022464, Note_on_c, 10, 76, 120
11, 1022976, Note_on_c, 10, 76, 0
11, 1022976, Note_on_c, 10, 78, 120
11, 1023590, Note_on_c, 10, 78, 0
11, 1024000, Note_on_c, 10, 76, 120
11, 1024614, Note_on_c, 10, 76, 0
11, 1025024, Note_on_c, 10, 74, 120
11, 1025638, Note_on_c, 10, 74, 0
11, 1033216, End_track
12, 0, Start_track
12, 0, Title_t, "Soprano II"
12, 0, Program_c, 11, 52
12, 0, Control_c, 11, 121, 127
12, 0, Control_c, 11, 1, 10
12, 0, Control_c, 11, 10, 40
12, 7168, Note_on_c, 11, 66, 89
12, 9216, Note_on_c, 11, 66, 0
12, 9216, Note_on_c, 11, 69, 89
12, 12288, Note_on_c, 11, 69, 0
12, 12288, Note_on_c, 11, 69, 89
12, 13312, Note_on_c, 11, 69, 0
12, 13312, Note_on_c, 11, 68, 89
12, 14336, Note_on_c, 11, 68, 0
12, 14336, Note_on_c, 11, 61, 89
12, 15360, Note_on_c, 11, 61, 0
12, 15360, Note_on_c, 11, 73, 89
12, 19456, Note_on_c, 11, 73, 0
12, 19456, Note_on_c, 11, 71, 89
12, 21504, Note_on_c, 11, 71, 0
12, 21504, Note_on_c, 11, 73, 89
12, 23347, Note_on_c, 11, 73, 0
12, 23552, Note_on_c, 11, 61, 89
12, 26624, Note_on_c, 11, 61, 0
12, 26624, Note_on_c, 11, 63, 89
12, 27648, Note_on_c, 11, 63, 0
12, 27648, Note_on_c, 11, 65, 89
12, 28672, Note_on_c, 11, 65, 0
12, 28672, Note_on_c, 11, 61, 89
12, 29696, Note_on_c, 11, 61, 0
12, 29696, Note_on_c, 11, 66, 89
12, 30720, Note_on_c, 11, 66, 0
12, 30720, Note_on_c, 11, 68, 89
12, 31232, Note_on_c, 11, 68, 0
12, 31232, Note_on_c, 11, 69, 89
12, 31744, Note_on_c, 11, 69, 0
12, 31744, Note_on_c, 11, 71, 89
12, 33792, Note_on_c, 11, 71, 0
12, 33792, Note_on_c, 11, 64, 89
12, 35840, Note_on_c, 11, 64, 0
12, 35840, Note_on_c, 11, 61, 89
12, 37888, Note_on_c, 11, 61, 0
12, 37888, Note_on_c, 11, 68, 89
12, 40960, Note_on_c, 11, 68, 0
12, 40960, Note_on_c, 11, 71, 89
12, 41984, Note_on_c, 11, 71, 0
12, 41984, Note_on_c, 11, 69, 89
12, 43827, Note_on_c, 11, 69, 0
12, 44032, Note_on_c, 11, 69, 89
12, 48128, Note_on_c, 11, 69, 0
12, 48128, Note_on_c, 11, 68, 89
12, 49152, Note_on_c, 11, 68, 0
12, 49152, Note_on_c, 11, 66, 89
12, 50176, Note_on_c, 11, 66, 0
12, 50176, Note_on_c, 11, 65, 89
12, 51200, Note_on_c, 11, 65, 0
12, 51200, Note_on_c, 11, 66, 89
12, 52224, Note_on_c, 11, 66, 0
12, 52224, Note_on_c, 11, 68, 89
12, 54272, Note_on_c, 11, 68, 0
12, 54272, Note_on_c, 11, 61, 89
12, 56320, Note_on_c, 11, 61, 0
12, 56320, Note_on_c, 11, 73, 89
12, 58368, Note_on_c, 11, 73, 0
12, 58368, Note_on_c, 11, 73, 88
12, 60416, Note_on_c, 11, 73, 0
12, 60416, Note_on_c, 11, 72, 81
12, 62464, Note_on_c, 11, 72, 0
12, 62464, Note_on_c, 11, 73, 74
12, 64307, Note_on_c, 11, 73, 0
12, 80896, Note_on_c, 11, 71, 47
12, 81510, Note_on_c, 11, 71, 0
12, 81920, Note_on_c, 11, 71, 47
12, 82534, Note_on_c, 11, 71, 0
12, 82944, Note_on_c, 11, 71, 47
12, 83968, Note_on_c, 11, 71, 0
12, 83968, Note_on_c, 11, 64, 47
12, 84992, Note_on_c, 11, 64, 0
12, 84992, Note_on_c, 11, 69, 47
12, 88064, Note_on_c, 11, 69, 0
12, 88064, Note_on_c, 11, 68, 50
12, 88576, Note_on_c, 11, 68, 0
12, 88576, Note_on_c, 11, 66, 50
12, 89088, Note_on_c, 11, 66, 0
12, 89088, Note_on_c, 11, 68, 50
12, 90112, Note_on_c, 11, 68, 0
12, 90112, Note_on_c, 11, 64, 50
12, 91136, Note_on_c, 11, 64, 0
12, 91136, Note_on_c, 11, 66, 50
12, 95232, Note_on_c, 11, 66, 0
12, 95232, Note_on_c, 11, 64, 51
12, 95846, Note_on_c, 11, 64, 0
12, 96256, Note_on_c, 11, 68, 51
12, 97280, Note_on_c, 11, 68, 0
12, 97280, Note_on_c, 11, 69, 52
12, 98304, Note_on_c, 11, 69, 0
12, 98304, Note_on_c, 11, 64, 52
12, 99328, Note_on_c, 11, 64, 0
12, 99328, Note_on_c, 11, 66, 52
12, 100352, Note_on_c, 11, 66, 0
12, 100352, Note_on_c, 11, 69, 52
12, 101376, Note_on_c, 11, 69, 0
12, 101376, Note_on_c, 11, 67, 53
12, 102400, Note_on_c, 11, 67, 0
12, 102400, Note_on_c, 11, 66, 53
12, 103424, Note_on_c, 11, 66, 0
12, 103424, Note_on_c, 11, 64, 53
12, 104448, Note_on_c, 11, 64, 0
12, 104448, Note_on_c, 11, 69, 53
12, 106496, Note_on_c, 11, 69, 0
12, 106496, Note_on_c, 11, 74, 54
12, 107520, Note_on_c, 11, 74, 0
12, 107520, Note_on_c, 11, 74, 54
12, 109568, Note_on_c, 11, 74, 0
12, 109568, Note_on_c, 11, 73, 54
12, 113664, Note_on_c, 11, 73, 0
12, 113664, Note_on_c, 11, 71, 58
12, 117760, Note_on_c, 11, 71, 0
12, 117760, Note_on_c, 11, 69, 69
12, 121856, Note_on_c, 11, 69, 0
12, 121856, Note_on_c, 11, 67, 79
12, 122880, Note_on_c, 11, 67, 0
12, 125952, Note_on_c, 11, 73, 89
12, 126566, Note_on_c, 11, 73, 0
12, 126976, Note_on_c, 11, 73, 90
12, 127590, Note_on_c, 11, 73, 0
12, 128000, Note_on_c, 11, 73, 90
12, 129024, Note_on_c, 11, 73, 0
12, 129024, Note_on_c, 11, 66, 90
12, 130048, Note_on_c, 11, 66, 0
12, 130048, Note_on_c, 11, 71, 90
12, 133120, Note_on_c, 11, 71, 0
12, 133120, Note_on_c, 11, 69, 90
12, 133632, Note_on_c, 11, 69, 0
12, 133632, Note_on_c, 11, 68, 90
12, 134144, Note_on_c, 11, 68, 0
12, 134144, Note_on_c, 11, 69, 90
12, 135168, Note_on_c, 11, 69, 0
12, 135168, Note_on_c, 11, 66, 90
12, 136192, Note_on_c, 11, 66, 0
12, 136192, Note_on_c, 11, 68, 90
12, 140288, Note_on_c, 11, 68, 0
12, 140288, Note_on_c, 11, 66, 90
12, 142336, Note_on_c, 11, 66, 0
12, 150528, Note_on_c, 11, 68, 89
12, 152576, Note_on_c, 11, 68, 0
12, 152576, Note_on_c, 11, 69, 89
12, 155648, Note_on_c, 11, 69, 0
12, 155648, Note_on_c, 11, 69, 89
12, 156672, Note_on_c, 11, 69, 0
12, 156672, Note_on_c, 11, 68, 89
12, 157696, Note_on_c, 11, 68, 0
12, 157696, Note_on_c, 11, 61, 89
12, 158720, Note_on_c, 11, 61, 0
12, 158720, Note_on_c, 11, 73, 88
12, 162816, Note_on_c, 11, 73, 0
12, 162816, Note_on_c, 11, 72, 88
12, 164864, Note_on_c, 11, 72, 0
12, 164864, Note_on_c, 11, 73, 88
12, 165478, Note_on_c, 11, 73, 0
12, 165888, Note_on_c, 11, 76, 88
12, 166912, Note_on_c, 11, 76, 0
12, 166912, Note_on_c, 11, 75, 88
12, 167936, Note_on_c, 11, 75, 0
12, 167936, Note_on_c, 11, 73, 88
12, 168960, Note_on_c, 11, 73, 0
12, 168960, Note_on_c, 11, 72, 88
12, 169984, Note_on_c, 11, 72, 0
12, 169984, Note_on_c, 11, 73, 88
12, 171008, Note_on_c, 11, 73, 0
12, 172032, Note_on_c, 11, 76, 88
12, 173056, Note_on_c, 11, 76, 0
12, 173056, Note_on_c, 11, 78, 88
12, 176128, Note_on_c, 11, 78, 0
12, 176128, Note_on_c, 11, 78, 88
12, 177152, Note_on_c, 11, 78, 0
12, 177152, Note_on_c, 11, 76, 88
12, 178176, Note_on_c, 11, 76, 0
12, 178176, Note_on_c, 11, 73, 88
12, 178688, Note_on_c, 11, 73, 0
12, 178688, Note_on_c, 11, 75, 88
12, 179200, Note_on_c, 11, 75, 0
12, 179200, Note_on_c, 11, 76, 88
12, 180224, Note_on_c, 11, 76, 0
12, 180224, Note_on_c, 11, 78, 88
12, 181248, Note_on_c, 11, 78, 0
12, 181248, Note_on_c, 11, 80, 88
12, 183296, Note_on_c, 11, 80, 0
12, 183296, Note_on_c, 11, 68, 88
12, 185344, Note_on_c, 11, 68, 0
12, 188416, Note_on_c, 11, 71, 88
12, 189440, Note_on_c, 11, 71, 0
12, 189440, Note_on_c, 11, 73, 88
12, 192512, Note_on_c, 11, 73, 0
12, 192512, Note_on_c, 11, 71, 88
12, 193536, Note_on_c, 11, 71, 0
12, 193536, Note_on_c, 11, 69, 88
12, 194560, Note_on_c, 11, 69, 0
12, 194560, Note_on_c, 11, 73, 88
12, 195584, Note_on_c, 11, 73, 0
12, 195584, Note_on_c, 11, 71, 88
12, 196608, Note_on_c, 11, 71, 0
12, 196608, Note_on_c, 11, 69, 88
12, 197632, Note_on_c, 11, 69, 0
12, 197632, Note_on_c, 11, 68, 88
12, 199680, Note_on_c, 11, 68, 0
12, 199680, Note_on_c, 11, 64, 88
12, 201728, Note_on_c, 11, 64, 0
12, 204800, Note_on_c, 11, 68, 88
12, 205824, Note_on_c, 11, 68, 0
12, 205824, Note_on_c, 11, 69, 88
12, 208896, Note_on_c, 11, 69, 0
12, 208896, Note_on_c, 11, 67, 88
12, 209920, Note_on_c, 11, 67, 0
12, 209920, Note_on_c, 11, 66, 88
12, 210944, Note_on_c, 11, 66, 0
12, 210944, Note_on_c, 11, 69, 88
12, 211968, Note_on_c, 11, 69, 0
12, 211968, Note_on_c, 11, 67, 88
12, 212992, Note_on_c, 11, 67, 0
12, 212992, Note_on_c, 11, 66, 88
12, 214016, Note_on_c, 11, 66, 0
12, 214016, Note_on_c, 11, 64, 88
12, 215040, Note_on_c, 11, 64, 0
12, 215040, Note_on_c, 11, 62, 88
12, 215552, Note_on_c, 11, 62, 0
12, 215552, Note_on_c, 11, 61, 88
12, 216064, Note_on_c, 11, 61, 0
12, 216064, Note_on_c, 11, 62, 88
12, 217088, Note_on_c, 11, 62, 0
12, 217088, Note_on_c, 11, 66, 88
12, 218112, Note_on_c, 11, 66, 0
12, 218112, Note_on_c, 11, 69, 88
12, 220160, Note_on_c, 11, 69, 0
12, 220160, Note_on_c, 11, 64, 79
12, 222208, Note_on_c, 11, 64, 0
12, 224256, Note_on_c, 11, 69, 63
12, 226304, Note_on_c, 11, 69, 0
12, 226304, Note_on_c, 11, 73, 46
12, 229376, Note_on_c, 11, 73, 0
12, 229376, Note_on_c, 11, 73, 46
12, 230400, Note_on_c, 11, 73, 0
12, 230400, Note_on_c, 11, 71, 46
12, 231424, Note_on_c, 11, 71, 0
12, 231424, Note_on_c, 11, 64, 46
12, 232448, Note_on_c, 11, 64, 0
12, 232448, Note_on_c, 11, 76, 47
12, 236544, Note_on_c, 11, 76, 0
12, 236544, Note_on_c, 11, 75, 47
12, 238592, Note_on_c, 11, 75, 0
12, 238592, Note_on_c, 11, 76, 47
12, 240435, Note_on_c, 11, 76, 0
12, 240640, Note_on_c, 11, 73, 47
12, 242688, Note_on_c, 11, 73, 0
12, 242688, Note_on_c, 11, 74, 47
12, 245760, Note_on_c, 11, 74, 0
12, 245760, Note_on_c, 11, 74, 48
12, 246784, Note_on_c, 11, 74, 0
12, 246784, Note_on_c, 11, 73, 48
12, 248832, Note_on_c, 11, 73, 0
12, 248832, Note_on_c, 11, 71, 49
12, 252928, Note_on_c, 11, 71, 0
12, 252928, Note_on_c, 11, 69, 50
12, 253952, Note_on_c, 11, 69, 0
12, 253952, Note_on_c, 11, 73, 50
12, 254976, Note_on_c, 11, 73, 0
12, 254976, Note_on_c, 11, 66, 50
12, 257024, Note_on_c, 11, 66, 0
12, 257024, Note_on_c, 11, 68, 51
12, 259072, Note_on_c, 11, 68, 0
12, 259072, Note_on_c, 11, 64, 51
12, 261120, Note_on_c, 11, 64, 0
12, 261120, Note_on_c, 11, 66, 52
12, 263168, Note_on_c, 11, 66, 0
12, 263168, Note_on_c, 11, 68, 53
12, 264192, Note_on_c, 11, 68, 0
12, 264192, Note_on_c, 11, 69, 56
12, 265216, Note_on_c, 11, 69, 0
12, 265216, Note_on_c, 11, 71, 59
12, 268288, Note_on_c, 11, 71, 0
12, 268288, Note_on_c, 11, 69, 68
12, 268902, Note_on_c, 11, 69, 0
12, 269312, Note_on_c, 11, 70, 72
12, 270336, Note_on_c, 11, 70, 0
12, 270336, Note_on_c, 11, 63, 75
12, 271360, Note_on_c, 11, 63, 0
12, 271360, Note_on_c, 11, 68, 78
12, 272384, Note_on_c, 11, 68, 0
12, 272384, Note_on_c, 11, 72, 81
12, 273408, Note_on_c, 11, 72, 0
12, 273408, Note_on_c, 11, 73, 84
12, 274432, Note_on_c, 11, 73, 0
12, 274432, Note_on_c, 11, 76, 87
12, 275456, Note_on_c, 11, 76, 0
12, 275456, Note_on_c, 11, 70, 91
12, 277504, Note_on_c, 11, 70, 0
12, 277504, Note_on_c, 11, 68, 96
12, 279552, Note_on_c, 11, 68, 0
12, 279552, Note_on_c, 11, 68, 96
12, 281395, Note_on_c, 11, 68, 0
12, 281646, Control_c, 11, 7, 89
12, 283648, Note_on_c, 11, 74, 95
12, 284672, Note_on_c, 11, 74, 0
12, 284672, Note_on_c, 11, 74, 95
12, 285696, Note_on_c, 11, 74, 0
12, 285696, Note_on_c, 11, 74, 95
12, 286720, Note_on_c, 11, 74, 0
12, 286720, Note_on_c, 11, 68, 95
12, 287744, Note_on_c, 11, 68, 0
12, 287744, Note_on_c, 11, 73, 95
12, 290816, Note_on_c, 11, 73, 0
12, 290816, Note_on_c, 11, 71, 95
12, 291328, Note_on_c, 11, 71, 0
12, 291328, Note_on_c, 11, 69, 95
12, 291840, Note_on_c, 11, 69, 0
12, 291840, Note_on_c, 11, 71, 95
12, 292864, Note_on_c, 11, 71, 0
12, 292864, Note_on_c, 11, 65, 95
12, 293888, Note_on_c, 11, 65, 0
12, 293888, Note_on_c, 11, 69, 95
12, 295936, Note_on_c, 11, 69, 0
12, 295936, Note_on_c, 11, 68, 95
12, 297774, Control_c, 11, 7, 60
12, 297779, Note_on_c, 11, 68, 0
12, 297984, Note_on_c, 11, 66, 95
12, 300032, Note_on_c, 11, 66, 0
12, 300032, Note_on_c, 11, 68, 95
12, 303104, Note_on_c, 11, 68, 0
12, 303104, Note_on_c, 11, 68, 95
12, 304128, Note_on_c, 11, 68, 0
12, 304128, Note_on_c, 11, 66, 95
12, 306176, Note_on_c, 11, 66, 0
12, 309248, Note_on_c, 11, 70, 95
12, 310272, Note_on_c, 11, 70, 0
12, 310272, Note_on_c, 11, 71, 95
12, 311296, Note_on_c, 11, 71, 0
12, 311296, Note_on_c, 11, 73, 95
12, 312320, Note_on_c, 11, 73, 0
12, 312320, Note_on_c, 11, 66, 95
12, 314368, Note_on_c, 11, 66, 0
12, 314368, Note_on_c, 11, 71, 95
12, 316416, Note_on_c, 11, 71, 0
12, 319488, Note_on_c, 11, 73, 95
12, 320512, Note_on_c, 11, 73, 0
12, 320512, Note_on_c, 11, 74, 95
12, 323584, Note_on_c, 11, 74, 0
12, 323584, Note_on_c, 11, 74, 95
12, 324608, Note_on_c, 11, 74, 0
12, 324608, Note_on_c, 11, 73, 95
12, 325632, Note_on_c, 11, 73, 0
12, 325632, Note_on_c, 11, 71, 95
12, 326656, Note_on_c, 11, 71, 0
12, 326656, Note_on_c, 11, 73, 95
12, 327680, Note_on_c, 11, 73, 0
12, 327680, Note_on_c, 11, 74, 95
12, 328704, Note_on_c, 11, 74, 0
12, 328704, Note_on_c, 11, 76, 95
12, 330752, Note_on_c, 11, 76, 0
12, 330752, Note_on_c, 11, 69, 95
12, 332800, Note_on_c, 11, 69, 0
12, 333824, Note_on_c, 11, 64, 95
12, 334848, Note_on_c, 11, 64, 0
12, 334848, Note_on_c, 11, 66, 95
12, 337920, Note_on_c, 11, 66, 0
12, 337920, Note_on_c, 11, 66, 95
12, 338944, Note_on_c, 11, 66, 0
12, 338944, Note_on_c, 11, 64, 95
12, 339968, Note_on_c, 11, 64, 0
12, 339968, Note_on_c, 11, 61, 95
12, 340992, Note_on_c, 11, 61, 0
12, 340992, Note_on_c, 11, 73, 95
12, 343040, Note_on_c, 11, 73, 0
12, 343040, Note_on_c, 11, 71, 95
12, 344064, Note_on_c, 11, 71, 0
12, 344064, Note_on_c, 11, 69, 95
12, 345088, Note_on_c, 11, 69, 0
12, 345088, Note_on_c, 11, 68, 95
12, 346931, Note_on_c, 11, 68, 0
12, 347136, Note_on_c, 11, 69, 95
12, 351232, Note_on_c, 11, 69, 0
12, 351232, Note_on_c, 11, 68, 95
12, 352256, Note_on_c, 11, 68, 0
12, 352256, Note_on_c, 11, 73, 95
12, 353280, Note_on_c, 11, 73, 0
12, 353280, Note_on_c, 11, 73, 95
12, 355328, Note_on_c, 11, 73, 0
12, 355328, Note_on_c, 11, 72, 95
12, 357376, Note_on_c, 11, 72, 0
12, 357376, Note_on_c, 11, 73, 95
12, 359219, Note_on_c, 11, 73, 0
12, 359424, Note_on_c, 11, 68, 95
12, 361472, Note_on_c, 11, 68, 0
12, 361472, Note_on_c, 11, 69, 95
12, 364544, Note_on_c, 11, 69, 0
12, 364544, Note_on_c, 11, 69, 95
12, 365568, Note_on_c, 11, 69, 0
12, 365568, Note_on_c, 11, 68, 95
12, 366592, Note_on_c, 11, 68, 0
12, 366592, Note_on_c, 11, 73, 95
12, 368640, Note_on_c, 11, 73, 0
12, 368640, Note_on_c, 11, 74, 95
12, 369152, Note_on_c, 11, 74, 0
12, 369152, Note_on_c, 11, 76, 95
12, 369664, Note_on_c, 11, 76, 0
12, 369664, Note_on_c, 11, 74, 95
12, 370688, Note_on_c, 11, 74, 0
12, 370688, Note_on_c, 11, 73, 95
12, 371200, Note_on_c, 11, 73, 0
12, 371200, Note_on_c, 11, 71, 95
12, 371712, Note_on_c, 11, 71, 0
12, 371712, Note_on_c, 11, 73, 95
12, 374784, Note_on_c, 11, 73, 0
12, 374784, Note_on_c, 11, 61, 95
12, 375398, Note_on_c, 11, 61, 0
12, 375808, Note_on_c, 11, 66, 95
12, 378880, Note_on_c, 11, 66, 0
12, 378880, Note_on_c, 11, 71, 95
12, 379392, Note_on_c, 11, 71, 0
12, 379392, Note_on_c, 11, 69, 95
12, 379904, Note_on_c, 11, 69, 0
12, 379904, Note_on_c, 11, 68, 95
12, 380928, Note_on_c, 11, 68, 0
12, 380928, Note_on_c, 11, 66, 95
12, 381952, Note_on_c, 11, 66, 0
12, 381952, Note_on_c, 11, 68, 95
12, 382976, Note_on_c, 11, 68, 0
12, 382976, Note_on_c, 11, 64, 95
12, 384000, Note_on_c, 11, 64, 0
12, 388096, Note_on_c, 11, 71, 95
12, 390144, Note_on_c, 11, 71, 0
12, 390144, Note_on_c, 11, 73, 95
12, 393216, Note_on_c, 11, 73, 0
12, 393216, Note_on_c, 11, 73, 95
12, 394240, Note_on_c, 11, 73, 0
12, 394240, Note_on_c, 11, 71, 95
12, 395264, Note_on_c, 11, 71, 0
12, 395264, Note_on_c, 11, 64, 95
12, 396288, Note_on_c, 11, 64, 0
12, 396288, Note_on_c, 11, 76, 95
12, 400384, Note_on_c, 11, 76, 0
12, 400384, Note_on_c, 11, 74, 95
12, 402432, Note_on_c, 11, 74, 0
12, 402432, Note_on_c, 11, 73, 95
12, 404275, Note_on_c, 11, 73, 0
12, 404480, Note_on_c, 11, 64, 95
12, 407552, Note_on_c, 11, 64, 0
12, 407552, Note_on_c, 11, 66, 95
12, 408576, Note_on_c, 11, 66, 0
12, 408576, Note_on_c, 11, 68, 95
12, 409600, Note_on_c, 11, 68, 0
12, 409600, Note_on_c, 11, 64, 95
12, 410624, Note_on_c, 11, 64, 0
12, 410624, Note_on_c, 11, 69, 95
12, 412672, Note_on_c, 11, 69, 0
12, 412672, Note_on_c, 11, 64, 95
12, 414720, Note_on_c, 11, 64, 0
12, 414720, Note_on_c, 11, 61, 95
12, 416563, Note_on_c, 11, 61, 0
12, 416768, Note_on_c, 11, 73, 95
12, 418816, Note_on_c, 11, 73, 0
12, 418816, Note_on_c, 11, 74, 95
12, 421888, Note_on_c, 11, 74, 0
12, 421888, Note_on_c, 11, 74, 95
12, 422912, Note_on_c, 11, 74, 0
12, 422912, Note_on_c, 11, 73, 95
12, 423936, Note_on_c, 11, 73, 0
12, 423936, Note_on_c, 11, 66, 95
12, 424960, Note_on_c, 11, 66, 0
12, 424960, Note_on_c, 11, 78, 95
12, 429056, Note_on_c, 11, 78, 0
12, 429056, Note_on_c, 11, 76, 95
12, 432128, Note_on_c, 11, 76, 0
12, 432128, Note_on_c, 11, 69, 95
12, 433152, Note_on_c, 11, 69, 0
12, 433152, Note_on_c, 11, 74, 95
12, 435200, Note_on_c, 11, 74, 0
12, 437248, Note_on_c, 11, 78, 95
12, 437862, Note_on_c, 11, 78, 0
12, 438272, Note_on_c, 11, 78, 95
12, 438886, Note_on_c, 11, 78, 0
12, 439296, Note_on_c, 11, 78, 95
12, 440320, Note_on_c, 11, 78, 0
12, 440320, Note_on_c, 11, 71, 95
12, 441344, Note_on_c, 11, 71, 0
12, 441344, Note_on_c, 11, 76, 95
12, 444416, Note_on_c, 11, 76, 0
12, 444416, Note_on_c, 11, 74, 95
12, 444928, Note_on_c, 11, 74, 0
12, 444928, Note_on_c, 11, 73, 95
12, 445440, Note_on_c, 11, 73, 0
12, 445440, Note_on_c, 11, 74, 95
12, 446464, Note_on_c, 11, 74, 0
12, 446464, Note_on_c, 11, 71, 95
12, 447488, Note_on_c, 11, 71, 0
12, 447488, Note_on_c, 11, 73, 95
12, 449536, Note_on_c, 11, 73, 0
12, 449536, Note_on_c, 11, 72, 95
12, 451584, Note_on_c, 11, 72, 0
12, 451584, Note_on_c, 11, 71, 95
12, 452198, Note_on_c, 11, 71, 0
12, 452608, Note_on_c, 11, 73, 95
12, 453632, Note_on_c, 11, 73, 0
12, 453632, Note_on_c, 11, 74, 95
12, 457728, Note_on_c, 11, 74, 0
12, 457728, Note_on_c, 11, 73, 95
12, 458752, Note_on_c, 11, 73, 0
12, 458752, Note_on_c, 11, 71, 95
12, 459776, Note_on_c, 11, 71, 0
12, 459776, Note_on_c, 11, 70, 95
12, 461619, Note_on_c, 11, 70, 0
12, 461824, Note_on_c, 11, 69, 95
12, 463872, Note_on_c, 11, 69, 0
12, 463872, Note_on_c, 11, 68, 95
12, 465920, Note_on_c, 11, 68, 0
12, 465920, Note_on_c, 11, 67, 95
12, 467968, Note_on_c, 11, 67, 0
12, 467968, Note_on_c, 11, 66, 95
12, 470016, Note_on_c, 11, 66, 0
12, 470016, Note_on_c, 11, 65, 95
12, 472064, Note_on_c, 11, 65, 0
12, 472064, Note_on_c, 11, 64, 95
12, 474112, Note_on_c, 11, 64, 0
12, 476073, Control_c, 11, 7, 110
12, 478208, Note_on_c, 11, 74, 95
12, 481280, Note_on_c, 11, 74, 0
12, 481280, Note_on_c, 11, 72, 71
12, 482304, Note_on_c, 11, 72, 0
12, 482304, Note_on_c, 11, 71, 51
12, 485376, Note_on_c, 11, 71, 0
12, 485376, Note_on_c, 11, 69, 49
12, 486400, Note_on_c, 11, 69, 0
12, 486400, Note_on_c, 11, 67, 49
12, 489472, Note_on_c, 11, 67, 0
12, 489472, Note_on_c, 11, 66, 46
12, 490496, Note_on_c, 11, 66, 0
12, 490496, Note_on_c, 11, 64, 46
12, 491520, Note_on_c, 11, 64, 0
12, 491520, Note_on_c, 11, 66, 45
12, 492544, Note_on_c, 11, 66, 0
12, 492544, Note_on_c, 11, 67, 44
12, 500736, Note_on_c, 11, 67, 0
12, 500736, Note_on_c, 11, 66, 39
12, 502579, Note_on_c, 11, 66, 0
12, 502697, Control_c, 11, 7, 68
12, 502784, Note_on_c, 11, 69, 62
12, 502804, Control_c, 11, 7, 69
12, 502910, Control_c, 11, 7, 70
12, 503016, Control_c, 11, 7, 71
12, 503123, Control_c, 11, 7, 72
12, 503229, Control_c, 11, 7, 73
12, 503335, Control_c, 11, 7, 74
12, 503442, Control_c, 11, 7, 75
12, 503548, Control_c, 11, 7, 76
12, 503654, Control_c, 11, 7, 77
12, 503761, Control_c, 11, 7, 78
12, 503867, Control_c, 11, 7, 79
12, 503973, Control_c, 11, 7, 80
12, 504079, Control_c, 11, 7, 81
12, 504186, Control_c, 11, 7, 82
12, 504292, Control_c, 11, 7, 83
12, 504398, Control_c, 11, 7, 84
12, 504505, Control_c, 11, 7, 85
12, 504611, Control_c, 11, 7, 86
12, 504717, Control_c, 11, 7, 87
12, 504824, Control_c, 11, 7, 88
12, 504930, Control_c, 11, 7, 89
12, 505036, Control_c, 11, 7, 90
12, 505143, Control_c, 11, 7, 91
12, 505249, Control_c, 11, 7, 92
12, 505355, Control_c, 11, 7, 93
12, 505461, Control_c, 11, 7, 94
12, 505568, Control_c, 11, 7, 95
12, 505674, Control_c, 11, 7, 96
12, 505780, Control_c, 11, 7, 97
12, 505887, Control_c, 11, 7, 98
12, 505993, Control_c, 11, 7, 99
12, 506099, Control_c, 11, 7, 100
12, 506206, Control_c, 11, 7, 101
12, 506312, Control_c, 11, 7, 102
12, 506418, Control_c, 11, 7, 103
12, 506524, Control_c, 11, 7, 104
12, 506631, Control_c, 11, 7, 105
12, 506737, Control_c, 11, 7, 106
12, 506843, Control_c, 11, 7, 107
12, 506880, Note_on_c, 11, 69, 0
12, 506880, Note_on_c, 11, 69, 74
12, 506950, Control_c, 11, 7, 108
12, 507056, Control_c, 11, 7, 109
12, 507162, Control_c, 11, 7, 110
12, 507269, Control_c, 11, 7, 111
12, 507375, Control_c, 11, 7, 112
12, 507481, Control_c, 11, 7, 113
12, 507588, Control_c, 11, 7, 114
12, 507694, Control_c, 11, 7, 115
12, 507800, Control_c, 11, 7, 116
12, 507906, Control_c, 11, 7, 117
12, 508013, Control_c, 11, 7, 118
12, 508119, Control_c, 11, 7, 119
12, 508225, Control_c, 11, 7, 120
12, 508332, Control_c, 11, 7, 121
12, 508438, Control_c, 11, 7, 122
12, 508544, Control_c, 11, 7, 123
12, 508651, Control_c, 11, 7, 124
12, 508757, Control_c, 11, 7, 125
12, 508863, Control_c, 11, 7, 126
12, 508928, Note_on_c, 11, 69, 0
12, 508928, Note_on_c, 11, 70, 74
12, 508969, Control_c, 11, 7, 127
12, 513024, Note_on_c, 11, 70, 0
12, 513024, Note_on_c, 11, 72, 74
12, 517120, Note_on_c, 11, 72, 0
12, 517120, Note_on_c, 11, 74, 74
12, 518963, Note_on_c, 11, 74, 0
12, 519168, Note_on_c, 11, 73, 74
12, 521216, Note_on_c, 11, 73, 0
12, 521216, Note_on_c, 11, 74, 73
12, 526336, Note_on_c, 11, 74, 0
12, 526336, Note_on_c, 11, 71, 71
12, 527360, Note_on_c, 11, 71, 0
12, 527360, Note_on_c, 11, 76, 70
12, 530432, Note_on_c, 11, 76, 0
12, 530432, Note_on_c, 11, 73, 69
12, 531456, Note_on_c, 11, 73, 0
12, 531456, Note_on_c, 11, 74, 69
12, 532480, Note_on_c, 11, 74, 0
12, 532480, Note_on_c, 11, 76, 68
12, 533504, Note_on_c, 11, 76, 0
12, 533504, Note_on_c, 11, 69, 68
12, 535552, Note_on_c, 11, 69, 0
12, 535552, Note_on_c, 11, 74, 67
12, 537600, Note_on_c, 11, 74, 0
12, 537600, Note_on_c, 11, 62, 66
12, 538624, Note_on_c, 11, 62, 0
12, 538624, Note_on_c, 11, 64, 66
12, 539648, Note_on_c, 11, 64, 0
12, 539648, Note_on_c, 11, 65, 65
12, 541696, Note_on_c, 11, 65, 0
12, 541696, Note_on_c, 11, 64, 64
12, 546096, Control_c, 11, 7, 126
12, 546359, Control_c, 11, 7, 125
12, 546622, Control_c, 11, 7, 124
12, 546816, Note_on_c, 11, 64, 0
12, 546816, Note_on_c, 11, 62, 62
12, 546884, Control_c, 11, 7, 123
12, 547147, Control_c, 11, 7, 122
12, 547328, Note_on_c, 11, 62, 0
12, 547328, Note_on_c, 11, 61, 62
12, 547410, Control_c, 11, 7, 121
12, 547673, Control_c, 11, 7, 120
12, 547840, Note_on_c, 11, 61, 0
12, 547840, Note_on_c, 11, 62, 60
12, 547935, Control_c, 11, 7, 119
12, 548198, Control_c, 11, 7, 118
12, 548461, Control_c, 11, 7, 117
12, 548724, Control_c, 11, 7, 116
12, 548986, Control_c, 11, 7, 115
12, 549249, Control_c, 11, 7, 114
12, 549512, Control_c, 11, 7, 113
12, 549775, Control_c, 11, 7, 112
12, 550037, Control_c, 11, 7, 111
12, 550300, Control_c, 11, 7, 110
12, 550563, Control_c, 11, 7, 109
12, 550825, Control_c, 11, 7, 108
12, 551088, Control_c, 11, 7, 107
12, 551351, Control_c, 11, 7, 106
12, 551614, Control_c, 11, 7, 105
12, 551876, Control_c, 11, 7, 104
12, 552139, Control_c, 11, 7, 103
12, 552402, Control_c, 11, 7, 102
12, 552665, Control_c, 11, 7, 101
12, 552927, Control_c, 11, 7, 100
12, 553190, Control_c, 11, 7, 99
12, 553453, Control_c, 11, 7, 98
12, 553716, Control_c, 11, 7, 97
12, 553978, Control_c, 11, 7, 96
12, 554241, Control_c, 11, 7, 95
12, 554504, Control_c, 11, 7, 94
12, 554767, Control_c, 11, 7, 93
12, 555029, Control_c, 11, 7, 92
12, 555292, Control_c, 11, 7, 91
12, 555555, Control_c, 11, 7, 90
12, 555817, Control_c, 11, 7, 89
12, 556032, Note_on_c, 11, 62, 0
12, 556032, Note_on_c, 11, 61, 45
12, 557056, Note_on_c, 11, 61, 0
12, 557056, Note_on_c, 11, 59, 43
12, 558080, Note_on_c, 11, 59, 0
12, 558080, Note_on_c, 11, 61, 41
12, 559923, Note_on_c, 11, 61, 0
12, 564224, Note_on_c, 11, 63, 39
12, 566272, Note_on_c, 11, 63, 0
12, 566272, Note_on_c, 11, 63, 39
12, 570368, Note_on_c, 11, 63, 0
12, 570368, Note_on_c, 11, 61, 39
12, 571290, Note_on_c, 11, 61, 0
12, 571392, Note_on_c, 11, 61, 39
12, 572416, Note_on_c, 11, 61, 0
12, 572416, Note_on_c, 11, 68, 39
12, 576512, Note_on_c, 11, 68, 0
12, 576512, Note_on_c, 11, 66, 39
12, 578560, Note_on_c, 11, 66, 0
12, 578560, Note_on_c, 11, 64, 39
12, 581632, Note_on_c, 11, 64, 0
12, 581632, Note_on_c, 11, 64, 39
12, 582656, Note_on_c, 11, 64, 0
12, 582656, Note_on_c, 11, 62, 44
12, 583680, Note_on_c, 11, 62, 0
12, 583680, Note_on_c, 11, 69, 49
12, 584704, Note_on_c, 11, 69, 0
12, 584704, Note_on_c, 11, 74, 56
12, 586537, Control_c, 11, 7, 97
12, 586731, Control_c, 11, 7, 96
12, 586752, Note_on_c, 11, 74, 0
12, 586752, Note_on_c, 11, 74, 56
12, 586924, Control_c, 11, 7, 95
12, 587117, Control_c, 11, 7, 94
12, 587311, Control_c, 11, 7, 93
12, 587504, Control_c, 11, 7, 92
12, 587697, Control_c, 11, 7, 91
12, 587776, Note_on_c, 11, 74, 0
12, 587776, Note_on_c, 11, 62, 56
12, 587891, Control_c, 11, 7, 90
12, 588084, Control_c, 11, 7, 89
12, 588277, Control_c, 11, 7, 88
12, 588471, Control_c, 11, 7, 87
12, 588664, Control_c, 11, 7, 86
12, 588800, Note_on_c, 11, 62, 0
12, 588800, Note_on_c, 11, 64, 56
12, 588857, Control_c, 11, 7, 85
12, 589050, Control_c, 11, 7, 84
12, 589244, Control_c, 11, 7, 83
12, 589437, Control_c, 11, 7, 82
12, 589630, Control_c, 11, 7, 81
12, 589824, Note_on_c, 11, 64, 0
12, 589824, Note_on_c, 11, 65, 56
12, 589824, Control_c, 11, 7, 80
12, 590017, Control_c, 11, 7, 79
12, 590210, Control_c, 11, 7, 78
12, 590404, Control_c, 11, 7, 77
12, 590597, Control_c, 11, 7, 76
12, 590790, Control_c, 11, 7, 75
12, 590848, Note_on_c, 11, 65, 0
12, 590848, Note_on_c, 11, 62, 53
12, 590984, Control_c, 11, 7, 74
12, 591177, Control_c, 11, 7, 73
12, 591370, Control_c, 11, 7, 72
12, 591563, Control_c, 11, 7, 71
12, 591757, Control_c, 11, 7, 70
12, 591950, Control_c, 11, 7, 69
12, 592143, Control_c, 11, 7, 68
12, 592337, Control_c, 11, 7, 67
12, 592530, Control_c, 11, 7, 66
12, 592723, Control_c, 11, 7, 65
12, 592917, Control_c, 11, 7, 64
12, 593110, Control_c, 11, 7, 63
12, 593303, Control_c, 11, 7, 62
12, 593497, Control_c, 11, 7, 61
12, 593690, Control_c, 11, 7, 60
12, 593883, Control_c, 11, 7, 59
12, 594076, Control_c, 11, 7, 58
12, 594270, Control_c, 11, 7, 57
12, 594463, Control_c, 11, 7, 56
12, 594656, Control_c, 11, 7, 55
12, 594850, Control_c, 11, 7, 54
12, 594944, Note_on_c, 11, 62, 0
12, 594944, Note_on_c, 11, 64, 53
12, 595043, Control_c, 11, 7, 53
12, 595236, Control_c, 11, 7, 52
12, 595430, Control_c, 11, 7, 51
12, 595623, Control_c, 11, 7, 50
12, 595816, Control_c, 11, 7, 49
12, 596009, Control_c, 11, 7, 48
12, 596787, Note_on_c, 11, 64, 0
12, 598185, Control_c, 11, 7, 127
12, 599040, Note_on_c, 11, 69, 76
12, 599654, Note_on_c, 11, 69, 0
12, 600064, Note_on_c, 11, 69, 77
12, 600678, Note_on_c, 11, 69, 0
12, 601088, Note_on_c, 11, 69, 79
12, 605184, Note_on_c, 11, 69, 0
12, 605184, Note_on_c, 11, 66, 84
12, 605798, Note_on_c, 11, 66, 0
12, 606208, Note_on_c, 11, 62, 86
12, 606822, Note_on_c, 11, 62, 0
12, 607232, Note_on_c, 11, 74, 87
12, 613376, Note_on_c, 11, 74, 0
12, 613376, Note_on_c, 11, 69, 96
12, 614400, Note_on_c, 11, 69, 0
12, 614400, Note_on_c, 11, 66, 97
12, 615014, Note_on_c, 11, 66, 0
12, 615424, Note_on_c, 11, 62, 98
12, 616038, Note_on_c, 11, 62, 0
12, 616448, Note_on_c, 11, 74, 98
12, 617062, Note_on_c, 11, 74, 0
12, 617472, Note_on_c, 11, 74, 98
12, 620134, Note_on_c, 11, 74, 0
12, 620544, Note_on_c, 11, 74, 98
12, 621158, Note_on_c, 11, 74, 0
12, 621568, Note_on_c, 11, 74, 98
12, 624230, Note_on_c, 11, 74, 0
12, 624640, Note_on_c, 11, 62, 98
12, 625254, Note_on_c, 11, 62, 0
12, 625664, Note_on_c, 11, 66, 98
12, 626278, Note_on_c, 11, 66, 0
12, 626688, Note_on_c, 11, 69, 98
12, 627302, Note_on_c, 11, 69, 0
12, 627712, Note_on_c, 11, 73, 99
12, 631808, Note_on_c, 11, 73, 0
12, 631808, Note_on_c, 11, 74, 110
12, 633856, Note_on_c, 11, 74, 0
12, 674816, Note_on_c, 11, 69, 69
12, 676864, Note_on_c, 11, 69, 0
12, 676864, Note_on_c, 11, 74, 74
12, 683008, Note_on_c, 11, 74, 0
12, 683008, Note_on_c, 11, 73, 88
12, 685056, Note_on_c, 11, 73, 0
12, 685056, Note_on_c, 11, 71, 94
12, 687104, Note_on_c, 11, 71, 0
12, 687104, Note_on_c, 11, 71, 95
12, 689152, Note_on_c, 11, 71, 0
12, 689152, Note_on_c, 11, 69, 96
12, 691200, Note_on_c, 11, 69, 0
12, 691200, Note_on_c, 11, 66, 98
12, 693248, Note_on_c, 11, 66, 0
12, 693248, Note_on_c, 11, 71, 99
12, 693862, Note_on_c, 11, 71, 0
12, 694272, Note_on_c, 11, 71, 71
12, 694886, Note_on_c, 11, 71, 0
12, 695296, Note_on_c, 11, 69, 72
12, 695910, Note_on_c, 11, 69, 0
12, 696320, Note_on_c, 11, 69, 73
12, 696934, Note_on_c, 11, 69, 0
12, 697344, Note_on_c, 11, 69, 74
12, 700416, Note_on_c, 11, 69, 0
12, 700416, Note_on_c, 11, 62, 77
12, 700928, Note_on_c, 11, 62, 0
12, 700928, Note_on_c, 11, 66, 77
12, 701440, Note_on_c, 11, 66, 0
12, 701440, Note_on_c, 11, 69, 78
12, 702054, Note_on_c, 11, 69, 0
12, 702464, Note_on_c, 11, 69, 78
12, 703078, Note_on_c, 11, 69, 0
12, 703488, Note_on_c, 11, 66, 79
12, 704102, Note_on_c, 11, 66, 0
12, 704512, Note_on_c, 11, 66, 80
12, 705126, Note_on_c, 11, 66, 0
12, 705536, Note_on_c, 11, 64, 81
12, 709632, Note_on_c, 11, 64, 0
12, 709632, Note_on_c, 11, 61, 85
12, 713728, Note_on_c, 11, 61, 0
12, 713728, Note_on_c, 11, 62, 89
12, 715776, Note_on_c, 11, 62, 0
12, 715776, Note_on_c, 11, 66, 91
12, 721920, Note_on_c, 11, 66, 0
12, 721920, Note_on_c, 11, 64, 97
12, 723968, Note_on_c, 11, 64, 0
12, 726016, Note_on_c, 11, 69, 101
12, 726630, Note_on_c, 11, 69, 0
12, 727040, Note_on_c, 11, 69, 102
12, 727654, Note_on_c, 11, 69, 0
12, 728064, Note_on_c, 11, 69, 103
12, 728678, Note_on_c, 11, 69, 0
12, 729088, Note_on_c, 11, 69, 103
12, 729702, Note_on_c, 11, 69, 0
12, 730112, Note_on_c, 11, 69, 104
12, 730726, Note_on_c, 11, 69, 0
12, 731136, Note_on_c, 11, 62, 94
12, 731648, Note_on_c, 11, 62, 0
12, 731648, Note_on_c, 11, 66, 95
12, 732160, Note_on_c, 11, 66, 0
12, 732160, Note_on_c, 11, 69, 96
12, 732774, Note_on_c, 11, 69, 0
12, 733184, Note_on_c, 11, 66, 97
12, 733696, Note_on_c, 11, 66, 0
12, 733696, Note_on_c, 11, 69, 98
12, 734208, Note_on_c, 11, 69, 0
12, 734208, Note_on_c, 11, 74, 99
12, 734822, Note_on_c, 11, 74, 0
12, 735232, Note_on_c, 11, 74, 100
12, 735846, Note_on_c, 11, 74, 0
12, 736256, Note_on_c, 11, 69, 102
12, 738918, Note_on_c, 11, 69, 0
12, 739328, Note_on_c, 11, 69, 107
12, 739942, Note_on_c, 11, 69, 0
12, 740352, Note_on_c, 11, 69, 108
12, 744448, Note_on_c, 11, 69, 0
12, 744448, Note_on_c, 11, 66, 114
12, 745062, Note_on_c, 11, 66, 0
12, 745472, Note_on_c, 11, 62, 116
12, 746086, Note_on_c, 11, 62, 0
12, 746496, Note_on_c, 11, 74, 115
12, 747110, Note_on_c, 11, 74, 0
12, 747520, Note_on_c, 11, 74, 115
12, 749568, Note_on_c, 11, 74, 0
12, 749568, Note_on_c, 11, 74, 115
12, 751206, Note_on_c, 11, 74, 0
12, 751616, Note_on_c, 11, 74, 115
12, 752230, Note_on_c, 11, 74, 0
12, 752640, Note_on_c, 11, 74, 115
12, 753254, Note_on_c, 11, 74, 0
12, 753664, Note_on_c, 11, 74, 115
12, 754278, Note_on_c, 11, 74, 0
12, 754688, Note_on_c, 11, 74, 115
12, 755302, Note_on_c, 11, 74, 0
12, 755712, Note_on_c, 11, 62, 115
12, 756326, Note_on_c, 11, 62, 0
12, 756736, Note_on_c, 11, 66, 115
12, 757350, Note_on_c, 11, 66, 0
12, 757760, Note_on_c, 11, 69, 115
12, 758374, Note_on_c, 11, 69, 0
12, 758784, Note_on_c, 11, 73, 115
12, 762880, Note_on_c, 11, 73, 0
12, 762880, Note_on_c, 11, 74, 115
12, 764928, Note_on_c, 11, 74, 0
12, 785408, Note_on_c, 11, 66, 64
12, 786022, Note_on_c, 11, 66, 0
12, 786432, Note_on_c, 11, 71, 64
12, 787046, Note_on_c, 11, 71, 0
12, 787456, Note_on_c, 11, 68, 64
12, 788070, Note_on_c, 11, 68, 0
12, 788480, Note_on_c, 11, 64, 65
12, 789094, Note_on_c, 11, 64, 0
12, 789504, Note_on_c, 11, 68, 68
12, 790016, Note_on_c, 11, 68, 0
12, 790016, Note_on_c, 11, 69, 69
12, 790528, Note_on_c, 11, 69, 0
12, 790528, Note_on_c, 11, 66, 71
12, 791040, Note_on_c, 11, 66, 0
12, 791040, Note_on_c, 11, 68, 72
12, 791552, Note_on_c, 11, 68, 0
12, 791552, Note_on_c, 11, 69, 74
12, 792064, Note_on_c, 11, 69, 0
12, 792064, Note_on_c, 11, 71, 75
12, 792576, Note_on_c, 11, 71, 0
12, 792576, Note_on_c, 11, 68, 77
12, 793088, Note_on_c, 11, 68, 0
12, 793088, Note_on_c, 11, 69, 78
12, 793600, Note_on_c, 11, 69, 0
12, 793600, Note_on_c, 11, 71, 80
12, 794112, Note_on_c, 11, 71, 0
12, 794112, Note_on_c, 11, 73, 81
12, 794624, Note_on_c, 11, 73, 0
12, 794624, Note_on_c, 11, 69, 83
12, 795136, Note_on_c, 11, 69, 0
12, 795136, Note_on_c, 11, 71, 84
12, 795648, Note_on_c, 11, 71, 0
12, 795648, Note_on_c, 11, 73, 86
12, 796262, Note_on_c, 11, 73, 0
12, 796672, Note_on_c, 11, 69, 89
12, 797286, Note_on_c, 11, 69, 0
12, 797696, Note_on_c, 11, 69, 92
12, 798310, Note_on_c, 11, 69, 0
12, 798720, Note_on_c, 11, 69, 95
12, 799334, Note_on_c, 11, 69, 0
12, 799744, Note_on_c, 11, 69, 98
12, 800256, Note_on_c, 11, 69, 0
12, 800256, Note_on_c, 11, 71, 98
12, 800768, Note_on_c, 11, 71, 0
12, 800768, Note_on_c, 11, 68, 98
12, 801280, Note_on_c, 11, 68, 0
12, 801280, Note_on_c, 11, 69, 99
12, 801792, Note_on_c, 11, 69, 0
12, 801792, Note_on_c, 11, 71, 99
12, 802304, Note_on_c, 11, 71, 0
12, 802304, Note_on_c, 11, 73, 100
12, 802816, Note_on_c, 11, 73, 0
12, 802816, Note_on_c, 11, 69, 100
12, 803328, Note_on_c, 11, 69, 0
12, 803328, Note_on_c, 11, 71, 100
12, 803840, Note_on_c, 11, 71, 0
12, 803840, Note_on_c, 11, 73, 101
12, 804352, Note_on_c, 11, 73, 0
12, 804352, Note_on_c, 11, 74, 101
12, 804864, Note_on_c, 11, 74, 0
12, 804864, Note_on_c, 11, 76, 102
12, 805376, Note_on_c, 11, 76, 0
12, 805376, Note_on_c, 11, 73, 102
12, 805888, Note_on_c, 11, 73, 0
12, 805888, Note_on_c, 11, 74, 102
12, 806502, Note_on_c, 11, 74, 0
12, 806912, Note_on_c, 11, 76, 103
12, 807526, Note_on_c, 11, 76, 0
12, 807936, Note_on_c, 11, 69, 104
12, 808550, Note_on_c, 11, 69, 0
12, 808960, Note_on_c, 11, 69, 105
12, 809574, Note_on_c, 11, 69, 0
12, 809984, Note_on_c, 11, 71, 106
12, 812032, Note_on_c, 11, 71, 0
12, 812032, Note_on_c, 11, 69, 107
12, 814080, Note_on_c, 11, 69, 0
12, 859136, Note_on_c, 11, 69, 85
12, 861184, Note_on_c, 11, 69, 0
12, 861184, Note_on_c, 11, 74, 87
12, 867328, Note_on_c, 11, 74, 0
12, 867328, Note_on_c, 11, 73, 92
12, 867942, Note_on_c, 11, 73, 0
12, 868352, Note_on_c, 11, 73, 93
12, 868966, Note_on_c, 11, 73, 0
12, 869376, Note_on_c, 11, 73, 94
12, 870400, Note_on_c, 11, 73, 0
12, 870400, Note_on_c, 11, 71, 95
12, 872448, Note_on_c, 11, 71, 0
12, 872448, Note_on_c, 11, 69, 97
12, 873062, Note_on_c, 11, 69, 0
12, 873472, Note_on_c, 11, 69, 94
12, 874496, Note_on_c, 11, 69, 0
12, 874496, Note_on_c, 11, 68, 89
12, 875008, Note_on_c, 11, 68, 0
12, 875008, Note_on_c, 11, 66, 86
12, 875520, Note_on_c, 11, 66, 0
12, 875520, Note_on_c, 11, 68, 83
12, 877568, Note_on_c, 11, 68, 0
12, 877568, Note_on_c, 11, 69, 52
12, 879616, Note_on_c, 11, 69, 0
12, 882688, Note_on_c, 11, 73, 57
12, 883302, Note_on_c, 11, 73, 0
12, 883712, Note_on_c, 11, 76, 58
12, 884326, Note_on_c, 11, 76, 0
12, 884736, Note_on_c, 11, 73, 59
12, 885350, Note_on_c, 11, 73, 0
12, 885760, Note_on_c, 11, 71, 60
12, 886784, Note_on_c, 11, 71, 0
12, 886784, Note_on_c, 11, 64, 62
12, 887296, Note_on_c, 11, 64, 0
12, 887296, Note_on_c, 11, 68, 62
12, 887808, Note_on_c, 11, 68, 0
12, 887808, Note_on_c, 11, 71, 63
12, 888832, Note_on_c, 11, 71, 0
12, 888832, Note_on_c, 11, 68, 64
12, 889344, Note_on_c, 11, 68, 0
12, 889344, Note_on_c, 11, 71, 64
12, 889856, Note_on_c, 11, 71, 0
12, 889856, Note_on_c, 11, 74, 65
12, 890880, Note_on_c, 11, 74, 0
12, 890880, Note_on_c, 11, 73, 66
12, 891392, Note_on_c, 11, 73, 0
12, 891392, Note_on_c, 11, 74, 66
12, 891904, Note_on_c, 11, 74, 0
12, 891904, Note_on_c, 11, 76, 67
12, 892416, Note_on_c, 11, 76, 0
12, 892416, Note_on_c, 11, 74, 67
12, 892928, Note_on_c, 11, 74, 0
12, 892928, Note_on_c, 11, 73, 68
12, 893440, Note_on_c, 11, 73, 0
12, 893440, Note_on_c, 11, 71, 69
12, 893952, Note_on_c, 11, 71, 0
12, 893952, Note_on_c, 11, 73, 69
12, 902144, Note_on_c, 11, 73, 0
12, 902144, Note_on_c, 11, 74, 78
12, 911360, Note_on_c, 11, 74, 0
12, 911360, Note_on_c, 11, 79, 87
12, 911872, Note_on_c, 11, 79, 0
12, 911872, Note_on_c, 11, 78, 88
12, 912384, Note_on_c, 11, 78, 0
12, 912384, Note_on_c, 11, 76, 89
12, 912998, Note_on_c, 11, 76, 0
12, 913408, Note_on_c, 11, 71, 90
12, 914022, Note_on_c, 11, 71, 0
12, 914432, Note_on_c, 11, 73, 91
12, 919552, Note_on_c, 11, 73, 0
12, 919552, Note_on_c, 11, 78, 96
12, 920064, Note_on_c, 11, 78, 0
12, 920064, Note_on_c, 11, 76, 97
12, 920576, Note_on_c, 11, 76, 0
12, 920576, Note_on_c, 11, 74, 97
12, 921190, Note_on_c, 11, 74, 0
12, 921600, Note_on_c, 11, 69, 98
12, 922214, Note_on_c, 11, 69, 0
12, 922624, Note_on_c, 11, 71, 99
12, 930816, Note_on_c, 11, 71, 0
12, 930816, Note_on_c, 11, 69, 103
12, 932864, Note_on_c, 11, 69, 0
12, 933888, Note_on_c, 11, 64, 103
12, 934502, Note_on_c, 11, 64, 0
12, 934912, Note_on_c, 11, 76, 103
12, 935526, Note_on_c, 11, 76, 0
12, 935936, Note_on_c, 11, 76, 103
12, 936550, Note_on_c, 11, 76, 0
12, 937984, Note_on_c, 11, 76, 103
12, 938598, Note_on_c, 11, 76, 0
12, 939008, Note_on_c, 11, 73, 103
12, 939622, Note_on_c, 11, 73, 0
12, 940032, Note_on_c, 11, 76, 103
12, 940646, Note_on_c, 11, 76, 0
12, 941056, Note_on_c, 11, 69, 103
12, 941670, Note_on_c, 11, 69, 0
12, 942080, Note_on_c, 11, 76, 103
12, 942694, Note_on_c, 11, 76, 0
12, 943104, Note_on_c, 11, 74, 103
12, 945152, Note_on_c, 11, 74, 0
12, 946176, Note_on_c, 11, 74, 104
12, 946688, Note_on_c, 11, 74, 0
12, 946688, Note_on_c, 11, 73, 104
12, 947200, Note_on_c, 11, 73, 0
12, 947200, Note_on_c, 11, 74, 105
12, 947814, Note_on_c, 11, 74, 0
12, 948224, Note_on_c, 11, 71, 106
12, 948838, Note_on_c, 11, 71, 0
12, 949248, Note_on_c, 11, 71, 107
12, 949862, Note_on_c, 11, 71, 0
12, 950272, Note_on_c, 11, 69, 107
12, 950784, Note_on_c, 11, 69, 0
12, 950784, Note_on_c, 11, 69, 108
12, 951296, Note_on_c, 11, 69, 0
12, 951296, Note_on_c, 11, 69, 108
12, 951910, Note_on_c, 11, 69, 0
12, 952320, Note_on_c, 11, 69, 92
12, 952934, Note_on_c, 11, 69, 0
12, 969728, Note_on_c, 11, 69, 75
12, 970240, Note_on_c, 11, 69, 0
12, 970240, Note_on_c, 11, 71, 76
12, 970752, Note_on_c, 11, 71, 0
12, 970752, Note_on_c, 11, 67, 76
12, 971264, Note_on_c, 11, 67, 0
12, 971264, Note_on_c, 11, 69, 77
12, 971776, Note_on_c, 11, 69, 0
12, 971776, Note_on_c, 11, 71, 77
12, 972288, Note_on_c, 11, 71, 0
12, 972288, Note_on_c, 11, 73, 78
12, 972800, Note_on_c, 11, 73, 0
12, 972800, Note_on_c, 11, 69, 79
12, 973312, Note_on_c, 11, 69, 0
12, 973312, Note_on_c, 11, 71, 79
12, 973824, Note_on_c, 11, 71, 0
12, 973824, Note_on_c, 11, 73, 80
12, 974336, Note_on_c, 11, 73, 0
12, 974336, Note_on_c, 11, 74, 80
12, 974848, Note_on_c, 11, 74, 0
12, 974848, Note_on_c, 11, 71, 81
12, 975360, Note_on_c, 11, 71, 0
12, 975360, Note_on_c, 11, 73, 81
12, 975872, Note_on_c, 11, 73, 0
12, 975872, Note_on_c, 11, 74, 82
12, 976384, Note_on_c, 11, 74, 0
12, 976384, Note_on_c, 11, 76, 83
12, 976896, Note_on_c, 11, 76, 0
12, 976896, Note_on_c, 11, 73, 83
12, 977408, Note_on_c, 11, 73, 0
12, 977408, Note_on_c, 11, 74, 84
12, 977920, Note_on_c, 11, 74, 0
12, 977920, Note_on_c, 11, 71, 84
12, 978534, Note_on_c, 11, 71, 0
12, 978944, Note_on_c, 11, 71, 85
12, 979558, Note_on_c, 11, 71, 0
12, 979968, Note_on_c, 11, 69, 87
12, 984064, Note_on_c, 11, 69, 0
12, 984064, Note_on_c, 11, 67, 92
12, 986112, Note_on_c, 11, 67, 0
12, 986112, Note_on_c, 11, 76, 95
12, 990208, Note_on_c, 11, 76, 0
12, 990208, Note_on_c, 11, 74, 100
12, 992870, Note_on_c, 11, 74, 0
12, 993280, Note_on_c, 11, 73, 104
12, 993792, Note_on_c, 11, 73, 0
12, 993792, Note_on_c, 11, 71, 106
12, 994304, Note_on_c, 11, 71, 0
12, 994304, Note_on_c, 11, 69, 106
12, 994816, Note_on_c, 11, 69, 0
12, 994816, Note_on_c, 11, 71, 106
12, 995328, Note_on_c, 11, 71, 0
12, 995328, Note_on_c, 11, 67, 106
12, 995840, Note_on_c, 11, 67, 0
12, 995840, Note_on_c, 11, 69, 106
12, 996352, Note_on_c, 11, 69, 0
12, 996352, Note_on_c, 11, 71, 106
12, 996864, Note_on_c, 11, 71, 0
12, 996864, Note_on_c, 11, 73, 106
12, 997376, Note_on_c, 11, 73, 0
12, 997376, Note_on_c, 11, 69, 106
12, 997888, Note_on_c, 11, 69, 0
12, 997888, Note_on_c, 11, 71, 106
12, 998400, Note_on_c, 11, 71, 0
12, 998400, Note_on_c, 11, 73, 106
12, 998912, Note_on_c, 11, 73, 0
12, 998912, Note_on_c, 11, 74, 106
12, 999424, Note_on_c, 11, 74, 0
12, 999424, Note_on_c, 11, 71, 106
12, 999936, Note_on_c, 11, 71, 0
12, 999936, Note_on_c, 11, 73, 106
12, 1000448, Note_on_c, 11, 73, 0
12, 1000448, Note_on_c, 11, 74, 106
12, 1001062, Note_on_c, 11, 74, 0
12, 1001472, Note_on_c, 11, 69, 106
12, 1002086, Note_on_c, 11, 69, 0
12, 1002496, Note_on_c, 11, 74, 101
12, 1004544, Note_on_c, 11, 74, 0
12, 1004544, Note_on_c, 11, 74, 103
12, 1006592, Note_on_c, 11, 74, 0
12, 1006592, Note_on_c, 11, 73, 105
12, 1007206, Note_on_c, 11, 73, 0
12, 1007616, Note_on_c, 11, 69, 107
12, 1008230, Note_on_c, 11, 69, 0
12, 1008640, Note_on_c, 11, 66, 108
12, 1010688, Note_on_c, 11, 66, 0
12, 1010688, Note_on_c, 11, 64, 110
12, 1011302, Note_on_c, 11, 64, 0
12, 1011712, Note_on_c, 11, 76, 111
12, 1012326, Note_on_c, 11, 76, 0
12, 1012736, Note_on_c, 11, 74, 113
12, 1013350, Note_on_c, 11, 74, 0
12, 1013760, Note_on_c, 11, 76, 114
12, 1014272, Note_on_c, 11, 76, 0
12, 1014272, Note_on_c, 11, 78, 114
12, 1014784, Note_on_c, 11, 78, 0
12, 1014784, Note_on_c, 11, 79, 115
12, 1015398, Note_on_c, 11, 79, 0
12, 1015808, Note_on_c, 11, 76, 116
12, 1016422, Note_on_c, 11, 76, 0
12, 1016832, Note_on_c, 11, 78, 117
12, 1017446, Note_on_c, 11, 78, 0
12, 1017856, Note_on_c, 11, 74, 119
12, 1018470, Note_on_c, 11, 74, 0
12, 1018880, Note_on_c, 11, 74, 120
12, 1019494, Note_on_c, 11, 74, 0
12, 1019904, Note_on_c, 11, 74, 121
12, 1020518, Note_on_c, 11, 74, 0
12, 1020928, Note_on_c, 11, 74, 120
12, 1021542, Note_on_c, 11, 74, 0
12, 1021952, Note_on_c, 11, 74, 120
12, 1022464, Note_on_c, 11, 74, 0
12, 1022464, Note_on_c, 11, 74, 120
12, 1022976, Note_on_c, 11, 74, 0
12, 1022976, Note_on_c, 11, 74, 120
12, 1024000, Note_on_c, 11, 74, 0
12, 1024000, Note_on_c, 11, 73, 120
12, 1024614, Note_on_c, 11, 73, 0
12, 1025024, Note_on_c, 11, 74, 120
12, 1025638, Note_on_c, 11, 74, 0
12, 1033216, End_track
13, 0, Start_track
13, 0, Title_t, "Alto"
13, 0, Program_c, 12, 52
13, 0, Control_c, 12, 121, 127
13, 0, Control_c, 12, 1, 10
13, 0, Control_c, 12, 10, 60
13, 15360, Note_on_c, 12, 61, 89
13, 17408, Note_on_c, 12, 61, 0
13, 17408, Note_on_c, 12, 62, 89
13, 20480, Note_on_c, 12, 62, 0
13, 20480, Note_on_c, 12, 62, 89
13, 21504, Note_on_c, 12, 62, 0
13, 21504, Note_on_c, 12, 61, 89
13, 22528, Note_on_c, 12, 61, 0
13, 22528, Note_on_c, 12, 54, 89
13, 23552, Note_on_c, 12, 54, 0
13, 23552, Note_on_c, 12, 66, 89
13, 27648, Note_on_c, 12, 66, 0
13, 27648, Note_on_c, 12, 65, 89
13, 29696, Note_on_c, 12, 65, 0
13, 29696, Note_on_c, 12, 66, 89
13, 32461, Note_on_c, 12, 66, 0
13, 32768, Note_on_c, 12, 68, 89
13, 33792, Note_on_c, 12, 68, 0
13, 33792, Note_on_c, 12, 69, 89
13, 34816, Note_on_c, 12, 69, 0
13, 34816, Note_on_c, 12, 71, 89
13, 35840, Note_on_c, 12, 71, 0
13, 35840, Note_on_c, 12, 73, 89
13, 36864, Note_on_c, 12, 73, 0
13, 36864, Note_on_c, 12, 69, 89
13, 37888, Note_on_c, 12, 69, 0
13, 37888, Note_on_c, 12, 71, 89
13, 38912, Note_on_c, 12, 71, 0
13, 38912, Note_on_c, 12, 69, 89
13, 39936, Note_on_c, 12, 69, 0
13, 39936, Note_on_c, 12, 68, 89
13, 44032, Note_on_c, 12, 68, 0
13, 44032, Note_on_c, 12, 66, 89
13, 47923, Note_on_c, 12, 66, 0
13, 48128, Note_on_c, 12, 74, 89
13, 50176, Note_on_c, 12, 74, 0
13, 50176, Note_on_c, 12, 73, 89
13, 52224, Note_on_c, 12, 73, 0
13, 52224, Note_on_c, 12, 65, 89
13, 54272, Note_on_c, 12, 65, 0
13, 54272, Note_on_c, 12, 66, 89
13, 55296, Note_on_c, 12, 66, 0
13, 55296, Note_on_c, 12, 68, 89
13, 56320, Note_on_c, 12, 68, 0
13, 56320, Note_on_c, 12, 69, 89
13, 60416, Note_on_c, 12, 69, 0
13, 60416, Note_on_c, 12, 68, 81
13, 61440, Note_on_c, 12, 68, 0
13, 61440, Note_on_c, 12, 66, 78
13, 62464, Note_on_c, 12, 66, 0
13, 62464, Note_on_c, 12, 68, 74
13, 64307, Note_on_c, 12, 68, 0
13, 72704, Note_on_c, 12, 66, 47
13, 73318, Note_on_c, 12, 66, 0
13, 73728, Note_on_c, 12, 66, 47
13, 74342, Note_on_c, 12, 66, 0
13, 74752, Note_on_c, 12, 66, 47
13, 75776, Note_on_c, 12, 66, 0
13, 75776, Note_on_c, 12, 59, 47
13, 76800, Note_on_c, 12, 59, 0
13, 76800, Note_on_c, 12, 64, 47
13, 79872, Note_on_c, 12, 64, 0
13, 79872, Note_on_c, 12, 63, 47
13, 80384, Note_on_c, 12, 63, 0
13, 80384, Note_on_c, 12, 61, 47
13, 80896, Note_on_c, 12, 61, 0
13, 80896, Note_on_c, 12, 63, 47
13, 81920, Note_on_c, 12, 63, 0
13, 81920, Note_on_c, 12, 59, 47
13, 82944, Note_on_c, 12, 59, 0
13, 82944, Note_on_c, 12, 61, 47
13, 87040, Note_on_c, 12, 61, 0
13, 87040, Note_on_c, 12, 59, 50
13, 87654, Note_on_c, 12, 59, 0
13, 88064, Note_on_c, 12, 63, 50
13, 89088, Note_on_c, 12, 63, 0
13, 89088, Note_on_c, 12, 64, 50
13, 90112, Note_on_c, 12, 64, 0
13, 90112, Note_on_c, 12, 59, 50
13, 91136, Note_on_c, 12, 59, 0
13, 91136, Note_on_c, 12, 61, 50
13, 92160, Note_on_c, 12, 61, 0
13, 92160, Note_on_c, 12, 64, 51
13, 93184, Note_on_c, 12, 64, 0
13, 93184, Note_on_c, 12, 62, 51
13, 94208, Note_on_c, 12, 62, 0
13, 94208, Note_on_c, 12, 61, 51
13, 95232, Note_on_c, 12, 61, 0
13, 95232, Note_on_c, 12, 59, 51
13, 96256, Note_on_c, 12, 59, 0
13, 96256, Note_on_c, 12, 64, 51
13, 98304, Note_on_c, 12, 64, 0
13, 98304, Note_on_c, 12, 61, 52
13, 99328, Note_on_c, 12, 61, 0
13, 99328, Note_on_c, 12, 62, 52
13, 101376, Note_on_c, 12, 62, 0
13, 101376, Note_on_c, 12, 64, 53
13, 103424, Note_on_c, 12, 64, 0
13, 103424, Note_on_c, 12, 57, 53
13, 105472, Note_on_c, 12, 57, 0
13, 106496, Note_on_c, 12, 71, 54
13, 108544, Note_on_c, 12, 71, 0
13, 108544, Note_on_c, 12, 67, 54
13, 109568, Note_on_c, 12, 67, 0
13, 109568, Note_on_c, 12, 64, 54
13, 110592, Note_on_c, 12, 64, 0
13, 110592, Note_on_c, 12, 64, 54
13, 111616, Note_on_c, 12, 64, 0
13, 111616, Note_on_c, 12, 66, 53
13, 112640, Note_on_c, 12, 66, 0
13, 112640, Note_on_c, 12, 62, 56
13, 113664, Note_on_c, 12, 62, 0
13, 113664, Note_on_c, 12, 62, 58
13, 114688, Note_on_c, 12, 62, 0
13, 114688, Note_on_c, 12, 66, 61
13, 115712, Note_on_c, 12, 66, 0
13, 115712, Note_on_c, 12, 67, 63
13, 117760, Note_on_c, 12, 67, 0
13, 117760, Note_on_c, 12, 66, 69
13, 120832, Note_on_c, 12, 66, 0
13, 120832, Note_on_c, 12, 64, 76
13, 121856, Note_on_c, 12, 64, 0
13, 121856, Note_on_c, 12, 71, 79
13, 124928, Note_on_c, 12, 71, 0
13, 124928, Note_on_c, 12, 71, 87
13, 125952, Note_on_c, 12, 71, 0
13, 125952, Note_on_c, 12, 70, 89
13, 128000, Note_on_c, 12, 70, 0
13, 128000, Note_on_c, 12, 66, 90
13, 130048, Note_on_c, 12, 66, 0
13, 138240, Note_on_c, 12, 73, 90
13, 138854, Note_on_c, 12, 73, 0
13, 139264, Note_on_c, 12, 73, 90
13, 139878, Note_on_c, 12, 73, 0
13, 140288, Note_on_c, 12, 73, 90
13, 141312, Note_on_c, 12, 73, 0
13, 141312, Note_on_c, 12, 66, 90
13, 142336, Note_on_c, 12, 66, 0
13, 142336, Note_on_c, 12, 71, 89
13, 145408, Note_on_c, 12, 71, 0
13, 145408, Note_on_c, 12, 69, 89
13, 145920, Note_on_c, 12, 69, 0
13, 145920, Note_on_c, 12, 68, 89
13, 146432, Note_on_c, 12, 68, 0
13, 146432, Note_on_c, 12, 69, 89
13, 147456, Note_on_c, 12, 69, 0
13, 147456, Note_on_c, 12, 66, 89
13, 148480, Note_on_c, 12, 66, 0
13, 148480, Note_on_c, 12, 68, 89
13, 152576, Note_on_c, 12, 68, 0
13, 152576, Note_on_c, 12, 66, 89
13, 153190, Note_on_c, 12, 66, 0
13, 153600, Note_on_c, 12, 61, 89
13, 154624, Note_on_c, 12, 61, 0
13, 154624, Note_on_c, 12, 66, 89
13, 155648, Note_on_c, 12, 66, 0
13, 155648, Note_on_c, 12, 66, 89
13, 156672, Note_on_c, 12, 66, 0
13, 156672, Note_on_c, 12, 65, 89
13, 157696, Note_on_c, 12, 65, 0
13, 157696, Note_on_c, 12, 68, 89
13, 158720, Note_on_c, 12, 68, 0
13, 158720, Note_on_c, 12, 61, 88
13, 159744, Note_on_c, 12, 61, 0
13, 159744, Note_on_c, 12, 63, 88
13, 160768, Note_on_c, 12, 63, 0
13, 160768, Note_on_c, 12, 64, 88
13, 162816, Note_on_c, 12, 64, 0
13, 162816, Note_on_c, 12, 63, 88
13, 164864, Note_on_c, 12, 63, 0
13, 164864, Note_on_c, 12, 61, 88
13, 165478, Note_on_c, 12, 61, 0
13, 165888, Note_on_c, 12, 61, 88
13, 166912, Note_on_c, 12, 61, 0
13, 166912, Note_on_c, 12, 60, 88
13, 167936, Note_on_c, 12, 60, 0
13, 167936, Note_on_c, 12, 61, 88
13, 168960, Note_on_c, 12, 61, 0
13, 168960, Note_on_c, 12, 68, 88
13, 171008, Note_on_c, 12, 68, 0
13, 171008, Note_on_c, 12, 68, 88
13, 172851, Note_on_c, 12, 68, 0
13, 173056, Note_on_c, 12, 63, 88
13, 174080, Note_on_c, 12, 63, 0
13, 174080, Note_on_c, 12, 66, 88
13, 175104, Note_on_c, 12, 66, 0
13, 175104, Note_on_c, 12, 64, 88
13, 176128, Note_on_c, 12, 64, 0
13, 176128, Note_on_c, 12, 63, 88
13, 177152, Note_on_c, 12, 63, 0
13, 177152, Note_on_c, 12, 64, 88
13, 177664, Note_on_c, 12, 64, 0
13, 177664, Note_on_c, 12, 66, 88
13, 178176, Note_on_c, 12, 66, 0
13, 178176, Note_on_c, 12, 68, 88
13, 179200, Note_on_c, 12, 68, 0
13, 179200, Note_on_c, 12, 68, 88
13, 180224, Note_on_c, 12, 68, 0
13, 180224, Note_on_c, 12, 66, 88
13, 181248, Note_on_c, 12, 66, 0
13, 181248, Note_on_c, 12, 64, 88
13, 182272, Note_on_c, 12, 64, 0
13, 182272, Note_on_c, 12, 63, 88
13, 183296, Note_on_c, 12, 63, 0
13, 183296, Note_on_c, 12, 61, 88
13, 184320, Note_on_c, 12, 61, 0
13, 184320, Note_on_c, 12, 68, 88
13, 185344, Note_on_c, 12, 68, 0
13, 185344, Note_on_c, 12, 69, 88
13, 188416, Note_on_c, 12, 69, 0
13, 188416, Note_on_c, 12, 69, 88
13, 189440, Note_on_c, 12, 69, 0
13, 189440, Note_on_c, 12, 68, 88
13, 190464, Note_on_c, 12, 68, 0
13, 190464, Note_on_c, 12, 64, 88
13, 191488, Note_on_c, 12, 64, 0
13, 191488, Note_on_c, 12, 64, 88
13, 192512, Note_on_c, 12, 64, 0
13, 192512, Note_on_c, 12, 68, 88
13, 193536, Note_on_c, 12, 68, 0
13, 193536, Note_on_c, 12, 73, 88
13, 194560, Note_on_c, 12, 73, 0
13, 194560, Note_on_c, 12, 66, 88
13, 195174, Note_on_c, 12, 66, 0
13, 195584, Note_on_c, 12, 71, 88
13, 196198, Note_on_c, 12, 71, 0
13, 196608, Note_on_c, 12, 71, 88
13, 197222, Note_on_c, 12, 71, 0
13, 197632, Note_on_c, 12, 71, 88
13, 198656, Note_on_c, 12, 71, 0
13, 198656, Note_on_c, 12, 64, 88
13, 199680, Note_on_c, 12, 64, 0
13, 199680, Note_on_c, 12, 69, 88
13, 202752, Note_on_c, 12, 69, 0
13, 202752, Note_on_c, 12, 68, 88
13, 203264, Note_on_c, 12, 68, 0
13, 203264, Note_on_c, 12, 66, 88
13, 203776, Note_on_c, 12, 66, 0
13, 203776, Note_on_c, 12, 68, 88
13, 204800, Note_on_c, 12, 68, 0
13, 204800, Note_on_c, 12, 65, 88
13, 205824, Note_on_c, 12, 65, 0
13, 205824, Note_on_c, 12, 66, 88
13, 208896, Note_on_c, 12, 66, 0
13, 208896, Note_on_c, 12, 64, 88
13, 209920, Note_on_c, 12, 64, 0
13, 209920, Note_on_c, 12, 62, 88
13, 210944, Note_on_c, 12, 62, 0
13, 210944, Note_on_c, 12, 59, 88
13, 211968, Note_on_c, 12, 59, 0
13, 211968, Note_on_c, 12, 64, 88
13, 212992, Note_on_c, 12, 64, 0
13, 212992, Note_on_c, 12, 62, 88
13, 214016, Note_on_c, 12, 62, 0
13, 214016, Note_on_c, 12, 61, 88
13, 215040, Note_on_c, 12, 61, 0
13, 215040, Note_on_c, 12, 59, 88
13, 216064, Note_on_c, 12, 59, 0
13, 216064, Note_on_c, 12, 57, 88
13, 218112, Note_on_c, 12, 57, 0
13, 220160, Note_on_c, 12, 64, 79
13, 222208, Note_on_c, 12, 64, 0
13, 222208, Note_on_c, 12, 66, 71
13, 225280, Note_on_c, 12, 66, 0
13, 225280, Note_on_c, 12, 66, 46
13, 226304, Note_on_c, 12, 66, 0
13, 226304, Note_on_c, 12, 64, 46
13, 227328, Note_on_c, 12, 64, 0
13, 227328, Note_on_c, 12, 57, 46
13, 228352, Note_on_c, 12, 57, 0
13, 228352, Note_on_c, 12, 69, 46
13, 232448, Note_on_c, 12, 69, 0
13, 232448, Note_on_c, 12, 68, 47
13, 234496, Note_on_c, 12, 68, 0
13, 234496, Note_on_c, 12, 69, 47
13, 235110, Note_on_c, 12, 69, 0
13, 235520, Note_on_c, 12, 69, 47
13, 237568, Note_on_c, 12, 69, 0
13, 237568, Note_on_c, 12, 69, 47
13, 238592, Note_on_c, 12, 69, 0
13, 238592, Note_on_c, 12, 68, 47
13, 239616, Note_on_c, 12, 68, 0
13, 239616, Note_on_c, 12, 61, 47
13, 240640, Note_on_c, 12, 61, 0
13, 240640, Note_on_c, 12, 66, 47
13, 243712, Note_on_c, 12, 66, 0
13, 243712, Note_on_c, 12, 64, 48
13, 244224, Note_on_c, 12, 64, 0
13, 244224, Note_on_c, 12, 62, 48
13, 244736, Note_on_c, 12, 62, 0
13, 244736, Note_on_c, 12, 64, 48
13, 245760, Note_on_c, 12, 64, 0
13, 245760, Note_on_c, 12, 59, 48
13, 246784, Note_on_c, 12, 59, 0
13, 246784, Note_on_c, 12, 61, 48
13, 248832, Note_on_c, 12, 61, 0
13, 248832, Note_on_c, 12, 63, 49
13, 250880, Note_on_c, 12, 63, 0
13, 250880, Note_on_c, 12, 64, 49
13, 252928, Note_on_c, 12, 64, 0
13, 254976, Note_on_c, 12, 71, 50
13, 255590, Note_on_c, 12, 71, 0
13, 256000, Note_on_c, 12, 71, 51
13, 256614, Note_on_c, 12, 71, 0
13, 257024, Note_on_c, 12, 71, 51
13, 258048, Note_on_c, 12, 71, 0
13, 258048, Note_on_c, 12, 64, 51
13, 259072, Note_on_c, 12, 64, 0
13, 259072, Note_on_c, 12, 69, 51
13, 262144, Note_on_c, 12, 69, 0
13, 262144, Note_on_c, 12, 68, 52
13, 262656, Note_on_c, 12, 68, 0
13, 262656, Note_on_c, 12, 66, 52
13, 263168, Note_on_c, 12, 66, 0
13, 263168, Note_on_c, 12, 64, 53
13, 265216, Note_on_c, 12, 64, 0
13, 265216, Note_on_c, 12, 62, 59
13, 267264, Note_on_c, 12, 62, 0
13, 267264, Note_on_c, 12, 61, 65
13, 269312, Note_on_c, 12, 61, 0
13, 269312, Note_on_c, 12, 63, 72
13, 271360, Note_on_c, 12, 63, 0
13, 271360, Note_on_c, 12, 63, 78
13, 272384, Note_on_c, 12, 63, 0
13, 272384, Note_on_c, 12, 66, 81
13, 273408, Note_on_c, 12, 66, 0
13, 273408, Note_on_c, 12, 64, 84
13, 274432, Note_on_c, 12, 64, 0
13, 274432, Note_on_c, 12, 61, 87
13, 275456, Note_on_c, 12, 61, 0
13, 275456, Note_on_c, 12, 63, 91
13, 279552, Note_on_c, 12, 63, 0
13, 279552, Note_on_c, 12, 61, 96
13, 281395, Note_on_c, 12, 61, 0
13, 281518, Control_c, 12, 7, 79
13, 281600, Note_on_c, 12, 69, 95
13, 282214, Note_on_c, 12, 69, 0
13, 282624, Note_on_c, 12, 69, 95
13, 283238, Note_on_c, 12, 69, 0
13, 283648, Note_on_c, 12, 69, 95
13, 284672, Note_on_c, 12, 69, 0
13, 284672, Note_on_c, 12, 71, 95
13, 285184, Note_on_c, 12, 71, 0
13, 285184, Note_on_c, 12, 69, 95
13, 285696, Note_on_c, 12, 69, 0
13, 285696, Note_on_c, 12, 68, 95
13, 288768, Note_on_c, 12, 68, 0
13, 288768, Note_on_c, 12, 66, 95
13, 289280, Note_on_c, 12, 66, 0
13, 289280, Note_on_c, 12, 65, 95
13, 289792, Note_on_c, 12, 65, 0
13, 289792, Note_on_c, 12, 66, 95
13, 292864, Note_on_c, 12, 66, 0
13, 292864, Note_on_c, 12, 68, 95
13, 293376, Note_on_c, 12, 68, 0
13, 293376, Note_on_c, 12, 69, 95
13, 293888, Note_on_c, 12, 69, 0
13, 293888, Note_on_c, 12, 63, 95
13, 295936, Note_on_c, 12, 63, 0
13, 295936, Note_on_c, 12, 65, 95
13, 297779, Note_on_c, 12, 65, 0
13, 300032, Note_on_c, 12, 63, 95
13, 302080, Note_on_c, 12, 63, 0
13, 302080, Note_on_c, 12, 64, 95
13, 304128, Note_on_c, 12, 64, 0
13, 304128, Note_on_c, 12, 66, 95
13, 306176, Note_on_c, 12, 66, 0
13, 306176, Note_on_c, 12, 66, 95
13, 308224, Note_on_c, 12, 66, 0
13, 308224, Note_on_c, 12, 66, 95
13, 310272, Note_on_c, 12, 66, 0
13, 312238, Control_c, 12, 7, 127
13, 314368, Note_on_c, 12, 66, 95
13, 316416, Note_on_c, 12, 66, 0
13, 316416, Note_on_c, 12, 66, 95
13, 318464, Note_on_c, 12, 66, 0
13, 318464, Note_on_c, 12, 66, 95
13, 320512, Note_on_c, 12, 66, 0
13, 320512, Note_on_c, 12, 66, 95
13, 324608, Note_on_c, 12, 66, 0
13, 324608, Note_on_c, 12, 64, 95
13, 326656, Note_on_c, 12, 64, 0
13, 332800, Note_on_c, 12, 64, 95
13, 334848, Note_on_c, 12, 64, 0
13, 334848, Note_on_c, 12, 64, 95
13, 336896, Note_on_c, 12, 64, 0
13, 336896, Note_on_c, 12, 63, 95
13, 338944, Note_on_c, 12, 63, 0
13, 338944, Note_on_c, 12, 61, 95
13, 340992, Note_on_c, 12, 61, 0
13, 340992, Note_on_c, 12, 66, 95
13, 343040, Note_on_c, 12, 66, 0
13, 343040, Note_on_c, 12, 68, 95
13, 345088, Note_on_c, 12, 68, 0
13, 349184, Note_on_c, 12, 66, 95
13, 351232, Note_on_c, 12, 66, 0
13, 351232, Note_on_c, 12, 64, 95
13, 353280, Note_on_c, 12, 64, 0
13, 353280, Note_on_c, 12, 66, 95
13, 357376, Note_on_c, 12, 66, 0
13, 357376, Note_on_c, 12, 64, 95
13, 359219, Note_on_c, 12, 64, 0
13, 359329, Control_c, 12, 7, 79
13, 359424, Note_on_c, 12, 64, 95
13, 361472, Note_on_c, 12, 64, 0
13, 361472, Note_on_c, 12, 66, 95
13, 364544, Note_on_c, 12, 66, 0
13, 364544, Note_on_c, 12, 66, 95
13, 365568, Note_on_c, 12, 66, 0
13, 365568, Note_on_c, 12, 65, 95
13, 366592, Note_on_c, 12, 65, 0
13, 366592, Note_on_c, 12, 61, 95
13, 367616, Note_on_c, 12, 61, 0
13, 367616, Note_on_c, 12, 66, 95
13, 368640, Note_on_c, 12, 66, 0
13, 368640, Note_on_c, 12, 69, 95
13, 369441, Control_c, 12, 7, 78
13, 369625, Control_c, 12, 7, 77
13, 369664, Note_on_c, 12, 69, 0
13, 369664, Note_on_c, 12, 71, 95
13, 369809, Control_c, 12, 7, 76
13, 369992, Control_c, 12, 7, 75
13, 370176, Control_c, 12, 7, 74
13, 370360, Control_c, 12, 7, 73
13, 370543, Control_c, 12, 7, 72
13, 370727, Control_c, 12, 7, 71
13, 370911, Control_c, 12, 7, 70
13, 371094, Control_c, 12, 7, 69
13, 371278, Control_c, 12, 7, 68
13, 371462, Control_c, 12, 7, 67
13, 371645, Control_c, 12, 7, 66
13, 371829, Control_c, 12, 7, 65
13, 372013, Control_c, 12, 7, 64
13, 372196, Control_c, 12, 7, 63
13, 372380, Control_c, 12, 7, 62
13, 372564, Control_c, 12, 7, 61
13, 372747, Control_c, 12, 7, 60
13, 372931, Control_c, 12, 7, 59
13, 373115, Control_c, 12, 7, 58
13, 373298, Control_c, 12, 7, 57
13, 373482, Control_c, 12, 7, 56
13, 373665, Control_c, 12, 7, 55
13, 373760, Note_on_c, 12, 71, 0
13, 373760, Note_on_c, 12, 69, 95
13, 375603, Note_on_c, 12, 69, 0
13, 375808, Note_on_c, 12, 73, 95
13, 376422, Note_on_c, 12, 73, 0
13, 376832, Note_on_c, 12, 73, 95
13, 377446, Note_on_c, 12, 73, 0
13, 377856, Note_on_c, 12, 73, 95
13, 378880, Note_on_c, 12, 73, 0
13, 378880, Note_on_c, 12, 66, 95
13, 379904, Note_on_c, 12, 66, 0
13, 379904, Note_on_c, 12, 71, 95
13, 382976, Note_on_c, 12, 71, 0
13, 382976, Note_on_c, 12, 69, 95
13, 383488, Note_on_c, 12, 69, 0
13, 383488, Note_on_c, 12, 68, 95
13, 384000, Note_on_c, 12, 68, 0
13, 384000, Note_on_c, 12, 69, 95
13, 385024, Note_on_c, 12, 69, 0
13, 385024, Note_on_c, 12, 66, 95
13, 386048, Note_on_c, 12, 66, 0
13, 386048, Note_on_c, 12, 68, 95
13, 388096, Note_on_c, 12, 68, 0
13, 388096, Note_on_c, 12, 68, 95
13, 390144, Note_on_c, 12, 68, 0
13, 396288, Note_on_c, 12, 64, 95
13, 398336, Note_on_c, 12, 64, 0
13, 398336, Note_on_c, 12, 66, 95
13, 401408, Note_on_c, 12, 66, 0
13, 401408, Note_on_c, 12, 66, 95
13, 402432, Note_on_c, 12, 66, 0
13, 402432, Note_on_c, 12, 64, 95
13, 403456, Note_on_c, 12, 64, 0
13, 403456, Note_on_c, 12, 57, 95
13, 404480, Note_on_c, 12, 57, 0
13, 404480, Note_on_c, 12, 69, 95
13, 408576, Note_on_c, 12, 69, 0
13, 408576, Note_on_c, 12, 68, 95
13, 410624, Note_on_c, 12, 68, 0
13, 410624, Note_on_c, 12, 69, 95
13, 412672, Note_on_c, 12, 69, 0
13, 412672, Note_on_c, 12, 67, 95
13, 413286, Note_on_c, 12, 67, 0
13, 413696, Note_on_c, 12, 67, 95
13, 414310, Note_on_c, 12, 67, 0
13, 414720, Note_on_c, 12, 67, 95
13, 415744, Note_on_c, 12, 67, 0
13, 415744, Note_on_c, 12, 61, 95
13, 416768, Note_on_c, 12, 61, 0
13, 416768, Note_on_c, 12, 66, 95
13, 419840, Note_on_c, 12, 66, 0
13, 419840, Note_on_c, 12, 66, 95
13, 420352, Note_on_c, 12, 66, 0
13, 420352, Note_on_c, 12, 64, 95
13, 420864, Note_on_c, 12, 64, 0
13, 420864, Note_on_c, 12, 66, 95
13, 421888, Note_on_c, 12, 66, 0
13, 421888, Note_on_c, 12, 62, 95
13, 422912, Note_on_c, 12, 62, 0
13, 422912, Note_on_c, 12, 69, 95
13, 423936, Note_on_c, 12, 69, 0
13, 423936, Note_on_c, 12, 71, 95
13, 424960, Note_on_c, 12, 71, 0
13, 424960, Note_on_c, 12, 72, 95
13, 427008, Note_on_c, 12, 72, 0
13, 427008, Note_on_c, 12, 71, 95
13, 428851, Note_on_c, 12, 71, 0
13, 429056, Note_on_c, 12, 73, 95
13, 429670, Note_on_c, 12, 73, 0
13, 430080, Note_on_c, 12, 73, 95
13, 430694, Note_on_c, 12, 73, 0
13, 431104, Note_on_c, 12, 73, 95
13, 432128, Note_on_c, 12, 73, 0
13, 432128, Note_on_c, 12, 66, 95
13, 433152, Note_on_c, 12, 66, 0
13, 433152, Note_on_c, 12, 71, 95
13, 436224, Note_on_c, 12, 71, 0
13, 436224, Note_on_c, 12, 69, 95
13, 436736, Note_on_c, 12, 69, 0
13, 436736, Note_on_c, 12, 67, 95
13, 437248, Note_on_c, 12, 67, 0
13, 437248, Note_on_c, 12, 69, 95
13, 438272, Note_on_c, 12, 69, 0
13, 438272, Note_on_c, 12, 66, 95
13, 439296, Note_on_c, 12, 66, 0
13, 439296, Note_on_c, 12, 68, 95
13, 441344, Note_on_c, 12, 68, 0
13, 441344, Note_on_c, 12, 70, 95
13, 443392, Note_on_c, 12, 70, 0
13, 443392, Note_on_c, 12, 71, 95
13, 444006, Note_on_c, 12, 71, 0
13, 444416, Note_on_c, 12, 66, 95
13, 446464, Note_on_c, 12, 66, 0
13, 446464, Note_on_c, 12, 62, 95
13, 447488, Note_on_c, 12, 62, 0
13, 447488, Note_on_c, 12, 67, 95
13, 449536, Note_on_c, 12, 67, 0
13, 449536, Note_on_c, 12, 69, 95
13, 450560, Note_on_c, 12, 69, 0
13, 450560, Note_on_c, 12, 67, 95
13, 451584, Note_on_c, 12, 67, 0
13, 451584, Note_on_c, 12, 66, 95
13, 452608, Note_on_c, 12, 66, 0
13, 452608, Note_on_c, 12, 64, 95
13, 453632, Note_on_c, 12, 64, 0
13, 453632, Note_on_c, 12, 62, 95
13, 455680, Note_on_c, 12, 62, 0
13, 456617, Control_c, 12, 7, 105
13, 457728, Note_on_c, 12, 64, 95
13, 459776, Note_on_c, 12, 64, 0
13, 459776, Note_on_c, 12, 66, 95
13, 462848, Note_on_c, 12, 66, 0
13, 462848, Note_on_c, 12, 66, 95
13, 463872, Note_on_c, 12, 66, 0
13, 463872, Note_on_c, 12, 64, 95
13, 464896, Note_on_c, 12, 64, 0
13, 464896, Note_on_c, 12, 61, 95
13, 465510, Note_on_c, 12, 61, 0
13, 465920, Note_on_c, 12, 73, 95
13, 466534, Note_on_c, 12, 73, 0
13, 466944, Note_on_c, 12, 73, 95
13, 467558, Note_on_c, 12, 73, 0
13, 467968, Note_on_c, 12, 73, 95
13, 468992, Note_on_c, 12, 73, 0
13, 468992, Note_on_c, 12, 66, 95
13, 470016, Note_on_c, 12, 66, 0
13, 470016, Note_on_c, 12, 71, 95
13, 473088, Note_on_c, 12, 71, 0
13, 473088, Note_on_c, 12, 69, 95
13, 473600, Note_on_c, 12, 69, 0
13, 473600, Note_on_c, 12, 68, 95
13, 474112, Note_on_c, 12, 68, 0
13, 474112, Note_on_c, 12, 69, 95
13, 475136, Note_on_c, 12, 69, 0
13, 475136, Note_on_c, 12, 69, 95
13, 476160, Note_on_c, 12, 69, 0
13, 476160, Note_on_c, 12, 69, 95
13, 477184, Note_on_c, 12, 69, 0
13, 477184, Note_on_c, 12, 66, 95
13, 478208, Note_on_c, 12, 66, 0
13, 478208, Note_on_c, 12, 67, 95
13, 479232, Note_on_c, 12, 67, 0
13, 479232, Note_on_c, 12, 69, 95
13, 480256, Note_on_c, 12, 69, 0
13, 480256, Note_on_c, 12, 62, 89
13, 481280, Note_on_c, 12, 62, 0
13, 481280, Note_on_c, 12, 66, 71
13, 482304, Note_on_c, 12, 66, 0
13, 482304, Note_on_c, 12, 59, 51
13, 483328, Note_on_c, 12, 59, 0
13, 483328, Note_on_c, 12, 61, 51
13, 483840, Note_on_c, 12, 61, 0
13, 483840, Note_on_c, 12, 63, 50
13, 484352, Note_on_c, 12, 63, 0
13, 484352, Note_on_c, 12, 64, 50
13, 485376, Note_on_c, 12, 64, 0
13, 485376, Note_on_c, 12, 63, 49
13, 486400, Note_on_c, 12, 63, 0
13, 486400, Note_on_c, 12, 64, 49
13, 487424, Note_on_c, 12, 64, 0
13, 487424, Note_on_c, 12, 59, 48
13, 488448, Note_on_c, 12, 59, 0
13, 488448, Note_on_c, 12, 64, 47
13, 489472, Note_on_c, 12, 64, 0
13, 489472, Note_on_c, 12, 62, 46
13, 490496, Note_on_c, 12, 62, 0
13, 490496, Note_on_c, 12, 61, 46
13, 491520, Note_on_c, 12, 61, 0
13, 491520, Note_on_c, 12, 60, 45
13, 492544, Note_on_c, 12, 60, 0
13, 492544, Note_on_c, 12, 58, 44
13, 493568, Note_on_c, 12, 58, 0
13, 493568, Note_on_c, 12, 57, 44
13, 494592, Note_on_c, 12, 57, 0
13, 494592, Note_on_c, 12, 55, 43
13, 495616, Note_on_c, 12, 55, 0
13, 495616, Note_on_c, 12, 57, 42
13, 496640, Note_on_c, 12, 57, 0
13, 496640, Note_on_c, 12, 58, 42
13, 497664, Note_on_c, 12, 58, 0
13, 497664, Note_on_c, 12, 55, 41
13, 498688, Note_on_c, 12, 64, 40
13, 498688, Note_on_c, 12, 55, 0
13, 500736, Note_on_c, 12, 64, 0
13, 500736, Note_on_c, 12, 57, 39
13, 502569, Control_c, 12, 7, 71
13, 502579, Note_on_c, 12, 57, 0
13, 502684, Control_c, 12, 7, 72
13, 502784, Note_on_c, 12, 66, 62
13, 502798, Control_c, 12, 7, 73
13, 502912, Control_c, 12, 7, 74
13, 503027, Control_c, 12, 7, 75
13, 503141, Control_c, 12, 7, 76
13, 503255, Control_c, 12, 7, 77
13, 503369, Control_c, 12, 7, 78
13, 503484, Control_c, 12, 7, 79
13, 503598, Control_c, 12, 7, 80
13, 503712, Control_c, 12, 7, 81
13, 503827, Control_c, 12, 7, 82
13, 503941, Control_c, 12, 7, 83
13, 504055, Control_c, 12, 7, 84
13, 504169, Control_c, 12, 7, 85
13, 504284, Control_c, 12, 7, 86
13, 504398, Control_c, 12, 7, 87
13, 504512, Control_c, 12, 7, 88
13, 504627, Control_c, 12, 7, 89
13, 504741, Control_c, 12, 7, 90
13, 504855, Control_c, 12, 7, 91
13, 504969, Control_c, 12, 7, 92
13, 505084, Control_c, 12, 7, 93
13, 505198, Control_c, 12, 7, 94
13, 505312, Control_c, 12, 7, 95
13, 505427, Control_c, 12, 7, 96
13, 505541, Control_c, 12, 7, 97
13, 505655, Control_c, 12, 7, 98
13, 505769, Control_c, 12, 7, 99
13, 505884, Control_c, 12, 7, 100
13, 505998, Control_c, 12, 7, 101
13, 506112, Control_c, 12, 7, 102
13, 506227, Control_c, 12, 7, 103
13, 506341, Control_c, 12, 7, 104
13, 506455, Control_c, 12, 7, 105
13, 506569, Control_c, 12, 7, 106
13, 506684, Control_c, 12, 7, 107
13, 506798, Control_c, 12, 7, 108
13, 506880, Note_on_c, 12, 66, 0
13, 506880, Note_on_c, 12, 66, 74
13, 506912, Control_c, 12, 7, 109
13, 507027, Control_c, 12, 7, 110
13, 507141, Control_c, 12, 7, 111
13, 507255, Control_c, 12, 7, 112
13, 507369, Control_c, 12, 7, 113
13, 507484, Control_c, 12, 7, 114
13, 507598, Control_c, 12, 7, 115
13, 507712, Control_c, 12, 7, 116
13, 507827, Control_c, 12, 7, 117
13, 507941, Control_c, 12, 7, 118
13, 508055, Control_c, 12, 7, 119
13, 508169, Control_c, 12, 7, 120
13, 508284, Control_c, 12, 7, 121
13, 508398, Control_c, 12, 7, 122
13, 508512, Control_c, 12, 7, 123
13, 508627, Control_c, 12, 7, 124
13, 508741, Control_c, 12, 7, 125
13, 508855, Control_c, 12, 7, 126
13, 508928, Note_on_c, 12, 66, 0
13, 508928, Note_on_c, 12, 66, 74
13, 508969, Control_c, 12, 7, 127
13, 516096, Note_on_c, 12, 66, 0
13, 516096, Note_on_c, 12, 65, 74
13, 517120, Note_on_c, 12, 65, 0
13, 517120, Note_on_c, 12, 65, 74
13, 518963, Note_on_c, 12, 65, 0
13, 519168, Note_on_c, 12, 64, 74
13, 521216, Note_on_c, 12, 64, 0
13, 521216, Note_on_c, 12, 62, 73
13, 522240, Note_on_c, 12, 62, 0
13, 522240, Note_on_c, 12, 64, 72
13, 523264, Note_on_c, 12, 64, 0
13, 523264, Note_on_c, 12, 65, 72
13, 524288, Note_on_c, 12, 65, 0
13, 524288, Note_on_c, 12, 62, 72
13, 525312, Note_on_c, 12, 62, 0
13, 525312, Note_on_c, 12, 71, 71
13, 527360, Note_on_c, 12, 71, 0
13, 527360, Note_on_c, 12, 71, 70
13, 529408, Note_on_c, 12, 71, 0
13, 529408, Note_on_c, 12, 69, 69
13, 531456, Note_on_c, 12, 69, 0
13, 531456, Note_on_c, 12, 64, 69
13, 533504, Note_on_c, 12, 64, 0
13, 533504, Note_on_c, 12, 65, 68
13, 535552, Note_on_c, 12, 65, 0
13, 535552, Note_on_c, 12, 62, 67
13, 537600, Note_on_c, 12, 62, 0
13, 537600, Note_on_c, 12, 59, 66
13, 539648, Note_on_c, 12, 59, 0
13, 539648, Note_on_c, 12, 59, 65
13, 541696, Note_on_c, 12, 59, 0
13, 541696, Note_on_c, 12, 58, 64
13, 542720, Note_on_c, 12, 58, 0
13, 542720, Note_on_c, 12, 57, 64
13, 543744, Note_on_c, 12, 57, 0
13, 543744, Note_on_c, 12, 55, 64
13, 544768, Note_on_c, 12, 55, 0
13, 544768, Note_on_c, 12, 58, 63
13, 545792, Note_on_c, 12, 58, 0
13, 545792, Note_on_c, 12, 57, 63
13, 546206, Control_c, 12, 7, 126
13, 546392, Control_c, 12, 7, 125
13, 546578, Control_c, 12, 7, 124
13, 546764, Control_c, 12, 7, 123
13, 546951, Control_c, 12, 7, 122
13, 547137, Control_c, 12, 7, 121
13, 547323, Control_c, 12, 7, 120
13, 547509, Control_c, 12, 7, 119
13, 547695, Control_c, 12, 7, 118
13, 547840, Note_on_c, 12, 57, 0
13, 547840, Note_on_c, 12, 57, 60
13, 547881, Control_c, 12, 7, 117
13, 548068, Control_c, 12, 7, 116
13, 548254, Control_c, 12, 7, 115
13, 548440, Control_c, 12, 7, 114
13, 548626, Control_c, 12, 7, 113
13, 548812, Control_c, 12, 7, 112
13, 548999, Control_c, 12, 7, 111
13, 549185, Control_c, 12, 7, 110
13, 549371, Control_c, 12, 7, 109
13, 549557, Control_c, 12, 7, 108
13, 549683, Note_on_c, 12, 57, 0
13, 549743, Control_c, 12, 7, 107
13, 549888, Note_on_c, 12, 59, 56
13, 549929, Control_c, 12, 7, 106
13, 550116, Control_c, 12, 7, 105
13, 550302, Control_c, 12, 7, 104
13, 550488, Control_c, 12, 7, 103
13, 550674, Control_c, 12, 7, 102
13, 550860, Control_c, 12, 7, 101
13, 551047, Control_c, 12, 7, 100
13, 551233, Control_c, 12, 7, 99
13, 551419, Control_c, 12, 7, 98
13, 551605, Control_c, 12, 7, 97
13, 551791, Control_c, 12, 7, 96
13, 551936, Note_on_c, 12, 59, 0
13, 551936, Note_on_c, 12, 59, 53
13, 551977, Control_c, 12, 7, 95
13, 552164, Control_c, 12, 7, 94
13, 552350, Control_c, 12, 7, 93
13, 552536, Control_c, 12, 7, 92
13, 552722, Control_c, 12, 7, 91
13, 552908, Control_c, 12, 7, 90
13, 553095, Control_c, 12, 7, 89
13, 553281, Control_c, 12, 7, 88
13, 553467, Control_c, 12, 7, 87
13, 553653, Control_c, 12, 7, 86
13, 553839, Control_c, 12, 7, 85
13, 553984, Note_on_c, 12, 59, 0
13, 553984, Note_on_c, 12, 57, 49
13, 554025, Control_c, 12, 7, 84
13, 555008, Note_on_c, 12, 57, 0
13, 555008, Note_on_c, 12, 69, 47
13, 557056, Note_on_c, 12, 69, 0
13, 557056, Note_on_c, 12, 68, 43
13, 558080, Note_on_c, 12, 68, 0
13, 558080, Note_on_c, 12, 69, 41
13, 559923, Note_on_c, 12, 69, 0
13, 564224, Note_on_c, 12, 66, 39
13, 565248, Note_on_c, 12, 66, 0
13, 565248, Note_on_c, 12, 67, 39
13, 566272, Note_on_c, 12, 67, 0
13, 566272, Note_on_c, 12, 69, 39
13, 567296, Note_on_c, 12, 69, 0
13, 567296, Note_on_c, 12, 63, 39
13, 568320, Note_on_c, 12, 63, 0
13, 568320, Note_on_c, 12, 68, 39
13, 570368, Note_on_c, 12, 68, 0
13, 570368, Note_on_c, 12, 68, 39
13, 572211, Note_on_c, 12, 68, 0
13, 576512, Note_on_c, 12, 61, 39
13, 577536, Note_on_c, 12, 61, 0
13, 577536, Note_on_c, 12, 62, 39
13, 578560, Note_on_c, 12, 62, 0
13, 578560, Note_on_c, 12, 64, 39
13, 579584, Note_on_c, 12, 64, 0
13, 579584, Note_on_c, 12, 57, 39
13, 580608, Note_on_c, 12, 57, 0
13, 580608, Note_on_c, 12, 67, 39
13, 583680, Note_on_c, 12, 67, 0
13, 583680, Note_on_c, 12, 65, 49
13, 584602, Note_on_c, 12, 65, 0
13, 584704, Note_on_c, 12, 65, 56
13, 585728, Note_on_c, 12, 65, 0
13, 585728, Note_on_c, 12, 64, 56
13, 586665, Control_c, 12, 7, 94
13, 586752, Note_on_c, 12, 64, 0
13, 586752, Note_on_c, 12, 62, 56
13, 586897, Control_c, 12, 7, 93
13, 587128, Control_c, 12, 7, 92
13, 587359, Control_c, 12, 7, 91
13, 587590, Control_c, 12, 7, 90
13, 587776, Note_on_c, 12, 62, 0
13, 587776, Note_on_c, 12, 56, 56
13, 587821, Control_c, 12, 7, 89
13, 588052, Control_c, 12, 7, 88
13, 588283, Control_c, 12, 7, 87
13, 588514, Control_c, 12, 7, 86
13, 588745, Control_c, 12, 7, 85
13, 588976, Control_c, 12, 7, 84
13, 589207, Control_c, 12, 7, 83
13, 589438, Control_c, 12, 7, 82
13, 589669, Control_c, 12, 7, 81
13, 589824, Note_on_c, 12, 56, 0
13, 589824, Note_on_c, 12, 57, 56
13, 589900, Control_c, 12, 7, 80
13, 590131, Control_c, 12, 7, 79
13, 590362, Control_c, 12, 7, 78
13, 590593, Control_c, 12, 7, 77
13, 590824, Control_c, 12, 7, 76
13, 590848, Note_on_c, 12, 57, 0
13, 590848, Note_on_c, 12, 65, 53
13, 591055, Control_c, 12, 7, 75
13, 591286, Control_c, 12, 7, 74
13, 591517, Control_c, 12, 7, 73
13, 591748, Control_c, 12, 7, 72
13, 591979, Control_c, 12, 7, 71
13, 592210, Control_c, 12, 7, 70
13, 592441, Control_c, 12, 7, 69
13, 592672, Control_c, 12, 7, 68
13, 592896, Note_on_c, 12, 65, 0
13, 592896, Note_on_c, 12, 64, 53
13, 592903, Control_c, 12, 7, 67
13, 593134, Control_c, 12, 7, 66
13, 593365, Control_c, 12, 7, 65
13, 593596, Control_c, 12, 7, 64
13, 593827, Control_c, 12, 7, 63
13, 593920, Note_on_c, 12, 64, 0
13, 593920, Note_on_c, 12, 62, 53
13, 594058, Control_c, 12, 7, 62
13, 594289, Control_c, 12, 7, 61
13, 594520, Control_c, 12, 7, 60
13, 594751, Control_c, 12, 7, 59
13, 594944, Note_on_c, 12, 62, 0
13, 594944, Note_on_c, 12, 61, 53
13, 594982, Control_c, 12, 7, 58
13, 595213, Control_c, 12, 7, 57
13, 595444, Control_c, 12, 7, 56
13, 595675, Control_c, 12, 7, 55
13, 595906, Control_c, 12, 7, 54
13, 596137, Control_c, 12, 7, 53
13, 596787, Note_on_c, 12, 61, 0
13, 598953, Control_c, 12, 7, 127
13, 605184, Note_on_c, 12, 69, 84
13, 605798, Note_on_c, 12, 69, 0
13, 606208, Note_on_c, 12, 69, 86
13, 606822, Note_on_c, 12, 69, 0
13, 607232, Note_on_c, 12, 69, 87
13, 613376, Note_on_c, 12, 69, 0
13, 613376, Note_on_c, 12, 66, 96
13, 613990, Note_on_c, 12, 66, 0
13, 614400, Note_on_c, 12, 62, 97
13, 615014, Note_on_c, 12, 62, 0
13, 615424, Note_on_c, 12, 69, 98
13, 616038, Note_on_c, 12, 69, 0
13, 616448, Note_on_c, 12, 69, 98
13, 617062, Note_on_c, 12, 69, 0
13, 617472, Note_on_c, 12, 69, 98
13, 618086, Note_on_c, 12, 69, 0
13, 618496, Note_on_c, 12, 69, 98
13, 619110, Note_on_c, 12, 69, 0
13, 619520, Note_on_c, 12, 69, 98
13, 620544, Note_on_c, 12, 69, 0
13, 620544, Note_on_c, 12, 67, 98
13, 621056, Note_on_c, 12, 67, 0
13, 621056, Note_on_c, 12, 69, 98
13, 621568, Note_on_c, 12, 69, 0
13, 621568, Note_on_c, 12, 71, 98
13, 622182, Note_on_c, 12, 71, 0
13, 622592, Note_on_c, 12, 69, 98
13, 623104, Note_on_c, 12, 69, 0
13, 623104, Note_on_c, 12, 67, 98
13, 623616, Note_on_c, 12, 67, 0
13, 623616, Note_on_c, 12, 69, 98
13, 626688, Note_on_c, 12, 69, 0
13, 626688, Note_on_c, 12, 62, 98
13, 627302, Note_on_c, 12, 62, 0
13, 627712, Note_on_c, 12, 67, 99
13, 628326, Note_on_c, 12, 67, 0
13, 628736, Note_on_c, 12, 69, 101
13, 629248, Note_on_c, 12, 69, 0
13, 629248, Note_on_c, 12, 71, 103
13, 629760, Note_on_c, 12, 71, 0
13, 629760, Note_on_c, 12, 69, 104
13, 631808, Note_on_c, 12, 69, 0
13, 631808, Note_on_c, 12, 69, 110
13, 633856, Note_on_c, 12, 69, 0
13, 670720, Note_on_c, 12, 62, 59
13, 672768, Note_on_c, 12, 62, 0
13, 672768, Note_on_c, 12, 67, 64
13, 678912, Note_on_c, 12, 67, 0
13, 678912, Note_on_c, 12, 66, 79
13, 680960, Note_on_c, 12, 66, 0
13, 680960, Note_on_c, 12, 64, 84
13, 683008, Note_on_c, 12, 64, 0
13, 683008, Note_on_c, 12, 64, 88
13, 685670, Note_on_c, 12, 64, 0
13, 686080, Note_on_c, 12, 66, 94
13, 686694, Note_on_c, 12, 66, 0
13, 687104, Note_on_c, 12, 67, 95
13, 687718, Note_on_c, 12, 67, 0
13, 688128, Note_on_c, 12, 64, 96
13, 688742, Note_on_c, 12, 64, 0
13, 689152, Note_on_c, 12, 69, 96
13, 692224, Note_on_c, 12, 69, 0
13, 692224, Note_on_c, 12, 67, 99
13, 692736, Note_on_c, 12, 67, 0
13, 692736, Note_on_c, 12, 66, 99
13, 693248, Note_on_c, 12, 66, 0
13, 693248, Note_on_c, 12, 64, 99
13, 696320, Note_on_c, 12, 64, 0
13, 696320, Note_on_c, 12, 66, 73
13, 696832, Note_on_c, 12, 66, 0
13, 696832, Note_on_c, 12, 67, 73
13, 697344, Note_on_c, 12, 67, 0
13, 697344, Note_on_c, 12, 69, 74
13, 705536, Note_on_c, 12, 69, 0
13, 705536, Note_on_c, 12, 69, 81
13, 707584, Note_on_c, 12, 69, 0
13, 709632, Note_on_c, 12, 64, 85
13, 710246, Note_on_c, 12, 64, 0
13, 710656, Note_on_c, 12, 64, 86
13, 711270, Note_on_c, 12, 64, 0
13, 711680, Note_on_c, 12, 64, 87
13, 712294, Note_on_c, 12, 64, 0
13, 712704, Note_on_c, 12, 64, 88
13, 713318, Note_on_c, 12, 64, 0
13, 713728, Note_on_c, 12, 66, 89
13, 714752, Note_on_c, 12, 66, 0
13, 714752, Note_on_c, 12, 62, 90
13, 715264, Note_on_c, 12, 62, 0
13, 715264, Note_on_c, 12, 66, 90
13, 715776, Note_on_c, 12, 66, 0
13, 715776, Note_on_c, 12, 69, 91
13, 716800, Note_on_c, 12, 69, 0
13, 716800, Note_on_c, 12, 66, 92
13, 717312, Note_on_c, 12, 66, 0
13, 717312, Note_on_c, 12, 69, 92
13, 717824, Note_on_c, 12, 69, 0
13, 717824, Note_on_c, 12, 74, 93
13, 718438, Note_on_c, 12, 74, 0
13, 718848, Note_on_c, 12, 74, 94
13, 719462, Note_on_c, 12, 74, 0
13, 719872, Note_on_c, 12, 76, 95
13, 720384, Note_on_c, 12, 76, 0
13, 720384, Note_on_c, 12, 74, 95
13, 720896, Note_on_c, 12, 74, 0
13, 720896, Note_on_c, 12, 73, 96
13, 721408, Note_on_c, 12, 73, 0
13, 721408, Note_on_c, 12, 71, 96
13, 721920, Note_on_c, 12, 71, 0
13, 721920, Note_on_c, 12, 69, 97
13, 728064, Note_on_c, 12, 69, 0
13, 728064, Note_on_c, 12, 69, 103
13, 730112, Note_on_c, 12, 69, 0
13, 730112, Note_on_c, 12, 66, 104
13, 730726, Note_on_c, 12, 66, 0
13, 731136, Note_on_c, 12, 69, 94
13, 731750, Note_on_c, 12, 69, 0
13, 732160, Note_on_c, 12, 69, 96
13, 736256, Note_on_c, 12, 69, 0
13, 736256, Note_on_c, 12, 66, 102
13, 736870, Note_on_c, 12, 66, 0
13, 737280, Note_on_c, 12, 62, 103
13, 737894, Note_on_c, 12, 62, 0
13, 738304, Note_on_c, 12, 74, 105
13, 740352, Note_on_c, 12, 74, 0
13, 740352, Note_on_c, 12, 69, 108
13, 740966, Note_on_c, 12, 69, 0
13, 741376, Note_on_c, 12, 66, 110
13, 741990, Note_on_c, 12, 66, 0
13, 742400, Note_on_c, 12, 69, 111
13, 747110, Note_on_c, 12, 69, 0
13, 747520, Note_on_c, 12, 69, 115
13, 748134, Note_on_c, 12, 69, 0
13, 748544, Note_on_c, 12, 69, 115
13, 749158, Note_on_c, 12, 69, 0
13, 749568, Note_on_c, 12, 69, 115
13, 750182, Note_on_c, 12, 69, 0
13, 750592, Note_on_c, 12, 69, 115
13, 751616, Note_on_c, 12, 69, 0
13, 751616, Note_on_c, 12, 67, 115
13, 752128, Note_on_c, 12, 67, 0
13, 752128, Note_on_c, 12, 69, 115
13, 752640, Note_on_c, 12, 69, 0
13, 752640, Note_on_c, 12, 71, 115
13, 753254, Note_on_c, 12, 71, 0
13, 753664, Note_on_c, 12, 69, 115
13, 754176, Note_on_c, 12, 69, 0
13, 754176, Note_on_c, 12, 67, 115
13, 754688, Note_on_c, 12, 67, 0
13, 754688, Note_on_c, 12, 69, 115
13, 756736, Note_on_c, 12, 69, 0
13, 756736, Note_on_c, 12, 62, 115
13, 758784, Note_on_c, 12, 62, 0
13, 760832, Note_on_c, 12, 64, 115
13, 761446, Note_on_c, 12, 64, 0
13, 761856, Note_on_c, 12, 69, 115
13, 762470, Note_on_c, 12, 69, 0
13, 762880, Note_on_c, 12, 66, 115
13, 763494, Note_on_c, 12, 66, 0
13, 763904, Note_on_c, 12, 62, 101
13, 764518, Note_on_c, 12, 62, 0
13, 764928, Note_on_c, 12, 64, 64
13, 765440, Note_on_c, 12, 64, 0
13, 765440, Note_on_c, 12, 66, 64
13, 765952, Note_on_c, 12, 66, 0
13, 765952, Note_on_c, 12, 62, 64
13, 766464, Note_on_c, 12, 62, 0
13, 766464, Note_on_c, 12, 64, 64
13, 766976, Note_on_c, 12, 64, 0
13, 766976, Note_on_c, 12, 66, 64
13, 767488, Note_on_c, 12, 66, 0
13, 767488, Note_on_c, 12, 68, 64
13, 768000, Note_on_c, 12, 68, 0
13, 768000, Note_on_c, 12, 64, 64
13, 768512, Note_on_c, 12, 64, 0
13, 768512, Note_on_c, 12, 66, 64
13, 769024, Note_on_c, 12, 66, 0
13, 769024, Note_on_c, 12, 68, 64
13, 769536, Note_on_c, 12, 68, 0
13, 769536, Note_on_c, 12, 69, 64
13, 770048, Note_on_c, 12, 69, 0
13, 770048, Note_on_c, 12, 66, 64
13, 770560, Note_on_c, 12, 66, 0
13, 770560, Note_on_c, 12, 68, 64
13, 771072, Note_on_c, 12, 68, 0
13, 771072, Note_on_c, 12, 69, 64
13, 771584, Note_on_c, 12, 69, 0
13, 771584, Note_on_c, 12, 71, 64
13, 772096, Note_on_c, 12, 71, 0
13, 772096, Note_on_c, 12, 68, 64
13, 772608, Note_on_c, 12, 68, 0
13, 772608, Note_on_c, 12, 69, 64
13, 773120, Note_on_c, 12, 69, 0
13, 773120, Note_on_c, 12, 66, 64
13, 773734, Note_on_c, 12, 66, 0
13, 774144, Note_on_c, 12, 66, 64
13, 774758, Note_on_c, 12, 66, 0
13, 775168, Note_on_c, 12, 68, 64
13, 777216, Note_on_c, 12, 68, 0
13, 777216, Note_on_c, 12, 70, 64
13, 779264, Note_on_c, 12, 70, 0
13, 779264, Note_on_c, 12, 71, 64
13, 783974, Note_on_c, 12, 71, 0
13, 784384, Note_on_c, 12, 71, 64
13, 784998, Note_on_c, 12, 71, 0
13, 785408, Note_on_c, 12, 69, 64
13, 786022, Note_on_c, 12, 69, 0
13, 786432, Note_on_c, 12, 66, 64
13, 787046, Note_on_c, 12, 66, 0
13, 787456, Note_on_c, 12, 64, 64
13, 788070, Note_on_c, 12, 64, 0
13, 788480, Note_on_c, 12, 73, 65
13, 789094, Note_on_c, 12, 73, 0
13, 789504, Note_on_c, 12, 71, 68
13, 790118, Note_on_c, 12, 71, 0
13, 790528, Note_on_c, 12, 68, 71
13, 791142, Note_on_c, 12, 68, 0
13, 791552, Note_on_c, 12, 66, 74
13, 793600, Note_on_c, 12, 66, 0
13, 793600, Note_on_c, 12, 59, 80
13, 795648, Note_on_c, 12, 59, 0
13, 795648, Note_on_c, 12, 57, 86
13, 800358, Note_on_c, 12, 57, 0
13, 800768, Note_on_c, 12, 62, 98
13, 801382, Note_on_c, 12, 62, 0
13, 801792, Note_on_c, 12, 59, 99
13, 802406, Note_on_c, 12, 59, 0
13, 802816, Note_on_c, 12, 64, 100
13, 803430, Note_on_c, 12, 64, 0
13, 803840, Note_on_c, 12, 64, 101
13, 804454, Note_on_c, 12, 64, 0
13, 804864, Note_on_c, 12, 64, 102
13, 805478, Note_on_c, 12, 64, 0
13, 805888, Note_on_c, 12, 64, 102
13, 806502, Note_on_c, 12, 64, 0
13, 806912, Note_on_c, 12, 64, 103
13, 807526, Note_on_c, 12, 64, 0
13, 807936, Note_on_c, 12, 64, 104
13, 808550, Note_on_c, 12, 64, 0
13, 808960, Note_on_c, 12, 66, 105
13, 809574, Note_on_c, 12, 66, 0
13, 809984, Note_on_c, 12, 66, 106
13, 811008, Note_on_c, 12, 66, 0
13, 811008, Note_on_c, 12, 64, 106
13, 811622, Note_on_c, 12, 64, 0
13, 812032, Note_on_c, 12, 64, 107
13, 814080, Note_on_c, 12, 64, 0
13, 846848, Note_on_c, 12, 64, 74
13, 848896, Note_on_c, 12, 64, 0
13, 848896, Note_on_c, 12, 69, 76
13, 855040, Note_on_c, 12, 69, 0
13, 855040, Note_on_c, 12, 68, 81
13, 855654, Note_on_c, 12, 68, 0
13, 856064, Note_on_c, 12, 68, 82
13, 856678, Note_on_c, 12, 68, 0
13, 857088, Note_on_c, 12, 69, 83
13, 857702, Note_on_c, 12, 69, 0
13, 858112, Note_on_c, 12, 69, 84
13, 858726, Note_on_c, 12, 69, 0
13, 859136, Note_on_c, 12, 64, 85
13, 859750, Note_on_c, 12, 64, 0
13, 860160, Note_on_c, 12, 64, 86
13, 860774, Note_on_c, 12, 64, 0
13, 861184, Note_on_c, 12, 66, 87
13, 863232, Note_on_c, 12, 66, 0
13, 863232, Note_on_c, 12, 64, 89
13, 867328, Note_on_c, 12, 64, 0
13, 867328, Note_on_c, 12, 64, 92
13, 867942, Note_on_c, 12, 64, 0
13, 868352, Note_on_c, 12, 64, 93
13, 868966, Note_on_c, 12, 64, 0
13, 869376, Note_on_c, 12, 62, 94
13, 870400, Note_on_c, 12, 62, 0
13, 870400, Note_on_c, 12, 64, 95
13, 872448, Note_on_c, 12, 64, 0
13, 872448, Note_on_c, 12, 66, 97
13, 873062, Note_on_c, 12, 66, 0
13, 873472, Note_on_c, 12, 66, 94
13, 874496, Note_on_c, 12, 66, 0
13, 874496, Note_on_c, 12, 64, 89
13, 875008, Note_on_c, 12, 64, 0
13, 875008, Note_on_c, 12, 62, 86
13, 875520, Note_on_c, 12, 62, 0
13, 875520, Note_on_c, 12, 64, 83
13, 878592, Note_on_c, 12, 64, 0
13, 878592, Note_on_c, 12, 57, 53
13, 879104, Note_on_c, 12, 57, 0
13, 879104, Note_on_c, 12, 61, 53
13, 879616, Note_on_c, 12, 61, 0
13, 879616, Note_on_c, 12, 64, 54
13, 880640, Note_on_c, 12, 64, 0
13, 880640, Note_on_c, 12, 61, 55
13, 881152, Note_on_c, 12, 61, 0
13, 881152, Note_on_c, 12, 64, 56
13, 881664, Note_on_c, 12, 64, 0
13, 881664, Note_on_c, 12, 69, 56
13, 882688, Note_on_c, 12, 69, 0
13, 882688, Note_on_c, 12, 68, 57
13, 883200, Note_on_c, 12, 68, 0
13, 883200, Note_on_c, 12, 69, 58
13, 883712, Note_on_c, 12, 69, 0
13, 883712, Note_on_c, 12, 71, 58
13, 884224, Note_on_c, 12, 71, 0
13, 884224, Note_on_c, 12, 69, 59
13, 884736, Note_on_c, 12, 69, 0
13, 884736, Note_on_c, 12, 68, 59
13, 885248, Note_on_c, 12, 68, 0
13, 885248, Note_on_c, 12, 66, 60
13, 885760, Note_on_c, 12, 66, 0
13, 885760, Note_on_c, 12, 68, 60
13, 893952, Note_on_c, 12, 68, 0
13, 893952, Note_on_c, 12, 69, 69
13, 908288, Note_on_c, 12, 69, 0
13, 908288, Note_on_c, 12, 69, 84
13, 910336, Note_on_c, 12, 69, 0
13, 910336, Note_on_c, 12, 71, 86
13, 915046, Note_on_c, 12, 71, 0
13, 915456, Note_on_c, 12, 67, 92
13, 916070, Note_on_c, 12, 67, 0
13, 916480, Note_on_c, 12, 64, 93
13, 916992, Note_on_c, 12, 64, 0
13, 916992, Note_on_c, 12, 67, 93
13, 917504, Note_on_c, 12, 67, 0
13, 917504, Note_on_c, 12, 66, 94
13, 918016, Note_on_c, 12, 66, 0
13, 918016, Note_on_c, 12, 64, 95
13, 918528, Note_on_c, 12, 64, 0
13, 918528, Note_on_c, 12, 69, 95
13, 923136, Note_on_c, 12, 69, 0
13, 923136, Note_on_c, 12, 67, 100
13, 923648, Note_on_c, 12, 67, 0
13, 923648, Note_on_c, 12, 66, 100
13, 924160, Note_on_c, 12, 66, 0
13, 924160, Note_on_c, 12, 69, 101
13, 924672, Note_on_c, 12, 69, 0
13, 924672, Note_on_c, 12, 62, 102
13, 925184, Note_on_c, 12, 62, 0
13, 925184, Note_on_c, 12, 66, 102
13, 925696, Note_on_c, 12, 66, 0
13, 925696, Note_on_c, 12, 64, 103
13, 926208, Note_on_c, 12, 64, 0
13, 926208, Note_on_c, 12, 62, 103
13, 926720, Note_on_c, 12, 62, 0
13, 926720, Note_on_c, 12, 67, 103
13, 930816, Note_on_c, 12, 67, 0
13, 930816, Note_on_c, 12, 67, 103
13, 931430, Note_on_c, 12, 67, 0
13, 931840, Note_on_c, 12, 64, 103
13, 932454, Note_on_c, 12, 64, 0
13, 932864, Note_on_c, 12, 76, 103
13, 933478, Note_on_c, 12, 76, 0
13, 933888, Note_on_c, 12, 76, 103
13, 934502, Note_on_c, 12, 76, 0
13, 935936, Note_on_c, 12, 69, 103
13, 936550, Note_on_c, 12, 69, 0
13, 936960, Note_on_c, 12, 64, 103
13, 939622, Note_on_c, 12, 64, 0
13, 940032, Note_on_c, 12, 69, 103
13, 940646, Note_on_c, 12, 69, 0
13, 941056, Note_on_c, 12, 69, 103
13, 941670, Note_on_c, 12, 69, 0
13, 942080, Note_on_c, 12, 69, 103
13, 942694, Note_on_c, 12, 69, 0
13, 943104, Note_on_c, 12, 69, 103
13, 945152, Note_on_c, 12, 69, 0
13, 946176, Note_on_c, 12, 69, 104
13, 946688, Note_on_c, 12, 69, 0
13, 946688, Note_on_c, 12, 67, 104
13, 947200, Note_on_c, 12, 67, 0
13, 947200, Note_on_c, 12, 69, 105
13, 947814, Note_on_c, 12, 69, 0
13, 948224, Note_on_c, 12, 67, 106
13, 948736, Note_on_c, 12, 67, 0
13, 948736, Note_on_c, 12, 66, 106
13, 949248, Note_on_c, 12, 66, 0
13, 949248, Note_on_c, 12, 67, 107
13, 949862, Note_on_c, 12, 67, 0
13, 950272, Note_on_c, 12, 66, 107
13, 950784, Note_on_c, 12, 66, 0
13, 950784, Note_on_c, 12, 64, 108
13, 951296, Note_on_c, 12, 64, 0
13, 951296, Note_on_c, 12, 66, 108
13, 951910, Note_on_c, 12, 66, 0
13, 952320, Note_on_c, 12, 66, 92
13, 952934, Note_on_c, 12, 66, 0
13, 961536, Note_on_c, 12, 62, 66
13, 962048, Note_on_c, 12, 62, 0
13, 962048, Note_on_c, 12, 64, 67
13, 962560, Note_on_c, 12, 64, 0
13, 962560, Note_on_c, 12, 61, 67
13, 963072, Note_on_c, 12, 61, 0
13, 963072, Note_on_c, 12, 62, 68
13, 963584, Note_on_c, 12, 62, 0
13, 963584, Note_on_c, 12, 64, 68
13, 964096, Note_on_c, 12, 64, 0
13, 964096, Note_on_c, 12, 66, 69
13, 964608, Note_on_c, 12, 66, 0
13, 964608, Note_on_c, 12, 62, 69
13, 965120, Note_on_c, 12, 62, 0
13, 965120, Note_on_c, 12, 64, 70
13, 965632, Note_on_c, 12, 64, 0
13, 965632, Note_on_c, 12, 66, 71
13, 966144, Note_on_c, 12, 66, 0
13, 966144, Note_on_c, 12, 67, 71
13, 966656, Note_on_c, 12, 67, 0
13, 966656, Note_on_c, 12, 64, 72
13, 967168, Note_on_c, 12, 64, 0
13, 967168, Note_on_c, 12, 66, 72
13, 967680, Note_on_c, 12, 66, 0
13, 967680, Note_on_c, 12, 67, 73
13, 968192, Note_on_c, 12, 67, 0
13, 968192, Note_on_c, 12, 69, 73
13, 968704, Note_on_c, 12, 69, 0
13, 968704, Note_on_c, 12, 66, 74
13, 969216, Note_on_c, 12, 66, 0
13, 969216, Note_on_c, 12, 67, 75
13, 969728, Note_on_c, 12, 67, 0
13, 969728, Note_on_c, 12, 64, 75
13, 970342, Note_on_c, 12, 64, 0
13, 970752, Note_on_c, 12, 64, 76
13, 971366, Note_on_c, 12, 64, 0
13, 971776, Note_on_c, 12, 66, 77
13, 973824, Note_on_c, 12, 66, 0
13, 973824, Note_on_c, 12, 67, 80
13, 975872, Note_on_c, 12, 67, 0
13, 975872, Note_on_c, 12, 69, 82
13, 976384, Note_on_c, 12, 69, 0
13, 976384, Note_on_c, 12, 71, 83
13, 976896, Note_on_c, 12, 71, 0
13, 976896, Note_on_c, 12, 67, 83
13, 977408, Note_on_c, 12, 67, 0
13, 977408, Note_on_c, 12, 69, 84
13, 977920, Note_on_c, 12, 69, 0
13, 977920, Note_on_c, 12, 66, 84
13, 978534, Note_on_c, 12, 66, 0
13, 978944, Note_on_c, 12, 66, 85
13, 979558, Note_on_c, 12, 66, 0
13, 979968, Note_on_c, 12, 64, 87
13, 982016, Note_on_c, 12, 64, 0
13, 982016, Note_on_c, 12, 57, 89
13, 984064, Note_on_c, 12, 57, 0
13, 984064, Note_on_c, 12, 59, 92
13, 986112, Note_on_c, 12, 59, 0
13, 994304, Note_on_c, 12, 64, 106
13, 994816, Note_on_c, 12, 64, 0
13, 994816, Note_on_c, 12, 66, 106
13, 995328, Note_on_c, 12, 66, 0
13, 995328, Note_on_c, 12, 62, 106
13, 995840, Note_on_c, 12, 62, 0
13, 995840, Note_on_c, 12, 64, 106
13, 996352, Note_on_c, 12, 64, 0
13, 996352, Note_on_c, 12, 66, 106
13, 996864, Note_on_c, 12, 66, 0
13, 996864, Note_on_c, 12, 67, 106
13, 997376, Note_on_c, 12, 67, 0
13, 997376, Note_on_c, 12, 64, 106
13, 997888, Note_on_c, 12, 64, 0
13, 997888, Note_on_c, 12, 66, 106
13, 998400, Note_on_c, 12, 66, 0
13, 998400, Note_on_c, 12, 67, 106
13, 998912, Note_on_c, 12, 67, 0
13, 998912, Note_on_c, 12, 69, 106
13, 999424, Note_on_c, 12, 69, 0
13, 999424, Note_on_c, 12, 66, 106
13, 999936, Note_on_c, 12, 66, 0
13, 999936, Note_on_c, 12, 67, 106
13, 1000448, Note_on_c, 12, 67, 0
13, 1000448, Note_on_c, 12, 69, 106
13, 1001062, Note_on_c, 12, 69, 0
13, 1001472, Note_on_c, 12, 66, 106
13, 1002086, Note_on_c, 12, 66, 0
13, 1006592, Note_on_c, 12, 69, 105
13, 1008640, Note_on_c, 12, 69, 0
13, 1008640, Note_on_c, 12, 69, 108
13, 1013350, Note_on_c, 12, 69, 0
13, 1013760, Note_on_c, 12, 67, 114
13, 1014272, Note_on_c, 12, 67, 0
13, 1014272, Note_on_c, 12, 66, 114
13, 1014784, Note_on_c, 12, 66, 0
13, 1014784, Note_on_c, 12, 71, 115
13, 1015398, Note_on_c, 12, 71, 0
13, 1015808, Note_on_c, 12, 69, 116
13, 1017446, Note_on_c, 12, 69, 0
13, 1017856, Note_on_c, 12, 69, 119
13, 1018470, Note_on_c, 12, 69, 0
13, 1018880, Note_on_c, 12, 71, 120
13, 1019494, Note_on_c, 12, 71, 0
13, 1019904, Note_on_c, 12, 71, 121
13, 1020518, Note_on_c, 12, 71, 0
13, 1020928, Note_on_c, 12, 69, 120
13, 1021542, Note_on_c, 12, 69, 0
13, 1021952, Note_on_c, 12, 71, 120
13, 1022464, Note_on_c, 12, 71, 0
13, 1022464, Note_on_c, 12, 71, 120
13, 1022976, Note_on_c, 12, 71, 0
13, 1022976, Note_on_c, 12, 69, 120
13, 1024000, Note_on_c, 12, 69, 0
13, 1024000, Note_on_c, 12, 67, 120
13, 1024614, Note_on_c, 12, 67, 0
13, 1025024, Note_on_c, 12, 66, 120
13, 1025638, Note_on_c, 12, 66, 0
13, 1033216, End_track
14, 0, Start_track
14, 0, Title_t, "Tenor"
14, 0, Program_c, 13, 52
14, 0, Control_c, 13, 121, 127
14, 0, Control_c, 13, 1, 10
14, 0, Control_c, 13, 10, 80
14, 19456, Note_on_c, 13, 54, 89
14, 21504, Note_on_c, 13, 54, 0
14, 21504, Note_on_c, 13, 57, 89
14, 24576, Note_on_c, 13, 57, 0
14, 24576, Note_on_c, 13, 57, 89
14, 25600, Note_on_c, 13, 57, 0
14, 25600, Note_on_c, 13, 56, 89
14, 26624, Note_on_c, 13, 56, 0
14, 26624, Note_on_c, 13, 49, 89
14, 27648, Note_on_c, 13, 49, 0
14, 27648, Note_on_c, 13, 61, 89
14, 31744, Note_on_c, 13, 61, 0
14, 31744, Note_on_c, 13, 59, 89
14, 33792, Note_on_c, 13, 59, 0
14, 33792, Note_on_c, 13, 61, 89
14, 35635, Note_on_c, 13, 61, 0
14, 35840, Note_on_c, 13, 57, 89
14, 37888, Note_on_c, 13, 57, 0
14, 37888, Note_on_c, 13, 56, 89
14, 38912, Note_on_c, 13, 56, 0
14, 38912, Note_on_c, 13, 57, 89
14, 39936, Note_on_c, 13, 57, 0
14, 39936, Note_on_c, 13, 59, 89
14, 40960, Note_on_c, 13, 59, 0
14, 40960, Note_on_c, 13, 56, 89
14, 41984, Note_on_c, 13, 56, 0
14, 41984, Note_on_c, 13, 57, 89
14, 43008, Note_on_c, 13, 57, 0
14, 43008, Note_on_c, 13, 59, 89
14, 44032, Note_on_c, 13, 59, 0
14, 44032, Note_on_c, 13, 61, 89
14, 45056, Note_on_c, 13, 61, 0
14, 45056, Note_on_c, 13, 57, 89
14, 46080, Note_on_c, 13, 57, 0
14, 46080, Note_on_c, 13, 62, 89
14, 48128, Note_on_c, 13, 62, 0
14, 48128, Note_on_c, 13, 56, 89
14, 50176, Note_on_c, 13, 56, 0
14, 50176, Note_on_c, 13, 61, 89
14, 52224, Note_on_c, 13, 61, 0
14, 52224, Note_on_c, 13, 61, 89
14, 56320, Note_on_c, 13, 61, 0
14, 56320, Note_on_c, 13, 66, 89
14, 57344, Note_on_c, 13, 66, 0
14, 57344, Note_on_c, 13, 61, 89
14, 58368, Note_on_c, 13, 61, 0
14, 58368, Note_on_c, 13, 57, 88
14, 59392, Note_on_c, 13, 57, 0
14, 59392, Note_on_c, 13, 54, 85
14, 60416, Note_on_c, 13, 54, 0
14, 60416, Note_on_c, 13, 62, 81
14, 62464, Note_on_c, 13, 62, 0
14, 62464, Note_on_c, 13, 56, 74
14, 64307, Note_on_c, 13, 56, 0
14, 64512, Note_on_c, 13, 61, 47
14, 65126, Note_on_c, 13, 61, 0
14, 65536, Note_on_c, 13, 61, 47
14, 66150, Note_on_c, 13, 61, 0
14, 66560, Note_on_c, 13, 61, 47
14, 67584, Note_on_c, 13, 61, 0
14, 67584, Note_on_c, 13, 54, 47
14, 68608, Note_on_c, 13, 54, 0
14, 68608, Note_on_c, 13, 59, 47
14, 71680, Note_on_c, 13, 59, 0
14, 71680, Note_on_c, 13, 57, 47
14, 72192, Note_on_c, 13, 57, 0
14, 72192, Note_on_c, 13, 56, 47
14, 72704, Note_on_c, 13, 56, 0
14, 72704, Note_on_c, 13, 57, 47
14, 73728, Note_on_c, 13, 57, 0
14, 73728, Note_on_c, 13, 54, 47
14, 74752, Note_on_c, 13, 54, 0
14, 74752, Note_on_c, 13, 56, 47
14, 78848, Note_on_c, 13, 56, 0
14, 78848, Note_on_c, 13, 54, 47
14, 79462, Note_on_c, 13, 54, 0
14, 79872, Note_on_c, 13, 58, 47
14, 80896, Note_on_c, 13, 58, 0
14, 80896, Note_on_c, 13, 59, 47
14, 81920, Note_on_c, 13, 59, 0
14, 81920, Note_on_c, 13, 54, 47
14, 82944, Note_on_c, 13, 54, 0
14, 82944, Note_on_c, 13, 56, 47
14, 83968, Note_on_c, 13, 56, 0
14, 83968, Note_on_c, 13, 59, 47
14, 84992, Note_on_c, 13, 59, 0
14, 84992, Note_on_c, 13, 57, 47
14, 86016, Note_on_c, 13, 57, 0
14, 86016, Note_on_c, 13, 56, 47
14, 87040, Note_on_c, 13, 56, 0
14, 87040, Note_on_c, 13, 54, 50
14, 88064, Note_on_c, 13, 54, 0
14, 88064, Note_on_c, 13, 59, 50
14, 90112, Note_on_c, 13, 59, 0
14, 90112, Note_on_c, 13, 56, 50
14, 91136, Note_on_c, 13, 56, 0
14, 91136, Note_on_c, 13, 57, 50
14, 93184, Note_on_c, 13, 57, 0
14, 93184, Note_on_c, 13, 59, 51
14, 95232, Note_on_c, 13, 59, 0
14, 95232, Note_on_c, 13, 52, 51
14, 97280, Note_on_c, 13, 52, 0
14, 100352, Note_on_c, 13, 59, 52
14, 102400, Note_on_c, 13, 59, 0
14, 102400, Note_on_c, 13, 59, 53
14, 103424, Note_on_c, 13, 59, 0
14, 103424, Note_on_c, 13, 61, 53
14, 104448, Note_on_c, 13, 61, 0
14, 104448, Note_on_c, 13, 57, 53
14, 105472, Note_on_c, 13, 57, 0
14, 105472, Note_on_c, 13, 62, 53
14, 107520, Note_on_c, 13, 62, 0
14, 107520, Note_on_c, 13, 59, 54
14, 108544, Note_on_c, 13, 59, 0
14, 108544, Note_on_c, 13, 64, 54
14, 110592, Note_on_c, 13, 64, 0
14, 110592, Note_on_c, 13, 61, 54
14, 111616, Note_on_c, 13, 61, 0
14, 111616, Note_on_c, 13, 62, 53
14, 114688, Note_on_c, 13, 62, 0
14, 114688, Note_on_c, 13, 61, 61
14, 115200, Note_on_c, 13, 61, 0
14, 115200, Note_on_c, 13, 59, 62
14, 115712, Note_on_c, 13, 59, 0
14, 115712, Note_on_c, 13, 64, 63
14, 118784, Note_on_c, 13, 64, 0
14, 118784, Note_on_c, 13, 63, 71
14, 119296, Note_on_c, 13, 63, 0
14, 119296, Note_on_c, 13, 61, 72
14, 119808, Note_on_c, 13, 61, 0
14, 119808, Note_on_c, 13, 66, 74
14, 120832, Note_on_c, 13, 66, 0
14, 120832, Note_on_c, 13, 59, 76
14, 121856, Note_on_c, 13, 59, 0
14, 121856, Note_on_c, 13, 64, 79
14, 122470, Note_on_c, 13, 64, 0
14, 122880, Note_on_c, 13, 62, 82
14, 124928, Note_on_c, 13, 62, 0
14, 124928, Note_on_c, 13, 61, 87
14, 125952, Note_on_c, 13, 61, 0
14, 125952, Note_on_c, 13, 61, 89
14, 128000, Note_on_c, 13, 61, 0
14, 128000, Note_on_c, 13, 59, 90
14, 130048, Note_on_c, 13, 59, 0
14, 138240, Note_on_c, 13, 61, 90
14, 140288, Note_on_c, 13, 61, 0
14, 140288, Note_on_c, 13, 62, 90
14, 143360, Note_on_c, 13, 62, 0
14, 143360, Note_on_c, 13, 62, 89
14, 144384, Note_on_c, 13, 62, 0
14, 144384, Note_on_c, 13, 61, 89
14, 145408, Note_on_c, 13, 61, 0
14, 145408, Note_on_c, 13, 54, 89
14, 146432, Note_on_c, 13, 54, 0
14, 146432, Note_on_c, 13, 66, 89
14, 150528, Note_on_c, 13, 66, 0
14, 150528, Note_on_c, 13, 65, 89
14, 152576, Note_on_c, 13, 65, 0
14, 152576, Note_on_c, 13, 66, 89
14, 153190, Note_on_c, 13, 66, 0
14, 153600, Note_on_c, 13, 64, 89
14, 154624, Note_on_c, 13, 64, 0
14, 154624, Note_on_c, 13, 62, 89
14, 155648, Note_on_c, 13, 62, 0
14, 155648, Note_on_c, 13, 59, 89
14, 156672, Note_on_c, 13, 59, 0
14, 156672, Note_on_c, 13, 61, 89
14, 157696, Note_on_c, 13, 61, 0
14, 157696, Note_on_c, 13, 53, 89
14, 158720, Note_on_c, 13, 53, 0
14, 158720, Note_on_c, 13, 54, 88
14, 159744, Note_on_c, 13, 54, 0
14, 159744, Note_on_c, 13, 57, 88
14, 160768, Note_on_c, 13, 57, 0
14, 160768, Note_on_c, 13, 56, 88
14, 161792, Note_on_c, 13, 56, 0
14, 161792, Note_on_c, 13, 54, 88
14, 162816, Note_on_c, 13, 54, 0
14, 162816, Note_on_c, 13, 56, 88
14, 164864, Note_on_c, 13, 56, 0
14, 164864, Note_on_c, 13, 49, 88
14, 166912, Note_on_c, 13, 49, 0
14, 171008, Note_on_c, 13, 56, 88
14, 173056, Note_on_c, 13, 56, 0
14, 173056, Note_on_c, 13, 57, 88
14, 176128, Note_on_c, 13, 57, 0
14, 176128, Note_on_c, 13, 57, 88
14, 177152, Note_on_c, 13, 57, 0
14, 177152, Note_on_c, 13, 56, 88
14, 178176, Note_on_c, 13, 56, 0
14, 178176, Note_on_c, 13, 49, 88
14, 179200, Note_on_c, 13, 49, 0
14, 179200, Note_on_c, 13, 61, 88
14, 182272, Note_on_c, 13, 61, 0
14, 182272, Note_on_c, 13, 60, 88
14, 183296, Note_on_c, 13, 60, 0
14, 183296, Note_on_c, 13, 61, 88
14, 183910, Note_on_c, 13, 61, 0
14, 184320, Note_on_c, 13, 64, 88
14, 186368, Note_on_c, 13, 64, 0
14, 186368, Note_on_c, 13, 63, 88
14, 186880, Note_on_c, 13, 63, 0
14, 186880, Note_on_c, 13, 61, 88
14, 187392, Note_on_c, 13, 61, 0
14, 187392, Note_on_c, 13, 63, 88
14, 189440, Note_on_c, 13, 63, 0
14, 189440, Note_on_c, 13, 64, 88
14, 191488, Note_on_c, 13, 64, 0
14, 199680, Note_on_c, 13, 61, 88
14, 201728, Note_on_c, 13, 61, 0
14, 201728, Note_on_c, 13, 62, 88
14, 204800, Note_on_c, 13, 62, 0
14, 204800, Note_on_c, 13, 62, 88
14, 205824, Note_on_c, 13, 62, 0
14, 205824, Note_on_c, 13, 61, 88
14, 206848, Note_on_c, 13, 61, 0
14, 206848, Note_on_c, 13, 54, 88
14, 207872, Note_on_c, 13, 54, 0
14, 207872, Note_on_c, 13, 66, 88
14, 210944, Note_on_c, 13, 66, 0
14, 210944, Note_on_c, 13, 66, 88
14, 211968, Note_on_c, 13, 66, 0
14, 211968, Note_on_c, 13, 64, 88
14, 215040, Note_on_c, 13, 64, 0
14, 215040, Note_on_c, 13, 66, 88
14, 215552, Note_on_c, 13, 66, 0
14, 215552, Note_on_c, 13, 67, 88
14, 216064, Note_on_c, 13, 67, 0
14, 216064, Note_on_c, 13, 69, 88
14, 217088, Note_on_c, 13, 69, 0
14, 217088, Note_on_c, 13, 66, 88
14, 218112, Note_on_c, 13, 66, 0
14, 218112, Note_on_c, 13, 64, 88
14, 222208, Note_on_c, 13, 64, 0
14, 222208, Note_on_c, 13, 62, 71
14, 224256, Note_on_c, 13, 62, 0
14, 236544, Note_on_c, 13, 57, 47
14, 238592, Note_on_c, 13, 57, 0
14, 238592, Note_on_c, 13, 61, 47
14, 241664, Note_on_c, 13, 61, 0
14, 241664, Note_on_c, 13, 61, 47
14, 242688, Note_on_c, 13, 61, 0
14, 242688, Note_on_c, 13, 59, 47
14, 243712, Note_on_c, 13, 59, 0
14, 243712, Note_on_c, 13, 52, 48
14, 244736, Note_on_c, 13, 52, 0
14, 244736, Note_on_c, 13, 64, 48
14, 248832, Note_on_c, 13, 64, 0
14, 248832, Note_on_c, 13, 63, 49
14, 250880, Note_on_c, 13, 63, 0
14, 250880, Note_on_c, 13, 63, 49
14, 251494, Note_on_c, 13, 63, 0
14, 251904, Note_on_c, 13, 56, 50
14, 252928, Note_on_c, 13, 56, 0
14, 252928, Note_on_c, 13, 61, 50
14, 253952, Note_on_c, 13, 61, 0
14, 253952, Note_on_c, 13, 61, 50
14, 254976, Note_on_c, 13, 61, 0
14, 254976, Note_on_c, 13, 59, 50
14, 256000, Note_on_c, 13, 59, 0
14, 256000, Note_on_c, 13, 63, 51
14, 257024, Note_on_c, 13, 63, 0
14, 257024, Note_on_c, 13, 64, 51
14, 258048, Note_on_c, 13, 64, 0
14, 258048, Note_on_c, 13, 64, 51
14, 259072, Note_on_c, 13, 64, 0
14, 259072, Note_on_c, 13, 64, 51
14, 260096, Note_on_c, 13, 64, 0
14, 260096, Note_on_c, 13, 57, 52
14, 261120, Note_on_c, 13, 57, 0
14, 261120, Note_on_c, 13, 63, 52
14, 264192, Note_on_c, 13, 63, 0
14, 264192, Note_on_c, 13, 61, 56
14, 265216, Note_on_c, 13, 61, 0
14, 265216, Note_on_c, 13, 59, 59
14, 266240, Note_on_c, 13, 59, 0
14, 266240, Note_on_c, 13, 57, 62
14, 266752, Note_on_c, 13, 57, 0
14, 266752, Note_on_c, 13, 56, 64
14, 267264, Note_on_c, 13, 56, 0
14, 267264, Note_on_c, 13, 57, 65
14, 268288, Note_on_c, 13, 57, 0
14, 268288, Note_on_c, 13, 54, 68
14, 269312, Note_on_c, 13, 54, 0
14, 272384, Note_on_c, 13, 68, 81
14, 274432, Note_on_c, 13, 68, 0
14, 274432, Note_on_c, 13, 64, 87
14, 275456, Note_on_c, 13, 64, 0
14, 275456, Note_on_c, 13, 63, 91
14, 276480, Note_on_c, 13, 63, 0
14, 276480, Note_on_c, 13, 64, 94
14, 277504, Note_on_c, 13, 64, 0
14, 277504, Note_on_c, 13, 66, 96
14, 281518, Control_c, 13, 7, 84
14, 281600, Note_on_c, 13, 66, 0
14, 281600, Note_on_c, 13, 65, 95
14, 283443, Note_on_c, 13, 65, 0
14, 283648, Note_on_c, 13, 66, 95
14, 284672, Note_on_c, 13, 66, 0
14, 284672, Note_on_c, 13, 66, 95
14, 285696, Note_on_c, 13, 66, 0
14, 285696, Note_on_c, 13, 66, 95
14, 286720, Note_on_c, 13, 66, 0
14, 286720, Note_on_c, 13, 59, 95
14, 287744, Note_on_c, 13, 59, 0
14, 287744, Note_on_c, 13, 65, 95
14, 288768, Note_on_c, 13, 65, 0
14, 288768, Note_on_c, 13, 61, 95
14, 289792, Note_on_c, 13, 61, 0
14, 289792, Note_on_c, 13, 66, 95
14, 290816, Note_on_c, 13, 66, 0
14, 290816, Note_on_c, 13, 61, 95
14, 291840, Note_on_c, 13, 61, 0
14, 291840, Note_on_c, 13, 61, 95
14, 292352, Note_on_c, 13, 61, 0
14, 292352, Note_on_c, 13, 59, 95
14, 292864, Note_on_c, 13, 59, 0
14, 292864, Note_on_c, 13, 57, 95
14, 294400, Note_on_c, 13, 57, 0
14, 294400, Note_on_c, 13, 56, 95
14, 294912, Note_on_c, 13, 56, 0
14, 294912, Note_on_c, 13, 54, 95
14, 295936, Note_on_c, 13, 54, 0
14, 295936, Note_on_c, 13, 61, 95
14, 297779, Note_on_c, 13, 61, 0
14, 304046, Control_c, 13, 7, 58
14, 304092, Control_c, 13, 7, 84
14, 304174, Control_c, 13, 7, 60
14, 306176, Note_on_c, 13, 66, 95
14, 306790, Note_on_c, 13, 66, 0
14, 307200, Note_on_c, 13, 66, 95
14, 307814, Note_on_c, 13, 66, 0
14, 308224, Note_on_c, 13, 66, 95
14, 309248, Note_on_c, 13, 66, 0
14, 309248, Note_on_c, 13, 64, 95
14, 309760, Note_on_c, 13, 64, 0
14, 309760, Note_on_c, 13, 62, 95
14, 310272, Note_on_c, 13, 62, 0
14, 310272, Note_on_c, 13, 64, 95
14, 313344, Note_on_c, 13, 64, 0
14, 313344, Note_on_c, 13, 62, 95
14, 313856, Note_on_c, 13, 62, 0
14, 313856, Note_on_c, 13, 61, 95
14, 314368, Note_on_c, 13, 61, 0
14, 314368, Note_on_c, 13, 62, 95
14, 315392, Note_on_c, 13, 62, 0
14, 315392, Note_on_c, 13, 59, 95
14, 316416, Note_on_c, 13, 59, 0
14, 316416, Note_on_c, 13, 54, 95
14, 318464, Note_on_c, 13, 54, 0
14, 318464, Note_on_c, 13, 54, 95
14, 320512, Note_on_c, 13, 54, 0
14, 323584, Note_on_c, 13, 59, 95
14, 325222, Note_on_c, 13, 59, 0
14, 325632, Note_on_c, 13, 52, 95
14, 326656, Note_on_c, 13, 52, 0
14, 326656, Note_on_c, 13, 57, 95
14, 329728, Note_on_c, 13, 57, 0
14, 329728, Note_on_c, 13, 56, 95
14, 330240, Note_on_c, 13, 56, 0
14, 330240, Note_on_c, 13, 54, 95
14, 330752, Note_on_c, 13, 54, 0
14, 330752, Note_on_c, 13, 52, 95
14, 331776, Note_on_c, 13, 52, 0
14, 331776, Note_on_c, 13, 54, 95
14, 332800, Note_on_c, 13, 54, 0
14, 332800, Note_on_c, 13, 56, 95
14, 334848, Note_on_c, 13, 56, 0
14, 334848, Note_on_c, 13, 58, 95
14, 336896, Note_on_c, 13, 58, 0
14, 336896, Note_on_c, 13, 59, 95
14, 337920, Note_on_c, 13, 59, 0
14, 337920, Note_on_c, 13, 57, 95
14, 338944, Note_on_c, 13, 57, 0
14, 338944, Note_on_c, 13, 55, 95
14, 340992, Note_on_c, 13, 55, 0
14, 340992, Note_on_c, 13, 54, 95
14, 341606, Note_on_c, 13, 54, 0
14, 342016, Note_on_c, 13, 58, 95
14, 343040, Note_on_c, 13, 58, 0
14, 343040, Note_on_c, 13, 59, 95
14, 344064, Note_on_c, 13, 59, 0
14, 344064, Note_on_c, 13, 54, 95
14, 345088, Note_on_c, 13, 54, 0
14, 345088, Note_on_c, 13, 61, 95
14, 346112, Note_on_c, 13, 61, 0
14, 346112, Note_on_c, 13, 65, 95
14, 347136, Note_on_c, 13, 65, 0
14, 347136, Note_on_c, 13, 66, 95
14, 350208, Note_on_c, 13, 66, 0
14, 350208, Note_on_c, 13, 63, 95
14, 351232, Note_on_c, 13, 63, 0
14, 351232, Note_on_c, 13, 59, 95
14, 352256, Note_on_c, 13, 59, 0
14, 352256, Note_on_c, 13, 64, 95
14, 353280, Note_on_c, 13, 64, 0
14, 353280, Note_on_c, 13, 61, 95
14, 354304, Note_on_c, 13, 61, 0
14, 354304, Note_on_c, 13, 63, 95
14, 354816, Note_on_c, 13, 63, 0
14, 354816, Note_on_c, 13, 64, 95
14, 355328, Note_on_c, 13, 64, 0
14, 355328, Note_on_c, 13, 63, 95
14, 357376, Note_on_c, 13, 63, 0
14, 357376, Note_on_c, 13, 56, 95
14, 359219, Note_on_c, 13, 56, 0
14, 369569, Control_c, 13, 7, 127
14, 373760, Note_on_c, 13, 61, 95
14, 377856, Note_on_c, 13, 61, 0
14, 377856, Note_on_c, 13, 62, 95
14, 381952, Note_on_c, 13, 62, 0
14, 381952, Note_on_c, 13, 64, 95
14, 386048, Note_on_c, 13, 64, 0
14, 386048, Note_on_c, 13, 64, 95
14, 390144, Note_on_c, 13, 64, 0
14, 390144, Note_on_c, 13, 64, 95
14, 396288, Note_on_c, 13, 64, 0
14, 402432, Note_on_c, 13, 64, 95
14, 406528, Note_on_c, 13, 64, 0
14, 406528, Note_on_c, 13, 64, 95
14, 410624, Note_on_c, 13, 64, 0
14, 410624, Note_on_c, 13, 64, 95
14, 414720, Note_on_c, 13, 64, 0
14, 414720, Note_on_c, 13, 64, 95
14, 418816, Note_on_c, 13, 64, 0
14, 418816, Note_on_c, 13, 62, 95
14, 424960, Note_on_c, 13, 62, 0
14, 431104, Note_on_c, 13, 62, 95
14, 435200, Note_on_c, 13, 62, 0
14, 435200, Note_on_c, 13, 62, 95
14, 439296, Note_on_c, 13, 62, 0
14, 439296, Note_on_c, 13, 61, 95
14, 443392, Note_on_c, 13, 61, 0
14, 443392, Note_on_c, 13, 59, 95
14, 447488, Note_on_c, 13, 59, 0
14, 447488, Note_on_c, 13, 64, 95
14, 451584, Note_on_c, 13, 64, 0
14, 451584, Note_on_c, 13, 66, 95
14, 457728, Note_on_c, 13, 66, 0
14, 463872, Note_on_c, 13, 64, 95
14, 467968, Note_on_c, 13, 64, 0
14, 467968, Note_on_c, 13, 62, 95
14, 472064, Note_on_c, 13, 62, 0
14, 472064, Note_on_c, 13, 64, 95
14, 476160, Note_on_c, 13, 64, 0
14, 476160, Note_on_c, 13, 62, 95
14, 482099, Note_on_c, 13, 62, 0
14, 482304, Note_on_c, 13, 62, 51
14, 483328, Note_on_c, 13, 62, 0
14, 483328, Note_on_c, 13, 59, 51
14, 484352, Note_on_c, 13, 59, 0
14, 484352, Note_on_c, 13, 55, 50
14, 485376, Note_on_c, 13, 55, 0
14, 485376, Note_on_c, 13, 57, 49
14, 486400, Note_on_c, 13, 57, 0
14, 486400, Note_on_c, 13, 59, 49
14, 489472, Note_on_c, 13, 59, 0
14, 489472, Note_on_c, 13, 57, 46
14, 490496, Note_on_c, 13, 57, 0
14, 490496, Note_on_c, 13, 55, 46
14, 491520, Note_on_c, 13, 55, 0
14, 491520, Note_on_c, 13, 54, 45
14, 492544, Note_on_c, 13, 54, 0
14, 492544, Note_on_c, 13, 52, 44
14, 494592, Note_on_c, 13, 52, 0
14, 494592, Note_on_c, 13, 64, 43
14, 496640, Note_on_c, 13, 64, 0
14, 496640, Note_on_c, 13, 62, 42
14, 498688, Note_on_c, 13, 62, 0
14, 498688, Note_on_c, 13, 61, 40
14, 500736, Note_on_c, 13, 61, 0
14, 500736, Note_on_c, 13, 62, 39
14, 502569, Control_c, 13, 7, 69
14, 502579, Note_on_c, 13, 62, 0
14, 502682, Control_c, 13, 7, 70
14, 502784, Note_on_c, 13, 62, 62
14, 502795, Control_c, 13, 7, 71
14, 502907, Control_c, 13, 7, 72
14, 503020, Control_c, 13, 7, 73
14, 503132, Control_c, 13, 7, 74
14, 503245, Control_c, 13, 7, 75
14, 503357, Control_c, 13, 7, 76
14, 503470, Control_c, 13, 7, 77
14, 503582, Control_c, 13, 7, 78
14, 503695, Control_c, 13, 7, 79
14, 503808, Control_c, 13, 7, 80
14, 503920, Control_c, 13, 7, 81
14, 504033, Control_c, 13, 7, 82
14, 504145, Control_c, 13, 7, 83
14, 504258, Control_c, 13, 7, 84
14, 504370, Control_c, 13, 7, 85
14, 504483, Control_c, 13, 7, 86
14, 504595, Control_c, 13, 7, 87
14, 504708, Control_c, 13, 7, 88
14, 504821, Control_c, 13, 7, 89
14, 504933, Control_c, 13, 7, 90
14, 505046, Control_c, 13, 7, 91
14, 505158, Control_c, 13, 7, 92
14, 505271, Control_c, 13, 7, 93
14, 505383, Control_c, 13, 7, 94
14, 505496, Control_c, 13, 7, 95
14, 505608, Control_c, 13, 7, 96
14, 505721, Control_c, 13, 7, 97
14, 505833, Control_c, 13, 7, 98
14, 505946, Control_c, 13, 7, 99
14, 506059, Control_c, 13, 7, 100
14, 506171, Control_c, 13, 7, 101
14, 506284, Control_c, 13, 7, 102
14, 506396, Control_c, 13, 7, 103
14, 506509, Control_c, 13, 7, 104
14, 506621, Control_c, 13, 7, 105
14, 506734, Control_c, 13, 7, 106
14, 506846, Control_c, 13, 7, 107
14, 506880, Note_on_c, 13, 62, 0
14, 506880, Note_on_c, 13, 57, 74
14, 506959, Control_c, 13, 7, 108
14, 507072, Control_c, 13, 7, 109
14, 507184, Control_c, 13, 7, 110
14, 507297, Control_c, 13, 7, 111
14, 507409, Control_c, 13, 7, 112
14, 507522, Control_c, 13, 7, 113
14, 507634, Control_c, 13, 7, 114
14, 507747, Control_c, 13, 7, 115
14, 507859, Control_c, 13, 7, 116
14, 507904, Note_on_c, 13, 57, 0
14, 507904, Note_on_c, 13, 60, 74
14, 507972, Control_c, 13, 7, 117
14, 508085, Control_c, 13, 7, 118
14, 508197, Control_c, 13, 7, 119
14, 508310, Control_c, 13, 7, 120
14, 508422, Control_c, 13, 7, 121
14, 508535, Control_c, 13, 7, 122
14, 508647, Control_c, 13, 7, 123
14, 508760, Control_c, 13, 7, 124
14, 508872, Control_c, 13, 7, 125
14, 508928, Note_on_c, 13, 60, 0
14, 508928, Note_on_c, 13, 63, 74
14, 508985, Control_c, 13, 7, 126
14, 509097, Control_c, 13, 7, 127
14, 512000, Note_on_c, 13, 63, 0
14, 512000, Note_on_c, 13, 61, 74
14, 513024, Note_on_c, 13, 61, 0
14, 513024, Note_on_c, 13, 60, 74
14, 514048, Note_on_c, 13, 60, 0
14, 514048, Note_on_c, 13, 58, 74
14, 515072, Note_on_c, 13, 58, 0
14, 515072, Note_on_c, 13, 60, 74
14, 518144, Note_on_c, 13, 60, 0
14, 518144, Note_on_c, 13, 58, 74
14, 519066, Note_on_c, 13, 58, 0
14, 519168, Note_on_c, 13, 67, 74
14, 521216, Note_on_c, 13, 67, 0
14, 521216, Note_on_c, 13, 65, 73
14, 522240, Note_on_c, 13, 65, 0
14, 522240, Note_on_c, 13, 67, 72
14, 523264, Note_on_c, 13, 67, 0
14, 523264, Note_on_c, 13, 69, 72
14, 524288, Note_on_c, 13, 69, 0
14, 524288, Note_on_c, 13, 65, 72
14, 525312, Note_on_c, 13, 65, 0
14, 525312, Note_on_c, 13, 62, 71
14, 527360, Note_on_c, 13, 62, 0
14, 527360, Note_on_c, 13, 59, 70
14, 529408, Note_on_c, 13, 59, 0
14, 529408, Note_on_c, 13, 64, 69
14, 532480, Note_on_c, 13, 64, 0
14, 532480, Note_on_c, 13, 64, 68
14, 533504, Note_on_c, 13, 64, 0
14, 533504, Note_on_c, 13, 62, 68
14, 535552, Note_on_c, 13, 62, 0
14, 535552, Note_on_c, 13, 57, 67
14, 537600, Note_on_c, 13, 57, 0
14, 537600, Note_on_c, 13, 59, 66
14, 538624, Note_on_c, 13, 59, 0
14, 538624, Note_on_c, 13, 61, 66
14, 539648, Note_on_c, 13, 61, 0
14, 539648, Note_on_c, 13, 62, 65
14, 541696, Note_on_c, 13, 62, 0
14, 541696, Note_on_c, 13, 64, 64
14, 543744, Note_on_c, 13, 64, 0
14, 543744, Note_on_c, 13, 52, 64
14, 545792, Note_on_c, 13, 52, 0
14, 545792, Note_on_c, 13, 54, 63
14, 546089, Control_c, 13, 7, 125
14, 546326, Control_c, 13, 7, 124
14, 546563, Control_c, 13, 7, 123
14, 546799, Control_c, 13, 7, 122
14, 546816, Note_on_c, 13, 54, 0
14, 546816, Note_on_c, 13, 57, 62
14, 547036, Control_c, 13, 7, 121
14, 547273, Control_c, 13, 7, 120
14, 547509, Control_c, 13, 7, 119
14, 547746, Control_c, 13, 7, 118
14, 547840, Note_on_c, 13, 57, 0
14, 547840, Note_on_c, 13, 62, 60
14, 547982, Control_c, 13, 7, 117
14, 548219, Control_c, 13, 7, 116
14, 548456, Control_c, 13, 7, 115
14, 548692, Control_c, 13, 7, 114
14, 548864, Note_on_c, 13, 62, 0
14, 548864, Note_on_c, 13, 66, 58
14, 548929, Control_c, 13, 7, 113
14, 549165, Control_c, 13, 7, 112
14, 549402, Control_c, 13, 7, 111
14, 549639, Control_c, 13, 7, 110
14, 549875, Control_c, 13, 7, 109
14, 549888, Note_on_c, 13, 66, 0
14, 549888, Note_on_c, 13, 62, 56
14, 550112, Control_c, 13, 7, 108
14, 550348, Control_c, 13, 7, 107
14, 550585, Control_c, 13, 7, 106
14, 550822, Control_c, 13, 7, 105
14, 550912, Note_on_c, 13, 62, 0
14, 550912, Note_on_c, 13, 59, 55
14, 551058, Control_c, 13, 7, 104
14, 551295, Control_c, 13, 7, 103
14, 551531, Control_c, 13, 7, 102
14, 551768, Control_c, 13, 7, 101
14, 551936, Note_on_c, 13, 59, 0
14, 551936, Note_on_c, 13, 56, 53
14, 552005, Control_c, 13, 7, 100
14, 552241, Control_c, 13, 7, 99
14, 552478, Control_c, 13, 7, 98
14, 552714, Control_c, 13, 7, 97
14, 552951, Control_c, 13, 7, 96
14, 552960, Note_on_c, 13, 56, 0
14, 552960, Note_on_c, 13, 59, 51
14, 553188, Control_c, 13, 7, 95
14, 553424, Control_c, 13, 7, 94
14, 553661, Control_c, 13, 7, 93
14, 553897, Control_c, 13, 7, 92
14, 553984, Note_on_c, 13, 59, 0
14, 553984, Note_on_c, 13, 50, 49
14, 556032, Note_on_c, 13, 50, 0
14, 556032, Note_on_c, 13, 52, 45
14, 557056, Note_on_c, 13, 52, 0
14, 557056, Note_on_c, 13, 53, 43
14, 558080, Note_on_c, 13, 53, 0
14, 558080, Note_on_c, 13, 52, 41
14, 559923, Note_on_c, 13, 52, 0
14, 564224, Note_on_c, 13, 57, 39
14, 566272, Note_on_c, 13, 57, 0
14, 566272, Note_on_c, 13, 57, 39
14, 568320, Note_on_c, 13, 57, 0
14, 568320, Note_on_c, 13, 54, 39
14, 570368, Note_on_c, 13, 54, 0
14, 570368, Note_on_c, 13, 56, 39
14, 572211, Note_on_c, 13, 56, 0
14, 576512, Note_on_c, 13, 57, 39
14, 577536, Note_on_c, 13, 57, 0
14, 577536, Note_on_c, 13, 54, 39
14, 578560, Note_on_c, 13, 54, 0
14, 578560, Note_on_c, 13, 52, 39
14, 579584, Note_on_c, 13, 52, 0
14, 579584, Note_on_c, 13, 64, 39
14, 580608, Note_on_c, 13, 64, 0
14, 580608, Note_on_c, 13, 64, 39
14, 581632, Note_on_c, 13, 64, 0
14, 581632, Note_on_c, 13, 64, 39
14, 582656, Note_on_c, 13, 64, 0
14, 583680, Note_on_c, 13, 62, 49
14, 585728, Note_on_c, 13, 62, 0
14, 585728, Note_on_c, 13, 64, 56
14, 586752, Note_on_c, 13, 64, 0
14, 586752, Note_on_c, 13, 65, 56
14, 586793, Control_c, 13, 7, 97
14, 587079, Control_c, 13, 7, 96
14, 587364, Control_c, 13, 7, 95
14, 587649, Control_c, 13, 7, 94
14, 587935, Control_c, 13, 7, 93
14, 588220, Control_c, 13, 7, 92
14, 588505, Control_c, 13, 7, 91
14, 588790, Control_c, 13, 7, 90
14, 588800, Note_on_c, 13, 65, 0
14, 588800, Note_on_c, 13, 64, 56
14, 589076, Control_c, 13, 7, 89
14, 589361, Control_c, 13, 7, 88
14, 589646, Control_c, 13, 7, 87
14, 589824, Note_on_c, 13, 64, 0
14, 589824, Note_on_c, 13, 62, 56
14, 589931, Control_c, 13, 7, 86
14, 590217, Control_c, 13, 7, 85
14, 590502, Control_c, 13, 7, 84
14, 590787, Control_c, 13, 7, 83
14, 591072, Control_c, 13, 7, 82
14, 591358, Control_c, 13, 7, 81
14, 591643, Control_c, 13, 7, 80
14, 591872, Note_on_c, 13, 62, 0
14, 591872, Note_on_c, 13, 60, 53
14, 591928, Control_c, 13, 7, 79
14, 592213, Control_c, 13, 7, 78
14, 592499, Control_c, 13, 7, 77
14, 592784, Control_c, 13, 7, 76
14, 592896, Note_on_c, 13, 60, 0
14, 592896, Note_on_c, 13, 58, 53
14, 593069, Control_c, 13, 7, 75
14, 593354, Control_c, 13, 7, 74
14, 593640, Control_c, 13, 7, 73
14, 593925, Control_c, 13, 7, 72
14, 594210, Control_c, 13, 7, 71
14, 594495, Control_c, 13, 7, 70
14, 594781, Control_c, 13, 7, 69
14, 594944, Note_on_c, 13, 58, 0
14, 594944, Note_on_c, 13, 52, 53
14, 595066, Control_c, 13, 7, 68
14, 595351, Control_c, 13, 7, 67
14, 595636, Control_c, 13, 7, 66
14, 595922, Control_c, 13, 7, 65
14, 596207, Control_c, 13, 7, 64
14, 596492, Control_c, 13, 7, 63
14, 596777, Control_c, 13, 7, 62
14, 596787, Note_on_c, 13, 52, 0
14, 598953, Control_c, 13, 7, 127
14, 601088, Note_on_c, 13, 57, 79
14, 601702, Note_on_c, 13, 57, 0
14, 602112, Note_on_c, 13, 57, 80
14, 602726, Note_on_c, 13, 57, 0
14, 603136, Note_on_c, 13, 57, 81
14, 607232, Note_on_c, 13, 57, 0
14, 607232, Note_on_c, 13, 54, 87
14, 607846, Note_on_c, 13, 54, 0
14, 608256, Note_on_c, 13, 50, 88
14, 608870, Note_on_c, 13, 50, 0
14, 609280, Note_on_c, 13, 62, 90
14, 616038, Note_on_c, 13, 62, 0
14, 616448, Note_on_c, 13, 62, 98
14, 617062, Note_on_c, 13, 62, 0
14, 617472, Note_on_c, 13, 62, 98
14, 618086, Note_on_c, 13, 62, 0
14, 618496, Note_on_c, 13, 62, 98
14, 619110, Note_on_c, 13, 62, 0
14, 619520, Note_on_c, 13, 62, 98
14, 622592, Note_on_c, 13, 62, 0
14, 622592, Note_on_c, 13, 55, 98
14, 623206, Note_on_c, 13, 55, 0
14, 623616, Note_on_c, 13, 54, 98
14, 624230, Note_on_c, 13, 54, 0
14, 624640, Note_on_c, 13, 57, 98
14, 625254, Note_on_c, 13, 57, 0
14, 625664, Note_on_c, 13, 62, 98
14, 626278, Note_on_c, 13, 62, 0
14, 626688, Note_on_c, 13, 66, 98
14, 627302, Note_on_c, 13, 66, 0
14, 627712, Note_on_c, 13, 64, 99
14, 630784, Note_on_c, 13, 64, 0
14, 630784, Note_on_c, 13, 66, 107
14, 631296, Note_on_c, 13, 66, 0
14, 631296, Note_on_c, 13, 67, 109
14, 631808, Note_on_c, 13, 67, 0
14, 631808, Note_on_c, 13, 66, 110
14, 633856, Note_on_c, 13, 66, 0
14, 666624, Note_on_c, 13, 57, 49
14, 668672, Note_on_c, 13, 57, 0
14, 668672, Note_on_c, 13, 62, 54
14, 674816, Note_on_c, 13, 62, 0
14, 674816, Note_on_c, 13, 61, 69
14, 676864, Note_on_c, 13, 61, 0
14, 676864, Note_on_c, 13, 62, 74
14, 678912, Note_on_c, 13, 62, 0
14, 678912, Note_on_c, 13, 57, 79
14, 681574, Note_on_c, 13, 57, 0
14, 681984, Note_on_c, 13, 59, 86
14, 682598, Note_on_c, 13, 59, 0
14, 683008, Note_on_c, 13, 61, 88
14, 683622, Note_on_c, 13, 61, 0
14, 684032, Note_on_c, 13, 57, 91
14, 684646, Note_on_c, 13, 57, 0
14, 685056, Note_on_c, 13, 59, 94
14, 689152, Note_on_c, 13, 59, 0
14, 689152, Note_on_c, 13, 61, 96
14, 691200, Note_on_c, 13, 61, 0
14, 691200, Note_on_c, 13, 62, 98
14, 691814, Note_on_c, 13, 62, 0
14, 692224, Note_on_c, 13, 64, 99
14, 692736, Note_on_c, 13, 64, 0
14, 692736, Note_on_c, 13, 66, 99
14, 693248, Note_on_c, 13, 66, 0
14, 693248, Note_on_c, 13, 67, 99
14, 696320, Note_on_c, 13, 67, 0
14, 696320, Note_on_c, 13, 66, 73
14, 696832, Note_on_c, 13, 66, 0
14, 696832, Note_on_c, 13, 64, 73
14, 697344, Note_on_c, 13, 64, 0
14, 697344, Note_on_c, 13, 62, 74
14, 699392, Note_on_c, 13, 62, 0
14, 701440, Note_on_c, 13, 57, 78
14, 702054, Note_on_c, 13, 57, 0
14, 702464, Note_on_c, 13, 57, 78
14, 703078, Note_on_c, 13, 57, 0
14, 703488, Note_on_c, 13, 57, 79
14, 704102, Note_on_c, 13, 57, 0
14, 704512, Note_on_c, 13, 57, 80
14, 705126, Note_on_c, 13, 57, 0
14, 705536, Note_on_c, 13, 61, 81
14, 706560, Note_on_c, 13, 61, 0
14, 706560, Note_on_c, 13, 57, 82
14, 707072, Note_on_c, 13, 57, 0
14, 707072, Note_on_c, 13, 61, 83
14, 707584, Note_on_c, 13, 61, 0
14, 707584, Note_on_c, 13, 64, 83
14, 708608, Note_on_c, 13, 64, 0
14, 708608, Note_on_c, 13, 61, 84
14, 709120, Note_on_c, 13, 61, 0
14, 709120, Note_on_c, 13, 64, 85
14, 709632, Note_on_c, 13, 64, 0
14, 709632, Note_on_c, 13, 67, 85
14, 710246, Note_on_c, 13, 67, 0
14, 710656, Note_on_c, 13, 67, 86
14, 711270, Note_on_c, 13, 67, 0
14, 711680, Note_on_c, 13, 69, 87
14, 712192, Note_on_c, 13, 69, 0
14, 712192, Note_on_c, 13, 67, 88
14, 712704, Note_on_c, 13, 67, 0
14, 712704, Note_on_c, 13, 66, 88
14, 713216, Note_on_c, 13, 66, 0
14, 713216, Note_on_c, 13, 64, 89
14, 713728, Note_on_c, 13, 64, 0
14, 713728, Note_on_c, 13, 62, 89
14, 721920, Note_on_c, 13, 62, 0
14, 721920, Note_on_c, 13, 61, 97
14, 730112, Note_on_c, 13, 61, 0
14, 730112, Note_on_c, 13, 62, 104
14, 732160, Note_on_c, 13, 62, 0
14, 732160, Note_on_c, 13, 57, 96
14, 732774, Note_on_c, 13, 57, 0
14, 733184, Note_on_c, 13, 57, 97
14, 733798, Note_on_c, 13, 57, 0
14, 734208, Note_on_c, 13, 57, 99
14, 738304, Note_on_c, 13, 57, 0
14, 738304, Note_on_c, 13, 54, 105
14, 738918, Note_on_c, 13, 54, 0
14, 739328, Note_on_c, 13, 50, 107
14, 739942, Note_on_c, 13, 50, 0
14, 740352, Note_on_c, 13, 62, 108
14, 742400, Note_on_c, 13, 62, 0
14, 742400, Note_on_c, 13, 57, 111
14, 743014, Note_on_c, 13, 57, 0
14, 743424, Note_on_c, 13, 54, 113
14, 744038, Note_on_c, 13, 54, 0
14, 744448, Note_on_c, 13, 66, 114
14, 747110, Note_on_c, 13, 66, 0
14, 747520, Note_on_c, 13, 62, 115
14, 748134, Note_on_c, 13, 62, 0
14, 748544, Note_on_c, 13, 62, 115
14, 749158, Note_on_c, 13, 62, 0
14, 749568, Note_on_c, 13, 62, 115
14, 750182, Note_on_c, 13, 62, 0
14, 750592, Note_on_c, 13, 62, 115
14, 753664, Note_on_c, 13, 62, 0
14, 753664, Note_on_c, 13, 55, 115
14, 754278, Note_on_c, 13, 55, 0
14, 754688, Note_on_c, 13, 54, 115
14, 755302, Note_on_c, 13, 54, 0
14, 755712, Note_on_c, 13, 57, 115
14, 756326, Note_on_c, 13, 57, 0
14, 756736, Note_on_c, 13, 62, 115
14, 757350, Note_on_c, 13, 62, 0
14, 757760, Note_on_c, 13, 66, 115
14, 758374, Note_on_c, 13, 66, 0
14, 758784, Note_on_c, 13, 55, 115
14, 762880, Note_on_c, 13, 55, 0
14, 762880, Note_on_c, 13, 57, 115
14, 764928, Note_on_c, 13, 57, 0
14, 777216, Note_on_c, 13, 61, 64
14, 777830, Note_on_c, 13, 61, 0
14, 778240, Note_on_c, 13, 66, 64
14, 778854, Note_on_c, 13, 66, 0
14, 779264, Note_on_c, 13, 62, 64
14, 779878, Note_on_c, 13, 62, 0
14, 780288, Note_on_c, 13, 59, 64
14, 780902, Note_on_c, 13, 59, 0
14, 781312, Note_on_c, 13, 56, 64
14, 781824, Note_on_c, 13, 56, 0
14, 781824, Note_on_c, 13, 57, 64
14, 782336, Note_on_c, 13, 57, 0
14, 782336, Note_on_c, 13, 54, 64
14, 782848, Note_on_c, 13, 54, 0
14, 782848, Note_on_c, 13, 56, 64
14, 783360, Note_on_c, 13, 56, 0
14, 783360, Note_on_c, 13, 57, 64
14, 783872, Note_on_c, 13, 57, 0
14, 783872, Note_on_c, 13, 59, 64
14, 784384, Note_on_c, 13, 59, 0
14, 784384, Note_on_c, 13, 56, 64
14, 784896, Note_on_c, 13, 56, 0
14, 784896, Note_on_c, 13, 57, 64
14, 785408, Note_on_c, 13, 57, 0
14, 785408, Note_on_c, 13, 59, 64
14, 785920, Note_on_c, 13, 59, 0
14, 785920, Note_on_c, 13, 61, 64
14, 786432, Note_on_c, 13, 61, 0
14, 786432, Note_on_c, 13, 57, 64
14, 786944, Note_on_c, 13, 57, 0
14, 786944, Note_on_c, 13, 59, 64
14, 787456, Note_on_c, 13, 59, 0
14, 787456, Note_on_c, 13, 61, 64
14, 787968, Note_on_c, 13, 61, 0
14, 787968, Note_on_c, 13, 62, 63
14, 788480, Note_on_c, 13, 62, 0
14, 788480, Note_on_c, 13, 61, 65
14, 788992, Note_on_c, 13, 61, 0
14, 788992, Note_on_c, 13, 62, 66
14, 789504, Note_on_c, 13, 62, 0
14, 789504, Note_on_c, 13, 64, 68
14, 790118, Note_on_c, 13, 64, 0
14, 790528, Note_on_c, 13, 59, 71
14, 791142, Note_on_c, 13, 59, 0
14, 791552, Note_on_c, 13, 57, 74
14, 793600, Note_on_c, 13, 57, 0
14, 793600, Note_on_c, 13, 64, 80
14, 795648, Note_on_c, 13, 64, 0
14, 795648, Note_on_c, 13, 64, 86
14, 799744, Note_on_c, 13, 64, 0
14, 799744, Note_on_c, 13, 62, 98
14, 801792, Note_on_c, 13, 62, 0
14, 801792, Note_on_c, 13, 56, 99
14, 802406, Note_on_c, 13, 56, 0
14, 802816, Note_on_c, 13, 59, 100
14, 803430, Note_on_c, 13, 59, 0
14, 803840, Note_on_c, 13, 57, 101
14, 804454, Note_on_c, 13, 57, 0
14, 804864, Note_on_c, 13, 61, 102
14, 805478, Note_on_c, 13, 61, 0
14, 805888, Note_on_c, 13, 59, 102
14, 806502, Note_on_c, 13, 59, 0
14, 806912, Note_on_c, 13, 61, 103
14, 807424, Note_on_c, 13, 61, 0
14, 807424, Note_on_c, 13, 62, 104
14, 807936, Note_on_c, 13, 62, 0
14, 807936, Note_on_c, 13, 61, 104
14, 808550, Note_on_c, 13, 61, 0
14, 808960, Note_on_c, 13, 61, 105
14, 809574, Note_on_c, 13, 61, 0
14, 809984, Note_on_c, 13, 54, 106
14, 811008, Note_on_c, 13, 54, 0
14, 811008, Note_on_c, 13, 56, 106
14, 811622, Note_on_c, 13, 56, 0
14, 812032, Note_on_c, 13, 57, 107
14, 814080, Note_on_c, 13, 57, 0
14, 850944, Note_on_c, 13, 57, 77
14, 852992, Note_on_c, 13, 57, 0
14, 852992, Note_on_c, 13, 62, 79
14, 859136, Note_on_c, 13, 62, 0
14, 859136, Note_on_c, 13, 61, 85
14, 859750, Note_on_c, 13, 61, 0
14, 860160, Note_on_c, 13, 61, 86
14, 860774, Note_on_c, 13, 61, 0
14, 861184, Note_on_c, 13, 59, 87
14, 861798, Note_on_c, 13, 59, 0
14, 862208, Note_on_c, 13, 59, 88
14, 862822, Note_on_c, 13, 59, 0
14, 863232, Note_on_c, 13, 64, 89
14, 863846, Note_on_c, 13, 64, 0
14, 864256, Note_on_c, 13, 64, 90
14, 864870, Note_on_c, 13, 64, 0
14, 865280, Note_on_c, 13, 57, 90
14, 867328, Note_on_c, 13, 57, 0
14, 867328, Note_on_c, 13, 57, 92
14, 869990, Note_on_c, 13, 57, 0
14, 870400, Note_on_c, 13, 59, 95
14, 871014, Note_on_c, 13, 59, 0
14, 871424, Note_on_c, 13, 61, 96
14, 872038, Note_on_c, 13, 61, 0
14, 872448, Note_on_c, 13, 61, 97
14, 873062, Note_on_c, 13, 61, 0
14, 873472, Note_on_c, 13, 62, 94
14, 874496, Note_on_c, 13, 62, 0
14, 874496, Note_on_c, 13, 64, 89
14, 875008, Note_on_c, 13, 64, 0
14, 875008, Note_on_c, 13, 66, 86
14, 875520, Note_on_c, 13, 66, 0
14, 875520, Note_on_c, 13, 64, 83
14, 876134, Note_on_c, 13, 64, 0
14, 876544, Note_on_c, 13, 52, 76
14, 877158, Note_on_c, 13, 52, 0
14, 877568, Note_on_c, 13, 64, 52
14, 888832, Note_on_c, 13, 64, 0
14, 888832, Note_on_c, 13, 64, 64
14, 889446, Note_on_c, 13, 64, 0
14, 889856, Note_on_c, 13, 64, 65
14, 890470, Note_on_c, 13, 64, 0
14, 890880, Note_on_c, 13, 59, 66
14, 891494, Note_on_c, 13, 59, 0
14, 891904, Note_on_c, 13, 56, 67
14, 892518, Note_on_c, 13, 56, 0
14, 892928, Note_on_c, 13, 52, 68
14, 893542, Note_on_c, 13, 52, 0
14, 893952, Note_on_c, 13, 57, 69
14, 894976, Note_on_c, 13, 57, 0
14, 894976, Note_on_c, 13, 52, 70
14, 895488, Note_on_c, 13, 52, 0
14, 895488, Note_on_c, 13, 57, 71
14, 896000, Note_on_c, 13, 57, 0
14, 896000, Note_on_c, 13, 61, 71
14, 897024, Note_on_c, 13, 61, 0
14, 897024, Note_on_c, 13, 57, 72
14, 897536, Note_on_c, 13, 57, 0
14, 897536, Note_on_c, 13, 61, 73
14, 898048, Note_on_c, 13, 61, 0
14, 898048, Note_on_c, 13, 64, 73
14, 899072, Note_on_c, 13, 64, 0
14, 899072, Note_on_c, 13, 62, 75
14, 899584, Note_on_c, 13, 62, 0
14, 899584, Note_on_c, 13, 64, 75
14, 900096, Note_on_c, 13, 64, 0
14, 900096, Note_on_c, 13, 61, 76
14, 900608, Note_on_c, 13, 61, 0
14, 900608, Note_on_c, 13, 64, 76
14, 901120, Note_on_c, 13, 64, 0
14, 901120, Note_on_c, 13, 66, 77
14, 901632, Note_on_c, 13, 66, 0
14, 901632, Note_on_c, 13, 67, 77
14, 902144, Note_on_c, 13, 67, 0
14, 902144, Note_on_c, 13, 66, 78
14, 902656, Note_on_c, 13, 66, 0
14, 902656, Note_on_c, 13, 64, 78
14, 903168, Note_on_c, 13, 64, 0
14, 903168, Note_on_c, 13, 62, 79
14, 904704, Note_on_c, 13, 62, 0
14, 904704, Note_on_c, 13, 64, 80
14, 905216, Note_on_c, 13, 64, 0
14, 905216, Note_on_c, 13, 62, 81
14, 905728, Note_on_c, 13, 62, 0
14, 905728, Note_on_c, 13, 64, 82
14, 906240, Note_on_c, 13, 64, 0
14, 906240, Note_on_c, 13, 62, 82
14, 911360, Note_on_c, 13, 62, 0
14, 911360, Note_on_c, 13, 64, 87
14, 911872, Note_on_c, 13, 64, 0
14, 911872, Note_on_c, 13, 66, 88
14, 912384, Note_on_c, 13, 66, 0
14, 912384, Note_on_c, 13, 67, 89
14, 912998, Note_on_c, 13, 67, 0
14, 913408, Note_on_c, 13, 66, 90
14, 914022, Note_on_c, 13, 66, 0
14, 914432, Note_on_c, 13, 64, 91
14, 914944, Note_on_c, 13, 64, 0
14, 914944, Note_on_c, 13, 66, 91
14, 915456, Note_on_c, 13, 66, 0
14, 915456, Note_on_c, 13, 64, 92
14, 915968, Note_on_c, 13, 64, 0
14, 915968, Note_on_c, 13, 62, 92
14, 916480, Note_on_c, 13, 62, 0
14, 916480, Note_on_c, 13, 61, 93
14, 919552, Note_on_c, 13, 61, 0
14, 919552, Note_on_c, 13, 62, 96
14, 920064, Note_on_c, 13, 62, 0
14, 920064, Note_on_c, 13, 64, 97
14, 920576, Note_on_c, 13, 64, 0
14, 920576, Note_on_c, 13, 66, 97
14, 921190, Note_on_c, 13, 66, 0
14, 921600, Note_on_c, 13, 64, 98
14, 922214, Note_on_c, 13, 64, 0
14, 922624, Note_on_c, 13, 62, 99
14, 923136, Note_on_c, 13, 62, 0
14, 923136, Note_on_c, 13, 64, 100
14, 923648, Note_on_c, 13, 64, 0
14, 923648, Note_on_c, 13, 62, 100
14, 924160, Note_on_c, 13, 62, 0
14, 924160, Note_on_c, 13, 61, 101
14, 924672, Note_on_c, 13, 61, 0
14, 924672, Note_on_c, 13, 59, 102
14, 926720, Note_on_c, 13, 59, 0
14, 926720, Note_on_c, 13, 59, 103
14, 928768, Note_on_c, 13, 59, 0
14, 929792, Note_on_c, 13, 59, 103
14, 930406, Note_on_c, 13, 59, 0
14, 930816, Note_on_c, 13, 64, 103
14, 931430, Note_on_c, 13, 64, 0
14, 931840, Note_on_c, 13, 64, 103
14, 932454, Note_on_c, 13, 64, 0
14, 933888, Note_on_c, 13, 59, 103
14, 934502, Note_on_c, 13, 59, 0
14, 934912, Note_on_c, 13, 61, 103
14, 935526, Note_on_c, 13, 61, 0
14, 935936, Note_on_c, 13, 61, 103
14, 936550, Note_on_c, 13, 61, 0
14, 936960, Note_on_c, 13, 61, 103
14, 940032, Note_on_c, 13, 61, 0
14, 940032, Note_on_c, 13, 57, 103
14, 940544, Note_on_c, 13, 57, 0
14, 940544, Note_on_c, 13, 61, 103
14, 941056, Note_on_c, 13, 61, 0
14, 941056, Note_on_c, 13, 64, 103
14, 941670, Note_on_c, 13, 64, 0
14, 942080, Note_on_c, 13, 61, 103
14, 942592, Note_on_c, 13, 61, 0
14, 942592, Note_on_c, 13, 64, 103
14, 943104, Note_on_c, 13, 64, 0
14, 943104, Note_on_c, 13, 66, 103
14, 943718, Note_on_c, 13, 66, 0
14, 944128, Note_on_c, 13, 57, 103
14, 944742, Note_on_c, 13, 57, 0
14, 945152, Note_on_c, 13, 62, 103
14, 947814, Note_on_c, 13, 62, 0
14, 948224, Note_on_c, 13, 62, 106
14, 948838, Note_on_c, 13, 62, 0
14, 949248, Note_on_c, 13, 59, 107
14, 949862, Note_on_c, 13, 59, 0
14, 950272, Note_on_c, 13, 54, 107
14, 950784, Note_on_c, 13, 54, 0
14, 950784, Note_on_c, 13, 57, 108
14, 951296, Note_on_c, 13, 57, 0
14, 951296, Note_on_c, 13, 57, 108
14, 951910, Note_on_c, 13, 57, 0
14, 952320, Note_on_c, 13, 57, 92
14, 952934, Note_on_c, 13, 57, 0
14, 953344, Note_on_c, 13, 57, 57
14, 953856, Note_on_c, 13, 57, 0
14, 953856, Note_on_c, 13, 59, 57
14, 954368, Note_on_c, 13, 59, 0
14, 954368, Note_on_c, 13, 55, 58
14, 954880, Note_on_c, 13, 55, 0
14, 954880, Note_on_c, 13, 57, 59
14, 955392, Note_on_c, 13, 57, 0
14, 955392, Note_on_c, 13, 59, 59
14, 955904, Note_on_c, 13, 59, 0
14, 955904, Note_on_c, 13, 61, 60
14, 956416, Note_on_c, 13, 61, 0
14, 956416, Note_on_c, 13, 57, 60
14, 956928, Note_on_c, 13, 57, 0
14, 956928, Note_on_c, 13, 59, 61
14, 957440, Note_on_c, 13, 59, 0
14, 957440, Note_on_c, 13, 61, 61
14, 957952, Note_on_c, 13, 61, 0
14, 957952, Note_on_c, 13, 62, 62
14, 958464, Note_on_c, 13, 62, 0
14, 958464, Note_on_c, 13, 59, 63
14, 958976, Note_on_c, 13, 59, 0
14, 958976, Note_on_c, 13, 61, 63
14, 959488, Note_on_c, 13, 61, 0
14, 959488, Note_on_c, 13, 62, 64
14, 960000, Note_on_c, 13, 62, 0
14, 960000, Note_on_c, 13, 64, 64
14, 960512, Note_on_c, 13, 64, 0
14, 960512, Note_on_c, 13, 61, 65
14, 961024, Note_on_c, 13, 61, 0
14, 961024, Note_on_c, 13, 62, 65
14, 961536, Note_on_c, 13, 62, 0
14, 961536, Note_on_c, 13, 59, 66
14, 962150, Note_on_c, 13, 59, 0
14, 962560, Note_on_c, 13, 59, 67
14, 963174, Note_on_c, 13, 59, 0
14, 963584, Note_on_c, 13, 61, 68
14, 965632, Note_on_c, 13, 61, 0
14, 965632, Note_on_c, 13, 63, 71
14, 967680, Note_on_c, 13, 63, 0
14, 967680, Note_on_c, 13, 64, 73
14, 968192, Note_on_c, 13, 64, 0
14, 968192, Note_on_c, 13, 66, 73
14, 968704, Note_on_c, 13, 66, 0
14, 968704, Note_on_c, 13, 62, 74
14, 969216, Note_on_c, 13, 62, 0
14, 969216, Note_on_c, 13, 64, 75
14, 969728, Note_on_c, 13, 64, 0
14, 969728, Note_on_c, 13, 61, 75
14, 970342, Note_on_c, 13, 61, 0
14, 970752, Note_on_c, 13, 61, 76
14, 971366, Note_on_c, 13, 61, 0
14, 971776, Note_on_c, 13, 59, 77
14, 973824, Note_on_c, 13, 59, 0
14, 973824, Note_on_c, 13, 64, 80
14, 975872, Note_on_c, 13, 64, 0
14, 975872, Note_on_c, 13, 57, 82
14, 976486, Note_on_c, 13, 57, 0
14, 976896, Note_on_c, 13, 58, 83
14, 977510, Note_on_c, 13, 58, 0
14, 977920, Note_on_c, 13, 59, 84
14, 978432, Note_on_c, 13, 59, 0
14, 978432, Note_on_c, 13, 61, 85
14, 978944, Note_on_c, 13, 61, 0
14, 978944, Note_on_c, 13, 57, 85
14, 979456, Note_on_c, 13, 57, 0
14, 979456, Note_on_c, 13, 59, 86
14, 979968, Note_on_c, 13, 59, 0
14, 979968, Note_on_c, 13, 61, 87
14, 980480, Note_on_c, 13, 61, 0
14, 980480, Note_on_c, 13, 62, 87
14, 980992, Note_on_c, 13, 62, 0
14, 980992, Note_on_c, 13, 59, 88
14, 981504, Note_on_c, 13, 59, 0
14, 981504, Note_on_c, 13, 61, 89
14, 982016, Note_on_c, 13, 61, 0
14, 982016, Note_on_c, 13, 63, 89
14, 982528, Note_on_c, 13, 63, 0
14, 982528, Note_on_c, 13, 64, 90
14, 983040, Note_on_c, 13, 64, 0
14, 983040, Note_on_c, 13, 61, 91
14, 983552, Note_on_c, 13, 61, 0
14, 983552, Note_on_c, 13, 63, 91
14, 984064, Note_on_c, 13, 63, 0
14, 984064, Note_on_c, 13, 64, 92
14, 984576, Note_on_c, 13, 64, 0
14, 984576, Note_on_c, 13, 66, 93
14, 985088, Note_on_c, 13, 66, 0
14, 985088, Note_on_c, 13, 62, 93
14, 985600, Note_on_c, 13, 62, 0
14, 985600, Note_on_c, 13, 64, 94
14, 986112, Note_on_c, 13, 64, 0
14, 986112, Note_on_c, 13, 61, 95
14, 986624, Note_on_c, 13, 61, 0
14, 986624, Note_on_c, 13, 62, 95
14, 987136, Note_on_c, 13, 62, 0
14, 987136, Note_on_c, 13, 59, 96
14, 987648, Note_on_c, 13, 59, 0
14, 987648, Note_on_c, 13, 61, 97
14, 988160, Note_on_c, 13, 61, 0
14, 988160, Note_on_c, 13, 57, 97
14, 988672, Note_on_c, 13, 57, 0
14, 988672, Note_on_c, 13, 59, 98
14, 989184, Note_on_c, 13, 59, 0
14, 989184, Note_on_c, 13, 55, 99
14, 989696, Note_on_c, 13, 55, 0
14, 989696, Note_on_c, 13, 57, 99
14, 990208, Note_on_c, 13, 57, 0
14, 990208, Note_on_c, 13, 59, 100
14, 990720, Note_on_c, 13, 59, 0
14, 990720, Note_on_c, 13, 61, 101
14, 991232, Note_on_c, 13, 61, 0
14, 991232, Note_on_c, 13, 57, 101
14, 991744, Note_on_c, 13, 57, 0
14, 991744, Note_on_c, 13, 59, 102
14, 992256, Note_on_c, 13, 59, 0
14, 992256, Note_on_c, 13, 61, 103
14, 992768, Note_on_c, 13, 61, 0
14, 992768, Note_on_c, 13, 62, 103
14, 993280, Note_on_c, 13, 62, 0
14, 993280, Note_on_c, 13, 64, 104
14, 993792, Note_on_c, 13, 64, 0
14, 993792, Note_on_c, 13, 62, 106
14, 994304, Note_on_c, 13, 62, 0
14, 994304, Note_on_c, 13, 61, 106
14, 994816, Note_on_c, 13, 61, 0
14, 994816, Note_on_c, 13, 62, 106
14, 995328, Note_on_c, 13, 62, 0
14, 995328, Note_on_c, 13, 59, 106
14, 995840, Note_on_c, 13, 59, 0
14, 995840, Note_on_c, 13, 61, 106
14, 996352, Note_on_c, 13, 61, 0
14, 996352, Note_on_c, 13, 62, 106
14, 996864, Note_on_c, 13, 62, 0
14, 996864, Note_on_c, 13, 64, 106
14, 997376, Note_on_c, 13, 64, 0
14, 997376, Note_on_c, 13, 61, 106
14, 997888, Note_on_c, 13, 61, 0
14, 997888, Note_on_c, 13, 62, 106
14, 998400, Note_on_c, 13, 62, 0
14, 998400, Note_on_c, 13, 64, 106
14, 998912, Note_on_c, 13, 64, 0
14, 998912, Note_on_c, 13, 66, 106
14, 999424, Note_on_c, 13, 66, 0
14, 999424, Note_on_c, 13, 62, 106
14, 999936, Note_on_c, 13, 62, 0
14, 999936, Note_on_c, 13, 64, 106
14, 1000448, Note_on_c, 13, 64, 0
14, 1000448, Note_on_c, 13, 66, 106
14, 1002496, Note_on_c, 13, 66, 0
14, 1002496, Note_on_c, 13, 66, 101
14, 1003110, Note_on_c, 13, 66, 0
14, 1003520, Note_on_c, 13, 66, 102
14, 1004134, Note_on_c, 13, 66, 0
14, 1004544, Note_on_c, 13, 66, 103
14, 1006592, Note_on_c, 13, 66, 0
14, 1006592, Note_on_c, 13, 64, 105
14, 1008640, Note_on_c, 13, 64, 0
14, 1008640, Note_on_c, 13, 62, 108
14, 1010688, Note_on_c, 13, 62, 0
14, 1010688, Note_on_c, 13, 57, 110
14, 1013350, Note_on_c, 13, 57, 0
14, 1013760, Note_on_c, 13, 59, 114
14, 1015808, Note_on_c, 13, 59, 0
14, 1015808, Note_on_c, 13, 64, 116
14, 1016422, Note_on_c, 13, 64, 0
14, 1016832, Note_on_c, 13, 62, 117
14, 1017446, Note_on_c, 13, 62, 0
14, 1017856, Note_on_c, 13, 66, 119
14, 1018470, Note_on_c, 13, 66, 0
14, 1018880, Note_on_c, 13, 66, 120
14, 1019494, Note_on_c, 13, 66, 0
14, 1019904, Note_on_c, 13, 67, 121
14, 1020518, Note_on_c, 13, 67, 0
14, 1020928, Note_on_c, 13, 62, 120
14, 1021542, Note_on_c, 13, 62, 0
14, 1021952, Note_on_c, 13, 62, 120
14, 1022464, Note_on_c, 13, 62, 0
14, 1022464, Note_on_c, 13, 62, 120
14, 1022976, Note_on_c, 13, 62, 0
14, 1022976, Note_on_c, 13, 57, 120
14, 1025024, Note_on_c, 13, 57, 0
14, 1025024, Note_on_c, 13, 57, 120
14, 1025638, Note_on_c, 13, 57, 0
14, 1033216, End_track
15, 0, Start_track
15, 0, Title_t, "Bass"
15, 0, Program_c, 14, 52
15, 0, Control_c, 14, 121, 127
15, 0, Control_c, 14, 1, 10
15, 0, Control_c, 14, 10, 100
15, 27648, Note_on_c, 14, 49, 89
15, 29696, Note_on_c, 14, 49, 0
15, 29696, Note_on_c, 14, 50, 89
15, 32768, Note_on_c, 14, 50, 0
15, 32768, Note_on_c, 14, 50, 89
15, 33792, Note_on_c, 14, 50, 0
15, 33792, Note_on_c, 14, 49, 89
15, 34816, Note_on_c, 14, 49, 0
15, 34816, Note_on_c, 14, 42, 89
15, 35840, Note_on_c, 14, 42, 0
15, 35840, Note_on_c, 14, 54, 89
15, 39936, Note_on_c, 14, 54, 0
15, 39936, Note_on_c, 14, 53, 89
15, 41984, Note_on_c, 14, 53, 0
15, 41984, Note_on_c, 14, 54, 89
15, 42906, Note_on_c, 14, 54, 0
15, 43008, Note_on_c, 14, 56, 89
15, 44032, Note_on_c, 14, 56, 0
15, 44032, Note_on_c, 14, 57, 89
15, 45056, Note_on_c, 14, 57, 0
15, 45056, Note_on_c, 14, 54, 89
15, 46080, Note_on_c, 14, 54, 0
15, 46080, Note_on_c, 14, 59, 89
15, 52224, Note_on_c, 14, 59, 0
15, 52224, Note_on_c, 14, 57, 89
15, 53248, Note_on_c, 14, 57, 0
15, 53248, Note_on_c, 14, 56, 89
15, 54272, Note_on_c, 14, 56, 0
15, 54272, Note_on_c, 14, 57, 89
15, 55296, Note_on_c, 14, 57, 0
15, 55296, Note_on_c, 14, 56, 89
15, 56320, Note_on_c, 14, 56, 0
15, 56320, Note_on_c, 14, 54, 89
15, 57344, Note_on_c, 14, 54, 0
15, 57344, Note_on_c, 14, 52, 89
15, 58368, Note_on_c, 14, 52, 0
15, 58368, Note_on_c, 14, 50, 88
15, 62464, Note_on_c, 14, 50, 0
15, 62464, Note_on_c, 14, 49, 74
15, 64307, Note_on_c, 14, 49, 0
15, 97280, Note_on_c, 14, 57, 52
15, 97894, Note_on_c, 14, 57, 0
15, 98304, Note_on_c, 14, 57, 52
15, 98918, Note_on_c, 14, 57, 0
15, 99328, Note_on_c, 14, 57, 52
15, 100352, Note_on_c, 14, 57, 0
15, 100352, Note_on_c, 14, 50, 52
15, 101376, Note_on_c, 14, 50, 0
15, 101376, Note_on_c, 14, 55, 53
15, 104448, Note_on_c, 14, 55, 0
15, 104448, Note_on_c, 14, 54, 53
15, 104960, Note_on_c, 14, 54, 0
15, 104960, Note_on_c, 14, 52, 53
15, 105472, Note_on_c, 14, 52, 0
15, 105472, Note_on_c, 14, 54, 53
15, 106496, Note_on_c, 14, 54, 0
15, 106496, Note_on_c, 14, 50, 54
15, 107520, Note_on_c, 14, 50, 0
15, 107520, Note_on_c, 14, 52, 54
15, 111616, Note_on_c, 14, 52, 0
15, 111616, Note_on_c, 14, 50, 53
15, 112230, Note_on_c, 14, 50, 0
15, 112640, Note_on_c, 14, 54, 56
15, 113664, Note_on_c, 14, 54, 0
15, 113664, Note_on_c, 14, 55, 58
15, 114688, Note_on_c, 14, 55, 0
15, 114688, Note_on_c, 14, 50, 61
15, 115712, Note_on_c, 14, 50, 0
15, 115712, Note_on_c, 14, 52, 63
15, 116736, Note_on_c, 14, 52, 0
15, 116736, Note_on_c, 14, 49, 66
15, 117760, Note_on_c, 14, 49, 0
15, 117760, Note_on_c, 14, 54, 69
15, 118784, Note_on_c, 14, 54, 0
15, 118784, Note_on_c, 14, 52, 71
15, 119808, Note_on_c, 14, 52, 0
15, 119808, Note_on_c, 14, 51, 74
15, 120832, Note_on_c, 14, 51, 0
15, 120832, Note_on_c, 14, 55, 76
15, 122880, Note_on_c, 14, 55, 0
15, 122880, Note_on_c, 14, 54, 82
15, 123904, Note_on_c, 14, 54, 0
15, 123904, Note_on_c, 14, 53, 84
15, 125952, Note_on_c, 14, 53, 0
15, 125952, Note_on_c, 14, 54, 89
15, 128000, Note_on_c, 14, 54, 0
15, 128000, Note_on_c, 14, 47, 90
15, 130048, Note_on_c, 14, 47, 0
15, 162816, Note_on_c, 14, 56, 88
15, 164864, Note_on_c, 14, 56, 0
15, 164864, Note_on_c, 14, 57, 88
15, 167936, Note_on_c, 14, 57, 0
15, 167936, Note_on_c, 14, 57, 88
15, 168960, Note_on_c, 14, 57, 0
15, 168960, Note_on_c, 14, 56, 88
15, 169984, Note_on_c, 14, 56, 0
15, 169984, Note_on_c, 14, 49, 88
15, 171008, Note_on_c, 14, 49, 0
15, 171008, Note_on_c, 14, 61, 88
15, 175104, Note_on_c, 14, 61, 0
15, 175104, Note_on_c, 14, 60, 88
15, 177152, Note_on_c, 14, 60, 0
15, 177152, Note_on_c, 14, 61, 88
15, 178995, Note_on_c, 14, 61, 0
15, 179200, Note_on_c, 14, 49, 88
15, 182272, Note_on_c, 14, 49, 0
15, 182272, Note_on_c, 14, 51, 88
15, 183296, Note_on_c, 14, 51, 0
15, 183296, Note_on_c, 14, 52, 88
15, 183910, Note_on_c, 14, 52, 0
15, 184320, Note_on_c, 14, 49, 88
15, 185344, Note_on_c, 14, 49, 0
15, 185344, Note_on_c, 14, 54, 88
15, 189440, Note_on_c, 14, 54, 0
15, 189440, Note_on_c, 14, 52, 88
15, 190054, Note_on_c, 14, 52, 0
15, 190464, Note_on_c, 14, 64, 88
15, 192512, Note_on_c, 14, 64, 0
15, 192512, Note_on_c, 14, 64, 88
15, 193126, Note_on_c, 14, 64, 0
15, 193536, Note_on_c, 14, 64, 88
15, 194560, Note_on_c, 14, 64, 0
15, 194560, Note_on_c, 14, 57, 88
15, 195584, Note_on_c, 14, 57, 0
15, 195584, Note_on_c, 14, 62, 88
15, 198656, Note_on_c, 14, 62, 0
15, 198656, Note_on_c, 14, 61, 88
15, 199168, Note_on_c, 14, 61, 0
15, 199168, Note_on_c, 14, 59, 88
15, 199680, Note_on_c, 14, 59, 0
15, 199680, Note_on_c, 14, 61, 88
15, 200704, Note_on_c, 14, 61, 0
15, 200704, Note_on_c, 14, 57, 88
15, 201728, Note_on_c, 14, 57, 0
15, 201728, Note_on_c, 14, 59, 88
15, 206848, Note_on_c, 14, 59, 0
15, 206848, Note_on_c, 14, 57, 88
15, 207360, Note_on_c, 14, 57, 0
15, 207360, Note_on_c, 14, 56, 88
15, 207872, Note_on_c, 14, 56, 0
15, 207872, Note_on_c, 14, 57, 88
15, 208486, Note_on_c, 14, 57, 0
15, 208896, Note_on_c, 14, 57, 88
15, 209510, Note_on_c, 14, 57, 0
15, 209920, Note_on_c, 14, 57, 88
15, 210944, Note_on_c, 14, 57, 0
15, 210944, Note_on_c, 14, 50, 88
15, 211968, Note_on_c, 14, 50, 0
15, 211968, Note_on_c, 14, 55, 88
15, 215040, Note_on_c, 14, 55, 0
15, 215040, Note_on_c, 14, 54, 88
15, 215552, Note_on_c, 14, 54, 0
15, 215552, Note_on_c, 14, 52, 88
15, 216064, Note_on_c, 14, 52, 0
15, 216064, Note_on_c, 14, 54, 88
15, 217088, Note_on_c, 14, 54, 0
15, 217088, Note_on_c, 14, 50, 88
15, 218112, Note_on_c, 14, 50, 0
15, 218112, Note_on_c, 14, 52, 88
15, 220160, Note_on_c, 14, 52, 0
15, 220160, Note_on_c, 14, 57, 79
15, 222208, Note_on_c, 14, 57, 0
15, 222208, Note_on_c, 14, 50, 71
15, 224256, Note_on_c, 14, 50, 0
15, 232448, Note_on_c, 14, 52, 47
15, 234496, Note_on_c, 14, 52, 0
15, 234496, Note_on_c, 14, 54, 47
15, 237568, Note_on_c, 14, 54, 0
15, 237568, Note_on_c, 14, 54, 47
15, 238592, Note_on_c, 14, 54, 0
15, 238592, Note_on_c, 14, 52, 47
15, 239616, Note_on_c, 14, 52, 0
15, 239616, Note_on_c, 14, 45, 47
15, 240640, Note_on_c, 14, 45, 0
15, 240640, Note_on_c, 14, 57, 47
15, 244736, Note_on_c, 14, 57, 0
15, 244736, Note_on_c, 14, 56, 48
15, 246784, Note_on_c, 14, 56, 0
15, 246784, Note_on_c, 14, 57, 48
15, 247398, Note_on_c, 14, 57, 0
15, 247808, Note_on_c, 14, 54, 49
15, 248832, Note_on_c, 14, 54, 0
15, 248832, Note_on_c, 14, 59, 49
15, 249856, Note_on_c, 14, 59, 0
15, 249856, Note_on_c, 14, 57, 49
15, 250880, Note_on_c, 14, 57, 0
15, 250880, Note_on_c, 14, 56, 49
15, 251904, Note_on_c, 14, 56, 0
15, 251904, Note_on_c, 14, 52, 50
15, 252928, Note_on_c, 14, 52, 0
15, 252928, Note_on_c, 14, 57, 50
15, 253542, Note_on_c, 14, 57, 0
15, 253952, Note_on_c, 14, 57, 50
15, 254566, Note_on_c, 14, 57, 0
15, 254976, Note_on_c, 14, 57, 50
15, 256000, Note_on_c, 14, 57, 0
15, 256000, Note_on_c, 14, 51, 51
15, 257024, Note_on_c, 14, 51, 0
15, 257024, Note_on_c, 14, 56, 51
15, 260096, Note_on_c, 14, 56, 0
15, 260096, Note_on_c, 14, 54, 52
15, 260608, Note_on_c, 14, 54, 0
15, 260608, Note_on_c, 14, 52, 52
15, 261120, Note_on_c, 14, 52, 0
15, 261120, Note_on_c, 14, 54, 52
15, 262144, Note_on_c, 14, 54, 0
15, 262144, Note_on_c, 14, 47, 52
15, 263168, Note_on_c, 14, 47, 0
15, 263168, Note_on_c, 14, 52, 53
15, 265216, Note_on_c, 14, 52, 0
15, 265216, Note_on_c, 14, 53, 59
15, 267264, Note_on_c, 14, 53, 0
15, 267264, Note_on_c, 14, 54, 65
15, 269312, Note_on_c, 14, 54, 0
15, 269312, Note_on_c, 14, 55, 72
15, 271360, Note_on_c, 14, 55, 0
15, 271360, Note_on_c, 14, 56, 78
15, 275456, Note_on_c, 14, 56, 0
15, 275456, Note_on_c, 14, 55, 91
15, 277504, Note_on_c, 14, 55, 0
15, 277504, Note_on_c, 14, 56, 96
15, 279552, Note_on_c, 14, 56, 0
15, 279552, Note_on_c, 14, 49, 96
15, 283648, Note_on_c, 14, 49, 0
15, 295936, Note_on_c, 14, 56, 95
15, 297984, Note_on_c, 14, 56, 0
15, 297984, Note_on_c, 14, 57, 95
15, 300032, Note_on_c, 14, 57, 0
15, 300032, Note_on_c, 14, 59, 95
15, 302080, Note_on_c, 14, 59, 0
15, 302080, Note_on_c, 14, 59, 95
15, 304128, Note_on_c, 14, 59, 0
15, 304128, Note_on_c, 14, 59, 95
15, 306176, Note_on_c, 14, 59, 0
15, 310272, Note_on_c, 14, 59, 95
15, 312320, Note_on_c, 14, 59, 0
15, 312320, Note_on_c, 14, 59, 95
15, 314368, Note_on_c, 14, 59, 0
15, 314368, Note_on_c, 14, 59, 95
15, 316416, Note_on_c, 14, 59, 0
15, 316416, Note_on_c, 14, 59, 95
15, 320512, Note_on_c, 14, 59, 0
15, 320512, Note_on_c, 14, 57, 95
15, 322560, Note_on_c, 14, 57, 0
15, 328704, Note_on_c, 14, 57, 95
15, 330752, Note_on_c, 14, 57, 0
15, 330752, Note_on_c, 14, 57, 95
15, 332800, Note_on_c, 14, 57, 0
15, 332800, Note_on_c, 14, 56, 95
15, 334848, Note_on_c, 14, 56, 0
15, 334848, Note_on_c, 14, 54, 95
15, 336896, Note_on_c, 14, 54, 0
15, 336896, Note_on_c, 14, 59, 95
15, 338944, Note_on_c, 14, 59, 0
15, 338944, Note_on_c, 14, 61, 95
15, 340992, Note_on_c, 14, 61, 0
15, 345088, Note_on_c, 14, 59, 95
15, 347136, Note_on_c, 14, 59, 0
15, 347136, Note_on_c, 14, 57, 95
15, 349184, Note_on_c, 14, 57, 0
15, 349184, Note_on_c, 14, 59, 95
15, 353280, Note_on_c, 14, 59, 0
15, 353280, Note_on_c, 14, 57, 95
15, 355328, Note_on_c, 14, 57, 0
15, 357281, Control_c, 14, 7, 63
15, 359424, Note_on_c, 14, 61, 95
15, 360038, Note_on_c, 14, 61, 0
15, 360448, Note_on_c, 14, 61, 95
15, 361062, Note_on_c, 14, 61, 0
15, 361472, Note_on_c, 14, 61, 95
15, 362496, Note_on_c, 14, 61, 0
15, 362496, Note_on_c, 14, 54, 95
15, 363520, Note_on_c, 14, 54, 0
15, 363520, Note_on_c, 14, 59, 95
15, 366592, Note_on_c, 14, 59, 0
15, 366592, Note_on_c, 14, 57, 95
15, 367104, Note_on_c, 14, 57, 0
15, 367104, Note_on_c, 14, 56, 95
15, 367616, Note_on_c, 14, 56, 0
15, 367616, Note_on_c, 14, 57, 95
15, 368640, Note_on_c, 14, 57, 0
15, 368640, Note_on_c, 14, 54, 95
15, 369664, Note_on_c, 14, 54, 0
15, 369664, Note_on_c, 14, 56, 95
15, 373760, Note_on_c, 14, 56, 0
15, 373760, Note_on_c, 14, 54, 95
15, 377856, Note_on_c, 14, 54, 0
15, 396288, Note_on_c, 14, 61, 95
15, 396902, Note_on_c, 14, 61, 0
15, 397312, Note_on_c, 14, 61, 95
15, 397926, Note_on_c, 14, 61, 0
15, 398336, Note_on_c, 14, 61, 95
15, 399360, Note_on_c, 14, 61, 0
15, 399360, Note_on_c, 14, 54, 95
15, 400384, Note_on_c, 14, 54, 0
15, 400384, Note_on_c, 14, 59, 95
15, 403456, Note_on_c, 14, 59, 0
15, 403456, Note_on_c, 14, 57, 95
15, 403968, Note_on_c, 14, 57, 0
15, 403968, Note_on_c, 14, 56, 95
15, 404480, Note_on_c, 14, 56, 0
15, 404480, Note_on_c, 14, 57, 95
15, 405504, Note_on_c, 14, 57, 0
15, 405504, Note_on_c, 14, 45, 95
15, 406528, Note_on_c, 14, 45, 0
15, 406528, Note_on_c, 14, 52, 95
15, 408576, Note_on_c, 14, 52, 0
15, 408576, Note_on_c, 14, 52, 95
15, 410624, Note_on_c, 14, 52, 0
15, 416768, Note_on_c, 14, 58, 95
15, 418816, Note_on_c, 14, 58, 0
15, 418816, Note_on_c, 14, 59, 95
15, 421888, Note_on_c, 14, 59, 0
15, 421888, Note_on_c, 14, 59, 95
15, 422912, Note_on_c, 14, 59, 0
15, 422912, Note_on_c, 14, 57, 95
15, 423936, Note_on_c, 14, 57, 0
15, 423936, Note_on_c, 14, 50, 95
15, 424960, Note_on_c, 14, 50, 0
15, 424960, Note_on_c, 14, 62, 95
15, 429056, Note_on_c, 14, 62, 0
15, 429056, Note_on_c, 14, 61, 95
15, 431104, Note_on_c, 14, 61, 0
15, 431104, Note_on_c, 14, 62, 95
15, 432947, Note_on_c, 14, 62, 0
15, 433152, Note_on_c, 14, 50, 95
15, 436224, Note_on_c, 14, 50, 0
15, 436224, Note_on_c, 14, 52, 95
15, 437248, Note_on_c, 14, 52, 0
15, 437248, Note_on_c, 14, 54, 95
15, 438272, Note_on_c, 14, 54, 0
15, 438272, Note_on_c, 14, 50, 95
15, 439296, Note_on_c, 14, 50, 0
15, 439296, Note_on_c, 14, 52, 95
15, 442368, Note_on_c, 14, 52, 0
15, 442368, Note_on_c, 14, 54, 95
15, 443392, Note_on_c, 14, 54, 0
15, 443392, Note_on_c, 14, 47, 95
15, 445235, Note_on_c, 14, 47, 0
15, 445353, Control_c, 14, 7, 93
15, 445440, Note_on_c, 14, 59, 95
15, 446054, Note_on_c, 14, 59, 0
15, 446464, Note_on_c, 14, 59, 95
15, 447078, Note_on_c, 14, 59, 0
15, 447488, Note_on_c, 14, 59, 95
15, 448512, Note_on_c, 14, 59, 0
15, 448512, Note_on_c, 14, 52, 95
15, 449536, Note_on_c, 14, 52, 0
15, 449536, Note_on_c, 14, 57, 95
15, 452608, Note_on_c, 14, 57, 0
15, 452608, Note_on_c, 14, 57, 95
15, 453120, Note_on_c, 14, 57, 0
15, 453120, Note_on_c, 14, 55, 95
15, 453632, Note_on_c, 14, 55, 0
15, 453632, Note_on_c, 14, 57, 95
15, 454656, Note_on_c, 14, 57, 0
15, 454656, Note_on_c, 14, 50, 95
15, 455680, Note_on_c, 14, 50, 0
15, 455680, Note_on_c, 14, 55, 95
15, 459776, Note_on_c, 14, 55, 0
15, 459776, Note_on_c, 14, 54, 95
15, 460390, Note_on_c, 14, 54, 0
15, 460800, Note_on_c, 14, 47, 95
15, 461824, Note_on_c, 14, 47, 0
15, 461824, Note_on_c, 14, 59, 95
15, 465920, Note_on_c, 14, 59, 0
15, 465920, Note_on_c, 14, 58, 95
15, 467968, Note_on_c, 14, 58, 0
15, 467968, Note_on_c, 14, 59, 95
15, 470886, Note_on_c, 14, 59, 0
15, 471040, Note_on_c, 14, 57, 95
15, 472064, Note_on_c, 14, 57, 0
15, 472064, Note_on_c, 14, 56, 95
15, 473088, Note_on_c, 14, 56, 0
15, 473088, Note_on_c, 14, 52, 95
15, 474112, Note_on_c, 14, 52, 0
15, 474112, Note_on_c, 14, 57, 95
15, 475136, Note_on_c, 14, 57, 0
15, 475136, Note_on_c, 14, 55, 95
15, 476160, Note_on_c, 14, 55, 0
15, 476160, Note_on_c, 14, 54, 95
15, 477184, Note_on_c, 14, 54, 0
15, 477184, Note_on_c, 14, 50, 95
15, 478208, Note_on_c, 14, 50, 0
15, 478208, Note_on_c, 14, 52, 95
15, 479232, Note_on_c, 14, 52, 0
15, 479232, Note_on_c, 14, 54, 95
15, 480256, Note_on_c, 14, 54, 0
15, 480256, Note_on_c, 14, 55, 89
15, 481280, Note_on_c, 14, 55, 0
15, 481280, Note_on_c, 14, 57, 71
15, 482304, Note_on_c, 14, 57, 0
15, 482304, Note_on_c, 14, 59, 51
15, 483328, Note_on_c, 14, 59, 0
15, 483328, Note_on_c, 14, 55, 51
15, 484352, Note_on_c, 14, 55, 0
15, 484352, Note_on_c, 14, 52, 50
15, 485376, Note_on_c, 14, 52, 0
15, 485376, Note_on_c, 14, 54, 49
15, 486400, Note_on_c, 14, 54, 0
15, 486400, Note_on_c, 14, 55, 49
15, 487424, Note_on_c, 14, 55, 0
15, 487424, Note_on_c, 14, 52, 48
15, 488448, Note_on_c, 14, 52, 0
15, 488448, Note_on_c, 14, 48, 47
15, 489472, Note_on_c, 14, 48, 0
15, 489472, Note_on_c, 14, 50, 46
15, 490496, Note_on_c, 14, 50, 0
15, 490496, Note_on_c, 14, 52, 46
15, 491520, Note_on_c, 14, 52, 0
15, 491520, Note_on_c, 14, 50, 45
15, 492544, Note_on_c, 14, 50, 0
15, 492544, Note_on_c, 14, 49, 44
15, 496640, Note_on_c, 14, 49, 0
15, 496640, Note_on_c, 14, 50, 42
15, 502579, Note_on_c, 14, 50, 0
15, 502697, Control_c, 14, 7, 74
15, 502784, Note_on_c, 14, 62, 62
15, 502811, Control_c, 14, 7, 75
15, 502925, Control_c, 14, 7, 76
15, 503038, Control_c, 14, 7, 77
15, 503152, Control_c, 14, 7, 78
15, 503265, Control_c, 14, 7, 79
15, 503379, Control_c, 14, 7, 80
15, 503492, Control_c, 14, 7, 81
15, 503606, Control_c, 14, 7, 82
15, 503719, Control_c, 14, 7, 83
15, 503833, Control_c, 14, 7, 84
15, 503946, Control_c, 14, 7, 85
15, 504060, Control_c, 14, 7, 86
15, 504173, Control_c, 14, 7, 87
15, 504287, Control_c, 14, 7, 88
15, 504400, Control_c, 14, 7, 89
15, 504514, Control_c, 14, 7, 90
15, 504627, Control_c, 14, 7, 91
15, 504741, Control_c, 14, 7, 92
15, 504854, Control_c, 14, 7, 93
15, 504968, Control_c, 14, 7, 94
15, 505081, Control_c, 14, 7, 95
15, 505195, Control_c, 14, 7, 96
15, 505308, Control_c, 14, 7, 97
15, 505422, Control_c, 14, 7, 98
15, 505535, Control_c, 14, 7, 99
15, 505649, Control_c, 14, 7, 100
15, 505762, Control_c, 14, 7, 101
15, 505876, Control_c, 14, 7, 102
15, 505989, Control_c, 14, 7, 103
15, 506103, Control_c, 14, 7, 104
15, 506216, Control_c, 14, 7, 105
15, 506330, Control_c, 14, 7, 106
15, 506443, Control_c, 14, 7, 107
15, 506557, Control_c, 14, 7, 108
15, 506670, Control_c, 14, 7, 109
15, 506784, Control_c, 14, 7, 110
15, 506880, Note_on_c, 14, 62, 0
15, 506880, Note_on_c, 14, 60, 74
15, 506897, Control_c, 14, 7, 111
15, 507011, Control_c, 14, 7, 112
15, 507124, Control_c, 14, 7, 113
15, 507238, Control_c, 14, 7, 114
15, 507351, Control_c, 14, 7, 115
15, 507465, Control_c, 14, 7, 116
15, 507578, Control_c, 14, 7, 117
15, 507692, Control_c, 14, 7, 118
15, 507805, Control_c, 14, 7, 119
15, 507919, Control_c, 14, 7, 120
15, 508032, Control_c, 14, 7, 121
15, 508146, Control_c, 14, 7, 122
15, 508259, Control_c, 14, 7, 123
15, 508373, Control_c, 14, 7, 124
15, 508486, Control_c, 14, 7, 125
15, 508600, Control_c, 14, 7, 126
15, 508713, Control_c, 14, 7, 127
15, 508841, Control_c, 14, 7, 125
15, 508928, Note_on_c, 14, 60, 0
15, 508928, Note_on_c, 14, 58, 74
15, 513024, Note_on_c, 14, 58, 0
15, 513024, Note_on_c, 14, 57, 74
15, 517120, Note_on_c, 14, 57, 0
15, 517120, Note_on_c, 14, 58, 74
15, 523264, Note_on_c, 14, 58, 0
15, 523264, Note_on_c, 14, 57, 72
15, 525312, Note_on_c, 14, 57, 0
15, 525312, Note_on_c, 14, 56, 71
15, 529408, Note_on_c, 14, 56, 0
15, 529408, Note_on_c, 14, 55, 69
15, 533504, Note_on_c, 14, 55, 0
15, 533504, Note_on_c, 14, 53, 68
15, 539648, Note_on_c, 14, 53, 0
15, 539648, Note_on_c, 14, 52, 65
15, 540672, Note_on_c, 14, 52, 0
15, 540672, Note_on_c, 14, 50, 65
15, 541696, Note_on_c, 14, 50, 0
15, 541696, Note_on_c, 14, 49, 64
15, 542720, Note_on_c, 14, 49, 0
15, 542720, Note_on_c, 14, 57, 64
15, 543744, Note_on_c, 14, 57, 0
15, 543744, Note_on_c, 14, 59, 64
15, 544768, Note_on_c, 14, 59, 0
15, 544768, Note_on_c, 14, 61, 63
15, 545792, Note_on_c, 14, 61, 0
15, 545792, Note_on_c, 14, 62, 63
15, 546089, Control_c, 14, 7, 127
15, 546607, Control_c, 14, 7, 126
15, 546816, Note_on_c, 14, 62, 0
15, 546816, Note_on_c, 14, 57, 62
15, 546866, Control_c, 14, 7, 125
15, 547125, Control_c, 14, 7, 124
15, 547383, Control_c, 14, 7, 123
15, 547642, Control_c, 14, 7, 122
15, 547840, Note_on_c, 14, 57, 0
15, 547840, Note_on_c, 14, 54, 60
15, 547901, Control_c, 14, 7, 121
15, 548160, Control_c, 14, 7, 120
15, 548419, Control_c, 14, 7, 119
15, 548677, Control_c, 14, 7, 118
15, 548864, Note_on_c, 14, 54, 0
15, 548864, Note_on_c, 14, 50, 58
15, 548936, Control_c, 14, 7, 117
15, 549195, Control_c, 14, 7, 116
15, 549454, Control_c, 14, 7, 115
15, 549712, Control_c, 14, 7, 114
15, 549888, Note_on_c, 14, 50, 0
15, 549888, Note_on_c, 14, 44, 56
15, 549971, Control_c, 14, 7, 113
15, 550230, Control_c, 14, 7, 112
15, 550489, Control_c, 14, 7, 111
15, 550748, Control_c, 14, 7, 110
15, 551006, Control_c, 14, 7, 109
15, 551265, Control_c, 14, 7, 108
15, 551524, Control_c, 14, 7, 107
15, 551783, Control_c, 14, 7, 106
15, 552041, Control_c, 14, 7, 105
15, 552300, Control_c, 14, 7, 104
15, 552559, Control_c, 14, 7, 103
15, 552818, Control_c, 14, 7, 102
15, 553077, Control_c, 14, 7, 101
15, 553335, Control_c, 14, 7, 100
15, 553594, Control_c, 14, 7, 99
15, 553853, Control_c, 14, 7, 98
15, 553984, Note_on_c, 14, 44, 0
15, 553984, Note_on_c, 14, 45, 49
15, 554112, Control_c, 14, 7, 97
15, 554371, Control_c, 14, 7, 96
15, 554629, Control_c, 14, 7, 95
15, 554888, Control_c, 14, 7, 94
15, 555147, Control_c, 14, 7, 93
15, 555406, Control_c, 14, 7, 92
15, 555664, Control_c, 14, 7, 91
15, 555923, Control_c, 14, 7, 90
15, 556182, Control_c, 14, 7, 89
15, 556441, Control_c, 14, 7, 88
15, 556700, Control_c, 14, 7, 87
15, 556958, Control_c, 14, 7, 86
15, 557217, Control_c, 14, 7, 85
15, 557476, Control_c, 14, 7, 84
15, 557735, Control_c, 14, 7, 83
15, 557993, Control_c, 14, 7, 82
15, 559923, Note_on_c, 14, 45, 0
15, 564224, Note_on_c, 14, 57, 39
15, 565248, Note_on_c, 14, 57, 0
15, 565248, Note_on_c, 14, 55, 39
15, 566272, Note_on_c, 14, 55, 0
15, 566272, Note_on_c, 14, 54, 39
15, 570368, Note_on_c, 14, 54, 0
15, 570368, Note_on_c, 14, 53, 39
15, 572211, Note_on_c, 14, 53, 0
15, 576512, Note_on_c, 14, 54, 39
15, 577536, Note_on_c, 14, 54, 0
15, 577536, Note_on_c, 14, 57, 39
15, 578560, Note_on_c, 14, 57, 0
15, 578560, Note_on_c, 14, 61, 39
15, 581632, Note_on_c, 14, 61, 0
15, 581632, Note_on_c, 14, 61, 39
15, 582656, Note_on_c, 14, 61, 0
15, 582656, Note_on_c, 14, 62, 44
15, 583680, Note_on_c, 14, 62, 0
15, 583680, Note_on_c, 14, 50, 49
15, 584602, Note_on_c, 14, 50, 0
15, 584704, Note_on_c, 14, 50, 56
15, 585728, Note_on_c, 14, 50, 0
15, 585728, Note_on_c, 14, 48, 56
15, 586752, Note_on_c, 14, 48, 0
15, 586752, Note_on_c, 14, 47, 56
15, 586793, Control_c, 14, 7, 97
15, 586987, Control_c, 14, 7, 96
15, 587180, Control_c, 14, 7, 95
15, 587373, Control_c, 14, 7, 94
15, 587567, Control_c, 14, 7, 93
15, 587760, Control_c, 14, 7, 92
15, 587953, Control_c, 14, 7, 91
15, 588147, Control_c, 14, 7, 90
15, 588340, Control_c, 14, 7, 89
15, 588533, Control_c, 14, 7, 88
15, 588727, Control_c, 14, 7, 87
15, 588920, Control_c, 14, 7, 86
15, 589113, Control_c, 14, 7, 85
15, 589306, Control_c, 14, 7, 84
15, 589500, Control_c, 14, 7, 83
15, 589693, Control_c, 14, 7, 82
15, 589886, Control_c, 14, 7, 81
15, 590080, Control_c, 14, 7, 80
15, 590273, Control_c, 14, 7, 79
15, 590466, Control_c, 14, 7, 78
15, 590660, Control_c, 14, 7, 77
15, 590848, Note_on_c, 14, 47, 0
15, 590848, Note_on_c, 14, 46, 53
15, 590853, Control_c, 14, 7, 76
15, 591046, Control_c, 14, 7, 75
15, 591240, Control_c, 14, 7, 74
15, 591433, Control_c, 14, 7, 73
15, 591626, Control_c, 14, 7, 72
15, 591819, Control_c, 14, 7, 71
15, 592013, Control_c, 14, 7, 70
15, 592206, Control_c, 14, 7, 69
15, 592399, Control_c, 14, 7, 68
15, 592593, Control_c, 14, 7, 67
15, 592786, Control_c, 14, 7, 66
15, 592979, Control_c, 14, 7, 65
15, 593173, Control_c, 14, 7, 64
15, 593366, Control_c, 14, 7, 63
15, 593559, Control_c, 14, 7, 62
15, 593753, Control_c, 14, 7, 61
15, 593946, Control_c, 14, 7, 60
15, 594139, Control_c, 14, 7, 59
15, 594332, Control_c, 14, 7, 58
15, 594526, Control_c, 14, 7, 57
15, 594719, Control_c, 14, 7, 56
15, 594912, Control_c, 14, 7, 55
15, 594944, Note_on_c, 14, 46, 0
15, 594944, Note_on_c, 14, 45, 53
15, 595106, Control_c, 14, 7, 54
15, 595299, Control_c, 14, 7, 53
15, 595492, Control_c, 14, 7, 52
15, 595686, Control_c, 14, 7, 51
15, 595879, Control_c, 14, 7, 50
15, 596072, Control_c, 14, 7, 49
15, 596265, Control_c, 14, 7, 48
15, 596787, Note_on_c, 14, 45, 0
15, 598953, Control_c, 14, 7, 127
15, 603136, Note_on_c, 14, 57, 81
15, 603750, Note_on_c, 14, 57, 0
15, 604160, Note_on_c, 14, 57, 83
15, 604774, Note_on_c, 14, 57, 0
15, 605184, Note_on_c, 14, 57, 84
15, 609280, Note_on_c, 14, 57, 0
15, 609280, Note_on_c, 14, 54, 90
15, 609894, Note_on_c, 14, 54, 0
15, 610304, Note_on_c, 14, 50, 91
15, 610918, Note_on_c, 14, 50, 0
15, 611328, Note_on_c, 14, 57, 93
15, 611942, Note_on_c, 14, 57, 0
15, 612352, Note_on_c, 14, 57, 94
15, 612966, Note_on_c, 14, 57, 0
15, 613376, Note_on_c, 14, 62, 96
15, 613990, Note_on_c, 14, 62, 0
15, 614400, Note_on_c, 14, 57, 97
15, 615014, Note_on_c, 14, 57, 0
15, 615424, Note_on_c, 14, 54, 98
15, 616448, Note_on_c, 14, 54, 0
15, 616448, Note_on_c, 14, 50, 98
15, 616960, Note_on_c, 14, 50, 0
15, 616960, Note_on_c, 14, 54, 98
15, 617472, Note_on_c, 14, 54, 0
15, 617472, Note_on_c, 14, 57, 98
15, 618496, Note_on_c, 14, 57, 0
15, 618496, Note_on_c, 14, 54, 98
15, 619008, Note_on_c, 14, 54, 0
15, 619008, Note_on_c, 14, 57, 98
15, 619520, Note_on_c, 14, 57, 0
15, 619520, Note_on_c, 14, 62, 98
15, 620134, Note_on_c, 14, 62, 0
15, 620544, Note_on_c, 14, 62, 98
15, 621158, Note_on_c, 14, 62, 0
15, 621568, Note_on_c, 14, 62, 98
15, 624230, Note_on_c, 14, 62, 0
15, 624640, Note_on_c, 14, 50, 98
15, 625254, Note_on_c, 14, 50, 0
15, 625664, Note_on_c, 14, 50, 98
15, 626278, Note_on_c, 14, 50, 0
15, 626688, Note_on_c, 14, 50, 98
15, 627302, Note_on_c, 14, 50, 0
15, 627712, Note_on_c, 14, 50, 99
15, 631808, Note_on_c, 14, 50, 0
15, 631808, Note_on_c, 14, 50, 110
15, 633856, Note_on_c, 14, 50, 0
15, 678912, Note_on_c, 14, 50, 79
15, 680960, Note_on_c, 14, 50, 0
15, 680960, Note_on_c, 14, 57, 84
15, 687104, Note_on_c, 14, 57, 0
15, 687104, Note_on_c, 14, 55, 95
15, 689152, Note_on_c, 14, 55, 0
15, 689152, Note_on_c, 14, 54, 96
15, 691200, Note_on_c, 14, 54, 0
15, 691200, Note_on_c, 14, 59, 98
15, 691814, Note_on_c, 14, 59, 0
15, 692224, Note_on_c, 14, 57, 99
15, 692838, Note_on_c, 14, 57, 0
15, 693248, Note_on_c, 14, 55, 99
15, 694272, Note_on_c, 14, 55, 0
15, 694272, Note_on_c, 14, 52, 71
15, 694886, Note_on_c, 14, 52, 0
15, 695296, Note_on_c, 14, 57, 72
15, 696320, Note_on_c, 14, 57, 0
15, 696320, Note_on_c, 14, 55, 73
15, 696934, Note_on_c, 14, 55, 0
15, 697344, Note_on_c, 14, 54, 74
15, 698368, Note_on_c, 14, 54, 0
15, 698368, Note_on_c, 14, 50, 75
15, 698880, Note_on_c, 14, 50, 0
15, 698880, Note_on_c, 14, 54, 75
15, 699392, Note_on_c, 14, 54, 0
15, 699392, Note_on_c, 14, 57, 76
15, 700416, Note_on_c, 14, 57, 0
15, 700416, Note_on_c, 14, 54, 77
15, 700928, Note_on_c, 14, 54, 0
15, 700928, Note_on_c, 14, 57, 77
15, 701440, Note_on_c, 14, 57, 0
15, 701440, Note_on_c, 14, 62, 78
15, 702054, Note_on_c, 14, 62, 0
15, 702464, Note_on_c, 14, 62, 78
15, 703078, Note_on_c, 14, 62, 0
15, 703488, Note_on_c, 14, 64, 79
15, 704000, Note_on_c, 14, 64, 0
15, 704000, Note_on_c, 14, 62, 80
15, 704512, Note_on_c, 14, 62, 0
15, 704512, Note_on_c, 14, 61, 80
15, 705024, Note_on_c, 14, 61, 0
15, 705024, Note_on_c, 14, 59, 81
15, 705536, Note_on_c, 14, 59, 0
15, 705536, Note_on_c, 14, 57, 81
15, 730112, Note_on_c, 14, 57, 0
15, 730112, Note_on_c, 14, 50, 104
15, 732160, Note_on_c, 14, 50, 0
15, 736256, Note_on_c, 14, 57, 102
15, 736870, Note_on_c, 14, 57, 0
15, 737280, Note_on_c, 14, 57, 103
15, 737894, Note_on_c, 14, 57, 0
15, 738304, Note_on_c, 14, 57, 105
15, 742400, Note_on_c, 14, 57, 0
15, 742400, Note_on_c, 14, 54, 111
15, 743014, Note_on_c, 14, 54, 0
15, 743424, Note_on_c, 14, 50, 113
15, 744038, Note_on_c, 14, 50, 0
15, 744448, Note_on_c, 14, 62, 114
15, 746496, Note_on_c, 14, 62, 0
15, 746496, Note_on_c, 14, 62, 115
15, 747110, Note_on_c, 14, 62, 0
15, 747520, Note_on_c, 14, 50, 115
15, 748032, Note_on_c, 14, 50, 0
15, 748032, Note_on_c, 14, 54, 115
15, 748544, Note_on_c, 14, 54, 0
15, 748544, Note_on_c, 14, 57, 115
15, 749158, Note_on_c, 14, 57, 0
15, 749568, Note_on_c, 14, 54, 115
15, 750080, Note_on_c, 14, 54, 0
15, 750080, Note_on_c, 14, 57, 115
15, 750592, Note_on_c, 14, 57, 0
15, 750592, Note_on_c, 14, 62, 115
15, 751206, Note_on_c, 14, 62, 0
15, 751616, Note_on_c, 14, 62, 115
15, 752230, Note_on_c, 14, 62, 0
15, 752640, Note_on_c, 14, 62, 115
15, 755302, Note_on_c, 14, 62, 0
15, 755712, Note_on_c, 14, 50, 115
15, 756326, Note_on_c, 14, 50, 0
15, 756736, Note_on_c, 14, 50, 115
15, 757350, Note_on_c, 14, 50, 0
15, 757760, Note_on_c, 14, 50, 115
15, 758374, Note_on_c, 14, 50, 0
15, 758784, Note_on_c, 14, 50, 115
15, 762880, Note_on_c, 14, 50, 0
15, 762880, Note_on_c, 14, 50, 115
15, 764928, Note_on_c, 14, 50, 0
15, 787456, Note_on_c, 14, 64, 64
15, 788070, Note_on_c, 14, 64, 0
15, 788480, Note_on_c, 14, 57, 65
15, 789094, Note_on_c, 14, 57, 0
15, 789504, Note_on_c, 14, 56, 68
15, 790118, Note_on_c, 14, 56, 0
15, 790528, Note_on_c, 14, 52, 71
15, 791142, Note_on_c, 14, 52, 0
15, 791552, Note_on_c, 14, 54, 74
15, 792064, Note_on_c, 14, 54, 0
15, 792064, Note_on_c, 14, 56, 75
15, 792576, Note_on_c, 14, 56, 0
15, 792576, Note_on_c, 14, 52, 77
15, 793088, Note_on_c, 14, 52, 0
15, 793088, Note_on_c, 14, 54, 78
15, 793600, Note_on_c, 14, 54, 0
15, 793600, Note_on_c, 14, 56, 80
15, 794112, Note_on_c, 14, 56, 0
15, 794112, Note_on_c, 14, 57, 81
15, 794624, Note_on_c, 14, 57, 0
15, 794624, Note_on_c, 14, 54, 83
15, 795136, Note_on_c, 14, 54, 0
15, 795136, Note_on_c, 14, 56, 84
15, 795648, Note_on_c, 14, 56, 0
15, 795648, Note_on_c, 14, 57, 86
15, 796160, Note_on_c, 14, 57, 0
15, 796160, Note_on_c, 14, 59, 87
15, 796672, Note_on_c, 14, 59, 0
15, 796672, Note_on_c, 14, 57, 89
15, 797184, Note_on_c, 14, 57, 0
15, 797184, Note_on_c, 14, 59, 90
15, 797696, Note_on_c, 14, 59, 0
15, 797696, Note_on_c, 14, 61, 92
15, 798208, Note_on_c, 14, 61, 0
15, 798208, Note_on_c, 14, 62, 93
15, 798720, Note_on_c, 14, 62, 0
15, 798720, Note_on_c, 14, 59, 95
15, 799232, Note_on_c, 14, 59, 0
15, 799232, Note_on_c, 14, 61, 96
15, 799744, Note_on_c, 14, 61, 0
15, 799744, Note_on_c, 14, 62, 98
15, 800358, Note_on_c, 14, 62, 0
15, 800768, Note_on_c, 14, 50, 98
15, 801382, Note_on_c, 14, 50, 0
15, 801792, Note_on_c, 14, 62, 99
15, 802406, Note_on_c, 14, 62, 0
15, 802816, Note_on_c, 14, 62, 100
15, 803430, Note_on_c, 14, 62, 0
15, 803840, Note_on_c, 14, 61, 101
15, 804454, Note_on_c, 14, 61, 0
15, 804864, Note_on_c, 14, 59, 102
15, 805376, Note_on_c, 14, 59, 0
15, 805376, Note_on_c, 14, 57, 102
15, 805888, Note_on_c, 14, 57, 0
15, 805888, Note_on_c, 14, 56, 102
15, 806502, Note_on_c, 14, 56, 0
15, 806912, Note_on_c, 14, 52, 103
15, 807526, Note_on_c, 14, 52, 0
15, 807936, Note_on_c, 14, 57, 104
15, 808550, Note_on_c, 14, 57, 0
15, 808960, Note_on_c, 14, 54, 105
15, 809574, Note_on_c, 14, 54, 0
15, 809984, Note_on_c, 14, 50, 106
15, 811008, Note_on_c, 14, 50, 0
15, 811008, Note_on_c, 14, 52, 106
15, 811622, Note_on_c, 14, 52, 0
15, 812032, Note_on_c, 14, 45, 107
15, 814080, Note_on_c, 14, 45, 0
15, 855040, Note_on_c, 14, 52, 81
15, 857088, Note_on_c, 14, 52, 0
15, 857088, Note_on_c, 14, 57, 83
15, 863232, Note_on_c, 14, 57, 0
15, 863232, Note_on_c, 14, 56, 89
15, 863846, Note_on_c, 14, 56, 0
15, 864256, Note_on_c, 14, 56, 90
15, 864870, Note_on_c, 14, 56, 0
15, 865280, Note_on_c, 14, 57, 90
15, 866304, Note_on_c, 14, 57, 0
15, 866304, Note_on_c, 14, 59, 91
15, 866918, Note_on_c, 14, 59, 0
15, 867328, Note_on_c, 14, 61, 92
15, 868352, Note_on_c, 14, 61, 0
15, 868352, Note_on_c, 14, 57, 93
15, 868966, Note_on_c, 14, 57, 0
15, 869376, Note_on_c, 14, 54, 94
15, 869990, Note_on_c, 14, 54, 0
15, 870400, Note_on_c, 14, 56, 95
15, 871014, Note_on_c, 14, 56, 0
15, 871424, Note_on_c, 14, 57, 96
15, 872038, Note_on_c, 14, 57, 0
15, 872448, Note_on_c, 14, 54, 97
15, 873062, Note_on_c, 14, 54, 0
15, 873472, Note_on_c, 14, 50, 94
15, 874496, Note_on_c, 14, 50, 0
15, 874496, Note_on_c, 14, 47, 89
15, 875110, Note_on_c, 14, 47, 0
15, 875520, Note_on_c, 14, 52, 83
15, 876544, Note_on_c, 14, 52, 0
15, 876544, Note_on_c, 14, 50, 76
15, 877158, Note_on_c, 14, 50, 0
15, 877568, Note_on_c, 14, 49, 52
15, 881664, Note_on_c, 14, 49, 0
15, 881664, Note_on_c, 14, 45, 56
15, 885760, Note_on_c, 14, 45, 0
15, 885760, Note_on_c, 14, 52, 60
15, 896000, Note_on_c, 14, 52, 0
15, 896000, Note_on_c, 14, 49, 71
15, 898048, Note_on_c, 14, 49, 0
15, 898048, Note_on_c, 14, 45, 73
15, 898662, Note_on_c, 14, 45, 0
15, 899072, Note_on_c, 14, 57, 75
15, 899686, Note_on_c, 14, 57, 0
15, 900096, Note_on_c, 14, 61, 76
15, 900710, Note_on_c, 14, 61, 0
15, 901120, Note_on_c, 14, 57, 77
15, 901734, Note_on_c, 14, 57, 0
15, 902144, Note_on_c, 14, 62, 78
15, 903168, Note_on_c, 14, 62, 0
15, 903168, Note_on_c, 14, 50, 79
15, 903680, Note_on_c, 14, 50, 0
15, 903680, Note_on_c, 14, 54, 79
15, 904192, Note_on_c, 14, 54, 0
15, 904192, Note_on_c, 14, 57, 80
15, 905216, Note_on_c, 14, 57, 0
15, 905216, Note_on_c, 14, 54, 81
15, 905728, Note_on_c, 14, 54, 0
15, 905728, Note_on_c, 14, 57, 82
15, 906240, Note_on_c, 14, 57, 0
15, 906240, Note_on_c, 14, 60, 82
15, 907264, Note_on_c, 14, 60, 0
15, 907264, Note_on_c, 14, 59, 83
15, 907776, Note_on_c, 14, 59, 0
15, 907776, Note_on_c, 14, 60, 84
15, 908288, Note_on_c, 14, 60, 0
15, 908288, Note_on_c, 14, 62, 84
15, 908800, Note_on_c, 14, 62, 0
15, 908800, Note_on_c, 14, 60, 85
15, 909312, Note_on_c, 14, 60, 0
15, 909312, Note_on_c, 14, 59, 85
15, 909824, Note_on_c, 14, 59, 0
15, 909824, Note_on_c, 14, 57, 86
15, 910336, Note_on_c, 14, 57, 0
15, 910336, Note_on_c, 14, 55, 86
15, 910848, Note_on_c, 14, 55, 0
15, 910848, Note_on_c, 14, 57, 87
15, 911360, Note_on_c, 14, 57, 0
15, 911360, Note_on_c, 14, 59, 87
15, 911872, Note_on_c, 14, 59, 0
15, 911872, Note_on_c, 14, 57, 88
15, 912384, Note_on_c, 14, 57, 0
15, 912384, Note_on_c, 14, 55, 89
15, 912896, Note_on_c, 14, 55, 0
15, 912896, Note_on_c, 14, 54, 89
15, 913408, Note_on_c, 14, 54, 0
15, 913408, Note_on_c, 14, 52, 90
15, 913920, Note_on_c, 14, 52, 0
15, 913920, Note_on_c, 14, 50, 90
15, 914432, Note_on_c, 14, 50, 0
15, 914432, Note_on_c, 14, 49, 91
15, 917504, Note_on_c, 14, 49, 0
15, 917504, Note_on_c, 14, 50, 94
15, 918016, Note_on_c, 14, 50, 0
15, 918016, Note_on_c, 14, 52, 95
15, 918528, Note_on_c, 14, 52, 0
15, 918528, Note_on_c, 14, 54, 95
15, 919040, Note_on_c, 14, 54, 0
15, 919040, Note_on_c, 14, 55, 96
15, 919552, Note_on_c, 14, 55, 0
15, 919552, Note_on_c, 14, 57, 96
15, 920064, Note_on_c, 14, 57, 0
15, 920064, Note_on_c, 14, 55, 97
15, 920576, Note_on_c, 14, 55, 0
15, 920576, Note_on_c, 14, 54, 97
15, 921088, Note_on_c, 14, 54, 0
15, 921088, Note_on_c, 14, 52, 98
15, 921600, Note_on_c, 14, 52, 0
15, 921600, Note_on_c, 14, 50, 98
15, 922112, Note_on_c, 14, 50, 0
15, 922112, Note_on_c, 14, 49, 99
15, 922624, Note_on_c, 14, 49, 0
15, 922624, Note_on_c, 14, 47, 99
15, 923238, Note_on_c, 14, 47, 0
15, 923648, Note_on_c, 14, 59, 100
15, 924262, Note_on_c, 14, 59, 0
15, 924672, Note_on_c, 14, 59, 102
15, 925184, Note_on_c, 14, 59, 0
15, 925184, Note_on_c, 14, 57, 102
15, 925696, Note_on_c, 14, 57, 0
15, 925696, Note_on_c, 14, 55, 103
15, 926208, Note_on_c, 14, 55, 0
15, 926208, Note_on_c, 14, 54, 103
15, 926720, Note_on_c, 14, 54, 0
15, 926720, Note_on_c, 14, 52, 103
15, 927744, Note_on_c, 14, 52, 0
15, 927744, Note_on_c, 14, 59, 103
15, 928256, Note_on_c, 14, 59, 0
15, 928256, Note_on_c, 14, 55, 103
15, 928768, Note_on_c, 14, 55, 0
15, 928768, Note_on_c, 14, 52, 103
15, 929792, Note_on_c, 14, 52, 0
15, 929792, Note_on_c, 14, 55, 103
15, 930304, Note_on_c, 14, 55, 0
15, 930304, Note_on_c, 14, 52, 103
15, 930816, Note_on_c, 14, 52, 0
15, 930816, Note_on_c, 14, 49, 103
15, 931840, Note_on_c, 14, 49, 0
15, 931840, Note_on_c, 14, 55, 103
15, 932352, Note_on_c, 14, 55, 0
15, 932352, Note_on_c, 14, 52, 103
15, 932864, Note_on_c, 14, 52, 0
15, 932864, Note_on_c, 14, 49, 103
15, 933888, Note_on_c, 14, 49, 0
15, 933888, Note_on_c, 14, 52, 103
15, 934400, Note_on_c, 14, 52, 0
15, 934400, Note_on_c, 14, 49, 103
15, 934912, Note_on_c, 14, 49, 0
15, 934912, Note_on_c, 14, 45, 103
15, 936448, Note_on_c, 14, 45, 0
15, 936448, Note_on_c, 14, 49, 103
15, 936960, Note_on_c, 14, 49, 0
15, 936960, Note_on_c, 14, 52, 103
15, 937984, Note_on_c, 14, 52, 0
15, 937984, Note_on_c, 14, 49, 103
15, 938496, Note_on_c, 14, 49, 0
15, 938496, Note_on_c, 14, 52, 103
15, 939008, Note_on_c, 14, 52, 0
15, 939008, Note_on_c, 14, 57, 103
15, 940032, Note_on_c, 14, 57, 0
15, 940032, Note_on_c, 14, 52, 103
15, 940544, Note_on_c, 14, 52, 0
15, 940544, Note_on_c, 14, 57, 103
15, 941056, Note_on_c, 14, 57, 0
15, 941056, Note_on_c, 14, 61, 103
15, 941670, Note_on_c, 14, 61, 0
15, 942080, Note_on_c, 14, 57, 103
15, 942592, Note_on_c, 14, 57, 0
15, 942592, Note_on_c, 14, 61, 103
15, 943104, Note_on_c, 14, 61, 0
15, 943104, Note_on_c, 14, 62, 103
15, 945152, Note_on_c, 14, 62, 0
15, 946176, Note_on_c, 14, 59, 104
15, 946790, Note_on_c, 14, 59, 0
15, 947200, Note_on_c, 14, 54, 105
15, 947814, Note_on_c, 14, 54, 0
15, 948224, Note_on_c, 14, 59, 106
15, 948838, Note_on_c, 14, 59, 0
15, 949248, Note_on_c, 14, 55, 107
15, 949862, Note_on_c, 14, 55, 0
15, 950272, Note_on_c, 14, 57, 107
15, 950784, Note_on_c, 14, 57, 0
15, 950784, Note_on_c, 14, 57, 108
15, 951296, Note_on_c, 14, 57, 0
15, 951296, Note_on_c, 14, 50, 108
15, 951910, Note_on_c, 14, 50, 0
15, 952320, Note_on_c, 14, 50, 92
15, 952934, Note_on_c, 14, 50, 0
15, 986112, Note_on_c, 14, 52, 95
15, 986624, Note_on_c, 14, 52, 0
15, 986624, Note_on_c, 14, 54, 95
15, 987136, Note_on_c, 14, 54, 0
15, 987136, Note_on_c, 14, 50, 96
15, 987648, Note_on_c, 14, 50, 0
15, 987648, Note_on_c, 14, 52, 97
15, 988160, Note_on_c, 14, 52, 0
15, 988160, Note_on_c, 14, 54, 97
15, 988672, Note_on_c, 14, 54, 0
15, 988672, Note_on_c, 14, 55, 98
15, 989184, Note_on_c, 14, 55, 0
15, 989184, Note_on_c, 14, 52, 99
15, 989696, Note_on_c, 14, 52, 0
15, 989696, Note_on_c, 14, 54, 99
15, 990208, Note_on_c, 14, 54, 0
15, 990208, Note_on_c, 14, 55, 100
15, 990720, Note_on_c, 14, 55, 0
15, 990720, Note_on_c, 14, 57, 101
15, 991232, Note_on_c, 14, 57, 0
15, 991232, Note_on_c, 14, 54, 101
15, 991744, Note_on_c, 14, 54, 0
15, 991744, Note_on_c, 14, 55, 102
15, 992256, Note_on_c, 14, 55, 0
15, 992256, Note_on_c, 14, 57, 103
15, 992870, Note_on_c, 14, 57, 0
15, 993280, Note_on_c, 14, 45, 104
15, 993894, Note_on_c, 14, 45, 0
15, 995328, Note_on_c, 14, 57, 106
15, 995840, Note_on_c, 14, 57, 0
15, 995840, Note_on_c, 14, 55, 106
15, 996352, Note_on_c, 14, 55, 0
15, 996352, Note_on_c, 14, 54, 106
15, 997376, Note_on_c, 14, 54, 0
15, 997376, Note_on_c, 14, 55, 106
15, 997888, Note_on_c, 14, 55, 0
15, 997888, Note_on_c, 14, 54, 106
15, 998400, Note_on_c, 14, 54, 0
15, 998400, Note_on_c, 14, 52, 106
15, 999014, Note_on_c, 14, 52, 0
15, 999424, Note_on_c, 14, 54, 106
15, 999936, Note_on_c, 14, 54, 0
15, 999936, Note_on_c, 14, 52, 106
15, 1000448, Note_on_c, 14, 52, 0
15, 1000448, Note_on_c, 14, 50, 106
15, 1000960, Note_on_c, 14, 50, 0
15, 1000960, Note_on_c, 14, 49, 106
15, 1001472, Note_on_c, 14, 49, 0
15, 1001472, Note_on_c, 14, 50, 106
15, 1001984, Note_on_c, 14, 50, 0
15, 1001984, Note_on_c, 14, 52, 100
15, 1002496, Note_on_c, 14, 52, 0
15, 1002496, Note_on_c, 14, 54, 101
15, 1003008, Note_on_c, 14, 54, 0
15, 1003008, Note_on_c, 14, 55, 101
15, 1003520, Note_on_c, 14, 55, 0
15, 1003520, Note_on_c, 14, 52, 102
15, 1004032, Note_on_c, 14, 52, 0
15, 1004032, Note_on_c, 14, 54, 102
15, 1004544, Note_on_c, 14, 54, 0
15, 1004544, Note_on_c, 14, 55, 103
15, 1005056, Note_on_c, 14, 55, 0
15, 1005056, Note_on_c, 14, 57, 104
15, 1005568, Note_on_c, 14, 57, 0
15, 1005568, Note_on_c, 14, 54, 104
15, 1006080, Note_on_c, 14, 54, 0
15, 1006080, Note_on_c, 14, 55, 105
15, 1006592, Note_on_c, 14, 55, 0
15, 1006592, Note_on_c, 14, 57, 105
15, 1007104, Note_on_c, 14, 57, 0
15, 1007104, Note_on_c, 14, 59, 106
15, 1007616, Note_on_c, 14, 59, 0
15, 1007616, Note_on_c, 14, 55, 107
15, 1008128, Note_on_c, 14, 55, 0
15, 1008128, Note_on_c, 14, 57, 107
15, 1008640, Note_on_c, 14, 57, 0
15, 1008640, Note_on_c, 14, 59, 108
15, 1009152, Note_on_c, 14, 59, 0
15, 1009152, Note_on_c, 14, 61, 108
15, 1009664, Note_on_c, 14, 61, 0
15, 1009664, Note_on_c, 14, 57, 109
15, 1010176, Note_on_c, 14, 57, 0
15, 1010176, Note_on_c, 14, 59, 110
15, 1010688, Note_on_c, 14, 59, 0
15, 1010688, Note_on_c, 14, 61, 110
15, 1011200, Note_on_c, 14, 61, 0
15, 1011200, Note_on_c, 14, 62, 111
15, 1011712, Note_on_c, 14, 62, 0
15, 1011712, Note_on_c, 14, 59, 111
15, 1012224, Note_on_c, 14, 59, 0
15, 1012224, Note_on_c, 14, 61, 112
15, 1012736, Note_on_c, 14, 61, 0
15, 1012736, Note_on_c, 14, 62, 113
15, 1013350, Note_on_c, 14, 62, 0
15, 1013760, Note_on_c, 14, 59, 114
15, 1014374, Note_on_c, 14, 59, 0
15, 1014784, Note_on_c, 14, 55, 115
15, 1015808, Note_on_c, 14, 55, 0
15, 1015808, Note_on_c, 14, 57, 116
15, 1016422, Note_on_c, 14, 57, 0
15, 1016832, Note_on_c, 14, 50, 117
15, 1017446, Note_on_c, 14, 50, 0
15, 1017856, Note_on_c, 14, 62, 119
15, 1018368, Note_on_c, 14, 62, 0
15, 1018368, Note_on_c, 14, 61, 119
15, 1018880, Note_on_c, 14, 61, 0
15, 1018880, Note_on_c, 14, 59, 120
15, 1019392, Note_on_c, 14, 59, 0
15, 1019392, Note_on_c, 14, 57, 120
15, 1019904, Note_on_c, 14, 57, 0
15, 1019904, Note_on_c, 14, 59, 121
15, 1020518, Note_on_c, 14, 59, 0
15, 1020928, Note_on_c, 14, 54, 120
15, 1021542, Note_on_c, 14, 54, 0
15, 1021952, Note_on_c, 14, 55, 120
15, 1022464, Note_on_c, 14, 55, 0
15, 1022464, Note_on_c, 14, 55, 120
15, 1022976, Note_on_c, 14, 55, 0
15, 1022976, Note_on_c, 14, 57, 120
15, 1025024, Note_on_c, 14, 57, 0
15, 1025024, Note_on_c, 14, 50, 120
15, 1025638, Note_on_c, 14, 50, 0
15, 1033216, End_track
16, 0, Start_track
16, 0, Title_t, "Organ"
16, 0, Program_c, 15, 20
16, 0, Control_c, 15, 121, 127
16, 0, Control_c, 15, 10, 90
16, 1024, Note_on_c, 15, 54, 64
16, 1638, Note_on_c, 15, 54, 0
16, 2048, Note_on_c, 15, 56, 64
16, 2662, Note_on_c, 15, 56, 0
16, 3072, Note_on_c, 15, 57, 64
16, 3686, Note_on_c, 15, 57, 0
16, 4096, Note_on_c, 15, 54, 64
16, 4710, Note_on_c, 15, 54, 0
16, 5120, Note_on_c, 15, 59, 64
16, 5734, Note_on_c, 15, 59, 0
16, 6144, Note_on_c, 15, 54, 64
16, 6758, Note_on_c, 15, 54, 0
16, 7168, Note_on_c, 15, 50, 64
16, 7782, Note_on_c, 15, 50, 0
16, 8192, Note_on_c, 15, 47, 64
16, 8806, Note_on_c, 15, 47, 0
16, 9216, Note_on_c, 15, 54, 64
16, 9830, Note_on_c, 15, 54, 0
16, 10240, Note_on_c, 15, 52, 64
16, 10854, Note_on_c, 15, 52, 0
16, 11264, Note_on_c, 15, 50, 64
16, 11878, Note_on_c, 15, 50, 0
16, 12288, Note_on_c, 15, 49, 64
16, 12902, Note_on_c, 15, 49, 0
16, 13312, Note_on_c, 15, 47, 64
16, 13926, Note_on_c, 15, 47, 0
16, 14336, Note_on_c, 15, 45, 64
16, 14848, Note_on_c, 15, 45, 0
16, 14848, Note_on_c, 15, 47, 64
16, 15360, Note_on_c, 15, 47, 0
16, 15360, Note_on_c, 15, 49, 64
16, 15974, Note_on_c, 15, 49, 0
16, 16384, Note_on_c, 15, 61, 64
16, 16998, Note_on_c, 15, 61, 0
16, 17408, Note_on_c, 15, 62, 64
16, 18022, Note_on_c, 15, 62, 0
16, 18432, Note_on_c, 15, 50, 64
16, 18944, Note_on_c, 15, 50, 0
16, 18944, Note_on_c, 15, 49, 64
16, 19456, Note_on_c, 15, 49, 0
16, 19456, Note_on_c, 15, 50, 64
16, 20070, Note_on_c, 15, 50, 0
16, 20480, Note_on_c, 15, 47, 64
16, 21094, Note_on_c, 15, 47, 0
16, 21504, Note_on_c, 15, 54, 64
16, 22118, Note_on_c, 15, 54, 0
16, 22528, Note_on_c, 15, 53, 64
16, 23142, Note_on_c, 15, 53, 0
16, 23552, Note_on_c, 15, 54, 64
16, 24166, Note_on_c, 15, 54, 0
16, 24576, Note_on_c, 15, 57, 64
16, 25190, Note_on_c, 15, 57, 0
16, 25600, Note_on_c, 15, 56, 64
16, 26214, Note_on_c, 15, 56, 0
16, 26624, Note_on_c, 15, 54, 64
16, 27238, Note_on_c, 15, 54, 0
16, 27648, Note_on_c, 15, 56, 64
16, 28262, Note_on_c, 15, 56, 0
16, 28672, Note_on_c, 15, 49, 64
16, 29286, Note_on_c, 15, 49, 0
16, 29696, Note_on_c, 15, 50, 64
16, 30310, Note_on_c, 15, 50, 0
16, 30720, Note_on_c, 15, 49, 64
16, 31334, Note_on_c, 15, 49, 0
16, 31744, Note_on_c, 15, 50, 64
16, 32358, Note_on_c, 15, 50, 0
16, 32768, Note_on_c, 15, 38, 64
16, 33382, Note_on_c, 15, 38, 0
16, 33792, Note_on_c, 15, 37, 64
16, 34406, Note_on_c, 15, 37, 0
16, 34816, Note_on_c, 15, 42, 64
16, 35430, Note_on_c, 15, 42, 0
16, 35840, Note_on_c, 15, 54, 64
16, 36352, Note_on_c, 15, 54, 0
16, 36352, Note_on_c, 15, 53, 64
16, 36864, Note_on_c, 15, 53, 0
16, 36864, Note_on_c, 15, 54, 64
16, 38502, Note_on_c, 15, 54, 0
16, 38912, Note_on_c, 15, 54, 64
16, 39526, Note_on_c, 15, 54, 0
16, 39936, Note_on_c, 15, 53, 64
16, 40550, Note_on_c, 15, 53, 0
16, 40960, Note_on_c, 15, 51, 64
16, 41472, Note_on_c, 15, 51, 0
16, 41472, Note_on_c, 15, 53, 64
16, 41984, Note_on_c, 15, 53, 0
16, 41984, Note_on_c, 15, 54, 64
16, 42598, Note_on_c, 15, 54, 0
16, 43008, Note_on_c, 15, 56, 64
16, 43622, Note_on_c, 15, 56, 0
16, 44032, Note_on_c, 15, 57, 64
16, 44646, Note_on_c, 15, 57, 0
16, 45056, Note_on_c, 15, 54, 64
16, 45670, Note_on_c, 15, 54, 0
16, 46080, Note_on_c, 15, 59, 64
16, 46694, Note_on_c, 15, 59, 0
16, 47104, Note_on_c, 15, 47, 64
16, 47718, Note_on_c, 15, 47, 0
16, 48128, Note_on_c, 15, 59, 64
16, 48640, Note_on_c, 15, 59, 0
16, 48640, Note_on_c, 15, 57, 64
16, 49152, Note_on_c, 15, 57, 0
16, 49152, Note_on_c, 15, 59, 64
16, 50790, Note_on_c, 15, 59, 0
16, 51200, Note_on_c, 15, 61, 63
16, 51712, Note_on_c, 15, 61, 0
16, 51712, Note_on_c, 15, 59, 64
16, 52224, Note_on_c, 15, 59, 0
16, 52224, Note_on_c, 15, 57, 65
16, 52838, Note_on_c, 15, 57, 0
16, 53248, Note_on_c, 15, 56, 67
16, 53862, Note_on_c, 15, 56, 0
16, 54272, Note_on_c, 15, 57, 69
16, 54886, Note_on_c, 15, 57, 0
16, 55296, Note_on_c, 15, 56, 71
16, 55910, Note_on_c, 15, 56, 0
16, 56320, Note_on_c, 15, 54, 73
16, 56934, Note_on_c, 15, 54, 0
16, 57344, Note_on_c, 15, 52, 75
16, 57958, Note_on_c, 15, 52, 0
16, 58368, Note_on_c, 15, 50, 77
16, 58982, Note_on_c, 15, 50, 0
16, 59392, Note_on_c, 15, 49, 79
16, 60006, Note_on_c, 15, 49, 0
16, 60416, Note_on_c, 15, 50, 81
16, 62464, Note_on_c, 15, 50, 0
16, 62464, Note_on_c, 15, 49, 85
16, 64512, Note_on_c, 15, 49, 0
16, 65536, Note_on_c, 15, 49, 43
16, 66150, Note_on_c, 15, 49, 0
16, 66560, Note_on_c, 15, 50, 43
16, 68608, Note_on_c, 15, 50, 0
16, 69632, Note_on_c, 15, 51, 43
16, 70246, Note_on_c, 15, 51, 0
16, 70656, Note_on_c, 15, 52, 44
16, 71270, Note_on_c, 15, 52, 0
16, 71680, Note_on_c, 15, 53, 44
16, 72294, Note_on_c, 15, 53, 0
16, 72704, Note_on_c, 15, 54, 44
16, 73318, Note_on_c, 15, 54, 0
16, 73728, Note_on_c, 15, 50, 44
16, 74342, Note_on_c, 15, 50, 0
16, 74752, Note_on_c, 15, 47, 44
16, 75366, Note_on_c, 15, 47, 0
16, 75776, Note_on_c, 15, 50, 44
16, 76390, Note_on_c, 15, 50, 0
16, 76800, Note_on_c, 15, 49, 45
16, 77414, Note_on_c, 15, 49, 0
16, 77824, Note_on_c, 15, 47, 45
16, 78438, Note_on_c, 15, 47, 0
16, 78848, Note_on_c, 15, 46, 45
16, 79462, Note_on_c, 15, 46, 0
16, 79872, Note_on_c, 15, 42, 45
16, 80486, Note_on_c, 15, 42, 0
16, 80896, Note_on_c, 15, 47, 45
16, 81510, Note_on_c, 15, 47, 0
16, 81920, Note_on_c, 15, 51, 46
16, 82534, Note_on_c, 15, 51, 0
16, 82944, Note_on_c, 15, 52, 46
16, 83558, Note_on_c, 15, 52, 0
16, 83968, Note_on_c, 15, 49, 46
16, 84582, Note_on_c, 15, 49, 0
16, 84992, Note_on_c, 15, 54, 46
16, 85606, Note_on_c, 15, 54, 0
16, 86016, Note_on_c, 15, 52, 46
16, 86630, Note_on_c, 15, 52, 0
16, 87040, Note_on_c, 15, 51, 47
16, 87654, Note_on_c, 15, 51, 0
16, 88064, Note_on_c, 15, 47, 47
16, 88678, Note_on_c, 15, 47, 0
16, 89088, Note_on_c, 15, 52, 47
16, 89702, Note_on_c, 15, 52, 0
16, 90112, Note_on_c, 15, 56, 47
16, 90726, Note_on_c, 15, 56, 0
16, 91136, Note_on_c, 15, 57, 47
16, 91750, Note_on_c, 15, 57, 0
16, 92160, Note_on_c, 15, 54, 48
16, 92774, Note_on_c, 15, 54, 0
16, 93184, Note_on_c, 15, 59, 50
16, 93798, Note_on_c, 15, 59, 0
16, 94208, Note_on_c, 15, 57, 52
16, 94822, Note_on_c, 15, 57, 0
16, 95232, Note_on_c, 15, 56, 54
16, 95846, Note_on_c, 15, 56, 0
16, 96256, Note_on_c, 15, 52, 56
16, 96870, Note_on_c, 15, 52, 0
16, 97280, Note_on_c, 15, 57, 58
16, 97894, Note_on_c, 15, 57, 0
16, 98304, Note_on_c, 15, 57, 60
16, 99942, Note_on_c, 15, 57, 0
16, 100352, Note_on_c, 15, 50, 64
16, 100966, Note_on_c, 15, 50, 0
16, 101376, Note_on_c, 15, 55, 66
16, 104038, Note_on_c, 15, 55, 0
16, 104448, Note_on_c, 15, 54, 61
16, 104960, Note_on_c, 15, 54, 0
16, 104960, Note_on_c, 15, 52, 61
16, 105472, Note_on_c, 15, 52, 0
16, 105472, Note_on_c, 15, 54, 61
16, 106086, Note_on_c, 15, 54, 0
16, 106496, Note_on_c, 15, 50, 61
16, 107110, Note_on_c, 15, 50, 0
16, 107520, Note_on_c, 15, 52, 61
16, 109568, Note_on_c, 15, 52, 0
16, 109568, Note_on_c, 15, 45, 61
16, 111616, Note_on_c, 15, 45, 0
16, 111616, Note_on_c, 15, 50, 62
16, 112230, Note_on_c, 15, 50, 0
16, 112640, Note_on_c, 15, 54, 64
16, 113254, Note_on_c, 15, 54, 0
16, 113664, Note_on_c, 15, 55, 65
16, 114278, Note_on_c, 15, 55, 0
16, 114688, Note_on_c, 15, 50, 67
16, 115302, Note_on_c, 15, 50, 0
16, 115712, Note_on_c, 15, 52, 69
16, 116326, Note_on_c, 15, 52, 0
16, 116736, Note_on_c, 15, 49, 70
16, 117350, Note_on_c, 15, 49, 0
16, 117760, Note_on_c, 15, 54, 72
16, 118374, Note_on_c, 15, 54, 0
16, 118784, Note_on_c, 15, 52, 73
16, 119398, Note_on_c, 15, 52, 0
16, 119808, Note_on_c, 15, 51, 75
16, 120422, Note_on_c, 15, 51, 0
16, 120832, Note_on_c, 15, 52, 76
16, 121344, Note_on_c, 15, 52, 0
16, 121344, Note_on_c, 15, 54, 77
16, 121856, Note_on_c, 15, 54, 0
16, 121856, Note_on_c, 15, 55, 78
16, 122470, Note_on_c, 15, 55, 0
16, 122880, Note_on_c, 15, 54, 79
16, 123494, Note_on_c, 15, 54, 0
16, 123904, Note_on_c, 15, 53, 81
16, 125952, Note_on_c, 15, 53, 0
16, 125952, Note_on_c, 15, 54, 84
16, 128000, Note_on_c, 15, 54, 0
16, 128000, Note_on_c, 15, 47, 87
16, 128614, Note_on_c, 15, 47, 0
16, 129024, Note_on_c, 15, 49, 64
16, 129638, Note_on_c, 15, 49, 0
16, 130048, Note_on_c, 15, 50, 64
16, 130662, Note_on_c, 15, 50, 0
16, 131072, Note_on_c, 15, 47, 64
16, 131686, Note_on_c, 15, 47, 0
16, 132096, Note_on_c, 15, 54, 64
16, 132710, Note_on_c, 15, 54, 0
16, 133120, Note_on_c, 15, 57, 64
16, 133734, Note_on_c, 15, 57, 0
16, 134144, Note_on_c, 15, 62, 64
16, 134758, Note_on_c, 15, 62, 0
16, 135168, Note_on_c, 15, 61, 64
16, 135782, Note_on_c, 15, 61, 0
16, 136192, Note_on_c, 15, 59, 64
16, 136806, Note_on_c, 15, 59, 0
16, 137216, Note_on_c, 15, 56, 64
16, 137830, Note_on_c, 15, 56, 0
16, 138240, Note_on_c, 15, 61, 64
16, 138854, Note_on_c, 15, 61, 0
16, 139264, Note_on_c, 15, 49, 64
16, 139878, Note_on_c, 15, 49, 0
16, 140288, Note_on_c, 15, 54, 64
16, 140902, Note_on_c, 15, 54, 0
16, 141312, Note_on_c, 15, 59, 64
16, 141926, Note_on_c, 15, 59, 0
16, 142336, Note_on_c, 15, 57, 64
16, 142950, Note_on_c, 15, 57, 0
16, 143360, Note_on_c, 15, 56, 64
16, 143974, Note_on_c, 15, 56, 0
16, 144384, Note_on_c, 15, 57, 64
16, 144896, Note_on_c, 15, 57, 0
16, 144896, Note_on_c, 15, 59, 64
16, 145408, Note_on_c, 15, 59, 0
16, 145408, Note_on_c, 15, 61, 64
16, 147456, Note_on_c, 15, 61, 0
16, 147456, Note_on_c, 15, 59, 64
16, 149094, Note_on_c, 15, 59, 0
16, 149504, Note_on_c, 15, 57, 64
16, 150016, Note_on_c, 15, 57, 0
16, 150016, Note_on_c, 15, 56, 64
16, 150528, Note_on_c, 15, 56, 0
16, 150528, Note_on_c, 15, 61, 64
16, 151142, Note_on_c, 15, 61, 0
16, 151552, Note_on_c, 15, 59, 64
16, 152166, Note_on_c, 15, 59, 0
16, 152576, Note_on_c, 15, 57, 64
16, 153190, Note_on_c, 15, 57, 0
16, 153600, Note_on_c, 15, 59, 64
16, 154112, Note_on_c, 15, 59, 0
16, 154112, Note_on_c, 15, 61, 64
16, 154624, Note_on_c, 15, 61, 0
16, 154624, Note_on_c, 15, 62, 64
16, 155238, Note_on_c, 15, 62, 0
16, 155648, Note_on_c, 15, 59, 64
16, 156262, Note_on_c, 15, 59, 0
16, 156672, Note_on_c, 15, 61, 64
16, 157286, Note_on_c, 15, 61, 0
16, 157696, Note_on_c, 15, 53, 64
16, 158310, Note_on_c, 15, 53, 0
16, 158720, Note_on_c, 15, 54, 64
16, 159334, Note_on_c, 15, 54, 0
16, 159744, Note_on_c, 15, 57, 64
16, 160358, Note_on_c, 15, 57, 0
16, 160768, Note_on_c, 15, 56, 64
16, 161382, Note_on_c, 15, 56, 0
16, 161792, Note_on_c, 15, 54, 64
16, 162406, Note_on_c, 15, 54, 0
16, 162816, Note_on_c, 15, 56, 64
16, 163430, Note_on_c, 15, 56, 0
16, 163840, Note_on_c, 15, 44, 64
16, 164454, Note_on_c, 15, 44, 0
16, 164864, Note_on_c, 15, 45, 64
16, 165478, Note_on_c, 15, 45, 0
16, 165888, Note_on_c, 15, 57, 64
16, 166400, Note_on_c, 15, 57, 0
16, 166400, Note_on_c, 15, 56, 64
16, 166912, Note_on_c, 15, 56, 0
16, 166912, Note_on_c, 15, 57, 64
16, 167526, Note_on_c, 15, 57, 0
16, 167936, Note_on_c, 15, 45, 64
16, 168550, Note_on_c, 15, 45, 0
16, 168960, Note_on_c, 15, 44, 64
16, 169574, Note_on_c, 15, 44, 0
16, 169984, Note_on_c, 15, 49, 64
16, 170496, Note_on_c, 15, 49, 0
16, 170496, Note_on_c, 15, 48, 64
16, 171008, Note_on_c, 15, 48, 0
16, 171008, Note_on_c, 15, 49, 64
16, 175104, Note_on_c, 15, 49, 0
16, 175104, Note_on_c, 15, 48, 64
16, 177152, Note_on_c, 15, 48, 0
16, 177152, Note_on_c, 15, 49, 64
16, 177766, Note_on_c, 15, 49, 0
16, 178176, Note_on_c, 15, 52, 64
16, 178688, Note_on_c, 15, 52, 0
16, 178688, Note_on_c, 15, 51, 64
16, 179200, Note_on_c, 15, 51, 0
16, 179200, Note_on_c, 15, 49, 64
16, 179814, Note_on_c, 15, 49, 0
16, 180224, Note_on_c, 15, 51, 64
16, 180838, Note_on_c, 15, 51, 0
16, 181248, Note_on_c, 15, 52, 64
16, 181862, Note_on_c, 15, 52, 0
16, 182272, Note_on_c, 15, 56, 64
16, 182886, Note_on_c, 15, 56, 0
16, 183296, Note_on_c, 15, 52, 64
16, 183910, Note_on_c, 15, 52, 0
16, 184320, Note_on_c, 15, 49, 64
16, 184934, Note_on_c, 15, 49, 0
16, 185344, Note_on_c, 15, 54, 64
16, 185958, Note_on_c, 15, 54, 0
16, 186368, Note_on_c, 15, 56, 64
16, 186880, Note_on_c, 15, 56, 0
16, 186880, Note_on_c, 15, 57, 64
16, 187392, Note_on_c, 15, 57, 0
16, 187392, Note_on_c, 15, 59, 64
16, 188006, Note_on_c, 15, 59, 0
16, 188416, Note_on_c, 15, 47, 64
16, 189030, Note_on_c, 15, 47, 0
16, 189440, Note_on_c, 15, 52, 64
16, 190054, Note_on_c, 15, 52, 0
16, 190464, Note_on_c, 15, 40, 64
16, 191078, Note_on_c, 15, 40, 0
16, 191488, Note_on_c, 15, 52, 64
16, 194150, Note_on_c, 15, 52, 0
16, 194560, Note_on_c, 15, 45, 64
16, 195174, Note_on_c, 15, 45, 0
16, 195584, Note_on_c, 15, 50, 64
16, 196198, Note_on_c, 15, 50, 0
16, 196608, Note_on_c, 15, 47, 64
16, 197222, Note_on_c, 15, 47, 0
16, 197632, Note_on_c, 15, 52, 64
16, 198246, Note_on_c, 15, 52, 0
16, 198656, Note_on_c, 15, 54, 64
16, 199168, Note_on_c, 15, 54, 0
16, 199168, Note_on_c, 15, 56, 64
16, 199680, Note_on_c, 15, 56, 0
16, 199680, Note_on_c, 15, 57, 64
16, 200294, Note_on_c, 15, 57, 0
16, 200704, Note_on_c, 15, 54, 64
16, 201318, Note_on_c, 15, 54, 0
16, 201728, Note_on_c, 15, 59, 64
16, 202342, Note_on_c, 15, 59, 0
16, 202752, Note_on_c, 15, 47, 64
16, 203366, Note_on_c, 15, 47, 0
16, 203776, Note_on_c, 15, 59, 64
16, 206438, Note_on_c, 15, 59, 0
16, 206848, Note_on_c, 15, 57, 64
16, 207360, Note_on_c, 15, 57, 0
16, 207360, Note_on_c, 15, 56, 64
16, 207872, Note_on_c, 15, 56, 0
16, 207872, Note_on_c, 15, 57, 64
16, 210534, Note_on_c, 15, 57, 0
16, 210944, Note_on_c, 15, 50, 62
16, 211558, Note_on_c, 15, 50, 0
16, 211968, Note_on_c, 15, 55, 64
16, 214630, Note_on_c, 15, 55, 0
16, 215040, Note_on_c, 15, 54, 70
16, 215552, Note_on_c, 15, 54, 0
16, 215552, Note_on_c, 15, 52, 71
16, 216064, Note_on_c, 15, 52, 0
16, 216064, Note_on_c, 15, 54, 72
16, 216678, Note_on_c, 15, 54, 0
16, 217088, Note_on_c, 15, 50, 74
16, 217702, Note_on_c, 15, 50, 0
16, 218112, Note_on_c, 15, 57, 76
16, 218726, Note_on_c, 15, 57, 0
16, 219136, Note_on_c, 15, 55, 78
16, 219750, Note_on_c, 15, 55, 0
16, 220160, Note_on_c, 15, 57, 80
16, 220774, Note_on_c, 15, 57, 0
16, 221184, Note_on_c, 15, 45, 79
16, 221798, Note_on_c, 15, 45, 0
16, 222208, Note_on_c, 15, 50, 81
16, 222822, Note_on_c, 15, 50, 0
16, 223232, Note_on_c, 15, 52, 52
16, 223846, Note_on_c, 15, 52, 0
16, 224256, Note_on_c, 15, 54, 50
16, 224870, Note_on_c, 15, 54, 0
16, 225280, Note_on_c, 15, 50, 48
16, 225894, Note_on_c, 15, 50, 0
16, 226304, Note_on_c, 15, 57, 46
16, 226918, Note_on_c, 15, 57, 0
16, 227328, Note_on_c, 15, 56, 46
16, 227942, Note_on_c, 15, 56, 0
16, 228352, Note_on_c, 15, 54, 46
16, 228966, Note_on_c, 15, 54, 0
16, 229376, Note_on_c, 15, 56, 46
16, 229888, Note_on_c, 15, 56, 0
16, 229888, Note_on_c, 15, 57, 46
16, 230400, Note_on_c, 15, 57, 0
16, 230400, Note_on_c, 15, 59, 46
16, 231014, Note_on_c, 15, 59, 0
16, 231424, Note_on_c, 15, 61, 46
16, 231936, Note_on_c, 15, 61, 0
16, 231936, Note_on_c, 15, 62, 46
16, 232448, Note_on_c, 15, 62, 0
16, 232448, Note_on_c, 15, 64, 46
16, 233062, Note_on_c, 15, 64, 0
16, 233472, Note_on_c, 15, 52, 46
16, 234086, Note_on_c, 15, 52, 0
16, 234496, Note_on_c, 15, 54, 46
16, 235110, Note_on_c, 15, 54, 0
16, 235520, Note_on_c, 15, 42, 46
16, 236032, Note_on_c, 15, 42, 0
16, 236032, Note_on_c, 15, 40, 46
16, 236544, Note_on_c, 15, 40, 0
16, 236544, Note_on_c, 15, 42, 46
16, 237158, Note_on_c, 15, 42, 0
16, 237568, Note_on_c, 15, 54, 46
16, 238182, Note_on_c, 15, 54, 0
16, 238592, Note_on_c, 15, 52, 46
16, 239206, Note_on_c, 15, 52, 0
16, 239616, Note_on_c, 15, 45, 46
16, 240230, Note_on_c, 15, 45, 0
16, 240640, Note_on_c, 15, 57, 46
16, 243302, Note_on_c, 15, 57, 0
16, 243712, Note_on_c, 15, 56, 46
16, 244224, Note_on_c, 15, 56, 0
16, 244224, Note_on_c, 15, 54, 46
16, 244736, Note_on_c, 15, 54, 0
16, 244736, Note_on_c, 15, 56, 46
16, 245350, Note_on_c, 15, 56, 0
16, 245760, Note_on_c, 15, 52, 46
16, 246374, Note_on_c, 15, 52, 0
16, 246784, Note_on_c, 15, 57, 46
16, 247398, Note_on_c, 15, 57, 0
16, 247808, Note_on_c, 15, 54, 46
16, 248422, Note_on_c, 15, 54, 0
16, 248832, Note_on_c, 15, 59, 46
16, 249446, Note_on_c, 15, 59, 0
16, 249856, Note_on_c, 15, 57, 46
16, 250470, Note_on_c, 15, 57, 0
16, 250880, Note_on_c, 15, 56, 46
16, 251494, Note_on_c, 15, 56, 0
16, 251904, Note_on_c, 15, 52, 46
16, 252518, Note_on_c, 15, 52, 0
16, 252928, Note_on_c, 15, 57, 46
16, 255590, Note_on_c, 15, 57, 0
16, 256000, Note_on_c, 15, 51, 46
16, 256614, Note_on_c, 15, 51, 0
16, 257024, Note_on_c, 15, 56, 46
16, 259686, Note_on_c, 15, 56, 0
16, 260096, Note_on_c, 15, 54, 46
16, 260608, Note_on_c, 15, 54, 0
16, 260608, Note_on_c, 15, 52, 46
16, 261120, Note_on_c, 15, 52, 0
16, 261120, Note_on_c, 15, 54, 46
16, 261734, Note_on_c, 15, 54, 0
16, 262144, Note_on_c, 15, 47, 46
16, 262758, Note_on_c, 15, 47, 0
16, 263168, Note_on_c, 15, 52, 47
16, 263782, Note_on_c, 15, 52, 0
16, 264192, Note_on_c, 15, 52, 49
16, 264806, Note_on_c, 15, 52, 0
16, 265216, Note_on_c, 15, 53, 50
16, 265830, Note_on_c, 15, 53, 0
16, 266240, Note_on_c, 15, 53, 52
16, 266854, Note_on_c, 15, 53, 0
16, 267264, Note_on_c, 15, 54, 54
16, 267878, Note_on_c, 15, 54, 0
16, 268288, Note_on_c, 15, 54, 56
16, 268902, Note_on_c, 15, 54, 0
16, 269312, Note_on_c, 15, 55, 57
16, 269926, Note_on_c, 15, 55, 0
16, 270336, Note_on_c, 15, 55, 59
16, 270950, Note_on_c, 15, 55, 0
16, 271360, Note_on_c, 15, 56, 61
16, 271974, Note_on_c, 15, 56, 0
16, 272384, Note_on_c, 15, 56, 62
16, 272998, Note_on_c, 15, 56, 0
16, 273408, Note_on_c, 15, 56, 64
16, 274022, Note_on_c, 15, 56, 0
16, 274432, Note_on_c, 15, 56, 66
16, 275046, Note_on_c, 15, 56, 0
16, 275456, Note_on_c, 15, 55, 68
16, 276070, Note_on_c, 15, 55, 0
16, 276480, Note_on_c, 15, 55, 69
16, 277094, Note_on_c, 15, 55, 0
16, 277504, Note_on_c, 15, 56, 71
16, 278118, Note_on_c, 15, 56, 0
16, 278528, Note_on_c, 15, 56, 73
16, 279142, Note_on_c, 15, 56, 0
16, 279552, Note_on_c, 15, 49, 50
16, 296550, Note_on_c, 15, 49, 0
16, 296960, Note_on_c, 15, 61, 48
16, 297574, Note_on_c, 15, 61, 0
16, 297984, Note_on_c, 15, 59, 48
16, 298598, Note_on_c, 15, 59, 0
16, 299008, Note_on_c, 15, 57, 48
16, 299622, Note_on_c, 15, 57, 0
16, 300032, Note_on_c, 15, 56, 48
16, 300646, Note_on_c, 15, 56, 0
16, 301056, Note_on_c, 15, 44, 48
16, 301670, Note_on_c, 15, 44, 0
16, 302080, Note_on_c, 15, 42, 48
16, 302694, Note_on_c, 15, 42, 0
16, 303104, Note_on_c, 15, 40, 48
16, 303718, Note_on_c, 15, 40, 0
16, 304128, Note_on_c, 15, 47, 48
16, 304742, Note_on_c, 15, 47, 0
16, 305152, Note_on_c, 15, 59, 48
16, 305766, Note_on_c, 15, 59, 0
16, 306176, Note_on_c, 15, 58, 48
16, 306790, Note_on_c, 15, 58, 0
16, 307200, Note_on_c, 15, 56, 48
16, 307814, Note_on_c, 15, 56, 0
16, 308224, Note_on_c, 15, 58, 48
16, 308838, Note_on_c, 15, 58, 0
16, 309248, Note_on_c, 15, 54, 48
16, 309862, Note_on_c, 15, 54, 0
16, 310272, Note_on_c, 15, 56, 48
16, 310886, Note_on_c, 15, 56, 0
16, 311296, Note_on_c, 15, 58, 48
16, 311910, Note_on_c, 15, 58, 0
16, 312320, Note_on_c, 15, 59, 48
16, 312934, Note_on_c, 15, 59, 0
16, 313344, Note_on_c, 15, 47, 48
16, 313856, Note_on_c, 15, 47, 0
16, 313856, Note_on_c, 15, 46, 48
16, 314368, Note_on_c, 15, 46, 0
16, 314368, Note_on_c, 15, 47, 48
16, 314982, Note_on_c, 15, 47, 0
16, 315392, Note_on_c, 15, 49, 48
16, 316006, Note_on_c, 15, 49, 0
16, 316416, Note_on_c, 15, 50, 48
16, 317030, Note_on_c, 15, 50, 0
16, 317440, Note_on_c, 15, 49, 48
16, 318054, Note_on_c, 15, 49, 0
16, 318464, Note_on_c, 15, 50, 48
16, 319078, Note_on_c, 15, 50, 0
16, 319488, Note_on_c, 15, 52, 48
16, 320102, Note_on_c, 15, 52, 0
16, 320512, Note_on_c, 15, 54, 48
16, 321126, Note_on_c, 15, 54, 0
16, 321536, Note_on_c, 15, 42, 48
16, 322048, Note_on_c, 15, 42, 0
16, 322048, Note_on_c, 15, 41, 48
16, 322560, Note_on_c, 15, 41, 0
16, 322560, Note_on_c, 15, 42, 48
16, 323174, Note_on_c, 15, 42, 0
16, 323584, Note_on_c, 15, 44, 48
16, 324198, Note_on_c, 15, 44, 0
16, 324608, Note_on_c, 15, 45, 48
16, 325222, Note_on_c, 15, 45, 0
16, 325632, Note_on_c, 15, 44, 48
16, 326246, Note_on_c, 15, 44, 0
16, 326656, Note_on_c, 15, 45, 48
16, 327270, Note_on_c, 15, 45, 0
16, 327680, Note_on_c, 15, 47, 48
16, 328294, Note_on_c, 15, 47, 0
16, 328704, Note_on_c, 15, 49, 48
16, 329318, Note_on_c, 15, 49, 0
16, 329728, Note_on_c, 15, 47, 49
16, 330342, Note_on_c, 15, 47, 0
16, 330752, Note_on_c, 15, 49, 50
16, 331366, Note_on_c, 15, 49, 0
16, 331776, Note_on_c, 15, 51, 51
16, 332390, Note_on_c, 15, 51, 0
16, 332800, Note_on_c, 15, 52, 52
16, 333414, Note_on_c, 15, 52, 0
16, 333824, Note_on_c, 15, 49, 53
16, 334438, Note_on_c, 15, 49, 0
16, 334848, Note_on_c, 15, 46, 54
16, 335462, Note_on_c, 15, 46, 0
16, 335872, Note_on_c, 15, 54, 55
16, 336486, Note_on_c, 15, 54, 0
16, 336896, Note_on_c, 15, 59, 56
16, 337510, Note_on_c, 15, 59, 0
16, 337920, Note_on_c, 15, 47, 58
16, 339968, Note_on_c, 15, 47, 0
16, 339968, Note_on_c, 15, 46, 60
16, 340480, Note_on_c, 15, 46, 0
16, 340480, Note_on_c, 15, 44, 60
16, 340992, Note_on_c, 15, 44, 0
16, 340992, Note_on_c, 15, 46, 61
16, 341606, Note_on_c, 15, 46, 0
16, 342016, Note_on_c, 15, 54, 62
16, 344064, Note_on_c, 15, 54, 0
16, 344064, Note_on_c, 15, 53, 64
16, 344576, Note_on_c, 15, 53, 0
16, 344576, Note_on_c, 15, 51, 65
16, 345088, Note_on_c, 15, 51, 0
16, 345088, Note_on_c, 15, 53, 65
16, 345702, Note_on_c, 15, 53, 0
16, 346112, Note_on_c, 15, 49, 66
16, 346726, Note_on_c, 15, 49, 0
16, 347136, Note_on_c, 15, 54, 67
16, 347750, Note_on_c, 15, 54, 0
16, 348160, Note_on_c, 15, 52, 68
16, 348774, Note_on_c, 15, 52, 0
16, 349184, Note_on_c, 15, 51, 69
16, 349798, Note_on_c, 15, 51, 0
16, 350208, Note_on_c, 15, 47, 71
16, 350822, Note_on_c, 15, 47, 0
16, 351232, Note_on_c, 15, 52, 72
16, 353894, Note_on_c, 15, 52, 0
16, 354304, Note_on_c, 15, 51, 75
16, 354816, Note_on_c, 15, 51, 0
16, 354816, Note_on_c, 15, 49, 75
16, 355328, Note_on_c, 15, 49, 0
16, 355328, Note_on_c, 15, 51, 76
16, 355942, Note_on_c, 15, 51, 0
16, 356352, Note_on_c, 15, 44, 77
16, 356966, Note_on_c, 15, 44, 0
16, 357376, Note_on_c, 15, 49, 78
16, 357990, Note_on_c, 15, 49, 0
16, 358400, Note_on_c, 15, 56, 43
16, 359014, Note_on_c, 15, 56, 0
16, 359424, Note_on_c, 15, 61, 43
16, 362086, Note_on_c, 15, 61, 0
16, 362496, Note_on_c, 15, 54, 43
16, 363110, Note_on_c, 15, 54, 0
16, 363520, Note_on_c, 15, 59, 43
16, 366182, Note_on_c, 15, 59, 0
16, 366592, Note_on_c, 15, 57, 43
16, 367104, Note_on_c, 15, 57, 0
16, 367104, Note_on_c, 15, 56, 43
16, 367616, Note_on_c, 15, 56, 0
16, 367616, Note_on_c, 15, 57, 43
16, 368230, Note_on_c, 15, 57, 0
16, 368640, Note_on_c, 15, 54, 43
16, 369254, Note_on_c, 15, 54, 0
16, 369664, Note_on_c, 15, 56, 43
16, 371712, Note_on_c, 15, 56, 0
16, 371712, Note_on_c, 15, 49, 43
16, 373760, Note_on_c, 15, 49, 0
16, 373760, Note_on_c, 15, 54, 43
16, 374374, Note_on_c, 15, 54, 0
16, 374784, Note_on_c, 15, 56, 43
16, 375398, Note_on_c, 15, 56, 0
16, 375808, Note_on_c, 15, 57, 43
16, 376422, Note_on_c, 15, 57, 0
16, 376832, Note_on_c, 15, 54, 43
16, 377446, Note_on_c, 15, 54, 0
16, 377856, Note_on_c, 15, 59, 43
16, 378470, Note_on_c, 15, 59, 0
16, 378880, Note_on_c, 15, 62, 43
16, 379392, Note_on_c, 15, 62, 0
16, 379392, Note_on_c, 15, 61, 43
16, 379904, Note_on_c, 15, 61, 0
16, 379904, Note_on_c, 15, 59, 43
16, 380518, Note_on_c, 15, 59, 0
16, 380928, Note_on_c, 15, 57, 43
16, 381542, Note_on_c, 15, 57, 0
16, 381952, Note_on_c, 15, 56, 43
16, 382566, Note_on_c, 15, 56, 0
16, 382976, Note_on_c, 15, 61, 43
16, 383488, Note_on_c, 15, 61, 0
16, 383488, Note_on_c, 15, 59, 43
16, 384000, Note_on_c, 15, 59, 0
16, 384000, Note_on_c, 15, 61, 43
16, 384614, Note_on_c, 15, 61, 0
16, 385024, Note_on_c, 15, 57, 43
16, 385638, Note_on_c, 15, 57, 0
16, 386048, Note_on_c, 15, 64, 43
16, 386662, Note_on_c, 15, 64, 0
16, 387072, Note_on_c, 15, 52, 43
16, 387584, Note_on_c, 15, 52, 0
16, 387584, Note_on_c, 15, 54, 43
16, 388096, Note_on_c, 15, 54, 0
16, 388096, Note_on_c, 15, 56, 43
16, 388710, Note_on_c, 15, 56, 0
16, 389120, Note_on_c, 15, 52, 43
16, 389734, Note_on_c, 15, 52, 0
16, 390144, Note_on_c, 15, 57, 43
16, 390758, Note_on_c, 15, 57, 0
16, 391168, Note_on_c, 15, 45, 43
16, 391680, Note_on_c, 15, 45, 0
16, 391680, Note_on_c, 15, 47, 43
16, 392192, Note_on_c, 15, 47, 0
16, 392192, Note_on_c, 15, 49, 43
16, 392806, Note_on_c, 15, 49, 0
16, 393216, Note_on_c, 15, 45, 43
16, 393830, Note_on_c, 15, 45, 0
16, 394240, Note_on_c, 15, 40, 43
16, 394854, Note_on_c, 15, 40, 0
16, 395264, Note_on_c, 15, 52, 43
16, 395776, Note_on_c, 15, 52, 0
16, 395776, Note_on_c, 15, 50, 43
16, 396288, Note_on_c, 15, 50, 0
16, 396288, Note_on_c, 15, 52, 43
16, 396902, Note_on_c, 15, 52, 0
16, 397312, Note_on_c, 15, 49, 43
16, 397926, Note_on_c, 15, 49, 0
16, 398336, Note_on_c, 15, 45, 43
16, 398950, Note_on_c, 15, 45, 0
16, 399360, Note_on_c, 15, 42, 43
16, 399974, Note_on_c, 15, 42, 0
16, 400384, Note_on_c, 15, 47, 43
16, 400998, Note_on_c, 15, 47, 0
16, 401408, Note_on_c, 15, 49, 43
16, 401920, Note_on_c, 15, 49, 0
16, 401920, Note_on_c, 15, 50, 43
16, 402432, Note_on_c, 15, 50, 0
16, 402432, Note_on_c, 15, 52, 43
16, 403046, Note_on_c, 15, 52, 0
16, 403456, Note_on_c, 15, 54, 43
16, 403968, Note_on_c, 15, 54, 0
16, 403968, Note_on_c, 15, 56, 43
16, 404480, Note_on_c, 15, 56, 0
16, 404480, Note_on_c, 15, 57, 43
16, 405094, Note_on_c, 15, 57, 0
16, 405504, Note_on_c, 15, 45, 43
16, 406118, Note_on_c, 15, 45, 0
16, 406528, Note_on_c, 15, 40, 43
16, 407142, Note_on_c, 15, 40, 0
16, 407552, Note_on_c, 15, 52, 43
16, 409600, Note_on_c, 15, 52, 0
16, 409600, Note_on_c, 15, 50, 43
16, 410214, Note_on_c, 15, 50, 0
16, 410624, Note_on_c, 15, 49, 43
16, 411238, Note_on_c, 15, 49, 0
16, 411648, Note_on_c, 15, 50, 43
16, 412262, Note_on_c, 15, 50, 0
16, 412672, Note_on_c, 15, 52, 43
16, 413286, Note_on_c, 15, 52, 0
16, 413696, Note_on_c, 15, 49, 43
16, 414310, Note_on_c, 15, 49, 0
16, 414720, Note_on_c, 15, 54, 43
16, 415334, Note_on_c, 15, 54, 0
16, 415744, Note_on_c, 15, 56, 43
16, 416358, Note_on_c, 15, 56, 0
16, 416768, Note_on_c, 15, 58, 43
16, 417382, Note_on_c, 15, 58, 0
16, 417792, Note_on_c, 15, 54, 43
16, 418406, Note_on_c, 15, 54, 0
16, 418816, Note_on_c, 15, 47, 43
16, 419430, Note_on_c, 15, 47, 0
16, 419840, Note_on_c, 15, 49, 43
16, 420454, Note_on_c, 15, 49, 0
16, 420864, Note_on_c, 15, 50, 43
16, 421478, Note_on_c, 15, 50, 0
16, 421888, Note_on_c, 15, 47, 43
16, 422502, Note_on_c, 15, 47, 0
16, 422912, Note_on_c, 15, 42, 43
16, 423526, Note_on_c, 15, 42, 0
16, 423936, Note_on_c, 15, 43, 43
16, 424550, Note_on_c, 15, 43, 0
16, 424960, Note_on_c, 15, 45, 43
16, 425574, Note_on_c, 15, 45, 0
16, 425984, Note_on_c, 15, 42, 43
16, 426598, Note_on_c, 15, 42, 0
16, 427008, Note_on_c, 15, 47, 43
16, 427622, Note_on_c, 15, 47, 0
16, 428032, Note_on_c, 15, 49, 43
16, 428544, Note_on_c, 15, 49, 0
16, 428544, Note_on_c, 15, 50, 44
16, 429056, Note_on_c, 15, 50, 0
16, 429056, Note_on_c, 15, 52, 44
16, 429670, Note_on_c, 15, 52, 0
16, 430080, Note_on_c, 15, 46, 45
16, 430694, Note_on_c, 15, 46, 0
16, 431104, Note_on_c, 15, 47, 45
16, 431718, Note_on_c, 15, 47, 0
16, 432128, Note_on_c, 15, 49, 46
16, 432742, Note_on_c, 15, 49, 0
16, 433152, Note_on_c, 15, 50, 47
16, 433766, Note_on_c, 15, 50, 0
16, 434176, Note_on_c, 15, 47, 48
16, 434790, Note_on_c, 15, 47, 0
16, 435200, Note_on_c, 15, 43, 48
16, 435814, Note_on_c, 15, 43, 0
16, 436224, Note_on_c, 15, 40, 49
16, 436838, Note_on_c, 15, 40, 0
16, 437248, Note_on_c, 15, 47, 50
16, 437862, Note_on_c, 15, 47, 0
16, 438272, Note_on_c, 15, 50, 50
16, 438886, Note_on_c, 15, 50, 0
16, 439296, Note_on_c, 15, 52, 51
16, 439910, Note_on_c, 15, 52, 0
16, 440320, Note_on_c, 15, 50, 52
16, 440934, Note_on_c, 15, 50, 0
16, 441344, Note_on_c, 15, 49, 53
16, 441958, Note_on_c, 15, 49, 0
16, 442368, Note_on_c, 15, 54, 53
16, 442982, Note_on_c, 15, 54, 0
16, 443392, Note_on_c, 15, 47, 54
16, 444006, Note_on_c, 15, 47, 0
16, 444416, Note_on_c, 15, 59, 55
16, 444928, Note_on_c, 15, 59, 0
16, 444928, Note_on_c, 15, 58, 55
16, 445440, Note_on_c, 15, 58, 0
16, 445440, Note_on_c, 15, 59, 56
16, 448102, Note_on_c, 15, 59, 0
16, 448512, Note_on_c, 15, 52, 58
16, 449126, Note_on_c, 15, 52, 0
16, 449536, Note_on_c, 15, 57, 59
16, 450048, Note_on_c, 15, 57, 0
16, 450048, Note_on_c, 15, 55, 59
16, 450560, Note_on_c, 15, 55, 0
16, 450560, Note_on_c, 15, 54, 59
16, 451072, Note_on_c, 15, 54, 0
16, 451072, Note_on_c, 15, 52, 60
16, 451584, Note_on_c, 15, 52, 0
16, 451584, Note_on_c, 15, 50, 60
16, 452198, Note_on_c, 15, 50, 0
16, 452608, Note_on_c, 15, 52, 61
16, 453222, Note_on_c, 15, 52, 0
16, 453632, Note_on_c, 15, 54, 62
16, 454246, Note_on_c, 15, 54, 0
16, 454656, Note_on_c, 15, 50, 62
16, 455270, Note_on_c, 15, 50, 0
16, 455680, Note_on_c, 15, 55, 63
16, 456294, Note_on_c, 15, 55, 0
16, 456704, Note_on_c, 15, 54, 64
16, 457318, Note_on_c, 15, 54, 0
16, 457728, Note_on_c, 15, 55, 64
16, 458342, Note_on_c, 15, 55, 0
16, 458752, Note_on_c, 15, 57, 65
16, 459264, Note_on_c, 15, 57, 0
16, 459264, Note_on_c, 15, 55, 66
16, 459776, Note_on_c, 15, 55, 0
16, 459776, Note_on_c, 15, 54, 66
16, 460390, Note_on_c, 15, 54, 0
16, 460800, Note_on_c, 15, 47, 67
16, 461414, Note_on_c, 15, 47, 0
16, 461824, Note_on_c, 15, 59, 67
16, 465920, Note_on_c, 15, 59, 0
16, 465920, Note_on_c, 15, 58, 67
16, 467968, Note_on_c, 15, 58, 0
16, 467968, Note_on_c, 15, 59, 66
16, 468582, Note_on_c, 15, 59, 0
16, 468992, Note_on_c, 15, 62, 66
16, 469504, Note_on_c, 15, 62, 0
16, 469504, Note_on_c, 15, 61, 66
16, 470016, Note_on_c, 15, 61, 0
16, 470016, Note_on_c, 15, 59, 66
16, 470630, Note_on_c, 15, 59, 0
16, 471040, Note_on_c, 15, 57, 66
16, 471654, Note_on_c, 15, 57, 0
16, 472064, Note_on_c, 15, 56, 66
16, 472678, Note_on_c, 15, 56, 0
16, 473088, Note_on_c, 15, 52, 66
16, 473702, Note_on_c, 15, 52, 0
16, 474112, Note_on_c, 15, 57, 65
16, 474726, Note_on_c, 15, 57, 0
16, 475136, Note_on_c, 15, 55, 65
16, 475750, Note_on_c, 15, 55, 0
16, 476160, Note_on_c, 15, 54, 65
16, 476774, Note_on_c, 15, 54, 0
16, 477184, Note_on_c, 15, 50, 65
16, 477798, Note_on_c, 15, 50, 0
16, 478208, Note_on_c, 15, 52, 65
16, 478822, Note_on_c, 15, 52, 0
16, 479232, Note_on_c, 15, 54, 65
16, 479846, Note_on_c, 15, 54, 0
16, 480256, Note_on_c, 15, 55, 62
16, 480870, Note_on_c, 15, 55, 0
16, 481280, Note_on_c, 15, 57, 58
16, 481894, Note_on_c, 15, 57, 0
16, 482304, Note_on_c, 15, 59, 54
16, 482918, Note_on_c, 15, 59, 0
16, 483328, Note_on_c, 15, 55, 49
16, 483942, Note_on_c, 15, 55, 0
16, 484352, Note_on_c, 15, 52, 43
16, 484966, Note_on_c, 15, 52, 0
16, 485376, Note_on_c, 15, 54, 42
16, 485990, Note_on_c, 15, 54, 0
16, 486400, Note_on_c, 15, 55, 42
16, 487014, Note_on_c, 15, 55, 0
16, 487424, Note_on_c, 15, 52, 41
16, 488038, Note_on_c, 15, 52, 0
16, 488448, Note_on_c, 15, 48, 40
16, 489062, Note_on_c, 15, 48, 0
16, 489472, Note_on_c, 15, 50, 39
16, 490086, Note_on_c, 15, 50, 0
16, 490496, Note_on_c, 15, 52, 38
16, 491110, Note_on_c, 15, 52, 0
16, 491520, Note_on_c, 15, 50, 38
16, 492134, Note_on_c, 15, 50, 0
16, 492544, Note_on_c, 15, 49, 37
16, 493158, Note_on_c, 15, 49, 0
16, 493568, Note_on_c, 15, 49, 39
16, 494182, Note_on_c, 15, 49, 0
16, 494592, Note_on_c, 15, 49, 39
16, 495206, Note_on_c, 15, 49, 0
16, 495616, Note_on_c, 15, 49, 39
16, 496230, Note_on_c, 15, 49, 0
16, 496640, Note_on_c, 15, 50, 39
16, 497254, Note_on_c, 15, 50, 0
16, 497664, Note_on_c, 15, 50, 39
16, 498278, Note_on_c, 15, 50, 0
16, 498688, Note_on_c, 15, 50, 39
16, 499302, Note_on_c, 15, 50, 0
16, 499712, Note_on_c, 15, 50, 39
16, 500326, Note_on_c, 15, 50, 0
16, 500736, Note_on_c, 15, 50, 39
16, 501350, Note_on_c, 15, 50, 0
16, 501760, Note_on_c, 15, 50, 39
16, 502374, Note_on_c, 15, 50, 0
16, 502784, Note_on_c, 15, 50, 39
16, 503398, Note_on_c, 15, 50, 0
16, 503808, Note_on_c, 15, 50, 39
16, 504422, Note_on_c, 15, 50, 0
16, 504832, Note_on_c, 15, 50, 40
16, 505446, Note_on_c, 15, 50, 0
16, 505856, Note_on_c, 15, 50, 48
16, 506470, Note_on_c, 15, 50, 0
16, 506880, Note_on_c, 15, 48, 56
16, 507494, Note_on_c, 15, 48, 0
16, 507904, Note_on_c, 15, 48, 64
16, 508518, Note_on_c, 15, 48, 0
16, 508928, Note_on_c, 15, 46, 72
16, 509542, Note_on_c, 15, 46, 0
16, 509952, Note_on_c, 15, 46, 62
16, 510566, Note_on_c, 15, 46, 0
16, 510976, Note_on_c, 15, 46, 62
16, 511590, Note_on_c, 15, 46, 0
16, 512000, Note_on_c, 15, 46, 61
16, 512614, Note_on_c, 15, 46, 0
16, 513024, Note_on_c, 15, 45, 60
16, 513638, Note_on_c, 15, 45, 0
16, 514048, Note_on_c, 15, 45, 60
16, 514662, Note_on_c, 15, 45, 0
16, 515072, Note_on_c, 15, 45, 59
16, 515686, Note_on_c, 15, 45, 0
16, 516096, Note_on_c, 15, 45, 58
16, 516710, Note_on_c, 15, 45, 0
16, 517120, Note_on_c, 15, 46, 57
16, 517734, Note_on_c, 15, 46, 0
16, 518144, Note_on_c, 15, 46, 57
16, 518758, Note_on_c, 15, 46, 0
16, 519168, Note_on_c, 15, 46, 57
16, 519782, Note_on_c, 15, 46, 0
16, 520192, Note_on_c, 15, 46, 56
16, 520806, Note_on_c, 15, 46, 0
16, 521216, Note_on_c, 15, 46, 56
16, 521830, Note_on_c, 15, 46, 0
16, 522240, Note_on_c, 15, 46, 55
16, 522854, Note_on_c, 15, 46, 0
16, 523264, Note_on_c, 15, 45, 55
16, 523878, Note_on_c, 15, 45, 0
16, 524288, Note_on_c, 15, 45, 54
16, 524902, Note_on_c, 15, 45, 0
16, 525312, Note_on_c, 15, 44, 54
16, 525926, Note_on_c, 15, 44, 0
16, 526336, Note_on_c, 15, 44, 53
16, 526950, Note_on_c, 15, 44, 0
16, 527360, Note_on_c, 15, 44, 53
16, 527974, Note_on_c, 15, 44, 0
16, 528384, Note_on_c, 15, 44, 53
16, 528998, Note_on_c, 15, 44, 0
16, 529408, Note_on_c, 15, 43, 52
16, 530022, Note_on_c, 15, 43, 0
16, 530432, Note_on_c, 15, 43, 52
16, 531046, Note_on_c, 15, 43, 0
16, 531456, Note_on_c, 15, 43, 51
16, 532070, Note_on_c, 15, 43, 0
16, 532480, Note_on_c, 15, 43, 51
16, 533094, Note_on_c, 15, 43, 0
16, 533504, Note_on_c, 15, 41, 50
16, 534118, Note_on_c, 15, 41, 0
16, 534528, Note_on_c, 15, 41, 50
16, 535142, Note_on_c, 15, 41, 0
16, 535552, Note_on_c, 15, 41, 49
16, 536166, Note_on_c, 15, 41, 0
16, 536576, Note_on_c, 15, 41, 49
16, 537190, Note_on_c, 15, 41, 0
16, 537600, Note_on_c, 15, 41, 49
16, 538214, Note_on_c, 15, 41, 0
16, 538624, Note_on_c, 15, 53, 48
16, 539238, Note_on_c, 15, 53, 0
16, 539648, Note_on_c, 15, 52, 48
16, 540262, Note_on_c, 15, 52, 0
16, 540672, Note_on_c, 15, 50, 47
16, 541286, Note_on_c, 15, 50, 0
16, 541696, Note_on_c, 15, 49, 47
16, 542310, Note_on_c, 15, 49, 0
16, 542720, Note_on_c, 15, 45, 46
16, 543334, Note_on_c, 15, 45, 0
16, 543744, Note_on_c, 15, 47, 46
16, 544358, Note_on_c, 15, 47, 0
16, 544768, Note_on_c, 15, 49, 45
16, 545382, Note_on_c, 15, 49, 0
16, 545792, Note_on_c, 15, 50, 45
16, 546406, Note_on_c, 15, 50, 0
16, 546816, Note_on_c, 15, 45, 45
16, 547430, Note_on_c, 15, 45, 0
16, 547840, Note_on_c, 15, 42, 44
16, 548454, Note_on_c, 15, 42, 0
16, 548864, Note_on_c, 15, 38, 44
16, 549478, Note_on_c, 15, 38, 0
16, 549888, Note_on_c, 15, 44, 43
16, 550502, Note_on_c, 15, 44, 0
16, 550912, Note_on_c, 15, 44, 43
16, 551526, Note_on_c, 15, 44, 0
16, 551936, Note_on_c, 15, 44, 42
16, 552550, Note_on_c, 15, 44, 0
16, 552960, Note_on_c, 15, 44, 42
16, 553574, Note_on_c, 15, 44, 0
16, 553984, Note_on_c, 15, 45, 41
16, 554598, Note_on_c, 15, 45, 0
16, 555008, Note_on_c, 15, 45, 41
16, 555622, Note_on_c, 15, 45, 0
16, 556032, Note_on_c, 15, 45, 41
16, 556646, Note_on_c, 15, 45, 0
16, 557056, Note_on_c, 15, 45, 40
16, 557670, Note_on_c, 15, 45, 0
16, 558080, Note_on_c, 15, 45, 40
16, 559923, Note_on_c, 15, 45, 0
16, 564224, Note_on_c, 15, 57, 43
16, 565248, Note_on_c, 15, 57, 0
16, 565248, Note_on_c, 15, 55, 43
16, 565862, Note_on_c, 15, 55, 0
16, 566272, Note_on_c, 15, 54, 43
16, 566886, Note_on_c, 15, 54, 0
16, 567296, Note_on_c, 15, 54, 43
16, 567910, Note_on_c, 15, 54, 0
16, 568320, Note_on_c, 15, 54, 43
16, 568934, Note_on_c, 15, 54, 0
16, 569344, Note_on_c, 15, 54, 43
16, 569958, Note_on_c, 15, 54, 0
16, 570368, Note_on_c, 15, 53, 43
16, 570982, Note_on_c, 15, 53, 0
16, 571392, Note_on_c, 15, 53, 43
16, 572006, Note_on_c, 15, 53, 0
16, 572416, Note_on_c, 15, 53, 43
16, 573030, Note_on_c, 15, 53, 0
16, 573440, Note_on_c, 15, 53, 43
16, 574054, Note_on_c, 15, 53, 0
16, 574464, Note_on_c, 15, 54, 43
16, 575078, Note_on_c, 15, 54, 0
16, 575488, Note_on_c, 15, 54, 43
16, 576102, Note_on_c, 15, 54, 0
16, 576512, Note_on_c, 15, 54, 43
16, 577126, Note_on_c, 15, 54, 0
16, 577536, Note_on_c, 15, 54, 43
16, 578150, Note_on_c, 15, 54, 0
16, 578560, Note_on_c, 15, 49, 43
16, 579174, Note_on_c, 15, 49, 0
16, 579584, Note_on_c, 15, 49, 43
16, 580198, Note_on_c, 15, 49, 0
16, 580608, Note_on_c, 15, 49, 43
16, 581222, Note_on_c, 15, 49, 0
16, 581632, Note_on_c, 15, 49, 43
16, 582246, Note_on_c, 15, 49, 0
16, 582656, Note_on_c, 15, 50, 46
16, 583270, Note_on_c, 15, 50, 0
16, 583680, Note_on_c, 15, 50, 49
16, 584294, Note_on_c, 15, 50, 0
16, 584704, Note_on_c, 15, 50, 52
16, 585318, Note_on_c, 15, 50, 0
16, 585728, Note_on_c, 15, 50, 54
16, 586342, Note_on_c, 15, 50, 0
16, 586752, Note_on_c, 15, 47, 55
16, 587366, Note_on_c, 15, 47, 0
16, 587776, Note_on_c, 15, 47, 55
16, 588390, Note_on_c, 15, 47, 0
16, 588800, Note_on_c, 15, 47, 55
16, 589414, Note_on_c, 15, 47, 0
16, 589824, Note_on_c, 15, 47, 55
16, 590438, Note_on_c, 15, 47, 0
16, 590848, Note_on_c, 15, 46, 56
16, 591462, Note_on_c, 15, 46, 0
16, 591872, Note_on_c, 15, 46, 51
16, 592486, Note_on_c, 15, 46, 0
16, 592896, Note_on_c, 15, 46, 46
16, 593510, Note_on_c, 15, 46, 0
16, 593920, Note_on_c, 15, 46, 41
16, 594534, Note_on_c, 15, 46, 0
16, 594944, Note_on_c, 15, 45, 35
16, 595558, Note_on_c, 15, 45, 0
16, 595968, Note_on_c, 15, 43, 35
16, 596582, Note_on_c, 15, 43, 0
16, 596992, Note_on_c, 15, 42, 36
16, 597606, Note_on_c, 15, 42, 0
16, 598016, Note_on_c, 15, 40, 50
16, 598630, Note_on_c, 15, 40, 0
16, 599040, Note_on_c, 15, 38, 76
16, 599654, Note_on_c, 15, 38, 0
16, 603136, Note_on_c, 15, 38, 81
16, 603750, Note_on_c, 15, 38, 0
16, 607232, Note_on_c, 15, 38, 87
16, 607846, Note_on_c, 15, 38, 0
16, 611328, Note_on_c, 15, 38, 93
16, 611942, Note_on_c, 15, 38, 0
16, 616448, Note_on_c, 15, 50, 98
16, 616960, Note_on_c, 15, 50, 0
16, 616960, Note_on_c, 15, 54, 98
16, 617472, Note_on_c, 15, 54, 0
16, 617472, Note_on_c, 15, 57, 98
16, 618086, Note_on_c, 15, 57, 0
16, 618496, Note_on_c, 15, 54, 98
16, 619008, Note_on_c, 15, 54, 0
16, 619008, Note_on_c, 15, 57, 98
16, 619520, Note_on_c, 15, 57, 0
16, 619520, Note_on_c, 15, 62, 98
16, 620134, Note_on_c, 15, 62, 0
16, 620544, Note_on_c, 15, 62, 98
16, 621158, Note_on_c, 15, 62, 0
16, 621568, Note_on_c, 15, 62, 98
16, 622182, Note_on_c, 15, 62, 0
16, 622592, Note_on_c, 15, 62, 98
16, 623206, Note_on_c, 15, 62, 0
16, 623616, Note_on_c, 15, 62, 98
16, 624230, Note_on_c, 15, 62, 0
16, 624640, Note_on_c, 15, 50, 98
16, 625152, Note_on_c, 15, 50, 0
16, 625152, Note_on_c, 15, 54, 98
16, 625664, Note_on_c, 15, 54, 0
16, 625664, Note_on_c, 15, 57, 98
16, 626278, Note_on_c, 15, 57, 0
16, 626688, Note_on_c, 15, 54, 98
16, 627200, Note_on_c, 15, 54, 0
16, 627200, Note_on_c, 15, 57, 98
16, 627712, Note_on_c, 15, 57, 0
16, 627712, Note_on_c, 15, 62, 98
16, 628326, Note_on_c, 15, 62, 0
16, 628736, Note_on_c, 15, 62, 98
16, 629350, Note_on_c, 15, 62, 0
16, 629760, Note_on_c, 15, 62, 98
16, 630374, Note_on_c, 15, 62, 0
16, 630784, Note_on_c, 15, 62, 98
16, 631398, Note_on_c, 15, 62, 0
16, 631808, Note_on_c, 15, 62, 98
16, 632422, Note_on_c, 15, 62, 0
16, 632832, Note_on_c, 15, 57, 98
16, 633446, Note_on_c, 15, 57, 0
16, 633856, Note_on_c, 15, 54, 98
16, 634470, Note_on_c, 15, 54, 0
16, 634880, Note_on_c, 15, 57, 98
16, 635494, Note_on_c, 15, 57, 0
16, 635904, Note_on_c, 15, 50, 98
16, 636518, Note_on_c, 15, 50, 0
16, 636928, Note_on_c, 15, 54, 98
16, 637440, Note_on_c, 15, 54, 0
16, 637440, Note_on_c, 15, 57, 98
16, 637952, Note_on_c, 15, 57, 0
16, 637952, Note_on_c, 15, 62, 98
16, 638566, Note_on_c, 15, 62, 0
16, 638976, Note_on_c, 15, 61, 98
16, 639488, Note_on_c, 15, 61, 0
16, 639488, Note_on_c, 15, 59, 98
16, 640000, Note_on_c, 15, 59, 0
16, 640000, Note_on_c, 15, 61, 98
16, 640614, Note_on_c, 15, 61, 0
16, 641024, Note_on_c, 15, 59, 98
16, 641536, Note_on_c, 15, 59, 0
16, 641536, Note_on_c, 15, 57, 98
16, 642048, Note_on_c, 15, 57, 0
16, 642048, Note_on_c, 15, 56, 98
16, 642662, Note_on_c, 15, 56, 0
16, 643072, Note_on_c, 15, 54, 98
16, 643584, Note_on_c, 15, 54, 0
16, 643584, Note_on_c, 15, 52, 98
16, 644096, Note_on_c, 15, 52, 0
16, 644096, Note_on_c, 15, 57, 98
16, 644710, Note_on_c, 15, 57, 0
16, 645120, Note_on_c, 15, 54, 98
16, 645734, Note_on_c, 15, 54, 0
16, 646144, Note_on_c, 15, 50, 98
16, 646758, Note_on_c, 15, 50, 0
16, 647168, Note_on_c, 15, 52, 98
16, 647782, Note_on_c, 15, 52, 0
16, 648192, Note_on_c, 15, 45, 98
16, 648806, Note_on_c, 15, 45, 0
16, 649216, Note_on_c, 15, 57, 98
16, 649728, Note_on_c, 15, 57, 0
16, 649728, Note_on_c, 15, 52, 98
16, 650240, Note_on_c, 15, 52, 0
16, 650240, Note_on_c, 15, 49, 98
16, 650854, Note_on_c, 15, 49, 0
16, 651264, Note_on_c, 15, 52, 98
16, 651776, Note_on_c, 15, 52, 0
16, 651776, Note_on_c, 15, 49, 98
16, 652288, Note_on_c, 15, 49, 0
16, 652288, Note_on_c, 15, 45, 95
16, 652902, Note_on_c, 15, 45, 0
16, 653312, Note_on_c, 15, 57, 93
16, 653926, Note_on_c, 15, 57, 0
16, 654336, Note_on_c, 15, 57, 91
16, 654950, Note_on_c, 15, 57, 0
16, 655360, Note_on_c, 15, 57, 88
16, 655974, Note_on_c, 15, 57, 0
16, 656384, Note_on_c, 15, 50, 86
16, 656998, Note_on_c, 15, 50, 0
16, 657408, Note_on_c, 15, 62, 77
16, 657920, Note_on_c, 15, 62, 0
16, 657920, Note_on_c, 15, 57, 79
16, 658432, Note_on_c, 15, 57, 0
16, 658432, Note_on_c, 15, 54, 80
16, 659046, Note_on_c, 15, 54, 0
16, 659456, Note_on_c, 15, 57, 83
16, 659968, Note_on_c, 15, 57, 0
16, 659968, Note_on_c, 15, 54, 85
16, 660480, Note_on_c, 15, 54, 0
16, 660480, Note_on_c, 15, 50, 86
16, 661094, Note_on_c, 15, 50, 0
16, 661504, Note_on_c, 15, 57, 89
16, 662016, Note_on_c, 15, 57, 0
16, 662016, Note_on_c, 15, 54, 91
16, 662528, Note_on_c, 15, 54, 0
16, 662528, Note_on_c, 15, 50, 92
16, 663142, Note_on_c, 15, 50, 0
16, 663552, Note_on_c, 15, 54, 96
16, 664064, Note_on_c, 15, 54, 0
16, 664064, Note_on_c, 15, 50, 97
16, 664576, Note_on_c, 15, 50, 0
16, 664576, Note_on_c, 15, 45, 96
16, 665190, Note_on_c, 15, 45, 0
16, 667648, Note_on_c, 15, 61, 52
16, 668160, Note_on_c, 15, 61, 0
16, 668160, Note_on_c, 15, 57, 52
16, 668672, Note_on_c, 15, 57, 0
16, 668672, Note_on_c, 15, 54, 52
16, 670720, Note_on_c, 15, 54, 0
16, 671744, Note_on_c, 15, 59, 52
16, 672256, Note_on_c, 15, 59, 0
16, 672256, Note_on_c, 15, 55, 52
16, 672768, Note_on_c, 15, 55, 0
16, 672768, Note_on_c, 15, 52, 52
16, 674816, Note_on_c, 15, 52, 0
16, 675840, Note_on_c, 15, 57, 52
16, 676352, Note_on_c, 15, 57, 0
16, 676352, Note_on_c, 15, 54, 52
16, 676864, Note_on_c, 15, 54, 0
16, 676864, Note_on_c, 15, 50, 52
16, 678912, Note_on_c, 15, 50, 0
16, 679936, Note_on_c, 15, 54, 52
16, 680448, Note_on_c, 15, 54, 0
16, 680448, Note_on_c, 15, 50, 52
16, 680960, Note_on_c, 15, 50, 0
16, 680960, Note_on_c, 15, 45, 52
16, 681574, Note_on_c, 15, 45, 0
16, 681984, Note_on_c, 15, 52, 52
16, 682598, Note_on_c, 15, 52, 0
16, 683008, Note_on_c, 15, 57, 52
16, 687104, Note_on_c, 15, 57, 0
16, 687104, Note_on_c, 15, 55, 54
16, 689152, Note_on_c, 15, 55, 0
16, 689152, Note_on_c, 15, 54, 56
16, 691200, Note_on_c, 15, 54, 0
16, 691200, Note_on_c, 15, 59, 59
16, 691814, Note_on_c, 15, 59, 0
16, 692224, Note_on_c, 15, 57, 60
16, 692838, Note_on_c, 15, 57, 0
16, 693248, Note_on_c, 15, 55, 61
16, 693862, Note_on_c, 15, 55, 0
16, 694272, Note_on_c, 15, 52, 63
16, 694886, Note_on_c, 15, 52, 0
16, 695296, Note_on_c, 15, 57, 64
16, 695910, Note_on_c, 15, 57, 0
16, 696320, Note_on_c, 15, 55, 65
16, 696934, Note_on_c, 15, 55, 0
16, 697344, Note_on_c, 15, 54, 66
16, 697958, Note_on_c, 15, 54, 0
16, 698368, Note_on_c, 15, 50, 68
16, 698982, Note_on_c, 15, 50, 0
16, 702464, Note_on_c, 15, 45, 73
16, 702976, Note_on_c, 15, 45, 0
16, 702976, Note_on_c, 15, 50, 74
16, 703488, Note_on_c, 15, 50, 0
16, 703488, Note_on_c, 15, 54, 74
16, 704102, Note_on_c, 15, 54, 0
16, 704512, Note_on_c, 15, 50, 75
16, 705024, Note_on_c, 15, 50, 0
16, 705024, Note_on_c, 15, 54, 76
16, 705536, Note_on_c, 15, 54, 0
16, 705536, Note_on_c, 15, 57, 77
16, 706150, Note_on_c, 15, 57, 0
16, 710656, Note_on_c, 15, 52, 83
16, 711168, Note_on_c, 15, 52, 0
16, 711168, Note_on_c, 15, 57, 84
16, 711680, Note_on_c, 15, 57, 0
16, 711680, Note_on_c, 15, 61, 84
16, 712294, Note_on_c, 15, 61, 0
16, 712704, Note_on_c, 15, 57, 86
16, 713216, Note_on_c, 15, 57, 0
16, 713216, Note_on_c, 15, 61, 86
16, 713728, Note_on_c, 15, 61, 0
16, 713728, Note_on_c, 15, 62, 87
16, 714342, Note_on_c, 15, 62, 0
16, 718848, Note_on_c, 15, 57, 93
16, 719360, Note_on_c, 15, 57, 0
16, 719360, Note_on_c, 15, 54, 94
16, 719872, Note_on_c, 15, 54, 0
16, 719872, Note_on_c, 15, 50, 95
16, 720486, Note_on_c, 15, 50, 0
16, 720896, Note_on_c, 15, 54, 96
16, 721408, Note_on_c, 15, 54, 0
16, 721408, Note_on_c, 15, 50, 97
16, 721920, Note_on_c, 15, 50, 0
16, 721920, Note_on_c, 15, 45, 94
16, 722534, Note_on_c, 15, 45, 0
16, 727040, Note_on_c, 15, 49, 83
16, 727552, Note_on_c, 15, 49, 0
16, 727552, Note_on_c, 15, 45, 83
16, 728064, Note_on_c, 15, 45, 0
16, 728064, Note_on_c, 15, 42, 83
16, 728678, Note_on_c, 15, 42, 0
16, 729088, Note_on_c, 15, 45, 83
16, 729600, Note_on_c, 15, 45, 0
16, 729600, Note_on_c, 15, 42, 83
16, 730112, Note_on_c, 15, 42, 0
16, 730112, Note_on_c, 15, 38, 83
16, 730726, Note_on_c, 15, 38, 0
16, 734208, Note_on_c, 15, 38, 83
16, 734822, Note_on_c, 15, 38, 0
16, 738304, Note_on_c, 15, 38, 83
16, 738918, Note_on_c, 15, 38, 0
16, 742400, Note_on_c, 15, 38, 79
16, 743014, Note_on_c, 15, 38, 0
16, 747520, Note_on_c, 15, 38, 90
16, 748032, Note_on_c, 15, 38, 0
16, 748032, Note_on_c, 15, 42, 91
16, 748544, Note_on_c, 15, 42, 0
16, 748544, Note_on_c, 15, 45, 93
16, 749158, Note_on_c, 15, 45, 0
16, 749568, Note_on_c, 15, 42, 95
16, 750080, Note_on_c, 15, 42, 0
16, 750080, Note_on_c, 15, 45, 96
16, 750592, Note_on_c, 15, 45, 0
16, 750592, Note_on_c, 15, 50, 98
16, 751206, Note_on_c, 15, 50, 0
16, 751616, Note_on_c, 15, 50, 98
16, 752230, Note_on_c, 15, 50, 0
16, 752640, Note_on_c, 15, 50, 98
16, 753254, Note_on_c, 15, 50, 0
16, 753664, Note_on_c, 15, 50, 98
16, 754278, Note_on_c, 15, 50, 0
16, 754688, Note_on_c, 15, 50, 98
16, 755302, Note_on_c, 15, 50, 0
16, 755712, Note_on_c, 15, 38, 98
16, 756224, Note_on_c, 15, 38, 0
16, 756224, Note_on_c, 15, 42, 98
16, 756736, Note_on_c, 15, 42, 0
16, 756736, Note_on_c, 15, 45, 98
16, 757350, Note_on_c, 15, 45, 0
16, 757760, Note_on_c, 15, 42, 97
16, 758272, Note_on_c, 15, 42, 0
16, 758272, Note_on_c, 15, 45, 97
16, 758784, Note_on_c, 15, 45, 0
16, 758784, Note_on_c, 15, 50, 97
16, 759398, Note_on_c, 15, 50, 0
16, 759808, Note_on_c, 15, 50, 97
16, 760422, Note_on_c, 15, 50, 0
16, 760832, Note_on_c, 15, 50, 97
16, 761446, Note_on_c, 15, 50, 0
16, 761856, Note_on_c, 15, 50, 97
16, 762470, Note_on_c, 15, 50, 0
16, 762880, Note_on_c, 15, 50, 97
16, 763494, Note_on_c, 15, 50, 0
16, 763904, Note_on_c, 15, 38, 79
16, 764518, Note_on_c, 15, 38, 0
16, 764928, Note_on_c, 15, 49, 50
16, 765542, Note_on_c, 15, 49, 0
16, 765952, Note_on_c, 15, 45, 50
16, 766566, Note_on_c, 15, 45, 0
16, 766976, Note_on_c, 15, 50, 50
16, 767590, Note_on_c, 15, 50, 0
16, 768000, Note_on_c, 15, 49, 50
16, 768512, Note_on_c, 15, 49, 0
16, 768512, Note_on_c, 15, 47, 50
16, 769024, Note_on_c, 15, 47, 0
16, 769024, Note_on_c, 15, 52, 50
16, 769638, Note_on_c, 15, 52, 0
16, 770048, Note_on_c, 15, 40, 50
16, 770662, Note_on_c, 15, 40, 0
16, 771072, Note_on_c, 15, 45, 50
16, 771686, Note_on_c, 15, 45, 0
16, 772096, Note_on_c, 15, 47, 50
16, 772608, Note_on_c, 15, 47, 0
16, 772608, Note_on_c, 15, 49, 50
16, 773120, Note_on_c, 15, 49, 0
16, 773120, Note_on_c, 15, 50, 50
16, 777216, Note_on_c, 15, 50, 0
16, 777216, Note_on_c, 15, 49, 50
16, 779264, Note_on_c, 15, 49, 0
16, 779264, Note_on_c, 15, 47, 50
16, 781312, Note_on_c, 15, 47, 0
16, 787456, Note_on_c, 15, 52, 50
16, 788070, Note_on_c, 15, 52, 0
16, 788480, Note_on_c, 15, 40, 50
16, 789094, Note_on_c, 15, 40, 0
16, 789504, Note_on_c, 15, 52, 50
16, 790016, Note_on_c, 15, 52, 0
16, 790016, Note_on_c, 15, 54, 50
16, 790528, Note_on_c, 15, 54, 0
16, 790528, Note_on_c, 15, 50, 50
16, 791040, Note_on_c, 15, 50, 0
16, 791040, Note_on_c, 15, 52, 50
16, 791552, Note_on_c, 15, 52, 0
16, 791552, Note_on_c, 15, 54, 50
16, 792064, Note_on_c, 15, 54, 0
16, 792064, Note_on_c, 15, 56, 50
16, 792576, Note_on_c, 15, 56, 0
16, 792576, Note_on_c, 15, 52, 50
16, 793088, Note_on_c, 15, 52, 0
16, 793088, Note_on_c, 15, 54, 50
16, 793600, Note_on_c, 15, 54, 0
16, 793600, Note_on_c, 15, 56, 50
16, 794112, Note_on_c, 15, 56, 0
16, 794112, Note_on_c, 15, 57, 50
16, 794624, Note_on_c, 15, 57, 0
16, 794624, Note_on_c, 15, 54, 50
16, 795136, Note_on_c, 15, 54, 0
16, 795136, Note_on_c, 15, 56, 51
16, 795648, Note_on_c, 15, 56, 0
16, 795648, Note_on_c, 15, 57, 53
16, 796160, Note_on_c, 15, 57, 0
16, 796160, Note_on_c, 15, 59, 55
16, 796672, Note_on_c, 15, 59, 0
16, 796672, Note_on_c, 15, 57, 56
16, 797184, Note_on_c, 15, 57, 0
16, 797184, Note_on_c, 15, 59, 58
16, 797696, Note_on_c, 15, 59, 0
16, 797696, Note_on_c, 15, 61, 60
16, 798208, Note_on_c, 15, 61, 0
16, 798208, Note_on_c, 15, 62, 62
16, 798720, Note_on_c, 15, 62, 0
16, 798720, Note_on_c, 15, 59, 64
16, 799232, Note_on_c, 15, 59, 0
16, 799232, Note_on_c, 15, 61, 66
16, 799744, Note_on_c, 15, 61, 0
16, 799744, Note_on_c, 15, 62, 68
16, 800358, Note_on_c, 15, 62, 0
16, 800768, Note_on_c, 15, 50, 72
16, 801382, Note_on_c, 15, 50, 0
16, 801792, Note_on_c, 15, 62, 76
16, 802406, Note_on_c, 15, 62, 0
16, 802816, Note_on_c, 15, 62, 79
16, 803430, Note_on_c, 15, 62, 0
16, 803840, Note_on_c, 15, 61, 85
16, 804454, Note_on_c, 15, 61, 0
16, 804864, Note_on_c, 15, 59, 86
16, 805376, Note_on_c, 15, 59, 0
16, 805376, Note_on_c, 15, 57, 86
16, 805888, Note_on_c, 15, 57, 0
16, 805888, Note_on_c, 15, 56, 86
16, 806502, Note_on_c, 15, 56, 0
16, 806912, Note_on_c, 15, 52, 87
16, 807526, Note_on_c, 15, 52, 0
16, 807936, Note_on_c, 15, 57, 88
16, 808550, Note_on_c, 15, 57, 0
16, 808960, Note_on_c, 15, 54, 89
16, 809574, Note_on_c, 15, 54, 0
16, 809984, Note_on_c, 15, 50, 90
16, 810598, Note_on_c, 15, 50, 0
16, 811008, Note_on_c, 15, 52, 91
16, 811622, Note_on_c, 15, 52, 0
16, 812032, Note_on_c, 15, 45, 92
16, 812646, Note_on_c, 15, 45, 0
16, 816128, Note_on_c, 15, 45, 36
16, 816742, Note_on_c, 15, 45, 0
16, 820224, Note_on_c, 15, 45, 36
16, 820838, Note_on_c, 15, 45, 0
16, 824320, Note_on_c, 15, 45, 50
16, 824934, Note_on_c, 15, 45, 0
16, 829440, Note_on_c, 15, 45, 64
16, 829952, Note_on_c, 15, 45, 0
16, 829952, Note_on_c, 15, 49, 64
16, 830464, Note_on_c, 15, 49, 0
16, 830464, Note_on_c, 15, 52, 64
16, 831078, Note_on_c, 15, 52, 0
16, 831488, Note_on_c, 15, 49, 64
16, 832000, Note_on_c, 15, 49, 0
16, 832000, Note_on_c, 15, 52, 64
16, 832512, Note_on_c, 15, 52, 0
16, 832512, Note_on_c, 15, 57, 64
16, 833126, Note_on_c, 15, 57, 0
16, 833536, Note_on_c, 15, 57, 64
16, 834150, Note_on_c, 15, 57, 0
16, 834560, Note_on_c, 15, 57, 64
16, 835174, Note_on_c, 15, 57, 0
16, 835584, Note_on_c, 15, 57, 64
16, 836198, Note_on_c, 15, 57, 0
16, 836608, Note_on_c, 15, 57, 64
16, 837222, Note_on_c, 15, 57, 0
16, 837632, Note_on_c, 15, 45, 64
16, 838144, Note_on_c, 15, 45, 0
16, 838144, Note_on_c, 15, 49, 64
16, 838656, Note_on_c, 15, 49, 0
16, 838656, Note_on_c, 15, 52, 64
16, 839270, Note_on_c, 15, 52, 0
16, 839680, Note_on_c, 15, 49, 64
16, 840192, Note_on_c, 15, 49, 0
16, 840192, Note_on_c, 15, 52, 63
16, 840704, Note_on_c, 15, 52, 0
16, 840704, Note_on_c, 15, 57, 62
16, 841318, Note_on_c, 15, 57, 0
16, 841728, Note_on_c, 15, 57, 58
16, 842342, Note_on_c, 15, 57, 0
16, 842752, Note_on_c, 15, 57, 55
16, 843366, Note_on_c, 15, 57, 0
16, 843776, Note_on_c, 15, 57, 52
16, 844390, Note_on_c, 15, 57, 0
16, 844800, Note_on_c, 15, 57, 48
16, 846848, Note_on_c, 15, 57, 0
16, 847872, Note_on_c, 15, 61, 42
16, 848384, Note_on_c, 15, 61, 0
16, 848384, Note_on_c, 15, 57, 42
16, 848896, Note_on_c, 15, 57, 0
16, 848896, Note_on_c, 15, 54, 42
16, 850944, Note_on_c, 15, 54, 0
16, 851968, Note_on_c, 15, 54, 42
16, 852480, Note_on_c, 15, 54, 0
16, 852480, Note_on_c, 15, 50, 42
16, 852992, Note_on_c, 15, 50, 0
16, 852992, Note_on_c, 15, 47, 42
16, 855040, Note_on_c, 15, 47, 0
16, 856064, Note_on_c, 15, 52, 42
16, 856576, Note_on_c, 15, 52, 0
16, 856576, Note_on_c, 15, 49, 42
16, 857088, Note_on_c, 15, 49, 0
16, 857088, Note_on_c, 15, 45, 42
16, 857702, Note_on_c, 15, 45, 0
16, 858112, Note_on_c, 15, 52, 42
16, 858726, Note_on_c, 15, 52, 0
16, 859136, Note_on_c, 15, 57, 42
16, 863232, Note_on_c, 15, 57, 0
16, 863232, Note_on_c, 15, 56, 42
16, 865280, Note_on_c, 15, 56, 0
16, 865280, Note_on_c, 15, 57, 42
16, 865894, Note_on_c, 15, 57, 0
16, 866304, Note_on_c, 15, 59, 42
16, 866918, Note_on_c, 15, 59, 0
16, 867328, Note_on_c, 15, 61, 42
16, 867942, Note_on_c, 15, 61, 0
16, 868352, Note_on_c, 15, 57, 42
16, 868966, Note_on_c, 15, 57, 0
16, 869376, Note_on_c, 15, 54, 42
16, 869990, Note_on_c, 15, 54, 0
16, 870400, Note_on_c, 15, 56, 42
16, 871014, Note_on_c, 15, 56, 0
16, 871424, Note_on_c, 15, 57, 42
16, 872038, Note_on_c, 15, 57, 0
16, 872448, Note_on_c, 15, 54, 42
16, 873062, Note_on_c, 15, 54, 0
16, 873472, Note_on_c, 15, 50, 42
16, 874086, Note_on_c, 15, 50, 0
16, 874496, Note_on_c, 15, 47, 42
16, 875110, Note_on_c, 15, 47, 0
16, 875520, Note_on_c, 15, 52, 42
16, 876134, Note_on_c, 15, 52, 0
16, 876544, Note_on_c, 15, 40, 42
16, 877158, Note_on_c, 15, 40, 0
16, 877568, Note_on_c, 15, 45, 42
16, 879616, Note_on_c, 15, 45, 0
16, 882688, Note_on_c, 15, 52, 47
16, 883200, Note_on_c, 15, 52, 0
16, 883200, Note_on_c, 15, 57, 47
16, 883712, Note_on_c, 15, 57, 0
16, 883712, Note_on_c, 15, 61, 47
16, 884326, Note_on_c, 15, 61, 0
16, 884736, Note_on_c, 15, 57, 48
16, 885248, Note_on_c, 15, 57, 0
16, 885248, Note_on_c, 15, 61, 48
16, 885760, Note_on_c, 15, 61, 0
16, 885760, Note_on_c, 15, 64, 48
16, 886374, Note_on_c, 15, 64, 0
16, 890880, Note_on_c, 15, 47, 50
16, 891392, Note_on_c, 15, 47, 0
16, 891392, Note_on_c, 15, 52, 50
16, 891904, Note_on_c, 15, 52, 0
16, 891904, Note_on_c, 15, 56, 50
16, 892518, Note_on_c, 15, 56, 0
16, 892928, Note_on_c, 15, 52, 51
16, 893440, Note_on_c, 15, 52, 0
16, 893440, Note_on_c, 15, 56, 51
16, 893952, Note_on_c, 15, 56, 0
16, 893952, Note_on_c, 15, 57, 51
16, 894566, Note_on_c, 15, 57, 0
16, 899072, Note_on_c, 15, 40, 52
16, 899584, Note_on_c, 15, 40, 0
16, 899584, Note_on_c, 15, 45, 52
16, 900096, Note_on_c, 15, 45, 0
16, 900096, Note_on_c, 15, 49, 52
16, 900710, Note_on_c, 15, 49, 0
16, 901120, Note_on_c, 15, 45, 52
16, 901632, Note_on_c, 15, 45, 0
16, 901632, Note_on_c, 15, 49, 53
16, 902144, Note_on_c, 15, 49, 0
16, 902144, Note_on_c, 15, 50, 53
16, 902758, Note_on_c, 15, 50, 0
16, 903168, Note_on_c, 15, 38, 53
16, 903680, Note_on_c, 15, 38, 0
16, 903680, Note_on_c, 15, 42, 53
16, 904192, Note_on_c, 15, 42, 0
16, 904192, Note_on_c, 15, 45, 54
16, 904806, Note_on_c, 15, 45, 0
16, 905216, Note_on_c, 15, 42, 54
16, 905728, Note_on_c, 15, 42, 0
16, 905728, Note_on_c, 15, 45, 54
16, 906240, Note_on_c, 15, 45, 0
16, 906240, Note_on_c, 15, 48, 54
16, 906854, Note_on_c, 15, 48, 0
16, 907264, Note_on_c, 15, 47, 55
16, 907776, Note_on_c, 15, 47, 0
16, 907776, Note_on_c, 15, 48, 55
16, 908288, Note_on_c, 15, 48, 0
16, 908288, Note_on_c, 15, 50, 55
16, 908800, Note_on_c, 15, 50, 0
16, 908800, Note_on_c, 15, 48, 55
16, 909312, Note_on_c, 15, 48, 0
16, 909312, Note_on_c, 15, 47, 55
16, 909824, Note_on_c, 15, 47, 0
16, 909824, Note_on_c, 15, 45, 55
16, 910336, Note_on_c, 15, 45, 0
16, 910336, Note_on_c, 15, 43, 56
16, 910950, Note_on_c, 15, 43, 0
16, 911360, Note_on_c, 15, 59, 56
16, 911974, Note_on_c, 15, 59, 0
16, 912384, Note_on_c, 15, 55, 56
16, 912998, Note_on_c, 15, 55, 0
16, 913408, Note_on_c, 15, 52, 57
16, 914022, Note_on_c, 15, 52, 0
16, 914432, Note_on_c, 15, 49, 57
16, 915046, Note_on_c, 15, 49, 0
16, 915456, Note_on_c, 15, 52, 57
16, 916070, Note_on_c, 15, 52, 0
16, 916480, Note_on_c, 15, 49, 58
16, 917094, Note_on_c, 15, 49, 0
16, 917504, Note_on_c, 15, 45, 58
16, 918118, Note_on_c, 15, 45, 0
16, 918528, Note_on_c, 15, 42, 57
16, 919142, Note_on_c, 15, 42, 0
16, 919552, Note_on_c, 15, 57, 59
16, 920166, Note_on_c, 15, 57, 0
16, 920576, Note_on_c, 15, 54, 61
16, 921190, Note_on_c, 15, 54, 0
16, 921600, Note_on_c, 15, 50, 63
16, 922214, Note_on_c, 15, 50, 0
16, 922624, Note_on_c, 15, 47, 65
16, 923238, Note_on_c, 15, 47, 0
16, 923648, Note_on_c, 15, 50, 68
16, 924262, Note_on_c, 15, 50, 0
16, 924672, Note_on_c, 15, 47, 70
16, 925286, Note_on_c, 15, 47, 0
16, 925696, Note_on_c, 15, 43, 72
16, 926310, Note_on_c, 15, 43, 0
16, 926720, Note_on_c, 15, 40, 74
16, 927334, Note_on_c, 15, 40, 0
16, 927744, Note_on_c, 15, 59, 75
16, 928256, Note_on_c, 15, 59, 0
16, 928256, Note_on_c, 15, 55, 75
16, 928768, Note_on_c, 15, 55, 0
16, 928768, Note_on_c, 15, 52, 75
16, 929382, Note_on_c, 15, 52, 0
16, 929792, Note_on_c, 15, 55, 76
16, 930304, Note_on_c, 15, 55, 0
16, 930304, Note_on_c, 15, 52, 76
16, 930816, Note_on_c, 15, 52, 0
16, 930816, Note_on_c, 15, 49, 76
16, 931430, Note_on_c, 15, 49, 0
16, 931840, Note_on_c, 15, 55, 77
16, 932352, Note_on_c, 15, 55, 0
16, 932352, Note_on_c, 15, 52, 77
16, 932864, Note_on_c, 15, 52, 0
16, 932864, Note_on_c, 15, 49, 77
16, 933478, Note_on_c, 15, 49, 0
16, 933888, Note_on_c, 15, 52, 77
16, 934400, Note_on_c, 15, 52, 0
16, 934400, Note_on_c, 15, 49, 78
16, 934912, Note_on_c, 15, 49, 0
16, 934912, Note_on_c, 15, 45, 78
16, 935526, Note_on_c, 15, 45, 0
16, 935936, Note_on_c, 15, 45, 78
16, 936448, Note_on_c, 15, 45, 0
16, 936448, Note_on_c, 15, 49, 78
16, 936960, Note_on_c, 15, 49, 0
16, 936960, Note_on_c, 15, 52, 79
16, 937574, Note_on_c, 15, 52, 0
16, 937984, Note_on_c, 15, 49, 79
16, 938496, Note_on_c, 15, 49, 0
16, 938496, Note_on_c, 15, 52, 79
16, 939008, Note_on_c, 15, 52, 0
16, 939008, Note_on_c, 15, 57, 79
16, 939622, Note_on_c, 15, 57, 0
16, 940032, Note_on_c, 15, 52, 80
16, 940544, Note_on_c, 15, 52, 0
16, 940544, Note_on_c, 15, 57, 80
16, 941056, Note_on_c, 15, 57, 0
16, 941056, Note_on_c, 15, 61, 80
16, 941670, Note_on_c, 15, 61, 0
16, 942080, Note_on_c, 15, 57, 81
16, 942592, Note_on_c, 15, 57, 0
16, 942592, Note_on_c, 15, 61, 81
16, 943104, Note_on_c, 15, 61, 0
16, 943104, Note_on_c, 15, 62, 81
16, 943718, Note_on_c, 15, 62, 0
16, 944128, Note_on_c, 15, 50, 81
16, 944742, Note_on_c, 15, 50, 0
16, 945152, Note_on_c, 15, 62, 82
16, 945766, Note_on_c, 15, 62, 0
16, 946176, Note_on_c, 15, 59, 82
16, 946790, Note_on_c, 15, 59, 0
16, 947200, Note_on_c, 15, 54, 83
16, 947814, Note_on_c, 15, 54, 0
16, 948224, Note_on_c, 15, 59, 83
16, 948838, Note_on_c, 15, 59, 0
16, 949248, Note_on_c, 15, 55, 84
16, 949862, Note_on_c, 15, 55, 0
16, 950272, Note_on_c, 15, 57, 84
16, 950886, Note_on_c, 15, 57, 0
16, 951296, Note_on_c, 15, 50, 84
16, 951910, Note_on_c, 15, 50, 0
16, 952320, Note_on_c, 15, 38, 76
16, 952934, Note_on_c, 15, 38, 0
16, 953344, Note_on_c, 15, 50, 38
16, 957440, Note_on_c, 15, 50, 0
16, 957440, Note_on_c, 15, 49, 38
16, 959488, Note_on_c, 15, 49, 0
16, 959488, Note_on_c, 15, 47, 38
16, 960102, Note_on_c, 15, 47, 0
16, 960512, Note_on_c, 15, 50, 38
16, 961126, Note_on_c, 15, 50, 0
16, 961536, Note_on_c, 15, 55, 38
16, 965632, Note_on_c, 15, 55, 0
16, 965632, Note_on_c, 15, 54, 38
16, 967680, Note_on_c, 15, 54, 0
16, 967680, Note_on_c, 15, 52, 38
16, 969728, Note_on_c, 15, 52, 0
16, 969728, Note_on_c, 15, 57, 38
16, 973824, Note_on_c, 15, 57, 0
16, 973824, Note_on_c, 15, 55, 38
16, 975872, Note_on_c, 15, 55, 0
16, 975872, Note_on_c, 15, 54, 38
16, 977920, Note_on_c, 15, 54, 0
16, 977920, Note_on_c, 15, 55, 39
16, 982016, Note_on_c, 15, 55, 0
16, 982016, Note_on_c, 15, 54, 39
16, 984064, Note_on_c, 15, 54, 0
16, 984064, Note_on_c, 15, 52, 39
16, 984678, Note_on_c, 15, 52, 0
16, 985088, Note_on_c, 15, 40, 39
16, 985702, Note_on_c, 15, 40, 0
16, 986112, Note_on_c, 15, 52, 39
16, 986624, Note_on_c, 15, 52, 0
16, 986624, Note_on_c, 15, 54, 40
16, 987136, Note_on_c, 15, 54, 0
16, 987136, Note_on_c, 15, 50, 42
16, 987648, Note_on_c, 15, 50, 0
16, 987648, Note_on_c, 15, 52, 43
16, 988160, Note_on_c, 15, 52, 0
16, 988160, Note_on_c, 15, 54, 44
16, 988672, Note_on_c, 15, 54, 0
16, 988672, Note_on_c, 15, 55, 46
16, 989184, Note_on_c, 15, 55, 0
16, 989184, Note_on_c, 15, 52, 47
16, 989696, Note_on_c, 15, 52, 0
16, 989696, Note_on_c, 15, 54, 49
16, 990208, Note_on_c, 15, 54, 0
16, 990208, Note_on_c, 15, 55, 50
16, 990720, Note_on_c, 15, 55, 0
16, 990720, Note_on_c, 15, 57, 52
16, 991232, Note_on_c, 15, 57, 0
16, 991232, Note_on_c, 15, 54, 53
16, 991744, Note_on_c, 15, 54, 0
16, 991744, Note_on_c, 15, 55, 54
16, 992256, Note_on_c, 15, 55, 0
16, 992256, Note_on_c, 15, 57, 56
16, 992870, Note_on_c, 15, 57, 0
16, 993280, Note_on_c, 15, 45, 59
16, 993894, Note_on_c, 15, 45, 0
16, 995328, Note_on_c, 15, 57, 64
16, 995840, Note_on_c, 15, 57, 0
16, 995840, Note_on_c, 15, 55, 66
16, 996352, Note_on_c, 15, 55, 0
16, 996352, Note_on_c, 15, 54, 67
16, 996966, Note_on_c, 15, 54, 0
16, 997376, Note_on_c, 15, 55, 70
16, 997888, Note_on_c, 15, 55, 0
16, 997888, Note_on_c, 15, 54, 72
16, 998400, Note_on_c, 15, 54, 0
16, 998400, Note_on_c, 15, 52, 73
16, 999014, Note_on_c, 15, 52, 0
16, 999424, Note_on_c, 15, 54, 76
16, 999936, Note_on_c, 15, 54, 0
16, 999936, Note_on_c, 15, 52, 77
16, 1000448, Note_on_c, 15, 52, 0
16, 1000448, Note_on_c, 15, 50, 82
16, 1000960, Note_on_c, 15, 50, 0
16, 1000960, Note_on_c, 15, 49, 83
16, 1001472, Note_on_c, 15, 49, 0
16, 1001472, Note_on_c, 15, 50, 84
16, 1001984, Note_on_c, 15, 50, 0
16, 1001984, Note_on_c, 15, 52, 85
16, 1002496, Note_on_c, 15, 52, 0
16, 1002496, Note_on_c, 15, 54, 86
16, 1003008, Note_on_c, 15, 54, 0
16, 1003008, Note_on_c, 15, 55, 87
16, 1003520, Note_on_c, 15, 55, 0
16, 1003520, Note_on_c, 15, 52, 88
16, 1004032, Note_on_c, 15, 52, 0
16, 1004032, Note_on_c, 15, 54, 89
16, 1004544, Note_on_c, 15, 54, 0
16, 1004544, Note_on_c, 15, 55, 90
16, 1005056, Note_on_c, 15, 55, 0
16, 1005056, Note_on_c, 15, 57, 91
16, 1005568, Note_on_c, 15, 57, 0
16, 1005568, Note_on_c, 15, 54, 92
16, 1006080, Note_on_c, 15, 54, 0
16, 1006080, Note_on_c, 15, 55, 93
16, 1006592, Note_on_c, 15, 55, 0
16, 1006592, Note_on_c, 15, 57, 94
16, 1007104, Note_on_c, 15, 57, 0
16, 1007104, Note_on_c, 15, 59, 96
16, 1007616, Note_on_c, 15, 59, 0
16, 1007616, Note_on_c, 15, 55, 97
16, 1008128, Note_on_c, 15, 55, 0
16, 1008128, Note_on_c, 15, 57, 99
16, 1008640, Note_on_c, 15, 57, 0
16, 1008640, Note_on_c, 15, 59, 99
16, 1009152, Note_on_c, 15, 59, 0
16, 1009152, Note_on_c, 15, 61, 99
16, 1009664, Note_on_c, 15, 61, 0
16, 1009664, Note_on_c, 15, 57, 100
16, 1010176, Note_on_c, 15, 57, 0
16, 1010176, Note_on_c, 15, 59, 100
16, 1010688, Note_on_c, 15, 59, 0
16, 1010688, Note_on_c, 15, 61, 101
16, 1011200, Note_on_c, 15, 61, 0
16, 1011200, Note_on_c, 15, 62, 101
16, 1011712, Note_on_c, 15, 62, 0
16, 1011712, Note_on_c, 15, 59, 101
16, 1012224, Note_on_c, 15, 59, 0
16, 1012224, Note_on_c, 15, 61, 102
16, 1012736, Note_on_c, 15, 61, 0
16, 1012736, Note_on_c, 15, 62, 102
16, 1013350, Note_on_c, 15, 62, 0
16, 1013760, Note_on_c, 15, 59, 103
16, 1014374, Note_on_c, 15, 59, 0
16, 1014784, Note_on_c, 15, 55, 104
16, 1015398, Note_on_c, 15, 55, 0
16, 1015808, Note_on_c, 15, 57, 104
16, 1016422, Note_on_c, 15, 57, 0
16, 1016832, Note_on_c, 15, 50, 105
16, 1017446, Note_on_c, 15, 50, 0
16, 1018880, Note_on_c, 15, 47, 107
16, 1019494, Note_on_c, 15, 47, 0
16, 1020928, Note_on_c, 15, 42, 108
16, 1021542, Note_on_c, 15, 42, 0
16, 1022976, Note_on_c, 15, 45, 108
16, 1023590, Note_on_c, 15, 45, 0
16, 1025024, Note_on_c, 15, 38, 108
16, 1025638, Note_on_c, 15, 38, 0
16, 1033216, End_track
17, 0, Start_track
17, 0, Title_t, "Oboe"
17, 0, Program_c, 3, 68
17, 0, Control_c, 3, 121, 127
17, 0, Control_c, 3, 1, 5
17, 0, Control_c, 3, 10, 70
17, 598728, Control_c, 3, 7, 80
17, 600064, Note_on_c, 3, 62, 77
17, 600576, Note_on_c, 3, 62, 0
17, 600576, Note_on_c, 3, 66, 78
17, 601088, Note_on_c, 3, 66, 0
17, 601088, Note_on_c, 3, 69, 79
17, 601702, Note_on_c, 3, 69, 0
17, 602112, Note_on_c, 3, 66, 80
17, 602624, Note_on_c, 3, 66, 0
17, 602624, Note_on_c, 3, 69, 81
17, 603136, Note_on_c, 3, 69, 0
17, 603136, Note_on_c, 3, 74, 81
17, 603750, Note_on_c, 3, 74, 0
17, 604160, Note_on_c, 3, 66, 83
17, 604160, Note_on_c, 3, 62, 83
17, 604672, Note_on_c, 3, 66, 0
17, 604672, Note_on_c, 3, 69, 84
17, 604672, Note_on_c, 3, 62, 0
17, 604672, Note_on_c, 3, 66, 84
17, 605184, Note_on_c, 3, 69, 0
17, 605184, Note_on_c, 3, 74, 84
17, 605184, Note_on_c, 3, 66, 0
17, 605184, Note_on_c, 3, 69, 84
17, 605798, Note_on_c, 3, 74, 0
17, 605798, Note_on_c, 3, 69, 0
17, 606208, Note_on_c, 3, 69, 86
17, 606208, Note_on_c, 3, 66, 86
17, 606720, Note_on_c, 3, 69, 0
17, 606720, Note_on_c, 3, 74, 86
17, 606720, Note_on_c, 3, 66, 0
17, 606720, Note_on_c, 3, 69, 86
17, 607232, Note_on_c, 3, 74, 0
17, 607232, Note_on_c, 3, 69, 0
17, 607232, Note_on_c, 3, 78, 87
17, 607232, Note_on_c, 3, 74, 87
17, 607846, Note_on_c, 3, 78, 0
17, 607846, Note_on_c, 3, 74, 0
17, 608256, Note_on_c, 3, 69, 88
17, 608256, Note_on_c, 3, 66, 88
17, 608768, Note_on_c, 3, 69, 0
17, 608768, Note_on_c, 3, 74, 89
17, 608768, Note_on_c, 3, 66, 0
17, 608768, Note_on_c, 3, 69, 89
17, 609280, Note_on_c, 3, 74, 0
17, 609280, Note_on_c, 3, 78, 90
17, 609280, Note_on_c, 3, 69, 0
17, 609280, Note_on_c, 3, 74, 90
17, 609894, Note_on_c, 3, 78, 0
17, 609894, Note_on_c, 3, 74, 0
17, 610304, Note_on_c, 3, 81, 91
17, 610304, Note_on_c, 3, 78, 91
17, 610816, Note_on_c, 3, 81, 0
17, 610816, Note_on_c, 3, 78, 92
17, 610816, Note_on_c, 3, 78, 0
17, 610816, Note_on_c, 3, 74, 92
17, 611328, Note_on_c, 3, 78, 0
17, 611328, Note_on_c, 3, 74, 0
17, 611328, Note_on_c, 3, 74, 93
17, 611328, Note_on_c, 3, 69, 93
17, 611942, Note_on_c, 3, 74, 0
17, 611942, Note_on_c, 3, 69, 0
17, 612352, Note_on_c, 3, 78, 94
17, 612352, Note_on_c, 3, 74, 94
17, 612864, Note_on_c, 3, 78, 0
17, 612864, Note_on_c, 3, 74, 95
17, 612864, Note_on_c, 3, 74, 0
17, 612864, Note_on_c, 3, 69, 95
17, 613376, Note_on_c, 3, 74, 0
17, 613376, Note_on_c, 3, 69, 96
17, 613376, Note_on_c, 3, 69, 0
17, 613376, Note_on_c, 3, 66, 96
17, 613990, Note_on_c, 3, 69, 0
17, 613990, Note_on_c, 3, 66, 0
17, 614400, Note_on_c, 3, 74, 97
17, 614400, Note_on_c, 3, 69, 97
17, 614912, Note_on_c, 3, 74, 0
17, 614912, Note_on_c, 3, 78, 98
17, 614912, Note_on_c, 3, 69, 0
17, 614912, Note_on_c, 3, 74, 98
17, 615424, Note_on_c, 3, 78, 0
17, 615424, Note_on_c, 3, 74, 0
17, 615424, Note_on_c, 3, 81, 98
17, 615424, Note_on_c, 3, 78, 98
17, 616038, Note_on_c, 3, 81, 0
17, 616038, Note_on_c, 3, 78, 0
17, 616448, Note_on_c, 3, 81, 98
17, 616448, Note_on_c, 3, 78, 98
17, 617062, Note_on_c, 3, 81, 0
17, 617062, Note_on_c, 3, 78, 0
17, 617472, Note_on_c, 3, 81, 98
17, 617472, Note_on_c, 3, 78, 98
17, 618086, Note_on_c, 3, 81, 0
17, 618086, Note_on_c, 3, 78, 0
17, 618496, Note_on_c, 3, 81, 98
17, 618496, Note_on_c, 3, 78, 98
17, 619110, Note_on_c, 3, 81, 0
17, 619110, Note_on_c, 3, 78, 0
17, 619520, Note_on_c, 3, 81, 98
17, 619520, Note_on_c, 3, 78, 98
17, 620134, Note_on_c, 3, 81, 0
17, 620134, Note_on_c, 3, 78, 0
17, 620544, Note_on_c, 3, 79, 98
17, 620544, Note_on_c, 3, 76, 98
17, 621056, Note_on_c, 3, 79, 0
17, 621056, Note_on_c, 3, 81, 98
17, 621056, Note_on_c, 3, 76, 0
17, 621056, Note_on_c, 3, 78, 98
17, 621568, Note_on_c, 3, 81, 0
17, 621568, Note_on_c, 3, 83, 98
17, 621568, Note_on_c, 3, 78, 0
17, 621568, Note_on_c, 3, 79, 98
17, 622182, Note_on_c, 3, 83, 0
17, 622182, Note_on_c, 3, 79, 0
17, 622592, Note_on_c, 3, 81, 98
17, 622592, Note_on_c, 3, 78, 98
17, 623104, Note_on_c, 3, 81, 0
17, 623104, Note_on_c, 3, 79, 98
17, 623104, Note_on_c, 3, 78, 0
17, 623104, Note_on_c, 3, 76, 98
17, 623616, Note_on_c, 3, 79, 0
17, 623616, Note_on_c, 3, 76, 0
17, 623616, Note_on_c, 3, 81, 98
17, 623616, Note_on_c, 3, 78, 98
17, 624230, Note_on_c, 3, 81, 0
17, 624230, Note_on_c, 3, 78, 0
17, 624640, Note_on_c, 3, 78, 98
17, 624640, Note_on_c, 3, 74, 98
17, 625152, Note_on_c, 3, 78, 0
17, 625152, Note_on_c, 3, 81, 98
17, 625254, Note_on_c, 3, 74, 0
17, 625664, Note_on_c, 3, 81, 0
17, 625664, Note_on_c, 3, 86, 98
17, 626278, Note_on_c, 3, 86, 0
17, 626688, Note_on_c, 3, 81, 98
17, 626688, Note_on_c, 3, 78, 98
17, 627302, Note_on_c, 3, 81, 0
17, 627302, Note_on_c, 3, 78, 0
17, 627712, Note_on_c, 3, 79, 98
17, 627712, Note_on_c, 3, 76, 98
17, 628326, Note_on_c, 3, 79, 0
17, 628326, Note_on_c, 3, 76, 0
17, 628736, Note_on_c, 3, 78, 98
17, 628736, Note_on_c, 3, 74, 98
17, 629248, Note_on_c, 3, 78, 0
17, 629248, Note_on_c, 3, 79, 98
17, 629248, Note_on_c, 3, 74, 0
17, 629248, Note_on_c, 3, 76, 98
17, 629760, Note_on_c, 3, 79, 0
17, 629760, Note_on_c, 3, 81, 98
17, 629760, Note_on_c, 3, 76, 0
17, 629760, Note_on_c, 3, 73, 98
17, 630272, Note_on_c, 3, 81, 0
17, 630272, Note_on_c, 3, 79, 98
17, 630272, Note_on_c, 3, 73, 0
17, 630272, Note_on_c, 3, 76, 98
17, 630784, Note_on_c, 3, 79, 0
17, 630784, Note_on_c, 3, 78, 98
17, 630784, Note_on_c, 3, 76, 0
17, 630784, Note_on_c, 3, 74, 98
17, 631296, Note_on_c, 3, 78, 0
17, 631296, Note_on_c, 3, 76, 98
17, 631296, Note_on_c, 3, 74, 0
17, 631296, Note_on_c, 3, 73, 98
17, 631808, Note_on_c, 3, 76, 0
17, 631808, Note_on_c, 3, 73, 0
17, 631808, Note_on_c, 3, 78, 98
17, 631808, Note_on_c, 3, 74, 98
17, 632422, Note_on_c, 3, 78, 0
17, 632422, Note_on_c, 3, 74, 0
17, 632832, Note_on_c, 3, 76, 98
17, 632832, Note_on_c, 3, 76, 98
17, 633344, Note_on_c, 3, 76, 0
17, 633344, Note_on_c, 3, 78, 98
17, 633446, Note_on_c, 3, 76, 0
17, 633856, Note_on_c, 3, 78, 0
17, 633856, Note_on_c, 3, 74, 98
17, 633856, Note_on_c, 3, 78, 98
17, 634470, Note_on_c, 3, 74, 0
17, 634470, Note_on_c, 3, 78, 0
17, 634880, Note_on_c, 3, 76, 98
17, 634880, Note_on_c, 3, 73, 98
17, 635494, Note_on_c, 3, 76, 0
17, 635494, Note_on_c, 3, 73, 0
17, 635904, Note_on_c, 3, 78, 98
17, 635904, Note_on_c, 3, 74, 98
17, 636416, Note_on_c, 3, 78, 0
17, 636416, Note_on_c, 3, 80, 98
17, 636518, Note_on_c, 3, 74, 0
17, 636928, Note_on_c, 3, 80, 0
17, 636928, Note_on_c, 3, 76, 98
17, 637440, Note_on_c, 3, 76, 0
17, 637440, Note_on_c, 3, 78, 98
17, 637952, Note_on_c, 3, 78, 0
17, 637952, Note_on_c, 3, 80, 98
17, 637952, Note_on_c, 3, 76, 98
17, 638464, Note_on_c, 3, 80, 0
17, 638464, Note_on_c, 3, 81, 98
17, 638566, Note_on_c, 3, 76, 0
17, 638976, Note_on_c, 3, 81, 0
17, 638976, Note_on_c, 3, 78, 98
17, 639488, Note_on_c, 3, 78, 0
17, 639488, Note_on_c, 3, 80, 98
17, 640000, Note_on_c, 3, 80, 0
17, 640000, Note_on_c, 3, 81, 98
17, 640000, Note_on_c, 3, 76, 98
17, 640512, Note_on_c, 3, 81, 0
17, 640512, Note_on_c, 3, 83, 98
17, 640614, Note_on_c, 3, 76, 0
17, 641024, Note_on_c, 3, 83, 0
17, 641024, Note_on_c, 3, 80, 98
17, 641536, Note_on_c, 3, 80, 0
17, 641536, Note_on_c, 3, 81, 98
17, 642048, Note_on_c, 3, 81, 0
17, 642048, Note_on_c, 3, 83, 98
17, 642048, Note_on_c, 3, 76, 98
17, 642560, Note_on_c, 3, 83, 0
17, 642560, Note_on_c, 3, 85, 98
17, 642662, Note_on_c, 3, 76, 0
17, 643072, Note_on_c, 3, 85, 0
17, 643072, Note_on_c, 3, 81, 98
17, 643584, Note_on_c, 3, 81, 0
17, 643584, Note_on_c, 3, 83, 98
17, 644096, Note_on_c, 3, 83, 0
17, 644096, Note_on_c, 3, 85, 98
17, 644096, Note_on_c, 3, 76, 98
17, 644710, Note_on_c, 3, 85, 0
17, 644710, Note_on_c, 3, 76, 0
17, 645120, Note_on_c, 3, 83, 98
17, 645120, Note_on_c, 3, 74, 98
17, 645632, Note_on_c, 3, 83, 0
17, 645632, Note_on_c, 3, 81, 98
17, 645632, Note_on_c, 3, 74, 0
17, 645632, Note_on_c, 3, 73, 98
17, 646144, Note_on_c, 3, 81, 0
17, 646144, Note_on_c, 3, 83, 98
17, 646144, Note_on_c, 3, 73, 0
17, 646144, Note_on_c, 3, 74, 98
17, 646758, Note_on_c, 3, 83, 0
17, 646758, Note_on_c, 3, 74, 0
17, 647168, Note_on_c, 3, 80, 98
17, 647168, Note_on_c, 3, 71, 98
17, 647782, Note_on_c, 3, 80, 0
17, 647782, Note_on_c, 3, 71, 0
17, 648192, Note_on_c, 3, 81, 98
17, 648192, Note_on_c, 3, 73, 98
17, 648806, Note_on_c, 3, 81, 0
17, 648806, Note_on_c, 3, 73, 0
17, 649216, Note_on_c, 3, 69, 98
17, 649216, Note_on_c, 3, 64, 98
17, 649728, Note_on_c, 3, 69, 0
17, 649728, Note_on_c, 3, 73, 98
17, 649728, Note_on_c, 3, 64, 0
17, 649728, Note_on_c, 3, 69, 98
17, 650240, Note_on_c, 3, 73, 0
17, 650240, Note_on_c, 3, 76, 98
17, 650240, Note_on_c, 3, 69, 0
17, 650240, Note_on_c, 3, 73, 98
17, 650854, Note_on_c, 3, 76, 0
17, 650854, Note_on_c, 3, 73, 0
17, 651264, Note_on_c, 3, 73, 98
17, 651264, Note_on_c, 3, 69, 98
17, 651776, Note_on_c, 3, 73, 0
17, 651776, Note_on_c, 3, 76, 98
17, 651776, Note_on_c, 3, 69, 0
17, 651776, Note_on_c, 3, 73, 98
17, 652288, Note_on_c, 3, 76, 0
17, 652288, Note_on_c, 3, 73, 0
17, 652288, Note_on_c, 3, 79, 95
17, 652288, Note_on_c, 3, 76, 95
17, 652902, Note_on_c, 3, 79, 0
17, 652902, Note_on_c, 3, 76, 0
17, 653312, Note_on_c, 3, 69, 93
17, 653312, Note_on_c, 3, 64, 93
17, 653824, Note_on_c, 3, 69, 0
17, 653824, Note_on_c, 3, 73, 92
17, 653824, Note_on_c, 3, 64, 0
17, 653824, Note_on_c, 3, 69, 92
17, 654336, Note_on_c, 3, 73, 0
17, 654336, Note_on_c, 3, 76, 91
17, 654336, Note_on_c, 3, 69, 0
17, 654336, Note_on_c, 3, 73, 91
17, 654950, Note_on_c, 3, 76, 0
17, 654950, Note_on_c, 3, 73, 0
17, 655360, Note_on_c, 3, 73, 88
17, 655360, Note_on_c, 3, 69, 88
17, 655872, Note_on_c, 3, 73, 0
17, 655872, Note_on_c, 3, 76, 87
17, 655872, Note_on_c, 3, 69, 0
17, 655872, Note_on_c, 3, 73, 87
17, 656384, Note_on_c, 3, 76, 0
17, 656384, Note_on_c, 3, 73, 0
17, 656384, Note_on_c, 3, 78, 86
17, 656384, Note_on_c, 3, 74, 86
17, 656998, Note_on_c, 3, 78, 0
17, 656998, Note_on_c, 3, 74, 0
17, 657408, Note_on_c, 3, 74, 77
17, 657408, Note_on_c, 3, 69, 77
17, 657920, Note_on_c, 3, 74, 0
17, 657920, Note_on_c, 3, 78, 79
17, 657920, Note_on_c, 3, 69, 0
17, 657920, Note_on_c, 3, 74, 79
17, 658432, Note_on_c, 3, 78, 0
17, 658432, Note_on_c, 3, 81, 80
17, 658432, Note_on_c, 3, 74, 0
17, 658432, Note_on_c, 3, 78, 80
17, 659046, Note_on_c, 3, 81, 0
17, 659046, Note_on_c, 3, 78, 0
17, 659456, Note_on_c, 3, 78, 83
17, 659456, Note_on_c, 3, 74, 83
17, 659968, Note_on_c, 3, 78, 0
17, 659968, Note_on_c, 3, 81, 85
17, 659968, Note_on_c, 3, 74, 0
17, 659968, Note_on_c, 3, 78, 85
17, 660480, Note_on_c, 3, 81, 0
17, 660480, Note_on_c, 3, 78, 0
17, 660480, Note_on_c, 3, 86, 86
17, 660480, Note_on_c, 3, 81, 86
17, 661094, Note_on_c, 3, 86, 0
17, 661094, Note_on_c, 3, 81, 0
17, 661504, Note_on_c, 3, 74, 89
17, 661504, Note_on_c, 3, 69, 89
17, 662016, Note_on_c, 3, 74, 0
17, 662016, Note_on_c, 3, 78, 91
17, 662016, Note_on_c, 3, 69, 0
17, 662016, Note_on_c, 3, 74, 91
17, 662528, Note_on_c, 3, 78, 0
17, 662528, Note_on_c, 3, 81, 92
17, 662528, Note_on_c, 3, 74, 0
17, 662528, Note_on_c, 3, 78, 92
17, 663142, Note_on_c, 3, 81, 0
17, 663142, Note_on_c, 3, 78, 0
17, 663552, Note_on_c, 3, 78, 96
17, 663552, Note_on_c, 3, 74, 96
17, 664064, Note_on_c, 3, 78, 0
17, 664064, Note_on_c, 3, 81, 97
17, 664064, Note_on_c, 3, 74, 0
17, 664064, Note_on_c, 3, 78, 97
17, 664576, Note_on_c, 3, 81, 0
17, 664576, Note_on_c, 3, 78, 0
17, 664576, Note_on_c, 3, 85, 96
17, 664576, Note_on_c, 3, 81, 96
17, 666624, Note_on_c, 3, 85, 0
17, 666624, Note_on_c, 3, 81, 0
17, 698368, Note_on_c, 3, 81, 68
17, 698368, Note_on_c, 3, 78, 68
17, 698880, Note_on_c, 3, 81, 0
17, 698880, Note_on_c, 3, 78, 68
17, 698880, Note_on_c, 3, 78, 0
17, 698880, Note_on_c, 3, 74, 68
17, 699392, Note_on_c, 3, 78, 0
17, 699392, Note_on_c, 3, 74, 69
17, 699392, Note_on_c, 3, 74, 0
17, 699392, Note_on_c, 3, 69, 69
17, 700006, Note_on_c, 3, 74, 0
17, 700006, Note_on_c, 3, 69, 0
17, 700416, Note_on_c, 3, 78, 70
17, 700416, Note_on_c, 3, 74, 70
17, 700928, Note_on_c, 3, 78, 0
17, 700928, Note_on_c, 3, 74, 71
17, 700928, Note_on_c, 3, 74, 0
17, 700928, Note_on_c, 3, 69, 71
17, 701440, Note_on_c, 3, 74, 0
17, 701440, Note_on_c, 3, 69, 0
17, 701440, Note_on_c, 3, 69, 72
17, 701440, Note_on_c, 3, 66, 72
17, 702054, Note_on_c, 3, 69, 0
17, 702054, Note_on_c, 3, 66, 0
17, 706560, Note_on_c, 3, 79, 78
17, 706560, Note_on_c, 3, 76, 78
17, 707072, Note_on_c, 3, 79, 0
17, 707072, Note_on_c, 3, 76, 79
17, 707072, Note_on_c, 3, 76, 0
17, 707072, Note_on_c, 3, 73, 79
17, 707584, Note_on_c, 3, 76, 0
17, 707584, Note_on_c, 3, 73, 79
17, 707584, Note_on_c, 3, 73, 0
17, 707584, Note_on_c, 3, 69, 79
17, 708198, Note_on_c, 3, 73, 0
17, 708198, Note_on_c, 3, 69, 0
17, 708608, Note_on_c, 3, 76, 81
17, 708608, Note_on_c, 3, 73, 81
17, 709120, Note_on_c, 3, 76, 0
17, 709120, Note_on_c, 3, 73, 81
17, 709120, Note_on_c, 3, 73, 0
17, 709120, Note_on_c, 3, 69, 81
17, 709632, Note_on_c, 3, 73, 0
17, 709632, Note_on_c, 3, 69, 0
17, 709632, Note_on_c, 3, 69, 82
17, 709632, Note_on_c, 3, 64, 82
17, 710246, Note_on_c, 3, 69, 0
17, 710246, Note_on_c, 3, 64, 0
17, 714752, Note_on_c, 3, 78, 88
17, 714752, Note_on_c, 3, 74, 88
17, 715264, Note_on_c, 3, 78, 0
17, 715264, Note_on_c, 3, 74, 89
17, 715264, Note_on_c, 3, 74, 0
17, 715264, Note_on_c, 3, 69, 89
17, 715776, Note_on_c, 3, 74, 0
17, 715776, Note_on_c, 3, 69, 90
17, 715776, Note_on_c, 3, 69, 0
17, 715776, Note_on_c, 3, 66, 90
17, 716390, Note_on_c, 3, 69, 0
17, 716390, Note_on_c, 3, 66, 0
17, 716800, Note_on_c, 3, 74, 91
17, 716800, Note_on_c, 3, 69, 91
17, 717312, Note_on_c, 3, 74, 0
17, 717312, Note_on_c, 3, 69, 91
17, 717312, Note_on_c, 3, 69, 0
17, 717312, Note_on_c, 3, 66, 91
17, 717824, Note_on_c, 3, 69, 0
17, 717824, Note_on_c, 3, 66, 0
17, 717824, Note_on_c, 3, 66, 92
17, 717824, Note_on_c, 3, 62, 92
17, 718438, Note_on_c, 3, 66, 0
17, 718438, Note_on_c, 3, 62, 0
17, 722944, Note_on_c, 3, 76, 94
17, 722944, Note_on_c, 3, 73, 94
17, 723456, Note_on_c, 3, 76, 0
17, 723456, Note_on_c, 3, 73, 94
17, 723456, Note_on_c, 3, 73, 0
17, 723456, Note_on_c, 3, 69, 94
17, 723968, Note_on_c, 3, 73, 0
17, 723968, Note_on_c, 3, 69, 94
17, 723968, Note_on_c, 3, 69, 0
17, 723968, Note_on_c, 3, 64, 94
17, 724582, Note_on_c, 3, 69, 0
17, 724582, Note_on_c, 3, 64, 0
17, 724992, Note_on_c, 3, 73, 94
17, 724992, Note_on_c, 3, 69, 94
17, 725504, Note_on_c, 3, 73, 0
17, 725504, Note_on_c, 3, 69, 94
17, 725504, Note_on_c, 3, 69, 0
17, 725504, Note_on_c, 3, 64, 94
17, 726016, Note_on_c, 3, 69, 0
17, 726016, Note_on_c, 3, 64, 0
17, 726016, Note_on_c, 3, 64, 94
17, 726016, Note_on_c, 3, 61, 94
17, 726630, Note_on_c, 3, 64, 0
17, 726630, Note_on_c, 3, 61, 0
17, 731136, Note_on_c, 3, 62, 83
17, 731648, Note_on_c, 3, 62, 0
17, 731648, Note_on_c, 3, 66, 83
17, 732160, Note_on_c, 3, 66, 0
17, 732160, Note_on_c, 3, 69, 83
17, 732774, Note_on_c, 3, 69, 0
17, 733184, Note_on_c, 3, 66, 83
17, 733696, Note_on_c, 3, 66, 0
17, 733696, Note_on_c, 3, 69, 83
17, 734208, Note_on_c, 3, 69, 0
17, 734208, Note_on_c, 3, 74, 83
17, 734822, Note_on_c, 3, 74, 0
17, 735232, Note_on_c, 3, 66, 83
17, 735232, Note_on_c, 3, 62, 83
17, 735744, Note_on_c, 3, 66, 0
17, 735744, Note_on_c, 3, 69, 83
17, 735744, Note_on_c, 3, 62, 0
17, 735744, Note_on_c, 3, 66, 83
17, 736256, Note_on_c, 3, 69, 0
17, 736256, Note_on_c, 3, 74, 83
17, 736256, Note_on_c, 3, 66, 0
17, 736256, Note_on_c, 3, 69, 83
17, 736870, Note_on_c, 3, 74, 0
17, 736870, Note_on_c, 3, 69, 0
17, 737280, Note_on_c, 3, 69, 83
17, 737280, Note_on_c, 3, 66, 83
17, 737792, Note_on_c, 3, 69, 0
17, 737792, Note_on_c, 3, 74, 83
17, 737792, Note_on_c, 3, 66, 0
17, 737792, Note_on_c, 3, 69, 83
17, 738304, Note_on_c, 3, 74, 0
17, 738304, Note_on_c, 3, 69, 0
17, 738304, Note_on_c, 3, 78, 83
17, 738304, Note_on_c, 3, 74, 83
17, 738918, Note_on_c, 3, 78, 0
17, 738918, Note_on_c, 3, 74, 0
17, 739328, Note_on_c, 3, 69, 83
17, 739328, Note_on_c, 3, 66, 83
17, 739840, Note_on_c, 3, 69, 0
17, 739840, Note_on_c, 3, 74, 83
17, 739840, Note_on_c, 3, 66, 0
17, 739840, Note_on_c, 3, 69, 83
17, 740352, Note_on_c, 3, 74, 0
17, 740352, Note_on_c, 3, 78, 83
17, 740352, Note_on_c, 3, 69, 0
17, 740352, Note_on_c, 3, 74, 83
17, 740966, Note_on_c, 3, 78, 0
17, 740966, Note_on_c, 3, 74, 0
17, 741376, Note_on_c, 3, 81, 83
17, 741376, Note_on_c, 3, 78, 83
17, 741888, Note_on_c, 3, 81, 0
17, 741888, Note_on_c, 3, 78, 83
17, 741888, Note_on_c, 3, 78, 0
17, 741888, Note_on_c, 3, 74, 83
17, 742400, Note_on_c, 3, 78, 0
17, 742400, Note_on_c, 3, 74, 0
17, 742400, Note_on_c, 3, 74, 79
17, 742400, Note_on_c, 3, 69, 79
17, 743014, Note_on_c, 3, 74, 0
17, 743014, Note_on_c, 3, 69, 0
17, 743424, Note_on_c, 3, 78, 81
17, 743424, Note_on_c, 3, 74, 81
17, 743936, Note_on_c, 3, 78, 0
17, 743936, Note_on_c, 3, 74, 82
17, 743936, Note_on_c, 3, 74, 0
17, 743936, Note_on_c, 3, 69, 82
17, 744448, Note_on_c, 3, 74, 0
17, 744448, Note_on_c, 3, 69, 83
17, 744448, Note_on_c, 3, 69, 0
17, 744448, Note_on_c, 3, 66, 83
17, 745062, Note_on_c, 3, 69, 0
17, 745062, Note_on_c, 3, 66, 0
17, 745472, Note_on_c, 3, 74, 86
17, 745472, Note_on_c, 3, 69, 86
17, 745984, Note_on_c, 3, 74, 0
17, 745984, Note_on_c, 3, 78, 87
17, 745984, Note_on_c, 3, 69, 0
17, 745984, Note_on_c, 3, 74, 87
17, 746496, Note_on_c, 3, 78, 0
17, 746496, Note_on_c, 3, 74, 0
17, 746496, Note_on_c, 3, 81, 88
17, 746496, Note_on_c, 3, 78, 88
17, 747110, Note_on_c, 3, 81, 0
17, 747110, Note_on_c, 3, 78, 0
17, 747520, Note_on_c, 3, 81, 90
17, 747520, Note_on_c, 3, 78, 90
17, 748134, Note_on_c, 3, 81, 0
17, 748134, Note_on_c, 3, 78, 0
17, 748544, Note_on_c, 3, 81, 93
17, 748544, Note_on_c, 3, 78, 93
17, 749158, Note_on_c, 3, 81, 0
17, 749158, Note_on_c, 3, 78, 0
17, 749568, Note_on_c, 3, 81, 95
17, 749568, Note_on_c, 3, 78, 95
17, 750182, Note_on_c, 3, 81, 0
17, 750182, Note_on_c, 3, 78, 0
17, 750592, Note_on_c, 3, 81, 98
17, 750592, Note_on_c, 3, 78, 98
17, 751206, Note_on_c, 3, 81, 0
17, 751206, Note_on_c, 3, 78, 0
17, 751616, Note_on_c, 3, 79, 98
17, 751616, Note_on_c, 3, 76, 98
17, 752128, Note_on_c, 3, 79, 0
17, 752128, Note_on_c, 3, 81, 98
17, 752128, Note_on_c, 3, 76, 0
17, 752128, Note_on_c, 3, 78, 98
17, 752640, Note_on_c, 3, 81, 0
17, 752640, Note_on_c, 3, 83, 98
17, 752640, Note_on_c, 3, 78, 0
17, 752640, Note_on_c, 3, 79, 98
17, 753254, Note_on_c, 3, 83, 0
17, 753254, Note_on_c, 3, 79, 0
17, 753664, Note_on_c, 3, 81, 98
17, 753664, Note_on_c, 3, 78, 98
17, 754176, Note_on_c, 3, 81, 0
17, 754176, Note_on_c, 3, 79, 98
17, 754176, Note_on_c, 3, 78, 0
17, 754176, Note_on_c, 3, 76, 98
17, 754688, Note_on_c, 3, 79, 0
17, 754688, Note_on_c, 3, 76, 0
17, 754688, Note_on_c, 3, 81, 98
17, 754688, Note_on_c, 3, 78, 98
17, 755302, Note_on_c, 3, 81, 0
17, 755302, Note_on_c, 3, 78, 0
17, 755712, Note_on_c, 3, 78, 98
17, 755712, Note_on_c, 3, 74, 98
17, 756224, Note_on_c, 3, 78, 0
17, 756224, Note_on_c, 3, 81, 98
17, 756326, Note_on_c, 3, 74, 0
17, 756736, Note_on_c, 3, 81, 0
17, 756736, Note_on_c, 3, 86, 98
17, 757350, Note_on_c, 3, 86, 0
17, 757760, Note_on_c, 3, 81, 97
17, 757760, Note_on_c, 3, 78, 97
17, 758374, Note_on_c, 3, 81, 0
17, 758374, Note_on_c, 3, 78, 0
17, 758784, Note_on_c, 3, 79, 97
17, 758784, Note_on_c, 3, 76, 97
17, 759398, Note_on_c, 3, 79, 0
17, 759398, Note_on_c, 3, 76, 0
17, 759808, Note_on_c, 3, 78, 97
17, 759808, Note_on_c, 3, 74, 97
17, 760320, Note_on_c, 3, 78, 0
17, 760320, Note_on_c, 3, 79, 97
17, 760320, Note_on_c, 3, 74, 0
17, 760320, Note_on_c, 3, 76, 97
17, 760832, Note_on_c, 3, 79, 0
17, 760832, Note_on_c, 3, 81, 97
17, 760832, Note_on_c, 3, 76, 0
17, 760832, Note_on_c, 3, 73, 97
17, 761344, Note_on_c, 3, 81, 0
17, 761344, Note_on_c, 3, 79, 97
17, 761344, Note_on_c, 3, 73, 0
17, 761344, Note_on_c, 3, 76, 97
17, 761856, Note_on_c, 3, 79, 0
17, 761856, Note_on_c, 3, 78, 97
17, 761856, Note_on_c, 3, 76, 0
17, 761856, Note_on_c, 3, 74, 97
17, 762368, Note_on_c, 3, 78, 0
17, 762368, Note_on_c, 3, 76, 97
17, 762368, Note_on_c, 3, 74, 0
17, 762368, Note_on_c, 3, 73, 97
17, 762880, Note_on_c, 3, 76, 0
17, 762880, Note_on_c, 3, 73, 0
17, 762880, Note_on_c, 3, 78, 97
17, 762880, Note_on_c, 3, 74, 97
17, 763494, Note_on_c, 3, 78, 0
17, 763494, Note_on_c, 3, 74, 0
17, 763904, Note_on_c, 3, 74, 79
17, 763904, Note_on_c, 3, 69, 79
17, 764518, Note_on_c, 3, 74, 0
17, 764518, Note_on_c, 3, 69, 0
17, 796672, Note_on_c, 3, 73, 56
17, 796672, Note_on_c, 3, 69, 56
17, 797184, Note_on_c, 3, 73, 0
17, 797184, Note_on_c, 3, 74, 58
17, 797286, Note_on_c, 3, 69, 0
17, 797696, Note_on_c, 3, 74, 0
17, 797696, Note_on_c, 3, 76, 60
17, 797696, Note_on_c, 3, 69, 60
17, 798208, Note_on_c, 3, 76, 0
17, 798208, Note_on_c, 3, 78, 62
17, 798310, Note_on_c, 3, 69, 0
17, 798720, Note_on_c, 3, 78, 0
17, 798720, Note_on_c, 3, 74, 64
17, 798720, Note_on_c, 3, 69, 64
17, 799232, Note_on_c, 3, 74, 0
17, 799232, Note_on_c, 3, 76, 66
17, 799334, Note_on_c, 3, 69, 0
17, 799744, Note_on_c, 3, 76, 0
17, 799744, Note_on_c, 3, 78, 68
17, 799744, Note_on_c, 3, 74, 68
17, 800256, Note_on_c, 3, 78, 0
17, 800256, Note_on_c, 3, 80, 70
17, 800256, Note_on_c, 3, 74, 0
17, 800256, Note_on_c, 3, 76, 70
17, 800768, Note_on_c, 3, 80, 0
17, 800768, Note_on_c, 3, 76, 72
17, 800768, Note_on_c, 3, 76, 0
17, 800768, Note_on_c, 3, 73, 72
17, 801280, Note_on_c, 3, 76, 0
17, 801280, Note_on_c, 3, 78, 74
17, 801280, Note_on_c, 3, 73, 0
17, 801280, Note_on_c, 3, 74, 74
17, 801792, Note_on_c, 3, 78, 0
17, 801792, Note_on_c, 3, 80, 76
17, 801792, Note_on_c, 3, 74, 0
17, 801792, Note_on_c, 3, 71, 76
17, 802304, Note_on_c, 3, 80, 0
17, 802304, Note_on_c, 3, 81, 77
17, 802304, Note_on_c, 3, 71, 0
17, 802304, Note_on_c, 3, 73, 77
17, 802816, Note_on_c, 3, 81, 0
17, 802816, Note_on_c, 3, 78, 79
17, 802816, Note_on_c, 3, 73, 0
17, 802816, Note_on_c, 3, 69, 79
17, 803328, Note_on_c, 3, 78, 0
17, 803328, Note_on_c, 3, 80, 81
17, 803328, Note_on_c, 3, 69, 0
17, 803328, Note_on_c, 3, 71, 81
17, 803840, Note_on_c, 3, 80, 0
17, 803840, Note_on_c, 3, 71, 0
17, 803840, Note_on_c, 3, 81, 85
17, 803840, Note_on_c, 3, 73, 85
17, 804352, Note_on_c, 3, 81, 0
17, 804352, Note_on_c, 3, 83, 85
17, 804352, Note_on_c, 3, 73, 0
17, 804352, Note_on_c, 3, 74, 85
17, 804864, Note_on_c, 3, 83, 0
17, 804864, Note_on_c, 3, 80, 86
17, 804864, Note_on_c, 3, 74, 0
17, 804864, Note_on_c, 3, 76, 86
17, 805376, Note_on_c, 3, 80, 0
17, 805376, Note_on_c, 3, 81, 86
17, 805376, Note_on_c, 3, 76, 0
17, 805376, Note_on_c, 3, 73, 86
17, 805888, Note_on_c, 3, 81, 0
17, 805888, Note_on_c, 3, 83, 86
17, 805888, Note_on_c, 3, 73, 0
17, 805888, Note_on_c, 3, 74, 86
17, 806400, Note_on_c, 3, 83, 0
17, 806400, Note_on_c, 3, 85, 87
17, 806502, Note_on_c, 3, 74, 0
17, 806912, Note_on_c, 3, 85, 0
17, 806912, Note_on_c, 3, 81, 87
17, 806912, Note_on_c, 3, 68, 87
17, 807424, Note_on_c, 3, 81, 0
17, 807424, Note_on_c, 3, 83, 88
17, 807526, Note_on_c, 3, 68, 0
17, 807936, Note_on_c, 3, 83, 0
17, 807936, Note_on_c, 3, 85, 88
17, 807936, Note_on_c, 3, 76, 88
17, 808550, Note_on_c, 3, 85, 0
17, 808550, Note_on_c, 3, 76, 0
17, 808960, Note_on_c, 3, 83, 89
17, 808960, Note_on_c, 3, 74, 89
17, 809472, Note_on_c, 3, 83, 0
17, 809472, Note_on_c, 3, 81, 90
17, 809472, Note_on_c, 3, 74, 0
17, 809472, Note_on_c, 3, 73, 90
17, 809984, Note_on_c, 3, 81, 0
17, 809984, Note_on_c, 3, 83, 90
17, 809984, Note_on_c, 3, 73, 0
17, 809984, Note_on_c, 3, 74, 90
17, 810598, Note_on_c, 3, 83, 0
17, 810598, Note_on_c, 3, 74, 0
17, 811008, Note_on_c, 3, 80, 91
17, 811008, Note_on_c, 3, 71, 91
17, 811622, Note_on_c, 3, 80, 0
17, 811622, Note_on_c, 3, 71, 0
17, 812032, Note_on_c, 3, 81, 92
17, 812032, Note_on_c, 3, 73, 92
17, 812646, Note_on_c, 3, 81, 0
17, 812646, Note_on_c, 3, 73, 0
17, 815104, Note_on_c, 3, 81, 36
17, 815104, Note_on_c, 3, 76, 36
17, 815616, Note_on_c, 3, 81, 0
17, 815616, Note_on_c, 3, 76, 36
17, 815616, Note_on_c, 3, 76, 0
17, 815616, Note_on_c, 3, 73, 36
17, 816128, Note_on_c, 3, 76, 0
17, 816128, Note_on_c, 3, 73, 0
17, 816128, Note_on_c, 3, 73, 36
17, 816128, Note_on_c, 3, 69, 36
17, 816742, Note_on_c, 3, 73, 0
17, 816742, Note_on_c, 3, 69, 0
17, 819200, Note_on_c, 3, 76, 36
17, 819200, Note_on_c, 3, 73, 36
17, 819712, Note_on_c, 3, 76, 0
17, 819712, Note_on_c, 3, 73, 36
17, 819712, Note_on_c, 3, 73, 0
17, 819712, Note_on_c, 3, 69, 36
17, 820224, Note_on_c, 3, 73, 0
17, 820224, Note_on_c, 3, 69, 0
17, 820224, Note_on_c, 3, 69, 36
17, 820224, Note_on_c, 3, 64, 36
17, 820838, Note_on_c, 3, 69, 0
17, 820838, Note_on_c, 3, 64, 0
17, 821248, Note_on_c, 3, 64, 39
17, 821760, Note_on_c, 3, 64, 0
17, 821760, Note_on_c, 3, 69, 41
17, 822272, Note_on_c, 3, 69, 0
17, 822272, Note_on_c, 3, 73, 43
17, 822886, Note_on_c, 3, 73, 0
17, 823296, Note_on_c, 3, 69, 47
17, 823808, Note_on_c, 3, 69, 0
17, 823808, Note_on_c, 3, 73, 48
17, 824320, Note_on_c, 3, 73, 0
17, 824320, Note_on_c, 3, 76, 50
17, 824934, Note_on_c, 3, 76, 0
17, 825344, Note_on_c, 3, 69, 54
17, 825344, Note_on_c, 3, 64, 54
17, 825856, Note_on_c, 3, 69, 0
17, 825856, Note_on_c, 3, 73, 56
17, 825856, Note_on_c, 3, 64, 0
17, 825856, Note_on_c, 3, 69, 56
17, 826368, Note_on_c, 3, 73, 0
17, 826368, Note_on_c, 3, 76, 58
17, 826368, Note_on_c, 3, 69, 0
17, 826368, Note_on_c, 3, 73, 58
17, 826982, Note_on_c, 3, 76, 0
17, 826982, Note_on_c, 3, 73, 0
17, 827392, Note_on_c, 3, 73, 61
17, 827392, Note_on_c, 3, 69, 61
17, 827904, Note_on_c, 3, 73, 0
17, 827904, Note_on_c, 3, 76, 63
17, 827904, Note_on_c, 3, 69, 0
17, 827904, Note_on_c, 3, 73, 63
17, 828416, Note_on_c, 3, 76, 0
17, 828416, Note_on_c, 3, 73, 0
17, 828416, Note_on_c, 3, 81, 65
17, 828416, Note_on_c, 3, 76, 65
17, 829030, Note_on_c, 3, 81, 0
17, 829030, Note_on_c, 3, 76, 0
17, 829440, Note_on_c, 3, 76, 64
17, 829440, Note_on_c, 3, 73, 64
17, 830054, Note_on_c, 3, 76, 0
17, 830054, Note_on_c, 3, 73, 0
17, 830464, Note_on_c, 3, 76, 64
17, 830464, Note_on_c, 3, 73, 64
17, 831078, Note_on_c, 3, 76, 0
17, 831078, Note_on_c, 3, 73, 0
17, 831488, Note_on_c, 3, 76, 64
17, 831488, Note_on_c, 3, 73, 64
17, 832102, Note_on_c, 3, 76, 0
17, 832102, Note_on_c, 3, 73, 0
17, 832512, Note_on_c, 3, 76, 64
17, 832512, Note_on_c, 3, 73, 64
17, 833126, Note_on_c, 3, 76, 0
17, 833126, Note_on_c, 3, 73, 0
17, 833536, Note_on_c, 3, 74, 64
17, 833536, Note_on_c, 3, 69, 64
17, 834048, Note_on_c, 3, 74, 0
17, 834048, Note_on_c, 3, 76, 64
17, 834150, Note_on_c, 3, 69, 0
17, 834560, Note_on_c, 3, 76, 0
17, 834560, Note_on_c, 3, 78, 64
17, 834560, Note_on_c, 3, 69, 64
17, 835174, Note_on_c, 3, 78, 0
17, 835174, Note_on_c, 3, 69, 0
17, 835584, Note_on_c, 3, 76, 64
17, 835584, Note_on_c, 3, 69, 64
17, 836096, Note_on_c, 3, 76, 0
17, 836096, Note_on_c, 3, 74, 64
17, 836198, Note_on_c, 3, 69, 0
17, 836608, Note_on_c, 3, 74, 0
17, 836608, Note_on_c, 3, 76, 64
17, 836608, Note_on_c, 3, 69, 64
17, 837222, Note_on_c, 3, 76, 0
17, 837222, Note_on_c, 3, 69, 0
17, 837632, Note_on_c, 3, 73, 64
17, 837632, Note_on_c, 3, 73, 64
17, 838144, Note_on_c, 3, 73, 0
17, 838144, Note_on_c, 3, 76, 64
17, 838144, Note_on_c, 3, 73, 0
17, 838144, Note_on_c, 3, 76, 64
17, 838656, Note_on_c, 3, 76, 0
17, 838656, Note_on_c, 3, 81, 64
17, 838656, Note_on_c, 3, 76, 0
17, 838656, Note_on_c, 3, 81, 64
17, 839270, Note_on_c, 3, 81, 0
17, 839270, Note_on_c, 3, 81, 0
17, 839680, Note_on_c, 3, 76, 64
17, 839680, Note_on_c, 3, 73, 64
17, 840294, Note_on_c, 3, 76, 0
17, 840294, Note_on_c, 3, 73, 0
17, 840704, Note_on_c, 3, 74, 62
17, 840704, Note_on_c, 3, 71, 62
17, 841318, Note_on_c, 3, 74, 0
17, 841318, Note_on_c, 3, 71, 0
17, 841728, Note_on_c, 3, 73, 58
17, 841728, Note_on_c, 3, 69, 58
17, 842240, Note_on_c, 3, 73, 0
17, 842240, Note_on_c, 3, 74, 57
17, 842240, Note_on_c, 3, 69, 0
17, 842240, Note_on_c, 3, 71, 57
17, 842752, Note_on_c, 3, 74, 0
17, 842752, Note_on_c, 3, 76, 55
17, 842752, Note_on_c, 3, 71, 0
17, 842752, Note_on_c, 3, 68, 55
17, 843264, Note_on_c, 3, 76, 0
17, 843264, Note_on_c, 3, 74, 53
17, 843264, Note_on_c, 3, 68, 0
17, 843264, Note_on_c, 3, 71, 53
17, 843776, Note_on_c, 3, 74, 0
17, 843776, Note_on_c, 3, 73, 52
17, 843776, Note_on_c, 3, 71, 0
17, 843776, Note_on_c, 3, 69, 52
17, 844288, Note_on_c, 3, 73, 0
17, 844288, Note_on_c, 3, 71, 50
17, 844288, Note_on_c, 3, 69, 0
17, 844288, Note_on_c, 3, 68, 50
17, 844800, Note_on_c, 3, 71, 0
17, 844800, Note_on_c, 3, 68, 0
17, 844800, Note_on_c, 3, 73, 48
17, 844800, Note_on_c, 3, 69, 48
17, 845414, Note_on_c, 3, 73, 0
17, 845414, Note_on_c, 3, 69, 0
17, 845824, Note_on_c, 3, 69, 42
17, 845824, Note_on_c, 3, 64, 42
17, 846438, Note_on_c, 3, 69, 0
17, 846438, Note_on_c, 3, 64, 0
17, 878592, Note_on_c, 3, 76, 46
17, 878592, Note_on_c, 3, 73, 46
17, 879104, Note_on_c, 3, 76, 0
17, 879104, Note_on_c, 3, 73, 46
17, 879104, Note_on_c, 3, 73, 0
17, 879104, Note_on_c, 3, 69, 46
17, 879616, Note_on_c, 3, 73, 0
17, 879616, Note_on_c, 3, 69, 46
17, 879616, Note_on_c, 3, 69, 0
17, 879616, Note_on_c, 3, 64, 46
17, 880230, Note_on_c, 3, 69, 0
17, 880230, Note_on_c, 3, 64, 0
17, 880640, Note_on_c, 3, 73, 46
17, 880640, Note_on_c, 3, 69, 46
17, 881152, Note_on_c, 3, 73, 0
17, 881152, Note_on_c, 3, 69, 47
17, 881152, Note_on_c, 3, 69, 0
17, 881152, Note_on_c, 3, 64, 47
17, 881664, Note_on_c, 3, 69, 0
17, 881664, Note_on_c, 3, 64, 0
17, 881664, Note_on_c, 3, 64, 47
17, 881664, Note_on_c, 3, 64, 47
17, 882278, Note_on_c, 3, 64, 0
17, 882278, Note_on_c, 3, 64, 0
17, 886784, Note_on_c, 3, 74, 48
17, 886784, Note_on_c, 3, 71, 48
17, 887296, Note_on_c, 3, 74, 0
17, 887296, Note_on_c, 3, 71, 49
17, 887296, Note_on_c, 3, 71, 0
17, 887296, Note_on_c, 3, 68, 49
17, 887808, Note_on_c, 3, 71, 0
17, 887808, Note_on_c, 3, 68, 49
17, 887808, Note_on_c, 3, 68, 0
17, 887808, Note_on_c, 3, 64, 49
17, 888422, Note_on_c, 3, 68, 0
17, 888422, Note_on_c, 3, 64, 0
17, 888832, Note_on_c, 3, 71, 49
17, 888832, Note_on_c, 3, 68, 49
17, 889344, Note_on_c, 3, 71, 0
17, 889344, Note_on_c, 3, 68, 49
17, 889344, Note_on_c, 3, 68, 0
17, 889344, Note_on_c, 3, 71, 49
17, 889856, Note_on_c, 3, 68, 0
17, 889856, Note_on_c, 3, 71, 0
17, 889856, Note_on_c, 3, 64, 50
17, 889856, Note_on_c, 3, 74, 50
17, 890470, Note_on_c, 3, 64, 0
17, 890470, Note_on_c, 3, 74, 0
17, 890880, Note_on_c, 3, 73, 50
17, 891392, Note_on_c, 3, 73, 0
17, 891392, Note_on_c, 3, 74, 50
17, 891904, Note_on_c, 3, 74, 0
17, 891904, Note_on_c, 3, 76, 50
17, 892416, Note_on_c, 3, 76, 0
17, 892416, Note_on_c, 3, 74, 50
17, 892928, Note_on_c, 3, 74, 0
17, 892928, Note_on_c, 3, 73, 51
17, 893440, Note_on_c, 3, 73, 0
17, 893440, Note_on_c, 3, 71, 51
17, 893952, Note_on_c, 3, 71, 0
17, 893952, Note_on_c, 3, 73, 51
17, 894464, Note_on_c, 3, 73, 0
17, 894464, Note_on_c, 3, 71, 51
17, 894976, Note_on_c, 3, 69, 51
17, 894976, Note_on_c, 3, 71, 0
17, 894976, Note_on_c, 3, 69, 51
17, 895488, Note_on_c, 3, 69, 0
17, 895488, Note_on_c, 3, 73, 52
17, 896000, Note_on_c, 3, 73, 0
17, 896000, Note_on_c, 3, 76, 52
17, 896512, Note_on_c, 3, 69, 0
17, 896512, Note_on_c, 3, 71, 52
17, 896614, Note_on_c, 3, 76, 0
17, 897024, Note_on_c, 3, 73, 52
17, 897024, Note_on_c, 3, 71, 0
17, 897024, Note_on_c, 3, 69, 52
17, 897536, Note_on_c, 3, 73, 0
17, 897536, Note_on_c, 3, 76, 52
17, 898048, Note_on_c, 3, 76, 0
17, 898048, Note_on_c, 3, 79, 52
17, 898560, Note_on_c, 3, 69, 0
17, 898560, Note_on_c, 3, 71, 52
17, 898662, Note_on_c, 3, 79, 0
17, 899072, Note_on_c, 3, 78, 52
17, 899072, Note_on_c, 3, 71, 0
17, 899072, Note_on_c, 3, 69, 52
17, 899584, Note_on_c, 3, 78, 0
17, 899584, Note_on_c, 3, 79, 52
17, 899584, Note_on_c, 3, 69, 0
17, 899584, Note_on_c, 3, 71, 52
17, 900096, Note_on_c, 3, 79, 0
17, 900096, Note_on_c, 3, 81, 52
17, 900096, Note_on_c, 3, 71, 0
17, 900096, Note_on_c, 3, 69, 52
17, 900608, Note_on_c, 3, 81, 0
17, 900608, Note_on_c, 3, 79, 52
17, 900608, Note_on_c, 3, 69, 0
17, 900608, Note_on_c, 3, 71, 52
17, 901120, Note_on_c, 3, 79, 0
17, 901120, Note_on_c, 3, 78, 52
17, 901120, Note_on_c, 3, 71, 0
17, 901120, Note_on_c, 3, 69, 52
17, 901632, Note_on_c, 3, 78, 0
17, 901632, Note_on_c, 3, 76, 53
17, 901632, Note_on_c, 3, 69, 0
17, 901632, Note_on_c, 3, 71, 53
17, 902144, Note_on_c, 3, 76, 0
17, 902144, Note_on_c, 3, 71, 0
17, 902144, Note_on_c, 3, 78, 53
17, 902144, Note_on_c, 3, 69, 53
17, 902758, Note_on_c, 3, 78, 0
17, 902758, Note_on_c, 3, 69, 0
17, 903168, Note_on_c, 3, 81, 53
17, 903168, Note_on_c, 3, 78, 53
17, 903680, Note_on_c, 3, 81, 0
17, 903680, Note_on_c, 3, 78, 53
17, 903680, Note_on_c, 3, 78, 0
17, 903680, Note_on_c, 3, 74, 53
17, 904192, Note_on_c, 3, 78, 0
17, 904192, Note_on_c, 3, 74, 54
17, 904192, Note_on_c, 3, 74, 0
17, 904192, Note_on_c, 3, 69, 54
17, 904806, Note_on_c, 3, 74, 0
17, 904806, Note_on_c, 3, 69, 0
17, 905216, Note_on_c, 3, 78, 54
17, 905216, Note_on_c, 3, 74, 54
17, 905728, Note_on_c, 3, 78, 0
17, 905728, Note_on_c, 3, 74, 54
17, 905728, Note_on_c, 3, 74, 0
17, 905728, Note_on_c, 3, 69, 54
17, 906240, Note_on_c, 3, 74, 0
17, 906240, Note_on_c, 3, 69, 0
17, 906240, Note_on_c, 3, 69, 54
17, 906240, Note_on_c, 3, 66, 54
17, 906854, Note_on_c, 3, 69, 0
17, 906854, Note_on_c, 3, 66, 0
17, 907264, Note_on_c, 3, 74, 55
17, 907264, Note_on_c, 3, 69, 55
17, 907776, Note_on_c, 3, 74, 0
17, 907776, Note_on_c, 3, 78, 55
17, 907776, Note_on_c, 3, 69, 0
17, 907776, Note_on_c, 3, 74, 55
17, 908288, Note_on_c, 3, 78, 0
17, 908288, Note_on_c, 3, 81, 55
17, 908288, Note_on_c, 3, 74, 0
17, 908288, Note_on_c, 3, 78, 55
17, 908902, Note_on_c, 3, 81, 0
17, 908902, Note_on_c, 3, 78, 0
17, 909312, Note_on_c, 3, 79, 55
17, 909312, Note_on_c, 3, 74, 55
17, 909824, Note_on_c, 3, 79, 0
17, 909824, Note_on_c, 3, 81, 55
17, 909824, Note_on_c, 3, 74, 0
17, 909824, Note_on_c, 3, 78, 55
17, 910336, Note_on_c, 3, 81, 0
17, 910336, Note_on_c, 3, 78, 0
17, 910336, Note_on_c, 3, 83, 56
17, 910336, Note_on_c, 3, 79, 56
17, 910950, Note_on_c, 3, 83, 0
17, 910950, Note_on_c, 3, 79, 0
17, 913408, Note_on_c, 3, 83, 57
17, 913408, Note_on_c, 3, 71, 57
17, 913920, Note_on_c, 3, 83, 0
17, 913920, Note_on_c, 3, 79, 57
17, 913920, Note_on_c, 3, 71, 0
17, 913920, Note_on_c, 3, 71, 57
17, 914432, Note_on_c, 3, 79, 0
17, 914432, Note_on_c, 3, 71, 0
17, 914432, Note_on_c, 3, 76, 57
17, 914432, Note_on_c, 3, 71, 57
17, 915046, Note_on_c, 3, 76, 0
17, 915046, Note_on_c, 3, 71, 0
17, 917504, Note_on_c, 3, 78, 58
17, 917504, Note_on_c, 3, 73, 58
17, 918016, Note_on_c, 3, 78, 0
17, 918016, Note_on_c, 3, 79, 58
17, 918016, Note_on_c, 3, 73, 0
17, 918016, Note_on_c, 3, 76, 58
17, 918528, Note_on_c, 3, 79, 0
17, 918528, Note_on_c, 3, 76, 0
17, 918528, Note_on_c, 3, 81, 57
17, 918528, Note_on_c, 3, 78, 57
17, 919142, Note_on_c, 3, 81, 0
17, 919142, Note_on_c, 3, 78, 0
17, 921600, Note_on_c, 3, 81, 63
17, 921600, Note_on_c, 3, 69, 63
17, 922112, Note_on_c, 3, 81, 0
17, 922112, Note_on_c, 3, 78, 64
17, 922112, Note_on_c, 3, 69, 0
17, 922112, Note_on_c, 3, 69, 64
17, 922624, Note_on_c, 3, 78, 0
17, 922624, Note_on_c, 3, 69, 0
17, 922624, Note_on_c, 3, 74, 65
17, 922624, Note_on_c, 3, 69, 65
17, 923238, Note_on_c, 3, 74, 0
17, 923238, Note_on_c, 3, 69, 0
17, 925696, Note_on_c, 3, 76, 72
17, 925696, Note_on_c, 3, 71, 72
17, 926208, Note_on_c, 3, 76, 0
17, 926208, Note_on_c, 3, 78, 73
17, 926208, Note_on_c, 3, 71, 0
17, 926208, Note_on_c, 3, 74, 73
17, 926720, Note_on_c, 3, 78, 0
17, 926720, Note_on_c, 3, 74, 0
17, 926720, Note_on_c, 3, 79, 74
17, 926720, Note_on_c, 3, 76, 74
17, 927334, Note_on_c, 3, 79, 0
17, 927334, Note_on_c, 3, 76, 0
17, 929792, Note_on_c, 3, 79, 76
17, 929792, Note_on_c, 3, 76, 76
17, 930304, Note_on_c, 3, 79, 0
17, 930304, Note_on_c, 3, 78, 76
17, 930304, Note_on_c, 3, 76, 0
17, 930304, Note_on_c, 3, 74, 76
17, 930816, Note_on_c, 3, 78, 0
17, 930816, Note_on_c, 3, 74, 0
17, 930816, Note_on_c, 3, 79, 76
17, 930816, Note_on_c, 3, 76, 76
17, 931430, Note_on_c, 3, 79, 0
17, 931430, Note_on_c, 3, 76, 0
17, 933888, Note_on_c, 3, 79, 77
17, 933888, Note_on_c, 3, 73, 77
17, 934400, Note_on_c, 3, 79, 0
17, 934400, Note_on_c, 3, 78, 78
17, 934400, Note_on_c, 3, 73, 0
17, 934400, Note_on_c, 3, 74, 78
17, 934912, Note_on_c, 3, 78, 0
17, 934912, Note_on_c, 3, 74, 0
17, 934912, Note_on_c, 3, 79, 78
17, 934912, Note_on_c, 3, 76, 78
17, 935526, Note_on_c, 3, 79, 0
17, 935526, Note_on_c, 3, 76, 0
17, 935936, Note_on_c, 3, 73, 78
17, 936448, Note_on_c, 3, 73, 0
17, 936448, Note_on_c, 3, 76, 78
17, 936960, Note_on_c, 3, 76, 0
17, 936960, Note_on_c, 3, 79, 79
17, 937574, Note_on_c, 3, 79, 0
17, 937984, Note_on_c, 3, 79, 79
17, 937984, Note_on_c, 3, 69, 79
17, 938496, Note_on_c, 3, 69, 0
17, 938496, Note_on_c, 3, 73, 79
17, 938598, Note_on_c, 3, 79, 0
17, 939008, Note_on_c, 3, 73, 0
17, 939008, Note_on_c, 3, 79, 79
17, 939008, Note_on_c, 3, 76, 79
17, 939622, Note_on_c, 3, 79, 0
17, 939622, Note_on_c, 3, 76, 0
17, 940032, Note_on_c, 3, 73, 80
17, 940544, Note_on_c, 3, 73, 0
17, 940544, Note_on_c, 3, 76, 80
17, 941056, Note_on_c, 3, 76, 0
17, 941056, Note_on_c, 3, 79, 80
17, 941670, Note_on_c, 3, 79, 0
17, 942080, Note_on_c, 3, 79, 81
17, 942080, Note_on_c, 3, 73, 81
17, 942592, Note_on_c, 3, 73, 0
17, 942592, Note_on_c, 3, 76, 81
17, 942694, Note_on_c, 3, 79, 0
17, 943104, Note_on_c, 3, 76, 0
17, 943104, Note_on_c, 3, 78, 81
17, 943104, Note_on_c, 3, 74, 81
17, 943616, Note_on_c, 3, 78, 0
17, 943616, Note_on_c, 3, 76, 81
17, 943718, Note_on_c, 3, 74, 0
17, 944128, Note_on_c, 3, 76, 0
17, 944128, Note_on_c, 3, 74, 81
17, 944128, Note_on_c, 3, 69, 81
17, 944640, Note_on_c, 3, 74, 0
17, 944640, Note_on_c, 3, 76, 82
17, 944742, Note_on_c, 3, 69, 0
17, 945152, Note_on_c, 3, 76, 0
17, 945152, Note_on_c, 3, 78, 82
17, 945152, Note_on_c, 3, 74, 82
17, 945664, Note_on_c, 3, 78, 0
17, 945664, Note_on_c, 3, 79, 82
17, 945664, Note_on_c, 3, 74, 0
17, 945664, Note_on_c, 3, 76, 82
17, 946176, Note_on_c, 3, 79, 0
17, 946176, Note_on_c, 3, 81, 82
17, 946176, Note_on_c, 3, 76, 0
17, 946176, Note_on_c, 3, 78, 82
17, 946688, Note_on_c, 3, 81, 0
17, 946688, Note_on_c, 3, 83, 83
17, 946688, Note_on_c, 3, 78, 0
17, 946688, Note_on_c, 3, 79, 83
17, 947200, Note_on_c, 3, 83, 0
17, 947200, Note_on_c, 3, 79, 0
17, 947200, Note_on_c, 3, 81, 83
17, 947200, Note_on_c, 3, 78, 83
17, 947814, Note_on_c, 3, 81, 0
17, 947814, Note_on_c, 3, 78, 0
17, 948224, Note_on_c, 3, 79, 83
17, 948224, Note_on_c, 3, 76, 83
17, 948736, Note_on_c, 3, 79, 0
17, 948736, Note_on_c, 3, 78, 83
17, 948736, Note_on_c, 3, 76, 0
17, 948736, Note_on_c, 3, 74, 83
17, 949248, Note_on_c, 3, 78, 0
17, 949248, Note_on_c, 3, 79, 84
17, 949248, Note_on_c, 3, 74, 0
17, 949248, Note_on_c, 3, 76, 84
17, 949862, Note_on_c, 3, 79, 0
17, 949862, Note_on_c, 3, 76, 0
17, 950272, Note_on_c, 3, 78, 84
17, 950272, Note_on_c, 3, 74, 84
17, 950784, Note_on_c, 3, 78, 0
17, 950784, Note_on_c, 3, 76, 84
17, 950784, Note_on_c, 3, 74, 0
17, 950784, Note_on_c, 3, 73, 84
17, 951296, Note_on_c, 3, 76, 0
17, 951296, Note_on_c, 3, 73, 0
17, 951296, Note_on_c, 3, 78, 84
17, 951296, Note_on_c, 3, 74, 84
17, 951910, Note_on_c, 3, 78, 0
17, 951910, Note_on_c, 3, 74, 0
17, 952320, Note_on_c, 3, 74, 76
17, 952320, Note_on_c, 3, 69, 76
17, 952934, Note_on_c, 3, 74, 0
17, 952934, Note_on_c, 3, 69, 0
17, 969728, Note_on_c, 3, 73, 38
17, 969728, Note_on_c, 3, 69, 38
17, 970240, Note_on_c, 3, 73, 0
17, 970240, Note_on_c, 3, 74, 38
17, 970240, Note_on_c, 3, 69, 0
17, 970240, Note_on_c, 3, 71, 38
17, 970752, Note_on_c, 3, 74, 0
17, 970752, Note_on_c, 3, 71, 38
17, 970752, Note_on_c, 3, 71, 0
17, 970752, Note_on_c, 3, 67, 38
17, 971264, Note_on_c, 3, 71, 0
17, 971264, Note_on_c, 3, 73, 38
17, 971264, Note_on_c, 3, 67, 0
17, 971264, Note_on_c, 3, 69, 38
17, 971776, Note_on_c, 3, 73, 0
17, 971776, Note_on_c, 3, 69, 0
17, 971776, Note_on_c, 3, 74, 38
17, 971776, Note_on_c, 3, 71, 38
17, 972288, Note_on_c, 3, 74, 0
17, 972288, Note_on_c, 3, 76, 38
17, 972288, Note_on_c, 3, 71, 0
17, 972288, Note_on_c, 3, 73, 38
17, 972800, Note_on_c, 3, 76, 0
17, 972800, Note_on_c, 3, 73, 38
17, 972800, Note_on_c, 3, 73, 0
17, 972800, Note_on_c, 3, 69, 38
17, 973312, Note_on_c, 3, 73, 0
17, 973312, Note_on_c, 3, 74, 38
17, 973312, Note_on_c, 3, 69, 0
17, 973312, Note_on_c, 3, 71, 38
17, 973824, Note_on_c, 3, 74, 0
17, 973824, Note_on_c, 3, 76, 38
17, 973824, Note_on_c, 3, 71, 0
17, 973824, Note_on_c, 3, 73, 38
17, 974336, Note_on_c, 3, 76, 0
17, 974336, Note_on_c, 3, 78, 38
17, 974336, Note_on_c, 3, 73, 0
17, 974336, Note_on_c, 3, 74, 38
17, 974848, Note_on_c, 3, 78, 0
17, 974848, Note_on_c, 3, 74, 38
17, 974848, Note_on_c, 3, 74, 0
17, 974848, Note_on_c, 3, 71, 38
17, 975360, Note_on_c, 3, 74, 0
17, 975360, Note_on_c, 3, 76, 38
17, 975360, Note_on_c, 3, 71, 0
17, 975360, Note_on_c, 3, 73, 38
17, 975872, Note_on_c, 3, 76, 0
17, 975872, Note_on_c, 3, 73, 0
17, 975872, Note_on_c, 3, 78, 38
17, 975872, Note_on_c, 3, 74, 38
17, 976384, Note_on_c, 3, 78, 0
17, 976384, Note_on_c, 3, 79, 39
17, 976384, Note_on_c, 3, 74, 0
17, 976384, Note_on_c, 3, 76, 39
17, 976896, Note_on_c, 3, 79, 0
17, 976896, Note_on_c, 3, 76, 39
17, 976896, Note_on_c, 3, 76, 0
17, 976896, Note_on_c, 3, 73, 39
17, 977408, Note_on_c, 3, 76, 0
17, 977408, Note_on_c, 3, 78, 39
17, 977408, Note_on_c, 3, 73, 0
17, 977408, Note_on_c, 3, 74, 39
17, 977920, Note_on_c, 3, 78, 0
17, 977920, Note_on_c, 3, 74, 39
17, 977920, Note_on_c, 3, 74, 0
17, 977920, Note_on_c, 3, 71, 39
17, 978534, Note_on_c, 3, 74, 0
17, 978534, Note_on_c, 3, 71, 0
17, 978944, Note_on_c, 3, 74, 39
17, 978944, Note_on_c, 3, 71, 39
17, 979558, Note_on_c, 3, 74, 0
17, 979558, Note_on_c, 3, 71, 0
17, 979968, Note_on_c, 3, 76, 39
17, 979968, Note_on_c, 3, 69, 39
17, 980582, Note_on_c, 3, 76, 0
17, 980582, Note_on_c, 3, 69, 0
17, 980992, Note_on_c, 3, 76, 39
17, 980992, Note_on_c, 3, 69, 39
17, 981606, Note_on_c, 3, 76, 0
17, 981606, Note_on_c, 3, 69, 0
17, 982016, Note_on_c, 3, 78, 39
17, 982016, Note_on_c, 3, 81, 39
17, 982630, Note_on_c, 3, 78, 0
17, 982630, Note_on_c, 3, 81, 0
17, 983040, Note_on_c, 3, 78, 39
17, 983040, Note_on_c, 3, 81, 39
17, 983654, Note_on_c, 3, 78, 0
17, 983654, Note_on_c, 3, 81, 0
17, 984064, Note_on_c, 3, 79, 39
17, 984064, Note_on_c, 3, 79, 39
17, 984576, Note_on_c, 3, 79, 0
17, 984576, Note_on_c, 3, 81, 39
17, 984678, Note_on_c, 3, 79, 0
17, 985088, Note_on_c, 3, 67, 39
17, 985088, Note_on_c, 3, 81, 0
17, 985088, Note_on_c, 3, 78, 39
17, 985600, Note_on_c, 3, 78, 0
17, 985600, Note_on_c, 3, 79, 39
17, 985702, Note_on_c, 3, 67, 0
17, 986112, Note_on_c, 3, 79, 39
17, 986112, Note_on_c, 3, 79, 0
17, 986112, Note_on_c, 3, 76, 39
17, 986726, Note_on_c, 3, 79, 0
17, 986726, Note_on_c, 3, 76, 0
17, 987136, Note_on_c, 3, 79, 42
17, 987136, Note_on_c, 3, 76, 42
17, 987750, Note_on_c, 3, 79, 0
17, 987750, Note_on_c, 3, 76, 0
17, 988160, Note_on_c, 3, 79, 44
17, 988160, Note_on_c, 3, 76, 44
17, 988774, Note_on_c, 3, 79, 0
17, 988774, Note_on_c, 3, 76, 0
17, 989184, Note_on_c, 3, 79, 47
17, 989184, Note_on_c, 3, 76, 47
17, 989798, Note_on_c, 3, 79, 0
17, 989798, Note_on_c, 3, 76, 0
17, 990208, Note_on_c, 3, 78, 50
17, 990208, Note_on_c, 3, 74, 50
17, 990822, Note_on_c, 3, 78, 0
17, 990822, Note_on_c, 3, 74, 0
17, 991232, Note_on_c, 3, 78, 53
17, 991232, Note_on_c, 3, 74, 53
17, 991846, Note_on_c, 3, 78, 0
17, 991846, Note_on_c, 3, 74, 0
17, 992256, Note_on_c, 3, 76, 56
17, 992256, Note_on_c, 3, 74, 56
17, 992870, Note_on_c, 3, 76, 0
17, 992870, Note_on_c, 3, 74, 0
17, 993280, Note_on_c, 3, 69, 59
17, 993280, Note_on_c, 3, 73, 59
17, 993792, Note_on_c, 3, 73, 0
17, 993792, Note_on_c, 3, 71, 60
17, 993894, Note_on_c, 3, 69, 0
17, 994304, Note_on_c, 3, 81, 62
17, 994304, Note_on_c, 3, 71, 0
17, 994304, Note_on_c, 3, 69, 62
17, 994816, Note_on_c, 3, 69, 0
17, 994816, Note_on_c, 3, 71, 63
17, 994918, Note_on_c, 3, 81, 0
17, 995328, Note_on_c, 3, 81, 64
17, 995328, Note_on_c, 3, 71, 0
17, 995328, Note_on_c, 3, 67, 64
17, 995840, Note_on_c, 3, 67, 0
17, 995840, Note_on_c, 3, 69, 66
17, 995942, Note_on_c, 3, 81, 0
17, 996352, Note_on_c, 3, 69, 0
17, 996352, Note_on_c, 3, 81, 67
17, 996352, Note_on_c, 3, 71, 67
17, 996864, Note_on_c, 3, 71, 0
17, 996864, Note_on_c, 3, 73, 69
17, 996966, Note_on_c, 3, 81, 0
17, 997376, Note_on_c, 3, 81, 70
17, 997376, Note_on_c, 3, 73, 0
17, 997376, Note_on_c, 3, 69, 70
17, 997888, Note_on_c, 3, 69, 0
17, 997888, Note_on_c, 3, 71, 72
17, 997990, Note_on_c, 3, 81, 0
17, 998400, Note_on_c, 3, 79, 73
17, 998400, Note_on_c, 3, 71, 0
17, 998400, Note_on_c, 3, 73, 73
17, 998912, Note_on_c, 3, 73, 0
17, 998912, Note_on_c, 3, 74, 74
17, 999014, Note_on_c, 3, 79, 0
17, 999424, Note_on_c, 3, 79, 76
17, 999424, Note_on_c, 3, 74, 0
17, 999424, Note_on_c, 3, 71, 76
17, 999936, Note_on_c, 3, 71, 0
17, 999936, Note_on_c, 3, 73, 77
17, 1000038, Note_on_c, 3, 79, 0
17, 1000448, Note_on_c, 3, 73, 0
17, 1000448, Note_on_c, 3, 78, 82
17, 1000448, Note_on_c, 3, 74, 82
17, 1001062, Note_on_c, 3, 78, 0
17, 1001062, Note_on_c, 3, 74, 0
17, 1001472, Note_on_c, 3, 74, 84
17, 1001472, Note_on_c, 3, 69, 84
17, 1002086, Note_on_c, 3, 74, 0
17, 1002086, Note_on_c, 3, 69, 0
17, 1002496, Note_on_c, 3, 69, 86
17, 1002496, Note_on_c, 3, 74, 86
17, 1003008, Note_on_c, 3, 69, 0
17, 1003008, Note_on_c, 3, 71, 87
17, 1003110, Note_on_c, 3, 74, 0
17, 1003520, Note_on_c, 3, 71, 0
17, 1003520, Note_on_c, 3, 67, 88
17, 1003520, Note_on_c, 3, 74, 88
17, 1004032, Note_on_c, 3, 67, 0
17, 1004032, Note_on_c, 3, 69, 89
17, 1004134, Note_on_c, 3, 74, 0
17, 1004544, Note_on_c, 3, 69, 0
17, 1004544, Note_on_c, 3, 71, 90
17, 1004544, Note_on_c, 3, 74, 90
17, 1005056, Note_on_c, 3, 71, 0
17, 1005056, Note_on_c, 3, 73, 91
17, 1005158, Note_on_c, 3, 74, 0
17, 1005568, Note_on_c, 3, 73, 0
17, 1005568, Note_on_c, 3, 69, 92
17, 1005568, Note_on_c, 3, 74, 92
17, 1006080, Note_on_c, 3, 69, 0
17, 1006080, Note_on_c, 3, 71, 93
17, 1006182, Note_on_c, 3, 74, 0
17, 1006592, Note_on_c, 3, 71, 0
17, 1006592, Note_on_c, 3, 73, 94
17, 1006592, Note_on_c, 3, 73, 94
17, 1007104, Note_on_c, 3, 73, 0
17, 1007104, Note_on_c, 3, 74, 96
17, 1007104, Note_on_c, 3, 73, 0
17, 1007104, Note_on_c, 3, 71, 96
17, 1007616, Note_on_c, 3, 74, 0
17, 1007616, Note_on_c, 3, 71, 97
17, 1007616, Note_on_c, 3, 71, 0
17, 1007616, Note_on_c, 3, 69, 97
17, 1008128, Note_on_c, 3, 71, 0
17, 1008128, Note_on_c, 3, 73, 99
17, 1008128, Note_on_c, 3, 69, 0
17, 1008128, Note_on_c, 3, 67, 99
17, 1008640, Note_on_c, 3, 73, 0
17, 1008640, Note_on_c, 3, 67, 0
17, 1008640, Note_on_c, 3, 74, 99
17, 1008640, Note_on_c, 3, 66, 99
17, 1009152, Note_on_c, 3, 74, 0
17, 1009152, Note_on_c, 3, 76, 99
17, 1009152, Note_on_c, 3, 66, 0
17, 1009152, Note_on_c, 3, 69, 99
17, 1009664, Note_on_c, 3, 76, 0
17, 1009664, Note_on_c, 3, 73, 100
17, 1009664, Note_on_c, 3, 69, 0
17, 1009664, Note_on_c, 3, 67, 100
17, 1010176, Note_on_c, 3, 73, 0
17, 1010176, Note_on_c, 3, 74, 100
17, 1010176, Note_on_c, 3, 67, 0
17, 1010176, Note_on_c, 3, 66, 100
17, 1010688, Note_on_c, 3, 74, 0
17, 1010688, Note_on_c, 3, 76, 101
17, 1010688, Note_on_c, 3, 66, 0
17, 1010688, Note_on_c, 3, 64, 101
17, 1011200, Note_on_c, 3, 76, 0
17, 1011200, Note_on_c, 3, 78, 101
17, 1011302, Note_on_c, 3, 64, 0
17, 1011712, Note_on_c, 3, 78, 0
17, 1011712, Note_on_c, 3, 74, 101
17, 1011712, Note_on_c, 3, 76, 101
17, 1012224, Note_on_c, 3, 74, 0
17, 1012224, Note_on_c, 3, 76, 102
17, 1012326, Note_on_c, 3, 76, 0
17, 1012736, Note_on_c, 3, 76, 0
17, 1012736, Note_on_c, 3, 78, 102
17, 1012736, Note_on_c, 3, 74, 102
17, 1013350, Note_on_c, 3, 78, 0
17, 1013350, Note_on_c, 3, 74, 0
17, 1013760, Note_on_c, 3, 76, 103
17, 1013760, Note_on_c, 3, 76, 103
17, 1014272, Note_on_c, 3, 76, 0
17, 1014272, Note_on_c, 3, 74, 103
17, 1014272, Note_on_c, 3, 76, 0
17, 1014272, Note_on_c, 3, 78, 103
17, 1014784, Note_on_c, 3, 74, 0
17, 1014784, Note_on_c, 3, 78, 104
17, 1014784, Note_on_c, 3, 78, 0
17, 1014784, Note_on_c, 3, 79, 104
17, 1015296, Note_on_c, 3, 78, 0
17, 1015296, Note_on_c, 3, 76, 104
17, 1015398, Note_on_c, 3, 79, 0
17, 1015808, Note_on_c, 3, 76, 0
17, 1015808, Note_on_c, 3, 74, 104
17, 1015808, Note_on_c, 3, 76, 104
17, 1016320, Note_on_c, 3, 74, 0
17, 1016320, Note_on_c, 3, 73, 105
17, 1016422, Note_on_c, 3, 76, 0
17, 1016832, Note_on_c, 3, 73, 0
17, 1016832, Note_on_c, 3, 74, 105
17, 1016832, Note_on_c, 3, 78, 105
17, 1017446, Note_on_c, 3, 74, 0
17, 1017446, Note_on_c, 3, 78, 0
17, 1017856, Note_on_c, 3, 69, 106
17, 1017856, Note_on_c, 3, 74, 106
17, 1018470, Note_on_c, 3, 69, 0
17, 1018470, Note_on_c, 3, 74, 0
17, 1018880, Note_on_c, 3, 78, 107
17, 1018880, Note_on_c, 3, 74, 107
17, 1019494, Note_on_c, 3, 78, 0
17, 1019494, Note_on_c, 3, 74, 0
17, 1019904, Note_on_c, 3, 74, 108
17, 1019904, Note_on_c, 3, 74, 108
17, 1020518, Note_on_c, 3, 74, 0
17, 1020518, Note_on_c, 3, 74, 0
17, 1020928, Note_on_c, 3, 81, 108
17, 1020928, Note_on_c, 3, 74, 108
17, 1021542, Note_on_c, 3, 81, 0
17, 1021542, Note_on_c, 3, 74, 0
17, 1021952, Note_on_c, 3, 79, 108
17, 1021952, Note_on_c, 3, 74, 108
17, 1022208, Note_on_c, 3, 79, 0
17, 1022208, Note_on_c, 3, 78, 108
17, 1022464, Note_on_c, 3, 78, 0
17, 1022464, Note_on_c, 3, 76, 108
17, 1022566, Note_on_c, 3, 74, 0
17, 1022720, Note_on_c, 3, 76, 0
17, 1022720, Note_on_c, 3, 74, 108
17, 1022976, Note_on_c, 3, 74, 0
17, 1022976, Note_on_c, 3, 78, 108
17, 1022976, Note_on_c, 3, 74, 108
17, 1024000, Note_on_c, 3, 78, 0
17, 1024000, Note_on_c, 3, 76, 108
17, 1024000, Note_on_c, 3, 74, 0
17, 1024000, Note_on_c, 3, 73, 108
17, 1024614, Note_on_c, 3, 76, 0
17, 1024614, Note_on_c, 3, 73, 0
17, 1025024, Note_on_c, 3, 74, 108
17, 1025024, Note_on_c, 3, 74, 108
17, 1025638, Note_on_c, 3, 74, 0
17, 1025638, Note_on_c, 3, 74, 0
17, 1033216, End_track
0, 0, End_of_file
