0, 0, Header, 1, 25, 240
1, 0, Start_track
1, 0, Time_signature, 4, 2, 24, 8
1, 0, Tempo, 480000
1, 56796, Tempo, 504202
1, 57312, Tempo, 521739
1, 57600, Tempo, 480000
1, 57600, End_track
2, 0, Start_track
2, 0, Title_t, "Trumpet"
2, 0, Program_c, 0, 56
2, 0, Control_c, 0, 7, 127
2, 479, Note_on_c, 0, 69, 51
2, 676, Note_off_c, 0, 69, 64
2, 708, Note_on_c, 0, 69, 66
2, 900, Note_off_c, 0, 69, 64
2, 952, Note_on_c, 0, 69, 58
2, 1147, Note_off_c, 0, 69, 64
2, 1182, Note_on_c, 0, 69, 68
2, 1376, Note_off_c, 0, 69, 64
2, 1419, Note_on_c, 0, 69, 66
2, 1616, Note_off_c, 0, 69, 64
2, 1651, Note_on_c, 0, 69, 70
2, 1794, Note_off_c, 0, 69, 64
2, 1905, Note_on_c, 0, 69, 95
2, 2321, Note_off_c, 0, 69, 64
2, 2396, Note_on_c, 0, 81, 89
2, 3423, Note_off_c, 0, 81, 64
2, 3463, Note_on_c, 0, 79, 82
2, 3533, Note_off_c, 0, 79, 64
2, 3576, Note_on_c, 0, 78, 87
2, 3642, Note_off_c, 0, 78, 64
2, 3684, Note_on_c, 0, 76, 82
2, 3756, Note_off_c, 0, 76, 64
2, 3817, Note_on_c, 0, 78, 93
2, 4010, Note_off_c, 0, 78, 64
2, 4056, Note_on_c, 0, 74, 76
2, 4181, Note_off_c, 0, 74, 64
2, 4323, Note_on_c, 0, 69, 57
2, 4536, Note_off_c, 0, 69, 64
2, 4564, Note_on_c, 0, 69, 63
2, 4747, Note_off_c, 0, 69, 64
2, 4796, Note_on_c, 0, 69, 64
2, 5010, Note_off_c, 0, 69, 64
2, 5040, Note_on_c, 0, 69, 72
2, 5217, Note_off_c, 0, 69, 64
2, 5276, Note_on_c, 0, 69, 61
2, 5472, Note_off_c, 0, 69, 64
2, 5502, Note_on_c, 0, 69, 64
2, 5638, Note_off_c, 0, 69, 64
2, 5749, Note_on_c, 0, 69, 85
2, 6249, Note_off_c, 0, 69, 64
2, 10083, Note_on_c, 0, 69, 78
2, 10296, Note_off_c, 0, 69, 64
2, 10322, Note_on_c, 0, 69, 57
2, 10504, Note_off_c, 0, 69, 64
2, 10555, Note_on_c, 0, 69, 70
2, 10783, Note_off_c, 0, 69, 64
2, 10809, Note_on_c, 0, 69, 66
2, 10984, Note_off_c, 0, 69, 64
2, 11035, Note_on_c, 0, 69, 82
2, 11235, Note_off_c, 0, 69, 64
2, 11272, Note_on_c, 0, 69, 68
2, 11403, Note_off_c, 0, 69, 64
2, 11516, Note_on_c, 0, 69, 87
2, 11940, Note_off_c, 0, 69, 64
2, 12004, Note_on_c, 0, 81, 98
2, 13039, Note_off_c, 0, 81, 64
2, 13071, Note_on_c, 0, 79, 85
2, 13148, Note_off_c, 0, 79, 64
2, 13175, Note_on_c, 0, 78, 85
2, 13251, Note_off_c, 0, 78, 64
2, 13285, Note_on_c, 0, 76, 85
2, 13359, Note_off_c, 0, 76, 64
2, 13421, Note_on_c, 0, 78, 93
2, 13626, Note_off_c, 0, 78, 64
2, 13660, Note_on_c, 0, 74, 70
2, 13804, Note_off_c, 0, 74, 64
2, 13913, Note_on_c, 0, 69, 74
2, 14132, Note_off_c, 0, 69, 64
2, 14155, Note_on_c, 0, 69, 80
2, 14336, Note_off_c, 0, 69, 64
2, 14384, Note_on_c, 0, 69, 78
2, 14610, Note_off_c, 0, 69, 64
2, 14642, Note_on_c, 0, 69, 68
2, 14804, Note_off_c, 0, 69, 64
2, 14875, Note_on_c, 0, 69, 78
2, 15083, Note_off_c, 0, 69, 64
2, 15113, Note_on_c, 0, 69, 72
2, 15239, Note_off_c, 0, 69, 64
2, 15356, Note_on_c, 0, 69, 85
2, 15828, Note_off_c, 0, 69, 64
2, 15828, End_track
3, 0, Start_track
3, 0, Title_t, "Trumpet"
3, 0, Program_c, 1, 56
3, 0, Control_c, 1, 7, 127
3, 474, Note_on_c, 1, 69, 85
3, 680, Note_off_c, 1, 69, 64
3, 713, Note_on_c, 1, 69, 62
3, 916, Note_off_c, 1, 69, 64
3, 963, Note_on_c, 1, 69, 82
3, 1159, Note_off_c, 1, 69, 64
3, 1198, Note_on_c, 1, 69, 60
3, 1381, Note_off_c, 1, 69, 64
3, 1438, Note_on_c, 1, 69, 82
3, 1627, Note_off_c, 1, 69, 64
3, 1674, Note_on_c, 1, 69, 66
3, 1817, Note_off_c, 1, 69, 64
3, 1924, Note_on_c, 1, 69, 87
3, 2329, Note_off_c, 1, 69, 64
3, 2405, Note_on_c, 1, 78, 113
3, 3431, Note_off_c, 1, 78, 64
3, 3466, Note_on_c, 1, 76, 80
3, 3538, Note_off_c, 1, 76, 64
3, 3573, Note_on_c, 1, 74, 93
3, 3639, Note_off_c, 1, 74, 64
3, 3687, Note_on_c, 1, 76, 85
3, 3756, Note_off_c, 1, 76, 64
3, 3822, Note_on_c, 1, 74, 91
3, 4003, Note_off_c, 1, 74, 64
3, 4060, Note_on_c, 1, 69, 72
3, 4183, Note_off_c, 1, 69, 64
3, 4306, Note_on_c, 1, 69, 68
3, 4517, Note_off_c, 1, 69, 64
3, 4554, Note_on_c, 1, 69, 64
3, 4747, Note_off_c, 1, 69, 64
3, 4786, Note_on_c, 1, 69, 72
3, 4997, Note_off_c, 1, 69, 64
3, 5038, Note_on_c, 1, 69, 61
3, 5209, Note_off_c, 1, 69, 64
3, 5261, Note_on_c, 1, 69, 70
3, 5455, Note_off_c, 1, 69, 64
3, 5498, Note_on_c, 1, 69, 68
3, 5673, Note_off_c, 1, 69, 64
3, 5756, Note_on_c, 1, 69, 87
3, 6234, Note_off_c, 1, 69, 64
3, 10080, Note_on_c, 1, 69, 70
3, 10284, Note_off_c, 1, 69, 64
3, 10323, Note_on_c, 1, 69, 66
3, 10519, Note_off_c, 1, 69, 64
3, 10553, Note_on_c, 1, 69, 70
3, 10752, Note_off_c, 1, 69, 64
3, 10785, Note_on_c, 1, 69, 68
3, 10985, Note_off_c, 1, 69, 64
3, 11020, Note_on_c, 1, 69, 68
3, 11235, Note_off_c, 1, 69, 64
3, 11265, Note_on_c, 1, 69, 68
3, 11456, Note_off_c, 1, 69, 64
3, 11512, Note_on_c, 1, 69, 80
3, 11915, Note_off_c, 1, 69, 64
3, 12010, Note_on_c, 1, 78, 107
3, 13051, Note_off_c, 1, 78, 64
3, 13073, Note_on_c, 1, 76, 85
3, 13149, Note_off_c, 1, 76, 64
3, 13182, Note_on_c, 1, 74, 87
3, 13252, Note_off_c, 1, 74, 64
3, 13293, Note_on_c, 1, 76, 89
3, 13358, Note_off_c, 1, 76, 64
3, 13415, Note_on_c, 1, 74, 98
3, 13612, Note_off_c, 1, 74, 64
3, 13659, Note_on_c, 1, 69, 80
3, 13785, Note_off_c, 1, 69, 64
3, 13915, Note_on_c, 1, 69, 61
3, 14116, Note_off_c, 1, 69, 64
3, 14152, Note_on_c, 1, 69, 60
3, 14347, Note_off_c, 1, 69, 64
3, 14383, Note_on_c, 1, 69, 72
3, 14589, Note_off_c, 1, 69, 64
3, 14626, Note_on_c, 1, 69, 62
3, 14816, Note_off_c, 1, 69, 64
3, 14858, Note_on_c, 1, 69, 72
3, 15077, Note_off_c, 1, 69, 64
3, 15109, Note_on_c, 1, 69, 66
3, 15263, Note_off_c, 1, 69, 64
3, 15348, Note_on_c, 1, 69, 85
3, 15829, Note_off_c, 1, 69, 64
3, 15829, End_track
4, 0, Start_track
4, 0, Title_t, "Trumpet"
4, 0, Program_c, 2, 56
4, 0, Control_c, 2, 7, 127
4, 478, Note_on_c, 2, 69, 85
4, 670, Note_off_c, 2, 69, 64
4, 711, Note_on_c, 2, 69, 68
4, 916, Note_off_c, 2, 69, 64
4, 961, Note_on_c, 2, 69, 72
4, 1172, Note_off_c, 2, 69, 64
4, 1211, Note_on_c, 2, 69, 62
4, 1400, Note_off_c, 2, 69, 64
4, 1439, Note_on_c, 2, 69, 64
4, 1637, Note_off_c, 2, 69, 64
4, 1684, Note_on_c, 2, 69, 70
4, 1852, Note_off_c, 2, 69, 64
4, 1930, Note_on_c, 2, 69, 89
4, 2317, Note_off_c, 2, 69, 64
4, 2400, Note_on_c, 2, 74, 105
4, 3507, Note_off_c, 2, 74, 64
4, 3585, Note_on_c, 2, 69, 82
4, 3709, Note_off_c, 2, 69, 64
4, 3817, Note_on_c, 2, 69, 98
4, 4009, Note_off_c, 2, 69, 64
4, 4054, Note_on_c, 2, 66, 85
4, 4179, Note_off_c, 2, 66, 64
4, 4314, Note_on_c, 2, 69, 70
4, 4522, Note_off_c, 2, 69, 64
4, 4561, Note_on_c, 2, 69, 62
4, 4736, Note_off_c, 2, 69, 64
4, 4780, Note_on_c, 2, 69, 68
4, 4993, Note_off_c, 2, 69, 64
4, 5033, Note_on_c, 2, 69, 62
4, 5213, Note_off_c, 2, 69, 64
4, 5259, Note_on_c, 2, 69, 66
4, 5478, Note_off_c, 2, 69, 64
4, 5514, Note_on_c, 2, 69, 42
4, 5687, Note_off_c, 2, 69, 64
4, 5752, Note_on_c, 2, 69, 87
4, 6224, Note_off_c, 2, 69, 64
4, 10082, Note_on_c, 2, 69, 70
4, 10279, Note_off_c, 2, 69, 64
4, 10312, Note_on_c, 2, 69, 66
4, 10514, Note_off_c, 2, 69, 64
4, 10559, Note_on_c, 2, 69, 78
4, 10750, Note_off_c, 2, 69, 64
4, 10795, Note_on_c, 2, 69, 58
4, 10979, Note_off_c, 2, 69, 64
4, 11027, Note_on_c, 2, 69, 64
4, 11226, Note_off_c, 2, 69, 64
4, 11268, Note_on_c, 2, 69, 68
4, 11455, Note_off_c, 2, 69, 64
4, 11515, Note_on_c, 2, 69, 85
4, 11916, Note_off_c, 2, 69, 64
4, 12000, Note_on_c, 2, 74, 105
4, 13126, Note_off_c, 2, 74, 64
4, 13184, Note_on_c, 2, 69, 100
4, 13292, Note_off_c, 2, 69, 64
4, 13422, Note_on_c, 2, 69, 91
4, 13616, Note_off_c, 2, 69, 64
4, 13659, Note_on_c, 2, 66, 72
4, 13776, Note_off_c, 2, 66, 64
4, 13920, Note_on_c, 2, 69, 70
4, 14108, Note_off_c, 2, 69, 64
4, 14147, Note_on_c, 2, 69, 63
4, 14335, Note_off_c, 2, 69, 64
4, 14384, Note_on_c, 2, 69, 68
4, 14567, Note_off_c, 2, 69, 64
4, 14621, Note_on_c, 2, 69, 68
4, 14778, Note_off_c, 2, 69, 64
4, 14866, Note_on_c, 2, 69, 66
4, 15067, Note_off_c, 2, 69, 64
4, 15112, Note_on_c, 2, 69, 70
4, 15265, Note_off_c, 2, 69, 64
4, 15355, Note_on_c, 2, 69, 82
4, 15805, Note_off_c, 2, 69, 64
4, 15805, End_track
5, 0, Start_track
5, 0, Title_t, "Timpani"
5, 0, Program_c, 3, 47
5, 0, Control_c, 3, 7, 100
5, 492, Note_on_c, 3, 50, 122
5, 575, Note_off_c, 3, 50, 64
5, 970, Note_on_c, 3, 45, 122
5, 1049, Note_off_c, 3, 45, 64
5, 1446, Note_on_c, 3, 50, 119
5, 1518, Note_off_c, 3, 50, 64
5, 1919, Note_on_c, 3, 45, 127
5, 1995, Note_off_c, 3, 45, 64
5, 2401, Note_on_c, 3, 50, 122
5, 2483, Note_off_c, 3, 50, 64
5, 3358, Note_on_c, 3, 45, 110
5, 3436, Note_off_c, 3, 45, 64
5, 3597, Note_on_c, 3, 45, 116
5, 3671, Note_off_c, 3, 45, 64
5, 3820, Note_on_c, 3, 50, 113
5, 3897, Note_off_c, 3, 50, 64
5, 4060, Note_on_c, 3, 50, 110
5, 4132, Note_off_c, 3, 50, 64
5, 4298, Note_on_c, 3, 50, 119
5, 4378, Note_off_c, 3, 50, 64
5, 4795, Note_on_c, 3, 45, 122
5, 4880, Note_off_c, 3, 45, 64
5, 5269, Note_on_c, 3, 50, 119
5, 5343, Note_off_c, 3, 50, 64
5, 5752, Note_on_c, 3, 45, 119
5, 5831, Note_off_c, 3, 45, 64
5, 10076, Note_on_c, 3, 50, 119
5, 10148, Note_off_c, 3, 50, 64
5, 10578, Note_on_c, 3, 45, 122
5, 10674, Note_off_c, 3, 45, 64
5, 11039, Note_on_c, 3, 50, 119
5, 11112, Note_off_c, 3, 50, 64
5, 11521, Note_on_c, 3, 45, 122
5, 11607, Note_off_c, 3, 45, 64
5, 11988, Note_on_c, 3, 50, 119
5, 12067, Note_off_c, 3, 50, 64
5, 12953, Note_on_c, 3, 45, 119
5, 13039, Note_off_c, 3, 45, 64
5, 13192, Note_on_c, 3, 45, 119
5, 13276, Note_off_c, 3, 45, 64
5, 13417, Note_on_c, 3, 50, 116
5, 13496, Note_off_c, 3, 50, 64
5, 13665, Note_on_c, 3, 50, 113
5, 13743, Note_off_c, 3, 50, 64
5, 13911, Note_on_c, 3, 50, 119
5, 13987, Note_off_c, 3, 50, 64
5, 14401, Note_on_c, 3, 45, 122
5, 14485, Note_off_c, 3, 45, 64
5, 14871, Note_on_c, 3, 50, 119
5, 14945, Note_off_c, 3, 50, 64
5, 15366, Note_on_c, 3, 45, 127
5, 15450, Note_off_c, 3, 45, 64
5, 15450, End_track
6, 0, Start_track
6, 0, Title_t, "Oboe"
6, 0, Program_c, 4, 68
6, 0, Control_c, 4, 7, 100
6, 479, Note_on_c, 4, 69, 102
6, 564, Note_off_c, 4, 69, 64
6, 719, Note_on_c, 4, 74, 89
6, 1182, Note_off_c, 4, 74, 64
6, 1200, Note_on_c, 4, 73, 78
6, 1305, Note_off_c, 4, 73, 64
6, 1311, Note_on_c, 4, 71, 85
6, 1396, Note_off_c, 4, 71, 64
6, 1430, Note_on_c, 4, 69, 78
6, 1543, Note_on_c, 4, 74, 87
6, 1556, Note_off_c, 4, 69, 64
6, 1631, Note_off_c, 4, 74, 64
6, 1662, Note_on_c, 4, 78, 85
6, 2073, Note_off_c, 4, 78, 64
6, 2157, Note_on_c, 4, 76, 82
6, 2244, Note_off_c, 4, 76, 64
6, 2393, Note_on_c, 4, 81, 87
6, 2491, Note_off_c, 4, 81, 64
6, 2880, Note_on_c, 4, 81, 95
6, 2985, Note_off_c, 4, 81, 64
6, 3232, Note_on_c, 4, 83, 82
6, 3319, Note_off_c, 4, 83, 64
6, 3346, Note_on_c, 4, 81, 85
6, 3459, Note_on_c, 4, 79, 80
6, 3475, Note_off_c, 4, 81, 64
6, 3536, Note_off_c, 4, 79, 64
6, 3568, Note_on_c, 4, 78, 80
6, 3662, Note_off_c, 4, 78, 64
6, 3681, Note_on_c, 4, 76, 85
6, 3764, Note_off_c, 4, 76, 64
6, 3809, Note_on_c, 4, 78, 78
6, 3897, Note_off_c, 4, 78, 64
6, 4061, Note_on_c, 4, 74, 68
6, 4150, Note_off_c, 4, 74, 64
6, 4314, Note_on_c, 4, 69, 89
6, 4416, Note_off_c, 4, 69, 64
6, 4565, Note_on_c, 4, 74, 89
6, 4999, Note_off_c, 4, 74, 64
6, 5037, Note_on_c, 4, 73, 87
6, 5116, Note_off_c, 4, 73, 64
6, 5144, Note_on_c, 4, 71, 85
6, 5225, Note_off_c, 4, 71, 64
6, 5260, Note_on_c, 4, 69, 82
6, 5378, Note_on_c, 4, 74, 85
6, 5389, Note_off_c, 4, 69, 64
6, 5474, Note_off_c, 4, 74, 64
6, 5503, Note_on_c, 4, 78, 91
6, 5920, Note_off_c, 4, 78, 64
6, 5991, Note_on_c, 4, 76, 87
6, 6152, Note_off_c, 4, 76, 64
6, 6232, Note_on_c, 4, 80, 95
6, 6330, Note_on_c, 4, 81, 80
6, 6350, Note_off_c, 4, 80, 64
6, 6448, Note_off_c, 4, 81, 64
6, 6464, Note_on_c, 4, 83, 85
6, 6729, Note_off_c, 4, 83, 64
6, 7202, Note_on_c, 4, 80, 102
6, 7299, Note_on_c, 4, 81, 78
6, 7319, Note_off_c, 4, 80, 64
6, 7424, Note_off_c, 4, 81, 64
6, 7424, Note_on_c, 4, 83, 85
6, 7690, Note_off_c, 4, 83, 64
6, 8394, Note_on_c, 4, 76, 100
6, 8476, Note_off_c, 4, 76, 64
6, 8882, Note_on_c, 4, 76, 95
6, 8987, Note_off_c, 4, 76, 64
6, 9232, Note_on_c, 4, 74, 85
6, 9348, Note_off_c, 4, 74, 64
6, 9354, Note_on_c, 4, 73, 63
6, 9455, Note_off_c, 4, 73, 64
6, 9467, Note_on_c, 4, 71, 80
6, 9533, Note_off_c, 4, 71, 64
6, 9585, Note_on_c, 4, 71, 93
6, 9814, Note_off_c, 4, 71, 64
6, 9823, Note_on_c, 4, 69, 61
6, 9957, Note_off_c, 4, 69, 64
6, 10068, Note_on_c, 4, 69, 93
6, 10167, Note_off_c, 4, 69, 64
6, 10317, Note_on_c, 4, 74, 100
6, 10774, Note_off_c, 4, 74, 64
6, 10799, Note_on_c, 4, 73, 68
6, 10909, Note_off_c, 4, 73, 64
6, 10910, Note_on_c, 4, 71, 78
6, 10987, Note_off_c, 4, 71, 64
6, 11026, Note_on_c, 4, 69, 82
6, 11140, Note_on_c, 4, 74, 89
6, 11144, Note_off_c, 4, 69, 64
6, 11227, Note_off_c, 4, 74, 64
6, 11264, Note_on_c, 4, 78, 98
6, 11651, Note_off_c, 4, 78, 64
6, 11750, Note_on_c, 4, 76, 82
6, 11850, Note_off_c, 4, 76, 64
6, 11993, Note_on_c, 4, 81, 87
6, 12093, Note_off_c, 4, 81, 64
6, 12477, Note_on_c, 4, 81, 100
6, 12582, Note_off_c, 4, 81, 64
6, 12832, Note_on_c, 4, 83, 91
6, 12932, Note_off_c, 4, 83, 64
6, 12941, Note_on_c, 4, 81, 87
6, 13058, Note_on_c, 4, 79, 78
6, 13085, Note_off_c, 4, 81, 64
6, 13172, Note_off_c, 4, 79, 64
6, 13175, Note_on_c, 4, 78, 62
6, 13277, Note_off_c, 4, 78, 64
6, 13289, Note_on_c, 4, 76, 82
6, 13380, Note_off_c, 4, 76, 64
6, 13414, Note_on_c, 4, 78, 80
6, 13515, Note_off_c, 4, 78, 64
6, 13648, Note_on_c, 4, 74, 76
6, 13741, Note_off_c, 4, 74, 64
6, 13909, Note_on_c, 4, 69, 87
6, 14008, Note_off_c, 4, 69, 64
6, 14155, Note_on_c, 4, 74, 95
6, 14618, Note_off_c, 4, 74, 64
6, 14640, Note_on_c, 4, 73, 68
6, 14741, Note_off_c, 4, 73, 64
6, 14749, Note_on_c, 4, 71, 82
6, 14832, Note_off_c, 4, 71, 64
6, 14868, Note_on_c, 4, 69, 82
6, 14978, Note_on_c, 4, 74, 85
6, 14995, Note_off_c, 4, 69, 64
6, 15073, Note_off_c, 4, 74, 64
6, 15103, Note_on_c, 4, 78, 98
6, 15524, Note_off_c, 4, 78, 64
6, 15594, Note_on_c, 4, 76, 85
6, 15742, Note_off_c, 4, 76, 64
6, 15835, Note_on_c, 4, 80, 105
6, 15943, Note_on_c, 4, 81, 82
6, 15960, Note_off_c, 4, 80, 64
6, 16077, Note_on_c, 4, 83, 78
6, 16079, Note_off_c, 4, 81, 64
6, 16351, Note_off_c, 4, 83, 64
6, 16794, Note_on_c, 4, 80, 100
6, 16894, Note_on_c, 4, 81, 78
6, 16917, Note_off_c, 4, 80, 64
6, 17027, Note_on_c, 4, 83, 85
6, 17031, Note_off_c, 4, 81, 64
6, 17289, Note_off_c, 4, 83, 64
6, 17992, Note_on_c, 4, 76, 102
6, 18080, Note_off_c, 4, 76, 64
6, 18485, Note_on_c, 4, 76, 100
6, 18587, Note_off_c, 4, 76, 64
6, 18834, Note_on_c, 4, 74, 87
6, 18934, Note_off_c, 4, 74, 64
6, 18957, Note_on_c, 4, 73, 68
6, 19041, Note_off_c, 4, 73, 64
6, 19063, Note_on_c, 4, 71, 82
6, 19129, Note_off_c, 4, 71, 64
6, 19191, Note_on_c, 4, 71, 105
6, 19423, Note_on_c, 4, 69, 64
6, 19424, Note_off_c, 4, 71, 64
6, 19605, Note_off_c, 4, 69, 64
6, 19605, End_track
7, 0, Start_track
7, 0, Title_t, "Oboe"
7, 0, Program_c, 5, 68
7, 0, Control_c, 5, 7, 100
7, 482, Note_on_c, 5, 66, 80
7, 587, Note_off_c, 5, 66, 64
7, 712, Note_on_c, 5, 66, 87
7, 845, Note_off_c, 5, 66, 64
7, 962, Note_on_c, 5, 64, 87
7, 1315, Note_off_c, 5, 64, 64
7, 1431, Note_on_c, 5, 66, 64
7, 1522, Note_off_c, 5, 66, 64
7, 1534, Note_on_c, 5, 69, 82
7, 1640, Note_off_c, 5, 69, 64
7, 1665, Note_on_c, 5, 74, 85
7, 2106, Note_off_c, 5, 74, 64
7, 2154, Note_on_c, 5, 73, 78
7, 2290, Note_off_c, 5, 73, 64
7, 2387, Note_on_c, 5, 78, 100
7, 2508, Note_off_c, 5, 78, 64
7, 2862, Note_on_c, 5, 78, 95
7, 3003, Note_off_c, 5, 78, 64
7, 3218, Note_on_c, 5, 79, 78
7, 3322, Note_off_c, 5, 79, 64
7, 3334, Note_on_c, 5, 78, 64
7, 3444, Note_on_c, 5, 76, 70
7, 3455, Note_off_c, 5, 78, 64
7, 3564, Note_on_c, 5, 74, 76
7, 3569, Note_off_c, 5, 76, 64
7, 3671, Note_off_c, 5, 74, 64
7, 3671, Note_on_c, 5, 73, 72
7, 3779, Note_off_c, 5, 73, 64
7, 3798, Note_on_c, 5, 74, 85
7, 3916, Note_off_c, 5, 74, 64
7, 4045, Note_on_c, 5, 69, 80
7, 4170, Note_off_c, 5, 69, 64
7, 4294, Note_on_c, 5, 66, 64
7, 4405, Note_off_c, 5, 66, 64
7, 4550, Note_on_c, 5, 66, 70
7, 4662, Note_off_c, 5, 66, 64
7, 4800, Note_on_c, 5, 64, 80
7, 5144, Note_off_c, 5, 64, 64
7, 5265, Note_on_c, 5, 66, 76
7, 5365, Note_off_c, 5, 66, 64
7, 5376, Note_on_c, 5, 69, 82
7, 5476, Note_off_c, 5, 69, 64
7, 5499, Note_on_c, 5, 74, 87
7, 5947, Note_off_c, 5, 74, 64
7, 5984, Note_on_c, 5, 73, 61
7, 6119, Note_off_c, 5, 73, 64
7, 6230, Note_on_c, 5, 74, 87
7, 6349, Note_on_c, 5, 73, 58
7, 6360, Note_off_c, 5, 74, 64
7, 6460, Note_on_c, 5, 71, 80
7, 6470, Note_off_c, 5, 73, 64
7, 6568, Note_on_c, 5, 73, 72
7, 6584, Note_off_c, 5, 71, 64
7, 6654, Note_off_c, 5, 73, 64
7, 6694, Note_on_c, 5, 74, 85
7, 7300, Note_on_c, 5, 73, 72
7, 7311, Note_off_c, 5, 74, 64
7, 7420, Note_on_c, 5, 71, 72
7, 7433, Note_off_c, 5, 73, 64
7, 7533, Note_on_c, 5, 73, 76
7, 7553, Note_off_c, 5, 71, 64
7, 7621, Note_off_c, 5, 73, 64
7, 7662, Note_on_c, 5, 74, 87
7, 8142, Note_off_c, 5, 74, 64
7, 8383, Note_on_c, 5, 73, 87
7, 8515, Note_off_c, 5, 73, 64
7, 8866, Note_on_c, 5, 73, 93
7, 8983, Note_off_c, 5, 73, 64
7, 9223, Note_on_c, 5, 71, 78
7, 9339, Note_on_c, 5, 69, 78
7, 9357, Note_off_c, 5, 71, 64
7, 9429, Note_off_c, 5, 69, 64
7, 9455, Note_on_c, 5, 68, 74
7, 9515, Note_off_c, 5, 68, 64
7, 9577, Note_on_c, 5, 68, 87
7, 9813, Note_on_c, 5, 69, 59
7, 9818, Note_off_c, 5, 68, 64
7, 9971, Note_off_c, 5, 69, 64
7, 10058, Note_on_c, 5, 66, 64
7, 10182, Note_off_c, 5, 66, 64
7, 10300, Note_on_c, 5, 66, 80
7, 10441, Note_off_c, 5, 66, 64
7, 10546, Note_on_c, 5, 64, 80
7, 10901, Note_off_c, 5, 64, 64
7, 11032, Note_on_c, 5, 66, 80
7, 11130, Note_on_c, 5, 69, 85
7, 11140, Note_off_c, 5, 66, 64
7, 11241, Note_off_c, 5, 69, 64
7, 11268, Note_on_c, 5, 74, 87
7, 11720, Note_off_c, 5, 74, 64
7, 11746, Note_on_c, 5, 73, 78
7, 11903, Note_off_c, 5, 73, 64
7, 11990, Note_on_c, 5, 78, 91
7, 12125, Note_off_c, 5, 78, 64
7, 12473, Note_on_c, 5, 78, 102
7, 12610, Note_off_c, 5, 78, 64
7, 12815, Note_on_c, 5, 79, 78
7, 12937, Note_off_c, 5, 79, 64
7, 12941, Note_on_c, 5, 78, 63
7, 13051, Note_on_c, 5, 76, 76
7, 13067, Note_off_c, 5, 78, 64
7, 13175, Note_on_c, 5, 74, 70
7, 13188, Note_off_c, 5, 76, 64
7, 13284, Note_on_c, 5, 73, 66
7, 13293, Note_off_c, 5, 74, 64
7, 13387, Note_off_c, 5, 73, 64
7, 13406, Note_on_c, 5, 74, 85
7, 13509, Note_off_c, 5, 74, 64
7, 13649, Note_on_c, 5, 69, 80
7, 13762, Note_off_c, 5, 69, 64
7, 13890, Note_on_c, 5, 66, 64
7, 14004, Note_off_c, 5, 66, 64
7, 14141, Note_on_c, 5, 66, 70
7, 14250, Note_off_c, 5, 66, 64
7, 14386, Note_on_c, 5, 64, 85
7, 14737, Note_off_c, 5, 64, 64
7, 14874, Note_on_c, 5, 66, 87
7, 14968, Note_off_c, 5, 66, 64
7, 14976, Note_on_c, 5, 69, 85
7, 15074, Note_off_c, 5, 69, 64
7, 15105, Note_on_c, 5, 74, 89
7, 15558, Note_off_c, 5, 74, 64
7, 15598, Note_on_c, 5, 73, 63
7, 15739, Note_off_c, 5, 73, 64
7, 15835, Note_on_c, 5, 74, 85
7, 15941, Note_on_c, 5, 73, 63
7, 15953, Note_off_c, 5, 74, 64
7, 16061, Note_on_c, 5, 71, 74
7, 16070, Note_off_c, 5, 73, 64
7, 16171, Note_on_c, 5, 73, 66
7, 16197, Note_off_c, 5, 71, 64
7, 16263, Note_off_c, 5, 73, 64
7, 16308, Note_on_c, 5, 74, 85
7, 16904, Note_on_c, 5, 73, 80
7, 16910, Note_off_c, 5, 74, 64
7, 17016, Note_on_c, 5, 71, 70
7, 17024, Note_off_c, 5, 73, 64
7, 17128, Note_on_c, 5, 73, 68
7, 17142, Note_off_c, 5, 71, 64
7, 17208, Note_off_c, 5, 73, 64
7, 17257, Note_on_c, 5, 74, 87
7, 17759, Note_off_c, 5, 74, 64
7, 17992, Note_on_c, 5, 73, 89
7, 18125, Note_off_c, 5, 73, 64
7, 18478, Note_on_c, 5, 73, 98
7, 18591, Note_off_c, 5, 73, 64
7, 18828, Note_on_c, 5, 71, 82
7, 18939, Note_on_c, 5, 69, 80
7, 18959, Note_off_c, 5, 71, 64
7, 19040, Note_off_c, 5, 69, 64
7, 19049, Note_on_c, 5, 68, 82
7, 19110, Note_off_c, 5, 68, 64
7, 19183, Note_on_c, 5, 68, 95
7, 19422, Note_on_c, 5, 69, 63
7, 19427, Note_off_c, 5, 68, 64
7, 19566, Note_off_c, 5, 69, 64
7, 19566, End_track
8, 0, Start_track
8, 0, Title_t, "Oboe"
8, 0, Program_c, 6, 68
8, 0, Control_c, 6, 7, 100
8, 481, Note_on_c, 6, 62, 87
8, 587, Note_off_c, 6, 62, 64
8, 708, Note_on_c, 6, 69, 91
8, 810, Note_off_c, 6, 69, 64
8, 958, Note_on_c, 6, 69, 87
8, 1345, Note_off_c, 6, 69, 64
8, 1439, Note_on_c, 6, 62, 80
8, 1538, Note_on_c, 6, 66, 78
8, 1564, Note_off_c, 6, 62, 64
8, 1630, Note_off_c, 6, 66, 64
8, 1666, Note_on_c, 6, 69, 89
8, 1787, Note_off_c, 6, 69, 64
8, 1905, Note_on_c, 6, 69, 98
8, 2326, Note_off_c, 6, 69, 64
8, 2407, Note_on_c, 6, 62, 93
8, 2509, Note_off_c, 6, 62, 64
8, 2877, Note_on_c, 6, 74, 95
8, 3002, Note_off_c, 6, 74, 64
8, 3223, Note_on_c, 6, 74, 93
8, 3294, Note_off_c, 6, 74, 64
8, 3338, Note_on_c, 6, 74, 91
8, 3454, Note_off_c, 6, 74, 64
8, 3571, Note_on_c, 6, 69, 87
8, 3671, Note_off_c, 6, 69, 64
8, 3810, Note_on_c, 6, 69, 87
8, 3985, Note_off_c, 6, 69, 64
8, 4044, Note_on_c, 6, 66, 66
8, 4163, Note_off_c, 6, 66, 64
8, 4295, Note_on_c, 6, 62, 80
8, 4412, Note_off_c, 6, 62, 64
8, 4549, Note_on_c, 6, 69, 85
8, 4635, Note_off_c, 6, 69, 64
8, 4794, Note_on_c, 6, 69, 89
8, 5147, Note_off_c, 6, 69, 64
8, 5268, Note_on_c, 6, 62, 89
8, 5365, Note_on_c, 6, 66, 68
8, 5394, Note_off_c, 6, 62, 64
8, 5459, Note_off_c, 6, 66, 64
8, 5499, Note_on_c, 6, 69, 87
8, 5597, Note_off_c, 6, 69, 64
8, 5737, Note_on_c, 6, 69, 87
8, 6152, Note_off_c, 6, 69, 64
8, 6224, Note_on_c, 6, 71, 82
8, 6338, Note_on_c, 6, 69, 78
8, 6376, Note_off_c, 6, 71, 64
8, 6451, Note_on_c, 6, 68, 64
8, 6466, Note_off_c, 6, 69, 64
8, 6561, Note_on_c, 6, 69, 74
8, 6586, Note_off_c, 6, 68, 64
8, 6666, Note_off_c, 6, 69, 64
8, 6690, Note_on_c, 6, 71, 80
8, 7299, Note_on_c, 6, 69, 82
8, 7312, Note_off_c, 6, 71, 64
8, 7420, Note_on_c, 6, 68, 64
8, 7427, Note_off_c, 6, 69, 64
8, 7529, Note_on_c, 6, 69, 80
8, 7548, Note_off_c, 6, 68, 64
8, 7649, Note_off_c, 6, 69, 64
8, 7662, Note_on_c, 6, 71, 85
8, 8147, Note_off_c, 6, 71, 64
8, 8394, Note_on_c, 6, 69, 91
8, 8486, Note_off_c, 6, 69, 64
8, 8867, Note_on_c, 6, 69, 87
8, 8987, Note_off_c, 6, 69, 64
8, 9330, Note_on_c, 6, 64, 78
8, 9457, Note_off_c, 6, 64, 64
8, 9574, Note_on_c, 6, 64, 95
8, 9902, Note_off_c, 6, 64, 64
8, 10069, Note_on_c, 6, 62, 85
8, 10174, Note_off_c, 6, 62, 64
8, 10311, Note_on_c, 6, 69, 87
8, 10391, Note_off_c, 6, 69, 64
8, 10559, Note_on_c, 6, 69, 95
8, 10932, Note_off_c, 6, 69, 64
8, 11042, Note_on_c, 6, 62, 89
8, 11137, Note_on_c, 6, 66, 78
8, 11157, Note_off_c, 6, 62, 64
8, 11227, Note_off_c, 6, 66, 64
8, 11260, Note_on_c, 6, 69, 89
8, 11386, Note_off_c, 6, 69, 64
8, 11504, Note_on_c, 6, 69, 100
8, 11925, Note_off_c, 6, 69, 64
8, 11995, Note_on_c, 6, 62, 87
8, 12114, Note_off_c, 6, 62, 64
8, 12483, Note_on_c, 6, 74, 100
8, 12601, Note_off_c, 6, 74, 64
8, 12824, Note_on_c, 6, 74, 87
8, 12893, Note_off_c, 6, 74, 64
8, 12933, Note_on_c, 6, 74, 85
8, 13048, Note_off_c, 6, 74, 64
8, 13168, Note_on_c, 6, 69, 85
8, 13278, Note_off_c, 6, 69, 64
8, 13413, Note_on_c, 6, 69, 82
8, 13583, Note_off_c, 6, 69, 64
8, 13653, Note_on_c, 6, 66, 63
8, 13754, Note_off_c, 6, 66, 64
8, 13894, Note_on_c, 6, 62, 78
8, 14012, Note_off_c, 6, 62, 64
8, 14143, Note_on_c, 6, 69, 85
8, 14259, Note_off_c, 6, 69, 64
8, 14399, Note_on_c, 6, 69, 85
8, 14759, Note_off_c, 6, 69, 64
8, 14871, Note_on_c, 6, 62, 80
8, 14965, Note_on_c, 6, 66, 70
8, 14996, Note_off_c, 6, 62, 64
8, 15062, Note_off_c, 6, 66, 64
8, 15105, Note_on_c, 6, 69, 85
8, 15203, Note_off_c, 6, 69, 64
8, 15340, Note_on_c, 6, 69, 85
8, 15734, Note_off_c, 6, 69, 64
8, 15825, Note_on_c, 6, 71, 89
8, 15933, Note_on_c, 6, 69, 85
8, 15960, Note_off_c, 6, 71, 64
8, 16056, Note_on_c, 6, 68, 66
8, 16064, Note_off_c, 6, 69, 64
8, 16172, Note_on_c, 6, 69, 85
8, 16191, Note_off_c, 6, 68, 64
8, 16265, Note_off_c, 6, 69, 64
8, 16304, Note_on_c, 6, 71, 80
8, 16894, Note_on_c, 6, 69, 82
8, 16895, Note_off_c, 6, 71, 64
8, 17011, Note_on_c, 6, 68, 68
8, 17017, Note_off_c, 6, 69, 64
8, 17122, Note_on_c, 6, 69, 82
8, 17138, Note_off_c, 6, 68, 64
8, 17204, Note_off_c, 6, 69, 64
8, 17253, Note_on_c, 6, 71, 85
8, 17743, Note_off_c, 6, 71, 64
8, 17981, Note_on_c, 6, 69, 93
8, 18103, Note_off_c, 6, 69, 64
8, 18462, Note_on_c, 6, 69, 82
8, 18591, Note_off_c, 6, 69, 64
8, 18947, Note_on_c, 6, 64, 95
8, 19043, Note_off_c, 6, 64, 64
8, 19188, Note_on_c, 6, 64, 100
8, 19512, Note_off_c, 6, 64, 64
8, 19512, End_track
9, 0, Start_track
9, 0, Title_t, "Bassoon"
9, 0, Program_c, 7, 70
9, 0, Control_c, 7, 7, 100
9, 469, Note_on_c, 7, 50, 82
9, 583, Note_on_c, 7, 52, 78
9, 600, Note_off_c, 7, 50, 64
9, 698, Note_on_c, 7, 54, 60
9, 719, Note_off_c, 7, 52, 64
9, 815, Note_on_c, 7, 55, 82
9, 836, Note_off_c, 7, 54, 64
9, 912, Note_off_c, 7, 55, 64
9, 946, Note_on_c, 7, 57, 98
9, 1383, Note_off_c, 7, 57, 64
9, 1428, Note_on_c, 7, 55, 85
9, 1553, Note_on_c, 7, 54, 68
9, 1575, Note_off_c, 7, 55, 64
9, 1666, Note_on_c, 7, 52, 78
9, 1673, Note_off_c, 7, 54, 64
9, 1762, Note_off_c, 7, 52, 64
9, 1771, Note_on_c, 7, 50, 66
9, 1885, Note_off_c, 7, 50, 64
9, 1901, Note_on_c, 7, 57, 98
9, 2280, Note_off_c, 7, 57, 64
9, 2374, Note_on_c, 7, 54, 98
9, 2497, Note_off_c, 7, 54, 64
9, 2497, Note_on_c, 7, 50, 66
9, 2544, Note_on_c, 7, 52, 80
9, 2563, Note_off_c, 7, 50, 64
9, 2597, Note_off_c, 7, 52, 64
9, 2606, Note_on_c, 7, 54, 89
9, 2739, Note_off_c, 7, 54, 64
9, 2740, Note_on_c, 7, 52, 58
9, 2788, Note_on_c, 7, 54, 74
9, 2805, Note_off_c, 7, 52, 64
9, 2839, Note_off_c, 7, 54, 64
9, 2850, Note_on_c, 7, 55, 102
9, 2986, Note_on_c, 7, 52, 63
9, 2987, Note_off_c, 7, 55, 64
9, 3028, Note_on_c, 7, 54, 63
9, 3046, Note_off_c, 7, 52, 64
9, 3081, Note_off_c, 7, 54, 64
9, 3096, Note_on_c, 7, 55, 102
9, 3221, Note_off_c, 7, 55, 64
9, 3229, Note_on_c, 7, 54, 60
9, 3275, Note_on_c, 7, 55, 78
9, 3283, Note_off_c, 7, 54, 64
9, 3334, Note_off_c, 7, 55, 64
9, 3343, Note_on_c, 7, 57, 100
9, 3432, Note_off_c, 7, 57, 64
9, 3587, Note_on_c, 7, 45, 98
9, 3689, Note_off_c, 7, 45, 64
9, 3814, Note_on_c, 7, 50, 89
9, 3900, Note_off_c, 7, 50, 64
9, 4058, Note_on_c, 7, 38, 102
9, 4163, Note_off_c, 7, 38, 64
9, 4300, Note_on_c, 7, 50, 82
9, 4404, Note_on_c, 7, 52, 64
9, 4423, Note_off_c, 7, 50, 64
9, 4524, Note_on_c, 7, 54, 66
9, 4530, Note_off_c, 7, 52, 64
9, 4640, Note_on_c, 7, 55, 82
9, 4642, Note_off_c, 7, 54, 64
9, 4739, Note_off_c, 7, 55, 64
9, 4786, Note_on_c, 7, 57, 102
9, 5182, Note_off_c, 7, 57, 64
9, 5260, Note_on_c, 7, 55, 85
9, 5378, Note_on_c, 7, 54, 64
9, 5396, Note_off_c, 7, 55, 64
9, 5499, Note_on_c, 7, 52, 78
9, 5513, Note_off_c, 7, 54, 64
9, 5609, Note_off_c, 7, 52, 64
9, 5616, Note_on_c, 7, 50, 85
9, 5724, Note_off_c, 7, 50, 64
9, 5747, Note_on_c, 7, 57, 89
9, 5951, Note_off_c, 7, 57, 64
9, 5974, Note_on_c, 7, 59, 82
9, 6085, Note_off_c, 7, 59, 64
9, 6087, Note_on_c, 7, 61, 78
9, 6160, Note_off_c, 7, 61, 64
9, 6216, Note_on_c, 7, 59, 89
9, 6450, Note_off_c, 7, 59, 64
9, 6455, Note_on_c, 7, 57, 80
9, 6601, Note_off_c, 7, 57, 64
9, 6694, Note_on_c, 7, 56, 93
9, 6931, Note_on_c, 7, 54, 61
9, 6937, Note_off_c, 7, 56, 64
9, 7069, Note_off_c, 7, 54, 64
9, 7189, Note_on_c, 7, 52, 89
9, 7421, Note_off_c, 7, 52, 64
9, 7423, Note_on_c, 7, 50, 66
9, 7570, Note_off_c, 7, 50, 64
9, 7658, Note_on_c, 7, 49, 98
9, 7881, Note_off_c, 7, 49, 64
9, 7893, Note_on_c, 7, 47, 66
9, 8049, Note_off_c, 7, 47, 64
9, 8138, Note_on_c, 7, 49, 98
9, 8252, Note_off_c, 7, 49, 64
9, 8256, Note_on_c, 7, 45, 64
9, 8300, Note_on_c, 7, 47, 85
9, 8320, Note_off_c, 7, 45, 64
9, 8350, Note_off_c, 7, 47, 64
9, 8366, Note_on_c, 7, 49, 98
9, 8488, Note_off_c, 7, 49, 64
9, 8502, Note_on_c, 7, 47, 68
9, 8547, Note_on_c, 7, 49, 85
9, 8568, Note_off_c, 7, 47, 64
9, 8589, Note_off_c, 7, 49, 64
9, 8609, Note_on_c, 7, 50, 100
9, 8741, Note_off_c, 7, 50, 64
9, 8748, Note_on_c, 7, 47, 78
9, 8787, Note_on_c, 7, 49, 66
9, 8815, Note_off_c, 7, 47, 64
9, 8844, Note_off_c, 7, 49, 64
9, 8857, Note_on_c, 7, 50, 98
9, 8984, Note_on_c, 7, 49, 64
9, 8991, Note_off_c, 7, 50, 64
9, 9039, Note_on_c, 7, 50, 80
9, 9049, Note_off_c, 7, 49, 64
9, 9094, Note_off_c, 7, 50, 64
9, 9101, Note_on_c, 7, 52, 98
9, 9219, Note_off_c, 7, 52, 64
9, 9344, Note_on_c, 7, 40, 95
9, 9441, Note_off_c, 7, 40, 64
9, 9580, Note_on_c, 7, 45, 100
9, 9879, Note_off_c, 7, 45, 64
9, 10080, Note_on_c, 7, 50, 82
9, 10183, Note_on_c, 7, 52, 78
9, 10202, Note_off_c, 7, 50, 64
9, 10299, Note_on_c, 7, 54, 61
9, 10311, Note_off_c, 7, 52, 64
9, 10409, Note_on_c, 7, 55, 87
9, 10413, Note_off_c, 7, 54, 64
9, 10490, Note_off_c, 7, 55, 64
9, 10541, Note_on_c, 7, 57, 102
9, 10960, Note_off_c, 7, 57, 64
9, 11022, Note_on_c, 7, 55, 80
9, 11141, Note_on_c, 7, 54, 63
9, 11159, Note_off_c, 7, 55, 64
9, 11257, Note_on_c, 7, 52, 76
9, 11258, Note_off_c, 7, 54, 64
9, 11342, Note_off_c, 7, 52, 64
9, 11359, Note_on_c, 7, 50, 82
9, 11460, Note_off_c, 7, 50, 64
9, 11489, Note_on_c, 7, 57, 95
9, 11887, Note_off_c, 7, 57, 64
9, 11981, Note_on_c, 7, 54, 100
9, 12097, Note_on_c, 7, 50, 66
9, 12102, Note_off_c, 7, 54, 64
9, 12147, Note_on_c, 7, 52, 85
9, 12167, Note_off_c, 7, 50, 64
9, 12196, Note_off_c, 7, 52, 64
9, 12212, Note_on_c, 7, 54, 95
9, 12327, Note_off_c, 7, 54, 64
9, 12335, Note_on_c, 7, 52, 68
9, 12389, Note_on_c, 7, 54, 78
9, 12399, Note_off_c, 7, 52, 64
9, 12437, Note_off_c, 7, 54, 64
9, 12454, Note_on_c, 7, 55, 100
9, 12581, Note_off_c, 7, 55, 64
9, 12583, Note_on_c, 7, 52, 70
9, 12633, Note_on_c, 7, 54, 64
9, 12647, Note_off_c, 7, 52, 64
9, 12682, Note_off_c, 7, 54, 64
9, 12702, Note_on_c, 7, 55, 100
9, 12808, Note_off_c, 7, 55, 64
9, 12823, Note_on_c, 7, 54, 85
9, 12879, Note_on_c, 7, 55, 87
9, 12886, Note_off_c, 7, 54, 64
9, 12932, Note_off_c, 7, 55, 64
9, 12948, Note_on_c, 7, 57, 82
9, 13085, Note_off_c, 7, 57, 64
9, 13176, Note_on_c, 7, 45, 100
9, 13305, Note_off_c, 7, 45, 64
9, 13411, Note_on_c, 7, 50, 87
9, 13534, Note_off_c, 7, 50, 64
9, 13660, Note_on_c, 7, 38, 98
9, 13776, Note_off_c, 7, 38, 64
9, 13895, Note_on_c, 7, 50, 82
9, 14003, Note_on_c, 7, 52, 82
9, 14013, Note_off_c, 7, 50, 64
9, 14121, Note_on_c, 7, 54, 66
9, 14136, Note_off_c, 7, 52, 64
9, 14233, Note_off_c, 7, 54, 64
9, 14239, Note_on_c, 7, 55, 87
9, 14335, Note_off_c, 7, 55, 64
9, 14375, Note_on_c, 7, 57, 100
9, 14785, Note_off_c, 7, 57, 64
9, 14871, Note_on_c, 7, 55, 85
9, 14989, Note_on_c, 7, 54, 74
9, 15009, Note_off_c, 7, 55, 64
9, 15097, Note_on_c, 7, 52, 72
9, 15109, Note_off_c, 7, 54, 64
9, 15191, Note_off_c, 7, 52, 64
9, 15212, Note_on_c, 7, 50, 70
9, 15294, Note_off_c, 7, 50, 64
9, 15341, Note_on_c, 7, 57, 89
9, 15574, Note_off_c, 7, 57, 64
9, 15582, Note_on_c, 7, 59, 78
9, 15681, Note_on_c, 7, 61, 82
9, 15687, Note_off_c, 7, 59, 64
9, 15780, Note_off_c, 7, 61, 64
9, 15809, Note_on_c, 7, 59, 87
9, 16063, Note_on_c, 7, 57, 76
9, 16067, Note_off_c, 7, 59, 64
9, 16230, Note_off_c, 7, 57, 64
9, 16312, Note_on_c, 7, 56, 95
9, 16540, Note_off_c, 7, 56, 64
9, 16551, Note_on_c, 7, 54, 66
9, 16707, Note_off_c, 7, 54, 64
9, 16790, Note_on_c, 7, 52, 87
9, 17012, Note_off_c, 7, 52, 64
9, 17020, Note_on_c, 7, 50, 76
9, 17172, Note_off_c, 7, 50, 64
9, 17248, Note_on_c, 7, 49, 89
9, 17476, Note_off_c, 7, 49, 64
9, 17489, Note_on_c, 7, 47, 63
9, 17650, Note_off_c, 7, 47, 64
9, 17728, Note_on_c, 7, 49, 93
9, 17847, Note_off_c, 7, 49, 64
9, 17853, Note_on_c, 7, 45, 58
9, 17898, Note_on_c, 7, 47, 80
9, 17914, Note_off_c, 7, 45, 64
9, 17947, Note_off_c, 7, 47, 64
9, 17965, Note_on_c, 7, 49, 102
9, 18087, Note_off_c, 7, 49, 64
9, 18102, Note_on_c, 7, 47, 64
9, 18151, Note_on_c, 7, 49, 85
9, 18165, Note_off_c, 7, 47, 64
9, 18194, Note_off_c, 7, 49, 64
9, 18213, Note_on_c, 7, 50, 95
9, 18321, Note_off_c, 7, 50, 64
9, 18349, Note_on_c, 7, 47, 68
9, 18394, Note_on_c, 7, 49, 61
9, 18412, Note_off_c, 7, 47, 64
9, 18439, Note_off_c, 7, 49, 64
9, 18459, Note_on_c, 7, 50, 93
9, 18570, Note_off_c, 7, 50, 64
9, 18591, Note_on_c, 7, 49, 68
9, 18644, Note_on_c, 7, 50, 66
9, 18647, Note_off_c, 7, 49, 64
9, 18689, Note_off_c, 7, 50, 64
9, 18695, Note_on_c, 7, 52, 89
9, 18806, Note_off_c, 7, 52, 64
9, 18941, Note_on_c, 7, 40, 95
9, 19056, Note_off_c, 7, 40, 64
9, 19178, Note_on_c, 7, 45, 102
9, 19451, Note_off_c, 7, 45, 64
9, 19451, End_track
10, 0, Start_track
10, 0, Title_t, "Violin"
10, 0, Program_c, 8, 40
10, 0, Control_c, 8, 7, 100
10, 481, Note_on_c, 8, 69, 107
10, 576, Note_off_c, 8, 69, 64
10, 723, Note_on_c, 8, 74, 102
10, 1165, Note_off_c, 8, 74, 64
10, 1186, Note_on_c, 8, 73, 78
10, 1298, Note_on_c, 8, 71, 85
10, 1300, Note_off_c, 8, 73, 64
10, 1383, Note_off_c, 8, 71, 64
10, 1415, Note_on_c, 8, 69, 80
10, 1536, Note_on_c, 8, 74, 85
10, 1551, Note_off_c, 8, 69, 64
10, 1627, Note_off_c, 8, 74, 64
10, 1662, Note_on_c, 8, 78, 105
10, 2118, Note_off_c, 8, 78, 64
10, 2142, Note_on_c, 8, 76, 80
10, 2338, Note_off_c, 8, 76, 64
10, 2626, Note_on_c, 8, 81, 95
10, 2760, Note_off_c, 8, 81, 64
10, 3104, Note_on_c, 8, 81, 100
10, 3267, Note_off_c, 8, 81, 64
10, 3448, Note_on_c, 8, 79, 89
10, 3556, Note_off_c, 8, 79, 64
10, 3571, Note_on_c, 8, 78, 91
10, 3659, Note_off_c, 8, 78, 64
10, 3671, Note_on_c, 8, 76, 89
10, 3763, Note_off_c, 8, 76, 64
10, 3802, Note_on_c, 8, 78, 93
10, 3999, Note_off_c, 8, 78, 64
10, 4033, Note_on_c, 8, 74, 80
10, 4139, Note_off_c, 8, 74, 64
10, 4294, Note_on_c, 8, 69, 89
10, 4403, Note_off_c, 8, 69, 64
10, 4540, Note_on_c, 8, 74, 89
10, 5013, Note_off_c, 8, 74, 64
10, 5028, Note_on_c, 8, 73, 64
10, 5142, Note_on_c, 8, 71, 82
10, 5152, Note_off_c, 8, 73, 64
10, 5236, Note_off_c, 8, 71, 64
10, 5264, Note_on_c, 8, 69, 85
10, 5378, Note_on_c, 8, 74, 87
10, 5396, Note_off_c, 8, 69, 64
10, 5471, Note_off_c, 8, 74, 64
10, 5498, Note_on_c, 8, 78, 93
10, 5947, Note_off_c, 8, 78, 64
10, 5978, Note_on_c, 8, 76, 78
10, 6146, Note_off_c, 8, 76, 64
10, 6699, Note_on_c, 8, 74, 91
10, 6819, Note_on_c, 8, 78, 76
10, 6827, Note_off_c, 8, 74, 64
10, 6865, Note_on_c, 8, 76, 68
10, 6886, Note_off_c, 8, 78, 64
10, 6929, Note_off_c, 8, 76, 64
10, 6931, Note_on_c, 8, 74, 87
10, 7121, Note_off_c, 8, 74, 64
10, 7666, Note_on_c, 8, 64, 98
10, 7785, Note_on_c, 8, 66, 63
10, 7802, Note_off_c, 8, 64, 64
10, 7842, Note_on_c, 8, 68, 66
10, 7859, Note_off_c, 8, 66, 64
10, 7890, Note_off_c, 8, 68, 64
10, 7900, Note_on_c, 8, 69, 87
10, 7953, Note_on_c, 8, 71, 95
10, 7970, Note_off_c, 8, 69, 64
10, 8006, Note_on_c, 8, 73, 78
10, 8031, Note_off_c, 8, 71, 64
10, 8054, Note_on_c, 8, 74, 85
10, 8080, Note_off_c, 8, 73, 64
10, 8129, Note_off_c, 8, 74, 64
10, 8133, Note_on_c, 8, 76, 93
10, 8404, Note_off_c, 8, 76, 64
10, 8615, Note_on_c, 8, 76, 95
10, 8816, Note_off_c, 8, 76, 64
10, 8976, Note_on_c, 8, 78, 105
10, 9084, Note_off_c, 8, 78, 64
10, 9097, Note_on_c, 8, 76, 85
10, 9206, Note_on_c, 8, 74, 76
10, 9215, Note_off_c, 8, 76, 64
10, 9327, Note_on_c, 8, 73, 76
10, 9331, Note_off_c, 8, 74, 64
10, 9437, Note_on_c, 8, 71, 80
10, 9441, Note_off_c, 8, 73, 64
10, 9537, Note_off_c, 8, 71, 64
10, 9569, Note_on_c, 8, 71, 89
10, 9805, Note_on_c, 8, 69, 66
10, 9810, Note_off_c, 8, 71, 64
10, 9928, Note_off_c, 8, 69, 64
10, 10065, Note_on_c, 8, 69, 102
10, 10182, Note_off_c, 8, 69, 64
10, 10312, Note_on_c, 8, 74, 107
10, 10750, Note_off_c, 8, 74, 64
10, 10778, Note_on_c, 8, 73, 87
10, 10890, Note_on_c, 8, 71, 87
10, 10902, Note_off_c, 8, 73, 64
10, 10988, Note_off_c, 8, 71, 64
10, 11012, Note_on_c, 8, 69, 85
10, 11124, Note_on_c, 8, 74, 89
10, 11143, Note_off_c, 8, 69, 64
10, 11209, Note_off_c, 8, 74, 64
10, 11252, Note_on_c, 8, 78, 107
10, 11723, Note_off_c, 8, 78, 64
10, 11746, Note_on_c, 8, 76, 87
10, 11944, Note_off_c, 8, 76, 64
10, 12222, Note_on_c, 8, 81, 93
10, 12359, Note_off_c, 8, 81, 64
10, 12707, Note_on_c, 8, 81, 93
10, 12866, Note_off_c, 8, 81, 64
10, 13046, Note_on_c, 8, 79, 82
10, 13149, Note_off_c, 8, 79, 64
10, 13164, Note_on_c, 8, 78, 76
10, 13255, Note_off_c, 8, 78, 64
10, 13274, Note_on_c, 8, 76, 82
10, 13356, Note_off_c, 8, 76, 64
10, 13406, Note_on_c, 8, 78, 93
10, 13612, Note_off_c, 8, 78, 64
10, 13645, Note_on_c, 8, 74, 72
10, 13757, Note_off_c, 8, 74, 64
10, 13903, Note_on_c, 8, 69, 93
10, 14012, Note_off_c, 8, 69, 64
10, 14143, Note_on_c, 8, 74, 105
10, 14582, Note_off_c, 8, 74, 64
10, 14606, Note_on_c, 8, 73, 72
10, 14720, Note_on_c, 8, 71, 74
10, 14726, Note_off_c, 8, 73, 64
10, 14817, Note_off_c, 8, 71, 64
10, 14835, Note_on_c, 8, 69, 78
10, 14964, Note_on_c, 8, 74, 87
10, 14983, Note_off_c, 8, 69, 64
10, 15054, Note_off_c, 8, 74, 64
10, 15094, Note_on_c, 8, 78, 105
10, 15542, Note_off_c, 8, 78, 64
10, 15571, Note_on_c, 8, 76, 76
10, 15741, Note_off_c, 8, 76, 64
10, 16301, Note_on_c, 8, 74, 91
10, 16419, Note_on_c, 8, 78, 63
10, 16433, Note_off_c, 8, 74, 64
10, 16461, Note_on_c, 8, 76, 78
10, 16484, Note_off_c, 8, 78, 64
10, 16520, Note_off_c, 8, 76, 64
10, 16543, Note_on_c, 8, 74, 89
10, 16793, Note_off_c, 8, 74, 64
10, 17260, Note_on_c, 8, 64, 93
10, 17371, Note_on_c, 8, 66, 60
10, 17387, Note_off_c, 8, 64, 64
10, 17426, Note_on_c, 8, 68, 76
10, 17442, Note_off_c, 8, 66, 64
10, 17477, Note_off_c, 8, 68, 64
10, 17485, Note_on_c, 8, 69, 89
10, 17544, Note_on_c, 8, 71, 98
10, 17558, Note_off_c, 8, 69, 64
10, 17599, Note_on_c, 8, 73, 80
10, 17618, Note_off_c, 8, 71, 64
10, 17653, Note_on_c, 8, 74, 87
10, 17671, Note_off_c, 8, 73, 64
10, 17718, Note_off_c, 8, 74, 64
10, 17723, Note_on_c, 8, 76, 91
10, 17947, Note_off_c, 8, 76, 64
10, 18213, Note_on_c, 8, 76, 100
10, 18391, Note_off_c, 8, 76, 64
10, 18582, Note_on_c, 8, 78, 89
10, 18678, Note_off_c, 8, 78, 64
10, 18696, Note_on_c, 8, 76, 82
10, 18809, Note_off_c, 8, 76, 64
10, 18810, Note_on_c, 8, 74, 80
10, 18898, Note_off_c, 8, 74, 64
10, 18928, Note_on_c, 8, 73, 80
10, 19012, Note_off_c, 8, 73, 64
10, 19038, Note_on_c, 8, 71, 91
10, 19101, Note_off_c, 8, 71, 64
10, 19176, Note_on_c, 8, 71, 105
10, 19412, Note_on_c, 8, 69, 57
10, 19418, Note_off_c, 8, 71, 64
10, 19578, Note_off_c, 8, 69, 64
10, 19578, End_track
11, 0, Start_track
11, 0, Title_t, "Violin"
11, 0, Program_c, 10, 40
11, 0, Control_c, 10, 7, 100
11, 479, Note_on_c, 10, 66, 87
11, 587, Note_off_c, 10, 66, 64
11, 717, Note_on_c, 10, 66, 87
11, 857, Note_off_c, 10, 66, 64
11, 966, Note_on_c, 10, 64, 95
11, 1322, Note_off_c, 10, 64, 64
11, 1436, Note_on_c, 10, 66, 76
11, 1534, Note_off_c, 10, 66, 64
11, 1541, Note_on_c, 10, 69, 89
11, 1650, Note_off_c, 10, 69, 64
11, 1674, Note_on_c, 10, 74, 93
11, 2133, Note_off_c, 10, 74, 64
11, 2143, Note_on_c, 10, 73, 68
11, 2330, Note_off_c, 10, 73, 64
11, 2618, Note_on_c, 10, 78, 82
11, 2796, Note_off_c, 10, 78, 64
11, 3102, Note_on_c, 10, 78, 91
11, 3259, Note_off_c, 10, 78, 64
11, 3452, Note_on_c, 10, 76, 82
11, 3565, Note_on_c, 10, 74, 66
11, 3579, Note_off_c, 10, 76, 64
11, 3660, Note_off_c, 10, 74, 64
11, 3678, Note_on_c, 10, 73, 82
11, 3779, Note_off_c, 10, 73, 64
11, 3802, Note_on_c, 10, 74, 95
11, 3998, Note_off_c, 10, 74, 64
11, 4045, Note_on_c, 10, 69, 70
11, 4185, Note_off_c, 10, 69, 64
11, 4283, Note_on_c, 10, 66, 62
11, 4416, Note_off_c, 10, 66, 64
11, 4536, Note_on_c, 10, 66, 76
11, 4653, Note_off_c, 10, 66, 64
11, 4784, Note_on_c, 10, 64, 87
11, 5201, Note_off_c, 10, 64, 64
11, 5268, Note_on_c, 10, 66, 80
11, 5380, Note_off_c, 10, 66, 64
11, 5384, Note_on_c, 10, 69, 85
11, 5490, Note_off_c, 10, 69, 64
11, 5511, Note_on_c, 10, 74, 89
11, 5966, Note_off_c, 10, 74, 64
11, 5978, Note_on_c, 10, 73, 62
11, 6154, Note_off_c, 10, 73, 64
11, 6695, Note_on_c, 10, 71, 85
11, 6819, Note_on_c, 10, 74, 80
11, 6823, Note_off_c, 10, 71, 64
11, 6869, Note_on_c, 10, 73, 62
11, 6886, Note_off_c, 10, 74, 64
11, 6931, Note_on_c, 10, 71, 80
11, 6935, Note_off_c, 10, 73, 64
11, 7150, Note_off_c, 10, 71, 64
11, 7650, Note_on_c, 10, 64, 85
11, 7775, Note_on_c, 10, 66, 64
11, 7793, Note_off_c, 10, 64, 64
11, 7827, Note_on_c, 10, 68, 64
11, 7846, Note_off_c, 10, 66, 64
11, 7881, Note_off_c, 10, 68, 64
11, 7888, Note_on_c, 10, 69, 80
11, 7952, Note_on_c, 10, 71, 80
11, 7965, Note_off_c, 10, 69, 64
11, 8004, Note_on_c, 10, 73, 80
11, 8027, Note_off_c, 10, 71, 64
11, 8062, Note_on_c, 10, 74, 85
11, 8071, Note_off_c, 10, 73, 64
11, 8131, Note_on_c, 10, 73, 102
11, 8133, Note_off_c, 10, 74, 64
11, 8349, Note_off_c, 10, 73, 64
11, 8623, Note_on_c, 10, 73, 91
11, 8822, Note_off_c, 10, 73, 64
11, 8978, Note_on_c, 10, 74, 82
11, 9090, Note_off_c, 10, 74, 64
11, 9095, Note_on_c, 10, 73, 68
11, 9206, Note_on_c, 10, 71, 66
11, 9211, Note_off_c, 10, 73, 64
11, 9328, Note_off_c, 10, 71, 64
11, 9331, Note_on_c, 10, 69, 74
11, 9429, Note_off_c, 10, 69, 64
11, 9441, Note_on_c, 10, 68, 85
11, 9515, Note_off_c, 10, 68, 64
11, 9580, Note_on_c, 10, 68, 107
11, 9818, Note_off_c, 10, 68, 64
11, 9818, Note_on_c, 10, 69, 70
11, 9965, Note_off_c, 10, 69, 64
11, 10072, Note_on_c, 10, 66, 70
11, 10176, Note_off_c, 10, 66, 64
11, 10302, Note_on_c, 10, 66, 74
11, 10413, Note_off_c, 10, 66, 64
11, 10550, Note_on_c, 10, 64, 82
11, 10940, Note_off_c, 10, 64, 64
11, 11027, Note_on_c, 10, 66, 85
11, 11131, Note_off_c, 10, 66, 64
11, 11139, Note_on_c, 10, 69, 89
11, 11246, Note_off_c, 10, 69, 64
11, 11269, Note_on_c, 10, 74, 95
11, 11738, Note_off_c, 10, 74, 64
11, 11749, Note_on_c, 10, 73, 64
11, 11963, Note_off_c, 10, 73, 64
11, 12214, Note_on_c, 10, 78, 80
11, 12394, Note_off_c, 10, 78, 64
11, 12702, Note_on_c, 10, 78, 93
11, 12874, Note_off_c, 10, 78, 64
11, 13066, Note_on_c, 10, 76, 91
11, 13171, Note_on_c, 10, 74, 70
11, 13182, Note_off_c, 10, 76, 64
11, 13255, Note_off_c, 10, 74, 64
11, 13276, Note_on_c, 10, 73, 85
11, 13372, Note_off_c, 10, 73, 64
11, 13401, Note_on_c, 10, 74, 95
11, 13625, Note_off_c, 10, 74, 64
11, 13648, Note_on_c, 10, 69, 80
11, 13768, Note_off_c, 10, 69, 64
11, 13903, Note_on_c, 10, 66, 63
11, 14036, Note_off_c, 10, 66, 64
11, 14138, Note_on_c, 10, 66, 78
11, 14263, Note_off_c, 10, 66, 64
11, 14390, Note_on_c, 10, 64, 89
11, 14836, Note_off_c, 10, 64, 64
11, 14866, Note_on_c, 10, 66, 95
11, 14983, Note_on_c, 10, 69, 80
11, 14996, Note_off_c, 10, 66, 64
11, 15087, Note_off_c, 10, 69, 64
11, 15103, Note_on_c, 10, 74, 98
11, 15560, Note_off_c, 10, 74, 64
11, 15575, Note_on_c, 10, 73, 78
11, 15788, Note_off_c, 10, 73, 64
11, 16300, Note_on_c, 10, 71, 91
11, 16431, Note_on_c, 10, 74, 80
11, 16433, Note_off_c, 10, 71, 64
11, 16481, Note_on_c, 10, 73, 80
11, 16499, Note_off_c, 10, 74, 64
11, 16540, Note_on_c, 10, 71, 80
11, 16546, Note_off_c, 10, 73, 64
11, 16742, Note_off_c, 10, 71, 64
11, 17246, Note_on_c, 10, 64, 85
11, 17375, Note_on_c, 10, 66, 60
11, 17390, Note_off_c, 10, 64, 64
11, 17426, Note_on_c, 10, 68, 66
11, 17442, Note_off_c, 10, 66, 64
11, 17477, Note_off_c, 10, 68, 64
11, 17486, Note_on_c, 10, 69, 80
11, 17548, Note_on_c, 10, 71, 85
11, 17560, Note_off_c, 10, 69, 64
11, 17599, Note_on_c, 10, 73, 82
11, 17617, Note_off_c, 10, 71, 64
11, 17662, Note_off_c, 10, 73, 64
11, 17669, Note_on_c, 10, 74, 82
11, 17735, Note_on_c, 10, 73, 102
11, 17743, Note_off_c, 10, 74, 64
11, 17914, Note_off_c, 10, 73, 64
11, 18222, Note_on_c, 10, 73, 87
11, 18427, Note_off_c, 10, 73, 64
11, 18582, Note_on_c, 10, 74, 85
11, 18697, Note_off_c, 10, 74, 64
11, 18700, Note_on_c, 10, 73, 68
11, 18812, Note_on_c, 10, 71, 74
11, 18824, Note_off_c, 10, 73, 64
11, 18927, Note_off_c, 10, 71, 64
11, 18937, Note_on_c, 10, 69, 82
11, 19029, Note_off_c, 10, 69, 64
11, 19044, Note_on_c, 10, 68, 80
11, 19140, Note_off_c, 10, 68, 64
11, 19187, Note_on_c, 10, 68, 102
11, 19418, Note_on_c, 10, 69, 74
11, 19420, Note_off_c, 10, 68, 64
11, 19588, Note_off_c, 10, 69, 64
11, 19588, End_track
12, 0, Start_track
12, 0, Title_t, "Viola"
12, 0, Program_c, 11, 41
12, 0, Control_c, 11, 7, 100
12, 478, Note_on_c, 11, 62, 87
12, 602, Note_off_c, 11, 62, 64
12, 713, Note_on_c, 11, 69, 93
12, 814, Note_off_c, 11, 69, 64
12, 955, Note_on_c, 11, 69, 91
12, 1315, Note_off_c, 11, 69, 64
12, 1420, Note_on_c, 11, 62, 91
12, 1526, Note_on_c, 11, 66, 85
12, 1534, Note_off_c, 11, 62, 64
12, 1623, Note_off_c, 11, 66, 64
12, 1655, Note_on_c, 11, 69, 91
12, 1770, Note_off_c, 11, 69, 64
12, 1905, Note_on_c, 11, 69, 100
12, 2384, Note_off_c, 11, 69, 64
12, 2620, Note_on_c, 11, 62, 98
12, 2791, Note_off_c, 11, 62, 64
12, 3108, Note_on_c, 11, 74, 95
12, 3272, Note_off_c, 11, 74, 64
12, 3568, Note_on_c, 11, 69, 87
12, 3666, Note_off_c, 11, 69, 64
12, 3817, Note_on_c, 11, 69, 89
12, 4003, Note_off_c, 11, 69, 64
12, 4050, Note_on_c, 11, 66, 70
12, 4155, Note_off_c, 11, 66, 64
12, 4308, Note_on_c, 11, 62, 100
12, 4423, Note_off_c, 11, 62, 64
12, 4540, Note_on_c, 11, 69, 93
12, 4642, Note_off_c, 11, 69, 64
12, 4783, Note_on_c, 11, 69, 98
12, 5174, Note_off_c, 11, 69, 64
12, 5249, Note_on_c, 11, 62, 95
12, 5354, Note_on_c, 11, 66, 85
12, 5366, Note_off_c, 11, 62, 64
12, 5464, Note_off_c, 11, 66, 64
12, 5488, Note_on_c, 11, 69, 89
12, 5603, Note_off_c, 11, 69, 64
12, 5734, Note_on_c, 11, 69, 107
12, 6202, Note_off_c, 11, 69, 64
12, 6697, Note_on_c, 11, 64, 93
12, 8112, Note_off_c, 11, 64, 64
12, 8138, Note_on_c, 11, 69, 91
12, 8316, Note_off_c, 11, 69, 64
12, 8624, Note_on_c, 11, 69, 98
12, 8853, Note_off_c, 11, 69, 64
12, 8991, Note_on_c, 11, 69, 91
12, 9060, Note_off_c, 11, 69, 64
12, 9097, Note_on_c, 11, 69, 95
12, 9230, Note_off_c, 11, 69, 64
12, 9339, Note_on_c, 11, 64, 89
12, 9449, Note_off_c, 11, 64, 64
12, 9573, Note_on_c, 11, 61, 89
12, 9935, Note_off_c, 11, 61, 64
12, 10073, Note_on_c, 11, 62, 89
12, 10202, Note_off_c, 11, 62, 64
12, 10313, Note_on_c, 11, 69, 91
12, 10408, Note_off_c, 11, 69, 64
12, 10562, Note_on_c, 11, 69, 102
12, 10924, Note_off_c, 11, 69, 64
12, 11023, Note_on_c, 11, 62, 93
12, 11125, Note_on_c, 11, 66, 82
12, 11140, Note_off_c, 11, 62, 64
12, 11229, Note_off_c, 11, 66, 64
12, 11254, Note_on_c, 11, 69, 87
12, 11363, Note_off_c, 11, 69, 64
12, 11508, Note_on_c, 11, 69, 102
12, 11973, Note_off_c, 11, 69, 64
12, 12218, Note_on_c, 11, 62, 85
12, 12393, Note_off_c, 11, 62, 64
12, 12711, Note_on_c, 11, 74, 98
12, 12878, Note_off_c, 11, 74, 64
12, 13173, Note_on_c, 11, 69, 89
12, 13262, Note_off_c, 11, 69, 64
12, 13410, Note_on_c, 11, 69, 98
12, 13589, Note_off_c, 11, 69, 64
12, 13649, Note_on_c, 11, 66, 80
12, 13758, Note_off_c, 11, 66, 64
12, 13899, Note_on_c, 11, 62, 82
12, 14012, Note_off_c, 11, 62, 64
12, 14143, Note_on_c, 11, 69, 87
12, 14233, Note_off_c, 11, 69, 64
12, 14395, Note_on_c, 11, 69, 93
12, 14763, Note_off_c, 11, 69, 64
12, 14862, Note_on_c, 11, 62, 89
12, 14948, Note_off_c, 11, 62, 64
12, 14961, Note_on_c, 11, 66, 85
12, 15048, Note_off_c, 11, 66, 64
12, 15092, Note_on_c, 11, 69, 85
12, 15188, Note_off_c, 11, 69, 64
12, 15349, Note_on_c, 11, 69, 102
12, 15782, Note_off_c, 11, 69, 64
12, 16301, Note_on_c, 11, 64, 72
12, 17689, Note_off_c, 11, 64, 64
12, 17725, Note_on_c, 11, 69, 89
12, 17951, Note_off_c, 11, 69, 64
12, 18222, Note_on_c, 11, 69, 98
12, 18464, Note_off_c, 11, 69, 64
12, 18592, Note_on_c, 11, 69, 89
12, 18661, Note_off_c, 11, 69, 64
12, 18696, Note_on_c, 11, 69, 87
12, 18834, Note_off_c, 11, 69, 64
12, 18945, Note_on_c, 11, 64, 87
12, 19060, Note_off_c, 11, 64, 64
12, 19174, Note_on_c, 11, 61, 82
12, 19535, Note_off_c, 11, 61, 64
12, 19535, End_track
13, 0, Start_track
13, 0, Title_t, "Cello"
13, 0, Program_c, 12, 42
13, 0, Control_c, 12, 7, 100
13, 470, Note_on_c, 12, 50, 100
13, 580, Note_on_c, 12, 52, 80
13, 599, Note_off_c, 12, 50, 64
13, 704, Note_on_c, 12, 54, 82
13, 709, Note_off_c, 12, 52, 64
13, 821, Note_on_c, 12, 55, 98
13, 832, Note_off_c, 12, 54, 64
13, 927, Note_off_c, 12, 55, 64
13, 952, Note_on_c, 12, 57, 98
13, 1360, Note_off_c, 12, 57, 64
13, 1422, Note_on_c, 12, 55, 91
13, 1547, Note_on_c, 12, 54, 68
13, 1560, Note_off_c, 12, 55, 64
13, 1670, Note_on_c, 12, 52, 78
13, 1678, Note_off_c, 12, 54, 64
13, 1756, Note_off_c, 12, 52, 64
13, 1775, Note_on_c, 12, 50, 85
13, 1888, Note_off_c, 12, 50, 64
13, 1909, Note_on_c, 12, 57, 100
13, 2299, Note_off_c, 12, 57, 64
13, 2387, Note_on_c, 12, 54, 102
13, 2505, Note_off_c, 12, 54, 64
13, 2513, Note_on_c, 12, 50, 74
13, 2560, Note_on_c, 12, 52, 78
13, 2569, Note_off_c, 12, 50, 64
13, 2618, Note_on_c, 12, 54, 85
13, 2623, Note_off_c, 12, 52, 64
13, 2714, Note_off_c, 12, 54, 64
13, 2745, Note_on_c, 12, 52, 66
13, 2795, Note_on_c, 12, 54, 70
13, 2809, Note_off_c, 12, 52, 64
13, 2844, Note_off_c, 12, 54, 64
13, 2860, Note_on_c, 12, 55, 105
13, 2987, Note_off_c, 12, 55, 64
13, 2998, Note_on_c, 12, 52, 80
13, 3040, Note_on_c, 12, 54, 64
13, 3057, Note_off_c, 12, 52, 64
13, 3095, Note_off_c, 12, 54, 64
13, 3106, Note_on_c, 12, 55, 102
13, 3227, Note_off_c, 12, 55, 64
13, 3235, Note_on_c, 12, 54, 72
13, 3283, Note_off_c, 12, 54, 64
13, 3291, Note_on_c, 12, 55, 62
13, 3338, Note_off_c, 12, 55, 64
13, 3345, Note_on_c, 12, 57, 87
13, 3491, Note_off_c, 12, 57, 64
13, 3588, Note_on_c, 12, 45, 93
13, 3728, Note_off_c, 12, 45, 64
13, 3803, Note_on_c, 12, 50, 87
13, 3944, Note_off_c, 12, 50, 64
13, 4063, Note_on_c, 12, 38, 98
13, 4202, Note_off_c, 12, 38, 64
13, 4298, Note_on_c, 12, 50, 85
13, 4409, Note_on_c, 12, 52, 82
13, 4427, Note_off_c, 12, 50, 64
13, 4521, Note_on_c, 12, 54, 66
13, 4529, Note_off_c, 12, 52, 64
13, 4634, Note_off_c, 12, 54, 64
13, 4636, Note_on_c, 12, 55, 82
13, 4741, Note_off_c, 12, 55, 64
13, 4780, Note_on_c, 12, 57, 98
13, 5214, Note_off_c, 12, 57, 64
13, 5259, Note_on_c, 12, 55, 82
13, 5374, Note_on_c, 12, 54, 74
13, 5393, Note_off_c, 12, 55, 64
13, 5494, Note_on_c, 12, 52, 78
13, 5499, Note_off_c, 12, 54, 64
13, 5590, Note_off_c, 12, 52, 64
13, 5603, Note_on_c, 12, 50, 85
13, 5704, Note_off_c, 12, 50, 64
13, 5737, Note_on_c, 12, 57, 98
13, 6105, Note_off_c, 12, 57, 64
13, 6225, Note_on_c, 12, 52, 105
13, 6312, Note_off_c, 12, 52, 64
13, 6455, Note_on_c, 12, 40, 95
13, 6568, Note_off_c, 12, 40, 64
13, 7189, Note_on_c, 12, 52, 105
13, 7285, Note_off_c, 12, 52, 64
13, 7425, Note_on_c, 12, 40, 93
13, 7538, Note_off_c, 12, 40, 64
13, 8142, Note_on_c, 12, 49, 105
13, 8257, Note_off_c, 12, 49, 64
13, 8263, Note_on_c, 12, 45, 78
13, 8303, Note_on_c, 12, 47, 85
13, 8323, Note_off_c, 12, 45, 64
13, 8365, Note_off_c, 12, 47, 64
13, 8370, Note_on_c, 12, 49, 102
13, 8480, Note_off_c, 12, 49, 64
13, 8499, Note_on_c, 12, 47, 64
13, 8546, Note_on_c, 12, 49, 87
13, 8564, Note_off_c, 12, 47, 64
13, 8596, Note_off_c, 12, 49, 64
13, 8619, Note_on_c, 12, 50, 102
13, 8740, Note_off_c, 12, 50, 64
13, 8749, Note_on_c, 12, 47, 70
13, 8781, Note_on_c, 12, 49, 68
13, 8810, Note_off_c, 12, 47, 64
13, 8835, Note_off_c, 12, 49, 64
13, 8853, Note_on_c, 12, 50, 100
13, 8963, Note_off_c, 12, 50, 64
13, 8979, Note_on_c, 12, 49, 61
13, 9022, Note_on_c, 12, 50, 76
13, 9039, Note_off_c, 12, 49, 64
13, 9076, Note_off_c, 12, 50, 64
13, 9094, Note_on_c, 12, 52, 95
13, 9221, Note_off_c, 12, 52, 64
13, 9342, Note_on_c, 12, 40, 102
13, 9455, Note_off_c, 12, 40, 64
13, 9578, Note_on_c, 12, 45, 100
13, 9871, Note_off_c, 12, 45, 64
13, 10074, Note_on_c, 12, 50, 95
13, 10183, Note_on_c, 12, 52, 85
13, 10200, Note_off_c, 12, 50, 64
13, 10293, Note_on_c, 12, 54, 68
13, 10304, Note_off_c, 12, 52, 64
13, 10399, Note_on_c, 12, 55, 87
13, 10404, Note_off_c, 12, 54, 64
13, 10522, Note_off_c, 12, 55, 64
13, 10538, Note_on_c, 12, 57, 95
13, 10944, Note_off_c, 12, 57, 64
13, 11015, Note_on_c, 12, 55, 82
13, 11140, Note_on_c, 12, 54, 76
13, 11151, Note_off_c, 12, 55, 64
13, 11260, Note_on_c, 12, 52, 87
13, 11265, Note_off_c, 12, 54, 64
13, 11368, Note_off_c, 12, 52, 64
13, 11371, Note_on_c, 12, 50, 89
13, 11489, Note_off_c, 12, 50, 64
13, 11503, Note_on_c, 12, 57, 100
13, 11890, Note_off_c, 12, 57, 64
13, 11979, Note_on_c, 12, 54, 100
13, 12082, Note_off_c, 12, 54, 64
13, 12093, Note_on_c, 12, 50, 70
13, 12140, Note_on_c, 12, 52, 85
13, 12155, Note_off_c, 12, 50, 64
13, 12199, Note_off_c, 12, 52, 64
13, 12213, Note_on_c, 12, 54, 102
13, 12332, Note_off_c, 12, 54, 64
13, 12336, Note_on_c, 12, 52, 68
13, 12393, Note_on_c, 12, 54, 82
13, 12409, Note_off_c, 12, 52, 64
13, 12442, Note_off_c, 12, 54, 64
13, 12461, Note_on_c, 12, 55, 102
13, 12582, Note_off_c, 12, 55, 64
13, 12586, Note_on_c, 12, 52, 70
13, 12637, Note_on_c, 12, 54, 78
13, 12651, Note_off_c, 12, 52, 64
13, 12700, Note_off_c, 12, 54, 64
13, 12708, Note_on_c, 12, 55, 100
13, 12819, Note_off_c, 12, 55, 64
13, 12830, Note_on_c, 12, 54, 64
13, 12884, Note_on_c, 12, 55, 78
13, 12891, Note_off_c, 12, 54, 64
13, 12938, Note_off_c, 12, 55, 64
13, 12949, Note_on_c, 12, 57, 100
13, 13075, Note_off_c, 12, 57, 64
13, 13186, Note_on_c, 12, 45, 98
13, 13315, Note_off_c, 12, 45, 64
13, 13417, Note_on_c, 12, 50, 95
13, 13539, Note_off_c, 12, 50, 64
13, 13653, Note_on_c, 12, 38, 100
13, 13777, Note_off_c, 12, 38, 64
13, 13899, Note_on_c, 12, 50, 91
13, 14002, Note_on_c, 12, 52, 80
13, 14018, Note_off_c, 12, 50, 64
13, 14124, Note_on_c, 12, 54, 68
13, 14130, Note_off_c, 12, 52, 64
13, 14220, Note_off_c, 12, 54, 64
13, 14230, Note_on_c, 12, 55, 82
13, 14331, Note_off_c, 12, 55, 64
13, 14380, Note_on_c, 12, 57, 105
13, 14794, Note_off_c, 12, 57, 64
13, 14849, Note_on_c, 12, 55, 85
13, 14965, Note_on_c, 12, 54, 80
13, 14989, Note_off_c, 12, 55, 64
13, 15081, Note_off_c, 12, 54, 64
13, 15085, Note_on_c, 12, 52, 85
13, 15183, Note_off_c, 12, 52, 64
13, 15206, Note_on_c, 12, 50, 87
13, 15310, Note_off_c, 12, 50, 64
13, 15341, Note_on_c, 12, 57, 98
13, 15699, Note_off_c, 12, 57, 64
13, 15816, Note_on_c, 12, 52, 100
13, 15918, Note_off_c, 12, 52, 64
13, 16056, Note_on_c, 12, 40, 95
13, 16180, Note_off_c, 12, 40, 64
13, 16798, Note_on_c, 12, 52, 105
13, 16903, Note_off_c, 12, 52, 64
13, 17029, Note_on_c, 12, 40, 102
13, 17146, Note_off_c, 12, 40, 64
13, 17732, Note_on_c, 12, 49, 102
13, 17843, Note_off_c, 12, 49, 64
13, 17852, Note_on_c, 12, 45, 70
13, 17899, Note_on_c, 12, 47, 82
13, 17914, Note_off_c, 12, 45, 64
13, 17957, Note_off_c, 12, 47, 64
13, 17968, Note_on_c, 12, 49, 105
13, 18066, Note_off_c, 12, 49, 64
13, 18091, Note_on_c, 12, 47, 74
13, 18146, Note_on_c, 12, 49, 78
13, 18166, Note_off_c, 12, 47, 64
13, 18195, Note_off_c, 12, 49, 64
13, 18218, Note_on_c, 12, 50, 100
13, 18338, Note_off_c, 12, 50, 64
13, 18351, Note_on_c, 12, 47, 80
13, 18384, Note_on_c, 12, 49, 68
13, 18406, Note_off_c, 12, 47, 64
13, 18438, Note_off_c, 12, 49, 64
13, 18461, Note_on_c, 12, 50, 98
13, 18578, Note_off_c, 12, 50, 64
13, 18590, Note_on_c, 12, 49, 74
13, 18641, Note_on_c, 12, 50, 80
13, 18649, Note_off_c, 12, 49, 64
13, 18699, Note_off_c, 12, 50, 64
13, 18708, Note_on_c, 12, 52, 100
13, 18828, Note_off_c, 12, 52, 64
13, 18947, Note_on_c, 12, 40, 102
13, 19060, Note_off_c, 12, 40, 64
13, 19180, Note_on_c, 12, 45, 105
13, 19510, Note_off_c, 12, 45, 64
13, 19510, End_track
14, 0, Start_track
14, 0, Title_t, "Trumpet"
14, 0, Program_c, 0, 56
14, 0, Control_c, 0, 7, 127
14, 19682, Note_on_c, 0, 69, 61
14, 19889, Note_off_c, 0, 69, 64
14, 19920, Note_on_c, 0, 69, 63
14, 20106, Note_off_c, 0, 69, 64
14, 20147, Note_on_c, 0, 69, 61
14, 20360, Note_off_c, 0, 69, 64
14, 20391, Note_on_c, 0, 69, 64
14, 20574, Note_off_c, 0, 69, 64
14, 20617, Note_on_c, 0, 69, 64
14, 20828, Note_off_c, 0, 69, 64
14, 20856, Note_on_c, 0, 69, 68
14, 21038, Note_off_c, 0, 69, 64
14, 21112, Note_on_c, 0, 69, 64
14, 21598, Note_off_c, 0, 69, 64
14, 27359, Note_on_c, 0, 62, 66
14, 27566, Note_off_c, 0, 62, 64
14, 27604, Note_on_c, 0, 62, 66
14, 27793, Note_off_c, 0, 62, 64
14, 27835, Note_on_c, 0, 62, 64
14, 28040, Note_off_c, 0, 62, 64
14, 28074, Note_on_c, 0, 62, 64
14, 28269, Note_off_c, 0, 62, 64
14, 28308, Note_on_c, 0, 62, 78
14, 28503, Note_off_c, 0, 62, 64
14, 28546, Note_on_c, 0, 62, 72
14, 28720, Note_off_c, 0, 62, 64
14, 28794, Note_on_c, 0, 62, 89
14, 29258, Note_off_c, 0, 62, 64
14, 31196, Note_on_c, 0, 74, 98
14, 32078, Note_off_c, 0, 74, 64
14, 32152, Note_on_c, 0, 76, 102
14, 33041, Note_off_c, 0, 76, 64
14, 33098, Note_on_c, 0, 78, 93
14, 34012, Note_off_c, 0, 78, 64
14, 34067, Note_on_c, 0, 79, 87
14, 34931, Note_off_c, 0, 79, 64
14, 35032, Note_on_c, 0, 78, 95
14, 35145, Note_off_c, 0, 78, 64
14, 35274, Note_on_c, 0, 86, 98
14, 35719, Note_off_c, 0, 86, 64
14, 35751, Note_on_c, 0, 85, 87
14, 35863, Note_off_c, 0, 85, 64
14, 35996, Note_on_c, 0, 74, 85
14, 36095, Note_off_c, 0, 74, 64
14, 36240, Note_on_c, 0, 83, 98
14, 36668, Note_off_c, 0, 83, 64
14, 36720, Note_on_c, 0, 81, 93
14, 36838, Note_off_c, 0, 81, 64
14, 36961, Note_on_c, 0, 81, 98
14, 37978, Note_off_c, 0, 81, 64
14, 38020, Note_on_c, 0, 79, 80
14, 38088, Note_off_c, 0, 79, 64
14, 38133, Note_on_c, 0, 78, 85
14, 38190, Note_off_c, 0, 78, 64
14, 38243, Note_on_c, 0, 76, 102
14, 38296, Note_off_c, 0, 76, 64
14, 38380, Note_on_c, 0, 76, 105
14, 38604, Note_off_c, 0, 76, 64
14, 38615, Note_on_c, 0, 74, 68
14, 38759, Note_off_c, 0, 74, 64
14, 38866, Note_on_c, 0, 69, 66
14, 39104, Note_off_c, 0, 69, 64
14, 39127, Note_on_c, 0, 69, 80
14, 39317, Note_off_c, 0, 69, 64
14, 39357, Note_on_c, 0, 69, 72
14, 39576, Note_off_c, 0, 69, 64
14, 39604, Note_on_c, 0, 69, 80
14, 39795, Note_off_c, 0, 69, 64
14, 39838, Note_on_c, 0, 69, 68
14, 40034, Note_off_c, 0, 69, 64
14, 40072, Note_on_c, 0, 69, 74
14, 40241, Note_off_c, 0, 69, 64
14, 40325, Note_on_c, 0, 69, 87
14, 40795, Note_off_c, 0, 69, 64
14, 46560, Note_on_c, 0, 62, 72
14, 46755, Note_off_c, 0, 62, 64
14, 46793, Note_on_c, 0, 62, 64
14, 46992, Note_off_c, 0, 62, 64
14, 47033, Note_on_c, 0, 62, 68
14, 47230, Note_off_c, 0, 62, 64
14, 47263, Note_on_c, 0, 62, 66
14, 47455, Note_off_c, 0, 62, 64
14, 47498, Note_on_c, 0, 62, 70
14, 47704, Note_off_c, 0, 62, 64
14, 47748, Note_on_c, 0, 62, 72
14, 47931, Note_off_c, 0, 62, 64
14, 48000, Note_on_c, 0, 62, 87
14, 48465, Note_off_c, 0, 62, 64
14, 50391, Note_on_c, 0, 74, 98
14, 51295, Note_off_c, 0, 74, 64
14, 51371, Note_on_c, 0, 76, 102
14, 52229, Note_off_c, 0, 76, 64
14, 52306, Note_on_c, 0, 78, 100
14, 53181, Note_off_c, 0, 78, 64
14, 53271, Note_on_c, 0, 79, 100
14, 54091, Note_off_c, 0, 79, 64
14, 54227, Note_on_c, 0, 78, 93
14, 54331, Note_off_c, 0, 78, 64
14, 54479, Note_on_c, 0, 86, 95
14, 54907, Note_off_c, 0, 86, 64
14, 54963, Note_on_c, 0, 85, 78
14, 55054, Note_off_c, 0, 85, 64
14, 55205, Note_on_c, 0, 74, 78
14, 55298, Note_off_c, 0, 74, 64
14, 55451, Note_on_c, 0, 83, 100
14, 55864, Note_off_c, 0, 83, 64
14, 55921, Note_on_c, 0, 81, 87
14, 56021, Note_off_c, 0, 81, 64
14, 56170, Note_on_c, 0, 81, 100
14, 57197, Note_off_c, 0, 81, 64
14, 57234, Note_on_c, 0, 79, 82
14, 57294, Note_off_c, 0, 79, 64
14, 57349, Note_on_c, 0, 78, 98
14, 57400, Note_off_c, 0, 78, 64
14, 57456, Note_on_c, 0, 76, 102
14, 57502, Note_off_c, 0, 76, 64
14, 57601, Note_on_c, 0, 76, 116
14, 57832, Note_off_c, 0, 76, 64
14, 57838, Note_on_c, 0, 74, 63
14, 58065, Note_off_c, 0, 74, 64
14, 58065, End_track
15, 0, Start_track
15, 0, Title_t, "Trumpet"
15, 0, Program_c, 1, 56
15, 0, Control_c, 1, 7, 127
15, 19676, Note_on_c, 1, 69, 63
15, 19883, Note_off_c, 1, 69, 64
15, 19914, Note_on_c, 1, 69, 66
15, 20100, Note_off_c, 1, 69, 64
15, 20153, Note_on_c, 1, 69, 66
15, 20358, Note_off_c, 1, 69, 64
15, 20397, Note_on_c, 1, 69, 57
15, 20577, Note_off_c, 1, 69, 64
15, 20620, Note_on_c, 1, 69, 68
15, 20827, Note_off_c, 1, 69, 64
15, 20858, Note_on_c, 1, 69, 62
15, 21053, Note_off_c, 1, 69, 64
15, 21108, Note_on_c, 1, 69, 72
15, 21520, Note_off_c, 1, 69, 64
15, 27355, Note_on_c, 1, 62, 64
15, 27567, Note_off_c, 1, 62, 64
15, 27602, Note_on_c, 1, 62, 64
15, 27792, Note_off_c, 1, 62, 64
15, 27832, Note_on_c, 1, 62, 66
15, 28037, Note_off_c, 1, 62, 64
15, 28071, Note_on_c, 1, 62, 66
15, 28265, Note_off_c, 1, 62, 64
15, 28305, Note_on_c, 1, 62, 63
15, 28503, Note_off_c, 1, 62, 64
15, 28543, Note_on_c, 1, 62, 66
15, 28720, Note_off_c, 1, 62, 64
15, 28782, Note_on_c, 1, 62, 80
15, 29259, Note_off_c, 1, 62, 64
15, 35031, Note_on_c, 1, 74, 87
15, 35125, Note_off_c, 1, 74, 64
15, 35278, Note_on_c, 1, 78, 102
15, 35735, Note_off_c, 1, 78, 64
15, 35760, Note_on_c, 1, 76, 102
15, 35915, Note_off_c, 1, 76, 64
15, 36974, Note_on_c, 1, 78, 107
15, 37983, Note_off_c, 1, 78, 64
15, 38020, Note_on_c, 1, 76, 76
15, 38092, Note_off_c, 1, 76, 64
15, 38137, Note_on_c, 1, 74, 80
15, 38184, Note_off_c, 1, 74, 64
15, 38253, Note_on_c, 1, 69, 89
15, 38296, Note_off_c, 1, 69, 64
15, 38381, Note_on_c, 1, 66, 78
15, 38764, Note_off_c, 1, 66, 64
15, 38877, Note_on_c, 1, 69, 76
15, 39072, Note_off_c, 1, 69, 64
15, 39106, Note_on_c, 1, 69, 68
15, 39296, Note_off_c, 1, 69, 64
15, 39346, Note_on_c, 1, 69, 74
15, 39553, Note_off_c, 1, 69, 64
15, 39588, Note_on_c, 1, 69, 68
15, 39772, Note_off_c, 1, 69, 64
15, 39827, Note_on_c, 1, 69, 82
15, 40008, Note_off_c, 1, 69, 64
15, 40072, Note_on_c, 1, 69, 66
15, 40221, Note_off_c, 1, 69, 64
15, 40318, Note_on_c, 1, 69, 98
15, 40790, Note_off_c, 1, 69, 64
15, 46562, Note_on_c, 1, 62, 78
15, 46761, Note_off_c, 1, 62, 64
15, 46798, Note_on_c, 1, 62, 62
15, 46977, Note_off_c, 1, 62, 64
15, 47024, Note_on_c, 1, 62, 80
15, 47242, Note_off_c, 1, 62, 64
15, 47274, Note_on_c, 1, 62, 68
15, 47460, Note_off_c, 1, 62, 64
15, 47503, Note_on_c, 1, 62, 82
15, 47699, Note_off_c, 1, 62, 64
15, 47739, Note_on_c, 1, 62, 66
15, 47914, Note_off_c, 1, 62, 64
15, 47990, Note_on_c, 1, 62, 98
15, 48453, Note_off_c, 1, 62, 64
15, 54224, Note_on_c, 1, 74, 95
15, 54321, Note_off_c, 1, 74, 64
15, 54467, Note_on_c, 1, 78, 102
15, 54905, Note_off_c, 1, 78, 64
15, 54948, Note_on_c, 1, 76, 98
15, 55123, Note_off_c, 1, 76, 64
15, 56174, Note_on_c, 1, 78, 116
15, 57163, Note_off_c, 1, 78, 64
15, 57222, Note_on_c, 1, 76, 78
15, 57280, Note_off_c, 1, 76, 64
15, 57343, Note_on_c, 1, 74, 89
15, 57412, Note_off_c, 1, 74, 64
15, 57462, Note_on_c, 1, 69, 85
15, 57506, Note_off_c, 1, 69, 64
15, 57584, Note_on_c, 1, 66, 98
15, 58076, Note_off_c, 1, 66, 64
15, 58076, End_track
16, 0, Start_track
16, 0, Title_t, "Trumpet"
16, 0, Program_c, 2, 56
16, 0, Control_c, 2, 7, 127
16, 19683, Note_on_c, 2, 69, 72
16, 19890, Note_off_c, 2, 69, 64
16, 19922, Note_on_c, 2, 69, 68
16, 20105, Note_off_c, 2, 69, 64
16, 20155, Note_on_c, 2, 69, 64
16, 20348, Note_off_c, 2, 69, 64
16, 20386, Note_on_c, 2, 69, 59
16, 20570, Note_off_c, 2, 69, 64
16, 20609, Note_on_c, 2, 69, 61
16, 20836, Note_off_c, 2, 69, 64
16, 20866, Note_on_c, 2, 69, 68
16, 21047, Note_off_c, 2, 69, 64
16, 21105, Note_on_c, 2, 69, 63
16, 21609, Note_off_c, 2, 69, 64
16, 27360, Note_on_c, 2, 62, 68
16, 27554, Note_off_c, 2, 62, 64
16, 27594, Note_on_c, 2, 62, 63
16, 27785, Note_off_c, 2, 62, 64
16, 27825, Note_on_c, 2, 62, 64
16, 28040, Note_off_c, 2, 62, 64
16, 28070, Note_on_c, 2, 62, 62
16, 28264, Note_off_c, 2, 62, 64
16, 28301, Note_on_c, 2, 62, 64
16, 28509, Note_off_c, 2, 62, 64
16, 28550, Note_on_c, 2, 62, 64
16, 28747, Note_off_c, 2, 62, 64
16, 28786, Note_on_c, 2, 62, 64
16, 29280, Note_off_c, 2, 62, 64
16, 35036, Note_on_c, 2, 69, 105
16, 35229, Note_off_c, 2, 69, 64
16, 35267, Note_on_c, 2, 69, 85
16, 35412, Note_off_c, 2, 69, 64
16, 35517, Note_on_c, 2, 69, 110
16, 36000, Note_off_c, 2, 69, 64
16, 36965, Note_on_c, 2, 74, 102
16, 38038, Note_off_c, 2, 74, 64
16, 38151, Note_on_c, 2, 69, 100
16, 38253, Note_off_c, 2, 69, 64
16, 38380, Note_on_c, 2, 69, 107
16, 38759, Note_off_c, 2, 69, 64
16, 38878, Note_on_c, 2, 69, 87
16, 39075, Note_off_c, 2, 69, 64
16, 39115, Note_on_c, 2, 69, 68
16, 39300, Note_off_c, 2, 69, 64
16, 39356, Note_on_c, 2, 69, 80
16, 39567, Note_off_c, 2, 69, 64
16, 39603, Note_on_c, 2, 69, 70
16, 39768, Note_off_c, 2, 69, 64
16, 39830, Note_on_c, 2, 69, 85
16, 40030, Note_off_c, 2, 69, 64
16, 40069, Note_on_c, 2, 69, 68
16, 40218, Note_off_c, 2, 69, 64
16, 40317, Note_on_c, 2, 69, 87
16, 40783, Note_off_c, 2, 69, 64
16, 46554, Note_on_c, 2, 62, 80
16, 46766, Note_off_c, 2, 62, 64
16, 46804, Note_on_c, 2, 62, 68
16, 46992, Note_off_c, 2, 62, 64
16, 47033, Note_on_c, 2, 62, 82
16, 47239, Note_off_c, 2, 62, 64
16, 47277, Note_on_c, 2, 62, 66
16, 47468, Note_off_c, 2, 62, 64
16, 47512, Note_on_c, 2, 62, 72
16, 47718, Note_off_c, 2, 62, 64
16, 47751, Note_on_c, 2, 62, 64
16, 47939, Note_off_c, 2, 62, 64
16, 47994, Note_on_c, 2, 62, 85
16, 48453, Note_off_c, 2, 62, 64
16, 54236, Note_on_c, 2, 69, 98
16, 54364, Note_off_c, 2, 69, 64
16, 54472, Note_on_c, 2, 69, 102
16, 54585, Note_off_c, 2, 69, 64
16, 54718, Note_on_c, 2, 69, 110
16, 55173, Note_off_c, 2, 69, 64
16, 56152, Note_on_c, 2, 74, 110
16, 57225, Note_off_c, 2, 74, 64
16, 57337, Note_on_c, 2, 69, 100
16, 57423, Note_off_c, 2, 69, 64
16, 57570, Note_on_c, 2, 69, 110
16, 58108, Note_off_c, 2, 69, 64
16, 58108, End_track
17, 0, Start_track
17, 0, Title_t, "Timpani"
17, 0, Program_c, 3, 47
17, 0, Control_c, 3, 7, 100
17, 19683, Note_on_c, 3, 45, 110
17, 19768, Note_off_c, 3, 45, 64
17, 20176, Note_on_c, 3, 45, 110
17, 20276, Note_off_c, 3, 45, 64
17, 20627, Note_on_c, 3, 45, 98
17, 20710, Note_off_c, 3, 45, 64
17, 21110, Note_on_c, 3, 50, 119
17, 21203, Note_off_c, 3, 50, 64
17, 35041, Note_on_c, 3, 45, 116
17, 35128, Note_off_c, 3, 45, 64
17, 35274, Note_on_c, 3, 45, 116
17, 35363, Note_off_c, 3, 45, 64
17, 35532, Note_on_c, 3, 45, 127
17, 35618, Note_off_c, 3, 45, 64
17, 36969, Note_on_c, 3, 50, 107
17, 37006, Note_off_c, 3, 50, 64
17, 37012, Note_on_c, 3, 50, 102
17, 37039, Note_off_c, 3, 50, 64
17, 37056, Note_on_c, 3, 50, 87
17, 37119, Note_off_c, 3, 50, 64
17, 37138, Note_on_c, 3, 50, 91
17, 37168, Note_off_c, 3, 50, 64
17, 37172, Note_on_c, 3, 50, 85
17, 37198, Note_off_c, 3, 50, 64
17, 37220, Note_on_c, 3, 50, 87
17, 37250, Note_off_c, 3, 50, 64
17, 37256, Note_on_c, 3, 50, 89
17, 37282, Note_off_c, 3, 50, 64
17, 37306, Note_on_c, 3, 50, 87
17, 37362, Note_off_c, 3, 50, 64
17, 37400, Note_on_c, 3, 50, 87
17, 37444, Note_off_c, 3, 50, 64
17, 37489, Note_on_c, 3, 50, 87
17, 37532, Note_off_c, 3, 50, 64
17, 37577, Note_on_c, 3, 50, 85
17, 37618, Note_off_c, 3, 50, 64
17, 37659, Note_on_c, 3, 50, 72
17, 37708, Note_off_c, 3, 50, 64
17, 37736, Note_on_c, 3, 50, 63
17, 37788, Note_off_c, 3, 50, 64
17, 37801, Note_on_c, 3, 50, 80
17, 37831, Note_off_c, 3, 50, 64
17, 37865, Note_on_c, 3, 50, 85
17, 37901, Note_off_c, 3, 50, 64
17, 37927, Note_on_c, 3, 45, 80
17, 37956, Note_off_c, 3, 45, 64
17, 38159, Note_on_c, 3, 45, 95
17, 38205, Note_off_c, 3, 45, 64
17, 38391, Note_on_c, 3, 50, 102
17, 38453, Note_off_c, 3, 50, 64
17, 38884, Note_on_c, 3, 45, 116
17, 38947, Note_off_c, 3, 45, 64
17, 39372, Note_on_c, 3, 45, 122
17, 39454, Note_off_c, 3, 45, 64
17, 39838, Note_on_c, 3, 45, 107
17, 39895, Note_off_c, 3, 45, 64
17, 40322, Note_on_c, 3, 50, 122
17, 40399, Note_off_c, 3, 50, 64
17, 54240, Note_on_c, 3, 45, 113
17, 54333, Note_off_c, 3, 45, 64
17, 54477, Note_on_c, 3, 45, 119
17, 54571, Note_off_c, 3, 45, 64
17, 54726, Note_on_c, 3, 45, 122
17, 54820, Note_off_c, 3, 45, 64
17, 56174, Note_on_c, 3, 50, 119
17, 56197, Note_off_c, 3, 50, 64
17, 56212, Note_on_c, 3, 50, 113
17, 56240, Note_off_c, 3, 50, 64
17, 56260, Note_on_c, 3, 50, 93
17, 56282, Note_off_c, 3, 50, 64
17, 56294, Note_on_c, 3, 50, 105
17, 56318, Note_off_c, 3, 50, 64
17, 56336, Note_on_c, 3, 50, 89
17, 56360, Note_off_c, 3, 50, 64
17, 56371, Note_on_c, 3, 50, 102
17, 56400, Note_off_c, 3, 50, 64
17, 56415, Note_on_c, 3, 50, 87
17, 56441, Note_off_c, 3, 50, 64
17, 56461, Note_on_c, 3, 50, 105
17, 56492, Note_off_c, 3, 50, 64
17, 56504, Note_on_c, 3, 50, 89
17, 56529, Note_off_c, 3, 50, 64
17, 56545, Note_on_c, 3, 50, 105
17, 56576, Note_off_c, 3, 50, 64
17, 56588, Note_on_c, 3, 50, 95
17, 56617, Note_off_c, 3, 50, 64
17, 56632, Note_on_c, 3, 50, 102
17, 56662, Note_off_c, 3, 50, 64
17, 56672, Note_on_c, 3, 50, 93
17, 56700, Note_off_c, 3, 50, 64
17, 56712, Note_on_c, 3, 50, 105
17, 56750, Note_off_c, 3, 50, 64
17, 56756, Note_on_c, 3, 50, 63
17, 56781, Note_off_c, 3, 50, 64
17, 56790, Note_on_c, 3, 50, 105
17, 56822, Note_off_c, 3, 50, 64
17, 56832, Note_on_c, 3, 50, 82
17, 56861, Note_off_c, 3, 50, 64
17, 56883, Note_on_c, 3, 50, 89
17, 56934, Note_off_c, 3, 50, 64
17, 56943, Note_on_c, 3, 50, 91
17, 57005, Note_off_c, 3, 50, 64
17, 57037, Note_on_c, 3, 50, 89
17, 57069, Note_off_c, 3, 50, 64
17, 57117, Note_on_c, 3, 45, 122
17, 57153, Note_off_c, 3, 45, 64
17, 57358, Note_on_c, 3, 45, 119
17, 57412, Note_off_c, 3, 45, 64
17, 57591, Note_on_c, 3, 50, 122
17, 57637, Note_off_c, 3, 50, 64
17, 57637, End_track
18, 0, Start_track
18, 0, Title_t, "Oboe"
18, 0, Program_c, 4, 68
18, 0, Control_c, 4, 7, 100
18, 19691, Note_on_c, 4, 69, 82
18, 19783, Note_off_c, 4, 69, 64
18, 19940, Note_on_c, 4, 76, 91
18, 20369, Note_off_c, 4, 76, 64
18, 20416, Note_on_c, 4, 78, 85
18, 20518, Note_off_c, 4, 78, 64
18, 20531, Note_on_c, 4, 76, 80
18, 20627, Note_off_c, 4, 76, 64
18, 20656, Note_on_c, 4, 74, 72
18, 20764, Note_off_c, 4, 74, 64
18, 20764, Note_on_c, 4, 73, 70
18, 20864, Note_off_c, 4, 73, 64
18, 20887, Note_on_c, 4, 79, 100
18, 21296, Note_off_c, 4, 79, 64
18, 21352, Note_on_c, 4, 78, 78
18, 21473, Note_off_c, 4, 78, 64
18, 21608, Note_on_c, 4, 76, 98
18, 21746, Note_off_c, 4, 76, 64
18, 22088, Note_on_c, 4, 76, 93
18, 22214, Note_off_c, 4, 76, 64
18, 22427, Note_on_c, 4, 73, 80
18, 22534, Note_off_c, 4, 73, 64
18, 22540, Note_on_c, 4, 74, 82
18, 22649, Note_off_c, 4, 74, 64
18, 22660, Note_on_c, 4, 76, 80
18, 22766, Note_on_c, 4, 78, 85
18, 22794, Note_off_c, 4, 76, 64
18, 22878, Note_off_c, 4, 78, 64
18, 22886, Note_on_c, 4, 79, 82
18, 22961, Note_off_c, 4, 79, 64
18, 23018, Note_on_c, 4, 73, 82
18, 23233, Note_off_c, 4, 73, 64
18, 23261, Note_on_c, 4, 66, 68
18, 23392, Note_off_c, 4, 66, 64
18, 23501, Note_on_c, 4, 78, 72
18, 23594, Note_off_c, 4, 78, 64
18, 23746, Note_on_c, 4, 83, 98
18, 24146, Note_off_c, 4, 83, 64
18, 24226, Note_on_c, 4, 75, 70
18, 24317, Note_off_c, 4, 75, 64
18, 24331, Note_on_c, 4, 76, 72
18, 24409, Note_off_c, 4, 76, 64
18, 24451, Note_on_c, 4, 78, 87
18, 24538, Note_off_c, 4, 78, 64
18, 24566, Note_on_c, 4, 71, 89
18, 24638, Note_off_c, 4, 71, 64
18, 24694, Note_on_c, 4, 81, 100
18, 25114, Note_off_c, 4, 81, 64
18, 25187, Note_on_c, 4, 79, 82
18, 25264, Note_off_c, 4, 79, 64
18, 25297, Note_on_c, 4, 78, 59
18, 25366, Note_off_c, 4, 78, 64
18, 25418, Note_on_c, 4, 76, 85
18, 25496, Note_off_c, 4, 76, 64
18, 25537, Note_on_c, 4, 73, 74
18, 25616, Note_off_c, 4, 73, 64
18, 25652, Note_on_c, 4, 82, 93
18, 26101, Note_off_c, 4, 82, 64
18, 26143, Note_on_c, 4, 83, 85
18, 26269, Note_off_c, 4, 83, 64
18, 26386, Note_on_c, 4, 74, 85
18, 26524, Note_off_c, 4, 74, 64
18, 26629, Note_on_c, 4, 73, 72
18, 26720, Note_off_c, 4, 73, 64
18, 26737, Note_on_c, 4, 71, 78
18, 26813, Note_off_c, 4, 71, 64
18, 26882, Note_on_c, 4, 71, 74
18, 27224, Note_off_c, 4, 71, 64
18, 27364, Note_on_c, 4, 78, 85
18, 27472, Note_on_c, 4, 79, 82
18, 27478, Note_off_c, 4, 78, 64
18, 27579, Note_off_c, 4, 79, 64
18, 27595, Note_on_c, 4, 81, 87
18, 27887, Note_off_c, 4, 81, 64
18, 28324, Note_on_c, 4, 78, 74
18, 28433, Note_on_c, 4, 79, 80
18, 28448, Note_off_c, 4, 78, 64
18, 28538, Note_off_c, 4, 79, 64
18, 28558, Note_on_c, 4, 81, 82
18, 28858, Note_off_c, 4, 81, 64
18, 29269, Note_on_c, 4, 67, 85
18, 29377, Note_off_c, 4, 67, 64
18, 29515, Note_on_c, 4, 79, 91
18, 29924, Note_off_c, 4, 79, 64
18, 29999, Note_on_c, 4, 78, 89
18, 30095, Note_off_c, 4, 78, 64
18, 30106, Note_on_c, 4, 76, 64
18, 30203, Note_off_c, 4, 76, 64
18, 30229, Note_on_c, 4, 78, 80
18, 30311, Note_off_c, 4, 78, 64
18, 30337, Note_on_c, 4, 74, 76
18, 30428, Note_off_c, 4, 74, 64
18, 30461, Note_on_c, 4, 76, 85
18, 30566, Note_off_c, 4, 76, 64
18, 30718, Note_on_c, 4, 73, 91
18, 30923, Note_off_c, 4, 73, 64
18, 30958, Note_on_c, 4, 69, 72
18, 31066, Note_off_c, 4, 69, 64
18, 31211, Note_on_c, 4, 74, 93
18, 31340, Note_off_c, 4, 74, 64
18, 31673, Note_on_c, 4, 74, 87
18, 31830, Note_off_c, 4, 74, 64
18, 32387, Note_on_c, 4, 76, 98
18, 32515, Note_off_c, 4, 76, 64
18, 32749, Note_on_c, 4, 73, 85
18, 32842, Note_off_c, 4, 73, 64
18, 32860, Note_on_c, 4, 69, 80
18, 32947, Note_off_c, 4, 69, 64
18, 32975, Note_on_c, 4, 73, 80
18, 33053, Note_off_c, 4, 73, 64
18, 33106, Note_on_c, 4, 78, 105
18, 33256, Note_off_c, 4, 78, 64
18, 33569, Note_on_c, 4, 78, 95
18, 33722, Note_off_c, 4, 78, 64
18, 34310, Note_on_c, 4, 79, 89
18, 34415, Note_off_c, 4, 79, 64
18, 34552, Note_on_c, 4, 69, 100
18, 34928, Note_off_c, 4, 69, 64
18, 35021, Note_on_c, 4, 74, 93
18, 35102, Note_off_c, 4, 74, 64
18, 35141, Note_on_c, 4, 81, 87
18, 35234, Note_off_c, 4, 81, 64
18, 35273, Note_on_c, 4, 86, 102
18, 35710, Note_off_c, 4, 86, 64
18, 35760, Note_on_c, 4, 85, 70
18, 35840, Note_off_c, 4, 85, 64
18, 35998, Note_on_c, 4, 74, 80
18, 36088, Note_off_c, 4, 74, 64
18, 36107, Note_on_c, 4, 80, 78
18, 36197, Note_off_c, 4, 80, 64
18, 36235, Note_on_c, 4, 83, 100
18, 36607, Note_off_c, 4, 83, 64
18, 36731, Note_on_c, 4, 81, 85
18, 36818, Note_off_c, 4, 81, 64
18, 36980, Note_on_c, 4, 74, 87
18, 37989, Note_off_c, 4, 74, 64
18, 38032, Note_on_c, 4, 71, 85
18, 38096, Note_off_c, 4, 71, 64
18, 38152, Note_on_c, 4, 73, 87
18, 38234, Note_off_c, 4, 73, 64
18, 38390, Note_on_c, 4, 73, 98
18, 38639, Note_off_c, 4, 73, 64
18, 38644, Note_on_c, 4, 74, 80
18, 38746, Note_off_c, 4, 74, 64
18, 38897, Note_on_c, 4, 69, 89
18, 38980, Note_off_c, 4, 69, 64
18, 39128, Note_on_c, 4, 76, 95
18, 39537, Note_off_c, 4, 76, 64
18, 39604, Note_on_c, 4, 78, 91
18, 39689, Note_off_c, 4, 78, 64
18, 39715, Note_on_c, 4, 76, 87
18, 39796, Note_off_c, 4, 76, 64
18, 39836, Note_on_c, 4, 74, 78
18, 39929, Note_off_c, 4, 74, 64
18, 39955, Note_on_c, 4, 73, 68
18, 40048, Note_off_c, 4, 73, 64
18, 40078, Note_on_c, 4, 79, 100
18, 40484, Note_off_c, 4, 79, 64
18, 40567, Note_on_c, 4, 78, 89
18, 40679, Note_off_c, 4, 78, 64
18, 40816, Note_on_c, 4, 76, 91
18, 40942, Note_off_c, 4, 76, 64
18, 41291, Note_on_c, 4, 76, 95
18, 41425, Note_off_c, 4, 76, 64
18, 41629, Note_on_c, 4, 73, 82
18, 41731, Note_off_c, 4, 73, 64
18, 41743, Note_on_c, 4, 74, 82
18, 41843, Note_off_c, 4, 74, 64
18, 41858, Note_on_c, 4, 76, 80
18, 41966, Note_on_c, 4, 78, 80
18, 41996, Note_off_c, 4, 76, 64
18, 42073, Note_off_c, 4, 78, 64
18, 42086, Note_on_c, 4, 79, 85
18, 42176, Note_off_c, 4, 79, 64
18, 42229, Note_on_c, 4, 76, 87
18, 42368, Note_off_c, 4, 76, 64
18, 42469, Note_on_c, 4, 69, 74
18, 42553, Note_off_c, 4, 69, 64
18, 42712, Note_on_c, 4, 78, 80
18, 42809, Note_off_c, 4, 78, 64
18, 42953, Note_on_c, 4, 83, 100
18, 43313, Note_off_c, 4, 83, 64
18, 43429, Note_on_c, 4, 75, 80
18, 43508, Note_off_c, 4, 75, 64
18, 43528, Note_on_c, 4, 76, 72
18, 43613, Note_off_c, 4, 76, 64
18, 43648, Note_on_c, 4, 78, 87
18, 43738, Note_off_c, 4, 78, 64
18, 43751, Note_on_c, 4, 71, 87
18, 43847, Note_off_c, 4, 71, 64
18, 43879, Note_on_c, 4, 81, 98
18, 44305, Note_off_c, 4, 81, 64
18, 44398, Note_on_c, 4, 79, 85
18, 44488, Note_off_c, 4, 79, 64
18, 44516, Note_on_c, 4, 78, 66
18, 44602, Note_off_c, 4, 78, 64
18, 44633, Note_on_c, 4, 76, 76
18, 44711, Note_off_c, 4, 76, 64
18, 44749, Note_on_c, 4, 73, 78
18, 44815, Note_off_c, 4, 73, 64
18, 44876, Note_on_c, 4, 82, 105
18, 45281, Note_off_c, 4, 82, 64
18, 45367, Note_on_c, 4, 83, 87
18, 45477, Note_off_c, 4, 83, 64
18, 45599, Note_on_c, 4, 74, 87
18, 45700, Note_off_c, 4, 74, 64
18, 45824, Note_on_c, 4, 74, 91
18, 45857, Note_on_c, 4, 73, 55
18, 45862, Note_off_c, 4, 74, 64
18, 45896, Note_on_c, 4, 74, 80
18, 45902, Note_off_c, 4, 73, 64
18, 45940, Note_on_c, 4, 73, 64
18, 45952, Note_off_c, 4, 74, 64
18, 45961, Note_on_c, 4, 71, 68
18, 45992, Note_off_c, 4, 73, 64
18, 46040, Note_off_c, 4, 71, 64
18, 46099, Note_on_c, 4, 71, 85
18, 46429, Note_off_c, 4, 71, 64
18, 46561, Note_on_c, 4, 78, 70
18, 46678, Note_on_c, 4, 79, 78
18, 46697, Note_off_c, 4, 78, 64
18, 46783, Note_off_c, 4, 79, 64
18, 46789, Note_on_c, 4, 81, 70
18, 47072, Note_off_c, 4, 81, 64
18, 47516, Note_on_c, 4, 78, 76
18, 47620, Note_on_c, 4, 79, 82
18, 47642, Note_off_c, 4, 78, 64
18, 47728, Note_off_c, 4, 79, 64
18, 47752, Note_on_c, 4, 81, 78
18, 48032, Note_off_c, 4, 81, 64
18, 48476, Note_on_c, 4, 67, 87
18, 48581, Note_off_c, 4, 67, 64
18, 48713, Note_on_c, 4, 79, 93
18, 49141, Note_off_c, 4, 79, 64
18, 49205, Note_on_c, 4, 78, 89
18, 49280, Note_off_c, 4, 78, 64
18, 49313, Note_on_c, 4, 76, 82
18, 49396, Note_off_c, 4, 76, 64
18, 49435, Note_on_c, 4, 78, 85
18, 49525, Note_off_c, 4, 78, 64
18, 49543, Note_on_c, 4, 74, 76
18, 49628, Note_off_c, 4, 74, 64
18, 49673, Note_on_c, 4, 76, 82
18, 49769, Note_off_c, 4, 76, 64
18, 49912, Note_on_c, 4, 74, 87
18, 49973, Note_on_c, 4, 73, 93
18, 50005, Note_off_c, 4, 74, 64
18, 50116, Note_off_c, 4, 73, 64
18, 50143, Note_on_c, 4, 71, 91
18, 50253, Note_off_c, 4, 71, 64
18, 50253, Note_on_c, 4, 69, 85
18, 50351, Note_off_c, 4, 69, 64
18, 50386, Note_on_c, 4, 74, 89
18, 50543, Note_off_c, 4, 74, 64
18, 50857, Note_on_c, 4, 74, 93
18, 51014, Note_off_c, 4, 74, 64
18, 51583, Note_on_c, 4, 76, 98
18, 51710, Note_off_c, 4, 76, 64
18, 51940, Note_on_c, 4, 73, 78
18, 52025, Note_off_c, 4, 73, 64
18, 52049, Note_on_c, 4, 69, 87
18, 52145, Note_off_c, 4, 69, 64
18, 52165, Note_on_c, 4, 73, 68
18, 52246, Note_off_c, 4, 73, 64
18, 52301, Note_on_c, 4, 78, 102
18, 52448, Note_off_c, 4, 78, 64
18, 52783, Note_on_c, 4, 78, 98
18, 52915, Note_off_c, 4, 78, 64
18, 53509, Note_on_c, 4, 79, 93
18, 53603, Note_off_c, 4, 79, 64
18, 53758, Note_on_c, 4, 69, 89
18, 54113, Note_off_c, 4, 69, 64
18, 54233, Note_on_c, 4, 74, 89
18, 54322, Note_off_c, 4, 74, 64
18, 54347, Note_on_c, 4, 81, 87
18, 54452, Note_off_c, 4, 81, 64
18, 54476, Note_on_c, 4, 86, 98
18, 54917, Note_off_c, 4, 86, 64
18, 54963, Note_on_c, 4, 85, 64
18, 55049, Note_off_c, 4, 85, 64
18, 55214, Note_on_c, 4, 74, 80
18, 55297, Note_off_c, 4, 74, 64
18, 55321, Note_on_c, 4, 80, 89
18, 55396, Note_off_c, 4, 80, 64
18, 55444, Note_on_c, 4, 83, 100
18, 55844, Note_off_c, 4, 83, 64
18, 55928, Note_on_c, 4, 81, 91
18, 56003, Note_off_c, 4, 81, 64
18, 56168, Note_on_c, 4, 74, 85
18, 57187, Note_off_c, 4, 74, 64
18, 57230, Note_on_c, 4, 71, 87
18, 57298, Note_off_c, 4, 71, 64
18, 57351, Note_on_c, 4, 73, 82
18, 57442, Note_off_c, 4, 73, 64
18, 57586, Note_on_c, 4, 73, 102
18, 57835, Note_on_c, 4, 74, 68
18, 57836, Note_off_c, 4, 73, 64
18, 58027, Note_off_c, 4, 74, 64
18, 58027, End_track
19, 0, Start_track
19, 0, Title_t, "Oboe"
19, 0, Program_c, 5, 68
19, 0, Control_c, 5, 7, 100
19, 19679, Note_on_c, 5, 69, 80
19, 19777, Note_off_c, 5, 69, 64
19, 19916, Note_on_c, 5, 73, 61
19, 20024, Note_off_c, 5, 73, 64
19, 20151, Note_on_c, 5, 73, 62
19, 20527, Note_off_c, 5, 73, 64
19, 20620, Note_on_c, 5, 69, 63
19, 20713, Note_off_c, 5, 69, 64
19, 20866, Note_on_c, 5, 76, 82
19, 21325, Note_off_c, 5, 76, 64
19, 21366, Note_on_c, 5, 74, 82
19, 21500, Note_off_c, 5, 74, 64
19, 21593, Note_on_c, 5, 70, 68
19, 21708, Note_off_c, 5, 70, 64
19, 22081, Note_on_c, 5, 73, 74
19, 22187, Note_off_c, 5, 73, 64
19, 22428, Note_on_c, 5, 73, 66
19, 22503, Note_off_c, 5, 73, 64
19, 22551, Note_on_c, 5, 71, 82
19, 22655, Note_on_c, 5, 70, 80
19, 22671, Note_off_c, 5, 71, 64
19, 22729, Note_off_c, 5, 70, 64
19, 22768, Note_on_c, 5, 71, 72
19, 22863, Note_off_c, 5, 71, 64
19, 23008, Note_on_c, 5, 70, 64
19, 23332, Note_off_c, 5, 70, 64
19, 23512, Note_on_c, 5, 71, 76
19, 23604, Note_off_c, 5, 71, 64
19, 23742, Note_on_c, 5, 78, 66
19, 23835, Note_off_c, 5, 78, 64
19, 23985, Note_on_c, 5, 78, 66
19, 24402, Note_off_c, 5, 78, 64
19, 24465, Note_on_c, 5, 71, 70
19, 24566, Note_off_c, 5, 71, 64
19, 24711, Note_on_c, 5, 75, 70
19, 24813, Note_off_c, 5, 75, 64
19, 24948, Note_on_c, 5, 76, 82
19, 25325, Note_off_c, 5, 76, 64
19, 25419, Note_on_c, 5, 71, 70
19, 25516, Note_off_c, 5, 71, 64
19, 25665, Note_on_c, 5, 73, 66
19, 26087, Note_off_c, 5, 73, 64
19, 26162, Note_on_c, 5, 74, 76
19, 26269, Note_off_c, 5, 74, 64
19, 26391, Note_on_c, 5, 66, 64
19, 26488, Note_off_c, 5, 66, 64
19, 26632, Note_on_c, 5, 70, 70
19, 26724, Note_off_c, 5, 70, 64
19, 26876, Note_on_c, 5, 66, 61
19, 27228, Note_off_c, 5, 66, 64
19, 27355, Note_on_c, 5, 72, 80
19, 27472, Note_on_c, 5, 71, 74
19, 27486, Note_off_c, 5, 72, 64
19, 27584, Note_on_c, 5, 69, 60
19, 27586, Note_off_c, 5, 71, 64
19, 27699, Note_on_c, 5, 71, 70
19, 27720, Note_off_c, 5, 69, 64
19, 27785, Note_off_c, 5, 71, 64
19, 27828, Note_on_c, 5, 72, 72
19, 28423, Note_on_c, 5, 71, 68
19, 28442, Note_off_c, 5, 72, 64
19, 28541, Note_on_c, 5, 69, 66
19, 28544, Note_off_c, 5, 71, 64
19, 28653, Note_on_c, 5, 71, 82
19, 28673, Note_off_c, 5, 69, 64
19, 28738, Note_off_c, 5, 71, 64
19, 28778, Note_on_c, 5, 72, 78
19, 29240, Note_off_c, 5, 72, 64
19, 29271, Note_on_c, 5, 71, 80
19, 29391, Note_off_c, 5, 71, 64
19, 29517, Note_on_c, 5, 76, 82
19, 29951, Note_off_c, 5, 76, 64
19, 30002, Note_on_c, 5, 74, 80
19, 30102, Note_on_c, 5, 73, 63
19, 30108, Note_off_c, 5, 74, 64
19, 30199, Note_off_c, 5, 73, 64
19, 30227, Note_on_c, 5, 74, 66
19, 30321, Note_off_c, 5, 74, 64
19, 30462, Note_on_c, 5, 71, 78
19, 30552, Note_off_c, 5, 71, 64
19, 30707, Note_on_c, 5, 69, 78
19, 31000, Note_off_c, 5, 69, 64
19, 31177, Note_on_c, 5, 69, 74
19, 31306, Note_on_c, 5, 66, 53
19, 31310, Note_off_c, 5, 69, 64
19, 31346, Note_on_c, 5, 67, 68
19, 31365, Note_off_c, 5, 66, 64
19, 31416, Note_on_c, 5, 69, 78
19, 31417, Note_off_c, 5, 67, 64
19, 31537, Note_off_c, 5, 69, 64
19, 31544, Note_on_c, 5, 67, 70
19, 31588, Note_on_c, 5, 69, 72
19, 31599, Note_off_c, 5, 67, 64
19, 31649, Note_off_c, 5, 69, 64
19, 31662, Note_on_c, 5, 71, 78
19, 31920, Note_off_c, 5, 71, 64
19, 32150, Note_on_c, 5, 71, 72
19, 32272, Note_on_c, 5, 68, 60
19, 32280, Note_off_c, 5, 71, 64
19, 32313, Note_on_c, 5, 69, 70
19, 32330, Note_off_c, 5, 68, 64
19, 32380, Note_on_c, 5, 71, 80
19, 32384, Note_off_c, 5, 69, 64
19, 32495, Note_off_c, 5, 71, 64
19, 32502, Note_on_c, 5, 69, 62
19, 32552, Note_on_c, 5, 71, 70
19, 32565, Note_off_c, 5, 69, 64
19, 32615, Note_off_c, 5, 71, 64
19, 32619, Note_on_c, 5, 73, 63
19, 32854, Note_off_c, 5, 73, 64
19, 33104, Note_on_c, 5, 73, 72
19, 33216, Note_on_c, 5, 70, 59
19, 33243, Note_off_c, 5, 73, 64
19, 33260, Note_on_c, 5, 71, 68
19, 33274, Note_off_c, 5, 70, 64
19, 33327, Note_on_c, 5, 73, 76
19, 33330, Note_off_c, 5, 71, 64
19, 33456, Note_off_c, 5, 73, 64
19, 33460, Note_on_c, 5, 71, 61
19, 33511, Note_on_c, 5, 73, 59
19, 33521, Note_off_c, 5, 71, 64
19, 33565, Note_off_c, 5, 73, 64
19, 33576, Note_on_c, 5, 74, 80
19, 33790, Note_off_c, 5, 74, 64
19, 34061, Note_on_c, 5, 74, 82
19, 34183, Note_on_c, 5, 71, 64
19, 34190, Note_off_c, 5, 74, 64
19, 34233, Note_on_c, 5, 73, 53
19, 34252, Note_off_c, 5, 71, 64
19, 34286, Note_off_c, 5, 73, 64
19, 34298, Note_on_c, 5, 74, 85
19, 34420, Note_on_c, 5, 73, 52
19, 34424, Note_off_c, 5, 74, 64
19, 34472, Note_on_c, 5, 74, 63
19, 34491, Note_off_c, 5, 73, 64
19, 34538, Note_off_c, 5, 74, 64
19, 34545, Note_on_c, 5, 76, 82
19, 34948, Note_off_c, 5, 76, 64
19, 35030, Note_on_c, 5, 74, 74
19, 35147, Note_off_c, 5, 74, 64
19, 35269, Note_on_c, 5, 78, 80
19, 35693, Note_off_c, 5, 78, 64
19, 35744, Note_on_c, 5, 76, 52
19, 35884, Note_off_c, 5, 76, 64
19, 35990, Note_on_c, 5, 71, 68
19, 36095, Note_off_c, 5, 71, 64
19, 36228, Note_on_c, 5, 74, 82
19, 36659, Note_off_c, 5, 74, 64
19, 36709, Note_on_c, 5, 73, 56
19, 36854, Note_off_c, 5, 73, 64
19, 36951, Note_on_c, 5, 69, 80
19, 37087, Note_off_c, 5, 69, 64
19, 37429, Note_on_c, 5, 69, 82
19, 37566, Note_off_c, 5, 69, 64
19, 37781, Note_on_c, 5, 71, 85
19, 37893, Note_off_c, 5, 71, 64
19, 37897, Note_on_c, 5, 69, 64
19, 38003, Note_off_c, 5, 69, 64
19, 38015, Note_on_c, 5, 67, 63
19, 38123, Note_off_c, 5, 67, 64
19, 38133, Note_on_c, 5, 66, 59
19, 38241, Note_on_c, 5, 64, 66
19, 38242, Note_off_c, 5, 66, 64
19, 38307, Note_off_c, 5, 64, 64
19, 38386, Note_on_c, 5, 64, 89
19, 38608, Note_off_c, 5, 64, 64
19, 38613, Note_on_c, 5, 66, 44
19, 38726, Note_off_c, 5, 66, 64
19, 38867, Note_on_c, 5, 69, 80
19, 38979, Note_off_c, 5, 69, 64
19, 39107, Note_on_c, 5, 73, 64
19, 39217, Note_off_c, 5, 73, 64
19, 39357, Note_on_c, 5, 73, 76
19, 39740, Note_off_c, 5, 73, 64
19, 39823, Note_on_c, 5, 69, 68
19, 39920, Note_off_c, 5, 69, 64
19, 40063, Note_on_c, 5, 76, 89
19, 40515, Note_off_c, 5, 76, 64
19, 40554, Note_on_c, 5, 74, 80
19, 40675, Note_off_c, 5, 74, 64
19, 40789, Note_on_c, 5, 70, 60
19, 40900, Note_off_c, 5, 70, 64
19, 41270, Note_on_c, 5, 73, 70
19, 41395, Note_off_c, 5, 73, 64
19, 41617, Note_on_c, 5, 73, 68
19, 41686, Note_off_c, 5, 73, 64
19, 41743, Note_on_c, 5, 71, 82
19, 41855, Note_on_c, 5, 70, 58
19, 41872, Note_off_c, 5, 71, 64
19, 41949, Note_off_c, 5, 70, 64
19, 41971, Note_on_c, 5, 71, 70
19, 42082, Note_off_c, 5, 71, 64
19, 42214, Note_on_c, 5, 70, 70
19, 42527, Note_off_c, 5, 70, 64
19, 42692, Note_on_c, 5, 71, 76
19, 42784, Note_off_c, 5, 71, 64
19, 42940, Note_on_c, 5, 78, 64
19, 43048, Note_off_c, 5, 78, 64
19, 43186, Note_on_c, 5, 78, 68
19, 43579, Note_off_c, 5, 78, 64
19, 43664, Note_on_c, 5, 71, 74
19, 43766, Note_off_c, 5, 71, 64
19, 43906, Note_on_c, 5, 75, 70
19, 44013, Note_off_c, 5, 75, 64
19, 44156, Note_on_c, 5, 76, 80
19, 44551, Note_off_c, 5, 76, 64
19, 44628, Note_on_c, 5, 71, 66
19, 44730, Note_off_c, 5, 71, 64
19, 44864, Note_on_c, 5, 73, 66
19, 45288, Note_off_c, 5, 73, 64
19, 45353, Note_on_c, 5, 74, 78
19, 45452, Note_off_c, 5, 74, 64
19, 45599, Note_on_c, 5, 66, 66
19, 45699, Note_off_c, 5, 66, 64
19, 45833, Note_on_c, 5, 70, 72
19, 45935, Note_off_c, 5, 70, 64
19, 46070, Note_on_c, 5, 66, 64
19, 46420, Note_off_c, 5, 66, 64
19, 46547, Note_on_c, 5, 72, 78
19, 46669, Note_on_c, 5, 71, 66
19, 46683, Note_off_c, 5, 72, 64
19, 46780, Note_on_c, 5, 69, 52
19, 46785, Note_off_c, 5, 71, 64
19, 46891, Note_on_c, 5, 71, 64
19, 46914, Note_off_c, 5, 69, 64
19, 46973, Note_off_c, 5, 71, 64
19, 47009, Note_on_c, 5, 72, 68
19, 47623, Note_on_c, 5, 71, 70
19, 47626, Note_off_c, 5, 72, 64
19, 47738, Note_off_c, 5, 71, 64
19, 47738, Note_on_c, 5, 69, 68
19, 47848, Note_on_c, 5, 71, 68
19, 47869, Note_off_c, 5, 69, 64
19, 47946, Note_off_c, 5, 71, 64
19, 47970, Note_on_c, 5, 72, 82
19, 48427, Note_off_c, 5, 72, 64
19, 48477, Note_on_c, 5, 71, 70
19, 48586, Note_off_c, 5, 71, 64
19, 48719, Note_on_c, 5, 76, 87
19, 49127, Note_off_c, 5, 76, 64
19, 49201, Note_on_c, 5, 74, 80
19, 49303, Note_off_c, 5, 74, 64
19, 49306, Note_on_c, 5, 73, 66
19, 49402, Note_off_c, 5, 73, 64
19, 49426, Note_on_c, 5, 74, 76
19, 49531, Note_off_c, 5, 74, 64
19, 49661, Note_on_c, 5, 71, 78
19, 49751, Note_off_c, 5, 71, 64
19, 49902, Note_on_c, 5, 69, 76
19, 50251, Note_off_c, 5, 69, 64
19, 50384, Note_on_c, 5, 69, 85
19, 50498, Note_on_c, 5, 66, 64
19, 50501, Note_off_c, 5, 69, 64
19, 50552, Note_on_c, 5, 67, 80
19, 50560, Note_off_c, 5, 66, 64
19, 50620, Note_on_c, 5, 69, 78
19, 50627, Note_off_c, 5, 67, 64
19, 50732, Note_on_c, 5, 67, 61
19, 50747, Note_off_c, 5, 69, 64
19, 50790, Note_on_c, 5, 69, 68
19, 50801, Note_off_c, 5, 67, 64
19, 50853, Note_off_c, 5, 69, 64
19, 50857, Note_on_c, 5, 71, 82
19, 51121, Note_off_c, 5, 71, 64
19, 51346, Note_on_c, 5, 71, 66
19, 51461, Note_off_c, 5, 71, 64
19, 51463, Note_on_c, 5, 68, 56
19, 51512, Note_on_c, 5, 69, 63
19, 51522, Note_off_c, 5, 68, 64
19, 51569, Note_on_c, 5, 71, 78
19, 51573, Note_off_c, 5, 69, 64
19, 51700, Note_off_c, 5, 71, 64
19, 51700, Note_on_c, 5, 69, 62
19, 51748, Note_on_c, 5, 71, 80
19, 51763, Note_off_c, 5, 69, 64
19, 51811, Note_off_c, 5, 71, 64
19, 51817, Note_on_c, 5, 73, 78
19, 52069, Note_off_c, 5, 73, 64
19, 52302, Note_on_c, 5, 73, 60
19, 52416, Note_on_c, 5, 70, 59
19, 52427, Note_off_c, 5, 73, 64
19, 52469, Note_on_c, 5, 71, 60
19, 52479, Note_off_c, 5, 70, 64
19, 52521, Note_on_c, 5, 73, 62
19, 52539, Note_off_c, 5, 71, 64
19, 52655, Note_on_c, 5, 71, 57
19, 52668, Note_off_c, 5, 73, 64
19, 52720, Note_on_c, 5, 73, 57
19, 52727, Note_off_c, 5, 71, 64
19, 52783, Note_off_c, 5, 73, 64
19, 52787, Note_on_c, 5, 74, 80
19, 53024, Note_off_c, 5, 74, 64
19, 53264, Note_on_c, 5, 74, 74
19, 53387, Note_on_c, 5, 71, 60
19, 53393, Note_off_c, 5, 74, 64
19, 53431, Note_on_c, 5, 73, 56
19, 53450, Note_off_c, 5, 71, 64
19, 53489, Note_on_c, 5, 74, 82
19, 53503, Note_off_c, 5, 73, 64
19, 53610, Note_on_c, 5, 73, 55
19, 53618, Note_off_c, 5, 74, 64
19, 53658, Note_on_c, 5, 74, 68
19, 53682, Note_off_c, 5, 73, 64
19, 53723, Note_off_c, 5, 74, 64
19, 53732, Note_on_c, 5, 76, 72
19, 54024, Note_off_c, 5, 76, 64
19, 54225, Note_on_c, 5, 74, 78
19, 54329, Note_off_c, 5, 74, 64
19, 54463, Note_on_c, 5, 78, 82
19, 54870, Note_off_c, 5, 78, 64
19, 54940, Note_on_c, 5, 76, 56
19, 55036, Note_off_c, 5, 76, 64
19, 55200, Note_on_c, 5, 71, 62
19, 55299, Note_off_c, 5, 71, 64
19, 55425, Note_on_c, 5, 74, 85
19, 55853, Note_off_c, 5, 74, 64
19, 55911, Note_on_c, 5, 73, 57
19, 56019, Note_off_c, 5, 73, 64
19, 56162, Note_on_c, 5, 69, 82
19, 56303, Note_off_c, 5, 69, 64
19, 56626, Note_on_c, 5, 69, 63
19, 56769, Note_off_c, 5, 69, 64
19, 56979, Note_on_c, 5, 71, 85
19, 57095, Note_off_c, 5, 71, 64
19, 57096, Note_on_c, 5, 69, 64
19, 57204, Note_off_c, 5, 69, 64
19, 57208, Note_on_c, 5, 67, 63
19, 57334, Note_off_c, 5, 67, 64
19, 57334, Note_on_c, 5, 66, 59
19, 57444, Note_off_c, 5, 66, 64
19, 57449, Note_on_c, 5, 64, 66
19, 57517, Note_off_c, 5, 64, 64
19, 57599, Note_on_c, 5, 64, 93
19, 57815, Note_on_c, 5, 66, 53
19, 57822, Note_off_c, 5, 64, 64
19, 57995, Note_off_c, 5, 66, 64
19, 57995, End_track
20, 0, Start_track
20, 0, Title_t, "Oboe"
20, 0, Program_c, 6, 68
20, 0, Control_c, 6, 7, 100
20, 19680, Note_on_c, 6, 64, 66
20, 19791, Note_off_c, 6, 64, 64
20, 19921, Note_on_c, 6, 69, 72
20, 20008, Note_off_c, 6, 69, 64
20, 20159, Note_on_c, 6, 69, 78
20, 20538, Note_off_c, 6, 69, 64
20, 20617, Note_on_c, 6, 66, 64
20, 20754, Note_off_c, 6, 66, 64
20, 20860, Note_on_c, 6, 69, 72
20, 20933, Note_off_c, 6, 69, 64
20, 21117, Note_on_c, 6, 69, 82
20, 21528, Note_off_c, 6, 69, 64
20, 21608, Note_on_c, 6, 73, 80
20, 21734, Note_off_c, 6, 73, 64
20, 22073, Note_on_c, 6, 70, 68
20, 22202, Note_off_c, 6, 70, 64
20, 22417, Note_on_c, 6, 66, 61
20, 22491, Note_off_c, 6, 66, 64
20, 22535, Note_on_c, 6, 66, 58
20, 22671, Note_off_c, 6, 66, 64
20, 22774, Note_on_c, 6, 66, 61
20, 22886, Note_off_c, 6, 66, 64
20, 23001, Note_on_c, 6, 66, 66
20, 23359, Note_off_c, 6, 66, 64
20, 23489, Note_on_c, 6, 66, 62
20, 23614, Note_off_c, 6, 66, 64
20, 23734, Note_on_c, 6, 74, 85
20, 23845, Note_off_c, 6, 74, 64
20, 23972, Note_on_c, 6, 75, 72
20, 24331, Note_off_c, 6, 75, 64
20, 24460, Note_on_c, 6, 66, 63
20, 24555, Note_off_c, 6, 66, 64
20, 24696, Note_on_c, 6, 71, 74
20, 24798, Note_off_c, 6, 71, 64
20, 24952, Note_on_c, 6, 71, 93
20, 25466, Note_off_c, 6, 71, 64
20, 25539, Note_on_c, 6, 69, 78
20, 25649, Note_off_c, 6, 69, 64
20, 25649, Note_on_c, 6, 67, 66
20, 25758, Note_on_c, 6, 66, 61
20, 25762, Note_off_c, 6, 67, 64
20, 25840, Note_off_c, 6, 66, 64
20, 25898, Note_on_c, 6, 64, 70
20, 26040, Note_off_c, 6, 64, 64
20, 26144, Note_on_c, 6, 66, 60
20, 26282, Note_off_c, 6, 66, 64
20, 26388, Note_on_c, 6, 66, 68
20, 26516, Note_off_c, 6, 66, 64
20, 26625, Note_on_c, 6, 64, 66
20, 26734, Note_off_c, 6, 64, 64
20, 26869, Note_on_c, 6, 62, 66
20, 27246, Note_off_c, 6, 62, 64
20, 27351, Note_on_c, 6, 69, 80
20, 27466, Note_on_c, 6, 67, 68
20, 27493, Note_off_c, 6, 69, 64
20, 27580, Note_on_c, 6, 66, 53
20, 27601, Note_off_c, 6, 67, 64
20, 27691, Note_on_c, 6, 67, 70
20, 27712, Note_off_c, 6, 66, 64
20, 27799, Note_off_c, 6, 67, 64
20, 27828, Note_on_c, 6, 69, 70
20, 28422, Note_on_c, 6, 67, 70
20, 28445, Note_off_c, 6, 69, 64
20, 28529, Note_on_c, 6, 66, 51
20, 28541, Note_off_c, 6, 67, 64
20, 28641, Note_on_c, 6, 67, 68
20, 28665, Note_off_c, 6, 66, 64
20, 28728, Note_off_c, 6, 67, 64
20, 28767, Note_on_c, 6, 69, 68
20, 29201, Note_off_c, 6, 69, 64
20, 29272, Note_on_c, 6, 62, 68
20, 29397, Note_off_c, 6, 62, 64
20, 29505, Note_on_c, 6, 71, 76
20, 29633, Note_off_c, 6, 71, 64
20, 29751, Note_on_c, 6, 69, 64
20, 29892, Note_off_c, 6, 69, 64
20, 29992, Note_on_c, 6, 69, 74
20, 30110, Note_off_c, 6, 69, 64
20, 30228, Note_on_c, 6, 69, 80
20, 30337, Note_off_c, 6, 69, 64
20, 30461, Note_on_c, 6, 67, 76
20, 30555, Note_off_c, 6, 67, 64
20, 30708, Note_on_c, 6, 64, 63
20, 31060, Note_off_c, 6, 64, 64
20, 31184, Note_on_c, 6, 66, 80
20, 31298, Note_on_c, 6, 62, 60
20, 31306, Note_off_c, 6, 66, 64
20, 31350, Note_on_c, 6, 64, 64
20, 31362, Note_off_c, 6, 62, 64
20, 31416, Note_off_c, 6, 64, 64
20, 31416, Note_on_c, 6, 66, 70
20, 31548, Note_on_c, 6, 64, 57
20, 31551, Note_off_c, 6, 66, 64
20, 31600, Note_on_c, 6, 66, 57
20, 31614, Note_off_c, 6, 64, 64
20, 31662, Note_off_c, 6, 66, 64
20, 31665, Note_on_c, 6, 67, 72
20, 31924, Note_off_c, 6, 67, 64
20, 32140, Note_on_c, 6, 68, 74
20, 32275, Note_on_c, 6, 64, 62
20, 32288, Note_off_c, 6, 68, 64
20, 32318, Note_on_c, 6, 66, 62
20, 32340, Note_off_c, 6, 64, 64
20, 32377, Note_on_c, 6, 68, 70
20, 32392, Note_off_c, 6, 66, 64
20, 32495, Note_on_c, 6, 66, 53
20, 32510, Note_off_c, 6, 68, 64
20, 32559, Note_on_c, 6, 68, 61
20, 32571, Note_off_c, 6, 66, 64
20, 32620, Note_off_c, 6, 68, 64
20, 32623, Note_on_c, 6, 69, 68
20, 32870, Note_off_c, 6, 69, 64
20, 33098, Note_on_c, 6, 70, 68
20, 33236, Note_off_c, 6, 70, 64
20, 33236, Note_on_c, 6, 66, 66
20, 33276, Note_on_c, 6, 68, 64
20, 33286, Note_off_c, 6, 66, 64
20, 33334, Note_on_c, 6, 70, 64
20, 33352, Note_off_c, 6, 68, 64
20, 33467, Note_on_c, 6, 68, 58
20, 33482, Note_off_c, 6, 70, 64
20, 33522, Note_on_c, 6, 70, 59
20, 33538, Note_off_c, 6, 68, 64
20, 33576, Note_off_c, 6, 70, 64
20, 33579, Note_on_c, 6, 71, 66
20, 33831, Note_off_c, 6, 71, 64
20, 34054, Note_on_c, 6, 71, 78
20, 34181, Note_on_c, 6, 67, 63
20, 34188, Note_off_c, 6, 71, 64
20, 34230, Note_on_c, 6, 69, 64
20, 34248, Note_off_c, 6, 67, 64
20, 34284, Note_on_c, 6, 71, 78
20, 34300, Note_off_c, 6, 69, 64
20, 34407, Note_on_c, 6, 69, 50
20, 34412, Note_off_c, 6, 71, 64
20, 34463, Note_on_c, 6, 71, 64
20, 34476, Note_off_c, 6, 69, 64
20, 34532, Note_off_c, 6, 71, 64
20, 34537, Note_on_c, 6, 73, 64
20, 34897, Note_off_c, 6, 73, 64
20, 35036, Note_on_c, 6, 69, 60
20, 35132, Note_off_c, 6, 69, 64
20, 35261, Note_on_c, 6, 69, 64
20, 35359, Note_off_c, 6, 69, 64
20, 35510, Note_on_c, 6, 69, 72
20, 35861, Note_off_c, 6, 69, 64
20, 35991, Note_on_c, 6, 71, 70
20, 36095, Note_off_c, 6, 71, 64
20, 36221, Note_on_c, 6, 68, 70
20, 36302, Note_off_c, 6, 68, 64
20, 36475, Note_on_c, 6, 64, 74
20, 36870, Note_off_c, 6, 64, 64
20, 36956, Note_on_c, 6, 66, 60
20, 37099, Note_off_c, 6, 66, 64
20, 37437, Note_on_c, 6, 66, 64
20, 37576, Note_off_c, 6, 66, 64
20, 37783, Note_on_c, 6, 67, 74
20, 37875, Note_off_c, 6, 67, 64
20, 37901, Note_on_c, 6, 66, 70
20, 37999, Note_off_c, 6, 66, 64
20, 38014, Note_on_c, 6, 64, 64
20, 38088, Note_off_c, 6, 64, 64
20, 38140, Note_on_c, 6, 69, 82
20, 38233, Note_off_c, 6, 69, 64
20, 38381, Note_on_c, 6, 69, 80
20, 38706, Note_off_c, 6, 69, 64
20, 38882, Note_on_c, 6, 64, 76
20, 38990, Note_off_c, 6, 64, 64
20, 39111, Note_on_c, 6, 69, 80
20, 39199, Note_off_c, 6, 69, 64
20, 39355, Note_on_c, 6, 69, 80
20, 39757, Note_off_c, 6, 69, 64
20, 39822, Note_on_c, 6, 66, 72
20, 39920, Note_off_c, 6, 66, 64
20, 40063, Note_on_c, 6, 69, 70
20, 40136, Note_off_c, 6, 69, 64
20, 40311, Note_on_c, 6, 69, 82
20, 40758, Note_off_c, 6, 69, 64
20, 40792, Note_on_c, 6, 73, 72
20, 40946, Note_off_c, 6, 73, 64
20, 41269, Note_on_c, 6, 70, 72
20, 41401, Note_off_c, 6, 70, 64
20, 41621, Note_on_c, 6, 66, 64
20, 41710, Note_off_c, 6, 66, 64
20, 41734, Note_on_c, 6, 66, 66
20, 41885, Note_off_c, 6, 66, 64
20, 41982, Note_on_c, 6, 66, 66
20, 42082, Note_off_c, 6, 66, 64
20, 42218, Note_on_c, 6, 66, 66
20, 42550, Note_off_c, 6, 66, 64
20, 42702, Note_on_c, 6, 66, 70
20, 42824, Note_off_c, 6, 66, 64
20, 42936, Note_on_c, 6, 74, 85
20, 43044, Note_off_c, 6, 74, 64
20, 43183, Note_on_c, 6, 75, 80
20, 43542, Note_off_c, 6, 75, 64
20, 43652, Note_on_c, 6, 66, 64
20, 43746, Note_off_c, 6, 66, 64
20, 43901, Note_on_c, 6, 71, 76
20, 43988, Note_off_c, 6, 71, 64
20, 44156, Note_on_c, 6, 71, 85
20, 44716, Note_off_c, 6, 71, 64
20, 44739, Note_on_c, 6, 69, 72
20, 44864, Note_on_c, 6, 67, 72
20, 44876, Note_off_c, 6, 69, 64
20, 44974, Note_on_c, 6, 66, 61
20, 44987, Note_off_c, 6, 67, 64
20, 45056, Note_off_c, 6, 66, 64
20, 45101, Note_on_c, 6, 64, 64
20, 45243, Note_off_c, 6, 64, 64
20, 45343, Note_on_c, 6, 66, 61
20, 45476, Note_off_c, 6, 66, 64
20, 45586, Note_on_c, 6, 66, 64
20, 45716, Note_off_c, 6, 66, 64
20, 45828, Note_on_c, 6, 64, 70
20, 45930, Note_off_c, 6, 64, 64
20, 46072, Note_on_c, 6, 62, 68
20, 46429, Note_off_c, 6, 62, 64
20, 46540, Note_on_c, 6, 69, 76
20, 46657, Note_on_c, 6, 67, 70
20, 46680, Note_off_c, 6, 69, 64
20, 46785, Note_on_c, 6, 66, 55
20, 46798, Note_off_c, 6, 67, 64
20, 46892, Note_on_c, 6, 67, 72
20, 46917, Note_off_c, 6, 66, 64
20, 46988, Note_off_c, 6, 67, 64
20, 47020, Note_on_c, 6, 69, 72
20, 47607, Note_on_c, 6, 67, 62
20, 47615, Note_off_c, 6, 69, 64
20, 47734, Note_on_c, 6, 66, 57
20, 47750, Note_off_c, 6, 67, 64
20, 47840, Note_on_c, 6, 67, 72
20, 47861, Note_off_c, 6, 66, 64
20, 47951, Note_off_c, 6, 67, 64
20, 47970, Note_on_c, 6, 69, 74
20, 48384, Note_off_c, 6, 69, 64
20, 48463, Note_on_c, 6, 62, 70
20, 48584, Note_off_c, 6, 62, 64
20, 48708, Note_on_c, 6, 71, 82
20, 48851, Note_off_c, 6, 71, 64
20, 48945, Note_on_c, 6, 69, 68
20, 49079, Note_off_c, 6, 69, 64
20, 49184, Note_on_c, 6, 69, 72
20, 49310, Note_off_c, 6, 69, 64
20, 49422, Note_on_c, 6, 69, 72
20, 49537, Note_off_c, 6, 69, 64
20, 49656, Note_on_c, 6, 67, 76
20, 49755, Note_off_c, 6, 67, 64
20, 49893, Note_on_c, 6, 64, 70
20, 50258, Note_off_c, 6, 64, 64
20, 50375, Note_on_c, 6, 66, 82
20, 50500, Note_on_c, 6, 62, 66
20, 50504, Note_off_c, 6, 66, 64
20, 50552, Note_on_c, 6, 64, 60
20, 50560, Note_off_c, 6, 62, 64
20, 50613, Note_on_c, 6, 66, 85
20, 50617, Note_off_c, 6, 64, 64
20, 50738, Note_on_c, 6, 64, 59
20, 50742, Note_off_c, 6, 66, 64
20, 50797, Note_on_c, 6, 66, 57
20, 50809, Note_off_c, 6, 64, 64
20, 50852, Note_off_c, 6, 66, 64
20, 50852, Note_on_c, 6, 67, 70
20, 51067, Note_off_c, 6, 67, 64
20, 51339, Note_on_c, 6, 68, 80
20, 51473, Note_on_c, 6, 64, 66
20, 51479, Note_off_c, 6, 68, 64
20, 51514, Note_on_c, 6, 66, 68
20, 51535, Note_off_c, 6, 64, 64
20, 51565, Note_on_c, 6, 68, 64
20, 51590, Note_off_c, 6, 66, 64
20, 51686, Note_on_c, 6, 66, 52
20, 51690, Note_off_c, 6, 68, 64
20, 51747, Note_on_c, 6, 68, 60
20, 51763, Note_off_c, 6, 66, 64
20, 51806, Note_off_c, 6, 68, 64
20, 51818, Note_on_c, 6, 69, 68
20, 52068, Note_off_c, 6, 69, 64
20, 52294, Note_on_c, 6, 70, 68
20, 52432, Note_on_c, 6, 66, 60
20, 52444, Note_off_c, 6, 70, 64
20, 52474, Note_on_c, 6, 68, 66
20, 52489, Note_off_c, 6, 66, 64
20, 52529, Note_on_c, 6, 70, 63
20, 52549, Note_off_c, 6, 68, 64
20, 52650, Note_on_c, 6, 68, 58
20, 52663, Note_off_c, 6, 70, 64
20, 52705, Note_on_c, 6, 70, 57
20, 52723, Note_off_c, 6, 68, 64
20, 52759, Note_off_c, 6, 70, 64
20, 52764, Note_on_c, 6, 71, 72
20, 53030, Note_off_c, 6, 71, 64
20, 53256, Note_on_c, 6, 71, 80
20, 53385, Note_on_c, 6, 67, 66
20, 53397, Note_off_c, 6, 71, 64
20, 53430, Note_on_c, 6, 69, 70
20, 53446, Note_off_c, 6, 67, 64
20, 53478, Note_on_c, 6, 71, 78
20, 53499, Note_off_c, 6, 69, 64
20, 53608, Note_on_c, 6, 69, 55
20, 53614, Note_off_c, 6, 71, 64
20, 53665, Note_on_c, 6, 71, 70
20, 53682, Note_off_c, 6, 69, 64
20, 53727, Note_off_c, 6, 71, 64
20, 53736, Note_on_c, 6, 73, 66
20, 54143, Note_off_c, 6, 73, 64
20, 54243, Note_on_c, 6, 69, 66
20, 54357, Note_off_c, 6, 69, 64
20, 54472, Note_on_c, 6, 69, 66
20, 54583, Note_off_c, 6, 69, 64
20, 54716, Note_on_c, 6, 69, 74
20, 55079, Note_off_c, 6, 69, 64
20, 55185, Note_on_c, 6, 71, 68
20, 55303, Note_off_c, 6, 71, 64
20, 55417, Note_on_c, 6, 68, 64
20, 55513, Note_off_c, 6, 68, 64
20, 55673, Note_on_c, 6, 64, 66
20, 56054, Note_off_c, 6, 64, 64
20, 56157, Note_on_c, 6, 66, 66
20, 56329, Note_off_c, 6, 66, 64
20, 56627, Note_on_c, 6, 66, 62
20, 56781, Note_off_c, 6, 66, 64
20, 56984, Note_on_c, 6, 67, 82
20, 57093, Note_on_c, 6, 66, 63
20, 57101, Note_off_c, 6, 67, 64
20, 57194, Note_off_c, 6, 66, 64
20, 57208, Note_on_c, 6, 64, 66
20, 57284, Note_off_c, 6, 64, 64
20, 57329, Note_on_c, 6, 69, 72
20, 57425, Note_off_c, 6, 69, 64
20, 57578, Note_on_c, 6, 69, 80
20, 57944, Note_off_c, 6, 69, 64
20, 57944, End_track
21, 0, Start_track
21, 0, Title_t, "Bassoon"
21, 0, Program_c, 7, 70
21, 0, Control_c, 7, 7, 100
21, 19683, Note_on_c, 7, 57, 82
21, 19803, Note_on_c, 7, 55, 78
21, 19827, Note_off_c, 7, 57, 64
21, 19920, Note_on_c, 7, 54, 59
21, 19936, Note_off_c, 7, 55, 64
21, 20035, Note_on_c, 7, 52, 64
21, 20047, Note_off_c, 7, 54, 64
21, 20123, Note_off_c, 7, 52, 64
21, 20180, Note_on_c, 7, 54, 82
21, 20558, Note_off_c, 7, 54, 64
21, 20625, Note_on_c, 7, 54, 89
21, 20733, Note_on_c, 7, 52, 68
21, 20764, Note_off_c, 7, 54, 64
21, 20844, Note_off_c, 7, 52, 64
21, 20851, Note_on_c, 7, 50, 57
21, 20956, Note_on_c, 7, 49, 63
21, 20976, Note_off_c, 7, 50, 64
21, 21030, Note_off_c, 7, 49, 64
21, 21096, Note_on_c, 7, 50, 80
21, 21476, Note_off_c, 7, 50, 64
21, 21589, Note_on_c, 7, 49, 82
21, 21696, Note_on_c, 7, 46, 54
21, 21706, Note_off_c, 7, 49, 64
21, 21745, Note_on_c, 7, 47, 74
21, 21757, Note_off_c, 7, 46, 64
21, 21794, Note_on_c, 7, 49, 80
21, 21812, Note_off_c, 7, 47, 64
21, 21929, Note_off_c, 7, 49, 64
21, 21934, Note_on_c, 7, 50, 78
21, 21988, Note_off_c, 7, 50, 64
21, 21997, Note_on_c, 7, 52, 66
21, 22040, Note_off_c, 7, 52, 64
21, 22058, Note_on_c, 7, 54, 89
21, 22180, Note_off_c, 7, 54, 64
21, 22180, Note_on_c, 7, 50, 68
21, 22223, Note_on_c, 7, 52, 66
21, 22242, Note_off_c, 7, 50, 64
21, 22270, Note_off_c, 7, 52, 64
21, 22290, Note_on_c, 7, 54, 93
21, 22395, Note_on_c, 7, 56, 58
21, 22411, Note_off_c, 7, 54, 64
21, 22450, Note_on_c, 7, 58, 66
21, 22468, Note_off_c, 7, 56, 64
21, 22501, Note_off_c, 7, 58, 64
21, 22530, Note_on_c, 7, 59, 82
21, 22734, Note_off_c, 7, 59, 64
21, 22781, Note_on_c, 7, 50, 80
21, 22872, Note_off_c, 7, 50, 64
21, 22887, Note_on_c, 7, 52, 62
21, 22960, Note_off_c, 7, 52, 64
21, 23009, Note_on_c, 7, 54, 82
21, 23387, Note_off_c, 7, 54, 64
21, 23495, Note_on_c, 7, 52, 78
21, 23602, Note_off_c, 7, 52, 64
21, 23605, Note_on_c, 7, 50, 66
21, 23675, Note_off_c, 7, 50, 64
21, 23727, Note_on_c, 7, 49, 63
21, 23837, Note_on_c, 7, 47, 63
21, 23845, Note_off_c, 7, 49, 64
21, 23925, Note_off_c, 7, 47, 64
21, 23974, Note_on_c, 7, 57, 66
21, 24284, Note_off_c, 7, 57, 64
21, 24461, Note_on_c, 7, 52, 80
21, 24573, Note_on_c, 7, 51, 68
21, 24593, Note_off_c, 7, 52, 64
21, 24641, Note_off_c, 7, 51, 64
21, 24695, Note_on_c, 7, 49, 80
21, 24802, Note_off_c, 7, 49, 64
21, 24805, Note_on_c, 7, 47, 66
21, 24875, Note_off_c, 7, 47, 64
21, 24939, Note_on_c, 7, 52, 78
21, 25308, Note_off_c, 7, 52, 64
21, 25418, Note_on_c, 7, 55, 82
21, 25528, Note_on_c, 7, 54, 66
21, 25535, Note_off_c, 7, 55, 64
21, 25595, Note_off_c, 7, 54, 64
21, 25656, Note_on_c, 7, 52, 89
21, 25747, Note_off_c, 7, 52, 64
21, 25753, Note_on_c, 7, 50, 68
21, 25839, Note_off_c, 7, 50, 64
21, 25886, Note_on_c, 7, 49, 82
21, 25981, Note_off_c, 7, 49, 64
21, 26132, Note_on_c, 7, 47, 80
21, 26234, Note_off_c, 7, 47, 64
21, 26379, Note_on_c, 7, 54, 82
21, 26478, Note_off_c, 7, 54, 64
21, 26632, Note_on_c, 7, 42, 82
21, 26730, Note_off_c, 7, 42, 64
21, 26873, Note_on_c, 7, 47, 85
21, 26981, Note_off_c, 7, 47, 64
21, 27115, Note_on_c, 7, 59, 82
21, 27196, Note_off_c, 7, 59, 64
21, 27356, Note_on_c, 7, 57, 85
21, 27590, Note_off_c, 7, 57, 64
21, 27590, Note_on_c, 7, 55, 68
21, 27746, Note_off_c, 7, 55, 64
21, 27825, Note_on_c, 7, 54, 80
21, 28051, Note_off_c, 7, 54, 64
21, 28060, Note_on_c, 7, 52, 66
21, 28228, Note_off_c, 7, 52, 64
21, 28306, Note_on_c, 7, 50, 80
21, 28519, Note_off_c, 7, 50, 64
21, 28535, Note_on_c, 7, 48, 33
21, 28669, Note_off_c, 7, 48, 64
21, 28781, Note_on_c, 7, 47, 82
21, 29005, Note_off_c, 7, 47, 64
21, 29013, Note_on_c, 7, 45, 54
21, 29169, Note_off_c, 7, 45, 64
21, 29263, Note_on_c, 7, 43, 89
21, 29367, Note_on_c, 7, 42, 68
21, 29402, Note_off_c, 7, 43, 64
21, 29460, Note_off_c, 7, 42, 64
21, 29498, Note_on_c, 7, 40, 66
21, 29614, Note_off_c, 7, 40, 64
21, 29614, Note_on_c, 7, 38, 80
21, 29708, Note_off_c, 7, 38, 64
21, 29736, Note_on_c, 7, 49, 87
21, 29844, Note_off_c, 7, 49, 64
21, 29985, Note_on_c, 7, 45, 70
21, 30087, Note_off_c, 7, 45, 64
21, 30224, Note_on_c, 7, 50, 87
21, 30321, Note_off_c, 7, 50, 64
21, 30465, Note_on_c, 7, 43, 80
21, 30559, Note_off_c, 7, 43, 64
21, 30716, Note_on_c, 7, 45, 80
21, 31177, Note_off_c, 7, 45, 64
21, 31669, Note_on_c, 7, 55, 76
21, 31768, Note_off_c, 7, 55, 64
21, 31907, Note_on_c, 7, 43, 87
21, 32008, Note_off_c, 7, 43, 64
21, 32632, Note_on_c, 7, 57, 87
21, 32735, Note_off_c, 7, 57, 64
21, 32873, Note_on_c, 7, 45, 85
21, 32973, Note_off_c, 7, 45, 64
21, 33596, Note_on_c, 7, 59, 98
21, 33698, Note_off_c, 7, 59, 64
21, 33834, Note_on_c, 7, 47, 87
21, 33940, Note_off_c, 7, 47, 64
21, 34552, Note_on_c, 7, 55, 72
21, 34909, Note_off_c, 7, 55, 64
21, 35022, Note_on_c, 7, 55, 80
21, 35136, Note_on_c, 7, 54, 63
21, 35166, Note_off_c, 7, 55, 64
21, 35209, Note_off_c, 7, 54, 64
21, 35256, Note_on_c, 7, 52, 80
21, 35361, Note_off_c, 7, 52, 64
21, 35365, Note_on_c, 7, 50, 76
21, 35454, Note_off_c, 7, 50, 64
21, 35503, Note_on_c, 7, 57, 95
21, 35827, Note_off_c, 7, 57, 64
21, 35980, Note_on_c, 7, 57, 76
21, 36100, Note_on_c, 7, 56, 68
21, 36126, Note_off_c, 7, 57, 64
21, 36175, Note_off_c, 7, 56, 64
21, 36214, Note_on_c, 7, 54, 85
21, 36320, Note_off_c, 7, 54, 64
21, 36327, Note_on_c, 7, 52, 66
21, 36424, Note_off_c, 7, 52, 64
21, 36466, Note_on_c, 7, 57, 95
21, 36812, Note_off_c, 7, 57, 64
21, 36951, Note_on_c, 7, 54, 89
21, 37066, Note_on_c, 7, 50, 64
21, 37072, Note_off_c, 7, 54, 64
21, 37112, Note_on_c, 7, 52, 70
21, 37132, Note_off_c, 7, 50, 64
21, 37155, Note_off_c, 7, 52, 64
21, 37183, Note_on_c, 7, 54, 98
21, 37302, Note_off_c, 7, 54, 64
21, 37304, Note_on_c, 7, 52, 66
21, 37363, Note_on_c, 7, 54, 53
21, 37373, Note_off_c, 7, 52, 64
21, 37404, Note_off_c, 7, 54, 64
21, 37427, Note_on_c, 7, 55, 87
21, 37548, Note_on_c, 7, 52, 66
21, 37549, Note_off_c, 7, 55, 64
21, 37586, Note_on_c, 7, 54, 64
21, 37604, Note_off_c, 7, 52, 64
21, 37640, Note_off_c, 7, 54, 64
21, 37660, Note_on_c, 7, 55, 85
21, 37765, Note_off_c, 7, 55, 64
21, 37787, Note_on_c, 7, 54, 60
21, 37838, Note_on_c, 7, 55, 74
21, 37855, Note_off_c, 7, 54, 64
21, 37896, Note_off_c, 7, 55, 64
21, 37913, Note_on_c, 7, 57, 80
21, 38023, Note_off_c, 7, 57, 64
21, 38144, Note_on_c, 7, 45, 85
21, 38257, Note_off_c, 7, 45, 64
21, 38385, Note_on_c, 7, 38, 87
21, 38767, Note_off_c, 7, 38, 64
21, 38879, Note_on_c, 7, 57, 85
21, 38991, Note_on_c, 7, 55, 80
21, 39016, Note_off_c, 7, 57, 64
21, 39103, Note_on_c, 7, 54, 60
21, 39109, Note_off_c, 7, 55, 64
21, 39225, Note_on_c, 7, 52, 63
21, 39238, Note_off_c, 7, 54, 64
21, 39297, Note_off_c, 7, 52, 64
21, 39352, Note_on_c, 7, 54, 95
21, 39722, Note_off_c, 7, 54, 64
21, 39832, Note_on_c, 7, 54, 93
21, 39940, Note_on_c, 7, 52, 76
21, 39965, Note_off_c, 7, 54, 64
21, 40057, Note_off_c, 7, 52, 64
21, 40065, Note_on_c, 7, 50, 64
21, 40163, Note_on_c, 7, 49, 80
21, 40170, Note_off_c, 7, 50, 64
21, 40233, Note_off_c, 7, 49, 64
21, 40286, Note_on_c, 7, 50, 74
21, 40637, Note_off_c, 7, 50, 64
21, 40785, Note_on_c, 7, 49, 89
21, 40886, Note_on_c, 7, 46, 61
21, 40903, Note_off_c, 7, 49, 64
21, 40937, Note_on_c, 7, 47, 78
21, 40959, Note_off_c, 7, 46, 64
21, 40995, Note_off_c, 7, 47, 64
21, 41018, Note_on_c, 7, 49, 98
21, 41124, Note_off_c, 7, 49, 64
21, 41131, Note_on_c, 7, 50, 68
21, 41186, Note_on_c, 7, 52, 91
21, 41199, Note_off_c, 7, 50, 64
21, 41231, Note_off_c, 7, 52, 64
21, 41246, Note_on_c, 7, 54, 85
21, 41371, Note_off_c, 7, 54, 64
21, 41371, Note_on_c, 7, 50, 64
21, 41402, Note_on_c, 7, 52, 66
21, 41426, Note_off_c, 7, 50, 64
21, 41457, Note_off_c, 7, 52, 64
21, 41479, Note_on_c, 7, 54, 85
21, 41589, Note_on_c, 7, 56, 57
21, 41606, Note_off_c, 7, 54, 64
21, 41648, Note_on_c, 7, 58, 70
21, 41666, Note_off_c, 7, 56, 64
21, 41694, Note_off_c, 7, 58, 64
21, 41726, Note_on_c, 7, 59, 85
21, 41925, Note_off_c, 7, 59, 64
21, 41975, Note_on_c, 7, 50, 80
21, 42055, Note_off_c, 7, 50, 64
21, 42081, Note_on_c, 7, 52, 66
21, 42156, Note_off_c, 7, 52, 64
21, 42223, Note_on_c, 7, 54, 82
21, 42593, Note_off_c, 7, 54, 64
21, 42711, Note_on_c, 7, 52, 80
21, 42819, Note_off_c, 7, 52, 64
21, 42820, Note_on_c, 7, 50, 72
21, 42894, Note_off_c, 7, 50, 64
21, 42941, Note_on_c, 7, 49, 68
21, 43050, Note_on_c, 7, 47, 70
21, 43054, Note_off_c, 7, 49, 64
21, 43143, Note_off_c, 7, 47, 64
21, 43190, Note_on_c, 7, 57, 85
21, 43516, Note_off_c, 7, 57, 64
21, 43663, Note_on_c, 7, 52, 76
21, 43778, Note_on_c, 7, 51, 70
21, 43800, Note_off_c, 7, 52, 64
21, 43851, Note_off_c, 7, 51, 64
21, 43894, Note_on_c, 7, 49, 82
21, 44008, Note_off_c, 7, 49, 64
21, 44008, Note_on_c, 7, 47, 68
21, 44077, Note_off_c, 7, 47, 64
21, 44147, Note_on_c, 7, 52, 87
21, 44538, Note_off_c, 7, 52, 64
21, 44640, Note_on_c, 7, 55, 80
21, 44751, Note_on_c, 7, 54, 72
21, 44773, Note_off_c, 7, 55, 64
21, 44821, Note_off_c, 7, 54, 64
21, 44871, Note_on_c, 7, 52, 82
21, 44978, Note_off_c, 7, 52, 64
21, 44978, Note_on_c, 7, 50, 66
21, 45051, Note_off_c, 7, 50, 64
21, 45101, Note_on_c, 7, 49, 74
21, 45214, Note_off_c, 7, 49, 64
21, 45337, Note_on_c, 7, 47, 74
21, 45446, Note_off_c, 7, 47, 64
21, 45589, Note_on_c, 7, 54, 80
21, 45687, Note_off_c, 7, 54, 64
21, 45828, Note_on_c, 7, 42, 85
21, 45933, Note_off_c, 7, 42, 64
21, 46062, Note_on_c, 7, 47, 82
21, 46165, Note_off_c, 7, 47, 64
21, 46310, Note_on_c, 7, 59, 82
21, 46396, Note_off_c, 7, 59, 64
21, 46552, Note_on_c, 7, 57, 82
21, 46762, Note_off_c, 7, 57, 64
21, 46789, Note_on_c, 7, 55, 66
21, 46922, Note_off_c, 7, 55, 64
21, 47025, Note_on_c, 7, 54, 82
21, 47245, Note_off_c, 7, 54, 64
21, 47263, Note_on_c, 7, 52, 58
21, 47417, Note_off_c, 7, 52, 64
21, 47503, Note_on_c, 7, 50, 80
21, 47709, Note_off_c, 7, 50, 64
21, 47740, Note_on_c, 7, 48, 57
21, 47867, Note_off_c, 7, 48, 64
21, 47982, Note_on_c, 7, 47, 87
21, 48187, Note_off_c, 7, 47, 64
21, 48221, Note_on_c, 7, 45, 60
21, 48353, Note_off_c, 7, 45, 64
21, 48468, Note_on_c, 7, 43, 78
21, 48575, Note_on_c, 7, 42, 66
21, 48607, Note_off_c, 7, 43, 64
21, 48660, Note_off_c, 7, 42, 64
21, 48703, Note_on_c, 7, 40, 78
21, 48813, Note_on_c, 7, 38, 82
21, 48814, Note_off_c, 7, 40, 64
21, 48906, Note_off_c, 7, 38, 64
21, 48941, Note_on_c, 7, 49, 95
21, 49045, Note_off_c, 7, 49, 64
21, 49187, Note_on_c, 7, 45, 70
21, 49299, Note_off_c, 7, 45, 64
21, 49428, Note_on_c, 7, 50, 78
21, 49533, Note_off_c, 7, 50, 64
21, 49666, Note_on_c, 7, 43, 82
21, 49773, Note_off_c, 7, 43, 64
21, 49904, Note_on_c, 7, 45, 85
21, 50372, Note_off_c, 7, 45, 64
21, 50869, Note_on_c, 7, 55, 72
21, 50974, Note_off_c, 7, 55, 64
21, 51110, Note_on_c, 7, 43, 87
21, 51220, Note_off_c, 7, 43, 64
21, 51823, Note_on_c, 7, 57, 89
21, 51922, Note_off_c, 7, 57, 64
21, 52072, Note_on_c, 7, 45, 93
21, 52172, Note_off_c, 7, 45, 64
21, 52776, Note_on_c, 7, 59, 91
21, 52879, Note_off_c, 7, 59, 64
21, 53037, Note_on_c, 7, 47, 91
21, 53147, Note_off_c, 7, 47, 64
21, 53752, Note_on_c, 7, 55, 87
21, 54131, Note_off_c, 7, 55, 64
21, 54229, Note_on_c, 7, 55, 82
21, 54343, Note_on_c, 7, 54, 70
21, 54362, Note_off_c, 7, 55, 64
21, 54415, Note_off_c, 7, 54, 64
21, 54471, Note_on_c, 7, 52, 80
21, 54568, Note_off_c, 7, 52, 64
21, 54575, Note_on_c, 7, 50, 82
21, 54661, Note_off_c, 7, 50, 64
21, 54715, Note_on_c, 7, 57, 95
21, 55044, Note_off_c, 7, 57, 64
21, 55186, Note_on_c, 7, 57, 82
21, 55302, Note_on_c, 7, 56, 80
21, 55317, Note_off_c, 7, 57, 64
21, 55380, Note_off_c, 7, 56, 64
21, 55427, Note_on_c, 7, 54, 82
21, 55517, Note_off_c, 7, 54, 64
21, 55534, Note_on_c, 7, 52, 68
21, 55612, Note_off_c, 7, 52, 64
21, 55666, Note_on_c, 7, 57, 85
21, 56038, Note_off_c, 7, 57, 64
21, 56155, Note_on_c, 7, 54, 95
21, 56272, Note_off_c, 7, 54, 64
21, 56275, Note_on_c, 7, 50, 66
21, 56314, Note_on_c, 7, 52, 78
21, 56337, Note_off_c, 7, 50, 64
21, 56364, Note_off_c, 7, 52, 64
21, 56388, Note_on_c, 7, 54, 98
21, 56487, Note_off_c, 7, 54, 64
21, 56507, Note_on_c, 7, 52, 63
21, 56564, Note_on_c, 7, 54, 57
21, 56573, Note_off_c, 7, 52, 64
21, 56603, Note_off_c, 7, 54, 64
21, 56628, Note_on_c, 7, 55, 85
21, 56729, Note_off_c, 7, 55, 64
21, 56752, Note_on_c, 7, 52, 59
21, 56792, Note_on_c, 7, 54, 66
21, 56812, Note_off_c, 7, 52, 64
21, 56845, Note_off_c, 7, 54, 64
21, 56874, Note_on_c, 7, 55, 93
21, 56984, Note_off_c, 7, 55, 64
21, 56987, Note_on_c, 7, 54, 87
21, 57042, Note_on_c, 7, 55, 70
21, 57057, Note_off_c, 7, 54, 64
21, 57093, Note_off_c, 7, 55, 64
21, 57113, Note_on_c, 7, 57, 68
21, 57248, Note_off_c, 7, 57, 64
21, 57349, Note_on_c, 7, 45, 87
21, 57463, Note_off_c, 7, 45, 64
21, 57581, Note_on_c, 7, 38, 85
21, 57955, Note_off_c, 7, 38, 64
21, 57955, End_track
22, 0, Start_track
22, 0, Title_t, "Violin"
22, 0, Program_c, 8, 40
22, 0, Control_c, 8, 7, 100
22, 19694, Note_on_c, 8, 69, 98
22, 19793, Note_off_c, 8, 69, 64
22, 19943, Note_on_c, 8, 76, 102
22, 20359, Note_off_c, 8, 76, 64
22, 20395, Note_on_c, 8, 78, 80
22, 20497, Note_off_c, 8, 78, 64
22, 20504, Note_on_c, 8, 76, 85
22, 20594, Note_off_c, 8, 76, 64
22, 20624, Note_on_c, 8, 74, 78
22, 20727, Note_off_c, 8, 74, 64
22, 20735, Note_on_c, 8, 73, 80
22, 20827, Note_off_c, 8, 73, 64
22, 20872, Note_on_c, 8, 79, 107
22, 21314, Note_off_c, 8, 79, 64
22, 21351, Note_on_c, 8, 78, 85
22, 21507, Note_off_c, 8, 78, 64
22, 21847, Note_on_c, 8, 76, 98
22, 21992, Note_off_c, 8, 76, 64
22, 22307, Note_on_c, 8, 76, 89
22, 22468, Note_off_c, 8, 76, 64
22, 22660, Note_on_c, 8, 76, 98
22, 22774, Note_off_c, 8, 76, 64
22, 22778, Note_on_c, 8, 78, 91
22, 22876, Note_off_c, 8, 78, 64
22, 22888, Note_on_c, 8, 79, 85
22, 22972, Note_off_c, 8, 79, 64
22, 23010, Note_on_c, 8, 73, 89
22, 23218, Note_off_c, 8, 73, 64
22, 23252, Note_on_c, 8, 66, 76
22, 23380, Note_off_c, 8, 66, 64
22, 23506, Note_on_c, 8, 78, 85
22, 23606, Note_off_c, 8, 78, 64
22, 23750, Note_on_c, 8, 83, 100
22, 24128, Note_off_c, 8, 83, 64
22, 24215, Note_on_c, 8, 75, 85
22, 24314, Note_off_c, 8, 75, 64
22, 24325, Note_on_c, 8, 76, 85
22, 24412, Note_off_c, 8, 76, 64
22, 24443, Note_on_c, 8, 78, 85
22, 24557, Note_off_c, 8, 78, 64
22, 24574, Note_on_c, 8, 71, 91
22, 24655, Note_off_c, 8, 71, 64
22, 24701, Note_on_c, 8, 81, 98
22, 25127, Note_off_c, 8, 81, 64
22, 25192, Note_on_c, 8, 79, 85
22, 25284, Note_off_c, 8, 79, 64
22, 25307, Note_on_c, 8, 78, 61
22, 25396, Note_off_c, 8, 78, 64
22, 25423, Note_on_c, 8, 76, 72
22, 25502, Note_off_c, 8, 76, 64
22, 25535, Note_on_c, 8, 73, 78
22, 25612, Note_off_c, 8, 73, 64
22, 25658, Note_on_c, 8, 82, 100
22, 26106, Note_off_c, 8, 82, 64
22, 26138, Note_on_c, 8, 83, 85
22, 26254, Note_off_c, 8, 83, 64
22, 26383, Note_on_c, 8, 74, 80
22, 26500, Note_off_c, 8, 74, 64
22, 26623, Note_on_c, 8, 73, 87
22, 26729, Note_off_c, 8, 73, 64
22, 26731, Note_on_c, 8, 71, 78
22, 26809, Note_off_c, 8, 71, 64
22, 26888, Note_on_c, 8, 71, 74
22, 27383, Note_off_c, 8, 71, 64
22, 27833, Note_on_c, 8, 72, 93
22, 27946, Note_off_c, 8, 72, 64
22, 27959, Note_on_c, 8, 76, 78
22, 28009, Note_on_c, 8, 74, 82
22, 28018, Note_off_c, 8, 76, 64
22, 28067, Note_off_c, 8, 74, 64
22, 28085, Note_on_c, 8, 72, 100
22, 28328, Note_off_c, 8, 72, 64
22, 28787, Note_on_c, 8, 62, 102
22, 28912, Note_on_c, 8, 64, 76
22, 28930, Note_off_c, 8, 62, 64
22, 28970, Note_on_c, 8, 66, 89
22, 28982, Note_off_c, 8, 64, 64
22, 29020, Note_off_c, 8, 66, 64
22, 29026, Note_on_c, 8, 67, 85
22, 29098, Note_on_c, 8, 69, 76
22, 29111, Note_off_c, 8, 67, 64
22, 29152, Note_on_c, 8, 71, 78
22, 29173, Note_off_c, 8, 69, 64
22, 29189, Note_on_c, 8, 72, 82
22, 29204, Note_off_c, 8, 71, 64
22, 29257, Note_off_c, 8, 72, 64
22, 29266, Note_on_c, 8, 71, 105
22, 29363, Note_off_c, 8, 71, 64
22, 29518, Note_on_c, 8, 79, 87
22, 29938, Note_off_c, 8, 79, 64
22, 29990, Note_on_c, 8, 78, 95
22, 30085, Note_off_c, 8, 78, 64
22, 30100, Note_on_c, 8, 76, 82
22, 30199, Note_off_c, 8, 76, 64
22, 30226, Note_on_c, 8, 78, 89
22, 30316, Note_off_c, 8, 78, 64
22, 30338, Note_on_c, 8, 74, 70
22, 30422, Note_off_c, 8, 74, 64
22, 30470, Note_on_c, 8, 76, 87
22, 30574, Note_off_c, 8, 76, 64
22, 30715, Note_on_c, 8, 73, 100
22, 30956, Note_off_c, 8, 73, 64
22, 30964, Note_on_c, 8, 69, 80
22, 31084, Note_off_c, 8, 69, 64
22, 31440, Note_on_c, 8, 74, 89
22, 31651, Note_off_c, 8, 74, 64
22, 31799, Note_on_c, 8, 71, 87
22, 31885, Note_off_c, 8, 71, 64
22, 31909, Note_on_c, 8, 67, 87
22, 31994, Note_off_c, 8, 67, 64
22, 32015, Note_on_c, 8, 71, 82
22, 32093, Note_off_c, 8, 71, 64
22, 32152, Note_on_c, 8, 76, 93
22, 32413, Note_off_c, 8, 76, 64
22, 32629, Note_on_c, 8, 76, 89
22, 32852, Note_off_c, 8, 76, 64
22, 33331, Note_on_c, 8, 78, 87
22, 33511, Note_off_c, 8, 78, 64
22, 33679, Note_on_c, 8, 74, 82
22, 33769, Note_off_c, 8, 74, 64
22, 33799, Note_on_c, 8, 71, 85
22, 33893, Note_off_c, 8, 71, 64
22, 33916, Note_on_c, 8, 74, 82
22, 34003, Note_off_c, 8, 74, 64
22, 34048, Note_on_c, 8, 79, 98
22, 34264, Note_off_c, 8, 79, 64
22, 34543, Note_on_c, 8, 69, 89
22, 34946, Note_off_c, 8, 69, 64
22, 35004, Note_on_c, 8, 74, 87
22, 35083, Note_off_c, 8, 74, 64
22, 35125, Note_on_c, 8, 81, 85
22, 35243, Note_off_c, 8, 81, 64
22, 35272, Note_on_c, 8, 86, 100
22, 35722, Note_off_c, 8, 86, 64
22, 35756, Note_on_c, 8, 85, 80
22, 35843, Note_off_c, 8, 85, 64
22, 35996, Note_on_c, 8, 74, 82
22, 36083, Note_off_c, 8, 74, 64
22, 36110, Note_on_c, 8, 80, 80
22, 36197, Note_off_c, 8, 80, 64
22, 36233, Note_on_c, 8, 83, 98
22, 36626, Note_off_c, 8, 83, 64
22, 36727, Note_on_c, 8, 81, 85
22, 36811, Note_off_c, 8, 81, 64
22, 36970, Note_on_c, 8, 74, 85
22, 38017, Note_off_c, 8, 74, 64
22, 38030, Note_on_c, 8, 71, 85
22, 38100, Note_off_c, 8, 71, 64
22, 38156, Note_on_c, 8, 73, 98
22, 38252, Note_off_c, 8, 73, 64
22, 38392, Note_on_c, 8, 73, 102
22, 38632, Note_off_c, 8, 73, 64
22, 38641, Note_on_c, 8, 74, 78
22, 38734, Note_off_c, 8, 74, 64
22, 38882, Note_on_c, 8, 69, 89
22, 38965, Note_off_c, 8, 69, 64
22, 39127, Note_on_c, 8, 76, 100
22, 39533, Note_off_c, 8, 76, 64
22, 39599, Note_on_c, 8, 78, 95
22, 39691, Note_off_c, 8, 78, 64
22, 39716, Note_on_c, 8, 76, 80
22, 39808, Note_off_c, 8, 76, 64
22, 39839, Note_on_c, 8, 74, 72
22, 39937, Note_off_c, 8, 74, 64
22, 39961, Note_on_c, 8, 73, 76
22, 40034, Note_off_c, 8, 73, 64
22, 40082, Note_on_c, 8, 79, 105
22, 40514, Note_off_c, 8, 79, 64
22, 40571, Note_on_c, 8, 78, 80
22, 40711, Note_off_c, 8, 78, 64
22, 41045, Note_on_c, 8, 76, 78
22, 41215, Note_off_c, 8, 76, 64
22, 41509, Note_on_c, 8, 76, 82
22, 41671, Note_off_c, 8, 76, 64
22, 41854, Note_on_c, 8, 76, 87
22, 41957, Note_on_c, 8, 78, 85
22, 41977, Note_off_c, 8, 76, 64
22, 42059, Note_off_c, 8, 78, 64
22, 42067, Note_on_c, 8, 79, 85
22, 42155, Note_off_c, 8, 79, 64
22, 42206, Note_on_c, 8, 73, 82
22, 42412, Note_off_c, 8, 73, 64
22, 42452, Note_on_c, 8, 66, 80
22, 42571, Note_off_c, 8, 66, 64
22, 42697, Note_on_c, 8, 78, 76
22, 42784, Note_off_c, 8, 78, 64
22, 42940, Note_on_c, 8, 83, 100
22, 43343, Note_off_c, 8, 83, 64
22, 43418, Note_on_c, 8, 75, 85
22, 43502, Note_off_c, 8, 75, 64
22, 43530, Note_on_c, 8, 76, 80
22, 43608, Note_off_c, 8, 76, 64
22, 43652, Note_on_c, 8, 78, 91
22, 43747, Note_off_c, 8, 78, 64
22, 43771, Note_on_c, 8, 71, 89
22, 43846, Note_off_c, 8, 71, 64
22, 43889, Note_on_c, 8, 81, 100
22, 44300, Note_off_c, 8, 81, 64
22, 44395, Note_on_c, 8, 79, 82
22, 44471, Note_off_c, 8, 79, 64
22, 44512, Note_on_c, 8, 78, 82
22, 44579, Note_off_c, 8, 78, 64
22, 44632, Note_on_c, 8, 76, 89
22, 44704, Note_off_c, 8, 76, 64
22, 44749, Note_on_c, 8, 73, 76
22, 44831, Note_off_c, 8, 73, 64
22, 44869, Note_on_c, 8, 82, 98
22, 45308, Note_off_c, 8, 82, 64
22, 45350, Note_on_c, 8, 83, 80
22, 45451, Note_off_c, 8, 83, 64
22, 45595, Note_on_c, 8, 74, 93
22, 45736, Note_off_c, 8, 74, 64
22, 45812, Note_on_c, 8, 74, 93
22, 45848, Note_on_c, 8, 73, 91
22, 45850, Note_off_c, 8, 74, 64
22, 45884, Note_on_c, 8, 74, 82
22, 45895, Note_off_c, 8, 73, 64
22, 45926, Note_on_c, 8, 73, 64
22, 45949, Note_off_c, 8, 74, 64
22, 45962, Note_on_c, 8, 71, 74
22, 45989, Note_off_c, 8, 73, 64
22, 46033, Note_off_c, 8, 71, 64
22, 46096, Note_on_c, 8, 71, 87
22, 46556, Note_off_c, 8, 71, 64
22, 47024, Note_on_c, 8, 72, 89
22, 47155, Note_on_c, 8, 76, 78
22, 47156, Note_off_c, 8, 72, 64
22, 47200, Note_on_c, 8, 74, 82
22, 47218, Note_off_c, 8, 76, 64
22, 47258, Note_off_c, 8, 74, 64
22, 47275, Note_on_c, 8, 72, 80
22, 47525, Note_off_c, 8, 72, 64
22, 47977, Note_on_c, 8, 62, 100
22, 48106, Note_on_c, 8, 64, 66
22, 48121, Note_off_c, 8, 62, 64
22, 48152, Note_on_c, 8, 66, 85
22, 48170, Note_off_c, 8, 64, 64
22, 48206, Note_off_c, 8, 66, 64
22, 48223, Note_on_c, 8, 67, 82
22, 48280, Note_on_c, 8, 69, 66
22, 48299, Note_off_c, 8, 67, 64
22, 48343, Note_on_c, 8, 71, 74
22, 48363, Note_off_c, 8, 69, 64
22, 48383, Note_on_c, 8, 72, 78
22, 48395, Note_off_c, 8, 71, 64
22, 48460, Note_off_c, 8, 72, 64
22, 48467, Note_on_c, 8, 71, 100
22, 48557, Note_off_c, 8, 71, 64
22, 48706, Note_on_c, 8, 79, 89
22, 49129, Note_off_c, 8, 79, 64
22, 49202, Note_on_c, 8, 78, 100
22, 49305, Note_off_c, 8, 78, 64
22, 49312, Note_on_c, 8, 76, 78
22, 49400, Note_off_c, 8, 76, 64
22, 49436, Note_on_c, 8, 78, 89
22, 49528, Note_off_c, 8, 78, 64
22, 49538, Note_on_c, 8, 74, 82
22, 49612, Note_off_c, 8, 74, 64
22, 49666, Note_on_c, 8, 76, 85
22, 49782, Note_off_c, 8, 76, 64
22, 49913, Note_on_c, 8, 74, 93
22, 49970, Note_on_c, 8, 73, 102
22, 49999, Note_off_c, 8, 74, 64
22, 50113, Note_off_c, 8, 73, 64
22, 50141, Note_on_c, 8, 71, 85
22, 50248, Note_on_c, 8, 69, 78
22, 50252, Note_off_c, 8, 71, 64
22, 50356, Note_off_c, 8, 69, 64
22, 50620, Note_on_c, 8, 74, 93
22, 50830, Note_off_c, 8, 74, 64
22, 50983, Note_on_c, 8, 71, 87
22, 51070, Note_off_c, 8, 71, 64
22, 51090, Note_on_c, 8, 67, 85
22, 51183, Note_off_c, 8, 67, 64
22, 51210, Note_on_c, 8, 71, 78
22, 51298, Note_off_c, 8, 71, 64
22, 51352, Note_on_c, 8, 76, 93
22, 51579, Note_off_c, 8, 76, 64
22, 51823, Note_on_c, 8, 76, 98
22, 52018, Note_off_c, 8, 76, 64
22, 52538, Note_on_c, 8, 78, 102
22, 52702, Note_off_c, 8, 78, 64
22, 52890, Note_on_c, 8, 74, 87
22, 52985, Note_off_c, 8, 74, 64
22, 53008, Note_on_c, 8, 71, 87
22, 53089, Note_off_c, 8, 71, 64
22, 53125, Note_on_c, 8, 74, 82
22, 53210, Note_off_c, 8, 74, 64
22, 53251, Note_on_c, 8, 79, 95
22, 53446, Note_off_c, 8, 79, 64
22, 53749, Note_on_c, 8, 69, 95
22, 54136, Note_off_c, 8, 69, 64
22, 54217, Note_on_c, 8, 74, 72
22, 54285, Note_off_c, 8, 74, 64
22, 54329, Note_on_c, 8, 81, 85
22, 54437, Note_off_c, 8, 81, 64
22, 54464, Note_on_c, 8, 86, 95
22, 54914, Note_off_c, 8, 86, 64
22, 54959, Note_on_c, 8, 85, 70
22, 55052, Note_off_c, 8, 85, 64
22, 55204, Note_on_c, 8, 74, 76
22, 55273, Note_off_c, 8, 74, 64
22, 55316, Note_on_c, 8, 80, 82
22, 55382, Note_off_c, 8, 80, 64
22, 55436, Note_on_c, 8, 83, 102
22, 55817, Note_off_c, 8, 83, 64
22, 55925, Note_on_c, 8, 81, 82
22, 56009, Note_off_c, 8, 81, 64
22, 56164, Note_on_c, 8, 74, 87
22, 57197, Note_off_c, 8, 74, 64
22, 57223, Note_on_c, 8, 71, 66
22, 57297, Note_off_c, 8, 71, 64
22, 57355, Note_on_c, 8, 73, 93
22, 57443, Note_off_c, 8, 73, 64
22, 57584, Note_on_c, 8, 73, 102
22, 57830, Note_on_c, 8, 74, 85
22, 57838, Note_off_c, 8, 73, 64
22, 57982, Note_off_c, 8, 74, 64
22, 57982, End_track
23, 0, Start_track
23, 0, Title_t, "Violin"
23, 0, Program_c, 10, 40
23, 0, Control_c, 10, 7, 100
23, 19682, Note_on_c, 10, 64, 70
23, 19807, Note_off_c, 10, 64, 64
23, 19914, Note_on_c, 10, 73, 66
23, 20015, Note_off_c, 10, 73, 64
23, 20159, Note_on_c, 10, 73, 68
23, 20531, Note_off_c, 10, 73, 64
23, 20616, Note_on_c, 10, 69, 74
23, 20714, Note_off_c, 10, 69, 64
23, 20859, Note_on_c, 10, 76, 82
23, 21319, Note_off_c, 10, 76, 64
23, 21335, Note_on_c, 10, 74, 68
23, 21516, Note_off_c, 10, 74, 64
23, 21825, Note_on_c, 10, 73, 54
23, 22028, Note_off_c, 10, 73, 64
23, 22288, Note_on_c, 10, 73, 57
23, 22507, Note_off_c, 10, 73, 64
23, 22655, Note_on_c, 10, 73, 82
23, 22762, Note_on_c, 10, 74, 72
23, 22778, Note_off_c, 10, 73, 64
23, 22845, Note_off_c, 10, 74, 64
23, 22878, Note_on_c, 10, 71, 70
23, 22953, Note_off_c, 10, 71, 64
23, 23005, Note_on_c, 10, 70, 64
23, 23403, Note_off_c, 10, 70, 64
23, 23501, Note_on_c, 10, 71, 74
23, 23634, Note_off_c, 10, 71, 64
23, 23734, Note_on_c, 10, 78, 64
23, 23839, Note_off_c, 10, 78, 64
23, 23992, Note_on_c, 10, 78, 66
23, 24380, Note_off_c, 10, 78, 64
23, 24444, Note_on_c, 10, 71, 76
23, 24560, Note_off_c, 10, 71, 64
23, 24684, Note_on_c, 10, 75, 68
23, 24777, Note_off_c, 10, 75, 64
23, 24938, Note_on_c, 10, 76, 85
23, 25325, Note_off_c, 10, 76, 64
23, 25398, Note_on_c, 10, 71, 80
23, 25544, Note_off_c, 10, 71, 64
23, 25645, Note_on_c, 10, 73, 82
23, 26052, Note_off_c, 10, 73, 64
23, 26134, Note_on_c, 10, 74, 72
23, 26261, Note_off_c, 10, 74, 64
23, 26365, Note_on_c, 10, 66, 64
23, 26504, Note_off_c, 10, 66, 64
23, 26614, Note_on_c, 10, 70, 66
23, 26728, Note_off_c, 10, 70, 64
23, 26861, Note_on_c, 10, 66, 59
23, 27347, Note_off_c, 10, 66, 64
23, 27814, Note_on_c, 10, 69, 72
23, 27937, Note_on_c, 10, 72, 78
23, 27941, Note_off_c, 10, 69, 64
23, 27989, Note_on_c, 10, 71, 70
23, 27998, Note_off_c, 10, 72, 64
23, 28052, Note_off_c, 10, 71, 64
23, 28055, Note_on_c, 10, 69, 66
23, 28306, Note_off_c, 10, 69, 64
23, 28771, Note_on_c, 10, 62, 82
23, 28915, Note_on_c, 10, 64, 70
23, 28928, Note_off_c, 10, 62, 64
23, 28957, Note_on_c, 10, 66, 70
23, 28970, Note_off_c, 10, 64, 64
23, 29013, Note_off_c, 10, 66, 64
23, 29020, Note_on_c, 10, 67, 82
23, 29080, Note_on_c, 10, 69, 85
23, 29084, Note_off_c, 10, 67, 64
23, 29134, Note_on_c, 10, 71, 72
23, 29149, Note_off_c, 10, 69, 64
23, 29180, Note_on_c, 10, 72, 70
23, 29186, Note_off_c, 10, 71, 64
23, 29246, Note_on_c, 10, 71, 87
23, 29262, Note_off_c, 10, 72, 64
23, 29375, Note_off_c, 10, 71, 64
23, 29504, Note_on_c, 10, 76, 80
23, 29935, Note_off_c, 10, 76, 64
23, 29984, Note_on_c, 10, 74, 76
23, 30102, Note_off_c, 10, 74, 64
23, 30103, Note_on_c, 10, 73, 64
23, 30203, Note_off_c, 10, 73, 64
23, 30221, Note_on_c, 10, 74, 74
23, 30336, Note_off_c, 10, 74, 64
23, 30458, Note_on_c, 10, 71, 80
23, 30539, Note_off_c, 10, 71, 64
23, 30696, Note_on_c, 10, 69, 82
23, 30892, Note_off_c, 10, 69, 64
23, 30924, Note_on_c, 10, 64, 52
23, 31057, Note_off_c, 10, 64, 64
23, 31172, Note_on_c, 10, 69, 68
23, 31277, Note_off_c, 10, 69, 64
23, 31286, Note_on_c, 10, 66, 57
23, 31334, Note_on_c, 10, 67, 60
23, 31353, Note_off_c, 10, 66, 64
23, 31400, Note_on_c, 10, 69, 76
23, 31404, Note_off_c, 10, 67, 64
23, 31520, Note_off_c, 10, 69, 64
23, 31522, Note_on_c, 10, 67, 66
23, 31576, Note_on_c, 10, 69, 68
23, 31588, Note_off_c, 10, 67, 64
23, 31641, Note_off_c, 10, 69, 64
23, 31646, Note_on_c, 10, 71, 76
23, 31917, Note_off_c, 10, 71, 64
23, 32127, Note_on_c, 10, 71, 78
23, 32258, Note_on_c, 10, 68, 63
23, 32270, Note_off_c, 10, 71, 64
23, 32309, Note_on_c, 10, 69, 72
23, 32317, Note_off_c, 10, 68, 64
23, 32360, Note_on_c, 10, 71, 76
23, 32374, Note_off_c, 10, 69, 64
23, 32482, Note_off_c, 10, 71, 64
23, 32486, Note_on_c, 10, 69, 64
23, 32536, Note_on_c, 10, 71, 70
23, 32548, Note_off_c, 10, 69, 64
23, 32598, Note_off_c, 10, 71, 64
23, 32600, Note_on_c, 10, 73, 68
23, 32866, Note_off_c, 10, 73, 64
23, 33087, Note_on_c, 10, 73, 68
23, 33204, Note_on_c, 10, 70, 59
23, 33208, Note_off_c, 10, 73, 64
23, 33251, Note_on_c, 10, 71, 70
23, 33263, Note_off_c, 10, 70, 64
23, 33307, Note_on_c, 10, 73, 76
23, 33310, Note_off_c, 10, 71, 64
23, 33439, Note_on_c, 10, 71, 70
23, 33444, Note_off_c, 10, 73, 64
23, 33495, Note_on_c, 10, 73, 57
23, 33501, Note_off_c, 10, 71, 64
23, 33550, Note_off_c, 10, 73, 64
23, 33559, Note_on_c, 10, 74, 76
23, 33849, Note_off_c, 10, 74, 64
23, 34057, Note_on_c, 10, 74, 80
23, 34176, Note_on_c, 10, 71, 63
23, 34181, Note_off_c, 10, 74, 64
23, 34220, Note_on_c, 10, 73, 63
23, 34243, Note_off_c, 10, 71, 64
23, 34282, Note_on_c, 10, 74, 85
23, 34293, Note_off_c, 10, 73, 64
23, 34405, Note_on_c, 10, 73, 57
23, 34413, Note_off_c, 10, 74, 64
23, 34460, Note_on_c, 10, 74, 63
23, 34471, Note_off_c, 10, 73, 64
23, 34524, Note_off_c, 10, 74, 64
23, 34530, Note_on_c, 10, 76, 76
23, 34916, Note_off_c, 10, 76, 64
23, 35028, Note_on_c, 10, 74, 78
23, 35136, Note_off_c, 10, 74, 64
23, 35257, Note_on_c, 10, 78, 82
23, 35705, Note_off_c, 10, 78, 64
23, 35747, Note_on_c, 10, 76, 62
23, 35844, Note_off_c, 10, 76, 64
23, 35986, Note_on_c, 10, 71, 72
23, 36092, Note_off_c, 10, 71, 64
23, 36225, Note_on_c, 10, 74, 80
23, 36643, Note_off_c, 10, 74, 64
23, 36708, Note_on_c, 10, 73, 51
23, 36901, Note_off_c, 10, 73, 64
23, 37198, Note_on_c, 10, 69, 64
23, 37381, Note_off_c, 10, 69, 64
23, 37679, Note_on_c, 10, 69, 78
23, 37831, Note_off_c, 10, 69, 64
23, 38012, Note_on_c, 10, 67, 76
23, 38119, Note_off_c, 10, 67, 64
23, 38127, Note_on_c, 10, 66, 60
23, 38223, Note_off_c, 10, 66, 64
23, 38242, Note_on_c, 10, 64, 76
23, 38307, Note_off_c, 10, 64, 64
23, 38373, Note_on_c, 10, 64, 82
23, 38619, Note_on_c, 10, 66, 61
23, 38624, Note_off_c, 10, 64, 64
23, 38744, Note_off_c, 10, 66, 64
23, 38871, Note_on_c, 10, 64, 80
23, 38992, Note_off_c, 10, 64, 64
23, 39119, Note_on_c, 10, 73, 64
23, 39233, Note_off_c, 10, 73, 64
23, 39367, Note_on_c, 10, 73, 80
23, 39721, Note_off_c, 10, 73, 64
23, 39832, Note_on_c, 10, 69, 76
23, 39921, Note_off_c, 10, 69, 64
23, 40070, Note_on_c, 10, 76, 89
23, 40518, Note_off_c, 10, 76, 64
23, 40541, Note_on_c, 10, 74, 72
23, 40711, Note_off_c, 10, 74, 64
23, 41030, Note_on_c, 10, 73, 61
23, 41190, Note_off_c, 10, 73, 64
23, 41504, Note_on_c, 10, 73, 66
23, 41680, Note_off_c, 10, 73, 64
23, 41858, Note_on_c, 10, 73, 80
23, 41960, Note_off_c, 10, 73, 64
23, 41965, Note_on_c, 10, 74, 78
23, 42054, Note_off_c, 10, 74, 64
23, 42082, Note_on_c, 10, 71, 70
23, 42176, Note_off_c, 10, 71, 64
23, 42213, Note_on_c, 10, 70, 66
23, 42555, Note_off_c, 10, 70, 64
23, 42711, Note_on_c, 10, 71, 78
23, 42850, Note_off_c, 10, 71, 64
23, 42949, Note_on_c, 10, 78, 64
23, 43046, Note_off_c, 10, 78, 64
23, 43200, Note_on_c, 10, 78, 72
23, 43624, Note_off_c, 10, 78, 64
23, 43664, Note_on_c, 10, 71, 72
23, 43781, Note_off_c, 10, 71, 64
23, 43902, Note_on_c, 10, 75, 72
23, 44019, Note_off_c, 10, 75, 64
23, 44156, Note_on_c, 10, 76, 82
23, 44565, Note_off_c, 10, 76, 64
23, 44628, Note_on_c, 10, 71, 74
23, 44735, Note_off_c, 10, 71, 64
23, 44862, Note_on_c, 10, 73, 82
23, 45298, Note_off_c, 10, 73, 64
23, 45338, Note_on_c, 10, 74, 78
23, 45464, Note_off_c, 10, 74, 64
23, 45583, Note_on_c, 10, 66, 68
23, 45700, Note_off_c, 10, 66, 64
23, 45818, Note_on_c, 10, 70, 66
23, 45943, Note_off_c, 10, 70, 64
23, 46056, Note_on_c, 10, 66, 60
23, 46539, Note_off_c, 10, 66, 64
23, 47013, Note_on_c, 10, 69, 70
23, 47129, Note_on_c, 10, 72, 76
23, 47132, Note_off_c, 10, 69, 64
23, 47178, Note_on_c, 10, 71, 68
23, 47187, Note_off_c, 10, 72, 64
23, 47232, Note_off_c, 10, 71, 64
23, 47244, Note_on_c, 10, 69, 58
23, 47512, Note_off_c, 10, 69, 64
23, 47970, Note_on_c, 10, 62, 82
23, 48093, Note_on_c, 10, 64, 64
23, 48105, Note_off_c, 10, 62, 64
23, 48144, Note_on_c, 10, 66, 70
23, 48156, Note_off_c, 10, 64, 64
23, 48199, Note_off_c, 10, 66, 64
23, 48204, Note_on_c, 10, 67, 82
23, 48264, Note_on_c, 10, 69, 78
23, 48266, Note_off_c, 10, 67, 64
23, 48321, Note_on_c, 10, 71, 70
23, 48334, Note_off_c, 10, 69, 64
23, 48367, Note_on_c, 10, 72, 78
23, 48373, Note_off_c, 10, 71, 64
23, 48438, Note_on_c, 10, 71, 89
23, 48445, Note_off_c, 10, 72, 64
23, 48571, Note_off_c, 10, 71, 64
23, 48712, Note_on_c, 10, 76, 82
23, 49127, Note_off_c, 10, 76, 64
23, 49177, Note_on_c, 10, 74, 87
23, 49299, Note_on_c, 10, 73, 61
23, 49312, Note_off_c, 10, 74, 64
23, 49388, Note_off_c, 10, 73, 64
23, 49428, Note_on_c, 10, 74, 82
23, 49532, Note_off_c, 10, 74, 64
23, 49657, Note_on_c, 10, 71, 80
23, 49736, Note_off_c, 10, 71, 64
23, 49898, Note_on_c, 10, 69, 82
23, 50110, Note_off_c, 10, 69, 64
23, 50148, Note_on_c, 10, 64, 57
23, 50277, Note_off_c, 10, 64, 64
23, 50375, Note_on_c, 10, 69, 68
23, 50478, Note_off_c, 10, 69, 64
23, 50493, Note_on_c, 10, 66, 57
23, 50556, Note_on_c, 10, 67, 60
23, 50564, Note_off_c, 10, 66, 64
23, 50618, Note_on_c, 10, 69, 74
23, 50627, Note_off_c, 10, 67, 64
23, 50739, Note_off_c, 10, 69, 64
23, 50740, Note_on_c, 10, 67, 66
23, 50798, Note_on_c, 10, 69, 60
23, 50801, Note_off_c, 10, 67, 64
23, 50857, Note_on_c, 10, 71, 70
23, 50861, Note_off_c, 10, 69, 64
23, 51117, Note_off_c, 10, 71, 64
23, 51329, Note_on_c, 10, 71, 78
23, 51450, Note_off_c, 10, 71, 64
23, 51455, Note_on_c, 10, 68, 58
23, 51501, Note_on_c, 10, 69, 58
23, 51506, Note_off_c, 10, 68, 64
23, 51548, Note_on_c, 10, 71, 82
23, 51555, Note_off_c, 10, 69, 64
23, 51678, Note_off_c, 10, 71, 64
23, 51682, Note_on_c, 10, 69, 70
23, 51735, Note_on_c, 10, 71, 64
23, 51737, Note_off_c, 10, 69, 64
23, 51790, Note_off_c, 10, 71, 64
23, 51803, Note_on_c, 10, 73, 78
23, 52057, Note_off_c, 10, 73, 64
23, 52299, Note_on_c, 10, 73, 61
23, 52416, Note_on_c, 10, 70, 52
23, 52418, Note_off_c, 10, 73, 64
23, 52456, Note_on_c, 10, 71, 66
23, 52474, Note_off_c, 10, 70, 64
23, 52519, Note_off_c, 10, 71, 64
23, 52519, Note_on_c, 10, 73, 82
23, 52650, Note_off_c, 10, 73, 64
23, 52654, Note_on_c, 10, 71, 64
23, 52712, Note_on_c, 10, 73, 58
23, 52719, Note_off_c, 10, 71, 64
23, 52766, Note_off_c, 10, 73, 64
23, 52771, Note_on_c, 10, 74, 74
23, 53037, Note_off_c, 10, 74, 64
23, 53252, Note_on_c, 10, 74, 80
23, 53368, Note_on_c, 10, 71, 64
23, 53370, Note_off_c, 10, 74, 64
23, 53419, Note_on_c, 10, 73, 56
23, 53434, Note_off_c, 10, 71, 64
23, 53486, Note_off_c, 10, 73, 64
23, 53486, Note_on_c, 10, 74, 87
23, 53610, Note_on_c, 10, 73, 56
23, 53618, Note_off_c, 10, 74, 64
23, 53663, Note_on_c, 10, 74, 70
23, 53681, Note_off_c, 10, 73, 64
23, 53725, Note_off_c, 10, 74, 64
23, 53739, Note_on_c, 10, 76, 78
23, 54135, Note_off_c, 10, 76, 64
23, 54233, Note_on_c, 10, 74, 74
23, 54348, Note_off_c, 10, 74, 64
23, 54468, Note_on_c, 10, 78, 95
23, 54892, Note_off_c, 10, 78, 64
23, 54946, Note_on_c, 10, 76, 53
23, 55050, Note_off_c, 10, 76, 64
23, 55194, Note_on_c, 10, 71, 60
23, 55288, Note_off_c, 10, 71, 64
23, 55420, Note_on_c, 10, 74, 82
23, 55872, Note_off_c, 10, 74, 64
23, 55916, Note_on_c, 10, 73, 57
23, 56081, Note_off_c, 10, 73, 64
23, 56402, Note_on_c, 10, 69, 60
23, 56615, Note_off_c, 10, 69, 64
23, 56876, Note_on_c, 10, 69, 64
23, 57074, Note_off_c, 10, 69, 64
23, 57202, Note_on_c, 10, 67, 74
23, 57316, Note_on_c, 10, 66, 66
23, 57330, Note_off_c, 10, 67, 64
23, 57410, Note_off_c, 10, 66, 64
23, 57429, Note_on_c, 10, 64, 76
23, 57502, Note_off_c, 10, 64, 64
23, 57588, Note_on_c, 10, 64, 95
23, 57815, Note_on_c, 10, 66, 52
23, 57822, Note_off_c, 10, 64, 64
23, 58003, Note_off_c, 10, 66, 64
23, 58003, End_track
24, 0, Start_track
24, 0, Title_t, "Viola"
24, 0, Program_c, 11, 41
24, 0, Control_c, 11, 7, 100
24, 19684, Note_on_c, 11, 61, 87
24, 19789, Note_off_c, 11, 61, 64
24, 19918, Note_on_c, 11, 69, 89
24, 20010, Note_off_c, 11, 69, 64
24, 20167, Note_on_c, 11, 69, 91
24, 20554, Note_off_c, 11, 69, 64
24, 20629, Note_on_c, 11, 66, 85
24, 20727, Note_off_c, 11, 66, 64
24, 20859, Note_on_c, 11, 69, 85
24, 20954, Note_off_c, 11, 69, 64
24, 21102, Note_on_c, 11, 69, 91
24, 21591, Note_off_c, 11, 69, 64
24, 21829, Note_on_c, 11, 70, 68
24, 22011, Note_off_c, 11, 70, 64
24, 22303, Note_on_c, 11, 70, 70
24, 22483, Note_off_c, 11, 70, 64
24, 22764, Note_on_c, 11, 66, 80
24, 22884, Note_off_c, 11, 66, 64
24, 23024, Note_on_c, 11, 66, 78
24, 23368, Note_off_c, 11, 66, 64
24, 23484, Note_on_c, 11, 66, 68
24, 23628, Note_off_c, 11, 66, 64
24, 23739, Note_on_c, 11, 74, 82
24, 23831, Note_off_c, 11, 74, 64
24, 23992, Note_on_c, 11, 75, 78
24, 24356, Note_off_c, 11, 75, 64
24, 24454, Note_on_c, 11, 66, 78
24, 24547, Note_off_c, 11, 66, 64
24, 24700, Note_on_c, 11, 71, 82
24, 24789, Note_off_c, 11, 71, 64
24, 24956, Note_on_c, 11, 71, 89
24, 25503, Note_off_c, 11, 71, 64
24, 25520, Note_on_c, 11, 69, 70
24, 25625, Note_on_c, 11, 67, 68
24, 25634, Note_off_c, 11, 69, 64
24, 25751, Note_off_c, 11, 67, 64
24, 25753, Note_on_c, 11, 66, 64
24, 25860, Note_off_c, 11, 66, 64
24, 25886, Note_on_c, 11, 64, 82
24, 26009, Note_off_c, 11, 64, 64
24, 26136, Note_on_c, 11, 66, 68
24, 26266, Note_off_c, 11, 66, 64
24, 26382, Note_on_c, 11, 66, 72
24, 26516, Note_off_c, 11, 66, 64
24, 26618, Note_on_c, 11, 64, 76
24, 26712, Note_off_c, 11, 64, 64
24, 26865, Note_on_c, 11, 62, 80
24, 27336, Note_off_c, 11, 62, 64
24, 27826, Note_on_c, 11, 62, 68
24, 29160, Note_off_c, 11, 62, 64
24, 29253, Note_on_c, 11, 62, 82
24, 29385, Note_off_c, 11, 62, 64
24, 29505, Note_on_c, 11, 71, 82
24, 29622, Note_off_c, 11, 71, 64
24, 29754, Note_on_c, 11, 69, 82
24, 29884, Note_off_c, 11, 69, 64
24, 30005, Note_on_c, 11, 69, 82
24, 30133, Note_off_c, 11, 69, 64
24, 30237, Note_on_c, 11, 69, 82
24, 30356, Note_off_c, 11, 69, 64
24, 30462, Note_on_c, 11, 67, 78
24, 30578, Note_off_c, 11, 67, 64
24, 30708, Note_on_c, 11, 64, 78
24, 30895, Note_off_c, 11, 64, 64
24, 30948, Note_on_c, 11, 61, 68
24, 31069, Note_off_c, 11, 61, 64
24, 31180, Note_on_c, 11, 66, 82
24, 31288, Note_off_c, 11, 66, 64
24, 31296, Note_on_c, 11, 62, 66
24, 31345, Note_on_c, 11, 64, 70
24, 31358, Note_off_c, 11, 62, 64
24, 31412, Note_on_c, 11, 66, 85
24, 31416, Note_off_c, 11, 64, 64
24, 31528, Note_on_c, 11, 64, 59
24, 31536, Note_off_c, 11, 66, 64
24, 31588, Note_on_c, 11, 66, 61
24, 31599, Note_off_c, 11, 64, 64
24, 31645, Note_off_c, 11, 66, 64
24, 31662, Note_on_c, 11, 67, 68
24, 31938, Note_off_c, 11, 67, 64
24, 32133, Note_on_c, 11, 68, 72
24, 32249, Note_off_c, 11, 68, 64
24, 32251, Note_on_c, 11, 64, 59
24, 32294, Note_on_c, 11, 66, 64
24, 32314, Note_off_c, 11, 64, 64
24, 32345, Note_off_c, 11, 66, 64
24, 32360, Note_on_c, 11, 68, 63
24, 32485, Note_on_c, 11, 66, 68
24, 32491, Note_off_c, 11, 68, 64
24, 32544, Note_on_c, 11, 68, 66
24, 32560, Note_off_c, 11, 66, 64
24, 32614, Note_off_c, 11, 68, 64
24, 32614, Note_on_c, 11, 69, 74
24, 32874, Note_off_c, 11, 69, 64
24, 33096, Note_on_c, 11, 70, 82
24, 33216, Note_off_c, 11, 70, 64
24, 33216, Note_on_c, 11, 66, 64
24, 33260, Note_on_c, 11, 68, 55
24, 33282, Note_off_c, 11, 66, 64
24, 33326, Note_on_c, 11, 70, 78
24, 33339, Note_off_c, 11, 68, 64
24, 33438, Note_on_c, 11, 68, 54
24, 33451, Note_off_c, 11, 70, 64
24, 33501, Note_on_c, 11, 70, 53
24, 33516, Note_off_c, 11, 68, 64
24, 33557, Note_off_c, 11, 70, 64
24, 33564, Note_on_c, 11, 71, 72
24, 33845, Note_off_c, 11, 71, 64
24, 34052, Note_on_c, 11, 71, 82
24, 34169, Note_on_c, 11, 67, 66
24, 34170, Note_off_c, 11, 71, 64
24, 34222, Note_on_c, 11, 69, 63
24, 34239, Note_off_c, 11, 67, 64
24, 34280, Note_on_c, 11, 71, 80
24, 34291, Note_off_c, 11, 69, 64
24, 34404, Note_on_c, 11, 69, 63
24, 34420, Note_off_c, 11, 71, 64
24, 34467, Note_on_c, 11, 71, 66
24, 34477, Note_off_c, 11, 69, 64
24, 34528, Note_off_c, 11, 71, 64
24, 34536, Note_on_c, 11, 73, 80
24, 34925, Note_off_c, 11, 73, 64
24, 35028, Note_on_c, 11, 69, 74
24, 35140, Note_off_c, 11, 69, 64
24, 35261, Note_on_c, 11, 69, 80
24, 35369, Note_off_c, 11, 69, 64
24, 35509, Note_on_c, 11, 69, 87
24, 35863, Note_off_c, 11, 69, 64
24, 35986, Note_on_c, 11, 71, 80
24, 36103, Note_off_c, 11, 71, 64
24, 36213, Note_on_c, 11, 68, 68
24, 36296, Note_off_c, 11, 68, 64
24, 36474, Note_on_c, 11, 64, 82
24, 36936, Note_off_c, 11, 64, 64
24, 37190, Note_on_c, 11, 66, 62
24, 37371, Note_off_c, 11, 66, 64
24, 37663, Note_on_c, 11, 66, 80
24, 37820, Note_off_c, 11, 66, 64
24, 38133, Note_on_c, 11, 64, 89
24, 38210, Note_off_c, 11, 64, 64
24, 38237, Note_on_c, 11, 57, 80
24, 38292, Note_off_c, 11, 57, 64
24, 38386, Note_on_c, 11, 57, 78
24, 38705, Note_off_c, 11, 57, 64
24, 38874, Note_on_c, 11, 61, 78
24, 38984, Note_off_c, 11, 61, 64
24, 39125, Note_on_c, 11, 69, 85
24, 39233, Note_off_c, 11, 69, 64
24, 39361, Note_on_c, 11, 69, 85
24, 39741, Note_off_c, 11, 69, 64
24, 39822, Note_on_c, 11, 66, 63
24, 39924, Note_off_c, 11, 66, 64
24, 40055, Note_on_c, 11, 69, 70
24, 40147, Note_off_c, 11, 69, 64
24, 40312, Note_on_c, 11, 69, 85
24, 40792, Note_off_c, 11, 69, 64
24, 41028, Note_on_c, 11, 70, 59
24, 41221, Note_off_c, 11, 70, 64
24, 41503, Note_on_c, 11, 70, 68
24, 41696, Note_off_c, 11, 70, 64
24, 41973, Note_on_c, 11, 66, 78
24, 42070, Note_off_c, 11, 66, 64
24, 42223, Note_on_c, 11, 66, 80
24, 42530, Note_off_c, 11, 66, 64
24, 42692, Note_on_c, 11, 66, 63
24, 42820, Note_off_c, 11, 66, 64
24, 42941, Note_on_c, 11, 74, 68
24, 43031, Note_off_c, 11, 74, 64
24, 43186, Note_on_c, 11, 75, 68
24, 43540, Note_off_c, 11, 75, 64
24, 43656, Note_on_c, 11, 66, 66
24, 43754, Note_off_c, 11, 66, 64
24, 43894, Note_on_c, 11, 71, 82
24, 43979, Note_off_c, 11, 71, 64
24, 44148, Note_on_c, 11, 71, 85
24, 44722, Note_off_c, 11, 71, 64
24, 44739, Note_on_c, 11, 69, 82
24, 44847, Note_on_c, 11, 67, 68
24, 44870, Note_off_c, 11, 69, 64
24, 44966, Note_on_c, 11, 66, 63
24, 44973, Note_off_c, 11, 67, 64
24, 45050, Note_off_c, 11, 66, 64
24, 45098, Note_on_c, 11, 64, 78
24, 45231, Note_off_c, 11, 64, 64
24, 45340, Note_on_c, 11, 66, 64
24, 45500, Note_off_c, 11, 66, 64
24, 45583, Note_on_c, 11, 66, 74
24, 45712, Note_off_c, 11, 66, 64
24, 45824, Note_on_c, 11, 64, 76
24, 45923, Note_off_c, 11, 64, 64
24, 46071, Note_on_c, 11, 62, 64
24, 46559, Note_off_c, 11, 62, 64
24, 47020, Note_on_c, 11, 62, 78
24, 48363, Note_off_c, 11, 62, 64
24, 48455, Note_on_c, 11, 62, 85
24, 48584, Note_off_c, 11, 62, 64
24, 48701, Note_on_c, 11, 71, 87
24, 48840, Note_off_c, 11, 71, 64
24, 48950, Note_on_c, 11, 69, 80
24, 49079, Note_off_c, 11, 69, 64
24, 49191, Note_on_c, 11, 69, 82
24, 49328, Note_off_c, 11, 69, 64
24, 49424, Note_on_c, 11, 69, 80
24, 49553, Note_off_c, 11, 69, 64
24, 49656, Note_on_c, 11, 67, 76
24, 49787, Note_off_c, 11, 67, 64
24, 49893, Note_on_c, 11, 64, 80
24, 50064, Note_off_c, 11, 64, 64
24, 50141, Note_on_c, 11, 61, 68
24, 50247, Note_off_c, 11, 61, 64
24, 50365, Note_on_c, 11, 66, 82
24, 50479, Note_off_c, 11, 66, 64
24, 50492, Note_on_c, 11, 62, 68
24, 50539, Note_on_c, 11, 64, 68
24, 50552, Note_off_c, 11, 62, 64
24, 50602, Note_on_c, 11, 66, 80
24, 50611, Note_off_c, 11, 64, 64
24, 50717, Note_on_c, 11, 64, 60
24, 50724, Note_off_c, 11, 66, 64
24, 50774, Note_on_c, 11, 66, 66
24, 50785, Note_off_c, 11, 64, 64
24, 50830, Note_off_c, 11, 66, 64
24, 50841, Note_on_c, 11, 67, 70
24, 51112, Note_off_c, 11, 67, 64
24, 51325, Note_on_c, 11, 68, 70
24, 51455, Note_on_c, 11, 64, 68
24, 51458, Note_off_c, 11, 68, 64
24, 51502, Note_on_c, 11, 66, 64
24, 51517, Note_off_c, 11, 64, 64
24, 51557, Note_on_c, 11, 68, 76
24, 51564, Note_off_c, 11, 66, 64
24, 51682, Note_on_c, 11, 66, 64
24, 51693, Note_off_c, 11, 68, 64
24, 51739, Note_on_c, 11, 68, 59
24, 51747, Note_off_c, 11, 66, 64
24, 51793, Note_on_c, 11, 69, 78
24, 51797, Note_off_c, 11, 68, 64
24, 52060, Note_off_c, 11, 69, 64
24, 52290, Note_on_c, 11, 70, 80
24, 52422, Note_on_c, 11, 66, 63
24, 52426, Note_off_c, 11, 70, 64
24, 52462, Note_on_c, 11, 68, 55
24, 52483, Note_off_c, 11, 66, 64
24, 52525, Note_on_c, 11, 70, 80
24, 52526, Note_off_c, 11, 68, 64
24, 52650, Note_on_c, 11, 68, 53
24, 52658, Note_off_c, 11, 70, 64
24, 52704, Note_on_c, 11, 70, 60
24, 52721, Note_off_c, 11, 68, 64
24, 52762, Note_off_c, 11, 70, 64
24, 52772, Note_on_c, 11, 71, 76
24, 53055, Note_off_c, 11, 71, 64
24, 53252, Note_on_c, 11, 71, 82
24, 53374, Note_on_c, 11, 67, 72
24, 53377, Note_off_c, 11, 71, 64
24, 53421, Note_on_c, 11, 69, 61
24, 53440, Note_off_c, 11, 67, 64
24, 53481, Note_off_c, 11, 69, 64
24, 53482, Note_on_c, 11, 71, 68
24, 53614, Note_on_c, 11, 69, 57
24, 53628, Note_off_c, 11, 71, 64
24, 53671, Note_on_c, 11, 71, 63
24, 53681, Note_off_c, 11, 69, 64
24, 53728, Note_on_c, 11, 73, 72
24, 53729, Note_off_c, 11, 71, 64
24, 54132, Note_off_c, 11, 73, 64
24, 54229, Note_on_c, 11, 69, 74
24, 54339, Note_off_c, 11, 69, 64
24, 54460, Note_on_c, 11, 69, 82
24, 54564, Note_off_c, 11, 69, 64
24, 54717, Note_on_c, 11, 69, 85
24, 55063, Note_off_c, 11, 69, 64
24, 55194, Note_on_c, 11, 71, 82
24, 55315, Note_off_c, 11, 71, 64
24, 55424, Note_on_c, 11, 68, 66
24, 55529, Note_off_c, 11, 68, 64
24, 55670, Note_on_c, 11, 64, 74
24, 56136, Note_off_c, 11, 64, 64
24, 56392, Note_on_c, 11, 66, 70
24, 56576, Note_off_c, 11, 66, 64
24, 56873, Note_on_c, 11, 66, 82
24, 57044, Note_off_c, 11, 66, 64
24, 57342, Note_on_c, 11, 64, 87
24, 57424, Note_off_c, 11, 64, 64
24, 57445, Note_on_c, 11, 57, 76
24, 57511, Note_off_c, 11, 57, 64
24, 57592, Note_on_c, 11, 57, 85
24, 57995, Note_off_c, 11, 57, 64
24, 57995, End_track
25, 0, Start_track
25, 0, Title_t, "Cello"
25, 0, Program_c, 12, 42
25, 0, Control_c, 12, 7, 100
25, 19672, Note_on_c, 12, 57, 82
25, 19795, Note_on_c, 12, 55, 72
25, 19815, Note_off_c, 12, 57, 64
25, 19918, Note_on_c, 12, 54, 63
25, 19930, Note_off_c, 12, 55, 64
25, 20037, Note_on_c, 12, 52, 64
25, 20050, Note_off_c, 12, 54, 64
25, 20128, Note_off_c, 12, 52, 64
25, 20176, Note_on_c, 12, 54, 85
25, 20515, Note_off_c, 12, 54, 64
25, 20629, Note_on_c, 12, 54, 93
25, 20735, Note_on_c, 12, 52, 68
25, 20764, Note_off_c, 12, 54, 64
25, 20855, Note_on_c, 12, 50, 66
25, 20857, Note_off_c, 12, 52, 64
25, 20962, Note_on_c, 12, 49, 82
25, 20977, Note_off_c, 12, 50, 64
25, 21059, Note_off_c, 12, 49, 64
25, 21085, Note_on_c, 12, 50, 70
25, 21405, Note_off_c, 12, 50, 64
25, 21586, Note_on_c, 12, 49, 93
25, 21682, Note_on_c, 12, 46, 58
25, 21695, Note_off_c, 12, 49, 64
25, 21733, Note_on_c, 12, 47, 82
25, 21753, Note_off_c, 12, 46, 64
25, 21797, Note_off_c, 12, 47, 64
25, 21804, Note_on_c, 12, 49, 100
25, 21919, Note_off_c, 12, 49, 64
25, 21929, Note_on_c, 12, 50, 68
25, 21984, Note_on_c, 12, 52, 85
25, 21992, Note_off_c, 12, 50, 64
25, 22024, Note_off_c, 12, 52, 64
25, 22048, Note_on_c, 12, 54, 100
25, 22190, Note_on_c, 12, 50, 70
25, 22193, Note_off_c, 12, 54, 64
25, 22226, Note_on_c, 12, 52, 70
25, 22246, Note_off_c, 12, 50, 64
25, 22276, Note_off_c, 12, 52, 64
25, 22286, Note_on_c, 12, 54, 82
25, 22397, Note_on_c, 12, 56, 59
25, 22407, Note_off_c, 12, 54, 64
25, 22457, Note_on_c, 12, 58, 70
25, 22466, Note_off_c, 12, 56, 64
25, 22507, Note_off_c, 12, 58, 64
25, 22527, Note_on_c, 12, 59, 68
25, 22718, Note_off_c, 12, 59, 64
25, 22781, Note_on_c, 12, 50, 66
25, 22887, Note_on_c, 12, 52, 66
25, 22893, Note_off_c, 12, 50, 64
25, 22966, Note_off_c, 12, 52, 64
25, 23018, Note_on_c, 12, 54, 76
25, 23392, Note_off_c, 12, 54, 64
25, 23505, Note_on_c, 12, 52, 82
25, 23609, Note_on_c, 12, 50, 70
25, 23613, Note_off_c, 12, 52, 64
25, 23684, Note_off_c, 12, 50, 64
25, 23739, Note_on_c, 12, 49, 78
25, 23843, Note_on_c, 12, 47, 68
25, 23844, Note_off_c, 12, 49, 64
25, 23945, Note_off_c, 12, 47, 64
25, 23990, Note_on_c, 12, 57, 85
25, 24304, Note_off_c, 12, 57, 64
25, 24456, Note_on_c, 12, 52, 85
25, 24569, Note_on_c, 12, 51, 78
25, 24580, Note_off_c, 12, 52, 64
25, 24649, Note_off_c, 12, 51, 64
25, 24693, Note_on_c, 12, 49, 87
25, 24798, Note_on_c, 12, 47, 78
25, 24806, Note_off_c, 12, 49, 64
25, 24872, Note_off_c, 12, 47, 64
25, 24945, Note_on_c, 12, 52, 87
25, 25227, Note_off_c, 12, 52, 64
25, 25423, Note_on_c, 12, 55, 76
25, 25535, Note_on_c, 12, 54, 80
25, 25539, Note_off_c, 12, 55, 64
25, 25599, Note_off_c, 12, 54, 64
25, 25658, Note_on_c, 12, 52, 85
25, 25761, Note_off_c, 12, 52, 64
25, 25761, Note_on_c, 12, 50, 64
25, 25849, Note_off_c, 12, 50, 64
25, 25892, Note_on_c, 12, 49, 80
25, 26007, Note_off_c, 12, 49, 64
25, 26140, Note_on_c, 12, 47, 74
25, 26257, Note_off_c, 12, 47, 64
25, 26384, Note_on_c, 12, 54, 85
25, 26482, Note_off_c, 12, 54, 64
25, 26636, Note_on_c, 12, 42, 63
25, 26730, Note_off_c, 12, 42, 64
25, 26867, Note_on_c, 12, 47, 78
25, 27199, Note_off_c, 12, 47, 64
25, 27351, Note_on_c, 12, 50, 87
25, 27461, Note_off_c, 12, 50, 64
25, 27588, Note_on_c, 12, 38, 85
25, 27733, Note_off_c, 12, 38, 64
25, 28310, Note_on_c, 12, 50, 82
25, 28416, Note_off_c, 12, 50, 64
25, 28544, Note_on_c, 12, 38, 100
25, 28678, Note_off_c, 12, 38, 64
25, 29251, Note_on_c, 12, 55, 82
25, 29355, Note_on_c, 12, 54, 72
25, 29376, Note_off_c, 12, 55, 64
25, 29422, Note_off_c, 12, 54, 64
25, 29486, Note_on_c, 12, 52, 82
25, 29586, Note_off_c, 12, 52, 64
25, 29594, Note_on_c, 12, 50, 66
25, 29672, Note_off_c, 12, 50, 64
25, 29738, Note_on_c, 12, 49, 82
25, 29854, Note_off_c, 12, 49, 64
25, 29983, Note_on_c, 12, 45, 87
25, 30110, Note_off_c, 12, 45, 64
25, 30228, Note_on_c, 12, 50, 85
25, 30341, Note_off_c, 12, 50, 64
25, 30461, Note_on_c, 12, 43, 85
25, 30563, Note_off_c, 12, 43, 64
25, 30705, Note_on_c, 12, 45, 76
25, 31044, Note_off_c, 12, 45, 64
25, 31658, Note_on_c, 12, 55, 74
25, 31764, Note_off_c, 12, 55, 64
25, 31903, Note_on_c, 12, 43, 72
25, 32045, Note_off_c, 12, 43, 64
25, 32628, Note_on_c, 12, 57, 76
25, 32736, Note_off_c, 12, 57, 64
25, 32870, Note_on_c, 12, 45, 76
25, 33003, Note_off_c, 12, 45, 64
25, 33564, Note_on_c, 12, 59, 82
25, 33682, Note_off_c, 12, 59, 64
25, 33813, Note_on_c, 12, 47, 78
25, 33959, Note_off_c, 12, 47, 64
25, 34544, Note_on_c, 12, 55, 82
25, 34858, Note_off_c, 12, 55, 64
25, 35034, Note_on_c, 12, 55, 85
25, 35147, Note_on_c, 12, 54, 68
25, 35173, Note_off_c, 12, 55, 64
25, 35222, Note_off_c, 12, 54, 64
25, 35272, Note_on_c, 12, 52, 85
25, 35370, Note_off_c, 12, 52, 64
25, 35374, Note_on_c, 12, 50, 82
25, 35464, Note_off_c, 12, 50, 64
25, 35517, Note_on_c, 12, 57, 98
25, 35811, Note_off_c, 12, 57, 64
25, 35984, Note_on_c, 12, 57, 82
25, 36104, Note_off_c, 12, 57, 64
25, 36104, Note_on_c, 12, 56, 82
25, 36177, Note_off_c, 12, 56, 64
25, 36226, Note_on_c, 12, 54, 89
25, 36320, Note_off_c, 12, 54, 64
25, 36334, Note_on_c, 12, 52, 76
25, 36421, Note_off_c, 12, 52, 64
25, 36466, Note_on_c, 12, 57, 93
25, 36787, Note_off_c, 12, 57, 64
25, 36955, Note_on_c, 12, 54, 95
25, 37068, Note_off_c, 12, 54, 64
25, 37076, Note_on_c, 12, 50, 63
25, 37120, Note_on_c, 12, 52, 82
25, 37143, Note_off_c, 12, 50, 64
25, 37168, Note_off_c, 12, 52, 64
25, 37194, Note_on_c, 12, 54, 100
25, 37299, Note_off_c, 12, 54, 64
25, 37311, Note_on_c, 12, 52, 66
25, 37357, Note_on_c, 12, 54, 74
25, 37377, Note_off_c, 12, 52, 64
25, 37408, Note_off_c, 12, 54, 64
25, 37433, Note_on_c, 12, 55, 91
25, 37545, Note_off_c, 12, 55, 64
25, 37554, Note_on_c, 12, 52, 68
25, 37595, Note_on_c, 12, 54, 64
25, 37617, Note_off_c, 12, 52, 64
25, 37658, Note_off_c, 12, 54, 64
25, 37667, Note_on_c, 12, 55, 82
25, 37757, Note_off_c, 12, 55, 64
25, 37791, Note_on_c, 12, 54, 80
25, 37839, Note_on_c, 12, 55, 72
25, 37861, Note_off_c, 12, 54, 64
25, 37906, Note_off_c, 12, 55, 64
25, 37916, Note_on_c, 12, 57, 76
25, 38047, Note_off_c, 12, 57, 64
25, 38151, Note_on_c, 12, 45, 91
25, 38256, Note_off_c, 12, 45, 64
25, 38390, Note_on_c, 12, 38, 80
25, 38746, Note_off_c, 12, 38, 64
25, 38873, Note_on_c, 12, 57, 87
25, 38987, Note_on_c, 12, 55, 85
25, 39016, Note_off_c, 12, 57, 64
25, 39105, Note_off_c, 12, 55, 64
25, 39115, Note_on_c, 12, 54, 63
25, 39232, Note_on_c, 12, 52, 76
25, 39242, Note_off_c, 12, 54, 64
25, 39309, Note_off_c, 12, 52, 64
25, 39367, Note_on_c, 12, 54, 89
25, 39699, Note_off_c, 12, 54, 64
25, 39832, Note_on_c, 12, 54, 95
25, 39944, Note_on_c, 12, 52, 78
25, 39969, Note_off_c, 12, 54, 64
25, 40063, Note_off_c, 12, 52, 64
25, 40072, Note_on_c, 12, 50, 64
25, 40172, Note_on_c, 12, 49, 72
25, 40184, Note_off_c, 12, 50, 64
25, 40246, Note_off_c, 12, 49, 64
25, 40297, Note_on_c, 12, 50, 85
25, 40641, Note_off_c, 12, 50, 64
25, 40796, Note_on_c, 12, 49, 89
25, 40905, Note_on_c, 12, 46, 60
25, 40906, Note_off_c, 12, 49, 64
25, 40948, Note_on_c, 12, 47, 80
25, 40975, Note_off_c, 12, 46, 64
25, 41010, Note_off_c, 12, 47, 64
25, 41018, Note_on_c, 12, 49, 93
25, 41135, Note_off_c, 12, 49, 64
25, 41141, Note_on_c, 12, 50, 70
25, 41196, Note_on_c, 12, 52, 85
25, 41209, Note_off_c, 12, 50, 64
25, 41250, Note_off_c, 12, 52, 64
25, 41262, Note_on_c, 12, 54, 89
25, 41386, Note_off_c, 12, 54, 64
25, 41386, Note_on_c, 12, 50, 68
25, 41415, Note_on_c, 12, 52, 70
25, 41441, Note_off_c, 12, 50, 64
25, 41476, Note_off_c, 12, 52, 64
25, 41492, Note_on_c, 12, 54, 82
25, 41602, Note_on_c, 12, 56, 56
25, 41613, Note_off_c, 12, 54, 64
25, 41657, Note_on_c, 12, 58, 70
25, 41682, Note_off_c, 12, 56, 64
25, 41706, Note_off_c, 12, 58, 64
25, 41723, Note_on_c, 12, 59, 82
25, 41907, Note_off_c, 12, 59, 64
25, 41991, Note_on_c, 12, 50, 80
25, 42089, Note_off_c, 12, 50, 64
25, 42094, Note_on_c, 12, 52, 63
25, 42171, Note_off_c, 12, 52, 64
25, 42225, Note_on_c, 12, 54, 89
25, 42621, Note_off_c, 12, 54, 64
25, 42706, Note_on_c, 12, 52, 85
25, 42803, Note_off_c, 12, 52, 64
25, 42812, Note_on_c, 12, 50, 68
25, 42886, Note_off_c, 12, 50, 64
25, 42932, Note_on_c, 12, 49, 82
25, 43032, Note_off_c, 12, 49, 64
25, 43036, Note_on_c, 12, 47, 62
25, 43135, Note_off_c, 12, 47, 64
25, 43194, Note_on_c, 12, 57, 85
25, 43489, Note_off_c, 12, 57, 64
25, 43673, Note_on_c, 12, 52, 82
25, 43789, Note_on_c, 12, 51, 76
25, 43800, Note_off_c, 12, 52, 64
25, 43860, Note_off_c, 12, 51, 64
25, 43911, Note_on_c, 12, 49, 87
25, 44012, Note_on_c, 12, 47, 68
25, 44026, Note_off_c, 12, 49, 64
25, 44089, Note_off_c, 12, 47, 64
25, 44149, Note_on_c, 12, 52, 85
25, 44437, Note_off_c, 12, 52, 64
25, 44633, Note_on_c, 12, 55, 80
25, 44745, Note_off_c, 12, 55, 64
25, 44750, Note_on_c, 12, 54, 85
25, 44820, Note_off_c, 12, 54, 64
25, 44874, Note_on_c, 12, 52, 87
25, 44970, Note_off_c, 12, 52, 64
25, 44974, Note_on_c, 12, 50, 64
25, 45052, Note_off_c, 12, 50, 64
25, 45098, Note_on_c, 12, 49, 72
25, 45219, Note_off_c, 12, 49, 64
25, 45353, Note_on_c, 12, 47, 78
25, 45456, Note_off_c, 12, 47, 64
25, 45593, Note_on_c, 12, 54, 78
25, 45700, Note_off_c, 12, 54, 64
25, 45844, Note_on_c, 12, 42, 87
25, 45953, Note_off_c, 12, 42, 64
25, 46079, Note_on_c, 12, 47, 78
25, 46433, Note_off_c, 12, 47, 64
25, 46555, Note_on_c, 12, 50, 85
25, 46672, Note_off_c, 12, 50, 64
25, 46794, Note_on_c, 12, 38, 85
25, 46915, Note_off_c, 12, 38, 64
25, 47509, Note_on_c, 12, 50, 76
25, 47618, Note_off_c, 12, 50, 64
25, 47746, Note_on_c, 12, 38, 87
25, 47867, Note_off_c, 12, 38, 64
25, 48478, Note_on_c, 12, 55, 85
25, 48574, Note_off_c, 12, 55, 64
25, 48586, Note_on_c, 12, 54, 78
25, 48666, Note_off_c, 12, 54, 64
25, 48707, Note_on_c, 12, 52, 82
25, 48809, Note_off_c, 12, 52, 64
25, 48822, Note_on_c, 12, 50, 72
25, 48908, Note_off_c, 12, 50, 64
25, 48951, Note_on_c, 12, 49, 82
25, 49053, Note_off_c, 12, 49, 64
25, 49188, Note_on_c, 12, 45, 85
25, 49299, Note_off_c, 12, 45, 64
25, 49427, Note_on_c, 12, 50, 87
25, 49537, Note_off_c, 12, 50, 64
25, 49665, Note_on_c, 12, 43, 85
25, 49771, Note_off_c, 12, 43, 64
25, 49919, Note_on_c, 12, 45, 76
25, 50392, Note_off_c, 12, 45, 64
25, 50869, Note_on_c, 12, 55, 82
25, 50966, Note_off_c, 12, 55, 64
25, 51107, Note_on_c, 12, 43, 85
25, 51207, Note_off_c, 12, 43, 64
25, 51815, Note_on_c, 12, 57, 82
25, 51914, Note_off_c, 12, 57, 64
25, 52050, Note_on_c, 12, 45, 85
25, 52159, Note_off_c, 12, 45, 64
25, 52776, Note_on_c, 12, 59, 82
25, 52880, Note_off_c, 12, 59, 64
25, 53028, Note_on_c, 12, 47, 70
25, 53141, Note_off_c, 12, 47, 64
25, 53747, Note_on_c, 12, 55, 82
25, 54069, Note_off_c, 12, 55, 64
25, 54227, Note_on_c, 12, 55, 82
25, 54338, Note_on_c, 12, 54, 72
25, 54360, Note_off_c, 12, 55, 64
25, 54416, Note_off_c, 12, 54, 64
25, 54467, Note_on_c, 12, 52, 82
25, 54556, Note_off_c, 12, 52, 64
25, 54571, Note_on_c, 12, 50, 82
25, 54665, Note_off_c, 12, 50, 64
25, 54708, Note_on_c, 12, 57, 93
25, 55030, Note_off_c, 12, 57, 64
25, 55189, Note_on_c, 12, 57, 80
25, 55302, Note_on_c, 12, 56, 80
25, 55317, Note_off_c, 12, 57, 64
25, 55366, Note_off_c, 12, 56, 64
25, 55427, Note_on_c, 12, 54, 91
25, 55529, Note_on_c, 12, 52, 78
25, 55540, Note_off_c, 12, 54, 64
25, 55612, Note_off_c, 12, 52, 64
25, 55670, Note_on_c, 12, 57, 85
25, 55984, Note_off_c, 12, 57, 64
25, 56166, Note_on_c, 12, 54, 95
25, 56273, Note_off_c, 12, 54, 64
25, 56277, Note_on_c, 12, 50, 68
25, 56325, Note_on_c, 12, 52, 78
25, 56343, Note_off_c, 12, 50, 64
25, 56377, Note_off_c, 12, 52, 64
25, 56397, Note_on_c, 12, 54, 98
25, 56502, Note_off_c, 12, 54, 64
25, 56518, Note_on_c, 12, 52, 64
25, 56561, Note_on_c, 12, 54, 68
25, 56580, Note_off_c, 12, 52, 64
25, 56613, Note_off_c, 12, 54, 64
25, 56638, Note_on_c, 12, 55, 89
25, 56746, Note_off_c, 12, 55, 64
25, 56756, Note_on_c, 12, 52, 64
25, 56804, Note_on_c, 12, 54, 82
25, 56823, Note_off_c, 12, 52, 64
25, 56862, Note_off_c, 12, 54, 64
25, 56880, Note_on_c, 12, 55, 89
25, 56976, Note_off_c, 12, 55, 64
25, 56991, Note_on_c, 12, 54, 82
25, 57038, Note_on_c, 12, 55, 74
25, 57062, Note_off_c, 12, 54, 64
25, 57103, Note_off_c, 12, 55, 64
25, 57117, Note_on_c, 12, 57, 85
25, 57247, Note_off_c, 12, 57, 64
25, 57351, Note_on_c, 12, 45, 87
25, 57460, Note_off_c, 12, 45, 64
25, 57588, Note_on_c, 12, 38, 80
25, 57963, Note_off_c, 12, 38, 64
25, 57963, End_track
0, 0, End_of_file
