0, 0, Header, 1, 9, 120
1, 0, Start_track
1, 0, Text_t, "\015\012\015\012Mass in B Minor          Johann Sebastion Bach\015\012No. 9 Aria, Qui sedes\015\012\015\012seq by David Siu  dss@po.cwru.edu\015\012\015\012\015\012"
1, 0, Time_signature, 6, 3, 12, 8
1, 0, Key_signature, 2, "major"
1, 0, Tempo, 895522
1, 26586, Tempo, 1333333
1, 26946, Tempo, 895522
1, 29586, Tempo, 1000000
1, 29719, Tempo, 895522
1, 30651, Tempo, 1000000
1, 30845, Tempo, 1153846
1, 30934, Tempo, 1621622
1, 31100, Tempo, 1153846
1, 31680, End_track
2, 0, Start_track
2, 0, MIDI_port, 0
2, 0, Title_t, "Instrument  1"
2, 0, Program_c, 0, 68
2, 31680, End_track
3, 0, Start_track
3, 0, MIDI_port, 0
3, 0, Title_t, "Oboe d'amore"
3, 0, Program_c, 0, 68
3, 270, Note_on_c, 0, 71, 75
3, 300, Note_on_c, 0, 71, 0
3, 300, Note_on_c, 0, 70, 75
3, 330, Note_on_c, 0, 70, 0
3, 330, Note_on_c, 0, 71, 75
3, 360, Note_on_c, 0, 71, 0
3, 360, Note_on_c, 0, 66, 75
3, 630, Note_on_c, 0, 66, 0
3, 630, Note_on_c, 0, 73, 75
3, 660, Note_on_c, 0, 73, 0
3, 660, Note_on_c, 0, 71, 75
3, 690, Note_on_c, 0, 71, 0
3, 690, Note_on_c, 0, 73, 75
3, 720, Note_on_c, 0, 73, 0
3, 720, Note_on_c, 0, 66, 75
3, 990, Note_on_c, 0, 66, 0
3, 990, Note_on_c, 0, 70, 75
3, 1020, Note_on_c, 0, 70, 0
3, 1020, Note_on_c, 0, 73, 75
3, 1050, Note_on_c, 0, 73, 0
3, 1050, Note_on_c, 0, 76, 75
3, 1080, Note_on_c, 0, 76, 0
3, 1080, Note_on_c, 0, 74, 75
3, 1140, Note_on_c, 0, 74, 0
3, 1140, Note_on_c, 0, 73, 75
3, 1170, Note_on_c, 0, 73, 0
3, 1200, Note_on_c, 0, 71, 75
3, 1320, Note_on_c, 0, 71, 0
3, 1320, Note_on_c, 0, 69, 75
3, 1380, Note_on_c, 0, 69, 0
3, 1380, Note_on_c, 0, 67, 75
3, 1410, Note_on_c, 0, 67, 0
3, 1440, Note_on_c, 0, 66, 75
3, 1455, Note_on_c, 0, 66, 0
3, 1455, Note_on_c, 0, 67, 75
3, 1470, Note_on_c, 0, 67, 0
3, 1470, Note_on_c, 0, 66, 75
3, 1485, Note_on_c, 0, 66, 0
3, 1500, Note_on_c, 0, 64, 75
3, 1530, Note_on_c, 0, 64, 0
3, 1710, Note_on_c, 0, 69, 75
3, 1740, Note_on_c, 0, 69, 0
3, 1740, Note_on_c, 0, 67, 88
3, 1770, Note_on_c, 0, 67, 0
3, 1770, Note_on_c, 0, 69, 88
3, 1800, Note_on_c, 0, 69, 0
3, 1800, Note_on_c, 0, 78, 88
3, 2070, Note_on_c, 0, 78, 0
3, 2070, Note_on_c, 0, 71, 88
3, 2100, Note_on_c, 0, 71, 0
3, 2100, Note_on_c, 0, 69, 88
3, 2130, Note_on_c, 0, 69, 0
3, 2130, Note_on_c, 0, 71, 88
3, 2160, Note_on_c, 0, 71, 0
3, 2160, Note_on_c, 0, 79, 88
3, 2430, Note_on_c, 0, 79, 0
3, 2430, Note_on_c, 0, 73, 88
3, 2460, Note_on_c, 0, 73, 0
3, 2460, Note_on_c, 0, 71, 88
3, 2490, Note_on_c, 0, 71, 0
3, 2490, Note_on_c, 0, 73, 88
3, 2520, Note_on_c, 0, 73, 0
3, 2520, Note_on_c, 0, 81, 88
3, 2580, Note_on_c, 0, 81, 0
3, 2580, Note_on_c, 0, 78, 88
3, 2610, Note_on_c, 0, 78, 0
3, 2640, Note_on_c, 0, 75, 88
3, 2760, Note_on_c, 0, 75, 0
3, 2760, Note_on_c, 0, 76, 88
3, 2820, Note_on_c, 0, 76, 0
3, 2820, Note_on_c, 0, 78, 88
3, 2850, Note_on_c, 0, 78, 0
3, 2880, Note_on_c, 0, 79, 88
3, 2910, Note_on_c, 0, 79, 0
3, 2910, Note_on_c, 0, 78, 88
3, 2940, Note_on_c, 0, 78, 0
3, 2940, Note_on_c, 0, 76, 88
3, 2970, Note_on_c, 0, 76, 0
3, 2970, Note_on_c, 0, 74, 88
3, 3000, Note_on_c, 0, 74, 0
3, 3000, Note_on_c, 0, 73, 88
3, 3030, Note_on_c, 0, 73, 0
3, 3030, Note_on_c, 0, 71, 88
3, 3060, Note_on_c, 0, 71, 0
3, 3060, Note_on_c, 0, 73, 88
3, 3090, Note_on_c, 0, 73, 0
3, 3090, Note_on_c, 0, 76, 88
3, 3105, Note_on_c, 0, 76, 0
3, 3120, Note_on_c, 0, 74, 88
3, 3150, Note_on_c, 0, 74, 0
3, 3150, Note_on_c, 0, 78, 88
3, 3165, Note_on_c, 0, 78, 0
3, 3180, Note_on_c, 0, 76, 88
3, 3210, Note_on_c, 0, 76, 0
3, 3210, Note_on_c, 0, 79, 88
3, 3225, Note_on_c, 0, 79, 0
3, 3240, Note_on_c, 0, 78, 88
3, 3270, Note_on_c, 0, 78, 0
3, 3270, Note_on_c, 0, 76, 88
3, 3300, Note_on_c, 0, 76, 0
3, 3300, Note_on_c, 0, 74, 88
3, 3330, Note_on_c, 0, 74, 0
3, 3330, Note_on_c, 0, 73, 88
3, 3360, Note_on_c, 0, 73, 0
3, 3360, Note_on_c, 0, 71, 88
3, 3390, Note_on_c, 0, 71, 0
3, 3390, Note_on_c, 0, 70, 88
3, 3420, Note_on_c, 0, 70, 0
3, 3420, Note_on_c, 0, 71, 88
3, 3450, Note_on_c, 0, 71, 0
3, 3450, Note_on_c, 0, 74, 88
3, 3465, Note_on_c, 0, 74, 0
3, 3480, Note_on_c, 0, 73, 88
3, 3510, Note_on_c, 0, 73, 0
3, 3510, Note_on_c, 0, 76, 88
3, 3525, Note_on_c, 0, 76, 0
3, 3540, Note_on_c, 0, 74, 88
3, 3570, Note_on_c, 0, 74, 0
3, 3570, Note_on_c, 0, 78, 88
3, 3585, Note_on_c, 0, 78, 0
3, 3600, Note_on_c, 0, 76, 88
3, 3870, Note_on_c, 0, 76, 0
3, 3870, Note_on_c, 0, 67, 88
3, 3900, Note_on_c, 0, 67, 0
3, 3900, Note_on_c, 0, 66, 88
3, 3930, Note_on_c, 0, 66, 0
3, 3930, Note_on_c, 0, 64, 88
3, 3960, Note_on_c, 0, 64, 0
3, 3960, Note_on_c, 0, 66, 88
3, 3990, Note_on_c, 0, 66, 0
3, 3990, Note_on_c, 0, 68, 88
3, 4020, Note_on_c, 0, 68, 0
3, 4020, Note_on_c, 0, 70, 88
3, 4050, Note_on_c, 0, 70, 0
3, 4050, Note_on_c, 0, 71, 88
3, 4080, Note_on_c, 0, 71, 0
3, 4080, Note_on_c, 0, 73, 88
3, 4110, Note_on_c, 0, 73, 0
3, 4110, Note_on_c, 0, 74, 88
3, 4140, Note_on_c, 0, 74, 0
3, 4140, Note_on_c, 0, 76, 88
3, 4170, Note_on_c, 0, 76, 0
3, 4170, Note_on_c, 0, 79, 88
3, 4200, Note_on_c, 0, 79, 0
3, 4200, Note_on_c, 0, 78, 88
3, 4230, Note_on_c, 0, 78, 0
3, 4230, Note_on_c, 0, 76, 88
3, 4260, Note_on_c, 0, 76, 0
3, 4260, Note_on_c, 0, 74, 88
3, 4290, Note_on_c, 0, 74, 0
3, 4290, Note_on_c, 0, 73, 88
3, 4320, Note_on_c, 0, 73, 0
3, 4320, Note_on_c, 0, 74, 94
3, 4350, Note_on_c, 0, 74, 0
3, 4350, Note_on_c, 0, 73, 93
3, 4365, Note_on_c, 0, 73, 0
3, 4380, Note_on_c, 0, 76, 93
3, 4410, Note_on_c, 0, 76, 0
3, 4410, Note_on_c, 0, 74, 92
3, 4440, Note_on_c, 0, 74, 0
3, 4440, Note_on_c, 0, 73, 92
3, 4470, Note_on_c, 0, 73, 0
3, 4470, Note_on_c, 0, 71, 91
3, 4500, Note_on_c, 0, 71, 0
3, 4500, Note_on_c, 0, 73, 91
3, 4530, Note_on_c, 0, 73, 0
3, 4530, Note_on_c, 0, 71, 90
3, 4545, Note_on_c, 0, 71, 0
3, 4560, Note_on_c, 0, 74, 90
3, 4590, Note_on_c, 0, 74, 0
3, 4590, Note_on_c, 0, 73, 89
3, 4620, Note_on_c, 0, 73, 0
3, 4620, Note_on_c, 0, 71, 89
3, 4650, Note_on_c, 0, 71, 0
3, 4650, Note_on_c, 0, 70, 88
3, 4680, Note_on_c, 0, 70, 0
3, 4680, Note_on_c, 0, 71, 75
3, 4890, Note_on_c, 0, 71, 0
3, 4890, Note_on_c, 0, 70, 75
3, 4920, Note_on_c, 0, 70, 0
3, 4920, Note_on_c, 0, 71, 75
3, 4950, Note_on_c, 0, 71, 0
3, 4950, Note_on_c, 0, 67, 75
3, 4980, Note_on_c, 0, 67, 0
3, 4980, Note_on_c, 0, 66, 75
3, 5010, Note_on_c, 0, 66, 0
3, 5010, Note_on_c, 0, 64, 75
3, 5040, Note_on_c, 0, 64, 0
3, 5040, Note_on_c, 0, 71, 75
3, 5070, Note_on_c, 0, 71, 0
3, 5070, Note_on_c, 0, 70, 75
3, 5100, Note_on_c, 0, 70, 0
3, 5100, Note_on_c, 0, 71, 75
3, 5130, Note_on_c, 0, 71, 0
3, 5130, Note_on_c, 0, 66, 75
3, 5160, Note_on_c, 0, 66, 0
3, 5160, Note_on_c, 0, 64, 75
3, 5190, Note_on_c, 0, 64, 0
3, 5190, Note_on_c, 0, 62, 75
3, 5220, Note_on_c, 0, 62, 0
3, 5220, Note_on_c, 0, 71, 75
3, 5250, Note_on_c, 0, 71, 0
3, 5250, Note_on_c, 0, 70, 75
3, 5280, Note_on_c, 0, 70, 0
3, 5280, Note_on_c, 0, 71, 75
3, 5310, Note_on_c, 0, 71, 0
3, 5310, Note_on_c, 0, 64, 75
3, 5340, Note_on_c, 0, 64, 0
3, 5340, Note_on_c, 0, 62, 75
3, 5370, Note_on_c, 0, 62, 0
3, 5370, Note_on_c, 0, 61, 75
3, 5400, Note_on_c, 0, 61, 0
3, 5400, Note_on_c, 0, 71, 75
3, 5430, Note_on_c, 0, 71, 0
3, 5430, Note_on_c, 0, 70, 75
3, 5460, Note_on_c, 0, 70, 0
3, 5460, Note_on_c, 0, 71, 75
3, 5490, Note_on_c, 0, 71, 0
3, 5490, Note_on_c, 0, 62, 75
3, 5520, Note_on_c, 0, 62, 0
3, 5520, Note_on_c, 0, 61, 75
3, 5550, Note_on_c, 0, 61, 0
3, 5550, Note_on_c, 0, 59, 75
3, 5580, Note_on_c, 0, 59, 0
3, 5580, Note_on_c, 0, 69, 75
3, 5610, Note_on_c, 0, 69, 0
3, 5610, Note_on_c, 0, 67, 75
3, 5640, Note_on_c, 0, 67, 0
3, 5640, Note_on_c, 0, 66, 75
3, 5670, Note_on_c, 0, 66, 0
3, 5670, Note_on_c, 0, 64, 75
3, 5700, Note_on_c, 0, 64, 0
3, 5700, Note_on_c, 0, 76, 75
3, 5790, Note_on_c, 0, 76, 0
3, 5820, Note_on_c, 0, 70, 75
3, 5850, Note_on_c, 0, 70, 0
3, 6030, Note_on_c, 0, 66, 75
3, 6060, Note_on_c, 0, 66, 0
3, 6060, Note_on_c, 0, 70, 88
3, 6090, Note_on_c, 0, 70, 0
3, 6090, Note_on_c, 0, 73, 88
3, 6120, Note_on_c, 0, 73, 0
3, 6120, Note_on_c, 0, 78, 88
3, 6150, Note_on_c, 0, 78, 0
3, 6150, Note_on_c, 0, 76, 88
3, 6180, Note_on_c, 0, 76, 0
3, 6180, Note_on_c, 0, 79, 88
3, 6210, Note_on_c, 0, 79, 0
3, 6210, Note_on_c, 0, 78, 88
3, 6240, Note_on_c, 0, 78, 0
3, 6240, Note_on_c, 0, 76, 88
3, 6270, Note_on_c, 0, 76, 0
3, 6270, Note_on_c, 0, 74, 88
3, 6300, Note_on_c, 0, 74, 0
3, 6300, Note_on_c, 0, 73, 88
3, 6330, Note_on_c, 0, 73, 0
3, 6330, Note_on_c, 0, 71, 88
3, 6360, Note_on_c, 0, 71, 0
3, 6360, Note_on_c, 0, 74, 88
3, 6390, Note_on_c, 0, 74, 0
3, 6390, Note_on_c, 0, 73, 88
3, 6420, Note_on_c, 0, 73, 0
3, 6420, Note_on_c, 0, 71, 88
3, 6450, Note_on_c, 0, 71, 0
3, 6450, Note_on_c, 0, 70, 88
3, 6480, Note_on_c, 0, 70, 0
3, 6480, Note_on_c, 0, 71, 88
3, 6780, Note_on_c, 0, 71, 0
3, 6930, Note_on_c, 0, 71, 49
3, 6960, Note_on_c, 0, 71, 0
3, 6960, Note_on_c, 0, 70, 49
3, 6990, Note_on_c, 0, 70, 0
3, 6990, Note_on_c, 0, 71, 49
3, 7020, Note_on_c, 0, 71, 0
3, 7020, Note_on_c, 0, 66, 49
3, 7140, Note_on_c, 0, 66, 0
3, 7290, Note_on_c, 0, 73, 49
3, 7320, Note_on_c, 0, 73, 0
3, 7320, Note_on_c, 0, 71, 49
3, 7350, Note_on_c, 0, 71, 0
3, 7350, Note_on_c, 0, 73, 49
3, 7380, Note_on_c, 0, 73, 0
3, 7380, Note_on_c, 0, 66, 49
3, 7470, Note_on_c, 0, 66, 0
3, 7470, Note_on_c, 0, 70, 49
3, 7500, Note_on_c, 0, 70, 0
3, 7500, Note_on_c, 0, 73, 49
3, 7530, Note_on_c, 0, 73, 0
3, 7530, Note_on_c, 0, 76, 49
3, 7560, Note_on_c, 0, 76, 0
3, 7560, Note_on_c, 0, 74, 49
3, 7620, Note_on_c, 0, 74, 0
3, 7620, Note_on_c, 0, 73, 49
3, 7650, Note_on_c, 0, 73, 0
3, 7680, Note_on_c, 0, 71, 49
3, 7800, Note_on_c, 0, 71, 0
3, 7800, Note_on_c, 0, 69, 49
3, 7860, Note_on_c, 0, 69, 0
3, 7860, Note_on_c, 0, 67, 49
3, 7890, Note_on_c, 0, 67, 0
3, 7920, Note_on_c, 0, 66, 49
3, 7950, Note_on_c, 0, 66, 0
3, 7980, Note_on_c, 0, 64, 49
3, 8010, Note_on_c, 0, 64, 0
3, 8370, Note_on_c, 0, 69, 49
3, 8400, Note_on_c, 0, 69, 0
3, 8400, Note_on_c, 0, 67, 49
3, 8430, Note_on_c, 0, 67, 0
3, 8430, Note_on_c, 0, 69, 49
3, 8460, Note_on_c, 0, 69, 0
3, 8460, Note_on_c, 0, 66, 49
3, 8580, Note_on_c, 0, 66, 0
3, 8730, Note_on_c, 0, 62, 62
3, 8760, Note_on_c, 0, 62, 0
3, 8760, Note_on_c, 0, 60, 62
3, 8790, Note_on_c, 0, 60, 0
3, 8790, Note_on_c, 0, 62, 62
3, 8820, Note_on_c, 0, 62, 0
3, 8820, Note_on_c, 0, 71, 62
3, 8910, Note_on_c, 0, 71, 0
3, 8910, Note_on_c, 0, 69, 62
3, 8940, Note_on_c, 0, 69, 0
3, 8940, Note_on_c, 0, 67, 62
3, 8970, Note_on_c, 0, 67, 0
3, 8970, Note_on_c, 0, 66, 62
3, 9000, Note_on_c, 0, 66, 0
3, 9000, Note_on_c, 0, 67, 62
3, 9060, Note_on_c, 0, 67, 0
3, 9060, Note_on_c, 0, 66, 62
3, 9090, Note_on_c, 0, 66, 0
3, 9120, Note_on_c, 0, 64, 62
3, 9210, Note_on_c, 0, 64, 0
3, 9210, Note_on_c, 0, 67, 62
3, 9240, Note_on_c, 0, 67, 0
3, 9240, Note_on_c, 0, 71, 62
3, 9270, Note_on_c, 0, 71, 0
3, 9270, Note_on_c, 0, 75, 62
3, 9300, Note_on_c, 0, 75, 0
3, 9300, Note_on_c, 0, 76, 62
3, 9390, Note_on_c, 0, 76, 0
3, 9420, Note_on_c, 0, 70, 62
3, 9450, Note_on_c, 0, 70, 0
3, 9810, Note_on_c, 0, 66, 49
3, 9840, Note_on_c, 0, 66, 0
3, 9840, Note_on_c, 0, 64, 49
3, 9870, Note_on_c, 0, 64, 0
3, 9870, Note_on_c, 0, 66, 49
3, 9900, Note_on_c, 0, 66, 0
3, 9900, Note_on_c, 0, 74, 49
3, 10020, Note_on_c, 0, 74, 0
3, 10170, Note_on_c, 0, 68, 49
3, 10200, Note_on_c, 0, 68, 0
3, 10200, Note_on_c, 0, 66, 49
3, 10230, Note_on_c, 0, 66, 0
3, 10230, Note_on_c, 0, 68, 49
3, 10260, Note_on_c, 0, 68, 0
3, 10260, Note_on_c, 0, 73, 49
3, 10380, Note_on_c, 0, 73, 0
3, 11070, Note_on_c, 0, 66, 49
3, 11100, Note_on_c, 0, 66, 0
3, 11100, Note_on_c, 0, 65, 88
3, 11130, Note_on_c, 0, 65, 0
3, 11130, Note_on_c, 0, 66, 88
3, 11160, Note_on_c, 0, 66, 0
3, 11160, Note_on_c, 0, 61, 88
3, 11430, Note_on_c, 0, 61, 0
3, 11430, Note_on_c, 0, 68, 88
3, 11460, Note_on_c, 0, 68, 0
3, 11460, Note_on_c, 0, 66, 88
3, 11490, Note_on_c, 0, 66, 0
3, 11490, Note_on_c, 0, 68, 88
3, 11520, Note_on_c, 0, 68, 0
3, 11520, Note_on_c, 0, 61, 88
3, 11790, Note_on_c, 0, 61, 0
3, 11790, Note_on_c, 0, 65, 88
3, 11820, Note_on_c, 0, 65, 0
3, 11820, Note_on_c, 0, 68, 88
3, 11850, Note_on_c, 0, 68, 0
3, 11850, Note_on_c, 0, 71, 88
3, 11880, Note_on_c, 0, 71, 0
3, 11880, Note_on_c, 0, 69, 88
3, 11940, Note_on_c, 0, 69, 0
3, 11940, Note_on_c, 0, 68, 88
3, 11970, Note_on_c, 0, 68, 0
3, 12000, Note_on_c, 0, 66, 88
3, 12120, Note_on_c, 0, 66, 0
3, 12120, Note_on_c, 0, 64, 88
3, 12180, Note_on_c, 0, 64, 0
3, 12180, Note_on_c, 0, 62, 88
3, 12210, Note_on_c, 0, 62, 0
3, 12240, Note_on_c, 0, 61, 88
3, 12270, Note_on_c, 0, 61, 0
3, 12300, Note_on_c, 0, 59, 88
3, 12330, Note_on_c, 0, 59, 0
3, 12510, Note_on_c, 0, 64, 88
3, 12540, Note_on_c, 0, 64, 0
3, 12540, Note_on_c, 0, 62, 88
3, 12570, Note_on_c, 0, 62, 0
3, 12570, Note_on_c, 0, 64, 88
3, 12600, Note_on_c, 0, 64, 0
3, 12600, Note_on_c, 0, 73, 88
3, 12870, Note_on_c, 0, 73, 0
3, 12870, Note_on_c, 0, 66, 88
3, 12900, Note_on_c, 0, 66, 0
3, 12900, Note_on_c, 0, 64, 88
3, 12930, Note_on_c, 0, 64, 0
3, 12930, Note_on_c, 0, 66, 88
3, 12960, Note_on_c, 0, 66, 0
3, 12960, Note_on_c, 0, 74, 88
3, 13230, Note_on_c, 0, 74, 0
3, 13230, Note_on_c, 0, 68, 88
3, 13260, Note_on_c, 0, 68, 0
3, 13260, Note_on_c, 0, 66, 88
3, 13290, Note_on_c, 0, 66, 0
3, 13290, Note_on_c, 0, 68, 88
3, 13320, Note_on_c, 0, 68, 0
3, 13320, Note_on_c, 0, 76, 88
3, 13380, Note_on_c, 0, 76, 0
3, 13380, Note_on_c, 0, 73, 88
3, 13410, Note_on_c, 0, 73, 0
3, 13440, Note_on_c, 0, 70, 88
3, 13560, Note_on_c, 0, 70, 0
3, 13560, Note_on_c, 0, 71, 88
3, 13620, Note_on_c, 0, 71, 0
3, 13620, Note_on_c, 0, 73, 88
3, 13650, Note_on_c, 0, 73, 0
3, 13680, Note_on_c, 0, 74, 88
3, 13710, Note_on_c, 0, 74, 0
3, 13710, Note_on_c, 0, 73, 88
3, 13740, Note_on_c, 0, 73, 0
3, 13740, Note_on_c, 0, 71, 88
3, 13770, Note_on_c, 0, 71, 0
3, 13770, Note_on_c, 0, 69, 88
3, 13800, Note_on_c, 0, 69, 0
3, 13800, Note_on_c, 0, 68, 88
3, 13830, Note_on_c, 0, 68, 0
3, 13830, Note_on_c, 0, 66, 88
3, 13860, Note_on_c, 0, 66, 0
3, 13860, Note_on_c, 0, 68, 88
3, 13890, Note_on_c, 0, 68, 0
3, 13890, Note_on_c, 0, 71, 88
3, 13905, Note_on_c, 0, 71, 0
3, 13920, Note_on_c, 0, 69, 88
3, 13950, Note_on_c, 0, 69, 0
3, 13950, Note_on_c, 0, 73, 88
3, 13965, Note_on_c, 0, 73, 0
3, 13980, Note_on_c, 0, 71, 88
3, 14010, Note_on_c, 0, 71, 0
3, 14010, Note_on_c, 0, 74, 88
3, 14025, Note_on_c, 0, 74, 0
3, 14040, Note_on_c, 0, 73, 88
3, 14070, Note_on_c, 0, 73, 0
3, 14070, Note_on_c, 0, 71, 88
3, 14100, Note_on_c, 0, 71, 0
3, 14100, Note_on_c, 0, 69, 88
3, 14130, Note_on_c, 0, 69, 0
3, 14130, Note_on_c, 0, 68, 88
3, 14160, Note_on_c, 0, 68, 0
3, 14160, Note_on_c, 0, 66, 88
3, 14190, Note_on_c, 0, 66, 0
3, 14190, Note_on_c, 0, 65, 88
3, 14220, Note_on_c, 0, 65, 0
3, 14220, Note_on_c, 0, 66, 88
3, 14250, Note_on_c, 0, 66, 0
3, 14250, Note_on_c, 0, 69, 88
3, 14265, Note_on_c, 0, 69, 0
3, 14280, Note_on_c, 0, 68, 88
3, 14310, Note_on_c, 0, 68, 0
3, 14310, Note_on_c, 0, 71, 88
3, 14325, Note_on_c, 0, 71, 0
3, 14340, Note_on_c, 0, 69, 88
3, 14370, Note_on_c, 0, 69, 0
3, 14370, Note_on_c, 0, 73, 88
3, 14385, Note_on_c, 0, 73, 0
3, 14400, Note_on_c, 0, 71, 88
3, 14670, Note_on_c, 0, 71, 0
3, 14670, Note_on_c, 0, 62, 88
3, 14700, Note_on_c, 0, 62, 0
3, 14700, Note_on_c, 0, 61, 88
3, 14730, Note_on_c, 0, 61, 0
3, 14730, Note_on_c, 0, 59, 88
3, 14760, Note_on_c, 0, 59, 0
3, 14760, Note_on_c, 0, 61, 88
3, 14790, Note_on_c, 0, 61, 0
3, 14790, Note_on_c, 0, 63, 88
3, 14820, Note_on_c, 0, 63, 0
3, 14820, Note_on_c, 0, 65, 88
3, 14850, Note_on_c, 0, 65, 0
3, 14850, Note_on_c, 0, 66, 88
3, 14880, Note_on_c, 0, 66, 0
3, 14880, Note_on_c, 0, 68, 88
3, 14910, Note_on_c, 0, 68, 0
3, 14910, Note_on_c, 0, 69, 88
3, 14940, Note_on_c, 0, 69, 0
3, 14940, Note_on_c, 0, 71, 88
3, 14970, Note_on_c, 0, 71, 0
3, 14970, Note_on_c, 0, 74, 88
3, 15000, Note_on_c, 0, 74, 0
3, 15000, Note_on_c, 0, 73, 88
3, 15030, Note_on_c, 0, 73, 0
3, 15030, Note_on_c, 0, 71, 88
3, 15060, Note_on_c, 0, 71, 0
3, 15060, Note_on_c, 0, 69, 88
3, 15090, Note_on_c, 0, 69, 0
3, 15090, Note_on_c, 0, 68, 88
3, 15120, Note_on_c, 0, 68, 0
3, 15120, Note_on_c, 0, 69, 88
3, 15150, Note_on_c, 0, 69, 0
3, 15150, Note_on_c, 0, 68, 88
3, 15165, Note_on_c, 0, 68, 0
3, 15180, Note_on_c, 0, 71, 88
3, 15210, Note_on_c, 0, 71, 0
3, 15210, Note_on_c, 0, 69, 88
3, 15240, Note_on_c, 0, 69, 0
3, 15240, Note_on_c, 0, 68, 88
3, 15270, Note_on_c, 0, 68, 0
3, 15270, Note_on_c, 0, 66, 88
3, 15300, Note_on_c, 0, 66, 0
3, 15300, Note_on_c, 0, 68, 88
3, 15330, Note_on_c, 0, 68, 0
3, 15330, Note_on_c, 0, 66, 88
3, 15345, Note_on_c, 0, 66, 0
3, 15360, Note_on_c, 0, 69, 88
3, 15390, Note_on_c, 0, 69, 0
3, 15390, Note_on_c, 0, 68, 88
3, 15420, Note_on_c, 0, 68, 0
3, 15420, Note_on_c, 0, 66, 88
3, 15450, Note_on_c, 0, 66, 0
3, 15450, Note_on_c, 0, 65, 88
3, 15480, Note_on_c, 0, 65, 0
3, 15480, Note_on_c, 0, 66, 88
3, 15780, Note_on_c, 0, 66, 0
3, 15960, Note_on_c, 0, 73, 49
3, 16080, Note_on_c, 0, 73, 0
3, 16080, Note_on_c, 0, 71, 49
3, 16110, Note_on_c, 0, 71, 0
3, 16110, Note_on_c, 0, 70, 49
3, 16140, Note_on_c, 0, 70, 0
3, 16140, Note_on_c, 0, 71, 49
3, 16200, Note_on_c, 0, 71, 0
3, 16320, Note_on_c, 0, 71, 49
3, 16440, Note_on_c, 0, 71, 0
3, 16440, Note_on_c, 0, 69, 49
3, 16470, Note_on_c, 0, 69, 0
3, 16470, Note_on_c, 0, 68, 49
3, 16500, Note_on_c, 0, 68, 0
3, 16500, Note_on_c, 0, 69, 49
3, 16560, Note_on_c, 0, 69, 0
3, 16680, Note_on_c, 0, 76, 49
3, 16800, Note_on_c, 0, 76, 0
3, 16800, Note_on_c, 0, 74, 49
3, 16830, Note_on_c, 0, 74, 0
3, 16860, Note_on_c, 0, 73, 49
3, 16950, Note_on_c, 0, 73, 0
3, 16980, Note_on_c, 0, 71, 49
3, 17010, Note_on_c, 0, 71, 0
3, 17190, Note_on_c, 0, 71, 49
3, 17220, Note_on_c, 0, 71, 0
3, 17220, Note_on_c, 0, 69, 49
3, 17250, Note_on_c, 0, 69, 0
3, 17250, Note_on_c, 0, 71, 49
3, 17280, Note_on_c, 0, 71, 0
3, 17280, Note_on_c, 0, 64, 49
3, 17310, Note_on_c, 0, 64, 0
3, 17310, Note_on_c, 0, 68, 49
3, 17340, Note_on_c, 0, 68, 0
3, 17340, Note_on_c, 0, 69, 49
3, 17370, Note_on_c, 0, 69, 0
3, 17370, Note_on_c, 0, 73, 49
3, 17400, Note_on_c, 0, 73, 0
3, 17400, Note_on_c, 0, 71, 49
3, 17430, Note_on_c, 0, 71, 0
3, 17430, Note_on_c, 0, 68, 49
3, 17460, Note_on_c, 0, 68, 0
3, 17460, Note_on_c, 0, 64, 49
3, 17490, Note_on_c, 0, 64, 0
3, 17490, Note_on_c, 0, 68, 49
3, 17520, Note_on_c, 0, 68, 0
3, 17520, Note_on_c, 0, 69, 49
3, 17550, Note_on_c, 0, 69, 0
3, 17550, Note_on_c, 0, 73, 49
3, 17580, Note_on_c, 0, 73, 0
3, 17580, Note_on_c, 0, 71, 49
3, 17610, Note_on_c, 0, 71, 0
3, 17610, Note_on_c, 0, 73, 49
3, 17640, Note_on_c, 0, 73, 0
3, 17640, Note_on_c, 0, 66, 49
3, 17670, Note_on_c, 0, 66, 0
3, 17670, Note_on_c, 0, 70, 49
3, 17700, Note_on_c, 0, 70, 0
3, 17700, Note_on_c, 0, 71, 49
3, 17730, Note_on_c, 0, 71, 0
3, 17730, Note_on_c, 0, 74, 49
3, 17760, Note_on_c, 0, 74, 0
3, 17760, Note_on_c, 0, 73, 49
3, 17790, Note_on_c, 0, 73, 0
3, 17790, Note_on_c, 0, 70, 49
3, 17820, Note_on_c, 0, 70, 0
3, 17820, Note_on_c, 0, 66, 49
3, 17850, Note_on_c, 0, 66, 0
3, 17850, Note_on_c, 0, 70, 49
3, 17880, Note_on_c, 0, 70, 0
3, 17880, Note_on_c, 0, 71, 49
3, 17910, Note_on_c, 0, 71, 0
3, 17910, Note_on_c, 0, 74, 49
3, 17940, Note_on_c, 0, 74, 0
3, 17940, Note_on_c, 0, 73, 49
3, 17970, Note_on_c, 0, 73, 0
3, 17970, Note_on_c, 0, 71, 49
3, 18000, Note_on_c, 0, 71, 0
3, 18000, Note_on_c, 0, 73, 49
3, 18060, Note_on_c, 0, 73, 0
3, 18060, Note_on_c, 0, 74, 49
3, 18090, Note_on_c, 0, 74, 0
3, 18120, Note_on_c, 0, 67, 49
3, 18180, Note_on_c, 0, 67, 0
3, 18180, Note_on_c, 0, 66, 49
3, 18240, Note_on_c, 0, 66, 0
3, 18240, Note_on_c, 0, 69, 49
3, 18270, Note_on_c, 0, 69, 0
3, 18270, Note_on_c, 0, 67, 49
3, 18300, Note_on_c, 0, 67, 0
3, 18300, Note_on_c, 0, 66, 49
3, 18330, Note_on_c, 0, 66, 0
3, 18330, Note_on_c, 0, 64, 49
3, 18360, Note_on_c, 0, 64, 0
3, 18360, Note_on_c, 0, 62, 49
3, 18450, Note_on_c, 0, 62, 0
3, 18450, Note_on_c, 0, 74, 49
3, 18480, Note_on_c, 0, 74, 0
3, 18480, Note_on_c, 0, 69, 49
3, 18510, Note_on_c, 0, 69, 0
3, 18510, Note_on_c, 0, 66, 49
3, 18540, Note_on_c, 0, 66, 0
3, 18540, Note_on_c, 0, 67, 49
3, 18630, Note_on_c, 0, 67, 0
3, 18630, Note_on_c, 0, 74, 49
3, 18660, Note_on_c, 0, 74, 0
3, 18660, Note_on_c, 0, 73, 49
3, 18690, Note_on_c, 0, 73, 0
3, 18690, Note_on_c, 0, 74, 49
3, 18720, Note_on_c, 0, 74, 0
3, 18720, Note_on_c, 0, 66, 49
3, 18810, Note_on_c, 0, 66, 0
3, 18810, Note_on_c, 0, 74, 49
3, 18840, Note_on_c, 0, 74, 0
3, 18840, Note_on_c, 0, 73, 49
3, 18870, Note_on_c, 0, 73, 0
3, 18870, Note_on_c, 0, 74, 49
3, 18900, Note_on_c, 0, 74, 0
3, 18900, Note_on_c, 0, 64, 49
3, 18990, Note_on_c, 0, 64, 0
3, 18990, Note_on_c, 0, 74, 49
3, 19020, Note_on_c, 0, 74, 0
3, 19020, Note_on_c, 0, 73, 49
3, 19050, Note_on_c, 0, 73, 0
3, 19050, Note_on_c, 0, 74, 49
3, 19080, Note_on_c, 0, 74, 0
3, 19080, Note_on_c, 0, 66, 49
3, 19170, Note_on_c, 0, 66, 0
3, 19170, Note_on_c, 0, 69, 49
3, 19200, Note_on_c, 0, 69, 0
3, 19200, Note_on_c, 0, 67, 49
3, 19230, Note_on_c, 0, 67, 0
3, 19230, Note_on_c, 0, 66, 49
3, 19260, Note_on_c, 0, 66, 0
3, 19260, Note_on_c, 0, 72, 49
3, 19290, Note_on_c, 0, 72, 0
3, 19290, Note_on_c, 0, 71, 49
3, 19320, Note_on_c, 0, 71, 0
3, 19320, Note_on_c, 0, 69, 49
3, 19350, Note_on_c, 0, 69, 0
3, 19350, Note_on_c, 0, 67, 49
3, 19380, Note_on_c, 0, 67, 0
3, 19380, Note_on_c, 0, 76, 49
3, 19470, Note_on_c, 0, 76, 0
3, 19500, Note_on_c, 0, 67, 49
3, 19530, Note_on_c, 0, 67, 0
3, 20430, Note_on_c, 0, 74, 88
3, 20460, Note_on_c, 0, 74, 0
3, 20460, Note_on_c, 0, 73, 88
3, 20490, Note_on_c, 0, 73, 0
3, 20490, Note_on_c, 0, 74, 88
3, 20520, Note_on_c, 0, 74, 0
3, 20520, Note_on_c, 0, 69, 88
3, 20790, Note_on_c, 0, 69, 0
3, 20790, Note_on_c, 0, 76, 88
3, 20820, Note_on_c, 0, 76, 0
3, 20820, Note_on_c, 0, 74, 88
3, 20850, Note_on_c, 0, 74, 0
3, 20850, Note_on_c, 0, 76, 88
3, 20880, Note_on_c, 0, 76, 0
3, 20880, Note_on_c, 0, 69, 88
3, 21150, Note_on_c, 0, 69, 0
3, 21150, Note_on_c, 0, 73, 88
3, 21180, Note_on_c, 0, 73, 0
3, 21180, Note_on_c, 0, 76, 88
3, 21210, Note_on_c, 0, 76, 0
3, 21210, Note_on_c, 0, 79, 88
3, 21240, Note_on_c, 0, 79, 0
3, 21240, Note_on_c, 0, 78, 88
3, 21300, Note_on_c, 0, 78, 0
3, 21300, Note_on_c, 0, 76, 88
3, 21330, Note_on_c, 0, 76, 0
3, 21360, Note_on_c, 0, 74, 88
3, 21480, Note_on_c, 0, 74, 0
3, 21480, Note_on_c, 0, 72, 88
3, 21510, Note_on_c, 0, 72, 0
3, 21540, Note_on_c, 0, 71, 88
3, 21630, Note_on_c, 0, 71, 0
3, 21630, Note_on_c, 0, 67, 88
3, 21660, Note_on_c, 0, 67, 0
3, 21660, Note_on_c, 0, 69, 88
3, 21690, Note_on_c, 0, 69, 0
3, 21870, Note_on_c, 0, 74, 88
3, 21900, Note_on_c, 0, 74, 0
3, 21900, Note_on_c, 0, 73, 75
3, 21930, Note_on_c, 0, 73, 0
3, 21930, Note_on_c, 0, 74, 75
3, 21960, Note_on_c, 0, 74, 0
3, 21960, Note_on_c, 0, 67, 75
3, 22230, Note_on_c, 0, 67, 0
3, 22230, Note_on_c, 0, 76, 75
3, 22260, Note_on_c, 0, 76, 0
3, 22260, Note_on_c, 0, 74, 88
3, 22290, Note_on_c, 0, 74, 0
3, 22290, Note_on_c, 0, 76, 88
3, 22320, Note_on_c, 0, 76, 0
3, 22320, Note_on_c, 0, 69, 88
3, 22590, Note_on_c, 0, 69, 0
3, 22590, Note_on_c, 0, 73, 88
3, 22620, Note_on_c, 0, 73, 0
3, 22620, Note_on_c, 0, 76, 88
3, 22650, Note_on_c, 0, 76, 0
3, 22650, Note_on_c, 0, 79, 88
3, 22680, Note_on_c, 0, 79, 0
3, 22680, Note_on_c, 0, 78, 88
3, 22710, Note_on_c, 0, 78, 0
3, 22710, Note_on_c, 0, 76, 88
3, 22725, Note_on_c, 0, 76, 0
3, 22740, Note_on_c, 0, 79, 88
3, 22770, Note_on_c, 0, 79, 0
3, 22770, Note_on_c, 0, 78, 88
3, 22800, Note_on_c, 0, 78, 0
3, 22800, Note_on_c, 0, 76, 88
3, 22830, Note_on_c, 0, 76, 0
3, 22830, Note_on_c, 0, 74, 88
3, 22860, Note_on_c, 0, 74, 0
3, 22860, Note_on_c, 0, 76, 88
3, 22890, Note_on_c, 0, 76, 0
3, 22890, Note_on_c, 0, 74, 88
3, 22905, Note_on_c, 0, 74, 0
3, 22920, Note_on_c, 0, 78, 88
3, 22950, Note_on_c, 0, 78, 0
3, 22950, Note_on_c, 0, 76, 88
3, 22980, Note_on_c, 0, 76, 0
3, 22980, Note_on_c, 0, 74, 88
3, 23010, Note_on_c, 0, 74, 0
3, 23010, Note_on_c, 0, 73, 88
3, 23040, Note_on_c, 0, 73, 0
3, 23040, Note_on_c, 0, 74, 88
3, 23340, Note_on_c, 0, 74, 0
3, 23340, Note_on_c, 0, 74, 49
3, 23460, Note_on_c, 0, 74, 0
3, 23460, Note_on_c, 0, 73, 49
3, 23490, Note_on_c, 0, 73, 0
3, 23490, Note_on_c, 0, 74, 49
3, 23520, Note_on_c, 0, 74, 0
3, 23520, Note_on_c, 0, 71, 49
3, 23550, Note_on_c, 0, 71, 0
3, 23550, Note_on_c, 0, 74, 49
3, 23580, Note_on_c, 0, 74, 0
3, 23580, Note_on_c, 0, 73, 49
3, 23610, Note_on_c, 0, 73, 0
3, 23610, Note_on_c, 0, 69, 49
3, 23640, Note_on_c, 0, 69, 0
3, 23640, Note_on_c, 0, 73, 49
3, 23670, Note_on_c, 0, 73, 0
3, 23670, Note_on_c, 0, 76, 49
3, 23700, Note_on_c, 0, 76, 0
3, 23700, Note_on_c, 0, 81, 49
3, 23730, Note_on_c, 0, 81, 0
3, 23730, Note_on_c, 0, 78, 49
3, 23760, Note_on_c, 0, 78, 0
3, 23760, Note_on_c, 0, 76, 49
3, 23775, Note_on_c, 0, 76, 0
3, 23775, Note_on_c, 0, 75, 49
3, 23790, Note_on_c, 0, 75, 0
3, 23790, Note_on_c, 0, 76, 49
3, 23805, Note_on_c, 0, 76, 0
3, 23805, Note_on_c, 0, 75, 49
3, 23820, Note_on_c, 0, 75, 0
3, 23820, Note_on_c, 0, 76, 49
3, 23835, Note_on_c, 0, 76, 0
3, 23835, Note_on_c, 0, 75, 49
3, 23850, Note_on_c, 0, 75, 0
3, 23850, Note_on_c, 0, 76, 49
3, 23865, Note_on_c, 0, 76, 0
3, 23865, Note_on_c, 0, 75, 49
3, 23880, Note_on_c, 0, 75, 0
3, 23880, Note_on_c, 0, 76, 49
3, 23895, Note_on_c, 0, 76, 0
3, 23895, Note_on_c, 0, 75, 49
3, 23910, Note_on_c, 0, 75, 0
3, 23910, Note_on_c, 0, 73, 49
3, 23925, Note_on_c, 0, 73, 0
3, 23925, Note_on_c, 0, 75, 49
3, 23940, Note_on_c, 0, 75, 0
3, 23940, Note_on_c, 0, 76, 49
3, 24060, Note_on_c, 0, 76, 0
3, 24060, Note_on_c, 0, 76, 49
3, 24180, Note_on_c, 0, 76, 0
3, 24180, Note_on_c, 0, 74, 49
3, 24210, Note_on_c, 0, 74, 0
3, 24210, Note_on_c, 0, 76, 49
3, 24240, Note_on_c, 0, 76, 0
3, 24240, Note_on_c, 0, 73, 49
3, 24270, Note_on_c, 0, 73, 0
3, 24270, Note_on_c, 0, 74, 49
3, 24300, Note_on_c, 0, 74, 0
3, 24300, Note_on_c, 0, 71, 49
3, 24330, Note_on_c, 0, 71, 0
3, 24330, Note_on_c, 0, 66, 49
3, 24360, Note_on_c, 0, 66, 0
3, 24360, Note_on_c, 0, 71, 49
3, 24390, Note_on_c, 0, 71, 0
3, 24390, Note_on_c, 0, 74, 49
3, 24420, Note_on_c, 0, 74, 0
3, 24420, Note_on_c, 0, 78, 49
3, 24510, Note_on_c, 0, 78, 0
3, 24510, Note_on_c, 0, 74, 49
3, 24540, Note_on_c, 0, 74, 0
3, 24540, Note_on_c, 0, 76, 49
3, 24570, Note_on_c, 0, 76, 0
3, 24570, Note_on_c, 0, 78, 49
3, 24600, Note_on_c, 0, 78, 0
3, 24600, Note_on_c, 0, 74, 49
3, 24630, Note_on_c, 0, 74, 0
3, 24630, Note_on_c, 0, 76, 49
3, 24660, Note_on_c, 0, 76, 0
3, 24660, Note_on_c, 0, 78, 49
3, 24780, Note_on_c, 0, 78, 0
3, 24930, Note_on_c, 0, 71, 49
3, 24960, Note_on_c, 0, 71, 0
3, 24960, Note_on_c, 0, 70, 49
3, 24990, Note_on_c, 0, 70, 0
3, 24990, Note_on_c, 0, 71, 49
3, 25020, Note_on_c, 0, 71, 0
3, 25020, Note_on_c, 0, 66, 49
3, 25140, Note_on_c, 0, 66, 0
3, 25290, Note_on_c, 0, 73, 49
3, 25320, Note_on_c, 0, 73, 0
3, 25320, Note_on_c, 0, 71, 49
3, 25350, Note_on_c, 0, 71, 0
3, 25350, Note_on_c, 0, 73, 49
3, 25380, Note_on_c, 0, 73, 0
3, 25380, Note_on_c, 0, 66, 49
3, 25470, Note_on_c, 0, 66, 0
3, 25470, Note_on_c, 0, 70, 49
3, 25500, Note_on_c, 0, 70, 0
3, 25500, Note_on_c, 0, 73, 49
3, 25530, Note_on_c, 0, 73, 0
3, 25530, Note_on_c, 0, 76, 49
3, 25560, Note_on_c, 0, 76, 0
3, 25560, Note_on_c, 0, 74, 49
3, 25620, Note_on_c, 0, 74, 0
3, 25620, Note_on_c, 0, 73, 49
3, 25650, Note_on_c, 0, 73, 0
3, 25680, Note_on_c, 0, 71, 49
3, 25800, Note_on_c, 0, 71, 0
3, 25800, Note_on_c, 0, 69, 49
3, 25860, Note_on_c, 0, 69, 0
3, 25860, Note_on_c, 0, 67, 49
3, 25890, Note_on_c, 0, 67, 0
3, 25920, Note_on_c, 0, 66, 49
3, 25950, Note_on_c, 0, 66, 0
3, 25980, Note_on_c, 0, 64, 49
3, 26010, Note_on_c, 0, 64, 0
3, 26220, Note_on_c, 0, 64, 49
3, 26250, Note_on_c, 0, 64, 0
3, 26280, Note_on_c, 0, 64, 49
3, 26340, Note_on_c, 0, 64, 0
3, 26340, Note_on_c, 0, 62, 49
3, 26370, Note_on_c, 0, 62, 0
3, 26580, Note_on_c, 0, 71, 49
3, 26640, Note_on_c, 0, 71, 0
3, 26640, Note_on_c, 0, 71, 49
3, 26655, Note_on_c, 0, 71, 0
3, 26655, Note_on_c, 0, 73, 49
3, 26670, Note_on_c, 0, 73, 0
3, 26670, Note_on_c, 0, 71, 49
3, 26685, Note_on_c, 0, 71, 0
3, 26685, Note_on_c, 0, 73, 49
3, 26700, Note_on_c, 0, 73, 0
3, 26700, Note_on_c, 0, 71, 49
3, 26709, Note_on_c, 0, 71, 0
3, 26709, Note_on_c, 0, 73, 49
3, 26720, Note_on_c, 0, 73, 0
3, 26720, Note_on_c, 0, 71, 49
3, 26730, Note_on_c, 0, 71, 0
3, 26730, Note_on_c, 0, 70, 49
3, 26760, Note_on_c, 0, 70, 0
3, 26760, Note_on_c, 0, 71, 49
3, 26820, Note_on_c, 0, 71, 0
3, 26820, Note_on_c, 0, 70, 49
3, 26940, Note_on_c, 0, 70, 0
3, 27660, Note_on_c, 0, 78, 49
3, 27720, Note_on_c, 0, 78, 0
3, 27720, Note_on_c, 0, 79, 49
3, 27750, Note_on_c, 0, 79, 0
3, 27750, Note_on_c, 0, 78, 49
3, 27765, Note_on_c, 0, 78, 0
3, 27780, Note_on_c, 0, 81, 49
3, 27810, Note_on_c, 0, 81, 0
3, 27810, Note_on_c, 0, 79, 49
3, 27825, Note_on_c, 0, 79, 0
3, 27840, Note_on_c, 0, 78, 49
3, 27870, Note_on_c, 0, 78, 0
3, 27870, Note_on_c, 0, 76, 49
3, 27885, Note_on_c, 0, 76, 0
3, 27900, Note_on_c, 0, 78, 49
3, 27930, Note_on_c, 0, 78, 0
3, 27930, Note_on_c, 0, 76, 49
3, 27945, Note_on_c, 0, 76, 0
3, 27960, Note_on_c, 0, 79, 49
3, 27990, Note_on_c, 0, 79, 0
3, 27990, Note_on_c, 0, 78, 49
3, 28005, Note_on_c, 0, 78, 0
3, 28020, Note_on_c, 0, 76, 49
3, 28050, Note_on_c, 0, 76, 0
3, 28050, Note_on_c, 0, 75, 49
3, 28065, Note_on_c, 0, 75, 0
3, 28080, Note_on_c, 0, 76, 49
3, 28110, Note_on_c, 0, 76, 0
3, 28110, Note_on_c, 0, 74, 49
3, 28125, Note_on_c, 0, 74, 0
3, 28140, Note_on_c, 0, 78, 49
3, 28170, Note_on_c, 0, 78, 0
3, 28170, Note_on_c, 0, 76, 49
3, 28185, Note_on_c, 0, 76, 0
3, 28200, Note_on_c, 0, 74, 49
3, 28230, Note_on_c, 0, 74, 0
3, 28230, Note_on_c, 0, 73, 49
3, 28245, Note_on_c, 0, 73, 0
3, 28260, Note_on_c, 0, 74, 49
3, 28290, Note_on_c, 0, 74, 0
3, 28290, Note_on_c, 0, 73, 49
3, 28305, Note_on_c, 0, 73, 0
3, 28320, Note_on_c, 0, 76, 49
3, 28350, Note_on_c, 0, 76, 0
3, 28350, Note_on_c, 0, 74, 49
3, 28365, Note_on_c, 0, 74, 0
3, 28380, Note_on_c, 0, 73, 49
3, 28410, Note_on_c, 0, 73, 0
3, 28410, Note_on_c, 0, 71, 49
3, 28425, Note_on_c, 0, 71, 0
3, 28440, Control_c, 0, 7, 60
3, 28440, Note_on_c, 0, 73, 88
3, 28445, Control_c, 0, 7, 61
3, 28450, Control_c, 0, 7, 62
3, 28456, Control_c, 0, 7, 63
3, 28461, Control_c, 0, 7, 64
3, 28466, Control_c, 0, 7, 65
3, 28472, Control_c, 0, 7, 66
3, 28477, Control_c, 0, 7, 67
3, 28483, Control_c, 0, 7, 68
3, 28488, Control_c, 0, 7, 69
3, 28493, Control_c, 0, 7, 70
3, 28499, Control_c, 0, 7, 71
3, 28504, Control_c, 0, 7, 72
3, 28509, Control_c, 0, 7, 73
3, 28515, Control_c, 0, 7, 74
3, 28520, Control_c, 0, 7, 75
3, 28526, Control_c, 0, 7, 76
3, 28531, Control_c, 0, 7, 77
3, 28536, Control_c, 0, 7, 78
3, 28542, Control_c, 0, 7, 79
3, 28547, Control_c, 0, 7, 80
3, 28552, Control_c, 0, 7, 81
3, 28558, Control_c, 0, 7, 82
3, 28563, Control_c, 0, 7, 83
3, 28568, Control_c, 0, 7, 84
3, 28574, Control_c, 0, 7, 85
3, 28579, Control_c, 0, 7, 86
3, 28585, Control_c, 0, 7, 87
3, 28590, Control_c, 0, 7, 88
3, 28595, Control_c, 0, 7, 89
3, 28601, Control_c, 0, 7, 90
3, 28606, Control_c, 0, 7, 91
3, 28611, Control_c, 0, 7, 92
3, 28617, Control_c, 0, 7, 93
3, 28622, Control_c, 0, 7, 94
3, 28628, Control_c, 0, 7, 95
3, 28633, Control_c, 0, 7, 96
3, 28638, Control_c, 0, 7, 97
3, 28644, Control_c, 0, 7, 98
3, 28649, Control_c, 0, 7, 99
3, 28654, Control_c, 0, 7, 100
3, 28660, Control_c, 0, 7, 101
3, 28665, Control_c, 0, 7, 102
3, 28671, Control_c, 0, 7, 103
3, 28676, Control_c, 0, 7, 104
3, 28681, Control_c, 0, 7, 105
3, 28687, Control_c, 0, 7, 106
3, 28692, Control_c, 0, 7, 107
3, 28697, Control_c, 0, 7, 108
3, 28703, Control_c, 0, 7, 109
3, 28708, Control_c, 0, 7, 110
3, 28713, Control_c, 0, 7, 111
3, 28719, Control_c, 0, 7, 112
3, 28724, Control_c, 0, 7, 113
3, 28730, Control_c, 0, 7, 114
3, 28735, Control_c, 0, 7, 115
3, 28740, Control_c, 0, 7, 116
3, 28746, Control_c, 0, 7, 117
3, 28751, Control_c, 0, 7, 118
3, 28756, Control_c, 0, 7, 119
3, 28762, Control_c, 0, 7, 120
3, 28767, Control_c, 0, 7, 121
3, 28773, Control_c, 0, 7, 122
3, 28778, Control_c, 0, 7, 123
3, 28783, Control_c, 0, 7, 124
3, 28789, Control_c, 0, 7, 125
3, 28794, Control_c, 0, 7, 126
3, 29040, Note_on_c, 0, 73, 0
3, 29040, Note_on_c, 0, 71, 75
3, 29070, Note_on_c, 0, 71, 0
3, 29070, Note_on_c, 0, 70, 75
3, 29100, Note_on_c, 0, 70, 0
3, 29100, Note_on_c, 0, 68, 75
3, 29130, Note_on_c, 0, 68, 0
3, 29130, Note_on_c, 0, 66, 75
3, 29160, Note_on_c, 0, 66, 0
3, 29160, Note_on_c, 0, 66, 75
3, 29220, Note_on_c, 0, 66, 0
3, 29220, Note_on_c, 0, 76, 75
3, 29280, Note_on_c, 0, 76, 0
3, 29280, Note_on_c, 0, 74, 75
3, 29340, Note_on_c, 0, 74, 0
3, 29340, Note_on_c, 0, 73, 75
3, 29370, Note_on_c, 0, 73, 0
3, 29370, Note_on_c, 0, 76, 75
3, 29400, Note_on_c, 0, 76, 0
3, 29400, Note_on_c, 0, 79, 75
3, 29430, Note_on_c, 0, 79, 0
3, 29430, Note_on_c, 0, 70, 75
3, 29460, Note_on_c, 0, 70, 0
3, 29460, Note_on_c, 0, 71, 75
3, 29490, Note_on_c, 0, 71, 0
3, 29490, Note_on_c, 0, 74, 75
3, 29520, Note_on_c, 0, 74, 0
3, 29520, Note_on_c, 0, 66, 75
3, 29580, Note_on_c, 0, 66, 0
3, 29790, Note_on_c, 0, 69, 88
3, 29820, Note_on_c, 0, 69, 0
3, 29820, Note_on_c, 0, 67, 88
3, 29850, Note_on_c, 0, 67, 0
3, 29850, Note_on_c, 0, 66, 88
3, 29880, Note_on_c, 0, 66, 0
3, 29880, Note_on_c, 0, 64, 88
3, 30150, Note_on_c, 0, 64, 0
3, 30150, Note_on_c, 0, 67, 88
3, 30180, Note_on_c, 0, 67, 0
3, 30180, Note_on_c, 0, 66, 88
3, 30210, Note_on_c, 0, 66, 0
3, 30210, Note_on_c, 0, 64, 88
3, 30240, Note_on_c, 0, 64, 0
3, 30240, Note_on_c, 0, 66, 88
3, 30270, Note_on_c, 0, 66, 0
3, 30270, Note_on_c, 0, 68, 88
3, 30300, Note_on_c, 0, 68, 0
3, 30300, Note_on_c, 0, 70, 88
3, 30330, Note_on_c, 0, 70, 0
3, 30330, Note_on_c, 0, 71, 88
3, 30360, Note_on_c, 0, 71, 0
3, 30360, Note_on_c, 0, 73, 88
3, 30390, Note_on_c, 0, 73, 0
3, 30390, Note_on_c, 0, 74, 88
3, 30420, Note_on_c, 0, 74, 0
3, 30420, Note_on_c, 0, 76, 88
3, 30450, Note_on_c, 0, 76, 0
3, 30450, Note_on_c, 0, 79, 88
3, 30480, Note_on_c, 0, 79, 0
3, 30480, Note_on_c, 0, 78, 88
3, 30510, Note_on_c, 0, 78, 0
3, 30510, Note_on_c, 0, 76, 88
3, 30540, Note_on_c, 0, 76, 0
3, 30540, Note_on_c, 0, 74, 88
3, 30570, Note_on_c, 0, 74, 0
3, 30570, Note_on_c, 0, 73, 88
3, 30600, Note_on_c, 0, 73, 0
3, 30600, Note_on_c, 0, 74, 88
3, 30630, Note_on_c, 0, 74, 0
3, 30630, Note_on_c, 0, 73, 88
3, 30645, Note_on_c, 0, 73, 0
3, 30660, Note_on_c, 0, 76, 88
3, 30690, Note_on_c, 0, 76, 0
3, 30690, Note_on_c, 0, 74, 88
3, 30720, Note_on_c, 0, 74, 0
3, 30720, Note_on_c, 0, 73, 88
3, 30750, Note_on_c, 0, 73, 0
3, 30750, Note_on_c, 0, 71, 88
3, 30780, Note_on_c, 0, 71, 0
3, 30780, Note_on_c, 0, 73, 88
3, 30810, Note_on_c, 0, 73, 0
3, 30810, Note_on_c, 0, 71, 88
3, 30825, Note_on_c, 0, 71, 0
3, 30840, Note_on_c, 0, 74, 88
3, 30870, Note_on_c, 0, 74, 0
3, 30870, Note_on_c, 0, 73, 88
3, 30900, Note_on_c, 0, 73, 0
3, 30900, Note_on_c, 0, 71, 88
3, 30930, Note_on_c, 0, 71, 0
3, 30930, Note_on_c, 0, 70, 88
3, 30960, Note_on_c, 0, 70, 0
3, 30960, Note_on_c, 0, 71, 88
3, 31320, Note_on_c, 0, 71, 0
3, 31680, End_track
4, 0, Start_track
4, 0, MIDI_port, 0
4, 0, Title_t, "Violin I"
4, 0, Program_c, 1, 48
4, 480, Note_on_c, 1, 71, 51
4, 510, Note_on_c, 1, 71, 0
4, 540, Note_on_c, 1, 70, 51
4, 570, Note_on_c, 1, 70, 0
4, 600, Note_on_c, 1, 71, 51
4, 630, Note_on_c, 1, 71, 0
4, 840, Note_on_c, 1, 66, 51
4, 870, Note_on_c, 1, 66, 0
4, 900, Note_on_c, 1, 76, 51
4, 930, Note_on_c, 1, 76, 0
4, 960, Note_on_c, 1, 74, 51
4, 990, Note_on_c, 1, 74, 0
4, 1020, Note_on_c, 1, 73, 51
4, 1050, Note_on_c, 1, 73, 0
4, 1080, Note_on_c, 1, 74, 51
4, 1140, Note_on_c, 1, 74, 0
4, 1140, Note_on_c, 1, 73, 51
4, 1170, Note_on_c, 1, 73, 0
4, 1200, Note_on_c, 1, 71, 51
4, 1320, Note_on_c, 1, 71, 0
4, 1320, Note_on_c, 1, 69, 51
4, 1380, Note_on_c, 1, 69, 0
4, 1380, Note_on_c, 1, 67, 51
4, 1410, Note_on_c, 1, 67, 0
4, 1440, Note_on_c, 1, 66, 49
4, 1470, Note_on_c, 1, 66, 0
4, 1500, Note_on_c, 1, 64, 49
4, 1530, Note_on_c, 1, 64, 0
4, 1620, Note_on_c, 1, 62, 25
4, 1680, Note_on_c, 1, 62, 0
4, 1680, Note_on_c, 1, 61, 25
4, 1710, Note_on_c, 1, 61, 0
4, 1920, Note_on_c, 1, 74, 88
4, 1950, Note_on_c, 1, 74, 0
4, 1980, Note_on_c, 1, 71, 88
4, 2010, Note_on_c, 1, 71, 0
4, 2040, Note_on_c, 1, 67, 88
4, 2070, Note_on_c, 1, 67, 0
4, 2280, Note_on_c, 1, 76, 88
4, 2310, Note_on_c, 1, 76, 0
4, 2340, Note_on_c, 1, 73, 88
4, 2370, Note_on_c, 1, 73, 0
4, 2400, Note_on_c, 1, 69, 88
4, 2430, Note_on_c, 1, 69, 0
4, 2640, Note_on_c, 1, 78, 88
4, 2700, Note_on_c, 1, 78, 0
4, 2700, Note_on_c, 1, 71, 88
4, 2760, Note_on_c, 1, 71, 0
4, 2760, Note_on_c, 1, 76, 88
4, 2820, Note_on_c, 1, 76, 0
4, 2820, Note_on_c, 1, 78, 88
4, 2880, Note_on_c, 1, 78, 0
4, 2880, Note_on_c, 1, 79, 88
4, 2910, Note_on_c, 1, 79, 0
4, 3000, Note_on_c, 1, 76, 88
4, 3060, Note_on_c, 1, 76, 0
4, 3060, Note_on_c, 1, 73, 88
4, 3120, Note_on_c, 1, 73, 0
4, 3120, Note_on_c, 1, 74, 88
4, 3150, Note_on_c, 1, 74, 0
4, 3180, Note_on_c, 1, 76, 88
4, 3240, Note_on_c, 1, 76, 0
4, 3240, Note_on_c, 1, 78, 88
4, 3270, Note_on_c, 1, 78, 0
4, 3360, Note_on_c, 1, 74, 88
4, 3420, Note_on_c, 1, 74, 0
4, 3420, Note_on_c, 1, 71, 88
4, 3660, Note_on_c, 1, 71, 0
4, 3660, Note_on_c, 1, 76, 88
4, 3720, Note_on_c, 1, 76, 0
4, 3720, Note_on_c, 1, 73, 88
4, 3750, Note_on_c, 1, 73, 0
4, 3780, Note_on_c, 1, 70, 88
4, 3840, Note_on_c, 1, 70, 0
4, 3840, Note_on_c, 1, 73, 88
4, 3900, Note_on_c, 1, 73, 0
4, 3900, Note_on_c, 1, 76, 88
4, 3990, Note_on_c, 1, 76, 0
4, 4020, Note_on_c, 1, 70, 88
4, 4050, Note_on_c, 1, 70, 0
4, 4140, Note_on_c, 1, 76, 88
4, 4170, Note_on_c, 1, 76, 0
4, 4200, Note_on_c, 1, 66, 88
4, 4230, Note_on_c, 1, 66, 0
4, 4380, Note_on_c, 1, 76, 93
4, 4440, Note_on_c, 1, 76, 0
4, 4440, Note_on_c, 1, 74, 92
4, 4470, Note_on_c, 1, 74, 0
4, 4500, Note_on_c, 1, 73, 91
4, 4560, Note_on_c, 1, 73, 0
4, 4560, Note_on_c, 1, 74, 90
4, 4590, Note_on_c, 1, 74, 0
4, 4620, Note_on_c, 1, 73, 89
4, 4680, Note_on_c, 1, 73, 0
4, 4680, Note_on_c, 1, 71, 75
4, 4710, Note_on_c, 1, 71, 0
4, 4710, Note_on_c, 1, 73, 75
4, 4740, Note_on_c, 1, 73, 0
4, 4740, Note_on_c, 1, 74, 75
4, 4770, Note_on_c, 1, 74, 0
4, 4770, Note_on_c, 1, 76, 75
4, 4800, Note_on_c, 1, 76, 0
4, 4800, Note_on_c, 1, 78, 75
4, 4830, Note_on_c, 1, 78, 0
4, 4830, Note_on_c, 1, 74, 75
4, 4860, Note_on_c, 1, 74, 0
4, 4860, Note_on_c, 1, 76, 75
4, 4890, Note_on_c, 1, 76, 0
4, 4920, Note_on_c, 1, 73, 75
4, 4950, Note_on_c, 1, 73, 0
4, 5040, Note_on_c, 1, 74, 75
4, 5070, Note_on_c, 1, 74, 0
4, 5100, Note_on_c, 1, 71, 75
4, 5130, Note_on_c, 1, 71, 0
4, 5220, Note_on_c, 1, 79, 75
4, 5250, Note_on_c, 1, 79, 0
4, 5280, Note_on_c, 1, 76, 75
4, 5310, Note_on_c, 1, 76, 0
4, 5400, Note_on_c, 1, 78, 75
4, 5430, Note_on_c, 1, 78, 0
4, 5460, Note_on_c, 1, 74, 75
4, 5490, Note_on_c, 1, 74, 0
4, 5640, Note_on_c, 1, 70, 75
4, 5700, Note_on_c, 1, 70, 0
4, 5700, Note_on_c, 1, 71, 75
4, 5730, Note_on_c, 1, 71, 0
4, 5760, Note_on_c, 1, 73, 75
4, 5790, Note_on_c, 1, 73, 0
4, 5820, Note_on_c, 1, 76, 75
4, 5850, Note_on_c, 1, 76, 0
4, 5940, Note_on_c, 1, 67, 25
4, 6000, Note_on_c, 1, 67, 0
4, 6000, Note_on_c, 1, 66, 25
4, 6030, Note_on_c, 1, 66, 0
4, 6180, Note_on_c, 1, 70, 88
4, 6240, Note_on_c, 1, 70, 0
4, 6240, Note_on_c, 1, 71, 88
4, 6360, Note_on_c, 1, 71, 0
4, 6360, Note_on_c, 1, 74, 88
4, 6390, Note_on_c, 1, 74, 0
4, 6390, Note_on_c, 1, 73, 88
4, 6420, Note_on_c, 1, 73, 0
4, 6420, Note_on_c, 1, 71, 88
4, 6450, Note_on_c, 1, 71, 0
4, 6450, Note_on_c, 1, 70, 88
4, 6480, Note_on_c, 1, 70, 0
4, 6480, Note_on_c, 1, 71, 88
4, 6780, Note_on_c, 1, 71, 0
4, 6960, Note_on_c, 1, 66, 49
4, 6990, Note_on_c, 1, 66, 0
4, 7020, Note_on_c, 1, 70, 49
4, 7050, Note_on_c, 1, 70, 0
4, 7080, Note_on_c, 1, 71, 49
4, 7110, Note_on_c, 1, 71, 0
4, 7320, Note_on_c, 1, 66, 49
4, 7350, Note_on_c, 1, 66, 0
4, 7380, Note_on_c, 1, 76, 49
4, 7410, Note_on_c, 1, 76, 0
4, 7440, Note_on_c, 1, 74, 49
4, 7470, Note_on_c, 1, 74, 0
4, 7500, Note_on_c, 1, 73, 49
4, 7530, Note_on_c, 1, 73, 0
4, 7560, Note_on_c, 1, 74, 49
4, 7620, Note_on_c, 1, 74, 0
4, 7620, Note_on_c, 1, 73, 49
4, 7650, Note_on_c, 1, 73, 0
4, 7680, Note_on_c, 1, 71, 49
4, 7800, Note_on_c, 1, 71, 0
4, 7800, Note_on_c, 1, 69, 49
4, 7860, Note_on_c, 1, 69, 0
4, 7860, Note_on_c, 1, 67, 49
4, 7890, Note_on_c, 1, 67, 0
4, 7920, Note_on_c, 1, 66, 49
4, 7950, Note_on_c, 1, 66, 0
4, 7980, Note_on_c, 1, 64, 49
4, 8010, Note_on_c, 1, 64, 0
4, 8100, Note_on_c, 1, 62, 36
4, 8160, Note_on_c, 1, 62, 0
4, 8160, Note_on_c, 1, 61, 36
4, 8190, Note_on_c, 1, 61, 0
4, 8400, Note_on_c, 1, 69, 49
4, 8430, Note_on_c, 1, 69, 0
4, 8460, Note_on_c, 1, 74, 49
4, 8490, Note_on_c, 1, 74, 0
4, 8520, Note_on_c, 1, 72, 49
4, 8550, Note_on_c, 1, 72, 0
4, 8760, Note_on_c, 1, 74, 62
4, 8790, Note_on_c, 1, 74, 0
4, 8820, Note_on_c, 1, 71, 62
4, 8850, Note_on_c, 1, 71, 0
4, 8880, Note_on_c, 1, 69, 62
4, 8910, Note_on_c, 1, 69, 0
4, 8940, Note_on_c, 1, 71, 62
4, 8970, Note_on_c, 1, 71, 0
4, 9000, Note_on_c, 1, 67, 62
4, 9060, Note_on_c, 1, 67, 0
4, 9060, Note_on_c, 1, 66, 62
4, 9090, Note_on_c, 1, 66, 0
4, 9120, Note_on_c, 1, 64, 62
4, 9210, Note_on_c, 1, 64, 0
4, 9210, Note_on_c, 1, 67, 62
4, 9240, Note_on_c, 1, 67, 0
4, 9240, Note_on_c, 1, 71, 62
4, 9270, Note_on_c, 1, 71, 0
4, 9270, Note_on_c, 1, 75, 62
4, 9300, Note_on_c, 1, 75, 0
4, 9300, Note_on_c, 1, 76, 62
4, 9390, Note_on_c, 1, 76, 0
4, 9420, Note_on_c, 1, 70, 62
4, 9450, Note_on_c, 1, 70, 0
4, 9540, Note_on_c, 1, 67, 36
4, 9600, Note_on_c, 1, 67, 0
4, 9600, Note_on_c, 1, 66, 36
4, 9630, Note_on_c, 1, 66, 0
4, 9840, Note_on_c, 1, 78, 49
4, 9870, Note_on_c, 1, 78, 0
4, 9900, Note_on_c, 1, 74, 49
4, 9930, Note_on_c, 1, 74, 0
4, 9960, Note_on_c, 1, 71, 49
4, 9990, Note_on_c, 1, 71, 0
4, 10200, Note_on_c, 1, 77, 49
4, 10230, Note_on_c, 1, 77, 0
4, 10260, Note_on_c, 1, 78, 49
4, 10290, Note_on_c, 1, 78, 0
4, 10320, Note_on_c, 1, 73, 49
4, 10350, Note_on_c, 1, 73, 0
4, 10500, Note_on_c, 1, 77, 49
4, 10530, Note_on_c, 1, 77, 0
4, 10560, Note_on_c, 1, 78, 49
4, 10590, Note_on_c, 1, 78, 0
4, 10680, Note_on_c, 1, 71, 49
4, 10710, Note_on_c, 1, 71, 0
4, 10740, Note_on_c, 1, 69, 49
4, 10770, Note_on_c, 1, 69, 0
4, 10860, Note_on_c, 1, 68, 49
4, 10890, Note_on_c, 1, 68, 0
4, 10920, Note_on_c, 1, 73, 49
4, 10950, Note_on_c, 1, 73, 0
4, 10980, Note_on_c, 1, 69, 49
4, 11010, Note_on_c, 1, 69, 0
4, 11040, Note_on_c, 1, 66, 49
4, 11070, Note_on_c, 1, 66, 0
4, 11280, Note_on_c, 1, 66, 88
4, 11310, Note_on_c, 1, 66, 0
4, 11340, Note_on_c, 1, 65, 88
4, 11370, Note_on_c, 1, 65, 0
4, 11400, Note_on_c, 1, 66, 88
4, 11430, Note_on_c, 1, 66, 0
4, 11640, Note_on_c, 1, 61, 88
4, 11670, Note_on_c, 1, 61, 0
4, 11700, Note_on_c, 1, 71, 88
4, 11730, Note_on_c, 1, 71, 0
4, 11760, Note_on_c, 1, 69, 88
4, 11790, Note_on_c, 1, 69, 0
4, 11820, Note_on_c, 1, 68, 88
4, 11850, Note_on_c, 1, 68, 0
4, 11880, Note_on_c, 1, 69, 88
4, 11940, Note_on_c, 1, 69, 0
4, 11940, Note_on_c, 1, 68, 88
4, 11970, Note_on_c, 1, 68, 0
4, 12000, Note_on_c, 1, 66, 88
4, 12120, Note_on_c, 1, 66, 0
4, 12120, Note_on_c, 1, 64, 88
4, 12180, Note_on_c, 1, 64, 0
4, 12180, Note_on_c, 1, 62, 88
4, 12210, Note_on_c, 1, 62, 0
4, 12240, Note_on_c, 1, 61, 88
4, 12270, Note_on_c, 1, 61, 0
4, 12300, Note_on_c, 1, 59, 88
4, 12330, Note_on_c, 1, 59, 0
4, 12420, Note_on_c, 1, 63, 49
4, 12480, Note_on_c, 1, 63, 0
4, 12480, Note_on_c, 1, 64, 49
4, 12510, Note_on_c, 1, 64, 0
4, 12720, Note_on_c, 1, 69, 88
4, 12750, Note_on_c, 1, 69, 0
4, 12780, Note_on_c, 1, 66, 88
4, 12810, Note_on_c, 1, 66, 0
4, 12840, Note_on_c, 1, 62, 88
4, 12870, Note_on_c, 1, 62, 0
4, 13080, Note_on_c, 1, 71, 88
4, 13110, Note_on_c, 1, 71, 0
4, 13140, Note_on_c, 1, 68, 88
4, 13170, Note_on_c, 1, 68, 0
4, 13200, Note_on_c, 1, 64, 88
4, 13230, Note_on_c, 1, 64, 0
4, 13440, Note_on_c, 1, 73, 88
4, 13500, Note_on_c, 1, 73, 0
4, 13500, Note_on_c, 1, 66, 88
4, 13560, Note_on_c, 1, 66, 0
4, 13560, Note_on_c, 1, 71, 88
4, 13620, Note_on_c, 1, 71, 0
4, 13620, Note_on_c, 1, 73, 88
4, 13680, Note_on_c, 1, 73, 0
4, 13680, Note_on_c, 1, 74, 88
4, 13710, Note_on_c, 1, 74, 0
4, 13800, Note_on_c, 1, 71, 88
4, 13860, Note_on_c, 1, 71, 0
4, 13860, Note_on_c, 1, 68, 88
4, 13920, Note_on_c, 1, 68, 0
4, 13920, Note_on_c, 1, 69, 88
4, 13950, Note_on_c, 1, 69, 0
4, 13980, Note_on_c, 1, 71, 88
4, 14040, Note_on_c, 1, 71, 0
4, 14040, Note_on_c, 1, 73, 88
4, 14070, Note_on_c, 1, 73, 0
4, 14160, Note_on_c, 1, 69, 88
4, 14220, Note_on_c, 1, 69, 0
4, 14220, Note_on_c, 1, 66, 88
4, 14460, Note_on_c, 1, 66, 0
4, 14460, Note_on_c, 1, 71, 88
4, 14520, Note_on_c, 1, 71, 0
4, 14520, Note_on_c, 1, 68, 88
4, 14550, Note_on_c, 1, 68, 0
4, 14580, Note_on_c, 1, 65, 88
4, 14640, Note_on_c, 1, 65, 0
4, 14640, Note_on_c, 1, 68, 88
4, 14700, Note_on_c, 1, 68, 0
4, 14700, Note_on_c, 1, 71, 88
4, 14790, Note_on_c, 1, 71, 0
4, 14820, Note_on_c, 1, 65, 88
4, 14850, Note_on_c, 1, 65, 0
4, 14940, Note_on_c, 1, 71, 88
4, 14970, Note_on_c, 1, 71, 0
4, 15000, Note_on_c, 1, 61, 88
4, 15030, Note_on_c, 1, 61, 0
4, 15180, Note_on_c, 1, 71, 88
4, 15240, Note_on_c, 1, 71, 0
4, 15240, Note_on_c, 1, 69, 88
4, 15270, Note_on_c, 1, 69, 0
4, 15300, Note_on_c, 1, 68, 88
4, 15360, Note_on_c, 1, 68, 0
4, 15360, Note_on_c, 1, 69, 88
4, 15390, Note_on_c, 1, 69, 0
4, 15420, Note_on_c, 1, 68, 88
4, 15480, Note_on_c, 1, 68, 0
4, 15480, Note_on_c, 1, 66, 88
4, 15780, Note_on_c, 1, 66, 0
4, 16500, Note_on_c, 1, 64, 49
4, 16560, Note_on_c, 1, 64, 0
4, 16560, Note_on_c, 1, 66, 49
4, 16620, Note_on_c, 1, 66, 0
4, 16620, Note_on_c, 1, 68, 49
4, 16680, Note_on_c, 1, 68, 0
4, 16680, Note_on_c, 1, 69, 49
4, 16710, Note_on_c, 1, 69, 0
4, 16740, Note_on_c, 1, 64, 49
4, 16800, Note_on_c, 1, 64, 0
4, 16800, Note_on_c, 1, 74, 49
4, 16830, Note_on_c, 1, 74, 0
4, 16860, Note_on_c, 1, 73, 49
4, 16950, Note_on_c, 1, 73, 0
4, 16980, Note_on_c, 1, 71, 49
4, 17010, Note_on_c, 1, 71, 0
4, 17100, Note_on_c, 1, 69, 36
4, 17160, Note_on_c, 1, 69, 0
4, 17160, Note_on_c, 1, 68, 36
4, 17190, Note_on_c, 1, 68, 0
4, 17400, Note_on_c, 1, 68, 49
4, 17430, Note_on_c, 1, 68, 0
4, 17460, Note_on_c, 1, 69, 49
4, 17490, Note_on_c, 1, 69, 0
4, 17520, Note_on_c, 1, 73, 49
4, 17550, Note_on_c, 1, 73, 0
4, 17760, Note_on_c, 1, 70, 49
4, 17790, Note_on_c, 1, 70, 0
4, 17820, Note_on_c, 1, 71, 49
4, 17850, Note_on_c, 1, 71, 0
4, 17880, Note_on_c, 1, 74, 49
4, 17910, Note_on_c, 1, 74, 0
4, 17940, Note_on_c, 1, 76, 49
4, 17970, Note_on_c, 1, 76, 0
4, 18000, Note_on_c, 1, 73, 49
4, 18060, Note_on_c, 1, 73, 0
4, 18060, Note_on_c, 1, 74, 49
4, 18090, Note_on_c, 1, 74, 0
4, 18120, Note_on_c, 1, 67, 49
4, 18180, Note_on_c, 1, 67, 0
4, 18180, Note_on_c, 1, 66, 49
4, 18240, Note_on_c, 1, 66, 0
4, 18240, Note_on_c, 1, 69, 49
4, 18270, Note_on_c, 1, 69, 0
4, 18270, Note_on_c, 1, 67, 49
4, 18300, Note_on_c, 1, 67, 0
4, 18300, Note_on_c, 1, 66, 49
4, 18330, Note_on_c, 1, 66, 0
4, 18330, Note_on_c, 1, 64, 49
4, 18360, Note_on_c, 1, 64, 0
4, 18360, Note_on_c, 1, 62, 49
4, 18390, Note_on_c, 1, 62, 0
4, 18420, Note_on_c, 1, 66, 49
4, 18450, Note_on_c, 1, 66, 0
4, 18480, Note_on_c, 1, 69, 49
4, 18510, Note_on_c, 1, 69, 0
4, 18540, Note_on_c, 1, 67, 49
4, 18570, Note_on_c, 1, 67, 0
4, 18600, Note_on_c, 1, 64, 49
4, 18630, Note_on_c, 1, 64, 0
4, 18720, Note_on_c, 1, 66, 49
4, 18750, Note_on_c, 1, 66, 0
4, 18780, Note_on_c, 1, 62, 49
4, 18810, Note_on_c, 1, 62, 0
4, 18900, Note_on_c, 1, 71, 49
4, 18930, Note_on_c, 1, 71, 0
4, 18960, Note_on_c, 1, 67, 49
4, 18990, Note_on_c, 1, 67, 0
4, 19080, Note_on_c, 1, 69, 49
4, 19110, Note_on_c, 1, 69, 0
4, 19140, Note_on_c, 1, 66, 49
4, 19170, Note_on_c, 1, 66, 0
4, 19320, Note_on_c, 1, 71, 49
4, 19380, Note_on_c, 1, 71, 0
4, 19380, Note_on_c, 1, 76, 49
4, 19470, Note_on_c, 1, 76, 0
4, 19500, Note_on_c, 1, 67, 49
4, 19530, Note_on_c, 1, 67, 0
4, 19620, Note_on_c, 1, 67, 36
4, 19680, Note_on_c, 1, 67, 0
4, 19680, Note_on_c, 1, 61, 36
4, 19710, Note_on_c, 1, 61, 0
4, 20220, Note_on_c, 1, 69, 36
4, 20250, Note_on_c, 1, 69, 0
4, 20280, Note_on_c, 1, 74, 88
4, 20310, Note_on_c, 1, 74, 0
4, 20340, Note_on_c, 1, 78, 88
4, 20400, Note_on_c, 1, 78, 0
4, 20400, Note_on_c, 1, 81, 88
4, 20430, Note_on_c, 1, 81, 0
4, 20460, Note_on_c, 1, 79, 88
4, 20490, Note_on_c, 1, 79, 0
4, 20520, Note_on_c, 1, 78, 88
4, 20550, Note_on_c, 1, 78, 0
4, 20640, Note_on_c, 1, 74, 88
4, 20670, Note_on_c, 1, 74, 0
4, 20700, Note_on_c, 1, 73, 88
4, 20730, Note_on_c, 1, 73, 0
4, 20760, Note_on_c, 1, 74, 88
4, 20790, Note_on_c, 1, 74, 0
4, 21000, Note_on_c, 1, 69, 88
4, 21030, Note_on_c, 1, 69, 0
4, 21060, Note_on_c, 1, 79, 88
4, 21120, Note_on_c, 1, 79, 0
4, 21120, Note_on_c, 1, 78, 88
4, 21150, Note_on_c, 1, 78, 0
4, 21180, Note_on_c, 1, 76, 88
4, 21210, Note_on_c, 1, 76, 0
4, 21240, Note_on_c, 1, 78, 88
4, 21300, Note_on_c, 1, 78, 0
4, 21300, Note_on_c, 1, 76, 88
4, 21330, Note_on_c, 1, 76, 0
4, 21360, Note_on_c, 1, 74, 88
4, 21480, Note_on_c, 1, 74, 0
4, 21480, Note_on_c, 1, 72, 88
4, 21510, Note_on_c, 1, 72, 0
4, 21540, Note_on_c, 1, 71, 88
4, 21630, Note_on_c, 1, 71, 0
4, 21630, Note_on_c, 1, 67, 88
4, 21660, Note_on_c, 1, 67, 0
4, 21660, Note_on_c, 1, 69, 88
4, 21690, Note_on_c, 1, 69, 0
4, 21780, Note_on_c, 1, 73, 49
4, 21840, Note_on_c, 1, 73, 0
4, 21840, Note_on_c, 1, 74, 49
4, 21870, Note_on_c, 1, 74, 0
4, 22080, Note_on_c, 1, 79, 75
4, 22110, Note_on_c, 1, 79, 0
4, 22140, Note_on_c, 1, 73, 75
4, 22170, Note_on_c, 1, 73, 0
4, 22200, Note_on_c, 1, 76, 75
4, 22230, Note_on_c, 1, 76, 0
4, 22440, Note_on_c, 1, 79, 88
4, 22470, Note_on_c, 1, 79, 0
4, 22500, Note_on_c, 1, 69, 88
4, 22530, Note_on_c, 1, 69, 0
4, 22560, Note_on_c, 1, 73, 88
4, 22590, Note_on_c, 1, 73, 0
4, 22740, Note_on_c, 1, 73, 88
4, 22800, Note_on_c, 1, 73, 0
4, 22800, Note_on_c, 1, 74, 88
4, 22920, Note_on_c, 1, 74, 0
4, 22920, Note_on_c, 1, 78, 88
4, 22950, Note_on_c, 1, 78, 0
4, 22950, Note_on_c, 1, 76, 88
4, 22980, Note_on_c, 1, 76, 0
4, 22980, Note_on_c, 1, 74, 88
4, 23010, Note_on_c, 1, 74, 0
4, 23010, Note_on_c, 1, 73, 88
4, 23040, Note_on_c, 1, 73, 0
4, 23040, Note_on_c, 1, 74, 88
4, 23340, Note_on_c, 1, 74, 0
4, 23880, Note_on_c, 1, 75, 49
4, 23910, Note_on_c, 1, 75, 0
4, 23940, Note_on_c, 1, 76, 49
4, 23970, Note_on_c, 1, 76, 0
4, 24000, Note_on_c, 1, 79, 49
4, 24030, Note_on_c, 1, 79, 0
4, 24540, Note_on_c, 1, 76, 49
4, 24570, Note_on_c, 1, 76, 0
4, 24600, Note_on_c, 1, 78, 49
4, 24630, Note_on_c, 1, 78, 0
4, 24660, Note_on_c, 1, 66, 49
4, 24690, Note_on_c, 1, 66, 0
4, 24960, Note_on_c, 1, 71, 49
4, 24990, Note_on_c, 1, 71, 0
4, 25020, Note_on_c, 1, 70, 49
4, 25050, Note_on_c, 1, 70, 0
4, 25080, Note_on_c, 1, 71, 49
4, 25110, Note_on_c, 1, 71, 0
4, 25320, Note_on_c, 1, 66, 49
4, 25350, Note_on_c, 1, 66, 0
4, 25380, Note_on_c, 1, 76, 49
4, 25410, Note_on_c, 1, 76, 0
4, 25440, Note_on_c, 1, 74, 49
4, 25470, Note_on_c, 1, 74, 0
4, 25500, Note_on_c, 1, 73, 49
4, 25530, Note_on_c, 1, 73, 0
4, 25560, Note_on_c, 1, 74, 49
4, 25620, Note_on_c, 1, 74, 0
4, 25620, Note_on_c, 1, 73, 49
4, 25650, Note_on_c, 1, 73, 0
4, 25680, Note_on_c, 1, 71, 49
4, 25800, Note_on_c, 1, 71, 0
4, 25800, Note_on_c, 1, 69, 49
4, 25860, Note_on_c, 1, 69, 0
4, 25860, Note_on_c, 1, 67, 49
4, 25890, Note_on_c, 1, 67, 0
4, 25920, Note_on_c, 1, 66, 49
4, 25950, Note_on_c, 1, 66, 0
4, 25980, Note_on_c, 1, 64, 49
4, 26010, Note_on_c, 1, 64, 0
4, 26100, Note_on_c, 1, 62, 36
4, 26160, Note_on_c, 1, 62, 0
4, 26160, Note_on_c, 1, 61, 36
4, 26190, Note_on_c, 1, 61, 0
4, 26460, Note_on_c, 1, 70, 36
4, 26520, Note_on_c, 1, 70, 0
4, 26520, Note_on_c, 1, 71, 36
4, 26550, Note_on_c, 1, 71, 0
4, 26760, Note_on_c, 1, 77, 36
4, 26790, Note_on_c, 1, 77, 0
4, 26820, Note_on_c, 1, 78, 36
4, 26850, Note_on_c, 1, 78, 0
4, 26880, Note_on_c, 1, 70, 36
4, 26910, Note_on_c, 1, 70, 0
4, 27300, Note_on_c, 1, 66, 49
4, 27330, Note_on_c, 1, 66, 0
4, 27360, Note_on_c, 1, 71, 49
4, 27390, Note_on_c, 1, 71, 0
4, 27390, Note_on_c, 1, 69, 49
4, 27405, Note_on_c, 1, 69, 0
4, 27420, Note_on_c, 1, 72, 49
4, 27450, Note_on_c, 1, 72, 0
4, 27450, Note_on_c, 1, 71, 49
4, 27465, Note_on_c, 1, 71, 0
4, 27480, Note_on_c, 1, 69, 49
4, 27510, Note_on_c, 1, 69, 0
4, 27510, Note_on_c, 1, 67, 49
4, 27525, Note_on_c, 1, 67, 0
4, 27540, Note_on_c, 1, 69, 49
4, 27570, Note_on_c, 1, 69, 0
4, 27570, Note_on_c, 1, 67, 49
4, 27585, Note_on_c, 1, 67, 0
4, 27600, Note_on_c, 1, 71, 49
4, 27630, Note_on_c, 1, 71, 0
4, 27630, Note_on_c, 1, 69, 49
4, 27645, Note_on_c, 1, 69, 0
4, 27660, Note_on_c, 1, 67, 49
4, 27690, Note_on_c, 1, 67, 0
4, 27690, Note_on_c, 1, 66, 49
4, 27705, Note_on_c, 1, 66, 0
4, 27720, Note_on_c, 1, 64, 49
4, 27780, Note_on_c, 1, 64, 0
4, 27780, Note_on_c, 1, 64, 49
4, 27840, Note_on_c, 1, 64, 0
4, 27840, Note_on_c, 1, 64, 49
4, 27870, Note_on_c, 1, 64, 0
4, 27900, Note_on_c, 1, 63, 49
4, 27960, Note_on_c, 1, 63, 0
4, 27960, Note_on_c, 1, 59, 49
4, 28020, Note_on_c, 1, 59, 0
4, 28020, Note_on_c, 1, 59, 49
4, 28050, Note_on_c, 1, 59, 0
4, 28080, Note_on_c, 1, 59, 49
4, 28140, Note_on_c, 1, 59, 0
4, 28140, Note_on_c, 1, 59, 49
4, 28200, Note_on_c, 1, 59, 0
4, 28200, Note_on_c, 1, 59, 49
4, 28230, Note_on_c, 1, 59, 0
4, 28260, Note_on_c, 1, 59, 49
4, 28320, Note_on_c, 1, 59, 0
4, 28320, Note_on_c, 1, 59, 49
4, 28380, Note_on_c, 1, 59, 0
4, 28380, Note_on_c, 1, 59, 49
4, 28410, Note_on_c, 1, 59, 0
4, 28440, Control_c, 1, 7, 60
4, 28440, Note_on_c, 1, 59, 88
4, 28445, Control_c, 1, 7, 61
4, 28450, Control_c, 1, 7, 62
4, 28456, Control_c, 1, 7, 63
4, 28461, Control_c, 1, 7, 64
4, 28466, Control_c, 1, 7, 65
4, 28470, Note_on_c, 1, 59, 0
4, 28472, Control_c, 1, 7, 66
4, 28477, Control_c, 1, 7, 67
4, 28483, Control_c, 1, 7, 68
4, 28488, Control_c, 1, 7, 69
4, 28493, Control_c, 1, 7, 70
4, 28499, Control_c, 1, 7, 71
4, 28500, Note_on_c, 1, 73, 88
4, 28504, Control_c, 1, 7, 72
4, 28509, Control_c, 1, 7, 73
4, 28515, Control_c, 1, 7, 74
4, 28520, Control_c, 1, 7, 75
4, 28526, Control_c, 1, 7, 76
4, 28531, Control_c, 1, 7, 77
4, 28536, Control_c, 1, 7, 78
4, 28542, Control_c, 1, 7, 79
4, 28547, Control_c, 1, 7, 80
4, 28552, Control_c, 1, 7, 81
4, 28558, Control_c, 1, 7, 82
4, 28560, Note_on_c, 1, 73, 0
4, 28560, Note_on_c, 1, 74, 88
4, 28563, Control_c, 1, 7, 83
4, 28568, Control_c, 1, 7, 84
4, 28574, Control_c, 1, 7, 85
4, 28579, Control_c, 1, 7, 86
4, 28585, Control_c, 1, 7, 87
4, 28590, Note_on_c, 1, 74, 0
4, 28590, Control_c, 1, 7, 88
4, 28595, Control_c, 1, 7, 89
4, 28601, Control_c, 1, 7, 90
4, 28606, Control_c, 1, 7, 91
4, 28611, Control_c, 1, 7, 92
4, 28617, Control_c, 1, 7, 93
4, 28620, Note_on_c, 1, 76, 88
4, 28622, Control_c, 1, 7, 94
4, 28628, Control_c, 1, 7, 95
4, 28633, Control_c, 1, 7, 96
4, 28638, Control_c, 1, 7, 97
4, 28644, Control_c, 1, 7, 98
4, 28649, Control_c, 1, 7, 99
4, 28654, Control_c, 1, 7, 100
4, 28660, Control_c, 1, 7, 101
4, 28665, Control_c, 1, 7, 102
4, 28671, Control_c, 1, 7, 103
4, 28676, Control_c, 1, 7, 104
4, 28680, Note_on_c, 1, 76, 0
4, 28680, Note_on_c, 1, 78, 88
4, 28681, Control_c, 1, 7, 105
4, 28687, Control_c, 1, 7, 106
4, 28692, Control_c, 1, 7, 107
4, 28697, Control_c, 1, 7, 108
4, 28703, Control_c, 1, 7, 109
4, 28708, Control_c, 1, 7, 110
4, 28713, Control_c, 1, 7, 111
4, 28719, Control_c, 1, 7, 112
4, 28724, Control_c, 1, 7, 113
4, 28730, Control_c, 1, 7, 114
4, 28735, Control_c, 1, 7, 115
4, 28740, Note_on_c, 1, 78, 0
4, 28740, Note_on_c, 1, 79, 88
4, 28740, Control_c, 1, 7, 116
4, 28746, Control_c, 1, 7, 117
4, 28751, Control_c, 1, 7, 118
4, 28756, Control_c, 1, 7, 119
4, 28762, Control_c, 1, 7, 120
4, 28767, Control_c, 1, 7, 121
4, 28770, Note_on_c, 1, 79, 0
4, 28773, Control_c, 1, 7, 122
4, 28778, Control_c, 1, 7, 123
4, 28783, Control_c, 1, 7, 124
4, 28789, Control_c, 1, 7, 125
4, 28794, Control_c, 1, 7, 126
4, 28800, Note_on_c, 1, 79, 88
4, 28830, Note_on_c, 1, 79, 0
4, 29940, Note_on_c, 1, 76, 88
4, 30000, Note_on_c, 1, 76, 0
4, 30000, Note_on_c, 1, 73, 88
4, 30060, Note_on_c, 1, 73, 0
4, 30060, Note_on_c, 1, 70, 88
4, 30120, Note_on_c, 1, 70, 0
4, 30120, Note_on_c, 1, 73, 88
4, 30180, Note_on_c, 1, 73, 0
4, 30180, Note_on_c, 1, 76, 88
4, 30270, Note_on_c, 1, 76, 0
4, 30300, Note_on_c, 1, 70, 88
4, 30330, Note_on_c, 1, 70, 0
4, 30420, Note_on_c, 1, 76, 88
4, 30450, Note_on_c, 1, 76, 0
4, 30480, Note_on_c, 1, 66, 88
4, 30510, Note_on_c, 1, 66, 0
4, 30660, Note_on_c, 1, 76, 88
4, 30720, Note_on_c, 1, 76, 0
4, 30720, Note_on_c, 1, 74, 88
4, 30780, Note_on_c, 1, 74, 0
4, 30780, Note_on_c, 1, 73, 88
4, 30840, Note_on_c, 1, 73, 0
4, 30840, Note_on_c, 1, 74, 88
4, 30870, Note_on_c, 1, 74, 0
4, 30900, Note_on_c, 1, 73, 88
4, 30930, Note_on_c, 1, 73, 0
4, 30960, Note_on_c, 1, 71, 88
4, 31320, Note_on_c, 1, 71, 0
4, 31680, End_track
5, 0, Start_track
5, 0, MIDI_port, 0
5, 0, Title_t, "Violin II"
5, 0, Program_c, 2, 48
5, 480, Note_on_c, 2, 66, 51
5, 510, Note_on_c, 2, 66, 0
5, 540, Note_on_c, 2, 64, 51
5, 570, Note_on_c, 2, 64, 0
5, 600, Note_on_c, 2, 62, 51
5, 630, Note_on_c, 2, 62, 0
5, 840, Note_on_c, 2, 73, 51
5, 870, Note_on_c, 2, 73, 0
5, 900, Note_on_c, 2, 70, 51
5, 930, Note_on_c, 2, 70, 0
5, 960, Note_on_c, 2, 71, 51
5, 990, Note_on_c, 2, 71, 0
5, 1020, Note_on_c, 2, 73, 51
5, 1050, Note_on_c, 2, 73, 0
5, 1080, Note_on_c, 2, 71, 51
5, 1140, Note_on_c, 2, 71, 0
5, 1140, Note_on_c, 2, 67, 51
5, 1170, Note_on_c, 2, 67, 0
5, 1200, Note_on_c, 2, 66, 51
5, 1260, Note_on_c, 2, 66, 0
5, 1260, Note_on_c, 2, 64, 51
5, 1380, Note_on_c, 2, 64, 0
5, 1380, Note_on_c, 2, 64, 51
5, 1410, Note_on_c, 2, 64, 0
5, 1440, Note_on_c, 2, 62, 49
5, 1470, Note_on_c, 2, 62, 0
5, 1500, Note_on_c, 2, 61, 49
5, 1530, Note_on_c, 2, 61, 0
5, 1620, Note_on_c, 2, 59, 25
5, 1680, Note_on_c, 2, 59, 0
5, 1680, Note_on_c, 2, 57, 25
5, 1710, Note_on_c, 2, 57, 0
5, 1920, Note_on_c, 2, 69, 88
5, 1950, Note_on_c, 2, 69, 0
5, 1980, Note_on_c, 2, 67, 88
5, 2010, Note_on_c, 2, 67, 0
5, 2040, Note_on_c, 2, 62, 88
5, 2070, Note_on_c, 2, 62, 0
5, 2280, Note_on_c, 2, 71, 88
5, 2310, Note_on_c, 2, 71, 0
5, 2340, Note_on_c, 2, 69, 88
5, 2370, Note_on_c, 2, 69, 0
5, 2400, Note_on_c, 2, 64, 88
5, 2430, Note_on_c, 2, 64, 0
5, 2640, Note_on_c, 2, 71, 88
5, 2700, Note_on_c, 2, 71, 0
5, 2700, Note_on_c, 2, 71, 88
5, 2820, Note_on_c, 2, 71, 0
5, 2820, Note_on_c, 2, 75, 88
5, 2880, Note_on_c, 2, 75, 0
5, 2880, Note_on_c, 2, 76, 88
5, 2910, Note_on_c, 2, 76, 0
5, 3000, Note_on_c, 2, 64, 88
5, 3060, Note_on_c, 2, 64, 0
5, 3060, Note_on_c, 2, 69, 88
5, 3120, Note_on_c, 2, 69, 0
5, 3120, Note_on_c, 2, 74, 88
5, 3150, Note_on_c, 2, 74, 0
5, 3180, Note_on_c, 2, 73, 88
5, 3240, Note_on_c, 2, 73, 0
5, 3240, Note_on_c, 2, 74, 88
5, 3270, Note_on_c, 2, 74, 0
5, 3540, Note_on_c, 2, 67, 88
5, 3600, Note_on_c, 2, 67, 0
5, 3600, Note_on_c, 2, 64, 88
5, 3840, Note_on_c, 2, 64, 0
5, 3840, Note_on_c, 2, 67, 88
5, 3900, Note_on_c, 2, 67, 0
5, 3900, Note_on_c, 2, 61, 88
5, 3990, Note_on_c, 2, 61, 0
5, 4020, Note_on_c, 2, 64, 88
5, 4050, Note_on_c, 2, 64, 0
5, 4140, Note_on_c, 2, 70, 88
5, 4170, Note_on_c, 2, 70, 0
5, 4200, Note_on_c, 2, 61, 88
5, 4230, Note_on_c, 2, 61, 0
5, 4380, Note_on_c, 2, 71, 93
5, 4440, Note_on_c, 2, 71, 0
5, 4440, Note_on_c, 2, 66, 92
5, 4470, Note_on_c, 2, 66, 0
5, 4500, Note_on_c, 2, 67, 91
5, 4560, Note_on_c, 2, 67, 0
5, 4560, Note_on_c, 2, 66, 90
5, 4590, Note_on_c, 2, 66, 0
5, 4620, Note_on_c, 2, 66, 89
5, 4740, Note_on_c, 2, 66, 0
5, 4740, Note_on_c, 2, 71, 75
5, 4800, Note_on_c, 2, 71, 0
5, 4800, Note_on_c, 2, 74, 75
5, 4830, Note_on_c, 2, 74, 0
5, 4860, Note_on_c, 2, 71, 75
5, 4890, Note_on_c, 2, 71, 0
5, 4920, Note_on_c, 2, 67, 75
5, 4950, Note_on_c, 2, 67, 0
5, 5040, Note_on_c, 2, 71, 75
5, 5070, Note_on_c, 2, 71, 0
5, 5100, Note_on_c, 2, 66, 75
5, 5130, Note_on_c, 2, 66, 0
5, 5220, Note_on_c, 2, 71, 75
5, 5250, Note_on_c, 2, 71, 0
5, 5280, Note_on_c, 2, 73, 75
5, 5310, Note_on_c, 2, 73, 0
5, 5400, Note_on_c, 2, 71, 75
5, 5430, Note_on_c, 2, 71, 0
5, 5460, Note_on_c, 2, 66, 75
5, 5490, Note_on_c, 2, 66, 0
5, 5640, Note_on_c, 2, 64, 75
5, 5700, Note_on_c, 2, 64, 0
5, 5700, Note_on_c, 2, 67, 75
5, 5730, Note_on_c, 2, 67, 0
5, 5760, Note_on_c, 2, 66, 75
5, 5790, Note_on_c, 2, 66, 0
5, 5820, Note_on_c, 2, 73, 75
5, 5850, Note_on_c, 2, 73, 0
5, 5940, Note_on_c, 2, 62, 25
5, 6000, Note_on_c, 2, 62, 0
5, 6000, Note_on_c, 2, 61, 25
5, 6030, Note_on_c, 2, 61, 0
5, 6180, Note_on_c, 2, 64, 88
5, 6240, Note_on_c, 2, 64, 0
5, 6240, Note_on_c, 2, 66, 88
5, 6300, Note_on_c, 2, 66, 0
5, 6300, Note_on_c, 2, 67, 88
5, 6360, Note_on_c, 2, 67, 0
5, 6360, Note_on_c, 2, 66, 88
5, 6420, Note_on_c, 2, 66, 0
5, 6420, Note_on_c, 2, 66, 88
5, 6480, Note_on_c, 2, 66, 0
5, 6480, Note_on_c, 2, 66, 88
5, 6780, Note_on_c, 2, 66, 0
5, 6960, Note_on_c, 2, 62, 49
5, 6990, Note_on_c, 2, 62, 0
5, 7020, Note_on_c, 2, 64, 49
5, 7050, Note_on_c, 2, 64, 0
5, 7080, Note_on_c, 2, 66, 49
5, 7110, Note_on_c, 2, 66, 0
5, 7320, Note_on_c, 2, 66, 49
5, 7350, Note_on_c, 2, 66, 0
5, 7380, Note_on_c, 2, 66, 49
5, 7410, Note_on_c, 2, 66, 0
5, 7440, Note_on_c, 2, 70, 49
5, 7470, Note_on_c, 2, 70, 0
5, 7500, Note_on_c, 2, 66, 49
5, 7530, Note_on_c, 2, 66, 0
5, 7560, Note_on_c, 2, 66, 49
5, 7620, Note_on_c, 2, 66, 0
5, 7620, Note_on_c, 2, 67, 49
5, 7650, Note_on_c, 2, 67, 0
5, 7680, Note_on_c, 2, 66, 49
5, 7740, Note_on_c, 2, 66, 0
5, 7740, Note_on_c, 2, 64, 49
5, 7860, Note_on_c, 2, 64, 0
5, 7860, Note_on_c, 2, 64, 49
5, 7890, Note_on_c, 2, 64, 0
5, 7920, Note_on_c, 2, 62, 49
5, 7950, Note_on_c, 2, 62, 0
5, 7980, Note_on_c, 2, 61, 49
5, 8010, Note_on_c, 2, 61, 0
5, 8100, Note_on_c, 2, 59, 36
5, 8160, Note_on_c, 2, 59, 0
5, 8160, Note_on_c, 2, 57, 36
5, 8190, Note_on_c, 2, 57, 0
5, 8400, Note_on_c, 2, 66, 49
5, 8430, Note_on_c, 2, 66, 0
5, 8460, Note_on_c, 2, 69, 49
5, 8490, Note_on_c, 2, 69, 0
5, 8520, Note_on_c, 2, 62, 49
5, 8550, Note_on_c, 2, 62, 0
5, 8760, Note_on_c, 2, 71, 62
5, 8790, Note_on_c, 2, 71, 0
5, 8820, Note_on_c, 2, 67, 62
5, 8850, Note_on_c, 2, 67, 0
5, 8880, Note_on_c, 2, 66, 62
5, 8910, Note_on_c, 2, 66, 0
5, 8940, Note_on_c, 2, 63, 62
5, 8970, Note_on_c, 2, 63, 0
5, 9000, Note_on_c, 2, 64, 62
5, 9060, Note_on_c, 2, 64, 0
5, 9060, Note_on_c, 2, 62, 62
5, 9090, Note_on_c, 2, 62, 0
5, 9120, Note_on_c, 2, 61, 62
5, 9180, Note_on_c, 2, 61, 0
5, 9180, Note_on_c, 2, 67, 62
5, 9300, Note_on_c, 2, 67, 0
5, 9300, Note_on_c, 2, 67, 62
5, 9360, Note_on_c, 2, 67, 0
5, 9360, Note_on_c, 2, 66, 62
5, 9390, Note_on_c, 2, 66, 0
5, 9420, Note_on_c, 2, 61, 62
5, 9450, Note_on_c, 2, 61, 0
5, 9540, Note_on_c, 2, 62, 36
5, 9600, Note_on_c, 2, 62, 0
5, 9600, Note_on_c, 2, 61, 36
5, 9630, Note_on_c, 2, 61, 0
5, 9840, Note_on_c, 2, 74, 49
5, 9870, Note_on_c, 2, 74, 0
5, 9900, Note_on_c, 2, 71, 49
5, 9930, Note_on_c, 2, 71, 0
5, 9960, Note_on_c, 2, 66, 49
5, 9990, Note_on_c, 2, 66, 0
5, 10200, Note_on_c, 2, 73, 49
5, 10230, Note_on_c, 2, 73, 0
5, 10260, Note_on_c, 2, 73, 49
5, 10290, Note_on_c, 2, 73, 0
5, 10320, Note_on_c, 2, 69, 49
5, 10350, Note_on_c, 2, 69, 0
5, 10500, Note_on_c, 2, 71, 49
5, 10530, Note_on_c, 2, 71, 0
5, 10560, Note_on_c, 2, 71, 49
5, 10590, Note_on_c, 2, 71, 0
5, 10680, Note_on_c, 2, 68, 49
5, 10710, Note_on_c, 2, 68, 0
5, 10740, Note_on_c, 2, 66, 49
5, 10770, Note_on_c, 2, 66, 0
5, 10860, Note_on_c, 2, 65, 49
5, 10890, Note_on_c, 2, 65, 0
5, 10920, Note_on_c, 2, 68, 49
5, 10950, Note_on_c, 2, 68, 0
5, 10980, Note_on_c, 2, 66, 49
5, 11010, Note_on_c, 2, 66, 0
5, 11040, Note_on_c, 2, 61, 49
5, 11070, Note_on_c, 2, 61, 0
5, 11280, Note_on_c, 2, 61, 88
5, 11310, Note_on_c, 2, 61, 0
5, 11340, Note_on_c, 2, 59, 88
5, 11370, Note_on_c, 2, 59, 0
5, 11400, Note_on_c, 2, 61, 88
5, 11430, Note_on_c, 2, 61, 0
5, 11640, Note_on_c, 2, 68, 88
5, 11670, Note_on_c, 2, 68, 0
5, 11700, Note_on_c, 2, 65, 88
5, 11730, Note_on_c, 2, 65, 0
5, 11760, Note_on_c, 2, 66, 88
5, 11790, Note_on_c, 2, 66, 0
5, 11820, Note_on_c, 2, 68, 88
5, 11850, Note_on_c, 2, 68, 0
5, 11880, Note_on_c, 2, 66, 88
5, 11940, Note_on_c, 2, 66, 0
5, 11940, Note_on_c, 2, 62, 88
5, 11970, Note_on_c, 2, 62, 0
5, 12000, Note_on_c, 2, 61, 88
5, 12060, Note_on_c, 2, 61, 0
5, 12060, Note_on_c, 2, 59, 88
5, 12180, Note_on_c, 2, 59, 0
5, 12180, Note_on_c, 2, 59, 88
5, 12210, Note_on_c, 2, 59, 0
5, 12240, Note_on_c, 2, 57, 88
5, 12270, Note_on_c, 2, 57, 0
5, 12300, Note_on_c, 2, 56, 88
5, 12330, Note_on_c, 2, 56, 0
5, 12420, Note_on_c, 2, 57, 49
5, 12480, Note_on_c, 2, 57, 0
5, 12480, Note_on_c, 2, 59, 49
5, 12510, Note_on_c, 2, 59, 0
5, 12720, Note_on_c, 2, 64, 88
5, 12750, Note_on_c, 2, 64, 0
5, 12780, Note_on_c, 2, 62, 88
5, 12810, Note_on_c, 2, 62, 0
5, 12840, Note_on_c, 2, 57, 88
5, 12870, Note_on_c, 2, 57, 0
5, 13080, Note_on_c, 2, 66, 88
5, 13110, Note_on_c, 2, 66, 0
5, 13140, Note_on_c, 2, 64, 88
5, 13170, Note_on_c, 2, 64, 0
5, 13200, Note_on_c, 2, 59, 88
5, 13230, Note_on_c, 2, 59, 0
5, 13440, Note_on_c, 2, 66, 88
5, 13500, Note_on_c, 2, 66, 0
5, 13500, Note_on_c, 2, 66, 88
5, 13620, Note_on_c, 2, 66, 0
5, 13620, Note_on_c, 2, 70, 88
5, 13680, Note_on_c, 2, 70, 0
5, 13680, Note_on_c, 2, 71, 88
5, 13710, Note_on_c, 2, 71, 0
5, 13800, Note_on_c, 2, 66, 88
5, 13860, Note_on_c, 2, 66, 0
5, 13860, Note_on_c, 2, 64, 88
5, 13920, Note_on_c, 2, 64, 0
5, 13920, Note_on_c, 2, 69, 88
5, 13950, Note_on_c, 2, 69, 0
5, 13980, Note_on_c, 2, 68, 88
5, 14040, Note_on_c, 2, 68, 0
5, 14040, Note_on_c, 2, 69, 88
5, 14070, Note_on_c, 2, 69, 0
5, 14340, Note_on_c, 2, 62, 88
5, 14400, Note_on_c, 2, 62, 0
5, 14400, Note_on_c, 2, 59, 88
5, 14640, Note_on_c, 2, 59, 0
5, 14640, Note_on_c, 2, 62, 88
5, 14700, Note_on_c, 2, 62, 0
5, 14700, Note_on_c, 2, 56, 88
5, 14790, Note_on_c, 2, 56, 0
5, 14820, Note_on_c, 2, 59, 88
5, 14850, Note_on_c, 2, 59, 0
5, 14940, Note_on_c, 2, 65, 88
5, 14970, Note_on_c, 2, 65, 0
5, 15000, Note_on_c, 2, 56, 88
5, 15030, Note_on_c, 2, 56, 0
5, 15180, Note_on_c, 2, 66, 88
5, 15240, Note_on_c, 2, 66, 0
5, 15240, Note_on_c, 2, 61, 88
5, 15270, Note_on_c, 2, 61, 0
5, 15300, Note_on_c, 2, 62, 88
5, 15360, Note_on_c, 2, 62, 0
5, 15360, Note_on_c, 2, 61, 88
5, 15390, Note_on_c, 2, 61, 0
5, 15420, Note_on_c, 2, 61, 88
5, 15480, Note_on_c, 2, 61, 0
5, 15480, Note_on_c, 2, 61, 88
5, 15780, Note_on_c, 2, 61, 0
5, 16500, Note_on_c, 2, 64, 49
5, 16620, Note_on_c, 2, 64, 0
5, 16620, Note_on_c, 2, 62, 49
5, 16680, Note_on_c, 2, 62, 0
5, 16680, Note_on_c, 2, 64, 49
5, 16800, Note_on_c, 2, 64, 0
5, 16800, Note_on_c, 2, 71, 49
5, 16860, Note_on_c, 2, 71, 0
5, 16860, Note_on_c, 2, 69, 49
5, 16950, Note_on_c, 2, 69, 0
5, 16980, Note_on_c, 2, 68, 49
5, 17010, Note_on_c, 2, 68, 0
5, 17100, Note_on_c, 2, 66, 36
5, 17160, Note_on_c, 2, 66, 0
5, 17160, Note_on_c, 2, 64, 36
5, 17190, Note_on_c, 2, 64, 0
5, 17400, Note_on_c, 2, 64, 49
5, 17430, Note_on_c, 2, 64, 0
5, 17460, Note_on_c, 2, 64, 49
5, 17490, Note_on_c, 2, 64, 0
5, 17520, Note_on_c, 2, 69, 49
5, 17550, Note_on_c, 2, 69, 0
5, 17760, Note_on_c, 2, 66, 49
5, 17790, Note_on_c, 2, 66, 0
5, 17820, Note_on_c, 2, 66, 49
5, 17850, Note_on_c, 2, 66, 0
5, 17880, Note_on_c, 2, 71, 49
5, 17910, Note_on_c, 2, 71, 0
5, 17940, Note_on_c, 2, 71, 49
5, 17970, Note_on_c, 2, 71, 0
5, 18000, Note_on_c, 2, 69, 49
5, 18060, Note_on_c, 2, 69, 0
5, 18060, Note_on_c, 2, 69, 49
5, 18090, Note_on_c, 2, 69, 0
5, 18120, Note_on_c, 2, 62, 49
5, 18240, Note_on_c, 2, 62, 0
5, 18240, Note_on_c, 2, 66, 49
5, 18270, Note_on_c, 2, 66, 0
5, 18270, Note_on_c, 2, 64, 49
5, 18300, Note_on_c, 2, 64, 0
5, 18300, Note_on_c, 2, 62, 49
5, 18330, Note_on_c, 2, 62, 0
5, 18330, Note_on_c, 2, 61, 49
5, 18360, Note_on_c, 2, 61, 0
5, 18360, Note_on_c, 2, 62, 49
5, 18390, Note_on_c, 2, 62, 0
5, 18420, Note_on_c, 2, 62, 49
5, 18450, Note_on_c, 2, 62, 0
5, 18480, Note_on_c, 2, 66, 49
5, 18510, Note_on_c, 2, 66, 0
5, 18540, Note_on_c, 2, 62, 49
5, 18570, Note_on_c, 2, 62, 0
5, 18600, Note_on_c, 2, 59, 49
5, 18630, Note_on_c, 2, 59, 0
5, 18720, Note_on_c, 2, 62, 49
5, 18750, Note_on_c, 2, 62, 0
5, 18780, Note_on_c, 2, 57, 49
5, 18810, Note_on_c, 2, 57, 0
5, 18900, Note_on_c, 2, 59, 49
5, 18930, Note_on_c, 2, 59, 0
5, 18960, Note_on_c, 2, 64, 49
5, 18990, Note_on_c, 2, 64, 0
5, 19080, Note_on_c, 2, 57, 49
5, 19110, Note_on_c, 2, 57, 0
5, 19140, Note_on_c, 2, 62, 49
5, 19170, Note_on_c, 2, 62, 0
5, 19320, Note_on_c, 2, 64, 49
5, 19380, Note_on_c, 2, 64, 0
5, 19380, Note_on_c, 2, 67, 49
5, 19470, Note_on_c, 2, 67, 0
5, 19500, Note_on_c, 2, 61, 49
5, 19530, Note_on_c, 2, 61, 0
5, 19620, Note_on_c, 2, 61, 36
5, 19680, Note_on_c, 2, 61, 0
5, 19680, Note_on_c, 2, 57, 36
5, 19710, Note_on_c, 2, 57, 0
5, 20220, Note_on_c, 2, 66, 36
5, 20250, Note_on_c, 2, 66, 0
5, 20280, Note_on_c, 2, 69, 88
5, 20310, Note_on_c, 2, 69, 0
5, 20340, Note_on_c, 2, 74, 88
5, 20400, Note_on_c, 2, 74, 0
5, 20400, Note_on_c, 2, 78, 88
5, 20430, Note_on_c, 2, 78, 0
5, 20460, Note_on_c, 2, 76, 88
5, 20490, Note_on_c, 2, 76, 0
5, 20520, Note_on_c, 2, 74, 88
5, 20550, Note_on_c, 2, 74, 0
5, 20640, Note_on_c, 2, 69, 88
5, 20670, Note_on_c, 2, 69, 0
5, 20700, Note_on_c, 2, 67, 88
5, 20730, Note_on_c, 2, 67, 0
5, 20760, Note_on_c, 2, 66, 88
5, 20790, Note_on_c, 2, 66, 0
5, 21000, Note_on_c, 2, 69, 88
5, 21030, Note_on_c, 2, 69, 0
5, 21060, Note_on_c, 2, 73, 88
5, 21120, Note_on_c, 2, 73, 0
5, 21120, Note_on_c, 2, 74, 88
5, 21150, Note_on_c, 2, 74, 0
5, 21180, Note_on_c, 2, 76, 88
5, 21210, Note_on_c, 2, 76, 0
5, 21240, Note_on_c, 2, 74, 88
5, 21360, Note_on_c, 2, 74, 0
5, 21360, Note_on_c, 2, 67, 88
5, 21390, Note_on_c, 2, 67, 0
5, 21420, Note_on_c, 2, 69, 88
5, 21540, Note_on_c, 2, 69, 0
5, 21540, Note_on_c, 2, 67, 88
5, 21630, Note_on_c, 2, 67, 0
5, 21630, Note_on_c, 2, 64, 88
5, 21660, Note_on_c, 2, 64, 0
5, 21660, Note_on_c, 2, 66, 88
5, 21690, Note_on_c, 2, 66, 0
5, 21780, Note_on_c, 2, 67, 49
5, 21840, Note_on_c, 2, 67, 0
5, 21840, Note_on_c, 2, 69, 49
5, 21870, Note_on_c, 2, 69, 0
5, 22080, Note_on_c, 2, 62, 75
5, 22110, Note_on_c, 2, 62, 0
5, 22140, Note_on_c, 2, 67, 75
5, 22170, Note_on_c, 2, 67, 0
5, 22200, Note_on_c, 2, 61, 75
5, 22230, Note_on_c, 2, 61, 0
5, 22440, Note_on_c, 2, 64, 88
5, 22470, Note_on_c, 2, 64, 0
5, 22500, Note_on_c, 2, 64, 88
5, 22530, Note_on_c, 2, 64, 0
5, 22560, Note_on_c, 2, 69, 88
5, 22590, Note_on_c, 2, 69, 0
5, 22740, Note_on_c, 2, 69, 88
5, 22800, Note_on_c, 2, 69, 0
5, 22800, Note_on_c, 2, 66, 88
5, 22860, Note_on_c, 2, 66, 0
5, 22860, Note_on_c, 2, 71, 88
5, 22920, Note_on_c, 2, 71, 0
5, 22920, Note_on_c, 2, 69, 88
5, 22950, Note_on_c, 2, 69, 0
5, 22950, Note_on_c, 2, 67, 88
5, 22980, Note_on_c, 2, 67, 0
5, 22980, Note_on_c, 2, 66, 88
5, 23010, Note_on_c, 2, 66, 0
5, 23010, Note_on_c, 2, 64, 88
5, 23040, Note_on_c, 2, 64, 0
5, 23040, Note_on_c, 2, 66, 88
5, 23340, Note_on_c, 2, 66, 0
5, 23880, Note_on_c, 2, 71, 49
5, 23910, Note_on_c, 2, 71, 0
5, 23940, Note_on_c, 2, 71, 49
5, 23970, Note_on_c, 2, 71, 0
5, 24000, Note_on_c, 2, 76, 49
5, 24030, Note_on_c, 2, 76, 0
5, 24540, Note_on_c, 2, 71, 49
5, 24570, Note_on_c, 2, 71, 0
5, 24600, Note_on_c, 2, 70, 49
5, 24630, Note_on_c, 2, 70, 0
5, 24660, Note_on_c, 2, 61, 49
5, 24690, Note_on_c, 2, 61, 0
5, 24960, Note_on_c, 2, 66, 49
5, 24990, Note_on_c, 2, 66, 0
5, 25020, Note_on_c, 2, 64, 49
5, 25050, Note_on_c, 2, 64, 0
5, 25080, Note_on_c, 2, 62, 49
5, 25110, Note_on_c, 2, 62, 0
5, 25320, Note_on_c, 2, 73, 49
5, 25350, Note_on_c, 2, 73, 0
5, 25380, Note_on_c, 2, 70, 49
5, 25410, Note_on_c, 2, 70, 0
5, 25440, Note_on_c, 2, 71, 49
5, 25470, Note_on_c, 2, 71, 0
5, 25500, Note_on_c, 2, 73, 49
5, 25530, Note_on_c, 2, 73, 0
5, 25560, Note_on_c, 2, 71, 49
5, 25620, Note_on_c, 2, 71, 0
5, 25620, Note_on_c, 2, 67, 49
5, 25650, Note_on_c, 2, 67, 0
5, 25680, Note_on_c, 2, 66, 49
5, 25740, Note_on_c, 2, 66, 0
5, 25740, Note_on_c, 2, 64, 49
5, 25860, Note_on_c, 2, 64, 0
5, 25860, Note_on_c, 2, 64, 49
5, 25890, Note_on_c, 2, 64, 0
5, 25920, Note_on_c, 2, 62, 49
5, 25950, Note_on_c, 2, 62, 0
5, 25980, Note_on_c, 2, 61, 49
5, 26010, Note_on_c, 2, 61, 0
5, 26100, Note_on_c, 2, 59, 36
5, 26160, Note_on_c, 2, 59, 0
5, 26160, Note_on_c, 2, 57, 36
5, 26190, Note_on_c, 2, 57, 0
5, 26460, Note_on_c, 2, 64, 36
5, 26520, Note_on_c, 2, 64, 0
5, 26520, Note_on_c, 2, 66, 36
5, 26550, Note_on_c, 2, 66, 0
5, 26760, Note_on_c, 2, 68, 36
5, 26790, Note_on_c, 2, 68, 0
5, 26820, Note_on_c, 2, 70, 36
5, 26850, Note_on_c, 2, 70, 0
5, 26880, Note_on_c, 2, 61, 36
5, 26910, Note_on_c, 2, 61, 0
5, 28440, Control_c, 2, 7, 60
5, 28445, Control_c, 2, 7, 61
5, 28450, Control_c, 2, 7, 62
5, 28456, Control_c, 2, 7, 63
5, 28461, Control_c, 2, 7, 64
5, 28466, Control_c, 2, 7, 65
5, 28472, Control_c, 2, 7, 66
5, 28477, Control_c, 2, 7, 67
5, 28483, Control_c, 2, 7, 68
5, 28488, Control_c, 2, 7, 69
5, 28493, Control_c, 2, 7, 70
5, 28499, Control_c, 2, 7, 71
5, 28500, Note_on_c, 2, 67, 88
5, 28504, Control_c, 2, 7, 72
5, 28509, Control_c, 2, 7, 73
5, 28515, Control_c, 2, 7, 74
5, 28520, Control_c, 2, 7, 75
5, 28526, Control_c, 2, 7, 76
5, 28531, Control_c, 2, 7, 77
5, 28536, Control_c, 2, 7, 78
5, 28542, Control_c, 2, 7, 79
5, 28547, Control_c, 2, 7, 80
5, 28552, Control_c, 2, 7, 81
5, 28558, Control_c, 2, 7, 82
5, 28560, Note_on_c, 2, 67, 0
5, 28560, Note_on_c, 2, 66, 88
5, 28563, Control_c, 2, 7, 83
5, 28568, Control_c, 2, 7, 84
5, 28574, Control_c, 2, 7, 85
5, 28579, Control_c, 2, 7, 86
5, 28585, Control_c, 2, 7, 87
5, 28590, Note_on_c, 2, 66, 0
5, 28590, Control_c, 2, 7, 88
5, 28595, Control_c, 2, 7, 89
5, 28601, Control_c, 2, 7, 90
5, 28606, Control_c, 2, 7, 91
5, 28611, Control_c, 2, 7, 92
5, 28617, Control_c, 2, 7, 93
5, 28620, Note_on_c, 2, 64, 88
5, 28622, Control_c, 2, 7, 94
5, 28628, Control_c, 2, 7, 95
5, 28633, Control_c, 2, 7, 96
5, 28638, Control_c, 2, 7, 97
5, 28644, Control_c, 2, 7, 98
5, 28649, Control_c, 2, 7, 99
5, 28654, Control_c, 2, 7, 100
5, 28660, Control_c, 2, 7, 101
5, 28665, Control_c, 2, 7, 102
5, 28671, Control_c, 2, 7, 103
5, 28676, Control_c, 2, 7, 104
5, 28680, Note_on_c, 2, 64, 0
5, 28680, Note_on_c, 2, 62, 88
5, 28681, Control_c, 2, 7, 105
5, 28687, Control_c, 2, 7, 106
5, 28692, Control_c, 2, 7, 107
5, 28697, Control_c, 2, 7, 108
5, 28703, Control_c, 2, 7, 109
5, 28708, Control_c, 2, 7, 110
5, 28713, Control_c, 2, 7, 111
5, 28719, Control_c, 2, 7, 112
5, 28724, Control_c, 2, 7, 113
5, 28730, Control_c, 2, 7, 114
5, 28735, Control_c, 2, 7, 115
5, 28740, Note_on_c, 2, 62, 0
5, 28740, Note_on_c, 2, 61, 88
5, 28740, Control_c, 2, 7, 116
5, 28746, Control_c, 2, 7, 117
5, 28751, Control_c, 2, 7, 118
5, 28756, Control_c, 2, 7, 119
5, 28762, Control_c, 2, 7, 120
5, 28767, Control_c, 2, 7, 121
5, 28770, Note_on_c, 2, 61, 0
5, 28773, Control_c, 2, 7, 122
5, 28778, Control_c, 2, 7, 123
5, 28783, Control_c, 2, 7, 124
5, 28789, Control_c, 2, 7, 125
5, 28794, Control_c, 2, 7, 126
5, 28800, Note_on_c, 2, 61, 88
5, 28830, Note_on_c, 2, 61, 0
5, 29820, Note_on_c, 2, 63, 88
5, 29880, Note_on_c, 2, 63, 0
5, 29880, Note_on_c, 2, 64, 88
5, 29940, Note_on_c, 2, 64, 0
5, 29940, Note_on_c, 2, 71, 88
5, 29970, Note_on_c, 2, 71, 0
5, 30000, Note_on_c, 2, 67, 88
5, 30030, Note_on_c, 2, 67, 0
5, 30060, Note_on_c, 2, 64, 88
5, 30120, Note_on_c, 2, 64, 0
5, 30120, Note_on_c, 2, 67, 88
5, 30150, Note_on_c, 2, 67, 0
5, 30180, Note_on_c, 2, 61, 88
5, 30270, Note_on_c, 2, 61, 0
5, 30300, Note_on_c, 2, 64, 88
5, 30330, Note_on_c, 2, 64, 0
5, 30420, Note_on_c, 2, 70, 88
5, 30450, Note_on_c, 2, 70, 0
5, 30480, Note_on_c, 2, 61, 88
5, 30510, Note_on_c, 2, 61, 0
5, 30660, Note_on_c, 2, 71, 88
5, 30720, Note_on_c, 2, 71, 0
5, 30720, Note_on_c, 2, 66, 88
5, 30780, Note_on_c, 2, 66, 0
5, 30780, Note_on_c, 2, 67, 88
5, 30840, Note_on_c, 2, 67, 0
5, 30840, Note_on_c, 2, 62, 88
5, 30870, Note_on_c, 2, 62, 0
5, 30900, Note_on_c, 2, 64, 88
5, 30930, Note_on_c, 2, 64, 0
5, 30960, Note_on_c, 2, 62, 88
5, 31320, Note_on_c, 2, 62, 0
5, 31680, End_track
6, 0, Start_track
6, 0, MIDI_port, 0
6, 0, Title_t, "Viola"
6, 0, Program_c, 3, 48
6, 480, Note_on_c, 3, 59, 51
6, 510, Note_on_c, 3, 59, 0
6, 540, Note_on_c, 3, 61, 51
6, 570, Note_on_c, 3, 61, 0
6, 600, Note_on_c, 3, 62, 51
6, 630, Note_on_c, 3, 62, 0
6, 840, Note_on_c, 3, 66, 51
6, 870, Note_on_c, 3, 66, 0
6, 900, Note_on_c, 3, 61, 51
6, 930, Note_on_c, 3, 61, 0
6, 960, Note_on_c, 3, 59, 51
6, 990, Note_on_c, 3, 59, 0
6, 1020, Note_on_c, 3, 66, 51
6, 1050, Note_on_c, 3, 66, 0
6, 1080, Note_on_c, 3, 66, 51
6, 1140, Note_on_c, 3, 66, 0
6, 1140, Note_on_c, 3, 64, 51
6, 1170, Note_on_c, 3, 64, 0
6, 1200, Note_on_c, 3, 66, 51
6, 1260, Note_on_c, 3, 66, 0
6, 1260, Note_on_c, 3, 67, 51
6, 1320, Note_on_c, 3, 67, 0
6, 1320, Note_on_c, 3, 64, 51
6, 1380, Note_on_c, 3, 64, 0
6, 1380, Note_on_c, 3, 61, 51
6, 1410, Note_on_c, 3, 61, 0
6, 1440, Note_on_c, 3, 57, 49
6, 1470, Note_on_c, 3, 57, 0
6, 1500, Note_on_c, 3, 57, 49
6, 1530, Note_on_c, 3, 57, 0
6, 1620, Note_on_c, 3, 56, 25
6, 1680, Note_on_c, 3, 56, 0
6, 1680, Note_on_c, 3, 57, 25
6, 1710, Note_on_c, 3, 57, 0
6, 1920, Note_on_c, 3, 62, 88
6, 1950, Note_on_c, 3, 62, 0
6, 1980, Note_on_c, 3, 62, 88
6, 2010, Note_on_c, 3, 62, 0
6, 2040, Note_on_c, 3, 59, 88
6, 2070, Note_on_c, 3, 59, 0
6, 2280, Note_on_c, 3, 64, 88
6, 2310, Note_on_c, 3, 64, 0
6, 2340, Note_on_c, 3, 64, 88
6, 2370, Note_on_c, 3, 64, 0
6, 2400, Note_on_c, 3, 61, 88
6, 2430, Note_on_c, 3, 61, 0
6, 2640, Note_on_c, 3, 66, 88
6, 2760, Note_on_c, 3, 66, 0
6, 2760, Note_on_c, 3, 64, 88
6, 2820, Note_on_c, 3, 64, 0
6, 2820, Note_on_c, 3, 69, 88
6, 2880, Note_on_c, 3, 69, 0
6, 2880, Note_on_c, 3, 71, 88
6, 2910, Note_on_c, 3, 71, 0
6, 3000, Note_on_c, 3, 71, 88
6, 3060, Note_on_c, 3, 71, 0
6, 3060, Note_on_c, 3, 64, 88
6, 3120, Note_on_c, 3, 64, 0
6, 3120, Note_on_c, 3, 69, 88
6, 3150, Note_on_c, 3, 69, 0
6, 3180, Note_on_c, 3, 69, 88
6, 3240, Note_on_c, 3, 69, 0
6, 3240, Note_on_c, 3, 69, 88
6, 3270, Note_on_c, 3, 69, 0
6, 3540, Note_on_c, 3, 62, 88
6, 3600, Note_on_c, 3, 62, 0
6, 3600, Note_on_c, 3, 61, 88
6, 3840, Note_on_c, 3, 61, 0
6, 3840, Note_on_c, 3, 64, 88
6, 3900, Note_on_c, 3, 64, 0
6, 3900, Note_on_c, 3, 67, 88
6, 3960, Note_on_c, 3, 67, 0
6, 3960, Note_on_c, 3, 66, 88
6, 3990, Note_on_c, 3, 66, 0
6, 4020, Note_on_c, 3, 61, 88
6, 4050, Note_on_c, 3, 61, 0
6, 4140, Note_on_c, 3, 61, 88
6, 4170, Note_on_c, 3, 61, 0
6, 4200, Note_on_c, 3, 66, 88
6, 4230, Note_on_c, 3, 66, 0
6, 4380, Note_on_c, 3, 59, 93
6, 4440, Note_on_c, 3, 59, 0
6, 4440, Note_on_c, 3, 59, 92
6, 4560, Note_on_c, 3, 59, 0
6, 4560, Note_on_c, 3, 59, 90
6, 4620, Note_on_c, 3, 59, 0
6, 4620, Note_on_c, 3, 66, 89
6, 4650, Note_on_c, 3, 66, 0
6, 4680, Note_on_c, 3, 62, 75
6, 4740, Note_on_c, 3, 62, 0
6, 4740, Note_on_c, 3, 66, 75
6, 4770, Note_on_c, 3, 66, 0
6, 4800, Note_on_c, 3, 71, 75
6, 4860, Note_on_c, 3, 71, 0
6, 4860, Note_on_c, 3, 59, 75
6, 4890, Note_on_c, 3, 59, 0
6, 4920, Note_on_c, 3, 64, 75
6, 4950, Note_on_c, 3, 64, 0
6, 5040, Note_on_c, 3, 62, 75
6, 5070, Note_on_c, 3, 62, 0
6, 5100, Note_on_c, 3, 66, 75
6, 5130, Note_on_c, 3, 66, 0
6, 5220, Note_on_c, 3, 64, 75
6, 5250, Note_on_c, 3, 64, 0
6, 5280, Note_on_c, 3, 67, 75
6, 5310, Note_on_c, 3, 67, 0
6, 5400, Note_on_c, 3, 66, 75
6, 5430, Note_on_c, 3, 66, 0
6, 5460, Note_on_c, 3, 71, 75
6, 5490, Note_on_c, 3, 71, 0
6, 5640, Note_on_c, 3, 64, 75
6, 5700, Note_on_c, 3, 64, 0
6, 5700, Note_on_c, 3, 62, 75
6, 5730, Note_on_c, 3, 62, 0
6, 5760, Note_on_c, 3, 61, 75
6, 5790, Note_on_c, 3, 61, 0
6, 5820, Note_on_c, 3, 66, 75
6, 5850, Note_on_c, 3, 66, 0
6, 5940, Note_on_c, 3, 59, 25
6, 6000, Note_on_c, 3, 59, 0
6, 6000, Note_on_c, 3, 58, 25
6, 6030, Note_on_c, 3, 58, 0
6, 6180, Note_on_c, 3, 61, 88
6, 6240, Note_on_c, 3, 61, 0
6, 6240, Note_on_c, 3, 62, 88
6, 6300, Note_on_c, 3, 62, 0
6, 6300, Note_on_c, 3, 64, 88
6, 6360, Note_on_c, 3, 64, 0
6, 6360, Note_on_c, 3, 62, 88
6, 6420, Note_on_c, 3, 62, 0
6, 6420, Note_on_c, 3, 61, 88
6, 6480, Note_on_c, 3, 61, 0
6, 6480, Note_on_c, 3, 62, 88
6, 6780, Note_on_c, 3, 62, 0
6, 6960, Note_on_c, 3, 59, 49
6, 6990, Note_on_c, 3, 59, 0
6, 7020, Note_on_c, 3, 61, 49
6, 7050, Note_on_c, 3, 61, 0
6, 7080, Note_on_c, 3, 62, 49
6, 7110, Note_on_c, 3, 62, 0
6, 7320, Note_on_c, 3, 61, 49
6, 7350, Note_on_c, 3, 61, 0
6, 7380, Note_on_c, 3, 61, 49
6, 7410, Note_on_c, 3, 61, 0
6, 7440, Note_on_c, 3, 66, 49
6, 7470, Note_on_c, 3, 66, 0
6, 7500, Note_on_c, 3, 66, 49
6, 7530, Note_on_c, 3, 66, 0
6, 7560, Note_on_c, 3, 62, 49
6, 7620, Note_on_c, 3, 62, 0
6, 7620, Note_on_c, 3, 64, 49
6, 7650, Note_on_c, 3, 64, 0
6, 7680, Note_on_c, 3, 66, 49
6, 7740, Note_on_c, 3, 66, 0
6, 7740, Note_on_c, 3, 67, 49
6, 7800, Note_on_c, 3, 67, 0
6, 7800, Note_on_c, 3, 64, 49
6, 7860, Note_on_c, 3, 64, 0
6, 7860, Note_on_c, 3, 61, 49
6, 7890, Note_on_c, 3, 61, 0
6, 7920, Note_on_c, 3, 57, 49
6, 7950, Note_on_c, 3, 57, 0
6, 7980, Note_on_c, 3, 57, 49
6, 8010, Note_on_c, 3, 57, 0
6, 8100, Note_on_c, 3, 56, 36
6, 8160, Note_on_c, 3, 56, 0
6, 8160, Note_on_c, 3, 57, 36
6, 8190, Note_on_c, 3, 57, 0
6, 8400, Note_on_c, 3, 62, 49
6, 8430, Note_on_c, 3, 62, 0
6, 8460, Note_on_c, 3, 66, 49
6, 8490, Note_on_c, 3, 66, 0
6, 8520, Note_on_c, 3, 57, 49
6, 8550, Note_on_c, 3, 57, 0
6, 8760, Note_on_c, 3, 67, 62
6, 8790, Note_on_c, 3, 67, 0
6, 8820, Note_on_c, 3, 62, 62
6, 8850, Note_on_c, 3, 62, 0
6, 8880, Note_on_c, 3, 66, 62
6, 8910, Note_on_c, 3, 66, 0
6, 8940, Note_on_c, 3, 59, 62
6, 8970, Note_on_c, 3, 59, 0
6, 9000, Note_on_c, 3, 59, 62
6, 9060, Note_on_c, 3, 59, 0
6, 9060, Note_on_c, 3, 70, 62
6, 9090, Note_on_c, 3, 70, 0
6, 9120, Note_on_c, 3, 71, 62
6, 9180, Note_on_c, 3, 71, 0
6, 9180, Note_on_c, 3, 70, 62
6, 9240, Note_on_c, 3, 70, 0
6, 9240, Note_on_c, 3, 64, 62
6, 9270, Note_on_c, 3, 64, 0
6, 9300, Note_on_c, 3, 67, 62
6, 9360, Note_on_c, 3, 67, 0
6, 9360, Note_on_c, 3, 61, 62
6, 9390, Note_on_c, 3, 61, 0
6, 9420, Note_on_c, 3, 66, 62
6, 9450, Note_on_c, 3, 66, 0
6, 9540, Note_on_c, 3, 59, 36
6, 9600, Note_on_c, 3, 59, 0
6, 9600, Note_on_c, 3, 58, 36
6, 9630, Note_on_c, 3, 58, 0
6, 9840, Note_on_c, 3, 71, 49
6, 9870, Note_on_c, 3, 71, 0
6, 9900, Note_on_c, 3, 66, 49
6, 9930, Note_on_c, 3, 66, 0
6, 9960, Note_on_c, 3, 62, 49
6, 9990, Note_on_c, 3, 62, 0
6, 10200, Note_on_c, 3, 68, 49
6, 10230, Note_on_c, 3, 68, 0
6, 10260, Note_on_c, 3, 69, 49
6, 10290, Note_on_c, 3, 69, 0
6, 10320, Note_on_c, 3, 66, 49
6, 10350, Note_on_c, 3, 66, 0
6, 10500, Note_on_c, 3, 62, 49
6, 10530, Note_on_c, 3, 62, 0
6, 10560, Note_on_c, 3, 62, 49
6, 10590, Note_on_c, 3, 62, 0
6, 10680, Note_on_c, 3, 61, 49
6, 10710, Note_on_c, 3, 61, 0
6, 10740, Note_on_c, 3, 61, 49
6, 10770, Note_on_c, 3, 61, 0
6, 10860, Note_on_c, 3, 61, 49
6, 10890, Note_on_c, 3, 61, 0
6, 10920, Note_on_c, 3, 61, 49
6, 10950, Note_on_c, 3, 61, 0
6, 10980, Note_on_c, 3, 61, 49
6, 11010, Note_on_c, 3, 61, 0
6, 11040, Note_on_c, 3, 57, 49
6, 11070, Note_on_c, 3, 57, 0
6, 11280, Note_on_c, 3, 54, 88
6, 11310, Note_on_c, 3, 54, 0
6, 11340, Note_on_c, 3, 56, 88
6, 11370, Note_on_c, 3, 56, 0
6, 11400, Note_on_c, 3, 57, 88
6, 11430, Note_on_c, 3, 57, 0
6, 11640, Note_on_c, 3, 61, 88
6, 11670, Note_on_c, 3, 61, 0
6, 11700, Note_on_c, 3, 56, 88
6, 11730, Note_on_c, 3, 56, 0
6, 11760, Note_on_c, 3, 54, 88
6, 11790, Note_on_c, 3, 54, 0
6, 11820, Note_on_c, 3, 61, 88
6, 11850, Note_on_c, 3, 61, 0
6, 11880, Note_on_c, 3, 61, 88
6, 11940, Note_on_c, 3, 61, 0
6, 11940, Note_on_c, 3, 59, 88
6, 11970, Note_on_c, 3, 59, 0
6, 12000, Note_on_c, 3, 61, 88
6, 12060, Note_on_c, 3, 61, 0
6, 12060, Note_on_c, 3, 62, 88
6, 12120, Note_on_c, 3, 62, 0
6, 12120, Note_on_c, 3, 59, 88
6, 12180, Note_on_c, 3, 59, 0
6, 12180, Note_on_c, 3, 56, 88
6, 12210, Note_on_c, 3, 56, 0
6, 12240, Note_on_c, 3, 52, 88
6, 12270, Note_on_c, 3, 52, 0
6, 12300, Note_on_c, 3, 52, 88
6, 12330, Note_on_c, 3, 52, 0
6, 12420, Note_on_c, 3, 54, 49
6, 12480, Note_on_c, 3, 54, 0
6, 12480, Note_on_c, 3, 56, 49
6, 12510, Note_on_c, 3, 56, 0
6, 12720, Note_on_c, 3, 57, 88
6, 12750, Note_on_c, 3, 57, 0
6, 12780, Note_on_c, 3, 57, 88
6, 12810, Note_on_c, 3, 57, 0
6, 12840, Note_on_c, 3, 54, 88
6, 12870, Note_on_c, 3, 54, 0
6, 13080, Note_on_c, 3, 59, 88
6, 13110, Note_on_c, 3, 59, 0
6, 13140, Note_on_c, 3, 59, 88
6, 13170, Note_on_c, 3, 59, 0
6, 13200, Note_on_c, 3, 56, 88
6, 13230, Note_on_c, 3, 56, 0
6, 13440, Note_on_c, 3, 61, 88
6, 13560, Note_on_c, 3, 61, 0
6, 13560, Note_on_c, 3, 59, 88
6, 13620, Note_on_c, 3, 59, 0
6, 13620, Note_on_c, 3, 64, 88
6, 13680, Note_on_c, 3, 64, 0
6, 13680, Note_on_c, 3, 66, 88
6, 13710, Note_on_c, 3, 66, 0
6, 13800, Note_on_c, 3, 59, 88
6, 13920, Note_on_c, 3, 59, 0
6, 13920, Note_on_c, 3, 64, 88
6, 13950, Note_on_c, 3, 64, 0
6, 13980, Note_on_c, 3, 64, 88
6, 14040, Note_on_c, 3, 64, 0
6, 14040, Note_on_c, 3, 64, 88
6, 14070, Note_on_c, 3, 64, 0
6, 14340, Note_on_c, 3, 57, 88
6, 14400, Note_on_c, 3, 57, 0
6, 14400, Note_on_c, 3, 56, 88
6, 14640, Note_on_c, 3, 56, 0
6, 14640, Note_on_c, 3, 59, 88
6, 14700, Note_on_c, 3, 59, 0
6, 14700, Note_on_c, 3, 62, 88
6, 14760, Note_on_c, 3, 62, 0
6, 14760, Note_on_c, 3, 61, 88
6, 14790, Note_on_c, 3, 61, 0
6, 14820, Note_on_c, 3, 56, 88
6, 14850, Note_on_c, 3, 56, 0
6, 14940, Note_on_c, 3, 56, 88
6, 14970, Note_on_c, 3, 56, 0
6, 15000, Note_on_c, 3, 61, 88
6, 15030, Note_on_c, 3, 61, 0
6, 15180, Note_on_c, 3, 54, 88
6, 15240, Note_on_c, 3, 54, 0
6, 15240, Note_on_c, 3, 54, 88
6, 15360, Note_on_c, 3, 54, 0
6, 15360, Note_on_c, 3, 54, 88
6, 15420, Note_on_c, 3, 54, 0
6, 15420, Note_on_c, 3, 61, 88
6, 15450, Note_on_c, 3, 61, 0
6, 15480, Note_on_c, 3, 57, 88
6, 15780, Note_on_c, 3, 57, 0
6, 16500, Note_on_c, 3, 57, 49
6, 16620, Note_on_c, 3, 57, 0
6, 16620, Note_on_c, 3, 59, 49
6, 16680, Note_on_c, 3, 59, 0
6, 16680, Note_on_c, 3, 57, 49
6, 16710, Note_on_c, 3, 57, 0
6, 16740, Note_on_c, 3, 59, 49
6, 16860, Note_on_c, 3, 59, 0
6, 16860, Note_on_c, 3, 64, 49
6, 16950, Note_on_c, 3, 64, 0
6, 16980, Note_on_c, 3, 64, 49
6, 17010, Note_on_c, 3, 64, 0
6, 17100, Note_on_c, 3, 63, 36
6, 17160, Note_on_c, 3, 63, 0
6, 17160, Note_on_c, 3, 64, 36
6, 17190, Note_on_c, 3, 64, 0
6, 17400, Note_on_c, 3, 59, 49
6, 17430, Note_on_c, 3, 59, 0
6, 17460, Note_on_c, 3, 61, 49
6, 17490, Note_on_c, 3, 61, 0
6, 17520, Note_on_c, 3, 64, 49
6, 17550, Note_on_c, 3, 64, 0
6, 17760, Note_on_c, 3, 61, 49
6, 17790, Note_on_c, 3, 61, 0
6, 17820, Note_on_c, 3, 62, 49
6, 17850, Note_on_c, 3, 62, 0
6, 17880, Note_on_c, 3, 66, 49
6, 17910, Note_on_c, 3, 66, 0
6, 17940, Note_on_c, 3, 67, 49
6, 17970, Note_on_c, 3, 67, 0
6, 18000, Note_on_c, 3, 64, 49
6, 18060, Note_on_c, 3, 64, 0
6, 18060, Note_on_c, 3, 66, 49
6, 18090, Note_on_c, 3, 66, 0
6, 18120, Note_on_c, 3, 67, 49
6, 18180, Note_on_c, 3, 67, 0
6, 18180, Note_on_c, 3, 69, 49
6, 18240, Note_on_c, 3, 69, 0
6, 18240, Note_on_c, 3, 62, 49
6, 18300, Note_on_c, 3, 62, 0
6, 18300, Note_on_c, 3, 57, 49
6, 18360, Note_on_c, 3, 57, 0
6, 18360, Note_on_c, 3, 57, 49
6, 18390, Note_on_c, 3, 57, 0
6, 18420, Note_on_c, 3, 57, 49
6, 18450, Note_on_c, 3, 57, 0
6, 18480, Note_on_c, 3, 62, 49
6, 18510, Note_on_c, 3, 62, 0
6, 18540, Note_on_c, 3, 50, 49
6, 18570, Note_on_c, 3, 50, 0
6, 18600, Note_on_c, 3, 55, 49
6, 18630, Note_on_c, 3, 55, 0
6, 18720, Note_on_c, 3, 54, 49
6, 18750, Note_on_c, 3, 54, 0
6, 18780, Note_on_c, 3, 57, 49
6, 18810, Note_on_c, 3, 57, 0
6, 18900, Note_on_c, 3, 55, 49
6, 18930, Note_on_c, 3, 55, 0
6, 18960, Note_on_c, 3, 59, 49
6, 18990, Note_on_c, 3, 59, 0
6, 19080, Note_on_c, 3, 54, 49
6, 19110, Note_on_c, 3, 54, 0
6, 19140, Note_on_c, 3, 57, 49
6, 19170, Note_on_c, 3, 57, 0
6, 19320, Note_on_c, 3, 55, 49
6, 19380, Note_on_c, 3, 55, 0
6, 19380, Note_on_c, 3, 59, 49
6, 19440, Note_on_c, 3, 59, 0
6, 19440, Note_on_c, 3, 57, 49
6, 19470, Note_on_c, 3, 57, 0
6, 19500, Note_on_c, 3, 64, 49
6, 19530, Note_on_c, 3, 64, 0
6, 19620, Note_on_c, 3, 57, 36
6, 19680, Note_on_c, 3, 57, 0
6, 19680, Note_on_c, 3, 55, 36
6, 19710, Note_on_c, 3, 55, 0
6, 20220, Note_on_c, 3, 62, 36
6, 20250, Note_on_c, 3, 62, 0
6, 20280, Note_on_c, 3, 66, 88
6, 20310, Note_on_c, 3, 66, 0
6, 20340, Note_on_c, 3, 69, 88
6, 20400, Note_on_c, 3, 69, 0
6, 20400, Note_on_c, 3, 74, 88
6, 20430, Note_on_c, 3, 74, 0
6, 20460, Note_on_c, 3, 69, 88
6, 20490, Note_on_c, 3, 69, 0
6, 20520, Note_on_c, 3, 62, 88
6, 20550, Note_on_c, 3, 62, 0
6, 20640, Note_on_c, 3, 62, 88
6, 20670, Note_on_c, 3, 62, 0
6, 20700, Note_on_c, 3, 64, 88
6, 20730, Note_on_c, 3, 64, 0
6, 20760, Note_on_c, 3, 66, 88
6, 20790, Note_on_c, 3, 66, 0
6, 21000, Note_on_c, 3, 64, 88
6, 21030, Note_on_c, 3, 64, 0
6, 21060, Note_on_c, 3, 64, 88
6, 21120, Note_on_c, 3, 64, 0
6, 21120, Note_on_c, 3, 62, 88
6, 21150, Note_on_c, 3, 62, 0
6, 21180, Note_on_c, 3, 69, 88
6, 21210, Note_on_c, 3, 69, 0
6, 21240, Note_on_c, 3, 69, 88
6, 21360, Note_on_c, 3, 69, 0
6, 21360, Note_on_c, 3, 64, 88
6, 21390, Note_on_c, 3, 64, 0
6, 21420, Note_on_c, 3, 57, 88
6, 21540, Note_on_c, 3, 57, 0
6, 21540, Note_on_c, 3, 62, 88
6, 21570, Note_on_c, 3, 62, 0
6, 21600, Note_on_c, 3, 62, 88
6, 21630, Note_on_c, 3, 62, 0
6, 21660, Note_on_c, 3, 62, 88
6, 21690, Note_on_c, 3, 62, 0
6, 21780, Note_on_c, 3, 64, 49
6, 21840, Note_on_c, 3, 64, 0
6, 21840, Note_on_c, 3, 66, 49
6, 21870, Note_on_c, 3, 66, 0
6, 22080, Note_on_c, 3, 59, 75
6, 22110, Note_on_c, 3, 59, 0
6, 22140, Note_on_c, 3, 64, 75
6, 22170, Note_on_c, 3, 64, 0
6, 22200, Note_on_c, 3, 67, 75
6, 22230, Note_on_c, 3, 67, 0
6, 22440, Note_on_c, 3, 59, 88
6, 22470, Note_on_c, 3, 59, 0
6, 22500, Note_on_c, 3, 61, 88
6, 22530, Note_on_c, 3, 61, 0
6, 22560, Note_on_c, 3, 64, 88
6, 22590, Note_on_c, 3, 64, 0
6, 22740, Note_on_c, 3, 64, 88
6, 22800, Note_on_c, 3, 64, 0
6, 22800, Note_on_c, 3, 71, 88
6, 22860, Note_on_c, 3, 71, 0
6, 22860, Note_on_c, 3, 64, 88
6, 22920, Note_on_c, 3, 64, 0
6, 22920, Note_on_c, 3, 61, 88
6, 22950, Note_on_c, 3, 61, 0
6, 22980, Note_on_c, 3, 57, 88
6, 23010, Note_on_c, 3, 57, 0
6, 23040, Note_on_c, 3, 57, 88
6, 23340, Note_on_c, 3, 57, 0
6, 23880, Note_on_c, 3, 66, 49
6, 23910, Note_on_c, 3, 66, 0
6, 23940, Note_on_c, 3, 67, 49
6, 23970, Note_on_c, 3, 67, 0
6, 24000, Note_on_c, 3, 71, 49
6, 24030, Note_on_c, 3, 71, 0
6, 24540, Note_on_c, 3, 67, 49
6, 24570, Note_on_c, 3, 67, 0
6, 24600, Note_on_c, 3, 61, 49
6, 24630, Note_on_c, 3, 61, 0
6, 24660, Note_on_c, 3, 58, 49
6, 24690, Note_on_c, 3, 58, 0
6, 24960, Note_on_c, 3, 59, 49
6, 24990, Note_on_c, 3, 59, 0
6, 25020, Note_on_c, 3, 61, 49
6, 25050, Note_on_c, 3, 61, 0
6, 25080, Note_on_c, 3, 62, 49
6, 25110, Note_on_c, 3, 62, 0
6, 25320, Note_on_c, 3, 66, 49
6, 25350, Note_on_c, 3, 66, 0
6, 25380, Note_on_c, 3, 61, 49
6, 25410, Note_on_c, 3, 61, 0
6, 25440, Note_on_c, 3, 59, 49
6, 25470, Note_on_c, 3, 59, 0
6, 25500, Note_on_c, 3, 66, 49
6, 25530, Note_on_c, 3, 66, 0
6, 25560, Note_on_c, 3, 66, 49
6, 25620, Note_on_c, 3, 66, 0
6, 25620, Note_on_c, 3, 64, 49
6, 25650, Note_on_c, 3, 64, 0
6, 25680, Note_on_c, 3, 66, 49
6, 25740, Note_on_c, 3, 66, 0
6, 25740, Note_on_c, 3, 67, 49
6, 25800, Note_on_c, 3, 67, 0
6, 25800, Note_on_c, 3, 64, 49
6, 25860, Note_on_c, 3, 64, 0
6, 25860, Note_on_c, 3, 61, 49
6, 25890, Note_on_c, 3, 61, 0
6, 25920, Note_on_c, 3, 57, 49
6, 25950, Note_on_c, 3, 57, 0
6, 25980, Note_on_c, 3, 57, 49
6, 26010, Note_on_c, 3, 57, 0
6, 26100, Note_on_c, 3, 56, 36
6, 26160, Note_on_c, 3, 56, 0
6, 26160, Note_on_c, 3, 57, 36
6, 26190, Note_on_c, 3, 57, 0
6, 26460, Note_on_c, 3, 61, 36
6, 26520, Note_on_c, 3, 61, 0
6, 26520, Note_on_c, 3, 62, 36
6, 26550, Note_on_c, 3, 62, 0
6, 26760, Note_on_c, 3, 59, 36
6, 26790, Note_on_c, 3, 59, 0
6, 26820, Note_on_c, 3, 61, 36
6, 26850, Note_on_c, 3, 61, 0
6, 26880, Note_on_c, 3, 66, 36
6, 26910, Note_on_c, 3, 66, 0
6, 28440, Control_c, 3, 7, 60
6, 28445, Control_c, 3, 7, 61
6, 28450, Control_c, 3, 7, 62
6, 28456, Control_c, 3, 7, 63
6, 28461, Control_c, 3, 7, 64
6, 28466, Control_c, 3, 7, 65
6, 28472, Control_c, 3, 7, 66
6, 28477, Control_c, 3, 7, 67
6, 28483, Control_c, 3, 7, 68
6, 28488, Control_c, 3, 7, 69
6, 28493, Control_c, 3, 7, 70
6, 28499, Control_c, 3, 7, 71
6, 28500, Note_on_c, 3, 64, 88
6, 28504, Control_c, 3, 7, 72
6, 28509, Control_c, 3, 7, 73
6, 28515, Control_c, 3, 7, 74
6, 28520, Control_c, 3, 7, 75
6, 28526, Control_c, 3, 7, 76
6, 28531, Control_c, 3, 7, 77
6, 28536, Control_c, 3, 7, 78
6, 28542, Control_c, 3, 7, 79
6, 28547, Control_c, 3, 7, 80
6, 28552, Control_c, 3, 7, 81
6, 28558, Control_c, 3, 7, 82
6, 28560, Note_on_c, 3, 64, 0
6, 28560, Note_on_c, 3, 62, 88
6, 28563, Control_c, 3, 7, 83
6, 28568, Control_c, 3, 7, 84
6, 28574, Control_c, 3, 7, 85
6, 28579, Control_c, 3, 7, 86
6, 28585, Control_c, 3, 7, 87
6, 28590, Note_on_c, 3, 62, 0
6, 28590, Control_c, 3, 7, 88
6, 28595, Control_c, 3, 7, 89
6, 28601, Control_c, 3, 7, 90
6, 28606, Control_c, 3, 7, 91
6, 28611, Control_c, 3, 7, 92
6, 28617, Control_c, 3, 7, 93
6, 28620, Note_on_c, 3, 61, 88
6, 28622, Control_c, 3, 7, 94
6, 28628, Control_c, 3, 7, 95
6, 28633, Control_c, 3, 7, 96
6, 28638, Control_c, 3, 7, 97
6, 28644, Control_c, 3, 7, 98
6, 28649, Control_c, 3, 7, 99
6, 28654, Control_c, 3, 7, 100
6, 28660, Control_c, 3, 7, 101
6, 28665, Control_c, 3, 7, 102
6, 28671, Control_c, 3, 7, 103
6, 28676, Control_c, 3, 7, 104
6, 28680, Note_on_c, 3, 61, 0
6, 28680, Note_on_c, 3, 62, 88
6, 28681, Control_c, 3, 7, 105
6, 28687, Control_c, 3, 7, 106
6, 28692, Control_c, 3, 7, 107
6, 28697, Control_c, 3, 7, 108
6, 28703, Control_c, 3, 7, 109
6, 28708, Control_c, 3, 7, 110
6, 28713, Control_c, 3, 7, 111
6, 28719, Control_c, 3, 7, 112
6, 28724, Control_c, 3, 7, 113
6, 28730, Control_c, 3, 7, 114
6, 28735, Control_c, 3, 7, 115
6, 28740, Note_on_c, 3, 62, 0
6, 28740, Note_on_c, 3, 55, 88
6, 28740, Control_c, 3, 7, 116
6, 28746, Control_c, 3, 7, 117
6, 28751, Control_c, 3, 7, 118
6, 28756, Control_c, 3, 7, 119
6, 28762, Control_c, 3, 7, 120
6, 28767, Control_c, 3, 7, 121
6, 28770, Note_on_c, 3, 55, 0
6, 28773, Control_c, 3, 7, 122
6, 28778, Control_c, 3, 7, 123
6, 28783, Control_c, 3, 7, 124
6, 28789, Control_c, 3, 7, 125
6, 28794, Control_c, 3, 7, 126
6, 28800, Note_on_c, 3, 64, 88
6, 28830, Note_on_c, 3, 64, 0
6, 29820, Note_on_c, 3, 59, 88
6, 29880, Note_on_c, 3, 59, 0
6, 29880, Note_on_c, 3, 59, 88
6, 29940, Note_on_c, 3, 59, 0
6, 29940, Note_on_c, 3, 67, 88
6, 29970, Note_on_c, 3, 67, 0
6, 30000, Note_on_c, 3, 64, 88
6, 30030, Note_on_c, 3, 64, 0
6, 30060, Note_on_c, 3, 61, 88
6, 30120, Note_on_c, 3, 61, 0
6, 30120, Note_on_c, 3, 64, 88
6, 30150, Note_on_c, 3, 64, 0
6, 30180, Note_on_c, 3, 67, 88
6, 30240, Note_on_c, 3, 67, 0
6, 30240, Note_on_c, 3, 66, 88
6, 30270, Note_on_c, 3, 66, 0
6, 30300, Note_on_c, 3, 61, 88
6, 30330, Note_on_c, 3, 61, 0
6, 30420, Note_on_c, 3, 61, 88
6, 30450, Note_on_c, 3, 61, 0
6, 30480, Note_on_c, 3, 66, 88
6, 30510, Note_on_c, 3, 66, 0
6, 30660, Note_on_c, 3, 59, 88
6, 30720, Note_on_c, 3, 59, 0
6, 30720, Note_on_c, 3, 59, 88
6, 30780, Note_on_c, 3, 59, 0
6, 30780, Note_on_c, 3, 59, 88
6, 30840, Note_on_c, 3, 59, 0
6, 30840, Note_on_c, 3, 59, 88
6, 30870, Note_on_c, 3, 59, 0
6, 30900, Note_on_c, 3, 54, 88
6, 30930, Note_on_c, 3, 54, 0
6, 30960, Note_on_c, 3, 54, 88
6, 31320, Note_on_c, 3, 54, 0
6, 31680, End_track
7, 0, Start_track
7, 0, MIDI_port, 0
7, 0, Title_t, "Cello"
7, 0, Program_c, 4, 48
7, 480, Note_on_c, 4, 62, 51
7, 510, Note_on_c, 4, 62, 0
7, 540, Note_on_c, 4, 61, 51
7, 570, Note_on_c, 4, 61, 0
7, 600, Note_on_c, 4, 59, 51
7, 630, Note_on_c, 4, 59, 0
7, 840, Note_on_c, 4, 58, 51
7, 870, Note_on_c, 4, 58, 0
7, 900, Note_on_c, 4, 54, 51
7, 930, Note_on_c, 4, 54, 0
7, 960, Note_on_c, 4, 56, 51
7, 990, Note_on_c, 4, 56, 0
7, 1020, Note_on_c, 4, 58, 51
7, 1050, Note_on_c, 4, 58, 0
7, 1080, Note_on_c, 4, 59, 51
7, 1140, Note_on_c, 4, 59, 0
7, 1140, Note_on_c, 4, 52, 51
7, 1170, Note_on_c, 4, 52, 0
7, 1200, Note_on_c, 4, 50, 51
7, 1260, Note_on_c, 4, 50, 0
7, 1260, Note_on_c, 4, 49, 51
7, 1380, Note_on_c, 4, 49, 0
7, 1380, Note_on_c, 4, 45, 51
7, 1410, Note_on_c, 4, 45, 0
7, 1440, Note_on_c, 4, 50, 75
7, 1470, Note_on_c, 4, 50, 0
7, 1500, Note_on_c, 4, 45, 75
7, 1530, Note_on_c, 4, 45, 0
7, 1920, Note_on_c, 4, 50, 88
7, 1950, Note_on_c, 4, 50, 0
7, 1980, Note_on_c, 4, 55, 88
7, 2010, Note_on_c, 4, 55, 0
7, 2040, Note_on_c, 4, 43, 88
7, 2070, Note_on_c, 4, 43, 0
7, 2280, Note_on_c, 4, 52, 88
7, 2310, Note_on_c, 4, 52, 0
7, 2340, Note_on_c, 4, 57, 88
7, 2370, Note_on_c, 4, 57, 0
7, 2400, Note_on_c, 4, 45, 88
7, 2430, Note_on_c, 4, 45, 0
7, 2580, Note_on_c, 4, 59, 88
7, 2640, Note_on_c, 4, 59, 0
7, 2640, Note_on_c, 4, 57, 88
7, 2670, Note_on_c, 4, 57, 0
7, 2700, Note_on_c, 4, 55, 88
7, 2820, Note_on_c, 4, 55, 0
7, 2820, Note_on_c, 4, 54, 88
7, 2880, Note_on_c, 4, 54, 0
7, 2880, Note_on_c, 4, 52, 88
7, 2910, Note_on_c, 4, 52, 0
7, 2940, Note_on_c, 4, 57, 88
7, 3000, Note_on_c, 4, 57, 0
7, 3000, Note_on_c, 4, 55, 88
7, 3120, Note_on_c, 4, 55, 0
7, 3120, Note_on_c, 4, 54, 88
7, 3150, Note_on_c, 4, 54, 0
7, 3180, Note_on_c, 4, 57, 88
7, 3240, Note_on_c, 4, 57, 0
7, 3240, Note_on_c, 4, 50, 88
7, 3300, Note_on_c, 4, 50, 0
7, 3300, Note_on_c, 4, 52, 88
7, 3360, Note_on_c, 4, 52, 0
7, 3360, Note_on_c, 4, 54, 88
7, 3420, Note_on_c, 4, 54, 0
7, 3420, Note_on_c, 4, 55, 88
7, 3660, Note_on_c, 4, 55, 0
7, 3660, Note_on_c, 4, 55, 88
7, 3720, Note_on_c, 4, 55, 0
7, 3720, Note_on_c, 4, 52, 88
7, 3750, Note_on_c, 4, 52, 0
7, 3780, Note_on_c, 4, 49, 88
7, 3840, Note_on_c, 4, 49, 0
7, 3840, Note_on_c, 4, 46, 88
7, 3870, Note_on_c, 4, 46, 0
7, 3900, Note_on_c, 4, 47, 88
7, 3960, Note_on_c, 4, 47, 0
7, 3960, Note_on_c, 4, 46, 88
7, 3990, Note_on_c, 4, 46, 0
7, 4020, Note_on_c, 4, 49, 88
7, 4050, Note_on_c, 4, 49, 0
7, 4140, Note_on_c, 4, 42, 88
7, 4170, Note_on_c, 4, 42, 0
7, 4200, Note_on_c, 4, 46, 88
7, 4230, Note_on_c, 4, 46, 0
7, 4320, Note_on_c, 4, 47, 94
7, 4350, Note_on_c, 4, 47, 0
7, 4380, Note_on_c, 4, 55, 93
7, 4440, Note_on_c, 4, 55, 0
7, 4440, Note_on_c, 4, 50, 92
7, 4500, Note_on_c, 4, 50, 0
7, 4500, Note_on_c, 4, 52, 91
7, 4560, Note_on_c, 4, 52, 0
7, 4560, Note_on_c, 4, 54, 90
7, 4620, Note_on_c, 4, 54, 0
7, 4620, Note_on_c, 4, 42, 89
7, 4680, Note_on_c, 4, 42, 0
7, 4680, Note_on_c, 4, 47, 75
7, 4740, Note_on_c, 4, 47, 0
7, 4740, Note_on_c, 4, 59, 75
7, 4770, Note_on_c, 4, 59, 0
7, 4800, Note_on_c, 4, 57, 75
7, 4860, Note_on_c, 4, 57, 0
7, 4860, Note_on_c, 4, 55, 75
7, 4890, Note_on_c, 4, 55, 0
7, 4920, Note_on_c, 4, 52, 75
7, 4950, Note_on_c, 4, 52, 0
7, 5040, Note_on_c, 4, 54, 75
7, 5070, Note_on_c, 4, 54, 0
7, 5100, Note_on_c, 4, 50, 75
7, 5130, Note_on_c, 4, 50, 0
7, 5220, Note_on_c, 4, 52, 75
7, 5250, Note_on_c, 4, 52, 0
7, 5280, Note_on_c, 4, 49, 75
7, 5310, Note_on_c, 4, 49, 0
7, 5400, Note_on_c, 4, 50, 75
7, 5430, Note_on_c, 4, 50, 0
7, 5460, Note_on_c, 4, 47, 75
7, 5490, Note_on_c, 4, 47, 0
7, 5580, Note_on_c, 4, 49, 75
7, 5640, Note_on_c, 4, 49, 0
7, 5640, Note_on_c, 4, 61, 75
7, 5670, Note_on_c, 4, 61, 0
7, 5700, Note_on_c, 4, 59, 75
7, 5760, Note_on_c, 4, 59, 0
7, 5760, Note_on_c, 4, 58, 75
7, 5790, Note_on_c, 4, 58, 0
7, 5820, Note_on_c, 4, 54, 75
7, 5850, Note_on_c, 4, 54, 0
7, 6060, Note_on_c, 4, 52, 88
7, 6120, Note_on_c, 4, 52, 0
7, 6120, Note_on_c, 4, 50, 88
7, 6180, Note_on_c, 4, 50, 0
7, 6180, Note_on_c, 4, 49, 88
7, 6210, Note_on_c, 4, 49, 0
7, 6240, Note_on_c, 4, 47, 88
7, 6270, Note_on_c, 4, 47, 0
7, 6300, Note_on_c, 4, 52, 88
7, 6360, Note_on_c, 4, 52, 0
7, 6360, Note_on_c, 4, 54, 88
7, 6390, Note_on_c, 4, 54, 0
7, 6420, Note_on_c, 4, 42, 88
7, 6450, Note_on_c, 4, 42, 0
7, 6480, Note_on_c, 4, 47, 88
7, 6510, Note_on_c, 4, 47, 0
7, 6540, Note_on_c, 4, 50, 88
7, 6570, Note_on_c, 4, 50, 0
7, 6600, Note_on_c, 4, 54, 88
7, 6630, Note_on_c, 4, 54, 0
7, 6660, Note_on_c, 4, 59, 88
7, 6780, Note_on_c, 4, 59, 0
7, 6960, Note_on_c, 4, 62, 49
7, 6990, Note_on_c, 4, 62, 0
7, 7020, Note_on_c, 4, 61, 49
7, 7050, Note_on_c, 4, 61, 0
7, 7080, Note_on_c, 4, 59, 49
7, 7110, Note_on_c, 4, 59, 0
7, 7320, Note_on_c, 4, 59, 49
7, 7350, Note_on_c, 4, 59, 0
7, 7380, Note_on_c, 4, 58, 49
7, 7410, Note_on_c, 4, 58, 0
7, 7440, Note_on_c, 4, 54, 49
7, 7470, Note_on_c, 4, 54, 0
7, 7500, Note_on_c, 4, 58, 49
7, 7530, Note_on_c, 4, 58, 0
7, 7560, Note_on_c, 4, 59, 49
7, 7620, Note_on_c, 4, 59, 0
7, 7620, Note_on_c, 4, 52, 49
7, 7650, Note_on_c, 4, 52, 0
7, 7680, Note_on_c, 4, 50, 49
7, 7740, Note_on_c, 4, 50, 0
7, 7740, Note_on_c, 4, 49, 49
7, 7860, Note_on_c, 4, 49, 0
7, 7860, Note_on_c, 4, 45, 49
7, 7890, Note_on_c, 4, 45, 0
7, 7920, Note_on_c, 4, 50, 49
7, 7950, Note_on_c, 4, 50, 0
7, 7980, Note_on_c, 4, 45, 49
7, 8010, Note_on_c, 4, 45, 0
7, 8400, Note_on_c, 4, 50, 49
7, 8430, Note_on_c, 4, 50, 0
7, 8460, Note_on_c, 4, 38, 49
7, 8490, Note_on_c, 4, 38, 0
7, 8520, Note_on_c, 4, 42, 49
7, 8550, Note_on_c, 4, 42, 0
7, 8760, Note_on_c, 4, 43, 62
7, 8790, Note_on_c, 4, 43, 0
7, 8820, Note_on_c, 4, 55, 62
7, 8850, Note_on_c, 4, 55, 0
7, 8880, Note_on_c, 4, 51, 62
7, 8910, Note_on_c, 4, 51, 0
7, 8940, Note_on_c, 4, 47, 62
7, 8970, Note_on_c, 4, 47, 0
7, 9000, Note_on_c, 4, 52, 62
7, 9060, Note_on_c, 4, 52, 0
7, 9060, Note_on_c, 4, 54, 62
7, 9090, Note_on_c, 4, 54, 0
7, 9120, Note_on_c, 4, 55, 62
7, 9180, Note_on_c, 4, 55, 0
7, 9180, Note_on_c, 4, 49, 62
7, 9300, Note_on_c, 4, 49, 0
7, 9300, Note_on_c, 4, 47, 62
7, 9360, Note_on_c, 4, 47, 0
7, 9360, Note_on_c, 4, 46, 62
7, 9390, Note_on_c, 4, 46, 0
7, 9420, Note_on_c, 4, 42, 62
7, 9450, Note_on_c, 4, 42, 0
7, 9840, Note_on_c, 4, 47, 49
7, 9870, Note_on_c, 4, 47, 0
7, 9900, Note_on_c, 4, 59, 49
7, 9930, Note_on_c, 4, 59, 0
7, 9960, Note_on_c, 4, 47, 49
7, 9990, Note_on_c, 4, 47, 0
7, 10200, Note_on_c, 4, 59, 49
7, 10230, Note_on_c, 4, 59, 0
7, 10260, Note_on_c, 4, 57, 49
7, 10290, Note_on_c, 4, 57, 0
7, 10320, Note_on_c, 4, 45, 49
7, 10350, Note_on_c, 4, 45, 0
7, 10380, Note_on_c, 4, 57, 49
7, 10410, Note_on_c, 4, 57, 0
7, 10440, Note_on_c, 4, 56, 49
7, 10560, Note_on_c, 4, 56, 0
7, 10560, Note_on_c, 4, 54, 49
7, 10590, Note_on_c, 4, 54, 0
7, 10620, Note_on_c, 4, 53, 49
7, 10740, Note_on_c, 4, 53, 0
7, 10740, Note_on_c, 4, 54, 49
7, 10770, Note_on_c, 4, 54, 0
7, 10800, Note_on_c, 4, 47, 49
7, 10830, Note_on_c, 4, 47, 0
7, 10860, Note_on_c, 4, 49, 49
7, 10890, Note_on_c, 4, 49, 0
7, 10920, Note_on_c, 4, 37, 49
7, 10950, Note_on_c, 4, 37, 0
7, 10980, Note_on_c, 4, 42, 49
7, 11100, Note_on_c, 4, 42, 0
7, 11280, Note_on_c, 4, 57, 88
7, 11310, Note_on_c, 4, 57, 0
7, 11340, Note_on_c, 4, 56, 88
7, 11370, Note_on_c, 4, 56, 0
7, 11400, Note_on_c, 4, 54, 88
7, 11430, Note_on_c, 4, 54, 0
7, 11640, Note_on_c, 4, 53, 88
7, 11670, Note_on_c, 4, 53, 0
7, 11700, Note_on_c, 4, 49, 88
7, 11730, Note_on_c, 4, 49, 0
7, 11760, Note_on_c, 4, 51, 88
7, 11790, Note_on_c, 4, 51, 0
7, 11820, Note_on_c, 4, 53, 88
7, 11850, Note_on_c, 4, 53, 0
7, 11880, Note_on_c, 4, 54, 88
7, 11940, Note_on_c, 4, 54, 0
7, 11940, Note_on_c, 4, 47, 88
7, 11970, Note_on_c, 4, 47, 0
7, 12000, Note_on_c, 4, 45, 88
7, 12060, Note_on_c, 4, 45, 0
7, 12060, Note_on_c, 4, 44, 88
7, 12180, Note_on_c, 4, 44, 0
7, 12180, Note_on_c, 4, 40, 88
7, 12210, Note_on_c, 4, 40, 0
7, 12240, Note_on_c, 4, 45, 88
7, 12270, Note_on_c, 4, 45, 0
7, 12300, Note_on_c, 4, 40, 88
7, 12330, Note_on_c, 4, 40, 0
7, 12720, Note_on_c, 4, 45, 88
7, 12750, Note_on_c, 4, 45, 0
7, 12780, Note_on_c, 4, 50, 88
7, 12810, Note_on_c, 4, 50, 0
7, 12840, Note_on_c, 4, 38, 88
7, 12870, Note_on_c, 4, 38, 0
7, 13080, Note_on_c, 4, 47, 88
7, 13110, Note_on_c, 4, 47, 0
7, 13140, Note_on_c, 4, 52, 88
7, 13170, Note_on_c, 4, 52, 0
7, 13200, Note_on_c, 4, 40, 88
7, 13230, Note_on_c, 4, 40, 0
7, 13380, Note_on_c, 4, 54, 88
7, 13440, Note_on_c, 4, 54, 0
7, 13440, Note_on_c, 4, 52, 88
7, 13470, Note_on_c, 4, 52, 0
7, 13500, Note_on_c, 4, 50, 88
7, 13620, Note_on_c, 4, 50, 0
7, 13620, Note_on_c, 4, 49, 88
7, 13680, Note_on_c, 4, 49, 0
7, 13680, Note_on_c, 4, 47, 88
7, 13710, Note_on_c, 4, 47, 0
7, 13740, Note_on_c, 4, 52, 88
7, 13800, Note_on_c, 4, 52, 0
7, 13800, Note_on_c, 4, 50, 88
7, 13920, Note_on_c, 4, 50, 0
7, 13920, Note_on_c, 4, 49, 88
7, 13950, Note_on_c, 4, 49, 0
7, 13980, Note_on_c, 4, 52, 88
7, 14040, Note_on_c, 4, 52, 0
7, 14040, Note_on_c, 4, 45, 88
7, 14100, Note_on_c, 4, 45, 0
7, 14100, Note_on_c, 4, 47, 88
7, 14160, Note_on_c, 4, 47, 0
7, 14160, Note_on_c, 4, 49, 88
7, 14220, Note_on_c, 4, 49, 0
7, 14220, Note_on_c, 4, 50, 88
7, 14460, Note_on_c, 4, 50, 0
7, 14460, Note_on_c, 4, 62, 88
7, 14520, Note_on_c, 4, 62, 0
7, 14520, Note_on_c, 4, 59, 88
7, 14550, Note_on_c, 4, 59, 0
7, 14580, Note_on_c, 4, 56, 88
7, 14640, Note_on_c, 4, 56, 0
7, 14640, Note_on_c, 4, 53, 88
7, 14670, Note_on_c, 4, 53, 0
7, 14700, Note_on_c, 4, 54, 88
7, 14760, Note_on_c, 4, 54, 0
7, 14760, Note_on_c, 4, 53, 88
7, 14790, Note_on_c, 4, 53, 0
7, 14820, Note_on_c, 4, 56, 88
7, 14850, Note_on_c, 4, 56, 0
7, 14940, Note_on_c, 4, 49, 88
7, 14970, Note_on_c, 4, 49, 0
7, 15000, Note_on_c, 4, 53, 88
7, 15030, Note_on_c, 4, 53, 0
7, 15120, Note_on_c, 4, 54, 88
7, 15150, Note_on_c, 4, 54, 0
7, 15180, Note_on_c, 4, 50, 88
7, 15240, Note_on_c, 4, 50, 0
7, 15240, Note_on_c, 4, 45, 88
7, 15300, Note_on_c, 4, 45, 0
7, 15300, Note_on_c, 4, 47, 88
7, 15360, Note_on_c, 4, 47, 0
7, 15360, Note_on_c, 4, 49, 88
7, 15420, Note_on_c, 4, 49, 0
7, 15420, Note_on_c, 4, 37, 88
7, 15480, Note_on_c, 4, 37, 0
7, 15480, Note_on_c, 4, 42, 88
7, 15510, Note_on_c, 4, 42, 0
7, 15540, Note_on_c, 4, 45, 88
7, 15570, Note_on_c, 4, 45, 0
7, 15600, Note_on_c, 4, 49, 88
7, 15630, Note_on_c, 4, 49, 0
7, 15660, Note_on_c, 4, 54, 88
7, 15690, Note_on_c, 4, 54, 0
7, 15720, Note_on_c, 4, 45, 88
7, 15750, Note_on_c, 4, 45, 0
7, 15780, Note_on_c, 4, 49, 49
7, 15810, Note_on_c, 4, 49, 0
7, 15840, Note_on_c, 4, 42, 49
7, 15900, Note_on_c, 4, 42, 0
7, 15900, Note_on_c, 4, 44, 49
7, 15960, Note_on_c, 4, 44, 0
7, 15960, Note_on_c, 4, 45, 49
7, 15990, Note_on_c, 4, 45, 0
7, 16020, Note_on_c, 4, 47, 49
7, 16080, Note_on_c, 4, 47, 0
7, 16080, Note_on_c, 4, 49, 49
7, 16140, Note_on_c, 4, 49, 0
7, 16140, Note_on_c, 4, 50, 49
7, 16170, Note_on_c, 4, 50, 0
7, 16200, Note_on_c, 4, 40, 49
7, 16260, Note_on_c, 4, 40, 0
7, 16260, Note_on_c, 4, 42, 49
7, 16320, Note_on_c, 4, 42, 0
7, 16320, Note_on_c, 4, 44, 49
7, 16350, Note_on_c, 4, 44, 0
7, 16380, Note_on_c, 4, 45, 49
7, 16440, Note_on_c, 4, 45, 0
7, 16440, Note_on_c, 4, 47, 49
7, 16500, Note_on_c, 4, 47, 0
7, 16500, Note_on_c, 4, 49, 49
7, 16530, Note_on_c, 4, 49, 0
7, 16560, Note_on_c, 4, 50, 49
7, 16620, Note_on_c, 4, 50, 0
7, 16620, Note_on_c, 4, 47, 49
7, 16680, Note_on_c, 4, 47, 0
7, 16680, Note_on_c, 4, 49, 49
7, 16710, Note_on_c, 4, 49, 0
7, 16740, Note_on_c, 4, 44, 49
7, 16860, Note_on_c, 4, 44, 0
7, 16860, Note_on_c, 4, 45, 49
7, 16920, Note_on_c, 4, 45, 0
7, 16920, Note_on_c, 4, 52, 49
7, 16950, Note_on_c, 4, 52, 0
7, 16980, Note_on_c, 4, 40, 49
7, 17010, Note_on_c, 4, 40, 0
7, 17220, Note_on_c, 4, 56, 49
7, 17280, Note_on_c, 4, 56, 0
7, 17280, Note_on_c, 4, 57, 49
7, 17310, Note_on_c, 4, 57, 0
7, 17340, Note_on_c, 4, 49, 49
7, 17370, Note_on_c, 4, 49, 0
7, 17400, Note_on_c, 4, 52, 49
7, 17430, Note_on_c, 4, 52, 0
7, 17460, Note_on_c, 4, 49, 49
7, 17490, Note_on_c, 4, 49, 0
7, 17520, Note_on_c, 4, 45, 49
7, 17550, Note_on_c, 4, 45, 0
7, 17580, Note_on_c, 4, 58, 49
7, 17610, Note_on_c, 4, 58, 0
7, 17640, Note_on_c, 4, 59, 49
7, 17670, Note_on_c, 4, 59, 0
7, 17700, Note_on_c, 4, 50, 49
7, 17730, Note_on_c, 4, 50, 0
7, 17760, Note_on_c, 4, 54, 49
7, 17790, Note_on_c, 4, 54, 0
7, 17820, Note_on_c, 4, 50, 49
7, 17850, Note_on_c, 4, 50, 0
7, 17880, Note_on_c, 4, 47, 49
7, 17910, Note_on_c, 4, 47, 0
7, 17940, Note_on_c, 4, 55, 49
7, 18060, Note_on_c, 4, 55, 0
7, 18060, Note_on_c, 4, 54, 49
7, 18090, Note_on_c, 4, 54, 0
7, 18120, Note_on_c, 4, 59, 49
7, 18150, Note_on_c, 4, 59, 0
7, 18180, Note_on_c, 4, 57, 49
7, 18240, Note_on_c, 4, 57, 0
7, 18240, Note_on_c, 4, 55, 49
7, 18270, Note_on_c, 4, 55, 0
7, 18300, Note_on_c, 4, 57, 49
7, 18330, Note_on_c, 4, 57, 0
7, 18360, Note_on_c, 4, 50, 49
7, 18390, Note_on_c, 4, 50, 0
7, 18420, Note_on_c, 4, 62, 49
7, 18450, Note_on_c, 4, 62, 0
7, 18480, Note_on_c, 4, 61, 49
7, 18510, Note_on_c, 4, 61, 0
7, 18540, Note_on_c, 4, 59, 49
7, 18570, Note_on_c, 4, 59, 0
7, 18600, Note_on_c, 4, 55, 49
7, 18630, Note_on_c, 4, 55, 0
7, 18720, Note_on_c, 4, 57, 49
7, 18750, Note_on_c, 4, 57, 0
7, 18780, Note_on_c, 4, 54, 49
7, 18810, Note_on_c, 4, 54, 0
7, 18900, Note_on_c, 4, 55, 49
7, 18930, Note_on_c, 4, 55, 0
7, 18960, Note_on_c, 4, 52, 49
7, 18990, Note_on_c, 4, 52, 0
7, 19080, Note_on_c, 4, 54, 49
7, 19110, Note_on_c, 4, 54, 0
7, 19140, Note_on_c, 4, 50, 49
7, 19170, Note_on_c, 4, 50, 0
7, 19260, Note_on_c, 4, 43, 49
7, 19290, Note_on_c, 4, 43, 0
7, 19320, Note_on_c, 4, 52, 49
7, 19380, Note_on_c, 4, 52, 0
7, 19380, Note_on_c, 4, 50, 49
7, 19440, Note_on_c, 4, 50, 0
7, 19440, Note_on_c, 4, 49, 49
7, 19470, Note_on_c, 4, 49, 0
7, 19500, Note_on_c, 4, 45, 49
7, 19530, Note_on_c, 4, 45, 0
7, 19740, Note_on_c, 4, 45, 49
7, 19800, Note_on_c, 4, 45, 0
7, 19800, Note_on_c, 4, 50, 49
7, 19860, Note_on_c, 4, 50, 0
7, 19860, Note_on_c, 4, 43, 49
7, 19890, Note_on_c, 4, 43, 0
7, 19920, Note_on_c, 4, 55, 49
7, 19950, Note_on_c, 4, 55, 0
7, 19980, Note_on_c, 4, 54, 49
7, 20040, Note_on_c, 4, 54, 0
7, 20040, Note_on_c, 4, 55, 49
7, 20070, Note_on_c, 4, 55, 0
7, 20100, Note_on_c, 4, 57, 49
7, 20130, Note_on_c, 4, 57, 0
7, 20160, Note_on_c, 4, 50, 49
7, 20190, Note_on_c, 4, 50, 0
7, 20220, Note_on_c, 4, 45, 49
7, 20250, Note_on_c, 4, 45, 0
7, 20280, Note_on_c, 4, 42, 88
7, 20310, Note_on_c, 4, 42, 0
7, 20340, Note_on_c, 4, 38, 88
7, 20460, Note_on_c, 4, 38, 0
7, 20640, Note_on_c, 4, 54, 88
7, 20700, Note_on_c, 4, 54, 0
7, 20700, Note_on_c, 4, 52, 88
7, 20760, Note_on_c, 4, 52, 0
7, 20760, Note_on_c, 4, 50, 88
7, 20820, Note_on_c, 4, 50, 0
7, 21000, Note_on_c, 4, 49, 88
7, 21030, Note_on_c, 4, 49, 0
7, 21060, Note_on_c, 4, 45, 88
7, 21120, Note_on_c, 4, 45, 0
7, 21120, Note_on_c, 4, 47, 88
7, 21180, Note_on_c, 4, 47, 0
7, 21180, Note_on_c, 4, 49, 88
7, 21210, Note_on_c, 4, 49, 0
7, 21240, Note_on_c, 4, 50, 88
7, 21360, Note_on_c, 4, 50, 0
7, 21360, Note_on_c, 4, 52, 88
7, 21390, Note_on_c, 4, 52, 0
7, 21420, Note_on_c, 4, 54, 88
7, 21540, Note_on_c, 4, 54, 0
7, 21540, Note_on_c, 4, 55, 88
7, 21570, Note_on_c, 4, 55, 0
7, 21600, Note_on_c, 4, 50, 88
7, 21630, Note_on_c, 4, 50, 0
7, 21660, Note_on_c, 4, 38, 88
7, 21690, Note_on_c, 4, 38, 0
7, 21900, Note_on_c, 4, 47, 75
7, 21930, Note_on_c, 4, 47, 0
7, 21960, Note_on_c, 4, 52, 75
7, 22020, Note_on_c, 4, 52, 0
7, 22020, Note_on_c, 4, 55, 75
7, 22080, Note_on_c, 4, 55, 0
7, 22080, Note_on_c, 4, 54, 75
7, 22110, Note_on_c, 4, 54, 0
7, 22140, Note_on_c, 4, 52, 75
7, 22260, Note_on_c, 4, 52, 0
7, 22260, Note_on_c, 4, 50, 88
7, 22290, Note_on_c, 4, 50, 0
7, 22320, Note_on_c, 4, 49, 88
7, 22380, Note_on_c, 4, 49, 0
7, 22380, Note_on_c, 4, 52, 88
7, 22440, Note_on_c, 4, 52, 0
7, 22440, Note_on_c, 4, 50, 88
7, 22470, Note_on_c, 4, 50, 0
7, 22500, Note_on_c, 4, 49, 88
7, 22560, Note_on_c, 4, 49, 0
7, 22560, Note_on_c, 4, 45, 88
7, 22620, Note_on_c, 4, 45, 0
7, 22620, Note_on_c, 4, 49, 88
7, 22650, Note_on_c, 4, 49, 0
7, 22680, Note_on_c, 4, 50, 88
7, 22740, Note_on_c, 4, 50, 0
7, 22740, Note_on_c, 4, 45, 88
7, 22800, Note_on_c, 4, 45, 0
7, 22800, Note_on_c, 4, 47, 88
7, 22830, Note_on_c, 4, 47, 0
7, 22860, Note_on_c, 4, 43, 88
7, 22920, Note_on_c, 4, 43, 0
7, 22920, Note_on_c, 4, 45, 88
7, 22980, Note_on_c, 4, 45, 0
7, 22980, Note_on_c, 4, 45, 88
7, 23010, Note_on_c, 4, 45, 0
7, 23040, Note_on_c, 4, 38, 88
7, 23070, Note_on_c, 4, 38, 0
7, 23100, Note_on_c, 4, 42, 88
7, 23130, Note_on_c, 4, 42, 0
7, 23160, Note_on_c, 4, 45, 88
7, 23190, Note_on_c, 4, 45, 0
7, 23220, Note_on_c, 4, 50, 88
7, 23250, Note_on_c, 4, 50, 0
7, 23280, Note_on_c, 4, 54, 88
7, 23310, Note_on_c, 4, 54, 0
7, 23340, Note_on_c, 4, 50, 49
7, 23370, Note_on_c, 4, 50, 0
7, 23400, Note_on_c, 4, 57, 49
7, 23430, Note_on_c, 4, 57, 0
7, 23460, Note_on_c, 4, 45, 49
7, 23490, Note_on_c, 4, 45, 0
7, 23640, Note_on_c, 4, 57, 49
7, 23670, Note_on_c, 4, 57, 0
7, 23700, Note_on_c, 4, 54, 49
7, 23730, Note_on_c, 4, 54, 0
7, 23760, Note_on_c, 4, 59, 49
7, 23880, Note_on_c, 4, 59, 0
7, 23880, Note_on_c, 4, 47, 49
7, 23910, Note_on_c, 4, 47, 0
7, 23940, Note_on_c, 4, 40, 49
7, 23970, Note_on_c, 4, 40, 0
7, 24000, Note_on_c, 4, 52, 49
7, 24030, Note_on_c, 4, 52, 0
7, 24060, Note_on_c, 4, 49, 49
7, 24090, Note_on_c, 4, 49, 0
7, 24120, Note_on_c, 4, 46, 49
7, 24150, Note_on_c, 4, 46, 0
7, 24180, Note_on_c, 4, 42, 49
7, 24210, Note_on_c, 4, 42, 0
7, 24360, Note_on_c, 4, 59, 49
7, 24390, Note_on_c, 4, 59, 0
7, 24420, Note_on_c, 4, 57, 49
7, 24450, Note_on_c, 4, 57, 0
7, 24480, Note_on_c, 4, 55, 49
7, 24600, Note_on_c, 4, 55, 0
7, 24600, Note_on_c, 4, 43, 49
7, 24630, Note_on_c, 4, 43, 0
7, 24660, Note_on_c, 4, 42, 49
7, 24780, Note_on_c, 4, 42, 0
7, 24960, Note_on_c, 4, 62, 49
7, 24990, Note_on_c, 4, 62, 0
7, 25020, Note_on_c, 4, 61, 49
7, 25050, Note_on_c, 4, 61, 0
7, 25080, Note_on_c, 4, 59, 49
7, 25110, Note_on_c, 4, 59, 0
7, 25320, Note_on_c, 4, 58, 49
7, 25350, Note_on_c, 4, 58, 0
7, 25380, Note_on_c, 4, 54, 49
7, 25410, Note_on_c, 4, 54, 0
7, 25440, Note_on_c, 4, 56, 49
7, 25470, Note_on_c, 4, 56, 0
7, 25500, Note_on_c, 4, 58, 49
7, 25530, Note_on_c, 4, 58, 0
7, 25560, Note_on_c, 4, 59, 49
7, 25620, Note_on_c, 4, 59, 0
7, 25620, Note_on_c, 4, 52, 49
7, 25650, Note_on_c, 4, 52, 0
7, 25680, Note_on_c, 4, 50, 49
7, 25740, Note_on_c, 4, 50, 0
7, 25740, Note_on_c, 4, 49, 49
7, 25860, Note_on_c, 4, 49, 0
7, 25860, Note_on_c, 4, 45, 49
7, 25890, Note_on_c, 4, 45, 0
7, 25920, Note_on_c, 4, 50, 49
7, 25950, Note_on_c, 4, 50, 0
7, 25980, Note_on_c, 4, 45, 49
7, 26010, Note_on_c, 4, 45, 0
7, 26220, Note_on_c, 4, 58, 49
7, 26250, Note_on_c, 4, 58, 0
7, 26280, Note_on_c, 4, 59, 49
7, 26310, Note_on_c, 4, 59, 0
7, 26340, Note_on_c, 4, 47, 49
7, 26370, Note_on_c, 4, 47, 0
7, 26580, Note_on_c, 4, 53, 49
7, 26610, Note_on_c, 4, 53, 0
7, 26640, Note_on_c, 4, 54, 49
7, 26820, Note_on_c, 4, 54, 0
7, 26820, Note_on_c, 4, 42, 49
7, 26940, Note_on_c, 4, 42, 0
7, 26940, Note_on_c, 4, 58, 49
7, 26970, Note_on_c, 4, 58, 0
7, 27000, Note_on_c, 4, 59, 49
7, 27030, Note_on_c, 4, 59, 0
7, 27060, Note_on_c, 4, 55, 49
7, 27090, Note_on_c, 4, 55, 0
7, 27180, Note_on_c, 4, 52, 49
7, 27210, Note_on_c, 4, 52, 0
7, 27240, Note_on_c, 4, 54, 49
7, 27270, Note_on_c, 4, 54, 0
7, 27360, Note_on_c, 4, 55, 49
7, 27390, Note_on_c, 4, 55, 0
7, 27420, Note_on_c, 4, 52, 49
7, 27450, Note_on_c, 4, 52, 0
7, 27540, Note_on_c, 4, 49, 49
7, 27570, Note_on_c, 4, 49, 0
7, 27600, Note_on_c, 4, 51, 49
7, 27630, Note_on_c, 4, 51, 0
7, 27720, Note_on_c, 4, 52, 49
7, 27750, Note_on_c, 4, 52, 0
7, 27780, Note_on_c, 4, 40, 49
7, 27810, Note_on_c, 4, 40, 0
7, 28080, Note_on_c, 4, 52, 49
7, 28110, Note_on_c, 4, 52, 0
7, 28140, Note_on_c, 4, 40, 49
7, 28170, Note_on_c, 4, 40, 0
7, 28440, Control_c, 4, 7, 60
7, 28445, Control_c, 4, 7, 61
7, 28450, Control_c, 4, 7, 62
7, 28456, Control_c, 4, 7, 63
7, 28461, Control_c, 4, 7, 64
7, 28466, Control_c, 4, 7, 65
7, 28472, Control_c, 4, 7, 66
7, 28477, Control_c, 4, 7, 67
7, 28483, Control_c, 4, 7, 68
7, 28488, Control_c, 4, 7, 69
7, 28493, Control_c, 4, 7, 70
7, 28499, Control_c, 4, 7, 71
7, 28500, Note_on_c, 4, 52, 88
7, 28504, Control_c, 4, 7, 72
7, 28509, Control_c, 4, 7, 73
7, 28515, Control_c, 4, 7, 74
7, 28520, Control_c, 4, 7, 75
7, 28526, Control_c, 4, 7, 76
7, 28531, Control_c, 4, 7, 77
7, 28536, Control_c, 4, 7, 78
7, 28542, Control_c, 4, 7, 79
7, 28547, Control_c, 4, 7, 80
7, 28552, Control_c, 4, 7, 81
7, 28558, Control_c, 4, 7, 82
7, 28560, Note_on_c, 4, 52, 0
7, 28560, Note_on_c, 4, 54, 88
7, 28563, Control_c, 4, 7, 83
7, 28568, Control_c, 4, 7, 84
7, 28574, Control_c, 4, 7, 85
7, 28579, Control_c, 4, 7, 86
7, 28585, Control_c, 4, 7, 87
7, 28590, Note_on_c, 4, 54, 0
7, 28590, Control_c, 4, 7, 88
7, 28595, Control_c, 4, 7, 89
7, 28601, Control_c, 4, 7, 90
7, 28606, Control_c, 4, 7, 91
7, 28611, Control_c, 4, 7, 92
7, 28617, Control_c, 4, 7, 93
7, 28620, Note_on_c, 4, 55, 88
7, 28622, Control_c, 4, 7, 94
7, 28628, Control_c, 4, 7, 95
7, 28633, Control_c, 4, 7, 96
7, 28638, Control_c, 4, 7, 97
7, 28644, Control_c, 4, 7, 98
7, 28649, Control_c, 4, 7, 99
7, 28654, Control_c, 4, 7, 100
7, 28660, Control_c, 4, 7, 101
7, 28665, Control_c, 4, 7, 102
7, 28671, Control_c, 4, 7, 103
7, 28676, Control_c, 4, 7, 104
7, 28680, Note_on_c, 4, 55, 0
7, 28680, Note_on_c, 4, 54, 88
7, 28681, Control_c, 4, 7, 105
7, 28687, Control_c, 4, 7, 106
7, 28692, Control_c, 4, 7, 107
7, 28697, Control_c, 4, 7, 108
7, 28703, Control_c, 4, 7, 109
7, 28708, Control_c, 4, 7, 110
7, 28713, Control_c, 4, 7, 111
7, 28719, Control_c, 4, 7, 112
7, 28724, Control_c, 4, 7, 113
7, 28730, Control_c, 4, 7, 114
7, 28735, Control_c, 4, 7, 115
7, 28740, Note_on_c, 4, 54, 0
7, 28740, Note_on_c, 4, 52, 88
7, 28740, Control_c, 4, 7, 116
7, 28746, Control_c, 4, 7, 117
7, 28751, Control_c, 4, 7, 118
7, 28756, Control_c, 4, 7, 119
7, 28762, Control_c, 4, 7, 120
7, 28767, Control_c, 4, 7, 121
7, 28770, Note_on_c, 4, 52, 0
7, 28773, Control_c, 4, 7, 122
7, 28778, Control_c, 4, 7, 123
7, 28783, Control_c, 4, 7, 124
7, 28789, Control_c, 4, 7, 125
7, 28794, Control_c, 4, 7, 126
7, 28800, Note_on_c, 4, 58, 88
7, 28830, Note_on_c, 4, 58, 0
7, 29040, Note_on_c, 4, 54, 75
7, 29070, Note_on_c, 4, 54, 0
7, 29100, Note_on_c, 4, 58, 75
7, 29130, Note_on_c, 4, 58, 0
7, 29160, Note_on_c, 4, 47, 75
7, 29220, Note_on_c, 4, 47, 0
7, 29220, Note_on_c, 4, 49, 75
7, 29250, Note_on_c, 4, 49, 0
7, 29280, Note_on_c, 4, 50, 75
7, 29310, Note_on_c, 4, 50, 0
7, 29340, Note_on_c, 4, 52, 75
7, 29400, Note_on_c, 4, 52, 0
7, 29400, Note_on_c, 4, 49, 75
7, 29430, Note_on_c, 4, 49, 0
7, 29460, Note_on_c, 4, 50, 75
7, 29490, Note_on_c, 4, 50, 0
7, 29520, Note_on_c, 4, 47, 75
7, 29550, Note_on_c, 4, 47, 0
7, 29580, Note_on_c, 4, 54, 75
7, 29610, Note_on_c, 4, 54, 0
7, 29640, Note_on_c, 4, 42, 75
7, 29670, Note_on_c, 4, 42, 0
7, 29700, Note_on_c, 4, 47, 75
7, 29730, Note_on_c, 4, 47, 0
7, 29760, Note_on_c, 4, 59, 75
7, 29790, Note_on_c, 4, 59, 0
7, 29820, Note_on_c, 4, 57, 88
7, 29850, Note_on_c, 4, 57, 0
7, 29880, Note_on_c, 4, 55, 88
7, 30090, Note_on_c, 4, 55, 0
7, 30120, Note_on_c, 4, 52, 88
7, 30150, Note_on_c, 4, 52, 0
7, 30180, Note_on_c, 4, 49, 88
7, 30210, Note_on_c, 4, 49, 0
7, 30240, Note_on_c, 4, 46, 88
7, 30270, Note_on_c, 4, 46, 0
7, 30300, Note_on_c, 4, 49, 88
7, 30330, Note_on_c, 4, 49, 0
7, 30420, Note_on_c, 4, 42, 88
7, 30450, Note_on_c, 4, 42, 0
7, 30480, Note_on_c, 4, 46, 88
7, 30510, Note_on_c, 4, 46, 0
7, 30600, Note_on_c, 4, 47, 88
7, 30630, Note_on_c, 4, 47, 0
7, 30660, Note_on_c, 4, 55, 88
7, 30690, Note_on_c, 4, 55, 0
7, 30720, Note_on_c, 4, 50, 88
7, 30750, Note_on_c, 4, 50, 0
7, 30780, Note_on_c, 4, 52, 88
7, 30810, Note_on_c, 4, 52, 0
7, 30840, Note_on_c, 4, 54, 88
7, 30870, Note_on_c, 4, 54, 0
7, 30900, Note_on_c, 4, 42, 88
7, 30930, Note_on_c, 4, 42, 0
7, 30960, Note_on_c, 4, 47, 88
7, 31320, Note_on_c, 4, 47, 0
7, 31680, End_track
8, 0, Start_track
8, 0, MIDI_port, 0
8, 0, Title_t, "Alto"
8, 0, Program_c, 5, 53
8, 6750, Note_on_c, 5, 71, 88
8, 6780, Note_on_c, 5, 71, 0
8, 6780, Note_on_c, 5, 70, 88
8, 6810, Note_on_c, 5, 70, 0
8, 6810, Note_on_c, 5, 71, 88
8, 6840, Note_on_c, 5, 71, 0
8, 6840, Note_on_c, 5, 66, 88
8, 7110, Note_on_c, 5, 66, 0
8, 7110, Note_on_c, 5, 73, 88
8, 7140, Note_on_c, 5, 73, 0
8, 7140, Note_on_c, 5, 71, 88
8, 7170, Note_on_c, 5, 71, 0
8, 7170, Note_on_c, 5, 73, 88
8, 7200, Note_on_c, 5, 73, 0
8, 7200, Note_on_c, 5, 66, 88
8, 7470, Note_on_c, 5, 66, 0
8, 7470, Note_on_c, 5, 70, 88
8, 7500, Note_on_c, 5, 70, 0
8, 7500, Note_on_c, 5, 73, 88
8, 7530, Note_on_c, 5, 73, 0
8, 7530, Note_on_c, 5, 76, 88
8, 7560, Note_on_c, 5, 76, 0
8, 7560, Note_on_c, 5, 74, 88
8, 7620, Note_on_c, 5, 74, 0
8, 7620, Note_on_c, 5, 73, 88
8, 7650, Note_on_c, 5, 73, 0
8, 7680, Note_on_c, 5, 71, 88
8, 7800, Note_on_c, 5, 71, 0
8, 7800, Note_on_c, 5, 69, 88
8, 7860, Note_on_c, 5, 69, 0
8, 7860, Note_on_c, 5, 67, 88
8, 7890, Note_on_c, 5, 67, 0
8, 7920, Note_on_c, 5, 66, 88
8, 7950, Note_on_c, 5, 66, 0
8, 7980, Note_on_c, 5, 64, 88
8, 8010, Note_on_c, 5, 64, 0
8, 8190, Note_on_c, 5, 69, 88
8, 8220, Note_on_c, 5, 69, 0
8, 8220, Note_on_c, 5, 67, 88
8, 8250, Note_on_c, 5, 67, 0
8, 8250, Note_on_c, 5, 69, 88
8, 8280, Note_on_c, 5, 69, 0
8, 8280, Note_on_c, 5, 66, 88
8, 8550, Note_on_c, 5, 66, 0
8, 8550, Note_on_c, 5, 62, 88
8, 8580, Note_on_c, 5, 62, 0
8, 8580, Note_on_c, 5, 61, 88
8, 8610, Note_on_c, 5, 61, 0
8, 8610, Note_on_c, 5, 62, 88
8, 8640, Note_on_c, 5, 62, 0
8, 8640, Note_on_c, 5, 71, 88
8, 8910, Note_on_c, 5, 71, 0
8, 8910, Note_on_c, 5, 69, 88
8, 8940, Note_on_c, 5, 69, 0
8, 8940, Note_on_c, 5, 67, 88
8, 8970, Note_on_c, 5, 67, 0
8, 8970, Note_on_c, 5, 66, 88
8, 9000, Note_on_c, 5, 66, 0
8, 9000, Note_on_c, 5, 67, 88
8, 9060, Note_on_c, 5, 67, 0
8, 9060, Note_on_c, 5, 66, 88
8, 9090, Note_on_c, 5, 66, 0
8, 9120, Note_on_c, 5, 64, 88
8, 9240, Note_on_c, 5, 64, 0
8, 9240, Note_on_c, 5, 67, 88
8, 9300, Note_on_c, 5, 67, 0
8, 9300, Note_on_c, 5, 71, 88
8, 9360, Note_on_c, 5, 71, 0
8, 9360, Note_on_c, 5, 76, 88
8, 9390, Note_on_c, 5, 76, 0
8, 9420, Note_on_c, 5, 70, 88
8, 9450, Note_on_c, 5, 70, 0
8, 9630, Note_on_c, 5, 66, 88
8, 9660, Note_on_c, 5, 66, 0
8, 9660, Note_on_c, 5, 64, 88
8, 9690, Note_on_c, 5, 64, 0
8, 9690, Note_on_c, 5, 66, 88
8, 9720, Note_on_c, 5, 66, 0
8, 9720, Note_on_c, 5, 74, 88
8, 9990, Note_on_c, 5, 74, 0
8, 9990, Note_on_c, 5, 68, 88
8, 10020, Note_on_c, 5, 68, 0
8, 10020, Note_on_c, 5, 66, 88
8, 10050, Note_on_c, 5, 66, 0
8, 10050, Note_on_c, 5, 68, 88
8, 10080, Note_on_c, 5, 68, 0
8, 10080, Note_on_c, 5, 73, 88
8, 10350, Note_on_c, 5, 73, 0
8, 10350, Note_on_c, 5, 69, 88
8, 10380, Note_on_c, 5, 69, 0
8, 10380, Note_on_c, 5, 68, 88
8, 10410, Note_on_c, 5, 68, 0
8, 10410, Note_on_c, 5, 66, 88
8, 10440, Note_on_c, 5, 66, 0
8, 10440, Note_on_c, 5, 65, 88
8, 10470, Note_on_c, 5, 65, 0
8, 10470, Note_on_c, 5, 68, 88
8, 10500, Note_on_c, 5, 68, 0
8, 10500, Note_on_c, 5, 71, 88
8, 10560, Note_on_c, 5, 71, 0
8, 10560, Note_on_c, 5, 62, 88
8, 10620, Note_on_c, 5, 62, 0
8, 10620, Note_on_c, 5, 62, 88
8, 10680, Note_on_c, 5, 62, 0
8, 10680, Note_on_c, 5, 61, 88
8, 10710, Note_on_c, 5, 61, 0
8, 10740, Note_on_c, 5, 69, 88
8, 10830, Note_on_c, 5, 69, 0
8, 10830, Note_on_c, 5, 68, 88
8, 10860, Note_on_c, 5, 68, 0
8, 10860, Note_on_c, 5, 65, 88
8, 10950, Note_on_c, 5, 65, 0
8, 10950, Note_on_c, 5, 66, 88
8, 10980, Note_on_c, 5, 66, 0
8, 10980, Note_on_c, 5, 66, 88
8, 11100, Note_on_c, 5, 66, 0
8, 15780, Note_on_c, 5, 73, 88
8, 15840, Note_on_c, 5, 73, 0
8, 15840, Note_on_c, 5, 69, 88
8, 15870, Note_on_c, 5, 69, 0
8, 15870, Note_on_c, 5, 68, 88
8, 15900, Note_on_c, 5, 68, 0
8, 15900, Note_on_c, 5, 71, 88
8, 15930, Note_on_c, 5, 71, 0
8, 15930, Note_on_c, 5, 69, 88
8, 15960, Note_on_c, 5, 69, 0
8, 15960, Note_on_c, 5, 68, 88
8, 15990, Note_on_c, 5, 68, 0
8, 15990, Note_on_c, 5, 66, 88
8, 16020, Note_on_c, 5, 66, 0
8, 16020, Note_on_c, 5, 74, 88
8, 16230, Note_on_c, 5, 74, 0
8, 16230, Note_on_c, 5, 71, 88
8, 16260, Note_on_c, 5, 71, 0
8, 16260, Note_on_c, 5, 69, 88
8, 16290, Note_on_c, 5, 69, 0
8, 16290, Note_on_c, 5, 68, 88
8, 16320, Note_on_c, 5, 68, 0
8, 16320, Note_on_c, 5, 66, 88
8, 16350, Note_on_c, 5, 66, 0
8, 16350, Note_on_c, 5, 64, 88
8, 16380, Note_on_c, 5, 64, 0
8, 16380, Note_on_c, 5, 73, 88
8, 16440, Note_on_c, 5, 64, 88
8, 16440, Note_on_c, 5, 73, 0
8, 16455, Note_on_c, 5, 64, 0
8, 16455, Note_on_c, 5, 66, 88
8, 16470, Note_on_c, 5, 66, 0
8, 16470, Note_on_c, 5, 64, 88
8, 16485, Note_on_c, 5, 64, 0
8, 16485, Note_on_c, 5, 66, 88
8, 16500, Note_on_c, 5, 66, 0
8, 16500, Note_on_c, 5, 64, 88
8, 16511, Note_on_c, 5, 64, 0
8, 16511, Note_on_c, 5, 66, 88
8, 16524, Note_on_c, 5, 66, 0
8, 16524, Note_on_c, 5, 64, 88
8, 16535, Note_on_c, 5, 64, 0
8, 16535, Note_on_c, 5, 62, 88
8, 16548, Note_on_c, 5, 62, 0
8, 16548, Note_on_c, 5, 64, 88
8, 16560, Note_on_c, 5, 64, 0
8, 16560, Note_on_c, 5, 66, 88
8, 16620, Note_on_c, 5, 66, 0
8, 16620, Note_on_c, 5, 68, 88
8, 16650, Note_on_c, 5, 68, 0
8, 16680, Note_on_c, 5, 69, 88
8, 16740, Note_on_c, 5, 69, 0
8, 16740, Note_on_c, 5, 64, 88
8, 16800, Note_on_c, 5, 64, 0
8, 16800, Note_on_c, 5, 74, 88
8, 16830, Note_on_c, 5, 74, 0
8, 16860, Note_on_c, 5, 73, 88
8, 16890, Note_on_c, 5, 73, 0
8, 16920, Note_on_c, 5, 73, 88
8, 16950, Note_on_c, 5, 73, 0
8, 16980, Note_on_c, 5, 71, 88
8, 17010, Note_on_c, 5, 71, 0
8, 17220, Note_on_c, 5, 74, 88
8, 17280, Note_on_c, 5, 74, 0
8, 17280, Note_on_c, 5, 73, 88
8, 17310, Note_on_c, 5, 73, 0
8, 17340, Note_on_c, 5, 69, 88
8, 17400, Note_on_c, 5, 69, 0
8, 17400, Note_on_c, 5, 68, 88
8, 17460, Note_on_c, 5, 68, 0
8, 17460, Note_on_c, 5, 69, 88
8, 17520, Note_on_c, 5, 69, 0
8, 17520, Note_on_c, 5, 73, 88
8, 17580, Note_on_c, 5, 73, 0
8, 17580, Note_on_c, 5, 76, 88
8, 17640, Note_on_c, 5, 76, 0
8, 17640, Note_on_c, 5, 74, 88
8, 17700, Note_on_c, 5, 74, 0
8, 17700, Note_on_c, 5, 71, 88
8, 17760, Note_on_c, 5, 71, 0
8, 17760, Note_on_c, 5, 70, 88
8, 17820, Note_on_c, 5, 70, 0
8, 17820, Note_on_c, 5, 71, 88
8, 17850, Note_on_c, 5, 71, 0
8, 17850, Note_on_c, 5, 73, 88
8, 17880, Note_on_c, 5, 73, 0
8, 17880, Note_on_c, 5, 74, 88
8, 17940, Note_on_c, 5, 74, 0
8, 17940, Note_on_c, 5, 64, 88
8, 17970, Note_on_c, 5, 64, 0
8, 18000, Note_on_c, 5, 64, 88
8, 18030, Note_on_c, 5, 64, 0
8, 18060, Note_on_c, 5, 69, 88
8, 18090, Note_on_c, 5, 69, 0
8, 18420, Note_on_c, 5, 62, 88
8, 18450, Note_on_c, 5, 62, 0
8, 18480, Note_on_c, 5, 74, 88
8, 18570, Note_on_c, 5, 74, 0
8, 18570, Note_on_c, 5, 73, 88
8, 18600, Note_on_c, 5, 73, 0
8, 18600, Note_on_c, 5, 74, 88
8, 18630, Note_on_c, 5, 74, 0
8, 18630, Note_on_c, 5, 71, 88
8, 18660, Note_on_c, 5, 71, 0
8, 18660, Note_on_c, 5, 69, 88
8, 18690, Note_on_c, 5, 69, 0
8, 18690, Note_on_c, 5, 67, 88
8, 18720, Note_on_c, 5, 67, 0
8, 18720, Note_on_c, 5, 74, 88
8, 18750, Note_on_c, 5, 74, 0
8, 18750, Note_on_c, 5, 73, 88
8, 18780, Note_on_c, 5, 73, 0
8, 18780, Note_on_c, 5, 74, 88
8, 18810, Note_on_c, 5, 74, 0
8, 18810, Note_on_c, 5, 69, 88
8, 18840, Note_on_c, 5, 69, 0
8, 18840, Note_on_c, 5, 67, 88
8, 18870, Note_on_c, 5, 67, 0
8, 18870, Note_on_c, 5, 66, 88
8, 18900, Note_on_c, 5, 66, 0
8, 18900, Note_on_c, 5, 74, 88
8, 18930, Note_on_c, 5, 74, 0
8, 18930, Note_on_c, 5, 73, 88
8, 18960, Note_on_c, 5, 73, 0
8, 18960, Note_on_c, 5, 74, 88
8, 18990, Note_on_c, 5, 74, 0
8, 18990, Note_on_c, 5, 67, 88
8, 19020, Note_on_c, 5, 67, 0
8, 19020, Note_on_c, 5, 66, 88
8, 19050, Note_on_c, 5, 66, 0
8, 19050, Note_on_c, 5, 64, 88
8, 19080, Note_on_c, 5, 64, 0
8, 19080, Note_on_c, 5, 74, 88
8, 19110, Note_on_c, 5, 74, 0
8, 19110, Note_on_c, 5, 73, 88
8, 19140, Note_on_c, 5, 73, 0
8, 19140, Note_on_c, 5, 74, 88
8, 19170, Note_on_c, 5, 74, 0
8, 19170, Note_on_c, 5, 66, 88
8, 19200, Note_on_c, 5, 66, 0
8, 19200, Note_on_c, 5, 64, 88
8, 19230, Note_on_c, 5, 64, 0
8, 19230, Note_on_c, 5, 62, 88
8, 19260, Note_on_c, 5, 62, 0
8, 19260, Note_on_c, 5, 72, 88
8, 19290, Note_on_c, 5, 72, 0
8, 19290, Note_on_c, 5, 71, 88
8, 19320, Note_on_c, 5, 71, 0
8, 19320, Note_on_c, 5, 69, 88
8, 19350, Note_on_c, 5, 69, 0
8, 19350, Note_on_c, 5, 67, 88
8, 19380, Note_on_c, 5, 67, 0
8, 19380, Note_on_c, 5, 76, 88
8, 19470, Note_on_c, 5, 76, 0
8, 19500, Note_on_c, 5, 67, 88
8, 19530, Note_on_c, 5, 67, 0
8, 19740, Note_on_c, 5, 67, 88
8, 19830, Note_on_c, 5, 67, 0
8, 19830, Note_on_c, 5, 66, 88
8, 19860, Note_on_c, 5, 66, 0
8, 19860, Note_on_c, 5, 71, 88
8, 19890, Note_on_c, 5, 71, 0
8, 19890, Note_on_c, 5, 69, 88
8, 19920, Note_on_c, 5, 69, 0
8, 19920, Note_on_c, 5, 69, 88
8, 20040, Note_on_c, 5, 69, 0
8, 20040, Note_on_c, 5, 67, 88
8, 20070, Note_on_c, 5, 67, 0
8, 20070, Note_on_c, 5, 66, 88
8, 20100, Note_on_c, 5, 66, 0
8, 20100, Note_on_c, 5, 64, 88
8, 20130, Note_on_c, 5, 64, 0
8, 20130, Note_on_c, 5, 66, 88
8, 20160, Note_on_c, 5, 66, 0
8, 20160, Note_on_c, 5, 62, 88
8, 20340, Note_on_c, 5, 62, 0
8, 20340, Note_on_c, 5, 62, 88
8, 20460, Note_on_c, 5, 62, 0
8, 23340, Note_on_c, 5, 66, 88
8, 23460, Note_on_c, 5, 66, 0
8, 23460, Note_on_c, 5, 64, 88
8, 23520, Note_on_c, 5, 64, 0
8, 23520, Note_on_c, 5, 62, 88
8, 23580, Note_on_c, 5, 62, 0
8, 23580, Note_on_c, 5, 64, 88
8, 23640, Note_on_c, 5, 64, 0
8, 23640, Note_on_c, 5, 69, 88
8, 23700, Note_on_c, 5, 69, 0
8, 23700, Note_on_c, 5, 72, 88
8, 23820, Note_on_c, 5, 72, 0
8, 23820, Note_on_c, 5, 71, 88
8, 23880, Note_on_c, 5, 71, 0
8, 23880, Note_on_c, 5, 69, 88
8, 23940, Note_on_c, 5, 69, 0
8, 23940, Note_on_c, 5, 67, 88
8, 24000, Note_on_c, 5, 67, 0
8, 24000, Note_on_c, 5, 64, 88
8, 24030, Note_on_c, 5, 64, 0
8, 24060, Note_on_c, 5, 67, 88
8, 24180, Note_on_c, 5, 67, 0
8, 24180, Note_on_c, 5, 66, 88
8, 24240, Note_on_c, 5, 66, 0
8, 24240, Note_on_c, 5, 64, 88
8, 24300, Note_on_c, 5, 64, 0
8, 24300, Note_on_c, 5, 62, 88
8, 24360, Note_on_c, 5, 62, 0
8, 24360, Note_on_c, 5, 74, 88
8, 24420, Note_on_c, 5, 74, 0
8, 24420, Note_on_c, 5, 73, 88
8, 24480, Note_on_c, 5, 73, 0
8, 24480, Note_on_c, 5, 71, 88
8, 24540, Note_on_c, 5, 71, 0
8, 24540, Note_on_c, 5, 70, 88
8, 24600, Note_on_c, 5, 70, 0
8, 24600, Note_on_c, 5, 71, 88
8, 24660, Note_on_c, 5, 71, 0
8, 24660, Note_on_c, 5, 70, 88
8, 24705, Note_on_c, 5, 70, 0
8, 24750, Note_on_c, 5, 71, 88
8, 24780, Note_on_c, 5, 71, 0
8, 24780, Note_on_c, 5, 70, 88
8, 24810, Note_on_c, 5, 70, 0
8, 24810, Note_on_c, 5, 71, 88
8, 24840, Note_on_c, 5, 71, 0
8, 24840, Note_on_c, 5, 66, 88
8, 25110, Note_on_c, 5, 66, 0
8, 25110, Note_on_c, 5, 73, 88
8, 25140, Note_on_c, 5, 73, 0
8, 25140, Note_on_c, 5, 71, 88
8, 25170, Note_on_c, 5, 71, 0
8, 25170, Note_on_c, 5, 73, 88
8, 25200, Note_on_c, 5, 73, 0
8, 25200, Note_on_c, 5, 66, 88
8, 25470, Note_on_c, 5, 66, 0
8, 25470, Note_on_c, 5, 70, 88
8, 25500, Note_on_c, 5, 70, 0
8, 25500, Note_on_c, 5, 73, 88
8, 25530, Note_on_c, 5, 73, 0
8, 25530, Note_on_c, 5, 76, 88
8, 25560, Note_on_c, 5, 76, 0
8, 25560, Note_on_c, 5, 74, 88
8, 25620, Note_on_c, 5, 74, 0
8, 25620, Note_on_c, 5, 73, 88
8, 25650, Note_on_c, 5, 73, 0
8, 25680, Note_on_c, 5, 71, 88
8, 25800, Note_on_c, 5, 71, 0
8, 25800, Note_on_c, 5, 69, 88
8, 25860, Note_on_c, 5, 69, 0
8, 25860, Note_on_c, 5, 67, 88
8, 25890, Note_on_c, 5, 67, 0
8, 25920, Note_on_c, 5, 66, 88
8, 25950, Note_on_c, 5, 66, 0
8, 25980, Note_on_c, 5, 64, 88
8, 26010, Note_on_c, 5, 64, 0
8, 26220, Note_on_c, 5, 73, 88
8, 26340, Note_on_c, 5, 73, 0
8, 26340, Note_on_c, 5, 71, 88
8, 26370, Note_on_c, 5, 71, 0
8, 26370, Note_on_c, 5, 69, 88
8, 26400, Note_on_c, 5, 69, 0
8, 26400, Note_on_c, 5, 67, 88
8, 26430, Note_on_c, 5, 67, 0
8, 26430, Note_on_c, 5, 66, 88
8, 26460, Note_on_c, 5, 66, 0
8, 26460, Note_on_c, 5, 64, 88
8, 26490, Note_on_c, 5, 64, 0
8, 26490, Note_on_c, 5, 67, 88
8, 26520, Note_on_c, 5, 67, 0
8, 26520, Note_on_c, 5, 66, 88
8, 26550, Note_on_c, 5, 66, 0
8, 26550, Note_on_c, 5, 64, 88
8, 26580, Note_on_c, 5, 64, 0
8, 26580, Note_on_c, 5, 62, 88
8, 26610, Note_on_c, 5, 62, 0
8, 26610, Note_on_c, 5, 61, 88
8, 26640, Note_on_c, 5, 61, 0
8, 26640, Note_on_c, 5, 62, 88
8, 26655, Note_on_c, 5, 62, 0
8, 26655, Note_on_c, 5, 64, 88
8, 26670, Note_on_c, 5, 64, 0
8, 26670, Note_on_c, 5, 62, 88
8, 26685, Note_on_c, 5, 62, 0
8, 26685, Note_on_c, 5, 64, 88
8, 26700, Note_on_c, 5, 64, 0
8, 26700, Note_on_c, 5, 62, 88
8, 26709, Note_on_c, 5, 62, 0
8, 26709, Note_on_c, 5, 64, 88
8, 26720, Note_on_c, 5, 64, 0
8, 26720, Note_on_c, 5, 62, 88
8, 26730, Note_on_c, 5, 62, 0
8, 26730, Note_on_c, 5, 61, 88
8, 26760, Note_on_c, 5, 61, 0
8, 26760, Note_on_c, 5, 62, 88
8, 26820, Note_on_c, 5, 62, 0
8, 26820, Note_on_c, 5, 61, 88
8, 26880, Note_on_c, 5, 61, 0
8, 26940, Note_on_c, 5, 73, 88
8, 27000, Note_on_c, 5, 73, 0
8, 27000, Note_on_c, 5, 74, 88
8, 27030, Note_on_c, 5, 74, 0
8, 27030, Note_on_c, 5, 73, 88
8, 27060, Note_on_c, 5, 73, 0
8, 27060, Note_on_c, 5, 76, 88
8, 27090, Note_on_c, 5, 76, 0
8, 27090, Note_on_c, 5, 74, 88
8, 27120, Note_on_c, 5, 74, 0
8, 27120, Note_on_c, 5, 73, 88
8, 27150, Note_on_c, 5, 73, 0
8, 27150, Note_on_c, 5, 71, 88
8, 27180, Note_on_c, 5, 71, 0
8, 27180, Note_on_c, 5, 73, 88
8, 27210, Note_on_c, 5, 73, 0
8, 27210, Note_on_c, 5, 71, 88
8, 27240, Note_on_c, 5, 71, 0
8, 27240, Note_on_c, 5, 74, 88
8, 27270, Note_on_c, 5, 74, 0
8, 27270, Note_on_c, 5, 73, 88
8, 27300, Note_on_c, 5, 73, 0
8, 27300, Note_on_c, 5, 71, 88
8, 27330, Note_on_c, 5, 71, 0
8, 27330, Note_on_c, 5, 70, 88
8, 27360, Note_on_c, 5, 70, 0
8, 27360, Note_on_c, 5, 71, 88
8, 27750, Note_on_c, 5, 71, 0
8, 27750, Note_on_c, 5, 69, 88
8, 27780, Note_on_c, 5, 69, 0
8, 27780, Note_on_c, 5, 72, 88
8, 27810, Note_on_c, 5, 72, 0
8, 27810, Note_on_c, 5, 71, 88
8, 27840, Note_on_c, 5, 71, 0
8, 27840, Note_on_c, 5, 69, 88
8, 27870, Note_on_c, 5, 69, 0
8, 27870, Note_on_c, 5, 67, 88
8, 27900, Note_on_c, 5, 67, 0
8, 27900, Note_on_c, 5, 69, 88
8, 27930, Note_on_c, 5, 69, 0
8, 27930, Note_on_c, 5, 67, 88
8, 27960, Note_on_c, 5, 67, 0
8, 27960, Note_on_c, 5, 71, 88
8, 27990, Note_on_c, 5, 71, 0
8, 27990, Note_on_c, 5, 69, 88
8, 28020, Note_on_c, 5, 69, 0
8, 28020, Note_on_c, 5, 67, 88
8, 28050, Note_on_c, 5, 67, 0
8, 28050, Note_on_c, 5, 66, 88
8, 28080, Note_on_c, 5, 66, 0
8, 28080, Note_on_c, 5, 67, 88
8, 28110, Note_on_c, 5, 67, 0
8, 28110, Note_on_c, 5, 66, 88
8, 28140, Note_on_c, 5, 66, 0
8, 28140, Note_on_c, 5, 69, 88
8, 28170, Note_on_c, 5, 69, 0
8, 28170, Note_on_c, 5, 67, 88
8, 28200, Note_on_c, 5, 67, 0
8, 28200, Note_on_c, 5, 66, 88
8, 28230, Note_on_c, 5, 66, 0
8, 28230, Note_on_c, 5, 64, 88
8, 28260, Note_on_c, 5, 64, 0
8, 28260, Note_on_c, 5, 66, 88
8, 28290, Note_on_c, 5, 66, 0
8, 28290, Note_on_c, 5, 64, 88
8, 28320, Note_on_c, 5, 64, 0
8, 28320, Note_on_c, 5, 67, 88
8, 28350, Note_on_c, 5, 67, 0
8, 28350, Note_on_c, 5, 66, 88
8, 28380, Note_on_c, 5, 66, 0
8, 28380, Note_on_c, 5, 64, 88
8, 28410, Note_on_c, 5, 64, 0
8, 28410, Note_on_c, 5, 62, 88
8, 28440, Note_on_c, 5, 62, 0
8, 28440, Note_on_c, 5, 64, 88
8, 28500, Note_on_c, 5, 64, 0
8, 28500, Note_on_c, 5, 62, 88
8, 28530, Note_on_c, 5, 62, 0
8, 28530, Note_on_c, 5, 61, 88
8, 28560, Note_on_c, 5, 61, 0
8, 28560, Note_on_c, 5, 71, 88
8, 28620, Note_on_c, 5, 71, 0
8, 28620, Note_on_c, 5, 70, 88
8, 28740, Note_on_c, 5, 70, 0
8, 28740, Note_on_c, 5, 71, 88
8, 28800, Note_on_c, 5, 71, 0
8, 28800, Note_on_c, 5, 73, 88
8, 28860, Note_on_c, 5, 73, 0
8, 28860, Note_on_c, 5, 71, 88
8, 28890, Note_on_c, 5, 71, 0
8, 28890, Note_on_c, 5, 70, 88
8, 28920, Note_on_c, 5, 70, 0
8, 28920, Note_on_c, 5, 68, 88
8, 28950, Note_on_c, 5, 68, 0
8, 28950, Note_on_c, 5, 66, 88
8, 28980, Note_on_c, 5, 66, 0
8, 28980, Note_on_c, 5, 66, 88
8, 29100, Note_on_c, 5, 66, 0
8, 29100, Note_on_c, 5, 73, 88
8, 29130, Note_on_c, 5, 73, 0
8, 29130, Note_on_c, 5, 74, 88
8, 29145, Note_on_c, 5, 74, 0
8, 29145, Note_on_c, 5, 76, 88
8, 29160, Note_on_c, 5, 76, 0
8, 29160, Note_on_c, 5, 74, 88
8, 29220, Note_on_c, 5, 74, 0
8, 29220, Note_on_c, 5, 70, 88
8, 29280, Note_on_c, 5, 70, 0
8, 29280, Note_on_c, 5, 71, 88
8, 29340, Note_on_c, 5, 71, 0
8, 29340, Note_on_c, 5, 67, 88
8, 29400, Note_on_c, 5, 67, 0
8, 29400, Note_on_c, 5, 64, 88
8, 29460, Note_on_c, 5, 64, 0
8, 29460, Note_on_c, 5, 66, 88
8, 29580, Note_on_c, 5, 66, 0
8, 29580, Note_on_c, 5, 74, 88
8, 29610, Note_on_c, 5, 74, 0
8, 29610, Note_on_c, 5, 73, 88
8, 29640, Note_on_c, 5, 73, 0
8, 29640, Note_on_c, 5, 71, 88
8, 29670, Note_on_c, 5, 71, 0
8, 29670, Note_on_c, 5, 70, 88
8, 29700, Note_on_c, 5, 70, 0
8, 29700, Note_on_c, 5, 71, 88
8, 29820, Note_on_c, 5, 71, 0
8, 31680, End_track
9, 0, Start_track
9, 0, MIDI_port, 0
9, 0, Title_t, "Harpsichord"
9, 0, Program_c, 6, 6
9, 12, Control_c, 6, 11, 92
9, 480, Note_on_c, 6, 62, 51
9, 480, Note_on_c, 6, 66, 51
9, 480, Note_on_c, 6, 71, 51
9, 480, Note_on_c, 6, 62, 51
9, 510, Note_on_c, 6, 62, 0
9, 510, Note_on_c, 6, 62, 0
9, 510, Note_on_c, 6, 66, 0
9, 510, Note_on_c, 6, 71, 0
9, 540, Note_on_c, 6, 61, 51
9, 540, Note_on_c, 6, 64, 51
9, 540, Note_on_c, 6, 70, 51
9, 540, Note_on_c, 6, 61, 51
9, 570, Note_on_c, 6, 61, 0
9, 570, Note_on_c, 6, 61, 0
9, 570, Note_on_c, 6, 64, 0
9, 570, Note_on_c, 6, 70, 0
9, 600, Note_on_c, 6, 62, 51
9, 600, Note_on_c, 6, 66, 51
9, 600, Note_on_c, 6, 71, 51
9, 600, Note_on_c, 6, 59, 51
9, 630, Note_on_c, 6, 59, 0
9, 630, Note_on_c, 6, 62, 0
9, 630, Note_on_c, 6, 66, 0
9, 630, Note_on_c, 6, 71, 0
9, 840, Note_on_c, 6, 61, 51
9, 840, Note_on_c, 6, 66, 51
9, 840, Note_on_c, 6, 58, 51
9, 870, Note_on_c, 6, 58, 0
9, 870, Note_on_c, 6, 66, 0
9, 870, Note_on_c, 6, 61, 0
9, 900, Note_on_c, 6, 58, 51
9, 900, Note_on_c, 6, 64, 51
9, 900, Note_on_c, 6, 54, 51
9, 930, Note_on_c, 6, 54, 0
9, 930, Note_on_c, 6, 64, 0
9, 930, Note_on_c, 6, 58, 0
9, 960, Note_on_c, 6, 59, 51
9, 960, Note_on_c, 6, 62, 51
9, 960, Note_on_c, 6, 56, 51
9, 990, Note_on_c, 6, 56, 0
9, 990, Note_on_c, 6, 62, 0
9, 990, Note_on_c, 6, 59, 0
9, 1020, Note_on_c, 6, 61, 51
9, 1020, Note_on_c, 6, 58, 51
9, 1050, Note_on_c, 6, 58, 0
9, 1050, Note_on_c, 6, 61, 0
9, 1080, Note_on_c, 6, 62, 51
9, 1080, Note_on_c, 6, 59, 51
9, 1110, Note_on_c, 6, 62, 0
9, 1140, Note_on_c, 6, 59, 0
9, 1140, Note_on_c, 6, 64, 51
9, 1140, Note_on_c, 6, 67, 51
9, 1140, Note_on_c, 6, 73, 51
9, 1140, Note_on_c, 6, 52, 51
9, 1170, Note_on_c, 6, 52, 0
9, 1170, Note_on_c, 6, 64, 0
9, 1170, Note_on_c, 6, 67, 0
9, 1170, Note_on_c, 6, 73, 0
9, 1200, Note_on_c, 6, 66, 51
9, 1200, Note_on_c, 6, 71, 51
9, 1200, Note_on_c, 6, 50, 51
9, 1260, Note_on_c, 6, 50, 0
9, 1260, Note_on_c, 6, 66, 0
9, 1260, Note_on_c, 6, 64, 51
9, 1260, Note_on_c, 6, 67, 51
9, 1260, Note_on_c, 6, 49, 51
9, 1290, Note_on_c, 6, 67, 0
9, 1290, Note_on_c, 6, 71, 0
9, 1290, Note_on_c, 6, 64, 0
9, 1320, Note_on_c, 6, 64, 51
9, 1320, Note_on_c, 6, 69, 51
9, 1350, Note_on_c, 6, 69, 0
9, 1350, Note_on_c, 6, 64, 0
9, 1380, Note_on_c, 6, 49, 0
9, 1380, Note_on_c, 6, 61, 51
9, 1380, Note_on_c, 6, 64, 51
9, 1380, Note_on_c, 6, 67, 51
9, 1380, Note_on_c, 6, 45, 51
9, 1410, Note_on_c, 6, 45, 0
9, 1410, Note_on_c, 6, 61, 0
9, 1410, Note_on_c, 6, 64, 0
9, 1410, Note_on_c, 6, 67, 0
9, 1440, Note_on_c, 6, 62, 75
9, 1440, Note_on_c, 6, 66, 75
9, 1440, Note_on_c, 6, 50, 75
9, 1470, Note_on_c, 6, 50, 0
9, 1470, Note_on_c, 6, 66, 0
9, 1470, Note_on_c, 6, 62, 0
9, 1500, Note_on_c, 6, 61, 75
9, 1500, Note_on_c, 6, 64, 75
9, 1500, Note_on_c, 6, 45, 75
9, 1530, Note_on_c, 6, 45, 0
9, 1530, Note_on_c, 6, 64, 0
9, 1530, Note_on_c, 6, 61, 0
9, 1920, Note_on_c, 6, 66, 88
9, 1920, Note_on_c, 6, 69, 88
9, 1920, Note_on_c, 6, 74, 88
9, 1920, Note_on_c, 6, 50, 88
9, 1950, Note_on_c, 6, 50, 0
9, 1950, Note_on_c, 6, 66, 0
9, 1950, Note_on_c, 6, 69, 0
9, 1950, Note_on_c, 6, 74, 0
9, 1980, Note_on_c, 6, 67, 88
9, 1980, Note_on_c, 6, 71, 88
9, 1980, Note_on_c, 6, 55, 88
9, 2010, Note_on_c, 6, 55, 0
9, 2010, Note_on_c, 6, 71, 0
9, 2010, Note_on_c, 6, 67, 0
9, 2040, Note_on_c, 6, 67, 88
9, 2040, Note_on_c, 6, 43, 88
9, 2070, Note_on_c, 6, 43, 0
9, 2070, Note_on_c, 6, 67, 0
9, 2280, Note_on_c, 6, 67, 88
9, 2280, Note_on_c, 6, 71, 88
9, 2280, Note_on_c, 6, 76, 88
9, 2280, Note_on_c, 6, 52, 88
9, 2310, Note_on_c, 6, 52, 0
9, 2310, Note_on_c, 6, 67, 0
9, 2310, Note_on_c, 6, 71, 0
9, 2310, Note_on_c, 6, 76, 0
9, 2340, Note_on_c, 6, 69, 88
9, 2340, Note_on_c, 6, 73, 88
9, 2340, Note_on_c, 6, 57, 88
9, 2370, Note_on_c, 6, 57, 0
9, 2370, Note_on_c, 6, 73, 0
9, 2370, Note_on_c, 6, 69, 0
9, 2400, Note_on_c, 6, 69, 88
9, 2400, Note_on_c, 6, 45, 88
9, 2430, Note_on_c, 6, 45, 0
9, 2430, Note_on_c, 6, 69, 0
9, 2580, Note_on_c, 6, 71, 88
9, 2580, Note_on_c, 6, 59, 88
9, 2610, Note_on_c, 6, 71, 0
9, 2640, Note_on_c, 6, 59, 0
9, 2640, Note_on_c, 6, 69, 88
9, 2640, Note_on_c, 6, 71, 88
9, 2640, Note_on_c, 6, 75, 88
9, 2640, Note_on_c, 6, 57, 88
9, 2670, Note_on_c, 6, 57, 0
9, 2700, Note_on_c, 6, 55, 88
9, 2730, Note_on_c, 6, 69, 0
9, 2730, Note_on_c, 6, 75, 0
9, 2730, Note_on_c, 6, 71, 0
9, 2760, Note_on_c, 6, 67, 88
9, 2760, Note_on_c, 6, 71, 88
9, 2760, Note_on_c, 6, 76, 88
9, 2790, Note_on_c, 6, 76, 0
9, 2790, Note_on_c, 6, 71, 0
9, 2790, Note_on_c, 6, 67, 0
9, 2820, Note_on_c, 6, 55, 0
9, 2820, Note_on_c, 6, 69, 88
9, 2820, Note_on_c, 6, 75, 88
9, 2820, Note_on_c, 6, 78, 88
9, 2820, Note_on_c, 6, 54, 88
9, 2850, Note_on_c, 6, 78, 0
9, 2850, Note_on_c, 6, 69, 0
9, 2850, Note_on_c, 6, 75, 0
9, 2880, Note_on_c, 6, 54, 0
9, 2880, Note_on_c, 6, 71, 88
9, 2880, Note_on_c, 6, 76, 88
9, 2880, Note_on_c, 6, 79, 88
9, 2880, Note_on_c, 6, 52, 88
9, 2910, Note_on_c, 6, 52, 0
9, 2910, Note_on_c, 6, 71, 0
9, 2910, Note_on_c, 6, 76, 0
9, 2910, Note_on_c, 6, 79, 0
9, 2940, Note_on_c, 6, 69, 88
9, 2940, Note_on_c, 6, 73, 88
9, 2940, Note_on_c, 6, 76, 88
9, 2940, Note_on_c, 6, 57, 88
9, 2970, Note_on_c, 6, 76, 0
9, 2970, Note_on_c, 6, 69, 0
9, 2970, Note_on_c, 6, 73, 0
9, 3000, Note_on_c, 6, 57, 0
9, 3000, Note_on_c, 6, 69, 88
9, 3000, Note_on_c, 6, 73, 88
9, 3000, Note_on_c, 6, 55, 88
9, 3120, Note_on_c, 6, 55, 0
9, 3120, Note_on_c, 6, 73, 0
9, 3120, Note_on_c, 6, 69, 0
9, 3120, Note_on_c, 6, 69, 88
9, 3120, Note_on_c, 6, 74, 88
9, 3120, Note_on_c, 6, 54, 88
9, 3150, Note_on_c, 6, 54, 0
9, 3150, Note_on_c, 6, 74, 0
9, 3150, Note_on_c, 6, 69, 0
9, 3180, Note_on_c, 6, 73, 88
9, 3180, Note_on_c, 6, 76, 88
9, 3180, Note_on_c, 6, 57, 88
9, 3210, Note_on_c, 6, 76, 0
9, 3210, Note_on_c, 6, 73, 0
9, 3240, Note_on_c, 6, 57, 0
9, 3240, Note_on_c, 6, 74, 88
9, 3240, Note_on_c, 6, 78, 88
9, 3240, Note_on_c, 6, 50, 88
9, 3300, Note_on_c, 6, 50, 0
9, 3300, Note_on_c, 6, 52, 88
9, 3360, Note_on_c, 6, 52, 0
9, 3360, Note_on_c, 6, 78, 0
9, 3360, Note_on_c, 6, 74, 0
9, 3360, Note_on_c, 6, 70, 88
9, 3360, Note_on_c, 6, 74, 88
9, 3360, Note_on_c, 6, 54, 88
9, 3390, Note_on_c, 6, 74, 0
9, 3390, Note_on_c, 6, 70, 0
9, 3420, Note_on_c, 6, 54, 0
9, 3420, Note_on_c, 6, 71, 88
9, 3420, Note_on_c, 6, 74, 88
9, 3420, Note_on_c, 6, 55, 88
9, 3540, Note_on_c, 6, 74, 0
9, 3540, Note_on_c, 6, 71, 0
9, 3540, Note_on_c, 6, 74, 88
9, 3540, Note_on_c, 6, 78, 88
9, 3570, Note_on_c, 6, 78, 0
9, 3570, Note_on_c, 6, 74, 0
9, 3600, Note_on_c, 6, 71, 88
9, 3600, Note_on_c, 6, 76, 88
9, 3660, Note_on_c, 6, 55, 0
9, 3660, Note_on_c, 6, 55, 88
9, 3720, Note_on_c, 6, 55, 0
9, 3720, Note_on_c, 6, 76, 0
9, 3720, Note_on_c, 6, 71, 0
9, 3720, Note_on_c, 6, 67, 88
9, 3720, Note_on_c, 6, 71, 88
9, 3720, Note_on_c, 6, 52, 88
9, 3750, Note_on_c, 6, 52, 0
9, 3750, Note_on_c, 6, 71, 0
9, 3750, Note_on_c, 6, 67, 0
9, 3780, Note_on_c, 6, 66, 88
9, 3780, Note_on_c, 6, 70, 88
9, 3780, Note_on_c, 6, 49, 88
9, 3810, Note_on_c, 6, 70, 0
9, 3810, Note_on_c, 6, 66, 0
9, 3840, Note_on_c, 6, 49, 0
9, 3840, Note_on_c, 6, 64, 88
9, 3840, Note_on_c, 6, 67, 88
9, 3840, Note_on_c, 6, 46, 88
9, 3870, Note_on_c, 6, 46, 0
9, 3900, Note_on_c, 6, 47, 88
9, 3960, Note_on_c, 6, 47, 0
9, 3960, Note_on_c, 6, 67, 0
9, 3960, Note_on_c, 6, 64, 0
9, 3960, Note_on_c, 6, 66, 88
9, 3960, Note_on_c, 6, 76, 88
9, 3960, Note_on_c, 6, 46, 88
9, 3990, Note_on_c, 6, 46, 0
9, 3990, Note_on_c, 6, 76, 0
9, 3990, Note_on_c, 6, 66, 0
9, 4020, Note_on_c, 6, 64, 88
9, 4020, Note_on_c, 6, 70, 88
9, 4020, Note_on_c, 6, 49, 88
9, 4050, Note_on_c, 6, 49, 0
9, 4050, Note_on_c, 6, 70, 0
9, 4050, Note_on_c, 6, 64, 0
9, 4140, Note_on_c, 6, 64, 88
9, 4140, Note_on_c, 6, 70, 88
9, 4140, Note_on_c, 6, 42, 88
9, 4170, Note_on_c, 6, 42, 0
9, 4170, Note_on_c, 6, 70, 0
9, 4170, Note_on_c, 6, 64, 0
9, 4200, Note_on_c, 6, 61, 88
9, 4200, Note_on_c, 6, 66, 88
9, 4200, Note_on_c, 6, 46, 88
9, 4230, Note_on_c, 6, 46, 0
9, 4230, Note_on_c, 6, 66, 0
9, 4230, Note_on_c, 6, 61, 0
9, 4320, Note_on_c, 6, 47, 94
9, 4350, Note_on_c, 6, 47, 0
9, 4380, Note_on_c, 6, 71, 93
9, 4380, Note_on_c, 6, 76, 93
9, 4380, Note_on_c, 6, 55, 93
9, 4410, Note_on_c, 6, 76, 0
9, 4410, Note_on_c, 6, 71, 0
9, 4440, Note_on_c, 6, 55, 0
9, 4440, Note_on_c, 6, 66, 92
9, 4440, Note_on_c, 6, 74, 92
9, 4440, Note_on_c, 6, 50, 92
9, 4470, Note_on_c, 6, 74, 0
9, 4470, Note_on_c, 6, 66, 0
9, 4500, Note_on_c, 6, 50, 0
9, 4500, Note_on_c, 6, 67, 91
9, 4500, Note_on_c, 6, 73, 91
9, 4500, Note_on_c, 6, 52, 91
9, 4530, Note_on_c, 6, 73, 0
9, 4530, Note_on_c, 6, 67, 0
9, 4560, Note_on_c, 6, 52, 0
9, 4560, Note_on_c, 6, 66, 90
9, 4560, Note_on_c, 6, 74, 90
9, 4560, Note_on_c, 6, 54, 90
9, 4590, Note_on_c, 6, 74, 0
9, 4590, Note_on_c, 6, 66, 0
9, 4620, Note_on_c, 6, 54, 0
9, 4620, Note_on_c, 6, 66, 89
9, 4620, Note_on_c, 6, 73, 89
9, 4620, Note_on_c, 6, 42, 89
9, 4650, Note_on_c, 6, 73, 0
9, 4650, Note_on_c, 6, 66, 0
9, 4680, Note_on_c, 6, 42, 0
9, 4680, Note_on_c, 6, 66, 75
9, 4680, Note_on_c, 6, 74, 75
9, 4680, Note_on_c, 6, 47, 75
9, 4710, Note_on_c, 6, 74, 0
9, 4710, Note_on_c, 6, 66, 0
9, 4740, Note_on_c, 6, 47, 0
9, 4740, Note_on_c, 6, 62, 75
9, 4740, Note_on_c, 6, 71, 75
9, 4740, Note_on_c, 6, 59, 75
9, 4770, Note_on_c, 6, 59, 0
9, 4770, Note_on_c, 6, 71, 0
9, 4770, Note_on_c, 6, 62, 0
9, 4800, Note_on_c, 6, 67, 75
9, 4800, Note_on_c, 6, 71, 75
9, 4800, Note_on_c, 6, 57, 75
9, 4830, Note_on_c, 6, 71, 0
9, 4830, Note_on_c, 6, 67, 0
9, 4860, Note_on_c, 6, 57, 0
9, 4860, Note_on_c, 6, 67, 75
9, 4860, Note_on_c, 6, 71, 75
9, 4860, Note_on_c, 6, 55, 75
9, 4890, Note_on_c, 6, 55, 0
9, 4890, Note_on_c, 6, 71, 0
9, 4890, Note_on_c, 6, 67, 0
9, 4920, Note_on_c, 6, 64, 75
9, 4920, Note_on_c, 6, 73, 75
9, 4920, Note_on_c, 6, 52, 75
9, 4950, Note_on_c, 6, 52, 0
9, 4950, Note_on_c, 6, 73, 0
9, 4950, Note_on_c, 6, 64, 0
9, 5040, Note_on_c, 6, 62, 75
9, 5040, Note_on_c, 6, 71, 75
9, 5040, Note_on_c, 6, 54, 75
9, 5070, Note_on_c, 6, 54, 0
9, 5070, Note_on_c, 6, 71, 0
9, 5070, Note_on_c, 6, 62, 0
9, 5100, Note_on_c, 6, 59, 75
9, 5100, Note_on_c, 6, 66, 75
9, 5100, Note_on_c, 6, 50, 75
9, 5130, Note_on_c, 6, 50, 0
9, 5130, Note_on_c, 6, 66, 0
9, 5130, Note_on_c, 6, 59, 0
9, 5220, Note_on_c, 6, 64, 75
9, 5220, Note_on_c, 6, 67, 75
9, 5220, Note_on_c, 6, 52, 75
9, 5250, Note_on_c, 6, 52, 0
9, 5250, Note_on_c, 6, 67, 0
9, 5250, Note_on_c, 6, 64, 0
9, 5280, Note_on_c, 6, 59, 75
9, 5280, Note_on_c, 6, 64, 75
9, 5280, Note_on_c, 6, 49, 75
9, 5310, Note_on_c, 6, 49, 0
9, 5310, Note_on_c, 6, 64, 0
9, 5310, Note_on_c, 6, 59, 0
9, 5400, Note_on_c, 6, 59, 75
9, 5400, Note_on_c, 6, 66, 75
9, 5400, Note_on_c, 6, 50, 75
9, 5430, Note_on_c, 6, 50, 0
9, 5430, Note_on_c, 6, 66, 0
9, 5430, Note_on_c, 6, 59, 0
9, 5460, Note_on_c, 6, 54, 75
9, 5460, Note_on_c, 6, 62, 75
9, 5460, Note_on_c, 6, 47, 75
9, 5490, Note_on_c, 6, 47, 0
9, 5490, Note_on_c, 6, 62, 0
9, 5490, Note_on_c, 6, 54, 0
9, 5580, Note_on_c, 6, 71, 75
9, 5580, Note_on_c, 6, 49, 75
9, 5610, Note_on_c, 6, 71, 0
9, 5640, Note_on_c, 6, 49, 0
9, 5640, Note_on_c, 6, 70, 75
9, 5640, Note_on_c, 6, 61, 75
9, 5670, Note_on_c, 6, 61, 0
9, 5670, Note_on_c, 6, 70, 0
9, 5700, Note_on_c, 6, 66, 75
9, 5700, Note_on_c, 6, 71, 75
9, 5700, Note_on_c, 6, 59, 75
9, 5730, Note_on_c, 6, 71, 0
9, 5730, Note_on_c, 6, 66, 0
9, 5760, Note_on_c, 6, 59, 0
9, 5760, Note_on_c, 6, 64, 75
9, 5760, Note_on_c, 6, 73, 75
9, 5760, Note_on_c, 6, 58, 75
9, 5790, Note_on_c, 6, 58, 0
9, 5790, Note_on_c, 6, 73, 0
9, 5790, Note_on_c, 6, 64, 0
9, 5820, Note_on_c, 6, 61, 75
9, 5820, Note_on_c, 6, 70, 75
9, 5820, Note_on_c, 6, 54, 75
9, 5850, Note_on_c, 6, 54, 0
9, 5850, Note_on_c, 6, 70, 0
9, 5850, Note_on_c, 6, 61, 0
9, 6060, Note_on_c, 6, 61, 88
9, 6060, Note_on_c, 6, 70, 88
9, 6060, Note_on_c, 6, 52, 88
9, 6090, Note_on_c, 6, 70, 0
9, 6090, Note_on_c, 6, 61, 0
9, 6120, Note_on_c, 6, 52, 0
9, 6120, Note_on_c, 6, 66, 88
9, 6120, Note_on_c, 6, 71, 88
9, 6120, Note_on_c, 6, 50, 88
9, 6150, Note_on_c, 6, 71, 0
9, 6150, Note_on_c, 6, 66, 0
9, 6180, Note_on_c, 6, 50, 0
9, 6180, Note_on_c, 6, 64, 88
9, 6180, Note_on_c, 6, 70, 88
9, 6180, Note_on_c, 6, 49, 88
9, 6210, Note_on_c, 6, 49, 0
9, 6210, Note_on_c, 6, 70, 0
9, 6210, Note_on_c, 6, 64, 0
9, 6240, Note_on_c, 6, 62, 88
9, 6240, Note_on_c, 6, 71, 88
9, 6240, Note_on_c, 6, 47, 88
9, 6270, Note_on_c, 6, 47, 0
9, 6270, Note_on_c, 6, 71, 0
9, 6270, Note_on_c, 6, 62, 0
9, 6300, Note_on_c, 6, 61, 88
9, 6300, Note_on_c, 6, 71, 88
9, 6300, Note_on_c, 6, 52, 88
9, 6330, Note_on_c, 6, 71, 0
9, 6330, Note_on_c, 6, 61, 0
9, 6360, Note_on_c, 6, 52, 0
9, 6360, Note_on_c, 6, 62, 88
9, 6360, Note_on_c, 6, 71, 88
9, 6360, Note_on_c, 6, 54, 88
9, 6390, Note_on_c, 6, 54, 0
9, 6390, Note_on_c, 6, 71, 0
9, 6390, Note_on_c, 6, 62, 0
9, 6420, Note_on_c, 6, 61, 88
9, 6420, Note_on_c, 6, 70, 88
9, 6420, Note_on_c, 6, 42, 88
9, 6450, Note_on_c, 6, 42, 0
9, 6450, Note_on_c, 6, 70, 0
9, 6450, Note_on_c, 6, 61, 0
9, 6480, Note_on_c, 6, 59, 88
9, 6480, Note_on_c, 6, 62, 88
9, 6480, Note_on_c, 6, 66, 88
9, 6480, Note_on_c, 6, 71, 88
9, 6480, Note_on_c, 6, 47, 88
9, 6510, Note_on_c, 6, 47, 0
9, 6540, Note_on_c, 6, 50, 88
9, 6570, Note_on_c, 6, 50, 0
9, 6600, Note_on_c, 6, 54, 88
9, 6630, Note_on_c, 6, 54, 0
9, 6660, Note_on_c, 6, 66, 0
9, 6660, Note_on_c, 6, 59, 0
9, 6660, Note_on_c, 6, 62, 0
9, 6660, Note_on_c, 6, 71, 0
9, 6660, Note_on_c, 6, 59, 88
9, 6660, Note_on_c, 6, 62, 88
9, 6660, Note_on_c, 6, 66, 88
9, 6660, Note_on_c, 6, 71, 88
9, 6660, Note_on_c, 6, 59, 88
9, 6780, Note_on_c, 6, 59, 0
9, 6780, Note_on_c, 6, 66, 0
9, 6780, Note_on_c, 6, 59, 0
9, 6780, Note_on_c, 6, 62, 0
9, 6780, Note_on_c, 6, 71, 0
9, 6960, Note_on_c, 6, 66, 49
9, 6960, Note_on_c, 6, 62, 49
9, 6990, Note_on_c, 6, 62, 0
9, 6990, Note_on_c, 6, 66, 0
9, 7020, Note_on_c, 6, 64, 49
9, 7020, Note_on_c, 6, 61, 49
9, 7050, Note_on_c, 6, 61, 0
9, 7050, Note_on_c, 6, 64, 0
9, 7080, Note_on_c, 6, 62, 49
9, 7080, Note_on_c, 6, 59, 49
9, 7110, Note_on_c, 6, 59, 0
9, 7110, Note_on_c, 6, 62, 0
9, 7320, Note_on_c, 6, 62, 49
9, 7320, Note_on_c, 6, 59, 49
9, 7350, Note_on_c, 6, 59, 0
9, 7350, Note_on_c, 6, 62, 0
9, 7380, Note_on_c, 6, 61, 49
9, 7380, Note_on_c, 6, 58, 49
9, 7410, Note_on_c, 6, 58, 0
9, 7410, Note_on_c, 6, 61, 0
9, 7440, Note_on_c, 6, 66, 49
9, 7440, Note_on_c, 6, 54, 49
9, 7470, Note_on_c, 6, 54, 0
9, 7470, Note_on_c, 6, 66, 0
9, 7500, Note_on_c, 6, 64, 49
9, 7500, Note_on_c, 6, 58, 49
9, 7530, Note_on_c, 6, 58, 0
9, 7530, Note_on_c, 6, 64, 0
9, 7560, Note_on_c, 6, 62, 49
9, 7560, Note_on_c, 6, 59, 49
9, 7590, Note_on_c, 6, 62, 0
9, 7620, Note_on_c, 6, 59, 0
9, 7620, Note_on_c, 6, 61, 49
9, 7620, Note_on_c, 6, 52, 49
9, 7650, Note_on_c, 6, 52, 0
9, 7650, Note_on_c, 6, 61, 0
9, 7680, Note_on_c, 6, 59, 49
9, 7680, Note_on_c, 6, 50, 49
9, 7740, Note_on_c, 6, 50, 0
9, 7740, Note_on_c, 6, 49, 49
9, 7800, Note_on_c, 6, 59, 0
9, 7800, Note_on_c, 6, 57, 49
9, 7830, Note_on_c, 6, 57, 0
9, 7860, Note_on_c, 6, 49, 0
9, 7860, Note_on_c, 6, 55, 49
9, 7860, Note_on_c, 6, 45, 49
9, 7890, Note_on_c, 6, 45, 0
9, 7890, Note_on_c, 6, 55, 0
9, 7920, Note_on_c, 6, 54, 49
9, 7920, Note_on_c, 6, 50, 49
9, 7950, Note_on_c, 6, 50, 0
9, 7950, Note_on_c, 6, 54, 0
9, 7980, Note_on_c, 6, 52, 49
9, 7980, Note_on_c, 6, 45, 49
9, 8010, Note_on_c, 6, 45, 0
9, 8010, Note_on_c, 6, 52, 0
9, 8400, Note_on_c, 6, 54, 49
9, 8400, Note_on_c, 6, 57, 49
9, 8400, Note_on_c, 6, 50, 49
9, 8430, Note_on_c, 6, 50, 0
9, 8430, Note_on_c, 6, 57, 0
9, 8430, Note_on_c, 6, 54, 0
9, 8460, Note_on_c, 6, 54, 49
9, 8460, Note_on_c, 6, 62, 49
9, 8460, Note_on_c, 6, 38, 49
9, 8490, Note_on_c, 6, 38, 0
9, 8490, Note_on_c, 6, 62, 0
9, 8490, Note_on_c, 6, 54, 0
9, 8520, Note_on_c, 6, 54, 49
9, 8520, Note_on_c, 6, 60, 49
9, 8520, Note_on_c, 6, 42, 49
9, 8550, Note_on_c, 6, 42, 0
9, 8550, Note_on_c, 6, 60, 0
9, 8550, Note_on_c, 6, 54, 0
9, 8760, Note_on_c, 6, 55, 62
9, 8760, Note_on_c, 6, 59, 62
9, 8760, Note_on_c, 6, 43, 62
9, 8790, Note_on_c, 6, 43, 0
9, 8790, Note_on_c, 6, 59, 0
9, 8790, Note_on_c, 6, 55, 0
9, 8820, Note_on_c, 6, 59, 62
9, 8820, Note_on_c, 6, 62, 62
9, 8820, Note_on_c, 6, 55, 62
9, 8850, Note_on_c, 6, 55, 0
9, 8850, Note_on_c, 6, 62, 0
9, 8850, Note_on_c, 6, 59, 0
9, 8880, Note_on_c, 6, 59, 62
9, 8880, Note_on_c, 6, 69, 62
9, 8880, Note_on_c, 6, 51, 62
9, 8910, Note_on_c, 6, 51, 0
9, 8910, Note_on_c, 6, 69, 0
9, 8910, Note_on_c, 6, 59, 0
9, 8940, Note_on_c, 6, 63, 62
9, 8940, Note_on_c, 6, 66, 62
9, 8940, Note_on_c, 6, 47, 62
9, 8970, Note_on_c, 6, 47, 0
9, 8970, Note_on_c, 6, 66, 0
9, 8970, Note_on_c, 6, 63, 0
9, 9000, Note_on_c, 6, 64, 62
9, 9000, Note_on_c, 6, 67, 62
9, 9000, Note_on_c, 6, 52, 62
9, 9030, Note_on_c, 6, 67, 0
9, 9030, Note_on_c, 6, 64, 0
9, 9060, Note_on_c, 6, 52, 0
9, 9060, Note_on_c, 6, 58, 62
9, 9060, Note_on_c, 6, 66, 62
9, 9060, Note_on_c, 6, 54, 62
9, 9090, Note_on_c, 6, 54, 0
9, 9090, Note_on_c, 6, 66, 0
9, 9090, Note_on_c, 6, 58, 0
9, 9120, Note_on_c, 6, 59, 62
9, 9120, Note_on_c, 6, 64, 62
9, 9120, Note_on_c, 6, 55, 62
9, 9150, Note_on_c, 6, 64, 0
9, 9150, Note_on_c, 6, 59, 0
9, 9180, Note_on_c, 6, 55, 0
9, 9180, Note_on_c, 6, 58, 62
9, 9180, Note_on_c, 6, 64, 62
9, 9180, Note_on_c, 6, 49, 62
9, 9300, Note_on_c, 6, 49, 0
9, 9300, Note_on_c, 6, 64, 0
9, 9300, Note_on_c, 6, 58, 0
9, 9300, Note_on_c, 6, 59, 62
9, 9300, Note_on_c, 6, 62, 62
9, 9300, Note_on_c, 6, 47, 62
9, 9330, Note_on_c, 6, 62, 0
9, 9330, Note_on_c, 6, 59, 0
9, 9360, Note_on_c, 6, 47, 0
9, 9360, Note_on_c, 6, 58, 62
9, 9360, Note_on_c, 6, 64, 62
9, 9360, Note_on_c, 6, 46, 62
9, 9390, Note_on_c, 6, 46, 0
9, 9390, Note_on_c, 6, 64, 0
9, 9390, Note_on_c, 6, 58, 0
9, 9420, Note_on_c, 6, 58, 62
9, 9420, Note_on_c, 6, 61, 62
9, 9420, Note_on_c, 6, 42, 62
9, 9450, Note_on_c, 6, 42, 0
9, 9450, Note_on_c, 6, 61, 0
9, 9450, Note_on_c, 6, 58, 0
9, 9840, Note_on_c, 6, 59, 49
9, 9840, Note_on_c, 6, 62, 49
9, 9840, Note_on_c, 6, 47, 49
9, 9870, Note_on_c, 6, 47, 0
9, 9870, Note_on_c, 6, 62, 0
9, 9870, Note_on_c, 6, 59, 0
9, 9900, Note_on_c, 6, 62, 49
9, 9900, Note_on_c, 6, 66, 49
9, 9900, Note_on_c, 6, 59, 49
9, 9930, Note_on_c, 6, 59, 0
9, 9930, Note_on_c, 6, 66, 0
9, 9930, Note_on_c, 6, 62, 0
9, 9960, Note_on_c, 6, 59, 49
9, 9960, Note_on_c, 6, 62, 49
9, 9960, Note_on_c, 6, 47, 49
9, 9990, Note_on_c, 6, 47, 0
9, 9990, Note_on_c, 6, 62, 0
9, 9990, Note_on_c, 6, 59, 0
9, 10200, Note_on_c, 6, 61, 49
9, 10200, Note_on_c, 6, 65, 49
9, 10200, Note_on_c, 6, 67, 49
9, 10200, Note_on_c, 6, 59, 49
9, 10230, Note_on_c, 6, 59, 0
9, 10230, Note_on_c, 6, 61, 0
9, 10230, Note_on_c, 6, 65, 0
9, 10230, Note_on_c, 6, 67, 0
9, 10260, Note_on_c, 6, 61, 49
9, 10260, Note_on_c, 6, 66, 49
9, 10260, Note_on_c, 6, 57, 49
9, 10290, Note_on_c, 6, 57, 0
9, 10320, Note_on_c, 6, 45, 49
9, 10350, Note_on_c, 6, 45, 0
9, 10380, Note_on_c, 6, 66, 0
9, 10380, Note_on_c, 6, 61, 0
9, 10380, Note_on_c, 6, 57, 49
9, 10410, Note_on_c, 6, 57, 0
9, 10440, Note_on_c, 6, 59, 49
9, 10440, Note_on_c, 6, 65, 49
9, 10440, Note_on_c, 6, 56, 49
9, 10560, Note_on_c, 6, 56, 0
9, 10560, Note_on_c, 6, 65, 0
9, 10560, Note_on_c, 6, 59, 0
9, 10560, Note_on_c, 6, 59, 49
9, 10560, Note_on_c, 6, 62, 49
9, 10560, Note_on_c, 6, 54, 49
9, 10590, Note_on_c, 6, 54, 0
9, 10590, Note_on_c, 6, 62, 0
9, 10590, Note_on_c, 6, 59, 0
9, 10620, Note_on_c, 6, 59, 49
9, 10620, Note_on_c, 6, 61, 49
9, 10620, Note_on_c, 6, 53, 49
9, 10740, Note_on_c, 6, 53, 0
9, 10740, Note_on_c, 6, 61, 0
9, 10740, Note_on_c, 6, 59, 0
9, 10740, Note_on_c, 6, 57, 49
9, 10740, Note_on_c, 6, 61, 49
9, 10740, Note_on_c, 6, 54, 49
9, 10770, Note_on_c, 6, 54, 0
9, 10770, Note_on_c, 6, 61, 0
9, 10770, Note_on_c, 6, 57, 0
9, 10800, Note_on_c, 6, 57, 49
9, 10800, Note_on_c, 6, 66, 49
9, 10800, Note_on_c, 6, 47, 49
9, 10830, Note_on_c, 6, 47, 0
9, 10830, Note_on_c, 6, 66, 0
9, 10830, Note_on_c, 6, 57, 0
9, 10830, Note_on_c, 6, 68, 49
9, 10860, Note_on_c, 6, 68, 0
9, 10860, Note_on_c, 6, 61, 49
9, 10860, Note_on_c, 6, 65, 49
9, 10860, Note_on_c, 6, 49, 49
9, 10890, Note_on_c, 6, 49, 0
9, 10920, Note_on_c, 6, 37, 49
9, 10950, Note_on_c, 6, 37, 0
9, 10950, Note_on_c, 6, 65, 0
9, 10950, Note_on_c, 6, 61, 0
9, 10950, Note_on_c, 6, 66, 49
9, 10980, Note_on_c, 6, 66, 0
9, 10980, Note_on_c, 6, 57, 49
9, 10980, Note_on_c, 6, 61, 49
9, 10980, Note_on_c, 6, 66, 49
9, 10980, Note_on_c, 6, 42, 49
9, 11100, Note_on_c, 6, 42, 0
9, 11100, Note_on_c, 6, 57, 0
9, 11100, Note_on_c, 6, 61, 0
9, 11100, Note_on_c, 6, 66, 0
9, 11280, Note_on_c, 6, 61, 88
9, 11280, Note_on_c, 6, 66, 88
9, 11280, Note_on_c, 6, 57, 88
9, 11310, Note_on_c, 6, 57, 0
9, 11310, Note_on_c, 6, 66, 0
9, 11310, Note_on_c, 6, 61, 0
9, 11340, Note_on_c, 6, 59, 88
9, 11340, Note_on_c, 6, 65, 88
9, 11340, Note_on_c, 6, 56, 88
9, 11370, Note_on_c, 6, 56, 0
9, 11370, Note_on_c, 6, 65, 0
9, 11370, Note_on_c, 6, 59, 0
9, 11400, Note_on_c, 6, 57, 88
9, 11400, Note_on_c, 6, 66, 88
9, 11400, Note_on_c, 6, 54, 88
9, 11430, Note_on_c, 6, 54, 0
9, 11430, Note_on_c, 6, 66, 0
9, 11430, Note_on_c, 6, 57, 0
9, 11640, Note_on_c, 6, 61, 88
9, 11640, Note_on_c, 6, 68, 88
9, 11640, Note_on_c, 6, 53, 88
9, 11670, Note_on_c, 6, 53, 0
9, 11670, Note_on_c, 6, 68, 0
9, 11670, Note_on_c, 6, 61, 0
9, 11700, Note_on_c, 6, 65, 88
9, 11700, Note_on_c, 6, 71, 88
9, 11700, Note_on_c, 6, 49, 88
9, 11730, Note_on_c, 6, 49, 0
9, 11730, Note_on_c, 6, 71, 0
9, 11730, Note_on_c, 6, 65, 0
9, 11760, Note_on_c, 6, 66, 88
9, 11760, Note_on_c, 6, 69, 88
9, 11760, Note_on_c, 6, 51, 88
9, 11790, Note_on_c, 6, 51, 0
9, 11790, Note_on_c, 6, 69, 0
9, 11790, Note_on_c, 6, 66, 0
9, 11820, Note_on_c, 6, 68, 88
9, 11820, Note_on_c, 6, 53, 88
9, 11850, Note_on_c, 6, 53, 0
9, 11850, Note_on_c, 6, 68, 0
9, 11880, Note_on_c, 6, 66, 88
9, 11880, Note_on_c, 6, 69, 88
9, 11880, Note_on_c, 6, 54, 88
9, 11910, Note_on_c, 6, 69, 0
9, 11910, Note_on_c, 6, 66, 0
9, 11940, Note_on_c, 6, 54, 0
9, 11940, Note_on_c, 6, 62, 88
9, 11940, Note_on_c, 6, 68, 88
9, 11940, Note_on_c, 6, 47, 88
9, 11970, Note_on_c, 6, 47, 0
9, 11970, Note_on_c, 6, 68, 0
9, 11970, Note_on_c, 6, 62, 0
9, 12000, Note_on_c, 6, 61, 88
9, 12000, Note_on_c, 6, 66, 88
9, 12000, Note_on_c, 6, 45, 88
9, 12030, Note_on_c, 6, 66, 0
9, 12030, Note_on_c, 6, 61, 0
9, 12060, Note_on_c, 6, 45, 0
9, 12060, Note_on_c, 6, 59, 88
9, 12060, Note_on_c, 6, 66, 88
9, 12060, Note_on_c, 6, 44, 88
9, 12090, Note_on_c, 6, 66, 0
9, 12090, Note_on_c, 6, 59, 0
9, 12120, Note_on_c, 6, 64, 88
9, 12150, Note_on_c, 6, 64, 0
9, 12180, Note_on_c, 6, 44, 0
9, 12180, Note_on_c, 6, 59, 88
9, 12180, Note_on_c, 6, 62, 88
9, 12180, Note_on_c, 6, 40, 88
9, 12210, Note_on_c, 6, 40, 0
9, 12210, Note_on_c, 6, 62, 0
9, 12210, Note_on_c, 6, 59, 0
9, 12240, Note_on_c, 6, 57, 88
9, 12240, Note_on_c, 6, 61, 88
9, 12240, Note_on_c, 6, 45, 88
9, 12270, Note_on_c, 6, 45, 0
9, 12270, Note_on_c, 6, 61, 0
9, 12270, Note_on_c, 6, 57, 0
9, 12300, Note_on_c, 6, 56, 88
9, 12300, Note_on_c, 6, 59, 88
9, 12300, Note_on_c, 6, 40, 88
9, 12330, Note_on_c, 6, 40, 0
9, 12330, Note_on_c, 6, 59, 0
9, 12330, Note_on_c, 6, 56, 0
9, 12720, Note_on_c, 6, 61, 88
9, 12720, Note_on_c, 6, 64, 88
9, 12720, Note_on_c, 6, 69, 88
9, 12720, Note_on_c, 6, 45, 88
9, 12750, Note_on_c, 6, 45, 0
9, 12750, Note_on_c, 6, 61, 0
9, 12750, Note_on_c, 6, 64, 0
9, 12750, Note_on_c, 6, 69, 0
9, 12780, Note_on_c, 6, 62, 88
9, 12780, Note_on_c, 6, 66, 88
9, 12780, Note_on_c, 6, 50, 88
9, 12810, Note_on_c, 6, 50, 0
9, 12810, Note_on_c, 6, 66, 0
9, 12810, Note_on_c, 6, 62, 0
9, 12840, Note_on_c, 6, 54, 88
9, 12840, Note_on_c, 6, 57, 88
9, 12840, Note_on_c, 6, 62, 88
9, 12840, Note_on_c, 6, 38, 88
9, 12870, Note_on_c, 6, 38, 0
9, 12870, Note_on_c, 6, 54, 0
9, 12870, Note_on_c, 6, 57, 0
9, 12870, Note_on_c, 6, 62, 0
9, 13080, Note_on_c, 6, 62, 88
9, 13080, Note_on_c, 6, 66, 88
9, 13080, Note_on_c, 6, 71, 88
9, 13080, Note_on_c, 6, 47, 88
9, 13110, Note_on_c, 6, 47, 0
9, 13110, Note_on_c, 6, 62, 0
9, 13110, Note_on_c, 6, 66, 0
9, 13110, Note_on_c, 6, 71, 0
9, 13140, Note_on_c, 6, 64, 88
9, 13140, Note_on_c, 6, 68, 88
9, 13140, Note_on_c, 6, 52, 88
9, 13170, Note_on_c, 6, 52, 0
9, 13170, Note_on_c, 6, 68, 0
9, 13170, Note_on_c, 6, 64, 0
9, 13200, Note_on_c, 6, 56, 88
9, 13200, Note_on_c, 6, 59, 88
9, 13200, Note_on_c, 6, 64, 88
9, 13200, Note_on_c, 6, 40, 88
9, 13230, Note_on_c, 6, 40, 0
9, 13230, Note_on_c, 6, 56, 0
9, 13230, Note_on_c, 6, 59, 0
9, 13230, Note_on_c, 6, 64, 0
9, 13380, Note_on_c, 6, 66, 88
9, 13380, Note_on_c, 6, 70, 88
9, 13380, Note_on_c, 6, 54, 88
9, 13410, Note_on_c, 6, 70, 0
9, 13410, Note_on_c, 6, 66, 0
9, 13440, Note_on_c, 6, 54, 0
9, 13440, Note_on_c, 6, 66, 88
9, 13440, Note_on_c, 6, 73, 88
9, 13440, Note_on_c, 6, 52, 88
9, 13470, Note_on_c, 6, 52, 0
9, 13500, Note_on_c, 6, 66, 0
9, 13500, Note_on_c, 6, 62, 88
9, 13500, Note_on_c, 6, 50, 88
9, 13530, Note_on_c, 6, 62, 0
9, 13530, Note_on_c, 6, 73, 0
9, 13560, Note_on_c, 6, 62, 88
9, 13560, Note_on_c, 6, 71, 88
9, 13590, Note_on_c, 6, 71, 0
9, 13590, Note_on_c, 6, 62, 0
9, 13620, Note_on_c, 6, 50, 0
9, 13620, Note_on_c, 6, 66, 88
9, 13620, Note_on_c, 6, 70, 88
9, 13620, Note_on_c, 6, 49, 88
9, 13650, Note_on_c, 6, 70, 0
9, 13650, Note_on_c, 6, 66, 0
9, 13680, Note_on_c, 6, 49, 0
9, 13680, Note_on_c, 6, 62, 88
9, 13680, Note_on_c, 6, 66, 88
9, 13680, Note_on_c, 6, 71, 88
9, 13680, Note_on_c, 6, 47, 88
9, 13710, Note_on_c, 6, 47, 0
9, 13710, Note_on_c, 6, 62, 0
9, 13710, Note_on_c, 6, 66, 0
9, 13710, Note_on_c, 6, 71, 0
9, 13740, Note_on_c, 6, 52, 88
9, 13800, Note_on_c, 6, 52, 0
9, 13800, Note_on_c, 6, 59, 88
9, 13800, Note_on_c, 6, 66, 88
9, 13800, Note_on_c, 6, 71, 88
9, 13800, Note_on_c, 6, 50, 88
9, 13830, Note_on_c, 6, 71, 0
9, 13830, Note_on_c, 6, 59, 0
9, 13830, Note_on_c, 6, 66, 0
9, 13860, Note_on_c, 6, 64, 88
9, 13860, Note_on_c, 6, 68, 88
9, 13890, Note_on_c, 6, 68, 0
9, 13890, Note_on_c, 6, 64, 0
9, 13920, Note_on_c, 6, 50, 0
9, 13920, Note_on_c, 6, 64, 88
9, 13920, Note_on_c, 6, 69, 88
9, 13920, Note_on_c, 6, 49, 88
9, 13950, Note_on_c, 6, 49, 0
9, 13950, Note_on_c, 6, 69, 0
9, 13950, Note_on_c, 6, 64, 0
9, 13980, Note_on_c, 6, 64, 88
9, 13980, Note_on_c, 6, 68, 88
9, 13980, Note_on_c, 6, 71, 88
9, 13980, Note_on_c, 6, 52, 88
9, 14010, Note_on_c, 6, 71, 0
9, 14010, Note_on_c, 6, 64, 0
9, 14010, Note_on_c, 6, 68, 0
9, 14040, Note_on_c, 6, 52, 0
9, 14040, Note_on_c, 6, 64, 88
9, 14040, Note_on_c, 6, 73, 88
9, 14040, Note_on_c, 6, 45, 88
9, 14070, Note_on_c, 6, 73, 0
9, 14070, Note_on_c, 6, 64, 0
9, 14100, Note_on_c, 6, 45, 0
9, 14100, Note_on_c, 6, 47, 88
9, 14160, Note_on_c, 6, 47, 0
9, 14160, Note_on_c, 6, 65, 88
9, 14160, Note_on_c, 6, 69, 88
9, 14160, Note_on_c, 6, 49, 88
9, 14190, Note_on_c, 6, 69, 0
9, 14190, Note_on_c, 6, 65, 0
9, 14220, Note_on_c, 6, 49, 0
9, 14220, Note_on_c, 6, 61, 88
9, 14220, Note_on_c, 6, 66, 88
9, 14220, Note_on_c, 6, 50, 88
9, 14280, Note_on_c, 6, 61, 0
9, 14280, Note_on_c, 6, 59, 88
9, 14310, Note_on_c, 6, 59, 0
9, 14340, Note_on_c, 6, 57, 88
9, 14370, Note_on_c, 6, 57, 0
9, 14370, Note_on_c, 6, 66, 0
9, 14400, Note_on_c, 6, 56, 88
9, 14400, Note_on_c, 6, 66, 88
9, 14430, Note_on_c, 6, 66, 0
9, 14430, Note_on_c, 6, 56, 0
9, 14460, Note_on_c, 6, 50, 0
9, 14460, Note_on_c, 6, 66, 88
9, 14460, Note_on_c, 6, 71, 88
9, 14460, Note_on_c, 6, 62, 88
9, 14490, Note_on_c, 6, 71, 0
9, 14490, Note_on_c, 6, 66, 0
9, 14520, Note_on_c, 6, 62, 0
9, 14520, Note_on_c, 6, 68, 88
9, 14520, Note_on_c, 6, 59, 88
9, 14550, Note_on_c, 6, 59, 0
9, 14550, Note_on_c, 6, 68, 0
9, 14580, Note_on_c, 6, 65, 88
9, 14580, Note_on_c, 6, 56, 88
9, 14610, Note_on_c, 6, 65, 0
9, 14640, Note_on_c, 6, 56, 0
9, 14640, Note_on_c, 6, 62, 88
9, 14640, Note_on_c, 6, 68, 88
9, 14640, Note_on_c, 6, 53, 88
9, 14670, Note_on_c, 6, 53, 0
9, 14670, Note_on_c, 6, 68, 0
9, 14670, Note_on_c, 6, 62, 0
9, 14700, Note_on_c, 6, 68, 88
9, 14700, Note_on_c, 6, 71, 88
9, 14700, Note_on_c, 6, 54, 88
9, 14760, Note_on_c, 6, 54, 0
9, 14760, Note_on_c, 6, 53, 88
9, 14790, Note_on_c, 6, 53, 0
9, 14790, Note_on_c, 6, 71, 0
9, 14790, Note_on_c, 6, 68, 0
9, 14820, Note_on_c, 6, 59, 88
9, 14820, Note_on_c, 6, 65, 88
9, 14820, Note_on_c, 6, 56, 88
9, 14850, Note_on_c, 6, 56, 0
9, 14850, Note_on_c, 6, 65, 0
9, 14850, Note_on_c, 6, 59, 0
9, 14940, Note_on_c, 6, 59, 88
9, 14940, Note_on_c, 6, 62, 88
9, 14940, Note_on_c, 6, 49, 88
9, 14970, Note_on_c, 6, 49, 0
9, 14970, Note_on_c, 6, 62, 0
9, 14970, Note_on_c, 6, 59, 0
9, 15000, Note_on_c, 6, 56, 88
9, 15000, Note_on_c, 6, 61, 88
9, 15000, Note_on_c, 6, 53, 88
9, 15030, Note_on_c, 6, 53, 0
9, 15030, Note_on_c, 6, 61, 0
9, 15030, Note_on_c, 6, 56, 0
9, 15120, Note_on_c, 6, 54, 88
9, 15150, Note_on_c, 6, 54, 0
9, 15180, Note_on_c, 6, 62, 88
9, 15180, Note_on_c, 6, 66, 88
9, 15180, Note_on_c, 6, 71, 88
9, 15180, Note_on_c, 6, 50, 88
9, 15210, Note_on_c, 6, 71, 0
9, 15210, Note_on_c, 6, 62, 0
9, 15210, Note_on_c, 6, 66, 0
9, 15240, Note_on_c, 6, 50, 0
9, 15240, Note_on_c, 6, 61, 88
9, 15240, Note_on_c, 6, 66, 88
9, 15240, Note_on_c, 6, 69, 88
9, 15240, Note_on_c, 6, 45, 88
9, 15270, Note_on_c, 6, 69, 0
9, 15270, Note_on_c, 6, 61, 0
9, 15270, Note_on_c, 6, 66, 0
9, 15300, Note_on_c, 6, 45, 0
9, 15300, Note_on_c, 6, 62, 88
9, 15300, Note_on_c, 6, 68, 88
9, 15300, Note_on_c, 6, 47, 88
9, 15330, Note_on_c, 6, 68, 0
9, 15330, Note_on_c, 6, 62, 0
9, 15360, Note_on_c, 6, 47, 0
9, 15360, Note_on_c, 6, 61, 88
9, 15360, Note_on_c, 6, 69, 88
9, 15360, Note_on_c, 6, 49, 88
9, 15390, Note_on_c, 6, 69, 0
9, 15390, Note_on_c, 6, 61, 0
9, 15420, Note_on_c, 6, 49, 0
9, 15420, Note_on_c, 6, 61, 88
9, 15420, Note_on_c, 6, 65, 88
9, 15420, Note_on_c, 6, 37, 88
9, 15450, Note_on_c, 6, 65, 0
9, 15450, Note_on_c, 6, 61, 0
9, 15480, Note_on_c, 6, 37, 0
9, 15480, Note_on_c, 6, 57, 88
9, 15480, Note_on_c, 6, 61, 88
9, 15480, Note_on_c, 6, 66, 88
9, 15480, Note_on_c, 6, 42, 88
9, 15510, Note_on_c, 6, 42, 0
9, 15540, Note_on_c, 6, 45, 88
9, 15570, Note_on_c, 6, 45, 0
9, 15600, Note_on_c, 6, 49, 88
9, 15630, Note_on_c, 6, 49, 0
9, 15660, Note_on_c, 6, 54, 88
9, 15690, Note_on_c, 6, 54, 0
9, 15720, Note_on_c, 6, 45, 88
9, 15750, Note_on_c, 6, 45, 0
9, 15780, Note_on_c, 6, 57, 0
9, 15780, Note_on_c, 6, 61, 0
9, 15780, Note_on_c, 6, 66, 0
9, 15780, Note_on_c, 6, 61, 49
9, 15780, Note_on_c, 6, 65, 49
9, 15780, Note_on_c, 6, 68, 49
9, 15780, Note_on_c, 6, 49, 49
9, 15810, Note_on_c, 6, 49, 0
9, 15810, Note_on_c, 6, 61, 0
9, 15810, Note_on_c, 6, 65, 0
9, 15810, Note_on_c, 6, 68, 0
9, 15840, Note_on_c, 6, 66, 49
9, 15840, Note_on_c, 6, 69, 49
9, 15840, Note_on_c, 6, 42, 49
9, 15870, Note_on_c, 6, 69, 0
9, 15870, Note_on_c, 6, 66, 0
9, 15900, Note_on_c, 6, 42, 0
9, 15900, Note_on_c, 6, 71, 49
9, 15900, Note_on_c, 6, 44, 49
9, 15930, Note_on_c, 6, 71, 0
9, 15960, Note_on_c, 6, 44, 0
9, 15960, Note_on_c, 6, 73, 49
9, 15960, Note_on_c, 6, 45, 49
9, 15990, Note_on_c, 6, 45, 0
9, 16020, Note_on_c, 6, 62, 49
9, 16020, Note_on_c, 6, 47, 49
9, 16050, Note_on_c, 6, 62, 0
9, 16050, Note_on_c, 6, 73, 0
9, 16080, Note_on_c, 6, 47, 0
9, 16080, Note_on_c, 6, 64, 49
9, 16080, Note_on_c, 6, 49, 49
9, 16110, Note_on_c, 6, 64, 0
9, 16140, Note_on_c, 6, 49, 0
9, 16140, Note_on_c, 6, 66, 49
9, 16140, Note_on_c, 6, 50, 49
9, 16170, Note_on_c, 6, 50, 0
9, 16170, Note_on_c, 6, 66, 0
9, 16200, Note_on_c, 6, 68, 49
9, 16200, Note_on_c, 6, 40, 49
9, 16230, Note_on_c, 6, 68, 0
9, 16260, Note_on_c, 6, 40, 0
9, 16260, Note_on_c, 6, 69, 49
9, 16260, Note_on_c, 6, 42, 49
9, 16290, Note_on_c, 6, 69, 0
9, 16320, Note_on_c, 6, 42, 0
9, 16320, Note_on_c, 6, 62, 49
9, 16320, Note_on_c, 6, 64, 49
9, 16320, Note_on_c, 6, 71, 49
9, 16320, Note_on_c, 6, 44, 49
9, 16350, Note_on_c, 6, 44, 0
9, 16350, Note_on_c, 6, 62, 0
9, 16350, Note_on_c, 6, 64, 0
9, 16350, Note_on_c, 6, 71, 0
9, 16380, Note_on_c, 6, 61, 49
9, 16380, Note_on_c, 6, 64, 49
9, 16380, Note_on_c, 6, 45, 49
9, 16410, Note_on_c, 6, 64, 0
9, 16410, Note_on_c, 6, 61, 0
9, 16440, Note_on_c, 6, 45, 0
9, 16440, Note_on_c, 6, 62, 49
9, 16440, Note_on_c, 6, 47, 49
9, 16470, Note_on_c, 6, 62, 0
9, 16500, Note_on_c, 6, 47, 0
9, 16500, Note_on_c, 6, 64, 49
9, 16500, Note_on_c, 6, 49, 49
9, 16530, Note_on_c, 6, 49, 0
9, 16530, Note_on_c, 6, 64, 0
9, 16560, Note_on_c, 6, 66, 49
9, 16560, Note_on_c, 6, 50, 49
9, 16590, Note_on_c, 6, 66, 0
9, 16620, Note_on_c, 6, 50, 0
9, 16620, Note_on_c, 6, 62, 49
9, 16620, Note_on_c, 6, 68, 49
9, 16620, Note_on_c, 6, 47, 49
9, 16650, Note_on_c, 6, 68, 0
9, 16650, Note_on_c, 6, 62, 0
9, 16680, Note_on_c, 6, 47, 0
9, 16680, Note_on_c, 6, 64, 49
9, 16680, Note_on_c, 6, 69, 49
9, 16680, Note_on_c, 6, 49, 49
9, 16710, Note_on_c, 6, 49, 0
9, 16710, Note_on_c, 6, 69, 0
9, 16710, Note_on_c, 6, 64, 0
9, 16740, Note_on_c, 6, 64, 49
9, 16740, Note_on_c, 6, 71, 49
9, 16740, Note_on_c, 6, 44, 49
9, 16860, Note_on_c, 6, 44, 0
9, 16860, Note_on_c, 6, 71, 0
9, 16860, Note_on_c, 6, 64, 0
9, 16860, Note_on_c, 6, 64, 49
9, 16860, Note_on_c, 6, 69, 49
9, 16860, Note_on_c, 6, 45, 49
9, 16920, Note_on_c, 6, 45, 0
9, 16920, Note_on_c, 6, 52, 49
9, 16950, Note_on_c, 6, 52, 0
9, 16950, Note_on_c, 6, 69, 0
9, 16950, Note_on_c, 6, 64, 0
9, 16980, Note_on_c, 6, 64, 49
9, 16980, Note_on_c, 6, 68, 49
9, 16980, Note_on_c, 6, 40, 49
9, 17010, Note_on_c, 6, 40, 0
9, 17010, Note_on_c, 6, 68, 0
9, 17010, Note_on_c, 6, 64, 0
9, 17220, Note_on_c, 6, 59, 49
9, 17220, Note_on_c, 6, 64, 49
9, 17220, Note_on_c, 6, 56, 49
9, 17250, Note_on_c, 6, 64, 0
9, 17250, Note_on_c, 6, 59, 0
9, 17280, Note_on_c, 6, 56, 0
9, 17280, Note_on_c, 6, 69, 49
9, 17280, Note_on_c, 6, 73, 49
9, 17280, Note_on_c, 6, 57, 49
9, 17310, Note_on_c, 6, 57, 0
9, 17340, Note_on_c, 6, 49, 49
9, 17370, Note_on_c, 6, 49, 0
9, 17400, Note_on_c, 6, 73, 0
9, 17400, Note_on_c, 6, 69, 0
9, 17400, Note_on_c, 6, 68, 49
9, 17400, Note_on_c, 6, 71, 49
9, 17400, Note_on_c, 6, 52, 49
9, 17430, Note_on_c, 6, 52, 0
9, 17430, Note_on_c, 6, 71, 0
9, 17430, Note_on_c, 6, 68, 0
9, 17460, Note_on_c, 6, 69, 49
9, 17460, Note_on_c, 6, 73, 49
9, 17460, Note_on_c, 6, 49, 49
9, 17490, Note_on_c, 6, 49, 0
9, 17490, Note_on_c, 6, 73, 0
9, 17490, Note_on_c, 6, 69, 0
9, 17520, Note_on_c, 6, 73, 49
9, 17520, Note_on_c, 6, 76, 49
9, 17520, Note_on_c, 6, 45, 49
9, 17550, Note_on_c, 6, 45, 0
9, 17550, Note_on_c, 6, 76, 0
9, 17550, Note_on_c, 6, 73, 0
9, 17580, Note_on_c, 6, 64, 49
9, 17580, Note_on_c, 6, 70, 49
9, 17580, Note_on_c, 6, 58, 49
9, 17610, Note_on_c, 6, 58, 0
9, 17610, Note_on_c, 6, 70, 0
9, 17610, Note_on_c, 6, 64, 0
9, 17640, Note_on_c, 6, 62, 49
9, 17640, Note_on_c, 6, 66, 49
9, 17640, Note_on_c, 6, 59, 49
9, 17670, Note_on_c, 6, 59, 0
9, 17700, Note_on_c, 6, 50, 49
9, 17730, Note_on_c, 6, 50, 0
9, 17760, Note_on_c, 6, 66, 0
9, 17760, Note_on_c, 6, 62, 0
9, 17760, Note_on_c, 6, 58, 49
9, 17760, Note_on_c, 6, 61, 49
9, 17760, Note_on_c, 6, 54, 49
9, 17790, Note_on_c, 6, 54, 0
9, 17790, Note_on_c, 6, 61, 0
9, 17790, Note_on_c, 6, 58, 0
9, 17820, Note_on_c, 6, 59, 49
9, 17820, Note_on_c, 6, 50, 49
9, 17850, Note_on_c, 6, 50, 0
9, 17850, Note_on_c, 6, 59, 0
9, 17880, Note_on_c, 6, 62, 49
9, 17880, Note_on_c, 6, 66, 49
9, 17880, Note_on_c, 6, 47, 49
9, 17910, Note_on_c, 6, 47, 0
9, 17910, Note_on_c, 6, 66, 0
9, 17910, Note_on_c, 6, 62, 0
9, 17940, Note_on_c, 6, 64, 49
9, 17940, Note_on_c, 6, 73, 49
9, 17940, Note_on_c, 6, 55, 49
9, 17970, Note_on_c, 6, 73, 0
9, 17970, Note_on_c, 6, 64, 0
9, 18000, Note_on_c, 6, 64, 49
9, 18000, Note_on_c, 6, 69, 49
9, 18000, Note_on_c, 6, 73, 49
9, 18030, Note_on_c, 6, 73, 0
9, 18030, Note_on_c, 6, 69, 0
9, 18030, Note_on_c, 6, 64, 0
9, 18060, Note_on_c, 6, 55, 0
9, 18060, Note_on_c, 6, 66, 49
9, 18060, Note_on_c, 6, 69, 49
9, 18060, Note_on_c, 6, 74, 49
9, 18060, Note_on_c, 6, 54, 49
9, 18090, Note_on_c, 6, 54, 0
9, 18090, Note_on_c, 6, 66, 0
9, 18090, Note_on_c, 6, 69, 0
9, 18090, Note_on_c, 6, 74, 0
9, 18120, Note_on_c, 6, 62, 49
9, 18120, Note_on_c, 6, 67, 49
9, 18120, Note_on_c, 6, 59, 49
9, 18150, Note_on_c, 6, 59, 0
9, 18150, Note_on_c, 6, 67, 0
9, 18150, Note_on_c, 6, 62, 0
9, 18180, Note_on_c, 6, 62, 49
9, 18180, Note_on_c, 6, 66, 49
9, 18180, Note_on_c, 6, 57, 49
9, 18210, Note_on_c, 6, 66, 0
9, 18210, Note_on_c, 6, 62, 0
9, 18240, Note_on_c, 6, 57, 0
9, 18240, Note_on_c, 6, 61, 49
9, 18240, Note_on_c, 6, 64, 49
9, 18240, Note_on_c, 6, 55, 49
9, 18270, Note_on_c, 6, 55, 0
9, 18270, Note_on_c, 6, 64, 0
9, 18270, Note_on_c, 6, 61, 0
9, 18300, Note_on_c, 6, 57, 49
9, 18300, Note_on_c, 6, 61, 49
9, 18300, Note_on_c, 6, 57, 49
9, 18330, Note_on_c, 6, 57, 0
9, 18330, Note_on_c, 6, 61, 0
9, 18330, Note_on_c, 6, 57, 0
9, 18360, Note_on_c, 6, 54, 49
9, 18360, Note_on_c, 6, 57, 49
9, 18360, Note_on_c, 6, 62, 49
9, 18360, Note_on_c, 6, 50, 49
9, 18390, Note_on_c, 6, 50, 0
9, 18420, Note_on_c, 6, 62, 49
9, 18450, Note_on_c, 6, 62, 0
9, 18480, Note_on_c, 6, 62, 0
9, 18480, Note_on_c, 6, 57, 0
9, 18480, Note_on_c, 6, 54, 0
9, 18480, Note_on_c, 6, 62, 49
9, 18480, Note_on_c, 6, 66, 49
9, 18480, Note_on_c, 6, 69, 49
9, 18480, Note_on_c, 6, 61, 49
9, 18510, Note_on_c, 6, 61, 0
9, 18510, Note_on_c, 6, 62, 0
9, 18510, Note_on_c, 6, 66, 0
9, 18510, Note_on_c, 6, 69, 0
9, 18540, Note_on_c, 6, 62, 49
9, 18540, Note_on_c, 6, 67, 49
9, 18540, Note_on_c, 6, 59, 49
9, 18570, Note_on_c, 6, 59, 0
9, 18570, Note_on_c, 6, 67, 0
9, 18570, Note_on_c, 6, 62, 0
9, 18600, Note_on_c, 6, 59, 49
9, 18600, Note_on_c, 6, 64, 49
9, 18600, Note_on_c, 6, 55, 49
9, 18630, Note_on_c, 6, 55, 0
9, 18630, Note_on_c, 6, 64, 0
9, 18630, Note_on_c, 6, 59, 0
9, 18720, Note_on_c, 6, 62, 49
9, 18720, Note_on_c, 6, 66, 49
9, 18720, Note_on_c, 6, 57, 49
9, 18750, Note_on_c, 6, 57, 0
9, 18750, Note_on_c, 6, 66, 0
9, 18750, Note_on_c, 6, 62, 0
9, 18780, Note_on_c, 6, 57, 49
9, 18780, Note_on_c, 6, 62, 49
9, 18780, Note_on_c, 6, 54, 49
9, 18810, Note_on_c, 6, 54, 0
9, 18810, Note_on_c, 6, 62, 0
9, 18810, Note_on_c, 6, 57, 0
9, 18900, Note_on_c, 6, 59, 49
9, 18900, Note_on_c, 6, 64, 49
9, 18900, Note_on_c, 6, 55, 49
9, 18930, Note_on_c, 6, 55, 0
9, 18930, Note_on_c, 6, 64, 0
9, 18930, Note_on_c, 6, 59, 0
9, 18960, Note_on_c, 6, 64, 49
9, 18960, Note_on_c, 6, 67, 49
9, 18960, Note_on_c, 6, 52, 49
9, 18990, Note_on_c, 6, 52, 0
9, 18990, Note_on_c, 6, 67, 0
9, 18990, Note_on_c, 6, 64, 0
9, 19080, Note_on_c, 6, 66, 49
9, 19080, Note_on_c, 6, 69, 49
9, 19080, Note_on_c, 6, 54, 49
9, 19110, Note_on_c, 6, 54, 0
9, 19110, Note_on_c, 6, 69, 0
9, 19110, Note_on_c, 6, 66, 0
9, 19140, Note_on_c, 6, 62, 49
9, 19140, Note_on_c, 6, 66, 49
9, 19140, Note_on_c, 6, 50, 49
9, 19170, Note_on_c, 6, 50, 0
9, 19170, Note_on_c, 6, 66, 0
9, 19170, Note_on_c, 6, 62, 0
9, 19260, Note_on_c, 6, 43, 49
9, 19290, Note_on_c, 6, 43, 0
9, 19320, Note_on_c, 6, 67, 49
9, 19320, Note_on_c, 6, 71, 49
9, 19320, Note_on_c, 6, 52, 49
9, 19350, Note_on_c, 6, 71, 0
9, 19350, Note_on_c, 6, 67, 0
9, 19380, Note_on_c, 6, 52, 0
9, 19380, Note_on_c, 6, 64, 49
9, 19380, Note_on_c, 6, 67, 49
9, 19380, Note_on_c, 6, 50, 49
9, 19410, Note_on_c, 6, 67, 0
9, 19410, Note_on_c, 6, 64, 0
9, 19440, Note_on_c, 6, 50, 0
9, 19440, Note_on_c, 6, 61, 49
9, 19440, Note_on_c, 6, 64, 49
9, 19440, Note_on_c, 6, 49, 49
9, 19470, Note_on_c, 6, 49, 0
9, 19470, Note_on_c, 6, 64, 0
9, 19470, Note_on_c, 6, 61, 0
9, 19500, Note_on_c, 6, 55, 49
9, 19500, Note_on_c, 6, 61, 49
9, 19500, Note_on_c, 6, 45, 49
9, 19530, Note_on_c, 6, 45, 0
9, 19530, Note_on_c, 6, 61, 0
9, 19530, Note_on_c, 6, 55, 0
9, 19740, Note_on_c, 6, 61, 49
9, 19740, Note_on_c, 6, 64, 49
9, 19740, Note_on_c, 6, 45, 49
9, 19770, Note_on_c, 6, 64, 0
9, 19770, Note_on_c, 6, 61, 0
9, 19800, Note_on_c, 6, 45, 0
9, 19800, Note_on_c, 6, 62, 49
9, 19800, Note_on_c, 6, 66, 49
9, 19800, Note_on_c, 6, 50, 49
9, 19830, Note_on_c, 6, 66, 0
9, 19830, Note_on_c, 6, 62, 0
9, 19860, Note_on_c, 6, 50, 0
9, 19860, Note_on_c, 6, 59, 49
9, 19860, Note_on_c, 6, 67, 49
9, 19860, Note_on_c, 6, 43, 49
9, 19890, Note_on_c, 6, 43, 0
9, 19890, Note_on_c, 6, 67, 0
9, 19890, Note_on_c, 6, 59, 0
9, 19920, Note_on_c, 6, 57, 49
9, 19920, Note_on_c, 6, 61, 49
9, 19920, Note_on_c, 6, 64, 49
9, 19920, Note_on_c, 6, 55, 49
9, 19950, Note_on_c, 6, 55, 0
9, 19950, Note_on_c, 6, 57, 0
9, 19950, Note_on_c, 6, 61, 0
9, 19950, Note_on_c, 6, 64, 0
9, 19980, Note_on_c, 6, 57, 49
9, 19980, Note_on_c, 6, 62, 49
9, 19980, Note_on_c, 6, 54, 49
9, 20010, Note_on_c, 6, 62, 0
9, 20010, Note_on_c, 6, 57, 0
9, 20040, Note_on_c, 6, 54, 0
9, 20040, Note_on_c, 6, 59, 49
9, 20040, Note_on_c, 6, 62, 49
9, 20040, Note_on_c, 6, 64, 49
9, 20040, Note_on_c, 6, 55, 49
9, 20070, Note_on_c, 6, 55, 0
9, 20070, Note_on_c, 6, 59, 0
9, 20070, Note_on_c, 6, 62, 0
9, 20070, Note_on_c, 6, 64, 0
9, 20100, Note_on_c, 6, 61, 49
9, 20100, Note_on_c, 6, 67, 49
9, 20100, Note_on_c, 6, 57, 49
9, 20130, Note_on_c, 6, 57, 0
9, 20130, Note_on_c, 6, 67, 0
9, 20130, Note_on_c, 6, 61, 0
9, 20160, Note_on_c, 6, 62, 49
9, 20160, Note_on_c, 6, 66, 49
9, 20160, Note_on_c, 6, 50, 49
9, 20190, Note_on_c, 6, 50, 0
9, 20220, Note_on_c, 6, 45, 49
9, 20250, Note_on_c, 6, 45, 0
9, 20280, Note_on_c, 6, 42, 88
9, 20310, Note_on_c, 6, 42, 0
9, 20340, Note_on_c, 6, 38, 88
9, 20460, Note_on_c, 6, 38, 0
9, 20460, Note_on_c, 6, 66, 0
9, 20460, Note_on_c, 6, 62, 0
9, 20640, Note_on_c, 6, 57, 88
9, 20640, Note_on_c, 6, 62, 88
9, 20640, Note_on_c, 6, 54, 88
9, 20670, Note_on_c, 6, 62, 0
9, 20670, Note_on_c, 6, 57, 0
9, 20700, Note_on_c, 6, 54, 0
9, 20700, Note_on_c, 6, 55, 88
9, 20700, Note_on_c, 6, 61, 88
9, 20700, Note_on_c, 6, 52, 88
9, 20730, Note_on_c, 6, 61, 0
9, 20730, Note_on_c, 6, 55, 0
9, 20760, Note_on_c, 6, 52, 0
9, 20760, Note_on_c, 6, 54, 88
9, 20760, Note_on_c, 6, 62, 88
9, 20760, Note_on_c, 6, 50, 88
9, 20790, Note_on_c, 6, 62, 0
9, 20790, Note_on_c, 6, 54, 0
9, 20820, Note_on_c, 6, 50, 0
9, 21000, Note_on_c, 6, 61, 88
9, 21000, Note_on_c, 6, 64, 88
9, 21000, Note_on_c, 6, 49, 88
9, 21030, Note_on_c, 6, 49, 0
9, 21030, Note_on_c, 6, 64, 0
9, 21030, Note_on_c, 6, 61, 0
9, 21060, Note_on_c, 6, 61, 88
9, 21060, Note_on_c, 6, 67, 88
9, 21060, Note_on_c, 6, 45, 88
9, 21090, Note_on_c, 6, 67, 0
9, 21090, Note_on_c, 6, 61, 0
9, 21120, Note_on_c, 6, 45, 0
9, 21120, Note_on_c, 6, 62, 88
9, 21120, Note_on_c, 6, 66, 88
9, 21120, Note_on_c, 6, 47, 88
9, 21150, Note_on_c, 6, 66, 0
9, 21150, Note_on_c, 6, 62, 0
9, 21180, Note_on_c, 6, 47, 0
9, 21180, Note_on_c, 6, 61, 88
9, 21180, Note_on_c, 6, 64, 88
9, 21180, Note_on_c, 6, 49, 88
9, 21210, Note_on_c, 6, 49, 0
9, 21210, Note_on_c, 6, 64, 0
9, 21210, Note_on_c, 6, 61, 0
9, 21240, Note_on_c, 6, 62, 88
9, 21240, Note_on_c, 6, 66, 88
9, 21240, Note_on_c, 6, 50, 88
9, 21360, Note_on_c, 6, 50, 0
9, 21360, Note_on_c, 6, 66, 0
9, 21360, Note_on_c, 6, 62, 0
9, 21360, Note_on_c, 6, 64, 88
9, 21360, Note_on_c, 6, 67, 88
9, 21360, Note_on_c, 6, 74, 88
9, 21360, Note_on_c, 6, 52, 88
9, 21390, Note_on_c, 6, 52, 0
9, 21390, Note_on_c, 6, 64, 0
9, 21390, Note_on_c, 6, 67, 0
9, 21390, Note_on_c, 6, 74, 0
9, 21420, Note_on_c, 6, 62, 88
9, 21420, Note_on_c, 6, 69, 88
9, 21420, Note_on_c, 6, 74, 88
9, 21420, Note_on_c, 6, 54, 88
9, 21540, Note_on_c, 6, 54, 0
9, 21540, Note_on_c, 6, 62, 0
9, 21540, Note_on_c, 6, 69, 0
9, 21540, Note_on_c, 6, 74, 0
9, 21540, Note_on_c, 6, 67, 88
9, 21540, Note_on_c, 6, 71, 88
9, 21540, Note_on_c, 6, 55, 88
9, 21570, Note_on_c, 6, 55, 0
9, 21570, Note_on_c, 6, 71, 0
9, 21570, Note_on_c, 6, 67, 0
9, 21600, Note_on_c, 6, 67, 88
9, 21600, Note_on_c, 6, 71, 88
9, 21600, Note_on_c, 6, 50, 88
9, 21630, Note_on_c, 6, 50, 0
9, 21630, Note_on_c, 6, 71, 0
9, 21630, Note_on_c, 6, 67, 0
9, 21660, Note_on_c, 6, 66, 88
9, 21660, Note_on_c, 6, 69, 88
9, 21660, Note_on_c, 6, 38, 88
9, 21690, Note_on_c, 6, 38, 0
9, 21690, Note_on_c, 6, 69, 0
9, 21690, Note_on_c, 6, 66, 0
9, 21900, Note_on_c, 6, 66, 75
9, 21900, Note_on_c, 6, 71, 75
9, 21900, Note_on_c, 6, 47, 75
9, 21930, Note_on_c, 6, 47, 0
9, 21930, Note_on_c, 6, 71, 0
9, 21930, Note_on_c, 6, 66, 0
9, 21960, Note_on_c, 6, 64, 75
9, 21960, Note_on_c, 6, 67, 75
9, 21960, Note_on_c, 6, 52, 75
9, 21990, Note_on_c, 6, 67, 0
9, 21990, Note_on_c, 6, 64, 0
9, 22020, Note_on_c, 6, 52, 0
9, 22020, Note_on_c, 6, 59, 75
9, 22020, Note_on_c, 6, 64, 75
9, 22020, Note_on_c, 6, 55, 75
9, 22050, Note_on_c, 6, 64, 0
9, 22050, Note_on_c, 6, 59, 0
9, 22080, Note_on_c, 6, 55, 0
9, 22080, Note_on_c, 6, 62, 75
9, 22080, Note_on_c, 6, 67, 75
9, 22080, Note_on_c, 6, 54, 75
9, 22110, Note_on_c, 6, 54, 0
9, 22110, Note_on_c, 6, 67, 0
9, 22110, Note_on_c, 6, 62, 0
9, 22140, Note_on_c, 6, 52, 75
9, 22140, Note_on_c, 6, 55, 75
9, 22140, Note_on_c, 6, 61, 75
9, 22140, Note_on_c, 6, 52, 75
9, 22170, Note_on_c, 6, 52, 0
9, 22170, Note_on_c, 6, 61, 0
9, 22170, Note_on_c, 6, 55, 0
9, 22200, Note_on_c, 6, 61, 75
9, 22200, Note_on_c, 6, 64, 75
9, 22230, Note_on_c, 6, 64, 0
9, 22230, Note_on_c, 6, 61, 0
9, 22260, Note_on_c, 6, 52, 0
9, 22260, Note_on_c, 6, 64, 88
9, 22260, Note_on_c, 6, 67, 88
9, 22260, Note_on_c, 6, 50, 88
9, 22290, Note_on_c, 6, 50, 0
9, 22290, Note_on_c, 6, 67, 0
9, 22290, Note_on_c, 6, 64, 0
9, 22320, Note_on_c, 6, 61, 88
9, 22320, Note_on_c, 6, 64, 88
9, 22320, Note_on_c, 6, 69, 88
9, 22320, Note_on_c, 6, 49, 88
9, 22380, Note_on_c, 6, 49, 0
9, 22380, Note_on_c, 6, 52, 88
9, 22440, Note_on_c, 6, 52, 0
9, 22440, Note_on_c, 6, 69, 0
9, 22440, Note_on_c, 6, 64, 0
9, 22440, Note_on_c, 6, 61, 0
9, 22440, Note_on_c, 6, 59, 88
9, 22440, Note_on_c, 6, 67, 88
9, 22440, Note_on_c, 6, 50, 88
9, 22470, Note_on_c, 6, 50, 0
9, 22470, Note_on_c, 6, 67, 0
9, 22470, Note_on_c, 6, 59, 0
9, 22500, Note_on_c, 6, 57, 88
9, 22500, Note_on_c, 6, 67, 88
9, 22500, Note_on_c, 6, 49, 88
9, 22560, Note_on_c, 6, 49, 0
9, 22560, Note_on_c, 6, 45, 88
9, 22620, Note_on_c, 6, 45, 0
9, 22620, Note_on_c, 6, 67, 0
9, 22620, Note_on_c, 6, 57, 0
9, 22620, Note_on_c, 6, 61, 88
9, 22620, Note_on_c, 6, 69, 88
9, 22620, Note_on_c, 6, 49, 88
9, 22650, Note_on_c, 6, 49, 0
9, 22650, Note_on_c, 6, 69, 0
9, 22650, Note_on_c, 6, 61, 0
9, 22680, Note_on_c, 6, 62, 88
9, 22680, Note_on_c, 6, 66, 88
9, 22680, Note_on_c, 6, 50, 88
9, 22710, Note_on_c, 6, 66, 0
9, 22710, Note_on_c, 6, 62, 0
9, 22740, Note_on_c, 6, 50, 0
9, 22740, Note_on_c, 6, 69, 88
9, 22740, Note_on_c, 6, 73, 88
9, 22740, Note_on_c, 6, 45, 88
9, 22770, Note_on_c, 6, 73, 0
9, 22770, Note_on_c, 6, 69, 0
9, 22800, Note_on_c, 6, 45, 0
9, 22800, Note_on_c, 6, 62, 88
9, 22800, Note_on_c, 6, 66, 88
9, 22800, Note_on_c, 6, 47, 88
9, 22830, Note_on_c, 6, 47, 0
9, 22830, Note_on_c, 6, 66, 0
9, 22830, Note_on_c, 6, 62, 0
9, 22860, Note_on_c, 6, 59, 88
9, 22860, Note_on_c, 6, 62, 88
9, 22860, Note_on_c, 6, 67, 88
9, 22860, Note_on_c, 6, 43, 88
9, 22890, Note_on_c, 6, 67, 0
9, 22890, Note_on_c, 6, 59, 0
9, 22890, Note_on_c, 6, 62, 0
9, 22920, Note_on_c, 6, 43, 0
9, 22920, Note_on_c, 6, 62, 88
9, 22920, Note_on_c, 6, 66, 88
9, 22920, Note_on_c, 6, 69, 88
9, 22920, Note_on_c, 6, 45, 88
9, 22950, Note_on_c, 6, 69, 0
9, 22950, Note_on_c, 6, 62, 0
9, 22950, Note_on_c, 6, 66, 0
9, 22980, Note_on_c, 6, 45, 0
9, 22980, Note_on_c, 6, 61, 88
9, 22980, Note_on_c, 6, 64, 88
9, 22980, Note_on_c, 6, 67, 88
9, 22980, Note_on_c, 6, 45, 88
9, 23010, Note_on_c, 6, 45, 0
9, 23010, Note_on_c, 6, 61, 0
9, 23010, Note_on_c, 6, 64, 0
9, 23010, Note_on_c, 6, 67, 0
9, 23040, Note_on_c, 6, 57, 88
9, 23040, Note_on_c, 6, 62, 88
9, 23040, Note_on_c, 6, 66, 88
9, 23040, Note_on_c, 6, 38, 88
9, 23070, Note_on_c, 6, 38, 0
9, 23100, Note_on_c, 6, 42, 88
9, 23130, Note_on_c, 6, 42, 0
9, 23160, Note_on_c, 6, 45, 88
9, 23190, Note_on_c, 6, 45, 0
9, 23220, Note_on_c, 6, 50, 88
9, 23250, Note_on_c, 6, 50, 0
9, 23280, Note_on_c, 6, 54, 88
9, 23310, Note_on_c, 6, 54, 0
9, 23340, Note_on_c, 6, 57, 0
9, 23340, Note_on_c, 6, 62, 0
9, 23340, Note_on_c, 6, 66, 0
9, 23340, Note_on_c, 6, 66, 49
9, 23340, Note_on_c, 6, 74, 49
9, 23340, Note_on_c, 6, 50, 49
9, 23370, Note_on_c, 6, 50, 0
9, 23400, Note_on_c, 6, 57, 49
9, 23430, Note_on_c, 6, 57, 0
9, 23430, Note_on_c, 6, 74, 0
9, 23430, Note_on_c, 6, 66, 0
9, 23460, Note_on_c, 6, 64, 49
9, 23460, Note_on_c, 6, 73, 49
9, 23460, Note_on_c, 6, 45, 49
9, 23490, Note_on_c, 6, 45, 0
9, 23490, Note_on_c, 6, 73, 0
9, 23490, Note_on_c, 6, 64, 0
9, 23640, Note_on_c, 6, 57, 49
9, 23670, Note_on_c, 6, 57, 0
9, 23700, Note_on_c, 6, 69, 49
9, 23700, Note_on_c, 6, 72, 49
9, 23700, Note_on_c, 6, 54, 49
9, 23730, Note_on_c, 6, 54, 0
9, 23760, Note_on_c, 6, 59, 49
9, 23790, Note_on_c, 6, 72, 0
9, 23790, Note_on_c, 6, 69, 0
9, 23820, Note_on_c, 6, 67, 49
9, 23820, Note_on_c, 6, 71, 49
9, 23850, Note_on_c, 6, 71, 0
9, 23850, Note_on_c, 6, 67, 0
9, 23880, Note_on_c, 6, 59, 0
9, 23880, Note_on_c, 6, 66, 49
9, 23880, Note_on_c, 6, 69, 49
9, 23880, Note_on_c, 6, 47, 49
9, 23910, Note_on_c, 6, 47, 0
9, 23910, Note_on_c, 6, 69, 0
9, 23910, Note_on_c, 6, 66, 0
9, 23940, Note_on_c, 6, 64, 49
9, 23940, Note_on_c, 6, 67, 49
9, 23940, Note_on_c, 6, 40, 49
9, 23970, Note_on_c, 6, 40, 0
9, 24000, Note_on_c, 6, 52, 49
9, 24030, Note_on_c, 6, 52, 0
9, 24060, Note_on_c, 6, 67, 0
9, 24060, Note_on_c, 6, 64, 0
9, 24060, Note_on_c, 6, 67, 49
9, 24060, Note_on_c, 6, 71, 49
9, 24060, Note_on_c, 6, 76, 49
9, 24060, Note_on_c, 6, 49, 49
9, 24090, Note_on_c, 6, 49, 0
9, 24090, Note_on_c, 6, 67, 0
9, 24090, Note_on_c, 6, 71, 0
9, 24090, Note_on_c, 6, 76, 0
9, 24120, Note_on_c, 6, 66, 49
9, 24120, Note_on_c, 6, 70, 49
9, 24120, Note_on_c, 6, 46, 49
9, 24150, Note_on_c, 6, 46, 0
9, 24150, Note_on_c, 6, 70, 0
9, 24150, Note_on_c, 6, 66, 0
9, 24180, Note_on_c, 6, 61, 49
9, 24180, Note_on_c, 6, 66, 49
9, 24180, Note_on_c, 6, 42, 49
9, 24210, Note_on_c, 6, 42, 0
9, 24210, Note_on_c, 6, 66, 0
9, 24210, Note_on_c, 6, 61, 0
9, 24240, Note_on_c, 6, 64, 49
9, 24270, Note_on_c, 6, 64, 0
9, 24300, Note_on_c, 6, 62, 49
9, 24330, Note_on_c, 6, 62, 0
9, 24360, Note_on_c, 6, 66, 49
9, 24360, Note_on_c, 6, 59, 49
9, 24390, Note_on_c, 6, 59, 0
9, 24390, Note_on_c, 6, 66, 0
9, 24420, Note_on_c, 6, 69, 49
9, 24420, Note_on_c, 6, 73, 49
9, 24420, Note_on_c, 6, 57, 49
9, 24450, Note_on_c, 6, 57, 0
9, 24450, Note_on_c, 6, 73, 0
9, 24450, Note_on_c, 6, 69, 0
9, 24480, Note_on_c, 6, 67, 49
9, 24480, Note_on_c, 6, 71, 49
9, 24480, Note_on_c, 6, 55, 49
9, 24510, Note_on_c, 6, 71, 0
9, 24510, Note_on_c, 6, 67, 0
9, 24540, Note_on_c, 6, 64, 49
9, 24540, Note_on_c, 6, 71, 49
9, 24570, Note_on_c, 6, 71, 0
9, 24570, Note_on_c, 6, 64, 0
9, 24600, Note_on_c, 6, 55, 0
9, 24600, Note_on_c, 6, 61, 49
9, 24600, Note_on_c, 6, 70, 49
9, 24600, Note_on_c, 6, 43, 49
9, 24630, Note_on_c, 6, 43, 0
9, 24630, Note_on_c, 6, 70, 0
9, 24630, Note_on_c, 6, 61, 0
9, 24660, Note_on_c, 6, 58, 49
9, 24660, Note_on_c, 6, 66, 49
9, 24660, Note_on_c, 6, 42, 49
9, 24780, Note_on_c, 6, 42, 0
9, 24780, Note_on_c, 6, 66, 0
9, 24780, Note_on_c, 6, 58, 0
9, 24960, Note_on_c, 6, 66, 49
9, 24960, Note_on_c, 6, 62, 49
9, 24990, Note_on_c, 6, 62, 0
9, 24990, Note_on_c, 6, 66, 0
9, 25020, Note_on_c, 6, 64, 49
9, 25020, Note_on_c, 6, 61, 49
9, 25050, Note_on_c, 6, 61, 0
9, 25050, Note_on_c, 6, 64, 0
9, 25080, Note_on_c, 6, 62, 49
9, 25080, Note_on_c, 6, 59, 49
9, 25110, Note_on_c, 6, 59, 0
9, 25110, Note_on_c, 6, 62, 0
9, 25320, Note_on_c, 6, 64, 49
9, 25320, Note_on_c, 6, 58, 49
9, 25350, Note_on_c, 6, 58, 0
9, 25350, Note_on_c, 6, 64, 0
9, 25380, Note_on_c, 6, 58, 49
9, 25380, Note_on_c, 6, 61, 49
9, 25380, Note_on_c, 6, 54, 49
9, 25410, Note_on_c, 6, 54, 0
9, 25410, Note_on_c, 6, 61, 0
9, 25410, Note_on_c, 6, 58, 0
9, 25440, Note_on_c, 6, 59, 49
9, 25440, Note_on_c, 6, 62, 49
9, 25440, Note_on_c, 6, 56, 49
9, 25470, Note_on_c, 6, 56, 0
9, 25470, Note_on_c, 6, 62, 0
9, 25470, Note_on_c, 6, 59, 0
9, 25500, Note_on_c, 6, 61, 49
9, 25500, Note_on_c, 6, 64, 49
9, 25500, Note_on_c, 6, 58, 49
9, 25530, Note_on_c, 6, 58, 0
9, 25530, Note_on_c, 6, 64, 0
9, 25530, Note_on_c, 6, 61, 0
9, 25560, Note_on_c, 6, 59, 49
9, 25560, Note_on_c, 6, 62, 49
9, 25560, Note_on_c, 6, 59, 49
9, 25590, Note_on_c, 6, 59, 0
9, 25590, Note_on_c, 6, 62, 0
9, 25620, Note_on_c, 6, 59, 0
9, 25620, Note_on_c, 6, 64, 49
9, 25620, Note_on_c, 6, 67, 49
9, 25620, Note_on_c, 6, 73, 49
9, 25620, Note_on_c, 6, 52, 49
9, 25650, Note_on_c, 6, 52, 0
9, 25650, Note_on_c, 6, 64, 0
9, 25650, Note_on_c, 6, 67, 0
9, 25650, Note_on_c, 6, 73, 0
9, 25680, Note_on_c, 6, 62, 49
9, 25680, Note_on_c, 6, 66, 49
9, 25680, Note_on_c, 6, 71, 49
9, 25680, Note_on_c, 6, 50, 49
9, 25740, Note_on_c, 6, 50, 0
9, 25740, Note_on_c, 6, 62, 0
9, 25740, Note_on_c, 6, 66, 0
9, 25740, Note_on_c, 6, 61, 49
9, 25740, Note_on_c, 6, 64, 49
9, 25740, Note_on_c, 6, 49, 49
9, 25800, Note_on_c, 6, 71, 0
9, 25800, Note_on_c, 6, 69, 49
9, 25830, Note_on_c, 6, 69, 0
9, 25830, Note_on_c, 6, 61, 0
9, 25830, Note_on_c, 6, 64, 0
9, 25860, Note_on_c, 6, 49, 0
9, 25860, Note_on_c, 6, 61, 49
9, 25860, Note_on_c, 6, 67, 49
9, 25860, Note_on_c, 6, 45, 49
9, 25890, Note_on_c, 6, 45, 0
9, 25890, Note_on_c, 6, 67, 0
9, 25890, Note_on_c, 6, 61, 0
9, 25920, Note_on_c, 6, 62, 49
9, 25920, Note_on_c, 6, 66, 49
9, 25920, Note_on_c, 6, 50, 49
9, 25950, Note_on_c, 6, 50, 0
9, 25950, Note_on_c, 6, 66, 0
9, 25950, Note_on_c, 6, 62, 0
9, 25980, Note_on_c, 6, 61, 49
9, 25980, Note_on_c, 6, 64, 49
9, 25980, Note_on_c, 6, 45, 49
9, 26010, Note_on_c, 6, 45, 0
9, 26010, Note_on_c, 6, 64, 0
9, 26010, Note_on_c, 6, 61, 0
9, 26220, Note_on_c, 6, 61, 49
9, 26220, Note_on_c, 6, 66, 49
9, 26220, Note_on_c, 6, 58, 49
9, 26250, Note_on_c, 6, 58, 0
9, 26250, Note_on_c, 6, 66, 0
9, 26250, Note_on_c, 6, 61, 0
9, 26280, Note_on_c, 6, 64, 49
9, 26280, Note_on_c, 6, 73, 49
9, 26280, Note_on_c, 6, 59, 49
9, 26310, Note_on_c, 6, 59, 0
9, 26310, Note_on_c, 6, 73, 0
9, 26310, Note_on_c, 6, 64, 0
9, 26340, Note_on_c, 6, 62, 49
9, 26340, Note_on_c, 6, 71, 49
9, 26340, Note_on_c, 6, 47, 49
9, 26370, Note_on_c, 6, 47, 0
9, 26370, Note_on_c, 6, 71, 0
9, 26370, Note_on_c, 6, 62, 0
9, 26580, Note_on_c, 6, 71, 49
9, 26580, Note_on_c, 6, 74, 49
9, 26580, Note_on_c, 6, 53, 49
9, 26610, Note_on_c, 6, 53, 0
9, 26610, Note_on_c, 6, 74, 0
9, 26610, Note_on_c, 6, 71, 0
9, 26640, Note_on_c, 6, 66, 49
9, 26640, Note_on_c, 6, 71, 49
9, 26640, Note_on_c, 6, 74, 49
9, 26640, Note_on_c, 6, 54, 49
9, 26730, Note_on_c, 6, 74, 0
9, 26730, Note_on_c, 6, 66, 0
9, 26730, Note_on_c, 6, 71, 0
9, 26730, Note_on_c, 6, 61, 49
9, 26730, Note_on_c, 6, 70, 49
9, 26760, Note_on_c, 6, 70, 0
9, 26760, Note_on_c, 6, 61, 0
9, 26760, Note_on_c, 6, 62, 49
9, 26760, Note_on_c, 6, 65, 49
9, 26760, Note_on_c, 6, 71, 49
9, 26790, Note_on_c, 6, 71, 0
9, 26790, Note_on_c, 6, 65, 0
9, 26790, Note_on_c, 6, 62, 0
9, 26820, Note_on_c, 6, 54, 0
9, 26820, Note_on_c, 6, 61, 49
9, 26820, Note_on_c, 6, 66, 49
9, 26820, Note_on_c, 6, 70, 49
9, 26820, Note_on_c, 6, 42, 49
9, 26940, Note_on_c, 6, 42, 0
9, 26940, Note_on_c, 6, 61, 0
9, 26940, Note_on_c, 6, 66, 0
9, 26940, Note_on_c, 6, 70, 0
9, 26940, Note_on_c, 6, 66, 49
9, 26940, Note_on_c, 6, 73, 49
9, 26940, Note_on_c, 6, 58, 49
9, 26970, Note_on_c, 6, 58, 0
9, 26970, Note_on_c, 6, 73, 0
9, 26970, Note_on_c, 6, 66, 0
9, 27000, Note_on_c, 6, 66, 49
9, 27000, Note_on_c, 6, 74, 49
9, 27000, Note_on_c, 6, 59, 49
9, 27030, Note_on_c, 6, 59, 0
9, 27030, Note_on_c, 6, 74, 0
9, 27030, Note_on_c, 6, 66, 0
9, 27060, Note_on_c, 6, 71, 49
9, 27060, Note_on_c, 6, 76, 49
9, 27060, Note_on_c, 6, 55, 49
9, 27090, Note_on_c, 6, 55, 0
9, 27090, Note_on_c, 6, 76, 0
9, 27090, Note_on_c, 6, 71, 0
9, 27180, Note_on_c, 6, 61, 49
9, 27180, Note_on_c, 6, 67, 49
9, 27180, Note_on_c, 6, 71, 49
9, 27180, Note_on_c, 6, 52, 49
9, 27210, Note_on_c, 6, 52, 0
9, 27210, Note_on_c, 6, 61, 0
9, 27210, Note_on_c, 6, 67, 0
9, 27210, Note_on_c, 6, 71, 0
9, 27240, Note_on_c, 6, 64, 49
9, 27240, Note_on_c, 6, 66, 49
9, 27240, Note_on_c, 6, 70, 49
9, 27240, Note_on_c, 6, 54, 49
9, 27270, Note_on_c, 6, 54, 0
9, 27270, Note_on_c, 6, 64, 0
9, 27270, Note_on_c, 6, 66, 0
9, 27270, Note_on_c, 6, 70, 0
9, 27360, Note_on_c, 6, 67, 49
9, 27360, Note_on_c, 6, 71, 49
9, 27360, Note_on_c, 6, 55, 49
9, 27390, Note_on_c, 6, 55, 0
9, 27390, Note_on_c, 6, 71, 0
9, 27390, Note_on_c, 6, 67, 0
9, 27420, Note_on_c, 6, 64, 49
9, 27420, Note_on_c, 6, 67, 49
9, 27420, Note_on_c, 6, 52, 49
9, 27450, Note_on_c, 6, 52, 0
9, 27450, Note_on_c, 6, 67, 0
9, 27450, Note_on_c, 6, 64, 0
9, 27540, Note_on_c, 6, 64, 49
9, 27540, Note_on_c, 6, 67, 49
9, 27540, Note_on_c, 6, 49, 49
9, 27570, Note_on_c, 6, 49, 0
9, 27570, Note_on_c, 6, 67, 0
9, 27570, Note_on_c, 6, 64, 0
9, 27600, Note_on_c, 6, 63, 49
9, 27600, Note_on_c, 6, 66, 49
9, 27600, Note_on_c, 6, 51, 49
9, 27630, Note_on_c, 6, 51, 0
9, 27630, Note_on_c, 6, 66, 0
9, 27630, Note_on_c, 6, 63, 0
9, 27720, Note_on_c, 6, 64, 49
9, 27720, Note_on_c, 6, 67, 49
9, 27720, Note_on_c, 6, 71, 49
9, 27720, Note_on_c, 6, 52, 49
9, 27750, Note_on_c, 6, 52, 0
9, 27780, Note_on_c, 6, 40, 49
9, 27810, Note_on_c, 6, 40, 0
9, 27840, Note_on_c, 6, 71, 0
9, 27840, Note_on_c, 6, 67, 0
9, 27840, Note_on_c, 6, 64, 0
9, 28080, Note_on_c, 6, 59, 49
9, 28080, Note_on_c, 6, 64, 49
9, 28080, Note_on_c, 6, 67, 49
9, 28080, Note_on_c, 6, 52, 49
9, 28110, Note_on_c, 6, 52, 0
9, 28140, Note_on_c, 6, 40, 49
9, 28170, Note_on_c, 6, 40, 0
9, 28200, Note_on_c, 6, 67, 0
9, 28200, Note_on_c, 6, 64, 0
9, 28200, Note_on_c, 6, 59, 0
9, 28440, Control_c, 6, 7, 60
9, 28440, Control_c, 6, 7, 60
9, 28440, Control_c, 6, 7, 70
9, 28445, Control_c, 6, 7, 61
9, 28445, Control_c, 6, 7, 61
9, 28446, Control_c, 6, 7, 71
9, 28450, Control_c, 6, 7, 62
9, 28450, Control_c, 6, 7, 62
9, 28452, Control_c, 6, 7, 72
9, 28456, Control_c, 6, 7, 63
9, 28456, Control_c, 6, 7, 63
9, 28458, Control_c, 6, 7, 73
9, 28461, Control_c, 6, 7, 64
9, 28461, Control_c, 6, 7, 64
9, 28465, Control_c, 6, 7, 74
9, 28466, Control_c, 6, 7, 65
9, 28466, Control_c, 6, 7, 65
9, 28471, Control_c, 6, 7, 75
9, 28472, Control_c, 6, 7, 66
9, 28472, Control_c, 6, 7, 66
9, 28477, Control_c, 6, 7, 67
9, 28477, Control_c, 6, 7, 67
9, 28477, Control_c, 6, 7, 76
9, 28483, Control_c, 6, 7, 68
9, 28483, Control_c, 6, 7, 68
9, 28484, Control_c, 6, 7, 77
9, 28488, Control_c, 6, 7, 69
9, 28488, Control_c, 6, 7, 69
9, 28490, Control_c, 6, 7, 78
9, 28493, Control_c, 6, 7, 70
9, 28493, Control_c, 6, 7, 70
9, 28496, Control_c, 6, 7, 79
9, 28499, Control_c, 6, 7, 71
9, 28499, Control_c, 6, 7, 71
9, 28500, Note_on_c, 6, 64, 88
9, 28500, Note_on_c, 6, 67, 88
9, 28500, Note_on_c, 6, 73, 88
9, 28500, Note_on_c, 6, 52, 88
9, 28503, Control_c, 6, 7, 80
9, 28504, Control_c, 6, 7, 72
9, 28504, Control_c, 6, 7, 72
9, 28509, Control_c, 6, 7, 81
9, 28509, Control_c, 6, 7, 73
9, 28509, Control_c, 6, 7, 73
9, 28515, Control_c, 6, 7, 74
9, 28515, Control_c, 6, 7, 74
9, 28515, Control_c, 6, 7, 82
9, 28520, Control_c, 6, 7, 75
9, 28520, Control_c, 6, 7, 75
9, 28522, Control_c, 6, 7, 83
9, 28526, Control_c, 6, 7, 76
9, 28526, Control_c, 6, 7, 76
9, 28528, Control_c, 6, 7, 84
9, 28530, Note_on_c, 6, 73, 0
9, 28530, Note_on_c, 6, 64, 0
9, 28530, Note_on_c, 6, 67, 0
9, 28531, Control_c, 6, 7, 77
9, 28531, Control_c, 6, 7, 77
9, 28534, Control_c, 6, 7, 85
9, 28536, Control_c, 6, 7, 78
9, 28536, Control_c, 6, 7, 78
9, 28541, Control_c, 6, 7, 86
9, 28542, Control_c, 6, 7, 79
9, 28542, Control_c, 6, 7, 79
9, 28547, Control_c, 6, 7, 87
9, 28547, Control_c, 6, 7, 80
9, 28547, Control_c, 6, 7, 80
9, 28552, Control_c, 6, 7, 81
9, 28552, Control_c, 6, 7, 81
9, 28553, Control_c, 6, 7, 88
9, 28558, Control_c, 6, 7, 82
9, 28558, Control_c, 6, 7, 82
9, 28560, Note_on_c, 6, 52, 0
9, 28560, Control_c, 6, 7, 89
9, 28560, Note_on_c, 6, 62, 88
9, 28560, Note_on_c, 6, 66, 88
9, 28560, Note_on_c, 6, 71, 88
9, 28560, Note_on_c, 6, 54, 88
9, 28563, Control_c, 6, 7, 83
9, 28563, Control_c, 6, 7, 83
9, 28566, Control_c, 6, 7, 90
9, 28568, Control_c, 6, 7, 84
9, 28568, Control_c, 6, 7, 84
9, 28572, Control_c, 6, 7, 91
9, 28574, Control_c, 6, 7, 85
9, 28574, Control_c, 6, 7, 85
9, 28578, Control_c, 6, 7, 92
9, 28579, Control_c, 6, 7, 86
9, 28579, Control_c, 6, 7, 86
9, 28585, Control_c, 6, 7, 87
9, 28585, Control_c, 6, 7, 87
9, 28585, Control_c, 6, 7, 93
9, 28590, Note_on_c, 6, 54, 0
9, 28590, Note_on_c, 6, 62, 0
9, 28590, Note_on_c, 6, 66, 0
9, 28590, Note_on_c, 6, 71, 0
9, 28590, Control_c, 6, 7, 88
9, 28590, Control_c, 6, 7, 88
9, 28591, Control_c, 6, 7, 94
9, 28595, Control_c, 6, 7, 89
9, 28595, Control_c, 6, 7, 89
9, 28597, Control_c, 6, 7, 95
9, 28601, Control_c, 6, 7, 90
9, 28601, Control_c, 6, 7, 90
9, 28604, Control_c, 6, 7, 96
9, 28606, Control_c, 6, 7, 91
9, 28606, Control_c, 6, 7, 91
9, 28610, Control_c, 6, 7, 97
9, 28611, Control_c, 6, 7, 92
9, 28611, Control_c, 6, 7, 92
9, 28616, Control_c, 6, 7, 98
9, 28617, Control_c, 6, 7, 93
9, 28617, Control_c, 6, 7, 93
9, 28620, Note_on_c, 6, 64, 88
9, 28620, Note_on_c, 6, 67, 88
9, 28620, Note_on_c, 6, 71, 88
9, 28620, Note_on_c, 6, 55, 88
9, 28622, Control_c, 6, 7, 94
9, 28622, Control_c, 6, 7, 94
9, 28623, Control_c, 6, 7, 99
9, 28628, Control_c, 6, 7, 95
9, 28628, Control_c, 6, 7, 95
9, 28629, Control_c, 6, 7, 100
9, 28633, Control_c, 6, 7, 96
9, 28633, Control_c, 6, 7, 96
9, 28635, Control_c, 6, 7, 101
9, 28638, Control_c, 6, 7, 97
9, 28638, Control_c, 6, 7, 97
9, 28642, Control_c, 6, 7, 102
9, 28644, Control_c, 6, 7, 98
9, 28644, Control_c, 6, 7, 98
9, 28648, Control_c, 6, 7, 103
9, 28649, Control_c, 6, 7, 99
9, 28649, Control_c, 6, 7, 99
9, 28650, Note_on_c, 6, 71, 0
9, 28650, Note_on_c, 6, 64, 0
9, 28650, Note_on_c, 6, 67, 0
9, 28654, Control_c, 6, 7, 104
9, 28654, Control_c, 6, 7, 100
9, 28654, Control_c, 6, 7, 100
9, 28660, Control_c, 6, 7, 101
9, 28660, Control_c, 6, 7, 101
9, 28661, Control_c, 6, 7, 105
9, 28665, Control_c, 6, 7, 102
9, 28665, Control_c, 6, 7, 102
9, 28667, Control_c, 6, 7, 106
9, 28671, Control_c, 6, 7, 103
9, 28671, Control_c, 6, 7, 103
9, 28673, Control_c, 6, 7, 107
9, 28676, Control_c, 6, 7, 104
9, 28676, Control_c, 6, 7, 104
9, 28680, Note_on_c, 6, 55, 0
9, 28680, Control_c, 6, 7, 108
9, 28680, Note_on_c, 6, 62, 88
9, 28680, Note_on_c, 6, 66, 88
9, 28680, Note_on_c, 6, 71, 88
9, 28680, Note_on_c, 6, 54, 88
9, 28681, Control_c, 6, 7, 105
9, 28681, Control_c, 6, 7, 105
9, 28686, Control_c, 6, 7, 109
9, 28687, Control_c, 6, 7, 106
9, 28687, Control_c, 6, 7, 106
9, 28692, Control_c, 6, 7, 107
9, 28692, Control_c, 6, 7, 107
9, 28692, Control_c, 6, 7, 110
9, 28697, Control_c, 6, 7, 108
9, 28697, Control_c, 6, 7, 108
9, 28698, Control_c, 6, 7, 111
9, 28703, Control_c, 6, 7, 109
9, 28703, Control_c, 6, 7, 109
9, 28705, Control_c, 6, 7, 112
9, 28708, Control_c, 6, 7, 110
9, 28708, Control_c, 6, 7, 110
9, 28710, Note_on_c, 6, 71, 0
9, 28710, Note_on_c, 6, 62, 0
9, 28710, Note_on_c, 6, 66, 0
9, 28711, Control_c, 6, 7, 113
9, 28713, Control_c, 6, 7, 111
9, 28713, Control_c, 6, 7, 111
9, 28717, Control_c, 6, 7, 114
9, 28719, Control_c, 6, 7, 112
9, 28719, Control_c, 6, 7, 112
9, 28724, Control_c, 6, 7, 115
9, 28724, Control_c, 6, 7, 113
9, 28724, Control_c, 6, 7, 113
9, 28730, Control_c, 6, 7, 114
9, 28730, Control_c, 6, 7, 114
9, 28730, Control_c, 6, 7, 116
9, 28735, Control_c, 6, 7, 115
9, 28735, Control_c, 6, 7, 115
9, 28736, Control_c, 6, 7, 117
9, 28740, Note_on_c, 6, 54, 0
9, 28740, Note_on_c, 6, 61, 88
9, 28740, Note_on_c, 6, 64, 88
9, 28740, Note_on_c, 6, 67, 88
9, 28740, Note_on_c, 6, 52, 88
9, 28740, Control_c, 6, 7, 116
9, 28740, Control_c, 6, 7, 116
9, 28743, Control_c, 6, 7, 118
9, 28746, Control_c, 6, 7, 117
9, 28746, Control_c, 6, 7, 117
9, 28749, Control_c, 6, 7, 119
9, 28751, Control_c, 6, 7, 118
9, 28751, Control_c, 6, 7, 118
9, 28755, Control_c, 6, 7, 120
9, 28756, Control_c, 6, 7, 119
9, 28756, Control_c, 6, 7, 119
9, 28762, Control_c, 6, 7, 121
9, 28762, Control_c, 6, 7, 120
9, 28762, Control_c, 6, 7, 120
9, 28767, Control_c, 6, 7, 121
9, 28767, Control_c, 6, 7, 121
9, 28768, Control_c, 6, 7, 122
9, 28770, Note_on_c, 6, 52, 0
9, 28770, Note_on_c, 6, 61, 0
9, 28770, Note_on_c, 6, 64, 0
9, 28770, Note_on_c, 6, 67, 0
9, 28773, Control_c, 6, 7, 122
9, 28773, Control_c, 6, 7, 122
9, 28774, Control_c, 6, 7, 123
9, 28778, Control_c, 6, 7, 123
9, 28778, Control_c, 6, 7, 123
9, 28781, Control_c, 6, 7, 124
9, 28783, Control_c, 6, 7, 124
9, 28783, Control_c, 6, 7, 124
9, 28787, Control_c, 6, 7, 125
9, 28789, Control_c, 6, 7, 125
9, 28789, Control_c, 6, 7, 125
9, 28793, Control_c, 6, 7, 126
9, 28794, Control_c, 6, 7, 126
9, 28794, Control_c, 6, 7, 126
9, 28800, Note_on_c, 6, 58, 88
9, 28800, Note_on_c, 6, 61, 88
9, 28800, Note_on_c, 6, 66, 88
9, 28800, Note_on_c, 6, 58, 88
9, 28830, Note_on_c, 6, 58, 0
9, 28830, Note_on_c, 6, 58, 0
9, 28830, Note_on_c, 6, 61, 0
9, 28830, Note_on_c, 6, 66, 0
9, 29040, Note_on_c, 6, 66, 75
9, 29040, Note_on_c, 6, 76, 75
9, 29040, Note_on_c, 6, 54, 75
9, 29070, Note_on_c, 6, 54, 0
9, 29070, Note_on_c, 6, 76, 0
9, 29070, Note_on_c, 6, 66, 0
9, 29100, Note_on_c, 6, 66, 75
9, 29100, Note_on_c, 6, 73, 75
9, 29100, Note_on_c, 6, 58, 75
9, 29130, Note_on_c, 6, 58, 0
9, 29130, Note_on_c, 6, 73, 0
9, 29130, Note_on_c, 6, 66, 0
9, 29160, Note_on_c, 6, 71, 75
9, 29160, Note_on_c, 6, 74, 75
9, 29160, Note_on_c, 6, 47, 75
9, 29190, Note_on_c, 6, 74, 0
9, 29190, Note_on_c, 6, 71, 0
9, 29220, Note_on_c, 6, 47, 0
9, 29220, Note_on_c, 6, 70, 75
9, 29220, Note_on_c, 6, 76, 75
9, 29220, Note_on_c, 6, 49, 75
9, 29250, Note_on_c, 6, 49, 0
9, 29250, Note_on_c, 6, 76, 0
9, 29250, Note_on_c, 6, 70, 0
9, 29280, Note_on_c, 6, 71, 75
9, 29280, Note_on_c, 6, 74, 75
9, 29280, Note_on_c, 6, 50, 75
9, 29310, Note_on_c, 6, 50, 0
9, 29310, Note_on_c, 6, 74, 0
9, 29310, Note_on_c, 6, 71, 0
9, 29340, Note_on_c, 6, 67, 75
9, 29340, Note_on_c, 6, 71, 75
9, 29340, Note_on_c, 6, 52, 75
9, 29370, Note_on_c, 6, 71, 0
9, 29370, Note_on_c, 6, 67, 0
9, 29400, Note_on_c, 6, 52, 0
9, 29400, Note_on_c, 6, 61, 75
9, 29400, Note_on_c, 6, 70, 75
9, 29400, Note_on_c, 6, 49, 75
9, 29430, Note_on_c, 6, 49, 0
9, 29430, Note_on_c, 6, 70, 0
9, 29430, Note_on_c, 6, 61, 0
9, 29460, Note_on_c, 6, 59, 75
9, 29460, Note_on_c, 6, 66, 75
9, 29460, Note_on_c, 6, 71, 75
9, 29460, Note_on_c, 6, 50, 75
9, 29490, Note_on_c, 6, 50, 0
9, 29490, Note_on_c, 6, 59, 0
9, 29490, Note_on_c, 6, 66, 0
9, 29490, Note_on_c, 6, 71, 0
9, 29520, Note_on_c, 6, 62, 75
9, 29520, Note_on_c, 6, 66, 75
9, 29520, Note_on_c, 6, 47, 75
9, 29550, Note_on_c, 6, 47, 0
9, 29580, Note_on_c, 6, 54, 75
9, 29610, Note_on_c, 6, 54, 0
9, 29640, Note_on_c, 6, 66, 0
9, 29640, Note_on_c, 6, 62, 0
9, 29640, Note_on_c, 6, 61, 75
9, 29640, Note_on_c, 6, 64, 75
9, 29640, Note_on_c, 6, 42, 75
9, 29670, Note_on_c, 6, 42, 0
9, 29670, Note_on_c, 6, 64, 0
9, 29670, Note_on_c, 6, 61, 0
9, 29700, Note_on_c, 6, 59, 75
9, 29700, Note_on_c, 6, 62, 75
9, 29700, Note_on_c, 6, 47, 75
9, 29730, Note_on_c, 6, 47, 0
9, 29760, Note_on_c, 6, 59, 75
9, 29790, Note_on_c, 6, 59, 0
9, 29820, Note_on_c, 6, 62, 0
9, 29820, Note_on_c, 6, 59, 0
9, 29820, Note_on_c, 6, 59, 88
9, 29820, Note_on_c, 6, 63, 88
9, 29820, Note_on_c, 6, 57, 88
9, 29850, Note_on_c, 6, 57, 0
9, 29850, Note_on_c, 6, 63, 0
9, 29850, Note_on_c, 6, 59, 0
9, 29880, Note_on_c, 6, 59, 88
9, 29880, Note_on_c, 6, 64, 88
9, 29880, Note_on_c, 6, 55, 88
9, 29910, Note_on_c, 6, 64, 0
9, 29910, Note_on_c, 6, 59, 0
9, 29940, Note_on_c, 6, 67, 88
9, 29940, Note_on_c, 6, 71, 88
9, 29940, Note_on_c, 6, 76, 88
9, 29970, Note_on_c, 6, 76, 0
9, 29970, Note_on_c, 6, 71, 0
9, 29970, Note_on_c, 6, 67, 0
9, 30000, Note_on_c, 6, 64, 88
9, 30000, Note_on_c, 6, 67, 88
9, 30000, Note_on_c, 6, 73, 88
9, 30030, Note_on_c, 6, 73, 0
9, 30030, Note_on_c, 6, 67, 0
9, 30030, Note_on_c, 6, 64, 0
9, 30060, Note_on_c, 6, 61, 88
9, 30060, Note_on_c, 6, 64, 88
9, 30060, Note_on_c, 6, 70, 88
9, 30090, Note_on_c, 6, 70, 0
9, 30090, Note_on_c, 6, 55, 0
9, 30090, Note_on_c, 6, 61, 0
9, 30090, Note_on_c, 6, 64, 0
9, 30120, Note_on_c, 6, 58, 88
9, 30120, Note_on_c, 6, 61, 88
9, 30120, Note_on_c, 6, 64, 88
9, 30120, Note_on_c, 6, 67, 88
9, 30120, Note_on_c, 6, 52, 88
9, 30150, Note_on_c, 6, 52, 0
9, 30150, Note_on_c, 6, 64, 0
9, 30150, Note_on_c, 6, 58, 0
9, 30150, Note_on_c, 6, 61, 0
9, 30150, Note_on_c, 6, 67, 0
9, 30180, Note_on_c, 6, 58, 88
9, 30180, Note_on_c, 6, 61, 88
9, 30180, Note_on_c, 6, 64, 88
9, 30180, Note_on_c, 6, 49, 88
9, 30210, Note_on_c, 6, 49, 0
9, 30210, Note_on_c, 6, 58, 0
9, 30210, Note_on_c, 6, 61, 0
9, 30210, Note_on_c, 6, 64, 0
9, 30240, Note_on_c, 6, 58, 88
9, 30240, Note_on_c, 6, 61, 88
9, 30240, Note_on_c, 6, 66, 88
9, 30240, Note_on_c, 6, 46, 88
9, 30270, Note_on_c, 6, 46, 0
9, 30270, Note_on_c, 6, 58, 0
9, 30270, Note_on_c, 6, 61, 0
9, 30270, Note_on_c, 6, 66, 0
9, 30300, Note_on_c, 6, 61, 88
9, 30300, Note_on_c, 6, 66, 88
9, 30300, Note_on_c, 6, 70, 88
9, 30300, Note_on_c, 6, 49, 88
9, 30330, Note_on_c, 6, 49, 0
9, 30330, Note_on_c, 6, 61, 0
9, 30330, Note_on_c, 6, 66, 0
9, 30330, Note_on_c, 6, 70, 0
9, 30420, Note_on_c, 6, 58, 88
9, 30420, Note_on_c, 6, 61, 88
9, 30420, Note_on_c, 6, 67, 88
9, 30420, Note_on_c, 6, 42, 88
9, 30450, Note_on_c, 6, 42, 0
9, 30450, Note_on_c, 6, 58, 0
9, 30450, Note_on_c, 6, 61, 0
9, 30450, Note_on_c, 6, 67, 0
9, 30480, Note_on_c, 6, 54, 88
9, 30480, Note_on_c, 6, 58, 88
9, 30480, Note_on_c, 6, 64, 88
9, 30480, Note_on_c, 6, 46, 88
9, 30510, Note_on_c, 6, 46, 0
9, 30510, Note_on_c, 6, 54, 0
9, 30510, Note_on_c, 6, 58, 0
9, 30510, Note_on_c, 6, 64, 0
9, 30600, Note_on_c, 6, 59, 88
9, 30600, Note_on_c, 6, 62, 88
9, 30600, Note_on_c, 6, 47, 88
9, 30630, Note_on_c, 6, 47, 0
9, 30630, Note_on_c, 6, 62, 0
9, 30630, Note_on_c, 6, 59, 0
9, 30660, Note_on_c, 6, 64, 88
9, 30660, Note_on_c, 6, 67, 88
9, 30660, Note_on_c, 6, 71, 88
9, 30660, Note_on_c, 6, 55, 88
9, 30690, Note_on_c, 6, 55, 0
9, 30690, Note_on_c, 6, 64, 0
9, 30690, Note_on_c, 6, 67, 0
9, 30690, Note_on_c, 6, 71, 0
9, 30720, Note_on_c, 6, 59, 88
9, 30720, Note_on_c, 6, 62, 88
9, 30720, Note_on_c, 6, 66, 88
9, 30720, Note_on_c, 6, 50, 88
9, 30750, Note_on_c, 6, 50, 0
9, 30750, Note_on_c, 6, 59, 0
9, 30750, Note_on_c, 6, 62, 0
9, 30750, Note_on_c, 6, 66, 0
9, 30780, Note_on_c, 6, 59, 88
9, 30780, Note_on_c, 6, 61, 88
9, 30780, Note_on_c, 6, 52, 88
9, 30810, Note_on_c, 6, 52, 0
9, 30810, Note_on_c, 6, 61, 0
9, 30810, Note_on_c, 6, 59, 0
9, 30840, Note_on_c, 6, 59, 88
9, 30840, Note_on_c, 6, 62, 88
9, 30840, Note_on_c, 6, 54, 88
9, 30870, Note_on_c, 6, 54, 0
9, 30870, Note_on_c, 6, 62, 0
9, 30870, Note_on_c, 6, 59, 0
9, 30900, Note_on_c, 6, 54, 88
9, 30900, Note_on_c, 6, 58, 88
9, 30900, Note_on_c, 6, 42, 88
9, 30930, Note_on_c, 6, 42, 0
9, 30930, Note_on_c, 6, 58, 0
9, 30930, Note_on_c, 6, 54, 0
9, 30960, Note_on_c, 6, 50, 88
9, 30960, Note_on_c, 6, 54, 88
9, 30960, Note_on_c, 6, 59, 88
9, 30960, Note_on_c, 6, 47, 88
9, 31320, Note_on_c, 6, 47, 0
9, 31320, Note_on_c, 6, 50, 0
9, 31320, Note_on_c, 6, 54, 0
9, 31320, Note_on_c, 6, 59, 0
9, 31680, End_track
0, 0, End_of_file
