0, 0, Header, 1, 9, 1024
1, 0, Start_track
1, 0, Time_signature, 3, 2, 24, 8
1, 0, Key_signature, -3, "major"
1, 0, Tempo, 681818
1, 629760, End_track
2, 0, Start_track
2, 0, Title_t, "Instrument 1"
2, 49152, Note_on_c, 0, 63, 96
2, 49152, Note_on_c, 0, 63, 96
2, 52224, Note_off_c, 0, 63, 0
2, 52224, Note_off_c, 0, 63, 0
2, 52224, Note_on_c, 0, 67, 96
2, 52224, Note_on_c, 0, 67, 96
2, 55296, Note_off_c, 0, 67, 0
2, 55296, Note_off_c, 0, 67, 0
2, 55296, Note_on_c, 0, 70, 96
2, 55296, Note_on_c, 0, 70, 96
2, 58368, Note_off_c, 0, 70, 0
2, 58368, Note_off_c, 0, 70, 0
2, 58368, Note_on_c, 0, 70, 96
2, 58368, Note_on_c, 0, 70, 96
2, 61440, Note_off_c, 0, 70, 0
2, 61440, Note_off_c, 0, 70, 0
2, 61440, Note_on_c, 0, 70, 96
2, 61440, Note_on_c, 0, 70, 96
2, 64512, Note_off_c, 0, 70, 0
2, 64512, Note_off_c, 0, 70, 0
2, 64512, Note_on_c, 0, 70, 96
2, 64512, Note_on_c, 0, 70, 96
2, 67584, Note_off_c, 0, 70, 0
2, 67584, Note_off_c, 0, 70, 0
2, 67584, Note_on_c, 0, 72, 96
2, 67584, Note_on_c, 0, 72, 96
2, 73728, Note_off_c, 0, 72, 0
2, 73728, Note_off_c, 0, 72, 0
2, 73728, Note_on_c, 0, 70, 96
2, 73728, Note_on_c, 0, 70, 96
2, 79872, Note_off_c, 0, 70, 0
2, 79872, Note_off_c, 0, 70, 0
2, 86016, Note_on_c, 0, 70, 96
2, 86016, Note_on_c, 0, 70, 96
2, 89088, Note_off_c, 0, 70, 0
2, 89088, Note_off_c, 0, 70, 0
2, 89088, Note_on_c, 0, 75, 96
2, 89088, Note_on_c, 0, 75, 96
2, 92160, Note_off_c, 0, 75, 0
2, 92160, Note_off_c, 0, 75, 0
2, 92160, Note_on_c, 0, 70, 96
2, 92160, Note_on_c, 0, 70, 96
2, 95232, Note_off_c, 0, 70, 0
2, 95232, Note_off_c, 0, 70, 0
2, 95232, Note_on_c, 0, 75, 96
2, 95232, Note_on_c, 0, 75, 96
2, 98304, Note_off_c, 0, 75, 0
2, 98304, Note_off_c, 0, 75, 0
2, 98304, Note_on_c, 0, 79, 96
2, 98304, Note_on_c, 0, 79, 96
2, 101376, Note_off_c, 0, 79, 0
2, 101376, Note_off_c, 0, 79, 0
2, 101376, Note_on_c, 0, 77, 96
2, 101376, Note_on_c, 0, 77, 96
2, 104448, Note_off_c, 0, 77, 0
2, 104448, Note_off_c, 0, 77, 0
2, 104448, Note_on_c, 0, 75, 96
2, 104448, Note_on_c, 0, 75, 96
2, 107520, Note_off_c, 0, 75, 0
2, 107520, Note_off_c, 0, 75, 0
2, 107520, Note_on_c, 0, 74, 96
2, 107520, Note_on_c, 0, 74, 96
2, 110592, Note_off_c, 0, 74, 0
2, 110592, Note_off_c, 0, 74, 0
2, 110592, Note_on_c, 0, 72, 96
2, 110592, Note_on_c, 0, 72, 96
2, 113664, Note_off_c, 0, 72, 0
2, 113664, Note_off_c, 0, 72, 0
2, 113664, Note_on_c, 0, 70, 96
2, 113664, Note_on_c, 0, 70, 96
2, 119808, Note_off_c, 0, 70, 0
2, 119808, Note_off_c, 0, 70, 0
2, 129024, Note_on_c, 0, 70, 96
2, 129024, Note_on_c, 0, 70, 96
2, 132096, Note_off_c, 0, 70, 0
2, 132096, Note_off_c, 0, 70, 0
2, 132096, Note_on_c, 0, 75, 96
2, 132096, Note_on_c, 0, 75, 96
2, 135168, Note_off_c, 0, 75, 0
2, 135168, Note_off_c, 0, 75, 0
2, 135168, Note_on_c, 0, 70, 96
2, 135168, Note_on_c, 0, 70, 96
2, 138240, Note_off_c, 0, 70, 0
2, 138240, Note_off_c, 0, 70, 0
2, 138240, Note_on_c, 0, 72, 96
2, 138240, Note_on_c, 0, 72, 96
2, 141312, Note_off_c, 0, 72, 0
2, 141312, Note_off_c, 0, 72, 0
2, 141312, Note_on_c, 0, 67, 96
2, 141312, Note_on_c, 0, 67, 96
2, 144384, Note_off_c, 0, 67, 0
2, 144384, Note_off_c, 0, 67, 0
2, 144384, Note_on_c, 0, 68, 96
2, 144384, Note_on_c, 0, 68, 96
2, 147456, Note_off_c, 0, 68, 0
2, 147456, Note_off_c, 0, 68, 0
2, 147456, Note_on_c, 0, 65, 96
2, 147456, Note_on_c, 0, 65, 96
2, 150528, Note_off_c, 0, 65, 0
2, 150528, Note_off_c, 0, 65, 0
2, 150528, Note_on_c, 0, 63, 96
2, 150528, Note_on_c, 0, 63, 96
2, 162816, Note_off_c, 0, 63, 0
2, 162816, Note_off_c, 0, 63, 0
2, 208896, Note_on_c, 0, 63, 96
2, 208896, Note_on_c, 0, 63, 96
2, 211968, Note_off_c, 0, 63, 0
2, 211968, Note_off_c, 0, 63, 0
2, 211968, Note_on_c, 0, 67, 96
2, 211968, Note_on_c, 0, 67, 96
2, 215040, Note_off_c, 0, 67, 0
2, 215040, Note_off_c, 0, 67, 0
2, 215040, Note_on_c, 0, 70, 96
2, 215040, Note_on_c, 0, 70, 96
2, 218112, Note_off_c, 0, 70, 0
2, 218112, Note_off_c, 0, 70, 0
2, 218112, Note_on_c, 0, 70, 96
2, 218112, Note_on_c, 0, 70, 96
2, 221184, Note_off_c, 0, 70, 0
2, 221184, Note_off_c, 0, 70, 0
2, 221184, Note_on_c, 0, 70, 96
2, 221184, Note_on_c, 0, 70, 96
2, 224256, Note_off_c, 0, 70, 0
2, 224256, Note_off_c, 0, 70, 0
2, 224256, Note_on_c, 0, 70, 96
2, 224256, Note_on_c, 0, 70, 96
2, 227328, Note_off_c, 0, 70, 0
2, 227328, Note_off_c, 0, 70, 0
2, 227328, Note_on_c, 0, 72, 96
2, 227328, Note_on_c, 0, 72, 96
2, 233472, Note_off_c, 0, 72, 0
2, 233472, Note_off_c, 0, 72, 0
2, 233472, Note_on_c, 0, 70, 96
2, 233472, Note_on_c, 0, 70, 96
2, 239616, Note_off_c, 0, 70, 0
2, 239616, Note_off_c, 0, 70, 0
2, 245760, Note_on_c, 0, 70, 96
2, 245760, Note_on_c, 0, 70, 96
2, 248832, Note_off_c, 0, 70, 0
2, 248832, Note_off_c, 0, 70, 0
2, 248832, Note_on_c, 0, 75, 96
2, 248832, Note_on_c, 0, 75, 96
2, 251904, Note_off_c, 0, 75, 0
2, 251904, Note_off_c, 0, 75, 0
2, 251904, Note_on_c, 0, 70, 96
2, 251904, Note_on_c, 0, 70, 96
2, 254976, Note_off_c, 0, 70, 0
2, 254976, Note_off_c, 0, 70, 0
2, 254976, Note_on_c, 0, 75, 96
2, 254976, Note_on_c, 0, 75, 96
2, 258048, Note_off_c, 0, 75, 0
2, 258048, Note_off_c, 0, 75, 0
2, 258048, Note_on_c, 0, 79, 96
2, 258048, Note_on_c, 0, 79, 96
2, 261120, Note_off_c, 0, 79, 0
2, 261120, Note_off_c, 0, 79, 0
2, 261120, Note_on_c, 0, 77, 96
2, 261120, Note_on_c, 0, 77, 96
2, 264192, Note_off_c, 0, 77, 0
2, 264192, Note_off_c, 0, 77, 0
2, 264192, Note_on_c, 0, 75, 96
2, 264192, Note_on_c, 0, 75, 96
2, 267264, Note_off_c, 0, 75, 0
2, 267264, Note_off_c, 0, 75, 0
2, 267264, Note_on_c, 0, 74, 96
2, 267264, Note_on_c, 0, 74, 96
2, 270336, Note_off_c, 0, 74, 0
2, 270336, Note_off_c, 0, 74, 0
2, 270336, Note_on_c, 0, 72, 96
2, 270336, Note_on_c, 0, 72, 96
2, 273408, Note_off_c, 0, 72, 0
2, 273408, Note_off_c, 0, 72, 0
2, 273408, Note_on_c, 0, 70, 96
2, 273408, Note_on_c, 0, 70, 96
2, 279552, Note_off_c, 0, 70, 0
2, 279552, Note_off_c, 0, 70, 0
2, 288768, Note_on_c, 0, 70, 96
2, 288768, Note_on_c, 0, 70, 96
2, 291840, Note_off_c, 0, 70, 0
2, 291840, Note_off_c, 0, 70, 0
2, 291840, Note_on_c, 0, 75, 96
2, 291840, Note_on_c, 0, 75, 96
2, 294912, Note_off_c, 0, 75, 0
2, 294912, Note_off_c, 0, 75, 0
2, 294912, Note_on_c, 0, 70, 96
2, 294912, Note_on_c, 0, 70, 96
2, 297984, Note_off_c, 0, 70, 0
2, 297984, Note_off_c, 0, 70, 0
2, 297984, Note_on_c, 0, 72, 96
2, 297984, Note_on_c, 0, 72, 96
2, 301056, Note_off_c, 0, 72, 0
2, 301056, Note_off_c, 0, 72, 0
2, 301056, Note_on_c, 0, 67, 96
2, 301056, Note_on_c, 0, 67, 96
2, 304128, Note_off_c, 0, 67, 0
2, 304128, Note_off_c, 0, 67, 0
2, 304128, Note_on_c, 0, 68, 96
2, 304128, Note_on_c, 0, 68, 96
2, 307200, Note_off_c, 0, 68, 0
2, 307200, Note_off_c, 0, 68, 0
2, 307200, Note_on_c, 0, 65, 96
2, 307200, Note_on_c, 0, 65, 96
2, 310272, Note_off_c, 0, 65, 0
2, 310272, Note_off_c, 0, 65, 0
2, 310272, Note_on_c, 0, 63, 96
2, 310272, Note_on_c, 0, 63, 96
2, 322560, Note_off_c, 0, 63, 0
2, 322560, Note_off_c, 0, 63, 0
2, 359424, Note_on_c, 0, 70, 96
2, 359424, Note_on_c, 0, 70, 96
2, 362496, Note_off_c, 0, 70, 0
2, 362496, Note_off_c, 0, 70, 0
2, 362496, Note_on_c, 0, 70, 96
2, 362496, Note_on_c, 0, 70, 96
2, 365568, Note_off_c, 0, 70, 0
2, 365568, Note_off_c, 0, 70, 0
2, 365568, Note_on_c, 0, 68, 96
2, 365568, Note_on_c, 0, 68, 96
2, 368640, Note_off_c, 0, 68, 0
2, 368640, Note_off_c, 0, 68, 0
2, 368640, Note_on_c, 0, 67, 96
2, 368640, Note_on_c, 0, 67, 96
2, 371712, Note_off_c, 0, 67, 0
2, 371712, Note_off_c, 0, 67, 0
2, 371712, Note_on_c, 0, 65, 96
2, 371712, Note_on_c, 0, 65, 96
2, 374784, Note_off_c, 0, 65, 0
2, 374784, Note_off_c, 0, 65, 0
2, 374784, Note_on_c, 0, 63, 96
2, 374784, Note_on_c, 0, 63, 96
2, 378880, Note_off_c, 0, 63, 0
2, 378880, Note_off_c, 0, 63, 0
2, 390144, Note_on_c, 0, 70, 96
2, 390144, Note_on_c, 0, 70, 96
2, 393216, Note_off_c, 0, 70, 0
2, 393216, Note_off_c, 0, 70, 0
2, 393216, Note_on_c, 0, 70, 96
2, 393216, Note_on_c, 0, 70, 96
2, 396288, Note_off_c, 0, 70, 0
2, 396288, Note_off_c, 0, 70, 0
2, 396288, Note_on_c, 0, 68, 96
2, 396288, Note_on_c, 0, 68, 96
2, 399360, Note_off_c, 0, 68, 0
2, 399360, Note_off_c, 0, 68, 0
2, 399360, Note_on_c, 0, 67, 96
2, 399360, Note_on_c, 0, 67, 96
2, 402432, Note_off_c, 0, 67, 0
2, 402432, Note_off_c, 0, 67, 0
2, 402432, Note_on_c, 0, 65, 96
2, 402432, Note_on_c, 0, 65, 96
2, 405504, Note_off_c, 0, 65, 0
2, 405504, Note_off_c, 0, 65, 0
2, 405504, Note_on_c, 0, 63, 96
2, 405504, Note_on_c, 0, 63, 96
2, 409600, Note_off_c, 0, 63, 0
2, 409600, Note_off_c, 0, 63, 0
2, 457728, Note_on_c, 0, 65, 96
2, 457728, Note_on_c, 0, 65, 96
2, 460800, Note_off_c, 0, 65, 0
2, 460800, Note_off_c, 0, 65, 0
2, 460800, Note_on_c, 0, 67, 96
2, 460800, Note_on_c, 0, 67, 96
2, 463872, Note_off_c, 0, 67, 0
2, 463872, Note_off_c, 0, 67, 0
2, 463872, Note_on_c, 0, 68, 96
2, 463872, Note_on_c, 0, 68, 96
2, 470016, Note_off_c, 0, 68, 0
2, 470016, Note_off_c, 0, 68, 0
2, 470016, Note_on_c, 0, 67, 96
2, 470016, Note_on_c, 0, 67, 96
2, 479232, Note_off_c, 0, 67, 0
2, 479232, Note_off_c, 0, 67, 0
2, 491520, Note_on_c, 0, 70, 96
2, 491520, Note_on_c, 0, 70, 96
2, 494592, Note_off_c, 0, 70, 0
2, 494592, Note_off_c, 0, 70, 0
2, 494592, Note_on_c, 0, 72, 96
2, 494592, Note_on_c, 0, 72, 96
2, 497664, Note_off_c, 0, 72, 0
2, 497664, Note_off_c, 0, 72, 0
2, 497664, Note_on_c, 0, 74, 96
2, 497664, Note_on_c, 0, 74, 96
2, 500736, Note_off_c, 0, 74, 0
2, 500736, Note_off_c, 0, 74, 0
2, 500736, Note_on_c, 0, 75, 96
2, 500736, Note_on_c, 0, 75, 96
2, 506880, Note_off_c, 0, 75, 0
2, 506880, Note_off_c, 0, 75, 0
2, 519168, Note_on_c, 0, 75, 96
2, 519168, Note_on_c, 0, 75, 96
2, 522240, Note_off_c, 0, 75, 0
2, 522240, Note_off_c, 0, 75, 0
2, 522240, Note_on_c, 0, 79, 96
2, 522240, Note_on_c, 0, 79, 96
2, 525312, Note_off_c, 0, 79, 0
2, 525312, Note_off_c, 0, 79, 0
2, 525312, Note_on_c, 0, 77, 96
2, 525312, Note_on_c, 0, 77, 96
2, 528384, Note_off_c, 0, 77, 0
2, 528384, Note_off_c, 0, 77, 0
2, 528384, Note_on_c, 0, 75, 96
2, 528384, Note_on_c, 0, 75, 96
2, 534528, Note_off_c, 0, 75, 0
2, 534528, Note_off_c, 0, 75, 0
2, 546816, Note_on_c, 0, 70, 96
2, 546816, Note_on_c, 0, 70, 96
2, 549888, Note_off_c, 0, 70, 0
2, 549888, Note_off_c, 0, 70, 0
2, 549888, Note_on_c, 0, 75, 96
2, 549888, Note_on_c, 0, 75, 96
2, 552960, Note_off_c, 0, 75, 0
2, 552960, Note_off_c, 0, 75, 0
2, 552960, Note_on_c, 0, 70, 96
2, 552960, Note_on_c, 0, 70, 96
2, 556032, Note_off_c, 0, 70, 0
2, 556032, Note_off_c, 0, 70, 0
2, 556032, Note_on_c, 0, 72, 96
2, 556032, Note_on_c, 0, 72, 96
2, 559104, Note_off_c, 0, 72, 0
2, 559104, Note_off_c, 0, 72, 0
2, 559104, Note_on_c, 0, 67, 96
2, 559104, Note_on_c, 0, 67, 96
2, 562176, Note_off_c, 0, 67, 0
2, 562176, Note_off_c, 0, 67, 0
2, 562176, Note_on_c, 0, 68, 96
2, 562176, Note_on_c, 0, 68, 96
2, 565248, Note_off_c, 0, 68, 0
2, 565248, Note_off_c, 0, 68, 0
2, 565248, Note_on_c, 0, 65, 96
2, 565248, Note_on_c, 0, 65, 96
2, 568320, Note_off_c, 0, 65, 0
2, 568320, Note_off_c, 0, 65, 0
2, 568320, Note_on_c, 0, 63, 96
2, 568320, Note_on_c, 0, 63, 96
2, 579584, Note_off_c, 0, 63, 0
2, 579584, Note_off_c, 0, 63, 0
2, 629760, End_track
3, 0, Start_track
3, 0, Title_t, "Instrument 2"
3, 56320, Note_on_c, 1, 58, 96
3, 56832, Note_off_c, 1, 58, 0
3, 56832, Note_on_c, 1, 60, 96
3, 57344, Note_off_c, 1, 60, 0
3, 57344, Note_on_c, 1, 62, 96
3, 57856, Note_off_c, 1, 62, 0
3, 57856, Note_on_c, 1, 58, 96
3, 58368, Note_off_c, 1, 58, 0
3, 58368, Note_on_c, 1, 63, 96
3, 59392, Note_off_c, 1, 63, 0
3, 59392, Note_on_c, 1, 70, 96
3, 60416, Note_off_c, 1, 70, 0
3, 60416, Note_on_c, 1, 63, 96
3, 61440, Note_off_c, 1, 63, 0
3, 61440, Note_on_c, 1, 65, 96
3, 62464, Note_off_c, 1, 65, 0
3, 62464, Note_on_c, 1, 68, 96
3, 64512, Note_off_c, 1, 68, 0
3, 65536, Note_on_c, 1, 67, 96
3, 66048, Note_off_c, 1, 67, 0
3, 66048, Note_on_c, 1, 65, 96
3, 66560, Note_off_c, 1, 65, 0
3, 66560, Note_on_c, 1, 63, 96
3, 67072, Note_off_c, 1, 63, 0
3, 67072, Note_on_c, 1, 62, 96
3, 67584, Note_off_c, 1, 62, 0
3, 67584, Note_on_c, 1, 67, 96
3, 68096, Note_off_c, 1, 67, 0
3, 68096, Note_on_c, 1, 65, 96
3, 68608, Note_off_c, 1, 65, 0
3, 68608, Note_on_c, 1, 63, 96
3, 69120, Note_off_c, 1, 63, 0
3, 69120, Note_on_c, 1, 62, 96
3, 69632, Note_off_c, 1, 62, 0
3, 69632, Note_on_c, 1, 60, 96
3, 70144, Note_off_c, 1, 60, 0
3, 70144, Note_on_c, 1, 58, 96
3, 70656, Note_off_c, 1, 58, 0
3, 70656, Note_on_c, 1, 65, 96
3, 71680, Note_off_c, 1, 65, 0
3, 71680, Note_on_c, 1, 67, 96
3, 72192, Note_off_c, 1, 67, 0
3, 72192, Note_on_c, 1, 65, 96
3, 72704, Note_off_c, 1, 65, 0
3, 72704, Note_on_c, 1, 63, 96
3, 73216, Note_off_c, 1, 63, 0
3, 73216, Note_on_c, 1, 65, 96
3, 73728, Note_off_c, 1, 65, 0
3, 73728, Note_on_c, 1, 62, 96
3, 74240, Note_off_c, 1, 62, 0
3, 74240, Note_on_c, 1, 63, 96
3, 74752, Note_off_c, 1, 63, 0
3, 74752, Note_on_c, 1, 65, 96
3, 75776, Note_off_c, 1, 65, 0
3, 92672, Note_on_c, 1, 62, 96
3, 93184, Note_off_c, 1, 62, 0
3, 93184, Note_on_c, 1, 63, 96
3, 93696, Note_off_c, 1, 63, 0
3, 93696, Note_on_c, 1, 65, 96
3, 94208, Note_off_c, 1, 65, 0
3, 94208, Note_on_c, 1, 67, 96
3, 94720, Note_off_c, 1, 67, 0
3, 94720, Note_on_c, 1, 68, 96
3, 95232, Note_off_c, 1, 68, 0
3, 95232, Note_on_c, 1, 70, 96
3, 99328, Note_off_c, 1, 70, 0
3, 99328, Note_on_c, 1, 69, 96
3, 100352, Note_off_c, 1, 69, 0
3, 100352, Note_on_c, 1, 70, 96
3, 101376, Note_off_c, 1, 70, 0
3, 101376, Note_on_c, 1, 72, 96
3, 101888, Note_off_c, 1, 72, 0
3, 101888, Note_on_c, 1, 69, 96
3, 102400, Note_off_c, 1, 69, 0
3, 102400, Note_on_c, 1, 65, 96
3, 103424, Note_off_c, 1, 65, 0
3, 103936, Note_on_c, 1, 69, 96
3, 104448, Note_off_c, 1, 69, 0
3, 104448, Note_on_c, 1, 70, 96
3, 104960, Note_off_c, 1, 70, 0
3, 104960, Note_on_c, 1, 67, 96
3, 105472, Note_off_c, 1, 67, 0
3, 105472, Note_on_c, 1, 72, 96
3, 108544, Note_off_c, 1, 72, 0
3, 108544, Note_on_c, 1, 65, 96
3, 109568, Note_off_c, 1, 65, 0
3, 109568, Note_on_c, 1, 70, 96
3, 111616, Note_off_c, 1, 70, 0
3, 111616, Note_on_c, 1, 69, 96
3, 112128, Note_off_c, 1, 69, 0
3, 112128, Note_on_c, 1, 67, 96
3, 112640, Note_off_c, 1, 67, 0
3, 112640, Note_on_c, 1, 69, 96
3, 113664, Note_off_c, 1, 69, 0
3, 113664, Note_on_c, 1, 70, 96
3, 114176, Note_off_c, 1, 70, 0
3, 114176, Note_on_c, 1, 65, 96
3, 114688, Note_off_c, 1, 65, 0
3, 114688, Note_on_c, 1, 62, 96
3, 115712, Note_off_c, 1, 62, 0
3, 129024, Note_on_c, 1, 58, 96
3, 130048, Note_off_c, 1, 58, 0
3, 130048, Note_on_c, 1, 67, 96
3, 131072, Note_off_c, 1, 67, 0
3, 132096, Note_on_c, 1, 67, 96
3, 133120, Note_off_c, 1, 67, 0
3, 133120, Note_on_c, 1, 72, 96
3, 134144, Note_off_c, 1, 72, 0
3, 135680, Note_on_c, 1, 63, 96
3, 136192, Note_off_c, 1, 63, 0
3, 136192, Note_on_c, 1, 70, 96
3, 136704, Note_off_c, 1, 70, 0
3, 136704, Note_on_c, 1, 68, 96
3, 137216, Note_off_c, 1, 68, 0
3, 137216, Note_on_c, 1, 67, 96
3, 137728, Note_off_c, 1, 67, 0
3, 137728, Note_on_c, 1, 65, 96
3, 138240, Note_off_c, 1, 65, 0
3, 138240, Note_on_c, 1, 63, 96
3, 138752, Note_off_c, 1, 63, 0
3, 138752, Note_on_c, 1, 61, 96
3, 139264, Note_off_c, 1, 61, 0
3, 139264, Note_on_c, 1, 60, 96
3, 139776, Note_off_c, 1, 60, 0
3, 139776, Note_on_c, 1, 62, 96
3, 140288, Note_off_c, 1, 62, 0
3, 140288, Note_on_c, 1, 63, 96
3, 140800, Note_off_c, 1, 63, 0
3, 140800, Note_on_c, 1, 65, 96
3, 141312, Note_off_c, 1, 65, 0
3, 141312, Note_on_c, 1, 67, 96
3, 141824, Note_off_c, 1, 67, 0
3, 141824, Note_on_c, 1, 58, 96
3, 142336, Note_off_c, 1, 58, 0
3, 142336, Note_on_c, 1, 63, 96
3, 144896, Note_off_c, 1, 63, 0
3, 144896, Note_on_c, 1, 60, 96
3, 145408, Note_off_c, 1, 60, 0
3, 145408, Note_on_c, 1, 68, 96
3, 145920, Note_off_c, 1, 68, 0
3, 145920, Note_on_c, 1, 67, 96
3, 146432, Note_off_c, 1, 67, 0
3, 146432, Note_on_c, 1, 65, 96
3, 146944, Note_off_c, 1, 65, 0
3, 146944, Note_on_c, 1, 63, 96
3, 147456, Note_off_c, 1, 63, 0
3, 147456, Note_on_c, 1, 62, 96
3, 147968, Note_off_c, 1, 62, 0
3, 147968, Note_on_c, 1, 60, 96
3, 148480, Note_off_c, 1, 60, 0
3, 148480, Note_on_c, 1, 58, 96
3, 149504, Note_off_c, 1, 58, 0
3, 149504, Note_on_c, 1, 62, 96
3, 150528, Note_off_c, 1, 62, 0
3, 150528, Note_on_c, 1, 63, 96
3, 151552, Note_off_c, 1, 63, 0
3, 153088, Note_on_c, 1, 63, 96
3, 153600, Note_off_c, 1, 63, 0
3, 153600, Note_on_c, 1, 73, 96
3, 154112, Note_off_c, 1, 73, 0
3, 154112, Note_on_c, 1, 72, 96
3, 154624, Note_off_c, 1, 72, 0
3, 154624, Note_on_c, 1, 70, 96
3, 155648, Note_off_c, 1, 70, 0
3, 155648, Note_on_c, 1, 75, 96
3, 156160, Note_off_c, 1, 75, 0
3, 156160, Note_on_c, 1, 67, 96
3, 156672, Note_off_c, 1, 67, 0
3, 156672, Note_on_c, 1, 68, 96
3, 157696, Note_off_c, 1, 68, 0
3, 157696, Note_on_c, 1, 63, 96
3, 159232, Note_off_c, 1, 63, 0
3, 159232, Note_on_c, 1, 68, 96
3, 159744, Note_off_c, 1, 68, 0
3, 159744, Note_on_c, 1, 67, 96
3, 160768, Note_off_c, 1, 67, 0
3, 216064, Note_on_c, 1, 58, 96
3, 216576, Note_off_c, 1, 58, 0
3, 216576, Note_on_c, 1, 60, 96
3, 217088, Note_off_c, 1, 60, 0
3, 217088, Note_on_c, 1, 62, 96
3, 217600, Note_off_c, 1, 62, 0
3, 217600, Note_on_c, 1, 58, 96
3, 218112, Note_off_c, 1, 58, 0
3, 218112, Note_on_c, 1, 63, 96
3, 219136, Note_off_c, 1, 63, 0
3, 219136, Note_on_c, 1, 70, 96
3, 220160, Note_off_c, 1, 70, 0
3, 220160, Note_on_c, 1, 63, 96
3, 221184, Note_off_c, 1, 63, 0
3, 221184, Note_on_c, 1, 65, 96
3, 222208, Note_off_c, 1, 65, 0
3, 222208, Note_on_c, 1, 68, 96
3, 224256, Note_off_c, 1, 68, 0
3, 225280, Note_on_c, 1, 67, 96
3, 225792, Note_off_c, 1, 67, 0
3, 225792, Note_on_c, 1, 65, 96
3, 226304, Note_off_c, 1, 65, 0
3, 226304, Note_on_c, 1, 63, 96
3, 226816, Note_off_c, 1, 63, 0
3, 226816, Note_on_c, 1, 62, 96
3, 227328, Note_off_c, 1, 62, 0
3, 227328, Note_on_c, 1, 67, 96
3, 227840, Note_off_c, 1, 67, 0
3, 227840, Note_on_c, 1, 65, 96
3, 228352, Note_off_c, 1, 65, 0
3, 228352, Note_on_c, 1, 63, 96
3, 228864, Note_off_c, 1, 63, 0
3, 228864, Note_on_c, 1, 62, 96
3, 229376, Note_off_c, 1, 62, 0
3, 229376, Note_on_c, 1, 60, 96
3, 230400, Note_off_c, 1, 60, 0
3, 230400, Note_on_c, 1, 65, 96
3, 231424, Note_off_c, 1, 65, 0
3, 231424, Note_on_c, 1, 67, 96
3, 231936, Note_off_c, 1, 67, 0
3, 231936, Note_on_c, 1, 65, 96
3, 232448, Note_off_c, 1, 65, 0
3, 232448, Note_on_c, 1, 63, 96
3, 232960, Note_off_c, 1, 63, 0
3, 232960, Note_on_c, 1, 65, 96
3, 233472, Note_off_c, 1, 65, 0
3, 233472, Note_on_c, 1, 62, 96
3, 233984, Note_off_c, 1, 62, 0
3, 233984, Note_on_c, 1, 63, 96
3, 234496, Note_off_c, 1, 63, 0
3, 234496, Note_on_c, 1, 65, 96
3, 235520, Note_off_c, 1, 65, 0
3, 252416, Note_on_c, 1, 62, 96
3, 252928, Note_off_c, 1, 62, 0
3, 252928, Note_on_c, 1, 63, 96
3, 253440, Note_off_c, 1, 63, 0
3, 253440, Note_on_c, 1, 65, 96
3, 253952, Note_off_c, 1, 65, 0
3, 253952, Note_on_c, 1, 67, 96
3, 254464, Note_off_c, 1, 67, 0
3, 254464, Note_on_c, 1, 68, 96
3, 254976, Note_off_c, 1, 68, 0
3, 254976, Note_on_c, 1, 70, 96
3, 259072, Note_off_c, 1, 70, 0
3, 259072, Note_on_c, 1, 69, 96
3, 260096, Note_off_c, 1, 69, 0
3, 260096, Note_on_c, 1, 70, 96
3, 261120, Note_off_c, 1, 70, 0
3, 261120, Note_on_c, 1, 72, 96
3, 261632, Note_off_c, 1, 72, 0
3, 261632, Note_on_c, 1, 69, 96
3, 262144, Note_off_c, 1, 69, 0
3, 262144, Note_on_c, 1, 65, 96
3, 263168, Note_off_c, 1, 65, 0
3, 263680, Note_on_c, 1, 69, 96
3, 264192, Note_off_c, 1, 69, 0
3, 264192, Note_on_c, 1, 70, 96
3, 264704, Note_off_c, 1, 70, 0
3, 264704, Note_on_c, 1, 67, 96
3, 265216, Note_off_c, 1, 67, 0
3, 265216, Note_on_c, 1, 72, 96
3, 268288, Note_off_c, 1, 72, 0
3, 268288, Note_on_c, 1, 65, 96
3, 269312, Note_off_c, 1, 65, 0
3, 269312, Note_on_c, 1, 70, 96
3, 271360, Note_off_c, 1, 70, 0
3, 271360, Note_on_c, 1, 69, 96
3, 271872, Note_off_c, 1, 69, 0
3, 271872, Note_on_c, 1, 67, 96
3, 272384, Note_off_c, 1, 67, 0
3, 272384, Note_on_c, 1, 69, 96
3, 273408, Note_off_c, 1, 69, 0
3, 273408, Note_on_c, 1, 70, 96
3, 273920, Note_off_c, 1, 70, 0
3, 273920, Note_on_c, 1, 65, 96
3, 274432, Note_off_c, 1, 65, 0
3, 274432, Note_on_c, 1, 62, 96
3, 275456, Note_off_c, 1, 62, 0
3, 288768, Note_on_c, 1, 58, 96
3, 289792, Note_off_c, 1, 58, 0
3, 289792, Note_on_c, 1, 67, 96
3, 290816, Note_off_c, 1, 67, 0
3, 291840, Note_on_c, 1, 67, 96
3, 292864, Note_off_c, 1, 67, 0
3, 292864, Note_on_c, 1, 72, 96
3, 293888, Note_off_c, 1, 72, 0
3, 295424, Note_on_c, 1, 63, 96
3, 295936, Note_off_c, 1, 63, 0
3, 295936, Note_on_c, 1, 70, 96
3, 296448, Note_off_c, 1, 70, 0
3, 296448, Note_on_c, 1, 68, 96
3, 296960, Note_off_c, 1, 68, 0
3, 296960, Note_on_c, 1, 67, 96
3, 297472, Note_off_c, 1, 67, 0
3, 297472, Note_on_c, 1, 65, 96
3, 297984, Note_off_c, 1, 65, 0
3, 297984, Note_on_c, 1, 63, 96
3, 298496, Note_off_c, 1, 63, 0
3, 298496, Note_on_c, 1, 61, 96
3, 299008, Note_off_c, 1, 61, 0
3, 299008, Note_on_c, 1, 60, 96
3, 299520, Note_off_c, 1, 60, 0
3, 299520, Note_on_c, 1, 62, 96
3, 300032, Note_off_c, 1, 62, 0
3, 300032, Note_on_c, 1, 63, 96
3, 300544, Note_off_c, 1, 63, 0
3, 300544, Note_on_c, 1, 65, 96
3, 301056, Note_off_c, 1, 65, 0
3, 301056, Note_on_c, 1, 67, 96
3, 301568, Note_off_c, 1, 67, 0
3, 301568, Note_on_c, 1, 58, 96
3, 302080, Note_off_c, 1, 58, 0
3, 302080, Note_on_c, 1, 63, 96
3, 304640, Note_off_c, 1, 63, 0
3, 304640, Note_on_c, 1, 60, 96
3, 305152, Note_off_c, 1, 60, 0
3, 305152, Note_on_c, 1, 68, 96
3, 305664, Note_off_c, 1, 68, 0
3, 305664, Note_on_c, 1, 67, 96
3, 306176, Note_off_c, 1, 67, 0
3, 306176, Note_on_c, 1, 65, 96
3, 306688, Note_off_c, 1, 65, 0
3, 306688, Note_on_c, 1, 63, 96
3, 307200, Note_off_c, 1, 63, 0
3, 307200, Note_on_c, 1, 62, 96
3, 307712, Note_off_c, 1, 62, 0
3, 307712, Note_on_c, 1, 60, 96
3, 308224, Note_off_c, 1, 60, 0
3, 308224, Note_on_c, 1, 58, 96
3, 309248, Note_off_c, 1, 58, 0
3, 309248, Note_on_c, 1, 62, 96
3, 310272, Note_off_c, 1, 62, 0
3, 310272, Note_on_c, 1, 63, 96
3, 310784, Note_off_c, 1, 63, 0
3, 310784, Note_on_c, 1, 58, 96
3, 311296, Note_off_c, 1, 58, 0
3, 311296, Note_on_c, 1, 55, 96
3, 312320, Note_off_c, 1, 55, 0
3, 312832, Note_on_c, 1, 63, 96
3, 313344, Note_off_c, 1, 63, 0
3, 313344, Note_on_c, 1, 73, 96
3, 313856, Note_off_c, 1, 73, 0
3, 313856, Note_on_c, 1, 72, 96
3, 314368, Note_off_c, 1, 72, 0
3, 314368, Note_on_c, 1, 70, 96
3, 315392, Note_off_c, 1, 70, 0
3, 315392, Note_on_c, 1, 75, 96
3, 315904, Note_off_c, 1, 75, 0
3, 315904, Note_on_c, 1, 67, 96
3, 316416, Note_off_c, 1, 67, 0
3, 316416, Note_on_c, 1, 68, 96
3, 317440, Note_off_c, 1, 68, 0
3, 317440, Note_on_c, 1, 63, 96
3, 318976, Note_off_c, 1, 63, 0
3, 318976, Note_on_c, 1, 68, 96
3, 319488, Note_off_c, 1, 68, 0
3, 319488, Note_on_c, 1, 67, 96
3, 320512, Note_off_c, 1, 67, 0
3, 358912, Note_on_c, 1, 65, 96
3, 359424, Note_off_c, 1, 65, 0
3, 359424, Note_on_c, 1, 70, 96
3, 359936, Note_off_c, 1, 70, 0
3, 359936, Note_on_c, 1, 67, 96
3, 360448, Note_off_c, 1, 67, 0
3, 360448, Note_on_c, 1, 63, 96
3, 361472, Note_off_c, 1, 63, 0
3, 363008, Note_on_c, 1, 67, 96
3, 363520, Note_off_c, 1, 67, 0
3, 363520, Note_on_c, 1, 67, 96
3, 364032, Note_off_c, 1, 67, 0
3, 364032, Note_on_c, 1, 65, 96
3, 364544, Note_off_c, 1, 65, 0
3, 364544, Note_on_c, 1, 65, 96
3, 365056, Note_off_c, 1, 65, 0
3, 365056, Note_on_c, 1, 63, 96
3, 365568, Note_off_c, 1, 63, 0
3, 365568, Note_on_c, 1, 63, 96
3, 366080, Note_off_c, 1, 63, 0
3, 366080, Note_on_c, 1, 63, 96
3, 366592, Note_off_c, 1, 63, 0
3, 366592, Note_on_c, 1, 70, 96
3, 367616, Note_off_c, 1, 70, 0
3, 368128, Note_on_c, 1, 58, 96
3, 368640, Note_off_c, 1, 58, 0
3, 368640, Note_on_c, 1, 70, 96
3, 369664, Note_off_c, 1, 70, 0
3, 370176, Note_on_c, 1, 58, 96
3, 370688, Note_off_c, 1, 58, 0
3, 370688, Note_on_c, 1, 63, 96
3, 371712, Note_off_c, 1, 63, 0
3, 372224, Note_on_c, 1, 61, 96
3, 372736, Note_off_c, 1, 61, 0
3, 372736, Note_on_c, 1, 61, 96
3, 373248, Note_off_c, 1, 61, 0
3, 373248, Note_on_c, 1, 60, 96
3, 373760, Note_off_c, 1, 60, 0
3, 373760, Note_on_c, 1, 60, 96
3, 374272, Note_off_c, 1, 60, 0
3, 374272, Note_on_c, 1, 58, 96
3, 374784, Note_off_c, 1, 58, 0
3, 374784, Note_on_c, 1, 58, 96
3, 375296, Note_off_c, 1, 58, 0
3, 375296, Note_on_c, 1, 67, 96
3, 375808, Note_off_c, 1, 67, 0
3, 375808, Note_on_c, 1, 72, 96
3, 376832, Note_off_c, 1, 72, 0
3, 377344, Note_on_c, 1, 60, 96
3, 377856, Note_off_c, 1, 60, 0
3, 377856, Note_on_c, 1, 67, 96
3, 378880, Note_off_c, 1, 67, 0
3, 389632, Note_on_c, 1, 58, 96
3, 390144, Note_off_c, 1, 58, 0
3, 390144, Note_on_c, 1, 70, 96
3, 390656, Note_off_c, 1, 70, 0
3, 390656, Note_on_c, 1, 67, 96
3, 391168, Note_off_c, 1, 67, 0
3, 391168, Note_on_c, 1, 75, 96
3, 392192, Note_off_c, 1, 75, 0
3, 393728, Note_on_c, 1, 67, 96
3, 394240, Note_off_c, 1, 67, 0
3, 394240, Note_on_c, 1, 67, 96
3, 394752, Note_off_c, 1, 67, 0
3, 394752, Note_on_c, 1, 65, 96
3, 395264, Note_off_c, 1, 65, 0
3, 395264, Note_on_c, 1, 65, 96
3, 395776, Note_off_c, 1, 65, 0
3, 395776, Note_on_c, 1, 63, 96
3, 396288, Note_off_c, 1, 63, 0
3, 396288, Note_on_c, 1, 63, 96
3, 396800, Note_off_c, 1, 63, 0
3, 396800, Note_on_c, 1, 63, 96
3, 397312, Note_off_c, 1, 63, 0
3, 397312, Note_on_c, 1, 70, 96
3, 398336, Note_off_c, 1, 70, 0
3, 398848, Note_on_c, 1, 58, 96
3, 399360, Note_off_c, 1, 58, 0
3, 399360, Note_on_c, 1, 70, 96
3, 400384, Note_off_c, 1, 70, 0
3, 400896, Note_on_c, 1, 58, 96
3, 401408, Note_off_c, 1, 58, 0
3, 401408, Note_on_c, 1, 63, 96
3, 402432, Note_off_c, 1, 63, 0
3, 402944, Note_on_c, 1, 61, 96
3, 403456, Note_off_c, 1, 61, 0
3, 403456, Note_on_c, 1, 61, 96
3, 403968, Note_off_c, 1, 61, 0
3, 403968, Note_on_c, 1, 60, 96
3, 404480, Note_off_c, 1, 60, 0
3, 404480, Note_on_c, 1, 60, 96
3, 404992, Note_off_c, 1, 60, 0
3, 404992, Note_on_c, 1, 58, 96
3, 405504, Note_off_c, 1, 58, 0
3, 405504, Note_on_c, 1, 58, 96
3, 406016, Note_off_c, 1, 58, 0
3, 406016, Note_on_c, 1, 67, 96
3, 406528, Note_off_c, 1, 67, 0
3, 406528, Note_on_c, 1, 72, 96
3, 407552, Note_off_c, 1, 72, 0
3, 408064, Note_on_c, 1, 60, 96
3, 408576, Note_off_c, 1, 60, 0
3, 408576, Note_on_c, 1, 67, 96
3, 409600, Note_off_c, 1, 67, 0
3, 413696, Note_on_c, 1, 67, 96
3, 416256, Note_off_c, 1, 67, 0
3, 416256, Note_on_c, 1, 66, 96
3, 416512, Note_off_c, 1, 66, 0
3, 416512, Note_on_c, 1, 67, 96
3, 416768, Note_off_c, 1, 67, 0
3, 416768, Note_on_c, 1, 68, 96
3, 417024, Note_off_c, 1, 68, 0
3, 417024, Note_on_c, 1, 67, 96
3, 417280, Note_off_c, 1, 67, 0
3, 417280, Note_on_c, 1, 66, 96
3, 417536, Note_off_c, 1, 66, 0
3, 417536, Note_on_c, 1, 64, 96
3, 417792, Note_off_c, 1, 64, 0
3, 417792, Note_on_c, 1, 62, 96
3, 418048, Note_off_c, 1, 62, 0
3, 418048, Note_on_c, 1, 64, 96
3, 418304, Note_off_c, 1, 64, 0
3, 418304, Note_on_c, 1, 66, 96
3, 419072, Note_off_c, 1, 66, 0
3, 419072, Note_on_c, 1, 67, 96
3, 419328, Note_off_c, 1, 67, 0
3, 419328, Note_on_c, 1, 69, 96
3, 420096, Note_off_c, 1, 69, 0
3, 420096, Note_on_c, 1, 70, 96
3, 420352, Note_off_c, 1, 70, 0
3, 420352, Note_on_c, 1, 72, 96
3, 420864, Note_off_c, 1, 72, 0
3, 420864, Note_on_c, 1, 70, 96
3, 421376, Note_off_c, 1, 70, 0
3, 421376, Note_on_c, 1, 69, 96
3, 421632, Note_off_c, 1, 69, 0
3, 421632, Note_on_c, 1, 70, 96
3, 421888, Note_off_c, 1, 70, 0
3, 421888, Note_on_c, 1, 67, 96
3, 422400, Note_off_c, 1, 67, 0
3, 422400, Note_on_c, 1, 67, 96
3, 422656, Note_off_c, 1, 67, 0
3, 422656, Note_on_c, 1, 69, 96
3, 422912, Note_off_c, 1, 69, 0
3, 422912, Note_on_c, 1, 70, 96
3, 423168, Note_off_c, 1, 70, 0
3, 423168, Note_on_c, 1, 72, 96
3, 423424, Note_off_c, 1, 72, 0
3, 423424, Note_on_c, 1, 74, 96
3, 423936, Note_off_c, 1, 74, 0
3, 423936, Note_on_c, 1, 67, 96
3, 424192, Note_off_c, 1, 67, 0
3, 424192, Note_on_c, 1, 65, 96
3, 424448, Note_off_c, 1, 65, 0
3, 424448, Note_on_c, 1, 63, 96
3, 424704, Note_off_c, 1, 63, 0
3, 424704, Note_on_c, 1, 65, 96
3, 424960, Note_off_c, 1, 65, 0
3, 424960, Note_on_c, 1, 67, 96
3, 425216, Note_off_c, 1, 67, 0
3, 425216, Note_on_c, 1, 69, 96
3, 425472, Note_off_c, 1, 69, 0
3, 425472, Note_on_c, 1, 67, 96
3, 425728, Note_off_c, 1, 67, 0
3, 425728, Note_on_c, 1, 69, 96
3, 425984, Note_off_c, 1, 69, 0
3, 425984, Note_on_c, 1, 70, 96
3, 426240, Note_off_c, 1, 70, 0
3, 426240, Note_on_c, 1, 69, 96
3, 426496, Note_off_c, 1, 69, 0
3, 426496, Note_on_c, 1, 67, 96
3, 426752, Note_off_c, 1, 67, 0
3, 426752, Note_on_c, 1, 65, 96
3, 427008, Note_off_c, 1, 65, 0
3, 427008, Note_on_c, 1, 63, 96
3, 427264, Note_off_c, 1, 63, 0
3, 427264, Note_on_c, 1, 62, 96
3, 427520, Note_off_c, 1, 62, 0
3, 427520, Note_on_c, 1, 60, 96
3, 427776, Note_off_c, 1, 60, 0
3, 427776, Note_on_c, 1, 62, 96
3, 428032, Note_off_c, 1, 62, 0
3, 428032, Note_on_c, 1, 63, 96
3, 430336, Note_off_c, 1, 63, 0
3, 430336, Note_on_c, 1, 62, 96
3, 430592, Note_off_c, 1, 62, 0
3, 430592, Note_on_c, 1, 60, 96
3, 430848, Note_off_c, 1, 60, 0
3, 430848, Note_on_c, 1, 62, 96
3, 431104, Note_off_c, 1, 62, 0
3, 431104, Note_on_c, 1, 63, 96
3, 431360, Note_off_c, 1, 63, 0
3, 431360, Note_on_c, 1, 62, 96
3, 431616, Note_off_c, 1, 62, 0
3, 431616, Note_on_c, 1, 63, 96
3, 431872, Note_off_c, 1, 63, 0
3, 431872, Note_on_c, 1, 65, 96
3, 432128, Note_off_c, 1, 65, 0
3, 432128, Note_on_c, 1, 67, 96
3, 432384, Note_off_c, 1, 67, 0
3, 432384, Note_on_c, 1, 65, 96
3, 432640, Note_off_c, 1, 65, 0
3, 432640, Note_on_c, 1, 67, 96
3, 432896, Note_off_c, 1, 67, 0
3, 432896, Note_on_c, 1, 69, 96
3, 433152, Note_off_c, 1, 69, 0
3, 433152, Note_on_c, 1, 70, 96
3, 433664, Note_off_c, 1, 70, 0
3, 433664, Note_on_c, 1, 65, 96
3, 434176, Note_off_c, 1, 65, 0
3, 434176, Note_on_c, 1, 62, 96
3, 434688, Note_off_c, 1, 62, 0
3, 434688, Note_on_c, 1, 65, 96
3, 435200, Note_off_c, 1, 65, 0
3, 435200, Note_on_c, 1, 67, 96
3, 435456, Note_off_c, 1, 67, 0
3, 435456, Note_on_c, 1, 68, 96
3, 435712, Note_off_c, 1, 68, 0
3, 435712, Note_on_c, 1, 70, 96
3, 435968, Note_off_c, 1, 70, 0
3, 435968, Note_on_c, 1, 67, 96
3, 436224, Note_off_c, 1, 67, 0
3, 436224, Note_on_c, 1, 63, 96
3, 437248, Note_off_c, 1, 63, 0
3, 437760, Note_on_c, 1, 63, 96
3, 438272, Note_off_c, 1, 63, 0
3, 438272, Note_on_c, 1, 67, 96
3, 438784, Note_off_c, 1, 67, 0
3, 438784, Note_on_c, 1, 70, 96
3, 439296, Note_off_c, 1, 70, 0
3, 439296, Note_on_c, 1, 72, 96
3, 439552, Note_off_c, 1, 72, 0
3, 439552, Note_on_c, 1, 70, 96
3, 439808, Note_off_c, 1, 70, 0
3, 439808, Note_on_c, 1, 68, 96
3, 440064, Note_off_c, 1, 68, 0
3, 440064, Note_on_c, 1, 70, 96
3, 440320, Note_off_c, 1, 70, 0
3, 440320, Note_on_c, 1, 72, 96
3, 440576, Note_off_c, 1, 72, 0
3, 440576, Note_on_c, 1, 68, 96
3, 440832, Note_off_c, 1, 68, 0
3, 440832, Note_on_c, 1, 70, 96
3, 441088, Note_off_c, 1, 70, 0
3, 441088, Note_on_c, 1, 72, 96
3, 441344, Note_off_c, 1, 72, 0
3, 441344, Note_on_c, 1, 65, 96
3, 442368, Note_off_c, 1, 65, 0
3, 442880, Note_on_c, 1, 65, 96
3, 443392, Note_off_c, 1, 65, 0
3, 443392, Note_on_c, 1, 62, 96
3, 443904, Note_off_c, 1, 62, 0
3, 443904, Note_on_c, 1, 58, 96
3, 444416, Note_off_c, 1, 58, 0
3, 444416, Note_on_c, 1, 65, 96
3, 444928, Note_off_c, 1, 65, 0
3, 444928, Note_on_c, 1, 63, 96
3, 445184, Note_off_c, 1, 63, 0
3, 445184, Note_on_c, 1, 65, 96
3, 445440, Note_off_c, 1, 65, 0
3, 445440, Note_on_c, 1, 67, 96
3, 445696, Note_off_c, 1, 67, 0
3, 445696, Note_on_c, 1, 63, 96
3, 445952, Note_off_c, 1, 63, 0
3, 445952, Note_on_c, 1, 62, 96
3, 446208, Note_off_c, 1, 62, 0
3, 446208, Note_on_c, 1, 63, 96
3, 446464, Note_off_c, 1, 63, 0
3, 446464, Note_on_c, 1, 70, 96
3, 449024, Note_off_c, 1, 70, 0
3, 449024, Note_on_c, 1, 69, 96
3, 450048, Note_off_c, 1, 69, 0
3, 450048, Note_on_c, 1, 67, 96
3, 451072, Note_off_c, 1, 67, 0
3, 451072, Note_on_c, 1, 65, 96
3, 451584, Note_off_c, 1, 65, 0
3, 451584, Note_on_c, 1, 65, 96
3, 455168, Note_off_c, 1, 65, 0
3, 455168, Note_on_c, 1, 65, 96
3, 456192, Note_off_c, 1, 65, 0
3, 456192, Note_on_c, 1, 63, 96
3, 457216, Note_off_c, 1, 63, 0
3, 457216, Note_on_c, 1, 62, 96
3, 457728, Note_off_c, 1, 62, 0
3, 457728, Note_on_c, 1, 62, 96
3, 457984, Note_off_c, 1, 62, 0
3, 457984, Note_on_c, 1, 63, 96
3, 458240, Note_off_c, 1, 63, 0
3, 458240, Note_on_c, 1, 62, 96
3, 458496, Note_off_c, 1, 62, 0
3, 458496, Note_on_c, 1, 63, 96
3, 458752, Note_off_c, 1, 63, 0
3, 458752, Note_on_c, 1, 65, 96
3, 461312, Note_off_c, 1, 65, 0
3, 461312, Note_on_c, 1, 64, 96
3, 461568, Note_off_c, 1, 64, 0
3, 461568, Note_on_c, 1, 62, 96
3, 461824, Note_off_c, 1, 62, 0
3, 461824, Note_on_c, 1, 64, 96
3, 462080, Note_off_c, 1, 64, 0
3, 462080, Note_on_c, 1, 65, 96
3, 462336, Note_off_c, 1, 65, 0
3, 462336, Note_on_c, 1, 67, 96
3, 462592, Note_off_c, 1, 67, 0
3, 462592, Note_on_c, 1, 68, 96
3, 462848, Note_off_c, 1, 68, 0
3, 462848, Note_on_c, 1, 70, 96
3, 463104, Note_off_c, 1, 70, 0
3, 463104, Note_on_c, 1, 72, 96
3, 463360, Note_off_c, 1, 72, 0
3, 463360, Note_on_c, 1, 70, 96
3, 463616, Note_off_c, 1, 70, 0
3, 463616, Note_on_c, 1, 72, 96
3, 463872, Note_off_c, 1, 72, 0
3, 463872, Note_on_c, 1, 68, 96
3, 464128, Note_off_c, 1, 68, 0
3, 464128, Note_on_c, 1, 67, 96
3, 464384, Note_off_c, 1, 67, 0
3, 464384, Note_on_c, 1, 65, 96
3, 464640, Note_off_c, 1, 65, 0
3, 464640, Note_on_c, 1, 67, 96
3, 464896, Note_off_c, 1, 67, 0
3, 464896, Note_on_c, 1, 68, 96
3, 465152, Note_off_c, 1, 68, 0
3, 465152, Note_on_c, 1, 70, 96
3, 465408, Note_off_c, 1, 70, 0
3, 465408, Note_on_c, 1, 68, 96
3, 465664, Note_off_c, 1, 68, 0
3, 465664, Note_on_c, 1, 70, 96
3, 465920, Note_off_c, 1, 70, 0
3, 465920, Note_on_c, 1, 72, 96
3, 466176, Note_off_c, 1, 72, 0
3, 466176, Note_on_c, 1, 70, 96
3, 466432, Note_off_c, 1, 70, 0
3, 466432, Note_on_c, 1, 68, 96
3, 466688, Note_off_c, 1, 68, 0
3, 466688, Note_on_c, 1, 67, 96
3, 466944, Note_off_c, 1, 67, 0
3, 466944, Note_on_c, 1, 65, 96
3, 467200, Note_off_c, 1, 65, 0
3, 467200, Note_on_c, 1, 63, 96
3, 467456, Note_off_c, 1, 63, 0
3, 467456, Note_on_c, 1, 62, 96
3, 467712, Note_off_c, 1, 62, 0
3, 467712, Note_on_c, 1, 63, 96
3, 467968, Note_off_c, 1, 63, 0
3, 467968, Note_on_c, 1, 65, 96
3, 468224, Note_off_c, 1, 65, 0
3, 468224, Note_on_c, 1, 67, 96
3, 468480, Note_off_c, 1, 67, 0
3, 468480, Note_on_c, 1, 65, 96
3, 468736, Note_off_c, 1, 65, 0
3, 468736, Note_on_c, 1, 67, 96
3, 468992, Note_off_c, 1, 67, 0
3, 468992, Note_on_c, 1, 68, 96
3, 469248, Note_off_c, 1, 68, 0
3, 469248, Note_on_c, 1, 67, 96
3, 469504, Note_off_c, 1, 67, 0
3, 469504, Note_on_c, 1, 65, 96
3, 469760, Note_off_c, 1, 65, 0
3, 469760, Note_on_c, 1, 63, 96
3, 470016, Note_off_c, 1, 63, 0
3, 470016, Note_on_c, 1, 62, 96
3, 470528, Note_off_c, 1, 62, 0
3, 470528, Note_on_c, 1, 65, 96
3, 471552, Note_off_c, 1, 65, 0
3, 471552, Note_on_c, 1, 63, 96
3, 472576, Note_off_c, 1, 63, 0
3, 472576, Note_on_c, 1, 62, 96
3, 473088, Note_off_c, 1, 62, 0
3, 473088, Note_on_c, 1, 60, 96
3, 473600, Note_off_c, 1, 60, 0
3, 473600, Note_on_c, 1, 63, 96
3, 474624, Note_off_c, 1, 63, 0
3, 474624, Note_on_c, 1, 62, 96
3, 474880, Note_off_c, 1, 62, 0
3, 474880, Note_on_c, 1, 60, 96
3, 475136, Note_off_c, 1, 60, 0
3, 475136, Note_on_c, 1, 62, 96
3, 475648, Note_off_c, 1, 62, 0
3, 475648, Note_on_c, 1, 65, 96
3, 476160, Note_off_c, 1, 65, 0
3, 476160, Note_on_c, 1, 63, 96
3, 477184, Note_off_c, 1, 63, 0
3, 494080, Note_on_c, 1, 67, 96
3, 494592, Note_off_c, 1, 67, 0
3, 494592, Note_on_c, 1, 63, 96
3, 495104, Note_off_c, 1, 63, 0
3, 495104, Note_on_c, 1, 67, 96
3, 495616, Note_off_c, 1, 67, 0
3, 495616, Note_on_c, 1, 68, 96
3, 496640, Note_off_c, 1, 68, 0
3, 497152, Note_on_c, 1, 63, 96
3, 497664, Note_off_c, 1, 63, 0
3, 497664, Note_on_c, 1, 65, 96
3, 498176, Note_off_c, 1, 65, 0
3, 498176, Note_on_c, 1, 71, 96
3, 498688, Note_off_c, 1, 71, 0
3, 498688, Note_on_c, 1, 74, 96
3, 499712, Note_off_c, 1, 74, 0
3, 500224, Note_on_c, 1, 71, 96
3, 500736, Note_off_c, 1, 71, 0
3, 500736, Note_on_c, 1, 72, 96
3, 501760, Note_off_c, 1, 72, 0
3, 503296, Note_on_c, 1, 63, 96
3, 503808, Note_off_c, 1, 63, 0
3, 503808, Note_on_c, 1, 70, 96
3, 504832, Note_off_c, 1, 70, 0
3, 505344, Note_on_c, 1, 70, 96
3, 505856, Note_off_c, 1, 70, 0
3, 505856, Note_on_c, 1, 67, 96
3, 506368, Note_off_c, 1, 67, 0
3, 506368, Note_on_c, 1, 63, 96
3, 506880, Note_off_c, 1, 63, 0
3, 506880, Note_on_c, 1, 72, 96
3, 507904, Note_off_c, 1, 72, 0
3, 518144, Note_on_c, 1, 70, 96
3, 519168, Note_off_c, 1, 70, 0
3, 519168, Note_on_c, 1, 72, 96
3, 520192, Note_off_c, 1, 72, 0
3, 520192, Note_on_c, 1, 68, 96
3, 522240, Note_off_c, 1, 68, 0
3, 522240, Note_on_c, 1, 67, 96
3, 523264, Note_off_c, 1, 67, 0
3, 524288, Note_on_c, 1, 67, 96
3, 525312, Note_off_c, 1, 67, 0
3, 525312, Note_on_c, 1, 68, 96
3, 525824, Note_off_c, 1, 68, 0
3, 525824, Note_on_c, 1, 67, 96
3, 526336, Note_off_c, 1, 67, 0
3, 526336, Note_on_c, 1, 67, 96
3, 528384, Note_off_c, 1, 67, 0
3, 528384, Note_on_c, 1, 67, 96
3, 529408, Note_off_c, 1, 67, 0
3, 529920, Note_on_c, 1, 67, 96
3, 530432, Note_off_c, 1, 67, 0
3, 530432, Note_on_c, 1, 67, 96
3, 530944, Note_off_c, 1, 67, 0
3, 530944, Note_on_c, 1, 72, 96
3, 531456, Note_off_c, 1, 72, 0
3, 531456, Note_on_c, 1, 70, 96
3, 532480, Note_off_c, 1, 70, 0
3, 532480, Note_on_c, 1, 67, 96
3, 533504, Note_off_c, 1, 67, 0
3, 533504, Note_on_c, 1, 63, 96
3, 534528, Note_off_c, 1, 63, 0
3, 534528, Note_on_c, 1, 63, 96
3, 535552, Note_off_c, 1, 63, 0
3, 535552, Note_on_c, 1, 72, 96
3, 536064, Note_off_c, 1, 72, 0
3, 536064, Note_on_c, 1, 70, 96
3, 536576, Note_off_c, 1, 70, 0
3, 536576, Note_on_c, 1, 68, 96
3, 537088, Note_off_c, 1, 68, 0
3, 537088, Note_on_c, 1, 70, 96
3, 537600, Note_off_c, 1, 70, 0
3, 537600, Note_on_c, 1, 72, 96
3, 538624, Note_off_c, 1, 72, 0
3, 538624, Note_on_c, 1, 69, 96
3, 539648, Note_off_c, 1, 69, 0
3, 539648, Note_on_c, 1, 65, 96
3, 540672, Note_off_c, 1, 65, 0
3, 540672, Note_on_c, 1, 65, 96
3, 541696, Note_off_c, 1, 65, 0
3, 541696, Note_on_c, 1, 74, 96
3, 542720, Note_off_c, 1, 74, 0
3, 546816, Note_on_c, 1, 67, 96
3, 547840, Note_off_c, 1, 67, 0
3, 549888, Note_on_c, 1, 67, 96
3, 550912, Note_off_c, 1, 67, 0
3, 553472, Note_on_c, 1, 63, 96
3, 553984, Note_off_c, 1, 63, 0
3, 553984, Note_on_c, 1, 70, 96
3, 554496, Note_off_c, 1, 70, 0
3, 554496, Note_on_c, 1, 68, 96
3, 555008, Note_off_c, 1, 68, 0
3, 555008, Note_on_c, 1, 67, 96
3, 555520, Note_off_c, 1, 67, 0
3, 555520, Note_on_c, 1, 65, 96
3, 556032, Note_off_c, 1, 65, 0
3, 556032, Note_on_c, 1, 63, 96
3, 556544, Note_off_c, 1, 63, 0
3, 556544, Note_on_c, 1, 61, 96
3, 557056, Note_off_c, 1, 61, 0
3, 557056, Note_on_c, 1, 60, 96
3, 557568, Note_off_c, 1, 60, 0
3, 557568, Note_on_c, 1, 62, 96
3, 558080, Note_off_c, 1, 62, 0
3, 558080, Note_on_c, 1, 63, 96
3, 558592, Note_off_c, 1, 63, 0
3, 558592, Note_on_c, 1, 65, 96
3, 559104, Note_off_c, 1, 65, 0
3, 559104, Note_on_c, 1, 67, 96
3, 559616, Note_off_c, 1, 67, 0
3, 559616, Note_on_c, 1, 58, 96
3, 560128, Note_off_c, 1, 58, 0
3, 560128, Note_on_c, 1, 63, 96
3, 562688, Note_off_c, 1, 63, 0
3, 562688, Note_on_c, 1, 60, 96
3, 563200, Note_off_c, 1, 60, 0
3, 563200, Note_on_c, 1, 68, 96
3, 563712, Note_off_c, 1, 68, 0
3, 563712, Note_on_c, 1, 67, 96
3, 564224, Note_off_c, 1, 67, 0
3, 564224, Note_on_c, 1, 65, 96
3, 564736, Note_off_c, 1, 65, 0
3, 564736, Note_on_c, 1, 63, 96
3, 565248, Note_off_c, 1, 63, 0
3, 565248, Note_on_c, 1, 62, 96
3, 565760, Note_off_c, 1, 62, 0
3, 565760, Note_on_c, 1, 60, 96
3, 566272, Note_off_c, 1, 60, 0
3, 566272, Note_on_c, 1, 58, 96
3, 566784, Note_off_c, 1, 58, 0
3, 566784, Note_on_c, 1, 60, 96
3, 567296, Note_off_c, 1, 60, 0
3, 567296, Note_on_c, 1, 62, 96
3, 568320, Note_off_c, 1, 62, 0
3, 568320, Note_on_c, 1, 63, 96
3, 568832, Note_off_c, 1, 63, 0
3, 568832, Note_on_c, 1, 58, 96
3, 569344, Note_off_c, 1, 58, 0
3, 569344, Note_on_c, 1, 55, 96
3, 570368, Note_off_c, 1, 55, 0
3, 570880, Note_on_c, 1, 63, 96
3, 571392, Note_off_c, 1, 63, 0
3, 571392, Note_on_c, 1, 73, 96
3, 571904, Note_off_c, 1, 73, 0
3, 571904, Note_on_c, 1, 72, 96
3, 572416, Note_off_c, 1, 72, 0
3, 572416, Note_on_c, 1, 70, 96
3, 573440, Note_off_c, 1, 70, 0
3, 573440, Note_on_c, 1, 75, 96
3, 573952, Note_off_c, 1, 75, 0
3, 573952, Note_on_c, 1, 67, 96
3, 574464, Note_off_c, 1, 67, 0
3, 574464, Note_on_c, 1, 68, 96
3, 575488, Note_off_c, 1, 68, 0
3, 575488, Note_on_c, 1, 63, 96
3, 577024, Note_off_c, 1, 63, 0
3, 577024, Note_on_c, 1, 68, 96
3, 577536, Note_off_c, 1, 68, 0
3, 577536, Note_on_c, 1, 67, 96
3, 579584, Note_off_c, 1, 67, 0
3, 629760, End_track
4, 0, Start_track
4, 0, Title_t, "Instrument 3"
4, 59392, Note_on_c, 2, 51, 96
4, 59904, Note_off_c, 2, 51, 0
4, 59904, Note_on_c, 2, 53, 96
4, 60416, Note_off_c, 2, 53, 0
4, 60416, Note_on_c, 2, 55, 96
4, 60928, Note_off_c, 2, 55, 0
4, 60928, Note_on_c, 2, 51, 96
4, 61440, Note_off_c, 2, 51, 0
4, 61440, Note_on_c, 2, 58, 96
4, 62464, Note_off_c, 2, 58, 0
4, 62464, Note_on_c, 2, 65, 96
4, 63488, Note_off_c, 2, 65, 0
4, 63488, Note_on_c, 2, 58, 96
4, 64512, Note_off_c, 2, 58, 0
4, 64512, Note_on_c, 2, 67, 96
4, 65536, Note_off_c, 2, 67, 0
4, 65536, Note_on_c, 2, 63, 96
4, 67584, Note_off_c, 2, 63, 0
4, 68608, Note_on_c, 2, 67, 96
4, 69120, Note_off_c, 2, 67, 0
4, 69120, Note_on_c, 2, 65, 96
4, 69632, Note_off_c, 2, 65, 0
4, 69632, Note_on_c, 2, 63, 96
4, 70144, Note_off_c, 2, 63, 0
4, 70144, Note_on_c, 2, 62, 96
4, 70656, Note_off_c, 2, 62, 0
4, 70656, Note_on_c, 2, 60, 96
4, 72192, Note_off_c, 2, 60, 0
4, 72192, Note_on_c, 2, 60, 96
4, 72704, Note_off_c, 2, 60, 0
4, 72704, Note_on_c, 2, 53, 96
4, 73728, Note_off_c, 2, 53, 0
4, 73728, Note_on_c, 2, 65, 96
4, 74752, Note_off_c, 2, 65, 0
4, 74752, Note_on_c, 2, 62, 96
4, 75776, Note_off_c, 2, 62, 0
4, 89600, Note_on_c, 2, 58, 96
4, 90112, Note_off_c, 2, 58, 0
4, 90112, Note_on_c, 2, 60, 96
4, 90624, Note_off_c, 2, 60, 0
4, 90624, Note_on_c, 2, 62, 96
4, 91136, Note_off_c, 2, 62, 0
4, 91136, Note_on_c, 2, 63, 96
4, 91648, Note_off_c, 2, 63, 0
4, 91648, Note_on_c, 2, 65, 96
4, 92160, Note_off_c, 2, 65, 0
4, 92160, Note_on_c, 2, 67, 96
4, 99328, Note_off_c, 2, 67, 0
4, 99328, Note_on_c, 2, 65, 96
4, 99840, Note_off_c, 2, 65, 0
4, 99840, Note_on_c, 2, 63, 96
4, 100352, Note_off_c, 2, 63, 0
4, 100352, Note_on_c, 2, 62, 96
4, 100864, Note_off_c, 2, 62, 0
4, 100864, Note_on_c, 2, 63, 96
4, 101376, Note_off_c, 2, 63, 0
4, 101376, Note_on_c, 2, 60, 96
4, 102400, Note_off_c, 2, 60, 0
4, 102400, Note_on_c, 2, 62, 96
4, 102912, Note_off_c, 2, 62, 0
4, 102912, Note_on_c, 2, 63, 96
4, 103424, Note_off_c, 2, 63, 0
4, 103424, Note_on_c, 2, 65, 96
4, 103936, Note_off_c, 2, 65, 0
4, 103936, Note_on_c, 2, 62, 96
4, 104448, Note_off_c, 2, 62, 0
4, 104448, Note_on_c, 2, 58, 96
4, 105472, Note_off_c, 2, 58, 0
4, 108032, Note_on_c, 2, 58, 96
4, 108544, Note_off_c, 2, 58, 0
4, 108544, Note_on_c, 2, 60, 96
4, 109056, Note_off_c, 2, 60, 0
4, 109056, Note_on_c, 2, 62, 96
4, 109568, Note_off_c, 2, 62, 0
4, 109568, Note_on_c, 2, 63, 96
4, 110080, Note_off_c, 2, 63, 0
4, 110080, Note_on_c, 2, 65, 96
4, 110592, Note_off_c, 2, 65, 0
4, 110592, Note_on_c, 2, 67, 96
4, 111616, Note_off_c, 2, 67, 0
4, 111616, Note_on_c, 2, 65, 96
4, 112640, Note_off_c, 2, 65, 0
4, 112640, Note_on_c, 2, 63, 96
4, 113664, Note_off_c, 2, 63, 0
4, 113664, Note_on_c, 2, 62, 96
4, 114688, Note_off_c, 2, 62, 0
4, 114688, Note_on_c, 2, 58, 96
4, 115712, Note_off_c, 2, 58, 0
4, 129024, Note_on_c, 2, 55, 96
4, 130048, Note_off_c, 2, 55, 0
4, 130048, Note_on_c, 2, 58, 96
4, 131072, Note_off_c, 2, 58, 0
4, 132096, Note_on_c, 2, 60, 96
4, 133120, Note_off_c, 2, 60, 0
4, 133120, Note_on_c, 2, 67, 96
4, 134144, Note_off_c, 2, 67, 0
4, 136704, Note_on_c, 2, 58, 96
4, 137216, Note_off_c, 2, 58, 0
4, 137216, Note_on_c, 2, 63, 96
4, 137728, Note_off_c, 2, 63, 0
4, 137728, Note_on_c, 2, 61, 96
4, 138240, Note_off_c, 2, 61, 0
4, 138240, Note_on_c, 2, 60, 96
4, 138752, Note_off_c, 2, 60, 0
4, 138752, Note_on_c, 2, 58, 96
4, 139264, Note_off_c, 2, 58, 0
4, 139264, Note_on_c, 2, 56, 96
4, 140288, Note_off_c, 2, 56, 0
4, 140288, Note_on_c, 2, 51, 96
4, 141312, Note_off_c, 2, 51, 0
4, 141312, Note_on_c, 2, 51, 96
4, 141824, Note_off_c, 2, 51, 0
4, 141824, Note_on_c, 2, 53, 96
4, 142336, Note_off_c, 2, 53, 0
4, 142336, Note_on_c, 2, 55, 96
4, 142848, Note_off_c, 2, 55, 0
4, 142848, Note_on_c, 2, 56, 96
4, 143360, Note_off_c, 2, 56, 0
4, 143360, Note_on_c, 2, 58, 96
4, 143872, Note_off_c, 2, 58, 0
4, 143872, Note_on_c, 2, 55, 96
4, 144384, Note_off_c, 2, 55, 0
4, 144384, Note_on_c, 2, 60, 96
4, 145408, Note_off_c, 2, 60, 0
4, 145408, Note_on_c, 2, 65, 96
4, 146432, Note_off_c, 2, 65, 0
4, 146944, Note_on_c, 2, 60, 96
4, 147456, Note_off_c, 2, 60, 0
4, 147456, Note_on_c, 2, 58, 96
4, 147968, Note_off_c, 2, 58, 0
4, 147968, Note_on_c, 2, 63, 96
4, 148480, Note_off_c, 2, 63, 0
4, 148480, Note_on_c, 2, 62, 96
4, 148992, Note_off_c, 2, 62, 0
4, 148992, Note_on_c, 2, 60, 96
4, 149504, Note_off_c, 2, 60, 0
4, 149504, Note_on_c, 2, 58, 96
4, 150528, Note_off_c, 2, 58, 0
4, 150528, Note_on_c, 2, 58, 96
4, 151040, Note_off_c, 2, 58, 0
4, 151040, Note_on_c, 2, 51, 96
4, 151552, Note_off_c, 2, 51, 0
4, 151552, Note_on_c, 2, 61, 96
4, 152064, Note_off_c, 2, 61, 0
4, 152064, Note_on_c, 2, 60, 96
4, 152576, Note_off_c, 2, 60, 0
4, 152576, Note_on_c, 2, 58, 96
4, 153088, Note_off_c, 2, 58, 0
4, 153088, Note_on_c, 2, 56, 96
4, 153600, Note_off_c, 2, 56, 0
4, 153600, Note_on_c, 2, 55, 96
4, 154624, Note_off_c, 2, 55, 0
4, 155136, Note_on_c, 2, 55, 96
4, 155648, Note_off_c, 2, 55, 0
4, 155648, Note_on_c, 2, 56, 96
4, 156160, Note_off_c, 2, 56, 0
4, 156160, Note_on_c, 2, 58, 96
4, 156672, Note_off_c, 2, 58, 0
4, 156672, Note_on_c, 2, 51, 96
4, 157184, Note_off_c, 2, 51, 0
4, 157184, Note_on_c, 2, 51, 96
4, 157696, Note_off_c, 2, 51, 0
4, 157696, Note_on_c, 2, 56, 96
4, 158208, Note_off_c, 2, 56, 0
4, 158208, Note_on_c, 2, 55, 96
4, 158720, Note_off_c, 2, 55, 0
4, 158720, Note_on_c, 2, 56, 96
4, 159232, Note_off_c, 2, 56, 0
4, 159232, Note_on_c, 2, 60, 96
4, 159744, Note_off_c, 2, 60, 0
4, 159744, Note_on_c, 2, 58, 96
4, 160768, Note_off_c, 2, 58, 0
4, 219136, Note_on_c, 2, 51, 96
4, 219648, Note_off_c, 2, 51, 0
4, 219648, Note_on_c, 2, 53, 96
4, 220160, Note_off_c, 2, 53, 0
4, 220160, Note_on_c, 2, 55, 96
4, 220672, Note_off_c, 2, 55, 0
4, 220672, Note_on_c, 2, 51, 96
4, 221184, Note_off_c, 2, 51, 0
4, 221184, Note_on_c, 2, 58, 96
4, 222208, Note_off_c, 2, 58, 0
4, 222208, Note_on_c, 2, 65, 96
4, 223232, Note_off_c, 2, 65, 0
4, 223232, Note_on_c, 2, 58, 96
4, 224256, Note_off_c, 2, 58, 0
4, 224256, Note_on_c, 2, 67, 96
4, 225280, Note_off_c, 2, 67, 0
4, 225280, Note_on_c, 2, 63, 96
4, 227328, Note_off_c, 2, 63, 0
4, 228352, Note_on_c, 2, 67, 96
4, 228864, Note_off_c, 2, 67, 0
4, 228864, Note_on_c, 2, 65, 96
4, 229376, Note_off_c, 2, 65, 0
4, 229376, Note_on_c, 2, 63, 96
4, 229888, Note_off_c, 2, 63, 0
4, 229888, Note_on_c, 2, 62, 96
4, 230400, Note_off_c, 2, 62, 0
4, 230400, Note_on_c, 2, 60, 96
4, 231936, Note_off_c, 2, 60, 0
4, 231936, Note_on_c, 2, 60, 96
4, 232448, Note_off_c, 2, 60, 0
4, 232448, Note_on_c, 2, 56, 96
4, 232960, Note_off_c, 2, 56, 0
4, 232960, Note_on_c, 2, 53, 96
4, 233472, Note_off_c, 2, 53, 0
4, 233472, Note_on_c, 2, 65, 96
4, 234496, Note_off_c, 2, 65, 0
4, 234496, Note_on_c, 2, 62, 96
4, 235520, Note_off_c, 2, 62, 0
4, 249344, Note_on_c, 2, 58, 96
4, 249856, Note_off_c, 2, 58, 0
4, 249856, Note_on_c, 2, 60, 96
4, 250368, Note_off_c, 2, 60, 0
4, 250368, Note_on_c, 2, 62, 96
4, 250880, Note_off_c, 2, 62, 0
4, 250880, Note_on_c, 2, 63, 96
4, 251392, Note_off_c, 2, 63, 0
4, 251392, Note_on_c, 2, 65, 96
4, 251904, Note_off_c, 2, 65, 0
4, 251904, Note_on_c, 2, 67, 96
4, 259072, Note_off_c, 2, 67, 0
4, 259072, Note_on_c, 2, 65, 96
4, 259584, Note_off_c, 2, 65, 0
4, 259584, Note_on_c, 2, 63, 96
4, 260096, Note_off_c, 2, 63, 0
4, 260096, Note_on_c, 2, 62, 96
4, 260608, Note_off_c, 2, 62, 0
4, 260608, Note_on_c, 2, 63, 96
4, 261120, Note_off_c, 2, 63, 0
4, 261120, Note_on_c, 2, 60, 96
4, 262144, Note_off_c, 2, 60, 0
4, 262144, Note_on_c, 2, 62, 96
4, 262656, Note_off_c, 2, 62, 0
4, 262656, Note_on_c, 2, 63, 96
4, 263168, Note_off_c, 2, 63, 0
4, 263168, Note_on_c, 2, 65, 96
4, 263680, Note_off_c, 2, 65, 0
4, 263680, Note_on_c, 2, 62, 96
4, 264192, Note_off_c, 2, 62, 0
4, 264192, Note_on_c, 2, 58, 96
4, 265216, Note_off_c, 2, 58, 0
4, 267776, Note_on_c, 2, 58, 96
4, 268288, Note_off_c, 2, 58, 0
4, 268288, Note_on_c, 2, 60, 96
4, 268800, Note_off_c, 2, 60, 0
4, 268800, Note_on_c, 2, 62, 96
4, 269312, Note_off_c, 2, 62, 0
4, 269312, Note_on_c, 2, 63, 96
4, 269824, Note_off_c, 2, 63, 0
4, 269824, Note_on_c, 2, 65, 96
4, 270336, Note_off_c, 2, 65, 0
4, 270336, Note_on_c, 2, 67, 96
4, 271360, Note_off_c, 2, 67, 0
4, 271360, Note_on_c, 2, 65, 96
4, 272384, Note_off_c, 2, 65, 0
4, 272384, Note_on_c, 2, 63, 96
4, 273408, Note_off_c, 2, 63, 0
4, 273408, Note_on_c, 2, 62, 96
4, 274432, Note_off_c, 2, 62, 0
4, 274432, Note_on_c, 2, 58, 96
4, 275456, Note_off_c, 2, 58, 0
4, 288768, Note_on_c, 2, 55, 96
4, 289792, Note_off_c, 2, 55, 0
4, 289792, Note_on_c, 2, 58, 96
4, 290816, Note_off_c, 2, 58, 0
4, 291840, Note_on_c, 2, 60, 96
4, 292864, Note_off_c, 2, 60, 0
4, 292864, Note_on_c, 2, 67, 96
4, 293888, Note_off_c, 2, 67, 0
4, 296448, Note_on_c, 2, 58, 96
4, 296960, Note_off_c, 2, 58, 0
4, 296960, Note_on_c, 2, 63, 96
4, 297472, Note_off_c, 2, 63, 0
4, 297472, Note_on_c, 2, 61, 96
4, 297984, Note_off_c, 2, 61, 0
4, 297984, Note_on_c, 2, 60, 96
4, 298496, Note_off_c, 2, 60, 0
4, 298496, Note_on_c, 2, 58, 96
4, 299008, Note_off_c, 2, 58, 0
4, 299008, Note_on_c, 2, 56, 96
4, 300032, Note_off_c, 2, 56, 0
4, 300032, Note_on_c, 2, 51, 96
4, 301056, Note_off_c, 2, 51, 0
4, 301056, Note_on_c, 2, 51, 96
4, 301568, Note_off_c, 2, 51, 0
4, 301568, Note_on_c, 2, 53, 96
4, 302080, Note_off_c, 2, 53, 0
4, 302080, Note_on_c, 2, 55, 96
4, 302592, Note_off_c, 2, 55, 0
4, 302592, Note_on_c, 2, 56, 96
4, 303104, Note_off_c, 2, 56, 0
4, 303104, Note_on_c, 2, 58, 96
4, 303616, Note_off_c, 2, 58, 0
4, 303616, Note_on_c, 2, 55, 96
4, 304128, Note_off_c, 2, 55, 0
4, 304128, Note_on_c, 2, 60, 96
4, 305152, Note_off_c, 2, 60, 0
4, 305152, Note_on_c, 2, 65, 96
4, 306176, Note_off_c, 2, 65, 0
4, 306688, Note_on_c, 2, 60, 96
4, 307200, Note_off_c, 2, 60, 0
4, 307200, Note_on_c, 2, 58, 96
4, 307712, Note_off_c, 2, 58, 0
4, 307712, Note_on_c, 2, 63, 96
4, 308224, Note_off_c, 2, 63, 0
4, 308224, Note_on_c, 2, 62, 96
4, 308736, Note_off_c, 2, 62, 0
4, 308736, Note_on_c, 2, 60, 96
4, 309248, Note_off_c, 2, 60, 0
4, 309248, Note_on_c, 2, 58, 96
4, 310784, Note_off_c, 2, 58, 0
4, 310784, Note_on_c, 2, 51, 96
4, 311296, Note_off_c, 2, 51, 0
4, 311296, Note_on_c, 2, 61, 96
4, 311808, Note_off_c, 2, 61, 0
4, 311808, Note_on_c, 2, 60, 96
4, 312320, Note_off_c, 2, 60, 0
4, 312320, Note_on_c, 2, 58, 96
4, 312832, Note_off_c, 2, 58, 0
4, 312832, Note_on_c, 2, 56, 96
4, 313344, Note_off_c, 2, 56, 0
4, 313344, Note_on_c, 2, 55, 96
4, 314368, Note_off_c, 2, 55, 0
4, 314880, Note_on_c, 2, 55, 96
4, 315392, Note_off_c, 2, 55, 0
4, 315392, Note_on_c, 2, 56, 96
4, 315904, Note_off_c, 2, 56, 0
4, 315904, Note_on_c, 2, 58, 96
4, 316416, Note_off_c, 2, 58, 0
4, 316416, Note_on_c, 2, 51, 96
4, 316928, Note_off_c, 2, 51, 0
4, 316928, Note_on_c, 2, 51, 96
4, 317440, Note_off_c, 2, 51, 0
4, 317440, Note_on_c, 2, 56, 96
4, 317952, Note_off_c, 2, 56, 0
4, 317952, Note_on_c, 2, 55, 96
4, 318464, Note_off_c, 2, 55, 0
4, 318464, Note_on_c, 2, 56, 96
4, 318976, Note_off_c, 2, 56, 0
4, 318976, Note_on_c, 2, 60, 96
4, 319488, Note_off_c, 2, 60, 0
4, 319488, Note_on_c, 2, 58, 96
4, 320512, Note_off_c, 2, 58, 0
4, 357888, Note_on_c, 2, 58, 96
4, 358400, Note_off_c, 2, 58, 0
4, 358400, Note_on_c, 2, 65, 96
4, 358912, Note_off_c, 2, 65, 0
4, 358912, Note_on_c, 2, 62, 96
4, 359424, Note_off_c, 2, 62, 0
4, 359424, Note_on_c, 2, 63, 96
4, 360448, Note_off_c, 2, 63, 0
4, 361984, Note_on_c, 2, 58, 96
4, 362496, Note_off_c, 2, 58, 0
4, 362496, Note_on_c, 2, 63, 96
4, 363520, Note_off_c, 2, 63, 0
4, 365056, Note_on_c, 2, 58, 96
4, 365568, Note_off_c, 2, 58, 0
4, 365568, Note_on_c, 2, 63, 96
4, 366592, Note_off_c, 2, 63, 0
4, 367104, Note_on_c, 2, 58, 96
4, 367616, Note_off_c, 2, 58, 0
4, 367616, Note_on_c, 2, 65, 96
4, 368640, Note_off_c, 2, 65, 0
4, 369152, Note_on_c, 2, 63, 96
4, 369664, Note_off_c, 2, 63, 0
4, 369664, Note_on_c, 2, 63, 96
4, 370176, Note_off_c, 2, 63, 0
4, 370176, Note_on_c, 2, 61, 96
4, 370688, Note_off_c, 2, 61, 0
4, 370688, Note_on_c, 2, 61, 96
4, 371200, Note_off_c, 2, 61, 0
4, 371200, Note_on_c, 2, 60, 96
4, 371712, Note_off_c, 2, 60, 0
4, 371712, Note_on_c, 2, 60, 96
4, 372224, Note_off_c, 2, 60, 0
4, 372224, Note_on_c, 2, 53, 96
4, 372736, Note_off_c, 2, 53, 0
4, 372736, Note_on_c, 2, 58, 96
4, 373760, Note_off_c, 2, 58, 0
4, 374272, Note_on_c, 2, 58, 96
4, 374784, Note_off_c, 2, 58, 0
4, 374784, Note_on_c, 2, 63, 96
4, 375808, Note_off_c, 2, 63, 0
4, 376320, Note_on_c, 2, 63, 96
4, 376832, Note_off_c, 2, 63, 0
4, 376832, Note_on_c, 2, 68, 96
4, 377344, Note_off_c, 2, 68, 0
4, 377344, Note_on_c, 2, 56, 96
4, 377856, Note_off_c, 2, 56, 0
4, 377856, Note_on_c, 2, 58, 96
4, 378880, Note_off_c, 2, 58, 0
4, 388608, Note_on_c, 2, 58, 96
4, 389120, Note_off_c, 2, 58, 0
4, 389120, Note_on_c, 2, 65, 96
4, 389632, Note_off_c, 2, 65, 0
4, 389632, Note_on_c, 2, 62, 96
4, 390144, Note_off_c, 2, 62, 0
4, 390144, Note_on_c, 2, 63, 96
4, 391168, Note_off_c, 2, 63, 0
4, 392704, Note_on_c, 2, 58, 96
4, 393216, Note_off_c, 2, 58, 0
4, 393216, Note_on_c, 2, 63, 96
4, 394240, Note_off_c, 2, 63, 0
4, 395776, Note_on_c, 2, 58, 96
4, 396288, Note_off_c, 2, 58, 0
4, 396288, Note_on_c, 2, 63, 96
4, 397312, Note_off_c, 2, 63, 0
4, 397824, Note_on_c, 2, 58, 96
4, 398336, Note_off_c, 2, 58, 0
4, 398336, Note_on_c, 2, 65, 96
4, 399360, Note_off_c, 2, 65, 0
4, 399872, Note_on_c, 2, 63, 96
4, 400384, Note_off_c, 2, 63, 0
4, 400384, Note_on_c, 2, 63, 96
4, 400896, Note_off_c, 2, 63, 0
4, 400896, Note_on_c, 2, 61, 96
4, 401408, Note_off_c, 2, 61, 0
4, 401408, Note_on_c, 2, 61, 96
4, 401920, Note_off_c, 2, 61, 0
4, 401920, Note_on_c, 2, 60, 96
4, 402432, Note_off_c, 2, 60, 0
4, 402432, Note_on_c, 2, 60, 96
4, 402944, Note_off_c, 2, 60, 0
4, 402944, Note_on_c, 2, 53, 96
4, 403456, Note_off_c, 2, 53, 0
4, 403456, Note_on_c, 2, 58, 96
4, 404480, Note_off_c, 2, 58, 0
4, 404992, Note_on_c, 2, 58, 96
4, 405504, Note_off_c, 2, 58, 0
4, 405504, Note_on_c, 2, 63, 96
4, 406528, Note_off_c, 2, 63, 0
4, 407040, Note_on_c, 2, 63, 96
4, 407552, Note_off_c, 2, 63, 0
4, 407552, Note_on_c, 2, 68, 96
4, 408064, Note_off_c, 2, 68, 0
4, 408064, Note_on_c, 2, 56, 96
4, 408576, Note_off_c, 2, 56, 0
4, 408576, Note_on_c, 2, 58, 96
4, 409600, Note_off_c, 2, 58, 0
4, 425984, Note_on_c, 2, 58, 96
4, 428544, Note_off_c, 2, 58, 0
4, 428544, Note_on_c, 2, 57, 96
4, 428800, Note_off_c, 2, 57, 0
4, 428800, Note_on_c, 2, 58, 96
4, 429056, Note_off_c, 2, 58, 0
4, 429056, Note_on_c, 2, 60, 96
4, 429312, Note_off_c, 2, 60, 0
4, 429312, Note_on_c, 2, 58, 96
4, 429568, Note_off_c, 2, 58, 0
4, 429568, Note_on_c, 2, 57, 96
4, 429824, Note_off_c, 2, 57, 0
4, 429824, Note_on_c, 2, 55, 96
4, 430080, Note_off_c, 2, 55, 0
4, 430080, Note_on_c, 2, 53, 96
4, 430336, Note_off_c, 2, 53, 0
4, 430336, Note_on_c, 2, 55, 96
4, 430592, Note_off_c, 2, 55, 0
4, 430592, Note_on_c, 2, 57, 96
4, 431360, Note_off_c, 2, 57, 0
4, 431360, Note_on_c, 2, 58, 96
4, 431616, Note_off_c, 2, 58, 0
4, 431616, Note_on_c, 2, 60, 96
4, 432384, Note_off_c, 2, 60, 0
4, 432384, Note_on_c, 2, 62, 96
4, 432640, Note_off_c, 2, 62, 0
4, 432640, Note_on_c, 2, 63, 96
4, 433152, Note_off_c, 2, 63, 0
4, 433152, Note_on_c, 2, 62, 96
4, 433664, Note_off_c, 2, 62, 0
4, 433664, Note_on_c, 2, 60, 96
4, 433920, Note_off_c, 2, 60, 0
4, 433920, Note_on_c, 2, 62, 96
4, 434176, Note_off_c, 2, 62, 0
4, 434176, Note_on_c, 2, 58, 96
4, 434688, Note_off_c, 2, 58, 0
4, 434688, Note_on_c, 2, 60, 96
4, 434944, Note_off_c, 2, 60, 0
4, 434944, Note_on_c, 2, 62, 96
4, 435200, Note_off_c, 2, 62, 0
4, 435200, Note_on_c, 2, 63, 96
4, 435456, Note_off_c, 2, 63, 0
4, 435456, Note_on_c, 2, 65, 96
4, 435712, Note_off_c, 2, 65, 0
4, 435712, Note_on_c, 2, 67, 96
4, 436224, Note_off_c, 2, 67, 0
4, 436224, Note_on_c, 2, 60, 96
4, 436480, Note_off_c, 2, 60, 0
4, 436480, Note_on_c, 2, 58, 96
4, 436736, Note_off_c, 2, 58, 0
4, 436736, Note_on_c, 2, 56, 96
4, 436992, Note_off_c, 2, 56, 0
4, 436992, Note_on_c, 2, 58, 96
4, 437248, Note_off_c, 2, 58, 0
4, 437248, Note_on_c, 2, 60, 96
4, 437504, Note_off_c, 2, 60, 0
4, 437504, Note_on_c, 2, 62, 96
4, 437760, Note_off_c, 2, 62, 0
4, 437760, Note_on_c, 2, 60, 96
4, 438016, Note_off_c, 2, 60, 0
4, 438016, Note_on_c, 2, 62, 96
4, 438272, Note_off_c, 2, 62, 0
4, 438272, Note_on_c, 2, 63, 96
4, 438528, Note_off_c, 2, 63, 0
4, 438528, Note_on_c, 2, 62, 96
4, 438784, Note_off_c, 2, 62, 0
4, 438784, Note_on_c, 2, 60, 96
4, 439040, Note_off_c, 2, 60, 0
4, 439040, Note_on_c, 2, 58, 96
4, 439296, Note_off_c, 2, 58, 0
4, 439296, Note_on_c, 2, 56, 96
4, 439552, Note_off_c, 2, 56, 0
4, 439552, Note_on_c, 2, 55, 96
4, 439808, Note_off_c, 2, 55, 0
4, 439808, Note_on_c, 2, 53, 96
4, 440064, Note_off_c, 2, 53, 0
4, 440064, Note_on_c, 2, 55, 96
4, 440320, Note_off_c, 2, 55, 0
4, 440320, Note_on_c, 2, 56, 96
4, 442624, Note_off_c, 2, 56, 0
4, 442624, Note_on_c, 2, 55, 96
4, 442880, Note_off_c, 2, 55, 0
4, 442880, Note_on_c, 2, 53, 96
4, 443136, Note_off_c, 2, 53, 0
4, 443136, Note_on_c, 2, 55, 96
4, 443392, Note_off_c, 2, 55, 0
4, 443392, Note_on_c, 2, 56, 96
4, 443648, Note_off_c, 2, 56, 0
4, 443648, Note_on_c, 2, 55, 96
4, 443904, Note_off_c, 2, 55, 0
4, 443904, Note_on_c, 2, 56, 96
4, 444160, Note_off_c, 2, 56, 0
4, 444160, Note_on_c, 2, 58, 96
4, 444416, Note_off_c, 2, 58, 0
4, 444416, Note_on_c, 2, 60, 96
4, 444672, Note_off_c, 2, 60, 0
4, 444672, Note_on_c, 2, 58, 96
4, 444928, Note_off_c, 2, 58, 0
4, 444928, Note_on_c, 2, 60, 96
4, 445184, Note_off_c, 2, 60, 0
4, 445184, Note_on_c, 2, 62, 96
4, 445440, Note_off_c, 2, 62, 0
4, 445440, Note_on_c, 2, 63, 96
4, 445952, Note_off_c, 2, 63, 0
4, 445952, Note_on_c, 2, 58, 96
4, 446464, Note_off_c, 2, 58, 0
4, 446464, Note_on_c, 2, 55, 96
4, 446976, Note_off_c, 2, 55, 0
4, 446976, Note_on_c, 2, 56, 96
4, 447488, Note_off_c, 2, 56, 0
4, 447488, Note_on_c, 2, 58, 96
4, 447744, Note_off_c, 2, 58, 0
4, 447744, Note_on_c, 2, 60, 96
4, 448000, Note_off_c, 2, 60, 0
4, 448000, Note_on_c, 2, 62, 96
4, 448256, Note_off_c, 2, 62, 0
4, 448256, Note_on_c, 2, 58, 96
4, 448512, Note_off_c, 2, 58, 0
4, 448512, Note_on_c, 2, 67, 96
4, 449536, Note_off_c, 2, 67, 0
4, 450048, Note_on_c, 2, 55, 96
4, 450560, Note_off_c, 2, 55, 0
4, 450560, Note_on_c, 2, 58, 96
4, 451072, Note_off_c, 2, 58, 0
4, 451072, Note_on_c, 2, 62, 96
4, 451584, Note_off_c, 2, 62, 0
4, 451584, Note_on_c, 2, 63, 96
4, 451840, Note_off_c, 2, 63, 0
4, 451840, Note_on_c, 2, 62, 96
4, 452096, Note_off_c, 2, 62, 0
4, 452096, Note_on_c, 2, 60, 96
4, 452352, Note_off_c, 2, 60, 0
4, 452352, Note_on_c, 2, 62, 96
4, 452608, Note_off_c, 2, 62, 0
4, 452608, Note_on_c, 2, 63, 96
4, 452864, Note_off_c, 2, 63, 0
4, 452864, Note_on_c, 2, 60, 96
4, 453120, Note_off_c, 2, 60, 0
4, 453120, Note_on_c, 2, 62, 96
4, 453376, Note_off_c, 2, 62, 0
4, 453376, Note_on_c, 2, 63, 96
4, 453632, Note_off_c, 2, 63, 0
4, 453632, Note_on_c, 2, 57, 96
4, 454656, Note_off_c, 2, 57, 0
4, 455168, Note_on_c, 2, 58, 96
4, 455680, Note_off_c, 2, 58, 0
4, 455680, Note_on_c, 2, 57, 96
4, 456192, Note_off_c, 2, 57, 0
4, 456192, Note_on_c, 2, 53, 96
4, 456704, Note_off_c, 2, 53, 0
4, 456704, Note_on_c, 2, 60, 96
4, 457216, Note_off_c, 2, 60, 0
4, 457216, Note_on_c, 2, 58, 96
4, 457472, Note_off_c, 2, 58, 0
4, 457472, Note_on_c, 2, 60, 96
4, 457728, Note_off_c, 2, 60, 0
4, 457728, Note_on_c, 2, 62, 96
4, 458240, Note_off_c, 2, 62, 0
4, 458240, Note_on_c, 2, 53, 96
4, 459008, Note_off_c, 2, 53, 0
4, 459008, Note_on_c, 2, 55, 96
4, 459264, Note_off_c, 2, 55, 0
4, 459264, Note_on_c, 2, 53, 96
4, 459520, Note_off_c, 2, 53, 0
4, 459520, Note_on_c, 2, 55, 96
4, 459776, Note_off_c, 2, 55, 0
4, 459776, Note_on_c, 2, 56, 96
4, 460032, Note_off_c, 2, 56, 0
4, 460032, Note_on_c, 2, 58, 96
4, 460288, Note_off_c, 2, 58, 0
4, 460288, Note_on_c, 2, 60, 96
4, 460544, Note_off_c, 2, 60, 0
4, 460544, Note_on_c, 2, 56, 96
4, 460800, Note_off_c, 2, 56, 0
4, 460800, Note_on_c, 2, 61, 96
4, 461312, Note_off_c, 2, 61, 0
4, 461312, Note_on_c, 2, 58, 96
4, 462336, Note_off_c, 2, 58, 0
4, 462336, Note_on_c, 2, 55, 96
4, 463360, Note_off_c, 2, 55, 0
4, 463360, Note_on_c, 2, 60, 96
4, 463872, Note_off_c, 2, 60, 0
4, 463872, Note_on_c, 2, 60, 96
4, 464896, Note_off_c, 2, 60, 0
4, 465408, Note_on_c, 2, 53, 96
4, 465664, Note_off_c, 2, 53, 0
4, 465664, Note_on_c, 2, 55, 96
4, 465920, Note_off_c, 2, 55, 0
4, 465920, Note_on_c, 2, 56, 96
4, 466176, Note_off_c, 2, 56, 0
4, 466176, Note_on_c, 2, 58, 96
4, 466432, Note_off_c, 2, 58, 0
4, 466432, Note_on_c, 2, 60, 96
4, 466944, Note_off_c, 2, 60, 0
4, 466944, Note_on_c, 2, 60, 96
4, 467456, Note_off_c, 2, 60, 0
4, 467456, Note_on_c, 2, 59, 96
4, 467712, Note_off_c, 2, 59, 0
4, 467712, Note_on_c, 2, 60, 96
4, 467968, Note_off_c, 2, 60, 0
4, 467968, Note_on_c, 2, 62, 96
4, 468224, Note_off_c, 2, 62, 0
4, 468224, Note_on_c, 2, 63, 96
4, 468480, Note_off_c, 2, 63, 0
4, 468480, Note_on_c, 2, 62, 96
4, 468736, Note_off_c, 2, 62, 0
4, 468736, Note_on_c, 2, 63, 96
4, 468992, Note_off_c, 2, 63, 0
4, 468992, Note_on_c, 2, 65, 96
4, 469248, Note_off_c, 2, 65, 0
4, 469248, Note_on_c, 2, 63, 96
4, 469504, Note_off_c, 2, 63, 0
4, 469504, Note_on_c, 2, 62, 96
4, 469760, Note_off_c, 2, 62, 0
4, 469760, Note_on_c, 2, 60, 96
4, 470016, Note_off_c, 2, 60, 0
4, 470016, Note_on_c, 2, 67, 96
4, 470272, Note_off_c, 2, 67, 0
4, 470272, Note_on_c, 2, 55, 96
4, 470528, Note_off_c, 2, 55, 0
4, 470528, Note_on_c, 2, 57, 96
4, 470784, Note_off_c, 2, 57, 0
4, 470784, Note_on_c, 2, 59, 96
4, 471040, Note_off_c, 2, 59, 0
4, 471040, Note_on_c, 2, 60, 96
4, 471296, Note_off_c, 2, 60, 0
4, 471296, Note_on_c, 2, 59, 96
4, 471552, Note_off_c, 2, 59, 0
4, 471552, Note_on_c, 2, 60, 96
4, 471808, Note_off_c, 2, 60, 0
4, 471808, Note_on_c, 2, 62, 96
4, 472064, Note_off_c, 2, 62, 0
4, 472064, Note_on_c, 2, 63, 96
4, 472320, Note_off_c, 2, 63, 0
4, 472320, Note_on_c, 2, 62, 96
4, 472576, Note_off_c, 2, 62, 0
4, 472576, Note_on_c, 2, 60, 96
4, 472832, Note_off_c, 2, 60, 0
4, 472832, Note_on_c, 2, 59, 96
4, 473088, Note_off_c, 2, 59, 0
4, 473088, Note_on_c, 2, 60, 96
4, 473600, Note_off_c, 2, 60, 0
4, 473600, Note_on_c, 2, 60, 96
4, 474112, Note_off_c, 2, 60, 0
4, 474112, Note_on_c, 2, 60, 96
4, 474624, Note_off_c, 2, 60, 0
4, 474624, Note_on_c, 2, 59, 96
4, 475136, Note_off_c, 2, 59, 0
4, 475136, Note_on_c, 2, 59, 96
4, 475648, Note_off_c, 2, 59, 0
4, 475648, Note_on_c, 2, 60, 96
4, 476160, Note_off_c, 2, 60, 0
4, 476160, Note_on_c, 2, 60, 96
4, 477184, Note_off_c, 2, 60, 0
4, 492032, Note_on_c, 2, 58, 96
4, 492544, Note_off_c, 2, 58, 0
4, 492544, Note_on_c, 2, 63, 96
4, 493056, Note_off_c, 2, 63, 0
4, 493056, Note_on_c, 2, 62, 96
4, 493568, Note_off_c, 2, 62, 0
4, 493568, Note_on_c, 2, 63, 96
4, 494592, Note_off_c, 2, 63, 0
4, 495104, Note_on_c, 2, 63, 96
4, 495616, Note_off_c, 2, 63, 0
4, 495616, Note_on_c, 2, 56, 96
4, 496128, Note_off_c, 2, 56, 0
4, 496128, Note_on_c, 2, 60, 96
4, 496640, Note_off_c, 2, 60, 0
4, 496640, Note_on_c, 2, 65, 96
4, 497664, Note_off_c, 2, 65, 0
4, 498176, Note_on_c, 2, 62, 96
4, 498688, Note_off_c, 2, 62, 0
4, 498688, Note_on_c, 2, 59, 96
4, 499200, Note_off_c, 2, 59, 0
4, 499200, Note_on_c, 2, 55, 96
4, 499712, Note_off_c, 2, 55, 0
4, 499712, Note_on_c, 2, 67, 96
4, 501760, Note_off_c, 2, 67, 0
4, 503296, Note_on_c, 2, 68, 96
4, 503808, Note_off_c, 2, 68, 0
4, 503808, Note_on_c, 2, 63, 96
4, 504832, Note_off_c, 2, 63, 0
4, 505344, Note_on_c, 2, 67, 96
4, 505856, Note_off_c, 2, 67, 0
4, 505856, Note_on_c, 2, 63, 96
4, 506368, Note_off_c, 2, 63, 0
4, 506368, Note_on_c, 2, 67, 96
4, 506880, Note_off_c, 2, 67, 0
4, 506880, Note_on_c, 2, 63, 96
4, 507904, Note_off_c, 2, 63, 0
4, 518144, Note_on_c, 2, 67, 96
4, 519168, Note_off_c, 2, 67, 0
4, 519168, Note_on_c, 2, 68, 96
4, 520192, Note_off_c, 2, 68, 0
4, 520192, Note_on_c, 2, 60, 96
4, 522240, Note_off_c, 2, 60, 0
4, 522240, Note_on_c, 2, 58, 96
4, 523264, Note_off_c, 2, 58, 0
4, 524288, Note_on_c, 2, 63, 96
4, 525312, Note_off_c, 2, 63, 0
4, 525312, Note_on_c, 2, 62, 96
4, 526336, Note_off_c, 2, 62, 0
4, 526336, Note_on_c, 2, 59, 96
4, 527872, Note_off_c, 2, 59, 0
4, 527872, Note_on_c, 2, 60, 96
4, 528128, Note_off_c, 2, 60, 0
4, 528128, Note_on_c, 2, 62, 96
4, 528384, Note_off_c, 2, 62, 0
4, 528384, Note_on_c, 2, 60, 96
4, 529408, Note_off_c, 2, 60, 0
4, 529920, Note_on_c, 2, 63, 96
4, 530432, Note_off_c, 2, 63, 0
4, 530432, Note_on_c, 2, 60, 96
4, 530944, Note_off_c, 2, 60, 0
4, 530944, Note_on_c, 2, 67, 96
4, 531456, Note_off_c, 2, 67, 0
4, 531456, Note_on_c, 2, 63, 96
4, 532480, Note_off_c, 2, 63, 0
4, 532480, Note_on_c, 2, 58, 96
4, 533504, Note_off_c, 2, 58, 0
4, 533504, Note_on_c, 2, 58, 96
4, 534528, Note_off_c, 2, 58, 0
4, 534528, Note_on_c, 2, 56, 96
4, 535552, Note_off_c, 2, 56, 0
4, 535552, Note_on_c, 2, 63, 96
4, 536064, Note_off_c, 2, 63, 0
4, 536064, Note_on_c, 2, 61, 96
4, 536576, Note_off_c, 2, 61, 0
4, 536576, Note_on_c, 2, 63, 96
4, 537088, Note_off_c, 2, 63, 0
4, 537088, Note_on_c, 2, 61, 96
4, 537600, Note_off_c, 2, 61, 0
4, 537600, Note_on_c, 2, 60, 96
4, 538624, Note_off_c, 2, 60, 0
4, 538624, Note_on_c, 2, 60, 96
4, 539648, Note_off_c, 2, 60, 0
4, 539648, Note_on_c, 2, 60, 96
4, 540672, Note_off_c, 2, 60, 0
4, 540672, Note_on_c, 2, 58, 96
4, 541696, Note_off_c, 2, 58, 0
4, 541696, Note_on_c, 2, 65, 96
4, 542720, Note_off_c, 2, 65, 0
4, 546816, Note_on_c, 2, 58, 96
4, 547840, Note_off_c, 2, 58, 0
4, 549888, Note_on_c, 2, 60, 96
4, 550912, Note_off_c, 2, 60, 0
4, 554496, Note_on_c, 2, 58, 96
4, 555008, Note_off_c, 2, 58, 0
4, 555008, Note_on_c, 2, 63, 96
4, 555520, Note_off_c, 2, 63, 0
4, 555520, Note_on_c, 2, 61, 96
4, 556032, Note_off_c, 2, 61, 0
4, 556032, Note_on_c, 2, 60, 96
4, 556544, Note_off_c, 2, 60, 0
4, 556544, Note_on_c, 2, 58, 96
4, 557056, Note_off_c, 2, 58, 0
4, 557056, Note_on_c, 2, 56, 96
4, 558080, Note_off_c, 2, 56, 0
4, 558080, Note_on_c, 2, 51, 96
4, 559104, Note_off_c, 2, 51, 0
4, 559104, Note_on_c, 2, 51, 96
4, 559616, Note_off_c, 2, 51, 0
4, 559616, Note_on_c, 2, 53, 96
4, 560128, Note_off_c, 2, 53, 0
4, 560128, Note_on_c, 2, 55, 96
4, 560640, Note_off_c, 2, 55, 0
4, 560640, Note_on_c, 2, 56, 96
4, 561152, Note_off_c, 2, 56, 0
4, 561152, Note_on_c, 2, 58, 96
4, 561664, Note_off_c, 2, 58, 0
4, 561664, Note_on_c, 2, 55, 96
4, 562176, Note_off_c, 2, 55, 0
4, 562176, Note_on_c, 2, 60, 96
4, 563200, Note_off_c, 2, 60, 0
4, 563200, Note_on_c, 2, 65, 96
4, 564224, Note_off_c, 2, 65, 0
4, 564736, Note_on_c, 2, 60, 96
4, 565248, Note_off_c, 2, 60, 0
4, 565248, Note_on_c, 2, 58, 96
4, 565760, Note_off_c, 2, 58, 0
4, 565760, Note_on_c, 2, 63, 96
4, 566272, Note_off_c, 2, 63, 0
4, 566272, Note_on_c, 2, 62, 96
4, 566784, Note_off_c, 2, 62, 0
4, 566784, Note_on_c, 2, 60, 96
4, 567296, Note_off_c, 2, 60, 0
4, 567296, Note_on_c, 2, 58, 96
4, 568832, Note_off_c, 2, 58, 0
4, 568832, Note_on_c, 2, 51, 96
4, 569344, Note_off_c, 2, 51, 0
4, 569344, Note_on_c, 2, 61, 96
4, 569856, Note_off_c, 2, 61, 0
4, 569856, Note_on_c, 2, 60, 96
4, 570368, Note_off_c, 2, 60, 0
4, 570368, Note_on_c, 2, 58, 96
4, 570880, Note_off_c, 2, 58, 0
4, 570880, Note_on_c, 2, 56, 96
4, 571392, Note_off_c, 2, 56, 0
4, 571392, Note_on_c, 2, 55, 96
4, 572416, Note_off_c, 2, 55, 0
4, 572928, Note_on_c, 2, 55, 96
4, 573440, Note_off_c, 2, 55, 0
4, 573440, Note_on_c, 2, 56, 96
4, 573952, Note_off_c, 2, 56, 0
4, 573952, Note_on_c, 2, 58, 96
4, 574464, Note_off_c, 2, 58, 0
4, 574464, Note_on_c, 2, 51, 96
4, 574976, Note_off_c, 2, 51, 0
4, 574976, Note_on_c, 2, 51, 96
4, 575488, Note_off_c, 2, 51, 0
4, 575488, Note_on_c, 2, 56, 96
4, 576000, Note_off_c, 2, 56, 0
4, 576000, Note_on_c, 2, 55, 96
4, 576512, Note_off_c, 2, 55, 0
4, 576512, Note_on_c, 2, 56, 96
4, 577024, Note_off_c, 2, 56, 0
4, 577024, Note_on_c, 2, 60, 96
4, 577536, Note_off_c, 2, 60, 0
4, 577536, Note_on_c, 2, 58, 96
4, 579584, Note_off_c, 2, 58, 0
4, 629760, End_track
5, 0, Start_track
5, 0, Title_t, "Instrument 4"
5, 62464, Note_on_c, 3, 46, 96
5, 62976, Note_off_c, 3, 46, 0
5, 62976, Note_on_c, 3, 48, 96
5, 63488, Note_off_c, 3, 48, 0
5, 63488, Note_on_c, 3, 50, 96
5, 64000, Note_off_c, 3, 50, 0
5, 64000, Note_on_c, 3, 46, 96
5, 64512, Note_off_c, 3, 46, 0
5, 64512, Note_on_c, 3, 51, 96
5, 65536, Note_off_c, 3, 51, 0
5, 65536, Note_on_c, 3, 58, 96
5, 66048, Note_off_c, 3, 58, 0
5, 66048, Note_on_c, 3, 56, 96
5, 66560, Note_off_c, 3, 56, 0
5, 66560, Note_on_c, 3, 55, 96
5, 67072, Note_off_c, 3, 55, 0
5, 67072, Note_on_c, 3, 53, 96
5, 67584, Note_off_c, 3, 53, 0
5, 67584, Note_on_c, 3, 51, 96
5, 68608, Note_off_c, 3, 51, 0
5, 68608, Note_on_c, 3, 63, 96
5, 70656, Note_off_c, 3, 63, 0
5, 71680, Note_on_c, 3, 51, 96
5, 72704, Note_off_c, 3, 51, 0
5, 72704, Note_on_c, 3, 53, 96
5, 73728, Note_off_c, 3, 53, 0
5, 73728, Note_on_c, 3, 58, 96
5, 74752, Note_off_c, 3, 58, 0
5, 74752, Note_on_c, 3, 46, 96
5, 75776, Note_off_c, 3, 46, 0
5, 95744, Note_on_c, 3, 55, 96
5, 96256, Note_off_c, 3, 55, 0
5, 96256, Note_on_c, 3, 56, 96
5, 96768, Note_off_c, 3, 56, 0
5, 96768, Note_on_c, 3, 58, 96
5, 97280, Note_off_c, 3, 58, 0
5, 97280, Note_on_c, 3, 60, 96
5, 97792, Note_off_c, 3, 60, 0
5, 97792, Note_on_c, 3, 62, 96
5, 98304, Note_off_c, 3, 62, 0
5, 98304, Note_on_c, 3, 63, 96
5, 102400, Note_off_c, 3, 63, 0
5, 102400, Note_on_c, 3, 62, 96
5, 102912, Note_off_c, 3, 62, 0
5, 102912, Note_on_c, 3, 60, 96
5, 103424, Note_off_c, 3, 60, 0
5, 103424, Note_on_c, 3, 62, 96
5, 104960, Note_off_c, 3, 62, 0
5, 104960, Note_on_c, 3, 63, 96
5, 105216, Note_off_c, 3, 63, 0
5, 105216, Note_on_c, 3, 62, 96
5, 105472, Note_off_c, 3, 62, 0
5, 105472, Note_on_c, 3, 60, 96
5, 105984, Note_off_c, 3, 60, 0
5, 105984, Note_on_c, 3, 53, 96
5, 106496, Note_off_c, 3, 53, 0
5, 106496, Note_on_c, 3, 55, 96
5, 107008, Note_off_c, 3, 55, 0
5, 107008, Note_on_c, 3, 57, 96
5, 107520, Note_off_c, 3, 57, 0
5, 107520, Note_on_c, 3, 58, 96
5, 109056, Note_off_c, 3, 58, 0
5, 109056, Note_on_c, 3, 57, 96
5, 109568, Note_off_c, 3, 57, 0
5, 109568, Note_on_c, 3, 55, 96
5, 110080, Note_off_c, 3, 55, 0
5, 110080, Note_on_c, 3, 53, 96
5, 110592, Note_off_c, 3, 53, 0
5, 110592, Note_on_c, 3, 51, 96
5, 111104, Note_off_c, 3, 51, 0
5, 111104, Note_on_c, 3, 48, 96
5, 111616, Note_off_c, 3, 48, 0
5, 111616, Note_on_c, 3, 53, 96
5, 112128, Note_off_c, 3, 53, 0
5, 112128, Note_on_c, 3, 51, 96
5, 112640, Note_off_c, 3, 51, 0
5, 112640, Note_on_c, 3, 53, 96
5, 113664, Note_off_c, 3, 53, 0
5, 113664, Note_on_c, 3, 58, 96
5, 114688, Note_off_c, 3, 58, 0
5, 114688, Note_on_c, 3, 46, 96
5, 115712, Note_off_c, 3, 46, 0
5, 129024, Note_on_c, 3, 51, 96
5, 130048, Note_off_c, 3, 51, 0
5, 130048, Note_on_c, 3, 63, 96
5, 131072, Note_off_c, 3, 63, 0
5, 132096, Note_on_c, 3, 48, 96
5, 133120, Note_off_c, 3, 48, 0
5, 133120, Note_on_c, 3, 60, 96
5, 134144, Note_off_c, 3, 60, 0
5, 134656, Note_on_c, 3, 51, 96
5, 135168, Note_off_c, 3, 51, 0
5, 135168, Note_on_c, 3, 58, 96
5, 135680, Note_off_c, 3, 58, 0
5, 135680, Note_on_c, 3, 56, 96
5, 136192, Note_off_c, 3, 56, 0
5, 136192, Note_on_c, 3, 55, 96
5, 136704, Note_off_c, 3, 55, 0
5, 136704, Note_on_c, 3, 53, 96
5, 137216, Note_off_c, 3, 53, 0
5, 137216, Note_on_c, 3, 51, 96
5, 138240, Note_off_c, 3, 51, 0
5, 138240, Note_on_c, 3, 56, 96
5, 139264, Note_off_c, 3, 56, 0
5, 139264, Note_on_c, 3, 44, 96
5, 139776, Note_off_c, 3, 44, 0
5, 139776, Note_on_c, 3, 46, 96
5, 140288, Note_off_c, 3, 46, 0
5, 140288, Note_on_c, 3, 48, 96
5, 140800, Note_off_c, 3, 48, 0
5, 140800, Note_on_c, 3, 50, 96
5, 141312, Note_off_c, 3, 50, 0
5, 141312, Note_on_c, 3, 51, 96
5, 142336, Note_off_c, 3, 51, 0
5, 142848, Note_on_c, 3, 48, 96
5, 143360, Note_off_c, 3, 48, 0
5, 143360, Note_on_c, 3, 60, 96
5, 143872, Note_off_c, 3, 60, 0
5, 143872, Note_on_c, 3, 58, 96
5, 144384, Note_off_c, 3, 58, 0
5, 144384, Note_on_c, 3, 56, 96
5, 144896, Note_off_c, 3, 56, 0
5, 144896, Note_on_c, 3, 55, 96
5, 145408, Note_off_c, 3, 55, 0
5, 145408, Note_on_c, 3, 53, 96
5, 145920, Note_off_c, 3, 53, 0
5, 145920, Note_on_c, 3, 55, 96
5, 146432, Note_off_c, 3, 55, 0
5, 146432, Note_on_c, 3, 56, 96
5, 146944, Note_off_c, 3, 56, 0
5, 146944, Note_on_c, 3, 53, 96
5, 147456, Note_off_c, 3, 53, 0
5, 147456, Note_on_c, 3, 58, 96
5, 148480, Note_off_c, 3, 58, 0
5, 148480, Note_on_c, 3, 46, 96
5, 150528, Note_off_c, 3, 46, 0
5, 150528, Note_on_c, 3, 51, 96
5, 151040, Note_off_c, 3, 51, 0
5, 152064, Note_on_c, 3, 51, 96
5, 152576, Note_off_c, 3, 51, 0
5, 152576, Note_on_c, 3, 61, 96
5, 153088, Note_off_c, 3, 61, 0
5, 153088, Note_on_c, 3, 60, 96
5, 153600, Note_off_c, 3, 60, 0
5, 153600, Note_on_c, 3, 58, 96
5, 154112, Note_off_c, 3, 58, 0
5, 154112, Note_on_c, 3, 56, 96
5, 154624, Note_off_c, 3, 56, 0
5, 154624, Note_on_c, 3, 55, 96
5, 155136, Note_off_c, 3, 55, 0
5, 155136, Note_on_c, 3, 53, 96
5, 155648, Note_off_c, 3, 53, 0
5, 155648, Note_on_c, 3, 51, 96
5, 156160, Note_off_c, 3, 51, 0
5, 156160, Note_on_c, 3, 49, 96
5, 156672, Note_off_c, 3, 49, 0
5, 156672, Note_on_c, 3, 48, 96
5, 157696, Note_off_c, 3, 48, 0
5, 157696, Note_on_c, 3, 44, 96
5, 158208, Note_off_c, 3, 44, 0
5, 158208, Note_on_c, 3, 46, 96
5, 158720, Note_off_c, 3, 46, 0
5, 158720, Note_on_c, 3, 48, 96
5, 159232, Note_off_c, 3, 48, 0
5, 159232, Note_on_c, 3, 44, 96
5, 159744, Note_off_c, 3, 44, 0
5, 159744, Note_on_c, 3, 51, 96
5, 160768, Note_off_c, 3, 51, 0
5, 222208, Note_on_c, 3, 46, 96
5, 222720, Note_off_c, 3, 46, 0
5, 222720, Note_on_c, 3, 48, 96
5, 223232, Note_off_c, 3, 48, 0
5, 223232, Note_on_c, 3, 50, 96
5, 223744, Note_off_c, 3, 50, 0
5, 223744, Note_on_c, 3, 46, 96
5, 224256, Note_off_c, 3, 46, 0
5, 224256, Note_on_c, 3, 51, 96
5, 225280, Note_off_c, 3, 51, 0
5, 225280, Note_on_c, 3, 58, 96
5, 225792, Note_off_c, 3, 58, 0
5, 225792, Note_on_c, 3, 56, 96
5, 226304, Note_off_c, 3, 56, 0
5, 226304, Note_on_c, 3, 55, 96
5, 226816, Note_off_c, 3, 55, 0
5, 226816, Note_on_c, 3, 53, 96
5, 227328, Note_off_c, 3, 53, 0
5, 227328, Note_on_c, 3, 51, 96
5, 228352, Note_off_c, 3, 51, 0
5, 228352, Note_on_c, 3, 63, 96
5, 230400, Note_off_c, 3, 63, 0
5, 231424, Note_on_c, 3, 51, 96
5, 232448, Note_off_c, 3, 51, 0
5, 232448, Note_on_c, 3, 53, 96
5, 233472, Note_off_c, 3, 53, 0
5, 233472, Note_on_c, 3, 58, 96
5, 234496, Note_off_c, 3, 58, 0
5, 234496, Note_on_c, 3, 46, 96
5, 235520, Note_off_c, 3, 46, 0
5, 255488, Note_on_c, 3, 55, 96
5, 256000, Note_off_c, 3, 55, 0
5, 256000, Note_on_c, 3, 56, 96
5, 256512, Note_off_c, 3, 56, 0
5, 256512, Note_on_c, 3, 58, 96
5, 257024, Note_off_c, 3, 58, 0
5, 257024, Note_on_c, 3, 60, 96
5, 257536, Note_off_c, 3, 60, 0
5, 257536, Note_on_c, 3, 62, 96
5, 258048, Note_off_c, 3, 62, 0
5, 258048, Note_on_c, 3, 63, 96
5, 262144, Note_off_c, 3, 63, 0
5, 262144, Note_on_c, 3, 62, 96
5, 262656, Note_off_c, 3, 62, 0
5, 262656, Note_on_c, 3, 60, 96
5, 263168, Note_off_c, 3, 60, 0
5, 263168, Note_on_c, 3, 62, 96
5, 264704, Note_off_c, 3, 62, 0
5, 264704, Note_on_c, 3, 63, 96
5, 264960, Note_off_c, 3, 63, 0
5, 264960, Note_on_c, 3, 62, 96
5, 265216, Note_off_c, 3, 62, 0
5, 265216, Note_on_c, 3, 60, 96
5, 265728, Note_off_c, 3, 60, 0
5, 265728, Note_on_c, 3, 53, 96
5, 266240, Note_off_c, 3, 53, 0
5, 266240, Note_on_c, 3, 55, 96
5, 266752, Note_off_c, 3, 55, 0
5, 266752, Note_on_c, 3, 57, 96
5, 267264, Note_off_c, 3, 57, 0
5, 267264, Note_on_c, 3, 58, 96
5, 268800, Note_off_c, 3, 58, 0
5, 268800, Note_on_c, 3, 57, 96
5, 269312, Note_off_c, 3, 57, 0
5, 269312, Note_on_c, 3, 55, 96
5, 269824, Note_off_c, 3, 55, 0
5, 269824, Note_on_c, 3, 53, 96
5, 270336, Note_off_c, 3, 53, 0
5, 270336, Note_on_c, 3, 51, 96
5, 270848, Note_off_c, 3, 51, 0
5, 270848, Note_on_c, 3, 48, 96
5, 271360, Note_off_c, 3, 48, 0
5, 271360, Note_on_c, 3, 53, 96
5, 271872, Note_off_c, 3, 53, 0
5, 271872, Note_on_c, 3, 51, 96
5, 272384, Note_off_c, 3, 51, 0
5, 272384, Note_on_c, 3, 53, 96
5, 273408, Note_off_c, 3, 53, 0
5, 273408, Note_on_c, 3, 58, 96
5, 274432, Note_off_c, 3, 58, 0
5, 274432, Note_on_c, 3, 46, 96
5, 275456, Note_off_c, 3, 46, 0
5, 288768, Note_on_c, 3, 51, 96
5, 289792, Note_off_c, 3, 51, 0
5, 289792, Note_on_c, 3, 63, 96
5, 290816, Note_off_c, 3, 63, 0
5, 291840, Note_on_c, 3, 48, 96
5, 292864, Note_off_c, 3, 48, 0
5, 292864, Note_on_c, 3, 60, 96
5, 293888, Note_off_c, 3, 60, 0
5, 294400, Note_on_c, 3, 51, 96
5, 294912, Note_off_c, 3, 51, 0
5, 294912, Note_on_c, 3, 58, 96
5, 295424, Note_off_c, 3, 58, 0
5, 295424, Note_on_c, 3, 56, 96
5, 295936, Note_off_c, 3, 56, 0
5, 295936, Note_on_c, 3, 55, 96
5, 296448, Note_off_c, 3, 55, 0
5, 296448, Note_on_c, 3, 53, 96
5, 296960, Note_off_c, 3, 53, 0
5, 296960, Note_on_c, 3, 51, 96
5, 297984, Note_off_c, 3, 51, 0
5, 297984, Note_on_c, 3, 56, 96
5, 299008, Note_off_c, 3, 56, 0
5, 299008, Note_on_c, 3, 44, 96
5, 299520, Note_off_c, 3, 44, 0
5, 299520, Note_on_c, 3, 46, 96
5, 300032, Note_off_c, 3, 46, 0
5, 300032, Note_on_c, 3, 48, 96
5, 300544, Note_off_c, 3, 48, 0
5, 300544, Note_on_c, 3, 50, 96
5, 301056, Note_off_c, 3, 50, 0
5, 301056, Note_on_c, 3, 51, 96
5, 302080, Note_off_c, 3, 51, 0
5, 302592, Note_on_c, 3, 48, 96
5, 303104, Note_off_c, 3, 48, 0
5, 303104, Note_on_c, 3, 60, 96
5, 303616, Note_off_c, 3, 60, 0
5, 303616, Note_on_c, 3, 58, 96
5, 304128, Note_off_c, 3, 58, 0
5, 304128, Note_on_c, 3, 56, 96
5, 304640, Note_off_c, 3, 56, 0
5, 304640, Note_on_c, 3, 55, 96
5, 305152, Note_off_c, 3, 55, 0
5, 305152, Note_on_c, 3, 53, 96
5, 305664, Note_off_c, 3, 53, 0
5, 305664, Note_on_c, 3, 55, 96
5, 306176, Note_off_c, 3, 55, 0
5, 306176, Note_on_c, 3, 56, 96
5, 306688, Note_off_c, 3, 56, 0
5, 306688, Note_on_c, 3, 53, 96
5, 307200, Note_off_c, 3, 53, 0
5, 307200, Note_on_c, 3, 58, 96
5, 308224, Note_off_c, 3, 58, 0
5, 308224, Note_on_c, 3, 46, 96
5, 310272, Note_off_c, 3, 46, 0
5, 310272, Note_on_c, 3, 51, 96
5, 311296, Note_off_c, 3, 51, 0
5, 311808, Note_on_c, 3, 51, 96
5, 312320, Note_off_c, 3, 51, 0
5, 312320, Note_on_c, 3, 61, 96
5, 312832, Note_off_c, 3, 61, 0
5, 312832, Note_on_c, 3, 60, 96
5, 313344, Note_off_c, 3, 60, 0
5, 313344, Note_on_c, 3, 58, 96
5, 313856, Note_off_c, 3, 58, 0
5, 313856, Note_on_c, 3, 56, 96
5, 314368, Note_off_c, 3, 56, 0
5, 314368, Note_on_c, 3, 55, 96
5, 314880, Note_off_c, 3, 55, 0
5, 314880, Note_on_c, 3, 53, 96
5, 315392, Note_off_c, 3, 53, 0
5, 315392, Note_on_c, 3, 51, 96
5, 315904, Note_off_c, 3, 51, 0
5, 315904, Note_on_c, 3, 49, 96
5, 316416, Note_off_c, 3, 49, 0
5, 316416, Note_on_c, 3, 48, 96
5, 316928, Note_off_c, 3, 48, 0
5, 316928, Note_on_c, 3, 46, 96
5, 317440, Note_off_c, 3, 46, 0
5, 317440, Note_on_c, 3, 44, 96
5, 317952, Note_off_c, 3, 44, 0
5, 317952, Note_on_c, 3, 46, 96
5, 318464, Note_off_c, 3, 46, 0
5, 318464, Note_on_c, 3, 48, 96
5, 318976, Note_off_c, 3, 48, 0
5, 318976, Note_on_c, 3, 44, 96
5, 319488, Note_off_c, 3, 44, 0
5, 319488, Note_on_c, 3, 51, 96
5, 320512, Note_off_c, 3, 51, 0
5, 356864, Note_on_c, 3, 53, 96
5, 357376, Note_off_c, 3, 53, 0
5, 357376, Note_on_c, 3, 58, 96
5, 357888, Note_off_c, 3, 58, 0
5, 357888, Note_on_c, 3, 62, 96
5, 358400, Note_off_c, 3, 62, 0
5, 358400, Note_on_c, 3, 58, 96
5, 359424, Note_off_c, 3, 58, 0
5, 359936, Note_on_c, 3, 58, 96
5, 360448, Note_off_c, 3, 58, 0
5, 360448, Note_on_c, 3, 58, 96
5, 360960, Note_off_c, 3, 58, 0
5, 360960, Note_on_c, 3, 56, 96
5, 361472, Note_off_c, 3, 56, 0
5, 361472, Note_on_c, 3, 56, 96
5, 361984, Note_off_c, 3, 56, 0
5, 361984, Note_on_c, 3, 55, 96
5, 362496, Note_off_c, 3, 55, 0
5, 362496, Note_on_c, 3, 55, 96
5, 363008, Note_off_c, 3, 55, 0
5, 363008, Note_on_c, 3, 58, 96
5, 363520, Note_off_c, 3, 58, 0
5, 363520, Note_on_c, 3, 63, 96
5, 364544, Note_off_c, 3, 63, 0
5, 366080, Note_on_c, 3, 55, 96
5, 366592, Note_off_c, 3, 55, 0
5, 366592, Note_on_c, 3, 53, 96
5, 367104, Note_off_c, 3, 53, 0
5, 367104, Note_on_c, 3, 51, 96
5, 367616, Note_off_c, 3, 51, 0
5, 367616, Note_on_c, 3, 51, 96
5, 368128, Note_off_c, 3, 51, 0
5, 368128, Note_on_c, 3, 50, 96
5, 368640, Note_off_c, 3, 50, 0
5, 368640, Note_on_c, 3, 51, 96
5, 369152, Note_off_c, 3, 51, 0
5, 369152, Note_on_c, 3, 48, 96
5, 369664, Note_off_c, 3, 48, 0
5, 369664, Note_on_c, 3, 60, 96
5, 370688, Note_off_c, 3, 60, 0
5, 372224, Note_on_c, 3, 58, 96
5, 372736, Note_off_c, 3, 58, 0
5, 372736, Note_on_c, 3, 58, 96
5, 373248, Note_off_c, 3, 58, 0
5, 373248, Note_on_c, 3, 56, 96
5, 373760, Note_off_c, 3, 56, 0
5, 373760, Note_on_c, 3, 56, 96
5, 374272, Note_off_c, 3, 56, 0
5, 374272, Note_on_c, 3, 55, 96
5, 374784, Note_off_c, 3, 55, 0
5, 374784, Note_on_c, 3, 55, 96
5, 375296, Note_off_c, 3, 55, 0
5, 375296, Note_on_c, 3, 51, 96
5, 375808, Note_off_c, 3, 51, 0
5, 375808, Note_on_c, 3, 56, 96
5, 376832, Note_off_c, 3, 56, 0
5, 377344, Note_on_c, 3, 44, 96
5, 377856, Note_off_c, 3, 44, 0
5, 377856, Note_on_c, 3, 51, 96
5, 378880, Note_off_c, 3, 51, 0
5, 387584, Note_on_c, 3, 53, 96
5, 388096, Note_off_c, 3, 53, 0
5, 388096, Note_on_c, 3, 58, 96
5, 388608, Note_off_c, 3, 58, 0
5, 388608, Note_on_c, 3, 62, 96
5, 389120, Note_off_c, 3, 62, 0
5, 389120, Note_on_c, 3, 58, 96
5, 390144, Note_off_c, 3, 58, 0
5, 390656, Note_on_c, 3, 58, 96
5, 391168, Note_off_c, 3, 58, 0
5, 391168, Note_on_c, 3, 58, 96
5, 391680, Note_off_c, 3, 58, 0
5, 391680, Note_on_c, 3, 56, 96
5, 392192, Note_off_c, 3, 56, 0
5, 392192, Note_on_c, 3, 56, 96
5, 392704, Note_off_c, 3, 56, 0
5, 392704, Note_on_c, 3, 55, 96
5, 393216, Note_off_c, 3, 55, 0
5, 393216, Note_on_c, 3, 55, 96
5, 393728, Note_off_c, 3, 55, 0
5, 393728, Note_on_c, 3, 58, 96
5, 394240, Note_off_c, 3, 58, 0
5, 394240, Note_on_c, 3, 63, 96
5, 395264, Note_off_c, 3, 63, 0
5, 396800, Note_on_c, 3, 55, 96
5, 397312, Note_off_c, 3, 55, 0
5, 397312, Note_on_c, 3, 53, 96
5, 397824, Note_off_c, 3, 53, 0
5, 397824, Note_on_c, 3, 51, 96
5, 398336, Note_off_c, 3, 51, 0
5, 398336, Note_on_c, 3, 51, 96
5, 398848, Note_off_c, 3, 51, 0
5, 398848, Note_on_c, 3, 50, 96
5, 399360, Note_off_c, 3, 50, 0
5, 399360, Note_on_c, 3, 51, 96
5, 399872, Note_off_c, 3, 51, 0
5, 399872, Note_on_c, 3, 48, 96
5, 400384, Note_off_c, 3, 48, 0
5, 400384, Note_on_c, 3, 60, 96
5, 401408, Note_off_c, 3, 60, 0
5, 402944, Note_on_c, 3, 58, 96
5, 403456, Note_off_c, 3, 58, 0
5, 403456, Note_on_c, 3, 58, 96
5, 403968, Note_off_c, 3, 58, 0
5, 403968, Note_on_c, 3, 56, 96
5, 404480, Note_off_c, 3, 56, 0
5, 404480, Note_on_c, 3, 56, 96
5, 404992, Note_off_c, 3, 56, 0
5, 404992, Note_on_c, 3, 55, 96
5, 405504, Note_off_c, 3, 55, 0
5, 405504, Note_on_c, 3, 55, 96
5, 406016, Note_off_c, 3, 55, 0
5, 406016, Note_on_c, 3, 51, 96
5, 406528, Note_off_c, 3, 51, 0
5, 406528, Note_on_c, 3, 56, 96
5, 407552, Note_off_c, 3, 56, 0
5, 408064, Note_on_c, 3, 44, 96
5, 408576, Note_off_c, 3, 44, 0
5, 408576, Note_on_c, 3, 51, 96
5, 409600, Note_off_c, 3, 51, 0
5, 438272, Note_on_c, 3, 51, 96
5, 440832, Note_off_c, 3, 51, 0
5, 440832, Note_on_c, 3, 50, 96
5, 441088, Note_off_c, 3, 50, 0
5, 441088, Note_on_c, 3, 51, 96
5, 441344, Note_off_c, 3, 51, 0
5, 441344, Note_on_c, 3, 53, 96
5, 441600, Note_off_c, 3, 53, 0
5, 441600, Note_on_c, 3, 51, 96
5, 441856, Note_off_c, 3, 51, 0
5, 441856, Note_on_c, 3, 50, 96
5, 442112, Note_off_c, 3, 50, 0
5, 442112, Note_on_c, 3, 48, 96
5, 442368, Note_off_c, 3, 48, 0
5, 442368, Note_on_c, 3, 46, 96
5, 442624, Note_off_c, 3, 46, 0
5, 442624, Note_on_c, 3, 48, 96
5, 442880, Note_off_c, 3, 48, 0
5, 442880, Note_on_c, 3, 50, 96
5, 443648, Note_off_c, 3, 50, 0
5, 443648, Note_on_c, 3, 51, 96
5, 443904, Note_off_c, 3, 51, 0
5, 443904, Note_on_c, 3, 53, 96
5, 444672, Note_off_c, 3, 53, 0
5, 444672, Note_on_c, 3, 55, 96
5, 444928, Note_off_c, 3, 55, 0
5, 444928, Note_on_c, 3, 56, 96
5, 445440, Note_off_c, 3, 56, 0
5, 445440, Note_on_c, 3, 55, 96
5, 445952, Note_off_c, 3, 55, 0
5, 445952, Note_on_c, 3, 53, 96
5, 446208, Note_off_c, 3, 53, 0
5, 446208, Note_on_c, 3, 55, 96
5, 446464, Note_off_c, 3, 55, 0
5, 446464, Note_on_c, 3, 51, 96
5, 446976, Note_off_c, 3, 51, 0
5, 446976, Note_on_c, 3, 51, 96
5, 447232, Note_off_c, 3, 51, 0
5, 447232, Note_on_c, 3, 53, 96
5, 447488, Note_off_c, 3, 53, 0
5, 447488, Note_on_c, 3, 55, 96
5, 447744, Note_off_c, 3, 55, 0
5, 447744, Note_on_c, 3, 56, 96
5, 448000, Note_off_c, 3, 56, 0
5, 448000, Note_on_c, 3, 58, 96
5, 448512, Note_off_c, 3, 58, 0
5, 448512, Note_on_c, 3, 51, 96
5, 448768, Note_off_c, 3, 51, 0
5, 448768, Note_on_c, 3, 50, 96
5, 449024, Note_off_c, 3, 50, 0
5, 449024, Note_on_c, 3, 48, 96
5, 449280, Note_off_c, 3, 48, 0
5, 449280, Note_on_c, 3, 50, 96
5, 449536, Note_off_c, 3, 50, 0
5, 449536, Note_on_c, 3, 51, 96
5, 449792, Note_off_c, 3, 51, 0
5, 449792, Note_on_c, 3, 53, 96
5, 450048, Note_off_c, 3, 53, 0
5, 450048, Note_on_c, 3, 51, 96
5, 450304, Note_off_c, 3, 51, 0
5, 450304, Note_on_c, 3, 53, 96
5, 450560, Note_off_c, 3, 53, 0
5, 450560, Note_on_c, 3, 55, 96
5, 450816, Note_off_c, 3, 55, 0
5, 450816, Note_on_c, 3, 53, 96
5, 451072, Note_off_c, 3, 53, 0
5, 451072, Note_on_c, 3, 51, 96
5, 451328, Note_off_c, 3, 51, 0
5, 451328, Note_on_c, 3, 50, 96
5, 451584, Note_off_c, 3, 50, 0
5, 451584, Note_on_c, 3, 48, 96
5, 451840, Note_off_c, 3, 48, 0
5, 451840, Note_on_c, 3, 46, 96
5, 452096, Note_off_c, 3, 46, 0
5, 452096, Note_on_c, 3, 45, 96
5, 452352, Note_off_c, 3, 45, 0
5, 452352, Note_on_c, 3, 46, 96
5, 452608, Note_off_c, 3, 46, 0
5, 452608, Note_on_c, 3, 48, 96
5, 453120, Note_off_c, 3, 48, 0
5, 453120, Note_on_c, 3, 53, 96
5, 453376, Note_off_c, 3, 53, 0
5, 453376, Note_on_c, 3, 55, 96
5, 453632, Note_off_c, 3, 55, 0
5, 453632, Note_on_c, 3, 57, 96
5, 453888, Note_off_c, 3, 57, 0
5, 453888, Note_on_c, 3, 58, 96
5, 454144, Note_off_c, 3, 58, 0
5, 454144, Note_on_c, 3, 60, 96
5, 454656, Note_off_c, 3, 60, 0
5, 454656, Note_on_c, 3, 53, 96
5, 454912, Note_off_c, 3, 53, 0
5, 454912, Note_on_c, 3, 51, 96
5, 455168, Note_off_c, 3, 51, 0
5, 455168, Note_on_c, 3, 50, 96
5, 455424, Note_off_c, 3, 50, 0
5, 455424, Note_on_c, 3, 51, 96
5, 455680, Note_off_c, 3, 51, 0
5, 455680, Note_on_c, 3, 53, 96
5, 455936, Note_off_c, 3, 53, 0
5, 455936, Note_on_c, 3, 55, 96
5, 456192, Note_off_c, 3, 55, 0
5, 456192, Note_on_c, 3, 53, 96
5, 456448, Note_off_c, 3, 53, 0
5, 456448, Note_on_c, 3, 55, 96
5, 456704, Note_off_c, 3, 55, 0
5, 456704, Note_on_c, 3, 57, 96
5, 456960, Note_off_c, 3, 57, 0
5, 456960, Note_on_c, 3, 55, 96
5, 457216, Note_off_c, 3, 55, 0
5, 457216, Note_on_c, 3, 53, 96
5, 457472, Note_off_c, 3, 53, 0
5, 457472, Note_on_c, 3, 51, 96
5, 457728, Note_off_c, 3, 51, 0
5, 457728, Note_on_c, 3, 50, 96
5, 457984, Note_off_c, 3, 50, 0
5, 457984, Note_on_c, 3, 48, 96
5, 458240, Note_off_c, 3, 48, 0
5, 458240, Note_on_c, 3, 46, 96
5, 458496, Note_off_c, 3, 46, 0
5, 458496, Note_on_c, 3, 48, 96
5, 458752, Note_off_c, 3, 48, 0
5, 458752, Note_on_c, 3, 50, 96
5, 459008, Note_off_c, 3, 50, 0
5, 459008, Note_on_c, 3, 51, 96
5, 459264, Note_off_c, 3, 51, 0
5, 459264, Note_on_c, 3, 50, 96
5, 459520, Note_off_c, 3, 50, 0
5, 459520, Note_on_c, 3, 51, 96
5, 459776, Note_off_c, 3, 51, 0
5, 459776, Note_on_c, 3, 53, 96
5, 460032, Note_off_c, 3, 53, 0
5, 460032, Note_on_c, 3, 51, 96
5, 460288, Note_off_c, 3, 51, 0
5, 460288, Note_on_c, 3, 50, 96
5, 460544, Note_off_c, 3, 50, 0
5, 460544, Note_on_c, 3, 48, 96
5, 460800, Note_off_c, 3, 48, 0
5, 460800, Note_on_c, 3, 46, 96
5, 461312, Note_off_c, 3, 46, 0
5, 461312, Note_on_c, 3, 43, 96
5, 461824, Note_off_c, 3, 43, 0
5, 461824, Note_on_c, 3, 48, 96
5, 462848, Note_off_c, 3, 48, 0
5, 462848, Note_on_c, 3, 48, 96
5, 463872, Note_off_c, 3, 48, 0
5, 463872, Note_on_c, 3, 41, 96
5, 464384, Note_off_c, 3, 41, 0
5, 464384, Note_on_c, 3, 53, 96
5, 465408, Note_off_c, 3, 53, 0
5, 465408, Note_on_c, 3, 51, 96
5, 466432, Note_off_c, 3, 51, 0
5, 466432, Note_on_c, 3, 50, 96
5, 466944, Note_off_c, 3, 50, 0
5, 466944, Note_on_c, 3, 50, 96
5, 467456, Note_off_c, 3, 50, 0
5, 467456, Note_on_c, 3, 62, 96
5, 468480, Note_off_c, 3, 62, 0
5, 468480, Note_on_c, 3, 60, 96
5, 469504, Note_off_c, 3, 60, 0
5, 469504, Note_on_c, 3, 59, 96
5, 470016, Note_off_c, 3, 59, 0
5, 470016, Note_on_c, 3, 59, 96
5, 471040, Note_off_c, 3, 59, 0
5, 471296, Note_on_c, 3, 43, 96
5, 471552, Note_off_c, 3, 43, 0
5, 471552, Note_on_c, 3, 45, 96
5, 471808, Note_off_c, 3, 45, 0
5, 471808, Note_on_c, 3, 47, 96
5, 472064, Note_off_c, 3, 47, 0
5, 472064, Note_on_c, 3, 48, 96
5, 472320, Note_off_c, 3, 48, 0
5, 472320, Note_on_c, 3, 47, 96
5, 472576, Note_off_c, 3, 47, 0
5, 472576, Note_on_c, 3, 48, 96
5, 472832, Note_off_c, 3, 48, 0
5, 472832, Note_on_c, 3, 50, 96
5, 473088, Note_off_c, 3, 50, 0
5, 473088, Note_on_c, 3, 51, 96
5, 473344, Note_off_c, 3, 51, 0
5, 473344, Note_on_c, 3, 50, 96
5, 473600, Note_off_c, 3, 50, 0
5, 473600, Note_on_c, 3, 51, 96
5, 473856, Note_off_c, 3, 51, 0
5, 473856, Note_on_c, 3, 53, 96
5, 474112, Note_off_c, 3, 53, 0
5, 474112, Note_on_c, 3, 55, 96
5, 474624, Note_off_c, 3, 55, 0
5, 474624, Note_on_c, 3, 53, 96
5, 474880, Note_off_c, 3, 53, 0
5, 474880, Note_on_c, 3, 51, 96
5, 475136, Note_off_c, 3, 51, 0
5, 475136, Note_on_c, 3, 53, 96
5, 475648, Note_off_c, 3, 53, 0
5, 475648, Note_on_c, 3, 55, 96
5, 476160, Note_off_c, 3, 55, 0
5, 476160, Note_on_c, 3, 48, 96
5, 477184, Note_off_c, 3, 48, 0
5, 493056, Note_on_c, 3, 58, 96
5, 493568, Note_off_c, 3, 58, 0
5, 493568, Note_on_c, 3, 55, 96
5, 494080, Note_off_c, 3, 55, 0
5, 494080, Note_on_c, 3, 51, 96
5, 494592, Note_off_c, 3, 51, 0
5, 494592, Note_on_c, 3, 56, 96
5, 495616, Note_off_c, 3, 56, 0
5, 496128, Note_on_c, 3, 63, 96
5, 496640, Note_off_c, 3, 63, 0
5, 496640, Note_on_c, 3, 62, 96
5, 497152, Note_off_c, 3, 62, 0
5, 497152, Note_on_c, 3, 60, 96
5, 497664, Note_off_c, 3, 60, 0
5, 497664, Note_on_c, 3, 59, 96
5, 498688, Note_off_c, 3, 59, 0
5, 499200, Note_on_c, 3, 62, 96
5, 499712, Note_off_c, 3, 62, 0
5, 499712, Note_on_c, 3, 59, 96
5, 500224, Note_off_c, 3, 59, 0
5, 500224, Note_on_c, 3, 55, 96
5, 500736, Note_off_c, 3, 55, 0
5, 500736, Note_on_c, 3, 60, 96
5, 501760, Note_off_c, 3, 60, 0
5, 503296, Note_on_c, 3, 60, 96
5, 503808, Note_off_c, 3, 60, 0
5, 503808, Note_on_c, 3, 55, 96
5, 504832, Note_off_c, 3, 55, 0
5, 505344, Note_on_c, 3, 58, 96
5, 505856, Note_off_c, 3, 58, 0
5, 505856, Note_on_c, 3, 63, 96
5, 506368, Note_off_c, 3, 63, 0
5, 506368, Note_on_c, 3, 51, 96
5, 506880, Note_off_c, 3, 51, 0
5, 506880, Note_on_c, 3, 56, 96
5, 507904, Note_off_c, 3, 56, 0
5, 520704, Note_on_c, 3, 56, 96
5, 521216, Note_off_c, 3, 56, 0
5, 521216, Note_on_c, 3, 48, 96
5, 521728, Note_off_c, 3, 48, 0
5, 521728, Note_on_c, 3, 50, 96
5, 522240, Note_off_c, 3, 50, 0
5, 522240, Note_on_c, 3, 51, 96
5, 522496, Note_off_c, 3, 51, 0
5, 522496, Note_on_c, 3, 53, 96
5, 522752, Note_off_c, 3, 53, 0
5, 522752, Note_on_c, 3, 55, 96
5, 523520, Note_off_c, 3, 55, 0
5, 523520, Note_on_c, 3, 53, 96
5, 523776, Note_off_c, 3, 53, 0
5, 523776, Note_on_c, 3, 55, 96
5, 524032, Note_off_c, 3, 55, 0
5, 524032, Note_on_c, 3, 56, 96
5, 524288, Note_off_c, 3, 56, 0
5, 524288, Note_on_c, 3, 58, 96
5, 524544, Note_off_c, 3, 58, 0
5, 524544, Note_on_c, 3, 56, 96
5, 524800, Note_off_c, 3, 56, 0
5, 524800, Note_on_c, 3, 58, 96
5, 525056, Note_off_c, 3, 58, 0
5, 525056, Note_on_c, 3, 60, 96
5, 525312, Note_off_c, 3, 60, 0
5, 525312, Note_on_c, 3, 62, 96
5, 526336, Note_off_c, 3, 62, 0
5, 526336, Note_on_c, 3, 62, 96
5, 526848, Note_off_c, 3, 62, 0
5, 526848, Note_on_c, 3, 59, 96
5, 527360, Note_off_c, 3, 59, 0
5, 527360, Note_on_c, 3, 55, 96
5, 527872, Note_off_c, 3, 55, 0
5, 527872, Note_on_c, 3, 59, 96
5, 528384, Note_off_c, 3, 59, 0
5, 528384, Note_on_c, 3, 60, 96
5, 529408, Note_off_c, 3, 60, 0
5, 529408, Note_on_c, 3, 48, 96
5, 529920, Note_off_c, 3, 48, 0
5, 529920, Note_on_c, 3, 48, 96
5, 530432, Note_off_c, 3, 48, 0
5, 530432, Note_on_c, 3, 51, 96
5, 530944, Note_off_c, 3, 51, 0
5, 530944, Note_on_c, 3, 48, 96
5, 531456, Note_off_c, 3, 48, 0
5, 531456, Note_on_c, 3, 55, 96
5, 532480, Note_off_c, 3, 55, 0
5, 532480, Note_on_c, 3, 51, 96
5, 533504, Note_off_c, 3, 51, 0
5, 533504, Note_on_c, 3, 55, 96
5, 534528, Note_off_c, 3, 55, 0
5, 534528, Note_on_c, 3, 56, 96
5, 535552, Note_off_c, 3, 56, 0
5, 535552, Note_on_c, 3, 44, 96
5, 536064, Note_off_c, 3, 44, 0
5, 536064, Note_on_c, 3, 58, 96
5, 536576, Note_off_c, 3, 58, 0
5, 536576, Note_on_c, 3, 60, 96
5, 537088, Note_off_c, 3, 60, 0
5, 537088, Note_on_c, 3, 58, 96
5, 537600, Note_off_c, 3, 58, 0
5, 537600, Note_on_c, 3, 57, 96
5, 538624, Note_off_c, 3, 57, 0
5, 538624, Note_on_c, 3, 53, 96
5, 539648, Note_off_c, 3, 53, 0
5, 539648, Note_on_c, 3, 57, 96
5, 540672, Note_off_c, 3, 57, 0
5, 540672, Note_on_c, 3, 58, 96
5, 541696, Note_off_c, 3, 58, 0
5, 541696, Note_on_c, 3, 46, 96
5, 542720, Note_off_c, 3, 46, 0
5, 546816, Note_on_c, 3, 63, 96
5, 547840, Note_off_c, 3, 63, 0
5, 549888, Note_on_c, 3, 60, 96
5, 550912, Note_off_c, 3, 60, 0
5, 552448, Note_on_c, 3, 51, 96
5, 552960, Note_off_c, 3, 51, 0
5, 552960, Note_on_c, 3, 58, 96
5, 553472, Note_off_c, 3, 58, 0
5, 553472, Note_on_c, 3, 56, 96
5, 553984, Note_off_c, 3, 56, 0
5, 553984, Note_on_c, 3, 55, 96
5, 554496, Note_off_c, 3, 55, 0
5, 554496, Note_on_c, 3, 53, 96
5, 555008, Note_off_c, 3, 53, 0
5, 555008, Note_on_c, 3, 51, 96
5, 556032, Note_off_c, 3, 51, 0
5, 556032, Note_on_c, 3, 56, 96
5, 557056, Note_off_c, 3, 56, 0
5, 557056, Note_on_c, 3, 44, 96
5, 557568, Note_off_c, 3, 44, 0
5, 557568, Note_on_c, 3, 46, 96
5, 558080, Note_off_c, 3, 46, 0
5, 558080, Note_on_c, 3, 48, 96
5, 558592, Note_off_c, 3, 48, 0
5, 558592, Note_on_c, 3, 50, 96
5, 559104, Note_off_c, 3, 50, 0
5, 559104, Note_on_c, 3, 51, 96
5, 560128, Note_off_c, 3, 51, 0
5, 560640, Note_on_c, 3, 48, 96
5, 561152, Note_off_c, 3, 48, 0
5, 561152, Note_on_c, 3, 60, 96
5, 561664, Note_off_c, 3, 60, 0
5, 561664, Note_on_c, 3, 58, 96
5, 562176, Note_off_c, 3, 58, 0
5, 562176, Note_on_c, 3, 56, 96
5, 562688, Note_off_c, 3, 56, 0
5, 562688, Note_on_c, 3, 55, 96
5, 563200, Note_off_c, 3, 55, 0
5, 563200, Note_on_c, 3, 53, 96
5, 563712, Note_off_c, 3, 53, 0
5, 563712, Note_on_c, 3, 55, 96
5, 564224, Note_off_c, 3, 55, 0
5, 564224, Note_on_c, 3, 56, 96
5, 564736, Note_off_c, 3, 56, 0
5, 564736, Note_on_c, 3, 53, 96
5, 565248, Note_off_c, 3, 53, 0
5, 565248, Note_on_c, 3, 58, 96
5, 566272, Note_off_c, 3, 58, 0
5, 566272, Note_on_c, 3, 46, 96
5, 568320, Note_off_c, 3, 46, 0
5, 568320, Note_on_c, 3, 51, 96
5, 569344, Note_off_c, 3, 51, 0
5, 569856, Note_on_c, 3, 51, 96
5, 570368, Note_off_c, 3, 51, 0
5, 570368, Note_on_c, 3, 61, 96
5, 570880, Note_off_c, 3, 61, 0
5, 570880, Note_on_c, 3, 60, 96
5, 571392, Note_off_c, 3, 60, 0
5, 571392, Note_on_c, 3, 58, 96
5, 571904, Note_off_c, 3, 58, 0
5, 571904, Note_on_c, 3, 56, 96
5, 572416, Note_off_c, 3, 56, 0
5, 572416, Note_on_c, 3, 55, 96
5, 572928, Note_off_c, 3, 55, 0
5, 572928, Note_on_c, 3, 53, 96
5, 573440, Note_off_c, 3, 53, 0
5, 573440, Note_on_c, 3, 51, 96
5, 573952, Note_off_c, 3, 51, 0
5, 573952, Note_on_c, 3, 49, 96
5, 574464, Note_off_c, 3, 49, 0
5, 574464, Note_on_c, 3, 48, 96
5, 574976, Note_off_c, 3, 48, 0
5, 574976, Note_on_c, 3, 46, 96
5, 575488, Note_off_c, 3, 46, 0
5, 575488, Note_on_c, 3, 44, 96
5, 576000, Note_off_c, 3, 44, 0
5, 576000, Note_on_c, 3, 46, 96
5, 576512, Note_off_c, 3, 46, 0
5, 576512, Note_on_c, 3, 48, 96
5, 577024, Note_off_c, 3, 48, 0
5, 577024, Note_on_c, 3, 44, 96
5, 577536, Note_off_c, 3, 44, 0
5, 577536, Note_on_c, 3, 51, 96
5, 579584, Note_off_c, 3, 51, 0
5, 629760, End_track
6, 0, Start_track
6, 0, Title_t, "Instrument 5"
6, 0, Note_on_c, 4, 51, 96
6, 512, Note_off_c, 4, 51, 0
6, 1024, Note_on_c, 4, 63, 96
6, 1536, Note_off_c, 4, 63, 0
6, 2048, Note_on_c, 4, 62, 96
6, 2560, Note_off_c, 4, 62, 0
6, 3072, Note_on_c, 4, 60, 96
6, 3584, Note_off_c, 4, 60, 0
6, 4096, Note_on_c, 4, 48, 96
6, 4608, Note_off_c, 4, 48, 0
6, 5120, Note_on_c, 4, 46, 96
6, 5632, Note_off_c, 4, 46, 0
6, 6144, Note_on_c, 4, 44, 96
6, 6656, Note_off_c, 4, 44, 0
6, 7168, Note_on_c, 4, 56, 96
6, 7680, Note_off_c, 4, 56, 0
6, 8192, Note_on_c, 4, 53, 96
6, 8704, Note_off_c, 4, 53, 0
6, 9216, Note_on_c, 4, 58, 96
6, 9728, Note_off_c, 4, 58, 0
6, 10240, Note_on_c, 4, 50, 96
6, 10752, Note_off_c, 4, 50, 0
6, 11264, Note_on_c, 4, 46, 96
6, 11776, Note_off_c, 4, 46, 0
6, 12288, Note_on_c, 4, 39, 96
6, 12800, Note_off_c, 4, 39, 0
6, 13312, Note_on_c, 4, 51, 96
6, 14080, Note_off_c, 4, 51, 0
6, 14080, Note_on_c, 4, 51, 96
6, 14336, Note_off_c, 4, 51, 0
6, 14336, Note_on_c, 4, 55, 96
6, 15104, Note_off_c, 4, 55, 0
6, 15104, Note_on_c, 4, 55, 96
6, 15360, Note_off_c, 4, 55, 0
6, 15360, Note_on_c, 4, 58, 96
6, 15872, Note_off_c, 4, 58, 0
6, 16384, Note_on_c, 4, 46, 96
6, 17152, Note_off_c, 4, 46, 0
6, 17152, Note_on_c, 4, 46, 96
6, 17408, Note_off_c, 4, 46, 0
6, 17408, Note_on_c, 4, 50, 96
6, 18176, Note_off_c, 4, 50, 0
6, 18176, Note_on_c, 4, 50, 96
6, 18432, Note_off_c, 4, 50, 0
6, 18432, Note_on_c, 4, 53, 96
6, 18944, Note_off_c, 4, 53, 0
6, 19456, Note_on_c, 4, 41, 96
6, 20224, Note_off_c, 4, 41, 0
6, 20224, Note_on_c, 4, 53, 96
6, 20480, Note_off_c, 4, 53, 0
6, 20480, Note_on_c, 4, 51, 96
6, 21248, Note_off_c, 4, 51, 0
6, 21248, Note_on_c, 4, 50, 96
6, 21504, Note_off_c, 4, 50, 0
6, 21504, Note_on_c, 4, 48, 96
6, 22016, Note_off_c, 4, 48, 0
6, 22528, Note_on_c, 4, 36, 96
6, 23296, Note_off_c, 4, 36, 0
6, 23296, Note_on_c, 4, 60, 96
6, 23552, Note_off_c, 4, 60, 0
6, 23552, Note_on_c, 4, 58, 96
6, 24320, Note_off_c, 4, 58, 0
6, 24320, Note_on_c, 4, 56, 96
6, 24576, Note_off_c, 4, 56, 0
6, 24576, Note_on_c, 4, 55, 96
6, 25088, Note_off_c, 4, 55, 0
6, 25088, Note_on_c, 4, 51, 96
6, 25600, Note_off_c, 4, 51, 0
6, 25600, Note_on_c, 4, 55, 96
6, 26112, Note_off_c, 4, 55, 0
6, 26112, Note_on_c, 4, 58, 96
6, 26624, Note_off_c, 4, 58, 0
6, 26624, Note_on_c, 4, 55, 96
6, 27136, Note_off_c, 4, 55, 0
6, 27136, Note_on_c, 4, 51, 96
6, 27648, Note_off_c, 4, 51, 0
6, 27648, Note_on_c, 4, 56, 96
6, 28160, Note_off_c, 4, 56, 0
6, 28160, Note_on_c, 4, 55, 96
6, 28672, Note_off_c, 4, 55, 0
6, 28672, Note_on_c, 4, 53, 96
6, 29184, Note_off_c, 4, 53, 0
6, 29184, Note_on_c, 4, 55, 96
6, 29696, Note_off_c, 4, 55, 0
6, 29696, Note_on_c, 4, 53, 96
6, 30208, Note_off_c, 4, 53, 0
6, 30208, Note_on_c, 4, 51, 96
6, 30720, Note_off_c, 4, 51, 0
6, 30720, Note_on_c, 4, 50, 96
6, 31232, Note_off_c, 4, 50, 0
6, 31232, Note_on_c, 4, 46, 96
6, 31744, Note_off_c, 4, 46, 0
6, 31744, Note_on_c, 4, 51, 96
6, 32256, Note_off_c, 4, 51, 0
6, 32256, Note_on_c, 4, 55, 96
6, 32768, Note_off_c, 4, 55, 0
6, 32768, Note_on_c, 4, 51, 96
6, 33280, Note_off_c, 4, 51, 0
6, 33280, Note_on_c, 4, 48, 96
6, 33792, Note_off_c, 4, 48, 0
6, 33792, Note_on_c, 4, 53, 96
6, 34304, Note_off_c, 4, 53, 0
6, 34304, Note_on_c, 4, 51, 96
6, 34816, Note_off_c, 4, 51, 0
6, 34816, Note_on_c, 4, 50, 96
6, 35328, Note_off_c, 4, 50, 0
6, 35328, Note_on_c, 4, 51, 96
6, 35840, Note_off_c, 4, 51, 0
6, 35840, Note_on_c, 4, 50, 96
6, 36352, Note_off_c, 4, 50, 0
6, 36352, Note_on_c, 4, 48, 96
6, 36864, Note_off_c, 4, 48, 0
6, 36864, Note_on_c, 4, 47, 96
6, 37376, Note_off_c, 4, 47, 0
6, 37376, Note_on_c, 4, 43, 96
6, 37888, Note_off_c, 4, 43, 0
6, 37888, Note_on_c, 4, 48, 96
6, 38656, Note_off_c, 4, 48, 0
6, 38656, Note_on_c, 4, 48, 96
6, 38912, Note_off_c, 4, 48, 0
6, 38912, Note_on_c, 4, 46, 96
6, 39680, Note_off_c, 4, 46, 0
6, 39680, Note_on_c, 4, 46, 96
6, 39936, Note_off_c, 4, 46, 0
6, 39936, Note_on_c, 4, 45, 96
6, 40704, Note_off_c, 4, 45, 0
6, 40704, Note_on_c, 4, 45, 96
6, 40960, Note_off_c, 4, 45, 0
6, 40960, Note_on_c, 4, 45, 96
6, 41728, Note_off_c, 4, 45, 0
6, 41728, Note_on_c, 4, 45, 96
6, 41984, Note_off_c, 4, 45, 0
6, 41984, Note_on_c, 4, 45, 96
6, 42752, Note_off_c, 4, 45, 0
6, 42752, Note_on_c, 4, 45, 96
6, 43008, Note_off_c, 4, 45, 0
6, 43008, Note_on_c, 4, 44, 96
6, 43776, Note_off_c, 4, 44, 0
6, 43776, Note_on_c, 4, 44, 96
6, 44032, Note_off_c, 4, 44, 0
6, 44032, Note_on_c, 4, 44, 96
6, 44800, Note_off_c, 4, 44, 0
6, 44800, Note_on_c, 4, 44, 96
6, 45056, Note_off_c, 4, 44, 0
6, 45056, Note_on_c, 4, 44, 96
6, 45824, Note_off_c, 4, 44, 0
6, 45824, Note_on_c, 4, 44, 96
6, 46080, Note_off_c, 4, 44, 0
6, 46080, Note_on_c, 4, 43, 96
6, 46848, Note_off_c, 4, 43, 0
6, 46848, Note_on_c, 4, 44, 96
6, 47104, Note_off_c, 4, 44, 0
6, 47104, Note_on_c, 4, 46, 96
6, 48128, Note_off_c, 4, 46, 0
6, 48128, Note_on_c, 4, 46, 96
6, 49152, Note_off_c, 4, 46, 0
6, 49152, Note_on_c, 4, 39, 96
6, 49664, Note_off_c, 4, 39, 0
6, 50176, Note_on_c, 4, 51, 96
6, 50688, Note_off_c, 4, 51, 0
6, 51200, Note_on_c, 4, 50, 96
6, 51712, Note_off_c, 4, 50, 0
6, 52224, Note_on_c, 4, 48, 96
6, 52736, Note_off_c, 4, 48, 0
6, 53248, Note_on_c, 4, 46, 96
6, 53760, Note_off_c, 4, 46, 0
6, 54272, Note_on_c, 4, 44, 96
6, 54784, Note_off_c, 4, 44, 0
6, 55296, Note_on_c, 4, 43, 96
6, 55808, Note_off_c, 4, 43, 0
6, 56320, Note_on_c, 4, 55, 96
6, 56832, Note_off_c, 4, 55, 0
6, 57344, Note_on_c, 4, 53, 96
6, 57856, Note_off_c, 4, 53, 0
6, 58368, Note_on_c, 4, 51, 96
6, 58880, Note_off_c, 4, 51, 0
6, 59392, Note_on_c, 4, 50, 96
6, 59904, Note_off_c, 4, 50, 0
6, 60416, Note_on_c, 4, 48, 96
6, 60928, Note_off_c, 4, 48, 0
6, 61440, Note_on_c, 4, 50, 96
6, 61952, Note_off_c, 4, 50, 0
6, 62464, Note_on_c, 4, 46, 96
6, 62976, Note_off_c, 4, 46, 0
6, 63488, Note_on_c, 4, 50, 96
6, 64000, Note_off_c, 4, 50, 0
6, 64512, Note_on_c, 4, 51, 96
6, 65024, Note_off_c, 4, 51, 0
6, 65536, Note_on_c, 4, 55, 96
6, 66048, Note_off_c, 4, 55, 0
6, 66560, Note_on_c, 4, 53, 96
6, 67072, Note_off_c, 4, 53, 0
6, 67584, Note_on_c, 4, 51, 96
6, 68096, Note_off_c, 4, 51, 0
6, 68608, Note_on_c, 4, 48, 96
6, 69120, Note_off_c, 4, 48, 0
6, 69632, Note_on_c, 4, 51, 96
6, 70144, Note_off_c, 4, 51, 0
6, 70656, Note_on_c, 4, 53, 96
6, 71168, Note_off_c, 4, 53, 0
6, 71680, Note_on_c, 4, 51, 96
6, 72192, Note_off_c, 4, 51, 0
6, 72704, Note_on_c, 4, 53, 96
6, 73216, Note_off_c, 4, 53, 0
6, 73728, Note_on_c, 4, 46, 96
6, 74240, Note_off_c, 4, 46, 0
6, 74752, Note_on_c, 4, 58, 96
6, 75264, Note_off_c, 4, 58, 0
6, 75776, Note_on_c, 4, 57, 96
6, 76288, Note_off_c, 4, 57, 0
6, 76800, Note_on_c, 4, 55, 96
6, 77312, Note_off_c, 4, 55, 0
6, 77824, Note_on_c, 4, 43, 96
6, 78336, Note_off_c, 4, 43, 0
6, 78848, Note_on_c, 4, 41, 96
6, 79360, Note_off_c, 4, 41, 0
6, 79872, Note_on_c, 4, 39, 96
6, 80384, Note_off_c, 4, 39, 0
6, 80896, Note_on_c, 4, 51, 96
6, 81408, Note_off_c, 4, 51, 0
6, 81920, Note_on_c, 4, 48, 96
6, 82432, Note_off_c, 4, 48, 0
6, 82944, Note_on_c, 4, 53, 96
6, 83456, Note_off_c, 4, 53, 0
6, 83968, Note_on_c, 4, 45, 96
6, 84480, Note_off_c, 4, 45, 0
6, 84992, Note_on_c, 4, 41, 96
6, 85504, Note_off_c, 4, 41, 0
6, 86016, Note_on_c, 4, 46, 96
6, 86528, Note_off_c, 4, 46, 0
6, 87040, Note_on_c, 4, 58, 96
6, 87552, Note_off_c, 4, 58, 0
6, 88064, Note_on_c, 4, 56, 96
6, 88576, Note_off_c, 4, 56, 0
6, 89088, Note_on_c, 4, 55, 96
6, 89600, Note_off_c, 4, 55, 0
6, 90112, Note_on_c, 4, 43, 96
6, 90624, Note_off_c, 4, 43, 0
6, 91136, Note_on_c, 4, 41, 96
6, 91648, Note_off_c, 4, 41, 0
6, 92160, Note_on_c, 4, 39, 96
6, 92672, Note_off_c, 4, 39, 0
6, 98816, Note_on_c, 4, 48, 96
6, 99328, Note_off_c, 4, 48, 0
6, 99328, Note_on_c, 4, 50, 96
6, 99840, Note_off_c, 4, 50, 0
6, 99840, Note_on_c, 4, 51, 96
6, 100352, Note_off_c, 4, 51, 0
6, 100352, Note_on_c, 4, 53, 96
6, 100864, Note_off_c, 4, 53, 0
6, 100864, Note_on_c, 4, 55, 96
6, 101376, Note_off_c, 4, 55, 0
6, 101376, Note_on_c, 4, 57, 96
6, 101888, Note_off_c, 4, 57, 0
6, 101888, Note_on_c, 4, 53, 96
6, 102400, Note_off_c, 4, 53, 0
6, 102400, Note_on_c, 4, 58, 96
6, 102912, Note_off_c, 4, 58, 0
6, 102912, Note_on_c, 4, 57, 96
6, 103424, Note_off_c, 4, 57, 0
6, 103424, Note_on_c, 4, 55, 96
6, 103936, Note_off_c, 4, 55, 0
6, 103936, Note_on_c, 4, 53, 96
6, 104448, Note_off_c, 4, 53, 0
6, 104448, Note_on_c, 4, 55, 96
6, 104960, Note_off_c, 4, 55, 0
6, 104960, Note_on_c, 4, 60, 96
6, 105472, Note_off_c, 4, 60, 0
6, 105472, Note_on_c, 4, 57, 96
6, 105984, Note_off_c, 4, 57, 0
6, 105984, Note_on_c, 4, 53, 96
6, 106496, Note_off_c, 4, 53, 0
6, 106496, Note_on_c, 4, 55, 96
6, 107008, Note_off_c, 4, 55, 0
6, 107008, Note_on_c, 4, 57, 96
6, 107520, Note_off_c, 4, 57, 0
6, 107520, Note_on_c, 4, 58, 96
6, 108032, Note_off_c, 4, 58, 0
6, 108032, Note_on_c, 4, 57, 96
6, 108544, Note_off_c, 4, 57, 0
6, 108544, Note_on_c, 4, 55, 96
6, 109056, Note_off_c, 4, 55, 0
6, 109056, Note_on_c, 4, 53, 96
6, 109568, Note_off_c, 4, 53, 0
6, 109568, Note_on_c, 4, 51, 96
6, 110080, Note_off_c, 4, 51, 0
6, 110080, Note_on_c, 4, 50, 96
6, 110592, Note_off_c, 4, 50, 0
6, 110592, Note_on_c, 4, 51, 96
6, 111104, Note_off_c, 4, 51, 0
6, 111104, Note_on_c, 4, 48, 96
6, 111616, Note_off_c, 4, 48, 0
6, 111616, Note_on_c, 4, 53, 96
6, 112640, Note_off_c, 4, 53, 0
6, 112640, Note_on_c, 4, 41, 96
6, 113664, Note_off_c, 4, 41, 0
6, 113664, Note_on_c, 4, 46, 96
6, 114176, Note_off_c, 4, 46, 0
6, 114176, Note_on_c, 4, 53, 96
6, 114688, Note_off_c, 4, 53, 0
6, 114688, Note_on_c, 4, 58, 96
6, 115200, Note_off_c, 4, 58, 0
6, 115200, Note_on_c, 4, 53, 96
6, 115712, Note_off_c, 4, 53, 0
6, 115712, Note_on_c, 4, 50, 96
6, 116224, Note_off_c, 4, 50, 0
6, 116224, Note_on_c, 4, 46, 96
6, 116736, Note_off_c, 4, 46, 0
6, 116736, Note_on_c, 4, 51, 96
6, 117248, Note_off_c, 4, 51, 0
6, 117248, Note_on_c, 4, 39, 96
6, 117760, Note_off_c, 4, 39, 0
6, 117760, Note_on_c, 4, 51, 96
6, 118272, Note_off_c, 4, 51, 0
6, 118272, Note_on_c, 4, 53, 96
6, 118784, Note_off_c, 4, 53, 0
6, 118784, Note_on_c, 4, 55, 96
6, 119296, Note_off_c, 4, 55, 0
6, 119296, Note_on_c, 4, 53, 96
6, 119808, Note_off_c, 4, 53, 0
6, 119808, Note_on_c, 4, 52, 96
6, 120320, Note_off_c, 4, 52, 0
6, 120320, Note_on_c, 4, 55, 96
6, 120832, Note_off_c, 4, 55, 0
6, 120832, Note_on_c, 4, 60, 96
6, 121344, Note_off_c, 4, 60, 0
6, 121344, Note_on_c, 4, 55, 96
6, 121856, Note_off_c, 4, 55, 0
6, 121856, Note_on_c, 4, 52, 96
6, 122368, Note_off_c, 4, 52, 0
6, 122368, Note_on_c, 4, 48, 96
6, 122880, Note_off_c, 4, 48, 0
6, 122880, Note_on_c, 4, 53, 96
6, 123392, Note_off_c, 4, 53, 0
6, 123392, Note_on_c, 4, 41, 96
6, 123904, Note_off_c, 4, 41, 0
6, 123904, Note_on_c, 4, 53, 96
6, 124416, Note_off_c, 4, 53, 0
6, 124416, Note_on_c, 4, 55, 96
6, 124928, Note_off_c, 4, 55, 0
6, 124928, Note_on_c, 4, 56, 96
6, 125440, Note_off_c, 4, 56, 0
6, 125440, Note_on_c, 4, 53, 96
6, 125952, Note_off_c, 4, 53, 0
6, 125952, Note_on_c, 4, 50, 96
6, 126464, Note_off_c, 4, 50, 0
6, 126464, Note_on_c, 4, 53, 96
6, 126976, Note_off_c, 4, 53, 0
6, 126976, Note_on_c, 4, 46, 96
6, 127488, Note_off_c, 4, 46, 0
6, 127488, Note_on_c, 4, 48, 96
6, 128000, Note_off_c, 4, 48, 0
6, 128000, Note_on_c, 4, 50, 96
6, 128512, Note_off_c, 4, 50, 0
6, 128512, Note_on_c, 4, 46, 96
6, 129024, Note_off_c, 4, 46, 0
6, 129024, Note_on_c, 4, 39, 96
6, 129536, Note_off_c, 4, 39, 0
6, 130048, Note_on_c, 4, 51, 96
6, 130816, Note_off_c, 4, 51, 0
6, 130816, Note_on_c, 4, 51, 96
6, 131072, Note_off_c, 4, 51, 0
6, 131072, Note_on_c, 4, 55, 96
6, 131840, Note_off_c, 4, 55, 0
6, 131840, Note_on_c, 4, 55, 96
6, 132096, Note_off_c, 4, 55, 0
6, 132096, Note_on_c, 4, 60, 96
6, 132608, Note_off_c, 4, 60, 0
6, 133120, Note_on_c, 4, 48, 96
6, 133888, Note_off_c, 4, 48, 0
6, 133888, Note_on_c, 4, 48, 96
6, 134144, Note_off_c, 4, 48, 0
6, 134144, Note_on_c, 4, 51, 96
6, 134912, Note_off_c, 4, 51, 0
6, 134912, Note_on_c, 4, 51, 96
6, 135168, Note_off_c, 4, 51, 0
6, 135168, Note_on_c, 4, 55, 96
6, 135680, Note_off_c, 4, 55, 0
6, 136192, Note_on_c, 4, 51, 96
6, 136960, Note_off_c, 4, 51, 0
6, 136960, Note_on_c, 4, 51, 96
6, 137216, Note_off_c, 4, 51, 0
6, 137216, Note_on_c, 4, 55, 96
6, 137984, Note_off_c, 4, 55, 0
6, 137984, Note_on_c, 4, 55, 96
6, 138240, Note_off_c, 4, 55, 0
6, 138240, Note_on_c, 4, 56, 96
6, 138752, Note_off_c, 4, 56, 0
6, 139264, Note_on_c, 4, 44, 96
6, 140032, Note_off_c, 4, 44, 0
6, 140032, Note_on_c, 4, 44, 96
6, 140288, Note_off_c, 4, 44, 0
6, 140288, Note_on_c, 4, 48, 96
6, 141056, Note_off_c, 4, 48, 0
6, 141056, Note_on_c, 4, 48, 96
6, 141312, Note_off_c, 4, 48, 0
6, 141312, Note_on_c, 4, 51, 96
6, 141824, Note_off_c, 4, 51, 0
6, 142336, Note_on_c, 4, 60, 96
6, 142848, Note_off_c, 4, 60, 0
6, 143360, Note_on_c, 4, 58, 96
6, 143872, Note_off_c, 4, 58, 0
6, 144384, Note_on_c, 4, 56, 96
6, 144896, Note_off_c, 4, 56, 0
6, 145408, Note_on_c, 4, 53, 96
6, 145920, Note_off_c, 4, 53, 0
6, 146432, Note_on_c, 4, 56, 96
6, 146944, Note_off_c, 4, 56, 0
6, 147456, Note_on_c, 4, 58, 96
6, 147968, Note_off_c, 4, 58, 0
6, 148480, Note_on_c, 4, 46, 96
6, 148992, Note_off_c, 4, 46, 0
6, 149504, Note_on_c, 4, 58, 96
6, 150016, Note_off_c, 4, 58, 0
6, 150528, Note_on_c, 4, 51, 96
6, 151040, Note_off_c, 4, 51, 0
6, 151552, Note_on_c, 4, 46, 96
6, 152064, Note_off_c, 4, 46, 0
6, 152576, Note_on_c, 4, 49, 96
6, 153088, Note_off_c, 4, 49, 0
6, 153600, Note_on_c, 4, 43, 96
6, 154112, Note_off_c, 4, 43, 0
6, 154112, Note_on_c, 4, 39, 96
6, 154624, Note_off_c, 4, 39, 0
6, 154624, Note_on_c, 4, 51, 96
6, 155136, Note_off_c, 4, 51, 0
6, 155136, Note_on_c, 4, 49, 96
6, 155648, Note_off_c, 4, 49, 0
6, 155648, Note_on_c, 4, 48, 96
6, 156160, Note_off_c, 4, 48, 0
6, 156160, Note_on_c, 4, 46, 96
6, 156672, Note_off_c, 4, 46, 0
6, 156672, Note_on_c, 4, 44, 96
6, 157184, Note_off_c, 4, 44, 0
6, 157184, Note_on_c, 4, 43, 96
6, 157696, Note_off_c, 4, 43, 0
6, 157696, Note_on_c, 4, 44, 96
6, 158208, Note_off_c, 4, 44, 0
6, 158208, Note_on_c, 4, 46, 96
6, 158720, Note_off_c, 4, 46, 0
6, 158720, Note_on_c, 4, 48, 96
6, 159232, Note_off_c, 4, 48, 0
6, 159232, Note_on_c, 4, 44, 96
6, 159744, Note_off_c, 4, 44, 0
6, 159744, Note_on_c, 4, 51, 96
6, 160256, Note_off_c, 4, 51, 0
6, 160768, Note_on_c, 4, 63, 96
6, 161280, Note_off_c, 4, 63, 0
6, 161792, Note_on_c, 4, 62, 96
6, 162304, Note_off_c, 4, 62, 0
6, 162816, Note_on_c, 4, 60, 96
6, 163328, Note_off_c, 4, 60, 0
6, 163840, Note_on_c, 4, 48, 96
6, 164352, Note_off_c, 4, 48, 0
6, 164864, Note_on_c, 4, 46, 96
6, 165376, Note_off_c, 4, 46, 0
6, 165888, Note_on_c, 4, 44, 96
6, 166400, Note_off_c, 4, 44, 0
6, 166912, Note_on_c, 4, 56, 96
6, 167424, Note_off_c, 4, 56, 0
6, 167936, Note_on_c, 4, 53, 96
6, 168448, Note_off_c, 4, 53, 0
6, 168960, Note_on_c, 4, 58, 96
6, 169472, Note_off_c, 4, 58, 0
6, 169984, Note_on_c, 4, 50, 96
6, 170496, Note_off_c, 4, 50, 0
6, 171008, Note_on_c, 4, 46, 96
6, 171520, Note_off_c, 4, 46, 0
6, 172032, Note_on_c, 4, 39, 96
6, 172544, Note_off_c, 4, 39, 0
6, 173056, Note_on_c, 4, 51, 96
6, 173824, Note_off_c, 4, 51, 0
6, 173824, Note_on_c, 4, 51, 96
6, 174080, Note_off_c, 4, 51, 0
6, 174080, Note_on_c, 4, 55, 96
6, 174848, Note_off_c, 4, 55, 0
6, 174848, Note_on_c, 4, 55, 96
6, 175104, Note_off_c, 4, 55, 0
6, 175104, Note_on_c, 4, 58, 96
6, 175616, Note_off_c, 4, 58, 0
6, 176128, Note_on_c, 4, 46, 96
6, 176896, Note_off_c, 4, 46, 0
6, 176896, Note_on_c, 4, 46, 96
6, 177152, Note_off_c, 4, 46, 0
6, 177152, Note_on_c, 4, 50, 96
6, 177920, Note_off_c, 4, 50, 0
6, 177920, Note_on_c, 4, 50, 96
6, 178176, Note_off_c, 4, 50, 0
6, 178176, Note_on_c, 4, 53, 96
6, 178688, Note_off_c, 4, 53, 0
6, 179200, Note_on_c, 4, 41, 96
6, 179968, Note_off_c, 4, 41, 0
6, 179968, Note_on_c, 4, 53, 96
6, 180224, Note_off_c, 4, 53, 0
6, 180224, Note_on_c, 4, 51, 96
6, 180992, Note_off_c, 4, 51, 0
6, 180992, Note_on_c, 4, 50, 96
6, 181248, Note_off_c, 4, 50, 0
6, 181248, Note_on_c, 4, 48, 96
6, 181760, Note_off_c, 4, 48, 0
6, 182272, Note_on_c, 4, 36, 96
6, 183040, Note_off_c, 4, 36, 0
6, 183040, Note_on_c, 4, 60, 96
6, 183296, Note_off_c, 4, 60, 0
6, 183296, Note_on_c, 4, 58, 96
6, 184064, Note_off_c, 4, 58, 0
6, 184064, Note_on_c, 4, 56, 96
6, 184320, Note_off_c, 4, 56, 0
6, 184320, Note_on_c, 4, 55, 96
6, 184832, Note_off_c, 4, 55, 0
6, 184832, Note_on_c, 4, 51, 96
6, 185344, Note_off_c, 4, 51, 0
6, 185344, Note_on_c, 4, 55, 96
6, 185856, Note_off_c, 4, 55, 0
6, 185856, Note_on_c, 4, 58, 96
6, 186368, Note_off_c, 4, 58, 0
6, 186368, Note_on_c, 4, 55, 96
6, 186880, Note_off_c, 4, 55, 0
6, 186880, Note_on_c, 4, 51, 96
6, 187392, Note_off_c, 4, 51, 0
6, 187392, Note_on_c, 4, 56, 96
6, 187904, Note_off_c, 4, 56, 0
6, 187904, Note_on_c, 4, 55, 96
6, 188416, Note_off_c, 4, 55, 0
6, 188416, Note_on_c, 4, 53, 96
6, 188928, Note_off_c, 4, 53, 0
6, 188928, Note_on_c, 4, 55, 96
6, 189440, Note_off_c, 4, 55, 0
6, 189440, Note_on_c, 4, 53, 96
6, 189952, Note_off_c, 4, 53, 0
6, 189952, Note_on_c, 4, 51, 96
6, 190464, Note_off_c, 4, 51, 0
6, 190464, Note_on_c, 4, 50, 96
6, 190976, Note_off_c, 4, 50, 0
6, 190976, Note_on_c, 4, 46, 96
6, 191488, Note_off_c, 4, 46, 0
6, 191488, Note_on_c, 4, 51, 96
6, 192000, Note_off_c, 4, 51, 0
6, 192000, Note_on_c, 4, 55, 96
6, 192512, Note_off_c, 4, 55, 0
6, 192512, Note_on_c, 4, 51, 96
6, 193024, Note_off_c, 4, 51, 0
6, 193024, Note_on_c, 4, 48, 96
6, 193536, Note_off_c, 4, 48, 0
6, 193536, Note_on_c, 4, 53, 96
6, 194048, Note_off_c, 4, 53, 0
6, 194048, Note_on_c, 4, 51, 96
6, 194560, Note_off_c, 4, 51, 0
6, 194560, Note_on_c, 4, 50, 96
6, 195072, Note_off_c, 4, 50, 0
6, 195072, Note_on_c, 4, 51, 96
6, 195584, Note_off_c, 4, 51, 0
6, 195584, Note_on_c, 4, 50, 96
6, 196096, Note_off_c, 4, 50, 0
6, 196096, Note_on_c, 4, 48, 96
6, 196608, Note_off_c, 4, 48, 0
6, 196608, Note_on_c, 4, 47, 96
6, 197120, Note_off_c, 4, 47, 0
6, 197120, Note_on_c, 4, 43, 96
6, 197632, Note_off_c, 4, 43, 0
6, 197632, Note_on_c, 4, 48, 96
6, 198400, Note_off_c, 4, 48, 0
6, 198400, Note_on_c, 4, 48, 96
6, 198656, Note_off_c, 4, 48, 0
6, 198656, Note_on_c, 4, 46, 96
6, 199424, Note_off_c, 4, 46, 0
6, 199424, Note_on_c, 4, 46, 96
6, 199680, Note_off_c, 4, 46, 0
6, 199680, Note_on_c, 4, 45, 96
6, 200448, Note_off_c, 4, 45, 0
6, 200448, Note_on_c, 4, 45, 96
6, 200704, Note_off_c, 4, 45, 0
6, 200704, Note_on_c, 4, 45, 96
6, 201472, Note_off_c, 4, 45, 0
6, 201472, Note_on_c, 4, 45, 96
6, 201728, Note_off_c, 4, 45, 0
6, 201728, Note_on_c, 4, 45, 96
6, 202496, Note_off_c, 4, 45, 0
6, 202496, Note_on_c, 4, 45, 96
6, 202752, Note_off_c, 4, 45, 0
6, 202752, Note_on_c, 4, 44, 96
6, 203520, Note_off_c, 4, 44, 0
6, 203520, Note_on_c, 4, 44, 96
6, 203776, Note_off_c, 4, 44, 0
6, 203776, Note_on_c, 4, 44, 96
6, 204544, Note_off_c, 4, 44, 0
6, 204544, Note_on_c, 4, 44, 96
6, 204800, Note_off_c, 4, 44, 0
6, 204800, Note_on_c, 4, 44, 96
6, 205568, Note_off_c, 4, 44, 0
6, 205568, Note_on_c, 4, 44, 96
6, 205824, Note_off_c, 4, 44, 0
6, 205824, Note_on_c, 4, 43, 96
6, 206592, Note_off_c, 4, 43, 0
6, 206592, Note_on_c, 4, 44, 96
6, 206848, Note_off_c, 4, 44, 0
6, 206848, Note_on_c, 4, 46, 96
6, 207872, Note_off_c, 4, 46, 0
6, 207872, Note_on_c, 4, 46, 96
6, 208896, Note_off_c, 4, 46, 0
6, 208896, Note_on_c, 4, 39, 96
6, 209408, Note_off_c, 4, 39, 0
6, 209920, Note_on_c, 4, 51, 96
6, 210432, Note_off_c, 4, 51, 0
6, 210944, Note_on_c, 4, 50, 96
6, 211456, Note_off_c, 4, 50, 0
6, 211968, Note_on_c, 4, 48, 96
6, 212480, Note_off_c, 4, 48, 0
6, 212992, Note_on_c, 4, 46, 96
6, 213504, Note_off_c, 4, 46, 0
6, 214016, Note_on_c, 4, 44, 96
6, 214528, Note_off_c, 4, 44, 0
6, 215040, Note_on_c, 4, 43, 96
6, 215552, Note_off_c, 4, 43, 0
6, 216064, Note_on_c, 4, 55, 96
6, 216576, Note_off_c, 4, 55, 0
6, 217088, Note_on_c, 4, 53, 96
6, 217600, Note_off_c, 4, 53, 0
6, 218112, Note_on_c, 4, 51, 96
6, 218624, Note_off_c, 4, 51, 0
6, 219136, Note_on_c, 4, 50, 96
6, 219648, Note_off_c, 4, 50, 0
6, 220160, Note_on_c, 4, 48, 96
6, 220672, Note_off_c, 4, 48, 0
6, 221184, Note_on_c, 4, 50, 96
6, 221696, Note_off_c, 4, 50, 0
6, 222208, Note_on_c, 4, 46, 96
6, 222720, Note_off_c, 4, 46, 0
6, 223232, Note_on_c, 4, 50, 96
6, 223744, Note_off_c, 4, 50, 0
6, 224256, Note_on_c, 4, 51, 96
6, 224768, Note_off_c, 4, 51, 0
6, 225280, Note_on_c, 4, 55, 96
6, 225792, Note_off_c, 4, 55, 0
6, 226304, Note_on_c, 4, 53, 96
6, 226816, Note_off_c, 4, 53, 0
6, 227328, Note_on_c, 4, 51, 96
6, 227840, Note_off_c, 4, 51, 0
6, 228352, Note_on_c, 4, 48, 96
6, 228864, Note_off_c, 4, 48, 0
6, 229376, Note_on_c, 4, 51, 96
6, 229888, Note_off_c, 4, 51, 0
6, 230400, Note_on_c, 4, 53, 96
6, 230912, Note_off_c, 4, 53, 0
6, 231424, Note_on_c, 4, 51, 96
6, 231936, Note_off_c, 4, 51, 0
6, 232448, Note_on_c, 4, 53, 96
6, 232960, Note_off_c, 4, 53, 0
6, 233472, Note_on_c, 4, 46, 96
6, 233984, Note_off_c, 4, 46, 0
6, 234496, Note_on_c, 4, 58, 96
6, 235008, Note_off_c, 4, 58, 0
6, 235520, Note_on_c, 4, 57, 96
6, 236032, Note_off_c, 4, 57, 0
6, 236544, Note_on_c, 4, 55, 96
6, 237056, Note_off_c, 4, 55, 0
6, 237568, Note_on_c, 4, 43, 96
6, 238080, Note_off_c, 4, 43, 0
6, 238592, Note_on_c, 4, 41, 96
6, 239104, Note_off_c, 4, 41, 0
6, 239616, Note_on_c, 4, 39, 96
6, 240128, Note_off_c, 4, 39, 0
6, 240640, Note_on_c, 4, 51, 96
6, 241152, Note_off_c, 4, 51, 0
6, 241664, Note_on_c, 4, 48, 96
6, 242176, Note_off_c, 4, 48, 0
6, 242688, Note_on_c, 4, 53, 96
6, 243200, Note_off_c, 4, 53, 0
6, 243712, Note_on_c, 4, 45, 96
6, 244224, Note_off_c, 4, 45, 0
6, 244736, Note_on_c, 4, 41, 96
6, 245248, Note_off_c, 4, 41, 0
6, 245760, Note_on_c, 4, 46, 96
6, 246272, Note_off_c, 4, 46, 0
6, 246784, Note_on_c, 4, 58, 96
6, 247296, Note_off_c, 4, 58, 0
6, 247808, Note_on_c, 4, 56, 96
6, 248320, Note_off_c, 4, 56, 0
6, 248832, Note_on_c, 4, 55, 96
6, 249344, Note_off_c, 4, 55, 0
6, 249856, Note_on_c, 4, 43, 96
6, 250368, Note_off_c, 4, 43, 0
6, 250880, Note_on_c, 4, 41, 96
6, 251392, Note_off_c, 4, 41, 0
6, 251904, Note_on_c, 4, 39, 96
6, 252416, Note_off_c, 4, 39, 0
6, 258560, Note_on_c, 4, 48, 96
6, 259072, Note_off_c, 4, 48, 0
6, 259072, Note_on_c, 4, 50, 96
6, 259584, Note_off_c, 4, 50, 0
6, 259584, Note_on_c, 4, 51, 96
6, 260096, Note_off_c, 4, 51, 0
6, 260096, Note_on_c, 4, 53, 96
6, 260608, Note_off_c, 4, 53, 0
6, 260608, Note_on_c, 4, 55, 96
6, 261120, Note_off_c, 4, 55, 0
6, 261120, Note_on_c, 4, 57, 96
6, 261632, Note_off_c, 4, 57, 0
6, 261632, Note_on_c, 4, 53, 96
6, 262144, Note_off_c, 4, 53, 0
6, 262144, Note_on_c, 4, 58, 96
6, 262656, Note_off_c, 4, 58, 0
6, 262656, Note_on_c, 4, 57, 96
6, 263168, Note_off_c, 4, 57, 0
6, 263168, Note_on_c, 4, 55, 96
6, 263680, Note_off_c, 4, 55, 0
6, 263680, Note_on_c, 4, 53, 96
6, 264192, Note_off_c, 4, 53, 0
6, 264192, Note_on_c, 4, 55, 96
6, 264704, Note_off_c, 4, 55, 0
6, 264704, Note_on_c, 4, 60, 96
6, 265216, Note_off_c, 4, 60, 0
6, 265216, Note_on_c, 4, 57, 96
6, 265728, Note_off_c, 4, 57, 0
6, 265728, Note_on_c, 4, 53, 96
6, 266240, Note_off_c, 4, 53, 0
6, 266240, Note_on_c, 4, 55, 96
6, 266752, Note_off_c, 4, 55, 0
6, 266752, Note_on_c, 4, 57, 96
6, 267264, Note_off_c, 4, 57, 0
6, 267264, Note_on_c, 4, 58, 96
6, 267776, Note_off_c, 4, 58, 0
6, 267776, Note_on_c, 4, 57, 96
6, 268288, Note_off_c, 4, 57, 0
6, 268288, Note_on_c, 4, 55, 96
6, 268800, Note_off_c, 4, 55, 0
6, 268800, Note_on_c, 4, 53, 96
6, 269312, Note_off_c, 4, 53, 0
6, 269312, Note_on_c, 4, 51, 96
6, 269824, Note_off_c, 4, 51, 0
6, 269824, Note_on_c, 4, 50, 96
6, 270336, Note_off_c, 4, 50, 0
6, 270336, Note_on_c, 4, 51, 96
6, 270848, Note_off_c, 4, 51, 0
6, 270848, Note_on_c, 4, 48, 96
6, 271360, Note_off_c, 4, 48, 0
6, 271360, Note_on_c, 4, 53, 96
6, 272384, Note_off_c, 4, 53, 0
6, 272384, Note_on_c, 4, 41, 96
6, 273408, Note_off_c, 4, 41, 0
6, 273408, Note_on_c, 4, 46, 96
6, 273920, Note_off_c, 4, 46, 0
6, 273920, Note_on_c, 4, 53, 96
6, 274432, Note_off_c, 4, 53, 0
6, 274432, Note_on_c, 4, 58, 96
6, 274944, Note_off_c, 4, 58, 0
6, 274944, Note_on_c, 4, 53, 96
6, 275456, Note_off_c, 4, 53, 0
6, 275456, Note_on_c, 4, 50, 96
6, 275968, Note_off_c, 4, 50, 0
6, 275968, Note_on_c, 4, 46, 96
6, 276480, Note_off_c, 4, 46, 0
6, 276480, Note_on_c, 4, 51, 96
6, 276992, Note_off_c, 4, 51, 0
6, 276992, Note_on_c, 4, 39, 96
6, 277504, Note_off_c, 4, 39, 0
6, 277504, Note_on_c, 4, 51, 96
6, 278016, Note_off_c, 4, 51, 0
6, 278016, Note_on_c, 4, 53, 96
6, 278528, Note_off_c, 4, 53, 0
6, 278528, Note_on_c, 4, 55, 96
6, 279040, Note_off_c, 4, 55, 0
6, 279040, Note_on_c, 4, 53, 96
6, 279552, Note_off_c, 4, 53, 0
6, 279552, Note_on_c, 4, 52, 96
6, 280064, Note_off_c, 4, 52, 0
6, 280064, Note_on_c, 4, 55, 96
6, 280576, Note_off_c, 4, 55, 0
6, 280576, Note_on_c, 4, 60, 96
6, 281088, Note_off_c, 4, 60, 0
6, 281088, Note_on_c, 4, 55, 96
6, 281600, Note_off_c, 4, 55, 0
6, 281600, Note_on_c, 4, 52, 96
6, 282112, Note_off_c, 4, 52, 0
6, 282112, Note_on_c, 4, 48, 96
6, 282624, Note_off_c, 4, 48, 0
6, 282624, Note_on_c, 4, 53, 96
6, 283136, Note_off_c, 4, 53, 0
6, 283136, Note_on_c, 4, 41, 96
6, 283648, Note_off_c, 4, 41, 0
6, 283648, Note_on_c, 4, 53, 96
6, 284160, Note_off_c, 4, 53, 0
6, 284160, Note_on_c, 4, 55, 96
6, 284672, Note_off_c, 4, 55, 0
6, 284672, Note_on_c, 4, 56, 96
6, 285184, Note_off_c, 4, 56, 0
6, 285184, Note_on_c, 4, 53, 96
6, 285696, Note_off_c, 4, 53, 0
6, 285696, Note_on_c, 4, 50, 96
6, 286208, Note_off_c, 4, 50, 0
6, 286208, Note_on_c, 4, 53, 96
6, 286720, Note_off_c, 4, 53, 0
6, 286720, Note_on_c, 4, 46, 96
6, 287232, Note_off_c, 4, 46, 0
6, 287232, Note_on_c, 4, 48, 96
6, 287744, Note_off_c, 4, 48, 0
6, 287744, Note_on_c, 4, 50, 96
6, 288256, Note_off_c, 4, 50, 0
6, 288256, Note_on_c, 4, 46, 96
6, 288768, Note_off_c, 4, 46, 0
6, 288768, Note_on_c, 4, 39, 96
6, 289280, Note_off_c, 4, 39, 0
6, 289792, Note_on_c, 4, 51, 96
6, 290560, Note_off_c, 4, 51, 0
6, 290560, Note_on_c, 4, 51, 96
6, 290816, Note_off_c, 4, 51, 0
6, 290816, Note_on_c, 4, 55, 96
6, 291584, Note_off_c, 4, 55, 0
6, 291584, Note_on_c, 4, 55, 96
6, 291840, Note_off_c, 4, 55, 0
6, 291840, Note_on_c, 4, 60, 96
6, 292352, Note_off_c, 4, 60, 0
6, 292864, Note_on_c, 4, 48, 96
6, 293632, Note_off_c, 4, 48, 0
6, 293632, Note_on_c, 4, 48, 96
6, 293888, Note_off_c, 4, 48, 0
6, 293888, Note_on_c, 4, 51, 96
6, 294656, Note_off_c, 4, 51, 0
6, 294656, Note_on_c, 4, 51, 96
6, 294912, Note_off_c, 4, 51, 0
6, 294912, Note_on_c, 4, 55, 96
6, 295424, Note_off_c, 4, 55, 0
6, 295936, Note_on_c, 4, 51, 96
6, 296704, Note_off_c, 4, 51, 0
6, 296704, Note_on_c, 4, 51, 96
6, 296960, Note_off_c, 4, 51, 0
6, 296960, Note_on_c, 4, 55, 96
6, 297728, Note_off_c, 4, 55, 0
6, 297728, Note_on_c, 4, 55, 96
6, 297984, Note_off_c, 4, 55, 0
6, 297984, Note_on_c, 4, 56, 96
6, 298496, Note_off_c, 4, 56, 0
6, 299008, Note_on_c, 4, 44, 96
6, 299776, Note_off_c, 4, 44, 0
6, 299776, Note_on_c, 4, 44, 96
6, 300032, Note_off_c, 4, 44, 0
6, 300032, Note_on_c, 4, 48, 96
6, 300800, Note_off_c, 4, 48, 0
6, 300800, Note_on_c, 4, 48, 96
6, 301056, Note_off_c, 4, 48, 0
6, 301056, Note_on_c, 4, 51, 96
6, 301568, Note_off_c, 4, 51, 0
6, 302080, Note_on_c, 4, 60, 96
6, 302592, Note_off_c, 4, 60, 0
6, 303104, Note_on_c, 4, 58, 96
6, 303616, Note_off_c, 4, 58, 0
6, 304128, Note_on_c, 4, 56, 96
6, 304640, Note_off_c, 4, 56, 0
6, 305152, Note_on_c, 4, 53, 96
6, 305664, Note_off_c, 4, 53, 0
6, 306176, Note_on_c, 4, 56, 96
6, 306688, Note_off_c, 4, 56, 0
6, 307200, Note_on_c, 4, 58, 96
6, 307712, Note_off_c, 4, 58, 0
6, 308224, Note_on_c, 4, 46, 96
6, 308736, Note_off_c, 4, 46, 0
6, 309248, Note_on_c, 4, 58, 96
6, 309760, Note_off_c, 4, 58, 0
6, 310272, Note_on_c, 4, 51, 96
6, 310784, Note_off_c, 4, 51, 0
6, 311296, Note_on_c, 4, 46, 96
6, 311808, Note_off_c, 4, 46, 0
6, 312320, Note_on_c, 4, 49, 96
6, 312832, Note_off_c, 4, 49, 0
6, 313344, Note_on_c, 4, 43, 96
6, 313856, Note_off_c, 4, 43, 0
6, 313856, Note_on_c, 4, 39, 96
6, 314368, Note_off_c, 4, 39, 0
6, 314368, Note_on_c, 4, 51, 96
6, 314880, Note_off_c, 4, 51, 0
6, 314880, Note_on_c, 4, 49, 96
6, 315392, Note_off_c, 4, 49, 0
6, 315392, Note_on_c, 4, 48, 96
6, 315904, Note_off_c, 4, 48, 0
6, 315904, Note_on_c, 4, 46, 96
6, 316416, Note_off_c, 4, 46, 0
6, 316416, Note_on_c, 4, 44, 96
6, 316928, Note_off_c, 4, 44, 0
6, 316928, Note_on_c, 4, 43, 96
6, 317440, Note_off_c, 4, 43, 0
6, 317440, Note_on_c, 4, 44, 96
6, 317952, Note_off_c, 4, 44, 0
6, 317952, Note_on_c, 4, 46, 96
6, 318464, Note_off_c, 4, 46, 0
6, 318464, Note_on_c, 4, 48, 96
6, 318976, Note_off_c, 4, 48, 0
6, 318976, Note_on_c, 4, 44, 96
6, 319488, Note_off_c, 4, 44, 0
6, 319488, Note_on_c, 4, 51, 96
6, 320000, Note_off_c, 4, 51, 0
6, 320512, Note_on_c, 4, 39, 96
6, 321280, Note_off_c, 4, 39, 0
6, 321280, Note_on_c, 4, 39, 96
6, 321536, Note_off_c, 4, 39, 0
6, 321536, Note_on_c, 4, 43, 96
6, 322304, Note_off_c, 4, 43, 0
6, 322304, Note_on_c, 4, 43, 96
6, 322560, Note_off_c, 4, 43, 0
6, 322560, Note_on_c, 4, 46, 96
6, 323072, Note_off_c, 4, 46, 0
6, 323584, Note_on_c, 4, 46, 96
6, 324352, Note_off_c, 4, 46, 0
6, 324352, Note_on_c, 4, 46, 96
6, 324608, Note_off_c, 4, 46, 0
6, 324608, Note_on_c, 4, 50, 96
6, 325376, Note_off_c, 4, 50, 0
6, 325376, Note_on_c, 4, 50, 96
6, 325632, Note_off_c, 4, 50, 0
6, 325632, Note_on_c, 4, 54, 96
6, 326144, Note_off_c, 4, 54, 0
6, 326656, Note_on_c, 4, 50, 96
6, 327424, Note_off_c, 4, 50, 0
6, 327424, Note_on_c, 4, 50, 96
6, 327680, Note_off_c, 4, 50, 0
6, 327680, Note_on_c, 4, 54, 96
6, 328448, Note_off_c, 4, 54, 0
6, 328448, Note_on_c, 4, 54, 96
6, 328704, Note_off_c, 4, 54, 0
6, 328704, Note_on_c, 4, 55, 96
6, 329216, Note_off_c, 4, 55, 0
6, 329728, Note_on_c, 4, 55, 96
6, 330496, Note_off_c, 4, 55, 0
6, 330496, Note_on_c, 4, 55, 96
6, 330752, Note_off_c, 4, 55, 0
6, 330752, Note_on_c, 4, 58, 96
6, 331520, Note_off_c, 4, 58, 0
6, 331520, Note_on_c, 4, 58, 96
6, 331776, Note_off_c, 4, 58, 0
6, 331776, Note_on_c, 4, 62, 96
6, 332288, Note_off_c, 4, 62, 0
6, 332288, Note_on_c, 4, 58, 96
6, 332800, Note_off_c, 4, 58, 0
6, 332800, Note_on_c, 4, 62, 96
6, 333312, Note_off_c, 4, 62, 0
6, 333312, Note_on_c, 4, 65, 96
6, 333824, Note_off_c, 4, 65, 0
6, 333824, Note_on_c, 4, 62, 96
6, 334336, Note_off_c, 4, 62, 0
6, 334336, Note_on_c, 4, 58, 96
6, 334848, Note_off_c, 4, 58, 0
6, 334848, Note_on_c, 4, 63, 96
6, 335360, Note_off_c, 4, 63, 0
6, 335360, Note_on_c, 4, 62, 96
6, 335872, Note_off_c, 4, 62, 0
6, 335872, Note_on_c, 4, 60, 96
6, 336384, Note_off_c, 4, 60, 0
6, 336384, Note_on_c, 4, 62, 96
6, 336896, Note_off_c, 4, 62, 0
6, 336896, Note_on_c, 4, 60, 96
6, 337408, Note_off_c, 4, 60, 0
6, 337408, Note_on_c, 4, 58, 96
6, 337920, Note_off_c, 4, 58, 0
6, 337920, Note_on_c, 4, 57, 96
6, 338432, Note_off_c, 4, 57, 0
6, 338432, Note_on_c, 4, 53, 96
6, 338944, Note_off_c, 4, 53, 0
6, 338944, Note_on_c, 4, 58, 96
6, 339456, Note_off_c, 4, 58, 0
6, 339456, Note_on_c, 4, 62, 96
6, 339968, Note_off_c, 4, 62, 0
6, 339968, Note_on_c, 4, 58, 96
6, 340480, Note_off_c, 4, 58, 0
6, 340480, Note_on_c, 4, 55, 96
6, 340992, Note_off_c, 4, 55, 0
6, 340992, Note_on_c, 4, 60, 96
6, 341504, Note_off_c, 4, 60, 0
6, 341504, Note_on_c, 4, 58, 96
6, 342016, Note_off_c, 4, 58, 0
6, 342016, Note_on_c, 4, 57, 96
6, 342528, Note_off_c, 4, 57, 0
6, 342528, Note_on_c, 4, 58, 96
6, 343040, Note_off_c, 4, 58, 0
6, 343040, Note_on_c, 4, 57, 96
6, 343552, Note_off_c, 4, 57, 0
6, 343552, Note_on_c, 4, 55, 96
6, 344064, Note_off_c, 4, 55, 0
6, 344064, Note_on_c, 4, 54, 96
6, 344576, Note_off_c, 4, 54, 0
6, 344576, Note_on_c, 4, 50, 96
6, 345088, Note_off_c, 4, 50, 0
6, 345088, Note_on_c, 4, 55, 96
6, 345856, Note_off_c, 4, 55, 0
6, 345856, Note_on_c, 4, 55, 96
6, 346112, Note_off_c, 4, 55, 0
6, 346112, Note_on_c, 4, 53, 96
6, 346880, Note_off_c, 4, 53, 0
6, 346880, Note_on_c, 4, 53, 96
6, 347136, Note_off_c, 4, 53, 0
6, 347136, Note_on_c, 4, 52, 96
6, 347904, Note_off_c, 4, 52, 0
6, 347904, Note_on_c, 4, 52, 96
6, 348160, Note_off_c, 4, 52, 0
6, 348160, Note_on_c, 4, 52, 96
6, 348928, Note_off_c, 4, 52, 0
6, 348928, Note_on_c, 4, 52, 96
6, 349184, Note_off_c, 4, 52, 0
6, 349184, Note_on_c, 4, 52, 96
6, 349952, Note_off_c, 4, 52, 0
6, 349952, Note_on_c, 4, 52, 96
6, 350208, Note_off_c, 4, 52, 0
6, 350208, Note_on_c, 4, 51, 96
6, 350976, Note_off_c, 4, 51, 0
6, 350976, Note_on_c, 4, 51, 96
6, 351232, Note_off_c, 4, 51, 0
6, 351232, Note_on_c, 4, 51, 96
6, 352000, Note_off_c, 4, 51, 0
6, 352000, Note_on_c, 4, 51, 96
6, 352256, Note_off_c, 4, 51, 0
6, 352256, Note_on_c, 4, 51, 96
6, 353024, Note_off_c, 4, 51, 0
6, 353024, Note_on_c, 4, 51, 96
6, 353280, Note_off_c, 4, 51, 0
6, 353280, Note_on_c, 4, 50, 96
6, 354048, Note_off_c, 4, 50, 0
6, 354048, Note_on_c, 4, 51, 96
6, 354304, Note_off_c, 4, 51, 0
6, 354304, Note_on_c, 4, 53, 96
6, 355328, Note_off_c, 4, 53, 0
6, 355328, Note_on_c, 4, 41, 96
6, 356352, Note_off_c, 4, 41, 0
6, 356352, Note_on_c, 4, 46, 96
6, 356864, Note_off_c, 4, 46, 0
6, 357376, Note_on_c, 4, 58, 96
6, 357888, Note_off_c, 4, 58, 0
6, 358400, Note_on_c, 4, 56, 96
6, 358912, Note_off_c, 4, 56, 0
6, 359424, Note_on_c, 4, 55, 96
6, 359936, Note_off_c, 4, 55, 0
6, 360448, Note_on_c, 4, 43, 96
6, 360960, Note_off_c, 4, 43, 0
6, 361472, Note_on_c, 4, 41, 96
6, 361984, Note_off_c, 4, 41, 0
6, 362496, Note_on_c, 4, 39, 96
6, 363008, Note_off_c, 4, 39, 0
6, 363520, Note_on_c, 4, 51, 96
6, 364032, Note_off_c, 4, 51, 0
6, 364544, Note_on_c, 4, 50, 96
6, 365056, Note_off_c, 4, 50, 0
6, 365568, Note_on_c, 4, 48, 96
6, 366080, Note_off_c, 4, 48, 0
6, 366592, Note_on_c, 4, 50, 96
6, 367104, Note_off_c, 4, 50, 0
6, 367616, Note_on_c, 4, 46, 96
6, 368128, Note_off_c, 4, 46, 0
6, 368640, Note_on_c, 4, 51, 96
6, 369152, Note_off_c, 4, 51, 0
6, 369152, Note_on_c, 4, 48, 96
6, 369664, Note_off_c, 4, 48, 0
6, 369664, Note_on_c, 4, 48, 96
6, 370176, Note_off_c, 4, 48, 0
6, 370176, Note_on_c, 4, 46, 96
6, 370688, Note_off_c, 4, 46, 0
6, 370688, Note_on_c, 4, 46, 96
6, 371200, Note_off_c, 4, 46, 0
6, 371200, Note_on_c, 4, 44, 96
6, 371712, Note_off_c, 4, 44, 0
6, 371712, Note_on_c, 4, 44, 96
6, 372224, Note_off_c, 4, 44, 0
6, 372224, Note_on_c, 4, 46, 96
6, 372736, Note_off_c, 4, 46, 0
6, 372736, Note_on_c, 4, 46, 96
6, 373248, Note_off_c, 4, 46, 0
6, 373248, Note_on_c, 4, 44, 96
6, 373760, Note_off_c, 4, 44, 0
6, 373760, Note_on_c, 4, 44, 96
6, 374272, Note_off_c, 4, 44, 0
6, 374272, Note_on_c, 4, 43, 96
6, 374784, Note_off_c, 4, 43, 0
6, 374784, Note_on_c, 4, 43, 96
6, 375296, Note_off_c, 4, 43, 0
6, 375296, Note_on_c, 4, 39, 96
6, 375808, Note_off_c, 4, 39, 0
6, 375808, Note_on_c, 4, 44, 96
6, 376576, Note_off_c, 4, 44, 0
6, 376576, Note_on_c, 4, 44, 96
6, 376832, Note_off_c, 4, 44, 0
6, 376832, Note_on_c, 4, 48, 96
6, 377600, Note_off_c, 4, 48, 0
6, 377600, Note_on_c, 4, 48, 96
6, 377856, Note_off_c, 4, 48, 0
6, 377856, Note_on_c, 4, 51, 96
6, 378368, Note_off_c, 4, 51, 0
6, 378880, Note_on_c, 4, 63, 96
6, 379392, Note_off_c, 4, 63, 0
6, 379904, Note_on_c, 4, 62, 96
6, 380416, Note_off_c, 4, 62, 0
6, 380928, Note_on_c, 4, 60, 96
6, 381440, Note_off_c, 4, 60, 0
6, 381952, Note_on_c, 4, 48, 96
6, 382464, Note_off_c, 4, 48, 0
6, 382976, Note_on_c, 4, 46, 96
6, 383488, Note_off_c, 4, 46, 0
6, 384000, Note_on_c, 4, 44, 96
6, 384512, Note_off_c, 4, 44, 0
6, 385024, Note_on_c, 4, 56, 96
6, 385536, Note_off_c, 4, 56, 0
6, 386048, Note_on_c, 4, 53, 96
6, 386560, Note_off_c, 4, 53, 0
6, 387072, Note_on_c, 4, 58, 96
6, 387584, Note_off_c, 4, 58, 0
6, 388096, Note_on_c, 4, 50, 96
6, 388608, Note_off_c, 4, 50, 0
6, 389120, Note_on_c, 4, 46, 96
6, 389632, Note_off_c, 4, 46, 0
6, 390144, Note_on_c, 4, 51, 96
6, 390656, Note_off_c, 4, 51, 0
6, 391168, Note_on_c, 4, 43, 96
6, 391680, Note_off_c, 4, 43, 0
6, 392192, Note_on_c, 4, 46, 96
6, 392704, Note_off_c, 4, 46, 0
6, 393216, Note_on_c, 4, 39, 96
6, 393728, Note_off_c, 4, 39, 0
6, 394240, Note_on_c, 4, 51, 96
6, 394752, Note_off_c, 4, 51, 0
6, 395264, Note_on_c, 4, 50, 96
6, 395776, Note_off_c, 4, 50, 0
6, 396288, Note_on_c, 4, 48, 96
6, 396800, Note_off_c, 4, 48, 0
6, 397312, Note_on_c, 4, 50, 96
6, 397824, Note_off_c, 4, 50, 0
6, 398336, Note_on_c, 4, 46, 96
6, 398848, Note_off_c, 4, 46, 0
6, 399360, Note_on_c, 4, 51, 96
6, 399872, Note_off_c, 4, 51, 0
6, 399872, Note_on_c, 4, 48, 96
6, 400384, Note_off_c, 4, 48, 0
6, 400384, Note_on_c, 4, 48, 96
6, 400896, Note_off_c, 4, 48, 0
6, 400896, Note_on_c, 4, 46, 96
6, 401408, Note_off_c, 4, 46, 0
6, 401408, Note_on_c, 4, 46, 96
6, 401920, Note_off_c, 4, 46, 0
6, 401920, Note_on_c, 4, 44, 96
6, 402432, Note_off_c, 4, 44, 0
6, 402432, Note_on_c, 4, 44, 96
6, 402944, Note_off_c, 4, 44, 0
6, 402944, Note_on_c, 4, 46, 96
6, 403456, Note_off_c, 4, 46, 0
6, 403456, Note_on_c, 4, 46, 96
6, 403968, Note_off_c, 4, 46, 0
6, 403968, Note_on_c, 4, 44, 96
6, 404480, Note_off_c, 4, 44, 0
6, 404480, Note_on_c, 4, 44, 96
6, 404992, Note_off_c, 4, 44, 0
6, 404992, Note_on_c, 4, 43, 96
6, 405504, Note_off_c, 4, 43, 0
6, 405504, Note_on_c, 4, 43, 96
6, 406016, Note_off_c, 4, 43, 0
6, 406016, Note_on_c, 4, 39, 96
6, 406528, Note_off_c, 4, 39, 0
6, 406528, Note_on_c, 4, 44, 96
6, 407296, Note_off_c, 4, 44, 0
6, 407296, Note_on_c, 4, 44, 96
6, 407552, Note_off_c, 4, 44, 0
6, 407552, Note_on_c, 4, 48, 96
6, 408320, Note_off_c, 4, 48, 0
6, 408320, Note_on_c, 4, 48, 96
6, 408576, Note_off_c, 4, 48, 0
6, 408576, Note_on_c, 4, 51, 96
6, 409088, Note_off_c, 4, 51, 0
6, 409600, Note_on_c, 4, 63, 96
6, 410112, Note_off_c, 4, 63, 0
6, 410624, Note_on_c, 4, 62, 96
6, 411136, Note_off_c, 4, 62, 0
6, 411648, Note_on_c, 4, 60, 96
6, 412160, Note_off_c, 4, 60, 0
6, 412672, Note_on_c, 4, 48, 96
6, 413184, Note_off_c, 4, 48, 0
6, 413696, Note_on_c, 4, 46, 96
6, 414208, Note_off_c, 4, 46, 0
6, 414720, Note_on_c, 4, 45, 96
6, 415232, Note_off_c, 4, 45, 0
6, 415744, Note_on_c, 4, 57, 96
6, 416256, Note_off_c, 4, 57, 0
6, 416768, Note_on_c, 4, 55, 96
6, 417280, Note_off_c, 4, 55, 0
6, 417792, Note_on_c, 4, 54, 96
6, 418304, Note_off_c, 4, 54, 0
6, 418816, Note_on_c, 4, 62, 96
6, 419328, Note_off_c, 4, 62, 0
6, 419840, Note_on_c, 4, 50, 96
6, 420352, Note_off_c, 4, 50, 0
6, 420864, Note_on_c, 4, 55, 96
6, 421376, Note_off_c, 4, 55, 0
6, 421888, Note_on_c, 4, 43, 96
6, 422400, Note_off_c, 4, 43, 0
6, 422912, Note_on_c, 4, 41, 96
6, 423424, Note_off_c, 4, 41, 0
6, 423936, Note_on_c, 4, 39, 96
6, 424448, Note_off_c, 4, 39, 0
6, 424960, Note_on_c, 4, 51, 96
6, 425472, Note_off_c, 4, 51, 0
6, 425984, Note_on_c, 4, 50, 96
6, 426496, Note_off_c, 4, 50, 0
6, 427008, Note_on_c, 4, 48, 96
6, 427520, Note_off_c, 4, 48, 0
6, 428032, Note_on_c, 4, 60, 96
6, 428544, Note_off_c, 4, 60, 0
6, 429056, Note_on_c, 4, 58, 96
6, 429568, Note_off_c, 4, 58, 0
6, 430080, Note_on_c, 4, 57, 96
6, 430592, Note_off_c, 4, 57, 0
6, 431104, Note_on_c, 4, 53, 96
6, 431616, Note_off_c, 4, 53, 0
6, 432128, Note_on_c, 4, 41, 96
6, 432640, Note_off_c, 4, 41, 0
6, 433152, Note_on_c, 4, 46, 96
6, 433664, Note_off_c, 4, 46, 0
6, 434176, Note_on_c, 4, 44, 96
6, 434688, Note_off_c, 4, 44, 0
6, 435200, Note_on_c, 4, 43, 96
6, 435712, Note_off_c, 4, 43, 0
6, 436224, Note_on_c, 4, 44, 96
6, 436736, Note_off_c, 4, 44, 0
6, 437248, Note_on_c, 4, 56, 96
6, 437760, Note_off_c, 4, 56, 0
6, 438272, Note_on_c, 4, 55, 96
6, 438784, Note_off_c, 4, 55, 0
6, 439296, Note_on_c, 4, 53, 96
6, 439808, Note_off_c, 4, 53, 0
6, 440320, Note_on_c, 4, 41, 96
6, 440832, Note_off_c, 4, 41, 0
6, 441344, Note_on_c, 4, 39, 96
6, 441856, Note_off_c, 4, 39, 0
6, 442368, Note_on_c, 4, 38, 96
6, 442880, Note_off_c, 4, 38, 0
6, 443392, Note_on_c, 4, 46, 96
6, 443904, Note_off_c, 4, 46, 0
6, 444416, Note_on_c, 4, 58, 96
6, 444928, Note_off_c, 4, 58, 0
6, 445440, Note_on_c, 4, 51, 96
6, 445952, Note_off_c, 4, 51, 0
6, 446464, Note_on_c, 4, 39, 96
6, 446976, Note_off_c, 4, 39, 0
6, 447488, Note_on_c, 4, 38, 96
6, 448000, Note_off_c, 4, 38, 0
6, 448512, Note_on_c, 4, 36, 96
6, 449024, Note_off_c, 4, 36, 0
6, 449536, Note_on_c, 4, 48, 96
6, 450048, Note_off_c, 4, 48, 0
6, 450560, Note_on_c, 4, 46, 96
6, 451072, Note_off_c, 4, 46, 0
6, 451584, Note_on_c, 4, 45, 96
6, 452096, Note_off_c, 4, 45, 0
6, 452608, Note_on_c, 4, 53, 96
6, 453120, Note_off_c, 4, 53, 0
6, 453632, Note_on_c, 4, 51, 96
6, 454144, Note_off_c, 4, 51, 0
6, 454656, Note_on_c, 4, 50, 96
6, 455168, Note_off_c, 4, 50, 0
6, 455680, Note_on_c, 4, 62, 96
6, 456192, Note_off_c, 4, 62, 0
6, 456704, Note_on_c, 4, 60, 96
6, 457216, Note_off_c, 4, 60, 0
6, 457728, Note_on_c, 4, 58, 96
6, 458240, Note_off_c, 4, 58, 0
6, 458752, Note_on_c, 4, 46, 96
6, 459264, Note_off_c, 4, 46, 0
6, 459776, Note_on_c, 4, 44, 96
6, 460288, Note_off_c, 4, 44, 0
6, 460800, Note_on_c, 4, 43, 96
6, 461312, Note_off_c, 4, 43, 0
6, 461824, Note_on_c, 4, 48, 96
6, 462336, Note_off_c, 4, 48, 0
6, 462848, Note_on_c, 4, 36, 96
6, 463360, Note_off_c, 4, 36, 0
6, 463872, Note_on_c, 4, 41, 96
6, 464384, Note_off_c, 4, 41, 0
6, 464896, Note_on_c, 4, 53, 96
6, 465408, Note_off_c, 4, 53, 0
6, 465920, Note_on_c, 4, 51, 96
6, 466432, Note_off_c, 4, 51, 0
6, 466944, Note_on_c, 4, 50, 96
6, 467456, Note_off_c, 4, 50, 0
6, 467968, Note_on_c, 4, 62, 96
6, 468480, Note_off_c, 4, 62, 0
6, 468992, Note_on_c, 4, 60, 96
6, 469504, Note_off_c, 4, 60, 0
6, 470016, Note_on_c, 4, 59, 96
6, 470528, Note_off_c, 4, 59, 0
6, 471040, Note_on_c, 4, 55, 96
6, 471552, Note_off_c, 4, 55, 0
6, 472064, Note_on_c, 4, 53, 96
6, 472576, Note_off_c, 4, 53, 0
6, 473088, Note_on_c, 4, 51, 96
6, 473856, Note_off_c, 4, 51, 0
6, 473856, Note_on_c, 4, 53, 96
6, 474112, Note_off_c, 4, 53, 0
6, 474112, Note_on_c, 4, 55, 96
6, 475136, Note_off_c, 4, 55, 0
6, 475136, Note_on_c, 4, 43, 96
6, 476160, Note_off_c, 4, 43, 0
6, 476160, Note_on_c, 4, 48, 96
6, 476672, Note_off_c, 4, 48, 0
6, 477184, Note_on_c, 4, 60, 96
6, 477696, Note_off_c, 4, 60, 0
6, 478208, Note_on_c, 4, 58, 96
6, 478720, Note_off_c, 4, 58, 0
6, 479232, Note_on_c, 4, 56, 96
6, 479744, Note_off_c, 4, 56, 0
6, 480256, Note_on_c, 4, 44, 96
6, 480768, Note_off_c, 4, 44, 0
6, 481280, Note_on_c, 4, 43, 96
6, 481792, Note_off_c, 4, 43, 0
6, 482304, Note_on_c, 4, 41, 96
6, 482816, Note_off_c, 4, 41, 0
6, 483328, Note_on_c, 4, 53, 96
6, 483840, Note_off_c, 4, 53, 0
6, 484352, Note_on_c, 4, 50, 96
6, 484864, Note_off_c, 4, 50, 0
6, 485376, Note_on_c, 4, 55, 96
6, 485888, Note_off_c, 4, 55, 0
6, 486400, Note_on_c, 4, 47, 96
6, 486912, Note_off_c, 4, 47, 0
6, 487424, Note_on_c, 4, 43, 96
6, 487936, Note_off_c, 4, 43, 0
6, 488448, Note_on_c, 4, 48, 96
6, 488960, Note_off_c, 4, 48, 0
6, 489472, Note_on_c, 4, 36, 96
6, 489984, Note_off_c, 4, 36, 0
6, 489984, Note_on_c, 4, 60, 96
6, 490496, Note_off_c, 4, 60, 0
6, 490496, Note_on_c, 4, 58, 96
6, 491008, Note_off_c, 4, 58, 0
6, 491008, Note_on_c, 4, 56, 96
6, 491520, Note_off_c, 4, 56, 0
6, 491520, Note_on_c, 4, 55, 96
6, 492032, Note_off_c, 4, 55, 0
6, 492032, Note_on_c, 4, 51, 96
6, 492544, Note_off_c, 4, 51, 0
6, 492544, Note_on_c, 4, 55, 96
6, 493056, Note_off_c, 4, 55, 0
6, 493056, Note_on_c, 4, 58, 96
6, 493568, Note_off_c, 4, 58, 0
6, 493568, Note_on_c, 4, 55, 96
6, 494080, Note_off_c, 4, 55, 0
6, 494080, Note_on_c, 4, 51, 96
6, 494592, Note_off_c, 4, 51, 0
6, 494592, Note_on_c, 4, 56, 96
6, 495104, Note_off_c, 4, 56, 0
6, 495104, Note_on_c, 4, 55, 96
6, 495616, Note_off_c, 4, 55, 0
6, 495616, Note_on_c, 4, 53, 96
6, 496128, Note_off_c, 4, 53, 0
6, 496128, Note_on_c, 4, 51, 96
6, 496640, Note_off_c, 4, 51, 0
6, 496640, Note_on_c, 4, 50, 96
6, 497152, Note_off_c, 4, 50, 0
6, 497152, Note_on_c, 4, 48, 96
6, 497664, Note_off_c, 4, 48, 0
6, 497664, Note_on_c, 4, 47, 96
6, 498176, Note_off_c, 4, 47, 0
6, 498176, Note_on_c, 4, 43, 96
6, 498688, Note_off_c, 4, 43, 0
6, 498688, Note_on_c, 4, 47, 96
6, 499200, Note_off_c, 4, 47, 0
6, 499200, Note_on_c, 4, 50, 96
6, 499712, Note_off_c, 4, 50, 0
6, 499712, Note_on_c, 4, 47, 96
6, 500224, Note_off_c, 4, 47, 0
6, 500224, Note_on_c, 4, 43, 96
6, 500736, Note_off_c, 4, 43, 0
6, 500736, Note_on_c, 4, 48, 96
6, 501248, Note_off_c, 4, 48, 0
6, 501760, Note_on_c, 4, 46, 96
6, 502272, Note_off_c, 4, 46, 0
6, 502784, Note_on_c, 4, 44, 96
6, 503296, Note_off_c, 4, 44, 0
6, 503808, Note_on_c, 4, 43, 96
6, 504320, Note_off_c, 4, 43, 0
6, 504832, Note_on_c, 4, 39, 96
6, 505344, Note_off_c, 4, 39, 0
6, 505856, Note_on_c, 4, 51, 96
6, 506368, Note_off_c, 4, 51, 0
6, 506880, Note_on_c, 4, 56, 96
6, 507392, Note_off_c, 4, 56, 0
6, 507904, Note_on_c, 4, 44, 96
6, 508416, Note_off_c, 4, 44, 0
6, 508928, Note_on_c, 4, 43, 96
6, 509440, Note_off_c, 4, 43, 0
6, 509952, Note_on_c, 4, 41, 96
6, 510464, Note_off_c, 4, 41, 0
6, 510976, Note_on_c, 4, 53, 96
6, 511488, Note_off_c, 4, 53, 0
6, 512000, Note_on_c, 4, 51, 96
6, 512512, Note_off_c, 4, 51, 0
6, 513024, Note_on_c, 4, 49, 96
6, 513536, Note_off_c, 4, 49, 0
6, 514048, Note_on_c, 4, 61, 96
6, 514560, Note_off_c, 4, 61, 0
6, 515072, Note_on_c, 4, 58, 96
6, 515584, Note_off_c, 4, 58, 0
6, 516096, Note_on_c, 4, 63, 96
6, 516608, Note_off_c, 4, 63, 0
6, 517120, Note_on_c, 4, 55, 96
6, 517632, Note_off_c, 4, 55, 0
6, 518144, Note_on_c, 4, 51, 96
6, 518656, Note_off_c, 4, 51, 0
6, 519168, Note_on_c, 4, 56, 96
6, 519680, Note_off_c, 4, 56, 0
6, 520192, Note_on_c, 4, 44, 96
6, 520960, Note_off_c, 4, 44, 0
6, 520960, Note_on_c, 4, 44, 96
6, 521216, Note_off_c, 4, 44, 0
6, 521216, Note_on_c, 4, 48, 96
6, 521984, Note_off_c, 4, 48, 0
6, 521984, Note_on_c, 4, 48, 96
6, 522240, Note_off_c, 4, 48, 0
6, 522240, Note_on_c, 4, 51, 96
6, 522752, Note_off_c, 4, 51, 0
6, 523264, Note_on_c, 4, 39, 96
6, 524032, Note_off_c, 4, 39, 0
6, 524032, Note_on_c, 4, 39, 96
6, 524288, Note_off_c, 4, 39, 0
6, 524288, Note_on_c, 4, 43, 96
6, 525056, Note_off_c, 4, 43, 0
6, 525056, Note_on_c, 4, 43, 96
6, 525312, Note_off_c, 4, 43, 0
6, 525312, Note_on_c, 4, 47, 96
6, 525824, Note_off_c, 4, 47, 0
6, 526336, Note_on_c, 4, 55, 96
6, 527104, Note_off_c, 4, 55, 0
6, 527104, Note_on_c, 4, 55, 96
6, 527360, Note_off_c, 4, 55, 0
6, 527360, Note_on_c, 4, 59, 96
6, 528128, Note_off_c, 4, 59, 0
6, 528128, Note_on_c, 4, 59, 96
6, 528384, Note_off_c, 4, 59, 0
6, 528384, Note_on_c, 4, 60, 96
6, 528896, Note_off_c, 4, 60, 0
6, 529408, Note_on_c, 4, 48, 96
6, 530176, Note_off_c, 4, 48, 0
6, 530176, Note_on_c, 4, 48, 96
6, 530432, Note_off_c, 4, 48, 0
6, 530432, Note_on_c, 4, 51, 96
6, 531200, Note_off_c, 4, 51, 0
6, 531200, Note_on_c, 4, 51, 96
6, 531456, Note_off_c, 4, 51, 0
6, 531456, Note_on_c, 4, 55, 96
6, 531968, Note_off_c, 4, 55, 0
6, 531968, Note_on_c, 4, 58, 96
6, 532480, Note_off_c, 4, 58, 0
6, 532480, Note_on_c, 4, 63, 96
6, 532992, Note_off_c, 4, 63, 0
6, 532992, Note_on_c, 4, 58, 96
6, 533504, Note_off_c, 4, 58, 0
6, 533504, Note_on_c, 4, 55, 96
6, 534016, Note_off_c, 4, 55, 0
6, 534016, Note_on_c, 4, 51, 96
6, 534528, Note_off_c, 4, 51, 0
6, 534528, Note_on_c, 4, 56, 96
6, 535040, Note_off_c, 4, 56, 0
6, 535040, Note_on_c, 4, 44, 96
6, 535552, Note_off_c, 4, 44, 0
6, 535552, Note_on_c, 4, 56, 96
6, 536064, Note_off_c, 4, 56, 0
6, 536064, Note_on_c, 4, 58, 96
6, 536576, Note_off_c, 4, 58, 0
6, 536576, Note_on_c, 4, 60, 96
6, 537088, Note_off_c, 4, 60, 0
6, 537088, Note_on_c, 4, 58, 96
6, 537600, Note_off_c, 4, 58, 0
6, 537600, Note_on_c, 4, 57, 96
6, 538112, Note_off_c, 4, 57, 0
6, 538112, Note_on_c, 4, 60, 96
6, 538624, Note_off_c, 4, 60, 0
6, 538624, Note_on_c, 4, 65, 96
6, 539136, Note_off_c, 4, 65, 0
6, 539136, Note_on_c, 4, 60, 96
6, 539648, Note_off_c, 4, 60, 0
6, 539648, Note_on_c, 4, 57, 96
6, 540160, Note_off_c, 4, 57, 0
6, 540160, Note_on_c, 4, 53, 96
6, 540672, Note_off_c, 4, 53, 0
6, 540672, Note_on_c, 4, 58, 96
6, 541184, Note_off_c, 4, 58, 0
6, 541184, Note_on_c, 4, 46, 96
6, 541696, Note_off_c, 4, 46, 0
6, 541696, Note_on_c, 4, 58, 96
6, 542208, Note_off_c, 4, 58, 0
6, 542208, Note_on_c, 4, 56, 96
6, 542464, Note_off_c, 4, 56, 0
6, 542464, Note_on_c, 4, 55, 96
6, 542720, Note_off_c, 4, 55, 0
6, 542720, Note_on_c, 4, 53, 96
6, 542976, Note_off_c, 4, 53, 0
6, 542976, Note_on_c, 4, 51, 96
6, 543232, Note_off_c, 4, 51, 0
6, 543232, Note_on_c, 4, 50, 96
6, 543488, Note_off_c, 4, 50, 0
6, 543488, Note_on_c, 4, 48, 96
6, 543744, Note_off_c, 4, 48, 0
6, 543744, Note_on_c, 4, 50, 96
6, 544256, Note_off_c, 4, 50, 0
6, 544256, Note_on_c, 4, 53, 96
6, 544768, Note_off_c, 4, 53, 0
6, 544768, Note_on_c, 4, 46, 96
6, 545280, Note_off_c, 4, 46, 0
6, 545280, Note_on_c, 4, 48, 96
6, 545792, Note_off_c, 4, 48, 0
6, 545792, Note_on_c, 4, 50, 96
6, 546304, Note_off_c, 4, 50, 0
6, 546304, Note_on_c, 4, 46, 96
6, 546816, Note_off_c, 4, 46, 0
6, 546816, Note_on_c, 4, 39, 96
6, 547328, Note_off_c, 4, 39, 0
6, 547840, Note_on_c, 4, 51, 96
6, 548608, Note_off_c, 4, 51, 0
6, 548608, Note_on_c, 4, 51, 96
6, 548864, Note_off_c, 4, 51, 0
6, 548864, Note_on_c, 4, 55, 96
6, 549632, Note_off_c, 4, 55, 0
6, 549632, Note_on_c, 4, 55, 96
6, 549888, Note_off_c, 4, 55, 0
6, 549888, Note_on_c, 4, 60, 96
6, 550400, Note_off_c, 4, 60, 0
6, 550912, Note_on_c, 4, 48, 96
6, 551680, Note_off_c, 4, 48, 0
6, 551680, Note_on_c, 4, 48, 96
6, 551936, Note_off_c, 4, 48, 0
6, 551936, Note_on_c, 4, 51, 96
6, 552704, Note_off_c, 4, 51, 0
6, 552704, Note_on_c, 4, 51, 96
6, 552960, Note_off_c, 4, 51, 0
6, 552960, Note_on_c, 4, 55, 96
6, 553472, Note_off_c, 4, 55, 0
6, 553984, Note_on_c, 4, 51, 96
6, 554752, Note_off_c, 4, 51, 0
6, 554752, Note_on_c, 4, 51, 96
6, 555008, Note_off_c, 4, 51, 0
6, 555008, Note_on_c, 4, 55, 96
6, 555776, Note_off_c, 4, 55, 0
6, 555776, Note_on_c, 4, 55, 96
6, 556032, Note_off_c, 4, 55, 0
6, 556032, Note_on_c, 4, 56, 96
6, 556544, Note_off_c, 4, 56, 0
6, 557056, Note_on_c, 4, 44, 96
6, 557824, Note_off_c, 4, 44, 0
6, 557824, Note_on_c, 4, 44, 96
6, 558080, Note_off_c, 4, 44, 0
6, 558080, Note_on_c, 4, 48, 96
6, 558848, Note_off_c, 4, 48, 0
6, 558848, Note_on_c, 4, 48, 96
6, 559104, Note_off_c, 4, 48, 0
6, 559104, Note_on_c, 4, 51, 96
6, 559616, Note_off_c, 4, 51, 0
6, 560128, Note_on_c, 4, 60, 96
6, 560640, Note_off_c, 4, 60, 0
6, 561152, Note_on_c, 4, 58, 96
6, 561664, Note_off_c, 4, 58, 0
6, 562176, Note_on_c, 4, 56, 96
6, 562688, Note_off_c, 4, 56, 0
6, 563200, Note_on_c, 4, 53, 96
6, 563712, Note_off_c, 4, 53, 0
6, 564224, Note_on_c, 4, 56, 96
6, 564736, Note_off_c, 4, 56, 0
6, 565248, Note_on_c, 4, 58, 96
6, 565760, Note_off_c, 4, 58, 0
6, 566272, Note_on_c, 4, 46, 96
6, 566784, Note_off_c, 4, 46, 0
6, 567296, Note_on_c, 4, 58, 96
6, 567808, Note_off_c, 4, 58, 0
6, 568320, Note_on_c, 4, 51, 96
6, 568832, Note_off_c, 4, 51, 0
6, 569344, Note_on_c, 4, 46, 96
6, 569856, Note_off_c, 4, 46, 0
6, 570368, Note_on_c, 4, 49, 96
6, 570880, Note_off_c, 4, 49, 0
6, 571392, Note_on_c, 4, 43, 96
6, 571904, Note_off_c, 4, 43, 0
6, 571904, Note_on_c, 4, 39, 96
6, 572416, Note_off_c, 4, 39, 0
6, 572416, Note_on_c, 4, 51, 96
6, 572928, Note_off_c, 4, 51, 0
6, 572928, Note_on_c, 4, 49, 96
6, 573440, Note_off_c, 4, 49, 0
6, 573440, Note_on_c, 4, 48, 96
6, 573952, Note_off_c, 4, 48, 0
6, 573952, Note_on_c, 4, 46, 96
6, 574464, Note_off_c, 4, 46, 0
6, 574464, Note_on_c, 4, 44, 96
6, 574976, Note_off_c, 4, 44, 0
6, 574976, Note_on_c, 4, 43, 96
6, 575488, Note_off_c, 4, 43, 0
6, 575488, Note_on_c, 4, 44, 96
6, 576000, Note_off_c, 4, 44, 0
6, 576000, Note_on_c, 4, 46, 96
6, 576512, Note_off_c, 4, 46, 0
6, 576512, Note_on_c, 4, 48, 96
6, 577024, Note_off_c, 4, 48, 0
6, 577024, Note_on_c, 4, 44, 96
6, 577536, Note_off_c, 4, 44, 0
6, 577536, Note_on_c, 4, 51, 96
6, 578048, Note_off_c, 4, 51, 0
6, 578560, Note_on_c, 4, 63, 96
6, 579072, Note_off_c, 4, 63, 0
6, 579584, Note_on_c, 4, 62, 96
6, 580096, Note_off_c, 4, 62, 0
6, 580608, Note_on_c, 4, 60, 96
6, 581120, Note_off_c, 4, 60, 0
6, 581632, Note_on_c, 4, 48, 96
6, 582144, Note_off_c, 4, 48, 0
6, 582656, Note_on_c, 4, 46, 96
6, 583168, Note_off_c, 4, 46, 0
6, 583680, Note_on_c, 4, 44, 96
6, 584192, Note_off_c, 4, 44, 0
6, 584704, Note_on_c, 4, 56, 96
6, 585216, Note_off_c, 4, 56, 0
6, 585728, Note_on_c, 4, 53, 96
6, 586240, Note_off_c, 4, 53, 0
6, 586752, Note_on_c, 4, 58, 96
6, 587264, Note_off_c, 4, 58, 0
6, 587776, Note_on_c, 4, 50, 96
6, 588288, Note_off_c, 4, 50, 0
6, 588800, Note_on_c, 4, 46, 96
6, 589312, Note_off_c, 4, 46, 0
6, 589824, Note_on_c, 4, 39, 96
6, 590336, Note_off_c, 4, 39, 0
6, 590848, Note_on_c, 4, 51, 96
6, 591616, Note_off_c, 4, 51, 0
6, 591616, Note_on_c, 4, 51, 96
6, 591872, Note_off_c, 4, 51, 0
6, 591872, Note_on_c, 4, 55, 96
6, 592640, Note_off_c, 4, 55, 0
6, 592640, Note_on_c, 4, 55, 96
6, 592896, Note_off_c, 4, 55, 0
6, 592896, Note_on_c, 4, 58, 96
6, 593408, Note_off_c, 4, 58, 0
6, 593920, Note_on_c, 4, 46, 96
6, 594688, Note_off_c, 4, 46, 0
6, 594688, Note_on_c, 4, 46, 96
6, 594944, Note_off_c, 4, 46, 0
6, 594944, Note_on_c, 4, 50, 96
6, 595712, Note_off_c, 4, 50, 0
6, 595712, Note_on_c, 4, 50, 96
6, 595968, Note_off_c, 4, 50, 0
6, 595968, Note_on_c, 4, 53, 96
6, 596480, Note_off_c, 4, 53, 0
6, 596992, Note_on_c, 4, 41, 96
6, 597760, Note_off_c, 4, 41, 0
6, 597760, Note_on_c, 4, 53, 96
6, 598016, Note_off_c, 4, 53, 0
6, 598016, Note_on_c, 4, 51, 96
6, 598784, Note_off_c, 4, 51, 0
6, 598784, Note_on_c, 4, 50, 96
6, 599040, Note_off_c, 4, 50, 0
6, 599040, Note_on_c, 4, 48, 96
6, 599552, Note_off_c, 4, 48, 0
6, 600064, Note_on_c, 4, 36, 96
6, 600832, Note_off_c, 4, 36, 0
6, 600832, Note_on_c, 4, 60, 96
6, 601088, Note_off_c, 4, 60, 0
6, 601088, Note_on_c, 4, 58, 96
6, 601856, Note_off_c, 4, 58, 0
6, 601856, Note_on_c, 4, 56, 96
6, 602112, Note_off_c, 4, 56, 0
6, 602112, Note_on_c, 4, 55, 96
6, 602624, Note_off_c, 4, 55, 0
6, 602624, Note_on_c, 4, 51, 96
6, 603136, Note_off_c, 4, 51, 0
6, 603136, Note_on_c, 4, 55, 96
6, 603648, Note_off_c, 4, 55, 0
6, 603648, Note_on_c, 4, 58, 96
6, 604160, Note_off_c, 4, 58, 0
6, 604160, Note_on_c, 4, 55, 96
6, 604672, Note_off_c, 4, 55, 0
6, 604672, Note_on_c, 4, 51, 96
6, 605184, Note_off_c, 4, 51, 0
6, 605184, Note_on_c, 4, 56, 96
6, 605696, Note_off_c, 4, 56, 0
6, 605696, Note_on_c, 4, 55, 96
6, 606208, Note_off_c, 4, 55, 0
6, 606208, Note_on_c, 4, 53, 96
6, 606720, Note_off_c, 4, 53, 0
6, 606720, Note_on_c, 4, 55, 96
6, 607232, Note_off_c, 4, 55, 0
6, 607232, Note_on_c, 4, 53, 96
6, 607744, Note_off_c, 4, 53, 0
6, 607744, Note_on_c, 4, 51, 96
6, 608256, Note_off_c, 4, 51, 0
6, 608256, Note_on_c, 4, 50, 96
6, 608768, Note_off_c, 4, 50, 0
6, 608768, Note_on_c, 4, 46, 96
6, 609280, Note_off_c, 4, 46, 0
6, 609280, Note_on_c, 4, 51, 96
6, 609792, Note_off_c, 4, 51, 0
6, 609792, Note_on_c, 4, 55, 96
6, 610304, Note_off_c, 4, 55, 0
6, 610304, Note_on_c, 4, 51, 96
6, 610816, Note_off_c, 4, 51, 0
6, 610816, Note_on_c, 4, 48, 96
6, 611328, Note_off_c, 4, 48, 0
6, 611328, Note_on_c, 4, 53, 96
6, 611840, Note_off_c, 4, 53, 0
6, 611840, Note_on_c, 4, 51, 96
6, 612352, Note_off_c, 4, 51, 0
6, 612352, Note_on_c, 4, 50, 96
6, 612864, Note_off_c, 4, 50, 0
6, 612864, Note_on_c, 4, 51, 96
6, 613376, Note_off_c, 4, 51, 0
6, 613376, Note_on_c, 4, 50, 96
6, 613888, Note_off_c, 4, 50, 0
6, 613888, Note_on_c, 4, 48, 96
6, 614400, Note_off_c, 4, 48, 0
6, 614400, Note_on_c, 4, 47, 96
6, 614912, Note_off_c, 4, 47, 0
6, 614912, Note_on_c, 4, 43, 96
6, 615424, Note_off_c, 4, 43, 0
6, 615424, Note_on_c, 4, 48, 96
6, 616192, Note_off_c, 4, 48, 0
6, 616192, Note_on_c, 4, 48, 96
6, 616448, Note_off_c, 4, 48, 0
6, 616448, Note_on_c, 4, 46, 96
6, 617216, Note_off_c, 4, 46, 0
6, 617216, Note_on_c, 4, 46, 96
6, 617472, Note_off_c, 4, 46, 0
6, 617472, Note_on_c, 4, 45, 96
6, 618240, Note_off_c, 4, 45, 0
6, 618240, Note_on_c, 4, 45, 96
6, 618496, Note_off_c, 4, 45, 0
6, 618496, Note_on_c, 4, 45, 96
6, 619264, Note_off_c, 4, 45, 0
6, 619264, Note_on_c, 4, 45, 96
6, 619520, Note_off_c, 4, 45, 0
6, 619520, Note_on_c, 4, 45, 96
6, 620288, Note_off_c, 4, 45, 0
6, 620288, Note_on_c, 4, 45, 96
6, 620544, Note_off_c, 4, 45, 0
6, 620544, Note_on_c, 4, 44, 96
6, 621312, Note_off_c, 4, 44, 0
6, 621312, Note_on_c, 4, 44, 96
6, 621568, Note_off_c, 4, 44, 0
6, 621568, Note_on_c, 4, 44, 96
6, 622336, Note_off_c, 4, 44, 0
6, 622336, Note_on_c, 4, 44, 96
6, 622592, Note_off_c, 4, 44, 0
6, 622592, Note_on_c, 4, 44, 96
6, 623360, Note_off_c, 4, 44, 0
6, 623360, Note_on_c, 4, 44, 96
6, 623616, Note_off_c, 4, 44, 0
6, 623616, Note_on_c, 4, 43, 96
6, 624384, Note_off_c, 4, 43, 0
6, 624384, Note_on_c, 4, 44, 96
6, 624640, Note_off_c, 4, 44, 0
6, 624640, Note_on_c, 4, 46, 96
6, 625664, Note_off_c, 4, 46, 0
6, 625664, Note_on_c, 4, 46, 96
6, 626688, Note_off_c, 4, 46, 0
6, 626688, Note_on_c, 4, 39, 96
6, 629760, Note_off_c, 4, 39, 0
6, 629760, End_track
7, 0, Start_track
7, 0, Title_t, "Instrument 6"
7, 3072, Note_on_c, 5, 63, 96
7, 3072, Note_on_c, 5, 60, 96
7, 3840, Note_off_c, 5, 63, 0
7, 3840, Note_on_c, 5, 63, 96
7, 3840, Note_off_c, 5, 60, 0
7, 3840, Note_on_c, 5, 60, 96
7, 4096, Note_off_c, 5, 63, 0
7, 4096, Note_on_c, 5, 63, 96
7, 4096, Note_off_c, 5, 60, 0
7, 4096, Note_on_c, 5, 60, 96
7, 4864, Note_off_c, 5, 63, 0
7, 4864, Note_on_c, 5, 63, 96
7, 4864, Note_off_c, 5, 60, 0
7, 4864, Note_on_c, 5, 60, 96
7, 5120, Note_off_c, 5, 63, 0
7, 5120, Note_on_c, 5, 63, 96
7, 5120, Note_off_c, 5, 60, 0
7, 5120, Note_on_c, 5, 60, 96
7, 5888, Note_off_c, 5, 63, 0
7, 5888, Note_on_c, 5, 63, 96
7, 5888, Note_off_c, 5, 60, 0
7, 5888, Note_on_c, 5, 60, 96
7, 6144, Note_off_c, 5, 63, 0
7, 6144, Note_off_c, 5, 60, 0
7, 6144, Note_on_c, 5, 63, 96
7, 6144, Note_on_c, 5, 60, 96
7, 8192, Note_off_c, 5, 63, 0
7, 8192, Note_off_c, 5, 60, 0
7, 9216, Note_on_c, 5, 68, 96
7, 9216, Note_on_c, 5, 62, 96
7, 9984, Note_off_c, 5, 68, 0
7, 9984, Note_on_c, 5, 68, 96
7, 9984, Note_off_c, 5, 62, 0
7, 9984, Note_on_c, 5, 62, 96
7, 10240, Note_off_c, 5, 68, 0
7, 10240, Note_on_c, 5, 68, 96
7, 10240, Note_off_c, 5, 62, 0
7, 10240, Note_on_c, 5, 65, 96
7, 11008, Note_off_c, 5, 68, 0
7, 11008, Note_on_c, 5, 68, 96
7, 11008, Note_off_c, 5, 65, 0
7, 11008, Note_on_c, 5, 65, 96
7, 11264, Note_off_c, 5, 68, 0
7, 11264, Note_on_c, 5, 68, 96
7, 11264, Note_off_c, 5, 65, 0
7, 11264, Note_on_c, 5, 65, 96
7, 12032, Note_off_c, 5, 68, 0
7, 12032, Note_on_c, 5, 68, 96
7, 12032, Note_off_c, 5, 65, 0
7, 12032, Note_on_c, 5, 65, 96
7, 12288, Note_off_c, 5, 68, 0
7, 12288, Note_off_c, 5, 65, 0
7, 12288, Note_on_c, 5, 67, 96
7, 12288, Note_on_c, 5, 63, 96
7, 14336, Note_off_c, 5, 67, 0
7, 14336, Note_off_c, 5, 63, 0
7, 15360, Note_on_c, 5, 70, 96
7, 15360, Note_on_c, 5, 65, 96
7, 15616, Note_off_c, 5, 70, 0
7, 15616, Note_on_c, 5, 72, 96
7, 15872, Note_off_c, 5, 72, 0
7, 15872, Note_on_c, 5, 74, 96
7, 15872, Note_off_c, 5, 65, 0
7, 16384, Note_on_c, 5, 70, 96
7, 16640, Note_off_c, 5, 74, 0
7, 16640, Note_on_c, 5, 75, 96
7, 16896, Note_off_c, 5, 75, 0
7, 16896, Note_on_c, 5, 77, 96
7, 16896, Note_off_c, 5, 70, 0
7, 17408, Note_on_c, 5, 70, 96
7, 17664, Note_off_c, 5, 77, 0
7, 17664, Note_on_c, 5, 74, 96
7, 17920, Note_off_c, 5, 74, 0
7, 17920, Note_on_c, 5, 72, 96
7, 17920, Note_off_c, 5, 70, 0
7, 18176, Note_off_c, 5, 72, 0
7, 18176, Note_on_c, 5, 70, 96
7, 18432, Note_off_c, 5, 70, 0
7, 18432, Note_on_c, 5, 72, 96
7, 18432, Note_on_c, 5, 68, 96
7, 18688, Note_off_c, 5, 72, 0
7, 18688, Note_on_c, 5, 77, 96
7, 18944, Note_off_c, 5, 77, 0
7, 18944, Note_on_c, 5, 72, 96
7, 18944, Note_off_c, 5, 68, 0
7, 19200, Note_off_c, 5, 72, 0
7, 19200, Note_on_c, 5, 68, 96
7, 19456, Note_off_c, 5, 68, 0
7, 19456, Note_on_c, 5, 65, 96
7, 19968, Note_off_c, 5, 65, 0
7, 21504, Note_on_c, 5, 72, 96
7, 21504, Note_on_c, 5, 67, 96
7, 21760, Note_off_c, 5, 72, 0
7, 21760, Note_on_c, 5, 74, 96
7, 22016, Note_off_c, 5, 74, 0
7, 22016, Note_on_c, 5, 75, 96
7, 22016, Note_off_c, 5, 67, 0
7, 22528, Note_on_c, 5, 72, 96
7, 22784, Note_off_c, 5, 75, 0
7, 22784, Note_on_c, 5, 77, 96
7, 23040, Note_off_c, 5, 77, 0
7, 23040, Note_on_c, 5, 79, 96
7, 23040, Note_off_c, 5, 72, 0
7, 23552, Note_on_c, 5, 75, 96
7, 23808, Note_off_c, 5, 79, 0
7, 23808, Note_on_c, 5, 77, 96
7, 24064, Note_off_c, 5, 77, 0
7, 24064, Note_on_c, 5, 79, 96
7, 24064, Note_off_c, 5, 75, 0
7, 24320, Note_off_c, 5, 79, 0
7, 24320, Note_on_c, 5, 80, 96
7, 24576, Note_off_c, 5, 80, 0
7, 24576, Note_on_c, 5, 82, 96
7, 24576, Note_on_c, 5, 75, 96
7, 25088, Note_off_c, 5, 75, 0
7, 25600, Note_on_c, 5, 70, 96
7, 26112, Note_off_c, 5, 70, 0
7, 26624, Note_on_c, 5, 75, 96
7, 27136, Note_off_c, 5, 75, 0
7, 27648, Note_on_c, 5, 72, 96
7, 28160, Note_off_c, 5, 72, 0
7, 28672, Note_off_c, 5, 82, 0
7, 28672, Note_on_c, 5, 80, 96
7, 28672, Note_on_c, 5, 77, 96
7, 31232, Note_off_c, 5, 77, 0
7, 31744, Note_off_c, 5, 80, 0
7, 31744, Note_on_c, 5, 79, 96
7, 31744, Note_on_c, 5, 75, 96
7, 32256, Note_off_c, 5, 75, 0
7, 32768, Note_on_c, 5, 70, 96
7, 33280, Note_off_c, 5, 70, 0
7, 33792, Note_on_c, 5, 68, 96
7, 34304, Note_off_c, 5, 68, 0
7, 34816, Note_off_c, 5, 79, 0
7, 34816, Note_on_c, 5, 77, 96
7, 34816, Note_on_c, 5, 68, 96
7, 36864, Note_off_c, 5, 68, 0
7, 36864, Note_on_c, 5, 62, 96
7, 37376, Note_off_c, 5, 62, 0
7, 37888, Note_off_c, 5, 77, 0
7, 37888, Note_on_c, 5, 75, 96
7, 37888, Note_on_c, 5, 60, 96
7, 38400, Note_off_c, 5, 60, 0
7, 38912, Note_on_c, 5, 72, 96
7, 39424, Note_off_c, 5, 72, 0
7, 39936, Note_on_c, 5, 65, 96
7, 40448, Note_off_c, 5, 75, 0
7, 40448, Note_on_c, 5, 65, 96
7, 40448, Note_off_c, 5, 65, 0
7, 40704, Note_off_c, 5, 65, 0
7, 40704, Note_on_c, 5, 67, 96
7, 40960, Note_off_c, 5, 67, 0
7, 40960, Note_on_c, 5, 69, 96
7, 40960, Note_on_c, 5, 65, 96
7, 41216, Note_off_c, 5, 69, 0
7, 41216, Note_on_c, 5, 70, 96
7, 41472, Note_off_c, 5, 70, 0
7, 41472, Note_on_c, 5, 72, 96
7, 41472, Note_off_c, 5, 65, 0
7, 41984, Note_on_c, 5, 65, 96
7, 42240, Note_off_c, 5, 72, 0
7, 42240, Note_on_c, 5, 74, 96
7, 42496, Note_off_c, 5, 74, 0
7, 42496, Note_on_c, 5, 75, 96
7, 42496, Note_off_c, 5, 65, 0
7, 42752, Note_off_c, 5, 75, 0
7, 42752, Note_on_c, 5, 72, 96
7, 43008, Note_off_c, 5, 72, 0
7, 43008, Note_on_c, 5, 74, 96
7, 43008, Note_on_c, 5, 65, 96
7, 43264, Note_off_c, 5, 74, 0
7, 43264, Note_on_c, 5, 77, 96
7, 43520, Note_off_c, 5, 77, 0
7, 43520, Note_on_c, 5, 70, 96
7, 43520, Note_off_c, 5, 65, 0
7, 43776, Note_off_c, 5, 70, 0
7, 43776, Note_on_c, 5, 72, 96
7, 44032, Note_off_c, 5, 72, 0
7, 44032, Note_on_c, 5, 74, 96
7, 44032, Note_on_c, 5, 70, 96
7, 44288, Note_off_c, 5, 74, 0
7, 44288, Note_on_c, 5, 75, 96
7, 44544, Note_off_c, 5, 75, 0
7, 44544, Note_on_c, 5, 77, 96
7, 44544, Note_off_c, 5, 70, 0
7, 45056, Note_on_c, 5, 74, 96
7, 45312, Note_off_c, 5, 77, 0
7, 45312, Note_on_c, 5, 79, 96
7, 45568, Note_off_c, 5, 79, 0
7, 45568, Note_on_c, 5, 80, 96
7, 45568, Note_off_c, 5, 74, 0
7, 45824, Note_off_c, 5, 80, 0
7, 45824, Note_on_c, 5, 77, 96
7, 46080, Note_off_c, 5, 77, 0
7, 46080, Note_on_c, 5, 82, 96
7, 46080, Note_on_c, 5, 75, 96
7, 46848, Note_off_c, 5, 82, 0
7, 46848, Note_on_c, 5, 80, 96
7, 46848, Note_off_c, 5, 75, 0
7, 46848, Note_on_c, 5, 77, 96
7, 47104, Note_off_c, 5, 80, 0
7, 47104, Note_on_c, 5, 79, 96
7, 47104, Note_off_c, 5, 77, 0
7, 47104, Note_on_c, 5, 75, 96
7, 48128, Note_off_c, 5, 79, 0
7, 48128, Note_on_c, 5, 77, 96
7, 48128, Note_off_c, 5, 75, 0
7, 48128, Note_on_c, 5, 74, 96
7, 49152, Note_off_c, 5, 77, 0
7, 49152, Note_off_c, 5, 74, 0
7, 49152, Note_on_c, 5, 75, 96
7, 49152, Note_on_c, 5, 70, 96
7, 50176, Note_off_c, 5, 75, 0
7, 50176, Note_off_c, 5, 70, 0
7, 52992, Note_on_c, 5, 63, 96
7, 52992, Note_on_c, 5, 60, 96
7, 53248, Note_off_c, 5, 63, 0
7, 53248, Note_on_c, 5, 63, 96
7, 53248, Note_off_c, 5, 60, 0
7, 53248, Note_on_c, 5, 60, 96
7, 54016, Note_off_c, 5, 63, 0
7, 54016, Note_on_c, 5, 63, 96
7, 54016, Note_off_c, 5, 60, 0
7, 54016, Note_on_c, 5, 60, 96
7, 54272, Note_off_c, 5, 63, 0
7, 54272, Note_on_c, 5, 63, 96
7, 54272, Note_off_c, 5, 60, 0
7, 54272, Note_on_c, 5, 60, 96
7, 55040, Note_off_c, 5, 63, 0
7, 55040, Note_on_c, 5, 63, 96
7, 55040, Note_off_c, 5, 60, 0
7, 55040, Note_on_c, 5, 60, 96
7, 55296, Note_off_c, 5, 63, 0
7, 55296, Note_off_c, 5, 60, 0
7, 55296, Note_on_c, 5, 63, 96
7, 55296, Note_on_c, 5, 67, 96
7, 56320, Note_off_c, 5, 63, 0
7, 56320, Note_off_c, 5, 67, 0
7, 58880, Note_on_c, 5, 63, 96
7, 59136, Note_off_c, 5, 63, 0
7, 59136, Note_on_c, 5, 65, 96
7, 59392, Note_off_c, 5, 65, 0
7, 59392, Note_on_c, 5, 67, 96
7, 59648, Note_off_c, 5, 67, 0
7, 59648, Note_on_c, 5, 68, 96
7, 59904, Note_off_c, 5, 68, 0
7, 59904, Note_on_c, 5, 70, 96
7, 60672, Note_off_c, 5, 70, 0
7, 60672, Note_on_c, 5, 68, 96
7, 60928, Note_off_c, 5, 68, 0
7, 60928, Note_on_c, 5, 67, 96
7, 61184, Note_off_c, 5, 67, 0
7, 61184, Note_on_c, 5, 68, 96
7, 61440, Note_off_c, 5, 68, 0
7, 61440, Note_on_c, 5, 65, 96
7, 62464, Note_off_c, 5, 65, 0
7, 65024, Note_on_c, 5, 75, 96
7, 65280, Note_off_c, 5, 75, 0
7, 65280, Note_on_c, 5, 74, 96
7, 65536, Note_off_c, 5, 74, 0
7, 65536, Note_on_c, 5, 75, 96
7, 65792, Note_off_c, 5, 75, 0
7, 65792, Note_on_c, 5, 77, 96
7, 66048, Note_off_c, 5, 77, 0
7, 66048, Note_on_c, 5, 79, 96
7, 66816, Note_off_c, 5, 79, 0
7, 66816, Note_on_c, 5, 81, 96
7, 67072, Note_off_c, 5, 81, 0
7, 67072, Note_on_c, 5, 82, 96
7, 67328, Note_off_c, 5, 82, 0
7, 67328, Note_on_c, 5, 81, 96
7, 67584, Note_off_c, 5, 81, 0
7, 67584, Note_on_c, 5, 82, 96
7, 72704, Note_off_c, 5, 82, 0
7, 72704, Note_on_c, 5, 81, 96
7, 73728, Note_off_c, 5, 81, 0
7, 73728, Note_on_c, 5, 82, 96
7, 73728, Note_on_c, 5, 65, 96
7, 74496, Note_off_c, 5, 82, 0
7, 74496, Note_on_c, 5, 70, 96
7, 74496, Note_off_c, 5, 65, 0
7, 74496, Note_on_c, 5, 65, 96
7, 74752, Note_off_c, 5, 70, 0
7, 74752, Note_on_c, 5, 70, 96
7, 74752, Note_off_c, 5, 65, 0
7, 74752, Note_on_c, 5, 65, 96
7, 75520, Note_off_c, 5, 70, 0
7, 75520, Note_on_c, 5, 70, 96
7, 75520, Note_off_c, 5, 65, 0
7, 75520, Note_on_c, 5, 65, 96
7, 75776, Note_off_c, 5, 70, 0
7, 75776, Note_on_c, 5, 70, 96
7, 75776, Note_off_c, 5, 65, 0
7, 75776, Note_on_c, 5, 65, 96
7, 76544, Note_off_c, 5, 70, 0
7, 76544, Note_on_c, 5, 70, 96
7, 76544, Note_off_c, 5, 65, 0
7, 76544, Note_on_c, 5, 65, 96
7, 76800, Note_off_c, 5, 70, 0
7, 76800, Note_off_c, 5, 65, 0
7, 76800, Note_on_c, 5, 70, 96
7, 76800, Note_on_c, 5, 67, 96
7, 78848, Note_off_c, 5, 70, 0
7, 78848, Note_off_c, 5, 67, 0
7, 79872, Note_on_c, 5, 72, 96
7, 79872, Note_on_c, 5, 67, 96
7, 80640, Note_off_c, 5, 72, 0
7, 80640, Note_on_c, 5, 72, 96
7, 80640, Note_off_c, 5, 67, 0
7, 80640, Note_on_c, 5, 67, 96
7, 80896, Note_off_c, 5, 72, 0
7, 80896, Note_on_c, 5, 72, 96
7, 80896, Note_off_c, 5, 67, 0
7, 80896, Note_on_c, 5, 70, 96
7, 81664, Note_off_c, 5, 72, 0
7, 81664, Note_on_c, 5, 72, 96
7, 81664, Note_off_c, 5, 70, 0
7, 81664, Note_on_c, 5, 70, 96
7, 81920, Note_off_c, 5, 72, 0
7, 81920, Note_on_c, 5, 72, 96
7, 81920, Note_off_c, 5, 70, 0
7, 81920, Note_on_c, 5, 70, 96
7, 82688, Note_off_c, 5, 72, 0
7, 82688, Note_on_c, 5, 72, 96
7, 82688, Note_off_c, 5, 70, 0
7, 82688, Note_on_c, 5, 70, 96
7, 82944, Note_off_c, 5, 72, 0
7, 82944, Note_off_c, 5, 70, 0
7, 82944, Note_on_c, 5, 72, 96
7, 82944, Note_on_c, 5, 69, 96
7, 84992, Note_off_c, 5, 72, 0
7, 84992, Note_off_c, 5, 69, 0
7, 86528, Note_on_c, 5, 70, 96
7, 86784, Note_off_c, 5, 70, 0
7, 86784, Note_on_c, 5, 72, 96
7, 87040, Note_off_c, 5, 72, 0
7, 87040, Note_on_c, 5, 74, 96
7, 87296, Note_off_c, 5, 74, 0
7, 87296, Note_on_c, 5, 75, 96
7, 87552, Note_off_c, 5, 75, 0
7, 87552, Note_on_c, 5, 77, 96
7, 88320, Note_off_c, 5, 77, 0
7, 88320, Note_on_c, 5, 80, 96
7, 88576, Note_off_c, 5, 80, 0
7, 88576, Note_on_c, 5, 79, 96
7, 88832, Note_off_c, 5, 79, 0
7, 88832, Note_on_c, 5, 77, 96
7, 89088, Note_off_c, 5, 77, 0
7, 89088, Note_on_c, 5, 75, 96
7, 92672, Note_on_c, 5, 67, 96
7, 92928, Note_off_c, 5, 67, 0
7, 92928, Note_on_c, 5, 65, 96
7, 93184, Note_off_c, 5, 65, 0
7, 93184, Note_on_c, 5, 67, 96
7, 93440, Note_off_c, 5, 67, 0
7, 93440, Note_on_c, 5, 68, 96
7, 93696, Note_off_c, 5, 68, 0
7, 93696, Note_on_c, 5, 70, 96
7, 94464, Note_off_c, 5, 70, 0
7, 94464, Note_on_c, 5, 72, 96
7, 94720, Note_off_c, 5, 72, 0
7, 94720, Note_on_c, 5, 74, 96
7, 94976, Note_off_c, 5, 74, 0
7, 94976, Note_on_c, 5, 70, 96
7, 95232, Note_off_c, 5, 70, 0
7, 95232, Note_on_c, 5, 79, 96
7, 98560, Note_off_c, 5, 79, 0
7, 98560, Note_on_c, 5, 77, 96
7, 98816, Note_off_c, 5, 77, 0
7, 98816, Note_on_c, 5, 75, 96
7, 99840, Note_off_c, 5, 75, 0
7, 99840, Note_on_c, 5, 74, 96
7, 100096, Note_off_c, 5, 74, 0
7, 100096, Note_on_c, 5, 72, 96
7, 100352, Note_off_c, 5, 72, 0
7, 100352, Note_on_c, 5, 70, 96
7, 100608, Note_off_c, 5, 70, 0
7, 100608, Note_on_c, 5, 69, 96
7, 100864, Note_off_c, 5, 69, 0
7, 100864, Note_on_c, 5, 67, 96
7, 101120, Note_off_c, 5, 67, 0
7, 101120, Note_on_c, 5, 65, 96
7, 101376, Note_off_c, 5, 65, 0
7, 101376, Note_on_c, 5, 72, 96
7, 101888, Note_off_c, 5, 75, 0
7, 101888, Note_on_c, 5, 74, 96
7, 101888, Note_off_c, 5, 72, 0
7, 102144, Note_off_c, 5, 74, 0
7, 102144, Note_on_c, 5, 72, 96
7, 102400, Note_off_c, 5, 72, 0
7, 102400, Note_on_c, 5, 70, 96
7, 102912, Note_off_c, 5, 70, 0
7, 104960, Note_on_c, 5, 67, 96
7, 105984, Note_off_c, 5, 67, 0
7, 105984, Note_on_c, 5, 69, 96
7, 106240, Note_off_c, 5, 69, 0
7, 106240, Note_on_c, 5, 70, 96
7, 106496, Note_off_c, 5, 70, 0
7, 106496, Note_on_c, 5, 72, 96
7, 106752, Note_off_c, 5, 72, 0
7, 106752, Note_on_c, 5, 74, 96
7, 107008, Note_off_c, 5, 74, 0
7, 107008, Note_on_c, 5, 75, 96
7, 107264, Note_off_c, 5, 75, 0
7, 107264, Note_on_c, 5, 72, 96
7, 107520, Note_off_c, 5, 72, 0
7, 107520, Note_on_c, 5, 74, 96
7, 107776, Note_off_c, 5, 74, 0
7, 107776, Note_on_c, 5, 75, 96
7, 108032, Note_off_c, 5, 75, 0
7, 108032, Note_on_c, 5, 77, 96
7, 108544, Note_off_c, 5, 77, 0
7, 111104, Note_on_c, 5, 75, 96
7, 111872, Note_off_c, 5, 75, 0
7, 111872, Note_on_c, 5, 74, 96
7, 112128, Note_off_c, 5, 74, 0
7, 112128, Note_on_c, 5, 72, 96
7, 112384, Note_off_c, 5, 72, 0
7, 112384, Note_on_c, 5, 70, 96
7, 112640, Note_off_c, 5, 70, 0
7, 112640, Note_on_c, 5, 69, 96
7, 112896, Note_off_c, 5, 69, 0
7, 112896, Note_on_c, 5, 67, 96
7, 113152, Note_off_c, 5, 67, 0
7, 113152, Note_on_c, 5, 65, 96
7, 113920, Note_off_c, 5, 65, 0
7, 113920, Note_on_c, 5, 67, 96
7, 114176, Note_off_c, 5, 67, 0
7, 114176, Note_on_c, 5, 65, 96
7, 114432, Note_off_c, 5, 65, 0
7, 114432, Note_on_c, 5, 63, 96
7, 114688, Note_off_c, 5, 63, 0
7, 114688, Note_on_c, 5, 62, 96
7, 115200, Note_off_c, 5, 62, 0
7, 116736, Note_on_c, 5, 63, 96
7, 116736, Note_on_c, 5, 67, 96
7, 116992, Note_off_c, 5, 63, 0
7, 116992, Note_on_c, 5, 65, 96
7, 117248, Note_off_c, 5, 65, 0
7, 117248, Note_on_c, 5, 67, 96
7, 117248, Note_off_c, 5, 67, 0
7, 117760, Note_on_c, 5, 63, 96
7, 118016, Note_off_c, 5, 67, 0
7, 118016, Note_on_c, 5, 68, 96
7, 118272, Note_off_c, 5, 68, 0
7, 118272, Note_on_c, 5, 70, 96
7, 118272, Note_off_c, 5, 63, 0
7, 118784, Note_on_c, 5, 63, 96
7, 119040, Note_off_c, 5, 70, 0
7, 119040, Note_on_c, 5, 72, 96
7, 119296, Note_off_c, 5, 72, 0
7, 119296, Note_on_c, 5, 73, 96
7, 119296, Note_off_c, 5, 63, 0
7, 119552, Note_off_c, 5, 73, 0
7, 119552, Note_on_c, 5, 70, 96
7, 119808, Note_off_c, 5, 70, 0
7, 119808, Note_on_c, 5, 72, 96
7, 119808, Note_on_c, 5, 67, 96
7, 120320, Note_off_c, 5, 72, 0
7, 120320, Note_on_c, 5, 70, 96
7, 120320, Note_off_c, 5, 67, 0
7, 120576, Note_off_c, 5, 70, 0
7, 120576, Note_on_c, 5, 68, 96
7, 120832, Note_off_c, 5, 68, 0
7, 120832, Note_on_c, 5, 67, 96
7, 121344, Note_off_c, 5, 67, 0
7, 122880, Note_on_c, 5, 65, 96
7, 122880, Note_on_c, 5, 60, 96
7, 123136, Note_off_c, 5, 65, 0
7, 123136, Note_on_c, 5, 67, 96
7, 123392, Note_off_c, 5, 67, 0
7, 123392, Note_on_c, 5, 68, 96
7, 123392, Note_off_c, 5, 60, 0
7, 123904, Note_on_c, 5, 65, 96
7, 124160, Note_off_c, 5, 68, 0
7, 124160, Note_on_c, 5, 70, 96
7, 124416, Note_off_c, 5, 70, 0
7, 124416, Note_on_c, 5, 72, 96
7, 124416, Note_off_c, 5, 65, 0
7, 124928, Note_on_c, 5, 65, 96
7, 125184, Note_off_c, 5, 72, 0
7, 125184, Note_on_c, 5, 74, 96
7, 125440, Note_off_c, 5, 74, 0
7, 125440, Note_on_c, 5, 75, 96
7, 125440, Note_off_c, 5, 65, 0
7, 125696, Note_off_c, 5, 75, 0
7, 125696, Note_on_c, 5, 72, 96
7, 125952, Note_off_c, 5, 72, 0
7, 125952, Note_on_c, 5, 77, 96
7, 125952, Note_on_c, 5, 65, 96
7, 126464, Note_off_c, 5, 65, 0
7, 126976, Note_on_c, 5, 74, 96
7, 127488, Note_off_c, 5, 74, 0
7, 128000, Note_on_c, 5, 70, 96
7, 128512, Note_off_c, 5, 70, 0
7, 129024, Note_on_c, 5, 70, 96
7, 129280, Note_off_c, 5, 77, 0
7, 129280, Note_on_c, 5, 70, 96
7, 129536, Note_off_c, 5, 70, 0
7, 129536, Note_on_c, 5, 68, 96
7, 129536, Note_off_c, 5, 70, 0
7, 129792, Note_off_c, 5, 68, 0
7, 129792, Note_on_c, 5, 70, 96
7, 130048, Note_off_c, 5, 70, 0
7, 130048, Note_on_c, 5, 67, 96
7, 130304, Note_off_c, 5, 67, 0
7, 130304, Note_on_c, 5, 70, 96
7, 130560, Note_off_c, 5, 70, 0
7, 130560, Note_on_c, 5, 68, 96
7, 130816, Note_off_c, 5, 68, 0
7, 130816, Note_on_c, 5, 70, 96
7, 131072, Note_off_c, 5, 70, 0
7, 131072, Note_on_c, 5, 75, 96
7, 131328, Note_off_c, 5, 75, 0
7, 131328, Note_on_c, 5, 70, 96
7, 131584, Note_off_c, 5, 70, 0
7, 131584, Note_on_c, 5, 68, 96
7, 131840, Note_off_c, 5, 68, 0
7, 131840, Note_on_c, 5, 70, 96
7, 132096, Note_off_c, 5, 70, 0
7, 132096, Note_on_c, 5, 79, 96
7, 132352, Note_off_c, 5, 79, 0
7, 132352, Note_on_c, 5, 67, 96
7, 132608, Note_off_c, 5, 67, 0
7, 132608, Note_on_c, 5, 65, 96
7, 132864, Note_off_c, 5, 65, 0
7, 132864, Note_on_c, 5, 67, 96
7, 133120, Note_off_c, 5, 67, 0
7, 133120, Note_on_c, 5, 63, 96
7, 133376, Note_off_c, 5, 63, 0
7, 133376, Note_on_c, 5, 67, 96
7, 133632, Note_off_c, 5, 67, 0
7, 133632, Note_on_c, 5, 65, 96
7, 133888, Note_off_c, 5, 65, 0
7, 133888, Note_on_c, 5, 67, 96
7, 134144, Note_off_c, 5, 67, 0
7, 134144, Note_on_c, 5, 72, 96
7, 134400, Note_off_c, 5, 72, 0
7, 134400, Note_on_c, 5, 67, 96
7, 134656, Note_off_c, 5, 67, 0
7, 134656, Note_on_c, 5, 65, 96
7, 134912, Note_off_c, 5, 65, 0
7, 134912, Note_on_c, 5, 67, 96
7, 135168, Note_off_c, 5, 67, 0
7, 135168, Note_on_c, 5, 75, 96
7, 135680, Note_off_c, 5, 75, 0
7, 138240, Note_on_c, 5, 63, 96
7, 138240, Note_on_c, 5, 60, 96
7, 139008, Note_off_c, 5, 63, 0
7, 139008, Note_on_c, 5, 63, 96
7, 139008, Note_off_c, 5, 60, 0
7, 139008, Note_on_c, 5, 60, 96
7, 139264, Note_off_c, 5, 63, 0
7, 139264, Note_on_c, 5, 63, 96
7, 139264, Note_off_c, 5, 60, 0
7, 139264, Note_on_c, 5, 63, 96
7, 140032, Note_off_c, 5, 63, 0
7, 140032, Note_on_c, 5, 63, 96
7, 140032, Note_off_c, 5, 63, 0
7, 140032, Note_on_c, 5, 63, 96
7, 140288, Note_off_c, 5, 63, 0
7, 140288, Note_on_c, 5, 63, 96
7, 140288, Note_off_c, 5, 63, 0
7, 140288, Note_on_c, 5, 68, 96
7, 141056, Note_off_c, 5, 63, 0
7, 141056, Note_on_c, 5, 63, 96
7, 141056, Note_off_c, 5, 68, 0
7, 141056, Note_on_c, 5, 68, 96
7, 141312, Note_off_c, 5, 63, 0
7, 141312, Note_off_c, 5, 68, 0
7, 141312, Note_on_c, 5, 63, 96
7, 141312, Note_on_c, 5, 67, 96
7, 143360, Note_off_c, 5, 63, 0
7, 143360, Note_off_c, 5, 67, 0
7, 144384, Note_on_c, 5, 65, 96
7, 144384, Note_on_c, 5, 60, 96
7, 145152, Note_off_c, 5, 65, 0
7, 145152, Note_on_c, 5, 65, 96
7, 145152, Note_off_c, 5, 60, 0
7, 145152, Note_on_c, 5, 60, 96
7, 145408, Note_off_c, 5, 65, 0
7, 145408, Note_on_c, 5, 65, 96
7, 145408, Note_off_c, 5, 60, 0
7, 145408, Note_on_c, 5, 60, 96
7, 146176, Note_off_c, 5, 65, 0
7, 146176, Note_on_c, 5, 65, 96
7, 146176, Note_off_c, 5, 60, 0
7, 146176, Note_on_c, 5, 60, 96
7, 146432, Note_off_c, 5, 65, 0
7, 146432, Note_on_c, 5, 65, 96
7, 146432, Note_off_c, 5, 60, 0
7, 146432, Note_on_c, 5, 60, 96
7, 147200, Note_off_c, 5, 65, 0
7, 147200, Note_on_c, 5, 65, 96
7, 147200, Note_off_c, 5, 60, 0
7, 147200, Note_on_c, 5, 60, 96
7, 147456, Note_off_c, 5, 65, 0
7, 147456, Note_off_c, 5, 60, 0
7, 147456, Note_on_c, 5, 65, 96
7, 147456, Note_on_c, 5, 62, 96
7, 149504, Note_off_c, 5, 65, 0
7, 149504, Note_off_c, 5, 62, 0
7, 150528, Note_on_c, 5, 63, 96
7, 150528, Note_on_c, 5, 67, 96
7, 150784, Note_off_c, 5, 63, 0
7, 150784, Note_on_c, 5, 65, 96
7, 151040, Note_off_c, 5, 65, 0
7, 151040, Note_on_c, 5, 67, 96
7, 151040, Note_off_c, 5, 67, 0
7, 151552, Note_on_c, 5, 70, 96
7, 151808, Note_off_c, 5, 67, 0
7, 151808, Note_on_c, 5, 68, 96
7, 152064, Note_off_c, 5, 68, 0
7, 152064, Note_on_c, 5, 70, 96
7, 152064, Note_off_c, 5, 70, 0
7, 152576, Note_on_c, 5, 67, 96
7, 152832, Note_off_c, 5, 70, 0
7, 152832, Note_on_c, 5, 68, 96
7, 153088, Note_off_c, 5, 68, 0
7, 153088, Note_on_c, 5, 70, 96
7, 153088, Note_off_c, 5, 67, 0
7, 153344, Note_off_c, 5, 70, 0
7, 153344, Note_on_c, 5, 72, 96
7, 153600, Note_off_c, 5, 72, 0
7, 153600, Note_on_c, 5, 73, 96
7, 153600, Note_on_c, 5, 70, 96
7, 153856, Note_off_c, 5, 73, 0
7, 153856, Note_on_c, 5, 70, 96
7, 154112, Note_off_c, 5, 70, 0
7, 154112, Note_on_c, 5, 67, 96
7, 154112, Note_off_c, 5, 70, 0
7, 154368, Note_off_c, 5, 67, 0
7, 154368, Note_on_c, 5, 70, 96
7, 154624, Note_off_c, 5, 70, 0
7, 154624, Note_on_c, 5, 63, 96
7, 155136, Note_off_c, 5, 63, 0
7, 156672, Note_on_c, 5, 68, 96
7, 156672, Note_on_c, 5, 63, 96
7, 156928, Note_off_c, 5, 68, 0
7, 156928, Note_on_c, 5, 70, 96
7, 157184, Note_off_c, 5, 70, 0
7, 157184, Note_on_c, 5, 72, 96
7, 157184, Note_off_c, 5, 63, 0
7, 157696, Note_on_c, 5, 75, 96
7, 157952, Note_off_c, 5, 72, 0
7, 157952, Note_on_c, 5, 73, 96
7, 158208, Note_off_c, 5, 73, 0
7, 158208, Note_on_c, 5, 75, 96
7, 158208, Note_off_c, 5, 75, 0
7, 158720, Note_on_c, 5, 68, 96
7, 158976, Note_off_c, 5, 75, 0
7, 158976, Note_on_c, 5, 74, 96
7, 159232, Note_off_c, 5, 74, 0
7, 159232, Note_on_c, 5, 75, 96
7, 159232, Note_off_c, 5, 68, 0
7, 159488, Note_off_c, 5, 75, 0
7, 159488, Note_on_c, 5, 77, 96
7, 159744, Note_off_c, 5, 77, 0
7, 159744, Note_on_c, 5, 79, 96
7, 159744, Note_on_c, 5, 70, 96
7, 160256, Note_off_c, 5, 79, 0
7, 160256, Note_off_c, 5, 70, 0
7, 162816, Note_on_c, 5, 63, 96
7, 162816, Note_on_c, 5, 60, 96
7, 163584, Note_off_c, 5, 63, 0
7, 163584, Note_on_c, 5, 63, 96
7, 163584, Note_off_c, 5, 60, 0
7, 163584, Note_on_c, 5, 60, 96
7, 163840, Note_off_c, 5, 63, 0
7, 163840, Note_on_c, 5, 63, 96
7, 163840, Note_off_c, 5, 60, 0
7, 163840, Note_on_c, 5, 60, 96
7, 164608, Note_off_c, 5, 63, 0
7, 164608, Note_on_c, 5, 63, 96
7, 164608, Note_off_c, 5, 60, 0
7, 164608, Note_on_c, 5, 60, 96
7, 164864, Note_off_c, 5, 63, 0
7, 164864, Note_on_c, 5, 63, 96
7, 164864, Note_off_c, 5, 60, 0
7, 164864, Note_on_c, 5, 60, 96
7, 165632, Note_off_c, 5, 63, 0
7, 165632, Note_on_c, 5, 63, 96
7, 165632, Note_off_c, 5, 60, 0
7, 165632, Note_on_c, 5, 60, 96
7, 165888, Note_off_c, 5, 63, 0
7, 165888, Note_off_c, 5, 60, 0
7, 165888, Note_on_c, 5, 63, 96
7, 165888, Note_on_c, 5, 60, 96
7, 167936, Note_off_c, 5, 63, 0
7, 167936, Note_off_c, 5, 60, 0
7, 168960, Note_on_c, 5, 68, 96
7, 168960, Note_on_c, 5, 62, 96
7, 169728, Note_off_c, 5, 68, 0
7, 169728, Note_on_c, 5, 68, 96
7, 169728, Note_off_c, 5, 62, 0
7, 169728, Note_on_c, 5, 62, 96
7, 169984, Note_off_c, 5, 68, 0
7, 169984, Note_on_c, 5, 68, 96
7, 169984, Note_off_c, 5, 62, 0
7, 169984, Note_on_c, 5, 65, 96
7, 170752, Note_off_c, 5, 68, 0
7, 170752, Note_on_c, 5, 68, 96
7, 170752, Note_off_c, 5, 65, 0
7, 170752, Note_on_c, 5, 65, 96
7, 171008, Note_off_c, 5, 68, 0
7, 171008, Note_on_c, 5, 68, 96
7, 171008, Note_off_c, 5, 65, 0
7, 171008, Note_on_c, 5, 65, 96
7, 171776, Note_off_c, 5, 68, 0
7, 171776, Note_on_c, 5, 68, 96
7, 171776, Note_off_c, 5, 65, 0
7, 171776, Note_on_c, 5, 65, 96
7, 172032, Note_off_c, 5, 68, 0
7, 172032, Note_off_c, 5, 65, 0
7, 172032, Note_on_c, 5, 67, 96
7, 172032, Note_on_c, 5, 63, 96
7, 174080, Note_off_c, 5, 67, 0
7, 174080, Note_off_c, 5, 63, 0
7, 175104, Note_on_c, 5, 70, 96
7, 175104, Note_on_c, 5, 65, 96
7, 175360, Note_off_c, 5, 70, 0
7, 175360, Note_on_c, 5, 72, 96
7, 175616, Note_off_c, 5, 72, 0
7, 175616, Note_on_c, 5, 74, 96
7, 175616, Note_off_c, 5, 65, 0
7, 176128, Note_on_c, 5, 70, 96
7, 176384, Note_off_c, 5, 74, 0
7, 176384, Note_on_c, 5, 75, 96
7, 176640, Note_off_c, 5, 75, 0
7, 176640, Note_on_c, 5, 77, 96
7, 176640, Note_off_c, 5, 70, 0
7, 177152, Note_on_c, 5, 70, 96
7, 177408, Note_off_c, 5, 77, 0
7, 177408, Note_on_c, 5, 74, 96
7, 177664, Note_off_c, 5, 74, 0
7, 177664, Note_on_c, 5, 72, 96
7, 177664, Note_off_c, 5, 70, 0
7, 177920, Note_off_c, 5, 72, 0
7, 177920, Note_on_c, 5, 70, 96
7, 178176, Note_off_c, 5, 70, 0
7, 178176, Note_on_c, 5, 72, 96
7, 178176, Note_on_c, 5, 68, 96
7, 178432, Note_off_c, 5, 72, 0
7, 178432, Note_on_c, 5, 77, 96
7, 178688, Note_off_c, 5, 77, 0
7, 178688, Note_on_c, 5, 72, 96
7, 178688, Note_off_c, 5, 68, 0
7, 178944, Note_off_c, 5, 72, 0
7, 178944, Note_on_c, 5, 68, 96
7, 179200, Note_off_c, 5, 68, 0
7, 179200, Note_on_c, 5, 65, 96
7, 179712, Note_off_c, 5, 65, 0
7, 181248, Note_on_c, 5, 72, 96
7, 181248, Note_on_c, 5, 67, 96
7, 181504, Note_off_c, 5, 72, 0
7, 181504, Note_on_c, 5, 74, 96
7, 181760, Note_off_c, 5, 74, 0
7, 181760, Note_on_c, 5, 75, 96
7, 181760, Note_off_c, 5, 67, 0
7, 182272, Note_on_c, 5, 72, 96
7, 182528, Note_off_c, 5, 75, 0
7, 182528, Note_on_c, 5, 77, 96
7, 182784, Note_off_c, 5, 77, 0
7, 182784, Note_on_c, 5, 79, 96
7, 182784, Note_off_c, 5, 72, 0
7, 183296, Note_on_c, 5, 75, 96
7, 183552, Note_off_c, 5, 79, 0
7, 183552, Note_on_c, 5, 77, 96
7, 183808, Note_off_c, 5, 77, 0
7, 183808, Note_on_c, 5, 79, 96
7, 183808, Note_off_c, 5, 75, 0
7, 184064, Note_off_c, 5, 79, 0
7, 184064, Note_on_c, 5, 80, 96
7, 184320, Note_off_c, 5, 80, 0
7, 184320, Note_on_c, 5, 82, 96
7, 184320, Note_on_c, 5, 75, 96
7, 184832, Note_off_c, 5, 75, 0
7, 185344, Note_on_c, 5, 70, 96
7, 185856, Note_off_c, 5, 70, 0
7, 186368, Note_on_c, 5, 75, 96
7, 186880, Note_off_c, 5, 75, 0
7, 187392, Note_on_c, 5, 72, 96
7, 187904, Note_off_c, 5, 72, 0
7, 188416, Note_off_c, 5, 82, 0
7, 188416, Note_on_c, 5, 80, 96
7, 188416, Note_on_c, 5, 77, 96
7, 191488, Note_off_c, 5, 80, 0
7, 191488, Note_on_c, 5, 79, 96
7, 191488, Note_off_c, 5, 77, 0
7, 191488, Note_on_c, 5, 75, 96
7, 192000, Note_off_c, 5, 75, 0
7, 192512, Note_on_c, 5, 70, 96
7, 193024, Note_off_c, 5, 70, 0
7, 193536, Note_on_c, 5, 68, 96
7, 194048, Note_off_c, 5, 68, 0
7, 194560, Note_off_c, 5, 79, 0
7, 194560, Note_on_c, 5, 77, 96
7, 194560, Note_on_c, 5, 68, 96
7, 196608, Note_off_c, 5, 68, 0
7, 196608, Note_on_c, 5, 62, 96
7, 197120, Note_off_c, 5, 62, 0
7, 197632, Note_off_c, 5, 77, 0
7, 197632, Note_on_c, 5, 75, 96
7, 197632, Note_on_c, 5, 60, 96
7, 198144, Note_off_c, 5, 60, 0
7, 198656, Note_on_c, 5, 72, 96
7, 199168, Note_off_c, 5, 72, 0
7, 199680, Note_on_c, 5, 65, 96
7, 200192, Note_off_c, 5, 75, 0
7, 200192, Note_on_c, 5, 65, 96
7, 200192, Note_off_c, 5, 65, 0
7, 200448, Note_off_c, 5, 65, 0
7, 200448, Note_on_c, 5, 67, 96
7, 200704, Note_off_c, 5, 67, 0
7, 200704, Note_on_c, 5, 69, 96
7, 200704, Note_on_c, 5, 65, 96
7, 200960, Note_off_c, 5, 69, 0
7, 200960, Note_on_c, 5, 70, 96
7, 201216, Note_off_c, 5, 70, 0
7, 201216, Note_on_c, 5, 72, 96
7, 201216, Note_off_c, 5, 65, 0
7, 201728, Note_on_c, 5, 65, 96
7, 201984, Note_off_c, 5, 72, 0
7, 201984, Note_on_c, 5, 74, 96
7, 202240, Note_off_c, 5, 74, 0
7, 202240, Note_on_c, 5, 75, 96
7, 202240, Note_off_c, 5, 65, 0
7, 202496, Note_off_c, 5, 75, 0
7, 202496, Note_on_c, 5, 72, 96
7, 202752, Note_off_c, 5, 72, 0
7, 202752, Note_on_c, 5, 74, 96
7, 202752, Note_on_c, 5, 65, 96
7, 203008, Note_off_c, 5, 74, 0
7, 203008, Note_on_c, 5, 77, 96
7, 203264, Note_off_c, 5, 77, 0
7, 203264, Note_on_c, 5, 70, 96
7, 203264, Note_off_c, 5, 65, 0
7, 203520, Note_off_c, 5, 70, 0
7, 203520, Note_on_c, 5, 72, 96
7, 203776, Note_off_c, 5, 72, 0
7, 203776, Note_on_c, 5, 74, 96
7, 203776, Note_on_c, 5, 70, 96
7, 204032, Note_off_c, 5, 74, 0
7, 204032, Note_on_c, 5, 75, 96
7, 204288, Note_off_c, 5, 75, 0
7, 204288, Note_on_c, 5, 77, 96
7, 204288, Note_off_c, 5, 70, 0
7, 204800, Note_on_c, 5, 74, 96
7, 205056, Note_off_c, 5, 77, 0
7, 205056, Note_on_c, 5, 79, 96
7, 205312, Note_off_c, 5, 79, 0
7, 205312, Note_on_c, 5, 80, 96
7, 205312, Note_off_c, 5, 74, 0
7, 205568, Note_off_c, 5, 80, 0
7, 205568, Note_on_c, 5, 77, 96
7, 205824, Note_off_c, 5, 77, 0
7, 205824, Note_on_c, 5, 82, 96
7, 205824, Note_on_c, 5, 75, 96
7, 206592, Note_off_c, 5, 82, 0
7, 206592, Note_on_c, 5, 80, 96
7, 206592, Note_off_c, 5, 75, 0
7, 206592, Note_on_c, 5, 77, 96
7, 206848, Note_off_c, 5, 80, 0
7, 206848, Note_on_c, 5, 79, 96
7, 206848, Note_off_c, 5, 77, 0
7, 206848, Note_on_c, 5, 75, 96
7, 207872, Note_off_c, 5, 79, 0
7, 207872, Note_on_c, 5, 77, 96
7, 207872, Note_off_c, 5, 75, 0
7, 207872, Note_on_c, 5, 74, 96
7, 208896, Note_off_c, 5, 77, 0
7, 208896, Note_off_c, 5, 74, 0
7, 208896, Note_on_c, 5, 75, 96
7, 208896, Note_on_c, 5, 70, 96
7, 209920, Note_off_c, 5, 75, 0
7, 209920, Note_off_c, 5, 70, 0
7, 212736, Note_on_c, 5, 63, 96
7, 212736, Note_on_c, 5, 60, 96
7, 212992, Note_off_c, 5, 63, 0
7, 212992, Note_on_c, 5, 63, 96
7, 212992, Note_off_c, 5, 60, 0
7, 212992, Note_on_c, 5, 60, 96
7, 213760, Note_off_c, 5, 63, 0
7, 213760, Note_on_c, 5, 63, 96
7, 213760, Note_off_c, 5, 60, 0
7, 213760, Note_on_c, 5, 60, 96
7, 214016, Note_off_c, 5, 63, 0
7, 214016, Note_on_c, 5, 63, 96
7, 214016, Note_off_c, 5, 60, 0
7, 214016, Note_on_c, 5, 60, 96
7, 214784, Note_off_c, 5, 63, 0
7, 214784, Note_on_c, 5, 63, 96
7, 214784, Note_off_c, 5, 60, 0
7, 214784, Note_on_c, 5, 60, 96
7, 215040, Note_off_c, 5, 63, 0
7, 215040, Note_off_c, 5, 60, 0
7, 215040, Note_on_c, 5, 63, 96
7, 215040, Note_on_c, 5, 67, 96
7, 216064, Note_off_c, 5, 63, 0
7, 216064, Note_off_c, 5, 67, 0
7, 218624, Note_on_c, 5, 63, 96
7, 218880, Note_off_c, 5, 63, 0
7, 218880, Note_on_c, 5, 65, 96
7, 219136, Note_off_c, 5, 65, 0
7, 219136, Note_on_c, 5, 67, 96
7, 219392, Note_off_c, 5, 67, 0
7, 219392, Note_on_c, 5, 68, 96
7, 219648, Note_off_c, 5, 68, 0
7, 219648, Note_on_c, 5, 70, 96
7, 220416, Note_off_c, 5, 70, 0
7, 220416, Note_on_c, 5, 68, 96
7, 220672, Note_off_c, 5, 68, 0
7, 220672, Note_on_c, 5, 67, 96
7, 220928, Note_off_c, 5, 67, 0
7, 220928, Note_on_c, 5, 68, 96
7, 221184, Note_off_c, 5, 68, 0
7, 221184, Note_on_c, 5, 65, 96
7, 222208, Note_off_c, 5, 65, 0
7, 224768, Note_on_c, 5, 75, 96
7, 225024, Note_off_c, 5, 75, 0
7, 225024, Note_on_c, 5, 74, 96
7, 225280, Note_off_c, 5, 74, 0
7, 225280, Note_on_c, 5, 75, 96
7, 225536, Note_off_c, 5, 75, 0
7, 225536, Note_on_c, 5, 77, 96
7, 225792, Note_off_c, 5, 77, 0
7, 225792, Note_on_c, 5, 79, 96
7, 226560, Note_off_c, 5, 79, 0
7, 226560, Note_on_c, 5, 81, 96
7, 226816, Note_off_c, 5, 81, 0
7, 226816, Note_on_c, 5, 82, 96
7, 227072, Note_off_c, 5, 82, 0
7, 227072, Note_on_c, 5, 81, 96
7, 227328, Note_off_c, 5, 81, 0
7, 227328, Note_on_c, 5, 82, 96
7, 232448, Note_off_c, 5, 82, 0
7, 232448, Note_on_c, 5, 81, 96
7, 233472, Note_off_c, 5, 81, 0
7, 233472, Note_on_c, 5, 82, 96
7, 233472, Note_on_c, 5, 65, 96
7, 234240, Note_off_c, 5, 82, 0
7, 234240, Note_on_c, 5, 70, 96
7, 234240, Note_off_c, 5, 65, 0
7, 234240, Note_on_c, 5, 65, 96
7, 234496, Note_off_c, 5, 70, 0
7, 234496, Note_on_c, 5, 70, 96
7, 234496, Note_off_c, 5, 65, 0
7, 234496, Note_on_c, 5, 65, 96
7, 235264, Note_off_c, 5, 70, 0
7, 235264, Note_on_c, 5, 70, 96
7, 235264, Note_off_c, 5, 65, 0
7, 235264, Note_on_c, 5, 65, 96
7, 235520, Note_off_c, 5, 70, 0
7, 235520, Note_on_c, 5, 70, 96
7, 235520, Note_off_c, 5, 65, 0
7, 235520, Note_on_c, 5, 65, 96
7, 236288, Note_off_c, 5, 70, 0
7, 236288, Note_on_c, 5, 70, 96
7, 236288, Note_off_c, 5, 65, 0
7, 236288, Note_on_c, 5, 65, 96
7, 236544, Note_off_c, 5, 70, 0
7, 236544, Note_off_c, 5, 65, 0
7, 236544, Note_on_c, 5, 70, 96
7, 236544, Note_on_c, 5, 67, 96
7, 238592, Note_off_c, 5, 70, 0
7, 238592, Note_off_c, 5, 67, 0
7, 239616, Note_on_c, 5, 72, 96
7, 239616, Note_on_c, 5, 67, 96
7, 240384, Note_off_c, 5, 72, 0
7, 240384, Note_on_c, 5, 72, 96
7, 240384, Note_off_c, 5, 67, 0
7, 240384, Note_on_c, 5, 67, 96
7, 240640, Note_off_c, 5, 72, 0
7, 240640, Note_on_c, 5, 72, 96
7, 240640, Note_off_c, 5, 67, 0
7, 240640, Note_on_c, 5, 70, 96
7, 241408, Note_off_c, 5, 72, 0
7, 241408, Note_on_c, 5, 72, 96
7, 241408, Note_off_c, 5, 70, 0
7, 241408, Note_on_c, 5, 70, 96
7, 241664, Note_off_c, 5, 72, 0
7, 241664, Note_on_c, 5, 72, 96
7, 241664, Note_off_c, 5, 70, 0
7, 241664, Note_on_c, 5, 70, 96
7, 242432, Note_off_c, 5, 72, 0
7, 242432, Note_on_c, 5, 72, 96
7, 242432, Note_off_c, 5, 70, 0
7, 242432, Note_on_c, 5, 70, 96
7, 242688, Note_off_c, 5, 72, 0
7, 242688, Note_off_c, 5, 70, 0
7, 242688, Note_on_c, 5, 72, 96
7, 242688, Note_on_c, 5, 69, 96
7, 244736, Note_off_c, 5, 72, 0
7, 244736, Note_off_c, 5, 69, 0
7, 246272, Note_on_c, 5, 70, 96
7, 246528, Note_off_c, 5, 70, 0
7, 246528, Note_on_c, 5, 72, 96
7, 246784, Note_off_c, 5, 72, 0
7, 246784, Note_on_c, 5, 74, 96
7, 247040, Note_off_c, 5, 74, 0
7, 247040, Note_on_c, 5, 75, 96
7, 247296, Note_off_c, 5, 75, 0
7, 247296, Note_on_c, 5, 77, 96
7, 248064, Note_off_c, 5, 77, 0
7, 248064, Note_on_c, 5, 80, 96
7, 248320, Note_off_c, 5, 80, 0
7, 248320, Note_on_c, 5, 79, 96
7, 248576, Note_off_c, 5, 79, 0
7, 248576, Note_on_c, 5, 77, 96
7, 248832, Note_off_c, 5, 77, 0
7, 248832, Note_on_c, 5, 75, 96
7, 252416, Note_on_c, 5, 67, 96
7, 252672, Note_off_c, 5, 67, 0
7, 252672, Note_on_c, 5, 65, 96
7, 252928, Note_off_c, 5, 65, 0
7, 252928, Note_on_c, 5, 67, 96
7, 253184, Note_off_c, 5, 67, 0
7, 253184, Note_on_c, 5, 68, 96
7, 253440, Note_off_c, 5, 68, 0
7, 253440, Note_on_c, 5, 70, 96
7, 254208, Note_off_c, 5, 70, 0
7, 254208, Note_on_c, 5, 72, 96
7, 254464, Note_off_c, 5, 72, 0
7, 254464, Note_on_c, 5, 74, 96
7, 254720, Note_off_c, 5, 74, 0
7, 254720, Note_on_c, 5, 70, 96
7, 254976, Note_off_c, 5, 70, 0
7, 254976, Note_on_c, 5, 79, 96
7, 258304, Note_off_c, 5, 79, 0
7, 258304, Note_on_c, 5, 77, 96
7, 258560, Note_off_c, 5, 77, 0
7, 258560, Note_on_c, 5, 75, 96
7, 259584, Note_off_c, 5, 75, 0
7, 259584, Note_on_c, 5, 74, 96
7, 259840, Note_off_c, 5, 74, 0
7, 259840, Note_on_c, 5, 72, 96
7, 260096, Note_off_c, 5, 72, 0
7, 260096, Note_on_c, 5, 70, 96
7, 260352, Note_off_c, 5, 70, 0
7, 260352, Note_on_c, 5, 69, 96
7, 260608, Note_off_c, 5, 69, 0
7, 260608, Note_on_c, 5, 67, 96
7, 260864, Note_off_c, 5, 67, 0
7, 260864, Note_on_c, 5, 65, 96
7, 261120, Note_off_c, 5, 65, 0
7, 261120, Note_on_c, 5, 72, 96
7, 261632, Note_off_c, 5, 75, 0
7, 261632, Note_on_c, 5, 74, 96
7, 261632, Note_off_c, 5, 72, 0
7, 261888, Note_off_c, 5, 74, 0
7, 261888, Note_on_c, 5, 72, 96
7, 262144, Note_off_c, 5, 72, 0
7, 262144, Note_on_c, 5, 70, 96
7, 262656, Note_off_c, 5, 70, 0
7, 264704, Note_on_c, 5, 67, 96
7, 265728, Note_off_c, 5, 67, 0
7, 265728, Note_on_c, 5, 69, 96
7, 265984, Note_off_c, 5, 69, 0
7, 265984, Note_on_c, 5, 70, 96
7, 266240, Note_off_c, 5, 70, 0
7, 266240, Note_on_c, 5, 72, 96
7, 266496, Note_off_c, 5, 72, 0
7, 266496, Note_on_c, 5, 74, 96
7, 266752, Note_off_c, 5, 74, 0
7, 266752, Note_on_c, 5, 75, 96
7, 267008, Note_off_c, 5, 75, 0
7, 267008, Note_on_c, 5, 72, 96
7, 267264, Note_off_c, 5, 72, 0
7, 267264, Note_on_c, 5, 74, 96
7, 267520, Note_off_c, 5, 74, 0
7, 267520, Note_on_c, 5, 75, 96
7, 267776, Note_off_c, 5, 75, 0
7, 267776, Note_on_c, 5, 77, 96
7, 268288, Note_off_c, 5, 77, 0
7, 270848, Note_on_c, 5, 75, 96
7, 271616, Note_off_c, 5, 75, 0
7, 271616, Note_on_c, 5, 74, 96
7, 271872, Note_off_c, 5, 74, 0
7, 271872, Note_on_c, 5, 72, 96
7, 272128, Note_off_c, 5, 72, 0
7, 272128, Note_on_c, 5, 70, 96
7, 272384, Note_off_c, 5, 70, 0
7, 272384, Note_on_c, 5, 69, 96
7, 272640, Note_off_c, 5, 69, 0
7, 272640, Note_on_c, 5, 67, 96
7, 272896, Note_off_c, 5, 67, 0
7, 272896, Note_on_c, 5, 65, 96
7, 273664, Note_off_c, 5, 65, 0
7, 273664, Note_on_c, 5, 67, 96
7, 273920, Note_off_c, 5, 67, 0
7, 273920, Note_on_c, 5, 65, 96
7, 274176, Note_off_c, 5, 65, 0
7, 274176, Note_on_c, 5, 63, 96
7, 274432, Note_off_c, 5, 63, 0
7, 274432, Note_on_c, 5, 62, 96
7, 274944, Note_off_c, 5, 62, 0
7, 276480, Note_on_c, 5, 63, 96
7, 276480, Note_on_c, 5, 67, 96
7, 276736, Note_off_c, 5, 63, 0
7, 276736, Note_on_c, 5, 65, 96
7, 276992, Note_off_c, 5, 65, 0
7, 276992, Note_on_c, 5, 67, 96
7, 276992, Note_off_c, 5, 67, 0
7, 277504, Note_on_c, 5, 63, 96
7, 277760, Note_off_c, 5, 67, 0
7, 277760, Note_on_c, 5, 68, 96
7, 278016, Note_off_c, 5, 68, 0
7, 278016, Note_on_c, 5, 70, 96
7, 278016, Note_off_c, 5, 63, 0
7, 278528, Note_on_c, 5, 63, 96
7, 278784, Note_off_c, 5, 70, 0
7, 278784, Note_on_c, 5, 72, 96
7, 279040, Note_off_c, 5, 72, 0
7, 279040, Note_on_c, 5, 73, 96
7, 279040, Note_off_c, 5, 63, 0
7, 279296, Note_off_c, 5, 73, 0
7, 279296, Note_on_c, 5, 70, 96
7, 279552, Note_off_c, 5, 70, 0
7, 279552, Note_on_c, 5, 72, 96
7, 279552, Note_on_c, 5, 67, 96
7, 280064, Note_off_c, 5, 72, 0
7, 280064, Note_on_c, 5, 70, 96
7, 280064, Note_off_c, 5, 67, 0
7, 280320, Note_off_c, 5, 70, 0
7, 280320, Note_on_c, 5, 68, 96
7, 280576, Note_off_c, 5, 68, 0
7, 280576, Note_on_c, 5, 67, 96
7, 281088, Note_off_c, 5, 67, 0
7, 282624, Note_on_c, 5, 65, 96
7, 282624, Note_on_c, 5, 60, 96
7, 282880, Note_off_c, 5, 65, 0
7, 282880, Note_on_c, 5, 67, 96
7, 283136, Note_off_c, 5, 67, 0
7, 283136, Note_on_c, 5, 68, 96
7, 283136, Note_off_c, 5, 60, 0
7, 283648, Note_on_c, 5, 65, 96
7, 283904, Note_off_c, 5, 68, 0
7, 283904, Note_on_c, 5, 70, 96
7, 284160, Note_off_c, 5, 70, 0
7, 284160, Note_on_c, 5, 72, 96
7, 284160, Note_off_c, 5, 65, 0
7, 284672, Note_on_c, 5, 65, 96
7, 284928, Note_off_c, 5, 72, 0
7, 284928, Note_on_c, 5, 74, 96
7, 285184, Note_off_c, 5, 74, 0
7, 285184, Note_on_c, 5, 75, 96
7, 285184, Note_off_c, 5, 65, 0
7, 285440, Note_off_c, 5, 75, 0
7, 285440, Note_on_c, 5, 72, 96
7, 285696, Note_off_c, 5, 72, 0
7, 285696, Note_on_c, 5, 77, 96
7, 285696, Note_on_c, 5, 65, 96
7, 286208, Note_off_c, 5, 65, 0
7, 286720, Note_on_c, 5, 74, 96
7, 287232, Note_off_c, 5, 74, 0
7, 287744, Note_on_c, 5, 70, 96
7, 288256, Note_off_c, 5, 70, 0
7, 288768, Note_on_c, 5, 70, 96
7, 289024, Note_off_c, 5, 77, 0
7, 289024, Note_on_c, 5, 70, 96
7, 289280, Note_off_c, 5, 70, 0
7, 289280, Note_on_c, 5, 68, 96
7, 289280, Note_off_c, 5, 70, 0
7, 289536, Note_off_c, 5, 68, 0
7, 289536, Note_on_c, 5, 70, 96
7, 289792, Note_off_c, 5, 70, 0
7, 289792, Note_on_c, 5, 67, 96
7, 290048, Note_off_c, 5, 67, 0
7, 290048, Note_on_c, 5, 70, 96
7, 290304, Note_off_c, 5, 70, 0
7, 290304, Note_on_c, 5, 68, 96
7, 290560, Note_off_c, 5, 68, 0
7, 290560, Note_on_c, 5, 70, 96
7, 290816, Note_off_c, 5, 70, 0
7, 290816, Note_on_c, 5, 75, 96
7, 291072, Note_off_c, 5, 75, 0
7, 291072, Note_on_c, 5, 70, 96
7, 291328, Note_off_c, 5, 70, 0
7, 291328, Note_on_c, 5, 68, 96
7, 291584, Note_off_c, 5, 68, 0
7, 291584, Note_on_c, 5, 70, 96
7, 291840, Note_off_c, 5, 70, 0
7, 291840, Note_on_c, 5, 79, 96
7, 292096, Note_off_c, 5, 79, 0
7, 292096, Note_on_c, 5, 67, 96
7, 292352, Note_off_c, 5, 67, 0
7, 292352, Note_on_c, 5, 65, 96
7, 292608, Note_off_c, 5, 65, 0
7, 292608, Note_on_c, 5, 67, 96
7, 292864, Note_off_c, 5, 67, 0
7, 292864, Note_on_c, 5, 63, 96
7, 293120, Note_off_c, 5, 63, 0
7, 293120, Note_on_c, 5, 67, 96
7, 293376, Note_off_c, 5, 67, 0
7, 293376, Note_on_c, 5, 65, 96
7, 293632, Note_off_c, 5, 65, 0
7, 293632, Note_on_c, 5, 67, 96
7, 293888, Note_off_c, 5, 67, 0
7, 293888, Note_on_c, 5, 72, 96
7, 294144, Note_off_c, 5, 72, 0
7, 294144, Note_on_c, 5, 67, 96
7, 294400, Note_off_c, 5, 67, 0
7, 294400, Note_on_c, 5, 65, 96
7, 294656, Note_off_c, 5, 65, 0
7, 294656, Note_on_c, 5, 67, 96
7, 294912, Note_off_c, 5, 67, 0
7, 294912, Note_on_c, 5, 75, 96
7, 295424, Note_off_c, 5, 75, 0
7, 297984, Note_on_c, 5, 63, 96
7, 297984, Note_on_c, 5, 60, 96
7, 298752, Note_off_c, 5, 63, 0
7, 298752, Note_on_c, 5, 63, 96
7, 298752, Note_off_c, 5, 60, 0
7, 298752, Note_on_c, 5, 60, 96
7, 299008, Note_off_c, 5, 63, 0
7, 299008, Note_on_c, 5, 63, 96
7, 299008, Note_off_c, 5, 60, 0
7, 299008, Note_on_c, 5, 63, 96
7, 299776, Note_off_c, 5, 63, 0
7, 299776, Note_on_c, 5, 63, 96
7, 299776, Note_off_c, 5, 63, 0
7, 299776, Note_on_c, 5, 63, 96
7, 300032, Note_off_c, 5, 63, 0
7, 300032, Note_on_c, 5, 63, 96
7, 300032, Note_off_c, 5, 63, 0
7, 300032, Note_on_c, 5, 68, 96
7, 300800, Note_off_c, 5, 63, 0
7, 300800, Note_on_c, 5, 63, 96
7, 300800, Note_off_c, 5, 68, 0
7, 300800, Note_on_c, 5, 68, 96
7, 301056, Note_off_c, 5, 63, 0
7, 301056, Note_off_c, 5, 68, 0
7, 301056, Note_on_c, 5, 63, 96
7, 301056, Note_on_c, 5, 67, 96
7, 303104, Note_off_c, 5, 63, 0
7, 303104, Note_off_c, 5, 67, 0
7, 304128, Note_on_c, 5, 65, 96
7, 304128, Note_on_c, 5, 60, 96
7, 304896, Note_off_c, 5, 65, 0
7, 304896, Note_on_c, 5, 65, 96
7, 304896, Note_off_c, 5, 60, 0
7, 304896, Note_on_c, 5, 60, 96
7, 305152, Note_off_c, 5, 65, 0
7, 305152, Note_on_c, 5, 65, 96
7, 305152, Note_off_c, 5, 60, 0
7, 305152, Note_on_c, 5, 60, 96
7, 305920, Note_off_c, 5, 65, 0
7, 305920, Note_on_c, 5, 65, 96
7, 305920, Note_off_c, 5, 60, 0
7, 305920, Note_on_c, 5, 60, 96
7, 306176, Note_off_c, 5, 65, 0
7, 306176, Note_on_c, 5, 65, 96
7, 306176, Note_off_c, 5, 60, 0
7, 306176, Note_on_c, 5, 60, 96
7, 306944, Note_off_c, 5, 65, 0
7, 306944, Note_on_c, 5, 65, 96
7, 306944, Note_off_c, 5, 60, 0
7, 306944, Note_on_c, 5, 60, 96
7, 307200, Note_off_c, 5, 65, 0
7, 307200, Note_off_c, 5, 60, 0
7, 307200, Note_on_c, 5, 65, 96
7, 307200, Note_on_c, 5, 62, 96
7, 309248, Note_off_c, 5, 65, 0
7, 309248, Note_off_c, 5, 62, 0
7, 310272, Note_on_c, 5, 63, 96
7, 310272, Note_on_c, 5, 67, 96
7, 310528, Note_off_c, 5, 63, 0
7, 310528, Note_on_c, 5, 65, 96
7, 310784, Note_off_c, 5, 65, 0
7, 310784, Note_on_c, 5, 67, 96
7, 310784, Note_off_c, 5, 67, 0
7, 311296, Note_on_c, 5, 70, 96
7, 311552, Note_off_c, 5, 67, 0
7, 311552, Note_on_c, 5, 68, 96
7, 311808, Note_off_c, 5, 68, 0
7, 311808, Note_on_c, 5, 70, 96
7, 311808, Note_off_c, 5, 70, 0
7, 312320, Note_on_c, 5, 67, 96
7, 312576, Note_off_c, 5, 70, 0
7, 312576, Note_on_c, 5, 68, 96
7, 312832, Note_off_c, 5, 68, 0
7, 312832, Note_on_c, 5, 70, 96
7, 312832, Note_off_c, 5, 67, 0
7, 313088, Note_off_c, 5, 70, 0
7, 313088, Note_on_c, 5, 72, 96
7, 313344, Note_off_c, 5, 72, 0
7, 313344, Note_on_c, 5, 73, 96
7, 313344, Note_on_c, 5, 70, 96
7, 313600, Note_off_c, 5, 73, 0
7, 313600, Note_on_c, 5, 70, 96
7, 313856, Note_off_c, 5, 70, 0
7, 313856, Note_on_c, 5, 67, 96
7, 313856, Note_off_c, 5, 70, 0
7, 314112, Note_off_c, 5, 67, 0
7, 314112, Note_on_c, 5, 70, 96
7, 314368, Note_off_c, 5, 70, 0
7, 314368, Note_on_c, 5, 63, 96
7, 314880, Note_off_c, 5, 63, 0
7, 316416, Note_on_c, 5, 68, 96
7, 316416, Note_on_c, 5, 63, 96
7, 316672, Note_off_c, 5, 68, 0
7, 316672, Note_on_c, 5, 70, 96
7, 316928, Note_off_c, 5, 70, 0
7, 316928, Note_on_c, 5, 72, 96
7, 316928, Note_off_c, 5, 63, 0
7, 317440, Note_on_c, 5, 75, 96
7, 317696, Note_off_c, 5, 72, 0
7, 317696, Note_on_c, 5, 73, 96
7, 317952, Note_off_c, 5, 73, 0
7, 317952, Note_on_c, 5, 75, 96
7, 317952, Note_off_c, 5, 75, 0
7, 318464, Note_on_c, 5, 68, 96
7, 318720, Note_off_c, 5, 75, 0
7, 318720, Note_on_c, 5, 74, 96
7, 318976, Note_off_c, 5, 74, 0
7, 318976, Note_on_c, 5, 75, 96
7, 318976, Note_off_c, 5, 68, 0
7, 319232, Note_off_c, 5, 75, 0
7, 319232, Note_on_c, 5, 77, 96
7, 319488, Note_off_c, 5, 77, 0
7, 319488, Note_on_c, 5, 79, 96
7, 319488, Note_on_c, 5, 70, 96
7, 320000, Note_off_c, 5, 79, 0
7, 320000, Note_off_c, 5, 70, 0
7, 320512, Note_on_c, 5, 82, 96
7, 320512, Note_on_c, 5, 79, 96
7, 321024, Note_off_c, 5, 82, 0
7, 321024, Note_off_c, 5, 79, 0
7, 321536, Note_on_c, 5, 79, 96
7, 321536, Note_on_c, 5, 75, 96
7, 322048, Note_off_c, 5, 79, 0
7, 322048, Note_off_c, 5, 75, 0
7, 322560, Note_on_c, 5, 70, 96
7, 322560, Note_on_c, 5, 74, 96
7, 322816, Note_off_c, 5, 70, 0
7, 322816, Note_on_c, 5, 72, 96
7, 323072, Note_off_c, 5, 72, 0
7, 323072, Note_on_c, 5, 74, 96
7, 323072, Note_off_c, 5, 74, 0
7, 323584, Note_on_c, 5, 74, 96
7, 323840, Note_off_c, 5, 74, 0
7, 323840, Note_on_c, 5, 75, 96
7, 324096, Note_off_c, 5, 75, 0
7, 324096, Note_on_c, 5, 77, 96
7, 324096, Note_off_c, 5, 74, 0
7, 324608, Note_on_c, 5, 74, 96
7, 324864, Note_off_c, 5, 77, 0
7, 324864, Note_on_c, 5, 75, 96
7, 325120, Note_off_c, 5, 75, 0
7, 325120, Note_on_c, 5, 77, 96
7, 325120, Note_off_c, 5, 74, 0
7, 325376, Note_off_c, 5, 77, 0
7, 325376, Note_on_c, 5, 79, 96
7, 325632, Note_off_c, 5, 79, 0
7, 325632, Note_on_c, 5, 81, 96
7, 325632, Note_on_c, 5, 74, 96
7, 326144, Note_off_c, 5, 81, 0
7, 326144, Note_off_c, 5, 74, 0
7, 326656, Note_on_c, 5, 78, 96
7, 326656, Note_on_c, 5, 74, 96
7, 327168, Note_off_c, 5, 78, 0
7, 327168, Note_off_c, 5, 74, 0
7, 327680, Note_on_c, 5, 74, 96
7, 327680, Note_on_c, 5, 69, 96
7, 328192, Note_off_c, 5, 74, 0
7, 328192, Note_off_c, 5, 69, 0
7, 328704, Note_on_c, 5, 67, 96
7, 328704, Note_on_c, 5, 62, 96
7, 328960, Note_off_c, 5, 67, 0
7, 328960, Note_on_c, 5, 69, 96
7, 329216, Note_off_c, 5, 69, 0
7, 329216, Note_on_c, 5, 70, 96
7, 329216, Note_off_c, 5, 62, 0
7, 329728, Note_on_c, 5, 67, 96
7, 329984, Note_off_c, 5, 70, 0
7, 329984, Note_on_c, 5, 72, 96
7, 330240, Note_off_c, 5, 72, 0
7, 330240, Note_on_c, 5, 74, 96
7, 330240, Note_off_c, 5, 67, 0
7, 330752, Note_on_c, 5, 70, 96
7, 331008, Note_off_c, 5, 74, 0
7, 331008, Note_on_c, 5, 72, 96
7, 331264, Note_off_c, 5, 72, 0
7, 331264, Note_on_c, 5, 74, 96
7, 331264, Note_off_c, 5, 70, 0
7, 331520, Note_off_c, 5, 74, 0
7, 331520, Note_on_c, 5, 75, 96
7, 331776, Note_off_c, 5, 75, 0
7, 331776, Note_on_c, 5, 77, 96
7, 331776, Note_on_c, 5, 70, 96
7, 332288, Note_off_c, 5, 70, 0
7, 332800, Note_on_c, 5, 65, 96
7, 333312, Note_off_c, 5, 65, 0
7, 333824, Note_on_c, 5, 70, 96
7, 334336, Note_off_c, 5, 70, 0
7, 334848, Note_on_c, 5, 67, 96
7, 335360, Note_off_c, 5, 67, 0
7, 335872, Note_off_c, 5, 77, 0
7, 335872, Note_on_c, 5, 75, 96
7, 335872, Note_on_c, 5, 72, 96
7, 338432, Note_off_c, 5, 72, 0
7, 338944, Note_off_c, 5, 75, 0
7, 338944, Note_on_c, 5, 74, 96
7, 338944, Note_on_c, 5, 70, 96
7, 339456, Note_off_c, 5, 70, 0
7, 339968, Note_on_c, 5, 65, 96
7, 340480, Note_off_c, 5, 65, 0
7, 340992, Note_on_c, 5, 63, 96
7, 341504, Note_off_c, 5, 63, 0
7, 342016, Note_off_c, 5, 74, 0
7, 342016, Note_on_c, 5, 72, 96
7, 342016, Note_on_c, 5, 63, 96
7, 344064, Note_off_c, 5, 63, 0
7, 344064, Note_on_c, 5, 62, 96
7, 344576, Note_off_c, 5, 62, 0
7, 345088, Note_off_c, 5, 72, 0
7, 345088, Note_on_c, 5, 70, 96
7, 345088, Note_on_c, 5, 62, 96
7, 345600, Note_off_c, 5, 62, 0
7, 346112, Note_on_c, 5, 62, 96
7, 346624, Note_off_c, 5, 62, 0
7, 347136, Note_on_c, 5, 60, 96
7, 347648, Note_off_c, 5, 70, 0
7, 347648, Note_on_c, 5, 60, 96
7, 347648, Note_off_c, 5, 60, 0
7, 347904, Note_off_c, 5, 60, 0
7, 347904, Note_on_c, 5, 62, 96
7, 348160, Note_off_c, 5, 62, 0
7, 348160, Note_on_c, 5, 64, 96
7, 348160, Note_on_c, 5, 60, 96
7, 348416, Note_off_c, 5, 64, 0
7, 348416, Note_on_c, 5, 65, 96
7, 348672, Note_off_c, 5, 65, 0
7, 348672, Note_on_c, 5, 67, 96
7, 348672, Note_off_c, 5, 60, 0
7, 349184, Note_on_c, 5, 60, 96
7, 349440, Note_off_c, 5, 67, 0
7, 349440, Note_on_c, 5, 69, 96
7, 349696, Note_off_c, 5, 69, 0
7, 349696, Note_on_c, 5, 70, 96
7, 349696, Note_off_c, 5, 60, 0
7, 349952, Note_off_c, 5, 70, 0
7, 349952, Note_on_c, 5, 67, 96
7, 350208, Note_off_c, 5, 67, 0
7, 350208, Note_on_c, 5, 69, 96
7, 350208, Note_on_c, 5, 60, 96
7, 350464, Note_off_c, 5, 69, 0
7, 350464, Note_on_c, 5, 72, 96
7, 350720, Note_off_c, 5, 72, 0
7, 350720, Note_on_c, 5, 65, 96
7, 350720, Note_off_c, 5, 60, 0
7, 350976, Note_off_c, 5, 65, 0
7, 350976, Note_on_c, 5, 67, 96
7, 351232, Note_off_c, 5, 67, 0
7, 351232, Note_on_c, 5, 69, 96
7, 351232, Note_on_c, 5, 65, 96
7, 351488, Note_off_c, 5, 69, 0
7, 351488, Note_on_c, 5, 70, 96
7, 351744, Note_off_c, 5, 70, 0
7, 351744, Note_on_c, 5, 72, 96
7, 351744, Note_off_c, 5, 65, 0
7, 352256, Note_on_c, 5, 69, 96
7, 352512, Note_off_c, 5, 72, 0
7, 352512, Note_on_c, 5, 74, 96
7, 352768, Note_off_c, 5, 74, 0
7, 352768, Note_on_c, 5, 75, 96
7, 352768, Note_off_c, 5, 69, 0
7, 353024, Note_off_c, 5, 75, 0
7, 353024, Note_on_c, 5, 72, 96
7, 353280, Note_off_c, 5, 72, 0
7, 353280, Note_on_c, 5, 77, 96
7, 353280, Note_on_c, 5, 70, 96
7, 354048, Note_off_c, 5, 77, 0
7, 354048, Note_on_c, 5, 75, 96
7, 354048, Note_off_c, 5, 70, 0
7, 354048, Note_on_c, 5, 72, 96
7, 354304, Note_off_c, 5, 75, 0
7, 354304, Note_on_c, 5, 74, 96
7, 354304, Note_off_c, 5, 72, 0
7, 354304, Note_on_c, 5, 70, 96
7, 355328, Note_off_c, 5, 74, 0
7, 355328, Note_on_c, 5, 72, 96
7, 355328, Note_off_c, 5, 70, 0
7, 355328, Note_on_c, 5, 69, 96
7, 356352, Note_off_c, 5, 72, 0
7, 356352, Note_off_c, 5, 69, 0
7, 356352, Note_on_c, 5, 70, 96
7, 356352, Note_on_c, 5, 70, 96
7, 357376, Note_off_c, 5, 70, 0
7, 357376, Note_off_c, 5, 70, 0
7, 359936, Note_on_c, 5, 63, 96
7, 360192, Note_off_c, 5, 63, 0
7, 360192, Note_on_c, 5, 65, 96
7, 360448, Note_off_c, 5, 65, 0
7, 360448, Note_on_c, 5, 67, 96
7, 360448, Note_on_c, 5, 63, 96
7, 360704, Note_off_c, 5, 67, 0
7, 360704, Note_on_c, 5, 68, 96
7, 360960, Note_off_c, 5, 68, 0
7, 360960, Note_on_c, 5, 70, 96
7, 360960, Note_off_c, 5, 63, 0
7, 361472, Note_on_c, 5, 65, 96
7, 361728, Note_off_c, 5, 70, 0
7, 361728, Note_on_c, 5, 72, 96
7, 361984, Note_off_c, 5, 72, 0
7, 361984, Note_on_c, 5, 74, 96
7, 361984, Note_off_c, 5, 65, 0
7, 362240, Note_off_c, 5, 74, 0
7, 362240, Note_on_c, 5, 70, 96
7, 362496, Note_off_c, 5, 70, 0
7, 362496, Note_on_c, 5, 79, 96
7, 362496, Note_on_c, 5, 70, 96
7, 363008, Note_off_c, 5, 70, 0
7, 366080, Note_off_c, 5, 79, 0
7, 366080, Note_on_c, 5, 72, 96
7, 366592, Note_off_c, 5, 72, 0
7, 366592, Note_on_c, 5, 77, 96
7, 366592, Note_on_c, 5, 70, 96
7, 367104, Note_off_c, 5, 70, 0
7, 367616, Note_on_c, 5, 70, 96
7, 368128, Note_off_c, 5, 70, 0
7, 368640, Note_on_c, 5, 67, 96
7, 369152, Note_off_c, 5, 77, 0
7, 369152, Note_on_c, 5, 75, 96
7, 369152, Note_off_c, 5, 67, 0
7, 369408, Note_off_c, 5, 75, 0
7, 369408, Note_on_c, 5, 74, 96
7, 369664, Note_off_c, 5, 74, 0
7, 369664, Note_on_c, 5, 75, 96
7, 372224, Note_off_c, 5, 75, 0
7, 372224, Note_on_c, 5, 65, 96
7, 372736, Note_off_c, 5, 65, 0
7, 372736, Note_on_c, 5, 73, 96
7, 372736, Note_on_c, 5, 70, 96
7, 375296, Note_off_c, 5, 73, 0
7, 375296, Note_on_c, 5, 72, 96
7, 375552, Note_off_c, 5, 72, 0
7, 375552, Note_on_c, 5, 70, 96
7, 375808, Note_off_c, 5, 70, 0
7, 375808, Note_on_c, 5, 72, 96
7, 375808, Note_off_c, 5, 70, 0
7, 375808, Note_on_c, 5, 63, 96
7, 376064, Note_off_c, 5, 72, 0
7, 376064, Note_on_c, 5, 73, 96
7, 376320, Note_off_c, 5, 73, 0
7, 376320, Note_on_c, 5, 75, 96
7, 376320, Note_off_c, 5, 63, 0
7, 376832, Note_on_c, 5, 68, 96
7, 377088, Note_off_c, 5, 75, 0
7, 377088, Note_on_c, 5, 72, 96
7, 377344, Note_off_c, 5, 72, 0
7, 377344, Note_on_c, 5, 70, 96
7, 377344, Note_off_c, 5, 68, 0
7, 377600, Note_off_c, 5, 70, 0
7, 377600, Note_on_c, 5, 68, 96
7, 377856, Note_off_c, 5, 68, 0
7, 377856, Note_on_c, 5, 70, 96
7, 377856, Note_on_c, 5, 63, 96
7, 378880, Note_off_c, 5, 70, 0
7, 378880, Note_off_c, 5, 63, 0
7, 380928, Note_on_c, 5, 63, 96
7, 380928, Note_on_c, 5, 60, 96
7, 381696, Note_off_c, 5, 63, 0
7, 381696, Note_on_c, 5, 63, 96
7, 381696, Note_off_c, 5, 60, 0
7, 381696, Note_on_c, 5, 60, 96
7, 381952, Note_off_c, 5, 63, 0
7, 381952, Note_on_c, 5, 63, 96
7, 381952, Note_off_c, 5, 60, 0
7, 381952, Note_on_c, 5, 60, 96
7, 382720, Note_off_c, 5, 63, 0
7, 382720, Note_on_c, 5, 63, 96
7, 382720, Note_off_c, 5, 60, 0
7, 382720, Note_on_c, 5, 60, 96
7, 382976, Note_off_c, 5, 63, 0
7, 382976, Note_on_c, 5, 63, 96
7, 382976, Note_off_c, 5, 60, 0
7, 382976, Note_on_c, 5, 60, 96
7, 383744, Note_off_c, 5, 63, 0
7, 383744, Note_on_c, 5, 63, 96
7, 383744, Note_off_c, 5, 60, 0
7, 383744, Note_on_c, 5, 60, 96
7, 384000, Note_off_c, 5, 63, 0
7, 384000, Note_off_c, 5, 60, 0
7, 384000, Note_on_c, 5, 63, 96
7, 384000, Note_on_c, 5, 60, 96
7, 386048, Note_off_c, 5, 63, 0
7, 386048, Note_off_c, 5, 60, 0
7, 387072, Note_on_c, 5, 68, 96
7, 387072, Note_on_c, 5, 62, 96
7, 387840, Note_off_c, 5, 68, 0
7, 387840, Note_on_c, 5, 68, 96
7, 387840, Note_off_c, 5, 62, 0
7, 387840, Note_on_c, 5, 62, 96
7, 388096, Note_off_c, 5, 68, 0
7, 388096, Note_on_c, 5, 68, 96
7, 388096, Note_off_c, 5, 62, 0
7, 388096, Note_on_c, 5, 65, 96
7, 388864, Note_off_c, 5, 68, 0
7, 388864, Note_on_c, 5, 68, 96
7, 388864, Note_off_c, 5, 65, 0
7, 388864, Note_on_c, 5, 65, 96
7, 389120, Note_off_c, 5, 68, 0
7, 389120, Note_on_c, 5, 68, 96
7, 389120, Note_off_c, 5, 65, 0
7, 389120, Note_on_c, 5, 65, 96
7, 389888, Note_off_c, 5, 68, 0
7, 389888, Note_on_c, 5, 68, 96
7, 389888, Note_off_c, 5, 65, 0
7, 389888, Note_on_c, 5, 65, 96
7, 390144, Note_off_c, 5, 68, 0
7, 390144, Note_off_c, 5, 65, 0
7, 390144, Note_on_c, 5, 67, 96
7, 390144, Note_on_c, 5, 63, 96
7, 390656, Note_off_c, 5, 67, 0
7, 390656, Note_on_c, 5, 63, 96
7, 390656, Note_off_c, 5, 63, 0
7, 390912, Note_off_c, 5, 63, 0
7, 390912, Note_on_c, 5, 65, 96
7, 391168, Note_off_c, 5, 65, 0
7, 391168, Note_on_c, 5, 67, 96
7, 391168, Note_on_c, 5, 63, 96
7, 391424, Note_off_c, 5, 67, 0
7, 391424, Note_on_c, 5, 68, 96
7, 391680, Note_off_c, 5, 68, 0
7, 391680, Note_on_c, 5, 70, 96
7, 391680, Note_off_c, 5, 63, 0
7, 392192, Note_on_c, 5, 65, 96
7, 392448, Note_off_c, 5, 70, 0
7, 392448, Note_on_c, 5, 72, 96
7, 392704, Note_off_c, 5, 72, 0
7, 392704, Note_on_c, 5, 74, 96
7, 392704, Note_off_c, 5, 65, 0
7, 392960, Note_off_c, 5, 74, 0
7, 392960, Note_on_c, 5, 70, 96
7, 393216, Note_off_c, 5, 70, 0
7, 393216, Note_on_c, 5, 79, 96
7, 393216, Note_on_c, 5, 63, 96
7, 393728, Note_off_c, 5, 63, 0
7, 396800, Note_off_c, 5, 79, 0
7, 396800, Note_on_c, 5, 72, 96
7, 397312, Note_off_c, 5, 72, 0
7, 397312, Note_on_c, 5, 77, 96
7, 397312, Note_on_c, 5, 70, 96
7, 397824, Note_off_c, 5, 70, 0
7, 398336, Note_on_c, 5, 70, 96
7, 398848, Note_off_c, 5, 70, 0
7, 399360, Note_on_c, 5, 67, 96
7, 399872, Note_off_c, 5, 77, 0
7, 399872, Note_on_c, 5, 75, 96
7, 399872, Note_off_c, 5, 67, 0
7, 400128, Note_off_c, 5, 75, 0
7, 400128, Note_on_c, 5, 74, 96
7, 400384, Note_off_c, 5, 74, 0
7, 400384, Note_on_c, 5, 75, 96
7, 402944, Note_off_c, 5, 75, 0
7, 402944, Note_on_c, 5, 65, 96
7, 403456, Note_off_c, 5, 65, 0
7, 403456, Note_on_c, 5, 73, 96
7, 403456, Note_on_c, 5, 70, 96
7, 405504, Note_off_c, 5, 73, 0
7, 405504, Note_on_c, 5, 74, 96
7, 406016, Note_off_c, 5, 74, 0
7, 406016, Note_on_c, 5, 72, 96
7, 406272, Note_off_c, 5, 72, 0
7, 406272, Note_on_c, 5, 70, 96
7, 406528, Note_off_c, 5, 70, 0
7, 406528, Note_on_c, 5, 72, 96
7, 406528, Note_off_c, 5, 70, 0
7, 406528, Note_on_c, 5, 63, 96
7, 406784, Note_off_c, 5, 72, 0
7, 406784, Note_on_c, 5, 73, 96
7, 407040, Note_off_c, 5, 73, 0
7, 407040, Note_on_c, 5, 75, 96
7, 407040, Note_off_c, 5, 63, 0
7, 407552, Note_on_c, 5, 68, 96
7, 407808, Note_off_c, 5, 75, 0
7, 407808, Note_on_c, 5, 72, 96
7, 408064, Note_off_c, 5, 72, 0
7, 408064, Note_on_c, 5, 70, 96
7, 408064, Note_off_c, 5, 68, 0
7, 408320, Note_off_c, 5, 70, 0
7, 408320, Note_on_c, 5, 68, 96
7, 408576, Note_off_c, 5, 68, 0
7, 408576, Note_on_c, 5, 70, 96
7, 408576, Note_on_c, 5, 63, 96
7, 409600, Note_off_c, 5, 70, 0
7, 409600, Note_off_c, 5, 63, 0
7, 412416, Note_on_c, 5, 67, 96
7, 412416, Note_on_c, 5, 63, 96
7, 412672, Note_off_c, 5, 67, 0
7, 412672, Note_on_c, 5, 67, 96
7, 412672, Note_off_c, 5, 63, 0
7, 412672, Note_on_c, 5, 63, 96
7, 413440, Note_off_c, 5, 67, 0
7, 413440, Note_on_c, 5, 67, 96
7, 413440, Note_off_c, 5, 63, 0
7, 413440, Note_on_c, 5, 63, 96
7, 413696, Note_off_c, 5, 67, 0
7, 413696, Note_on_c, 5, 67, 96
7, 413696, Note_off_c, 5, 63, 0
7, 413696, Note_on_c, 5, 63, 96
7, 414464, Note_off_c, 5, 67, 0
7, 414464, Note_on_c, 5, 67, 96
7, 414464, Note_off_c, 5, 63, 0
7, 414464, Note_on_c, 5, 63, 96
7, 414720, Note_off_c, 5, 67, 0
7, 414720, Note_off_c, 5, 63, 0
7, 414720, Note_on_c, 5, 67, 96
7, 414720, Note_on_c, 5, 63, 96
7, 416768, Note_off_c, 5, 67, 0
7, 416768, Note_off_c, 5, 63, 0
7, 418560, Note_on_c, 5, 66, 96
7, 418560, Note_on_c, 5, 62, 96
7, 418816, Note_off_c, 5, 66, 0
7, 418816, Note_on_c, 5, 66, 96
7, 418816, Note_off_c, 5, 62, 0
7, 418816, Note_on_c, 5, 62, 96
7, 419584, Note_off_c, 5, 66, 0
7, 419584, Note_on_c, 5, 66, 96
7, 419584, Note_off_c, 5, 62, 0
7, 419584, Note_on_c, 5, 62, 96
7, 419840, Note_off_c, 5, 66, 0
7, 419840, Note_on_c, 5, 66, 96
7, 419840, Note_off_c, 5, 62, 0
7, 419840, Note_on_c, 5, 62, 96
7, 420608, Note_off_c, 5, 66, 0
7, 420608, Note_on_c, 5, 66, 96
7, 420608, Note_off_c, 5, 62, 0
7, 420608, Note_on_c, 5, 62, 96
7, 420864, Note_off_c, 5, 66, 0
7, 420864, Note_off_c, 5, 62, 0
7, 420864, Note_on_c, 5, 67, 96
7, 420864, Note_on_c, 5, 62, 96
7, 421632, Note_off_c, 5, 67, 0
7, 421632, Note_on_c, 5, 70, 96
7, 421632, Note_off_c, 5, 62, 0
7, 421632, Note_on_c, 5, 67, 96
7, 421888, Note_off_c, 5, 70, 0
7, 421888, Note_on_c, 5, 70, 96
7, 421888, Note_off_c, 5, 67, 0
7, 421888, Note_on_c, 5, 67, 96
7, 422656, Note_off_c, 5, 70, 0
7, 422656, Note_on_c, 5, 70, 96
7, 422656, Note_off_c, 5, 67, 0
7, 422656, Note_on_c, 5, 67, 96
7, 422912, Note_off_c, 5, 70, 0
7, 422912, Note_on_c, 5, 70, 96
7, 422912, Note_off_c, 5, 67, 0
7, 422912, Note_on_c, 5, 67, 96
7, 423680, Note_off_c, 5, 70, 0
7, 423680, Note_on_c, 5, 70, 96
7, 423680, Note_off_c, 5, 67, 0
7, 423680, Note_on_c, 5, 67, 96
7, 423936, Note_off_c, 5, 70, 0
7, 423936, Note_off_c, 5, 67, 0
7, 423936, Note_on_c, 5, 70, 96
7, 423936, Note_on_c, 5, 67, 96
7, 425984, Note_off_c, 5, 70, 0
7, 425984, Note_off_c, 5, 67, 0
7, 427776, Note_on_c, 5, 75, 96
7, 427776, Note_on_c, 5, 67, 96
7, 428032, Note_off_c, 5, 75, 0
7, 428032, Note_on_c, 5, 75, 96
7, 428032, Note_off_c, 5, 67, 0
7, 428032, Note_on_c, 5, 67, 96
7, 428800, Note_off_c, 5, 75, 0
7, 428800, Note_on_c, 5, 75, 96
7, 428800, Note_off_c, 5, 67, 0
7, 428800, Note_on_c, 5, 63, 96
7, 429056, Note_off_c, 5, 75, 0
7, 429056, Note_on_c, 5, 75, 96
7, 429056, Note_off_c, 5, 63, 0
7, 429056, Note_on_c, 5, 72, 96
7, 429824, Note_off_c, 5, 75, 0
7, 429824, Note_on_c, 5, 75, 96
7, 429824, Note_off_c, 5, 72, 0
7, 429824, Note_on_c, 5, 72, 96
7, 430080, Note_off_c, 5, 75, 0
7, 430080, Note_off_c, 5, 72, 0
7, 430080, Note_on_c, 5, 75, 96
7, 430080, Note_on_c, 5, 72, 96
7, 432128, Note_off_c, 5, 75, 0
7, 432128, Note_off_c, 5, 72, 0
7, 434176, Note_on_c, 5, 82, 96
7, 436480, Note_off_c, 5, 82, 0
7, 436480, Note_on_c, 5, 73, 96
7, 436736, Note_off_c, 5, 73, 0
7, 436736, Note_on_c, 5, 72, 96
7, 436992, Note_off_c, 5, 72, 0
7, 436992, Note_on_c, 5, 75, 96
7, 437248, Note_off_c, 5, 75, 0
7, 437248, Note_on_c, 5, 80, 96
7, 437760, Note_off_c, 5, 80, 0
7, 440320, Note_on_c, 5, 77, 96
7, 442624, Note_off_c, 5, 77, 0
7, 442624, Note_on_c, 5, 70, 96
7, 442880, Note_off_c, 5, 70, 0
7, 442880, Note_on_c, 5, 68, 96
7, 443136, Note_off_c, 5, 68, 0
7, 443136, Note_on_c, 5, 67, 96
7, 443392, Note_off_c, 5, 67, 0
7, 443392, Note_on_c, 5, 65, 96
7, 443904, Note_off_c, 5, 65, 0
7, 445440, Note_on_c, 5, 63, 96
7, 446208, Note_off_c, 5, 63, 0
7, 446208, Note_on_c, 5, 63, 96
7, 446464, Note_off_c, 5, 63, 0
7, 446464, Note_on_c, 5, 63, 96
7, 446464, Note_on_c, 5, 63, 96
7, 447232, Note_off_c, 5, 63, 0
7, 447232, Note_on_c, 5, 63, 96
7, 447232, Note_off_c, 5, 63, 0
7, 447232, Note_on_c, 5, 63, 96
7, 447488, Note_off_c, 5, 63, 0
7, 447488, Note_on_c, 5, 63, 96
7, 447488, Note_off_c, 5, 63, 0
7, 447488, Note_on_c, 5, 63, 96
7, 448256, Note_off_c, 5, 63, 0
7, 448256, Note_on_c, 5, 63, 96
7, 448256, Note_off_c, 5, 63, 0
7, 448256, Note_on_c, 5, 63, 96
7, 448512, Note_off_c, 5, 63, 0
7, 448512, Note_off_c, 5, 63, 0
7, 448512, Note_on_c, 5, 63, 96
7, 448512, Note_on_c, 5, 63, 96
7, 450560, Note_off_c, 5, 63, 0
7, 450560, Note_off_c, 5, 63, 0
7, 451584, Note_on_c, 5, 65, 96
7, 452352, Note_off_c, 5, 65, 0
7, 452352, Note_on_c, 5, 65, 96
7, 452608, Note_off_c, 5, 65, 0
7, 452608, Note_on_c, 5, 65, 96
7, 452608, Note_on_c, 5, 65, 96
7, 453376, Note_off_c, 5, 65, 0
7, 453376, Note_on_c, 5, 65, 96
7, 453376, Note_off_c, 5, 65, 0
7, 453376, Note_on_c, 5, 65, 96
7, 453632, Note_off_c, 5, 65, 0
7, 453632, Note_on_c, 5, 65, 96
7, 453632, Note_off_c, 5, 65, 0
7, 453632, Note_on_c, 5, 65, 96
7, 454400, Note_off_c, 5, 65, 0
7, 454400, Note_on_c, 5, 65, 96
7, 454400, Note_off_c, 5, 65, 0
7, 454400, Note_on_c, 5, 65, 96
7, 454656, Note_off_c, 5, 65, 0
7, 454656, Note_off_c, 5, 65, 0
7, 454656, Note_on_c, 5, 65, 96
7, 454656, Note_on_c, 5, 65, 96
7, 456704, Note_off_c, 5, 65, 0
7, 456704, Note_off_c, 5, 65, 0
7, 457728, Note_on_c, 5, 70, 96
7, 457728, Note_on_c, 5, 65, 96
7, 458496, Note_off_c, 5, 70, 0
7, 458496, Note_on_c, 5, 70, 96
7, 458496, Note_off_c, 5, 65, 0
7, 458496, Note_on_c, 5, 65, 96
7, 458752, Note_off_c, 5, 70, 0
7, 458752, Note_on_c, 5, 70, 96
7, 458752, Note_off_c, 5, 65, 0
7, 458752, Note_on_c, 5, 65, 96
7, 459520, Note_off_c, 5, 70, 0
7, 459520, Note_on_c, 5, 70, 96
7, 459520, Note_off_c, 5, 65, 0
7, 459520, Note_on_c, 5, 65, 96
7, 459776, Note_off_c, 5, 70, 0
7, 459776, Note_on_c, 5, 70, 96
7, 459776, Note_off_c, 5, 65, 0
7, 459776, Note_on_c, 5, 65, 96
7, 460544, Note_off_c, 5, 70, 0
7, 460544, Note_on_c, 5, 70, 96
7, 460544, Note_off_c, 5, 65, 0
7, 460544, Note_on_c, 5, 65, 96
7, 460800, Note_off_c, 5, 70, 0
7, 460800, Note_off_c, 5, 65, 0
7, 460800, Note_on_c, 5, 70, 96
7, 460800, Note_on_c, 5, 67, 96
7, 461824, Note_off_c, 5, 70, 0
7, 461824, Note_off_c, 5, 67, 0
7, 463872, Note_on_c, 5, 77, 96
7, 463872, Note_on_c, 5, 72, 96
7, 464640, Note_off_c, 5, 77, 0
7, 464640, Note_on_c, 5, 77, 96
7, 464640, Note_off_c, 5, 72, 0
7, 464640, Note_on_c, 5, 72, 96
7, 464896, Note_off_c, 5, 77, 0
7, 464896, Note_on_c, 5, 77, 96
7, 464896, Note_off_c, 5, 72, 0
7, 464896, Note_on_c, 5, 72, 96
7, 465664, Note_off_c, 5, 77, 0
7, 465664, Note_on_c, 5, 77, 96
7, 465664, Note_off_c, 5, 72, 0
7, 465664, Note_on_c, 5, 72, 96
7, 465920, Note_off_c, 5, 77, 0
7, 465920, Note_on_c, 5, 77, 96
7, 465920, Note_off_c, 5, 72, 0
7, 465920, Note_on_c, 5, 72, 96
7, 466688, Note_off_c, 5, 77, 0
7, 466688, Note_on_c, 5, 77, 96
7, 466688, Note_off_c, 5, 72, 0
7, 466688, Note_on_c, 5, 72, 96
7, 466944, Note_off_c, 5, 77, 0
7, 466944, Note_off_c, 5, 72, 0
7, 466944, Note_on_c, 5, 77, 96
7, 466944, Note_on_c, 5, 65, 96
7, 467456, Note_off_c, 5, 65, 0
7, 470272, Note_off_c, 5, 77, 0
7, 470272, Note_on_c, 5, 72, 96
7, 470528, Note_off_c, 5, 72, 0
7, 470528, Note_on_c, 5, 71, 96
7, 470784, Note_off_c, 5, 71, 0
7, 470784, Note_on_c, 5, 69, 96
7, 471040, Note_off_c, 5, 69, 0
7, 471040, Note_on_c, 5, 67, 96
7, 471552, Note_off_c, 5, 67, 0
7, 473088, Note_on_c, 5, 79, 96
7, 473088, Note_on_c, 5, 72, 96
7, 473856, Note_off_c, 5, 79, 0
7, 473856, Note_on_c, 5, 77, 96
7, 473856, Note_off_c, 5, 72, 0
7, 473856, Note_on_c, 5, 68, 96
7, 474112, Note_off_c, 5, 77, 0
7, 474112, Note_on_c, 5, 75, 96
7, 474112, Note_off_c, 5, 68, 0
7, 474112, Note_on_c, 5, 67, 96
7, 475136, Note_off_c, 5, 75, 0
7, 475136, Note_on_c, 5, 74, 96
7, 475136, Note_off_c, 5, 67, 0
7, 475136, Note_on_c, 5, 67, 96
7, 476160, Note_off_c, 5, 74, 0
7, 476160, Note_off_c, 5, 67, 0
7, 476160, Note_on_c, 5, 72, 96
7, 476160, Note_on_c, 5, 67, 96
7, 476928, Note_off_c, 5, 72, 0
7, 476928, Note_on_c, 5, 72, 96
7, 476928, Note_off_c, 5, 67, 0
7, 476928, Note_on_c, 5, 67, 96
7, 477184, Note_off_c, 5, 72, 0
7, 477184, Note_on_c, 5, 72, 96
7, 477184, Note_off_c, 5, 67, 0
7, 477184, Note_on_c, 5, 67, 96
7, 477952, Note_off_c, 5, 72, 0
7, 477952, Note_on_c, 5, 72, 96
7, 477952, Note_off_c, 5, 67, 0
7, 477952, Note_on_c, 5, 67, 96
7, 478208, Note_off_c, 5, 72, 0
7, 478208, Note_on_c, 5, 72, 96
7, 478208, Note_off_c, 5, 67, 0
7, 478208, Note_on_c, 5, 67, 96
7, 478976, Note_off_c, 5, 72, 0
7, 478976, Note_on_c, 5, 72, 96
7, 478976, Note_off_c, 5, 67, 0
7, 478976, Note_on_c, 5, 67, 96
7, 479232, Note_off_c, 5, 72, 0
7, 479232, Note_off_c, 5, 67, 0
7, 479232, Note_on_c, 5, 72, 96
7, 479232, Note_on_c, 5, 60, 96
7, 481280, Note_off_c, 5, 72, 0
7, 481280, Note_off_c, 5, 60, 0
7, 482304, Note_on_c, 5, 74, 96
7, 482304, Note_on_c, 5, 68, 96
7, 483072, Note_off_c, 5, 74, 0
7, 483072, Note_on_c, 5, 74, 96
7, 483072, Note_off_c, 5, 68, 0
7, 483072, Note_on_c, 5, 68, 96
7, 483328, Note_off_c, 5, 74, 0
7, 483328, Note_on_c, 5, 74, 96
7, 483328, Note_off_c, 5, 68, 0
7, 483328, Note_on_c, 5, 72, 96
7, 484096, Note_off_c, 5, 74, 0
7, 484096, Note_on_c, 5, 74, 96
7, 484096, Note_off_c, 5, 72, 0
7, 484096, Note_on_c, 5, 72, 96
7, 484352, Note_off_c, 5, 74, 0
7, 484352, Note_on_c, 5, 74, 96
7, 484352, Note_off_c, 5, 72, 0
7, 484352, Note_on_c, 5, 72, 96
7, 485120, Note_off_c, 5, 74, 0
7, 485120, Note_on_c, 5, 74, 96
7, 485120, Note_off_c, 5, 72, 0
7, 485120, Note_on_c, 5, 72, 96
7, 485376, Note_off_c, 5, 74, 0
7, 485376, Note_off_c, 5, 72, 0
7, 485376, Note_on_c, 5, 74, 96
7, 485376, Note_on_c, 5, 71, 96
7, 487424, Note_off_c, 5, 74, 0
7, 487424, Note_off_c, 5, 71, 0
7, 488448, Note_on_c, 5, 72, 96
7, 488448, Note_on_c, 5, 67, 96
7, 488704, Note_off_c, 5, 72, 0
7, 488704, Note_on_c, 5, 74, 96
7, 488960, Note_off_c, 5, 74, 0
7, 488960, Note_on_c, 5, 75, 96
7, 488960, Note_off_c, 5, 67, 0
7, 489472, Note_on_c, 5, 72, 96
7, 489728, Note_off_c, 5, 75, 0
7, 489728, Note_on_c, 5, 77, 96
7, 489984, Note_off_c, 5, 77, 0
7, 489984, Note_on_c, 5, 79, 96
7, 489984, Note_off_c, 5, 72, 0
7, 490496, Note_on_c, 5, 75, 96
7, 490752, Note_off_c, 5, 79, 0
7, 490752, Note_on_c, 5, 77, 96
7, 491008, Note_off_c, 5, 77, 0
7, 491008, Note_on_c, 5, 79, 96
7, 491008, Note_off_c, 5, 75, 0
7, 491264, Note_off_c, 5, 79, 0
7, 491264, Note_on_c, 5, 80, 96
7, 491520, Note_off_c, 5, 80, 0
7, 491520, Note_on_c, 5, 82, 96
7, 491520, Note_on_c, 5, 75, 96
7, 492032, Note_off_c, 5, 75, 0
7, 495616, Note_off_c, 5, 82, 0
7, 495616, Note_on_c, 5, 80, 96
7, 498688, Note_off_c, 5, 80, 0
7, 498688, Note_on_c, 5, 79, 96
7, 501248, Note_off_c, 5, 79, 0
7, 501248, Note_on_c, 5, 63, 96
7, 501504, Note_off_c, 5, 63, 0
7, 501504, Note_on_c, 5, 65, 96
7, 501760, Note_off_c, 5, 65, 0
7, 501760, Note_on_c, 5, 67, 96
7, 501760, Note_on_c, 5, 73, 96
7, 502016, Note_off_c, 5, 67, 0
7, 502016, Note_on_c, 5, 68, 96
7, 502272, Note_off_c, 5, 68, 0
7, 502272, Note_on_c, 5, 70, 96
7, 502272, Note_off_c, 5, 73, 0
7, 502784, Note_on_c, 5, 72, 96
7, 503040, Note_off_c, 5, 70, 0
7, 503040, Note_on_c, 5, 68, 96
7, 503296, Note_off_c, 5, 68, 0
7, 503296, Note_on_c, 5, 70, 96
7, 503296, Note_off_c, 5, 72, 0
7, 503552, Note_off_c, 5, 70, 0
7, 503552, Note_on_c, 5, 72, 96
7, 503808, Note_off_c, 5, 72, 0
7, 503808, Note_on_c, 5, 73, 96
7, 503808, Note_on_c, 5, 70, 96
7, 504064, Note_off_c, 5, 73, 0
7, 504064, Note_on_c, 5, 70, 96
7, 504320, Note_off_c, 5, 70, 0
7, 504320, Note_on_c, 5, 67, 96
7, 504320, Note_off_c, 5, 70, 0
7, 504576, Note_off_c, 5, 67, 0
7, 504576, Note_on_c, 5, 68, 96
7, 504832, Note_off_c, 5, 68, 0
7, 504832, Note_on_c, 5, 70, 96
7, 504832, Note_on_c, 5, 73, 96
7, 505088, Note_off_c, 5, 70, 0
7, 505088, Note_on_c, 5, 72, 96
7, 505344, Note_off_c, 5, 72, 0
7, 505344, Note_on_c, 5, 73, 96
7, 505344, Note_off_c, 5, 73, 0
7, 505600, Note_off_c, 5, 73, 0
7, 505600, Note_on_c, 5, 75, 96
7, 505856, Note_off_c, 5, 75, 0
7, 505856, Note_on_c, 5, 77, 96
7, 505856, Note_on_c, 5, 73, 96
7, 506112, Note_off_c, 5, 77, 0
7, 506112, Note_on_c, 5, 75, 96
7, 506368, Note_off_c, 5, 75, 0
7, 506368, Note_on_c, 5, 77, 96
7, 506368, Note_off_c, 5, 73, 0
7, 506624, Note_off_c, 5, 77, 0
7, 506624, Note_on_c, 5, 79, 96
7, 506880, Note_off_c, 5, 79, 0
7, 506880, Note_on_c, 5, 80, 96
7, 506880, Note_on_c, 5, 72, 96
7, 507904, Note_off_c, 5, 80, 0
7, 507904, Note_off_c, 5, 72, 0
7, 509952, Note_on_c, 5, 68, 96
7, 509952, Note_on_c, 5, 65, 96
7, 510720, Note_off_c, 5, 68, 0
7, 510720, Note_on_c, 5, 68, 96
7, 510720, Note_off_c, 5, 65, 0
7, 510720, Note_on_c, 5, 65, 96
7, 510976, Note_off_c, 5, 68, 0
7, 510976, Note_on_c, 5, 68, 96
7, 510976, Note_off_c, 5, 65, 0
7, 510976, Note_on_c, 5, 65, 96
7, 511744, Note_off_c, 5, 68, 0
7, 511744, Note_on_c, 5, 68, 96
7, 511744, Note_off_c, 5, 65, 0
7, 511744, Note_on_c, 5, 65, 96
7, 512000, Note_off_c, 5, 68, 0
7, 512000, Note_on_c, 5, 68, 96
7, 512000, Note_off_c, 5, 65, 0
7, 512000, Note_on_c, 5, 65, 96
7, 512768, Note_off_c, 5, 68, 0
7, 512768, Note_on_c, 5, 68, 96
7, 512768, Note_off_c, 5, 65, 0
7, 512768, Note_on_c, 5, 65, 96
7, 513024, Note_off_c, 5, 68, 0
7, 513024, Note_off_c, 5, 65, 0
7, 513024, Note_on_c, 5, 68, 96
7, 513024, Note_on_c, 5, 65, 96
7, 515072, Note_off_c, 5, 68, 0
7, 515072, Note_off_c, 5, 65, 0
7, 516096, Note_on_c, 5, 73, 96
7, 516096, Note_on_c, 5, 67, 96
7, 516864, Note_off_c, 5, 73, 0
7, 516864, Note_on_c, 5, 73, 96
7, 516864, Note_off_c, 5, 67, 0
7, 516864, Note_on_c, 5, 67, 96
7, 517120, Note_off_c, 5, 73, 0
7, 517120, Note_on_c, 5, 73, 96
7, 517120, Note_off_c, 5, 67, 0
7, 517120, Note_on_c, 5, 70, 96
7, 517888, Note_off_c, 5, 73, 0
7, 517888, Note_on_c, 5, 73, 96
7, 517888, Note_off_c, 5, 70, 0
7, 517888, Note_on_c, 5, 70, 96
7, 518144, Note_off_c, 5, 73, 0
7, 518144, Note_on_c, 5, 73, 96
7, 518144, Note_off_c, 5, 70, 0
7, 518144, Note_on_c, 5, 70, 96
7, 518912, Note_off_c, 5, 73, 0
7, 518912, Note_on_c, 5, 73, 96
7, 518912, Note_off_c, 5, 70, 0
7, 518912, Note_on_c, 5, 70, 96
7, 519168, Note_off_c, 5, 73, 0
7, 519168, Note_off_c, 5, 70, 0
7, 519168, Note_on_c, 5, 72, 96
7, 519168, Note_on_c, 5, 68, 96
7, 521216, Note_off_c, 5, 72, 0
7, 521216, Note_off_c, 5, 68, 0
7, 522752, Note_on_c, 5, 75, 96
7, 523008, Note_off_c, 5, 75, 0
7, 523008, Note_on_c, 5, 77, 96
7, 523264, Note_off_c, 5, 77, 0
7, 523264, Note_on_c, 5, 79, 96
7, 523520, Note_off_c, 5, 79, 0
7, 523520, Note_on_c, 5, 80, 96
7, 523776, Note_off_c, 5, 80, 0
7, 523776, Note_on_c, 5, 82, 96
7, 524544, Note_off_c, 5, 82, 0
7, 524544, Note_on_c, 5, 79, 96
7, 524800, Note_off_c, 5, 79, 0
7, 524800, Note_on_c, 5, 77, 96
7, 525056, Note_off_c, 5, 77, 0
7, 525056, Note_on_c, 5, 75, 96
7, 525312, Note_off_c, 5, 75, 0
7, 525312, Note_on_c, 5, 77, 96
7, 525568, Note_off_c, 5, 77, 0
7, 525568, Note_on_c, 5, 80, 96
7, 525824, Note_off_c, 5, 80, 0
7, 525824, Note_on_c, 5, 77, 96
7, 526080, Note_off_c, 5, 77, 0
7, 526080, Note_on_c, 5, 74, 96
7, 526336, Note_off_c, 5, 74, 0
7, 526336, Note_on_c, 5, 71, 96
7, 526848, Note_off_c, 5, 71, 0
7, 528896, Note_on_c, 5, 72, 96
7, 529152, Note_off_c, 5, 72, 0
7, 529152, Note_on_c, 5, 74, 96
7, 529408, Note_off_c, 5, 74, 0
7, 529408, Note_on_c, 5, 75, 96
7, 529664, Note_off_c, 5, 75, 0
7, 529664, Note_on_c, 5, 77, 96
7, 529920, Note_off_c, 5, 77, 0
7, 529920, Note_on_c, 5, 79, 96
7, 530688, Note_off_c, 5, 79, 0
7, 530688, Note_on_c, 5, 77, 96
7, 530944, Note_off_c, 5, 77, 0
7, 530944, Note_on_c, 5, 79, 96
7, 531200, Note_off_c, 5, 79, 0
7, 531200, Note_on_c, 5, 80, 96
7, 531456, Note_off_c, 5, 80, 0
7, 531456, Note_on_c, 5, 82, 96
7, 531712, Note_off_c, 5, 82, 0
7, 531712, Note_on_c, 5, 80, 96
7, 531968, Note_off_c, 5, 80, 0
7, 531968, Note_on_c, 5, 79, 96
7, 532224, Note_off_c, 5, 79, 0
7, 532224, Note_on_c, 5, 77, 96
7, 532480, Note_off_c, 5, 77, 0
7, 532480, Note_on_c, 5, 75, 96
7, 532992, Note_off_c, 5, 75, 0
7, 534528, Note_on_c, 5, 68, 96
7, 534528, Note_on_c, 5, 63, 96
7, 534784, Note_off_c, 5, 68, 0
7, 534784, Note_on_c, 5, 70, 96
7, 535040, Note_off_c, 5, 70, 0
7, 535040, Note_on_c, 5, 72, 96
7, 535040, Note_off_c, 5, 63, 0
7, 535552, Note_on_c, 5, 68, 96
7, 535808, Note_off_c, 5, 72, 0
7, 535808, Note_on_c, 5, 73, 96
7, 536064, Note_off_c, 5, 73, 0
7, 536064, Note_on_c, 5, 75, 96
7, 536064, Note_off_c, 5, 68, 0
7, 536576, Note_on_c, 5, 68, 96
7, 536832, Note_off_c, 5, 75, 0
7, 536832, Note_on_c, 5, 77, 96
7, 537088, Note_off_c, 5, 77, 0
7, 537088, Note_on_c, 5, 78, 96
7, 537088, Note_off_c, 5, 68, 0
7, 537344, Note_off_c, 5, 78, 0
7, 537344, Note_on_c, 5, 75, 96
7, 537600, Note_off_c, 5, 75, 0
7, 537600, Note_on_c, 5, 77, 96
7, 537600, Note_on_c, 5, 72, 96
7, 538112, Note_off_c, 5, 77, 0
7, 538112, Note_on_c, 5, 75, 96
7, 538112, Note_off_c, 5, 72, 0
7, 538368, Note_off_c, 5, 75, 0
7, 538368, Note_on_c, 5, 74, 96
7, 538624, Note_off_c, 5, 74, 0
7, 538624, Note_on_c, 5, 72, 96
7, 539136, Note_off_c, 5, 72, 0
7, 540672, Note_on_c, 5, 70, 96
7, 540672, Note_on_c, 5, 65, 96
7, 540928, Note_off_c, 5, 70, 0
7, 540928, Note_on_c, 5, 72, 96
7, 541184, Note_off_c, 5, 72, 0
7, 541184, Note_on_c, 5, 74, 96
7, 541184, Note_off_c, 5, 65, 0
7, 541696, Note_on_c, 5, 70, 96
7, 541952, Note_off_c, 5, 74, 0
7, 541952, Note_on_c, 5, 75, 96
7, 542208, Note_off_c, 5, 75, 0
7, 542208, Note_on_c, 5, 77, 96
7, 542208, Note_off_c, 5, 70, 0
7, 542720, Note_on_c, 5, 74, 96
7, 542976, Note_off_c, 5, 77, 0
7, 542976, Note_on_c, 5, 79, 96
7, 543232, Note_off_c, 5, 79, 0
7, 543232, Note_on_c, 5, 80, 96
7, 543232, Note_off_c, 5, 74, 0
7, 543488, Note_off_c, 5, 80, 0
7, 543488, Note_on_c, 5, 77, 96
7, 543744, Note_off_c, 5, 77, 0
7, 543744, Note_on_c, 5, 82, 96
7, 543744, Note_on_c, 5, 77, 96
7, 544256, Note_off_c, 5, 82, 0
7, 544256, Note_on_c, 5, 80, 96
7, 544256, Note_off_c, 5, 77, 0
7, 544512, Note_off_c, 5, 80, 0
7, 544512, Note_on_c, 5, 79, 96
7, 544768, Note_off_c, 5, 79, 0
7, 544768, Note_on_c, 5, 77, 96
7, 544768, Note_on_c, 5, 74, 96
7, 545280, Note_off_c, 5, 74, 0
7, 545792, Note_on_c, 5, 70, 96
7, 546304, Note_off_c, 5, 70, 0
7, 546816, Note_on_c, 5, 70, 96
7, 547072, Note_off_c, 5, 77, 0
7, 547072, Note_on_c, 5, 70, 96
7, 547328, Note_off_c, 5, 70, 0
7, 547328, Note_on_c, 5, 68, 96
7, 547328, Note_off_c, 5, 70, 0
7, 547584, Note_off_c, 5, 68, 0
7, 547584, Note_on_c, 5, 70, 96
7, 547840, Note_off_c, 5, 70, 0
7, 547840, Note_on_c, 5, 67, 96
7, 548096, Note_off_c, 5, 67, 0
7, 548096, Note_on_c, 5, 70, 96
7, 548352, Note_off_c, 5, 70, 0
7, 548352, Note_on_c, 5, 68, 96
7, 548608, Note_off_c, 5, 68, 0
7, 548608, Note_on_c, 5, 70, 96
7, 548864, Note_off_c, 5, 70, 0
7, 548864, Note_on_c, 5, 75, 96
7, 549120, Note_off_c, 5, 75, 0
7, 549120, Note_on_c, 5, 70, 96
7, 549376, Note_off_c, 5, 70, 0
7, 549376, Note_on_c, 5, 68, 96
7, 549632, Note_off_c, 5, 68, 0
7, 549632, Note_on_c, 5, 70, 96
7, 549888, Note_off_c, 5, 70, 0
7, 549888, Note_on_c, 5, 79, 96
7, 550144, Note_off_c, 5, 79, 0
7, 550144, Note_on_c, 5, 67, 96
7, 550400, Note_off_c, 5, 67, 0
7, 550400, Note_on_c, 5, 65, 96
7, 550656, Note_off_c, 5, 65, 0
7, 550656, Note_on_c, 5, 67, 96
7, 550912, Note_off_c, 5, 67, 0
7, 550912, Note_on_c, 5, 63, 96
7, 551168, Note_off_c, 5, 63, 0
7, 551168, Note_on_c, 5, 67, 96
7, 551424, Note_off_c, 5, 67, 0
7, 551424, Note_on_c, 5, 65, 96
7, 551680, Note_off_c, 5, 65, 0
7, 551680, Note_on_c, 5, 67, 96
7, 551936, Note_off_c, 5, 67, 0
7, 551936, Note_on_c, 5, 72, 96
7, 552192, Note_off_c, 5, 72, 0
7, 552192, Note_on_c, 5, 67, 96
7, 552448, Note_off_c, 5, 67, 0
7, 552448, Note_on_c, 5, 65, 96
7, 552704, Note_off_c, 5, 65, 0
7, 552704, Note_on_c, 5, 67, 96
7, 552960, Note_off_c, 5, 67, 0
7, 552960, Note_on_c, 5, 75, 96
7, 553472, Note_off_c, 5, 75, 0
7, 556032, Note_on_c, 5, 63, 96
7, 556032, Note_on_c, 5, 60, 96
7, 556800, Note_off_c, 5, 63, 0
7, 556800, Note_on_c, 5, 63, 96
7, 556800, Note_off_c, 5, 60, 0
7, 556800, Note_on_c, 5, 60, 96
7, 557056, Note_off_c, 5, 63, 0
7, 557056, Note_on_c, 5, 63, 96
7, 557056, Note_off_c, 5, 60, 0
7, 557056, Note_on_c, 5, 63, 96
7, 557824, Note_off_c, 5, 63, 0
7, 557824, Note_on_c, 5, 63, 96
7, 557824, Note_off_c, 5, 63, 0
7, 557824, Note_on_c, 5, 63, 96
7, 558080, Note_off_c, 5, 63, 0
7, 558080, Note_on_c, 5, 63, 96
7, 558080, Note_off_c, 5, 63, 0
7, 558080, Note_on_c, 5, 68, 96
7, 558848, Note_off_c, 5, 63, 0
7, 558848, Note_on_c, 5, 63, 96
7, 558848, Note_off_c, 5, 68, 0
7, 558848, Note_on_c, 5, 68, 96
7, 559104, Note_off_c, 5, 63, 0
7, 559104, Note_off_c, 5, 68, 0
7, 559104, Note_on_c, 5, 63, 96
7, 559104, Note_on_c, 5, 67, 96
7, 561152, Note_off_c, 5, 63, 0
7, 561152, Note_off_c, 5, 67, 0
7, 562176, Note_on_c, 5, 65, 96
7, 562176, Note_on_c, 5, 60, 96
7, 562944, Note_off_c, 5, 65, 0
7, 562944, Note_on_c, 5, 65, 96
7, 562944, Note_off_c, 5, 60, 0
7, 562944, Note_on_c, 5, 60, 96
7, 563200, Note_off_c, 5, 65, 0
7, 563200, Note_on_c, 5, 65, 96
7, 563200, Note_off_c, 5, 60, 0
7, 563200, Note_on_c, 5, 60, 96
7, 563968, Note_off_c, 5, 65, 0
7, 563968, Note_on_c, 5, 65, 96
7, 563968, Note_off_c, 5, 60, 0
7, 563968, Note_on_c, 5, 60, 96
7, 564224, Note_off_c, 5, 65, 0
7, 564224, Note_on_c, 5, 65, 96
7, 564224, Note_off_c, 5, 60, 0
7, 564224, Note_on_c, 5, 60, 96
7, 564992, Note_off_c, 5, 65, 0
7, 564992, Note_on_c, 5, 65, 96
7, 564992, Note_off_c, 5, 60, 0
7, 564992, Note_on_c, 5, 60, 96
7, 565248, Note_off_c, 5, 65, 0
7, 565248, Note_off_c, 5, 60, 0
7, 565248, Note_on_c, 5, 65, 96
7, 565248, Note_on_c, 5, 62, 96
7, 567296, Note_off_c, 5, 65, 0
7, 567296, Note_off_c, 5, 62, 0
7, 568320, Note_on_c, 5, 63, 96
7, 568320, Note_on_c, 5, 67, 96
7, 568576, Note_off_c, 5, 63, 0
7, 568576, Note_on_c, 5, 65, 96
7, 568832, Note_off_c, 5, 65, 0
7, 568832, Note_on_c, 5, 67, 96
7, 568832, Note_off_c, 5, 67, 0
7, 569344, Note_on_c, 5, 70, 96
7, 569600, Note_off_c, 5, 67, 0
7, 569600, Note_on_c, 5, 68, 96
7, 569856, Note_off_c, 5, 68, 0
7, 569856, Note_on_c, 5, 70, 96
7, 569856, Note_off_c, 5, 70, 0
7, 570368, Note_on_c, 5, 67, 96
7, 570624, Note_off_c, 5, 70, 0
7, 570624, Note_on_c, 5, 68, 96
7, 570880, Note_off_c, 5, 68, 0
7, 570880, Note_on_c, 5, 70, 96
7, 570880, Note_off_c, 5, 67, 0
7, 571136, Note_off_c, 5, 70, 0
7, 571136, Note_on_c, 5, 72, 96
7, 571392, Note_off_c, 5, 72, 0
7, 571392, Note_on_c, 5, 73, 96
7, 571392, Note_on_c, 5, 70, 96
7, 571648, Note_off_c, 5, 73, 0
7, 571648, Note_on_c, 5, 70, 96
7, 571904, Note_off_c, 5, 70, 0
7, 571904, Note_on_c, 5, 67, 96
7, 571904, Note_off_c, 5, 70, 0
7, 572160, Note_off_c, 5, 67, 0
7, 572160, Note_on_c, 5, 70, 96
7, 572416, Note_off_c, 5, 70, 0
7, 572416, Note_on_c, 5, 63, 96
7, 572928, Note_off_c, 5, 63, 0
7, 574464, Note_on_c, 5, 68, 96
7, 574464, Note_on_c, 5, 63, 96
7, 574720, Note_off_c, 5, 68, 0
7, 574720, Note_on_c, 5, 70, 96
7, 574976, Note_off_c, 5, 70, 0
7, 574976, Note_on_c, 5, 72, 96
7, 574976, Note_off_c, 5, 63, 0
7, 575488, Note_on_c, 5, 75, 96
7, 575744, Note_off_c, 5, 72, 0
7, 575744, Note_on_c, 5, 73, 96
7, 576000, Note_off_c, 5, 73, 0
7, 576000, Note_on_c, 5, 75, 96
7, 576000, Note_off_c, 5, 75, 0
7, 576512, Note_on_c, 5, 68, 96
7, 576768, Note_off_c, 5, 75, 0
7, 576768, Note_on_c, 5, 74, 96
7, 577024, Note_off_c, 5, 74, 0
7, 577024, Note_on_c, 5, 75, 96
7, 577024, Note_off_c, 5, 68, 0
7, 577280, Note_off_c, 5, 75, 0
7, 577280, Note_on_c, 5, 77, 96
7, 577536, Note_off_c, 5, 77, 0
7, 577536, Note_on_c, 5, 79, 96
7, 577536, Note_on_c, 5, 70, 96
7, 578048, Note_off_c, 5, 79, 0
7, 578048, Note_off_c, 5, 70, 0
7, 580608, Note_on_c, 5, 63, 96
7, 580608, Note_on_c, 5, 60, 96
7, 581376, Note_off_c, 5, 63, 0
7, 581376, Note_on_c, 5, 63, 96
7, 581376, Note_off_c, 5, 60, 0
7, 581376, Note_on_c, 5, 60, 96
7, 581632, Note_off_c, 5, 63, 0
7, 581632, Note_on_c, 5, 63, 96
7, 581632, Note_off_c, 5, 60, 0
7, 581632, Note_on_c, 5, 60, 96
7, 582400, Note_off_c, 5, 63, 0
7, 582400, Note_on_c, 5, 63, 96
7, 582400, Note_off_c, 5, 60, 0
7, 582400, Note_on_c, 5, 60, 96
7, 582656, Note_off_c, 5, 63, 0
7, 582656, Note_on_c, 5, 63, 96
7, 582656, Note_off_c, 5, 60, 0
7, 582656, Note_on_c, 5, 60, 96
7, 583424, Note_off_c, 5, 63, 0
7, 583424, Note_on_c, 5, 63, 96
7, 583424, Note_off_c, 5, 60, 0
7, 583424, Note_on_c, 5, 60, 96
7, 583680, Note_off_c, 5, 63, 0
7, 583680, Note_off_c, 5, 60, 0
7, 583680, Note_on_c, 5, 63, 96
7, 583680, Note_on_c, 5, 60, 96
7, 585728, Note_off_c, 5, 63, 0
7, 585728, Note_off_c, 5, 60, 0
7, 586752, Note_on_c, 5, 68, 96
7, 586752, Note_on_c, 5, 62, 96
7, 587520, Note_off_c, 5, 68, 0
7, 587520, Note_on_c, 5, 68, 96
7, 587520, Note_off_c, 5, 62, 0
7, 587520, Note_on_c, 5, 62, 96
7, 587776, Note_off_c, 5, 68, 0
7, 587776, Note_on_c, 5, 68, 96
7, 587776, Note_off_c, 5, 62, 0
7, 587776, Note_on_c, 5, 65, 96
7, 588544, Note_off_c, 5, 68, 0
7, 588544, Note_on_c, 5, 68, 96
7, 588544, Note_off_c, 5, 65, 0
7, 588544, Note_on_c, 5, 65, 96
7, 588800, Note_off_c, 5, 68, 0
7, 588800, Note_on_c, 5, 68, 96
7, 588800, Note_off_c, 5, 65, 0
7, 588800, Note_on_c, 5, 65, 96
7, 589568, Note_off_c, 5, 68, 0
7, 589568, Note_on_c, 5, 68, 96
7, 589568, Note_off_c, 5, 65, 0
7, 589568, Note_on_c, 5, 65, 96
7, 589824, Note_off_c, 5, 68, 0
7, 589824, Note_off_c, 5, 65, 0
7, 589824, Note_on_c, 5, 67, 96
7, 589824, Note_on_c, 5, 63, 96
7, 591872, Note_off_c, 5, 67, 0
7, 591872, Note_off_c, 5, 63, 0
7, 592896, Note_on_c, 5, 70, 96
7, 592896, Note_on_c, 5, 65, 96
7, 593152, Note_off_c, 5, 70, 0
7, 593152, Note_on_c, 5, 72, 96
7, 593408, Note_off_c, 5, 72, 0
7, 593408, Note_on_c, 5, 74, 96
7, 593408, Note_off_c, 5, 65, 0
7, 593920, Note_on_c, 5, 70, 96
7, 594176, Note_off_c, 5, 74, 0
7, 594176, Note_on_c, 5, 75, 96
7, 594432, Note_off_c, 5, 75, 0
7, 594432, Note_on_c, 5, 77, 96
7, 594432, Note_off_c, 5, 70, 0
7, 594944, Note_on_c, 5, 70, 96
7, 595200, Note_off_c, 5, 77, 0
7, 595200, Note_on_c, 5, 74, 96
7, 595456, Note_off_c, 5, 74, 0
7, 595456, Note_on_c, 5, 72, 96
7, 595456, Note_off_c, 5, 70, 0
7, 595712, Note_off_c, 5, 72, 0
7, 595712, Note_on_c, 5, 70, 96
7, 595968, Note_off_c, 5, 70, 0
7, 595968, Note_on_c, 5, 72, 96
7, 595968, Note_on_c, 5, 68, 96
7, 596224, Note_off_c, 5, 72, 0
7, 596224, Note_on_c, 5, 77, 96
7, 596480, Note_off_c, 5, 77, 0
7, 596480, Note_on_c, 5, 72, 96
7, 596480, Note_off_c, 5, 68, 0
7, 596736, Note_off_c, 5, 72, 0
7, 596736, Note_on_c, 5, 68, 96
7, 596992, Note_off_c, 5, 68, 0
7, 596992, Note_on_c, 5, 65, 96
7, 597504, Note_off_c, 5, 65, 0
7, 599040, Note_on_c, 5, 72, 96
7, 599040, Note_on_c, 5, 67, 96
7, 599296, Note_off_c, 5, 72, 0
7, 599296, Note_on_c, 5, 74, 96
7, 599552, Note_off_c, 5, 74, 0
7, 599552, Note_on_c, 5, 75, 96
7, 599552, Note_off_c, 5, 67, 0
7, 600064, Note_on_c, 5, 72, 96
7, 600320, Note_off_c, 5, 75, 0
7, 600320, Note_on_c, 5, 77, 96
7, 600576, Note_off_c, 5, 77, 0
7, 600576, Note_on_c, 5, 79, 96
7, 600576, Note_off_c, 5, 72, 0
7, 601088, Note_on_c, 5, 75, 96
7, 601344, Note_off_c, 5, 79, 0
7, 601344, Note_on_c, 5, 77, 96
7, 601600, Note_off_c, 5, 77, 0
7, 601600, Note_on_c, 5, 79, 96
7, 601600, Note_off_c, 5, 75, 0
7, 601856, Note_off_c, 5, 79, 0
7, 601856, Note_on_c, 5, 80, 96
7, 602112, Note_off_c, 5, 80, 0
7, 602112, Note_on_c, 5, 82, 96
7, 602112, Note_on_c, 5, 75, 96
7, 602624, Note_off_c, 5, 75, 0
7, 603136, Note_on_c, 5, 70, 96
7, 603648, Note_off_c, 5, 70, 0
7, 604160, Note_on_c, 5, 75, 96
7, 604672, Note_off_c, 5, 75, 0
7, 605184, Note_on_c, 5, 72, 96
7, 605696, Note_off_c, 5, 72, 0
7, 606208, Note_off_c, 5, 82, 0
7, 606208, Note_on_c, 5, 80, 96
7, 606208, Note_on_c, 5, 77, 96
7, 608768, Note_off_c, 5, 77, 0
7, 609280, Note_off_c, 5, 80, 0
7, 609280, Note_on_c, 5, 79, 96
7, 609280, Note_on_c, 5, 75, 96
7, 609792, Note_off_c, 5, 75, 0
7, 610304, Note_on_c, 5, 70, 96
7, 610816, Note_off_c, 5, 70, 0
7, 611328, Note_on_c, 5, 68, 96
7, 611840, Note_off_c, 5, 68, 0
7, 612352, Note_off_c, 5, 79, 0
7, 612352, Note_on_c, 5, 77, 96
7, 612352, Note_on_c, 5, 68, 96
7, 614400, Note_off_c, 5, 68, 0
7, 614400, Note_on_c, 5, 62, 96
7, 614912, Note_off_c, 5, 62, 0
7, 615424, Note_off_c, 5, 77, 0
7, 615424, Note_on_c, 5, 75, 96
7, 615424, Note_on_c, 5, 60, 96
7, 615936, Note_off_c, 5, 60, 0
7, 616448, Note_on_c, 5, 72, 96
7, 616960, Note_off_c, 5, 72, 0
7, 617472, Note_on_c, 5, 65, 96
7, 617984, Note_off_c, 5, 75, 0
7, 617984, Note_on_c, 5, 65, 96
7, 617984, Note_off_c, 5, 65, 0
7, 618240, Note_off_c, 5, 65, 0
7, 618240, Note_on_c, 5, 67, 96
7, 618496, Note_off_c, 5, 67, 0
7, 618496, Note_on_c, 5, 69, 96
7, 618496, Note_on_c, 5, 65, 96
7, 618752, Note_off_c, 5, 69, 0
7, 618752, Note_on_c, 5, 70, 96
7, 619008, Note_off_c, 5, 70, 0
7, 619008, Note_on_c, 5, 72, 96
7, 619008, Note_off_c, 5, 65, 0
7, 619520, Note_on_c, 5, 65, 96
7, 619776, Note_off_c, 5, 72, 0
7, 619776, Note_on_c, 5, 74, 96
7, 620032, Note_off_c, 5, 74, 0
7, 620032, Note_on_c, 5, 75, 96
7, 620032, Note_off_c, 5, 65, 0
7, 620288, Note_off_c, 5, 75, 0
7, 620288, Note_on_c, 5, 72, 96
7, 620544, Note_off_c, 5, 72, 0
7, 620544, Note_on_c, 5, 74, 96
7, 620544, Note_on_c, 5, 65, 96
7, 620800, Note_off_c, 5, 74, 0
7, 620800, Note_on_c, 5, 77, 96
7, 621056, Note_off_c, 5, 77, 0
7, 621056, Note_on_c, 5, 70, 96
7, 621056, Note_off_c, 5, 65, 0
7, 621312, Note_off_c, 5, 70, 0
7, 621312, Note_on_c, 5, 72, 96
7, 621568, Note_off_c, 5, 72, 0
7, 621568, Note_on_c, 5, 74, 96
7, 621568, Note_on_c, 5, 70, 96
7, 621824, Note_off_c, 5, 74, 0
7, 621824, Note_on_c, 5, 75, 96
7, 622080, Note_off_c, 5, 75, 0
7, 622080, Note_on_c, 5, 77, 96
7, 622080, Note_off_c, 5, 70, 0
7, 622592, Note_on_c, 5, 74, 96
7, 622848, Note_off_c, 5, 77, 0
7, 622848, Note_on_c, 5, 79, 96
7, 623104, Note_off_c, 5, 79, 0
7, 623104, Note_on_c, 5, 80, 96
7, 623104, Note_off_c, 5, 74, 0
7, 623360, Note_off_c, 5, 80, 0
7, 623360, Note_on_c, 5, 77, 96
7, 623616, Note_off_c, 5, 77, 0
7, 623616, Note_on_c, 5, 82, 96
7, 623616, Note_on_c, 5, 75, 96
7, 624384, Note_off_c, 5, 82, 0
7, 624384, Note_on_c, 5, 80, 96
7, 624384, Note_off_c, 5, 75, 0
7, 624384, Note_on_c, 5, 77, 96
7, 624640, Note_off_c, 5, 80, 0
7, 624640, Note_on_c, 5, 79, 96
7, 624640, Note_off_c, 5, 77, 0
7, 624640, Note_on_c, 5, 75, 96
7, 625664, Note_off_c, 5, 79, 0
7, 625664, Note_on_c, 5, 77, 96
7, 625664, Note_off_c, 5, 75, 0
7, 625664, Note_on_c, 5, 74, 96
7, 626688, Note_off_c, 5, 77, 0
7, 626688, Note_off_c, 5, 74, 0
7, 626688, Note_on_c, 5, 75, 96
7, 626688, Note_on_c, 5, 70, 96
7, 629760, Note_off_c, 5, 75, 0
7, 629760, Note_off_c, 5, 70, 0
7, 629760, End_track
8, 0, Start_track
8, 0, Title_t, "Instrument 7"
8, 0, Note_on_c, 6, 63, 96
8, 0, Note_on_c, 6, 58, 96
8, 768, Note_off_c, 6, 63, 0
8, 768, Note_on_c, 6, 63, 96
8, 768, Note_off_c, 6, 58, 0
8, 768, Note_on_c, 6, 58, 96
8, 1024, Note_off_c, 6, 63, 0
8, 1024, Note_on_c, 6, 63, 96
8, 1024, Note_off_c, 6, 58, 0
8, 1024, Note_on_c, 6, 58, 96
8, 1792, Note_off_c, 6, 63, 0
8, 1792, Note_on_c, 6, 63, 96
8, 1792, Note_off_c, 6, 58, 0
8, 1792, Note_on_c, 6, 58, 96
8, 2048, Note_off_c, 6, 63, 0
8, 2048, Note_on_c, 6, 63, 96
8, 2048, Note_off_c, 6, 58, 0
8, 2048, Note_on_c, 6, 58, 96
8, 2816, Note_off_c, 6, 63, 0
8, 2816, Note_on_c, 6, 63, 96
8, 2816, Note_off_c, 6, 58, 0
8, 2816, Note_on_c, 6, 58, 96
8, 3072, Note_off_c, 6, 63, 0
8, 3072, Note_off_c, 6, 58, 0
8, 3072, Note_on_c, 6, 63, 96
8, 3072, Note_on_c, 6, 60, 96
8, 5120, Note_off_c, 6, 63, 0
8, 5120, Note_off_c, 6, 60, 0
8, 6144, Note_on_c, 6, 65, 96
8, 6144, Note_on_c, 6, 60, 96
8, 6912, Note_off_c, 6, 65, 0
8, 6912, Note_on_c, 6, 65, 96
8, 6912, Note_off_c, 6, 60, 0
8, 6912, Note_on_c, 6, 60, 96
8, 7168, Note_off_c, 6, 65, 0
8, 7168, Note_on_c, 6, 65, 96
8, 7168, Note_off_c, 6, 60, 0
8, 7168, Note_on_c, 6, 63, 96
8, 7936, Note_off_c, 6, 65, 0
8, 7936, Note_on_c, 6, 65, 96
8, 7936, Note_off_c, 6, 63, 0
8, 7936, Note_on_c, 6, 63, 96
8, 8192, Note_off_c, 6, 65, 0
8, 8192, Note_on_c, 6, 65, 96
8, 8192, Note_off_c, 6, 63, 0
8, 8192, Note_on_c, 6, 63, 96
8, 8960, Note_off_c, 6, 65, 0
8, 8960, Note_on_c, 6, 65, 96
8, 8960, Note_off_c, 6, 63, 0
8, 8960, Note_on_c, 6, 63, 96
8, 9216, Note_off_c, 6, 65, 0
8, 9216, Note_off_c, 6, 63, 0
8, 9216, Note_on_c, 6, 65, 96
8, 9216, Note_on_c, 6, 62, 96
8, 11264, Note_off_c, 6, 65, 0
8, 11264, Note_off_c, 6, 62, 0
8, 12288, Note_on_c, 6, 63, 96
8, 12288, Note_on_c, 6, 58, 96
8, 12544, Note_off_c, 6, 63, 0
8, 12544, Note_on_c, 6, 65, 96
8, 12800, Note_off_c, 6, 65, 0
8, 12800, Note_on_c, 6, 67, 96
8, 12800, Note_off_c, 6, 58, 0
8, 13312, Note_on_c, 6, 63, 96
8, 13568, Note_off_c, 6, 67, 0
8, 13568, Note_on_c, 6, 68, 96
8, 13824, Note_off_c, 6, 68, 0
8, 13824, Note_on_c, 6, 70, 96
8, 13824, Note_off_c, 6, 63, 0
8, 14336, Note_on_c, 6, 63, 96
8, 14592, Note_off_c, 6, 70, 0
8, 14592, Note_on_c, 6, 67, 96
8, 14848, Note_off_c, 6, 67, 0
8, 14848, Note_on_c, 6, 65, 96
8, 14848, Note_off_c, 6, 63, 0
8, 15104, Note_off_c, 6, 65, 0
8, 15104, Note_on_c, 6, 63, 96
8, 15360, Note_off_c, 6, 63, 0
8, 15360, Note_on_c, 6, 65, 96
8, 15360, Note_on_c, 6, 62, 96
8, 15616, Note_off_c, 6, 65, 0
8, 15616, Note_on_c, 6, 70, 96
8, 15872, Note_off_c, 6, 70, 0
8, 15872, Note_on_c, 6, 65, 96
8, 15872, Note_off_c, 6, 62, 0
8, 16128, Note_off_c, 6, 65, 0
8, 16128, Note_on_c, 6, 62, 96
8, 16384, Note_off_c, 6, 62, 0
8, 16384, Note_on_c, 6, 58, 96
8, 16896, Note_off_c, 6, 58, 0
8, 18432, Note_on_c, 6, 65, 96
8, 18432, Note_on_c, 6, 60, 96
8, 18688, Note_off_c, 6, 65, 0
8, 18688, Note_on_c, 6, 67, 96
8, 18944, Note_off_c, 6, 67, 0
8, 18944, Note_on_c, 6, 68, 96
8, 18944, Note_off_c, 6, 60, 0
8, 19456, Note_on_c, 6, 65, 96
8, 19712, Note_off_c, 6, 68, 0
8, 19712, Note_on_c, 6, 70, 96
8, 19968, Note_off_c, 6, 70, 0
8, 19968, Note_on_c, 6, 72, 96
8, 19968, Note_off_c, 6, 65, 0
8, 20480, Note_on_c, 6, 67, 96
8, 20736, Note_off_c, 6, 72, 0
8, 20736, Note_on_c, 6, 71, 96
8, 20992, Note_off_c, 6, 71, 0
8, 20992, Note_on_c, 6, 72, 96
8, 20992, Note_off_c, 6, 67, 0
8, 21248, Note_off_c, 6, 72, 0
8, 21248, Note_on_c, 6, 74, 96
8, 21504, Note_off_c, 6, 74, 0
8, 21504, Note_on_c, 6, 75, 96
8, 21504, Note_on_c, 6, 72, 96
8, 22016, Note_off_c, 6, 72, 0
8, 22528, Note_on_c, 6, 67, 96
8, 23040, Note_off_c, 6, 67, 0
8, 23552, Note_on_c, 6, 67, 96
8, 24064, Note_off_c, 6, 67, 0
8, 24576, Note_on_c, 6, 63, 96
8, 24832, Note_off_c, 6, 75, 0
8, 24832, Note_on_c, 6, 58, 96
8, 25088, Note_off_c, 6, 58, 0
8, 25088, Note_on_c, 6, 60, 96
8, 25088, Note_off_c, 6, 63, 0
8, 25344, Note_off_c, 6, 60, 0
8, 25344, Note_on_c, 6, 62, 96
8, 25600, Note_off_c, 6, 62, 0
8, 25600, Note_on_c, 6, 63, 96
8, 25600, Note_on_c, 6, 75, 96
8, 25856, Note_off_c, 6, 63, 0
8, 25856, Note_on_c, 6, 65, 96
8, 26112, Note_off_c, 6, 65, 0
8, 26112, Note_on_c, 6, 67, 96
8, 26112, Note_off_c, 6, 75, 0
8, 26368, Note_off_c, 6, 67, 0
8, 26368, Note_on_c, 6, 68, 96
8, 26624, Note_off_c, 6, 68, 0
8, 26624, Note_on_c, 6, 70, 96
8, 26624, Note_on_c, 6, 75, 96
8, 26880, Note_off_c, 6, 70, 0
8, 26880, Note_on_c, 6, 72, 96
8, 27136, Note_off_c, 6, 72, 0
8, 27136, Note_on_c, 6, 73, 96
8, 27136, Note_off_c, 6, 75, 0
8, 27392, Note_off_c, 6, 73, 0
8, 27392, Note_on_c, 6, 70, 96
8, 27648, Note_off_c, 6, 70, 0
8, 27648, Note_on_c, 6, 72, 96
8, 27648, Note_on_c, 6, 75, 96
8, 27904, Note_off_c, 6, 72, 0
8, 27904, Note_on_c, 6, 60, 96
8, 28160, Note_off_c, 6, 60, 0
8, 28160, Note_on_c, 6, 62, 96
8, 28160, Note_off_c, 6, 75, 0
8, 28416, Note_off_c, 6, 62, 0
8, 28416, Note_on_c, 6, 63, 96
8, 28672, Note_off_c, 6, 63, 0
8, 28672, Note_on_c, 6, 65, 96
8, 28672, Note_on_c, 6, 68, 96
8, 28928, Note_off_c, 6, 65, 0
8, 28928, Note_on_c, 6, 67, 96
8, 29184, Note_off_c, 6, 67, 0
8, 29184, Note_on_c, 6, 68, 96
8, 29184, Note_off_c, 6, 68, 0
8, 29440, Note_off_c, 6, 68, 0
8, 29440, Note_on_c, 6, 70, 96
8, 29696, Note_off_c, 6, 70, 0
8, 29696, Note_on_c, 6, 72, 96
8, 29696, Note_on_c, 6, 68, 96
8, 29952, Note_off_c, 6, 72, 0
8, 29952, Note_on_c, 6, 74, 96
8, 30208, Note_off_c, 6, 74, 0
8, 30208, Note_on_c, 6, 75, 96
8, 30208, Note_off_c, 6, 68, 0
8, 30464, Note_off_c, 6, 75, 0
8, 30464, Note_on_c, 6, 72, 96
8, 30720, Note_off_c, 6, 72, 0
8, 30720, Note_on_c, 6, 77, 96
8, 30720, Note_on_c, 6, 70, 96
8, 30976, Note_off_c, 6, 77, 0
8, 30976, Note_on_c, 6, 62, 96
8, 31232, Note_off_c, 6, 62, 0
8, 31232, Note_on_c, 6, 63, 96
8, 31232, Note_off_c, 6, 70, 0
8, 31488, Note_off_c, 6, 63, 0
8, 31488, Note_on_c, 6, 65, 96
8, 31744, Note_off_c, 6, 65, 0
8, 31744, Note_on_c, 6, 67, 96
8, 31744, Note_on_c, 6, 70, 96
8, 32000, Note_off_c, 6, 67, 0
8, 32000, Note_on_c, 6, 68, 96
8, 32256, Note_off_c, 6, 68, 0
8, 32256, Note_on_c, 6, 70, 96
8, 32256, Note_off_c, 6, 70, 0
8, 32512, Note_off_c, 6, 70, 0
8, 32512, Note_on_c, 6, 72, 96
8, 32768, Note_off_c, 6, 72, 0
8, 32768, Note_on_c, 6, 74, 96
8, 32768, Note_on_c, 6, 67, 96
8, 33024, Note_off_c, 6, 74, 0
8, 33024, Note_on_c, 6, 75, 96
8, 33280, Note_off_c, 6, 75, 0
8, 33280, Note_on_c, 6, 77, 96
8, 33280, Note_off_c, 6, 67, 0
8, 33536, Note_off_c, 6, 77, 0
8, 33536, Note_on_c, 6, 79, 96
8, 33792, Note_off_c, 6, 79, 0
8, 33792, Note_on_c, 6, 80, 96
8, 33792, Note_on_c, 6, 65, 96
8, 34048, Note_off_c, 6, 80, 0
8, 34048, Note_on_c, 6, 65, 96
8, 34304, Note_off_c, 6, 65, 0
8, 34304, Note_on_c, 6, 67, 96
8, 34304, Note_off_c, 6, 65, 0
8, 34560, Note_off_c, 6, 67, 0
8, 34560, Note_on_c, 6, 68, 96
8, 34816, Note_off_c, 6, 68, 0
8, 34816, Note_on_c, 6, 70, 96
8, 34816, Note_on_c, 6, 77, 96
8, 35072, Note_off_c, 6, 70, 0
8, 35072, Note_on_c, 6, 72, 96
8, 35328, Note_off_c, 6, 72, 0
8, 35328, Note_on_c, 6, 74, 96
8, 35328, Note_off_c, 6, 77, 0
8, 35584, Note_off_c, 6, 74, 0
8, 35584, Note_on_c, 6, 75, 96
8, 35840, Note_off_c, 6, 75, 0
8, 35840, Note_on_c, 6, 77, 96
8, 35840, Note_on_c, 6, 70, 96
8, 36096, Note_off_c, 6, 77, 0
8, 36096, Note_on_c, 6, 79, 96
8, 36352, Note_off_c, 6, 79, 0
8, 36352, Note_on_c, 6, 80, 96
8, 36352, Note_off_c, 6, 70, 0
8, 36608, Note_off_c, 6, 80, 0
8, 36608, Note_on_c, 6, 77, 96
8, 36864, Note_off_c, 6, 77, 0
8, 36864, Note_on_c, 6, 79, 96
8, 36864, Note_on_c, 6, 74, 96
8, 37120, Note_off_c, 6, 79, 0
8, 37120, Note_on_c, 6, 67, 96
8, 37376, Note_off_c, 6, 67, 0
8, 37376, Note_on_c, 6, 69, 96
8, 37376, Note_off_c, 6, 74, 0
8, 37632, Note_off_c, 6, 69, 0
8, 37632, Note_on_c, 6, 71, 96
8, 37888, Note_off_c, 6, 71, 0
8, 37888, Note_on_c, 6, 72, 96
8, 37888, Note_on_c, 6, 67, 96
8, 38144, Note_off_c, 6, 72, 0
8, 38144, Note_on_c, 6, 74, 96
8, 38400, Note_off_c, 6, 74, 0
8, 38400, Note_on_c, 6, 75, 96
8, 38400, Note_off_c, 6, 67, 0
8, 38656, Note_off_c, 6, 75, 0
8, 38656, Note_on_c, 6, 77, 96
8, 38912, Note_off_c, 6, 77, 0
8, 38912, Note_on_c, 6, 79, 96
8, 38912, Note_on_c, 6, 75, 96
8, 39168, Note_off_c, 6, 79, 0
8, 39168, Note_on_c, 6, 81, 96
8, 39424, Note_off_c, 6, 81, 0
8, 39424, Note_on_c, 6, 82, 96
8, 39424, Note_off_c, 6, 75, 0
8, 39680, Note_off_c, 6, 82, 0
8, 39680, Note_on_c, 6, 79, 96
8, 39936, Note_off_c, 6, 79, 0
8, 39936, Note_on_c, 6, 84, 96
8, 39936, Note_on_c, 6, 77, 96
8, 40192, Note_off_c, 6, 84, 0
8, 40192, Note_on_c, 6, 75, 96
8, 40448, Note_off_c, 6, 75, 0
8, 40448, Note_on_c, 6, 74, 96
8, 40448, Note_off_c, 6, 77, 0
8, 40704, Note_off_c, 6, 74, 0
8, 40704, Note_on_c, 6, 75, 96
8, 40960, Note_off_c, 6, 75, 0
8, 40960, Note_on_c, 6, 65, 96
8, 40960, Note_on_c, 6, 72, 96
8, 41216, Note_off_c, 6, 65, 0
8, 41216, Note_on_c, 6, 67, 96
8, 41472, Note_off_c, 6, 67, 0
8, 41472, Note_on_c, 6, 69, 96
8, 41472, Note_off_c, 6, 72, 0
8, 41728, Note_off_c, 6, 69, 0
8, 41728, Note_on_c, 6, 70, 96
8, 41984, Note_off_c, 6, 70, 0
8, 41984, Note_on_c, 6, 72, 96
8, 41984, Note_on_c, 6, 72, 96
8, 42240, Note_off_c, 6, 72, 0
8, 42240, Note_on_c, 6, 74, 96
8, 42496, Note_off_c, 6, 74, 0
8, 42496, Note_on_c, 6, 75, 96
8, 42496, Note_off_c, 6, 72, 0
8, 42752, Note_off_c, 6, 75, 0
8, 42752, Note_on_c, 6, 72, 96
8, 43008, Note_off_c, 6, 72, 0
8, 43008, Note_on_c, 6, 74, 96
8, 43008, Note_on_c, 6, 65, 96
8, 43264, Note_off_c, 6, 74, 0
8, 43264, Note_on_c, 6, 72, 96
8, 43520, Note_off_c, 6, 72, 0
8, 43520, Note_on_c, 6, 74, 96
8, 43520, Note_off_c, 6, 65, 0
8, 43776, Note_off_c, 6, 74, 0
8, 43776, Note_on_c, 6, 77, 96
8, 44032, Note_off_c, 6, 77, 0
8, 44032, Note_on_c, 6, 70, 96
8, 44032, Note_on_c, 6, 65, 96
8, 44288, Note_off_c, 6, 70, 0
8, 44288, Note_on_c, 6, 72, 96
8, 44544, Note_off_c, 6, 72, 0
8, 44544, Note_on_c, 6, 74, 96
8, 44544, Note_off_c, 6, 65, 0
8, 44800, Note_off_c, 6, 74, 0
8, 44800, Note_on_c, 6, 75, 96
8, 45056, Note_off_c, 6, 75, 0
8, 45056, Note_on_c, 6, 77, 96
8, 45056, Note_on_c, 6, 65, 96
8, 45312, Note_off_c, 6, 77, 0
8, 45312, Note_on_c, 6, 79, 96
8, 45568, Note_off_c, 6, 79, 0
8, 45568, Note_on_c, 6, 80, 96
8, 45568, Note_off_c, 6, 65, 0
8, 45824, Note_off_c, 6, 80, 0
8, 45824, Note_on_c, 6, 77, 96
8, 46080, Note_off_c, 6, 77, 0
8, 46080, Note_on_c, 6, 82, 96
8, 46080, Note_on_c, 6, 67, 96
8, 46848, Note_off_c, 6, 82, 0
8, 46848, Note_on_c, 6, 80, 96
8, 46848, Note_off_c, 6, 67, 0
8, 46848, Note_on_c, 6, 77, 96
8, 47104, Note_off_c, 6, 80, 0
8, 47104, Note_on_c, 6, 79, 96
8, 47104, Note_off_c, 6, 77, 0
8, 47104, Note_on_c, 6, 75, 96
8, 48128, Note_off_c, 6, 79, 0
8, 48128, Note_on_c, 6, 77, 96
8, 48128, Note_off_c, 6, 75, 0
8, 48128, Note_on_c, 6, 74, 96
8, 49152, Note_off_c, 6, 77, 0
8, 49152, Note_off_c, 6, 74, 0
8, 49152, Note_on_c, 6, 75, 96
8, 49152, Note_on_c, 6, 70, 96
8, 49920, Note_off_c, 6, 75, 0
8, 49920, Note_on_c, 6, 63, 96
8, 49920, Note_off_c, 6, 70, 0
8, 49920, Note_on_c, 6, 58, 96
8, 50176, Note_off_c, 6, 63, 0
8, 50176, Note_on_c, 6, 63, 96
8, 50176, Note_off_c, 6, 58, 0
8, 50176, Note_on_c, 6, 58, 96
8, 50944, Note_off_c, 6, 63, 0
8, 50944, Note_on_c, 6, 63, 96
8, 50944, Note_off_c, 6, 58, 0
8, 50944, Note_on_c, 6, 58, 96
8, 51200, Note_off_c, 6, 63, 0
8, 51200, Note_on_c, 6, 63, 96
8, 51200, Note_off_c, 6, 58, 0
8, 51200, Note_on_c, 6, 58, 96
8, 51968, Note_off_c, 6, 63, 0
8, 51968, Note_on_c, 6, 63, 96
8, 51968, Note_off_c, 6, 58, 0
8, 51968, Note_on_c, 6, 58, 96
8, 52224, Note_off_c, 6, 63, 0
8, 52224, Note_off_c, 6, 58, 0
8, 52224, Note_on_c, 6, 63, 96
8, 52224, Note_on_c, 6, 60, 96
8, 54272, Note_off_c, 6, 63, 0
8, 54272, Note_off_c, 6, 60, 0
8, 55808, Note_on_c, 6, 58, 96
8, 56064, Note_off_c, 6, 58, 0
8, 56064, Note_on_c, 6, 60, 96
8, 56320, Note_off_c, 6, 60, 0
8, 56320, Note_on_c, 6, 62, 96
8, 56576, Note_off_c, 6, 62, 0
8, 56576, Note_on_c, 6, 63, 96
8, 56832, Note_off_c, 6, 63, 0
8, 56832, Note_on_c, 6, 65, 96
8, 57600, Note_off_c, 6, 65, 0
8, 57600, Note_on_c, 6, 67, 96
8, 57856, Note_off_c, 6, 67, 0
8, 57856, Note_on_c, 6, 68, 96
8, 58112, Note_off_c, 6, 68, 0
8, 58112, Note_on_c, 6, 65, 96
8, 58368, Note_off_c, 6, 65, 0
8, 58368, Note_on_c, 6, 67, 96
8, 59392, Note_off_c, 6, 67, 0
8, 61952, Note_on_c, 6, 70, 96
8, 62208, Note_off_c, 6, 70, 0
8, 62208, Note_on_c, 6, 72, 96
8, 62464, Note_off_c, 6, 72, 0
8, 62464, Note_on_c, 6, 74, 96
8, 62720, Note_off_c, 6, 74, 0
8, 62720, Note_on_c, 6, 75, 96
8, 62976, Note_off_c, 6, 75, 0
8, 62976, Note_on_c, 6, 77, 96
8, 63744, Note_off_c, 6, 77, 0
8, 63744, Note_on_c, 6, 79, 96
8, 64000, Note_off_c, 6, 79, 0
8, 64000, Note_on_c, 6, 80, 96
8, 64256, Note_off_c, 6, 80, 0
8, 64256, Note_on_c, 6, 77, 96
8, 64512, Note_off_c, 6, 77, 0
8, 64512, Note_on_c, 6, 79, 96
8, 65536, Note_off_c, 6, 79, 0
8, 68096, Note_on_c, 6, 72, 96
8, 68352, Note_off_c, 6, 72, 0
8, 68352, Note_on_c, 6, 74, 96
8, 68608, Note_off_c, 6, 74, 0
8, 68608, Note_on_c, 6, 75, 96
8, 68864, Note_off_c, 6, 75, 0
8, 68864, Note_on_c, 6, 77, 96
8, 69120, Note_off_c, 6, 77, 0
8, 69120, Note_on_c, 6, 79, 96
8, 69888, Note_off_c, 6, 79, 0
8, 69888, Note_on_c, 6, 81, 96
8, 70144, Note_off_c, 6, 81, 0
8, 70144, Note_on_c, 6, 82, 96
8, 70400, Note_off_c, 6, 82, 0
8, 70400, Note_on_c, 6, 79, 96
8, 70656, Note_off_c, 6, 79, 0
8, 70656, Note_on_c, 6, 84, 96
8, 70912, Note_off_c, 6, 84, 0
8, 70912, Note_on_c, 6, 82, 96
8, 71168, Note_off_c, 6, 82, 0
8, 71168, Note_on_c, 6, 84, 96
8, 71424, Note_off_c, 6, 84, 0
8, 71424, Note_on_c, 6, 86, 96
8, 71680, Note_off_c, 6, 86, 0
8, 71680, Note_on_c, 6, 84, 96
8, 71936, Note_off_c, 6, 84, 0
8, 71936, Note_on_c, 6, 82, 96
8, 72192, Note_off_c, 6, 82, 0
8, 72192, Note_on_c, 6, 81, 96
8, 72448, Note_off_c, 6, 81, 0
8, 72448, Note_on_c, 6, 79, 96
8, 72704, Note_off_c, 6, 79, 0
8, 72704, Note_on_c, 6, 77, 96
8, 72960, Note_off_c, 6, 77, 0
8, 72960, Note_on_c, 6, 75, 96
8, 73216, Note_off_c, 6, 75, 0
8, 73216, Note_on_c, 6, 74, 96
8, 73472, Note_off_c, 6, 74, 0
8, 73472, Note_on_c, 6, 72, 96
8, 73728, Note_off_c, 6, 72, 0
8, 73728, Note_on_c, 6, 74, 96
8, 73984, Note_off_c, 6, 74, 0
8, 73984, Note_on_c, 6, 75, 96
8, 74240, Note_off_c, 6, 75, 0
8, 74240, Note_on_c, 6, 74, 96
8, 74496, Note_off_c, 6, 74, 0
8, 74496, Note_on_c, 6, 72, 96
8, 74752, Note_off_c, 6, 72, 0
8, 74752, Note_on_c, 6, 70, 96
8, 75008, Note_off_c, 6, 70, 0
8, 75008, Note_on_c, 6, 82, 96
8, 75264, Note_off_c, 6, 82, 0
8, 75264, Note_on_c, 6, 81, 96
8, 75520, Note_off_c, 6, 81, 0
8, 75520, Note_on_c, 6, 79, 96
8, 75776, Note_off_c, 6, 79, 0
8, 75776, Note_on_c, 6, 77, 96
8, 76032, Note_off_c, 6, 77, 0
8, 76032, Note_on_c, 6, 75, 96
8, 76288, Note_off_c, 6, 75, 0
8, 76288, Note_on_c, 6, 74, 96
8, 76544, Note_off_c, 6, 74, 0
8, 76544, Note_on_c, 6, 72, 96
8, 76800, Note_off_c, 6, 72, 0
8, 76800, Note_on_c, 6, 70, 96
8, 76800, Note_on_c, 6, 67, 96
8, 77568, Note_off_c, 6, 70, 0
8, 77568, Note_on_c, 6, 70, 96
8, 77568, Note_off_c, 6, 67, 0
8, 77568, Note_on_c, 6, 67, 96
8, 77824, Note_off_c, 6, 70, 0
8, 77824, Note_on_c, 6, 70, 96
8, 77824, Note_off_c, 6, 67, 0
8, 77824, Note_on_c, 6, 67, 96
8, 78592, Note_off_c, 6, 70, 0
8, 78592, Note_on_c, 6, 70, 96
8, 78592, Note_off_c, 6, 67, 0
8, 78592, Note_on_c, 6, 67, 96
8, 78848, Note_off_c, 6, 70, 0
8, 78848, Note_on_c, 6, 70, 96
8, 78848, Note_off_c, 6, 67, 0
8, 78848, Note_on_c, 6, 67, 96
8, 79616, Note_off_c, 6, 70, 0
8, 79616, Note_on_c, 6, 70, 96
8, 79616, Note_off_c, 6, 67, 0
8, 79616, Note_on_c, 6, 67, 96
8, 79872, Note_off_c, 6, 70, 0
8, 79872, Note_off_c, 6, 67, 0
8, 79872, Note_on_c, 6, 70, 96
8, 79872, Note_on_c, 6, 67, 96
8, 81920, Note_off_c, 6, 70, 0
8, 81920, Note_off_c, 6, 67, 0
8, 82944, Note_on_c, 6, 75, 96
8, 82944, Note_on_c, 6, 69, 96
8, 83712, Note_off_c, 6, 75, 0
8, 83712, Note_on_c, 6, 75, 96
8, 83712, Note_off_c, 6, 69, 0
8, 83712, Note_on_c, 6, 69, 96
8, 83968, Note_off_c, 6, 75, 0
8, 83968, Note_on_c, 6, 75, 96
8, 83968, Note_off_c, 6, 69, 0
8, 83968, Note_on_c, 6, 72, 96
8, 84736, Note_off_c, 6, 75, 0
8, 84736, Note_on_c, 6, 75, 96
8, 84736, Note_off_c, 6, 72, 0
8, 84736, Note_on_c, 6, 72, 96
8, 84992, Note_off_c, 6, 75, 0
8, 84992, Note_on_c, 6, 75, 96
8, 84992, Note_off_c, 6, 72, 0
8, 84992, Note_on_c, 6, 72, 96
8, 85760, Note_off_c, 6, 75, 0
8, 85760, Note_on_c, 6, 75, 96
8, 85760, Note_off_c, 6, 72, 0
8, 85760, Note_on_c, 6, 72, 96
8, 86016, Note_off_c, 6, 75, 0
8, 86016, Note_off_c, 6, 72, 0
8, 86016, Note_on_c, 6, 74, 96
8, 86016, Note_on_c, 6, 70, 96
8, 88064, Note_off_c, 6, 74, 0
8, 88064, Note_off_c, 6, 70, 0
8, 89600, Note_on_c, 6, 75, 96
8, 89856, Note_off_c, 6, 75, 0
8, 89856, Note_on_c, 6, 74, 96
8, 90112, Note_off_c, 6, 74, 0
8, 90112, Note_on_c, 6, 75, 96
8, 90368, Note_off_c, 6, 75, 0
8, 90368, Note_on_c, 6, 77, 96
8, 90624, Note_off_c, 6, 77, 0
8, 90624, Note_on_c, 6, 79, 96
8, 91392, Note_off_c, 6, 79, 0
8, 91392, Note_on_c, 6, 80, 96
8, 91648, Note_off_c, 6, 80, 0
8, 91648, Note_on_c, 6, 82, 96
8, 91904, Note_off_c, 6, 82, 0
8, 91904, Note_on_c, 6, 80, 96
8, 92160, Note_off_c, 6, 80, 0
8, 92160, Note_on_c, 6, 82, 96
8, 95744, Note_on_c, 6, 70, 96
8, 96000, Note_off_c, 6, 70, 0
8, 96000, Note_on_c, 6, 68, 96
8, 96256, Note_off_c, 6, 68, 0
8, 96256, Note_on_c, 6, 67, 96
8, 96512, Note_off_c, 6, 67, 0
8, 96512, Note_on_c, 6, 65, 96
8, 96768, Note_off_c, 6, 65, 0
8, 96768, Note_on_c, 6, 63, 96
8, 97536, Note_off_c, 6, 63, 0
8, 97536, Note_on_c, 6, 62, 96
8, 97792, Note_off_c, 6, 62, 0
8, 97792, Note_on_c, 6, 60, 96
8, 98048, Note_off_c, 6, 60, 0
8, 98048, Note_on_c, 6, 58, 96
8, 98304, Note_off_c, 6, 58, 0
8, 98304, Note_on_c, 6, 70, 96
8, 98816, Note_off_c, 6, 82, 0
8, 98816, Note_off_c, 6, 70, 0
8, 101888, Note_on_c, 6, 65, 96
8, 102912, Note_off_c, 6, 65, 0
8, 102912, Note_on_c, 6, 67, 96
8, 103168, Note_off_c, 6, 67, 0
8, 103168, Note_on_c, 6, 69, 96
8, 103424, Note_off_c, 6, 69, 0
8, 103424, Note_on_c, 6, 70, 96
8, 103680, Note_off_c, 6, 70, 0
8, 103680, Note_on_c, 6, 72, 96
8, 103936, Note_off_c, 6, 72, 0
8, 103936, Note_on_c, 6, 74, 96
8, 104192, Note_off_c, 6, 74, 0
8, 104192, Note_on_c, 6, 70, 96
8, 104448, Note_off_c, 6, 70, 0
8, 104448, Note_on_c, 6, 75, 96
8, 104704, Note_off_c, 6, 75, 0
8, 104704, Note_on_c, 6, 74, 96
8, 104960, Note_off_c, 6, 74, 0
8, 104960, Note_on_c, 6, 72, 96
8, 105216, Note_off_c, 6, 72, 0
8, 105216, Note_on_c, 6, 74, 96
8, 105472, Note_off_c, 6, 74, 0
8, 105472, Note_on_c, 6, 75, 96
8, 105984, Note_off_c, 6, 75, 0
8, 105984, Note_on_c, 6, 77, 96
8, 106240, Note_off_c, 6, 77, 0
8, 106240, Note_on_c, 6, 79, 96
8, 106496, Note_off_c, 6, 79, 0
8, 106496, Note_on_c, 6, 81, 96
8, 106752, Note_off_c, 6, 81, 0
8, 106752, Note_on_c, 6, 82, 96
8, 107008, Note_off_c, 6, 82, 0
8, 107008, Note_on_c, 6, 84, 96
8, 107264, Note_off_c, 6, 84, 0
8, 107264, Note_on_c, 6, 81, 96
8, 107520, Note_off_c, 6, 81, 0
8, 107520, Note_on_c, 6, 77, 96
8, 107776, Note_off_c, 6, 77, 0
8, 107776, Note_on_c, 6, 75, 96
8, 108032, Note_off_c, 6, 75, 0
8, 108032, Note_on_c, 6, 74, 96
8, 108800, Note_off_c, 6, 74, 0
8, 108800, Note_on_c, 6, 72, 96
8, 109056, Note_off_c, 6, 72, 0
8, 109056, Note_on_c, 6, 70, 96
8, 109824, Note_off_c, 6, 70, 0
8, 109824, Note_on_c, 6, 69, 96
8, 110080, Note_off_c, 6, 69, 0
8, 110080, Note_on_c, 6, 67, 96
8, 110336, Note_off_c, 6, 67, 0
8, 110336, Note_on_c, 6, 65, 96
8, 110592, Note_off_c, 6, 65, 0
8, 110592, Note_on_c, 6, 63, 96
8, 111104, Note_off_c, 6, 63, 0
8, 113664, Note_on_c, 6, 70, 96
8, 113664, Note_on_c, 6, 65, 96
8, 113920, Note_off_c, 6, 70, 0
8, 113920, Note_on_c, 6, 72, 96
8, 114176, Note_off_c, 6, 72, 0
8, 114176, Note_on_c, 6, 74, 96
8, 114176, Note_off_c, 6, 65, 0
8, 114688, Note_on_c, 6, 65, 96
8, 114944, Note_off_c, 6, 74, 0
8, 114944, Note_on_c, 6, 75, 96
8, 115200, Note_off_c, 6, 75, 0
8, 115200, Note_on_c, 6, 77, 96
8, 115200, Note_off_c, 6, 65, 0
8, 115712, Note_on_c, 6, 70, 96
8, 115968, Note_off_c, 6, 77, 0
8, 115968, Note_on_c, 6, 79, 96
8, 116224, Note_off_c, 6, 79, 0
8, 116224, Note_on_c, 6, 80, 96
8, 116224, Note_off_c, 6, 70, 0
8, 116480, Note_off_c, 6, 80, 0
8, 116480, Note_on_c, 6, 77, 96
8, 116736, Note_off_c, 6, 77, 0
8, 116736, Note_on_c, 6, 79, 96
8, 116736, Note_on_c, 6, 70, 96
8, 116992, Note_off_c, 6, 79, 0
8, 116992, Note_on_c, 6, 77, 96
8, 117248, Note_off_c, 6, 77, 0
8, 117248, Note_on_c, 6, 75, 96
8, 117248, Note_off_c, 6, 70, 0
8, 117504, Note_off_c, 6, 75, 0
8, 117504, Note_on_c, 6, 74, 96
8, 117760, Note_off_c, 6, 74, 0
8, 117760, Note_on_c, 6, 75, 96
8, 118272, Note_off_c, 6, 75, 0
8, 119808, Note_on_c, 6, 72, 96
8, 119808, Note_on_c, 6, 67, 96
8, 120064, Note_off_c, 6, 72, 0
8, 120064, Note_on_c, 6, 74, 96
8, 120320, Note_off_c, 6, 74, 0
8, 120320, Note_on_c, 6, 76, 96
8, 120320, Note_off_c, 6, 67, 0
8, 120832, Note_on_c, 6, 67, 96
8, 121088, Note_off_c, 6, 76, 0
8, 121088, Note_on_c, 6, 77, 96
8, 121344, Note_off_c, 6, 77, 0
8, 121344, Note_on_c, 6, 79, 96
8, 121344, Note_off_c, 6, 67, 0
8, 121856, Note_on_c, 6, 72, 96
8, 122112, Note_off_c, 6, 79, 0
8, 122112, Note_on_c, 6, 80, 96
8, 122368, Note_off_c, 6, 80, 0
8, 122368, Note_on_c, 6, 82, 96
8, 122368, Note_off_c, 6, 72, 0
8, 122624, Note_off_c, 6, 82, 0
8, 122624, Note_on_c, 6, 79, 96
8, 122880, Note_off_c, 6, 79, 0
8, 122880, Note_on_c, 6, 80, 96
8, 122880, Note_on_c, 6, 72, 96
8, 123392, Note_off_c, 6, 72, 0
8, 125952, Note_on_c, 6, 74, 96
8, 126208, Note_off_c, 6, 80, 0
8, 126208, Note_on_c, 6, 70, 96
8, 126464, Note_off_c, 6, 70, 0
8, 126464, Note_on_c, 6, 69, 96
8, 126464, Note_off_c, 6, 74, 0
8, 126720, Note_off_c, 6, 69, 0
8, 126720, Note_on_c, 6, 70, 96
8, 126976, Note_off_c, 6, 70, 0
8, 126976, Note_on_c, 6, 62, 96
8, 126976, Note_on_c, 6, 77, 96
8, 127232, Note_off_c, 6, 62, 0
8, 127232, Note_on_c, 6, 70, 96
8, 127488, Note_off_c, 6, 70, 0
8, 127488, Note_on_c, 6, 69, 96
8, 127488, Note_off_c, 6, 77, 0
8, 127744, Note_off_c, 6, 69, 0
8, 127744, Note_on_c, 6, 70, 96
8, 128000, Note_off_c, 6, 70, 0
8, 128000, Note_on_c, 6, 80, 96
8, 128000, Note_on_c, 6, 74, 96
8, 128256, Note_off_c, 6, 80, 0
8, 128256, Note_on_c, 6, 70, 96
8, 128512, Note_off_c, 6, 70, 0
8, 128512, Note_on_c, 6, 69, 96
8, 128512, Note_off_c, 6, 74, 0
8, 128768, Note_off_c, 6, 69, 0
8, 128768, Note_on_c, 6, 70, 96
8, 129024, Note_off_c, 6, 70, 0
8, 129024, Note_on_c, 6, 79, 96
8, 129024, Note_on_c, 6, 70, 96
8, 129280, Note_off_c, 6, 79, 0
8, 129280, Note_on_c, 6, 67, 96
8, 129536, Note_off_c, 6, 67, 0
8, 129536, Note_on_c, 6, 65, 96
8, 129536, Note_off_c, 6, 70, 0
8, 129792, Note_off_c, 6, 65, 0
8, 129792, Note_on_c, 6, 67, 96
8, 130048, Note_off_c, 6, 67, 0
8, 130048, Note_on_c, 6, 63, 96
8, 130304, Note_off_c, 6, 63, 0
8, 130304, Note_on_c, 6, 67, 96
8, 130560, Note_off_c, 6, 67, 0
8, 130560, Note_on_c, 6, 65, 96
8, 130816, Note_off_c, 6, 65, 0
8, 130816, Note_on_c, 6, 67, 96
8, 131072, Note_off_c, 6, 67, 0
8, 131072, Note_on_c, 6, 70, 96
8, 131328, Note_off_c, 6, 70, 0
8, 131328, Note_on_c, 6, 67, 96
8, 131584, Note_off_c, 6, 67, 0
8, 131584, Note_on_c, 6, 65, 96
8, 131840, Note_off_c, 6, 65, 0
8, 131840, Note_on_c, 6, 67, 96
8, 132096, Note_off_c, 6, 67, 0
8, 132096, Note_on_c, 6, 63, 96
8, 132352, Note_off_c, 6, 63, 0
8, 132352, Note_on_c, 6, 75, 96
8, 132608, Note_off_c, 6, 75, 0
8, 132608, Note_on_c, 6, 74, 96
8, 132864, Note_off_c, 6, 74, 0
8, 132864, Note_on_c, 6, 75, 96
8, 133120, Note_off_c, 6, 75, 0
8, 133120, Note_on_c, 6, 72, 96
8, 133376, Note_off_c, 6, 72, 0
8, 133376, Note_on_c, 6, 75, 96
8, 133632, Note_off_c, 6, 75, 0
8, 133632, Note_on_c, 6, 74, 96
8, 133888, Note_off_c, 6, 74, 0
8, 133888, Note_on_c, 6, 75, 96
8, 134144, Note_off_c, 6, 75, 0
8, 134144, Note_on_c, 6, 79, 96
8, 134400, Note_off_c, 6, 79, 0
8, 134400, Note_on_c, 6, 75, 96
8, 134656, Note_off_c, 6, 75, 0
8, 134656, Note_on_c, 6, 74, 96
8, 134912, Note_off_c, 6, 74, 0
8, 134912, Note_on_c, 6, 75, 96
8, 135168, Note_off_c, 6, 75, 0
8, 135168, Note_on_c, 6, 70, 96
8, 135680, Note_off_c, 6, 70, 0
8, 141312, Note_on_c, 6, 63, 96
8, 141312, Note_on_c, 6, 58, 96
8, 142080, Note_off_c, 6, 63, 0
8, 142080, Note_on_c, 6, 63, 96
8, 142080, Note_off_c, 6, 58, 0
8, 142080, Note_on_c, 6, 58, 96
8, 142336, Note_off_c, 6, 63, 0
8, 142336, Note_on_c, 6, 63, 96
8, 142336, Note_off_c, 6, 58, 0
8, 142336, Note_on_c, 6, 60, 96
8, 143104, Note_off_c, 6, 63, 0
8, 143104, Note_on_c, 6, 63, 96
8, 143104, Note_off_c, 6, 60, 0
8, 143104, Note_on_c, 6, 60, 96
8, 143360, Note_off_c, 6, 63, 0
8, 143360, Note_on_c, 6, 63, 96
8, 143360, Note_off_c, 6, 60, 0
8, 143360, Note_on_c, 6, 55, 96
8, 144128, Note_off_c, 6, 63, 0
8, 144128, Note_on_c, 6, 63, 96
8, 144128, Note_off_c, 6, 55, 0
8, 144128, Note_on_c, 6, 55, 96
8, 144384, Note_off_c, 6, 63, 0
8, 144384, Note_off_c, 6, 55, 0
8, 144384, Note_on_c, 6, 63, 96
8, 144384, Note_on_c, 6, 60, 96
8, 146432, Note_off_c, 6, 63, 0
8, 146432, Note_off_c, 6, 60, 0
8, 147456, Note_on_c, 6, 68, 96
8, 147456, Note_on_c, 6, 62, 96
8, 148224, Note_off_c, 6, 68, 0
8, 148224, Note_on_c, 6, 68, 96
8, 148224, Note_off_c, 6, 62, 0
8, 148224, Note_on_c, 6, 62, 96
8, 148480, Note_off_c, 6, 68, 0
8, 148480, Note_on_c, 6, 68, 96
8, 148480, Note_off_c, 6, 62, 0
8, 148480, Note_on_c, 6, 62, 96
8, 149248, Note_off_c, 6, 68, 0
8, 149248, Note_on_c, 6, 68, 96
8, 149248, Note_off_c, 6, 62, 0
8, 149248, Note_on_c, 6, 62, 96
8, 149504, Note_off_c, 6, 68, 0
8, 149504, Note_on_c, 6, 68, 96
8, 149504, Note_off_c, 6, 62, 0
8, 149504, Note_on_c, 6, 62, 96
8, 150272, Note_off_c, 6, 68, 0
8, 150272, Note_on_c, 6, 68, 96
8, 150272, Note_off_c, 6, 62, 0
8, 150272, Note_on_c, 6, 62, 96
8, 150528, Note_off_c, 6, 68, 0
8, 150528, Note_off_c, 6, 62, 0
8, 150528, Note_on_c, 6, 67, 96
8, 150528, Note_on_c, 6, 58, 96
8, 152576, Note_off_c, 6, 67, 0
8, 152576, Note_off_c, 6, 58, 0
8, 153600, Note_on_c, 6, 63, 96
8, 153600, Note_on_c, 6, 58, 96
8, 153856, Note_off_c, 6, 63, 0
8, 153856, Note_on_c, 6, 65, 96
8, 154112, Note_off_c, 6, 65, 0
8, 154112, Note_on_c, 6, 67, 96
8, 154112, Note_off_c, 6, 58, 0
8, 154624, Note_on_c, 6, 63, 96
8, 154880, Note_off_c, 6, 67, 0
8, 154880, Note_on_c, 6, 68, 96
8, 155136, Note_off_c, 6, 68, 0
8, 155136, Note_on_c, 6, 70, 96
8, 155136, Note_off_c, 6, 63, 0
8, 155648, Note_on_c, 6, 63, 96
8, 155904, Note_off_c, 6, 70, 0
8, 155904, Note_on_c, 6, 72, 96
8, 156160, Note_off_c, 6, 72, 0
8, 156160, Note_on_c, 6, 73, 96
8, 156160, Note_off_c, 6, 63, 0
8, 156416, Note_off_c, 6, 73, 0
8, 156416, Note_on_c, 6, 70, 96
8, 156672, Note_off_c, 6, 70, 0
8, 156672, Note_on_c, 6, 75, 96
8, 156672, Note_on_c, 6, 63, 96
8, 156928, Note_off_c, 6, 75, 0
8, 156928, Note_on_c, 6, 77, 96
8, 157184, Note_off_c, 6, 77, 0
8, 157184, Note_on_c, 6, 75, 96
8, 157184, Note_off_c, 6, 63, 0
8, 157440, Note_off_c, 6, 75, 0
8, 157440, Note_on_c, 6, 73, 96
8, 157696, Note_off_c, 6, 73, 0
8, 157696, Note_on_c, 6, 72, 96
8, 157696, Note_on_c, 6, 63, 96
8, 157952, Note_off_c, 6, 72, 0
8, 157952, Note_on_c, 6, 73, 96
8, 158208, Note_off_c, 6, 73, 0
8, 158208, Note_on_c, 6, 72, 96
8, 158208, Note_off_c, 6, 63, 0
8, 158464, Note_off_c, 6, 72, 0
8, 158464, Note_on_c, 6, 70, 96
8, 158720, Note_off_c, 6, 70, 0
8, 158720, Note_on_c, 6, 68, 96
8, 158720, Note_on_c, 6, 60, 96
8, 158976, Note_off_c, 6, 68, 0
8, 158976, Note_on_c, 6, 65, 96
8, 159232, Note_off_c, 6, 65, 0
8, 159232, Note_on_c, 6, 63, 96
8, 159232, Note_off_c, 6, 60, 0
8, 159488, Note_off_c, 6, 63, 0
8, 159488, Note_on_c, 6, 62, 96
8, 159744, Note_off_c, 6, 62, 0
8, 159744, Note_on_c, 6, 63, 96
8, 159744, Note_on_c, 6, 58, 96
8, 160512, Note_off_c, 6, 63, 0
8, 160512, Note_on_c, 6, 63, 96
8, 160512, Note_off_c, 6, 58, 0
8, 160512, Note_on_c, 6, 58, 96
8, 160768, Note_off_c, 6, 63, 0
8, 160768, Note_on_c, 6, 63, 96
8, 160768, Note_off_c, 6, 58, 0
8, 160768, Note_on_c, 6, 58, 96
8, 161536, Note_off_c, 6, 63, 0
8, 161536, Note_on_c, 6, 63, 96
8, 161536, Note_off_c, 6, 58, 0
8, 161536, Note_on_c, 6, 58, 96
8, 161792, Note_off_c, 6, 63, 0
8, 161792, Note_on_c, 6, 63, 96
8, 161792, Note_off_c, 6, 58, 0
8, 161792, Note_on_c, 6, 58, 96
8, 162560, Note_off_c, 6, 63, 0
8, 162560, Note_on_c, 6, 63, 96
8, 162560, Note_off_c, 6, 58, 0
8, 162560, Note_on_c, 6, 58, 96
8, 162816, Note_off_c, 6, 63, 0
8, 162816, Note_off_c, 6, 58, 0
8, 162816, Note_on_c, 6, 63, 96
8, 162816, Note_on_c, 6, 60, 96
8, 164864, Note_off_c, 6, 63, 0
8, 164864, Note_off_c, 6, 60, 0
8, 165888, Note_on_c, 6, 65, 96
8, 165888, Note_on_c, 6, 60, 96
8, 166656, Note_off_c, 6, 65, 0
8, 166656, Note_on_c, 6, 65, 96
8, 166656, Note_off_c, 6, 60, 0
8, 166656, Note_on_c, 6, 60, 96
8, 166912, Note_off_c, 6, 65, 0
8, 166912, Note_on_c, 6, 65, 96
8, 166912, Note_off_c, 6, 60, 0
8, 166912, Note_on_c, 6, 63, 96
8, 167680, Note_off_c, 6, 65, 0
8, 167680, Note_on_c, 6, 65, 96
8, 167680, Note_off_c, 6, 63, 0
8, 167680, Note_on_c, 6, 63, 96
8, 167936, Note_off_c, 6, 65, 0
8, 167936, Note_on_c, 6, 65, 96
8, 167936, Note_off_c, 6, 63, 0
8, 167936, Note_on_c, 6, 63, 96
8, 168704, Note_off_c, 6, 65, 0
8, 168704, Note_on_c, 6, 65, 96
8, 168704, Note_off_c, 6, 63, 0
8, 168704, Note_on_c, 6, 63, 96
8, 168960, Note_off_c, 6, 65, 0
8, 168960, Note_off_c, 6, 63, 0
8, 168960, Note_on_c, 6, 65, 96
8, 168960, Note_on_c, 6, 62, 96
8, 171008, Note_off_c, 6, 65, 0
8, 171008, Note_off_c, 6, 62, 0
8, 172032, Note_on_c, 6, 63, 96
8, 172032, Note_on_c, 6, 58, 96
8, 172288, Note_off_c, 6, 63, 0
8, 172288, Note_on_c, 6, 65, 96
8, 172544, Note_off_c, 6, 65, 0
8, 172544, Note_on_c, 6, 67, 96
8, 172544, Note_off_c, 6, 58, 0
8, 173056, Note_on_c, 6, 63, 96
8, 173312, Note_off_c, 6, 67, 0
8, 173312, Note_on_c, 6, 68, 96
8, 173568, Note_off_c, 6, 68, 0
8, 173568, Note_on_c, 6, 70, 96
8, 173568, Note_off_c, 6, 63, 0
8, 174080, Note_on_c, 6, 63, 96
8, 174336, Note_off_c, 6, 70, 0
8, 174336, Note_on_c, 6, 67, 96
8, 174592, Note_off_c, 6, 67, 0
8, 174592, Note_on_c, 6, 65, 96
8, 174592, Note_off_c, 6, 63, 0
8, 174848, Note_off_c, 6, 65, 0
8, 174848, Note_on_c, 6, 63, 96
8, 175104, Note_off_c, 6, 63, 0
8, 175104, Note_on_c, 6, 65, 96
8, 175104, Note_on_c, 6, 62, 96
8, 175360, Note_off_c, 6, 65, 0
8, 175360, Note_on_c, 6, 70, 96
8, 175616, Note_off_c, 6, 70, 0
8, 175616, Note_on_c, 6, 65, 96
8, 175616, Note_off_c, 6, 62, 0
8, 175872, Note_off_c, 6, 65, 0
8, 175872, Note_on_c, 6, 62, 96
8, 176128, Note_off_c, 6, 62, 0
8, 176128, Note_on_c, 6, 58, 96
8, 176640, Note_off_c, 6, 58, 0
8, 178176, Note_on_c, 6, 65, 96
8, 178176, Note_on_c, 6, 60, 96
8, 178432, Note_off_c, 6, 65, 0
8, 178432, Note_on_c, 6, 67, 96
8, 178688, Note_off_c, 6, 67, 0
8, 178688, Note_on_c, 6, 68, 96
8, 178688, Note_off_c, 6, 60, 0
8, 179200, Note_on_c, 6, 65, 96
8, 179456, Note_off_c, 6, 68, 0
8, 179456, Note_on_c, 6, 70, 96
8, 179712, Note_off_c, 6, 70, 0
8, 179712, Note_on_c, 6, 72, 96
8, 179712, Note_off_c, 6, 65, 0
8, 180224, Note_on_c, 6, 67, 96
8, 180480, Note_off_c, 6, 72, 0
8, 180480, Note_on_c, 6, 71, 96
8, 180736, Note_off_c, 6, 71, 0
8, 180736, Note_on_c, 6, 72, 96
8, 180736, Note_off_c, 6, 67, 0
8, 180992, Note_off_c, 6, 72, 0
8, 180992, Note_on_c, 6, 74, 96
8, 181248, Note_off_c, 6, 74, 0
8, 181248, Note_on_c, 6, 75, 96
8, 181248, Note_on_c, 6, 72, 96
8, 181760, Note_off_c, 6, 72, 0
8, 182272, Note_on_c, 6, 67, 96
8, 182784, Note_off_c, 6, 67, 0
8, 183296, Note_on_c, 6, 67, 96
8, 183808, Note_off_c, 6, 67, 0
8, 184320, Note_on_c, 6, 63, 96
8, 184576, Note_off_c, 6, 75, 0
8, 184576, Note_on_c, 6, 58, 96
8, 184832, Note_off_c, 6, 58, 0
8, 184832, Note_on_c, 6, 60, 96
8, 184832, Note_off_c, 6, 63, 0
8, 185088, Note_off_c, 6, 60, 0
8, 185088, Note_on_c, 6, 62, 96
8, 185344, Note_off_c, 6, 62, 0
8, 185344, Note_on_c, 6, 63, 96
8, 185344, Note_on_c, 6, 75, 96
8, 185600, Note_off_c, 6, 63, 0
8, 185600, Note_on_c, 6, 65, 96
8, 185856, Note_off_c, 6, 65, 0
8, 185856, Note_on_c, 6, 67, 96
8, 185856, Note_off_c, 6, 75, 0
8, 186112, Note_off_c, 6, 67, 0
8, 186112, Note_on_c, 6, 68, 96
8, 186368, Note_off_c, 6, 68, 0
8, 186368, Note_on_c, 6, 70, 96
8, 186368, Note_on_c, 6, 75, 96
8, 186624, Note_off_c, 6, 70, 0
8, 186624, Note_on_c, 6, 72, 96
8, 186880, Note_off_c, 6, 72, 0
8, 186880, Note_on_c, 6, 73, 96
8, 186880, Note_off_c, 6, 75, 0
8, 187136, Note_off_c, 6, 73, 0
8, 187136, Note_on_c, 6, 70, 96
8, 187392, Note_off_c, 6, 70, 0
8, 187392, Note_on_c, 6, 72, 96
8, 187392, Note_on_c, 6, 75, 96
8, 187648, Note_off_c, 6, 72, 0
8, 187648, Note_on_c, 6, 60, 96
8, 187904, Note_off_c, 6, 60, 0
8, 187904, Note_on_c, 6, 62, 96
8, 187904, Note_off_c, 6, 75, 0
8, 188160, Note_off_c, 6, 62, 0
8, 188160, Note_on_c, 6, 63, 96
8, 188416, Note_off_c, 6, 63, 0
8, 188416, Note_on_c, 6, 65, 96
8, 188416, Note_on_c, 6, 68, 96
8, 188672, Note_off_c, 6, 65, 0
8, 188672, Note_on_c, 6, 67, 96
8, 188928, Note_off_c, 6, 67, 0
8, 188928, Note_on_c, 6, 68, 96
8, 188928, Note_off_c, 6, 68, 0
8, 189184, Note_off_c, 6, 68, 0
8, 189184, Note_on_c, 6, 70, 96
8, 189440, Note_off_c, 6, 70, 0
8, 189440, Note_on_c, 6, 72, 96
8, 189440, Note_on_c, 6, 68, 96
8, 189696, Note_off_c, 6, 72, 0
8, 189696, Note_on_c, 6, 74, 96
8, 189952, Note_off_c, 6, 74, 0
8, 189952, Note_on_c, 6, 75, 96
8, 189952, Note_off_c, 6, 68, 0
8, 190208, Note_off_c, 6, 75, 0
8, 190208, Note_on_c, 6, 72, 96
8, 190464, Note_off_c, 6, 72, 0
8, 190464, Note_on_c, 6, 77, 96
8, 190464, Note_on_c, 6, 70, 96
8, 190720, Note_off_c, 6, 77, 0
8, 190720, Note_on_c, 6, 62, 96
8, 190976, Note_off_c, 6, 62, 0
8, 190976, Note_on_c, 6, 63, 96
8, 190976, Note_off_c, 6, 70, 0
8, 191232, Note_off_c, 6, 63, 0
8, 191232, Note_on_c, 6, 65, 96
8, 191488, Note_off_c, 6, 65, 0
8, 191488, Note_on_c, 6, 67, 96
8, 191488, Note_on_c, 6, 70, 96
8, 191744, Note_off_c, 6, 67, 0
8, 191744, Note_on_c, 6, 68, 96
8, 192000, Note_off_c, 6, 68, 0
8, 192000, Note_on_c, 6, 70, 96
8, 192000, Note_off_c, 6, 70, 0
8, 192256, Note_off_c, 6, 70, 0
8, 192256, Note_on_c, 6, 72, 96
8, 192512, Note_off_c, 6, 72, 0
8, 192512, Note_on_c, 6, 74, 96
8, 192512, Note_on_c, 6, 67, 96
8, 192768, Note_off_c, 6, 74, 0
8, 192768, Note_on_c, 6, 75, 96
8, 193024, Note_off_c, 6, 75, 0
8, 193024, Note_on_c, 6, 77, 96
8, 193024, Note_off_c, 6, 67, 0
8, 193280, Note_off_c, 6, 77, 0
8, 193280, Note_on_c, 6, 79, 96
8, 193536, Note_off_c, 6, 79, 0
8, 193536, Note_on_c, 6, 80, 96
8, 193536, Note_on_c, 6, 65, 96
8, 193792, Note_off_c, 6, 80, 0
8, 193792, Note_on_c, 6, 65, 96
8, 194048, Note_off_c, 6, 65, 0
8, 194048, Note_on_c, 6, 67, 96
8, 194048, Note_off_c, 6, 65, 0
8, 194304, Note_off_c, 6, 67, 0
8, 194304, Note_on_c, 6, 68, 96
8, 194560, Note_off_c, 6, 68, 0
8, 194560, Note_on_c, 6, 70, 96
8, 194560, Note_on_c, 6, 77, 96
8, 194816, Note_off_c, 6, 70, 0
8, 194816, Note_on_c, 6, 72, 96
8, 195072, Note_off_c, 6, 72, 0
8, 195072, Note_on_c, 6, 74, 96
8, 195072, Note_off_c, 6, 77, 0
8, 195328, Note_off_c, 6, 74, 0
8, 195328, Note_on_c, 6, 75, 96
8, 195584, Note_off_c, 6, 75, 0
8, 195584, Note_on_c, 6, 77, 96
8, 195584, Note_on_c, 6, 70, 96
8, 195840, Note_off_c, 6, 77, 0
8, 195840, Note_on_c, 6, 79, 96
8, 196096, Note_off_c, 6, 79, 0
8, 196096, Note_on_c, 6, 80, 96
8, 196096, Note_off_c, 6, 70, 0
8, 196352, Note_off_c, 6, 80, 0
8, 196352, Note_on_c, 6, 77, 96
8, 196608, Note_off_c, 6, 77, 0
8, 196608, Note_on_c, 6, 79, 96
8, 196608, Note_on_c, 6, 74, 96
8, 196864, Note_off_c, 6, 79, 0
8, 196864, Note_on_c, 6, 67, 96
8, 197120, Note_off_c, 6, 67, 0
8, 197120, Note_on_c, 6, 69, 96
8, 197120, Note_off_c, 6, 74, 0
8, 197376, Note_off_c, 6, 69, 0
8, 197376, Note_on_c, 6, 71, 96
8, 197632, Note_off_c, 6, 71, 0
8, 197632, Note_on_c, 6, 72, 96
8, 197632, Note_on_c, 6, 67, 96
8, 197888, Note_off_c, 6, 72, 0
8, 197888, Note_on_c, 6, 74, 96
8, 198144, Note_off_c, 6, 74, 0
8, 198144, Note_on_c, 6, 75, 96
8, 198144, Note_off_c, 6, 67, 0
8, 198400, Note_off_c, 6, 75, 0
8, 198400, Note_on_c, 6, 77, 96
8, 198656, Note_off_c, 6, 77, 0
8, 198656, Note_on_c, 6, 79, 96
8, 198656, Note_on_c, 6, 75, 96
8, 198912, Note_off_c, 6, 79, 0
8, 198912, Note_on_c, 6, 81, 96
8, 199168, Note_off_c, 6, 81, 0
8, 199168, Note_on_c, 6, 82, 96
8, 199168, Note_off_c, 6, 75, 0
8, 199424, Note_off_c, 6, 82, 0
8, 199424, Note_on_c, 6, 79, 96
8, 199680, Note_off_c, 6, 79, 0
8, 199680, Note_on_c, 6, 84, 96
8, 199680, Note_on_c, 6, 77, 96
8, 199936, Note_off_c, 6, 84, 0
8, 199936, Note_on_c, 6, 75, 96
8, 200192, Note_off_c, 6, 75, 0
8, 200192, Note_on_c, 6, 74, 96
8, 200192, Note_off_c, 6, 77, 0
8, 200448, Note_off_c, 6, 74, 0
8, 200448, Note_on_c, 6, 75, 96
8, 200704, Note_off_c, 6, 75, 0
8, 200704, Note_on_c, 6, 65, 96
8, 200704, Note_on_c, 6, 72, 96
8, 200960, Note_off_c, 6, 65, 0
8, 200960, Note_on_c, 6, 67, 96
8, 201216, Note_off_c, 6, 67, 0
8, 201216, Note_on_c, 6, 69, 96
8, 201216, Note_off_c, 6, 72, 0
8, 201472, Note_off_c, 6, 69, 0
8, 201472, Note_on_c, 6, 70, 96
8, 201728, Note_off_c, 6, 70, 0
8, 201728, Note_on_c, 6, 72, 96
8, 201728, Note_on_c, 6, 72, 96
8, 201984, Note_off_c, 6, 72, 0
8, 201984, Note_on_c, 6, 74, 96
8, 202240, Note_off_c, 6, 74, 0
8, 202240, Note_on_c, 6, 75, 96
8, 202240, Note_off_c, 6, 72, 0
8, 202496, Note_off_c, 6, 75, 0
8, 202496, Note_on_c, 6, 72, 96
8, 202752, Note_off_c, 6, 72, 0
8, 202752, Note_on_c, 6, 74, 96
8, 202752, Note_on_c, 6, 65, 96
8, 203008, Note_off_c, 6, 74, 0
8, 203008, Note_on_c, 6, 72, 96
8, 203264, Note_off_c, 6, 72, 0
8, 203264, Note_on_c, 6, 74, 96
8, 203264, Note_off_c, 6, 65, 0
8, 203520, Note_off_c, 6, 74, 0
8, 203520, Note_on_c, 6, 77, 96
8, 203776, Note_off_c, 6, 77, 0
8, 203776, Note_on_c, 6, 70, 96
8, 203776, Note_on_c, 6, 65, 96
8, 204032, Note_off_c, 6, 70, 0
8, 204032, Note_on_c, 6, 72, 96
8, 204288, Note_off_c, 6, 72, 0
8, 204288, Note_on_c, 6, 74, 96
8, 204288, Note_off_c, 6, 65, 0
8, 204544, Note_off_c, 6, 74, 0
8, 204544, Note_on_c, 6, 75, 96
8, 204800, Note_off_c, 6, 75, 0
8, 204800, Note_on_c, 6, 77, 96
8, 204800, Note_on_c, 6, 65, 96
8, 205056, Note_off_c, 6, 77, 0
8, 205056, Note_on_c, 6, 79, 96
8, 205312, Note_off_c, 6, 79, 0
8, 205312, Note_on_c, 6, 80, 96
8, 205312, Note_off_c, 6, 65, 0
8, 205568, Note_off_c, 6, 80, 0
8, 205568, Note_on_c, 6, 77, 96
8, 205824, Note_off_c, 6, 77, 0
8, 205824, Note_on_c, 6, 82, 96
8, 205824, Note_on_c, 6, 67, 96
8, 206336, Note_off_c, 6, 67, 0
8, 206336, Note_on_c, 6, 67, 96
8, 206592, Note_off_c, 6, 82, 0
8, 206592, Note_on_c, 6, 80, 96
8, 206592, Note_off_c, 6, 67, 0
8, 206592, Note_on_c, 6, 77, 96
8, 206848, Note_off_c, 6, 80, 0
8, 206848, Note_on_c, 6, 79, 96
8, 206848, Note_off_c, 6, 77, 0
8, 206848, Note_on_c, 6, 75, 96
8, 207872, Note_off_c, 6, 79, 0
8, 207872, Note_on_c, 6, 77, 96
8, 207872, Note_off_c, 6, 75, 0
8, 207872, Note_on_c, 6, 74, 96
8, 208896, Note_off_c, 6, 77, 0
8, 208896, Note_off_c, 6, 74, 0
8, 208896, Note_on_c, 6, 75, 96
8, 208896, Note_on_c, 6, 70, 96
8, 209664, Note_off_c, 6, 75, 0
8, 209664, Note_on_c, 6, 63, 96
8, 209664, Note_off_c, 6, 70, 0
8, 209664, Note_on_c, 6, 58, 96
8, 209920, Note_off_c, 6, 63, 0
8, 209920, Note_on_c, 6, 63, 96
8, 209920, Note_off_c, 6, 58, 0
8, 209920, Note_on_c, 6, 58, 96
8, 210688, Note_off_c, 6, 63, 0
8, 210688, Note_on_c, 6, 63, 96
8, 210688, Note_off_c, 6, 58, 0
8, 210688, Note_on_c, 6, 58, 96
8, 210944, Note_off_c, 6, 63, 0
8, 210944, Note_on_c, 6, 63, 96
8, 210944, Note_off_c, 6, 58, 0
8, 210944, Note_on_c, 6, 58, 96
8, 211712, Note_off_c, 6, 63, 0
8, 211712, Note_on_c, 6, 63, 96
8, 211712, Note_off_c, 6, 58, 0
8, 211712, Note_on_c, 6, 58, 96
8, 211968, Note_off_c, 6, 63, 0
8, 211968, Note_off_c, 6, 58, 0
8, 211968, Note_on_c, 6, 63, 96
8, 211968, Note_on_c, 6, 60, 96
8, 214016, Note_off_c, 6, 63, 0
8, 214016, Note_off_c, 6, 60, 0
8, 215552, Note_on_c, 6, 58, 96
8, 215808, Note_off_c, 6, 58, 0
8, 215808, Note_on_c, 6, 60, 96
8, 216064, Note_off_c, 6, 60, 0
8, 216064, Note_on_c, 6, 62, 96
8, 216320, Note_off_c, 6, 62, 0
8, 216320, Note_on_c, 6, 63, 96
8, 216576, Note_off_c, 6, 63, 0
8, 216576, Note_on_c, 6, 65, 96
8, 217344, Note_off_c, 6, 65, 0
8, 217344, Note_on_c, 6, 67, 96
8, 217600, Note_off_c, 6, 67, 0
8, 217600, Note_on_c, 6, 68, 96
8, 217856, Note_off_c, 6, 68, 0
8, 217856, Note_on_c, 6, 65, 96
8, 218112, Note_off_c, 6, 65, 0
8, 218112, Note_on_c, 6, 67, 96
8, 219136, Note_off_c, 6, 67, 0
8, 221696, Note_on_c, 6, 70, 96
8, 221952, Note_off_c, 6, 70, 0
8, 221952, Note_on_c, 6, 72, 96
8, 222208, Note_off_c, 6, 72, 0
8, 222208, Note_on_c, 6, 74, 96
8, 222464, Note_off_c, 6, 74, 0
8, 222464, Note_on_c, 6, 75, 96
8, 222720, Note_off_c, 6, 75, 0
8, 222720, Note_on_c, 6, 77, 96
8, 223488, Note_off_c, 6, 77, 0
8, 223488, Note_on_c, 6, 79, 96
8, 223744, Note_off_c, 6, 79, 0
8, 223744, Note_on_c, 6, 80, 96
8, 224000, Note_off_c, 6, 80, 0
8, 224000, Note_on_c, 6, 77, 96
8, 224256, Note_off_c, 6, 77, 0
8, 224256, Note_on_c, 6, 79, 96
8, 225280, Note_off_c, 6, 79, 0
8, 227840, Note_on_c, 6, 72, 96
8, 228096, Note_off_c, 6, 72, 0
8, 228096, Note_on_c, 6, 74, 96
8, 228352, Note_off_c, 6, 74, 0
8, 228352, Note_on_c, 6, 75, 96
8, 228608, Note_off_c, 6, 75, 0
8, 228608, Note_on_c, 6, 77, 96
8, 228864, Note_off_c, 6, 77, 0
8, 228864, Note_on_c, 6, 79, 96
8, 229632, Note_off_c, 6, 79, 0
8, 229632, Note_on_c, 6, 81, 96
8, 229888, Note_off_c, 6, 81, 0
8, 229888, Note_on_c, 6, 82, 96
8, 230144, Note_off_c, 6, 82, 0
8, 230144, Note_on_c, 6, 79, 96
8, 230400, Note_off_c, 6, 79, 0
8, 230400, Note_on_c, 6, 84, 96
8, 230656, Note_off_c, 6, 84, 0
8, 230656, Note_on_c, 6, 82, 96
8, 230912, Note_off_c, 6, 82, 0
8, 230912, Note_on_c, 6, 84, 96
8, 231168, Note_off_c, 6, 84, 0
8, 231168, Note_on_c, 6, 86, 96
8, 231424, Note_off_c, 6, 86, 0
8, 231424, Note_on_c, 6, 84, 96
8, 231680, Note_off_c, 6, 84, 0
8, 231680, Note_on_c, 6, 82, 96
8, 231936, Note_off_c, 6, 82, 0
8, 231936, Note_on_c, 6, 81, 96
8, 232192, Note_off_c, 6, 81, 0
8, 232192, Note_on_c, 6, 79, 96
8, 232448, Note_off_c, 6, 79, 0
8, 232448, Note_on_c, 6, 77, 96
8, 232704, Note_off_c, 6, 77, 0
8, 232704, Note_on_c, 6, 75, 96
8, 232960, Note_off_c, 6, 75, 0
8, 232960, Note_on_c, 6, 74, 96
8, 233216, Note_off_c, 6, 74, 0
8, 233216, Note_on_c, 6, 72, 96
8, 233472, Note_off_c, 6, 72, 0
8, 233472, Note_on_c, 6, 74, 96
8, 233728, Note_off_c, 6, 74, 0
8, 233728, Note_on_c, 6, 75, 96
8, 233984, Note_off_c, 6, 75, 0
8, 233984, Note_on_c, 6, 74, 96
8, 234240, Note_off_c, 6, 74, 0
8, 234240, Note_on_c, 6, 72, 96
8, 234496, Note_off_c, 6, 72, 0
8, 234496, Note_on_c, 6, 70, 96
8, 234752, Note_off_c, 6, 70, 0
8, 234752, Note_on_c, 6, 70, 96
8, 235008, Note_off_c, 6, 70, 0
8, 235008, Note_on_c, 6, 69, 96
8, 235264, Note_off_c, 6, 69, 0
8, 235264, Note_on_c, 6, 67, 96
8, 235520, Note_off_c, 6, 67, 0
8, 235520, Note_on_c, 6, 65, 96
8, 235776, Note_off_c, 6, 65, 0
8, 235776, Note_on_c, 6, 63, 96
8, 236032, Note_off_c, 6, 63, 0
8, 236032, Note_on_c, 6, 62, 96
8, 236288, Note_off_c, 6, 62, 0
8, 236288, Note_on_c, 6, 60, 96
8, 236544, Note_off_c, 6, 60, 0
8, 236544, Note_on_c, 6, 58, 96
8, 236544, Note_on_c, 6, 67, 96
8, 237312, Note_off_c, 6, 58, 0
8, 237312, Note_on_c, 6, 70, 96
8, 237312, Note_off_c, 6, 67, 0
8, 237312, Note_on_c, 6, 67, 96
8, 237568, Note_off_c, 6, 70, 0
8, 237568, Note_on_c, 6, 70, 96
8, 237568, Note_off_c, 6, 67, 0
8, 237568, Note_on_c, 6, 67, 96
8, 238336, Note_off_c, 6, 70, 0
8, 238336, Note_on_c, 6, 70, 96
8, 238336, Note_off_c, 6, 67, 0
8, 238336, Note_on_c, 6, 67, 96
8, 238592, Note_off_c, 6, 70, 0
8, 238592, Note_on_c, 6, 70, 96
8, 238592, Note_off_c, 6, 67, 0
8, 238592, Note_on_c, 6, 67, 96
8, 239360, Note_off_c, 6, 70, 0
8, 239360, Note_on_c, 6, 70, 96
8, 239360, Note_off_c, 6, 67, 0
8, 239360, Note_on_c, 6, 67, 96
8, 239616, Note_off_c, 6, 70, 0
8, 239616, Note_off_c, 6, 67, 0
8, 239616, Note_on_c, 6, 70, 96
8, 239616, Note_on_c, 6, 67, 96
8, 241664, Note_off_c, 6, 70, 0
8, 241664, Note_off_c, 6, 67, 0
8, 242688, Note_on_c, 6, 75, 96
8, 242688, Note_on_c, 6, 69, 96
8, 243456, Note_off_c, 6, 75, 0
8, 243456, Note_on_c, 6, 75, 96
8, 243456, Note_off_c, 6, 69, 0
8, 243456, Note_on_c, 6, 69, 96
8, 243712, Note_off_c, 6, 75, 0
8, 243712, Note_on_c, 6, 75, 96
8, 243712, Note_off_c, 6, 69, 0
8, 243712, Note_on_c, 6, 72, 96
8, 244480, Note_off_c, 6, 75, 0
8, 244480, Note_on_c, 6, 75, 96
8, 244480, Note_off_c, 6, 72, 0
8, 244480, Note_on_c, 6, 72, 96
8, 244736, Note_off_c, 6, 75, 0
8, 244736, Note_on_c, 6, 75, 96
8, 244736, Note_off_c, 6, 72, 0
8, 244736, Note_on_c, 6, 72, 96
8, 245504, Note_off_c, 6, 75, 0
8, 245504, Note_on_c, 6, 75, 96
8, 245504, Note_off_c, 6, 72, 0
8, 245504, Note_on_c, 6, 72, 96
8, 245760, Note_off_c, 6, 75, 0
8, 245760, Note_off_c, 6, 72, 0
8, 245760, Note_on_c, 6, 74, 96
8, 245760, Note_on_c, 6, 70, 96
8, 247808, Note_off_c, 6, 74, 0
8, 247808, Note_off_c, 6, 70, 0
8, 249344, Note_on_c, 6, 75, 96
8, 249600, Note_off_c, 6, 75, 0
8, 249600, Note_on_c, 6, 74, 96
8, 249856, Note_off_c, 6, 74, 0
8, 249856, Note_on_c, 6, 75, 96
8, 250112, Note_off_c, 6, 75, 0
8, 250112, Note_on_c, 6, 77, 96
8, 250368, Note_off_c, 6, 77, 0
8, 250368, Note_on_c, 6, 79, 96
8, 251136, Note_off_c, 6, 79, 0
8, 251136, Note_on_c, 6, 80, 96
8, 251392, Note_off_c, 6, 80, 0
8, 251392, Note_on_c, 6, 82, 96
8, 251648, Note_off_c, 6, 82, 0
8, 251648, Note_on_c, 6, 80, 96
8, 251904, Note_off_c, 6, 80, 0
8, 251904, Note_on_c, 6, 82, 96
8, 255488, Note_on_c, 6, 70, 96
8, 255744, Note_off_c, 6, 70, 0
8, 255744, Note_on_c, 6, 68, 96
8, 256000, Note_off_c, 6, 68, 0
8, 256000, Note_on_c, 6, 67, 96
8, 256256, Note_off_c, 6, 67, 0
8, 256256, Note_on_c, 6, 65, 96
8, 256512, Note_off_c, 6, 65, 0
8, 256512, Note_on_c, 6, 63, 96
8, 257280, Note_off_c, 6, 63, 0
8, 257280, Note_on_c, 6, 62, 96
8, 257536, Note_off_c, 6, 62, 0
8, 257536, Note_on_c, 6, 60, 96
8, 257792, Note_off_c, 6, 60, 0
8, 257792, Note_on_c, 6, 58, 96
8, 258048, Note_off_c, 6, 58, 0
8, 258048, Note_on_c, 6, 70, 96
8, 258560, Note_off_c, 6, 82, 0
8, 258560, Note_off_c, 6, 70, 0
8, 261632, Note_on_c, 6, 65, 96
8, 262656, Note_off_c, 6, 65, 0
8, 262656, Note_on_c, 6, 67, 96
8, 262912, Note_off_c, 6, 67, 0
8, 262912, Note_on_c, 6, 69, 96
8, 263168, Note_off_c, 6, 69, 0
8, 263168, Note_on_c, 6, 70, 96
8, 263424, Note_off_c, 6, 70, 0
8, 263424, Note_on_c, 6, 72, 96
8, 263680, Note_off_c, 6, 72, 0
8, 263680, Note_on_c, 6, 74, 96
8, 263936, Note_off_c, 6, 74, 0
8, 263936, Note_on_c, 6, 70, 96
8, 264192, Note_off_c, 6, 70, 0
8, 264192, Note_on_c, 6, 75, 96
8, 264448, Note_off_c, 6, 75, 0
8, 264448, Note_on_c, 6, 74, 96
8, 264704, Note_off_c, 6, 74, 0
8, 264704, Note_on_c, 6, 72, 96
8, 264960, Note_off_c, 6, 72, 0
8, 264960, Note_on_c, 6, 74, 96
8, 265216, Note_off_c, 6, 74, 0
8, 265216, Note_on_c, 6, 75, 96
8, 265728, Note_off_c, 6, 75, 0
8, 265728, Note_on_c, 6, 77, 96
8, 265984, Note_off_c, 6, 77, 0
8, 265984, Note_on_c, 6, 79, 96
8, 266240, Note_off_c, 6, 79, 0
8, 266240, Note_on_c, 6, 81, 96
8, 266496, Note_off_c, 6, 81, 0
8, 266496, Note_on_c, 6, 82, 96
8, 266752, Note_off_c, 6, 82, 0
8, 266752, Note_on_c, 6, 84, 96
8, 267008, Note_off_c, 6, 84, 0
8, 267008, Note_on_c, 6, 81, 96
8, 267264, Note_off_c, 6, 81, 0
8, 267264, Note_on_c, 6, 77, 96
8, 267520, Note_off_c, 6, 77, 0
8, 267520, Note_on_c, 6, 75, 96
8, 267776, Note_off_c, 6, 75, 0
8, 267776, Note_on_c, 6, 74, 96
8, 268544, Note_off_c, 6, 74, 0
8, 268544, Note_on_c, 6, 72, 96
8, 268800, Note_off_c, 6, 72, 0
8, 268800, Note_on_c, 6, 70, 96
8, 269568, Note_off_c, 6, 70, 0
8, 269568, Note_on_c, 6, 69, 96
8, 269824, Note_off_c, 6, 69, 0
8, 269824, Note_on_c, 6, 67, 96
8, 270080, Note_off_c, 6, 67, 0
8, 270080, Note_on_c, 6, 65, 96
8, 270336, Note_off_c, 6, 65, 0
8, 270336, Note_on_c, 6, 63, 96
8, 270848, Note_off_c, 6, 63, 0
8, 273408, Note_on_c, 6, 70, 96
8, 273408, Note_on_c, 6, 65, 96
8, 273664, Note_off_c, 6, 70, 0
8, 273664, Note_on_c, 6, 72, 96
8, 273920, Note_off_c, 6, 72, 0
8, 273920, Note_on_c, 6, 74, 96
8, 273920, Note_off_c, 6, 65, 0
8, 274432, Note_on_c, 6, 65, 96
8, 274688, Note_off_c, 6, 74, 0
8, 274688, Note_on_c, 6, 75, 96
8, 274944, Note_off_c, 6, 75, 0
8, 274944, Note_on_c, 6, 77, 96
8, 274944, Note_off_c, 6, 65, 0
8, 275456, Note_on_c, 6, 70, 96
8, 275712, Note_off_c, 6, 77, 0
8, 275712, Note_on_c, 6, 79, 96
8, 275968, Note_off_c, 6, 79, 0
8, 275968, Note_on_c, 6, 80, 96
8, 275968, Note_off_c, 6, 70, 0
8, 276224, Note_off_c, 6, 80, 0
8, 276224, Note_on_c, 6, 77, 96
8, 276480, Note_off_c, 6, 77, 0
8, 276480, Note_on_c, 6, 79, 96
8, 276480, Note_on_c, 6, 70, 96
8, 276736, Note_off_c, 6, 79, 0
8, 276736, Note_on_c, 6, 77, 96
8, 276992, Note_off_c, 6, 77, 0
8, 276992, Note_on_c, 6, 75, 96
8, 276992, Note_off_c, 6, 70, 0
8, 277248, Note_off_c, 6, 75, 0
8, 277248, Note_on_c, 6, 74, 96
8, 277504, Note_off_c, 6, 74, 0
8, 277504, Note_on_c, 6, 75, 96
8, 278016, Note_off_c, 6, 75, 0
8, 279552, Note_on_c, 6, 72, 96
8, 279552, Note_on_c, 6, 67, 96
8, 279808, Note_off_c, 6, 72, 0
8, 279808, Note_on_c, 6, 74, 96
8, 280064, Note_off_c, 6, 74, 0
8, 280064, Note_on_c, 6, 76, 96
8, 280064, Note_off_c, 6, 67, 0
8, 280576, Note_on_c, 6, 67, 96
8, 280832, Note_off_c, 6, 76, 0
8, 280832, Note_on_c, 6, 77, 96
8, 281088, Note_off_c, 6, 77, 0
8, 281088, Note_on_c, 6, 79, 96
8, 281088, Note_off_c, 6, 67, 0
8, 281600, Note_on_c, 6, 72, 96
8, 281856, Note_off_c, 6, 79, 0
8, 281856, Note_on_c, 6, 80, 96
8, 282112, Note_off_c, 6, 80, 0
8, 282112, Note_on_c, 6, 82, 96
8, 282112, Note_off_c, 6, 72, 0
8, 282368, Note_off_c, 6, 82, 0
8, 282368, Note_on_c, 6, 79, 96
8, 282624, Note_off_c, 6, 79, 0
8, 282624, Note_on_c, 6, 80, 96
8, 282624, Note_on_c, 6, 72, 96
8, 283136, Note_off_c, 6, 72, 0
8, 285696, Note_on_c, 6, 74, 96
8, 285952, Note_off_c, 6, 80, 0
8, 285952, Note_on_c, 6, 70, 96
8, 286208, Note_off_c, 6, 70, 0
8, 286208, Note_on_c, 6, 69, 96
8, 286208, Note_off_c, 6, 74, 0
8, 286464, Note_off_c, 6, 69, 0
8, 286464, Note_on_c, 6, 70, 96
8, 286720, Note_off_c, 6, 70, 0
8, 286720, Note_on_c, 6, 62, 96
8, 286720, Note_on_c, 6, 77, 96
8, 286976, Note_off_c, 6, 62, 0
8, 286976, Note_on_c, 6, 70, 96
8, 287232, Note_off_c, 6, 70, 0
8, 287232, Note_on_c, 6, 69, 96
8, 287232, Note_off_c, 6, 77, 0
8, 287488, Note_off_c, 6, 69, 0
8, 287488, Note_on_c, 6, 70, 96
8, 287744, Note_off_c, 6, 70, 0
8, 287744, Note_on_c, 6, 80, 96
8, 287744, Note_on_c, 6, 74, 96
8, 288000, Note_off_c, 6, 80, 0
8, 288000, Note_on_c, 6, 70, 96
8, 288256, Note_off_c, 6, 70, 0
8, 288256, Note_on_c, 6, 69, 96
8, 288256, Note_off_c, 6, 74, 0
8, 288512, Note_off_c, 6, 69, 0
8, 288512, Note_on_c, 6, 70, 96
8, 288768, Note_off_c, 6, 70, 0
8, 288768, Note_on_c, 6, 79, 96
8, 288768, Note_on_c, 6, 70, 96
8, 289024, Note_off_c, 6, 79, 0
8, 289024, Note_on_c, 6, 67, 96
8, 289280, Note_off_c, 6, 67, 0
8, 289280, Note_on_c, 6, 65, 96
8, 289280, Note_off_c, 6, 70, 0
8, 289536, Note_off_c, 6, 65, 0
8, 289536, Note_on_c, 6, 67, 96
8, 289792, Note_off_c, 6, 67, 0
8, 289792, Note_on_c, 6, 63, 96
8, 290048, Note_off_c, 6, 63, 0
8, 290048, Note_on_c, 6, 67, 96
8, 290304, Note_off_c, 6, 67, 0
8, 290304, Note_on_c, 6, 65, 96
8, 290560, Note_off_c, 6, 65, 0
8, 290560, Note_on_c, 6, 67, 96
8, 290816, Note_off_c, 6, 67, 0
8, 290816, Note_on_c, 6, 70, 96
8, 291072, Note_off_c, 6, 70, 0
8, 291072, Note_on_c, 6, 67, 96
8, 291328, Note_off_c, 6, 67, 0
8, 291328, Note_on_c, 6, 65, 96
8, 291584, Note_off_c, 6, 65, 0
8, 291584, Note_on_c, 6, 67, 96
8, 291840, Note_off_c, 6, 67, 0
8, 291840, Note_on_c, 6, 63, 96
8, 292096, Note_off_c, 6, 63, 0
8, 292096, Note_on_c, 6, 75, 96
8, 292352, Note_off_c, 6, 75, 0
8, 292352, Note_on_c, 6, 74, 96
8, 292608, Note_off_c, 6, 74, 0
8, 292608, Note_on_c, 6, 75, 96
8, 292864, Note_off_c, 6, 75, 0
8, 292864, Note_on_c, 6, 72, 96
8, 293120, Note_off_c, 6, 72, 0
8, 293120, Note_on_c, 6, 75, 96
8, 293376, Note_off_c, 6, 75, 0
8, 293376, Note_on_c, 6, 74, 96
8, 293632, Note_off_c, 6, 74, 0
8, 293632, Note_on_c, 6, 75, 96
8, 293888, Note_off_c, 6, 75, 0
8, 293888, Note_on_c, 6, 79, 96
8, 294144, Note_off_c, 6, 79, 0
8, 294144, Note_on_c, 6, 75, 96
8, 294400, Note_off_c, 6, 75, 0
8, 294400, Note_on_c, 6, 74, 96
8, 294656, Note_off_c, 6, 74, 0
8, 294656, Note_on_c, 6, 75, 96
8, 294912, Note_off_c, 6, 75, 0
8, 294912, Note_on_c, 6, 70, 96
8, 295424, Note_off_c, 6, 70, 0
8, 301056, Note_on_c, 6, 63, 96
8, 301056, Note_on_c, 6, 58, 96
8, 301824, Note_off_c, 6, 63, 0
8, 301824, Note_on_c, 6, 63, 96
8, 301824, Note_off_c, 6, 58, 0
8, 301824, Note_on_c, 6, 58, 96
8, 302080, Note_off_c, 6, 63, 0
8, 302080, Note_on_c, 6, 63, 96
8, 302080, Note_off_c, 6, 58, 0
8, 302080, Note_on_c, 6, 60, 96
8, 302848, Note_off_c, 6, 63, 0
8, 302848, Note_on_c, 6, 63, 96
8, 302848, Note_off_c, 6, 60, 0
8, 302848, Note_on_c, 6, 60, 96
8, 303104, Note_off_c, 6, 63, 0
8, 303104, Note_on_c, 6, 63, 96
8, 303104, Note_off_c, 6, 60, 0
8, 303104, Note_on_c, 6, 55, 96
8, 303872, Note_off_c, 6, 63, 0
8, 303872, Note_on_c, 6, 63, 96
8, 303872, Note_off_c, 6, 55, 0
8, 303872, Note_on_c, 6, 55, 96
8, 304128, Note_off_c, 6, 63, 0
8, 304128, Note_off_c, 6, 55, 0
8, 304128, Note_on_c, 6, 63, 96
8, 304128, Note_on_c, 6, 60, 96
8, 306176, Note_off_c, 6, 63, 0
8, 306176, Note_off_c, 6, 60, 0
8, 307200, Note_on_c, 6, 68, 96
8, 307200, Note_on_c, 6, 62, 96
8, 307968, Note_off_c, 6, 68, 0
8, 307968, Note_on_c, 6, 68, 96
8, 307968, Note_off_c, 6, 62, 0
8, 307968, Note_on_c, 6, 62, 96
8, 308224, Note_off_c, 6, 68, 0
8, 308224, Note_on_c, 6, 68, 96
8, 308224, Note_off_c, 6, 62, 0
8, 308224, Note_on_c, 6, 62, 96
8, 308992, Note_off_c, 6, 68, 0
8, 308992, Note_on_c, 6, 68, 96
8, 308992, Note_off_c, 6, 62, 0
8, 308992, Note_on_c, 6, 62, 96
8, 309248, Note_off_c, 6, 68, 0
8, 309248, Note_on_c, 6, 68, 96
8, 309248, Note_off_c, 6, 62, 0
8, 309248, Note_on_c, 6, 62, 96
8, 310016, Note_off_c, 6, 68, 0
8, 310016, Note_on_c, 6, 68, 96
8, 310016, Note_off_c, 6, 62, 0
8, 310016, Note_on_c, 6, 62, 96
8, 310272, Note_off_c, 6, 68, 0
8, 310272, Note_off_c, 6, 62, 0
8, 310272, Note_on_c, 6, 67, 96
8, 310272, Note_on_c, 6, 58, 96
8, 312320, Note_off_c, 6, 67, 0
8, 312320, Note_off_c, 6, 58, 0
8, 313344, Note_on_c, 6, 63, 96
8, 313344, Note_on_c, 6, 58, 96
8, 313600, Note_off_c, 6, 63, 0
8, 313600, Note_on_c, 6, 65, 96
8, 313856, Note_off_c, 6, 65, 0
8, 313856, Note_on_c, 6, 67, 96
8, 313856, Note_off_c, 6, 58, 0
8, 314368, Note_on_c, 6, 63, 96
8, 314624, Note_off_c, 6, 67, 0
8, 314624, Note_on_c, 6, 68, 96
8, 314880, Note_off_c, 6, 68, 0
8, 314880, Note_on_c, 6, 70, 96
8, 314880, Note_off_c, 6, 63, 0
8, 315392, Note_on_c, 6, 63, 96
8, 315648, Note_off_c, 6, 70, 0
8, 315648, Note_on_c, 6, 72, 96
8, 315904, Note_off_c, 6, 72, 0
8, 315904, Note_on_c, 6, 73, 96
8, 315904, Note_off_c, 6, 63, 0
8, 316160, Note_off_c, 6, 73, 0
8, 316160, Note_on_c, 6, 70, 96
8, 316416, Note_off_c, 6, 70, 0
8, 316416, Note_on_c, 6, 75, 96
8, 316416, Note_on_c, 6, 63, 96
8, 316672, Note_off_c, 6, 75, 0
8, 316672, Note_on_c, 6, 77, 96
8, 316928, Note_off_c, 6, 77, 0
8, 316928, Note_on_c, 6, 75, 96
8, 316928, Note_off_c, 6, 63, 0
8, 317184, Note_off_c, 6, 75, 0
8, 317184, Note_on_c, 6, 73, 96
8, 317440, Note_off_c, 6, 73, 0
8, 317440, Note_on_c, 6, 72, 96
8, 317440, Note_on_c, 6, 63, 96
8, 317696, Note_off_c, 6, 72, 0
8, 317696, Note_on_c, 6, 73, 96
8, 317952, Note_off_c, 6, 73, 0
8, 317952, Note_on_c, 6, 72, 96
8, 317952, Note_off_c, 6, 63, 0
8, 318208, Note_off_c, 6, 72, 0
8, 318208, Note_on_c, 6, 70, 96
8, 318464, Note_off_c, 6, 70, 0
8, 318464, Note_on_c, 6, 68, 96
8, 318464, Note_on_c, 6, 60, 96
8, 318720, Note_off_c, 6, 68, 0
8, 318720, Note_on_c, 6, 65, 96
8, 318976, Note_off_c, 6, 65, 0
8, 318976, Note_on_c, 6, 63, 96
8, 318976, Note_off_c, 6, 60, 0
8, 319232, Note_off_c, 6, 63, 0
8, 319232, Note_on_c, 6, 62, 96
8, 319488, Note_off_c, 6, 62, 0
8, 319488, Note_on_c, 6, 63, 96
8, 319488, Note_on_c, 6, 55, 96
8, 319744, Note_off_c, 6, 63, 0
8, 319744, Note_on_c, 6, 65, 96
8, 320000, Note_off_c, 6, 65, 0
8, 320000, Note_on_c, 6, 67, 96
8, 320000, Note_off_c, 6, 55, 0
8, 320512, Note_on_c, 6, 63, 96
8, 320768, Note_off_c, 6, 67, 0
8, 320768, Note_on_c, 6, 68, 96
8, 321024, Note_off_c, 6, 68, 0
8, 321024, Note_on_c, 6, 70, 96
8, 321024, Note_off_c, 6, 63, 0
8, 321536, Note_on_c, 6, 63, 96
8, 321792, Note_off_c, 6, 70, 0
8, 321792, Note_on_c, 6, 69, 96
8, 322048, Note_off_c, 6, 69, 0
8, 322048, Note_on_c, 6, 70, 96
8, 322048, Note_off_c, 6, 63, 0
8, 322304, Note_off_c, 6, 70, 0
8, 322304, Note_on_c, 6, 72, 96
8, 322560, Note_off_c, 6, 72, 0
8, 322560, Note_on_c, 6, 74, 96
8, 322560, Note_on_c, 6, 70, 96
8, 323072, Note_off_c, 6, 74, 0
8, 323072, Note_off_c, 6, 70, 0
8, 323584, Note_on_c, 6, 77, 96
8, 323584, Note_on_c, 6, 70, 96
8, 324096, Note_off_c, 6, 77, 0
8, 324096, Note_off_c, 6, 70, 0
8, 324608, Note_on_c, 6, 74, 96
8, 324608, Note_on_c, 6, 65, 96
8, 325120, Note_off_c, 6, 74, 0
8, 325120, Note_off_c, 6, 65, 0
8, 325632, Note_on_c, 6, 62, 96
8, 325632, Note_on_c, 6, 57, 96
8, 325888, Note_off_c, 6, 62, 0
8, 325888, Note_on_c, 6, 64, 96
8, 326144, Note_off_c, 6, 64, 0
8, 326144, Note_on_c, 6, 66, 96
8, 326144, Note_off_c, 6, 57, 0
8, 326656, Note_on_c, 6, 62, 96
8, 326912, Note_off_c, 6, 66, 0
8, 326912, Note_on_c, 6, 67, 96
8, 327168, Note_off_c, 6, 67, 0
8, 327168, Note_on_c, 6, 69, 96
8, 327168, Note_off_c, 6, 62, 0
8, 327680, Note_on_c, 6, 62, 96
8, 327936, Note_off_c, 6, 69, 0
8, 327936, Note_on_c, 6, 70, 96
8, 328192, Note_off_c, 6, 70, 0
8, 328192, Note_on_c, 6, 72, 96
8, 328192, Note_off_c, 6, 62, 0
8, 328448, Note_off_c, 6, 72, 0
8, 328448, Note_on_c, 6, 69, 96
8, 328704, Note_off_c, 6, 69, 0
8, 328704, Note_on_c, 6, 70, 96
8, 328704, Note_on_c, 6, 62, 96
8, 329216, Note_off_c, 6, 62, 0
8, 329728, Note_on_c, 6, 62, 96
8, 330240, Note_off_c, 6, 62, 0
8, 330752, Note_on_c, 6, 62, 96
8, 331264, Note_off_c, 6, 62, 0
8, 331776, Note_on_c, 6, 58, 96
8, 332032, Note_off_c, 6, 70, 0
8, 332032, Note_on_c, 6, 65, 96
8, 332288, Note_off_c, 6, 65, 0
8, 332288, Note_on_c, 6, 67, 96
8, 332288, Note_off_c, 6, 58, 0
8, 332544, Note_off_c, 6, 67, 0
8, 332544, Note_on_c, 6, 69, 96
8, 332800, Note_off_c, 6, 69, 0
8, 332800, Note_on_c, 6, 70, 96
8, 332800, Note_on_c, 6, 70, 96
8, 333056, Note_off_c, 6, 70, 0
8, 333056, Note_on_c, 6, 72, 96
8, 333312, Note_off_c, 6, 72, 0
8, 333312, Note_on_c, 6, 74, 96
8, 333312, Note_off_c, 6, 70, 0
8, 333568, Note_off_c, 6, 74, 0
8, 333568, Note_on_c, 6, 75, 96
8, 333824, Note_off_c, 6, 75, 0
8, 333824, Note_on_c, 6, 77, 96
8, 333824, Note_on_c, 6, 70, 96
8, 334080, Note_off_c, 6, 77, 0
8, 334080, Note_on_c, 6, 79, 96
8, 334336, Note_off_c, 6, 79, 0
8, 334336, Note_on_c, 6, 80, 96
8, 334336, Note_off_c, 6, 70, 0
8, 334592, Note_off_c, 6, 80, 0
8, 334592, Note_on_c, 6, 77, 96
8, 334848, Note_off_c, 6, 77, 0
8, 334848, Note_on_c, 6, 79, 96
8, 334848, Note_on_c, 6, 70, 96
8, 335104, Note_off_c, 6, 79, 0
8, 335104, Note_on_c, 6, 67, 96
8, 335360, Note_off_c, 6, 67, 0
8, 335360, Note_on_c, 6, 69, 96
8, 335360, Note_off_c, 6, 70, 0
8, 335616, Note_off_c, 6, 69, 0
8, 335616, Note_on_c, 6, 70, 96
8, 335872, Note_off_c, 6, 70, 0
8, 335872, Note_on_c, 6, 72, 96
8, 335872, Note_on_c, 6, 63, 96
8, 336128, Note_off_c, 6, 72, 0
8, 336128, Note_on_c, 6, 74, 96
8, 336384, Note_off_c, 6, 74, 0
8, 336384, Note_on_c, 6, 75, 96
8, 336384, Note_off_c, 6, 63, 0
8, 336640, Note_off_c, 6, 75, 0
8, 336640, Note_on_c, 6, 77, 96
8, 336896, Note_off_c, 6, 77, 0
8, 336896, Note_on_c, 6, 79, 96
8, 336896, Note_on_c, 6, 63, 96
8, 337152, Note_off_c, 6, 79, 0
8, 337152, Note_on_c, 6, 81, 96
8, 337408, Note_off_c, 6, 81, 0
8, 337408, Note_on_c, 6, 82, 96
8, 337408, Note_off_c, 6, 63, 0
8, 337664, Note_off_c, 6, 82, 0
8, 337664, Note_on_c, 6, 79, 96
8, 337920, Note_off_c, 6, 79, 0
8, 337920, Note_on_c, 6, 84, 96
8, 337920, Note_on_c, 6, 65, 96
8, 338176, Note_off_c, 6, 84, 0
8, 338176, Note_on_c, 6, 57, 96
8, 338432, Note_off_c, 6, 57, 0
8, 338432, Note_on_c, 6, 58, 96
8, 338432, Note_off_c, 6, 65, 0
8, 338688, Note_off_c, 6, 58, 0
8, 338688, Note_on_c, 6, 60, 96
8, 338944, Note_off_c, 6, 60, 0
8, 338944, Note_on_c, 6, 62, 96
8, 338944, Note_on_c, 6, 65, 96
8, 339200, Note_off_c, 6, 62, 0
8, 339200, Note_on_c, 6, 63, 96
8, 339456, Note_off_c, 6, 63, 0
8, 339456, Note_on_c, 6, 65, 96
8, 339456, Note_off_c, 6, 65, 0
8, 339712, Note_off_c, 6, 65, 0
8, 339712, Note_on_c, 6, 67, 96
8, 339968, Note_off_c, 6, 67, 0
8, 339968, Note_on_c, 6, 69, 96
8, 339968, Note_on_c, 6, 62, 96
8, 340224, Note_off_c, 6, 69, 0
8, 340224, Note_on_c, 6, 70, 96
8, 340480, Note_off_c, 6, 70, 0
8, 340480, Note_on_c, 6, 72, 96
8, 340480, Note_off_c, 6, 62, 0
8, 340736, Note_off_c, 6, 72, 0
8, 340736, Note_on_c, 6, 74, 96
8, 340992, Note_off_c, 6, 74, 0
8, 340992, Note_on_c, 6, 75, 96
8, 340992, Note_on_c, 6, 60, 96
8, 341248, Note_off_c, 6, 75, 0
8, 341248, Note_on_c, 6, 60, 96
8, 341504, Note_off_c, 6, 60, 0
8, 341504, Note_on_c, 6, 62, 96
8, 341504, Note_off_c, 6, 60, 0
8, 341760, Note_off_c, 6, 62, 0
8, 341760, Note_on_c, 6, 63, 96
8, 342016, Note_off_c, 6, 63, 0
8, 342016, Note_on_c, 6, 65, 96
8, 342016, Note_on_c, 6, 72, 96
8, 342272, Note_off_c, 6, 65, 0
8, 342272, Note_on_c, 6, 67, 96
8, 342528, Note_off_c, 6, 67, 0
8, 342528, Note_on_c, 6, 69, 96
8, 342528, Note_off_c, 6, 72, 0
8, 342784, Note_off_c, 6, 69, 0
8, 342784, Note_on_c, 6, 70, 96
8, 343040, Note_off_c, 6, 70, 0
8, 343040, Note_on_c, 6, 72, 96
8, 343040, Note_on_c, 6, 67, 96
8, 343296, Note_off_c, 6, 72, 0
8, 343296, Note_on_c, 6, 74, 96
8, 343552, Note_off_c, 6, 74, 0
8, 343552, Note_on_c, 6, 75, 96
8, 343552, Note_off_c, 6, 67, 0
8, 343808, Note_off_c, 6, 75, 0
8, 343808, Note_on_c, 6, 72, 96
8, 344064, Note_off_c, 6, 72, 0
8, 344064, Note_on_c, 6, 74, 96
8, 344064, Note_on_c, 6, 69, 96
8, 344320, Note_off_c, 6, 74, 0
8, 344320, Note_on_c, 6, 62, 96
8, 344576, Note_off_c, 6, 62, 0
8, 344576, Note_on_c, 6, 63, 96
8, 344576, Note_off_c, 6, 69, 0
8, 344832, Note_off_c, 6, 63, 0
8, 344832, Note_on_c, 6, 66, 96
8, 345088, Note_off_c, 6, 66, 0
8, 345088, Note_on_c, 6, 67, 96
8, 345088, Note_on_c, 6, 62, 96
8, 345344, Note_off_c, 6, 67, 0
8, 345344, Note_on_c, 6, 69, 96
8, 345600, Note_off_c, 6, 69, 0
8, 345600, Note_on_c, 6, 70, 96
8, 345600, Note_off_c, 6, 62, 0
8, 345856, Note_off_c, 6, 70, 0
8, 345856, Note_on_c, 6, 72, 96
8, 346112, Note_off_c, 6, 72, 0
8, 346112, Note_on_c, 6, 74, 96
8, 346112, Note_on_c, 6, 70, 96
8, 346368, Note_off_c, 6, 74, 0
8, 346368, Note_on_c, 6, 76, 96
8, 346624, Note_off_c, 6, 76, 0
8, 346624, Note_on_c, 6, 77, 96
8, 346624, Note_off_c, 6, 70, 0
8, 346880, Note_off_c, 6, 77, 0
8, 346880, Note_on_c, 6, 74, 96
8, 347136, Note_off_c, 6, 74, 0
8, 347136, Note_on_c, 6, 79, 96
8, 347136, Note_on_c, 6, 72, 96
8, 347392, Note_off_c, 6, 79, 0
8, 347392, Note_on_c, 6, 70, 96
8, 347648, Note_off_c, 6, 70, 0
8, 347648, Note_on_c, 6, 69, 96
8, 347648, Note_off_c, 6, 72, 0
8, 347904, Note_off_c, 6, 69, 0
8, 347904, Note_on_c, 6, 70, 96
8, 348160, Note_off_c, 6, 70, 0
8, 348160, Note_on_c, 6, 60, 96
8, 348160, Note_on_c, 6, 67, 96
8, 348416, Note_off_c, 6, 60, 0
8, 348416, Note_on_c, 6, 62, 96
8, 348672, Note_off_c, 6, 62, 0
8, 348672, Note_on_c, 6, 64, 96
8, 348672, Note_off_c, 6, 67, 0
8, 348928, Note_off_c, 6, 64, 0
8, 348928, Note_on_c, 6, 65, 96
8, 349184, Note_off_c, 6, 65, 0
8, 349184, Note_on_c, 6, 67, 96
8, 349184, Note_on_c, 6, 67, 96
8, 349440, Note_off_c, 6, 67, 0
8, 349440, Note_on_c, 6, 69, 96
8, 349696, Note_off_c, 6, 69, 0
8, 349696, Note_on_c, 6, 70, 96
8, 349696, Note_off_c, 6, 67, 0
8, 349952, Note_off_c, 6, 70, 0
8, 349952, Note_on_c, 6, 67, 96
8, 350208, Note_off_c, 6, 67, 0
8, 350208, Note_on_c, 6, 69, 96
8, 350208, Note_on_c, 6, 60, 96
8, 350464, Note_off_c, 6, 69, 0
8, 350464, Note_on_c, 6, 67, 96
8, 350720, Note_off_c, 6, 67, 0
8, 350720, Note_on_c, 6, 69, 96
8, 350720, Note_off_c, 6, 60, 0
8, 350976, Note_off_c, 6, 69, 0
8, 350976, Note_on_c, 6, 72, 96
8, 351232, Note_off_c, 6, 72, 0
8, 351232, Note_on_c, 6, 65, 96
8, 351232, Note_on_c, 6, 60, 96
8, 351488, Note_off_c, 6, 65, 0
8, 351488, Note_on_c, 6, 67, 96
8, 351744, Note_off_c, 6, 67, 0
8, 351744, Note_on_c, 6, 69, 96
8, 351744, Note_off_c, 6, 60, 0
8, 352000, Note_off_c, 6, 69, 0
8, 352000, Note_on_c, 6, 70, 96
8, 352256, Note_off_c, 6, 70, 0
8, 352256, Note_on_c, 6, 72, 96
8, 352256, Note_on_c, 6, 60, 96
8, 352512, Note_off_c, 6, 72, 0
8, 352512, Note_on_c, 6, 74, 96
8, 352768, Note_off_c, 6, 74, 0
8, 352768, Note_on_c, 6, 75, 96
8, 352768, Note_off_c, 6, 60, 0
8, 353024, Note_off_c, 6, 75, 0
8, 353024, Note_on_c, 6, 72, 96
8, 353280, Note_off_c, 6, 72, 0
8, 353280, Note_on_c, 6, 77, 96
8, 353280, Note_on_c, 6, 62, 96
8, 354048, Note_off_c, 6, 77, 0
8, 354048, Note_on_c, 6, 75, 96
8, 354048, Note_off_c, 6, 62, 0
8, 354048, Note_on_c, 6, 72, 96
8, 354304, Note_off_c, 6, 75, 0
8, 354304, Note_on_c, 6, 74, 96
8, 354304, Note_off_c, 6, 72, 0
8, 354304, Note_on_c, 6, 70, 96
8, 355328, Note_off_c, 6, 74, 0
8, 355328, Note_on_c, 6, 72, 96
8, 355328, Note_off_c, 6, 70, 0
8, 355328, Note_on_c, 6, 69, 96
8, 356352, Note_off_c, 6, 72, 0
8, 356352, Note_off_c, 6, 69, 0
8, 356352, Note_on_c, 6, 70, 96
8, 356352, Note_on_c, 6, 65, 96
8, 356864, Note_off_c, 6, 70, 0
8, 356864, Note_on_c, 6, 70, 96
8, 356864, Note_off_c, 6, 65, 0
8, 357120, Note_off_c, 6, 70, 0
8, 357120, Note_on_c, 6, 72, 96
8, 357376, Note_off_c, 6, 72, 0
8, 357376, Note_on_c, 6, 74, 96
8, 357376, Note_on_c, 6, 65, 96
8, 357632, Note_off_c, 6, 74, 0
8, 357632, Note_on_c, 6, 75, 96
8, 357888, Note_off_c, 6, 75, 0
8, 357888, Note_on_c, 6, 77, 96
8, 357888, Note_off_c, 6, 65, 0
8, 358400, Note_on_c, 6, 70, 96
8, 358656, Note_off_c, 6, 77, 0
8, 358656, Note_on_c, 6, 74, 96
8, 358912, Note_off_c, 6, 74, 0
8, 358912, Note_on_c, 6, 72, 96
8, 358912, Note_off_c, 6, 70, 0
8, 359168, Note_off_c, 6, 72, 0
8, 359168, Note_on_c, 6, 70, 96
8, 359424, Note_off_c, 6, 70, 0
8, 359424, Note_on_c, 6, 75, 96
8, 359424, Note_on_c, 6, 70, 96
8, 359680, Note_off_c, 6, 75, 0
8, 359680, Note_on_c, 6, 70, 96
8, 359936, Note_off_c, 6, 70, 0
8, 359936, Note_on_c, 6, 67, 96
8, 359936, Note_off_c, 6, 70, 0
8, 360192, Note_off_c, 6, 67, 0
8, 360192, Note_on_c, 6, 68, 96
8, 360448, Note_off_c, 6, 68, 0
8, 360448, Note_on_c, 6, 70, 96
8, 360704, Note_off_c, 6, 70, 0
8, 360704, Note_on_c, 6, 72, 96
8, 360960, Note_off_c, 6, 72, 0
8, 360960, Note_on_c, 6, 74, 96
8, 361728, Note_off_c, 6, 74, 0
8, 361728, Note_on_c, 6, 72, 96
8, 361984, Note_off_c, 6, 72, 0
8, 361984, Note_on_c, 6, 70, 96
8, 362240, Note_off_c, 6, 70, 0
8, 362240, Note_on_c, 6, 68, 96
8, 362496, Note_off_c, 6, 68, 0
8, 362496, Note_on_c, 6, 70, 96
8, 362752, Note_off_c, 6, 70, 0
8, 362752, Note_on_c, 6, 67, 96
8, 363008, Note_off_c, 6, 67, 0
8, 363008, Note_on_c, 6, 63, 96
8, 363264, Note_off_c, 6, 63, 0
8, 363264, Note_on_c, 6, 65, 96
8, 363520, Note_off_c, 6, 65, 0
8, 363520, Note_on_c, 6, 67, 96
8, 363520, Note_on_c, 6, 63, 96
8, 363776, Note_off_c, 6, 67, 0
8, 363776, Note_on_c, 6, 68, 96
8, 364032, Note_off_c, 6, 68, 0
8, 364032, Note_on_c, 6, 70, 96
8, 364032, Note_off_c, 6, 63, 0
8, 364544, Note_on_c, 6, 58, 96
8, 364800, Note_off_c, 6, 70, 0
8, 364800, Note_on_c, 6, 68, 96
8, 365056, Note_off_c, 6, 68, 0
8, 365056, Note_on_c, 6, 67, 96
8, 365056, Note_off_c, 6, 58, 0
8, 365312, Note_off_c, 6, 67, 0
8, 365312, Note_on_c, 6, 65, 96
8, 365568, Note_off_c, 6, 65, 0
8, 365568, Note_on_c, 6, 63, 96
8, 365568, Note_on_c, 6, 60, 96
8, 365824, Note_off_c, 6, 63, 0
8, 365824, Note_on_c, 6, 65, 96
8, 366080, Note_off_c, 6, 65, 0
8, 366080, Note_on_c, 6, 67, 96
8, 366080, Note_off_c, 6, 60, 0
8, 366336, Note_off_c, 6, 67, 0
8, 366336, Note_on_c, 6, 68, 96
8, 366592, Note_off_c, 6, 68, 0
8, 366592, Note_on_c, 6, 70, 96
8, 366848, Note_off_c, 6, 70, 0
8, 366848, Note_on_c, 6, 72, 96
8, 367104, Note_off_c, 6, 72, 0
8, 367104, Note_on_c, 6, 74, 96
8, 367360, Note_off_c, 6, 74, 0
8, 367360, Note_on_c, 6, 75, 96
8, 367616, Note_off_c, 6, 75, 0
8, 367616, Note_on_c, 6, 77, 96
8, 367872, Note_off_c, 6, 77, 0
8, 367872, Note_on_c, 6, 74, 96
8, 368128, Note_off_c, 6, 74, 0
8, 368128, Note_on_c, 6, 75, 96
8, 368384, Note_off_c, 6, 75, 0
8, 368384, Note_on_c, 6, 77, 96
8, 368640, Note_off_c, 6, 77, 0
8, 368640, Note_on_c, 6, 79, 96
8, 368896, Note_off_c, 6, 79, 0
8, 368896, Note_on_c, 6, 58, 96
8, 369152, Note_off_c, 6, 58, 0
8, 369152, Note_on_c, 6, 60, 96
8, 369408, Note_off_c, 6, 60, 0
8, 369408, Note_on_c, 6, 62, 96
8, 369664, Note_off_c, 6, 62, 0
8, 369664, Note_on_c, 6, 63, 96
8, 369664, Note_on_c, 6, 72, 96
8, 369920, Note_off_c, 6, 63, 0
8, 369920, Note_on_c, 6, 65, 96
8, 370176, Note_off_c, 6, 65, 0
8, 370176, Note_on_c, 6, 67, 96
8, 370176, Note_off_c, 6, 72, 0
8, 370432, Note_off_c, 6, 67, 0
8, 370432, Note_on_c, 6, 68, 96
8, 370688, Note_off_c, 6, 68, 0
8, 370688, Note_on_c, 6, 70, 96
8, 370688, Note_on_c, 6, 67, 96
8, 370944, Note_off_c, 6, 70, 0
8, 370944, Note_on_c, 6, 67, 96
8, 371200, Note_off_c, 6, 67, 0
8, 371200, Note_on_c, 6, 65, 96
8, 371200, Note_off_c, 6, 67, 0
8, 371456, Note_off_c, 6, 65, 0
8, 371456, Note_on_c, 6, 63, 96
8, 371712, Note_off_c, 6, 63, 0
8, 371712, Note_on_c, 6, 72, 96
8, 371712, Note_on_c, 6, 68, 96
8, 371968, Note_off_c, 6, 72, 0
8, 371968, Note_on_c, 6, 60, 96
8, 372224, Note_off_c, 6, 60, 0
8, 372224, Note_on_c, 6, 61, 96
8, 372224, Note_off_c, 6, 68, 0
8, 372480, Note_off_c, 6, 61, 0
8, 372480, Note_on_c, 6, 63, 96
8, 372736, Note_off_c, 6, 63, 0
8, 372736, Note_on_c, 6, 65, 96
8, 372992, Note_off_c, 6, 65, 0
8, 372992, Note_on_c, 6, 67, 96
8, 373248, Note_off_c, 6, 67, 0
8, 373248, Note_on_c, 6, 68, 96
8, 373504, Note_off_c, 6, 68, 0
8, 373504, Note_on_c, 6, 70, 96
8, 373760, Note_off_c, 6, 70, 0
8, 373760, Note_on_c, 6, 72, 96
8, 374016, Note_off_c, 6, 72, 0
8, 374016, Note_on_c, 6, 73, 96
8, 374272, Note_off_c, 6, 73, 0
8, 374272, Note_on_c, 6, 75, 96
8, 374528, Note_off_c, 6, 75, 0
8, 374528, Note_on_c, 6, 77, 96
8, 374784, Note_off_c, 6, 77, 0
8, 374784, Note_on_c, 6, 70, 96
8, 375040, Note_off_c, 6, 70, 0
8, 375040, Note_on_c, 6, 82, 96
8, 375296, Note_off_c, 6, 82, 0
8, 375296, Note_on_c, 6, 80, 96
8, 375552, Note_off_c, 6, 80, 0
8, 375552, Note_on_c, 6, 79, 96
8, 375808, Note_off_c, 6, 79, 0
8, 375808, Note_on_c, 6, 80, 96
8, 375808, Note_on_c, 6, 72, 96
8, 376064, Note_off_c, 6, 80, 0
8, 376064, Note_on_c, 6, 82, 96
8, 376320, Note_off_c, 6, 82, 0
8, 376320, Note_on_c, 6, 84, 96
8, 376576, Note_off_c, 6, 84, 0
8, 376576, Note_on_c, 6, 80, 96
8, 376832, Note_off_c, 6, 80, 0
8, 376832, Note_on_c, 6, 75, 96
8, 377088, Note_off_c, 6, 75, 0
8, 377088, Note_on_c, 6, 80, 96
8, 377344, Note_off_c, 6, 80, 0
8, 377344, Note_on_c, 6, 79, 96
8, 377600, Note_off_c, 6, 79, 0
8, 377600, Note_on_c, 6, 77, 96
8, 377856, Note_off_c, 6, 77, 0
8, 377856, Note_off_c, 6, 72, 0
8, 377856, Note_on_c, 6, 79, 96
8, 377856, Note_on_c, 6, 70, 96
8, 378624, Note_off_c, 6, 79, 0
8, 378624, Note_on_c, 6, 63, 96
8, 378624, Note_off_c, 6, 70, 0
8, 378624, Note_on_c, 6, 58, 96
8, 378880, Note_off_c, 6, 63, 0
8, 378880, Note_on_c, 6, 63, 96
8, 378880, Note_off_c, 6, 58, 0
8, 378880, Note_on_c, 6, 58, 96
8, 379648, Note_off_c, 6, 63, 0
8, 379648, Note_on_c, 6, 63, 96
8, 379648, Note_off_c, 6, 58, 0
8, 379648, Note_on_c, 6, 58, 96
8, 379904, Note_off_c, 6, 63, 0
8, 379904, Note_on_c, 6, 63, 96
8, 379904, Note_off_c, 6, 58, 0
8, 379904, Note_on_c, 6, 58, 96
8, 380672, Note_off_c, 6, 63, 0
8, 380672, Note_on_c, 6, 63, 96
8, 380672, Note_off_c, 6, 58, 0
8, 380672, Note_on_c, 6, 58, 96
8, 380928, Note_off_c, 6, 63, 0
8, 380928, Note_off_c, 6, 58, 0
8, 380928, Note_on_c, 6, 63, 96
8, 380928, Note_on_c, 6, 60, 96
8, 382976, Note_off_c, 6, 63, 0
8, 382976, Note_off_c, 6, 60, 0
8, 384000, Note_on_c, 6, 65, 96
8, 384000, Note_on_c, 6, 60, 96
8, 384768, Note_off_c, 6, 65, 0
8, 384768, Note_on_c, 6, 65, 96
8, 384768, Note_off_c, 6, 60, 0
8, 384768, Note_on_c, 6, 60, 96
8, 385024, Note_off_c, 6, 65, 0
8, 385024, Note_on_c, 6, 65, 96
8, 385024, Note_off_c, 6, 60, 0
8, 385024, Note_on_c, 6, 63, 96
8, 385792, Note_off_c, 6, 65, 0
8, 385792, Note_on_c, 6, 65, 96
8, 385792, Note_off_c, 6, 63, 0
8, 385792, Note_on_c, 6, 63, 96
8, 386048, Note_off_c, 6, 65, 0
8, 386048, Note_on_c, 6, 65, 96
8, 386048, Note_off_c, 6, 63, 0
8, 386048, Note_on_c, 6, 63, 96
8, 386816, Note_off_c, 6, 65, 0
8, 386816, Note_on_c, 6, 65, 96
8, 386816, Note_off_c, 6, 63, 0
8, 386816, Note_on_c, 6, 63, 96
8, 387072, Note_off_c, 6, 65, 0
8, 387072, Note_off_c, 6, 63, 0
8, 387072, Note_on_c, 6, 65, 96
8, 387072, Note_on_c, 6, 62, 96
8, 389120, Note_off_c, 6, 65, 0
8, 389120, Note_off_c, 6, 62, 0
8, 390656, Note_on_c, 6, 67, 96
8, 390912, Note_off_c, 6, 67, 0
8, 390912, Note_on_c, 6, 68, 96
8, 391168, Note_off_c, 6, 68, 0
8, 391168, Note_on_c, 6, 70, 96
8, 391424, Note_off_c, 6, 70, 0
8, 391424, Note_on_c, 6, 72, 96
8, 391680, Note_off_c, 6, 72, 0
8, 391680, Note_on_c, 6, 74, 96
8, 392448, Note_off_c, 6, 74, 0
8, 392448, Note_on_c, 6, 72, 96
8, 392704, Note_off_c, 6, 72, 0
8, 392704, Note_on_c, 6, 70, 96
8, 392960, Note_off_c, 6, 70, 0
8, 392960, Note_on_c, 6, 68, 96
8, 393216, Note_off_c, 6, 68, 0
8, 393216, Note_on_c, 6, 70, 96
8, 393472, Note_off_c, 6, 70, 0
8, 393472, Note_on_c, 6, 67, 96
8, 393728, Note_off_c, 6, 67, 0
8, 393728, Note_on_c, 6, 63, 96
8, 393984, Note_off_c, 6, 63, 0
8, 393984, Note_on_c, 6, 65, 96
8, 394240, Note_off_c, 6, 65, 0
8, 394240, Note_on_c, 6, 67, 96
8, 394240, Note_on_c, 6, 63, 96
8, 394496, Note_off_c, 6, 67, 0
8, 394496, Note_on_c, 6, 68, 96
8, 394752, Note_off_c, 6, 68, 0
8, 394752, Note_on_c, 6, 70, 96
8, 394752, Note_off_c, 6, 63, 0
8, 395264, Note_on_c, 6, 58, 96
8, 395520, Note_off_c, 6, 70, 0
8, 395520, Note_on_c, 6, 68, 96
8, 395776, Note_off_c, 6, 68, 0
8, 395776, Note_on_c, 6, 67, 96
8, 395776, Note_off_c, 6, 58, 0
8, 396032, Note_off_c, 6, 67, 0
8, 396032, Note_on_c, 6, 65, 96
8, 396288, Note_off_c, 6, 65, 0
8, 396288, Note_on_c, 6, 63, 96
8, 396288, Note_on_c, 6, 60, 96
8, 396544, Note_off_c, 6, 63, 0
8, 396544, Note_on_c, 6, 65, 96
8, 396800, Note_off_c, 6, 65, 0
8, 396800, Note_on_c, 6, 67, 96
8, 396800, Note_off_c, 6, 60, 0
8, 397056, Note_off_c, 6, 67, 0
8, 397056, Note_on_c, 6, 68, 96
8, 397312, Note_off_c, 6, 68, 0
8, 397312, Note_on_c, 6, 70, 96
8, 397568, Note_off_c, 6, 70, 0
8, 397568, Note_on_c, 6, 72, 96
8, 397824, Note_off_c, 6, 72, 0
8, 397824, Note_on_c, 6, 74, 96
8, 398080, Note_off_c, 6, 74, 0
8, 398080, Note_on_c, 6, 75, 96
8, 398336, Note_off_c, 6, 75, 0
8, 398336, Note_on_c, 6, 77, 96
8, 398592, Note_off_c, 6, 77, 0
8, 398592, Note_on_c, 6, 74, 96
8, 398848, Note_off_c, 6, 74, 0
8, 398848, Note_on_c, 6, 75, 96
8, 399104, Note_off_c, 6, 75, 0
8, 399104, Note_on_c, 6, 77, 96
8, 399360, Note_off_c, 6, 77, 0
8, 399360, Note_on_c, 6, 79, 96
8, 399616, Note_off_c, 6, 79, 0
8, 399616, Note_on_c, 6, 58, 96
8, 399872, Note_off_c, 6, 58, 0
8, 399872, Note_on_c, 6, 60, 96
8, 400128, Note_off_c, 6, 60, 0
8, 400128, Note_on_c, 6, 62, 96
8, 400384, Note_off_c, 6, 62, 0
8, 400384, Note_on_c, 6, 63, 96
8, 400384, Note_on_c, 6, 72, 96
8, 400640, Note_off_c, 6, 63, 0
8, 400640, Note_on_c, 6, 65, 96
8, 400896, Note_off_c, 6, 65, 0
8, 400896, Note_on_c, 6, 67, 96
8, 400896, Note_off_c, 6, 72, 0
8, 401152, Note_off_c, 6, 67, 0
8, 401152, Note_on_c, 6, 68, 96
8, 401408, Note_off_c, 6, 68, 0
8, 401408, Note_on_c, 6, 70, 96
8, 401408, Note_on_c, 6, 67, 96
8, 401664, Note_off_c, 6, 70, 0
8, 401664, Note_on_c, 6, 67, 96
8, 401920, Note_off_c, 6, 67, 0
8, 401920, Note_on_c, 6, 65, 96
8, 401920, Note_off_c, 6, 67, 0
8, 402176, Note_off_c, 6, 65, 0
8, 402176, Note_on_c, 6, 63, 96
8, 402432, Note_off_c, 6, 63, 0
8, 402432, Note_on_c, 6, 75, 96
8, 402432, Note_on_c, 6, 68, 96
8, 402688, Note_off_c, 6, 75, 0
8, 402688, Note_on_c, 6, 60, 96
8, 402944, Note_off_c, 6, 60, 0
8, 402944, Note_on_c, 6, 61, 96
8, 402944, Note_off_c, 6, 68, 0
8, 403200, Note_off_c, 6, 61, 0
8, 403200, Note_on_c, 6, 63, 96
8, 403456, Note_off_c, 6, 63, 0
8, 403456, Note_on_c, 6, 65, 96
8, 403712, Note_off_c, 6, 65, 0
8, 403712, Note_on_c, 6, 67, 96
8, 403968, Note_off_c, 6, 67, 0
8, 403968, Note_on_c, 6, 68, 96
8, 404224, Note_off_c, 6, 68, 0
8, 404224, Note_on_c, 6, 70, 96
8, 404480, Note_off_c, 6, 70, 0
8, 404480, Note_on_c, 6, 72, 96
8, 404736, Note_off_c, 6, 72, 0
8, 404736, Note_on_c, 6, 73, 96
8, 404992, Note_off_c, 6, 73, 0
8, 404992, Note_on_c, 6, 75, 96
8, 405248, Note_off_c, 6, 75, 0
8, 405248, Note_on_c, 6, 77, 96
8, 405504, Note_off_c, 6, 77, 0
8, 405504, Note_on_c, 6, 70, 96
8, 405760, Note_off_c, 6, 70, 0
8, 405760, Note_on_c, 6, 82, 96
8, 406016, Note_off_c, 6, 82, 0
8, 406016, Note_on_c, 6, 80, 96
8, 406272, Note_off_c, 6, 80, 0
8, 406272, Note_on_c, 6, 79, 96
8, 406528, Note_off_c, 6, 79, 0
8, 406528, Note_on_c, 6, 80, 96
8, 406528, Note_on_c, 6, 72, 96
8, 406784, Note_off_c, 6, 80, 0
8, 406784, Note_on_c, 6, 82, 96
8, 407040, Note_off_c, 6, 82, 0
8, 407040, Note_on_c, 6, 84, 96
8, 407296, Note_off_c, 6, 84, 0
8, 407296, Note_on_c, 6, 80, 96
8, 407552, Note_off_c, 6, 80, 0
8, 407552, Note_on_c, 6, 75, 96
8, 407808, Note_off_c, 6, 75, 0
8, 407808, Note_on_c, 6, 80, 96
8, 408064, Note_off_c, 6, 80, 0
8, 408064, Note_on_c, 6, 79, 96
8, 408320, Note_off_c, 6, 79, 0
8, 408320, Note_on_c, 6, 77, 96
8, 408576, Note_off_c, 6, 77, 0
8, 408576, Note_off_c, 6, 72, 0
8, 408576, Note_on_c, 6, 79, 96
8, 408576, Note_on_c, 6, 70, 96
8, 409344, Note_off_c, 6, 79, 0
8, 409344, Note_on_c, 6, 67, 96
8, 409344, Note_off_c, 6, 70, 0
8, 409344, Note_on_c, 6, 63, 96
8, 409600, Note_off_c, 6, 67, 0
8, 409600, Note_on_c, 6, 67, 96
8, 409600, Note_off_c, 6, 63, 0
8, 409600, Note_on_c, 6, 63, 96
8, 410368, Note_off_c, 6, 67, 0
8, 410368, Note_on_c, 6, 67, 96
8, 410368, Note_off_c, 6, 63, 0
8, 410368, Note_on_c, 6, 63, 96
8, 410624, Note_off_c, 6, 67, 0
8, 410624, Note_on_c, 6, 67, 96
8, 410624, Note_off_c, 6, 63, 0
8, 410624, Note_on_c, 6, 65, 96
8, 411392, Note_off_c, 6, 67, 0
8, 411392, Note_on_c, 6, 67, 96
8, 411392, Note_off_c, 6, 65, 0
8, 411392, Note_on_c, 6, 65, 96
8, 411648, Note_off_c, 6, 67, 0
8, 411648, Note_off_c, 6, 65, 0
8, 411648, Note_on_c, 6, 67, 96
8, 411648, Note_on_c, 6, 63, 96
8, 413696, Note_off_c, 6, 67, 0
8, 413696, Note_off_c, 6, 63, 0
8, 415488, Note_on_c, 6, 72, 96
8, 415488, Note_on_c, 6, 63, 96
8, 415744, Note_off_c, 6, 72, 0
8, 415744, Note_on_c, 6, 72, 96
8, 415744, Note_off_c, 6, 63, 0
8, 415744, Note_on_c, 6, 63, 96
8, 416512, Note_off_c, 6, 72, 0
8, 416512, Note_on_c, 6, 72, 96
8, 416512, Note_off_c, 6, 63, 0
8, 416512, Note_on_c, 6, 60, 96
8, 416768, Note_off_c, 6, 72, 0
8, 416768, Note_on_c, 6, 72, 96
8, 416768, Note_off_c, 6, 60, 0
8, 416768, Note_on_c, 6, 69, 96
8, 417536, Note_off_c, 6, 72, 0
8, 417536, Note_on_c, 6, 72, 96
8, 417536, Note_off_c, 6, 69, 0
8, 417536, Note_on_c, 6, 69, 96
8, 417792, Note_off_c, 6, 72, 0
8, 417792, Note_off_c, 6, 69, 0
8, 417792, Note_on_c, 6, 72, 96
8, 417792, Note_on_c, 6, 69, 96
8, 419840, Note_off_c, 6, 72, 0
8, 419840, Note_off_c, 6, 69, 0
8, 424704, Note_on_c, 6, 70, 96
8, 424704, Note_on_c, 6, 67, 96
8, 424960, Note_off_c, 6, 70, 0
8, 424960, Note_on_c, 6, 70, 96
8, 424960, Note_off_c, 6, 67, 0
8, 424960, Note_on_c, 6, 67, 96
8, 425728, Note_off_c, 6, 70, 0
8, 425728, Note_on_c, 6, 70, 96
8, 425728, Note_off_c, 6, 67, 0
8, 425728, Note_on_c, 6, 67, 96
8, 425984, Note_off_c, 6, 70, 0
8, 425984, Note_on_c, 6, 70, 96
8, 425984, Note_off_c, 6, 67, 0
8, 425984, Note_on_c, 6, 65, 96
8, 426752, Note_off_c, 6, 70, 0
8, 426752, Note_on_c, 6, 70, 96
8, 426752, Note_off_c, 6, 65, 0
8, 426752, Note_on_c, 6, 65, 96
8, 427008, Note_off_c, 6, 70, 0
8, 427008, Note_off_c, 6, 65, 0
8, 430848, Note_on_c, 6, 69, 96
8, 430848, Note_on_c, 6, 65, 96
8, 431104, Note_off_c, 6, 69, 0
8, 431104, Note_on_c, 6, 69, 96
8, 431104, Note_off_c, 6, 65, 0
8, 431104, Note_on_c, 6, 65, 96
8, 431872, Note_off_c, 6, 69, 0
8, 431872, Note_on_c, 6, 69, 96
8, 431872, Note_off_c, 6, 65, 0
8, 431872, Note_on_c, 6, 65, 96
8, 432128, Note_off_c, 6, 69, 0
8, 432128, Note_on_c, 6, 69, 96
8, 432128, Note_off_c, 6, 65, 0
8, 432128, Note_on_c, 6, 63, 96
8, 432896, Note_off_c, 6, 69, 0
8, 432896, Note_on_c, 6, 69, 96
8, 432896, Note_off_c, 6, 63, 0
8, 432896, Note_on_c, 6, 63, 96
8, 433152, Note_off_c, 6, 69, 0
8, 433152, Note_off_c, 6, 63, 0
8, 433152, Note_on_c, 6, 70, 96
8, 433152, Note_on_c, 6, 62, 96
8, 435200, Note_off_c, 6, 70, 0
8, 435200, Note_off_c, 6, 62, 0
8, 436224, Note_on_c, 6, 75, 96
8, 438528, Note_off_c, 6, 75, 0
8, 438528, Note_on_c, 6, 70, 96
8, 438784, Note_off_c, 6, 70, 0
8, 438784, Note_on_c, 6, 67, 96
8, 439040, Note_off_c, 6, 67, 0
8, 439040, Note_on_c, 6, 70, 96
8, 439296, Note_off_c, 6, 70, 0
8, 439296, Note_on_c, 6, 77, 96
8, 439808, Note_off_c, 6, 77, 0
8, 442368, Note_on_c, 6, 82, 96
8, 444672, Note_off_c, 6, 82, 0
8, 444672, Note_on_c, 6, 75, 96
8, 444928, Note_off_c, 6, 75, 0
8, 444928, Note_on_c, 6, 74, 96
8, 445184, Note_off_c, 6, 74, 0
8, 445184, Note_on_c, 6, 72, 96
8, 445440, Note_off_c, 6, 72, 0
8, 445440, Note_on_c, 6, 70, 96
8, 445952, Note_off_c, 6, 70, 0
8, 448512, Note_on_c, 6, 63, 96
8, 449280, Note_off_c, 6, 63, 0
8, 449280, Note_on_c, 6, 63, 96
8, 449536, Note_off_c, 6, 63, 0
8, 449536, Note_on_c, 6, 63, 96
8, 449536, Note_on_c, 6, 63, 96
8, 450304, Note_off_c, 6, 63, 0
8, 450304, Note_on_c, 6, 63, 96
8, 450304, Note_off_c, 6, 63, 0
8, 450304, Note_on_c, 6, 63, 96
8, 450560, Note_off_c, 6, 63, 0
8, 450560, Note_on_c, 6, 63, 96
8, 450560, Note_off_c, 6, 63, 0
8, 450560, Note_on_c, 6, 63, 96
8, 451328, Note_off_c, 6, 63, 0
8, 451328, Note_on_c, 6, 63, 96
8, 451328, Note_off_c, 6, 63, 0
8, 451328, Note_on_c, 6, 63, 96
8, 451584, Note_off_c, 6, 63, 0
8, 451584, Note_off_c, 6, 63, 0
8, 451584, Note_on_c, 6, 63, 96
8, 451584, Note_on_c, 6, 63, 96
8, 453632, Note_off_c, 6, 63, 0
8, 453632, Note_off_c, 6, 63, 0
8, 454656, Note_on_c, 6, 65, 96
8, 455424, Note_off_c, 6, 65, 0
8, 455424, Note_on_c, 6, 65, 96
8, 455680, Note_off_c, 6, 65, 0
8, 455680, Note_on_c, 6, 65, 96
8, 455680, Note_on_c, 6, 65, 96
8, 456448, Note_off_c, 6, 65, 0
8, 456448, Note_on_c, 6, 65, 96
8, 456448, Note_off_c, 6, 65, 0
8, 456448, Note_on_c, 6, 65, 96
8, 456704, Note_off_c, 6, 65, 0
8, 456704, Note_on_c, 6, 65, 96
8, 456704, Note_off_c, 6, 65, 0
8, 456704, Note_on_c, 6, 65, 96
8, 457472, Note_off_c, 6, 65, 0
8, 457472, Note_on_c, 6, 65, 96
8, 457472, Note_off_c, 6, 65, 0
8, 457472, Note_on_c, 6, 65, 96
8, 457728, Note_off_c, 6, 65, 0
8, 457728, Note_off_c, 6, 65, 0
8, 457728, Note_on_c, 6, 65, 96
8, 457728, Note_on_c, 6, 65, 96
8, 459776, Note_off_c, 6, 65, 0
8, 459776, Note_off_c, 6, 65, 0
8, 460800, Note_on_c, 6, 70, 96
8, 460800, Note_on_c, 6, 65, 96
8, 461568, Note_off_c, 6, 70, 0
8, 461568, Note_on_c, 6, 70, 96
8, 461568, Note_off_c, 6, 65, 0
8, 461568, Note_on_c, 6, 65, 96
8, 461824, Note_off_c, 6, 70, 0
8, 461824, Note_on_c, 6, 70, 96
8, 461824, Note_off_c, 6, 65, 0
8, 461824, Note_on_c, 6, 64, 96
8, 462592, Note_off_c, 6, 70, 0
8, 462592, Note_on_c, 6, 70, 96
8, 462592, Note_off_c, 6, 64, 0
8, 462592, Note_on_c, 6, 64, 96
8, 462848, Note_off_c, 6, 70, 0
8, 462848, Note_on_c, 6, 70, 96
8, 462848, Note_off_c, 6, 64, 0
8, 462848, Note_on_c, 6, 64, 96
8, 463616, Note_off_c, 6, 70, 0
8, 463616, Note_on_c, 6, 70, 96
8, 463616, Note_off_c, 6, 64, 0
8, 463616, Note_on_c, 6, 64, 96
8, 463872, Note_off_c, 6, 70, 0
8, 463872, Note_off_c, 6, 64, 0
8, 463872, Note_on_c, 6, 68, 96
8, 463872, Note_on_c, 6, 65, 96
8, 465920, Note_off_c, 6, 68, 0
8, 465920, Note_off_c, 6, 65, 0
8, 466944, Note_on_c, 6, 77, 96
8, 466944, Note_on_c, 6, 68, 96
8, 467712, Note_off_c, 6, 77, 0
8, 467712, Note_on_c, 6, 77, 96
8, 467712, Note_off_c, 6, 68, 0
8, 467712, Note_on_c, 6, 68, 96
8, 467968, Note_off_c, 6, 77, 0
8, 467968, Note_on_c, 6, 77, 96
8, 467968, Note_off_c, 6, 68, 0
8, 467968, Note_on_c, 6, 68, 96
8, 468736, Note_off_c, 6, 77, 0
8, 468736, Note_on_c, 6, 77, 96
8, 468736, Note_off_c, 6, 68, 0
8, 468736, Note_on_c, 6, 68, 96
8, 468992, Note_off_c, 6, 77, 0
8, 468992, Note_on_c, 6, 77, 96
8, 468992, Note_off_c, 6, 68, 0
8, 468992, Note_on_c, 6, 68, 96
8, 469760, Note_off_c, 6, 77, 0
8, 469760, Note_on_c, 6, 77, 96
8, 469760, Note_off_c, 6, 68, 0
8, 469760, Note_on_c, 6, 68, 96
8, 470016, Note_off_c, 6, 77, 0
8, 470016, Note_off_c, 6, 68, 0
8, 470016, Note_on_c, 6, 77, 96
8, 470016, Note_on_c, 6, 67, 96
8, 471040, Note_off_c, 6, 67, 0
8, 471296, Note_off_c, 6, 77, 0
8, 471296, Note_on_c, 6, 72, 96
8, 471552, Note_off_c, 6, 72, 0
8, 471552, Note_on_c, 6, 71, 96
8, 471808, Note_off_c, 6, 71, 0
8, 471808, Note_on_c, 6, 69, 96
8, 472064, Note_off_c, 6, 69, 0
8, 472064, Note_on_c, 6, 67, 96
8, 472320, Note_off_c, 6, 67, 0
8, 472320, Note_on_c, 6, 74, 96
8, 472576, Note_off_c, 6, 74, 0
8, 472576, Note_on_c, 6, 75, 96
8, 472832, Note_off_c, 6, 75, 0
8, 472832, Note_on_c, 6, 77, 96
8, 473088, Note_off_c, 6, 77, 0
8, 473088, Note_on_c, 6, 79, 96
8, 473088, Note_on_c, 6, 67, 96
8, 473856, Note_off_c, 6, 79, 0
8, 473856, Note_on_c, 6, 77, 96
8, 473856, Note_off_c, 6, 67, 0
8, 473856, Note_on_c, 6, 68, 96
8, 474112, Note_off_c, 6, 77, 0
8, 474112, Note_on_c, 6, 75, 96
8, 474112, Note_off_c, 6, 68, 0
8, 474112, Note_on_c, 6, 67, 96
8, 475136, Note_off_c, 6, 75, 0
8, 475136, Note_on_c, 6, 74, 96
8, 475136, Note_off_c, 6, 67, 0
8, 475136, Note_on_c, 6, 67, 96
8, 476160, Note_off_c, 6, 74, 0
8, 476160, Note_off_c, 6, 67, 0
8, 476160, Note_on_c, 6, 72, 96
8, 476160, Note_on_c, 6, 67, 96
8, 478208, Note_off_c, 6, 72, 0
8, 478208, Note_off_c, 6, 67, 0
8, 479232, Note_on_c, 6, 72, 96
8, 479232, Note_on_c, 6, 63, 96
8, 480000, Note_off_c, 6, 72, 0
8, 480000, Note_on_c, 6, 72, 96
8, 480000, Note_off_c, 6, 63, 0
8, 480000, Note_on_c, 6, 63, 96
8, 480256, Note_off_c, 6, 72, 0
8, 480256, Note_on_c, 6, 72, 96
8, 480256, Note_off_c, 6, 63, 0
8, 480256, Note_on_c, 6, 65, 96
8, 481024, Note_off_c, 6, 72, 0
8, 481024, Note_on_c, 6, 72, 96
8, 481024, Note_off_c, 6, 65, 0
8, 481024, Note_on_c, 6, 65, 96
8, 481280, Note_off_c, 6, 72, 0
8, 481280, Note_on_c, 6, 72, 96
8, 481280, Note_off_c, 6, 65, 0
8, 481280, Note_on_c, 6, 67, 96
8, 482048, Note_off_c, 6, 72, 0
8, 482048, Note_on_c, 6, 72, 96
8, 482048, Note_off_c, 6, 67, 0
8, 482048, Note_on_c, 6, 67, 96
8, 482304, Note_off_c, 6, 72, 0
8, 482304, Note_off_c, 6, 67, 0
8, 482304, Note_on_c, 6, 72, 96
8, 482304, Note_on_c, 6, 68, 96
8, 484352, Note_off_c, 6, 72, 0
8, 484352, Note_off_c, 6, 68, 0
8, 485376, Note_on_c, 6, 77, 96
8, 485376, Note_on_c, 6, 71, 96
8, 486144, Note_off_c, 6, 77, 0
8, 486144, Note_on_c, 6, 77, 96
8, 486144, Note_off_c, 6, 71, 0
8, 486144, Note_on_c, 6, 71, 96
8, 486400, Note_off_c, 6, 77, 0
8, 486400, Note_on_c, 6, 77, 96
8, 486400, Note_off_c, 6, 71, 0
8, 486400, Note_on_c, 6, 74, 96
8, 487168, Note_off_c, 6, 77, 0
8, 487168, Note_on_c, 6, 77, 96
8, 487168, Note_off_c, 6, 74, 0
8, 487168, Note_on_c, 6, 74, 96
8, 487424, Note_off_c, 6, 77, 0
8, 487424, Note_on_c, 6, 77, 96
8, 487424, Note_off_c, 6, 74, 0
8, 487424, Note_on_c, 6, 74, 96
8, 488192, Note_off_c, 6, 77, 0
8, 488192, Note_on_c, 6, 77, 96
8, 488192, Note_off_c, 6, 74, 0
8, 488192, Note_on_c, 6, 74, 96
8, 488448, Note_off_c, 6, 77, 0
8, 488448, Note_off_c, 6, 74, 0
8, 488448, Note_on_c, 6, 75, 96
8, 488448, Note_on_c, 6, 72, 96
8, 490496, Note_off_c, 6, 75, 0
8, 490496, Note_off_c, 6, 72, 0
8, 491776, Note_on_c, 6, 58, 96
8, 492032, Note_off_c, 6, 58, 0
8, 492032, Note_on_c, 6, 60, 96
8, 492288, Note_off_c, 6, 60, 0
8, 492288, Note_on_c, 6, 62, 96
8, 492544, Note_off_c, 6, 62, 0
8, 492544, Note_on_c, 6, 63, 96
8, 492800, Note_off_c, 6, 63, 0
8, 492800, Note_on_c, 6, 65, 96
8, 493056, Note_off_c, 6, 65, 0
8, 493056, Note_on_c, 6, 67, 96
8, 493312, Note_off_c, 6, 67, 0
8, 493312, Note_on_c, 6, 68, 96
8, 493568, Note_off_c, 6, 68, 0
8, 493568, Note_on_c, 6, 70, 96
8, 493824, Note_off_c, 6, 70, 0
8, 493824, Note_on_c, 6, 72, 96
8, 494080, Note_off_c, 6, 72, 0
8, 494080, Note_on_c, 6, 73, 96
8, 494336, Note_off_c, 6, 73, 0
8, 494336, Note_on_c, 6, 75, 96
8, 494592, Note_off_c, 6, 75, 0
8, 494592, Note_on_c, 6, 72, 96
8, 494848, Note_off_c, 6, 72, 0
8, 494848, Note_on_c, 6, 60, 96
8, 495104, Note_off_c, 6, 60, 0
8, 495104, Note_on_c, 6, 62, 96
8, 495360, Note_off_c, 6, 62, 0
8, 495360, Note_on_c, 6, 63, 96
8, 495616, Note_off_c, 6, 63, 0
8, 495616, Note_on_c, 6, 65, 96
8, 495872, Note_off_c, 6, 65, 0
8, 495872, Note_on_c, 6, 67, 96
8, 496128, Note_off_c, 6, 67, 0
8, 496128, Note_on_c, 6, 68, 96
8, 496384, Note_off_c, 6, 68, 0
8, 496384, Note_on_c, 6, 70, 96
8, 496640, Note_off_c, 6, 70, 0
8, 496640, Note_on_c, 6, 72, 96
8, 496896, Note_off_c, 6, 72, 0
8, 496896, Note_on_c, 6, 74, 96
8, 497152, Note_off_c, 6, 74, 0
8, 497152, Note_on_c, 6, 75, 96
8, 497408, Note_off_c, 6, 75, 0
8, 497408, Note_on_c, 6, 77, 96
8, 497664, Note_off_c, 6, 77, 0
8, 497664, Note_on_c, 6, 74, 96
8, 497920, Note_off_c, 6, 74, 0
8, 497920, Note_on_c, 6, 62, 96
8, 498176, Note_off_c, 6, 62, 0
8, 498176, Note_on_c, 6, 63, 96
8, 498432, Note_off_c, 6, 63, 0
8, 498432, Note_on_c, 6, 65, 96
8, 498688, Note_off_c, 6, 65, 0
8, 498688, Note_on_c, 6, 67, 96
8, 498944, Note_off_c, 6, 67, 0
8, 498944, Note_on_c, 6, 69, 96
8, 499200, Note_off_c, 6, 69, 0
8, 499200, Note_on_c, 6, 71, 96
8, 499456, Note_off_c, 6, 71, 0
8, 499456, Note_on_c, 6, 72, 96
8, 499712, Note_off_c, 6, 72, 0
8, 499712, Note_on_c, 6, 74, 96
8, 499968, Note_off_c, 6, 74, 0
8, 499968, Note_on_c, 6, 75, 96
8, 500224, Note_off_c, 6, 75, 0
8, 500224, Note_on_c, 6, 77, 96
8, 500480, Note_off_c, 6, 77, 0
8, 500480, Note_on_c, 6, 79, 96
8, 500736, Note_off_c, 6, 79, 0
8, 500736, Note_on_c, 6, 75, 96
8, 504320, Note_off_c, 6, 75, 0
8, 504320, Note_on_c, 6, 75, 96
8, 504576, Note_off_c, 6, 75, 0
8, 504576, Note_on_c, 6, 77, 96
8, 504832, Note_off_c, 6, 77, 0
8, 504832, Note_on_c, 6, 79, 96
8, 504832, Note_on_c, 6, 70, 96
8, 505088, Note_off_c, 6, 79, 0
8, 505088, Note_on_c, 6, 80, 96
8, 505344, Note_off_c, 6, 80, 0
8, 505344, Note_on_c, 6, 82, 96
8, 505344, Note_off_c, 6, 70, 0
8, 505856, Note_on_c, 6, 67, 96
8, 506112, Note_off_c, 6, 82, 0
8, 506112, Note_on_c, 6, 84, 96
8, 506368, Note_off_c, 6, 84, 0
8, 506368, Note_on_c, 6, 80, 96
8, 506368, Note_off_c, 6, 67, 0
8, 506624, Note_off_c, 6, 80, 0
8, 506624, Note_on_c, 6, 82, 96
8, 506880, Note_off_c, 6, 82, 0
8, 506880, Note_on_c, 6, 84, 96
8, 506880, Note_on_c, 6, 63, 96
8, 507648, Note_off_c, 6, 84, 0
8, 507648, Note_on_c, 6, 68, 96
8, 507648, Note_off_c, 6, 63, 0
8, 507648, Note_on_c, 6, 63, 96
8, 507904, Note_off_c, 6, 68, 0
8, 507904, Note_on_c, 6, 68, 96
8, 507904, Note_off_c, 6, 63, 0
8, 507904, Note_on_c, 6, 63, 96
8, 508672, Note_off_c, 6, 68, 0
8, 508672, Note_on_c, 6, 68, 96
8, 508672, Note_off_c, 6, 63, 0
8, 508672, Note_on_c, 6, 63, 96
8, 508928, Note_off_c, 6, 68, 0
8, 508928, Note_on_c, 6, 68, 96
8, 508928, Note_off_c, 6, 63, 0
8, 508928, Note_on_c, 6, 63, 96
8, 509696, Note_off_c, 6, 68, 0
8, 509696, Note_on_c, 6, 68, 96
8, 509696, Note_off_c, 6, 63, 0
8, 509696, Note_on_c, 6, 63, 96
8, 509952, Note_off_c, 6, 68, 0
8, 509952, Note_off_c, 6, 63, 0
8, 509952, Note_on_c, 6, 68, 96
8, 509952, Note_on_c, 6, 65, 96
8, 512000, Note_off_c, 6, 68, 0
8, 512000, Note_off_c, 6, 65, 0
8, 513024, Note_on_c, 6, 70, 96
8, 513024, Note_on_c, 6, 65, 96
8, 513792, Note_off_c, 6, 70, 0
8, 513792, Note_on_c, 6, 70, 96
8, 513792, Note_off_c, 6, 65, 0
8, 513792, Note_on_c, 6, 65, 96
8, 514048, Note_off_c, 6, 70, 0
8, 514048, Note_on_c, 6, 70, 96
8, 514048, Note_off_c, 6, 65, 0
8, 514048, Note_on_c, 6, 68, 96
8, 514816, Note_off_c, 6, 70, 0
8, 514816, Note_on_c, 6, 70, 96
8, 514816, Note_off_c, 6, 68, 0
8, 514816, Note_on_c, 6, 68, 96
8, 515072, Note_off_c, 6, 70, 0
8, 515072, Note_on_c, 6, 70, 96
8, 515072, Note_off_c, 6, 68, 0
8, 515072, Note_on_c, 6, 68, 96
8, 515840, Note_off_c, 6, 70, 0
8, 515840, Note_on_c, 6, 70, 96
8, 515840, Note_off_c, 6, 68, 0
8, 515840, Note_on_c, 6, 68, 96
8, 516096, Note_off_c, 6, 70, 0
8, 516096, Note_off_c, 6, 68, 0
8, 516096, Note_on_c, 6, 70, 96
8, 516096, Note_on_c, 6, 67, 96
8, 518144, Note_off_c, 6, 70, 0
8, 518144, Note_off_c, 6, 67, 0
8, 519680, Note_on_c, 6, 68, 96
8, 519936, Note_off_c, 6, 68, 0
8, 519936, Note_on_c, 6, 70, 96
8, 520192, Note_off_c, 6, 70, 0
8, 520192, Note_on_c, 6, 72, 96
8, 520448, Note_off_c, 6, 72, 0
8, 520448, Note_on_c, 6, 73, 96
8, 520704, Note_off_c, 6, 73, 0
8, 520704, Note_on_c, 6, 75, 96
8, 521472, Note_off_c, 6, 75, 0
8, 521472, Note_on_c, 6, 72, 96
8, 521728, Note_off_c, 6, 72, 0
8, 521728, Note_on_c, 6, 70, 96
8, 521984, Note_off_c, 6, 70, 0
8, 521984, Note_on_c, 6, 68, 96
8, 522240, Note_off_c, 6, 68, 0
8, 522240, Note_on_c, 6, 70, 96
8, 522496, Note_off_c, 6, 70, 0
8, 522496, Note_on_c, 6, 75, 96
8, 522752, Note_off_c, 6, 75, 0
8, 522752, Note_on_c, 6, 70, 96
8, 523008, Note_off_c, 6, 70, 0
8, 523008, Note_on_c, 6, 67, 96
8, 523264, Note_off_c, 6, 67, 0
8, 523264, Note_on_c, 6, 63, 96
8, 523776, Note_off_c, 6, 63, 0
8, 525824, Note_on_c, 6, 67, 96
8, 526080, Note_off_c, 6, 67, 0
8, 526080, Note_on_c, 6, 69, 96
8, 526336, Note_off_c, 6, 69, 0
8, 526336, Note_on_c, 6, 71, 96
8, 526592, Note_off_c, 6, 71, 0
8, 526592, Note_on_c, 6, 72, 96
8, 526848, Note_off_c, 6, 72, 0
8, 526848, Note_on_c, 6, 74, 96
8, 527616, Note_off_c, 6, 74, 0
8, 527616, Note_on_c, 6, 71, 96
8, 527872, Note_off_c, 6, 71, 0
8, 527872, Note_on_c, 6, 69, 96
8, 528128, Note_off_c, 6, 69, 0
8, 528128, Note_on_c, 6, 67, 96
8, 528384, Note_off_c, 6, 67, 0
8, 528384, Note_on_c, 6, 79, 96
8, 528640, Note_off_c, 6, 79, 0
8, 528640, Note_on_c, 6, 77, 96
8, 528896, Note_off_c, 6, 77, 0
8, 528896, Note_on_c, 6, 75, 96
8, 529152, Note_off_c, 6, 75, 0
8, 529152, Note_on_c, 6, 74, 96
8, 529408, Note_off_c, 6, 74, 0
8, 529408, Note_on_c, 6, 72, 96
8, 529920, Note_off_c, 6, 72, 0
8, 531456, Note_on_c, 6, 63, 96
8, 531456, Note_on_c, 6, 58, 96
8, 531712, Note_off_c, 6, 63, 0
8, 531712, Note_on_c, 6, 65, 96
8, 531968, Note_off_c, 6, 65, 0
8, 531968, Note_on_c, 6, 67, 96
8, 531968, Note_off_c, 6, 58, 0
8, 532480, Note_on_c, 6, 58, 96
8, 532736, Note_off_c, 6, 67, 0
8, 532736, Note_on_c, 6, 68, 96
8, 532992, Note_off_c, 6, 68, 0
8, 532992, Note_on_c, 6, 70, 96
8, 532992, Note_off_c, 6, 58, 0
8, 533504, Note_on_c, 6, 63, 96
8, 533760, Note_off_c, 6, 70, 0
8, 533760, Note_on_c, 6, 72, 96
8, 534016, Note_off_c, 6, 72, 0
8, 534016, Note_on_c, 6, 73, 96
8, 534016, Note_off_c, 6, 63, 0
8, 534272, Note_off_c, 6, 73, 0
8, 534272, Note_on_c, 6, 70, 96
8, 534528, Note_off_c, 6, 70, 0
8, 534528, Note_on_c, 6, 72, 96
8, 534528, Note_on_c, 6, 63, 96
8, 534784, Note_off_c, 6, 72, 0
8, 534784, Note_on_c, 6, 70, 96
8, 535040, Note_off_c, 6, 70, 0
8, 535040, Note_on_c, 6, 68, 96
8, 535040, Note_off_c, 6, 63, 0
8, 535296, Note_off_c, 6, 68, 0
8, 535296, Note_on_c, 6, 67, 96
8, 535552, Note_off_c, 6, 67, 0
8, 535552, Note_on_c, 6, 68, 96
8, 536064, Note_off_c, 6, 68, 0
8, 537600, Note_on_c, 6, 65, 96
8, 537600, Note_on_c, 6, 60, 96
8, 537856, Note_off_c, 6, 65, 0
8, 537856, Note_on_c, 6, 67, 96
8, 538112, Note_off_c, 6, 67, 0
8, 538112, Note_on_c, 6, 69, 96
8, 538112, Note_off_c, 6, 60, 0
8, 538624, Note_on_c, 6, 60, 96
8, 538880, Note_off_c, 6, 69, 0
8, 538880, Note_on_c, 6, 70, 96
8, 539136, Note_off_c, 6, 70, 0
8, 539136, Note_on_c, 6, 72, 96
8, 539136, Note_off_c, 6, 60, 0
8, 539648, Note_on_c, 6, 65, 96
8, 539904, Note_off_c, 6, 72, 0
8, 539904, Note_on_c, 6, 74, 96
8, 540160, Note_off_c, 6, 74, 0
8, 540160, Note_on_c, 6, 75, 96
8, 540160, Note_off_c, 6, 65, 0
8, 540416, Note_off_c, 6, 75, 0
8, 540416, Note_on_c, 6, 72, 96
8, 540672, Note_off_c, 6, 72, 0
8, 540672, Note_on_c, 6, 74, 96
8, 540672, Note_on_c, 6, 65, 96
8, 540928, Note_off_c, 6, 74, 0
8, 540928, Note_on_c, 6, 75, 96
8, 541184, Note_off_c, 6, 75, 0
8, 541184, Note_on_c, 6, 77, 96
8, 541184, Note_off_c, 6, 65, 0
8, 541952, Note_off_c, 6, 77, 0
8, 541952, Note_on_c, 6, 79, 96
8, 542208, Note_off_c, 6, 79, 0
8, 542208, Note_on_c, 6, 80, 96
8, 543744, Note_on_c, 6, 74, 96
8, 544000, Note_off_c, 6, 80, 0
8, 544000, Note_on_c, 6, 70, 96
8, 544256, Note_off_c, 6, 70, 0
8, 544256, Note_on_c, 6, 69, 96
8, 544256, Note_off_c, 6, 74, 0
8, 544512, Note_off_c, 6, 69, 0
8, 544512, Note_on_c, 6, 70, 96
8, 544768, Note_off_c, 6, 70, 0
8, 544768, Note_on_c, 6, 62, 96
8, 544768, Note_on_c, 6, 77, 96
8, 545024, Note_off_c, 6, 62, 0
8, 545024, Note_on_c, 6, 70, 96
8, 545280, Note_off_c, 6, 70, 0
8, 545280, Note_on_c, 6, 69, 96
8, 545280, Note_off_c, 6, 77, 0
8, 545536, Note_off_c, 6, 69, 0
8, 545536, Note_on_c, 6, 70, 96
8, 545792, Note_off_c, 6, 70, 0
8, 545792, Note_on_c, 6, 80, 96
8, 545792, Note_on_c, 6, 74, 96
8, 546048, Note_off_c, 6, 80, 0
8, 546048, Note_on_c, 6, 70, 96
8, 546304, Note_off_c, 6, 70, 0
8, 546304, Note_on_c, 6, 69, 96
8, 546304, Note_off_c, 6, 74, 0
8, 546560, Note_off_c, 6, 69, 0
8, 546560, Note_on_c, 6, 70, 96
8, 546816, Note_off_c, 6, 70, 0
8, 546816, Note_on_c, 6, 79, 96
8, 546816, Note_on_c, 6, 70, 96
8, 547072, Note_off_c, 6, 79, 0
8, 547072, Note_on_c, 6, 67, 96
8, 547328, Note_off_c, 6, 67, 0
8, 547328, Note_on_c, 6, 65, 96
8, 547328, Note_off_c, 6, 70, 0
8, 547584, Note_off_c, 6, 65, 0
8, 547584, Note_on_c, 6, 67, 96
8, 547840, Note_off_c, 6, 67, 0
8, 547840, Note_on_c, 6, 63, 96
8, 548096, Note_off_c, 6, 63, 0
8, 548096, Note_on_c, 6, 67, 96
8, 548352, Note_off_c, 6, 67, 0
8, 548352, Note_on_c, 6, 65, 96
8, 548608, Note_off_c, 6, 65, 0
8, 548608, Note_on_c, 6, 67, 96
8, 548864, Note_off_c, 6, 67, 0
8, 548864, Note_on_c, 6, 70, 96
8, 549120, Note_off_c, 6, 70, 0
8, 549120, Note_on_c, 6, 67, 96
8, 549376, Note_off_c, 6, 67, 0
8, 549376, Note_on_c, 6, 65, 96
8, 549632, Note_off_c, 6, 65, 0
8, 549632, Note_on_c, 6, 67, 96
8, 549888, Note_off_c, 6, 67, 0
8, 549888, Note_on_c, 6, 63, 96
8, 550144, Note_off_c, 6, 63, 0
8, 550144, Note_on_c, 6, 75, 96
8, 550400, Note_off_c, 6, 75, 0
8, 550400, Note_on_c, 6, 74, 96
8, 550656, Note_off_c, 6, 74, 0
8, 550656, Note_on_c, 6, 75, 96
8, 550912, Note_off_c, 6, 75, 0
8, 550912, Note_on_c, 6, 72, 96
8, 551168, Note_off_c, 6, 72, 0
8, 551168, Note_on_c, 6, 75, 96
8, 551424, Note_off_c, 6, 75, 0
8, 551424, Note_on_c, 6, 74, 96
8, 551680, Note_off_c, 6, 74, 0
8, 551680, Note_on_c, 6, 75, 96
8, 551936, Note_off_c, 6, 75, 0
8, 551936, Note_on_c, 6, 79, 96
8, 552192, Note_off_c, 6, 79, 0
8, 552192, Note_on_c, 6, 75, 96
8, 552448, Note_off_c, 6, 75, 0
8, 552448, Note_on_c, 6, 74, 96
8, 552704, Note_off_c, 6, 74, 0
8, 552704, Note_on_c, 6, 75, 96
8, 552960, Note_off_c, 6, 75, 0
8, 552960, Note_on_c, 6, 70, 96
8, 553472, Note_off_c, 6, 70, 0
8, 559104, Note_on_c, 6, 63, 96
8, 559104, Note_on_c, 6, 58, 96
8, 559872, Note_off_c, 6, 63, 0
8, 559872, Note_on_c, 6, 63, 96
8, 559872, Note_off_c, 6, 58, 0
8, 559872, Note_on_c, 6, 58, 96
8, 560128, Note_off_c, 6, 63, 0
8, 560128, Note_on_c, 6, 63, 96
8, 560128, Note_off_c, 6, 58, 0
8, 560128, Note_on_c, 6, 60, 96
8, 560896, Note_off_c, 6, 63, 0
8, 560896, Note_on_c, 6, 63, 96
8, 560896, Note_off_c, 6, 60, 0
8, 560896, Note_on_c, 6, 60, 96
8, 561152, Note_off_c, 6, 63, 0
8, 561152, Note_on_c, 6, 63, 96
8, 561152, Note_off_c, 6, 60, 0
8, 561152, Note_on_c, 6, 55, 96
8, 561920, Note_off_c, 6, 63, 0
8, 561920, Note_on_c, 6, 63, 96
8, 561920, Note_off_c, 6, 55, 0
8, 561920, Note_on_c, 6, 55, 96
8, 562176, Note_off_c, 6, 63, 0
8, 562176, Note_off_c, 6, 55, 0
8, 562176, Note_on_c, 6, 63, 96
8, 562176, Note_on_c, 6, 60, 96
8, 564224, Note_off_c, 6, 63, 0
8, 564224, Note_off_c, 6, 60, 0
8, 565248, Note_on_c, 6, 68, 96
8, 565248, Note_on_c, 6, 62, 96
8, 566016, Note_off_c, 6, 68, 0
8, 566016, Note_on_c, 6, 68, 96
8, 566016, Note_off_c, 6, 62, 0
8, 566016, Note_on_c, 6, 62, 96
8, 566272, Note_off_c, 6, 68, 0
8, 566272, Note_on_c, 6, 68, 96
8, 566272, Note_off_c, 6, 62, 0
8, 566272, Note_on_c, 6, 62, 96
8, 567040, Note_off_c, 6, 68, 0
8, 567040, Note_on_c, 6, 68, 96
8, 567040, Note_off_c, 6, 62, 0
8, 567040, Note_on_c, 6, 62, 96
8, 567296, Note_off_c, 6, 68, 0
8, 567296, Note_on_c, 6, 68, 96
8, 567296, Note_off_c, 6, 62, 0
8, 567296, Note_on_c, 6, 62, 96
8, 568064, Note_off_c, 6, 68, 0
8, 568064, Note_on_c, 6, 68, 96
8, 568064, Note_off_c, 6, 62, 0
8, 568064, Note_on_c, 6, 62, 96
8, 568320, Note_off_c, 6, 68, 0
8, 568320, Note_off_c, 6, 62, 0
8, 568320, Note_on_c, 6, 67, 96
8, 568320, Note_on_c, 6, 58, 96
8, 570368, Note_off_c, 6, 67, 0
8, 570368, Note_off_c, 6, 58, 0
8, 571392, Note_on_c, 6, 63, 96
8, 571392, Note_on_c, 6, 58, 96
8, 571648, Note_off_c, 6, 63, 0
8, 571648, Note_on_c, 6, 65, 96
8, 571904, Note_off_c, 6, 65, 0
8, 571904, Note_on_c, 6, 67, 96
8, 571904, Note_off_c, 6, 58, 0
8, 572416, Note_on_c, 6, 63, 96
8, 572672, Note_off_c, 6, 67, 0
8, 572672, Note_on_c, 6, 68, 96
8, 572928, Note_off_c, 6, 68, 0
8, 572928, Note_on_c, 6, 70, 96
8, 572928, Note_off_c, 6, 63, 0
8, 573440, Note_on_c, 6, 63, 96
8, 573696, Note_off_c, 6, 70, 0
8, 573696, Note_on_c, 6, 72, 96
8, 573952, Note_off_c, 6, 72, 0
8, 573952, Note_on_c, 6, 73, 96
8, 573952, Note_off_c, 6, 63, 0
8, 574208, Note_off_c, 6, 73, 0
8, 574208, Note_on_c, 6, 70, 96
8, 574464, Note_off_c, 6, 70, 0
8, 574464, Note_on_c, 6, 75, 96
8, 574464, Note_on_c, 6, 63, 96
8, 574720, Note_off_c, 6, 75, 0
8, 574720, Note_on_c, 6, 77, 96
8, 574976, Note_off_c, 6, 77, 0
8, 574976, Note_on_c, 6, 75, 96
8, 574976, Note_off_c, 6, 63, 0
8, 575232, Note_off_c, 6, 75, 0
8, 575232, Note_on_c, 6, 73, 96
8, 575488, Note_off_c, 6, 73, 0
8, 575488, Note_on_c, 6, 72, 96
8, 575488, Note_on_c, 6, 63, 96
8, 575744, Note_off_c, 6, 72, 0
8, 575744, Note_on_c, 6, 73, 96
8, 576000, Note_off_c, 6, 73, 0
8, 576000, Note_on_c, 6, 72, 96
8, 576000, Note_off_c, 6, 63, 0
8, 576256, Note_off_c, 6, 72, 0
8, 576256, Note_on_c, 6, 70, 96
8, 576512, Note_off_c, 6, 70, 0
8, 576512, Note_on_c, 6, 68, 96
8, 576512, Note_on_c, 6, 60, 96
8, 576768, Note_off_c, 6, 68, 0
8, 576768, Note_on_c, 6, 65, 96
8, 577024, Note_off_c, 6, 65, 0
8, 577024, Note_on_c, 6, 63, 96
8, 577024, Note_off_c, 6, 60, 0
8, 577280, Note_off_c, 6, 63, 0
8, 577280, Note_on_c, 6, 62, 96
8, 577536, Note_off_c, 6, 62, 0
8, 577536, Note_on_c, 6, 63, 96
8, 577536, Note_on_c, 6, 58, 96
8, 578304, Note_off_c, 6, 63, 0
8, 578304, Note_on_c, 6, 63, 96
8, 578304, Note_off_c, 6, 58, 0
8, 578304, Note_on_c, 6, 58, 96
8, 578560, Note_off_c, 6, 63, 0
8, 578560, Note_on_c, 6, 63, 96
8, 578560, Note_off_c, 6, 58, 0
8, 578560, Note_on_c, 6, 58, 96
8, 579328, Note_off_c, 6, 63, 0
8, 579328, Note_on_c, 6, 63, 96
8, 579328, Note_off_c, 6, 58, 0
8, 579328, Note_on_c, 6, 58, 96
8, 579584, Note_off_c, 6, 63, 0
8, 579584, Note_on_c, 6, 63, 96
8, 579584, Note_off_c, 6, 58, 0
8, 579584, Note_on_c, 6, 58, 96
8, 580352, Note_off_c, 6, 63, 0
8, 580352, Note_on_c, 6, 63, 96
8, 580352, Note_off_c, 6, 58, 0
8, 580352, Note_on_c, 6, 58, 96
8, 580608, Note_off_c, 6, 63, 0
8, 580608, Note_off_c, 6, 58, 0
8, 580608, Note_on_c, 6, 63, 96
8, 580608, Note_on_c, 6, 60, 96
8, 582656, Note_off_c, 6, 63, 0
8, 582656, Note_off_c, 6, 60, 0
8, 583680, Note_on_c, 6, 65, 96
8, 583680, Note_on_c, 6, 60, 96
8, 584448, Note_off_c, 6, 65, 0
8, 584448, Note_on_c, 6, 65, 96
8, 584448, Note_off_c, 6, 60, 0
8, 584448, Note_on_c, 6, 60, 96
8, 584704, Note_off_c, 6, 65, 0
8, 584704, Note_on_c, 6, 65, 96
8, 584704, Note_off_c, 6, 60, 0
8, 584704, Note_on_c, 6, 63, 96
8, 585472, Note_off_c, 6, 65, 0
8, 585472, Note_on_c, 6, 65, 96
8, 585472, Note_off_c, 6, 63, 0
8, 585472, Note_on_c, 6, 63, 96
8, 585728, Note_off_c, 6, 65, 0
8, 585728, Note_on_c, 6, 65, 96
8, 585728, Note_off_c, 6, 63, 0
8, 585728, Note_on_c, 6, 63, 96
8, 586496, Note_off_c, 6, 65, 0
8, 586496, Note_on_c, 6, 65, 96
8, 586496, Note_off_c, 6, 63, 0
8, 586496, Note_on_c, 6, 63, 96
8, 586752, Note_off_c, 6, 65, 0
8, 586752, Note_off_c, 6, 63, 0
8, 586752, Note_on_c, 6, 65, 96
8, 586752, Note_on_c, 6, 62, 96
8, 588800, Note_off_c, 6, 65, 0
8, 588800, Note_off_c, 6, 62, 0
8, 589824, Note_on_c, 6, 63, 96
8, 589824, Note_on_c, 6, 58, 96
8, 590080, Note_off_c, 6, 63, 0
8, 590080, Note_on_c, 6, 65, 96
8, 590336, Note_off_c, 6, 65, 0
8, 590336, Note_on_c, 6, 67, 96
8, 590336, Note_off_c, 6, 58, 0
8, 590848, Note_on_c, 6, 63, 96
8, 591104, Note_off_c, 6, 67, 0
8, 591104, Note_on_c, 6, 68, 96
8, 591360, Note_off_c, 6, 68, 0
8, 591360, Note_on_c, 6, 70, 96
8, 591360, Note_off_c, 6, 63, 0
8, 591872, Note_on_c, 6, 63, 96
8, 592128, Note_off_c, 6, 70, 0
8, 592128, Note_on_c, 6, 67, 96
8, 592384, Note_off_c, 6, 67, 0
8, 592384, Note_on_c, 6, 65, 96
8, 592384, Note_off_c, 6, 63, 0
8, 592640, Note_off_c, 6, 65, 0
8, 592640, Note_on_c, 6, 63, 96
8, 592896, Note_off_c, 6, 63, 0
8, 592896, Note_on_c, 6, 65, 96
8, 592896, Note_on_c, 6, 62, 96
8, 593152, Note_off_c, 6, 65, 0
8, 593152, Note_on_c, 6, 70, 96
8, 593408, Note_off_c, 6, 70, 0
8, 593408, Note_on_c, 6, 65, 96
8, 593408, Note_off_c, 6, 62, 0
8, 593664, Note_off_c, 6, 65, 0
8, 593664, Note_on_c, 6, 62, 96
8, 593920, Note_off_c, 6, 62, 0
8, 593920, Note_on_c, 6, 58, 96
8, 594432, Note_off_c, 6, 58, 0
8, 595968, Note_on_c, 6, 65, 96
8, 595968, Note_on_c, 6, 60, 96
8, 596224, Note_off_c, 6, 65, 0
8, 596224, Note_on_c, 6, 67, 96
8, 596480, Note_off_c, 6, 67, 0
8, 596480, Note_on_c, 6, 68, 96
8, 596480, Note_off_c, 6, 60, 0
8, 596992, Note_on_c, 6, 65, 96
8, 597248, Note_off_c, 6, 68, 0
8, 597248, Note_on_c, 6, 70, 96
8, 597504, Note_off_c, 6, 70, 0
8, 597504, Note_on_c, 6, 72, 96
8, 597504, Note_off_c, 6, 65, 0
8, 598016, Note_on_c, 6, 67, 96
8, 598272, Note_off_c, 6, 72, 0
8, 598272, Note_on_c, 6, 71, 96
8, 598528, Note_off_c, 6, 71, 0
8, 598528, Note_on_c, 6, 72, 96
8, 598528, Note_off_c, 6, 67, 0
8, 598784, Note_off_c, 6, 72, 0
8, 598784, Note_on_c, 6, 74, 96
8, 599040, Note_off_c, 6, 74, 0
8, 599040, Note_on_c, 6, 75, 96
8, 599040, Note_on_c, 6, 72, 96
8, 599552, Note_off_c, 6, 72, 0
8, 600064, Note_on_c, 6, 67, 96
8, 600576, Note_off_c, 6, 67, 0
8, 601088, Note_on_c, 6, 67, 96
8, 601600, Note_off_c, 6, 67, 0
8, 602112, Note_on_c, 6, 63, 96
8, 602368, Note_off_c, 6, 75, 0
8, 602368, Note_on_c, 6, 58, 96
8, 602624, Note_off_c, 6, 58, 0
8, 602624, Note_on_c, 6, 60, 96
8, 602624, Note_off_c, 6, 63, 0
8, 602880, Note_off_c, 6, 60, 0
8, 602880, Note_on_c, 6, 62, 96
8, 603136, Note_off_c, 6, 62, 0
8, 603136, Note_on_c, 6, 63, 96
8, 603136, Note_on_c, 6, 75, 96
8, 603392, Note_off_c, 6, 63, 0
8, 603392, Note_on_c, 6, 65, 96
8, 603648, Note_off_c, 6, 65, 0
8, 603648, Note_on_c, 6, 67, 96
8, 603648, Note_off_c, 6, 75, 0
8, 603904, Note_off_c, 6, 67, 0
8, 603904, Note_on_c, 6, 68, 96
8, 604160, Note_off_c, 6, 68, 0
8, 604160, Note_on_c, 6, 70, 96
8, 604160, Note_on_c, 6, 75, 96
8, 604416, Note_off_c, 6, 70, 0
8, 604416, Note_on_c, 6, 72, 96
8, 604672, Note_off_c, 6, 72, 0
8, 604672, Note_on_c, 6, 73, 96
8, 604672, Note_off_c, 6, 75, 0
8, 604928, Note_off_c, 6, 73, 0
8, 604928, Note_on_c, 6, 70, 96
8, 605184, Note_off_c, 6, 70, 0
8, 605184, Note_on_c, 6, 72, 96
8, 605184, Note_on_c, 6, 75, 96
8, 605440, Note_off_c, 6, 72, 0
8, 605440, Note_on_c, 6, 60, 96
8, 605696, Note_off_c, 6, 60, 0
8, 605696, Note_on_c, 6, 62, 96
8, 605696, Note_off_c, 6, 75, 0
8, 605952, Note_off_c, 6, 62, 0
8, 605952, Note_on_c, 6, 63, 96
8, 606208, Note_off_c, 6, 63, 0
8, 606208, Note_on_c, 6, 65, 96
8, 606208, Note_on_c, 6, 68, 96
8, 606464, Note_off_c, 6, 65, 0
8, 606464, Note_on_c, 6, 67, 96
8, 606720, Note_off_c, 6, 67, 0
8, 606720, Note_on_c, 6, 68, 96
8, 606720, Note_off_c, 6, 68, 0
8, 606976, Note_off_c, 6, 68, 0
8, 606976, Note_on_c, 6, 70, 96
8, 607232, Note_off_c, 6, 70, 0
8, 607232, Note_on_c, 6, 72, 96
8, 607232, Note_on_c, 6, 68, 96
8, 607488, Note_off_c, 6, 72, 0
8, 607488, Note_on_c, 6, 74, 96
8, 607744, Note_off_c, 6, 74, 0
8, 607744, Note_on_c, 6, 75, 96
8, 607744, Note_off_c, 6, 68, 0
8, 608000, Note_off_c, 6, 75, 0
8, 608000, Note_on_c, 6, 72, 96
8, 608256, Note_off_c, 6, 72, 0
8, 608256, Note_on_c, 6, 77, 96
8, 608256, Note_on_c, 6, 70, 96
8, 608512, Note_off_c, 6, 77, 0
8, 608512, Note_on_c, 6, 62, 96
8, 608768, Note_off_c, 6, 62, 0
8, 608768, Note_on_c, 6, 63, 96
8, 608768, Note_off_c, 6, 70, 0
8, 609024, Note_off_c, 6, 63, 0
8, 609024, Note_on_c, 6, 65, 96
8, 609280, Note_off_c, 6, 65, 0
8, 609280, Note_on_c, 6, 67, 96
8, 609280, Note_on_c, 6, 70, 96
8, 609536, Note_off_c, 6, 67, 0
8, 609536, Note_on_c, 6, 68, 96
8, 609792, Note_off_c, 6, 68, 0
8, 609792, Note_on_c, 6, 70, 96
8, 609792, Note_off_c, 6, 70, 0
8, 610048, Note_off_c, 6, 70, 0
8, 610048, Note_on_c, 6, 72, 96
8, 610304, Note_off_c, 6, 72, 0
8, 610304, Note_on_c, 6, 74, 96
8, 610304, Note_on_c, 6, 67, 96
8, 610560, Note_off_c, 6, 74, 0
8, 610560, Note_on_c, 6, 75, 96
8, 610816, Note_off_c, 6, 75, 0
8, 610816, Note_on_c, 6, 77, 96
8, 610816, Note_off_c, 6, 67, 0
8, 611072, Note_off_c, 6, 77, 0
8, 611072, Note_on_c, 6, 79, 96
8, 611328, Note_off_c, 6, 79, 0
8, 611328, Note_on_c, 6, 80, 96
8, 611328, Note_on_c, 6, 65, 96
8, 611584, Note_off_c, 6, 80, 0
8, 611584, Note_on_c, 6, 65, 96
8, 611840, Note_off_c, 6, 65, 0
8, 611840, Note_on_c, 6, 67, 96
8, 611840, Note_off_c, 6, 65, 0
8, 612096, Note_off_c, 6, 67, 0
8, 612096, Note_on_c, 6, 68, 96
8, 612352, Note_off_c, 6, 68, 0
8, 612352, Note_on_c, 6, 70, 96
8, 612352, Note_on_c, 6, 77, 96
8, 612608, Note_off_c, 6, 70, 0
8, 612608, Note_on_c, 6, 72, 96
8, 612864, Note_off_c, 6, 72, 0
8, 612864, Note_on_c, 6, 74, 96
8, 612864, Note_off_c, 6, 77, 0
8, 613120, Note_off_c, 6, 74, 0
8, 613120, Note_on_c, 6, 75, 96
8, 613376, Note_off_c, 6, 75, 0
8, 613376, Note_on_c, 6, 77, 96
8, 613376, Note_on_c, 6, 70, 96
8, 613632, Note_off_c, 6, 77, 0
8, 613632, Note_on_c, 6, 79, 96
8, 613888, Note_off_c, 6, 79, 0
8, 613888, Note_on_c, 6, 80, 96
8, 613888, Note_off_c, 6, 70, 0
8, 614144, Note_off_c, 6, 80, 0
8, 614144, Note_on_c, 6, 77, 96
8, 614400, Note_off_c, 6, 77, 0
8, 614400, Note_on_c, 6, 79, 96
8, 614400, Note_on_c, 6, 74, 96
8, 614656, Note_off_c, 6, 79, 0
8, 614656, Note_on_c, 6, 67, 96
8, 614912, Note_off_c, 6, 67, 0
8, 614912, Note_on_c, 6, 69, 96
8, 614912, Note_off_c, 6, 74, 0
8, 615168, Note_off_c, 6, 69, 0
8, 615168, Note_on_c, 6, 71, 96
8, 615424, Note_off_c, 6, 71, 0
8, 615424, Note_on_c, 6, 72, 96
8, 615424, Note_on_c, 6, 67, 96
8, 615680, Note_off_c, 6, 72, 0
8, 615680, Note_on_c, 6, 74, 96
8, 615936, Note_off_c, 6, 74, 0
8, 615936, Note_on_c, 6, 75, 96
8, 615936, Note_off_c, 6, 67, 0
8, 616192, Note_off_c, 6, 75, 0
8, 616192, Note_on_c, 6, 77, 96
8, 616448, Note_off_c, 6, 77, 0
8, 616448, Note_on_c, 6, 79, 96
8, 616448, Note_on_c, 6, 75, 96
8, 616704, Note_off_c, 6, 79, 0
8, 616704, Note_on_c, 6, 81, 96
8, 616960, Note_off_c, 6, 81, 0
8, 616960, Note_on_c, 6, 82, 96
8, 616960, Note_off_c, 6, 75, 0
8, 617216, Note_off_c, 6, 82, 0
8, 617216, Note_on_c, 6, 79, 96
8, 617472, Note_off_c, 6, 79, 0
8, 617472, Note_on_c, 6, 84, 96
8, 617472, Note_on_c, 6, 77, 96
8, 617728, Note_off_c, 6, 84, 0
8, 617728, Note_on_c, 6, 75, 96
8, 617984, Note_off_c, 6, 75, 0
8, 617984, Note_on_c, 6, 74, 96
8, 617984, Note_off_c, 6, 77, 0
8, 618240, Note_off_c, 6, 74, 0
8, 618240, Note_on_c, 6, 75, 96
8, 618496, Note_off_c, 6, 75, 0
8, 618496, Note_on_c, 6, 65, 96
8, 618496, Note_on_c, 6, 72, 96
8, 618752, Note_off_c, 6, 65, 0
8, 618752, Note_on_c, 6, 67, 96
8, 619008, Note_off_c, 6, 67, 0
8, 619008, Note_on_c, 6, 69, 96
8, 619008, Note_off_c, 6, 72, 0
8, 619264, Note_off_c, 6, 69, 0
8, 619264, Note_on_c, 6, 70, 96
8, 619520, Note_off_c, 6, 70, 0
8, 619520, Note_on_c, 6, 72, 96
8, 619520, Note_on_c, 6, 72, 96
8, 619776, Note_off_c, 6, 72, 0
8, 619776, Note_on_c, 6, 74, 96
8, 620032, Note_off_c, 6, 74, 0
8, 620032, Note_on_c, 6, 75, 96
8, 620032, Note_off_c, 6, 72, 0
8, 620288, Note_off_c, 6, 75, 0
8, 620288, Note_on_c, 6, 72, 96
8, 620544, Note_off_c, 6, 72, 0
8, 620544, Note_on_c, 6, 74, 96
8, 620544, Note_on_c, 6, 65, 96
8, 620800, Note_off_c, 6, 74, 0
8, 620800, Note_on_c, 6, 72, 96
8, 621056, Note_off_c, 6, 72, 0
8, 621056, Note_on_c, 6, 74, 96
8, 621056, Note_off_c, 6, 65, 0
8, 621312, Note_off_c, 6, 74, 0
8, 621312, Note_on_c, 6, 77, 96
8, 621568, Note_off_c, 6, 77, 0
8, 621568, Note_on_c, 6, 70, 96
8, 621568, Note_on_c, 6, 65, 96
8, 621824, Note_off_c, 6, 70, 0
8, 621824, Note_on_c, 6, 72, 96
8, 622080, Note_off_c, 6, 72, 0
8, 622080, Note_on_c, 6, 74, 96
8, 622080, Note_off_c, 6, 65, 0
8, 622336, Note_off_c, 6, 74, 0
8, 622336, Note_on_c, 6, 75, 96
8, 622592, Note_off_c, 6, 75, 0
8, 622592, Note_on_c, 6, 77, 96
8, 622592, Note_on_c, 6, 65, 96
8, 622848, Note_off_c, 6, 77, 0
8, 622848, Note_on_c, 6, 79, 96
8, 623104, Note_off_c, 6, 79, 0
8, 623104, Note_on_c, 6, 80, 96
8, 623104, Note_off_c, 6, 65, 0
8, 623360, Note_off_c, 6, 80, 0
8, 623360, Note_on_c, 6, 77, 96
8, 623616, Note_off_c, 6, 77, 0
8, 623616, Note_on_c, 6, 82, 96
8, 623616, Note_on_c, 6, 67, 96
8, 624384, Note_off_c, 6, 82, 0
8, 624384, Note_on_c, 6, 80, 96
8, 624384, Note_off_c, 6, 67, 0
8, 624384, Note_on_c, 6, 77, 96
8, 624640, Note_off_c, 6, 80, 0
8, 624640, Note_on_c, 6, 79, 96
8, 624640, Note_off_c, 6, 77, 0
8, 624640, Note_on_c, 6, 75, 96
8, 625664, Note_off_c, 6, 79, 0
8, 625664, Note_on_c, 6, 77, 96
8, 625664, Note_off_c, 6, 75, 0
8, 625664, Note_on_c, 6, 74, 96
8, 626688, Note_off_c, 6, 77, 0
8, 626688, Note_off_c, 6, 74, 0
8, 626688, Note_on_c, 6, 75, 96
8, 626688, Note_on_c, 6, 70, 96
8, 629760, Note_off_c, 6, 75, 0
8, 629760, Note_off_c, 6, 70, 0
8, 629760, End_track
9, 0, Start_track
9, 0, Title_t, "Instrument 8"
9, 0, Note_on_c, 7, 55, 96
9, 768, Note_off_c, 7, 55, 0
9, 768, Note_on_c, 7, 55, 96
9, 1024, Note_off_c, 7, 55, 0
9, 1024, Note_on_c, 7, 55, 96
9, 1792, Note_off_c, 7, 55, 0
9, 1792, Note_on_c, 7, 55, 96
9, 2048, Note_off_c, 7, 55, 0
9, 2048, Note_on_c, 7, 55, 96
9, 2816, Note_off_c, 7, 55, 0
9, 2816, Note_on_c, 7, 55, 96
9, 3072, Note_off_c, 7, 55, 0
9, 3072, Note_on_c, 7, 55, 96
9, 3072, Note_on_c, 7, 55, 96
9, 3840, Note_off_c, 7, 55, 0
9, 3840, Note_on_c, 7, 55, 96
9, 4096, Note_off_c, 7, 55, 0
9, 4096, Note_on_c, 7, 55, 96
9, 4864, Note_off_c, 7, 55, 0
9, 4864, Note_on_c, 7, 55, 96
9, 5120, Note_off_c, 7, 55, 0
9, 5120, Note_on_c, 7, 55, 96
9, 5120, Note_off_c, 7, 55, 0
9, 5888, Note_off_c, 7, 55, 0
9, 5888, Note_on_c, 7, 55, 96
9, 6144, Note_off_c, 7, 55, 0
9, 6144, Note_on_c, 7, 53, 96
9, 6144, Note_on_c, 7, 56, 96
9, 6912, Note_off_c, 7, 56, 0
9, 6912, Note_on_c, 7, 56, 96
9, 7168, Note_off_c, 7, 56, 0
9, 7168, Note_on_c, 7, 60, 96
9, 7936, Note_off_c, 7, 60, 0
9, 7936, Note_on_c, 7, 60, 96
9, 8192, Note_off_c, 7, 53, 0
9, 8192, Note_off_c, 7, 60, 0
9, 8192, Note_on_c, 7, 56, 96
9, 8960, Note_off_c, 7, 56, 0
9, 8960, Note_on_c, 7, 56, 96
9, 9216, Note_off_c, 7, 56, 0
9, 9216, Note_on_c, 7, 53, 96
9, 9216, Note_on_c, 7, 53, 96
9, 9984, Note_off_c, 7, 53, 0
9, 9984, Note_on_c, 7, 53, 96
9, 10240, Note_off_c, 7, 53, 0
9, 10240, Note_on_c, 7, 58, 96
9, 11008, Note_off_c, 7, 58, 0
9, 11008, Note_on_c, 7, 58, 96
9, 11264, Note_off_c, 7, 58, 0
9, 11264, Note_on_c, 7, 62, 96
9, 11264, Note_off_c, 7, 53, 0
9, 12032, Note_off_c, 7, 62, 0
9, 12032, Note_on_c, 7, 62, 96
9, 12288, Note_off_c, 7, 62, 0
9, 12288, Note_on_c, 7, 58, 96
9, 12288, Note_on_c, 7, 55, 96
9, 12800, Note_off_c, 7, 55, 0
9, 13312, Note_on_c, 7, 58, 96
9, 13824, Note_off_c, 7, 58, 0
9, 14336, Note_off_c, 7, 58, 0
9, 14336, Note_on_c, 7, 58, 96
9, 14848, Note_off_c, 7, 58, 0
9, 15360, Note_on_c, 7, 62, 96
9, 15360, Note_on_c, 7, 58, 96
9, 15872, Note_off_c, 7, 62, 0
9, 15872, Note_off_c, 7, 58, 0
9, 16384, Note_on_c, 7, 65, 96
9, 16896, Note_off_c, 7, 65, 0
9, 17408, Note_on_c, 7, 65, 96
9, 17920, Note_off_c, 7, 65, 0
9, 18432, Note_on_c, 7, 65, 96
9, 18432, Note_on_c, 7, 56, 96
9, 18944, Note_off_c, 7, 65, 0
9, 18944, Note_off_c, 7, 56, 0
9, 19456, Note_on_c, 7, 60, 96
9, 19968, Note_off_c, 7, 60, 0
9, 20480, Note_on_c, 7, 63, 96
9, 20992, Note_off_c, 7, 63, 0
9, 21504, Note_on_c, 7, 63, 96
9, 21504, Note_on_c, 7, 67, 96
9, 22016, Note_off_c, 7, 63, 0
9, 22016, Note_off_c, 7, 67, 0
9, 22528, Note_on_c, 7, 67, 96
9, 22528, Note_on_c, 7, 60, 96
9, 23040, Note_off_c, 7, 67, 0
9, 23040, Note_off_c, 7, 60, 0
9, 23552, Note_on_c, 7, 72, 96
9, 23552, Note_on_c, 7, 60, 96
9, 24064, Note_off_c, 7, 72, 0
9, 24064, Note_off_c, 7, 60, 0
9, 24576, Note_on_c, 7, 70, 96
9, 24576, Note_on_c, 7, 67, 96
9, 25088, Note_off_c, 7, 70, 0
9, 25088, Note_off_c, 7, 67, 0
9, 25600, Note_on_c, 7, 63, 96
9, 25600, Note_on_c, 7, 70, 96
9, 26112, Note_off_c, 7, 63, 0
9, 26112, Note_off_c, 7, 70, 0
9, 26624, Note_on_c, 7, 67, 96
9, 26624, Note_on_c, 7, 70, 96
9, 27136, Note_off_c, 7, 67, 0
9, 27136, Note_off_c, 7, 70, 0
9, 27648, Note_on_c, 7, 63, 96
9, 27648, Note_on_c, 7, 68, 96
9, 28160, Note_off_c, 7, 63, 0
9, 28160, Note_off_c, 7, 68, 0
9, 28672, Note_on_c, 7, 72, 96
9, 28672, Note_on_c, 7, 60, 96
9, 29184, Note_off_c, 7, 60, 0
9, 29696, Note_on_c, 7, 65, 96
9, 30208, Note_off_c, 7, 65, 0
9, 30720, Note_off_c, 7, 72, 0
9, 30720, Note_on_c, 7, 70, 96
9, 30720, Note_on_c, 7, 65, 96
9, 31232, Note_off_c, 7, 70, 0
9, 31232, Note_off_c, 7, 65, 0
9, 31744, Note_on_c, 7, 70, 96
9, 31744, Note_on_c, 7, 58, 96
9, 32256, Note_off_c, 7, 70, 0
9, 32256, Note_off_c, 7, 58, 0
9, 32768, Note_on_c, 7, 63, 96
9, 32768, Note_on_c, 7, 63, 96
9, 33280, Note_off_c, 7, 63, 0
9, 33280, Note_off_c, 7, 63, 0
9, 33792, Note_on_c, 7, 60, 96
9, 33792, Note_on_c, 7, 56, 96
9, 34304, Note_off_c, 7, 60, 0
9, 34304, Note_off_c, 7, 56, 0
9, 34816, Note_on_c, 7, 62, 96
9, 34816, Note_on_c, 7, 68, 96
9, 35328, Note_off_c, 7, 68, 0
9, 35840, Note_on_c, 7, 65, 96
9, 36352, Note_off_c, 7, 65, 0
9, 36864, Note_off_c, 7, 62, 0
9, 36864, Note_on_c, 7, 67, 96
9, 36864, Note_on_c, 7, 71, 96
9, 37376, Note_off_c, 7, 67, 0
9, 37376, Note_off_c, 7, 71, 0
9, 37888, Note_on_c, 7, 67, 96
9, 37888, Note_on_c, 7, 63, 96
9, 38400, Note_off_c, 7, 67, 0
9, 38400, Note_off_c, 7, 63, 0
9, 38912, Note_on_c, 7, 67, 96
9, 38912, Note_on_c, 7, 60, 96
9, 39424, Note_off_c, 7, 67, 0
9, 39424, Note_off_c, 7, 60, 0
9, 39936, Note_on_c, 7, 60, 96
9, 39936, Note_on_c, 7, 60, 96
9, 40448, Note_off_c, 7, 60, 0
9, 40448, Note_off_c, 7, 60, 0
9, 40960, Note_on_c, 7, 60, 96
9, 40960, Note_on_c, 7, 57, 96
9, 41472, Note_off_c, 7, 60, 0
9, 41472, Note_off_c, 7, 57, 0
9, 41984, Note_on_c, 7, 60, 96
9, 41984, Note_on_c, 7, 53, 96
9, 42496, Note_off_c, 7, 60, 0
9, 42496, Note_off_c, 7, 53, 0
9, 43008, Note_on_c, 7, 58, 96
9, 43008, Note_on_c, 7, 58, 96
9, 43520, Note_off_c, 7, 58, 0
9, 43520, Note_off_c, 7, 58, 0
9, 44032, Note_on_c, 7, 65, 96
9, 44032, Note_on_c, 7, 58, 96
9, 44544, Note_off_c, 7, 65, 0
9, 44544, Note_off_c, 7, 58, 0
9, 45056, Note_on_c, 7, 70, 96
9, 45056, Note_on_c, 7, 58, 96
9, 45568, Note_off_c, 7, 70, 0
9, 45568, Note_off_c, 7, 58, 0
9, 46080, Note_on_c, 7, 63, 96
9, 46080, Note_on_c, 7, 58, 96
9, 46848, Note_off_c, 7, 63, 0
9, 46848, Note_on_c, 7, 72, 96
9, 46848, Note_off_c, 7, 58, 0
9, 46848, Note_on_c, 7, 72, 96
9, 47104, Note_off_c, 7, 72, 0
9, 47104, Note_on_c, 7, 70, 96
9, 47104, Note_off_c, 7, 72, 0
9, 47104, Note_on_c, 7, 70, 96
9, 48128, Note_off_c, 7, 70, 0
9, 48128, Note_on_c, 7, 68, 96
9, 48128, Note_off_c, 7, 70, 0
9, 48128, Note_on_c, 7, 68, 96
9, 49152, Note_off_c, 7, 68, 0
9, 49152, Note_off_c, 7, 68, 0
9, 49152, Note_on_c, 7, 67, 96
9, 49152, Note_on_c, 7, 67, 96
9, 49920, Note_off_c, 7, 67, 0
9, 49920, Note_on_c, 7, 55, 96
9, 50176, Note_off_c, 7, 67, 0
9, 50176, Note_off_c, 7, 55, 0
9, 50176, Note_on_c, 7, 55, 96
9, 50944, Note_off_c, 7, 55, 0
9, 50944, Note_on_c, 7, 55, 96
9, 51200, Note_off_c, 7, 55, 0
9, 51200, Note_on_c, 7, 55, 96
9, 51968, Note_off_c, 7, 55, 0
9, 51968, Note_on_c, 7, 55, 96
9, 52224, Note_off_c, 7, 55, 0
9, 52224, Note_on_c, 7, 55, 96
9, 52992, Note_on_c, 7, 55, 96
9, 53248, Note_off_c, 7, 55, 0
9, 53248, Note_on_c, 7, 55, 96
9, 54016, Note_off_c, 7, 55, 0
9, 54016, Note_on_c, 7, 55, 96
9, 54272, Note_off_c, 7, 55, 0
9, 54272, Note_on_c, 7, 60, 96
9, 54272, Note_off_c, 7, 55, 0
9, 55040, Note_off_c, 7, 60, 0
9, 55040, Note_on_c, 7, 60, 96
9, 55296, Note_off_c, 7, 60, 0
9, 55296, Note_on_c, 7, 58, 96
9, 56320, Note_off_c, 7, 58, 0
9, 73728, Note_on_c, 7, 62, 96
9, 74496, Note_off_c, 7, 62, 0
9, 74496, Note_on_c, 7, 62, 96
9, 74752, Note_off_c, 7, 62, 0
9, 74752, Note_on_c, 7, 62, 96
9, 75520, Note_off_c, 7, 62, 0
9, 75520, Note_on_c, 7, 62, 96
9, 75776, Note_off_c, 7, 62, 0
9, 75776, Note_on_c, 7, 62, 96
9, 76544, Note_off_c, 7, 62, 0
9, 76544, Note_on_c, 7, 62, 96
9, 76800, Note_off_c, 7, 62, 0
9, 76800, Note_on_c, 7, 62, 96
9, 76800, Note_on_c, 7, 62, 96
9, 77568, Note_off_c, 7, 62, 0
9, 77568, Note_on_c, 7, 62, 96
9, 77824, Note_off_c, 7, 62, 0
9, 77824, Note_on_c, 7, 62, 96
9, 78592, Note_off_c, 7, 62, 0
9, 78592, Note_on_c, 7, 62, 96
9, 78848, Note_off_c, 7, 62, 0
9, 78848, Note_off_c, 7, 62, 0
9, 78848, Note_on_c, 7, 62, 96
9, 79616, Note_off_c, 7, 62, 0
9, 79616, Note_on_c, 7, 62, 96
9, 79872, Note_off_c, 7, 62, 0
9, 79872, Note_on_c, 7, 63, 96
9, 79872, Note_on_c, 7, 60, 96
9, 80640, Note_off_c, 7, 63, 0
9, 80640, Note_on_c, 7, 63, 96
9, 80896, Note_off_c, 7, 63, 0
9, 80896, Note_on_c, 7, 67, 96
9, 81664, Note_off_c, 7, 67, 0
9, 81664, Note_on_c, 7, 67, 96
9, 81920, Note_off_c, 7, 67, 0
9, 81920, Note_on_c, 7, 63, 96
9, 81920, Note_off_c, 7, 60, 0
9, 82688, Note_off_c, 7, 63, 0
9, 82688, Note_on_c, 7, 63, 96
9, 82944, Note_off_c, 7, 63, 0
9, 82944, Note_on_c, 7, 60, 96
9, 82944, Note_on_c, 7, 60, 96
9, 83712, Note_off_c, 7, 60, 0
9, 83712, Note_on_c, 7, 60, 96
9, 83968, Note_off_c, 7, 60, 0
9, 83968, Note_on_c, 7, 65, 96
9, 84736, Note_off_c, 7, 65, 0
9, 84736, Note_on_c, 7, 65, 96
9, 84992, Note_off_c, 7, 60, 0
9, 84992, Note_off_c, 7, 65, 0
9, 84992, Note_on_c, 7, 69, 96
9, 85760, Note_off_c, 7, 69, 0
9, 85760, Note_on_c, 7, 69, 96
9, 86016, Note_off_c, 7, 69, 0
9, 86016, Note_on_c, 7, 65, 96
9, 88064, Note_off_c, 7, 65, 0
9, 113664, Note_on_c, 7, 62, 96
9, 114176, Note_off_c, 7, 62, 0
9, 114688, Note_on_c, 7, 58, 96
9, 115200, Note_off_c, 7, 58, 0
9, 115712, Note_on_c, 7, 65, 96
9, 116224, Note_off_c, 7, 65, 0
9, 116736, Note_on_c, 7, 58, 96
9, 116736, Note_on_c, 7, 63, 96
9, 117248, Note_off_c, 7, 58, 0
9, 117248, Note_off_c, 7, 63, 0
9, 117760, Note_on_c, 7, 58, 96
9, 118272, Note_off_c, 7, 58, 0
9, 118784, Note_on_c, 7, 58, 96
9, 119296, Note_off_c, 7, 58, 0
9, 119808, Note_on_c, 7, 55, 96
9, 119808, Note_on_c, 7, 60, 96
9, 120320, Note_off_c, 7, 55, 0
9, 120320, Note_off_c, 7, 60, 0
9, 120832, Note_on_c, 7, 60, 96
9, 121344, Note_off_c, 7, 60, 0
9, 121856, Note_on_c, 7, 67, 96
9, 122368, Note_off_c, 7, 67, 0
9, 122880, Note_on_c, 7, 56, 96
9, 122880, Note_on_c, 7, 65, 96
9, 123392, Note_off_c, 7, 56, 0
9, 123392, Note_off_c, 7, 65, 0
9, 123904, Note_on_c, 7, 60, 96
9, 124416, Note_off_c, 7, 60, 0
9, 124928, Note_on_c, 7, 60, 96
9, 125440, Note_off_c, 7, 60, 0
9, 125952, Note_on_c, 7, 58, 96
9, 125952, Note_on_c, 7, 65, 96
9, 126464, Note_off_c, 7, 58, 0
9, 126464, Note_off_c, 7, 65, 0
9, 126976, Note_on_c, 7, 70, 96
9, 126976, Note_on_c, 7, 65, 96
9, 127488, Note_off_c, 7, 70, 0
9, 127488, Note_off_c, 7, 65, 0
9, 128000, Note_on_c, 7, 65, 96
9, 128000, Note_on_c, 7, 58, 96
9, 128512, Note_off_c, 7, 65, 0
9, 128512, Note_off_c, 7, 58, 0
9, 129024, Note_on_c, 7, 67, 96
9, 129024, Note_on_c, 7, 58, 96
9, 129536, Note_off_c, 7, 67, 0
9, 129536, Note_off_c, 7, 58, 0
9, 138240, Note_on_c, 7, 56, 96
9, 139008, Note_off_c, 7, 56, 0
9, 139008, Note_on_c, 7, 56, 96
9, 139264, Note_off_c, 7, 56, 0
9, 139264, Note_on_c, 7, 60, 96
9, 140032, Note_off_c, 7, 60, 0
9, 140032, Note_on_c, 7, 60, 96
9, 140288, Note_off_c, 7, 60, 0
9, 140288, Note_on_c, 7, 60, 96
9, 141056, Note_off_c, 7, 60, 0
9, 141056, Note_on_c, 7, 60, 96
9, 141312, Note_off_c, 7, 60, 0
9, 141312, Note_on_c, 7, 58, 96
9, 141312, Note_on_c, 7, 55, 96
9, 142080, Note_off_c, 7, 55, 0
9, 142080, Note_on_c, 7, 55, 96
9, 142336, Note_off_c, 7, 55, 0
9, 142336, Note_on_c, 7, 55, 96
9, 143104, Note_off_c, 7, 55, 0
9, 143104, Note_on_c, 7, 55, 96
9, 143360, Note_off_c, 7, 58, 0
9, 143360, Note_off_c, 7, 55, 0
9, 143360, Note_on_c, 7, 60, 96
9, 144128, Note_off_c, 7, 60, 0
9, 144128, Note_on_c, 7, 60, 96
9, 144384, Note_off_c, 7, 60, 0
9, 144384, Note_on_c, 7, 56, 96
9, 144384, Note_on_c, 7, 53, 96
9, 145152, Note_off_c, 7, 56, 0
9, 145152, Note_on_c, 7, 56, 96
9, 145408, Note_off_c, 7, 56, 0
9, 145408, Note_on_c, 7, 56, 96
9, 146176, Note_off_c, 7, 56, 0
9, 146176, Note_on_c, 7, 56, 96
9, 146432, Note_off_c, 7, 56, 0
9, 146432, Note_on_c, 7, 53, 96
9, 146432, Note_off_c, 7, 53, 0
9, 147200, Note_off_c, 7, 53, 0
9, 147200, Note_on_c, 7, 53, 96
9, 147456, Note_off_c, 7, 53, 0
9, 147456, Note_on_c, 7, 58, 96
9, 147456, Note_on_c, 7, 53, 96
9, 148224, Note_off_c, 7, 53, 0
9, 148224, Note_on_c, 7, 53, 96
9, 148480, Note_off_c, 7, 53, 0
9, 148480, Note_on_c, 7, 53, 96
9, 149248, Note_off_c, 7, 53, 0
9, 149248, Note_on_c, 7, 53, 96
9, 149504, Note_off_c, 7, 58, 0
9, 149504, Note_off_c, 7, 53, 0
9, 149504, Note_on_c, 7, 53, 96
9, 150272, Note_off_c, 7, 53, 0
9, 150272, Note_on_c, 7, 53, 96
9, 150528, Note_off_c, 7, 53, 0
9, 150528, Note_on_c, 7, 58, 96
9, 150528, Note_on_c, 7, 51, 96
9, 151040, Note_off_c, 7, 58, 0
9, 151552, Note_on_c, 7, 63, 96
9, 152064, Note_off_c, 7, 63, 0
9, 152576, Note_on_c, 7, 63, 96
9, 152576, Note_off_c, 7, 51, 0
9, 153088, Note_off_c, 7, 63, 0
9, 153600, Note_on_c, 7, 63, 96
9, 153600, Note_on_c, 7, 55, 96
9, 154112, Note_off_c, 7, 63, 0
9, 154112, Note_off_c, 7, 55, 0
9, 154624, Note_on_c, 7, 67, 96
9, 155136, Note_off_c, 7, 67, 0
9, 155648, Note_on_c, 7, 67, 96
9, 156160, Note_off_c, 7, 67, 0
9, 156672, Note_on_c, 7, 60, 96
9, 156672, Note_on_c, 7, 60, 96
9, 157184, Note_off_c, 7, 60, 0
9, 157184, Note_off_c, 7, 60, 0
9, 157696, Note_on_c, 7, 68, 96
9, 157696, Note_on_c, 7, 63, 96
9, 158208, Note_off_c, 7, 68, 0
9, 158208, Note_off_c, 7, 63, 0
9, 158720, Note_on_c, 7, 63, 96
9, 158720, Note_on_c, 7, 63, 96
9, 159232, Note_off_c, 7, 63, 0
9, 159232, Note_off_c, 7, 63, 0
9, 159744, Note_on_c, 7, 63, 96
9, 159744, Note_on_c, 7, 55, 96
9, 160256, Note_off_c, 7, 63, 0
9, 160512, Note_off_c, 7, 55, 0
9, 160512, Note_on_c, 7, 55, 96
9, 160768, Note_off_c, 7, 55, 0
9, 160768, Note_on_c, 7, 55, 96
9, 161536, Note_off_c, 7, 55, 0
9, 161536, Note_on_c, 7, 55, 96
9, 161792, Note_off_c, 7, 55, 0
9, 161792, Note_on_c, 7, 55, 96
9, 162304, Note_off_c, 7, 55, 0
9, 162304, Note_on_c, 7, 55, 96
9, 162560, Note_off_c, 7, 55, 0
9, 162816, Note_on_c, 7, 55, 96
9, 162816, Note_on_c, 7, 55, 96
9, 163584, Note_off_c, 7, 55, 0
9, 163584, Note_on_c, 7, 55, 96
9, 163840, Note_off_c, 7, 55, 0
9, 163840, Note_on_c, 7, 55, 96
9, 164608, Note_off_c, 7, 55, 0
9, 164608, Note_on_c, 7, 55, 96
9, 164864, Note_off_c, 7, 55, 0
9, 164864, Note_on_c, 7, 55, 96
9, 164864, Note_off_c, 7, 55, 0
9, 165632, Note_off_c, 7, 55, 0
9, 165632, Note_on_c, 7, 55, 96
9, 165888, Note_off_c, 7, 55, 0
9, 165888, Note_on_c, 7, 53, 96
9, 165888, Note_on_c, 7, 56, 96
9, 166656, Note_off_c, 7, 56, 0
9, 166656, Note_on_c, 7, 56, 96
9, 166912, Note_off_c, 7, 56, 0
9, 166912, Note_on_c, 7, 60, 96
9, 167680, Note_off_c, 7, 60, 0
9, 167680, Note_on_c, 7, 60, 96
9, 167936, Note_off_c, 7, 53, 0
9, 167936, Note_off_c, 7, 60, 0
9, 167936, Note_on_c, 7, 56, 96
9, 168704, Note_off_c, 7, 56, 0
9, 168704, Note_on_c, 7, 56, 96
9, 168960, Note_off_c, 7, 56, 0
9, 168960, Note_on_c, 7, 53, 96
9, 168960, Note_on_c, 7, 53, 96
9, 169728, Note_off_c, 7, 53, 0
9, 169728, Note_on_c, 7, 53, 96
9, 169984, Note_off_c, 7, 53, 0
9, 169984, Note_on_c, 7, 58, 96
9, 170752, Note_off_c, 7, 58, 0
9, 170752, Note_on_c, 7, 58, 96
9, 171008, Note_off_c, 7, 58, 0
9, 171008, Note_on_c, 7, 62, 96
9, 171008, Note_off_c, 7, 53, 0
9, 171776, Note_off_c, 7, 62, 0
9, 171776, Note_on_c, 7, 62, 96
9, 172032, Note_off_c, 7, 62, 0
9, 172032, Note_on_c, 7, 58, 96
9, 172032, Note_on_c, 7, 55, 96
9, 172544, Note_off_c, 7, 55, 0
9, 173056, Note_on_c, 7, 58, 96
9, 173568, Note_off_c, 7, 58, 0
9, 174080, Note_off_c, 7, 58, 0
9, 174080, Note_on_c, 7, 58, 96
9, 174592, Note_off_c, 7, 58, 0
9, 175104, Note_on_c, 7, 62, 96
9, 175104, Note_on_c, 7, 58, 96
9, 175616, Note_off_c, 7, 62, 0
9, 175616, Note_off_c, 7, 58, 0
9, 176128, Note_on_c, 7, 65, 96
9, 176640, Note_off_c, 7, 65, 0
9, 177152, Note_on_c, 7, 65, 96
9, 177664, Note_off_c, 7, 65, 0
9, 178176, Note_on_c, 7, 65, 96
9, 178176, Note_on_c, 7, 56, 96
9, 178688, Note_off_c, 7, 65, 0
9, 178688, Note_off_c, 7, 56, 0
9, 179200, Note_on_c, 7, 60, 96
9, 179712, Note_off_c, 7, 60, 0
9, 180224, Note_on_c, 7, 63, 96
9, 180736, Note_off_c, 7, 63, 0
9, 181248, Note_on_c, 7, 63, 96
9, 181248, Note_on_c, 7, 67, 96
9, 181760, Note_off_c, 7, 63, 0
9, 181760, Note_off_c, 7, 67, 0
9, 182272, Note_on_c, 7, 67, 96
9, 182272, Note_on_c, 7, 60, 96
9, 182784, Note_off_c, 7, 67, 0
9, 182784, Note_off_c, 7, 60, 0
9, 183296, Note_on_c, 7, 72, 96
9, 183296, Note_on_c, 7, 60, 96
9, 183808, Note_off_c, 7, 72, 0
9, 183808, Note_off_c, 7, 60, 0
9, 184320, Note_on_c, 7, 70, 96
9, 184320, Note_on_c, 7, 67, 96
9, 184832, Note_off_c, 7, 70, 0
9, 184832, Note_off_c, 7, 67, 0
9, 185344, Note_on_c, 7, 63, 96
9, 185344, Note_on_c, 7, 70, 96
9, 185856, Note_off_c, 7, 63, 0
9, 185856, Note_off_c, 7, 70, 0
9, 186368, Note_on_c, 7, 67, 96
9, 186368, Note_on_c, 7, 70, 96
9, 186880, Note_off_c, 7, 67, 0
9, 186880, Note_off_c, 7, 70, 0
9, 187392, Note_on_c, 7, 63, 96
9, 187392, Note_on_c, 7, 68, 96
9, 187904, Note_off_c, 7, 63, 0
9, 187904, Note_off_c, 7, 68, 0
9, 188416, Note_on_c, 7, 72, 96
9, 188416, Note_on_c, 7, 60, 96
9, 188928, Note_off_c, 7, 60, 0
9, 189440, Note_on_c, 7, 65, 96
9, 189952, Note_off_c, 7, 65, 0
9, 190464, Note_off_c, 7, 72, 0
9, 190464, Note_on_c, 7, 70, 96
9, 190464, Note_on_c, 7, 65, 96
9, 190976, Note_off_c, 7, 65, 0
9, 191488, Note_off_c, 7, 70, 0
9, 191488, Note_on_c, 7, 70, 96
9, 191488, Note_on_c, 7, 58, 96
9, 192000, Note_off_c, 7, 70, 0
9, 192000, Note_off_c, 7, 58, 0
9, 192512, Note_on_c, 7, 63, 96
9, 192512, Note_on_c, 7, 63, 96
9, 193024, Note_off_c, 7, 63, 0
9, 193024, Note_off_c, 7, 63, 0
9, 193536, Note_on_c, 7, 60, 96
9, 193536, Note_on_c, 7, 56, 96
9, 194048, Note_off_c, 7, 60, 0
9, 194048, Note_off_c, 7, 56, 0
9, 194560, Note_on_c, 7, 62, 96
9, 194560, Note_on_c, 7, 68, 96
9, 195072, Note_off_c, 7, 68, 0
9, 195584, Note_on_c, 7, 65, 96
9, 196096, Note_off_c, 7, 65, 0
9, 196608, Note_off_c, 7, 62, 0
9, 196608, Note_on_c, 7, 67, 96
9, 196608, Note_on_c, 7, 71, 96
9, 197120, Note_off_c, 7, 67, 0
9, 197120, Note_off_c, 7, 71, 0
9, 197632, Note_on_c, 7, 67, 96
9, 197632, Note_on_c, 7, 63, 96
9, 198144, Note_off_c, 7, 67, 0
9, 198144, Note_off_c, 7, 63, 0
9, 198656, Note_on_c, 7, 67, 96
9, 198656, Note_on_c, 7, 60, 96
9, 199168, Note_off_c, 7, 67, 0
9, 199168, Note_off_c, 7, 60, 0
9, 199680, Note_on_c, 7, 60, 96
9, 199680, Note_on_c, 7, 60, 96
9, 200192, Note_off_c, 7, 60, 0
9, 200192, Note_off_c, 7, 60, 0
9, 200704, Note_on_c, 7, 60, 96
9, 200704, Note_on_c, 7, 57, 96
9, 201216, Note_off_c, 7, 60, 0
9, 201216, Note_off_c, 7, 57, 0
9, 201728, Note_on_c, 7, 60, 96
9, 201728, Note_on_c, 7, 53, 96
9, 202240, Note_off_c, 7, 60, 0
9, 202240, Note_off_c, 7, 53, 0
9, 202752, Note_on_c, 7, 58, 96
9, 202752, Note_on_c, 7, 58, 96
9, 203264, Note_off_c, 7, 58, 0
9, 203264, Note_off_c, 7, 58, 0
9, 203776, Note_on_c, 7, 65, 96
9, 203776, Note_on_c, 7, 58, 96
9, 204288, Note_off_c, 7, 65, 0
9, 204288, Note_off_c, 7, 58, 0
9, 204800, Note_on_c, 7, 70, 96
9, 204800, Note_on_c, 7, 58, 96
9, 205312, Note_off_c, 7, 70, 0
9, 205312, Note_off_c, 7, 58, 0
9, 205824, Note_on_c, 7, 63, 96
9, 205824, Note_on_c, 7, 58, 96
9, 206592, Note_off_c, 7, 63, 0
9, 206592, Note_on_c, 7, 72, 96
9, 206592, Note_off_c, 7, 58, 0
9, 206592, Note_on_c, 7, 72, 96
9, 206848, Note_off_c, 7, 72, 0
9, 206848, Note_on_c, 7, 70, 96
9, 206848, Note_off_c, 7, 72, 0
9, 206848, Note_on_c, 7, 70, 96
9, 207872, Note_off_c, 7, 70, 0
9, 207872, Note_on_c, 7, 68, 96
9, 207872, Note_off_c, 7, 70, 0
9, 207872, Note_on_c, 7, 68, 96
9, 208896, Note_off_c, 7, 68, 0
9, 208896, Note_off_c, 7, 68, 0
9, 208896, Note_on_c, 7, 67, 96
9, 208896, Note_on_c, 7, 67, 96
9, 209664, Note_off_c, 7, 67, 0
9, 209664, Note_on_c, 7, 55, 96
9, 209920, Note_off_c, 7, 67, 0
9, 209920, Note_off_c, 7, 55, 0
9, 209920, Note_on_c, 7, 55, 96
9, 210688, Note_off_c, 7, 55, 0
9, 210688, Note_on_c, 7, 55, 96
9, 210944, Note_off_c, 7, 55, 0
9, 210944, Note_on_c, 7, 55, 96
9, 211712, Note_off_c, 7, 55, 0
9, 211712, Note_on_c, 7, 55, 96
9, 211968, Note_off_c, 7, 55, 0
9, 211968, Note_on_c, 7, 55, 96
9, 212736, Note_on_c, 7, 55, 96
9, 212992, Note_off_c, 7, 55, 0
9, 212992, Note_on_c, 7, 55, 96
9, 213760, Note_off_c, 7, 55, 0
9, 213760, Note_on_c, 7, 55, 96
9, 214016, Note_off_c, 7, 55, 0
9, 214016, Note_on_c, 7, 60, 96
9, 214016, Note_off_c, 7, 55, 0
9, 214784, Note_off_c, 7, 60, 0
9, 214784, Note_on_c, 7, 60, 96
9, 215040, Note_off_c, 7, 60, 0
9, 215040, Note_on_c, 7, 58, 96
9, 216064, Note_off_c, 7, 58, 0
9, 233472, Note_on_c, 7, 62, 96
9, 234240, Note_off_c, 7, 62, 0
9, 234240, Note_on_c, 7, 62, 96
9, 234496, Note_off_c, 7, 62, 0
9, 234496, Note_on_c, 7, 62, 96
9, 235264, Note_off_c, 7, 62, 0
9, 235264, Note_on_c, 7, 62, 96
9, 235520, Note_off_c, 7, 62, 0
9, 235520, Note_on_c, 7, 62, 96
9, 236288, Note_off_c, 7, 62, 0
9, 236288, Note_on_c, 7, 62, 96
9, 236544, Note_off_c, 7, 62, 0
9, 236544, Note_on_c, 7, 62, 96
9, 236544, Note_on_c, 7, 62, 96
9, 237312, Note_off_c, 7, 62, 0
9, 237312, Note_on_c, 7, 62, 96
9, 237568, Note_off_c, 7, 62, 0
9, 237568, Note_on_c, 7, 62, 96
9, 238336, Note_off_c, 7, 62, 0
9, 238336, Note_on_c, 7, 62, 96
9, 238592, Note_off_c, 7, 62, 0
9, 238592, Note_off_c, 7, 62, 0
9, 238592, Note_on_c, 7, 62, 96
9, 239360, Note_off_c, 7, 62, 0
9, 239360, Note_on_c, 7, 62, 96
9, 239616, Note_off_c, 7, 62, 0
9, 239616, Note_on_c, 7, 63, 96
9, 239616, Note_on_c, 7, 60, 96
9, 240384, Note_off_c, 7, 63, 0
9, 240384, Note_on_c, 7, 63, 96
9, 240640, Note_off_c, 7, 63, 0
9, 240640, Note_on_c, 7, 67, 96
9, 241408, Note_off_c, 7, 67, 0
9, 241408, Note_on_c, 7, 67, 96
9, 241664, Note_off_c, 7, 67, 0
9, 241664, Note_on_c, 7, 63, 96
9, 241664, Note_off_c, 7, 60, 0
9, 242432, Note_off_c, 7, 63, 0
9, 242432, Note_on_c, 7, 63, 96
9, 242688, Note_off_c, 7, 63, 0
9, 242688, Note_on_c, 7, 60, 96
9, 242688, Note_on_c, 7, 60, 96
9, 243456, Note_off_c, 7, 60, 0
9, 243456, Note_on_c, 7, 60, 96
9, 243712, Note_off_c, 7, 60, 0
9, 243712, Note_on_c, 7, 65, 96
9, 244480, Note_off_c, 7, 65, 0
9, 244480, Note_on_c, 7, 65, 96
9, 244736, Note_off_c, 7, 60, 0
9, 244736, Note_off_c, 7, 65, 0
9, 244736, Note_on_c, 7, 69, 96
9, 245504, Note_off_c, 7, 69, 0
9, 245504, Note_on_c, 7, 69, 96
9, 245760, Note_off_c, 7, 69, 0
9, 245760, Note_on_c, 7, 65, 96
9, 247808, Note_off_c, 7, 65, 0
9, 273408, Note_on_c, 7, 62, 96
9, 273920, Note_off_c, 7, 62, 0
9, 274432, Note_on_c, 7, 58, 96
9, 274944, Note_off_c, 7, 58, 0
9, 275456, Note_on_c, 7, 65, 96
9, 275968, Note_off_c, 7, 65, 0
9, 276480, Note_on_c, 7, 58, 96
9, 276480, Note_on_c, 7, 63, 96
9, 276992, Note_off_c, 7, 58, 0
9, 276992, Note_off_c, 7, 63, 0
9, 277504, Note_on_c, 7, 58, 96
9, 278016, Note_off_c, 7, 58, 0
9, 278528, Note_on_c, 7, 58, 96
9, 279040, Note_off_c, 7, 58, 0
9, 279552, Note_on_c, 7, 55, 96
9, 279552, Note_on_c, 7, 60, 96
9, 280064, Note_off_c, 7, 55, 0
9, 280064, Note_off_c, 7, 60, 0
9, 280576, Note_on_c, 7, 60, 96
9, 281088, Note_off_c, 7, 60, 0
9, 281600, Note_on_c, 7, 67, 96
9, 282112, Note_off_c, 7, 67, 0
9, 282624, Note_on_c, 7, 56, 96
9, 282624, Note_on_c, 7, 65, 96
9, 283136, Note_off_c, 7, 56, 0
9, 283136, Note_off_c, 7, 65, 0
9, 283648, Note_on_c, 7, 60, 96
9, 284160, Note_off_c, 7, 60, 0
9, 284672, Note_on_c, 7, 60, 96
9, 285184, Note_off_c, 7, 60, 0
9, 285696, Note_on_c, 7, 58, 96
9, 285696, Note_on_c, 7, 65, 96
9, 286208, Note_off_c, 7, 58, 0
9, 286208, Note_off_c, 7, 65, 0
9, 286720, Note_on_c, 7, 70, 96
9, 286720, Note_on_c, 7, 65, 96
9, 287232, Note_off_c, 7, 70, 0
9, 287232, Note_off_c, 7, 65, 0
9, 287744, Note_on_c, 7, 65, 96
9, 287744, Note_on_c, 7, 58, 96
9, 288256, Note_off_c, 7, 65, 0
9, 288256, Note_off_c, 7, 58, 0
9, 288768, Note_on_c, 7, 67, 96
9, 288768, Note_on_c, 7, 58, 96
9, 289280, Note_off_c, 7, 67, 0
9, 289280, Note_off_c, 7, 58, 0
9, 297984, Note_on_c, 7, 56, 96
9, 298752, Note_off_c, 7, 56, 0
9, 298752, Note_on_c, 7, 56, 96
9, 299008, Note_off_c, 7, 56, 0
9, 299008, Note_on_c, 7, 60, 96
9, 299776, Note_off_c, 7, 60, 0
9, 299776, Note_on_c, 7, 60, 96
9, 300032, Note_off_c, 7, 60, 0
9, 300032, Note_on_c, 7, 60, 96
9, 300800, Note_off_c, 7, 60, 0
9, 300800, Note_on_c, 7, 60, 96
9, 301056, Note_off_c, 7, 60, 0
9, 301056, Note_on_c, 7, 58, 96
9, 301056, Note_on_c, 7, 55, 96
9, 301824, Note_off_c, 7, 55, 0
9, 301824, Note_on_c, 7, 55, 96
9, 302080, Note_off_c, 7, 55, 0
9, 302080, Note_on_c, 7, 55, 96
9, 302848, Note_off_c, 7, 55, 0
9, 302848, Note_on_c, 7, 55, 96
9, 303104, Note_off_c, 7, 58, 0
9, 303104, Note_off_c, 7, 55, 0
9, 303104, Note_on_c, 7, 60, 96
9, 303872, Note_off_c, 7, 60, 0
9, 303872, Note_on_c, 7, 60, 96
9, 304128, Note_off_c, 7, 60, 0
9, 304128, Note_on_c, 7, 56, 96
9, 304128, Note_on_c, 7, 53, 96
9, 304896, Note_off_c, 7, 56, 0
9, 304896, Note_on_c, 7, 56, 96
9, 305152, Note_off_c, 7, 56, 0
9, 305152, Note_on_c, 7, 56, 96
9, 305920, Note_off_c, 7, 56, 0
9, 305920, Note_on_c, 7, 56, 96
9, 306176, Note_off_c, 7, 56, 0
9, 306176, Note_on_c, 7, 53, 96
9, 306176, Note_off_c, 7, 53, 0
9, 306944, Note_off_c, 7, 53, 0
9, 306944, Note_on_c, 7, 53, 96
9, 307200, Note_off_c, 7, 53, 0
9, 307200, Note_on_c, 7, 58, 96
9, 307200, Note_on_c, 7, 53, 96
9, 307968, Note_off_c, 7, 53, 0
9, 307968, Note_on_c, 7, 53, 96
9, 308224, Note_off_c, 7, 53, 0
9, 308224, Note_on_c, 7, 53, 96
9, 308992, Note_off_c, 7, 53, 0
9, 308992, Note_on_c, 7, 53, 96
9, 309248, Note_off_c, 7, 58, 0
9, 309248, Note_off_c, 7, 53, 0
9, 309248, Note_on_c, 7, 53, 96
9, 310016, Note_off_c, 7, 53, 0
9, 310016, Note_on_c, 7, 53, 96
9, 310272, Note_off_c, 7, 53, 0
9, 310272, Note_on_c, 7, 58, 96
9, 310272, Note_on_c, 7, 51, 96
9, 310784, Note_off_c, 7, 58, 0
9, 311296, Note_on_c, 7, 63, 96
9, 311808, Note_off_c, 7, 63, 0
9, 312320, Note_on_c, 7, 63, 96
9, 312320, Note_off_c, 7, 51, 0
9, 312832, Note_off_c, 7, 63, 0
9, 313344, Note_on_c, 7, 63, 96
9, 313344, Note_on_c, 7, 55, 96
9, 313856, Note_off_c, 7, 63, 0
9, 313856, Note_off_c, 7, 55, 0
9, 314368, Note_on_c, 7, 67, 96
9, 314880, Note_off_c, 7, 67, 0
9, 315392, Note_on_c, 7, 67, 96
9, 315904, Note_off_c, 7, 67, 0
9, 316416, Note_on_c, 7, 60, 96
9, 316416, Note_on_c, 7, 60, 96
9, 316928, Note_off_c, 7, 60, 0
9, 316928, Note_off_c, 7, 60, 0
9, 317440, Note_on_c, 7, 68, 96
9, 317440, Note_on_c, 7, 63, 96
9, 317952, Note_off_c, 7, 68, 0
9, 317952, Note_off_c, 7, 63, 0
9, 318464, Note_on_c, 7, 63, 96
9, 318464, Note_on_c, 7, 63, 96
9, 318976, Note_off_c, 7, 63, 0
9, 318976, Note_off_c, 7, 63, 0
9, 319488, Note_on_c, 7, 63, 96
9, 319488, Note_on_c, 7, 58, 96
9, 320000, Note_off_c, 7, 63, 0
9, 320000, Note_off_c, 7, 58, 0
9, 320512, Note_on_c, 7, 75, 96
9, 320512, Note_on_c, 7, 58, 96
9, 321024, Note_off_c, 7, 75, 0
9, 321024, Note_off_c, 7, 58, 0
9, 321536, Note_on_c, 7, 70, 96
9, 321536, Note_on_c, 7, 67, 96
9, 322048, Note_off_c, 7, 70, 0
9, 322048, Note_off_c, 7, 67, 0
9, 322560, Note_on_c, 7, 65, 96
9, 322560, Note_on_c, 7, 65, 96
9, 323072, Note_off_c, 7, 65, 0
9, 323072, Note_off_c, 7, 65, 0
9, 323584, Note_on_c, 7, 65, 96
9, 323584, Note_on_c, 7, 62, 96
9, 324096, Note_off_c, 7, 65, 0
9, 324096, Note_off_c, 7, 62, 0
9, 324608, Note_on_c, 7, 70, 96
9, 324608, Note_on_c, 7, 58, 96
9, 325120, Note_off_c, 7, 70, 0
9, 325120, Note_off_c, 7, 58, 0
9, 325632, Note_on_c, 7, 69, 96
9, 325632, Note_on_c, 7, 54, 96
9, 326144, Note_off_c, 7, 69, 0
9, 326144, Note_off_c, 7, 54, 0
9, 326656, Note_on_c, 7, 69, 96
9, 326656, Note_on_c, 7, 57, 96
9, 327168, Note_off_c, 7, 69, 0
9, 327168, Note_off_c, 7, 57, 0
9, 327680, Note_on_c, 7, 74, 96
9, 327680, Note_on_c, 7, 57, 96
9, 328192, Note_off_c, 7, 74, 0
9, 328192, Note_off_c, 7, 57, 0
9, 328704, Note_on_c, 7, 70, 96
9, 328704, Note_on_c, 7, 55, 96
9, 329216, Note_off_c, 7, 70, 0
9, 329216, Note_off_c, 7, 55, 0
9, 329728, Note_on_c, 7, 62, 96
9, 329728, Note_on_c, 7, 67, 96
9, 330240, Note_off_c, 7, 62, 0
9, 330240, Note_off_c, 7, 67, 0
9, 330752, Note_on_c, 7, 67, 96
9, 330752, Note_on_c, 7, 67, 96
9, 331264, Note_off_c, 7, 67, 0
9, 331264, Note_off_c, 7, 67, 0
9, 331776, Note_on_c, 7, 62, 96
9, 331776, Note_on_c, 7, 65, 96
9, 332288, Note_off_c, 7, 62, 0
9, 332288, Note_off_c, 7, 65, 0
9, 332800, Note_on_c, 7, 58, 96
9, 332800, Note_on_c, 7, 65, 96
9, 333312, Note_off_c, 7, 58, 0
9, 333312, Note_off_c, 7, 65, 0
9, 333824, Note_on_c, 7, 62, 96
9, 333824, Note_on_c, 7, 65, 96
9, 334336, Note_off_c, 7, 62, 0
9, 334336, Note_off_c, 7, 65, 0
9, 334848, Note_on_c, 7, 58, 96
9, 334848, Note_on_c, 7, 63, 96
9, 335360, Note_off_c, 7, 58, 0
9, 335360, Note_off_c, 7, 63, 0
9, 335872, Note_on_c, 7, 67, 96
9, 335872, Note_on_c, 7, 55, 96
9, 336384, Note_off_c, 7, 55, 0
9, 336896, Note_on_c, 7, 60, 96
9, 337408, Note_off_c, 7, 60, 0
9, 337920, Note_off_c, 7, 67, 0
9, 337920, Note_on_c, 7, 65, 96
9, 337920, Note_on_c, 7, 60, 96
9, 338432, Note_off_c, 7, 65, 0
9, 338432, Note_off_c, 7, 60, 0
9, 338944, Note_on_c, 7, 65, 96
9, 338944, Note_on_c, 7, 53, 96
9, 339456, Note_off_c, 7, 65, 0
9, 339456, Note_off_c, 7, 53, 0
9, 339968, Note_on_c, 7, 58, 96
9, 339968, Note_on_c, 7, 58, 96
9, 340480, Note_off_c, 7, 58, 0
9, 340480, Note_off_c, 7, 58, 0
9, 340992, Note_on_c, 7, 55, 96
9, 340992, Note_on_c, 7, 51, 96
9, 341504, Note_off_c, 7, 55, 0
9, 341504, Note_off_c, 7, 51, 0
9, 342016, Note_on_c, 7, 57, 96
9, 342016, Note_on_c, 7, 63, 96
9, 342528, Note_off_c, 7, 63, 0
9, 343040, Note_on_c, 7, 60, 96
9, 343552, Note_off_c, 7, 60, 0
9, 344064, Note_on_c, 7, 66, 96
9, 344576, Note_off_c, 7, 57, 0
9, 344576, Note_off_c, 7, 66, 0
9, 345088, Note_on_c, 7, 55, 96
9, 345088, Note_on_c, 7, 70, 96
9, 345600, Note_off_c, 7, 55, 0
9, 345600, Note_off_c, 7, 70, 0
9, 346112, Note_on_c, 7, 55, 96
9, 346112, Note_on_c, 7, 67, 96
9, 346624, Note_off_c, 7, 55, 0
9, 346624, Note_off_c, 7, 67, 0
9, 347136, Note_on_c, 7, 55, 96
9, 347136, Note_on_c, 7, 67, 96
9, 347648, Note_off_c, 7, 55, 0
9, 347648, Note_off_c, 7, 67, 0
9, 348160, Note_on_c, 7, 55, 96
9, 348160, Note_on_c, 7, 64, 96
9, 348672, Note_off_c, 7, 55, 0
9, 348672, Note_off_c, 7, 64, 0
9, 349184, Note_on_c, 7, 55, 96
9, 349184, Note_on_c, 7, 60, 96
9, 349696, Note_off_c, 7, 55, 0
9, 349696, Note_off_c, 7, 60, 0
9, 350208, Note_on_c, 7, 53, 96
9, 350208, Note_on_c, 7, 65, 96
9, 350720, Note_off_c, 7, 53, 0
9, 350720, Note_off_c, 7, 65, 0
9, 351232, Note_on_c, 7, 60, 96
9, 351232, Note_on_c, 7, 65, 96
9, 351744, Note_off_c, 7, 60, 0
9, 351744, Note_off_c, 7, 65, 0
9, 352256, Note_on_c, 7, 65, 96
9, 352256, Note_on_c, 7, 65, 96
9, 352768, Note_off_c, 7, 65, 0
9, 352768, Note_off_c, 7, 65, 0
9, 353280, Note_on_c, 7, 58, 96
9, 353280, Note_on_c, 7, 65, 96
9, 354048, Note_off_c, 7, 58, 0
9, 354048, Note_on_c, 7, 67, 96
9, 354048, Note_off_c, 7, 65, 0
9, 354048, Note_on_c, 7, 67, 96
9, 354304, Note_off_c, 7, 67, 0
9, 354304, Note_on_c, 7, 65, 96
9, 354304, Note_off_c, 7, 67, 0
9, 354304, Note_on_c, 7, 65, 96
9, 355328, Note_off_c, 7, 65, 0
9, 355328, Note_on_c, 7, 63, 96
9, 355328, Note_off_c, 7, 65, 0
9, 355328, Note_on_c, 7, 63, 96
9, 356352, Note_off_c, 7, 63, 0
9, 356352, Note_off_c, 7, 63, 0
9, 356352, Note_on_c, 7, 62, 96
9, 356352, Note_on_c, 7, 62, 96
9, 356864, Note_off_c, 7, 62, 0
9, 357376, Note_off_c, 7, 62, 0
9, 357376, Note_on_c, 7, 58, 96
9, 357888, Note_off_c, 7, 58, 0
9, 358400, Note_on_c, 7, 62, 96
9, 358912, Note_off_c, 7, 62, 0
9, 359424, Note_on_c, 7, 67, 96
9, 359936, Note_off_c, 7, 67, 0
9, 360448, Note_on_c, 7, 58, 96
9, 360960, Note_off_c, 7, 58, 0
9, 361472, Note_on_c, 7, 62, 96
9, 361984, Note_off_c, 7, 62, 0
9, 362496, Note_on_c, 7, 63, 96
9, 363008, Note_off_c, 7, 63, 0
9, 363520, Note_on_c, 7, 58, 96
9, 364032, Note_off_c, 7, 58, 0
9, 364544, Note_on_c, 7, 62, 96
9, 365056, Note_off_c, 7, 62, 0
9, 365568, Note_on_c, 7, 63, 96
9, 366080, Note_off_c, 7, 63, 0
9, 366592, Note_on_c, 7, 62, 96
9, 367104, Note_off_c, 7, 62, 0
9, 367616, Note_on_c, 7, 65, 96
9, 368128, Note_off_c, 7, 65, 0
9, 368640, Note_on_c, 7, 58, 96
9, 369152, Note_off_c, 7, 58, 0
9, 369664, Note_on_c, 7, 67, 96
9, 370176, Note_off_c, 7, 67, 0
9, 370688, Note_on_c, 7, 63, 96
9, 371200, Note_off_c, 7, 63, 0
9, 371712, Note_on_c, 7, 65, 96
9, 372224, Note_off_c, 7, 65, 0
9, 372736, Note_on_c, 7, 65, 96
9, 374784, Note_off_c, 7, 65, 0
9, 374784, Note_on_c, 7, 67, 96
9, 375808, Note_off_c, 7, 67, 0
9, 375808, Note_on_c, 7, 60, 96
9, 375808, Note_on_c, 7, 63, 96
9, 376320, Note_off_c, 7, 60, 0
9, 376832, Note_on_c, 7, 56, 96
9, 377344, Note_off_c, 7, 56, 0
9, 377856, Note_on_c, 7, 55, 96
9, 378624, Note_off_c, 7, 63, 0
9, 378624, Note_on_c, 7, 55, 96
9, 378880, Note_off_c, 7, 55, 0
9, 378880, Note_off_c, 7, 55, 0
9, 378880, Note_on_c, 7, 55, 96
9, 379648, Note_off_c, 7, 55, 0
9, 379648, Note_on_c, 7, 55, 96
9, 379904, Note_off_c, 7, 55, 0
9, 379904, Note_on_c, 7, 55, 96
9, 380672, Note_off_c, 7, 55, 0
9, 380672, Note_on_c, 7, 55, 96
9, 380928, Note_off_c, 7, 55, 0
9, 380928, Note_on_c, 7, 55, 96
9, 380928, Note_on_c, 7, 55, 96
9, 381696, Note_off_c, 7, 55, 0
9, 381696, Note_on_c, 7, 55, 96
9, 381952, Note_off_c, 7, 55, 0
9, 381952, Note_on_c, 7, 55, 96
9, 382720, Note_off_c, 7, 55, 0
9, 382720, Note_on_c, 7, 55, 96
9, 382976, Note_off_c, 7, 55, 0
9, 382976, Note_on_c, 7, 55, 96
9, 382976, Note_off_c, 7, 55, 0
9, 383744, Note_off_c, 7, 55, 0
9, 383744, Note_on_c, 7, 55, 96
9, 384000, Note_off_c, 7, 55, 0
9, 384000, Note_on_c, 7, 53, 96
9, 384000, Note_on_c, 7, 56, 96
9, 384768, Note_off_c, 7, 56, 0
9, 384768, Note_on_c, 7, 56, 96
9, 385024, Note_off_c, 7, 56, 0
9, 385024, Note_on_c, 7, 60, 96
9, 385792, Note_off_c, 7, 60, 0
9, 385792, Note_on_c, 7, 60, 96
9, 386048, Note_off_c, 7, 53, 0
9, 386048, Note_off_c, 7, 60, 0
9, 386048, Note_on_c, 7, 56, 96
9, 386816, Note_off_c, 7, 56, 0
9, 386816, Note_on_c, 7, 56, 96
9, 387072, Note_off_c, 7, 56, 0
9, 387072, Note_on_c, 7, 53, 96
9, 387072, Note_on_c, 7, 53, 96
9, 387840, Note_off_c, 7, 53, 0
9, 387840, Note_on_c, 7, 53, 96
9, 388096, Note_off_c, 7, 53, 0
9, 388096, Note_on_c, 7, 58, 96
9, 388864, Note_off_c, 7, 58, 0
9, 388864, Note_on_c, 7, 58, 96
9, 389120, Note_off_c, 7, 58, 0
9, 389120, Note_on_c, 7, 62, 96
9, 389120, Note_off_c, 7, 53, 0
9, 389888, Note_off_c, 7, 62, 0
9, 389888, Note_on_c, 7, 62, 96
9, 390144, Note_off_c, 7, 62, 0
9, 390144, Note_on_c, 7, 58, 96
9, 390656, Note_off_c, 7, 58, 0
9, 391168, Note_on_c, 7, 58, 96
9, 391680, Note_off_c, 7, 58, 0
9, 392192, Note_on_c, 7, 62, 96
9, 392704, Note_off_c, 7, 62, 0
9, 393216, Note_on_c, 7, 58, 96
9, 393728, Note_off_c, 7, 58, 0
9, 394240, Note_on_c, 7, 58, 96
9, 394752, Note_off_c, 7, 58, 0
9, 395264, Note_on_c, 7, 62, 96
9, 395776, Note_off_c, 7, 62, 0
9, 396288, Note_on_c, 7, 63, 96
9, 396800, Note_off_c, 7, 63, 0
9, 397312, Note_on_c, 7, 62, 96
9, 397824, Note_off_c, 7, 62, 0
9, 398336, Note_on_c, 7, 65, 96
9, 398848, Note_off_c, 7, 65, 0
9, 399360, Note_on_c, 7, 58, 96
9, 399872, Note_off_c, 7, 58, 0
9, 400384, Note_on_c, 7, 67, 96
9, 400896, Note_off_c, 7, 67, 0
9, 401408, Note_on_c, 7, 63, 96
9, 401920, Note_off_c, 7, 63, 0
9, 402432, Note_on_c, 7, 65, 96
9, 402944, Note_off_c, 7, 65, 0
9, 403456, Note_on_c, 7, 65, 96
9, 405504, Note_off_c, 7, 65, 0
9, 405504, Note_on_c, 7, 67, 96
9, 406528, Note_off_c, 7, 67, 0
9, 406528, Note_on_c, 7, 60, 96
9, 406528, Note_on_c, 7, 63, 96
9, 407040, Note_off_c, 7, 60, 0
9, 407552, Note_on_c, 7, 56, 96
9, 408064, Note_off_c, 7, 56, 0
9, 408576, Note_on_c, 7, 55, 96
9, 409344, Note_off_c, 7, 63, 0
9, 409344, Note_on_c, 7, 58, 96
9, 409600, Note_off_c, 7, 55, 0
9, 409600, Note_off_c, 7, 58, 0
9, 409600, Note_on_c, 7, 58, 96
9, 410368, Note_off_c, 7, 58, 0
9, 410368, Note_on_c, 7, 58, 96
9, 410624, Note_off_c, 7, 58, 0
9, 410624, Note_on_c, 7, 59, 96
9, 411392, Note_off_c, 7, 59, 0
9, 411392, Note_on_c, 7, 59, 96
9, 411648, Note_off_c, 7, 59, 0
9, 411648, Note_on_c, 7, 60, 96
9, 412416, Note_on_c, 7, 60, 96
9, 412672, Note_off_c, 7, 60, 0
9, 412672, Note_on_c, 7, 60, 96
9, 413440, Note_off_c, 7, 60, 0
9, 413440, Note_on_c, 7, 60, 96
9, 413696, Note_off_c, 7, 60, 0
9, 413696, Note_on_c, 7, 60, 96
9, 413696, Note_off_c, 7, 60, 0
9, 414464, Note_off_c, 7, 60, 0
9, 414464, Note_on_c, 7, 60, 96
9, 414720, Note_off_c, 7, 60, 0
9, 414720, Note_on_c, 7, 60, 96
9, 415488, Note_on_c, 7, 67, 96
9, 415744, Note_off_c, 7, 67, 0
9, 415744, Note_on_c, 7, 67, 96
9, 416512, Note_off_c, 7, 67, 0
9, 416512, Note_on_c, 7, 63, 96
9, 416768, Note_off_c, 7, 60, 0
9, 416768, Note_off_c, 7, 63, 0
9, 416768, Note_on_c, 7, 63, 96
9, 417536, Note_off_c, 7, 63, 0
9, 417536, Note_on_c, 7, 60, 96
9, 417792, Note_off_c, 7, 60, 0
9, 417792, Note_on_c, 7, 62, 96
9, 418560, Note_on_c, 7, 57, 96
9, 418816, Note_off_c, 7, 57, 0
9, 418816, Note_on_c, 7, 57, 96
9, 419584, Note_off_c, 7, 57, 0
9, 419584, Note_on_c, 7, 57, 96
9, 419840, Note_off_c, 7, 57, 0
9, 419840, Note_on_c, 7, 57, 96
9, 419840, Note_off_c, 7, 62, 0
9, 420608, Note_off_c, 7, 57, 0
9, 420608, Note_on_c, 7, 57, 96
9, 420864, Note_off_c, 7, 57, 0
9, 420864, Note_on_c, 7, 58, 96
9, 421632, Note_off_c, 7, 58, 0
9, 421632, Note_on_c, 7, 62, 96
9, 421888, Note_off_c, 7, 62, 0
9, 421888, Note_on_c, 7, 62, 96
9, 422656, Note_off_c, 7, 62, 0
9, 422656, Note_on_c, 7, 62, 96
9, 422912, Note_off_c, 7, 62, 0
9, 422912, Note_on_c, 7, 62, 96
9, 423680, Note_off_c, 7, 62, 0
9, 423680, Note_on_c, 7, 62, 96
9, 423936, Note_off_c, 7, 62, 0
9, 423936, Note_on_c, 7, 63, 96
9, 424704, Note_on_c, 7, 63, 96
9, 424960, Note_off_c, 7, 63, 0
9, 424960, Note_on_c, 7, 63, 96
9, 425728, Note_off_c, 7, 63, 0
9, 425728, Note_on_c, 7, 63, 96
9, 425984, Note_off_c, 7, 63, 0
9, 425984, Note_off_c, 7, 63, 0
9, 425984, Note_on_c, 7, 58, 96
9, 426752, Note_off_c, 7, 58, 0
9, 426752, Note_on_c, 7, 58, 96
9, 427008, Note_off_c, 7, 58, 0
9, 427776, Note_on_c, 7, 70, 96
9, 428032, Note_off_c, 7, 70, 0
9, 428032, Note_on_c, 7, 70, 96
9, 428800, Note_off_c, 7, 70, 0
9, 428800, Note_on_c, 7, 67, 96
9, 429056, Note_off_c, 7, 67, 0
9, 429056, Note_on_c, 7, 67, 96
9, 429824, Note_off_c, 7, 67, 0
9, 429824, Note_on_c, 7, 63, 96
9, 430080, Note_off_c, 7, 63, 0
9, 430080, Note_on_c, 7, 65, 96
9, 430848, Note_on_c, 7, 60, 96
9, 431104, Note_off_c, 7, 60, 0
9, 431104, Note_on_c, 7, 60, 96
9, 431872, Note_off_c, 7, 60, 0
9, 431872, Note_on_c, 7, 60, 96
9, 432128, Note_off_c, 7, 65, 0
9, 432128, Note_off_c, 7, 60, 0
9, 432128, Note_on_c, 7, 60, 96
9, 432896, Note_off_c, 7, 60, 0
9, 432896, Note_on_c, 7, 60, 96
9, 433152, Note_off_c, 7, 60, 0
9, 433152, Note_on_c, 7, 58, 96
9, 435200, Note_off_c, 7, 58, 0
9, 447488, Note_on_c, 7, 63, 96
9, 448256, Note_off_c, 7, 63, 0
9, 448256, Note_on_c, 7, 63, 96
9, 448512, Note_off_c, 7, 63, 0
9, 448512, Note_on_c, 7, 63, 96
9, 450560, Note_off_c, 7, 63, 0
9, 450560, Note_on_c, 7, 63, 96
9, 451328, Note_off_c, 7, 63, 0
9, 451328, Note_on_c, 7, 63, 96
9, 451584, Note_off_c, 7, 63, 0
9, 451584, Note_on_c, 7, 63, 96
9, 453632, Note_on_c, 7, 65, 96
9, 453632, Note_off_c, 7, 63, 0
9, 454400, Note_off_c, 7, 65, 0
9, 454400, Note_on_c, 7, 65, 96
9, 454656, Note_off_c, 7, 65, 0
9, 454656, Note_on_c, 7, 65, 96
9, 456704, Note_off_c, 7, 65, 0
9, 456704, Note_on_c, 7, 65, 96
9, 457472, Note_off_c, 7, 65, 0
9, 457472, Note_on_c, 7, 65, 96
9, 457728, Note_off_c, 7, 65, 0
9, 457728, Note_on_c, 7, 62, 96
9, 457728, Note_on_c, 7, 65, 96
9, 458496, Note_off_c, 7, 62, 0
9, 458496, Note_on_c, 7, 62, 96
9, 458752, Note_off_c, 7, 62, 0
9, 458752, Note_on_c, 7, 62, 96
9, 459520, Note_off_c, 7, 62, 0
9, 459520, Note_on_c, 7, 62, 96
9, 459776, Note_off_c, 7, 62, 0
9, 459776, Note_on_c, 7, 62, 96
9, 459776, Note_off_c, 7, 65, 0
9, 460544, Note_off_c, 7, 62, 0
9, 460544, Note_on_c, 7, 62, 96
9, 460800, Note_off_c, 7, 62, 0
9, 460800, Note_on_c, 7, 58, 96
9, 460800, Note_on_c, 7, 61, 96
9, 461568, Note_off_c, 7, 61, 0
9, 461568, Note_on_c, 7, 58, 96
9, 461824, Note_off_c, 7, 58, 0
9, 461824, Note_off_c, 7, 58, 0
9, 461824, Note_on_c, 7, 55, 96
9, 462592, Note_off_c, 7, 55, 0
9, 462592, Note_on_c, 7, 60, 96
9, 462848, Note_off_c, 7, 60, 0
9, 462848, Note_on_c, 7, 60, 96
9, 463616, Note_off_c, 7, 60, 0
9, 463616, Note_on_c, 7, 60, 96
9, 463872, Note_off_c, 7, 60, 0
9, 463872, Note_on_c, 7, 68, 96
9, 463872, Note_on_c, 7, 60, 96
9, 464640, Note_off_c, 7, 68, 0
9, 464640, Note_on_c, 7, 68, 96
9, 464896, Note_off_c, 7, 68, 0
9, 464896, Note_on_c, 7, 68, 96
9, 465664, Note_off_c, 7, 68, 0
9, 465664, Note_on_c, 7, 68, 96
9, 465920, Note_off_c, 7, 68, 0
9, 465920, Note_on_c, 7, 68, 96
9, 465920, Note_off_c, 7, 60, 0
9, 466688, Note_off_c, 7, 68, 0
9, 466688, Note_on_c, 7, 68, 96
9, 466944, Note_off_c, 7, 68, 0
9, 466944, Note_on_c, 7, 68, 96
9, 466944, Note_on_c, 7, 62, 96
9, 467456, Note_off_c, 7, 68, 0
9, 467712, Note_off_c, 7, 62, 0
9, 467712, Note_on_c, 7, 62, 96
9, 467968, Note_off_c, 7, 62, 0
9, 467968, Note_on_c, 7, 62, 96
9, 468736, Note_off_c, 7, 62, 0
9, 468736, Note_on_c, 7, 62, 96
9, 468992, Note_off_c, 7, 62, 0
9, 468992, Note_on_c, 7, 62, 96
9, 469760, Note_off_c, 7, 62, 0
9, 469760, Note_on_c, 7, 62, 96
9, 470016, Note_off_c, 7, 62, 0
9, 470016, Note_on_c, 7, 62, 96
9, 471040, Note_off_c, 7, 62, 0
9, 473088, Note_on_c, 7, 55, 96
9, 473088, Note_on_c, 7, 60, 96
9, 473856, Note_off_c, 7, 55, 0
9, 473856, Note_on_c, 7, 60, 96
9, 473856, Note_off_c, 7, 60, 0
9, 473856, Note_on_c, 7, 60, 96
9, 474112, Note_off_c, 7, 60, 0
9, 474112, Note_on_c, 7, 60, 96
9, 474112, Note_off_c, 7, 60, 0
9, 474112, Note_on_c, 7, 60, 96
9, 475136, Note_off_c, 7, 60, 0
9, 475136, Note_on_c, 7, 59, 96
9, 475136, Note_off_c, 7, 60, 0
9, 475136, Note_on_c, 7, 59, 96
9, 476160, Note_off_c, 7, 59, 0
9, 476160, Note_off_c, 7, 59, 0
9, 476160, Note_on_c, 7, 63, 96
9, 476160, Note_on_c, 7, 60, 96
9, 476928, Note_off_c, 7, 63, 0
9, 476928, Note_on_c, 7, 63, 96
9, 477184, Note_off_c, 7, 63, 0
9, 477184, Note_on_c, 7, 63, 96
9, 477952, Note_off_c, 7, 63, 0
9, 477952, Note_on_c, 7, 63, 96
9, 478208, Note_off_c, 7, 63, 0
9, 478208, Note_on_c, 7, 63, 96
9, 478208, Note_off_c, 7, 60, 0
9, 478976, Note_off_c, 7, 63, 0
9, 478976, Note_on_c, 7, 63, 96
9, 479232, Note_off_c, 7, 63, 0
9, 479232, Note_on_c, 7, 63, 96
9, 479232, Note_on_c, 7, 60, 96
9, 480000, Note_off_c, 7, 60, 0
9, 480000, Note_on_c, 7, 60, 96
9, 480256, Note_off_c, 7, 60, 0
9, 480256, Note_on_c, 7, 62, 96
9, 481024, Note_off_c, 7, 62, 0
9, 481024, Note_on_c, 7, 62, 96
9, 481280, Note_off_c, 7, 63, 0
9, 481280, Note_off_c, 7, 62, 0
9, 481280, Note_on_c, 7, 63, 96
9, 482048, Note_off_c, 7, 63, 0
9, 482048, Note_on_c, 7, 63, 96
9, 482304, Note_off_c, 7, 63, 0
9, 482304, Note_on_c, 7, 65, 96
9, 482304, Note_on_c, 7, 65, 96
9, 483072, Note_off_c, 7, 65, 0
9, 483072, Note_on_c, 7, 65, 96
9, 483328, Note_off_c, 7, 65, 0
9, 483328, Note_on_c, 7, 68, 96
9, 484096, Note_off_c, 7, 68, 0
9, 484096, Note_on_c, 7, 68, 96
9, 484352, Note_off_c, 7, 68, 0
9, 484352, Note_on_c, 7, 65, 96
9, 484352, Note_off_c, 7, 65, 0
9, 485120, Note_off_c, 7, 65, 0
9, 485120, Note_on_c, 7, 65, 96
9, 485376, Note_off_c, 7, 65, 0
9, 485376, Note_on_c, 7, 62, 96
9, 485376, Note_on_c, 7, 62, 96
9, 486144, Note_off_c, 7, 62, 0
9, 486144, Note_on_c, 7, 62, 96
9, 486400, Note_off_c, 7, 62, 0
9, 486400, Note_on_c, 7, 67, 96
9, 487168, Note_off_c, 7, 67, 0
9, 487168, Note_on_c, 7, 67, 96
9, 487424, Note_off_c, 7, 62, 0
9, 487424, Note_off_c, 7, 67, 0
9, 487424, Note_on_c, 7, 71, 96
9, 488192, Note_off_c, 7, 71, 0
9, 488192, Note_on_c, 7, 71, 96
9, 488448, Note_off_c, 7, 71, 0
9, 488448, Note_on_c, 7, 63, 96
9, 488448, Note_on_c, 7, 67, 96
9, 488960, Note_off_c, 7, 63, 0
9, 489472, Note_on_c, 7, 67, 96
9, 489984, Note_off_c, 7, 67, 0
9, 490496, Note_on_c, 7, 72, 96
9, 490496, Note_off_c, 7, 67, 0
9, 491008, Note_off_c, 7, 72, 0
9, 491520, Note_on_c, 7, 70, 96
9, 492032, Note_off_c, 7, 70, 0
9, 501760, Note_on_c, 7, 63, 96
9, 502272, Note_off_c, 7, 63, 0
9, 502784, Note_on_c, 7, 65, 96
9, 503296, Note_off_c, 7, 65, 0
9, 503808, Note_on_c, 7, 67, 96
9, 504320, Note_off_c, 7, 67, 0
9, 504832, Note_on_c, 7, 67, 96
9, 504832, Note_on_c, 7, 63, 96
9, 505344, Note_off_c, 7, 67, 0
9, 505344, Note_off_c, 7, 63, 0
9, 505856, Note_on_c, 7, 63, 96
9, 505856, Note_on_c, 7, 58, 96
9, 506368, Note_off_c, 7, 63, 0
9, 506368, Note_off_c, 7, 58, 0
9, 506880, Note_on_c, 7, 63, 96
9, 506880, Note_on_c, 7, 56, 96
9, 507648, Note_off_c, 7, 56, 0
9, 507648, Note_on_c, 7, 60, 96
9, 507904, Note_off_c, 7, 63, 0
9, 507904, Note_off_c, 7, 60, 0
9, 507904, Note_on_c, 7, 60, 96
9, 508672, Note_off_c, 7, 60, 0
9, 508672, Note_on_c, 7, 60, 96
9, 508928, Note_off_c, 7, 60, 0
9, 508928, Note_on_c, 7, 60, 96
9, 509696, Note_off_c, 7, 60, 0
9, 509696, Note_on_c, 7, 60, 96
9, 509952, Note_off_c, 7, 60, 0
9, 509952, Note_on_c, 7, 60, 96
9, 509952, Note_on_c, 7, 60, 96
9, 510720, Note_off_c, 7, 60, 0
9, 510720, Note_on_c, 7, 60, 96
9, 510976, Note_off_c, 7, 60, 0
9, 510976, Note_on_c, 7, 60, 96
9, 511744, Note_off_c, 7, 60, 0
9, 511744, Note_on_c, 7, 60, 96
9, 512000, Note_off_c, 7, 60, 0
9, 512000, Note_on_c, 7, 60, 96
9, 512000, Note_off_c, 7, 60, 0
9, 512768, Note_off_c, 7, 60, 0
9, 512768, Note_on_c, 7, 60, 96
9, 513024, Note_off_c, 7, 60, 0
9, 513024, Note_on_c, 7, 58, 96
9, 513024, Note_on_c, 7, 61, 96
9, 513792, Note_off_c, 7, 61, 0
9, 513792, Note_on_c, 7, 61, 96
9, 514048, Note_off_c, 7, 61, 0
9, 514048, Note_on_c, 7, 65, 96
9, 514816, Note_off_c, 7, 65, 0
9, 514816, Note_on_c, 7, 65, 96
9, 515072, Note_off_c, 7, 58, 0
9, 515072, Note_off_c, 7, 65, 0
9, 515072, Note_on_c, 7, 61, 96
9, 515840, Note_off_c, 7, 61, 0
9, 515840, Note_on_c, 7, 61, 96
9, 516096, Note_off_c, 7, 61, 0
9, 516096, Note_on_c, 7, 58, 96
9, 516096, Note_on_c, 7, 58, 96
9, 516864, Note_off_c, 7, 58, 0
9, 516864, Note_on_c, 7, 58, 96
9, 517120, Note_off_c, 7, 58, 0
9, 517120, Note_on_c, 7, 63, 96
9, 517888, Note_off_c, 7, 63, 0
9, 517888, Note_on_c, 7, 63, 96
9, 518144, Note_off_c, 7, 63, 0
9, 518144, Note_on_c, 7, 67, 96
9, 518144, Note_off_c, 7, 58, 0
9, 518912, Note_off_c, 7, 67, 0
9, 518912, Note_on_c, 7, 67, 96
9, 519168, Note_off_c, 7, 67, 0
9, 519168, Note_on_c, 7, 63, 96
9, 521216, Note_off_c, 7, 63, 0
9, 531456, Note_on_c, 7, 63, 96
9, 531968, Note_off_c, 7, 63, 0
9, 532480, Note_on_c, 7, 63, 96
9, 532992, Note_off_c, 7, 63, 0
9, 533504, Note_on_c, 7, 58, 96
9, 534016, Note_off_c, 7, 58, 0
9, 534528, Note_on_c, 7, 60, 96
9, 534528, Note_on_c, 7, 56, 96
9, 535040, Note_off_c, 7, 60, 0
9, 535040, Note_off_c, 7, 56, 0
9, 535552, Note_on_c, 7, 63, 96
9, 536064, Note_off_c, 7, 63, 0
9, 536576, Note_on_c, 7, 63, 96
9, 537088, Note_off_c, 7, 63, 0
9, 537600, Note_on_c, 7, 60, 96
9, 537600, Note_on_c, 7, 53, 96
9, 538112, Note_off_c, 7, 60, 0
9, 538112, Note_off_c, 7, 53, 0
9, 538624, Note_on_c, 7, 53, 96
9, 539136, Note_off_c, 7, 53, 0
9, 539648, Note_on_c, 7, 60, 96
9, 540160, Note_off_c, 7, 60, 0
9, 540672, Note_on_c, 7, 62, 96
9, 540672, Note_on_c, 7, 58, 96
9, 541184, Note_off_c, 7, 62, 0
9, 541184, Note_off_c, 7, 58, 0
9, 541696, Note_on_c, 7, 65, 96
9, 542208, Note_off_c, 7, 65, 0
9, 542720, Note_on_c, 7, 68, 96
9, 543232, Note_off_c, 7, 68, 0
9, 543744, Note_on_c, 7, 65, 96
9, 543744, Note_on_c, 7, 65, 96
9, 544256, Note_off_c, 7, 65, 0
9, 544256, Note_off_c, 7, 65, 0
9, 544768, Note_on_c, 7, 70, 96
9, 544768, Note_on_c, 7, 65, 96
9, 545280, Note_off_c, 7, 70, 0
9, 545280, Note_off_c, 7, 65, 0
9, 545792, Note_on_c, 7, 65, 96
9, 545792, Note_on_c, 7, 58, 96
9, 546304, Note_off_c, 7, 65, 0
9, 546304, Note_off_c, 7, 58, 0
9, 546816, Note_on_c, 7, 67, 96
9, 546816, Note_on_c, 7, 58, 96
9, 547328, Note_off_c, 7, 67, 0
9, 547328, Note_off_c, 7, 58, 0
9, 556032, Note_on_c, 7, 56, 96
9, 556800, Note_off_c, 7, 56, 0
9, 556800, Note_on_c, 7, 56, 96
9, 557056, Note_off_c, 7, 56, 0
9, 557056, Note_on_c, 7, 60, 96
9, 557824, Note_off_c, 7, 60, 0
9, 557824, Note_on_c, 7, 60, 96
9, 558080, Note_off_c, 7, 60, 0
9, 558080, Note_on_c, 7, 60, 96
9, 558848, Note_off_c, 7, 60, 0
9, 558848, Note_on_c, 7, 60, 96
9, 559104, Note_off_c, 7, 60, 0
9, 559104, Note_on_c, 7, 58, 96
9, 559104, Note_on_c, 7, 55, 96
9, 559872, Note_off_c, 7, 55, 0
9, 559872, Note_on_c, 7, 55, 96
9, 560128, Note_off_c, 7, 55, 0
9, 560128, Note_on_c, 7, 55, 96
9, 560896, Note_off_c, 7, 55, 0
9, 560896, Note_on_c, 7, 55, 96
9, 561152, Note_off_c, 7, 58, 0
9, 561152, Note_off_c, 7, 55, 0
9, 561152, Note_on_c, 7, 60, 96
9, 561920, Note_off_c, 7, 60, 0
9, 561920, Note_on_c, 7, 60, 96
9, 562176, Note_off_c, 7, 60, 0
9, 562176, Note_on_c, 7, 56, 96
9, 562176, Note_on_c, 7, 53, 96
9, 562944, Note_off_c, 7, 56, 0
9, 562944, Note_on_c, 7, 56, 96
9, 563200, Note_off_c, 7, 56, 0
9, 563200, Note_on_c, 7, 56, 96
9, 563968, Note_off_c, 7, 56, 0
9, 563968, Note_on_c, 7, 56, 96
9, 564224, Note_off_c, 7, 56, 0
9, 564224, Note_on_c, 7, 53, 96
9, 564224, Note_off_c, 7, 53, 0
9, 564992, Note_off_c, 7, 53, 0
9, 564992, Note_on_c, 7, 53, 96
9, 565248, Note_off_c, 7, 53, 0
9, 565248, Note_on_c, 7, 58, 96
9, 565248, Note_on_c, 7, 53, 96
9, 566016, Note_off_c, 7, 53, 0
9, 566016, Note_on_c, 7, 53, 96
9, 566272, Note_off_c, 7, 53, 0
9, 566272, Note_on_c, 7, 53, 96
9, 567040, Note_off_c, 7, 53, 0
9, 567040, Note_on_c, 7, 53, 96
9, 567296, Note_off_c, 7, 58, 0
9, 567296, Note_off_c, 7, 53, 0
9, 567296, Note_on_c, 7, 53, 96
9, 568064, Note_off_c, 7, 53, 0
9, 568064, Note_on_c, 7, 53, 96
9, 568320, Note_off_c, 7, 53, 0
9, 568320, Note_on_c, 7, 58, 96
9, 568320, Note_on_c, 7, 51, 96
9, 568832, Note_off_c, 7, 58, 0
9, 569344, Note_on_c, 7, 63, 96
9, 569856, Note_off_c, 7, 63, 0
9, 570368, Note_on_c, 7, 63, 96
9, 570368, Note_off_c, 7, 51, 0
9, 570880, Note_off_c, 7, 63, 0
9, 571392, Note_on_c, 7, 63, 96
9, 571392, Note_on_c, 7, 55, 96
9, 571904, Note_off_c, 7, 63, 0
9, 571904, Note_off_c, 7, 55, 0
9, 572416, Note_on_c, 7, 67, 96
9, 572928, Note_off_c, 7, 67, 0
9, 573440, Note_on_c, 7, 67, 96
9, 573952, Note_off_c, 7, 67, 0
9, 574464, Note_on_c, 7, 60, 96
9, 574464, Note_on_c, 7, 60, 96
9, 574976, Note_off_c, 7, 60, 0
9, 574976, Note_off_c, 7, 60, 0
9, 575488, Note_on_c, 7, 68, 96
9, 575488, Note_on_c, 7, 63, 96
9, 576000, Note_off_c, 7, 68, 0
9, 576000, Note_off_c, 7, 63, 0
9, 576512, Note_on_c, 7, 63, 96
9, 576512, Note_on_c, 7, 63, 96
9, 577024, Note_off_c, 7, 63, 0
9, 577024, Note_off_c, 7, 63, 0
9, 577536, Note_on_c, 7, 63, 96
9, 577536, Note_on_c, 7, 55, 96
9, 578048, Note_off_c, 7, 63, 0
9, 578304, Note_off_c, 7, 55, 0
9, 578304, Note_on_c, 7, 55, 96
9, 578560, Note_off_c, 7, 55, 0
9, 578560, Note_on_c, 7, 55, 96
9, 579328, Note_off_c, 7, 55, 0
9, 579328, Note_on_c, 7, 55, 96
9, 579584, Note_off_c, 7, 55, 0
9, 579584, Note_on_c, 7, 55, 96
9, 580352, Note_off_c, 7, 55, 0
9, 580352, Note_on_c, 7, 55, 96
9, 580608, Note_off_c, 7, 55, 0
9, 580608, Note_on_c, 7, 55, 96
9, 580608, Note_on_c, 7, 55, 96
9, 581376, Note_off_c, 7, 55, 0
9, 581376, Note_on_c, 7, 55, 96
9, 581632, Note_off_c, 7, 55, 0
9, 581632, Note_on_c, 7, 55, 96
9, 582400, Note_off_c, 7, 55, 0
9, 582400, Note_on_c, 7, 55, 96
9, 582656, Note_off_c, 7, 55, 0
9, 582656, Note_on_c, 7, 55, 96
9, 582656, Note_off_c, 7, 55, 0
9, 583424, Note_off_c, 7, 55, 0
9, 583424, Note_on_c, 7, 55, 96
9, 583680, Note_off_c, 7, 55, 0
9, 583680, Note_on_c, 7, 53, 96
9, 583680, Note_on_c, 7, 56, 96
9, 584448, Note_off_c, 7, 56, 0
9, 584448, Note_on_c, 7, 56, 96
9, 584704, Note_off_c, 7, 56, 0
9, 584704, Note_on_c, 7, 60, 96
9, 585472, Note_off_c, 7, 60, 0
9, 585472, Note_on_c, 7, 60, 96
9, 585728, Note_off_c, 7, 53, 0
9, 585728, Note_off_c, 7, 60, 0
9, 585728, Note_on_c, 7, 56, 96
9, 586496, Note_off_c, 7, 56, 0
9, 586496, Note_on_c, 7, 56, 96
9, 586752, Note_off_c, 7, 56, 0
9, 586752, Note_on_c, 7, 53, 96
9, 586752, Note_on_c, 7, 53, 96
9, 587520, Note_off_c, 7, 53, 0
9, 587520, Note_on_c, 7, 53, 96
9, 587776, Note_off_c, 7, 53, 0
9, 587776, Note_on_c, 7, 58, 96
9, 588544, Note_off_c, 7, 58, 0
9, 588544, Note_on_c, 7, 58, 96
9, 588800, Note_off_c, 7, 58, 0
9, 588800, Note_on_c, 7, 62, 96
9, 588800, Note_off_c, 7, 53, 0
9, 589568, Note_off_c, 7, 62, 0
9, 589568, Note_on_c, 7, 62, 96
9, 589824, Note_off_c, 7, 62, 0
9, 589824, Note_on_c, 7, 58, 96
9, 589824, Note_on_c, 7, 55, 96
9, 590336, Note_off_c, 7, 55, 0
9, 590848, Note_on_c, 7, 58, 96
9, 591360, Note_off_c, 7, 58, 0
9, 591872, Note_off_c, 7, 58, 0
9, 591872, Note_on_c, 7, 58, 96
9, 592384, Note_off_c, 7, 58, 0
9, 592896, Note_on_c, 7, 62, 96
9, 592896, Note_on_c, 7, 58, 96
9, 593408, Note_off_c, 7, 62, 0
9, 593408, Note_off_c, 7, 58, 0
9, 593920, Note_on_c, 7, 65, 96
9, 594432, Note_off_c, 7, 65, 0
9, 594944, Note_on_c, 7, 65, 96
9, 595456, Note_off_c, 7, 65, 0
9, 595968, Note_on_c, 7, 65, 96
9, 595968, Note_on_c, 7, 56, 96
9, 596480, Note_off_c, 7, 65, 0
9, 596480, Note_off_c, 7, 56, 0
9, 596992, Note_on_c, 7, 60, 96
9, 597504, Note_off_c, 7, 60, 0
9, 598016, Note_on_c, 7, 63, 96
9, 598528, Note_off_c, 7, 63, 0
9, 599040, Note_on_c, 7, 63, 96
9, 599040, Note_on_c, 7, 67, 96
9, 599552, Note_off_c, 7, 63, 0
9, 599552, Note_off_c, 7, 67, 0
9, 600064, Note_on_c, 7, 67, 96
9, 600064, Note_on_c, 7, 60, 96
9, 600576, Note_off_c, 7, 67, 0
9, 600576, Note_off_c, 7, 60, 0
9, 601088, Note_on_c, 7, 72, 96
9, 601088, Note_on_c, 7, 60, 96
9, 601600, Note_off_c, 7, 72, 0
9, 601600, Note_off_c, 7, 60, 0
9, 602112, Note_on_c, 7, 70, 96
9, 602112, Note_on_c, 7, 67, 96
9, 602624, Note_off_c, 7, 70, 0
9, 602624, Note_off_c, 7, 67, 0
9, 603136, Note_on_c, 7, 63, 96
9, 603136, Note_on_c, 7, 70, 96
9, 603648, Note_off_c, 7, 63, 0
9, 603648, Note_off_c, 7, 70, 0
9, 604160, Note_on_c, 7, 67, 96
9, 604160, Note_on_c, 7, 70, 96
9, 604672, Note_off_c, 7, 67, 0
9, 604672, Note_off_c, 7, 70, 0
9, 605184, Note_on_c, 7, 63, 96
9, 605184, Note_on_c, 7, 68, 96
9, 605696, Note_off_c, 7, 63, 0
9, 605696, Note_off_c, 7, 68, 0
9, 606208, Note_on_c, 7, 72, 96
9, 606208, Note_on_c, 7, 60, 96
9, 606720, Note_off_c, 7, 60, 0
9, 607232, Note_on_c, 7, 65, 96
9, 607744, Note_off_c, 7, 65, 0
9, 608256, Note_off_c, 7, 72, 0
9, 608256, Note_on_c, 7, 70, 96
9, 608256, Note_on_c, 7, 65, 96
9, 608768, Note_off_c, 7, 70, 0
9, 608768, Note_off_c, 7, 65, 0
9, 609280, Note_on_c, 7, 70, 96
9, 609280, Note_on_c, 7, 58, 96
9, 609792, Note_off_c, 7, 70, 0
9, 609792, Note_off_c, 7, 58, 0
9, 610304, Note_on_c, 7, 63, 96
9, 610304, Note_on_c, 7, 63, 96
9, 610816, Note_off_c, 7, 63, 0
9, 610816, Note_off_c, 7, 63, 0
9, 611328, Note_on_c, 7, 60, 96
9, 611328, Note_on_c, 7, 56, 96
9, 611840, Note_off_c, 7, 60, 0
9, 611840, Note_off_c, 7, 56, 0
9, 612352, Note_on_c, 7, 62, 96
9, 612352, Note_on_c, 7, 68, 96
9, 612864, Note_off_c, 7, 68, 0
9, 613376, Note_on_c, 7, 65, 96
9, 613888, Note_off_c, 7, 65, 0
9, 614400, Note_off_c, 7, 62, 0
9, 614400, Note_on_c, 7, 67, 96
9, 614400, Note_on_c, 7, 71, 96
9, 614912, Note_off_c, 7, 67, 0
9, 614912, Note_off_c, 7, 71, 0
9, 615424, Note_on_c, 7, 67, 96
9, 615424, Note_on_c, 7, 63, 96
9, 615936, Note_off_c, 7, 67, 0
9, 615936, Note_off_c, 7, 63, 0
9, 616448, Note_on_c, 7, 67, 96
9, 616448, Note_on_c, 7, 60, 96
9, 616960, Note_off_c, 7, 67, 0
9, 616960, Note_off_c, 7, 60, 0
9, 617472, Note_on_c, 7, 60, 96
9, 617472, Note_on_c, 7, 60, 96
9, 617984, Note_off_c, 7, 60, 0
9, 617984, Note_off_c, 7, 60, 0
9, 618496, Note_on_c, 7, 60, 96
9, 618496, Note_on_c, 7, 57, 96
9, 619008, Note_off_c, 7, 60, 0
9, 619008, Note_off_c, 7, 57, 0
9, 619520, Note_on_c, 7, 60, 96
9, 619520, Note_on_c, 7, 53, 96
9, 620032, Note_off_c, 7, 60, 0
9, 620032, Note_off_c, 7, 53, 0
9, 620544, Note_on_c, 7, 58, 96
9, 620544, Note_on_c, 7, 58, 96
9, 621056, Note_off_c, 7, 58, 0
9, 621056, Note_off_c, 7, 58, 0
9, 621568, Note_on_c, 7, 65, 96
9, 621568, Note_on_c, 7, 58, 96
9, 622080, Note_off_c, 7, 65, 0
9, 622080, Note_off_c, 7, 58, 0
9, 622592, Note_on_c, 7, 70, 96
9, 622592, Note_on_c, 7, 58, 96
9, 623104, Note_off_c, 7, 70, 0
9, 623104, Note_off_c, 7, 58, 0
9, 623616, Note_on_c, 7, 63, 96
9, 623616, Note_on_c, 7, 58, 96
9, 624384, Note_off_c, 7, 63, 0
9, 624384, Note_on_c, 7, 72, 96
9, 624384, Note_off_c, 7, 58, 0
9, 624384, Note_on_c, 7, 72, 96
9, 624640, Note_off_c, 7, 72, 0
9, 624640, Note_on_c, 7, 70, 96
9, 624640, Note_off_c, 7, 72, 0
9, 624640, Note_on_c, 7, 70, 96
9, 625664, Note_off_c, 7, 70, 0
9, 625664, Note_on_c, 7, 68, 96
9, 625664, Note_off_c, 7, 70, 0
9, 625664, Note_on_c, 7, 68, 96
9, 626688, Note_off_c, 7, 68, 0
9, 626688, Note_off_c, 7, 68, 0
9, 626688, Note_on_c, 7, 67, 96
9, 626688, Note_on_c, 7, 67, 96
9, 629760, Note_off_c, 7, 67, 0
9, 629760, Note_off_c, 7, 67, 0
9, 629760, End_track
0, 0, End_of_file
