0, 0, Header, 1, 5, 240
1, 0, Start_track
1, 0, Time_signature, 4, 2, 24, 8
1, 0, Key_signature, 0, "major"
1, 0, Tempo, 800000
1, 19320, Tempo, 821917
1, 19440, Tempo, 833333
1, 19560, Tempo, 869565
1, 19688, Tempo, 895522
1, 19800, Tempo, 937500
1, 19920, Tempo, 1016949
1, 20040, Tempo, 1200000
1, 20096, Tempo, 1500000
1, 20160, Tempo, 1071428
1, 20160, End_track
2, 0, Start_track
2, 0, MIDI_port, 0
2, 0, Title_t, "RH H"
2, 0, Program_c, 0, 6
2, 60, Note_on_c, 0, 68, 64
2, 120, Note_on_c, 0, 68, 0
2, 120, Note_on_c, 0, 72, 64
2, 180, Note_on_c, 0, 72, 0
2, 180, Note_on_c, 0, 77, 64
2, 240, Note_on_c, 0, 77, 0
2, 300, Note_on_c, 0, 77, 64
2, 360, Note_on_c, 0, 77, 0
2, 360, Note_on_c, 0, 76, 64
2, 420, Note_on_c, 0, 76, 0
2, 420, Note_on_c, 0, 79, 64
2, 480, Note_on_c, 0, 79, 0
2, 540, Note_on_c, 0, 72, 64
2, 600, Note_on_c, 0, 72, 0
2, 600, Note_on_c, 0, 77, 64
2, 660, Note_on_c, 0, 77, 0
2, 660, Note_on_c, 0, 76, 64
2, 720, Note_on_c, 0, 76, 0
2, 720, Note_on_c, 0, 77, 64
2, 960, Note_on_c, 0, 77, 0
2, 960, Note_on_c, 0, 73, 64
2, 1250, Note_on_c, 0, 73, 0
2, 1260, Note_on_c, 0, 73, 64
2, 1320, Note_on_c, 0, 73, 0
2, 1320, Note_on_c, 0, 72, 64
2, 1380, Note_on_c, 0, 72, 0
2, 1380, Note_on_c, 0, 70, 64
2, 1440, Note_on_c, 0, 70, 0
2, 1440, Note_on_c, 0, 68, 64
2, 1620, Note_on_c, 0, 68, 0
2, 1620, Note_on_c, 0, 70, 64
2, 1670, Note_on_c, 0, 70, 0
2, 1680, Note_on_c, 0, 72, 64
2, 1702, Note_on_c, 0, 72, 0
2, 1702, Note_on_c, 0, 70, 64
2, 1724, Note_on_c, 0, 70, 0
2, 1724, Note_on_c, 0, 72, 50
2, 1746, Note_on_c, 0, 72, 0
2, 1746, Note_on_c, 0, 70, 55
2, 1768, Note_on_c, 0, 70, 0
2, 1768, Note_on_c, 0, 72, 64
2, 1790, Note_on_c, 0, 72, 0
2, 1790, Note_on_c, 0, 70, 64
2, 1860, Note_on_c, 0, 70, 0
2, 1860, Note_on_c, 0, 68, 64
2, 1890, Note_on_c, 0, 68, 0
2, 1890, Note_on_c, 0, 70, 64
2, 1920, Note_on_c, 0, 70, 0
2, 1920, Note_on_c, 0, 72, 64
2, 2160, Note_on_c, 0, 72, 0
2, 2220, Note_on_c, 0, 73, 64
2, 2280, Note_on_c, 0, 73, 0
2, 2280, Note_on_c, 0, 67, 64
2, 2340, Note_on_c, 0, 67, 0
2, 2340, Note_on_c, 0, 70, 64
2, 2400, Note_on_c, 0, 70, 0
2, 2400, Note_on_c, 0, 64, 64
2, 2580, Note_on_c, 0, 64, 0
2, 2580, Note_on_c, 0, 65, 64
2, 2630, Note_on_c, 0, 65, 0
2, 2640, Note_on_c, 0, 67, 74
2, 2662, Note_on_c, 0, 67, 0
2, 2662, Note_on_c, 0, 65, 47
2, 2684, Note_on_c, 0, 65, 0
2, 2684, Note_on_c, 0, 67, 51
2, 2706, Note_on_c, 0, 67, 0
2, 2706, Note_on_c, 0, 65, 55
2, 2728, Note_on_c, 0, 65, 0
2, 2728, Note_on_c, 0, 67, 77
2, 2750, Note_on_c, 0, 67, 0
2, 2750, Note_on_c, 0, 65, 64
2, 2820, Note_on_c, 0, 65, 0
2, 2820, Note_on_c, 0, 64, 64
2, 2850, Note_on_c, 0, 64, 0
2, 2850, Note_on_c, 0, 65, 64
2, 2880, Note_on_c, 0, 65, 0
2, 2940, Note_on_c, 0, 72, 64
2, 3000, Note_on_c, 0, 72, 0
2, 3000, Note_on_c, 0, 70, 64
2, 3060, Note_on_c, 0, 70, 0
2, 3060, Note_on_c, 0, 73, 64
2, 3180, Note_on_c, 0, 73, 0
2, 3180, Note_on_c, 0, 73, 64
2, 3240, Note_on_c, 0, 73, 0
2, 3240, Note_on_c, 0, 72, 64
2, 3300, Note_on_c, 0, 72, 0
2, 3300, Note_on_c, 0, 70, 64
2, 3360, Note_on_c, 0, 70, 0
2, 3360, Note_on_c, 0, 69, 64
2, 3540, Note_on_c, 0, 69, 0
2, 3540, Note_on_c, 0, 70, 64
2, 3590, Note_on_c, 0, 70, 0
2, 3600, Note_on_c, 0, 72, 70
2, 3622, Note_on_c, 0, 72, 0
2, 3622, Note_on_c, 0, 70, 88
2, 3644, Note_on_c, 0, 70, 0
2, 3644, Note_on_c, 0, 72, 50
2, 3666, Note_on_c, 0, 72, 0
2, 3666, Note_on_c, 0, 70, 55
2, 3688, Note_on_c, 0, 70, 0
2, 3688, Note_on_c, 0, 72, 79
2, 3710, Note_on_c, 0, 72, 0
2, 3710, Note_on_c, 0, 70, 64
2, 3780, Note_on_c, 0, 70, 0
2, 3780, Note_on_c, 0, 69, 64
2, 3810, Note_on_c, 0, 69, 0
2, 3810, Note_on_c, 0, 70, 64
2, 3840, Note_on_c, 0, 70, 0
2, 3840, Note_on_c, 0, 72, 64
2, 4370, Note_on_c, 0, 72, 0
2, 4380, Note_on_c, 0, 72, 64
2, 4440, Note_on_c, 0, 72, 0
2, 4440, Note_on_c, 0, 70, 64
2, 4500, Note_on_c, 0, 70, 0
2, 4500, Note_on_c, 0, 73, 64
2, 4560, Note_on_c, 0, 73, 0
2, 4560, Note_on_c, 0, 67, 64
2, 4680, Note_on_c, 0, 67, 0
2, 4680, Note_on_c, 0, 70, 76
2, 4702, Note_on_c, 0, 70, 0
2, 4702, Note_on_c, 0, 68, 56
2, 4724, Note_on_c, 0, 68, 0
2, 4724, Note_on_c, 0, 70, 60
2, 4746, Note_on_c, 0, 70, 0
2, 4746, Note_on_c, 0, 68, 77
2, 4800, Note_on_c, 0, 68, 0
2, 4800, Note_on_c, 0, 70, 64
2, 5340, Note_on_c, 0, 70, 0
2, 5340, Note_on_c, 0, 68, 64
2, 5400, Note_on_c, 0, 68, 0
2, 5400, Note_on_c, 0, 72, 64
2, 5580, Note_on_c, 0, 72, 0
2, 5580, Note_on_c, 0, 70, 64
2, 5640, Note_on_c, 0, 70, 0
2, 5640, Note_on_c, 0, 73, 64
2, 5820, Note_on_c, 0, 73, 0
2, 5820, Note_on_c, 0, 72, 64
2, 5880, Note_on_c, 0, 72, 0
2, 5880, Note_on_c, 0, 75, 66
2, 6060, Note_on_c, 0, 75, 0
2, 6060, Note_on_c, 0, 73, 64
2, 6120, Note_on_c, 0, 73, 0
2, 6120, Note_on_c, 0, 77, 68
2, 6300, Note_on_c, 0, 77, 0
2, 6300, Note_on_c, 0, 75, 89
2, 6360, Note_on_c, 0, 75, 0
2, 6360, Note_on_c, 0, 73, 64
2, 6420, Note_on_c, 0, 73, 0
2, 6420, Note_on_c, 0, 72, 64
2, 6480, Note_on_c, 0, 72, 0
2, 6480, Note_on_c, 0, 70, 64
2, 6540, Note_on_c, 0, 70, 0
2, 6540, Note_on_c, 0, 67, 64
2, 6600, Note_on_c, 0, 67, 0
2, 6600, Note_on_c, 0, 68, 64
2, 6660, Note_on_c, 0, 68, 0
2, 6660, Note_on_c, 0, 73, 64
2, 6720, Note_on_c, 0, 73, 0
2, 6720, Note_on_c, 0, 72, 74
2, 6742, Note_on_c, 0, 72, 0
2, 6742, Note_on_c, 0, 70, 47
2, 6764, Note_on_c, 0, 70, 0
2, 6764, Note_on_c, 0, 72, 51
2, 6786, Note_on_c, 0, 72, 0
2, 6786, Note_on_c, 0, 70, 55
2, 6808, Note_on_c, 0, 70, 0
2, 6808, Note_on_c, 0, 72, 64
2, 6830, Note_on_c, 0, 72, 0
2, 6830, Note_on_c, 0, 70, 64
2, 7020, Note_on_c, 0, 70, 0
2, 7020, Note_on_c, 0, 63, 64
2, 7080, Note_on_c, 0, 63, 0
2, 7080, Note_on_c, 0, 65, 64
2, 7140, Note_on_c, 0, 65, 0
2, 7140, Note_on_c, 0, 67, 64
2, 7200, Note_on_c, 0, 67, 0
2, 7200, Note_on_c, 0, 68, 64
2, 7260, Note_on_c, 0, 68, 0
2, 7260, Note_on_c, 0, 67, 64
2, 7320, Note_on_c, 0, 67, 0
2, 7320, Note_on_c, 0, 68, 64
2, 7380, Note_on_c, 0, 68, 0
2, 7380, Note_on_c, 0, 77, 64
2, 7440, Note_on_c, 0, 77, 0
2, 7440, Note_on_c, 0, 75, 64
2, 7620, Note_on_c, 0, 75, 0
2, 7620, Note_on_c, 0, 73, 64
2, 7680, Note_on_c, 0, 73, 0
2, 7680, Note_on_c, 0, 72, 64
2, 7740, Note_on_c, 0, 72, 0
2, 7740, Note_on_c, 0, 68, 64
2, 7800, Note_on_c, 0, 68, 0
2, 7800, Note_on_c, 0, 72, 64
2, 7860, Note_on_c, 0, 72, 0
2, 7860, Note_on_c, 0, 76, 64
2, 7920, Note_on_c, 0, 76, 0
2, 7920, Note_on_c, 0, 77, 64
2, 7980, Note_on_c, 0, 77, 0
2, 7980, Note_on_c, 0, 79, 64
2, 8040, Note_on_c, 0, 79, 0
2, 8040, Note_on_c, 0, 76, 64
2, 8100, Note_on_c, 0, 76, 0
2, 8100, Note_on_c, 0, 77, 64
2, 8160, Note_on_c, 0, 77, 0
2, 8160, Note_on_c, 0, 79, 64
2, 8700, Note_on_c, 0, 79, 0
2, 8700, Note_on_c, 0, 72, 64
2, 8760, Note_on_c, 0, 72, 0
2, 8760, Note_on_c, 0, 77, 64
2, 8820, Note_on_c, 0, 77, 0
2, 8820, Note_on_c, 0, 80, 64
2, 8880, Note_on_c, 0, 80, 0
2, 8880, Note_on_c, 0, 74, 64
2, 8940, Note_on_c, 0, 74, 0
2, 8940, Note_on_c, 0, 77, 64
2, 9000, Note_on_c, 0, 77, 0
2, 9000, Note_on_c, 0, 71, 64
2, 9060, Note_on_c, 0, 71, 0
2, 9060, Note_on_c, 0, 72, 64
2, 9110, Note_on_c, 0, 72, 0
2, 9120, Note_on_c, 0, 72, 72
2, 9142, Note_on_c, 0, 72, 0
2, 9142, Note_on_c, 0, 71, 64
2, 9164, Note_on_c, 0, 72, 64
2, 9165, Note_on_c, 0, 71, 0
2, 9186, Note_on_c, 0, 71, 64
2, 9187, Note_on_c, 0, 72, 0
2, 9208, Note_on_c, 0, 72, 64
2, 9209, Note_on_c, 0, 71, 0
2, 9230, Note_on_c, 0, 71, 64
2, 9231, Note_on_c, 0, 72, 0
2, 9300, Note_on_c, 0, 71, 0
2, 9300, Note_on_c, 0, 72, 64
2, 9350, Note_on_c, 0, 72, 0
2, 9360, Note_on_c, 0, 74, 72
2, 9382, Note_on_c, 0, 74, 0
2, 9382, Note_on_c, 0, 72, 64
2, 9404, Note_on_c, 0, 72, 0
2, 9404, Note_on_c, 0, 74, 64
2, 9426, Note_on_c, 0, 74, 0
2, 9426, Note_on_c, 0, 72, 64
2, 9448, Note_on_c, 0, 72, 0
2, 9448, Note_on_c, 0, 74, 64
2, 9470, Note_on_c, 0, 74, 0
2, 9470, Note_on_c, 0, 72, 64
2, 9540, Note_on_c, 0, 72, 0
2, 9540, Note_on_c, 0, 71, 64
2, 9570, Note_on_c, 0, 71, 0
2, 9570, Note_on_c, 0, 72, 64
2, 9600, Note_on_c, 0, 72, 0
2, 9660, Note_on_c, 0, 79, 64
2, 9720, Note_on_c, 0, 79, 0
2, 9720, Note_on_c, 0, 77, 64
2, 9780, Note_on_c, 0, 77, 0
2, 9780, Note_on_c, 0, 80, 64
2, 9890, Note_on_c, 0, 80, 0
2, 9900, Note_on_c, 0, 80, 64
2, 9960, Note_on_c, 0, 80, 0
2, 9960, Note_on_c, 0, 79, 64
2, 10020, Note_on_c, 0, 79, 0
2, 10020, Note_on_c, 0, 77, 64
2, 10080, Note_on_c, 0, 77, 0
2, 10140, Note_on_c, 0, 84, 64
2, 10260, Note_on_c, 0, 84, 0
2, 10260, Note_on_c, 0, 83, 64
2, 10320, Note_on_c, 0, 83, 0
2, 10320, Note_on_c, 0, 84, 64
2, 10560, Note_on_c, 0, 84, 0
2, 10560, Note_on_c, 0, 75, 64
2, 10860, Note_on_c, 0, 75, 0
2, 10860, Note_on_c, 0, 72, 64
2, 10920, Note_on_c, 0, 72, 0
2, 10920, Note_on_c, 0, 74, 64
2, 11040, Note_on_c, 0, 74, 0
2, 11040, Note_on_c, 0, 72, 64
2, 11520, Note_on_c, 0, 72, 0
2, 11580, Note_on_c, 0, 69, 64
2, 11640, Note_on_c, 0, 69, 0
2, 11640, Note_on_c, 0, 72, 64
2, 11700, Note_on_c, 0, 72, 0
2, 11700, Note_on_c, 0, 75, 64
2, 11820, Note_on_c, 0, 75, 0
2, 11820, Note_on_c, 0, 78, 64
2, 11880, Note_on_c, 0, 78, 0
2, 11880, Note_on_c, 0, 72, 64
2, 11940, Note_on_c, 0, 72, 0
2, 11940, Note_on_c, 0, 75, 64
2, 12000, Note_on_c, 0, 75, 0
2, 12000, Note_on_c, 0, 73, 64
2, 12360, Note_on_c, 0, 73, 0
2, 12360, Note_on_c, 0, 72, 64
2, 12540, Note_on_c, 0, 72, 0
2, 12540, Note_on_c, 0, 70, 64
2, 12600, Note_on_c, 0, 70, 0
2, 12600, Note_on_c, 0, 67, 64
2, 12660, Note_on_c, 0, 67, 0
2, 12660, Note_on_c, 0, 64, 64
2, 12720, Note_on_c, 0, 64, 0
2, 12720, Note_on_c, 0, 60, 64
2, 12780, Note_on_c, 0, 60, 0
2, 12780, Note_on_c, 0, 64, 64
2, 12840, Note_on_c, 0, 64, 0
2, 12900, Note_on_c, 0, 71, 64
2, 12960, Note_on_c, 0, 71, 0
2, 12960, Note_on_c, 0, 72, 64
2, 13020, Note_on_c, 0, 65, 64
2, 13080, Note_on_c, 0, 65, 0
2, 13140, Note_on_c, 0, 67, 64
2, 13200, Note_on_c, 0, 67, 0
2, 13200, Note_on_c, 0, 72, 0
2, 13200, Note_on_c, 0, 70, 64
2, 13260, Note_on_c, 0, 70, 0
2, 13260, Note_on_c, 0, 73, 64
2, 13320, Note_on_c, 0, 73, 0
2, 13320, Note_on_c, 0, 72, 64
2, 13380, Note_on_c, 0, 72, 0
2, 13380, Note_on_c, 0, 70, 64
2, 13440, Note_on_c, 0, 70, 0
2, 13440, Note_on_c, 0, 69, 64
2, 13500, Note_on_c, 0, 69, 0
2, 13500, Note_on_c, 0, 65, 64
2, 13560, Note_on_c, 0, 65, 0
2, 13560, Note_on_c, 0, 69, 64
2, 13620, Note_on_c, 0, 69, 0
2, 13620, Note_on_c, 0, 72, 64
2, 13680, Note_on_c, 0, 72, 0
2, 13680, Note_on_c, 0, 77, 64
2, 13860, Note_on_c, 0, 77, 0
2, 13860, Note_on_c, 0, 75, 64
2, 13920, Note_on_c, 0, 75, 0
2, 13920, Note_on_c, 0, 73, 64
2, 14220, Note_on_c, 0, 73, 0
2, 14220, Note_on_c, 0, 72, 64
2, 14340, Note_on_c, 0, 72, 0
2, 14340, Note_on_c, 0, 70, 64
2, 14460, Note_on_c, 0, 70, 0
2, 14460, Note_on_c, 0, 73, 64
2, 14520, Note_on_c, 0, 73, 0
2, 14520, Note_on_c, 0, 72, 64
2, 14640, Note_on_c, 0, 72, 0
2, 14640, Note_on_c, 0, 68, 64
2, 14820, Note_on_c, 0, 68, 0
2, 14820, Note_on_c, 0, 67, 64
2, 14880, Note_on_c, 0, 67, 0
2, 14940, Note_on_c, 0, 68, 64
2, 15000, Note_on_c, 0, 68, 0
2, 15000, Note_on_c, 0, 72, 64
2, 15060, Note_on_c, 0, 72, 0
2, 15060, Note_on_c, 0, 77, 64
2, 15170, Note_on_c, 0, 77, 0
2, 15180, Note_on_c, 0, 77, 64
2, 15240, Note_on_c, 0, 77, 0
2, 15240, Note_on_c, 0, 76, 64
2, 15300, Note_on_c, 0, 76, 0
2, 15300, Note_on_c, 0, 79, 64
2, 15360, Note_on_c, 0, 79, 0
2, 15420, Note_on_c, 0, 72, 64
2, 15480, Note_on_c, 0, 72, 0
2, 15480, Note_on_c, 0, 77, 64
2, 15540, Note_on_c, 0, 77, 0
2, 15540, Note_on_c, 0, 76, 64
2, 15600, Note_on_c, 0, 76, 0
2, 15600, Note_on_c, 0, 77, 64
2, 15840, Note_on_c, 0, 77, 0
2, 15840, Note_on_c, 0, 73, 64
2, 16130, Note_on_c, 0, 73, 0
2, 16140, Note_on_c, 0, 73, 64
2, 16200, Note_on_c, 0, 73, 0
2, 16200, Note_on_c, 0, 72, 64
2, 16260, Note_on_c, 0, 72, 0
2, 16260, Note_on_c, 0, 70, 64
2, 16320, Note_on_c, 0, 70, 0
2, 16320, Note_on_c, 0, 68, 64
2, 16610, Note_on_c, 0, 68, 0
2, 16620, Note_on_c, 0, 68, 64
2, 16680, Note_on_c, 0, 68, 0
2, 16680, Note_on_c, 0, 67, 64
2, 16740, Note_on_c, 0, 67, 0
2, 16740, Note_on_c, 0, 65, 64
2, 16800, Note_on_c, 0, 65, 0
2, 16800, Note_on_c, 0, 64, 64
2, 17280, Note_on_c, 0, 64, 0
2, 17340, Note_on_c, 0, 72, 64
2, 17400, Note_on_c, 0, 72, 0
2, 17400, Note_on_c, 0, 70, 64
2, 17460, Note_on_c, 0, 70, 0
2, 17460, Note_on_c, 0, 73, 64
2, 17520, Note_on_c, 0, 73, 0
2, 17520, Note_on_c, 0, 64, 64
2, 17580, Note_on_c, 0, 64, 0
2, 17580, Note_on_c, 0, 73, 64
2, 17640, Note_on_c, 0, 73, 0
2, 17640, Note_on_c, 0, 72, 64
2, 17700, Note_on_c, 0, 72, 0
2, 17700, Note_on_c, 0, 70, 64
2, 17760, Note_on_c, 0, 70, 0
2, 17760, Note_on_c, 0, 68, 64
2, 17820, Note_on_c, 0, 68, 0
2, 17820, Note_on_c, 0, 79, 64
2, 17880, Note_on_c, 0, 79, 0
2, 17880, Note_on_c, 0, 77, 64
2, 17940, Note_on_c, 0, 77, 0
2, 17940, Note_on_c, 0, 80, 64
2, 18000, Note_on_c, 0, 80, 0
2, 18000, Note_on_c, 0, 71, 64
2, 18060, Note_on_c, 0, 71, 0
2, 18060, Note_on_c, 0, 80, 64
2, 18120, Note_on_c, 0, 80, 0
2, 18120, Note_on_c, 0, 79, 64
2, 18180, Note_on_c, 0, 79, 0
2, 18180, Note_on_c, 0, 77, 64
2, 18240, Note_on_c, 0, 77, 0
2, 18240, Note_on_c, 0, 76, 64
2, 18300, Note_on_c, 0, 76, 0
2, 18300, Note_on_c, 0, 77, 64
2, 18360, Note_on_c, 0, 77, 0
2, 18360, Note_on_c, 0, 79, 64
2, 18420, Note_on_c, 0, 79, 0
2, 18420, Note_on_c, 0, 76, 64
2, 18480, Note_on_c, 0, 76, 0
2, 18480, Note_on_c, 0, 82, 64
2, 18540, Note_on_c, 0, 82, 0
2, 18540, Note_on_c, 0, 73, 64
2, 18600, Note_on_c, 0, 73, 0
2, 18600, Note_on_c, 0, 72, 64
2, 18660, Note_on_c, 0, 72, 0
2, 18660, Note_on_c, 0, 70, 64
2, 18720, Note_on_c, 0, 70, 0
2, 18720, Note_on_c, 0, 68, 64
2, 18780, Note_on_c, 0, 68, 0
2, 18780, Note_on_c, 0, 70, 64
2, 18840, Note_on_c, 0, 70, 0
2, 18840, Note_on_c, 0, 72, 64
2, 18900, Note_on_c, 0, 72, 0
2, 18900, Note_on_c, 0, 65, 64
2, 18960, Note_on_c, 0, 65, 0
2, 18960, Note_on_c, 0, 74, 64
2, 19020, Note_on_c, 0, 74, 0
2, 19020, Note_on_c, 0, 68, 64
2, 19080, Note_on_c, 0, 68, 0
2, 19080, Note_on_c, 0, 67, 64
2, 19140, Note_on_c, 0, 67, 0
2, 19140, Note_on_c, 0, 65, 64
2, 19200, Note_on_c, 0, 65, 0
2, 19200, Note_on_c, 0, 64, 64
2, 19440, Note_on_c, 0, 64, 0
2, 19440, Note_on_c, 0, 65, 64
2, 19740, Note_on_c, 0, 62, 64
2, 19800, Note_on_c, 0, 62, 0
2, 19800, Note_on_c, 0, 59, 64
2, 19860, Note_on_c, 0, 59, 0
2, 19860, Note_on_c, 0, 60, 64
2, 19920, Note_on_c, 0, 60, 0
2, 19920, Note_on_c, 0, 65, 0
2, 20100, Note_on_c, 0, 64, 64
2, 20160, Note_on_c, 0, 64, 0
2, 20160, Note_on_c, 0, 65, 60
2, 21120, Note_on_c, 0, 65, 0
2, 21120, End_track
3, 0, Start_track
3, 0, MIDI_port, 0
3, 0, Title_t, "RH L"
3, 0, Program_c, 1, 6
3, 0, Note_on_c, 1, 65, 64
3, 240, Note_on_c, 1, 65, 0
3, 240, Note_on_c, 1, 67, 64
3, 480, Note_on_c, 1, 67, 0
3, 480, Note_on_c, 1, 68, 64
3, 720, Note_on_c, 1, 68, 0
3, 780, Note_on_c, 1, 72, 64
3, 840, Note_on_c, 1, 72, 0
3, 840, Note_on_c, 1, 70, 64
3, 900, Note_on_c, 1, 70, 0
3, 900, Note_on_c, 1, 68, 64
3, 960, Note_on_c, 1, 68, 0
3, 1020, Note_on_c, 1, 68, 64
3, 1080, Note_on_c, 1, 68, 0
3, 1080, Note_on_c, 1, 67, 64
3, 1140, Note_on_c, 1, 67, 0
3, 1140, Note_on_c, 1, 70, 64
3, 1200, Note_on_c, 1, 70, 0
3, 1200, Note_on_c, 1, 64, 64
3, 1440, Note_on_c, 1, 64, 0
3, 1440, Note_on_c, 1, 65, 64
3, 1560, Note_on_c, 1, 65, 0
3, 1980, Note_on_c, 1, 68, 64
3, 2040, Note_on_c, 1, 68, 0
3, 2040, Note_on_c, 1, 64, 64
3, 2100, Note_on_c, 1, 64, 0
3, 2100, Note_on_c, 1, 65, 64
3, 2160, Note_on_c, 1, 65, 0
3, 2160, Note_on_c, 1, 61, 64
3, 2400, Note_on_c, 1, 61, 0
3, 2400, Note_on_c, 1, 60, 64
3, 2520, Note_on_c, 1, 60, 0
3, 2880, Note_on_c, 1, 67, 64
3, 3120, Note_on_c, 1, 67, 0
3, 3120, Note_on_c, 1, 64, 64
3, 3360, Note_on_c, 1, 64, 0
3, 3360, Note_on_c, 1, 63, 64
3, 3600, Note_on_c, 1, 63, 0
3, 3600, Note_on_c, 1, 61, 64
3, 3840, Note_on_c, 1, 61, 0
3, 3900, Note_on_c, 1, 65, 64
3, 3960, Note_on_c, 1, 65, 0
3, 3960, Note_on_c, 1, 63, 64
3, 4020, Note_on_c, 1, 63, 0
3, 4020, Note_on_c, 1, 66, 64
3, 4130, Note_on_c, 1, 66, 0
3, 4140, Note_on_c, 1, 66, 64
3, 4200, Note_on_c, 1, 66, 0
3, 4200, Note_on_c, 1, 65, 64
3, 4260, Note_on_c, 1, 65, 0
3, 4260, Note_on_c, 1, 63, 64
3, 4320, Note_on_c, 1, 63, 0
3, 4320, Note_on_c, 1, 62, 64
3, 4860, Note_on_c, 1, 62, 0
3, 4860, Note_on_c, 1, 60, 64
3, 4920, Note_on_c, 1, 60, 0
3, 4920, Note_on_c, 1, 61, 64
3, 4980, Note_on_c, 1, 61, 0
3, 4980, Note_on_c, 1, 65, 64
3, 5090, Note_on_c, 1, 65, 0
3, 5100, Note_on_c, 1, 65, 64
3, 5160, Note_on_c, 1, 65, 0
3, 5160, Note_on_c, 1, 63, 64
3, 5220, Note_on_c, 1, 63, 0
3, 5220, Note_on_c, 1, 61, 64
3, 5280, Note_on_c, 1, 61, 0
3, 5280, Note_on_c, 1, 60, 64
3, 5520, Note_on_c, 1, 60, 0
3, 5520, Note_on_c, 1, 61, 64
3, 5760, Note_on_c, 1, 61, 0
3, 5760, Note_on_c, 1, 63, 64
3, 6000, Note_on_c, 1, 63, 0
3, 6000, Note_on_c, 1, 65, 64
3, 6240, Note_on_c, 1, 65, 0
3, 6240, Note_on_c, 1, 67, 64
3, 6360, Note_on_c, 1, 67, 0
3, 7500, Note_on_c, 1, 68, 64
3, 7560, Note_on_c, 1, 68, 0
3, 7560, Note_on_c, 1, 67, 64
3, 7680, Note_on_c, 1, 67, 0
3, 9600, Note_on_c, 1, 74, 64
3, 9840, Note_on_c, 1, 74, 0
3, 9840, Note_on_c, 1, 71, 64
3, 10080, Note_on_c, 1, 71, 0
3, 10080, Note_on_c, 1, 75, 64
3, 10200, Note_on_c, 1, 75, 0
3, 10200, Note_on_c, 1, 77, 64
3, 10320, Note_on_c, 1, 77, 0
3, 10380, Note_on_c, 1, 79, 64
3, 10440, Note_on_c, 1, 79, 0
3, 10440, Note_on_c, 1, 80, 64
3, 10500, Note_on_c, 1, 80, 0
3, 10500, Note_on_c, 1, 79, 64
3, 10560, Note_on_c, 1, 79, 0
3, 10620, Note_on_c, 1, 71, 64
3, 10680, Note_on_c, 1, 71, 0
3, 10680, Note_on_c, 1, 72, 64
3, 10740, Note_on_c, 1, 72, 0
3, 10740, Note_on_c, 1, 66, 64
3, 10800, Note_on_c, 1, 66, 0
3, 10800, Note_on_c, 1, 67, 64
3, 10980, Note_on_c, 1, 67, 0
3, 10980, Note_on_c, 1, 65, 64
3, 11090, Note_on_c, 1, 65, 0
3, 11100, Note_on_c, 1, 65, 64
3, 11160, Note_on_c, 1, 65, 0
3, 11160, Note_on_c, 1, 64, 64
3, 11220, Note_on_c, 1, 64, 0
3, 11220, Note_on_c, 1, 67, 64
3, 11280, Note_on_c, 1, 67, 0
3, 11280, Note_on_c, 1, 60, 64
3, 11520, Note_on_c, 1, 60, 0
3, 11520, Note_on_c, 1, 65, 64
3, 11760, Note_on_c, 1, 65, 0
3, 11760, Note_on_c, 1, 69, 64
3, 12000, Note_on_c, 1, 69, 0
3, 12120, Note_on_c, 1, 70, 64
3, 12240, Note_on_c, 1, 70, 0
3, 12240, Note_on_c, 1, 64, 64
3, 12480, Note_on_c, 1, 64, 0
3, 12480, Note_on_c, 1, 65, 64
3, 12600, Note_on_c, 1, 65, 0
3, 12840, Note_on_c, 1, 65, 64
3, 12960, Note_on_c, 1, 65, 0
3, 13080, Note_on_c, 1, 64, 64
3, 13440, Note_on_c, 1, 64, 0
3, 13740, Note_on_c, 1, 70, 64
3, 13800, Note_on_c, 1, 70, 0
3, 13800, Note_on_c, 1, 69, 64
3, 13920, Note_on_c, 1, 69, 0
3, 13980, Note_on_c, 1, 68, 64
3, 14040, Note_on_c, 1, 68, 0
3, 14040, Note_on_c, 1, 67, 64
3, 14100, Note_on_c, 1, 67, 0
3, 14100, Note_on_c, 1, 68, 64
3, 14160, Note_on_c, 1, 68, 0
3, 14160, Note_on_c, 1, 64, 64
3, 14280, Note_on_c, 1, 64, 0
3, 14280, Note_on_c, 1, 65, 64
3, 14400, Note_on_c, 1, 65, 0
3, 14400, Note_on_c, 1, 64, 64
3, 14580, Note_on_c, 1, 64, 0
3, 14580, Note_on_c, 1, 65, 64
3, 14690, Note_on_c, 1, 65, 0
3, 14700, Note_on_c, 1, 65, 64
3, 14760, Note_on_c, 1, 65, 0
3, 14760, Note_on_c, 1, 64, 64
3, 14880, Note_on_c, 1, 64, 0
3, 14880, Note_on_c, 1, 65, 64
3, 15120, Note_on_c, 1, 65, 0
3, 15120, Note_on_c, 1, 67, 64
3, 15360, Note_on_c, 1, 67, 0
3, 15360, Note_on_c, 1, 68, 64
3, 15600, Note_on_c, 1, 68, 0
3, 15660, Note_on_c, 1, 72, 64
3, 15720, Note_on_c, 1, 72, 0
3, 15720, Note_on_c, 1, 70, 64
3, 15780, Note_on_c, 1, 70, 0
3, 15780, Note_on_c, 1, 68, 64
3, 15840, Note_on_c, 1, 68, 0
3, 15900, Note_on_c, 1, 68, 64
3, 15960, Note_on_c, 1, 68, 0
3, 15960, Note_on_c, 1, 67, 64
3, 16020, Note_on_c, 1, 67, 0
3, 16020, Note_on_c, 1, 70, 64
3, 16080, Note_on_c, 1, 70, 0
3, 16080, Note_on_c, 1, 64, 64
3, 16320, Note_on_c, 1, 64, 0
3, 16320, Note_on_c, 1, 65, 64
3, 16380, Note_on_c, 1, 65, 0
3, 16380, Note_on_c, 1, 63, 64
3, 16440, Note_on_c, 1, 63, 0
3, 16440, Note_on_c, 1, 62, 64
3, 16500, Note_on_c, 1, 62, 0
3, 16500, Note_on_c, 1, 65, 64
3, 16560, Note_on_c, 1, 65, 0
3, 16560, Note_on_c, 1, 59, 64
3, 16800, Note_on_c, 1, 59, 0
3, 16860, Note_on_c, 1, 60, 64
3, 16920, Note_on_c, 1, 60, 0
3, 16920, Note_on_c, 1, 58, 64
3, 16980, Note_on_c, 1, 58, 0
3, 16980, Note_on_c, 1, 61, 64
3, 17040, Note_on_c, 1, 61, 0
3, 17040, Note_on_c, 1, 55, 64
3, 17100, Note_on_c, 1, 55, 0
3, 17100, Note_on_c, 1, 61, 64
3, 17160, Note_on_c, 1, 61, 0
3, 17160, Note_on_c, 1, 60, 64
3, 17220, Note_on_c, 1, 60, 0
3, 17220, Note_on_c, 1, 58, 64
3, 17280, Note_on_c, 1, 58, 0
3, 17280, Note_on_c, 1, 56, 46
3, 17520, Note_on_c, 1, 56, 0
3, 17520, Note_on_c, 1, 58, 48
3, 17760, Note_on_c, 1, 58, 0
3, 17760, Note_on_c, 1, 60, 51
3, 18000, Note_on_c, 1, 60, 0
3, 18000, Note_on_c, 1, 56, 53
3, 18240, Note_on_c, 1, 56, 0
3, 18240, Note_on_c, 1, 58, 56
3, 18480, Note_on_c, 1, 58, 0
3, 18480, Note_on_c, 1, 55, 58
3, 18720, Note_on_c, 1, 55, 0
3, 19260, Note_on_c, 1, 60, 64
3, 19320, Note_on_c, 1, 60, 0
3, 19320, Note_on_c, 1, 55, 64
3, 19380, Note_on_c, 1, 55, 0
3, 19380, Note_on_c, 1, 58, 64
3, 19440, Note_on_c, 1, 58, 0
3, 19440, Note_on_c, 1, 56, 64
3, 19680, Note_on_c, 1, 56, 0
3, 19680, Note_on_c, 1, 55, 64
3, 19800, Note_on_c, 1, 55, 0
3, 19800, Note_on_c, 1, 53, 64
3, 19920, Note_on_c, 1, 53, 0
3, 19920, Note_on_c, 1, 55, 64
3, 19980, Note_on_c, 1, 58, 64
3, 20040, Note_on_c, 1, 60, 64
3, 20160, Note_on_c, 1, 60, 0
3, 20160, Note_on_c, 1, 58, 0
3, 20160, Note_on_c, 1, 55, 0
3, 20160, Note_on_c, 1, 60, 60
3, 20160, Note_on_c, 1, 57, 60
3, 21120, Note_on_c, 1, 57, 0
3, 21120, Note_on_c, 1, 60, 0
3, 21120, End_track
4, 0, Start_track
4, 0, MIDI_port, 0
4, 0, Title_t, "LH H"
4, 0, Program_c, 2, 6
4, 0, Note_on_c, 2, 56, 64
4, 240, Note_on_c, 2, 56, 0
4, 240, Note_on_c, 2, 58, 64
4, 480, Note_on_c, 2, 58, 0
4, 480, Note_on_c, 2, 60, 64
4, 720, Note_on_c, 2, 60, 0
4, 720, Note_on_c, 2, 56, 64
4, 960, Note_on_c, 2, 56, 0
4, 960, Note_on_c, 2, 58, 64
4, 1200, Note_on_c, 2, 58, 0
4, 1200, Note_on_c, 2, 55, 64
4, 1440, Note_on_c, 2, 55, 0
4, 1500, Note_on_c, 2, 56, 64
4, 1560, Note_on_c, 2, 56, 0
4, 1560, Note_on_c, 2, 60, 64
4, 1620, Note_on_c, 2, 60, 0
4, 1620, Note_on_c, 2, 65, 64
4, 1680, Note_on_c, 2, 65, 0
4, 1740, Note_on_c, 2, 65, 64
4, 1800, Note_on_c, 2, 65, 0
4, 1800, Note_on_c, 2, 64, 64
4, 1860, Note_on_c, 2, 64, 0
4, 1860, Note_on_c, 2, 67, 64
4, 1920, Note_on_c, 2, 67, 0
4, 2460, Note_on_c, 2, 52, 64
4, 2520, Note_on_c, 2, 52, 0
4, 2520, Note_on_c, 2, 55, 64
4, 2580, Note_on_c, 2, 55, 0
4, 2580, Note_on_c, 2, 60, 64
4, 2640, Note_on_c, 2, 60, 0
4, 2700, Note_on_c, 2, 60, 64
4, 2760, Note_on_c, 2, 60, 0
4, 2760, Note_on_c, 2, 58, 64
4, 2820, Note_on_c, 2, 58, 0
4, 2820, Note_on_c, 2, 61, 64
4, 2880, Note_on_c, 2, 61, 0
4, 3000, Note_on_c, 2, 55, 64
4, 3120, Note_on_c, 2, 55, 0
4, 3120, Note_on_c, 2, 60, 64
4, 3360, Note_on_c, 2, 60, 0
4, 3420, Note_on_c, 2, 45, 64
4, 3480, Note_on_c, 2, 45, 0
4, 3480, Note_on_c, 2, 48, 64
4, 3540, Note_on_c, 2, 48, 0
4, 3540, Note_on_c, 2, 53, 64
4, 3600, Note_on_c, 2, 53, 0
4, 3660, Note_on_c, 2, 53, 64
4, 3720, Note_on_c, 2, 53, 0
4, 3720, Note_on_c, 2, 51, 64
4, 3780, Note_on_c, 2, 51, 0
4, 3780, Note_on_c, 2, 54, 64
4, 3840, Note_on_c, 2, 54, 0
4, 3960, Note_on_c, 2, 48, 64
4, 4080, Note_on_c, 2, 48, 0
4, 4080, Note_on_c, 2, 45, 64
4, 4320, Note_on_c, 2, 45, 0
4, 5040, Note_on_c, 2, 55, 64
4, 5160, Note_on_c, 2, 55, 0
4, 5340, Note_on_c, 2, 48, 64
4, 5400, Note_on_c, 2, 48, 0
4, 5400, Note_on_c, 2, 51, 64
4, 5460, Note_on_c, 2, 51, 0
4, 5460, Note_on_c, 2, 56, 64
4, 5520, Note_on_c, 2, 56, 0
4, 5580, Note_on_c, 2, 56, 64
4, 5640, Note_on_c, 2, 56, 0
4, 5640, Note_on_c, 2, 55, 64
4, 5700, Note_on_c, 2, 55, 0
4, 5700, Note_on_c, 2, 58, 64
4, 5760, Note_on_c, 2, 58, 0
4, 5820, Note_on_c, 2, 51, 64
4, 5880, Note_on_c, 2, 51, 0
4, 5880, Note_on_c, 2, 56, 64
4, 5940, Note_on_c, 2, 56, 0
4, 5940, Note_on_c, 2, 60, 64
4, 6000, Note_on_c, 2, 60, 0
4, 6060, Note_on_c, 2, 60, 64
4, 6120, Note_on_c, 2, 60, 0
4, 6120, Note_on_c, 2, 58, 64
4, 6180, Note_on_c, 2, 58, 0
4, 6180, Note_on_c, 2, 61, 64
4, 6240, Note_on_c, 2, 61, 0
4, 6300, Note_on_c, 2, 55, 64
4, 6360, Note_on_c, 2, 55, 0
4, 6360, Note_on_c, 2, 58, 64
4, 6420, Note_on_c, 2, 58, 0
4, 6420, Note_on_c, 2, 63, 64
4, 6480, Note_on_c, 2, 63, 0
4, 6540, Note_on_c, 2, 63, 64
4, 6600, Note_on_c, 2, 63, 0
4, 6600, Note_on_c, 2, 61, 64
4, 6660, Note_on_c, 2, 61, 0
4, 6660, Note_on_c, 2, 65, 64
4, 6720, Note_on_c, 2, 65, 0
4, 6780, Note_on_c, 2, 65, 64
4, 6840, Note_on_c, 2, 65, 0
4, 6840, Note_on_c, 2, 63, 64
4, 6900, Note_on_c, 2, 63, 0
4, 6900, Note_on_c, 2, 61, 64
4, 6960, Note_on_c, 2, 61, 0
4, 6960, Note_on_c, 2, 60, 64
4, 7430, Note_on_c, 2, 60, 0
4, 7440, Note_on_c, 2, 60, 74
4, 7462, Note_on_c, 2, 60, 0
4, 7462, Note_on_c, 2, 58, 47
4, 7484, Note_on_c, 2, 60, 51
4, 7485, Note_on_c, 2, 58, 0
4, 7506, Note_on_c, 2, 58, 55
4, 7507, Note_on_c, 2, 60, 0
4, 7528, Note_on_c, 2, 60, 68
4, 7529, Note_on_c, 2, 58, 0
4, 7550, Note_on_c, 2, 60, 0
4, 7550, Note_on_c, 2, 58, 64
4, 7680, Note_on_c, 2, 58, 0
4, 7680, Note_on_c, 2, 56, 64
4, 7920, Note_on_c, 2, 56, 0
4, 8220, Note_on_c, 2, 55, 64
4, 8280, Note_on_c, 2, 55, 0
4, 8280, Note_on_c, 2, 58, 64
4, 8340, Note_on_c, 2, 58, 0
4, 8340, Note_on_c, 2, 61, 64
4, 8400, Note_on_c, 2, 61, 0
4, 8460, Note_on_c, 2, 53, 64
4, 8520, Note_on_c, 2, 53, 0
4, 8520, Note_on_c, 2, 52, 64
4, 8580, Note_on_c, 2, 52, 0
4, 8580, Note_on_c, 2, 55, 64
4, 8640, Note_on_c, 2, 55, 0
4, 8640, Note_on_c, 2, 56, 64
4, 9120, Note_on_c, 2, 56, 0
4, 9180, Note_on_c, 2, 59, 64
4, 9240, Note_on_c, 2, 59, 0
4, 9240, Note_on_c, 2, 62, 64
4, 9300, Note_on_c, 2, 62, 0
4, 9300, Note_on_c, 2, 67, 64
4, 9360, Note_on_c, 2, 67, 0
4, 9420, Note_on_c, 2, 67, 64
4, 9480, Note_on_c, 2, 67, 0
4, 9480, Note_on_c, 2, 65, 64
4, 9540, Note_on_c, 2, 65, 0
4, 9540, Note_on_c, 2, 68, 64
4, 9600, Note_on_c, 2, 68, 0
4, 9720, Note_on_c, 2, 62, 64
4, 9840, Note_on_c, 2, 62, 0
4, 9840, Note_on_c, 2, 67, 64
4, 10080, Note_on_c, 2, 67, 0
4, 10080, Note_on_c, 2, 60, 64
4, 10920, Note_on_c, 2, 60, 0
4, 10920, Note_on_c, 2, 59, 64
4, 11040, Note_on_c, 2, 59, 0
4, 11040, Note_on_c, 2, 60, 64
4, 11160, Note_on_c, 2, 60, 0
4, 11160, Note_on_c, 2, 55, 64
4, 11340, Note_on_c, 2, 55, 0
4, 11340, Note_on_c, 2, 53, 64
4, 11400, Note_on_c, 2, 53, 0
4, 11400, Note_on_c, 2, 52, 64
4, 11460, Note_on_c, 2, 52, 0
4, 11460, Note_on_c, 2, 55, 64
4, 11520, Note_on_c, 2, 55, 0
4, 11640, Note_on_c, 2, 53, 64
4, 11880, Note_on_c, 2, 53, 0
4, 11880, Note_on_c, 2, 53, 64
4, 12000, Note_on_c, 2, 53, 0
4, 12060, Note_on_c, 2, 49, 64
4, 12120, Note_on_c, 2, 49, 0
4, 12120, Note_on_c, 2, 53, 64
4, 12180, Note_on_c, 2, 53, 0
4, 12180, Note_on_c, 2, 58, 64
4, 12300, Note_on_c, 2, 58, 0
4, 12300, Note_on_c, 2, 58, 64
4, 12360, Note_on_c, 2, 58, 0
4, 12360, Note_on_c, 2, 56, 64
4, 12420, Note_on_c, 2, 56, 0
4, 12420, Note_on_c, 2, 60, 64
4, 12480, Note_on_c, 2, 60, 0
4, 12480, Note_on_c, 2, 53, 64
4, 12600, Note_on_c, 2, 53, 0
4, 12600, Note_on_c, 2, 55, 64
4, 12720, Note_on_c, 2, 55, 0
4, 12720, Note_on_c, 2, 56, 64
4, 12960, Note_on_c, 2, 56, 0
4, 12960, Note_on_c, 2, 55, 64
4, 13440, Note_on_c, 2, 55, 0
4, 13440, Note_on_c, 2, 53, 64
4, 13560, Note_on_c, 2, 53, 0
4, 13920, Note_on_c, 2, 58, 64
4, 14160, Note_on_c, 2, 58, 0
4, 14160, Note_on_c, 2, 55, 64
4, 14400, Note_on_c, 2, 55, 0
4, 14460, Note_on_c, 2, 55, 64
4, 14520, Note_on_c, 2, 55, 0
4, 14520, Note_on_c, 2, 56, 64
4, 14580, Note_on_c, 2, 56, 0
4, 14580, Note_on_c, 2, 59, 64
4, 14640, Note_on_c, 2, 59, 0
4, 14640, Note_on_c, 2, 60, 64
4, 15120, Note_on_c, 2, 60, 0
4, 15120, Note_on_c, 2, 58, 64
4, 15360, Note_on_c, 2, 58, 0
4, 15360, Note_on_c, 2, 60, 46
4, 15600, Note_on_c, 2, 60, 0
4, 15600, Note_on_c, 2, 56, 47
4, 15840, Note_on_c, 2, 56, 0
4, 15840, Note_on_c, 2, 58, 47
4, 16080, Note_on_c, 2, 58, 0
4, 16080, Note_on_c, 2, 55, 48
4, 16320, Note_on_c, 2, 55, 0
4, 16320, Note_on_c, 2, 56, 49
4, 16560, Note_on_c, 2, 56, 0
4, 16560, Note_on_c, 2, 53, 50
4, 16800, Note_on_c, 2, 53, 0
4, 16800, Note_on_c, 2, 55, 51
4, 17040, Note_on_c, 2, 55, 0
4, 17040, Note_on_c, 2, 52, 52
4, 17280, Note_on_c, 2, 52, 0
4, 17280, Note_on_c, 2, 53, 53
4, 17520, Note_on_c, 2, 53, 0
4, 17520, Note_on_c, 2, 55, 53
4, 17760, Note_on_c, 2, 55, 0
4, 17760, Note_on_c, 2, 56, 54
4, 18000, Note_on_c, 2, 56, 0
4, 18000, Note_on_c, 2, 53, 55
4, 18240, Note_on_c, 2, 53, 0
4, 18240, Note_on_c, 2, 55, 56
4, 18480, Note_on_c, 2, 55, 0
4, 18480, Note_on_c, 2, 52, 57
4, 18720, Note_on_c, 2, 52, 0
4, 18720, Note_on_c, 2, 60, 58
4, 18720, Note_on_c, 2, 53, 58
4, 18960, Note_on_c, 2, 60, 0
4, 18960, Note_on_c, 2, 59, 58
4, 19200, Note_on_c, 2, 59, 0
4, 19200, Note_on_c, 2, 53, 0
4, 19200, Note_on_c, 2, 55, 59
4, 19440, Note_on_c, 2, 55, 0
4, 20160, Note_on_c, 2, 53, 60
4, 21120, Note_on_c, 2, 53, 0
4, 21120, End_track
5, 0, Start_track
5, 0, MIDI_port, 0
5, 0, Title_t, "LH L"
5, 0, Program_c, 3, 6
5, 0, Note_on_c, 3, 53, 64
5, 1440, Note_on_c, 3, 53, 0
5, 1440, Note_on_c, 3, 53, 64
5, 1680, Note_on_c, 3, 53, 0
5, 1680, Note_on_c, 3, 55, 64
5, 1920, Note_on_c, 3, 55, 0
5, 1920, Note_on_c, 3, 56, 64
5, 2160, Note_on_c, 3, 56, 0
5, 2160, Note_on_c, 3, 58, 64
5, 2400, Note_on_c, 3, 58, 0
5, 2400, Note_on_c, 3, 48, 64
5, 2640, Note_on_c, 3, 48, 0
5, 2640, Note_on_c, 3, 49, 64
5, 2880, Note_on_c, 3, 49, 0
5, 2880, Note_on_c, 3, 52, 64
5, 3120, Note_on_c, 3, 52, 0
5, 3240, Note_on_c, 3, 48, 64
5, 3360, Note_on_c, 3, 48, 0
5, 3360, Note_on_c, 3, 41, 64
5, 3600, Note_on_c, 3, 41, 0
5, 3600, Note_on_c, 3, 42, 64
5, 3840, Note_on_c, 3, 42, 0
5, 3840, Note_on_c, 3, 45, 64
5, 4080, Note_on_c, 3, 45, 0
5, 4200, Note_on_c, 3, 41, 64
5, 4320, Note_on_c, 3, 41, 0
5, 4320, Note_on_c, 3, 46, 64
5, 4610, Note_on_c, 3, 46, 0
5, 4620, Note_on_c, 3, 46, 64
5, 4680, Note_on_c, 3, 46, 0
5, 4680, Note_on_c, 3, 48, 64
5, 4740, Note_on_c, 3, 48, 0
5, 4740, Note_on_c, 3, 49, 64
5, 4800, Note_on_c, 3, 49, 0
5, 4800, Note_on_c, 3, 43, 64
5, 4920, Note_on_c, 3, 43, 0
5, 4920, Note_on_c, 3, 46, 64
5, 5040, Note_on_c, 3, 46, 0
5, 5040, Note_on_c, 3, 51, 64
5, 5160, Note_on_c, 3, 51, 0
5, 5160, Note_on_c, 3, 39, 64
5, 5280, Note_on_c, 3, 39, 0
5, 5280, Note_on_c, 3, 44, 64
5, 5520, Note_on_c, 3, 44, 0
5, 5520, Note_on_c, 3, 46, 64
5, 5760, Note_on_c, 3, 46, 0
5, 5760, Note_on_c, 3, 48, 64
5, 6000, Note_on_c, 3, 48, 0
5, 6000, Note_on_c, 3, 49, 64
5, 6240, Note_on_c, 3, 49, 0
5, 6240, Note_on_c, 3, 51, 64
5, 6480, Note_on_c, 3, 51, 0
5, 6480, Note_on_c, 3, 53, 64
5, 6720, Note_on_c, 3, 53, 0
5, 6720, Note_on_c, 3, 55, 64
5, 6960, Note_on_c, 3, 55, 0
5, 6960, Note_on_c, 3, 56, 64
5, 7080, Note_on_c, 3, 56, 0
5, 7080, Note_on_c, 3, 55, 64
5, 7200, Note_on_c, 3, 55, 0
5, 7200, Note_on_c, 3, 53, 64
5, 7320, Note_on_c, 3, 53, 0
5, 7320, Note_on_c, 3, 49, 64
5, 7440, Note_on_c, 3, 49, 0
5, 7440, Note_on_c, 3, 51, 64
5, 7680, Note_on_c, 3, 51, 0
5, 7680, Note_on_c, 3, 44, 64
5, 7980, Note_on_c, 3, 44, 0
5, 7980, Note_on_c, 3, 56, 64
5, 8040, Note_on_c, 3, 56, 0
5, 8040, Note_on_c, 3, 55, 64
5, 8100, Note_on_c, 3, 55, 0
5, 8100, Note_on_c, 3, 53, 64
5, 8160, Note_on_c, 3, 53, 0
5, 8160, Note_on_c, 3, 52, 64
5, 8400, Note_on_c, 3, 52, 0
5, 8400, Note_on_c, 3, 48, 64
5, 8640, Note_on_c, 3, 48, 0
5, 8640, Note_on_c, 3, 53, 64
5, 8930, Note_on_c, 3, 53, 0
5, 8940, Note_on_c, 3, 53, 64
5, 9000, Note_on_c, 3, 53, 0
5, 9000, Note_on_c, 3, 51, 64
5, 9060, Note_on_c, 3, 51, 0
5, 9060, Note_on_c, 3, 50, 64
5, 9120, Note_on_c, 3, 50, 0
5, 9120, Note_on_c, 3, 55, 64
5, 9360, Note_on_c, 3, 55, 0
5, 9360, Note_on_c, 3, 56, 64
5, 9600, Note_on_c, 3, 56, 0
5, 9600, Note_on_c, 3, 59, 64
5, 9840, Note_on_c, 3, 59, 0
5, 9960, Note_on_c, 3, 55, 64
5, 10080, Note_on_c, 3, 55, 0
5, 10200, Note_on_c, 3, 56, 64
5, 10320, Note_on_c, 3, 56, 0
5, 10320, Note_on_c, 3, 51, 64
5, 10440, Note_on_c, 3, 51, 0
5, 10440, Note_on_c, 3, 53, 64
5, 10560, Note_on_c, 3, 53, 0
5, 10560, Note_on_c, 3, 55, 64
5, 11040, Note_on_c, 3, 55, 0
5, 11040, Note_on_c, 3, 48, 64
5, 11520, Note_on_c, 3, 48, 0
5, 11520, Note_on_c, 3, 45, 64
5, 11760, Note_on_c, 3, 45, 0
5, 11760, Note_on_c, 3, 41, 64
5, 12000, Note_on_c, 3, 41, 0
5, 12000, Note_on_c, 3, 46, 64
5, 12240, Note_on_c, 3, 46, 0
5, 12240, Note_on_c, 3, 48, 64
5, 12480, Note_on_c, 3, 48, 0
5, 12480, Note_on_c, 3, 50, 64
5, 12600, Note_on_c, 3, 50, 0
5, 12600, Note_on_c, 3, 52, 64
5, 12720, Note_on_c, 3, 52, 0
5, 12720, Note_on_c, 3, 53, 64
5, 12960, Note_on_c, 3, 53, 0
5, 12960, Note_on_c, 3, 48, 64
5, 13380, Note_on_c, 3, 48, 0
5, 13380, Note_on_c, 3, 49, 64
5, 13440, Note_on_c, 3, 49, 0
5, 13440, Note_on_c, 3, 51, 64
5, 13560, Note_on_c, 3, 51, 0
5, 13560, Note_on_c, 3, 63, 64
5, 13680, Note_on_c, 3, 63, 0
5, 13680, Note_on_c, 3, 61, 64
5, 13800, Note_on_c, 3, 61, 0
5, 13800, Note_on_c, 3, 60, 64
5, 13920, Note_on_c, 3, 60, 0
5, 13980, Note_on_c, 3, 53, 64
5, 14040, Note_on_c, 3, 53, 0
5, 14040, Note_on_c, 3, 49, 64
5, 14100, Note_on_c, 3, 49, 0
5, 14100, Note_on_c, 3, 46, 64
5, 14220, Note_on_c, 3, 46, 0
5, 14220, Note_on_c, 3, 48, 64
5, 14280, Note_on_c, 3, 48, 0
5, 14280, Note_on_c, 3, 49, 64
5, 14340, Note_on_c, 3, 49, 0
5, 14340, Note_on_c, 3, 46, 64
5, 14400, Note_on_c, 3, 46, 0
5, 14400, Note_on_c, 3, 48, 64
5, 14760, Note_on_c, 3, 48, 0
5, 14760, Note_on_c, 3, 48, 64
5, 14880, Note_on_c, 3, 48, 0
5, 14880, Note_on_c, 3, 49, 64
5, 15360, Note_on_c, 3, 49, 0
5, 15360, Note_on_c, 3, 48, 64
5, 19440, Note_on_c, 3, 48, 0
5, 19500, Note_on_c, 3, 53, 64
5, 19560, Note_on_c, 3, 53, 0
5, 19560, Note_on_c, 3, 47, 64
5, 19620, Note_on_c, 3, 47, 0
5, 19620, Note_on_c, 3, 50, 64
5, 19680, Note_on_c, 3, 50, 0
5, 19680, Note_on_c, 3, 36, 64
5, 20160, Note_on_c, 3, 36, 0
5, 20160, Note_on_c, 3, 41, 60
5, 21120, Note_on_c, 3, 41, 0
5, 21120, End_track
0, 0, End_of_file
