0, 0, Header, 1, 11, 120
1, 0, Start_track
1, 0, Text_t, "\015\012\015\012Mass in B Minor          Johann Sebastion Bach\015\012No. 14 Duet, Et in unum\015\012\015\012seq by David Siu  dss@po.cwru.edu\015\012\015\012\015\012"
1, 0, Time_signature, 2, 2, 24, 8
1, 0, Key_signature, 1, "major"
1, 0, Tempo, 625000
1, 240, Time_signature, 4, 2, 24, 8
1, 240, Tempo, 800000
1, 29795, Tempo, 1000000
1, 29918, Tempo, 1333333
1, 30020, Tempo, 800000
1, 36393, Tempo, 1000000
1, 36468, Tempo, 1333333
1, 36546, Tempo, 800000
1, 38000, Tempo, 1000000
1, 38115, Tempo, 1333333
1, 38160, Tempo, 1714286
1, 38640, End_track
2, 0, Start_track
2, 0, MIDI_port, 0
2, 0, Title_t, "Instrument  1"
2, 0, Program_c, 0, 68
2, 38640, End_track
3, 0, Start_track
3, 0, MIDI_port, 0
3, 0, Title_t, "Oboe d'amore I"
3, 0, Program_c, 0, 68
3, 0, Control_c, 0, 7, 100
3, 0, Control_c, 0, 91, 127
3, 240, Note_on_c, 0, 67, 50
3, 360, Note_on_c, 0, 67, 0
3, 420, Note_on_c, 0, 67, 50
3, 455, Note_on_c, 0, 67, 0
3, 480, Note_on_c, 0, 69, 50
3, 515, Note_on_c, 0, 69, 0
3, 540, Note_on_c, 0, 67, 50
3, 575, Note_on_c, 0, 67, 0
3, 720, Note_on_c, 0, 69, 50
3, 780, Note_on_c, 0, 69, 0
3, 780, Note_on_c, 0, 71, 50
3, 840, Note_on_c, 0, 71, 0
3, 840, Note_on_c, 0, 72, 50
3, 1020, Note_on_c, 0, 72, 0
3, 1020, Note_on_c, 0, 71, 50
3, 1050, Note_on_c, 0, 71, 0
3, 1050, Note_on_c, 0, 72, 50
3, 1080, Note_on_c, 0, 72, 0
3, 1080, Note_on_c, 0, 74, 50
3, 1110, Note_on_c, 0, 74, 0
3, 1110, Note_on_c, 0, 71, 50
3, 1140, Note_on_c, 0, 71, 0
3, 1140, Note_on_c, 0, 67, 50
3, 1170, Note_on_c, 0, 67, 0
3, 1170, Note_on_c, 0, 71, 50
3, 1200, Note_on_c, 0, 71, 0
3, 1200, Note_on_c, 0, 69, 50
3, 1235, Note_on_c, 0, 69, 0
3, 1260, Note_on_c, 0, 71, 50
3, 1290, Note_on_c, 0, 71, 0
3, 1290, Note_on_c, 0, 73, 50
3, 1320, Note_on_c, 0, 73, 0
3, 1320, Note_on_c, 0, 74, 50
3, 1350, Note_on_c, 0, 74, 0
3, 1350, Note_on_c, 0, 69, 50
3, 1380, Note_on_c, 0, 69, 0
3, 1380, Note_on_c, 0, 66, 50
3, 1410, Note_on_c, 0, 66, 0
3, 1410, Note_on_c, 0, 69, 50
3, 1440, Note_on_c, 0, 69, 0
3, 1440, Note_on_c, 0, 67, 50
3, 1715, Note_on_c, 0, 67, 0
3, 1740, Note_on_c, 0, 71, 50
3, 1775, Note_on_c, 0, 71, 0
3, 1800, Note_on_c, 0, 69, 50
3, 1835, Note_on_c, 0, 69, 0
3, 1860, Note_on_c, 0, 67, 50
3, 1895, Note_on_c, 0, 67, 0
3, 1920, Note_on_c, 0, 66, 50
3, 2010, Note_on_c, 0, 66, 0
3, 2010, Note_on_c, 0, 64, 50
3, 2040, Note_on_c, 0, 64, 0
3, 2040, Note_on_c, 0, 64, 50
3, 2130, Note_on_c, 0, 64, 0
3, 2130, Note_on_c, 0, 62, 50
3, 2160, Note_on_c, 0, 62, 0
3, 2160, Note_on_c, 0, 62, 64
3, 2280, Note_on_c, 0, 62, 0
3, 2280, Note_on_c, 0, 74, 64
3, 2400, Note_on_c, 0, 74, 0
3, 2460, Note_on_c, 0, 74, 64
3, 2495, Note_on_c, 0, 74, 0
3, 2520, Note_on_c, 0, 76, 64
3, 2580, Note_on_c, 0, 76, 0
3, 2580, Note_on_c, 0, 74, 64
3, 2615, Note_on_c, 0, 74, 0
3, 2760, Note_on_c, 0, 71, 64
3, 2820, Note_on_c, 0, 71, 0
3, 2820, Note_on_c, 0, 73, 64
3, 2880, Note_on_c, 0, 73, 0
3, 2880, Note_on_c, 0, 74, 64
3, 3155, Note_on_c, 0, 74, 0
3, 3180, Note_on_c, 0, 72, 64
3, 3210, Note_on_c, 0, 72, 0
3, 3210, Note_on_c, 0, 74, 64
3, 3240, Note_on_c, 0, 74, 0
3, 3240, Note_on_c, 0, 76, 64
3, 3270, Note_on_c, 0, 76, 0
3, 3270, Note_on_c, 0, 72, 64
3, 3300, Note_on_c, 0, 72, 0
3, 3300, Note_on_c, 0, 69, 64
3, 3330, Note_on_c, 0, 69, 0
3, 3330, Note_on_c, 0, 72, 64
3, 3360, Note_on_c, 0, 72, 0
3, 3360, Note_on_c, 0, 71, 64
3, 3390, Note_on_c, 0, 71, 0
3, 3390, Note_on_c, 0, 75, 64
3, 3420, Note_on_c, 0, 75, 0
3, 3420, Note_on_c, 0, 76, 64
3, 3450, Note_on_c, 0, 76, 0
3, 3450, Note_on_c, 0, 78, 64
3, 3480, Note_on_c, 0, 78, 0
3, 3480, Note_on_c, 0, 79, 64
3, 3510, Note_on_c, 0, 79, 0
3, 3510, Note_on_c, 0, 76, 64
3, 3540, Note_on_c, 0, 76, 0
3, 3540, Note_on_c, 0, 72, 64
3, 3570, Note_on_c, 0, 72, 0
3, 3570, Note_on_c, 0, 76, 64
3, 3600, Note_on_c, 0, 76, 0
3, 3600, Note_on_c, 0, 78, 64
3, 3630, Note_on_c, 0, 78, 0
3, 3630, Note_on_c, 0, 76, 64
3, 3660, Note_on_c, 0, 76, 0
3, 3660, Note_on_c, 0, 78, 64
3, 3690, Note_on_c, 0, 78, 0
3, 3690, Note_on_c, 0, 79, 64
3, 3720, Note_on_c, 0, 79, 0
3, 3720, Note_on_c, 0, 81, 64
3, 3750, Note_on_c, 0, 81, 0
3, 3750, Note_on_c, 0, 78, 64
3, 3780, Note_on_c, 0, 78, 0
3, 3780, Note_on_c, 0, 74, 64
3, 3810, Note_on_c, 0, 74, 0
3, 3810, Note_on_c, 0, 78, 64
3, 3840, Note_on_c, 0, 78, 0
3, 3840, Note_on_c, 0, 79, 64
3, 3930, Note_on_c, 0, 79, 0
3, 3930, Note_on_c, 0, 81, 64
3, 3960, Note_on_c, 0, 81, 0
3, 3960, Note_on_c, 0, 78, 64
3, 4050, Note_on_c, 0, 78, 0
3, 4050, Note_on_c, 0, 79, 64
3, 4080, Note_on_c, 0, 79, 0
3, 4080, Note_on_c, 0, 79, 64
3, 4200, Note_on_c, 0, 79, 0
3, 6480, Note_on_c, 0, 74, 50
3, 6600, Note_on_c, 0, 74, 0
3, 6660, Note_on_c, 0, 74, 50
3, 6695, Note_on_c, 0, 74, 0
3, 6720, Note_on_c, 0, 76, 50
3, 6755, Note_on_c, 0, 76, 0
3, 6780, Note_on_c, 0, 74, 50
3, 6815, Note_on_c, 0, 74, 0
3, 6960, Note_on_c, 0, 76, 50
3, 7020, Note_on_c, 0, 76, 0
3, 7020, Note_on_c, 0, 78, 50
3, 7080, Note_on_c, 0, 78, 0
3, 7080, Note_on_c, 0, 79, 50
3, 7260, Note_on_c, 0, 79, 0
3, 7260, Note_on_c, 0, 78, 50
3, 7290, Note_on_c, 0, 78, 0
3, 7290, Note_on_c, 0, 79, 50
3, 7320, Note_on_c, 0, 79, 0
3, 7320, Note_on_c, 0, 81, 50
3, 7350, Note_on_c, 0, 81, 0
3, 7350, Note_on_c, 0, 78, 50
3, 7380, Note_on_c, 0, 78, 0
3, 7380, Note_on_c, 0, 74, 50
3, 7410, Note_on_c, 0, 74, 0
3, 7410, Note_on_c, 0, 78, 50
3, 7440, Note_on_c, 0, 78, 0
3, 7440, Note_on_c, 0, 76, 50
3, 7475, Note_on_c, 0, 76, 0
3, 7500, Note_on_c, 0, 78, 50
3, 7530, Note_on_c, 0, 78, 0
3, 7530, Note_on_c, 0, 79, 50
3, 7560, Note_on_c, 0, 79, 0
3, 7560, Note_on_c, 0, 81, 50
3, 7590, Note_on_c, 0, 81, 0
3, 7590, Note_on_c, 0, 76, 50
3, 7620, Note_on_c, 0, 76, 0
3, 7620, Note_on_c, 0, 73, 50
3, 7650, Note_on_c, 0, 73, 0
3, 7650, Note_on_c, 0, 76, 50
3, 7680, Note_on_c, 0, 76, 0
3, 7680, Note_on_c, 0, 74, 50
3, 7715, Note_on_c, 0, 74, 0
3, 7740, Note_on_c, 0, 71, 50
3, 7775, Note_on_c, 0, 71, 0
3, 7800, Note_on_c, 0, 69, 50
3, 7835, Note_on_c, 0, 69, 0
3, 7860, Note_on_c, 0, 67, 50
3, 7895, Note_on_c, 0, 67, 0
3, 7920, Note_on_c, 0, 66, 64
3, 7950, Note_on_c, 0, 66, 0
3, 13200, Note_on_c, 0, 74, 64
3, 13320, Note_on_c, 0, 74, 0
3, 13380, Note_on_c, 0, 74, 64
3, 13415, Note_on_c, 0, 74, 0
3, 13440, Note_on_c, 0, 76, 64
3, 13475, Note_on_c, 0, 76, 0
3, 13500, Note_on_c, 0, 74, 64
3, 13535, Note_on_c, 0, 74, 0
3, 13680, Note_on_c, 0, 76, 64
3, 13740, Note_on_c, 0, 76, 0
3, 13740, Note_on_c, 0, 78, 64
3, 13800, Note_on_c, 0, 78, 0
3, 13800, Note_on_c, 0, 79, 64
3, 13980, Note_on_c, 0, 79, 0
3, 13980, Note_on_c, 0, 78, 64
3, 14010, Note_on_c, 0, 78, 0
3, 14010, Note_on_c, 0, 79, 64
3, 14040, Note_on_c, 0, 79, 0
3, 14040, Note_on_c, 0, 81, 64
3, 14100, Note_on_c, 0, 81, 0
3, 14100, Note_on_c, 0, 72, 64
3, 14220, Note_on_c, 0, 72, 0
3, 14220, Note_on_c, 0, 71, 64
3, 14255, Note_on_c, 0, 71, 0
3, 14280, Note_on_c, 0, 79, 64
3, 14400, Note_on_c, 0, 79, 0
3, 14460, Note_on_c, 0, 79, 64
3, 14495, Note_on_c, 0, 79, 0
3, 14520, Note_on_c, 0, 81, 64
3, 14580, Note_on_c, 0, 81, 0
3, 14580, Note_on_c, 0, 79, 64
3, 14615, Note_on_c, 0, 79, 0
3, 14760, Note_on_c, 0, 76, 64
3, 14820, Note_on_c, 0, 76, 0
3, 14820, Note_on_c, 0, 78, 64
3, 14880, Note_on_c, 0, 78, 0
3, 14880, Note_on_c, 0, 79, 64
3, 15155, Note_on_c, 0, 79, 0
3, 15180, Note_on_c, 0, 78, 64
3, 15210, Note_on_c, 0, 78, 0
3, 15210, Note_on_c, 0, 76, 64
3, 15240, Note_on_c, 0, 76, 0
3, 15240, Note_on_c, 0, 78, 64
3, 15420, Note_on_c, 0, 78, 0
3, 15420, Note_on_c, 0, 76, 64
3, 15450, Note_on_c, 0, 76, 0
3, 15450, Note_on_c, 0, 78, 64
3, 15480, Note_on_c, 0, 78, 0
3, 15480, Note_on_c, 0, 79, 64
3, 15510, Note_on_c, 0, 79, 0
3, 15510, Note_on_c, 0, 76, 64
3, 15540, Note_on_c, 0, 76, 0
3, 15540, Note_on_c, 0, 71, 64
3, 15570, Note_on_c, 0, 71, 0
3, 15570, Note_on_c, 0, 74, 64
3, 15600, Note_on_c, 0, 74, 0
3, 15600, Note_on_c, 0, 73, 64
3, 15630, Note_on_c, 0, 73, 0
3, 15630, Note_on_c, 0, 71, 64
3, 15660, Note_on_c, 0, 71, 0
3, 15660, Note_on_c, 0, 73, 64
3, 15690, Note_on_c, 0, 73, 0
3, 15690, Note_on_c, 0, 74, 64
3, 15720, Note_on_c, 0, 74, 0
3, 15720, Note_on_c, 0, 76, 64
3, 15750, Note_on_c, 0, 76, 0
3, 15750, Note_on_c, 0, 73, 64
3, 15780, Note_on_c, 0, 73, 0
3, 15780, Note_on_c, 0, 69, 64
3, 15810, Note_on_c, 0, 69, 0
3, 15810, Note_on_c, 0, 73, 64
3, 15840, Note_on_c, 0, 73, 0
3, 15840, Note_on_c, 0, 74, 64
3, 15930, Note_on_c, 0, 74, 0
3, 15930, Note_on_c, 0, 76, 64
3, 15960, Note_on_c, 0, 76, 0
3, 15960, Note_on_c, 0, 73, 64
3, 16050, Note_on_c, 0, 73, 0
3, 16050, Note_on_c, 0, 74, 64
3, 16080, Note_on_c, 0, 74, 0
3, 16080, Note_on_c, 0, 74, 64
3, 16200, Note_on_c, 0, 74, 0
3, 19920, Note_on_c, 0, 71, 50
3, 20040, Note_on_c, 0, 71, 0
3, 20100, Note_on_c, 0, 71, 50
3, 20135, Note_on_c, 0, 71, 0
3, 20160, Note_on_c, 0, 73, 50
3, 20195, Note_on_c, 0, 73, 0
3, 20220, Note_on_c, 0, 71, 50
3, 20255, Note_on_c, 0, 71, 0
3, 20400, Note_on_c, 0, 73, 50
3, 20460, Note_on_c, 0, 73, 0
3, 20460, Note_on_c, 0, 74, 50
3, 20520, Note_on_c, 0, 74, 0
3, 20520, Note_on_c, 0, 76, 50
3, 20700, Note_on_c, 0, 76, 0
3, 20700, Note_on_c, 0, 75, 50
3, 20730, Note_on_c, 0, 75, 0
3, 20730, Note_on_c, 0, 76, 50
3, 20760, Note_on_c, 0, 76, 0
3, 20760, Note_on_c, 0, 78, 50
3, 20820, Note_on_c, 0, 78, 0
3, 20820, Note_on_c, 0, 69, 50
3, 20940, Note_on_c, 0, 69, 0
3, 20940, Note_on_c, 0, 67, 50
3, 20975, Note_on_c, 0, 67, 0
3, 21000, Note_on_c, 0, 64, 50
3, 21120, Note_on_c, 0, 64, 0
3, 21180, Note_on_c, 0, 64, 50
3, 21215, Note_on_c, 0, 64, 0
3, 21240, Note_on_c, 0, 66, 50
3, 21300, Note_on_c, 0, 66, 0
3, 21300, Note_on_c, 0, 64, 50
3, 21335, Note_on_c, 0, 64, 0
3, 21480, Note_on_c, 0, 73, 50
3, 21540, Note_on_c, 0, 73, 0
3, 21540, Note_on_c, 0, 75, 50
3, 21600, Note_on_c, 0, 75, 0
3, 21600, Note_on_c, 0, 76, 50
3, 21875, Note_on_c, 0, 76, 0
3, 21900, Note_on_c, 0, 74, 50
3, 21930, Note_on_c, 0, 74, 0
3, 21930, Note_on_c, 0, 73, 50
3, 21960, Note_on_c, 0, 73, 0
3, 21960, Note_on_c, 0, 74, 50
3, 22140, Note_on_c, 0, 74, 0
3, 22140, Note_on_c, 0, 73, 50
3, 22170, Note_on_c, 0, 73, 0
3, 22170, Note_on_c, 0, 74, 50
3, 22200, Note_on_c, 0, 74, 0
3, 22200, Note_on_c, 0, 76, 50
3, 22230, Note_on_c, 0, 76, 0
3, 22230, Note_on_c, 0, 73, 50
3, 22260, Note_on_c, 0, 73, 0
3, 22260, Note_on_c, 0, 68, 50
3, 22290, Note_on_c, 0, 68, 0
3, 22290, Note_on_c, 0, 71, 50
3, 22320, Note_on_c, 0, 71, 0
3, 22320, Note_on_c, 0, 70, 50
3, 22350, Note_on_c, 0, 70, 0
3, 22350, Note_on_c, 0, 68, 50
3, 22380, Note_on_c, 0, 68, 0
3, 22380, Note_on_c, 0, 70, 50
3, 22410, Note_on_c, 0, 70, 0
3, 22410, Note_on_c, 0, 71, 50
3, 22440, Note_on_c, 0, 71, 0
3, 22440, Note_on_c, 0, 73, 50
3, 22470, Note_on_c, 0, 73, 0
3, 22470, Note_on_c, 0, 70, 50
3, 22500, Note_on_c, 0, 70, 0
3, 22500, Note_on_c, 0, 66, 50
3, 22530, Note_on_c, 0, 66, 0
3, 22530, Note_on_c, 0, 70, 50
3, 22560, Note_on_c, 0, 70, 0
3, 22560, Note_on_c, 0, 71, 50
3, 22650, Note_on_c, 0, 71, 0
3, 22650, Note_on_c, 0, 73, 50
3, 22680, Note_on_c, 0, 73, 0
3, 22680, Note_on_c, 0, 70, 50
3, 22770, Note_on_c, 0, 70, 0
3, 22770, Note_on_c, 0, 71, 50
3, 22800, Note_on_c, 0, 71, 0
3, 22800, Note_on_c, 0, 71, 50
3, 22920, Note_on_c, 0, 71, 0
3, 30000, Note_on_c, 0, 67, 50
3, 30120, Note_on_c, 0, 67, 0
3, 30180, Note_on_c, 0, 67, 50
3, 30215, Note_on_c, 0, 67, 0
3, 30240, Note_on_c, 0, 69, 50
3, 30275, Note_on_c, 0, 69, 0
3, 30300, Note_on_c, 0, 67, 50
3, 30335, Note_on_c, 0, 67, 0
3, 30480, Note_on_c, 0, 69, 50
3, 30540, Note_on_c, 0, 69, 0
3, 30540, Note_on_c, 0, 71, 50
3, 30600, Note_on_c, 0, 71, 0
3, 30600, Note_on_c, 0, 72, 50
3, 30780, Note_on_c, 0, 72, 0
3, 30780, Note_on_c, 0, 71, 50
3, 30810, Note_on_c, 0, 71, 0
3, 30810, Note_on_c, 0, 72, 50
3, 30840, Note_on_c, 0, 72, 0
3, 30840, Note_on_c, 0, 74, 50
3, 30870, Note_on_c, 0, 74, 0
3, 30870, Note_on_c, 0, 71, 50
3, 30900, Note_on_c, 0, 71, 0
3, 30900, Note_on_c, 0, 67, 50
3, 30930, Note_on_c, 0, 67, 0
3, 30930, Note_on_c, 0, 71, 50
3, 30960, Note_on_c, 0, 71, 0
3, 30960, Note_on_c, 0, 69, 50
3, 30995, Note_on_c, 0, 69, 0
3, 31020, Note_on_c, 0, 62, 50
3, 31080, Note_on_c, 0, 62, 0
3, 31080, Note_on_c, 0, 74, 50
3, 31260, Note_on_c, 0, 74, 0
3, 31260, Note_on_c, 0, 72, 50
3, 31290, Note_on_c, 0, 72, 0
3, 31290, Note_on_c, 0, 74, 50
3, 31320, Note_on_c, 0, 74, 0
3, 31320, Note_on_c, 0, 76, 50
3, 31350, Note_on_c, 0, 76, 0
3, 31350, Note_on_c, 0, 72, 50
3, 31380, Note_on_c, 0, 72, 0
3, 31380, Note_on_c, 0, 69, 50
3, 31410, Note_on_c, 0, 69, 0
3, 31410, Note_on_c, 0, 72, 50
3, 31440, Note_on_c, 0, 72, 0
3, 31440, Note_on_c, 0, 71, 50
3, 31500, Note_on_c, 0, 71, 0
3, 31500, Note_on_c, 0, 64, 50
3, 31560, Note_on_c, 0, 64, 0
3, 31560, Note_on_c, 0, 76, 50
3, 31710, Note_on_c, 0, 76, 0
3, 31710, Note_on_c, 0, 74, 50
3, 31728, Note_on_c, 0, 74, 0
3, 31740, Note_on_c, 0, 72, 50
3, 31758, Note_on_c, 0, 72, 0
3, 31770, Note_on_c, 0, 71, 50
3, 31788, Note_on_c, 0, 71, 0
3, 31800, Note_on_c, 0, 69, 50
3, 31818, Note_on_c, 0, 69, 0
3, 31830, Note_on_c, 0, 67, 50
3, 31848, Note_on_c, 0, 67, 0
3, 31860, Note_on_c, 0, 66, 50
3, 31878, Note_on_c, 0, 66, 0
3, 31890, Note_on_c, 0, 64, 50
3, 31908, Note_on_c, 0, 64, 0
3, 31920, Note_on_c, 0, 62, 50
3, 32040, Note_on_c, 0, 62, 0
3, 32100, Note_on_c, 0, 74, 50
3, 32190, Note_on_c, 0, 74, 0
3, 32190, Note_on_c, 0, 77, 50
3, 32220, Note_on_c, 0, 77, 0
3, 32220, Note_on_c, 0, 76, 50
3, 32250, Note_on_c, 0, 76, 0
3, 32250, Note_on_c, 0, 74, 50
3, 32280, Note_on_c, 0, 74, 0
3, 32280, Note_on_c, 0, 72, 50
3, 32310, Note_on_c, 0, 72, 0
3, 32310, Note_on_c, 0, 71, 50
3, 32340, Note_on_c, 0, 71, 0
3, 32340, Note_on_c, 0, 69, 50
3, 32370, Note_on_c, 0, 69, 0
3, 32370, Note_on_c, 0, 71, 50
3, 32400, Note_on_c, 0, 71, 0
3, 32400, Note_on_c, 0, 72, 50
3, 32520, Note_on_c, 0, 72, 0
3, 32580, Note_on_c, 0, 74, 50
3, 32640, Note_on_c, 0, 74, 0
3, 32640, Note_on_c, 0, 76, 50
3, 32670, Note_on_c, 0, 76, 0
3, 32670, Note_on_c, 0, 72, 50
3, 32700, Note_on_c, 0, 72, 0
3, 32700, Note_on_c, 0, 71, 50
3, 32730, Note_on_c, 0, 71, 0
3, 32730, Note_on_c, 0, 69, 50
3, 32760, Note_on_c, 0, 69, 0
3, 32760, Note_on_c, 0, 78, 50
3, 32850, Note_on_c, 0, 78, 0
3, 32850, Note_on_c, 0, 79, 50
3, 32880, Note_on_c, 0, 79, 0
3, 32880, Note_on_c, 0, 79, 50
3, 33000, Note_on_c, 0, 79, 0
3, 33360, Note_on_c, 0, 79, 75
3, 33480, Note_on_c, 0, 79, 0
3, 33540, Note_on_c, 0, 79, 75
3, 33575, Note_on_c, 0, 79, 0
3, 33600, Note_on_c, 0, 80, 75
3, 33660, Note_on_c, 0, 80, 0
3, 33660, Note_on_c, 0, 79, 75
3, 33695, Note_on_c, 0, 79, 0
3, 33840, Note_on_c, 0, 77, 75
3, 33960, Note_on_c, 0, 77, 0
3, 34020, Note_on_c, 0, 77, 75
3, 34055, Note_on_c, 0, 77, 0
3, 34080, Note_on_c, 0, 77, 75
3, 34110, Note_on_c, 0, 77, 0
3, 34110, Note_on_c, 0, 75, 75
3, 34140, Note_on_c, 0, 75, 0
3, 34140, Note_on_c, 0, 77, 75
3, 34175, Note_on_c, 0, 77, 0
3, 34260, Note_on_c, 0, 79, 75
3, 34290, Note_on_c, 0, 79, 0
3, 34290, Note_on_c, 0, 77, 75
3, 34320, Note_on_c, 0, 77, 0
3, 34320, Note_on_c, 0, 75, 75
3, 34380, Note_on_c, 0, 75, 0
3, 34380, Note_on_c, 0, 74, 75
3, 34415, Note_on_c, 0, 74, 0
3, 34440, Note_on_c, 0, 72, 75
3, 34500, Note_on_c, 0, 72, 0
3, 34500, Note_on_c, 0, 70, 75
3, 34535, Note_on_c, 0, 70, 0
3, 34560, Note_on_c, 0, 69, 75
3, 34680, Note_on_c, 0, 69, 0
3, 34680, Note_on_c, 0, 78, 75
3, 34800, Note_on_c, 0, 78, 0
3, 34920, Note_on_c, 0, 79, 75
3, 35040, Note_on_c, 0, 79, 0
3, 35100, Note_on_c, 0, 84, 75
3, 35160, Note_on_c, 0, 84, 0
3, 35160, Note_on_c, 0, 81, 75
3, 35220, Note_on_c, 0, 81, 0
3, 35220, Note_on_c, 0, 78, 75
3, 35255, Note_on_c, 0, 78, 0
3, 35280, Note_on_c, 0, 74, 75
3, 35315, Note_on_c, 0, 74, 0
3, 35340, Note_on_c, 0, 72, 75
3, 35400, Note_on_c, 0, 72, 0
3, 35400, Note_on_c, 0, 69, 75
3, 35460, Note_on_c, 0, 69, 0
3, 35460, Note_on_c, 0, 66, 75
3, 35520, Note_on_c, 0, 66, 0
3, 35520, Note_on_c, 0, 62, 75
3, 35640, Note_on_c, 0, 62, 0
3, 35640, Note_on_c, 0, 78, 75
3, 35760, Note_on_c, 0, 78, 0
3, 35880, Note_on_c, 0, 79, 75
3, 36000, Note_on_c, 0, 79, 0
3, 36600, Note_on_c, 0, 77, 64
3, 36720, Note_on_c, 0, 77, 0
3, 36780, Note_on_c, 0, 81, 64
3, 36840, Note_on_c, 0, 81, 0
3, 36840, Note_on_c, 0, 79, 64
3, 36900, Note_on_c, 0, 79, 0
3, 36900, Note_on_c, 0, 77, 64
3, 36960, Note_on_c, 0, 77, 0
3, 36960, Note_on_c, 0, 76, 64
3, 36995, Note_on_c, 0, 76, 0
3, 37020, Note_on_c, 0, 78, 64
3, 37055, Note_on_c, 0, 78, 0
3, 37080, Note_on_c, 0, 79, 64
3, 37200, Note_on_c, 0, 79, 0
3, 37260, Note_on_c, 0, 83, 64
3, 37320, Note_on_c, 0, 83, 0
3, 37320, Note_on_c, 0, 81, 64
3, 37380, Note_on_c, 0, 81, 0
3, 37380, Note_on_c, 0, 79, 64
3, 37440, Note_on_c, 0, 79, 0
3, 37440, Note_on_c, 0, 78, 64
3, 37475, Note_on_c, 0, 78, 0
3, 37500, Note_on_c, 0, 81, 64
3, 37535, Note_on_c, 0, 81, 0
3, 37560, Note_on_c, 0, 72, 64
3, 37715, Note_on_c, 0, 72, 0
3, 37740, Note_on_c, 0, 76, 64
3, 37800, Note_on_c, 0, 76, 0
3, 37800, Note_on_c, 0, 74, 64
3, 37860, Note_on_c, 0, 74, 0
3, 37860, Note_on_c, 0, 72, 64
3, 37920, Note_on_c, 0, 72, 0
3, 37920, Note_on_c, 0, 71, 64
3, 38010, Note_on_c, 0, 71, 0
3, 38010, Note_on_c, 0, 69, 64
3, 38040, Note_on_c, 0, 69, 0
3, 38040, Note_on_c, 0, 69, 64
3, 38130, Note_on_c, 0, 69, 0
3, 38130, Note_on_c, 0, 67, 64
3, 38160, Note_on_c, 0, 67, 0
3, 38160, Note_on_c, 0, 67, 64
3, 38280, Note_on_c, 0, 67, 0
3, 38640, End_track
4, 0, Start_track
4, 0, MIDI_port, 0
4, 0, Title_t, "Oboe d'amore II"
4, 0, Program_c, 1, 68
4, 0, Control_c, 1, 7, 100
4, 0, Control_c, 1, 91, 127
4, 240, Note_on_c, 1, 67, 50
4, 360, Note_on_c, 1, 67, 0
4, 420, Note_on_c, 1, 67, 50
4, 455, Note_on_c, 1, 67, 0
4, 480, Note_on_c, 1, 69, 50
4, 515, Note_on_c, 1, 69, 0
4, 540, Note_on_c, 1, 67, 50
4, 575, Note_on_c, 1, 67, 0
4, 720, Note_on_c, 1, 69, 50
4, 780, Note_on_c, 1, 69, 0
4, 780, Note_on_c, 1, 71, 50
4, 840, Note_on_c, 1, 71, 0
4, 840, Note_on_c, 1, 72, 50
4, 1020, Note_on_c, 1, 72, 0
4, 1020, Note_on_c, 1, 71, 50
4, 1050, Note_on_c, 1, 71, 0
4, 1050, Note_on_c, 1, 72, 50
4, 1080, Note_on_c, 1, 72, 0
4, 1080, Note_on_c, 1, 74, 50
4, 1110, Note_on_c, 1, 74, 0
4, 1110, Note_on_c, 1, 71, 50
4, 1140, Note_on_c, 1, 71, 0
4, 1140, Note_on_c, 1, 67, 50
4, 1170, Note_on_c, 1, 67, 0
4, 1170, Note_on_c, 1, 71, 50
4, 1200, Note_on_c, 1, 71, 0
4, 1200, Note_on_c, 1, 69, 50
4, 1235, Note_on_c, 1, 69, 0
4, 1260, Note_on_c, 1, 71, 50
4, 1290, Note_on_c, 1, 71, 0
4, 1290, Note_on_c, 1, 73, 50
4, 1320, Note_on_c, 1, 73, 0
4, 1320, Note_on_c, 1, 74, 50
4, 1350, Note_on_c, 1, 74, 0
4, 1350, Note_on_c, 1, 69, 50
4, 1380, Note_on_c, 1, 69, 0
4, 1380, Note_on_c, 1, 66, 50
4, 1410, Note_on_c, 1, 66, 0
4, 1410, Note_on_c, 1, 69, 50
4, 1440, Note_on_c, 1, 69, 0
4, 1440, Note_on_c, 1, 67, 50
4, 1715, Note_on_c, 1, 67, 0
4, 1740, Note_on_c, 1, 71, 50
4, 1775, Note_on_c, 1, 71, 0
4, 1800, Note_on_c, 1, 69, 50
4, 1835, Note_on_c, 1, 69, 0
4, 1860, Note_on_c, 1, 67, 50
4, 1895, Note_on_c, 1, 67, 0
4, 1920, Note_on_c, 1, 66, 50
4, 2010, Note_on_c, 1, 66, 0
4, 2010, Note_on_c, 1, 64, 50
4, 2040, Note_on_c, 1, 64, 0
4, 2040, Note_on_c, 1, 64, 50
4, 2130, Note_on_c, 1, 64, 0
4, 2130, Note_on_c, 1, 62, 50
4, 2160, Note_on_c, 1, 62, 0
4, 2160, Note_on_c, 1, 62, 64
4, 2280, Note_on_c, 1, 62, 0
4, 2340, Note_on_c, 1, 62, 64
4, 2375, Note_on_c, 1, 62, 0
4, 2400, Note_on_c, 1, 64, 64
4, 2435, Note_on_c, 1, 64, 0
4, 2460, Note_on_c, 1, 62, 64
4, 2495, Note_on_c, 1, 62, 0
4, 2640, Note_on_c, 1, 64, 64
4, 2700, Note_on_c, 1, 64, 0
4, 2700, Note_on_c, 1, 66, 64
4, 2760, Note_on_c, 1, 66, 0
4, 2760, Note_on_c, 1, 67, 64
4, 2940, Note_on_c, 1, 67, 0
4, 2940, Note_on_c, 1, 66, 64
4, 2970, Note_on_c, 1, 66, 0
4, 2970, Note_on_c, 1, 67, 64
4, 3000, Note_on_c, 1, 67, 0
4, 3000, Note_on_c, 1, 69, 64
4, 3030, Note_on_c, 1, 69, 0
4, 3030, Note_on_c, 1, 66, 64
4, 3060, Note_on_c, 1, 66, 0
4, 3060, Note_on_c, 1, 62, 64
4, 3090, Note_on_c, 1, 62, 0
4, 3090, Note_on_c, 1, 66, 64
4, 3120, Note_on_c, 1, 66, 0
4, 3120, Note_on_c, 1, 64, 64
4, 3155, Note_on_c, 1, 64, 0
4, 3180, Note_on_c, 1, 57, 64
4, 3240, Note_on_c, 1, 57, 0
4, 3240, Note_on_c, 1, 69, 64
4, 3420, Note_on_c, 1, 69, 0
4, 3420, Note_on_c, 1, 67, 64
4, 3480, Note_on_c, 1, 67, 0
4, 3480, Note_on_c, 1, 72, 64
4, 3635, Note_on_c, 1, 72, 0
4, 3660, Note_on_c, 1, 76, 64
4, 3695, Note_on_c, 1, 76, 0
4, 3720, Note_on_c, 1, 74, 64
4, 3755, Note_on_c, 1, 74, 0
4, 3780, Note_on_c, 1, 72, 64
4, 3815, Note_on_c, 1, 72, 0
4, 3840, Note_on_c, 1, 71, 64
4, 3930, Note_on_c, 1, 71, 0
4, 3930, Note_on_c, 1, 69, 64
4, 3960, Note_on_c, 1, 69, 0
4, 3960, Note_on_c, 1, 69, 64
4, 4050, Note_on_c, 1, 69, 0
4, 4050, Note_on_c, 1, 67, 64
4, 4080, Note_on_c, 1, 67, 0
4, 4080, Note_on_c, 1, 67, 64
4, 4200, Note_on_c, 1, 67, 0
4, 6480, Note_on_c, 1, 69, 50
4, 6600, Note_on_c, 1, 69, 0
4, 6600, Note_on_c, 1, 74, 50
4, 6720, Note_on_c, 1, 74, 0
4, 6780, Note_on_c, 1, 74, 50
4, 6815, Note_on_c, 1, 74, 0
4, 6840, Note_on_c, 1, 76, 50
4, 6900, Note_on_c, 1, 76, 0
4, 6900, Note_on_c, 1, 74, 50
4, 6935, Note_on_c, 1, 74, 0
4, 7080, Note_on_c, 1, 71, 50
4, 7140, Note_on_c, 1, 71, 0
4, 7140, Note_on_c, 1, 73, 50
4, 7200, Note_on_c, 1, 73, 0
4, 7200, Note_on_c, 1, 74, 50
4, 7475, Note_on_c, 1, 74, 0
4, 7500, Note_on_c, 1, 73, 50
4, 7530, Note_on_c, 1, 73, 0
4, 7530, Note_on_c, 1, 71, 50
4, 7560, Note_on_c, 1, 71, 0
4, 7560, Note_on_c, 1, 73, 50
4, 7595, Note_on_c, 1, 73, 0
4, 7620, Note_on_c, 1, 76, 50
4, 7655, Note_on_c, 1, 76, 0
4, 7680, Note_on_c, 1, 71, 50
4, 7715, Note_on_c, 1, 71, 0
4, 7740, Note_on_c, 1, 76, 50
4, 7775, Note_on_c, 1, 76, 0
4, 7800, Note_on_c, 1, 69, 50
4, 7835, Note_on_c, 1, 69, 0
4, 7860, Note_on_c, 1, 73, 50
4, 7895, Note_on_c, 1, 73, 0
4, 7920, Note_on_c, 1, 62, 64
4, 7950, Note_on_c, 1, 62, 0
4, 13320, Note_on_c, 1, 74, 64
4, 13440, Note_on_c, 1, 74, 0
4, 13500, Note_on_c, 1, 74, 64
4, 13535, Note_on_c, 1, 74, 0
4, 13560, Note_on_c, 1, 76, 64
4, 13620, Note_on_c, 1, 76, 0
4, 13620, Note_on_c, 1, 74, 64
4, 13655, Note_on_c, 1, 74, 0
4, 13800, Note_on_c, 1, 71, 64
4, 13860, Note_on_c, 1, 71, 0
4, 13860, Note_on_c, 1, 73, 64
4, 13920, Note_on_c, 1, 74, 64
4, 13920, Note_on_c, 1, 73, 0
4, 14040, Note_on_c, 1, 74, 0
4, 14160, Note_on_c, 1, 67, 64
4, 14280, Note_on_c, 1, 67, 0
4, 14340, Note_on_c, 1, 67, 64
4, 14375, Note_on_c, 1, 67, 0
4, 14400, Note_on_c, 1, 69, 64
4, 14435, Note_on_c, 1, 69, 0
4, 14460, Note_on_c, 1, 67, 64
4, 14495, Note_on_c, 1, 67, 0
4, 14640, Note_on_c, 1, 69, 64
4, 14700, Note_on_c, 1, 69, 0
4, 14700, Note_on_c, 1, 71, 64
4, 14760, Note_on_c, 1, 71, 0
4, 14760, Note_on_c, 1, 72, 64
4, 14940, Note_on_c, 1, 72, 0
4, 14940, Note_on_c, 1, 71, 64
4, 14970, Note_on_c, 1, 71, 0
4, 14970, Note_on_c, 1, 72, 64
4, 15000, Note_on_c, 1, 72, 0
4, 15000, Note_on_c, 1, 74, 64
4, 15030, Note_on_c, 1, 74, 0
4, 15030, Note_on_c, 1, 71, 64
4, 15060, Note_on_c, 1, 71, 0
4, 15060, Note_on_c, 1, 67, 64
4, 15090, Note_on_c, 1, 67, 0
4, 15090, Note_on_c, 1, 71, 64
4, 15120, Note_on_c, 1, 71, 0
4, 15120, Note_on_c, 1, 69, 64
4, 15155, Note_on_c, 1, 69, 0
4, 15180, Note_on_c, 1, 71, 64
4, 15210, Note_on_c, 1, 71, 0
4, 15210, Note_on_c, 1, 73, 64
4, 15240, Note_on_c, 1, 73, 0
4, 15240, Note_on_c, 1, 74, 64
4, 15270, Note_on_c, 1, 74, 0
4, 15270, Note_on_c, 1, 69, 64
4, 15300, Note_on_c, 1, 69, 0
4, 15300, Note_on_c, 1, 66, 64
4, 15330, Note_on_c, 1, 66, 0
4, 15330, Note_on_c, 1, 69, 64
4, 15360, Note_on_c, 1, 69, 0
4, 15360, Note_on_c, 1, 67, 64
4, 15635, Note_on_c, 1, 67, 0
4, 15660, Note_on_c, 1, 71, 64
4, 15695, Note_on_c, 1, 71, 0
4, 15720, Note_on_c, 1, 69, 64
4, 15755, Note_on_c, 1, 69, 0
4, 15780, Note_on_c, 1, 67, 64
4, 15815, Note_on_c, 1, 67, 0
4, 15840, Note_on_c, 1, 66, 64
4, 15930, Note_on_c, 1, 66, 0
4, 15930, Note_on_c, 1, 64, 64
4, 15960, Note_on_c, 1, 64, 0
4, 15960, Note_on_c, 1, 64, 64
4, 16050, Note_on_c, 1, 64, 0
4, 16050, Note_on_c, 1, 62, 64
4, 16080, Note_on_c, 1, 62, 0
4, 16080, Note_on_c, 1, 62, 64
4, 16200, Note_on_c, 1, 62, 0
4, 20040, Note_on_c, 1, 71, 50
4, 20160, Note_on_c, 1, 71, 0
4, 20220, Note_on_c, 1, 71, 50
4, 20255, Note_on_c, 1, 71, 0
4, 20280, Note_on_c, 1, 73, 50
4, 20340, Note_on_c, 1, 73, 0
4, 20340, Note_on_c, 1, 71, 50
4, 20375, Note_on_c, 1, 71, 0
4, 20520, Note_on_c, 1, 68, 50
4, 20580, Note_on_c, 1, 68, 0
4, 20580, Note_on_c, 1, 70, 50
4, 20640, Note_on_c, 1, 70, 0
4, 20640, Note_on_c, 1, 71, 50
4, 20820, Note_on_c, 1, 71, 0
4, 20820, Note_on_c, 1, 73, 50
4, 20850, Note_on_c, 1, 73, 0
4, 20850, Note_on_c, 1, 75, 50
4, 20880, Note_on_c, 1, 75, 0
4, 20880, Note_on_c, 1, 64, 50
4, 21000, Note_on_c, 1, 64, 0
4, 21060, Note_on_c, 1, 76, 50
4, 21095, Note_on_c, 1, 76, 0
4, 21120, Note_on_c, 1, 78, 50
4, 21155, Note_on_c, 1, 78, 0
4, 21180, Note_on_c, 1, 76, 50
4, 21215, Note_on_c, 1, 76, 0
4, 21360, Note_on_c, 1, 78, 50
4, 21420, Note_on_c, 1, 78, 0
4, 21420, Note_on_c, 1, 79, 50
4, 21480, Note_on_c, 1, 79, 0
4, 21480, Note_on_c, 1, 81, 50
4, 21660, Note_on_c, 1, 81, 0
4, 21660, Note_on_c, 1, 79, 50
4, 21690, Note_on_c, 1, 79, 0
4, 21690, Note_on_c, 1, 81, 50
4, 21720, Note_on_c, 1, 81, 0
4, 21720, Note_on_c, 1, 83, 50
4, 21750, Note_on_c, 1, 83, 0
4, 21750, Note_on_c, 1, 79, 50
4, 21780, Note_on_c, 1, 79, 0
4, 21780, Note_on_c, 1, 76, 50
4, 21810, Note_on_c, 1, 76, 0
4, 21810, Note_on_c, 1, 79, 50
4, 21840, Note_on_c, 1, 79, 0
4, 21840, Note_on_c, 1, 78, 50
4, 21875, Note_on_c, 1, 78, 0
4, 21900, Note_on_c, 1, 80, 50
4, 21930, Note_on_c, 1, 80, 0
4, 21930, Note_on_c, 1, 82, 50
4, 21960, Note_on_c, 1, 82, 0
4, 21960, Note_on_c, 1, 83, 50
4, 21990, Note_on_c, 1, 83, 0
4, 21990, Note_on_c, 1, 78, 50
4, 22020, Note_on_c, 1, 78, 0
4, 22020, Note_on_c, 1, 74, 50
4, 22050, Note_on_c, 1, 74, 0
4, 22050, Note_on_c, 1, 78, 50
4, 22080, Note_on_c, 1, 78, 0
4, 22080, Note_on_c, 1, 76, 50
4, 22355, Note_on_c, 1, 76, 0
4, 22380, Note_on_c, 1, 79, 50
4, 22415, Note_on_c, 1, 79, 0
4, 22440, Note_on_c, 1, 78, 50
4, 22475, Note_on_c, 1, 78, 0
4, 22500, Note_on_c, 1, 76, 50
4, 22535, Note_on_c, 1, 76, 0
4, 22560, Note_on_c, 1, 74, 50
4, 22650, Note_on_c, 1, 74, 0
4, 22650, Note_on_c, 1, 73, 50
4, 22680, Note_on_c, 1, 73, 0
4, 22680, Note_on_c, 1, 73, 50
4, 22770, Note_on_c, 1, 73, 0
4, 22770, Note_on_c, 1, 71, 50
4, 22800, Note_on_c, 1, 71, 0
4, 22800, Note_on_c, 1, 71, 50
4, 22920, Note_on_c, 1, 71, 0
4, 30120, Note_on_c, 1, 67, 50
4, 30240, Note_on_c, 1, 67, 0
4, 30300, Note_on_c, 1, 67, 50
4, 30335, Note_on_c, 1, 67, 0
4, 30360, Note_on_c, 1, 69, 50
4, 30420, Note_on_c, 1, 69, 0
4, 30420, Note_on_c, 1, 67, 50
4, 30455, Note_on_c, 1, 67, 0
4, 30600, Note_on_c, 1, 64, 50
4, 30660, Note_on_c, 1, 64, 0
4, 30660, Note_on_c, 1, 66, 50
4, 30720, Note_on_c, 1, 66, 0
4, 30720, Note_on_c, 1, 67, 50
4, 30995, Note_on_c, 1, 67, 0
4, 31020, Note_on_c, 1, 66, 50
4, 31050, Note_on_c, 1, 66, 0
4, 31050, Note_on_c, 1, 67, 50
4, 31080, Note_on_c, 1, 67, 0
4, 31080, Note_on_c, 1, 69, 50
4, 31110, Note_on_c, 1, 69, 0
4, 31110, Note_on_c, 1, 66, 50
4, 31140, Note_on_c, 1, 66, 0
4, 31140, Note_on_c, 1, 62, 50
4, 31170, Note_on_c, 1, 62, 0
4, 31170, Note_on_c, 1, 66, 50
4, 31200, Note_on_c, 1, 66, 0
4, 31200, Note_on_c, 1, 64, 50
4, 31260, Note_on_c, 1, 64, 0
4, 31260, Note_on_c, 1, 57, 50
4, 31320, Note_on_c, 1, 57, 0
4, 31320, Note_on_c, 1, 69, 50
4, 31500, Note_on_c, 1, 69, 0
4, 31500, Note_on_c, 1, 68, 50
4, 31518, Note_on_c, 1, 68, 0
4, 31530, Note_on_c, 1, 66, 50
4, 31548, Note_on_c, 1, 66, 0
4, 31560, Note_on_c, 1, 64, 50
4, 31578, Note_on_c, 1, 64, 0
4, 31590, Note_on_c, 1, 62, 50
4, 31608, Note_on_c, 1, 62, 0
4, 31620, Note_on_c, 1, 60, 50
4, 31638, Note_on_c, 1, 60, 0
4, 31650, Note_on_c, 1, 59, 50
4, 31668, Note_on_c, 1, 59, 0
4, 31680, Note_on_c, 1, 57, 50
4, 31800, Note_on_c, 1, 57, 0
4, 31860, Note_on_c, 1, 72, 50
4, 31980, Note_on_c, 1, 72, 0
4, 31980, Note_on_c, 1, 71, 50
4, 32010, Note_on_c, 1, 71, 0
4, 32010, Note_on_c, 1, 69, 50
4, 32028, Note_on_c, 1, 69, 0
4, 32040, Note_on_c, 1, 67, 50
4, 32070, Note_on_c, 1, 67, 0
4, 32070, Note_on_c, 1, 66, 50
4, 32088, Note_on_c, 1, 66, 0
4, 32100, Note_on_c, 1, 64, 50
4, 32130, Note_on_c, 1, 64, 0
4, 32130, Note_on_c, 1, 66, 50
4, 32148, Note_on_c, 1, 66, 0
4, 32160, Note_on_c, 1, 62, 50
4, 32280, Note_on_c, 1, 62, 0
4, 32340, Note_on_c, 1, 65, 50
4, 32400, Note_on_c, 1, 65, 0
4, 32400, Note_on_c, 1, 64, 50
4, 32520, Note_on_c, 1, 64, 0
4, 32580, Note_on_c, 1, 71, 50
4, 32640, Note_on_c, 1, 71, 0
4, 32640, Note_on_c, 1, 72, 50
4, 32760, Note_on_c, 1, 72, 0
4, 32820, Note_on_c, 1, 72, 50
4, 32855, Note_on_c, 1, 72, 0
4, 32880, Note_on_c, 1, 72, 50
4, 32940, Note_on_c, 1, 72, 0
4, 32940, Note_on_c, 1, 71, 50
4, 32975, Note_on_c, 1, 71, 0
4, 33360, Note_on_c, 1, 70, 75
4, 33480, Note_on_c, 1, 70, 0
4, 33540, Note_on_c, 1, 75, 75
4, 33575, Note_on_c, 1, 75, 0
4, 33600, Note_on_c, 1, 74, 75
4, 33660, Note_on_c, 1, 74, 0
4, 33660, Note_on_c, 1, 75, 75
4, 33695, Note_on_c, 1, 75, 0
4, 33840, Note_on_c, 1, 74, 75
4, 33960, Note_on_c, 1, 74, 0
4, 34020, Note_on_c, 1, 74, 75
4, 34055, Note_on_c, 1, 74, 0
4, 34080, Note_on_c, 1, 74, 75
4, 34110, Note_on_c, 1, 74, 0
4, 34110, Note_on_c, 1, 72, 75
4, 34140, Note_on_c, 1, 72, 0
4, 34140, Note_on_c, 1, 74, 75
4, 34175, Note_on_c, 1, 74, 0
4, 34260, Note_on_c, 1, 75, 75
4, 34290, Note_on_c, 1, 75, 0
4, 34290, Note_on_c, 1, 74, 75
4, 34320, Note_on_c, 1, 74, 0
4, 34320, Note_on_c, 1, 72, 75
4, 34380, Note_on_c, 1, 72, 0
4, 34380, Note_on_c, 1, 70, 75
4, 34415, Note_on_c, 1, 70, 0
4, 34440, Note_on_c, 1, 68, 75
4, 34500, Note_on_c, 1, 68, 0
4, 34500, Note_on_c, 1, 67, 75
4, 34535, Note_on_c, 1, 67, 0
4, 34560, Note_on_c, 1, 66, 75
4, 34680, Note_on_c, 1, 66, 0
4, 34680, Note_on_c, 1, 74, 75
4, 34800, Note_on_c, 1, 74, 0
4, 34920, Note_on_c, 1, 74, 75
4, 35040, Note_on_c, 1, 74, 0
4, 35340, Note_on_c, 1, 72, 75
4, 35400, Note_on_c, 1, 72, 0
4, 35400, Note_on_c, 1, 69, 75
4, 35460, Note_on_c, 1, 69, 0
4, 35460, Note_on_c, 1, 66, 75
4, 35520, Note_on_c, 1, 66, 0
4, 35520, Note_on_c, 1, 62, 75
4, 35640, Note_on_c, 1, 62, 0
4, 35640, Note_on_c, 1, 74, 75
4, 35760, Note_on_c, 1, 74, 0
4, 35880, Note_on_c, 1, 70, 75
4, 36000, Note_on_c, 1, 70, 0
4, 36600, Note_on_c, 1, 74, 64
4, 36720, Note_on_c, 1, 74, 0
4, 36780, Note_on_c, 1, 71, 64
4, 36810, Note_on_c, 1, 71, 0
4, 36810, Note_on_c, 1, 69, 64
4, 36840, Note_on_c, 1, 69, 0
4, 36840, Note_on_c, 1, 71, 64
4, 36875, Note_on_c, 1, 71, 0
4, 36900, Note_on_c, 1, 74, 64
4, 36935, Note_on_c, 1, 74, 0
4, 36960, Note_on_c, 1, 72, 64
4, 36995, Note_on_c, 1, 72, 0
4, 37020, Note_on_c, 1, 71, 64
4, 37050, Note_on_c, 1, 71, 0
4, 37050, Note_on_c, 1, 69, 64
4, 37080, Note_on_c, 1, 69, 0
4, 37080, Note_on_c, 1, 71, 64
4, 37110, Note_on_c, 1, 71, 0
4, 37110, Note_on_c, 1, 67, 64
4, 37140, Note_on_c, 1, 67, 0
4, 37140, Note_on_c, 1, 64, 64
4, 37170, Note_on_c, 1, 64, 0
4, 37170, Note_on_c, 1, 67, 64
4, 37200, Note_on_c, 1, 67, 0
4, 37200, Note_on_c, 1, 61, 64
4, 37235, Note_on_c, 1, 61, 0
4, 37260, Note_on_c, 1, 73, 64
4, 37290, Note_on_c, 1, 73, 0
4, 37290, Note_on_c, 1, 71, 64
4, 37320, Note_on_c, 1, 71, 0
4, 37320, Note_on_c, 1, 73, 64
4, 37355, Note_on_c, 1, 73, 0
4, 37380, Note_on_c, 1, 76, 64
4, 37415, Note_on_c, 1, 76, 0
4, 37440, Note_on_c, 1, 74, 64
4, 37475, Note_on_c, 1, 74, 0
4, 37500, Note_on_c, 1, 78, 64
4, 37535, Note_on_c, 1, 78, 0
4, 37560, Note_on_c, 1, 69, 64
4, 37595, Note_on_c, 1, 69, 0
4, 37620, Note_on_c, 1, 72, 64
4, 37655, Note_on_c, 1, 72, 0
4, 37680, Note_on_c, 1, 66, 64
4, 37710, Note_on_c, 1, 66, 0
4, 37710, Note_on_c, 1, 71, 64
4, 37740, Note_on_c, 1, 71, 0
4, 37740, Note_on_c, 1, 69, 64
4, 37770, Note_on_c, 1, 69, 0
4, 37770, Note_on_c, 1, 67, 64
4, 37800, Note_on_c, 1, 67, 0
4, 37800, Note_on_c, 1, 69, 64
4, 37830, Note_on_c, 1, 69, 0
4, 37830, Note_on_c, 1, 66, 64
4, 37860, Note_on_c, 1, 66, 0
4, 37860, Note_on_c, 1, 62, 64
4, 37890, Note_on_c, 1, 62, 0
4, 37890, Note_on_c, 1, 66, 64
4, 37920, Note_on_c, 1, 66, 0
4, 37920, Note_on_c, 1, 67, 64
4, 38010, Note_on_c, 1, 67, 0
4, 38010, Note_on_c, 1, 69, 64
4, 38040, Note_on_c, 1, 69, 0
4, 38040, Note_on_c, 1, 66, 64
4, 38130, Note_on_c, 1, 66, 0
4, 38130, Note_on_c, 1, 67, 64
4, 38160, Note_on_c, 1, 67, 0
4, 38160, Note_on_c, 1, 67, 64
4, 38280, Note_on_c, 1, 67, 0
4, 38640, End_track
5, 0, Start_track
5, 0, MIDI_port, 0
5, 0, Title_t, "Violin I"
5, 0, Program_c, 2, 48
5, 0, Control_c, 2, 7, 100
5, 0, Control_c, 2, 91, 127
5, 240, Note_on_c, 2, 67, 50
5, 360, Note_on_c, 2, 67, 0
5, 420, Note_on_c, 2, 67, 50
5, 455, Note_on_c, 2, 67, 0
5, 480, Note_on_c, 2, 69, 50
5, 515, Note_on_c, 2, 69, 0
5, 540, Note_on_c, 2, 67, 50
5, 575, Note_on_c, 2, 67, 0
5, 720, Note_on_c, 2, 69, 50
5, 780, Note_on_c, 2, 69, 0
5, 780, Note_on_c, 2, 71, 50
5, 840, Note_on_c, 2, 71, 0
5, 840, Note_on_c, 2, 72, 50
5, 1020, Note_on_c, 2, 72, 0
5, 1020, Note_on_c, 2, 71, 50
5, 1050, Note_on_c, 2, 71, 0
5, 1050, Note_on_c, 2, 72, 50
5, 1080, Note_on_c, 2, 72, 0
5, 1080, Note_on_c, 2, 74, 50
5, 1110, Note_on_c, 2, 74, 0
5, 1110, Note_on_c, 2, 71, 50
5, 1140, Note_on_c, 2, 71, 0
5, 1140, Note_on_c, 2, 67, 50
5, 1170, Note_on_c, 2, 67, 0
5, 1170, Note_on_c, 2, 71, 50
5, 1200, Note_on_c, 2, 71, 0
5, 1200, Note_on_c, 2, 69, 50
5, 1235, Note_on_c, 2, 69, 0
5, 1260, Note_on_c, 2, 71, 50
5, 1290, Note_on_c, 2, 71, 0
5, 1290, Note_on_c, 2, 73, 50
5, 1320, Note_on_c, 2, 73, 0
5, 1320, Note_on_c, 2, 74, 50
5, 1350, Note_on_c, 2, 74, 0
5, 1350, Note_on_c, 2, 69, 50
5, 1380, Note_on_c, 2, 69, 0
5, 1380, Note_on_c, 2, 66, 50
5, 1410, Note_on_c, 2, 66, 0
5, 1410, Note_on_c, 2, 69, 50
5, 1440, Note_on_c, 2, 69, 0
5, 1440, Note_on_c, 2, 67, 50
5, 1715, Note_on_c, 2, 67, 0
5, 1740, Note_on_c, 2, 71, 50
5, 1775, Note_on_c, 2, 71, 0
5, 1800, Note_on_c, 2, 69, 50
5, 1835, Note_on_c, 2, 69, 0
5, 1860, Note_on_c, 2, 67, 50
5, 1895, Note_on_c, 2, 67, 0
5, 1920, Note_on_c, 2, 66, 50
5, 2010, Note_on_c, 2, 66, 0
5, 2010, Note_on_c, 2, 64, 50
5, 2040, Note_on_c, 2, 64, 0
5, 2040, Note_on_c, 2, 64, 50
5, 2130, Note_on_c, 2, 64, 0
5, 2130, Note_on_c, 2, 62, 50
5, 2160, Note_on_c, 2, 62, 0
5, 2160, Note_on_c, 2, 62, 64
5, 2280, Note_on_c, 2, 62, 0
5, 2280, Note_on_c, 2, 74, 64
5, 2400, Note_on_c, 2, 74, 0
5, 2460, Note_on_c, 2, 74, 64
5, 2495, Note_on_c, 2, 74, 0
5, 2520, Note_on_c, 2, 76, 64
5, 2580, Note_on_c, 2, 76, 0
5, 2580, Note_on_c, 2, 74, 64
5, 2615, Note_on_c, 2, 74, 0
5, 2760, Note_on_c, 2, 71, 64
5, 2820, Note_on_c, 2, 71, 0
5, 2820, Note_on_c, 2, 73, 64
5, 2880, Note_on_c, 2, 73, 0
5, 2880, Note_on_c, 2, 74, 64
5, 3155, Note_on_c, 2, 74, 0
5, 3180, Note_on_c, 2, 72, 64
5, 3210, Note_on_c, 2, 72, 0
5, 3210, Note_on_c, 2, 74, 64
5, 3240, Note_on_c, 2, 74, 0
5, 3240, Note_on_c, 2, 76, 64
5, 3270, Note_on_c, 2, 76, 0
5, 3270, Note_on_c, 2, 72, 64
5, 3300, Note_on_c, 2, 72, 0
5, 3300, Note_on_c, 2, 69, 64
5, 3330, Note_on_c, 2, 69, 0
5, 3330, Note_on_c, 2, 72, 64
5, 3360, Note_on_c, 2, 72, 0
5, 3360, Note_on_c, 2, 71, 64
5, 3390, Note_on_c, 2, 71, 0
5, 3390, Note_on_c, 2, 75, 64
5, 3420, Note_on_c, 2, 75, 0
5, 3420, Note_on_c, 2, 76, 64
5, 3450, Note_on_c, 2, 76, 0
5, 3450, Note_on_c, 2, 78, 64
5, 3480, Note_on_c, 2, 78, 0
5, 3480, Note_on_c, 2, 79, 64
5, 3510, Note_on_c, 2, 79, 0
5, 3510, Note_on_c, 2, 76, 64
5, 3540, Note_on_c, 2, 76, 0
5, 3540, Note_on_c, 2, 72, 64
5, 3570, Note_on_c, 2, 72, 0
5, 3570, Note_on_c, 2, 76, 64
5, 3600, Note_on_c, 2, 76, 0
5, 3600, Note_on_c, 2, 78, 64
5, 3630, Note_on_c, 2, 78, 0
5, 3630, Note_on_c, 2, 76, 64
5, 3660, Note_on_c, 2, 76, 0
5, 3660, Note_on_c, 2, 78, 64
5, 3690, Note_on_c, 2, 78, 0
5, 3690, Note_on_c, 2, 79, 64
5, 3720, Note_on_c, 2, 79, 0
5, 3720, Note_on_c, 2, 81, 64
5, 3750, Note_on_c, 2, 81, 0
5, 3750, Note_on_c, 2, 78, 64
5, 3780, Note_on_c, 2, 78, 0
5, 3780, Note_on_c, 2, 74, 64
5, 3810, Note_on_c, 2, 74, 0
5, 3810, Note_on_c, 2, 78, 64
5, 3840, Note_on_c, 2, 78, 0
5, 3840, Note_on_c, 2, 79, 64
5, 3930, Note_on_c, 2, 79, 0
5, 3930, Note_on_c, 2, 81, 64
5, 3960, Note_on_c, 2, 81, 0
5, 3960, Note_on_c, 2, 78, 64
5, 4050, Note_on_c, 2, 78, 0
5, 4050, Note_on_c, 2, 79, 64
5, 4080, Note_on_c, 2, 79, 0
5, 4080, Note_on_c, 2, 79, 64
5, 4200, Note_on_c, 2, 79, 0
5, 4860, Note_on_c, 2, 62, 40
5, 4895, Note_on_c, 2, 62, 0
5, 4920, Note_on_c, 2, 67, 40
5, 4955, Note_on_c, 2, 67, 0
5, 4980, Note_on_c, 2, 71, 40
5, 5015, Note_on_c, 2, 71, 0
5, 5100, Note_on_c, 2, 69, 40
5, 5135, Note_on_c, 2, 69, 0
5, 5160, Note_on_c, 2, 62, 40
5, 5195, Note_on_c, 2, 62, 0
5, 5220, Note_on_c, 2, 66, 40
5, 5255, Note_on_c, 2, 66, 0
5, 5340, Note_on_c, 2, 64, 40
5, 5375, Note_on_c, 2, 64, 0
5, 5400, Note_on_c, 2, 69, 40
5, 5435, Note_on_c, 2, 69, 0
5, 5460, Note_on_c, 2, 72, 40
5, 5495, Note_on_c, 2, 72, 0
5, 5580, Note_on_c, 2, 71, 40
5, 5615, Note_on_c, 2, 71, 0
5, 5640, Note_on_c, 2, 64, 40
5, 5675, Note_on_c, 2, 64, 0
5, 5700, Note_on_c, 2, 67, 40
5, 5735, Note_on_c, 2, 67, 0
5, 5820, Note_on_c, 2, 66, 40
5, 5855, Note_on_c, 2, 66, 0
5, 5880, Note_on_c, 2, 71, 40
5, 5915, Note_on_c, 2, 71, 0
5, 5940, Note_on_c, 2, 74, 40
5, 5975, Note_on_c, 2, 74, 0
5, 6000, Note_on_c, 2, 72, 40
5, 6120, Note_on_c, 2, 72, 0
5, 6180, Note_on_c, 2, 74, 40
5, 6215, Note_on_c, 2, 74, 0
5, 6240, Note_on_c, 2, 71, 40
5, 6275, Note_on_c, 2, 71, 0
5, 6300, Note_on_c, 2, 67, 40
5, 6335, Note_on_c, 2, 67, 0
5, 6360, Note_on_c, 2, 62, 40
5, 6395, Note_on_c, 2, 62, 0
5, 6480, Note_on_c, 2, 74, 50
5, 6600, Note_on_c, 2, 74, 0
5, 6660, Note_on_c, 2, 74, 50
5, 6695, Note_on_c, 2, 74, 0
5, 6720, Note_on_c, 2, 76, 50
5, 6755, Note_on_c, 2, 76, 0
5, 6780, Note_on_c, 2, 74, 50
5, 6815, Note_on_c, 2, 74, 0
5, 6960, Note_on_c, 2, 76, 50
5, 7020, Note_on_c, 2, 76, 0
5, 7020, Note_on_c, 2, 78, 50
5, 7080, Note_on_c, 2, 78, 0
5, 7080, Note_on_c, 2, 79, 50
5, 7260, Note_on_c, 2, 79, 0
5, 7260, Note_on_c, 2, 78, 50
5, 7290, Note_on_c, 2, 78, 0
5, 7290, Note_on_c, 2, 79, 50
5, 7320, Note_on_c, 2, 79, 0
5, 7320, Note_on_c, 2, 81, 50
5, 7350, Note_on_c, 2, 81, 0
5, 7350, Note_on_c, 2, 78, 50
5, 7380, Note_on_c, 2, 78, 0
5, 7380, Note_on_c, 2, 74, 50
5, 7410, Note_on_c, 2, 74, 0
5, 7410, Note_on_c, 2, 78, 50
5, 7440, Note_on_c, 2, 78, 0
5, 7440, Note_on_c, 2, 76, 50
5, 7475, Note_on_c, 2, 76, 0
5, 7500, Note_on_c, 2, 78, 50
5, 7530, Note_on_c, 2, 78, 0
5, 7530, Note_on_c, 2, 79, 50
5, 7560, Note_on_c, 2, 79, 0
5, 7560, Note_on_c, 2, 81, 50
5, 7590, Note_on_c, 2, 81, 0
5, 7590, Note_on_c, 2, 76, 50
5, 7620, Note_on_c, 2, 76, 0
5, 7620, Note_on_c, 2, 73, 50
5, 7650, Note_on_c, 2, 73, 0
5, 7650, Note_on_c, 2, 76, 50
5, 7680, Note_on_c, 2, 76, 0
5, 7680, Note_on_c, 2, 74, 50
5, 7715, Note_on_c, 2, 74, 0
5, 7740, Note_on_c, 2, 71, 50
5, 7775, Note_on_c, 2, 71, 0
5, 7800, Note_on_c, 2, 69, 50
5, 7835, Note_on_c, 2, 69, 0
5, 7860, Note_on_c, 2, 67, 50
5, 7895, Note_on_c, 2, 67, 0
5, 7920, Note_on_c, 2, 66, 40
5, 7950, Note_on_c, 2, 66, 0
5, 7950, Note_on_c, 2, 76, 40
5, 7957, Program_c, 2, 40
5, 7980, Note_on_c, 2, 76, 0
5, 7980, Note_on_c, 2, 78, 40
5, 8010, Note_on_c, 2, 78, 0
5, 8010, Note_on_c, 2, 79, 40
5, 8040, Note_on_c, 2, 79, 0
5, 8040, Note_on_c, 2, 81, 40
5, 8070, Note_on_c, 2, 81, 0
5, 8070, Note_on_c, 2, 78, 40
5, 8100, Note_on_c, 2, 78, 0
5, 8100, Note_on_c, 2, 74, 40
5, 8130, Note_on_c, 2, 74, 0
5, 8130, Note_on_c, 2, 78, 40
5, 8160, Note_on_c, 2, 78, 0
5, 8160, Note_on_c, 2, 76, 40
5, 8195, Note_on_c, 2, 76, 0
5, 8220, Note_on_c, 2, 78, 40
5, 8250, Note_on_c, 2, 78, 0
5, 8250, Note_on_c, 2, 79, 40
5, 8280, Note_on_c, 2, 79, 0
5, 8280, Note_on_c, 2, 81, 40
5, 8310, Note_on_c, 2, 81, 0
5, 8310, Note_on_c, 2, 76, 40
5, 8340, Note_on_c, 2, 76, 0
5, 8340, Note_on_c, 2, 73, 40
5, 8370, Note_on_c, 2, 73, 0
5, 8370, Note_on_c, 2, 76, 40
5, 8400, Note_on_c, 2, 76, 0
5, 8400, Note_on_c, 2, 74, 40
5, 8435, Note_on_c, 2, 74, 0
5, 8910, Note_on_c, 2, 69, 40
5, 8940, Note_on_c, 2, 69, 0
5, 8940, Note_on_c, 2, 71, 40
5, 8970, Note_on_c, 2, 71, 0
5, 8970, Note_on_c, 2, 72, 40
5, 9000, Note_on_c, 2, 72, 0
5, 9000, Note_on_c, 2, 74, 40
5, 9030, Note_on_c, 2, 74, 0
5, 9030, Note_on_c, 2, 71, 40
5, 9060, Note_on_c, 2, 71, 0
5, 9060, Note_on_c, 2, 67, 40
5, 9090, Note_on_c, 2, 67, 0
5, 9090, Note_on_c, 2, 79, 40
5, 9120, Note_on_c, 2, 79, 0
5, 9120, Note_on_c, 2, 78, 40
5, 9150, Note_on_c, 2, 78, 0
5, 9150, Note_on_c, 2, 79, 40
5, 9180, Note_on_c, 2, 79, 0
5, 9180, Note_on_c, 2, 81, 40
5, 9240, Note_on_c, 2, 81, 0
5, 9390, Note_on_c, 2, 73, 40
5, 9420, Note_on_c, 2, 73, 0
5, 9420, Note_on_c, 2, 75, 40
5, 9450, Note_on_c, 2, 75, 0
5, 9450, Note_on_c, 2, 76, 40
5, 9480, Note_on_c, 2, 76, 0
5, 9480, Note_on_c, 2, 78, 40
5, 9510, Note_on_c, 2, 78, 0
5, 9510, Note_on_c, 2, 75, 40
5, 9540, Note_on_c, 2, 75, 0
5, 9540, Note_on_c, 2, 69, 40
5, 9570, Note_on_c, 2, 69, 0
5, 9570, Note_on_c, 2, 78, 40
5, 9588, Note_on_c, 2, 78, 0
5, 9600, Note_on_c, 2, 78, 40
5, 9630, Note_on_c, 2, 78, 0
5, 9630, Note_on_c, 2, 75, 40
5, 9660, Note_on_c, 2, 75, 0
5, 9660, Note_on_c, 2, 76, 40
5, 9720, Note_on_c, 2, 76, 0
5, 9960, Note_on_c, 2, 76, 40
5, 10110, Note_on_c, 2, 76, 0
5, 10110, Note_on_c, 2, 69, 40
5, 10128, Note_on_c, 2, 69, 0
5, 10140, Note_on_c, 2, 68, 40
5, 10158, Note_on_c, 2, 68, 0
5, 10170, Note_on_c, 2, 66, 40
5, 10188, Note_on_c, 2, 66, 0
5, 10200, Note_on_c, 2, 64, 40
5, 10218, Note_on_c, 2, 64, 0
5, 10230, Note_on_c, 2, 62, 40
5, 10248, Note_on_c, 2, 62, 0
5, 10260, Note_on_c, 2, 60, 40
5, 10278, Note_on_c, 2, 60, 0
5, 10290, Note_on_c, 2, 59, 40
5, 10308, Note_on_c, 2, 59, 0
5, 10320, Note_on_c, 2, 57, 40
5, 10440, Note_on_c, 2, 57, 0
5, 10800, Program_c, 2, 48
5, 11040, Note_on_c, 2, 69, 40
5, 11340, Note_on_c, 2, 69, 0
5, 11340, Note_on_c, 2, 67, 40
5, 11370, Note_on_c, 2, 67, 0
5, 11370, Note_on_c, 2, 66, 40
5, 11400, Note_on_c, 2, 66, 0
5, 11400, Note_on_c, 2, 67, 40
5, 11435, Note_on_c, 2, 67, 0
5, 11460, Note_on_c, 2, 79, 40
5, 11520, Note_on_c, 2, 79, 0
5, 11520, Note_on_c, 2, 73, 40
5, 11700, Note_on_c, 2, 73, 0
5, 11700, Note_on_c, 2, 71, 40
5, 11730, Note_on_c, 2, 71, 0
5, 11730, Note_on_c, 2, 73, 40
5, 11760, Note_on_c, 2, 73, 0
5, 11760, Note_on_c, 2, 74, 40
5, 11940, Note_on_c, 2, 74, 0
5, 11940, Note_on_c, 2, 73, 40
5, 11970, Note_on_c, 2, 73, 0
5, 11970, Note_on_c, 2, 71, 40
5, 12000, Note_on_c, 2, 71, 0
5, 12000, Note_on_c, 2, 73, 40
5, 12060, Note_on_c, 2, 73, 0
5, 12270, Note_on_c, 2, 71, 40
5, 12300, Note_on_c, 2, 71, 0
5, 12300, Note_on_c, 2, 73, 40
5, 12330, Note_on_c, 2, 74, 40
5, 12330, Note_on_c, 2, 73, 0
5, 12360, Note_on_c, 2, 74, 0
5, 12360, Note_on_c, 2, 76, 40
5, 12390, Note_on_c, 2, 76, 0
5, 12390, Note_on_c, 2, 71, 40
5, 12420, Note_on_c, 2, 71, 0
5, 12420, Note_on_c, 2, 67, 40
5, 12450, Note_on_c, 2, 67, 0
5, 12450, Note_on_c, 2, 71, 40
5, 12480, Note_on_c, 2, 71, 0
5, 12480, Note_on_c, 2, 64, 40
5, 12540, Note_on_c, 2, 64, 0
5, 13200, Note_on_c, 2, 74, 64
5, 13320, Note_on_c, 2, 74, 0
5, 13380, Note_on_c, 2, 74, 64
5, 13415, Note_on_c, 2, 74, 0
5, 13440, Note_on_c, 2, 76, 64
5, 13475, Note_on_c, 2, 76, 0
5, 13500, Note_on_c, 2, 74, 64
5, 13535, Note_on_c, 2, 74, 0
5, 13680, Note_on_c, 2, 76, 64
5, 13740, Note_on_c, 2, 76, 0
5, 13740, Note_on_c, 2, 78, 64
5, 13800, Note_on_c, 2, 78, 0
5, 13800, Note_on_c, 2, 79, 64
5, 13980, Note_on_c, 2, 79, 0
5, 13980, Note_on_c, 2, 78, 64
5, 14010, Note_on_c, 2, 78, 0
5, 14010, Note_on_c, 2, 79, 64
5, 14040, Note_on_c, 2, 79, 0
5, 14040, Note_on_c, 2, 81, 64
5, 14100, Note_on_c, 2, 81, 0
5, 14100, Note_on_c, 2, 72, 64
5, 14220, Note_on_c, 2, 72, 0
5, 14220, Note_on_c, 2, 71, 64
5, 14255, Note_on_c, 2, 71, 0
5, 14280, Note_on_c, 2, 79, 64
5, 14400, Note_on_c, 2, 79, 0
5, 14460, Note_on_c, 2, 79, 64
5, 14495, Note_on_c, 2, 79, 0
5, 14520, Note_on_c, 2, 81, 64
5, 14580, Note_on_c, 2, 81, 0
5, 14580, Note_on_c, 2, 79, 64
5, 14615, Note_on_c, 2, 79, 0
5, 14760, Note_on_c, 2, 76, 64
5, 14820, Note_on_c, 2, 76, 0
5, 14820, Note_on_c, 2, 78, 64
5, 14880, Note_on_c, 2, 78, 0
5, 14880, Note_on_c, 2, 79, 64
5, 15155, Note_on_c, 2, 79, 0
5, 15180, Note_on_c, 2, 78, 64
5, 15210, Note_on_c, 2, 78, 0
5, 15210, Note_on_c, 2, 76, 64
5, 15240, Note_on_c, 2, 76, 0
5, 15240, Note_on_c, 2, 78, 64
5, 15420, Note_on_c, 2, 78, 0
5, 15420, Note_on_c, 2, 76, 64
5, 15450, Note_on_c, 2, 76, 0
5, 15450, Note_on_c, 2, 78, 64
5, 15480, Note_on_c, 2, 78, 0
5, 15480, Note_on_c, 2, 79, 64
5, 15510, Note_on_c, 2, 79, 0
5, 15510, Note_on_c, 2, 76, 64
5, 15540, Note_on_c, 2, 76, 0
5, 15540, Note_on_c, 2, 71, 64
5, 15570, Note_on_c, 2, 71, 0
5, 15570, Note_on_c, 2, 74, 64
5, 15600, Note_on_c, 2, 74, 0
5, 15600, Note_on_c, 2, 73, 64
5, 15630, Note_on_c, 2, 73, 0
5, 15630, Note_on_c, 2, 71, 64
5, 15660, Note_on_c, 2, 71, 0
5, 15660, Note_on_c, 2, 73, 64
5, 15690, Note_on_c, 2, 73, 0
5, 15690, Note_on_c, 2, 74, 64
5, 15720, Note_on_c, 2, 74, 0
5, 15720, Note_on_c, 2, 76, 64
5, 15750, Note_on_c, 2, 76, 0
5, 15750, Note_on_c, 2, 73, 64
5, 15780, Note_on_c, 2, 73, 0
5, 15780, Note_on_c, 2, 69, 64
5, 15810, Note_on_c, 2, 69, 0
5, 15810, Note_on_c, 2, 73, 64
5, 15840, Note_on_c, 2, 73, 0
5, 15840, Note_on_c, 2, 74, 64
5, 15930, Note_on_c, 2, 74, 0
5, 15930, Note_on_c, 2, 76, 64
5, 15960, Note_on_c, 2, 76, 0
5, 15960, Note_on_c, 2, 73, 64
5, 16050, Note_on_c, 2, 73, 0
5, 16050, Note_on_c, 2, 74, 64
5, 16080, Note_on_c, 2, 74, 0
5, 16080, Note_on_c, 2, 74, 64
5, 16200, Note_on_c, 2, 74, 0
5, 16860, Note_on_c, 2, 76, 40
5, 16980, Note_on_c, 2, 76, 0
5, 16980, Note_on_c, 2, 75, 40
5, 17040, Note_on_c, 2, 75, 0
5, 17040, Note_on_c, 2, 76, 40
5, 17160, Note_on_c, 2, 76, 0
5, 18060, Note_on_c, 2, 74, 40
5, 18180, Note_on_c, 2, 74, 0
5, 18180, Note_on_c, 2, 76, 40
5, 18210, Note_on_c, 2, 76, 0
5, 18210, Note_on_c, 2, 78, 40
5, 18240, Note_on_c, 2, 78, 0
5, 18240, Note_on_c, 2, 79, 40
5, 18275, Note_on_c, 2, 79, 0
5, 18600, Note_on_c, 2, 76, 40
5, 18660, Note_on_c, 2, 76, 0
5, 18660, Note_on_c, 2, 74, 40
5, 18695, Note_on_c, 2, 74, 0
5, 18720, Note_on_c, 2, 73, 40
5, 18780, Note_on_c, 2, 73, 0
5, 18780, Note_on_c, 2, 74, 40
5, 18815, Note_on_c, 2, 74, 0
5, 18840, Note_on_c, 2, 76, 40
5, 18900, Note_on_c, 2, 76, 0
5, 18900, Note_on_c, 2, 78, 40
5, 18935, Note_on_c, 2, 78, 0
5, 18960, Note_on_c, 2, 79, 40
5, 19020, Note_on_c, 2, 79, 0
5, 19020, Note_on_c, 2, 81, 40
5, 19055, Note_on_c, 2, 81, 0
5, 19080, Note_on_c, 2, 83, 40
5, 19140, Note_on_c, 2, 83, 0
5, 19140, Note_on_c, 2, 71, 40
5, 19175, Note_on_c, 2, 71, 0
5, 19200, Note_on_c, 2, 73, 40
5, 19260, Note_on_c, 2, 73, 0
5, 19260, Note_on_c, 2, 70, 40
5, 19295, Note_on_c, 2, 70, 0
5, 19320, Note_on_c, 2, 70, 40
5, 19380, Note_on_c, 2, 70, 0
5, 19380, Note_on_c, 2, 66, 40
5, 19415, Note_on_c, 2, 66, 0
5, 19440, Note_on_c, 2, 66, 40
5, 19560, Note_on_c, 2, 66, 0
5, 19920, Note_on_c, 2, 71, 50
5, 20040, Note_on_c, 2, 71, 0
5, 20100, Note_on_c, 2, 71, 50
5, 20135, Note_on_c, 2, 71, 0
5, 20160, Note_on_c, 2, 73, 50
5, 20195, Note_on_c, 2, 73, 0
5, 20220, Note_on_c, 2, 71, 50
5, 20255, Note_on_c, 2, 71, 0
5, 20400, Note_on_c, 2, 73, 50
5, 20460, Note_on_c, 2, 73, 0
5, 20460, Note_on_c, 2, 74, 50
5, 20520, Note_on_c, 2, 74, 0
5, 20520, Note_on_c, 2, 76, 50
5, 20700, Note_on_c, 2, 76, 0
5, 20700, Note_on_c, 2, 75, 50
5, 20730, Note_on_c, 2, 75, 0
5, 20730, Note_on_c, 2, 76, 50
5, 20760, Note_on_c, 2, 76, 0
5, 20760, Note_on_c, 2, 78, 50
5, 20820, Note_on_c, 2, 78, 0
5, 20820, Note_on_c, 2, 69, 50
5, 20940, Note_on_c, 2, 69, 0
5, 20940, Note_on_c, 2, 67, 50
5, 20975, Note_on_c, 2, 67, 0
5, 21000, Note_on_c, 2, 64, 50
5, 21120, Note_on_c, 2, 64, 0
5, 21180, Note_on_c, 2, 64, 50
5, 21215, Note_on_c, 2, 64, 0
5, 21240, Note_on_c, 2, 66, 50
5, 21300, Note_on_c, 2, 66, 0
5, 21300, Note_on_c, 2, 64, 50
5, 21335, Note_on_c, 2, 64, 0
5, 21480, Note_on_c, 2, 73, 50
5, 21540, Note_on_c, 2, 73, 0
5, 21540, Note_on_c, 2, 75, 50
5, 21600, Note_on_c, 2, 75, 0
5, 21600, Note_on_c, 2, 76, 50
5, 21875, Note_on_c, 2, 76, 0
5, 21900, Note_on_c, 2, 74, 50
5, 21930, Note_on_c, 2, 74, 0
5, 21930, Note_on_c, 2, 73, 50
5, 21960, Note_on_c, 2, 73, 0
5, 21960, Note_on_c, 2, 74, 50
5, 22140, Note_on_c, 2, 74, 0
5, 22140, Note_on_c, 2, 73, 50
5, 22170, Note_on_c, 2, 73, 0
5, 22170, Note_on_c, 2, 74, 50
5, 22200, Note_on_c, 2, 74, 0
5, 22200, Note_on_c, 2, 76, 50
5, 22230, Note_on_c, 2, 76, 0
5, 22230, Note_on_c, 2, 73, 50
5, 22260, Note_on_c, 2, 73, 0
5, 22260, Note_on_c, 2, 68, 50
5, 22290, Note_on_c, 2, 68, 0
5, 22290, Note_on_c, 2, 71, 50
5, 22320, Note_on_c, 2, 71, 0
5, 22320, Note_on_c, 2, 70, 50
5, 22350, Note_on_c, 2, 70, 0
5, 22350, Note_on_c, 2, 68, 50
5, 22380, Note_on_c, 2, 68, 0
5, 22380, Note_on_c, 2, 70, 50
5, 22410, Note_on_c, 2, 70, 0
5, 22410, Note_on_c, 2, 71, 50
5, 22440, Note_on_c, 2, 71, 0
5, 22440, Note_on_c, 2, 73, 50
5, 22470, Note_on_c, 2, 73, 0
5, 22470, Note_on_c, 2, 70, 50
5, 22500, Note_on_c, 2, 70, 0
5, 22500, Note_on_c, 2, 66, 50
5, 22530, Note_on_c, 2, 66, 0
5, 22530, Note_on_c, 2, 70, 50
5, 22560, Note_on_c, 2, 70, 0
5, 22560, Note_on_c, 2, 71, 50
5, 22650, Note_on_c, 2, 71, 0
5, 22650, Note_on_c, 2, 73, 50
5, 22680, Note_on_c, 2, 73, 0
5, 22680, Note_on_c, 2, 70, 50
5, 22770, Note_on_c, 2, 70, 0
5, 22770, Note_on_c, 2, 71, 50
5, 22800, Note_on_c, 2, 71, 0
5, 22800, Note_on_c, 2, 71, 50
5, 22920, Note_on_c, 2, 71, 0
5, 23580, Note_on_c, 2, 69, 37
5, 23700, Note_on_c, 2, 69, 0
5, 23700, Note_on_c, 2, 68, 37
5, 23760, Note_on_c, 2, 68, 0
5, 23760, Note_on_c, 2, 69, 37
5, 23880, Note_on_c, 2, 69, 0
5, 24780, Note_on_c, 2, 76, 40
5, 24900, Note_on_c, 2, 76, 0
5, 24900, Note_on_c, 2, 78, 40
5, 24930, Note_on_c, 2, 78, 0
5, 24930, Note_on_c, 2, 79, 40
5, 24960, Note_on_c, 2, 79, 0
5, 24960, Note_on_c, 2, 81, 40
5, 24995, Note_on_c, 2, 81, 0
5, 25560, Note_on_c, 2, 72, 40
5, 25620, Note_on_c, 2, 72, 0
5, 25620, Note_on_c, 2, 71, 40
5, 25655, Note_on_c, 2, 71, 0
5, 25680, Note_on_c, 2, 69, 40
5, 25740, Note_on_c, 2, 69, 0
5, 25740, Note_on_c, 2, 71, 40
5, 25775, Note_on_c, 2, 71, 0
5, 25800, Note_on_c, 2, 72, 40
5, 25860, Note_on_c, 2, 72, 0
5, 25860, Note_on_c, 2, 71, 40
5, 25895, Note_on_c, 2, 71, 0
5, 25920, Note_on_c, 2, 69, 40
5, 25980, Note_on_c, 2, 69, 0
5, 25980, Note_on_c, 2, 66, 40
5, 26015, Note_on_c, 2, 66, 0
5, 26040, Note_on_c, 2, 66, 40
5, 26100, Note_on_c, 2, 66, 0
5, 26100, Note_on_c, 2, 71, 40
5, 26135, Note_on_c, 2, 71, 0
5, 26160, Note_on_c, 2, 59, 40
5, 26280, Note_on_c, 2, 59, 0
5, 26640, Note_on_c, 2, 76, 70
5, 26760, Note_on_c, 2, 76, 0
5, 26820, Note_on_c, 2, 76, 70
5, 26855, Note_on_c, 2, 76, 0
5, 26880, Note_on_c, 2, 78, 70
5, 26940, Note_on_c, 2, 78, 0
5, 26940, Note_on_c, 2, 76, 70
5, 26975, Note_on_c, 2, 76, 0
5, 27120, Note_on_c, 2, 74, 70
5, 27240, Note_on_c, 2, 74, 0
5, 27300, Note_on_c, 2, 74, 70
5, 27360, Note_on_c, 2, 74, 0
5, 27360, Note_on_c, 2, 74, 70
5, 27390, Note_on_c, 2, 74, 0
5, 27390, Note_on_c, 2, 76, 70
5, 27420, Note_on_c, 2, 76, 0
5, 27420, Note_on_c, 2, 74, 70
5, 27455, Note_on_c, 2, 74, 0
5, 27540, Note_on_c, 2, 76, 70
5, 27570, Note_on_c, 2, 76, 0
5, 27570, Note_on_c, 2, 74, 70
5, 27600, Note_on_c, 2, 74, 0
5, 27600, Note_on_c, 2, 72, 70
5, 27660, Note_on_c, 2, 72, 0
5, 27660, Note_on_c, 2, 71, 70
5, 27695, Note_on_c, 2, 71, 0
5, 27720, Note_on_c, 2, 69, 70
5, 27780, Note_on_c, 2, 69, 0
5, 27780, Note_on_c, 2, 67, 70
5, 27815, Note_on_c, 2, 67, 0
5, 27840, Note_on_c, 2, 66, 70
5, 27960, Note_on_c, 2, 66, 0
5, 27960, Note_on_c, 2, 75, 70
5, 28080, Note_on_c, 2, 75, 0
5, 28200, Note_on_c, 2, 76, 70
5, 28320, Note_on_c, 2, 76, 0
5, 28380, Note_on_c, 2, 81, 70
5, 28440, Note_on_c, 2, 81, 0
5, 28440, Note_on_c, 2, 78, 70
5, 28500, Note_on_c, 2, 78, 0
5, 28500, Note_on_c, 2, 75, 70
5, 28535, Note_on_c, 2, 75, 0
5, 28560, Note_on_c, 2, 71, 70
5, 28595, Note_on_c, 2, 71, 0
5, 28620, Note_on_c, 2, 69, 70
5, 28680, Note_on_c, 2, 69, 0
5, 28680, Note_on_c, 2, 66, 70
5, 28740, Note_on_c, 2, 66, 0
5, 28740, Note_on_c, 2, 63, 70
5, 28800, Note_on_c, 2, 63, 0
5, 28800, Note_on_c, 2, 59, 70
5, 28920, Note_on_c, 2, 59, 0
5, 28920, Note_on_c, 2, 75, 70
5, 29040, Note_on_c, 2, 75, 0
5, 29160, Note_on_c, 2, 76, 70
5, 29280, Note_on_c, 2, 76, 0
5, 29400, Note_on_c, 2, 71, 70
5, 29520, Note_on_c, 2, 71, 0
5, 29640, Note_on_c, 2, 69, 60
5, 29760, Note_on_c, 2, 69, 0
5, 29760, Note_on_c, 2, 67, 57
5, 29880, Note_on_c, 2, 67, 0
5, 30000, Note_on_c, 2, 67, 50
5, 30120, Note_on_c, 2, 67, 0
5, 30180, Note_on_c, 2, 67, 50
5, 30215, Note_on_c, 2, 67, 0
5, 30240, Note_on_c, 2, 69, 50
5, 30275, Note_on_c, 2, 69, 0
5, 30300, Note_on_c, 2, 67, 50
5, 30335, Note_on_c, 2, 67, 0
5, 30480, Note_on_c, 2, 69, 50
5, 30540, Note_on_c, 2, 69, 0
5, 30540, Note_on_c, 2, 71, 50
5, 30600, Note_on_c, 2, 71, 0
5, 30600, Note_on_c, 2, 72, 50
5, 30780, Note_on_c, 2, 72, 0
5, 30780, Note_on_c, 2, 71, 50
5, 30810, Note_on_c, 2, 71, 0
5, 30810, Note_on_c, 2, 72, 50
5, 30840, Note_on_c, 2, 72, 0
5, 30840, Note_on_c, 2, 74, 50
5, 30870, Note_on_c, 2, 74, 0
5, 30870, Note_on_c, 2, 71, 50
5, 30900, Note_on_c, 2, 71, 0
5, 30900, Note_on_c, 2, 67, 50
5, 30930, Note_on_c, 2, 67, 0
5, 30930, Note_on_c, 2, 71, 50
5, 30960, Note_on_c, 2, 71, 0
5, 30960, Note_on_c, 2, 69, 50
5, 30995, Note_on_c, 2, 69, 0
5, 31020, Note_on_c, 2, 62, 50
5, 31080, Note_on_c, 2, 62, 0
5, 31080, Note_on_c, 2, 74, 50
5, 31260, Note_on_c, 2, 74, 0
5, 31260, Note_on_c, 2, 72, 50
5, 31290, Note_on_c, 2, 72, 0
5, 31290, Note_on_c, 2, 74, 50
5, 31320, Note_on_c, 2, 74, 0
5, 31320, Note_on_c, 2, 76, 50
5, 31350, Note_on_c, 2, 76, 0
5, 31350, Note_on_c, 2, 72, 50
5, 31380, Note_on_c, 2, 72, 0
5, 31380, Note_on_c, 2, 69, 50
5, 31410, Note_on_c, 2, 69, 0
5, 31410, Note_on_c, 2, 72, 50
5, 31440, Note_on_c, 2, 72, 0
5, 31440, Note_on_c, 2, 71, 50
5, 31500, Note_on_c, 2, 71, 0
5, 31500, Note_on_c, 2, 64, 50
5, 31560, Note_on_c, 2, 64, 0
5, 31560, Note_on_c, 2, 76, 50
5, 31710, Note_on_c, 2, 76, 0
5, 31710, Note_on_c, 2, 74, 50
5, 31728, Note_on_c, 2, 74, 0
5, 31740, Note_on_c, 2, 72, 50
5, 31758, Note_on_c, 2, 72, 0
5, 31770, Note_on_c, 2, 71, 50
5, 31788, Note_on_c, 2, 71, 0
5, 31800, Note_on_c, 2, 69, 50
5, 31818, Note_on_c, 2, 69, 0
5, 31830, Note_on_c, 2, 67, 50
5, 31848, Note_on_c, 2, 67, 0
5, 31860, Note_on_c, 2, 66, 50
5, 31878, Note_on_c, 2, 66, 0
5, 31890, Note_on_c, 2, 64, 50
5, 31908, Note_on_c, 2, 64, 0
5, 31920, Note_on_c, 2, 62, 50
5, 32040, Note_on_c, 2, 62, 0
5, 32100, Note_on_c, 2, 74, 50
5, 32190, Note_on_c, 2, 74, 0
5, 32190, Note_on_c, 2, 77, 50
5, 32220, Note_on_c, 2, 77, 0
5, 32220, Note_on_c, 2, 76, 50
5, 32250, Note_on_c, 2, 76, 0
5, 32250, Note_on_c, 2, 74, 50
5, 32280, Note_on_c, 2, 74, 0
5, 32280, Note_on_c, 2, 72, 50
5, 32310, Note_on_c, 2, 72, 0
5, 32310, Note_on_c, 2, 71, 50
5, 32340, Note_on_c, 2, 71, 0
5, 32340, Note_on_c, 2, 69, 50
5, 32370, Note_on_c, 2, 69, 0
5, 32370, Note_on_c, 2, 71, 50
5, 32400, Note_on_c, 2, 71, 0
5, 32400, Note_on_c, 2, 72, 50
5, 32520, Note_on_c, 2, 72, 0
5, 32580, Note_on_c, 2, 74, 50
5, 32640, Note_on_c, 2, 74, 0
5, 32640, Note_on_c, 2, 76, 50
5, 32670, Note_on_c, 2, 76, 0
5, 32670, Note_on_c, 2, 72, 50
5, 32700, Note_on_c, 2, 72, 0
5, 32700, Note_on_c, 2, 71, 50
5, 32730, Note_on_c, 2, 71, 0
5, 32730, Note_on_c, 2, 69, 50
5, 32760, Note_on_c, 2, 69, 0
5, 32760, Note_on_c, 2, 78, 50
5, 32850, Note_on_c, 2, 78, 0
5, 32850, Note_on_c, 2, 79, 50
5, 32880, Note_on_c, 2, 79, 0
5, 32880, Note_on_c, 2, 79, 50
5, 33000, Note_on_c, 2, 79, 0
5, 33360, Note_on_c, 2, 79, 75
5, 33480, Note_on_c, 2, 79, 0
5, 33540, Note_on_c, 2, 79, 75
5, 33575, Note_on_c, 2, 79, 0
5, 33600, Note_on_c, 2, 80, 75
5, 33660, Note_on_c, 2, 80, 0
5, 33660, Note_on_c, 2, 79, 75
5, 33695, Note_on_c, 2, 79, 0
5, 33840, Note_on_c, 2, 77, 75
5, 33960, Note_on_c, 2, 77, 0
5, 34020, Note_on_c, 2, 77, 75
5, 34055, Note_on_c, 2, 77, 0
5, 34080, Note_on_c, 2, 77, 75
5, 34110, Note_on_c, 2, 77, 0
5, 34110, Note_on_c, 2, 75, 75
5, 34140, Note_on_c, 2, 75, 0
5, 34140, Note_on_c, 2, 77, 75
5, 34175, Note_on_c, 2, 77, 0
5, 34260, Note_on_c, 2, 79, 75
5, 34290, Note_on_c, 2, 79, 0
5, 34290, Note_on_c, 2, 77, 75
5, 34320, Note_on_c, 2, 77, 0
5, 34320, Note_on_c, 2, 75, 75
5, 34380, Note_on_c, 2, 75, 0
5, 34380, Note_on_c, 2, 74, 75
5, 34415, Note_on_c, 2, 74, 0
5, 34440, Note_on_c, 2, 72, 75
5, 34500, Note_on_c, 2, 72, 0
5, 34500, Note_on_c, 2, 70, 75
5, 34535, Note_on_c, 2, 70, 0
5, 34560, Note_on_c, 2, 69, 75
5, 34680, Note_on_c, 2, 69, 0
5, 34680, Note_on_c, 2, 78, 75
5, 34800, Note_on_c, 2, 78, 0
5, 34920, Note_on_c, 2, 79, 75
5, 35040, Note_on_c, 2, 79, 0
5, 35100, Note_on_c, 2, 84, 75
5, 35160, Note_on_c, 2, 84, 0
5, 35160, Note_on_c, 2, 81, 75
5, 35220, Note_on_c, 2, 81, 0
5, 35220, Note_on_c, 2, 78, 75
5, 35255, Note_on_c, 2, 78, 0
5, 35280, Note_on_c, 2, 74, 75
5, 35315, Note_on_c, 2, 74, 0
5, 35340, Note_on_c, 2, 72, 75
5, 35400, Note_on_c, 2, 72, 0
5, 35400, Note_on_c, 2, 69, 75
5, 35460, Note_on_c, 2, 69, 0
5, 35460, Note_on_c, 2, 66, 75
5, 35520, Note_on_c, 2, 66, 0
5, 35520, Note_on_c, 2, 62, 75
5, 35640, Note_on_c, 2, 62, 0
5, 35640, Note_on_c, 2, 78, 75
5, 35760, Note_on_c, 2, 78, 0
5, 35880, Note_on_c, 2, 79, 75
5, 36000, Note_on_c, 2, 79, 0
5, 36600, Note_on_c, 2, 77, 64
5, 36720, Note_on_c, 2, 77, 0
5, 36780, Note_on_c, 2, 81, 64
5, 36840, Note_on_c, 2, 81, 0
5, 36840, Note_on_c, 2, 79, 64
5, 36900, Note_on_c, 2, 79, 0
5, 36900, Note_on_c, 2, 77, 64
5, 36960, Note_on_c, 2, 77, 0
5, 36960, Note_on_c, 2, 76, 64
5, 36995, Note_on_c, 2, 76, 0
5, 37020, Note_on_c, 2, 78, 64
5, 37055, Note_on_c, 2, 78, 0
5, 37080, Note_on_c, 2, 79, 64
5, 37200, Note_on_c, 2, 79, 0
5, 37260, Note_on_c, 2, 83, 64
5, 37320, Note_on_c, 2, 83, 0
5, 37320, Note_on_c, 2, 81, 64
5, 37380, Note_on_c, 2, 81, 0
5, 37380, Note_on_c, 2, 79, 64
5, 37440, Note_on_c, 2, 79, 0
5, 37440, Note_on_c, 2, 78, 64
5, 37475, Note_on_c, 2, 78, 0
5, 37500, Note_on_c, 2, 81, 64
5, 37535, Note_on_c, 2, 81, 0
5, 37560, Note_on_c, 2, 72, 64
5, 37715, Note_on_c, 2, 72, 0
5, 37740, Note_on_c, 2, 76, 64
5, 37800, Note_on_c, 2, 76, 0
5, 37800, Note_on_c, 2, 74, 64
5, 37860, Note_on_c, 2, 74, 0
5, 37860, Note_on_c, 2, 72, 64
5, 37920, Note_on_c, 2, 72, 0
5, 37920, Note_on_c, 2, 71, 64
5, 38010, Note_on_c, 2, 71, 0
5, 38010, Note_on_c, 2, 69, 64
5, 38040, Note_on_c, 2, 69, 0
5, 38040, Note_on_c, 2, 69, 64
5, 38130, Note_on_c, 2, 69, 0
5, 38130, Note_on_c, 2, 67, 64
5, 38160, Note_on_c, 2, 67, 0
5, 38160, Note_on_c, 2, 67, 64
5, 38280, Note_on_c, 2, 67, 0
5, 38640, End_track
6, 0, Start_track
6, 0, MIDI_port, 0
6, 0, Title_t, "Violin II"
6, 0, Program_c, 3, 48
6, 0, Control_c, 3, 7, 100
6, 0, Control_c, 3, 91, 127
6, 360, Note_on_c, 3, 67, 50
6, 480, Note_on_c, 3, 67, 0
6, 540, Note_on_c, 3, 67, 50
6, 575, Note_on_c, 3, 67, 0
6, 600, Note_on_c, 3, 69, 50
6, 660, Note_on_c, 3, 69, 0
6, 660, Note_on_c, 3, 67, 50
6, 695, Note_on_c, 3, 67, 0
6, 840, Note_on_c, 3, 64, 50
6, 900, Note_on_c, 3, 64, 0
6, 900, Note_on_c, 3, 66, 50
6, 960, Note_on_c, 3, 66, 0
6, 960, Note_on_c, 3, 67, 50
6, 1260, Note_on_c, 3, 67, 0
6, 1260, Note_on_c, 3, 66, 50
6, 1290, Note_on_c, 3, 66, 0
6, 1290, Note_on_c, 3, 64, 50
6, 1320, Note_on_c, 3, 64, 0
6, 1320, Note_on_c, 3, 66, 50
6, 1500, Note_on_c, 3, 66, 0
6, 1500, Note_on_c, 3, 64, 50
6, 1530, Note_on_c, 3, 64, 0
6, 1530, Note_on_c, 3, 66, 50
6, 1560, Note_on_c, 3, 66, 0
6, 1560, Note_on_c, 3, 67, 50
6, 1590, Note_on_c, 3, 67, 0
6, 1590, Note_on_c, 3, 64, 50
6, 1620, Note_on_c, 3, 64, 0
6, 1620, Note_on_c, 3, 59, 50
6, 1650, Note_on_c, 3, 59, 0
6, 1650, Note_on_c, 3, 62, 50
6, 1680, Note_on_c, 3, 62, 0
6, 1680, Note_on_c, 3, 61, 50
6, 1710, Note_on_c, 3, 61, 0
6, 1710, Note_on_c, 3, 59, 50
6, 1740, Note_on_c, 3, 59, 0
6, 1740, Note_on_c, 3, 61, 50
6, 1770, Note_on_c, 3, 61, 0
6, 1770, Note_on_c, 3, 62, 50
6, 1800, Note_on_c, 3, 62, 0
6, 1800, Note_on_c, 3, 64, 50
6, 1830, Note_on_c, 3, 64, 0
6, 1830, Note_on_c, 3, 61, 50
6, 1860, Note_on_c, 3, 61, 0
6, 1860, Note_on_c, 3, 57, 50
6, 1890, Note_on_c, 3, 57, 0
6, 1890, Note_on_c, 3, 61, 50
6, 1920, Note_on_c, 3, 61, 0
6, 1920, Note_on_c, 3, 62, 50
6, 2010, Note_on_c, 3, 62, 0
6, 2010, Note_on_c, 3, 64, 50
6, 2040, Note_on_c, 3, 64, 0
6, 2040, Note_on_c, 3, 61, 50
6, 2130, Note_on_c, 3, 61, 0
6, 2130, Note_on_c, 3, 62, 50
6, 2160, Note_on_c, 3, 62, 0
6, 2160, Note_on_c, 3, 62, 64
6, 2280, Note_on_c, 3, 62, 0
6, 2340, Note_on_c, 3, 62, 64
6, 2375, Note_on_c, 3, 62, 0
6, 2400, Note_on_c, 3, 64, 64
6, 2435, Note_on_c, 3, 64, 0
6, 2460, Note_on_c, 3, 62, 64
6, 2495, Note_on_c, 3, 62, 0
6, 2640, Note_on_c, 3, 64, 64
6, 2700, Note_on_c, 3, 64, 0
6, 2700, Note_on_c, 3, 66, 64
6, 2760, Note_on_c, 3, 66, 0
6, 2760, Note_on_c, 3, 67, 64
6, 2940, Note_on_c, 3, 67, 0
6, 2940, Note_on_c, 3, 66, 64
6, 2970, Note_on_c, 3, 66, 0
6, 2970, Note_on_c, 3, 67, 64
6, 3000, Note_on_c, 3, 67, 0
6, 3000, Note_on_c, 3, 69, 64
6, 3030, Note_on_c, 3, 69, 0
6, 3030, Note_on_c, 3, 66, 64
6, 3060, Note_on_c, 3, 66, 0
6, 3060, Note_on_c, 3, 62, 64
6, 3090, Note_on_c, 3, 62, 0
6, 3090, Note_on_c, 3, 66, 64
6, 3120, Note_on_c, 3, 66, 0
6, 3120, Note_on_c, 3, 64, 64
6, 3155, Note_on_c, 3, 64, 0
6, 3180, Note_on_c, 3, 57, 64
6, 3240, Note_on_c, 3, 57, 0
6, 3240, Note_on_c, 3, 69, 64
6, 3420, Note_on_c, 3, 69, 0
6, 3420, Note_on_c, 3, 67, 64
6, 3480, Note_on_c, 3, 67, 0
6, 3480, Note_on_c, 3, 72, 64
6, 3635, Note_on_c, 3, 72, 0
6, 3660, Note_on_c, 3, 76, 64
6, 3695, Note_on_c, 3, 76, 0
6, 3720, Note_on_c, 3, 74, 64
6, 3755, Note_on_c, 3, 74, 0
6, 3780, Note_on_c, 3, 72, 64
6, 3815, Note_on_c, 3, 72, 0
6, 3840, Note_on_c, 3, 71, 64
6, 3930, Note_on_c, 3, 71, 0
6, 3930, Note_on_c, 3, 69, 64
6, 3960, Note_on_c, 3, 69, 0
6, 3960, Note_on_c, 3, 69, 64
6, 4050, Note_on_c, 3, 69, 0
6, 4050, Note_on_c, 3, 67, 64
6, 4080, Note_on_c, 3, 67, 0
6, 4080, Note_on_c, 3, 67, 64
6, 4200, Note_on_c, 3, 67, 0
6, 4980, Note_on_c, 3, 74, 40
6, 5015, Note_on_c, 3, 74, 0
6, 5040, Note_on_c, 3, 62, 40
6, 5075, Note_on_c, 3, 62, 0
6, 5100, Note_on_c, 3, 69, 40
6, 5135, Note_on_c, 3, 69, 0
6, 5220, Note_on_c, 3, 69, 40
6, 5255, Note_on_c, 3, 69, 0
6, 5280, Note_on_c, 3, 57, 40
6, 5315, Note_on_c, 3, 57, 0
6, 5340, Note_on_c, 3, 64, 40
6, 5375, Note_on_c, 3, 64, 0
6, 5460, Note_on_c, 3, 76, 40
6, 5495, Note_on_c, 3, 76, 0
6, 5520, Note_on_c, 3, 64, 40
6, 5555, Note_on_c, 3, 64, 0
6, 5580, Note_on_c, 3, 71, 40
6, 5615, Note_on_c, 3, 71, 0
6, 5700, Note_on_c, 3, 71, 40
6, 5735, Note_on_c, 3, 71, 0
6, 5760, Note_on_c, 3, 59, 40
6, 5795, Note_on_c, 3, 59, 0
6, 5820, Note_on_c, 3, 66, 40
6, 5855, Note_on_c, 3, 66, 0
6, 5940, Note_on_c, 3, 66, 40
6, 5975, Note_on_c, 3, 66, 0
6, 6000, Note_on_c, 3, 67, 40
6, 6035, Note_on_c, 3, 67, 0
6, 6060, Note_on_c, 3, 64, 40
6, 6095, Note_on_c, 3, 64, 0
6, 6300, Note_on_c, 3, 62, 40
6, 6335, Note_on_c, 3, 62, 0
6, 6360, Note_on_c, 3, 67, 40
6, 6395, Note_on_c, 3, 67, 0
6, 6420, Note_on_c, 3, 71, 40
6, 6455, Note_on_c, 3, 71, 0
6, 6480, Note_on_c, 3, 69, 50
6, 6600, Note_on_c, 3, 69, 0
6, 6600, Note_on_c, 3, 74, 50
6, 6720, Note_on_c, 3, 74, 0
6, 6780, Note_on_c, 3, 74, 50
6, 6815, Note_on_c, 3, 74, 0
6, 6840, Note_on_c, 3, 76, 50
6, 6900, Note_on_c, 3, 76, 0
6, 6900, Note_on_c, 3, 74, 50
6, 6935, Note_on_c, 3, 74, 0
6, 7080, Note_on_c, 3, 71, 50
6, 7140, Note_on_c, 3, 71, 0
6, 7140, Note_on_c, 3, 73, 50
6, 7200, Note_on_c, 3, 73, 0
6, 7200, Note_on_c, 3, 74, 50
6, 7475, Note_on_c, 3, 74, 0
6, 7500, Note_on_c, 3, 73, 50
6, 7530, Note_on_c, 3, 73, 0
6, 7530, Note_on_c, 3, 71, 50
6, 7560, Note_on_c, 3, 71, 0
6, 7560, Note_on_c, 3, 73, 50
6, 7595, Note_on_c, 3, 73, 0
6, 7620, Note_on_c, 3, 76, 50
6, 7655, Note_on_c, 3, 76, 0
6, 7680, Note_on_c, 3, 71, 50
6, 7715, Note_on_c, 3, 71, 0
6, 7740, Note_on_c, 3, 76, 50
6, 7775, Note_on_c, 3, 76, 0
6, 7800, Note_on_c, 3, 69, 50
6, 7835, Note_on_c, 3, 69, 0
6, 7860, Note_on_c, 3, 73, 50
6, 7895, Note_on_c, 3, 73, 0
6, 7920, Note_on_c, 3, 62, 40
6, 8040, Note_on_c, 3, 62, 0
6, 8175, Program_c, 3, 40
6, 8430, Note_on_c, 3, 73, 40
6, 8460, Note_on_c, 3, 73, 0
6, 8460, Note_on_c, 3, 74, 40
6, 8490, Note_on_c, 3, 74, 0
6, 8490, Note_on_c, 3, 76, 40
6, 8520, Note_on_c, 3, 76, 0
6, 8520, Note_on_c, 3, 78, 40
6, 8550, Note_on_c, 3, 78, 0
6, 8550, Note_on_c, 3, 74, 40
6, 8580, Note_on_c, 3, 74, 0
6, 8580, Note_on_c, 3, 71, 40
6, 8610, Note_on_c, 3, 71, 0
6, 8610, Note_on_c, 3, 74, 40
6, 8640, Note_on_c, 3, 74, 0
6, 8640, Note_on_c, 3, 73, 40
6, 8675, Note_on_c, 3, 73, 0
6, 8700, Note_on_c, 3, 74, 40
6, 8730, Note_on_c, 3, 74, 0
6, 8730, Note_on_c, 3, 76, 40
6, 8760, Note_on_c, 3, 76, 0
6, 8760, Note_on_c, 3, 78, 40
6, 8790, Note_on_c, 3, 78, 0
6, 8790, Note_on_c, 3, 74, 40
6, 8820, Note_on_c, 3, 74, 0
6, 8820, Note_on_c, 3, 69, 40
6, 8850, Note_on_c, 3, 69, 0
6, 8850, Note_on_c, 3, 72, 40
6, 8880, Note_on_c, 3, 72, 0
6, 8880, Note_on_c, 3, 71, 40
6, 8915, Note_on_c, 3, 71, 0
6, 9150, Note_on_c, 3, 76, 40
6, 9180, Note_on_c, 3, 76, 0
6, 9180, Note_on_c, 3, 74, 40
6, 9210, Note_on_c, 3, 74, 0
6, 9210, Note_on_c, 3, 72, 40
6, 9240, Note_on_c, 3, 72, 0
6, 9240, Note_on_c, 3, 71, 40
6, 9270, Note_on_c, 3, 71, 0
6, 9270, Note_on_c, 3, 74, 40
6, 9300, Note_on_c, 3, 74, 0
6, 9300, Note_on_c, 3, 78, 40
6, 9330, Note_on_c, 3, 78, 0
6, 9330, Note_on_c, 3, 69, 40
6, 9360, Note_on_c, 3, 69, 0
6, 9360, Note_on_c, 3, 75, 40
6, 9390, Note_on_c, 3, 75, 0
6, 9390, Note_on_c, 3, 76, 40
6, 9420, Note_on_c, 3, 76, 0
6, 9420, Note_on_c, 3, 78, 40
6, 9480, Note_on_c, 3, 78, 0
6, 9630, Note_on_c, 3, 72, 40
6, 9660, Note_on_c, 3, 72, 0
6, 9660, Note_on_c, 3, 71, 40
6, 9690, Note_on_c, 3, 71, 0
6, 9690, Note_on_c, 3, 69, 40
6, 9720, Note_on_c, 3, 69, 0
6, 9720, Note_on_c, 3, 67, 40
6, 9750, Note_on_c, 3, 67, 0
6, 9750, Note_on_c, 3, 71, 40
6, 9780, Note_on_c, 3, 71, 0
6, 9780, Note_on_c, 3, 76, 40
6, 9810, Note_on_c, 3, 76, 0
6, 9810, Note_on_c, 3, 67, 40
6, 9840, Note_on_c, 3, 67, 0
6, 9840, Note_on_c, 3, 66, 40
6, 9870, Note_on_c, 3, 66, 0
6, 9870, Note_on_c, 3, 69, 40
6, 9900, Note_on_c, 3, 69, 0
6, 9900, Note_on_c, 3, 74, 40
6, 9960, Note_on_c, 3, 74, 0
6, 10200, Note_on_c, 3, 72, 40
6, 10350, Note_on_c, 3, 72, 0
6, 10350, Note_on_c, 3, 67, 40
6, 10368, Note_on_c, 3, 67, 0
6, 10380, Note_on_c, 3, 66, 40
6, 10398, Note_on_c, 3, 66, 0
6, 10410, Note_on_c, 3, 64, 40
6, 10428, Note_on_c, 3, 64, 0
6, 10440, Note_on_c, 3, 62, 40
6, 10458, Note_on_c, 3, 62, 0
6, 10470, Note_on_c, 3, 60, 40
6, 10488, Note_on_c, 3, 60, 0
6, 10500, Note_on_c, 3, 59, 40
6, 10518, Note_on_c, 3, 59, 0
6, 10530, Note_on_c, 3, 57, 40
6, 10548, Note_on_c, 3, 57, 0
6, 10560, Note_on_c, 3, 55, 40
6, 10680, Note_on_c, 3, 55, 0
6, 10800, Program_c, 3, 48
6, 10920, Note_on_c, 3, 67, 40
6, 11075, Note_on_c, 3, 67, 0
6, 11100, Note_on_c, 3, 66, 40
6, 11130, Note_on_c, 3, 66, 0
6, 11130, Note_on_c, 3, 64, 40
6, 11160, Note_on_c, 3, 64, 0
6, 11160, Note_on_c, 3, 66, 40
6, 11195, Note_on_c, 3, 66, 0
6, 11220, Note_on_c, 3, 67, 40
6, 11250, Note_on_c, 3, 67, 0
6, 11250, Note_on_c, 3, 69, 40
6, 11280, Note_on_c, 3, 69, 0
6, 11280, Note_on_c, 3, 71, 40
6, 11580, Note_on_c, 3, 71, 0
6, 11580, Note_on_c, 3, 69, 40
6, 11610, Note_on_c, 3, 69, 0
6, 11610, Note_on_c, 3, 67, 40
6, 11640, Note_on_c, 3, 67, 0
6, 11640, Note_on_c, 3, 69, 40
6, 11795, Note_on_c, 3, 69, 0
6, 11820, Note_on_c, 3, 71, 40
6, 11850, Note_on_c, 3, 71, 0
6, 11850, Note_on_c, 3, 69, 40
6, 11880, Note_on_c, 3, 69, 0
6, 11880, Note_on_c, 3, 67, 40
6, 12030, Note_on_c, 3, 67, 0
6, 12030, Note_on_c, 3, 73, 40
6, 12060, Note_on_c, 3, 73, 0
6, 12060, Note_on_c, 3, 74, 40
6, 12090, Note_on_c, 3, 74, 0
6, 12090, Note_on_c, 3, 76, 40
6, 12120, Note_on_c, 3, 76, 0
6, 12120, Note_on_c, 3, 78, 40
6, 12150, Note_on_c, 3, 78, 0
6, 12150, Note_on_c, 3, 74, 40
6, 12180, Note_on_c, 3, 74, 0
6, 12180, Note_on_c, 3, 69, 40
6, 12210, Note_on_c, 3, 69, 0
6, 12210, Note_on_c, 3, 74, 40
6, 12240, Note_on_c, 3, 74, 0
6, 12240, Note_on_c, 3, 67, 40
6, 12300, Note_on_c, 3, 67, 0
6, 13320, Note_on_c, 3, 74, 64
6, 13440, Note_on_c, 3, 74, 0
6, 13500, Note_on_c, 3, 74, 64
6, 13535, Note_on_c, 3, 74, 0
6, 13560, Note_on_c, 3, 76, 64
6, 13620, Note_on_c, 3, 76, 0
6, 13620, Note_on_c, 3, 74, 64
6, 13655, Note_on_c, 3, 74, 0
6, 13800, Note_on_c, 3, 71, 64
6, 13860, Note_on_c, 3, 71, 0
6, 13860, Note_on_c, 3, 73, 64
6, 13920, Note_on_c, 3, 73, 0
6, 13920, Note_on_c, 3, 74, 64
6, 14040, Note_on_c, 3, 74, 0
6, 14160, Note_on_c, 3, 67, 64
6, 14280, Note_on_c, 3, 67, 0
6, 14340, Note_on_c, 3, 67, 64
6, 14375, Note_on_c, 3, 67, 0
6, 14400, Note_on_c, 3, 69, 64
6, 14435, Note_on_c, 3, 69, 0
6, 14460, Note_on_c, 3, 67, 64
6, 14495, Note_on_c, 3, 67, 0
6, 14640, Note_on_c, 3, 69, 64
6, 14700, Note_on_c, 3, 69, 0
6, 14700, Note_on_c, 3, 71, 64
6, 14760, Note_on_c, 3, 71, 0
6, 14760, Note_on_c, 3, 72, 64
6, 14940, Note_on_c, 3, 72, 0
6, 14940, Note_on_c, 3, 71, 64
6, 14970, Note_on_c, 3, 71, 0
6, 14970, Note_on_c, 3, 72, 64
6, 15000, Note_on_c, 3, 72, 0
6, 15000, Note_on_c, 3, 74, 64
6, 15030, Note_on_c, 3, 74, 0
6, 15030, Note_on_c, 3, 71, 64
6, 15060, Note_on_c, 3, 71, 0
6, 15060, Note_on_c, 3, 67, 64
6, 15090, Note_on_c, 3, 67, 0
6, 15090, Note_on_c, 3, 71, 64
6, 15120, Note_on_c, 3, 71, 0
6, 15120, Note_on_c, 3, 69, 64
6, 15155, Note_on_c, 3, 69, 0
6, 15180, Note_on_c, 3, 71, 64
6, 15210, Note_on_c, 3, 71, 0
6, 15210, Note_on_c, 3, 73, 64
6, 15240, Note_on_c, 3, 73, 0
6, 15240, Note_on_c, 3, 74, 64
6, 15270, Note_on_c, 3, 74, 0
6, 15270, Note_on_c, 3, 69, 64
6, 15300, Note_on_c, 3, 69, 0
6, 15300, Note_on_c, 3, 66, 64
6, 15330, Note_on_c, 3, 66, 0
6, 15330, Note_on_c, 3, 69, 64
6, 15360, Note_on_c, 3, 69, 0
6, 15360, Note_on_c, 3, 67, 64
6, 15635, Note_on_c, 3, 67, 0
6, 15660, Note_on_c, 3, 71, 64
6, 15695, Note_on_c, 3, 71, 0
6, 15720, Note_on_c, 3, 69, 64
6, 15755, Note_on_c, 3, 69, 0
6, 15780, Note_on_c, 3, 67, 64
6, 15815, Note_on_c, 3, 67, 0
6, 15840, Note_on_c, 3, 66, 64
6, 15930, Note_on_c, 3, 66, 0
6, 15930, Note_on_c, 3, 64, 64
6, 15960, Note_on_c, 3, 64, 0
6, 15960, Note_on_c, 3, 64, 64
6, 16050, Note_on_c, 3, 64, 0
6, 16050, Note_on_c, 3, 62, 64
6, 16080, Note_on_c, 3, 62, 0
6, 16080, Note_on_c, 3, 62, 64
6, 16200, Note_on_c, 3, 62, 0
6, 16860, Note_on_c, 3, 72, 40
6, 16980, Note_on_c, 3, 72, 0
6, 16980, Note_on_c, 3, 71, 40
6, 17040, Note_on_c, 3, 71, 0
6, 17040, Note_on_c, 3, 71, 40
6, 17160, Note_on_c, 3, 71, 0
6, 18060, Note_on_c, 3, 71, 40
6, 18180, Note_on_c, 3, 71, 0
6, 18180, Note_on_c, 3, 73, 40
6, 18210, Note_on_c, 3, 73, 0
6, 18210, Note_on_c, 3, 74, 40
6, 18240, Note_on_c, 3, 74, 0
6, 18240, Note_on_c, 3, 76, 40
6, 18275, Note_on_c, 3, 76, 0
6, 18840, Note_on_c, 3, 67, 40
6, 18900, Note_on_c, 3, 67, 0
6, 18900, Note_on_c, 3, 66, 40
6, 18935, Note_on_c, 3, 66, 0
6, 18960, Note_on_c, 3, 64, 40
6, 19020, Note_on_c, 3, 64, 0
6, 19020, Note_on_c, 3, 66, 40
6, 19055, Note_on_c, 3, 66, 0
6, 19080, Note_on_c, 3, 67, 40
6, 19140, Note_on_c, 3, 67, 0
6, 19140, Note_on_c, 3, 66, 40
6, 19175, Note_on_c, 3, 66, 0
6, 19200, Note_on_c, 3, 64, 40
6, 19260, Note_on_c, 3, 64, 0
6, 19260, Note_on_c, 3, 61, 40
6, 19295, Note_on_c, 3, 61, 0
6, 19320, Note_on_c, 3, 61, 40
6, 19380, Note_on_c, 3, 61, 0
6, 19380, Note_on_c, 3, 66, 40
6, 19415, Note_on_c, 3, 66, 0
6, 19440, Note_on_c, 3, 66, 40
6, 19560, Note_on_c, 3, 66, 0
6, 20040, Note_on_c, 3, 71, 50
6, 20160, Note_on_c, 3, 71, 0
6, 20220, Note_on_c, 3, 71, 50
6, 20255, Note_on_c, 3, 71, 0
6, 20280, Note_on_c, 3, 73, 50
6, 20340, Note_on_c, 3, 73, 0
6, 20340, Note_on_c, 3, 71, 50
6, 20375, Note_on_c, 3, 71, 0
6, 20520, Note_on_c, 3, 68, 50
6, 20580, Note_on_c, 3, 68, 0
6, 20580, Note_on_c, 3, 70, 50
6, 20640, Note_on_c, 3, 70, 0
6, 20640, Note_on_c, 3, 71, 50
6, 20820, Note_on_c, 3, 71, 0
6, 20820, Note_on_c, 3, 73, 50
6, 20850, Note_on_c, 3, 73, 0
6, 20850, Note_on_c, 3, 75, 50
6, 20880, Note_on_c, 3, 75, 0
6, 20880, Note_on_c, 3, 64, 50
6, 21000, Note_on_c, 3, 64, 0
6, 21060, Note_on_c, 3, 76, 50
6, 21095, Note_on_c, 3, 76, 0
6, 21120, Note_on_c, 3, 78, 50
6, 21155, Note_on_c, 3, 78, 0
6, 21180, Note_on_c, 3, 76, 50
6, 21215, Note_on_c, 3, 76, 0
6, 21360, Note_on_c, 3, 78, 50
6, 21420, Note_on_c, 3, 78, 0
6, 21420, Note_on_c, 3, 79, 50
6, 21480, Note_on_c, 3, 79, 0
6, 21480, Note_on_c, 3, 81, 50
6, 21660, Note_on_c, 3, 81, 0
6, 21660, Note_on_c, 3, 79, 50
6, 21690, Note_on_c, 3, 79, 0
6, 21690, Note_on_c, 3, 81, 50
6, 21720, Note_on_c, 3, 81, 0
6, 21720, Note_on_c, 3, 83, 50
6, 21750, Note_on_c, 3, 83, 0
6, 21750, Note_on_c, 3, 79, 50
6, 21780, Note_on_c, 3, 79, 0
6, 21780, Note_on_c, 3, 76, 50
6, 21810, Note_on_c, 3, 76, 0
6, 21810, Note_on_c, 3, 79, 50
6, 21840, Note_on_c, 3, 79, 0
6, 21840, Note_on_c, 3, 78, 50
6, 21875, Note_on_c, 3, 78, 0
6, 21900, Note_on_c, 3, 80, 50
6, 21930, Note_on_c, 3, 80, 0
6, 21930, Note_on_c, 3, 82, 50
6, 21960, Note_on_c, 3, 82, 0
6, 21960, Note_on_c, 3, 83, 50
6, 21990, Note_on_c, 3, 83, 0
6, 21990, Note_on_c, 3, 78, 50
6, 22020, Note_on_c, 3, 78, 0
6, 22020, Note_on_c, 3, 74, 50
6, 22050, Note_on_c, 3, 74, 0
6, 22050, Note_on_c, 3, 78, 50
6, 22080, Note_on_c, 3, 78, 0
6, 22080, Note_on_c, 3, 76, 50
6, 22355, Note_on_c, 3, 76, 0
6, 22380, Note_on_c, 3, 79, 50
6, 22415, Note_on_c, 3, 79, 0
6, 22440, Note_on_c, 3, 78, 50
6, 22475, Note_on_c, 3, 78, 0
6, 22500, Note_on_c, 3, 76, 50
6, 22535, Note_on_c, 3, 76, 0
6, 22560, Note_on_c, 3, 74, 50
6, 22650, Note_on_c, 3, 74, 0
6, 22650, Note_on_c, 3, 73, 50
6, 22680, Note_on_c, 3, 73, 0
6, 22680, Note_on_c, 3, 73, 50
6, 22770, Note_on_c, 3, 73, 0
6, 22770, Note_on_c, 3, 71, 50
6, 22800, Note_on_c, 3, 71, 0
6, 22800, Note_on_c, 3, 71, 50
6, 22920, Note_on_c, 3, 71, 0
6, 23580, Note_on_c, 3, 69, 37
6, 23615, Note_on_c, 3, 69, 0
6, 23640, Note_on_c, 3, 65, 37
6, 23675, Note_on_c, 3, 65, 0
6, 23700, Note_on_c, 3, 64, 37
6, 23760, Note_on_c, 3, 64, 0
6, 23760, Note_on_c, 3, 64, 37
6, 23880, Note_on_c, 3, 64, 0
6, 24780, Note_on_c, 3, 67, 40
6, 24900, Note_on_c, 3, 67, 0
6, 24900, Note_on_c, 3, 69, 40
6, 24930, Note_on_c, 3, 69, 0
6, 24930, Note_on_c, 3, 71, 40
6, 24960, Note_on_c, 3, 71, 0
6, 24960, Note_on_c, 3, 72, 40
6, 24995, Note_on_c, 3, 72, 0
6, 25320, Note_on_c, 3, 69, 40
6, 25380, Note_on_c, 3, 69, 0
6, 25380, Note_on_c, 3, 67, 40
6, 25415, Note_on_c, 3, 67, 0
6, 25440, Note_on_c, 3, 66, 40
6, 25500, Note_on_c, 3, 66, 0
6, 25500, Note_on_c, 3, 67, 40
6, 25535, Note_on_c, 3, 67, 0
6, 25560, Note_on_c, 3, 69, 40
6, 25620, Note_on_c, 3, 69, 0
6, 25620, Note_on_c, 3, 71, 40
6, 25655, Note_on_c, 3, 71, 0
6, 25680, Note_on_c, 3, 72, 40
6, 25740, Note_on_c, 3, 72, 0
6, 25740, Note_on_c, 3, 74, 40
6, 25775, Note_on_c, 3, 74, 0
6, 25800, Note_on_c, 3, 76, 40
6, 25860, Note_on_c, 3, 76, 0
6, 25860, Note_on_c, 3, 64, 40
6, 25895, Note_on_c, 3, 64, 0
6, 25920, Note_on_c, 3, 66, 40
6, 25980, Note_on_c, 3, 66, 0
6, 25980, Note_on_c, 3, 63, 40
6, 26015, Note_on_c, 3, 63, 0
6, 26040, Note_on_c, 3, 63, 40
6, 26100, Note_on_c, 3, 63, 0
6, 26100, Note_on_c, 3, 59, 40
6, 26135, Note_on_c, 3, 59, 0
6, 26160, Note_on_c, 3, 59, 40
6, 26280, Note_on_c, 3, 59, 0
6, 26640, Note_on_c, 3, 67, 70
6, 26760, Note_on_c, 3, 67, 0
6, 26820, Note_on_c, 3, 67, 70
6, 26855, Note_on_c, 3, 67, 0
6, 26880, Note_on_c, 3, 69, 70
6, 26940, Note_on_c, 3, 69, 0
6, 26940, Note_on_c, 3, 67, 70
6, 26975, Note_on_c, 3, 67, 0
6, 27120, Note_on_c, 3, 71, 70
6, 27240, Note_on_c, 3, 71, 0
6, 27300, Note_on_c, 3, 71, 70
6, 27360, Note_on_c, 3, 71, 0
6, 27360, Note_on_c, 3, 71, 70
6, 27390, Note_on_c, 3, 71, 0
6, 27390, Note_on_c, 3, 72, 70
6, 27420, Note_on_c, 3, 72, 0
6, 27420, Note_on_c, 3, 71, 70
6, 27455, Note_on_c, 3, 71, 0
6, 27540, Note_on_c, 3, 72, 70
6, 27570, Note_on_c, 3, 72, 0
6, 27570, Note_on_c, 3, 71, 70
6, 27600, Note_on_c, 3, 71, 0
6, 27600, Note_on_c, 3, 69, 70
6, 27660, Note_on_c, 3, 69, 0
6, 27660, Note_on_c, 3, 67, 70
6, 27695, Note_on_c, 3, 67, 0
6, 27720, Note_on_c, 3, 65, 70
6, 27780, Note_on_c, 3, 65, 0
6, 27780, Note_on_c, 3, 64, 70
6, 27815, Note_on_c, 3, 64, 0
6, 27840, Note_on_c, 3, 63, 70
6, 27960, Note_on_c, 3, 63, 0
6, 27960, Note_on_c, 3, 71, 70
6, 28080, Note_on_c, 3, 71, 0
6, 28200, Note_on_c, 3, 71, 70
6, 28320, Note_on_c, 3, 71, 0
6, 28620, Note_on_c, 3, 69, 70
6, 28680, Note_on_c, 3, 69, 0
6, 28680, Note_on_c, 3, 66, 70
6, 28740, Note_on_c, 3, 66, 0
6, 28740, Note_on_c, 3, 63, 70
6, 28800, Note_on_c, 3, 63, 0
6, 28800, Note_on_c, 3, 59, 70
6, 28920, Note_on_c, 3, 59, 0
6, 28920, Note_on_c, 3, 71, 70
6, 29040, Note_on_c, 3, 71, 0
6, 29160, Note_on_c, 3, 67, 70
6, 29280, Note_on_c, 3, 67, 0
6, 29400, Note_on_c, 3, 67, 70
6, 29520, Note_on_c, 3, 67, 0
6, 29640, Note_on_c, 3, 66, 60
6, 29760, Note_on_c, 3, 66, 0
6, 29760, Note_on_c, 3, 64, 57
6, 29880, Note_on_c, 3, 64, 0
6, 30120, Note_on_c, 3, 67, 50
6, 30240, Note_on_c, 3, 67, 0
6, 30300, Note_on_c, 3, 67, 50
6, 30335, Note_on_c, 3, 67, 0
6, 30360, Note_on_c, 3, 69, 50
6, 30420, Note_on_c, 3, 69, 0
6, 30420, Note_on_c, 3, 67, 50
6, 30455, Note_on_c, 3, 67, 0
6, 30600, Note_on_c, 3, 64, 50
6, 30660, Note_on_c, 3, 64, 0
6, 30660, Note_on_c, 3, 66, 50
6, 30720, Note_on_c, 3, 66, 0
6, 30720, Note_on_c, 3, 67, 50
6, 30995, Note_on_c, 3, 67, 0
6, 31020, Note_on_c, 3, 66, 50
6, 31050, Note_on_c, 3, 66, 0
6, 31050, Note_on_c, 3, 67, 50
6, 31080, Note_on_c, 3, 67, 0
6, 31080, Note_on_c, 3, 69, 50
6, 31110, Note_on_c, 3, 69, 0
6, 31110, Note_on_c, 3, 66, 50
6, 31140, Note_on_c, 3, 66, 0
6, 31140, Note_on_c, 3, 62, 50
6, 31170, Note_on_c, 3, 62, 0
6, 31170, Note_on_c, 3, 66, 50
6, 31200, Note_on_c, 3, 66, 0
6, 31200, Note_on_c, 3, 64, 50
6, 31260, Note_on_c, 3, 64, 0
6, 31260, Note_on_c, 3, 57, 50
6, 31320, Note_on_c, 3, 57, 0
6, 31320, Note_on_c, 3, 69, 50
6, 31500, Note_on_c, 3, 69, 0
6, 31500, Note_on_c, 3, 68, 50
6, 31518, Note_on_c, 3, 68, 0
6, 31530, Note_on_c, 3, 66, 50
6, 31548, Note_on_c, 3, 66, 0
6, 31560, Note_on_c, 3, 64, 50
6, 31578, Note_on_c, 3, 64, 0
6, 31590, Note_on_c, 3, 62, 50
6, 31608, Note_on_c, 3, 62, 0
6, 31620, Note_on_c, 3, 60, 50
6, 31638, Note_on_c, 3, 60, 0
6, 31650, Note_on_c, 3, 59, 50
6, 31668, Note_on_c, 3, 59, 0
6, 31680, Note_on_c, 3, 57, 50
6, 31800, Note_on_c, 3, 57, 0
6, 31860, Note_on_c, 3, 72, 50
6, 31980, Note_on_c, 3, 72, 0
6, 31980, Note_on_c, 3, 71, 50
6, 32010, Note_on_c, 3, 71, 0
6, 32010, Note_on_c, 3, 69, 50
6, 32028, Note_on_c, 3, 69, 0
6, 32040, Note_on_c, 3, 67, 50
6, 32070, Note_on_c, 3, 67, 0
6, 32070, Note_on_c, 3, 66, 50
6, 32088, Note_on_c, 3, 66, 0
6, 32100, Note_on_c, 3, 64, 50
6, 32130, Note_on_c, 3, 64, 0
6, 32130, Note_on_c, 3, 66, 50
6, 32148, Note_on_c, 3, 66, 0
6, 32160, Note_on_c, 3, 62, 50
6, 32280, Note_on_c, 3, 62, 0
6, 32340, Note_on_c, 3, 65, 50
6, 32400, Note_on_c, 3, 65, 0
6, 32400, Note_on_c, 3, 64, 50
6, 32520, Note_on_c, 3, 64, 0
6, 32580, Note_on_c, 3, 71, 50
6, 32640, Note_on_c, 3, 71, 0
6, 32640, Note_on_c, 3, 72, 50
6, 32760, Note_on_c, 3, 72, 0
6, 32820, Note_on_c, 3, 72, 50
6, 32855, Note_on_c, 3, 72, 0
6, 32880, Note_on_c, 3, 72, 50
6, 32940, Note_on_c, 3, 72, 0
6, 32940, Note_on_c, 3, 71, 50
6, 32975, Note_on_c, 3, 71, 0
6, 33360, Note_on_c, 3, 70, 75
6, 33480, Note_on_c, 3, 70, 0
6, 33540, Note_on_c, 3, 75, 75
6, 33575, Note_on_c, 3, 75, 0
6, 33600, Note_on_c, 3, 74, 75
6, 33660, Note_on_c, 3, 74, 0
6, 33660, Note_on_c, 3, 75, 75
6, 33695, Note_on_c, 3, 75, 0
6, 33840, Note_on_c, 3, 74, 75
6, 33960, Note_on_c, 3, 74, 0
6, 34020, Note_on_c, 3, 74, 75
6, 34055, Note_on_c, 3, 74, 0
6, 34080, Note_on_c, 3, 74, 75
6, 34110, Note_on_c, 3, 74, 0
6, 34110, Note_on_c, 3, 72, 75
6, 34140, Note_on_c, 3, 72, 0
6, 34140, Note_on_c, 3, 74, 75
6, 34175, Note_on_c, 3, 74, 0
6, 34260, Note_on_c, 3, 75, 75
6, 34290, Note_on_c, 3, 75, 0
6, 34290, Note_on_c, 3, 74, 75
6, 34320, Note_on_c, 3, 74, 0
6, 34320, Note_on_c, 3, 72, 75
6, 34380, Note_on_c, 3, 72, 0
6, 34380, Note_on_c, 3, 70, 75
6, 34415, Note_on_c, 3, 70, 0
6, 34440, Note_on_c, 3, 68, 75
6, 34500, Note_on_c, 3, 68, 0
6, 34500, Note_on_c, 3, 67, 75
6, 34535, Note_on_c, 3, 67, 0
6, 34560, Note_on_c, 3, 66, 75
6, 34680, Note_on_c, 3, 66, 0
6, 34680, Note_on_c, 3, 74, 75
6, 34800, Note_on_c, 3, 74, 0
6, 34920, Note_on_c, 3, 74, 75
6, 35040, Note_on_c, 3, 74, 0
6, 35340, Note_on_c, 3, 72, 75
6, 35400, Note_on_c, 3, 72, 0
6, 35400, Note_on_c, 3, 69, 75
6, 35460, Note_on_c, 3, 69, 0
6, 35460, Note_on_c, 3, 66, 75
6, 35520, Note_on_c, 3, 66, 0
6, 35520, Note_on_c, 3, 62, 75
6, 35640, Note_on_c, 3, 62, 0
6, 35640, Note_on_c, 3, 74, 75
6, 35760, Note_on_c, 3, 74, 0
6, 35880, Note_on_c, 3, 70, 75
6, 36000, Note_on_c, 3, 70, 0
6, 36600, Note_on_c, 3, 74, 64
6, 36720, Note_on_c, 3, 74, 0
6, 36780, Note_on_c, 3, 71, 64
6, 36810, Note_on_c, 3, 71, 0
6, 36810, Note_on_c, 3, 69, 64
6, 36840, Note_on_c, 3, 69, 0
6, 36840, Note_on_c, 3, 71, 64
6, 36875, Note_on_c, 3, 71, 0
6, 36900, Note_on_c, 3, 74, 64
6, 36935, Note_on_c, 3, 74, 0
6, 36960, Note_on_c, 3, 72, 64
6, 36995, Note_on_c, 3, 72, 0
6, 37020, Note_on_c, 3, 71, 64
6, 37050, Note_on_c, 3, 71, 0
6, 37050, Note_on_c, 3, 69, 64
6, 37080, Note_on_c, 3, 69, 0
6, 37080, Note_on_c, 3, 71, 64
6, 37110, Note_on_c, 3, 71, 0
6, 37110, Note_on_c, 3, 67, 64
6, 37140, Note_on_c, 3, 67, 0
6, 37140, Note_on_c, 3, 64, 64
6, 37170, Note_on_c, 3, 64, 0
6, 37170, Note_on_c, 3, 67, 64
6, 37200, Note_on_c, 3, 67, 0
6, 37200, Note_on_c, 3, 61, 64
6, 37235, Note_on_c, 3, 61, 0
6, 37260, Note_on_c, 3, 73, 64
6, 37290, Note_on_c, 3, 73, 0
6, 37290, Note_on_c, 3, 71, 64
6, 37320, Note_on_c, 3, 71, 0
6, 37320, Note_on_c, 3, 73, 64
6, 37355, Note_on_c, 3, 73, 0
6, 37380, Note_on_c, 3, 76, 64
6, 37415, Note_on_c, 3, 76, 0
6, 37440, Note_on_c, 3, 74, 64
6, 37475, Note_on_c, 3, 74, 0
6, 37500, Note_on_c, 3, 78, 64
6, 37535, Note_on_c, 3, 78, 0
6, 37560, Note_on_c, 3, 69, 64
6, 37595, Note_on_c, 3, 69, 0
6, 37620, Note_on_c, 3, 72, 64
6, 37655, Note_on_c, 3, 72, 0
6, 37680, Note_on_c, 3, 66, 64
6, 37710, Note_on_c, 3, 66, 0
6, 37710, Note_on_c, 3, 71, 64
6, 37740, Note_on_c, 3, 71, 0
6, 37740, Note_on_c, 3, 69, 64
6, 37770, Note_on_c, 3, 69, 0
6, 37770, Note_on_c, 3, 67, 64
6, 37800, Note_on_c, 3, 67, 0
6, 37800, Note_on_c, 3, 69, 64
6, 37830, Note_on_c, 3, 69, 0
6, 37830, Note_on_c, 3, 66, 64
6, 37860, Note_on_c, 3, 66, 0
6, 37860, Note_on_c, 3, 62, 64
6, 37890, Note_on_c, 3, 62, 0
6, 37890, Note_on_c, 3, 66, 64
6, 37920, Note_on_c, 3, 66, 0
6, 37920, Note_on_c, 3, 67, 64
6, 38010, Note_on_c, 3, 67, 0
6, 38010, Note_on_c, 3, 69, 64
6, 38040, Note_on_c, 3, 69, 0
6, 38040, Note_on_c, 3, 66, 64
6, 38130, Note_on_c, 3, 66, 0
6, 38130, Note_on_c, 3, 67, 64
6, 38160, Note_on_c, 3, 67, 0
6, 38160, Note_on_c, 3, 67, 64
6, 38280, Note_on_c, 3, 67, 0
6, 38640, End_track
7, 0, Start_track
7, 0, MIDI_port, 0
7, 0, Title_t, "Viola"
7, 0, Program_c, 4, 48
7, 0, Control_c, 4, 7, 100
7, 0, Control_c, 4, 91, 127
7, 240, Note_on_c, 4, 59, 50
7, 275, Note_on_c, 4, 59, 0
7, 300, Note_on_c, 4, 60, 50
7, 335, Note_on_c, 4, 60, 0
7, 360, Note_on_c, 4, 62, 50
7, 395, Note_on_c, 4, 62, 0
7, 420, Note_on_c, 4, 59, 50
7, 455, Note_on_c, 4, 59, 0
7, 480, Note_on_c, 4, 64, 50
7, 515, Note_on_c, 4, 64, 0
7, 540, Note_on_c, 4, 62, 50
7, 575, Note_on_c, 4, 62, 0
7, 600, Note_on_c, 4, 64, 50
7, 635, Note_on_c, 4, 64, 0
7, 660, Note_on_c, 4, 62, 50
7, 695, Note_on_c, 4, 62, 0
7, 720, Note_on_c, 4, 64, 50
7, 755, Note_on_c, 4, 64, 0
7, 780, Note_on_c, 4, 62, 50
7, 815, Note_on_c, 4, 62, 0
7, 840, Note_on_c, 4, 60, 50
7, 875, Note_on_c, 4, 60, 0
7, 900, Note_on_c, 4, 62, 50
7, 935, Note_on_c, 4, 62, 0
7, 960, Note_on_c, 4, 62, 50
7, 995, Note_on_c, 4, 62, 0
7, 1020, Note_on_c, 4, 55, 50
7, 1055, Note_on_c, 4, 55, 0
7, 1080, Note_on_c, 4, 59, 50
7, 1115, Note_on_c, 4, 59, 0
7, 1140, Note_on_c, 4, 64, 50
7, 1175, Note_on_c, 4, 64, 0
7, 1260, Note_on_c, 4, 62, 50
7, 1295, Note_on_c, 4, 62, 0
7, 1320, Note_on_c, 4, 59, 50
7, 1355, Note_on_c, 4, 59, 0
7, 1380, Note_on_c, 4, 62, 50
7, 1415, Note_on_c, 4, 62, 0
7, 1500, Note_on_c, 4, 59, 50
7, 1535, Note_on_c, 4, 59, 0
7, 1560, Note_on_c, 4, 52, 50
7, 1595, Note_on_c, 4, 52, 0
7, 1620, Note_on_c, 4, 55, 50
7, 1655, Note_on_c, 4, 55, 0
7, 1740, Note_on_c, 4, 67, 50
7, 1775, Note_on_c, 4, 67, 0
7, 1800, Note_on_c, 4, 61, 50
7, 1835, Note_on_c, 4, 61, 0
7, 1860, Note_on_c, 4, 64, 50
7, 1895, Note_on_c, 4, 64, 0
7, 1920, Note_on_c, 4, 62, 50
7, 1980, Note_on_c, 4, 62, 0
7, 1980, Note_on_c, 4, 59, 50
7, 2015, Note_on_c, 4, 59, 0
7, 2040, Note_on_c, 4, 57, 50
7, 2075, Note_on_c, 4, 57, 0
7, 2100, Note_on_c, 4, 55, 50
7, 2135, Note_on_c, 4, 55, 0
7, 2160, Note_on_c, 4, 54, 64
7, 2195, Note_on_c, 4, 54, 0
7, 2220, Note_on_c, 4, 55, 64
7, 2255, Note_on_c, 4, 55, 0
7, 2280, Note_on_c, 4, 57, 64
7, 2315, Note_on_c, 4, 57, 0
7, 2340, Note_on_c, 4, 54, 64
7, 2375, Note_on_c, 4, 54, 0
7, 2400, Note_on_c, 4, 59, 64
7, 2435, Note_on_c, 4, 59, 0
7, 2460, Note_on_c, 4, 57, 64
7, 2495, Note_on_c, 4, 57, 0
7, 2520, Note_on_c, 4, 59, 64
7, 2555, Note_on_c, 4, 59, 0
7, 2580, Note_on_c, 4, 57, 64
7, 2615, Note_on_c, 4, 57, 0
7, 2640, Note_on_c, 4, 59, 64
7, 2675, Note_on_c, 4, 59, 0
7, 2700, Note_on_c, 4, 57, 64
7, 2735, Note_on_c, 4, 57, 0
7, 2760, Note_on_c, 4, 55, 64
7, 2795, Note_on_c, 4, 55, 0
7, 2820, Note_on_c, 4, 57, 64
7, 2855, Note_on_c, 4, 57, 0
7, 2880, Note_on_c, 4, 57, 64
7, 2915, Note_on_c, 4, 57, 0
7, 2940, Note_on_c, 4, 62, 64
7, 2975, Note_on_c, 4, 62, 0
7, 3000, Note_on_c, 4, 66, 64
7, 3035, Note_on_c, 4, 66, 0
7, 3060, Note_on_c, 4, 69, 64
7, 3095, Note_on_c, 4, 69, 0
7, 3180, Note_on_c, 4, 64, 64
7, 3215, Note_on_c, 4, 64, 0
7, 3240, Note_on_c, 4, 60, 64
7, 3275, Note_on_c, 4, 60, 0
7, 3300, Note_on_c, 4, 64, 64
7, 3335, Note_on_c, 4, 64, 0
7, 3420, Note_on_c, 4, 59, 64
7, 3455, Note_on_c, 4, 59, 0
7, 3480, Note_on_c, 4, 64, 64
7, 3515, Note_on_c, 4, 64, 0
7, 3540, Note_on_c, 4, 52, 64
7, 3575, Note_on_c, 4, 52, 0
7, 3660, Note_on_c, 4, 69, 64
7, 3695, Note_on_c, 4, 69, 0
7, 3720, Note_on_c, 4, 66, 64
7, 3755, Note_on_c, 4, 66, 0
7, 3780, Note_on_c, 4, 69, 64
7, 3815, Note_on_c, 4, 69, 0
7, 3840, Note_on_c, 4, 67, 64
7, 3875, Note_on_c, 4, 67, 0
7, 3900, Note_on_c, 4, 64, 64
7, 3935, Note_on_c, 4, 64, 0
7, 3960, Note_on_c, 4, 62, 64
7, 3995, Note_on_c, 4, 62, 0
7, 4020, Note_on_c, 4, 60, 64
7, 4055, Note_on_c, 4, 60, 0
7, 4080, Note_on_c, 4, 59, 64
7, 4200, Note_on_c, 4, 59, 0
7, 4860, Note_on_c, 4, 55, 40
7, 4895, Note_on_c, 4, 55, 0
7, 4920, Note_on_c, 4, 55, 40
7, 4955, Note_on_c, 4, 55, 0
7, 4980, Note_on_c, 4, 55, 40
7, 5015, Note_on_c, 4, 55, 0
7, 5100, Note_on_c, 4, 62, 40
7, 5135, Note_on_c, 4, 62, 0
7, 5160, Note_on_c, 4, 62, 40
7, 5195, Note_on_c, 4, 62, 0
7, 5220, Note_on_c, 4, 62, 40
7, 5255, Note_on_c, 4, 62, 0
7, 5340, Note_on_c, 4, 57, 40
7, 5375, Note_on_c, 4, 57, 0
7, 5400, Note_on_c, 4, 57, 40
7, 5435, Note_on_c, 4, 57, 0
7, 5460, Note_on_c, 4, 57, 40
7, 5495, Note_on_c, 4, 57, 0
7, 5580, Note_on_c, 4, 64, 40
7, 5615, Note_on_c, 4, 64, 0
7, 5640, Note_on_c, 4, 64, 40
7, 5675, Note_on_c, 4, 64, 0
7, 5700, Note_on_c, 4, 64, 40
7, 5735, Note_on_c, 4, 64, 0
7, 5820, Note_on_c, 4, 59, 40
7, 5855, Note_on_c, 4, 59, 0
7, 5880, Note_on_c, 4, 59, 40
7, 5915, Note_on_c, 4, 59, 0
7, 5940, Note_on_c, 4, 59, 40
7, 5975, Note_on_c, 4, 59, 0
7, 6060, Note_on_c, 4, 57, 40
7, 6095, Note_on_c, 4, 57, 0
7, 6120, Note_on_c, 4, 62, 40
7, 6155, Note_on_c, 4, 62, 0
7, 6420, Note_on_c, 4, 74, 40
7, 6455, Note_on_c, 4, 74, 0
7, 6480, Note_on_c, 4, 66, 50
7, 6515, Note_on_c, 4, 66, 0
7, 6540, Note_on_c, 4, 67, 50
7, 6575, Note_on_c, 4, 67, 0
7, 6600, Note_on_c, 4, 69, 50
7, 6635, Note_on_c, 4, 69, 0
7, 6660, Note_on_c, 4, 66, 50
7, 6695, Note_on_c, 4, 66, 0
7, 6720, Note_on_c, 4, 67, 50
7, 6900, Note_on_c, 4, 67, 0
7, 6900, Note_on_c, 4, 71, 50
7, 7020, Note_on_c, 4, 71, 0
7, 7020, Note_on_c, 4, 69, 50
7, 7055, Note_on_c, 4, 69, 0
7, 7080, Note_on_c, 4, 67, 50
7, 7115, Note_on_c, 4, 67, 0
7, 7140, Note_on_c, 4, 64, 50
7, 7175, Note_on_c, 4, 64, 0
7, 7200, Note_on_c, 4, 69, 50
7, 7320, Note_on_c, 4, 69, 0
7, 7380, Note_on_c, 4, 69, 50
7, 7415, Note_on_c, 4, 69, 0
7, 7440, Note_on_c, 4, 69, 50
7, 7560, Note_on_c, 4, 69, 0
7, 7620, Note_on_c, 4, 73, 50
7, 7655, Note_on_c, 4, 73, 0
7, 7680, Note_on_c, 4, 66, 50
7, 7715, Note_on_c, 4, 66, 0
7, 7740, Note_on_c, 4, 64, 50
7, 7775, Note_on_c, 4, 64, 0
7, 7800, Note_on_c, 4, 64, 50
7, 7835, Note_on_c, 4, 64, 0
7, 7860, Note_on_c, 4, 69, 50
7, 7895, Note_on_c, 4, 69, 0
7, 7920, Note_on_c, 4, 69, 40
7, 8040, Note_on_c, 4, 69, 0
7, 10740, Note_on_c, 4, 62, 40
7, 10775, Note_on_c, 4, 62, 0
7, 10800, Note_on_c, 4, 62, 40
7, 10835, Note_on_c, 4, 62, 0
7, 10860, Note_on_c, 4, 59, 40
7, 10895, Note_on_c, 4, 59, 0
7, 10980, Note_on_c, 4, 64, 40
7, 11015, Note_on_c, 4, 64, 0
7, 11040, Note_on_c, 4, 64, 40
7, 11075, Note_on_c, 4, 64, 0
7, 11100, Note_on_c, 4, 60, 40
7, 11135, Note_on_c, 4, 60, 0
7, 11220, Note_on_c, 4, 62, 40
7, 11255, Note_on_c, 4, 62, 0
7, 11280, Note_on_c, 4, 62, 40
7, 11315, Note_on_c, 4, 62, 0
7, 11340, Note_on_c, 4, 59, 40
7, 11375, Note_on_c, 4, 59, 0
7, 11460, Note_on_c, 4, 71, 40
7, 11495, Note_on_c, 4, 71, 0
7, 11520, Note_on_c, 4, 67, 40
7, 11555, Note_on_c, 4, 67, 0
7, 11580, Note_on_c, 4, 64, 40
7, 11615, Note_on_c, 4, 64, 0
7, 11700, Note_on_c, 4, 66, 40
7, 11735, Note_on_c, 4, 66, 0
7, 11760, Note_on_c, 4, 66, 40
7, 11795, Note_on_c, 4, 66, 0
7, 11820, Note_on_c, 4, 62, 40
7, 11855, Note_on_c, 4, 62, 0
7, 11940, Note_on_c, 4, 64, 40
7, 11975, Note_on_c, 4, 64, 0
7, 12000, Note_on_c, 4, 57, 40
7, 12035, Note_on_c, 4, 57, 0
7, 12060, Note_on_c, 4, 64, 40
7, 12095, Note_on_c, 4, 64, 0
7, 12510, Note_on_c, 4, 67, 40
7, 12540, Note_on_c, 4, 67, 0
7, 12540, Note_on_c, 4, 69, 40
7, 12570, Note_on_c, 4, 69, 0
7, 12570, Note_on_c, 4, 71, 40
7, 12600, Note_on_c, 4, 71, 0
7, 12600, Note_on_c, 4, 69, 40
7, 12630, Note_on_c, 4, 69, 0
7, 12630, Note_on_c, 4, 64, 40
7, 12660, Note_on_c, 4, 64, 0
7, 12660, Note_on_c, 4, 61, 40
7, 12690, Note_on_c, 4, 61, 0
7, 12690, Note_on_c, 4, 64, 40
7, 12720, Note_on_c, 4, 64, 0
7, 12720, Note_on_c, 4, 57, 40
7, 12780, Note_on_c, 4, 57, 0
7, 13200, Note_on_c, 4, 66, 64
7, 13235, Note_on_c, 4, 66, 0
7, 13260, Note_on_c, 4, 67, 64
7, 13295, Note_on_c, 4, 67, 0
7, 13320, Note_on_c, 4, 69, 64
7, 13355, Note_on_c, 4, 69, 0
7, 13380, Note_on_c, 4, 66, 64
7, 13415, Note_on_c, 4, 66, 0
7, 13440, Note_on_c, 4, 71, 64
7, 13475, Note_on_c, 4, 71, 0
7, 13500, Note_on_c, 4, 69, 64
7, 13535, Note_on_c, 4, 69, 0
7, 13560, Note_on_c, 4, 71, 64
7, 13595, Note_on_c, 4, 71, 0
7, 13620, Note_on_c, 4, 69, 64
7, 13655, Note_on_c, 4, 69, 0
7, 13680, Note_on_c, 4, 71, 64
7, 13715, Note_on_c, 4, 71, 0
7, 13740, Note_on_c, 4, 69, 64
7, 13775, Note_on_c, 4, 69, 0
7, 13800, Note_on_c, 4, 67, 64
7, 13835, Note_on_c, 4, 67, 0
7, 13860, Note_on_c, 4, 69, 64
7, 13895, Note_on_c, 4, 69, 0
7, 13920, Note_on_c, 4, 69, 64
7, 14040, Note_on_c, 4, 69, 0
7, 14100, Note_on_c, 4, 66, 64
7, 14135, Note_on_c, 4, 66, 0
7, 14160, Note_on_c, 4, 62, 64
7, 14340, Note_on_c, 4, 62, 0
7, 14340, Note_on_c, 4, 59, 64
7, 14375, Note_on_c, 4, 59, 0
7, 14400, Note_on_c, 4, 64, 64
7, 14435, Note_on_c, 4, 64, 0
7, 14460, Note_on_c, 4, 62, 64
7, 14495, Note_on_c, 4, 62, 0
7, 14520, Note_on_c, 4, 64, 64
7, 14555, Note_on_c, 4, 64, 0
7, 14580, Note_on_c, 4, 62, 64
7, 14615, Note_on_c, 4, 62, 0
7, 14640, Note_on_c, 4, 64, 64
7, 14675, Note_on_c, 4, 64, 0
7, 14700, Note_on_c, 4, 62, 64
7, 14735, Note_on_c, 4, 62, 0
7, 14760, Note_on_c, 4, 60, 64
7, 14795, Note_on_c, 4, 60, 0
7, 14820, Note_on_c, 4, 62, 64
7, 14855, Note_on_c, 4, 62, 0
7, 14880, Note_on_c, 4, 62, 64
7, 14915, Note_on_c, 4, 62, 0
7, 14940, Note_on_c, 4, 55, 64
7, 14975, Note_on_c, 4, 55, 0
7, 15000, Note_on_c, 4, 59, 64
7, 15035, Note_on_c, 4, 59, 0
7, 15060, Note_on_c, 4, 64, 64
7, 15095, Note_on_c, 4, 64, 0
7, 15180, Note_on_c, 4, 62, 64
7, 15215, Note_on_c, 4, 62, 0
7, 15240, Note_on_c, 4, 59, 64
7, 15275, Note_on_c, 4, 59, 0
7, 15300, Note_on_c, 4, 62, 64
7, 15335, Note_on_c, 4, 62, 0
7, 15420, Note_on_c, 4, 59, 64
7, 15455, Note_on_c, 4, 59, 0
7, 15480, Note_on_c, 4, 52, 64
7, 15515, Note_on_c, 4, 52, 0
7, 15540, Note_on_c, 4, 55, 64
7, 15575, Note_on_c, 4, 55, 0
7, 15660, Note_on_c, 4, 67, 64
7, 15695, Note_on_c, 4, 67, 0
7, 15720, Note_on_c, 4, 61, 64
7, 15755, Note_on_c, 4, 61, 0
7, 15780, Note_on_c, 4, 64, 64
7, 15815, Note_on_c, 4, 64, 0
7, 15840, Note_on_c, 4, 62, 64
7, 15875, Note_on_c, 4, 62, 0
7, 15900, Note_on_c, 4, 59, 64
7, 15935, Note_on_c, 4, 59, 0
7, 15960, Note_on_c, 4, 57, 64
7, 15995, Note_on_c, 4, 57, 0
7, 16020, Note_on_c, 4, 55, 64
7, 16055, Note_on_c, 4, 55, 0
7, 16080, Note_on_c, 4, 54, 64
7, 16200, Note_on_c, 4, 54, 0
7, 16860, Note_on_c, 4, 64, 40
7, 16895, Note_on_c, 4, 64, 0
7, 16920, Note_on_c, 4, 69, 40
7, 16955, Note_on_c, 4, 69, 0
7, 16980, Note_on_c, 4, 66, 40
7, 17040, Note_on_c, 4, 66, 0
7, 17040, Note_on_c, 4, 64, 40
7, 17160, Note_on_c, 4, 64, 0
7, 19920, Note_on_c, 4, 62, 50
7, 19955, Note_on_c, 4, 62, 0
7, 19980, Note_on_c, 4, 64, 50
7, 20015, Note_on_c, 4, 64, 0
7, 20040, Note_on_c, 4, 66, 50
7, 20075, Note_on_c, 4, 66, 0
7, 20100, Note_on_c, 4, 62, 50
7, 20135, Note_on_c, 4, 62, 0
7, 20160, Note_on_c, 4, 67, 50
7, 20195, Note_on_c, 4, 67, 0
7, 20220, Note_on_c, 4, 66, 50
7, 20255, Note_on_c, 4, 66, 0
7, 20280, Note_on_c, 4, 67, 50
7, 20315, Note_on_c, 4, 67, 0
7, 20340, Note_on_c, 4, 66, 50
7, 20375, Note_on_c, 4, 66, 0
7, 20400, Note_on_c, 4, 67, 50
7, 20435, Note_on_c, 4, 67, 0
7, 20460, Note_on_c, 4, 66, 50
7, 20495, Note_on_c, 4, 66, 0
7, 20520, Note_on_c, 4, 64, 50
7, 20555, Note_on_c, 4, 64, 0
7, 20580, Note_on_c, 4, 66, 50
7, 20615, Note_on_c, 4, 66, 0
7, 20640, Note_on_c, 4, 66, 50
7, 20760, Note_on_c, 4, 66, 0
7, 20880, Note_on_c, 4, 59, 50
7, 21060, Note_on_c, 4, 59, 0
7, 21060, Note_on_c, 4, 59, 50
7, 21095, Note_on_c, 4, 59, 0
7, 21120, Note_on_c, 4, 60, 50
7, 21155, Note_on_c, 4, 60, 0
7, 21180, Note_on_c, 4, 59, 50
7, 21215, Note_on_c, 4, 59, 0
7, 21240, Note_on_c, 4, 60, 50
7, 21275, Note_on_c, 4, 60, 0
7, 21300, Note_on_c, 4, 59, 50
7, 21335, Note_on_c, 4, 59, 0
7, 21360, Note_on_c, 4, 60, 50
7, 21395, Note_on_c, 4, 60, 0
7, 21420, Note_on_c, 4, 59, 50
7, 21455, Note_on_c, 4, 59, 0
7, 21480, Note_on_c, 4, 57, 50
7, 21515, Note_on_c, 4, 57, 0
7, 21540, Note_on_c, 4, 59, 50
7, 21575, Note_on_c, 4, 59, 0
7, 21600, Note_on_c, 4, 59, 50
7, 21635, Note_on_c, 4, 59, 0
7, 21660, Note_on_c, 4, 71, 50
7, 21695, Note_on_c, 4, 71, 0
7, 21720, Note_on_c, 4, 64, 50
7, 21755, Note_on_c, 4, 64, 0
7, 21780, Note_on_c, 4, 67, 50
7, 21815, Note_on_c, 4, 67, 0
7, 21900, Note_on_c, 4, 66, 50
7, 21935, Note_on_c, 4, 66, 0
7, 21960, Note_on_c, 4, 59, 50
7, 21995, Note_on_c, 4, 59, 0
7, 22020, Note_on_c, 4, 66, 50
7, 22055, Note_on_c, 4, 66, 0
7, 22140, Note_on_c, 4, 67, 50
7, 22175, Note_on_c, 4, 67, 0
7, 22200, Note_on_c, 4, 61, 50
7, 22235, Note_on_c, 4, 61, 0
7, 22260, Note_on_c, 4, 64, 50
7, 22295, Note_on_c, 4, 64, 0
7, 22380, Note_on_c, 4, 61, 50
7, 22415, Note_on_c, 4, 61, 0
7, 22440, Note_on_c, 4, 58, 50
7, 22475, Note_on_c, 4, 58, 0
7, 22500, Note_on_c, 4, 61, 50
7, 22535, Note_on_c, 4, 61, 0
7, 22560, Note_on_c, 4, 59, 50
7, 22595, Note_on_c, 4, 59, 0
7, 22620, Note_on_c, 4, 67, 50
7, 22655, Note_on_c, 4, 67, 0
7, 22680, Note_on_c, 4, 66, 50
7, 22715, Note_on_c, 4, 66, 0
7, 22740, Note_on_c, 4, 64, 50
7, 22775, Note_on_c, 4, 64, 0
7, 22800, Note_on_c, 4, 62, 50
7, 22920, Note_on_c, 4, 62, 0
7, 23580, Note_on_c, 4, 62, 37
7, 23700, Note_on_c, 4, 62, 0
7, 23700, Note_on_c, 4, 59, 37
7, 23760, Note_on_c, 4, 59, 0
7, 23760, Note_on_c, 4, 57, 37
7, 23880, Note_on_c, 4, 57, 0
7, 26700, Note_on_c, 4, 55, 70
7, 26760, Note_on_c, 4, 55, 0
7, 26760, Note_on_c, 4, 59, 70
7, 26820, Note_on_c, 4, 59, 0
7, 26820, Note_on_c, 4, 64, 70
7, 26855, Note_on_c, 4, 64, 0
7, 26880, Note_on_c, 4, 63, 70
7, 26940, Note_on_c, 4, 63, 0
7, 26940, Note_on_c, 4, 64, 70
7, 26975, Note_on_c, 4, 64, 0
7, 27000, Note_on_c, 4, 63, 70
7, 27060, Note_on_c, 4, 63, 0
7, 27060, Note_on_c, 4, 64, 70
7, 27095, Note_on_c, 4, 64, 0
7, 27120, Note_on_c, 4, 52, 70
7, 27155, Note_on_c, 4, 52, 0
7, 27180, Note_on_c, 4, 59, 70
7, 27240, Note_on_c, 4, 59, 0
7, 27240, Note_on_c, 4, 64, 70
7, 27300, Note_on_c, 4, 64, 0
7, 27300, Note_on_c, 4, 66, 70
7, 27335, Note_on_c, 4, 66, 0
7, 27360, Note_on_c, 4, 68, 70
7, 27420, Note_on_c, 4, 68, 0
7, 27420, Note_on_c, 4, 69, 70
7, 27455, Note_on_c, 4, 69, 0
7, 27480, Note_on_c, 4, 68, 70
7, 27540, Note_on_c, 4, 68, 0
7, 27540, Note_on_c, 4, 69, 70
7, 27575, Note_on_c, 4, 69, 0
7, 27600, Note_on_c, 4, 64, 70
7, 27660, Note_on_c, 4, 64, 0
7, 27660, Note_on_c, 4, 62, 70
7, 27720, Note_on_c, 4, 62, 0
7, 27720, Note_on_c, 4, 60, 70
7, 27755, Note_on_c, 4, 60, 0
7, 27960, Note_on_c, 4, 59, 70
7, 28080, Note_on_c, 4, 59, 0
7, 28200, Note_on_c, 4, 67, 70
7, 28320, Note_on_c, 4, 67, 0
7, 28620, Note_on_c, 4, 69, 70
7, 28680, Note_on_c, 4, 69, 0
7, 28680, Note_on_c, 4, 66, 70
7, 28740, Note_on_c, 4, 66, 0
7, 28740, Note_on_c, 4, 63, 70
7, 28800, Note_on_c, 4, 63, 0
7, 28800, Note_on_c, 4, 59, 70
7, 28920, Note_on_c, 4, 59, 0
7, 29160, Note_on_c, 4, 64, 70
7, 29280, Note_on_c, 4, 64, 0
7, 29400, Note_on_c, 4, 64, 70
7, 29520, Note_on_c, 4, 64, 0
7, 29640, Note_on_c, 4, 63, 60
7, 29760, Note_on_c, 4, 63, 0
7, 29760, Note_on_c, 4, 59, 57
7, 29795, Note_on_c, 4, 59, 0
7, 29820, Note_on_c, 4, 67, 55
7, 29855, Note_on_c, 4, 67, 0
7, 29880, Note_on_c, 4, 66, 53
7, 29915, Note_on_c, 4, 66, 0
7, 29940, Note_on_c, 4, 64, 52
7, 29975, Note_on_c, 4, 64, 0
7, 30000, Note_on_c, 4, 62, 50
7, 30035, Note_on_c, 4, 62, 0
7, 30060, Note_on_c, 4, 60, 50
7, 30095, Note_on_c, 4, 60, 0
7, 30120, Note_on_c, 4, 62, 50
7, 30155, Note_on_c, 4, 62, 0
7, 30180, Note_on_c, 4, 59, 50
7, 30215, Note_on_c, 4, 59, 0
7, 30240, Note_on_c, 4, 64, 50
7, 30275, Note_on_c, 4, 64, 0
7, 30300, Note_on_c, 4, 62, 50
7, 30335, Note_on_c, 4, 62, 0
7, 30360, Note_on_c, 4, 64, 50
7, 30395, Note_on_c, 4, 64, 0
7, 30420, Note_on_c, 4, 62, 50
7, 30455, Note_on_c, 4, 62, 0
7, 30480, Note_on_c, 4, 64, 50
7, 30515, Note_on_c, 4, 64, 0
7, 30540, Note_on_c, 4, 62, 50
7, 30575, Note_on_c, 4, 62, 0
7, 30600, Note_on_c, 4, 60, 50
7, 30635, Note_on_c, 4, 60, 0
7, 30660, Note_on_c, 4, 62, 50
7, 30695, Note_on_c, 4, 62, 0
7, 30720, Note_on_c, 4, 62, 50
7, 30755, Note_on_c, 4, 62, 0
7, 30780, Note_on_c, 4, 55, 50
7, 30815, Note_on_c, 4, 55, 0
7, 30840, Note_on_c, 4, 59, 50
7, 30875, Note_on_c, 4, 59, 0
7, 30900, Note_on_c, 4, 62, 50
7, 30935, Note_on_c, 4, 62, 0
7, 31020, Note_on_c, 4, 62, 50
7, 31055, Note_on_c, 4, 62, 0
7, 31080, Note_on_c, 4, 66, 50
7, 31115, Note_on_c, 4, 66, 0
7, 31140, Note_on_c, 4, 69, 50
7, 31175, Note_on_c, 4, 69, 0
7, 31260, Note_on_c, 4, 57, 50
7, 31295, Note_on_c, 4, 57, 0
7, 31320, Note_on_c, 4, 60, 50
7, 31355, Note_on_c, 4, 60, 0
7, 31380, Note_on_c, 4, 64, 50
7, 31415, Note_on_c, 4, 64, 0
7, 31500, Note_on_c, 4, 64, 50
7, 31535, Note_on_c, 4, 64, 0
7, 31560, Note_on_c, 4, 59, 50
7, 31595, Note_on_c, 4, 59, 0
7, 31620, Note_on_c, 4, 56, 50
7, 31655, Note_on_c, 4, 56, 0
7, 31740, Note_on_c, 4, 69, 50
7, 31775, Note_on_c, 4, 69, 0
7, 31800, Note_on_c, 4, 64, 50
7, 31835, Note_on_c, 4, 64, 0
7, 31860, Note_on_c, 4, 60, 50
7, 31895, Note_on_c, 4, 60, 0
7, 31980, Note_on_c, 4, 66, 50
7, 32015, Note_on_c, 4, 66, 0
7, 32040, Note_on_c, 4, 62, 50
7, 32075, Note_on_c, 4, 62, 0
7, 32100, Note_on_c, 4, 57, 50
7, 32135, Note_on_c, 4, 57, 0
7, 32220, Note_on_c, 4, 71, 50
7, 32255, Note_on_c, 4, 71, 0
7, 32280, Note_on_c, 4, 67, 50
7, 32315, Note_on_c, 4, 67, 0
7, 32340, Note_on_c, 4, 62, 50
7, 32375, Note_on_c, 4, 62, 0
7, 32400, Note_on_c, 4, 60, 50
7, 32520, Note_on_c, 4, 60, 0
7, 32580, Note_on_c, 4, 67, 50
7, 32615, Note_on_c, 4, 67, 0
7, 32640, Note_on_c, 4, 67, 50
7, 32700, Note_on_c, 4, 67, 0
7, 32700, Note_on_c, 4, 66, 50
7, 32735, Note_on_c, 4, 66, 0
7, 32820, Note_on_c, 4, 62, 50
7, 32855, Note_on_c, 4, 62, 0
7, 32880, Note_on_c, 4, 62, 50
7, 33000, Note_on_c, 4, 62, 0
7, 33360, Note_on_c, 4, 63, 75
7, 33395, Note_on_c, 4, 63, 0
7, 33420, Note_on_c, 4, 70, 75
7, 33480, Note_on_c, 4, 70, 0
7, 33480, Note_on_c, 4, 68, 75
7, 33540, Note_on_c, 4, 68, 0
7, 33540, Note_on_c, 4, 67, 75
7, 33575, Note_on_c, 4, 67, 0
7, 33600, Note_on_c, 4, 65, 75
7, 33660, Note_on_c, 4, 65, 0
7, 33660, Note_on_c, 4, 63, 75
7, 33695, Note_on_c, 4, 63, 0
7, 33840, Note_on_c, 4, 68, 75
7, 33960, Note_on_c, 4, 68, 0
7, 34020, Note_on_c, 4, 62, 75
7, 34055, Note_on_c, 4, 62, 0
7, 34080, Note_on_c, 4, 67, 75
7, 34140, Note_on_c, 4, 67, 0
7, 34140, Note_on_c, 4, 71, 75
7, 34175, Note_on_c, 4, 71, 0
7, 34260, Note_on_c, 4, 71, 75
7, 34320, Note_on_c, 4, 71, 0
7, 34320, Note_on_c, 4, 67, 75
7, 34440, Note_on_c, 4, 67, 0
7, 34560, Note_on_c, 4, 62, 75
7, 34680, Note_on_c, 4, 62, 0
7, 34680, Note_on_c, 4, 62, 75
7, 34800, Note_on_c, 4, 62, 0
7, 34920, Note_on_c, 4, 70, 75
7, 35040, Note_on_c, 4, 70, 0
7, 35340, Note_on_c, 4, 72, 75
7, 35400, Note_on_c, 4, 72, 0
7, 35400, Note_on_c, 4, 69, 75
7, 35460, Note_on_c, 4, 69, 0
7, 35460, Note_on_c, 4, 66, 75
7, 35520, Note_on_c, 4, 66, 0
7, 35520, Note_on_c, 4, 62, 75
7, 35640, Note_on_c, 4, 62, 0
7, 35640, Note_on_c, 4, 69, 75
7, 35760, Note_on_c, 4, 69, 0
7, 35880, Note_on_c, 4, 62, 75
7, 36000, Note_on_c, 4, 62, 0
7, 36600, Note_on_c, 4, 71, 64
7, 36720, Note_on_c, 4, 71, 0
7, 36780, Note_on_c, 4, 62, 64
7, 36810, Note_on_c, 4, 62, 0
7, 36810, Note_on_c, 4, 60, 64
7, 36840, Note_on_c, 4, 60, 0
7, 36840, Note_on_c, 4, 62, 64
7, 36870, Note_on_c, 4, 62, 0
7, 36870, Note_on_c, 4, 59, 64
7, 36900, Note_on_c, 4, 59, 0
7, 36900, Note_on_c, 4, 55, 64
7, 36930, Note_on_c, 4, 55, 0
7, 36930, Note_on_c, 4, 59, 64
7, 36960, Note_on_c, 4, 59, 0
7, 36960, Note_on_c, 4, 67, 64
7, 37020, Note_on_c, 4, 67, 0
7, 37080, Note_on_c, 4, 64, 64
7, 37200, Note_on_c, 4, 64, 0
7, 37260, Note_on_c, 4, 64, 64
7, 37290, Note_on_c, 4, 64, 0
7, 37290, Note_on_c, 4, 62, 64
7, 37320, Note_on_c, 4, 62, 0
7, 37320, Note_on_c, 4, 64, 64
7, 37350, Note_on_c, 4, 64, 0
7, 37350, Note_on_c, 4, 61, 64
7, 37380, Note_on_c, 4, 61, 0
7, 37380, Note_on_c, 4, 57, 64
7, 37410, Note_on_c, 4, 57, 0
7, 37410, Note_on_c, 4, 61, 64
7, 37440, Note_on_c, 4, 61, 0
7, 37440, Note_on_c, 4, 69, 64
7, 37475, Note_on_c, 4, 69, 0
7, 37500, Note_on_c, 4, 62, 64
7, 37535, Note_on_c, 4, 62, 0
7, 37560, Note_on_c, 4, 64, 64
7, 37595, Note_on_c, 4, 64, 0
7, 37620, Note_on_c, 4, 57, 64
7, 37655, Note_on_c, 4, 57, 0
7, 37680, Note_on_c, 4, 69, 64
7, 37715, Note_on_c, 4, 69, 0
7, 37740, Note_on_c, 4, 66, 64
7, 37775, Note_on_c, 4, 66, 0
7, 37800, Note_on_c, 4, 62, 64
7, 37835, Note_on_c, 4, 62, 0
7, 37860, Note_on_c, 4, 57, 64
7, 37895, Note_on_c, 4, 57, 0
7, 37920, Note_on_c, 4, 55, 64
7, 37955, Note_on_c, 4, 55, 0
7, 37980, Note_on_c, 4, 64, 64
7, 38015, Note_on_c, 4, 64, 0
7, 38040, Note_on_c, 4, 62, 64
7, 38075, Note_on_c, 4, 62, 0
7, 38100, Note_on_c, 4, 60, 64
7, 38135, Note_on_c, 4, 60, 0
7, 38160, Note_on_c, 4, 59, 64
7, 38280, Note_on_c, 4, 59, 0
7, 38640, End_track
8, 0, Start_track
8, 0, MIDI_port, 0
8, 0, Title_t, "Cello"
8, 0, Program_c, 5, 48
8, 0, Control_c, 5, 7, 100
8, 0, Control_c, 5, 91, 127
8, 240, Note_on_c, 5, 43, 50
8, 275, Note_on_c, 5, 43, 0
8, 300, Note_on_c, 5, 45, 50
8, 335, Note_on_c, 5, 45, 0
8, 360, Note_on_c, 5, 47, 50
8, 395, Note_on_c, 5, 47, 0
8, 420, Note_on_c, 5, 43, 50
8, 455, Note_on_c, 5, 43, 0
8, 480, Note_on_c, 5, 48, 50
8, 515, Note_on_c, 5, 48, 0
8, 540, Note_on_c, 5, 47, 50
8, 575, Note_on_c, 5, 47, 0
8, 600, Note_on_c, 5, 48, 50
8, 635, Note_on_c, 5, 48, 0
8, 660, Note_on_c, 5, 47, 50
8, 695, Note_on_c, 5, 47, 0
8, 720, Note_on_c, 5, 48, 50
8, 755, Note_on_c, 5, 48, 0
8, 780, Note_on_c, 5, 47, 50
8, 815, Note_on_c, 5, 47, 0
8, 840, Note_on_c, 5, 45, 50
8, 875, Note_on_c, 5, 45, 0
8, 900, Note_on_c, 5, 50, 50
8, 935, Note_on_c, 5, 50, 0
8, 960, Note_on_c, 5, 43, 50
8, 995, Note_on_c, 5, 43, 0
8, 1020, Note_on_c, 5, 55, 50
8, 1055, Note_on_c, 5, 55, 0
8, 1140, Note_on_c, 5, 52, 50
8, 1175, Note_on_c, 5, 52, 0
8, 1200, Note_on_c, 5, 49, 50
8, 1260, Note_on_c, 5, 49, 0
8, 1260, Note_on_c, 5, 50, 50
8, 1295, Note_on_c, 5, 50, 0
8, 1380, Note_on_c, 5, 47, 50
8, 1415, Note_on_c, 5, 47, 0
8, 1440, Note_on_c, 5, 52, 50
8, 1475, Note_on_c, 5, 52, 0
8, 1500, Note_on_c, 5, 55, 50
8, 1535, Note_on_c, 5, 55, 0
8, 1620, Note_on_c, 5, 52, 50
8, 1655, Note_on_c, 5, 52, 0
8, 1680, Note_on_c, 5, 57, 50
8, 1740, Note_on_c, 5, 57, 0
8, 1740, Note_on_c, 5, 45, 50
8, 1775, Note_on_c, 5, 45, 0
8, 1860, Note_on_c, 5, 57, 50
8, 1895, Note_on_c, 5, 57, 0
8, 1920, Note_on_c, 5, 59, 50
8, 1980, Note_on_c, 5, 59, 0
8, 1980, Note_on_c, 5, 55, 50
8, 2015, Note_on_c, 5, 55, 0
8, 2040, Note_on_c, 5, 57, 50
8, 2075, Note_on_c, 5, 57, 0
8, 2100, Note_on_c, 5, 45, 50
8, 2135, Note_on_c, 5, 45, 0
8, 2160, Note_on_c, 5, 50, 64
8, 2195, Note_on_c, 5, 50, 0
8, 2220, Note_on_c, 5, 52, 64
8, 2255, Note_on_c, 5, 52, 0
8, 2280, Note_on_c, 5, 54, 64
8, 2315, Note_on_c, 5, 54, 0
8, 2340, Note_on_c, 5, 50, 64
8, 2375, Note_on_c, 5, 50, 0
8, 2400, Note_on_c, 5, 55, 64
8, 2435, Note_on_c, 5, 55, 0
8, 2460, Note_on_c, 5, 54, 64
8, 2495, Note_on_c, 5, 54, 0
8, 2520, Note_on_c, 5, 55, 64
8, 2555, Note_on_c, 5, 55, 0
8, 2580, Note_on_c, 5, 54, 64
8, 2615, Note_on_c, 5, 54, 0
8, 2640, Note_on_c, 5, 55, 64
8, 2675, Note_on_c, 5, 55, 0
8, 2700, Note_on_c, 5, 54, 64
8, 2735, Note_on_c, 5, 54, 0
8, 2760, Note_on_c, 5, 52, 64
8, 2795, Note_on_c, 5, 52, 0
8, 2820, Note_on_c, 5, 45, 64
8, 2855, Note_on_c, 5, 45, 0
8, 2880, Note_on_c, 5, 50, 64
8, 2915, Note_on_c, 5, 50, 0
8, 2940, Note_on_c, 5, 38, 64
8, 2975, Note_on_c, 5, 38, 0
8, 3060, Note_on_c, 5, 54, 64
8, 3095, Note_on_c, 5, 54, 0
8, 3120, Note_on_c, 5, 57, 64
8, 3155, Note_on_c, 5, 57, 0
8, 3180, Note_on_c, 5, 45, 64
8, 3215, Note_on_c, 5, 45, 0
8, 3300, Note_on_c, 5, 48, 64
8, 3335, Note_on_c, 5, 48, 0
8, 3360, Note_on_c, 5, 52, 64
8, 3395, Note_on_c, 5, 52, 0
8, 3420, Note_on_c, 5, 40, 64
8, 3455, Note_on_c, 5, 40, 0
8, 3540, Note_on_c, 5, 45, 64
8, 3575, Note_on_c, 5, 45, 0
8, 3600, Note_on_c, 5, 50, 64
8, 3635, Note_on_c, 5, 50, 0
8, 3660, Note_on_c, 5, 38, 64
8, 3695, Note_on_c, 5, 38, 0
8, 3780, Note_on_c, 5, 50, 64
8, 3815, Note_on_c, 5, 50, 0
8, 3840, Note_on_c, 5, 52, 64
8, 3875, Note_on_c, 5, 52, 0
8, 3900, Note_on_c, 5, 48, 64
8, 3935, Note_on_c, 5, 48, 0
8, 3960, Note_on_c, 5, 50, 64
8, 3995, Note_on_c, 5, 50, 0
8, 4020, Note_on_c, 5, 38, 64
8, 4055, Note_on_c, 5, 38, 0
8, 4080, Note_on_c, 5, 43, 50
8, 4115, Note_on_c, 5, 43, 0
8, 4140, Note_on_c, 5, 45, 50
8, 4175, Note_on_c, 5, 45, 0
8, 4200, Note_on_c, 5, 47, 50
8, 4235, Note_on_c, 5, 47, 0
8, 4260, Note_on_c, 5, 43, 50
8, 4295, Note_on_c, 5, 43, 0
8, 4320, Note_on_c, 5, 48, 50
8, 4355, Note_on_c, 5, 48, 0
8, 4380, Note_on_c, 5, 47, 50
8, 4415, Note_on_c, 5, 47, 0
8, 4440, Note_on_c, 5, 48, 50
8, 4475, Note_on_c, 5, 48, 0
8, 4500, Note_on_c, 5, 47, 50
8, 4535, Note_on_c, 5, 47, 0
8, 4560, Note_on_c, 5, 48, 50
8, 4595, Note_on_c, 5, 48, 0
8, 4620, Note_on_c, 5, 47, 50
8, 4655, Note_on_c, 5, 47, 0
8, 4680, Note_on_c, 5, 45, 50
8, 4715, Note_on_c, 5, 45, 0
8, 4740, Note_on_c, 5, 50, 50
8, 4775, Note_on_c, 5, 50, 0
8, 4800, Note_on_c, 5, 43, 50
8, 4920, Note_on_c, 5, 43, 0
8, 5040, Note_on_c, 5, 50, 50
8, 5160, Note_on_c, 5, 50, 0
8, 5280, Note_on_c, 5, 45, 50
8, 5400, Note_on_c, 5, 45, 0
8, 5520, Note_on_c, 5, 52, 40
8, 5640, Note_on_c, 5, 52, 0
8, 5760, Note_on_c, 5, 47, 40
8, 5880, Note_on_c, 5, 47, 0
8, 6000, Note_on_c, 5, 52, 40
8, 6035, Note_on_c, 5, 52, 0
8, 6060, Note_on_c, 5, 57, 40
8, 6095, Note_on_c, 5, 57, 0
8, 6120, Note_on_c, 5, 54, 40
8, 6155, Note_on_c, 5, 54, 0
8, 6180, Note_on_c, 5, 50, 40
8, 6215, Note_on_c, 5, 50, 0
8, 6240, Note_on_c, 5, 55, 40
8, 6360, Note_on_c, 5, 55, 0
8, 6420, Note_on_c, 5, 43, 40
8, 6455, Note_on_c, 5, 43, 0
8, 6480, Note_on_c, 5, 50, 50
8, 6515, Note_on_c, 5, 50, 0
8, 6540, Note_on_c, 5, 52, 50
8, 6575, Note_on_c, 5, 52, 0
8, 6600, Note_on_c, 5, 54, 50
8, 6635, Note_on_c, 5, 54, 0
8, 6660, Note_on_c, 5, 50, 50
8, 6695, Note_on_c, 5, 50, 0
8, 6720, Note_on_c, 5, 55, 50
8, 6755, Note_on_c, 5, 55, 0
8, 6780, Note_on_c, 5, 54, 50
8, 6815, Note_on_c, 5, 54, 0
8, 6840, Note_on_c, 5, 52, 50
8, 6875, Note_on_c, 5, 52, 0
8, 6900, Note_on_c, 5, 59, 50
8, 6930, Note_on_c, 5, 59, 0
8, 6930, Note_on_c, 5, 57, 50
8, 6960, Note_on_c, 5, 57, 0
8, 6960, Note_on_c, 5, 55, 50
8, 6995, Note_on_c, 5, 55, 0
8, 7020, Note_on_c, 5, 54, 50
8, 7140, Note_on_c, 5, 54, 0
8, 7140, Note_on_c, 5, 52, 50
8, 7175, Note_on_c, 5, 52, 0
8, 7200, Note_on_c, 5, 50, 50
8, 7320, Note_on_c, 5, 50, 0
8, 7380, Note_on_c, 5, 38, 50
8, 7415, Note_on_c, 5, 38, 0
8, 7440, Note_on_c, 5, 45, 50
8, 7560, Note_on_c, 5, 45, 0
8, 7620, Note_on_c, 5, 57, 50
8, 7655, Note_on_c, 5, 57, 0
8, 7680, Note_on_c, 5, 59, 50
8, 7715, Note_on_c, 5, 59, 0
8, 7740, Note_on_c, 5, 55, 50
8, 7775, Note_on_c, 5, 55, 0
8, 7800, Note_on_c, 5, 57, 50
8, 7835, Note_on_c, 5, 57, 0
8, 7860, Note_on_c, 5, 45, 50
8, 7895, Note_on_c, 5, 45, 0
8, 7920, Note_on_c, 5, 50, 40
8, 7955, Note_on_c, 5, 50, 0
8, 7980, Note_on_c, 5, 52, 40
8, 8015, Note_on_c, 5, 52, 0
8, 8040, Note_on_c, 5, 54, 40
8, 8075, Note_on_c, 5, 54, 0
8, 8100, Note_on_c, 5, 55, 40
8, 8135, Note_on_c, 5, 55, 0
8, 8160, Note_on_c, 5, 57, 40
8, 8195, Note_on_c, 5, 57, 0
8, 8220, Note_on_c, 5, 45, 40
8, 8255, Note_on_c, 5, 45, 0
8, 8340, Note_on_c, 5, 46, 40
8, 8375, Note_on_c, 5, 46, 0
8, 8400, Note_on_c, 5, 47, 40
8, 8435, Note_on_c, 5, 47, 0
8, 8460, Note_on_c, 5, 49, 40
8, 8495, Note_on_c, 5, 49, 0
8, 8520, Note_on_c, 5, 50, 40
8, 8555, Note_on_c, 5, 50, 0
8, 8580, Note_on_c, 5, 52, 40
8, 8615, Note_on_c, 5, 52, 0
8, 8640, Note_on_c, 5, 54, 40
8, 8675, Note_on_c, 5, 54, 0
8, 8700, Note_on_c, 5, 42, 40
8, 8735, Note_on_c, 5, 42, 0
8, 8820, Note_on_c, 5, 38, 40
8, 8855, Note_on_c, 5, 38, 0
8, 8880, Note_on_c, 5, 43, 40
8, 8915, Note_on_c, 5, 43, 0
8, 8940, Note_on_c, 5, 45, 40
8, 8975, Note_on_c, 5, 45, 0
8, 9000, Note_on_c, 5, 47, 40
8, 9035, Note_on_c, 5, 47, 0
8, 9060, Note_on_c, 5, 49, 40
8, 9095, Note_on_c, 5, 49, 0
8, 9120, Note_on_c, 5, 50, 40
8, 9155, Note_on_c, 5, 50, 0
8, 9180, Note_on_c, 5, 52, 40
8, 9215, Note_on_c, 5, 52, 0
8, 9240, Note_on_c, 5, 50, 40
8, 9275, Note_on_c, 5, 50, 0
8, 9300, Note_on_c, 5, 48, 40
8, 9335, Note_on_c, 5, 48, 0
8, 9360, Note_on_c, 5, 47, 40
8, 9395, Note_on_c, 5, 47, 0
8, 9420, Note_on_c, 5, 49, 40
8, 9455, Note_on_c, 5, 49, 0
8, 9480, Note_on_c, 5, 51, 40
8, 9515, Note_on_c, 5, 51, 0
8, 9540, Note_on_c, 5, 47, 40
8, 9575, Note_on_c, 5, 47, 0
8, 9600, Note_on_c, 5, 52, 40
8, 9635, Note_on_c, 5, 52, 0
8, 9660, Note_on_c, 5, 54, 40
8, 9695, Note_on_c, 5, 54, 0
8, 9720, Note_on_c, 5, 55, 40
8, 9755, Note_on_c, 5, 55, 0
8, 9780, Note_on_c, 5, 57, 40
8, 9815, Note_on_c, 5, 57, 0
8, 9840, Note_on_c, 5, 59, 40
8, 9875, Note_on_c, 5, 59, 0
8, 9900, Note_on_c, 5, 57, 40
8, 9935, Note_on_c, 5, 57, 0
8, 9960, Note_on_c, 5, 56, 40
8, 9995, Note_on_c, 5, 56, 0
8, 10020, Note_on_c, 5, 52, 40
8, 10055, Note_on_c, 5, 52, 0
8, 10080, Note_on_c, 5, 57, 40
8, 10115, Note_on_c, 5, 57, 0
8, 10140, Note_on_c, 5, 52, 40
8, 10175, Note_on_c, 5, 52, 0
8, 10200, Note_on_c, 5, 48, 40
8, 10235, Note_on_c, 5, 48, 0
8, 10260, Note_on_c, 5, 52, 40
8, 10295, Note_on_c, 5, 52, 0
8, 10320, Note_on_c, 5, 57, 40
8, 10355, Note_on_c, 5, 57, 0
8, 10380, Note_on_c, 5, 55, 40
8, 10415, Note_on_c, 5, 55, 0
8, 10440, Note_on_c, 5, 54, 40
8, 10475, Note_on_c, 5, 54, 0
8, 10500, Note_on_c, 5, 50, 40
8, 10535, Note_on_c, 5, 50, 0
8, 10560, Note_on_c, 5, 55, 40
8, 10595, Note_on_c, 5, 55, 0
8, 10620, Note_on_c, 5, 50, 40
8, 10655, Note_on_c, 5, 50, 0
8, 10680, Note_on_c, 5, 47, 40
8, 10715, Note_on_c, 5, 47, 0
8, 10740, Note_on_c, 5, 50, 40
8, 10775, Note_on_c, 5, 50, 0
8, 10800, Note_on_c, 5, 43, 40
8, 10835, Note_on_c, 5, 43, 0
8, 10860, Note_on_c, 5, 47, 40
8, 10895, Note_on_c, 5, 47, 0
8, 10920, Note_on_c, 5, 52, 40
8, 10955, Note_on_c, 5, 52, 0
8, 10980, Note_on_c, 5, 50, 40
8, 11015, Note_on_c, 5, 50, 0
8, 11040, Note_on_c, 5, 48, 40
8, 11075, Note_on_c, 5, 48, 0
8, 11100, Note_on_c, 5, 45, 40
8, 11135, Note_on_c, 5, 45, 0
8, 11160, Note_on_c, 5, 50, 40
8, 11195, Note_on_c, 5, 50, 0
8, 11220, Note_on_c, 5, 38, 40
8, 11255, Note_on_c, 5, 38, 0
8, 11280, Note_on_c, 5, 55, 40
8, 11315, Note_on_c, 5, 55, 0
8, 11340, Note_on_c, 5, 54, 40
8, 11375, Note_on_c, 5, 54, 0
8, 11400, Note_on_c, 5, 52, 40
8, 11435, Note_on_c, 5, 52, 0
8, 11460, Note_on_c, 5, 50, 40
8, 11495, Note_on_c, 5, 50, 0
8, 11520, Note_on_c, 5, 52, 40
8, 11555, Note_on_c, 5, 52, 0
8, 11580, Note_on_c, 5, 49, 40
8, 11615, Note_on_c, 5, 49, 0
8, 11640, Note_on_c, 5, 54, 40
8, 11675, Note_on_c, 5, 54, 0
8, 11700, Note_on_c, 5, 42, 40
8, 11735, Note_on_c, 5, 42, 0
8, 11760, Note_on_c, 5, 47, 40
8, 11795, Note_on_c, 5, 47, 0
8, 11820, Note_on_c, 5, 59, 40
8, 11855, Note_on_c, 5, 59, 0
8, 11880, Note_on_c, 5, 52, 40
8, 11915, Note_on_c, 5, 52, 0
8, 11940, Note_on_c, 5, 55, 40
8, 11975, Note_on_c, 5, 55, 0
8, 12000, Note_on_c, 5, 57, 40
8, 12120, Note_on_c, 5, 57, 0
8, 12180, Note_on_c, 5, 50, 40
8, 12240, Note_on_c, 5, 50, 0
8, 12240, Note_on_c, 5, 59, 40
8, 12360, Note_on_c, 5, 59, 0
8, 12420, Note_on_c, 5, 47, 40
8, 12455, Note_on_c, 5, 47, 0
8, 12480, Note_on_c, 5, 49, 40
8, 12515, Note_on_c, 5, 49, 0
8, 12540, Note_on_c, 5, 47, 40
8, 12575, Note_on_c, 5, 47, 0
8, 12600, Note_on_c, 5, 49, 40
8, 12635, Note_on_c, 5, 49, 0
8, 12660, Note_on_c, 5, 45, 40
8, 12695, Note_on_c, 5, 45, 0
8, 12720, Note_on_c, 5, 50, 40
8, 12755, Note_on_c, 5, 50, 0
8, 12780, Note_on_c, 5, 49, 40
8, 12815, Note_on_c, 5, 49, 0
8, 12840, Note_on_c, 5, 47, 40
8, 12875, Note_on_c, 5, 47, 0
8, 12900, Note_on_c, 5, 54, 40
8, 12935, Note_on_c, 5, 54, 0
8, 12960, Note_on_c, 5, 55, 40
8, 12995, Note_on_c, 5, 55, 0
8, 13020, Note_on_c, 5, 52, 40
8, 13055, Note_on_c, 5, 52, 0
8, 13080, Note_on_c, 5, 57, 40
8, 13115, Note_on_c, 5, 57, 0
8, 13140, Note_on_c, 5, 45, 40
8, 13175, Note_on_c, 5, 45, 0
8, 13200, Note_on_c, 5, 50, 64
8, 13235, Note_on_c, 5, 50, 0
8, 13260, Note_on_c, 5, 52, 64
8, 13295, Note_on_c, 5, 52, 0
8, 13320, Note_on_c, 5, 54, 64
8, 13355, Note_on_c, 5, 54, 0
8, 13380, Note_on_c, 5, 50, 64
8, 13415, Note_on_c, 5, 50, 0
8, 13440, Note_on_c, 5, 55, 64
8, 13475, Note_on_c, 5, 55, 0
8, 13500, Note_on_c, 5, 54, 64
8, 13535, Note_on_c, 5, 54, 0
8, 13560, Note_on_c, 5, 55, 64
8, 13595, Note_on_c, 5, 55, 0
8, 13620, Note_on_c, 5, 54, 64
8, 13655, Note_on_c, 5, 54, 0
8, 13680, Note_on_c, 5, 55, 64
8, 13715, Note_on_c, 5, 55, 0
8, 13740, Note_on_c, 5, 54, 64
8, 13775, Note_on_c, 5, 54, 0
8, 13800, Note_on_c, 5, 52, 64
8, 13835, Note_on_c, 5, 52, 0
8, 13860, Note_on_c, 5, 57, 64
8, 13895, Note_on_c, 5, 57, 0
8, 13920, Note_on_c, 5, 50, 64
8, 13955, Note_on_c, 5, 50, 0
8, 13980, Note_on_c, 5, 52, 64
8, 14015, Note_on_c, 5, 52, 0
8, 14040, Note_on_c, 5, 54, 64
8, 14075, Note_on_c, 5, 54, 0
8, 14100, Note_on_c, 5, 50, 64
8, 14135, Note_on_c, 5, 50, 0
8, 14160, Note_on_c, 5, 43, 64
8, 14195, Note_on_c, 5, 43, 0
8, 14220, Note_on_c, 5, 45, 64
8, 14255, Note_on_c, 5, 45, 0
8, 14280, Note_on_c, 5, 47, 64
8, 14315, Note_on_c, 5, 47, 0
8, 14340, Note_on_c, 5, 43, 64
8, 14375, Note_on_c, 5, 43, 0
8, 14400, Note_on_c, 5, 48, 64
8, 14435, Note_on_c, 5, 48, 0
8, 14460, Note_on_c, 5, 47, 64
8, 14495, Note_on_c, 5, 47, 0
8, 14520, Note_on_c, 5, 48, 64
8, 14555, Note_on_c, 5, 48, 0
8, 14580, Note_on_c, 5, 47, 64
8, 14615, Note_on_c, 5, 47, 0
8, 14640, Note_on_c, 5, 48, 64
8, 14675, Note_on_c, 5, 48, 0
8, 14700, Note_on_c, 5, 47, 64
8, 14735, Note_on_c, 5, 47, 0
8, 14760, Note_on_c, 5, 45, 64
8, 14795, Note_on_c, 5, 45, 0
8, 14820, Note_on_c, 5, 50, 64
8, 14855, Note_on_c, 5, 50, 0
8, 14880, Note_on_c, 5, 43, 64
8, 14915, Note_on_c, 5, 43, 0
8, 14940, Note_on_c, 5, 55, 64
8, 14975, Note_on_c, 5, 55, 0
8, 15060, Note_on_c, 5, 52, 64
8, 15095, Note_on_c, 5, 52, 0
8, 15120, Note_on_c, 5, 49, 64
8, 15155, Note_on_c, 5, 49, 0
8, 15180, Note_on_c, 5, 50, 64
8, 15215, Note_on_c, 5, 50, 0
8, 15300, Note_on_c, 5, 47, 64
8, 15335, Note_on_c, 5, 47, 0
8, 15360, Note_on_c, 5, 52, 64
8, 15395, Note_on_c, 5, 52, 0
8, 15420, Note_on_c, 5, 55, 64
8, 15455, Note_on_c, 5, 55, 0
8, 15540, Note_on_c, 5, 52, 64
8, 15575, Note_on_c, 5, 52, 0
8, 15600, Note_on_c, 5, 57, 64
8, 15635, Note_on_c, 5, 57, 0
8, 15660, Note_on_c, 5, 45, 64
8, 15695, Note_on_c, 5, 45, 0
8, 15780, Note_on_c, 5, 57, 64
8, 15815, Note_on_c, 5, 57, 0
8, 15840, Note_on_c, 5, 59, 64
8, 15875, Note_on_c, 5, 59, 0
8, 15900, Note_on_c, 5, 55, 64
8, 15935, Note_on_c, 5, 55, 0
8, 15960, Note_on_c, 5, 57, 64
8, 15995, Note_on_c, 5, 57, 0
8, 16020, Note_on_c, 5, 45, 64
8, 16055, Note_on_c, 5, 45, 0
8, 16080, Note_on_c, 5, 50, 40
8, 16115, Note_on_c, 5, 50, 0
8, 16140, Note_on_c, 5, 54, 40
8, 16170, Note_on_c, 5, 54, 0
8, 16170, Note_on_c, 5, 52, 40
8, 16200, Note_on_c, 5, 52, 0
8, 16200, Note_on_c, 5, 50, 40
8, 16235, Note_on_c, 5, 50, 0
8, 16260, Note_on_c, 5, 54, 40
8, 16295, Note_on_c, 5, 54, 0
8, 16320, Note_on_c, 5, 55, 40
8, 16355, Note_on_c, 5, 55, 0
8, 16380, Note_on_c, 5, 54, 40
8, 16410, Note_on_c, 5, 54, 0
8, 16410, Note_on_c, 5, 52, 40
8, 16440, Note_on_c, 5, 52, 0
8, 16440, Note_on_c, 5, 50, 40
8, 16475, Note_on_c, 5, 50, 0
8, 16500, Note_on_c, 5, 48, 40
8, 16535, Note_on_c, 5, 48, 0
8, 16560, Note_on_c, 5, 47, 40
8, 16595, Note_on_c, 5, 47, 0
8, 16620, Note_on_c, 5, 45, 40
8, 16655, Note_on_c, 5, 45, 0
8, 16680, Note_on_c, 5, 38, 40
8, 16715, Note_on_c, 5, 38, 0
8, 16740, Note_on_c, 5, 40, 40
8, 16775, Note_on_c, 5, 40, 0
8, 16800, Note_on_c, 5, 45, 40
8, 16835, Note_on_c, 5, 45, 0
8, 16860, Note_on_c, 5, 43, 40
8, 16895, Note_on_c, 5, 43, 0
8, 16920, Note_on_c, 5, 42, 40
8, 16955, Note_on_c, 5, 42, 0
8, 16980, Note_on_c, 5, 47, 40
8, 17015, Note_on_c, 5, 47, 0
8, 17040, Note_on_c, 5, 40, 40
8, 17075, Note_on_c, 5, 40, 0
8, 17100, Note_on_c, 5, 52, 40
8, 17130, Note_on_c, 5, 52, 0
8, 17130, Note_on_c, 5, 54, 40
8, 17160, Note_on_c, 5, 54, 0
8, 17160, Note_on_c, 5, 55, 40
8, 17195, Note_on_c, 5, 55, 0
8, 17220, Note_on_c, 5, 57, 40
8, 17255, Note_on_c, 5, 57, 0
8, 17280, Note_on_c, 5, 55, 40
8, 17315, Note_on_c, 5, 55, 0
8, 17340, Note_on_c, 5, 55, 40
8, 17370, Note_on_c, 5, 55, 0
8, 17370, Note_on_c, 5, 54, 40
8, 17400, Note_on_c, 5, 54, 0
8, 17400, Note_on_c, 5, 55, 40
8, 17435, Note_on_c, 5, 55, 0
8, 17460, Note_on_c, 5, 60, 40
8, 17495, Note_on_c, 5, 60, 0
8, 17520, Note_on_c, 5, 59, 40
8, 17555, Note_on_c, 5, 59, 0
8, 17580, Note_on_c, 5, 57, 40
8, 17610, Note_on_c, 5, 57, 0
8, 17610, Note_on_c, 5, 55, 40
8, 17640, Note_on_c, 5, 55, 0
8, 17640, Note_on_c, 5, 54, 40
8, 17675, Note_on_c, 5, 54, 0
8, 17700, Note_on_c, 5, 59, 40
8, 17735, Note_on_c, 5, 59, 0
8, 17760, Note_on_c, 5, 52, 40
8, 17795, Note_on_c, 5, 52, 0
8, 17820, Note_on_c, 5, 40, 40
8, 17855, Note_on_c, 5, 40, 0
8, 17880, Note_on_c, 5, 45, 40
8, 17915, Note_on_c, 5, 45, 0
8, 17940, Note_on_c, 5, 43, 40
8, 17975, Note_on_c, 5, 43, 0
8, 18000, Note_on_c, 5, 42, 40
8, 18035, Note_on_c, 5, 42, 0
8, 18060, Note_on_c, 5, 47, 40
8, 18090, Note_on_c, 5, 47, 0
8, 18090, Note_on_c, 5, 46, 40
8, 18120, Note_on_c, 5, 46, 0
8, 18120, Note_on_c, 5, 47, 40
8, 18155, Note_on_c, 5, 47, 0
8, 18180, Note_on_c, 5, 59, 40
8, 18215, Note_on_c, 5, 59, 0
8, 18240, Note_on_c, 5, 49, 40
8, 18275, Note_on_c, 5, 49, 0
8, 18300, Note_on_c, 5, 54, 40
8, 18335, Note_on_c, 5, 54, 0
8, 18360, Note_on_c, 5, 42, 40
8, 18395, Note_on_c, 5, 42, 0
8, 18420, Note_on_c, 5, 46, 40
8, 18455, Note_on_c, 5, 46, 0
8, 18480, Note_on_c, 5, 47, 40
8, 18515, Note_on_c, 5, 47, 0
8, 18540, Note_on_c, 5, 54, 40
8, 18575, Note_on_c, 5, 54, 0
8, 18600, Note_on_c, 5, 55, 40
8, 18635, Note_on_c, 5, 55, 0
8, 18660, Note_on_c, 5, 54, 40
8, 18695, Note_on_c, 5, 54, 0
8, 18720, Note_on_c, 5, 52, 40
8, 18755, Note_on_c, 5, 52, 0
8, 18780, Note_on_c, 5, 54, 40
8, 18815, Note_on_c, 5, 54, 0
8, 18840, Note_on_c, 5, 55, 40
8, 18875, Note_on_c, 5, 55, 0
8, 18900, Note_on_c, 5, 57, 40
8, 18935, Note_on_c, 5, 57, 0
8, 18960, Note_on_c, 5, 55, 40
8, 18995, Note_on_c, 5, 55, 0
8, 19020, Note_on_c, 5, 54, 40
8, 19055, Note_on_c, 5, 54, 0
8, 19080, Note_on_c, 5, 52, 40
8, 19115, Note_on_c, 5, 52, 0
8, 19140, Note_on_c, 5, 55, 40
8, 19175, Note_on_c, 5, 55, 0
8, 19200, Note_on_c, 5, 46, 40
8, 19235, Note_on_c, 5, 46, 0
8, 19260, Note_on_c, 5, 52, 40
8, 19295, Note_on_c, 5, 52, 0
8, 19320, Note_on_c, 5, 42, 40
8, 19355, Note_on_c, 5, 42, 0
8, 19380, Note_on_c, 5, 46, 40
8, 19415, Note_on_c, 5, 46, 0
8, 19440, Note_on_c, 5, 47, 40
8, 19475, Note_on_c, 5, 47, 0
8, 19500, Note_on_c, 5, 50, 40
8, 19535, Note_on_c, 5, 50, 0
8, 19560, Note_on_c, 5, 52, 40
8, 19595, Note_on_c, 5, 52, 0
8, 19620, Note_on_c, 5, 49, 40
8, 19655, Note_on_c, 5, 49, 0
8, 19680, Note_on_c, 5, 50, 40
8, 19715, Note_on_c, 5, 50, 0
8, 19740, Note_on_c, 5, 52, 40
8, 19775, Note_on_c, 5, 52, 0
8, 19800, Note_on_c, 5, 54, 40
8, 19835, Note_on_c, 5, 54, 0
8, 19860, Note_on_c, 5, 42, 40
8, 19895, Note_on_c, 5, 42, 0
8, 19920, Note_on_c, 5, 47, 50
8, 19955, Note_on_c, 5, 47, 0
8, 19980, Note_on_c, 5, 49, 50
8, 20015, Note_on_c, 5, 49, 0
8, 20040, Note_on_c, 5, 50, 50
8, 20075, Note_on_c, 5, 50, 0
8, 20100, Note_on_c, 5, 47, 50
8, 20135, Note_on_c, 5, 47, 0
8, 20160, Note_on_c, 5, 52, 50
8, 20195, Note_on_c, 5, 52, 0
8, 20220, Note_on_c, 5, 50, 50
8, 20255, Note_on_c, 5, 50, 0
8, 20280, Note_on_c, 5, 52, 50
8, 20315, Note_on_c, 5, 52, 0
8, 20340, Note_on_c, 5, 50, 50
8, 20375, Note_on_c, 5, 50, 0
8, 20400, Note_on_c, 5, 52, 50
8, 20435, Note_on_c, 5, 52, 0
8, 20460, Note_on_c, 5, 50, 50
8, 20495, Note_on_c, 5, 50, 0
8, 20520, Note_on_c, 5, 49, 50
8, 20555, Note_on_c, 5, 49, 0
8, 20580, Note_on_c, 5, 54, 50
8, 20615, Note_on_c, 5, 54, 0
8, 20640, Note_on_c, 5, 47, 50
8, 20675, Note_on_c, 5, 47, 0
8, 20700, Note_on_c, 5, 45, 50
8, 20735, Note_on_c, 5, 45, 0
8, 20760, Note_on_c, 5, 43, 50
8, 20795, Note_on_c, 5, 43, 0
8, 20820, Note_on_c, 5, 42, 50
8, 20855, Note_on_c, 5, 42, 0
8, 20880, Note_on_c, 5, 40, 50
8, 20915, Note_on_c, 5, 40, 0
8, 20940, Note_on_c, 5, 42, 50
8, 20975, Note_on_c, 5, 42, 0
8, 21000, Note_on_c, 5, 43, 50
8, 21035, Note_on_c, 5, 43, 0
8, 21060, Note_on_c, 5, 40, 50
8, 21095, Note_on_c, 5, 40, 0
8, 21120, Note_on_c, 5, 45, 50
8, 21155, Note_on_c, 5, 45, 0
8, 21180, Note_on_c, 5, 43, 50
8, 21215, Note_on_c, 5, 43, 0
8, 21240, Note_on_c, 5, 45, 50
8, 21275, Note_on_c, 5, 45, 0
8, 21300, Note_on_c, 5, 43, 50
8, 21335, Note_on_c, 5, 43, 0
8, 21360, Note_on_c, 5, 45, 50
8, 21395, Note_on_c, 5, 45, 0
8, 21420, Note_on_c, 5, 43, 50
8, 21455, Note_on_c, 5, 43, 0
8, 21480, Note_on_c, 5, 42, 50
8, 21515, Note_on_c, 5, 42, 0
8, 21540, Note_on_c, 5, 47, 50
8, 21575, Note_on_c, 5, 47, 0
8, 21600, Note_on_c, 5, 40, 50
8, 21635, Note_on_c, 5, 40, 0
8, 21660, Note_on_c, 5, 52, 50
8, 21695, Note_on_c, 5, 52, 0
8, 21780, Note_on_c, 5, 49, 50
8, 21815, Note_on_c, 5, 49, 0
8, 21840, Note_on_c, 5, 46, 50
8, 21875, Note_on_c, 5, 46, 0
8, 21900, Note_on_c, 5, 47, 50
8, 21935, Note_on_c, 5, 47, 0
8, 22020, Note_on_c, 5, 47, 50
8, 22055, Note_on_c, 5, 47, 0
8, 22080, Note_on_c, 5, 43, 50
8, 22115, Note_on_c, 5, 43, 0
8, 22140, Note_on_c, 5, 52, 50
8, 22175, Note_on_c, 5, 52, 0
8, 22260, Note_on_c, 5, 49, 50
8, 22295, Note_on_c, 5, 49, 0
8, 22320, Note_on_c, 5, 54, 50
8, 22355, Note_on_c, 5, 54, 0
8, 22380, Note_on_c, 5, 42, 50
8, 22415, Note_on_c, 5, 42, 0
8, 22500, Note_on_c, 5, 54, 50
8, 22535, Note_on_c, 5, 54, 0
8, 22560, Note_on_c, 5, 55, 50
8, 22595, Note_on_c, 5, 55, 0
8, 22620, Note_on_c, 5, 52, 50
8, 22655, Note_on_c, 5, 52, 0
8, 22680, Note_on_c, 5, 54, 50
8, 22715, Note_on_c, 5, 54, 0
8, 22740, Note_on_c, 5, 42, 50
8, 22775, Note_on_c, 5, 42, 0
8, 22800, Note_on_c, 5, 47, 37
8, 22835, Note_on_c, 5, 47, 0
8, 22860, Note_on_c, 5, 59, 37
8, 22890, Note_on_c, 5, 59, 0
8, 22890, Note_on_c, 5, 61, 37
8, 22920, Note_on_c, 5, 61, 0
8, 22920, Note_on_c, 5, 59, 37
8, 22955, Note_on_c, 5, 59, 0
8, 22980, Note_on_c, 5, 57, 37
8, 23015, Note_on_c, 5, 57, 0
8, 23040, Note_on_c, 5, 55, 37
8, 23075, Note_on_c, 5, 55, 0
8, 23100, Note_on_c, 5, 54, 37
8, 23135, Note_on_c, 5, 54, 0
8, 23160, Note_on_c, 5, 55, 37
8, 23195, Note_on_c, 5, 55, 0
8, 23220, Note_on_c, 5, 54, 37
8, 23255, Note_on_c, 5, 54, 0
8, 23280, Note_on_c, 5, 55, 37
8, 23315, Note_on_c, 5, 55, 0
8, 23340, Note_on_c, 5, 54, 37
8, 23375, Note_on_c, 5, 54, 0
8, 23400, Note_on_c, 5, 52, 37
8, 23435, Note_on_c, 5, 52, 0
8, 23460, Note_on_c, 5, 57, 37
8, 23495, Note_on_c, 5, 57, 0
8, 23520, Note_on_c, 5, 50, 37
8, 23555, Note_on_c, 5, 50, 0
8, 23580, Note_on_c, 5, 48, 37
8, 23615, Note_on_c, 5, 48, 0
8, 23640, Note_on_c, 5, 47, 37
8, 23675, Note_on_c, 5, 47, 0
8, 23700, Note_on_c, 5, 52, 37
8, 23735, Note_on_c, 5, 52, 0
8, 23760, Note_on_c, 5, 57, 37
8, 23795, Note_on_c, 5, 57, 0
8, 23820, Note_on_c, 5, 45, 37
8, 23850, Note_on_c, 5, 45, 0
8, 23850, Note_on_c, 5, 47, 37
8, 23880, Note_on_c, 5, 47, 0
8, 23880, Note_on_c, 5, 48, 37
8, 23915, Note_on_c, 5, 48, 0
8, 23940, Note_on_c, 5, 45, 37
8, 23975, Note_on_c, 5, 45, 0
8, 24000, Note_on_c, 5, 50, 37
8, 24035, Note_on_c, 5, 50, 0
8, 24060, Note_on_c, 5, 48, 37
8, 24095, Note_on_c, 5, 48, 0
8, 24120, Note_on_c, 5, 50, 37
8, 24155, Note_on_c, 5, 50, 0
8, 24180, Note_on_c, 5, 48, 37
8, 24215, Note_on_c, 5, 48, 0
8, 24240, Note_on_c, 5, 50, 37
8, 24275, Note_on_c, 5, 50, 0
8, 24300, Note_on_c, 5, 48, 37
8, 24335, Note_on_c, 5, 48, 0
8, 24360, Note_on_c, 5, 47, 37
8, 24395, Note_on_c, 5, 47, 0
8, 24420, Note_on_c, 5, 52, 37
8, 24455, Note_on_c, 5, 52, 0
8, 24480, Note_on_c, 5, 45, 37
8, 24515, Note_on_c, 5, 45, 0
8, 24540, Note_on_c, 5, 57, 37
8, 24570, Note_on_c, 5, 57, 0
8, 24570, Note_on_c, 5, 56, 37
8, 24600, Note_on_c, 5, 56, 0
8, 24600, Note_on_c, 5, 57, 37
8, 24635, Note_on_c, 5, 57, 0
8, 24660, Note_on_c, 5, 60, 37
8, 24695, Note_on_c, 5, 60, 0
8, 24720, Note_on_c, 5, 59, 40
8, 24755, Note_on_c, 5, 59, 0
8, 24780, Note_on_c, 5, 52, 40
8, 24810, Note_on_c, 5, 52, 0
8, 24810, Note_on_c, 5, 51, 40
8, 24840, Note_on_c, 5, 51, 0
8, 24840, Note_on_c, 5, 52, 40
8, 24875, Note_on_c, 5, 52, 0
8, 24900, Note_on_c, 5, 64, 40
8, 24935, Note_on_c, 5, 64, 0
8, 24960, Note_on_c, 5, 54, 40
8, 24995, Note_on_c, 5, 54, 0
8, 25020, Note_on_c, 5, 59, 40
8, 25055, Note_on_c, 5, 59, 0
8, 25080, Note_on_c, 5, 47, 40
8, 25115, Note_on_c, 5, 47, 0
8, 25140, Note_on_c, 5, 51, 40
8, 25175, Note_on_c, 5, 51, 0
8, 25200, Note_on_c, 5, 52, 40
8, 25235, Note_on_c, 5, 52, 0
8, 25260, Note_on_c, 5, 59, 40
8, 25295, Note_on_c, 5, 59, 0
8, 25320, Note_on_c, 5, 60, 40
8, 25355, Note_on_c, 5, 60, 0
8, 25380, Note_on_c, 5, 59, 40
8, 25415, Note_on_c, 5, 59, 0
8, 25440, Note_on_c, 5, 57, 40
8, 25475, Note_on_c, 5, 57, 0
8, 25500, Note_on_c, 5, 59, 40
8, 25535, Note_on_c, 5, 59, 0
8, 25560, Note_on_c, 5, 60, 40
8, 25595, Note_on_c, 5, 60, 0
8, 25620, Note_on_c, 5, 62, 40
8, 25655, Note_on_c, 5, 62, 0
8, 25680, Note_on_c, 5, 60, 40
8, 25715, Note_on_c, 5, 60, 0
8, 25740, Note_on_c, 5, 59, 40
8, 25775, Note_on_c, 5, 59, 0
8, 25800, Note_on_c, 5, 57, 40
8, 25835, Note_on_c, 5, 57, 0
8, 25860, Note_on_c, 5, 60, 40
8, 25895, Note_on_c, 5, 60, 0
8, 25920, Note_on_c, 5, 51, 40
8, 25955, Note_on_c, 5, 51, 0
8, 25980, Note_on_c, 5, 57, 40
8, 26015, Note_on_c, 5, 57, 0
8, 26040, Note_on_c, 5, 47, 40
8, 26075, Note_on_c, 5, 47, 0
8, 26100, Note_on_c, 5, 51, 40
8, 26135, Note_on_c, 5, 51, 0
8, 26160, Note_on_c, 5, 52, 40
8, 26195, Note_on_c, 5, 52, 0
8, 26220, Note_on_c, 5, 55, 40
8, 26255, Note_on_c, 5, 55, 0
8, 26280, Note_on_c, 5, 57, 40
8, 26315, Note_on_c, 5, 57, 0
8, 26340, Note_on_c, 5, 54, 40
8, 26375, Note_on_c, 5, 54, 0
8, 26400, Note_on_c, 5, 55, 40
8, 26435, Note_on_c, 5, 55, 0
8, 26460, Note_on_c, 5, 57, 40
8, 26495, Note_on_c, 5, 57, 0
8, 26520, Note_on_c, 5, 59, 40
8, 26555, Note_on_c, 5, 59, 0
8, 26580, Note_on_c, 5, 47, 40
8, 26615, Note_on_c, 5, 47, 0
8, 26640, Note_on_c, 5, 52, 70
8, 26760, Note_on_c, 5, 52, 0
8, 26880, Note_on_c, 5, 48, 70
8, 27000, Note_on_c, 5, 48, 0
8, 27120, Note_on_c, 5, 44, 70
8, 27240, Note_on_c, 5, 44, 0
8, 27360, Note_on_c, 5, 40, 70
8, 27480, Note_on_c, 5, 40, 0
8, 27600, Note_on_c, 5, 45, 70
8, 27720, Note_on_c, 5, 45, 0
8, 27840, Note_on_c, 5, 47, 70
8, 27960, Note_on_c, 5, 47, 0
8, 28140, Note_on_c, 5, 48, 70
8, 28200, Note_on_c, 5, 48, 0
8, 28200, Note_on_c, 5, 47, 70
8, 28260, Note_on_c, 5, 47, 0
8, 28260, Note_on_c, 5, 46, 70
8, 28295, Note_on_c, 5, 46, 0
8, 28320, Note_on_c, 5, 47, 70
8, 28440, Note_on_c, 5, 47, 0
8, 28860, Note_on_c, 5, 54, 70
8, 28920, Note_on_c, 5, 54, 0
8, 28920, Note_on_c, 5, 51, 70
8, 28980, Note_on_c, 5, 51, 0
8, 28980, Note_on_c, 5, 47, 70
8, 29015, Note_on_c, 5, 47, 0
8, 29040, Note_on_c, 5, 43, 70
8, 29160, Note_on_c, 5, 43, 0
8, 29220, Note_on_c, 5, 52, 70
8, 29255, Note_on_c, 5, 52, 0
8, 29280, Note_on_c, 5, 54, 70
8, 29315, Note_on_c, 5, 54, 0
8, 29340, Note_on_c, 5, 55, 70
8, 29370, Note_on_c, 5, 55, 0
8, 29370, Note_on_c, 5, 54, 70
8, 29400, Note_on_c, 5, 54, 0
8, 29400, Note_on_c, 5, 55, 70
8, 29435, Note_on_c, 5, 55, 0
8, 29460, Note_on_c, 5, 57, 70
8, 29495, Note_on_c, 5, 57, 0
8, 29520, Note_on_c, 5, 59, 64
8, 29555, Note_on_c, 5, 59, 0
8, 29580, Note_on_c, 5, 57, 62
8, 29615, Note_on_c, 5, 57, 0
8, 29640, Note_on_c, 5, 59, 60
8, 29675, Note_on_c, 5, 59, 0
8, 29700, Note_on_c, 5, 47, 59
8, 29735, Note_on_c, 5, 47, 0
8, 29760, Note_on_c, 5, 40, 57
8, 29795, Note_on_c, 5, 40, 0
8, 29820, Note_on_c, 5, 52, 55
8, 29855, Note_on_c, 5, 52, 0
8, 29880, Note_on_c, 5, 50, 53
8, 29915, Note_on_c, 5, 50, 0
8, 29940, Note_on_c, 5, 48, 52
8, 29975, Note_on_c, 5, 48, 0
8, 30000, Note_on_c, 5, 47, 50
8, 30035, Note_on_c, 5, 47, 0
8, 30060, Note_on_c, 5, 45, 50
8, 30095, Note_on_c, 5, 45, 0
8, 30120, Note_on_c, 5, 47, 50
8, 30155, Note_on_c, 5, 47, 0
8, 30180, Note_on_c, 5, 43, 50
8, 30215, Note_on_c, 5, 43, 0
8, 30240, Note_on_c, 5, 48, 50
8, 30275, Note_on_c, 5, 48, 0
8, 30300, Note_on_c, 5, 47, 50
8, 30335, Note_on_c, 5, 47, 0
8, 30360, Note_on_c, 5, 48, 50
8, 30395, Note_on_c, 5, 48, 0
8, 30420, Note_on_c, 5, 47, 50
8, 30455, Note_on_c, 5, 47, 0
8, 30480, Note_on_c, 5, 48, 50
8, 30515, Note_on_c, 5, 48, 0
8, 30540, Note_on_c, 5, 47, 50
8, 30575, Note_on_c, 5, 47, 0
8, 30600, Note_on_c, 5, 45, 50
8, 30635, Note_on_c, 5, 45, 0
8, 30660, Note_on_c, 5, 50, 50
8, 30695, Note_on_c, 5, 50, 0
8, 30720, Note_on_c, 5, 43, 50
8, 30755, Note_on_c, 5, 43, 0
8, 30780, Note_on_c, 5, 55, 50
8, 30815, Note_on_c, 5, 55, 0
8, 30900, Note_on_c, 5, 59, 50
8, 30935, Note_on_c, 5, 59, 0
8, 30960, Note_on_c, 5, 62, 50
8, 30995, Note_on_c, 5, 62, 0
8, 31020, Note_on_c, 5, 50, 50
8, 31055, Note_on_c, 5, 50, 0
8, 31140, Note_on_c, 5, 54, 50
8, 31175, Note_on_c, 5, 54, 0
8, 31200, Note_on_c, 5, 57, 50
8, 31235, Note_on_c, 5, 57, 0
8, 31260, Note_on_c, 5, 45, 50
8, 31295, Note_on_c, 5, 45, 0
8, 31380, Note_on_c, 5, 48, 50
8, 31415, Note_on_c, 5, 48, 0
8, 31440, Note_on_c, 5, 52, 50
8, 31475, Note_on_c, 5, 52, 0
8, 31500, Note_on_c, 5, 40, 50
8, 31535, Note_on_c, 5, 40, 0
8, 31620, Note_on_c, 5, 52, 50
8, 31655, Note_on_c, 5, 52, 0
8, 31680, Note_on_c, 5, 57, 50
8, 31715, Note_on_c, 5, 57, 0
8, 31740, Note_on_c, 5, 45, 50
8, 31775, Note_on_c, 5, 45, 0
8, 31860, Note_on_c, 5, 45, 50
8, 31895, Note_on_c, 5, 45, 0
8, 31920, Note_on_c, 5, 50, 50
8, 31955, Note_on_c, 5, 50, 0
8, 31980, Note_on_c, 5, 38, 50
8, 32015, Note_on_c, 5, 38, 0
8, 32100, Note_on_c, 5, 50, 50
8, 32135, Note_on_c, 5, 50, 0
8, 32160, Note_on_c, 5, 55, 50
8, 32195, Note_on_c, 5, 55, 0
8, 32220, Note_on_c, 5, 43, 50
8, 32255, Note_on_c, 5, 43, 0
8, 32340, Note_on_c, 5, 55, 50
8, 32375, Note_on_c, 5, 55, 0
8, 32400, Note_on_c, 5, 60, 50
8, 32435, Note_on_c, 5, 60, 0
8, 32460, Note_on_c, 5, 48, 50
8, 32495, Note_on_c, 5, 48, 0
8, 32520, Note_on_c, 5, 60, 50
8, 32555, Note_on_c, 5, 60, 0
8, 32580, Note_on_c, 5, 59, 50
8, 32615, Note_on_c, 5, 59, 0
8, 32640, Note_on_c, 5, 57, 50
8, 32675, Note_on_c, 5, 57, 0
8, 32700, Note_on_c, 5, 59, 50
8, 32730, Note_on_c, 5, 59, 0
8, 32730, Note_on_c, 5, 60, 50
8, 32760, Note_on_c, 5, 60, 0
8, 32760, Note_on_c, 5, 62, 50
8, 32795, Note_on_c, 5, 62, 0
8, 32820, Note_on_c, 5, 50, 50
8, 32855, Note_on_c, 5, 50, 0
8, 32880, Note_on_c, 5, 55, 50
8, 32915, Note_on_c, 5, 55, 0
8, 32940, Note_on_c, 5, 54, 53
8, 32975, Note_on_c, 5, 54, 0
8, 33000, Note_on_c, 5, 55, 56
8, 33035, Note_on_c, 5, 55, 0
8, 33060, Note_on_c, 5, 57, 59
8, 33095, Note_on_c, 5, 57, 0
8, 33120, Note_on_c, 5, 58, 63
8, 33155, Note_on_c, 5, 58, 0
8, 33180, Note_on_c, 5, 57, 66
8, 33215, Note_on_c, 5, 57, 0
8, 33240, Note_on_c, 5, 55, 69
8, 33275, Note_on_c, 5, 55, 0
8, 33300, Note_on_c, 5, 53, 72
8, 33335, Note_on_c, 5, 53, 0
8, 33360, Note_on_c, 5, 51, 75
8, 33480, Note_on_c, 5, 51, 0
8, 33660, Note_on_c, 5, 51, 75
8, 33720, Note_on_c, 5, 51, 0
8, 33720, Note_on_c, 5, 50, 75
8, 33780, Note_on_c, 5, 50, 0
8, 33780, Note_on_c, 5, 48, 75
8, 33815, Note_on_c, 5, 48, 0
8, 33840, Note_on_c, 5, 47, 75
8, 33960, Note_on_c, 5, 47, 0
8, 34080, Note_on_c, 5, 43, 75
8, 34200, Note_on_c, 5, 43, 0
8, 34320, Note_on_c, 5, 48, 75
8, 34440, Note_on_c, 5, 48, 0
8, 34560, Note_on_c, 5, 50, 75
8, 34680, Note_on_c, 5, 50, 0
8, 34860, Note_on_c, 5, 51, 75
8, 34920, Note_on_c, 5, 51, 0
8, 34920, Note_on_c, 5, 50, 75
8, 34980, Note_on_c, 5, 50, 0
8, 34980, Note_on_c, 5, 49, 75
8, 35015, Note_on_c, 5, 49, 0
8, 35040, Note_on_c, 5, 50, 75
8, 35160, Note_on_c, 5, 50, 0
8, 35580, Note_on_c, 5, 57, 75
8, 35640, Note_on_c, 5, 57, 0
8, 35640, Note_on_c, 5, 54, 75
8, 35700, Note_on_c, 5, 54, 0
8, 35700, Note_on_c, 5, 50, 75
8, 35735, Note_on_c, 5, 50, 0
8, 35760, Note_on_c, 5, 46, 75
8, 35795, Note_on_c, 5, 46, 0
8, 35820, Note_on_c, 5, 50, 75
8, 35855, Note_on_c, 5, 50, 0
8, 35940, Note_on_c, 5, 43, 75
8, 35975, Note_on_c, 5, 43, 0
8, 36000, Note_on_c, 5, 45, 75
8, 36035, Note_on_c, 5, 45, 0
8, 36060, Note_on_c, 5, 46, 75
8, 36090, Note_on_c, 5, 46, 0
8, 36090, Note_on_c, 5, 45, 75
8, 36120, Note_on_c, 5, 45, 0
8, 36120, Note_on_c, 5, 46, 75
8, 36155, Note_on_c, 5, 46, 0
8, 36180, Note_on_c, 5, 48, 75
8, 36215, Note_on_c, 5, 48, 0
8, 36240, Note_on_c, 5, 50, 75
8, 36275, Note_on_c, 5, 50, 0
8, 36300, Note_on_c, 5, 48, 74
8, 36335, Note_on_c, 5, 48, 0
8, 36360, Note_on_c, 5, 50, 72
8, 36395, Note_on_c, 5, 50, 0
8, 36420, Note_on_c, 5, 38, 71
8, 36455, Note_on_c, 5, 38, 0
8, 36480, Note_on_c, 5, 43, 69
8, 36515, Note_on_c, 5, 43, 0
8, 36540, Note_on_c, 5, 55, 68
8, 36570, Note_on_c, 5, 55, 0
8, 36570, Note_on_c, 5, 54, 67
8, 36600, Note_on_c, 5, 54, 0
8, 36600, Note_on_c, 5, 55, 67
8, 36630, Note_on_c, 5, 55, 0
8, 36630, Note_on_c, 5, 50, 66
8, 36660, Note_on_c, 5, 50, 0
8, 36660, Note_on_c, 5, 47, 65
8, 36690, Note_on_c, 5, 47, 0
8, 36690, Note_on_c, 5, 50, 65
8, 36720, Note_on_c, 5, 50, 0
8, 36720, Note_on_c, 5, 43, 64
8, 36840, Note_on_c, 5, 43, 0
8, 36900, Note_on_c, 5, 55, 64
8, 36935, Note_on_c, 5, 55, 0
8, 36960, Note_on_c, 5, 48, 64
8, 37080, Note_on_c, 5, 48, 0
8, 37080, Note_on_c, 5, 49, 64
8, 37115, Note_on_c, 5, 49, 0
8, 37140, Note_on_c, 5, 52, 64
8, 37175, Note_on_c, 5, 52, 0
8, 37200, Note_on_c, 5, 45, 64
8, 37320, Note_on_c, 5, 45, 0
8, 37380, Note_on_c, 5, 57, 64
8, 37415, Note_on_c, 5, 57, 0
8, 37440, Note_on_c, 5, 50, 64
8, 37475, Note_on_c, 5, 50, 0
8, 37500, Note_on_c, 5, 60, 64
8, 37530, Note_on_c, 5, 60, 0
8, 37530, Note_on_c, 5, 59, 64
8, 37560, Note_on_c, 5, 59, 0
8, 37560, Note_on_c, 5, 60, 64
8, 37590, Note_on_c, 5, 60, 0
8, 37590, Note_on_c, 5, 57, 64
8, 37620, Note_on_c, 5, 57, 0
8, 37620, Note_on_c, 5, 54, 64
8, 37650, Note_on_c, 5, 54, 0
8, 37650, Note_on_c, 5, 57, 64
8, 37680, Note_on_c, 5, 57, 0
8, 37680, Note_on_c, 5, 50, 64
8, 37800, Note_on_c, 5, 50, 0
8, 37860, Note_on_c, 5, 50, 64
8, 37895, Note_on_c, 5, 50, 0
8, 37920, Note_on_c, 5, 52, 64
8, 37955, Note_on_c, 5, 52, 0
8, 37980, Note_on_c, 5, 48, 64
8, 38015, Note_on_c, 5, 48, 0
8, 38040, Note_on_c, 5, 50, 64
8, 38075, Note_on_c, 5, 50, 0
8, 38100, Note_on_c, 5, 38, 64
8, 38135, Note_on_c, 5, 38, 0
8, 38160, Note_on_c, 5, 43, 64
8, 38280, Note_on_c, 5, 43, 0
8, 38640, End_track
9, 0, Start_track
9, 0, MIDI_port, 0
9, 0, Title_t, "Soprano"
9, 0, Program_c, 6, 52
9, 0, Control_c, 6, 91, 127
9, 4080, Note_on_c, 6, 67, 64
9, 4200, Note_on_c, 6, 67, 0
9, 4260, Note_on_c, 6, 67, 64
9, 4295, Note_on_c, 6, 67, 0
9, 4320, Note_on_c, 6, 69, 64
9, 4355, Note_on_c, 6, 69, 0
9, 4380, Note_on_c, 6, 67, 64
9, 4415, Note_on_c, 6, 67, 0
9, 4560, Note_on_c, 6, 69, 64
9, 4620, Note_on_c, 6, 69, 0
9, 4620, Note_on_c, 6, 71, 64
9, 4680, Note_on_c, 6, 71, 0
9, 4680, Note_on_c, 6, 72, 64
9, 4860, Note_on_c, 6, 72, 0
9, 4860, Note_on_c, 6, 71, 64
9, 4890, Note_on_c, 6, 71, 0
9, 4890, Note_on_c, 6, 69, 64
9, 4920, Note_on_c, 6, 69, 0
9, 4920, Note_on_c, 6, 72, 64
9, 4950, Note_on_c, 6, 72, 0
9, 4950, Note_on_c, 6, 71, 64
9, 4980, Note_on_c, 6, 71, 0
9, 4980, Note_on_c, 6, 69, 64
9, 5010, Note_on_c, 6, 69, 0
9, 5010, Note_on_c, 6, 67, 64
9, 5040, Note_on_c, 6, 67, 0
9, 5040, Note_on_c, 6, 69, 64
9, 5100, Note_on_c, 6, 69, 0
9, 5100, Note_on_c, 6, 62, 64
9, 5160, Note_on_c, 6, 62, 0
9, 5160, Note_on_c, 6, 74, 64
9, 5340, Note_on_c, 6, 74, 0
9, 5340, Note_on_c, 6, 72, 64
9, 5370, Note_on_c, 6, 72, 0
9, 5370, Note_on_c, 6, 71, 64
9, 5400, Note_on_c, 6, 71, 0
9, 5400, Note_on_c, 6, 74, 64
9, 5430, Note_on_c, 6, 74, 0
9, 5430, Note_on_c, 6, 72, 64
9, 5460, Note_on_c, 6, 72, 0
9, 5460, Note_on_c, 6, 71, 64
9, 5490, Note_on_c, 6, 71, 0
9, 5490, Note_on_c, 6, 69, 64
9, 5520, Note_on_c, 6, 69, 0
9, 5520, Note_on_c, 6, 71, 64
9, 5580, Note_on_c, 6, 71, 0
9, 5580, Note_on_c, 6, 64, 65
9, 5640, Note_on_c, 6, 64, 0
9, 5640, Note_on_c, 6, 76, 66
9, 5820, Note_on_c, 6, 76, 0
9, 5820, Note_on_c, 6, 74, 69
9, 5850, Note_on_c, 6, 74, 0
9, 5850, Note_on_c, 6, 72, 70
9, 5880, Note_on_c, 6, 72, 0
9, 5880, Note_on_c, 6, 76, 70
9, 5910, Note_on_c, 6, 76, 0
9, 5910, Note_on_c, 6, 74, 71
9, 5940, Note_on_c, 6, 74, 0
9, 5940, Note_on_c, 6, 72, 71
9, 5970, Note_on_c, 6, 72, 0
9, 5970, Note_on_c, 6, 71, 72
9, 6000, Note_on_c, 6, 71, 0
9, 6000, Note_on_c, 6, 72, 72
9, 6030, Note_on_c, 6, 72, 0
9, 6030, Note_on_c, 6, 71, 73
9, 6060, Note_on_c, 6, 71, 0
9, 6060, Note_on_c, 6, 72, 73
9, 6090, Note_on_c, 6, 72, 0
9, 6090, Note_on_c, 6, 76, 74
9, 6120, Note_on_c, 6, 76, 0
9, 6120, Note_on_c, 6, 74, 74
9, 6150, Note_on_c, 6, 74, 0
9, 6150, Note_on_c, 6, 72, 75
9, 6180, Note_on_c, 6, 72, 0
9, 6180, Note_on_c, 6, 71, 75
9, 6210, Note_on_c, 6, 71, 0
9, 6210, Note_on_c, 6, 69, 76
9, 6240, Note_on_c, 6, 69, 0
9, 6240, Note_on_c, 6, 71, 76
9, 6270, Note_on_c, 6, 71, 0
9, 6270, Note_on_c, 6, 69, 77
9, 6300, Note_on_c, 6, 69, 0
9, 6300, Note_on_c, 6, 71, 77
9, 6330, Note_on_c, 6, 71, 0
9, 6330, Note_on_c, 6, 74, 78
9, 6360, Note_on_c, 6, 74, 0
9, 6360, Note_on_c, 6, 72, 78
9, 6390, Note_on_c, 6, 72, 0
9, 6390, Note_on_c, 6, 71, 79
9, 6420, Note_on_c, 6, 71, 0
9, 6420, Note_on_c, 6, 69, 79
9, 6450, Note_on_c, 6, 69, 0
9, 6450, Note_on_c, 6, 67, 80
9, 6480, Note_on_c, 6, 67, 0
9, 6480, Note_on_c, 6, 69, 80
9, 6540, Note_on_c, 6, 69, 0
9, 6540, Note_on_c, 6, 72, 69
9, 6570, Note_on_c, 6, 72, 0
9, 6570, Note_on_c, 6, 71, 64
9, 6600, Note_on_c, 6, 71, 0
9, 6600, Note_on_c, 6, 72, 64
9, 6780, Note_on_c, 6, 72, 0
9, 6780, Note_on_c, 6, 71, 64
9, 6840, Note_on_c, 6, 71, 0
9, 6840, Note_on_c, 6, 73, 64
9, 6900, Note_on_c, 6, 73, 0
9, 6900, Note_on_c, 6, 74, 64
9, 6960, Note_on_c, 6, 74, 0
9, 6960, Note_on_c, 6, 76, 64
9, 7020, Note_on_c, 6, 76, 0
9, 7020, Note_on_c, 6, 74, 64
9, 7050, Note_on_c, 6, 74, 0
9, 7050, Note_on_c, 6, 72, 64
9, 7080, Note_on_c, 6, 72, 0
9, 7080, Note_on_c, 6, 74, 64
9, 7140, Note_on_c, 6, 74, 0
9, 7140, Note_on_c, 6, 76, 64
9, 7200, Note_on_c, 6, 76, 0
9, 7200, Note_on_c, 6, 69, 64
9, 7260, Note_on_c, 6, 69, 0
9, 7320, Note_on_c, 6, 81, 64
9, 7500, Note_on_c, 6, 81, 0
9, 7500, Note_on_c, 6, 78, 64
9, 7530, Note_on_c, 6, 78, 0
9, 7530, Note_on_c, 6, 74, 64
9, 7560, Note_on_c, 6, 74, 0
9, 7560, Note_on_c, 6, 76, 64
9, 7590, Note_on_c, 6, 76, 0
9, 7590, Note_on_c, 6, 73, 64
9, 7620, Note_on_c, 6, 73, 0
9, 7620, Note_on_c, 6, 69, 64
9, 7650, Note_on_c, 6, 69, 0
9, 7650, Note_on_c, 6, 73, 64
9, 7680, Note_on_c, 6, 73, 0
9, 7680, Note_on_c, 6, 74, 64
9, 7770, Note_on_c, 6, 74, 0
9, 7770, Note_on_c, 6, 76, 64
9, 7800, Note_on_c, 6, 76, 0
9, 7800, Note_on_c, 6, 73, 64
9, 7890, Note_on_c, 6, 73, 0
9, 7890, Note_on_c, 6, 74, 64
9, 7920, Note_on_c, 6, 74, 0
9, 7920, Note_on_c, 6, 74, 64
9, 8040, Note_on_c, 6, 74, 0
9, 8040, Note_on_c, 6, 74, 55
9, 8100, Note_on_c, 6, 74, 0
9, 8100, Note_on_c, 6, 74, 55
9, 8130, Note_on_c, 6, 74, 0
9, 8130, Note_on_c, 6, 74, 55
9, 8160, Note_on_c, 6, 74, 0
9, 8160, Note_on_c, 6, 74, 55
9, 8220, Note_on_c, 6, 74, 0
9, 8220, Note_on_c, 6, 73, 55
9, 8250, Note_on_c, 6, 73, 0
9, 8250, Note_on_c, 6, 71, 55
9, 8280, Note_on_c, 6, 71, 0
9, 8280, Note_on_c, 6, 73, 55
9, 8315, Note_on_c, 6, 73, 0
9, 8340, Note_on_c, 6, 73, 55
9, 8400, Note_on_c, 6, 73, 0
9, 8400, Note_on_c, 6, 73, 55
9, 8430, Note_on_c, 6, 73, 0
9, 8430, Note_on_c, 6, 69, 55
9, 8460, Note_on_c, 6, 69, 0
9, 8460, Note_on_c, 6, 71, 55
9, 8520, Note_on_c, 6, 71, 0
9, 8880, Note_on_c, 6, 71, 55
9, 9000, Note_on_c, 6, 71, 0
9, 9060, Note_on_c, 6, 71, 55
9, 9095, Note_on_c, 6, 71, 0
9, 9120, Note_on_c, 6, 71, 55
9, 9180, Note_on_c, 6, 71, 0
9, 9180, Note_on_c, 6, 69, 55
9, 9215, Note_on_c, 6, 69, 0
9, 9360, Note_on_c, 6, 69, 64
9, 9630, Note_on_c, 6, 69, 0
9, 9630, Note_on_c, 6, 67, 64
9, 9660, Note_on_c, 6, 67, 0
9, 9660, Note_on_c, 6, 67, 64
9, 9720, Note_on_c, 6, 67, 0
9, 9840, Note_on_c, 6, 74, 64
9, 10020, Note_on_c, 6, 74, 0
9, 10020, Note_on_c, 6, 74, 64
9, 10055, Note_on_c, 6, 74, 0
9, 10080, Note_on_c, 6, 74, 64
9, 10115, Note_on_c, 6, 74, 0
9, 10140, Note_on_c, 6, 72, 64
9, 10175, Note_on_c, 6, 72, 0
9, 10320, Note_on_c, 6, 72, 64
9, 10620, Note_on_c, 6, 72, 0
9, 10620, Note_on_c, 6, 71, 64
9, 10650, Note_on_c, 6, 71, 0
9, 10650, Note_on_c, 6, 69, 64
9, 10680, Note_on_c, 6, 69, 0
9, 10680, Note_on_c, 6, 74, 64
9, 10710, Note_on_c, 6, 74, 0
9, 10710, Note_on_c, 6, 72, 64
9, 10740, Note_on_c, 6, 72, 0
9, 10740, Note_on_c, 6, 71, 64
9, 10770, Note_on_c, 6, 71, 0
9, 10770, Note_on_c, 6, 69, 64
9, 10800, Note_on_c, 6, 69, 0
9, 10800, Note_on_c, 6, 67, 64
9, 10860, Note_on_c, 6, 67, 0
9, 10860, Note_on_c, 6, 62, 64
9, 10895, Note_on_c, 6, 62, 0
9, 10920, Note_on_c, 6, 67, 64
9, 10955, Note_on_c, 6, 67, 0
9, 10980, Note_on_c, 6, 71, 64
9, 11015, Note_on_c, 6, 71, 0
9, 11040, Note_on_c, 6, 69, 64
9, 11100, Note_on_c, 6, 69, 0
9, 11100, Note_on_c, 6, 69, 64
9, 11160, Note_on_c, 6, 69, 0
9, 11160, Note_on_c, 6, 69, 64
9, 11190, Note_on_c, 6, 69, 0
9, 11190, Note_on_c, 6, 76, 64
9, 11220, Note_on_c, 6, 76, 0
9, 11220, Note_on_c, 6, 74, 64
9, 11250, Note_on_c, 6, 74, 0
9, 11250, Note_on_c, 6, 72, 64
9, 11280, Note_on_c, 6, 72, 0
9, 11280, Note_on_c, 6, 71, 64
9, 11310, Note_on_c, 6, 71, 0
9, 11310, Note_on_c, 6, 69, 64
9, 11340, Note_on_c, 6, 69, 0
9, 11340, Note_on_c, 6, 71, 64
9, 11400, Note_on_c, 6, 71, 0
9, 11460, Note_on_c, 6, 74, 64
9, 11495, Note_on_c, 6, 74, 0
9, 11520, Note_on_c, 6, 73, 64
9, 11580, Note_on_c, 6, 73, 0
9, 11580, Note_on_c, 6, 73, 64
9, 11640, Note_on_c, 6, 73, 0
9, 11640, Note_on_c, 6, 73, 64
9, 11670, Note_on_c, 6, 73, 0
9, 11670, Note_on_c, 6, 79, 64
9, 11700, Note_on_c, 6, 79, 0
9, 11700, Note_on_c, 6, 78, 64
9, 11730, Note_on_c, 6, 78, 0
9, 11730, Note_on_c, 6, 76, 64
9, 11760, Note_on_c, 6, 76, 0
9, 11760, Note_on_c, 6, 74, 64
9, 11790, Note_on_c, 6, 74, 0
9, 11790, Note_on_c, 6, 73, 64
9, 11820, Note_on_c, 6, 73, 0
9, 11820, Note_on_c, 6, 74, 64
9, 11855, Note_on_c, 6, 74, 0
9, 11880, Note_on_c, 6, 79, 65
9, 11915, Note_on_c, 6, 79, 0
9, 11940, Note_on_c, 6, 76, 65
9, 11975, Note_on_c, 6, 76, 0
9, 12000, Note_on_c, 6, 73, 66
9, 12035, Note_on_c, 6, 73, 0
9, 12060, Note_on_c, 6, 71, 66
9, 12090, Note_on_c, 6, 71, 0
9, 12090, Note_on_c, 6, 69, 67
9, 12120, Note_on_c, 6, 69, 0
9, 12120, Note_on_c, 6, 78, 67
9, 12300, Note_on_c, 6, 78, 0
9, 12300, Note_on_c, 6, 67, 68
9, 12330, Note_on_c, 6, 67, 0
9, 12330, Note_on_c, 6, 66, 68
9, 12360, Note_on_c, 6, 66, 0
9, 12360, Note_on_c, 6, 67, 69
9, 12540, Note_on_c, 6, 67, 0
9, 12540, Note_on_c, 6, 76, 70
9, 12570, Note_on_c, 6, 76, 0
9, 12570, Note_on_c, 6, 74, 70
9, 12600, Note_on_c, 6, 74, 0
9, 12600, Note_on_c, 6, 76, 70
9, 12660, Note_on_c, 6, 76, 0
9, 12660, Note_on_c, 6, 67, 71
9, 12720, Note_on_c, 6, 67, 0
9, 12720, Note_on_c, 6, 66, 71
9, 12750, Note_on_c, 6, 66, 0
9, 12750, Note_on_c, 6, 69, 72
9, 12780, Note_on_c, 6, 69, 0
9, 12780, Note_on_c, 6, 71, 72
9, 12810, Note_on_c, 6, 71, 0
9, 12810, Note_on_c, 6, 73, 72
9, 12840, Note_on_c, 6, 73, 0
9, 12840, Note_on_c, 6, 74, 72
9, 13020, Note_on_c, 6, 74, 0
9, 13020, Note_on_c, 6, 73, 74
9, 13050, Note_on_c, 6, 73, 0
9, 13050, Note_on_c, 6, 71, 74
9, 13080, Note_on_c, 6, 71, 0
9, 13080, Note_on_c, 6, 73, 74
9, 13170, Note_on_c, 6, 73, 0
9, 13170, Note_on_c, 6, 74, 75
9, 13200, Note_on_c, 6, 74, 0
9, 13200, Note_on_c, 6, 74, 75
9, 13320, Note_on_c, 6, 74, 0
9, 16080, Note_on_c, 6, 69, 55
9, 16200, Note_on_c, 6, 69, 0
9, 16260, Note_on_c, 6, 69, 55
9, 16295, Note_on_c, 6, 69, 0
9, 16320, Note_on_c, 6, 71, 55
9, 16380, Note_on_c, 6, 71, 0
9, 16380, Note_on_c, 6, 69, 55
9, 16415, Note_on_c, 6, 69, 0
9, 16500, Note_on_c, 6, 69, 55
9, 16535, Note_on_c, 6, 69, 0
9, 16560, Note_on_c, 6, 71, 55
9, 16620, Note_on_c, 6, 71, 0
9, 16620, Note_on_c, 6, 74, 55
9, 16650, Note_on_c, 6, 74, 0
9, 16650, Note_on_c, 6, 72, 55
9, 16680, Note_on_c, 6, 72, 0
9, 16680, Note_on_c, 6, 74, 55
9, 16830, Note_on_c, 6, 74, 0
9, 16830, Note_on_c, 6, 71, 55
9, 16860, Note_on_c, 6, 71, 0
9, 16860, Note_on_c, 6, 72, 55
9, 16895, Note_on_c, 6, 72, 0
9, 17040, Note_on_c, 6, 64, 55
9, 17160, Note_on_c, 6, 64, 0
9, 17220, Note_on_c, 6, 64, 55
9, 17255, Note_on_c, 6, 64, 0
9, 17280, Note_on_c, 6, 71, 55
9, 17310, Note_on_c, 6, 71, 0
9, 17310, Note_on_c, 6, 67, 55
9, 17340, Note_on_c, 6, 67, 0
9, 17340, Note_on_c, 6, 64, 55
9, 17375, Note_on_c, 6, 64, 0
9, 17460, Note_on_c, 6, 64, 55
9, 17495, Note_on_c, 6, 64, 0
9, 17520, Note_on_c, 6, 66, 55
9, 17580, Note_on_c, 6, 66, 0
9, 17580, Note_on_c, 6, 67, 55
9, 17640, Note_on_c, 6, 67, 0
9, 17640, Note_on_c, 6, 69, 55
9, 17820, Note_on_c, 6, 69, 0
9, 17820, Note_on_c, 6, 67, 55
9, 17855, Note_on_c, 6, 67, 0
9, 17880, Note_on_c, 6, 72, 55
9, 17915, Note_on_c, 6, 72, 0
9, 17940, Note_on_c, 6, 71, 55
9, 17975, Note_on_c, 6, 71, 0
9, 18000, Note_on_c, 6, 70, 55
9, 18030, Note_on_c, 6, 70, 0
9, 18030, Note_on_c, 6, 66, 55
9, 18060, Note_on_c, 6, 66, 0
9, 18060, Note_on_c, 6, 66, 55
9, 18065, Note_on_c, 6, 66, 0
9, 18065, Note_on_c, 6, 67, 55
9, 18069, Note_on_c, 6, 67, 0
9, 18069, Note_on_c, 6, 66, 55
9, 18075, Note_on_c, 6, 66, 0
9, 18075, Note_on_c, 6, 64, 55
9, 18090, Note_on_c, 6, 64, 0
9, 18090, Note_on_c, 6, 66, 55
9, 18120, Note_on_c, 6, 66, 0
9, 18120, Note_on_c, 6, 71, 55
9, 18300, Note_on_c, 6, 71, 0
9, 18300, Note_on_c, 6, 70, 55
9, 18330, Note_on_c, 6, 70, 0
9, 18330, Note_on_c, 6, 68, 55
9, 18360, Note_on_c, 6, 68, 0
9, 18360, Note_on_c, 6, 70, 55
9, 18390, Note_on_c, 6, 70, 0
9, 18390, Note_on_c, 6, 66, 55
9, 18420, Note_on_c, 6, 66, 0
9, 18420, Note_on_c, 6, 71, 55
9, 18450, Note_on_c, 6, 71, 0
9, 18450, Note_on_c, 6, 73, 55
9, 18480, Note_on_c, 6, 73, 0
9, 18480, Note_on_c, 6, 74, 55
9, 18540, Note_on_c, 6, 74, 0
9, 18540, Note_on_c, 6, 73, 55
9, 18600, Note_on_c, 6, 73, 0
9, 18600, Note_on_c, 6, 71, 56
9, 18660, Note_on_c, 6, 71, 0
9, 18660, Note_on_c, 6, 70, 56
9, 18695, Note_on_c, 6, 70, 0
9, 18720, Note_on_c, 6, 71, 57
9, 19020, Note_on_c, 6, 71, 0
9, 19020, Note_on_c, 6, 69, 58
9, 19080, Note_on_c, 6, 69, 0
9, 19080, Note_on_c, 6, 67, 59
9, 19230, Note_on_c, 6, 67, 0
9, 19230, Note_on_c, 6, 66, 60
9, 19260, Note_on_c, 6, 66, 0
9, 19260, Note_on_c, 6, 66, 60
9, 19295, Note_on_c, 6, 66, 0
9, 19320, Note_on_c, 6, 76, 60
9, 19380, Note_on_c, 6, 76, 0
9, 19380, Note_on_c, 6, 74, 61
9, 19410, Note_on_c, 6, 74, 0
9, 19410, Note_on_c, 6, 73, 61
9, 19440, Note_on_c, 6, 73, 0
9, 19440, Note_on_c, 6, 74, 61
9, 19470, Note_on_c, 6, 74, 0
9, 19470, Note_on_c, 6, 76, 61
9, 19500, Note_on_c, 6, 76, 0
9, 19500, Note_on_c, 6, 78, 61
9, 19530, Note_on_c, 6, 78, 0
9, 19530, Note_on_c, 6, 74, 62
9, 19560, Note_on_c, 6, 74, 0
9, 19560, Note_on_c, 6, 71, 62
9, 19770, Note_on_c, 6, 71, 0
9, 19770, Note_on_c, 6, 73, 63
9, 19800, Note_on_c, 6, 73, 0
9, 19800, Note_on_c, 6, 70, 63
9, 19890, Note_on_c, 6, 70, 0
9, 19890, Note_on_c, 6, 71, 64
9, 19920, Note_on_c, 6, 71, 0
9, 19920, Note_on_c, 6, 71, 64
9, 20040, Note_on_c, 6, 71, 0
9, 22920, Note_on_c, 6, 74, 64
9, 22980, Note_on_c, 6, 74, 0
9, 22980, Note_on_c, 6, 71, 64
9, 23015, Note_on_c, 6, 71, 0
9, 23100, Note_on_c, 6, 74, 64
9, 23160, Note_on_c, 6, 74, 0
9, 23160, Note_on_c, 6, 76, 64
9, 23220, Note_on_c, 6, 76, 0
9, 23220, Note_on_c, 6, 74, 64
9, 23255, Note_on_c, 6, 74, 0
9, 23400, Note_on_c, 6, 71, 64
9, 23460, Note_on_c, 6, 71, 0
9, 23460, Note_on_c, 6, 74, 64
9, 23490, Note_on_c, 6, 74, 0
9, 23490, Note_on_c, 6, 73, 64
9, 23520, Note_on_c, 6, 73, 0
9, 23520, Note_on_c, 6, 74, 64
9, 23790, Note_on_c, 6, 74, 0
9, 23790, Note_on_c, 6, 71, 64
9, 23820, Note_on_c, 6, 71, 0
9, 23820, Note_on_c, 6, 72, 64
9, 23855, Note_on_c, 6, 72, 0
9, 23940, Note_on_c, 6, 69, 64
9, 24060, Note_on_c, 6, 69, 0
9, 24060, Note_on_c, 6, 69, 64
9, 24095, Note_on_c, 6, 69, 0
9, 24120, Note_on_c, 6, 71, 64
9, 24180, Note_on_c, 6, 71, 0
9, 24180, Note_on_c, 6, 69, 64
9, 24215, Note_on_c, 6, 69, 0
9, 24300, Note_on_c, 6, 64, 64
9, 24335, Note_on_c, 6, 64, 0
9, 24360, Note_on_c, 6, 66, 64
9, 24420, Note_on_c, 6, 66, 0
9, 24420, Note_on_c, 6, 68, 64
9, 24455, Note_on_c, 6, 68, 0
9, 24480, Note_on_c, 6, 69, 64
9, 24780, Note_on_c, 6, 69, 0
9, 24780, Note_on_c, 6, 67, 64
9, 24840, Note_on_c, 6, 67, 0
9, 24840, Note_on_c, 6, 72, 64
9, 24900, Note_on_c, 6, 72, 0
9, 24900, Note_on_c, 6, 71, 64
9, 24960, Note_on_c, 6, 71, 0
9, 24960, Note_on_c, 6, 69, 64
9, 24995, Note_on_c, 6, 69, 0
9, 25020, Note_on_c, 6, 66, 64
9, 25080, Note_on_c, 6, 66, 0
9, 25080, Note_on_c, 6, 71, 64
9, 25260, Note_on_c, 6, 71, 0
9, 25260, Note_on_c, 6, 69, 64
9, 25290, Note_on_c, 6, 69, 0
9, 25290, Note_on_c, 6, 67, 64
9, 25320, Note_on_c, 6, 67, 0
9, 25320, Note_on_c, 6, 69, 65
9, 25380, Note_on_c, 6, 69, 0
9, 25380, Note_on_c, 6, 71, 65
9, 25440, Note_on_c, 6, 71, 0
9, 25440, Note_on_c, 6, 72, 65
9, 25500, Note_on_c, 6, 72, 0
9, 25500, Note_on_c, 6, 71, 65
9, 25560, Note_on_c, 6, 71, 0
9, 25560, Note_on_c, 6, 69, 66
9, 25620, Note_on_c, 6, 69, 0
9, 25620, Note_on_c, 6, 68, 66
9, 25680, Note_on_c, 6, 68, 0
9, 25680, Note_on_c, 6, 69, 66
9, 25860, Note_on_c, 6, 69, 0
9, 25860, Note_on_c, 6, 67, 67
9, 25920, Note_on_c, 6, 67, 0
9, 25920, Note_on_c, 6, 66, 67
9, 26220, Note_on_c, 6, 66, 0
9, 26220, Note_on_c, 6, 64, 68
9, 26255, Note_on_c, 6, 64, 0
9, 26280, Note_on_c, 6, 72, 69
9, 26340, Note_on_c, 6, 72, 0
9, 26340, Note_on_c, 6, 71, 69
9, 26370, Note_on_c, 6, 71, 0
9, 26370, Note_on_c, 6, 69, 69
9, 26388, Note_on_c, 6, 69, 0
9, 26400, Note_on_c, 6, 71, 69
9, 26430, Note_on_c, 6, 71, 0
9, 26430, Note_on_c, 6, 76, 69
9, 26448, Note_on_c, 6, 76, 0
9, 26460, Note_on_c, 6, 72, 69
9, 26490, Note_on_c, 6, 72, 0
9, 26490, Note_on_c, 6, 69, 69
9, 26520, Note_on_c, 6, 69, 0
9, 26520, Note_on_c, 6, 66, 70
9, 26610, Note_on_c, 6, 66, 0
9, 26610, Note_on_c, 6, 64, 70
9, 26640, Note_on_c, 6, 64, 0
9, 26640, Note_on_c, 6, 64, 75
9, 26760, Note_on_c, 6, 64, 0
9, 26760, Note_on_c, 6, 76, 72
9, 26790, Note_on_c, 6, 76, 0
9, 26790, Note_on_c, 6, 75, 72
9, 26820, Note_on_c, 6, 75, 0
9, 26820, Note_on_c, 6, 76, 71
9, 26855, Note_on_c, 6, 76, 0
9, 27000, Note_on_c, 6, 78, 67
9, 27060, Note_on_c, 6, 78, 0
9, 27060, Note_on_c, 6, 76, 66
9, 27095, Note_on_c, 6, 76, 0
9, 27180, Note_on_c, 6, 74, 64
9, 27215, Note_on_c, 6, 74, 0
9, 27240, Note_on_c, 6, 74, 62
9, 27270, Note_on_c, 6, 74, 0
9, 27270, Note_on_c, 6, 72, 62
9, 27300, Note_on_c, 6, 72, 0
9, 27300, Note_on_c, 6, 74, 61
9, 27335, Note_on_c, 6, 74, 0
9, 27420, Note_on_c, 6, 74, 59
9, 27510, Note_on_c, 6, 74, 0
9, 27510, Note_on_c, 6, 76, 57
9, 27540, Note_on_c, 6, 76, 0
9, 27540, Note_on_c, 6, 72, 56
9, 27575, Note_on_c, 6, 72, 0
9, 27660, Note_on_c, 6, 64, 64
9, 27720, Note_on_c, 6, 64, 0
9, 27720, Note_on_c, 6, 72, 64
9, 27960, Note_on_c, 6, 72, 0
9, 27960, Note_on_c, 6, 71, 64
9, 28020, Note_on_c, 6, 71, 0
9, 28020, Note_on_c, 6, 69, 64
9, 28055, Note_on_c, 6, 69, 0
9, 28080, Note_on_c, 6, 67, 64
9, 28380, Note_on_c, 6, 67, 0
9, 28380, Note_on_c, 6, 66, 64
9, 28415, Note_on_c, 6, 66, 0
9, 28440, Note_on_c, 6, 66, 64
9, 28560, Note_on_c, 6, 66, 0
9, 28860, Note_on_c, 6, 66, 64
9, 28920, Note_on_c, 6, 66, 0
9, 28920, Note_on_c, 6, 78, 64
9, 28955, Note_on_c, 6, 78, 0
9, 28980, Note_on_c, 6, 78, 64
9, 29100, Note_on_c, 6, 78, 0
9, 29100, Note_on_c, 6, 76, 64
9, 29130, Note_on_c, 6, 76, 0
9, 29130, Note_on_c, 6, 75, 64
9, 29160, Note_on_c, 6, 75, 0
9, 29160, Note_on_c, 6, 76, 64
9, 29190, Note_on_c, 6, 76, 0
9, 29190, Note_on_c, 6, 74, 64
9, 29220, Note_on_c, 6, 74, 0
9, 29220, Note_on_c, 6, 72, 64
9, 29250, Note_on_c, 6, 72, 0
9, 29250, Note_on_c, 6, 71, 64
9, 29280, Note_on_c, 6, 71, 0
9, 29280, Note_on_c, 6, 70, 64
9, 29340, Note_on_c, 6, 70, 0
9, 29340, Note_on_c, 6, 71, 64
9, 29370, Note_on_c, 6, 71, 0
9, 29370, Note_on_c, 6, 69, 64
9, 29400, Note_on_c, 6, 69, 0
9, 29400, Note_on_c, 6, 71, 64
9, 29460, Note_on_c, 6, 71, 0
9, 29460, Note_on_c, 6, 72, 64
9, 29495, Note_on_c, 6, 72, 0
9, 29520, Note_on_c, 6, 67, 64
9, 29640, Note_on_c, 6, 67, 0
9, 29640, Note_on_c, 6, 66, 64
9, 29670, Note_on_c, 6, 66, 0
9, 29670, Note_on_c, 6, 64, 64
9, 29700, Note_on_c, 6, 64, 0
9, 29700, Note_on_c, 6, 66, 64
9, 29760, Note_on_c, 6, 66, 0
9, 29760, Note_on_c, 6, 64, 64
9, 29880, Note_on_c, 6, 64, 0
9, 31020, Note_on_c, 6, 69, 64
9, 31055, Note_on_c, 6, 69, 0
9, 31080, Note_on_c, 6, 69, 64
9, 31140, Note_on_c, 6, 69, 0
9, 31140, Note_on_c, 6, 69, 64
9, 31170, Note_on_c, 6, 69, 0
9, 31170, Note_on_c, 6, 69, 64
9, 31200, Note_on_c, 6, 69, 0
9, 31200, Note_on_c, 6, 69, 64
9, 31380, Note_on_c, 6, 69, 0
9, 31380, Note_on_c, 6, 64, 64
9, 31415, Note_on_c, 6, 64, 0
9, 31440, Note_on_c, 6, 64, 64
9, 31560, Note_on_c, 6, 64, 0
9, 31680, Note_on_c, 6, 69, 64
9, 31740, Note_on_c, 6, 69, 0
9, 31740, Note_on_c, 6, 76, 64
9, 31770, Note_on_c, 6, 76, 0
9, 31770, Note_on_c, 6, 74, 64
9, 31800, Note_on_c, 6, 74, 0
9, 31800, Note_on_c, 6, 72, 64
9, 31830, Note_on_c, 6, 72, 0
9, 31830, Note_on_c, 6, 71, 64
9, 31848, Note_on_c, 6, 71, 0
9, 31860, Note_on_c, 6, 69, 64
9, 31890, Note_on_c, 6, 69, 0
9, 31890, Note_on_c, 6, 67, 64
9, 31920, Note_on_c, 6, 67, 0
9, 31920, Note_on_c, 6, 66, 64
9, 31950, Note_on_c, 6, 66, 0
9, 31950, Note_on_c, 6, 64, 64
9, 31968, Note_on_c, 6, 64, 0
9, 31980, Note_on_c, 6, 62, 64
9, 32015, Note_on_c, 6, 62, 0
9, 32040, Note_on_c, 6, 74, 64
9, 32100, Note_on_c, 6, 74, 0
9, 32100, Note_on_c, 6, 74, 64
9, 32160, Note_on_c, 6, 74, 0
9, 32160, Note_on_c, 6, 74, 64
9, 32250, Note_on_c, 6, 74, 0
9, 32250, Note_on_c, 6, 76, 64
9, 32265, Note_on_c, 6, 76, 0
9, 32265, Note_on_c, 6, 77, 64
9, 32280, Note_on_c, 6, 77, 0
9, 32280, Note_on_c, 6, 76, 64
9, 32310, Note_on_c, 6, 76, 0
9, 32310, Note_on_c, 6, 74, 64
9, 32328, Note_on_c, 6, 74, 0
9, 32340, Note_on_c, 6, 72, 64
9, 32370, Note_on_c, 6, 72, 0
9, 32370, Note_on_c, 6, 71, 64
9, 32388, Note_on_c, 6, 71, 0
9, 32400, Note_on_c, 6, 76, 64
9, 32460, Note_on_c, 6, 76, 0
9, 32460, Note_on_c, 6, 72, 64
9, 32520, Note_on_c, 6, 72, 0
9, 32520, Note_on_c, 6, 76, 64
9, 32555, Note_on_c, 6, 76, 0
9, 32580, Note_on_c, 6, 79, 64
9, 32640, Note_on_c, 6, 79, 0
9, 32640, Note_on_c, 6, 72, 64
9, 32730, Note_on_c, 6, 72, 0
9, 32730, Note_on_c, 6, 74, 64
9, 32745, Note_on_c, 6, 74, 0
9, 32745, Note_on_c, 6, 76, 64
9, 32760, Note_on_c, 6, 76, 0
9, 32760, Note_on_c, 6, 74, 64
9, 32820, Note_on_c, 6, 74, 0
9, 32820, Note_on_c, 6, 72, 64
9, 32850, Note_on_c, 6, 72, 0
9, 32850, Note_on_c, 6, 72, 64
9, 32880, Note_on_c, 6, 72, 0
9, 32880, Note_on_c, 6, 72, 64
9, 32940, Note_on_c, 6, 72, 0
9, 32940, Note_on_c, 6, 71, 64
9, 32975, Note_on_c, 6, 71, 0
9, 33180, Note_on_c, 6, 66, 70
9, 33215, Note_on_c, 6, 66, 0
9, 33240, Note_on_c, 6, 67, 70
9, 33300, Note_on_c, 6, 67, 0
9, 33300, Note_on_c, 6, 69, 70
9, 33360, Note_on_c, 6, 69, 0
9, 33360, Note_on_c, 6, 70, 70
9, 33395, Note_on_c, 6, 70, 0
9, 33420, Note_on_c, 6, 75, 71
9, 33455, Note_on_c, 6, 75, 0
9, 33480, Note_on_c, 6, 74, 71
9, 33540, Note_on_c, 6, 74, 0
9, 33540, Note_on_c, 6, 72, 72
9, 33600, Note_on_c, 6, 72, 0
9, 33600, Note_on_c, 6, 70, 73
9, 33720, Note_on_c, 6, 70, 0
9, 33720, Note_on_c, 6, 71, 74
9, 33755, Note_on_c, 6, 71, 0
9, 33780, Note_on_c, 6, 72, 74
9, 33840, Note_on_c, 6, 72, 0
9, 33840, Note_on_c, 6, 74, 75
9, 33900, Note_on_c, 6, 74, 0
9, 33900, Note_on_c, 6, 75, 76
9, 33960, Note_on_c, 6, 75, 0
9, 33960, Note_on_c, 6, 77, 76
9, 33995, Note_on_c, 6, 77, 0
9, 34020, Note_on_c, 6, 74, 77
9, 34080, Note_on_c, 6, 74, 0
9, 34080, Note_on_c, 6, 71, 78
9, 34140, Note_on_c, 6, 71, 0
9, 34140, Note_on_c, 6, 67, 78
9, 34200, Note_on_c, 6, 67, 0
9, 34200, Note_on_c, 6, 71, 79
9, 34235, Note_on_c, 6, 71, 0
9, 34260, Note_on_c, 6, 74, 79
9, 34320, Note_on_c, 6, 74, 0
9, 34320, Note_on_c, 6, 75, 75
9, 34410, Note_on_c, 6, 75, 0
9, 34410, Note_on_c, 6, 77, 75
9, 34425, Note_on_c, 6, 77, 0
9, 34425, Note_on_c, 6, 79, 75
9, 34440, Note_on_c, 6, 79, 0
9, 34440, Note_on_c, 6, 72, 75
9, 34475, Note_on_c, 6, 72, 0
9, 34500, Note_on_c, 6, 75, 75
9, 34560, Note_on_c, 6, 75, 0
9, 34560, Note_on_c, 6, 75, 75
9, 34680, Note_on_c, 6, 75, 0
9, 34680, Note_on_c, 6, 74, 75
9, 34715, Note_on_c, 6, 74, 0
9, 34740, Note_on_c, 6, 72, 75
9, 34800, Note_on_c, 6, 72, 0
9, 34800, Note_on_c, 6, 70, 75
9, 35040, Note_on_c, 6, 70, 0
9, 35040, Note_on_c, 6, 69, 69
9, 35160, Note_on_c, 6, 69, 0
9, 35280, Note_on_c, 6, 62, 64
9, 35340, Note_on_c, 6, 62, 0
9, 35340, Note_on_c, 6, 66, 66
9, 35400, Note_on_c, 6, 66, 0
9, 35400, Note_on_c, 6, 66, 68
9, 35460, Note_on_c, 6, 66, 0
9, 35460, Note_on_c, 6, 69, 70
9, 35520, Note_on_c, 6, 69, 0
9, 35520, Note_on_c, 6, 69, 72
9, 35580, Note_on_c, 6, 69, 0
9, 35580, Note_on_c, 6, 72, 74
9, 35610, Note_on_c, 6, 72, 0
9, 35610, Note_on_c, 6, 70, 75
9, 35640, Note_on_c, 6, 70, 0
9, 35640, Note_on_c, 6, 72, 76
9, 35820, Note_on_c, 6, 72, 0
9, 35820, Note_on_c, 6, 70, 80
9, 35850, Note_on_c, 6, 70, 0
9, 35850, Note_on_c, 6, 69, 80
9, 35880, Note_on_c, 6, 69, 0
9, 35880, Note_on_c, 6, 70, 80
9, 35915, Note_on_c, 6, 70, 0
9, 35940, Note_on_c, 6, 67, 80
9, 36000, Note_on_c, 6, 67, 0
9, 36000, Note_on_c, 6, 67, 80
9, 36300, Note_on_c, 6, 67, 0
9, 36300, Note_on_c, 6, 66, 80
9, 36330, Note_on_c, 6, 66, 0
9, 36330, Note_on_c, 6, 64, 80
9, 36360, Note_on_c, 6, 64, 0
9, 36360, Note_on_c, 6, 66, 80
9, 36480, Note_on_c, 6, 66, 0
9, 36480, Note_on_c, 6, 67, 80
9, 36600, Note_on_c, 6, 67, 0
9, 38640, End_track
10, 0, Start_track
10, 0, MIDI_port, 0
10, 0, Title_t, "Alto"
10, 0, Program_c, 7, 52
10, 0, Control_c, 7, 91, 127
10, 4200, Note_on_c, 7, 67, 64
10, 4320, Note_on_c, 7, 67, 0
10, 4380, Note_on_c, 7, 67, 64
10, 4415, Note_on_c, 7, 67, 0
10, 4440, Note_on_c, 7, 69, 64
10, 4500, Note_on_c, 7, 69, 0
10, 4500, Note_on_c, 7, 67, 64
10, 4535, Note_on_c, 7, 67, 0
10, 4620, Note_on_c, 7, 62, 64
10, 4680, Note_on_c, 7, 62, 0
10, 4680, Note_on_c, 7, 64, 64
10, 4740, Note_on_c, 7, 64, 0
10, 4740, Note_on_c, 7, 66, 64
10, 4800, Note_on_c, 7, 66, 0
10, 4800, Note_on_c, 7, 67, 64
10, 5100, Note_on_c, 7, 67, 0
10, 5100, Note_on_c, 7, 71, 64
10, 5130, Note_on_c, 7, 71, 0
10, 5130, Note_on_c, 7, 64, 64
10, 5160, Note_on_c, 7, 64, 0
10, 5160, Note_on_c, 7, 67, 64
10, 5190, Note_on_c, 7, 67, 0
10, 5190, Note_on_c, 7, 66, 64
10, 5220, Note_on_c, 7, 66, 0
10, 5220, Note_on_c, 7, 64, 64
10, 5250, Note_on_c, 7, 64, 0
10, 5250, Note_on_c, 7, 62, 64
10, 5280, Note_on_c, 7, 62, 0
10, 5280, Note_on_c, 7, 64, 64
10, 5340, Note_on_c, 7, 64, 0
10, 5340, Note_on_c, 7, 57, 64
10, 5400, Note_on_c, 7, 57, 0
10, 5400, Note_on_c, 7, 69, 64
10, 5580, Note_on_c, 7, 69, 0
10, 5580, Note_on_c, 7, 67, 65
10, 5610, Note_on_c, 7, 67, 0
10, 5610, Note_on_c, 7, 66, 66
10, 5640, Note_on_c, 7, 66, 0
10, 5640, Note_on_c, 7, 69, 66
10, 5670, Note_on_c, 7, 69, 0
10, 5670, Note_on_c, 7, 67, 67
10, 5700, Note_on_c, 7, 67, 0
10, 5700, Note_on_c, 7, 66, 67
10, 5730, Note_on_c, 7, 66, 0
10, 5730, Note_on_c, 7, 64, 68
10, 5760, Note_on_c, 7, 64, 0
10, 5760, Note_on_c, 7, 66, 68
10, 5820, Note_on_c, 7, 66, 0
10, 5820, Note_on_c, 7, 59, 69
10, 5880, Note_on_c, 7, 59, 0
10, 5880, Note_on_c, 7, 71, 70
10, 6060, Note_on_c, 7, 71, 0
10, 6060, Note_on_c, 7, 69, 73
10, 6090, Note_on_c, 7, 69, 0
10, 6090, Note_on_c, 7, 67, 74
10, 6120, Note_on_c, 7, 67, 0
10, 6120, Note_on_c, 7, 71, 74
10, 6150, Note_on_c, 7, 71, 0
10, 6150, Note_on_c, 7, 69, 75
10, 6180, Note_on_c, 7, 69, 0
10, 6180, Note_on_c, 7, 67, 75
10, 6210, Note_on_c, 7, 67, 0
10, 6210, Note_on_c, 7, 66, 76
10, 6240, Note_on_c, 7, 66, 0
10, 6240, Note_on_c, 7, 67, 76
10, 6270, Note_on_c, 7, 67, 0
10, 6270, Note_on_c, 7, 66, 77
10, 6300, Note_on_c, 7, 66, 0
10, 6300, Note_on_c, 7, 67, 77
10, 6330, Note_on_c, 7, 67, 0
10, 6330, Note_on_c, 7, 71, 78
10, 6360, Note_on_c, 7, 71, 0
10, 6360, Note_on_c, 7, 69, 78
10, 6390, Note_on_c, 7, 69, 0
10, 6390, Note_on_c, 7, 67, 79
10, 6420, Note_on_c, 7, 67, 0
10, 6420, Note_on_c, 7, 66, 79
10, 6450, Note_on_c, 7, 66, 0
10, 6450, Note_on_c, 7, 64, 80
10, 6480, Note_on_c, 7, 64, 0
10, 6480, Note_on_c, 7, 66, 80
10, 6540, Note_on_c, 7, 66, 0
10, 6540, Note_on_c, 7, 64, 69
10, 6570, Note_on_c, 7, 64, 0
10, 6570, Note_on_c, 7, 62, 64
10, 6600, Note_on_c, 7, 62, 0
10, 6720, Note_on_c, 7, 67, 64
10, 6900, Note_on_c, 7, 67, 0
10, 6900, Note_on_c, 7, 66, 64
10, 6960, Note_on_c, 7, 66, 0
10, 6960, Note_on_c, 7, 67, 64
10, 7020, Note_on_c, 7, 67, 0
10, 7020, Note_on_c, 7, 69, 64
10, 7080, Note_on_c, 7, 69, 0
10, 7080, Note_on_c, 7, 71, 64
10, 7140, Note_on_c, 7, 71, 0
10, 7140, Note_on_c, 7, 69, 64
10, 7170, Note_on_c, 7, 69, 0
10, 7170, Note_on_c, 7, 67, 64
10, 7200, Note_on_c, 7, 67, 0
10, 7200, Note_on_c, 7, 69, 64
10, 7260, Note_on_c, 7, 69, 0
10, 7260, Note_on_c, 7, 74, 64
10, 7320, Note_on_c, 7, 74, 0
10, 7320, Note_on_c, 7, 62, 64
10, 7440, Note_on_c, 7, 62, 0
10, 7500, Note_on_c, 7, 69, 64
10, 7620, Note_on_c, 7, 69, 0
10, 7620, Note_on_c, 7, 67, 64
10, 7680, Note_on_c, 7, 67, 0
10, 7680, Note_on_c, 7, 66, 64
10, 7740, Note_on_c, 7, 66, 0
10, 7740, Note_on_c, 7, 67, 64
10, 7770, Note_on_c, 7, 67, 0
10, 7770, Note_on_c, 7, 64, 64
10, 7800, Note_on_c, 7, 64, 0
10, 7800, Note_on_c, 7, 67, 64
10, 7830, Note_on_c, 7, 67, 0
10, 7830, Note_on_c, 7, 66, 64
10, 7860, Note_on_c, 7, 66, 0
10, 7860, Note_on_c, 7, 64, 64
10, 7890, Note_on_c, 7, 64, 0
10, 7890, Note_on_c, 7, 62, 64
10, 7920, Note_on_c, 7, 62, 0
10, 7920, Note_on_c, 7, 62, 64
10, 8040, Note_on_c, 7, 62, 0
10, 8520, Note_on_c, 7, 71, 55
10, 8580, Note_on_c, 7, 71, 0
10, 8580, Note_on_c, 7, 71, 55
10, 8610, Note_on_c, 7, 71, 0
10, 8610, Note_on_c, 7, 71, 55
10, 8640, Note_on_c, 7, 71, 0
10, 8640, Note_on_c, 7, 71, 55
10, 8700, Note_on_c, 7, 71, 0
10, 8700, Note_on_c, 7, 69, 55
10, 8730, Note_on_c, 7, 69, 0
10, 8730, Note_on_c, 7, 67, 55
10, 8760, Note_on_c, 7, 67, 0
10, 8760, Note_on_c, 7, 69, 55
10, 8795, Note_on_c, 7, 69, 0
10, 8820, Note_on_c, 7, 69, 55
10, 8880, Note_on_c, 7, 69, 0
10, 8880, Note_on_c, 7, 69, 55
10, 8910, Note_on_c, 7, 69, 0
10, 8910, Note_on_c, 7, 66, 55
10, 8940, Note_on_c, 7, 66, 0
10, 8940, Note_on_c, 7, 67, 55
10, 8975, Note_on_c, 7, 67, 0
10, 9000, Note_on_c, 7, 67, 55
10, 9120, Note_on_c, 7, 67, 0
10, 9180, Note_on_c, 7, 67, 55
10, 9215, Note_on_c, 7, 67, 0
10, 9240, Note_on_c, 7, 67, 55
10, 9300, Note_on_c, 7, 67, 0
10, 9300, Note_on_c, 7, 66, 55
10, 9335, Note_on_c, 7, 66, 0
10, 9480, Note_on_c, 7, 66, 64
10, 9750, Note_on_c, 7, 66, 0
10, 9750, Note_on_c, 7, 64, 64
10, 9780, Note_on_c, 7, 64, 0
10, 9780, Note_on_c, 7, 64, 64
10, 9840, Note_on_c, 7, 64, 0
10, 9960, Note_on_c, 7, 71, 64
10, 10140, Note_on_c, 7, 71, 0
10, 10140, Note_on_c, 7, 71, 64
10, 10175, Note_on_c, 7, 71, 0
10, 10200, Note_on_c, 7, 71, 64
10, 10235, Note_on_c, 7, 71, 0
10, 10260, Note_on_c, 7, 69, 64
10, 10295, Note_on_c, 7, 69, 0
10, 10440, Note_on_c, 7, 69, 64
10, 10740, Note_on_c, 7, 69, 0
10, 10740, Note_on_c, 7, 67, 64
10, 10770, Note_on_c, 7, 67, 0
10, 10770, Note_on_c, 7, 66, 64
10, 10800, Note_on_c, 7, 66, 0
10, 10800, Note_on_c, 7, 71, 64
10, 10830, Note_on_c, 7, 71, 0
10, 10830, Note_on_c, 7, 69, 64
10, 10860, Note_on_c, 7, 69, 0
10, 10860, Note_on_c, 7, 67, 64
10, 10890, Note_on_c, 7, 67, 0
10, 10890, Note_on_c, 7, 66, 64
10, 10920, Note_on_c, 7, 66, 0
10, 10920, Note_on_c, 7, 64, 64
10, 10980, Note_on_c, 7, 64, 0
10, 10980, Note_on_c, 7, 59, 64
10, 11015, Note_on_c, 7, 59, 0
10, 11040, Note_on_c, 7, 64, 64
10, 11075, Note_on_c, 7, 64, 0
10, 11100, Note_on_c, 7, 67, 64
10, 11135, Note_on_c, 7, 67, 0
10, 11160, Note_on_c, 7, 66, 64
10, 11220, Note_on_c, 7, 66, 0
10, 11220, Note_on_c, 7, 66, 64
10, 11280, Note_on_c, 7, 66, 0
10, 11280, Note_on_c, 7, 66, 64
10, 11310, Note_on_c, 7, 66, 0
10, 11310, Note_on_c, 7, 72, 64
10, 11340, Note_on_c, 7, 72, 0
10, 11340, Note_on_c, 7, 71, 64
10, 11370, Note_on_c, 7, 71, 0
10, 11370, Note_on_c, 7, 69, 64
10, 11400, Note_on_c, 7, 69, 0
10, 11400, Note_on_c, 7, 67, 64
10, 11430, Note_on_c, 7, 67, 0
10, 11430, Note_on_c, 7, 66, 64
10, 11460, Note_on_c, 7, 66, 0
10, 11460, Note_on_c, 7, 67, 64
10, 11520, Note_on_c, 7, 67, 0
10, 11580, Note_on_c, 7, 71, 64
10, 11615, Note_on_c, 7, 71, 0
10, 11640, Note_on_c, 7, 69, 64
10, 11700, Note_on_c, 7, 69, 0
10, 11700, Note_on_c, 7, 69, 64
10, 11760, Note_on_c, 7, 69, 0
10, 11760, Note_on_c, 7, 69, 64
10, 11790, Note_on_c, 7, 69, 0
10, 11790, Note_on_c, 7, 76, 64
10, 11820, Note_on_c, 7, 76, 0
10, 11820, Note_on_c, 7, 74, 64
10, 11850, Note_on_c, 7, 74, 0
10, 11850, Note_on_c, 7, 73, 65
10, 11880, Note_on_c, 7, 73, 0
10, 11880, Note_on_c, 7, 71, 65
10, 11910, Note_on_c, 7, 71, 0
10, 11910, Note_on_c, 7, 69, 65
10, 11940, Note_on_c, 7, 69, 0
10, 11940, Note_on_c, 7, 71, 65
10, 11975, Note_on_c, 7, 71, 0
10, 12000, Note_on_c, 7, 76, 66
10, 12035, Note_on_c, 7, 76, 0
10, 12060, Note_on_c, 7, 73, 66
10, 12095, Note_on_c, 7, 73, 0
10, 12120, Note_on_c, 7, 69, 67
10, 12155, Note_on_c, 7, 69, 0
10, 12180, Note_on_c, 7, 67, 67
10, 12210, Note_on_c, 7, 67, 0
10, 12210, Note_on_c, 7, 66, 67
10, 12240, Note_on_c, 7, 66, 0
10, 12240, Note_on_c, 7, 74, 68
10, 12420, Note_on_c, 7, 74, 0
10, 12420, Note_on_c, 7, 64, 69
10, 12450, Note_on_c, 7, 64, 0
10, 12450, Note_on_c, 7, 62, 69
10, 12480, Note_on_c, 7, 62, 0
10, 12480, Note_on_c, 7, 64, 70
10, 12780, Note_on_c, 7, 64, 0
10, 12780, Note_on_c, 7, 62, 72
10, 12810, Note_on_c, 7, 62, 0
10, 12810, Note_on_c, 7, 64, 72
10, 12840, Note_on_c, 7, 64, 0
10, 12840, Note_on_c, 7, 66, 72
10, 12900, Note_on_c, 7, 66, 0
10, 12900, Note_on_c, 7, 57, 73
10, 12960, Note_on_c, 7, 57, 0
10, 12960, Note_on_c, 7, 59, 73
10, 13020, Note_on_c, 7, 59, 0
10, 13020, Note_on_c, 7, 67, 74
10, 13080, Note_on_c, 7, 67, 0
10, 13080, Note_on_c, 7, 66, 74
10, 13140, Note_on_c, 7, 66, 0
10, 13140, Note_on_c, 7, 64, 75
10, 13170, Note_on_c, 7, 64, 0
10, 13170, Note_on_c, 7, 62, 75
10, 13200, Note_on_c, 7, 62, 0
10, 13200, Note_on_c, 7, 62, 75
10, 13320, Note_on_c, 7, 62, 0
10, 16200, Note_on_c, 7, 69, 55
10, 16320, Note_on_c, 7, 69, 0
10, 16380, Note_on_c, 7, 69, 55
10, 16415, Note_on_c, 7, 69, 0
10, 16440, Note_on_c, 7, 71, 55
10, 16500, Note_on_c, 7, 71, 0
10, 16500, Note_on_c, 7, 69, 55
10, 16535, Note_on_c, 7, 69, 0
10, 16620, Note_on_c, 7, 64, 55
10, 16655, Note_on_c, 7, 64, 0
10, 16680, Note_on_c, 7, 66, 55
10, 16740, Note_on_c, 7, 66, 0
10, 16740, Note_on_c, 7, 69, 55
10, 16770, Note_on_c, 7, 69, 0
10, 16770, Note_on_c, 7, 68, 55
10, 16800, Note_on_c, 7, 68, 0
10, 16800, Note_on_c, 7, 69, 55
10, 17070, Note_on_c, 7, 69, 0
10, 17070, Note_on_c, 7, 66, 55
10, 17100, Note_on_c, 7, 66, 0
10, 17100, Note_on_c, 7, 67, 55
10, 17135, Note_on_c, 7, 67, 0
10, 17160, Note_on_c, 7, 64, 55
10, 17280, Note_on_c, 7, 64, 0
10, 17340, Note_on_c, 7, 64, 55
10, 17375, Note_on_c, 7, 64, 0
10, 17400, Note_on_c, 7, 71, 55
10, 17430, Note_on_c, 7, 71, 0
10, 17430, Note_on_c, 7, 67, 55
10, 17460, Note_on_c, 7, 67, 0
10, 17460, Note_on_c, 7, 64, 55
10, 17495, Note_on_c, 7, 64, 0
10, 17580, Note_on_c, 7, 59, 55
10, 17640, Note_on_c, 7, 59, 0
10, 17640, Note_on_c, 7, 61, 55
10, 17700, Note_on_c, 7, 61, 0
10, 17700, Note_on_c, 7, 63, 55
10, 17760, Note_on_c, 7, 63, 0
10, 17760, Note_on_c, 7, 64, 55
10, 18060, Note_on_c, 7, 64, 0
10, 18060, Note_on_c, 7, 62, 55
10, 18095, Note_on_c, 7, 62, 0
10, 18120, Note_on_c, 7, 67, 55
10, 18155, Note_on_c, 7, 67, 0
10, 18180, Note_on_c, 7, 66, 55
10, 18215, Note_on_c, 7, 66, 0
10, 18240, Note_on_c, 7, 64, 55
10, 18270, Note_on_c, 7, 64, 0
10, 18270, Note_on_c, 7, 61, 55
10, 18300, Note_on_c, 7, 61, 0
10, 18300, Note_on_c, 7, 61, 55
10, 18305, Note_on_c, 7, 61, 0
10, 18305, Note_on_c, 7, 62, 55
10, 18309, Note_on_c, 7, 62, 0
10, 18309, Note_on_c, 7, 61, 55
10, 18315, Note_on_c, 7, 61, 0
10, 18315, Note_on_c, 7, 59, 55
10, 18330, Note_on_c, 7, 59, 0
10, 18330, Note_on_c, 7, 61, 55
10, 18360, Note_on_c, 7, 61, 0
10, 18360, Note_on_c, 7, 66, 55
10, 18540, Note_on_c, 7, 66, 0
10, 18540, Note_on_c, 7, 64, 55
10, 18570, Note_on_c, 7, 64, 0
10, 18570, Note_on_c, 7, 62, 56
10, 18600, Note_on_c, 7, 62, 0
10, 18600, Note_on_c, 7, 64, 56
10, 18630, Note_on_c, 7, 64, 0
10, 18630, Note_on_c, 7, 59, 56
10, 18660, Note_on_c, 7, 59, 0
10, 18660, Note_on_c, 7, 64, 56
10, 18690, Note_on_c, 7, 64, 0
10, 18690, Note_on_c, 7, 66, 56
10, 18720, Note_on_c, 7, 66, 0
10, 18720, Note_on_c, 7, 67, 57
10, 18780, Note_on_c, 7, 67, 0
10, 18780, Note_on_c, 7, 66, 57
10, 18840, Note_on_c, 7, 66, 0
10, 18840, Note_on_c, 7, 64, 57
10, 18900, Note_on_c, 7, 64, 0
10, 18900, Note_on_c, 7, 63, 58
10, 18935, Note_on_c, 7, 63, 0
10, 18960, Note_on_c, 7, 64, 58
10, 19140, Note_on_c, 7, 64, 0
10, 19140, Note_on_c, 7, 62, 59
10, 19200, Note_on_c, 7, 62, 0
10, 19200, Note_on_c, 7, 61, 60
10, 19470, Note_on_c, 7, 61, 0
10, 19470, Note_on_c, 7, 59, 61
10, 19500, Note_on_c, 7, 59, 0
10, 19500, Note_on_c, 7, 59, 61
10, 19535, Note_on_c, 7, 59, 0
10, 19560, Note_on_c, 7, 67, 62
10, 19620, Note_on_c, 7, 67, 0
10, 19620, Note_on_c, 7, 66, 62
10, 19650, Note_on_c, 7, 66, 0
10, 19650, Note_on_c, 7, 64, 62
10, 19680, Note_on_c, 7, 64, 0
10, 19680, Note_on_c, 7, 66, 63
10, 19740, Note_on_c, 7, 66, 0
10, 19740, Note_on_c, 7, 67, 63
10, 19770, Note_on_c, 7, 67, 0
10, 19770, Note_on_c, 7, 64, 63
10, 19800, Note_on_c, 7, 64, 0
10, 19800, Note_on_c, 7, 61, 63
10, 19890, Note_on_c, 7, 61, 0
10, 19890, Note_on_c, 7, 59, 64
10, 19920, Note_on_c, 7, 59, 0
10, 19920, Note_on_c, 7, 59, 64
10, 20040, Note_on_c, 7, 59, 0
10, 22800, Note_on_c, 7, 62, 64
10, 22860, Note_on_c, 7, 62, 0
10, 22860, Note_on_c, 7, 59, 64
10, 22895, Note_on_c, 7, 59, 0
10, 22980, Note_on_c, 7, 62, 64
10, 23040, Note_on_c, 7, 62, 0
10, 23040, Note_on_c, 7, 64, 64
10, 23100, Note_on_c, 7, 64, 0
10, 23100, Note_on_c, 7, 62, 64
10, 23135, Note_on_c, 7, 62, 0
10, 23280, Note_on_c, 7, 64, 64
10, 23340, Note_on_c, 7, 64, 0
10, 23340, Note_on_c, 7, 67, 64
10, 23370, Note_on_c, 7, 67, 0
10, 23370, Note_on_c, 7, 66, 64
10, 23400, Note_on_c, 7, 66, 0
10, 23400, Note_on_c, 7, 67, 64
10, 23550, Note_on_c, 7, 67, 0
10, 23550, Note_on_c, 7, 64, 64
10, 23580, Note_on_c, 7, 64, 0
10, 23580, Note_on_c, 7, 66, 64
10, 23615, Note_on_c, 7, 66, 0
10, 23820, Note_on_c, 7, 69, 64
10, 23940, Note_on_c, 7, 69, 0
10, 23940, Note_on_c, 7, 69, 64
10, 23975, Note_on_c, 7, 69, 0
10, 24000, Note_on_c, 7, 71, 64
10, 24060, Note_on_c, 7, 71, 0
10, 24060, Note_on_c, 7, 69, 64
10, 24095, Note_on_c, 7, 69, 0
10, 24180, Note_on_c, 7, 57, 64
10, 24215, Note_on_c, 7, 57, 0
10, 24240, Note_on_c, 7, 59, 64
10, 24300, Note_on_c, 7, 59, 0
10, 24300, Note_on_c, 7, 60, 64
10, 24335, Note_on_c, 7, 60, 0
10, 24360, Note_on_c, 7, 62, 64
10, 24540, Note_on_c, 7, 62, 0
10, 24540, Note_on_c, 7, 60, 64
10, 24575, Note_on_c, 7, 60, 0
10, 24600, Note_on_c, 7, 65, 64
10, 24660, Note_on_c, 7, 65, 0
10, 24660, Note_on_c, 7, 64, 64
10, 24720, Note_on_c, 7, 64, 0
10, 24720, Note_on_c, 7, 63, 64
10, 24755, Note_on_c, 7, 63, 0
10, 24780, Note_on_c, 7, 59, 64
10, 24840, Note_on_c, 7, 59, 0
10, 24840, Note_on_c, 7, 64, 64
10, 25020, Note_on_c, 7, 64, 0
10, 25020, Note_on_c, 7, 63, 64
10, 25050, Note_on_c, 7, 63, 0
10, 25050, Note_on_c, 7, 61, 64
10, 25080, Note_on_c, 7, 61, 0
10, 25080, Note_on_c, 7, 63, 64
10, 25140, Note_on_c, 7, 63, 0
10, 25140, Note_on_c, 7, 66, 64
10, 25200, Note_on_c, 7, 66, 0
10, 25200, Note_on_c, 7, 67, 64
10, 25260, Note_on_c, 7, 67, 0
10, 25260, Note_on_c, 7, 66, 64
10, 25320, Note_on_c, 7, 66, 0
10, 25320, Note_on_c, 7, 64, 65
10, 25380, Note_on_c, 7, 64, 0
10, 25380, Note_on_c, 7, 63, 65
10, 25440, Note_on_c, 7, 63, 0
10, 25440, Note_on_c, 7, 64, 65
10, 25740, Note_on_c, 7, 64, 0
10, 25740, Note_on_c, 7, 62, 66
10, 25800, Note_on_c, 7, 62, 0
10, 25800, Note_on_c, 7, 60, 67
10, 25980, Note_on_c, 7, 60, 0
10, 25980, Note_on_c, 7, 59, 67
10, 26015, Note_on_c, 7, 59, 0
10, 26040, Note_on_c, 7, 69, 68
10, 26100, Note_on_c, 7, 69, 0
10, 26100, Note_on_c, 7, 67, 68
10, 26130, Note_on_c, 7, 67, 0
10, 26130, Note_on_c, 7, 66, 68
10, 26148, Note_on_c, 7, 66, 0
10, 26160, Note_on_c, 7, 67, 68
10, 26190, Note_on_c, 7, 67, 0
10, 26190, Note_on_c, 7, 69, 68
10, 26208, Note_on_c, 7, 69, 0
10, 26220, Note_on_c, 7, 71, 68
10, 26250, Note_on_c, 7, 71, 0
10, 26250, Note_on_c, 7, 67, 68
10, 26280, Note_on_c, 7, 67, 0
10, 26280, Note_on_c, 7, 64, 69
10, 26490, Note_on_c, 7, 64, 0
10, 26490, Note_on_c, 7, 66, 69
10, 26520, Note_on_c, 7, 66, 0
10, 26520, Note_on_c, 7, 63, 70
10, 26610, Note_on_c, 7, 63, 0
10, 26610, Note_on_c, 7, 64, 70
10, 26640, Note_on_c, 7, 64, 0
10, 26640, Note_on_c, 7, 64, 75
10, 26760, Note_on_c, 7, 64, 0
10, 26760, Note_on_c, 7, 67, 72
10, 26790, Note_on_c, 7, 67, 0
10, 26790, Note_on_c, 7, 66, 72
10, 26820, Note_on_c, 7, 66, 0
10, 26820, Note_on_c, 7, 67, 71
10, 26855, Note_on_c, 7, 67, 0
10, 27000, Note_on_c, 7, 69, 67
10, 27060, Note_on_c, 7, 69, 0
10, 27060, Note_on_c, 7, 67, 66
10, 27095, Note_on_c, 7, 67, 0
10, 27180, Note_on_c, 7, 71, 64
10, 27215, Note_on_c, 7, 71, 0
10, 27240, Note_on_c, 7, 71, 62
10, 27270, Note_on_c, 7, 71, 0
10, 27270, Note_on_c, 7, 69, 62
10, 27300, Note_on_c, 7, 69, 0
10, 27300, Note_on_c, 7, 71, 61
10, 27335, Note_on_c, 7, 71, 0
10, 27420, Note_on_c, 7, 71, 59
10, 27510, Note_on_c, 7, 71, 0
10, 27510, Note_on_c, 7, 72, 57
10, 27540, Note_on_c, 7, 72, 0
10, 27540, Note_on_c, 7, 69, 56
10, 27575, Note_on_c, 7, 69, 0
10, 27660, Note_on_c, 7, 76, 64
10, 27720, Note_on_c, 7, 76, 0
10, 27720, Note_on_c, 7, 69, 64
10, 27960, Note_on_c, 7, 69, 0
10, 27960, Note_on_c, 7, 67, 64
10, 28020, Note_on_c, 7, 67, 0
10, 28020, Note_on_c, 7, 66, 64
10, 28055, Note_on_c, 7, 66, 0
10, 28080, Note_on_c, 7, 64, 64
10, 28380, Note_on_c, 7, 64, 0
10, 28380, Note_on_c, 7, 63, 64
10, 28415, Note_on_c, 7, 63, 0
10, 28440, Note_on_c, 7, 63, 64
10, 28560, Note_on_c, 7, 63, 0
10, 28860, Note_on_c, 7, 63, 64
10, 28920, Note_on_c, 7, 63, 0
10, 28920, Note_on_c, 7, 69, 64
10, 28955, Note_on_c, 7, 69, 0
10, 28980, Note_on_c, 7, 69, 64
10, 29100, Note_on_c, 7, 69, 0
10, 29100, Note_on_c, 7, 67, 64
10, 29130, Note_on_c, 7, 67, 0
10, 29130, Note_on_c, 7, 66, 64
10, 29160, Note_on_c, 7, 66, 0
10, 29160, Note_on_c, 7, 67, 64
10, 29190, Note_on_c, 7, 67, 0
10, 29190, Note_on_c, 7, 66, 64
10, 29220, Note_on_c, 7, 66, 0
10, 29220, Note_on_c, 7, 64, 64
10, 29280, Note_on_c, 7, 64, 0
10, 29280, Note_on_c, 7, 64, 64
10, 29400, Note_on_c, 7, 64, 0
10, 29400, Note_on_c, 7, 64, 64
10, 29460, Note_on_c, 7, 64, 0
10, 29520, Note_on_c, 7, 64, 64
10, 29610, Note_on_c, 7, 64, 0
10, 29610, Note_on_c, 7, 66, 64
10, 29640, Note_on_c, 7, 66, 0
10, 29640, Note_on_c, 7, 63, 64
10, 29760, Note_on_c, 7, 63, 0
10, 29760, Note_on_c, 7, 64, 64
10, 29880, Note_on_c, 7, 64, 0
10, 30780, Note_on_c, 7, 62, 64
10, 30815, Note_on_c, 7, 62, 0
10, 30840, Note_on_c, 7, 62, 64
10, 30900, Note_on_c, 7, 62, 0
10, 30900, Note_on_c, 7, 62, 64
10, 30930, Note_on_c, 7, 62, 0
10, 30930, Note_on_c, 7, 62, 64
10, 30960, Note_on_c, 7, 62, 0
10, 30960, Note_on_c, 7, 62, 64
10, 31140, Note_on_c, 7, 62, 0
10, 31140, Note_on_c, 7, 57, 64
10, 31175, Note_on_c, 7, 57, 0
10, 31200, Note_on_c, 7, 57, 64
10, 31320, Note_on_c, 7, 57, 0
10, 31440, Note_on_c, 7, 64, 64
10, 31475, Note_on_c, 7, 64, 0
10, 31500, Note_on_c, 7, 71, 64
10, 31530, Note_on_c, 7, 71, 0
10, 31530, Note_on_c, 7, 69, 64
10, 31560, Note_on_c, 7, 69, 0
10, 31560, Note_on_c, 7, 68, 64
10, 31590, Note_on_c, 7, 68, 0
10, 31590, Note_on_c, 7, 66, 64
10, 31608, Note_on_c, 7, 66, 0
10, 31620, Note_on_c, 7, 64, 64
10, 31650, Note_on_c, 7, 64, 0
10, 31650, Note_on_c, 7, 62, 64
10, 31680, Note_on_c, 7, 62, 0
10, 31680, Note_on_c, 7, 60, 64
10, 31710, Note_on_c, 7, 60, 0
10, 31710, Note_on_c, 7, 59, 64
10, 31728, Note_on_c, 7, 59, 0
10, 31740, Note_on_c, 7, 57, 64
10, 31775, Note_on_c, 7, 57, 0
10, 31800, Note_on_c, 7, 69, 64
10, 31860, Note_on_c, 7, 69, 0
10, 31860, Note_on_c, 7, 69, 64
10, 31920, Note_on_c, 7, 69, 0
10, 31920, Note_on_c, 7, 69, 64
10, 32010, Note_on_c, 7, 69, 0
10, 32010, Note_on_c, 7, 71, 64
10, 32025, Note_on_c, 7, 71, 0
10, 32025, Note_on_c, 7, 72, 64
10, 32040, Note_on_c, 7, 72, 0
10, 32040, Note_on_c, 7, 71, 64
10, 32070, Note_on_c, 7, 71, 0
10, 32070, Note_on_c, 7, 69, 64
10, 32088, Note_on_c, 7, 69, 0
10, 32100, Note_on_c, 7, 67, 64
10, 32130, Note_on_c, 7, 67, 0
10, 32130, Note_on_c, 7, 66, 64
10, 32148, Note_on_c, 7, 66, 0
10, 32160, Note_on_c, 7, 71, 64
10, 32220, Note_on_c, 7, 71, 0
10, 32220, Note_on_c, 7, 67, 64
10, 32280, Note_on_c, 7, 67, 0
10, 32280, Note_on_c, 7, 71, 64
10, 32315, Note_on_c, 7, 71, 0
10, 32340, Note_on_c, 7, 74, 64
10, 32400, Note_on_c, 7, 74, 0
10, 32400, Note_on_c, 7, 67, 64
10, 32490, Note_on_c, 7, 67, 0
10, 32490, Note_on_c, 7, 69, 64
10, 32505, Note_on_c, 7, 69, 0
10, 32505, Note_on_c, 7, 71, 64
10, 32520, Note_on_c, 7, 71, 0
10, 32520, Note_on_c, 7, 69, 64
10, 32580, Note_on_c, 7, 69, 0
10, 32580, Note_on_c, 7, 67, 64
10, 32610, Note_on_c, 7, 67, 0
10, 32610, Note_on_c, 7, 67, 64
10, 32640, Note_on_c, 7, 67, 0
10, 32640, Note_on_c, 7, 67, 64
10, 32700, Note_on_c, 7, 67, 0
10, 32700, Note_on_c, 7, 66, 64
10, 32735, Note_on_c, 7, 66, 0
10, 32940, Note_on_c, 7, 62, 70
10, 32975, Note_on_c, 7, 62, 0
10, 33000, Note_on_c, 7, 64, 70
10, 33060, Note_on_c, 7, 64, 0
10, 33060, Note_on_c, 7, 66, 70
10, 33120, Note_on_c, 7, 66, 0
10, 33120, Note_on_c, 7, 67, 70
10, 33155, Note_on_c, 7, 67, 0
10, 33180, Note_on_c, 7, 72, 70
10, 33215, Note_on_c, 7, 72, 0
10, 33240, Note_on_c, 7, 70, 70
10, 33300, Note_on_c, 7, 70, 0
10, 33300, Note_on_c, 7, 69, 70
10, 33360, Note_on_c, 7, 69, 0
10, 33360, Note_on_c, 7, 67, 70
10, 33480, Note_on_c, 7, 67, 0
10, 33480, Note_on_c, 7, 65, 71
10, 33515, Note_on_c, 7, 65, 0
10, 33540, Note_on_c, 7, 63, 72
10, 33600, Note_on_c, 7, 63, 0
10, 33600, Note_on_c, 7, 65, 73
10, 33660, Note_on_c, 7, 65, 0
10, 33660, Note_on_c, 7, 67, 73
10, 33720, Note_on_c, 7, 67, 0
10, 33720, Note_on_c, 7, 65, 74
10, 33755, Note_on_c, 7, 65, 0
10, 33780, Note_on_c, 7, 68, 74
10, 33840, Note_on_c, 7, 68, 0
10, 33840, Note_on_c, 7, 68, 75
10, 33900, Note_on_c, 7, 68, 0
10, 33900, Note_on_c, 7, 67, 76
10, 33960, Note_on_c, 7, 67, 0
10, 33960, Note_on_c, 7, 68, 76
10, 33995, Note_on_c, 7, 68, 0
10, 34020, Note_on_c, 7, 65, 77
10, 34080, Note_on_c, 7, 65, 0
10, 34080, Note_on_c, 7, 62, 78
10, 34140, Note_on_c, 7, 62, 0
10, 34140, Note_on_c, 7, 62, 78
10, 34200, Note_on_c, 7, 62, 0
10, 34380, Note_on_c, 7, 60, 75
10, 34415, Note_on_c, 7, 60, 0
10, 34440, Note_on_c, 7, 63, 75
10, 34500, Note_on_c, 7, 63, 0
10, 34500, Note_on_c, 7, 67, 75
10, 34560, Note_on_c, 7, 67, 0
10, 34560, Note_on_c, 7, 66, 75
10, 34595, Note_on_c, 7, 66, 0
10, 34620, Note_on_c, 7, 72, 75
10, 34680, Note_on_c, 7, 72, 0
10, 34680, Note_on_c, 7, 70, 75
10, 34740, Note_on_c, 7, 70, 0
10, 34740, Note_on_c, 7, 69, 75
10, 34800, Note_on_c, 7, 69, 0
10, 34800, Note_on_c, 7, 67, 75
10, 34860, Note_on_c, 7, 67, 0
10, 34860, Note_on_c, 7, 69, 74
10, 34890, Note_on_c, 7, 69, 0
10, 34890, Note_on_c, 7, 66, 73
10, 34920, Note_on_c, 7, 66, 0
10, 34920, Note_on_c, 7, 67, 72
10, 35040, Note_on_c, 7, 67, 0
10, 35040, Note_on_c, 7, 66, 69
10, 35160, Note_on_c, 7, 66, 0
10, 35400, Note_on_c, 7, 62, 68
10, 35460, Note_on_c, 7, 62, 0
10, 35460, Note_on_c, 7, 66, 70
10, 35520, Note_on_c, 7, 66, 0
10, 35520, Note_on_c, 7, 66, 72
10, 35580, Note_on_c, 7, 66, 0
10, 35580, Note_on_c, 7, 69, 74
10, 35610, Note_on_c, 7, 69, 0
10, 35610, Note_on_c, 7, 67, 75
10, 35640, Note_on_c, 7, 67, 0
10, 35640, Note_on_c, 7, 69, 76
10, 35820, Note_on_c, 7, 69, 0
10, 35820, Note_on_c, 7, 67, 80
10, 35850, Note_on_c, 7, 67, 0
10, 35850, Note_on_c, 7, 66, 80
10, 35880, Note_on_c, 7, 66, 0
10, 35880, Note_on_c, 7, 67, 80
10, 35915, Note_on_c, 7, 67, 0
10, 35940, Note_on_c, 7, 63, 80
10, 36000, Note_on_c, 7, 63, 0
10, 36000, Note_on_c, 7, 61, 80
10, 36060, Note_on_c, 7, 61, 0
10, 36060, Note_on_c, 7, 62, 80
10, 36120, Note_on_c, 7, 62, 0
10, 36120, Note_on_c, 7, 55, 80
10, 36155, Note_on_c, 7, 55, 0
10, 36180, Note_on_c, 7, 63, 80
10, 36240, Note_on_c, 7, 63, 0
10, 36240, Note_on_c, 7, 58, 80
10, 36360, Note_on_c, 7, 58, 0
10, 36360, Note_on_c, 7, 57, 80
10, 36420, Note_on_c, 7, 57, 0
10, 36420, Note_on_c, 7, 55, 80
10, 36455, Note_on_c, 7, 55, 0
10, 36480, Note_on_c, 7, 55, 80
10, 36600, Note_on_c, 7, 55, 0
10, 38640, End_track
11, 0, Start_track
11, 0, MIDI_port, 0
11, 0, Title_t, "Continuo"
11, 0, Program_c, 8, 19
11, 0, Control_c, 8, 7, 100
11, 0, Control_c, 8, 91, 127
11, 240, Note_on_c, 8, 43, 50
11, 275, Note_on_c, 8, 43, 0
11, 300, Note_on_c, 8, 45, 50
11, 335, Note_on_c, 8, 45, 0
11, 360, Note_on_c, 8, 47, 50
11, 395, Note_on_c, 8, 47, 0
11, 420, Note_on_c, 8, 43, 50
11, 455, Note_on_c, 8, 43, 0
11, 480, Note_on_c, 8, 48, 50
11, 515, Note_on_c, 8, 48, 0
11, 540, Note_on_c, 8, 47, 50
11, 575, Note_on_c, 8, 47, 0
11, 600, Note_on_c, 8, 48, 50
11, 635, Note_on_c, 8, 48, 0
11, 660, Note_on_c, 8, 47, 50
11, 695, Note_on_c, 8, 47, 0
11, 720, Note_on_c, 8, 48, 50
11, 755, Note_on_c, 8, 48, 0
11, 780, Note_on_c, 8, 47, 50
11, 815, Note_on_c, 8, 47, 0
11, 840, Note_on_c, 8, 45, 50
11, 875, Note_on_c, 8, 45, 0
11, 900, Note_on_c, 8, 50, 50
11, 935, Note_on_c, 8, 50, 0
11, 960, Note_on_c, 8, 43, 50
11, 995, Note_on_c, 8, 43, 0
11, 1020, Note_on_c, 8, 55, 50
11, 1055, Note_on_c, 8, 55, 0
11, 1140, Note_on_c, 8, 52, 50
11, 1175, Note_on_c, 8, 52, 0
11, 1200, Note_on_c, 8, 49, 50
11, 1260, Note_on_c, 8, 49, 0
11, 1260, Note_on_c, 8, 50, 50
11, 1295, Note_on_c, 8, 50, 0
11, 1380, Note_on_c, 8, 47, 50
11, 1415, Note_on_c, 8, 47, 0
11, 1440, Note_on_c, 8, 52, 50
11, 1475, Note_on_c, 8, 52, 0
11, 1500, Note_on_c, 8, 55, 50
11, 1535, Note_on_c, 8, 55, 0
11, 1620, Note_on_c, 8, 52, 50
11, 1655, Note_on_c, 8, 52, 0
11, 1680, Note_on_c, 8, 57, 50
11, 1740, Note_on_c, 8, 57, 0
11, 1740, Note_on_c, 8, 45, 50
11, 1775, Note_on_c, 8, 45, 0
11, 1860, Note_on_c, 8, 57, 50
11, 1895, Note_on_c, 8, 57, 0
11, 1920, Note_on_c, 8, 59, 50
11, 1980, Note_on_c, 8, 59, 0
11, 1980, Note_on_c, 8, 55, 50
11, 2015, Note_on_c, 8, 55, 0
11, 2040, Note_on_c, 8, 57, 50
11, 2075, Note_on_c, 8, 57, 0
11, 2100, Note_on_c, 8, 45, 50
11, 2135, Note_on_c, 8, 45, 0
11, 2160, Note_on_c, 8, 50, 64
11, 2195, Note_on_c, 8, 50, 0
11, 2220, Note_on_c, 8, 52, 64
11, 2255, Note_on_c, 8, 52, 0
11, 2280, Note_on_c, 8, 54, 64
11, 2315, Note_on_c, 8, 54, 0
11, 2340, Note_on_c, 8, 50, 64
11, 2375, Note_on_c, 8, 50, 0
11, 2400, Note_on_c, 8, 55, 64
11, 2435, Note_on_c, 8, 55, 0
11, 2460, Note_on_c, 8, 54, 64
11, 2495, Note_on_c, 8, 54, 0
11, 2520, Note_on_c, 8, 55, 64
11, 2555, Note_on_c, 8, 55, 0
11, 2580, Note_on_c, 8, 54, 64
11, 2615, Note_on_c, 8, 54, 0
11, 2640, Note_on_c, 8, 55, 64
11, 2675, Note_on_c, 8, 55, 0
11, 2700, Note_on_c, 8, 54, 64
11, 2735, Note_on_c, 8, 54, 0
11, 2760, Note_on_c, 8, 52, 64
11, 2795, Note_on_c, 8, 52, 0
11, 2820, Note_on_c, 8, 45, 64
11, 2855, Note_on_c, 8, 45, 0
11, 2880, Note_on_c, 8, 50, 64
11, 2915, Note_on_c, 8, 50, 0
11, 2940, Note_on_c, 8, 38, 64
11, 2975, Note_on_c, 8, 38, 0
11, 3060, Note_on_c, 8, 54, 64
11, 3095, Note_on_c, 8, 54, 0
11, 3120, Note_on_c, 8, 57, 64
11, 3155, Note_on_c, 8, 57, 0
11, 3180, Note_on_c, 8, 45, 64
11, 3215, Note_on_c, 8, 45, 0
11, 3300, Note_on_c, 8, 48, 64
11, 3335, Note_on_c, 8, 48, 0
11, 3360, Note_on_c, 8, 52, 64
11, 3395, Note_on_c, 8, 52, 0
11, 3420, Note_on_c, 8, 40, 64
11, 3455, Note_on_c, 8, 40, 0
11, 3540, Note_on_c, 8, 45, 64
11, 3575, Note_on_c, 8, 45, 0
11, 3600, Note_on_c, 8, 50, 64
11, 3635, Note_on_c, 8, 50, 0
11, 3660, Note_on_c, 8, 38, 64
11, 3695, Note_on_c, 8, 38, 0
11, 3780, Note_on_c, 8, 50, 64
11, 3815, Note_on_c, 8, 50, 0
11, 3840, Note_on_c, 8, 52, 64
11, 3875, Note_on_c, 8, 52, 0
11, 3900, Note_on_c, 8, 48, 64
11, 3935, Note_on_c, 8, 48, 0
11, 3960, Note_on_c, 8, 50, 64
11, 3995, Note_on_c, 8, 50, 0
11, 4020, Note_on_c, 8, 38, 64
11, 4055, Note_on_c, 8, 38, 0
11, 4080, Note_on_c, 8, 43, 50
11, 4080, Note_on_c, 8, 59, 50
11, 4115, Note_on_c, 8, 59, 0
11, 4115, Note_on_c, 8, 43, 0
11, 4140, Note_on_c, 8, 45, 50
11, 4140, Note_on_c, 8, 60, 50
11, 4175, Note_on_c, 8, 60, 0
11, 4175, Note_on_c, 8, 45, 0
11, 4200, Note_on_c, 8, 47, 50
11, 4200, Note_on_c, 8, 62, 50
11, 4235, Note_on_c, 8, 62, 0
11, 4235, Note_on_c, 8, 47, 0
11, 4260, Note_on_c, 8, 43, 50
11, 4260, Note_on_c, 8, 59, 50
11, 4295, Note_on_c, 8, 59, 0
11, 4295, Note_on_c, 8, 43, 0
11, 4320, Note_on_c, 8, 48, 50
11, 4320, Note_on_c, 8, 64, 50
11, 4355, Note_on_c, 8, 64, 0
11, 4355, Note_on_c, 8, 48, 0
11, 4380, Note_on_c, 8, 47, 50
11, 4380, Note_on_c, 8, 62, 50
11, 4415, Note_on_c, 8, 62, 0
11, 4415, Note_on_c, 8, 47, 0
11, 4440, Note_on_c, 8, 48, 50
11, 4440, Note_on_c, 8, 64, 50
11, 4475, Note_on_c, 8, 64, 0
11, 4475, Note_on_c, 8, 48, 0
11, 4500, Note_on_c, 8, 47, 50
11, 4500, Note_on_c, 8, 62, 50
11, 4535, Note_on_c, 8, 62, 0
11, 4535, Note_on_c, 8, 47, 0
11, 4560, Note_on_c, 8, 48, 50
11, 4560, Note_on_c, 8, 64, 50
11, 4595, Note_on_c, 8, 64, 0
11, 4595, Note_on_c, 8, 48, 0
11, 4620, Note_on_c, 8, 47, 50
11, 4620, Note_on_c, 8, 62, 50
11, 4655, Note_on_c, 8, 62, 0
11, 4655, Note_on_c, 8, 47, 0
11, 4680, Note_on_c, 8, 45, 50
11, 4680, Note_on_c, 8, 60, 50
11, 4715, Note_on_c, 8, 60, 0
11, 4715, Note_on_c, 8, 45, 0
11, 4740, Note_on_c, 8, 50, 50
11, 4740, Note_on_c, 8, 62, 50
11, 4775, Note_on_c, 8, 62, 0
11, 4775, Note_on_c, 8, 50, 0
11, 4800, Note_on_c, 8, 43, 50
11, 4800, Note_on_c, 8, 59, 50
11, 4920, Note_on_c, 8, 59, 0
11, 4920, Note_on_c, 8, 43, 0
11, 5040, Note_on_c, 8, 50, 50
11, 5160, Note_on_c, 8, 50, 0
11, 5280, Note_on_c, 8, 45, 50
11, 5400, Note_on_c, 8, 45, 0
11, 5520, Note_on_c, 8, 52, 40
11, 5640, Note_on_c, 8, 52, 0
11, 5760, Note_on_c, 8, 47, 40
11, 5880, Note_on_c, 8, 47, 0
11, 6000, Note_on_c, 8, 52, 40
11, 6035, Note_on_c, 8, 52, 0
11, 6060, Note_on_c, 8, 57, 40
11, 6095, Note_on_c, 8, 57, 0
11, 6120, Note_on_c, 8, 54, 40
11, 6155, Note_on_c, 8, 54, 0
11, 6180, Note_on_c, 8, 50, 40
11, 6215, Note_on_c, 8, 50, 0
11, 6240, Note_on_c, 8, 55, 40
11, 6360, Note_on_c, 8, 55, 0
11, 6420, Note_on_c, 8, 43, 40
11, 6455, Note_on_c, 8, 43, 0
11, 6480, Note_on_c, 8, 50, 50
11, 6515, Note_on_c, 8, 50, 0
11, 6540, Note_on_c, 8, 52, 50
11, 6575, Note_on_c, 8, 52, 0
11, 6600, Note_on_c, 8, 54, 50
11, 6635, Note_on_c, 8, 54, 0
11, 6660, Note_on_c, 8, 50, 50
11, 6695, Note_on_c, 8, 50, 0
11, 6720, Note_on_c, 8, 55, 50
11, 6755, Note_on_c, 8, 55, 0
11, 6780, Note_on_c, 8, 54, 50
11, 6815, Note_on_c, 8, 54, 0
11, 6840, Note_on_c, 8, 52, 50
11, 6875, Note_on_c, 8, 52, 0
11, 6900, Note_on_c, 8, 59, 50
11, 6930, Note_on_c, 8, 59, 0
11, 6930, Note_on_c, 8, 57, 50
11, 6960, Note_on_c, 8, 57, 0
11, 6960, Note_on_c, 8, 55, 50
11, 6995, Note_on_c, 8, 55, 0
11, 7020, Note_on_c, 8, 54, 50
11, 7140, Note_on_c, 8, 54, 0
11, 7140, Note_on_c, 8, 52, 50
11, 7175, Note_on_c, 8, 52, 0
11, 7200, Note_on_c, 8, 50, 50
11, 7320, Note_on_c, 8, 50, 0
11, 7380, Note_on_c, 8, 38, 50
11, 7415, Note_on_c, 8, 38, 0
11, 7440, Note_on_c, 8, 45, 50
11, 7560, Note_on_c, 8, 45, 0
11, 7620, Note_on_c, 8, 57, 50
11, 7655, Note_on_c, 8, 57, 0
11, 7680, Note_on_c, 8, 59, 50
11, 7715, Note_on_c, 8, 59, 0
11, 7740, Note_on_c, 8, 55, 50
11, 7775, Note_on_c, 8, 55, 0
11, 7800, Note_on_c, 8, 57, 50
11, 7835, Note_on_c, 8, 57, 0
11, 7860, Note_on_c, 8, 45, 50
11, 7895, Note_on_c, 8, 45, 0
11, 7920, Note_on_c, 8, 50, 40
11, 7955, Note_on_c, 8, 50, 0
11, 7980, Note_on_c, 8, 52, 40
11, 8015, Note_on_c, 8, 52, 0
11, 8040, Note_on_c, 8, 54, 40
11, 8075, Note_on_c, 8, 54, 0
11, 8100, Note_on_c, 8, 55, 40
11, 8135, Note_on_c, 8, 55, 0
11, 8160, Note_on_c, 8, 57, 40
11, 8195, Note_on_c, 8, 57, 0
11, 8220, Note_on_c, 8, 45, 40
11, 8255, Note_on_c, 8, 45, 0
11, 8340, Note_on_c, 8, 46, 40
11, 8375, Note_on_c, 8, 46, 0
11, 8400, Note_on_c, 8, 47, 40
11, 8435, Note_on_c, 8, 47, 0
11, 8460, Note_on_c, 8, 49, 40
11, 8495, Note_on_c, 8, 49, 0
11, 8520, Note_on_c, 8, 50, 40
11, 8555, Note_on_c, 8, 50, 0
11, 8580, Note_on_c, 8, 52, 40
11, 8615, Note_on_c, 8, 52, 0
11, 8640, Note_on_c, 8, 54, 40
11, 8675, Note_on_c, 8, 54, 0
11, 8700, Note_on_c, 8, 42, 40
11, 8735, Note_on_c, 8, 42, 0
11, 8820, Note_on_c, 8, 38, 40
11, 8855, Note_on_c, 8, 38, 0
11, 8880, Note_on_c, 8, 43, 40
11, 8915, Note_on_c, 8, 43, 0
11, 8940, Note_on_c, 8, 45, 40
11, 8975, Note_on_c, 8, 45, 0
11, 9000, Note_on_c, 8, 47, 40
11, 9035, Note_on_c, 8, 47, 0
11, 9060, Note_on_c, 8, 49, 40
11, 9095, Note_on_c, 8, 49, 0
11, 9120, Note_on_c, 8, 50, 40
11, 9155, Note_on_c, 8, 50, 0
11, 9180, Note_on_c, 8, 52, 40
11, 9215, Note_on_c, 8, 52, 0
11, 9240, Note_on_c, 8, 50, 40
11, 9275, Note_on_c, 8, 50, 0
11, 9300, Note_on_c, 8, 48, 40
11, 9335, Note_on_c, 8, 48, 0
11, 9360, Note_on_c, 8, 47, 40
11, 9395, Note_on_c, 8, 47, 0
11, 9420, Note_on_c, 8, 49, 40
11, 9455, Note_on_c, 8, 49, 0
11, 9480, Note_on_c, 8, 51, 40
11, 9515, Note_on_c, 8, 51, 0
11, 9540, Note_on_c, 8, 47, 40
11, 9575, Note_on_c, 8, 47, 0
11, 9600, Note_on_c, 8, 52, 40
11, 9635, Note_on_c, 8, 52, 0
11, 9660, Note_on_c, 8, 54, 40
11, 9695, Note_on_c, 8, 54, 0
11, 9720, Note_on_c, 8, 55, 40
11, 9755, Note_on_c, 8, 55, 0
11, 9780, Note_on_c, 8, 57, 40
11, 9815, Note_on_c, 8, 57, 0
11, 9840, Note_on_c, 8, 59, 40
11, 9875, Note_on_c, 8, 59, 0
11, 9900, Note_on_c, 8, 57, 40
11, 9935, Note_on_c, 8, 57, 0
11, 9960, Note_on_c, 8, 56, 40
11, 9995, Note_on_c, 8, 56, 0
11, 10020, Note_on_c, 8, 52, 40
11, 10055, Note_on_c, 8, 52, 0
11, 10080, Note_on_c, 8, 57, 40
11, 10115, Note_on_c, 8, 57, 0
11, 10140, Note_on_c, 8, 52, 40
11, 10175, Note_on_c, 8, 52, 0
11, 10200, Note_on_c, 8, 48, 40
11, 10235, Note_on_c, 8, 48, 0
11, 10260, Note_on_c, 8, 52, 40
11, 10295, Note_on_c, 8, 52, 0
11, 10320, Note_on_c, 8, 57, 40
11, 10355, Note_on_c, 8, 57, 0
11, 10380, Note_on_c, 8, 55, 40
11, 10415, Note_on_c, 8, 55, 0
11, 10440, Note_on_c, 8, 54, 40
11, 10475, Note_on_c, 8, 54, 0
11, 10500, Note_on_c, 8, 50, 40
11, 10535, Note_on_c, 8, 50, 0
11, 10560, Note_on_c, 8, 55, 40
11, 10595, Note_on_c, 8, 55, 0
11, 10620, Note_on_c, 8, 50, 40
11, 10655, Note_on_c, 8, 50, 0
11, 10680, Note_on_c, 8, 47, 40
11, 10715, Note_on_c, 8, 47, 0
11, 10740, Note_on_c, 8, 50, 40
11, 10775, Note_on_c, 8, 50, 0
11, 10800, Note_on_c, 8, 43, 40
11, 10835, Note_on_c, 8, 43, 0
11, 10860, Note_on_c, 8, 47, 40
11, 10895, Note_on_c, 8, 47, 0
11, 10920, Note_on_c, 8, 52, 40
11, 10955, Note_on_c, 8, 52, 0
11, 10980, Note_on_c, 8, 50, 40
11, 11015, Note_on_c, 8, 50, 0
11, 11040, Note_on_c, 8, 48, 40
11, 11075, Note_on_c, 8, 48, 0
11, 11100, Note_on_c, 8, 45, 40
11, 11135, Note_on_c, 8, 45, 0
11, 11160, Note_on_c, 8, 50, 40
11, 11195, Note_on_c, 8, 50, 0
11, 11220, Note_on_c, 8, 38, 40
11, 11255, Note_on_c, 8, 38, 0
11, 11280, Note_on_c, 8, 55, 40
11, 11315, Note_on_c, 8, 55, 0
11, 11340, Note_on_c, 8, 54, 40
11, 11375, Note_on_c, 8, 54, 0
11, 11400, Note_on_c, 8, 52, 40
11, 11435, Note_on_c, 8, 52, 0
11, 11460, Note_on_c, 8, 50, 40
11, 11495, Note_on_c, 8, 50, 0
11, 11520, Note_on_c, 8, 52, 40
11, 11555, Note_on_c, 8, 52, 0
11, 11580, Note_on_c, 8, 49, 40
11, 11615, Note_on_c, 8, 49, 0
11, 11640, Note_on_c, 8, 54, 40
11, 11675, Note_on_c, 8, 54, 0
11, 11700, Note_on_c, 8, 42, 40
11, 11735, Note_on_c, 8, 42, 0
11, 11760, Note_on_c, 8, 47, 40
11, 11795, Note_on_c, 8, 47, 0
11, 11820, Note_on_c, 8, 59, 40
11, 11855, Note_on_c, 8, 59, 0
11, 11880, Note_on_c, 8, 52, 40
11, 11915, Note_on_c, 8, 52, 0
11, 11940, Note_on_c, 8, 55, 40
11, 11975, Note_on_c, 8, 55, 0
11, 12000, Note_on_c, 8, 57, 40
11, 12120, Note_on_c, 8, 57, 0
11, 12180, Note_on_c, 8, 50, 40
11, 12240, Note_on_c, 8, 50, 0
11, 12240, Note_on_c, 8, 59, 40
11, 12360, Note_on_c, 8, 59, 0
11, 12420, Note_on_c, 8, 47, 40
11, 12455, Note_on_c, 8, 47, 0
11, 12480, Note_on_c, 8, 49, 40
11, 12515, Note_on_c, 8, 49, 0
11, 12540, Note_on_c, 8, 47, 40
11, 12575, Note_on_c, 8, 47, 0
11, 12600, Note_on_c, 8, 49, 40
11, 12635, Note_on_c, 8, 49, 0
11, 12660, Note_on_c, 8, 45, 40
11, 12695, Note_on_c, 8, 45, 0
11, 12720, Note_on_c, 8, 50, 40
11, 12755, Note_on_c, 8, 50, 0
11, 12780, Note_on_c, 8, 49, 40
11, 12815, Note_on_c, 8, 49, 0
11, 12840, Note_on_c, 8, 47, 40
11, 12875, Note_on_c, 8, 47, 0
11, 12900, Note_on_c, 8, 54, 40
11, 12935, Note_on_c, 8, 54, 0
11, 12960, Note_on_c, 8, 55, 40
11, 12995, Note_on_c, 8, 55, 0
11, 13020, Note_on_c, 8, 52, 40
11, 13055, Note_on_c, 8, 52, 0
11, 13080, Note_on_c, 8, 57, 40
11, 13115, Note_on_c, 8, 57, 0
11, 13140, Note_on_c, 8, 45, 40
11, 13175, Note_on_c, 8, 45, 0
11, 13200, Note_on_c, 8, 50, 64
11, 13235, Note_on_c, 8, 50, 0
11, 13260, Note_on_c, 8, 52, 64
11, 13295, Note_on_c, 8, 52, 0
11, 13320, Note_on_c, 8, 54, 64
11, 13355, Note_on_c, 8, 54, 0
11, 13380, Note_on_c, 8, 50, 64
11, 13415, Note_on_c, 8, 50, 0
11, 13440, Note_on_c, 8, 55, 64
11, 13475, Note_on_c, 8, 55, 0
11, 13500, Note_on_c, 8, 54, 64
11, 13535, Note_on_c, 8, 54, 0
11, 13560, Note_on_c, 8, 55, 64
11, 13595, Note_on_c, 8, 55, 0
11, 13620, Note_on_c, 8, 54, 64
11, 13655, Note_on_c, 8, 54, 0
11, 13680, Note_on_c, 8, 55, 64
11, 13715, Note_on_c, 8, 55, 0
11, 13740, Note_on_c, 8, 54, 64
11, 13775, Note_on_c, 8, 54, 0
11, 13800, Note_on_c, 8, 52, 64
11, 13835, Note_on_c, 8, 52, 0
11, 13860, Note_on_c, 8, 57, 64
11, 13895, Note_on_c, 8, 57, 0
11, 13920, Note_on_c, 8, 50, 64
11, 13955, Note_on_c, 8, 50, 0
11, 13980, Note_on_c, 8, 52, 64
11, 14015, Note_on_c, 8, 52, 0
11, 14040, Note_on_c, 8, 54, 64
11, 14075, Note_on_c, 8, 54, 0
11, 14100, Note_on_c, 8, 50, 64
11, 14135, Note_on_c, 8, 50, 0
11, 14160, Note_on_c, 8, 43, 64
11, 14195, Note_on_c, 8, 43, 0
11, 14220, Note_on_c, 8, 45, 64
11, 14255, Note_on_c, 8, 45, 0
11, 14280, Note_on_c, 8, 47, 64
11, 14315, Note_on_c, 8, 47, 0
11, 14340, Note_on_c, 8, 43, 64
11, 14375, Note_on_c, 8, 43, 0
11, 14400, Note_on_c, 8, 48, 64
11, 14435, Note_on_c, 8, 48, 0
11, 14460, Note_on_c, 8, 47, 64
11, 14495, Note_on_c, 8, 47, 0
11, 14520, Note_on_c, 8, 48, 64
11, 14555, Note_on_c, 8, 48, 0
11, 14580, Note_on_c, 8, 47, 64
11, 14615, Note_on_c, 8, 47, 0
11, 14640, Note_on_c, 8, 48, 64
11, 14675, Note_on_c, 8, 48, 0
11, 14700, Note_on_c, 8, 47, 64
11, 14735, Note_on_c, 8, 47, 0
11, 14760, Note_on_c, 8, 45, 64
11, 14795, Note_on_c, 8, 45, 0
11, 14820, Note_on_c, 8, 50, 64
11, 14855, Note_on_c, 8, 50, 0
11, 14880, Note_on_c, 8, 43, 64
11, 14915, Note_on_c, 8, 43, 0
11, 14940, Note_on_c, 8, 55, 64
11, 14975, Note_on_c, 8, 55, 0
11, 15060, Note_on_c, 8, 52, 64
11, 15095, Note_on_c, 8, 52, 0
11, 15120, Note_on_c, 8, 49, 64
11, 15155, Note_on_c, 8, 49, 0
11, 15180, Note_on_c, 8, 50, 64
11, 15215, Note_on_c, 8, 50, 0
11, 15300, Note_on_c, 8, 47, 64
11, 15335, Note_on_c, 8, 47, 0
11, 15360, Note_on_c, 8, 52, 64
11, 15395, Note_on_c, 8, 52, 0
11, 15420, Note_on_c, 8, 55, 64
11, 15455, Note_on_c, 8, 55, 0
11, 15540, Note_on_c, 8, 52, 64
11, 15575, Note_on_c, 8, 52, 0
11, 15600, Note_on_c, 8, 57, 64
11, 15635, Note_on_c, 8, 57, 0
11, 15660, Note_on_c, 8, 45, 64
11, 15695, Note_on_c, 8, 45, 0
11, 15780, Note_on_c, 8, 57, 64
11, 15815, Note_on_c, 8, 57, 0
11, 15840, Note_on_c, 8, 59, 64
11, 15875, Note_on_c, 8, 59, 0
11, 15900, Note_on_c, 8, 55, 64
11, 15935, Note_on_c, 8, 55, 0
11, 15960, Note_on_c, 8, 57, 64
11, 15995, Note_on_c, 8, 57, 0
11, 16020, Note_on_c, 8, 45, 64
11, 16055, Note_on_c, 8, 45, 0
11, 16080, Note_on_c, 8, 50, 40
11, 16080, Note_on_c, 8, 54, 40
11, 16115, Note_on_c, 8, 54, 0
11, 16115, Note_on_c, 8, 50, 0
11, 16140, Note_on_c, 8, 54, 40
11, 16140, Note_on_c, 8, 57, 40
11, 16170, Note_on_c, 8, 57, 0
11, 16170, Note_on_c, 8, 54, 0
11, 16170, Note_on_c, 8, 52, 40
11, 16170, Note_on_c, 8, 55, 40
11, 16200, Note_on_c, 8, 55, 0
11, 16200, Note_on_c, 8, 52, 0
11, 16200, Note_on_c, 8, 50, 40
11, 16200, Note_on_c, 8, 54, 40
11, 16235, Note_on_c, 8, 54, 0
11, 16235, Note_on_c, 8, 50, 0
11, 16260, Note_on_c, 8, 54, 40
11, 16260, Note_on_c, 8, 57, 40
11, 16295, Note_on_c, 8, 57, 0
11, 16295, Note_on_c, 8, 54, 0
11, 16320, Note_on_c, 8, 55, 40
11, 16320, Note_on_c, 8, 59, 40
11, 16355, Note_on_c, 8, 59, 0
11, 16355, Note_on_c, 8, 55, 0
11, 16380, Note_on_c, 8, 54, 40
11, 16380, Note_on_c, 8, 57, 40
11, 16410, Note_on_c, 8, 57, 0
11, 16410, Note_on_c, 8, 54, 0
11, 16410, Note_on_c, 8, 52, 40
11, 16410, Note_on_c, 8, 55, 40
11, 16440, Note_on_c, 8, 55, 0
11, 16440, Note_on_c, 8, 52, 0
11, 16440, Note_on_c, 8, 50, 40
11, 16440, Note_on_c, 8, 54, 40
11, 16475, Note_on_c, 8, 54, 0
11, 16475, Note_on_c, 8, 50, 0
11, 16500, Note_on_c, 8, 48, 40
11, 16500, Note_on_c, 8, 57, 40
11, 16535, Note_on_c, 8, 57, 0
11, 16535, Note_on_c, 8, 48, 0
11, 16560, Note_on_c, 8, 47, 40
11, 16560, Note_on_c, 8, 55, 40
11, 16595, Note_on_c, 8, 55, 0
11, 16595, Note_on_c, 8, 47, 0
11, 16620, Note_on_c, 8, 45, 40
11, 16620, Note_on_c, 8, 52, 40
11, 16655, Note_on_c, 8, 52, 0
11, 16655, Note_on_c, 8, 45, 0
11, 16680, Note_on_c, 8, 38, 40
11, 16680, Note_on_c, 8, 50, 40
11, 16680, Note_on_c, 8, 54, 40
11, 16715, Note_on_c, 8, 54, 0
11, 16715, Note_on_c, 8, 50, 0
11, 16715, Note_on_c, 8, 38, 0
11, 16740, Note_on_c, 8, 40, 40
11, 16740, Note_on_c, 8, 47, 40
11, 16740, Note_on_c, 8, 56, 40
11, 16775, Note_on_c, 8, 56, 0
11, 16775, Note_on_c, 8, 47, 0
11, 16775, Note_on_c, 8, 40, 0
11, 16800, Note_on_c, 8, 45, 40
11, 16800, Note_on_c, 8, 48, 40
11, 16800, Note_on_c, 8, 57, 40
11, 16835, Note_on_c, 8, 57, 0
11, 16835, Note_on_c, 8, 48, 0
11, 16835, Note_on_c, 8, 45, 0
11, 16860, Note_on_c, 8, 43, 40
11, 16895, Note_on_c, 8, 43, 0
11, 16920, Note_on_c, 8, 42, 40
11, 16955, Note_on_c, 8, 42, 0
11, 16980, Note_on_c, 8, 47, 40
11, 16980, Note_on_c, 8, 59, 40
11, 16980, Note_on_c, 8, 63, 40
11, 17015, Note_on_c, 8, 63, 0
11, 17015, Note_on_c, 8, 59, 0
11, 17015, Note_on_c, 8, 47, 0
11, 17040, Note_on_c, 8, 40, 40
11, 17040, Note_on_c, 8, 55, 40
11, 17040, Note_on_c, 8, 64, 40
11, 17075, Note_on_c, 8, 64, 0
11, 17075, Note_on_c, 8, 55, 0
11, 17075, Note_on_c, 8, 40, 0
11, 17100, Note_on_c, 8, 52, 40
11, 17100, Note_on_c, 8, 55, 40
11, 17130, Note_on_c, 8, 55, 0
11, 17130, Note_on_c, 8, 52, 0
11, 17130, Note_on_c, 8, 54, 40
11, 17130, Note_on_c, 8, 57, 40
11, 17160, Note_on_c, 8, 57, 0
11, 17160, Note_on_c, 8, 54, 0
11, 17160, Note_on_c, 8, 55, 40
11, 17160, Note_on_c, 8, 59, 40
11, 17195, Note_on_c, 8, 59, 0
11, 17195, Note_on_c, 8, 55, 0
11, 17220, Note_on_c, 8, 57, 40
11, 17220, Note_on_c, 8, 60, 40
11, 17255, Note_on_c, 8, 60, 0
11, 17255, Note_on_c, 8, 57, 0
11, 17280, Note_on_c, 8, 55, 40
11, 17280, Note_on_c, 8, 59, 40
11, 17315, Note_on_c, 8, 59, 0
11, 17315, Note_on_c, 8, 55, 0
11, 17340, Note_on_c, 8, 55, 40
11, 17340, Note_on_c, 8, 59, 40
11, 17370, Note_on_c, 8, 59, 0
11, 17370, Note_on_c, 8, 55, 0
11, 17370, Note_on_c, 8, 54, 40
11, 17370, Note_on_c, 8, 57, 40
11, 17400, Note_on_c, 8, 57, 0
11, 17400, Note_on_c, 8, 54, 0
11, 17400, Note_on_c, 8, 55, 40
11, 17400, Note_on_c, 8, 59, 40
11, 17435, Note_on_c, 8, 59, 0
11, 17435, Note_on_c, 8, 55, 0
11, 17460, Note_on_c, 8, 60, 40
11, 17460, Note_on_c, 8, 64, 40
11, 17495, Note_on_c, 8, 64, 0
11, 17495, Note_on_c, 8, 60, 0
11, 17520, Note_on_c, 8, 59, 40
11, 17520, Note_on_c, 8, 63, 40
11, 17555, Note_on_c, 8, 63, 0
11, 17555, Note_on_c, 8, 59, 0
11, 17580, Note_on_c, 8, 57, 40
11, 17580, Note_on_c, 8, 59, 40
11, 17610, Note_on_c, 8, 59, 0
11, 17610, Note_on_c, 8, 57, 0
11, 17610, Note_on_c, 8, 55, 40
11, 17640, Note_on_c, 8, 55, 0
11, 17640, Note_on_c, 8, 54, 40
11, 17640, Note_on_c, 8, 61, 40
11, 17675, Note_on_c, 8, 61, 0
11, 17675, Note_on_c, 8, 54, 0
11, 17700, Note_on_c, 8, 59, 40
11, 17700, Note_on_c, 8, 63, 40
11, 17735, Note_on_c, 8, 63, 0
11, 17735, Note_on_c, 8, 59, 0
11, 17760, Note_on_c, 8, 52, 40
11, 17760, Note_on_c, 8, 64, 40
11, 17795, Note_on_c, 8, 64, 0
11, 17795, Note_on_c, 8, 52, 0
11, 17820, Note_on_c, 8, 40, 40
11, 17855, Note_on_c, 8, 40, 0
11, 17880, Note_on_c, 8, 45, 40
11, 17915, Note_on_c, 8, 45, 0
11, 17940, Note_on_c, 8, 43, 40
11, 17975, Note_on_c, 8, 43, 0
11, 18000, Note_on_c, 8, 42, 40
11, 18035, Note_on_c, 8, 42, 0
11, 18060, Note_on_c, 8, 47, 40
11, 18090, Note_on_c, 8, 47, 0
11, 18090, Note_on_c, 8, 46, 40
11, 18120, Note_on_c, 8, 46, 0
11, 18120, Note_on_c, 8, 47, 40
11, 18155, Note_on_c, 8, 47, 0
11, 18180, Note_on_c, 8, 59, 40
11, 18215, Note_on_c, 8, 59, 0
11, 18240, Note_on_c, 8, 49, 40
11, 18275, Note_on_c, 8, 49, 0
11, 18300, Note_on_c, 8, 54, 40
11, 18335, Note_on_c, 8, 54, 0
11, 18360, Note_on_c, 8, 42, 40
11, 18395, Note_on_c, 8, 42, 0
11, 18420, Note_on_c, 8, 46, 40
11, 18455, Note_on_c, 8, 46, 0
11, 18480, Note_on_c, 8, 47, 40
11, 18515, Note_on_c, 8, 47, 0
11, 18540, Note_on_c, 8, 54, 40
11, 18575, Note_on_c, 8, 54, 0
11, 18600, Note_on_c, 8, 55, 40
11, 18635, Note_on_c, 8, 55, 0
11, 18660, Note_on_c, 8, 54, 40
11, 18695, Note_on_c, 8, 54, 0
11, 18720, Note_on_c, 8, 52, 40
11, 18755, Note_on_c, 8, 52, 0
11, 18780, Note_on_c, 8, 54, 40
11, 18815, Note_on_c, 8, 54, 0
11, 18840, Note_on_c, 8, 55, 40
11, 18875, Note_on_c, 8, 55, 0
11, 18900, Note_on_c, 8, 57, 40
11, 18935, Note_on_c, 8, 57, 0
11, 18960, Note_on_c, 8, 55, 40
11, 18995, Note_on_c, 8, 55, 0
11, 19020, Note_on_c, 8, 54, 40
11, 19055, Note_on_c, 8, 54, 0
11, 19080, Note_on_c, 8, 52, 40
11, 19115, Note_on_c, 8, 52, 0
11, 19140, Note_on_c, 8, 55, 40
11, 19175, Note_on_c, 8, 55, 0
11, 19200, Note_on_c, 8, 46, 40
11, 19235, Note_on_c, 8, 46, 0
11, 19260, Note_on_c, 8, 52, 40
11, 19295, Note_on_c, 8, 52, 0
11, 19320, Note_on_c, 8, 42, 40
11, 19355, Note_on_c, 8, 42, 0
11, 19380, Note_on_c, 8, 46, 40
11, 19415, Note_on_c, 8, 46, 0
11, 19440, Note_on_c, 8, 47, 40
11, 19475, Note_on_c, 8, 47, 0
11, 19500, Note_on_c, 8, 50, 40
11, 19535, Note_on_c, 8, 50, 0
11, 19560, Note_on_c, 8, 52, 40
11, 19595, Note_on_c, 8, 52, 0
11, 19620, Note_on_c, 8, 49, 40
11, 19655, Note_on_c, 8, 49, 0
11, 19680, Note_on_c, 8, 50, 40
11, 19715, Note_on_c, 8, 50, 0
11, 19740, Note_on_c, 8, 52, 40
11, 19775, Note_on_c, 8, 52, 0
11, 19800, Note_on_c, 8, 54, 40
11, 19835, Note_on_c, 8, 54, 0
11, 19860, Note_on_c, 8, 42, 40
11, 19895, Note_on_c, 8, 42, 0
11, 19920, Note_on_c, 8, 47, 50
11, 19955, Note_on_c, 8, 47, 0
11, 19980, Note_on_c, 8, 49, 50
11, 20015, Note_on_c, 8, 49, 0
11, 20040, Note_on_c, 8, 50, 50
11, 20075, Note_on_c, 8, 50, 0
11, 20100, Note_on_c, 8, 47, 50
11, 20135, Note_on_c, 8, 47, 0
11, 20160, Note_on_c, 8, 52, 50
11, 20195, Note_on_c, 8, 52, 0
11, 20220, Note_on_c, 8, 50, 50
11, 20255, Note_on_c, 8, 50, 0
11, 20280, Note_on_c, 8, 52, 50
11, 20315, Note_on_c, 8, 52, 0
11, 20340, Note_on_c, 8, 50, 50
11, 20375, Note_on_c, 8, 50, 0
11, 20400, Note_on_c, 8, 52, 50
11, 20435, Note_on_c, 8, 52, 0
11, 20460, Note_on_c, 8, 50, 50
11, 20495, Note_on_c, 8, 50, 0
11, 20520, Note_on_c, 8, 49, 50
11, 20555, Note_on_c, 8, 49, 0
11, 20580, Note_on_c, 8, 54, 50
11, 20615, Note_on_c, 8, 54, 0
11, 20640, Note_on_c, 8, 47, 50
11, 20675, Note_on_c, 8, 47, 0
11, 20700, Note_on_c, 8, 45, 50
11, 20735, Note_on_c, 8, 45, 0
11, 20760, Note_on_c, 8, 43, 50
11, 20795, Note_on_c, 8, 43, 0
11, 20820, Note_on_c, 8, 42, 50
11, 20855, Note_on_c, 8, 42, 0
11, 20880, Note_on_c, 8, 40, 50
11, 20915, Note_on_c, 8, 40, 0
11, 20940, Note_on_c, 8, 42, 50
11, 20975, Note_on_c, 8, 42, 0
11, 21000, Note_on_c, 8, 43, 50
11, 21035, Note_on_c, 8, 43, 0
11, 21060, Note_on_c, 8, 40, 50
11, 21095, Note_on_c, 8, 40, 0
11, 21120, Note_on_c, 8, 45, 50
11, 21155, Note_on_c, 8, 45, 0
11, 21180, Note_on_c, 8, 43, 50
11, 21215, Note_on_c, 8, 43, 0
11, 21240, Note_on_c, 8, 45, 50
11, 21275, Note_on_c, 8, 45, 0
11, 21300, Note_on_c, 8, 43, 50
11, 21335, Note_on_c, 8, 43, 0
11, 21360, Note_on_c, 8, 45, 50
11, 21395, Note_on_c, 8, 45, 0
11, 21420, Note_on_c, 8, 43, 50
11, 21455, Note_on_c, 8, 43, 0
11, 21480, Note_on_c, 8, 42, 50
11, 21515, Note_on_c, 8, 42, 0
11, 21540, Note_on_c, 8, 47, 50
11, 21575, Note_on_c, 8, 47, 0
11, 21600, Note_on_c, 8, 40, 50
11, 21635, Note_on_c, 8, 40, 0
11, 21660, Note_on_c, 8, 52, 50
11, 21695, Note_on_c, 8, 52, 0
11, 21780, Note_on_c, 8, 49, 50
11, 21815, Note_on_c, 8, 49, 0
11, 21840, Note_on_c, 8, 46, 50
11, 21875, Note_on_c, 8, 46, 0
11, 21900, Note_on_c, 8, 47, 50
11, 21935, Note_on_c, 8, 47, 0
11, 22020, Note_on_c, 8, 47, 50
11, 22055, Note_on_c, 8, 47, 0
11, 22080, Note_on_c, 8, 43, 50
11, 22115, Note_on_c, 8, 43, 0
11, 22140, Note_on_c, 8, 52, 50
11, 22175, Note_on_c, 8, 52, 0
11, 22260, Note_on_c, 8, 49, 50
11, 22295, Note_on_c, 8, 49, 0
11, 22320, Note_on_c, 8, 54, 50
11, 22355, Note_on_c, 8, 54, 0
11, 22380, Note_on_c, 8, 42, 50
11, 22415, Note_on_c, 8, 42, 0
11, 22500, Note_on_c, 8, 54, 50
11, 22535, Note_on_c, 8, 54, 0
11, 22560, Note_on_c, 8, 55, 50
11, 22595, Note_on_c, 8, 55, 0
11, 22620, Note_on_c, 8, 52, 50
11, 22655, Note_on_c, 8, 52, 0
11, 22680, Note_on_c, 8, 54, 50
11, 22715, Note_on_c, 8, 54, 0
11, 22740, Note_on_c, 8, 42, 50
11, 22775, Note_on_c, 8, 42, 0
11, 22800, Note_on_c, 8, 47, 37
11, 22800, Note_on_c, 8, 50, 37
11, 22800, Note_on_c, 8, 54, 37
11, 22800, Note_on_c, 8, 59, 37
11, 22835, Note_on_c, 8, 59, 0
11, 22835, Note_on_c, 8, 47, 0
11, 22835, Note_on_c, 8, 50, 0
11, 22835, Note_on_c, 8, 54, 0
11, 22860, Note_on_c, 8, 59, 37
11, 22860, Note_on_c, 8, 62, 37
11, 22890, Note_on_c, 8, 62, 0
11, 22890, Note_on_c, 8, 59, 0
11, 22890, Note_on_c, 8, 61, 37
11, 22890, Note_on_c, 8, 64, 37
11, 22920, Note_on_c, 8, 64, 0
11, 22920, Note_on_c, 8, 61, 0
11, 22920, Note_on_c, 8, 59, 37
11, 22920, Note_on_c, 8, 62, 37
11, 22955, Note_on_c, 8, 62, 0
11, 22955, Note_on_c, 8, 59, 0
11, 22980, Note_on_c, 8, 57, 37
11, 22980, Note_on_c, 8, 66, 37
11, 23015, Note_on_c, 8, 66, 0
11, 23015, Note_on_c, 8, 57, 0
11, 23040, Note_on_c, 8, 55, 37
11, 23040, Note_on_c, 8, 59, 37
11, 23040, Note_on_c, 8, 64, 37
11, 23075, Note_on_c, 8, 64, 0
11, 23075, Note_on_c, 8, 59, 0
11, 23075, Note_on_c, 8, 55, 0
11, 23100, Note_on_c, 8, 54, 37
11, 23100, Note_on_c, 8, 57, 37
11, 23100, Note_on_c, 8, 62, 37
11, 23135, Note_on_c, 8, 62, 0
11, 23135, Note_on_c, 8, 57, 0
11, 23135, Note_on_c, 8, 54, 0
11, 23160, Note_on_c, 8, 55, 37
11, 23160, Note_on_c, 8, 59, 37
11, 23195, Note_on_c, 8, 59, 0
11, 23195, Note_on_c, 8, 55, 0
11, 23220, Note_on_c, 8, 54, 37
11, 23220, Note_on_c, 8, 57, 37
11, 23255, Note_on_c, 8, 57, 0
11, 23255, Note_on_c, 8, 54, 0
11, 23280, Note_on_c, 8, 55, 37
11, 23280, Note_on_c, 8, 59, 37
11, 23315, Note_on_c, 8, 59, 0
11, 23315, Note_on_c, 8, 55, 0
11, 23340, Note_on_c, 8, 54, 37
11, 23340, Note_on_c, 8, 60, 37
11, 23375, Note_on_c, 8, 60, 0
11, 23375, Note_on_c, 8, 54, 0
11, 23400, Note_on_c, 8, 52, 37
11, 23400, Note_on_c, 8, 62, 37
11, 23435, Note_on_c, 8, 62, 0
11, 23435, Note_on_c, 8, 52, 0
11, 23460, Note_on_c, 8, 57, 37
11, 23460, Note_on_c, 8, 61, 37
11, 23495, Note_on_c, 8, 61, 0
11, 23495, Note_on_c, 8, 57, 0
11, 23520, Note_on_c, 8, 50, 37
11, 23520, Note_on_c, 8, 54, 37
11, 23520, Note_on_c, 8, 57, 37
11, 23520, Note_on_c, 8, 62, 37
11, 23555, Note_on_c, 8, 62, 0
11, 23555, Note_on_c, 8, 50, 0
11, 23555, Note_on_c, 8, 54, 0
11, 23555, Note_on_c, 8, 57, 0
11, 23580, Note_on_c, 8, 48, 37
11, 23615, Note_on_c, 8, 48, 0
11, 23640, Note_on_c, 8, 47, 37
11, 23675, Note_on_c, 8, 47, 0
11, 23700, Note_on_c, 8, 52, 37
11, 23700, Note_on_c, 8, 56, 37
11, 23700, Note_on_c, 8, 59, 37
11, 23735, Note_on_c, 8, 59, 0
11, 23735, Note_on_c, 8, 56, 0
11, 23735, Note_on_c, 8, 52, 0
11, 23760, Note_on_c, 8, 57, 37
11, 23795, Note_on_c, 8, 57, 0
11, 23820, Note_on_c, 8, 45, 37
11, 23820, Note_on_c, 8, 60, 37
11, 23850, Note_on_c, 8, 60, 0
11, 23850, Note_on_c, 8, 45, 0
11, 23850, Note_on_c, 8, 47, 37
11, 23850, Note_on_c, 8, 62, 37
11, 23880, Note_on_c, 8, 62, 0
11, 23880, Note_on_c, 8, 47, 0
11, 23880, Note_on_c, 8, 48, 37
11, 23880, Note_on_c, 8, 64, 37
11, 23915, Note_on_c, 8, 64, 0
11, 23915, Note_on_c, 8, 48, 0
11, 23940, Note_on_c, 8, 45, 37
11, 23940, Note_on_c, 8, 60, 37
11, 23975, Note_on_c, 8, 60, 0
11, 23975, Note_on_c, 8, 45, 0
11, 24000, Note_on_c, 8, 50, 37
11, 24000, Note_on_c, 8, 65, 37
11, 24035, Note_on_c, 8, 65, 0
11, 24035, Note_on_c, 8, 50, 0
11, 24060, Note_on_c, 8, 48, 37
11, 24060, Note_on_c, 8, 64, 37
11, 24095, Note_on_c, 8, 64, 0
11, 24095, Note_on_c, 8, 48, 0
11, 24120, Note_on_c, 8, 50, 37
11, 24120, Note_on_c, 8, 65, 37
11, 24155, Note_on_c, 8, 65, 0
11, 24155, Note_on_c, 8, 50, 0
11, 24180, Note_on_c, 8, 48, 37
11, 24180, Note_on_c, 8, 64, 37
11, 24215, Note_on_c, 8, 64, 0
11, 24215, Note_on_c, 8, 48, 0
11, 24240, Note_on_c, 8, 50, 37
11, 24240, Note_on_c, 8, 65, 37
11, 24275, Note_on_c, 8, 65, 0
11, 24275, Note_on_c, 8, 50, 0
11, 24300, Note_on_c, 8, 48, 37
11, 24300, Note_on_c, 8, 64, 37
11, 24335, Note_on_c, 8, 64, 0
11, 24335, Note_on_c, 8, 48, 0
11, 24360, Note_on_c, 8, 47, 37
11, 24360, Note_on_c, 8, 62, 37
11, 24395, Note_on_c, 8, 62, 0
11, 24395, Note_on_c, 8, 47, 0
11, 24420, Note_on_c, 8, 52, 37
11, 24455, Note_on_c, 8, 52, 0
11, 24480, Note_on_c, 8, 45, 37
11, 24480, Note_on_c, 8, 60, 37
11, 24515, Note_on_c, 8, 60, 0
11, 24515, Note_on_c, 8, 45, 0
11, 24540, Note_on_c, 8, 57, 37
11, 24540, Note_on_c, 8, 60, 37
11, 24570, Note_on_c, 8, 60, 0
11, 24570, Note_on_c, 8, 57, 0
11, 24570, Note_on_c, 8, 56, 37
11, 24570, Note_on_c, 8, 59, 37
11, 24600, Note_on_c, 8, 59, 0
11, 24600, Note_on_c, 8, 56, 0
11, 24600, Note_on_c, 8, 57, 37
11, 24600, Note_on_c, 8, 60, 37
11, 24635, Note_on_c, 8, 60, 0
11, 24635, Note_on_c, 8, 57, 0
11, 24660, Note_on_c, 8, 60, 37
11, 24660, Note_on_c, 8, 64, 37
11, 24695, Note_on_c, 8, 64, 0
11, 24695, Note_on_c, 8, 60, 0
11, 24720, Note_on_c, 8, 59, 40
11, 24755, Note_on_c, 8, 59, 0
11, 24780, Note_on_c, 8, 52, 40
11, 24810, Note_on_c, 8, 52, 0
11, 24810, Note_on_c, 8, 51, 40
11, 24840, Note_on_c, 8, 51, 0
11, 24840, Note_on_c, 8, 52, 40
11, 24875, Note_on_c, 8, 52, 0
11, 24900, Note_on_c, 8, 64, 40
11, 24935, Note_on_c, 8, 64, 0
11, 24960, Note_on_c, 8, 54, 40
11, 24995, Note_on_c, 8, 54, 0
11, 25020, Note_on_c, 8, 59, 40
11, 25055, Note_on_c, 8, 59, 0
11, 25080, Note_on_c, 8, 47, 40
11, 25115, Note_on_c, 8, 47, 0
11, 25140, Note_on_c, 8, 51, 40
11, 25175, Note_on_c, 8, 51, 0
11, 25200, Note_on_c, 8, 52, 40
11, 25235, Note_on_c, 8, 52, 0
11, 25260, Note_on_c, 8, 59, 40
11, 25295, Note_on_c, 8, 59, 0
11, 25320, Note_on_c, 8, 60, 40
11, 25355, Note_on_c, 8, 60, 0
11, 25380, Note_on_c, 8, 59, 40
11, 25415, Note_on_c, 8, 59, 0
11, 25440, Note_on_c, 8, 57, 40
11, 25475, Note_on_c, 8, 57, 0
11, 25500, Note_on_c, 8, 59, 40
11, 25535, Note_on_c, 8, 59, 0
11, 25560, Note_on_c, 8, 60, 40
11, 25595, Note_on_c, 8, 60, 0
11, 25620, Note_on_c, 8, 62, 40
11, 25655, Note_on_c, 8, 62, 0
11, 25680, Note_on_c, 8, 60, 40
11, 25715, Note_on_c, 8, 60, 0
11, 25740, Note_on_c, 8, 59, 40
11, 25775, Note_on_c, 8, 59, 0
11, 25800, Note_on_c, 8, 57, 40
11, 25835, Note_on_c, 8, 57, 0
11, 25860, Note_on_c, 8, 60, 40
11, 25895, Note_on_c, 8, 60, 0
11, 25920, Note_on_c, 8, 51, 40
11, 25955, Note_on_c, 8, 51, 0
11, 25980, Note_on_c, 8, 57, 40
11, 26015, Note_on_c, 8, 57, 0
11, 26040, Note_on_c, 8, 47, 40
11, 26075, Note_on_c, 8, 47, 0
11, 26100, Note_on_c, 8, 51, 40
11, 26135, Note_on_c, 8, 51, 0
11, 26160, Note_on_c, 8, 52, 40
11, 26195, Note_on_c, 8, 52, 0
11, 26220, Note_on_c, 8, 55, 40
11, 26255, Note_on_c, 8, 55, 0
11, 26280, Note_on_c, 8, 57, 40
11, 26315, Note_on_c, 8, 57, 0
11, 26340, Note_on_c, 8, 54, 40
11, 26375, Note_on_c, 8, 54, 0
11, 26400, Note_on_c, 8, 55, 40
11, 26435, Note_on_c, 8, 55, 0
11, 26460, Note_on_c, 8, 57, 40
11, 26495, Note_on_c, 8, 57, 0
11, 26520, Note_on_c, 8, 59, 40
11, 26555, Note_on_c, 8, 59, 0
11, 26580, Note_on_c, 8, 47, 40
11, 26615, Note_on_c, 8, 47, 0
11, 26640, Note_on_c, 8, 52, 70
11, 26760, Note_on_c, 8, 52, 0
11, 26880, Note_on_c, 8, 48, 70
11, 27000, Note_on_c, 8, 48, 0
11, 27120, Note_on_c, 8, 44, 70
11, 27240, Note_on_c, 8, 44, 0
11, 27360, Note_on_c, 8, 40, 70
11, 27480, Note_on_c, 8, 40, 0
11, 27600, Note_on_c, 8, 45, 70
11, 27720, Note_on_c, 8, 45, 0
11, 27840, Note_on_c, 8, 47, 70
11, 27960, Note_on_c, 8, 47, 0
11, 28140, Note_on_c, 8, 48, 70
11, 28200, Note_on_c, 8, 48, 0
11, 28200, Note_on_c, 8, 47, 70
11, 28260, Note_on_c, 8, 47, 0
11, 28260, Note_on_c, 8, 46, 70
11, 28295, Note_on_c, 8, 46, 0
11, 28320, Note_on_c, 8, 47, 70
11, 28440, Note_on_c, 8, 47, 0
11, 28860, Note_on_c, 8, 54, 70
11, 28920, Note_on_c, 8, 54, 0
11, 28920, Note_on_c, 8, 51, 70
11, 28980, Note_on_c, 8, 51, 0
11, 28980, Note_on_c, 8, 47, 70
11, 29015, Note_on_c, 8, 47, 0
11, 29040, Note_on_c, 8, 43, 70
11, 29160, Note_on_c, 8, 43, 0
11, 29220, Note_on_c, 8, 52, 70
11, 29255, Note_on_c, 8, 52, 0
11, 29280, Note_on_c, 8, 54, 70
11, 29315, Note_on_c, 8, 54, 0
11, 29340, Note_on_c, 8, 55, 70
11, 29370, Note_on_c, 8, 55, 0
11, 29370, Note_on_c, 8, 54, 70
11, 29400, Note_on_c, 8, 54, 0
11, 29400, Note_on_c, 8, 55, 70
11, 29435, Note_on_c, 8, 55, 0
11, 29460, Note_on_c, 8, 57, 70
11, 29495, Note_on_c, 8, 57, 0
11, 29520, Note_on_c, 8, 59, 64
11, 29555, Note_on_c, 8, 59, 0
11, 29580, Note_on_c, 8, 57, 62
11, 29615, Note_on_c, 8, 57, 0
11, 29640, Note_on_c, 8, 59, 60
11, 29675, Note_on_c, 8, 59, 0
11, 29700, Note_on_c, 8, 47, 59
11, 29735, Note_on_c, 8, 47, 0
11, 29760, Note_on_c, 8, 40, 57
11, 29795, Note_on_c, 8, 40, 0
11, 29820, Note_on_c, 8, 52, 55
11, 29855, Note_on_c, 8, 52, 0
11, 29880, Note_on_c, 8, 50, 53
11, 29915, Note_on_c, 8, 50, 0
11, 29940, Note_on_c, 8, 48, 52
11, 29975, Note_on_c, 8, 48, 0
11, 30000, Note_on_c, 8, 47, 50
11, 30035, Note_on_c, 8, 47, 0
11, 30060, Note_on_c, 8, 45, 50
11, 30095, Note_on_c, 8, 45, 0
11, 30120, Note_on_c, 8, 47, 50
11, 30155, Note_on_c, 8, 47, 0
11, 30180, Note_on_c, 8, 43, 50
11, 30215, Note_on_c, 8, 43, 0
11, 30240, Note_on_c, 8, 48, 50
11, 30275, Note_on_c, 8, 48, 0
11, 30300, Note_on_c, 8, 47, 50
11, 30335, Note_on_c, 8, 47, 0
11, 30360, Note_on_c, 8, 48, 50
11, 30395, Note_on_c, 8, 48, 0
11, 30420, Note_on_c, 8, 47, 50
11, 30455, Note_on_c, 8, 47, 0
11, 30480, Note_on_c, 8, 48, 50
11, 30515, Note_on_c, 8, 48, 0
11, 30540, Note_on_c, 8, 47, 50
11, 30575, Note_on_c, 8, 47, 0
11, 30600, Note_on_c, 8, 45, 50
11, 30635, Note_on_c, 8, 45, 0
11, 30660, Note_on_c, 8, 50, 50
11, 30695, Note_on_c, 8, 50, 0
11, 30720, Note_on_c, 8, 43, 50
11, 30755, Note_on_c, 8, 43, 0
11, 30780, Note_on_c, 8, 55, 50
11, 30815, Note_on_c, 8, 55, 0
11, 30900, Note_on_c, 8, 59, 50
11, 30935, Note_on_c, 8, 59, 0
11, 30960, Note_on_c, 8, 62, 50
11, 30995, Note_on_c, 8, 62, 0
11, 31020, Note_on_c, 8, 50, 50
11, 31055, Note_on_c, 8, 50, 0
11, 31140, Note_on_c, 8, 54, 50
11, 31175, Note_on_c, 8, 54, 0
11, 31200, Note_on_c, 8, 57, 50
11, 31235, Note_on_c, 8, 57, 0
11, 31260, Note_on_c, 8, 45, 50
11, 31295, Note_on_c, 8, 45, 0
11, 31380, Note_on_c, 8, 48, 50
11, 31415, Note_on_c, 8, 48, 0
11, 31440, Note_on_c, 8, 52, 50
11, 31475, Note_on_c, 8, 52, 0
11, 31500, Note_on_c, 8, 40, 50
11, 31535, Note_on_c, 8, 40, 0
11, 31620, Note_on_c, 8, 52, 50
11, 31655, Note_on_c, 8, 52, 0
11, 31680, Note_on_c, 8, 57, 50
11, 31715, Note_on_c, 8, 57, 0
11, 31740, Note_on_c, 8, 45, 50
11, 31775, Note_on_c, 8, 45, 0
11, 31860, Note_on_c, 8, 45, 50
11, 31895, Note_on_c, 8, 45, 0
11, 31920, Note_on_c, 8, 50, 50
11, 31955, Note_on_c, 8, 50, 0
11, 31980, Note_on_c, 8, 38, 50
11, 32015, Note_on_c, 8, 38, 0
11, 32100, Note_on_c, 8, 50, 50
11, 32135, Note_on_c, 8, 50, 0
11, 32160, Note_on_c, 8, 55, 50
11, 32195, Note_on_c, 8, 55, 0
11, 32220, Note_on_c, 8, 43, 50
11, 32255, Note_on_c, 8, 43, 0
11, 32340, Note_on_c, 8, 55, 50
11, 32375, Note_on_c, 8, 55, 0
11, 32400, Note_on_c, 8, 60, 50
11, 32435, Note_on_c, 8, 60, 0
11, 32460, Note_on_c, 8, 48, 50
11, 32495, Note_on_c, 8, 48, 0
11, 32520, Note_on_c, 8, 60, 50
11, 32555, Note_on_c, 8, 60, 0
11, 32580, Note_on_c, 8, 59, 50
11, 32615, Note_on_c, 8, 59, 0
11, 32640, Note_on_c, 8, 57, 50
11, 32675, Note_on_c, 8, 57, 0
11, 32700, Note_on_c, 8, 59, 50
11, 32730, Note_on_c, 8, 59, 0
11, 32730, Note_on_c, 8, 60, 50
11, 32760, Note_on_c, 8, 60, 0
11, 32760, Note_on_c, 8, 62, 50
11, 32795, Note_on_c, 8, 62, 0
11, 32820, Note_on_c, 8, 50, 50
11, 32855, Note_on_c, 8, 50, 0
11, 32880, Note_on_c, 8, 55, 50
11, 32915, Note_on_c, 8, 55, 0
11, 32940, Note_on_c, 8, 54, 53
11, 32975, Note_on_c, 8, 54, 0
11, 33000, Note_on_c, 8, 55, 56
11, 33035, Note_on_c, 8, 55, 0
11, 33060, Note_on_c, 8, 57, 59
11, 33095, Note_on_c, 8, 57, 0
11, 33120, Note_on_c, 8, 58, 63
11, 33155, Note_on_c, 8, 58, 0
11, 33180, Note_on_c, 8, 57, 66
11, 33215, Note_on_c, 8, 57, 0
11, 33240, Note_on_c, 8, 55, 69
11, 33275, Note_on_c, 8, 55, 0
11, 33300, Note_on_c, 8, 53, 72
11, 33335, Note_on_c, 8, 53, 0
11, 33360, Note_on_c, 8, 51, 75
11, 33480, Note_on_c, 8, 51, 0
11, 33660, Note_on_c, 8, 51, 75
11, 33720, Note_on_c, 8, 51, 0
11, 33720, Note_on_c, 8, 50, 75
11, 33780, Note_on_c, 8, 50, 0
11, 33780, Note_on_c, 8, 48, 75
11, 33815, Note_on_c, 8, 48, 0
11, 33840, Note_on_c, 8, 47, 75
11, 33960, Note_on_c, 8, 47, 0
11, 34080, Note_on_c, 8, 43, 75
11, 34200, Note_on_c, 8, 43, 0
11, 34320, Note_on_c, 8, 48, 75
11, 34440, Note_on_c, 8, 48, 0
11, 34560, Note_on_c, 8, 50, 75
11, 34680, Note_on_c, 8, 50, 0
11, 34860, Note_on_c, 8, 51, 75
11, 34920, Note_on_c, 8, 51, 0
11, 34920, Note_on_c, 8, 50, 75
11, 34980, Note_on_c, 8, 50, 0
11, 34980, Note_on_c, 8, 49, 75
11, 35015, Note_on_c, 8, 49, 0
11, 35040, Note_on_c, 8, 50, 75
11, 35160, Note_on_c, 8, 50, 0
11, 35580, Note_on_c, 8, 57, 75
11, 35640, Note_on_c, 8, 57, 0
11, 35640, Note_on_c, 8, 54, 75
11, 35700, Note_on_c, 8, 54, 0
11, 35700, Note_on_c, 8, 50, 75
11, 35735, Note_on_c, 8, 50, 0
11, 35760, Note_on_c, 8, 46, 75
11, 35795, Note_on_c, 8, 46, 0
11, 35820, Note_on_c, 8, 50, 75
11, 35855, Note_on_c, 8, 50, 0
11, 35940, Note_on_c, 8, 43, 75
11, 35975, Note_on_c, 8, 43, 0
11, 36000, Note_on_c, 8, 45, 75
11, 36035, Note_on_c, 8, 45, 0
11, 36060, Note_on_c, 8, 46, 75
11, 36090, Note_on_c, 8, 46, 0
11, 36090, Note_on_c, 8, 45, 75
11, 36120, Note_on_c, 8, 45, 0
11, 36120, Note_on_c, 8, 46, 75
11, 36155, Note_on_c, 8, 46, 0
11, 36180, Note_on_c, 8, 48, 75
11, 36180, Note_on_c, 8, 55, 75
11, 36180, Note_on_c, 8, 63, 75
11, 36215, Note_on_c, 8, 63, 0
11, 36215, Note_on_c, 8, 48, 0
11, 36240, Note_on_c, 8, 50, 75
11, 36240, Note_on_c, 8, 58, 75
11, 36275, Note_on_c, 8, 58, 0
11, 36275, Note_on_c, 8, 50, 0
11, 36275, Note_on_c, 8, 55, 0
11, 36300, Note_on_c, 8, 48, 74
11, 36335, Note_on_c, 8, 48, 0
11, 36360, Note_on_c, 8, 50, 72
11, 36360, Note_on_c, 8, 54, 72
11, 36360, Note_on_c, 8, 57, 72
11, 36395, Note_on_c, 8, 57, 0
11, 36395, Note_on_c, 8, 54, 0
11, 36395, Note_on_c, 8, 50, 0
11, 36420, Note_on_c, 8, 38, 71
11, 36455, Note_on_c, 8, 38, 0
11, 36480, Note_on_c, 8, 43, 69
11, 36480, Note_on_c, 8, 46, 69
11, 36480, Note_on_c, 8, 50, 69
11, 36480, Note_on_c, 8, 55, 69
11, 36515, Note_on_c, 8, 55, 0
11, 36515, Note_on_c, 8, 43, 0
11, 36515, Note_on_c, 8, 46, 0
11, 36515, Note_on_c, 8, 50, 0
11, 36540, Note_on_c, 8, 55, 68
11, 36570, Note_on_c, 8, 55, 0
11, 36570, Note_on_c, 8, 54, 67
11, 36600, Note_on_c, 8, 54, 0
11, 36600, Note_on_c, 8, 55, 67
11, 36630, Note_on_c, 8, 55, 0
11, 36630, Note_on_c, 8, 50, 66
11, 36660, Note_on_c, 8, 50, 0
11, 36660, Note_on_c, 8, 47, 65
11, 36690, Note_on_c, 8, 47, 0
11, 36690, Note_on_c, 8, 50, 65
11, 36720, Note_on_c, 8, 50, 0
11, 36720, Note_on_c, 8, 43, 64
11, 36840, Note_on_c, 8, 43, 0
11, 36900, Note_on_c, 8, 55, 64
11, 36935, Note_on_c, 8, 55, 0
11, 36960, Note_on_c, 8, 48, 64
11, 37080, Note_on_c, 8, 48, 0
11, 37080, Note_on_c, 8, 49, 64
11, 37115, Note_on_c, 8, 49, 0
11, 37140, Note_on_c, 8, 52, 64
11, 37175, Note_on_c, 8, 52, 0
11, 37200, Note_on_c, 8, 45, 64
11, 37320, Note_on_c, 8, 45, 0
11, 37380, Note_on_c, 8, 57, 64
11, 37415, Note_on_c, 8, 57, 0
11, 37440, Note_on_c, 8, 50, 64
11, 37475, Note_on_c, 8, 50, 0
11, 37500, Note_on_c, 8, 60, 64
11, 37530, Note_on_c, 8, 60, 0
11, 37530, Note_on_c, 8, 59, 64
11, 37560, Note_on_c, 8, 59, 0
11, 37560, Note_on_c, 8, 60, 64
11, 37590, Note_on_c, 8, 60, 0
11, 37590, Note_on_c, 8, 57, 64
11, 37620, Note_on_c, 8, 57, 0
11, 37620, Note_on_c, 8, 54, 64
11, 37650, Note_on_c, 8, 54, 0
11, 37650, Note_on_c, 8, 57, 64
11, 37680, Note_on_c, 8, 57, 0
11, 37680, Note_on_c, 8, 50, 64
11, 37800, Note_on_c, 8, 50, 0
11, 37860, Note_on_c, 8, 50, 64
11, 37895, Note_on_c, 8, 50, 0
11, 37920, Note_on_c, 8, 52, 64
11, 37955, Note_on_c, 8, 52, 0
11, 37980, Note_on_c, 8, 48, 64
11, 38015, Note_on_c, 8, 48, 0
11, 38040, Note_on_c, 8, 50, 64
11, 38075, Note_on_c, 8, 50, 0
11, 38100, Note_on_c, 8, 38, 64
11, 38135, Note_on_c, 8, 38, 0
11, 38160, Note_on_c, 8, 43, 64
11, 38280, Note_on_c, 8, 43, 0
11, 38640, End_track
0, 0, End_of_file
