0, 0, Header, 1, 18, 120
1, 0, Start_track
1, 0, Time_signature, 4, 1, 48, 8
1, 0, Tempo, 625000
1, 0, Title_t, "untitled"
1, 0, Text_t, "\012"
1, 0, Text_t, "Mass in B Minor          Johann Sebastion Bach\012"
1, 0, Text_t, "No. 3   Kyrie eleison\012"
1, 0, Text_t, "seq by David Siu  dss@po.cwru.edu\012"
1, 0, Key_signature, 3, "major"
1, 960, Tempo, 461538
1, 56886, Tempo, 600000
1, 57159, Tempo, 750000
1, 57615, End_track
2, 0, Start_track
2, 0, Title_t, "Grand Piano"
2, 0, Program_c, 8, 19
2, 57615, End_track
3, 0, Start_track
3, 0, Title_t, "Flute"
3, 0, Program_c, 4, 73
3, 11040, Note_on_c, 4, 73, 64
3, 11280, Note_off_c, 4, 73, 0
3, 11280, Note_on_c, 4, 74, 64
3, 11520, Note_off_c, 4, 74, 0
3, 11520, Note_on_c, 4, 72, 64
3, 11880, Note_off_c, 4, 72, 0
3, 11880, Note_on_c, 4, 73, 64
3, 12000, Note_off_c, 4, 73, 0
3, 12000, Note_on_c, 4, 75, 64
3, 12120, Note_off_c, 4, 75, 0
3, 12120, Note_on_c, 4, 73, 64
3, 12240, Note_off_c, 4, 73, 0
3, 12240, Note_on_c, 4, 75, 64
3, 12360, Note_off_c, 4, 75, 0
3, 12360, Note_on_c, 4, 76, 64
3, 12480, Note_off_c, 4, 76, 0
3, 12480, Note_on_c, 4, 78, 64
3, 12720, Note_off_c, 4, 78, 0
3, 12720, Note_on_c, 4, 76, 64
3, 12840, Note_off_c, 4, 76, 0
3, 12840, Note_on_c, 4, 75, 64
3, 12960, Note_off_c, 4, 75, 0
3, 12960, Note_on_c, 4, 76, 64
3, 13200, Note_off_c, 4, 76, 0
3, 13200, Note_on_c, 4, 75, 64
3, 13440, Note_off_c, 4, 75, 0
3, 13440, Note_on_c, 4, 73, 64
3, 13680, Note_off_c, 4, 73, 0
3, 13680, Note_on_c, 4, 76, 58
3, 14160, Note_off_c, 4, 76, 0
3, 14160, Note_on_c, 4, 74, 46
3, 14280, Note_off_c, 4, 74, 0
3, 14280, Note_on_c, 4, 73, 43
3, 14400, Note_off_c, 4, 73, 0
3, 14400, Note_on_c, 4, 71, 45
3, 14640, Note_off_c, 4, 71, 0
3, 14640, Note_on_c, 4, 70, 46
3, 14880, Note_off_c, 4, 70, 0
3, 14880, Note_on_c, 4, 71, 47
3, 15120, Note_off_c, 4, 71, 0
3, 15120, Note_on_c, 4, 78, 48
3, 15600, Note_off_c, 4, 78, 0
3, 15600, Note_on_c, 4, 76, 50
3, 15720, Note_off_c, 4, 76, 0
3, 15720, Note_on_c, 4, 75, 50
3, 15840, Note_off_c, 4, 75, 0
3, 15840, Note_on_c, 4, 73, 51
3, 16080, Note_off_c, 4, 73, 0
3, 16080, Note_on_c, 4, 72, 52
3, 16320, Note_off_c, 4, 72, 0
3, 16320, Note_on_c, 4, 73, 53
3, 16560, Note_off_c, 4, 73, 0
3, 16560, Note_on_c, 4, 73, 54
3, 16920, Note_off_c, 4, 73, 0
3, 16920, Note_on_c, 4, 71, 55
3, 17040, Note_off_c, 4, 71, 0
3, 17040, Note_on_c, 4, 69, 55
3, 17160, Note_off_c, 4, 69, 0
3, 17160, Note_on_c, 4, 68, 56
3, 17280, Note_off_c, 4, 68, 0
3, 17280, Note_on_c, 4, 69, 56
3, 17520, Note_off_c, 4, 69, 0
3, 17520, Note_on_c, 4, 68, 57
3, 17640, Note_off_c, 4, 68, 0
3, 17640, Note_on_c, 4, 69, 58
3, 17760, Note_off_c, 4, 69, 0
3, 17760, Note_on_c, 4, 71, 58
3, 18360, Note_off_c, 4, 71, 0
3, 18360, Note_on_c, 4, 73, 61
3, 18480, Note_off_c, 4, 73, 0
3, 18480, Note_on_c, 4, 74, 61
3, 18960, Note_off_c, 4, 74, 0
3, 18960, Note_on_c, 4, 73, 63
3, 19440, Note_off_c, 4, 73, 0
3, 19440, Note_on_c, 4, 78, 64
3, 19560, Note_off_c, 4, 78, 0
3, 19560, Note_on_c, 4, 76, 64
3, 19680, Note_off_c, 4, 76, 0
3, 19680, Note_on_c, 4, 74, 64
3, 19920, Note_off_c, 4, 74, 0
3, 19920, Note_on_c, 4, 73, 64
3, 20040, Note_off_c, 4, 73, 0
3, 20040, Note_on_c, 4, 71, 64
3, 20160, Note_off_c, 4, 71, 0
3, 20160, Note_on_c, 4, 69, 64
3, 20280, Note_off_c, 4, 69, 0
3, 20280, Note_on_c, 4, 71, 64
3, 20400, Note_off_c, 4, 71, 0
3, 20400, Note_on_c, 4, 73, 64
3, 20520, Note_off_c, 4, 73, 0
3, 20520, Note_on_c, 4, 66, 64
3, 20640, Note_off_c, 4, 66, 0
3, 20640, Note_on_c, 4, 75, 64
3, 20880, Note_off_c, 4, 75, 0
3, 20880, Note_on_c, 4, 76, 64
3, 21000, Note_off_c, 4, 76, 0
3, 21000, Note_on_c, 4, 78, 64
3, 21120, Note_off_c, 4, 78, 0
3, 21120, Note_on_c, 4, 79, 64
3, 21360, Note_off_c, 4, 79, 0
3, 21360, Note_on_c, 4, 78, 64
3, 21600, Note_off_c, 4, 78, 0
3, 21600, Note_on_c, 4, 76, 64
3, 21840, Note_off_c, 4, 76, 0
3, 21840, Note_on_c, 4, 74, 64
3, 22200, Note_off_c, 4, 74, 0
3, 22200, Note_on_c, 4, 73, 64
3, 22440, Note_off_c, 4, 73, 0
3, 22440, Note_on_c, 4, 71, 64
3, 22560, Note_off_c, 4, 71, 0
3, 22560, Note_on_c, 4, 69, 64
3, 22680, Note_off_c, 4, 69, 0
3, 22680, Note_on_c, 4, 71, 64
3, 22800, Note_off_c, 4, 71, 0
3, 22800, Note_on_c, 4, 73, 64
3, 22920, Note_off_c, 4, 73, 0
3, 22920, Note_on_c, 4, 74, 64
3, 23040, Note_off_c, 4, 74, 0
3, 23040, Note_on_c, 4, 76, 64
3, 23640, Note_off_c, 4, 76, 0
3, 23640, Note_on_c, 4, 74, 64
3, 23760, Note_off_c, 4, 74, 0
3, 23760, Note_on_c, 4, 74, 64
3, 24000, Note_off_c, 4, 74, 0
3, 24000, Note_on_c, 4, 73, 64
3, 24240, Note_off_c, 4, 73, 0
3, 24240, Note_on_c, 4, 71, 64
3, 24360, Note_off_c, 4, 71, 0
3, 24360, Note_on_c, 4, 69, 64
3, 24480, Note_off_c, 4, 69, 0
3, 24480, Note_on_c, 4, 75, 64
3, 24840, Note_off_c, 4, 75, 0
3, 24840, Note_on_c, 4, 76, 64
3, 24960, Note_off_c, 4, 76, 0
3, 24960, Note_on_c, 4, 78, 64
3, 25080, Note_off_c, 4, 78, 0
3, 25080, Note_on_c, 4, 76, 64
3, 25200, Note_off_c, 4, 76, 0
3, 25200, Note_on_c, 4, 75, 64
3, 25320, Note_off_c, 4, 75, 0
3, 25320, Note_on_c, 4, 73, 64
3, 25440, Note_off_c, 4, 73, 0
3, 25440, Note_on_c, 4, 72, 64
3, 25680, Note_off_c, 4, 72, 0
3, 25680, Note_on_c, 4, 73, 64
3, 25800, Note_off_c, 4, 73, 0
3, 25800, Note_on_c, 4, 75, 64
3, 25920, Note_off_c, 4, 75, 0
3, 25920, Note_on_c, 4, 68, 64
3, 26040, Note_off_c, 4, 68, 0
3, 26040, Note_on_c, 4, 73, 61
3, 26280, Note_off_c, 4, 73, 0
3, 26280, Note_on_c, 4, 72, 55
3, 26400, Note_off_c, 4, 72, 0
3, 26400, Note_on_c, 4, 73, 52
3, 26520, Note_off_c, 4, 73, 0
3, 26520, Note_on_c, 4, 71, 49
3, 26640, Note_off_c, 4, 71, 0
3, 26640, Note_on_c, 4, 69, 46
3, 26760, Note_off_c, 4, 69, 0
3, 26760, Note_on_c, 4, 68, 43
3, 26880, Note_off_c, 4, 68, 0
3, 26880, Note_on_c, 4, 66, 40
3, 27000, Note_off_c, 4, 66, 0
3, 27000, Note_on_c, 4, 68, 41
3, 27120, Note_off_c, 4, 68, 0
3, 27120, Note_on_c, 4, 69, 42
3, 27360, Note_off_c, 4, 69, 0
3, 27360, Note_on_c, 4, 68, 43
3, 27480, Note_off_c, 4, 68, 0
3, 27480, Note_on_c, 4, 69, 44
3, 27600, Note_off_c, 4, 69, 0
3, 27600, Note_on_c, 4, 71, 45
3, 27960, Note_off_c, 4, 71, 0
3, 27960, Note_on_c, 4, 69, 47
3, 28080, Note_off_c, 4, 69, 0
3, 28080, Note_on_c, 4, 71, 48
3, 28200, Note_off_c, 4, 71, 0
3, 28200, Note_on_c, 4, 73, 48
3, 28320, Note_off_c, 4, 73, 0
3, 28320, Note_on_c, 4, 74, 49
3, 28920, Note_off_c, 4, 74, 0
3, 28920, Note_on_c, 4, 73, 53
3, 29040, Note_off_c, 4, 73, 0
3, 29040, Note_on_c, 4, 71, 54
3, 29160, Note_off_c, 4, 71, 0
3, 29160, Note_on_c, 4, 69, 54
3, 29280, Note_off_c, 4, 69, 0
3, 29280, Note_on_c, 4, 71, 55
3, 29400, Note_off_c, 4, 71, 0
3, 29400, Note_on_c, 4, 69, 56
3, 29520, Note_off_c, 4, 69, 0
3, 29520, Note_on_c, 4, 68, 57
3, 29640, Note_off_c, 4, 68, 0
3, 29640, Note_on_c, 4, 66, 57
3, 29760, Note_off_c, 4, 66, 0
3, 29760, Note_on_c, 4, 65, 58
3, 30000, Note_off_c, 4, 65, 0
3, 30000, Note_on_c, 4, 66, 60
3, 30480, Note_off_c, 4, 66, 0
3, 30480, Note_on_c, 4, 65, 63
3, 30720, Note_off_c, 4, 65, 0
3, 30720, Note_on_c, 4, 66, 64
3, 30960, Note_off_c, 4, 66, 0
3, 31800, Note_on_c, 4, 76, 64
3, 32040, Note_off_c, 4, 76, 0
3, 32040, Note_on_c, 4, 74, 64
3, 32160, Note_off_c, 4, 74, 0
3, 32160, Note_on_c, 4, 73, 64
3, 32280, Note_off_c, 4, 73, 0
3, 32280, Note_on_c, 4, 69, 64
3, 32400, Note_off_c, 4, 69, 0
3, 32400, Note_on_c, 4, 71, 64
3, 32520, Note_off_c, 4, 71, 0
3, 32520, Note_on_c, 4, 73, 64
3, 32640, Note_off_c, 4, 73, 0
3, 32640, Note_on_c, 4, 74, 64
3, 32760, Note_off_c, 4, 74, 0
3, 32760, Note_on_c, 4, 73, 64
3, 32880, Note_off_c, 4, 73, 0
3, 32880, Note_on_c, 4, 71, 64
3, 33000, Note_off_c, 4, 71, 0
3, 33000, Note_on_c, 4, 70, 64
3, 33120, Note_off_c, 4, 70, 0
3, 33120, Note_on_c, 4, 71, 64
3, 33240, Note_off_c, 4, 71, 0
3, 33240, Note_on_c, 4, 76, 64
3, 33360, Note_off_c, 4, 76, 0
3, 33360, Note_on_c, 4, 74, 64
3, 33480, Note_off_c, 4, 74, 0
3, 33480, Note_on_c, 4, 73, 64
3, 33600, Note_off_c, 4, 73, 0
3, 33600, Note_on_c, 4, 74, 64
3, 33840, Note_off_c, 4, 74, 0
3, 33840, Note_on_c, 4, 73, 64
3, 34080, Note_off_c, 4, 73, 0
3, 34080, Note_on_c, 4, 71, 64
3, 34320, Note_off_c, 4, 71, 0
3, 38880, Note_on_c, 4, 71, 64
3, 39120, Note_off_c, 4, 71, 0
3, 39120, Note_on_c, 4, 72, 64
3, 39360, Note_off_c, 4, 72, 0
3, 39360, Note_on_c, 4, 70, 64
3, 39720, Note_off_c, 4, 70, 0
3, 39720, Note_on_c, 4, 71, 64
3, 39840, Note_off_c, 4, 71, 0
3, 39840, Note_on_c, 4, 73, 64
3, 39960, Note_off_c, 4, 73, 0
3, 39960, Note_on_c, 4, 71, 64
3, 40080, Note_off_c, 4, 71, 0
3, 40080, Note_on_c, 4, 73, 64
3, 40200, Note_off_c, 4, 73, 0
3, 40200, Note_on_c, 4, 74, 64
3, 40320, Note_off_c, 4, 74, 0
3, 40320, Note_on_c, 4, 76, 64
3, 40560, Note_off_c, 4, 76, 0
3, 40560, Note_on_c, 4, 74, 64
3, 40680, Note_off_c, 4, 74, 0
3, 40680, Note_on_c, 4, 73, 64
3, 40800, Note_off_c, 4, 73, 0
3, 40800, Note_on_c, 4, 74, 64
3, 41040, Note_off_c, 4, 74, 0
3, 41040, Note_on_c, 4, 73, 64
3, 41280, Note_off_c, 4, 73, 0
3, 41280, Note_on_c, 4, 71, 64
3, 41400, Note_off_c, 4, 71, 0
3, 41880, Note_on_c, 4, 78, 64
3, 42120, Note_off_c, 4, 78, 0
3, 42120, Note_on_c, 4, 76, 64
3, 42240, Note_off_c, 4, 76, 0
3, 42240, Note_on_c, 4, 75, 64
3, 42360, Note_off_c, 4, 75, 0
3, 42360, Note_on_c, 4, 71, 64
3, 42480, Note_off_c, 4, 71, 0
3, 42480, Note_on_c, 4, 73, 64
3, 42600, Note_off_c, 4, 73, 0
3, 42600, Note_on_c, 4, 75, 64
3, 42720, Note_off_c, 4, 75, 0
3, 42720, Note_on_c, 4, 76, 64
3, 42840, Note_off_c, 4, 76, 0
3, 42840, Note_on_c, 4, 74, 64
3, 42960, Note_off_c, 4, 74, 0
3, 42960, Note_on_c, 4, 73, 64
3, 43080, Note_off_c, 4, 73, 0
3, 43080, Note_on_c, 4, 71, 64
3, 43200, Note_off_c, 4, 71, 0
3, 43200, Note_on_c, 4, 73, 64
3, 43800, Note_off_c, 4, 73, 0
3, 43800, Note_on_c, 4, 66, 64
3, 43920, Note_off_c, 4, 66, 0
3, 43920, Note_on_c, 4, 71, 64
3, 44280, Note_off_c, 4, 71, 0
3, 44280, Note_on_c, 4, 74, 64
3, 44400, Note_off_c, 4, 74, 0
3, 44400, Note_on_c, 4, 73, 64
3, 44520, Note_off_c, 4, 73, 0
3, 44520, Note_on_c, 4, 71, 64
3, 44640, Note_off_c, 4, 71, 0
3, 44640, Note_on_c, 4, 69, 64
3, 44760, Note_off_c, 4, 69, 0
3, 44760, Note_on_c, 4, 73, 64
3, 44880, Note_off_c, 4, 73, 0
3, 44880, Note_on_c, 4, 78, 64
3, 45240, Note_off_c, 4, 78, 0
3, 45240, Note_on_c, 4, 75, 64
3, 45360, Note_off_c, 4, 75, 0
3, 45360, Note_on_c, 4, 76, 64
3, 45480, Note_off_c, 4, 76, 0
3, 45480, Note_on_c, 4, 73, 64
3, 45720, Note_off_c, 4, 73, 0
3, 45720, Note_on_c, 4, 70, 64
3, 45840, Note_off_c, 4, 70, 0
3, 45840, Note_on_c, 4, 72, 64
3, 46080, Note_off_c, 4, 72, 0
3, 46080, Note_on_c, 4, 73, 64
3, 46320, Note_off_c, 4, 73, 0
3, 46320, Note_on_c, 4, 76, 64
3, 46800, Note_off_c, 4, 76, 0
3, 46800, Note_on_c, 4, 74, 64
3, 46920, Note_off_c, 4, 74, 0
3, 46920, Note_on_c, 4, 73, 64
3, 47040, Note_off_c, 4, 73, 0
3, 47040, Note_on_c, 4, 71, 64
3, 47280, Note_off_c, 4, 71, 0
3, 47280, Note_on_c, 4, 70, 64
3, 47520, Note_off_c, 4, 70, 0
3, 47520, Note_on_c, 4, 71, 64
3, 47760, Note_off_c, 4, 71, 0
3, 47760, Note_on_c, 4, 74, 64
3, 48240, Note_off_c, 4, 74, 0
3, 48240, Note_on_c, 4, 73, 64
3, 48360, Note_off_c, 4, 73, 0
3, 48360, Note_on_c, 4, 71, 64
3, 48480, Note_off_c, 4, 71, 0
3, 48480, Note_on_c, 4, 69, 64
3, 48720, Note_off_c, 4, 69, 0
3, 48720, Note_on_c, 4, 68, 64
3, 48960, Note_off_c, 4, 68, 0
3, 48960, Note_on_c, 4, 69, 80
3, 49080, Note_off_c, 4, 69, 0
3, 49080, Note_on_c, 4, 81, 79
3, 49320, Note_off_c, 4, 81, 0
3, 49320, Note_on_c, 4, 80, 78
3, 49440, Note_off_c, 4, 80, 0
3, 49440, Note_on_c, 4, 79, 77
3, 49560, Note_off_c, 4, 79, 0
3, 49560, Note_on_c, 4, 75, 77
3, 49680, Note_off_c, 4, 75, 0
3, 49680, Note_on_c, 4, 77, 76
3, 49800, Note_off_c, 4, 77, 0
3, 49800, Note_on_c, 4, 79, 75
3, 49920, Note_off_c, 4, 79, 0
3, 49920, Note_on_c, 4, 80, 75
3, 50040, Note_off_c, 4, 80, 0
3, 50040, Note_on_c, 4, 78, 74
3, 50160, Note_off_c, 4, 78, 0
3, 50160, Note_on_c, 4, 77, 73
3, 50280, Note_off_c, 4, 77, 0
3, 50280, Note_on_c, 4, 75, 73
3, 50400, Note_off_c, 4, 75, 0
3, 50400, Note_on_c, 4, 73, 72
3, 51000, Note_off_c, 4, 73, 0
3, 51000, Note_on_c, 4, 78, 69
3, 51240, Note_off_c, 4, 78, 0
3, 51240, Note_on_c, 4, 76, 67
3, 51360, Note_off_c, 4, 76, 0
3, 51360, Note_on_c, 4, 75, 67
3, 51600, Note_off_c, 4, 75, 0
3, 51600, Note_on_c, 4, 74, 65
3, 51840, Note_off_c, 4, 74, 0
3, 51840, Note_on_c, 4, 73, 64
3, 52080, Note_off_c, 4, 73, 0
3, 52080, Note_on_c, 4, 73, 64
3, 52320, Note_off_c, 4, 73, 0
3, 52320, Note_on_c, 4, 69, 64
3, 52560, Note_off_c, 4, 69, 0
3, 52800, Note_on_c, 4, 73, 64
3, 53040, Note_off_c, 4, 73, 0
3, 53040, Note_on_c, 4, 74, 64
3, 53280, Note_off_c, 4, 74, 0
3, 53280, Note_on_c, 4, 72, 64
3, 53640, Note_off_c, 4, 72, 0
3, 53640, Note_on_c, 4, 73, 64
3, 53760, Note_off_c, 4, 73, 0
3, 53760, Note_on_c, 4, 75, 64
3, 53880, Note_off_c, 4, 75, 0
3, 53880, Note_on_c, 4, 73, 64
3, 54000, Note_off_c, 4, 73, 0
3, 54000, Note_on_c, 4, 75, 64
3, 54120, Note_off_c, 4, 75, 0
3, 54120, Note_on_c, 4, 77, 64
3, 54240, Note_off_c, 4, 77, 0
3, 54240, Note_on_c, 4, 78, 64
3, 54480, Note_off_c, 4, 78, 0
3, 54480, Note_on_c, 4, 76, 64
3, 54600, Note_off_c, 4, 76, 0
3, 54600, Note_on_c, 4, 75, 64
3, 54720, Note_off_c, 4, 75, 0
3, 54720, Note_on_c, 4, 76, 64
3, 54960, Note_off_c, 4, 76, 0
3, 54960, Note_on_c, 4, 74, 65
3, 55200, Note_off_c, 4, 74, 0
3, 55200, Note_on_c, 4, 73, 67
3, 55440, Note_off_c, 4, 73, 0
3, 55440, Note_on_c, 4, 73, 68
3, 55800, Note_off_c, 4, 73, 0
3, 55800, Note_on_c, 4, 66, 70
3, 55920, Note_off_c, 4, 66, 0
3, 55920, Note_on_c, 4, 68, 71
3, 56040, Note_off_c, 4, 68, 0
3, 56040, Note_on_c, 4, 69, 71
3, 56160, Note_off_c, 4, 69, 0
3, 56160, Note_on_c, 4, 71, 72
3, 56280, Note_off_c, 4, 71, 0
3, 56280, Note_on_c, 4, 74, 73
3, 56400, Note_off_c, 4, 74, 0
3, 56400, Note_on_c, 4, 73, 73
3, 56520, Note_off_c, 4, 73, 0
3, 56520, Note_on_c, 4, 71, 74
3, 56640, Note_off_c, 4, 71, 0
3, 56640, Note_on_c, 4, 69, 75
3, 56880, Note_off_c, 4, 69, 0
3, 56880, Note_on_c, 4, 68, 76
3, 57120, Note_off_c, 4, 68, 0
3, 57120, Note_on_c, 4, 66, 77
3, 57600, Note_off_c, 4, 66, 0
3, 57615, End_track
4, 0, Start_track
4, 0, Title_t, "Bassoon"
4, 0, Program_c, 6, 70
4, 960, Note_on_c, 6, 54, 64
4, 1200, Note_off_c, 6, 54, 0
4, 1200, Note_on_c, 6, 55, 64
4, 1440, Note_off_c, 6, 55, 0
4, 1440, Note_on_c, 6, 53, 64
4, 1800, Note_off_c, 6, 53, 0
4, 1800, Note_on_c, 6, 54, 64
4, 1920, Note_off_c, 6, 54, 0
4, 1920, Note_on_c, 6, 56, 64
4, 2040, Note_off_c, 6, 56, 0
4, 2040, Note_on_c, 6, 54, 64
4, 2160, Note_off_c, 6, 54, 0
4, 2160, Note_on_c, 6, 56, 64
4, 2280, Note_off_c, 6, 56, 0
4, 2280, Note_on_c, 6, 57, 64
4, 2400, Note_off_c, 6, 57, 0
4, 2400, Note_on_c, 6, 59, 64
4, 2640, Note_off_c, 6, 59, 0
4, 2640, Note_on_c, 6, 57, 64
4, 2760, Note_off_c, 6, 57, 0
4, 2760, Note_on_c, 6, 56, 64
4, 2880, Note_off_c, 6, 56, 0
4, 2880, Note_on_c, 6, 57, 64
4, 3120, Note_off_c, 6, 57, 0
4, 3120, Note_on_c, 6, 56, 64
4, 3360, Note_off_c, 6, 56, 0
4, 3360, Note_on_c, 6, 54, 64
4, 3600, Note_off_c, 6, 54, 0
4, 3600, Note_on_c, 6, 54, 64
4, 3960, Note_off_c, 6, 54, 0
4, 3960, Note_on_c, 6, 51, 64
4, 4080, Note_off_c, 6, 51, 0
4, 4080, Note_on_c, 6, 52, 64
4, 4200, Note_off_c, 6, 52, 0
4, 4200, Note_on_c, 6, 49, 64
4, 4320, Note_off_c, 6, 49, 0
4, 4320, Note_on_c, 6, 48, 64
4, 4680, Note_off_c, 6, 48, 0
4, 4680, Note_on_c, 6, 49, 64
4, 4800, Note_off_c, 6, 49, 0
4, 4800, Note_on_c, 6, 49, 64
4, 5040, Note_off_c, 6, 49, 0
4, 5040, Note_on_c, 6, 61, 64
4, 5520, Note_off_c, 6, 61, 0
4, 5520, Note_on_c, 6, 60, 64
4, 5760, Note_off_c, 6, 60, 0
4, 5760, Note_on_c, 6, 61, 45
4, 6120, Note_off_c, 6, 61, 0
4, 6120, Note_on_c, 6, 56, 45
4, 6240, Note_off_c, 6, 56, 0
4, 6240, Note_on_c, 6, 61, 45
4, 6360, Note_off_c, 6, 61, 0
4, 6360, Note_on_c, 6, 58, 45
4, 6480, Note_off_c, 6, 58, 0
4, 6480, Note_on_c, 6, 59, 45
4, 6600, Note_off_c, 6, 59, 0
4, 6600, Note_on_c, 6, 61, 45
4, 6720, Note_off_c, 6, 61, 0
4, 6720, Note_on_c, 6, 62, 45
4, 6960, Note_off_c, 6, 62, 0
4, 6960, Note_on_c, 6, 61, 45
4, 7200, Note_off_c, 6, 61, 0
4, 7200, Note_on_c, 6, 59, 45
4, 7560, Note_off_c, 6, 59, 0
4, 7560, Note_on_c, 6, 54, 45
4, 7680, Note_off_c, 6, 54, 0
4, 7680, Note_on_c, 6, 59, 45
4, 7800, Note_off_c, 6, 59, 0
4, 7800, Note_on_c, 6, 56, 45
4, 7920, Note_off_c, 6, 56, 0
4, 7920, Note_on_c, 6, 57, 45
4, 8040, Note_off_c, 6, 57, 0
4, 8040, Note_on_c, 6, 59, 45
4, 8160, Note_off_c, 6, 59, 0
4, 8160, Note_on_c, 6, 61, 45
4, 8400, Note_off_c, 6, 61, 0
4, 8400, Note_on_c, 6, 59, 45
4, 8640, Note_off_c, 6, 59, 0
4, 8640, Note_on_c, 6, 61, 64
4, 8880, Note_off_c, 6, 61, 0
4, 8880, Note_on_c, 6, 62, 64
4, 9120, Note_off_c, 6, 62, 0
4, 9120, Note_on_c, 6, 56, 64
4, 9360, Note_off_c, 6, 56, 0
4, 9360, Note_on_c, 6, 54, 64
4, 9600, Note_off_c, 6, 54, 0
4, 9600, Note_on_c, 6, 61, 64
4, 9840, Note_off_c, 6, 61, 0
4, 9840, Note_on_c, 6, 49, 64
4, 10080, Note_off_c, 6, 49, 0
4, 10080, Note_on_c, 6, 50, 64
4, 10320, Note_off_c, 6, 50, 0
4, 10320, Note_on_c, 6, 49, 64
4, 10440, Note_off_c, 6, 49, 0
4, 10440, Note_on_c, 6, 47, 64
4, 10560, Note_off_c, 6, 47, 0
4, 10560, Note_on_c, 6, 49, 64
4, 10680, Note_off_c, 6, 49, 0
4, 10680, Note_on_c, 6, 61, 64
4, 10920, Note_off_c, 6, 61, 0
4, 10920, Note_on_c, 6, 59, 64
4, 11040, Note_off_c, 6, 59, 0
4, 11040, Note_on_c, 6, 57, 64
4, 11160, Note_off_c, 6, 57, 0
4, 11160, Note_on_c, 6, 56, 64
4, 11280, Note_off_c, 6, 56, 0
4, 11280, Note_on_c, 6, 54, 64
4, 11520, Note_off_c, 6, 54, 0
4, 11520, Note_on_c, 6, 56, 64
4, 12240, Note_off_c, 6, 56, 0
4, 12240, Note_on_c, 6, 54, 64
4, 12360, Note_off_c, 6, 54, 0
4, 12360, Note_on_c, 6, 56, 64
4, 12480, Note_off_c, 6, 56, 0
4, 12480, Note_on_c, 6, 57, 64
4, 12720, Note_off_c, 6, 57, 0
4, 12720, Note_on_c, 6, 56, 64
4, 12840, Note_off_c, 6, 56, 0
4, 12840, Note_on_c, 6, 54, 64
4, 12960, Note_off_c, 6, 54, 0
4, 12960, Note_on_c, 6, 56, 64
4, 13200, Note_off_c, 6, 56, 0
4, 13200, Note_on_c, 6, 44, 64
4, 13440, Note_off_c, 6, 44, 0
4, 13440, Note_on_c, 6, 49, 64
4, 13680, Note_off_c, 6, 49, 0
4, 24000, Note_on_c, 6, 49, 64
4, 24240, Note_off_c, 6, 49, 0
4, 24240, Note_on_c, 6, 50, 64
4, 24480, Note_off_c, 6, 50, 0
4, 24480, Note_on_c, 6, 48, 64
4, 24840, Note_off_c, 6, 48, 0
4, 24840, Note_on_c, 6, 49, 64
4, 24960, Note_off_c, 6, 49, 0
4, 24960, Note_on_c, 6, 51, 64
4, 25080, Note_off_c, 6, 51, 0
4, 25080, Note_on_c, 6, 49, 64
4, 25200, Note_off_c, 6, 49, 0
4, 25200, Note_on_c, 6, 51, 64
4, 25320, Note_off_c, 6, 51, 0
4, 25320, Note_on_c, 6, 52, 64
4, 25440, Note_off_c, 6, 52, 0
4, 25440, Note_on_c, 6, 54, 64
4, 25680, Note_off_c, 6, 54, 0
4, 25680, Note_on_c, 6, 52, 64
4, 25800, Note_off_c, 6, 52, 0
4, 25800, Note_on_c, 6, 51, 64
4, 25920, Note_off_c, 6, 51, 0
4, 25920, Note_on_c, 6, 52, 64
4, 26160, Note_off_c, 6, 52, 0
4, 26160, Note_on_c, 6, 51, 58
4, 26400, Note_off_c, 6, 51, 0
4, 26400, Note_on_c, 6, 49, 52
4, 26640, Note_off_c, 6, 49, 0
4, 26640, Note_on_c, 6, 49, 46
4, 26880, Note_off_c, 6, 49, 0
4, 26880, Note_on_c, 6, 50, 40
4, 27120, Note_off_c, 6, 50, 0
4, 27120, Note_on_c, 6, 51, 42
4, 27360, Note_off_c, 6, 51, 0
4, 27360, Note_on_c, 6, 52, 43
4, 27600, Note_off_c, 6, 52, 0
4, 27600, Note_on_c, 6, 53, 45
4, 27840, Note_off_c, 6, 53, 0
4, 27840, Note_on_c, 6, 54, 46
4, 28200, Note_off_c, 6, 54, 0
4, 28200, Note_on_c, 6, 52, 48
4, 28320, Note_off_c, 6, 52, 0
4, 28320, Note_on_c, 6, 50, 49
4, 28440, Note_off_c, 6, 50, 0
4, 28440, Note_on_c, 6, 49, 50
4, 28560, Note_off_c, 6, 49, 0
4, 28560, Note_on_c, 6, 47, 51
4, 28800, Note_off_c, 6, 47, 0
4, 28800, Note_on_c, 6, 49, 52
4, 29520, Note_off_c, 6, 49, 0
4, 29520, Note_on_c, 6, 50, 57
4, 29880, Note_off_c, 6, 50, 0
4, 29880, Note_on_c, 6, 49, 59
4, 30000, Note_off_c, 6, 49, 0
4, 30000, Note_on_c, 6, 50, 60
4, 30120, Note_off_c, 6, 50, 0
4, 30120, Note_on_c, 6, 47, 60
4, 30240, Note_off_c, 6, 47, 0
4, 30240, Note_on_c, 6, 49, 61
4, 30360, Note_off_c, 6, 49, 0
4, 30360, Note_on_c, 6, 61, 62
4, 30600, Note_off_c, 6, 61, 0
4, 30600, Note_on_c, 6, 59, 63
4, 30720, Note_off_c, 6, 59, 0
4, 30720, Note_on_c, 6, 58, 64
4, 30840, Note_off_c, 6, 58, 0
4, 30840, Note_on_c, 6, 54, 64
4, 30960, Note_off_c, 6, 54, 0
4, 30960, Note_on_c, 6, 56, 64
4, 31080, Note_off_c, 6, 56, 0
4, 31080, Note_on_c, 6, 58, 64
4, 31200, Note_off_c, 6, 58, 0
4, 31200, Note_on_c, 6, 59, 64
4, 31320, Note_off_c, 6, 59, 0
4, 31320, Note_on_c, 6, 57, 64
4, 31440, Note_off_c, 6, 57, 0
4, 31440, Note_on_c, 6, 56, 64
4, 31560, Note_off_c, 6, 56, 0
4, 31560, Note_on_c, 6, 54, 64
4, 31680, Note_off_c, 6, 54, 0
4, 31680, Note_on_c, 6, 52, 64
4, 31920, Note_off_c, 6, 52, 0
4, 31920, Note_on_c, 6, 52, 64
4, 32160, Note_off_c, 6, 52, 0
4, 32160, Note_on_c, 6, 45, 64
4, 32280, Note_off_c, 6, 45, 0
4, 32280, Note_on_c, 6, 57, 64
4, 32520, Note_off_c, 6, 57, 0
4, 32520, Note_on_c, 6, 55, 64
4, 32640, Note_off_c, 6, 55, 0
4, 32640, Note_on_c, 6, 54, 64
4, 32760, Note_off_c, 6, 54, 0
4, 32760, Note_on_c, 6, 50, 64
4, 32880, Note_off_c, 6, 50, 0
4, 32880, Note_on_c, 6, 52, 64
4, 33000, Note_off_c, 6, 52, 0
4, 33000, Note_on_c, 6, 54, 64
4, 33120, Note_off_c, 6, 54, 0
4, 33120, Note_on_c, 6, 55, 64
4, 33360, Note_off_c, 6, 55, 0
4, 33360, Note_on_c, 6, 54, 64
4, 33480, Note_off_c, 6, 54, 0
4, 33480, Note_on_c, 6, 52, 64
4, 33600, Note_off_c, 6, 52, 0
4, 33600, Note_on_c, 6, 54, 64
4, 33840, Note_off_c, 6, 54, 0
4, 33840, Note_on_c, 6, 42, 64
4, 34080, Note_off_c, 6, 42, 0
4, 34080, Note_on_c, 6, 47, 64
4, 34320, Note_off_c, 6, 47, 0
4, 39360, Note_on_c, 6, 54, 64
4, 39600, Note_off_c, 6, 54, 0
4, 39600, Note_on_c, 6, 55, 64
4, 39840, Note_off_c, 6, 55, 0
4, 39840, Note_on_c, 6, 53, 64
4, 40200, Note_off_c, 6, 53, 0
4, 40200, Note_on_c, 6, 54, 64
4, 40320, Note_off_c, 6, 54, 0
4, 40320, Note_on_c, 6, 56, 64
4, 40440, Note_off_c, 6, 56, 0
4, 40440, Note_on_c, 6, 54, 64
4, 40560, Note_off_c, 6, 54, 0
4, 40560, Note_on_c, 6, 56, 64
4, 40680, Note_off_c, 6, 56, 0
4, 40680, Note_on_c, 6, 58, 64
4, 40800, Note_off_c, 6, 58, 0
4, 40800, Note_on_c, 6, 59, 64
4, 41040, Note_off_c, 6, 59, 0
4, 41040, Note_on_c, 6, 57, 64
4, 41160, Note_off_c, 6, 57, 0
4, 41160, Note_on_c, 6, 56, 64
4, 41280, Note_off_c, 6, 56, 0
4, 41280, Note_on_c, 6, 57, 64
4, 41520, Note_off_c, 6, 57, 0
4, 41520, Note_on_c, 6, 56, 64
4, 41760, Note_off_c, 6, 56, 0
4, 41760, Note_on_c, 6, 54, 64
4, 42000, Note_off_c, 6, 54, 0
4, 42360, Note_on_c, 6, 59, 64
4, 42600, Note_off_c, 6, 59, 0
4, 42600, Note_on_c, 6, 57, 64
4, 42720, Note_off_c, 6, 57, 0
4, 42720, Note_on_c, 6, 56, 64
4, 42840, Note_off_c, 6, 56, 0
4, 42840, Note_on_c, 6, 52, 64
4, 42960, Note_off_c, 6, 52, 0
4, 42960, Note_on_c, 6, 54, 64
4, 43080, Note_off_c, 6, 54, 0
4, 43080, Note_on_c, 6, 56, 64
4, 43200, Note_off_c, 6, 56, 0
4, 43200, Note_on_c, 6, 57, 64
4, 43320, Note_off_c, 6, 57, 0
4, 43320, Note_on_c, 6, 54, 64
4, 43440, Note_off_c, 6, 54, 0
4, 43440, Note_on_c, 6, 56, 64
4, 43560, Note_off_c, 6, 56, 0
4, 43560, Note_on_c, 6, 58, 64
4, 43680, Note_off_c, 6, 58, 0
4, 43680, Note_on_c, 6, 59, 64
4, 43800, Note_off_c, 6, 59, 0
4, 43800, Note_on_c, 6, 57, 64
4, 43920, Note_off_c, 6, 57, 0
4, 43920, Note_on_c, 6, 56, 64
4, 44040, Note_off_c, 6, 56, 0
4, 44040, Note_on_c, 6, 54, 64
4, 44160, Note_off_c, 6, 54, 0
4, 44160, Note_on_c, 6, 53, 64
4, 44280, Note_off_c, 6, 53, 0
4, 44280, Note_on_c, 6, 49, 64
4, 44400, Note_off_c, 6, 49, 0
4, 44400, Note_on_c, 6, 51, 64
4, 44520, Note_off_c, 6, 51, 0
4, 44520, Note_on_c, 6, 53, 64
4, 44640, Note_off_c, 6, 53, 0
4, 44640, Note_on_c, 6, 54, 64
4, 44760, Note_off_c, 6, 54, 0
4, 44760, Note_on_c, 6, 52, 64
4, 44880, Note_off_c, 6, 52, 0
4, 44880, Note_on_c, 6, 51, 64
4, 45000, Note_off_c, 6, 51, 0
4, 45000, Note_on_c, 6, 49, 64
4, 45120, Note_off_c, 6, 49, 0
4, 45120, Note_on_c, 6, 48, 64
4, 45360, Note_off_c, 6, 48, 0
4, 45360, Note_on_c, 6, 49, 64
4, 45480, Note_off_c, 6, 49, 0
4, 45480, Note_on_c, 6, 49, 64
4, 45600, Note_off_c, 6, 49, 0
4, 45600, Note_on_c, 6, 56, 64
4, 45840, Note_off_c, 6, 56, 0
4, 45840, Note_on_c, 6, 44, 64
4, 46080, Note_off_c, 6, 44, 0
4, 46080, Note_on_c, 6, 49, 64
4, 46320, Note_off_c, 6, 49, 0
4, 46320, Note_on_c, 6, 49, 64
4, 46440, Note_off_c, 6, 49, 0
4, 46440, Note_on_c, 6, 47, 64
4, 46560, Note_off_c, 6, 47, 0
4, 46560, Note_on_c, 6, 46, 64
4, 46800, Note_off_c, 6, 46, 0
4, 46800, Note_on_c, 6, 42, 64
4, 47040, Note_off_c, 6, 42, 0
4, 47040, Note_on_c, 6, 54, 64
4, 47400, Note_off_c, 6, 54, 0
4, 47400, Note_on_c, 6, 52, 64
4, 47520, Note_off_c, 6, 52, 0
4, 47520, Note_on_c, 6, 50, 64
4, 47640, Note_off_c, 6, 50, 0
4, 47640, Note_on_c, 6, 49, 64
4, 47760, Note_off_c, 6, 49, 0
4, 47760, Note_on_c, 6, 47, 64
4, 47880, Note_off_c, 6, 47, 0
4, 47880, Note_on_c, 6, 45, 64
4, 48000, Note_off_c, 6, 45, 0
4, 48000, Note_on_c, 6, 44, 64
4, 48120, Note_off_c, 6, 44, 0
4, 48120, Note_on_c, 6, 47, 64
4, 48240, Note_off_c, 6, 47, 0
4, 48240, Note_on_c, 6, 40, 64
4, 48480, Note_off_c, 6, 40, 0
4, 48480, Note_on_c, 6, 52, 64
4, 48840, Note_off_c, 6, 52, 0
4, 48840, Note_on_c, 6, 50, 64
4, 48960, Note_off_c, 6, 50, 0
4, 48960, Note_on_c, 6, 49, 80
4, 49080, Note_off_c, 6, 49, 0
4, 49080, Note_on_c, 6, 52, 79
4, 49200, Note_off_c, 6, 52, 0
4, 49200, Note_on_c, 6, 45, 79
4, 49440, Note_off_c, 6, 45, 0
4, 50520, Note_on_c, 6, 61, 71
4, 50760, Note_off_c, 6, 61, 0
4, 50760, Note_on_c, 6, 59, 70
4, 50880, Note_off_c, 6, 59, 0
4, 50880, Note_on_c, 6, 58, 69
4, 51000, Note_off_c, 6, 58, 0
4, 51000, Note_on_c, 6, 54, 69
4, 51120, Note_off_c, 6, 54, 0
4, 51120, Note_on_c, 6, 56, 68
4, 51240, Note_off_c, 6, 56, 0
4, 51240, Note_on_c, 6, 58, 67
4, 51360, Note_off_c, 6, 58, 0
4, 51360, Note_on_c, 6, 59, 67
4, 51480, Note_off_c, 6, 59, 0
4, 51480, Note_on_c, 6, 57, 66
4, 51600, Note_off_c, 6, 57, 0
4, 51600, Note_on_c, 6, 56, 65
4, 51720, Note_off_c, 6, 56, 0
4, 51720, Note_on_c, 6, 54, 65
4, 51840, Note_off_c, 6, 54, 0
4, 51840, Note_on_c, 6, 53, 64
4, 51960, Note_off_c, 6, 53, 0
4, 51960, Note_on_c, 6, 49, 64
4, 52080, Note_off_c, 6, 49, 0
4, 52080, Note_on_c, 6, 54, 64
4, 52560, Note_off_c, 6, 54, 0
4, 52560, Note_on_c, 6, 55, 64
4, 52800, Note_off_c, 6, 55, 0
4, 52800, Note_on_c, 6, 53, 64
4, 53160, Note_off_c, 6, 53, 0
4, 53160, Note_on_c, 6, 54, 64
4, 53280, Note_off_c, 6, 54, 0
4, 53280, Note_on_c, 6, 56, 64
4, 53400, Note_off_c, 6, 56, 0
4, 53400, Note_on_c, 6, 54, 64
4, 53520, Note_off_c, 6, 54, 0
4, 53520, Note_on_c, 6, 56, 64
4, 53640, Note_off_c, 6, 56, 0
4, 53640, Note_on_c, 6, 57, 64
4, 53760, Note_off_c, 6, 57, 0
4, 53760, Note_on_c, 6, 59, 64
4, 54000, Note_off_c, 6, 59, 0
4, 54000, Note_on_c, 6, 57, 64
4, 54120, Note_off_c, 6, 57, 0
4, 54120, Note_on_c, 6, 56, 64
4, 54240, Note_off_c, 6, 56, 0
4, 54240, Note_on_c, 6, 57, 64
4, 54480, Note_off_c, 6, 57, 0
4, 54480, Note_on_c, 6, 56, 64
4, 54720, Note_off_c, 6, 56, 0
4, 54720, Note_on_c, 6, 54, 64
4, 55320, Note_off_c, 6, 54, 0
4, 55320, Note_on_c, 6, 54, 67
4, 55440, Note_off_c, 6, 54, 0
4, 55440, Note_on_c, 6, 56, 68
4, 55560, Note_off_c, 6, 56, 0
4, 55560, Note_on_c, 6, 58, 69
4, 55680, Note_off_c, 6, 58, 0
4, 55680, Note_on_c, 6, 59, 69
4, 55800, Note_off_c, 6, 59, 0
4, 55800, Note_on_c, 6, 57, 70
4, 55920, Note_off_c, 6, 57, 0
4, 55920, Note_on_c, 6, 56, 71
4, 56040, Note_off_c, 6, 56, 0
4, 56040, Note_on_c, 6, 54, 71
4, 56160, Note_off_c, 6, 54, 0
4, 56160, Note_on_c, 6, 53, 72
4, 56400, Note_off_c, 6, 53, 0
4, 56400, Note_on_c, 6, 54, 73
4, 56520, Note_off_c, 6, 54, 0
4, 56520, Note_on_c, 6, 47, 74
4, 56640, Note_off_c, 6, 47, 0
4, 56640, Note_on_c, 6, 49, 75
4, 56880, Note_off_c, 6, 49, 0
4, 56880, Note_on_c, 6, 49, 76
4, 57120, Note_off_c, 6, 49, 0
4, 57120, Note_on_c, 6, 42, 77
4, 57600, Note_off_c, 6, 42, 0
4, 57615, End_track
5, 0, Start_track
5, 0, Title_t, "Oboe"
5, 0, Program_c, 5, 68
5, 0, Control_c, 5, 7, 90
5, 11040, Note_on_c, 5, 73, 64
5, 11280, Note_off_c, 5, 73, 0
5, 11280, Note_on_c, 5, 74, 64
5, 11520, Note_off_c, 5, 74, 0
5, 11520, Note_on_c, 5, 72, 64
5, 11880, Note_off_c, 5, 72, 0
5, 11880, Note_on_c, 5, 73, 64
5, 12000, Note_off_c, 5, 73, 0
5, 12000, Note_on_c, 5, 75, 64
5, 12120, Note_off_c, 5, 75, 0
5, 12120, Note_on_c, 5, 73, 64
5, 12240, Note_off_c, 5, 73, 0
5, 12240, Note_on_c, 5, 75, 64
5, 12360, Note_off_c, 5, 75, 0
5, 12360, Note_on_c, 5, 76, 64
5, 12480, Note_off_c, 5, 76, 0
5, 12480, Note_on_c, 5, 78, 64
5, 12720, Note_off_c, 5, 78, 0
5, 12720, Note_on_c, 5, 76, 64
5, 12840, Note_off_c, 5, 76, 0
5, 12840, Note_on_c, 5, 75, 64
5, 12960, Note_off_c, 5, 75, 0
5, 12960, Note_on_c, 5, 76, 64
5, 13200, Note_off_c, 5, 76, 0
5, 13200, Note_on_c, 5, 75, 64
5, 13440, Note_off_c, 5, 75, 0
5, 13440, Note_on_c, 5, 73, 64
5, 13680, Note_off_c, 5, 73, 0
5, 13680, Note_on_c, 5, 76, 58
5, 14160, Note_off_c, 5, 76, 0
5, 14160, Note_on_c, 5, 74, 46
5, 14280, Note_off_c, 5, 74, 0
5, 14280, Note_on_c, 5, 73, 43
5, 14400, Note_off_c, 5, 73, 0
5, 14400, Note_on_c, 5, 71, 45
5, 14640, Note_off_c, 5, 71, 0
5, 14640, Note_on_c, 5, 70, 46
5, 14880, Note_off_c, 5, 70, 0
5, 14880, Note_on_c, 5, 71, 47
5, 15120, Note_off_c, 5, 71, 0
5, 15120, Note_on_c, 5, 78, 48
5, 15600, Note_off_c, 5, 78, 0
5, 15600, Note_on_c, 5, 76, 50
5, 15720, Note_off_c, 5, 76, 0
5, 15720, Note_on_c, 5, 75, 50
5, 15840, Note_off_c, 5, 75, 0
5, 15840, Note_on_c, 5, 73, 51
5, 16080, Note_off_c, 5, 73, 0
5, 16080, Note_on_c, 5, 72, 52
5, 16320, Note_off_c, 5, 72, 0
5, 16320, Note_on_c, 5, 73, 53
5, 16560, Note_off_c, 5, 73, 0
5, 16560, Note_on_c, 5, 73, 54
5, 16920, Note_off_c, 5, 73, 0
5, 16920, Note_on_c, 5, 71, 55
5, 17040, Note_off_c, 5, 71, 0
5, 17040, Note_on_c, 5, 69, 55
5, 17160, Note_off_c, 5, 69, 0
5, 17160, Note_on_c, 5, 68, 56
5, 17280, Note_off_c, 5, 68, 0
5, 17280, Note_on_c, 5, 69, 56
5, 17520, Note_off_c, 5, 69, 0
5, 17520, Note_on_c, 5, 68, 57
5, 17640, Note_off_c, 5, 68, 0
5, 17640, Note_on_c, 5, 69, 58
5, 17760, Note_off_c, 5, 69, 0
5, 17760, Note_on_c, 5, 71, 58
5, 18360, Note_off_c, 5, 71, 0
5, 18360, Note_on_c, 5, 73, 61
5, 18480, Note_off_c, 5, 73, 0
5, 18480, Note_on_c, 5, 74, 61
5, 18960, Note_off_c, 5, 74, 0
5, 18960, Note_on_c, 5, 73, 63
5, 19440, Note_off_c, 5, 73, 0
5, 19440, Note_on_c, 5, 78, 64
5, 19560, Note_off_c, 5, 78, 0
5, 19560, Note_on_c, 5, 76, 64
5, 19680, Note_off_c, 5, 76, 0
5, 19680, Note_on_c, 5, 74, 64
5, 19920, Note_off_c, 5, 74, 0
5, 19920, Note_on_c, 5, 73, 64
5, 20040, Note_off_c, 5, 73, 0
5, 20040, Note_on_c, 5, 71, 64
5, 20160, Note_off_c, 5, 71, 0
5, 20160, Note_on_c, 5, 69, 64
5, 20280, Note_off_c, 5, 69, 0
5, 20280, Note_on_c, 5, 71, 64
5, 20400, Note_off_c, 5, 71, 0
5, 20400, Note_on_c, 5, 73, 64
5, 20520, Note_off_c, 5, 73, 0
5, 20520, Note_on_c, 5, 66, 64
5, 20640, Note_off_c, 5, 66, 0
5, 20640, Note_on_c, 5, 75, 64
5, 20880, Note_off_c, 5, 75, 0
5, 20880, Note_on_c, 5, 76, 64
5, 21000, Note_off_c, 5, 76, 0
5, 21000, Note_on_c, 5, 78, 64
5, 21120, Note_off_c, 5, 78, 0
5, 21120, Note_on_c, 5, 79, 64
5, 21360, Note_off_c, 5, 79, 0
5, 21360, Note_on_c, 5, 78, 64
5, 21600, Note_off_c, 5, 78, 0
5, 21600, Note_on_c, 5, 76, 64
5, 21840, Note_off_c, 5, 76, 0
5, 21840, Note_on_c, 5, 74, 64
5, 22200, Note_off_c, 5, 74, 0
5, 22200, Note_on_c, 5, 73, 64
5, 22440, Note_off_c, 5, 73, 0
5, 22440, Note_on_c, 5, 71, 64
5, 22560, Note_off_c, 5, 71, 0
5, 22560, Note_on_c, 5, 69, 64
5, 22680, Note_off_c, 5, 69, 0
5, 22680, Note_on_c, 5, 71, 64
5, 22800, Note_off_c, 5, 71, 0
5, 22800, Note_on_c, 5, 73, 64
5, 22920, Note_off_c, 5, 73, 0
5, 22920, Note_on_c, 5, 74, 64
5, 23040, Note_off_c, 5, 74, 0
5, 23040, Note_on_c, 5, 76, 64
5, 23640, Note_off_c, 5, 76, 0
5, 23640, Note_on_c, 5, 74, 64
5, 23760, Note_off_c, 5, 74, 0
5, 23760, Note_on_c, 5, 74, 64
5, 24000, Note_off_c, 5, 74, 0
5, 24000, Note_on_c, 5, 73, 64
5, 24240, Note_off_c, 5, 73, 0
5, 24240, Note_on_c, 5, 71, 64
5, 24360, Note_off_c, 5, 71, 0
5, 24360, Note_on_c, 5, 69, 64
5, 24480, Note_off_c, 5, 69, 0
5, 24480, Note_on_c, 5, 75, 64
5, 24840, Note_off_c, 5, 75, 0
5, 24840, Note_on_c, 5, 76, 64
5, 24960, Note_off_c, 5, 76, 0
5, 24960, Note_on_c, 5, 78, 64
5, 25080, Note_off_c, 5, 78, 0
5, 25080, Note_on_c, 5, 76, 64
5, 25200, Note_off_c, 5, 76, 0
5, 25200, Note_on_c, 5, 75, 64
5, 25320, Note_off_c, 5, 75, 0
5, 25320, Note_on_c, 5, 73, 64
5, 25440, Note_off_c, 5, 73, 0
5, 25440, Note_on_c, 5, 72, 64
5, 25680, Note_off_c, 5, 72, 0
5, 25680, Note_on_c, 5, 73, 64
5, 25800, Note_off_c, 5, 73, 0
5, 25800, Note_on_c, 5, 75, 64
5, 25920, Note_off_c, 5, 75, 0
5, 25920, Note_on_c, 5, 68, 64
5, 26040, Note_off_c, 5, 68, 0
5, 26040, Note_on_c, 5, 73, 61
5, 26280, Note_off_c, 5, 73, 0
5, 26280, Note_on_c, 5, 72, 55
5, 26400, Note_off_c, 5, 72, 0
5, 26400, Note_on_c, 5, 73, 52
5, 26520, Note_off_c, 5, 73, 0
5, 26520, Note_on_c, 5, 71, 49
5, 26640, Note_off_c, 5, 71, 0
5, 26640, Note_on_c, 5, 69, 46
5, 26760, Note_off_c, 5, 69, 0
5, 26760, Note_on_c, 5, 68, 43
5, 26880, Note_off_c, 5, 68, 0
5, 26880, Note_on_c, 5, 66, 40
5, 27000, Note_off_c, 5, 66, 0
5, 27000, Note_on_c, 5, 68, 41
5, 27120, Note_off_c, 5, 68, 0
5, 27120, Note_on_c, 5, 69, 42
5, 27360, Note_off_c, 5, 69, 0
5, 27360, Note_on_c, 5, 68, 43
5, 27480, Note_off_c, 5, 68, 0
5, 27480, Note_on_c, 5, 69, 44
5, 27600, Note_off_c, 5, 69, 0
5, 27600, Note_on_c, 5, 71, 45
5, 27960, Note_off_c, 5, 71, 0
5, 27960, Note_on_c, 5, 69, 47
5, 28080, Note_off_c, 5, 69, 0
5, 28080, Note_on_c, 5, 71, 48
5, 28200, Note_off_c, 5, 71, 0
5, 28200, Note_on_c, 5, 73, 48
5, 28320, Note_off_c, 5, 73, 0
5, 28320, Note_on_c, 5, 74, 49
5, 28920, Note_off_c, 5, 74, 0
5, 28920, Note_on_c, 5, 73, 53
5, 29040, Note_off_c, 5, 73, 0
5, 29040, Note_on_c, 5, 71, 54
5, 29160, Note_off_c, 5, 71, 0
5, 29160, Note_on_c, 5, 69, 54
5, 29280, Note_off_c, 5, 69, 0
5, 29280, Note_on_c, 5, 71, 55
5, 29400, Note_off_c, 5, 71, 0
5, 29400, Note_on_c, 5, 69, 56
5, 29520, Note_off_c, 5, 69, 0
5, 29520, Note_on_c, 5, 68, 57
5, 29640, Note_off_c, 5, 68, 0
5, 29640, Note_on_c, 5, 66, 57
5, 29760, Note_off_c, 5, 66, 0
5, 29760, Note_on_c, 5, 65, 58
5, 30000, Note_off_c, 5, 65, 0
5, 30000, Note_on_c, 5, 66, 60
5, 30480, Note_off_c, 5, 66, 0
5, 30480, Note_on_c, 5, 65, 63
5, 30720, Note_off_c, 5, 65, 0
5, 30720, Note_on_c, 5, 66, 64
5, 30960, Note_off_c, 5, 66, 0
5, 31800, Note_on_c, 5, 76, 64
5, 32040, Note_off_c, 5, 76, 0
5, 32040, Note_on_c, 5, 74, 64
5, 32160, Note_off_c, 5, 74, 0
5, 32160, Note_on_c, 5, 73, 64
5, 32280, Note_off_c, 5, 73, 0
5, 32280, Note_on_c, 5, 69, 64
5, 32400, Note_off_c, 5, 69, 0
5, 32400, Note_on_c, 5, 71, 64
5, 32520, Note_off_c, 5, 71, 0
5, 32520, Note_on_c, 5, 73, 64
5, 32640, Note_off_c, 5, 73, 0
5, 32640, Note_on_c, 5, 74, 64
5, 32760, Note_off_c, 5, 74, 0
5, 32760, Note_on_c, 5, 73, 64
5, 32880, Note_off_c, 5, 73, 0
5, 32880, Note_on_c, 5, 71, 64
5, 33000, Note_off_c, 5, 71, 0
5, 33000, Note_on_c, 5, 70, 64
5, 33120, Note_off_c, 5, 70, 0
5, 33120, Note_on_c, 5, 71, 64
5, 33240, Note_off_c, 5, 71, 0
5, 33240, Note_on_c, 5, 76, 64
5, 33360, Note_off_c, 5, 76, 0
5, 33360, Note_on_c, 5, 74, 64
5, 33480, Note_off_c, 5, 74, 0
5, 33480, Note_on_c, 5, 73, 64
5, 33600, Note_off_c, 5, 73, 0
5, 33600, Note_on_c, 5, 74, 64
5, 33840, Note_off_c, 5, 74, 0
5, 33840, Note_on_c, 5, 73, 64
5, 34080, Note_off_c, 5, 73, 0
5, 34080, Note_on_c, 5, 71, 64
5, 34320, Note_off_c, 5, 71, 0
5, 38880, Note_on_c, 5, 71, 64
5, 39120, Note_off_c, 5, 71, 0
5, 39120, Note_on_c, 5, 72, 64
5, 39360, Note_off_c, 5, 72, 0
5, 39360, Note_on_c, 5, 70, 64
5, 39720, Note_off_c, 5, 70, 0
5, 39720, Note_on_c, 5, 71, 64
5, 39840, Note_off_c, 5, 71, 0
5, 39840, Note_on_c, 5, 73, 64
5, 39960, Note_off_c, 5, 73, 0
5, 39960, Note_on_c, 5, 71, 64
5, 40080, Note_off_c, 5, 71, 0
5, 40080, Note_on_c, 5, 73, 64
5, 40200, Note_off_c, 5, 73, 0
5, 40200, Note_on_c, 5, 74, 64
5, 40320, Note_off_c, 5, 74, 0
5, 40320, Note_on_c, 5, 76, 64
5, 40560, Note_off_c, 5, 76, 0
5, 40560, Note_on_c, 5, 74, 64
5, 40680, Note_off_c, 5, 74, 0
5, 40680, Note_on_c, 5, 73, 64
5, 40800, Note_off_c, 5, 73, 0
5, 40800, Note_on_c, 5, 74, 64
5, 41040, Note_off_c, 5, 74, 0
5, 41040, Note_on_c, 5, 73, 64
5, 41280, Note_off_c, 5, 73, 0
5, 41280, Note_on_c, 5, 71, 64
5, 41400, Note_off_c, 5, 71, 0
5, 41880, Note_on_c, 5, 78, 64
5, 42120, Note_off_c, 5, 78, 0
5, 42120, Note_on_c, 5, 76, 64
5, 42240, Note_off_c, 5, 76, 0
5, 42240, Note_on_c, 5, 75, 64
5, 42360, Note_off_c, 5, 75, 0
5, 42360, Note_on_c, 5, 71, 64
5, 42480, Note_off_c, 5, 71, 0
5, 42480, Note_on_c, 5, 73, 64
5, 42600, Note_off_c, 5, 73, 0
5, 42600, Note_on_c, 5, 75, 64
5, 42720, Note_off_c, 5, 75, 0
5, 42720, Note_on_c, 5, 76, 64
5, 42840, Note_off_c, 5, 76, 0
5, 42840, Note_on_c, 5, 74, 64
5, 42960, Note_off_c, 5, 74, 0
5, 42960, Note_on_c, 5, 73, 64
5, 43080, Note_off_c, 5, 73, 0
5, 43080, Note_on_c, 5, 71, 64
5, 43200, Note_off_c, 5, 71, 0
5, 43200, Note_on_c, 5, 73, 64
5, 43800, Note_off_c, 5, 73, 0
5, 43800, Note_on_c, 5, 66, 64
5, 43920, Note_off_c, 5, 66, 0
5, 43920, Note_on_c, 5, 71, 64
5, 44280, Note_off_c, 5, 71, 0
5, 44280, Note_on_c, 5, 74, 64
5, 44400, Note_off_c, 5, 74, 0
5, 44400, Note_on_c, 5, 73, 64
5, 44520, Note_off_c, 5, 73, 0
5, 44520, Note_on_c, 5, 71, 64
5, 44640, Note_off_c, 5, 71, 0
5, 44640, Note_on_c, 5, 69, 64
5, 44760, Note_off_c, 5, 69, 0
5, 44760, Note_on_c, 5, 73, 64
5, 44880, Note_off_c, 5, 73, 0
5, 44880, Note_on_c, 5, 78, 64
5, 45240, Note_off_c, 5, 78, 0
5, 45240, Note_on_c, 5, 75, 64
5, 45360, Note_off_c, 5, 75, 0
5, 45360, Note_on_c, 5, 76, 64
5, 45480, Note_off_c, 5, 76, 0
5, 45480, Note_on_c, 5, 73, 64
5, 45720, Note_off_c, 5, 73, 0
5, 45720, Note_on_c, 5, 70, 64
5, 45840, Note_off_c, 5, 70, 0
5, 45840, Note_on_c, 5, 72, 64
5, 46080, Note_off_c, 5, 72, 0
5, 46080, Note_on_c, 5, 73, 64
5, 46320, Note_off_c, 5, 73, 0
5, 46320, Note_on_c, 5, 76, 64
5, 46800, Note_off_c, 5, 76, 0
5, 46800, Note_on_c, 5, 74, 64
5, 46920, Note_off_c, 5, 74, 0
5, 46920, Note_on_c, 5, 73, 64
5, 47040, Note_off_c, 5, 73, 0
5, 47040, Note_on_c, 5, 71, 64
5, 47280, Note_off_c, 5, 71, 0
5, 47280, Note_on_c, 5, 70, 64
5, 47520, Note_off_c, 5, 70, 0
5, 47520, Note_on_c, 5, 71, 64
5, 47760, Note_off_c, 5, 71, 0
5, 47760, Note_on_c, 5, 74, 64
5, 48240, Note_off_c, 5, 74, 0
5, 48240, Note_on_c, 5, 73, 64
5, 48360, Note_off_c, 5, 73, 0
5, 48360, Note_on_c, 5, 71, 64
5, 48480, Note_off_c, 5, 71, 0
5, 48480, Note_on_c, 5, 69, 64
5, 48720, Note_off_c, 5, 69, 0
5, 48720, Note_on_c, 5, 68, 64
5, 48960, Note_off_c, 5, 68, 0
5, 48960, Note_on_c, 5, 69, 80
5, 49080, Note_off_c, 5, 69, 0
5, 49080, Note_on_c, 5, 81, 79
5, 49320, Note_off_c, 5, 81, 0
5, 49320, Note_on_c, 5, 80, 78
5, 49440, Note_off_c, 5, 80, 0
5, 49440, Note_on_c, 5, 79, 77
5, 49560, Note_off_c, 5, 79, 0
5, 49560, Note_on_c, 5, 75, 77
5, 49680, Note_off_c, 5, 75, 0
5, 49680, Note_on_c, 5, 77, 76
5, 49800, Note_off_c, 5, 77, 0
5, 49800, Note_on_c, 5, 79, 75
5, 49920, Note_off_c, 5, 79, 0
5, 49920, Note_on_c, 5, 80, 75
5, 50040, Note_off_c, 5, 80, 0
5, 50040, Note_on_c, 5, 78, 74
5, 50160, Note_off_c, 5, 78, 0
5, 50160, Note_on_c, 5, 77, 73
5, 50280, Note_off_c, 5, 77, 0
5, 50280, Note_on_c, 5, 75, 73
5, 50400, Note_off_c, 5, 75, 0
5, 50400, Note_on_c, 5, 73, 72
5, 51000, Note_off_c, 5, 73, 0
5, 51000, Note_on_c, 5, 78, 69
5, 51240, Note_off_c, 5, 78, 0
5, 51240, Note_on_c, 5, 76, 67
5, 51360, Note_off_c, 5, 76, 0
5, 51360, Note_on_c, 5, 75, 67
5, 51600, Note_off_c, 5, 75, 0
5, 51600, Note_on_c, 5, 74, 65
5, 51840, Note_off_c, 5, 74, 0
5, 51840, Note_on_c, 5, 73, 64
5, 52080, Note_off_c, 5, 73, 0
5, 52080, Note_on_c, 5, 73, 64
5, 52320, Note_off_c, 5, 73, 0
5, 52320, Note_on_c, 5, 69, 64
5, 52560, Note_off_c, 5, 69, 0
5, 52800, Note_on_c, 5, 73, 64
5, 53040, Note_off_c, 5, 73, 0
5, 53040, Note_on_c, 5, 74, 64
5, 53280, Note_off_c, 5, 74, 0
5, 53280, Note_on_c, 5, 72, 64
5, 53640, Note_off_c, 5, 72, 0
5, 53640, Note_on_c, 5, 73, 64
5, 53760, Note_off_c, 5, 73, 0
5, 53760, Note_on_c, 5, 75, 64
5, 53880, Note_off_c, 5, 75, 0
5, 53880, Note_on_c, 5, 73, 64
5, 54000, Note_off_c, 5, 73, 0
5, 54000, Note_on_c, 5, 75, 64
5, 54120, Note_off_c, 5, 75, 0
5, 54120, Note_on_c, 5, 77, 64
5, 54240, Note_off_c, 5, 77, 0
5, 54240, Note_on_c, 5, 78, 64
5, 54480, Note_off_c, 5, 78, 0
5, 54480, Note_on_c, 5, 76, 64
5, 54600, Note_off_c, 5, 76, 0
5, 54600, Note_on_c, 5, 75, 64
5, 54720, Note_off_c, 5, 75, 0
5, 54720, Note_on_c, 5, 76, 64
5, 54960, Note_off_c, 5, 76, 0
5, 54960, Note_on_c, 5, 74, 65
5, 55200, Note_off_c, 5, 74, 0
5, 55200, Note_on_c, 5, 73, 67
5, 55440, Note_off_c, 5, 73, 0
5, 55440, Note_on_c, 5, 73, 68
5, 55800, Note_off_c, 5, 73, 0
5, 55800, Note_on_c, 5, 66, 70
5, 55920, Note_off_c, 5, 66, 0
5, 55920, Note_on_c, 5, 68, 71
5, 56040, Note_off_c, 5, 68, 0
5, 56040, Note_on_c, 5, 69, 71
5, 56160, Note_off_c, 5, 69, 0
5, 56160, Note_on_c, 5, 71, 72
5, 56280, Note_off_c, 5, 71, 0
5, 56280, Note_on_c, 5, 74, 73
5, 56400, Note_off_c, 5, 74, 0
5, 56400, Note_on_c, 5, 73, 73
5, 56520, Note_off_c, 5, 73, 0
5, 56520, Note_on_c, 5, 71, 74
5, 56640, Note_off_c, 5, 71, 0
5, 56640, Note_on_c, 5, 69, 75
5, 56880, Note_off_c, 5, 69, 0
5, 56880, Note_on_c, 5, 68, 76
5, 57120, Note_off_c, 5, 68, 0
5, 57120, Note_on_c, 5, 66, 77
5, 57600, Note_off_c, 5, 66, 0
5, 57615, End_track
6, 0, Start_track
6, 0, Title_t, "Soprano II"
6, 0, Program_c, 0, 52
6, 11040, Note_on_c, 0, 73, 64
6, 11280, Note_off_c, 0, 73, 0
6, 11280, Note_on_c, 0, 74, 64
6, 11520, Note_off_c, 0, 74, 0
6, 11520, Note_on_c, 0, 72, 64
6, 11880, Note_off_c, 0, 72, 0
6, 11880, Note_on_c, 0, 73, 64
6, 12000, Note_off_c, 0, 73, 0
6, 12000, Note_on_c, 0, 75, 64
6, 12120, Note_off_c, 0, 75, 0
6, 12120, Note_on_c, 0, 73, 64
6, 12240, Note_off_c, 0, 73, 0
6, 12240, Note_on_c, 0, 75, 64
6, 12360, Note_off_c, 0, 75, 0
6, 12360, Note_on_c, 0, 76, 64
6, 12480, Note_off_c, 0, 76, 0
6, 12480, Note_on_c, 0, 78, 64
6, 12720, Note_off_c, 0, 78, 0
6, 12720, Note_on_c, 0, 76, 64
6, 12840, Note_off_c, 0, 76, 0
6, 12840, Note_on_c, 0, 75, 64
6, 12960, Note_off_c, 0, 75, 0
6, 12960, Note_on_c, 0, 76, 64
6, 13200, Note_off_c, 0, 76, 0
6, 13200, Note_on_c, 0, 75, 64
6, 13440, Note_off_c, 0, 75, 0
6, 13440, Note_on_c, 0, 73, 64
6, 13680, Note_off_c, 0, 73, 0
6, 13680, Note_on_c, 0, 76, 58
6, 14160, Note_off_c, 0, 76, 0
6, 14160, Note_on_c, 0, 74, 46
6, 14280, Note_off_c, 0, 74, 0
6, 14280, Note_on_c, 0, 73, 43
6, 14400, Note_off_c, 0, 73, 0
6, 14400, Note_on_c, 0, 71, 45
6, 14640, Note_off_c, 0, 71, 0
6, 14640, Note_on_c, 0, 70, 46
6, 14880, Note_off_c, 0, 70, 0
6, 14880, Note_on_c, 0, 71, 47
6, 15120, Note_off_c, 0, 71, 0
6, 15120, Note_on_c, 0, 78, 48
6, 15600, Note_off_c, 0, 78, 0
6, 15600, Note_on_c, 0, 76, 50
6, 15720, Note_off_c, 0, 76, 0
6, 15720, Note_on_c, 0, 75, 50
6, 15840, Note_off_c, 0, 75, 0
6, 15840, Note_on_c, 0, 73, 51
6, 16080, Note_off_c, 0, 73, 0
6, 16080, Note_on_c, 0, 72, 52
6, 16320, Note_off_c, 0, 72, 0
6, 16320, Note_on_c, 0, 73, 53
6, 16560, Note_off_c, 0, 73, 0
6, 16560, Note_on_c, 0, 73, 54
6, 16920, Note_off_c, 0, 73, 0
6, 16920, Note_on_c, 0, 71, 55
6, 17040, Note_off_c, 0, 71, 0
6, 17040, Note_on_c, 0, 69, 55
6, 17160, Note_off_c, 0, 69, 0
6, 17160, Note_on_c, 0, 68, 56
6, 17280, Note_off_c, 0, 68, 0
6, 17280, Note_on_c, 0, 69, 56
6, 17520, Note_off_c, 0, 69, 0
6, 17520, Note_on_c, 0, 68, 57
6, 17640, Note_off_c, 0, 68, 0
6, 17640, Note_on_c, 0, 69, 58
6, 17760, Note_off_c, 0, 69, 0
6, 17760, Note_on_c, 0, 71, 58
6, 18360, Note_off_c, 0, 71, 0
6, 18360, Note_on_c, 0, 73, 61
6, 18480, Note_off_c, 0, 73, 0
6, 18480, Note_on_c, 0, 74, 61
6, 18960, Note_off_c, 0, 74, 0
6, 18960, Note_on_c, 0, 73, 63
6, 19440, Note_off_c, 0, 73, 0
6, 19440, Note_on_c, 0, 78, 64
6, 19560, Note_off_c, 0, 78, 0
6, 19560, Note_on_c, 0, 76, 64
6, 19680, Note_off_c, 0, 76, 0
6, 19680, Note_on_c, 0, 74, 64
6, 19920, Note_off_c, 0, 74, 0
6, 19920, Note_on_c, 0, 73, 64
6, 20040, Note_off_c, 0, 73, 0
6, 20040, Note_on_c, 0, 71, 64
6, 20160, Note_off_c, 0, 71, 0
6, 20160, Note_on_c, 0, 69, 64
6, 20280, Note_off_c, 0, 69, 0
6, 20280, Note_on_c, 0, 71, 64
6, 20400, Note_off_c, 0, 71, 0
6, 20400, Note_on_c, 0, 73, 64
6, 20520, Note_off_c, 0, 73, 0
6, 20520, Note_on_c, 0, 66, 64
6, 20640, Note_off_c, 0, 66, 0
6, 20640, Note_on_c, 0, 75, 64
6, 20880, Note_off_c, 0, 75, 0
6, 20880, Note_on_c, 0, 76, 64
6, 21000, Note_off_c, 0, 76, 0
6, 21000, Note_on_c, 0, 78, 64
6, 21120, Note_off_c, 0, 78, 0
6, 21120, Note_on_c, 0, 79, 64
6, 21360, Note_off_c, 0, 79, 0
6, 21360, Note_on_c, 0, 78, 64
6, 21600, Note_off_c, 0, 78, 0
6, 21600, Note_on_c, 0, 76, 64
6, 21840, Note_off_c, 0, 76, 0
6, 21840, Note_on_c, 0, 74, 64
6, 22200, Note_off_c, 0, 74, 0
6, 22200, Note_on_c, 0, 73, 64
6, 22440, Note_off_c, 0, 73, 0
6, 22440, Note_on_c, 0, 71, 64
6, 22560, Note_off_c, 0, 71, 0
6, 22560, Note_on_c, 0, 69, 64
6, 22680, Note_off_c, 0, 69, 0
6, 22680, Note_on_c, 0, 71, 64
6, 22800, Note_off_c, 0, 71, 0
6, 22800, Note_on_c, 0, 73, 64
6, 22920, Note_off_c, 0, 73, 0
6, 22920, Note_on_c, 0, 74, 64
6, 23040, Note_off_c, 0, 74, 0
6, 23040, Note_on_c, 0, 76, 64
6, 23640, Note_off_c, 0, 76, 0
6, 23640, Note_on_c, 0, 74, 64
6, 23760, Note_off_c, 0, 74, 0
6, 23760, Note_on_c, 0, 74, 64
6, 24000, Note_off_c, 0, 74, 0
6, 24000, Note_on_c, 0, 73, 64
6, 24240, Note_off_c, 0, 73, 0
6, 24240, Note_on_c, 0, 71, 64
6, 24360, Note_off_c, 0, 71, 0
6, 24360, Note_on_c, 0, 69, 64
6, 24480, Note_off_c, 0, 69, 0
6, 24480, Note_on_c, 0, 75, 64
6, 24840, Note_off_c, 0, 75, 0
6, 24840, Note_on_c, 0, 76, 64
6, 24960, Note_off_c, 0, 76, 0
6, 24960, Note_on_c, 0, 78, 64
6, 25080, Note_off_c, 0, 78, 0
6, 25080, Note_on_c, 0, 76, 64
6, 25200, Note_off_c, 0, 76, 0
6, 25200, Note_on_c, 0, 75, 64
6, 25320, Note_off_c, 0, 75, 0
6, 25320, Note_on_c, 0, 73, 64
6, 25440, Note_off_c, 0, 73, 0
6, 25440, Note_on_c, 0, 72, 64
6, 25680, Note_off_c, 0, 72, 0
6, 25680, Note_on_c, 0, 73, 64
6, 25800, Note_off_c, 0, 73, 0
6, 25800, Note_on_c, 0, 75, 64
6, 25920, Note_off_c, 0, 75, 0
6, 25920, Note_on_c, 0, 68, 64
6, 26040, Note_off_c, 0, 68, 0
6, 26040, Note_on_c, 0, 73, 61
6, 26280, Note_off_c, 0, 73, 0
6, 26280, Note_on_c, 0, 72, 55
6, 26400, Note_off_c, 0, 72, 0
6, 26400, Note_on_c, 0, 73, 52
6, 26520, Note_off_c, 0, 73, 0
6, 26520, Note_on_c, 0, 71, 49
6, 26640, Note_off_c, 0, 71, 0
6, 26640, Note_on_c, 0, 69, 46
6, 26760, Note_off_c, 0, 69, 0
6, 26760, Note_on_c, 0, 68, 43
6, 26880, Note_off_c, 0, 68, 0
6, 26880, Note_on_c, 0, 66, 40
6, 27000, Note_off_c, 0, 66, 0
6, 27000, Note_on_c, 0, 68, 41
6, 27120, Note_off_c, 0, 68, 0
6, 27120, Note_on_c, 0, 69, 42
6, 27360, Note_off_c, 0, 69, 0
6, 27360, Note_on_c, 0, 68, 43
6, 27480, Note_off_c, 0, 68, 0
6, 27480, Note_on_c, 0, 69, 44
6, 27600, Note_off_c, 0, 69, 0
6, 27600, Note_on_c, 0, 71, 45
6, 27960, Note_off_c, 0, 71, 0
6, 27960, Note_on_c, 0, 69, 47
6, 28080, Note_off_c, 0, 69, 0
6, 28080, Note_on_c, 0, 71, 48
6, 28200, Note_off_c, 0, 71, 0
6, 28200, Note_on_c, 0, 73, 48
6, 28320, Note_off_c, 0, 73, 0
6, 28320, Note_on_c, 0, 74, 49
6, 28920, Note_off_c, 0, 74, 0
6, 28920, Note_on_c, 0, 73, 53
6, 29040, Note_off_c, 0, 73, 0
6, 29040, Note_on_c, 0, 71, 54
6, 29160, Note_off_c, 0, 71, 0
6, 29160, Note_on_c, 0, 69, 54
6, 29280, Note_off_c, 0, 69, 0
6, 29280, Note_on_c, 0, 71, 55
6, 29400, Note_off_c, 0, 71, 0
6, 29400, Note_on_c, 0, 69, 56
6, 29520, Note_off_c, 0, 69, 0
6, 29520, Note_on_c, 0, 68, 57
6, 29640, Note_off_c, 0, 68, 0
6, 29640, Note_on_c, 0, 66, 57
6, 29760, Note_off_c, 0, 66, 0
6, 29760, Note_on_c, 0, 65, 58
6, 30000, Note_off_c, 0, 65, 0
6, 30000, Note_on_c, 0, 66, 60
6, 30480, Note_off_c, 0, 66, 0
6, 30480, Note_on_c, 0, 65, 63
6, 30720, Note_off_c, 0, 65, 0
6, 30720, Note_on_c, 0, 66, 64
6, 30960, Note_off_c, 0, 66, 0
6, 31800, Note_on_c, 0, 76, 64
6, 32040, Note_off_c, 0, 76, 0
6, 32040, Note_on_c, 0, 74, 64
6, 32160, Note_off_c, 0, 74, 0
6, 32160, Note_on_c, 0, 73, 64
6, 32280, Note_off_c, 0, 73, 0
6, 32280, Note_on_c, 0, 69, 64
6, 32400, Note_off_c, 0, 69, 0
6, 32400, Note_on_c, 0, 71, 64
6, 32520, Note_off_c, 0, 71, 0
6, 32520, Note_on_c, 0, 73, 64
6, 32640, Note_off_c, 0, 73, 0
6, 32640, Note_on_c, 0, 74, 64
6, 32760, Note_off_c, 0, 74, 0
6, 32760, Note_on_c, 0, 73, 64
6, 32880, Note_off_c, 0, 73, 0
6, 32880, Note_on_c, 0, 71, 64
6, 33000, Note_off_c, 0, 71, 0
6, 33000, Note_on_c, 0, 70, 64
6, 33120, Note_off_c, 0, 70, 0
6, 33120, Note_on_c, 0, 71, 64
6, 33240, Note_off_c, 0, 71, 0
6, 33240, Note_on_c, 0, 76, 64
6, 33360, Note_off_c, 0, 76, 0
6, 33360, Note_on_c, 0, 74, 64
6, 33480, Note_off_c, 0, 74, 0
6, 33480, Note_on_c, 0, 73, 64
6, 33600, Note_off_c, 0, 73, 0
6, 33600, Note_on_c, 0, 74, 64
6, 33840, Note_off_c, 0, 74, 0
6, 33840, Note_on_c, 0, 73, 64
6, 34080, Note_off_c, 0, 73, 0
6, 34080, Note_on_c, 0, 71, 64
6, 34320, Note_off_c, 0, 71, 0
6, 38880, Note_on_c, 0, 71, 64
6, 39120, Note_off_c, 0, 71, 0
6, 39120, Note_on_c, 0, 72, 64
6, 39360, Note_off_c, 0, 72, 0
6, 39360, Note_on_c, 0, 70, 64
6, 39720, Note_off_c, 0, 70, 0
6, 39720, Note_on_c, 0, 71, 64
6, 39840, Note_off_c, 0, 71, 0
6, 39840, Note_on_c, 0, 73, 64
6, 39960, Note_off_c, 0, 73, 0
6, 39960, Note_on_c, 0, 71, 64
6, 40080, Note_off_c, 0, 71, 0
6, 40080, Note_on_c, 0, 73, 64
6, 40200, Note_off_c, 0, 73, 0
6, 40200, Note_on_c, 0, 74, 64
6, 40320, Note_off_c, 0, 74, 0
6, 40320, Note_on_c, 0, 76, 64
6, 40560, Note_off_c, 0, 76, 0
6, 40560, Note_on_c, 0, 74, 64
6, 40680, Note_off_c, 0, 74, 0
6, 40680, Note_on_c, 0, 73, 64
6, 40800, Note_off_c, 0, 73, 0
6, 40800, Note_on_c, 0, 74, 64
6, 41040, Note_off_c, 0, 74, 0
6, 41040, Note_on_c, 0, 73, 64
6, 41280, Note_off_c, 0, 73, 0
6, 41280, Note_on_c, 0, 71, 64
6, 41400, Note_off_c, 0, 71, 0
6, 41880, Note_on_c, 0, 78, 64
6, 42120, Note_off_c, 0, 78, 0
6, 42120, Note_on_c, 0, 76, 64
6, 42240, Note_off_c, 0, 76, 0
6, 42240, Note_on_c, 0, 75, 64
6, 42360, Note_off_c, 0, 75, 0
6, 42360, Note_on_c, 0, 71, 64
6, 42480, Note_off_c, 0, 71, 0
6, 42480, Note_on_c, 0, 73, 64
6, 42600, Note_off_c, 0, 73, 0
6, 42600, Note_on_c, 0, 75, 64
6, 42720, Note_off_c, 0, 75, 0
6, 42720, Note_on_c, 0, 76, 64
6, 42840, Note_off_c, 0, 76, 0
6, 42840, Note_on_c, 0, 74, 64
6, 42960, Note_off_c, 0, 74, 0
6, 42960, Note_on_c, 0, 73, 64
6, 43080, Note_off_c, 0, 73, 0
6, 43080, Note_on_c, 0, 71, 64
6, 43200, Note_off_c, 0, 71, 0
6, 43200, Note_on_c, 0, 73, 64
6, 43800, Note_off_c, 0, 73, 0
6, 43800, Note_on_c, 0, 66, 64
6, 43920, Note_off_c, 0, 66, 0
6, 43920, Note_on_c, 0, 71, 64
6, 44280, Note_off_c, 0, 71, 0
6, 44280, Note_on_c, 0, 74, 64
6, 44400, Note_off_c, 0, 74, 0
6, 44400, Note_on_c, 0, 73, 64
6, 44520, Note_off_c, 0, 73, 0
6, 44520, Note_on_c, 0, 71, 64
6, 44640, Note_off_c, 0, 71, 0
6, 44640, Note_on_c, 0, 69, 64
6, 44760, Note_off_c, 0, 69, 0
6, 44760, Note_on_c, 0, 73, 64
6, 44880, Note_off_c, 0, 73, 0
6, 44880, Note_on_c, 0, 78, 64
6, 45240, Note_off_c, 0, 78, 0
6, 45240, Note_on_c, 0, 75, 64
6, 45360, Note_off_c, 0, 75, 0
6, 45360, Note_on_c, 0, 76, 64
6, 45480, Note_off_c, 0, 76, 0
6, 45480, Note_on_c, 0, 73, 64
6, 45720, Note_off_c, 0, 73, 0
6, 45720, Note_on_c, 0, 70, 64
6, 45840, Note_off_c, 0, 70, 0
6, 45840, Note_on_c, 0, 72, 64
6, 46080, Note_off_c, 0, 72, 0
6, 46080, Note_on_c, 0, 73, 64
6, 46320, Note_off_c, 0, 73, 0
6, 46320, Note_on_c, 0, 76, 64
6, 46800, Note_off_c, 0, 76, 0
6, 46800, Note_on_c, 0, 74, 64
6, 46920, Note_off_c, 0, 74, 0
6, 46920, Note_on_c, 0, 73, 64
6, 47040, Note_off_c, 0, 73, 0
6, 47040, Note_on_c, 0, 71, 64
6, 47280, Note_off_c, 0, 71, 0
6, 47280, Note_on_c, 0, 70, 64
6, 47520, Note_off_c, 0, 70, 0
6, 47520, Note_on_c, 0, 71, 64
6, 47760, Note_off_c, 0, 71, 0
6, 47760, Note_on_c, 0, 74, 64
6, 48240, Note_off_c, 0, 74, 0
6, 48240, Note_on_c, 0, 73, 64
6, 48360, Note_off_c, 0, 73, 0
6, 48360, Note_on_c, 0, 71, 64
6, 48480, Note_off_c, 0, 71, 0
6, 48480, Note_on_c, 0, 69, 64
6, 48720, Note_off_c, 0, 69, 0
6, 48720, Note_on_c, 0, 68, 64
6, 48960, Note_off_c, 0, 68, 0
6, 48960, Note_on_c, 0, 69, 80
6, 49080, Note_off_c, 0, 69, 0
6, 49080, Note_on_c, 0, 81, 79
6, 49320, Note_off_c, 0, 81, 0
6, 49320, Note_on_c, 0, 80, 78
6, 49440, Note_off_c, 0, 80, 0
6, 49440, Note_on_c, 0, 79, 77
6, 49560, Note_off_c, 0, 79, 0
6, 49560, Note_on_c, 0, 75, 77
6, 49680, Note_off_c, 0, 75, 0
6, 49680, Note_on_c, 0, 77, 76
6, 49800, Note_off_c, 0, 77, 0
6, 49800, Note_on_c, 0, 79, 75
6, 49920, Note_off_c, 0, 79, 0
6, 49920, Note_on_c, 0, 80, 75
6, 50040, Note_off_c, 0, 80, 0
6, 50040, Note_on_c, 0, 78, 74
6, 50160, Note_off_c, 0, 78, 0
6, 50160, Note_on_c, 0, 77, 73
6, 50280, Note_off_c, 0, 77, 0
6, 50280, Note_on_c, 0, 75, 73
6, 50400, Note_off_c, 0, 75, 0
6, 50400, Note_on_c, 0, 73, 72
6, 51000, Note_off_c, 0, 73, 0
6, 51000, Note_on_c, 0, 78, 69
6, 51240, Note_off_c, 0, 78, 0
6, 51240, Note_on_c, 0, 76, 67
6, 51360, Note_off_c, 0, 76, 0
6, 51360, Note_on_c, 0, 75, 67
6, 51600, Note_off_c, 0, 75, 0
6, 51600, Note_on_c, 0, 74, 65
6, 51840, Note_off_c, 0, 74, 0
6, 51840, Note_on_c, 0, 73, 64
6, 52080, Note_off_c, 0, 73, 0
6, 52080, Note_on_c, 0, 73, 64
6, 52320, Note_off_c, 0, 73, 0
6, 52320, Note_on_c, 0, 69, 64
6, 52560, Note_off_c, 0, 69, 0
6, 52800, Note_on_c, 0, 73, 64
6, 53040, Note_off_c, 0, 73, 0
6, 53040, Note_on_c, 0, 74, 64
6, 53280, Note_off_c, 0, 74, 0
6, 53280, Note_on_c, 0, 72, 64
6, 53640, Note_off_c, 0, 72, 0
6, 53640, Note_on_c, 0, 73, 64
6, 53760, Note_off_c, 0, 73, 0
6, 53760, Note_on_c, 0, 75, 64
6, 53880, Note_off_c, 0, 75, 0
6, 53880, Note_on_c, 0, 73, 64
6, 54000, Note_off_c, 0, 73, 0
6, 54000, Note_on_c, 0, 75, 64
6, 54120, Note_off_c, 0, 75, 0
6, 54120, Note_on_c, 0, 77, 64
6, 54240, Note_off_c, 0, 77, 0
6, 54240, Note_on_c, 0, 78, 64
6, 54480, Note_off_c, 0, 78, 0
6, 54480, Note_on_c, 0, 76, 64
6, 54600, Note_off_c, 0, 76, 0
6, 54600, Note_on_c, 0, 75, 64
6, 54720, Note_off_c, 0, 75, 0
6, 54720, Note_on_c, 0, 76, 64
6, 54960, Note_off_c, 0, 76, 0
6, 54960, Note_on_c, 0, 74, 65
6, 55200, Note_off_c, 0, 74, 0
6, 55200, Note_on_c, 0, 73, 67
6, 55440, Note_off_c, 0, 73, 0
6, 55440, Note_on_c, 0, 73, 68
6, 55800, Note_off_c, 0, 73, 0
6, 55800, Note_on_c, 0, 66, 70
6, 55920, Note_off_c, 0, 66, 0
6, 55920, Note_on_c, 0, 68, 71
6, 56040, Note_off_c, 0, 68, 0
6, 56040, Note_on_c, 0, 69, 71
6, 56160, Note_off_c, 0, 69, 0
6, 56160, Note_on_c, 0, 71, 72
6, 56280, Note_off_c, 0, 71, 0
6, 56280, Note_on_c, 0, 74, 73
6, 56400, Note_off_c, 0, 74, 0
6, 56400, Note_on_c, 0, 73, 73
6, 56520, Note_off_c, 0, 73, 0
6, 56520, Note_on_c, 0, 71, 74
6, 56640, Note_off_c, 0, 71, 0
6, 56640, Note_on_c, 0, 69, 75
6, 56880, Note_off_c, 0, 69, 0
6, 56880, Note_on_c, 0, 68, 76
6, 57120, Note_off_c, 0, 68, 0
6, 57120, Note_on_c, 0, 66, 77
6, 57600, Note_off_c, 0, 66, 0
6, 57615, End_track
7, 0, Start_track
7, 0, Title_t, "Alto"
7, 0, Program_c, 1, 52
7, 8640, Note_on_c, 1, 66, 64
7, 8880, Note_off_c, 1, 66, 0
7, 8880, Note_on_c, 1, 67, 64
7, 9120, Note_off_c, 1, 67, 0
7, 9120, Note_on_c, 1, 65, 64
7, 9480, Note_off_c, 1, 65, 0
7, 9480, Note_on_c, 1, 66, 64
7, 9600, Note_off_c, 1, 66, 0
7, 9600, Note_on_c, 1, 68, 64
7, 9720, Note_off_c, 1, 68, 0
7, 9720, Note_on_c, 1, 66, 64
7, 9840, Note_off_c, 1, 66, 0
7, 9840, Note_on_c, 1, 68, 64
7, 9960, Note_off_c, 1, 68, 0
7, 9960, Note_on_c, 1, 69, 64
7, 10080, Note_off_c, 1, 69, 0
7, 10080, Note_on_c, 1, 71, 64
7, 10320, Note_off_c, 1, 71, 0
7, 10320, Note_on_c, 1, 69, 64
7, 10440, Note_off_c, 1, 69, 0
7, 10440, Note_on_c, 1, 68, 64
7, 10560, Note_off_c, 1, 68, 0
7, 10560, Note_on_c, 1, 69, 64
7, 10800, Note_off_c, 1, 69, 0
7, 10800, Note_on_c, 1, 68, 64
7, 11040, Note_off_c, 1, 68, 0
7, 11040, Note_on_c, 1, 66, 64
7, 11280, Note_off_c, 1, 66, 0
7, 11280, Note_on_c, 1, 66, 64
7, 11640, Note_off_c, 1, 66, 0
7, 11640, Note_on_c, 1, 63, 64
7, 11760, Note_off_c, 1, 63, 0
7, 11760, Note_on_c, 1, 64, 64
7, 11880, Note_off_c, 1, 64, 0
7, 11880, Note_on_c, 1, 61, 64
7, 12000, Note_off_c, 1, 61, 0
7, 12000, Note_on_c, 1, 60, 64
7, 12360, Note_off_c, 1, 60, 0
7, 12360, Note_on_c, 1, 61, 64
7, 12480, Note_off_c, 1, 61, 0
7, 12480, Note_on_c, 1, 61, 64
7, 12720, Note_off_c, 1, 61, 0
7, 12720, Note_on_c, 1, 73, 64
7, 13200, Note_off_c, 1, 73, 0
7, 13200, Note_on_c, 1, 72, 64
7, 13440, Note_off_c, 1, 72, 0
7, 13440, Note_on_c, 1, 73, 64
7, 13800, Note_off_c, 1, 73, 0
7, 13800, Note_on_c, 1, 68, 55
7, 13920, Note_off_c, 1, 68, 0
7, 13920, Note_on_c, 1, 73, 52
7, 14040, Note_off_c, 1, 73, 0
7, 14040, Note_on_c, 1, 70, 49
7, 14160, Note_off_c, 1, 70, 0
7, 14160, Note_on_c, 1, 71, 46
7, 14280, Note_off_c, 1, 71, 0
7, 14280, Note_on_c, 1, 73, 43
7, 14400, Note_off_c, 1, 73, 0
7, 14400, Note_on_c, 1, 74, 45
7, 14640, Note_off_c, 1, 74, 0
7, 14640, Note_on_c, 1, 73, 46
7, 14880, Note_off_c, 1, 73, 0
7, 14880, Note_on_c, 1, 71, 47
7, 15120, Note_off_c, 1, 71, 0
7, 15120, Note_on_c, 1, 66, 48
7, 15360, Note_off_c, 1, 66, 0
7, 15360, Note_on_c, 1, 68, 49
7, 16080, Note_off_c, 1, 68, 0
7, 16080, Note_on_c, 1, 68, 52
7, 16440, Note_off_c, 1, 68, 0
7, 16440, Note_on_c, 1, 66, 53
7, 16680, Note_off_c, 1, 66, 0
7, 16680, Note_on_c, 1, 64, 54
7, 16800, Note_off_c, 1, 64, 0
7, 16800, Note_on_c, 1, 63, 55
7, 16920, Note_off_c, 1, 63, 0
7, 16920, Note_on_c, 1, 65, 55
7, 17040, Note_off_c, 1, 65, 0
7, 17040, Note_on_c, 1, 66, 55
7, 17520, Note_off_c, 1, 66, 0
7, 17520, Note_on_c, 1, 65, 57
7, 17760, Note_off_c, 1, 65, 0
7, 17760, Note_on_c, 1, 66, 58
7, 18000, Note_off_c, 1, 66, 0
7, 18000, Note_on_c, 1, 67, 59
7, 18240, Note_off_c, 1, 67, 0
7, 18240, Note_on_c, 1, 65, 60
7, 18600, Note_off_c, 1, 65, 0
7, 18600, Note_on_c, 1, 66, 62
7, 18720, Note_off_c, 1, 66, 0
7, 18720, Note_on_c, 1, 68, 62
7, 18840, Note_off_c, 1, 68, 0
7, 18840, Note_on_c, 1, 66, 63
7, 18960, Note_off_c, 1, 66, 0
7, 18960, Note_on_c, 1, 68, 63
7, 19080, Note_off_c, 1, 68, 0
7, 19080, Note_on_c, 1, 69, 64
7, 19200, Note_off_c, 1, 69, 0
7, 19200, Note_on_c, 1, 71, 64
7, 19440, Note_off_c, 1, 71, 0
7, 19440, Note_on_c, 1, 69, 64
7, 19560, Note_off_c, 1, 69, 0
7, 19560, Note_on_c, 1, 68, 64
7, 19680, Note_off_c, 1, 68, 0
7, 19680, Note_on_c, 1, 69, 64
7, 19920, Note_off_c, 1, 69, 0
7, 19920, Note_on_c, 1, 68, 64
7, 20160, Note_off_c, 1, 68, 0
7, 20160, Note_on_c, 1, 66, 64
7, 20400, Note_off_c, 1, 66, 0
7, 20400, Note_on_c, 1, 69, 64
7, 20880, Note_off_c, 1, 69, 0
7, 20880, Note_on_c, 1, 67, 64
7, 21000, Note_off_c, 1, 67, 0
7, 21000, Note_on_c, 1, 66, 64
7, 21120, Note_off_c, 1, 66, 0
7, 21120, Note_on_c, 1, 64, 64
7, 21360, Note_off_c, 1, 64, 0
7, 21360, Note_on_c, 1, 63, 64
7, 21600, Note_off_c, 1, 63, 0
7, 21600, Note_on_c, 1, 64, 64
7, 21840, Note_off_c, 1, 64, 0
7, 21840, Note_on_c, 1, 71, 64
7, 22320, Note_off_c, 1, 71, 0
7, 22320, Note_on_c, 1, 69, 64
7, 22440, Note_off_c, 1, 69, 0
7, 22440, Note_on_c, 1, 68, 64
7, 22560, Note_off_c, 1, 68, 0
7, 22560, Note_on_c, 1, 66, 64
7, 22800, Note_off_c, 1, 66, 0
7, 22800, Note_on_c, 1, 65, 64
7, 23040, Note_off_c, 1, 65, 0
7, 23040, Note_on_c, 1, 66, 64
7, 23280, Note_off_c, 1, 66, 0
7, 23280, Note_on_c, 1, 73, 64
7, 23640, Note_off_c, 1, 73, 0
7, 23640, Note_on_c, 1, 71, 64
7, 23760, Note_off_c, 1, 71, 0
7, 23760, Note_on_c, 1, 69, 64
7, 23880, Note_off_c, 1, 69, 0
7, 23880, Note_on_c, 1, 68, 64
7, 24000, Note_off_c, 1, 68, 0
7, 24000, Note_on_c, 1, 69, 64
7, 24240, Note_off_c, 1, 69, 0
7, 24240, Note_on_c, 1, 68, 64
7, 24360, Note_off_c, 1, 68, 0
7, 24360, Note_on_c, 1, 66, 64
7, 24480, Note_off_c, 1, 66, 0
7, 24480, Note_on_c, 1, 68, 64
7, 26160, Note_off_c, 1, 68, 0
7, 26160, Note_on_c, 1, 66, 58
7, 26640, Note_off_c, 1, 66, 0
7, 26640, Note_on_c, 1, 65, 46
7, 26880, Note_off_c, 1, 65, 0
7, 26880, Note_on_c, 1, 66, 40
7, 27240, Note_off_c, 1, 66, 0
7, 27240, Note_on_c, 1, 66, 42
7, 27360, Note_off_c, 1, 66, 0
7, 27360, Note_on_c, 1, 64, 43
7, 27480, Note_off_c, 1, 64, 0
7, 27480, Note_on_c, 1, 66, 44
7, 27600, Note_off_c, 1, 66, 0
7, 27600, Note_on_c, 1, 68, 45
7, 27960, Note_off_c, 1, 68, 0
7, 27960, Note_on_c, 1, 66, 47
7, 28080, Note_off_c, 1, 66, 0
7, 28080, Note_on_c, 1, 68, 48
7, 28200, Note_off_c, 1, 68, 0
7, 28200, Note_on_c, 1, 70, 48
7, 28320, Note_off_c, 1, 70, 0
7, 28320, Note_on_c, 1, 71, 49
7, 28920, Note_off_c, 1, 71, 0
7, 28920, Note_on_c, 1, 69, 53
7, 29040, Note_off_c, 1, 69, 0
7, 29040, Note_on_c, 1, 68, 54
7, 29160, Note_off_c, 1, 68, 0
7, 29160, Note_on_c, 1, 66, 54
7, 29280, Note_off_c, 1, 66, 0
7, 29280, Note_on_c, 1, 65, 55
7, 29520, Note_off_c, 1, 65, 0
7, 29520, Note_on_c, 1, 65, 57
7, 29640, Note_off_c, 1, 65, 0
7, 29640, Note_on_c, 1, 66, 57
7, 29760, Note_off_c, 1, 66, 0
7, 29760, Note_on_c, 1, 68, 58
7, 30000, Note_off_c, 1, 68, 0
7, 30000, Note_on_c, 1, 66, 60
7, 30120, Note_off_c, 1, 66, 0
7, 30120, Note_on_c, 1, 62, 60
7, 30240, Note_off_c, 1, 62, 0
7, 30240, Note_on_c, 1, 61, 61
7, 30480, Note_off_c, 1, 61, 0
7, 30480, Note_on_c, 1, 61, 63
7, 30720, Note_off_c, 1, 61, 0
7, 30720, Note_on_c, 1, 61, 64
7, 30960, Note_off_c, 1, 61, 0
7, 31320, Note_on_c, 1, 71, 64
7, 31560, Note_off_c, 1, 71, 0
7, 31560, Note_on_c, 1, 69, 64
7, 31680, Note_off_c, 1, 69, 0
7, 31680, Note_on_c, 1, 68, 64
7, 31800, Note_off_c, 1, 68, 0
7, 31800, Note_on_c, 1, 64, 64
7, 31920, Note_off_c, 1, 64, 0
7, 31920, Note_on_c, 1, 66, 64
7, 32040, Note_off_c, 1, 66, 0
7, 32040, Note_on_c, 1, 68, 64
7, 32160, Note_off_c, 1, 68, 0
7, 32160, Note_on_c, 1, 69, 64
7, 32280, Note_off_c, 1, 69, 0
7, 32280, Note_on_c, 1, 67, 64
7, 32400, Note_off_c, 1, 67, 0
7, 32400, Note_on_c, 1, 66, 64
7, 32520, Note_off_c, 1, 66, 0
7, 32520, Note_on_c, 1, 64, 64
7, 32640, Note_off_c, 1, 64, 0
7, 32640, Note_on_c, 1, 62, 64
7, 33240, Note_off_c, 1, 62, 0
7, 33240, Note_on_c, 1, 64, 64
7, 33360, Note_off_c, 1, 64, 0
7, 33360, Note_on_c, 1, 66, 64
7, 33480, Note_off_c, 1, 66, 0
7, 33480, Note_on_c, 1, 67, 64
7, 33600, Note_off_c, 1, 67, 0
7, 33600, Note_on_c, 1, 66, 64
7, 33840, Note_off_c, 1, 66, 0
7, 34080, Note_on_c, 1, 66, 64
7, 34320, Note_off_c, 1, 66, 0
7, 34320, Note_on_c, 1, 67, 64
7, 34560, Note_off_c, 1, 67, 0
7, 34560, Note_on_c, 1, 65, 40
7, 34920, Note_off_c, 1, 65, 0
7, 34920, Note_on_c, 1, 66, 42
7, 35040, Note_off_c, 1, 66, 0
7, 35040, Note_on_c, 1, 68, 43
7, 35160, Note_off_c, 1, 68, 0
7, 35160, Note_on_c, 1, 66, 44
7, 35280, Note_off_c, 1, 66, 0
7, 35280, Note_on_c, 1, 68, 45
7, 35400, Note_off_c, 1, 68, 0
7, 35400, Note_on_c, 1, 69, 45
7, 35520, Note_off_c, 1, 69, 0
7, 35520, Note_on_c, 1, 71, 46
7, 35760, Note_off_c, 1, 71, 0
7, 35760, Note_on_c, 1, 69, 48
7, 35880, Note_off_c, 1, 69, 0
7, 35880, Note_on_c, 1, 68, 48
7, 36000, Note_off_c, 1, 68, 0
7, 36000, Note_on_c, 1, 69, 49
7, 36240, Note_off_c, 1, 69, 0
7, 36240, Note_on_c, 1, 68, 51
7, 36480, Note_off_c, 1, 68, 0
7, 36480, Note_on_c, 1, 66, 52
7, 36720, Note_off_c, 1, 66, 0
7, 36720, Note_on_c, 1, 73, 54
7, 37080, Note_off_c, 1, 73, 0
7, 37080, Note_on_c, 1, 66, 56
7, 37200, Note_off_c, 1, 66, 0
7, 37200, Note_on_c, 1, 68, 57
7, 37320, Note_off_c, 1, 68, 0
7, 37320, Note_on_c, 1, 69, 57
7, 37440, Note_off_c, 1, 69, 0
7, 37440, Note_on_c, 1, 71, 58
7, 38040, Note_off_c, 1, 71, 0
7, 38040, Note_on_c, 1, 64, 62
7, 38160, Note_off_c, 1, 64, 0
7, 38160, Note_on_c, 1, 66, 63
7, 38280, Note_off_c, 1, 66, 0
7, 38280, Note_on_c, 1, 67, 63
7, 38400, Note_off_c, 1, 67, 0
7, 38400, Note_on_c, 1, 69, 64
7, 39000, Note_off_c, 1, 69, 0
7, 39000, Note_on_c, 1, 62, 64
7, 39120, Note_off_c, 1, 62, 0
7, 39120, Note_on_c, 1, 67, 64
7, 39360, Note_off_c, 1, 67, 0
7, 39360, Note_on_c, 1, 66, 64
7, 39600, Note_off_c, 1, 66, 0
7, 39840, Note_on_c, 1, 68, 64
7, 40080, Note_off_c, 1, 68, 0
7, 40080, Note_on_c, 1, 69, 64
7, 40320, Note_off_c, 1, 69, 0
7, 40320, Note_on_c, 1, 71, 64
7, 40560, Note_off_c, 1, 71, 0
7, 40560, Note_on_c, 1, 66, 64
7, 40800, Note_off_c, 1, 66, 0
7, 40800, Note_on_c, 1, 66, 64
7, 41280, Note_off_c, 1, 66, 0
7, 41280, Note_on_c, 1, 66, 64
7, 41400, Note_off_c, 1, 66, 0
7, 41400, Note_on_c, 1, 73, 64
7, 41640, Note_off_c, 1, 73, 0
7, 41640, Note_on_c, 1, 71, 64
7, 41760, Note_off_c, 1, 71, 0
7, 41760, Note_on_c, 1, 70, 64
7, 41880, Note_off_c, 1, 70, 0
7, 41880, Note_on_c, 1, 66, 64
7, 42000, Note_off_c, 1, 66, 0
7, 42000, Note_on_c, 1, 68, 64
7, 42120, Note_off_c, 1, 68, 0
7, 42120, Note_on_c, 1, 70, 64
7, 42240, Note_off_c, 1, 70, 0
7, 42240, Note_on_c, 1, 71, 64
7, 42360, Note_off_c, 1, 71, 0
7, 42360, Note_on_c, 1, 69, 64
7, 42480, Note_off_c, 1, 69, 0
7, 42480, Note_on_c, 1, 68, 64
7, 42600, Note_off_c, 1, 68, 0
7, 42600, Note_on_c, 1, 66, 64
7, 42720, Note_off_c, 1, 66, 0
7, 42720, Note_on_c, 1, 64, 64
7, 43680, Note_off_c, 1, 64, 0
7, 43680, Note_on_c, 1, 62, 64
7, 44160, Note_off_c, 1, 62, 0
7, 44160, Note_on_c, 1, 61, 64
7, 44280, Note_off_c, 1, 61, 0
7, 44280, Note_on_c, 1, 65, 64
7, 44400, Note_off_c, 1, 65, 0
7, 44400, Note_on_c, 1, 66, 64
7, 44520, Note_off_c, 1, 66, 0
7, 44520, Note_on_c, 1, 68, 64
7, 44640, Note_off_c, 1, 68, 0
7, 44640, Note_on_c, 1, 69, 64
7, 44760, Note_off_c, 1, 69, 0
7, 44760, Note_on_c, 1, 66, 64
7, 44880, Note_off_c, 1, 66, 0
7, 44880, Note_on_c, 1, 72, 64
7, 45000, Note_off_c, 1, 72, 0
7, 45000, Note_on_c, 1, 73, 64
7, 45120, Note_off_c, 1, 73, 0
7, 45120, Note_on_c, 1, 75, 64
7, 45360, Note_off_c, 1, 75, 0
7, 45360, Note_on_c, 1, 68, 64
7, 45840, Note_off_c, 1, 68, 0
7, 45840, Note_on_c, 1, 68, 64
7, 46080, Note_off_c, 1, 68, 0
7, 46080, Note_on_c, 1, 68, 64
7, 46320, Note_off_c, 1, 68, 0
7, 46320, Note_on_c, 1, 73, 64
7, 46560, Note_off_c, 1, 73, 0
7, 46560, Note_on_c, 1, 66, 64
7, 46800, Note_off_c, 1, 66, 0
7, 46800, Note_on_c, 1, 68, 64
7, 46920, Note_off_c, 1, 68, 0
7, 46920, Note_on_c, 1, 70, 64
7, 47040, Note_off_c, 1, 70, 0
7, 47040, Note_on_c, 1, 71, 64
7, 47280, Note_off_c, 1, 71, 0
7, 47280, Note_on_c, 1, 73, 64
7, 47520, Note_off_c, 1, 73, 0
7, 47520, Note_on_c, 1, 66, 64
7, 47880, Note_off_c, 1, 66, 0
7, 47880, Note_on_c, 1, 59, 64
7, 48000, Note_off_c, 1, 59, 0
7, 48000, Note_on_c, 1, 71, 64
7, 48120, Note_off_c, 1, 71, 0
7, 48120, Note_on_c, 1, 68, 64
7, 48240, Note_off_c, 1, 68, 0
7, 48240, Note_on_c, 1, 69, 64
7, 48360, Note_off_c, 1, 69, 0
7, 48360, Note_on_c, 1, 71, 64
7, 48480, Note_off_c, 1, 71, 0
7, 48480, Note_on_c, 1, 73, 64
7, 48720, Note_off_c, 1, 73, 0
7, 48720, Note_on_c, 1, 71, 64
7, 48960, Note_off_c, 1, 71, 0
7, 48960, Note_on_c, 1, 69, 80
7, 49200, Note_off_c, 1, 69, 0
7, 49560, Note_on_c, 1, 75, 77
7, 49800, Note_off_c, 1, 75, 0
7, 49800, Note_on_c, 1, 73, 75
7, 49920, Note_off_c, 1, 73, 0
7, 49920, Note_on_c, 1, 72, 75
7, 50040, Note_off_c, 1, 72, 0
7, 50040, Note_on_c, 1, 68, 74
7, 50160, Note_off_c, 1, 68, 0
7, 50160, Note_on_c, 1, 70, 73
7, 50280, Note_off_c, 1, 70, 0
7, 50280, Note_on_c, 1, 72, 73
7, 50400, Note_off_c, 1, 72, 0
7, 50400, Note_on_c, 1, 73, 72
7, 50520, Note_off_c, 1, 73, 0
7, 50520, Note_on_c, 1, 71, 71
7, 50640, Note_off_c, 1, 71, 0
7, 50640, Note_on_c, 1, 70, 71
7, 50760, Note_off_c, 1, 70, 0
7, 50760, Note_on_c, 1, 68, 70
7, 50880, Note_off_c, 1, 68, 0
7, 50880, Note_on_c, 1, 66, 69
7, 51600, Note_off_c, 1, 66, 0
7, 51600, Note_on_c, 1, 65, 65
7, 51720, Note_off_c, 1, 65, 0
7, 51720, Note_on_c, 1, 66, 65
7, 51840, Note_off_c, 1, 66, 0
7, 51840, Note_on_c, 1, 68, 64
7, 52080, Note_off_c, 1, 68, 0
7, 52080, Note_on_c, 1, 66, 64
7, 52320, Note_off_c, 1, 66, 0
7, 52320, Note_on_c, 1, 71, 64
7, 52680, Note_off_c, 1, 71, 0
7, 52680, Note_on_c, 1, 69, 64
7, 52800, Note_off_c, 1, 69, 0
7, 52800, Note_on_c, 1, 68, 64
7, 53040, Note_off_c, 1, 68, 0
7, 53040, Note_on_c, 1, 68, 64
7, 53160, Note_off_c, 1, 68, 0
7, 53160, Note_on_c, 1, 69, 64
7, 53280, Note_off_c, 1, 69, 0
7, 53280, Note_on_c, 1, 63, 64
7, 53520, Note_off_c, 1, 63, 0
7, 53520, Note_on_c, 1, 68, 64
7, 53760, Note_off_c, 1, 68, 0
7, 53760, Note_on_c, 1, 66, 64
7, 53880, Note_off_c, 1, 66, 0
7, 53880, Note_on_c, 1, 68, 64
7, 54000, Note_off_c, 1, 68, 0
7, 54000, Note_on_c, 1, 69, 64
7, 54120, Note_off_c, 1, 69, 0
7, 54120, Note_on_c, 1, 71, 64
7, 54240, Note_off_c, 1, 71, 0
7, 54240, Note_on_c, 1, 64, 64
7, 54480, Note_off_c, 1, 64, 0
7, 54480, Note_on_c, 1, 71, 64
7, 54600, Note_off_c, 1, 71, 0
7, 54600, Note_on_c, 1, 71, 64
7, 54720, Note_off_c, 1, 71, 0
7, 54720, Note_on_c, 1, 73, 64
7, 54840, Note_off_c, 1, 73, 0
7, 54840, Note_on_c, 1, 66, 65
7, 55080, Note_off_c, 1, 66, 0
7, 55080, Note_on_c, 1, 65, 66
7, 55200, Note_off_c, 1, 65, 0
7, 55200, Note_on_c, 1, 66, 67
7, 55440, Note_off_c, 1, 66, 0
7, 55440, Note_on_c, 1, 66, 68
7, 55800, Note_off_c, 1, 66, 0
7, 55800, Note_on_c, 1, 66, 70
7, 55920, Note_off_c, 1, 66, 0
7, 55920, Note_on_c, 1, 65, 71
7, 56040, Note_off_c, 1, 65, 0
7, 56040, Note_on_c, 1, 66, 71
7, 56160, Note_off_c, 1, 66, 0
7, 56160, Note_on_c, 1, 68, 72
7, 56280, Note_off_c, 1, 68, 0
7, 56280, Note_on_c, 1, 71, 73
7, 56400, Note_off_c, 1, 71, 0
7, 56400, Note_on_c, 1, 69, 73
7, 56520, Note_off_c, 1, 69, 0
7, 56520, Note_on_c, 1, 68, 74
7, 56640, Note_off_c, 1, 68, 0
7, 56640, Note_on_c, 1, 66, 75
7, 56880, Note_off_c, 1, 66, 0
7, 56880, Note_on_c, 1, 65, 76
7, 57120, Note_off_c, 1, 65, 0
7, 57120, Note_on_c, 1, 61, 77
7, 57600, Note_off_c, 1, 61, 0
7, 57615, End_track
8, 0, Start_track
8, 0, Title_t, "Bass"
8, 0, Program_c, 3, 52
8, 960, Note_on_c, 3, 54, 64
8, 1200, Note_off_c, 3, 54, 0
8, 1200, Note_on_c, 3, 55, 64
8, 1440, Note_off_c, 3, 55, 0
8, 1440, Note_on_c, 3, 53, 64
8, 1800, Note_off_c, 3, 53, 0
8, 1800, Note_on_c, 3, 54, 64
8, 1920, Note_off_c, 3, 54, 0
8, 1920, Note_on_c, 3, 56, 64
8, 2040, Note_off_c, 3, 56, 0
8, 2040, Note_on_c, 3, 54, 64
8, 2160, Note_off_c, 3, 54, 0
8, 2160, Note_on_c, 3, 56, 64
8, 2280, Note_off_c, 3, 56, 0
8, 2280, Note_on_c, 3, 57, 64
8, 2400, Note_off_c, 3, 57, 0
8, 2400, Note_on_c, 3, 59, 64
8, 2640, Note_off_c, 3, 59, 0
8, 2640, Note_on_c, 3, 57, 64
8, 2760, Note_off_c, 3, 57, 0
8, 2760, Note_on_c, 3, 56, 64
8, 2880, Note_off_c, 3, 56, 0
8, 2880, Note_on_c, 3, 57, 64
8, 3120, Note_off_c, 3, 57, 0
8, 3120, Note_on_c, 3, 56, 64
8, 3360, Note_off_c, 3, 56, 0
8, 3360, Note_on_c, 3, 54, 64
8, 3600, Note_off_c, 3, 54, 0
8, 3600, Note_on_c, 3, 54, 64
8, 3960, Note_off_c, 3, 54, 0
8, 3960, Note_on_c, 3, 51, 64
8, 4080, Note_off_c, 3, 51, 0
8, 4080, Note_on_c, 3, 52, 64
8, 4200, Note_off_c, 3, 52, 0
8, 4200, Note_on_c, 3, 49, 64
8, 4320, Note_off_c, 3, 49, 0
8, 4320, Note_on_c, 3, 48, 64
8, 4680, Note_off_c, 3, 48, 0
8, 4680, Note_on_c, 3, 49, 64
8, 4800, Note_off_c, 3, 49, 0
8, 4800, Note_on_c, 3, 49, 64
8, 5040, Note_off_c, 3, 49, 0
8, 5040, Note_on_c, 3, 61, 64
8, 5520, Note_off_c, 3, 61, 0
8, 5520, Note_on_c, 3, 60, 64
8, 5760, Note_off_c, 3, 60, 0
8, 5760, Note_on_c, 3, 61, 45
8, 6120, Note_off_c, 3, 61, 0
8, 6120, Note_on_c, 3, 56, 45
8, 6240, Note_off_c, 3, 56, 0
8, 6240, Note_on_c, 3, 61, 45
8, 6360, Note_off_c, 3, 61, 0
8, 6360, Note_on_c, 3, 58, 45
8, 6480, Note_off_c, 3, 58, 0
8, 6480, Note_on_c, 3, 59, 45
8, 6600, Note_off_c, 3, 59, 0
8, 6600, Note_on_c, 3, 61, 45
8, 6720, Note_off_c, 3, 61, 0
8, 6720, Note_on_c, 3, 62, 45
8, 6960, Note_off_c, 3, 62, 0
8, 6960, Note_on_c, 3, 61, 45
8, 7200, Note_off_c, 3, 61, 0
8, 7200, Note_on_c, 3, 59, 45
8, 7560, Note_off_c, 3, 59, 0
8, 7560, Note_on_c, 3, 54, 45
8, 7680, Note_off_c, 3, 54, 0
8, 7680, Note_on_c, 3, 59, 45
8, 7800, Note_off_c, 3, 59, 0
8, 7800, Note_on_c, 3, 56, 45
8, 7920, Note_off_c, 3, 56, 0
8, 7920, Note_on_c, 3, 57, 45
8, 8040, Note_off_c, 3, 57, 0
8, 8040, Note_on_c, 3, 59, 45
8, 8160, Note_off_c, 3, 59, 0
8, 8160, Note_on_c, 3, 61, 45
8, 8400, Note_off_c, 3, 61, 0
8, 8400, Note_on_c, 3, 59, 45
8, 8640, Note_off_c, 3, 59, 0
8, 8640, Note_on_c, 3, 61, 64
8, 8880, Note_off_c, 3, 61, 0
8, 8880, Note_on_c, 3, 62, 64
8, 9120, Note_off_c, 3, 62, 0
8, 9120, Note_on_c, 3, 56, 64
8, 9360, Note_off_c, 3, 56, 0
8, 9360, Note_on_c, 3, 54, 64
8, 9600, Note_off_c, 3, 54, 0
8, 9600, Note_on_c, 3, 61, 64
8, 9840, Note_off_c, 3, 61, 0
8, 9840, Note_on_c, 3, 49, 64
8, 10080, Note_off_c, 3, 49, 0
8, 10080, Note_on_c, 3, 50, 64
8, 10320, Note_off_c, 3, 50, 0
8, 10320, Note_on_c, 3, 49, 64
8, 10440, Note_off_c, 3, 49, 0
8, 10440, Note_on_c, 3, 47, 64
8, 10560, Note_off_c, 3, 47, 0
8, 10560, Note_on_c, 3, 49, 64
8, 10680, Note_off_c, 3, 49, 0
8, 10680, Note_on_c, 3, 61, 64
8, 10920, Note_off_c, 3, 61, 0
8, 10920, Note_on_c, 3, 59, 64
8, 11040, Note_off_c, 3, 59, 0
8, 11040, Note_on_c, 3, 57, 64
8, 11160, Note_off_c, 3, 57, 0
8, 11160, Note_on_c, 3, 56, 64
8, 11280, Note_off_c, 3, 56, 0
8, 11280, Note_on_c, 3, 54, 64
8, 11520, Note_off_c, 3, 54, 0
8, 11520, Note_on_c, 3, 56, 64
8, 12240, Note_off_c, 3, 56, 0
8, 12240, Note_on_c, 3, 54, 64
8, 12360, Note_off_c, 3, 54, 0
8, 12360, Note_on_c, 3, 56, 64
8, 12480, Note_off_c, 3, 56, 0
8, 12480, Note_on_c, 3, 57, 64
8, 12720, Note_off_c, 3, 57, 0
8, 12720, Note_on_c, 3, 56, 64
8, 12840, Note_off_c, 3, 56, 0
8, 12840, Note_on_c, 3, 54, 64
8, 12960, Note_off_c, 3, 54, 0
8, 12960, Note_on_c, 3, 56, 64
8, 13200, Note_off_c, 3, 56, 0
8, 13200, Note_on_c, 3, 44, 64
8, 13440, Note_off_c, 3, 44, 0
8, 13440, Note_on_c, 3, 49, 64
8, 13680, Note_off_c, 3, 49, 0
8, 24000, Note_on_c, 3, 49, 64
8, 24240, Note_off_c, 3, 49, 0
8, 24240, Note_on_c, 3, 50, 64
8, 24480, Note_off_c, 3, 50, 0
8, 24480, Note_on_c, 3, 48, 64
8, 24840, Note_off_c, 3, 48, 0
8, 24840, Note_on_c, 3, 49, 64
8, 24960, Note_off_c, 3, 49, 0
8, 24960, Note_on_c, 3, 51, 64
8, 25080, Note_off_c, 3, 51, 0
8, 25080, Note_on_c, 3, 49, 64
8, 25200, Note_off_c, 3, 49, 0
8, 25200, Note_on_c, 3, 51, 64
8, 25320, Note_off_c, 3, 51, 0
8, 25320, Note_on_c, 3, 52, 64
8, 25440, Note_off_c, 3, 52, 0
8, 25440, Note_on_c, 3, 54, 64
8, 25680, Note_off_c, 3, 54, 0
8, 25680, Note_on_c, 3, 52, 64
8, 25800, Note_off_c, 3, 52, 0
8, 25800, Note_on_c, 3, 51, 64
8, 25920, Note_off_c, 3, 51, 0
8, 25920, Note_on_c, 3, 52, 64
8, 26160, Note_off_c, 3, 52, 0
8, 26160, Note_on_c, 3, 51, 58
8, 26400, Note_off_c, 3, 51, 0
8, 26400, Note_on_c, 3, 49, 52
8, 26640, Note_off_c, 3, 49, 0
8, 26640, Note_on_c, 3, 49, 46
8, 26880, Note_off_c, 3, 49, 0
8, 26880, Note_on_c, 3, 50, 40
8, 27120, Note_off_c, 3, 50, 0
8, 27120, Note_on_c, 3, 51, 42
8, 27360, Note_off_c, 3, 51, 0
8, 27360, Note_on_c, 3, 52, 43
8, 27600, Note_off_c, 3, 52, 0
8, 27600, Note_on_c, 3, 53, 45
8, 27840, Note_off_c, 3, 53, 0
8, 27840, Note_on_c, 3, 54, 46
8, 28200, Note_off_c, 3, 54, 0
8, 28200, Note_on_c, 3, 52, 48
8, 28320, Note_off_c, 3, 52, 0
8, 28320, Note_on_c, 3, 50, 49
8, 28440, Note_off_c, 3, 50, 0
8, 28440, Note_on_c, 3, 49, 50
8, 28560, Note_off_c, 3, 49, 0
8, 28560, Note_on_c, 3, 47, 51
8, 28800, Note_off_c, 3, 47, 0
8, 28800, Note_on_c, 3, 49, 52
8, 29520, Note_off_c, 3, 49, 0
8, 29520, Note_on_c, 3, 50, 57
8, 29880, Note_off_c, 3, 50, 0
8, 29880, Note_on_c, 3, 49, 59
8, 30000, Note_off_c, 3, 49, 0
8, 30000, Note_on_c, 3, 50, 60
8, 30120, Note_off_c, 3, 50, 0
8, 30120, Note_on_c, 3, 47, 60
8, 30240, Note_off_c, 3, 47, 0
8, 30240, Note_on_c, 3, 49, 61
8, 30360, Note_off_c, 3, 49, 0
8, 30360, Note_on_c, 3, 61, 62
8, 30600, Note_off_c, 3, 61, 0
8, 30600, Note_on_c, 3, 59, 63
8, 30720, Note_off_c, 3, 59, 0
8, 30720, Note_on_c, 3, 58, 64
8, 30840, Note_off_c, 3, 58, 0
8, 30840, Note_on_c, 3, 54, 64
8, 30960, Note_off_c, 3, 54, 0
8, 30960, Note_on_c, 3, 56, 64
8, 31080, Note_off_c, 3, 56, 0
8, 31080, Note_on_c, 3, 58, 64
8, 31200, Note_off_c, 3, 58, 0
8, 31200, Note_on_c, 3, 59, 64
8, 31320, Note_off_c, 3, 59, 0
8, 31320, Note_on_c, 3, 57, 64
8, 31440, Note_off_c, 3, 57, 0
8, 31440, Note_on_c, 3, 56, 64
8, 31560, Note_off_c, 3, 56, 0
8, 31560, Note_on_c, 3, 54, 64
8, 31680, Note_off_c, 3, 54, 0
8, 31680, Note_on_c, 3, 52, 64
8, 31920, Note_off_c, 3, 52, 0
8, 31920, Note_on_c, 3, 52, 64
8, 32160, Note_off_c, 3, 52, 0
8, 32160, Note_on_c, 3, 45, 64
8, 32280, Note_off_c, 3, 45, 0
8, 32280, Note_on_c, 3, 57, 64
8, 32520, Note_off_c, 3, 57, 0
8, 32520, Note_on_c, 3, 55, 64
8, 32640, Note_off_c, 3, 55, 0
8, 32640, Note_on_c, 3, 54, 64
8, 32760, Note_off_c, 3, 54, 0
8, 32760, Note_on_c, 3, 50, 64
8, 32880, Note_off_c, 3, 50, 0
8, 32880, Note_on_c, 3, 52, 64
8, 33000, Note_off_c, 3, 52, 0
8, 33000, Note_on_c, 3, 54, 64
8, 33120, Note_off_c, 3, 54, 0
8, 33120, Note_on_c, 3, 55, 64
8, 33360, Note_off_c, 3, 55, 0
8, 33360, Note_on_c, 3, 54, 64
8, 33480, Note_off_c, 3, 54, 0
8, 33480, Note_on_c, 3, 52, 64
8, 33600, Note_off_c, 3, 52, 0
8, 33600, Note_on_c, 3, 54, 64
8, 33840, Note_off_c, 3, 54, 0
8, 33840, Note_on_c, 3, 42, 64
8, 34080, Note_off_c, 3, 42, 0
8, 34080, Note_on_c, 3, 47, 64
8, 34320, Note_off_c, 3, 47, 0
8, 39360, Note_on_c, 3, 54, 64
8, 39600, Note_off_c, 3, 54, 0
8, 39600, Note_on_c, 3, 55, 64
8, 39840, Note_off_c, 3, 55, 0
8, 39840, Note_on_c, 3, 53, 64
8, 40200, Note_off_c, 3, 53, 0
8, 40200, Note_on_c, 3, 54, 64
8, 40320, Note_off_c, 3, 54, 0
8, 40320, Note_on_c, 3, 56, 64
8, 40440, Note_off_c, 3, 56, 0
8, 40440, Note_on_c, 3, 54, 64
8, 40560, Note_off_c, 3, 54, 0
8, 40560, Note_on_c, 3, 56, 64
8, 40680, Note_off_c, 3, 56, 0
8, 40680, Note_on_c, 3, 58, 64
8, 40800, Note_off_c, 3, 58, 0
8, 40800, Note_on_c, 3, 59, 64
8, 41040, Note_off_c, 3, 59, 0
8, 41040, Note_on_c, 3, 57, 64
8, 41160, Note_off_c, 3, 57, 0
8, 41160, Note_on_c, 3, 56, 64
8, 41280, Note_off_c, 3, 56, 0
8, 41280, Note_on_c, 3, 57, 64
8, 41520, Note_off_c, 3, 57, 0
8, 41520, Note_on_c, 3, 56, 64
8, 41760, Note_off_c, 3, 56, 0
8, 41760, Note_on_c, 3, 54, 64
8, 42000, Note_off_c, 3, 54, 0
8, 42360, Note_on_c, 3, 59, 64
8, 42600, Note_off_c, 3, 59, 0
8, 42600, Note_on_c, 3, 57, 64
8, 42720, Note_off_c, 3, 57, 0
8, 42720, Note_on_c, 3, 56, 64
8, 42840, Note_off_c, 3, 56, 0
8, 42840, Note_on_c, 3, 52, 64
8, 42960, Note_off_c, 3, 52, 0
8, 42960, Note_on_c, 3, 54, 64
8, 43080, Note_off_c, 3, 54, 0
8, 43080, Note_on_c, 3, 56, 64
8, 43200, Note_off_c, 3, 56, 0
8, 43200, Note_on_c, 3, 57, 64
8, 43320, Note_off_c, 3, 57, 0
8, 43320, Note_on_c, 3, 54, 64
8, 43440, Note_off_c, 3, 54, 0
8, 43440, Note_on_c, 3, 56, 64
8, 43560, Note_off_c, 3, 56, 0
8, 43560, Note_on_c, 3, 58, 64
8, 43680, Note_off_c, 3, 58, 0
8, 43680, Note_on_c, 3, 59, 64
8, 43800, Note_off_c, 3, 59, 0
8, 43800, Note_on_c, 3, 57, 64
8, 43920, Note_off_c, 3, 57, 0
8, 43920, Note_on_c, 3, 56, 64
8, 44040, Note_off_c, 3, 56, 0
8, 44040, Note_on_c, 3, 54, 64
8, 44160, Note_off_c, 3, 54, 0
8, 44160, Note_on_c, 3, 53, 64
8, 44280, Note_off_c, 3, 53, 0
8, 44280, Note_on_c, 3, 49, 64
8, 44400, Note_off_c, 3, 49, 0
8, 44400, Note_on_c, 3, 51, 64
8, 44520, Note_off_c, 3, 51, 0
8, 44520, Note_on_c, 3, 53, 64
8, 44640, Note_off_c, 3, 53, 0
8, 44640, Note_on_c, 3, 54, 64
8, 44760, Note_off_c, 3, 54, 0
8, 44760, Note_on_c, 3, 52, 64
8, 44880, Note_off_c, 3, 52, 0
8, 44880, Note_on_c, 3, 51, 64
8, 45000, Note_off_c, 3, 51, 0
8, 45000, Note_on_c, 3, 49, 64
8, 45120, Note_off_c, 3, 49, 0
8, 45120, Note_on_c, 3, 48, 64
8, 45360, Note_off_c, 3, 48, 0
8, 45360, Note_on_c, 3, 49, 64
8, 45480, Note_off_c, 3, 49, 0
8, 45480, Note_on_c, 3, 49, 64
8, 45600, Note_off_c, 3, 49, 0
8, 45600, Note_on_c, 3, 56, 64
8, 45840, Note_off_c, 3, 56, 0
8, 45840, Note_on_c, 3, 44, 64
8, 46080, Note_off_c, 3, 44, 0
8, 46080, Note_on_c, 3, 49, 64
8, 46320, Note_off_c, 3, 49, 0
8, 46320, Note_on_c, 3, 49, 64
8, 46440, Note_off_c, 3, 49, 0
8, 46440, Note_on_c, 3, 47, 64
8, 46560, Note_off_c, 3, 47, 0
8, 46560, Note_on_c, 3, 46, 64
8, 46800, Note_off_c, 3, 46, 0
8, 46800, Note_on_c, 3, 42, 64
8, 47040, Note_off_c, 3, 42, 0
8, 47040, Note_on_c, 3, 54, 64
8, 47400, Note_off_c, 3, 54, 0
8, 47400, Note_on_c, 3, 52, 64
8, 47520, Note_off_c, 3, 52, 0
8, 47520, Note_on_c, 3, 50, 64
8, 47640, Note_off_c, 3, 50, 0
8, 47640, Note_on_c, 3, 49, 64
8, 47760, Note_off_c, 3, 49, 0
8, 47760, Note_on_c, 3, 47, 64
8, 47880, Note_off_c, 3, 47, 0
8, 47880, Note_on_c, 3, 45, 64
8, 48000, Note_off_c, 3, 45, 0
8, 48000, Note_on_c, 3, 44, 64
8, 48120, Note_off_c, 3, 44, 0
8, 48120, Note_on_c, 3, 47, 64
8, 48240, Note_off_c, 3, 47, 0
8, 48240, Note_on_c, 3, 49, 64
8, 48360, Note_off_c, 3, 49, 0
8, 48360, Note_on_c, 3, 50, 64
8, 48480, Note_off_c, 3, 50, 0
8, 48480, Note_on_c, 3, 52, 64
8, 48840, Note_off_c, 3, 52, 0
8, 48840, Note_on_c, 3, 50, 64
8, 48960, Note_off_c, 3, 50, 0
8, 48960, Note_on_c, 3, 49, 80
8, 49080, Note_off_c, 3, 49, 0
8, 49080, Note_on_c, 3, 52, 79
8, 49200, Note_off_c, 3, 52, 0
8, 49200, Note_on_c, 3, 45, 79
8, 49440, Note_off_c, 3, 45, 0
8, 50520, Note_on_c, 3, 61, 71
8, 50760, Note_off_c, 3, 61, 0
8, 50760, Note_on_c, 3, 59, 70
8, 50880, Note_off_c, 3, 59, 0
8, 50880, Note_on_c, 3, 58, 69
8, 51000, Note_off_c, 3, 58, 0
8, 51000, Note_on_c, 3, 54, 69
8, 51120, Note_off_c, 3, 54, 0
8, 51120, Note_on_c, 3, 56, 68
8, 51240, Note_off_c, 3, 56, 0
8, 51240, Note_on_c, 3, 58, 67
8, 51360, Note_off_c, 3, 58, 0
8, 51360, Note_on_c, 3, 59, 67
8, 51480, Note_off_c, 3, 59, 0
8, 51480, Note_on_c, 3, 57, 66
8, 51600, Note_off_c, 3, 57, 0
8, 51600, Note_on_c, 3, 56, 65
8, 51720, Note_off_c, 3, 56, 0
8, 51720, Note_on_c, 3, 54, 65
8, 51840, Note_off_c, 3, 54, 0
8, 51840, Note_on_c, 3, 53, 64
8, 51960, Note_off_c, 3, 53, 0
8, 51960, Note_on_c, 3, 49, 64
8, 52080, Note_off_c, 3, 49, 0
8, 52080, Note_on_c, 3, 54, 64
8, 52560, Note_off_c, 3, 54, 0
8, 52560, Note_on_c, 3, 55, 64
8, 52800, Note_off_c, 3, 55, 0
8, 52800, Note_on_c, 3, 53, 64
8, 53160, Note_off_c, 3, 53, 0
8, 53160, Note_on_c, 3, 54, 64
8, 53280, Note_off_c, 3, 54, 0
8, 53280, Note_on_c, 3, 56, 64
8, 53400, Note_off_c, 3, 56, 0
8, 53400, Note_on_c, 3, 54, 64
8, 53520, Note_off_c, 3, 54, 0
8, 53520, Note_on_c, 3, 56, 64
8, 53640, Note_off_c, 3, 56, 0
8, 53640, Note_on_c, 3, 57, 64
8, 53760, Note_off_c, 3, 57, 0
8, 53760, Note_on_c, 3, 59, 64
8, 54000, Note_off_c, 3, 59, 0
8, 54000, Note_on_c, 3, 57, 64
8, 54120, Note_off_c, 3, 57, 0
8, 54120, Note_on_c, 3, 56, 64
8, 54240, Note_off_c, 3, 56, 0
8, 54240, Note_on_c, 3, 57, 64
8, 54480, Note_off_c, 3, 57, 0
8, 54480, Note_on_c, 3, 56, 64
8, 54720, Note_off_c, 3, 56, 0
8, 54720, Note_on_c, 3, 54, 64
8, 55320, Note_off_c, 3, 54, 0
8, 55320, Note_on_c, 3, 54, 67
8, 55440, Note_off_c, 3, 54, 0
8, 55440, Note_on_c, 3, 56, 68
8, 55560, Note_off_c, 3, 56, 0
8, 55560, Note_on_c, 3, 58, 69
8, 55680, Note_off_c, 3, 58, 0
8, 55680, Note_on_c, 3, 59, 69
8, 55800, Note_off_c, 3, 59, 0
8, 55800, Note_on_c, 3, 57, 70
8, 55920, Note_off_c, 3, 57, 0
8, 55920, Note_on_c, 3, 56, 71
8, 56040, Note_off_c, 3, 56, 0
8, 56040, Note_on_c, 3, 54, 71
8, 56160, Note_off_c, 3, 54, 0
8, 56160, Note_on_c, 3, 53, 72
8, 56400, Note_off_c, 3, 53, 0
8, 56400, Note_on_c, 3, 54, 73
8, 56520, Note_off_c, 3, 54, 0
8, 56520, Note_on_c, 3, 47, 74
8, 56640, Note_off_c, 3, 47, 0
8, 56640, Note_on_c, 3, 49, 75
8, 56880, Note_off_c, 3, 49, 0
8, 56880, Note_on_c, 3, 49, 76
8, 57120, Note_off_c, 3, 49, 0
8, 57120, Note_on_c, 3, 42, 77
8, 57600, Note_off_c, 3, 42, 0
8, 57615, End_track
9, 0, Start_track
9, 0, Title_t, "Organ IV"
9, 0, Program_c, 8, 19
9, 960, Note_on_c, 8, 54, 64
9, 1200, Note_off_c, 8, 54, 0
9, 1200, Note_on_c, 8, 47, 64
9, 1680, Note_on_c, 8, 45, 64
9, 1680, Note_off_c, 8, 47, 0
9, 1920, Note_off_c, 8, 45, 0
9, 1920, Note_on_c, 8, 47, 64
9, 2280, Note_off_c, 8, 47, 0
9, 2280, Note_on_c, 8, 49, 64
9, 2400, Note_off_c, 8, 49, 0
9, 2400, Note_on_c, 8, 50, 64
9, 2520, Note_off_c, 8, 50, 0
9, 2520, Note_on_c, 8, 49, 64
9, 2640, Note_off_c, 8, 49, 0
9, 2640, Note_on_c, 8, 50, 64
9, 2760, Note_off_c, 8, 50, 0
9, 2760, Note_on_c, 8, 47, 64
9, 2880, Note_off_c, 8, 47, 0
9, 2880, Note_on_c, 8, 49, 64
9, 3000, Note_off_c, 8, 49, 0
9, 3000, Note_on_c, 8, 54, 64
9, 3240, Note_off_c, 8, 54, 0
9, 3240, Note_on_c, 8, 53, 64
9, 3360, Note_off_c, 8, 53, 0
9, 3360, Note_on_c, 8, 54, 64
9, 3420, Note_off_c, 8, 54, 0
9, 3420, Note_on_c, 8, 56, 64
9, 3480, Note_off_c, 8, 56, 0
9, 3480, Note_on_c, 8, 57, 64
9, 3720, Note_off_c, 8, 57, 0
9, 3720, Note_on_c, 8, 56, 64
9, 3780, Note_off_c, 8, 56, 0
9, 3780, Note_on_c, 8, 54, 64
9, 3840, Note_off_c, 8, 54, 0
9, 3840, Note_on_c, 8, 56, 64
9, 4560, Note_off_c, 8, 56, 0
9, 4560, Note_on_c, 8, 54, 64
9, 4680, Note_off_c, 8, 54, 0
9, 4680, Note_on_c, 8, 52, 64
9, 4800, Note_off_c, 8, 52, 0
9, 4800, Note_on_c, 8, 57, 64
9, 5040, Note_off_c, 8, 57, 0
9, 5040, Note_on_c, 8, 54, 64
9, 5280, Note_off_c, 8, 54, 0
9, 5280, Note_on_c, 8, 56, 64
9, 5640, Note_off_c, 8, 56, 0
9, 5640, Note_on_c, 8, 54, 64
9, 5760, Note_off_c, 8, 54, 0
9, 5760, Note_on_c, 8, 52, 45
9, 5880, Note_off_c, 8, 52, 0
9, 5880, Note_on_c, 8, 51, 45
9, 6000, Note_off_c, 8, 51, 0
9, 6000, Note_on_c, 8, 49, 45
9, 6120, Note_off_c, 8, 49, 0
9, 6120, Note_on_c, 8, 47, 45
9, 6240, Note_off_c, 8, 47, 0
9, 6240, Note_on_c, 8, 46, 45
9, 6360, Note_off_c, 8, 46, 0
9, 6360, Note_on_c, 8, 49, 45
9, 6480, Note_off_c, 8, 49, 0
9, 6480, Note_on_c, 8, 42, 45
9, 6720, Note_off_c, 8, 42, 0
9, 6720, Note_on_c, 8, 54, 45
9, 7080, Note_off_c, 8, 54, 0
9, 7080, Note_on_c, 8, 52, 45
9, 7200, Note_off_c, 8, 52, 0
9, 7200, Note_on_c, 8, 50, 45
9, 7320, Note_off_c, 8, 50, 0
9, 7320, Note_on_c, 8, 49, 45
9, 7440, Note_off_c, 8, 49, 0
9, 7440, Note_on_c, 8, 47, 45
9, 7560, Note_off_c, 8, 47, 0
9, 7560, Note_on_c, 8, 45, 45
9, 7680, Note_off_c, 8, 45, 0
9, 7680, Note_on_c, 8, 44, 45
9, 7800, Note_off_c, 8, 44, 0
9, 7800, Note_on_c, 8, 47, 45
9, 7920, Note_off_c, 8, 47, 0
9, 7920, Note_on_c, 8, 40, 45
9, 8160, Note_off_c, 8, 40, 0
9, 8160, Note_on_c, 8, 52, 45
9, 8760, Note_off_c, 8, 52, 0
9, 8760, Note_on_c, 8, 50, 64
9, 8880, Note_off_c, 8, 50, 0
9, 8880, Note_on_c, 8, 49, 64
9, 9000, Note_off_c, 8, 49, 0
9, 9000, Note_on_c, 8, 47, 64
9, 9120, Note_off_c, 8, 47, 0
9, 9120, Note_on_c, 8, 49, 64
9, 9840, Note_off_c, 8, 49, 0
9, 9840, Note_on_c, 8, 47, 64
9, 9960, Note_off_c, 8, 47, 0
9, 9960, Note_on_c, 8, 45, 64
9, 10080, Note_off_c, 8, 45, 0
9, 10080, Note_on_c, 8, 50, 64
9, 10320, Note_off_c, 8, 50, 0
9, 10320, Note_on_c, 8, 47, 64
9, 10560, Note_off_c, 8, 47, 0
9, 10560, Note_on_c, 8, 49, 64
9, 10680, Note_off_c, 8, 49, 0
9, 10680, Note_on_c, 8, 61, 64
9, 10920, Note_off_c, 8, 61, 0
9, 10920, Note_on_c, 8, 59, 64
9, 11040, Note_off_c, 8, 59, 0
9, 11040, Note_on_c, 8, 57, 64
9, 11160, Note_off_c, 8, 57, 0
9, 11160, Note_on_c, 8, 56, 64
9, 11280, Note_off_c, 8, 56, 0
9, 11280, Note_on_c, 8, 54, 64
9, 11520, Note_off_c, 8, 54, 0
9, 11520, Note_on_c, 8, 56, 64
9, 12240, Note_off_c, 8, 56, 0
9, 12240, Note_on_c, 8, 54, 64
9, 12360, Note_off_c, 8, 54, 0
9, 12360, Note_on_c, 8, 56, 64
9, 12480, Note_off_c, 8, 56, 0
9, 12480, Note_on_c, 8, 57, 64
9, 12720, Note_off_c, 8, 57, 0
9, 12720, Note_on_c, 8, 56, 64
9, 12840, Note_off_c, 8, 56, 0
9, 12840, Note_on_c, 8, 54, 64
9, 12960, Note_off_c, 8, 54, 0
9, 12960, Note_on_c, 8, 56, 64
9, 13200, Note_off_c, 8, 56, 0
9, 13200, Note_on_c, 8, 44, 64
9, 13440, Note_off_c, 8, 44, 0
9, 13440, Note_on_c, 8, 49, 64
9, 13680, Note_off_c, 8, 49, 0
9, 13680, Note_on_c, 8, 37, 58
9, 13920, Note_off_c, 8, 37, 0
9, 14040, Note_on_c, 8, 54, 49
9, 14160, Note_off_c, 8, 54, 0
9, 14160, Note_on_c, 8, 56, 46
9, 14280, Note_off_c, 8, 56, 0
9, 14280, Note_on_c, 8, 58, 43
9, 14400, Note_off_c, 8, 58, 0
9, 14400, Note_on_c, 8, 59, 45
9, 14520, Note_off_c, 8, 59, 0
9, 14520, Note_on_c, 8, 50, 45
9, 14640, Note_off_c, 8, 50, 0
9, 14640, Note_on_c, 8, 52, 46
9, 14760, Note_off_c, 8, 52, 0
9, 14760, Note_on_c, 8, 54, 46
9, 14880, Note_off_c, 8, 54, 0
9, 14880, Note_on_c, 8, 47, 47
9, 15000, Note_off_c, 8, 47, 0
9, 15000, Note_on_c, 8, 49, 47
9, 15120, Note_off_c, 8, 49, 0
9, 15120, Note_on_c, 8, 47, 48
9, 15240, Note_off_c, 8, 47, 0
9, 15240, Note_on_c, 8, 45, 48
9, 15360, Note_off_c, 8, 45, 0
9, 15360, Note_on_c, 8, 44, 49
9, 15480, Note_off_c, 8, 44, 0
9, 15480, Note_on_c, 8, 56, 49
9, 15600, Note_off_c, 8, 56, 0
9, 15600, Note_on_c, 8, 58, 50
9, 15720, Note_off_c, 8, 58, 0
9, 15720, Note_on_c, 8, 60, 50
9, 15840, Note_off_c, 8, 60, 0
9, 15840, Note_on_c, 8, 61, 51
9, 15960, Note_off_c, 8, 61, 0
9, 15960, Note_on_c, 8, 52, 51
9, 16080, Note_off_c, 8, 52, 0
9, 16080, Note_on_c, 8, 54, 52
9, 16200, Note_off_c, 8, 54, 0
9, 16200, Note_on_c, 8, 56, 52
9, 16320, Note_off_c, 8, 56, 0
9, 16320, Note_on_c, 8, 57, 53
9, 16560, Note_off_c, 8, 57, 0
9, 16560, Note_on_c, 8, 58, 54
9, 16800, Note_off_c, 8, 58, 0
9, 16800, Note_on_c, 8, 59, 55
9, 17040, Note_off_c, 8, 59, 0
9, 17040, Note_on_c, 8, 60, 55
9, 17280, Note_off_c, 8, 60, 0
9, 17280, Note_on_c, 8, 61, 56
9, 17520, Note_off_c, 8, 61, 0
9, 17520, Note_on_c, 8, 49, 57
9, 17640, Note_off_c, 8, 49, 0
9, 17640, Note_on_c, 8, 61, 58
9, 17760, Note_off_c, 8, 61, 0
9, 17760, Note_on_c, 8, 62, 58
9, 17880, Note_off_c, 8, 62, 0
9, 17880, Note_on_c, 8, 61, 59
9, 18000, Note_off_c, 8, 61, 0
9, 18000, Note_on_c, 8, 59, 59
9, 18120, Note_off_c, 8, 59, 0
9, 18120, Note_on_c, 8, 57, 60
9, 18240, Note_off_c, 8, 57, 0
9, 18240, Note_on_c, 8, 56, 60
9, 18360, Note_off_c, 8, 56, 0
9, 18360, Note_on_c, 8, 57, 61
9, 18480, Note_off_c, 8, 57, 0
9, 18480, Note_on_c, 8, 56, 61
9, 18600, Note_off_c, 8, 56, 0
9, 18600, Note_on_c, 8, 54, 62
9, 18720, Note_off_c, 8, 54, 0
9, 18720, Note_on_c, 8, 53, 62
9, 18840, Note_off_c, 8, 53, 0
9, 18840, Note_on_c, 8, 54, 63
9, 18960, Note_off_c, 8, 54, 0
9, 18960, Note_on_c, 8, 53, 63
9, 19080, Note_off_c, 8, 53, 0
9, 19080, Note_on_c, 8, 51, 64
9, 19200, Note_off_c, 8, 51, 0
9, 19200, Note_on_c, 8, 49, 64
9, 19440, Note_off_c, 8, 49, 0
9, 19440, Note_on_c, 8, 50, 64
9, 19680, Note_off_c, 8, 50, 0
9, 19680, Note_on_c, 8, 47, 64
9, 19920, Note_off_c, 8, 47, 0
9, 19920, Note_on_c, 8, 49, 64
9, 20160, Note_off_c, 8, 49, 0
9, 20160, Note_on_c, 8, 54, 64
9, 20400, Note_off_c, 8, 54, 0
9, 20400, Note_on_c, 8, 42, 64
9, 20640, Note_off_c, 8, 42, 0
9, 20640, Note_on_c, 8, 47, 64
9, 21360, Note_off_c, 8, 47, 0
9, 21360, Note_on_c, 8, 48, 64
9, 21600, Note_off_c, 8, 48, 0
9, 21600, Note_on_c, 8, 49, 64
9, 21840, Note_off_c, 8, 49, 0
9, 21840, Note_on_c, 8, 47, 64
9, 21960, Note_off_c, 8, 47, 0
9, 21960, Note_on_c, 8, 45, 64
9, 22080, Note_off_c, 8, 45, 0
9, 22080, Note_on_c, 8, 44, 64
9, 22320, Note_off_c, 8, 44, 0
9, 22320, Note_on_c, 8, 45, 64
9, 22440, Note_off_c, 8, 45, 0
9, 22440, Note_on_c, 8, 47, 64
9, 22560, Note_off_c, 8, 47, 0
9, 22560, Note_on_c, 8, 49, 64
9, 22680, Note_off_c, 8, 49, 0
9, 22680, Note_on_c, 8, 61, 64
9, 22920, Note_off_c, 8, 61, 0
9, 22920, Note_on_c, 8, 59, 64
9, 23160, Note_off_c, 8, 59, 0
9, 23160, Note_on_c, 8, 58, 64
9, 23280, Note_off_c, 8, 58, 0
9, 23280, Note_on_c, 8, 59, 64
9, 23400, Note_off_c, 8, 59, 0
9, 23400, Note_on_c, 8, 61, 64
9, 23520, Note_off_c, 8, 61, 0
9, 23520, Note_on_c, 8, 62, 64
9, 23760, Note_off_c, 8, 62, 0
9, 23760, Note_on_c, 8, 59, 64
9, 24000, Note_off_c, 8, 59, 0
9, 24000, Note_on_c, 8, 49, 64
9, 24240, Note_off_c, 8, 49, 0
9, 24240, Note_on_c, 8, 50, 64
9, 24480, Note_off_c, 8, 50, 0
9, 24480, Note_on_c, 8, 48, 64
9, 24840, Note_off_c, 8, 48, 0
9, 24840, Note_on_c, 8, 49, 64
9, 24960, Note_off_c, 8, 49, 0
9, 24960, Note_on_c, 8, 51, 64
9, 25080, Note_off_c, 8, 51, 0
9, 25080, Note_on_c, 8, 49, 64
9, 25200, Note_off_c, 8, 49, 0
9, 25200, Note_on_c, 8, 51, 64
9, 25320, Note_off_c, 8, 51, 0
9, 25320, Note_on_c, 8, 52, 64
9, 25440, Note_off_c, 8, 52, 0
9, 25440, Note_on_c, 8, 54, 64
9, 25680, Note_off_c, 8, 54, 0
9, 25680, Note_on_c, 8, 52, 64
9, 25800, Note_off_c, 8, 52, 0
9, 25800, Note_on_c, 8, 51, 64
9, 25920, Note_off_c, 8, 51, 0
9, 25920, Note_on_c, 8, 52, 64
9, 26160, Note_off_c, 8, 52, 0
9, 26160, Note_on_c, 8, 51, 58
9, 26400, Note_off_c, 8, 51, 0
9, 26400, Note_on_c, 8, 49, 52
9, 26640, Note_off_c, 8, 49, 0
9, 26640, Note_on_c, 8, 49, 46
9, 26880, Note_off_c, 8, 49, 0
9, 26880, Note_on_c, 8, 50, 40
9, 27120, Note_off_c, 8, 50, 0
9, 27120, Note_on_c, 8, 51, 42
9, 27360, Note_off_c, 8, 51, 0
9, 27360, Note_on_c, 8, 52, 43
9, 27600, Note_off_c, 8, 52, 0
9, 27600, Note_on_c, 8, 53, 45
9, 27840, Note_off_c, 8, 53, 0
9, 27840, Note_on_c, 8, 54, 46
9, 28200, Note_off_c, 8, 54, 0
9, 28200, Note_on_c, 8, 52, 48
9, 28320, Note_off_c, 8, 52, 0
9, 28320, Note_on_c, 8, 50, 49
9, 28440, Note_off_c, 8, 50, 0
9, 28440, Note_on_c, 8, 49, 50
9, 28560, Note_off_c, 8, 49, 0
9, 28560, Note_on_c, 8, 47, 51
9, 28800, Note_off_c, 8, 47, 0
9, 28800, Note_on_c, 8, 49, 52
9, 29520, Note_off_c, 8, 49, 0
9, 29520, Note_on_c, 8, 50, 57
9, 29880, Note_off_c, 8, 50, 0
9, 29880, Note_on_c, 8, 49, 59
9, 30000, Note_off_c, 8, 49, 0
9, 30000, Note_on_c, 8, 50, 60
9, 30120, Note_off_c, 8, 50, 0
9, 30120, Note_on_c, 8, 47, 60
9, 30240, Note_off_c, 8, 47, 0
9, 30240, Note_on_c, 8, 49, 61
9, 30360, Note_off_c, 8, 49, 0
9, 30360, Note_on_c, 8, 61, 62
9, 30600, Note_off_c, 8, 61, 0
9, 30600, Note_on_c, 8, 59, 63
9, 30720, Note_off_c, 8, 59, 0
9, 30720, Note_on_c, 8, 58, 64
9, 30840, Note_off_c, 8, 58, 0
9, 30840, Note_on_c, 8, 54, 64
9, 30960, Note_off_c, 8, 54, 0
9, 30960, Note_on_c, 8, 56, 64
9, 31080, Note_off_c, 8, 56, 0
9, 31080, Note_on_c, 8, 58, 64
9, 31200, Note_off_c, 8, 58, 0
9, 31200, Note_on_c, 8, 59, 64
9, 31320, Note_off_c, 8, 59, 0
9, 31320, Note_on_c, 8, 57, 64
9, 31440, Note_off_c, 8, 57, 0
9, 31440, Note_on_c, 8, 56, 64
9, 31560, Note_off_c, 8, 56, 0
9, 31560, Note_on_c, 8, 54, 64
9, 31680, Note_off_c, 8, 54, 0
9, 31680, Note_on_c, 8, 52, 64
9, 31920, Note_off_c, 8, 52, 0
9, 31920, Note_on_c, 8, 40, 64
9, 32160, Note_off_c, 8, 40, 0
9, 32160, Note_on_c, 8, 45, 64
9, 32280, Note_off_c, 8, 45, 0
9, 32280, Note_on_c, 8, 57, 64
9, 32520, Note_off_c, 8, 57, 0
9, 32520, Note_on_c, 8, 55, 64
9, 32640, Note_off_c, 8, 55, 0
9, 32640, Note_on_c, 8, 54, 64
9, 32760, Note_off_c, 8, 54, 0
9, 32760, Note_on_c, 8, 50, 64
9, 32880, Note_off_c, 8, 50, 0
9, 32880, Note_on_c, 8, 52, 64
9, 33000, Note_off_c, 8, 52, 0
9, 33000, Note_on_c, 8, 54, 64
9, 33120, Note_off_c, 8, 54, 0
9, 33120, Note_on_c, 8, 55, 64
9, 33360, Note_off_c, 8, 55, 0
9, 33360, Note_on_c, 8, 54, 64
9, 33480, Note_off_c, 8, 54, 0
9, 33480, Note_on_c, 8, 52, 64
9, 33600, Note_off_c, 8, 52, 0
9, 33600, Note_on_c, 8, 54, 64
9, 33840, Note_off_c, 8, 54, 0
9, 33840, Note_on_c, 8, 42, 64
9, 34080, Note_off_c, 8, 42, 0
9, 34080, Note_on_c, 8, 47, 64
9, 34320, Note_off_c, 8, 47, 0
9, 34320, Note_on_c, 8, 59, 64
9, 34680, Note_off_c, 8, 59, 0
9, 34680, Note_on_c, 8, 57, 41
9, 34800, Note_off_c, 8, 57, 0
9, 34800, Note_on_c, 8, 56, 42
9, 34920, Note_off_c, 8, 56, 0
9, 34920, Note_on_c, 8, 54, 42
9, 35160, Note_off_c, 8, 54, 0
9, 35160, Note_on_c, 8, 51, 44
9, 35280, Note_off_c, 8, 51, 0
9, 35280, Note_on_c, 8, 52, 45
9, 35400, Note_off_c, 8, 52, 0
9, 35400, Note_on_c, 8, 49, 45
9, 35520, Note_off_c, 8, 49, 0
9, 35520, Note_on_c, 8, 56, 46
9, 35760, Note_off_c, 8, 56, 0
9, 35760, Note_on_c, 8, 61, 48
9, 36120, Note_off_c, 8, 61, 0
9, 36120, Note_on_c, 8, 49, 50
9, 36240, Note_off_c, 8, 49, 0
9, 36240, Note_on_c, 8, 61, 51
9, 36360, Note_off_c, 8, 61, 0
9, 36360, Note_on_c, 8, 59, 51
9, 36480, Note_off_c, 8, 59, 0
9, 36480, Note_on_c, 8, 58, 52
9, 36600, Note_off_c, 8, 58, 0
9, 36600, Note_on_c, 8, 54, 53
9, 36720, Note_off_c, 8, 54, 0
9, 36720, Note_on_c, 8, 56, 54
9, 36840, Note_off_c, 8, 56, 0
9, 36840, Note_on_c, 8, 58, 54
9, 36960, Note_off_c, 8, 58, 0
9, 36960, Note_on_c, 8, 59, 55
9, 37080, Note_off_c, 8, 59, 0
9, 37080, Note_on_c, 8, 47, 56
9, 37200, Note_off_c, 8, 47, 0
9, 37200, Note_on_c, 8, 59, 57
9, 37320, Note_off_c, 8, 59, 0
9, 37320, Note_on_c, 8, 57, 57
9, 37440, Note_off_c, 8, 57, 0
9, 37440, Note_on_c, 8, 56, 58
9, 37560, Note_off_c, 8, 56, 0
9, 37560, Note_on_c, 8, 52, 59
9, 37680, Note_off_c, 8, 52, 0
9, 37680, Note_on_c, 8, 54, 60
9, 37800, Note_off_c, 8, 54, 0
9, 37800, Note_on_c, 8, 56, 60
9, 37920, Note_off_c, 8, 56, 0
9, 37920, Note_on_c, 8, 57, 61
9, 38040, Note_off_c, 8, 57, 0
9, 38040, Note_on_c, 8, 45, 62
9, 38160, Note_off_c, 8, 45, 0
9, 38160, Note_on_c, 8, 57, 63
9, 38280, Note_off_c, 8, 57, 0
9, 38280, Note_on_c, 8, 55, 63
9, 38400, Note_off_c, 8, 55, 0
9, 38400, Note_on_c, 8, 54, 64
9, 38520, Note_off_c, 8, 54, 0
9, 38520, Note_on_c, 8, 50, 64
9, 38640, Note_off_c, 8, 50, 0
9, 38640, Note_on_c, 8, 52, 64
9, 38760, Note_off_c, 8, 52, 0
9, 38760, Note_on_c, 8, 54, 64
9, 38880, Note_off_c, 8, 54, 0
9, 38880, Note_on_c, 8, 55, 64
9, 39120, Note_off_c, 8, 55, 0
9, 39120, Note_on_c, 8, 54, 64
9, 39240, Note_off_c, 8, 54, 0
9, 39240, Note_on_c, 8, 52, 64
9, 39360, Note_off_c, 8, 52, 0
9, 39360, Note_on_c, 8, 54, 64
9, 39600, Note_off_c, 8, 54, 0
9, 39600, Note_on_c, 8, 47, 64
9, 40080, Note_off_c, 8, 47, 0
9, 40080, Note_on_c, 8, 45, 64
9, 40320, Note_off_c, 8, 45, 0
9, 40320, Note_on_c, 8, 44, 64
9, 40440, Note_off_c, 8, 44, 0
9, 40440, Note_on_c, 8, 42, 64
9, 40560, Note_off_c, 8, 42, 0
9, 40560, Note_on_c, 8, 44, 64
9, 40680, Note_off_c, 8, 44, 0
9, 40680, Note_on_c, 8, 46, 64
9, 40800, Note_off_c, 8, 46, 0
9, 40800, Note_on_c, 8, 47, 64
9, 41040, Note_off_c, 8, 47, 0
9, 41040, Note_on_c, 8, 45, 64
9, 41160, Note_off_c, 8, 45, 0
9, 41160, Note_on_c, 8, 44, 64
9, 41280, Note_off_c, 8, 44, 0
9, 41280, Note_on_c, 8, 45, 64
9, 41520, Note_off_c, 8, 45, 0
9, 41520, Note_on_c, 8, 44, 64
9, 41760, Note_off_c, 8, 44, 0
9, 41760, Note_on_c, 8, 42, 64
9, 42000, Note_off_c, 8, 42, 0
9, 42360, Note_on_c, 8, 59, 64
9, 42600, Note_off_c, 8, 59, 0
9, 42600, Note_on_c, 8, 57, 64
9, 42720, Note_off_c, 8, 57, 0
9, 42720, Note_on_c, 8, 56, 64
9, 42840, Note_off_c, 8, 56, 0
9, 42840, Note_on_c, 8, 52, 64
9, 42960, Note_off_c, 8, 52, 0
9, 42960, Note_on_c, 8, 54, 64
9, 43080, Note_off_c, 8, 54, 0
9, 43080, Note_on_c, 8, 56, 64
9, 43200, Note_off_c, 8, 56, 0
9, 43200, Note_on_c, 8, 57, 64
9, 43320, Note_off_c, 8, 57, 0
9, 43320, Note_on_c, 8, 54, 64
9, 43440, Note_off_c, 8, 54, 0
9, 43440, Note_on_c, 8, 56, 64
9, 43560, Note_off_c, 8, 56, 0
9, 43560, Note_on_c, 8, 58, 64
9, 43680, Note_off_c, 8, 58, 0
9, 43680, Note_on_c, 8, 59, 64
9, 43800, Note_off_c, 8, 59, 0
9, 43800, Note_on_c, 8, 57, 64
9, 43920, Note_off_c, 8, 57, 0
9, 43920, Note_on_c, 8, 56, 64
9, 44040, Note_off_c, 8, 56, 0
9, 44040, Note_on_c, 8, 54, 64
9, 44160, Note_off_c, 8, 54, 0
9, 44160, Note_on_c, 8, 53, 64
9, 44280, Note_off_c, 8, 53, 0
9, 44280, Note_on_c, 8, 49, 64
9, 44400, Note_off_c, 8, 49, 0
9, 44400, Note_on_c, 8, 51, 64
9, 44520, Note_off_c, 8, 51, 0
9, 44520, Note_on_c, 8, 53, 64
9, 44640, Note_off_c, 8, 53, 0
9, 44640, Note_on_c, 8, 54, 64
9, 44760, Note_off_c, 8, 54, 0
9, 44760, Note_on_c, 8, 52, 64
9, 44880, Note_off_c, 8, 52, 0
9, 44880, Note_on_c, 8, 51, 64
9, 45000, Note_off_c, 8, 51, 0
9, 45000, Note_on_c, 8, 49, 64
9, 45120, Note_off_c, 8, 49, 0
9, 45120, Note_on_c, 8, 48, 64
9, 45360, Note_off_c, 8, 48, 0
9, 45360, Note_on_c, 8, 49, 64
9, 45600, Note_off_c, 8, 49, 0
9, 45600, Note_on_c, 8, 56, 64
9, 45840, Note_off_c, 8, 56, 0
9, 45840, Note_on_c, 8, 44, 64
9, 46080, Note_off_c, 8, 44, 0
9, 46080, Note_on_c, 8, 49, 64
9, 46200, Note_off_c, 8, 49, 0
9, 46200, Note_on_c, 8, 50, 64
9, 46320, Note_off_c, 8, 50, 0
9, 46320, Note_on_c, 8, 49, 64
9, 46440, Note_off_c, 8, 49, 0
9, 46440, Note_on_c, 8, 47, 64
9, 46560, Note_off_c, 8, 47, 0
9, 46560, Note_on_c, 8, 46, 64
9, 46680, Note_off_c, 8, 46, 0
9, 46680, Note_on_c, 8, 49, 64
9, 46800, Note_off_c, 8, 49, 0
9, 46800, Note_on_c, 8, 42, 64
9, 47040, Note_off_c, 8, 42, 0
9, 47040, Note_on_c, 8, 54, 64
9, 47400, Note_off_c, 8, 54, 0
9, 47400, Note_on_c, 8, 52, 64
9, 47520, Note_off_c, 8, 52, 0
9, 47520, Note_on_c, 8, 50, 64
9, 47640, Note_off_c, 8, 50, 0
9, 47640, Note_on_c, 8, 49, 64
9, 47760, Note_off_c, 8, 49, 0
9, 47760, Note_on_c, 8, 47, 64
9, 47880, Note_off_c, 8, 47, 0
9, 47880, Note_on_c, 8, 45, 64
9, 48000, Note_off_c, 8, 45, 0
9, 48000, Note_on_c, 8, 44, 64
9, 48120, Note_off_c, 8, 44, 0
9, 48120, Note_on_c, 8, 47, 64
9, 48240, Note_off_c, 8, 47, 0
9, 48240, Note_on_c, 8, 40, 64
9, 48480, Note_off_c, 8, 40, 0
9, 48480, Note_on_c, 8, 52, 64
9, 48840, Note_off_c, 8, 52, 0
9, 48840, Note_on_c, 8, 50, 64
9, 48960, Note_off_c, 8, 50, 0
9, 48960, Note_on_c, 8, 49, 80
9, 49200, Note_off_c, 8, 49, 0
9, 49200, Note_on_c, 8, 61, 79
9, 49560, Note_off_c, 8, 61, 0
9, 49560, Note_on_c, 8, 60, 77
9, 49680, Note_off_c, 8, 60, 0
9, 49680, Note_on_c, 8, 61, 76
9, 49800, Note_off_c, 8, 61, 0
9, 49800, Note_on_c, 8, 63, 75
9, 49920, Note_off_c, 8, 63, 0
9, 49920, Note_on_c, 8, 56, 75
9, 50160, Note_off_c, 8, 56, 0
9, 50520, Note_on_c, 8, 61, 71
9, 50760, Note_off_c, 8, 61, 0
9, 50760, Note_on_c, 8, 59, 70
9, 50880, Note_off_c, 8, 59, 0
9, 50880, Note_on_c, 8, 58, 69
9, 51000, Note_off_c, 8, 58, 0
9, 51000, Note_on_c, 8, 54, 69
9, 51120, Note_off_c, 8, 54, 0
9, 51120, Note_on_c, 8, 56, 68
9, 51240, Note_off_c, 8, 56, 0
9, 51240, Note_on_c, 8, 58, 67
9, 51360, Note_off_c, 8, 58, 0
9, 51360, Note_on_c, 8, 59, 67
9, 51480, Note_off_c, 8, 59, 0
9, 51480, Note_on_c, 8, 57, 66
9, 51600, Note_off_c, 8, 57, 0
9, 51600, Note_on_c, 8, 56, 65
9, 51720, Note_off_c, 8, 56, 0
9, 51720, Note_on_c, 8, 54, 65
9, 51840, Note_off_c, 8, 54, 0
9, 51840, Note_on_c, 8, 53, 64
9, 51960, Note_off_c, 8, 53, 0
9, 51960, Note_on_c, 8, 49, 64
9, 52080, Note_off_c, 8, 49, 0
9, 52080, Note_on_c, 8, 54, 64
9, 52200, Note_off_c, 8, 54, 0
9, 52200, Note_on_c, 8, 52, 64
9, 52320, Note_off_c, 8, 52, 0
9, 52320, Note_on_c, 8, 50, 64
9, 52440, Note_off_c, 8, 50, 0
9, 52440, Note_on_c, 8, 49, 64
9, 52560, Note_off_c, 8, 49, 0
9, 52560, Note_on_c, 8, 47, 64
9, 52920, Note_off_c, 8, 47, 0
9, 52920, Note_on_c, 8, 45, 64
9, 53040, Note_off_c, 8, 45, 0
9, 53040, Note_on_c, 8, 44, 64
9, 53160, Note_off_c, 8, 44, 0
9, 53160, Note_on_c, 8, 42, 64
9, 53280, Note_off_c, 8, 42, 0
9, 53280, Note_on_c, 8, 44, 64
9, 53400, Note_off_c, 8, 44, 0
9, 53400, Note_on_c, 8, 42, 64
9, 53520, Note_off_c, 8, 42, 0
9, 53520, Note_on_c, 8, 44, 64
9, 53640, Note_off_c, 8, 44, 0
9, 53640, Note_on_c, 8, 45, 64
9, 53760, Note_off_c, 8, 45, 0
9, 53760, Note_on_c, 8, 47, 64
9, 54000, Note_off_c, 8, 47, 0
9, 54000, Note_on_c, 8, 45, 64
9, 54120, Note_off_c, 8, 45, 0
9, 54120, Note_on_c, 8, 44, 64
9, 54240, Note_off_c, 8, 44, 0
9, 54240, Note_on_c, 8, 45, 64
9, 54480, Note_off_c, 8, 45, 0
9, 54480, Note_on_c, 8, 44, 64
9, 54720, Note_off_c, 8, 44, 0
9, 54720, Note_on_c, 8, 42, 64
9, 55320, Note_off_c, 8, 42, 0
9, 55320, Note_on_c, 8, 54, 67
9, 55440, Note_off_c, 8, 54, 0
9, 55440, Note_on_c, 8, 56, 68
9, 55560, Note_off_c, 8, 56, 0
9, 55560, Note_on_c, 8, 58, 69
9, 55680, Note_off_c, 8, 58, 0
9, 55680, Note_on_c, 8, 59, 69
9, 55800, Note_off_c, 8, 59, 0
9, 55800, Note_on_c, 8, 57, 70
9, 55920, Note_off_c, 8, 57, 0
9, 55920, Note_on_c, 8, 56, 71
9, 56040, Note_off_c, 8, 56, 0
9, 56040, Note_on_c, 8, 54, 71
9, 56160, Note_off_c, 8, 54, 0
9, 56160, Note_on_c, 8, 53, 72
9, 56400, Note_off_c, 8, 53, 0
9, 56400, Note_on_c, 8, 54, 73
9, 56520, Note_off_c, 8, 54, 0
9, 56520, Note_on_c, 8, 47, 74
9, 56640, Note_off_c, 8, 47, 0
9, 56640, Note_on_c, 8, 49, 75
9, 56880, Note_off_c, 8, 49, 0
9, 56880, Note_on_c, 8, 37, 76
9, 57120, Note_off_c, 8, 37, 0
9, 57120, Note_on_c, 8, 42, 77
9, 57600, Note_off_c, 8, 42, 0
9, 57615, End_track
10, 0, Start_track
10, 0, Title_t, "Tenor"
10, 0, Program_c, 2, 52
10, 3360, Note_on_c, 2, 61, 64
10, 3600, Note_off_c, 2, 61, 0
10, 3600, Note_on_c, 2, 62, 64
10, 3840, Note_off_c, 2, 62, 0
10, 3840, Note_on_c, 2, 60, 64
10, 4200, Note_off_c, 2, 60, 0
10, 4200, Note_on_c, 2, 61, 64
10, 4320, Note_off_c, 2, 61, 0
10, 4320, Note_on_c, 2, 63, 64
10, 4440, Note_off_c, 2, 63, 0
10, 4440, Note_on_c, 2, 61, 64
10, 4560, Note_off_c, 2, 61, 0
10, 4560, Note_on_c, 2, 63, 64
10, 4680, Note_off_c, 2, 63, 0
10, 4680, Note_on_c, 2, 64, 64
10, 4800, Note_off_c, 2, 64, 0
10, 4800, Note_on_c, 2, 66, 64
10, 5040, Note_off_c, 2, 66, 0
10, 5040, Note_on_c, 2, 64, 64
10, 5160, Note_off_c, 2, 64, 0
10, 5160, Note_on_c, 2, 63, 64
10, 5280, Note_off_c, 2, 63, 0
10, 5280, Note_on_c, 2, 64, 64
10, 5520, Note_off_c, 2, 64, 0
10, 5520, Note_on_c, 2, 63, 64
10, 5760, Note_off_c, 2, 63, 0
10, 5760, Note_on_c, 2, 61, 45
10, 6000, Note_off_c, 2, 61, 0
10, 6000, Note_on_c, 2, 64, 45
10, 6480, Note_off_c, 2, 64, 0
10, 6480, Note_on_c, 2, 62, 45
10, 6600, Note_off_c, 2, 62, 0
10, 6600, Note_on_c, 2, 61, 45
10, 6720, Note_off_c, 2, 61, 0
10, 6720, Note_on_c, 2, 59, 45
10, 6960, Note_off_c, 2, 59, 0
10, 6960, Note_on_c, 2, 58, 45
10, 7200, Note_off_c, 2, 58, 0
10, 7200, Note_on_c, 2, 59, 45
10, 7440, Note_off_c, 2, 59, 0
10, 7440, Note_on_c, 2, 62, 45
10, 7920, Note_off_c, 2, 62, 0
10, 7920, Note_on_c, 2, 61, 45
10, 8040, Note_off_c, 2, 61, 0
10, 8040, Note_on_c, 2, 59, 45
10, 8160, Note_off_c, 2, 59, 0
10, 8160, Note_on_c, 2, 57, 45
10, 8400, Note_off_c, 2, 57, 0
10, 8400, Note_on_c, 2, 56, 45
10, 8640, Note_off_c, 2, 56, 0
10, 8640, Note_on_c, 2, 58, 64
10, 8880, Note_off_c, 2, 58, 0
10, 8880, Note_on_c, 2, 59, 64
10, 9240, Note_off_c, 2, 59, 0
10, 9240, Note_on_c, 2, 56, 64
10, 9360, Note_off_c, 2, 56, 0
10, 9360, Note_on_c, 2, 57, 64
10, 9480, Note_off_c, 2, 57, 0
10, 9480, Note_on_c, 2, 54, 64
10, 9600, Note_off_c, 2, 54, 0
10, 9600, Note_on_c, 2, 53, 64
10, 9960, Note_off_c, 2, 53, 0
10, 9960, Note_on_c, 2, 54, 64
10, 10080, Note_off_c, 2, 54, 0
10, 10080, Note_on_c, 2, 54, 64
10, 10320, Note_off_c, 2, 54, 0
10, 10320, Note_on_c, 2, 66, 64
10, 10800, Note_off_c, 2, 66, 0
10, 10800, Note_on_c, 2, 65, 64
10, 11040, Note_off_c, 2, 65, 0
10, 11040, Note_on_c, 2, 66, 64
10, 11280, Note_off_c, 2, 66, 0
10, 11280, Note_on_c, 2, 57, 64
10, 11520, Note_off_c, 2, 57, 0
10, 11520, Note_on_c, 2, 56, 64
10, 11760, Note_off_c, 2, 56, 0
10, 11760, Note_on_c, 2, 68, 64
10, 11880, Note_off_c, 2, 68, 0
10, 11880, Note_on_c, 2, 64, 64
10, 12000, Note_off_c, 2, 64, 0
10, 12000, Note_on_c, 2, 66, 64
10, 12240, Note_off_c, 2, 66, 0
10, 12240, Note_on_c, 2, 63, 64
10, 12480, Note_off_c, 2, 63, 0
10, 12480, Note_on_c, 2, 61, 64
10, 12720, Note_off_c, 2, 61, 0
10, 12720, Note_on_c, 2, 69, 64
10, 12960, Note_off_c, 2, 69, 0
10, 12960, Note_on_c, 2, 68, 64
10, 13320, Note_off_c, 2, 68, 0
10, 13320, Note_on_c, 2, 66, 64
10, 13440, Note_off_c, 2, 66, 0
10, 13440, Note_on_c, 2, 64, 64
10, 13560, Note_off_c, 2, 64, 0
10, 13560, Note_on_c, 2, 63, 61
10, 13680, Note_off_c, 2, 63, 0
10, 13680, Note_on_c, 2, 61, 58
10, 13800, Note_off_c, 2, 61, 0
10, 13800, Note_on_c, 2, 59, 55
10, 13920, Note_off_c, 2, 59, 0
10, 13920, Note_on_c, 2, 58, 52
10, 14040, Note_off_c, 2, 58, 0
10, 14040, Note_on_c, 2, 61, 49
10, 14160, Note_off_c, 2, 61, 0
10, 14160, Note_on_c, 2, 54, 46
10, 14400, Note_off_c, 2, 54, 0
10, 14400, Note_on_c, 2, 66, 45
10, 14760, Note_off_c, 2, 66, 0
10, 14760, Note_on_c, 2, 64, 46
10, 14880, Note_off_c, 2, 64, 0
10, 14880, Note_on_c, 2, 62, 47
10, 15000, Note_off_c, 2, 62, 0
10, 15000, Note_on_c, 2, 64, 47
10, 15120, Note_off_c, 2, 64, 0
10, 15120, Note_on_c, 2, 62, 48
10, 15240, Note_off_c, 2, 62, 0
10, 15240, Note_on_c, 2, 61, 48
10, 15360, Note_off_c, 2, 61, 0
10, 15360, Note_on_c, 2, 60, 49
10, 15480, Note_off_c, 2, 60, 0
10, 15480, Note_on_c, 2, 56, 49
10, 15600, Note_off_c, 2, 56, 0
10, 15600, Note_on_c, 2, 61, 50
10, 15720, Note_off_c, 2, 61, 0
10, 15720, Note_on_c, 2, 63, 50
10, 15840, Note_off_c, 2, 63, 0
10, 15840, Note_on_c, 2, 64, 51
10, 16080, Note_off_c, 2, 64, 0
10, 16080, Note_on_c, 2, 63, 52
10, 16320, Note_off_c, 2, 63, 0
10, 16320, Note_on_c, 2, 61, 53
10, 16560, Note_off_c, 2, 61, 0
10, 16560, Note_on_c, 2, 64, 54
10, 16680, Note_off_c, 2, 64, 0
10, 16680, Note_on_c, 2, 58, 54
10, 16800, Note_off_c, 2, 58, 0
10, 16800, Note_on_c, 2, 59, 55
10, 17040, Note_off_c, 2, 59, 0
10, 17040, Note_on_c, 2, 60, 55
10, 17280, Note_off_c, 2, 60, 0
10, 17280, Note_on_c, 2, 61, 56
10, 17520, Note_off_c, 2, 61, 0
10, 17520, Note_on_c, 2, 61, 57
10, 17640, Note_off_c, 2, 61, 0
10, 17640, Note_on_c, 2, 61, 58
10, 17760, Note_off_c, 2, 61, 0
10, 17760, Note_on_c, 2, 62, 58
10, 18360, Note_off_c, 2, 62, 0
10, 18360, Note_on_c, 2, 61, 61
10, 18480, Note_off_c, 2, 61, 0
10, 18480, Note_on_c, 2, 59, 61
10, 18600, Note_off_c, 2, 59, 0
10, 18600, Note_on_c, 2, 57, 62
10, 18720, Note_off_c, 2, 57, 0
10, 18720, Note_on_c, 2, 56, 62
10, 18840, Note_off_c, 2, 56, 0
10, 18840, Note_on_c, 2, 57, 63
10, 18960, Note_off_c, 2, 57, 0
10, 18960, Note_on_c, 2, 56, 63
10, 19080, Note_off_c, 2, 56, 0
10, 19080, Note_on_c, 2, 54, 64
10, 19200, Note_off_c, 2, 54, 0
10, 19200, Note_on_c, 2, 53, 64
10, 19440, Note_off_c, 2, 53, 0
10, 19440, Note_on_c, 2, 54, 64
10, 19920, Note_off_c, 2, 54, 0
10, 19920, Note_on_c, 2, 53, 64
10, 20160, Note_off_c, 2, 53, 0
10, 20160, Note_on_c, 2, 54, 64
10, 20880, Note_off_c, 2, 54, 0
10, 20880, Note_on_c, 2, 55, 64
10, 21000, Note_off_c, 2, 55, 0
10, 21000, Note_on_c, 2, 57, 64
10, 21120, Note_off_c, 2, 57, 0
10, 21120, Note_on_c, 2, 59, 64
10, 21360, Note_off_c, 2, 59, 0
10, 21360, Note_on_c, 2, 57, 64
10, 21600, Note_off_c, 2, 57, 0
10, 21600, Note_on_c, 2, 56, 64
10, 21720, Note_off_c, 2, 56, 0
10, 21720, Note_on_c, 2, 68, 64
10, 21960, Note_off_c, 2, 68, 0
10, 21960, Note_on_c, 2, 66, 64
10, 22080, Note_off_c, 2, 66, 0
10, 22080, Note_on_c, 2, 65, 64
10, 22200, Note_off_c, 2, 65, 0
10, 22200, Note_on_c, 2, 61, 64
10, 22320, Note_off_c, 2, 61, 0
10, 22320, Note_on_c, 2, 66, 64
10, 22440, Note_off_c, 2, 66, 0
10, 22440, Note_on_c, 2, 68, 64
10, 22560, Note_off_c, 2, 68, 0
10, 22560, Note_on_c, 2, 69, 64
10, 22800, Note_off_c, 2, 69, 0
10, 22800, Note_on_c, 2, 68, 64
10, 23040, Note_off_c, 2, 68, 0
10, 23040, Note_on_c, 2, 66, 64
10, 23280, Note_off_c, 2, 66, 0
10, 23280, Note_on_c, 2, 58, 64
10, 23520, Note_off_c, 2, 58, 0
10, 23520, Note_on_c, 2, 59, 64
10, 23760, Note_off_c, 2, 59, 0
10, 23760, Note_on_c, 2, 66, 64
10, 24000, Note_off_c, 2, 66, 0
10, 24000, Note_on_c, 2, 65, 64
10, 24240, Note_off_c, 2, 65, 0
10, 24240, Note_on_c, 2, 66, 64
10, 24600, Note_off_c, 2, 66, 0
10, 24600, Note_on_c, 2, 64, 64
10, 24720, Note_off_c, 2, 64, 0
10, 24720, Note_on_c, 2, 63, 64
10, 24840, Note_off_c, 2, 63, 0
10, 24840, Note_on_c, 2, 61, 64
10, 24960, Note_off_c, 2, 61, 0
10, 24960, Note_on_c, 2, 60, 64
10, 25080, Note_off_c, 2, 60, 0
10, 25080, Note_on_c, 2, 61, 64
10, 25200, Note_off_c, 2, 61, 0
10, 25200, Note_on_c, 2, 60, 64
10, 25320, Note_off_c, 2, 60, 0
10, 25320, Note_on_c, 2, 61, 64
10, 25440, Note_off_c, 2, 61, 0
10, 25440, Note_on_c, 2, 63, 64
10, 25680, Note_off_c, 2, 63, 0
10, 25680, Note_on_c, 2, 61, 64
10, 25800, Note_off_c, 2, 61, 0
10, 25800, Note_on_c, 2, 60, 64
10, 25920, Note_off_c, 2, 60, 0
10, 25920, Note_on_c, 2, 61, 64
10, 26160, Note_off_c, 2, 61, 0
10, 26160, Note_on_c, 2, 63, 58
10, 26400, Note_off_c, 2, 63, 0
10, 26400, Note_on_c, 2, 56, 52
10, 26640, Note_off_c, 2, 56, 0
10, 26640, Note_on_c, 2, 61, 46
10, 27120, Note_off_c, 2, 61, 0
10, 27120, Note_on_c, 2, 59, 42
10, 27480, Note_off_c, 2, 59, 0
10, 27480, Note_on_c, 2, 61, 44
10, 27600, Note_off_c, 2, 61, 0
10, 27600, Note_on_c, 2, 62, 45
10, 27840, Note_off_c, 2, 62, 0
10, 27840, Note_on_c, 2, 61, 46
10, 28080, Note_off_c, 2, 61, 0
10, 28320, Note_on_c, 2, 54, 49
10, 28560, Note_off_c, 2, 54, 0
10, 28560, Note_on_c, 2, 55, 51
10, 28800, Note_off_c, 2, 55, 0
10, 28800, Note_on_c, 2, 53, 52
10, 29160, Note_off_c, 2, 53, 0
10, 29160, Note_on_c, 2, 54, 54
10, 29280, Note_off_c, 2, 54, 0
10, 29280, Note_on_c, 2, 56, 55
10, 29400, Note_off_c, 2, 56, 0
10, 29400, Note_on_c, 2, 54, 56
10, 29520, Note_off_c, 2, 54, 0
10, 29520, Note_on_c, 2, 56, 57
10, 29640, Note_off_c, 2, 56, 0
10, 29640, Note_on_c, 2, 57, 57
10, 29760, Note_off_c, 2, 57, 0
10, 29760, Note_on_c, 2, 59, 58
10, 30000, Note_off_c, 2, 59, 0
10, 30000, Note_on_c, 2, 57, 60
10, 30120, Note_off_c, 2, 57, 0
10, 30120, Note_on_c, 2, 56, 60
10, 30240, Note_off_c, 2, 56, 0
10, 30240, Note_on_c, 2, 57, 61
10, 30480, Note_off_c, 2, 57, 0
10, 30480, Note_on_c, 2, 56, 63
10, 30720, Note_off_c, 2, 56, 0
10, 30720, Note_on_c, 2, 54, 64
10, 30840, Note_off_c, 2, 54, 0
10, 30840, Note_on_c, 2, 66, 64
10, 31080, Note_off_c, 2, 66, 0
10, 31080, Note_on_c, 2, 64, 64
10, 31200, Note_off_c, 2, 64, 0
10, 31200, Note_on_c, 2, 63, 64
10, 31320, Note_off_c, 2, 63, 0
10, 31320, Note_on_c, 2, 59, 64
10, 31440, Note_off_c, 2, 59, 0
10, 31440, Note_on_c, 2, 61, 64
10, 31560, Note_off_c, 2, 61, 0
10, 31560, Note_on_c, 2, 63, 64
10, 31680, Note_off_c, 2, 63, 0
10, 31680, Note_on_c, 2, 64, 64
10, 31800, Note_off_c, 2, 64, 0
10, 31800, Note_on_c, 2, 62, 64
10, 31920, Note_off_c, 2, 62, 0
10, 31920, Note_on_c, 2, 61, 64
10, 32040, Note_off_c, 2, 61, 0
10, 32040, Note_on_c, 2, 59, 64
10, 32160, Note_off_c, 2, 59, 0
10, 32160, Note_on_c, 2, 57, 64
10, 32400, Note_off_c, 2, 57, 0
10, 32400, Note_on_c, 2, 57, 64
10, 32880, Note_off_c, 2, 57, 0
10, 32880, Note_on_c, 2, 55, 64
10, 33000, Note_off_c, 2, 55, 0
10, 33000, Note_on_c, 2, 54, 64
10, 33120, Note_off_c, 2, 54, 0
10, 33120, Note_on_c, 2, 59, 64
10, 33360, Note_off_c, 2, 59, 0
10, 33360, Note_on_c, 2, 59, 64
10, 33600, Note_off_c, 2, 59, 0
10, 33600, Note_on_c, 2, 59, 64
10, 33840, Note_off_c, 2, 59, 0
10, 33840, Note_on_c, 2, 58, 64
10, 34080, Note_off_c, 2, 58, 0
10, 34080, Note_on_c, 2, 62, 64
10, 34320, Note_off_c, 2, 62, 0
10, 34560, Note_on_c, 2, 61, 40
10, 34800, Note_off_c, 2, 61, 0
10, 34800, Note_on_c, 2, 62, 42
10, 35040, Note_off_c, 2, 62, 0
10, 35040, Note_on_c, 2, 60, 43
10, 35400, Note_off_c, 2, 60, 0
10, 35400, Note_on_c, 2, 61, 45
10, 35520, Note_off_c, 2, 61, 0
10, 35520, Note_on_c, 2, 63, 46
10, 35640, Note_off_c, 2, 63, 0
10, 35640, Note_on_c, 2, 61, 47
10, 35760, Note_off_c, 2, 61, 0
10, 35760, Note_on_c, 2, 63, 48
10, 35880, Note_off_c, 2, 63, 0
10, 35880, Note_on_c, 2, 64, 48
10, 36000, Note_off_c, 2, 64, 0
10, 36000, Note_on_c, 2, 66, 49
10, 36240, Note_off_c, 2, 66, 0
10, 36240, Note_on_c, 2, 64, 51
10, 36360, Note_off_c, 2, 64, 0
10, 36360, Note_on_c, 2, 63, 51
10, 36480, Note_off_c, 2, 63, 0
10, 36480, Note_on_c, 2, 64, 52
10, 36720, Note_off_c, 2, 64, 0
10, 36720, Note_on_c, 2, 62, 54
10, 36840, Note_off_c, 2, 62, 0
10, 36840, Note_on_c, 2, 61, 54
10, 36960, Note_off_c, 2, 61, 0
10, 36960, Note_on_c, 2, 62, 55
10, 37200, Note_off_c, 2, 62, 0
10, 37200, Note_on_c, 2, 62, 57
10, 37560, Note_off_c, 2, 62, 0
10, 37560, Note_on_c, 2, 56, 59
10, 37680, Note_off_c, 2, 56, 0
10, 37680, Note_on_c, 2, 57, 60
10, 37800, Note_off_c, 2, 57, 0
10, 37800, Note_on_c, 2, 59, 60
10, 37920, Note_off_c, 2, 59, 0
10, 37920, Note_on_c, 2, 61, 61
10, 38520, Note_off_c, 2, 61, 0
10, 38520, Note_on_c, 2, 54, 64
10, 38640, Note_off_c, 2, 54, 0
10, 38640, Note_on_c, 2, 55, 64
10, 38760, Note_off_c, 2, 55, 0
10, 38760, Note_on_c, 2, 57, 64
10, 38880, Note_off_c, 2, 57, 0
10, 38880, Note_on_c, 2, 59, 64
10, 39120, Note_off_c, 2, 59, 0
10, 39120, Note_on_c, 2, 64, 64
10, 39600, Note_off_c, 2, 64, 0
10, 39600, Note_on_c, 2, 62, 64
10, 39840, Note_off_c, 2, 62, 0
10, 39840, Note_on_c, 2, 61, 64
10, 40320, Note_off_c, 2, 61, 0
10, 40320, Note_on_c, 2, 59, 64
10, 40440, Note_off_c, 2, 59, 0
10, 40440, Note_on_c, 2, 57, 64
10, 40560, Note_off_c, 2, 57, 0
10, 40560, Note_on_c, 2, 59, 64
10, 40680, Note_off_c, 2, 59, 0
10, 40680, Note_on_c, 2, 61, 64
10, 40800, Note_off_c, 2, 61, 0
10, 40800, Note_on_c, 2, 54, 64
10, 40920, Note_off_c, 2, 54, 0
10, 40920, Note_on_c, 2, 56, 64
10, 41040, Note_off_c, 2, 56, 0
10, 41040, Note_on_c, 2, 57, 64
10, 41160, Note_off_c, 2, 57, 0
10, 41160, Note_on_c, 2, 54, 64
10, 41280, Note_off_c, 2, 54, 0
10, 41280, Note_on_c, 2, 51, 64
10, 41520, Note_off_c, 2, 51, 0
10, 41520, Note_on_c, 2, 53, 64
10, 41760, Note_off_c, 2, 53, 0
10, 41760, Note_on_c, 2, 54, 64
10, 42000, Note_off_c, 2, 54, 0
10, 42840, Note_on_c, 2, 64, 64
10, 43080, Note_off_c, 2, 64, 0
10, 43080, Note_on_c, 2, 62, 64
10, 43200, Note_off_c, 2, 62, 0
10, 43200, Note_on_c, 2, 61, 64
10, 43320, Note_off_c, 2, 61, 0
10, 43320, Note_on_c, 2, 57, 64
10, 43440, Note_off_c, 2, 57, 0
10, 43440, Note_on_c, 2, 59, 64
10, 43560, Note_off_c, 2, 59, 0
10, 43560, Note_on_c, 2, 61, 64
10, 43680, Note_off_c, 2, 61, 0
10, 43680, Note_on_c, 2, 62, 64
10, 43800, Note_off_c, 2, 62, 0
10, 43800, Note_on_c, 2, 61, 64
10, 43920, Note_off_c, 2, 61, 0
10, 43920, Note_on_c, 2, 59, 64
10, 44040, Note_off_c, 2, 59, 0
10, 44040, Note_on_c, 2, 57, 64
10, 44160, Note_off_c, 2, 57, 0
10, 44160, Note_on_c, 2, 56, 64
10, 44280, Note_off_c, 2, 56, 0
10, 44280, Note_on_c, 2, 59, 64
10, 44400, Note_off_c, 2, 59, 0
10, 44400, Note_on_c, 2, 57, 64
10, 44520, Note_off_c, 2, 57, 0
10, 44520, Note_on_c, 2, 56, 64
10, 44640, Note_off_c, 2, 56, 0
10, 44640, Note_on_c, 2, 54, 64
10, 44880, Note_off_c, 2, 54, 0
10, 44880, Note_on_c, 2, 57, 64
10, 45120, Note_off_c, 2, 57, 0
10, 45120, Note_on_c, 2, 56, 64
10, 45360, Note_off_c, 2, 56, 0
10, 45360, Note_on_c, 2, 61, 64
10, 45480, Note_off_c, 2, 61, 0
10, 45480, Note_on_c, 2, 64, 64
10, 45600, Note_off_c, 2, 64, 0
10, 45600, Note_on_c, 2, 63, 64
10, 45720, Note_off_c, 2, 63, 0
10, 45720, Note_on_c, 2, 64, 64
10, 45840, Note_off_c, 2, 64, 0
10, 45840, Note_on_c, 2, 66, 64
10, 46080, Note_off_c, 2, 66, 0
10, 46080, Note_on_c, 2, 64, 64
10, 46320, Note_off_c, 2, 64, 0
10, 46320, Note_on_c, 2, 68, 64
10, 46440, Note_off_c, 2, 68, 0
10, 46440, Note_on_c, 2, 56, 64
10, 46560, Note_off_c, 2, 56, 0
10, 46560, Note_on_c, 2, 61, 64
10, 46680, Note_off_c, 2, 61, 0
10, 46680, Note_on_c, 2, 58, 64
10, 46800, Note_off_c, 2, 58, 0
10, 46800, Note_on_c, 2, 59, 64
10, 46920, Note_off_c, 2, 59, 0
10, 46920, Note_on_c, 2, 61, 64
10, 47040, Note_off_c, 2, 61, 0
10, 47040, Note_on_c, 2, 62, 64
10, 47280, Note_off_c, 2, 62, 0
10, 47280, Note_on_c, 2, 61, 64
10, 47520, Note_off_c, 2, 61, 0
10, 47520, Note_on_c, 2, 59, 64
10, 47760, Note_off_c, 2, 59, 0
10, 47760, Note_on_c, 2, 66, 64
10, 47880, Note_off_c, 2, 66, 0
10, 47880, Note_on_c, 2, 62, 64
10, 48000, Note_off_c, 2, 62, 0
10, 48000, Note_on_c, 2, 64, 64
10, 48240, Note_off_c, 2, 64, 0
10, 48240, Note_on_c, 2, 64, 64
10, 48360, Note_off_c, 2, 64, 0
10, 48360, Note_on_c, 2, 62, 64
10, 48480, Note_off_c, 2, 62, 0
10, 48480, Note_on_c, 2, 61, 64
10, 48600, Note_off_c, 2, 61, 0
10, 48600, Note_on_c, 2, 62, 64
10, 48720, Note_off_c, 2, 62, 0
10, 48720, Note_on_c, 2, 64, 64
10, 48960, Note_off_c, 2, 64, 0
10, 48960, Note_on_c, 2, 64, 80
10, 49200, Note_off_c, 2, 64, 0
10, 50040, Note_on_c, 2, 68, 74
10, 50280, Note_off_c, 2, 68, 0
10, 50280, Note_on_c, 2, 66, 73
10, 50400, Note_off_c, 2, 66, 0
10, 50400, Note_on_c, 2, 65, 72
10, 50520, Note_off_c, 2, 65, 0
10, 50520, Note_on_c, 2, 61, 71
10, 50640, Note_off_c, 2, 61, 0
10, 50640, Note_on_c, 2, 63, 71
10, 50760, Note_off_c, 2, 63, 0
10, 50760, Note_on_c, 2, 65, 70
10, 50880, Note_off_c, 2, 65, 0
10, 50880, Note_on_c, 2, 66, 69
10, 51000, Note_off_c, 2, 66, 0
10, 51000, Note_on_c, 2, 58, 69
10, 51120, Note_off_c, 2, 58, 0
10, 51120, Note_on_c, 2, 59, 68
10, 51240, Note_off_c, 2, 59, 0
10, 51240, Note_on_c, 2, 61, 67
10, 51480, Note_off_c, 2, 61, 0
10, 51480, Note_on_c, 2, 54, 66
10, 51600, Note_off_c, 2, 54, 0
10, 51600, Note_on_c, 2, 59, 65
10, 52080, Note_off_c, 2, 59, 0
10, 52080, Note_on_c, 2, 57, 64
10, 52200, Note_off_c, 2, 57, 0
10, 52200, Note_on_c, 2, 57, 64
10, 52320, Note_off_c, 2, 57, 0
10, 52320, Note_on_c, 2, 62, 64
10, 52680, Note_off_c, 2, 62, 0
10, 52680, Note_on_c, 2, 61, 64
10, 52740, Note_off_c, 2, 61, 0
10, 52740, Note_on_c, 2, 59, 64
10, 52800, Note_off_c, 2, 59, 0
10, 52800, Note_on_c, 2, 61, 64
10, 53040, Note_off_c, 2, 61, 0
10, 53040, Note_on_c, 2, 59, 64
10, 53160, Note_off_c, 2, 59, 0
10, 53160, Note_on_c, 2, 66, 64
10, 53280, Note_off_c, 2, 66, 0
10, 53280, Note_on_c, 2, 66, 64
10, 53520, Note_off_c, 2, 66, 0
10, 53520, Note_on_c, 2, 64, 64
10, 53760, Note_off_c, 2, 64, 0
10, 53760, Note_on_c, 2, 63, 64
10, 53880, Note_off_c, 2, 63, 0
10, 53880, Note_on_c, 2, 64, 64
10, 54000, Note_off_c, 2, 64, 0
10, 54000, Note_on_c, 2, 66, 64
10, 54120, Note_off_c, 2, 66, 0
10, 54120, Note_on_c, 2, 68, 64
10, 54240, Note_off_c, 2, 68, 0
10, 54240, Note_on_c, 2, 61, 64
10, 54360, Note_off_c, 2, 61, 0
10, 54360, Note_on_c, 2, 62, 64
10, 54480, Note_off_c, 2, 62, 0
10, 54480, Note_on_c, 2, 64, 64
10, 54720, Note_off_c, 2, 64, 0
10, 54720, Note_on_c, 2, 58, 64
10, 54960, Note_off_c, 2, 58, 0
10, 54960, Note_on_c, 2, 59, 65
10, 55320, Note_off_c, 2, 59, 0
10, 55320, Note_on_c, 2, 58, 67
10, 55440, Note_off_c, 2, 58, 0
10, 55440, Note_on_c, 2, 59, 68
10, 55560, Note_off_c, 2, 59, 0
10, 55560, Note_on_c, 2, 61, 69
10, 55680, Note_off_c, 2, 61, 0
10, 55680, Note_on_c, 2, 62, 69
10, 55800, Note_off_c, 2, 62, 0
10, 55800, Note_on_c, 2, 61, 70
10, 55920, Note_off_c, 2, 61, 0
10, 55920, Note_on_c, 2, 59, 71
10, 56040, Note_off_c, 2, 59, 0
10, 56040, Note_on_c, 2, 57, 71
10, 56160, Note_off_c, 2, 57, 0
10, 56160, Note_on_c, 2, 56, 72
10, 56400, Note_off_c, 2, 56, 0
10, 56400, Note_on_c, 2, 57, 73
10, 56520, Note_off_c, 2, 57, 0
10, 56520, Note_on_c, 2, 62, 74
10, 56640, Note_off_c, 2, 62, 0
10, 56640, Note_on_c, 2, 61, 75
10, 56880, Note_off_c, 2, 61, 0
10, 56880, Note_on_c, 2, 61, 76
10, 57000, Note_off_c, 2, 61, 0
10, 57000, Note_on_c, 2, 59, 77
10, 57120, Note_off_c, 2, 59, 0
10, 57120, Note_on_c, 2, 58, 77
10, 57600, Note_off_c, 2, 58, 0
10, 57615, End_track
11, 0, Start_track
11, 0, Title_t, "Oboe II"
11, 0, Program_c, 5, 68
11, 0, Control_c, 5, 7, 90
11, 8640, Note_on_c, 5, 66, 64
11, 8880, Note_off_c, 5, 66, 0
11, 8880, Note_on_c, 5, 67, 64
11, 9120, Note_off_c, 5, 67, 0
11, 9120, Note_on_c, 5, 65, 64
11, 9480, Note_off_c, 5, 65, 0
11, 9480, Note_on_c, 5, 66, 64
11, 9600, Note_off_c, 5, 66, 0
11, 9600, Note_on_c, 5, 68, 64
11, 9720, Note_off_c, 5, 68, 0
11, 9720, Note_on_c, 5, 66, 64
11, 9840, Note_off_c, 5, 66, 0
11, 9840, Note_on_c, 5, 68, 64
11, 9960, Note_off_c, 5, 68, 0
11, 9960, Note_on_c, 5, 69, 64
11, 10080, Note_off_c, 5, 69, 0
11, 10080, Note_on_c, 5, 71, 64
11, 10320, Note_off_c, 5, 71, 0
11, 10320, Note_on_c, 5, 69, 64
11, 10440, Note_off_c, 5, 69, 0
11, 10440, Note_on_c, 5, 68, 64
11, 10560, Note_off_c, 5, 68, 0
11, 10560, Note_on_c, 5, 69, 64
11, 10800, Note_off_c, 5, 69, 0
11, 10800, Note_on_c, 5, 68, 64
11, 11040, Note_off_c, 5, 68, 0
11, 11040, Note_on_c, 5, 66, 64
11, 11280, Note_off_c, 5, 66, 0
11, 11280, Note_on_c, 5, 66, 64
11, 11640, Note_off_c, 5, 66, 0
11, 11640, Note_on_c, 5, 63, 64
11, 11760, Note_off_c, 5, 63, 0
11, 11760, Note_on_c, 5, 64, 64
11, 11880, Note_off_c, 5, 64, 0
11, 11880, Note_on_c, 5, 61, 64
11, 12000, Note_off_c, 5, 61, 0
11, 12000, Note_on_c, 5, 60, 64
11, 12030, Note_off_c, 5, 60, 0
11, 12030, Note_on_c, 5, 61, 64
11, 12060, Note_off_c, 5, 61, 0
11, 12060, Note_on_c, 5, 60, 64
11, 12090, Note_off_c, 5, 60, 0
11, 12090, Note_on_c, 5, 61, 64
11, 12120, Note_off_c, 5, 61, 0
11, 12120, Note_on_c, 5, 60, 64
11, 12150, Note_off_c, 5, 60, 0
11, 12150, Note_on_c, 5, 61, 64
11, 12180, Note_off_c, 5, 61, 0
11, 12180, Note_on_c, 5, 60, 64
11, 12210, Note_off_c, 5, 60, 0
11, 12210, Note_on_c, 5, 61, 64
11, 12240, Note_off_c, 5, 61, 0
11, 12240, Note_on_c, 5, 60, 64
11, 12270, Note_off_c, 5, 60, 0
11, 12270, Note_on_c, 5, 61, 64
11, 12300, Note_off_c, 5, 61, 0
11, 12300, Note_on_c, 5, 60, 64
11, 12330, Note_off_c, 5, 60, 0
11, 12330, Note_on_c, 5, 61, 64
11, 12360, Note_off_c, 5, 61, 0
11, 12360, Note_on_c, 5, 61, 64
11, 12480, Note_off_c, 5, 61, 0
11, 12480, Note_on_c, 5, 61, 64
11, 12720, Note_off_c, 5, 61, 0
11, 12720, Note_on_c, 5, 73, 64
11, 13200, Note_off_c, 5, 73, 0
11, 13200, Note_on_c, 5, 72, 64
11, 13440, Note_off_c, 5, 72, 0
11, 13440, Note_on_c, 5, 73, 64
11, 13800, Note_off_c, 5, 73, 0
11, 13800, Note_on_c, 5, 68, 55
11, 13920, Note_off_c, 5, 68, 0
11, 13920, Note_on_c, 5, 73, 52
11, 14040, Note_off_c, 5, 73, 0
11, 14040, Note_on_c, 5, 70, 49
11, 14160, Note_off_c, 5, 70, 0
11, 14160, Note_on_c, 5, 71, 46
11, 14280, Note_off_c, 5, 71, 0
11, 14280, Note_on_c, 5, 73, 43
11, 14400, Note_off_c, 5, 73, 0
11, 14400, Note_on_c, 5, 74, 45
11, 14640, Note_off_c, 5, 74, 0
11, 14640, Note_on_c, 5, 73, 46
11, 14880, Note_off_c, 5, 73, 0
11, 14880, Note_on_c, 5, 71, 47
11, 15120, Note_off_c, 5, 71, 0
11, 15120, Note_on_c, 5, 66, 48
11, 15360, Note_off_c, 5, 66, 0
11, 15360, Note_on_c, 5, 68, 49
11, 16080, Note_off_c, 5, 68, 0
11, 16080, Note_on_c, 5, 68, 52
11, 16440, Note_off_c, 5, 68, 0
11, 16440, Note_on_c, 5, 66, 53
11, 16680, Note_off_c, 5, 66, 0
11, 16680, Note_on_c, 5, 64, 54
11, 16800, Note_off_c, 5, 64, 0
11, 16800, Note_on_c, 5, 63, 55
11, 16920, Note_off_c, 5, 63, 0
11, 16920, Note_on_c, 5, 65, 55
11, 17040, Note_off_c, 5, 65, 0
11, 17040, Note_on_c, 5, 66, 55
11, 17520, Note_off_c, 5, 66, 0
11, 17520, Note_on_c, 5, 65, 57
11, 17760, Note_off_c, 5, 65, 0
11, 17760, Note_on_c, 5, 66, 58
11, 18000, Note_off_c, 5, 66, 0
11, 18000, Note_on_c, 5, 67, 59
11, 18240, Note_off_c, 5, 67, 0
11, 18240, Note_on_c, 5, 65, 60
11, 18600, Note_off_c, 5, 65, 0
11, 18600, Note_on_c, 5, 66, 62
11, 18720, Note_off_c, 5, 66, 0
11, 18720, Note_on_c, 5, 68, 62
11, 18840, Note_off_c, 5, 68, 0
11, 18840, Note_on_c, 5, 66, 63
11, 18960, Note_off_c, 5, 66, 0
11, 18960, Note_on_c, 5, 68, 63
11, 19080, Note_off_c, 5, 68, 0
11, 19080, Note_on_c, 5, 69, 64
11, 19200, Note_off_c, 5, 69, 0
11, 19200, Note_on_c, 5, 71, 64
11, 19440, Note_off_c, 5, 71, 0
11, 19440, Note_on_c, 5, 69, 64
11, 19560, Note_off_c, 5, 69, 0
11, 19560, Note_on_c, 5, 68, 64
11, 19680, Note_off_c, 5, 68, 0
11, 19680, Note_on_c, 5, 69, 64
11, 19920, Note_off_c, 5, 69, 0
11, 19920, Note_on_c, 5, 68, 64
11, 20160, Note_off_c, 5, 68, 0
11, 20160, Note_on_c, 5, 66, 64
11, 20400, Note_off_c, 5, 66, 0
11, 20400, Note_on_c, 5, 69, 64
11, 20880, Note_off_c, 5, 69, 0
11, 20880, Note_on_c, 5, 67, 64
11, 21000, Note_off_c, 5, 67, 0
11, 21000, Note_on_c, 5, 66, 64
11, 21120, Note_off_c, 5, 66, 0
11, 21120, Note_on_c, 5, 64, 64
11, 21360, Note_off_c, 5, 64, 0
11, 21360, Note_on_c, 5, 63, 64
11, 21600, Note_off_c, 5, 63, 0
11, 21600, Note_on_c, 5, 64, 64
11, 21840, Note_off_c, 5, 64, 0
11, 21840, Note_on_c, 5, 71, 64
11, 22320, Note_off_c, 5, 71, 0
11, 22320, Note_on_c, 5, 69, 64
11, 22440, Note_off_c, 5, 69, 0
11, 22440, Note_on_c, 5, 68, 64
11, 22560, Note_off_c, 5, 68, 0
11, 22560, Note_on_c, 5, 66, 64
11, 22800, Note_off_c, 5, 66, 0
11, 22800, Note_on_c, 5, 65, 64
11, 23040, Note_off_c, 5, 65, 0
11, 23040, Note_on_c, 5, 66, 64
11, 23280, Note_off_c, 5, 66, 0
11, 23280, Note_on_c, 5, 73, 64
11, 23640, Note_off_c, 5, 73, 0
11, 23640, Note_on_c, 5, 71, 64
11, 23760, Note_off_c, 5, 71, 0
11, 23760, Note_on_c, 5, 69, 64
11, 23880, Note_off_c, 5, 69, 0
11, 23880, Note_on_c, 5, 68, 64
11, 24000, Note_off_c, 5, 68, 0
11, 24000, Note_on_c, 5, 69, 64
11, 24240, Note_off_c, 5, 69, 0
11, 24240, Note_on_c, 5, 68, 64
11, 24360, Note_off_c, 5, 68, 0
11, 24360, Note_on_c, 5, 66, 64
11, 24480, Note_off_c, 5, 66, 0
11, 24480, Note_on_c, 5, 68, 64
11, 26160, Note_off_c, 5, 68, 0
11, 26160, Note_on_c, 5, 66, 58
11, 26640, Note_off_c, 5, 66, 0
11, 26640, Note_on_c, 5, 65, 46
11, 26880, Note_off_c, 5, 65, 0
11, 26880, Note_on_c, 5, 66, 40
11, 27240, Note_off_c, 5, 66, 0
11, 27240, Note_on_c, 5, 66, 42
11, 27360, Note_off_c, 5, 66, 0
11, 27360, Note_on_c, 5, 64, 43
11, 27480, Note_off_c, 5, 64, 0
11, 27480, Note_on_c, 5, 66, 44
11, 27600, Note_off_c, 5, 66, 0
11, 27600, Note_on_c, 5, 68, 45
11, 27960, Note_off_c, 5, 68, 0
11, 27960, Note_on_c, 5, 66, 47
11, 28080, Note_off_c, 5, 66, 0
11, 28080, Note_on_c, 5, 68, 48
11, 28200, Note_off_c, 5, 68, 0
11, 28200, Note_on_c, 5, 70, 48
11, 28320, Note_off_c, 5, 70, 0
11, 28320, Note_on_c, 5, 71, 49
11, 28920, Note_off_c, 5, 71, 0
11, 28920, Note_on_c, 5, 69, 53
11, 29040, Note_off_c, 5, 69, 0
11, 29040, Note_on_c, 5, 68, 54
11, 29160, Note_off_c, 5, 68, 0
11, 29160, Note_on_c, 5, 66, 54
11, 29280, Note_off_c, 5, 66, 0
11, 29280, Note_on_c, 5, 65, 55
11, 29640, Note_off_c, 5, 65, 0
11, 29640, Note_on_c, 5, 66, 57
11, 29760, Note_off_c, 5, 66, 0
11, 29760, Note_on_c, 5, 68, 58
11, 30000, Note_off_c, 5, 68, 0
11, 30000, Note_on_c, 5, 66, 60
11, 30120, Note_off_c, 5, 66, 0
11, 30120, Note_on_c, 5, 62, 60
11, 30240, Note_off_c, 5, 62, 0
11, 30240, Note_on_c, 5, 61, 61
11, 30480, Note_off_c, 5, 61, 0
11, 30480, Note_on_c, 5, 61, 63
11, 30720, Note_off_c, 5, 61, 0
11, 30720, Note_on_c, 5, 61, 64
11, 30960, Note_off_c, 5, 61, 0
11, 31320, Note_on_c, 5, 71, 64
11, 31560, Note_off_c, 5, 71, 0
11, 31560, Note_on_c, 5, 69, 64
11, 31680, Note_off_c, 5, 69, 0
11, 31680, Note_on_c, 5, 68, 64
11, 31800, Note_off_c, 5, 68, 0
11, 31800, Note_on_c, 5, 64, 64
11, 31920, Note_off_c, 5, 64, 0
11, 31920, Note_on_c, 5, 66, 64
11, 32040, Note_off_c, 5, 66, 0
11, 32040, Note_on_c, 5, 68, 64
11, 32160, Note_off_c, 5, 68, 0
11, 32160, Note_on_c, 5, 69, 64
11, 32280, Note_off_c, 5, 69, 0
11, 32280, Note_on_c, 5, 67, 64
11, 32400, Note_off_c, 5, 67, 0
11, 32400, Note_on_c, 5, 66, 64
11, 32520, Note_off_c, 5, 66, 0
11, 32520, Note_on_c, 5, 64, 64
11, 32640, Note_off_c, 5, 64, 0
11, 32640, Note_on_c, 5, 62, 64
11, 33240, Note_off_c, 5, 62, 0
11, 33240, Note_on_c, 5, 64, 64
11, 33360, Note_off_c, 5, 64, 0
11, 33360, Note_on_c, 5, 66, 64
11, 33480, Note_off_c, 5, 66, 0
11, 33480, Note_on_c, 5, 67, 64
11, 33600, Note_off_c, 5, 67, 0
11, 33600, Note_on_c, 5, 66, 64
11, 33840, Note_off_c, 5, 66, 0
11, 34080, Note_on_c, 5, 66, 64
11, 34320, Note_off_c, 5, 66, 0
11, 34320, Note_on_c, 5, 67, 64
11, 34560, Note_off_c, 5, 67, 0
11, 34560, Note_on_c, 5, 65, 40
11, 34920, Note_off_c, 5, 65, 0
11, 34920, Note_on_c, 5, 66, 42
11, 35040, Note_off_c, 5, 66, 0
11, 35040, Note_on_c, 5, 68, 43
11, 35160, Note_off_c, 5, 68, 0
11, 35160, Note_on_c, 5, 66, 44
11, 35280, Note_off_c, 5, 66, 0
11, 35280, Note_on_c, 5, 68, 45
11, 35400, Note_off_c, 5, 68, 0
11, 35400, Note_on_c, 5, 69, 45
11, 35520, Note_off_c, 5, 69, 0
11, 35520, Note_on_c, 5, 71, 46
11, 35760, Note_off_c, 5, 71, 0
11, 35760, Note_on_c, 5, 69, 48
11, 35880, Note_off_c, 5, 69, 0
11, 35880, Note_on_c, 5, 68, 48
11, 36000, Note_off_c, 5, 68, 0
11, 36000, Note_on_c, 5, 69, 49
11, 36240, Note_off_c, 5, 69, 0
11, 36240, Note_on_c, 5, 68, 51
11, 36480, Note_off_c, 5, 68, 0
11, 36480, Note_on_c, 5, 66, 52
11, 36720, Note_off_c, 5, 66, 0
11, 36720, Note_on_c, 5, 73, 54
11, 37080, Note_off_c, 5, 73, 0
11, 37080, Note_on_c, 5, 66, 56
11, 37200, Note_off_c, 5, 66, 0
11, 37200, Note_on_c, 5, 68, 57
11, 37320, Note_off_c, 5, 68, 0
11, 37320, Note_on_c, 5, 69, 57
11, 37440, Note_off_c, 5, 69, 0
11, 37440, Note_on_c, 5, 71, 58
11, 38040, Note_off_c, 5, 71, 0
11, 38040, Note_on_c, 5, 64, 62
11, 38160, Note_off_c, 5, 64, 0
11, 38160, Note_on_c, 5, 66, 63
11, 38280, Note_off_c, 5, 66, 0
11, 38280, Note_on_c, 5, 67, 63
11, 38400, Note_off_c, 5, 67, 0
11, 38400, Note_on_c, 5, 69, 64
11, 39000, Note_off_c, 5, 69, 0
11, 39000, Note_on_c, 5, 62, 64
11, 39120, Note_off_c, 5, 62, 0
11, 39120, Note_on_c, 5, 67, 64
11, 39360, Note_off_c, 5, 67, 0
11, 39360, Note_on_c, 5, 66, 64
11, 39600, Note_off_c, 5, 66, 0
11, 39840, Note_on_c, 5, 68, 64
11, 40080, Note_off_c, 5, 68, 0
11, 40080, Note_on_c, 5, 69, 64
11, 40320, Note_off_c, 5, 69, 0
11, 40320, Note_on_c, 5, 71, 64
11, 40560, Note_off_c, 5, 71, 0
11, 40560, Note_on_c, 5, 66, 64
11, 40800, Note_off_c, 5, 66, 0
11, 40800, Note_on_c, 5, 66, 64
11, 41400, Note_off_c, 5, 66, 0
11, 41400, Note_on_c, 5, 73, 64
11, 41640, Note_off_c, 5, 73, 0
11, 41640, Note_on_c, 5, 71, 64
11, 41760, Note_off_c, 5, 71, 0
11, 41760, Note_on_c, 5, 70, 64
11, 41880, Note_off_c, 5, 70, 0
11, 41880, Note_on_c, 5, 66, 64
11, 42000, Note_off_c, 5, 66, 0
11, 42000, Note_on_c, 5, 68, 64
11, 42120, Note_off_c, 5, 68, 0
11, 42120, Note_on_c, 5, 70, 64
11, 42240, Note_off_c, 5, 70, 0
11, 42240, Note_on_c, 5, 71, 64
11, 42360, Note_off_c, 5, 71, 0
11, 42360, Note_on_c, 5, 69, 64
11, 42480, Note_off_c, 5, 69, 0
11, 42480, Note_on_c, 5, 68, 64
11, 42600, Note_off_c, 5, 68, 0
11, 42600, Note_on_c, 5, 66, 64
11, 42720, Note_off_c, 5, 66, 0
11, 42720, Note_on_c, 5, 64, 64
11, 43680, Note_off_c, 5, 64, 0
11, 43680, Note_on_c, 5, 62, 64
11, 44160, Note_off_c, 5, 62, 0
11, 44160, Note_on_c, 5, 61, 64
11, 44280, Note_off_c, 5, 61, 0
11, 44280, Note_on_c, 5, 65, 64
11, 44400, Note_off_c, 5, 65, 0
11, 44400, Note_on_c, 5, 66, 64
11, 44520, Note_off_c, 5, 66, 0
11, 44520, Note_on_c, 5, 68, 64
11, 44640, Note_off_c, 5, 68, 0
11, 44640, Note_on_c, 5, 69, 64
11, 44760, Note_off_c, 5, 69, 0
11, 44760, Note_on_c, 5, 66, 64
11, 44880, Note_off_c, 5, 66, 0
11, 44880, Note_on_c, 5, 72, 64
11, 45000, Note_off_c, 5, 72, 0
11, 45000, Note_on_c, 5, 73, 64
11, 45120, Note_off_c, 5, 73, 0
11, 45120, Note_on_c, 5, 75, 64
11, 45360, Note_off_c, 5, 75, 0
11, 45360, Note_on_c, 5, 68, 64
11, 45840, Note_off_c, 5, 68, 0
11, 45840, Note_on_c, 5, 68, 64
11, 46080, Note_off_c, 5, 68, 0
11, 46080, Note_on_c, 5, 68, 64
11, 46320, Note_off_c, 5, 68, 0
11, 46320, Note_on_c, 5, 73, 64
11, 46560, Note_off_c, 5, 73, 0
11, 46560, Note_on_c, 5, 66, 64
11, 46800, Note_off_c, 5, 66, 0
11, 46800, Note_on_c, 5, 68, 64
11, 46920, Note_off_c, 5, 68, 0
11, 46920, Note_on_c, 5, 70, 64
11, 47040, Note_off_c, 5, 70, 0
11, 47040, Note_on_c, 5, 71, 64
11, 47280, Note_off_c, 5, 71, 0
11, 47280, Note_on_c, 5, 73, 64
11, 47520, Note_off_c, 5, 73, 0
11, 47520, Note_on_c, 5, 66, 64
11, 47880, Note_off_c, 5, 66, 0
11, 47880, Note_on_c, 5, 59, 64
11, 48000, Note_off_c, 5, 59, 0
11, 48000, Note_on_c, 5, 71, 64
11, 48120, Note_off_c, 5, 71, 0
11, 48120, Note_on_c, 5, 68, 64
11, 48240, Note_off_c, 5, 68, 0
11, 48240, Note_on_c, 5, 69, 64
11, 48360, Note_off_c, 5, 69, 0
11, 48360, Note_on_c, 5, 71, 64
11, 48480, Note_off_c, 5, 71, 0
11, 48480, Note_on_c, 5, 73, 64
11, 48720, Note_off_c, 5, 73, 0
11, 48720, Note_on_c, 5, 71, 64
11, 48960, Note_off_c, 5, 71, 0
11, 48960, Note_on_c, 5, 69, 80
11, 49200, Note_off_c, 5, 69, 0
11, 49560, Note_on_c, 5, 75, 77
11, 49800, Note_off_c, 5, 75, 0
11, 49800, Note_on_c, 5, 73, 75
11, 49920, Note_off_c, 5, 73, 0
11, 49920, Note_on_c, 5, 72, 75
11, 50040, Note_off_c, 5, 72, 0
11, 50040, Note_on_c, 5, 68, 74
11, 50160, Note_off_c, 5, 68, 0
11, 50160, Note_on_c, 5, 70, 73
11, 50280, Note_off_c, 5, 70, 0
11, 50280, Note_on_c, 5, 72, 73
11, 50400, Note_off_c, 5, 72, 0
11, 50400, Note_on_c, 5, 73, 72
11, 50520, Note_off_c, 5, 73, 0
11, 50520, Note_on_c, 5, 71, 71
11, 50640, Note_off_c, 5, 71, 0
11, 50640, Note_on_c, 5, 70, 71
11, 50760, Note_off_c, 5, 70, 0
11, 50760, Note_on_c, 5, 68, 70
11, 50880, Note_off_c, 5, 68, 0
11, 50880, Note_on_c, 5, 66, 69
11, 51600, Note_off_c, 5, 66, 0
11, 51600, Note_on_c, 5, 65, 65
11, 51720, Note_off_c, 5, 65, 0
11, 51720, Note_on_c, 5, 66, 65
11, 51840, Note_off_c, 5, 66, 0
11, 51840, Note_on_c, 5, 68, 64
11, 52080, Note_off_c, 5, 68, 0
11, 52080, Note_on_c, 5, 66, 64
11, 52320, Note_off_c, 5, 66, 0
11, 52320, Note_on_c, 5, 71, 64
11, 52680, Note_off_c, 5, 71, 0
11, 52680, Note_on_c, 5, 69, 64
11, 52800, Note_off_c, 5, 69, 0
11, 52800, Note_on_c, 5, 68, 64
11, 53160, Note_off_c, 5, 68, 0
11, 53160, Note_on_c, 5, 69, 64
11, 53280, Note_off_c, 5, 69, 0
11, 53280, Note_on_c, 5, 63, 64
11, 53520, Note_off_c, 5, 63, 0
11, 53520, Note_on_c, 5, 68, 64
11, 53760, Note_off_c, 5, 68, 0
11, 53760, Note_on_c, 5, 66, 64
11, 53880, Note_off_c, 5, 66, 0
11, 53880, Note_on_c, 5, 68, 64
11, 54000, Note_off_c, 5, 68, 0
11, 54000, Note_on_c, 5, 69, 64
11, 54120, Note_off_c, 5, 69, 0
11, 54120, Note_on_c, 5, 71, 64
11, 54240, Note_off_c, 5, 71, 0
11, 54240, Note_on_c, 5, 64, 64
11, 54480, Note_off_c, 5, 64, 0
11, 54480, Note_on_c, 5, 71, 64
11, 54600, Note_off_c, 5, 71, 0
11, 54600, Note_on_c, 5, 71, 64
11, 54720, Note_off_c, 5, 71, 0
11, 54720, Note_on_c, 5, 73, 64
11, 54840, Note_off_c, 5, 73, 0
11, 54840, Note_on_c, 5, 66, 65
11, 55080, Note_off_c, 5, 66, 0
11, 55080, Note_on_c, 5, 65, 66
11, 55200, Note_off_c, 5, 65, 0
11, 55200, Note_on_c, 5, 66, 67
11, 55440, Note_off_c, 5, 66, 0
11, 55440, Note_on_c, 5, 66, 68
11, 55800, Note_off_c, 5, 66, 0
11, 55800, Note_on_c, 5, 66, 70
11, 55920, Note_off_c, 5, 66, 0
11, 55920, Note_on_c, 5, 65, 71
11, 56040, Note_off_c, 5, 65, 0
11, 56040, Note_on_c, 5, 66, 71
11, 56160, Note_off_c, 5, 66, 0
11, 56160, Note_on_c, 5, 68, 72
11, 56280, Note_off_c, 5, 68, 0
11, 56280, Note_on_c, 5, 71, 73
11, 56400, Note_off_c, 5, 71, 0
11, 56400, Note_on_c, 5, 69, 73
11, 56520, Note_off_c, 5, 69, 0
11, 56520, Note_on_c, 5, 68, 74
11, 56640, Note_off_c, 5, 68, 0
11, 56640, Note_on_c, 5, 66, 75
11, 56880, Note_off_c, 5, 66, 0
11, 56880, Note_on_c, 5, 65, 76
11, 57120, Note_off_c, 5, 65, 0
11, 57120, Note_on_c, 5, 61, 77
11, 57600, Note_off_c, 5, 61, 0
11, 57615, End_track
12, 0, Start_track
12, 0, Title_t, "Vln I"
12, 0, Program_c, 10, 48
12, 0, Control_c, 10, 7, 90
12, 11040, Note_on_c, 10, 73, 64
12, 11280, Note_off_c, 10, 73, 0
12, 11280, Note_on_c, 10, 74, 64
12, 11520, Note_off_c, 10, 74, 0
12, 11520, Note_on_c, 10, 72, 64
12, 11880, Note_off_c, 10, 72, 0
12, 11880, Note_on_c, 10, 73, 64
12, 12000, Note_off_c, 10, 73, 0
12, 12000, Note_on_c, 10, 75, 64
12, 12120, Note_off_c, 10, 75, 0
12, 12120, Note_on_c, 10, 73, 64
12, 12240, Note_off_c, 10, 73, 0
12, 12240, Note_on_c, 10, 75, 64
12, 12360, Note_off_c, 10, 75, 0
12, 12360, Note_on_c, 10, 76, 64
12, 12480, Note_off_c, 10, 76, 0
12, 12480, Note_on_c, 10, 78, 64
12, 12720, Note_off_c, 10, 78, 0
12, 12720, Note_on_c, 10, 76, 64
12, 12840, Note_off_c, 10, 76, 0
12, 12840, Note_on_c, 10, 75, 64
12, 12960, Note_off_c, 10, 75, 0
12, 12960, Note_on_c, 10, 76, 64
12, 13200, Note_off_c, 10, 76, 0
12, 13200, Note_on_c, 10, 75, 64
12, 13440, Note_off_c, 10, 75, 0
12, 13440, Note_on_c, 10, 73, 64
12, 13680, Note_off_c, 10, 73, 0
12, 13680, Note_on_c, 10, 76, 58
12, 14160, Note_off_c, 10, 76, 0
12, 14160, Note_on_c, 10, 74, 46
12, 14280, Note_off_c, 10, 74, 0
12, 14280, Note_on_c, 10, 73, 43
12, 14400, Note_off_c, 10, 73, 0
12, 14400, Note_on_c, 10, 71, 45
12, 14640, Note_off_c, 10, 71, 0
12, 14640, Note_on_c, 10, 70, 46
12, 14880, Note_off_c, 10, 70, 0
12, 14880, Note_on_c, 10, 71, 47
12, 15120, Note_off_c, 10, 71, 0
12, 15120, Note_on_c, 10, 78, 48
12, 15600, Note_off_c, 10, 78, 0
12, 15600, Note_on_c, 10, 76, 50
12, 15720, Note_off_c, 10, 76, 0
12, 15720, Note_on_c, 10, 75, 50
12, 15840, Note_off_c, 10, 75, 0
12, 15840, Note_on_c, 10, 73, 51
12, 16080, Note_off_c, 10, 73, 0
12, 16080, Note_on_c, 10, 72, 52
12, 16320, Note_off_c, 10, 72, 0
12, 16320, Note_on_c, 10, 73, 53
12, 16560, Note_off_c, 10, 73, 0
12, 16560, Note_on_c, 10, 73, 54
12, 16920, Note_off_c, 10, 73, 0
12, 16920, Note_on_c, 10, 71, 55
12, 17040, Note_off_c, 10, 71, 0
12, 17040, Note_on_c, 10, 69, 55
12, 17160, Note_off_c, 10, 69, 0
12, 17160, Note_on_c, 10, 68, 56
12, 17280, Note_off_c, 10, 68, 0
12, 17280, Note_on_c, 10, 69, 56
12, 17520, Note_off_c, 10, 69, 0
12, 17520, Note_on_c, 10, 68, 57
12, 17640, Note_off_c, 10, 68, 0
12, 17640, Note_on_c, 10, 69, 58
12, 17760, Note_off_c, 10, 69, 0
12, 17760, Note_on_c, 10, 71, 58
12, 18360, Note_off_c, 10, 71, 0
12, 18360, Note_on_c, 10, 73, 61
12, 18480, Note_off_c, 10, 73, 0
12, 18480, Note_on_c, 10, 74, 61
12, 18960, Note_off_c, 10, 74, 0
12, 18960, Note_on_c, 10, 73, 63
12, 19440, Note_off_c, 10, 73, 0
12, 19440, Note_on_c, 10, 78, 64
12, 19560, Note_off_c, 10, 78, 0
12, 19560, Note_on_c, 10, 76, 64
12, 19680, Note_off_c, 10, 76, 0
12, 19680, Note_on_c, 10, 74, 64
12, 19920, Note_off_c, 10, 74, 0
12, 19920, Note_on_c, 10, 73, 64
12, 20040, Note_off_c, 10, 73, 0
12, 20040, Note_on_c, 10, 71, 64
12, 20160, Note_off_c, 10, 71, 0
12, 20160, Note_on_c, 10, 69, 64
12, 20280, Note_off_c, 10, 69, 0
12, 20280, Note_on_c, 10, 71, 64
12, 20400, Note_off_c, 10, 71, 0
12, 20400, Note_on_c, 10, 73, 64
12, 20520, Note_off_c, 10, 73, 0
12, 20520, Note_on_c, 10, 66, 64
12, 20640, Note_off_c, 10, 66, 0
12, 20640, Note_on_c, 10, 75, 64
12, 20880, Note_off_c, 10, 75, 0
12, 20880, Note_on_c, 10, 76, 64
12, 21000, Note_off_c, 10, 76, 0
12, 21000, Note_on_c, 10, 78, 64
12, 21120, Note_off_c, 10, 78, 0
12, 21120, Note_on_c, 10, 79, 64
12, 21360, Note_off_c, 10, 79, 0
12, 21360, Note_on_c, 10, 78, 64
12, 21600, Note_off_c, 10, 78, 0
12, 21600, Note_on_c, 10, 76, 64
12, 21840, Note_off_c, 10, 76, 0
12, 21840, Note_on_c, 10, 74, 64
12, 22200, Note_off_c, 10, 74, 0
12, 22200, Note_on_c, 10, 73, 64
12, 22440, Note_off_c, 10, 73, 0
12, 22440, Note_on_c, 10, 71, 64
12, 22560, Note_off_c, 10, 71, 0
12, 22560, Note_on_c, 10, 69, 64
12, 22680, Note_off_c, 10, 69, 0
12, 22680, Note_on_c, 10, 71, 64
12, 22800, Note_off_c, 10, 71, 0
12, 22800, Note_on_c, 10, 73, 64
12, 22920, Note_off_c, 10, 73, 0
12, 22920, Note_on_c, 10, 74, 64
12, 23040, Note_off_c, 10, 74, 0
12, 23040, Note_on_c, 10, 76, 64
12, 23640, Note_off_c, 10, 76, 0
12, 23640, Note_on_c, 10, 74, 64
12, 23760, Note_off_c, 10, 74, 0
12, 23760, Note_on_c, 10, 74, 64
12, 24000, Note_off_c, 10, 74, 0
12, 24000, Note_on_c, 10, 73, 64
12, 24240, Note_off_c, 10, 73, 0
12, 24240, Note_on_c, 10, 71, 64
12, 24360, Note_off_c, 10, 71, 0
12, 24360, Note_on_c, 10, 69, 64
12, 24480, Note_off_c, 10, 69, 0
12, 24480, Note_on_c, 10, 75, 64
12, 24840, Note_off_c, 10, 75, 0
12, 24840, Note_on_c, 10, 76, 64
12, 24960, Note_off_c, 10, 76, 0
12, 24960, Note_on_c, 10, 78, 64
12, 25080, Note_off_c, 10, 78, 0
12, 25080, Note_on_c, 10, 76, 64
12, 25200, Note_off_c, 10, 76, 0
12, 25200, Note_on_c, 10, 75, 64
12, 25320, Note_off_c, 10, 75, 0
12, 25320, Note_on_c, 10, 73, 64
12, 25440, Note_off_c, 10, 73, 0
12, 25440, Note_on_c, 10, 72, 64
12, 25680, Note_off_c, 10, 72, 0
12, 25680, Note_on_c, 10, 73, 64
12, 25800, Note_off_c, 10, 73, 0
12, 25800, Note_on_c, 10, 75, 64
12, 25920, Note_off_c, 10, 75, 0
12, 25920, Note_on_c, 10, 68, 64
12, 26040, Note_off_c, 10, 68, 0
12, 26040, Note_on_c, 10, 73, 61
12, 26280, Note_off_c, 10, 73, 0
12, 26280, Note_on_c, 10, 72, 55
12, 26400, Note_off_c, 10, 72, 0
12, 26400, Note_on_c, 10, 73, 52
12, 26520, Note_off_c, 10, 73, 0
12, 26520, Note_on_c, 10, 71, 49
12, 26640, Note_off_c, 10, 71, 0
12, 26640, Note_on_c, 10, 69, 46
12, 26760, Note_off_c, 10, 69, 0
12, 26760, Note_on_c, 10, 68, 43
12, 26880, Note_off_c, 10, 68, 0
12, 26880, Note_on_c, 10, 66, 40
12, 27000, Note_off_c, 10, 66, 0
12, 27000, Note_on_c, 10, 68, 41
12, 27120, Note_off_c, 10, 68, 0
12, 27120, Note_on_c, 10, 69, 42
12, 27360, Note_off_c, 10, 69, 0
12, 27360, Note_on_c, 10, 68, 43
12, 27480, Note_off_c, 10, 68, 0
12, 27480, Note_on_c, 10, 69, 44
12, 27600, Note_off_c, 10, 69, 0
12, 27600, Note_on_c, 10, 71, 45
12, 27960, Note_off_c, 10, 71, 0
12, 27960, Note_on_c, 10, 69, 47
12, 28080, Note_off_c, 10, 69, 0
12, 28080, Note_on_c, 10, 71, 48
12, 28200, Note_off_c, 10, 71, 0
12, 28200, Note_on_c, 10, 73, 48
12, 28320, Note_off_c, 10, 73, 0
12, 28320, Note_on_c, 10, 74, 49
12, 28920, Note_off_c, 10, 74, 0
12, 28920, Note_on_c, 10, 73, 53
12, 29040, Note_off_c, 10, 73, 0
12, 29040, Note_on_c, 10, 71, 54
12, 29160, Note_off_c, 10, 71, 0
12, 29160, Note_on_c, 10, 69, 54
12, 29280, Note_off_c, 10, 69, 0
12, 29280, Note_on_c, 10, 71, 55
12, 29400, Note_off_c, 10, 71, 0
12, 29400, Note_on_c, 10, 69, 56
12, 29520, Note_off_c, 10, 69, 0
12, 29520, Note_on_c, 10, 68, 57
12, 29640, Note_off_c, 10, 68, 0
12, 29640, Note_on_c, 10, 66, 57
12, 29760, Note_off_c, 10, 66, 0
12, 29760, Note_on_c, 10, 65, 58
12, 30000, Note_off_c, 10, 65, 0
12, 30000, Note_on_c, 10, 66, 60
12, 30480, Note_off_c, 10, 66, 0
12, 30480, Note_on_c, 10, 65, 63
12, 30720, Note_off_c, 10, 65, 0
12, 30720, Note_on_c, 10, 66, 64
12, 30960, Note_off_c, 10, 66, 0
12, 31800, Note_on_c, 10, 76, 64
12, 32040, Note_off_c, 10, 76, 0
12, 32040, Note_on_c, 10, 74, 64
12, 32160, Note_off_c, 10, 74, 0
12, 32160, Note_on_c, 10, 73, 64
12, 32280, Note_off_c, 10, 73, 0
12, 32280, Note_on_c, 10, 69, 64
12, 32400, Note_off_c, 10, 69, 0
12, 32400, Note_on_c, 10, 71, 64
12, 32520, Note_off_c, 10, 71, 0
12, 32520, Note_on_c, 10, 73, 64
12, 32640, Note_off_c, 10, 73, 0
12, 32640, Note_on_c, 10, 74, 64
12, 32760, Note_off_c, 10, 74, 0
12, 32760, Note_on_c, 10, 73, 64
12, 32880, Note_off_c, 10, 73, 0
12, 32880, Note_on_c, 10, 71, 64
12, 33000, Note_off_c, 10, 71, 0
12, 33000, Note_on_c, 10, 70, 64
12, 33120, Note_off_c, 10, 70, 0
12, 33120, Note_on_c, 10, 71, 64
12, 33240, Note_off_c, 10, 71, 0
12, 33240, Note_on_c, 10, 76, 64
12, 33360, Note_off_c, 10, 76, 0
12, 33360, Note_on_c, 10, 74, 64
12, 33480, Note_off_c, 10, 74, 0
12, 33480, Note_on_c, 10, 73, 64
12, 33600, Note_off_c, 10, 73, 0
12, 33600, Note_on_c, 10, 74, 64
12, 33840, Note_off_c, 10, 74, 0
12, 33840, Note_on_c, 10, 73, 64
12, 34080, Note_off_c, 10, 73, 0
12, 34080, Note_on_c, 10, 71, 64
12, 34320, Note_off_c, 10, 71, 0
12, 38880, Note_on_c, 10, 71, 64
12, 39120, Note_off_c, 10, 71, 0
12, 39120, Note_on_c, 10, 72, 64
12, 39360, Note_off_c, 10, 72, 0
12, 39360, Note_on_c, 10, 70, 64
12, 39720, Note_off_c, 10, 70, 0
12, 39720, Note_on_c, 10, 71, 64
12, 39840, Note_off_c, 10, 71, 0
12, 39840, Note_on_c, 10, 73, 64
12, 39960, Note_off_c, 10, 73, 0
12, 39960, Note_on_c, 10, 71, 64
12, 40080, Note_off_c, 10, 71, 0
12, 40080, Note_on_c, 10, 73, 64
12, 40200, Note_off_c, 10, 73, 0
12, 40200, Note_on_c, 10, 74, 64
12, 40320, Note_off_c, 10, 74, 0
12, 40320, Note_on_c, 10, 76, 64
12, 40560, Note_off_c, 10, 76, 0
12, 40560, Note_on_c, 10, 74, 64
12, 40680, Note_off_c, 10, 74, 0
12, 40680, Note_on_c, 10, 73, 64
12, 40800, Note_off_c, 10, 73, 0
12, 40800, Note_on_c, 10, 74, 64
12, 41040, Note_off_c, 10, 74, 0
12, 41040, Note_on_c, 10, 73, 64
12, 41280, Note_off_c, 10, 73, 0
12, 41280, Note_on_c, 10, 71, 64
12, 41400, Note_off_c, 10, 71, 0
12, 41880, Note_on_c, 10, 78, 64
12, 42120, Note_off_c, 10, 78, 0
12, 42120, Note_on_c, 10, 76, 64
12, 42240, Note_off_c, 10, 76, 0
12, 42240, Note_on_c, 10, 75, 64
12, 42360, Note_off_c, 10, 75, 0
12, 42360, Note_on_c, 10, 71, 64
12, 42480, Note_off_c, 10, 71, 0
12, 42480, Note_on_c, 10, 73, 64
12, 42600, Note_off_c, 10, 73, 0
12, 42600, Note_on_c, 10, 75, 64
12, 42720, Note_off_c, 10, 75, 0
12, 42720, Note_on_c, 10, 76, 64
12, 42840, Note_off_c, 10, 76, 0
12, 42840, Note_on_c, 10, 74, 64
12, 42960, Note_off_c, 10, 74, 0
12, 42960, Note_on_c, 10, 73, 64
12, 43080, Note_off_c, 10, 73, 0
12, 43080, Note_on_c, 10, 71, 64
12, 43200, Note_off_c, 10, 71, 0
12, 43200, Note_on_c, 10, 73, 64
12, 43800, Note_off_c, 10, 73, 0
12, 43800, Note_on_c, 10, 66, 64
12, 43920, Note_off_c, 10, 66, 0
12, 43920, Note_on_c, 10, 71, 64
12, 44280, Note_off_c, 10, 71, 0
12, 44280, Note_on_c, 10, 74, 64
12, 44400, Note_off_c, 10, 74, 0
12, 44400, Note_on_c, 10, 73, 64
12, 44520, Note_off_c, 10, 73, 0
12, 44520, Note_on_c, 10, 71, 64
12, 44640, Note_off_c, 10, 71, 0
12, 44640, Note_on_c, 10, 69, 64
12, 44760, Note_off_c, 10, 69, 0
12, 44760, Note_on_c, 10, 73, 64
12, 44880, Note_off_c, 10, 73, 0
12, 44880, Note_on_c, 10, 78, 64
12, 45240, Note_off_c, 10, 78, 0
12, 45240, Note_on_c, 10, 75, 64
12, 45360, Note_off_c, 10, 75, 0
12, 45360, Note_on_c, 10, 76, 64
12, 45480, Note_off_c, 10, 76, 0
12, 45480, Note_on_c, 10, 73, 64
12, 45720, Note_off_c, 10, 73, 0
12, 45720, Note_on_c, 10, 70, 64
12, 45840, Note_off_c, 10, 70, 0
12, 45840, Note_on_c, 10, 72, 64
12, 46080, Note_off_c, 10, 72, 0
12, 46080, Note_on_c, 10, 73, 64
12, 46320, Note_off_c, 10, 73, 0
12, 46320, Note_on_c, 10, 76, 64
12, 46800, Note_off_c, 10, 76, 0
12, 46800, Note_on_c, 10, 74, 64
12, 46920, Note_off_c, 10, 74, 0
12, 46920, Note_on_c, 10, 73, 64
12, 47040, Note_off_c, 10, 73, 0
12, 47040, Note_on_c, 10, 71, 64
12, 47280, Note_off_c, 10, 71, 0
12, 47280, Note_on_c, 10, 70, 64
12, 47520, Note_off_c, 10, 70, 0
12, 47520, Note_on_c, 10, 71, 64
12, 47760, Note_off_c, 10, 71, 0
12, 47760, Note_on_c, 10, 74, 64
12, 48240, Note_off_c, 10, 74, 0
12, 48240, Note_on_c, 10, 73, 64
12, 48360, Note_off_c, 10, 73, 0
12, 48360, Note_on_c, 10, 71, 64
12, 48480, Note_off_c, 10, 71, 0
12, 48480, Note_on_c, 10, 69, 64
12, 48720, Note_off_c, 10, 69, 0
12, 48720, Note_on_c, 10, 68, 64
12, 48960, Note_off_c, 10, 68, 0
12, 48960, Note_on_c, 10, 69, 80
12, 49080, Note_off_c, 10, 69, 0
12, 49080, Note_on_c, 10, 81, 79
12, 49320, Note_off_c, 10, 81, 0
12, 49320, Note_on_c, 10, 80, 78
12, 49440, Note_off_c, 10, 80, 0
12, 49440, Note_on_c, 10, 79, 77
12, 49560, Note_off_c, 10, 79, 0
12, 49560, Note_on_c, 10, 75, 77
12, 49680, Note_off_c, 10, 75, 0
12, 49680, Note_on_c, 10, 77, 76
12, 49800, Note_off_c, 10, 77, 0
12, 49800, Note_on_c, 10, 79, 75
12, 49920, Note_off_c, 10, 79, 0
12, 49920, Note_on_c, 10, 80, 75
12, 50040, Note_off_c, 10, 80, 0
12, 50040, Note_on_c, 10, 78, 74
12, 50160, Note_off_c, 10, 78, 0
12, 50160, Note_on_c, 10, 77, 73
12, 50280, Note_off_c, 10, 77, 0
12, 50280, Note_on_c, 10, 75, 73
12, 50400, Note_off_c, 10, 75, 0
12, 50400, Note_on_c, 10, 73, 72
12, 51000, Note_off_c, 10, 73, 0
12, 51000, Note_on_c, 10, 78, 69
12, 51240, Note_off_c, 10, 78, 0
12, 51240, Note_on_c, 10, 76, 67
12, 51360, Note_off_c, 10, 76, 0
12, 51360, Note_on_c, 10, 75, 67
12, 51600, Note_off_c, 10, 75, 0
12, 51600, Note_on_c, 10, 74, 65
12, 51840, Note_off_c, 10, 74, 0
12, 51840, Note_on_c, 10, 73, 64
12, 52080, Note_off_c, 10, 73, 0
12, 52080, Note_on_c, 10, 73, 64
12, 52320, Note_off_c, 10, 73, 0
12, 52320, Note_on_c, 10, 69, 64
12, 52560, Note_off_c, 10, 69, 0
12, 52800, Note_on_c, 10, 73, 64
12, 53040, Note_off_c, 10, 73, 0
12, 53040, Note_on_c, 10, 74, 64
12, 53280, Note_off_c, 10, 74, 0
12, 53280, Note_on_c, 10, 72, 64
12, 53640, Note_off_c, 10, 72, 0
12, 53640, Note_on_c, 10, 73, 64
12, 53760, Note_off_c, 10, 73, 0
12, 53760, Note_on_c, 10, 75, 64
12, 53880, Note_off_c, 10, 75, 0
12, 53880, Note_on_c, 10, 73, 64
12, 54000, Note_off_c, 10, 73, 0
12, 54000, Note_on_c, 10, 75, 64
12, 54120, Note_off_c, 10, 75, 0
12, 54120, Note_on_c, 10, 77, 64
12, 54240, Note_off_c, 10, 77, 0
12, 54240, Note_on_c, 10, 78, 64
12, 54480, Note_off_c, 10, 78, 0
12, 54480, Note_on_c, 10, 76, 64
12, 54600, Note_off_c, 10, 76, 0
12, 54600, Note_on_c, 10, 75, 64
12, 54720, Note_off_c, 10, 75, 0
12, 54720, Note_on_c, 10, 76, 64
12, 54960, Note_off_c, 10, 76, 0
12, 54960, Note_on_c, 10, 74, 65
12, 55200, Note_off_c, 10, 74, 0
12, 55200, Note_on_c, 10, 73, 67
12, 55440, Note_off_c, 10, 73, 0
12, 55440, Note_on_c, 10, 73, 68
12, 55800, Note_off_c, 10, 73, 0
12, 55800, Note_on_c, 10, 66, 70
12, 55920, Note_off_c, 10, 66, 0
12, 55920, Note_on_c, 10, 68, 71
12, 56040, Note_off_c, 10, 68, 0
12, 56040, Note_on_c, 10, 69, 71
12, 56160, Note_off_c, 10, 69, 0
12, 56160, Note_on_c, 10, 71, 72
12, 56280, Note_off_c, 10, 71, 0
12, 56280, Note_on_c, 10, 74, 73
12, 56400, Note_off_c, 10, 74, 0
12, 56400, Note_on_c, 10, 73, 73
12, 56520, Note_off_c, 10, 73, 0
12, 56520, Note_on_c, 10, 71, 74
12, 56640, Note_off_c, 10, 71, 0
12, 56640, Note_on_c, 10, 69, 75
12, 56880, Note_off_c, 10, 69, 0
12, 56880, Note_on_c, 10, 68, 76
12, 57120, Note_off_c, 10, 68, 0
12, 57120, Note_on_c, 10, 66, 77
12, 57600, Note_off_c, 10, 66, 0
12, 57615, End_track
13, 0, Start_track
13, 0, Title_t, "Vln II"
13, 0, Program_c, 11, 48
13, 0, Control_c, 11, 7, 90
13, 8640, Note_on_c, 11, 66, 64
13, 8880, Note_off_c, 11, 66, 0
13, 8880, Note_on_c, 11, 67, 64
13, 9120, Note_off_c, 11, 67, 0
13, 9120, Note_on_c, 11, 65, 64
13, 9480, Note_off_c, 11, 65, 0
13, 9480, Note_on_c, 11, 66, 64
13, 9600, Note_off_c, 11, 66, 0
13, 9600, Note_on_c, 11, 68, 64
13, 9720, Note_off_c, 11, 68, 0
13, 9720, Note_on_c, 11, 66, 64
13, 9840, Note_off_c, 11, 66, 0
13, 9840, Note_on_c, 11, 68, 64
13, 9960, Note_off_c, 11, 68, 0
13, 9960, Note_on_c, 11, 69, 64
13, 10080, Note_off_c, 11, 69, 0
13, 10080, Note_on_c, 11, 71, 64
13, 10320, Note_off_c, 11, 71, 0
13, 10320, Note_on_c, 11, 69, 64
13, 10440, Note_off_c, 11, 69, 0
13, 10440, Note_on_c, 11, 68, 64
13, 10560, Note_off_c, 11, 68, 0
13, 10560, Note_on_c, 11, 69, 64
13, 10800, Note_off_c, 11, 69, 0
13, 10800, Note_on_c, 11, 68, 64
13, 11040, Note_off_c, 11, 68, 0
13, 11040, Note_on_c, 11, 66, 64
13, 11280, Note_off_c, 11, 66, 0
13, 11280, Note_on_c, 11, 66, 64
13, 11640, Note_off_c, 11, 66, 0
13, 11640, Note_on_c, 11, 63, 64
13, 11760, Note_off_c, 11, 63, 0
13, 11760, Note_on_c, 11, 64, 64
13, 11880, Note_off_c, 11, 64, 0
13, 11880, Note_on_c, 11, 61, 64
13, 12000, Note_off_c, 11, 61, 0
13, 12000, Note_on_c, 11, 60, 64
13, 12030, Note_off_c, 11, 60, 0
13, 12030, Note_on_c, 11, 61, 64
13, 12060, Note_off_c, 11, 61, 0
13, 12060, Note_on_c, 11, 60, 64
13, 12090, Note_off_c, 11, 60, 0
13, 12090, Note_on_c, 11, 61, 64
13, 12120, Note_off_c, 11, 61, 0
13, 12120, Note_on_c, 11, 60, 64
13, 12150, Note_off_c, 11, 60, 0
13, 12150, Note_on_c, 11, 61, 64
13, 12180, Note_off_c, 11, 61, 0
13, 12180, Note_on_c, 11, 60, 64
13, 12210, Note_off_c, 11, 60, 0
13, 12210, Note_on_c, 11, 61, 64
13, 12240, Note_off_c, 11, 61, 0
13, 12240, Note_on_c, 11, 60, 64
13, 12270, Note_off_c, 11, 60, 0
13, 12270, Note_on_c, 11, 61, 64
13, 12300, Note_off_c, 11, 61, 0
13, 12300, Note_on_c, 11, 60, 64
13, 12330, Note_off_c, 11, 60, 0
13, 12330, Note_on_c, 11, 61, 64
13, 12360, Note_off_c, 11, 61, 0
13, 12360, Note_on_c, 11, 61, 64
13, 12480, Note_off_c, 11, 61, 0
13, 12480, Note_on_c, 11, 61, 64
13, 12720, Note_off_c, 11, 61, 0
13, 12720, Note_on_c, 11, 73, 64
13, 13200, Note_off_c, 11, 73, 0
13, 13200, Note_on_c, 11, 72, 64
13, 13440, Note_off_c, 11, 72, 0
13, 13440, Note_on_c, 11, 73, 64
13, 13800, Note_off_c, 11, 73, 0
13, 13800, Note_on_c, 11, 68, 55
13, 13920, Note_off_c, 11, 68, 0
13, 13920, Note_on_c, 11, 73, 52
13, 14040, Note_off_c, 11, 73, 0
13, 14040, Note_on_c, 11, 70, 49
13, 14160, Note_off_c, 11, 70, 0
13, 14160, Note_on_c, 11, 71, 46
13, 14280, Note_off_c, 11, 71, 0
13, 14280, Note_on_c, 11, 73, 43
13, 14400, Note_off_c, 11, 73, 0
13, 14400, Note_on_c, 11, 74, 45
13, 14640, Note_off_c, 11, 74, 0
13, 14640, Note_on_c, 11, 73, 46
13, 14880, Note_off_c, 11, 73, 0
13, 14880, Note_on_c, 11, 71, 47
13, 15120, Note_off_c, 11, 71, 0
13, 15120, Note_on_c, 11, 66, 48
13, 15360, Note_off_c, 11, 66, 0
13, 15360, Note_on_c, 11, 68, 49
13, 16080, Note_off_c, 11, 68, 0
13, 16080, Note_on_c, 11, 68, 52
13, 16440, Note_off_c, 11, 68, 0
13, 16440, Note_on_c, 11, 66, 53
13, 16680, Note_off_c, 11, 66, 0
13, 16680, Note_on_c, 11, 64, 54
13, 16800, Note_off_c, 11, 64, 0
13, 16800, Note_on_c, 11, 63, 55
13, 16920, Note_off_c, 11, 63, 0
13, 16920, Note_on_c, 11, 65, 55
13, 17040, Note_off_c, 11, 65, 0
13, 17040, Note_on_c, 11, 66, 55
13, 17520, Note_off_c, 11, 66, 0
13, 17520, Note_on_c, 11, 65, 57
13, 17760, Note_off_c, 11, 65, 0
13, 17760, Note_on_c, 11, 66, 58
13, 18000, Note_off_c, 11, 66, 0
13, 18000, Note_on_c, 11, 67, 59
13, 18240, Note_off_c, 11, 67, 0
13, 18240, Note_on_c, 11, 65, 60
13, 18600, Note_off_c, 11, 65, 0
13, 18600, Note_on_c, 11, 66, 62
13, 18720, Note_off_c, 11, 66, 0
13, 18720, Note_on_c, 11, 68, 62
13, 18840, Note_off_c, 11, 68, 0
13, 18840, Note_on_c, 11, 66, 63
13, 18960, Note_off_c, 11, 66, 0
13, 18960, Note_on_c, 11, 68, 63
13, 19080, Note_off_c, 11, 68, 0
13, 19080, Note_on_c, 11, 69, 64
13, 19200, Note_off_c, 11, 69, 0
13, 19200, Note_on_c, 11, 71, 64
13, 19440, Note_off_c, 11, 71, 0
13, 19440, Note_on_c, 11, 69, 64
13, 19560, Note_off_c, 11, 69, 0
13, 19560, Note_on_c, 11, 68, 64
13, 19680, Note_off_c, 11, 68, 0
13, 19680, Note_on_c, 11, 69, 64
13, 19920, Note_off_c, 11, 69, 0
13, 19920, Note_on_c, 11, 68, 64
13, 20160, Note_off_c, 11, 68, 0
13, 20160, Note_on_c, 11, 66, 64
13, 20400, Note_off_c, 11, 66, 0
13, 20400, Note_on_c, 11, 69, 64
13, 20880, Note_off_c, 11, 69, 0
13, 20880, Note_on_c, 11, 67, 64
13, 21000, Note_off_c, 11, 67, 0
13, 21000, Note_on_c, 11, 66, 64
13, 21120, Note_off_c, 11, 66, 0
13, 21120, Note_on_c, 11, 64, 64
13, 21360, Note_off_c, 11, 64, 0
13, 21360, Note_on_c, 11, 63, 64
13, 21600, Note_off_c, 11, 63, 0
13, 21600, Note_on_c, 11, 64, 64
13, 21840, Note_off_c, 11, 64, 0
13, 21840, Note_on_c, 11, 71, 64
13, 22320, Note_off_c, 11, 71, 0
13, 22320, Note_on_c, 11, 69, 64
13, 22440, Note_off_c, 11, 69, 0
13, 22440, Note_on_c, 11, 68, 64
13, 22560, Note_off_c, 11, 68, 0
13, 22560, Note_on_c, 11, 66, 64
13, 22800, Note_off_c, 11, 66, 0
13, 22800, Note_on_c, 11, 65, 64
13, 23040, Note_off_c, 11, 65, 0
13, 23040, Note_on_c, 11, 66, 64
13, 23280, Note_off_c, 11, 66, 0
13, 23280, Note_on_c, 11, 73, 64
13, 23640, Note_off_c, 11, 73, 0
13, 23640, Note_on_c, 11, 71, 64
13, 23760, Note_off_c, 11, 71, 0
13, 23760, Note_on_c, 11, 69, 64
13, 23880, Note_off_c, 11, 69, 0
13, 23880, Note_on_c, 11, 68, 64
13, 24000, Note_off_c, 11, 68, 0
13, 24000, Note_on_c, 11, 69, 64
13, 24240, Note_off_c, 11, 69, 0
13, 24240, Note_on_c, 11, 68, 64
13, 24360, Note_off_c, 11, 68, 0
13, 24360, Note_on_c, 11, 66, 64
13, 24480, Note_off_c, 11, 66, 0
13, 24480, Note_on_c, 11, 68, 64
13, 26160, Note_off_c, 11, 68, 0
13, 26160, Note_on_c, 11, 66, 58
13, 26640, Note_off_c, 11, 66, 0
13, 26640, Note_on_c, 11, 65, 46
13, 26880, Note_off_c, 11, 65, 0
13, 26880, Note_on_c, 11, 66, 40
13, 27240, Note_off_c, 11, 66, 0
13, 27240, Note_on_c, 11, 66, 42
13, 27360, Note_off_c, 11, 66, 0
13, 27360, Note_on_c, 11, 64, 43
13, 27480, Note_off_c, 11, 64, 0
13, 27480, Note_on_c, 11, 66, 44
13, 27600, Note_off_c, 11, 66, 0
13, 27600, Note_on_c, 11, 68, 45
13, 27960, Note_off_c, 11, 68, 0
13, 27960, Note_on_c, 11, 66, 47
13, 28080, Note_off_c, 11, 66, 0
13, 28080, Note_on_c, 11, 68, 48
13, 28200, Note_off_c, 11, 68, 0
13, 28200, Note_on_c, 11, 70, 48
13, 28320, Note_off_c, 11, 70, 0
13, 28320, Note_on_c, 11, 71, 49
13, 28920, Note_off_c, 11, 71, 0
13, 28920, Note_on_c, 11, 69, 53
13, 29040, Note_off_c, 11, 69, 0
13, 29040, Note_on_c, 11, 68, 54
13, 29160, Note_off_c, 11, 68, 0
13, 29160, Note_on_c, 11, 66, 54
13, 29280, Note_off_c, 11, 66, 0
13, 29280, Note_on_c, 11, 65, 55
13, 29640, Note_off_c, 11, 65, 0
13, 29640, Note_on_c, 11, 66, 57
13, 29760, Note_off_c, 11, 66, 0
13, 29760, Note_on_c, 11, 68, 58
13, 30000, Note_off_c, 11, 68, 0
13, 30000, Note_on_c, 11, 66, 60
13, 30120, Note_off_c, 11, 66, 0
13, 30120, Note_on_c, 11, 62, 60
13, 30240, Note_off_c, 11, 62, 0
13, 30240, Note_on_c, 11, 61, 61
13, 30480, Note_off_c, 11, 61, 0
13, 30480, Note_on_c, 11, 61, 63
13, 30720, Note_off_c, 11, 61, 0
13, 30720, Note_on_c, 11, 61, 64
13, 30960, Note_off_c, 11, 61, 0
13, 31320, Note_on_c, 11, 71, 64
13, 31560, Note_off_c, 11, 71, 0
13, 31560, Note_on_c, 11, 69, 64
13, 31680, Note_off_c, 11, 69, 0
13, 31680, Note_on_c, 11, 68, 64
13, 31800, Note_off_c, 11, 68, 0
13, 31800, Note_on_c, 11, 64, 64
13, 31920, Note_off_c, 11, 64, 0
13, 31920, Note_on_c, 11, 66, 64
13, 32040, Note_off_c, 11, 66, 0
13, 32040, Note_on_c, 11, 68, 64
13, 32160, Note_off_c, 11, 68, 0
13, 32160, Note_on_c, 11, 69, 64
13, 32280, Note_off_c, 11, 69, 0
13, 32280, Note_on_c, 11, 67, 64
13, 32400, Note_off_c, 11, 67, 0
13, 32400, Note_on_c, 11, 66, 64
13, 32520, Note_off_c, 11, 66, 0
13, 32520, Note_on_c, 11, 64, 64
13, 32640, Note_off_c, 11, 64, 0
13, 32640, Note_on_c, 11, 62, 64
13, 33240, Note_off_c, 11, 62, 0
13, 33240, Note_on_c, 11, 64, 64
13, 33360, Note_off_c, 11, 64, 0
13, 33360, Note_on_c, 11, 66, 64
13, 33480, Note_off_c, 11, 66, 0
13, 33480, Note_on_c, 11, 67, 64
13, 33600, Note_off_c, 11, 67, 0
13, 33600, Note_on_c, 11, 66, 64
13, 33840, Note_off_c, 11, 66, 0
13, 34080, Note_on_c, 11, 66, 64
13, 34320, Note_off_c, 11, 66, 0
13, 34320, Note_on_c, 11, 67, 64
13, 34560, Note_off_c, 11, 67, 0
13, 34560, Note_on_c, 11, 65, 40
13, 34920, Note_off_c, 11, 65, 0
13, 34920, Note_on_c, 11, 66, 42
13, 35040, Note_off_c, 11, 66, 0
13, 35040, Note_on_c, 11, 68, 43
13, 35160, Note_off_c, 11, 68, 0
13, 35160, Note_on_c, 11, 66, 44
13, 35280, Note_off_c, 11, 66, 0
13, 35280, Note_on_c, 11, 68, 45
13, 35400, Note_off_c, 11, 68, 0
13, 35400, Note_on_c, 11, 69, 45
13, 35520, Note_off_c, 11, 69, 0
13, 35520, Note_on_c, 11, 71, 46
13, 35760, Note_off_c, 11, 71, 0
13, 35760, Note_on_c, 11, 69, 48
13, 35880, Note_off_c, 11, 69, 0
13, 35880, Note_on_c, 11, 68, 48
13, 36000, Note_off_c, 11, 68, 0
13, 36000, Note_on_c, 11, 69, 49
13, 36240, Note_off_c, 11, 69, 0
13, 36240, Note_on_c, 11, 68, 51
13, 36480, Note_off_c, 11, 68, 0
13, 36480, Note_on_c, 11, 66, 52
13, 36720, Note_off_c, 11, 66, 0
13, 36720, Note_on_c, 11, 73, 54
13, 37080, Note_off_c, 11, 73, 0
13, 37080, Note_on_c, 11, 66, 56
13, 37200, Note_off_c, 11, 66, 0
13, 37200, Note_on_c, 11, 68, 57
13, 37320, Note_off_c, 11, 68, 0
13, 37320, Note_on_c, 11, 69, 57
13, 37440, Note_off_c, 11, 69, 0
13, 37440, Note_on_c, 11, 71, 58
13, 38040, Note_off_c, 11, 71, 0
13, 38040, Note_on_c, 11, 64, 62
13, 38160, Note_off_c, 11, 64, 0
13, 38160, Note_on_c, 11, 66, 63
13, 38280, Note_off_c, 11, 66, 0
13, 38280, Note_on_c, 11, 67, 63
13, 38400, Note_off_c, 11, 67, 0
13, 38400, Note_on_c, 11, 69, 64
13, 39000, Note_off_c, 11, 69, 0
13, 39000, Note_on_c, 11, 62, 64
13, 39120, Note_off_c, 11, 62, 0
13, 39120, Note_on_c, 11, 67, 64
13, 39360, Note_off_c, 11, 67, 0
13, 39360, Note_on_c, 11, 66, 64
13, 39600, Note_off_c, 11, 66, 0
13, 39840, Note_on_c, 11, 68, 64
13, 40080, Note_off_c, 11, 68, 0
13, 40080, Note_on_c, 11, 69, 64
13, 40320, Note_off_c, 11, 69, 0
13, 40320, Note_on_c, 11, 71, 64
13, 40560, Note_off_c, 11, 71, 0
13, 40560, Note_on_c, 11, 66, 64
13, 40800, Note_off_c, 11, 66, 0
13, 40800, Note_on_c, 11, 66, 64
13, 41400, Note_off_c, 11, 66, 0
13, 41400, Note_on_c, 11, 73, 64
13, 41640, Note_off_c, 11, 73, 0
13, 41640, Note_on_c, 11, 71, 64
13, 41760, Note_off_c, 11, 71, 0
13, 41760, Note_on_c, 11, 70, 64
13, 41880, Note_off_c, 11, 70, 0
13, 41880, Note_on_c, 11, 66, 64
13, 42000, Note_off_c, 11, 66, 0
13, 42000, Note_on_c, 11, 68, 64
13, 42120, Note_off_c, 11, 68, 0
13, 42120, Note_on_c, 11, 70, 64
13, 42240, Note_off_c, 11, 70, 0
13, 42240, Note_on_c, 11, 71, 64
13, 42360, Note_off_c, 11, 71, 0
13, 42360, Note_on_c, 11, 69, 64
13, 42480, Note_off_c, 11, 69, 0
13, 42480, Note_on_c, 11, 68, 64
13, 42600, Note_off_c, 11, 68, 0
13, 42600, Note_on_c, 11, 66, 64
13, 42720, Note_off_c, 11, 66, 0
13, 42720, Note_on_c, 11, 64, 64
13, 43680, Note_off_c, 11, 64, 0
13, 43680, Note_on_c, 11, 62, 64
13, 44160, Note_off_c, 11, 62, 0
13, 44160, Note_on_c, 11, 61, 64
13, 44280, Note_off_c, 11, 61, 0
13, 44280, Note_on_c, 11, 65, 64
13, 44400, Note_off_c, 11, 65, 0
13, 44400, Note_on_c, 11, 66, 64
13, 44520, Note_off_c, 11, 66, 0
13, 44520, Note_on_c, 11, 68, 64
13, 44640, Note_off_c, 11, 68, 0
13, 44640, Note_on_c, 11, 69, 64
13, 44760, Note_off_c, 11, 69, 0
13, 44760, Note_on_c, 11, 66, 64
13, 44880, Note_off_c, 11, 66, 0
13, 44880, Note_on_c, 11, 72, 64
13, 45000, Note_off_c, 11, 72, 0
13, 45000, Note_on_c, 11, 73, 64
13, 45120, Note_off_c, 11, 73, 0
13, 45120, Note_on_c, 11, 75, 64
13, 45360, Note_off_c, 11, 75, 0
13, 45360, Note_on_c, 11, 68, 64
13, 45840, Note_off_c, 11, 68, 0
13, 45840, Note_on_c, 11, 68, 64
13, 46080, Note_off_c, 11, 68, 0
13, 46080, Note_on_c, 11, 68, 64
13, 46320, Note_off_c, 11, 68, 0
13, 46320, Note_on_c, 11, 73, 64
13, 46560, Note_off_c, 11, 73, 0
13, 46560, Note_on_c, 11, 66, 64
13, 46800, Note_off_c, 11, 66, 0
13, 46800, Note_on_c, 11, 68, 64
13, 46920, Note_off_c, 11, 68, 0
13, 46920, Note_on_c, 11, 70, 64
13, 47040, Note_off_c, 11, 70, 0
13, 47040, Note_on_c, 11, 71, 64
13, 47280, Note_off_c, 11, 71, 0
13, 47280, Note_on_c, 11, 73, 64
13, 47520, Note_off_c, 11, 73, 0
13, 47520, Note_on_c, 11, 66, 64
13, 47880, Note_off_c, 11, 66, 0
13, 47880, Note_on_c, 11, 59, 64
13, 48000, Note_off_c, 11, 59, 0
13, 48000, Note_on_c, 11, 71, 64
13, 48120, Note_off_c, 11, 71, 0
13, 48120, Note_on_c, 11, 68, 64
13, 48240, Note_off_c, 11, 68, 0
13, 48240, Note_on_c, 11, 69, 64
13, 48360, Note_off_c, 11, 69, 0
13, 48360, Note_on_c, 11, 71, 64
13, 48480, Note_off_c, 11, 71, 0
13, 48480, Note_on_c, 11, 73, 64
13, 48720, Note_off_c, 11, 73, 0
13, 48720, Note_on_c, 11, 71, 64
13, 48960, Note_off_c, 11, 71, 0
13, 48960, Note_on_c, 11, 69, 80
13, 49200, Note_off_c, 11, 69, 0
13, 49560, Note_on_c, 11, 75, 77
13, 49800, Note_off_c, 11, 75, 0
13, 49800, Note_on_c, 11, 73, 75
13, 49920, Note_off_c, 11, 73, 0
13, 49920, Note_on_c, 11, 72, 75
13, 50040, Note_off_c, 11, 72, 0
13, 50040, Note_on_c, 11, 68, 74
13, 50160, Note_off_c, 11, 68, 0
13, 50160, Note_on_c, 11, 70, 73
13, 50280, Note_off_c, 11, 70, 0
13, 50280, Note_on_c, 11, 72, 73
13, 50400, Note_off_c, 11, 72, 0
13, 50400, Note_on_c, 11, 73, 72
13, 50520, Note_off_c, 11, 73, 0
13, 50520, Note_on_c, 11, 71, 71
13, 50640, Note_off_c, 11, 71, 0
13, 50640, Note_on_c, 11, 70, 71
13, 50760, Note_off_c, 11, 70, 0
13, 50760, Note_on_c, 11, 68, 70
13, 50880, Note_off_c, 11, 68, 0
13, 50880, Note_on_c, 11, 66, 69
13, 51600, Note_off_c, 11, 66, 0
13, 51600, Note_on_c, 11, 65, 65
13, 51720, Note_off_c, 11, 65, 0
13, 51720, Note_on_c, 11, 66, 65
13, 51840, Note_off_c, 11, 66, 0
13, 51840, Note_on_c, 11, 68, 64
13, 52080, Note_off_c, 11, 68, 0
13, 52080, Note_on_c, 11, 66, 64
13, 52320, Note_off_c, 11, 66, 0
13, 52320, Note_on_c, 11, 71, 64
13, 52680, Note_off_c, 11, 71, 0
13, 52680, Note_on_c, 11, 69, 64
13, 52800, Note_off_c, 11, 69, 0
13, 52800, Note_on_c, 11, 68, 64
13, 53160, Note_off_c, 11, 68, 0
13, 53160, Note_on_c, 11, 69, 64
13, 53280, Note_off_c, 11, 69, 0
13, 53280, Note_on_c, 11, 63, 64
13, 53520, Note_off_c, 11, 63, 0
13, 53520, Note_on_c, 11, 68, 64
13, 53760, Note_off_c, 11, 68, 0
13, 53760, Note_on_c, 11, 66, 64
13, 53880, Note_off_c, 11, 66, 0
13, 53880, Note_on_c, 11, 68, 64
13, 54000, Note_off_c, 11, 68, 0
13, 54000, Note_on_c, 11, 69, 64
13, 54120, Note_off_c, 11, 69, 0
13, 54120, Note_on_c, 11, 71, 64
13, 54240, Note_off_c, 11, 71, 0
13, 54240, Note_on_c, 11, 64, 64
13, 54480, Note_off_c, 11, 64, 0
13, 54480, Note_on_c, 11, 71, 64
13, 54600, Note_off_c, 11, 71, 0
13, 54600, Note_on_c, 11, 71, 64
13, 54720, Note_off_c, 11, 71, 0
13, 54720, Note_on_c, 11, 73, 64
13, 54840, Note_off_c, 11, 73, 0
13, 54840, Note_on_c, 11, 66, 65
13, 55080, Note_off_c, 11, 66, 0
13, 55080, Note_on_c, 11, 65, 66
13, 55200, Note_off_c, 11, 65, 0
13, 55200, Note_on_c, 11, 66, 67
13, 55440, Note_off_c, 11, 66, 0
13, 55440, Note_on_c, 11, 66, 68
13, 55800, Note_off_c, 11, 66, 0
13, 55800, Note_on_c, 11, 66, 70
13, 55920, Note_off_c, 11, 66, 0
13, 55920, Note_on_c, 11, 65, 71
13, 56040, Note_off_c, 11, 65, 0
13, 56040, Note_on_c, 11, 66, 71
13, 56160, Note_off_c, 11, 66, 0
13, 56160, Note_on_c, 11, 68, 72
13, 56280, Note_off_c, 11, 68, 0
13, 56280, Note_on_c, 11, 71, 73
13, 56400, Note_off_c, 11, 71, 0
13, 56400, Note_on_c, 11, 69, 73
13, 56520, Note_off_c, 11, 69, 0
13, 56520, Note_on_c, 11, 68, 74
13, 56640, Note_off_c, 11, 68, 0
13, 56640, Note_on_c, 11, 66, 75
13, 56880, Note_off_c, 11, 66, 0
13, 56880, Note_on_c, 11, 65, 76
13, 57120, Note_off_c, 11, 65, 0
13, 57120, Note_on_c, 11, 61, 77
13, 57600, Note_off_c, 11, 61, 0
13, 57615, End_track
14, 0, Start_track
14, 0, Title_t, "Viola"
14, 0, Program_c, 12, 48
14, 0, Control_c, 12, 7, 90
14, 3360, Note_on_c, 12, 61, 64
14, 3600, Note_off_c, 12, 61, 0
14, 3600, Note_on_c, 12, 62, 64
14, 3840, Note_off_c, 12, 62, 0
14, 3840, Note_on_c, 12, 60, 64
14, 4200, Note_off_c, 12, 60, 0
14, 4200, Note_on_c, 12, 61, 64
14, 4320, Note_off_c, 12, 61, 0
14, 4320, Note_on_c, 12, 63, 64
14, 4440, Note_off_c, 12, 63, 0
14, 4440, Note_on_c, 12, 61, 64
14, 4560, Note_off_c, 12, 61, 0
14, 4560, Note_on_c, 12, 63, 64
14, 4680, Note_off_c, 12, 63, 0
14, 4680, Note_on_c, 12, 64, 64
14, 4800, Note_off_c, 12, 64, 0
14, 4800, Note_on_c, 12, 66, 64
14, 5040, Note_off_c, 12, 66, 0
14, 5040, Note_on_c, 12, 64, 64
14, 5160, Note_off_c, 12, 64, 0
14, 5160, Note_on_c, 12, 63, 64
14, 5280, Note_off_c, 12, 63, 0
14, 5280, Note_on_c, 12, 64, 64
14, 5520, Note_off_c, 12, 64, 0
14, 5520, Note_on_c, 12, 63, 64
14, 5760, Note_off_c, 12, 63, 0
14, 5760, Note_on_c, 12, 61, 45
14, 6000, Note_off_c, 12, 61, 0
14, 6000, Note_on_c, 12, 64, 45
14, 6480, Note_off_c, 12, 64, 0
14, 6480, Note_on_c, 12, 62, 45
14, 6600, Note_off_c, 12, 62, 0
14, 6600, Note_on_c, 12, 61, 45
14, 6720, Note_off_c, 12, 61, 0
14, 6720, Note_on_c, 12, 59, 45
14, 6960, Note_off_c, 12, 59, 0
14, 6960, Note_on_c, 12, 58, 45
14, 7200, Note_off_c, 12, 58, 0
14, 7200, Note_on_c, 12, 59, 45
14, 7440, Note_off_c, 12, 59, 0
14, 7440, Note_on_c, 12, 62, 45
14, 7920, Note_off_c, 12, 62, 0
14, 7920, Note_on_c, 12, 61, 45
14, 8040, Note_off_c, 12, 61, 0
14, 8040, Note_on_c, 12, 59, 45
14, 8160, Note_off_c, 12, 59, 0
14, 8160, Note_on_c, 12, 57, 45
14, 8400, Note_off_c, 12, 57, 0
14, 8400, Note_on_c, 12, 56, 45
14, 8640, Note_off_c, 12, 56, 0
14, 8640, Note_on_c, 12, 58, 64
14, 8880, Note_off_c, 12, 58, 0
14, 8880, Note_on_c, 12, 59, 64
14, 9240, Note_off_c, 12, 59, 0
14, 9240, Note_on_c, 12, 56, 64
14, 9360, Note_off_c, 12, 56, 0
14, 9360, Note_on_c, 12, 57, 64
14, 9480, Note_off_c, 12, 57, 0
14, 9480, Note_on_c, 12, 54, 64
14, 9600, Note_off_c, 12, 54, 0
14, 9600, Note_on_c, 12, 53, 64
14, 9960, Note_off_c, 12, 53, 0
14, 9960, Note_on_c, 12, 54, 64
14, 10080, Note_off_c, 12, 54, 0
14, 10080, Note_on_c, 12, 54, 64
14, 10320, Note_off_c, 12, 54, 0
14, 10320, Note_on_c, 12, 66, 64
14, 10800, Note_off_c, 12, 66, 0
14, 10800, Note_on_c, 12, 65, 64
14, 11040, Note_off_c, 12, 65, 0
14, 11040, Note_on_c, 12, 66, 64
14, 11280, Note_off_c, 12, 66, 0
14, 11280, Note_on_c, 12, 57, 64
14, 11520, Note_off_c, 12, 57, 0
14, 11520, Note_on_c, 12, 56, 64
14, 11760, Note_off_c, 12, 56, 0
14, 11760, Note_on_c, 12, 68, 64
14, 11880, Note_off_c, 12, 68, 0
14, 11880, Note_on_c, 12, 64, 64
14, 12000, Note_off_c, 12, 64, 0
14, 12000, Note_on_c, 12, 66, 64
14, 12240, Note_off_c, 12, 66, 0
14, 12240, Note_on_c, 12, 63, 64
14, 12480, Note_off_c, 12, 63, 0
14, 12480, Note_on_c, 12, 61, 64
14, 12720, Note_off_c, 12, 61, 0
14, 12720, Note_on_c, 12, 69, 64
14, 12960, Note_off_c, 12, 69, 0
14, 12960, Note_on_c, 12, 68, 64
14, 13320, Note_off_c, 12, 68, 0
14, 13320, Note_on_c, 12, 66, 64
14, 13440, Note_off_c, 12, 66, 0
14, 13440, Note_on_c, 12, 64, 64
14, 13560, Note_off_c, 12, 64, 0
14, 13560, Note_on_c, 12, 63, 61
14, 13680, Note_off_c, 12, 63, 0
14, 13680, Note_on_c, 12, 61, 58
14, 13800, Note_off_c, 12, 61, 0
14, 13800, Note_on_c, 12, 59, 55
14, 13920, Note_off_c, 12, 59, 0
14, 13920, Note_on_c, 12, 58, 52
14, 14040, Note_off_c, 12, 58, 0
14, 14040, Note_on_c, 12, 61, 49
14, 14160, Note_off_c, 12, 61, 0
14, 14160, Note_on_c, 12, 54, 46
14, 14400, Note_off_c, 12, 54, 0
14, 14400, Note_on_c, 12, 66, 45
14, 14760, Note_off_c, 12, 66, 0
14, 14760, Note_on_c, 12, 64, 46
14, 14880, Note_off_c, 12, 64, 0
14, 14880, Note_on_c, 12, 62, 47
14, 15000, Note_off_c, 12, 62, 0
14, 15000, Note_on_c, 12, 64, 47
14, 15120, Note_off_c, 12, 64, 0
14, 15120, Note_on_c, 12, 62, 48
14, 15240, Note_off_c, 12, 62, 0
14, 15240, Note_on_c, 12, 61, 48
14, 15360, Note_off_c, 12, 61, 0
14, 15360, Note_on_c, 12, 60, 49
14, 15480, Note_off_c, 12, 60, 0
14, 15480, Note_on_c, 12, 56, 49
14, 15600, Note_off_c, 12, 56, 0
14, 15600, Note_on_c, 12, 61, 50
14, 15720, Note_off_c, 12, 61, 0
14, 15720, Note_on_c, 12, 63, 50
14, 15840, Note_off_c, 12, 63, 0
14, 15840, Note_on_c, 12, 64, 51
14, 16080, Note_off_c, 12, 64, 0
14, 16080, Note_on_c, 12, 63, 52
14, 16320, Note_off_c, 12, 63, 0
14, 16320, Note_on_c, 12, 61, 53
14, 16560, Note_off_c, 12, 61, 0
14, 16560, Note_on_c, 12, 64, 54
14, 16680, Note_off_c, 12, 64, 0
14, 16680, Note_on_c, 12, 58, 54
14, 16800, Note_off_c, 12, 58, 0
14, 16800, Note_on_c, 12, 59, 55
14, 17040, Note_off_c, 12, 59, 0
14, 17040, Note_on_c, 12, 60, 55
14, 17280, Note_off_c, 12, 60, 0
14, 17280, Note_on_c, 12, 61, 56
14, 17520, Note_off_c, 12, 61, 0
14, 17520, Note_on_c, 12, 61, 57
14, 17640, Note_off_c, 12, 61, 0
14, 17640, Note_on_c, 12, 61, 58
14, 17760, Note_off_c, 12, 61, 0
14, 17760, Note_on_c, 12, 62, 58
14, 18360, Note_off_c, 12, 62, 0
14, 18360, Note_on_c, 12, 61, 61
14, 18480, Note_off_c, 12, 61, 0
14, 18480, Note_on_c, 12, 59, 61
14, 18600, Note_off_c, 12, 59, 0
14, 18600, Note_on_c, 12, 57, 62
14, 18720, Note_off_c, 12, 57, 0
14, 18720, Note_on_c, 12, 56, 62
14, 18840, Note_off_c, 12, 56, 0
14, 18840, Note_on_c, 12, 57, 63
14, 18960, Note_off_c, 12, 57, 0
14, 18960, Note_on_c, 12, 56, 63
14, 19080, Note_off_c, 12, 56, 0
14, 19080, Note_on_c, 12, 54, 64
14, 19200, Note_off_c, 12, 54, 0
14, 19200, Note_on_c, 12, 53, 64
14, 19440, Note_off_c, 12, 53, 0
14, 19440, Note_on_c, 12, 54, 64
14, 19920, Note_off_c, 12, 54, 0
14, 19920, Note_on_c, 12, 53, 64
14, 20160, Note_off_c, 12, 53, 0
14, 20160, Note_on_c, 12, 54, 64
14, 20880, Note_off_c, 12, 54, 0
14, 20880, Note_on_c, 12, 55, 64
14, 21000, Note_off_c, 12, 55, 0
14, 21000, Note_on_c, 12, 57, 64
14, 21120, Note_off_c, 12, 57, 0
14, 21120, Note_on_c, 12, 59, 64
14, 21360, Note_off_c, 12, 59, 0
14, 21360, Note_on_c, 12, 57, 64
14, 21600, Note_off_c, 12, 57, 0
14, 21600, Note_on_c, 12, 56, 64
14, 21720, Note_off_c, 12, 56, 0
14, 21720, Note_on_c, 12, 68, 64
14, 21960, Note_off_c, 12, 68, 0
14, 21960, Note_on_c, 12, 66, 64
14, 22080, Note_off_c, 12, 66, 0
14, 22080, Note_on_c, 12, 65, 64
14, 22200, Note_off_c, 12, 65, 0
14, 22200, Note_on_c, 12, 61, 64
14, 22320, Note_off_c, 12, 61, 0
14, 22320, Note_on_c, 12, 66, 64
14, 22440, Note_off_c, 12, 66, 0
14, 22440, Note_on_c, 12, 68, 64
14, 22560, Note_off_c, 12, 68, 0
14, 22560, Note_on_c, 12, 69, 64
14, 22800, Note_off_c, 12, 69, 0
14, 22800, Note_on_c, 12, 68, 64
14, 23040, Note_off_c, 12, 68, 0
14, 23040, Note_on_c, 12, 66, 64
14, 23280, Note_off_c, 12, 66, 0
14, 23280, Note_on_c, 12, 58, 64
14, 23520, Note_off_c, 12, 58, 0
14, 23520, Note_on_c, 12, 59, 64
14, 23760, Note_off_c, 12, 59, 0
14, 23760, Note_on_c, 12, 66, 64
14, 24000, Note_off_c, 12, 66, 0
14, 24000, Note_on_c, 12, 65, 64
14, 24240, Note_off_c, 12, 65, 0
14, 24240, Note_on_c, 12, 66, 64
14, 24600, Note_off_c, 12, 66, 0
14, 24600, Note_on_c, 12, 64, 64
14, 24720, Note_off_c, 12, 64, 0
14, 24720, Note_on_c, 12, 63, 64
14, 24840, Note_off_c, 12, 63, 0
14, 24840, Note_on_c, 12, 61, 64
14, 24960, Note_off_c, 12, 61, 0
14, 24960, Note_on_c, 12, 60, 64
14, 25080, Note_off_c, 12, 60, 0
14, 25080, Note_on_c, 12, 61, 64
14, 25200, Note_off_c, 12, 61, 0
14, 25200, Note_on_c, 12, 60, 64
14, 25320, Note_off_c, 12, 60, 0
14, 25320, Note_on_c, 12, 61, 64
14, 25440, Note_off_c, 12, 61, 0
14, 25440, Note_on_c, 12, 63, 64
14, 25680, Note_off_c, 12, 63, 0
14, 25680, Note_on_c, 12, 61, 64
14, 25800, Note_off_c, 12, 61, 0
14, 25800, Note_on_c, 12, 60, 64
14, 25920, Note_off_c, 12, 60, 0
14, 25920, Note_on_c, 12, 61, 64
14, 26160, Note_off_c, 12, 61, 0
14, 26160, Note_on_c, 12, 63, 58
14, 26400, Note_off_c, 12, 63, 0
14, 26400, Note_on_c, 12, 56, 52
14, 26640, Note_off_c, 12, 56, 0
14, 26640, Note_on_c, 12, 61, 46
14, 27120, Note_off_c, 12, 61, 0
14, 27120, Note_on_c, 12, 59, 42
14, 27480, Note_off_c, 12, 59, 0
14, 27480, Note_on_c, 12, 61, 44
14, 27600, Note_off_c, 12, 61, 0
14, 27600, Note_on_c, 12, 62, 45
14, 27840, Note_off_c, 12, 62, 0
14, 27840, Note_on_c, 12, 61, 46
14, 28080, Note_off_c, 12, 61, 0
14, 28320, Note_on_c, 12, 54, 49
14, 28560, Note_off_c, 12, 54, 0
14, 28560, Note_on_c, 12, 55, 51
14, 28800, Note_off_c, 12, 55, 0
14, 28800, Note_on_c, 12, 53, 52
14, 29160, Note_off_c, 12, 53, 0
14, 29160, Note_on_c, 12, 54, 54
14, 29280, Note_off_c, 12, 54, 0
14, 29280, Note_on_c, 12, 56, 55
14, 29400, Note_off_c, 12, 56, 0
14, 29400, Note_on_c, 12, 54, 56
14, 29520, Note_off_c, 12, 54, 0
14, 29520, Note_on_c, 12, 56, 57
14, 29640, Note_off_c, 12, 56, 0
14, 29640, Note_on_c, 12, 57, 57
14, 29760, Note_off_c, 12, 57, 0
14, 29760, Note_on_c, 12, 59, 58
14, 30000, Note_off_c, 12, 59, 0
14, 30000, Note_on_c, 12, 57, 60
14, 30120, Note_off_c, 12, 57, 0
14, 30120, Note_on_c, 12, 56, 60
14, 30240, Note_off_c, 12, 56, 0
14, 30240, Note_on_c, 12, 57, 61
14, 30480, Note_off_c, 12, 57, 0
14, 30480, Note_on_c, 12, 56, 63
14, 30720, Note_off_c, 12, 56, 0
14, 30720, Note_on_c, 12, 54, 64
14, 30840, Note_off_c, 12, 54, 0
14, 30840, Note_on_c, 12, 66, 64
14, 31080, Note_off_c, 12, 66, 0
14, 31080, Note_on_c, 12, 64, 64
14, 31200, Note_off_c, 12, 64, 0
14, 31200, Note_on_c, 12, 63, 64
14, 31320, Note_off_c, 12, 63, 0
14, 31320, Note_on_c, 12, 59, 64
14, 31440, Note_off_c, 12, 59, 0
14, 31440, Note_on_c, 12, 61, 64
14, 31560, Note_off_c, 12, 61, 0
14, 31560, Note_on_c, 12, 63, 64
14, 31680, Note_off_c, 12, 63, 0
14, 31680, Note_on_c, 12, 64, 64
14, 31800, Note_off_c, 12, 64, 0
14, 31800, Note_on_c, 12, 62, 64
14, 31920, Note_off_c, 12, 62, 0
14, 31920, Note_on_c, 12, 61, 64
14, 32040, Note_off_c, 12, 61, 0
14, 32040, Note_on_c, 12, 59, 64
14, 32160, Note_off_c, 12, 59, 0
14, 32160, Note_on_c, 12, 57, 64
14, 32400, Note_off_c, 12, 57, 0
14, 32400, Note_on_c, 12, 57, 64
14, 32880, Note_off_c, 12, 57, 0
14, 32880, Note_on_c, 12, 55, 64
14, 33000, Note_off_c, 12, 55, 0
14, 33000, Note_on_c, 12, 54, 64
14, 33120, Note_off_c, 12, 54, 0
14, 33120, Note_on_c, 12, 59, 64
14, 33360, Note_off_c, 12, 59, 0
14, 33360, Note_on_c, 12, 59, 64
14, 33840, Note_off_c, 12, 59, 0
14, 33840, Note_on_c, 12, 58, 64
14, 34080, Note_off_c, 12, 58, 0
14, 34080, Note_on_c, 12, 62, 64
14, 34320, Note_off_c, 12, 62, 0
14, 34560, Note_on_c, 12, 61, 40
14, 34800, Note_off_c, 12, 61, 0
14, 34800, Note_on_c, 12, 62, 42
14, 35040, Note_off_c, 12, 62, 0
14, 35040, Note_on_c, 12, 60, 43
14, 35400, Note_off_c, 12, 60, 0
14, 35400, Note_on_c, 12, 61, 45
14, 35520, Note_off_c, 12, 61, 0
14, 35520, Note_on_c, 12, 63, 46
14, 35640, Note_off_c, 12, 63, 0
14, 35640, Note_on_c, 12, 61, 47
14, 35760, Note_off_c, 12, 61, 0
14, 35760, Note_on_c, 12, 63, 48
14, 35880, Note_off_c, 12, 63, 0
14, 35880, Note_on_c, 12, 64, 48
14, 36000, Note_off_c, 12, 64, 0
14, 36000, Note_on_c, 12, 66, 49
14, 36240, Note_off_c, 12, 66, 0
14, 36240, Note_on_c, 12, 64, 51
14, 36360, Note_off_c, 12, 64, 0
14, 36360, Note_on_c, 12, 63, 51
14, 36480, Note_off_c, 12, 63, 0
14, 36480, Note_on_c, 12, 64, 52
14, 36720, Note_off_c, 12, 64, 0
14, 36720, Note_on_c, 12, 62, 54
14, 36840, Note_off_c, 12, 62, 0
14, 36840, Note_on_c, 12, 61, 54
14, 36960, Note_off_c, 12, 61, 0
14, 36960, Note_on_c, 12, 62, 55
14, 37200, Note_off_c, 12, 62, 0
14, 37200, Note_on_c, 12, 62, 57
14, 37560, Note_off_c, 12, 62, 0
14, 37560, Note_on_c, 12, 56, 59
14, 37680, Note_off_c, 12, 56, 0
14, 37680, Note_on_c, 12, 57, 60
14, 37800, Note_off_c, 12, 57, 0
14, 37800, Note_on_c, 12, 59, 60
14, 37920, Note_off_c, 12, 59, 0
14, 37920, Note_on_c, 12, 61, 61
14, 38520, Note_off_c, 12, 61, 0
14, 38520, Note_on_c, 12, 54, 64
14, 38640, Note_off_c, 12, 54, 0
14, 38640, Note_on_c, 12, 55, 64
14, 38760, Note_off_c, 12, 55, 0
14, 38760, Note_on_c, 12, 57, 64
14, 38880, Note_off_c, 12, 57, 0
14, 38880, Note_on_c, 12, 59, 64
14, 39120, Note_off_c, 12, 59, 0
14, 39120, Note_on_c, 12, 64, 64
14, 39600, Note_off_c, 12, 64, 0
14, 39600, Note_on_c, 12, 62, 64
14, 39840, Note_off_c, 12, 62, 0
14, 39840, Note_on_c, 12, 61, 64
14, 40320, Note_off_c, 12, 61, 0
14, 40320, Note_on_c, 12, 59, 64
14, 40440, Note_off_c, 12, 59, 0
14, 40440, Note_on_c, 12, 57, 64
14, 40560, Note_off_c, 12, 57, 0
14, 40560, Note_on_c, 12, 59, 64
14, 40680, Note_off_c, 12, 59, 0
14, 40680, Note_on_c, 12, 61, 64
14, 40800, Note_off_c, 12, 61, 0
14, 40800, Note_on_c, 12, 54, 64
14, 40920, Note_off_c, 12, 54, 0
14, 40920, Note_on_c, 12, 56, 64
14, 41040, Note_off_c, 12, 56, 0
14, 41040, Note_on_c, 12, 57, 64
14, 41160, Note_off_c, 12, 57, 0
14, 41160, Note_on_c, 12, 54, 64
14, 41280, Note_off_c, 12, 54, 0
14, 41280, Note_on_c, 12, 51, 64
14, 41520, Note_off_c, 12, 51, 0
14, 41520, Note_on_c, 12, 53, 64
14, 41760, Note_off_c, 12, 53, 0
14, 41760, Note_on_c, 12, 54, 64
14, 42000, Note_off_c, 12, 54, 0
14, 42840, Note_on_c, 12, 64, 64
14, 43080, Note_off_c, 12, 64, 0
14, 43080, Note_on_c, 12, 62, 64
14, 43200, Note_off_c, 12, 62, 0
14, 43200, Note_on_c, 12, 61, 64
14, 43320, Note_off_c, 12, 61, 0
14, 43320, Note_on_c, 12, 57, 64
14, 43440, Note_off_c, 12, 57, 0
14, 43440, Note_on_c, 12, 59, 64
14, 43560, Note_off_c, 12, 59, 0
14, 43560, Note_on_c, 12, 61, 64
14, 43680, Note_off_c, 12, 61, 0
14, 43680, Note_on_c, 12, 62, 64
14, 43800, Note_off_c, 12, 62, 0
14, 43800, Note_on_c, 12, 61, 64
14, 43920, Note_off_c, 12, 61, 0
14, 43920, Note_on_c, 12, 59, 64
14, 44040, Note_off_c, 12, 59, 0
14, 44040, Note_on_c, 12, 57, 64
14, 44160, Note_off_c, 12, 57, 0
14, 44160, Note_on_c, 12, 56, 64
14, 44280, Note_off_c, 12, 56, 0
14, 44280, Note_on_c, 12, 59, 64
14, 44400, Note_off_c, 12, 59, 0
14, 44400, Note_on_c, 12, 57, 64
14, 44520, Note_off_c, 12, 57, 0
14, 44520, Note_on_c, 12, 56, 64
14, 44640, Note_off_c, 12, 56, 0
14, 44640, Note_on_c, 12, 54, 64
14, 44880, Note_off_c, 12, 54, 0
14, 44880, Note_on_c, 12, 57, 64
14, 45120, Note_off_c, 12, 57, 0
14, 45120, Note_on_c, 12, 56, 64
14, 45360, Note_off_c, 12, 56, 0
14, 45360, Note_on_c, 12, 61, 64
14, 45480, Note_off_c, 12, 61, 0
14, 45480, Note_on_c, 12, 64, 64
14, 45600, Note_off_c, 12, 64, 0
14, 45600, Note_on_c, 12, 63, 64
14, 45720, Note_off_c, 12, 63, 0
14, 45720, Note_on_c, 12, 64, 64
14, 45840, Note_off_c, 12, 64, 0
14, 45840, Note_on_c, 12, 66, 64
14, 46080, Note_off_c, 12, 66, 0
14, 46080, Note_on_c, 12, 64, 64
14, 46320, Note_off_c, 12, 64, 0
14, 46320, Note_on_c, 12, 68, 64
14, 46440, Note_off_c, 12, 68, 0
14, 46440, Note_on_c, 12, 56, 64
14, 46560, Note_off_c, 12, 56, 0
14, 46560, Note_on_c, 12, 61, 64
14, 46680, Note_off_c, 12, 61, 0
14, 46680, Note_on_c, 12, 58, 64
14, 46800, Note_off_c, 12, 58, 0
14, 46800, Note_on_c, 12, 59, 64
14, 46920, Note_off_c, 12, 59, 0
14, 46920, Note_on_c, 12, 61, 64
14, 47040, Note_off_c, 12, 61, 0
14, 47040, Note_on_c, 12, 62, 64
14, 47280, Note_off_c, 12, 62, 0
14, 47280, Note_on_c, 12, 61, 64
14, 47520, Note_off_c, 12, 61, 0
14, 47520, Note_on_c, 12, 59, 64
14, 47760, Note_off_c, 12, 59, 0
14, 47760, Note_on_c, 12, 66, 64
14, 47880, Note_off_c, 12, 66, 0
14, 47880, Note_on_c, 12, 62, 64
14, 48000, Note_off_c, 12, 62, 0
14, 48000, Note_on_c, 12, 64, 64
14, 48240, Note_off_c, 12, 64, 0
14, 48240, Note_on_c, 12, 64, 64
14, 48360, Note_off_c, 12, 64, 0
14, 48360, Note_on_c, 12, 62, 64
14, 48480, Note_off_c, 12, 62, 0
14, 48480, Note_on_c, 12, 61, 64
14, 48600, Note_off_c, 12, 61, 0
14, 48600, Note_on_c, 12, 62, 64
14, 48720, Note_off_c, 12, 62, 0
14, 48720, Note_on_c, 12, 64, 64
14, 48960, Note_off_c, 12, 64, 0
14, 48960, Note_on_c, 12, 64, 80
14, 49200, Note_off_c, 12, 64, 0
14, 50040, Note_on_c, 12, 68, 74
14, 50280, Note_off_c, 12, 68, 0
14, 50280, Note_on_c, 12, 66, 73
14, 50400, Note_off_c, 12, 66, 0
14, 50400, Note_on_c, 12, 65, 72
14, 50520, Note_off_c, 12, 65, 0
14, 50520, Note_on_c, 12, 61, 71
14, 50640, Note_off_c, 12, 61, 0
14, 50640, Note_on_c, 12, 63, 71
14, 50760, Note_off_c, 12, 63, 0
14, 50760, Note_on_c, 12, 65, 70
14, 50880, Note_off_c, 12, 65, 0
14, 50880, Note_on_c, 12, 66, 69
14, 51000, Note_off_c, 12, 66, 0
14, 51000, Note_on_c, 12, 58, 69
14, 51120, Note_off_c, 12, 58, 0
14, 51120, Note_on_c, 12, 59, 68
14, 51240, Note_off_c, 12, 59, 0
14, 51240, Note_on_c, 12, 61, 67
14, 51480, Note_off_c, 12, 61, 0
14, 51480, Note_on_c, 12, 54, 66
14, 51600, Note_off_c, 12, 54, 0
14, 51600, Note_on_c, 12, 59, 65
14, 52080, Note_off_c, 12, 59, 0
14, 52080, Note_on_c, 12, 57, 64
14, 52320, Note_off_c, 12, 57, 0
14, 52320, Note_on_c, 12, 62, 64
14, 52680, Note_off_c, 12, 62, 0
14, 52680, Note_on_c, 12, 61, 64
14, 52740, Note_off_c, 12, 61, 0
14, 52740, Note_on_c, 12, 59, 64
14, 52800, Note_off_c, 12, 59, 0
14, 52800, Note_on_c, 12, 61, 64
14, 53040, Note_off_c, 12, 61, 0
14, 53040, Note_on_c, 12, 59, 64
14, 53160, Note_off_c, 12, 59, 0
14, 53160, Note_on_c, 12, 66, 64
14, 53280, Note_off_c, 12, 66, 0
14, 53280, Note_on_c, 12, 66, 64
14, 53520, Note_off_c, 12, 66, 0
14, 53520, Note_on_c, 12, 64, 64
14, 53760, Note_off_c, 12, 64, 0
14, 53760, Note_on_c, 12, 63, 64
14, 53880, Note_off_c, 12, 63, 0
14, 53880, Note_on_c, 12, 64, 64
14, 54000, Note_off_c, 12, 64, 0
14, 54000, Note_on_c, 12, 66, 64
14, 54120, Note_off_c, 12, 66, 0
14, 54120, Note_on_c, 12, 68, 64
14, 54240, Note_off_c, 12, 68, 0
14, 54240, Note_on_c, 12, 61, 64
14, 54360, Note_off_c, 12, 61, 0
14, 54360, Note_on_c, 12, 62, 64
14, 54480, Note_off_c, 12, 62, 0
14, 54480, Note_on_c, 12, 64, 64
14, 54720, Note_off_c, 12, 64, 0
14, 54720, Note_on_c, 12, 58, 64
14, 54960, Note_off_c, 12, 58, 0
14, 54960, Note_on_c, 12, 59, 65
14, 55320, Note_off_c, 12, 59, 0
14, 55320, Note_on_c, 12, 58, 67
14, 55440, Note_off_c, 12, 58, 0
14, 55440, Note_on_c, 12, 59, 68
14, 55560, Note_off_c, 12, 59, 0
14, 55560, Note_on_c, 12, 61, 69
14, 55680, Note_off_c, 12, 61, 0
14, 55680, Note_on_c, 12, 62, 69
14, 55800, Note_off_c, 12, 62, 0
14, 55800, Note_on_c, 12, 61, 70
14, 55920, Note_off_c, 12, 61, 0
14, 55920, Note_on_c, 12, 59, 71
14, 56040, Note_off_c, 12, 59, 0
14, 56040, Note_on_c, 12, 57, 71
14, 56160, Note_off_c, 12, 57, 0
14, 56160, Note_on_c, 12, 56, 72
14, 56400, Note_off_c, 12, 56, 0
14, 56400, Note_on_c, 12, 57, 73
14, 56520, Note_off_c, 12, 57, 0
14, 56520, Note_on_c, 12, 62, 74
14, 56640, Note_off_c, 12, 62, 0
14, 56640, Note_on_c, 12, 61, 75
14, 56880, Note_off_c, 12, 61, 0
14, 56880, Note_on_c, 12, 61, 76
14, 57000, Note_off_c, 12, 61, 0
14, 57000, Note_on_c, 12, 59, 77
14, 57120, Note_off_c, 12, 59, 0
14, 57120, Note_on_c, 12, 58, 77
14, 57600, Note_off_c, 12, 58, 0
14, 57615, End_track
15, 0, Start_track
15, 0, Title_t, "Cello"
15, 0, Program_c, 13, 48
15, 0, Control_c, 13, 7, 90
15, 960, Note_on_c, 13, 54, 64
15, 1200, Note_off_c, 13, 54, 0
15, 1200, Note_on_c, 13, 47, 64
15, 1680, Note_on_c, 13, 45, 64
15, 1680, Note_off_c, 13, 47, 0
15, 1920, Note_off_c, 13, 45, 0
15, 1920, Note_on_c, 13, 47, 64
15, 2280, Note_off_c, 13, 47, 0
15, 2280, Note_on_c, 13, 49, 64
15, 2400, Note_off_c, 13, 49, 0
15, 2400, Note_on_c, 13, 50, 64
15, 2520, Note_off_c, 13, 50, 0
15, 2520, Note_on_c, 13, 49, 64
15, 2640, Note_off_c, 13, 49, 0
15, 2640, Note_on_c, 13, 50, 64
15, 2760, Note_off_c, 13, 50, 0
15, 2760, Note_on_c, 13, 47, 64
15, 2880, Note_off_c, 13, 47, 0
15, 2880, Note_on_c, 13, 49, 64
15, 3000, Note_off_c, 13, 49, 0
15, 3000, Note_on_c, 13, 54, 64
15, 3240, Note_off_c, 13, 54, 0
15, 3240, Note_on_c, 13, 53, 64
15, 3360, Note_off_c, 13, 53, 0
15, 3360, Note_on_c, 13, 54, 64
15, 3420, Note_off_c, 13, 54, 0
15, 3420, Note_on_c, 13, 56, 64
15, 3480, Note_off_c, 13, 56, 0
15, 3480, Note_on_c, 13, 57, 64
15, 3720, Note_off_c, 13, 57, 0
15, 3720, Note_on_c, 13, 56, 64
15, 3780, Note_off_c, 13, 56, 0
15, 3780, Note_on_c, 13, 54, 64
15, 3840, Note_off_c, 13, 54, 0
15, 3840, Note_on_c, 13, 56, 64
15, 4560, Note_off_c, 13, 56, 0
15, 4560, Note_on_c, 13, 54, 64
15, 4680, Note_off_c, 13, 54, 0
15, 4680, Note_on_c, 13, 52, 64
15, 4800, Note_off_c, 13, 52, 0
15, 4800, Note_on_c, 13, 57, 64
15, 5040, Note_off_c, 13, 57, 0
15, 5040, Note_on_c, 13, 54, 64
15, 5280, Note_off_c, 13, 54, 0
15, 5280, Note_on_c, 13, 56, 64
15, 5640, Note_off_c, 13, 56, 0
15, 5640, Note_on_c, 13, 54, 64
15, 5760, Note_off_c, 13, 54, 0
15, 5760, Note_on_c, 13, 52, 45
15, 5880, Note_off_c, 13, 52, 0
15, 5880, Note_on_c, 13, 51, 45
15, 6000, Note_off_c, 13, 51, 0
15, 6000, Note_on_c, 13, 49, 45
15, 6120, Note_off_c, 13, 49, 0
15, 6120, Note_on_c, 13, 47, 45
15, 6240, Note_off_c, 13, 47, 0
15, 6240, Note_on_c, 13, 46, 45
15, 6360, Note_off_c, 13, 46, 0
15, 6360, Note_on_c, 13, 49, 45
15, 6480, Note_off_c, 13, 49, 0
15, 6480, Note_on_c, 13, 42, 45
15, 6720, Note_off_c, 13, 42, 0
15, 6720, Note_on_c, 13, 54, 45
15, 7080, Note_off_c, 13, 54, 0
15, 7080, Note_on_c, 13, 52, 45
15, 7200, Note_off_c, 13, 52, 0
15, 7200, Note_on_c, 13, 50, 45
15, 7320, Note_off_c, 13, 50, 0
15, 7320, Note_on_c, 13, 49, 45
15, 7440, Note_off_c, 13, 49, 0
15, 7440, Note_on_c, 13, 47, 45
15, 7560, Note_off_c, 13, 47, 0
15, 7560, Note_on_c, 13, 45, 45
15, 7680, Note_off_c, 13, 45, 0
15, 7680, Note_on_c, 13, 44, 45
15, 7800, Note_off_c, 13, 44, 0
15, 7800, Note_on_c, 13, 47, 45
15, 7920, Note_off_c, 13, 47, 0
15, 7920, Note_on_c, 13, 40, 45
15, 8160, Note_off_c, 13, 40, 0
15, 8160, Note_on_c, 13, 52, 45
15, 8760, Note_off_c, 13, 52, 0
15, 8760, Note_on_c, 13, 50, 64
15, 8880, Note_off_c, 13, 50, 0
15, 8880, Note_on_c, 13, 49, 64
15, 9000, Note_off_c, 13, 49, 0
15, 9000, Note_on_c, 13, 47, 64
15, 9120, Note_off_c, 13, 47, 0
15, 9120, Note_on_c, 13, 49, 64
15, 9840, Note_off_c, 13, 49, 0
15, 9840, Note_on_c, 13, 47, 64
15, 9960, Note_off_c, 13, 47, 0
15, 9960, Note_on_c, 13, 45, 64
15, 10080, Note_off_c, 13, 45, 0
15, 10080, Note_on_c, 13, 50, 64
15, 10320, Note_off_c, 13, 50, 0
15, 10320, Note_on_c, 13, 47, 64
15, 10560, Note_off_c, 13, 47, 0
15, 10560, Note_on_c, 13, 49, 64
15, 10680, Note_off_c, 13, 49, 0
15, 10680, Note_on_c, 13, 61, 64
15, 10920, Note_off_c, 13, 61, 0
15, 10920, Note_on_c, 13, 59, 64
15, 11040, Note_off_c, 13, 59, 0
15, 11040, Note_on_c, 13, 57, 64
15, 11160, Note_off_c, 13, 57, 0
15, 11160, Note_on_c, 13, 56, 64
15, 11280, Note_off_c, 13, 56, 0
15, 11280, Note_on_c, 13, 54, 64
15, 11520, Note_off_c, 13, 54, 0
15, 11520, Note_on_c, 13, 56, 64
15, 12240, Note_off_c, 13, 56, 0
15, 12240, Note_on_c, 13, 54, 64
15, 12360, Note_off_c, 13, 54, 0
15, 12360, Note_on_c, 13, 56, 64
15, 12480, Note_off_c, 13, 56, 0
15, 12480, Note_on_c, 13, 57, 64
15, 12720, Note_off_c, 13, 57, 0
15, 12720, Note_on_c, 13, 56, 64
15, 12840, Note_off_c, 13, 56, 0
15, 12840, Note_on_c, 13, 54, 64
15, 12960, Note_off_c, 13, 54, 0
15, 12960, Note_on_c, 13, 56, 64
15, 13200, Note_off_c, 13, 56, 0
15, 13200, Note_on_c, 13, 44, 64
15, 13440, Note_off_c, 13, 44, 0
15, 13440, Note_on_c, 13, 49, 64
15, 13680, Note_off_c, 13, 49, 0
15, 13680, Note_on_c, 13, 37, 58
15, 13920, Note_off_c, 13, 37, 0
15, 14040, Note_on_c, 13, 54, 49
15, 14160, Note_off_c, 13, 54, 0
15, 14160, Note_on_c, 13, 56, 46
15, 14280, Note_off_c, 13, 56, 0
15, 14280, Note_on_c, 13, 58, 43
15, 14400, Note_off_c, 13, 58, 0
15, 14400, Note_on_c, 13, 59, 45
15, 14520, Note_off_c, 13, 59, 0
15, 14520, Note_on_c, 13, 50, 45
15, 14640, Note_off_c, 13, 50, 0
15, 14640, Note_on_c, 13, 52, 46
15, 14760, Note_off_c, 13, 52, 0
15, 14760, Note_on_c, 13, 54, 46
15, 14880, Note_off_c, 13, 54, 0
15, 14880, Note_on_c, 13, 47, 47
15, 15000, Note_off_c, 13, 47, 0
15, 15000, Note_on_c, 13, 49, 47
15, 15120, Note_off_c, 13, 49, 0
15, 15120, Note_on_c, 13, 47, 48
15, 15240, Note_off_c, 13, 47, 0
15, 15240, Note_on_c, 13, 45, 48
15, 15360, Note_off_c, 13, 45, 0
15, 15360, Note_on_c, 13, 44, 49
15, 15480, Note_off_c, 13, 44, 0
15, 15480, Note_on_c, 13, 56, 49
15, 15600, Note_off_c, 13, 56, 0
15, 15600, Note_on_c, 13, 58, 50
15, 15720, Note_off_c, 13, 58, 0
15, 15720, Note_on_c, 13, 60, 50
15, 15840, Note_off_c, 13, 60, 0
15, 15840, Note_on_c, 13, 61, 51
15, 15960, Note_off_c, 13, 61, 0
15, 15960, Note_on_c, 13, 52, 51
15, 16080, Note_off_c, 13, 52, 0
15, 16080, Note_on_c, 13, 54, 52
15, 16200, Note_off_c, 13, 54, 0
15, 16200, Note_on_c, 13, 56, 52
15, 16320, Note_off_c, 13, 56, 0
15, 16320, Note_on_c, 13, 57, 53
15, 16560, Note_off_c, 13, 57, 0
15, 16560, Note_on_c, 13, 58, 54
15, 16800, Note_off_c, 13, 58, 0
15, 16800, Note_on_c, 13, 59, 55
15, 17040, Note_off_c, 13, 59, 0
15, 17040, Note_on_c, 13, 60, 55
15, 17280, Note_off_c, 13, 60, 0
15, 17280, Note_on_c, 13, 61, 56
15, 17520, Note_off_c, 13, 61, 0
15, 17520, Note_on_c, 13, 49, 57
15, 17640, Note_off_c, 13, 49, 0
15, 17640, Note_on_c, 13, 61, 58
15, 17760, Note_off_c, 13, 61, 0
15, 17760, Note_on_c, 13, 62, 58
15, 17880, Note_off_c, 13, 62, 0
15, 17880, Note_on_c, 13, 61, 59
15, 18000, Note_off_c, 13, 61, 0
15, 18000, Note_on_c, 13, 59, 59
15, 18120, Note_off_c, 13, 59, 0
15, 18120, Note_on_c, 13, 57, 60
15, 18240, Note_off_c, 13, 57, 0
15, 18240, Note_on_c, 13, 56, 60
15, 18360, Note_off_c, 13, 56, 0
15, 18360, Note_on_c, 13, 57, 61
15, 18480, Note_off_c, 13, 57, 0
15, 18480, Note_on_c, 13, 56, 61
15, 18600, Note_off_c, 13, 56, 0
15, 18600, Note_on_c, 13, 54, 62
15, 18720, Note_off_c, 13, 54, 0
15, 18720, Note_on_c, 13, 53, 62
15, 18840, Note_off_c, 13, 53, 0
15, 18840, Note_on_c, 13, 54, 63
15, 18960, Note_off_c, 13, 54, 0
15, 18960, Note_on_c, 13, 53, 63
15, 19080, Note_off_c, 13, 53, 0
15, 19080, Note_on_c, 13, 51, 64
15, 19200, Note_off_c, 13, 51, 0
15, 19200, Note_on_c, 13, 49, 64
15, 19440, Note_off_c, 13, 49, 0
15, 19440, Note_on_c, 13, 50, 64
15, 19680, Note_off_c, 13, 50, 0
15, 19680, Note_on_c, 13, 47, 64
15, 19920, Note_off_c, 13, 47, 0
15, 19920, Note_on_c, 13, 49, 64
15, 20160, Note_off_c, 13, 49, 0
15, 20160, Note_on_c, 13, 54, 64
15, 20400, Note_off_c, 13, 54, 0
15, 20400, Note_on_c, 13, 42, 64
15, 20640, Note_off_c, 13, 42, 0
15, 20640, Note_on_c, 13, 47, 64
15, 21360, Note_off_c, 13, 47, 0
15, 21360, Note_on_c, 13, 48, 64
15, 21600, Note_off_c, 13, 48, 0
15, 21600, Note_on_c, 13, 49, 64
15, 21840, Note_off_c, 13, 49, 0
15, 21840, Note_on_c, 13, 47, 64
15, 21960, Note_off_c, 13, 47, 0
15, 21960, Note_on_c, 13, 45, 64
15, 22080, Note_off_c, 13, 45, 0
15, 22080, Note_on_c, 13, 44, 64
15, 22320, Note_off_c, 13, 44, 0
15, 22320, Note_on_c, 13, 45, 64
15, 22440, Note_off_c, 13, 45, 0
15, 22440, Note_on_c, 13, 47, 64
15, 22560, Note_off_c, 13, 47, 0
15, 22560, Note_on_c, 13, 49, 64
15, 22680, Note_off_c, 13, 49, 0
15, 22680, Note_on_c, 13, 61, 64
15, 22920, Note_off_c, 13, 61, 0
15, 22920, Note_on_c, 13, 59, 64
15, 23160, Note_off_c, 13, 59, 0
15, 23160, Note_on_c, 13, 58, 64
15, 23280, Note_off_c, 13, 58, 0
15, 23280, Note_on_c, 13, 59, 64
15, 23400, Note_off_c, 13, 59, 0
15, 23400, Note_on_c, 13, 61, 64
15, 23520, Note_off_c, 13, 61, 0
15, 23520, Note_on_c, 13, 62, 64
15, 23760, Note_off_c, 13, 62, 0
15, 23760, Note_on_c, 13, 59, 64
15, 24000, Note_off_c, 13, 59, 0
15, 24000, Note_on_c, 13, 49, 64
15, 24240, Note_off_c, 13, 49, 0
15, 24240, Note_on_c, 13, 50, 64
15, 24480, Note_off_c, 13, 50, 0
15, 24480, Note_on_c, 13, 48, 64
15, 24840, Note_off_c, 13, 48, 0
15, 24840, Note_on_c, 13, 49, 64
15, 24960, Note_off_c, 13, 49, 0
15, 24960, Note_on_c, 13, 51, 64
15, 25080, Note_off_c, 13, 51, 0
15, 25080, Note_on_c, 13, 49, 64
15, 25200, Note_off_c, 13, 49, 0
15, 25200, Note_on_c, 13, 51, 64
15, 25320, Note_off_c, 13, 51, 0
15, 25320, Note_on_c, 13, 52, 64
15, 25440, Note_off_c, 13, 52, 0
15, 25440, Note_on_c, 13, 54, 64
15, 25680, Note_off_c, 13, 54, 0
15, 25680, Note_on_c, 13, 52, 64
15, 25800, Note_off_c, 13, 52, 0
15, 25800, Note_on_c, 13, 51, 64
15, 25920, Note_off_c, 13, 51, 0
15, 25920, Note_on_c, 13, 52, 64
15, 26160, Note_off_c, 13, 52, 0
15, 26160, Note_on_c, 13, 51, 58
15, 26400, Note_off_c, 13, 51, 0
15, 26400, Note_on_c, 13, 49, 52
15, 26640, Note_off_c, 13, 49, 0
15, 26640, Note_on_c, 13, 49, 46
15, 26880, Note_off_c, 13, 49, 0
15, 26880, Note_on_c, 13, 50, 40
15, 27120, Note_off_c, 13, 50, 0
15, 27120, Note_on_c, 13, 51, 42
15, 27360, Note_off_c, 13, 51, 0
15, 27360, Note_on_c, 13, 52, 43
15, 27600, Note_off_c, 13, 52, 0
15, 27600, Note_on_c, 13, 53, 45
15, 27840, Note_off_c, 13, 53, 0
15, 27840, Note_on_c, 13, 54, 46
15, 28200, Note_off_c, 13, 54, 0
15, 28200, Note_on_c, 13, 52, 48
15, 28320, Note_off_c, 13, 52, 0
15, 28320, Note_on_c, 13, 50, 49
15, 28440, Note_off_c, 13, 50, 0
15, 28440, Note_on_c, 13, 49, 50
15, 28560, Note_off_c, 13, 49, 0
15, 28560, Note_on_c, 13, 47, 51
15, 28800, Note_off_c, 13, 47, 0
15, 28800, Note_on_c, 13, 49, 52
15, 29520, Note_off_c, 13, 49, 0
15, 29520, Note_on_c, 13, 50, 57
15, 29880, Note_off_c, 13, 50, 0
15, 29880, Note_on_c, 13, 49, 59
15, 30000, Note_off_c, 13, 49, 0
15, 30000, Note_on_c, 13, 50, 60
15, 30120, Note_off_c, 13, 50, 0
15, 30120, Note_on_c, 13, 47, 60
15, 30240, Note_off_c, 13, 47, 0
15, 30240, Note_on_c, 13, 49, 61
15, 30360, Note_off_c, 13, 49, 0
15, 30360, Note_on_c, 13, 61, 62
15, 30600, Note_off_c, 13, 61, 0
15, 30600, Note_on_c, 13, 59, 63
15, 30720, Note_off_c, 13, 59, 0
15, 30720, Note_on_c, 13, 58, 64
15, 30840, Note_off_c, 13, 58, 0
15, 30840, Note_on_c, 13, 54, 64
15, 30960, Note_off_c, 13, 54, 0
15, 30960, Note_on_c, 13, 56, 64
15, 31080, Note_off_c, 13, 56, 0
15, 31080, Note_on_c, 13, 58, 64
15, 31200, Note_off_c, 13, 58, 0
15, 31200, Note_on_c, 13, 59, 64
15, 31320, Note_off_c, 13, 59, 0
15, 31320, Note_on_c, 13, 57, 64
15, 31440, Note_off_c, 13, 57, 0
15, 31440, Note_on_c, 13, 56, 64
15, 31560, Note_off_c, 13, 56, 0
15, 31560, Note_on_c, 13, 54, 64
15, 31680, Note_off_c, 13, 54, 0
15, 31680, Note_on_c, 13, 52, 64
15, 31920, Note_off_c, 13, 52, 0
15, 31920, Note_on_c, 13, 40, 64
15, 32160, Note_off_c, 13, 40, 0
15, 32160, Note_on_c, 13, 45, 64
15, 32280, Note_off_c, 13, 45, 0
15, 32280, Note_on_c, 13, 57, 64
15, 32520, Note_off_c, 13, 57, 0
15, 32520, Note_on_c, 13, 55, 64
15, 32640, Note_off_c, 13, 55, 0
15, 32640, Note_on_c, 13, 54, 64
15, 32760, Note_off_c, 13, 54, 0
15, 32760, Note_on_c, 13, 50, 64
15, 32880, Note_off_c, 13, 50, 0
15, 32880, Note_on_c, 13, 52, 64
15, 33000, Note_off_c, 13, 52, 0
15, 33000, Note_on_c, 13, 54, 64
15, 33120, Note_off_c, 13, 54, 0
15, 33120, Note_on_c, 13, 55, 64
15, 33360, Note_off_c, 13, 55, 0
15, 33360, Note_on_c, 13, 54, 64
15, 33480, Note_off_c, 13, 54, 0
15, 33480, Note_on_c, 13, 52, 64
15, 33600, Note_off_c, 13, 52, 0
15, 33600, Note_on_c, 13, 54, 64
15, 33840, Note_off_c, 13, 54, 0
15, 33840, Note_on_c, 13, 42, 64
15, 34080, Note_off_c, 13, 42, 0
15, 34080, Note_on_c, 13, 47, 64
15, 34320, Note_off_c, 13, 47, 0
15, 34320, Note_on_c, 13, 59, 64
15, 34680, Note_off_c, 13, 59, 0
15, 34680, Note_on_c, 13, 57, 41
15, 34800, Note_off_c, 13, 57, 0
15, 34800, Note_on_c, 13, 56, 42
15, 34920, Note_off_c, 13, 56, 0
15, 34920, Note_on_c, 13, 54, 42
15, 35160, Note_off_c, 13, 54, 0
15, 35160, Note_on_c, 13, 51, 44
15, 35280, Note_off_c, 13, 51, 0
15, 35280, Note_on_c, 13, 52, 45
15, 35400, Note_off_c, 13, 52, 0
15, 35400, Note_on_c, 13, 49, 45
15, 35520, Note_off_c, 13, 49, 0
15, 35520, Note_on_c, 13, 56, 46
15, 35760, Note_off_c, 13, 56, 0
15, 35760, Note_on_c, 13, 61, 48
15, 36120, Note_off_c, 13, 61, 0
15, 36120, Note_on_c, 13, 49, 50
15, 36240, Note_off_c, 13, 49, 0
15, 36240, Note_on_c, 13, 61, 51
15, 36360, Note_off_c, 13, 61, 0
15, 36360, Note_on_c, 13, 59, 51
15, 36480, Note_off_c, 13, 59, 0
15, 36480, Note_on_c, 13, 58, 52
15, 36600, Note_off_c, 13, 58, 0
15, 36600, Note_on_c, 13, 54, 53
15, 36720, Note_off_c, 13, 54, 0
15, 36720, Note_on_c, 13, 56, 54
15, 36840, Note_off_c, 13, 56, 0
15, 36840, Note_on_c, 13, 58, 54
15, 36960, Note_off_c, 13, 58, 0
15, 36960, Note_on_c, 13, 59, 55
15, 37080, Note_off_c, 13, 59, 0
15, 37080, Note_on_c, 13, 47, 56
15, 37200, Note_off_c, 13, 47, 0
15, 37200, Note_on_c, 13, 59, 57
15, 37320, Note_off_c, 13, 59, 0
15, 37320, Note_on_c, 13, 57, 57
15, 37440, Note_off_c, 13, 57, 0
15, 37440, Note_on_c, 13, 56, 58
15, 37560, Note_off_c, 13, 56, 0
15, 37560, Note_on_c, 13, 52, 59
15, 37680, Note_off_c, 13, 52, 0
15, 37680, Note_on_c, 13, 54, 60
15, 37800, Note_off_c, 13, 54, 0
15, 37800, Note_on_c, 13, 56, 60
15, 37920, Note_off_c, 13, 56, 0
15, 37920, Note_on_c, 13, 57, 61
15, 38040, Note_off_c, 13, 57, 0
15, 38040, Note_on_c, 13, 45, 62
15, 38160, Note_off_c, 13, 45, 0
15, 38160, Note_on_c, 13, 57, 63
15, 38280, Note_off_c, 13, 57, 0
15, 38280, Note_on_c, 13, 55, 63
15, 38400, Note_off_c, 13, 55, 0
15, 38400, Note_on_c, 13, 54, 64
15, 38520, Note_off_c, 13, 54, 0
15, 38520, Note_on_c, 13, 50, 64
15, 38640, Note_off_c, 13, 50, 0
15, 38640, Note_on_c, 13, 52, 64
15, 38760, Note_off_c, 13, 52, 0
15, 38760, Note_on_c, 13, 54, 64
15, 38880, Note_off_c, 13, 54, 0
15, 38880, Note_on_c, 13, 55, 64
15, 39120, Note_off_c, 13, 55, 0
15, 39120, Note_on_c, 13, 54, 64
15, 39240, Note_off_c, 13, 54, 0
15, 39240, Note_on_c, 13, 52, 64
15, 39360, Note_off_c, 13, 52, 0
15, 39360, Note_on_c, 13, 54, 64
15, 39600, Note_off_c, 13, 54, 0
15, 39600, Note_on_c, 13, 47, 64
15, 40080, Note_off_c, 13, 47, 0
15, 40080, Note_on_c, 13, 45, 64
15, 40320, Note_off_c, 13, 45, 0
15, 40320, Note_on_c, 13, 44, 64
15, 40440, Note_off_c, 13, 44, 0
15, 40440, Note_on_c, 13, 42, 64
15, 40560, Note_off_c, 13, 42, 0
15, 40560, Note_on_c, 13, 44, 64
15, 40680, Note_off_c, 13, 44, 0
15, 40680, Note_on_c, 13, 46, 64
15, 40800, Note_off_c, 13, 46, 0
15, 40800, Note_on_c, 13, 47, 64
15, 41040, Note_off_c, 13, 47, 0
15, 41040, Note_on_c, 13, 45, 64
15, 41160, Note_off_c, 13, 45, 0
15, 41160, Note_on_c, 13, 44, 64
15, 41280, Note_off_c, 13, 44, 0
15, 41280, Note_on_c, 13, 45, 64
15, 41520, Note_off_c, 13, 45, 0
15, 41520, Note_on_c, 13, 44, 64
15, 41760, Note_off_c, 13, 44, 0
15, 41760, Note_on_c, 13, 42, 64
15, 42000, Note_off_c, 13, 42, 0
15, 42360, Note_on_c, 13, 59, 64
15, 42600, Note_off_c, 13, 59, 0
15, 42600, Note_on_c, 13, 57, 64
15, 42720, Note_off_c, 13, 57, 0
15, 42720, Note_on_c, 13, 56, 64
15, 42840, Note_off_c, 13, 56, 0
15, 42840, Note_on_c, 13, 52, 64
15, 42960, Note_off_c, 13, 52, 0
15, 42960, Note_on_c, 13, 54, 64
15, 43080, Note_off_c, 13, 54, 0
15, 43080, Note_on_c, 13, 56, 64
15, 43200, Note_off_c, 13, 56, 0
15, 43200, Note_on_c, 13, 57, 64
15, 43320, Note_off_c, 13, 57, 0
15, 43320, Note_on_c, 13, 54, 64
15, 43440, Note_off_c, 13, 54, 0
15, 43440, Note_on_c, 13, 56, 64
15, 43560, Note_off_c, 13, 56, 0
15, 43560, Note_on_c, 13, 58, 64
15, 43680, Note_off_c, 13, 58, 0
15, 43680, Note_on_c, 13, 59, 64
15, 43800, Note_off_c, 13, 59, 0
15, 43800, Note_on_c, 13, 57, 64
15, 43920, Note_off_c, 13, 57, 0
15, 43920, Note_on_c, 13, 56, 64
15, 44040, Note_off_c, 13, 56, 0
15, 44040, Note_on_c, 13, 54, 64
15, 44160, Note_off_c, 13, 54, 0
15, 44160, Note_on_c, 13, 53, 64
15, 44280, Note_off_c, 13, 53, 0
15, 44280, Note_on_c, 13, 49, 64
15, 44400, Note_off_c, 13, 49, 0
15, 44400, Note_on_c, 13, 51, 64
15, 44520, Note_off_c, 13, 51, 0
15, 44520, Note_on_c, 13, 53, 64
15, 44640, Note_off_c, 13, 53, 0
15, 44640, Note_on_c, 13, 54, 64
15, 44760, Note_off_c, 13, 54, 0
15, 44760, Note_on_c, 13, 52, 64
15, 44880, Note_off_c, 13, 52, 0
15, 44880, Note_on_c, 13, 51, 64
15, 45000, Note_off_c, 13, 51, 0
15, 45000, Note_on_c, 13, 49, 64
15, 45120, Note_off_c, 13, 49, 0
15, 45120, Note_on_c, 13, 48, 64
15, 45360, Note_off_c, 13, 48, 0
15, 45360, Note_on_c, 13, 49, 64
15, 45600, Note_off_c, 13, 49, 0
15, 45600, Note_on_c, 13, 56, 64
15, 45840, Note_off_c, 13, 56, 0
15, 45840, Note_on_c, 13, 44, 64
15, 46080, Note_off_c, 13, 44, 0
15, 46080, Note_on_c, 13, 49, 64
15, 46200, Note_off_c, 13, 49, 0
15, 46200, Note_on_c, 13, 50, 64
15, 46320, Note_off_c, 13, 50, 0
15, 46320, Note_on_c, 13, 49, 64
15, 46440, Note_off_c, 13, 49, 0
15, 46440, Note_on_c, 13, 47, 64
15, 46560, Note_off_c, 13, 47, 0
15, 46560, Note_on_c, 13, 46, 64
15, 46680, Note_off_c, 13, 46, 0
15, 46680, Note_on_c, 13, 49, 64
15, 46800, Note_off_c, 13, 49, 0
15, 46800, Note_on_c, 13, 42, 64
15, 47040, Note_off_c, 13, 42, 0
15, 47040, Note_on_c, 13, 54, 64
15, 47400, Note_off_c, 13, 54, 0
15, 47400, Note_on_c, 13, 52, 64
15, 47520, Note_off_c, 13, 52, 0
15, 47520, Note_on_c, 13, 50, 64
15, 47640, Note_off_c, 13, 50, 0
15, 47640, Note_on_c, 13, 49, 64
15, 47760, Note_off_c, 13, 49, 0
15, 47760, Note_on_c, 13, 47, 64
15, 47880, Note_off_c, 13, 47, 0
15, 47880, Note_on_c, 13, 45, 64
15, 48000, Note_off_c, 13, 45, 0
15, 48000, Note_on_c, 13, 44, 64
15, 48120, Note_off_c, 13, 44, 0
15, 48120, Note_on_c, 13, 47, 64
15, 48240, Note_off_c, 13, 47, 0
15, 48240, Note_on_c, 13, 40, 64
15, 48480, Note_off_c, 13, 40, 0
15, 48480, Note_on_c, 13, 52, 64
15, 48840, Note_off_c, 13, 52, 0
15, 48840, Note_on_c, 13, 50, 64
15, 48960, Note_off_c, 13, 50, 0
15, 48960, Note_on_c, 13, 49, 80
15, 49200, Note_off_c, 13, 49, 0
15, 49200, Note_on_c, 13, 61, 79
15, 49560, Note_off_c, 13, 61, 0
15, 49560, Note_on_c, 13, 60, 77
15, 49680, Note_off_c, 13, 60, 0
15, 49680, Note_on_c, 13, 61, 76
15, 49800, Note_off_c, 13, 61, 0
15, 49800, Note_on_c, 13, 63, 75
15, 49920, Note_off_c, 13, 63, 0
15, 49920, Note_on_c, 13, 56, 75
15, 50160, Note_off_c, 13, 56, 0
15, 50520, Note_on_c, 13, 61, 71
15, 50760, Note_off_c, 13, 61, 0
15, 50760, Note_on_c, 13, 59, 70
15, 50880, Note_off_c, 13, 59, 0
15, 50880, Note_on_c, 13, 58, 69
15, 51000, Note_off_c, 13, 58, 0
15, 51000, Note_on_c, 13, 54, 69
15, 51120, Note_off_c, 13, 54, 0
15, 51120, Note_on_c, 13, 56, 68
15, 51240, Note_off_c, 13, 56, 0
15, 51240, Note_on_c, 13, 58, 67
15, 51360, Note_off_c, 13, 58, 0
15, 51360, Note_on_c, 13, 59, 67
15, 51480, Note_off_c, 13, 59, 0
15, 51480, Note_on_c, 13, 57, 66
15, 51600, Note_off_c, 13, 57, 0
15, 51600, Note_on_c, 13, 56, 65
15, 51720, Note_off_c, 13, 56, 0
15, 51720, Note_on_c, 13, 54, 65
15, 51840, Note_off_c, 13, 54, 0
15, 51840, Note_on_c, 13, 53, 64
15, 51960, Note_off_c, 13, 53, 0
15, 51960, Note_on_c, 13, 49, 64
15, 52080, Note_off_c, 13, 49, 0
15, 52080, Note_on_c, 13, 54, 64
15, 52200, Note_off_c, 13, 54, 0
15, 52200, Note_on_c, 13, 52, 64
15, 52320, Note_off_c, 13, 52, 0
15, 52320, Note_on_c, 13, 50, 64
15, 52440, Note_off_c, 13, 50, 0
15, 52440, Note_on_c, 13, 49, 64
15, 52560, Note_off_c, 13, 49, 0
15, 52560, Note_on_c, 13, 47, 64
15, 52920, Note_off_c, 13, 47, 0
15, 52920, Note_on_c, 13, 45, 64
15, 53040, Note_off_c, 13, 45, 0
15, 53040, Note_on_c, 13, 44, 64
15, 53160, Note_off_c, 13, 44, 0
15, 53160, Note_on_c, 13, 42, 64
15, 53280, Note_off_c, 13, 42, 0
15, 53280, Note_on_c, 13, 44, 64
15, 53400, Note_off_c, 13, 44, 0
15, 53400, Note_on_c, 13, 42, 64
15, 53520, Note_off_c, 13, 42, 0
15, 53520, Note_on_c, 13, 44, 64
15, 53640, Note_off_c, 13, 44, 0
15, 53640, Note_on_c, 13, 45, 64
15, 53760, Note_off_c, 13, 45, 0
15, 53760, Note_on_c, 13, 47, 64
15, 54000, Note_off_c, 13, 47, 0
15, 54000, Note_on_c, 13, 45, 64
15, 54120, Note_off_c, 13, 45, 0
15, 54120, Note_on_c, 13, 44, 64
15, 54240, Note_off_c, 13, 44, 0
15, 54240, Note_on_c, 13, 45, 64
15, 54480, Note_off_c, 13, 45, 0
15, 54480, Note_on_c, 13, 44, 64
15, 54720, Note_off_c, 13, 44, 0
15, 54720, Note_on_c, 13, 42, 64
15, 55320, Note_off_c, 13, 42, 0
15, 55320, Note_on_c, 13, 54, 67
15, 55440, Note_off_c, 13, 54, 0
15, 55440, Note_on_c, 13, 56, 68
15, 55560, Note_off_c, 13, 56, 0
15, 55560, Note_on_c, 13, 58, 69
15, 55680, Note_off_c, 13, 58, 0
15, 55680, Note_on_c, 13, 59, 69
15, 55800, Note_off_c, 13, 59, 0
15, 55800, Note_on_c, 13, 57, 70
15, 55920, Note_off_c, 13, 57, 0
15, 55920, Note_on_c, 13, 56, 71
15, 56040, Note_off_c, 13, 56, 0
15, 56040, Note_on_c, 13, 54, 71
15, 56160, Note_off_c, 13, 54, 0
15, 56160, Note_on_c, 13, 53, 72
15, 56400, Note_off_c, 13, 53, 0
15, 56400, Note_on_c, 13, 54, 73
15, 56520, Note_off_c, 13, 54, 0
15, 56520, Note_on_c, 13, 47, 74
15, 56640, Note_off_c, 13, 47, 0
15, 56640, Note_on_c, 13, 49, 75
15, 56880, Note_off_c, 13, 49, 0
15, 56880, Note_on_c, 13, 37, 76
15, 57120, Note_off_c, 13, 37, 0
15, 57120, Note_on_c, 13, 42, 77
15, 57600, Note_off_c, 13, 42, 0
15, 57615, End_track
16, 0, Start_track
16, 0, Title_t, "Organ rh"
16, 0, Program_c, 7, 19
16, 0, Control_c, 7, 7, 90
16, 8640, Note_on_c, 7, 66, 64
16, 8880, Note_off_c, 7, 66, 0
16, 8880, Note_on_c, 7, 67, 64
16, 9120, Note_off_c, 7, 67, 0
16, 9120, Note_on_c, 7, 65, 64
16, 9480, Note_off_c, 7, 65, 0
16, 9480, Note_on_c, 7, 66, 64
16, 9600, Note_off_c, 7, 66, 0
16, 9600, Note_on_c, 7, 68, 64
16, 9720, Note_off_c, 7, 68, 0
16, 9720, Note_on_c, 7, 66, 64
16, 9840, Note_off_c, 7, 66, 0
16, 9840, Note_on_c, 7, 68, 64
16, 9960, Note_off_c, 7, 68, 0
16, 9960, Note_on_c, 7, 69, 64
16, 10080, Note_off_c, 7, 69, 0
16, 10080, Note_on_c, 7, 71, 64
16, 10320, Note_off_c, 7, 71, 0
16, 10320, Note_on_c, 7, 69, 64
16, 10440, Note_off_c, 7, 69, 0
16, 10440, Note_on_c, 7, 68, 64
16, 10560, Note_off_c, 7, 68, 0
16, 10560, Note_on_c, 7, 69, 64
16, 10800, Note_off_c, 7, 69, 0
16, 10800, Note_on_c, 7, 68, 64
16, 11040, Note_off_c, 7, 68, 0
16, 11040, Note_on_c, 7, 66, 64
16, 11040, Note_on_c, 7, 73, 64
16, 11280, Note_off_c, 7, 73, 0
16, 11280, Note_off_c, 7, 66, 0
16, 11280, Note_on_c, 7, 66, 64
16, 11280, Note_on_c, 7, 74, 64
16, 11520, Note_off_c, 7, 74, 0
16, 11520, Note_on_c, 7, 72, 64
16, 11640, Note_off_c, 7, 66, 0
16, 11640, Note_on_c, 7, 63, 64
16, 11760, Note_off_c, 7, 63, 0
16, 11760, Note_on_c, 7, 64, 64
16, 11880, Note_off_c, 7, 64, 0
16, 11880, Note_off_c, 7, 72, 0
16, 11880, Note_on_c, 7, 61, 64
16, 11880, Note_on_c, 7, 73, 64
16, 12000, Note_off_c, 7, 73, 0
16, 12000, Note_off_c, 7, 61, 0
16, 12000, Note_on_c, 7, 60, 64
16, 12000, Note_on_c, 7, 75, 64
16, 12120, Note_off_c, 7, 75, 0
16, 12120, Note_on_c, 7, 73, 64
16, 12240, Note_off_c, 7, 73, 0
16, 12240, Note_on_c, 7, 75, 64
16, 12360, Note_off_c, 7, 75, 0
16, 12360, Note_off_c, 7, 60, 0
16, 12360, Note_on_c, 7, 61, 64
16, 12360, Note_on_c, 7, 76, 64
16, 12480, Note_off_c, 7, 76, 0
16, 12480, Note_off_c, 7, 61, 0
16, 12480, Note_on_c, 7, 61, 64
16, 12480, Note_on_c, 7, 78, 64
16, 12720, Note_off_c, 7, 78, 0
16, 12720, Note_off_c, 7, 61, 0
16, 12720, Note_on_c, 7, 73, 64
16, 12720, Note_on_c, 7, 76, 64
16, 12840, Note_off_c, 7, 76, 0
16, 12840, Note_on_c, 7, 75, 64
16, 12960, Note_off_c, 7, 75, 0
16, 12960, Note_on_c, 7, 76, 64
16, 13200, Note_off_c, 7, 76, 0
16, 13200, Note_off_c, 7, 73, 0
16, 13200, Note_on_c, 7, 72, 64
16, 13200, Note_on_c, 7, 75, 64
16, 13440, Note_off_c, 7, 75, 0
16, 13440, Note_off_c, 7, 72, 0
16, 13440, Note_on_c, 7, 73, 64
16, 13680, Note_on_c, 7, 76, 58
16, 13800, Note_off_c, 7, 73, 0
16, 13800, Note_on_c, 7, 68, 55
16, 13920, Note_off_c, 7, 68, 0
16, 13920, Note_on_c, 7, 73, 52
16, 14040, Note_off_c, 7, 73, 0
16, 14040, Note_on_c, 7, 70, 49
16, 14160, Note_off_c, 7, 70, 0
16, 14160, Note_off_c, 7, 76, 0
16, 14160, Note_on_c, 7, 71, 46
16, 14160, Note_on_c, 7, 74, 46
16, 14280, Note_off_c, 7, 74, 0
16, 14280, Note_off_c, 7, 71, 0
16, 14280, Note_on_c, 7, 73, 43
16, 14400, Note_off_c, 7, 73, 0
16, 14400, Note_on_c, 7, 71, 45
16, 14400, Note_on_c, 7, 74, 45
16, 14640, Note_off_c, 7, 74, 0
16, 14640, Note_off_c, 7, 71, 0
16, 14640, Note_on_c, 7, 70, 46
16, 14640, Note_on_c, 7, 73, 46
16, 14880, Note_off_c, 7, 73, 0
16, 14880, Note_off_c, 7, 70, 0
16, 14880, Note_on_c, 7, 71, 47
16, 15120, Note_off_c, 7, 71, 0
16, 15120, Note_on_c, 7, 66, 48
16, 15120, Note_on_c, 7, 78, 48
16, 15360, Note_off_c, 7, 66, 0
16, 15360, Note_on_c, 7, 68, 49
16, 15600, Note_off_c, 7, 78, 0
16, 15600, Note_on_c, 7, 76, 50
16, 15720, Note_off_c, 7, 76, 0
16, 15720, Note_on_c, 7, 75, 50
16, 15840, Note_off_c, 7, 75, 0
16, 15840, Note_on_c, 7, 73, 51
16, 16080, Note_off_c, 7, 73, 0
16, 16080, Note_off_c, 7, 68, 0
16, 16080, Note_on_c, 7, 68, 52
16, 16080, Note_on_c, 7, 72, 52
16, 16320, Note_off_c, 7, 72, 0
16, 16320, Note_on_c, 7, 73, 53
16, 16440, Note_off_c, 7, 68, 0
16, 16440, Note_on_c, 7, 66, 53
16, 16560, Note_off_c, 7, 73, 0
16, 16560, Note_on_c, 7, 73, 54
16, 16680, Note_off_c, 7, 66, 0
16, 16680, Note_on_c, 7, 64, 54
16, 16800, Note_off_c, 7, 64, 0
16, 16800, Note_on_c, 7, 63, 55
16, 16920, Note_off_c, 7, 63, 0
16, 16920, Note_off_c, 7, 73, 0
16, 16920, Note_on_c, 7, 65, 55
16, 16920, Note_on_c, 7, 71, 55
16, 17040, Note_off_c, 7, 71, 0
16, 17040, Note_off_c, 7, 65, 0
16, 17040, Note_on_c, 7, 66, 55
16, 17040, Note_on_c, 7, 69, 55
16, 17160, Note_off_c, 7, 69, 0
16, 17160, Note_on_c, 7, 68, 56
16, 17280, Note_off_c, 7, 68, 0
16, 17280, Note_on_c, 7, 69, 56
16, 17520, Note_off_c, 7, 69, 0
16, 17520, Note_off_c, 7, 66, 0
16, 17520, Note_on_c, 7, 65, 57
16, 17520, Note_on_c, 7, 68, 57
16, 17640, Note_off_c, 7, 68, 0
16, 17640, Note_on_c, 7, 69, 58
16, 17760, Note_off_c, 7, 69, 0
16, 17760, Note_off_c, 7, 65, 0
16, 17760, Note_on_c, 7, 71, 58
16, 17760, Note_on_c, 7, 66, 58
16, 18000, Note_off_c, 7, 66, 0
16, 18000, Note_on_c, 7, 67, 59
16, 18240, Note_off_c, 7, 67, 0
16, 18240, Note_on_c, 7, 65, 60
16, 18360, Note_off_c, 7, 71, 0
16, 18360, Note_on_c, 7, 73, 61
16, 18480, Note_off_c, 7, 73, 0
16, 18480, Note_on_c, 7, 74, 61
16, 18600, Note_off_c, 7, 65, 0
16, 18600, Note_on_c, 7, 66, 62
16, 18720, Note_off_c, 7, 66, 0
16, 18720, Note_on_c, 7, 68, 62
16, 18840, Note_off_c, 7, 68, 0
16, 18840, Note_on_c, 7, 66, 63
16, 18960, Note_off_c, 7, 66, 0
16, 18960, Note_off_c, 7, 74, 0
16, 18960, Note_on_c, 7, 73, 63
16, 18960, Note_on_c, 7, 68, 63
16, 19080, Note_off_c, 7, 68, 0
16, 19080, Note_on_c, 7, 69, 64
16, 19200, Note_off_c, 7, 69, 0
16, 19200, Note_on_c, 7, 71, 64
16, 19440, Note_off_c, 7, 71, 0
16, 19440, Note_off_c, 7, 73, 0
16, 19440, Note_on_c, 7, 69, 64
16, 19440, Note_on_c, 7, 78, 64
16, 19560, Note_off_c, 7, 78, 0
16, 19560, Note_off_c, 7, 69, 0
16, 19560, Note_on_c, 7, 68, 64
16, 19560, Note_on_c, 7, 76, 64
16, 19680, Note_off_c, 7, 76, 0
16, 19680, Note_off_c, 7, 68, 0
16, 19680, Note_on_c, 7, 69, 64
16, 19680, Note_on_c, 7, 74, 64
16, 19920, Note_off_c, 7, 74, 0
16, 19920, Note_off_c, 7, 69, 0
16, 19920, Note_on_c, 7, 68, 64
16, 19920, Note_on_c, 7, 73, 64
16, 20040, Note_off_c, 7, 73, 0
16, 20040, Note_on_c, 7, 71, 64
16, 20160, Note_off_c, 7, 71, 0
16, 20160, Note_off_c, 7, 68, 0
16, 20160, Note_on_c, 7, 66, 64
16, 20160, Note_on_c, 7, 69, 64
16, 20280, Note_off_c, 7, 69, 0
16, 20280, Note_on_c, 7, 71, 64
16, 20400, Note_off_c, 7, 71, 0
16, 20400, Note_off_c, 7, 66, 0
16, 20400, Note_on_c, 7, 69, 64
16, 20400, Note_on_c, 7, 73, 64
16, 20520, Note_off_c, 7, 73, 0
16, 20520, Note_on_c, 7, 66, 64
16, 20640, Note_off_c, 7, 66, 0
16, 20640, Note_on_c, 7, 75, 64
16, 20880, Note_off_c, 7, 75, 0
16, 20880, Note_off_c, 7, 69, 0
16, 20880, Note_on_c, 7, 67, 64
16, 20880, Note_on_c, 7, 76, 64
16, 21000, Note_off_c, 7, 76, 0
16, 21000, Note_off_c, 7, 67, 0
16, 21000, Note_on_c, 7, 66, 64
16, 21000, Note_on_c, 7, 78, 64
16, 21120, Note_off_c, 7, 78, 0
16, 21120, Note_off_c, 7, 66, 0
16, 21120, Note_on_c, 7, 64, 64
16, 21120, Note_on_c, 7, 79, 64
16, 21360, Note_off_c, 7, 79, 0
16, 21360, Note_off_c, 7, 64, 0
16, 21360, Note_on_c, 7, 63, 64
16, 21360, Note_on_c, 7, 78, 64
16, 21600, Note_off_c, 7, 78, 0
16, 21600, Note_off_c, 7, 63, 0
16, 21600, Note_on_c, 7, 64, 64
16, 21600, Note_on_c, 7, 76, 64
16, 21840, Note_off_c, 7, 76, 0
16, 21840, Note_off_c, 7, 64, 0
16, 21840, Note_on_c, 7, 71, 64
16, 21840, Note_on_c, 7, 74, 64
16, 22200, Note_off_c, 7, 74, 0
16, 22200, Note_on_c, 7, 73, 64
16, 22320, Note_off_c, 7, 71, 0
16, 22320, Note_on_c, 7, 69, 64
16, 22440, Note_off_c, 7, 69, 0
16, 22440, Note_off_c, 7, 73, 0
16, 22440, Note_on_c, 7, 68, 64
16, 22440, Note_on_c, 7, 71, 64
16, 22560, Note_off_c, 7, 71, 0
16, 22560, Note_off_c, 7, 68, 0
16, 22560, Note_on_c, 7, 66, 64
16, 22560, Note_on_c, 7, 69, 64
16, 22680, Note_off_c, 7, 69, 0
16, 22680, Note_on_c, 7, 71, 64
16, 22800, Note_off_c, 7, 71, 0
16, 22800, Note_off_c, 7, 66, 0
16, 22800, Note_on_c, 7, 65, 64
16, 22800, Note_on_c, 7, 73, 64
16, 22920, Note_off_c, 7, 73, 0
16, 22920, Note_on_c, 7, 74, 64
16, 23040, Note_off_c, 7, 74, 0
16, 23040, Note_off_c, 7, 65, 0
16, 23040, Note_on_c, 7, 76, 64
16, 23040, Note_on_c, 7, 66, 64
16, 23280, Note_off_c, 7, 66, 0
16, 23280, Note_on_c, 7, 73, 64
16, 23640, Note_off_c, 7, 73, 0
16, 23640, Note_off_c, 7, 76, 0
16, 23640, Note_on_c, 7, 71, 64
16, 23640, Note_on_c, 7, 74, 64
16, 23760, Note_off_c, 7, 74, 0
16, 23760, Note_off_c, 7, 71, 0
16, 23760, Note_on_c, 7, 74, 64
16, 23760, Note_on_c, 7, 69, 64
16, 23880, Note_off_c, 7, 69, 0
16, 23880, Note_on_c, 7, 68, 64
16, 24000, Note_off_c, 7, 68, 0
16, 24000, Note_off_c, 7, 74, 0
16, 24000, Note_on_c, 7, 69, 64
16, 24000, Note_on_c, 7, 73, 64
16, 24240, Note_off_c, 7, 73, 0
16, 24240, Note_off_c, 7, 69, 0
16, 24240, Note_on_c, 7, 68, 64
16, 24240, Note_on_c, 7, 71, 64
16, 24360, Note_off_c, 7, 71, 0
16, 24360, Note_off_c, 7, 68, 0
16, 24360, Note_on_c, 7, 66, 64
16, 24360, Note_on_c, 7, 69, 64
16, 24480, Note_off_c, 7, 69, 0
16, 24480, Note_off_c, 7, 66, 0
16, 24480, Note_on_c, 7, 68, 64
16, 24480, Note_on_c, 7, 75, 64
16, 24840, Note_off_c, 7, 75, 0
16, 24840, Note_on_c, 7, 76, 64
16, 24960, Note_off_c, 7, 76, 0
16, 24960, Note_on_c, 7, 78, 64
16, 25080, Note_off_c, 7, 78, 0
16, 25080, Note_on_c, 7, 76, 64
16, 25200, Note_off_c, 7, 76, 0
16, 25200, Note_on_c, 7, 75, 64
16, 25320, Note_off_c, 7, 75, 0
16, 25320, Note_on_c, 7, 73, 64
16, 25440, Note_off_c, 7, 73, 0
16, 25440, Note_on_c, 7, 72, 64
16, 25680, Note_off_c, 7, 72, 0
16, 25680, Note_on_c, 7, 73, 64
16, 25800, Note_off_c, 7, 73, 0
16, 25800, Note_on_c, 7, 75, 64
16, 25920, Note_off_c, 7, 75, 0
16, 26040, Note_on_c, 7, 73, 61
16, 26160, Note_off_c, 7, 68, 0
16, 26160, Note_on_c, 7, 66, 58
16, 26280, Note_off_c, 7, 73, 0
16, 26280, Note_on_c, 7, 72, 55
16, 26400, Note_off_c, 7, 72, 0
16, 26400, Note_on_c, 7, 73, 52
16, 26520, Note_off_c, 7, 73, 0
16, 26520, Note_on_c, 7, 71, 49
16, 26640, Note_off_c, 7, 71, 0
16, 26640, Note_off_c, 7, 66, 0
16, 26640, Note_on_c, 7, 65, 46
16, 26640, Note_on_c, 7, 69, 46
16, 26760, Note_off_c, 7, 69, 0
16, 26760, Note_on_c, 7, 68, 43
16, 26880, Note_off_c, 7, 68, 0
16, 26880, Note_off_c, 7, 65, 0
16, 26880, Note_on_c, 7, 66, 40
16, 27000, Note_on_c, 7, 68, 41
16, 27120, Note_off_c, 7, 68, 0
16, 27120, Note_on_c, 7, 69, 42
16, 27240, Note_off_c, 7, 66, 0
16, 27240, Note_on_c, 7, 66, 42
16, 27360, Note_off_c, 7, 66, 0
16, 27360, Note_off_c, 7, 69, 0
16, 27360, Note_on_c, 7, 64, 43
16, 27360, Note_on_c, 7, 68, 43
16, 27480, Note_off_c, 7, 68, 0
16, 27480, Note_off_c, 7, 64, 0
16, 27480, Note_on_c, 7, 66, 44
16, 27480, Note_on_c, 7, 69, 44
16, 27600, Note_off_c, 7, 69, 0
16, 27600, Note_off_c, 7, 66, 0
16, 27600, Note_on_c, 7, 68, 45
16, 27600, Note_on_c, 7, 71, 45
16, 27960, Note_off_c, 7, 71, 0
16, 27960, Note_off_c, 7, 68, 0
16, 27960, Note_on_c, 7, 66, 47
16, 27960, Note_on_c, 7, 69, 47
16, 28080, Note_off_c, 7, 69, 0
16, 28080, Note_off_c, 7, 66, 0
16, 28080, Note_on_c, 7, 68, 48
16, 28080, Note_on_c, 7, 71, 48
16, 28200, Note_off_c, 7, 71, 0
16, 28200, Note_off_c, 7, 68, 0
16, 28200, Note_on_c, 7, 70, 48
16, 28200, Note_on_c, 7, 73, 48
16, 28320, Note_off_c, 7, 73, 0
16, 28320, Note_off_c, 7, 70, 0
16, 28320, Note_on_c, 7, 71, 49
16, 28320, Note_on_c, 7, 74, 49
16, 28920, Note_off_c, 7, 74, 0
16, 28920, Note_off_c, 7, 71, 0
16, 28920, Note_on_c, 7, 69, 53
16, 28920, Note_on_c, 7, 73, 53
16, 29040, Note_off_c, 7, 73, 0
16, 29040, Note_off_c, 7, 69, 0
16, 29040, Note_on_c, 7, 68, 54
16, 29040, Note_on_c, 7, 71, 54
16, 29160, Note_off_c, 7, 71, 0
16, 29160, Note_off_c, 7, 68, 0
16, 29160, Note_on_c, 7, 66, 54
16, 29160, Note_on_c, 7, 69, 54
16, 29280, Note_off_c, 7, 69, 0
16, 29280, Note_off_c, 7, 66, 0
16, 29280, Note_on_c, 7, 65, 55
16, 29280, Note_on_c, 7, 71, 55
16, 29400, Note_off_c, 7, 71, 0
16, 29400, Note_on_c, 7, 69, 56
16, 29520, Note_off_c, 7, 69, 0
16, 29520, Note_off_c, 7, 65, 0
16, 29520, Note_on_c, 7, 65, 57
16, 29520, Note_on_c, 7, 68, 57
16, 29640, Note_off_c, 7, 68, 0
16, 29640, Note_off_c, 7, 65, 0
16, 29640, Note_on_c, 7, 66, 57
16, 29760, Note_off_c, 7, 66, 0
16, 29760, Note_on_c, 7, 65, 58
16, 29760, Note_on_c, 7, 68, 58
16, 30000, Note_off_c, 7, 68, 0
16, 30000, Note_off_c, 7, 65, 0
16, 30000, Note_on_c, 7, 66, 60
16, 30120, Note_on_c, 7, 62, 60
16, 30240, Note_off_c, 7, 62, 0
16, 30240, Note_on_c, 7, 61, 61
16, 30480, Note_off_c, 7, 61, 0
16, 30480, Note_off_c, 7, 66, 0
16, 30480, Note_on_c, 7, 61, 63
16, 30480, Note_on_c, 7, 65, 63
16, 30720, Note_off_c, 7, 65, 0
16, 30720, Note_off_c, 7, 61, 0
16, 30720, Note_on_c, 7, 61, 64
16, 30720, Note_on_c, 7, 66, 64
16, 30960, Note_off_c, 7, 66, 0
16, 30960, Note_off_c, 7, 61, 0
16, 31320, Note_on_c, 7, 71, 64
16, 31560, Note_off_c, 7, 71, 0
16, 31560, Note_on_c, 7, 69, 64
16, 31680, Note_off_c, 7, 69, 0
16, 31680, Note_on_c, 7, 68, 64
16, 31800, Note_off_c, 7, 68, 0
16, 31800, Note_on_c, 7, 64, 64
16, 31800, Note_on_c, 7, 76, 64
16, 31920, Note_off_c, 7, 64, 0
16, 31920, Note_on_c, 7, 66, 64
16, 32040, Note_off_c, 7, 66, 0
16, 32040, Note_off_c, 7, 76, 0
16, 32040, Note_on_c, 7, 68, 64
16, 32040, Note_on_c, 7, 74, 64
16, 32160, Note_off_c, 7, 74, 0
16, 32160, Note_off_c, 7, 68, 0
16, 32160, Note_on_c, 7, 69, 64
16, 32160, Note_on_c, 7, 73, 64
16, 32280, Note_off_c, 7, 73, 0
16, 32280, Note_off_c, 7, 69, 0
16, 32280, Note_on_c, 7, 67, 64
16, 32280, Note_on_c, 7, 69, 64
16, 32400, Note_off_c, 7, 69, 0
16, 32400, Note_off_c, 7, 67, 0
16, 32400, Note_on_c, 7, 66, 64
16, 32400, Note_on_c, 7, 71, 64
16, 32520, Note_off_c, 7, 71, 0
16, 32520, Note_off_c, 7, 66, 0
16, 32520, Note_on_c, 7, 64, 64
16, 32520, Note_on_c, 7, 73, 64
16, 32640, Note_off_c, 7, 73, 0
16, 32640, Note_off_c, 7, 64, 0
16, 32640, Note_on_c, 7, 62, 64
16, 32640, Note_on_c, 7, 74, 64
16, 32760, Note_off_c, 7, 74, 0
16, 32760, Note_on_c, 7, 73, 64
16, 32880, Note_off_c, 7, 73, 0
16, 32880, Note_on_c, 7, 71, 64
16, 33000, Note_off_c, 7, 71, 0
16, 33000, Note_on_c, 7, 70, 64
16, 33120, Note_off_c, 7, 70, 0
16, 33120, Note_on_c, 7, 71, 64
16, 33240, Note_off_c, 7, 71, 0
16, 33240, Note_off_c, 7, 62, 0
16, 33240, Note_on_c, 7, 64, 64
16, 33240, Note_on_c, 7, 76, 64
16, 33360, Note_off_c, 7, 76, 0
16, 33360, Note_off_c, 7, 64, 0
16, 33360, Note_on_c, 7, 66, 64
16, 33360, Note_on_c, 7, 74, 64
16, 33480, Note_off_c, 7, 74, 0
16, 33480, Note_off_c, 7, 66, 0
16, 33480, Note_on_c, 7, 67, 64
16, 33480, Note_on_c, 7, 73, 64
16, 33600, Note_off_c, 7, 73, 0
16, 33600, Note_off_c, 7, 67, 0
16, 33600, Note_on_c, 7, 66, 64
16, 33600, Note_on_c, 7, 74, 64
16, 33840, Note_off_c, 7, 74, 0
16, 33840, Note_off_c, 7, 66, 0
16, 33840, Note_on_c, 7, 73, 64
16, 34080, Note_off_c, 7, 73, 0
16, 34080, Note_on_c, 7, 66, 64
16, 34080, Note_on_c, 7, 71, 64
16, 34320, Note_off_c, 7, 71, 0
16, 34320, Note_off_c, 7, 66, 0
16, 34320, Note_on_c, 7, 67, 64
16, 34560, Note_off_c, 7, 67, 0
16, 34560, Note_on_c, 7, 65, 40
16, 34920, Note_off_c, 7, 65, 0
16, 34920, Note_on_c, 7, 66, 42
16, 35040, Note_off_c, 7, 66, 0
16, 35040, Note_on_c, 7, 68, 43
16, 35160, Note_off_c, 7, 68, 0
16, 35160, Note_on_c, 7, 66, 44
16, 35280, Note_off_c, 7, 66, 0
16, 35280, Note_on_c, 7, 68, 45
16, 35400, Note_off_c, 7, 68, 0
16, 35400, Note_on_c, 7, 69, 45
16, 35520, Note_off_c, 7, 69, 0
16, 35520, Note_on_c, 7, 71, 46
16, 35760, Note_off_c, 7, 71, 0
16, 35760, Note_on_c, 7, 69, 48
16, 35880, Note_off_c, 7, 69, 0
16, 35880, Note_on_c, 7, 68, 48
16, 36000, Note_off_c, 7, 68, 0
16, 36000, Note_on_c, 7, 69, 49
16, 36240, Note_off_c, 7, 69, 0
16, 36240, Note_on_c, 7, 68, 51
16, 36480, Note_off_c, 7, 68, 0
16, 36480, Note_on_c, 7, 66, 52
16, 36720, Note_off_c, 7, 66, 0
16, 36720, Note_on_c, 7, 73, 54
16, 37080, Note_off_c, 7, 73, 0
16, 37080, Note_on_c, 7, 66, 56
16, 37200, Note_off_c, 7, 66, 0
16, 37200, Note_on_c, 7, 68, 57
16, 37320, Note_off_c, 7, 68, 0
16, 37320, Note_on_c, 7, 69, 57
16, 37440, Note_off_c, 7, 69, 0
16, 37440, Note_on_c, 7, 71, 58
16, 38040, Note_off_c, 7, 71, 0
16, 38040, Note_on_c, 7, 64, 62
16, 38160, Note_off_c, 7, 64, 0
16, 38160, Note_on_c, 7, 66, 63
16, 38280, Note_off_c, 7, 66, 0
16, 38280, Note_on_c, 7, 67, 63
16, 38400, Note_off_c, 7, 67, 0
16, 38400, Note_on_c, 7, 69, 64
16, 38880, Note_on_c, 7, 71, 64
16, 39000, Note_off_c, 7, 69, 0
16, 39000, Note_on_c, 7, 62, 64
16, 39120, Note_off_c, 7, 62, 0
16, 39120, Note_off_c, 7, 71, 0
16, 39120, Note_on_c, 7, 67, 64
16, 39120, Note_on_c, 7, 72, 64
16, 39360, Note_off_c, 7, 72, 0
16, 39360, Note_off_c, 7, 67, 0
16, 39360, Note_on_c, 7, 70, 64
16, 39360, Note_on_c, 7, 66, 64
16, 39600, Note_off_c, 7, 66, 0
16, 39720, Note_off_c, 7, 70, 0
16, 39720, Note_on_c, 7, 71, 64
16, 39840, Note_off_c, 7, 71, 0
16, 39840, Note_on_c, 7, 68, 64
16, 39840, Note_on_c, 7, 73, 64
16, 39960, Note_off_c, 7, 73, 0
16, 39960, Note_on_c, 7, 71, 64
16, 40080, Note_off_c, 7, 71, 0
16, 40080, Note_off_c, 7, 68, 0
16, 40080, Note_on_c, 7, 69, 64
16, 40080, Note_on_c, 7, 73, 64
16, 40200, Note_off_c, 7, 73, 0
16, 40200, Note_on_c, 7, 74, 64
16, 40320, Note_off_c, 7, 74, 0
16, 40320, Note_off_c, 7, 69, 0
16, 40320, Note_on_c, 7, 71, 64
16, 40320, Note_on_c, 7, 76, 64
16, 40560, Note_off_c, 7, 76, 0
16, 40560, Note_off_c, 7, 71, 0
16, 40560, Note_on_c, 7, 66, 64
16, 40560, Note_on_c, 7, 74, 64
16, 40680, Note_off_c, 7, 74, 0
16, 40680, Note_on_c, 7, 73, 64
16, 40800, Note_off_c, 7, 73, 0
16, 40800, Note_off_c, 7, 66, 0
16, 40800, Note_on_c, 7, 66, 64
16, 40800, Note_on_c, 7, 74, 64
16, 41040, Note_off_c, 7, 74, 0
16, 41040, Note_on_c, 7, 73, 64
16, 41280, Note_off_c, 7, 73, 0
16, 41280, Note_off_c, 7, 66, 0
16, 41280, Note_on_c, 7, 66, 64
16, 41280, Note_on_c, 7, 71, 64
16, 41400, Note_off_c, 7, 71, 0
16, 41400, Note_off_c, 7, 66, 0
16, 41400, Note_on_c, 7, 73, 64
16, 41640, Note_off_c, 7, 73, 0
16, 41640, Note_on_c, 7, 71, 64
16, 41760, Note_off_c, 7, 71, 0
16, 41760, Note_on_c, 7, 70, 64
16, 41880, Note_off_c, 7, 70, 0
16, 41880, Note_on_c, 7, 66, 64
16, 41880, Note_on_c, 7, 78, 64
16, 42000, Note_off_c, 7, 66, 0
16, 42000, Note_on_c, 7, 68, 64
16, 42120, Note_off_c, 7, 68, 0
16, 42120, Note_off_c, 7, 78, 0
16, 42120, Note_on_c, 7, 70, 64
16, 42120, Note_on_c, 7, 76, 64
16, 42240, Note_off_c, 7, 76, 0
16, 42240, Note_off_c, 7, 70, 0
16, 42240, Note_on_c, 7, 71, 64
16, 42240, Note_on_c, 7, 75, 64
16, 42360, Note_off_c, 7, 75, 0
16, 42360, Note_off_c, 7, 71, 0
16, 42360, Note_on_c, 7, 69, 64
16, 42360, Note_on_c, 7, 71, 64
16, 42480, Note_off_c, 7, 71, 0
16, 42480, Note_off_c, 7, 69, 0
16, 42480, Note_on_c, 7, 68, 64
16, 42480, Note_on_c, 7, 73, 64
16, 42600, Note_off_c, 7, 73, 0
16, 42600, Note_off_c, 7, 68, 0
16, 42600, Note_on_c, 7, 66, 64
16, 42600, Note_on_c, 7, 75, 64
16, 42720, Note_off_c, 7, 75, 0
16, 42720, Note_off_c, 7, 66, 0
16, 42720, Note_on_c, 7, 64, 64
16, 42720, Note_on_c, 7, 76, 64
16, 42840, Note_off_c, 7, 76, 0
16, 42840, Note_on_c, 7, 74, 64
16, 42960, Note_off_c, 7, 74, 0
16, 42960, Note_on_c, 7, 73, 64
16, 43080, Note_off_c, 7, 73, 0
16, 43080, Note_on_c, 7, 71, 64
16, 43200, Note_off_c, 7, 71, 0
16, 43200, Note_on_c, 7, 73, 64
16, 43680, Note_off_c, 7, 64, 0
16, 43680, Note_on_c, 7, 62, 64
16, 43800, Note_off_c, 7, 73, 0
16, 43800, Note_on_c, 7, 66, 64
16, 43920, Note_off_c, 7, 66, 0
16, 43920, Note_on_c, 7, 71, 64
16, 44160, Note_off_c, 7, 62, 0
16, 44160, Note_on_c, 7, 61, 64
16, 44280, Note_off_c, 7, 61, 0
16, 44280, Note_off_c, 7, 71, 0
16, 44280, Note_on_c, 7, 65, 64
16, 44280, Note_on_c, 7, 74, 64
16, 44400, Note_off_c, 7, 74, 0
16, 44400, Note_off_c, 7, 65, 0
16, 44400, Note_on_c, 7, 66, 64
16, 44400, Note_on_c, 7, 73, 64
16, 44520, Note_off_c, 7, 73, 0
16, 44520, Note_off_c, 7, 66, 0
16, 44520, Note_on_c, 7, 68, 64
16, 44520, Note_on_c, 7, 71, 64
16, 44640, Note_off_c, 7, 71, 0
16, 44640, Note_off_c, 7, 68, 0
16, 44640, Note_on_c, 7, 69, 64
16, 44760, Note_off_c, 7, 69, 0
16, 44760, Note_on_c, 7, 66, 64
16, 44760, Note_on_c, 7, 73, 64
16, 44880, Note_off_c, 7, 73, 0
16, 44880, Note_off_c, 7, 66, 0
16, 44880, Note_on_c, 7, 78, 64
16, 44880, Note_on_c, 7, 72, 64
16, 45000, Note_off_c, 7, 72, 0
16, 45000, Note_on_c, 7, 73, 64
16, 45120, Note_off_c, 7, 73, 0
16, 45120, Note_on_c, 7, 75, 64
16, 45240, Note_off_c, 7, 78, 0
16, 45240, Note_on_c, 7, 75, 64
16, 45360, Note_off_c, 7, 75, 0
16, 45360, Note_off_c, 7, 75, 0
16, 45360, Note_on_c, 7, 68, 64
16, 45360, Note_on_c, 7, 76, 64
16, 45480, Note_off_c, 7, 76, 0
16, 45480, Note_on_c, 7, 73, 64
16, 45720, Note_off_c, 7, 73, 0
16, 45720, Note_on_c, 7, 70, 64
16, 45840, Note_off_c, 7, 70, 0
16, 45840, Note_off_c, 7, 68, 0
16, 45840, Note_on_c, 7, 68, 64
16, 45840, Note_on_c, 7, 72, 64
16, 46080, Note_off_c, 7, 72, 0
16, 46080, Note_off_c, 7, 68, 0
16, 46080, Note_on_c, 7, 68, 64
16, 46080, Note_on_c, 7, 73, 64
16, 46320, Note_off_c, 7, 73, 0
16, 46320, Note_off_c, 7, 68, 0
16, 46320, Note_on_c, 7, 73, 64
16, 46320, Note_on_c, 7, 76, 64
16, 46560, Note_off_c, 7, 73, 0
16, 46560, Note_on_c, 7, 66, 64
16, 46800, Note_off_c, 7, 66, 0
16, 46800, Note_off_c, 7, 76, 0
16, 46800, Note_on_c, 7, 68, 64
16, 46800, Note_on_c, 7, 74, 64
16, 46920, Note_off_c, 7, 74, 0
16, 46920, Note_off_c, 7, 68, 0
16, 46920, Note_on_c, 7, 70, 64
16, 46920, Note_on_c, 7, 73, 64
16, 47040, Note_off_c, 7, 73, 0
16, 47040, Note_off_c, 7, 70, 0
16, 47040, Note_on_c, 7, 71, 64
16, 47280, Note_off_c, 7, 71, 0
16, 47280, Note_on_c, 7, 70, 64
16, 47280, Note_on_c, 7, 73, 64
16, 47520, Note_off_c, 7, 73, 0
16, 47520, Note_off_c, 7, 70, 0
16, 47520, Note_on_c, 7, 66, 64
16, 47520, Note_on_c, 7, 71, 64
16, 47760, Note_off_c, 7, 71, 0
16, 47760, Note_on_c, 7, 74, 64
16, 47880, Note_off_c, 7, 66, 0
16, 47880, Note_on_c, 7, 59, 64
16, 48000, Note_off_c, 7, 59, 0
16, 48000, Note_on_c, 7, 71, 64
16, 48120, Note_off_c, 7, 71, 0
16, 48120, Note_on_c, 7, 68, 64
16, 48240, Note_off_c, 7, 68, 0
16, 48240, Note_off_c, 7, 74, 0
16, 48240, Note_on_c, 7, 69, 64
16, 48240, Note_on_c, 7, 73, 64
16, 48360, Note_off_c, 7, 73, 0
16, 48360, Note_off_c, 7, 69, 0
16, 48360, Note_on_c, 7, 71, 64
16, 48480, Note_off_c, 7, 71, 0
16, 48480, Note_on_c, 7, 69, 64
16, 48480, Note_on_c, 7, 73, 64
16, 48720, Note_off_c, 7, 73, 0
16, 48720, Note_off_c, 7, 69, 0
16, 48720, Note_on_c, 7, 68, 64
16, 48720, Note_on_c, 7, 71, 64
16, 48960, Note_off_c, 7, 71, 0
16, 48960, Note_off_c, 7, 68, 0
16, 48960, Note_on_c, 7, 69, 80
16, 49080, Note_on_c, 7, 81, 79
16, 49200, Note_off_c, 7, 69, 0
16, 49320, Note_off_c, 7, 81, 0
16, 49320, Note_on_c, 7, 80, 78
16, 49440, Note_off_c, 7, 80, 0
16, 49440, Note_on_c, 7, 79, 77
16, 49560, Note_off_c, 7, 79, 0
16, 49560, Note_on_c, 7, 75, 77
16, 49680, Note_on_c, 7, 77, 76
16, 49800, Note_off_c, 7, 77, 0
16, 49800, Note_off_c, 7, 75, 0
16, 49800, Note_on_c, 7, 73, 75
16, 49800, Note_on_c, 7, 79, 75
16, 49920, Note_off_c, 7, 79, 0
16, 49920, Note_off_c, 7, 73, 0
16, 49920, Note_on_c, 7, 72, 75
16, 49920, Note_on_c, 7, 80, 75
16, 50040, Note_off_c, 7, 80, 0
16, 50040, Note_off_c, 7, 72, 0
16, 50040, Note_on_c, 7, 68, 74
16, 50040, Note_on_c, 7, 78, 74
16, 50160, Note_off_c, 7, 78, 0
16, 50160, Note_off_c, 7, 68, 0
16, 50160, Note_on_c, 7, 70, 73
16, 50160, Note_on_c, 7, 77, 73
16, 50280, Note_off_c, 7, 77, 0
16, 50280, Note_off_c, 7, 70, 0
16, 50280, Note_on_c, 7, 72, 73
16, 50280, Note_on_c, 7, 75, 73
16, 50400, Note_off_c, 7, 75, 0
16, 50400, Note_off_c, 7, 72, 0
16, 50400, Note_on_c, 7, 73, 72
16, 50520, Note_on_c, 7, 71, 71
16, 50640, Note_off_c, 7, 71, 0
16, 50640, Note_on_c, 7, 70, 71
16, 50760, Note_off_c, 7, 70, 0
16, 50760, Note_on_c, 7, 68, 70
16, 50880, Note_off_c, 7, 68, 0
16, 50880, Note_on_c, 7, 66, 69
16, 51000, Note_off_c, 7, 73, 0
16, 51000, Note_on_c, 7, 78, 69
16, 51240, Note_off_c, 7, 78, 0
16, 51240, Note_on_c, 7, 76, 67
16, 51360, Note_off_c, 7, 76, 0
16, 51360, Note_on_c, 7, 75, 67
16, 51600, Note_off_c, 7, 75, 0
16, 51600, Note_off_c, 7, 66, 0
16, 51600, Note_on_c, 7, 74, 65
16, 51600, Note_on_c, 7, 65, 65
16, 51720, Note_off_c, 7, 65, 0
16, 51720, Note_on_c, 7, 66, 65
16, 51840, Note_off_c, 7, 66, 0
16, 51840, Note_off_c, 7, 74, 0
16, 51840, Note_on_c, 7, 68, 64
16, 51840, Note_on_c, 7, 73, 64
16, 52080, Note_off_c, 7, 73, 0
16, 52080, Note_off_c, 7, 68, 0
16, 52080, Note_on_c, 7, 66, 64
16, 52080, Note_on_c, 7, 73, 64
16, 52320, Note_off_c, 7, 73, 0
16, 52320, Note_off_c, 7, 66, 0
16, 52320, Note_on_c, 7, 71, 64
16, 52320, Note_on_c, 7, 69, 64
16, 52560, Note_off_c, 7, 69, 0
16, 52680, Note_off_c, 7, 71, 0
16, 52680, Note_on_c, 7, 69, 64
16, 52800, Note_off_c, 7, 69, 0
16, 52800, Note_on_c, 7, 68, 64
16, 52800, Note_on_c, 7, 73, 64
16, 53040, Note_off_c, 7, 73, 0
16, 53040, Note_off_c, 7, 68, 0
16, 53040, Note_on_c, 7, 74, 64
16, 53040, Note_on_c, 7, 68, 64
16, 53160, Note_off_c, 7, 68, 0
16, 53160, Note_on_c, 7, 69, 64
16, 53280, Note_off_c, 7, 69, 0
16, 53280, Note_off_c, 7, 74, 0
16, 53280, Note_on_c, 7, 72, 64
16, 53280, Note_on_c, 7, 63, 64
16, 53520, Note_off_c, 7, 63, 0
16, 53520, Note_on_c, 7, 68, 64
16, 53640, Note_off_c, 7, 72, 0
16, 53640, Note_on_c, 7, 73, 64
16, 53760, Note_off_c, 7, 73, 0
16, 53760, Note_off_c, 7, 68, 0
16, 53760, Note_on_c, 7, 66, 64
16, 53760, Note_on_c, 7, 75, 64
16, 53880, Note_off_c, 7, 75, 0
16, 53880, Note_off_c, 7, 66, 0
16, 53880, Note_on_c, 7, 68, 64
16, 53880, Note_on_c, 7, 73, 64
16, 54000, Note_off_c, 7, 73, 0
16, 54000, Note_off_c, 7, 68, 0
16, 54000, Note_on_c, 7, 69, 64
16, 54000, Note_on_c, 7, 75, 64
16, 54120, Note_off_c, 7, 75, 0
16, 54120, Note_off_c, 7, 69, 0
16, 54120, Note_on_c, 7, 71, 64
16, 54120, Note_on_c, 7, 77, 64
16, 54240, Note_off_c, 7, 77, 0
16, 54240, Note_off_c, 7, 71, 0
16, 54240, Note_on_c, 7, 64, 64
16, 54240, Note_on_c, 7, 78, 64
16, 54480, Note_off_c, 7, 78, 0
16, 54480, Note_off_c, 7, 64, 0
16, 54480, Note_on_c, 7, 71, 64
16, 54480, Note_on_c, 7, 76, 64
16, 54600, Note_off_c, 7, 76, 0
16, 54600, Note_off_c, 7, 71, 0
16, 54600, Note_on_c, 7, 71, 64
16, 54600, Note_on_c, 7, 75, 64
16, 54720, Note_off_c, 7, 75, 0
16, 54720, Note_off_c, 7, 71, 0
16, 54720, Note_on_c, 7, 76, 64
16, 54720, Note_on_c, 7, 73, 64
16, 54840, Note_off_c, 7, 73, 0
16, 54840, Note_on_c, 7, 66, 65
16, 54960, Note_off_c, 7, 76, 0
16, 54960, Note_on_c, 7, 74, 65
16, 55080, Note_off_c, 7, 66, 0
16, 55080, Note_on_c, 7, 65, 66
16, 55200, Note_off_c, 7, 65, 0
16, 55200, Note_off_c, 7, 74, 0
16, 55200, Note_on_c, 7, 66, 67
16, 55200, Note_on_c, 7, 73, 67
16, 55440, Note_off_c, 7, 73, 0
16, 55440, Note_off_c, 7, 66, 0
16, 55440, Note_on_c, 7, 66, 68
16, 55440, Note_on_c, 7, 73, 68
16, 55800, Note_off_c, 7, 73, 0
16, 55800, Note_off_c, 7, 66, 0
16, 55800, Note_on_c, 7, 66, 70
16, 55920, Note_off_c, 7, 66, 0
16, 55920, Note_on_c, 7, 65, 71
16, 55920, Note_on_c, 7, 68, 71
16, 56040, Note_off_c, 7, 68, 0
16, 56040, Note_off_c, 7, 65, 0
16, 56040, Note_on_c, 7, 66, 71
16, 56040, Note_on_c, 7, 69, 71
16, 56160, Note_off_c, 7, 69, 0
16, 56160, Note_off_c, 7, 66, 0
16, 56160, Note_on_c, 7, 68, 72
16, 56160, Note_on_c, 7, 71, 72
16, 56280, Note_off_c, 7, 71, 0
16, 56280, Note_off_c, 7, 68, 0
16, 56280, Note_on_c, 7, 71, 73
16, 56280, Note_on_c, 7, 74, 73
16, 56400, Note_off_c, 7, 74, 0
16, 56400, Note_off_c, 7, 71, 0
16, 56400, Note_on_c, 7, 69, 73
16, 56400, Note_on_c, 7, 73, 73
16, 56520, Note_off_c, 7, 73, 0
16, 56520, Note_off_c, 7, 69, 0
16, 56520, Note_on_c, 7, 68, 74
16, 56520, Note_on_c, 7, 71, 74
16, 56640, Note_off_c, 7, 71, 0
16, 56640, Note_off_c, 7, 68, 0
16, 56640, Note_on_c, 7, 66, 75
16, 56640, Note_on_c, 7, 69, 75
16, 56880, Note_off_c, 7, 69, 0
16, 56880, Note_off_c, 7, 66, 0
16, 56880, Note_on_c, 7, 65, 76
16, 56880, Note_on_c, 7, 68, 76
16, 57120, Note_off_c, 7, 68, 0
16, 57120, Note_off_c, 7, 65, 0
16, 57120, Note_on_c, 7, 61, 77
16, 57120, Note_on_c, 7, 66, 77
16, 57600, Note_off_c, 7, 66, 0
16, 57600, Note_off_c, 7, 61, 0
16, 57615, End_track
17, 0, Start_track
17, 0, Title_t, "Organ lh"
17, 0, Program_c, 7, 19
17, 0, Control_c, 7, 7, 90
17, 960, Note_on_c, 7, 54, 64
17, 1200, Note_off_c, 7, 54, 0
17, 1200, Note_on_c, 7, 55, 64
17, 1440, Note_off_c, 7, 55, 0
17, 1440, Note_on_c, 7, 53, 64
17, 1800, Note_off_c, 7, 53, 0
17, 1800, Note_on_c, 7, 54, 64
17, 1920, Note_off_c, 7, 54, 0
17, 1920, Note_on_c, 7, 56, 64
17, 2040, Note_off_c, 7, 56, 0
17, 2040, Note_on_c, 7, 54, 64
17, 2160, Note_off_c, 7, 54, 0
17, 2160, Note_on_c, 7, 56, 64
17, 2280, Note_off_c, 7, 56, 0
17, 2280, Note_on_c, 7, 57, 64
17, 2400, Note_off_c, 7, 57, 0
17, 2400, Note_on_c, 7, 59, 64
17, 2640, Note_off_c, 7, 59, 0
17, 2640, Note_on_c, 7, 57, 64
17, 2760, Note_off_c, 7, 57, 0
17, 2760, Note_on_c, 7, 56, 64
17, 2880, Note_off_c, 7, 56, 0
17, 2880, Note_on_c, 7, 57, 64
17, 3120, Note_off_c, 7, 57, 0
17, 3120, Note_on_c, 7, 56, 64
17, 3360, Note_off_c, 7, 56, 0
17, 3360, Note_on_c, 7, 54, 64
17, 3360, Note_on_c, 7, 61, 64
17, 3600, Note_off_c, 7, 61, 0
17, 3600, Note_off_c, 7, 54, 0
17, 3600, Note_on_c, 7, 54, 64
17, 3600, Note_on_c, 7, 62, 64
17, 3840, Note_off_c, 7, 62, 0
17, 3840, Note_on_c, 7, 60, 64
17, 3960, Note_off_c, 7, 54, 0
17, 3960, Note_on_c, 7, 51, 64
17, 4080, Note_off_c, 7, 51, 0
17, 4080, Note_on_c, 7, 52, 64
17, 4200, Note_off_c, 7, 52, 0
17, 4200, Note_off_c, 7, 60, 0
17, 4200, Note_on_c, 7, 49, 64
17, 4200, Note_on_c, 7, 61, 64
17, 4320, Note_off_c, 7, 61, 0
17, 4320, Note_off_c, 7, 49, 0
17, 4320, Note_on_c, 7, 48, 64
17, 4320, Note_on_c, 7, 63, 64
17, 4440, Note_off_c, 7, 63, 0
17, 4440, Note_on_c, 7, 61, 64
17, 4560, Note_off_c, 7, 61, 0
17, 4560, Note_on_c, 7, 63, 64
17, 4680, Note_off_c, 7, 63, 0
17, 4680, Note_off_c, 7, 48, 0
17, 4680, Note_on_c, 7, 49, 64
17, 4680, Note_on_c, 7, 64, 64
17, 4800, Note_off_c, 7, 64, 0
17, 4800, Note_off_c, 7, 49, 0
17, 4800, Note_on_c, 7, 49, 64
17, 4800, Note_on_c, 7, 66, 64
17, 5040, Note_off_c, 7, 66, 0
17, 5040, Note_off_c, 7, 49, 0
17, 5040, Note_on_c, 7, 61, 64
17, 5040, Note_on_c, 7, 64, 64
17, 5160, Note_off_c, 7, 64, 0
17, 5160, Note_on_c, 7, 63, 64
17, 5280, Note_off_c, 7, 63, 0
17, 5280, Note_on_c, 7, 64, 64
17, 5520, Note_off_c, 7, 64, 0
17, 5520, Note_off_c, 7, 61, 0
17, 5520, Note_on_c, 7, 60, 64
17, 5520, Note_on_c, 7, 63, 64
17, 5760, Note_off_c, 7, 63, 0
17, 5760, Note_off_c, 7, 60, 0
17, 5760, Note_on_c, 7, 61, 45
17, 6000, Note_on_c, 7, 64, 45
17, 6120, Note_off_c, 7, 61, 0
17, 6120, Note_on_c, 7, 56, 45
17, 6240, Note_off_c, 7, 56, 0
17, 6240, Note_on_c, 7, 61, 45
17, 6360, Note_off_c, 7, 61, 0
17, 6360, Note_on_c, 7, 58, 45
17, 6480, Note_off_c, 7, 58, 0
17, 6480, Note_off_c, 7, 64, 0
17, 6480, Note_on_c, 7, 59, 45
17, 6480, Note_on_c, 7, 62, 45
17, 6600, Note_off_c, 7, 62, 0
17, 6600, Note_off_c, 7, 59, 0
17, 6600, Note_on_c, 7, 61, 45
17, 6720, Note_off_c, 7, 61, 0
17, 6720, Note_on_c, 7, 59, 45
17, 6720, Note_on_c, 7, 62, 45
17, 6960, Note_off_c, 7, 62, 0
17, 6960, Note_off_c, 7, 59, 0
17, 6960, Note_on_c, 7, 58, 45
17, 6960, Note_on_c, 7, 61, 45
17, 7200, Note_off_c, 7, 61, 0
17, 7200, Note_off_c, 7, 58, 0
17, 7200, Note_on_c, 7, 59, 45
17, 7440, Note_on_c, 7, 62, 45
17, 7560, Note_off_c, 7, 59, 0
17, 7560, Note_on_c, 7, 54, 45
17, 7680, Note_off_c, 7, 54, 0
17, 7680, Note_on_c, 7, 59, 45
17, 7800, Note_off_c, 7, 59, 0
17, 7800, Note_on_c, 7, 56, 45
17, 7920, Note_off_c, 7, 56, 0
17, 7920, Note_off_c, 7, 62, 0
17, 7920, Note_on_c, 7, 57, 45
17, 7920, Note_on_c, 7, 61, 45
17, 8040, Note_off_c, 7, 61, 0
17, 8040, Note_off_c, 7, 57, 0
17, 8040, Note_on_c, 7, 59, 45
17, 8160, Note_off_c, 7, 59, 0
17, 8160, Note_on_c, 7, 57, 45
17, 8160, Note_on_c, 7, 61, 45
17, 8400, Note_off_c, 7, 61, 0
17, 8400, Note_off_c, 7, 57, 0
17, 8400, Note_on_c, 7, 56, 45
17, 8400, Note_on_c, 7, 59, 45
17, 8640, Note_off_c, 7, 59, 0
17, 8640, Note_off_c, 7, 56, 0
17, 8640, Note_on_c, 7, 58, 64
17, 8640, Note_on_c, 7, 61, 64
17, 8880, Note_off_c, 7, 61, 0
17, 8880, Note_off_c, 7, 58, 0
17, 8880, Note_on_c, 7, 59, 64
17, 8880, Note_on_c, 7, 62, 64
17, 9120, Note_off_c, 7, 62, 0
17, 9120, Note_on_c, 7, 56, 64
17, 9240, Note_off_c, 7, 59, 0
17, 9240, Note_on_c, 7, 56, 64
17, 9360, Note_off_c, 7, 56, 0
17, 9360, Note_off_c, 7, 56, 0
17, 9360, Note_on_c, 7, 54, 64
17, 9360, Note_on_c, 7, 57, 64
17, 9480, Note_off_c, 7, 57, 0
17, 9480, Note_on_c, 7, 54, 64
17, 9600, Note_off_c, 7, 54, 0
17, 9600, Note_off_c, 7, 54, 0
17, 9600, Note_on_c, 7, 53, 64
17, 9600, Note_on_c, 7, 61, 64
17, 9840, Note_off_c, 7, 61, 0
17, 9840, Note_on_c, 7, 49, 64
17, 9960, Note_off_c, 7, 53, 0
17, 9960, Note_on_c, 7, 54, 64
17, 10080, Note_off_c, 7, 54, 0
17, 10080, Note_off_c, 7, 49, 0
17, 10080, Note_on_c, 7, 50, 64
17, 10080, Note_on_c, 7, 54, 64
17, 10320, Note_off_c, 7, 54, 0
17, 10320, Note_off_c, 7, 50, 0
17, 10320, Note_on_c, 7, 66, 64
17, 10320, Note_on_c, 7, 49, 64
17, 10440, Note_off_c, 7, 49, 0
17, 10440, Note_on_c, 7, 47, 64
17, 10560, Note_off_c, 7, 47, 0
17, 10560, Note_on_c, 7, 49, 64
17, 10680, Note_off_c, 7, 49, 0
17, 10680, Note_on_c, 7, 61, 64
17, 10800, Note_off_c, 7, 66, 0
17, 10800, Note_on_c, 7, 65, 64
17, 10920, Note_off_c, 7, 61, 0
17, 10920, Note_on_c, 7, 59, 64
17, 11040, Note_off_c, 7, 59, 0
17, 11040, Note_off_c, 7, 65, 0
17, 11040, Note_on_c, 7, 66, 64
17, 11040, Note_on_c, 7, 57, 64
17, 11160, Note_off_c, 7, 57, 0
17, 11160, Note_on_c, 7, 56, 64
17, 11280, Note_off_c, 7, 56, 0
17, 11280, Note_off_c, 7, 66, 0
17, 11280, Note_on_c, 7, 54, 64
17, 11280, Note_on_c, 7, 57, 64
17, 11520, Note_off_c, 7, 57, 0
17, 11520, Note_off_c, 7, 54, 0
17, 11520, Note_on_c, 7, 56, 64
17, 11760, Note_on_c, 7, 68, 64
17, 11880, Note_off_c, 7, 68, 0
17, 11880, Note_on_c, 7, 64, 64
17, 12000, Note_off_c, 7, 64, 0
17, 12000, Note_on_c, 7, 66, 64
17, 12240, Note_off_c, 7, 66, 0
17, 12240, Note_off_c, 7, 56, 0
17, 12240, Note_on_c, 7, 63, 64
17, 12240, Note_on_c, 7, 54, 64
17, 12360, Note_off_c, 7, 54, 0
17, 12360, Note_on_c, 7, 56, 64
17, 12480, Note_off_c, 7, 56, 0
17, 12480, Note_off_c, 7, 63, 0
17, 12480, Note_on_c, 7, 57, 64
17, 12480, Note_on_c, 7, 61, 64
17, 12720, Note_off_c, 7, 61, 0
17, 12720, Note_off_c, 7, 57, 0
17, 12720, Note_on_c, 7, 69, 64
17, 12720, Note_on_c, 7, 56, 64
17, 12840, Note_off_c, 7, 56, 0
17, 12840, Note_on_c, 7, 54, 64
17, 12960, Note_off_c, 7, 54, 0
17, 12960, Note_off_c, 7, 69, 0
17, 12960, Note_on_c, 7, 68, 64
17, 12960, Note_on_c, 7, 56, 64
17, 13200, Note_off_c, 7, 56, 0
17, 13200, Note_on_c, 7, 44, 64
17, 13320, Note_off_c, 7, 68, 0
17, 13320, Note_on_c, 7, 66, 64
17, 13440, Note_off_c, 7, 66, 0
17, 13440, Note_off_c, 7, 44, 0
17, 13440, Note_on_c, 7, 49, 64
17, 13440, Note_on_c, 7, 64, 64
17, 13560, Note_off_c, 7, 64, 0
17, 13560, Note_on_c, 7, 63, 61
17, 13680, Note_off_c, 7, 63, 0
17, 13680, Note_off_c, 7, 49, 0
17, 13680, Note_on_c, 7, 61, 58
17, 13800, Note_off_c, 7, 61, 0
17, 13800, Note_on_c, 7, 59, 55
17, 13920, Note_off_c, 7, 59, 0
17, 13920, Note_on_c, 7, 58, 52
17, 14040, Note_off_c, 7, 58, 0
17, 14040, Note_on_c, 7, 61, 49
17, 14160, Note_off_c, 7, 61, 0
17, 14160, Note_on_c, 7, 54, 46
17, 14400, Note_off_c, 7, 54, 0
17, 14400, Note_on_c, 7, 66, 45
17, 14760, Note_off_c, 7, 66, 0
17, 14760, Note_on_c, 7, 64, 46
17, 14880, Note_off_c, 7, 64, 0
17, 14880, Note_on_c, 7, 62, 47
17, 15000, Note_off_c, 7, 62, 0
17, 15000, Note_on_c, 7, 64, 47
17, 15120, Note_off_c, 7, 64, 0
17, 15120, Note_on_c, 7, 62, 48
17, 15240, Note_off_c, 7, 62, 0
17, 15240, Note_on_c, 7, 61, 48
17, 15360, Note_off_c, 7, 61, 0
17, 15360, Note_on_c, 7, 60, 49
17, 15480, Note_off_c, 7, 60, 0
17, 15480, Note_on_c, 7, 56, 49
17, 15600, Note_off_c, 7, 56, 0
17, 15600, Note_on_c, 7, 61, 50
17, 15720, Note_off_c, 7, 61, 0
17, 15720, Note_on_c, 7, 63, 50
17, 15840, Note_off_c, 7, 63, 0
17, 15840, Note_on_c, 7, 64, 51
17, 16080, Note_off_c, 7, 64, 0
17, 16080, Note_on_c, 7, 63, 52
17, 16320, Note_off_c, 7, 63, 0
17, 16320, Note_on_c, 7, 61, 53
17, 16560, Note_off_c, 7, 61, 0
17, 16560, Note_on_c, 7, 64, 54
17, 16680, Note_off_c, 7, 64, 0
17, 16680, Note_on_c, 7, 58, 54
17, 16800, Note_off_c, 7, 58, 0
17, 16800, Note_on_c, 7, 59, 55
17, 17040, Note_off_c, 7, 59, 0
17, 17040, Note_on_c, 7, 60, 55
17, 17280, Note_off_c, 7, 60, 0
17, 17280, Note_on_c, 7, 61, 56
17, 17520, Note_off_c, 7, 61, 0
17, 17520, Note_on_c, 7, 61, 57
17, 17640, Note_off_c, 7, 61, 0
17, 17640, Note_on_c, 7, 61, 58
17, 17760, Note_off_c, 7, 61, 0
17, 17760, Note_on_c, 7, 62, 58
17, 18360, Note_off_c, 7, 62, 0
17, 18360, Note_on_c, 7, 61, 61
17, 18480, Note_off_c, 7, 61, 0
17, 18480, Note_on_c, 7, 59, 61
17, 18600, Note_off_c, 7, 59, 0
17, 18600, Note_on_c, 7, 57, 62
17, 18720, Note_off_c, 7, 57, 0
17, 18720, Note_on_c, 7, 56, 62
17, 18840, Note_off_c, 7, 56, 0
17, 18840, Note_on_c, 7, 57, 63
17, 18960, Note_off_c, 7, 57, 0
17, 18960, Note_on_c, 7, 56, 63
17, 19080, Note_off_c, 7, 56, 0
17, 19080, Note_on_c, 7, 54, 64
17, 19200, Note_off_c, 7, 54, 0
17, 19200, Note_on_c, 7, 53, 64
17, 19440, Note_off_c, 7, 53, 0
17, 19440, Note_on_c, 7, 54, 64
17, 19920, Note_off_c, 7, 54, 0
17, 19920, Note_on_c, 7, 53, 64
17, 20160, Note_off_c, 7, 53, 0
17, 20160, Note_on_c, 7, 54, 64
17, 20880, Note_off_c, 7, 54, 0
17, 20880, Note_on_c, 7, 55, 64
17, 21000, Note_off_c, 7, 55, 0
17, 21000, Note_on_c, 7, 57, 64
17, 21120, Note_off_c, 7, 57, 0
17, 21120, Note_on_c, 7, 59, 64
17, 21360, Note_off_c, 7, 59, 0
17, 21360, Note_on_c, 7, 57, 64
17, 21600, Note_off_c, 7, 57, 0
17, 21600, Note_on_c, 7, 56, 64
17, 21720, Note_off_c, 7, 56, 0
17, 21720, Note_on_c, 7, 68, 64
17, 21960, Note_off_c, 7, 68, 0
17, 21960, Note_on_c, 7, 66, 64
17, 22080, Note_off_c, 7, 66, 0
17, 22080, Note_on_c, 7, 65, 64
17, 22200, Note_off_c, 7, 65, 0
17, 22200, Note_on_c, 7, 61, 64
17, 22320, Note_off_c, 7, 61, 0
17, 22320, Note_on_c, 7, 66, 64
17, 22440, Note_off_c, 7, 66, 0
17, 22440, Note_on_c, 7, 68, 64
17, 22560, Note_off_c, 7, 68, 0
17, 22560, Note_on_c, 7, 69, 64
17, 22800, Note_off_c, 7, 69, 0
17, 22800, Note_on_c, 7, 68, 64
17, 23040, Note_off_c, 7, 68, 0
17, 23040, Note_on_c, 7, 66, 64
17, 23280, Note_off_c, 7, 66, 0
17, 23280, Note_on_c, 7, 58, 64
17, 23520, Note_off_c, 7, 58, 0
17, 23520, Note_on_c, 7, 59, 64
17, 23760, Note_off_c, 7, 59, 0
17, 23760, Note_on_c, 7, 66, 64
17, 24000, Note_off_c, 7, 66, 0
17, 24000, Note_on_c, 7, 49, 64
17, 24000, Note_on_c, 7, 65, 64
17, 24240, Note_off_c, 7, 65, 0
17, 24240, Note_off_c, 7, 49, 0
17, 24240, Note_on_c, 7, 50, 64
17, 24240, Note_on_c, 7, 66, 64
17, 24480, Note_off_c, 7, 50, 0
17, 24480, Note_on_c, 7, 48, 64
17, 24600, Note_off_c, 7, 66, 0
17, 24600, Note_on_c, 7, 64, 64
17, 24720, Note_off_c, 7, 64, 0
17, 24720, Note_on_c, 7, 63, 64
17, 24840, Note_off_c, 7, 63, 0
17, 24840, Note_off_c, 7, 48, 0
17, 24840, Note_on_c, 7, 49, 64
17, 24840, Note_on_c, 7, 61, 64
17, 24960, Note_off_c, 7, 61, 0
17, 24960, Note_off_c, 7, 49, 0
17, 24960, Note_on_c, 7, 51, 64
17, 24960, Note_on_c, 7, 60, 64
17, 25080, Note_off_c, 7, 60, 0
17, 25080, Note_off_c, 7, 51, 0
17, 25080, Note_on_c, 7, 49, 64
17, 25080, Note_on_c, 7, 61, 64
17, 25200, Note_off_c, 7, 61, 0
17, 25200, Note_off_c, 7, 49, 0
17, 25200, Note_on_c, 7, 51, 64
17, 25200, Note_on_c, 7, 60, 64
17, 25320, Note_off_c, 7, 60, 0
17, 25320, Note_off_c, 7, 51, 0
17, 25320, Note_on_c, 7, 52, 64
17, 25320, Note_on_c, 7, 61, 64
17, 25440, Note_off_c, 7, 61, 0
17, 25440, Note_off_c, 7, 52, 0
17, 25440, Note_on_c, 7, 54, 64
17, 25440, Note_on_c, 7, 63, 64
17, 25680, Note_off_c, 7, 63, 0
17, 25680, Note_off_c, 7, 54, 0
17, 25680, Note_on_c, 7, 52, 64
17, 25680, Note_on_c, 7, 61, 64
17, 25800, Note_off_c, 7, 61, 0
17, 25800, Note_off_c, 7, 52, 0
17, 25800, Note_on_c, 7, 51, 64
17, 25800, Note_on_c, 7, 60, 64
17, 25920, Note_off_c, 7, 60, 0
17, 25920, Note_off_c, 7, 51, 0
17, 25920, Note_on_c, 7, 52, 64
17, 25920, Note_on_c, 7, 61, 64
17, 26160, Note_off_c, 7, 61, 0
17, 26160, Note_off_c, 7, 52, 0
17, 26160, Note_on_c, 7, 51, 58
17, 26160, Note_on_c, 7, 63, 58
17, 26400, Note_off_c, 7, 63, 0
17, 26400, Note_off_c, 7, 51, 0
17, 26400, Note_on_c, 7, 49, 52
17, 26400, Note_on_c, 7, 56, 52
17, 26640, Note_off_c, 7, 56, 0
17, 26640, Note_off_c, 7, 49, 0
17, 26640, Note_on_c, 7, 49, 46
17, 26640, Note_on_c, 7, 61, 46
17, 26880, Note_off_c, 7, 49, 0
17, 26880, Note_on_c, 7, 50, 40
17, 27120, Note_off_c, 7, 50, 0
17, 27120, Note_off_c, 7, 61, 0
17, 27120, Note_on_c, 7, 51, 42
17, 27120, Note_on_c, 7, 59, 42
17, 27360, Note_off_c, 7, 51, 0
17, 27360, Note_on_c, 7, 52, 43
17, 27480, Note_off_c, 7, 59, 0
17, 27480, Note_on_c, 7, 61, 44
17, 27600, Note_off_c, 7, 61, 0
17, 27600, Note_off_c, 7, 52, 0
17, 27600, Note_on_c, 7, 53, 45
17, 27600, Note_on_c, 7, 62, 45
17, 27840, Note_off_c, 7, 62, 0
17, 27840, Note_off_c, 7, 53, 0
17, 27840, Note_on_c, 7, 54, 46
17, 27840, Note_on_c, 7, 61, 46
17, 28080, Note_off_c, 7, 61, 0
17, 28200, Note_off_c, 7, 54, 0
17, 28200, Note_on_c, 7, 52, 48
17, 28320, Note_off_c, 7, 52, 0
17, 28320, Note_on_c, 7, 54, 49
17, 28320, Note_on_c, 7, 50, 49
17, 28440, Note_off_c, 7, 50, 0
17, 28440, Note_on_c, 7, 49, 50
17, 28560, Note_off_c, 7, 49, 0
17, 28560, Note_off_c, 7, 54, 0
17, 28560, Note_on_c, 7, 47, 51
17, 28560, Note_on_c, 7, 55, 51
17, 28800, Note_off_c, 7, 55, 0
17, 28800, Note_off_c, 7, 47, 0
17, 28800, Note_on_c, 7, 49, 52
17, 28800, Note_on_c, 7, 53, 52
17, 29160, Note_off_c, 7, 53, 0
17, 29160, Note_on_c, 7, 54, 54
17, 29280, Note_off_c, 7, 54, 0
17, 29280, Note_on_c, 7, 56, 55
17, 29400, Note_off_c, 7, 56, 0
17, 29400, Note_on_c, 7, 54, 56
17, 29520, Note_off_c, 7, 54, 0
17, 29520, Note_off_c, 7, 49, 0
17, 29520, Note_on_c, 7, 50, 57
17, 29520, Note_on_c, 7, 56, 57
17, 29640, Note_off_c, 7, 56, 0
17, 29640, Note_on_c, 7, 57, 57
17, 29760, Note_off_c, 7, 57, 0
17, 29760, Note_on_c, 7, 59, 58
17, 29880, Note_off_c, 7, 50, 0
17, 29880, Note_on_c, 7, 49, 59
17, 30000, Note_off_c, 7, 49, 0
17, 30000, Note_off_c, 7, 59, 0
17, 30000, Note_on_c, 7, 50, 60
17, 30000, Note_on_c, 7, 57, 60
17, 30120, Note_off_c, 7, 57, 0
17, 30120, Note_off_c, 7, 50, 0
17, 30120, Note_on_c, 7, 47, 60
17, 30120, Note_on_c, 7, 56, 60
17, 30240, Note_off_c, 7, 56, 0
17, 30240, Note_off_c, 7, 47, 0
17, 30240, Note_on_c, 7, 57, 61
17, 30240, Note_on_c, 7, 49, 61
17, 30360, Note_off_c, 7, 49, 0
17, 30360, Note_on_c, 7, 61, 62
17, 30480, Note_off_c, 7, 57, 0
17, 30480, Note_on_c, 7, 56, 63
17, 30600, Note_off_c, 7, 61, 0
17, 30600, Note_on_c, 7, 59, 63
17, 30720, Note_off_c, 7, 59, 0
17, 30720, Note_off_c, 7, 56, 0
17, 30720, Note_on_c, 7, 54, 64
17, 30720, Note_on_c, 7, 58, 64
17, 30840, Note_off_c, 7, 58, 0
17, 30840, Note_off_c, 7, 54, 0
17, 30840, Note_on_c, 7, 54, 64
17, 30840, Note_on_c, 7, 66, 64
17, 30960, Note_off_c, 7, 54, 0
17, 30960, Note_on_c, 7, 56, 64
17, 31080, Note_off_c, 7, 56, 0
17, 31080, Note_off_c, 7, 66, 0
17, 31080, Note_on_c, 7, 58, 64
17, 31080, Note_on_c, 7, 64, 64
17, 31200, Note_off_c, 7, 64, 0
17, 31200, Note_off_c, 7, 58, 0
17, 31200, Note_on_c, 7, 59, 64
17, 31200, Note_on_c, 7, 63, 64
17, 31320, Note_off_c, 7, 63, 0
17, 31320, Note_off_c, 7, 59, 0
17, 31320, Note_on_c, 7, 57, 64
17, 31320, Note_on_c, 7, 59, 64
17, 31440, Note_off_c, 7, 59, 0
17, 31440, Note_off_c, 7, 57, 0
17, 31440, Note_on_c, 7, 56, 64
17, 31440, Note_on_c, 7, 61, 64
17, 31560, Note_off_c, 7, 61, 0
17, 31560, Note_off_c, 7, 56, 0
17, 31560, Note_on_c, 7, 54, 64
17, 31560, Note_on_c, 7, 63, 64
17, 31680, Note_off_c, 7, 63, 0
17, 31680, Note_off_c, 7, 54, 0
17, 31680, Note_on_c, 7, 52, 64
17, 31680, Note_on_c, 7, 64, 64
17, 31800, Note_off_c, 7, 64, 0
17, 31800, Note_on_c, 7, 62, 64
17, 31920, Note_off_c, 7, 62, 0
17, 31920, Note_off_c, 7, 52, 0
17, 31920, Note_on_c, 7, 52, 64
17, 31920, Note_on_c, 7, 61, 64
17, 32040, Note_off_c, 7, 61, 0
17, 32040, Note_on_c, 7, 59, 64
17, 32160, Note_off_c, 7, 59, 0
17, 32160, Note_off_c, 7, 52, 0
17, 32160, Note_on_c, 7, 57, 64
17, 32160, Note_on_c, 7, 45, 64
17, 32280, Note_off_c, 7, 45, 0
17, 32280, Note_on_c, 7, 57, 64
17, 32520, Note_off_c, 7, 57, 0
17, 32520, Note_on_c, 7, 55, 64
17, 32640, Note_off_c, 7, 55, 0
17, 32640, Note_on_c, 7, 54, 64
17, 32760, Note_off_c, 7, 54, 0
17, 32760, Note_on_c, 7, 50, 64
17, 32880, Note_off_c, 7, 50, 0
17, 32880, Note_off_c, 7, 57, 0
17, 32880, Note_on_c, 7, 52, 64
17, 32880, Note_on_c, 7, 55, 64
17, 33000, Note_off_c, 7, 55, 0
17, 33000, Note_off_c, 7, 52, 0
17, 33000, Note_on_c, 7, 54, 64
17, 33120, Note_off_c, 7, 54, 0
17, 33120, Note_on_c, 7, 55, 64
17, 33120, Note_on_c, 7, 59, 64
17, 33360, Note_off_c, 7, 59, 0
17, 33360, Note_off_c, 7, 55, 0
17, 33360, Note_on_c, 7, 59, 64
17, 33360, Note_on_c, 7, 54, 64
17, 33480, Note_off_c, 7, 54, 0
17, 33480, Note_on_c, 7, 52, 64
17, 33600, Note_off_c, 7, 52, 0
17, 33600, Note_off_c, 7, 59, 0
17, 33600, Note_on_c, 7, 54, 64
17, 33600, Note_on_c, 7, 59, 64
17, 33840, Note_off_c, 7, 59, 0
17, 33840, Note_off_c, 7, 54, 0
17, 33840, Note_on_c, 7, 42, 64
17, 33840, Note_on_c, 7, 58, 64
17, 34080, Note_off_c, 7, 58, 0
17, 34080, Note_off_c, 7, 42, 0
17, 34080, Note_on_c, 7, 47, 64
17, 34080, Note_on_c, 7, 62, 64
17, 34320, Note_off_c, 7, 62, 0
17, 34320, Note_off_c, 7, 47, 0
17, 34560, Note_on_c, 7, 61, 40
17, 34800, Note_off_c, 7, 61, 0
17, 34800, Note_on_c, 7, 62, 42
17, 35040, Note_off_c, 7, 62, 0
17, 35040, Note_on_c, 7, 60, 43
17, 35400, Note_off_c, 7, 60, 0
17, 35400, Note_on_c, 7, 61, 45
17, 35520, Note_off_c, 7, 61, 0
17, 35520, Note_on_c, 7, 63, 46
17, 35640, Note_off_c, 7, 63, 0
17, 35640, Note_on_c, 7, 61, 47
17, 35760, Note_off_c, 7, 61, 0
17, 35760, Note_on_c, 7, 63, 48
17, 35880, Note_off_c, 7, 63, 0
17, 35880, Note_on_c, 7, 64, 48
17, 36000, Note_off_c, 7, 64, 0
17, 36000, Note_on_c, 7, 66, 49
17, 36240, Note_off_c, 7, 66, 0
17, 36240, Note_on_c, 7, 64, 51
17, 36360, Note_off_c, 7, 64, 0
17, 36360, Note_on_c, 7, 63, 51
17, 36480, Note_off_c, 7, 63, 0
17, 36480, Note_on_c, 7, 64, 52
17, 36720, Note_off_c, 7, 64, 0
17, 36720, Note_on_c, 7, 62, 54
17, 36840, Note_off_c, 7, 62, 0
17, 36840, Note_on_c, 7, 61, 54
17, 36960, Note_off_c, 7, 61, 0
17, 36960, Note_on_c, 7, 62, 55
17, 37200, Note_off_c, 7, 62, 0
17, 37200, Note_on_c, 7, 62, 57
17, 37560, Note_off_c, 7, 62, 0
17, 37560, Note_on_c, 7, 56, 59
17, 37680, Note_off_c, 7, 56, 0
17, 37680, Note_on_c, 7, 57, 60
17, 37800, Note_off_c, 7, 57, 0
17, 37800, Note_on_c, 7, 59, 60
17, 37920, Note_off_c, 7, 59, 0
17, 37920, Note_on_c, 7, 61, 61
17, 38520, Note_off_c, 7, 61, 0
17, 38520, Note_on_c, 7, 54, 64
17, 38640, Note_off_c, 7, 54, 0
17, 38640, Note_on_c, 7, 55, 64
17, 38760, Note_off_c, 7, 55, 0
17, 38760, Note_on_c, 7, 57, 64
17, 38880, Note_off_c, 7, 57, 0
17, 38880, Note_on_c, 7, 59, 64
17, 39120, Note_off_c, 7, 59, 0
17, 39120, Note_on_c, 7, 64, 64
17, 39360, Note_on_c, 7, 54, 64
17, 39600, Note_off_c, 7, 54, 0
17, 39600, Note_off_c, 7, 64, 0
17, 39600, Note_on_c, 7, 55, 64
17, 39600, Note_on_c, 7, 62, 64
17, 39840, Note_off_c, 7, 62, 0
17, 39840, Note_off_c, 7, 55, 0
17, 39840, Note_on_c, 7, 61, 64
17, 39840, Note_on_c, 7, 53, 64
17, 40200, Note_off_c, 7, 53, 0
17, 40200, Note_on_c, 7, 54, 64
17, 40320, Note_off_c, 7, 54, 0
17, 40320, Note_off_c, 7, 61, 0
17, 40320, Note_on_c, 7, 56, 64
17, 40320, Note_on_c, 7, 59, 64
17, 40440, Note_off_c, 7, 59, 0
17, 40440, Note_off_c, 7, 56, 0
17, 40440, Note_on_c, 7, 54, 64
17, 40440, Note_on_c, 7, 57, 64
17, 40560, Note_off_c, 7, 57, 0
17, 40560, Note_off_c, 7, 54, 0
17, 40560, Note_on_c, 7, 56, 64
17, 40560, Note_on_c, 7, 59, 64
17, 40680, Note_off_c, 7, 59, 0
17, 40680, Note_off_c, 7, 56, 0
17, 40680, Note_on_c, 7, 58, 64
17, 40680, Note_on_c, 7, 61, 64
17, 40800, Note_off_c, 7, 61, 0
17, 40800, Note_off_c, 7, 58, 0
17, 40800, Note_on_c, 7, 59, 64
17, 40800, Note_on_c, 7, 54, 64
17, 40920, Note_off_c, 7, 54, 0
17, 40920, Note_on_c, 7, 56, 64
17, 41040, Note_off_c, 7, 56, 0
17, 41040, Note_off_c, 7, 59, 0
17, 41040, Note_on_c, 7, 57, 64
17, 41160, Note_off_c, 7, 57, 0
17, 41160, Note_on_c, 7, 54, 64
17, 41160, Note_on_c, 7, 56, 64
17, 41280, Note_off_c, 7, 56, 0
17, 41280, Note_off_c, 7, 54, 0
17, 41280, Note_on_c, 7, 51, 64
17, 41280, Note_on_c, 7, 57, 64
17, 41520, Note_off_c, 7, 57, 0
17, 41520, Note_off_c, 7, 51, 0
17, 41520, Note_on_c, 7, 53, 64
17, 41520, Note_on_c, 7, 56, 64
17, 41760, Note_off_c, 7, 56, 0
17, 41760, Note_off_c, 7, 53, 0
17, 41760, Note_on_c, 7, 54, 64
17, 42000, Note_off_c, 7, 54, 0
17, 42360, Note_on_c, 7, 59, 64
17, 42600, Note_off_c, 7, 59, 0
17, 42600, Note_on_c, 7, 57, 64
17, 42720, Note_off_c, 7, 57, 0
17, 42720, Note_on_c, 7, 56, 64
17, 42840, Note_off_c, 7, 56, 0
17, 42840, Note_on_c, 7, 52, 64
17, 42840, Note_on_c, 7, 64, 64
17, 42960, Note_off_c, 7, 52, 0
17, 42960, Note_on_c, 7, 54, 64
17, 43080, Note_off_c, 7, 54, 0
17, 43080, Note_off_c, 7, 64, 0
17, 43080, Note_on_c, 7, 56, 64
17, 43080, Note_on_c, 7, 62, 64
17, 43200, Note_off_c, 7, 62, 0
17, 43200, Note_off_c, 7, 56, 0
17, 43200, Note_on_c, 7, 57, 64
17, 43200, Note_on_c, 7, 61, 64
17, 43320, Note_off_c, 7, 61, 0
17, 43320, Note_off_c, 7, 57, 0
17, 43320, Note_on_c, 7, 54, 64
17, 43320, Note_on_c, 7, 57, 64
17, 43440, Note_off_c, 7, 57, 0
17, 43440, Note_off_c, 7, 54, 0
17, 43440, Note_on_c, 7, 56, 64
17, 43440, Note_on_c, 7, 59, 64
17, 43560, Note_off_c, 7, 59, 0
17, 43560, Note_off_c, 7, 56, 0
17, 43560, Note_on_c, 7, 58, 64
17, 43560, Note_on_c, 7, 61, 64
17, 43680, Note_off_c, 7, 61, 0
17, 43680, Note_off_c, 7, 58, 0
17, 43680, Note_on_c, 7, 59, 64
17, 43680, Note_on_c, 7, 62, 64
17, 43800, Note_off_c, 7, 62, 0
17, 43800, Note_off_c, 7, 59, 0
17, 43800, Note_on_c, 7, 57, 64
17, 43800, Note_on_c, 7, 61, 64
17, 43920, Note_off_c, 7, 61, 0
17, 43920, Note_off_c, 7, 57, 0
17, 43920, Note_on_c, 7, 56, 64
17, 43920, Note_on_c, 7, 59, 64
17, 44040, Note_off_c, 7, 59, 0
17, 44040, Note_off_c, 7, 56, 0
17, 44040, Note_on_c, 7, 54, 64
17, 44040, Note_on_c, 7, 57, 64
17, 44160, Note_off_c, 7, 57, 0
17, 44160, Note_off_c, 7, 54, 0
17, 44160, Note_on_c, 7, 53, 64
17, 44160, Note_on_c, 7, 56, 64
17, 44280, Note_off_c, 7, 56, 0
17, 44280, Note_off_c, 7, 53, 0
17, 44280, Note_on_c, 7, 49, 64
17, 44280, Note_on_c, 7, 59, 64
17, 44400, Note_off_c, 7, 59, 0
17, 44400, Note_off_c, 7, 49, 0
17, 44400, Note_on_c, 7, 51, 64
17, 44400, Note_on_c, 7, 57, 64
17, 44520, Note_off_c, 7, 57, 0
17, 44520, Note_off_c, 7, 51, 0
17, 44520, Note_on_c, 7, 53, 64
17, 44520, Note_on_c, 7, 56, 64
17, 44640, Note_off_c, 7, 56, 0
17, 44640, Note_off_c, 7, 53, 0
17, 44640, Note_on_c, 7, 54, 64
17, 44760, Note_on_c, 7, 52, 64
17, 44880, Note_off_c, 7, 52, 0
17, 44880, Note_off_c, 7, 54, 0
17, 44880, Note_on_c, 7, 57, 64
17, 44880, Note_on_c, 7, 51, 64
17, 45000, Note_off_c, 7, 51, 0
17, 45000, Note_on_c, 7, 49, 64
17, 45120, Note_off_c, 7, 49, 0
17, 45120, Note_off_c, 7, 57, 0
17, 45120, Note_on_c, 7, 48, 64
17, 45120, Note_on_c, 7, 56, 64
17, 45360, Note_off_c, 7, 56, 0
17, 45360, Note_off_c, 7, 48, 0
17, 45360, Note_on_c, 7, 49, 64
17, 45360, Note_on_c, 7, 61, 64
17, 45480, Note_off_c, 7, 61, 0
17, 45480, Note_off_c, 7, 49, 0
17, 45480, Note_on_c, 7, 49, 64
17, 45480, Note_on_c, 7, 64, 64
17, 45600, Note_off_c, 7, 64, 0
17, 45600, Note_off_c, 7, 49, 0
17, 45600, Note_on_c, 7, 56, 64
17, 45600, Note_on_c, 7, 63, 64
17, 45720, Note_off_c, 7, 63, 0
17, 45720, Note_on_c, 7, 64, 64
17, 45840, Note_off_c, 7, 64, 0
17, 45840, Note_off_c, 7, 56, 0
17, 45840, Note_on_c, 7, 44, 64
17, 45840, Note_on_c, 7, 66, 64
17, 46080, Note_off_c, 7, 66, 0
17, 46080, Note_off_c, 7, 44, 0
17, 46080, Note_on_c, 7, 49, 64
17, 46080, Note_on_c, 7, 64, 64
17, 46320, Note_off_c, 7, 64, 0
17, 46320, Note_off_c, 7, 49, 0
17, 46320, Note_on_c, 7, 49, 64
17, 46320, Note_on_c, 7, 68, 64
17, 46440, Note_off_c, 7, 68, 0
17, 46440, Note_off_c, 7, 49, 0
17, 46440, Note_on_c, 7, 47, 64
17, 46440, Note_on_c, 7, 56, 64
17, 46560, Note_off_c, 7, 56, 0
17, 46560, Note_off_c, 7, 47, 0
17, 46560, Note_on_c, 7, 46, 64
17, 46560, Note_on_c, 7, 61, 64
17, 46680, Note_off_c, 7, 61, 0
17, 46680, Note_on_c, 7, 58, 64
17, 46800, Note_off_c, 7, 58, 0
17, 46800, Note_off_c, 7, 46, 0
17, 46800, Note_on_c, 7, 42, 64
17, 46800, Note_on_c, 7, 59, 64
17, 46920, Note_off_c, 7, 59, 0
17, 46920, Note_on_c, 7, 61, 64
17, 47040, Note_off_c, 7, 61, 0
17, 47040, Note_off_c, 7, 42, 0
17, 47040, Note_on_c, 7, 54, 64
17, 47040, Note_on_c, 7, 62, 64
17, 47280, Note_off_c, 7, 62, 0
17, 47280, Note_on_c, 7, 61, 64
17, 47400, Note_off_c, 7, 54, 0
17, 47400, Note_on_c, 7, 52, 64
17, 47520, Note_off_c, 7, 52, 0
17, 47520, Note_off_c, 7, 61, 0
17, 47520, Note_on_c, 7, 59, 64
17, 47520, Note_on_c, 7, 50, 64
17, 47640, Note_off_c, 7, 50, 0
17, 47640, Note_on_c, 7, 49, 64
17, 47760, Note_off_c, 7, 49, 0
17, 47760, Note_off_c, 7, 59, 0
17, 47760, Note_on_c, 7, 47, 64
17, 47760, Note_on_c, 7, 66, 64
17, 47880, Note_off_c, 7, 66, 0
17, 47880, Note_off_c, 7, 47, 0
17, 47880, Note_on_c, 7, 45, 64
17, 47880, Note_on_c, 7, 62, 64
17, 48000, Note_off_c, 7, 62, 0
17, 48000, Note_off_c, 7, 45, 0
17, 48000, Note_on_c, 7, 64, 64
17, 48000, Note_on_c, 7, 44, 64
17, 48120, Note_off_c, 7, 44, 0
17, 48120, Note_on_c, 7, 47, 64
17, 48240, Note_off_c, 7, 47, 0
17, 48240, Note_off_c, 7, 64, 0
17, 48240, Note_on_c, 7, 49, 64
17, 48240, Note_on_c, 7, 64, 64
17, 48360, Note_off_c, 7, 64, 0
17, 48360, Note_off_c, 7, 49, 0
17, 48360, Note_on_c, 7, 50, 64
17, 48360, Note_on_c, 7, 62, 64
17, 48480, Note_off_c, 7, 62, 0
17, 48480, Note_off_c, 7, 50, 0
17, 48480, Note_on_c, 7, 52, 64
17, 48480, Note_on_c, 7, 61, 64
17, 48600, Note_off_c, 7, 61, 0
17, 48600, Note_on_c, 7, 62, 64
17, 48720, Note_off_c, 7, 62, 0
17, 48720, Note_on_c, 7, 64, 64
17, 48840, Note_off_c, 7, 52, 0
17, 48840, Note_on_c, 7, 50, 64
17, 48960, Note_off_c, 7, 50, 0
17, 48960, Note_off_c, 7, 64, 0
17, 48960, Note_on_c, 7, 64, 80
17, 48960, Note_on_c, 7, 49, 80
17, 49080, Note_off_c, 7, 49, 0
17, 49080, Note_on_c, 7, 52, 79
17, 49200, Note_off_c, 7, 52, 0
17, 49200, Note_off_c, 7, 64, 0
17, 49200, Note_on_c, 7, 45, 79
17, 49440, Note_off_c, 7, 45, 0
17, 50040, Note_on_c, 7, 68, 74
17, 50280, Note_off_c, 7, 68, 0
17, 50280, Note_on_c, 7, 66, 73
17, 50400, Note_off_c, 7, 66, 0
17, 50400, Note_on_c, 7, 65, 72
17, 50520, Note_off_c, 7, 65, 0
17, 50520, Note_on_c, 7, 61, 71
17, 50640, Note_on_c, 7, 63, 71
17, 50760, Note_off_c, 7, 63, 0
17, 50760, Note_off_c, 7, 61, 0
17, 50760, Note_on_c, 7, 59, 70
17, 50760, Note_on_c, 7, 65, 70
17, 50880, Note_off_c, 7, 65, 0
17, 50880, Note_off_c, 7, 59, 0
17, 50880, Note_on_c, 7, 58, 69
17, 50880, Note_on_c, 7, 66, 69
17, 51000, Note_off_c, 7, 66, 0
17, 51000, Note_off_c, 7, 58, 0
17, 51000, Note_on_c, 7, 54, 69
17, 51000, Note_on_c, 7, 58, 69
17, 51120, Note_off_c, 7, 58, 0
17, 51120, Note_off_c, 7, 54, 0
17, 51120, Note_on_c, 7, 56, 68
17, 51120, Note_on_c, 7, 59, 68
17, 51240, Note_off_c, 7, 59, 0
17, 51240, Note_off_c, 7, 56, 0
17, 51240, Note_on_c, 7, 58, 67
17, 51240, Note_on_c, 7, 61, 67
17, 51360, Note_off_c, 7, 58, 0
17, 51360, Note_on_c, 7, 59, 67
17, 51480, Note_off_c, 7, 59, 0
17, 51480, Note_off_c, 7, 61, 0
17, 51480, Note_on_c, 7, 54, 66
17, 51480, Note_on_c, 7, 57, 66
17, 51600, Note_off_c, 7, 57, 0
17, 51600, Note_off_c, 7, 54, 0
17, 51600, Note_on_c, 7, 59, 65
17, 51600, Note_on_c, 7, 56, 65
17, 51720, Note_off_c, 7, 56, 0
17, 51720, Note_on_c, 7, 54, 65
17, 51840, Note_off_c, 7, 54, 0
17, 51840, Note_on_c, 7, 53, 64
17, 51960, Note_off_c, 7, 53, 0
17, 51960, Note_on_c, 7, 49, 64
17, 52080, Note_off_c, 7, 49, 0
17, 52080, Note_off_c, 7, 59, 0
17, 52080, Note_on_c, 7, 54, 64
17, 52080, Note_on_c, 7, 57, 64
17, 52200, Note_off_c, 7, 57, 0
17, 52200, Note_on_c, 7, 57, 64
17, 52320, Note_off_c, 7, 57, 0
17, 52320, Note_on_c, 7, 62, 64
17, 52560, Note_off_c, 7, 54, 0
17, 52560, Note_on_c, 7, 55, 64
17, 52680, Note_off_c, 7, 62, 0
17, 52680, Note_on_c, 7, 61, 64
17, 52740, Note_off_c, 7, 61, 0
17, 52740, Note_on_c, 7, 59, 64
17, 52800, Note_off_c, 7, 59, 0
17, 52800, Note_off_c, 7, 55, 0
17, 52800, Note_on_c, 7, 53, 64
17, 52800, Note_on_c, 7, 61, 64
17, 53040, Note_off_c, 7, 61, 0
17, 53040, Note_on_c, 7, 59, 64
17, 53160, Note_off_c, 7, 59, 0
17, 53160, Note_off_c, 7, 53, 0
17, 53160, Note_on_c, 7, 54, 64
17, 53160, Note_on_c, 7, 66, 64
17, 53280, Note_off_c, 7, 66, 0
17, 53280, Note_off_c, 7, 54, 0
17, 53280, Note_on_c, 7, 66, 64
17, 53280, Note_on_c, 7, 56, 64
17, 53400, Note_off_c, 7, 56, 0
17, 53400, Note_on_c, 7, 54, 64
17, 53520, Note_off_c, 7, 54, 0
17, 53520, Note_off_c, 7, 66, 0
17, 53520, Note_on_c, 7, 64, 64
17, 53520, Note_on_c, 7, 56, 64
17, 53640, Note_off_c, 7, 56, 0
17, 53640, Note_on_c, 7, 57, 64
17, 53760, Note_off_c, 7, 57, 0
17, 53760, Note_off_c, 7, 64, 0
17, 53760, Note_on_c, 7, 59, 64
17, 53760, Note_on_c, 7, 63, 64
17, 53880, Note_off_c, 7, 63, 0
17, 53880, Note_on_c, 7, 64, 64
17, 54000, Note_off_c, 7, 64, 0
17, 54000, Note_off_c, 7, 59, 0
17, 54000, Note_on_c, 7, 57, 64
17, 54000, Note_on_c, 7, 66, 64
17, 54120, Note_off_c, 7, 66, 0
17, 54120, Note_off_c, 7, 57, 0
17, 54120, Note_on_c, 7, 56, 64
17, 54120, Note_on_c, 7, 68, 64
17, 54240, Note_off_c, 7, 68, 0
17, 54240, Note_off_c, 7, 56, 0
17, 54240, Note_on_c, 7, 57, 64
17, 54240, Note_on_c, 7, 61, 64
17, 54360, Note_off_c, 7, 61, 0
17, 54360, Note_on_c, 7, 62, 64
17, 54480, Note_off_c, 7, 62, 0
17, 54480, Note_off_c, 7, 57, 0
17, 54480, Note_on_c, 7, 56, 64
17, 54480, Note_on_c, 7, 64, 64
17, 54720, Note_off_c, 7, 64, 0
17, 54720, Note_off_c, 7, 56, 0
17, 54720, Note_on_c, 7, 54, 64
17, 54720, Note_on_c, 7, 58, 64
17, 54960, Note_off_c, 7, 58, 0
17, 54960, Note_on_c, 7, 59, 65
17, 55320, Note_off_c, 7, 59, 0
17, 55320, Note_off_c, 7, 54, 0
17, 55320, Note_on_c, 7, 54, 67
17, 55320, Note_on_c, 7, 58, 67
17, 55440, Note_off_c, 7, 58, 0
17, 55440, Note_off_c, 7, 54, 0
17, 55440, Note_on_c, 7, 56, 68
17, 55440, Note_on_c, 7, 59, 68
17, 55560, Note_off_c, 7, 59, 0
17, 55560, Note_off_c, 7, 56, 0
17, 55560, Note_on_c, 7, 58, 69
17, 55560, Note_on_c, 7, 61, 69
17, 55680, Note_off_c, 7, 61, 0
17, 55680, Note_off_c, 7, 58, 0
17, 55680, Note_on_c, 7, 59, 69
17, 55680, Note_on_c, 7, 62, 69
17, 55800, Note_off_c, 7, 62, 0
17, 55800, Note_off_c, 7, 59, 0
17, 55800, Note_on_c, 7, 57, 70
17, 55800, Note_on_c, 7, 61, 70
17, 55920, Note_off_c, 7, 61, 0
17, 55920, Note_off_c, 7, 57, 0
17, 55920, Note_on_c, 7, 56, 71
17, 55920, Note_on_c, 7, 59, 71
17, 56040, Note_off_c, 7, 59, 0
17, 56040, Note_off_c, 7, 56, 0
17, 56040, Note_on_c, 7, 54, 71
17, 56040, Note_on_c, 7, 57, 71
17, 56160, Note_off_c, 7, 57, 0
17, 56160, Note_off_c, 7, 54, 0
17, 56160, Note_on_c, 7, 53, 72
17, 56160, Note_on_c, 7, 56, 72
17, 56400, Note_off_c, 7, 56, 0
17, 56400, Note_off_c, 7, 53, 0
17, 56400, Note_on_c, 7, 54, 73
17, 56400, Note_on_c, 7, 57, 73
17, 56520, Note_off_c, 7, 57, 0
17, 56520, Note_off_c, 7, 54, 0
17, 56520, Note_on_c, 7, 47, 74
17, 56520, Note_on_c, 7, 62, 74
17, 56640, Note_off_c, 7, 62, 0
17, 56640, Note_off_c, 7, 47, 0
17, 56640, Note_on_c, 7, 49, 75
17, 56640, Note_on_c, 7, 61, 75
17, 56880, Note_off_c, 7, 61, 0
17, 56880, Note_off_c, 7, 49, 0
17, 56880, Note_on_c, 7, 49, 76
17, 56880, Note_on_c, 7, 61, 76
17, 57000, Note_off_c, 7, 61, 0
17, 57000, Note_on_c, 7, 59, 77
17, 57120, Note_off_c, 7, 59, 0
17, 57120, Note_off_c, 7, 49, 0
17, 57120, Note_on_c, 7, 42, 77
17, 57120, Note_on_c, 7, 58, 77
17, 57600, Note_off_c, 7, 58, 0
17, 57600, Note_off_c, 7, 42, 0
17, 57615, End_track
18, 0, Start_track
18, 57615, End_track
0, 0, End_of_file
