0, 0, Header, 1, 19, 240
1, 0, Start_track
1, 0, Sequencer_specific, 10, 0, 0, 91, 35, 1, 0, 5, 6, 42, 0
1, 0, Title_t, "J. S. Bach - Orchestral Suite No.4 in D Major BWV1069"
1, 0, Instrument_name_t, "Conductor Track"
1, 0, SMPTE_offset, 96, 0, 3, 0, 0
1, 0, MIDI_port, 0
1, 0, Tempo, 571428
1, 0, Key_signature, 2, "major"
1, 0, Time_signature, 3, 3, 12, 8
1, 360, Time_signature, 3, 2, 24, 8
1, 68040, Tempo, 571428
1, 68065, Tempo, 576923
1, 68090, Tempo, 582524
1, 68114, Tempo, 588235
1, 68139, Tempo, 594059
1, 68164, Tempo, 600000
1, 68189, Tempo, 606060
1, 68214, Tempo, 612244
1, 68239, Tempo, 618556
1, 68263, Tempo, 625000
1, 68288, Tempo, 631578
1, 68313, Tempo, 638297
1, 68338, Tempo, 645161
1, 68363, Tempo, 652173
1, 68388, Tempo, 659340
1, 68412, Tempo, 666666
1, 68437, Tempo, 674157
1, 68462, Tempo, 681818
1, 68487, Tempo, 689655
1, 68512, Tempo, 697674
1, 68537, Tempo, 705882
1, 68561, Tempo, 714285
1, 68586, Tempo, 722891
1, 68611, Tempo, 731707
1, 68636, Tempo, 740740
1, 68661, Tempo, 750000
1, 68686, Tempo, 759493
1, 68710, Tempo, 769230
1, 68735, Tempo, 779220
1, 68760, Tempo, 1000000
1, 69480, Tempo, 1000000
1, 69480, End_track
2, 0, Start_track
2, 0, Title_t, "5th Movement - Réjouissance"
2, 0, MIDI_port, 0
2, 0, End_track
3, 0, Start_track
3, 0, Title_t, "Sequenced by D. L. Viens 31 Dec 1999"
3, 0, MIDI_port, 0
3, 0, End_track
4, 0, Start_track
4, 0, Title_t, "dlviens@empire.net"
4, 0, MIDI_port, 0
4, 0, End_track
5, 0, Start_track
5, 0, MIDI_port, 0
5, 0, End_track
6, 0, Start_track
6, 0, Title_t, "Trumpet I in D"
6, 0, MIDI_port, 0
6, 0, Program_c, 0, 56
6, 0, Control_c, 0, 10, 54
6, 0, Control_c, 0, 11, 127
6, 0, Control_c, 0, 7, 96
6, 0, Note_on_c, 0, 78, 76
6, 51, Note_on_c, 0, 78, 0
6, 60, Note_on_c, 0, 76, 76
6, 111, Note_on_c, 0, 76, 0
6, 120, Note_on_c, 0, 78, 76
6, 224, Note_on_c, 0, 78, 0
6, 240, Note_on_c, 0, 79, 76
6, 344, Note_on_c, 0, 79, 0
6, 360, Note_on_c, 0, 76, 76
6, 464, Note_on_c, 0, 76, 0
6, 480, Note_on_c, 0, 74, 76
6, 531, Note_on_c, 0, 74, 0
6, 540, Note_on_c, 0, 73, 76
6, 591, Note_on_c, 0, 73, 0
6, 600, Note_on_c, 0, 74, 76
6, 651, Note_on_c, 0, 74, 0
6, 660, Note_on_c, 0, 76, 76
6, 711, Note_on_c, 0, 76, 0
6, 720, Note_on_c, 0, 78, 76
6, 771, Note_on_c, 0, 78, 0
6, 780, Note_on_c, 0, 79, 76
6, 831, Note_on_c, 0, 79, 0
6, 840, Note_on_c, 0, 81, 76
6, 944, Note_on_c, 0, 81, 0
6, 960, Note_on_c, 0, 83, 76
6, 1064, Note_on_c, 0, 83, 0
6, 1080, Note_on_c, 0, 79, 76
6, 1184, Note_on_c, 0, 79, 0
6, 1200, Note_on_c, 0, 78, 76
6, 1439, Note_on_c, 0, 78, 0
6, 8640, Note_on_c, 0, 78, 76
6, 8691, Note_on_c, 0, 78, 0
6, 8700, Note_on_c, 0, 76, 76
6, 8751, Note_on_c, 0, 76, 0
6, 8760, Note_on_c, 0, 78, 76
6, 8864, Note_on_c, 0, 78, 0
6, 8880, Note_on_c, 0, 79, 76
6, 8984, Note_on_c, 0, 79, 0
6, 9000, Note_on_c, 0, 76, 76
6, 9104, Note_on_c, 0, 76, 0
6, 9120, Note_on_c, 0, 74, 76
6, 9171, Note_on_c, 0, 74, 0
6, 9180, Note_on_c, 0, 73, 76
6, 9231, Note_on_c, 0, 73, 0
6, 9240, Note_on_c, 0, 74, 76
6, 9291, Note_on_c, 0, 74, 0
6, 9300, Note_on_c, 0, 76, 76
6, 9351, Note_on_c, 0, 76, 0
6, 9360, Note_on_c, 0, 78, 76
6, 9411, Note_on_c, 0, 78, 0
6, 9420, Note_on_c, 0, 79, 76
6, 9471, Note_on_c, 0, 79, 0
6, 9480, Note_on_c, 0, 81, 76
6, 9584, Note_on_c, 0, 81, 0
6, 9600, Note_on_c, 0, 83, 76
6, 9704, Note_on_c, 0, 83, 0
6, 9720, Note_on_c, 0, 79, 76
6, 9824, Note_on_c, 0, 79, 0
6, 9840, Note_on_c, 0, 78, 76
6, 10079, Note_on_c, 0, 78, 0
6, 18000, Note_on_c, 0, 81, 76
6, 18104, Note_on_c, 0, 81, 0
6, 18120, Note_on_c, 0, 74, 76
6, 18224, Note_on_c, 0, 74, 0
6, 18240, Note_on_c, 0, 76, 76
6, 18344, Note_on_c, 0, 76, 0
6, 18360, Note_on_c, 0, 78, 76
6, 18464, Note_on_c, 0, 78, 0
6, 18480, Note_on_c, 0, 76, 76
6, 18719, Note_on_c, 0, 76, 0
6, 28800, Note_on_c, 0, 74, 76
6, 28904, Note_on_c, 0, 74, 0
6, 28920, Note_on_c, 0, 74, 76
6, 29024, Note_on_c, 0, 74, 0
6, 29040, Note_on_c, 0, 74, 76
6, 29144, Note_on_c, 0, 74, 0
6, 29160, Note_on_c, 0, 74, 76
6, 29264, Note_on_c, 0, 74, 0
6, 29280, Note_on_c, 0, 74, 76
6, 29384, Note_on_c, 0, 74, 0
6, 29400, Note_on_c, 0, 74, 76
6, 29504, Note_on_c, 0, 74, 0
6, 29520, Note_on_c, 0, 74, 76
6, 29624, Note_on_c, 0, 74, 0
6, 29640, Note_on_c, 0, 74, 76
6, 29744, Note_on_c, 0, 74, 0
6, 29760, Note_on_c, 0, 74, 76
6, 29864, Note_on_c, 0, 74, 0
6, 29880, Note_on_c, 0, 74, 76
6, 30119, Note_on_c, 0, 74, 0
6, 30240, Note_on_c, 0, 76, 76
6, 30344, Note_on_c, 0, 76, 0
6, 30360, Note_on_c, 0, 76, 76
6, 30464, Note_on_c, 0, 76, 0
6, 30480, Note_on_c, 0, 76, 76
6, 30584, Note_on_c, 0, 76, 0
6, 30600, Note_on_c, 0, 76, 76
6, 30704, Note_on_c, 0, 76, 0
6, 30720, Note_on_c, 0, 76, 76
6, 30824, Note_on_c, 0, 76, 0
6, 30840, Note_on_c, 0, 76, 76
6, 30944, Note_on_c, 0, 76, 0
6, 30960, Note_on_c, 0, 76, 76
6, 31064, Note_on_c, 0, 76, 0
6, 31080, Note_on_c, 0, 76, 76
6, 31184, Note_on_c, 0, 76, 0
6, 31200, Note_on_c, 0, 76, 76
6, 31304, Note_on_c, 0, 76, 0
6, 31320, Note_on_c, 0, 76, 76
6, 31559, Note_on_c, 0, 76, 0
6, 31680, Note_on_c, 0, 81, 76
6, 31731, Note_on_c, 0, 81, 0
6, 31740, Note_on_c, 0, 80, 76
6, 31791, Note_on_c, 0, 80, 0
6, 31800, Note_on_c, 0, 83, 76
6, 31904, Note_on_c, 0, 83, 0
6, 31920, Note_on_c, 0, 81, 76
6, 32024, Note_on_c, 0, 81, 0
6, 32040, Note_on_c, 0, 80, 76
6, 32144, Note_on_c, 0, 80, 0
6, 32160, Note_on_c, 0, 81, 76
6, 32384, Note_on_c, 0, 81, 0
6, 32400, Note_on_c, 0, 79, 76
6, 32451, Note_on_c, 0, 79, 0
6, 32460, Note_on_c, 0, 78, 76
6, 32511, Note_on_c, 0, 78, 0
6, 32520, Note_on_c, 0, 81, 76
6, 32624, Note_on_c, 0, 81, 0
6, 32640, Note_on_c, 0, 79, 76
6, 32744, Note_on_c, 0, 79, 0
6, 32760, Note_on_c, 0, 78, 76
6, 32864, Note_on_c, 0, 78, 0
6, 32880, Note_on_c, 0, 79, 76
6, 33119, Note_on_c, 0, 79, 0
6, 36000, Note_on_c, 0, 79, 76
6, 36051, Note_on_c, 0, 79, 0
6, 36060, Note_on_c, 0, 78, 76
6, 36111, Note_on_c, 0, 78, 0
6, 36120, Note_on_c, 0, 79, 76
6, 36224, Note_on_c, 0, 79, 0
6, 36240, Note_on_c, 0, 76, 76
6, 36344, Note_on_c, 0, 76, 0
6, 36360, Note_on_c, 0, 78, 76
6, 36411, Note_on_c, 0, 78, 0
6, 36420, Note_on_c, 0, 79, 76
6, 36471, Note_on_c, 0, 79, 0
6, 36480, Note_on_c, 0, 81, 76
6, 36531, Note_on_c, 0, 81, 0
6, 36540, Note_on_c, 0, 83, 76
6, 36591, Note_on_c, 0, 83, 0
6, 36600, Note_on_c, 0, 85, 76
6, 36704, Note_on_c, 0, 85, 0
6, 36720, Note_on_c, 0, 86, 76
6, 36824, Note_on_c, 0, 86, 0
6, 36840, Note_on_c, 0, 85, 76
6, 36891, Note_on_c, 0, 85, 0
6, 36900, Note_on_c, 0, 83, 76
6, 36951, Note_on_c, 0, 83, 0
6, 36960, Note_on_c, 0, 81, 76
6, 37011, Note_on_c, 0, 81, 0
6, 37020, Note_on_c, 0, 79, 76
6, 37071, Note_on_c, 0, 79, 0
6, 37080, Note_on_c, 0, 78, 76
6, 37251, Note_on_c, 0, 78, 0
6, 37260, Note_on_c, 0, 80, 76
6, 37311, Note_on_c, 0, 80, 0
6, 37320, Note_on_c, 0, 80, 76
6, 37664, Note_on_c, 0, 80, 0
6, 37680, Note_on_c, 0, 78, 76
6, 37731, Note_on_c, 0, 78, 0
6, 37740, Note_on_c, 0, 80, 76
6, 37791, Note_on_c, 0, 80, 0
6, 37800, Note_on_c, 0, 81, 76
6, 38039, Note_on_c, 0, 81, 0
6, 40320, Note_on_c, 0, 79, 76
6, 40371, Note_on_c, 0, 79, 0
6, 40380, Note_on_c, 0, 78, 76
6, 40431, Note_on_c, 0, 78, 0
6, 40440, Note_on_c, 0, 79, 76
6, 40544, Note_on_c, 0, 79, 0
6, 40560, Note_on_c, 0, 81, 76
6, 40664, Note_on_c, 0, 81, 0
6, 40680, Note_on_c, 0, 79, 76
6, 40731, Note_on_c, 0, 79, 0
6, 40740, Note_on_c, 0, 78, 76
6, 40791, Note_on_c, 0, 78, 0
6, 40800, Note_on_c, 0, 76, 76
6, 40851, Note_on_c, 0, 76, 0
6, 40860, Note_on_c, 0, 74, 76
6, 40911, Note_on_c, 0, 74, 0
6, 40920, Note_on_c, 0, 78, 76
6, 40971, Note_on_c, 0, 78, 0
6, 40980, Note_on_c, 0, 76, 76
6, 41031, Note_on_c, 0, 76, 0
6, 41040, Note_on_c, 0, 74, 76
6, 41091, Note_on_c, 0, 74, 0
6, 41100, Note_on_c, 0, 73, 76
6, 41151, Note_on_c, 0, 73, 0
6, 41160, Note_on_c, 0, 74, 76
6, 41264, Note_on_c, 0, 74, 0
6, 41280, Note_on_c, 0, 76, 76
6, 41384, Note_on_c, 0, 76, 0
6, 41400, Note_on_c, 0, 69, 76
6, 41744, Note_on_c, 0, 69, 0
6, 41760, Note_on_c, 0, 74, 76
6, 41864, Note_on_c, 0, 74, 0
6, 41880, Note_on_c, 0, 76, 76
6, 41984, Note_on_c, 0, 76, 0
6, 42000, Note_on_c, 0, 78, 76
6, 42104, Note_on_c, 0, 78, 0
6, 42120, Note_on_c, 0, 79, 76
6, 42171, Note_on_c, 0, 79, 0
6, 42180, Note_on_c, 0, 78, 76
6, 42231, Note_on_c, 0, 78, 0
6, 42240, Note_on_c, 0, 79, 76
6, 42291, Note_on_c, 0, 79, 0
6, 42300, Note_on_c, 0, 76, 76
6, 42351, Note_on_c, 0, 76, 0
6, 42360, Note_on_c, 0, 81, 76
6, 42464, Note_on_c, 0, 81, 0
6, 42480, Note_on_c, 0, 83, 76
6, 42531, Note_on_c, 0, 83, 0
6, 42540, Note_on_c, 0, 81, 76
6, 42591, Note_on_c, 0, 81, 0
6, 42600, Note_on_c, 0, 79, 76
6, 42651, Note_on_c, 0, 79, 0
6, 42660, Note_on_c, 0, 78, 76
6, 42711, Note_on_c, 0, 78, 0
6, 42720, Note_on_c, 0, 76, 76
6, 42771, Note_on_c, 0, 76, 0
6, 42780, Note_on_c, 0, 78, 76
6, 42831, Note_on_c, 0, 78, 0
6, 42840, Note_on_c, 0, 74, 76
6, 43199, Note_on_c, 0, 74, 0
6, 43920, Note_on_c, 0, 81, 76
6, 44024, Note_on_c, 0, 81, 0
6, 44040, Note_on_c, 0, 74, 76
6, 44144, Note_on_c, 0, 74, 0
6, 44160, Note_on_c, 0, 76, 76
6, 44264, Note_on_c, 0, 76, 0
6, 44280, Note_on_c, 0, 78, 76
6, 44384, Note_on_c, 0, 78, 0
6, 44400, Note_on_c, 0, 76, 76
6, 44639, Note_on_c, 0, 76, 0
6, 54720, Note_on_c, 0, 74, 76
6, 54824, Note_on_c, 0, 74, 0
6, 54840, Note_on_c, 0, 74, 76
6, 54944, Note_on_c, 0, 74, 0
6, 54960, Note_on_c, 0, 74, 76
6, 55064, Note_on_c, 0, 74, 0
6, 55080, Note_on_c, 0, 74, 76
6, 55184, Note_on_c, 0, 74, 0
6, 55200, Note_on_c, 0, 74, 76
6, 55304, Note_on_c, 0, 74, 0
6, 55320, Note_on_c, 0, 74, 76
6, 55424, Note_on_c, 0, 74, 0
6, 55440, Note_on_c, 0, 74, 76
6, 55544, Note_on_c, 0, 74, 0
6, 55560, Note_on_c, 0, 74, 76
6, 55664, Note_on_c, 0, 74, 0
6, 55680, Note_on_c, 0, 74, 76
6, 55784, Note_on_c, 0, 74, 0
6, 55800, Note_on_c, 0, 74, 76
6, 56039, Note_on_c, 0, 74, 0
6, 56160, Note_on_c, 0, 76, 76
6, 56264, Note_on_c, 0, 76, 0
6, 56280, Note_on_c, 0, 76, 76
6, 56384, Note_on_c, 0, 76, 0
6, 56400, Note_on_c, 0, 76, 76
6, 56504, Note_on_c, 0, 76, 0
6, 56520, Note_on_c, 0, 76, 76
6, 56624, Note_on_c, 0, 76, 0
6, 56640, Note_on_c, 0, 76, 76
6, 56744, Note_on_c, 0, 76, 0
6, 56760, Note_on_c, 0, 76, 76
6, 56864, Note_on_c, 0, 76, 0
6, 56880, Note_on_c, 0, 76, 76
6, 56984, Note_on_c, 0, 76, 0
6, 57000, Note_on_c, 0, 76, 76
6, 57104, Note_on_c, 0, 76, 0
6, 57120, Note_on_c, 0, 76, 76
6, 57224, Note_on_c, 0, 76, 0
6, 57240, Note_on_c, 0, 76, 76
6, 57479, Note_on_c, 0, 76, 0
6, 57600, Note_on_c, 0, 81, 76
6, 57651, Note_on_c, 0, 81, 0
6, 57660, Note_on_c, 0, 80, 76
6, 57711, Note_on_c, 0, 80, 0
6, 57720, Note_on_c, 0, 83, 76
6, 57824, Note_on_c, 0, 83, 0
6, 57840, Note_on_c, 0, 81, 76
6, 57944, Note_on_c, 0, 81, 0
6, 57960, Note_on_c, 0, 80, 76
6, 58064, Note_on_c, 0, 80, 0
6, 58080, Note_on_c, 0, 81, 76
6, 58304, Note_on_c, 0, 81, 0
6, 58320, Note_on_c, 0, 79, 76
6, 58371, Note_on_c, 0, 79, 0
6, 58380, Note_on_c, 0, 78, 76
6, 58431, Note_on_c, 0, 78, 0
6, 58440, Note_on_c, 0, 81, 76
6, 58544, Note_on_c, 0, 81, 0
6, 58560, Note_on_c, 0, 79, 76
6, 58664, Note_on_c, 0, 79, 0
6, 58680, Note_on_c, 0, 78, 76
6, 58784, Note_on_c, 0, 78, 0
6, 58800, Note_on_c, 0, 79, 76
6, 59039, Note_on_c, 0, 79, 0
6, 61920, Note_on_c, 0, 79, 76
6, 61971, Note_on_c, 0, 79, 0
6, 61980, Note_on_c, 0, 78, 76
6, 62031, Note_on_c, 0, 78, 0
6, 62040, Note_on_c, 0, 79, 76
6, 62144, Note_on_c, 0, 79, 0
6, 62160, Note_on_c, 0, 76, 76
6, 62264, Note_on_c, 0, 76, 0
6, 62280, Note_on_c, 0, 78, 76
6, 62331, Note_on_c, 0, 78, 0
6, 62340, Note_on_c, 0, 79, 76
6, 62391, Note_on_c, 0, 79, 0
6, 62400, Note_on_c, 0, 81, 76
6, 62451, Note_on_c, 0, 81, 0
6, 62460, Note_on_c, 0, 83, 76
6, 62511, Note_on_c, 0, 83, 0
6, 62520, Note_on_c, 0, 85, 76
6, 62624, Note_on_c, 0, 85, 0
6, 62640, Note_on_c, 0, 86, 76
6, 62744, Note_on_c, 0, 86, 0
6, 62760, Note_on_c, 0, 85, 76
6, 62811, Note_on_c, 0, 85, 0
6, 62820, Note_on_c, 0, 83, 76
6, 62871, Note_on_c, 0, 83, 0
6, 62880, Note_on_c, 0, 81, 76
6, 62931, Note_on_c, 0, 81, 0
6, 62940, Note_on_c, 0, 79, 76
6, 62991, Note_on_c, 0, 79, 0
6, 63000, Note_on_c, 0, 78, 76
6, 63171, Note_on_c, 0, 78, 0
6, 63180, Note_on_c, 0, 80, 76
6, 63231, Note_on_c, 0, 80, 0
6, 63240, Note_on_c, 0, 80, 76
6, 63584, Note_on_c, 0, 80, 0
6, 63600, Note_on_c, 0, 78, 76
6, 63651, Note_on_c, 0, 78, 0
6, 63660, Note_on_c, 0, 80, 76
6, 63711, Note_on_c, 0, 80, 0
6, 63720, Note_on_c, 0, 81, 76
6, 63959, Note_on_c, 0, 81, 0
6, 66240, Note_on_c, 0, 79, 76
6, 66291, Note_on_c, 0, 79, 0
6, 66300, Note_on_c, 0, 78, 76
6, 66351, Note_on_c, 0, 78, 0
6, 66360, Note_on_c, 0, 79, 76
6, 66464, Note_on_c, 0, 79, 0
6, 66480, Note_on_c, 0, 81, 76
6, 66584, Note_on_c, 0, 81, 0
6, 66600, Note_on_c, 0, 79, 76
6, 66651, Note_on_c, 0, 79, 0
6, 66660, Note_on_c, 0, 78, 76
6, 66711, Note_on_c, 0, 78, 0
6, 66720, Note_on_c, 0, 76, 76
6, 66771, Note_on_c, 0, 76, 0
6, 66780, Note_on_c, 0, 74, 76
6, 66831, Note_on_c, 0, 74, 0
6, 66840, Note_on_c, 0, 78, 76
6, 66891, Note_on_c, 0, 78, 0
6, 66900, Note_on_c, 0, 76, 76
6, 66951, Note_on_c, 0, 76, 0
6, 66960, Note_on_c, 0, 74, 76
6, 67011, Note_on_c, 0, 74, 0
6, 67020, Note_on_c, 0, 73, 76
6, 67071, Note_on_c, 0, 73, 0
6, 67080, Note_on_c, 0, 74, 76
6, 67184, Note_on_c, 0, 74, 0
6, 67200, Note_on_c, 0, 76, 76
6, 67304, Note_on_c, 0, 76, 0
6, 67320, Note_on_c, 0, 69, 76
6, 67664, Note_on_c, 0, 69, 0
6, 67680, Note_on_c, 0, 74, 76
6, 67784, Note_on_c, 0, 74, 0
6, 67800, Note_on_c, 0, 76, 76
6, 67904, Note_on_c, 0, 76, 0
6, 67920, Note_on_c, 0, 78, 76
6, 68024, Note_on_c, 0, 78, 0
6, 68040, Note_on_c, 0, 79, 76
6, 68091, Note_on_c, 0, 79, 0
6, 68100, Note_on_c, 0, 78, 76
6, 68151, Note_on_c, 0, 78, 0
6, 68160, Note_on_c, 0, 79, 76
6, 68211, Note_on_c, 0, 79, 0
6, 68220, Note_on_c, 0, 76, 76
6, 68271, Note_on_c, 0, 76, 0
6, 68280, Note_on_c, 0, 81, 76
6, 68384, Note_on_c, 0, 81, 0
6, 68400, Note_on_c, 0, 83, 76
6, 68451, Note_on_c, 0, 83, 0
6, 68460, Note_on_c, 0, 81, 76
6, 68511, Note_on_c, 0, 81, 0
6, 68520, Note_on_c, 0, 79, 76
6, 68571, Note_on_c, 0, 79, 0
6, 68580, Note_on_c, 0, 78, 76
6, 68631, Note_on_c, 0, 78, 0
6, 68640, Note_on_c, 0, 76, 76
6, 68691, Note_on_c, 0, 76, 0
6, 68700, Note_on_c, 0, 78, 76
6, 68751, Note_on_c, 0, 78, 0
6, 68760, Note_on_c, 0, 74, 76
6, 69119, Note_on_c, 0, 74, 0
6, 69119, End_track
7, 0, Start_track
7, 0, Title_t, "Trumpet II in D"
7, 0, MIDI_port, 0
7, 0, Program_c, 1, 56
7, 0, Control_c, 1, 10, 64
7, 0, Control_c, 1, 11, 127
7, 0, Control_c, 1, 7, 96
7, 0, Note_on_c, 1, 74, 76
7, 104, Note_on_c, 1, 74, 0
7, 120, Note_on_c, 1, 74, 76
7, 224, Note_on_c, 1, 74, 0
7, 240, Note_on_c, 1, 76, 76
7, 344, Note_on_c, 1, 76, 0
7, 360, Note_on_c, 1, 69, 76
7, 464, Note_on_c, 1, 69, 0
7, 480, Note_on_c, 1, 69, 76
7, 704, Note_on_c, 1, 69, 0
7, 720, Note_on_c, 1, 69, 76
7, 824, Note_on_c, 1, 69, 0
7, 840, Note_on_c, 1, 74, 76
7, 944, Note_on_c, 1, 74, 0
7, 960, Note_on_c, 1, 79, 76
7, 1064, Note_on_c, 1, 79, 0
7, 1080, Note_on_c, 1, 76, 76
7, 1184, Note_on_c, 1, 76, 0
7, 1200, Note_on_c, 1, 74, 76
7, 1439, Note_on_c, 1, 74, 0
7, 8640, Note_on_c, 1, 74, 76
7, 8744, Note_on_c, 1, 74, 0
7, 8760, Note_on_c, 1, 74, 76
7, 8864, Note_on_c, 1, 74, 0
7, 8880, Note_on_c, 1, 76, 76
7, 8984, Note_on_c, 1, 76, 0
7, 9000, Note_on_c, 1, 69, 76
7, 9104, Note_on_c, 1, 69, 0
7, 9120, Note_on_c, 1, 69, 76
7, 9344, Note_on_c, 1, 69, 0
7, 9360, Note_on_c, 1, 69, 76
7, 9464, Note_on_c, 1, 69, 0
7, 9480, Note_on_c, 1, 74, 76
7, 9584, Note_on_c, 1, 74, 0
7, 9600, Note_on_c, 1, 79, 76
7, 9704, Note_on_c, 1, 79, 0
7, 9720, Note_on_c, 1, 76, 76
7, 9824, Note_on_c, 1, 76, 0
7, 9840, Note_on_c, 1, 74, 76
7, 10079, Note_on_c, 1, 74, 0
7, 18000, Note_on_c, 1, 78, 76
7, 18104, Note_on_c, 1, 78, 0
7, 18120, Note_on_c, 1, 74, 76
7, 18224, Note_on_c, 1, 74, 0
7, 18240, Note_on_c, 1, 69, 76
7, 18344, Note_on_c, 1, 69, 0
7, 18360, Note_on_c, 1, 69, 76
7, 18464, Note_on_c, 1, 69, 0
7, 18480, Note_on_c, 1, 69, 76
7, 18719, Note_on_c, 1, 69, 0
7, 29520, Note_on_c, 1, 74, 76
7, 29624, Note_on_c, 1, 74, 0
7, 29640, Note_on_c, 1, 74, 76
7, 29744, Note_on_c, 1, 74, 0
7, 29760, Note_on_c, 1, 74, 76
7, 29864, Note_on_c, 1, 74, 0
7, 29880, Note_on_c, 1, 74, 76
7, 30119, Note_on_c, 1, 74, 0
7, 30960, Note_on_c, 1, 76, 76
7, 31064, Note_on_c, 1, 76, 0
7, 31080, Note_on_c, 1, 76, 76
7, 31184, Note_on_c, 1, 76, 0
7, 31200, Note_on_c, 1, 76, 76
7, 31304, Note_on_c, 1, 76, 0
7, 31320, Note_on_c, 1, 76, 76
7, 31559, Note_on_c, 1, 76, 0
7, 31680, Note_on_c, 1, 76, 76
7, 31784, Note_on_c, 1, 76, 0
7, 31800, Note_on_c, 1, 78, 76
7, 31904, Note_on_c, 1, 78, 0
7, 31920, Note_on_c, 1, 76, 76
7, 32024, Note_on_c, 1, 76, 0
7, 32040, Note_on_c, 1, 74, 76
7, 32144, Note_on_c, 1, 74, 0
7, 32160, Note_on_c, 1, 76, 76
7, 32384, Note_on_c, 1, 76, 0
7, 32400, Note_on_c, 1, 76, 76
7, 32451, Note_on_c, 1, 76, 0
7, 32460, Note_on_c, 1, 74, 76
7, 32511, Note_on_c, 1, 74, 0
7, 32520, Note_on_c, 1, 78, 76
7, 32624, Note_on_c, 1, 78, 0
7, 32640, Note_on_c, 1, 76, 76
7, 32744, Note_on_c, 1, 76, 0
7, 32760, Note_on_c, 1, 74, 76
7, 32864, Note_on_c, 1, 74, 0
7, 32880, Note_on_c, 1, 76, 76
7, 33119, Note_on_c, 1, 76, 0
7, 36000, Note_on_c, 1, 76, 76
7, 36104, Note_on_c, 1, 76, 0
7, 36120, Note_on_c, 1, 74, 76
7, 36224, Note_on_c, 1, 74, 0
7, 36240, Note_on_c, 1, 76, 76
7, 36344, Note_on_c, 1, 76, 0
7, 36360, Note_on_c, 1, 74, 76
7, 36464, Note_on_c, 1, 74, 0
7, 36480, Note_on_c, 1, 74, 76
7, 36584, Note_on_c, 1, 74, 0
7, 36600, Note_on_c, 1, 79, 76
7, 36704, Note_on_c, 1, 79, 0
7, 36720, Note_on_c, 1, 78, 76
7, 36824, Note_on_c, 1, 78, 0
7, 36840, Note_on_c, 1, 76, 76
7, 36944, Note_on_c, 1, 76, 0
7, 36960, Note_on_c, 1, 76, 76
7, 37064, Note_on_c, 1, 76, 0
7, 37080, Note_on_c, 1, 74, 76
7, 37251, Note_on_c, 1, 74, 0
7, 37260, Note_on_c, 1, 76, 76
7, 37311, Note_on_c, 1, 76, 0
7, 37320, Note_on_c, 1, 76, 76
7, 37349, Note_on_c, 1, 76, 0
7, 37350, Note_on_c, 1, 78, 76
7, 37379, Note_on_c, 1, 78, 0
7, 37380, Note_on_c, 1, 76, 76
7, 37409, Note_on_c, 1, 76, 0
7, 37410, Note_on_c, 1, 78, 76
7, 37439, Note_on_c, 1, 78, 0
7, 37440, Note_on_c, 1, 76, 76
7, 37469, Note_on_c, 1, 76, 0
7, 37470, Note_on_c, 1, 78, 76
7, 37499, Note_on_c, 1, 78, 0
7, 37500, Note_on_c, 1, 76, 76
7, 37529, Note_on_c, 1, 76, 0
7, 37530, Note_on_c, 1, 78, 76
7, 37559, Note_on_c, 1, 78, 0
7, 37560, Note_on_c, 1, 76, 76
7, 37589, Note_on_c, 1, 76, 0
7, 37590, Note_on_c, 1, 78, 76
7, 37619, Note_on_c, 1, 78, 0
7, 37620, Note_on_c, 1, 76, 76
7, 37649, Note_on_c, 1, 76, 0
7, 37650, Note_on_c, 1, 78, 76
7, 37679, Note_on_c, 1, 78, 0
7, 37680, Note_on_c, 1, 76, 76
7, 37709, Note_on_c, 1, 76, 0
7, 37710, Note_on_c, 1, 78, 76
7, 37739, Note_on_c, 1, 78, 0
7, 37740, Note_on_c, 1, 74, 76
7, 37769, Note_on_c, 1, 74, 0
7, 37770, Note_on_c, 1, 76, 76
7, 37799, Note_on_c, 1, 76, 0
7, 37800, Note_on_c, 1, 76, 76
7, 38039, Note_on_c, 1, 76, 0
7, 40320, Note_on_c, 1, 76, 76
7, 40424, Note_on_c, 1, 76, 0
7, 40440, Note_on_c, 1, 74, 76
7, 40544, Note_on_c, 1, 74, 0
7, 40560, Note_on_c, 1, 76, 76
7, 40664, Note_on_c, 1, 76, 0
7, 40680, Note_on_c, 1, 74, 76
7, 40784, Note_on_c, 1, 74, 0
7, 40800, Note_on_c, 1, 69, 76
7, 40904, Note_on_c, 1, 69, 0
7, 40920, Note_on_c, 1, 74, 76
7, 41024, Note_on_c, 1, 74, 0
7, 41040, Note_on_c, 1, 78, 76
7, 41144, Note_on_c, 1, 78, 0
7, 41160, Note_on_c, 1, 78, 76
7, 41264, Note_on_c, 1, 78, 0
7, 41280, Note_on_c, 1, 79, 76
7, 41384, Note_on_c, 1, 79, 0
7, 41400, Note_on_c, 1, 79, 76
7, 41504, Note_on_c, 1, 79, 0
7, 41520, Note_on_c, 1, 81, 76
7, 41571, Note_on_c, 1, 81, 0
7, 41580, Note_on_c, 1, 79, 76
7, 41631, Note_on_c, 1, 79, 0
7, 41640, Note_on_c, 1, 78, 76
7, 41744, Note_on_c, 1, 78, 0
7, 41760, Note_on_c, 1, 74, 76
7, 41864, Note_on_c, 1, 74, 0
7, 41880, Note_on_c, 1, 79, 76
7, 41984, Note_on_c, 1, 79, 0
7, 42000, Note_on_c, 1, 78, 76
7, 42224, Note_on_c, 1, 78, 0
7, 42240, Note_on_c, 1, 76, 76
7, 42344, Note_on_c, 1, 76, 0
7, 42360, Note_on_c, 1, 74, 76
7, 42464, Note_on_c, 1, 74, 0
7, 42480, Note_on_c, 1, 74, 76
7, 42584, Note_on_c, 1, 74, 0
7, 42600, Note_on_c, 1, 74, 76
7, 42704, Note_on_c, 1, 74, 0
7, 42720, Note_on_c, 1, 69, 76
7, 42824, Note_on_c, 1, 69, 0
7, 42840, Note_on_c, 1, 69, 76
7, 43199, Note_on_c, 1, 69, 0
7, 43920, Note_on_c, 1, 78, 76
7, 44024, Note_on_c, 1, 78, 0
7, 44040, Note_on_c, 1, 74, 76
7, 44144, Note_on_c, 1, 74, 0
7, 44160, Note_on_c, 1, 69, 76
7, 44264, Note_on_c, 1, 69, 0
7, 44280, Note_on_c, 1, 69, 76
7, 44384, Note_on_c, 1, 69, 0
7, 44400, Note_on_c, 1, 69, 76
7, 44639, Note_on_c, 1, 69, 0
7, 55440, Note_on_c, 1, 74, 76
7, 55544, Note_on_c, 1, 74, 0
7, 55560, Note_on_c, 1, 74, 76
7, 55664, Note_on_c, 1, 74, 0
7, 55680, Note_on_c, 1, 74, 76
7, 55784, Note_on_c, 1, 74, 0
7, 55800, Note_on_c, 1, 74, 76
7, 56039, Note_on_c, 1, 74, 0
7, 56880, Note_on_c, 1, 76, 76
7, 56984, Note_on_c, 1, 76, 0
7, 57000, Note_on_c, 1, 76, 76
7, 57104, Note_on_c, 1, 76, 0
7, 57120, Note_on_c, 1, 76, 76
7, 57224, Note_on_c, 1, 76, 0
7, 57240, Note_on_c, 1, 76, 76
7, 57479, Note_on_c, 1, 76, 0
7, 57600, Note_on_c, 1, 76, 76
7, 57704, Note_on_c, 1, 76, 0
7, 57720, Note_on_c, 1, 78, 76
7, 57824, Note_on_c, 1, 78, 0
7, 57840, Note_on_c, 1, 76, 76
7, 57944, Note_on_c, 1, 76, 0
7, 57960, Note_on_c, 1, 74, 76
7, 58064, Note_on_c, 1, 74, 0
7, 58080, Note_on_c, 1, 76, 76
7, 58304, Note_on_c, 1, 76, 0
7, 58320, Note_on_c, 1, 76, 76
7, 58371, Note_on_c, 1, 76, 0
7, 58380, Note_on_c, 1, 74, 76
7, 58431, Note_on_c, 1, 74, 0
7, 58440, Note_on_c, 1, 78, 76
7, 58544, Note_on_c, 1, 78, 0
7, 58560, Note_on_c, 1, 76, 76
7, 58664, Note_on_c, 1, 76, 0
7, 58680, Note_on_c, 1, 74, 76
7, 58784, Note_on_c, 1, 74, 0
7, 58800, Note_on_c, 1, 76, 76
7, 59039, Note_on_c, 1, 76, 0
7, 61920, Note_on_c, 1, 76, 76
7, 62024, Note_on_c, 1, 76, 0
7, 62040, Note_on_c, 1, 74, 76
7, 62144, Note_on_c, 1, 74, 0
7, 62160, Note_on_c, 1, 76, 76
7, 62264, Note_on_c, 1, 76, 0
7, 62280, Note_on_c, 1, 74, 76
7, 62384, Note_on_c, 1, 74, 0
7, 62400, Note_on_c, 1, 74, 76
7, 62504, Note_on_c, 1, 74, 0
7, 62520, Note_on_c, 1, 79, 76
7, 62624, Note_on_c, 1, 79, 0
7, 62640, Note_on_c, 1, 78, 76
7, 62744, Note_on_c, 1, 78, 0
7, 62760, Note_on_c, 1, 76, 76
7, 62864, Note_on_c, 1, 76, 0
7, 62880, Note_on_c, 1, 76, 76
7, 62984, Note_on_c, 1, 76, 0
7, 63000, Note_on_c, 1, 74, 76
7, 63171, Note_on_c, 1, 74, 0
7, 63180, Note_on_c, 1, 76, 76
7, 63231, Note_on_c, 1, 76, 0
7, 63240, Note_on_c, 1, 76, 76
7, 63269, Note_on_c, 1, 76, 0
7, 63270, Note_on_c, 1, 78, 76
7, 63299, Note_on_c, 1, 78, 0
7, 63300, Note_on_c, 1, 76, 76
7, 63329, Note_on_c, 1, 76, 0
7, 63330, Note_on_c, 1, 78, 76
7, 63359, Note_on_c, 1, 78, 0
7, 63360, Note_on_c, 1, 76, 76
7, 63389, Note_on_c, 1, 76, 0
7, 63390, Note_on_c, 1, 78, 76
7, 63419, Note_on_c, 1, 78, 0
7, 63420, Note_on_c, 1, 76, 76
7, 63449, Note_on_c, 1, 76, 0
7, 63450, Note_on_c, 1, 78, 76
7, 63479, Note_on_c, 1, 78, 0
7, 63480, Note_on_c, 1, 76, 76
7, 63509, Note_on_c, 1, 76, 0
7, 63510, Note_on_c, 1, 78, 76
7, 63539, Note_on_c, 1, 78, 0
7, 63540, Note_on_c, 1, 76, 76
7, 63569, Note_on_c, 1, 76, 0
7, 63570, Note_on_c, 1, 78, 76
7, 63599, Note_on_c, 1, 78, 0
7, 63600, Note_on_c, 1, 76, 76
7, 63629, Note_on_c, 1, 76, 0
7, 63630, Note_on_c, 1, 78, 76
7, 63659, Note_on_c, 1, 78, 0
7, 63660, Note_on_c, 1, 74, 76
7, 63689, Note_on_c, 1, 74, 0
7, 63690, Note_on_c, 1, 76, 76
7, 63719, Note_on_c, 1, 76, 0
7, 63720, Note_on_c, 1, 76, 76
7, 63959, Note_on_c, 1, 76, 0
7, 66240, Note_on_c, 1, 76, 76
7, 66344, Note_on_c, 1, 76, 0
7, 66360, Note_on_c, 1, 74, 76
7, 66464, Note_on_c, 1, 74, 0
7, 66480, Note_on_c, 1, 76, 76
7, 66584, Note_on_c, 1, 76, 0
7, 66600, Note_on_c, 1, 74, 76
7, 66704, Note_on_c, 1, 74, 0
7, 66720, Note_on_c, 1, 69, 76
7, 66824, Note_on_c, 1, 69, 0
7, 66840, Note_on_c, 1, 74, 76
7, 66944, Note_on_c, 1, 74, 0
7, 66960, Note_on_c, 1, 78, 76
7, 67064, Note_on_c, 1, 78, 0
7, 67080, Note_on_c, 1, 78, 76
7, 67184, Note_on_c, 1, 78, 0
7, 67200, Note_on_c, 1, 79, 76
7, 67304, Note_on_c, 1, 79, 0
7, 67320, Note_on_c, 1, 79, 76
7, 67424, Note_on_c, 1, 79, 0
7, 67440, Note_on_c, 1, 81, 76
7, 67491, Note_on_c, 1, 81, 0
7, 67500, Note_on_c, 1, 79, 76
7, 67551, Note_on_c, 1, 79, 0
7, 67560, Note_on_c, 1, 78, 76
7, 67664, Note_on_c, 1, 78, 0
7, 67680, Note_on_c, 1, 74, 76
7, 67784, Note_on_c, 1, 74, 0
7, 67800, Note_on_c, 1, 79, 76
7, 67904, Note_on_c, 1, 79, 0
7, 67920, Note_on_c, 1, 78, 76
7, 68144, Note_on_c, 1, 78, 0
7, 68160, Note_on_c, 1, 76, 76
7, 68264, Note_on_c, 1, 76, 0
7, 68280, Note_on_c, 1, 74, 76
7, 68384, Note_on_c, 1, 74, 0
7, 68400, Note_on_c, 1, 74, 76
7, 68504, Note_on_c, 1, 74, 0
7, 68520, Note_on_c, 1, 74, 76
7, 68624, Note_on_c, 1, 74, 0
7, 68640, Note_on_c, 1, 69, 76
7, 68744, Note_on_c, 1, 69, 0
7, 68760, Note_on_c, 1, 69, 76
7, 69119, Note_on_c, 1, 69, 0
7, 69119, End_track
8, 0, Start_track
8, 0, Title_t, "Trumpet III in D"
8, 0, MIDI_port, 0
8, 0, Program_c, 2, 56
8, 0, Control_c, 2, 10, 74
8, 0, Control_c, 2, 11, 127
8, 0, Control_c, 2, 7, 96
8, 0, Note_on_c, 2, 69, 76
8, 51, Note_on_c, 2, 69, 0
8, 60, Note_on_c, 2, 69, 76
8, 111, Note_on_c, 2, 69, 0
8, 120, Note_on_c, 2, 69, 76
8, 239, Note_on_c, 2, 69, 0
8, 720, Note_on_c, 2, 62, 76
8, 824, Note_on_c, 2, 62, 0
8, 840, Note_on_c, 2, 69, 76
8, 944, Note_on_c, 2, 69, 0
8, 960, Note_on_c, 2, 62, 76
8, 1064, Note_on_c, 2, 62, 0
8, 1080, Note_on_c, 2, 69, 76
8, 1184, Note_on_c, 2, 69, 0
8, 1200, Note_on_c, 2, 69, 76
8, 1439, Note_on_c, 2, 69, 0
8, 8640, Note_on_c, 2, 69, 76
8, 8691, Note_on_c, 2, 69, 0
8, 8700, Note_on_c, 2, 69, 76
8, 8751, Note_on_c, 2, 69, 0
8, 8760, Note_on_c, 2, 69, 76
8, 8879, Note_on_c, 2, 69, 0
8, 9360, Note_on_c, 2, 62, 76
8, 9464, Note_on_c, 2, 62, 0
8, 9480, Note_on_c, 2, 69, 76
8, 9584, Note_on_c, 2, 69, 0
8, 9600, Note_on_c, 2, 62, 76
8, 9704, Note_on_c, 2, 62, 0
8, 9720, Note_on_c, 2, 69, 76
8, 9824, Note_on_c, 2, 69, 0
8, 9840, Note_on_c, 2, 69, 76
8, 10079, Note_on_c, 2, 69, 0
8, 18000, Note_on_c, 2, 74, 76
8, 18104, Note_on_c, 2, 74, 0
8, 18120, Note_on_c, 2, 69, 76
8, 18224, Note_on_c, 2, 69, 0
8, 18240, Note_on_c, 2, 69, 76
8, 18344, Note_on_c, 2, 69, 0
8, 18360, Note_on_c, 2, 66, 76
8, 18411, Note_on_c, 2, 66, 0
8, 18420, Note_on_c, 2, 62, 76
8, 18471, Note_on_c, 2, 62, 0
8, 18480, Note_on_c, 2, 69, 76
8, 18719, Note_on_c, 2, 69, 0
8, 29520, Note_on_c, 2, 74, 76
8, 29624, Note_on_c, 2, 74, 0
8, 29640, Note_on_c, 2, 74, 76
8, 29744, Note_on_c, 2, 74, 0
8, 29760, Note_on_c, 2, 74, 76
8, 29864, Note_on_c, 2, 74, 0
8, 29880, Note_on_c, 2, 74, 76
8, 30119, Note_on_c, 2, 74, 0
8, 30960, Note_on_c, 2, 76, 76
8, 31064, Note_on_c, 2, 76, 0
8, 31080, Note_on_c, 2, 76, 76
8, 31184, Note_on_c, 2, 76, 0
8, 31200, Note_on_c, 2, 76, 76
8, 31304, Note_on_c, 2, 76, 0
8, 31320, Note_on_c, 2, 76, 76
8, 31559, Note_on_c, 2, 76, 0
8, 31680, Note_on_c, 2, 69, 76
8, 31784, Note_on_c, 2, 69, 0
8, 31800, Note_on_c, 2, 74, 76
8, 31904, Note_on_c, 2, 74, 0
8, 31920, Note_on_c, 2, 69, 76
8, 32024, Note_on_c, 2, 69, 0
8, 32040, Note_on_c, 2, 62, 76
8, 32144, Note_on_c, 2, 62, 0
8, 32160, Note_on_c, 2, 69, 76
8, 32384, Note_on_c, 2, 69, 0
8, 32400, Note_on_c, 2, 69, 76
8, 32504, Note_on_c, 2, 69, 0
8, 32520, Note_on_c, 2, 69, 76
8, 32624, Note_on_c, 2, 69, 0
8, 32640, Note_on_c, 2, 69, 76
8, 32744, Note_on_c, 2, 69, 0
8, 32760, Note_on_c, 2, 62, 76
8, 32864, Note_on_c, 2, 62, 0
8, 32880, Note_on_c, 2, 69, 76
8, 33119, Note_on_c, 2, 69, 0
8, 36000, Note_on_c, 2, 69, 76
8, 36104, Note_on_c, 2, 69, 0
8, 36120, Note_on_c, 2, 62, 76
8, 36224, Note_on_c, 2, 62, 0
8, 36240, Note_on_c, 2, 69, 76
8, 36344, Note_on_c, 2, 69, 0
8, 36360, Note_on_c, 2, 69, 76
8, 36464, Note_on_c, 2, 69, 0
8, 36480, Note_on_c, 2, 69, 76
8, 36584, Note_on_c, 2, 69, 0
8, 36600, Note_on_c, 2, 69, 76
8, 36704, Note_on_c, 2, 69, 0
8, 36720, Note_on_c, 2, 69, 76
8, 36824, Note_on_c, 2, 69, 0
8, 36840, Note_on_c, 2, 69, 76
8, 36944, Note_on_c, 2, 69, 0
8, 36960, Note_on_c, 2, 69, 76
8, 37064, Note_on_c, 2, 69, 0
8, 37080, Note_on_c, 2, 74, 76
8, 37304, Note_on_c, 2, 74, 0
8, 37320, Note_on_c, 2, 74, 76
8, 37544, Note_on_c, 2, 74, 0
8, 37560, Note_on_c, 2, 62, 76
8, 37784, Note_on_c, 2, 62, 0
8, 37800, Note_on_c, 2, 69, 76
8, 38039, Note_on_c, 2, 69, 0
8, 40320, Note_on_c, 2, 69, 76
8, 40424, Note_on_c, 2, 69, 0
8, 40440, Note_on_c, 2, 62, 76
8, 40544, Note_on_c, 2, 62, 0
8, 40560, Note_on_c, 2, 69, 76
8, 40664, Note_on_c, 2, 69, 0
8, 40680, Note_on_c, 2, 69, 76
8, 40799, Note_on_c, 2, 69, 0
8, 41040, Note_on_c, 2, 69, 76
8, 41144, Note_on_c, 2, 69, 0
8, 41160, Note_on_c, 2, 62, 76
8, 41264, Note_on_c, 2, 62, 0
8, 41280, Note_on_c, 2, 62, 76
8, 41384, Note_on_c, 2, 62, 0
8, 41400, Note_on_c, 2, 69, 76
8, 41744, Note_on_c, 2, 69, 0
8, 41760, Note_on_c, 2, 69, 76
8, 41864, Note_on_c, 2, 69, 0
8, 41880, Note_on_c, 2, 69, 76
8, 41984, Note_on_c, 2, 69, 0
8, 42000, Note_on_c, 2, 69, 76
8, 42104, Note_on_c, 2, 69, 0
8, 42120, Note_on_c, 2, 62, 76
8, 42239, Note_on_c, 2, 62, 0
8, 42480, Note_on_c, 2, 62, 76
8, 42584, Note_on_c, 2, 62, 0
8, 42600, Note_on_c, 2, 69, 76
8, 42704, Note_on_c, 2, 69, 0
8, 42720, Note_on_c, 2, 69, 76
8, 42824, Note_on_c, 2, 69, 0
8, 42840, Note_on_c, 2, 66, 76
8, 43199, Note_on_c, 2, 66, 0
8, 43920, Note_on_c, 2, 74, 76
8, 44024, Note_on_c, 2, 74, 0
8, 44040, Note_on_c, 2, 69, 76
8, 44144, Note_on_c, 2, 69, 0
8, 44160, Note_on_c, 2, 69, 76
8, 44264, Note_on_c, 2, 69, 0
8, 44280, Note_on_c, 2, 66, 76
8, 44331, Note_on_c, 2, 66, 0
8, 44340, Note_on_c, 2, 62, 76
8, 44391, Note_on_c, 2, 62, 0
8, 44400, Note_on_c, 2, 69, 76
8, 44639, Note_on_c, 2, 69, 0
8, 55440, Note_on_c, 2, 74, 76
8, 55544, Note_on_c, 2, 74, 0
8, 55560, Note_on_c, 2, 74, 76
8, 55664, Note_on_c, 2, 74, 0
8, 55680, Note_on_c, 2, 74, 76
8, 55784, Note_on_c, 2, 74, 0
8, 55800, Note_on_c, 2, 74, 76
8, 56039, Note_on_c, 2, 74, 0
8, 56880, Note_on_c, 2, 76, 76
8, 56984, Note_on_c, 2, 76, 0
8, 57000, Note_on_c, 2, 76, 76
8, 57104, Note_on_c, 2, 76, 0
8, 57120, Note_on_c, 2, 76, 76
8, 57224, Note_on_c, 2, 76, 0
8, 57240, Note_on_c, 2, 76, 76
8, 57479, Note_on_c, 2, 76, 0
8, 57600, Note_on_c, 2, 69, 76
8, 57704, Note_on_c, 2, 69, 0
8, 57720, Note_on_c, 2, 74, 76
8, 57824, Note_on_c, 2, 74, 0
8, 57840, Note_on_c, 2, 69, 76
8, 57944, Note_on_c, 2, 69, 0
8, 57960, Note_on_c, 2, 62, 76
8, 58064, Note_on_c, 2, 62, 0
8, 58080, Note_on_c, 2, 69, 76
8, 58304, Note_on_c, 2, 69, 0
8, 58320, Note_on_c, 2, 69, 76
8, 58424, Note_on_c, 2, 69, 0
8, 58440, Note_on_c, 2, 69, 76
8, 58544, Note_on_c, 2, 69, 0
8, 58560, Note_on_c, 2, 69, 76
8, 58664, Note_on_c, 2, 69, 0
8, 58680, Note_on_c, 2, 62, 76
8, 58784, Note_on_c, 2, 62, 0
8, 58800, Note_on_c, 2, 69, 76
8, 59039, Note_on_c, 2, 69, 0
8, 61920, Note_on_c, 2, 69, 76
8, 62024, Note_on_c, 2, 69, 0
8, 62040, Note_on_c, 2, 62, 76
8, 62144, Note_on_c, 2, 62, 0
8, 62160, Note_on_c, 2, 69, 76
8, 62264, Note_on_c, 2, 69, 0
8, 62280, Note_on_c, 2, 69, 76
8, 62384, Note_on_c, 2, 69, 0
8, 62400, Note_on_c, 2, 69, 76
8, 62504, Note_on_c, 2, 69, 0
8, 62520, Note_on_c, 2, 69, 76
8, 62624, Note_on_c, 2, 69, 0
8, 62640, Note_on_c, 2, 69, 76
8, 62744, Note_on_c, 2, 69, 0
8, 62760, Note_on_c, 2, 69, 76
8, 62864, Note_on_c, 2, 69, 0
8, 62880, Note_on_c, 2, 69, 76
8, 62984, Note_on_c, 2, 69, 0
8, 63000, Note_on_c, 2, 74, 76
8, 63224, Note_on_c, 2, 74, 0
8, 63240, Note_on_c, 2, 74, 76
8, 63464, Note_on_c, 2, 74, 0
8, 63480, Note_on_c, 2, 62, 76
8, 63704, Note_on_c, 2, 62, 0
8, 63720, Note_on_c, 2, 69, 76
8, 63959, Note_on_c, 2, 69, 0
8, 66240, Note_on_c, 2, 69, 76
8, 66344, Note_on_c, 2, 69, 0
8, 66360, Note_on_c, 2, 62, 76
8, 66464, Note_on_c, 2, 62, 0
8, 66480, Note_on_c, 2, 69, 76
8, 66584, Note_on_c, 2, 69, 0
8, 66600, Note_on_c, 2, 69, 76
8, 66719, Note_on_c, 2, 69, 0
8, 66960, Note_on_c, 2, 69, 76
8, 67064, Note_on_c, 2, 69, 0
8, 67080, Note_on_c, 2, 62, 76
8, 67184, Note_on_c, 2, 62, 0
8, 67200, Note_on_c, 2, 62, 76
8, 67304, Note_on_c, 2, 62, 0
8, 67320, Note_on_c, 2, 69, 76
8, 67664, Note_on_c, 2, 69, 0
8, 67680, Note_on_c, 2, 69, 76
8, 67784, Note_on_c, 2, 69, 0
8, 67800, Note_on_c, 2, 69, 76
8, 67904, Note_on_c, 2, 69, 0
8, 67920, Note_on_c, 2, 69, 76
8, 68024, Note_on_c, 2, 69, 0
8, 68040, Note_on_c, 2, 62, 76
8, 68159, Note_on_c, 2, 62, 0
8, 68400, Note_on_c, 2, 62, 76
8, 68504, Note_on_c, 2, 62, 0
8, 68520, Note_on_c, 2, 69, 76
8, 68624, Note_on_c, 2, 69, 0
8, 68640, Note_on_c, 2, 69, 76
8, 68744, Note_on_c, 2, 69, 0
8, 68760, Note_on_c, 2, 66, 76
8, 69119, Note_on_c, 2, 66, 0
8, 69119, End_track
9, 0, Start_track
9, 0, Title_t, "Timpani in D and A"
9, 0, MIDI_port, 0
9, 0, Program_c, 3, 47
9, 0, Control_c, 3, 10, 25
9, 0, Control_c, 3, 11, 127
9, 0, Control_c, 3, 7, 96
9, 0, Note_on_c, 3, 50, 76
9, 59, Note_on_c, 3, 50, 0
9, 60, Note_on_c, 3, 50, 76
9, 119, Note_on_c, 3, 50, 0
9, 120, Note_on_c, 3, 50, 76
9, 239, Note_on_c, 3, 50, 0
9, 720, Note_on_c, 3, 50, 76
9, 779, Note_on_c, 3, 50, 0
9, 780, Note_on_c, 3, 50, 76
9, 839, Note_on_c, 3, 50, 0
9, 840, Note_on_c, 3, 50, 76
9, 959, Note_on_c, 3, 50, 0
9, 960, Note_on_c, 3, 50, 76
9, 1079, Note_on_c, 3, 50, 0
9, 1080, Note_on_c, 3, 45, 76
9, 1199, Note_on_c, 3, 45, 0
9, 1200, Note_on_c, 3, 50, 76
9, 1439, Note_on_c, 3, 50, 0
9, 8640, Note_on_c, 3, 50, 76
9, 8699, Note_on_c, 3, 50, 0
9, 8700, Note_on_c, 3, 50, 76
9, 8759, Note_on_c, 3, 50, 0
9, 8760, Note_on_c, 3, 50, 76
9, 8879, Note_on_c, 3, 50, 0
9, 9360, Note_on_c, 3, 50, 76
9, 9419, Note_on_c, 3, 50, 0
9, 9420, Note_on_c, 3, 50, 76
9, 9479, Note_on_c, 3, 50, 0
9, 9480, Note_on_c, 3, 50, 76
9, 9599, Note_on_c, 3, 50, 0
9, 9600, Note_on_c, 3, 50, 76
9, 9719, Note_on_c, 3, 50, 0
9, 9720, Note_on_c, 3, 45, 76
9, 9839, Note_on_c, 3, 45, 0
9, 9840, Note_on_c, 3, 50, 76
9, 10079, Note_on_c, 3, 50, 0
9, 18000, Note_on_c, 3, 50, 76
9, 18059, Note_on_c, 3, 50, 0
9, 18060, Note_on_c, 3, 50, 76
9, 18119, Note_on_c, 3, 50, 0
9, 18120, Note_on_c, 3, 50, 76
9, 18239, Note_on_c, 3, 50, 0
9, 18240, Note_on_c, 3, 45, 76
9, 18359, Note_on_c, 3, 45, 0
9, 18360, Note_on_c, 3, 50, 76
9, 18479, Note_on_c, 3, 50, 0
9, 18480, Note_on_c, 3, 45, 76
9, 18719, Note_on_c, 3, 45, 0
9, 31320, Note_on_c, 3, 45, 76
9, 31559, Note_on_c, 3, 45, 0
9, 32040, Note_on_c, 3, 45, 76
9, 32279, Note_on_c, 3, 45, 0
9, 32760, Note_on_c, 3, 45, 76
9, 32999, Note_on_c, 3, 45, 0
9, 36000, Note_on_c, 3, 45, 76
9, 36119, Note_on_c, 3, 45, 0
9, 36120, Note_on_c, 3, 50, 76
9, 36239, Note_on_c, 3, 50, 0
9, 36240, Note_on_c, 3, 45, 76
9, 36359, Note_on_c, 3, 45, 0
9, 36360, Note_on_c, 3, 50, 76
9, 36479, Note_on_c, 3, 50, 0
9, 36480, Note_on_c, 3, 50, 76
9, 36599, Note_on_c, 3, 50, 0
9, 36600, Note_on_c, 3, 45, 76
9, 36719, Note_on_c, 3, 45, 0
9, 36720, Note_on_c, 3, 50, 76
9, 36839, Note_on_c, 3, 50, 0
9, 36840, Note_on_c, 3, 45, 76
9, 36959, Note_on_c, 3, 45, 0
9, 36960, Note_on_c, 3, 45, 76
9, 37079, Note_on_c, 3, 45, 0
9, 37080, Note_on_c, 3, 50, 76
9, 37319, Note_on_c, 3, 50, 0
9, 37320, Note_on_c, 3, 50, 76
9, 37799, Note_on_c, 3, 50, 0
9, 37800, Note_on_c, 3, 45, 76
9, 38039, Note_on_c, 3, 45, 0
9, 40320, Note_on_c, 3, 45, 76
9, 40439, Note_on_c, 3, 45, 0
9, 40440, Note_on_c, 3, 50, 76
9, 40559, Note_on_c, 3, 50, 0
9, 40560, Note_on_c, 3, 45, 76
9, 40679, Note_on_c, 3, 45, 0
9, 40680, Note_on_c, 3, 50, 76
9, 40799, Note_on_c, 3, 50, 0
9, 41040, Note_on_c, 3, 45, 76
9, 41159, Note_on_c, 3, 45, 0
9, 41160, Note_on_c, 3, 50, 76
9, 41279, Note_on_c, 3, 50, 0
9, 41280, Note_on_c, 3, 50, 76
9, 41399, Note_on_c, 3, 50, 0
9, 41400, Note_on_c, 3, 45, 76
9, 41519, Note_on_c, 3, 45, 0
9, 41520, Note_on_c, 3, 45, 76
9, 41579, Note_on_c, 3, 45, 0
9, 41580, Note_on_c, 3, 45, 76
9, 41639, Note_on_c, 3, 45, 0
9, 41640, Note_on_c, 3, 50, 76
9, 41759, Note_on_c, 3, 50, 0
9, 41760, Note_on_c, 3, 50, 76
9, 41879, Note_on_c, 3, 50, 0
9, 41880, Note_on_c, 3, 45, 76
9, 41999, Note_on_c, 3, 45, 0
9, 42000, Note_on_c, 3, 50, 76
9, 42119, Note_on_c, 3, 50, 0
9, 42120, Note_on_c, 3, 50, 76
9, 42239, Note_on_c, 3, 50, 0
9, 42480, Note_on_c, 3, 50, 76
9, 42599, Note_on_c, 3, 50, 0
9, 42600, Note_on_c, 3, 45, 76
9, 42719, Note_on_c, 3, 45, 0
9, 42720, Note_on_c, 3, 45, 76
9, 42839, Note_on_c, 3, 45, 0
9, 42840, Note_on_c, 3, 50, 76
9, 43199, Note_on_c, 3, 50, 0
9, 43920, Note_on_c, 3, 50, 76
9, 43979, Note_on_c, 3, 50, 0
9, 43980, Note_on_c, 3, 50, 76
9, 44039, Note_on_c, 3, 50, 0
9, 44040, Note_on_c, 3, 50, 76
9, 44159, Note_on_c, 3, 50, 0
9, 44160, Note_on_c, 3, 45, 76
9, 44279, Note_on_c, 3, 45, 0
9, 44280, Note_on_c, 3, 50, 76
9, 44399, Note_on_c, 3, 50, 0
9, 44400, Note_on_c, 3, 45, 76
9, 44639, Note_on_c, 3, 45, 0
9, 57240, Note_on_c, 3, 45, 76
9, 57479, Note_on_c, 3, 45, 0
9, 57960, Note_on_c, 3, 45, 76
9, 58199, Note_on_c, 3, 45, 0
9, 58680, Note_on_c, 3, 45, 76
9, 58919, Note_on_c, 3, 45, 0
9, 61920, Note_on_c, 3, 45, 76
9, 62039, Note_on_c, 3, 45, 0
9, 62040, Note_on_c, 3, 50, 76
9, 62159, Note_on_c, 3, 50, 0
9, 62160, Note_on_c, 3, 45, 76
9, 62279, Note_on_c, 3, 45, 0
9, 62280, Note_on_c, 3, 50, 76
9, 62399, Note_on_c, 3, 50, 0
9, 62400, Note_on_c, 3, 50, 76
9, 62519, Note_on_c, 3, 50, 0
9, 62520, Note_on_c, 3, 45, 76
9, 62639, Note_on_c, 3, 45, 0
9, 62640, Note_on_c, 3, 50, 76
9, 62759, Note_on_c, 3, 50, 0
9, 62760, Note_on_c, 3, 45, 76
9, 62879, Note_on_c, 3, 45, 0
9, 62880, Note_on_c, 3, 45, 76
9, 62999, Note_on_c, 3, 45, 0
9, 63000, Note_on_c, 3, 50, 76
9, 63239, Note_on_c, 3, 50, 0
9, 63240, Note_on_c, 3, 50, 76
9, 63719, Note_on_c, 3, 50, 0
9, 63720, Note_on_c, 3, 45, 76
9, 63959, Note_on_c, 3, 45, 0
9, 66240, Note_on_c, 3, 45, 76
9, 66359, Note_on_c, 3, 45, 0
9, 66360, Note_on_c, 3, 50, 76
9, 66479, Note_on_c, 3, 50, 0
9, 66480, Note_on_c, 3, 45, 76
9, 66599, Note_on_c, 3, 45, 0
9, 66600, Note_on_c, 3, 50, 76
9, 66719, Note_on_c, 3, 50, 0
9, 66960, Note_on_c, 3, 45, 76
9, 67079, Note_on_c, 3, 45, 0
9, 67080, Note_on_c, 3, 50, 76
9, 67199, Note_on_c, 3, 50, 0
9, 67200, Note_on_c, 3, 50, 76
9, 67319, Note_on_c, 3, 50, 0
9, 67320, Note_on_c, 3, 45, 76
9, 67439, Note_on_c, 3, 45, 0
9, 67440, Note_on_c, 3, 45, 76
9, 67499, Note_on_c, 3, 45, 0
9, 67500, Note_on_c, 3, 45, 76
9, 67559, Note_on_c, 3, 45, 0
9, 67560, Note_on_c, 3, 50, 76
9, 67679, Note_on_c, 3, 50, 0
9, 67680, Note_on_c, 3, 50, 76
9, 67799, Note_on_c, 3, 50, 0
9, 67800, Note_on_c, 3, 45, 76
9, 67919, Note_on_c, 3, 45, 0
9, 67920, Note_on_c, 3, 50, 76
9, 68039, Note_on_c, 3, 50, 0
9, 68040, Note_on_c, 3, 50, 76
9, 68159, Note_on_c, 3, 50, 0
9, 68400, Note_on_c, 3, 50, 76
9, 68519, Note_on_c, 3, 50, 0
9, 68520, Note_on_c, 3, 45, 76
9, 68639, Note_on_c, 3, 45, 0
9, 68640, Note_on_c, 3, 45, 76
9, 68759, Note_on_c, 3, 45, 0
9, 68760, Note_on_c, 3, 50, 76
9, 69119, Note_on_c, 3, 50, 0
9, 69119, End_track
10, 0, Start_track
10, 0, Title_t, "Oboe I"
10, 0, MIDI_port, 0
10, 0, Program_c, 4, 68
10, 0, Control_c, 4, 10, 59
10, 0, Control_c, 4, 11, 127
10, 0, Control_c, 4, 7, 80
10, 0, Note_on_c, 4, 78, 76
10, 51, Note_on_c, 4, 78, 0
10, 60, Note_on_c, 4, 76, 76
10, 111, Note_on_c, 4, 76, 0
10, 120, Note_on_c, 4, 78, 76
10, 209, Note_on_c, 4, 78, 0
10, 240, Note_on_c, 4, 79, 76
10, 329, Note_on_c, 4, 79, 0
10, 360, Note_on_c, 4, 76, 76
10, 389, Note_on_c, 4, 76, 0
10, 390, Note_on_c, 4, 78, 76
10, 419, Note_on_c, 4, 78, 0
10, 420, Note_on_c, 4, 74, 76
10, 449, Note_on_c, 4, 74, 0
10, 450, Note_on_c, 4, 76, 76
10, 479, Note_on_c, 4, 76, 0
10, 480, Note_on_c, 4, 74, 76
10, 531, Note_on_c, 4, 74, 0
10, 540, Note_on_c, 4, 73, 76
10, 591, Note_on_c, 4, 73, 0
10, 600, Note_on_c, 4, 74, 76
10, 651, Note_on_c, 4, 74, 0
10, 660, Note_on_c, 4, 76, 76
10, 711, Note_on_c, 4, 76, 0
10, 720, Note_on_c, 4, 78, 76
10, 771, Note_on_c, 4, 78, 0
10, 780, Note_on_c, 4, 79, 76
10, 831, Note_on_c, 4, 79, 0
10, 840, Note_on_c, 4, 81, 76
10, 929, Note_on_c, 4, 81, 0
10, 960, Note_on_c, 4, 83, 76
10, 1049, Note_on_c, 4, 83, 0
10, 1080, Note_on_c, 4, 79, 76
10, 1109, Note_on_c, 4, 79, 0
10, 1110, Note_on_c, 4, 81, 76
10, 1139, Note_on_c, 4, 81, 0
10, 1140, Note_on_c, 4, 78, 76
10, 1169, Note_on_c, 4, 78, 0
10, 1170, Note_on_c, 4, 79, 76
10, 1199, Note_on_c, 4, 79, 0
10, 1200, Note_on_c, 4, 78, 76
10, 1424, Note_on_c, 4, 78, 0
10, 1440, Note_on_c, 4, 76, 76
10, 1491, Note_on_c, 4, 76, 0
10, 1500, Note_on_c, 4, 74, 76
10, 1551, Note_on_c, 4, 74, 0
10, 1560, Note_on_c, 4, 76, 76
10, 1611, Note_on_c, 4, 76, 0
10, 1620, Note_on_c, 4, 78, 76
10, 1671, Note_on_c, 4, 78, 0
10, 1680, Note_on_c, 4, 78, 76
10, 1799, Note_on_c, 4, 78, 0
10, 1800, Note_on_c, 4, 74, 76
10, 1829, Note_on_c, 4, 74, 0
10, 1830, Note_on_c, 4, 76, 76
10, 1859, Note_on_c, 4, 76, 0
10, 1860, Note_on_c, 4, 73, 76
10, 1889, Note_on_c, 4, 73, 0
10, 1890, Note_on_c, 4, 74, 76
10, 1919, Note_on_c, 4, 74, 0
10, 1920, Note_on_c, 4, 73, 76
10, 1979, Note_on_c, 4, 73, 0
10, 1980, Note_on_c, 4, 71, 76
10, 2031, Note_on_c, 4, 71, 0
10, 2040, Note_on_c, 4, 73, 76
10, 2091, Note_on_c, 4, 73, 0
10, 2100, Note_on_c, 4, 74, 76
10, 2151, Note_on_c, 4, 74, 0
10, 2160, Note_on_c, 4, 76, 76
10, 2211, Note_on_c, 4, 76, 0
10, 2220, Note_on_c, 4, 78, 76
10, 2271, Note_on_c, 4, 78, 0
10, 2280, Note_on_c, 4, 80, 76
10, 2369, Note_on_c, 4, 80, 0
10, 2400, Note_on_c, 4, 81, 76
10, 2489, Note_on_c, 4, 81, 0
10, 2520, Note_on_c, 4, 71, 76
10, 2549, Note_on_c, 4, 71, 0
10, 2550, Note_on_c, 4, 73, 76
10, 2579, Note_on_c, 4, 73, 0
10, 2580, Note_on_c, 4, 69, 76
10, 2609, Note_on_c, 4, 69, 0
10, 2610, Note_on_c, 4, 71, 76
10, 2639, Note_on_c, 4, 71, 0
10, 2640, Note_on_c, 4, 69, 76
10, 2691, Note_on_c, 4, 69, 0
10, 2700, Note_on_c, 4, 68, 76
10, 2751, Note_on_c, 4, 68, 0
10, 2760, Note_on_c, 4, 69, 76
10, 2811, Note_on_c, 4, 69, 0
10, 2820, Note_on_c, 4, 71, 76
10, 2871, Note_on_c, 4, 71, 0
10, 2880, Note_on_c, 4, 73, 76
10, 2931, Note_on_c, 4, 73, 0
10, 2940, Note_on_c, 4, 74, 76
10, 2991, Note_on_c, 4, 74, 0
10, 3000, Note_on_c, 4, 76, 76
10, 3089, Note_on_c, 4, 76, 0
10, 3120, Note_on_c, 4, 78, 76
10, 3209, Note_on_c, 4, 78, 0
10, 3240, Note_on_c, 4, 68, 76
10, 3269, Note_on_c, 4, 68, 0
10, 3270, Note_on_c, 4, 69, 76
10, 3299, Note_on_c, 4, 69, 0
10, 3300, Note_on_c, 4, 66, 76
10, 3329, Note_on_c, 4, 66, 0
10, 3330, Note_on_c, 4, 68, 76
10, 3359, Note_on_c, 4, 68, 0
10, 3360, Note_on_c, 4, 66, 76
10, 3411, Note_on_c, 4, 66, 0
10, 3420, Note_on_c, 4, 64, 76
10, 3471, Note_on_c, 4, 64, 0
10, 3480, Note_on_c, 4, 74, 76
10, 3659, Note_on_c, 4, 74, 0
10, 3720, Note_on_c, 4, 73, 76
10, 3899, Note_on_c, 4, 73, 0
10, 4080, Note_on_c, 4, 74, 76
10, 4184, Note_on_c, 4, 74, 0
10, 4200, Note_on_c, 4, 71, 76
10, 4229, Note_on_c, 4, 71, 0
10, 4230, Note_on_c, 4, 73, 76
10, 4259, Note_on_c, 4, 73, 0
10, 4260, Note_on_c, 4, 69, 76
10, 4289, Note_on_c, 4, 69, 0
10, 4290, Note_on_c, 4, 71, 76
10, 4319, Note_on_c, 4, 71, 0
10, 4320, Note_on_c, 4, 69, 76
10, 4371, Note_on_c, 4, 69, 0
10, 4380, Note_on_c, 4, 68, 76
10, 4431, Note_on_c, 4, 68, 0
10, 4440, Note_on_c, 4, 78, 76
10, 4619, Note_on_c, 4, 78, 0
10, 4680, Note_on_c, 4, 76, 76
10, 4859, Note_on_c, 4, 76, 0
10, 5040, Note_on_c, 4, 78, 76
10, 5144, Note_on_c, 4, 78, 0
10, 5160, Note_on_c, 4, 74, 76
10, 5189, Note_on_c, 4, 74, 0
10, 5190, Note_on_c, 4, 76, 76
10, 5219, Note_on_c, 4, 76, 0
10, 5220, Note_on_c, 4, 73, 76
10, 5249, Note_on_c, 4, 73, 0
10, 5250, Note_on_c, 4, 74, 76
10, 5279, Note_on_c, 4, 74, 0
10, 5280, Note_on_c, 4, 73, 76
10, 5331, Note_on_c, 4, 73, 0
10, 5340, Note_on_c, 4, 71, 76
10, 5391, Note_on_c, 4, 71, 0
10, 5400, Note_on_c, 4, 81, 76
10, 5579, Note_on_c, 4, 81, 0
10, 5640, Note_on_c, 4, 80, 76
10, 5744, Note_on_c, 4, 80, 0
10, 5760, Note_on_c, 4, 81, 76
10, 5811, Note_on_c, 4, 81, 0
10, 5820, Note_on_c, 4, 83, 76
10, 5871, Note_on_c, 4, 83, 0
10, 5880, Note_on_c, 4, 76, 76
10, 5984, Note_on_c, 4, 76, 0
10, 6000, Note_on_c, 4, 74, 76
10, 6104, Note_on_c, 4, 74, 0
10, 6120, Note_on_c, 4, 73, 76
10, 6149, Note_on_c, 4, 73, 0
10, 6150, Note_on_c, 4, 74, 76
10, 6179, Note_on_c, 4, 74, 0
10, 6180, Note_on_c, 4, 71, 76
10, 6209, Note_on_c, 4, 71, 0
10, 6210, Note_on_c, 4, 73, 76
10, 6239, Note_on_c, 4, 73, 0
10, 6240, Note_on_c, 4, 71, 76
10, 6291, Note_on_c, 4, 71, 0
10, 6300, Note_on_c, 4, 69, 76
10, 6351, Note_on_c, 4, 69, 0
10, 6360, Note_on_c, 4, 71, 76
10, 6464, Note_on_c, 4, 71, 0
10, 6480, Note_on_c, 4, 81, 76
10, 6531, Note_on_c, 4, 81, 0
10, 6540, Note_on_c, 4, 80, 76
10, 6591, Note_on_c, 4, 80, 0
10, 6600, Note_on_c, 4, 81, 76
10, 6704, Note_on_c, 4, 81, 0
10, 6720, Note_on_c, 4, 83, 76
10, 6824, Note_on_c, 4, 83, 0
10, 6840, Note_on_c, 4, 74, 76
10, 6869, Note_on_c, 4, 74, 0
10, 6870, Note_on_c, 4, 76, 76
10, 6899, Note_on_c, 4, 76, 0
10, 6900, Note_on_c, 4, 73, 76
10, 6929, Note_on_c, 4, 73, 0
10, 6930, Note_on_c, 4, 74, 76
10, 6959, Note_on_c, 4, 74, 0
10, 6960, Note_on_c, 4, 73, 76
10, 7011, Note_on_c, 4, 73, 0
10, 7020, Note_on_c, 4, 71, 76
10, 7071, Note_on_c, 4, 71, 0
10, 7080, Note_on_c, 4, 73, 76
10, 7131, Note_on_c, 4, 73, 0
10, 7140, Note_on_c, 4, 74, 76
10, 7191, Note_on_c, 4, 74, 0
10, 7200, Note_on_c, 4, 76, 76
10, 7251, Note_on_c, 4, 76, 0
10, 7260, Note_on_c, 4, 78, 76
10, 7311, Note_on_c, 4, 78, 0
10, 7320, Note_on_c, 4, 80, 76
10, 7424, Note_on_c, 4, 80, 0
10, 7440, Note_on_c, 4, 81, 76
10, 7544, Note_on_c, 4, 81, 0
10, 7560, Note_on_c, 4, 71, 76
10, 7589, Note_on_c, 4, 71, 0
10, 7590, Note_on_c, 4, 73, 76
10, 7619, Note_on_c, 4, 73, 0
10, 7620, Note_on_c, 4, 69, 76
10, 7649, Note_on_c, 4, 69, 0
10, 7650, Note_on_c, 4, 71, 76
10, 7679, Note_on_c, 4, 71, 0
10, 7680, Note_on_c, 4, 69, 76
10, 7731, Note_on_c, 4, 69, 0
10, 7740, Note_on_c, 4, 68, 76
10, 7791, Note_on_c, 4, 68, 0
10, 7800, Note_on_c, 4, 69, 76
10, 7904, Note_on_c, 4, 69, 0
10, 7920, Note_on_c, 4, 71, 76
10, 8024, Note_on_c, 4, 71, 0
10, 8040, Note_on_c, 4, 64, 76
10, 8144, Note_on_c, 4, 64, 0
10, 8160, Note_on_c, 4, 68, 76
10, 8264, Note_on_c, 4, 68, 0
10, 8280, Note_on_c, 4, 69, 76
10, 8624, Note_on_c, 4, 69, 0
10, 8640, Note_on_c, 4, 78, 76
10, 8691, Note_on_c, 4, 78, 0
10, 8700, Note_on_c, 4, 76, 76
10, 8751, Note_on_c, 4, 76, 0
10, 8760, Note_on_c, 4, 78, 76
10, 8849, Note_on_c, 4, 78, 0
10, 8880, Note_on_c, 4, 79, 76
10, 8969, Note_on_c, 4, 79, 0
10, 9000, Note_on_c, 4, 76, 76
10, 9029, Note_on_c, 4, 76, 0
10, 9030, Note_on_c, 4, 78, 76
10, 9059, Note_on_c, 4, 78, 0
10, 9060, Note_on_c, 4, 74, 76
10, 9089, Note_on_c, 4, 74, 0
10, 9090, Note_on_c, 4, 76, 76
10, 9119, Note_on_c, 4, 76, 0
10, 9120, Note_on_c, 4, 74, 76
10, 9171, Note_on_c, 4, 74, 0
10, 9180, Note_on_c, 4, 73, 76
10, 9231, Note_on_c, 4, 73, 0
10, 9240, Note_on_c, 4, 74, 76
10, 9291, Note_on_c, 4, 74, 0
10, 9300, Note_on_c, 4, 76, 76
10, 9351, Note_on_c, 4, 76, 0
10, 9360, Note_on_c, 4, 78, 76
10, 9411, Note_on_c, 4, 78, 0
10, 9420, Note_on_c, 4, 79, 76
10, 9471, Note_on_c, 4, 79, 0
10, 9480, Note_on_c, 4, 81, 76
10, 9569, Note_on_c, 4, 81, 0
10, 9600, Note_on_c, 4, 83, 76
10, 9689, Note_on_c, 4, 83, 0
10, 9720, Note_on_c, 4, 79, 76
10, 9749, Note_on_c, 4, 79, 0
10, 9750, Note_on_c, 4, 81, 76
10, 9779, Note_on_c, 4, 81, 0
10, 9780, Note_on_c, 4, 78, 76
10, 9809, Note_on_c, 4, 78, 0
10, 9810, Note_on_c, 4, 79, 76
10, 9839, Note_on_c, 4, 79, 0
10, 9840, Note_on_c, 4, 78, 76
10, 10064, Note_on_c, 4, 78, 0
10, 10080, Note_on_c, 4, 76, 76
10, 10131, Note_on_c, 4, 76, 0
10, 10140, Note_on_c, 4, 74, 76
10, 10191, Note_on_c, 4, 74, 0
10, 10200, Note_on_c, 4, 76, 76
10, 10251, Note_on_c, 4, 76, 0
10, 10260, Note_on_c, 4, 78, 76
10, 10311, Note_on_c, 4, 78, 0
10, 10320, Note_on_c, 4, 78, 76
10, 10439, Note_on_c, 4, 78, 0
10, 10440, Note_on_c, 4, 74, 76
10, 10469, Note_on_c, 4, 74, 0
10, 10470, Note_on_c, 4, 76, 76
10, 10499, Note_on_c, 4, 76, 0
10, 10500, Note_on_c, 4, 73, 76
10, 10529, Note_on_c, 4, 73, 0
10, 10530, Note_on_c, 4, 74, 76
10, 10559, Note_on_c, 4, 74, 0
10, 10560, Note_on_c, 4, 73, 76
10, 10619, Note_on_c, 4, 73, 0
10, 10620, Note_on_c, 4, 71, 76
10, 10671, Note_on_c, 4, 71, 0
10, 10680, Note_on_c, 4, 73, 76
10, 10731, Note_on_c, 4, 73, 0
10, 10740, Note_on_c, 4, 74, 76
10, 10791, Note_on_c, 4, 74, 0
10, 10800, Note_on_c, 4, 76, 76
10, 10851, Note_on_c, 4, 76, 0
10, 10860, Note_on_c, 4, 78, 76
10, 10911, Note_on_c, 4, 78, 0
10, 10920, Note_on_c, 4, 80, 76
10, 11009, Note_on_c, 4, 80, 0
10, 11040, Note_on_c, 4, 81, 76
10, 11129, Note_on_c, 4, 81, 0
10, 11160, Note_on_c, 4, 71, 76
10, 11189, Note_on_c, 4, 71, 0
10, 11190, Note_on_c, 4, 73, 76
10, 11219, Note_on_c, 4, 73, 0
10, 11220, Note_on_c, 4, 69, 76
10, 11249, Note_on_c, 4, 69, 0
10, 11250, Note_on_c, 4, 71, 76
10, 11279, Note_on_c, 4, 71, 0
10, 11280, Note_on_c, 4, 69, 76
10, 11331, Note_on_c, 4, 69, 0
10, 11340, Note_on_c, 4, 68, 76
10, 11391, Note_on_c, 4, 68, 0
10, 11400, Note_on_c, 4, 69, 76
10, 11451, Note_on_c, 4, 69, 0
10, 11460, Note_on_c, 4, 71, 76
10, 11511, Note_on_c, 4, 71, 0
10, 11520, Note_on_c, 4, 73, 76
10, 11571, Note_on_c, 4, 73, 0
10, 11580, Note_on_c, 4, 74, 76
10, 11631, Note_on_c, 4, 74, 0
10, 11640, Note_on_c, 4, 76, 76
10, 11729, Note_on_c, 4, 76, 0
10, 11760, Note_on_c, 4, 78, 76
10, 11849, Note_on_c, 4, 78, 0
10, 11880, Note_on_c, 4, 68, 76
10, 11909, Note_on_c, 4, 68, 0
10, 11910, Note_on_c, 4, 69, 76
10, 11939, Note_on_c, 4, 69, 0
10, 11940, Note_on_c, 4, 66, 76
10, 11969, Note_on_c, 4, 66, 0
10, 11970, Note_on_c, 4, 68, 76
10, 11999, Note_on_c, 4, 68, 0
10, 12000, Note_on_c, 4, 66, 76
10, 12051, Note_on_c, 4, 66, 0
10, 12060, Note_on_c, 4, 64, 76
10, 12111, Note_on_c, 4, 64, 0
10, 12120, Note_on_c, 4, 74, 76
10, 12299, Note_on_c, 4, 74, 0
10, 12360, Note_on_c, 4, 73, 76
10, 12539, Note_on_c, 4, 73, 0
10, 12720, Note_on_c, 4, 74, 76
10, 12824, Note_on_c, 4, 74, 0
10, 12840, Note_on_c, 4, 71, 76
10, 12869, Note_on_c, 4, 71, 0
10, 12870, Note_on_c, 4, 73, 76
10, 12899, Note_on_c, 4, 73, 0
10, 12900, Note_on_c, 4, 69, 76
10, 12929, Note_on_c, 4, 69, 0
10, 12930, Note_on_c, 4, 71, 76
10, 12959, Note_on_c, 4, 71, 0
10, 12960, Note_on_c, 4, 69, 76
10, 13011, Note_on_c, 4, 69, 0
10, 13020, Note_on_c, 4, 68, 76
10, 13071, Note_on_c, 4, 68, 0
10, 13080, Note_on_c, 4, 78, 76
10, 13259, Note_on_c, 4, 78, 0
10, 13320, Note_on_c, 4, 76, 76
10, 13499, Note_on_c, 4, 76, 0
10, 13680, Note_on_c, 4, 78, 76
10, 13784, Note_on_c, 4, 78, 0
10, 13800, Note_on_c, 4, 74, 76
10, 13829, Note_on_c, 4, 74, 0
10, 13830, Note_on_c, 4, 76, 76
10, 13859, Note_on_c, 4, 76, 0
10, 13860, Note_on_c, 4, 73, 76
10, 13889, Note_on_c, 4, 73, 0
10, 13890, Note_on_c, 4, 74, 76
10, 13919, Note_on_c, 4, 74, 0
10, 13920, Note_on_c, 4, 73, 76
10, 13971, Note_on_c, 4, 73, 0
10, 13980, Note_on_c, 4, 71, 76
10, 14031, Note_on_c, 4, 71, 0
10, 14040, Note_on_c, 4, 81, 76
10, 14219, Note_on_c, 4, 81, 0
10, 14280, Note_on_c, 4, 80, 76
10, 14384, Note_on_c, 4, 80, 0
10, 14400, Note_on_c, 4, 81, 76
10, 14451, Note_on_c, 4, 81, 0
10, 14460, Note_on_c, 4, 83, 76
10, 14511, Note_on_c, 4, 83, 0
10, 14520, Note_on_c, 4, 76, 76
10, 14624, Note_on_c, 4, 76, 0
10, 14640, Note_on_c, 4, 74, 76
10, 14744, Note_on_c, 4, 74, 0
10, 14760, Note_on_c, 4, 73, 76
10, 14789, Note_on_c, 4, 73, 0
10, 14790, Note_on_c, 4, 74, 76
10, 14819, Note_on_c, 4, 74, 0
10, 14820, Note_on_c, 4, 71, 76
10, 14849, Note_on_c, 4, 71, 0
10, 14850, Note_on_c, 4, 73, 76
10, 14879, Note_on_c, 4, 73, 0
10, 14880, Note_on_c, 4, 71, 76
10, 14931, Note_on_c, 4, 71, 0
10, 14940, Note_on_c, 4, 69, 76
10, 14991, Note_on_c, 4, 69, 0
10, 15000, Note_on_c, 4, 71, 76
10, 15104, Note_on_c, 4, 71, 0
10, 15120, Note_on_c, 4, 81, 76
10, 15171, Note_on_c, 4, 81, 0
10, 15180, Note_on_c, 4, 80, 76
10, 15231, Note_on_c, 4, 80, 0
10, 15240, Note_on_c, 4, 81, 76
10, 15344, Note_on_c, 4, 81, 0
10, 15360, Note_on_c, 4, 83, 76
10, 15464, Note_on_c, 4, 83, 0
10, 15480, Note_on_c, 4, 74, 76
10, 15509, Note_on_c, 4, 74, 0
10, 15510, Note_on_c, 4, 76, 76
10, 15539, Note_on_c, 4, 76, 0
10, 15540, Note_on_c, 4, 73, 76
10, 15569, Note_on_c, 4, 73, 0
10, 15570, Note_on_c, 4, 74, 76
10, 15599, Note_on_c, 4, 74, 0
10, 15600, Note_on_c, 4, 73, 76
10, 15651, Note_on_c, 4, 73, 0
10, 15660, Note_on_c, 4, 71, 76
10, 15711, Note_on_c, 4, 71, 0
10, 15720, Note_on_c, 4, 73, 76
10, 15771, Note_on_c, 4, 73, 0
10, 15780, Note_on_c, 4, 74, 76
10, 15831, Note_on_c, 4, 74, 0
10, 15840, Note_on_c, 4, 76, 76
10, 15891, Note_on_c, 4, 76, 0
10, 15900, Note_on_c, 4, 78, 76
10, 15951, Note_on_c, 4, 78, 0
10, 15960, Note_on_c, 4, 80, 76
10, 16064, Note_on_c, 4, 80, 0
10, 16080, Note_on_c, 4, 81, 76
10, 16184, Note_on_c, 4, 81, 0
10, 16200, Note_on_c, 4, 71, 76
10, 16229, Note_on_c, 4, 71, 0
10, 16230, Note_on_c, 4, 73, 76
10, 16259, Note_on_c, 4, 73, 0
10, 16260, Note_on_c, 4, 69, 76
10, 16289, Note_on_c, 4, 69, 0
10, 16290, Note_on_c, 4, 71, 76
10, 16319, Note_on_c, 4, 71, 0
10, 16320, Note_on_c, 4, 69, 76
10, 16371, Note_on_c, 4, 69, 0
10, 16380, Note_on_c, 4, 68, 76
10, 16431, Note_on_c, 4, 68, 0
10, 16440, Note_on_c, 4, 69, 76
10, 16544, Note_on_c, 4, 69, 0
10, 16560, Note_on_c, 4, 71, 76
10, 16664, Note_on_c, 4, 71, 0
10, 16680, Note_on_c, 4, 64, 76
10, 16784, Note_on_c, 4, 64, 0
10, 16800, Note_on_c, 4, 68, 76
10, 16904, Note_on_c, 4, 68, 0
10, 16920, Note_on_c, 4, 69, 76
10, 17264, Note_on_c, 4, 69, 0
10, 17280, Note_on_c, 4, 76, 76
10, 17331, Note_on_c, 4, 76, 0
10, 17340, Note_on_c, 4, 74, 76
10, 17391, Note_on_c, 4, 74, 0
10, 17400, Note_on_c, 4, 76, 76
10, 17489, Note_on_c, 4, 76, 0
10, 17520, Note_on_c, 4, 78, 76
10, 17587, Note_on_c, 4, 78, 0
10, 17620, Note_on_c, 4, 78, 76
10, 17639, Note_on_c, 4, 78, 0
10, 17640, Note_on_c, 4, 79, 76
10, 17744, Note_on_c, 4, 79, 0
10, 17760, Note_on_c, 4, 78, 76
10, 17811, Note_on_c, 4, 78, 0
10, 17820, Note_on_c, 4, 76, 76
10, 17871, Note_on_c, 4, 76, 0
10, 17880, Note_on_c, 4, 78, 76
10, 17931, Note_on_c, 4, 78, 0
10, 17940, Note_on_c, 4, 79, 76
10, 17991, Note_on_c, 4, 79, 0
10, 18000, Note_on_c, 4, 81, 76
10, 18104, Note_on_c, 4, 81, 0
10, 18120, Note_on_c, 4, 74, 76
10, 18209, Note_on_c, 4, 74, 0
10, 18240, Note_on_c, 4, 76, 76
10, 18307, Note_on_c, 4, 76, 0
10, 18340, Note_on_c, 4, 76, 76
10, 18359, Note_on_c, 4, 76, 0
10, 18360, Note_on_c, 4, 78, 76
10, 18464, Note_on_c, 4, 78, 0
10, 18480, Note_on_c, 4, 76, 76
10, 18704, Note_on_c, 4, 76, 0
10, 18720, Note_on_c, 4, 78, 76
10, 18771, Note_on_c, 4, 78, 0
10, 18780, Note_on_c, 4, 76, 76
10, 18831, Note_on_c, 4, 76, 0
10, 18840, Note_on_c, 4, 78, 76
10, 18944, Note_on_c, 4, 78, 0
10, 18960, Note_on_c, 4, 79, 76
10, 19027, Note_on_c, 4, 79, 0
10, 19060, Note_on_c, 4, 79, 76
10, 19079, Note_on_c, 4, 79, 0
10, 19080, Note_on_c, 4, 81, 76
10, 19184, Note_on_c, 4, 81, 0
10, 19200, Note_on_c, 4, 79, 76
10, 19251, Note_on_c, 4, 79, 0
10, 19260, Note_on_c, 4, 78, 76
10, 19311, Note_on_c, 4, 78, 0
10, 19320, Note_on_c, 4, 79, 76
10, 19371, Note_on_c, 4, 79, 0
10, 19380, Note_on_c, 4, 81, 76
10, 19431, Note_on_c, 4, 81, 0
10, 19440, Note_on_c, 4, 83, 76
10, 19544, Note_on_c, 4, 83, 0
10, 19560, Note_on_c, 4, 76, 76
10, 19649, Note_on_c, 4, 76, 0
10, 19680, Note_on_c, 4, 78, 76
10, 19747, Note_on_c, 4, 78, 0
10, 19780, Note_on_c, 4, 78, 76
10, 19799, Note_on_c, 4, 78, 0
10, 19800, Note_on_c, 4, 79, 76
10, 19904, Note_on_c, 4, 79, 0
10, 19920, Note_on_c, 4, 78, 76
10, 20144, Note_on_c, 4, 78, 0
10, 20160, Note_on_c, 4, 79, 76
10, 20211, Note_on_c, 4, 79, 0
10, 20220, Note_on_c, 4, 78, 76
10, 20271, Note_on_c, 4, 78, 0
10, 20280, Note_on_c, 4, 79, 76
10, 20384, Note_on_c, 4, 79, 0
10, 20400, Note_on_c, 4, 81, 76
10, 20504, Note_on_c, 4, 81, 0
10, 20520, Note_on_c, 4, 78, 76
10, 20549, Note_on_c, 4, 78, 0
10, 20550, Note_on_c, 4, 79, 76
10, 20579, Note_on_c, 4, 79, 0
10, 20580, Note_on_c, 4, 76, 76
10, 20609, Note_on_c, 4, 76, 0
10, 20610, Note_on_c, 4, 78, 76
10, 20639, Note_on_c, 4, 78, 0
10, 20640, Note_on_c, 4, 76, 76
10, 20691, Note_on_c, 4, 76, 0
10, 20700, Note_on_c, 4, 75, 76
10, 20751, Note_on_c, 4, 75, 0
10, 20760, Note_on_c, 4, 76, 76
10, 20811, Note_on_c, 4, 76, 0
10, 20820, Note_on_c, 4, 78, 76
10, 20871, Note_on_c, 4, 78, 0
10, 20880, Note_on_c, 4, 79, 76
10, 20931, Note_on_c, 4, 79, 0
10, 20940, Note_on_c, 4, 81, 76
10, 20991, Note_on_c, 4, 81, 0
10, 21000, Note_on_c, 4, 83, 76
10, 21104, Note_on_c, 4, 83, 0
10, 21120, Note_on_c, 4, 84, 76
10, 21224, Note_on_c, 4, 84, 0
10, 21240, Note_on_c, 4, 81, 76
10, 21269, Note_on_c, 4, 81, 0
10, 21270, Note_on_c, 4, 83, 76
10, 21299, Note_on_c, 4, 83, 0
10, 21300, Note_on_c, 4, 79, 76
10, 21329, Note_on_c, 4, 79, 0
10, 21330, Note_on_c, 4, 81, 76
10, 21359, Note_on_c, 4, 81, 0
10, 21360, Note_on_c, 4, 79, 76
10, 21584, Note_on_c, 4, 79, 0
10, 21600, Note_on_c, 4, 78, 76
10, 21651, Note_on_c, 4, 78, 0
10, 21660, Note_on_c, 4, 76, 76
10, 21711, Note_on_c, 4, 76, 0
10, 21720, Note_on_c, 4, 78, 76
10, 21824, Note_on_c, 4, 78, 0
10, 21840, Note_on_c, 4, 79, 76
10, 21944, Note_on_c, 4, 79, 0
10, 21960, Note_on_c, 4, 76, 76
10, 21989, Note_on_c, 4, 76, 0
10, 21990, Note_on_c, 4, 78, 76
10, 22019, Note_on_c, 4, 78, 0
10, 22020, Note_on_c, 4, 74, 76
10, 22049, Note_on_c, 4, 74, 0
10, 22050, Note_on_c, 4, 76, 76
10, 22079, Note_on_c, 4, 76, 0
10, 22080, Note_on_c, 4, 74, 76
10, 22131, Note_on_c, 4, 74, 0
10, 22140, Note_on_c, 4, 73, 76
10, 22191, Note_on_c, 4, 73, 0
10, 22200, Note_on_c, 4, 74, 76
10, 22251, Note_on_c, 4, 74, 0
10, 22260, Note_on_c, 4, 76, 76
10, 22311, Note_on_c, 4, 76, 0
10, 22320, Note_on_c, 4, 78, 76
10, 22371, Note_on_c, 4, 78, 0
10, 22380, Note_on_c, 4, 80, 76
10, 22431, Note_on_c, 4, 80, 0
10, 22440, Note_on_c, 4, 82, 76
10, 22544, Note_on_c, 4, 82, 0
10, 22560, Note_on_c, 4, 83, 76
10, 22664, Note_on_c, 4, 83, 0
10, 22680, Note_on_c, 4, 73, 76
10, 22709, Note_on_c, 4, 73, 0
10, 22710, Note_on_c, 4, 74, 76
10, 22739, Note_on_c, 4, 74, 0
10, 22740, Note_on_c, 4, 71, 76
10, 22769, Note_on_c, 4, 71, 0
10, 22770, Note_on_c, 4, 73, 76
10, 22799, Note_on_c, 4, 73, 0
10, 22800, Note_on_c, 4, 71, 76
10, 22851, Note_on_c, 4, 71, 0
10, 22860, Note_on_c, 4, 70, 76
10, 22911, Note_on_c, 4, 70, 0
10, 22920, Note_on_c, 4, 71, 76
10, 22971, Note_on_c, 4, 71, 0
10, 22980, Note_on_c, 4, 73, 76
10, 23031, Note_on_c, 4, 73, 0
10, 23040, Note_on_c, 4, 74, 76
10, 23091, Note_on_c, 4, 74, 0
10, 23100, Note_on_c, 4, 76, 76
10, 23151, Note_on_c, 4, 76, 0
10, 23160, Note_on_c, 4, 78, 76
10, 23264, Note_on_c, 4, 78, 0
10, 23280, Note_on_c, 4, 79, 76
10, 23384, Note_on_c, 4, 79, 0
10, 23400, Note_on_c, 4, 70, 76
10, 23429, Note_on_c, 4, 70, 0
10, 23430, Note_on_c, 4, 71, 76
10, 23459, Note_on_c, 4, 71, 0
10, 23460, Note_on_c, 4, 68, 76
10, 23489, Note_on_c, 4, 68, 0
10, 23490, Note_on_c, 4, 70, 76
10, 23519, Note_on_c, 4, 70, 0
10, 23520, Note_on_c, 4, 68, 76
10, 23571, Note_on_c, 4, 68, 0
10, 23580, Note_on_c, 4, 66, 76
10, 23631, Note_on_c, 4, 66, 0
10, 23640, Note_on_c, 4, 76, 76
10, 23819, Note_on_c, 4, 76, 0
10, 23880, Note_on_c, 4, 74, 76
10, 24059, Note_on_c, 4, 74, 0
10, 24240, Note_on_c, 4, 76, 76
10, 24344, Note_on_c, 4, 76, 0
10, 24360, Note_on_c, 4, 73, 76
10, 24389, Note_on_c, 4, 73, 0
10, 24390, Note_on_c, 4, 74, 76
10, 24419, Note_on_c, 4, 74, 0
10, 24420, Note_on_c, 4, 71, 76
10, 24449, Note_on_c, 4, 71, 0
10, 24450, Note_on_c, 4, 73, 76
10, 24479, Note_on_c, 4, 73, 0
10, 24480, Note_on_c, 4, 71, 76
10, 24531, Note_on_c, 4, 71, 0
10, 24540, Note_on_c, 4, 70, 76
10, 24591, Note_on_c, 4, 70, 0
10, 24600, Note_on_c, 4, 79, 76
10, 24779, Note_on_c, 4, 79, 0
10, 24840, Note_on_c, 4, 78, 76
10, 25019, Note_on_c, 4, 78, 0
10, 25200, Note_on_c, 4, 79, 76
10, 25304, Note_on_c, 4, 79, 0
10, 25320, Note_on_c, 4, 76, 76
10, 25349, Note_on_c, 4, 76, 0
10, 25350, Note_on_c, 4, 78, 76
10, 25379, Note_on_c, 4, 78, 0
10, 25380, Note_on_c, 4, 74, 76
10, 25409, Note_on_c, 4, 74, 0
10, 25410, Note_on_c, 4, 76, 76
10, 25439, Note_on_c, 4, 76, 0
10, 25440, Note_on_c, 4, 74, 76
10, 25491, Note_on_c, 4, 74, 0
10, 25500, Note_on_c, 4, 73, 76
10, 25551, Note_on_c, 4, 73, 0
10, 25560, Note_on_c, 4, 83, 76
10, 25739, Note_on_c, 4, 83, 0
10, 25800, Note_on_c, 4, 82, 76
10, 25904, Note_on_c, 4, 82, 0
10, 25920, Note_on_c, 4, 83, 76
10, 25971, Note_on_c, 4, 83, 0
10, 25980, Note_on_c, 4, 85, 76
10, 26031, Note_on_c, 4, 85, 0
10, 26040, Note_on_c, 4, 78, 76
10, 26144, Note_on_c, 4, 78, 0
10, 26160, Note_on_c, 4, 76, 76
10, 26264, Note_on_c, 4, 76, 0
10, 26280, Note_on_c, 4, 74, 76
10, 26384, Note_on_c, 4, 74, 0
10, 26400, Note_on_c, 4, 73, 76
10, 26451, Note_on_c, 4, 73, 0
10, 26460, Note_on_c, 4, 71, 76
10, 26511, Note_on_c, 4, 71, 0
10, 26520, Note_on_c, 4, 73, 76
10, 26624, Note_on_c, 4, 73, 0
10, 26640, Note_on_c, 4, 83, 76
10, 26691, Note_on_c, 4, 83, 0
10, 26700, Note_on_c, 4, 82, 76
10, 26751, Note_on_c, 4, 82, 0
10, 26760, Note_on_c, 4, 83, 76
10, 26864, Note_on_c, 4, 83, 0
10, 26880, Note_on_c, 4, 85, 76
10, 26984, Note_on_c, 4, 85, 0
10, 27000, Note_on_c, 4, 76, 76
10, 27029, Note_on_c, 4, 76, 0
10, 27030, Note_on_c, 4, 78, 76
10, 27059, Note_on_c, 4, 78, 0
10, 27060, Note_on_c, 4, 74, 76
10, 27089, Note_on_c, 4, 74, 0
10, 27090, Note_on_c, 4, 76, 76
10, 27119, Note_on_c, 4, 76, 0
10, 27120, Note_on_c, 4, 74, 76
10, 27171, Note_on_c, 4, 74, 0
10, 27180, Note_on_c, 4, 73, 76
10, 27231, Note_on_c, 4, 73, 0
10, 27240, Note_on_c, 4, 74, 76
10, 27291, Note_on_c, 4, 74, 0
10, 27300, Note_on_c, 4, 76, 76
10, 27351, Note_on_c, 4, 76, 0
10, 27360, Note_on_c, 4, 78, 76
10, 27411, Note_on_c, 4, 78, 0
10, 27420, Note_on_c, 4, 80, 76
10, 27471, Note_on_c, 4, 80, 0
10, 27480, Note_on_c, 4, 82, 76
10, 27584, Note_on_c, 4, 82, 0
10, 27600, Note_on_c, 4, 83, 76
10, 27704, Note_on_c, 4, 83, 0
10, 27720, Note_on_c, 4, 73, 76
10, 27749, Note_on_c, 4, 73, 0
10, 27750, Note_on_c, 4, 74, 76
10, 27779, Note_on_c, 4, 74, 0
10, 27780, Note_on_c, 4, 71, 76
10, 27809, Note_on_c, 4, 71, 0
10, 27810, Note_on_c, 4, 73, 76
10, 27839, Note_on_c, 4, 73, 0
10, 27840, Note_on_c, 4, 71, 76
10, 27891, Note_on_c, 4, 71, 0
10, 27900, Note_on_c, 4, 70, 76
10, 27951, Note_on_c, 4, 70, 0
10, 27960, Note_on_c, 4, 71, 76
10, 28064, Note_on_c, 4, 71, 0
10, 28080, Note_on_c, 4, 73, 76
10, 28184, Note_on_c, 4, 73, 0
10, 28200, Note_on_c, 4, 66, 76
10, 28304, Note_on_c, 4, 66, 0
10, 28320, Note_on_c, 4, 70, 76
10, 28424, Note_on_c, 4, 70, 0
10, 28440, Note_on_c, 4, 71, 76
10, 28679, Note_on_c, 4, 71, 0
10, 29520, Note_on_c, 4, 81, 76
10, 29624, Note_on_c, 4, 81, 0
10, 29640, Note_on_c, 4, 69, 76
10, 29744, Note_on_c, 4, 69, 0
10, 29760, Note_on_c, 4, 72, 76
10, 29864, Note_on_c, 4, 72, 0
10, 29880, Note_on_c, 4, 72, 76
10, 29909, Note_on_c, 4, 72, 0
10, 29910, Note_on_c, 4, 74, 76
10, 29939, Note_on_c, 4, 74, 0
10, 29940, Note_on_c, 4, 71, 76
10, 29969, Note_on_c, 4, 71, 0
10, 29970, Note_on_c, 4, 72, 76
10, 29999, Note_on_c, 4, 72, 0
10, 30000, Note_on_c, 4, 71, 76
10, 30239, Note_on_c, 4, 71, 0
10, 30960, Note_on_c, 4, 83, 76
10, 31064, Note_on_c, 4, 83, 0
10, 31080, Note_on_c, 4, 71, 76
10, 31184, Note_on_c, 4, 71, 0
10, 31200, Note_on_c, 4, 74, 76
10, 31304, Note_on_c, 4, 74, 0
10, 31320, Note_on_c, 4, 74, 76
10, 31349, Note_on_c, 4, 74, 0
10, 31350, Note_on_c, 4, 76, 76
10, 31379, Note_on_c, 4, 76, 0
10, 31380, Note_on_c, 4, 73, 76
10, 31409, Note_on_c, 4, 73, 0
10, 31410, Note_on_c, 4, 74, 76
10, 31439, Note_on_c, 4, 74, 0
10, 31440, Note_on_c, 4, 73, 76
10, 31664, Note_on_c, 4, 73, 0
10, 31680, Note_on_c, 4, 81, 76
10, 31731, Note_on_c, 4, 81, 0
10, 31740, Note_on_c, 4, 80, 76
10, 31791, Note_on_c, 4, 80, 0
10, 31800, Note_on_c, 4, 83, 76
10, 31889, Note_on_c, 4, 83, 0
10, 31920, Note_on_c, 4, 81, 76
10, 32009, Note_on_c, 4, 81, 0
10, 32040, Note_on_c, 4, 80, 76
10, 32144, Note_on_c, 4, 80, 0
10, 32160, Note_on_c, 4, 81, 76
10, 32384, Note_on_c, 4, 81, 0
10, 32400, Note_on_c, 4, 79, 76
10, 32451, Note_on_c, 4, 79, 0
10, 32460, Note_on_c, 4, 78, 76
10, 32511, Note_on_c, 4, 78, 0
10, 32520, Note_on_c, 4, 81, 76
10, 32609, Note_on_c, 4, 81, 0
10, 32640, Note_on_c, 4, 79, 76
10, 32729, Note_on_c, 4, 79, 0
10, 32760, Note_on_c, 4, 78, 76
10, 32789, Note_on_c, 4, 78, 0
10, 32790, Note_on_c, 4, 79, 76
10, 32819, Note_on_c, 4, 79, 0
10, 32820, Note_on_c, 4, 76, 76
10, 32849, Note_on_c, 4, 76, 0
10, 32850, Note_on_c, 4, 78, 76
10, 32879, Note_on_c, 4, 78, 0
10, 32880, Note_on_c, 4, 79, 76
10, 33104, Note_on_c, 4, 79, 0
10, 33120, Note_on_c, 4, 77, 76
10, 33171, Note_on_c, 4, 77, 0
10, 33180, Note_on_c, 4, 76, 76
10, 33231, Note_on_c, 4, 76, 0
10, 33240, Note_on_c, 4, 79, 76
10, 33329, Note_on_c, 4, 79, 0
10, 33360, Note_on_c, 4, 77, 76
10, 33449, Note_on_c, 4, 77, 0
10, 33480, Note_on_c, 4, 76, 76
10, 33584, Note_on_c, 4, 76, 0
10, 33600, Note_on_c, 4, 77, 76
10, 33824, Note_on_c, 4, 77, 0
10, 33840, Note_on_c, 4, 74, 76
10, 34064, Note_on_c, 4, 74, 0
10, 34080, Note_on_c, 4, 75, 76
10, 34304, Note_on_c, 4, 75, 0
10, 34320, Note_on_c, 4, 73, 76
10, 34544, Note_on_c, 4, 73, 0
10, 34560, Note_on_c, 4, 74, 76
10, 34784, Note_on_c, 4, 74, 0
10, 34800, Note_on_c, 4, 70, 76
10, 35024, Note_on_c, 4, 70, 0
10, 35040, Note_on_c, 4, 69, 76
10, 35264, Note_on_c, 4, 69, 0
10, 35280, Note_on_c, 4, 68, 76
10, 35504, Note_on_c, 4, 68, 0
10, 35520, Note_on_c, 4, 69, 76
10, 35624, Note_on_c, 4, 69, 0
10, 35640, Note_on_c, 4, 80, 76
10, 35744, Note_on_c, 4, 80, 0
10, 35760, Note_on_c, 4, 81, 76
10, 35984, Note_on_c, 4, 81, 0
10, 36000, Note_on_c, 4, 79, 76
10, 36051, Note_on_c, 4, 79, 0
10, 36060, Note_on_c, 4, 78, 76
10, 36111, Note_on_c, 4, 78, 0
10, 36120, Note_on_c, 4, 79, 76
10, 36224, Note_on_c, 4, 79, 0
10, 36240, Note_on_c, 4, 76, 76
10, 36344, Note_on_c, 4, 76, 0
10, 36360, Note_on_c, 4, 78, 76
10, 36411, Note_on_c, 4, 78, 0
10, 36420, Note_on_c, 4, 79, 76
10, 36471, Note_on_c, 4, 79, 0
10, 36480, Note_on_c, 4, 81, 76
10, 36531, Note_on_c, 4, 81, 0
10, 36540, Note_on_c, 4, 83, 76
10, 36591, Note_on_c, 4, 83, 0
10, 36600, Note_on_c, 4, 85, 76
10, 36704, Note_on_c, 4, 85, 0
10, 36720, Note_on_c, 4, 86, 76
10, 36824, Note_on_c, 4, 86, 0
10, 36840, Note_on_c, 4, 69, 76
10, 36944, Note_on_c, 4, 69, 0
10, 36960, Note_on_c, 4, 73, 76
10, 37064, Note_on_c, 4, 73, 0
10, 37080, Note_on_c, 4, 62, 76
10, 37251, Note_on_c, 4, 62, 0
10, 37260, Note_on_c, 4, 64, 76
10, 37311, Note_on_c, 4, 64, 0
10, 37320, Note_on_c, 4, 66, 76
10, 37379, Note_on_c, 4, 66, 0
10, 37380, Note_on_c, 4, 68, 76
10, 37439, Note_on_c, 4, 68, 0
10, 37440, Note_on_c, 4, 69, 76
10, 37499, Note_on_c, 4, 69, 0
10, 37500, Note_on_c, 4, 71, 76
10, 37551, Note_on_c, 4, 71, 0
10, 37560, Note_on_c, 4, 69, 76
10, 37619, Note_on_c, 4, 69, 0
10, 37620, Note_on_c, 4, 68, 76
10, 37679, Note_on_c, 4, 68, 0
10, 37680, Note_on_c, 4, 66, 76
10, 37739, Note_on_c, 4, 66, 0
10, 37740, Note_on_c, 4, 64, 76
10, 37791, Note_on_c, 4, 64, 0
10, 37800, Note_on_c, 4, 74, 76
10, 37859, Note_on_c, 4, 74, 0
10, 37860, Note_on_c, 4, 73, 76
10, 37919, Note_on_c, 4, 73, 0
10, 37920, Note_on_c, 4, 71, 76
10, 37979, Note_on_c, 4, 71, 0
10, 37980, Note_on_c, 4, 69, 76
10, 38031, Note_on_c, 4, 69, 0
10, 38040, Note_on_c, 4, 79, 76
10, 38219, Note_on_c, 4, 79, 0
10, 38280, Note_on_c, 4, 78, 76
10, 38459, Note_on_c, 4, 78, 0
10, 38640, Note_on_c, 4, 79, 76
10, 38744, Note_on_c, 4, 79, 0
10, 38760, Note_on_c, 4, 76, 76
10, 38789, Note_on_c, 4, 76, 0
10, 38790, Note_on_c, 4, 78, 76
10, 38819, Note_on_c, 4, 78, 0
10, 38820, Note_on_c, 4, 74, 76
10, 38849, Note_on_c, 4, 74, 0
10, 38850, Note_on_c, 4, 76, 76
10, 38879, Note_on_c, 4, 76, 0
10, 38880, Note_on_c, 4, 74, 76
10, 38931, Note_on_c, 4, 74, 0
10, 38940, Note_on_c, 4, 73, 76
10, 38991, Note_on_c, 4, 73, 0
10, 39000, Note_on_c, 4, 83, 76
10, 39179, Note_on_c, 4, 83, 0
10, 39240, Note_on_c, 4, 81, 76
10, 39419, Note_on_c, 4, 81, 0
10, 39600, Note_on_c, 4, 83, 76
10, 39704, Note_on_c, 4, 83, 0
10, 39720, Note_on_c, 4, 79, 76
10, 39824, Note_on_c, 4, 79, 0
10, 39840, Note_on_c, 4, 78, 76
10, 39891, Note_on_c, 4, 78, 0
10, 39900, Note_on_c, 4, 76, 76
10, 39951, Note_on_c, 4, 76, 0
10, 39960, Note_on_c, 4, 86, 76
10, 40139, Note_on_c, 4, 86, 0
10, 40200, Note_on_c, 4, 85, 76
10, 40304, Note_on_c, 4, 85, 0
10, 40320, Note_on_c, 4, 79, 76
10, 40371, Note_on_c, 4, 79, 0
10, 40380, Note_on_c, 4, 78, 76
10, 40431, Note_on_c, 4, 78, 0
10, 40440, Note_on_c, 4, 79, 76
10, 40529, Note_on_c, 4, 79, 0
10, 40560, Note_on_c, 4, 81, 76
10, 40649, Note_on_c, 4, 81, 0
10, 40680, Note_on_c, 4, 79, 76
10, 40739, Note_on_c, 4, 79, 0
10, 40740, Note_on_c, 4, 78, 76
10, 40799, Note_on_c, 4, 78, 0
10, 40800, Note_on_c, 4, 76, 76
10, 40859, Note_on_c, 4, 76, 0
10, 40860, Note_on_c, 4, 74, 76
10, 40911, Note_on_c, 4, 74, 0
10, 40920, Note_on_c, 4, 78, 76
10, 40979, Note_on_c, 4, 78, 0
10, 40980, Note_on_c, 4, 76, 76
10, 41039, Note_on_c, 4, 76, 0
10, 41040, Note_on_c, 4, 74, 76
10, 41099, Note_on_c, 4, 74, 0
10, 41100, Note_on_c, 4, 73, 76
10, 41151, Note_on_c, 4, 73, 0
10, 41160, Note_on_c, 4, 74, 76
10, 41264, Note_on_c, 4, 74, 0
10, 41280, Note_on_c, 4, 76, 76
10, 41384, Note_on_c, 4, 76, 0
10, 41400, Note_on_c, 4, 67, 76
10, 41429, Note_on_c, 4, 67, 0
10, 41430, Note_on_c, 4, 69, 76
10, 41459, Note_on_c, 4, 69, 0
10, 41460, Note_on_c, 4, 66, 76
10, 41489, Note_on_c, 4, 66, 0
10, 41490, Note_on_c, 4, 67, 76
10, 41519, Note_on_c, 4, 67, 0
10, 41520, Note_on_c, 4, 66, 76
10, 41571, Note_on_c, 4, 66, 0
10, 41580, Note_on_c, 4, 64, 76
10, 41631, Note_on_c, 4, 64, 0
10, 41640, Note_on_c, 4, 66, 76
10, 41699, Note_on_c, 4, 66, 0
10, 41700, Note_on_c, 4, 67, 76
10, 41759, Note_on_c, 4, 67, 0
10, 41760, Note_on_c, 4, 69, 76
10, 41819, Note_on_c, 4, 69, 0
10, 41820, Note_on_c, 4, 71, 76
10, 41871, Note_on_c, 4, 71, 0
10, 41880, Note_on_c, 4, 73, 76
10, 41939, Note_on_c, 4, 73, 0
10, 41940, Note_on_c, 4, 74, 76
10, 41999, Note_on_c, 4, 74, 0
10, 42000, Note_on_c, 4, 76, 76
10, 42059, Note_on_c, 4, 76, 0
10, 42060, Note_on_c, 4, 78, 76
10, 42111, Note_on_c, 4, 78, 0
10, 42120, Note_on_c, 4, 79, 76
10, 42171, Note_on_c, 4, 79, 0
10, 42180, Note_on_c, 4, 81, 76
10, 42231, Note_on_c, 4, 81, 0
10, 42240, Note_on_c, 4, 83, 76
10, 42291, Note_on_c, 4, 83, 0
10, 42300, Note_on_c, 4, 79, 76
10, 42351, Note_on_c, 4, 79, 0
10, 42360, Note_on_c, 4, 81, 76
10, 42464, Note_on_c, 4, 81, 0
10, 42480, Note_on_c, 4, 74, 76
10, 42584, Note_on_c, 4, 74, 0
10, 42600, Note_on_c, 4, 69, 76
10, 42704, Note_on_c, 4, 69, 0
10, 42720, Note_on_c, 4, 73, 76
10, 42824, Note_on_c, 4, 73, 0
10, 42840, Note_on_c, 4, 74, 76
10, 43184, Note_on_c, 4, 74, 0
10, 43200, Note_on_c, 4, 76, 76
10, 43251, Note_on_c, 4, 76, 0
10, 43260, Note_on_c, 4, 74, 76
10, 43311, Note_on_c, 4, 74, 0
10, 43320, Note_on_c, 4, 76, 76
10, 43409, Note_on_c, 4, 76, 0
10, 43440, Note_on_c, 4, 78, 76
10, 43507, Note_on_c, 4, 78, 0
10, 43540, Note_on_c, 4, 78, 76
10, 43559, Note_on_c, 4, 78, 0
10, 43560, Note_on_c, 4, 79, 76
10, 43664, Note_on_c, 4, 79, 0
10, 43680, Note_on_c, 4, 78, 76
10, 43731, Note_on_c, 4, 78, 0
10, 43740, Note_on_c, 4, 76, 76
10, 43791, Note_on_c, 4, 76, 0
10, 43800, Note_on_c, 4, 78, 76
10, 43851, Note_on_c, 4, 78, 0
10, 43860, Note_on_c, 4, 79, 76
10, 43911, Note_on_c, 4, 79, 0
10, 43920, Note_on_c, 4, 81, 76
10, 44024, Note_on_c, 4, 81, 0
10, 44040, Note_on_c, 4, 74, 76
10, 44129, Note_on_c, 4, 74, 0
10, 44160, Note_on_c, 4, 76, 76
10, 44227, Note_on_c, 4, 76, 0
10, 44260, Note_on_c, 4, 76, 76
10, 44279, Note_on_c, 4, 76, 0
10, 44280, Note_on_c, 4, 78, 76
10, 44384, Note_on_c, 4, 78, 0
10, 44400, Note_on_c, 4, 76, 76
10, 44624, Note_on_c, 4, 76, 0
10, 44640, Note_on_c, 4, 78, 76
10, 44691, Note_on_c, 4, 78, 0
10, 44700, Note_on_c, 4, 76, 76
10, 44751, Note_on_c, 4, 76, 0
10, 44760, Note_on_c, 4, 78, 76
10, 44864, Note_on_c, 4, 78, 0
10, 44880, Note_on_c, 4, 79, 76
10, 44947, Note_on_c, 4, 79, 0
10, 44980, Note_on_c, 4, 79, 76
10, 44999, Note_on_c, 4, 79, 0
10, 45000, Note_on_c, 4, 81, 76
10, 45104, Note_on_c, 4, 81, 0
10, 45120, Note_on_c, 4, 79, 76
10, 45171, Note_on_c, 4, 79, 0
10, 45180, Note_on_c, 4, 78, 76
10, 45231, Note_on_c, 4, 78, 0
10, 45240, Note_on_c, 4, 79, 76
10, 45291, Note_on_c, 4, 79, 0
10, 45300, Note_on_c, 4, 81, 76
10, 45351, Note_on_c, 4, 81, 0
10, 45360, Note_on_c, 4, 83, 76
10, 45464, Note_on_c, 4, 83, 0
10, 45480, Note_on_c, 4, 76, 76
10, 45569, Note_on_c, 4, 76, 0
10, 45600, Note_on_c, 4, 78, 76
10, 45667, Note_on_c, 4, 78, 0
10, 45700, Note_on_c, 4, 78, 76
10, 45719, Note_on_c, 4, 78, 0
10, 45720, Note_on_c, 4, 79, 76
10, 45824, Note_on_c, 4, 79, 0
10, 45840, Note_on_c, 4, 78, 76
10, 46064, Note_on_c, 4, 78, 0
10, 46080, Note_on_c, 4, 79, 76
10, 46131, Note_on_c, 4, 79, 0
10, 46140, Note_on_c, 4, 78, 76
10, 46191, Note_on_c, 4, 78, 0
10, 46200, Note_on_c, 4, 79, 76
10, 46304, Note_on_c, 4, 79, 0
10, 46320, Note_on_c, 4, 81, 76
10, 46424, Note_on_c, 4, 81, 0
10, 46440, Note_on_c, 4, 78, 76
10, 46469, Note_on_c, 4, 78, 0
10, 46470, Note_on_c, 4, 79, 76
10, 46499, Note_on_c, 4, 79, 0
10, 46500, Note_on_c, 4, 76, 76
10, 46529, Note_on_c, 4, 76, 0
10, 46530, Note_on_c, 4, 78, 76
10, 46559, Note_on_c, 4, 78, 0
10, 46560, Note_on_c, 4, 76, 76
10, 46611, Note_on_c, 4, 76, 0
10, 46620, Note_on_c, 4, 75, 76
10, 46671, Note_on_c, 4, 75, 0
10, 46680, Note_on_c, 4, 76, 76
10, 46731, Note_on_c, 4, 76, 0
10, 46740, Note_on_c, 4, 78, 76
10, 46791, Note_on_c, 4, 78, 0
10, 46800, Note_on_c, 4, 79, 76
10, 46851, Note_on_c, 4, 79, 0
10, 46860, Note_on_c, 4, 81, 76
10, 46911, Note_on_c, 4, 81, 0
10, 46920, Note_on_c, 4, 83, 76
10, 47024, Note_on_c, 4, 83, 0
10, 47040, Note_on_c, 4, 84, 76
10, 47144, Note_on_c, 4, 84, 0
10, 47160, Note_on_c, 4, 81, 76
10, 47189, Note_on_c, 4, 81, 0
10, 47190, Note_on_c, 4, 83, 76
10, 47219, Note_on_c, 4, 83, 0
10, 47220, Note_on_c, 4, 79, 76
10, 47249, Note_on_c, 4, 79, 0
10, 47250, Note_on_c, 4, 81, 76
10, 47279, Note_on_c, 4, 81, 0
10, 47280, Note_on_c, 4, 79, 76
10, 47504, Note_on_c, 4, 79, 0
10, 47520, Note_on_c, 4, 78, 76
10, 47571, Note_on_c, 4, 78, 0
10, 47580, Note_on_c, 4, 76, 76
10, 47631, Note_on_c, 4, 76, 0
10, 47640, Note_on_c, 4, 78, 76
10, 47744, Note_on_c, 4, 78, 0
10, 47760, Note_on_c, 4, 79, 76
10, 47864, Note_on_c, 4, 79, 0
10, 47880, Note_on_c, 4, 76, 76
10, 47909, Note_on_c, 4, 76, 0
10, 47910, Note_on_c, 4, 78, 76
10, 47939, Note_on_c, 4, 78, 0
10, 47940, Note_on_c, 4, 74, 76
10, 47969, Note_on_c, 4, 74, 0
10, 47970, Note_on_c, 4, 76, 76
10, 47999, Note_on_c, 4, 76, 0
10, 48000, Note_on_c, 4, 74, 76
10, 48051, Note_on_c, 4, 74, 0
10, 48060, Note_on_c, 4, 73, 76
10, 48111, Note_on_c, 4, 73, 0
10, 48120, Note_on_c, 4, 74, 76
10, 48171, Note_on_c, 4, 74, 0
10, 48180, Note_on_c, 4, 76, 76
10, 48231, Note_on_c, 4, 76, 0
10, 48240, Note_on_c, 4, 78, 76
10, 48291, Note_on_c, 4, 78, 0
10, 48300, Note_on_c, 4, 80, 76
10, 48351, Note_on_c, 4, 80, 0
10, 48360, Note_on_c, 4, 82, 76
10, 48464, Note_on_c, 4, 82, 0
10, 48480, Note_on_c, 4, 83, 76
10, 48584, Note_on_c, 4, 83, 0
10, 48600, Note_on_c, 4, 73, 76
10, 48629, Note_on_c, 4, 73, 0
10, 48630, Note_on_c, 4, 74, 76
10, 48659, Note_on_c, 4, 74, 0
10, 48660, Note_on_c, 4, 71, 76
10, 48689, Note_on_c, 4, 71, 0
10, 48690, Note_on_c, 4, 73, 76
10, 48719, Note_on_c, 4, 73, 0
10, 48720, Note_on_c, 4, 71, 76
10, 48771, Note_on_c, 4, 71, 0
10, 48780, Note_on_c, 4, 70, 76
10, 48831, Note_on_c, 4, 70, 0
10, 48840, Note_on_c, 4, 71, 76
10, 48891, Note_on_c, 4, 71, 0
10, 48900, Note_on_c, 4, 73, 76
10, 48951, Note_on_c, 4, 73, 0
10, 48960, Note_on_c, 4, 74, 76
10, 49011, Note_on_c, 4, 74, 0
10, 49020, Note_on_c, 4, 76, 76
10, 49071, Note_on_c, 4, 76, 0
10, 49080, Note_on_c, 4, 78, 76
10, 49184, Note_on_c, 4, 78, 0
10, 49200, Note_on_c, 4, 79, 76
10, 49304, Note_on_c, 4, 79, 0
10, 49320, Note_on_c, 4, 70, 76
10, 49349, Note_on_c, 4, 70, 0
10, 49350, Note_on_c, 4, 71, 76
10, 49379, Note_on_c, 4, 71, 0
10, 49380, Note_on_c, 4, 68, 76
10, 49409, Note_on_c, 4, 68, 0
10, 49410, Note_on_c, 4, 70, 76
10, 49439, Note_on_c, 4, 70, 0
10, 49440, Note_on_c, 4, 68, 76
10, 49491, Note_on_c, 4, 68, 0
10, 49500, Note_on_c, 4, 66, 76
10, 49551, Note_on_c, 4, 66, 0
10, 49560, Note_on_c, 4, 76, 76
10, 49739, Note_on_c, 4, 76, 0
10, 49800, Note_on_c, 4, 74, 76
10, 49979, Note_on_c, 4, 74, 0
10, 50160, Note_on_c, 4, 76, 76
10, 50264, Note_on_c, 4, 76, 0
10, 50280, Note_on_c, 4, 73, 76
10, 50309, Note_on_c, 4, 73, 0
10, 50310, Note_on_c, 4, 74, 76
10, 50339, Note_on_c, 4, 74, 0
10, 50340, Note_on_c, 4, 71, 76
10, 50369, Note_on_c, 4, 71, 0
10, 50370, Note_on_c, 4, 73, 76
10, 50399, Note_on_c, 4, 73, 0
10, 50400, Note_on_c, 4, 71, 76
10, 50451, Note_on_c, 4, 71, 0
10, 50460, Note_on_c, 4, 70, 76
10, 50511, Note_on_c, 4, 70, 0
10, 50520, Note_on_c, 4, 79, 76
10, 50699, Note_on_c, 4, 79, 0
10, 50760, Note_on_c, 4, 78, 76
10, 50939, Note_on_c, 4, 78, 0
10, 51120, Note_on_c, 4, 79, 76
10, 51224, Note_on_c, 4, 79, 0
10, 51240, Note_on_c, 4, 76, 76
10, 51269, Note_on_c, 4, 76, 0
10, 51270, Note_on_c, 4, 78, 76
10, 51299, Note_on_c, 4, 78, 0
10, 51300, Note_on_c, 4, 74, 76
10, 51329, Note_on_c, 4, 74, 0
10, 51330, Note_on_c, 4, 76, 76
10, 51359, Note_on_c, 4, 76, 0
10, 51360, Note_on_c, 4, 74, 76
10, 51411, Note_on_c, 4, 74, 0
10, 51420, Note_on_c, 4, 73, 76
10, 51471, Note_on_c, 4, 73, 0
10, 51480, Note_on_c, 4, 83, 76
10, 51659, Note_on_c, 4, 83, 0
10, 51720, Note_on_c, 4, 82, 76
10, 51824, Note_on_c, 4, 82, 0
10, 51840, Note_on_c, 4, 83, 76
10, 51891, Note_on_c, 4, 83, 0
10, 51900, Note_on_c, 4, 85, 76
10, 51951, Note_on_c, 4, 85, 0
10, 51960, Note_on_c, 4, 78, 76
10, 52064, Note_on_c, 4, 78, 0
10, 52080, Note_on_c, 4, 76, 76
10, 52184, Note_on_c, 4, 76, 0
10, 52200, Note_on_c, 4, 74, 76
10, 52304, Note_on_c, 4, 74, 0
10, 52320, Note_on_c, 4, 73, 76
10, 52371, Note_on_c, 4, 73, 0
10, 52380, Note_on_c, 4, 71, 76
10, 52431, Note_on_c, 4, 71, 0
10, 52440, Note_on_c, 4, 73, 76
10, 52544, Note_on_c, 4, 73, 0
10, 52560, Note_on_c, 4, 83, 76
10, 52611, Note_on_c, 4, 83, 0
10, 52620, Note_on_c, 4, 82, 76
10, 52671, Note_on_c, 4, 82, 0
10, 52680, Note_on_c, 4, 83, 76
10, 52784, Note_on_c, 4, 83, 0
10, 52800, Note_on_c, 4, 85, 76
10, 52904, Note_on_c, 4, 85, 0
10, 52920, Note_on_c, 4, 76, 76
10, 52949, Note_on_c, 4, 76, 0
10, 52950, Note_on_c, 4, 78, 76
10, 52979, Note_on_c, 4, 78, 0
10, 52980, Note_on_c, 4, 74, 76
10, 53009, Note_on_c, 4, 74, 0
10, 53010, Note_on_c, 4, 76, 76
10, 53039, Note_on_c, 4, 76, 0
10, 53040, Note_on_c, 4, 74, 76
10, 53091, Note_on_c, 4, 74, 0
10, 53100, Note_on_c, 4, 73, 76
10, 53151, Note_on_c, 4, 73, 0
10, 53160, Note_on_c, 4, 74, 76
10, 53211, Note_on_c, 4, 74, 0
10, 53220, Note_on_c, 4, 76, 76
10, 53271, Note_on_c, 4, 76, 0
10, 53280, Note_on_c, 4, 78, 76
10, 53331, Note_on_c, 4, 78, 0
10, 53340, Note_on_c, 4, 80, 76
10, 53391, Note_on_c, 4, 80, 0
10, 53400, Note_on_c, 4, 82, 76
10, 53504, Note_on_c, 4, 82, 0
10, 53520, Note_on_c, 4, 83, 76
10, 53624, Note_on_c, 4, 83, 0
10, 53640, Note_on_c, 4, 73, 76
10, 53669, Note_on_c, 4, 73, 0
10, 53670, Note_on_c, 4, 74, 76
10, 53699, Note_on_c, 4, 74, 0
10, 53700, Note_on_c, 4, 71, 76
10, 53729, Note_on_c, 4, 71, 0
10, 53730, Note_on_c, 4, 73, 76
10, 53759, Note_on_c, 4, 73, 0
10, 53760, Note_on_c, 4, 71, 76
10, 53811, Note_on_c, 4, 71, 0
10, 53820, Note_on_c, 4, 70, 76
10, 53871, Note_on_c, 4, 70, 0
10, 53880, Note_on_c, 4, 71, 76
10, 53984, Note_on_c, 4, 71, 0
10, 54000, Note_on_c, 4, 73, 76
10, 54104, Note_on_c, 4, 73, 0
10, 54120, Note_on_c, 4, 66, 76
10, 54224, Note_on_c, 4, 66, 0
10, 54240, Note_on_c, 4, 70, 76
10, 54344, Note_on_c, 4, 70, 0
10, 54360, Note_on_c, 4, 71, 76
10, 54599, Note_on_c, 4, 71, 0
10, 55440, Note_on_c, 4, 81, 76
10, 55544, Note_on_c, 4, 81, 0
10, 55560, Note_on_c, 4, 69, 76
10, 55664, Note_on_c, 4, 69, 0
10, 55680, Note_on_c, 4, 72, 76
10, 55784, Note_on_c, 4, 72, 0
10, 55800, Note_on_c, 4, 72, 76
10, 55829, Note_on_c, 4, 72, 0
10, 55830, Note_on_c, 4, 74, 76
10, 55859, Note_on_c, 4, 74, 0
10, 55860, Note_on_c, 4, 71, 76
10, 55889, Note_on_c, 4, 71, 0
10, 55890, Note_on_c, 4, 72, 76
10, 55919, Note_on_c, 4, 72, 0
10, 55920, Note_on_c, 4, 71, 76
10, 56159, Note_on_c, 4, 71, 0
10, 56880, Note_on_c, 4, 83, 76
10, 56984, Note_on_c, 4, 83, 0
10, 57000, Note_on_c, 4, 71, 76
10, 57104, Note_on_c, 4, 71, 0
10, 57120, Note_on_c, 4, 74, 76
10, 57224, Note_on_c, 4, 74, 0
10, 57240, Note_on_c, 4, 74, 76
10, 57269, Note_on_c, 4, 74, 0
10, 57270, Note_on_c, 4, 76, 76
10, 57299, Note_on_c, 4, 76, 0
10, 57300, Note_on_c, 4, 73, 76
10, 57329, Note_on_c, 4, 73, 0
10, 57330, Note_on_c, 4, 74, 76
10, 57359, Note_on_c, 4, 74, 0
10, 57360, Note_on_c, 4, 73, 76
10, 57584, Note_on_c, 4, 73, 0
10, 57600, Note_on_c, 4, 81, 76
10, 57651, Note_on_c, 4, 81, 0
10, 57660, Note_on_c, 4, 80, 76
10, 57711, Note_on_c, 4, 80, 0
10, 57720, Note_on_c, 4, 83, 76
10, 57809, Note_on_c, 4, 83, 0
10, 57840, Note_on_c, 4, 81, 76
10, 57929, Note_on_c, 4, 81, 0
10, 57960, Note_on_c, 4, 80, 76
10, 58064, Note_on_c, 4, 80, 0
10, 58080, Note_on_c, 4, 81, 76
10, 58304, Note_on_c, 4, 81, 0
10, 58320, Note_on_c, 4, 79, 76
10, 58371, Note_on_c, 4, 79, 0
10, 58380, Note_on_c, 4, 78, 76
10, 58431, Note_on_c, 4, 78, 0
10, 58440, Note_on_c, 4, 81, 76
10, 58529, Note_on_c, 4, 81, 0
10, 58560, Note_on_c, 4, 79, 76
10, 58649, Note_on_c, 4, 79, 0
10, 58680, Note_on_c, 4, 78, 76
10, 58709, Note_on_c, 4, 78, 0
10, 58710, Note_on_c, 4, 79, 76
10, 58739, Note_on_c, 4, 79, 0
10, 58740, Note_on_c, 4, 76, 76
10, 58769, Note_on_c, 4, 76, 0
10, 58770, Note_on_c, 4, 78, 76
10, 58799, Note_on_c, 4, 78, 0
10, 58800, Note_on_c, 4, 79, 76
10, 59024, Note_on_c, 4, 79, 0
10, 59040, Note_on_c, 4, 77, 76
10, 59091, Note_on_c, 4, 77, 0
10, 59100, Note_on_c, 4, 76, 76
10, 59151, Note_on_c, 4, 76, 0
10, 59160, Note_on_c, 4, 79, 76
10, 59249, Note_on_c, 4, 79, 0
10, 59280, Note_on_c, 4, 77, 76
10, 59369, Note_on_c, 4, 77, 0
10, 59400, Note_on_c, 4, 76, 76
10, 59504, Note_on_c, 4, 76, 0
10, 59520, Note_on_c, 4, 77, 76
10, 59744, Note_on_c, 4, 77, 0
10, 59760, Note_on_c, 4, 74, 76
10, 59984, Note_on_c, 4, 74, 0
10, 60000, Note_on_c, 4, 75, 76
10, 60224, Note_on_c, 4, 75, 0
10, 60240, Note_on_c, 4, 73, 76
10, 60464, Note_on_c, 4, 73, 0
10, 60480, Note_on_c, 4, 74, 76
10, 60704, Note_on_c, 4, 74, 0
10, 60720, Note_on_c, 4, 70, 76
10, 60944, Note_on_c, 4, 70, 0
10, 60960, Note_on_c, 4, 69, 76
10, 61184, Note_on_c, 4, 69, 0
10, 61200, Note_on_c, 4, 68, 76
10, 61424, Note_on_c, 4, 68, 0
10, 61440, Note_on_c, 4, 69, 76
10, 61544, Note_on_c, 4, 69, 0
10, 61560, Note_on_c, 4, 80, 76
10, 61664, Note_on_c, 4, 80, 0
10, 61680, Note_on_c, 4, 81, 76
10, 61904, Note_on_c, 4, 81, 0
10, 61920, Note_on_c, 4, 79, 76
10, 61971, Note_on_c, 4, 79, 0
10, 61980, Note_on_c, 4, 78, 76
10, 62031, Note_on_c, 4, 78, 0
10, 62040, Note_on_c, 4, 79, 76
10, 62144, Note_on_c, 4, 79, 0
10, 62160, Note_on_c, 4, 76, 76
10, 62264, Note_on_c, 4, 76, 0
10, 62280, Note_on_c, 4, 78, 76
10, 62331, Note_on_c, 4, 78, 0
10, 62340, Note_on_c, 4, 79, 76
10, 62391, Note_on_c, 4, 79, 0
10, 62400, Note_on_c, 4, 81, 76
10, 62451, Note_on_c, 4, 81, 0
10, 62460, Note_on_c, 4, 83, 76
10, 62511, Note_on_c, 4, 83, 0
10, 62520, Note_on_c, 4, 85, 76
10, 62624, Note_on_c, 4, 85, 0
10, 62640, Note_on_c, 4, 86, 76
10, 62744, Note_on_c, 4, 86, 0
10, 62760, Note_on_c, 4, 69, 76
10, 62864, Note_on_c, 4, 69, 0
10, 62880, Note_on_c, 4, 73, 76
10, 62984, Note_on_c, 4, 73, 0
10, 63000, Note_on_c, 4, 62, 76
10, 63171, Note_on_c, 4, 62, 0
10, 63180, Note_on_c, 4, 64, 76
10, 63231, Note_on_c, 4, 64, 0
10, 63240, Note_on_c, 4, 66, 76
10, 63299, Note_on_c, 4, 66, 0
10, 63300, Note_on_c, 4, 68, 76
10, 63359, Note_on_c, 4, 68, 0
10, 63360, Note_on_c, 4, 69, 76
10, 63419, Note_on_c, 4, 69, 0
10, 63420, Note_on_c, 4, 71, 76
10, 63471, Note_on_c, 4, 71, 0
10, 63480, Note_on_c, 4, 69, 76
10, 63539, Note_on_c, 4, 69, 0
10, 63540, Note_on_c, 4, 68, 76
10, 63599, Note_on_c, 4, 68, 0
10, 63600, Note_on_c, 4, 66, 76
10, 63659, Note_on_c, 4, 66, 0
10, 63660, Note_on_c, 4, 64, 76
10, 63711, Note_on_c, 4, 64, 0
10, 63720, Note_on_c, 4, 74, 76
10, 63779, Note_on_c, 4, 74, 0
10, 63780, Note_on_c, 4, 73, 76
10, 63839, Note_on_c, 4, 73, 0
10, 63840, Note_on_c, 4, 71, 76
10, 63899, Note_on_c, 4, 71, 0
10, 63900, Note_on_c, 4, 69, 76
10, 63951, Note_on_c, 4, 69, 0
10, 63960, Note_on_c, 4, 79, 76
10, 64139, Note_on_c, 4, 79, 0
10, 64200, Note_on_c, 4, 78, 76
10, 64379, Note_on_c, 4, 78, 0
10, 64560, Note_on_c, 4, 79, 76
10, 64664, Note_on_c, 4, 79, 0
10, 64680, Note_on_c, 4, 76, 76
10, 64709, Note_on_c, 4, 76, 0
10, 64710, Note_on_c, 4, 78, 76
10, 64739, Note_on_c, 4, 78, 0
10, 64740, Note_on_c, 4, 74, 76
10, 64769, Note_on_c, 4, 74, 0
10, 64770, Note_on_c, 4, 76, 76
10, 64799, Note_on_c, 4, 76, 0
10, 64800, Note_on_c, 4, 74, 76
10, 64851, Note_on_c, 4, 74, 0
10, 64860, Note_on_c, 4, 73, 76
10, 64911, Note_on_c, 4, 73, 0
10, 64920, Note_on_c, 4, 83, 76
10, 65099, Note_on_c, 4, 83, 0
10, 65160, Note_on_c, 4, 81, 76
10, 65339, Note_on_c, 4, 81, 0
10, 65520, Note_on_c, 4, 83, 76
10, 65624, Note_on_c, 4, 83, 0
10, 65640, Note_on_c, 4, 79, 76
10, 65744, Note_on_c, 4, 79, 0
10, 65760, Note_on_c, 4, 78, 76
10, 65811, Note_on_c, 4, 78, 0
10, 65820, Note_on_c, 4, 76, 76
10, 65871, Note_on_c, 4, 76, 0
10, 65880, Note_on_c, 4, 86, 76
10, 66059, Note_on_c, 4, 86, 0
10, 66120, Note_on_c, 4, 85, 76
10, 66224, Note_on_c, 4, 85, 0
10, 66240, Note_on_c, 4, 79, 76
10, 66291, Note_on_c, 4, 79, 0
10, 66300, Note_on_c, 4, 78, 76
10, 66351, Note_on_c, 4, 78, 0
10, 66360, Note_on_c, 4, 79, 76
10, 66449, Note_on_c, 4, 79, 0
10, 66480, Note_on_c, 4, 81, 76
10, 66569, Note_on_c, 4, 81, 0
10, 66600, Note_on_c, 4, 79, 76
10, 66659, Note_on_c, 4, 79, 0
10, 66660, Note_on_c, 4, 78, 76
10, 66719, Note_on_c, 4, 78, 0
10, 66720, Note_on_c, 4, 76, 76
10, 66779, Note_on_c, 4, 76, 0
10, 66780, Note_on_c, 4, 74, 76
10, 66831, Note_on_c, 4, 74, 0
10, 66840, Note_on_c, 4, 78, 76
10, 66899, Note_on_c, 4, 78, 0
10, 66900, Note_on_c, 4, 76, 76
10, 66959, Note_on_c, 4, 76, 0
10, 66960, Note_on_c, 4, 74, 76
10, 67019, Note_on_c, 4, 74, 0
10, 67020, Note_on_c, 4, 73, 76
10, 67071, Note_on_c, 4, 73, 0
10, 67080, Note_on_c, 4, 74, 76
10, 67184, Note_on_c, 4, 74, 0
10, 67200, Note_on_c, 4, 76, 76
10, 67304, Note_on_c, 4, 76, 0
10, 67320, Note_on_c, 4, 67, 76
10, 67349, Note_on_c, 4, 67, 0
10, 67350, Note_on_c, 4, 69, 76
10, 67379, Note_on_c, 4, 69, 0
10, 67380, Note_on_c, 4, 66, 76
10, 67409, Note_on_c, 4, 66, 0
10, 67410, Note_on_c, 4, 67, 76
10, 67439, Note_on_c, 4, 67, 0
10, 67440, Note_on_c, 4, 66, 76
10, 67491, Note_on_c, 4, 66, 0
10, 67500, Note_on_c, 4, 64, 76
10, 67551, Note_on_c, 4, 64, 0
10, 67560, Note_on_c, 4, 66, 76
10, 67619, Note_on_c, 4, 66, 0
10, 67620, Note_on_c, 4, 67, 76
10, 67679, Note_on_c, 4, 67, 0
10, 67680, Note_on_c, 4, 69, 76
10, 67739, Note_on_c, 4, 69, 0
10, 67740, Note_on_c, 4, 71, 76
10, 67791, Note_on_c, 4, 71, 0
10, 67800, Note_on_c, 4, 73, 76
10, 67859, Note_on_c, 4, 73, 0
10, 67860, Note_on_c, 4, 74, 76
10, 67919, Note_on_c, 4, 74, 0
10, 67920, Note_on_c, 4, 76, 76
10, 67979, Note_on_c, 4, 76, 0
10, 67980, Note_on_c, 4, 78, 76
10, 68031, Note_on_c, 4, 78, 0
10, 68040, Note_on_c, 4, 79, 76
10, 68091, Note_on_c, 4, 79, 0
10, 68100, Note_on_c, 4, 81, 76
10, 68151, Note_on_c, 4, 81, 0
10, 68160, Note_on_c, 4, 83, 76
10, 68211, Note_on_c, 4, 83, 0
10, 68220, Note_on_c, 4, 79, 76
10, 68271, Note_on_c, 4, 79, 0
10, 68280, Note_on_c, 4, 81, 76
10, 68384, Note_on_c, 4, 81, 0
10, 68400, Note_on_c, 4, 74, 76
10, 68504, Note_on_c, 4, 74, 0
10, 68520, Note_on_c, 4, 69, 76
10, 68624, Note_on_c, 4, 69, 0
10, 68640, Note_on_c, 4, 73, 76
10, 68744, Note_on_c, 4, 73, 0
10, 68760, Note_on_c, 4, 74, 76
10, 69119, Note_on_c, 4, 74, 0
10, 69119, End_track
11, 0, Start_track
11, 0, Title_t, "Oboe II"
11, 0, MIDI_port, 0
11, 0, Program_c, 5, 68
11, 0, Control_c, 5, 10, 64
11, 0, Control_c, 5, 11, 127
11, 0, Control_c, 5, 7, 80
11, 0, Note_on_c, 5, 74, 76
11, 104, Note_on_c, 5, 74, 0
11, 120, Note_on_c, 5, 74, 76
11, 224, Note_on_c, 5, 74, 0
11, 240, Note_on_c, 5, 76, 76
11, 344, Note_on_c, 5, 76, 0
11, 360, Note_on_c, 5, 73, 76
11, 464, Note_on_c, 5, 73, 0
11, 480, Note_on_c, 5, 69, 76
11, 584, Note_on_c, 5, 69, 0
11, 600, Note_on_c, 5, 69, 76
11, 704, Note_on_c, 5, 69, 0
11, 720, Note_on_c, 5, 74, 76
11, 771, Note_on_c, 5, 74, 0
11, 780, Note_on_c, 5, 73, 76
11, 831, Note_on_c, 5, 73, 0
11, 840, Note_on_c, 5, 74, 76
11, 944, Note_on_c, 5, 74, 0
11, 960, Note_on_c, 5, 71, 76
11, 1064, Note_on_c, 5, 71, 0
11, 1080, Note_on_c, 5, 73, 76
11, 1184, Note_on_c, 5, 73, 0
11, 1200, Note_on_c, 5, 74, 76
11, 1424, Note_on_c, 5, 74, 0
11, 1440, Note_on_c, 5, 68, 76
11, 1544, Note_on_c, 5, 68, 0
11, 1560, Note_on_c, 5, 69, 76
11, 1664, Note_on_c, 5, 69, 0
11, 1680, Note_on_c, 5, 73, 76
11, 1784, Note_on_c, 5, 73, 0
11, 1800, Note_on_c, 5, 71, 76
11, 1904, Note_on_c, 5, 71, 0
11, 1920, Note_on_c, 5, 64, 76
11, 2024, Note_on_c, 5, 64, 0
11, 2040, Note_on_c, 5, 69, 76
11, 2144, Note_on_c, 5, 69, 0
11, 2160, Note_on_c, 5, 69, 76
11, 2264, Note_on_c, 5, 69, 0
11, 2280, Note_on_c, 5, 74, 76
11, 2384, Note_on_c, 5, 74, 0
11, 2400, Note_on_c, 5, 73, 76
11, 2504, Note_on_c, 5, 73, 0
11, 2520, Note_on_c, 5, 71, 76
11, 2624, Note_on_c, 5, 71, 0
11, 2640, Note_on_c, 5, 73, 76
11, 2691, Note_on_c, 5, 73, 0
11, 2700, Note_on_c, 5, 74, 76
11, 2751, Note_on_c, 5, 74, 0
11, 2760, Note_on_c, 5, 73, 76
11, 2864, Note_on_c, 5, 73, 0
11, 2880, Note_on_c, 5, 69, 76
11, 2984, Note_on_c, 5, 69, 0
11, 3000, Note_on_c, 5, 69, 76
11, 3104, Note_on_c, 5, 69, 0
11, 3120, Note_on_c, 5, 74, 76
11, 3224, Note_on_c, 5, 74, 0
11, 3240, Note_on_c, 5, 71, 76
11, 3479, Note_on_c, 5, 71, 0
11, 3600, Note_on_c, 5, 71, 76
11, 3704, Note_on_c, 5, 71, 0
11, 3720, Note_on_c, 5, 73, 76
11, 3824, Note_on_c, 5, 73, 0
11, 3840, Note_on_c, 5, 74, 76
11, 3944, Note_on_c, 5, 74, 0
11, 3960, Note_on_c, 5, 71, 76
11, 4199, Note_on_c, 5, 71, 0
11, 4320, Note_on_c, 5, 71, 76
11, 4424, Note_on_c, 5, 71, 0
11, 4440, Note_on_c, 5, 71, 76
11, 4544, Note_on_c, 5, 71, 0
11, 4560, Note_on_c, 5, 69, 76
11, 4611, Note_on_c, 5, 69, 0
11, 4620, Note_on_c, 5, 68, 76
11, 4671, Note_on_c, 5, 68, 0
11, 4680, Note_on_c, 5, 69, 76
11, 4919, Note_on_c, 5, 69, 0
11, 5040, Note_on_c, 5, 69, 76
11, 5144, Note_on_c, 5, 69, 0
11, 5160, Note_on_c, 5, 68, 76
11, 5264, Note_on_c, 5, 68, 0
11, 5280, Note_on_c, 5, 69, 76
11, 5384, Note_on_c, 5, 69, 0
11, 5400, Note_on_c, 5, 71, 76
11, 5579, Note_on_c, 5, 71, 0
11, 5640, Note_on_c, 5, 71, 76
11, 5744, Note_on_c, 5, 71, 0
11, 5760, Note_on_c, 5, 74, 76
11, 5864, Note_on_c, 5, 74, 0
11, 5880, Note_on_c, 5, 73, 76
11, 5984, Note_on_c, 5, 73, 0
11, 6000, Note_on_c, 5, 71, 76
11, 6104, Note_on_c, 5, 71, 0
11, 6120, Note_on_c, 5, 69, 76
11, 6224, Note_on_c, 5, 69, 0
11, 6240, Note_on_c, 5, 64, 76
11, 6344, Note_on_c, 5, 64, 0
11, 6360, Note_on_c, 5, 66, 76
11, 6464, Note_on_c, 5, 66, 0
11, 6480, Note_on_c, 5, 64, 76
11, 6584, Note_on_c, 5, 64, 0
11, 6600, Note_on_c, 5, 69, 76
11, 6704, Note_on_c, 5, 69, 0
11, 6720, Note_on_c, 5, 74, 76
11, 6824, Note_on_c, 5, 74, 0
11, 6840, Note_on_c, 5, 71, 76
11, 6869, Note_on_c, 5, 71, 0
11, 6870, Note_on_c, 5, 73, 76
11, 6899, Note_on_c, 5, 73, 0
11, 6900, Note_on_c, 5, 69, 76
11, 6929, Note_on_c, 5, 69, 0
11, 6930, Note_on_c, 5, 71, 76
11, 6959, Note_on_c, 5, 71, 0
11, 6960, Note_on_c, 5, 69, 76
11, 7011, Note_on_c, 5, 69, 0
11, 7020, Note_on_c, 5, 68, 76
11, 7071, Note_on_c, 5, 68, 0
11, 7080, Note_on_c, 5, 69, 76
11, 7184, Note_on_c, 5, 69, 0
11, 7200, Note_on_c, 5, 69, 76
11, 7304, Note_on_c, 5, 69, 0
11, 7320, Note_on_c, 5, 74, 76
11, 7424, Note_on_c, 5, 74, 0
11, 7440, Note_on_c, 5, 73, 76
11, 7544, Note_on_c, 5, 73, 0
11, 7560, Note_on_c, 5, 66, 76
11, 7664, Note_on_c, 5, 66, 0
11, 7680, Note_on_c, 5, 64, 76
11, 7784, Note_on_c, 5, 64, 0
11, 7800, Note_on_c, 5, 69, 76
11, 7904, Note_on_c, 5, 69, 0
11, 7920, Note_on_c, 5, 66, 76
11, 8024, Note_on_c, 5, 66, 0
11, 8040, Note_on_c, 5, 64, 76
11, 8144, Note_on_c, 5, 64, 0
11, 8160, Note_on_c, 5, 64, 76
11, 8264, Note_on_c, 5, 64, 0
11, 8280, Note_on_c, 5, 64, 76
11, 8624, Note_on_c, 5, 64, 0
11, 8640, Note_on_c, 5, 74, 76
11, 8744, Note_on_c, 5, 74, 0
11, 8760, Note_on_c, 5, 74, 76
11, 8864, Note_on_c, 5, 74, 0
11, 8880, Note_on_c, 5, 76, 76
11, 8984, Note_on_c, 5, 76, 0
11, 9000, Note_on_c, 5, 73, 76
11, 9104, Note_on_c, 5, 73, 0
11, 9120, Note_on_c, 5, 69, 76
11, 9224, Note_on_c, 5, 69, 0
11, 9240, Note_on_c, 5, 69, 76
11, 9344, Note_on_c, 5, 69, 0
11, 9360, Note_on_c, 5, 74, 76
11, 9411, Note_on_c, 5, 74, 0
11, 9420, Note_on_c, 5, 73, 76
11, 9471, Note_on_c, 5, 73, 0
11, 9480, Note_on_c, 5, 74, 76
11, 9584, Note_on_c, 5, 74, 0
11, 9600, Note_on_c, 5, 71, 76
11, 9704, Note_on_c, 5, 71, 0
11, 9720, Note_on_c, 5, 73, 76
11, 9824, Note_on_c, 5, 73, 0
11, 9840, Note_on_c, 5, 74, 76
11, 10064, Note_on_c, 5, 74, 0
11, 10080, Note_on_c, 5, 68, 76
11, 10184, Note_on_c, 5, 68, 0
11, 10200, Note_on_c, 5, 69, 76
11, 10304, Note_on_c, 5, 69, 0
11, 10320, Note_on_c, 5, 73, 76
11, 10424, Note_on_c, 5, 73, 0
11, 10440, Note_on_c, 5, 71, 76
11, 10544, Note_on_c, 5, 71, 0
11, 10560, Note_on_c, 5, 64, 76
11, 10664, Note_on_c, 5, 64, 0
11, 10680, Note_on_c, 5, 69, 76
11, 10784, Note_on_c, 5, 69, 0
11, 10800, Note_on_c, 5, 69, 76
11, 10904, Note_on_c, 5, 69, 0
11, 10920, Note_on_c, 5, 74, 76
11, 11024, Note_on_c, 5, 74, 0
11, 11040, Note_on_c, 5, 73, 76
11, 11144, Note_on_c, 5, 73, 0
11, 11160, Note_on_c, 5, 71, 76
11, 11264, Note_on_c, 5, 71, 0
11, 11280, Note_on_c, 5, 73, 76
11, 11331, Note_on_c, 5, 73, 0
11, 11340, Note_on_c, 5, 74, 76
11, 11391, Note_on_c, 5, 74, 0
11, 11400, Note_on_c, 5, 73, 76
11, 11504, Note_on_c, 5, 73, 0
11, 11520, Note_on_c, 5, 69, 76
11, 11624, Note_on_c, 5, 69, 0
11, 11640, Note_on_c, 5, 69, 76
11, 11744, Note_on_c, 5, 69, 0
11, 11760, Note_on_c, 5, 74, 76
11, 11864, Note_on_c, 5, 74, 0
11, 11880, Note_on_c, 5, 71, 76
11, 12119, Note_on_c, 5, 71, 0
11, 12240, Note_on_c, 5, 71, 76
11, 12344, Note_on_c, 5, 71, 0
11, 12360, Note_on_c, 5, 73, 76
11, 12464, Note_on_c, 5, 73, 0
11, 12480, Note_on_c, 5, 74, 76
11, 12584, Note_on_c, 5, 74, 0
11, 12600, Note_on_c, 5, 71, 76
11, 12839, Note_on_c, 5, 71, 0
11, 12960, Note_on_c, 5, 71, 76
11, 13064, Note_on_c, 5, 71, 0
11, 13080, Note_on_c, 5, 71, 76
11, 13184, Note_on_c, 5, 71, 0
11, 13200, Note_on_c, 5, 69, 76
11, 13251, Note_on_c, 5, 69, 0
11, 13260, Note_on_c, 5, 68, 76
11, 13311, Note_on_c, 5, 68, 0
11, 13320, Note_on_c, 5, 69, 76
11, 13559, Note_on_c, 5, 69, 0
11, 13680, Note_on_c, 5, 69, 76
11, 13784, Note_on_c, 5, 69, 0
11, 13800, Note_on_c, 5, 68, 76
11, 13904, Note_on_c, 5, 68, 0
11, 13920, Note_on_c, 5, 69, 76
11, 14024, Note_on_c, 5, 69, 0
11, 14040, Note_on_c, 5, 71, 76
11, 14219, Note_on_c, 5, 71, 0
11, 14280, Note_on_c, 5, 71, 76
11, 14384, Note_on_c, 5, 71, 0
11, 14400, Note_on_c, 5, 74, 76
11, 14504, Note_on_c, 5, 74, 0
11, 14520, Note_on_c, 5, 73, 76
11, 14624, Note_on_c, 5, 73, 0
11, 14640, Note_on_c, 5, 71, 76
11, 14744, Note_on_c, 5, 71, 0
11, 14760, Note_on_c, 5, 69, 76
11, 14864, Note_on_c, 5, 69, 0
11, 14880, Note_on_c, 5, 64, 76
11, 14984, Note_on_c, 5, 64, 0
11, 15000, Note_on_c, 5, 66, 76
11, 15104, Note_on_c, 5, 66, 0
11, 15120, Note_on_c, 5, 64, 76
11, 15224, Note_on_c, 5, 64, 0
11, 15240, Note_on_c, 5, 69, 76
11, 15344, Note_on_c, 5, 69, 0
11, 15360, Note_on_c, 5, 74, 76
11, 15464, Note_on_c, 5, 74, 0
11, 15480, Note_on_c, 5, 71, 76
11, 15509, Note_on_c, 5, 71, 0
11, 15510, Note_on_c, 5, 73, 76
11, 15539, Note_on_c, 5, 73, 0
11, 15540, Note_on_c, 5, 69, 76
11, 15569, Note_on_c, 5, 69, 0
11, 15570, Note_on_c, 5, 71, 76
11, 15599, Note_on_c, 5, 71, 0
11, 15600, Note_on_c, 5, 69, 76
11, 15651, Note_on_c, 5, 69, 0
11, 15660, Note_on_c, 5, 68, 76
11, 15711, Note_on_c, 5, 68, 0
11, 15720, Note_on_c, 5, 69, 76
11, 15824, Note_on_c, 5, 69, 0
11, 15840, Note_on_c, 5, 69, 76
11, 15944, Note_on_c, 5, 69, 0
11, 15960, Note_on_c, 5, 74, 76
11, 16064, Note_on_c, 5, 74, 0
11, 16080, Note_on_c, 5, 73, 76
11, 16184, Note_on_c, 5, 73, 0
11, 16200, Note_on_c, 5, 66, 76
11, 16304, Note_on_c, 5, 66, 0
11, 16320, Note_on_c, 5, 64, 76
11, 16424, Note_on_c, 5, 64, 0
11, 16440, Note_on_c, 5, 69, 76
11, 16544, Note_on_c, 5, 69, 0
11, 16560, Note_on_c, 5, 66, 76
11, 16664, Note_on_c, 5, 66, 0
11, 16680, Note_on_c, 5, 64, 76
11, 16784, Note_on_c, 5, 64, 0
11, 16800, Note_on_c, 5, 64, 76
11, 16904, Note_on_c, 5, 64, 0
11, 16920, Note_on_c, 5, 64, 76
11, 17264, Note_on_c, 5, 64, 0
11, 17280, Note_on_c, 5, 73, 76
11, 17331, Note_on_c, 5, 73, 0
11, 17340, Note_on_c, 5, 71, 76
11, 17391, Note_on_c, 5, 71, 0
11, 17400, Note_on_c, 5, 73, 76
11, 17489, Note_on_c, 5, 73, 0
11, 17520, Note_on_c, 5, 74, 76
11, 17609, Note_on_c, 5, 74, 0
11, 17640, Note_on_c, 5, 76, 76
11, 17744, Note_on_c, 5, 76, 0
11, 17760, Note_on_c, 5, 74, 76
11, 17811, Note_on_c, 5, 74, 0
11, 17820, Note_on_c, 5, 73, 76
11, 17871, Note_on_c, 5, 73, 0
11, 17880, Note_on_c, 5, 74, 76
11, 17931, Note_on_c, 5, 74, 0
11, 17940, Note_on_c, 5, 76, 76
11, 17991, Note_on_c, 5, 76, 0
11, 18000, Note_on_c, 5, 78, 76
11, 18104, Note_on_c, 5, 78, 0
11, 18120, Note_on_c, 5, 69, 76
11, 18209, Note_on_c, 5, 69, 0
11, 18240, Note_on_c, 5, 73, 76
11, 18307, Note_on_c, 5, 73, 0
11, 18340, Note_on_c, 5, 73, 76
11, 18359, Note_on_c, 5, 73, 0
11, 18360, Note_on_c, 5, 74, 76
11, 18464, Note_on_c, 5, 74, 0
11, 18480, Note_on_c, 5, 73, 76
11, 18704, Note_on_c, 5, 73, 0
11, 18720, Note_on_c, 5, 75, 76
11, 18771, Note_on_c, 5, 75, 0
11, 18780, Note_on_c, 5, 73, 76
11, 18831, Note_on_c, 5, 73, 0
11, 18840, Note_on_c, 5, 75, 76
11, 18944, Note_on_c, 5, 75, 0
11, 18960, Note_on_c, 5, 76, 76
11, 19064, Note_on_c, 5, 76, 0
11, 19080, Note_on_c, 5, 78, 76
11, 19184, Note_on_c, 5, 78, 0
11, 19200, Note_on_c, 5, 76, 76
11, 19251, Note_on_c, 5, 76, 0
11, 19260, Note_on_c, 5, 75, 76
11, 19311, Note_on_c, 5, 75, 0
11, 19320, Note_on_c, 5, 76, 76
11, 19371, Note_on_c, 5, 76, 0
11, 19380, Note_on_c, 5, 78, 76
11, 19431, Note_on_c, 5, 78, 0
11, 19440, Note_on_c, 5, 79, 76
11, 19544, Note_on_c, 5, 79, 0
11, 19560, Note_on_c, 5, 71, 76
11, 19649, Note_on_c, 5, 71, 0
11, 19680, Note_on_c, 5, 75, 76
11, 19747, Note_on_c, 5, 75, 0
11, 19780, Note_on_c, 5, 75, 76
11, 19799, Note_on_c, 5, 75, 0
11, 19800, Note_on_c, 5, 76, 76
11, 19904, Note_on_c, 5, 76, 0
11, 19920, Note_on_c, 5, 75, 76
11, 20144, Note_on_c, 5, 75, 0
11, 20160, Note_on_c, 5, 76, 76
11, 20264, Note_on_c, 5, 76, 0
11, 20280, Note_on_c, 5, 76, 76
11, 20384, Note_on_c, 5, 76, 0
11, 20400, Note_on_c, 5, 78, 76
11, 20504, Note_on_c, 5, 78, 0
11, 20520, Note_on_c, 5, 75, 76
11, 20624, Note_on_c, 5, 75, 0
11, 20640, Note_on_c, 5, 71, 76
11, 20744, Note_on_c, 5, 71, 0
11, 20760, Note_on_c, 5, 71, 76
11, 20864, Note_on_c, 5, 71, 0
11, 20880, Note_on_c, 5, 76, 76
11, 20931, Note_on_c, 5, 76, 0
11, 20940, Note_on_c, 5, 75, 76
11, 20991, Note_on_c, 5, 75, 0
11, 21000, Note_on_c, 5, 76, 76
11, 21104, Note_on_c, 5, 76, 0
11, 21120, Note_on_c, 5, 81, 76
11, 21224, Note_on_c, 5, 81, 0
11, 21240, Note_on_c, 5, 75, 76
11, 21269, Note_on_c, 5, 75, 0
11, 21270, Note_on_c, 5, 76, 76
11, 21299, Note_on_c, 5, 76, 0
11, 21300, Note_on_c, 5, 73, 76
11, 21329, Note_on_c, 5, 73, 0
11, 21330, Note_on_c, 5, 75, 76
11, 21359, Note_on_c, 5, 75, 0
11, 21360, Note_on_c, 5, 76, 76
11, 21584, Note_on_c, 5, 76, 0
11, 21600, Note_on_c, 5, 70, 76
11, 21704, Note_on_c, 5, 70, 0
11, 21720, Note_on_c, 5, 71, 76
11, 21824, Note_on_c, 5, 71, 0
11, 21840, Note_on_c, 5, 74, 76
11, 21944, Note_on_c, 5, 74, 0
11, 21960, Note_on_c, 5, 73, 76
11, 22064, Note_on_c, 5, 73, 0
11, 22080, Note_on_c, 5, 66, 76
11, 22184, Note_on_c, 5, 66, 0
11, 22200, Note_on_c, 5, 71, 76
11, 22304, Note_on_c, 5, 71, 0
11, 22320, Note_on_c, 5, 71, 76
11, 22424, Note_on_c, 5, 71, 0
11, 22440, Note_on_c, 5, 76, 76
11, 22544, Note_on_c, 5, 76, 0
11, 22560, Note_on_c, 5, 74, 76
11, 22664, Note_on_c, 5, 74, 0
11, 22680, Note_on_c, 5, 73, 76
11, 22784, Note_on_c, 5, 73, 0
11, 22800, Note_on_c, 5, 74, 76
11, 22851, Note_on_c, 5, 74, 0
11, 22860, Note_on_c, 5, 76, 76
11, 22911, Note_on_c, 5, 76, 0
11, 22920, Note_on_c, 5, 74, 76
11, 23024, Note_on_c, 5, 74, 0
11, 23040, Note_on_c, 5, 71, 76
11, 23144, Note_on_c, 5, 71, 0
11, 23160, Note_on_c, 5, 71, 76
11, 23264, Note_on_c, 5, 71, 0
11, 23280, Note_on_c, 5, 76, 76
11, 23384, Note_on_c, 5, 76, 0
11, 23400, Note_on_c, 5, 73, 76
11, 23639, Note_on_c, 5, 73, 0
11, 23760, Note_on_c, 5, 73, 76
11, 23864, Note_on_c, 5, 73, 0
11, 23880, Note_on_c, 5, 74, 76
11, 23984, Note_on_c, 5, 74, 0
11, 24000, Note_on_c, 5, 76, 76
11, 24104, Note_on_c, 5, 76, 0
11, 24120, Note_on_c, 5, 73, 76
11, 24359, Note_on_c, 5, 73, 0
11, 24480, Note_on_c, 5, 73, 76
11, 24584, Note_on_c, 5, 73, 0
11, 24600, Note_on_c, 5, 73, 76
11, 24704, Note_on_c, 5, 73, 0
11, 24720, Note_on_c, 5, 71, 76
11, 24771, Note_on_c, 5, 71, 0
11, 24780, Note_on_c, 5, 70, 76
11, 24831, Note_on_c, 5, 70, 0
11, 24840, Note_on_c, 5, 71, 76
11, 25079, Note_on_c, 5, 71, 0
11, 25200, Note_on_c, 5, 71, 76
11, 25304, Note_on_c, 5, 71, 0
11, 25320, Note_on_c, 5, 70, 76
11, 25424, Note_on_c, 5, 70, 0
11, 25440, Note_on_c, 5, 71, 76
11, 25544, Note_on_c, 5, 71, 0
11, 25560, Note_on_c, 5, 73, 76
11, 25904, Note_on_c, 5, 73, 0
11, 25920, Note_on_c, 5, 76, 76
11, 26024, Note_on_c, 5, 76, 0
11, 26040, Note_on_c, 5, 74, 76
11, 26144, Note_on_c, 5, 74, 0
11, 26160, Note_on_c, 5, 73, 76
11, 26264, Note_on_c, 5, 73, 0
11, 26280, Note_on_c, 5, 71, 76
11, 26384, Note_on_c, 5, 71, 0
11, 26400, Note_on_c, 5, 66, 76
11, 26504, Note_on_c, 5, 66, 0
11, 26520, Note_on_c, 5, 67, 76
11, 26624, Note_on_c, 5, 67, 0
11, 26640, Note_on_c, 5, 66, 76
11, 26744, Note_on_c, 5, 66, 0
11, 26760, Note_on_c, 5, 71, 76
11, 26864, Note_on_c, 5, 71, 0
11, 26880, Note_on_c, 5, 76, 76
11, 26984, Note_on_c, 5, 76, 0
11, 27000, Note_on_c, 5, 73, 76
11, 27029, Note_on_c, 5, 73, 0
11, 27030, Note_on_c, 5, 74, 76
11, 27059, Note_on_c, 5, 74, 0
11, 27060, Note_on_c, 5, 71, 76
11, 27089, Note_on_c, 5, 71, 0
11, 27090, Note_on_c, 5, 73, 76
11, 27119, Note_on_c, 5, 73, 0
11, 27120, Note_on_c, 5, 71, 76
11, 27171, Note_on_c, 5, 71, 0
11, 27180, Note_on_c, 5, 70, 76
11, 27231, Note_on_c, 5, 70, 0
11, 27240, Note_on_c, 5, 71, 76
11, 27344, Note_on_c, 5, 71, 0
11, 27360, Note_on_c, 5, 71, 76
11, 27464, Note_on_c, 5, 71, 0
11, 27480, Note_on_c, 5, 76, 76
11, 27584, Note_on_c, 5, 76, 0
11, 27600, Note_on_c, 5, 74, 76
11, 27704, Note_on_c, 5, 74, 0
11, 27720, Note_on_c, 5, 67, 76
11, 27824, Note_on_c, 5, 67, 0
11, 27840, Note_on_c, 5, 66, 76
11, 27891, Note_on_c, 5, 66, 0
11, 27900, Note_on_c, 5, 64, 76
11, 27951, Note_on_c, 5, 64, 0
11, 27960, Note_on_c, 5, 62, 76
11, 28064, Note_on_c, 5, 62, 0
11, 28080, Note_on_c, 5, 67, 76
11, 28184, Note_on_c, 5, 67, 0
11, 28200, Note_on_c, 5, 66, 76
11, 28304, Note_on_c, 5, 66, 0
11, 28320, Note_on_c, 5, 66, 76
11, 28424, Note_on_c, 5, 66, 0
11, 28440, Note_on_c, 5, 66, 76
11, 28679, Note_on_c, 5, 66, 0
11, 29520, Note_on_c, 5, 62, 76
11, 29571, Note_on_c, 5, 62, 0
11, 29580, Note_on_c, 5, 64, 76
11, 29631, Note_on_c, 5, 64, 0
11, 29640, Note_on_c, 5, 66, 76
11, 29691, Note_on_c, 5, 66, 0
11, 29700, Note_on_c, 5, 67, 76
11, 29751, Note_on_c, 5, 67, 0
11, 29760, Note_on_c, 5, 69, 76
11, 29864, Note_on_c, 5, 69, 0
11, 29880, Note_on_c, 5, 69, 76
11, 29909, Note_on_c, 5, 69, 0
11, 29910, Note_on_c, 5, 71, 76
11, 29939, Note_on_c, 5, 71, 0
11, 29940, Note_on_c, 5, 67, 76
11, 29969, Note_on_c, 5, 67, 0
11, 29970, Note_on_c, 5, 69, 76
11, 29999, Note_on_c, 5, 69, 0
11, 30000, Note_on_c, 5, 67, 76
11, 30239, Note_on_c, 5, 67, 0
11, 30960, Note_on_c, 5, 64, 76
11, 31011, Note_on_c, 5, 64, 0
11, 31020, Note_on_c, 5, 66, 76
11, 31071, Note_on_c, 5, 66, 0
11, 31080, Note_on_c, 5, 68, 76
11, 31131, Note_on_c, 5, 68, 0
11, 31140, Note_on_c, 5, 69, 76
11, 31191, Note_on_c, 5, 69, 0
11, 31200, Note_on_c, 5, 71, 76
11, 31304, Note_on_c, 5, 71, 0
11, 31320, Note_on_c, 5, 71, 76
11, 31349, Note_on_c, 5, 71, 0
11, 31350, Note_on_c, 5, 73, 76
11, 31379, Note_on_c, 5, 73, 0
11, 31380, Note_on_c, 5, 69, 76
11, 31409, Note_on_c, 5, 69, 0
11, 31410, Note_on_c, 5, 71, 76
11, 31439, Note_on_c, 5, 71, 0
11, 31440, Note_on_c, 5, 69, 76
11, 31664, Note_on_c, 5, 69, 0
11, 31680, Note_on_c, 5, 73, 76
11, 31731, Note_on_c, 5, 73, 0
11, 31740, Note_on_c, 5, 71, 76
11, 31791, Note_on_c, 5, 71, 0
11, 31800, Note_on_c, 5, 74, 76
11, 31889, Note_on_c, 5, 74, 0
11, 31920, Note_on_c, 5, 73, 76
11, 32009, Note_on_c, 5, 73, 0
11, 32040, Note_on_c, 5, 71, 76
11, 32144, Note_on_c, 5, 71, 0
11, 32160, Note_on_c, 5, 73, 76
11, 32384, Note_on_c, 5, 73, 0
11, 32400, Note_on_c, 5, 76, 76
11, 32451, Note_on_c, 5, 76, 0
11, 32460, Note_on_c, 5, 74, 76
11, 32511, Note_on_c, 5, 74, 0
11, 32520, Note_on_c, 5, 73, 76
11, 32609, Note_on_c, 5, 73, 0
11, 32640, Note_on_c, 5, 76, 76
11, 32729, Note_on_c, 5, 76, 0
11, 32760, Note_on_c, 5, 74, 76
11, 32789, Note_on_c, 5, 74, 0
11, 32790, Note_on_c, 5, 76, 76
11, 32819, Note_on_c, 5, 76, 0
11, 32820, Note_on_c, 5, 73, 76
11, 32849, Note_on_c, 5, 73, 0
11, 32850, Note_on_c, 5, 74, 76
11, 32879, Note_on_c, 5, 74, 0
11, 32880, Note_on_c, 5, 73, 76
11, 33104, Note_on_c, 5, 73, 0
11, 33120, Note_on_c, 5, 74, 76
11, 33171, Note_on_c, 5, 74, 0
11, 33180, Note_on_c, 5, 73, 76
11, 33231, Note_on_c, 5, 73, 0
11, 33240, Note_on_c, 5, 76, 76
11, 33329, Note_on_c, 5, 76, 0
11, 33360, Note_on_c, 5, 74, 76
11, 33449, Note_on_c, 5, 74, 0
11, 33480, Note_on_c, 5, 73, 76
11, 33599, Note_on_c, 5, 73, 0
11, 33720, Note_on_c, 5, 74, 76
11, 33839, Note_on_c, 5, 74, 0
11, 33960, Note_on_c, 5, 69, 76
11, 34079, Note_on_c, 5, 69, 0
11, 34200, Note_on_c, 5, 70, 76
11, 34319, Note_on_c, 5, 70, 0
11, 34440, Note_on_c, 5, 67, 76
11, 34559, Note_on_c, 5, 67, 0
11, 34680, Note_on_c, 5, 69, 76
11, 34799, Note_on_c, 5, 69, 0
11, 34920, Note_on_c, 5, 74, 76
11, 35039, Note_on_c, 5, 74, 0
11, 35160, Note_on_c, 5, 74, 76
11, 35279, Note_on_c, 5, 74, 0
11, 35400, Note_on_c, 5, 74, 76
11, 35519, Note_on_c, 5, 74, 0
11, 35640, Note_on_c, 5, 71, 76
11, 35744, Note_on_c, 5, 71, 0
11, 35760, Note_on_c, 5, 73, 76
11, 35984, Note_on_c, 5, 73, 0
11, 36000, Note_on_c, 5, 73, 76
11, 36104, Note_on_c, 5, 73, 0
11, 36120, Note_on_c, 5, 74, 76
11, 36224, Note_on_c, 5, 74, 0
11, 36240, Note_on_c, 5, 76, 76
11, 36344, Note_on_c, 5, 76, 0
11, 36360, Note_on_c, 5, 74, 76
11, 36464, Note_on_c, 5, 74, 0
11, 36480, Note_on_c, 5, 74, 76
11, 36584, Note_on_c, 5, 74, 0
11, 36600, Note_on_c, 5, 79, 76
11, 36704, Note_on_c, 5, 79, 0
11, 36720, Note_on_c, 5, 78, 76
11, 36824, Note_on_c, 5, 78, 0
11, 36840, Note_on_c, 5, 79, 76
11, 36944, Note_on_c, 5, 79, 0
11, 36960, Note_on_c, 5, 76, 76
11, 37064, Note_on_c, 5, 76, 0
11, 37080, Note_on_c, 5, 74, 76
11, 37184, Note_on_c, 5, 74, 0
11, 37200, Note_on_c, 5, 71, 76
11, 37251, Note_on_c, 5, 71, 0
11, 37260, Note_on_c, 5, 73, 76
11, 37311, Note_on_c, 5, 73, 0
11, 37320, Note_on_c, 5, 74, 76
11, 37424, Note_on_c, 5, 74, 0
11, 37440, Note_on_c, 5, 74, 76
11, 37544, Note_on_c, 5, 74, 0
11, 37560, Note_on_c, 5, 74, 76
11, 37664, Note_on_c, 5, 74, 0
11, 37680, Note_on_c, 5, 74, 76
11, 37784, Note_on_c, 5, 74, 0
11, 37800, Note_on_c, 5, 74, 76
11, 37904, Note_on_c, 5, 74, 0
11, 37920, Note_on_c, 5, 73, 76
11, 38039, Note_on_c, 5, 73, 0
11, 38160, Note_on_c, 5, 76, 76
11, 38264, Note_on_c, 5, 76, 0
11, 38280, Note_on_c, 5, 78, 76
11, 38384, Note_on_c, 5, 78, 0
11, 38400, Note_on_c, 5, 79, 76
11, 38479, Note_on_c, 5, 79, 0
11, 38500, Note_on_c, 5, 78, 76
11, 38519, Note_on_c, 5, 78, 0
11, 38520, Note_on_c, 5, 76, 76
11, 38759, Note_on_c, 5, 76, 0
11, 38880, Note_on_c, 5, 76, 76
11, 38984, Note_on_c, 5, 76, 0
11, 39000, Note_on_c, 5, 76, 76
11, 39029, Note_on_c, 5, 76, 0
11, 39030, Note_on_c, 5, 78, 76
11, 39059, Note_on_c, 5, 78, 0
11, 39060, Note_on_c, 5, 74, 76
11, 39089, Note_on_c, 5, 74, 0
11, 39090, Note_on_c, 5, 76, 76
11, 39119, Note_on_c, 5, 76, 0
11, 39120, Note_on_c, 5, 74, 76
11, 39171, Note_on_c, 5, 74, 0
11, 39180, Note_on_c, 5, 73, 76
11, 39231, Note_on_c, 5, 73, 0
11, 39240, Note_on_c, 5, 74, 76
11, 39479, Note_on_c, 5, 74, 0
11, 39600, Note_on_c, 5, 74, 76
11, 39704, Note_on_c, 5, 74, 0
11, 39720, Note_on_c, 5, 73, 76
11, 39824, Note_on_c, 5, 73, 0
11, 39840, Note_on_c, 5, 74, 76
11, 39944, Note_on_c, 5, 74, 0
11, 39960, Note_on_c, 5, 76, 76
11, 40304, Note_on_c, 5, 76, 0
11, 40320, Note_on_c, 5, 73, 76
11, 40424, Note_on_c, 5, 73, 0
11, 40440, Note_on_c, 5, 74, 76
11, 40544, Note_on_c, 5, 74, 0
11, 40560, Note_on_c, 5, 76, 76
11, 40664, Note_on_c, 5, 76, 0
11, 40680, Note_on_c, 5, 74, 76
11, 40784, Note_on_c, 5, 74, 0
11, 40800, Note_on_c, 5, 69, 76
11, 40904, Note_on_c, 5, 69, 0
11, 40920, Note_on_c, 5, 71, 76
11, 41024, Note_on_c, 5, 71, 0
11, 41040, Note_on_c, 5, 69, 76
11, 41091, Note_on_c, 5, 69, 0
11, 41100, Note_on_c, 5, 67, 76
11, 41151, Note_on_c, 5, 67, 0
11, 41160, Note_on_c, 5, 66, 76
11, 41264, Note_on_c, 5, 66, 0
11, 41280, Note_on_c, 5, 71, 76
11, 41384, Note_on_c, 5, 71, 0
11, 41400, Note_on_c, 5, 76, 76
11, 41504, Note_on_c, 5, 76, 0
11, 41520, Note_on_c, 5, 74, 76
11, 41571, Note_on_c, 5, 74, 0
11, 41580, Note_on_c, 5, 73, 76
11, 41631, Note_on_c, 5, 73, 0
11, 41640, Note_on_c, 5, 74, 76
11, 41744, Note_on_c, 5, 74, 0
11, 41760, Note_on_c, 5, 62, 76
11, 41864, Note_on_c, 5, 62, 0
11, 41880, Note_on_c, 5, 69, 76
11, 41984, Note_on_c, 5, 69, 0
11, 42000, Note_on_c, 5, 69, 76
11, 42104, Note_on_c, 5, 69, 0
11, 42120, Note_on_c, 5, 74, 76
11, 42224, Note_on_c, 5, 74, 0
11, 42240, Note_on_c, 5, 73, 76
11, 42344, Note_on_c, 5, 73, 0
11, 42360, Note_on_c, 5, 74, 76
11, 42464, Note_on_c, 5, 74, 0
11, 42480, Note_on_c, 5, 71, 76
11, 42584, Note_on_c, 5, 71, 0
11, 42600, Note_on_c, 5, 69, 76
11, 42704, Note_on_c, 5, 69, 0
11, 42720, Note_on_c, 5, 69, 76
11, 42824, Note_on_c, 5, 69, 0
11, 42840, Note_on_c, 5, 69, 76
11, 43184, Note_on_c, 5, 69, 0
11, 43200, Note_on_c, 5, 73, 76
11, 43251, Note_on_c, 5, 73, 0
11, 43260, Note_on_c, 5, 71, 76
11, 43311, Note_on_c, 5, 71, 0
11, 43320, Note_on_c, 5, 73, 76
11, 43409, Note_on_c, 5, 73, 0
11, 43440, Note_on_c, 5, 74, 76
11, 43529, Note_on_c, 5, 74, 0
11, 43560, Note_on_c, 5, 76, 76
11, 43664, Note_on_c, 5, 76, 0
11, 43680, Note_on_c, 5, 74, 76
11, 43731, Note_on_c, 5, 74, 0
11, 43740, Note_on_c, 5, 73, 76
11, 43791, Note_on_c, 5, 73, 0
11, 43800, Note_on_c, 5, 74, 76
11, 43851, Note_on_c, 5, 74, 0
11, 43860, Note_on_c, 5, 76, 76
11, 43911, Note_on_c, 5, 76, 0
11, 43920, Note_on_c, 5, 78, 76
11, 44024, Note_on_c, 5, 78, 0
11, 44040, Note_on_c, 5, 69, 76
11, 44129, Note_on_c, 5, 69, 0
11, 44160, Note_on_c, 5, 73, 76
11, 44227, Note_on_c, 5, 73, 0
11, 44260, Note_on_c, 5, 73, 76
11, 44279, Note_on_c, 5, 73, 0
11, 44280, Note_on_c, 5, 74, 76
11, 44384, Note_on_c, 5, 74, 0
11, 44400, Note_on_c, 5, 73, 76
11, 44624, Note_on_c, 5, 73, 0
11, 44640, Note_on_c, 5, 75, 76
11, 44691, Note_on_c, 5, 75, 0
11, 44700, Note_on_c, 5, 73, 76
11, 44751, Note_on_c, 5, 73, 0
11, 44760, Note_on_c, 5, 75, 76
11, 44864, Note_on_c, 5, 75, 0
11, 44880, Note_on_c, 5, 76, 76
11, 44984, Note_on_c, 5, 76, 0
11, 45000, Note_on_c, 5, 78, 76
11, 45104, Note_on_c, 5, 78, 0
11, 45120, Note_on_c, 5, 76, 76
11, 45171, Note_on_c, 5, 76, 0
11, 45180, Note_on_c, 5, 75, 76
11, 45231, Note_on_c, 5, 75, 0
11, 45240, Note_on_c, 5, 76, 76
11, 45291, Note_on_c, 5, 76, 0
11, 45300, Note_on_c, 5, 78, 76
11, 45351, Note_on_c, 5, 78, 0
11, 45360, Note_on_c, 5, 79, 76
11, 45464, Note_on_c, 5, 79, 0
11, 45480, Note_on_c, 5, 71, 76
11, 45569, Note_on_c, 5, 71, 0
11, 45600, Note_on_c, 5, 75, 76
11, 45667, Note_on_c, 5, 75, 0
11, 45700, Note_on_c, 5, 75, 76
11, 45719, Note_on_c, 5, 75, 0
11, 45720, Note_on_c, 5, 76, 76
11, 45824, Note_on_c, 5, 76, 0
11, 45840, Note_on_c, 5, 75, 76
11, 46064, Note_on_c, 5, 75, 0
11, 46080, Note_on_c, 5, 76, 76
11, 46184, Note_on_c, 5, 76, 0
11, 46200, Note_on_c, 5, 76, 76
11, 46304, Note_on_c, 5, 76, 0
11, 46320, Note_on_c, 5, 78, 76
11, 46424, Note_on_c, 5, 78, 0
11, 46440, Note_on_c, 5, 75, 76
11, 46544, Note_on_c, 5, 75, 0
11, 46560, Note_on_c, 5, 71, 76
11, 46664, Note_on_c, 5, 71, 0
11, 46680, Note_on_c, 5, 71, 76
11, 46784, Note_on_c, 5, 71, 0
11, 46800, Note_on_c, 5, 76, 76
11, 46851, Note_on_c, 5, 76, 0
11, 46860, Note_on_c, 5, 75, 76
11, 46911, Note_on_c, 5, 75, 0
11, 46920, Note_on_c, 5, 76, 76
11, 47024, Note_on_c, 5, 76, 0
11, 47040, Note_on_c, 5, 81, 76
11, 47144, Note_on_c, 5, 81, 0
11, 47160, Note_on_c, 5, 75, 76
11, 47189, Note_on_c, 5, 75, 0
11, 47190, Note_on_c, 5, 76, 76
11, 47219, Note_on_c, 5, 76, 0
11, 47220, Note_on_c, 5, 73, 76
11, 47249, Note_on_c, 5, 73, 0
11, 47250, Note_on_c, 5, 75, 76
11, 47279, Note_on_c, 5, 75, 0
11, 47280, Note_on_c, 5, 76, 76
11, 47504, Note_on_c, 5, 76, 0
11, 47520, Note_on_c, 5, 70, 76
11, 47624, Note_on_c, 5, 70, 0
11, 47640, Note_on_c, 5, 71, 76
11, 47744, Note_on_c, 5, 71, 0
11, 47760, Note_on_c, 5, 74, 76
11, 47864, Note_on_c, 5, 74, 0
11, 47880, Note_on_c, 5, 73, 76
11, 47984, Note_on_c, 5, 73, 0
11, 48000, Note_on_c, 5, 66, 76
11, 48104, Note_on_c, 5, 66, 0
11, 48120, Note_on_c, 5, 71, 76
11, 48224, Note_on_c, 5, 71, 0
11, 48240, Note_on_c, 5, 71, 76
11, 48344, Note_on_c, 5, 71, 0
11, 48360, Note_on_c, 5, 76, 76
11, 48464, Note_on_c, 5, 76, 0
11, 48480, Note_on_c, 5, 74, 76
11, 48584, Note_on_c, 5, 74, 0
11, 48600, Note_on_c, 5, 73, 76
11, 48704, Note_on_c, 5, 73, 0
11, 48720, Note_on_c, 5, 74, 76
11, 48771, Note_on_c, 5, 74, 0
11, 48780, Note_on_c, 5, 76, 76
11, 48831, Note_on_c, 5, 76, 0
11, 48840, Note_on_c, 5, 74, 76
11, 48944, Note_on_c, 5, 74, 0
11, 48960, Note_on_c, 5, 71, 76
11, 49064, Note_on_c, 5, 71, 0
11, 49080, Note_on_c, 5, 71, 76
11, 49184, Note_on_c, 5, 71, 0
11, 49200, Note_on_c, 5, 76, 76
11, 49304, Note_on_c, 5, 76, 0
11, 49320, Note_on_c, 5, 73, 76
11, 49559, Note_on_c, 5, 73, 0
11, 49680, Note_on_c, 5, 73, 76
11, 49784, Note_on_c, 5, 73, 0
11, 49800, Note_on_c, 5, 74, 76
11, 49904, Note_on_c, 5, 74, 0
11, 49920, Note_on_c, 5, 76, 76
11, 50024, Note_on_c, 5, 76, 0
11, 50040, Note_on_c, 5, 73, 76
11, 50279, Note_on_c, 5, 73, 0
11, 50400, Note_on_c, 5, 73, 76
11, 50504, Note_on_c, 5, 73, 0
11, 50520, Note_on_c, 5, 73, 76
11, 50624, Note_on_c, 5, 73, 0
11, 50640, Note_on_c, 5, 71, 76
11, 50691, Note_on_c, 5, 71, 0
11, 50700, Note_on_c, 5, 70, 76
11, 50751, Note_on_c, 5, 70, 0
11, 50760, Note_on_c, 5, 71, 76
11, 50999, Note_on_c, 5, 71, 0
11, 51120, Note_on_c, 5, 71, 76
11, 51224, Note_on_c, 5, 71, 0
11, 51240, Note_on_c, 5, 70, 76
11, 51344, Note_on_c, 5, 70, 0
11, 51360, Note_on_c, 5, 71, 76
11, 51464, Note_on_c, 5, 71, 0
11, 51480, Note_on_c, 5, 73, 76
11, 51824, Note_on_c, 5, 73, 0
11, 51840, Note_on_c, 5, 76, 76
11, 51944, Note_on_c, 5, 76, 0
11, 51960, Note_on_c, 5, 74, 76
11, 52064, Note_on_c, 5, 74, 0
11, 52080, Note_on_c, 5, 73, 76
11, 52184, Note_on_c, 5, 73, 0
11, 52200, Note_on_c, 5, 71, 76
11, 52304, Note_on_c, 5, 71, 0
11, 52320, Note_on_c, 5, 66, 76
11, 52424, Note_on_c, 5, 66, 0
11, 52440, Note_on_c, 5, 67, 76
11, 52544, Note_on_c, 5, 67, 0
11, 52560, Note_on_c, 5, 66, 76
11, 52664, Note_on_c, 5, 66, 0
11, 52680, Note_on_c, 5, 71, 76
11, 52784, Note_on_c, 5, 71, 0
11, 52800, Note_on_c, 5, 76, 76
11, 52904, Note_on_c, 5, 76, 0
11, 52920, Note_on_c, 5, 73, 76
11, 52949, Note_on_c, 5, 73, 0
11, 52950, Note_on_c, 5, 74, 76
11, 52979, Note_on_c, 5, 74, 0
11, 52980, Note_on_c, 5, 71, 76
11, 53009, Note_on_c, 5, 71, 0
11, 53010, Note_on_c, 5, 73, 76
11, 53039, Note_on_c, 5, 73, 0
11, 53040, Note_on_c, 5, 71, 76
11, 53091, Note_on_c, 5, 71, 0
11, 53100, Note_on_c, 5, 70, 76
11, 53151, Note_on_c, 5, 70, 0
11, 53160, Note_on_c, 5, 71, 76
11, 53264, Note_on_c, 5, 71, 0
11, 53280, Note_on_c, 5, 71, 76
11, 53384, Note_on_c, 5, 71, 0
11, 53400, Note_on_c, 5, 76, 76
11, 53504, Note_on_c, 5, 76, 0
11, 53520, Note_on_c, 5, 74, 76
11, 53624, Note_on_c, 5, 74, 0
11, 53640, Note_on_c, 5, 67, 76
11, 53744, Note_on_c, 5, 67, 0
11, 53760, Note_on_c, 5, 66, 76
11, 53811, Note_on_c, 5, 66, 0
11, 53820, Note_on_c, 5, 64, 76
11, 53871, Note_on_c, 5, 64, 0
11, 53880, Note_on_c, 5, 62, 76
11, 53984, Note_on_c, 5, 62, 0
11, 54000, Note_on_c, 5, 67, 76
11, 54104, Note_on_c, 5, 67, 0
11, 54120, Note_on_c, 5, 66, 76
11, 54224, Note_on_c, 5, 66, 0
11, 54240, Note_on_c, 5, 66, 76
11, 54344, Note_on_c, 5, 66, 0
11, 54360, Note_on_c, 5, 66, 76
11, 54599, Note_on_c, 5, 66, 0
11, 55440, Note_on_c, 5, 62, 76
11, 55491, Note_on_c, 5, 62, 0
11, 55500, Note_on_c, 5, 64, 76
11, 55551, Note_on_c, 5, 64, 0
11, 55560, Note_on_c, 5, 66, 76
11, 55611, Note_on_c, 5, 66, 0
11, 55620, Note_on_c, 5, 67, 76
11, 55671, Note_on_c, 5, 67, 0
11, 55680, Note_on_c, 5, 69, 76
11, 55784, Note_on_c, 5, 69, 0
11, 55800, Note_on_c, 5, 69, 76
11, 55829, Note_on_c, 5, 69, 0
11, 55830, Note_on_c, 5, 71, 76
11, 55859, Note_on_c, 5, 71, 0
11, 55860, Note_on_c, 5, 67, 76
11, 55889, Note_on_c, 5, 67, 0
11, 55890, Note_on_c, 5, 69, 76
11, 55919, Note_on_c, 5, 69, 0
11, 55920, Note_on_c, 5, 67, 76
11, 56159, Note_on_c, 5, 67, 0
11, 56880, Note_on_c, 5, 64, 76
11, 56931, Note_on_c, 5, 64, 0
11, 56940, Note_on_c, 5, 66, 76
11, 56991, Note_on_c, 5, 66, 0
11, 57000, Note_on_c, 5, 68, 76
11, 57051, Note_on_c, 5, 68, 0
11, 57060, Note_on_c, 5, 69, 76
11, 57111, Note_on_c, 5, 69, 0
11, 57120, Note_on_c, 5, 71, 76
11, 57224, Note_on_c, 5, 71, 0
11, 57240, Note_on_c, 5, 71, 76
11, 57269, Note_on_c, 5, 71, 0
11, 57270, Note_on_c, 5, 73, 76
11, 57299, Note_on_c, 5, 73, 0
11, 57300, Note_on_c, 5, 69, 76
11, 57329, Note_on_c, 5, 69, 0
11, 57330, Note_on_c, 5, 71, 76
11, 57359, Note_on_c, 5, 71, 0
11, 57360, Note_on_c, 5, 69, 76
11, 57584, Note_on_c, 5, 69, 0
11, 57600, Note_on_c, 5, 73, 76
11, 57651, Note_on_c, 5, 73, 0
11, 57660, Note_on_c, 5, 71, 76
11, 57711, Note_on_c, 5, 71, 0
11, 57720, Note_on_c, 5, 74, 76
11, 57809, Note_on_c, 5, 74, 0
11, 57840, Note_on_c, 5, 73, 76
11, 57929, Note_on_c, 5, 73, 0
11, 57960, Note_on_c, 5, 71, 76
11, 58064, Note_on_c, 5, 71, 0
11, 58080, Note_on_c, 5, 73, 76
11, 58304, Note_on_c, 5, 73, 0
11, 58320, Note_on_c, 5, 76, 76
11, 58371, Note_on_c, 5, 76, 0
11, 58380, Note_on_c, 5, 74, 76
11, 58431, Note_on_c, 5, 74, 0
11, 58440, Note_on_c, 5, 73, 76
11, 58529, Note_on_c, 5, 73, 0
11, 58560, Note_on_c, 5, 76, 76
11, 58649, Note_on_c, 5, 76, 0
11, 58680, Note_on_c, 5, 74, 76
11, 58709, Note_on_c, 5, 74, 0
11, 58710, Note_on_c, 5, 76, 76
11, 58739, Note_on_c, 5, 76, 0
11, 58740, Note_on_c, 5, 73, 76
11, 58769, Note_on_c, 5, 73, 0
11, 58770, Note_on_c, 5, 74, 76
11, 58799, Note_on_c, 5, 74, 0
11, 58800, Note_on_c, 5, 73, 76
11, 59024, Note_on_c, 5, 73, 0
11, 59040, Note_on_c, 5, 74, 76
11, 59091, Note_on_c, 5, 74, 0
11, 59100, Note_on_c, 5, 73, 76
11, 59151, Note_on_c, 5, 73, 0
11, 59160, Note_on_c, 5, 76, 76
11, 59249, Note_on_c, 5, 76, 0
11, 59280, Note_on_c, 5, 74, 76
11, 59369, Note_on_c, 5, 74, 0
11, 59400, Note_on_c, 5, 73, 76
11, 59519, Note_on_c, 5, 73, 0
11, 59640, Note_on_c, 5, 74, 76
11, 59759, Note_on_c, 5, 74, 0
11, 59880, Note_on_c, 5, 69, 76
11, 59999, Note_on_c, 5, 69, 0
11, 60120, Note_on_c, 5, 70, 76
11, 60239, Note_on_c, 5, 70, 0
11, 60360, Note_on_c, 5, 67, 76
11, 60479, Note_on_c, 5, 67, 0
11, 60600, Note_on_c, 5, 69, 76
11, 60719, Note_on_c, 5, 69, 0
11, 60840, Note_on_c, 5, 74, 76
11, 60959, Note_on_c, 5, 74, 0
11, 61080, Note_on_c, 5, 74, 76
11, 61199, Note_on_c, 5, 74, 0
11, 61320, Note_on_c, 5, 74, 76
11, 61439, Note_on_c, 5, 74, 0
11, 61560, Note_on_c, 5, 71, 76
11, 61664, Note_on_c, 5, 71, 0
11, 61680, Note_on_c, 5, 73, 76
11, 61904, Note_on_c, 5, 73, 0
11, 61920, Note_on_c, 5, 73, 76
11, 62024, Note_on_c, 5, 73, 0
11, 62040, Note_on_c, 5, 74, 76
11, 62144, Note_on_c, 5, 74, 0
11, 62160, Note_on_c, 5, 76, 76
11, 62264, Note_on_c, 5, 76, 0
11, 62280, Note_on_c, 5, 74, 76
11, 62384, Note_on_c, 5, 74, 0
11, 62400, Note_on_c, 5, 74, 76
11, 62504, Note_on_c, 5, 74, 0
11, 62520, Note_on_c, 5, 79, 76
11, 62624, Note_on_c, 5, 79, 0
11, 62640, Note_on_c, 5, 78, 76
11, 62744, Note_on_c, 5, 78, 0
11, 62760, Note_on_c, 5, 79, 76
11, 62864, Note_on_c, 5, 79, 0
11, 62880, Note_on_c, 5, 76, 76
11, 62984, Note_on_c, 5, 76, 0
11, 63000, Note_on_c, 5, 74, 76
11, 63104, Note_on_c, 5, 74, 0
11, 63120, Note_on_c, 5, 71, 76
11, 63171, Note_on_c, 5, 71, 0
11, 63180, Note_on_c, 5, 73, 76
11, 63231, Note_on_c, 5, 73, 0
11, 63240, Note_on_c, 5, 74, 76
11, 63344, Note_on_c, 5, 74, 0
11, 63360, Note_on_c, 5, 74, 76
11, 63464, Note_on_c, 5, 74, 0
11, 63480, Note_on_c, 5, 74, 76
11, 63584, Note_on_c, 5, 74, 0
11, 63600, Note_on_c, 5, 74, 76
11, 63704, Note_on_c, 5, 74, 0
11, 63720, Note_on_c, 5, 74, 76
11, 63824, Note_on_c, 5, 74, 0
11, 63840, Note_on_c, 5, 73, 76
11, 63959, Note_on_c, 5, 73, 0
11, 64080, Note_on_c, 5, 76, 76
11, 64184, Note_on_c, 5, 76, 0
11, 64200, Note_on_c, 5, 78, 76
11, 64304, Note_on_c, 5, 78, 0
11, 64320, Note_on_c, 5, 79, 76
11, 64399, Note_on_c, 5, 79, 0
11, 64420, Note_on_c, 5, 78, 76
11, 64439, Note_on_c, 5, 78, 0
11, 64440, Note_on_c, 5, 76, 76
11, 64679, Note_on_c, 5, 76, 0
11, 64800, Note_on_c, 5, 76, 76
11, 64904, Note_on_c, 5, 76, 0
11, 64920, Note_on_c, 5, 76, 76
11, 64949, Note_on_c, 5, 76, 0
11, 64950, Note_on_c, 5, 78, 76
11, 64979, Note_on_c, 5, 78, 0
11, 64980, Note_on_c, 5, 74, 76
11, 65009, Note_on_c, 5, 74, 0
11, 65010, Note_on_c, 5, 76, 76
11, 65039, Note_on_c, 5, 76, 0
11, 65040, Note_on_c, 5, 74, 76
11, 65091, Note_on_c, 5, 74, 0
11, 65100, Note_on_c, 5, 73, 76
11, 65151, Note_on_c, 5, 73, 0
11, 65160, Note_on_c, 5, 74, 76
11, 65399, Note_on_c, 5, 74, 0
11, 65520, Note_on_c, 5, 74, 76
11, 65624, Note_on_c, 5, 74, 0
11, 65640, Note_on_c, 5, 73, 76
11, 65744, Note_on_c, 5, 73, 0
11, 65760, Note_on_c, 5, 74, 76
11, 65864, Note_on_c, 5, 74, 0
11, 65880, Note_on_c, 5, 76, 76
11, 66224, Note_on_c, 5, 76, 0
11, 66240, Note_on_c, 5, 73, 76
11, 66344, Note_on_c, 5, 73, 0
11, 66360, Note_on_c, 5, 74, 76
11, 66464, Note_on_c, 5, 74, 0
11, 66480, Note_on_c, 5, 76, 76
11, 66584, Note_on_c, 5, 76, 0
11, 66600, Note_on_c, 5, 74, 76
11, 66704, Note_on_c, 5, 74, 0
11, 66720, Note_on_c, 5, 69, 76
11, 66824, Note_on_c, 5, 69, 0
11, 66840, Note_on_c, 5, 71, 76
11, 66944, Note_on_c, 5, 71, 0
11, 66960, Note_on_c, 5, 69, 76
11, 67011, Note_on_c, 5, 69, 0
11, 67020, Note_on_c, 5, 67, 76
11, 67071, Note_on_c, 5, 67, 0
11, 67080, Note_on_c, 5, 66, 76
11, 67184, Note_on_c, 5, 66, 0
11, 67200, Note_on_c, 5, 71, 76
11, 67304, Note_on_c, 5, 71, 0
11, 67320, Note_on_c, 5, 76, 76
11, 67424, Note_on_c, 5, 76, 0
11, 67440, Note_on_c, 5, 74, 76
11, 67491, Note_on_c, 5, 74, 0
11, 67500, Note_on_c, 5, 73, 76
11, 67551, Note_on_c, 5, 73, 0
11, 67560, Note_on_c, 5, 74, 76
11, 67664, Note_on_c, 5, 74, 0
11, 67680, Note_on_c, 5, 62, 76
11, 67784, Note_on_c, 5, 62, 0
11, 67800, Note_on_c, 5, 69, 76
11, 67904, Note_on_c, 5, 69, 0
11, 67920, Note_on_c, 5, 69, 76
11, 68024, Note_on_c, 5, 69, 0
11, 68040, Note_on_c, 5, 74, 76
11, 68144, Note_on_c, 5, 74, 0
11, 68160, Note_on_c, 5, 73, 76
11, 68264, Note_on_c, 5, 73, 0
11, 68280, Note_on_c, 5, 74, 76
11, 68384, Note_on_c, 5, 74, 0
11, 68400, Note_on_c, 5, 71, 76
11, 68504, Note_on_c, 5, 71, 0
11, 68520, Note_on_c, 5, 69, 76
11, 68624, Note_on_c, 5, 69, 0
11, 68640, Note_on_c, 5, 69, 76
11, 68744, Note_on_c, 5, 69, 0
11, 68760, Note_on_c, 5, 69, 76
11, 69119, Note_on_c, 5, 69, 0
11, 69119, End_track
12, 0, Start_track
12, 0, Title_t, "Oboe III"
12, 0, MIDI_port, 0
12, 0, Program_c, 6, 68
12, 0, Control_c, 6, 10, 69
12, 0, Control_c, 6, 11, 127
12, 0, Control_c, 6, 7, 80
12, 0, Note_on_c, 6, 69, 76
12, 104, Note_on_c, 6, 69, 0
12, 120, Note_on_c, 6, 69, 76
12, 224, Note_on_c, 6, 69, 0
12, 240, Note_on_c, 6, 71, 76
12, 344, Note_on_c, 6, 71, 0
12, 360, Note_on_c, 6, 69, 76
12, 464, Note_on_c, 6, 69, 0
12, 480, Note_on_c, 6, 67, 76
12, 584, Note_on_c, 6, 67, 0
12, 600, Note_on_c, 6, 66, 76
12, 704, Note_on_c, 6, 66, 0
12, 720, Note_on_c, 6, 69, 76
12, 824, Note_on_c, 6, 69, 0
12, 840, Note_on_c, 6, 69, 76
12, 944, Note_on_c, 6, 69, 0
12, 960, Note_on_c, 6, 62, 76
12, 1064, Note_on_c, 6, 62, 0
12, 1080, Note_on_c, 6, 69, 76
12, 1184, Note_on_c, 6, 69, 0
12, 1200, Note_on_c, 6, 69, 76
12, 1424, Note_on_c, 6, 69, 0
12, 1440, Note_on_c, 6, 71, 76
12, 1544, Note_on_c, 6, 71, 0
12, 1560, Note_on_c, 6, 64, 76
12, 1664, Note_on_c, 6, 64, 0
12, 1680, Note_on_c, 6, 69, 76
12, 1784, Note_on_c, 6, 69, 0
12, 1800, Note_on_c, 6, 66, 76
12, 1904, Note_on_c, 6, 66, 0
12, 1920, Note_on_c, 6, 64, 76
12, 2024, Note_on_c, 6, 64, 0
12, 2040, Note_on_c, 6, 64, 76
12, 2144, Note_on_c, 6, 64, 0
12, 2160, Note_on_c, 6, 64, 76
12, 2264, Note_on_c, 6, 64, 0
12, 2280, Note_on_c, 6, 64, 76
12, 2384, Note_on_c, 6, 64, 0
12, 2400, Note_on_c, 6, 64, 76
12, 2504, Note_on_c, 6, 64, 0
12, 2520, Note_on_c, 6, 66, 76
12, 2624, Note_on_c, 6, 66, 0
12, 2640, Note_on_c, 6, 64, 76
12, 2744, Note_on_c, 6, 64, 0
12, 2760, Note_on_c, 6, 69, 76
12, 2864, Note_on_c, 6, 69, 0
12, 2880, Note_on_c, 6, 66, 76
12, 2984, Note_on_c, 6, 66, 0
12, 3000, Note_on_c, 6, 64, 76
12, 3104, Note_on_c, 6, 64, 0
12, 3120, Note_on_c, 6, 69, 76
12, 3224, Note_on_c, 6, 69, 0
12, 3240, Note_on_c, 6, 64, 76
12, 3479, Note_on_c, 6, 64, 0
12, 3600, Note_on_c, 6, 64, 76
12, 3704, Note_on_c, 6, 64, 0
12, 3720, Note_on_c, 6, 64, 76
12, 3824, Note_on_c, 6, 64, 0
12, 3840, Note_on_c, 6, 64, 76
12, 3944, Note_on_c, 6, 64, 0
12, 3960, Note_on_c, 6, 64, 76
12, 4199, Note_on_c, 6, 64, 0
12, 4320, Note_on_c, 6, 64, 76
12, 4424, Note_on_c, 6, 64, 0
12, 4440, Note_on_c, 6, 66, 76
12, 4544, Note_on_c, 6, 66, 0
12, 4560, Note_on_c, 6, 71, 76
12, 4664, Note_on_c, 6, 71, 0
12, 4680, Note_on_c, 6, 73, 76
12, 4859, Note_on_c, 6, 73, 0
12, 5040, Note_on_c, 6, 62, 76
12, 5144, Note_on_c, 6, 62, 0
12, 5160, Note_on_c, 6, 62, 76
12, 5264, Note_on_c, 6, 62, 0
12, 5280, Note_on_c, 6, 64, 76
12, 5384, Note_on_c, 6, 64, 0
12, 5400, Note_on_c, 6, 66, 76
12, 5624, Note_on_c, 6, 66, 0
12, 5640, Note_on_c, 6, 64, 76
12, 5744, Note_on_c, 6, 64, 0
12, 5760, Note_on_c, 6, 68, 76
12, 5864, Note_on_c, 6, 68, 0
12, 5880, Note_on_c, 6, 69, 76
12, 5984, Note_on_c, 6, 69, 0
12, 6000, Note_on_c, 6, 71, 76
12, 6104, Note_on_c, 6, 71, 0
12, 6120, Note_on_c, 6, 64, 76
12, 6224, Note_on_c, 6, 64, 0
12, 6240, Note_on_c, 6, 64, 76
12, 6344, Note_on_c, 6, 64, 0
12, 6360, Note_on_c, 6, 71, 76
12, 6464, Note_on_c, 6, 71, 0
12, 6480, Note_on_c, 6, 74, 76
12, 6584, Note_on_c, 6, 74, 0
12, 6600, Note_on_c, 6, 73, 76
12, 6704, Note_on_c, 6, 73, 0
12, 6720, Note_on_c, 6, 66, 76
12, 6824, Note_on_c, 6, 66, 0
12, 6840, Note_on_c, 6, 64, 76
12, 6944, Note_on_c, 6, 64, 0
12, 6960, Note_on_c, 6, 64, 76
12, 7064, Note_on_c, 6, 64, 0
12, 7080, Note_on_c, 6, 64, 76
12, 7184, Note_on_c, 6, 64, 0
12, 7200, Note_on_c, 6, 64, 76
12, 7304, Note_on_c, 6, 64, 0
12, 7320, Note_on_c, 6, 64, 76
12, 7424, Note_on_c, 6, 64, 0
12, 7440, Note_on_c, 6, 64, 76
12, 7544, Note_on_c, 6, 64, 0
12, 7560, Note_on_c, 6, 62, 76
12, 7664, Note_on_c, 6, 62, 0
12, 7680, Note_on_c, 6, 74, 76
12, 7784, Note_on_c, 6, 74, 0
12, 7800, Note_on_c, 6, 73, 76
12, 7904, Note_on_c, 6, 73, 0
12, 7920, Note_on_c, 6, 74, 76
12, 8024, Note_on_c, 6, 74, 0
12, 8040, Note_on_c, 6, 71, 76
12, 8144, Note_on_c, 6, 71, 0
12, 8160, Note_on_c, 6, 76, 76
12, 8264, Note_on_c, 6, 76, 0
12, 8280, Note_on_c, 6, 73, 76
12, 8624, Note_on_c, 6, 73, 0
12, 8640, Note_on_c, 6, 69, 76
12, 8744, Note_on_c, 6, 69, 0
12, 8760, Note_on_c, 6, 69, 76
12, 8864, Note_on_c, 6, 69, 0
12, 8880, Note_on_c, 6, 71, 76
12, 8984, Note_on_c, 6, 71, 0
12, 9000, Note_on_c, 6, 69, 76
12, 9104, Note_on_c, 6, 69, 0
12, 9120, Note_on_c, 6, 67, 76
12, 9224, Note_on_c, 6, 67, 0
12, 9240, Note_on_c, 6, 66, 76
12, 9344, Note_on_c, 6, 66, 0
12, 9360, Note_on_c, 6, 69, 76
12, 9464, Note_on_c, 6, 69, 0
12, 9480, Note_on_c, 6, 69, 76
12, 9584, Note_on_c, 6, 69, 0
12, 9600, Note_on_c, 6, 62, 76
12, 9704, Note_on_c, 6, 62, 0
12, 9720, Note_on_c, 6, 69, 76
12, 9824, Note_on_c, 6, 69, 0
12, 9840, Note_on_c, 6, 69, 76
12, 10064, Note_on_c, 6, 69, 0
12, 10080, Note_on_c, 6, 71, 76
12, 10184, Note_on_c, 6, 71, 0
12, 10200, Note_on_c, 6, 64, 76
12, 10304, Note_on_c, 6, 64, 0
12, 10320, Note_on_c, 6, 69, 76
12, 10424, Note_on_c, 6, 69, 0
12, 10440, Note_on_c, 6, 66, 76
12, 10544, Note_on_c, 6, 66, 0
12, 10560, Note_on_c, 6, 64, 76
12, 10664, Note_on_c, 6, 64, 0
12, 10680, Note_on_c, 6, 64, 76
12, 10784, Note_on_c, 6, 64, 0
12, 10800, Note_on_c, 6, 64, 76
12, 10904, Note_on_c, 6, 64, 0
12, 10920, Note_on_c, 6, 64, 76
12, 11024, Note_on_c, 6, 64, 0
12, 11040, Note_on_c, 6, 64, 76
12, 11144, Note_on_c, 6, 64, 0
12, 11160, Note_on_c, 6, 66, 76
12, 11264, Note_on_c, 6, 66, 0
12, 11280, Note_on_c, 6, 64, 76
12, 11384, Note_on_c, 6, 64, 0
12, 11400, Note_on_c, 6, 69, 76
12, 11504, Note_on_c, 6, 69, 0
12, 11520, Note_on_c, 6, 66, 76
12, 11624, Note_on_c, 6, 66, 0
12, 11640, Note_on_c, 6, 64, 76
12, 11744, Note_on_c, 6, 64, 0
12, 11760, Note_on_c, 6, 69, 76
12, 11864, Note_on_c, 6, 69, 0
12, 11880, Note_on_c, 6, 64, 76
12, 12119, Note_on_c, 6, 64, 0
12, 12240, Note_on_c, 6, 64, 76
12, 12344, Note_on_c, 6, 64, 0
12, 12360, Note_on_c, 6, 64, 76
12, 12464, Note_on_c, 6, 64, 0
12, 12480, Note_on_c, 6, 64, 76
12, 12584, Note_on_c, 6, 64, 0
12, 12600, Note_on_c, 6, 64, 76
12, 12839, Note_on_c, 6, 64, 0
12, 12960, Note_on_c, 6, 64, 76
12, 13064, Note_on_c, 6, 64, 0
12, 13080, Note_on_c, 6, 66, 76
12, 13184, Note_on_c, 6, 66, 0
12, 13200, Note_on_c, 6, 71, 76
12, 13304, Note_on_c, 6, 71, 0
12, 13320, Note_on_c, 6, 73, 76
12, 13499, Note_on_c, 6, 73, 0
12, 13680, Note_on_c, 6, 62, 76
12, 13784, Note_on_c, 6, 62, 0
12, 13800, Note_on_c, 6, 62, 76
12, 13904, Note_on_c, 6, 62, 0
12, 13920, Note_on_c, 6, 64, 76
12, 14024, Note_on_c, 6, 64, 0
12, 14040, Note_on_c, 6, 66, 76
12, 14264, Note_on_c, 6, 66, 0
12, 14280, Note_on_c, 6, 64, 76
12, 14384, Note_on_c, 6, 64, 0
12, 14400, Note_on_c, 6, 68, 76
12, 14504, Note_on_c, 6, 68, 0
12, 14520, Note_on_c, 6, 69, 76
12, 14624, Note_on_c, 6, 69, 0
12, 14640, Note_on_c, 6, 71, 76
12, 14744, Note_on_c, 6, 71, 0
12, 14760, Note_on_c, 6, 64, 76
12, 14864, Note_on_c, 6, 64, 0
12, 14880, Note_on_c, 6, 64, 76
12, 14984, Note_on_c, 6, 64, 0
12, 15000, Note_on_c, 6, 71, 76
12, 15104, Note_on_c, 6, 71, 0
12, 15120, Note_on_c, 6, 74, 76
12, 15224, Note_on_c, 6, 74, 0
12, 15240, Note_on_c, 6, 73, 76
12, 15344, Note_on_c, 6, 73, 0
12, 15360, Note_on_c, 6, 66, 76
12, 15464, Note_on_c, 6, 66, 0
12, 15480, Note_on_c, 6, 64, 76
12, 15584, Note_on_c, 6, 64, 0
12, 15600, Note_on_c, 6, 64, 76
12, 15704, Note_on_c, 6, 64, 0
12, 15720, Note_on_c, 6, 64, 76
12, 15824, Note_on_c, 6, 64, 0
12, 15840, Note_on_c, 6, 64, 76
12, 15944, Note_on_c, 6, 64, 0
12, 15960, Note_on_c, 6, 64, 76
12, 16064, Note_on_c, 6, 64, 0
12, 16080, Note_on_c, 6, 64, 76
12, 16184, Note_on_c, 6, 64, 0
12, 16200, Note_on_c, 6, 62, 76
12, 16304, Note_on_c, 6, 62, 0
12, 16320, Note_on_c, 6, 74, 76
12, 16424, Note_on_c, 6, 74, 0
12, 16440, Note_on_c, 6, 73, 76
12, 16544, Note_on_c, 6, 73, 0
12, 16560, Note_on_c, 6, 74, 76
12, 16664, Note_on_c, 6, 74, 0
12, 16680, Note_on_c, 6, 71, 76
12, 16784, Note_on_c, 6, 71, 0
12, 16800, Note_on_c, 6, 76, 76
12, 16904, Note_on_c, 6, 76, 0
12, 16920, Note_on_c, 6, 73, 76
12, 17264, Note_on_c, 6, 73, 0
12, 17280, Note_on_c, 6, 69, 76
12, 17384, Note_on_c, 6, 69, 0
12, 17400, Note_on_c, 6, 69, 76
12, 17504, Note_on_c, 6, 69, 0
12, 17520, Note_on_c, 6, 69, 76
12, 17624, Note_on_c, 6, 69, 0
12, 17640, Note_on_c, 6, 69, 76
12, 17744, Note_on_c, 6, 69, 0
12, 17760, Note_on_c, 6, 69, 76
12, 17864, Note_on_c, 6, 69, 0
12, 17880, Note_on_c, 6, 69, 76
12, 17984, Note_on_c, 6, 69, 0
12, 18000, Note_on_c, 6, 69, 76
12, 18104, Note_on_c, 6, 69, 0
12, 18120, Note_on_c, 6, 69, 76
12, 18224, Note_on_c, 6, 69, 0
12, 18240, Note_on_c, 6, 69, 76
12, 18344, Note_on_c, 6, 69, 0
12, 18360, Note_on_c, 6, 69, 76
12, 18464, Note_on_c, 6, 69, 0
12, 18480, Note_on_c, 6, 69, 76
12, 18584, Note_on_c, 6, 69, 0
12, 18600, Note_on_c, 6, 69, 76
12, 18704, Note_on_c, 6, 69, 0
12, 18720, Note_on_c, 6, 69, 76
12, 18824, Note_on_c, 6, 69, 0
12, 18840, Note_on_c, 6, 69, 76
12, 18944, Note_on_c, 6, 69, 0
12, 18960, Note_on_c, 6, 67, 76
12, 19064, Note_on_c, 6, 67, 0
12, 19080, Note_on_c, 6, 66, 76
12, 19184, Note_on_c, 6, 66, 0
12, 19200, Note_on_c, 6, 71, 76
12, 19304, Note_on_c, 6, 71, 0
12, 19320, Note_on_c, 6, 71, 76
12, 19424, Note_on_c, 6, 71, 0
12, 19440, Note_on_c, 6, 71, 76
12, 19544, Note_on_c, 6, 71, 0
12, 19560, Note_on_c, 6, 71, 76
12, 19664, Note_on_c, 6, 71, 0
12, 19680, Note_on_c, 6, 71, 76
12, 19784, Note_on_c, 6, 71, 0
12, 19800, Note_on_c, 6, 71, 76
12, 19904, Note_on_c, 6, 71, 0
12, 19920, Note_on_c, 6, 71, 76
12, 20144, Note_on_c, 6, 71, 0
12, 20160, Note_on_c, 6, 71, 76
12, 20264, Note_on_c, 6, 71, 0
12, 20280, Note_on_c, 6, 71, 76
12, 20384, Note_on_c, 6, 71, 0
12, 20400, Note_on_c, 6, 72, 76
12, 20504, Note_on_c, 6, 72, 0
12, 20520, Note_on_c, 6, 66, 76
12, 20624, Note_on_c, 6, 66, 0
12, 20640, Note_on_c, 6, 69, 76
12, 20744, Note_on_c, 6, 69, 0
12, 20760, Note_on_c, 6, 67, 76
12, 20864, Note_on_c, 6, 67, 0
12, 20880, Note_on_c, 6, 71, 76
12, 20984, Note_on_c, 6, 71, 0
12, 21000, Note_on_c, 6, 71, 76
12, 21104, Note_on_c, 6, 71, 0
12, 21120, Note_on_c, 6, 64, 76
12, 21224, Note_on_c, 6, 64, 0
12, 21240, Note_on_c, 6, 71, 76
12, 21344, Note_on_c, 6, 71, 0
12, 21360, Note_on_c, 6, 71, 76
12, 21584, Note_on_c, 6, 71, 0
12, 21600, Note_on_c, 6, 73, 76
12, 21704, Note_on_c, 6, 73, 0
12, 21720, Note_on_c, 6, 66, 76
12, 21824, Note_on_c, 6, 66, 0
12, 21840, Note_on_c, 6, 71, 76
12, 21944, Note_on_c, 6, 71, 0
12, 21960, Note_on_c, 6, 70, 76
12, 22064, Note_on_c, 6, 70, 0
12, 22080, Note_on_c, 6, 73, 76
12, 22184, Note_on_c, 6, 73, 0
12, 22200, Note_on_c, 6, 66, 76
12, 22304, Note_on_c, 6, 66, 0
12, 22320, Note_on_c, 6, 66, 76
12, 22424, Note_on_c, 6, 66, 0
12, 22440, Note_on_c, 6, 66, 76
12, 22544, Note_on_c, 6, 66, 0
12, 22560, Note_on_c, 6, 66, 76
12, 22664, Note_on_c, 6, 66, 0
12, 22680, Note_on_c, 6, 67, 76
12, 22784, Note_on_c, 6, 67, 0
12, 22800, Note_on_c, 6, 66, 76
12, 22904, Note_on_c, 6, 66, 0
12, 22920, Note_on_c, 6, 71, 76
12, 23024, Note_on_c, 6, 71, 0
12, 23040, Note_on_c, 6, 67, 76
12, 23144, Note_on_c, 6, 67, 0
12, 23160, Note_on_c, 6, 66, 76
12, 23264, Note_on_c, 6, 66, 0
12, 23280, Note_on_c, 6, 71, 76
12, 23384, Note_on_c, 6, 71, 0
12, 23400, Note_on_c, 6, 66, 76
12, 23639, Note_on_c, 6, 66, 0
12, 23760, Note_on_c, 6, 66, 76
12, 23864, Note_on_c, 6, 66, 0
12, 23880, Note_on_c, 6, 66, 76
12, 23984, Note_on_c, 6, 66, 0
12, 24000, Note_on_c, 6, 66, 76
12, 24104, Note_on_c, 6, 66, 0
12, 24120, Note_on_c, 6, 66, 76
12, 24359, Note_on_c, 6, 66, 0
12, 24480, Note_on_c, 6, 66, 76
12, 24584, Note_on_c, 6, 66, 0
12, 24600, Note_on_c, 6, 70, 76
12, 24704, Note_on_c, 6, 70, 0
12, 24720, Note_on_c, 6, 73, 76
12, 24824, Note_on_c, 6, 73, 0
12, 24840, Note_on_c, 6, 74, 76
12, 25079, Note_on_c, 6, 74, 0
12, 25200, Note_on_c, 6, 64, 76
12, 25304, Note_on_c, 6, 64, 0
12, 25320, Note_on_c, 6, 64, 76
12, 25424, Note_on_c, 6, 64, 0
12, 25440, Note_on_c, 6, 66, 76
12, 25544, Note_on_c, 6, 66, 0
12, 25560, Note_on_c, 6, 68, 76
12, 25784, Note_on_c, 6, 68, 0
12, 25800, Note_on_c, 6, 66, 76
12, 25904, Note_on_c, 6, 66, 0
12, 25920, Note_on_c, 6, 70, 76
12, 26024, Note_on_c, 6, 70, 0
12, 26040, Note_on_c, 6, 71, 76
12, 26144, Note_on_c, 6, 71, 0
12, 26160, Note_on_c, 6, 73, 76
12, 26264, Note_on_c, 6, 73, 0
12, 26280, Note_on_c, 6, 66, 76
12, 26384, Note_on_c, 6, 66, 0
12, 26400, Note_on_c, 6, 66, 76
12, 26504, Note_on_c, 6, 66, 0
12, 26520, Note_on_c, 6, 64, 76
12, 26624, Note_on_c, 6, 64, 0
12, 26640, Note_on_c, 6, 64, 76
12, 26744, Note_on_c, 6, 64, 0
12, 26760, Note_on_c, 6, 62, 76
12, 26864, Note_on_c, 6, 62, 0
12, 26880, Note_on_c, 6, 67, 76
12, 26984, Note_on_c, 6, 67, 0
12, 27000, Note_on_c, 6, 66, 76
12, 27104, Note_on_c, 6, 66, 0
12, 27120, Note_on_c, 6, 66, 76
12, 27224, Note_on_c, 6, 66, 0
12, 27240, Note_on_c, 6, 66, 76
12, 27344, Note_on_c, 6, 66, 0
12, 27360, Note_on_c, 6, 66, 76
12, 27464, Note_on_c, 6, 66, 0
12, 27480, Note_on_c, 6, 73, 76
12, 27584, Note_on_c, 6, 73, 0
12, 27600, Note_on_c, 6, 66, 76
12, 27704, Note_on_c, 6, 66, 0
12, 27720, Note_on_c, 6, 64, 76
12, 27824, Note_on_c, 6, 64, 0
12, 27840, Note_on_c, 6, 62, 76
12, 27944, Note_on_c, 6, 62, 0
12, 27960, Note_on_c, 6, 62, 76
12, 28064, Note_on_c, 6, 62, 0
12, 28080, Note_on_c, 6, 64, 76
12, 28184, Note_on_c, 6, 64, 0
12, 28200, Note_on_c, 6, 64, 76
12, 28304, Note_on_c, 6, 64, 0
12, 28320, Note_on_c, 6, 64, 76
12, 28424, Note_on_c, 6, 64, 0
12, 28440, Note_on_c, 6, 62, 76
12, 28679, Note_on_c, 6, 62, 0
12, 29520, Note_on_c, 6, 66, 76
12, 29624, Note_on_c, 6, 66, 0
12, 29640, Note_on_c, 6, 66, 76
12, 29744, Note_on_c, 6, 66, 0
12, 29760, Note_on_c, 6, 66, 76
12, 29864, Note_on_c, 6, 66, 0
12, 29880, Note_on_c, 6, 62, 76
12, 29984, Note_on_c, 6, 62, 0
12, 30000, Note_on_c, 6, 62, 76
12, 30239, Note_on_c, 6, 62, 0
12, 30960, Note_on_c, 6, 68, 76
12, 31064, Note_on_c, 6, 68, 0
12, 31080, Note_on_c, 6, 68, 76
12, 31184, Note_on_c, 6, 68, 0
12, 31200, Note_on_c, 6, 68, 76
12, 31304, Note_on_c, 6, 68, 0
12, 31320, Note_on_c, 6, 64, 76
12, 31424, Note_on_c, 6, 64, 0
12, 31440, Note_on_c, 6, 64, 76
12, 31664, Note_on_c, 6, 64, 0
12, 31680, Note_on_c, 6, 64, 76
12, 31731, Note_on_c, 6, 64, 0
12, 31740, Note_on_c, 6, 62, 76
12, 31791, Note_on_c, 6, 62, 0
12, 31800, Note_on_c, 6, 66, 76
12, 31889, Note_on_c, 6, 66, 0
12, 31920, Note_on_c, 6, 64, 76
12, 32009, Note_on_c, 6, 64, 0
12, 32040, Note_on_c, 6, 62, 76
12, 32144, Note_on_c, 6, 62, 0
12, 32160, Note_on_c, 6, 64, 76
12, 32384, Note_on_c, 6, 64, 0
12, 32400, Note_on_c, 6, 73, 76
12, 32504, Note_on_c, 6, 73, 0
12, 32520, Note_on_c, 6, 69, 76
12, 32624, Note_on_c, 6, 69, 0
12, 32640, Note_on_c, 6, 73, 76
12, 32744, Note_on_c, 6, 73, 0
12, 32760, Note_on_c, 6, 69, 76
12, 32864, Note_on_c, 6, 69, 0
12, 32880, Note_on_c, 6, 64, 76
12, 33104, Note_on_c, 6, 64, 0
12, 33120, Note_on_c, 6, 69, 76
12, 33171, Note_on_c, 6, 69, 0
12, 33180, Note_on_c, 6, 67, 76
12, 33231, Note_on_c, 6, 67, 0
12, 33240, Note_on_c, 6, 70, 76
12, 33329, Note_on_c, 6, 70, 0
12, 33360, Note_on_c, 6, 69, 76
12, 33449, Note_on_c, 6, 69, 0
12, 33480, Note_on_c, 6, 67, 76
12, 33569, Note_on_c, 6, 67, 0
12, 33720, Note_on_c, 6, 69, 76
12, 33809, Note_on_c, 6, 69, 0
12, 33960, Note_on_c, 6, 65, 76
12, 34049, Note_on_c, 6, 65, 0
12, 34200, Note_on_c, 6, 67, 76
12, 34289, Note_on_c, 6, 67, 0
12, 34440, Note_on_c, 6, 64, 76
12, 34529, Note_on_c, 6, 64, 0
12, 34680, Note_on_c, 6, 65, 76
12, 34769, Note_on_c, 6, 65, 0
12, 34920, Note_on_c, 6, 65, 76
12, 35009, Note_on_c, 6, 65, 0
12, 35160, Note_on_c, 6, 65, 76
12, 35249, Note_on_c, 6, 65, 0
12, 35400, Note_on_c, 6, 65, 76
12, 35489, Note_on_c, 6, 65, 0
12, 35640, Note_on_c, 6, 62, 76
12, 35729, Note_on_c, 6, 62, 0
12, 35760, Note_on_c, 6, 64, 76
12, 35984, Note_on_c, 6, 64, 0
12, 36000, Note_on_c, 6, 64, 76
12, 36104, Note_on_c, 6, 64, 0
12, 36120, Note_on_c, 6, 62, 76
12, 36224, Note_on_c, 6, 62, 0
12, 36240, Note_on_c, 6, 69, 76
12, 36344, Note_on_c, 6, 69, 0
12, 36360, Note_on_c, 6, 69, 76
12, 36464, Note_on_c, 6, 69, 0
12, 36480, Note_on_c, 6, 69, 76
12, 36584, Note_on_c, 6, 69, 0
12, 36600, Note_on_c, 6, 69, 76
12, 36704, Note_on_c, 6, 69, 0
12, 36720, Note_on_c, 6, 69, 76
12, 36824, Note_on_c, 6, 69, 0
12, 36840, Note_on_c, 6, 69, 76
12, 36944, Note_on_c, 6, 69, 0
12, 36960, Note_on_c, 6, 69, 76
12, 37064, Note_on_c, 6, 69, 0
12, 37080, Note_on_c, 6, 69, 76
12, 37184, Note_on_c, 6, 69, 0
12, 37200, Note_on_c, 6, 68, 76
12, 37251, Note_on_c, 6, 68, 0
12, 37260, Note_on_c, 6, 69, 76
12, 37311, Note_on_c, 6, 69, 0
12, 37320, Note_on_c, 6, 71, 76
12, 37424, Note_on_c, 6, 71, 0
12, 37440, Note_on_c, 6, 71, 76
12, 37544, Note_on_c, 6, 71, 0
12, 37560, Note_on_c, 6, 71, 76
12, 37664, Note_on_c, 6, 71, 0
12, 37680, Note_on_c, 6, 68, 76
12, 37784, Note_on_c, 6, 68, 0
12, 37800, Note_on_c, 6, 64, 76
12, 38039, Note_on_c, 6, 64, 0
12, 38160, Note_on_c, 6, 69, 76
12, 38264, Note_on_c, 6, 69, 0
12, 38280, Note_on_c, 6, 69, 76
12, 38384, Note_on_c, 6, 69, 0
12, 38400, Note_on_c, 6, 69, 76
12, 38504, Note_on_c, 6, 69, 0
12, 38520, Note_on_c, 6, 69, 76
12, 38699, Note_on_c, 6, 69, 0
12, 38880, Note_on_c, 6, 69, 76
12, 38984, Note_on_c, 6, 69, 0
12, 39000, Note_on_c, 6, 71, 76
12, 39104, Note_on_c, 6, 71, 0
12, 39120, Note_on_c, 6, 64, 76
12, 39224, Note_on_c, 6, 64, 0
12, 39240, Note_on_c, 6, 66, 76
12, 39479, Note_on_c, 6, 66, 0
12, 39600, Note_on_c, 6, 62, 76
12, 39704, Note_on_c, 6, 62, 0
12, 39720, Note_on_c, 6, 64, 76
12, 39824, Note_on_c, 6, 64, 0
12, 39840, Note_on_c, 6, 69, 76
12, 39944, Note_on_c, 6, 69, 0
12, 39960, Note_on_c, 6, 71, 76
12, 40184, Note_on_c, 6, 71, 0
12, 40200, Note_on_c, 6, 69, 76
12, 40304, Note_on_c, 6, 69, 0
12, 40320, Note_on_c, 6, 64, 76
12, 40424, Note_on_c, 6, 64, 0
12, 40440, Note_on_c, 6, 71, 76
12, 40544, Note_on_c, 6, 71, 0
12, 40560, Note_on_c, 6, 69, 76
12, 40664, Note_on_c, 6, 69, 0
12, 40680, Note_on_c, 6, 69, 76
12, 40784, Note_on_c, 6, 69, 0
12, 40800, Note_on_c, 6, 69, 76
12, 40904, Note_on_c, 6, 69, 0
12, 40920, Note_on_c, 6, 67, 76
12, 41024, Note_on_c, 6, 67, 0
12, 41040, Note_on_c, 6, 66, 76
12, 41091, Note_on_c, 6, 66, 0
12, 41100, Note_on_c, 6, 64, 76
12, 41151, Note_on_c, 6, 64, 0
12, 41160, Note_on_c, 6, 62, 76
12, 41264, Note_on_c, 6, 62, 0
12, 41280, Note_on_c, 6, 67, 76
12, 41384, Note_on_c, 6, 67, 0
12, 41400, Note_on_c, 6, 64, 76
12, 41504, Note_on_c, 6, 64, 0
12, 41520, Note_on_c, 6, 69, 76
12, 41624, Note_on_c, 6, 69, 0
12, 41640, Note_on_c, 6, 69, 76
12, 41744, Note_on_c, 6, 69, 0
12, 41760, Note_on_c, 6, 69, 76
12, 41864, Note_on_c, 6, 69, 0
12, 41880, Note_on_c, 6, 67, 76
12, 41984, Note_on_c, 6, 67, 0
12, 42000, Note_on_c, 6, 66, 76
12, 42104, Note_on_c, 6, 66, 0
12, 42120, Note_on_c, 6, 66, 76
12, 42224, Note_on_c, 6, 66, 0
12, 42240, Note_on_c, 6, 67, 76
12, 42344, Note_on_c, 6, 67, 0
12, 42360, Note_on_c, 6, 62, 76
12, 42464, Note_on_c, 6, 62, 0
12, 42480, Note_on_c, 6, 64, 76
12, 42584, Note_on_c, 6, 64, 0
12, 42600, Note_on_c, 6, 66, 76
12, 42704, Note_on_c, 6, 66, 0
12, 42720, Note_on_c, 6, 67, 76
12, 42824, Note_on_c, 6, 67, 0
12, 42840, Note_on_c, 6, 66, 76
12, 43184, Note_on_c, 6, 66, 0
12, 43200, Note_on_c, 6, 69, 76
12, 43304, Note_on_c, 6, 69, 0
12, 43320, Note_on_c, 6, 69, 76
12, 43424, Note_on_c, 6, 69, 0
12, 43440, Note_on_c, 6, 69, 76
12, 43544, Note_on_c, 6, 69, 0
12, 43560, Note_on_c, 6, 69, 76
12, 43664, Note_on_c, 6, 69, 0
12, 43680, Note_on_c, 6, 69, 76
12, 43784, Note_on_c, 6, 69, 0
12, 43800, Note_on_c, 6, 69, 76
12, 43904, Note_on_c, 6, 69, 0
12, 43920, Note_on_c, 6, 69, 76
12, 44024, Note_on_c, 6, 69, 0
12, 44040, Note_on_c, 6, 69, 76
12, 44144, Note_on_c, 6, 69, 0
12, 44160, Note_on_c, 6, 69, 76
12, 44264, Note_on_c, 6, 69, 0
12, 44280, Note_on_c, 6, 69, 76
12, 44384, Note_on_c, 6, 69, 0
12, 44400, Note_on_c, 6, 69, 76
12, 44504, Note_on_c, 6, 69, 0
12, 44520, Note_on_c, 6, 69, 76
12, 44624, Note_on_c, 6, 69, 0
12, 44640, Note_on_c, 6, 69, 76
12, 44744, Note_on_c, 6, 69, 0
12, 44760, Note_on_c, 6, 69, 76
12, 44864, Note_on_c, 6, 69, 0
12, 44880, Note_on_c, 6, 67, 76
12, 44984, Note_on_c, 6, 67, 0
12, 45000, Note_on_c, 6, 66, 76
12, 45104, Note_on_c, 6, 66, 0
12, 45120, Note_on_c, 6, 71, 76
12, 45224, Note_on_c, 6, 71, 0
12, 45240, Note_on_c, 6, 71, 76
12, 45344, Note_on_c, 6, 71, 0
12, 45360, Note_on_c, 6, 71, 76
12, 45464, Note_on_c, 6, 71, 0
12, 45480, Note_on_c, 6, 71, 76
12, 45584, Note_on_c, 6, 71, 0
12, 45600, Note_on_c, 6, 71, 76
12, 45704, Note_on_c, 6, 71, 0
12, 45720, Note_on_c, 6, 71, 76
12, 45824, Note_on_c, 6, 71, 0
12, 45840, Note_on_c, 6, 71, 76
12, 46064, Note_on_c, 6, 71, 0
12, 46080, Note_on_c, 6, 71, 76
12, 46184, Note_on_c, 6, 71, 0
12, 46200, Note_on_c, 6, 71, 76
12, 46304, Note_on_c, 6, 71, 0
12, 46320, Note_on_c, 6, 72, 76
12, 46424, Note_on_c, 6, 72, 0
12, 46440, Note_on_c, 6, 66, 76
12, 46544, Note_on_c, 6, 66, 0
12, 46560, Note_on_c, 6, 69, 76
12, 46664, Note_on_c, 6, 69, 0
12, 46680, Note_on_c, 6, 67, 76
12, 46784, Note_on_c, 6, 67, 0
12, 46800, Note_on_c, 6, 71, 76
12, 46904, Note_on_c, 6, 71, 0
12, 46920, Note_on_c, 6, 71, 76
12, 47024, Note_on_c, 6, 71, 0
12, 47040, Note_on_c, 6, 64, 76
12, 47144, Note_on_c, 6, 64, 0
12, 47160, Note_on_c, 6, 71, 76
12, 47264, Note_on_c, 6, 71, 0
12, 47280, Note_on_c, 6, 71, 76
12, 47504, Note_on_c, 6, 71, 0
12, 47520, Note_on_c, 6, 73, 76
12, 47624, Note_on_c, 6, 73, 0
12, 47640, Note_on_c, 6, 66, 76
12, 47744, Note_on_c, 6, 66, 0
12, 47760, Note_on_c, 6, 71, 76
12, 47864, Note_on_c, 6, 71, 0
12, 47880, Note_on_c, 6, 70, 76
12, 47984, Note_on_c, 6, 70, 0
12, 48000, Note_on_c, 6, 73, 76
12, 48104, Note_on_c, 6, 73, 0
12, 48120, Note_on_c, 6, 66, 76
12, 48224, Note_on_c, 6, 66, 0
12, 48240, Note_on_c, 6, 66, 76
12, 48344, Note_on_c, 6, 66, 0
12, 48360, Note_on_c, 6, 66, 76
12, 48464, Note_on_c, 6, 66, 0
12, 48480, Note_on_c, 6, 66, 76
12, 48584, Note_on_c, 6, 66, 0
12, 48600, Note_on_c, 6, 67, 76
12, 48704, Note_on_c, 6, 67, 0
12, 48720, Note_on_c, 6, 66, 76
12, 48824, Note_on_c, 6, 66, 0
12, 48840, Note_on_c, 6, 71, 76
12, 48944, Note_on_c, 6, 71, 0
12, 48960, Note_on_c, 6, 67, 76
12, 49064, Note_on_c, 6, 67, 0
12, 49080, Note_on_c, 6, 66, 76
12, 49184, Note_on_c, 6, 66, 0
12, 49200, Note_on_c, 6, 71, 76
12, 49304, Note_on_c, 6, 71, 0
12, 49320, Note_on_c, 6, 66, 76
12, 49559, Note_on_c, 6, 66, 0
12, 49680, Note_on_c, 6, 66, 76
12, 49784, Note_on_c, 6, 66, 0
12, 49800, Note_on_c, 6, 66, 76
12, 49904, Note_on_c, 6, 66, 0
12, 49920, Note_on_c, 6, 66, 76
12, 50024, Note_on_c, 6, 66, 0
12, 50040, Note_on_c, 6, 66, 76
12, 50279, Note_on_c, 6, 66, 0
12, 50400, Note_on_c, 6, 66, 76
12, 50504, Note_on_c, 6, 66, 0
12, 50520, Note_on_c, 6, 70, 76
12, 50624, Note_on_c, 6, 70, 0
12, 50640, Note_on_c, 6, 73, 76
12, 50744, Note_on_c, 6, 73, 0
12, 50760, Note_on_c, 6, 74, 76
12, 50999, Note_on_c, 6, 74, 0
12, 51120, Note_on_c, 6, 64, 76
12, 51224, Note_on_c, 6, 64, 0
12, 51240, Note_on_c, 6, 64, 76
12, 51344, Note_on_c, 6, 64, 0
12, 51360, Note_on_c, 6, 66, 76
12, 51464, Note_on_c, 6, 66, 0
12, 51480, Note_on_c, 6, 68, 76
12, 51704, Note_on_c, 6, 68, 0
12, 51720, Note_on_c, 6, 66, 76
12, 51824, Note_on_c, 6, 66, 0
12, 51840, Note_on_c, 6, 70, 76
12, 51944, Note_on_c, 6, 70, 0
12, 51960, Note_on_c, 6, 71, 76
12, 52064, Note_on_c, 6, 71, 0
12, 52080, Note_on_c, 6, 73, 76
12, 52184, Note_on_c, 6, 73, 0
12, 52200, Note_on_c, 6, 66, 76
12, 52304, Note_on_c, 6, 66, 0
12, 52320, Note_on_c, 6, 66, 76
12, 52424, Note_on_c, 6, 66, 0
12, 52440, Note_on_c, 6, 64, 76
12, 52544, Note_on_c, 6, 64, 0
12, 52560, Note_on_c, 6, 64, 76
12, 52664, Note_on_c, 6, 64, 0
12, 52680, Note_on_c, 6, 62, 76
12, 52784, Note_on_c, 6, 62, 0
12, 52800, Note_on_c, 6, 67, 76
12, 52904, Note_on_c, 6, 67, 0
12, 52920, Note_on_c, 6, 66, 76
12, 53024, Note_on_c, 6, 66, 0
12, 53040, Note_on_c, 6, 66, 76
12, 53144, Note_on_c, 6, 66, 0
12, 53160, Note_on_c, 6, 66, 76
12, 53264, Note_on_c, 6, 66, 0
12, 53280, Note_on_c, 6, 66, 76
12, 53384, Note_on_c, 6, 66, 0
12, 53400, Note_on_c, 6, 73, 76
12, 53504, Note_on_c, 6, 73, 0
12, 53520, Note_on_c, 6, 66, 76
12, 53624, Note_on_c, 6, 66, 0
12, 53640, Note_on_c, 6, 64, 76
12, 53744, Note_on_c, 6, 64, 0
12, 53760, Note_on_c, 6, 62, 76
12, 53864, Note_on_c, 6, 62, 0
12, 53880, Note_on_c, 6, 62, 76
12, 53984, Note_on_c, 6, 62, 0
12, 54000, Note_on_c, 6, 64, 76
12, 54104, Note_on_c, 6, 64, 0
12, 54120, Note_on_c, 6, 64, 76
12, 54224, Note_on_c, 6, 64, 0
12, 54240, Note_on_c, 6, 64, 76
12, 54344, Note_on_c, 6, 64, 0
12, 54360, Note_on_c, 6, 62, 76
12, 54599, Note_on_c, 6, 62, 0
12, 55440, Note_on_c, 6, 66, 76
12, 55544, Note_on_c, 6, 66, 0
12, 55560, Note_on_c, 6, 66, 76
12, 55664, Note_on_c, 6, 66, 0
12, 55680, Note_on_c, 6, 66, 76
12, 55784, Note_on_c, 6, 66, 0
12, 55800, Note_on_c, 6, 62, 76
12, 55904, Note_on_c, 6, 62, 0
12, 55920, Note_on_c, 6, 62, 76
12, 56159, Note_on_c, 6, 62, 0
12, 56880, Note_on_c, 6, 68, 76
12, 56984, Note_on_c, 6, 68, 0
12, 57000, Note_on_c, 6, 68, 76
12, 57104, Note_on_c, 6, 68, 0
12, 57120, Note_on_c, 6, 68, 76
12, 57224, Note_on_c, 6, 68, 0
12, 57240, Note_on_c, 6, 64, 76
12, 57344, Note_on_c, 6, 64, 0
12, 57360, Note_on_c, 6, 64, 76
12, 57584, Note_on_c, 6, 64, 0
12, 57600, Note_on_c, 6, 64, 76
12, 57651, Note_on_c, 6, 64, 0
12, 57660, Note_on_c, 6, 62, 76
12, 57711, Note_on_c, 6, 62, 0
12, 57720, Note_on_c, 6, 66, 76
12, 57809, Note_on_c, 6, 66, 0
12, 57840, Note_on_c, 6, 64, 76
12, 57929, Note_on_c, 6, 64, 0
12, 57960, Note_on_c, 6, 62, 76
12, 58064, Note_on_c, 6, 62, 0
12, 58080, Note_on_c, 6, 64, 76
12, 58304, Note_on_c, 6, 64, 0
12, 58320, Note_on_c, 6, 73, 76
12, 58424, Note_on_c, 6, 73, 0
12, 58440, Note_on_c, 6, 69, 76
12, 58544, Note_on_c, 6, 69, 0
12, 58560, Note_on_c, 6, 73, 76
12, 58664, Note_on_c, 6, 73, 0
12, 58680, Note_on_c, 6, 69, 76
12, 58784, Note_on_c, 6, 69, 0
12, 58800, Note_on_c, 6, 64, 76
12, 59024, Note_on_c, 6, 64, 0
12, 59040, Note_on_c, 6, 69, 76
12, 59091, Note_on_c, 6, 69, 0
12, 59100, Note_on_c, 6, 67, 76
12, 59151, Note_on_c, 6, 67, 0
12, 59160, Note_on_c, 6, 70, 76
12, 59249, Note_on_c, 6, 70, 0
12, 59280, Note_on_c, 6, 69, 76
12, 59369, Note_on_c, 6, 69, 0
12, 59400, Note_on_c, 6, 67, 76
12, 59489, Note_on_c, 6, 67, 0
12, 59640, Note_on_c, 6, 69, 76
12, 59729, Note_on_c, 6, 69, 0
12, 59880, Note_on_c, 6, 65, 76
12, 59969, Note_on_c, 6, 65, 0
12, 60120, Note_on_c, 6, 67, 76
12, 60209, Note_on_c, 6, 67, 0
12, 60360, Note_on_c, 6, 64, 76
12, 60449, Note_on_c, 6, 64, 0
12, 60600, Note_on_c, 6, 65, 76
12, 60689, Note_on_c, 6, 65, 0
12, 60840, Note_on_c, 6, 65, 76
12, 60929, Note_on_c, 6, 65, 0
12, 61080, Note_on_c, 6, 65, 76
12, 61169, Note_on_c, 6, 65, 0
12, 61320, Note_on_c, 6, 65, 76
12, 61409, Note_on_c, 6, 65, 0
12, 61560, Note_on_c, 6, 62, 76
12, 61649, Note_on_c, 6, 62, 0
12, 61680, Note_on_c, 6, 64, 76
12, 61904, Note_on_c, 6, 64, 0
12, 61920, Note_on_c, 6, 64, 76
12, 62024, Note_on_c, 6, 64, 0
12, 62040, Note_on_c, 6, 62, 76
12, 62144, Note_on_c, 6, 62, 0
12, 62160, Note_on_c, 6, 69, 76
12, 62264, Note_on_c, 6, 69, 0
12, 62280, Note_on_c, 6, 69, 76
12, 62384, Note_on_c, 6, 69, 0
12, 62400, Note_on_c, 6, 69, 76
12, 62504, Note_on_c, 6, 69, 0
12, 62520, Note_on_c, 6, 69, 76
12, 62624, Note_on_c, 6, 69, 0
12, 62640, Note_on_c, 6, 69, 76
12, 62744, Note_on_c, 6, 69, 0
12, 62760, Note_on_c, 6, 69, 76
12, 62864, Note_on_c, 6, 69, 0
12, 62880, Note_on_c, 6, 69, 76
12, 62984, Note_on_c, 6, 69, 0
12, 63000, Note_on_c, 6, 69, 76
12, 63104, Note_on_c, 6, 69, 0
12, 63120, Note_on_c, 6, 68, 76
12, 63171, Note_on_c, 6, 68, 0
12, 63180, Note_on_c, 6, 69, 76
12, 63231, Note_on_c, 6, 69, 0
12, 63240, Note_on_c, 6, 71, 76
12, 63344, Note_on_c, 6, 71, 0
12, 63360, Note_on_c, 6, 71, 76
12, 63464, Note_on_c, 6, 71, 0
12, 63480, Note_on_c, 6, 71, 76
12, 63584, Note_on_c, 6, 71, 0
12, 63600, Note_on_c, 6, 68, 76
12, 63704, Note_on_c, 6, 68, 0
12, 63720, Note_on_c, 6, 64, 76
12, 63959, Note_on_c, 6, 64, 0
12, 64080, Note_on_c, 6, 69, 76
12, 64184, Note_on_c, 6, 69, 0
12, 64200, Note_on_c, 6, 69, 76
12, 64304, Note_on_c, 6, 69, 0
12, 64320, Note_on_c, 6, 69, 76
12, 64424, Note_on_c, 6, 69, 0
12, 64440, Note_on_c, 6, 69, 76
12, 64619, Note_on_c, 6, 69, 0
12, 64800, Note_on_c, 6, 69, 76
12, 64904, Note_on_c, 6, 69, 0
12, 64920, Note_on_c, 6, 71, 76
12, 65024, Note_on_c, 6, 71, 0
12, 65040, Note_on_c, 6, 64, 76
12, 65144, Note_on_c, 6, 64, 0
12, 65160, Note_on_c, 6, 66, 76
12, 65399, Note_on_c, 6, 66, 0
12, 65520, Note_on_c, 6, 62, 76
12, 65624, Note_on_c, 6, 62, 0
12, 65640, Note_on_c, 6, 64, 76
12, 65744, Note_on_c, 6, 64, 0
12, 65760, Note_on_c, 6, 69, 76
12, 65864, Note_on_c, 6, 69, 0
12, 65880, Note_on_c, 6, 71, 76
12, 66104, Note_on_c, 6, 71, 0
12, 66120, Note_on_c, 6, 69, 76
12, 66224, Note_on_c, 6, 69, 0
12, 66240, Note_on_c, 6, 64, 76
12, 66344, Note_on_c, 6, 64, 0
12, 66360, Note_on_c, 6, 71, 76
12, 66464, Note_on_c, 6, 71, 0
12, 66480, Note_on_c, 6, 69, 76
12, 66584, Note_on_c, 6, 69, 0
12, 66600, Note_on_c, 6, 69, 76
12, 66704, Note_on_c, 6, 69, 0
12, 66720, Note_on_c, 6, 69, 76
12, 66824, Note_on_c, 6, 69, 0
12, 66840, Note_on_c, 6, 67, 76
12, 66944, Note_on_c, 6, 67, 0
12, 66960, Note_on_c, 6, 66, 76
12, 67011, Note_on_c, 6, 66, 0
12, 67020, Note_on_c, 6, 64, 76
12, 67071, Note_on_c, 6, 64, 0
12, 67080, Note_on_c, 6, 62, 76
12, 67184, Note_on_c, 6, 62, 0
12, 67200, Note_on_c, 6, 67, 76
12, 67304, Note_on_c, 6, 67, 0
12, 67320, Note_on_c, 6, 64, 76
12, 67424, Note_on_c, 6, 64, 0
12, 67440, Note_on_c, 6, 69, 76
12, 67544, Note_on_c, 6, 69, 0
12, 67560, Note_on_c, 6, 69, 76
12, 67664, Note_on_c, 6, 69, 0
12, 67680, Note_on_c, 6, 69, 76
12, 67784, Note_on_c, 6, 69, 0
12, 67800, Note_on_c, 6, 67, 76
12, 67904, Note_on_c, 6, 67, 0
12, 67920, Note_on_c, 6, 66, 76
12, 68024, Note_on_c, 6, 66, 0
12, 68040, Note_on_c, 6, 66, 76
12, 68144, Note_on_c, 6, 66, 0
12, 68160, Note_on_c, 6, 67, 76
12, 68264, Note_on_c, 6, 67, 0
12, 68280, Note_on_c, 6, 62, 76
12, 68384, Note_on_c, 6, 62, 0
12, 68400, Note_on_c, 6, 64, 76
12, 68504, Note_on_c, 6, 64, 0
12, 68520, Note_on_c, 6, 66, 76
12, 68624, Note_on_c, 6, 66, 0
12, 68640, Note_on_c, 6, 67, 76
12, 68744, Note_on_c, 6, 67, 0
12, 68760, Note_on_c, 6, 66, 76
12, 69119, Note_on_c, 6, 66, 0
12, 69119, End_track
13, 0, Start_track
13, 0, Title_t, "Bassoon"
13, 0, MIDI_port, 0
13, 0, Program_c, 7, 70
13, 0, Control_c, 7, 10, 74
13, 0, Control_c, 7, 11, 127
13, 0, Control_c, 7, 7, 88
13, 0, Note_on_c, 7, 62, 76
13, 51, Note_on_c, 7, 62, 0
13, 60, Note_on_c, 7, 61, 76
13, 111, Note_on_c, 7, 61, 0
13, 120, Note_on_c, 7, 62, 76
13, 209, Note_on_c, 7, 62, 0
13, 240, Note_on_c, 7, 55, 76
13, 329, Note_on_c, 7, 55, 0
13, 360, Note_on_c, 7, 57, 76
13, 449, Note_on_c, 7, 57, 0
13, 480, Note_on_c, 7, 52, 76
13, 569, Note_on_c, 7, 52, 0
13, 600, Note_on_c, 7, 54, 76
13, 704, Note_on_c, 7, 54, 0
13, 720, Note_on_c, 7, 50, 76
13, 771, Note_on_c, 7, 50, 0
13, 780, Note_on_c, 7, 52, 76
13, 831, Note_on_c, 7, 52, 0
13, 840, Note_on_c, 7, 54, 76
13, 944, Note_on_c, 7, 54, 0
13, 960, Note_on_c, 7, 55, 76
13, 1064, Note_on_c, 7, 55, 0
13, 1080, Note_on_c, 7, 57, 76
13, 1184, Note_on_c, 7, 57, 0
13, 1200, Note_on_c, 7, 62, 76
13, 1251, Note_on_c, 7, 62, 0
13, 1260, Note_on_c, 7, 61, 76
13, 1311, Note_on_c, 7, 61, 0
13, 1320, Note_on_c, 7, 62, 76
13, 1409, Note_on_c, 7, 62, 0
13, 1440, Note_on_c, 7, 59, 76
13, 1529, Note_on_c, 7, 59, 0
13, 1560, Note_on_c, 7, 61, 76
13, 1664, Note_on_c, 7, 61, 0
13, 1680, Note_on_c, 7, 57, 76
13, 1784, Note_on_c, 7, 57, 0
13, 1800, Note_on_c, 7, 59, 76
13, 1904, Note_on_c, 7, 59, 0
13, 1920, Note_on_c, 7, 56, 76
13, 2024, Note_on_c, 7, 56, 0
13, 2040, Note_on_c, 7, 57, 76
13, 2144, Note_on_c, 7, 57, 0
13, 2160, Note_on_c, 7, 49, 76
13, 2264, Note_on_c, 7, 49, 0
13, 2280, Note_on_c, 7, 47, 76
13, 2384, Note_on_c, 7, 47, 0
13, 2400, Note_on_c, 7, 45, 76
13, 2504, Note_on_c, 7, 45, 0
13, 2520, Note_on_c, 7, 50, 76
13, 2624, Note_on_c, 7, 50, 0
13, 2640, Note_on_c, 7, 52, 76
13, 2744, Note_on_c, 7, 52, 0
13, 2760, Note_on_c, 7, 54, 76
13, 2864, Note_on_c, 7, 54, 0
13, 2880, Note_on_c, 7, 52, 76
13, 2931, Note_on_c, 7, 52, 0
13, 2940, Note_on_c, 7, 50, 76
13, 2991, Note_on_c, 7, 50, 0
13, 3000, Note_on_c, 7, 49, 76
13, 3104, Note_on_c, 7, 49, 0
13, 3120, Note_on_c, 7, 50, 76
13, 3224, Note_on_c, 7, 50, 0
13, 3240, Note_on_c, 7, 52, 76
13, 3479, Note_on_c, 7, 52, 0
13, 3600, Note_on_c, 7, 57, 76
13, 3651, Note_on_c, 7, 57, 0
13, 3660, Note_on_c, 7, 56, 76
13, 3711, Note_on_c, 7, 56, 0
13, 3720, Note_on_c, 7, 57, 76
13, 3824, Note_on_c, 7, 57, 0
13, 3840, Note_on_c, 7, 59, 76
13, 3944, Note_on_c, 7, 59, 0
13, 3960, Note_on_c, 7, 56, 76
13, 3989, Note_on_c, 7, 56, 0
13, 3990, Note_on_c, 7, 57, 76
13, 4019, Note_on_c, 7, 57, 0
13, 4020, Note_on_c, 7, 54, 76
13, 4049, Note_on_c, 7, 54, 0
13, 4050, Note_on_c, 7, 56, 76
13, 4079, Note_on_c, 7, 56, 0
13, 4080, Note_on_c, 7, 54, 76
13, 4131, Note_on_c, 7, 54, 0
13, 4140, Note_on_c, 7, 52, 76
13, 4191, Note_on_c, 7, 52, 0
13, 4200, Note_on_c, 7, 64, 76
13, 4379, Note_on_c, 7, 64, 0
13, 4440, Note_on_c, 7, 62, 76
13, 4619, Note_on_c, 7, 62, 0
13, 4800, Note_on_c, 7, 61, 76
13, 4851, Note_on_c, 7, 61, 0
13, 4860, Note_on_c, 7, 59, 76
13, 4911, Note_on_c, 7, 59, 0
13, 4920, Note_on_c, 7, 61, 76
13, 5024, Note_on_c, 7, 61, 0
13, 5040, Note_on_c, 7, 62, 76
13, 5144, Note_on_c, 7, 62, 0
13, 5160, Note_on_c, 7, 59, 76
13, 5189, Note_on_c, 7, 59, 0
13, 5190, Note_on_c, 7, 61, 76
13, 5219, Note_on_c, 7, 61, 0
13, 5220, Note_on_c, 7, 57, 76
13, 5249, Note_on_c, 7, 57, 0
13, 5250, Note_on_c, 7, 59, 76
13, 5279, Note_on_c, 7, 59, 0
13, 5280, Note_on_c, 7, 57, 76
13, 5331, Note_on_c, 7, 57, 0
13, 5340, Note_on_c, 7, 56, 76
13, 5391, Note_on_c, 7, 56, 0
13, 5400, Note_on_c, 7, 63, 76
13, 5624, Note_on_c, 7, 63, 0
13, 5640, Note_on_c, 7, 64, 76
13, 5744, Note_on_c, 7, 64, 0
13, 5760, Note_on_c, 7, 52, 76
13, 5864, Note_on_c, 7, 52, 0
13, 5880, Note_on_c, 7, 54, 76
13, 5984, Note_on_c, 7, 54, 0
13, 6000, Note_on_c, 7, 56, 76
13, 6104, Note_on_c, 7, 56, 0
13, 6120, Note_on_c, 7, 57, 76
13, 6224, Note_on_c, 7, 57, 0
13, 6240, Note_on_c, 7, 49, 76
13, 6344, Note_on_c, 7, 49, 0
13, 6360, Note_on_c, 7, 50, 76
13, 6464, Note_on_c, 7, 50, 0
13, 6480, Note_on_c, 7, 52, 76
13, 6584, Note_on_c, 7, 52, 0
13, 6600, Note_on_c, 7, 54, 76
13, 6704, Note_on_c, 7, 54, 0
13, 6720, Note_on_c, 7, 50, 76
13, 6824, Note_on_c, 7, 50, 0
13, 6840, Note_on_c, 7, 56, 76
13, 6944, Note_on_c, 7, 56, 0
13, 6960, Note_on_c, 7, 52, 76
13, 7064, Note_on_c, 7, 52, 0
13, 7080, Note_on_c, 7, 57, 76
13, 7184, Note_on_c, 7, 57, 0
13, 7200, Note_on_c, 7, 49, 76
13, 7304, Note_on_c, 7, 49, 0
13, 7320, Note_on_c, 7, 47, 76
13, 7424, Note_on_c, 7, 47, 0
13, 7440, Note_on_c, 7, 45, 76
13, 7544, Note_on_c, 7, 45, 0
13, 7560, Note_on_c, 7, 50, 76
13, 7664, Note_on_c, 7, 50, 0
13, 7680, Note_on_c, 7, 52, 76
13, 7784, Note_on_c, 7, 52, 0
13, 7800, Note_on_c, 7, 54, 76
13, 7904, Note_on_c, 7, 54, 0
13, 7920, Note_on_c, 7, 50, 76
13, 8024, Note_on_c, 7, 50, 0
13, 8040, Note_on_c, 7, 52, 76
13, 8144, Note_on_c, 7, 52, 0
13, 8160, Note_on_c, 7, 40, 76
13, 8264, Note_on_c, 7, 40, 0
13, 8280, Note_on_c, 7, 45, 76
13, 8624, Note_on_c, 7, 45, 0
13, 8640, Note_on_c, 7, 62, 76
13, 8691, Note_on_c, 7, 62, 0
13, 8700, Note_on_c, 7, 61, 76
13, 8751, Note_on_c, 7, 61, 0
13, 8760, Note_on_c, 7, 62, 76
13, 8849, Note_on_c, 7, 62, 0
13, 8880, Note_on_c, 7, 55, 76
13, 8969, Note_on_c, 7, 55, 0
13, 9000, Note_on_c, 7, 57, 76
13, 9089, Note_on_c, 7, 57, 0
13, 9120, Note_on_c, 7, 52, 76
13, 9209, Note_on_c, 7, 52, 0
13, 9240, Note_on_c, 7, 54, 76
13, 9344, Note_on_c, 7, 54, 0
13, 9360, Note_on_c, 7, 50, 76
13, 9411, Note_on_c, 7, 50, 0
13, 9420, Note_on_c, 7, 52, 76
13, 9471, Note_on_c, 7, 52, 0
13, 9480, Note_on_c, 7, 54, 76
13, 9584, Note_on_c, 7, 54, 0
13, 9600, Note_on_c, 7, 55, 76
13, 9704, Note_on_c, 7, 55, 0
13, 9720, Note_on_c, 7, 57, 76
13, 9824, Note_on_c, 7, 57, 0
13, 9840, Note_on_c, 7, 62, 76
13, 9891, Note_on_c, 7, 62, 0
13, 9900, Note_on_c, 7, 61, 76
13, 9951, Note_on_c, 7, 61, 0
13, 9960, Note_on_c, 7, 62, 76
13, 10049, Note_on_c, 7, 62, 0
13, 10080, Note_on_c, 7, 59, 76
13, 10169, Note_on_c, 7, 59, 0
13, 10200, Note_on_c, 7, 61, 76
13, 10304, Note_on_c, 7, 61, 0
13, 10320, Note_on_c, 7, 57, 76
13, 10424, Note_on_c, 7, 57, 0
13, 10440, Note_on_c, 7, 59, 76
13, 10544, Note_on_c, 7, 59, 0
13, 10560, Note_on_c, 7, 56, 76
13, 10664, Note_on_c, 7, 56, 0
13, 10680, Note_on_c, 7, 57, 76
13, 10784, Note_on_c, 7, 57, 0
13, 10800, Note_on_c, 7, 49, 76
13, 10904, Note_on_c, 7, 49, 0
13, 10920, Note_on_c, 7, 47, 76
13, 11024, Note_on_c, 7, 47, 0
13, 11040, Note_on_c, 7, 45, 76
13, 11144, Note_on_c, 7, 45, 0
13, 11160, Note_on_c, 7, 50, 76
13, 11264, Note_on_c, 7, 50, 0
13, 11280, Note_on_c, 7, 52, 76
13, 11384, Note_on_c, 7, 52, 0
13, 11400, Note_on_c, 7, 54, 76
13, 11504, Note_on_c, 7, 54, 0
13, 11520, Note_on_c, 7, 52, 76
13, 11571, Note_on_c, 7, 52, 0
13, 11580, Note_on_c, 7, 50, 76
13, 11631, Note_on_c, 7, 50, 0
13, 11640, Note_on_c, 7, 49, 76
13, 11744, Note_on_c, 7, 49, 0
13, 11760, Note_on_c, 7, 50, 76
13, 11864, Note_on_c, 7, 50, 0
13, 11880, Note_on_c, 7, 52, 76
13, 12119, Note_on_c, 7, 52, 0
13, 12240, Note_on_c, 7, 57, 76
13, 12291, Note_on_c, 7, 57, 0
13, 12300, Note_on_c, 7, 56, 76
13, 12351, Note_on_c, 7, 56, 0
13, 12360, Note_on_c, 7, 57, 76
13, 12464, Note_on_c, 7, 57, 0
13, 12480, Note_on_c, 7, 59, 76
13, 12584, Note_on_c, 7, 59, 0
13, 12600, Note_on_c, 7, 56, 76
13, 12629, Note_on_c, 7, 56, 0
13, 12630, Note_on_c, 7, 57, 76
13, 12659, Note_on_c, 7, 57, 0
13, 12660, Note_on_c, 7, 54, 76
13, 12689, Note_on_c, 7, 54, 0
13, 12690, Note_on_c, 7, 56, 76
13, 12719, Note_on_c, 7, 56, 0
13, 12720, Note_on_c, 7, 54, 76
13, 12771, Note_on_c, 7, 54, 0
13, 12780, Note_on_c, 7, 52, 76
13, 12831, Note_on_c, 7, 52, 0
13, 12840, Note_on_c, 7, 64, 76
13, 13019, Note_on_c, 7, 64, 0
13, 13080, Note_on_c, 7, 62, 76
13, 13259, Note_on_c, 7, 62, 0
13, 13440, Note_on_c, 7, 61, 76
13, 13491, Note_on_c, 7, 61, 0
13, 13500, Note_on_c, 7, 59, 76
13, 13551, Note_on_c, 7, 59, 0
13, 13560, Note_on_c, 7, 61, 76
13, 13664, Note_on_c, 7, 61, 0
13, 13680, Note_on_c, 7, 62, 76
13, 13784, Note_on_c, 7, 62, 0
13, 13800, Note_on_c, 7, 59, 76
13, 13829, Note_on_c, 7, 59, 0
13, 13830, Note_on_c, 7, 61, 76
13, 13859, Note_on_c, 7, 61, 0
13, 13860, Note_on_c, 7, 57, 76
13, 13889, Note_on_c, 7, 57, 0
13, 13890, Note_on_c, 7, 59, 76
13, 13919, Note_on_c, 7, 59, 0
13, 13920, Note_on_c, 7, 57, 76
13, 13971, Note_on_c, 7, 57, 0
13, 13980, Note_on_c, 7, 56, 76
13, 14031, Note_on_c, 7, 56, 0
13, 14040, Note_on_c, 7, 63, 76
13, 14264, Note_on_c, 7, 63, 0
13, 14280, Note_on_c, 7, 64, 76
13, 14384, Note_on_c, 7, 64, 0
13, 14400, Note_on_c, 7, 52, 76
13, 14504, Note_on_c, 7, 52, 0
13, 14520, Note_on_c, 7, 54, 76
13, 14624, Note_on_c, 7, 54, 0
13, 14640, Note_on_c, 7, 56, 76
13, 14744, Note_on_c, 7, 56, 0
13, 14760, Note_on_c, 7, 57, 76
13, 14864, Note_on_c, 7, 57, 0
13, 14880, Note_on_c, 7, 49, 76
13, 14984, Note_on_c, 7, 49, 0
13, 15000, Note_on_c, 7, 50, 76
13, 15104, Note_on_c, 7, 50, 0
13, 15120, Note_on_c, 7, 52, 76
13, 15224, Note_on_c, 7, 52, 0
13, 15240, Note_on_c, 7, 54, 76
13, 15344, Note_on_c, 7, 54, 0
13, 15360, Note_on_c, 7, 50, 76
13, 15464, Note_on_c, 7, 50, 0
13, 15480, Note_on_c, 7, 56, 76
13, 15584, Note_on_c, 7, 56, 0
13, 15600, Note_on_c, 7, 52, 76
13, 15704, Note_on_c, 7, 52, 0
13, 15720, Note_on_c, 7, 57, 76
13, 15824, Note_on_c, 7, 57, 0
13, 15840, Note_on_c, 7, 49, 76
13, 15944, Note_on_c, 7, 49, 0
13, 15960, Note_on_c, 7, 47, 76
13, 16064, Note_on_c, 7, 47, 0
13, 16080, Note_on_c, 7, 45, 76
13, 16184, Note_on_c, 7, 45, 0
13, 16200, Note_on_c, 7, 50, 76
13, 16304, Note_on_c, 7, 50, 0
13, 16320, Note_on_c, 7, 52, 76
13, 16424, Note_on_c, 7, 52, 0
13, 16440, Note_on_c, 7, 54, 76
13, 16544, Note_on_c, 7, 54, 0
13, 16560, Note_on_c, 7, 50, 76
13, 16664, Note_on_c, 7, 50, 0
13, 16680, Note_on_c, 7, 52, 76
13, 16784, Note_on_c, 7, 52, 0
13, 16800, Note_on_c, 7, 40, 76
13, 16904, Note_on_c, 7, 40, 0
13, 16920, Note_on_c, 7, 45, 76
13, 17279, Note_on_c, 7, 45, 0
13, 18000, Note_on_c, 7, 50, 76
13, 18051, Note_on_c, 7, 50, 0
13, 18060, Note_on_c, 7, 52, 76
13, 18111, Note_on_c, 7, 52, 0
13, 18120, Note_on_c, 7, 54, 76
13, 18224, Note_on_c, 7, 54, 0
13, 18240, Note_on_c, 7, 57, 76
13, 18344, Note_on_c, 7, 57, 0
13, 18360, Note_on_c, 7, 62, 76
13, 18464, Note_on_c, 7, 62, 0
13, 18480, Note_on_c, 7, 57, 76
13, 18584, Note_on_c, 7, 57, 0
13, 18600, Note_on_c, 7, 45, 76
13, 18719, Note_on_c, 7, 45, 0
13, 19440, Note_on_c, 7, 52, 76
13, 19491, Note_on_c, 7, 52, 0
13, 19500, Note_on_c, 7, 54, 76
13, 19551, Note_on_c, 7, 54, 0
13, 19560, Note_on_c, 7, 55, 76
13, 19664, Note_on_c, 7, 55, 0
13, 19680, Note_on_c, 7, 59, 76
13, 19784, Note_on_c, 7, 59, 0
13, 19800, Note_on_c, 7, 64, 76
13, 19904, Note_on_c, 7, 64, 0
13, 19920, Note_on_c, 7, 59, 76
13, 20024, Note_on_c, 7, 59, 0
13, 20040, Note_on_c, 7, 47, 76
13, 20144, Note_on_c, 7, 47, 0
13, 20160, Note_on_c, 7, 52, 76
13, 20211, Note_on_c, 7, 52, 0
13, 20220, Note_on_c, 7, 51, 76
13, 20271, Note_on_c, 7, 51, 0
13, 20280, Note_on_c, 7, 52, 76
13, 20384, Note_on_c, 7, 52, 0
13, 20400, Note_on_c, 7, 45, 76
13, 20504, Note_on_c, 7, 45, 0
13, 20520, Note_on_c, 7, 47, 76
13, 20624, Note_on_c, 7, 47, 0
13, 20640, Note_on_c, 7, 42, 76
13, 20744, Note_on_c, 7, 42, 0
13, 20760, Note_on_c, 7, 43, 76
13, 20864, Note_on_c, 7, 43, 0
13, 20880, Note_on_c, 7, 40, 76
13, 20931, Note_on_c, 7, 40, 0
13, 20940, Note_on_c, 7, 42, 76
13, 20991, Note_on_c, 7, 42, 0
13, 21000, Note_on_c, 7, 43, 76
13, 21104, Note_on_c, 7, 43, 0
13, 21120, Note_on_c, 7, 45, 76
13, 21224, Note_on_c, 7, 45, 0
13, 21240, Note_on_c, 7, 47, 76
13, 21344, Note_on_c, 7, 47, 0
13, 21360, Note_on_c, 7, 52, 76
13, 21411, Note_on_c, 7, 52, 0
13, 21420, Note_on_c, 7, 51, 76
13, 21471, Note_on_c, 7, 51, 0
13, 21480, Note_on_c, 7, 52, 76
13, 21584, Note_on_c, 7, 52, 0
13, 21600, Note_on_c, 7, 49, 76
13, 21704, Note_on_c, 7, 49, 0
13, 21720, Note_on_c, 7, 50, 76
13, 21824, Note_on_c, 7, 50, 0
13, 21840, Note_on_c, 7, 47, 76
13, 21944, Note_on_c, 7, 47, 0
13, 21960, Note_on_c, 7, 49, 76
13, 22064, Note_on_c, 7, 49, 0
13, 22080, Note_on_c, 7, 46, 76
13, 22184, Note_on_c, 7, 46, 0
13, 22200, Note_on_c, 7, 47, 76
13, 22304, Note_on_c, 7, 47, 0
13, 22320, Note_on_c, 7, 50, 76
13, 22424, Note_on_c, 7, 50, 0
13, 22440, Note_on_c, 7, 49, 76
13, 22544, Note_on_c, 7, 49, 0
13, 22560, Note_on_c, 7, 47, 76
13, 22664, Note_on_c, 7, 47, 0
13, 22680, Note_on_c, 7, 52, 76
13, 22784, Note_on_c, 7, 52, 0
13, 22800, Note_on_c, 7, 54, 76
13, 22904, Note_on_c, 7, 54, 0
13, 22920, Note_on_c, 7, 55, 76
13, 23024, Note_on_c, 7, 55, 0
13, 23040, Note_on_c, 7, 54, 76
13, 23091, Note_on_c, 7, 54, 0
13, 23100, Note_on_c, 7, 52, 76
13, 23151, Note_on_c, 7, 52, 0
13, 23160, Note_on_c, 7, 50, 76
13, 23264, Note_on_c, 7, 50, 0
13, 23280, Note_on_c, 7, 52, 76
13, 23384, Note_on_c, 7, 52, 0
13, 23400, Note_on_c, 7, 54, 76
13, 23639, Note_on_c, 7, 54, 0
13, 23760, Note_on_c, 7, 47, 76
13, 23811, Note_on_c, 7, 47, 0
13, 23820, Note_on_c, 7, 46, 76
13, 23871, Note_on_c, 7, 46, 0
13, 23880, Note_on_c, 7, 47, 76
13, 23984, Note_on_c, 7, 47, 0
13, 24000, Note_on_c, 7, 49, 76
13, 24104, Note_on_c, 7, 49, 0
13, 24120, Note_on_c, 7, 46, 76
13, 24149, Note_on_c, 7, 46, 0
13, 24150, Note_on_c, 7, 47, 76
13, 24179, Note_on_c, 7, 47, 0
13, 24180, Note_on_c, 7, 44, 76
13, 24209, Note_on_c, 7, 44, 0
13, 24210, Note_on_c, 7, 46, 76
13, 24239, Note_on_c, 7, 46, 0
13, 24240, Note_on_c, 7, 44, 76
13, 24291, Note_on_c, 7, 44, 0
13, 24300, Note_on_c, 7, 42, 76
13, 24351, Note_on_c, 7, 42, 0
13, 24360, Note_on_c, 7, 54, 76
13, 24539, Note_on_c, 7, 54, 0
13, 24600, Note_on_c, 7, 52, 76
13, 24779, Note_on_c, 7, 52, 0
13, 24960, Note_on_c, 7, 50, 76
13, 25011, Note_on_c, 7, 50, 0
13, 25020, Note_on_c, 7, 49, 76
13, 25071, Note_on_c, 7, 49, 0
13, 25080, Note_on_c, 7, 50, 76
13, 25184, Note_on_c, 7, 50, 0
13, 25200, Note_on_c, 7, 52, 76
13, 25304, Note_on_c, 7, 52, 0
13, 25320, Note_on_c, 7, 49, 76
13, 25349, Note_on_c, 7, 49, 0
13, 25350, Note_on_c, 7, 50, 76
13, 25379, Note_on_c, 7, 50, 0
13, 25380, Note_on_c, 7, 47, 76
13, 25409, Note_on_c, 7, 47, 0
13, 25410, Note_on_c, 7, 49, 76
13, 25439, Note_on_c, 7, 49, 0
13, 25440, Note_on_c, 7, 47, 76
13, 25491, Note_on_c, 7, 47, 0
13, 25500, Note_on_c, 7, 46, 76
13, 25551, Note_on_c, 7, 46, 0
13, 25560, Note_on_c, 7, 53, 76
13, 25784, Note_on_c, 7, 53, 0
13, 25800, Note_on_c, 7, 54, 76
13, 25904, Note_on_c, 7, 54, 0
13, 25920, Note_on_c, 7, 42, 76
13, 26024, Note_on_c, 7, 42, 0
13, 26040, Note_on_c, 7, 44, 76
13, 26144, Note_on_c, 7, 44, 0
13, 26160, Note_on_c, 7, 46, 76
13, 26264, Note_on_c, 7, 46, 0
13, 26280, Note_on_c, 7, 47, 76
13, 26384, Note_on_c, 7, 47, 0
13, 26400, Note_on_c, 7, 50, 76
13, 26504, Note_on_c, 7, 50, 0
13, 26520, Note_on_c, 7, 52, 76
13, 26624, Note_on_c, 7, 52, 0
13, 26640, Note_on_c, 7, 54, 76
13, 26744, Note_on_c, 7, 54, 0
13, 26760, Note_on_c, 7, 55, 76
13, 26864, Note_on_c, 7, 55, 0
13, 26880, Note_on_c, 7, 52, 76
13, 26984, Note_on_c, 7, 52, 0
13, 27000, Note_on_c, 7, 58, 76
13, 27104, Note_on_c, 7, 58, 0
13, 27120, Note_on_c, 7, 54, 76
13, 27224, Note_on_c, 7, 54, 0
13, 27240, Note_on_c, 7, 59, 76
13, 27344, Note_on_c, 7, 59, 0
13, 27360, Note_on_c, 7, 50, 76
13, 27464, Note_on_c, 7, 50, 0
13, 27480, Note_on_c, 7, 49, 76
13, 27584, Note_on_c, 7, 49, 0
13, 27600, Note_on_c, 7, 47, 76
13, 27704, Note_on_c, 7, 47, 0
13, 27720, Note_on_c, 7, 52, 76
13, 27824, Note_on_c, 7, 52, 0
13, 27840, Note_on_c, 7, 54, 76
13, 27944, Note_on_c, 7, 54, 0
13, 27960, Note_on_c, 7, 55, 76
13, 28064, Note_on_c, 7, 55, 0
13, 28080, Note_on_c, 7, 52, 76
13, 28184, Note_on_c, 7, 52, 0
13, 28200, Note_on_c, 7, 54, 76
13, 28304, Note_on_c, 7, 54, 0
13, 28320, Note_on_c, 7, 42, 76
13, 28424, Note_on_c, 7, 42, 0
13, 28440, Note_on_c, 7, 47, 76
13, 28679, Note_on_c, 7, 47, 0
13, 29520, Note_on_c, 7, 50, 76
13, 29624, Note_on_c, 7, 50, 0
13, 29640, Note_on_c, 7, 62, 76
13, 29744, Note_on_c, 7, 62, 0
13, 29760, Note_on_c, 7, 50, 76
13, 29864, Note_on_c, 7, 50, 0
13, 29880, Note_on_c, 7, 55, 76
13, 29984, Note_on_c, 7, 55, 0
13, 30000, Note_on_c, 7, 50, 76
13, 30104, Note_on_c, 7, 50, 0
13, 30120, Note_on_c, 7, 43, 76
13, 30239, Note_on_c, 7, 43, 0
13, 30960, Note_on_c, 7, 52, 76
13, 31064, Note_on_c, 7, 52, 0
13, 31080, Note_on_c, 7, 64, 76
13, 31184, Note_on_c, 7, 64, 0
13, 31200, Note_on_c, 7, 52, 76
13, 31304, Note_on_c, 7, 52, 0
13, 31320, Note_on_c, 7, 57, 76
13, 31424, Note_on_c, 7, 57, 0
13, 31440, Note_on_c, 7, 52, 76
13, 31544, Note_on_c, 7, 52, 0
13, 31560, Note_on_c, 7, 45, 76
13, 31664, Note_on_c, 7, 45, 0
13, 31680, Note_on_c, 7, 45, 76
13, 31784, Note_on_c, 7, 45, 0
13, 31800, Note_on_c, 7, 45, 76
13, 31904, Note_on_c, 7, 45, 0
13, 31920, Note_on_c, 7, 45, 76
13, 32024, Note_on_c, 7, 45, 0
13, 32040, Note_on_c, 7, 45, 76
13, 32144, Note_on_c, 7, 45, 0
13, 32160, Note_on_c, 7, 45, 76
13, 32264, Note_on_c, 7, 45, 0
13, 32280, Note_on_c, 7, 45, 76
13, 32384, Note_on_c, 7, 45, 0
13, 32400, Note_on_c, 7, 45, 76
13, 32504, Note_on_c, 7, 45, 0
13, 32520, Note_on_c, 7, 45, 76
13, 32624, Note_on_c, 7, 45, 0
13, 32640, Note_on_c, 7, 45, 76
13, 32744, Note_on_c, 7, 45, 0
13, 32760, Note_on_c, 7, 45, 76
13, 32864, Note_on_c, 7, 45, 0
13, 32880, Note_on_c, 7, 45, 76
13, 32984, Note_on_c, 7, 45, 0
13, 33000, Note_on_c, 7, 45, 76
13, 33104, Note_on_c, 7, 45, 0
13, 33120, Note_on_c, 7, 45, 76
13, 33224, Note_on_c, 7, 45, 0
13, 33240, Note_on_c, 7, 45, 76
13, 33344, Note_on_c, 7, 45, 0
13, 33360, Note_on_c, 7, 45, 76
13, 33464, Note_on_c, 7, 45, 0
13, 33480, Note_on_c, 7, 45, 76
13, 35744, Note_on_c, 7, 45, 0
13, 35760, Note_on_c, 7, 57, 76
13, 35811, Note_on_c, 7, 57, 0
13, 35820, Note_on_c, 7, 56, 76
13, 35871, Note_on_c, 7, 56, 0
13, 35880, Note_on_c, 7, 57, 76
13, 35984, Note_on_c, 7, 57, 0
13, 36000, Note_on_c, 7, 45, 76
13, 36104, Note_on_c, 7, 45, 0
13, 36120, Note_on_c, 7, 47, 76
13, 36224, Note_on_c, 7, 47, 0
13, 36240, Note_on_c, 7, 49, 76
13, 36344, Note_on_c, 7, 49, 0
13, 36360, Note_on_c, 7, 50, 76
13, 36464, Note_on_c, 7, 50, 0
13, 36480, Note_on_c, 7, 54, 76
13, 36584, Note_on_c, 7, 54, 0
13, 36600, Note_on_c, 7, 52, 76
13, 36704, Note_on_c, 7, 52, 0
13, 36720, Note_on_c, 7, 50, 76
13, 36824, Note_on_c, 7, 50, 0
13, 36840, Note_on_c, 7, 57, 76
13, 36944, Note_on_c, 7, 57, 0
13, 36960, Note_on_c, 7, 45, 76
13, 37064, Note_on_c, 7, 45, 0
13, 37080, Note_on_c, 7, 47, 76
13, 37319, Note_on_c, 7, 47, 0
13, 37440, Note_on_c, 7, 49, 76
13, 37491, Note_on_c, 7, 49, 0
13, 37500, Note_on_c, 7, 50, 76
13, 37551, Note_on_c, 7, 50, 0
13, 37560, Note_on_c, 7, 52, 76
13, 37664, Note_on_c, 7, 52, 0
13, 37680, Note_on_c, 7, 40, 76
13, 37784, Note_on_c, 7, 40, 0
13, 37800, Note_on_c, 7, 45, 76
13, 38039, Note_on_c, 7, 45, 0
13, 38160, Note_on_c, 7, 50, 76
13, 38211, Note_on_c, 7, 50, 0
13, 38220, Note_on_c, 7, 49, 76
13, 38271, Note_on_c, 7, 49, 0
13, 38280, Note_on_c, 7, 50, 76
13, 38384, Note_on_c, 7, 50, 0
13, 38400, Note_on_c, 7, 52, 76
13, 38504, Note_on_c, 7, 52, 0
13, 38520, Note_on_c, 7, 49, 76
13, 38549, Note_on_c, 7, 49, 0
13, 38550, Note_on_c, 7, 50, 76
13, 38579, Note_on_c, 7, 50, 0
13, 38580, Note_on_c, 7, 47, 76
13, 38609, Note_on_c, 7, 47, 0
13, 38610, Note_on_c, 7, 49, 76
13, 38639, Note_on_c, 7, 49, 0
13, 38640, Note_on_c, 7, 47, 76
13, 38691, Note_on_c, 7, 47, 0
13, 38700, Note_on_c, 7, 45, 76
13, 38751, Note_on_c, 7, 45, 0
13, 38760, Note_on_c, 7, 57, 76
13, 38939, Note_on_c, 7, 57, 0
13, 39000, Note_on_c, 7, 55, 76
13, 39179, Note_on_c, 7, 55, 0
13, 39360, Note_on_c, 7, 54, 76
13, 39411, Note_on_c, 7, 54, 0
13, 39420, Note_on_c, 7, 52, 76
13, 39471, Note_on_c, 7, 52, 0
13, 39480, Note_on_c, 7, 54, 76
13, 39584, Note_on_c, 7, 54, 0
13, 39600, Note_on_c, 7, 55, 76
13, 39704, Note_on_c, 7, 55, 0
13, 39720, Note_on_c, 7, 52, 76
13, 39824, Note_on_c, 7, 52, 0
13, 39840, Note_on_c, 7, 50, 76
13, 39891, Note_on_c, 7, 50, 0
13, 39900, Note_on_c, 7, 49, 76
13, 39951, Note_on_c, 7, 49, 0
13, 39960, Note_on_c, 7, 56, 76
13, 40139, Note_on_c, 7, 56, 0
13, 40200, Note_on_c, 7, 57, 76
13, 40304, Note_on_c, 7, 57, 0
13, 40320, Note_on_c, 7, 45, 76
13, 40424, Note_on_c, 7, 45, 0
13, 40440, Note_on_c, 7, 47, 76
13, 40544, Note_on_c, 7, 47, 0
13, 40560, Note_on_c, 7, 49, 76
13, 40664, Note_on_c, 7, 49, 0
13, 40680, Note_on_c, 7, 50, 76
13, 40784, Note_on_c, 7, 50, 0
13, 40800, Note_on_c, 7, 54, 76
13, 40904, Note_on_c, 7, 54, 0
13, 40920, Note_on_c, 7, 55, 76
13, 41024, Note_on_c, 7, 55, 0
13, 41040, Note_on_c, 7, 57, 76
13, 41144, Note_on_c, 7, 57, 0
13, 41160, Note_on_c, 7, 59, 76
13, 41264, Note_on_c, 7, 59, 0
13, 41280, Note_on_c, 7, 55, 76
13, 41384, Note_on_c, 7, 55, 0
13, 41400, Note_on_c, 7, 61, 76
13, 41504, Note_on_c, 7, 61, 0
13, 41520, Note_on_c, 7, 57, 76
13, 41624, Note_on_c, 7, 57, 0
13, 41640, Note_on_c, 7, 62, 76
13, 41744, Note_on_c, 7, 62, 0
13, 41760, Note_on_c, 7, 54, 76
13, 41864, Note_on_c, 7, 54, 0
13, 41880, Note_on_c, 7, 52, 76
13, 41984, Note_on_c, 7, 52, 0
13, 42000, Note_on_c, 7, 50, 76
13, 42104, Note_on_c, 7, 50, 0
13, 42120, Note_on_c, 7, 59, 76
13, 42224, Note_on_c, 7, 59, 0
13, 42240, Note_on_c, 7, 52, 76
13, 42344, Note_on_c, 7, 52, 0
13, 42360, Note_on_c, 7, 54, 76
13, 42464, Note_on_c, 7, 54, 0
13, 42480, Note_on_c, 7, 55, 76
13, 42584, Note_on_c, 7, 55, 0
13, 42600, Note_on_c, 7, 57, 76
13, 42704, Note_on_c, 7, 57, 0
13, 42720, Note_on_c, 7, 45, 76
13, 42824, Note_on_c, 7, 45, 0
13, 42840, Note_on_c, 7, 50, 76
13, 43199, Note_on_c, 7, 50, 0
13, 43920, Note_on_c, 7, 50, 76
13, 43971, Note_on_c, 7, 50, 0
13, 43980, Note_on_c, 7, 52, 76
13, 44031, Note_on_c, 7, 52, 0
13, 44040, Note_on_c, 7, 54, 76
13, 44144, Note_on_c, 7, 54, 0
13, 44160, Note_on_c, 7, 57, 76
13, 44264, Note_on_c, 7, 57, 0
13, 44280, Note_on_c, 7, 62, 76
13, 44384, Note_on_c, 7, 62, 0
13, 44400, Note_on_c, 7, 57, 76
13, 44504, Note_on_c, 7, 57, 0
13, 44520, Note_on_c, 7, 45, 76
13, 44639, Note_on_c, 7, 45, 0
13, 45360, Note_on_c, 7, 52, 76
13, 45411, Note_on_c, 7, 52, 0
13, 45420, Note_on_c, 7, 54, 76
13, 45471, Note_on_c, 7, 54, 0
13, 45480, Note_on_c, 7, 55, 76
13, 45584, Note_on_c, 7, 55, 0
13, 45600, Note_on_c, 7, 59, 76
13, 45704, Note_on_c, 7, 59, 0
13, 45720, Note_on_c, 7, 64, 76
13, 45824, Note_on_c, 7, 64, 0
13, 45840, Note_on_c, 7, 59, 76
13, 45944, Note_on_c, 7, 59, 0
13, 45960, Note_on_c, 7, 47, 76
13, 46064, Note_on_c, 7, 47, 0
13, 46080, Note_on_c, 7, 52, 76
13, 46131, Note_on_c, 7, 52, 0
13, 46140, Note_on_c, 7, 51, 76
13, 46191, Note_on_c, 7, 51, 0
13, 46200, Note_on_c, 7, 52, 76
13, 46304, Note_on_c, 7, 52, 0
13, 46320, Note_on_c, 7, 45, 76
13, 46424, Note_on_c, 7, 45, 0
13, 46440, Note_on_c, 7, 47, 76
13, 46544, Note_on_c, 7, 47, 0
13, 46560, Note_on_c, 7, 42, 76
13, 46664, Note_on_c, 7, 42, 0
13, 46680, Note_on_c, 7, 43, 76
13, 46784, Note_on_c, 7, 43, 0
13, 46800, Note_on_c, 7, 40, 76
13, 46851, Note_on_c, 7, 40, 0
13, 46860, Note_on_c, 7, 42, 76
13, 46911, Note_on_c, 7, 42, 0
13, 46920, Note_on_c, 7, 43, 76
13, 47024, Note_on_c, 7, 43, 0
13, 47040, Note_on_c, 7, 45, 76
13, 47144, Note_on_c, 7, 45, 0
13, 47160, Note_on_c, 7, 47, 76
13, 47264, Note_on_c, 7, 47, 0
13, 47280, Note_on_c, 7, 52, 76
13, 47331, Note_on_c, 7, 52, 0
13, 47340, Note_on_c, 7, 51, 76
13, 47391, Note_on_c, 7, 51, 0
13, 47400, Note_on_c, 7, 52, 76
13, 47504, Note_on_c, 7, 52, 0
13, 47520, Note_on_c, 7, 49, 76
13, 47624, Note_on_c, 7, 49, 0
13, 47640, Note_on_c, 7, 50, 76
13, 47744, Note_on_c, 7, 50, 0
13, 47760, Note_on_c, 7, 47, 76
13, 47864, Note_on_c, 7, 47, 0
13, 47880, Note_on_c, 7, 49, 76
13, 47984, Note_on_c, 7, 49, 0
13, 48000, Note_on_c, 7, 46, 76
13, 48104, Note_on_c, 7, 46, 0
13, 48120, Note_on_c, 7, 47, 76
13, 48224, Note_on_c, 7, 47, 0
13, 48240, Note_on_c, 7, 50, 76
13, 48344, Note_on_c, 7, 50, 0
13, 48360, Note_on_c, 7, 49, 76
13, 48464, Note_on_c, 7, 49, 0
13, 48480, Note_on_c, 7, 47, 76
13, 48584, Note_on_c, 7, 47, 0
13, 48600, Note_on_c, 7, 52, 76
13, 48704, Note_on_c, 7, 52, 0
13, 48720, Note_on_c, 7, 54, 76
13, 48824, Note_on_c, 7, 54, 0
13, 48840, Note_on_c, 7, 55, 76
13, 48944, Note_on_c, 7, 55, 0
13, 48960, Note_on_c, 7, 54, 76
13, 49011, Note_on_c, 7, 54, 0
13, 49020, Note_on_c, 7, 52, 76
13, 49071, Note_on_c, 7, 52, 0
13, 49080, Note_on_c, 7, 50, 76
13, 49184, Note_on_c, 7, 50, 0
13, 49200, Note_on_c, 7, 52, 76
13, 49304, Note_on_c, 7, 52, 0
13, 49320, Note_on_c, 7, 54, 76
13, 49559, Note_on_c, 7, 54, 0
13, 49680, Note_on_c, 7, 47, 76
13, 49731, Note_on_c, 7, 47, 0
13, 49740, Note_on_c, 7, 46, 76
13, 49791, Note_on_c, 7, 46, 0
13, 49800, Note_on_c, 7, 47, 76
13, 49904, Note_on_c, 7, 47, 0
13, 49920, Note_on_c, 7, 49, 76
13, 50024, Note_on_c, 7, 49, 0
13, 50040, Note_on_c, 7, 46, 76
13, 50069, Note_on_c, 7, 46, 0
13, 50070, Note_on_c, 7, 47, 76
13, 50099, Note_on_c, 7, 47, 0
13, 50100, Note_on_c, 7, 44, 76
13, 50129, Note_on_c, 7, 44, 0
13, 50130, Note_on_c, 7, 46, 76
13, 50159, Note_on_c, 7, 46, 0
13, 50160, Note_on_c, 7, 44, 76
13, 50211, Note_on_c, 7, 44, 0
13, 50220, Note_on_c, 7, 42, 76
13, 50271, Note_on_c, 7, 42, 0
13, 50280, Note_on_c, 7, 54, 76
13, 50459, Note_on_c, 7, 54, 0
13, 50520, Note_on_c, 7, 52, 76
13, 50699, Note_on_c, 7, 52, 0
13, 50880, Note_on_c, 7, 50, 76
13, 50931, Note_on_c, 7, 50, 0
13, 50940, Note_on_c, 7, 49, 76
13, 50991, Note_on_c, 7, 49, 0
13, 51000, Note_on_c, 7, 50, 76
13, 51104, Note_on_c, 7, 50, 0
13, 51120, Note_on_c, 7, 52, 76
13, 51224, Note_on_c, 7, 52, 0
13, 51240, Note_on_c, 7, 49, 76
13, 51269, Note_on_c, 7, 49, 0
13, 51270, Note_on_c, 7, 50, 76
13, 51299, Note_on_c, 7, 50, 0
13, 51300, Note_on_c, 7, 47, 76
13, 51329, Note_on_c, 7, 47, 0
13, 51330, Note_on_c, 7, 49, 76
13, 51359, Note_on_c, 7, 49, 0
13, 51360, Note_on_c, 7, 47, 76
13, 51411, Note_on_c, 7, 47, 0
13, 51420, Note_on_c, 7, 46, 76
13, 51471, Note_on_c, 7, 46, 0
13, 51480, Note_on_c, 7, 53, 76
13, 51704, Note_on_c, 7, 53, 0
13, 51720, Note_on_c, 7, 54, 76
13, 51824, Note_on_c, 7, 54, 0
13, 51840, Note_on_c, 7, 42, 76
13, 51944, Note_on_c, 7, 42, 0
13, 51960, Note_on_c, 7, 44, 76
13, 52064, Note_on_c, 7, 44, 0
13, 52080, Note_on_c, 7, 46, 76
13, 52184, Note_on_c, 7, 46, 0
13, 52200, Note_on_c, 7, 47, 76
13, 52304, Note_on_c, 7, 47, 0
13, 52320, Note_on_c, 7, 50, 76
13, 52424, Note_on_c, 7, 50, 0
13, 52440, Note_on_c, 7, 52, 76
13, 52544, Note_on_c, 7, 52, 0
13, 52560, Note_on_c, 7, 54, 76
13, 52664, Note_on_c, 7, 54, 0
13, 52680, Note_on_c, 7, 55, 76
13, 52784, Note_on_c, 7, 55, 0
13, 52800, Note_on_c, 7, 52, 76
13, 52904, Note_on_c, 7, 52, 0
13, 52920, Note_on_c, 7, 58, 76
13, 53024, Note_on_c, 7, 58, 0
13, 53040, Note_on_c, 7, 54, 76
13, 53144, Note_on_c, 7, 54, 0
13, 53160, Note_on_c, 7, 59, 76
13, 53264, Note_on_c, 7, 59, 0
13, 53280, Note_on_c, 7, 50, 76
13, 53384, Note_on_c, 7, 50, 0
13, 53400, Note_on_c, 7, 49, 76
13, 53504, Note_on_c, 7, 49, 0
13, 53520, Note_on_c, 7, 47, 76
13, 53624, Note_on_c, 7, 47, 0
13, 53640, Note_on_c, 7, 52, 76
13, 53744, Note_on_c, 7, 52, 0
13, 53760, Note_on_c, 7, 54, 76
13, 53864, Note_on_c, 7, 54, 0
13, 53880, Note_on_c, 7, 55, 76
13, 53984, Note_on_c, 7, 55, 0
13, 54000, Note_on_c, 7, 52, 76
13, 54104, Note_on_c, 7, 52, 0
13, 54120, Note_on_c, 7, 54, 76
13, 54224, Note_on_c, 7, 54, 0
13, 54240, Note_on_c, 7, 42, 76
13, 54344, Note_on_c, 7, 42, 0
13, 54360, Note_on_c, 7, 47, 76
13, 54599, Note_on_c, 7, 47, 0
13, 55440, Note_on_c, 7, 50, 76
13, 55544, Note_on_c, 7, 50, 0
13, 55560, Note_on_c, 7, 62, 76
13, 55664, Note_on_c, 7, 62, 0
13, 55680, Note_on_c, 7, 50, 76
13, 55784, Note_on_c, 7, 50, 0
13, 55800, Note_on_c, 7, 55, 76
13, 55904, Note_on_c, 7, 55, 0
13, 55920, Note_on_c, 7, 50, 76
13, 56024, Note_on_c, 7, 50, 0
13, 56040, Note_on_c, 7, 43, 76
13, 56159, Note_on_c, 7, 43, 0
13, 56880, Note_on_c, 7, 52, 76
13, 56984, Note_on_c, 7, 52, 0
13, 57000, Note_on_c, 7, 64, 76
13, 57104, Note_on_c, 7, 64, 0
13, 57120, Note_on_c, 7, 52, 76
13, 57224, Note_on_c, 7, 52, 0
13, 57240, Note_on_c, 7, 57, 76
13, 57344, Note_on_c, 7, 57, 0
13, 57360, Note_on_c, 7, 52, 76
13, 57464, Note_on_c, 7, 52, 0
13, 57480, Note_on_c, 7, 45, 76
13, 57584, Note_on_c, 7, 45, 0
13, 57600, Note_on_c, 7, 45, 76
13, 57704, Note_on_c, 7, 45, 0
13, 57720, Note_on_c, 7, 45, 76
13, 57824, Note_on_c, 7, 45, 0
13, 57840, Note_on_c, 7, 45, 76
13, 57944, Note_on_c, 7, 45, 0
13, 57960, Note_on_c, 7, 45, 76
13, 58064, Note_on_c, 7, 45, 0
13, 58080, Note_on_c, 7, 45, 76
13, 58184, Note_on_c, 7, 45, 0
13, 58200, Note_on_c, 7, 45, 76
13, 58304, Note_on_c, 7, 45, 0
13, 58320, Note_on_c, 7, 45, 76
13, 58424, Note_on_c, 7, 45, 0
13, 58440, Note_on_c, 7, 45, 76
13, 58544, Note_on_c, 7, 45, 0
13, 58560, Note_on_c, 7, 45, 76
13, 58664, Note_on_c, 7, 45, 0
13, 58680, Note_on_c, 7, 45, 76
13, 58784, Note_on_c, 7, 45, 0
13, 58800, Note_on_c, 7, 45, 76
13, 58904, Note_on_c, 7, 45, 0
13, 58920, Note_on_c, 7, 45, 76
13, 59024, Note_on_c, 7, 45, 0
13, 59040, Note_on_c, 7, 45, 76
13, 59144, Note_on_c, 7, 45, 0
13, 59160, Note_on_c, 7, 45, 76
13, 59264, Note_on_c, 7, 45, 0
13, 59280, Note_on_c, 7, 45, 76
13, 59384, Note_on_c, 7, 45, 0
13, 59400, Note_on_c, 7, 45, 76
13, 61664, Note_on_c, 7, 45, 0
13, 61680, Note_on_c, 7, 57, 76
13, 61731, Note_on_c, 7, 57, 0
13, 61740, Note_on_c, 7, 56, 76
13, 61791, Note_on_c, 7, 56, 0
13, 61800, Note_on_c, 7, 57, 76
13, 61904, Note_on_c, 7, 57, 0
13, 61920, Note_on_c, 7, 45, 76
13, 62024, Note_on_c, 7, 45, 0
13, 62040, Note_on_c, 7, 47, 76
13, 62144, Note_on_c, 7, 47, 0
13, 62160, Note_on_c, 7, 49, 76
13, 62264, Note_on_c, 7, 49, 0
13, 62280, Note_on_c, 7, 50, 76
13, 62384, Note_on_c, 7, 50, 0
13, 62400, Note_on_c, 7, 54, 76
13, 62504, Note_on_c, 7, 54, 0
13, 62520, Note_on_c, 7, 52, 76
13, 62624, Note_on_c, 7, 52, 0
13, 62640, Note_on_c, 7, 50, 76
13, 62744, Note_on_c, 7, 50, 0
13, 62760, Note_on_c, 7, 57, 76
13, 62864, Note_on_c, 7, 57, 0
13, 62880, Note_on_c, 7, 45, 76
13, 62984, Note_on_c, 7, 45, 0
13, 63000, Note_on_c, 7, 47, 76
13, 63239, Note_on_c, 7, 47, 0
13, 63360, Note_on_c, 7, 49, 76
13, 63411, Note_on_c, 7, 49, 0
13, 63420, Note_on_c, 7, 50, 76
13, 63471, Note_on_c, 7, 50, 0
13, 63480, Note_on_c, 7, 52, 76
13, 63584, Note_on_c, 7, 52, 0
13, 63600, Note_on_c, 7, 40, 76
13, 63704, Note_on_c, 7, 40, 0
13, 63720, Note_on_c, 7, 45, 76
13, 63959, Note_on_c, 7, 45, 0
13, 64080, Note_on_c, 7, 50, 76
13, 64131, Note_on_c, 7, 50, 0
13, 64140, Note_on_c, 7, 49, 76
13, 64191, Note_on_c, 7, 49, 0
13, 64200, Note_on_c, 7, 50, 76
13, 64304, Note_on_c, 7, 50, 0
13, 64320, Note_on_c, 7, 52, 76
13, 64424, Note_on_c, 7, 52, 0
13, 64440, Note_on_c, 7, 49, 76
13, 64469, Note_on_c, 7, 49, 0
13, 64470, Note_on_c, 7, 50, 76
13, 64499, Note_on_c, 7, 50, 0
13, 64500, Note_on_c, 7, 47, 76
13, 64529, Note_on_c, 7, 47, 0
13, 64530, Note_on_c, 7, 49, 76
13, 64559, Note_on_c, 7, 49, 0
13, 64560, Note_on_c, 7, 47, 76
13, 64611, Note_on_c, 7, 47, 0
13, 64620, Note_on_c, 7, 45, 76
13, 64671, Note_on_c, 7, 45, 0
13, 64680, Note_on_c, 7, 57, 76
13, 64859, Note_on_c, 7, 57, 0
13, 64920, Note_on_c, 7, 55, 76
13, 65099, Note_on_c, 7, 55, 0
13, 65280, Note_on_c, 7, 54, 76
13, 65331, Note_on_c, 7, 54, 0
13, 65340, Note_on_c, 7, 52, 76
13, 65391, Note_on_c, 7, 52, 0
13, 65400, Note_on_c, 7, 54, 76
13, 65504, Note_on_c, 7, 54, 0
13, 65520, Note_on_c, 7, 55, 76
13, 65624, Note_on_c, 7, 55, 0
13, 65640, Note_on_c, 7, 52, 76
13, 65744, Note_on_c, 7, 52, 0
13, 65760, Note_on_c, 7, 50, 76
13, 65811, Note_on_c, 7, 50, 0
13, 65820, Note_on_c, 7, 49, 76
13, 65871, Note_on_c, 7, 49, 0
13, 65880, Note_on_c, 7, 56, 76
13, 66059, Note_on_c, 7, 56, 0
13, 66120, Note_on_c, 7, 57, 76
13, 66224, Note_on_c, 7, 57, 0
13, 66240, Note_on_c, 7, 45, 76
13, 66344, Note_on_c, 7, 45, 0
13, 66360, Note_on_c, 7, 47, 76
13, 66464, Note_on_c, 7, 47, 0
13, 66480, Note_on_c, 7, 49, 76
13, 66584, Note_on_c, 7, 49, 0
13, 66600, Note_on_c, 7, 50, 76
13, 66704, Note_on_c, 7, 50, 0
13, 66720, Note_on_c, 7, 54, 76
13, 66824, Note_on_c, 7, 54, 0
13, 66840, Note_on_c, 7, 55, 76
13, 66944, Note_on_c, 7, 55, 0
13, 66960, Note_on_c, 7, 57, 76
13, 67064, Note_on_c, 7, 57, 0
13, 67080, Note_on_c, 7, 59, 76
13, 67184, Note_on_c, 7, 59, 0
13, 67200, Note_on_c, 7, 55, 76
13, 67304, Note_on_c, 7, 55, 0
13, 67320, Note_on_c, 7, 61, 76
13, 67424, Note_on_c, 7, 61, 0
13, 67440, Note_on_c, 7, 57, 76
13, 67544, Note_on_c, 7, 57, 0
13, 67560, Note_on_c, 7, 62, 76
13, 67664, Note_on_c, 7, 62, 0
13, 67680, Note_on_c, 7, 54, 76
13, 67784, Note_on_c, 7, 54, 0
13, 67800, Note_on_c, 7, 52, 76
13, 67904, Note_on_c, 7, 52, 0
13, 67920, Note_on_c, 7, 50, 76
13, 68024, Note_on_c, 7, 50, 0
13, 68040, Note_on_c, 7, 59, 76
13, 68144, Note_on_c, 7, 59, 0
13, 68160, Note_on_c, 7, 52, 76
13, 68264, Note_on_c, 7, 52, 0
13, 68280, Note_on_c, 7, 54, 76
13, 68384, Note_on_c, 7, 54, 0
13, 68400, Note_on_c, 7, 55, 76
13, 68504, Note_on_c, 7, 55, 0
13, 68520, Note_on_c, 7, 57, 76
13, 68624, Note_on_c, 7, 57, 0
13, 68640, Note_on_c, 7, 45, 76
13, 68744, Note_on_c, 7, 45, 0
13, 68760, Note_on_c, 7, 50, 76
13, 69119, Note_on_c, 7, 50, 0
13, 69119, End_track
14, 0, Start_track
14, 0, Title_t, "Violin I"
14, 0, MIDI_port, 0
14, 0, Program_c, 10, 48
14, 0, Control_c, 10, 10, 48
14, 0, Control_c, 10, 11, 127
14, 0, Control_c, 10, 7, 96
14, 0, Note_on_c, 10, 78, 76
14, 51, Note_on_c, 10, 78, 0
14, 60, Note_on_c, 10, 76, 76
14, 111, Note_on_c, 10, 76, 0
14, 120, Note_on_c, 10, 78, 76
14, 209, Note_on_c, 10, 78, 0
14, 240, Note_on_c, 10, 79, 76
14, 329, Note_on_c, 10, 79, 0
14, 360, Note_on_c, 10, 76, 76
14, 389, Note_on_c, 10, 76, 0
14, 390, Note_on_c, 10, 78, 76
14, 419, Note_on_c, 10, 78, 0
14, 420, Note_on_c, 10, 74, 76
14, 449, Note_on_c, 10, 74, 0
14, 450, Note_on_c, 10, 76, 76
14, 479, Note_on_c, 10, 76, 0
14, 480, Note_on_c, 10, 74, 76
14, 531, Note_on_c, 10, 74, 0
14, 540, Note_on_c, 10, 73, 76
14, 591, Note_on_c, 10, 73, 0
14, 600, Note_on_c, 10, 74, 76
14, 651, Note_on_c, 10, 74, 0
14, 660, Note_on_c, 10, 76, 76
14, 711, Note_on_c, 10, 76, 0
14, 720, Note_on_c, 10, 78, 76
14, 771, Note_on_c, 10, 78, 0
14, 780, Note_on_c, 10, 79, 76
14, 831, Note_on_c, 10, 79, 0
14, 840, Note_on_c, 10, 81, 76
14, 929, Note_on_c, 10, 81, 0
14, 960, Note_on_c, 10, 83, 76
14, 1049, Note_on_c, 10, 83, 0
14, 1080, Note_on_c, 10, 79, 76
14, 1109, Note_on_c, 10, 79, 0
14, 1110, Note_on_c, 10, 81, 76
14, 1139, Note_on_c, 10, 81, 0
14, 1140, Note_on_c, 10, 78, 76
14, 1169, Note_on_c, 10, 78, 0
14, 1170, Note_on_c, 10, 79, 76
14, 1199, Note_on_c, 10, 79, 0
14, 1200, Note_on_c, 10, 78, 76
14, 1424, Note_on_c, 10, 78, 0
14, 1440, Note_on_c, 10, 76, 76
14, 1491, Note_on_c, 10, 76, 0
14, 1500, Note_on_c, 10, 74, 76
14, 1551, Note_on_c, 10, 74, 0
14, 1560, Note_on_c, 10, 76, 76
14, 1611, Note_on_c, 10, 76, 0
14, 1620, Note_on_c, 10, 78, 76
14, 1671, Note_on_c, 10, 78, 0
14, 1680, Note_on_c, 10, 78, 76
14, 1799, Note_on_c, 10, 78, 0
14, 1800, Note_on_c, 10, 74, 76
14, 1829, Note_on_c, 10, 74, 0
14, 1830, Note_on_c, 10, 76, 76
14, 1859, Note_on_c, 10, 76, 0
14, 1860, Note_on_c, 10, 73, 76
14, 1889, Note_on_c, 10, 73, 0
14, 1890, Note_on_c, 10, 74, 76
14, 1919, Note_on_c, 10, 74, 0
14, 1920, Note_on_c, 10, 73, 76
14, 1979, Note_on_c, 10, 73, 0
14, 1980, Note_on_c, 10, 71, 76
14, 2031, Note_on_c, 10, 71, 0
14, 2040, Note_on_c, 10, 73, 76
14, 2091, Note_on_c, 10, 73, 0
14, 2100, Note_on_c, 10, 74, 76
14, 2151, Note_on_c, 10, 74, 0
14, 2160, Note_on_c, 10, 76, 76
14, 2211, Note_on_c, 10, 76, 0
14, 2220, Note_on_c, 10, 78, 76
14, 2271, Note_on_c, 10, 78, 0
14, 2280, Note_on_c, 10, 80, 76
14, 2369, Note_on_c, 10, 80, 0
14, 2400, Note_on_c, 10, 81, 76
14, 2489, Note_on_c, 10, 81, 0
14, 2520, Note_on_c, 10, 71, 76
14, 2549, Note_on_c, 10, 71, 0
14, 2550, Note_on_c, 10, 73, 76
14, 2579, Note_on_c, 10, 73, 0
14, 2580, Note_on_c, 10, 69, 76
14, 2609, Note_on_c, 10, 69, 0
14, 2610, Note_on_c, 10, 71, 76
14, 2639, Note_on_c, 10, 71, 0
14, 2640, Note_on_c, 10, 69, 76
14, 2691, Note_on_c, 10, 69, 0
14, 2700, Note_on_c, 10, 68, 76
14, 2751, Note_on_c, 10, 68, 0
14, 2760, Note_on_c, 10, 69, 76
14, 2811, Note_on_c, 10, 69, 0
14, 2820, Note_on_c, 10, 71, 76
14, 2871, Note_on_c, 10, 71, 0
14, 2880, Note_on_c, 10, 73, 76
14, 2931, Note_on_c, 10, 73, 0
14, 2940, Note_on_c, 10, 74, 76
14, 2991, Note_on_c, 10, 74, 0
14, 3000, Note_on_c, 10, 76, 76
14, 3089, Note_on_c, 10, 76, 0
14, 3120, Note_on_c, 10, 78, 76
14, 3209, Note_on_c, 10, 78, 0
14, 3240, Note_on_c, 10, 68, 76
14, 3269, Note_on_c, 10, 68, 0
14, 3270, Note_on_c, 10, 69, 76
14, 3299, Note_on_c, 10, 69, 0
14, 3300, Note_on_c, 10, 66, 76
14, 3329, Note_on_c, 10, 66, 0
14, 3330, Note_on_c, 10, 68, 76
14, 3359, Note_on_c, 10, 68, 0
14, 3360, Note_on_c, 10, 66, 76
14, 3411, Note_on_c, 10, 66, 0
14, 3420, Note_on_c, 10, 64, 76
14, 3471, Note_on_c, 10, 64, 0
14, 3480, Note_on_c, 10, 74, 76
14, 3659, Note_on_c, 10, 74, 0
14, 3720, Note_on_c, 10, 73, 76
14, 3899, Note_on_c, 10, 73, 0
14, 4080, Note_on_c, 10, 74, 76
14, 4184, Note_on_c, 10, 74, 0
14, 4200, Note_on_c, 10, 71, 76
14, 4229, Note_on_c, 10, 71, 0
14, 4230, Note_on_c, 10, 73, 76
14, 4259, Note_on_c, 10, 73, 0
14, 4260, Note_on_c, 10, 69, 76
14, 4289, Note_on_c, 10, 69, 0
14, 4290, Note_on_c, 10, 71, 76
14, 4319, Note_on_c, 10, 71, 0
14, 4320, Note_on_c, 10, 69, 76
14, 4371, Note_on_c, 10, 69, 0
14, 4380, Note_on_c, 10, 68, 76
14, 4431, Note_on_c, 10, 68, 0
14, 4440, Note_on_c, 10, 78, 76
14, 4619, Note_on_c, 10, 78, 0
14, 4680, Note_on_c, 10, 76, 76
14, 4859, Note_on_c, 10, 76, 0
14, 5040, Note_on_c, 10, 78, 76
14, 5144, Note_on_c, 10, 78, 0
14, 5160, Note_on_c, 10, 74, 76
14, 5189, Note_on_c, 10, 74, 0
14, 5190, Note_on_c, 10, 76, 76
14, 5219, Note_on_c, 10, 76, 0
14, 5220, Note_on_c, 10, 73, 76
14, 5249, Note_on_c, 10, 73, 0
14, 5250, Note_on_c, 10, 74, 76
14, 5279, Note_on_c, 10, 74, 0
14, 5280, Note_on_c, 10, 73, 76
14, 5331, Note_on_c, 10, 73, 0
14, 5340, Note_on_c, 10, 71, 76
14, 5391, Note_on_c, 10, 71, 0
14, 5400, Note_on_c, 10, 81, 76
14, 5579, Note_on_c, 10, 81, 0
14, 5640, Note_on_c, 10, 80, 76
14, 5744, Note_on_c, 10, 80, 0
14, 5760, Note_on_c, 10, 81, 76
14, 5811, Note_on_c, 10, 81, 0
14, 5820, Note_on_c, 10, 83, 76
14, 5871, Note_on_c, 10, 83, 0
14, 5880, Note_on_c, 10, 76, 76
14, 5984, Note_on_c, 10, 76, 0
14, 6000, Note_on_c, 10, 74, 76
14, 6104, Note_on_c, 10, 74, 0
14, 6120, Note_on_c, 10, 73, 76
14, 6149, Note_on_c, 10, 73, 0
14, 6150, Note_on_c, 10, 74, 76
14, 6179, Note_on_c, 10, 74, 0
14, 6180, Note_on_c, 10, 71, 76
14, 6209, Note_on_c, 10, 71, 0
14, 6210, Note_on_c, 10, 73, 76
14, 6239, Note_on_c, 10, 73, 0
14, 6240, Note_on_c, 10, 71, 76
14, 6291, Note_on_c, 10, 71, 0
14, 6300, Note_on_c, 10, 69, 76
14, 6351, Note_on_c, 10, 69, 0
14, 6360, Note_on_c, 10, 71, 76
14, 6464, Note_on_c, 10, 71, 0
14, 6480, Note_on_c, 10, 81, 76
14, 6531, Note_on_c, 10, 81, 0
14, 6540, Note_on_c, 10, 80, 76
14, 6591, Note_on_c, 10, 80, 0
14, 6600, Note_on_c, 10, 81, 76
14, 6704, Note_on_c, 10, 81, 0
14, 6720, Note_on_c, 10, 83, 76
14, 6824, Note_on_c, 10, 83, 0
14, 6840, Note_on_c, 10, 74, 76
14, 6869, Note_on_c, 10, 74, 0
14, 6870, Note_on_c, 10, 76, 76
14, 6899, Note_on_c, 10, 76, 0
14, 6900, Note_on_c, 10, 73, 76
14, 6929, Note_on_c, 10, 73, 0
14, 6930, Note_on_c, 10, 74, 76
14, 6959, Note_on_c, 10, 74, 0
14, 6960, Note_on_c, 10, 73, 76
14, 7011, Note_on_c, 10, 73, 0
14, 7020, Note_on_c, 10, 71, 76
14, 7071, Note_on_c, 10, 71, 0
14, 7080, Note_on_c, 10, 73, 76
14, 7131, Note_on_c, 10, 73, 0
14, 7140, Note_on_c, 10, 74, 76
14, 7191, Note_on_c, 10, 74, 0
14, 7200, Note_on_c, 10, 76, 76
14, 7251, Note_on_c, 10, 76, 0
14, 7260, Note_on_c, 10, 78, 76
14, 7311, Note_on_c, 10, 78, 0
14, 7320, Note_on_c, 10, 80, 76
14, 7424, Note_on_c, 10, 80, 0
14, 7440, Note_on_c, 10, 81, 76
14, 7544, Note_on_c, 10, 81, 0
14, 7560, Note_on_c, 10, 71, 76
14, 7589, Note_on_c, 10, 71, 0
14, 7590, Note_on_c, 10, 73, 76
14, 7619, Note_on_c, 10, 73, 0
14, 7620, Note_on_c, 10, 69, 76
14, 7649, Note_on_c, 10, 69, 0
14, 7650, Note_on_c, 10, 71, 76
14, 7679, Note_on_c, 10, 71, 0
14, 7680, Note_on_c, 10, 69, 76
14, 7731, Note_on_c, 10, 69, 0
14, 7740, Note_on_c, 10, 68, 76
14, 7791, Note_on_c, 10, 68, 0
14, 7800, Note_on_c, 10, 69, 76
14, 7904, Note_on_c, 10, 69, 0
14, 7920, Note_on_c, 10, 71, 76
14, 8024, Note_on_c, 10, 71, 0
14, 8040, Note_on_c, 10, 64, 76
14, 8144, Note_on_c, 10, 64, 0
14, 8160, Note_on_c, 10, 68, 76
14, 8264, Note_on_c, 10, 68, 0
14, 8280, Note_on_c, 10, 69, 76
14, 8624, Note_on_c, 10, 69, 0
14, 8640, Note_on_c, 10, 78, 76
14, 8691, Note_on_c, 10, 78, 0
14, 8700, Note_on_c, 10, 76, 76
14, 8751, Note_on_c, 10, 76, 0
14, 8760, Note_on_c, 10, 78, 76
14, 8849, Note_on_c, 10, 78, 0
14, 8880, Note_on_c, 10, 79, 76
14, 8969, Note_on_c, 10, 79, 0
14, 9000, Note_on_c, 10, 76, 76
14, 9029, Note_on_c, 10, 76, 0
14, 9030, Note_on_c, 10, 78, 76
14, 9059, Note_on_c, 10, 78, 0
14, 9060, Note_on_c, 10, 74, 76
14, 9089, Note_on_c, 10, 74, 0
14, 9090, Note_on_c, 10, 76, 76
14, 9119, Note_on_c, 10, 76, 0
14, 9120, Note_on_c, 10, 74, 76
14, 9171, Note_on_c, 10, 74, 0
14, 9180, Note_on_c, 10, 73, 76
14, 9231, Note_on_c, 10, 73, 0
14, 9240, Note_on_c, 10, 74, 76
14, 9291, Note_on_c, 10, 74, 0
14, 9300, Note_on_c, 10, 76, 76
14, 9351, Note_on_c, 10, 76, 0
14, 9360, Note_on_c, 10, 78, 76
14, 9411, Note_on_c, 10, 78, 0
14, 9420, Note_on_c, 10, 79, 76
14, 9471, Note_on_c, 10, 79, 0
14, 9480, Note_on_c, 10, 81, 76
14, 9569, Note_on_c, 10, 81, 0
14, 9600, Note_on_c, 10, 83, 76
14, 9689, Note_on_c, 10, 83, 0
14, 9720, Note_on_c, 10, 79, 76
14, 9749, Note_on_c, 10, 79, 0
14, 9750, Note_on_c, 10, 81, 76
14, 9779, Note_on_c, 10, 81, 0
14, 9780, Note_on_c, 10, 78, 76
14, 9809, Note_on_c, 10, 78, 0
14, 9810, Note_on_c, 10, 79, 76
14, 9839, Note_on_c, 10, 79, 0
14, 9840, Note_on_c, 10, 78, 76
14, 10064, Note_on_c, 10, 78, 0
14, 10080, Note_on_c, 10, 76, 76
14, 10131, Note_on_c, 10, 76, 0
14, 10140, Note_on_c, 10, 74, 76
14, 10191, Note_on_c, 10, 74, 0
14, 10200, Note_on_c, 10, 76, 76
14, 10251, Note_on_c, 10, 76, 0
14, 10260, Note_on_c, 10, 78, 76
14, 10311, Note_on_c, 10, 78, 0
14, 10320, Note_on_c, 10, 78, 76
14, 10439, Note_on_c, 10, 78, 0
14, 10440, Note_on_c, 10, 74, 76
14, 10469, Note_on_c, 10, 74, 0
14, 10470, Note_on_c, 10, 76, 76
14, 10499, Note_on_c, 10, 76, 0
14, 10500, Note_on_c, 10, 73, 76
14, 10529, Note_on_c, 10, 73, 0
14, 10530, Note_on_c, 10, 74, 76
14, 10559, Note_on_c, 10, 74, 0
14, 10560, Note_on_c, 10, 73, 76
14, 10619, Note_on_c, 10, 73, 0
14, 10620, Note_on_c, 10, 71, 76
14, 10671, Note_on_c, 10, 71, 0
14, 10680, Note_on_c, 10, 73, 76
14, 10731, Note_on_c, 10, 73, 0
14, 10740, Note_on_c, 10, 74, 76
14, 10791, Note_on_c, 10, 74, 0
14, 10800, Note_on_c, 10, 76, 76
14, 10851, Note_on_c, 10, 76, 0
14, 10860, Note_on_c, 10, 78, 76
14, 10911, Note_on_c, 10, 78, 0
14, 10920, Note_on_c, 10, 80, 76
14, 11009, Note_on_c, 10, 80, 0
14, 11040, Note_on_c, 10, 81, 76
14, 11129, Note_on_c, 10, 81, 0
14, 11160, Note_on_c, 10, 71, 76
14, 11189, Note_on_c, 10, 71, 0
14, 11190, Note_on_c, 10, 73, 76
14, 11219, Note_on_c, 10, 73, 0
14, 11220, Note_on_c, 10, 69, 76
14, 11249, Note_on_c, 10, 69, 0
14, 11250, Note_on_c, 10, 71, 76
14, 11279, Note_on_c, 10, 71, 0
14, 11280, Note_on_c, 10, 69, 76
14, 11331, Note_on_c, 10, 69, 0
14, 11340, Note_on_c, 10, 68, 76
14, 11391, Note_on_c, 10, 68, 0
14, 11400, Note_on_c, 10, 69, 76
14, 11451, Note_on_c, 10, 69, 0
14, 11460, Note_on_c, 10, 71, 76
14, 11511, Note_on_c, 10, 71, 0
14, 11520, Note_on_c, 10, 73, 76
14, 11571, Note_on_c, 10, 73, 0
14, 11580, Note_on_c, 10, 74, 76
14, 11631, Note_on_c, 10, 74, 0
14, 11640, Note_on_c, 10, 76, 76
14, 11729, Note_on_c, 10, 76, 0
14, 11760, Note_on_c, 10, 78, 76
14, 11849, Note_on_c, 10, 78, 0
14, 11880, Note_on_c, 10, 68, 76
14, 11909, Note_on_c, 10, 68, 0
14, 11910, Note_on_c, 10, 69, 76
14, 11939, Note_on_c, 10, 69, 0
14, 11940, Note_on_c, 10, 66, 76
14, 11969, Note_on_c, 10, 66, 0
14, 11970, Note_on_c, 10, 68, 76
14, 11999, Note_on_c, 10, 68, 0
14, 12000, Note_on_c, 10, 66, 76
14, 12051, Note_on_c, 10, 66, 0
14, 12060, Note_on_c, 10, 64, 76
14, 12111, Note_on_c, 10, 64, 0
14, 12120, Note_on_c, 10, 74, 76
14, 12299, Note_on_c, 10, 74, 0
14, 12360, Note_on_c, 10, 73, 76
14, 12539, Note_on_c, 10, 73, 0
14, 12720, Note_on_c, 10, 74, 76
14, 12824, Note_on_c, 10, 74, 0
14, 12840, Note_on_c, 10, 71, 76
14, 12869, Note_on_c, 10, 71, 0
14, 12870, Note_on_c, 10, 73, 76
14, 12899, Note_on_c, 10, 73, 0
14, 12900, Note_on_c, 10, 69, 76
14, 12929, Note_on_c, 10, 69, 0
14, 12930, Note_on_c, 10, 71, 76
14, 12959, Note_on_c, 10, 71, 0
14, 12960, Note_on_c, 10, 69, 76
14, 13011, Note_on_c, 10, 69, 0
14, 13020, Note_on_c, 10, 68, 76
14, 13071, Note_on_c, 10, 68, 0
14, 13080, Note_on_c, 10, 78, 76
14, 13259, Note_on_c, 10, 78, 0
14, 13320, Note_on_c, 10, 76, 76
14, 13499, Note_on_c, 10, 76, 0
14, 13680, Note_on_c, 10, 78, 76
14, 13784, Note_on_c, 10, 78, 0
14, 13800, Note_on_c, 10, 74, 76
14, 13829, Note_on_c, 10, 74, 0
14, 13830, Note_on_c, 10, 76, 76
14, 13859, Note_on_c, 10, 76, 0
14, 13860, Note_on_c, 10, 73, 76
14, 13889, Note_on_c, 10, 73, 0
14, 13890, Note_on_c, 10, 74, 76
14, 13919, Note_on_c, 10, 74, 0
14, 13920, Note_on_c, 10, 73, 76
14, 13971, Note_on_c, 10, 73, 0
14, 13980, Note_on_c, 10, 71, 76
14, 14031, Note_on_c, 10, 71, 0
14, 14040, Note_on_c, 10, 81, 76
14, 14219, Note_on_c, 10, 81, 0
14, 14280, Note_on_c, 10, 80, 76
14, 14384, Note_on_c, 10, 80, 0
14, 14400, Note_on_c, 10, 81, 76
14, 14451, Note_on_c, 10, 81, 0
14, 14460, Note_on_c, 10, 83, 76
14, 14511, Note_on_c, 10, 83, 0
14, 14520, Note_on_c, 10, 76, 76
14, 14624, Note_on_c, 10, 76, 0
14, 14640, Note_on_c, 10, 74, 76
14, 14744, Note_on_c, 10, 74, 0
14, 14760, Note_on_c, 10, 73, 76
14, 14789, Note_on_c, 10, 73, 0
14, 14790, Note_on_c, 10, 74, 76
14, 14819, Note_on_c, 10, 74, 0
14, 14820, Note_on_c, 10, 71, 76
14, 14849, Note_on_c, 10, 71, 0
14, 14850, Note_on_c, 10, 73, 76
14, 14879, Note_on_c, 10, 73, 0
14, 14880, Note_on_c, 10, 71, 76
14, 14931, Note_on_c, 10, 71, 0
14, 14940, Note_on_c, 10, 69, 76
14, 14991, Note_on_c, 10, 69, 0
14, 15000, Note_on_c, 10, 71, 76
14, 15104, Note_on_c, 10, 71, 0
14, 15120, Note_on_c, 10, 81, 76
14, 15171, Note_on_c, 10, 81, 0
14, 15180, Note_on_c, 10, 80, 76
14, 15231, Note_on_c, 10, 80, 0
14, 15240, Note_on_c, 10, 81, 76
14, 15344, Note_on_c, 10, 81, 0
14, 15360, Note_on_c, 10, 83, 76
14, 15464, Note_on_c, 10, 83, 0
14, 15480, Note_on_c, 10, 74, 76
14, 15509, Note_on_c, 10, 74, 0
14, 15510, Note_on_c, 10, 76, 76
14, 15539, Note_on_c, 10, 76, 0
14, 15540, Note_on_c, 10, 73, 76
14, 15569, Note_on_c, 10, 73, 0
14, 15570, Note_on_c, 10, 74, 76
14, 15599, Note_on_c, 10, 74, 0
14, 15600, Note_on_c, 10, 73, 76
14, 15651, Note_on_c, 10, 73, 0
14, 15660, Note_on_c, 10, 71, 76
14, 15711, Note_on_c, 10, 71, 0
14, 15720, Note_on_c, 10, 73, 76
14, 15771, Note_on_c, 10, 73, 0
14, 15780, Note_on_c, 10, 74, 76
14, 15831, Note_on_c, 10, 74, 0
14, 15840, Note_on_c, 10, 76, 76
14, 15891, Note_on_c, 10, 76, 0
14, 15900, Note_on_c, 10, 78, 76
14, 15951, Note_on_c, 10, 78, 0
14, 15960, Note_on_c, 10, 80, 76
14, 16064, Note_on_c, 10, 80, 0
14, 16080, Note_on_c, 10, 81, 76
14, 16184, Note_on_c, 10, 81, 0
14, 16200, Note_on_c, 10, 71, 76
14, 16229, Note_on_c, 10, 71, 0
14, 16230, Note_on_c, 10, 73, 76
14, 16259, Note_on_c, 10, 73, 0
14, 16260, Note_on_c, 10, 69, 76
14, 16289, Note_on_c, 10, 69, 0
14, 16290, Note_on_c, 10, 71, 76
14, 16319, Note_on_c, 10, 71, 0
14, 16320, Note_on_c, 10, 69, 76
14, 16371, Note_on_c, 10, 69, 0
14, 16380, Note_on_c, 10, 68, 76
14, 16431, Note_on_c, 10, 68, 0
14, 16440, Note_on_c, 10, 69, 76
14, 16544, Note_on_c, 10, 69, 0
14, 16560, Note_on_c, 10, 71, 76
14, 16664, Note_on_c, 10, 71, 0
14, 16680, Note_on_c, 10, 64, 76
14, 16784, Note_on_c, 10, 64, 0
14, 16800, Note_on_c, 10, 68, 76
14, 16904, Note_on_c, 10, 68, 0
14, 16920, Note_on_c, 10, 69, 76
14, 17279, Note_on_c, 10, 69, 0
14, 18000, Note_on_c, 10, 81, 76
14, 18104, Note_on_c, 10, 81, 0
14, 18120, Note_on_c, 10, 74, 76
14, 18224, Note_on_c, 10, 74, 0
14, 18240, Note_on_c, 10, 76, 76
14, 18344, Note_on_c, 10, 76, 0
14, 18360, Note_on_c, 10, 78, 76
14, 18389, Note_on_c, 10, 78, 0
14, 18390, Note_on_c, 10, 79, 76
14, 18419, Note_on_c, 10, 79, 0
14, 18420, Note_on_c, 10, 76, 76
14, 18449, Note_on_c, 10, 76, 0
14, 18450, Note_on_c, 10, 78, 76
14, 18479, Note_on_c, 10, 78, 0
14, 18480, Note_on_c, 10, 76, 76
14, 18719, Note_on_c, 10, 76, 0
14, 19440, Note_on_c, 10, 83, 76
14, 19544, Note_on_c, 10, 83, 0
14, 19560, Note_on_c, 10, 76, 76
14, 19664, Note_on_c, 10, 76, 0
14, 19680, Note_on_c, 10, 78, 76
14, 19784, Note_on_c, 10, 78, 0
14, 19800, Note_on_c, 10, 79, 76
14, 19829, Note_on_c, 10, 79, 0
14, 19830, Note_on_c, 10, 81, 76
14, 19859, Note_on_c, 10, 81, 0
14, 19860, Note_on_c, 10, 78, 76
14, 19889, Note_on_c, 10, 78, 0
14, 19890, Note_on_c, 10, 79, 76
14, 19919, Note_on_c, 10, 79, 0
14, 19920, Note_on_c, 10, 78, 76
14, 20144, Note_on_c, 10, 78, 0
14, 20160, Note_on_c, 10, 79, 76
14, 20211, Note_on_c, 10, 79, 0
14, 20220, Note_on_c, 10, 78, 76
14, 20271, Note_on_c, 10, 78, 0
14, 20280, Note_on_c, 10, 79, 76
14, 20384, Note_on_c, 10, 79, 0
14, 20400, Note_on_c, 10, 81, 76
14, 20504, Note_on_c, 10, 81, 0
14, 20520, Note_on_c, 10, 78, 76
14, 20624, Note_on_c, 10, 78, 0
14, 20640, Note_on_c, 10, 76, 76
14, 20691, Note_on_c, 10, 76, 0
14, 20700, Note_on_c, 10, 75, 76
14, 20751, Note_on_c, 10, 75, 0
14, 20760, Note_on_c, 10, 76, 76
14, 20811, Note_on_c, 10, 76, 0
14, 20820, Note_on_c, 10, 78, 76
14, 20871, Note_on_c, 10, 78, 0
14, 20880, Note_on_c, 10, 79, 76
14, 20931, Note_on_c, 10, 79, 0
14, 20940, Note_on_c, 10, 81, 76
14, 20991, Note_on_c, 10, 81, 0
14, 21000, Note_on_c, 10, 83, 76
14, 21104, Note_on_c, 10, 83, 0
14, 21120, Note_on_c, 10, 84, 76
14, 21224, Note_on_c, 10, 84, 0
14, 21240, Note_on_c, 10, 81, 76
14, 21269, Note_on_c, 10, 81, 0
14, 21270, Note_on_c, 10, 83, 76
14, 21299, Note_on_c, 10, 83, 0
14, 21300, Note_on_c, 10, 79, 76
14, 21329, Note_on_c, 10, 79, 0
14, 21330, Note_on_c, 10, 81, 76
14, 21359, Note_on_c, 10, 81, 0
14, 21360, Note_on_c, 10, 79, 76
14, 21584, Note_on_c, 10, 79, 0
14, 21600, Note_on_c, 10, 78, 76
14, 21651, Note_on_c, 10, 78, 0
14, 21660, Note_on_c, 10, 76, 76
14, 21711, Note_on_c, 10, 76, 0
14, 21720, Note_on_c, 10, 78, 76
14, 21824, Note_on_c, 10, 78, 0
14, 21840, Note_on_c, 10, 79, 76
14, 21944, Note_on_c, 10, 79, 0
14, 21960, Note_on_c, 10, 76, 76
14, 21989, Note_on_c, 10, 76, 0
14, 21990, Note_on_c, 10, 78, 76
14, 22019, Note_on_c, 10, 78, 0
14, 22020, Note_on_c, 10, 74, 76
14, 22049, Note_on_c, 10, 74, 0
14, 22050, Note_on_c, 10, 76, 76
14, 22079, Note_on_c, 10, 76, 0
14, 22080, Note_on_c, 10, 74, 76
14, 22131, Note_on_c, 10, 74, 0
14, 22140, Note_on_c, 10, 73, 76
14, 22191, Note_on_c, 10, 73, 0
14, 22200, Note_on_c, 10, 74, 76
14, 22251, Note_on_c, 10, 74, 0
14, 22260, Note_on_c, 10, 76, 76
14, 22311, Note_on_c, 10, 76, 0
14, 22320, Note_on_c, 10, 78, 76
14, 22371, Note_on_c, 10, 78, 0
14, 22380, Note_on_c, 10, 80, 76
14, 22431, Note_on_c, 10, 80, 0
14, 22440, Note_on_c, 10, 82, 76
14, 22544, Note_on_c, 10, 82, 0
14, 22560, Note_on_c, 10, 83, 76
14, 22664, Note_on_c, 10, 83, 0
14, 22680, Note_on_c, 10, 73, 76
14, 22709, Note_on_c, 10, 73, 0
14, 22710, Note_on_c, 10, 74, 76
14, 22739, Note_on_c, 10, 74, 0
14, 22740, Note_on_c, 10, 71, 76
14, 22769, Note_on_c, 10, 71, 0
14, 22770, Note_on_c, 10, 73, 76
14, 22799, Note_on_c, 10, 73, 0
14, 22800, Note_on_c, 10, 71, 76
14, 22851, Note_on_c, 10, 71, 0
14, 22860, Note_on_c, 10, 70, 76
14, 22911, Note_on_c, 10, 70, 0
14, 22920, Note_on_c, 10, 71, 76
14, 22971, Note_on_c, 10, 71, 0
14, 22980, Note_on_c, 10, 73, 76
14, 23031, Note_on_c, 10, 73, 0
14, 23040, Note_on_c, 10, 74, 76
14, 23091, Note_on_c, 10, 74, 0
14, 23100, Note_on_c, 10, 76, 76
14, 23151, Note_on_c, 10, 76, 0
14, 23160, Note_on_c, 10, 78, 76
14, 23264, Note_on_c, 10, 78, 0
14, 23280, Note_on_c, 10, 79, 76
14, 23384, Note_on_c, 10, 79, 0
14, 23400, Note_on_c, 10, 70, 76
14, 23429, Note_on_c, 10, 70, 0
14, 23430, Note_on_c, 10, 71, 76
14, 23459, Note_on_c, 10, 71, 0
14, 23460, Note_on_c, 10, 68, 76
14, 23489, Note_on_c, 10, 68, 0
14, 23490, Note_on_c, 10, 70, 76
14, 23519, Note_on_c, 10, 70, 0
14, 23520, Note_on_c, 10, 68, 76
14, 23571, Note_on_c, 10, 68, 0
14, 23580, Note_on_c, 10, 66, 76
14, 23631, Note_on_c, 10, 66, 0
14, 23640, Note_on_c, 10, 76, 76
14, 23819, Note_on_c, 10, 76, 0
14, 23880, Note_on_c, 10, 74, 76
14, 24059, Note_on_c, 10, 74, 0
14, 24240, Note_on_c, 10, 76, 76
14, 24344, Note_on_c, 10, 76, 0
14, 24360, Note_on_c, 10, 73, 76
14, 24389, Note_on_c, 10, 73, 0
14, 24390, Note_on_c, 10, 74, 76
14, 24419, Note_on_c, 10, 74, 0
14, 24420, Note_on_c, 10, 71, 76
14, 24449, Note_on_c, 10, 71, 0
14, 24450, Note_on_c, 10, 73, 76
14, 24479, Note_on_c, 10, 73, 0
14, 24480, Note_on_c, 10, 71, 76
14, 24531, Note_on_c, 10, 71, 0
14, 24540, Note_on_c, 10, 70, 76
14, 24591, Note_on_c, 10, 70, 0
14, 24600, Note_on_c, 10, 79, 76
14, 24779, Note_on_c, 10, 79, 0
14, 24840, Note_on_c, 10, 78, 76
14, 25019, Note_on_c, 10, 78, 0
14, 25200, Note_on_c, 10, 79, 76
14, 25304, Note_on_c, 10, 79, 0
14, 25320, Note_on_c, 10, 76, 76
14, 25349, Note_on_c, 10, 76, 0
14, 25350, Note_on_c, 10, 78, 76
14, 25379, Note_on_c, 10, 78, 0
14, 25380, Note_on_c, 10, 74, 76
14, 25409, Note_on_c, 10, 74, 0
14, 25410, Note_on_c, 10, 76, 76
14, 25439, Note_on_c, 10, 76, 0
14, 25440, Note_on_c, 10, 74, 76
14, 25491, Note_on_c, 10, 74, 0
14, 25500, Note_on_c, 10, 73, 76
14, 25551, Note_on_c, 10, 73, 0
14, 25560, Note_on_c, 10, 83, 76
14, 25739, Note_on_c, 10, 83, 0
14, 25800, Note_on_c, 10, 82, 76
14, 25904, Note_on_c, 10, 82, 0
14, 25920, Note_on_c, 10, 83, 76
14, 25971, Note_on_c, 10, 83, 0
14, 25980, Note_on_c, 10, 85, 76
14, 26031, Note_on_c, 10, 85, 0
14, 26040, Note_on_c, 10, 78, 76
14, 26144, Note_on_c, 10, 78, 0
14, 26160, Note_on_c, 10, 76, 76
14, 26264, Note_on_c, 10, 76, 0
14, 26280, Note_on_c, 10, 74, 76
14, 26309, Note_on_c, 10, 74, 0
14, 26310, Note_on_c, 10, 76, 76
14, 26339, Note_on_c, 10, 76, 0
14, 26340, Note_on_c, 10, 73, 76
14, 26369, Note_on_c, 10, 73, 0
14, 26370, Note_on_c, 10, 74, 76
14, 26399, Note_on_c, 10, 74, 0
14, 26400, Note_on_c, 10, 73, 76
14, 26451, Note_on_c, 10, 73, 0
14, 26460, Note_on_c, 10, 71, 76
14, 26511, Note_on_c, 10, 71, 0
14, 26520, Note_on_c, 10, 73, 76
14, 26639, Note_on_c, 10, 73, 0
14, 26640, Note_on_c, 10, 83, 76
14, 26691, Note_on_c, 10, 83, 0
14, 26700, Note_on_c, 10, 82, 76
14, 26751, Note_on_c, 10, 82, 0
14, 26760, Note_on_c, 10, 83, 76
14, 26864, Note_on_c, 10, 83, 0
14, 26880, Note_on_c, 10, 85, 76
14, 26984, Note_on_c, 10, 85, 0
14, 27000, Note_on_c, 10, 76, 76
14, 27029, Note_on_c, 10, 76, 0
14, 27030, Note_on_c, 10, 78, 76
14, 27059, Note_on_c, 10, 78, 0
14, 27060, Note_on_c, 10, 74, 76
14, 27089, Note_on_c, 10, 74, 0
14, 27090, Note_on_c, 10, 76, 76
14, 27119, Note_on_c, 10, 76, 0
14, 27120, Note_on_c, 10, 74, 76
14, 27171, Note_on_c, 10, 74, 0
14, 27180, Note_on_c, 10, 73, 76
14, 27231, Note_on_c, 10, 73, 0
14, 27240, Note_on_c, 10, 74, 76
14, 27291, Note_on_c, 10, 74, 0
14, 27300, Note_on_c, 10, 76, 76
14, 27351, Note_on_c, 10, 76, 0
14, 27360, Note_on_c, 10, 78, 76
14, 27411, Note_on_c, 10, 78, 0
14, 27420, Note_on_c, 10, 80, 76
14, 27471, Note_on_c, 10, 80, 0
14, 27480, Note_on_c, 10, 82, 76
14, 27584, Note_on_c, 10, 82, 0
14, 27600, Note_on_c, 10, 83, 76
14, 27704, Note_on_c, 10, 83, 0
14, 27720, Note_on_c, 10, 73, 76
14, 27824, Note_on_c, 10, 73, 0
14, 27840, Note_on_c, 10, 71, 76
14, 27891, Note_on_c, 10, 71, 0
14, 27900, Note_on_c, 10, 70, 76
14, 27951, Note_on_c, 10, 70, 0
14, 27960, Note_on_c, 10, 71, 76
14, 28064, Note_on_c, 10, 71, 0
14, 28080, Note_on_c, 10, 73, 76
14, 28184, Note_on_c, 10, 73, 0
14, 28200, Note_on_c, 10, 66, 76
14, 28304, Note_on_c, 10, 66, 0
14, 28320, Note_on_c, 10, 70, 76
14, 28424, Note_on_c, 10, 70, 0
14, 28440, Note_on_c, 10, 71, 76
14, 28679, Note_on_c, 10, 71, 0
14, 28800, Note_on_c, 10, 66, 76
14, 28851, Note_on_c, 10, 66, 0
14, 28860, Note_on_c, 10, 64, 76
14, 28911, Note_on_c, 10, 64, 0
14, 28920, Note_on_c, 10, 66, 76
14, 29024, Note_on_c, 10, 66, 0
14, 29040, Note_on_c, 10, 67, 76
14, 29144, Note_on_c, 10, 67, 0
14, 29160, Note_on_c, 10, 69, 76
14, 29264, Note_on_c, 10, 69, 0
14, 29280, Note_on_c, 10, 72, 76
14, 29331, Note_on_c, 10, 72, 0
14, 29340, Note_on_c, 10, 71, 76
14, 29391, Note_on_c, 10, 71, 0
14, 29400, Note_on_c, 10, 72, 76
14, 29504, Note_on_c, 10, 72, 0
14, 29520, Note_on_c, 10, 81, 76
14, 29624, Note_on_c, 10, 81, 0
14, 29640, Note_on_c, 10, 69, 76
14, 29691, Note_on_c, 10, 69, 0
14, 29700, Note_on_c, 10, 71, 76
14, 29751, Note_on_c, 10, 71, 0
14, 29760, Note_on_c, 10, 72, 76
14, 29864, Note_on_c, 10, 72, 0
14, 29880, Note_on_c, 10, 72, 76
14, 29909, Note_on_c, 10, 72, 0
14, 29910, Note_on_c, 10, 74, 76
14, 29939, Note_on_c, 10, 74, 0
14, 29940, Note_on_c, 10, 71, 76
14, 29969, Note_on_c, 10, 71, 0
14, 29970, Note_on_c, 10, 72, 76
14, 29999, Note_on_c, 10, 72, 0
14, 30000, Note_on_c, 10, 71, 76
14, 30224, Note_on_c, 10, 71, 0
14, 30240, Note_on_c, 10, 71, 76
14, 30291, Note_on_c, 10, 71, 0
14, 30300, Note_on_c, 10, 69, 76
14, 30351, Note_on_c, 10, 69, 0
14, 30360, Note_on_c, 10, 71, 76
14, 30464, Note_on_c, 10, 71, 0
14, 30480, Note_on_c, 10, 73, 76
14, 30584, Note_on_c, 10, 73, 0
14, 30600, Note_on_c, 10, 74, 76
14, 30704, Note_on_c, 10, 74, 0
14, 30720, Note_on_c, 10, 78, 76
14, 30771, Note_on_c, 10, 78, 0
14, 30780, Note_on_c, 10, 76, 76
14, 30831, Note_on_c, 10, 76, 0
14, 30840, Note_on_c, 10, 74, 76
14, 30944, Note_on_c, 10, 74, 0
14, 30960, Note_on_c, 10, 83, 76
14, 31064, Note_on_c, 10, 83, 0
14, 31080, Note_on_c, 10, 71, 76
14, 31131, Note_on_c, 10, 71, 0
14, 31140, Note_on_c, 10, 73, 76
14, 31191, Note_on_c, 10, 73, 0
14, 31200, Note_on_c, 10, 74, 76
14, 31304, Note_on_c, 10, 74, 0
14, 31320, Note_on_c, 10, 74, 76
14, 31349, Note_on_c, 10, 74, 0
14, 31350, Note_on_c, 10, 76, 76
14, 31379, Note_on_c, 10, 76, 0
14, 31380, Note_on_c, 10, 73, 76
14, 31409, Note_on_c, 10, 73, 0
14, 31410, Note_on_c, 10, 74, 76
14, 31439, Note_on_c, 10, 74, 0
14, 31440, Note_on_c, 10, 73, 76
14, 31664, Note_on_c, 10, 73, 0
14, 31680, Note_on_c, 10, 81, 76
14, 31731, Note_on_c, 10, 81, 0
14, 31740, Note_on_c, 10, 80, 76
14, 31791, Note_on_c, 10, 80, 0
14, 31800, Note_on_c, 10, 83, 76
14, 31889, Note_on_c, 10, 83, 0
14, 31920, Note_on_c, 10, 81, 76
14, 32009, Note_on_c, 10, 81, 0
14, 32040, Note_on_c, 10, 80, 76
14, 32069, Note_on_c, 10, 80, 0
14, 32070, Note_on_c, 10, 81, 76
14, 32099, Note_on_c, 10, 81, 0
14, 32100, Note_on_c, 10, 78, 76
14, 32129, Note_on_c, 10, 78, 0
14, 32130, Note_on_c, 10, 80, 76
14, 32159, Note_on_c, 10, 80, 0
14, 32160, Note_on_c, 10, 81, 76
14, 32384, Note_on_c, 10, 81, 0
14, 32400, Note_on_c, 10, 79, 76
14, 32451, Note_on_c, 10, 79, 0
14, 32460, Note_on_c, 10, 78, 76
14, 32511, Note_on_c, 10, 78, 0
14, 32520, Note_on_c, 10, 81, 76
14, 32609, Note_on_c, 10, 81, 0
14, 32640, Note_on_c, 10, 79, 76
14, 32729, Note_on_c, 10, 79, 0
14, 32760, Note_on_c, 10, 78, 76
14, 32789, Note_on_c, 10, 78, 0
14, 32790, Note_on_c, 10, 79, 76
14, 32819, Note_on_c, 10, 79, 0
14, 32820, Note_on_c, 10, 76, 76
14, 32849, Note_on_c, 10, 76, 0
14, 32850, Note_on_c, 10, 78, 76
14, 32879, Note_on_c, 10, 78, 0
14, 32880, Note_on_c, 10, 79, 76
14, 33104, Note_on_c, 10, 79, 0
14, 33120, Note_on_c, 10, 77, 76
14, 33171, Note_on_c, 10, 77, 0
14, 33180, Note_on_c, 10, 76, 76
14, 33231, Note_on_c, 10, 76, 0
14, 33240, Note_on_c, 10, 79, 76
14, 33329, Note_on_c, 10, 79, 0
14, 33360, Note_on_c, 10, 77, 76
14, 33449, Note_on_c, 10, 77, 0
14, 33480, Note_on_c, 10, 76, 76
14, 33584, Note_on_c, 10, 76, 0
14, 33600, Note_on_c, 10, 77, 76
14, 33824, Note_on_c, 10, 77, 0
14, 33840, Note_on_c, 10, 74, 76
14, 34064, Note_on_c, 10, 74, 0
14, 34080, Note_on_c, 10, 75, 76
14, 34304, Note_on_c, 10, 75, 0
14, 34320, Note_on_c, 10, 73, 76
14, 34544, Note_on_c, 10, 73, 0
14, 34560, Note_on_c, 10, 74, 76
14, 34784, Note_on_c, 10, 74, 0
14, 34800, Note_on_c, 10, 70, 76
14, 35024, Note_on_c, 10, 70, 0
14, 35040, Note_on_c, 10, 69, 76
14, 35264, Note_on_c, 10, 69, 0
14, 35280, Note_on_c, 10, 68, 76
14, 35504, Note_on_c, 10, 68, 0
14, 35520, Note_on_c, 10, 69, 76
14, 35624, Note_on_c, 10, 69, 0
14, 35640, Note_on_c, 10, 80, 76
14, 35744, Note_on_c, 10, 80, 0
14, 35760, Note_on_c, 10, 81, 76
14, 35984, Note_on_c, 10, 81, 0
14, 36000, Note_on_c, 10, 79, 76
14, 36051, Note_on_c, 10, 79, 0
14, 36060, Note_on_c, 10, 78, 76
14, 36111, Note_on_c, 10, 78, 0
14, 36120, Note_on_c, 10, 79, 76
14, 36224, Note_on_c, 10, 79, 0
14, 36240, Note_on_c, 10, 76, 76
14, 36344, Note_on_c, 10, 76, 0
14, 36360, Note_on_c, 10, 78, 76
14, 36411, Note_on_c, 10, 78, 0
14, 36420, Note_on_c, 10, 79, 76
14, 36471, Note_on_c, 10, 79, 0
14, 36480, Note_on_c, 10, 81, 76
14, 36531, Note_on_c, 10, 81, 0
14, 36540, Note_on_c, 10, 83, 76
14, 36591, Note_on_c, 10, 83, 0
14, 36600, Note_on_c, 10, 85, 76
14, 36704, Note_on_c, 10, 85, 0
14, 36720, Note_on_c, 10, 86, 76
14, 36824, Note_on_c, 10, 86, 0
14, 36840, Note_on_c, 10, 69, 76
14, 36944, Note_on_c, 10, 69, 0
14, 36960, Note_on_c, 10, 73, 76
14, 37064, Note_on_c, 10, 73, 0
14, 37080, Note_on_c, 10, 62, 76
14, 37251, Note_on_c, 10, 62, 0
14, 37260, Note_on_c, 10, 64, 76
14, 37311, Note_on_c, 10, 64, 0
14, 37320, Note_on_c, 10, 66, 76
14, 37379, Note_on_c, 10, 66, 0
14, 37380, Note_on_c, 10, 68, 76
14, 37439, Note_on_c, 10, 68, 0
14, 37440, Note_on_c, 10, 69, 76
14, 37499, Note_on_c, 10, 69, 0
14, 37500, Note_on_c, 10, 71, 76
14, 37551, Note_on_c, 10, 71, 0
14, 37560, Note_on_c, 10, 69, 76
14, 37619, Note_on_c, 10, 69, 0
14, 37620, Note_on_c, 10, 68, 76
14, 37679, Note_on_c, 10, 68, 0
14, 37680, Note_on_c, 10, 66, 76
14, 37739, Note_on_c, 10, 66, 0
14, 37740, Note_on_c, 10, 64, 76
14, 37791, Note_on_c, 10, 64, 0
14, 37800, Note_on_c, 10, 74, 76
14, 37859, Note_on_c, 10, 74, 0
14, 37860, Note_on_c, 10, 73, 76
14, 37919, Note_on_c, 10, 73, 0
14, 37920, Note_on_c, 10, 71, 76
14, 37979, Note_on_c, 10, 71, 0
14, 37980, Note_on_c, 10, 69, 76
14, 38031, Note_on_c, 10, 69, 0
14, 38040, Note_on_c, 10, 79, 76
14, 38219, Note_on_c, 10, 79, 0
14, 38280, Note_on_c, 10, 78, 76
14, 38459, Note_on_c, 10, 78, 0
14, 38640, Note_on_c, 10, 79, 76
14, 38744, Note_on_c, 10, 79, 0
14, 38760, Note_on_c, 10, 76, 76
14, 38789, Note_on_c, 10, 76, 0
14, 38790, Note_on_c, 10, 78, 76
14, 38819, Note_on_c, 10, 78, 0
14, 38820, Note_on_c, 10, 74, 76
14, 38849, Note_on_c, 10, 74, 0
14, 38850, Note_on_c, 10, 76, 76
14, 38879, Note_on_c, 10, 76, 0
14, 38880, Note_on_c, 10, 74, 76
14, 38931, Note_on_c, 10, 74, 0
14, 38940, Note_on_c, 10, 73, 76
14, 38991, Note_on_c, 10, 73, 0
14, 39000, Note_on_c, 10, 83, 76
14, 39179, Note_on_c, 10, 83, 0
14, 39240, Note_on_c, 10, 81, 76
14, 39419, Note_on_c, 10, 81, 0
14, 39600, Note_on_c, 10, 83, 76
14, 39704, Note_on_c, 10, 83, 0
14, 39720, Note_on_c, 10, 79, 76
14, 39824, Note_on_c, 10, 79, 0
14, 39840, Note_on_c, 10, 78, 76
14, 39891, Note_on_c, 10, 78, 0
14, 39900, Note_on_c, 10, 76, 76
14, 39951, Note_on_c, 10, 76, 0
14, 39960, Note_on_c, 10, 86, 76
14, 40184, Note_on_c, 10, 86, 0
14, 40200, Note_on_c, 10, 85, 76
14, 40304, Note_on_c, 10, 85, 0
14, 40320, Note_on_c, 10, 79, 76
14, 40371, Note_on_c, 10, 79, 0
14, 40380, Note_on_c, 10, 78, 76
14, 40431, Note_on_c, 10, 78, 0
14, 40440, Note_on_c, 10, 79, 76
14, 40544, Note_on_c, 10, 79, 0
14, 40560, Note_on_c, 10, 81, 76
14, 40664, Note_on_c, 10, 81, 0
14, 40680, Note_on_c, 10, 79, 76
14, 40739, Note_on_c, 10, 79, 0
14, 40740, Note_on_c, 10, 78, 76
14, 40799, Note_on_c, 10, 78, 0
14, 40800, Note_on_c, 10, 76, 76
14, 40859, Note_on_c, 10, 76, 0
14, 40860, Note_on_c, 10, 74, 76
14, 40911, Note_on_c, 10, 74, 0
14, 40920, Note_on_c, 10, 78, 76
14, 40979, Note_on_c, 10, 78, 0
14, 40980, Note_on_c, 10, 76, 76
14, 41039, Note_on_c, 10, 76, 0
14, 41040, Note_on_c, 10, 74, 76
14, 41099, Note_on_c, 10, 74, 0
14, 41100, Note_on_c, 10, 73, 76
14, 41151, Note_on_c, 10, 73, 0
14, 41160, Note_on_c, 10, 74, 76
14, 41264, Note_on_c, 10, 74, 0
14, 41280, Note_on_c, 10, 76, 76
14, 41384, Note_on_c, 10, 76, 0
14, 41400, Note_on_c, 10, 67, 76
14, 41504, Note_on_c, 10, 67, 0
14, 41520, Note_on_c, 10, 66, 76
14, 41571, Note_on_c, 10, 66, 0
14, 41580, Note_on_c, 10, 64, 76
14, 41631, Note_on_c, 10, 64, 0
14, 41640, Note_on_c, 10, 66, 76
14, 41691, Note_on_c, 10, 66, 0
14, 41700, Note_on_c, 10, 67, 76
14, 41751, Note_on_c, 10, 67, 0
14, 41760, Note_on_c, 10, 69, 76
14, 41811, Note_on_c, 10, 69, 0
14, 41820, Note_on_c, 10, 71, 76
14, 41871, Note_on_c, 10, 71, 0
14, 41880, Note_on_c, 10, 73, 76
14, 41931, Note_on_c, 10, 73, 0
14, 41940, Note_on_c, 10, 74, 76
14, 41991, Note_on_c, 10, 74, 0
14, 42000, Note_on_c, 10, 76, 76
14, 42051, Note_on_c, 10, 76, 0
14, 42060, Note_on_c, 10, 78, 76
14, 42111, Note_on_c, 10, 78, 0
14, 42120, Note_on_c, 10, 79, 76
14, 42171, Note_on_c, 10, 79, 0
14, 42180, Note_on_c, 10, 81, 76
14, 42231, Note_on_c, 10, 81, 0
14, 42240, Note_on_c, 10, 83, 76
14, 42291, Note_on_c, 10, 83, 0
14, 42300, Note_on_c, 10, 79, 76
14, 42351, Note_on_c, 10, 79, 0
14, 42360, Note_on_c, 10, 81, 76
14, 42464, Note_on_c, 10, 81, 0
14, 42480, Note_on_c, 10, 74, 76
14, 42584, Note_on_c, 10, 74, 0
14, 42600, Note_on_c, 10, 69, 76
14, 42704, Note_on_c, 10, 69, 0
14, 42720, Note_on_c, 10, 73, 76
14, 42824, Note_on_c, 10, 73, 0
14, 42840, Note_on_c, 10, 74, 76
14, 43184, Note_on_c, 10, 74, 0
14, 43920, Note_on_c, 10, 81, 76
14, 44024, Note_on_c, 10, 81, 0
14, 44040, Note_on_c, 10, 74, 76
14, 44144, Note_on_c, 10, 74, 0
14, 44160, Note_on_c, 10, 76, 76
14, 44264, Note_on_c, 10, 76, 0
14, 44280, Note_on_c, 10, 78, 76
14, 44309, Note_on_c, 10, 78, 0
14, 44310, Note_on_c, 10, 79, 76
14, 44339, Note_on_c, 10, 79, 0
14, 44340, Note_on_c, 10, 76, 76
14, 44369, Note_on_c, 10, 76, 0
14, 44370, Note_on_c, 10, 78, 76
14, 44399, Note_on_c, 10, 78, 0
14, 44400, Note_on_c, 10, 76, 76
14, 44639, Note_on_c, 10, 76, 0
14, 45360, Note_on_c, 10, 83, 76
14, 45464, Note_on_c, 10, 83, 0
14, 45480, Note_on_c, 10, 76, 76
14, 45584, Note_on_c, 10, 76, 0
14, 45600, Note_on_c, 10, 78, 76
14, 45704, Note_on_c, 10, 78, 0
14, 45720, Note_on_c, 10, 79, 76
14, 45749, Note_on_c, 10, 79, 0
14, 45750, Note_on_c, 10, 81, 76
14, 45779, Note_on_c, 10, 81, 0
14, 45780, Note_on_c, 10, 78, 76
14, 45809, Note_on_c, 10, 78, 0
14, 45810, Note_on_c, 10, 79, 76
14, 45839, Note_on_c, 10, 79, 0
14, 45840, Note_on_c, 10, 78, 76
14, 46064, Note_on_c, 10, 78, 0
14, 46080, Note_on_c, 10, 79, 76
14, 46131, Note_on_c, 10, 79, 0
14, 46140, Note_on_c, 10, 78, 76
14, 46191, Note_on_c, 10, 78, 0
14, 46200, Note_on_c, 10, 79, 76
14, 46304, Note_on_c, 10, 79, 0
14, 46320, Note_on_c, 10, 81, 76
14, 46424, Note_on_c, 10, 81, 0
14, 46440, Note_on_c, 10, 78, 76
14, 46544, Note_on_c, 10, 78, 0
14, 46560, Note_on_c, 10, 76, 76
14, 46611, Note_on_c, 10, 76, 0
14, 46620, Note_on_c, 10, 75, 76
14, 46671, Note_on_c, 10, 75, 0
14, 46680, Note_on_c, 10, 76, 76
14, 46731, Note_on_c, 10, 76, 0
14, 46740, Note_on_c, 10, 78, 76
14, 46791, Note_on_c, 10, 78, 0
14, 46800, Note_on_c, 10, 79, 76
14, 46851, Note_on_c, 10, 79, 0
14, 46860, Note_on_c, 10, 81, 76
14, 46911, Note_on_c, 10, 81, 0
14, 46920, Note_on_c, 10, 83, 76
14, 47024, Note_on_c, 10, 83, 0
14, 47040, Note_on_c, 10, 84, 76
14, 47144, Note_on_c, 10, 84, 0
14, 47160, Note_on_c, 10, 81, 76
14, 47189, Note_on_c, 10, 81, 0
14, 47190, Note_on_c, 10, 83, 76
14, 47219, Note_on_c, 10, 83, 0
14, 47220, Note_on_c, 10, 79, 76
14, 47249, Note_on_c, 10, 79, 0
14, 47250, Note_on_c, 10, 81, 76
14, 47279, Note_on_c, 10, 81, 0
14, 47280, Note_on_c, 10, 79, 76
14, 47504, Note_on_c, 10, 79, 0
14, 47520, Note_on_c, 10, 78, 76
14, 47571, Note_on_c, 10, 78, 0
14, 47580, Note_on_c, 10, 76, 76
14, 47631, Note_on_c, 10, 76, 0
14, 47640, Note_on_c, 10, 78, 76
14, 47744, Note_on_c, 10, 78, 0
14, 47760, Note_on_c, 10, 79, 76
14, 47864, Note_on_c, 10, 79, 0
14, 47880, Note_on_c, 10, 76, 76
14, 47909, Note_on_c, 10, 76, 0
14, 47910, Note_on_c, 10, 78, 76
14, 47939, Note_on_c, 10, 78, 0
14, 47940, Note_on_c, 10, 74, 76
14, 47969, Note_on_c, 10, 74, 0
14, 47970, Note_on_c, 10, 76, 76
14, 47999, Note_on_c, 10, 76, 0
14, 48000, Note_on_c, 10, 74, 76
14, 48051, Note_on_c, 10, 74, 0
14, 48060, Note_on_c, 10, 73, 76
14, 48111, Note_on_c, 10, 73, 0
14, 48120, Note_on_c, 10, 74, 76
14, 48171, Note_on_c, 10, 74, 0
14, 48180, Note_on_c, 10, 76, 76
14, 48231, Note_on_c, 10, 76, 0
14, 48240, Note_on_c, 10, 78, 76
14, 48291, Note_on_c, 10, 78, 0
14, 48300, Note_on_c, 10, 80, 76
14, 48351, Note_on_c, 10, 80, 0
14, 48360, Note_on_c, 10, 82, 76
14, 48464, Note_on_c, 10, 82, 0
14, 48480, Note_on_c, 10, 83, 76
14, 48584, Note_on_c, 10, 83, 0
14, 48600, Note_on_c, 10, 73, 76
14, 48629, Note_on_c, 10, 73, 0
14, 48630, Note_on_c, 10, 74, 76
14, 48659, Note_on_c, 10, 74, 0
14, 48660, Note_on_c, 10, 71, 76
14, 48689, Note_on_c, 10, 71, 0
14, 48690, Note_on_c, 10, 73, 76
14, 48719, Note_on_c, 10, 73, 0
14, 48720, Note_on_c, 10, 71, 76
14, 48771, Note_on_c, 10, 71, 0
14, 48780, Note_on_c, 10, 70, 76
14, 48831, Note_on_c, 10, 70, 0
14, 48840, Note_on_c, 10, 71, 76
14, 48891, Note_on_c, 10, 71, 0
14, 48900, Note_on_c, 10, 73, 76
14, 48951, Note_on_c, 10, 73, 0
14, 48960, Note_on_c, 10, 74, 76
14, 49011, Note_on_c, 10, 74, 0
14, 49020, Note_on_c, 10, 76, 76
14, 49071, Note_on_c, 10, 76, 0
14, 49080, Note_on_c, 10, 78, 76
14, 49184, Note_on_c, 10, 78, 0
14, 49200, Note_on_c, 10, 79, 76
14, 49304, Note_on_c, 10, 79, 0
14, 49320, Note_on_c, 10, 70, 76
14, 49349, Note_on_c, 10, 70, 0
14, 49350, Note_on_c, 10, 71, 76
14, 49379, Note_on_c, 10, 71, 0
14, 49380, Note_on_c, 10, 68, 76
14, 49409, Note_on_c, 10, 68, 0
14, 49410, Note_on_c, 10, 70, 76
14, 49439, Note_on_c, 10, 70, 0
14, 49440, Note_on_c, 10, 68, 76
14, 49491, Note_on_c, 10, 68, 0
14, 49500, Note_on_c, 10, 66, 76
14, 49551, Note_on_c, 10, 66, 0
14, 49560, Note_on_c, 10, 76, 76
14, 49739, Note_on_c, 10, 76, 0
14, 49800, Note_on_c, 10, 74, 76
14, 49979, Note_on_c, 10, 74, 0
14, 50160, Note_on_c, 10, 76, 76
14, 50264, Note_on_c, 10, 76, 0
14, 50280, Note_on_c, 10, 73, 76
14, 50309, Note_on_c, 10, 73, 0
14, 50310, Note_on_c, 10, 74, 76
14, 50339, Note_on_c, 10, 74, 0
14, 50340, Note_on_c, 10, 71, 76
14, 50369, Note_on_c, 10, 71, 0
14, 50370, Note_on_c, 10, 73, 76
14, 50399, Note_on_c, 10, 73, 0
14, 50400, Note_on_c, 10, 71, 76
14, 50451, Note_on_c, 10, 71, 0
14, 50460, Note_on_c, 10, 70, 76
14, 50511, Note_on_c, 10, 70, 0
14, 50520, Note_on_c, 10, 79, 76
14, 50699, Note_on_c, 10, 79, 0
14, 50760, Note_on_c, 10, 78, 76
14, 50939, Note_on_c, 10, 78, 0
14, 51120, Note_on_c, 10, 79, 76
14, 51224, Note_on_c, 10, 79, 0
14, 51240, Note_on_c, 10, 76, 76
14, 51269, Note_on_c, 10, 76, 0
14, 51270, Note_on_c, 10, 78, 76
14, 51299, Note_on_c, 10, 78, 0
14, 51300, Note_on_c, 10, 74, 76
14, 51329, Note_on_c, 10, 74, 0
14, 51330, Note_on_c, 10, 76, 76
14, 51359, Note_on_c, 10, 76, 0
14, 51360, Note_on_c, 10, 74, 76
14, 51411, Note_on_c, 10, 74, 0
14, 51420, Note_on_c, 10, 73, 76
14, 51471, Note_on_c, 10, 73, 0
14, 51480, Note_on_c, 10, 83, 76
14, 51659, Note_on_c, 10, 83, 0
14, 51720, Note_on_c, 10, 82, 76
14, 51824, Note_on_c, 10, 82, 0
14, 51840, Note_on_c, 10, 83, 76
14, 51891, Note_on_c, 10, 83, 0
14, 51900, Note_on_c, 10, 85, 76
14, 51951, Note_on_c, 10, 85, 0
14, 51960, Note_on_c, 10, 78, 76
14, 52064, Note_on_c, 10, 78, 0
14, 52080, Note_on_c, 10, 76, 76
14, 52184, Note_on_c, 10, 76, 0
14, 52200, Note_on_c, 10, 74, 76
14, 52229, Note_on_c, 10, 74, 0
14, 52230, Note_on_c, 10, 76, 76
14, 52259, Note_on_c, 10, 76, 0
14, 52260, Note_on_c, 10, 73, 76
14, 52289, Note_on_c, 10, 73, 0
14, 52290, Note_on_c, 10, 74, 76
14, 52319, Note_on_c, 10, 74, 0
14, 52320, Note_on_c, 10, 73, 76
14, 52371, Note_on_c, 10, 73, 0
14, 52380, Note_on_c, 10, 71, 76
14, 52431, Note_on_c, 10, 71, 0
14, 52440, Note_on_c, 10, 73, 76
14, 52559, Note_on_c, 10, 73, 0
14, 52560, Note_on_c, 10, 83, 76
14, 52611, Note_on_c, 10, 83, 0
14, 52620, Note_on_c, 10, 82, 76
14, 52671, Note_on_c, 10, 82, 0
14, 52680, Note_on_c, 10, 83, 76
14, 52784, Note_on_c, 10, 83, 0
14, 52800, Note_on_c, 10, 85, 76
14, 52904, Note_on_c, 10, 85, 0
14, 52920, Note_on_c, 10, 76, 76
14, 52949, Note_on_c, 10, 76, 0
14, 52950, Note_on_c, 10, 78, 76
14, 52979, Note_on_c, 10, 78, 0
14, 52980, Note_on_c, 10, 74, 76
14, 53009, Note_on_c, 10, 74, 0
14, 53010, Note_on_c, 10, 76, 76
14, 53039, Note_on_c, 10, 76, 0
14, 53040, Note_on_c, 10, 74, 76
14, 53091, Note_on_c, 10, 74, 0
14, 53100, Note_on_c, 10, 73, 76
14, 53151, Note_on_c, 10, 73, 0
14, 53160, Note_on_c, 10, 74, 76
14, 53211, Note_on_c, 10, 74, 0
14, 53220, Note_on_c, 10, 76, 76
14, 53271, Note_on_c, 10, 76, 0
14, 53280, Note_on_c, 10, 78, 76
14, 53331, Note_on_c, 10, 78, 0
14, 53340, Note_on_c, 10, 80, 76
14, 53391, Note_on_c, 10, 80, 0
14, 53400, Note_on_c, 10, 82, 76
14, 53504, Note_on_c, 10, 82, 0
14, 53520, Note_on_c, 10, 83, 76
14, 53624, Note_on_c, 10, 83, 0
14, 53640, Note_on_c, 10, 73, 76
14, 53744, Note_on_c, 10, 73, 0
14, 53760, Note_on_c, 10, 71, 76
14, 53811, Note_on_c, 10, 71, 0
14, 53820, Note_on_c, 10, 70, 76
14, 53871, Note_on_c, 10, 70, 0
14, 53880, Note_on_c, 10, 71, 76
14, 53984, Note_on_c, 10, 71, 0
14, 54000, Note_on_c, 10, 73, 76
14, 54104, Note_on_c, 10, 73, 0
14, 54120, Note_on_c, 10, 66, 76
14, 54224, Note_on_c, 10, 66, 0
14, 54240, Note_on_c, 10, 70, 76
14, 54344, Note_on_c, 10, 70, 0
14, 54360, Note_on_c, 10, 71, 76
14, 54599, Note_on_c, 10, 71, 0
14, 54720, Note_on_c, 10, 66, 76
14, 54771, Note_on_c, 10, 66, 0
14, 54780, Note_on_c, 10, 64, 76
14, 54831, Note_on_c, 10, 64, 0
14, 54840, Note_on_c, 10, 66, 76
14, 54944, Note_on_c, 10, 66, 0
14, 54960, Note_on_c, 10, 67, 76
14, 55064, Note_on_c, 10, 67, 0
14, 55080, Note_on_c, 10, 69, 76
14, 55184, Note_on_c, 10, 69, 0
14, 55200, Note_on_c, 10, 72, 76
14, 55251, Note_on_c, 10, 72, 0
14, 55260, Note_on_c, 10, 71, 76
14, 55311, Note_on_c, 10, 71, 0
14, 55320, Note_on_c, 10, 72, 76
14, 55424, Note_on_c, 10, 72, 0
14, 55440, Note_on_c, 10, 81, 76
14, 55544, Note_on_c, 10, 81, 0
14, 55560, Note_on_c, 10, 69, 76
14, 55611, Note_on_c, 10, 69, 0
14, 55620, Note_on_c, 10, 71, 76
14, 55671, Note_on_c, 10, 71, 0
14, 55680, Note_on_c, 10, 72, 76
14, 55784, Note_on_c, 10, 72, 0
14, 55800, Note_on_c, 10, 72, 76
14, 55829, Note_on_c, 10, 72, 0
14, 55830, Note_on_c, 10, 74, 76
14, 55859, Note_on_c, 10, 74, 0
14, 55860, Note_on_c, 10, 71, 76
14, 55889, Note_on_c, 10, 71, 0
14, 55890, Note_on_c, 10, 72, 76
14, 55919, Note_on_c, 10, 72, 0
14, 55920, Note_on_c, 10, 71, 76
14, 56144, Note_on_c, 10, 71, 0
14, 56160, Note_on_c, 10, 71, 76
14, 56211, Note_on_c, 10, 71, 0
14, 56220, Note_on_c, 10, 69, 76
14, 56271, Note_on_c, 10, 69, 0
14, 56280, Note_on_c, 10, 71, 76
14, 56384, Note_on_c, 10, 71, 0
14, 56400, Note_on_c, 10, 73, 76
14, 56504, Note_on_c, 10, 73, 0
14, 56520, Note_on_c, 10, 74, 76
14, 56624, Note_on_c, 10, 74, 0
14, 56640, Note_on_c, 10, 78, 76
14, 56691, Note_on_c, 10, 78, 0
14, 56700, Note_on_c, 10, 76, 76
14, 56751, Note_on_c, 10, 76, 0
14, 56760, Note_on_c, 10, 74, 76
14, 56864, Note_on_c, 10, 74, 0
14, 56880, Note_on_c, 10, 83, 76
14, 56984, Note_on_c, 10, 83, 0
14, 57000, Note_on_c, 10, 71, 76
14, 57051, Note_on_c, 10, 71, 0
14, 57060, Note_on_c, 10, 73, 76
14, 57111, Note_on_c, 10, 73, 0
14, 57120, Note_on_c, 10, 74, 76
14, 57224, Note_on_c, 10, 74, 0
14, 57240, Note_on_c, 10, 74, 76
14, 57269, Note_on_c, 10, 74, 0
14, 57270, Note_on_c, 10, 76, 76
14, 57299, Note_on_c, 10, 76, 0
14, 57300, Note_on_c, 10, 73, 76
14, 57329, Note_on_c, 10, 73, 0
14, 57330, Note_on_c, 10, 74, 76
14, 57359, Note_on_c, 10, 74, 0
14, 57360, Note_on_c, 10, 73, 76
14, 57584, Note_on_c, 10, 73, 0
14, 57600, Note_on_c, 10, 81, 76
14, 57651, Note_on_c, 10, 81, 0
14, 57660, Note_on_c, 10, 80, 76
14, 57711, Note_on_c, 10, 80, 0
14, 57720, Note_on_c, 10, 83, 76
14, 57809, Note_on_c, 10, 83, 0
14, 57840, Note_on_c, 10, 81, 76
14, 57929, Note_on_c, 10, 81, 0
14, 57960, Note_on_c, 10, 80, 76
14, 57989, Note_on_c, 10, 80, 0
14, 57990, Note_on_c, 10, 81, 76
14, 58019, Note_on_c, 10, 81, 0
14, 58020, Note_on_c, 10, 78, 76
14, 58049, Note_on_c, 10, 78, 0
14, 58050, Note_on_c, 10, 80, 76
14, 58079, Note_on_c, 10, 80, 0
14, 58080, Note_on_c, 10, 81, 76
14, 58304, Note_on_c, 10, 81, 0
14, 58320, Note_on_c, 10, 79, 76
14, 58371, Note_on_c, 10, 79, 0
14, 58380, Note_on_c, 10, 78, 76
14, 58431, Note_on_c, 10, 78, 0
14, 58440, Note_on_c, 10, 81, 76
14, 58529, Note_on_c, 10, 81, 0
14, 58560, Note_on_c, 10, 79, 76
14, 58649, Note_on_c, 10, 79, 0
14, 58680, Note_on_c, 10, 78, 76
14, 58709, Note_on_c, 10, 78, 0
14, 58710, Note_on_c, 10, 79, 76
14, 58739, Note_on_c, 10, 79, 0
14, 58740, Note_on_c, 10, 76, 76
14, 58769, Note_on_c, 10, 76, 0
14, 58770, Note_on_c, 10, 78, 76
14, 58799, Note_on_c, 10, 78, 0
14, 58800, Note_on_c, 10, 79, 76
14, 59024, Note_on_c, 10, 79, 0
14, 59040, Note_on_c, 10, 77, 76
14, 59091, Note_on_c, 10, 77, 0
14, 59100, Note_on_c, 10, 76, 76
14, 59151, Note_on_c, 10, 76, 0
14, 59160, Note_on_c, 10, 79, 76
14, 59249, Note_on_c, 10, 79, 0
14, 59280, Note_on_c, 10, 77, 76
14, 59369, Note_on_c, 10, 77, 0
14, 59400, Note_on_c, 10, 76, 76
14, 59504, Note_on_c, 10, 76, 0
14, 59520, Note_on_c, 10, 77, 76
14, 59744, Note_on_c, 10, 77, 0
14, 59760, Note_on_c, 10, 74, 76
14, 59984, Note_on_c, 10, 74, 0
14, 60000, Note_on_c, 10, 75, 76
14, 60224, Note_on_c, 10, 75, 0
14, 60240, Note_on_c, 10, 73, 76
14, 60464, Note_on_c, 10, 73, 0
14, 60480, Note_on_c, 10, 74, 76
14, 60704, Note_on_c, 10, 74, 0
14, 60720, Note_on_c, 10, 70, 76
14, 60944, Note_on_c, 10, 70, 0
14, 60960, Note_on_c, 10, 69, 76
14, 61184, Note_on_c, 10, 69, 0
14, 61200, Note_on_c, 10, 68, 76
14, 61424, Note_on_c, 10, 68, 0
14, 61440, Note_on_c, 10, 69, 76
14, 61544, Note_on_c, 10, 69, 0
14, 61560, Note_on_c, 10, 80, 76
14, 61664, Note_on_c, 10, 80, 0
14, 61680, Note_on_c, 10, 81, 76
14, 61904, Note_on_c, 10, 81, 0
14, 61920, Note_on_c, 10, 79, 76
14, 61971, Note_on_c, 10, 79, 0
14, 61980, Note_on_c, 10, 78, 76
14, 62031, Note_on_c, 10, 78, 0
14, 62040, Note_on_c, 10, 79, 76
14, 62144, Note_on_c, 10, 79, 0
14, 62160, Note_on_c, 10, 76, 76
14, 62264, Note_on_c, 10, 76, 0
14, 62280, Note_on_c, 10, 78, 76
14, 62331, Note_on_c, 10, 78, 0
14, 62340, Note_on_c, 10, 79, 76
14, 62391, Note_on_c, 10, 79, 0
14, 62400, Note_on_c, 10, 81, 76
14, 62451, Note_on_c, 10, 81, 0
14, 62460, Note_on_c, 10, 83, 76
14, 62511, Note_on_c, 10, 83, 0
14, 62520, Note_on_c, 10, 85, 76
14, 62624, Note_on_c, 10, 85, 0
14, 62640, Note_on_c, 10, 86, 76
14, 62744, Note_on_c, 10, 86, 0
14, 62760, Note_on_c, 10, 69, 76
14, 62864, Note_on_c, 10, 69, 0
14, 62880, Note_on_c, 10, 73, 76
14, 62984, Note_on_c, 10, 73, 0
14, 63000, Note_on_c, 10, 62, 76
14, 63171, Note_on_c, 10, 62, 0
14, 63180, Note_on_c, 10, 64, 76
14, 63231, Note_on_c, 10, 64, 0
14, 63240, Note_on_c, 10, 66, 76
14, 63299, Note_on_c, 10, 66, 0
14, 63300, Note_on_c, 10, 68, 76
14, 63359, Note_on_c, 10, 68, 0
14, 63360, Note_on_c, 10, 69, 76
14, 63419, Note_on_c, 10, 69, 0
14, 63420, Note_on_c, 10, 71, 76
14, 63471, Note_on_c, 10, 71, 0
14, 63480, Note_on_c, 10, 69, 76
14, 63539, Note_on_c, 10, 69, 0
14, 63540, Note_on_c, 10, 68, 76
14, 63599, Note_on_c, 10, 68, 0
14, 63600, Note_on_c, 10, 66, 76
14, 63659, Note_on_c, 10, 66, 0
14, 63660, Note_on_c, 10, 64, 76
14, 63711, Note_on_c, 10, 64, 0
14, 63720, Note_on_c, 10, 74, 76
14, 63779, Note_on_c, 10, 74, 0
14, 63780, Note_on_c, 10, 73, 76
14, 63839, Note_on_c, 10, 73, 0
14, 63840, Note_on_c, 10, 71, 76
14, 63899, Note_on_c, 10, 71, 0
14, 63900, Note_on_c, 10, 69, 76
14, 63951, Note_on_c, 10, 69, 0
14, 63960, Note_on_c, 10, 79, 76
14, 64139, Note_on_c, 10, 79, 0
14, 64200, Note_on_c, 10, 78, 76
14, 64379, Note_on_c, 10, 78, 0
14, 64560, Note_on_c, 10, 79, 76
14, 64664, Note_on_c, 10, 79, 0
14, 64680, Note_on_c, 10, 76, 76
14, 64709, Note_on_c, 10, 76, 0
14, 64710, Note_on_c, 10, 78, 76
14, 64739, Note_on_c, 10, 78, 0
14, 64740, Note_on_c, 10, 74, 76
14, 64769, Note_on_c, 10, 74, 0
14, 64770, Note_on_c, 10, 76, 76
14, 64799, Note_on_c, 10, 76, 0
14, 64800, Note_on_c, 10, 74, 76
14, 64851, Note_on_c, 10, 74, 0
14, 64860, Note_on_c, 10, 73, 76
14, 64911, Note_on_c, 10, 73, 0
14, 64920, Note_on_c, 10, 83, 76
14, 65099, Note_on_c, 10, 83, 0
14, 65160, Note_on_c, 10, 81, 76
14, 65339, Note_on_c, 10, 81, 0
14, 65520, Note_on_c, 10, 83, 76
14, 65624, Note_on_c, 10, 83, 0
14, 65640, Note_on_c, 10, 79, 76
14, 65744, Note_on_c, 10, 79, 0
14, 65760, Note_on_c, 10, 78, 76
14, 65811, Note_on_c, 10, 78, 0
14, 65820, Note_on_c, 10, 76, 76
14, 65871, Note_on_c, 10, 76, 0
14, 65880, Note_on_c, 10, 86, 76
14, 66104, Note_on_c, 10, 86, 0
14, 66120, Note_on_c, 10, 85, 76
14, 66224, Note_on_c, 10, 85, 0
14, 66240, Note_on_c, 10, 79, 76
14, 66291, Note_on_c, 10, 79, 0
14, 66300, Note_on_c, 10, 78, 76
14, 66351, Note_on_c, 10, 78, 0
14, 66360, Note_on_c, 10, 79, 76
14, 66464, Note_on_c, 10, 79, 0
14, 66480, Note_on_c, 10, 81, 76
14, 66584, Note_on_c, 10, 81, 0
14, 66600, Note_on_c, 10, 79, 76
14, 66659, Note_on_c, 10, 79, 0
14, 66660, Note_on_c, 10, 78, 76
14, 66719, Note_on_c, 10, 78, 0
14, 66720, Note_on_c, 10, 76, 76
14, 66779, Note_on_c, 10, 76, 0
14, 66780, Note_on_c, 10, 74, 76
14, 66831, Note_on_c, 10, 74, 0
14, 66840, Note_on_c, 10, 78, 76
14, 66899, Note_on_c, 10, 78, 0
14, 66900, Note_on_c, 10, 76, 76
14, 66959, Note_on_c, 10, 76, 0
14, 66960, Note_on_c, 10, 74, 76
14, 67019, Note_on_c, 10, 74, 0
14, 67020, Note_on_c, 10, 73, 76
14, 67071, Note_on_c, 10, 73, 0
14, 67080, Note_on_c, 10, 74, 76
14, 67184, Note_on_c, 10, 74, 0
14, 67200, Note_on_c, 10, 76, 76
14, 67304, Note_on_c, 10, 76, 0
14, 67320, Note_on_c, 10, 67, 76
14, 67424, Note_on_c, 10, 67, 0
14, 67440, Note_on_c, 10, 66, 76
14, 67491, Note_on_c, 10, 66, 0
14, 67500, Note_on_c, 10, 64, 76
14, 67551, Note_on_c, 10, 64, 0
14, 67560, Note_on_c, 10, 66, 76
14, 67611, Note_on_c, 10, 66, 0
14, 67620, Note_on_c, 10, 67, 76
14, 67671, Note_on_c, 10, 67, 0
14, 67680, Note_on_c, 10, 69, 76
14, 67731, Note_on_c, 10, 69, 0
14, 67740, Note_on_c, 10, 71, 76
14, 67791, Note_on_c, 10, 71, 0
14, 67800, Note_on_c, 10, 73, 76
14, 67851, Note_on_c, 10, 73, 0
14, 67860, Note_on_c, 10, 74, 76
14, 67911, Note_on_c, 10, 74, 0
14, 67920, Note_on_c, 10, 76, 76
14, 67971, Note_on_c, 10, 76, 0
14, 67980, Note_on_c, 10, 78, 76
14, 68031, Note_on_c, 10, 78, 0
14, 68040, Note_on_c, 10, 79, 76
14, 68091, Note_on_c, 10, 79, 0
14, 68100, Note_on_c, 10, 81, 76
14, 68151, Note_on_c, 10, 81, 0
14, 68160, Note_on_c, 10, 83, 76
14, 68211, Note_on_c, 10, 83, 0
14, 68220, Note_on_c, 10, 79, 76
14, 68271, Note_on_c, 10, 79, 0
14, 68280, Note_on_c, 10, 81, 76
14, 68384, Note_on_c, 10, 81, 0
14, 68400, Note_on_c, 10, 74, 76
14, 68504, Note_on_c, 10, 74, 0
14, 68520, Note_on_c, 10, 69, 76
14, 68624, Note_on_c, 10, 69, 0
14, 68640, Note_on_c, 10, 73, 76
14, 68744, Note_on_c, 10, 73, 0
14, 68760, Note_on_c, 10, 74, 76
14, 69119, Note_on_c, 10, 74, 0
14, 69119, End_track
15, 0, Start_track
15, 0, Title_t, "Violin II"
15, 0, MIDI_port, 0
15, 0, Program_c, 11, 48
15, 0, Control_c, 11, 10, 24
15, 0, Control_c, 11, 11, 127
15, 0, Control_c, 11, 7, 96
15, 0, Note_on_c, 11, 74, 76
15, 104, Note_on_c, 11, 74, 0
15, 120, Note_on_c, 11, 74, 76
15, 224, Note_on_c, 11, 74, 0
15, 240, Note_on_c, 11, 76, 76
15, 344, Note_on_c, 11, 76, 0
15, 360, Note_on_c, 11, 73, 76
15, 464, Note_on_c, 11, 73, 0
15, 480, Note_on_c, 11, 69, 76
15, 584, Note_on_c, 11, 69, 0
15, 600, Note_on_c, 11, 69, 76
15, 704, Note_on_c, 11, 69, 0
15, 720, Note_on_c, 11, 74, 76
15, 771, Note_on_c, 11, 74, 0
15, 780, Note_on_c, 11, 73, 76
15, 831, Note_on_c, 11, 73, 0
15, 840, Note_on_c, 11, 74, 76
15, 944, Note_on_c, 11, 74, 0
15, 960, Note_on_c, 11, 71, 76
15, 1064, Note_on_c, 11, 71, 0
15, 1080, Note_on_c, 11, 73, 76
15, 1184, Note_on_c, 11, 73, 0
15, 1200, Note_on_c, 11, 74, 76
15, 1424, Note_on_c, 11, 74, 0
15, 1440, Note_on_c, 11, 68, 76
15, 1544, Note_on_c, 11, 68, 0
15, 1560, Note_on_c, 11, 69, 76
15, 1664, Note_on_c, 11, 69, 0
15, 1680, Note_on_c, 11, 73, 76
15, 1784, Note_on_c, 11, 73, 0
15, 1800, Note_on_c, 11, 71, 76
15, 1904, Note_on_c, 11, 71, 0
15, 1920, Note_on_c, 11, 64, 76
15, 2024, Note_on_c, 11, 64, 0
15, 2040, Note_on_c, 11, 69, 76
15, 2144, Note_on_c, 11, 69, 0
15, 2160, Note_on_c, 11, 69, 76
15, 2264, Note_on_c, 11, 69, 0
15, 2280, Note_on_c, 11, 74, 76
15, 2384, Note_on_c, 11, 74, 0
15, 2400, Note_on_c, 11, 73, 76
15, 2504, Note_on_c, 11, 73, 0
15, 2520, Note_on_c, 11, 71, 76
15, 2624, Note_on_c, 11, 71, 0
15, 2640, Note_on_c, 11, 73, 76
15, 2691, Note_on_c, 11, 73, 0
15, 2700, Note_on_c, 11, 74, 76
15, 2751, Note_on_c, 11, 74, 0
15, 2760, Note_on_c, 11, 73, 76
15, 2864, Note_on_c, 11, 73, 0
15, 2880, Note_on_c, 11, 69, 76
15, 2984, Note_on_c, 11, 69, 0
15, 3000, Note_on_c, 11, 69, 76
15, 3104, Note_on_c, 11, 69, 0
15, 3120, Note_on_c, 11, 74, 76
15, 3224, Note_on_c, 11, 74, 0
15, 3240, Note_on_c, 11, 71, 76
15, 3479, Note_on_c, 11, 71, 0
15, 3600, Note_on_c, 11, 71, 76
15, 3704, Note_on_c, 11, 71, 0
15, 3720, Note_on_c, 11, 73, 76
15, 3824, Note_on_c, 11, 73, 0
15, 3840, Note_on_c, 11, 74, 76
15, 3944, Note_on_c, 11, 74, 0
15, 3960, Note_on_c, 11, 71, 76
15, 4199, Note_on_c, 11, 71, 0
15, 4320, Note_on_c, 11, 71, 76
15, 4424, Note_on_c, 11, 71, 0
15, 4440, Note_on_c, 11, 71, 76
15, 4544, Note_on_c, 11, 71, 0
15, 4560, Note_on_c, 11, 69, 76
15, 4611, Note_on_c, 11, 69, 0
15, 4620, Note_on_c, 11, 68, 76
15, 4671, Note_on_c, 11, 68, 0
15, 4680, Note_on_c, 11, 69, 76
15, 4919, Note_on_c, 11, 69, 0
15, 5040, Note_on_c, 11, 69, 76
15, 5144, Note_on_c, 11, 69, 0
15, 5160, Note_on_c, 11, 68, 76
15, 5264, Note_on_c, 11, 68, 0
15, 5280, Note_on_c, 11, 69, 76
15, 5384, Note_on_c, 11, 69, 0
15, 5400, Note_on_c, 11, 71, 76
15, 5579, Note_on_c, 11, 71, 0
15, 5640, Note_on_c, 11, 71, 76
15, 5744, Note_on_c, 11, 71, 0
15, 5760, Note_on_c, 11, 74, 76
15, 5864, Note_on_c, 11, 74, 0
15, 5880, Note_on_c, 11, 73, 76
15, 5984, Note_on_c, 11, 73, 0
15, 6000, Note_on_c, 11, 71, 76
15, 6104, Note_on_c, 11, 71, 0
15, 6120, Note_on_c, 11, 69, 76
15, 6224, Note_on_c, 11, 69, 0
15, 6240, Note_on_c, 11, 64, 76
15, 6344, Note_on_c, 11, 64, 0
15, 6360, Note_on_c, 11, 66, 76
15, 6464, Note_on_c, 11, 66, 0
15, 6480, Note_on_c, 11, 74, 76
15, 6584, Note_on_c, 11, 74, 0
15, 6600, Note_on_c, 11, 73, 76
15, 6704, Note_on_c, 11, 73, 0
15, 6720, Note_on_c, 11, 74, 76
15, 6824, Note_on_c, 11, 74, 0
15, 6840, Note_on_c, 11, 71, 76
15, 6869, Note_on_c, 11, 71, 0
15, 6870, Note_on_c, 11, 73, 76
15, 6899, Note_on_c, 11, 73, 0
15, 6900, Note_on_c, 11, 69, 76
15, 6929, Note_on_c, 11, 69, 0
15, 6930, Note_on_c, 11, 71, 76
15, 6959, Note_on_c, 11, 71, 0
15, 6960, Note_on_c, 11, 69, 76
15, 7011, Note_on_c, 11, 69, 0
15, 7020, Note_on_c, 11, 68, 76
15, 7071, Note_on_c, 11, 68, 0
15, 7080, Note_on_c, 11, 69, 76
15, 7184, Note_on_c, 11, 69, 0
15, 7200, Note_on_c, 11, 69, 76
15, 7304, Note_on_c, 11, 69, 0
15, 7320, Note_on_c, 11, 74, 76
15, 7424, Note_on_c, 11, 74, 0
15, 7440, Note_on_c, 11, 73, 76
15, 7544, Note_on_c, 11, 73, 0
15, 7560, Note_on_c, 11, 66, 76
15, 7664, Note_on_c, 11, 66, 0
15, 7680, Note_on_c, 11, 64, 76
15, 7784, Note_on_c, 11, 64, 0
15, 7800, Note_on_c, 11, 61, 76
15, 7904, Note_on_c, 11, 61, 0
15, 7920, Note_on_c, 11, 66, 76
15, 8024, Note_on_c, 11, 66, 0
15, 8040, Note_on_c, 11, 64, 76
15, 8144, Note_on_c, 11, 64, 0
15, 8160, Note_on_c, 11, 64, 76
15, 8264, Note_on_c, 11, 64, 0
15, 8280, Note_on_c, 11, 64, 76
15, 8624, Note_on_c, 11, 64, 0
15, 8640, Note_on_c, 11, 74, 76
15, 8744, Note_on_c, 11, 74, 0
15, 8760, Note_on_c, 11, 74, 76
15, 8864, Note_on_c, 11, 74, 0
15, 8880, Note_on_c, 11, 76, 76
15, 8984, Note_on_c, 11, 76, 0
15, 9000, Note_on_c, 11, 73, 76
15, 9104, Note_on_c, 11, 73, 0
15, 9120, Note_on_c, 11, 69, 76
15, 9224, Note_on_c, 11, 69, 0
15, 9240, Note_on_c, 11, 69, 76
15, 9344, Note_on_c, 11, 69, 0
15, 9360, Note_on_c, 11, 74, 76
15, 9411, Note_on_c, 11, 74, 0
15, 9420, Note_on_c, 11, 73, 76
15, 9471, Note_on_c, 11, 73, 0
15, 9480, Note_on_c, 11, 74, 76
15, 9584, Note_on_c, 11, 74, 0
15, 9600, Note_on_c, 11, 71, 76
15, 9704, Note_on_c, 11, 71, 0
15, 9720, Note_on_c, 11, 73, 76
15, 9824, Note_on_c, 11, 73, 0
15, 9840, Note_on_c, 11, 74, 76
15, 10064, Note_on_c, 11, 74, 0
15, 10080, Note_on_c, 11, 68, 76
15, 10184, Note_on_c, 11, 68, 0
15, 10200, Note_on_c, 11, 69, 76
15, 10304, Note_on_c, 11, 69, 0
15, 10320, Note_on_c, 11, 73, 76
15, 10424, Note_on_c, 11, 73, 0
15, 10440, Note_on_c, 11, 71, 76
15, 10544, Note_on_c, 11, 71, 0
15, 10560, Note_on_c, 11, 64, 76
15, 10664, Note_on_c, 11, 64, 0
15, 10680, Note_on_c, 11, 69, 76
15, 10784, Note_on_c, 11, 69, 0
15, 10800, Note_on_c, 11, 69, 76
15, 10904, Note_on_c, 11, 69, 0
15, 10920, Note_on_c, 11, 74, 76
15, 11024, Note_on_c, 11, 74, 0
15, 11040, Note_on_c, 11, 73, 76
15, 11144, Note_on_c, 11, 73, 0
15, 11160, Note_on_c, 11, 71, 76
15, 11264, Note_on_c, 11, 71, 0
15, 11280, Note_on_c, 11, 73, 76
15, 11331, Note_on_c, 11, 73, 0
15, 11340, Note_on_c, 11, 74, 76
15, 11391, Note_on_c, 11, 74, 0
15, 11400, Note_on_c, 11, 73, 76
15, 11504, Note_on_c, 11, 73, 0
15, 11520, Note_on_c, 11, 69, 76
15, 11624, Note_on_c, 11, 69, 0
15, 11640, Note_on_c, 11, 69, 76
15, 11744, Note_on_c, 11, 69, 0
15, 11760, Note_on_c, 11, 74, 76
15, 11864, Note_on_c, 11, 74, 0
15, 11880, Note_on_c, 11, 71, 76
15, 12119, Note_on_c, 11, 71, 0
15, 12240, Note_on_c, 11, 71, 76
15, 12344, Note_on_c, 11, 71, 0
15, 12360, Note_on_c, 11, 73, 76
15, 12464, Note_on_c, 11, 73, 0
15, 12480, Note_on_c, 11, 74, 76
15, 12584, Note_on_c, 11, 74, 0
15, 12600, Note_on_c, 11, 71, 76
15, 12839, Note_on_c, 11, 71, 0
15, 12960, Note_on_c, 11, 71, 76
15, 13064, Note_on_c, 11, 71, 0
15, 13080, Note_on_c, 11, 71, 76
15, 13184, Note_on_c, 11, 71, 0
15, 13200, Note_on_c, 11, 69, 76
15, 13251, Note_on_c, 11, 69, 0
15, 13260, Note_on_c, 11, 68, 76
15, 13311, Note_on_c, 11, 68, 0
15, 13320, Note_on_c, 11, 69, 76
15, 13559, Note_on_c, 11, 69, 0
15, 13680, Note_on_c, 11, 69, 76
15, 13784, Note_on_c, 11, 69, 0
15, 13800, Note_on_c, 11, 68, 76
15, 13904, Note_on_c, 11, 68, 0
15, 13920, Note_on_c, 11, 69, 76
15, 14024, Note_on_c, 11, 69, 0
15, 14040, Note_on_c, 11, 71, 76
15, 14219, Note_on_c, 11, 71, 0
15, 14280, Note_on_c, 11, 71, 76
15, 14384, Note_on_c, 11, 71, 0
15, 14400, Note_on_c, 11, 74, 76
15, 14504, Note_on_c, 11, 74, 0
15, 14520, Note_on_c, 11, 73, 76
15, 14624, Note_on_c, 11, 73, 0
15, 14640, Note_on_c, 11, 71, 76
15, 14744, Note_on_c, 11, 71, 0
15, 14760, Note_on_c, 11, 69, 76
15, 14864, Note_on_c, 11, 69, 0
15, 14880, Note_on_c, 11, 64, 76
15, 14984, Note_on_c, 11, 64, 0
15, 15000, Note_on_c, 11, 66, 76
15, 15104, Note_on_c, 11, 66, 0
15, 15120, Note_on_c, 11, 74, 76
15, 15224, Note_on_c, 11, 74, 0
15, 15240, Note_on_c, 11, 73, 76
15, 15344, Note_on_c, 11, 73, 0
15, 15360, Note_on_c, 11, 74, 76
15, 15464, Note_on_c, 11, 74, 0
15, 15480, Note_on_c, 11, 71, 76
15, 15509, Note_on_c, 11, 71, 0
15, 15510, Note_on_c, 11, 73, 76
15, 15539, Note_on_c, 11, 73, 0
15, 15540, Note_on_c, 11, 69, 76
15, 15569, Note_on_c, 11, 69, 0
15, 15570, Note_on_c, 11, 71, 76
15, 15599, Note_on_c, 11, 71, 0
15, 15600, Note_on_c, 11, 69, 76
15, 15651, Note_on_c, 11, 69, 0
15, 15660, Note_on_c, 11, 68, 76
15, 15711, Note_on_c, 11, 68, 0
15, 15720, Note_on_c, 11, 69, 76
15, 15824, Note_on_c, 11, 69, 0
15, 15840, Note_on_c, 11, 69, 76
15, 15944, Note_on_c, 11, 69, 0
15, 15960, Note_on_c, 11, 74, 76
15, 16064, Note_on_c, 11, 74, 0
15, 16080, Note_on_c, 11, 73, 76
15, 16184, Note_on_c, 11, 73, 0
15, 16200, Note_on_c, 11, 66, 76
15, 16304, Note_on_c, 11, 66, 0
15, 16320, Note_on_c, 11, 64, 76
15, 16424, Note_on_c, 11, 64, 0
15, 16440, Note_on_c, 11, 61, 76
15, 16544, Note_on_c, 11, 61, 0
15, 16560, Note_on_c, 11, 66, 76
15, 16664, Note_on_c, 11, 66, 0
15, 16680, Note_on_c, 11, 64, 76
15, 16784, Note_on_c, 11, 64, 0
15, 16800, Note_on_c, 11, 64, 76
15, 16904, Note_on_c, 11, 64, 0
15, 16920, Note_on_c, 11, 64, 76
15, 17279, Note_on_c, 11, 64, 0
15, 18000, Note_on_c, 11, 78, 76
15, 18104, Note_on_c, 11, 78, 0
15, 18120, Note_on_c, 11, 69, 76
15, 18224, Note_on_c, 11, 69, 0
15, 18240, Note_on_c, 11, 73, 76
15, 18344, Note_on_c, 11, 73, 0
15, 18360, Note_on_c, 11, 74, 76
15, 18389, Note_on_c, 11, 74, 0
15, 18390, Note_on_c, 11, 76, 76
15, 18419, Note_on_c, 11, 76, 0
15, 18420, Note_on_c, 11, 73, 76
15, 18449, Note_on_c, 11, 73, 0
15, 18450, Note_on_c, 11, 74, 76
15, 18479, Note_on_c, 11, 74, 0
15, 18480, Note_on_c, 11, 73, 76
15, 18719, Note_on_c, 11, 73, 0
15, 19440, Note_on_c, 11, 79, 76
15, 19544, Note_on_c, 11, 79, 0
15, 19560, Note_on_c, 11, 71, 76
15, 19664, Note_on_c, 11, 71, 0
15, 19680, Note_on_c, 11, 75, 76
15, 19784, Note_on_c, 11, 75, 0
15, 19800, Note_on_c, 11, 76, 76
15, 19829, Note_on_c, 11, 76, 0
15, 19830, Note_on_c, 11, 78, 76
15, 19859, Note_on_c, 11, 78, 0
15, 19860, Note_on_c, 11, 75, 76
15, 19889, Note_on_c, 11, 75, 0
15, 19890, Note_on_c, 11, 76, 76
15, 19919, Note_on_c, 11, 76, 0
15, 19920, Note_on_c, 11, 75, 76
15, 20144, Note_on_c, 11, 75, 0
15, 20160, Note_on_c, 11, 76, 76
15, 20264, Note_on_c, 11, 76, 0
15, 20280, Note_on_c, 11, 76, 76
15, 20384, Note_on_c, 11, 76, 0
15, 20400, Note_on_c, 11, 78, 76
15, 20504, Note_on_c, 11, 78, 0
15, 20520, Note_on_c, 11, 75, 76
15, 20624, Note_on_c, 11, 75, 0
15, 20640, Note_on_c, 11, 71, 76
15, 20744, Note_on_c, 11, 71, 0
15, 20760, Note_on_c, 11, 71, 76
15, 20864, Note_on_c, 11, 71, 0
15, 20880, Note_on_c, 11, 76, 76
15, 20931, Note_on_c, 11, 76, 0
15, 20940, Note_on_c, 11, 75, 76
15, 20991, Note_on_c, 11, 75, 0
15, 21000, Note_on_c, 11, 76, 76
15, 21104, Note_on_c, 11, 76, 0
15, 21120, Note_on_c, 11, 81, 76
15, 21224, Note_on_c, 11, 81, 0
15, 21240, Note_on_c, 11, 75, 76
15, 21344, Note_on_c, 11, 75, 0
15, 21360, Note_on_c, 11, 76, 76
15, 21584, Note_on_c, 11, 76, 0
15, 21600, Note_on_c, 11, 70, 76
15, 21704, Note_on_c, 11, 70, 0
15, 21720, Note_on_c, 11, 71, 76
15, 21824, Note_on_c, 11, 71, 0
15, 21840, Note_on_c, 11, 74, 76
15, 21944, Note_on_c, 11, 74, 0
15, 21960, Note_on_c, 11, 73, 76
15, 22064, Note_on_c, 11, 73, 0
15, 22080, Note_on_c, 11, 66, 76
15, 22184, Note_on_c, 11, 66, 0
15, 22200, Note_on_c, 11, 71, 76
15, 22304, Note_on_c, 11, 71, 0
15, 22320, Note_on_c, 11, 71, 76
15, 22424, Note_on_c, 11, 71, 0
15, 22440, Note_on_c, 11, 76, 76
15, 22544, Note_on_c, 11, 76, 0
15, 22560, Note_on_c, 11, 74, 76
15, 22664, Note_on_c, 11, 74, 0
15, 22680, Note_on_c, 11, 73, 76
15, 22784, Note_on_c, 11, 73, 0
15, 22800, Note_on_c, 11, 74, 76
15, 22851, Note_on_c, 11, 74, 0
15, 22860, Note_on_c, 11, 76, 76
15, 22911, Note_on_c, 11, 76, 0
15, 22920, Note_on_c, 11, 74, 76
15, 23024, Note_on_c, 11, 74, 0
15, 23040, Note_on_c, 11, 71, 76
15, 23144, Note_on_c, 11, 71, 0
15, 23160, Note_on_c, 11, 71, 76
15, 23264, Note_on_c, 11, 71, 0
15, 23280, Note_on_c, 11, 76, 76
15, 23384, Note_on_c, 11, 76, 0
15, 23400, Note_on_c, 11, 73, 76
15, 23639, Note_on_c, 11, 73, 0
15, 23760, Note_on_c, 11, 73, 76
15, 23864, Note_on_c, 11, 73, 0
15, 23880, Note_on_c, 11, 74, 76
15, 23984, Note_on_c, 11, 74, 0
15, 24000, Note_on_c, 11, 76, 76
15, 24104, Note_on_c, 11, 76, 0
15, 24120, Note_on_c, 11, 73, 76
15, 24359, Note_on_c, 11, 73, 0
15, 24480, Note_on_c, 11, 73, 76
15, 24584, Note_on_c, 11, 73, 0
15, 24600, Note_on_c, 11, 73, 76
15, 24704, Note_on_c, 11, 73, 0
15, 24720, Note_on_c, 11, 71, 76
15, 24771, Note_on_c, 11, 71, 0
15, 24780, Note_on_c, 11, 70, 76
15, 24831, Note_on_c, 11, 70, 0
15, 24840, Note_on_c, 11, 71, 76
15, 25079, Note_on_c, 11, 71, 0
15, 25200, Note_on_c, 11, 71, 76
15, 25304, Note_on_c, 11, 71, 0
15, 25320, Note_on_c, 11, 70, 76
15, 25424, Note_on_c, 11, 70, 0
15, 25440, Note_on_c, 11, 71, 76
15, 25544, Note_on_c, 11, 71, 0
15, 25560, Note_on_c, 11, 73, 76
15, 25904, Note_on_c, 11, 73, 0
15, 25920, Note_on_c, 11, 76, 76
15, 26024, Note_on_c, 11, 76, 0
15, 26040, Note_on_c, 11, 74, 76
15, 26144, Note_on_c, 11, 74, 0
15, 26160, Note_on_c, 11, 73, 76
15, 26264, Note_on_c, 11, 73, 0
15, 26280, Note_on_c, 11, 71, 76
15, 26384, Note_on_c, 11, 71, 0
15, 26400, Note_on_c, 11, 66, 76
15, 26504, Note_on_c, 11, 66, 0
15, 26520, Note_on_c, 11, 67, 76
15, 26624, Note_on_c, 11, 67, 0
15, 26640, Note_on_c, 11, 66, 76
15, 26744, Note_on_c, 11, 66, 0
15, 26760, Note_on_c, 11, 71, 76
15, 26864, Note_on_c, 11, 71, 0
15, 26880, Note_on_c, 11, 76, 76
15, 26984, Note_on_c, 11, 76, 0
15, 27000, Note_on_c, 11, 73, 76
15, 27104, Note_on_c, 11, 73, 0
15, 27120, Note_on_c, 11, 71, 76
15, 27171, Note_on_c, 11, 71, 0
15, 27180, Note_on_c, 11, 70, 76
15, 27231, Note_on_c, 11, 70, 0
15, 27240, Note_on_c, 11, 71, 76
15, 27344, Note_on_c, 11, 71, 0
15, 27360, Note_on_c, 11, 71, 76
15, 27464, Note_on_c, 11, 71, 0
15, 27480, Note_on_c, 11, 76, 76
15, 27584, Note_on_c, 11, 76, 0
15, 27600, Note_on_c, 11, 74, 76
15, 27704, Note_on_c, 11, 74, 0
15, 27720, Note_on_c, 11, 67, 76
15, 27824, Note_on_c, 11, 67, 0
15, 27840, Note_on_c, 11, 66, 76
15, 27891, Note_on_c, 11, 66, 0
15, 27900, Note_on_c, 11, 64, 76
15, 27951, Note_on_c, 11, 64, 0
15, 27960, Note_on_c, 11, 62, 76
15, 28064, Note_on_c, 11, 62, 0
15, 28080, Note_on_c, 11, 67, 76
15, 28184, Note_on_c, 11, 67, 0
15, 28200, Note_on_c, 11, 66, 76
15, 28304, Note_on_c, 11, 66, 0
15, 28320, Note_on_c, 11, 66, 76
15, 28424, Note_on_c, 11, 66, 0
15, 28440, Note_on_c, 11, 66, 76
15, 28679, Note_on_c, 11, 66, 0
15, 28800, Note_on_c, 11, 62, 76
15, 28851, Note_on_c, 11, 62, 0
15, 28860, Note_on_c, 11, 61, 76
15, 28911, Note_on_c, 11, 61, 0
15, 28920, Note_on_c, 11, 62, 76
15, 29024, Note_on_c, 11, 62, 0
15, 29040, Note_on_c, 11, 62, 76
15, 29144, Note_on_c, 11, 62, 0
15, 29160, Note_on_c, 11, 62, 76
15, 29264, Note_on_c, 11, 62, 0
15, 29280, Note_on_c, 11, 69, 76
15, 29331, Note_on_c, 11, 69, 0
15, 29340, Note_on_c, 11, 67, 76
15, 29391, Note_on_c, 11, 67, 0
15, 29400, Note_on_c, 11, 69, 76
15, 29504, Note_on_c, 11, 69, 0
15, 29520, Note_on_c, 11, 62, 76
15, 29571, Note_on_c, 11, 62, 0
15, 29580, Note_on_c, 11, 64, 76
15, 29631, Note_on_c, 11, 64, 0
15, 29640, Note_on_c, 11, 66, 76
15, 29691, Note_on_c, 11, 66, 0
15, 29700, Note_on_c, 11, 67, 76
15, 29751, Note_on_c, 11, 67, 0
15, 29760, Note_on_c, 11, 69, 76
15, 29864, Note_on_c, 11, 69, 0
15, 29880, Note_on_c, 11, 69, 76
15, 29909, Note_on_c, 11, 69, 0
15, 29910, Note_on_c, 11, 71, 76
15, 29939, Note_on_c, 11, 71, 0
15, 29940, Note_on_c, 11, 67, 76
15, 29969, Note_on_c, 11, 67, 0
15, 29970, Note_on_c, 11, 69, 76
15, 29999, Note_on_c, 11, 69, 0
15, 30000, Note_on_c, 11, 67, 76
15, 30224, Note_on_c, 11, 67, 0
15, 30240, Note_on_c, 11, 67, 76
15, 30291, Note_on_c, 11, 67, 0
15, 30300, Note_on_c, 11, 66, 76
15, 30351, Note_on_c, 11, 66, 0
15, 30360, Note_on_c, 11, 67, 76
15, 30464, Note_on_c, 11, 67, 0
15, 30480, Note_on_c, 11, 69, 76
15, 30584, Note_on_c, 11, 69, 0
15, 30600, Note_on_c, 11, 71, 76
15, 30704, Note_on_c, 11, 71, 0
15, 30720, Note_on_c, 11, 74, 76
15, 30771, Note_on_c, 11, 74, 0
15, 30780, Note_on_c, 11, 73, 76
15, 30831, Note_on_c, 11, 73, 0
15, 30840, Note_on_c, 11, 71, 76
15, 30944, Note_on_c, 11, 71, 0
15, 30960, Note_on_c, 11, 64, 76
15, 31011, Note_on_c, 11, 64, 0
15, 31020, Note_on_c, 11, 66, 76
15, 31071, Note_on_c, 11, 66, 0
15, 31080, Note_on_c, 11, 68, 76
15, 31131, Note_on_c, 11, 68, 0
15, 31140, Note_on_c, 11, 69, 76
15, 31191, Note_on_c, 11, 69, 0
15, 31200, Note_on_c, 11, 71, 76
15, 31251, Note_on_c, 11, 71, 0
15, 31260, Note_on_c, 11, 73, 76
15, 31311, Note_on_c, 11, 73, 0
15, 31320, Note_on_c, 11, 71, 76
15, 31349, Note_on_c, 11, 71, 0
15, 31350, Note_on_c, 11, 73, 76
15, 31379, Note_on_c, 11, 73, 0
15, 31380, Note_on_c, 11, 69, 76
15, 31409, Note_on_c, 11, 69, 0
15, 31410, Note_on_c, 11, 71, 76
15, 31439, Note_on_c, 11, 71, 0
15, 31440, Note_on_c, 11, 69, 76
15, 31664, Note_on_c, 11, 69, 0
15, 31680, Note_on_c, 11, 73, 76
15, 31731, Note_on_c, 11, 73, 0
15, 31740, Note_on_c, 11, 71, 76
15, 31791, Note_on_c, 11, 71, 0
15, 31800, Note_on_c, 11, 74, 76
15, 31889, Note_on_c, 11, 74, 0
15, 31920, Note_on_c, 11, 73, 76
15, 32009, Note_on_c, 11, 73, 0
15, 32040, Note_on_c, 11, 71, 76
15, 32069, Note_on_c, 11, 71, 0
15, 32070, Note_on_c, 11, 73, 76
15, 32099, Note_on_c, 11, 73, 0
15, 32100, Note_on_c, 11, 69, 76
15, 32129, Note_on_c, 11, 69, 0
15, 32130, Note_on_c, 11, 71, 76
15, 32159, Note_on_c, 11, 71, 0
15, 32160, Note_on_c, 11, 73, 76
15, 32384, Note_on_c, 11, 73, 0
15, 32400, Note_on_c, 11, 76, 76
15, 32451, Note_on_c, 11, 76, 0
15, 32460, Note_on_c, 11, 74, 76
15, 32511, Note_on_c, 11, 74, 0
15, 32520, Note_on_c, 11, 73, 76
15, 32609, Note_on_c, 11, 73, 0
15, 32640, Note_on_c, 11, 76, 76
15, 32729, Note_on_c, 11, 76, 0
15, 32760, Note_on_c, 11, 74, 76
15, 32789, Note_on_c, 11, 74, 0
15, 32790, Note_on_c, 11, 76, 76
15, 32819, Note_on_c, 11, 76, 0
15, 32820, Note_on_c, 11, 73, 76
15, 32849, Note_on_c, 11, 73, 0
15, 32850, Note_on_c, 11, 74, 76
15, 32879, Note_on_c, 11, 74, 0
15, 32880, Note_on_c, 11, 73, 76
15, 33104, Note_on_c, 11, 73, 0
15, 33120, Note_on_c, 11, 74, 76
15, 33171, Note_on_c, 11, 74, 0
15, 33180, Note_on_c, 11, 73, 76
15, 33231, Note_on_c, 11, 73, 0
15, 33240, Note_on_c, 11, 76, 76
15, 33329, Note_on_c, 11, 76, 0
15, 33360, Note_on_c, 11, 74, 76
15, 33449, Note_on_c, 11, 74, 0
15, 33480, Note_on_c, 11, 73, 76
15, 33599, Note_on_c, 11, 73, 0
15, 33720, Note_on_c, 11, 74, 76
15, 33839, Note_on_c, 11, 74, 0
15, 33960, Note_on_c, 11, 69, 76
15, 34079, Note_on_c, 11, 69, 0
15, 34200, Note_on_c, 11, 70, 76
15, 34319, Note_on_c, 11, 70, 0
15, 34440, Note_on_c, 11, 67, 76
15, 34559, Note_on_c, 11, 67, 0
15, 34680, Note_on_c, 11, 69, 76
15, 34799, Note_on_c, 11, 69, 0
15, 34920, Note_on_c, 11, 74, 76
15, 35039, Note_on_c, 11, 74, 0
15, 35160, Note_on_c, 11, 74, 76
15, 35279, Note_on_c, 11, 74, 0
15, 35400, Note_on_c, 11, 74, 76
15, 35519, Note_on_c, 11, 74, 0
15, 35640, Note_on_c, 11, 71, 76
15, 35744, Note_on_c, 11, 71, 0
15, 35760, Note_on_c, 11, 73, 76
15, 35984, Note_on_c, 11, 73, 0
15, 36000, Note_on_c, 11, 73, 76
15, 36104, Note_on_c, 11, 73, 0
15, 36120, Note_on_c, 11, 74, 76
15, 36224, Note_on_c, 11, 74, 0
15, 36240, Note_on_c, 11, 76, 76
15, 36344, Note_on_c, 11, 76, 0
15, 36360, Note_on_c, 11, 74, 76
15, 36464, Note_on_c, 11, 74, 0
15, 36480, Note_on_c, 11, 74, 76
15, 36584, Note_on_c, 11, 74, 0
15, 36600, Note_on_c, 11, 76, 76
15, 36704, Note_on_c, 11, 76, 0
15, 36720, Note_on_c, 11, 78, 76
15, 36824, Note_on_c, 11, 78, 0
15, 36840, Note_on_c, 11, 79, 76
15, 36944, Note_on_c, 11, 79, 0
15, 36960, Note_on_c, 11, 76, 76
15, 37064, Note_on_c, 11, 76, 0
15, 37080, Note_on_c, 11, 74, 76
15, 37184, Note_on_c, 11, 74, 0
15, 37200, Note_on_c, 11, 71, 76
15, 37251, Note_on_c, 11, 71, 0
15, 37260, Note_on_c, 11, 73, 76
15, 37311, Note_on_c, 11, 73, 0
15, 37320, Note_on_c, 11, 74, 76
15, 37424, Note_on_c, 11, 74, 0
15, 37440, Note_on_c, 11, 74, 76
15, 37544, Note_on_c, 11, 74, 0
15, 37560, Note_on_c, 11, 74, 76
15, 37664, Note_on_c, 11, 74, 0
15, 37680, Note_on_c, 11, 74, 76
15, 37784, Note_on_c, 11, 74, 0
15, 37800, Note_on_c, 11, 74, 76
15, 37904, Note_on_c, 11, 74, 0
15, 37920, Note_on_c, 11, 73, 76
15, 38039, Note_on_c, 11, 73, 0
15, 38160, Note_on_c, 11, 76, 76
15, 38264, Note_on_c, 11, 76, 0
15, 38280, Note_on_c, 11, 78, 76
15, 38384, Note_on_c, 11, 78, 0
15, 38400, Note_on_c, 11, 79, 76
15, 38504, Note_on_c, 11, 79, 0
15, 38520, Note_on_c, 11, 76, 76
15, 38759, Note_on_c, 11, 76, 0
15, 38880, Note_on_c, 11, 76, 76
15, 38984, Note_on_c, 11, 76, 0
15, 39000, Note_on_c, 11, 76, 76
15, 39029, Note_on_c, 11, 76, 0
15, 39030, Note_on_c, 11, 78, 76
15, 39059, Note_on_c, 11, 78, 0
15, 39060, Note_on_c, 11, 74, 76
15, 39089, Note_on_c, 11, 74, 0
15, 39090, Note_on_c, 11, 76, 76
15, 39119, Note_on_c, 11, 76, 0
15, 39120, Note_on_c, 11, 74, 76
15, 39171, Note_on_c, 11, 74, 0
15, 39180, Note_on_c, 11, 73, 76
15, 39231, Note_on_c, 11, 73, 0
15, 39240, Note_on_c, 11, 74, 76
15, 39479, Note_on_c, 11, 74, 0
15, 39600, Note_on_c, 11, 74, 76
15, 39704, Note_on_c, 11, 74, 0
15, 39720, Note_on_c, 11, 73, 76
15, 39824, Note_on_c, 11, 73, 0
15, 39840, Note_on_c, 11, 74, 76
15, 39944, Note_on_c, 11, 74, 0
15, 39960, Note_on_c, 11, 76, 76
15, 40304, Note_on_c, 11, 76, 0
15, 40320, Note_on_c, 11, 73, 76
15, 40424, Note_on_c, 11, 73, 0
15, 40440, Note_on_c, 11, 74, 76
15, 40544, Note_on_c, 11, 74, 0
15, 40560, Note_on_c, 11, 76, 76
15, 40664, Note_on_c, 11, 76, 0
15, 40680, Note_on_c, 11, 74, 76
15, 40784, Note_on_c, 11, 74, 0
15, 40800, Note_on_c, 11, 69, 76
15, 40904, Note_on_c, 11, 69, 0
15, 40920, Note_on_c, 11, 71, 76
15, 41024, Note_on_c, 11, 71, 0
15, 41040, Note_on_c, 11, 69, 76
15, 41091, Note_on_c, 11, 69, 0
15, 41100, Note_on_c, 11, 67, 76
15, 41151, Note_on_c, 11, 67, 0
15, 41160, Note_on_c, 11, 66, 76
15, 41264, Note_on_c, 11, 66, 0
15, 41280, Note_on_c, 11, 71, 76
15, 41384, Note_on_c, 11, 71, 0
15, 41400, Note_on_c, 11, 76, 76
15, 41504, Note_on_c, 11, 76, 0
15, 41520, Note_on_c, 11, 74, 76
15, 41571, Note_on_c, 11, 74, 0
15, 41580, Note_on_c, 11, 73, 76
15, 41631, Note_on_c, 11, 73, 0
15, 41640, Note_on_c, 11, 74, 76
15, 41744, Note_on_c, 11, 74, 0
15, 41760, Note_on_c, 11, 62, 76
15, 41864, Note_on_c, 11, 62, 0
15, 41880, Note_on_c, 11, 69, 76
15, 41984, Note_on_c, 11, 69, 0
15, 42000, Note_on_c, 11, 69, 76
15, 42104, Note_on_c, 11, 69, 0
15, 42120, Note_on_c, 11, 74, 76
15, 42224, Note_on_c, 11, 74, 0
15, 42240, Note_on_c, 11, 73, 76
15, 42344, Note_on_c, 11, 73, 0
15, 42360, Note_on_c, 11, 74, 76
15, 42464, Note_on_c, 11, 74, 0
15, 42480, Note_on_c, 11, 71, 76
15, 42584, Note_on_c, 11, 71, 0
15, 42600, Note_on_c, 11, 69, 76
15, 42704, Note_on_c, 11, 69, 0
15, 42720, Note_on_c, 11, 69, 76
15, 42824, Note_on_c, 11, 69, 0
15, 42840, Note_on_c, 11, 69, 76
15, 43199, Note_on_c, 11, 69, 0
15, 43920, Note_on_c, 11, 78, 76
15, 44024, Note_on_c, 11, 78, 0
15, 44040, Note_on_c, 11, 69, 76
15, 44144, Note_on_c, 11, 69, 0
15, 44160, Note_on_c, 11, 73, 76
15, 44264, Note_on_c, 11, 73, 0
15, 44280, Note_on_c, 11, 74, 76
15, 44309, Note_on_c, 11, 74, 0
15, 44310, Note_on_c, 11, 76, 76
15, 44339, Note_on_c, 11, 76, 0
15, 44340, Note_on_c, 11, 73, 76
15, 44369, Note_on_c, 11, 73, 0
15, 44370, Note_on_c, 11, 74, 76
15, 44399, Note_on_c, 11, 74, 0
15, 44400, Note_on_c, 11, 73, 76
15, 44639, Note_on_c, 11, 73, 0
15, 45360, Note_on_c, 11, 79, 76
15, 45464, Note_on_c, 11, 79, 0
15, 45480, Note_on_c, 11, 71, 76
15, 45584, Note_on_c, 11, 71, 0
15, 45600, Note_on_c, 11, 75, 76
15, 45704, Note_on_c, 11, 75, 0
15, 45720, Note_on_c, 11, 76, 76
15, 45749, Note_on_c, 11, 76, 0
15, 45750, Note_on_c, 11, 78, 76
15, 45779, Note_on_c, 11, 78, 0
15, 45780, Note_on_c, 11, 75, 76
15, 45809, Note_on_c, 11, 75, 0
15, 45810, Note_on_c, 11, 76, 76
15, 45839, Note_on_c, 11, 76, 0
15, 45840, Note_on_c, 11, 75, 76
15, 46064, Note_on_c, 11, 75, 0
15, 46080, Note_on_c, 11, 76, 76
15, 46184, Note_on_c, 11, 76, 0
15, 46200, Note_on_c, 11, 76, 76
15, 46304, Note_on_c, 11, 76, 0
15, 46320, Note_on_c, 11, 78, 76
15, 46424, Note_on_c, 11, 78, 0
15, 46440, Note_on_c, 11, 75, 76
15, 46544, Note_on_c, 11, 75, 0
15, 46560, Note_on_c, 11, 71, 76
15, 46664, Note_on_c, 11, 71, 0
15, 46680, Note_on_c, 11, 71, 76
15, 46784, Note_on_c, 11, 71, 0
15, 46800, Note_on_c, 11, 76, 76
15, 46851, Note_on_c, 11, 76, 0
15, 46860, Note_on_c, 11, 75, 76
15, 46911, Note_on_c, 11, 75, 0
15, 46920, Note_on_c, 11, 76, 76
15, 47024, Note_on_c, 11, 76, 0
15, 47040, Note_on_c, 11, 81, 76
15, 47144, Note_on_c, 11, 81, 0
15, 47160, Note_on_c, 11, 75, 76
15, 47264, Note_on_c, 11, 75, 0
15, 47280, Note_on_c, 11, 76, 76
15, 47504, Note_on_c, 11, 76, 0
15, 47520, Note_on_c, 11, 70, 76
15, 47624, Note_on_c, 11, 70, 0
15, 47640, Note_on_c, 11, 71, 76
15, 47744, Note_on_c, 11, 71, 0
15, 47760, Note_on_c, 11, 74, 76
15, 47864, Note_on_c, 11, 74, 0
15, 47880, Note_on_c, 11, 73, 76
15, 47984, Note_on_c, 11, 73, 0
15, 48000, Note_on_c, 11, 66, 76
15, 48104, Note_on_c, 11, 66, 0
15, 48120, Note_on_c, 11, 71, 76
15, 48224, Note_on_c, 11, 71, 0
15, 48240, Note_on_c, 11, 71, 76
15, 48344, Note_on_c, 11, 71, 0
15, 48360, Note_on_c, 11, 76, 76
15, 48464, Note_on_c, 11, 76, 0
15, 48480, Note_on_c, 11, 74, 76
15, 48584, Note_on_c, 11, 74, 0
15, 48600, Note_on_c, 11, 73, 76
15, 48704, Note_on_c, 11, 73, 0
15, 48720, Note_on_c, 11, 74, 76
15, 48771, Note_on_c, 11, 74, 0
15, 48780, Note_on_c, 11, 76, 76
15, 48831, Note_on_c, 11, 76, 0
15, 48840, Note_on_c, 11, 74, 76
15, 48944, Note_on_c, 11, 74, 0
15, 48960, Note_on_c, 11, 71, 76
15, 49064, Note_on_c, 11, 71, 0
15, 49080, Note_on_c, 11, 71, 76
15, 49184, Note_on_c, 11, 71, 0
15, 49200, Note_on_c, 11, 76, 76
15, 49304, Note_on_c, 11, 76, 0
15, 49320, Note_on_c, 11, 73, 76
15, 49559, Note_on_c, 11, 73, 0
15, 49680, Note_on_c, 11, 73, 76
15, 49784, Note_on_c, 11, 73, 0
15, 49800, Note_on_c, 11, 74, 76
15, 49904, Note_on_c, 11, 74, 0
15, 49920, Note_on_c, 11, 76, 76
15, 50024, Note_on_c, 11, 76, 0
15, 50040, Note_on_c, 11, 73, 76
15, 50279, Note_on_c, 11, 73, 0
15, 50400, Note_on_c, 11, 73, 76
15, 50504, Note_on_c, 11, 73, 0
15, 50520, Note_on_c, 11, 73, 76
15, 50624, Note_on_c, 11, 73, 0
15, 50640, Note_on_c, 11, 71, 76
15, 50691, Note_on_c, 11, 71, 0
15, 50700, Note_on_c, 11, 70, 76
15, 50751, Note_on_c, 11, 70, 0
15, 50760, Note_on_c, 11, 71, 76
15, 50999, Note_on_c, 11, 71, 0
15, 51120, Note_on_c, 11, 71, 76
15, 51224, Note_on_c, 11, 71, 0
15, 51240, Note_on_c, 11, 70, 76
15, 51344, Note_on_c, 11, 70, 0
15, 51360, Note_on_c, 11, 71, 76
15, 51464, Note_on_c, 11, 71, 0
15, 51480, Note_on_c, 11, 73, 76
15, 51824, Note_on_c, 11, 73, 0
15, 51840, Note_on_c, 11, 76, 76
15, 51944, Note_on_c, 11, 76, 0
15, 51960, Note_on_c, 11, 74, 76
15, 52064, Note_on_c, 11, 74, 0
15, 52080, Note_on_c, 11, 73, 76
15, 52184, Note_on_c, 11, 73, 0
15, 52200, Note_on_c, 11, 71, 76
15, 52304, Note_on_c, 11, 71, 0
15, 52320, Note_on_c, 11, 66, 76
15, 52424, Note_on_c, 11, 66, 0
15, 52440, Note_on_c, 11, 67, 76
15, 52544, Note_on_c, 11, 67, 0
15, 52560, Note_on_c, 11, 66, 76
15, 52664, Note_on_c, 11, 66, 0
15, 52680, Note_on_c, 11, 71, 76
15, 52784, Note_on_c, 11, 71, 0
15, 52800, Note_on_c, 11, 76, 76
15, 52904, Note_on_c, 11, 76, 0
15, 52920, Note_on_c, 11, 73, 76
15, 53024, Note_on_c, 11, 73, 0
15, 53040, Note_on_c, 11, 71, 76
15, 53091, Note_on_c, 11, 71, 0
15, 53100, Note_on_c, 11, 70, 76
15, 53151, Note_on_c, 11, 70, 0
15, 53160, Note_on_c, 11, 71, 76
15, 53264, Note_on_c, 11, 71, 0
15, 53280, Note_on_c, 11, 71, 76
15, 53384, Note_on_c, 11, 71, 0
15, 53400, Note_on_c, 11, 76, 76
15, 53504, Note_on_c, 11, 76, 0
15, 53520, Note_on_c, 11, 74, 76
15, 53624, Note_on_c, 11, 74, 0
15, 53640, Note_on_c, 11, 67, 76
15, 53744, Note_on_c, 11, 67, 0
15, 53760, Note_on_c, 11, 66, 76
15, 53811, Note_on_c, 11, 66, 0
15, 53820, Note_on_c, 11, 64, 76
15, 53871, Note_on_c, 11, 64, 0
15, 53880, Note_on_c, 11, 62, 76
15, 53984, Note_on_c, 11, 62, 0
15, 54000, Note_on_c, 11, 67, 76
15, 54104, Note_on_c, 11, 67, 0
15, 54120, Note_on_c, 11, 66, 76
15, 54224, Note_on_c, 11, 66, 0
15, 54240, Note_on_c, 11, 66, 76
15, 54344, Note_on_c, 11, 66, 0
15, 54360, Note_on_c, 11, 66, 76
15, 54599, Note_on_c, 11, 66, 0
15, 54720, Note_on_c, 11, 62, 76
15, 54771, Note_on_c, 11, 62, 0
15, 54780, Note_on_c, 11, 61, 76
15, 54831, Note_on_c, 11, 61, 0
15, 54840, Note_on_c, 11, 62, 76
15, 54944, Note_on_c, 11, 62, 0
15, 54960, Note_on_c, 11, 62, 76
15, 55064, Note_on_c, 11, 62, 0
15, 55080, Note_on_c, 11, 62, 76
15, 55184, Note_on_c, 11, 62, 0
15, 55200, Note_on_c, 11, 69, 76
15, 55251, Note_on_c, 11, 69, 0
15, 55260, Note_on_c, 11, 67, 76
15, 55311, Note_on_c, 11, 67, 0
15, 55320, Note_on_c, 11, 69, 76
15, 55424, Note_on_c, 11, 69, 0
15, 55440, Note_on_c, 11, 62, 76
15, 55491, Note_on_c, 11, 62, 0
15, 55500, Note_on_c, 11, 64, 76
15, 55551, Note_on_c, 11, 64, 0
15, 55560, Note_on_c, 11, 66, 76
15, 55611, Note_on_c, 11, 66, 0
15, 55620, Note_on_c, 11, 67, 76
15, 55671, Note_on_c, 11, 67, 0
15, 55680, Note_on_c, 11, 69, 76
15, 55784, Note_on_c, 11, 69, 0
15, 55800, Note_on_c, 11, 69, 76
15, 55829, Note_on_c, 11, 69, 0
15, 55830, Note_on_c, 11, 71, 76
15, 55859, Note_on_c, 11, 71, 0
15, 55860, Note_on_c, 11, 67, 76
15, 55889, Note_on_c, 11, 67, 0
15, 55890, Note_on_c, 11, 69, 76
15, 55919, Note_on_c, 11, 69, 0
15, 55920, Note_on_c, 11, 67, 76
15, 56144, Note_on_c, 11, 67, 0
15, 56160, Note_on_c, 11, 67, 76
15, 56211, Note_on_c, 11, 67, 0
15, 56220, Note_on_c, 11, 66, 76
15, 56271, Note_on_c, 11, 66, 0
15, 56280, Note_on_c, 11, 67, 76
15, 56384, Note_on_c, 11, 67, 0
15, 56400, Note_on_c, 11, 69, 76
15, 56504, Note_on_c, 11, 69, 0
15, 56520, Note_on_c, 11, 71, 76
15, 56624, Note_on_c, 11, 71, 0
15, 56640, Note_on_c, 11, 74, 76
15, 56691, Note_on_c, 11, 74, 0
15, 56700, Note_on_c, 11, 73, 76
15, 56751, Note_on_c, 11, 73, 0
15, 56760, Note_on_c, 11, 71, 76
15, 56864, Note_on_c, 11, 71, 0
15, 56880, Note_on_c, 11, 64, 76
15, 56931, Note_on_c, 11, 64, 0
15, 56940, Note_on_c, 11, 66, 76
15, 56991, Note_on_c, 11, 66, 0
15, 57000, Note_on_c, 11, 68, 76
15, 57051, Note_on_c, 11, 68, 0
15, 57060, Note_on_c, 11, 69, 76
15, 57111, Note_on_c, 11, 69, 0
15, 57120, Note_on_c, 11, 71, 76
15, 57171, Note_on_c, 11, 71, 0
15, 57180, Note_on_c, 11, 73, 76
15, 57231, Note_on_c, 11, 73, 0
15, 57240, Note_on_c, 11, 71, 76
15, 57269, Note_on_c, 11, 71, 0
15, 57270, Note_on_c, 11, 73, 76
15, 57299, Note_on_c, 11, 73, 0
15, 57300, Note_on_c, 11, 69, 76
15, 57329, Note_on_c, 11, 69, 0
15, 57330, Note_on_c, 11, 71, 76
15, 57359, Note_on_c, 11, 71, 0
15, 57360, Note_on_c, 11, 69, 76
15, 57584, Note_on_c, 11, 69, 0
15, 57600, Note_on_c, 11, 73, 76
15, 57651, Note_on_c, 11, 73, 0
15, 57660, Note_on_c, 11, 71, 76
15, 57711, Note_on_c, 11, 71, 0
15, 57720, Note_on_c, 11, 74, 76
15, 57809, Note_on_c, 11, 74, 0
15, 57840, Note_on_c, 11, 73, 76
15, 57929, Note_on_c, 11, 73, 0
15, 57960, Note_on_c, 11, 71, 76
15, 57989, Note_on_c, 11, 71, 0
15, 57990, Note_on_c, 11, 73, 76
15, 58019, Note_on_c, 11, 73, 0
15, 58020, Note_on_c, 11, 69, 76
15, 58049, Note_on_c, 11, 69, 0
15, 58050, Note_on_c, 11, 71, 76
15, 58079, Note_on_c, 11, 71, 0
15, 58080, Note_on_c, 11, 73, 76
15, 58304, Note_on_c, 11, 73, 0
15, 58320, Note_on_c, 11, 76, 76
15, 58371, Note_on_c, 11, 76, 0
15, 58380, Note_on_c, 11, 74, 76
15, 58431, Note_on_c, 11, 74, 0
15, 58440, Note_on_c, 11, 73, 76
15, 58529, Note_on_c, 11, 73, 0
15, 58560, Note_on_c, 11, 76, 76
15, 58649, Note_on_c, 11, 76, 0
15, 58680, Note_on_c, 11, 74, 76
15, 58709, Note_on_c, 11, 74, 0
15, 58710, Note_on_c, 11, 76, 76
15, 58739, Note_on_c, 11, 76, 0
15, 58740, Note_on_c, 11, 73, 76
15, 58769, Note_on_c, 11, 73, 0
15, 58770, Note_on_c, 11, 74, 76
15, 58799, Note_on_c, 11, 74, 0
15, 58800, Note_on_c, 11, 73, 76
15, 59024, Note_on_c, 11, 73, 0
15, 59040, Note_on_c, 11, 74, 76
15, 59091, Note_on_c, 11, 74, 0
15, 59100, Note_on_c, 11, 73, 76
15, 59151, Note_on_c, 11, 73, 0
15, 59160, Note_on_c, 11, 76, 76
15, 59249, Note_on_c, 11, 76, 0
15, 59280, Note_on_c, 11, 74, 76
15, 59369, Note_on_c, 11, 74, 0
15, 59400, Note_on_c, 11, 73, 76
15, 59519, Note_on_c, 11, 73, 0
15, 59640, Note_on_c, 11, 74, 76
15, 59759, Note_on_c, 11, 74, 0
15, 59880, Note_on_c, 11, 69, 76
15, 59999, Note_on_c, 11, 69, 0
15, 60120, Note_on_c, 11, 70, 76
15, 60239, Note_on_c, 11, 70, 0
15, 60360, Note_on_c, 11, 67, 76
15, 60479, Note_on_c, 11, 67, 0
15, 60600, Note_on_c, 11, 69, 76
15, 60719, Note_on_c, 11, 69, 0
15, 60840, Note_on_c, 11, 74, 76
15, 60959, Note_on_c, 11, 74, 0
15, 61080, Note_on_c, 11, 74, 76
15, 61199, Note_on_c, 11, 74, 0
15, 61320, Note_on_c, 11, 74, 76
15, 61439, Note_on_c, 11, 74, 0
15, 61560, Note_on_c, 11, 71, 76
15, 61664, Note_on_c, 11, 71, 0
15, 61680, Note_on_c, 11, 73, 76
15, 61904, Note_on_c, 11, 73, 0
15, 61920, Note_on_c, 11, 73, 76
15, 62024, Note_on_c, 11, 73, 0
15, 62040, Note_on_c, 11, 74, 76
15, 62144, Note_on_c, 11, 74, 0
15, 62160, Note_on_c, 11, 76, 76
15, 62264, Note_on_c, 11, 76, 0
15, 62280, Note_on_c, 11, 74, 76
15, 62384, Note_on_c, 11, 74, 0
15, 62400, Note_on_c, 11, 74, 76
15, 62504, Note_on_c, 11, 74, 0
15, 62520, Note_on_c, 11, 76, 76
15, 62624, Note_on_c, 11, 76, 0
15, 62640, Note_on_c, 11, 78, 76
15, 62744, Note_on_c, 11, 78, 0
15, 62760, Note_on_c, 11, 79, 76
15, 62864, Note_on_c, 11, 79, 0
15, 62880, Note_on_c, 11, 76, 76
15, 62984, Note_on_c, 11, 76, 0
15, 63000, Note_on_c, 11, 74, 76
15, 63104, Note_on_c, 11, 74, 0
15, 63120, Note_on_c, 11, 71, 76
15, 63171, Note_on_c, 11, 71, 0
15, 63180, Note_on_c, 11, 73, 76
15, 63231, Note_on_c, 11, 73, 0
15, 63240, Note_on_c, 11, 74, 76
15, 63344, Note_on_c, 11, 74, 0
15, 63360, Note_on_c, 11, 74, 76
15, 63464, Note_on_c, 11, 74, 0
15, 63480, Note_on_c, 11, 74, 76
15, 63584, Note_on_c, 11, 74, 0
15, 63600, Note_on_c, 11, 74, 76
15, 63704, Note_on_c, 11, 74, 0
15, 63720, Note_on_c, 11, 74, 76
15, 63824, Note_on_c, 11, 74, 0
15, 63840, Note_on_c, 11, 73, 76
15, 63959, Note_on_c, 11, 73, 0
15, 64080, Note_on_c, 11, 76, 76
15, 64184, Note_on_c, 11, 76, 0
15, 64200, Note_on_c, 11, 78, 76
15, 64304, Note_on_c, 11, 78, 0
15, 64320, Note_on_c, 11, 79, 76
15, 64424, Note_on_c, 11, 79, 0
15, 64440, Note_on_c, 11, 76, 76
15, 64679, Note_on_c, 11, 76, 0
15, 64800, Note_on_c, 11, 76, 76
15, 64904, Note_on_c, 11, 76, 0
15, 64920, Note_on_c, 11, 76, 76
15, 64949, Note_on_c, 11, 76, 0
15, 64950, Note_on_c, 11, 78, 76
15, 64979, Note_on_c, 11, 78, 0
15, 64980, Note_on_c, 11, 74, 76
15, 65009, Note_on_c, 11, 74, 0
15, 65010, Note_on_c, 11, 76, 76
15, 65039, Note_on_c, 11, 76, 0
15, 65040, Note_on_c, 11, 74, 76
15, 65091, Note_on_c, 11, 74, 0
15, 65100, Note_on_c, 11, 73, 76
15, 65151, Note_on_c, 11, 73, 0
15, 65160, Note_on_c, 11, 74, 76
15, 65399, Note_on_c, 11, 74, 0
15, 65520, Note_on_c, 11, 74, 76
15, 65624, Note_on_c, 11, 74, 0
15, 65640, Note_on_c, 11, 73, 76
15, 65744, Note_on_c, 11, 73, 0
15, 65760, Note_on_c, 11, 74, 76
15, 65864, Note_on_c, 11, 74, 0
15, 65880, Note_on_c, 11, 76, 76
15, 66224, Note_on_c, 11, 76, 0
15, 66240, Note_on_c, 11, 73, 76
15, 66344, Note_on_c, 11, 73, 0
15, 66360, Note_on_c, 11, 74, 76
15, 66464, Note_on_c, 11, 74, 0
15, 66480, Note_on_c, 11, 76, 76
15, 66584, Note_on_c, 11, 76, 0
15, 66600, Note_on_c, 11, 74, 76
15, 66704, Note_on_c, 11, 74, 0
15, 66720, Note_on_c, 11, 69, 76
15, 66824, Note_on_c, 11, 69, 0
15, 66840, Note_on_c, 11, 71, 76
15, 66944, Note_on_c, 11, 71, 0
15, 66960, Note_on_c, 11, 69, 76
15, 67011, Note_on_c, 11, 69, 0
15, 67020, Note_on_c, 11, 67, 76
15, 67071, Note_on_c, 11, 67, 0
15, 67080, Note_on_c, 11, 66, 76
15, 67184, Note_on_c, 11, 66, 0
15, 67200, Note_on_c, 11, 71, 76
15, 67304, Note_on_c, 11, 71, 0
15, 67320, Note_on_c, 11, 76, 76
15, 67424, Note_on_c, 11, 76, 0
15, 67440, Note_on_c, 11, 74, 76
15, 67491, Note_on_c, 11, 74, 0
15, 67500, Note_on_c, 11, 73, 76
15, 67551, Note_on_c, 11, 73, 0
15, 67560, Note_on_c, 11, 74, 76
15, 67664, Note_on_c, 11, 74, 0
15, 67680, Note_on_c, 11, 62, 76
15, 67784, Note_on_c, 11, 62, 0
15, 67800, Note_on_c, 11, 69, 76
15, 67904, Note_on_c, 11, 69, 0
15, 67920, Note_on_c, 11, 69, 76
15, 68024, Note_on_c, 11, 69, 0
15, 68040, Note_on_c, 11, 74, 76
15, 68144, Note_on_c, 11, 74, 0
15, 68160, Note_on_c, 11, 73, 76
15, 68264, Note_on_c, 11, 73, 0
15, 68280, Note_on_c, 11, 74, 76
15, 68384, Note_on_c, 11, 74, 0
15, 68400, Note_on_c, 11, 71, 76
15, 68504, Note_on_c, 11, 71, 0
15, 68520, Note_on_c, 11, 69, 76
15, 68624, Note_on_c, 11, 69, 0
15, 68640, Note_on_c, 11, 69, 76
15, 68744, Note_on_c, 11, 69, 0
15, 68760, Note_on_c, 11, 69, 76
15, 69119, Note_on_c, 11, 69, 0
15, 69119, End_track
16, 0, Start_track
16, 0, Title_t, "Viola"
16, 0, MIDI_port, 0
16, 0, Program_c, 12, 48
16, 0, Control_c, 12, 10, 70
16, 0, Control_c, 12, 11, 127
16, 0, Control_c, 12, 7, 96
16, 0, Note_on_c, 12, 69, 76
16, 104, Note_on_c, 12, 69, 0
16, 120, Note_on_c, 12, 69, 76
16, 224, Note_on_c, 12, 69, 0
16, 240, Note_on_c, 12, 71, 76
16, 344, Note_on_c, 12, 71, 0
16, 360, Note_on_c, 12, 69, 76
16, 464, Note_on_c, 12, 69, 0
16, 480, Note_on_c, 12, 67, 76
16, 584, Note_on_c, 12, 67, 0
16, 600, Note_on_c, 12, 66, 76
16, 704, Note_on_c, 12, 66, 0
16, 720, Note_on_c, 12, 69, 76
16, 824, Note_on_c, 12, 69, 0
16, 840, Note_on_c, 12, 69, 76
16, 944, Note_on_c, 12, 69, 0
16, 960, Note_on_c, 12, 67, 76
16, 1064, Note_on_c, 12, 67, 0
16, 1080, Note_on_c, 12, 64, 76
16, 1184, Note_on_c, 12, 64, 0
16, 1200, Note_on_c, 12, 62, 76
16, 1424, Note_on_c, 12, 62, 0
16, 1440, Note_on_c, 12, 62, 76
16, 1544, Note_on_c, 12, 62, 0
16, 1560, Note_on_c, 12, 61, 76
16, 1664, Note_on_c, 12, 61, 0
16, 1680, Note_on_c, 12, 69, 76
16, 1784, Note_on_c, 12, 69, 0
16, 1800, Note_on_c, 12, 66, 76
16, 1904, Note_on_c, 12, 66, 0
16, 1920, Note_on_c, 12, 64, 76
16, 2024, Note_on_c, 12, 64, 0
16, 2040, Note_on_c, 12, 64, 76
16, 2144, Note_on_c, 12, 64, 0
16, 2160, Note_on_c, 12, 64, 76
16, 2264, Note_on_c, 12, 64, 0
16, 2280, Note_on_c, 12, 64, 76
16, 2384, Note_on_c, 12, 64, 0
16, 2400, Note_on_c, 12, 64, 76
16, 2504, Note_on_c, 12, 64, 0
16, 2520, Note_on_c, 12, 66, 76
16, 2624, Note_on_c, 12, 66, 0
16, 2640, Note_on_c, 12, 64, 76
16, 2744, Note_on_c, 12, 64, 0
16, 2760, Note_on_c, 12, 69, 76
16, 2864, Note_on_c, 12, 69, 0
16, 2880, Note_on_c, 12, 66, 76
16, 2984, Note_on_c, 12, 66, 0
16, 3000, Note_on_c, 12, 64, 76
16, 3104, Note_on_c, 12, 64, 0
16, 3120, Note_on_c, 12, 69, 76
16, 3224, Note_on_c, 12, 69, 0
16, 3240, Note_on_c, 12, 64, 76
16, 3479, Note_on_c, 12, 64, 0
16, 3600, Note_on_c, 12, 64, 76
16, 3704, Note_on_c, 12, 64, 0
16, 3720, Note_on_c, 12, 64, 76
16, 3824, Note_on_c, 12, 64, 0
16, 3840, Note_on_c, 12, 64, 76
16, 3944, Note_on_c, 12, 64, 0
16, 3960, Note_on_c, 12, 64, 76
16, 4199, Note_on_c, 12, 64, 0
16, 4320, Note_on_c, 12, 64, 76
16, 4424, Note_on_c, 12, 64, 0
16, 4440, Note_on_c, 12, 66, 76
16, 4544, Note_on_c, 12, 66, 0
16, 4560, Note_on_c, 12, 59, 76
16, 4664, Note_on_c, 12, 59, 0
16, 4680, Note_on_c, 12, 64, 76
16, 4859, Note_on_c, 12, 64, 0
16, 5040, Note_on_c, 12, 62, 76
16, 5144, Note_on_c, 12, 62, 0
16, 5160, Note_on_c, 12, 62, 76
16, 5264, Note_on_c, 12, 62, 0
16, 5280, Note_on_c, 12, 64, 76
16, 5384, Note_on_c, 12, 64, 0
16, 5400, Note_on_c, 12, 66, 76
16, 5624, Note_on_c, 12, 66, 0
16, 5640, Note_on_c, 12, 64, 76
16, 5744, Note_on_c, 12, 64, 0
16, 5760, Note_on_c, 12, 68, 76
16, 5864, Note_on_c, 12, 68, 0
16, 5880, Note_on_c, 12, 69, 76
16, 5984, Note_on_c, 12, 69, 0
16, 6000, Note_on_c, 12, 71, 76
16, 6104, Note_on_c, 12, 71, 0
16, 6120, Note_on_c, 12, 64, 76
16, 6224, Note_on_c, 12, 64, 0
16, 6240, Note_on_c, 12, 61, 76
16, 6344, Note_on_c, 12, 61, 0
16, 6360, Note_on_c, 12, 59, 76
16, 6464, Note_on_c, 12, 59, 0
16, 6480, Note_on_c, 12, 59, 76
16, 6584, Note_on_c, 12, 59, 0
16, 6600, Note_on_c, 12, 66, 76
16, 6704, Note_on_c, 12, 66, 0
16, 6720, Note_on_c, 12, 66, 76
16, 6824, Note_on_c, 12, 66, 0
16, 6840, Note_on_c, 12, 64, 76
16, 6944, Note_on_c, 12, 64, 0
16, 6960, Note_on_c, 12, 64, 76
16, 7064, Note_on_c, 12, 64, 0
16, 7080, Note_on_c, 12, 64, 76
16, 7184, Note_on_c, 12, 64, 0
16, 7200, Note_on_c, 12, 64, 76
16, 7304, Note_on_c, 12, 64, 0
16, 7320, Note_on_c, 12, 64, 76
16, 7424, Note_on_c, 12, 64, 0
16, 7440, Note_on_c, 12, 64, 76
16, 7544, Note_on_c, 12, 64, 0
16, 7560, Note_on_c, 12, 62, 76
16, 7664, Note_on_c, 12, 62, 0
16, 7680, Note_on_c, 12, 59, 76
16, 7784, Note_on_c, 12, 59, 0
16, 7800, Note_on_c, 12, 57, 76
16, 7904, Note_on_c, 12, 57, 0
16, 7920, Note_on_c, 12, 62, 76
16, 8024, Note_on_c, 12, 62, 0
16, 8040, Note_on_c, 12, 62, 76
16, 8144, Note_on_c, 12, 62, 0
16, 8160, Note_on_c, 12, 59, 76
16, 8264, Note_on_c, 12, 59, 0
16, 8280, Note_on_c, 12, 61, 76
16, 8624, Note_on_c, 12, 61, 0
16, 8640, Note_on_c, 12, 69, 76
16, 8744, Note_on_c, 12, 69, 0
16, 8760, Note_on_c, 12, 69, 76
16, 8864, Note_on_c, 12, 69, 0
16, 8880, Note_on_c, 12, 71, 76
16, 8984, Note_on_c, 12, 71, 0
16, 9000, Note_on_c, 12, 69, 76
16, 9104, Note_on_c, 12, 69, 0
16, 9120, Note_on_c, 12, 67, 76
16, 9224, Note_on_c, 12, 67, 0
16, 9240, Note_on_c, 12, 66, 76
16, 9344, Note_on_c, 12, 66, 0
16, 9360, Note_on_c, 12, 69, 76
16, 9464, Note_on_c, 12, 69, 0
16, 9480, Note_on_c, 12, 69, 76
16, 9584, Note_on_c, 12, 69, 0
16, 9600, Note_on_c, 12, 67, 76
16, 9704, Note_on_c, 12, 67, 0
16, 9720, Note_on_c, 12, 64, 76
16, 9824, Note_on_c, 12, 64, 0
16, 9840, Note_on_c, 12, 62, 76
16, 10064, Note_on_c, 12, 62, 0
16, 10080, Note_on_c, 12, 62, 76
16, 10184, Note_on_c, 12, 62, 0
16, 10200, Note_on_c, 12, 61, 76
16, 10304, Note_on_c, 12, 61, 0
16, 10320, Note_on_c, 12, 69, 76
16, 10424, Note_on_c, 12, 69, 0
16, 10440, Note_on_c, 12, 66, 76
16, 10544, Note_on_c, 12, 66, 0
16, 10560, Note_on_c, 12, 64, 76
16, 10664, Note_on_c, 12, 64, 0
16, 10680, Note_on_c, 12, 64, 76
16, 10784, Note_on_c, 12, 64, 0
16, 10800, Note_on_c, 12, 64, 76
16, 10904, Note_on_c, 12, 64, 0
16, 10920, Note_on_c, 12, 64, 76
16, 11024, Note_on_c, 12, 64, 0
16, 11040, Note_on_c, 12, 64, 76
16, 11144, Note_on_c, 12, 64, 0
16, 11160, Note_on_c, 12, 66, 76
16, 11264, Note_on_c, 12, 66, 0
16, 11280, Note_on_c, 12, 64, 76
16, 11384, Note_on_c, 12, 64, 0
16, 11400, Note_on_c, 12, 69, 76
16, 11504, Note_on_c, 12, 69, 0
16, 11520, Note_on_c, 12, 66, 76
16, 11624, Note_on_c, 12, 66, 0
16, 11640, Note_on_c, 12, 64, 76
16, 11744, Note_on_c, 12, 64, 0
16, 11760, Note_on_c, 12, 69, 76
16, 11864, Note_on_c, 12, 69, 0
16, 11880, Note_on_c, 12, 64, 76
16, 12119, Note_on_c, 12, 64, 0
16, 12240, Note_on_c, 12, 64, 76
16, 12344, Note_on_c, 12, 64, 0
16, 12360, Note_on_c, 12, 64, 76
16, 12464, Note_on_c, 12, 64, 0
16, 12480, Note_on_c, 12, 64, 76
16, 12584, Note_on_c, 12, 64, 0
16, 12600, Note_on_c, 12, 64, 76
16, 12839, Note_on_c, 12, 64, 0
16, 12960, Note_on_c, 12, 64, 76
16, 13064, Note_on_c, 12, 64, 0
16, 13080, Note_on_c, 12, 66, 76
16, 13184, Note_on_c, 12, 66, 0
16, 13200, Note_on_c, 12, 59, 76
16, 13304, Note_on_c, 12, 59, 0
16, 13320, Note_on_c, 12, 64, 76
16, 13499, Note_on_c, 12, 64, 0
16, 13680, Note_on_c, 12, 62, 76
16, 13784, Note_on_c, 12, 62, 0
16, 13800, Note_on_c, 12, 62, 76
16, 13904, Note_on_c, 12, 62, 0
16, 13920, Note_on_c, 12, 64, 76
16, 14024, Note_on_c, 12, 64, 0
16, 14040, Note_on_c, 12, 66, 76
16, 14264, Note_on_c, 12, 66, 0
16, 14280, Note_on_c, 12, 64, 76
16, 14384, Note_on_c, 12, 64, 0
16, 14400, Note_on_c, 12, 68, 76
16, 14504, Note_on_c, 12, 68, 0
16, 14520, Note_on_c, 12, 69, 76
16, 14624, Note_on_c, 12, 69, 0
16, 14640, Note_on_c, 12, 71, 76
16, 14744, Note_on_c, 12, 71, 0
16, 14760, Note_on_c, 12, 64, 76
16, 14864, Note_on_c, 12, 64, 0
16, 14880, Note_on_c, 12, 61, 76
16, 14984, Note_on_c, 12, 61, 0
16, 15000, Note_on_c, 12, 59, 76
16, 15104, Note_on_c, 12, 59, 0
16, 15120, Note_on_c, 12, 59, 76
16, 15224, Note_on_c, 12, 59, 0
16, 15240, Note_on_c, 12, 66, 76
16, 15344, Note_on_c, 12, 66, 0
16, 15360, Note_on_c, 12, 66, 76
16, 15464, Note_on_c, 12, 66, 0
16, 15480, Note_on_c, 12, 64, 76
16, 15584, Note_on_c, 12, 64, 0
16, 15600, Note_on_c, 12, 64, 76
16, 15704, Note_on_c, 12, 64, 0
16, 15720, Note_on_c, 12, 64, 76
16, 15824, Note_on_c, 12, 64, 0
16, 15840, Note_on_c, 12, 64, 76
16, 15944, Note_on_c, 12, 64, 0
16, 15960, Note_on_c, 12, 64, 76
16, 16064, Note_on_c, 12, 64, 0
16, 16080, Note_on_c, 12, 64, 76
16, 16184, Note_on_c, 12, 64, 0
16, 16200, Note_on_c, 12, 62, 76
16, 16304, Note_on_c, 12, 62, 0
16, 16320, Note_on_c, 12, 59, 76
16, 16424, Note_on_c, 12, 59, 0
16, 16440, Note_on_c, 12, 57, 76
16, 16544, Note_on_c, 12, 57, 0
16, 16560, Note_on_c, 12, 62, 76
16, 16664, Note_on_c, 12, 62, 0
16, 16680, Note_on_c, 12, 62, 76
16, 16784, Note_on_c, 12, 62, 0
16, 16800, Note_on_c, 12, 59, 76
16, 16904, Note_on_c, 12, 59, 0
16, 16920, Note_on_c, 12, 61, 76
16, 17279, Note_on_c, 12, 61, 0
16, 18000, Note_on_c, 12, 69, 76
16, 18104, Note_on_c, 12, 69, 0
16, 18120, Note_on_c, 12, 69, 76
16, 18224, Note_on_c, 12, 69, 0
16, 18240, Note_on_c, 12, 69, 76
16, 18344, Note_on_c, 12, 69, 0
16, 18360, Note_on_c, 12, 69, 76
16, 18464, Note_on_c, 12, 69, 0
16, 18480, Note_on_c, 12, 69, 76
16, 18719, Note_on_c, 12, 69, 0
16, 19440, Note_on_c, 12, 71, 76
16, 19544, Note_on_c, 12, 71, 0
16, 19560, Note_on_c, 12, 71, 76
16, 19664, Note_on_c, 12, 71, 0
16, 19680, Note_on_c, 12, 71, 76
16, 19784, Note_on_c, 12, 71, 0
16, 19800, Note_on_c, 12, 71, 76
16, 19904, Note_on_c, 12, 71, 0
16, 19920, Note_on_c, 12, 71, 76
16, 20144, Note_on_c, 12, 71, 0
16, 20160, Note_on_c, 12, 71, 76
16, 20264, Note_on_c, 12, 71, 0
16, 20280, Note_on_c, 12, 71, 76
16, 20384, Note_on_c, 12, 71, 0
16, 20400, Note_on_c, 12, 72, 76
16, 20504, Note_on_c, 12, 72, 0
16, 20520, Note_on_c, 12, 66, 76
16, 20624, Note_on_c, 12, 66, 0
16, 20640, Note_on_c, 12, 69, 76
16, 20744, Note_on_c, 12, 69, 0
16, 20760, Note_on_c, 12, 67, 76
16, 20864, Note_on_c, 12, 67, 0
16, 20880, Note_on_c, 12, 71, 76
16, 20984, Note_on_c, 12, 71, 0
16, 21000, Note_on_c, 12, 71, 76
16, 21104, Note_on_c, 12, 71, 0
16, 21120, Note_on_c, 12, 64, 76
16, 21224, Note_on_c, 12, 64, 0
16, 21240, Note_on_c, 12, 71, 76
16, 21344, Note_on_c, 12, 71, 0
16, 21360, Note_on_c, 12, 71, 76
16, 21584, Note_on_c, 12, 71, 0
16, 21600, Note_on_c, 12, 73, 76
16, 21704, Note_on_c, 12, 73, 0
16, 21720, Note_on_c, 12, 66, 76
16, 21824, Note_on_c, 12, 66, 0
16, 21840, Note_on_c, 12, 71, 76
16, 21944, Note_on_c, 12, 71, 0
16, 21960, Note_on_c, 12, 70, 76
16, 22064, Note_on_c, 12, 70, 0
16, 22080, Note_on_c, 12, 73, 76
16, 22184, Note_on_c, 12, 73, 0
16, 22200, Note_on_c, 12, 66, 76
16, 22304, Note_on_c, 12, 66, 0
16, 22320, Note_on_c, 12, 66, 76
16, 22424, Note_on_c, 12, 66, 0
16, 22440, Note_on_c, 12, 66, 76
16, 22544, Note_on_c, 12, 66, 0
16, 22560, Note_on_c, 12, 66, 76
16, 22664, Note_on_c, 12, 66, 0
16, 22680, Note_on_c, 12, 67, 76
16, 22784, Note_on_c, 12, 67, 0
16, 22800, Note_on_c, 12, 66, 76
16, 22904, Note_on_c, 12, 66, 0
16, 22920, Note_on_c, 12, 59, 76
16, 23024, Note_on_c, 12, 59, 0
16, 23040, Note_on_c, 12, 67, 76
16, 23144, Note_on_c, 12, 67, 0
16, 23160, Note_on_c, 12, 66, 76
16, 23264, Note_on_c, 12, 66, 0
16, 23280, Note_on_c, 12, 59, 76
16, 23384, Note_on_c, 12, 59, 0
16, 23400, Note_on_c, 12, 66, 76
16, 23639, Note_on_c, 12, 66, 0
16, 23760, Note_on_c, 12, 66, 76
16, 23864, Note_on_c, 12, 66, 0
16, 23880, Note_on_c, 12, 66, 76
16, 23984, Note_on_c, 12, 66, 0
16, 24000, Note_on_c, 12, 66, 76
16, 24104, Note_on_c, 12, 66, 0
16, 24120, Note_on_c, 12, 66, 76
16, 24359, Note_on_c, 12, 66, 0
16, 24480, Note_on_c, 12, 66, 76
16, 24584, Note_on_c, 12, 66, 0
16, 24600, Note_on_c, 12, 70, 76
16, 24704, Note_on_c, 12, 70, 0
16, 24720, Note_on_c, 12, 73, 76
16, 24824, Note_on_c, 12, 73, 0
16, 24840, Note_on_c, 12, 62, 76
16, 25079, Note_on_c, 12, 62, 0
16, 25200, Note_on_c, 12, 64, 76
16, 25304, Note_on_c, 12, 64, 0
16, 25320, Note_on_c, 12, 64, 76
16, 25424, Note_on_c, 12, 64, 0
16, 25440, Note_on_c, 12, 66, 76
16, 25544, Note_on_c, 12, 66, 0
16, 25560, Note_on_c, 12, 68, 76
16, 25784, Note_on_c, 12, 68, 0
16, 25800, Note_on_c, 12, 66, 76
16, 25904, Note_on_c, 12, 66, 0
16, 25920, Note_on_c, 12, 70, 76
16, 26024, Note_on_c, 12, 70, 0
16, 26040, Note_on_c, 12, 71, 76
16, 26144, Note_on_c, 12, 71, 0
16, 26160, Note_on_c, 12, 73, 76
16, 26264, Note_on_c, 12, 73, 0
16, 26280, Note_on_c, 12, 66, 76
16, 26384, Note_on_c, 12, 66, 0
16, 26400, Note_on_c, 12, 66, 76
16, 26504, Note_on_c, 12, 66, 0
16, 26520, Note_on_c, 12, 64, 76
16, 26624, Note_on_c, 12, 64, 0
16, 26640, Note_on_c, 12, 64, 76
16, 26744, Note_on_c, 12, 64, 0
16, 26760, Note_on_c, 12, 62, 76
16, 26864, Note_on_c, 12, 62, 0
16, 26880, Note_on_c, 12, 67, 76
16, 26984, Note_on_c, 12, 67, 0
16, 27000, Note_on_c, 12, 66, 76
16, 27104, Note_on_c, 12, 66, 0
16, 27120, Note_on_c, 12, 66, 76
16, 27224, Note_on_c, 12, 66, 0
16, 27240, Note_on_c, 12, 66, 76
16, 27344, Note_on_c, 12, 66, 0
16, 27360, Note_on_c, 12, 66, 76
16, 27464, Note_on_c, 12, 66, 0
16, 27480, Note_on_c, 12, 73, 76
16, 27584, Note_on_c, 12, 73, 0
16, 27600, Note_on_c, 12, 66, 76
16, 27704, Note_on_c, 12, 66, 0
16, 27720, Note_on_c, 12, 64, 76
16, 27824, Note_on_c, 12, 64, 0
16, 27840, Note_on_c, 12, 62, 76
16, 27891, Note_on_c, 12, 62, 0
16, 27900, Note_on_c, 12, 61, 76
16, 27951, Note_on_c, 12, 61, 0
16, 27960, Note_on_c, 12, 59, 76
16, 28064, Note_on_c, 12, 59, 0
16, 28080, Note_on_c, 12, 64, 76
16, 28184, Note_on_c, 12, 64, 0
16, 28200, Note_on_c, 12, 61, 76
16, 28304, Note_on_c, 12, 61, 0
16, 28320, Note_on_c, 12, 61, 76
16, 28424, Note_on_c, 12, 61, 0
16, 28440, Note_on_c, 12, 62, 76
16, 28679, Note_on_c, 12, 62, 0
16, 28800, Note_on_c, 12, 59, 76
16, 28904, Note_on_c, 12, 59, 0
16, 28920, Note_on_c, 12, 57, 76
16, 29024, Note_on_c, 12, 57, 0
16, 29040, Note_on_c, 12, 55, 76
16, 29144, Note_on_c, 12, 55, 0
16, 29160, Note_on_c, 12, 54, 76
16, 29264, Note_on_c, 12, 54, 0
16, 29280, Note_on_c, 12, 54, 76
16, 29384, Note_on_c, 12, 54, 0
16, 29400, Note_on_c, 12, 54, 76
16, 29504, Note_on_c, 12, 54, 0
16, 29520, Note_on_c, 12, 54, 76
16, 29624, Note_on_c, 12, 54, 0
16, 29640, Note_on_c, 12, 57, 76
16, 29744, Note_on_c, 12, 57, 0
16, 29760, Note_on_c, 12, 54, 76
16, 29864, Note_on_c, 12, 54, 0
16, 29880, Note_on_c, 12, 50, 76
16, 29984, Note_on_c, 12, 50, 0
16, 30000, Note_on_c, 12, 55, 76
16, 30104, Note_on_c, 12, 55, 0
16, 30120, Note_on_c, 12, 55, 76
16, 30224, Note_on_c, 12, 55, 0
16, 30240, Note_on_c, 12, 55, 76
16, 30344, Note_on_c, 12, 55, 0
16, 30360, Note_on_c, 12, 55, 76
16, 30464, Note_on_c, 12, 55, 0
16, 30480, Note_on_c, 12, 55, 76
16, 30584, Note_on_c, 12, 55, 0
16, 30600, Note_on_c, 12, 56, 76
16, 30704, Note_on_c, 12, 56, 0
16, 30720, Note_on_c, 12, 56, 76
16, 30824, Note_on_c, 12, 56, 0
16, 30840, Note_on_c, 12, 56, 76
16, 30944, Note_on_c, 12, 56, 0
16, 30960, Note_on_c, 12, 56, 76
16, 31064, Note_on_c, 12, 56, 0
16, 31080, Note_on_c, 12, 59, 76
16, 31184, Note_on_c, 12, 59, 0
16, 31200, Note_on_c, 12, 56, 76
16, 31304, Note_on_c, 12, 56, 0
16, 31320, Note_on_c, 12, 64, 76
16, 31424, Note_on_c, 12, 64, 0
16, 31440, Note_on_c, 12, 64, 76
16, 31664, Note_on_c, 12, 64, 0
16, 31680, Note_on_c, 12, 64, 76
16, 31731, Note_on_c, 12, 64, 0
16, 31740, Note_on_c, 12, 62, 76
16, 31791, Note_on_c, 12, 62, 0
16, 31800, Note_on_c, 12, 66, 76
16, 31889, Note_on_c, 12, 66, 0
16, 31920, Note_on_c, 12, 64, 76
16, 32009, Note_on_c, 12, 64, 0
16, 32040, Note_on_c, 12, 62, 76
16, 32144, Note_on_c, 12, 62, 0
16, 32160, Note_on_c, 12, 64, 76
16, 32384, Note_on_c, 12, 64, 0
16, 32400, Note_on_c, 12, 73, 76
16, 32504, Note_on_c, 12, 73, 0
16, 32520, Note_on_c, 12, 69, 76
16, 32624, Note_on_c, 12, 69, 0
16, 32640, Note_on_c, 12, 73, 76
16, 32744, Note_on_c, 12, 73, 0
16, 32760, Note_on_c, 12, 69, 76
16, 32864, Note_on_c, 12, 69, 0
16, 32880, Note_on_c, 12, 64, 76
16, 33104, Note_on_c, 12, 64, 0
16, 33120, Note_on_c, 12, 69, 76
16, 33171, Note_on_c, 12, 69, 0
16, 33180, Note_on_c, 12, 67, 76
16, 33231, Note_on_c, 12, 67, 0
16, 33240, Note_on_c, 12, 70, 76
16, 33329, Note_on_c, 12, 70, 0
16, 33360, Note_on_c, 12, 69, 76
16, 33449, Note_on_c, 12, 69, 0
16, 33480, Note_on_c, 12, 67, 76
16, 33599, Note_on_c, 12, 67, 0
16, 33720, Note_on_c, 12, 69, 76
16, 33839, Note_on_c, 12, 69, 0
16, 33960, Note_on_c, 12, 65, 76
16, 34079, Note_on_c, 12, 65, 0
16, 34200, Note_on_c, 12, 67, 76
16, 34319, Note_on_c, 12, 67, 0
16, 34440, Note_on_c, 12, 64, 76
16, 34559, Note_on_c, 12, 64, 0
16, 34680, Note_on_c, 12, 65, 76
16, 34799, Note_on_c, 12, 65, 0
16, 34920, Note_on_c, 12, 65, 76
16, 35039, Note_on_c, 12, 65, 0
16, 35160, Note_on_c, 12, 65, 76
16, 35279, Note_on_c, 12, 65, 0
16, 35400, Note_on_c, 12, 65, 76
16, 35519, Note_on_c, 12, 65, 0
16, 35640, Note_on_c, 12, 65, 76
16, 35744, Note_on_c, 12, 65, 0
16, 35760, Note_on_c, 12, 64, 76
16, 35984, Note_on_c, 12, 64, 0
16, 36000, Note_on_c, 12, 64, 76
16, 36104, Note_on_c, 12, 64, 0
16, 36120, Note_on_c, 12, 62, 76
16, 36224, Note_on_c, 12, 62, 0
16, 36240, Note_on_c, 12, 69, 76
16, 36344, Note_on_c, 12, 69, 0
16, 36360, Note_on_c, 12, 69, 76
16, 36464, Note_on_c, 12, 69, 0
16, 36480, Note_on_c, 12, 69, 76
16, 36584, Note_on_c, 12, 69, 0
16, 36600, Note_on_c, 12, 69, 76
16, 36704, Note_on_c, 12, 69, 0
16, 36720, Note_on_c, 12, 69, 76
16, 36824, Note_on_c, 12, 69, 0
16, 36840, Note_on_c, 12, 69, 76
16, 36944, Note_on_c, 12, 69, 0
16, 36960, Note_on_c, 12, 67, 76
16, 37064, Note_on_c, 12, 67, 0
16, 37080, Note_on_c, 12, 66, 76
16, 37184, Note_on_c, 12, 66, 0
16, 37200, Note_on_c, 12, 68, 76
16, 37251, Note_on_c, 12, 68, 0
16, 37260, Note_on_c, 12, 69, 76
16, 37311, Note_on_c, 12, 69, 0
16, 37320, Note_on_c, 12, 71, 76
16, 37424, Note_on_c, 12, 71, 0
16, 37440, Note_on_c, 12, 71, 76
16, 37544, Note_on_c, 12, 71, 0
16, 37560, Note_on_c, 12, 71, 76
16, 37664, Note_on_c, 12, 71, 0
16, 37680, Note_on_c, 12, 68, 76
16, 37784, Note_on_c, 12, 68, 0
16, 37800, Note_on_c, 12, 64, 76
16, 38039, Note_on_c, 12, 64, 0
16, 38160, Note_on_c, 12, 69, 76
16, 38264, Note_on_c, 12, 69, 0
16, 38280, Note_on_c, 12, 69, 76
16, 38384, Note_on_c, 12, 69, 0
16, 38400, Note_on_c, 12, 69, 76
16, 38504, Note_on_c, 12, 69, 0
16, 38520, Note_on_c, 12, 69, 76
16, 38759, Note_on_c, 12, 69, 0
16, 38880, Note_on_c, 12, 69, 76
16, 38984, Note_on_c, 12, 69, 0
16, 39000, Note_on_c, 12, 71, 76
16, 39104, Note_on_c, 12, 71, 0
16, 39120, Note_on_c, 12, 64, 76
16, 39224, Note_on_c, 12, 64, 0
16, 39240, Note_on_c, 12, 66, 76
16, 39479, Note_on_c, 12, 66, 0
16, 39600, Note_on_c, 12, 62, 76
16, 39704, Note_on_c, 12, 62, 0
16, 39720, Note_on_c, 12, 64, 76
16, 39824, Note_on_c, 12, 64, 0
16, 39840, Note_on_c, 12, 69, 76
16, 39944, Note_on_c, 12, 69, 0
16, 39960, Note_on_c, 12, 71, 76
16, 40184, Note_on_c, 12, 71, 0
16, 40200, Note_on_c, 12, 69, 76
16, 40304, Note_on_c, 12, 69, 0
16, 40320, Note_on_c, 12, 64, 76
16, 40424, Note_on_c, 12, 64, 0
16, 40440, Note_on_c, 12, 71, 76
16, 40544, Note_on_c, 12, 71, 0
16, 40560, Note_on_c, 12, 69, 76
16, 40664, Note_on_c, 12, 69, 0
16, 40680, Note_on_c, 12, 69, 76
16, 40784, Note_on_c, 12, 69, 0
16, 40800, Note_on_c, 12, 69, 76
16, 40904, Note_on_c, 12, 69, 0
16, 40920, Note_on_c, 12, 67, 76
16, 41024, Note_on_c, 12, 67, 0
16, 41040, Note_on_c, 12, 66, 76
16, 41091, Note_on_c, 12, 66, 0
16, 41100, Note_on_c, 12, 64, 76
16, 41151, Note_on_c, 12, 64, 0
16, 41160, Note_on_c, 12, 62, 76
16, 41264, Note_on_c, 12, 62, 0
16, 41280, Note_on_c, 12, 67, 76
16, 41384, Note_on_c, 12, 67, 0
16, 41400, Note_on_c, 12, 64, 76
16, 41504, Note_on_c, 12, 64, 0
16, 41520, Note_on_c, 12, 57, 76
16, 41624, Note_on_c, 12, 57, 0
16, 41640, Note_on_c, 12, 57, 76
16, 41744, Note_on_c, 12, 57, 0
16, 41760, Note_on_c, 12, 69, 76
16, 41864, Note_on_c, 12, 69, 0
16, 41880, Note_on_c, 12, 67, 76
16, 41984, Note_on_c, 12, 67, 0
16, 42000, Note_on_c, 12, 66, 76
16, 42104, Note_on_c, 12, 66, 0
16, 42120, Note_on_c, 12, 66, 76
16, 42224, Note_on_c, 12, 66, 0
16, 42240, Note_on_c, 12, 67, 76
16, 42344, Note_on_c, 12, 67, 0
16, 42360, Note_on_c, 12, 62, 76
16, 42464, Note_on_c, 12, 62, 0
16, 42480, Note_on_c, 12, 67, 76
16, 42584, Note_on_c, 12, 67, 0
16, 42600, Note_on_c, 12, 66, 76
16, 42704, Note_on_c, 12, 66, 0
16, 42720, Note_on_c, 12, 64, 76
16, 42824, Note_on_c, 12, 64, 0
16, 42840, Note_on_c, 12, 66, 76
16, 43199, Note_on_c, 12, 66, 0
16, 43920, Note_on_c, 12, 69, 76
16, 44024, Note_on_c, 12, 69, 0
16, 44040, Note_on_c, 12, 69, 76
16, 44144, Note_on_c, 12, 69, 0
16, 44160, Note_on_c, 12, 69, 76
16, 44264, Note_on_c, 12, 69, 0
16, 44280, Note_on_c, 12, 69, 76
16, 44384, Note_on_c, 12, 69, 0
16, 44400, Note_on_c, 12, 69, 76
16, 44639, Note_on_c, 12, 69, 0
16, 45360, Note_on_c, 12, 71, 76
16, 45464, Note_on_c, 12, 71, 0
16, 45480, Note_on_c, 12, 71, 76
16, 45584, Note_on_c, 12, 71, 0
16, 45600, Note_on_c, 12, 71, 76
16, 45704, Note_on_c, 12, 71, 0
16, 45720, Note_on_c, 12, 71, 76
16, 45824, Note_on_c, 12, 71, 0
16, 45840, Note_on_c, 12, 71, 76
16, 46064, Note_on_c, 12, 71, 0
16, 46080, Note_on_c, 12, 71, 76
16, 46184, Note_on_c, 12, 71, 0
16, 46200, Note_on_c, 12, 71, 76
16, 46304, Note_on_c, 12, 71, 0
16, 46320, Note_on_c, 12, 72, 76
16, 46424, Note_on_c, 12, 72, 0
16, 46440, Note_on_c, 12, 66, 76
16, 46544, Note_on_c, 12, 66, 0
16, 46560, Note_on_c, 12, 69, 76
16, 46664, Note_on_c, 12, 69, 0
16, 46680, Note_on_c, 12, 67, 76
16, 46784, Note_on_c, 12, 67, 0
16, 46800, Note_on_c, 12, 71, 76
16, 46904, Note_on_c, 12, 71, 0
16, 46920, Note_on_c, 12, 71, 76
16, 47024, Note_on_c, 12, 71, 0
16, 47040, Note_on_c, 12, 64, 76
16, 47144, Note_on_c, 12, 64, 0
16, 47160, Note_on_c, 12, 71, 76
16, 47264, Note_on_c, 12, 71, 0
16, 47280, Note_on_c, 12, 71, 76
16, 47504, Note_on_c, 12, 71, 0
16, 47520, Note_on_c, 12, 73, 76
16, 47624, Note_on_c, 12, 73, 0
16, 47640, Note_on_c, 12, 66, 76
16, 47744, Note_on_c, 12, 66, 0
16, 47760, Note_on_c, 12, 71, 76
16, 47864, Note_on_c, 12, 71, 0
16, 47880, Note_on_c, 12, 70, 76
16, 47984, Note_on_c, 12, 70, 0
16, 48000, Note_on_c, 12, 73, 76
16, 48104, Note_on_c, 12, 73, 0
16, 48120, Note_on_c, 12, 66, 76
16, 48224, Note_on_c, 12, 66, 0
16, 48240, Note_on_c, 12, 66, 76
16, 48344, Note_on_c, 12, 66, 0
16, 48360, Note_on_c, 12, 66, 76
16, 48464, Note_on_c, 12, 66, 0
16, 48480, Note_on_c, 12, 66, 76
16, 48584, Note_on_c, 12, 66, 0
16, 48600, Note_on_c, 12, 67, 76
16, 48704, Note_on_c, 12, 67, 0
16, 48720, Note_on_c, 12, 66, 76
16, 48824, Note_on_c, 12, 66, 0
16, 48840, Note_on_c, 12, 59, 76
16, 48944, Note_on_c, 12, 59, 0
16, 48960, Note_on_c, 12, 67, 76
16, 49064, Note_on_c, 12, 67, 0
16, 49080, Note_on_c, 12, 66, 76
16, 49184, Note_on_c, 12, 66, 0
16, 49200, Note_on_c, 12, 59, 76
16, 49304, Note_on_c, 12, 59, 0
16, 49320, Note_on_c, 12, 66, 76
16, 49559, Note_on_c, 12, 66, 0
16, 49680, Note_on_c, 12, 66, 76
16, 49784, Note_on_c, 12, 66, 0
16, 49800, Note_on_c, 12, 66, 76
16, 49904, Note_on_c, 12, 66, 0
16, 49920, Note_on_c, 12, 66, 76
16, 50024, Note_on_c, 12, 66, 0
16, 50040, Note_on_c, 12, 66, 76
16, 50279, Note_on_c, 12, 66, 0
16, 50400, Note_on_c, 12, 66, 76
16, 50504, Note_on_c, 12, 66, 0
16, 50520, Note_on_c, 12, 70, 76
16, 50624, Note_on_c, 12, 70, 0
16, 50640, Note_on_c, 12, 73, 76
16, 50744, Note_on_c, 12, 73, 0
16, 50760, Note_on_c, 12, 62, 76
16, 50999, Note_on_c, 12, 62, 0
16, 51120, Note_on_c, 12, 64, 76
16, 51224, Note_on_c, 12, 64, 0
16, 51240, Note_on_c, 12, 64, 76
16, 51344, Note_on_c, 12, 64, 0
16, 51360, Note_on_c, 12, 66, 76
16, 51464, Note_on_c, 12, 66, 0
16, 51480, Note_on_c, 12, 68, 76
16, 51704, Note_on_c, 12, 68, 0
16, 51720, Note_on_c, 12, 66, 76
16, 51824, Note_on_c, 12, 66, 0
16, 51840, Note_on_c, 12, 70, 76
16, 51944, Note_on_c, 12, 70, 0
16, 51960, Note_on_c, 12, 71, 76
16, 52064, Note_on_c, 12, 71, 0
16, 52080, Note_on_c, 12, 73, 76
16, 52184, Note_on_c, 12, 73, 0
16, 52200, Note_on_c, 12, 66, 76
16, 52304, Note_on_c, 12, 66, 0
16, 52320, Note_on_c, 12, 66, 76
16, 52424, Note_on_c, 12, 66, 0
16, 52440, Note_on_c, 12, 64, 76
16, 52544, Note_on_c, 12, 64, 0
16, 52560, Note_on_c, 12, 64, 76
16, 52664, Note_on_c, 12, 64, 0
16, 52680, Note_on_c, 12, 62, 76
16, 52784, Note_on_c, 12, 62, 0
16, 52800, Note_on_c, 12, 67, 76
16, 52904, Note_on_c, 12, 67, 0
16, 52920, Note_on_c, 12, 66, 76
16, 53024, Note_on_c, 12, 66, 0
16, 53040, Note_on_c, 12, 66, 76
16, 53144, Note_on_c, 12, 66, 0
16, 53160, Note_on_c, 12, 66, 76
16, 53264, Note_on_c, 12, 66, 0
16, 53280, Note_on_c, 12, 66, 76
16, 53384, Note_on_c, 12, 66, 0
16, 53400, Note_on_c, 12, 73, 76
16, 53504, Note_on_c, 12, 73, 0
16, 53520, Note_on_c, 12, 66, 76
16, 53624, Note_on_c, 12, 66, 0
16, 53640, Note_on_c, 12, 64, 76
16, 53744, Note_on_c, 12, 64, 0
16, 53760, Note_on_c, 12, 62, 76
16, 53811, Note_on_c, 12, 62, 0
16, 53820, Note_on_c, 12, 61, 76
16, 53871, Note_on_c, 12, 61, 0
16, 53880, Note_on_c, 12, 59, 76
16, 53984, Note_on_c, 12, 59, 0
16, 54000, Note_on_c, 12, 64, 76
16, 54104, Note_on_c, 12, 64, 0
16, 54120, Note_on_c, 12, 61, 76
16, 54224, Note_on_c, 12, 61, 0
16, 54240, Note_on_c, 12, 61, 76
16, 54344, Note_on_c, 12, 61, 0
16, 54360, Note_on_c, 12, 62, 76
16, 54599, Note_on_c, 12, 62, 0
16, 54720, Note_on_c, 12, 59, 76
16, 54824, Note_on_c, 12, 59, 0
16, 54840, Note_on_c, 12, 57, 76
16, 54944, Note_on_c, 12, 57, 0
16, 54960, Note_on_c, 12, 55, 76
16, 55064, Note_on_c, 12, 55, 0
16, 55080, Note_on_c, 12, 54, 76
16, 55184, Note_on_c, 12, 54, 0
16, 55200, Note_on_c, 12, 54, 76
16, 55304, Note_on_c, 12, 54, 0
16, 55320, Note_on_c, 12, 54, 76
16, 55424, Note_on_c, 12, 54, 0
16, 55440, Note_on_c, 12, 54, 76
16, 55544, Note_on_c, 12, 54, 0
16, 55560, Note_on_c, 12, 57, 76
16, 55664, Note_on_c, 12, 57, 0
16, 55680, Note_on_c, 12, 54, 76
16, 55784, Note_on_c, 12, 54, 0
16, 55800, Note_on_c, 12, 50, 76
16, 55904, Note_on_c, 12, 50, 0
16, 55920, Note_on_c, 12, 55, 76
16, 56024, Note_on_c, 12, 55, 0
16, 56040, Note_on_c, 12, 55, 76
16, 56144, Note_on_c, 12, 55, 0
16, 56160, Note_on_c, 12, 55, 76
16, 56264, Note_on_c, 12, 55, 0
16, 56280, Note_on_c, 12, 55, 76
16, 56384, Note_on_c, 12, 55, 0
16, 56400, Note_on_c, 12, 55, 76
16, 56504, Note_on_c, 12, 55, 0
16, 56520, Note_on_c, 12, 56, 76
16, 56624, Note_on_c, 12, 56, 0
16, 56640, Note_on_c, 12, 56, 76
16, 56744, Note_on_c, 12, 56, 0
16, 56760, Note_on_c, 12, 56, 76
16, 56864, Note_on_c, 12, 56, 0
16, 56880, Note_on_c, 12, 56, 76
16, 56984, Note_on_c, 12, 56, 0
16, 57000, Note_on_c, 12, 59, 76
16, 57104, Note_on_c, 12, 59, 0
16, 57120, Note_on_c, 12, 56, 76
16, 57224, Note_on_c, 12, 56, 0
16, 57240, Note_on_c, 12, 64, 76
16, 57344, Note_on_c, 12, 64, 0
16, 57360, Note_on_c, 12, 64, 76
16, 57584, Note_on_c, 12, 64, 0
16, 57600, Note_on_c, 12, 64, 76
16, 57651, Note_on_c, 12, 64, 0
16, 57660, Note_on_c, 12, 62, 76
16, 57711, Note_on_c, 12, 62, 0
16, 57720, Note_on_c, 12, 66, 76
16, 57809, Note_on_c, 12, 66, 0
16, 57840, Note_on_c, 12, 64, 76
16, 57929, Note_on_c, 12, 64, 0
16, 57960, Note_on_c, 12, 62, 76
16, 58064, Note_on_c, 12, 62, 0
16, 58080, Note_on_c, 12, 64, 76
16, 58304, Note_on_c, 12, 64, 0
16, 58320, Note_on_c, 12, 73, 76
16, 58424, Note_on_c, 12, 73, 0
16, 58440, Note_on_c, 12, 69, 76
16, 58544, Note_on_c, 12, 69, 0
16, 58560, Note_on_c, 12, 73, 76
16, 58664, Note_on_c, 12, 73, 0
16, 58680, Note_on_c, 12, 69, 76
16, 58784, Note_on_c, 12, 69, 0
16, 58800, Note_on_c, 12, 64, 76
16, 59024, Note_on_c, 12, 64, 0
16, 59040, Note_on_c, 12, 69, 76
16, 59091, Note_on_c, 12, 69, 0
16, 59100, Note_on_c, 12, 67, 76
16, 59151, Note_on_c, 12, 67, 0
16, 59160, Note_on_c, 12, 70, 76
16, 59249, Note_on_c, 12, 70, 0
16, 59280, Note_on_c, 12, 69, 76
16, 59369, Note_on_c, 12, 69, 0
16, 59400, Note_on_c, 12, 67, 76
16, 59519, Note_on_c, 12, 67, 0
16, 59640, Note_on_c, 12, 69, 76
16, 59759, Note_on_c, 12, 69, 0
16, 59880, Note_on_c, 12, 65, 76
16, 59999, Note_on_c, 12, 65, 0
16, 60120, Note_on_c, 12, 67, 76
16, 60239, Note_on_c, 12, 67, 0
16, 60360, Note_on_c, 12, 64, 76
16, 60479, Note_on_c, 12, 64, 0
16, 60600, Note_on_c, 12, 65, 76
16, 60719, Note_on_c, 12, 65, 0
16, 60840, Note_on_c, 12, 65, 76
16, 60959, Note_on_c, 12, 65, 0
16, 61080, Note_on_c, 12, 65, 76
16, 61199, Note_on_c, 12, 65, 0
16, 61320, Note_on_c, 12, 65, 76
16, 61439, Note_on_c, 12, 65, 0
16, 61560, Note_on_c, 12, 65, 76
16, 61664, Note_on_c, 12, 65, 0
16, 61680, Note_on_c, 12, 64, 76
16, 61904, Note_on_c, 12, 64, 0
16, 61920, Note_on_c, 12, 64, 76
16, 62024, Note_on_c, 12, 64, 0
16, 62040, Note_on_c, 12, 62, 76
16, 62144, Note_on_c, 12, 62, 0
16, 62160, Note_on_c, 12, 69, 76
16, 62264, Note_on_c, 12, 69, 0
16, 62280, Note_on_c, 12, 69, 76
16, 62384, Note_on_c, 12, 69, 0
16, 62400, Note_on_c, 12, 69, 76
16, 62504, Note_on_c, 12, 69, 0
16, 62520, Note_on_c, 12, 69, 76
16, 62624, Note_on_c, 12, 69, 0
16, 62640, Note_on_c, 12, 69, 76
16, 62744, Note_on_c, 12, 69, 0
16, 62760, Note_on_c, 12, 69, 76
16, 62864, Note_on_c, 12, 69, 0
16, 62880, Note_on_c, 12, 67, 76
16, 62984, Note_on_c, 12, 67, 0
16, 63000, Note_on_c, 12, 66, 76
16, 63104, Note_on_c, 12, 66, 0
16, 63120, Note_on_c, 12, 68, 76
16, 63171, Note_on_c, 12, 68, 0
16, 63180, Note_on_c, 12, 69, 76
16, 63231, Note_on_c, 12, 69, 0
16, 63240, Note_on_c, 12, 71, 76
16, 63344, Note_on_c, 12, 71, 0
16, 63360, Note_on_c, 12, 71, 76
16, 63464, Note_on_c, 12, 71, 0
16, 63480, Note_on_c, 12, 71, 76
16, 63584, Note_on_c, 12, 71, 0
16, 63600, Note_on_c, 12, 68, 76
16, 63704, Note_on_c, 12, 68, 0
16, 63720, Note_on_c, 12, 64, 76
16, 63959, Note_on_c, 12, 64, 0
16, 64080, Note_on_c, 12, 69, 76
16, 64184, Note_on_c, 12, 69, 0
16, 64200, Note_on_c, 12, 69, 76
16, 64304, Note_on_c, 12, 69, 0
16, 64320, Note_on_c, 12, 69, 76
16, 64424, Note_on_c, 12, 69, 0
16, 64440, Note_on_c, 12, 69, 76
16, 64679, Note_on_c, 12, 69, 0
16, 64800, Note_on_c, 12, 69, 76
16, 64904, Note_on_c, 12, 69, 0
16, 64920, Note_on_c, 12, 71, 76
16, 65024, Note_on_c, 12, 71, 0
16, 65040, Note_on_c, 12, 64, 76
16, 65144, Note_on_c, 12, 64, 0
16, 65160, Note_on_c, 12, 66, 76
16, 65399, Note_on_c, 12, 66, 0
16, 65520, Note_on_c, 12, 62, 76
16, 65624, Note_on_c, 12, 62, 0
16, 65640, Note_on_c, 12, 64, 76
16, 65744, Note_on_c, 12, 64, 0
16, 65760, Note_on_c, 12, 69, 76
16, 65864, Note_on_c, 12, 69, 0
16, 65880, Note_on_c, 12, 71, 76
16, 66104, Note_on_c, 12, 71, 0
16, 66120, Note_on_c, 12, 69, 76
16, 66224, Note_on_c, 12, 69, 0
16, 66240, Note_on_c, 12, 64, 76
16, 66344, Note_on_c, 12, 64, 0
16, 66360, Note_on_c, 12, 71, 76
16, 66464, Note_on_c, 12, 71, 0
16, 66480, Note_on_c, 12, 69, 76
16, 66584, Note_on_c, 12, 69, 0
16, 66600, Note_on_c, 12, 69, 76
16, 66704, Note_on_c, 12, 69, 0
16, 66720, Note_on_c, 12, 69, 76
16, 66824, Note_on_c, 12, 69, 0
16, 66840, Note_on_c, 12, 67, 76
16, 66944, Note_on_c, 12, 67, 0
16, 66960, Note_on_c, 12, 66, 76
16, 67011, Note_on_c, 12, 66, 0
16, 67020, Note_on_c, 12, 64, 76
16, 67071, Note_on_c, 12, 64, 0
16, 67080, Note_on_c, 12, 62, 76
16, 67184, Note_on_c, 12, 62, 0
16, 67200, Note_on_c, 12, 67, 76
16, 67304, Note_on_c, 12, 67, 0
16, 67320, Note_on_c, 12, 64, 76
16, 67424, Note_on_c, 12, 64, 0
16, 67440, Note_on_c, 12, 57, 76
16, 67544, Note_on_c, 12, 57, 0
16, 67560, Note_on_c, 12, 57, 76
16, 67664, Note_on_c, 12, 57, 0
16, 67680, Note_on_c, 12, 69, 76
16, 67784, Note_on_c, 12, 69, 0
16, 67800, Note_on_c, 12, 67, 76
16, 67904, Note_on_c, 12, 67, 0
16, 67920, Note_on_c, 12, 66, 76
16, 68024, Note_on_c, 12, 66, 0
16, 68040, Note_on_c, 12, 66, 76
16, 68144, Note_on_c, 12, 66, 0
16, 68160, Note_on_c, 12, 67, 76
16, 68264, Note_on_c, 12, 67, 0
16, 68280, Note_on_c, 12, 62, 76
16, 68384, Note_on_c, 12, 62, 0
16, 68400, Note_on_c, 12, 67, 76
16, 68504, Note_on_c, 12, 67, 0
16, 68520, Note_on_c, 12, 66, 76
16, 68624, Note_on_c, 12, 66, 0
16, 68640, Note_on_c, 12, 64, 76
16, 68744, Note_on_c, 12, 64, 0
16, 68760, Note_on_c, 12, 66, 76
16, 69119, Note_on_c, 12, 66, 0
16, 69119, End_track
17, 0, Start_track
17, 0, Title_t, "Cello"
17, 0, MIDI_port, 0
17, 0, Program_c, 13, 48
17, 0, Control_c, 13, 10, 90
17, 0, Control_c, 13, 11, 127
17, 0, Control_c, 13, 7, 96
17, 0, Note_on_c, 13, 62, 76
17, 51, Note_on_c, 13, 62, 0
17, 60, Note_on_c, 13, 61, 76
17, 111, Note_on_c, 13, 61, 0
17, 120, Note_on_c, 13, 62, 76
17, 224, Note_on_c, 13, 62, 0
17, 240, Note_on_c, 13, 55, 76
17, 344, Note_on_c, 13, 55, 0
17, 360, Note_on_c, 13, 57, 76
17, 464, Note_on_c, 13, 57, 0
17, 480, Note_on_c, 13, 52, 76
17, 584, Note_on_c, 13, 52, 0
17, 600, Note_on_c, 13, 54, 76
17, 704, Note_on_c, 13, 54, 0
17, 720, Note_on_c, 13, 50, 76
17, 771, Note_on_c, 13, 50, 0
17, 780, Note_on_c, 13, 52, 76
17, 831, Note_on_c, 13, 52, 0
17, 840, Note_on_c, 13, 54, 76
17, 944, Note_on_c, 13, 54, 0
17, 960, Note_on_c, 13, 55, 76
17, 1064, Note_on_c, 13, 55, 0
17, 1080, Note_on_c, 13, 57, 76
17, 1184, Note_on_c, 13, 57, 0
17, 1200, Note_on_c, 13, 62, 76
17, 1251, Note_on_c, 13, 62, 0
17, 1260, Note_on_c, 13, 61, 76
17, 1311, Note_on_c, 13, 61, 0
17, 1320, Note_on_c, 13, 62, 76
17, 1424, Note_on_c, 13, 62, 0
17, 1440, Note_on_c, 13, 59, 76
17, 1544, Note_on_c, 13, 59, 0
17, 1560, Note_on_c, 13, 61, 76
17, 1664, Note_on_c, 13, 61, 0
17, 1680, Note_on_c, 13, 57, 76
17, 1784, Note_on_c, 13, 57, 0
17, 1800, Note_on_c, 13, 59, 76
17, 1904, Note_on_c, 13, 59, 0
17, 1920, Note_on_c, 13, 56, 76
17, 2024, Note_on_c, 13, 56, 0
17, 2040, Note_on_c, 13, 57, 76
17, 2144, Note_on_c, 13, 57, 0
17, 2160, Note_on_c, 13, 49, 76
17, 2264, Note_on_c, 13, 49, 0
17, 2280, Note_on_c, 13, 47, 76
17, 2384, Note_on_c, 13, 47, 0
17, 2400, Note_on_c, 13, 45, 76
17, 2504, Note_on_c, 13, 45, 0
17, 2520, Note_on_c, 13, 50, 76
17, 2624, Note_on_c, 13, 50, 0
17, 2640, Note_on_c, 13, 52, 76
17, 2744, Note_on_c, 13, 52, 0
17, 2760, Note_on_c, 13, 54, 76
17, 2864, Note_on_c, 13, 54, 0
17, 2880, Note_on_c, 13, 52, 76
17, 2931, Note_on_c, 13, 52, 0
17, 2940, Note_on_c, 13, 50, 76
17, 2991, Note_on_c, 13, 50, 0
17, 3000, Note_on_c, 13, 49, 76
17, 3104, Note_on_c, 13, 49, 0
17, 3120, Note_on_c, 13, 50, 76
17, 3224, Note_on_c, 13, 50, 0
17, 3240, Note_on_c, 13, 52, 76
17, 3479, Note_on_c, 13, 52, 0
17, 3600, Note_on_c, 13, 57, 76
17, 3651, Note_on_c, 13, 57, 0
17, 3660, Note_on_c, 13, 56, 76
17, 3711, Note_on_c, 13, 56, 0
17, 3720, Note_on_c, 13, 57, 76
17, 3824, Note_on_c, 13, 57, 0
17, 3840, Note_on_c, 13, 59, 76
17, 3944, Note_on_c, 13, 59, 0
17, 3960, Note_on_c, 13, 56, 76
17, 3989, Note_on_c, 13, 56, 0
17, 3990, Note_on_c, 13, 57, 76
17, 4019, Note_on_c, 13, 57, 0
17, 4020, Note_on_c, 13, 54, 76
17, 4049, Note_on_c, 13, 54, 0
17, 4050, Note_on_c, 13, 56, 76
17, 4079, Note_on_c, 13, 56, 0
17, 4080, Note_on_c, 13, 54, 76
17, 4131, Note_on_c, 13, 54, 0
17, 4140, Note_on_c, 13, 52, 76
17, 4191, Note_on_c, 13, 52, 0
17, 4200, Note_on_c, 13, 64, 76
17, 4379, Note_on_c, 13, 64, 0
17, 4440, Note_on_c, 13, 62, 76
17, 4619, Note_on_c, 13, 62, 0
17, 4800, Note_on_c, 13, 61, 76
17, 4851, Note_on_c, 13, 61, 0
17, 4860, Note_on_c, 13, 59, 76
17, 4911, Note_on_c, 13, 59, 0
17, 4920, Note_on_c, 13, 61, 76
17, 5024, Note_on_c, 13, 61, 0
17, 5040, Note_on_c, 13, 62, 76
17, 5144, Note_on_c, 13, 62, 0
17, 5160, Note_on_c, 13, 59, 76
17, 5189, Note_on_c, 13, 59, 0
17, 5190, Note_on_c, 13, 61, 76
17, 5219, Note_on_c, 13, 61, 0
17, 5220, Note_on_c, 13, 57, 76
17, 5249, Note_on_c, 13, 57, 0
17, 5250, Note_on_c, 13, 59, 76
17, 5279, Note_on_c, 13, 59, 0
17, 5280, Note_on_c, 13, 57, 76
17, 5331, Note_on_c, 13, 57, 0
17, 5340, Note_on_c, 13, 56, 76
17, 5391, Note_on_c, 13, 56, 0
17, 5400, Note_on_c, 13, 63, 76
17, 5624, Note_on_c, 13, 63, 0
17, 5640, Note_on_c, 13, 64, 76
17, 5744, Note_on_c, 13, 64, 0
17, 5760, Note_on_c, 13, 52, 76
17, 5864, Note_on_c, 13, 52, 0
17, 5880, Note_on_c, 13, 54, 76
17, 5984, Note_on_c, 13, 54, 0
17, 6000, Note_on_c, 13, 56, 76
17, 6104, Note_on_c, 13, 56, 0
17, 6120, Note_on_c, 13, 57, 76
17, 6224, Note_on_c, 13, 57, 0
17, 6240, Note_on_c, 13, 49, 76
17, 6344, Note_on_c, 13, 49, 0
17, 6360, Note_on_c, 13, 50, 76
17, 6464, Note_on_c, 13, 50, 0
17, 6480, Note_on_c, 13, 52, 76
17, 6584, Note_on_c, 13, 52, 0
17, 6600, Note_on_c, 13, 54, 76
17, 6704, Note_on_c, 13, 54, 0
17, 6720, Note_on_c, 13, 50, 76
17, 6824, Note_on_c, 13, 50, 0
17, 6840, Note_on_c, 13, 56, 76
17, 6944, Note_on_c, 13, 56, 0
17, 6960, Note_on_c, 13, 52, 76
17, 7064, Note_on_c, 13, 52, 0
17, 7080, Note_on_c, 13, 57, 76
17, 7184, Note_on_c, 13, 57, 0
17, 7200, Note_on_c, 13, 49, 76
17, 7304, Note_on_c, 13, 49, 0
17, 7320, Note_on_c, 13, 47, 76
17, 7424, Note_on_c, 13, 47, 0
17, 7440, Note_on_c, 13, 45, 76
17, 7544, Note_on_c, 13, 45, 0
17, 7560, Note_on_c, 13, 50, 76
17, 7664, Note_on_c, 13, 50, 0
17, 7680, Note_on_c, 13, 52, 76
17, 7784, Note_on_c, 13, 52, 0
17, 7800, Note_on_c, 13, 54, 76
17, 7904, Note_on_c, 13, 54, 0
17, 7920, Note_on_c, 13, 50, 76
17, 8024, Note_on_c, 13, 50, 0
17, 8040, Note_on_c, 13, 52, 76
17, 8144, Note_on_c, 13, 52, 0
17, 8160, Note_on_c, 13, 40, 76
17, 8264, Note_on_c, 13, 40, 0
17, 8280, Note_on_c, 13, 45, 76
17, 8624, Note_on_c, 13, 45, 0
17, 8640, Note_on_c, 13, 62, 76
17, 8691, Note_on_c, 13, 62, 0
17, 8700, Note_on_c, 13, 61, 76
17, 8751, Note_on_c, 13, 61, 0
17, 8760, Note_on_c, 13, 62, 76
17, 8864, Note_on_c, 13, 62, 0
17, 8880, Note_on_c, 13, 55, 76
17, 8984, Note_on_c, 13, 55, 0
17, 9000, Note_on_c, 13, 57, 76
17, 9104, Note_on_c, 13, 57, 0
17, 9120, Note_on_c, 13, 52, 76
17, 9224, Note_on_c, 13, 52, 0
17, 9240, Note_on_c, 13, 54, 76
17, 9344, Note_on_c, 13, 54, 0
17, 9360, Note_on_c, 13, 50, 76
17, 9411, Note_on_c, 13, 50, 0
17, 9420, Note_on_c, 13, 52, 76
17, 9471, Note_on_c, 13, 52, 0
17, 9480, Note_on_c, 13, 54, 76
17, 9584, Note_on_c, 13, 54, 0
17, 9600, Note_on_c, 13, 55, 76
17, 9704, Note_on_c, 13, 55, 0
17, 9720, Note_on_c, 13, 57, 76
17, 9824, Note_on_c, 13, 57, 0
17, 9840, Note_on_c, 13, 62, 76
17, 9891, Note_on_c, 13, 62, 0
17, 9900, Note_on_c, 13, 61, 76
17, 9951, Note_on_c, 13, 61, 0
17, 9960, Note_on_c, 13, 62, 76
17, 10064, Note_on_c, 13, 62, 0
17, 10080, Note_on_c, 13, 59, 76
17, 10184, Note_on_c, 13, 59, 0
17, 10200, Note_on_c, 13, 61, 76
17, 10304, Note_on_c, 13, 61, 0
17, 10320, Note_on_c, 13, 57, 76
17, 10424, Note_on_c, 13, 57, 0
17, 10440, Note_on_c, 13, 59, 76
17, 10544, Note_on_c, 13, 59, 0
17, 10560, Note_on_c, 13, 56, 76
17, 10664, Note_on_c, 13, 56, 0
17, 10680, Note_on_c, 13, 57, 76
17, 10784, Note_on_c, 13, 57, 0
17, 10800, Note_on_c, 13, 49, 76
17, 10904, Note_on_c, 13, 49, 0
17, 10920, Note_on_c, 13, 47, 76
17, 11024, Note_on_c, 13, 47, 0
17, 11040, Note_on_c, 13, 45, 76
17, 11144, Note_on_c, 13, 45, 0
17, 11160, Note_on_c, 13, 50, 76
17, 11264, Note_on_c, 13, 50, 0
17, 11280, Note_on_c, 13, 52, 76
17, 11384, Note_on_c, 13, 52, 0
17, 11400, Note_on_c, 13, 54, 76
17, 11504, Note_on_c, 13, 54, 0
17, 11520, Note_on_c, 13, 52, 76
17, 11571, Note_on_c, 13, 52, 0
17, 11580, Note_on_c, 13, 50, 76
17, 11631, Note_on_c, 13, 50, 0
17, 11640, Note_on_c, 13, 49, 76
17, 11744, Note_on_c, 13, 49, 0
17, 11760, Note_on_c, 13, 50, 76
17, 11864, Note_on_c, 13, 50, 0
17, 11880, Note_on_c, 13, 52, 76
17, 12119, Note_on_c, 13, 52, 0
17, 12240, Note_on_c, 13, 57, 76
17, 12291, Note_on_c, 13, 57, 0
17, 12300, Note_on_c, 13, 56, 76
17, 12351, Note_on_c, 13, 56, 0
17, 12360, Note_on_c, 13, 57, 76
17, 12464, Note_on_c, 13, 57, 0
17, 12480, Note_on_c, 13, 59, 76
17, 12584, Note_on_c, 13, 59, 0
17, 12600, Note_on_c, 13, 56, 76
17, 12629, Note_on_c, 13, 56, 0
17, 12630, Note_on_c, 13, 57, 76
17, 12659, Note_on_c, 13, 57, 0
17, 12660, Note_on_c, 13, 54, 76
17, 12689, Note_on_c, 13, 54, 0
17, 12690, Note_on_c, 13, 56, 76
17, 12719, Note_on_c, 13, 56, 0
17, 12720, Note_on_c, 13, 54, 76
17, 12771, Note_on_c, 13, 54, 0
17, 12780, Note_on_c, 13, 52, 76
17, 12831, Note_on_c, 13, 52, 0
17, 12840, Note_on_c, 13, 64, 76
17, 13019, Note_on_c, 13, 64, 0
17, 13080, Note_on_c, 13, 62, 76
17, 13259, Note_on_c, 13, 62, 0
17, 13440, Note_on_c, 13, 61, 76
17, 13491, Note_on_c, 13, 61, 0
17, 13500, Note_on_c, 13, 59, 76
17, 13551, Note_on_c, 13, 59, 0
17, 13560, Note_on_c, 13, 61, 76
17, 13664, Note_on_c, 13, 61, 0
17, 13680, Note_on_c, 13, 62, 76
17, 13784, Note_on_c, 13, 62, 0
17, 13800, Note_on_c, 13, 59, 76
17, 13829, Note_on_c, 13, 59, 0
17, 13830, Note_on_c, 13, 61, 76
17, 13859, Note_on_c, 13, 61, 0
17, 13860, Note_on_c, 13, 57, 76
17, 13889, Note_on_c, 13, 57, 0
17, 13890, Note_on_c, 13, 59, 76
17, 13919, Note_on_c, 13, 59, 0
17, 13920, Note_on_c, 13, 57, 76
17, 13971, Note_on_c, 13, 57, 0
17, 13980, Note_on_c, 13, 56, 76
17, 14031, Note_on_c, 13, 56, 0
17, 14040, Note_on_c, 13, 63, 76
17, 14264, Note_on_c, 13, 63, 0
17, 14280, Note_on_c, 13, 64, 76
17, 14384, Note_on_c, 13, 64, 0
17, 14400, Note_on_c, 13, 52, 76
17, 14504, Note_on_c, 13, 52, 0
17, 14520, Note_on_c, 13, 54, 76
17, 14624, Note_on_c, 13, 54, 0
17, 14640, Note_on_c, 13, 56, 76
17, 14744, Note_on_c, 13, 56, 0
17, 14760, Note_on_c, 13, 57, 76
17, 14864, Note_on_c, 13, 57, 0
17, 14880, Note_on_c, 13, 49, 76
17, 14984, Note_on_c, 13, 49, 0
17, 15000, Note_on_c, 13, 50, 76
17, 15104, Note_on_c, 13, 50, 0
17, 15120, Note_on_c, 13, 52, 76
17, 15224, Note_on_c, 13, 52, 0
17, 15240, Note_on_c, 13, 54, 76
17, 15344, Note_on_c, 13, 54, 0
17, 15360, Note_on_c, 13, 50, 76
17, 15464, Note_on_c, 13, 50, 0
17, 15480, Note_on_c, 13, 56, 76
17, 15584, Note_on_c, 13, 56, 0
17, 15600, Note_on_c, 13, 52, 76
17, 15704, Note_on_c, 13, 52, 0
17, 15720, Note_on_c, 13, 57, 76
17, 15824, Note_on_c, 13, 57, 0
17, 15840, Note_on_c, 13, 49, 76
17, 15944, Note_on_c, 13, 49, 0
17, 15960, Note_on_c, 13, 47, 76
17, 16064, Note_on_c, 13, 47, 0
17, 16080, Note_on_c, 13, 45, 76
17, 16184, Note_on_c, 13, 45, 0
17, 16200, Note_on_c, 13, 50, 76
17, 16304, Note_on_c, 13, 50, 0
17, 16320, Note_on_c, 13, 52, 76
17, 16424, Note_on_c, 13, 52, 0
17, 16440, Note_on_c, 13, 54, 76
17, 16544, Note_on_c, 13, 54, 0
17, 16560, Note_on_c, 13, 50, 76
17, 16664, Note_on_c, 13, 50, 0
17, 16680, Note_on_c, 13, 52, 76
17, 16784, Note_on_c, 13, 52, 0
17, 16800, Note_on_c, 13, 40, 76
17, 16904, Note_on_c, 13, 40, 0
17, 16920, Note_on_c, 13, 45, 76
17, 17279, Note_on_c, 13, 45, 0
17, 18000, Note_on_c, 13, 50, 76
17, 18051, Note_on_c, 13, 50, 0
17, 18060, Note_on_c, 13, 52, 76
17, 18111, Note_on_c, 13, 52, 0
17, 18120, Note_on_c, 13, 54, 76
17, 18224, Note_on_c, 13, 54, 0
17, 18240, Note_on_c, 13, 57, 76
17, 18344, Note_on_c, 13, 57, 0
17, 18360, Note_on_c, 13, 62, 76
17, 18464, Note_on_c, 13, 62, 0
17, 18480, Note_on_c, 13, 57, 76
17, 18584, Note_on_c, 13, 57, 0
17, 18600, Note_on_c, 13, 45, 76
17, 18719, Note_on_c, 13, 45, 0
17, 19440, Note_on_c, 13, 52, 76
17, 19491, Note_on_c, 13, 52, 0
17, 19500, Note_on_c, 13, 54, 76
17, 19551, Note_on_c, 13, 54, 0
17, 19560, Note_on_c, 13, 55, 76
17, 19664, Note_on_c, 13, 55, 0
17, 19680, Note_on_c, 13, 59, 76
17, 19784, Note_on_c, 13, 59, 0
17, 19800, Note_on_c, 13, 64, 76
17, 19904, Note_on_c, 13, 64, 0
17, 19920, Note_on_c, 13, 59, 76
17, 20024, Note_on_c, 13, 59, 0
17, 20040, Note_on_c, 13, 47, 76
17, 20144, Note_on_c, 13, 47, 0
17, 20160, Note_on_c, 13, 52, 76
17, 20211, Note_on_c, 13, 52, 0
17, 20220, Note_on_c, 13, 51, 76
17, 20271, Note_on_c, 13, 51, 0
17, 20280, Note_on_c, 13, 52, 76
17, 20384, Note_on_c, 13, 52, 0
17, 20400, Note_on_c, 13, 45, 76
17, 20504, Note_on_c, 13, 45, 0
17, 20520, Note_on_c, 13, 47, 76
17, 20624, Note_on_c, 13, 47, 0
17, 20640, Note_on_c, 13, 42, 76
17, 20744, Note_on_c, 13, 42, 0
17, 20760, Note_on_c, 13, 43, 76
17, 20864, Note_on_c, 13, 43, 0
17, 20880, Note_on_c, 13, 40, 76
17, 20931, Note_on_c, 13, 40, 0
17, 20940, Note_on_c, 13, 42, 76
17, 20991, Note_on_c, 13, 42, 0
17, 21000, Note_on_c, 13, 43, 76
17, 21104, Note_on_c, 13, 43, 0
17, 21120, Note_on_c, 13, 45, 76
17, 21224, Note_on_c, 13, 45, 0
17, 21240, Note_on_c, 13, 47, 76
17, 21344, Note_on_c, 13, 47, 0
17, 21360, Note_on_c, 13, 52, 76
17, 21411, Note_on_c, 13, 52, 0
17, 21420, Note_on_c, 13, 51, 76
17, 21471, Note_on_c, 13, 51, 0
17, 21480, Note_on_c, 13, 52, 76
17, 21584, Note_on_c, 13, 52, 0
17, 21600, Note_on_c, 13, 49, 76
17, 21704, Note_on_c, 13, 49, 0
17, 21720, Note_on_c, 13, 50, 76
17, 21824, Note_on_c, 13, 50, 0
17, 21840, Note_on_c, 13, 47, 76
17, 21944, Note_on_c, 13, 47, 0
17, 21960, Note_on_c, 13, 49, 76
17, 22064, Note_on_c, 13, 49, 0
17, 22080, Note_on_c, 13, 46, 76
17, 22184, Note_on_c, 13, 46, 0
17, 22200, Note_on_c, 13, 47, 76
17, 22304, Note_on_c, 13, 47, 0
17, 22320, Note_on_c, 13, 50, 76
17, 22424, Note_on_c, 13, 50, 0
17, 22440, Note_on_c, 13, 49, 76
17, 22544, Note_on_c, 13, 49, 0
17, 22560, Note_on_c, 13, 47, 76
17, 22664, Note_on_c, 13, 47, 0
17, 22680, Note_on_c, 13, 52, 76
17, 22784, Note_on_c, 13, 52, 0
17, 22800, Note_on_c, 13, 54, 76
17, 22904, Note_on_c, 13, 54, 0
17, 22920, Note_on_c, 13, 55, 76
17, 23024, Note_on_c, 13, 55, 0
17, 23040, Note_on_c, 13, 54, 76
17, 23091, Note_on_c, 13, 54, 0
17, 23100, Note_on_c, 13, 52, 76
17, 23151, Note_on_c, 13, 52, 0
17, 23160, Note_on_c, 13, 50, 76
17, 23264, Note_on_c, 13, 50, 0
17, 23280, Note_on_c, 13, 52, 76
17, 23384, Note_on_c, 13, 52, 0
17, 23400, Note_on_c, 13, 54, 76
17, 23639, Note_on_c, 13, 54, 0
17, 23760, Note_on_c, 13, 47, 76
17, 23811, Note_on_c, 13, 47, 0
17, 23820, Note_on_c, 13, 46, 76
17, 23871, Note_on_c, 13, 46, 0
17, 23880, Note_on_c, 13, 47, 76
17, 23984, Note_on_c, 13, 47, 0
17, 24000, Note_on_c, 13, 49, 76
17, 24104, Note_on_c, 13, 49, 0
17, 24120, Note_on_c, 13, 46, 76
17, 24149, Note_on_c, 13, 46, 0
17, 24150, Note_on_c, 13, 47, 76
17, 24179, Note_on_c, 13, 47, 0
17, 24180, Note_on_c, 13, 44, 76
17, 24209, Note_on_c, 13, 44, 0
17, 24210, Note_on_c, 13, 46, 76
17, 24239, Note_on_c, 13, 46, 0
17, 24240, Note_on_c, 13, 44, 76
17, 24291, Note_on_c, 13, 44, 0
17, 24300, Note_on_c, 13, 42, 76
17, 24351, Note_on_c, 13, 42, 0
17, 24360, Note_on_c, 13, 54, 76
17, 24539, Note_on_c, 13, 54, 0
17, 24600, Note_on_c, 13, 52, 76
17, 24779, Note_on_c, 13, 52, 0
17, 24960, Note_on_c, 13, 50, 76
17, 25011, Note_on_c, 13, 50, 0
17, 25020, Note_on_c, 13, 49, 76
17, 25071, Note_on_c, 13, 49, 0
17, 25080, Note_on_c, 13, 50, 76
17, 25184, Note_on_c, 13, 50, 0
17, 25200, Note_on_c, 13, 52, 76
17, 25304, Note_on_c, 13, 52, 0
17, 25320, Note_on_c, 13, 49, 76
17, 25349, Note_on_c, 13, 49, 0
17, 25350, Note_on_c, 13, 50, 76
17, 25379, Note_on_c, 13, 50, 0
17, 25380, Note_on_c, 13, 47, 76
17, 25409, Note_on_c, 13, 47, 0
17, 25410, Note_on_c, 13, 49, 76
17, 25439, Note_on_c, 13, 49, 0
17, 25440, Note_on_c, 13, 47, 76
17, 25491, Note_on_c, 13, 47, 0
17, 25500, Note_on_c, 13, 46, 76
17, 25551, Note_on_c, 13, 46, 0
17, 25560, Note_on_c, 13, 53, 76
17, 25784, Note_on_c, 13, 53, 0
17, 25800, Note_on_c, 13, 54, 76
17, 25904, Note_on_c, 13, 54, 0
17, 25920, Note_on_c, 13, 42, 76
17, 26024, Note_on_c, 13, 42, 0
17, 26040, Note_on_c, 13, 44, 76
17, 26144, Note_on_c, 13, 44, 0
17, 26160, Note_on_c, 13, 46, 76
17, 26264, Note_on_c, 13, 46, 0
17, 26280, Note_on_c, 13, 47, 76
17, 26384, Note_on_c, 13, 47, 0
17, 26400, Note_on_c, 13, 50, 76
17, 26504, Note_on_c, 13, 50, 0
17, 26520, Note_on_c, 13, 52, 76
17, 26624, Note_on_c, 13, 52, 0
17, 26640, Note_on_c, 13, 54, 76
17, 26744, Note_on_c, 13, 54, 0
17, 26760, Note_on_c, 13, 55, 76
17, 26864, Note_on_c, 13, 55, 0
17, 26880, Note_on_c, 13, 52, 76
17, 26984, Note_on_c, 13, 52, 0
17, 27000, Note_on_c, 13, 58, 76
17, 27104, Note_on_c, 13, 58, 0
17, 27120, Note_on_c, 13, 54, 76
17, 27224, Note_on_c, 13, 54, 0
17, 27240, Note_on_c, 13, 59, 76
17, 27344, Note_on_c, 13, 59, 0
17, 27360, Note_on_c, 13, 50, 76
17, 27464, Note_on_c, 13, 50, 0
17, 27480, Note_on_c, 13, 49, 76
17, 27584, Note_on_c, 13, 49, 0
17, 27600, Note_on_c, 13, 47, 76
17, 27704, Note_on_c, 13, 47, 0
17, 27720, Note_on_c, 13, 52, 76
17, 27824, Note_on_c, 13, 52, 0
17, 27840, Note_on_c, 13, 54, 76
17, 27944, Note_on_c, 13, 54, 0
17, 27960, Note_on_c, 13, 55, 76
17, 28064, Note_on_c, 13, 55, 0
17, 28080, Note_on_c, 13, 52, 76
17, 28184, Note_on_c, 13, 52, 0
17, 28200, Note_on_c, 13, 54, 76
17, 28304, Note_on_c, 13, 54, 0
17, 28320, Note_on_c, 13, 42, 76
17, 28424, Note_on_c, 13, 42, 0
17, 28440, Note_on_c, 13, 47, 76
17, 28679, Note_on_c, 13, 47, 0
17, 29520, Note_on_c, 13, 50, 76
17, 29624, Note_on_c, 13, 50, 0
17, 29640, Note_on_c, 13, 62, 76
17, 29744, Note_on_c, 13, 62, 0
17, 29760, Note_on_c, 13, 50, 76
17, 29864, Note_on_c, 13, 50, 0
17, 29880, Note_on_c, 13, 55, 76
17, 29984, Note_on_c, 13, 55, 0
17, 30000, Note_on_c, 13, 50, 76
17, 30104, Note_on_c, 13, 50, 0
17, 30120, Note_on_c, 13, 43, 76
17, 30239, Note_on_c, 13, 43, 0
17, 30960, Note_on_c, 13, 52, 76
17, 31064, Note_on_c, 13, 52, 0
17, 31080, Note_on_c, 13, 64, 76
17, 31184, Note_on_c, 13, 64, 0
17, 31200, Note_on_c, 13, 52, 76
17, 31304, Note_on_c, 13, 52, 0
17, 31320, Note_on_c, 13, 57, 76
17, 31424, Note_on_c, 13, 57, 0
17, 31440, Note_on_c, 13, 52, 76
17, 31544, Note_on_c, 13, 52, 0
17, 31560, Note_on_c, 13, 45, 76
17, 31664, Note_on_c, 13, 45, 0
17, 31680, Note_on_c, 13, 45, 76
17, 31784, Note_on_c, 13, 45, 0
17, 31800, Note_on_c, 13, 45, 76
17, 31904, Note_on_c, 13, 45, 0
17, 31920, Note_on_c, 13, 45, 76
17, 32024, Note_on_c, 13, 45, 0
17, 32040, Note_on_c, 13, 45, 76
17, 32144, Note_on_c, 13, 45, 0
17, 32160, Note_on_c, 13, 45, 76
17, 32264, Note_on_c, 13, 45, 0
17, 32280, Note_on_c, 13, 45, 76
17, 32384, Note_on_c, 13, 45, 0
17, 32400, Note_on_c, 13, 45, 76
17, 32504, Note_on_c, 13, 45, 0
17, 32520, Note_on_c, 13, 45, 76
17, 32624, Note_on_c, 13, 45, 0
17, 32640, Note_on_c, 13, 45, 76
17, 32744, Note_on_c, 13, 45, 0
17, 32760, Note_on_c, 13, 45, 76
17, 32864, Note_on_c, 13, 45, 0
17, 32880, Note_on_c, 13, 45, 76
17, 32984, Note_on_c, 13, 45, 0
17, 33000, Note_on_c, 13, 45, 76
17, 33104, Note_on_c, 13, 45, 0
17, 33120, Note_on_c, 13, 45, 76
17, 33224, Note_on_c, 13, 45, 0
17, 33240, Note_on_c, 13, 45, 76
17, 33344, Note_on_c, 13, 45, 0
17, 33360, Note_on_c, 13, 45, 76
17, 33464, Note_on_c, 13, 45, 0
17, 33480, Note_on_c, 13, 45, 76
17, 34199, Note_on_c, 13, 45, 0
17, 34200, Note_on_c, 13, 45, 76
17, 34919, Note_on_c, 13, 45, 0
17, 34920, Note_on_c, 13, 45, 76
17, 35744, Note_on_c, 13, 45, 0
17, 35760, Note_on_c, 13, 57, 76
17, 35811, Note_on_c, 13, 57, 0
17, 35820, Note_on_c, 13, 56, 76
17, 35871, Note_on_c, 13, 56, 0
17, 35880, Note_on_c, 13, 57, 76
17, 35984, Note_on_c, 13, 57, 0
17, 36000, Note_on_c, 13, 45, 76
17, 36104, Note_on_c, 13, 45, 0
17, 36120, Note_on_c, 13, 47, 76
17, 36224, Note_on_c, 13, 47, 0
17, 36240, Note_on_c, 13, 49, 76
17, 36344, Note_on_c, 13, 49, 0
17, 36360, Note_on_c, 13, 50, 76
17, 36464, Note_on_c, 13, 50, 0
17, 36480, Note_on_c, 13, 54, 76
17, 36584, Note_on_c, 13, 54, 0
17, 36600, Note_on_c, 13, 52, 76
17, 36704, Note_on_c, 13, 52, 0
17, 36720, Note_on_c, 13, 50, 76
17, 36824, Note_on_c, 13, 50, 0
17, 36840, Note_on_c, 13, 57, 76
17, 36944, Note_on_c, 13, 57, 0
17, 36960, Note_on_c, 13, 45, 76
17, 37064, Note_on_c, 13, 45, 0
17, 37080, Note_on_c, 13, 47, 76
17, 37319, Note_on_c, 13, 47, 0
17, 37440, Note_on_c, 13, 49, 76
17, 37491, Note_on_c, 13, 49, 0
17, 37500, Note_on_c, 13, 50, 76
17, 37551, Note_on_c, 13, 50, 0
17, 37560, Note_on_c, 13, 52, 76
17, 37664, Note_on_c, 13, 52, 0
17, 37680, Note_on_c, 13, 40, 76
17, 37784, Note_on_c, 13, 40, 0
17, 37800, Note_on_c, 13, 45, 76
17, 38039, Note_on_c, 13, 45, 0
17, 38160, Note_on_c, 13, 50, 76
17, 38211, Note_on_c, 13, 50, 0
17, 38220, Note_on_c, 13, 49, 76
17, 38271, Note_on_c, 13, 49, 0
17, 38280, Note_on_c, 13, 50, 76
17, 38384, Note_on_c, 13, 50, 0
17, 38400, Note_on_c, 13, 52, 76
17, 38504, Note_on_c, 13, 52, 0
17, 38520, Note_on_c, 13, 49, 76
17, 38549, Note_on_c, 13, 49, 0
17, 38550, Note_on_c, 13, 50, 76
17, 38579, Note_on_c, 13, 50, 0
17, 38580, Note_on_c, 13, 47, 76
17, 38609, Note_on_c, 13, 47, 0
17, 38610, Note_on_c, 13, 49, 76
17, 38639, Note_on_c, 13, 49, 0
17, 38640, Note_on_c, 13, 47, 76
17, 38691, Note_on_c, 13, 47, 0
17, 38700, Note_on_c, 13, 45, 76
17, 38751, Note_on_c, 13, 45, 0
17, 38760, Note_on_c, 13, 57, 76
17, 38939, Note_on_c, 13, 57, 0
17, 39000, Note_on_c, 13, 55, 76
17, 39179, Note_on_c, 13, 55, 0
17, 39360, Note_on_c, 13, 54, 76
17, 39411, Note_on_c, 13, 54, 0
17, 39420, Note_on_c, 13, 52, 76
17, 39471, Note_on_c, 13, 52, 0
17, 39480, Note_on_c, 13, 54, 76
17, 39584, Note_on_c, 13, 54, 0
17, 39600, Note_on_c, 13, 55, 76
17, 39704, Note_on_c, 13, 55, 0
17, 39720, Note_on_c, 13, 52, 76
17, 39824, Note_on_c, 13, 52, 0
17, 39840, Note_on_c, 13, 50, 76
17, 39891, Note_on_c, 13, 50, 0
17, 39900, Note_on_c, 13, 49, 76
17, 39951, Note_on_c, 13, 49, 0
17, 39960, Note_on_c, 13, 56, 76
17, 40139, Note_on_c, 13, 56, 0
17, 40200, Note_on_c, 13, 57, 76
17, 40304, Note_on_c, 13, 57, 0
17, 40320, Note_on_c, 13, 45, 76
17, 40424, Note_on_c, 13, 45, 0
17, 40440, Note_on_c, 13, 47, 76
17, 40544, Note_on_c, 13, 47, 0
17, 40560, Note_on_c, 13, 49, 76
17, 40664, Note_on_c, 13, 49, 0
17, 40680, Note_on_c, 13, 50, 76
17, 40784, Note_on_c, 13, 50, 0
17, 40800, Note_on_c, 13, 54, 76
17, 40904, Note_on_c, 13, 54, 0
17, 40920, Note_on_c, 13, 55, 76
17, 41024, Note_on_c, 13, 55, 0
17, 41040, Note_on_c, 13, 57, 76
17, 41144, Note_on_c, 13, 57, 0
17, 41160, Note_on_c, 13, 59, 76
17, 41264, Note_on_c, 13, 59, 0
17, 41280, Note_on_c, 13, 55, 76
17, 41384, Note_on_c, 13, 55, 0
17, 41400, Note_on_c, 13, 61, 76
17, 41504, Note_on_c, 13, 61, 0
17, 41520, Note_on_c, 13, 57, 76
17, 41624, Note_on_c, 13, 57, 0
17, 41640, Note_on_c, 13, 62, 76
17, 41744, Note_on_c, 13, 62, 0
17, 41760, Note_on_c, 13, 54, 76
17, 41864, Note_on_c, 13, 54, 0
17, 41880, Note_on_c, 13, 52, 76
17, 41984, Note_on_c, 13, 52, 0
17, 42000, Note_on_c, 13, 50, 76
17, 42104, Note_on_c, 13, 50, 0
17, 42120, Note_on_c, 13, 59, 76
17, 42224, Note_on_c, 13, 59, 0
17, 42240, Note_on_c, 13, 52, 76
17, 42344, Note_on_c, 13, 52, 0
17, 42360, Note_on_c, 13, 54, 76
17, 42464, Note_on_c, 13, 54, 0
17, 42480, Note_on_c, 13, 55, 76
17, 42584, Note_on_c, 13, 55, 0
17, 42600, Note_on_c, 13, 57, 76
17, 42704, Note_on_c, 13, 57, 0
17, 42720, Note_on_c, 13, 45, 76
17, 42824, Note_on_c, 13, 45, 0
17, 42840, Note_on_c, 13, 38, 76
17, 43199, Note_on_c, 13, 38, 0
17, 43920, Note_on_c, 13, 50, 76
17, 43971, Note_on_c, 13, 50, 0
17, 43980, Note_on_c, 13, 52, 76
17, 44031, Note_on_c, 13, 52, 0
17, 44040, Note_on_c, 13, 54, 76
17, 44144, Note_on_c, 13, 54, 0
17, 44160, Note_on_c, 13, 57, 76
17, 44264, Note_on_c, 13, 57, 0
17, 44280, Note_on_c, 13, 62, 76
17, 44384, Note_on_c, 13, 62, 0
17, 44400, Note_on_c, 13, 57, 76
17, 44504, Note_on_c, 13, 57, 0
17, 44520, Note_on_c, 13, 45, 76
17, 44639, Note_on_c, 13, 45, 0
17, 45360, Note_on_c, 13, 52, 76
17, 45411, Note_on_c, 13, 52, 0
17, 45420, Note_on_c, 13, 54, 76
17, 45471, Note_on_c, 13, 54, 0
17, 45480, Note_on_c, 13, 55, 76
17, 45584, Note_on_c, 13, 55, 0
17, 45600, Note_on_c, 13, 59, 76
17, 45704, Note_on_c, 13, 59, 0
17, 45720, Note_on_c, 13, 64, 76
17, 45824, Note_on_c, 13, 64, 0
17, 45840, Note_on_c, 13, 59, 76
17, 45944, Note_on_c, 13, 59, 0
17, 45960, Note_on_c, 13, 47, 76
17, 46064, Note_on_c, 13, 47, 0
17, 46080, Note_on_c, 13, 52, 76
17, 46131, Note_on_c, 13, 52, 0
17, 46140, Note_on_c, 13, 51, 76
17, 46191, Note_on_c, 13, 51, 0
17, 46200, Note_on_c, 13, 52, 76
17, 46304, Note_on_c, 13, 52, 0
17, 46320, Note_on_c, 13, 45, 76
17, 46424, Note_on_c, 13, 45, 0
17, 46440, Note_on_c, 13, 47, 76
17, 46544, Note_on_c, 13, 47, 0
17, 46560, Note_on_c, 13, 42, 76
17, 46664, Note_on_c, 13, 42, 0
17, 46680, Note_on_c, 13, 43, 76
17, 46784, Note_on_c, 13, 43, 0
17, 46800, Note_on_c, 13, 40, 76
17, 46851, Note_on_c, 13, 40, 0
17, 46860, Note_on_c, 13, 42, 76
17, 46911, Note_on_c, 13, 42, 0
17, 46920, Note_on_c, 13, 43, 76
17, 47024, Note_on_c, 13, 43, 0
17, 47040, Note_on_c, 13, 45, 76
17, 47144, Note_on_c, 13, 45, 0
17, 47160, Note_on_c, 13, 47, 76
17, 47264, Note_on_c, 13, 47, 0
17, 47280, Note_on_c, 13, 52, 76
17, 47331, Note_on_c, 13, 52, 0
17, 47340, Note_on_c, 13, 51, 76
17, 47391, Note_on_c, 13, 51, 0
17, 47400, Note_on_c, 13, 52, 76
17, 47504, Note_on_c, 13, 52, 0
17, 47520, Note_on_c, 13, 49, 76
17, 47624, Note_on_c, 13, 49, 0
17, 47640, Note_on_c, 13, 50, 76
17, 47744, Note_on_c, 13, 50, 0
17, 47760, Note_on_c, 13, 47, 76
17, 47864, Note_on_c, 13, 47, 0
17, 47880, Note_on_c, 13, 49, 76
17, 47984, Note_on_c, 13, 49, 0
17, 48000, Note_on_c, 13, 46, 76
17, 48104, Note_on_c, 13, 46, 0
17, 48120, Note_on_c, 13, 47, 76
17, 48224, Note_on_c, 13, 47, 0
17, 48240, Note_on_c, 13, 50, 76
17, 48344, Note_on_c, 13, 50, 0
17, 48360, Note_on_c, 13, 49, 76
17, 48464, Note_on_c, 13, 49, 0
17, 48480, Note_on_c, 13, 47, 76
17, 48584, Note_on_c, 13, 47, 0
17, 48600, Note_on_c, 13, 52, 76
17, 48704, Note_on_c, 13, 52, 0
17, 48720, Note_on_c, 13, 54, 76
17, 48824, Note_on_c, 13, 54, 0
17, 48840, Note_on_c, 13, 55, 76
17, 48944, Note_on_c, 13, 55, 0
17, 48960, Note_on_c, 13, 54, 76
17, 49011, Note_on_c, 13, 54, 0
17, 49020, Note_on_c, 13, 52, 76
17, 49071, Note_on_c, 13, 52, 0
17, 49080, Note_on_c, 13, 50, 76
17, 49184, Note_on_c, 13, 50, 0
17, 49200, Note_on_c, 13, 52, 76
17, 49304, Note_on_c, 13, 52, 0
17, 49320, Note_on_c, 13, 54, 76
17, 49559, Note_on_c, 13, 54, 0
17, 49680, Note_on_c, 13, 47, 76
17, 49731, Note_on_c, 13, 47, 0
17, 49740, Note_on_c, 13, 46, 76
17, 49791, Note_on_c, 13, 46, 0
17, 49800, Note_on_c, 13, 47, 76
17, 49904, Note_on_c, 13, 47, 0
17, 49920, Note_on_c, 13, 49, 76
17, 50024, Note_on_c, 13, 49, 0
17, 50040, Note_on_c, 13, 46, 76
17, 50069, Note_on_c, 13, 46, 0
17, 50070, Note_on_c, 13, 47, 76
17, 50099, Note_on_c, 13, 47, 0
17, 50100, Note_on_c, 13, 44, 76
17, 50129, Note_on_c, 13, 44, 0
17, 50130, Note_on_c, 13, 46, 76
17, 50159, Note_on_c, 13, 46, 0
17, 50160, Note_on_c, 13, 44, 76
17, 50211, Note_on_c, 13, 44, 0
17, 50220, Note_on_c, 13, 42, 76
17, 50271, Note_on_c, 13, 42, 0
17, 50280, Note_on_c, 13, 54, 76
17, 50459, Note_on_c, 13, 54, 0
17, 50520, Note_on_c, 13, 52, 76
17, 50699, Note_on_c, 13, 52, 0
17, 50880, Note_on_c, 13, 50, 76
17, 50931, Note_on_c, 13, 50, 0
17, 50940, Note_on_c, 13, 49, 76
17, 50991, Note_on_c, 13, 49, 0
17, 51000, Note_on_c, 13, 50, 76
17, 51104, Note_on_c, 13, 50, 0
17, 51120, Note_on_c, 13, 52, 76
17, 51224, Note_on_c, 13, 52, 0
17, 51240, Note_on_c, 13, 49, 76
17, 51269, Note_on_c, 13, 49, 0
17, 51270, Note_on_c, 13, 50, 76
17, 51299, Note_on_c, 13, 50, 0
17, 51300, Note_on_c, 13, 47, 76
17, 51329, Note_on_c, 13, 47, 0
17, 51330, Note_on_c, 13, 49, 76
17, 51359, Note_on_c, 13, 49, 0
17, 51360, Note_on_c, 13, 47, 76
17, 51411, Note_on_c, 13, 47, 0
17, 51420, Note_on_c, 13, 46, 76
17, 51471, Note_on_c, 13, 46, 0
17, 51480, Note_on_c, 13, 53, 76
17, 51704, Note_on_c, 13, 53, 0
17, 51720, Note_on_c, 13, 54, 76
17, 51824, Note_on_c, 13, 54, 0
17, 51840, Note_on_c, 13, 42, 76
17, 51944, Note_on_c, 13, 42, 0
17, 51960, Note_on_c, 13, 44, 76
17, 52064, Note_on_c, 13, 44, 0
17, 52080, Note_on_c, 13, 46, 76
17, 52184, Note_on_c, 13, 46, 0
17, 52200, Note_on_c, 13, 47, 76
17, 52304, Note_on_c, 13, 47, 0
17, 52320, Note_on_c, 13, 50, 76
17, 52424, Note_on_c, 13, 50, 0
17, 52440, Note_on_c, 13, 52, 76
17, 52544, Note_on_c, 13, 52, 0
17, 52560, Note_on_c, 13, 54, 76
17, 52664, Note_on_c, 13, 54, 0
17, 52680, Note_on_c, 13, 55, 76
17, 52784, Note_on_c, 13, 55, 0
17, 52800, Note_on_c, 13, 52, 76
17, 52904, Note_on_c, 13, 52, 0
17, 52920, Note_on_c, 13, 58, 76
17, 53024, Note_on_c, 13, 58, 0
17, 53040, Note_on_c, 13, 54, 76
17, 53144, Note_on_c, 13, 54, 0
17, 53160, Note_on_c, 13, 59, 76
17, 53264, Note_on_c, 13, 59, 0
17, 53280, Note_on_c, 13, 50, 76
17, 53384, Note_on_c, 13, 50, 0
17, 53400, Note_on_c, 13, 49, 76
17, 53504, Note_on_c, 13, 49, 0
17, 53520, Note_on_c, 13, 47, 76
17, 53624, Note_on_c, 13, 47, 0
17, 53640, Note_on_c, 13, 52, 76
17, 53744, Note_on_c, 13, 52, 0
17, 53760, Note_on_c, 13, 54, 76
17, 53864, Note_on_c, 13, 54, 0
17, 53880, Note_on_c, 13, 55, 76
17, 53984, Note_on_c, 13, 55, 0
17, 54000, Note_on_c, 13, 52, 76
17, 54104, Note_on_c, 13, 52, 0
17, 54120, Note_on_c, 13, 54, 76
17, 54224, Note_on_c, 13, 54, 0
17, 54240, Note_on_c, 13, 42, 76
17, 54344, Note_on_c, 13, 42, 0
17, 54360, Note_on_c, 13, 47, 76
17, 54599, Note_on_c, 13, 47, 0
17, 55440, Note_on_c, 13, 50, 76
17, 55544, Note_on_c, 13, 50, 0
17, 55560, Note_on_c, 13, 62, 76
17, 55664, Note_on_c, 13, 62, 0
17, 55680, Note_on_c, 13, 50, 76
17, 55784, Note_on_c, 13, 50, 0
17, 55800, Note_on_c, 13, 55, 76
17, 55904, Note_on_c, 13, 55, 0
17, 55920, Note_on_c, 13, 50, 76
17, 56024, Note_on_c, 13, 50, 0
17, 56040, Note_on_c, 13, 43, 76
17, 56159, Note_on_c, 13, 43, 0
17, 56880, Note_on_c, 13, 52, 76
17, 56984, Note_on_c, 13, 52, 0
17, 57000, Note_on_c, 13, 64, 76
17, 57104, Note_on_c, 13, 64, 0
17, 57120, Note_on_c, 13, 52, 76
17, 57224, Note_on_c, 13, 52, 0
17, 57240, Note_on_c, 13, 57, 76
17, 57344, Note_on_c, 13, 57, 0
17, 57360, Note_on_c, 13, 52, 76
17, 57464, Note_on_c, 13, 52, 0
17, 57480, Note_on_c, 13, 45, 76
17, 57584, Note_on_c, 13, 45, 0
17, 57600, Note_on_c, 13, 45, 76
17, 57704, Note_on_c, 13, 45, 0
17, 57720, Note_on_c, 13, 45, 76
17, 57824, Note_on_c, 13, 45, 0
17, 57840, Note_on_c, 13, 45, 76
17, 57944, Note_on_c, 13, 45, 0
17, 57960, Note_on_c, 13, 45, 76
17, 58064, Note_on_c, 13, 45, 0
17, 58080, Note_on_c, 13, 45, 76
17, 58184, Note_on_c, 13, 45, 0
17, 58200, Note_on_c, 13, 45, 76
17, 58304, Note_on_c, 13, 45, 0
17, 58320, Note_on_c, 13, 45, 76
17, 58424, Note_on_c, 13, 45, 0
17, 58440, Note_on_c, 13, 45, 76
17, 58544, Note_on_c, 13, 45, 0
17, 58560, Note_on_c, 13, 45, 76
17, 58664, Note_on_c, 13, 45, 0
17, 58680, Note_on_c, 13, 45, 76
17, 58784, Note_on_c, 13, 45, 0
17, 58800, Note_on_c, 13, 45, 76
17, 58904, Note_on_c, 13, 45, 0
17, 58920, Note_on_c, 13, 45, 76
17, 59024, Note_on_c, 13, 45, 0
17, 59040, Note_on_c, 13, 45, 76
17, 59144, Note_on_c, 13, 45, 0
17, 59160, Note_on_c, 13, 45, 76
17, 59264, Note_on_c, 13, 45, 0
17, 59280, Note_on_c, 13, 45, 76
17, 59384, Note_on_c, 13, 45, 0
17, 59400, Note_on_c, 13, 45, 76
17, 60119, Note_on_c, 13, 45, 0
17, 60120, Note_on_c, 13, 45, 76
17, 60839, Note_on_c, 13, 45, 0
17, 60840, Note_on_c, 13, 45, 76
17, 61664, Note_on_c, 13, 45, 0
17, 61680, Note_on_c, 13, 57, 76
17, 61731, Note_on_c, 13, 57, 0
17, 61740, Note_on_c, 13, 56, 76
17, 61791, Note_on_c, 13, 56, 0
17, 61800, Note_on_c, 13, 57, 76
17, 61904, Note_on_c, 13, 57, 0
17, 61920, Note_on_c, 13, 45, 76
17, 62024, Note_on_c, 13, 45, 0
17, 62040, Note_on_c, 13, 47, 76
17, 62144, Note_on_c, 13, 47, 0
17, 62160, Note_on_c, 13, 49, 76
17, 62264, Note_on_c, 13, 49, 0
17, 62280, Note_on_c, 13, 50, 76
17, 62384, Note_on_c, 13, 50, 0
17, 62400, Note_on_c, 13, 54, 76
17, 62504, Note_on_c, 13, 54, 0
17, 62520, Note_on_c, 13, 52, 76
17, 62624, Note_on_c, 13, 52, 0
17, 62640, Note_on_c, 13, 50, 76
17, 62744, Note_on_c, 13, 50, 0
17, 62760, Note_on_c, 13, 57, 76
17, 62864, Note_on_c, 13, 57, 0
17, 62880, Note_on_c, 13, 45, 76
17, 62984, Note_on_c, 13, 45, 0
17, 63000, Note_on_c, 13, 47, 76
17, 63239, Note_on_c, 13, 47, 0
17, 63360, Note_on_c, 13, 49, 76
17, 63411, Note_on_c, 13, 49, 0
17, 63420, Note_on_c, 13, 50, 76
17, 63471, Note_on_c, 13, 50, 0
17, 63480, Note_on_c, 13, 52, 76
17, 63584, Note_on_c, 13, 52, 0
17, 63600, Note_on_c, 13, 40, 76
17, 63704, Note_on_c, 13, 40, 0
17, 63720, Note_on_c, 13, 45, 76
17, 63959, Note_on_c, 13, 45, 0
17, 64080, Note_on_c, 13, 50, 76
17, 64131, Note_on_c, 13, 50, 0
17, 64140, Note_on_c, 13, 49, 76
17, 64191, Note_on_c, 13, 49, 0
17, 64200, Note_on_c, 13, 50, 76
17, 64304, Note_on_c, 13, 50, 0
17, 64320, Note_on_c, 13, 52, 76
17, 64424, Note_on_c, 13, 52, 0
17, 64440, Note_on_c, 13, 49, 76
17, 64469, Note_on_c, 13, 49, 0
17, 64470, Note_on_c, 13, 50, 76
17, 64499, Note_on_c, 13, 50, 0
17, 64500, Note_on_c, 13, 47, 76
17, 64529, Note_on_c, 13, 47, 0
17, 64530, Note_on_c, 13, 49, 76
17, 64559, Note_on_c, 13, 49, 0
17, 64560, Note_on_c, 13, 47, 76
17, 64611, Note_on_c, 13, 47, 0
17, 64620, Note_on_c, 13, 45, 76
17, 64671, Note_on_c, 13, 45, 0
17, 64680, Note_on_c, 13, 57, 76
17, 64859, Note_on_c, 13, 57, 0
17, 64920, Note_on_c, 13, 55, 76
17, 65099, Note_on_c, 13, 55, 0
17, 65280, Note_on_c, 13, 54, 76
17, 65331, Note_on_c, 13, 54, 0
17, 65340, Note_on_c, 13, 52, 76
17, 65391, Note_on_c, 13, 52, 0
17, 65400, Note_on_c, 13, 54, 76
17, 65504, Note_on_c, 13, 54, 0
17, 65520, Note_on_c, 13, 55, 76
17, 65624, Note_on_c, 13, 55, 0
17, 65640, Note_on_c, 13, 52, 76
17, 65744, Note_on_c, 13, 52, 0
17, 65760, Note_on_c, 13, 50, 76
17, 65811, Note_on_c, 13, 50, 0
17, 65820, Note_on_c, 13, 49, 76
17, 65871, Note_on_c, 13, 49, 0
17, 65880, Note_on_c, 13, 56, 76
17, 66059, Note_on_c, 13, 56, 0
17, 66120, Note_on_c, 13, 57, 76
17, 66224, Note_on_c, 13, 57, 0
17, 66240, Note_on_c, 13, 45, 76
17, 66344, Note_on_c, 13, 45, 0
17, 66360, Note_on_c, 13, 47, 76
17, 66464, Note_on_c, 13, 47, 0
17, 66480, Note_on_c, 13, 49, 76
17, 66584, Note_on_c, 13, 49, 0
17, 66600, Note_on_c, 13, 50, 76
17, 66704, Note_on_c, 13, 50, 0
17, 66720, Note_on_c, 13, 54, 76
17, 66824, Note_on_c, 13, 54, 0
17, 66840, Note_on_c, 13, 55, 76
17, 66944, Note_on_c, 13, 55, 0
17, 66960, Note_on_c, 13, 57, 76
17, 67064, Note_on_c, 13, 57, 0
17, 67080, Note_on_c, 13, 59, 76
17, 67184, Note_on_c, 13, 59, 0
17, 67200, Note_on_c, 13, 55, 76
17, 67304, Note_on_c, 13, 55, 0
17, 67320, Note_on_c, 13, 61, 76
17, 67424, Note_on_c, 13, 61, 0
17, 67440, Note_on_c, 13, 57, 76
17, 67544, Note_on_c, 13, 57, 0
17, 67560, Note_on_c, 13, 62, 76
17, 67664, Note_on_c, 13, 62, 0
17, 67680, Note_on_c, 13, 54, 76
17, 67784, Note_on_c, 13, 54, 0
17, 67800, Note_on_c, 13, 52, 76
17, 67904, Note_on_c, 13, 52, 0
17, 67920, Note_on_c, 13, 50, 76
17, 68024, Note_on_c, 13, 50, 0
17, 68040, Note_on_c, 13, 59, 76
17, 68144, Note_on_c, 13, 59, 0
17, 68160, Note_on_c, 13, 52, 76
17, 68264, Note_on_c, 13, 52, 0
17, 68280, Note_on_c, 13, 54, 76
17, 68384, Note_on_c, 13, 54, 0
17, 68400, Note_on_c, 13, 55, 76
17, 68504, Note_on_c, 13, 55, 0
17, 68520, Note_on_c, 13, 57, 76
17, 68624, Note_on_c, 13, 57, 0
17, 68640, Note_on_c, 13, 45, 76
17, 68744, Note_on_c, 13, 45, 0
17, 68760, Note_on_c, 13, 38, 76
17, 69119, Note_on_c, 13, 38, 0
17, 69119, End_track
18, 0, Start_track
18, 0, Title_t, "Harpsichord "
18, 0, MIDI_port, 0
18, 0, Control_c, 14, 10, 64
18, 0, Control_c, 14, 11, 127
18, 0, Control_c, 14, 7, 72
18, 0, Program_c, 14, 6
18, 0, Note_on_c, 14, 62, 76
18, 51, Note_on_c, 14, 62, 0
18, 60, Note_on_c, 14, 61, 76
18, 111, Note_on_c, 14, 61, 0
18, 120, Note_on_c, 14, 62, 76
18, 224, Note_on_c, 14, 62, 0
18, 240, Note_on_c, 14, 55, 76
18, 344, Note_on_c, 14, 55, 0
18, 360, Note_on_c, 14, 57, 76
18, 464, Note_on_c, 14, 57, 0
18, 480, Note_on_c, 14, 52, 76
18, 584, Note_on_c, 14, 52, 0
18, 600, Note_on_c, 14, 54, 76
18, 704, Note_on_c, 14, 54, 0
18, 720, Note_on_c, 14, 50, 76
18, 771, Note_on_c, 14, 50, 0
18, 780, Note_on_c, 14, 52, 76
18, 831, Note_on_c, 14, 52, 0
18, 840, Note_on_c, 14, 54, 76
18, 944, Note_on_c, 14, 54, 0
18, 960, Note_on_c, 14, 55, 76
18, 1064, Note_on_c, 14, 55, 0
18, 1080, Note_on_c, 14, 57, 76
18, 1184, Note_on_c, 14, 57, 0
18, 1200, Note_on_c, 14, 62, 76
18, 1251, Note_on_c, 14, 62, 0
18, 1260, Note_on_c, 14, 61, 76
18, 1311, Note_on_c, 14, 61, 0
18, 1320, Note_on_c, 14, 62, 76
18, 1424, Note_on_c, 14, 62, 0
18, 1440, Note_on_c, 14, 59, 76
18, 1544, Note_on_c, 14, 59, 0
18, 1560, Note_on_c, 14, 61, 76
18, 1664, Note_on_c, 14, 61, 0
18, 1680, Note_on_c, 14, 57, 76
18, 1784, Note_on_c, 14, 57, 0
18, 1800, Note_on_c, 14, 59, 76
18, 1904, Note_on_c, 14, 59, 0
18, 1920, Note_on_c, 14, 56, 76
18, 2024, Note_on_c, 14, 56, 0
18, 2040, Note_on_c, 14, 57, 76
18, 2144, Note_on_c, 14, 57, 0
18, 2160, Note_on_c, 14, 49, 76
18, 2264, Note_on_c, 14, 49, 0
18, 2280, Note_on_c, 14, 47, 76
18, 2384, Note_on_c, 14, 47, 0
18, 2400, Note_on_c, 14, 45, 76
18, 2504, Note_on_c, 14, 45, 0
18, 2520, Note_on_c, 14, 50, 76
18, 2624, Note_on_c, 14, 50, 0
18, 2640, Note_on_c, 14, 52, 76
18, 2744, Note_on_c, 14, 52, 0
18, 2760, Note_on_c, 14, 54, 76
18, 2864, Note_on_c, 14, 54, 0
18, 2880, Note_on_c, 14, 52, 76
18, 2931, Note_on_c, 14, 52, 0
18, 2940, Note_on_c, 14, 50, 76
18, 2991, Note_on_c, 14, 50, 0
18, 3000, Note_on_c, 14, 49, 76
18, 3104, Note_on_c, 14, 49, 0
18, 3120, Note_on_c, 14, 50, 76
18, 3224, Note_on_c, 14, 50, 0
18, 3240, Note_on_c, 14, 52, 76
18, 3479, Note_on_c, 14, 52, 0
18, 3600, Note_on_c, 14, 57, 76
18, 3651, Note_on_c, 14, 57, 0
18, 3660, Note_on_c, 14, 56, 76
18, 3711, Note_on_c, 14, 56, 0
18, 3720, Note_on_c, 14, 57, 76
18, 3824, Note_on_c, 14, 57, 0
18, 3840, Note_on_c, 14, 59, 76
18, 3944, Note_on_c, 14, 59, 0
18, 3960, Note_on_c, 14, 56, 76
18, 3989, Note_on_c, 14, 56, 0
18, 3990, Note_on_c, 14, 57, 76
18, 4019, Note_on_c, 14, 57, 0
18, 4020, Note_on_c, 14, 54, 76
18, 4049, Note_on_c, 14, 54, 0
18, 4050, Note_on_c, 14, 56, 76
18, 4079, Note_on_c, 14, 56, 0
18, 4080, Note_on_c, 14, 54, 76
18, 4131, Note_on_c, 14, 54, 0
18, 4140, Note_on_c, 14, 52, 76
18, 4191, Note_on_c, 14, 52, 0
18, 4200, Note_on_c, 14, 64, 76
18, 4379, Note_on_c, 14, 64, 0
18, 4440, Note_on_c, 14, 62, 76
18, 4619, Note_on_c, 14, 62, 0
18, 4800, Note_on_c, 14, 61, 76
18, 4851, Note_on_c, 14, 61, 0
18, 4860, Note_on_c, 14, 59, 76
18, 4911, Note_on_c, 14, 59, 0
18, 4920, Note_on_c, 14, 61, 76
18, 5024, Note_on_c, 14, 61, 0
18, 5040, Note_on_c, 14, 62, 76
18, 5144, Note_on_c, 14, 62, 0
18, 5160, Note_on_c, 14, 59, 76
18, 5189, Note_on_c, 14, 59, 0
18, 5190, Note_on_c, 14, 61, 76
18, 5219, Note_on_c, 14, 61, 0
18, 5220, Note_on_c, 14, 57, 76
18, 5249, Note_on_c, 14, 57, 0
18, 5250, Note_on_c, 14, 59, 76
18, 5279, Note_on_c, 14, 59, 0
18, 5280, Note_on_c, 14, 57, 76
18, 5331, Note_on_c, 14, 57, 0
18, 5340, Note_on_c, 14, 56, 76
18, 5391, Note_on_c, 14, 56, 0
18, 5400, Note_on_c, 14, 63, 76
18, 5624, Note_on_c, 14, 63, 0
18, 5640, Note_on_c, 14, 64, 76
18, 5744, Note_on_c, 14, 64, 0
18, 5760, Note_on_c, 14, 52, 76
18, 5864, Note_on_c, 14, 52, 0
18, 5880, Note_on_c, 14, 54, 76
18, 5984, Note_on_c, 14, 54, 0
18, 6000, Note_on_c, 14, 56, 76
18, 6104, Note_on_c, 14, 56, 0
18, 6120, Note_on_c, 14, 57, 76
18, 6224, Note_on_c, 14, 57, 0
18, 6240, Note_on_c, 14, 49, 76
18, 6344, Note_on_c, 14, 49, 0
18, 6360, Note_on_c, 14, 50, 76
18, 6464, Note_on_c, 14, 50, 0
18, 6480, Note_on_c, 14, 52, 76
18, 6584, Note_on_c, 14, 52, 0
18, 6600, Note_on_c, 14, 54, 76
18, 6704, Note_on_c, 14, 54, 0
18, 6720, Note_on_c, 14, 50, 76
18, 6824, Note_on_c, 14, 50, 0
18, 6840, Note_on_c, 14, 56, 76
18, 6944, Note_on_c, 14, 56, 0
18, 6960, Note_on_c, 14, 52, 76
18, 7064, Note_on_c, 14, 52, 0
18, 7080, Note_on_c, 14, 57, 76
18, 7184, Note_on_c, 14, 57, 0
18, 7200, Note_on_c, 14, 49, 76
18, 7304, Note_on_c, 14, 49, 0
18, 7320, Note_on_c, 14, 47, 76
18, 7424, Note_on_c, 14, 47, 0
18, 7440, Note_on_c, 14, 45, 76
18, 7544, Note_on_c, 14, 45, 0
18, 7560, Note_on_c, 14, 50, 76
18, 7664, Note_on_c, 14, 50, 0
18, 7680, Note_on_c, 14, 52, 76
18, 7784, Note_on_c, 14, 52, 0
18, 7800, Note_on_c, 14, 54, 76
18, 7904, Note_on_c, 14, 54, 0
18, 7920, Note_on_c, 14, 50, 76
18, 8024, Note_on_c, 14, 50, 0
18, 8040, Note_on_c, 14, 52, 76
18, 8144, Note_on_c, 14, 52, 0
18, 8160, Note_on_c, 14, 40, 76
18, 8264, Note_on_c, 14, 40, 0
18, 8280, Note_on_c, 14, 45, 76
18, 8624, Note_on_c, 14, 45, 0
18, 8640, Note_on_c, 14, 62, 76
18, 8691, Note_on_c, 14, 62, 0
18, 8700, Note_on_c, 14, 61, 76
18, 8751, Note_on_c, 14, 61, 0
18, 8760, Note_on_c, 14, 62, 76
18, 8864, Note_on_c, 14, 62, 0
18, 8880, Note_on_c, 14, 55, 76
18, 8984, Note_on_c, 14, 55, 0
18, 9000, Note_on_c, 14, 57, 76
18, 9104, Note_on_c, 14, 57, 0
18, 9120, Note_on_c, 14, 52, 76
18, 9224, Note_on_c, 14, 52, 0
18, 9240, Note_on_c, 14, 54, 76
18, 9344, Note_on_c, 14, 54, 0
18, 9360, Note_on_c, 14, 50, 76
18, 9411, Note_on_c, 14, 50, 0
18, 9420, Note_on_c, 14, 52, 76
18, 9471, Note_on_c, 14, 52, 0
18, 9480, Note_on_c, 14, 54, 76
18, 9584, Note_on_c, 14, 54, 0
18, 9600, Note_on_c, 14, 55, 76
18, 9704, Note_on_c, 14, 55, 0
18, 9720, Note_on_c, 14, 57, 76
18, 9824, Note_on_c, 14, 57, 0
18, 9840, Note_on_c, 14, 62, 76
18, 9891, Note_on_c, 14, 62, 0
18, 9900, Note_on_c, 14, 61, 76
18, 9951, Note_on_c, 14, 61, 0
18, 9960, Note_on_c, 14, 62, 76
18, 10064, Note_on_c, 14, 62, 0
18, 10080, Note_on_c, 14, 59, 76
18, 10184, Note_on_c, 14, 59, 0
18, 10200, Note_on_c, 14, 61, 76
18, 10304, Note_on_c, 14, 61, 0
18, 10320, Note_on_c, 14, 57, 76
18, 10424, Note_on_c, 14, 57, 0
18, 10440, Note_on_c, 14, 59, 76
18, 10544, Note_on_c, 14, 59, 0
18, 10560, Note_on_c, 14, 56, 76
18, 10664, Note_on_c, 14, 56, 0
18, 10680, Note_on_c, 14, 57, 76
18, 10784, Note_on_c, 14, 57, 0
18, 10800, Note_on_c, 14, 49, 76
18, 10904, Note_on_c, 14, 49, 0
18, 10920, Note_on_c, 14, 47, 76
18, 11024, Note_on_c, 14, 47, 0
18, 11040, Note_on_c, 14, 45, 76
18, 11144, Note_on_c, 14, 45, 0
18, 11160, Note_on_c, 14, 50, 76
18, 11264, Note_on_c, 14, 50, 0
18, 11280, Note_on_c, 14, 52, 76
18, 11384, Note_on_c, 14, 52, 0
18, 11400, Note_on_c, 14, 54, 76
18, 11504, Note_on_c, 14, 54, 0
18, 11520, Note_on_c, 14, 52, 76
18, 11571, Note_on_c, 14, 52, 0
18, 11580, Note_on_c, 14, 50, 76
18, 11631, Note_on_c, 14, 50, 0
18, 11640, Note_on_c, 14, 49, 76
18, 11744, Note_on_c, 14, 49, 0
18, 11760, Note_on_c, 14, 50, 76
18, 11864, Note_on_c, 14, 50, 0
18, 11880, Note_on_c, 14, 52, 76
18, 12119, Note_on_c, 14, 52, 0
18, 12240, Note_on_c, 14, 57, 76
18, 12291, Note_on_c, 14, 57, 0
18, 12300, Note_on_c, 14, 56, 76
18, 12351, Note_on_c, 14, 56, 0
18, 12360, Note_on_c, 14, 57, 76
18, 12464, Note_on_c, 14, 57, 0
18, 12480, Note_on_c, 14, 59, 76
18, 12584, Note_on_c, 14, 59, 0
18, 12600, Note_on_c, 14, 56, 76
18, 12629, Note_on_c, 14, 56, 0
18, 12630, Note_on_c, 14, 57, 76
18, 12659, Note_on_c, 14, 57, 0
18, 12660, Note_on_c, 14, 54, 76
18, 12689, Note_on_c, 14, 54, 0
18, 12690, Note_on_c, 14, 56, 76
18, 12719, Note_on_c, 14, 56, 0
18, 12720, Note_on_c, 14, 54, 76
18, 12771, Note_on_c, 14, 54, 0
18, 12780, Note_on_c, 14, 52, 76
18, 12831, Note_on_c, 14, 52, 0
18, 12840, Note_on_c, 14, 64, 76
18, 13019, Note_on_c, 14, 64, 0
18, 13080, Note_on_c, 14, 62, 76
18, 13259, Note_on_c, 14, 62, 0
18, 13440, Note_on_c, 14, 61, 76
18, 13491, Note_on_c, 14, 61, 0
18, 13500, Note_on_c, 14, 59, 76
18, 13551, Note_on_c, 14, 59, 0
18, 13560, Note_on_c, 14, 61, 76
18, 13664, Note_on_c, 14, 61, 0
18, 13680, Note_on_c, 14, 62, 76
18, 13784, Note_on_c, 14, 62, 0
18, 13800, Note_on_c, 14, 59, 76
18, 13829, Note_on_c, 14, 59, 0
18, 13830, Note_on_c, 14, 61, 76
18, 13859, Note_on_c, 14, 61, 0
18, 13860, Note_on_c, 14, 57, 76
18, 13889, Note_on_c, 14, 57, 0
18, 13890, Note_on_c, 14, 59, 76
18, 13919, Note_on_c, 14, 59, 0
18, 13920, Note_on_c, 14, 57, 76
18, 13971, Note_on_c, 14, 57, 0
18, 13980, Note_on_c, 14, 56, 76
18, 14031, Note_on_c, 14, 56, 0
18, 14040, Note_on_c, 14, 63, 76
18, 14264, Note_on_c, 14, 63, 0
18, 14280, Note_on_c, 14, 64, 76
18, 14384, Note_on_c, 14, 64, 0
18, 14400, Note_on_c, 14, 52, 76
18, 14504, Note_on_c, 14, 52, 0
18, 14520, Note_on_c, 14, 54, 76
18, 14624, Note_on_c, 14, 54, 0
18, 14640, Note_on_c, 14, 56, 76
18, 14744, Note_on_c, 14, 56, 0
18, 14760, Note_on_c, 14, 57, 76
18, 14864, Note_on_c, 14, 57, 0
18, 14880, Note_on_c, 14, 49, 76
18, 14984, Note_on_c, 14, 49, 0
18, 15000, Note_on_c, 14, 50, 76
18, 15104, Note_on_c, 14, 50, 0
18, 15120, Note_on_c, 14, 52, 76
18, 15224, Note_on_c, 14, 52, 0
18, 15240, Note_on_c, 14, 54, 76
18, 15344, Note_on_c, 14, 54, 0
18, 15360, Note_on_c, 14, 50, 76
18, 15464, Note_on_c, 14, 50, 0
18, 15480, Note_on_c, 14, 56, 76
18, 15584, Note_on_c, 14, 56, 0
18, 15600, Note_on_c, 14, 52, 76
18, 15704, Note_on_c, 14, 52, 0
18, 15720, Note_on_c, 14, 57, 76
18, 15824, Note_on_c, 14, 57, 0
18, 15840, Note_on_c, 14, 49, 76
18, 15944, Note_on_c, 14, 49, 0
18, 15960, Note_on_c, 14, 47, 76
18, 16064, Note_on_c, 14, 47, 0
18, 16080, Note_on_c, 14, 45, 76
18, 16184, Note_on_c, 14, 45, 0
18, 16200, Note_on_c, 14, 50, 76
18, 16304, Note_on_c, 14, 50, 0
18, 16320, Note_on_c, 14, 52, 76
18, 16424, Note_on_c, 14, 52, 0
18, 16440, Note_on_c, 14, 54, 76
18, 16544, Note_on_c, 14, 54, 0
18, 16560, Note_on_c, 14, 50, 76
18, 16664, Note_on_c, 14, 50, 0
18, 16680, Note_on_c, 14, 52, 76
18, 16784, Note_on_c, 14, 52, 0
18, 16800, Note_on_c, 14, 40, 76
18, 16904, Note_on_c, 14, 40, 0
18, 16920, Note_on_c, 14, 45, 76
18, 17279, Note_on_c, 14, 45, 0
18, 18000, Note_on_c, 14, 50, 76
18, 18051, Note_on_c, 14, 50, 0
18, 18060, Note_on_c, 14, 52, 76
18, 18111, Note_on_c, 14, 52, 0
18, 18120, Note_on_c, 14, 54, 76
18, 18224, Note_on_c, 14, 54, 0
18, 18240, Note_on_c, 14, 57, 76
18, 18344, Note_on_c, 14, 57, 0
18, 18360, Note_on_c, 14, 62, 76
18, 18464, Note_on_c, 14, 62, 0
18, 18480, Note_on_c, 14, 57, 76
18, 18584, Note_on_c, 14, 57, 0
18, 18600, Note_on_c, 14, 45, 76
18, 18719, Note_on_c, 14, 45, 0
18, 19440, Note_on_c, 14, 52, 76
18, 19491, Note_on_c, 14, 52, 0
18, 19500, Note_on_c, 14, 54, 76
18, 19551, Note_on_c, 14, 54, 0
18, 19560, Note_on_c, 14, 55, 76
18, 19664, Note_on_c, 14, 55, 0
18, 19680, Note_on_c, 14, 59, 76
18, 19784, Note_on_c, 14, 59, 0
18, 19800, Note_on_c, 14, 64, 76
18, 19904, Note_on_c, 14, 64, 0
18, 19920, Note_on_c, 14, 59, 76
18, 20024, Note_on_c, 14, 59, 0
18, 20040, Note_on_c, 14, 47, 76
18, 20144, Note_on_c, 14, 47, 0
18, 20160, Note_on_c, 14, 52, 76
18, 20211, Note_on_c, 14, 52, 0
18, 20220, Note_on_c, 14, 51, 76
18, 20271, Note_on_c, 14, 51, 0
18, 20280, Note_on_c, 14, 52, 76
18, 20384, Note_on_c, 14, 52, 0
18, 20400, Note_on_c, 14, 45, 76
18, 20504, Note_on_c, 14, 45, 0
18, 20520, Note_on_c, 14, 47, 76
18, 20624, Note_on_c, 14, 47, 0
18, 20640, Note_on_c, 14, 42, 76
18, 20744, Note_on_c, 14, 42, 0
18, 20760, Note_on_c, 14, 43, 76
18, 20864, Note_on_c, 14, 43, 0
18, 20880, Note_on_c, 14, 40, 76
18, 20931, Note_on_c, 14, 40, 0
18, 20940, Note_on_c, 14, 42, 76
18, 20991, Note_on_c, 14, 42, 0
18, 21000, Note_on_c, 14, 43, 76
18, 21104, Note_on_c, 14, 43, 0
18, 21120, Note_on_c, 14, 45, 76
18, 21224, Note_on_c, 14, 45, 0
18, 21240, Note_on_c, 14, 47, 76
18, 21344, Note_on_c, 14, 47, 0
18, 21360, Note_on_c, 14, 52, 76
18, 21411, Note_on_c, 14, 52, 0
18, 21420, Note_on_c, 14, 51, 76
18, 21471, Note_on_c, 14, 51, 0
18, 21480, Note_on_c, 14, 52, 76
18, 21584, Note_on_c, 14, 52, 0
18, 21600, Note_on_c, 14, 49, 76
18, 21704, Note_on_c, 14, 49, 0
18, 21720, Note_on_c, 14, 50, 76
18, 21824, Note_on_c, 14, 50, 0
18, 21840, Note_on_c, 14, 47, 76
18, 21944, Note_on_c, 14, 47, 0
18, 21960, Note_on_c, 14, 49, 76
18, 22064, Note_on_c, 14, 49, 0
18, 22080, Note_on_c, 14, 46, 76
18, 22184, Note_on_c, 14, 46, 0
18, 22200, Note_on_c, 14, 47, 76
18, 22304, Note_on_c, 14, 47, 0
18, 22320, Note_on_c, 14, 50, 76
18, 22424, Note_on_c, 14, 50, 0
18, 22440, Note_on_c, 14, 49, 76
18, 22544, Note_on_c, 14, 49, 0
18, 22560, Note_on_c, 14, 47, 76
18, 22664, Note_on_c, 14, 47, 0
18, 22680, Note_on_c, 14, 52, 76
18, 22784, Note_on_c, 14, 52, 0
18, 22800, Note_on_c, 14, 54, 76
18, 22904, Note_on_c, 14, 54, 0
18, 22920, Note_on_c, 14, 55, 76
18, 23024, Note_on_c, 14, 55, 0
18, 23040, Note_on_c, 14, 54, 76
18, 23091, Note_on_c, 14, 54, 0
18, 23100, Note_on_c, 14, 52, 76
18, 23151, Note_on_c, 14, 52, 0
18, 23160, Note_on_c, 14, 50, 76
18, 23264, Note_on_c, 14, 50, 0
18, 23280, Note_on_c, 14, 52, 76
18, 23384, Note_on_c, 14, 52, 0
18, 23400, Note_on_c, 14, 54, 76
18, 23639, Note_on_c, 14, 54, 0
18, 23760, Note_on_c, 14, 47, 76
18, 23811, Note_on_c, 14, 47, 0
18, 23820, Note_on_c, 14, 46, 76
18, 23871, Note_on_c, 14, 46, 0
18, 23880, Note_on_c, 14, 47, 76
18, 23984, Note_on_c, 14, 47, 0
18, 24000, Note_on_c, 14, 49, 76
18, 24104, Note_on_c, 14, 49, 0
18, 24120, Note_on_c, 14, 46, 76
18, 24149, Note_on_c, 14, 46, 0
18, 24150, Note_on_c, 14, 47, 76
18, 24179, Note_on_c, 14, 47, 0
18, 24180, Note_on_c, 14, 44, 76
18, 24209, Note_on_c, 14, 44, 0
18, 24210, Note_on_c, 14, 46, 76
18, 24239, Note_on_c, 14, 46, 0
18, 24240, Note_on_c, 14, 44, 76
18, 24291, Note_on_c, 14, 44, 0
18, 24300, Note_on_c, 14, 42, 76
18, 24351, Note_on_c, 14, 42, 0
18, 24360, Note_on_c, 14, 54, 76
18, 24539, Note_on_c, 14, 54, 0
18, 24600, Note_on_c, 14, 52, 76
18, 24779, Note_on_c, 14, 52, 0
18, 24960, Note_on_c, 14, 50, 76
18, 25011, Note_on_c, 14, 50, 0
18, 25020, Note_on_c, 14, 49, 76
18, 25071, Note_on_c, 14, 49, 0
18, 25080, Note_on_c, 14, 50, 76
18, 25184, Note_on_c, 14, 50, 0
18, 25200, Note_on_c, 14, 52, 76
18, 25304, Note_on_c, 14, 52, 0
18, 25320, Note_on_c, 14, 49, 76
18, 25349, Note_on_c, 14, 49, 0
18, 25350, Note_on_c, 14, 50, 76
18, 25379, Note_on_c, 14, 50, 0
18, 25380, Note_on_c, 14, 47, 76
18, 25409, Note_on_c, 14, 47, 0
18, 25410, Note_on_c, 14, 49, 76
18, 25439, Note_on_c, 14, 49, 0
18, 25440, Note_on_c, 14, 47, 76
18, 25491, Note_on_c, 14, 47, 0
18, 25500, Note_on_c, 14, 46, 76
18, 25551, Note_on_c, 14, 46, 0
18, 25560, Note_on_c, 14, 53, 76
18, 25784, Note_on_c, 14, 53, 0
18, 25800, Note_on_c, 14, 54, 76
18, 25904, Note_on_c, 14, 54, 0
18, 25920, Note_on_c, 14, 42, 76
18, 26024, Note_on_c, 14, 42, 0
18, 26040, Note_on_c, 14, 44, 76
18, 26144, Note_on_c, 14, 44, 0
18, 26160, Note_on_c, 14, 46, 76
18, 26264, Note_on_c, 14, 46, 0
18, 26280, Note_on_c, 14, 47, 76
18, 26384, Note_on_c, 14, 47, 0
18, 26400, Note_on_c, 14, 50, 76
18, 26504, Note_on_c, 14, 50, 0
18, 26520, Note_on_c, 14, 52, 76
18, 26624, Note_on_c, 14, 52, 0
18, 26640, Note_on_c, 14, 54, 76
18, 26744, Note_on_c, 14, 54, 0
18, 26760, Note_on_c, 14, 55, 76
18, 26864, Note_on_c, 14, 55, 0
18, 26880, Note_on_c, 14, 52, 76
18, 26984, Note_on_c, 14, 52, 0
18, 27000, Note_on_c, 14, 58, 76
18, 27104, Note_on_c, 14, 58, 0
18, 27120, Note_on_c, 14, 54, 76
18, 27224, Note_on_c, 14, 54, 0
18, 27240, Note_on_c, 14, 59, 76
18, 27344, Note_on_c, 14, 59, 0
18, 27360, Note_on_c, 14, 50, 76
18, 27464, Note_on_c, 14, 50, 0
18, 27480, Note_on_c, 14, 49, 76
18, 27584, Note_on_c, 14, 49, 0
18, 27600, Note_on_c, 14, 47, 76
18, 27704, Note_on_c, 14, 47, 0
18, 27720, Note_on_c, 14, 52, 76
18, 27824, Note_on_c, 14, 52, 0
18, 27840, Note_on_c, 14, 54, 76
18, 27944, Note_on_c, 14, 54, 0
18, 27960, Note_on_c, 14, 55, 76
18, 28064, Note_on_c, 14, 55, 0
18, 28080, Note_on_c, 14, 52, 76
18, 28184, Note_on_c, 14, 52, 0
18, 28200, Note_on_c, 14, 54, 76
18, 28304, Note_on_c, 14, 54, 0
18, 28320, Note_on_c, 14, 42, 76
18, 28424, Note_on_c, 14, 42, 0
18, 28440, Note_on_c, 14, 47, 76
18, 28679, Note_on_c, 14, 47, 0
18, 29520, Note_on_c, 14, 50, 76
18, 29624, Note_on_c, 14, 50, 0
18, 29640, Note_on_c, 14, 62, 76
18, 29744, Note_on_c, 14, 62, 0
18, 29760, Note_on_c, 14, 50, 76
18, 29864, Note_on_c, 14, 50, 0
18, 29880, Note_on_c, 14, 55, 76
18, 29984, Note_on_c, 14, 55, 0
18, 30000, Note_on_c, 14, 50, 76
18, 30104, Note_on_c, 14, 50, 0
18, 30120, Note_on_c, 14, 43, 76
18, 30239, Note_on_c, 14, 43, 0
18, 30960, Note_on_c, 14, 52, 76
18, 31064, Note_on_c, 14, 52, 0
18, 31080, Note_on_c, 14, 64, 76
18, 31184, Note_on_c, 14, 64, 0
18, 31200, Note_on_c, 14, 52, 76
18, 31304, Note_on_c, 14, 52, 0
18, 31320, Note_on_c, 14, 57, 76
18, 31424, Note_on_c, 14, 57, 0
18, 31440, Note_on_c, 14, 52, 76
18, 31544, Note_on_c, 14, 52, 0
18, 31560, Note_on_c, 14, 45, 76
18, 31664, Note_on_c, 14, 45, 0
18, 31680, Note_on_c, 14, 45, 76
18, 31784, Note_on_c, 14, 45, 0
18, 31800, Note_on_c, 14, 45, 76
18, 31904, Note_on_c, 14, 45, 0
18, 31920, Note_on_c, 14, 45, 76
18, 32024, Note_on_c, 14, 45, 0
18, 32040, Note_on_c, 14, 45, 76
18, 32144, Note_on_c, 14, 45, 0
18, 32160, Note_on_c, 14, 45, 76
18, 32264, Note_on_c, 14, 45, 0
18, 32280, Note_on_c, 14, 45, 76
18, 32384, Note_on_c, 14, 45, 0
18, 32400, Note_on_c, 14, 45, 76
18, 32504, Note_on_c, 14, 45, 0
18, 32520, Note_on_c, 14, 45, 76
18, 32624, Note_on_c, 14, 45, 0
18, 32640, Note_on_c, 14, 45, 76
18, 32744, Note_on_c, 14, 45, 0
18, 32760, Note_on_c, 14, 45, 76
18, 32864, Note_on_c, 14, 45, 0
18, 32880, Note_on_c, 14, 45, 76
18, 32984, Note_on_c, 14, 45, 0
18, 33000, Note_on_c, 14, 45, 76
18, 33104, Note_on_c, 14, 45, 0
18, 33120, Note_on_c, 14, 45, 76
18, 33224, Note_on_c, 14, 45, 0
18, 33240, Note_on_c, 14, 45, 76
18, 33344, Note_on_c, 14, 45, 0
18, 33360, Note_on_c, 14, 45, 76
18, 33464, Note_on_c, 14, 45, 0
18, 33480, Note_on_c, 14, 45, 76
18, 34199, Note_on_c, 14, 45, 0
18, 34200, Note_on_c, 14, 45, 76
18, 34919, Note_on_c, 14, 45, 0
18, 34920, Note_on_c, 14, 45, 76
18, 35744, Note_on_c, 14, 45, 0
18, 35760, Note_on_c, 14, 57, 76
18, 35811, Note_on_c, 14, 57, 0
18, 35820, Note_on_c, 14, 56, 76
18, 35871, Note_on_c, 14, 56, 0
18, 35880, Note_on_c, 14, 57, 76
18, 35984, Note_on_c, 14, 57, 0
18, 36000, Note_on_c, 14, 45, 76
18, 36104, Note_on_c, 14, 45, 0
18, 36120, Note_on_c, 14, 47, 76
18, 36224, Note_on_c, 14, 47, 0
18, 36240, Note_on_c, 14, 49, 76
18, 36344, Note_on_c, 14, 49, 0
18, 36360, Note_on_c, 14, 50, 76
18, 36464, Note_on_c, 14, 50, 0
18, 36480, Note_on_c, 14, 54, 76
18, 36584, Note_on_c, 14, 54, 0
18, 36600, Note_on_c, 14, 52, 76
18, 36704, Note_on_c, 14, 52, 0
18, 36720, Note_on_c, 14, 50, 76
18, 36824, Note_on_c, 14, 50, 0
18, 36840, Note_on_c, 14, 57, 76
18, 36944, Note_on_c, 14, 57, 0
18, 36960, Note_on_c, 14, 45, 76
18, 37064, Note_on_c, 14, 45, 0
18, 37080, Note_on_c, 14, 47, 76
18, 37319, Note_on_c, 14, 47, 0
18, 37440, Note_on_c, 14, 49, 76
18, 37491, Note_on_c, 14, 49, 0
18, 37500, Note_on_c, 14, 50, 76
18, 37551, Note_on_c, 14, 50, 0
18, 37560, Note_on_c, 14, 52, 76
18, 37664, Note_on_c, 14, 52, 0
18, 37680, Note_on_c, 14, 40, 76
18, 37784, Note_on_c, 14, 40, 0
18, 37800, Note_on_c, 14, 45, 76
18, 38039, Note_on_c, 14, 45, 0
18, 38160, Note_on_c, 14, 50, 76
18, 38211, Note_on_c, 14, 50, 0
18, 38220, Note_on_c, 14, 49, 76
18, 38271, Note_on_c, 14, 49, 0
18, 38280, Note_on_c, 14, 50, 76
18, 38384, Note_on_c, 14, 50, 0
18, 38400, Note_on_c, 14, 52, 76
18, 38504, Note_on_c, 14, 52, 0
18, 38520, Note_on_c, 14, 49, 76
18, 38549, Note_on_c, 14, 49, 0
18, 38550, Note_on_c, 14, 50, 76
18, 38579, Note_on_c, 14, 50, 0
18, 38580, Note_on_c, 14, 47, 76
18, 38609, Note_on_c, 14, 47, 0
18, 38610, Note_on_c, 14, 49, 76
18, 38639, Note_on_c, 14, 49, 0
18, 38640, Note_on_c, 14, 47, 76
18, 38691, Note_on_c, 14, 47, 0
18, 38700, Note_on_c, 14, 45, 76
18, 38751, Note_on_c, 14, 45, 0
18, 38760, Note_on_c, 14, 57, 76
18, 38939, Note_on_c, 14, 57, 0
18, 39000, Note_on_c, 14, 55, 76
18, 39179, Note_on_c, 14, 55, 0
18, 39360, Note_on_c, 14, 54, 76
18, 39411, Note_on_c, 14, 54, 0
18, 39420, Note_on_c, 14, 52, 76
18, 39471, Note_on_c, 14, 52, 0
18, 39480, Note_on_c, 14, 54, 76
18, 39584, Note_on_c, 14, 54, 0
18, 39600, Note_on_c, 14, 55, 76
18, 39704, Note_on_c, 14, 55, 0
18, 39720, Note_on_c, 14, 52, 76
18, 39824, Note_on_c, 14, 52, 0
18, 39840, Note_on_c, 14, 50, 76
18, 39891, Note_on_c, 14, 50, 0
18, 39900, Note_on_c, 14, 49, 76
18, 39951, Note_on_c, 14, 49, 0
18, 39960, Note_on_c, 14, 56, 76
18, 40139, Note_on_c, 14, 56, 0
18, 40200, Note_on_c, 14, 57, 76
18, 40304, Note_on_c, 14, 57, 0
18, 40320, Note_on_c, 14, 45, 76
18, 40424, Note_on_c, 14, 45, 0
18, 40440, Note_on_c, 14, 47, 76
18, 40544, Note_on_c, 14, 47, 0
18, 40560, Note_on_c, 14, 49, 76
18, 40664, Note_on_c, 14, 49, 0
18, 40680, Note_on_c, 14, 50, 76
18, 40784, Note_on_c, 14, 50, 0
18, 40800, Note_on_c, 14, 54, 76
18, 40904, Note_on_c, 14, 54, 0
18, 40920, Note_on_c, 14, 55, 76
18, 41024, Note_on_c, 14, 55, 0
18, 41040, Note_on_c, 14, 57, 76
18, 41144, Note_on_c, 14, 57, 0
18, 41160, Note_on_c, 14, 59, 76
18, 41264, Note_on_c, 14, 59, 0
18, 41280, Note_on_c, 14, 55, 76
18, 41384, Note_on_c, 14, 55, 0
18, 41400, Note_on_c, 14, 61, 76
18, 41504, Note_on_c, 14, 61, 0
18, 41520, Note_on_c, 14, 57, 76
18, 41624, Note_on_c, 14, 57, 0
18, 41640, Note_on_c, 14, 62, 76
18, 41744, Note_on_c, 14, 62, 0
18, 41760, Note_on_c, 14, 54, 76
18, 41864, Note_on_c, 14, 54, 0
18, 41880, Note_on_c, 14, 52, 76
18, 41984, Note_on_c, 14, 52, 0
18, 42000, Note_on_c, 14, 50, 76
18, 42104, Note_on_c, 14, 50, 0
18, 42120, Note_on_c, 14, 59, 76
18, 42224, Note_on_c, 14, 59, 0
18, 42240, Note_on_c, 14, 52, 76
18, 42344, Note_on_c, 14, 52, 0
18, 42360, Note_on_c, 14, 54, 76
18, 42464, Note_on_c, 14, 54, 0
18, 42480, Note_on_c, 14, 55, 76
18, 42584, Note_on_c, 14, 55, 0
18, 42600, Note_on_c, 14, 57, 76
18, 42704, Note_on_c, 14, 57, 0
18, 42720, Note_on_c, 14, 45, 76
18, 42824, Note_on_c, 14, 45, 0
18, 42840, Note_on_c, 14, 38, 76
18, 43199, Note_on_c, 14, 38, 0
18, 43920, Note_on_c, 14, 50, 76
18, 43971, Note_on_c, 14, 50, 0
18, 43980, Note_on_c, 14, 52, 76
18, 44031, Note_on_c, 14, 52, 0
18, 44040, Note_on_c, 14, 54, 76
18, 44144, Note_on_c, 14, 54, 0
18, 44160, Note_on_c, 14, 57, 76
18, 44264, Note_on_c, 14, 57, 0
18, 44280, Note_on_c, 14, 62, 76
18, 44384, Note_on_c, 14, 62, 0
18, 44400, Note_on_c, 14, 57, 76
18, 44504, Note_on_c, 14, 57, 0
18, 44520, Note_on_c, 14, 45, 76
18, 44639, Note_on_c, 14, 45, 0
18, 45360, Note_on_c, 14, 52, 76
18, 45411, Note_on_c, 14, 52, 0
18, 45420, Note_on_c, 14, 54, 76
18, 45471, Note_on_c, 14, 54, 0
18, 45480, Note_on_c, 14, 55, 76
18, 45584, Note_on_c, 14, 55, 0
18, 45600, Note_on_c, 14, 59, 76
18, 45704, Note_on_c, 14, 59, 0
18, 45720, Note_on_c, 14, 64, 76
18, 45824, Note_on_c, 14, 64, 0
18, 45840, Note_on_c, 14, 59, 76
18, 45944, Note_on_c, 14, 59, 0
18, 45960, Note_on_c, 14, 47, 76
18, 46064, Note_on_c, 14, 47, 0
18, 46080, Note_on_c, 14, 52, 76
18, 46131, Note_on_c, 14, 52, 0
18, 46140, Note_on_c, 14, 51, 76
18, 46191, Note_on_c, 14, 51, 0
18, 46200, Note_on_c, 14, 52, 76
18, 46304, Note_on_c, 14, 52, 0
18, 46320, Note_on_c, 14, 45, 76
18, 46424, Note_on_c, 14, 45, 0
18, 46440, Note_on_c, 14, 47, 76
18, 46544, Note_on_c, 14, 47, 0
18, 46560, Note_on_c, 14, 42, 76
18, 46664, Note_on_c, 14, 42, 0
18, 46680, Note_on_c, 14, 43, 76
18, 46784, Note_on_c, 14, 43, 0
18, 46800, Note_on_c, 14, 40, 76
18, 46851, Note_on_c, 14, 40, 0
18, 46860, Note_on_c, 14, 42, 76
18, 46911, Note_on_c, 14, 42, 0
18, 46920, Note_on_c, 14, 43, 76
18, 47024, Note_on_c, 14, 43, 0
18, 47040, Note_on_c, 14, 45, 76
18, 47144, Note_on_c, 14, 45, 0
18, 47160, Note_on_c, 14, 47, 76
18, 47264, Note_on_c, 14, 47, 0
18, 47280, Note_on_c, 14, 52, 76
18, 47331, Note_on_c, 14, 52, 0
18, 47340, Note_on_c, 14, 51, 76
18, 47391, Note_on_c, 14, 51, 0
18, 47400, Note_on_c, 14, 52, 76
18, 47504, Note_on_c, 14, 52, 0
18, 47520, Note_on_c, 14, 49, 76
18, 47624, Note_on_c, 14, 49, 0
18, 47640, Note_on_c, 14, 50, 76
18, 47744, Note_on_c, 14, 50, 0
18, 47760, Note_on_c, 14, 47, 76
18, 47864, Note_on_c, 14, 47, 0
18, 47880, Note_on_c, 14, 49, 76
18, 47984, Note_on_c, 14, 49, 0
18, 48000, Note_on_c, 14, 46, 76
18, 48104, Note_on_c, 14, 46, 0
18, 48120, Note_on_c, 14, 47, 76
18, 48224, Note_on_c, 14, 47, 0
18, 48240, Note_on_c, 14, 50, 76
18, 48344, Note_on_c, 14, 50, 0
18, 48360, Note_on_c, 14, 49, 76
18, 48464, Note_on_c, 14, 49, 0
18, 48480, Note_on_c, 14, 47, 76
18, 48584, Note_on_c, 14, 47, 0
18, 48600, Note_on_c, 14, 52, 76
18, 48704, Note_on_c, 14, 52, 0
18, 48720, Note_on_c, 14, 54, 76
18, 48824, Note_on_c, 14, 54, 0
18, 48840, Note_on_c, 14, 55, 76
18, 48944, Note_on_c, 14, 55, 0
18, 48960, Note_on_c, 14, 54, 76
18, 49011, Note_on_c, 14, 54, 0
18, 49020, Note_on_c, 14, 52, 76
18, 49071, Note_on_c, 14, 52, 0
18, 49080, Note_on_c, 14, 50, 76
18, 49184, Note_on_c, 14, 50, 0
18, 49200, Note_on_c, 14, 52, 76
18, 49304, Note_on_c, 14, 52, 0
18, 49320, Note_on_c, 14, 54, 76
18, 49559, Note_on_c, 14, 54, 0
18, 49680, Note_on_c, 14, 47, 76
18, 49731, Note_on_c, 14, 47, 0
18, 49740, Note_on_c, 14, 46, 76
18, 49791, Note_on_c, 14, 46, 0
18, 49800, Note_on_c, 14, 47, 76
18, 49904, Note_on_c, 14, 47, 0
18, 49920, Note_on_c, 14, 49, 76
18, 50024, Note_on_c, 14, 49, 0
18, 50040, Note_on_c, 14, 46, 76
18, 50069, Note_on_c, 14, 46, 0
18, 50070, Note_on_c, 14, 47, 76
18, 50099, Note_on_c, 14, 47, 0
18, 50100, Note_on_c, 14, 44, 76
18, 50129, Note_on_c, 14, 44, 0
18, 50130, Note_on_c, 14, 46, 76
18, 50159, Note_on_c, 14, 46, 0
18, 50160, Note_on_c, 14, 44, 76
18, 50211, Note_on_c, 14, 44, 0
18, 50220, Note_on_c, 14, 42, 76
18, 50271, Note_on_c, 14, 42, 0
18, 50280, Note_on_c, 14, 54, 76
18, 50459, Note_on_c, 14, 54, 0
18, 50520, Note_on_c, 14, 52, 76
18, 50699, Note_on_c, 14, 52, 0
18, 50880, Note_on_c, 14, 50, 76
18, 50931, Note_on_c, 14, 50, 0
18, 50940, Note_on_c, 14, 49, 76
18, 50991, Note_on_c, 14, 49, 0
18, 51000, Note_on_c, 14, 50, 76
18, 51104, Note_on_c, 14, 50, 0
18, 51120, Note_on_c, 14, 52, 76
18, 51224, Note_on_c, 14, 52, 0
18, 51240, Note_on_c, 14, 49, 76
18, 51269, Note_on_c, 14, 49, 0
18, 51270, Note_on_c, 14, 50, 76
18, 51299, Note_on_c, 14, 50, 0
18, 51300, Note_on_c, 14, 47, 76
18, 51329, Note_on_c, 14, 47, 0
18, 51330, Note_on_c, 14, 49, 76
18, 51359, Note_on_c, 14, 49, 0
18, 51360, Note_on_c, 14, 47, 76
18, 51411, Note_on_c, 14, 47, 0
18, 51420, Note_on_c, 14, 46, 76
18, 51471, Note_on_c, 14, 46, 0
18, 51480, Note_on_c, 14, 53, 76
18, 51704, Note_on_c, 14, 53, 0
18, 51720, Note_on_c, 14, 54, 76
18, 51824, Note_on_c, 14, 54, 0
18, 51840, Note_on_c, 14, 42, 76
18, 51944, Note_on_c, 14, 42, 0
18, 51960, Note_on_c, 14, 44, 76
18, 52064, Note_on_c, 14, 44, 0
18, 52080, Note_on_c, 14, 46, 76
18, 52184, Note_on_c, 14, 46, 0
18, 52200, Note_on_c, 14, 47, 76
18, 52304, Note_on_c, 14, 47, 0
18, 52320, Note_on_c, 14, 50, 76
18, 52424, Note_on_c, 14, 50, 0
18, 52440, Note_on_c, 14, 52, 76
18, 52544, Note_on_c, 14, 52, 0
18, 52560, Note_on_c, 14, 54, 76
18, 52664, Note_on_c, 14, 54, 0
18, 52680, Note_on_c, 14, 55, 76
18, 52784, Note_on_c, 14, 55, 0
18, 52800, Note_on_c, 14, 52, 76
18, 52904, Note_on_c, 14, 52, 0
18, 52920, Note_on_c, 14, 58, 76
18, 53024, Note_on_c, 14, 58, 0
18, 53040, Note_on_c, 14, 54, 76
18, 53144, Note_on_c, 14, 54, 0
18, 53160, Note_on_c, 14, 59, 76
18, 53264, Note_on_c, 14, 59, 0
18, 53280, Note_on_c, 14, 50, 76
18, 53384, Note_on_c, 14, 50, 0
18, 53400, Note_on_c, 14, 49, 76
18, 53504, Note_on_c, 14, 49, 0
18, 53520, Note_on_c, 14, 47, 76
18, 53624, Note_on_c, 14, 47, 0
18, 53640, Note_on_c, 14, 52, 76
18, 53744, Note_on_c, 14, 52, 0
18, 53760, Note_on_c, 14, 54, 76
18, 53864, Note_on_c, 14, 54, 0
18, 53880, Note_on_c, 14, 55, 76
18, 53984, Note_on_c, 14, 55, 0
18, 54000, Note_on_c, 14, 52, 76
18, 54104, Note_on_c, 14, 52, 0
18, 54120, Note_on_c, 14, 54, 76
18, 54224, Note_on_c, 14, 54, 0
18, 54240, Note_on_c, 14, 42, 76
18, 54344, Note_on_c, 14, 42, 0
18, 54360, Note_on_c, 14, 47, 76
18, 54599, Note_on_c, 14, 47, 0
18, 55440, Note_on_c, 14, 50, 76
18, 55544, Note_on_c, 14, 50, 0
18, 55560, Note_on_c, 14, 62, 76
18, 55664, Note_on_c, 14, 62, 0
18, 55680, Note_on_c, 14, 50, 76
18, 55784, Note_on_c, 14, 50, 0
18, 55800, Note_on_c, 14, 55, 76
18, 55904, Note_on_c, 14, 55, 0
18, 55920, Note_on_c, 14, 50, 76
18, 56024, Note_on_c, 14, 50, 0
18, 56040, Note_on_c, 14, 43, 76
18, 56159, Note_on_c, 14, 43, 0
18, 56880, Note_on_c, 14, 52, 76
18, 56984, Note_on_c, 14, 52, 0
18, 57000, Note_on_c, 14, 64, 76
18, 57104, Note_on_c, 14, 64, 0
18, 57120, Note_on_c, 14, 52, 76
18, 57224, Note_on_c, 14, 52, 0
18, 57240, Note_on_c, 14, 57, 76
18, 57344, Note_on_c, 14, 57, 0
18, 57360, Note_on_c, 14, 52, 76
18, 57464, Note_on_c, 14, 52, 0
18, 57480, Note_on_c, 14, 45, 76
18, 57584, Note_on_c, 14, 45, 0
18, 57600, Note_on_c, 14, 45, 76
18, 57704, Note_on_c, 14, 45, 0
18, 57720, Note_on_c, 14, 45, 76
18, 57824, Note_on_c, 14, 45, 0
18, 57840, Note_on_c, 14, 45, 76
18, 57944, Note_on_c, 14, 45, 0
18, 57960, Note_on_c, 14, 45, 76
18, 58064, Note_on_c, 14, 45, 0
18, 58080, Note_on_c, 14, 45, 76
18, 58184, Note_on_c, 14, 45, 0
18, 58200, Note_on_c, 14, 45, 76
18, 58304, Note_on_c, 14, 45, 0
18, 58320, Note_on_c, 14, 45, 76
18, 58424, Note_on_c, 14, 45, 0
18, 58440, Note_on_c, 14, 45, 76
18, 58544, Note_on_c, 14, 45, 0
18, 58560, Note_on_c, 14, 45, 76
18, 58664, Note_on_c, 14, 45, 0
18, 58680, Note_on_c, 14, 45, 76
18, 58784, Note_on_c, 14, 45, 0
18, 58800, Note_on_c, 14, 45, 76
18, 58904, Note_on_c, 14, 45, 0
18, 58920, Note_on_c, 14, 45, 76
18, 59024, Note_on_c, 14, 45, 0
18, 59040, Note_on_c, 14, 45, 76
18, 59144, Note_on_c, 14, 45, 0
18, 59160, Note_on_c, 14, 45, 76
18, 59264, Note_on_c, 14, 45, 0
18, 59280, Note_on_c, 14, 45, 76
18, 59384, Note_on_c, 14, 45, 0
18, 59400, Note_on_c, 14, 45, 76
18, 60119, Note_on_c, 14, 45, 0
18, 60120, Note_on_c, 14, 45, 76
18, 60839, Note_on_c, 14, 45, 0
18, 60840, Note_on_c, 14, 45, 76
18, 61664, Note_on_c, 14, 45, 0
18, 61680, Note_on_c, 14, 57, 76
18, 61731, Note_on_c, 14, 57, 0
18, 61740, Note_on_c, 14, 56, 76
18, 61791, Note_on_c, 14, 56, 0
18, 61800, Note_on_c, 14, 57, 76
18, 61904, Note_on_c, 14, 57, 0
18, 61920, Note_on_c, 14, 45, 76
18, 62024, Note_on_c, 14, 45, 0
18, 62040, Note_on_c, 14, 47, 76
18, 62144, Note_on_c, 14, 47, 0
18, 62160, Note_on_c, 14, 49, 76
18, 62264, Note_on_c, 14, 49, 0
18, 62280, Note_on_c, 14, 50, 76
18, 62384, Note_on_c, 14, 50, 0
18, 62400, Note_on_c, 14, 54, 76
18, 62504, Note_on_c, 14, 54, 0
18, 62520, Note_on_c, 14, 52, 76
18, 62624, Note_on_c, 14, 52, 0
18, 62640, Note_on_c, 14, 50, 76
18, 62744, Note_on_c, 14, 50, 0
18, 62760, Note_on_c, 14, 57, 76
18, 62864, Note_on_c, 14, 57, 0
18, 62880, Note_on_c, 14, 45, 76
18, 62984, Note_on_c, 14, 45, 0
18, 63000, Note_on_c, 14, 47, 76
18, 63239, Note_on_c, 14, 47, 0
18, 63360, Note_on_c, 14, 49, 76
18, 63411, Note_on_c, 14, 49, 0
18, 63420, Note_on_c, 14, 50, 76
18, 63471, Note_on_c, 14, 50, 0
18, 63480, Note_on_c, 14, 52, 76
18, 63584, Note_on_c, 14, 52, 0
18, 63600, Note_on_c, 14, 40, 76
18, 63704, Note_on_c, 14, 40, 0
18, 63720, Note_on_c, 14, 45, 76
18, 63959, Note_on_c, 14, 45, 0
18, 64080, Note_on_c, 14, 50, 76
18, 64131, Note_on_c, 14, 50, 0
18, 64140, Note_on_c, 14, 49, 76
18, 64191, Note_on_c, 14, 49, 0
18, 64200, Note_on_c, 14, 50, 76
18, 64304, Note_on_c, 14, 50, 0
18, 64320, Note_on_c, 14, 52, 76
18, 64424, Note_on_c, 14, 52, 0
18, 64440, Note_on_c, 14, 49, 76
18, 64469, Note_on_c, 14, 49, 0
18, 64470, Note_on_c, 14, 50, 76
18, 64499, Note_on_c, 14, 50, 0
18, 64500, Note_on_c, 14, 47, 76
18, 64529, Note_on_c, 14, 47, 0
18, 64530, Note_on_c, 14, 49, 76
18, 64559, Note_on_c, 14, 49, 0
18, 64560, Note_on_c, 14, 47, 76
18, 64611, Note_on_c, 14, 47, 0
18, 64620, Note_on_c, 14, 45, 76
18, 64671, Note_on_c, 14, 45, 0
18, 64680, Note_on_c, 14, 57, 76
18, 64859, Note_on_c, 14, 57, 0
18, 64920, Note_on_c, 14, 55, 76
18, 65099, Note_on_c, 14, 55, 0
18, 65280, Note_on_c, 14, 54, 76
18, 65331, Note_on_c, 14, 54, 0
18, 65340, Note_on_c, 14, 52, 76
18, 65391, Note_on_c, 14, 52, 0
18, 65400, Note_on_c, 14, 54, 76
18, 65504, Note_on_c, 14, 54, 0
18, 65520, Note_on_c, 14, 55, 76
18, 65624, Note_on_c, 14, 55, 0
18, 65640, Note_on_c, 14, 52, 76
18, 65744, Note_on_c, 14, 52, 0
18, 65760, Note_on_c, 14, 50, 76
18, 65811, Note_on_c, 14, 50, 0
18, 65820, Note_on_c, 14, 49, 76
18, 65871, Note_on_c, 14, 49, 0
18, 65880, Note_on_c, 14, 56, 76
18, 66059, Note_on_c, 14, 56, 0
18, 66120, Note_on_c, 14, 57, 76
18, 66224, Note_on_c, 14, 57, 0
18, 66240, Note_on_c, 14, 45, 76
18, 66344, Note_on_c, 14, 45, 0
18, 66360, Note_on_c, 14, 47, 76
18, 66464, Note_on_c, 14, 47, 0
18, 66480, Note_on_c, 14, 49, 76
18, 66584, Note_on_c, 14, 49, 0
18, 66600, Note_on_c, 14, 50, 76
18, 66704, Note_on_c, 14, 50, 0
18, 66720, Note_on_c, 14, 54, 76
18, 66824, Note_on_c, 14, 54, 0
18, 66840, Note_on_c, 14, 55, 76
18, 66944, Note_on_c, 14, 55, 0
18, 66960, Note_on_c, 14, 57, 76
18, 67064, Note_on_c, 14, 57, 0
18, 67080, Note_on_c, 14, 59, 76
18, 67184, Note_on_c, 14, 59, 0
18, 67200, Note_on_c, 14, 55, 76
18, 67304, Note_on_c, 14, 55, 0
18, 67320, Note_on_c, 14, 61, 76
18, 67424, Note_on_c, 14, 61, 0
18, 67440, Note_on_c, 14, 57, 76
18, 67544, Note_on_c, 14, 57, 0
18, 67560, Note_on_c, 14, 62, 76
18, 67664, Note_on_c, 14, 62, 0
18, 67680, Note_on_c, 14, 54, 76
18, 67784, Note_on_c, 14, 54, 0
18, 67800, Note_on_c, 14, 52, 76
18, 67904, Note_on_c, 14, 52, 0
18, 67920, Note_on_c, 14, 50, 76
18, 68024, Note_on_c, 14, 50, 0
18, 68040, Note_on_c, 14, 59, 76
18, 68144, Note_on_c, 14, 59, 0
18, 68160, Note_on_c, 14, 52, 76
18, 68264, Note_on_c, 14, 52, 0
18, 68280, Note_on_c, 14, 54, 76
18, 68384, Note_on_c, 14, 54, 0
18, 68400, Note_on_c, 14, 55, 76
18, 68504, Note_on_c, 14, 55, 0
18, 68520, Note_on_c, 14, 57, 76
18, 68624, Note_on_c, 14, 57, 0
18, 68640, Note_on_c, 14, 45, 76
18, 68744, Note_on_c, 14, 45, 0
18, 68760, Note_on_c, 14, 38, 76
18, 69119, Note_on_c, 14, 38, 0
18, 69119, End_track
19, 0, Start_track
19, 0, Title_t, "Johann Sebastian Bach - Orchestral Suite No. 4 in D Major, BWV1069 - No. 5 Réjouissance"
19, 0, MIDI_port, 0
19, 0, End_track
0, 0, End_of_file
