0, 0, Header, 1, 6, 1024
1, 0, Start_track
1, 0, Time_signature, 4, 2, 24, 8
1, 0, Key_signature, 0, "major"
1, 0, Tempo, 681818
1, 233472, End_track
2, 0, Start_track
2, 0, Title_t, "Instrument 1"
2, 213248, Note_on_c, 0, 74, 96
2, 213504, Note_off_c, 0, 74, 0
2, 213504, Note_on_c, 0, 72, 96
2, 213760, Note_off_c, 0, 72, 0
2, 213760, Note_on_c, 0, 71, 96
2, 214016, Note_off_c, 0, 71, 0
2, 214016, Note_on_c, 0, 72, 96
2, 214272, Note_off_c, 0, 72, 0
2, 214272, Note_on_c, 0, 69, 96
2, 214528, Note_off_c, 0, 69, 0
2, 214528, Note_on_c, 0, 71, 96
2, 214784, Note_off_c, 0, 71, 0
2, 214784, Note_on_c, 0, 72, 96
2, 215040, Note_off_c, 0, 72, 0
2, 215040, Note_on_c, 0, 74, 96
2, 215552, Note_off_c, 0, 74, 0
2, 215552, Note_on_c, 0, 76, 96
2, 216064, Note_off_c, 0, 76, 0
2, 216064, Note_on_c, 0, 77, 96
2, 217088, Note_off_c, 0, 77, 0
2, 217088, Note_on_c, 0, 76, 96
2, 218112, Note_off_c, 0, 76, 0
2, 219392, Note_on_c, 0, 74, 96
2, 219648, Note_off_c, 0, 74, 0
2, 219648, Note_on_c, 0, 76, 96
2, 219904, Note_off_c, 0, 76, 0
2, 219904, Note_on_c, 0, 77, 96
2, 220160, Note_off_c, 0, 77, 0
2, 220160, Note_on_c, 0, 76, 96
2, 220416, Note_off_c, 0, 76, 0
2, 220416, Note_on_c, 0, 81, 96
2, 220672, Note_off_c, 0, 81, 0
2, 220672, Note_on_c, 0, 79, 96
2, 220928, Note_off_c, 0, 79, 0
2, 220928, Note_on_c, 0, 77, 96
2, 221184, Note_off_c, 0, 77, 0
2, 221184, Note_on_c, 0, 72, 96
2, 221184, Note_on_c, 0, 76, 96
2, 222720, Note_off_c, 0, 72, 0
2, 222720, Note_off_c, 0, 76, 0
2, 222720, Note_on_c, 0, 74, 96
2, 222720, Note_on_c, 0, 77, 96
2, 223232, Note_off_c, 0, 74, 0
2, 223232, Note_off_c, 0, 77, 0
2, 223232, Note_on_c, 0, 76, 96
2, 223232, Note_on_c, 0, 79, 96
2, 223744, Note_off_c, 0, 76, 0
2, 223744, Note_off_c, 0, 79, 0
2, 223744, Note_on_c, 0, 81, 96
2, 223744, Note_on_c, 0, 84, 96
2, 224256, Note_off_c, 0, 81, 0
2, 224256, Note_off_c, 0, 84, 0
2, 224256, Note_on_c, 0, 79, 96
2, 224256, Note_on_c, 0, 83, 96
2, 224768, Note_off_c, 0, 79, 0
2, 224768, Note_off_c, 0, 83, 0
2, 224768, Note_on_c, 0, 77, 96
2, 224768, Note_on_c, 0, 81, 96
2, 225280, Note_off_c, 0, 77, 0
2, 225280, Note_off_c, 0, 81, 0
2, 225280, Note_on_c, 0, 76, 96
2, 225280, Note_on_c, 0, 79, 96
2, 225792, Note_off_c, 0, 76, 0
2, 225792, Note_off_c, 0, 79, 0
2, 225792, Note_on_c, 0, 77, 96
2, 225792, Note_on_c, 0, 81, 96
2, 226048, Note_off_c, 0, 77, 0
2, 226048, Note_off_c, 0, 81, 0
2, 226048, Note_on_c, 0, 76, 96
2, 226048, Note_on_c, 0, 79, 96
2, 226304, Note_off_c, 0, 76, 0
2, 226304, Note_off_c, 0, 79, 0
2, 226304, Note_on_c, 0, 74, 96
2, 226304, Note_on_c, 0, 77, 96
2, 226560, Note_off_c, 0, 74, 0
2, 226560, Note_off_c, 0, 77, 0
2, 226560, Note_on_c, 0, 72, 96
2, 226560, Note_on_c, 0, 76, 96
2, 226816, Note_off_c, 0, 72, 0
2, 226816, Note_off_c, 0, 76, 0
2, 226816, Note_on_c, 0, 71, 96
2, 226816, Note_on_c, 0, 74, 96
2, 227328, Note_off_c, 0, 71, 0
2, 227328, Note_off_c, 0, 74, 0
2, 227328, Note_on_c, 0, 72, 96
2, 233472, Note_off_c, 0, 72, 0
2, 233472, End_track
3, 0, Start_track
3, 0, Title_t, "Instrument 2"
3, 1024, Note_on_c, 1, 72, 96
3, 2048, Note_off_c, 1, 72, 0
3, 2048, Note_on_c, 1, 71, 96
3, 3072, Note_off_c, 1, 71, 0
3, 3072, Note_on_c, 1, 69, 96
3, 4096, Note_off_c, 1, 69, 0
3, 4096, Note_on_c, 1, 71, 96
3, 5120, Note_off_c, 1, 71, 0
3, 5120, Note_on_c, 1, 67, 96
3, 6144, Note_off_c, 1, 67, 0
3, 6144, Note_on_c, 1, 69, 96
3, 7168, Note_off_c, 1, 69, 0
3, 7168, Note_on_c, 1, 71, 96
3, 8192, Note_off_c, 1, 71, 0
3, 8192, Note_on_c, 1, 72, 96
3, 10240, Note_off_c, 1, 72, 0
3, 13312, Note_on_c, 1, 72, 96
3, 14336, Note_off_c, 1, 72, 0
3, 14336, Note_on_c, 1, 72, 96
3, 15360, Note_off_c, 1, 72, 0
3, 15360, Note_on_c, 1, 67, 96
3, 16384, Note_off_c, 1, 67, 0
3, 16384, Note_on_c, 1, 67, 96
3, 17408, Note_off_c, 1, 67, 0
3, 17408, Note_on_c, 1, 64, 96
3, 17920, Note_off_c, 1, 64, 0
3, 17920, Note_on_c, 1, 65, 96
3, 18432, Note_off_c, 1, 65, 0
3, 18432, Note_on_c, 1, 67, 96
3, 19456, Note_off_c, 1, 67, 0
3, 19456, Note_on_c, 1, 65, 96
3, 20480, Note_off_c, 1, 65, 0
3, 20480, Note_on_c, 1, 64, 96
3, 22528, Note_off_c, 1, 64, 0
3, 25600, Note_on_c, 1, 64, 96
3, 26624, Note_off_c, 1, 64, 0
3, 26624, Note_on_c, 1, 69, 96
3, 27648, Note_off_c, 1, 69, 0
3, 27648, Note_on_c, 1, 69, 96
3, 28672, Note_off_c, 1, 69, 0
3, 28672, Note_on_c, 1, 67, 96
3, 30208, Note_off_c, 1, 67, 0
3, 30208, Note_on_c, 1, 69, 96
3, 30720, Note_off_c, 1, 69, 0
3, 30720, Note_on_c, 1, 71, 96
3, 32768, Note_off_c, 1, 71, 0
3, 32768, Note_on_c, 1, 72, 96
3, 34304, Note_off_c, 1, 72, 0
3, 34304, Note_on_c, 1, 71, 96
3, 34816, Note_off_c, 1, 71, 0
3, 34816, Note_on_c, 1, 69, 96
3, 36864, Note_off_c, 1, 69, 0
3, 36864, Note_on_c, 1, 67, 96
3, 38912, Note_off_c, 1, 67, 0
3, 41984, Note_on_c, 1, 72, 96
3, 43008, Note_off_c, 1, 72, 0
3, 43008, Note_on_c, 1, 71, 96
3, 44032, Note_off_c, 1, 71, 0
3, 44032, Note_on_c, 1, 69, 96
3, 45056, Note_off_c, 1, 69, 0
3, 45056, Note_on_c, 1, 67, 96
3, 46080, Note_off_c, 1, 67, 0
3, 46080, Note_on_c, 1, 69, 96
3, 46592, Note_off_c, 1, 69, 0
3, 46592, Note_on_c, 1, 67, 96
3, 47104, Note_off_c, 1, 67, 0
3, 47104, Note_on_c, 1, 65, 96
3, 47616, Note_off_c, 1, 65, 0
3, 47616, Note_on_c, 1, 64, 96
3, 48128, Note_off_c, 1, 64, 0
3, 48128, Note_on_c, 1, 62, 96
3, 49152, Note_off_c, 1, 62, 0
3, 49152, Note_on_c, 1, 60, 96
3, 51200, Note_off_c, 1, 60, 0
3, 54272, Note_on_c, 1, 64, 96
3, 55296, Note_off_c, 1, 64, 0
3, 55296, Note_on_c, 1, 65, 96
3, 56320, Note_off_c, 1, 65, 0
3, 56320, Note_on_c, 1, 67, 96
3, 57344, Note_off_c, 1, 67, 0
3, 57344, Note_on_c, 1, 65, 96
3, 57856, Note_off_c, 1, 65, 0
3, 57856, Note_on_c, 1, 67, 96
3, 58368, Note_off_c, 1, 67, 0
3, 58368, Note_on_c, 1, 69, 96
3, 59392, Note_off_c, 1, 69, 0
3, 59392, Note_on_c, 1, 67, 96
3, 60416, Note_off_c, 1, 67, 0
3, 60416, Note_on_c, 1, 65, 96
3, 61440, Note_off_c, 1, 65, 0
3, 61440, Note_on_c, 1, 64, 96
3, 63488, Note_off_c, 1, 64, 0
3, 66560, Note_on_c, 1, 64, 96
3, 67584, Note_off_c, 1, 64, 0
3, 67584, Note_on_c, 1, 64, 96
3, 68608, Note_off_c, 1, 64, 0
3, 68608, Note_on_c, 1, 69, 96
3, 69632, Note_off_c, 1, 69, 0
3, 69632, Note_on_c, 1, 69, 96
3, 70144, Note_off_c, 1, 69, 0
3, 70144, Note_on_c, 1, 71, 96
3, 70656, Note_off_c, 1, 71, 0
3, 70656, Note_on_c, 1, 72, 96
3, 71168, Note_off_c, 1, 72, 0
3, 71168, Note_on_c, 1, 71, 96
3, 71680, Note_off_c, 1, 71, 0
3, 71680, Note_on_c, 1, 69, 96
3, 72704, Note_off_c, 1, 69, 0
3, 72704, Note_on_c, 1, 71, 96
3, 73728, Note_off_c, 1, 71, 0
3, 73728, Note_on_c, 1, 72, 96
3, 75776, Note_off_c, 1, 72, 0
3, 78848, Note_on_c, 1, 72, 96
3, 79872, Note_off_c, 1, 72, 0
3, 79872, Note_on_c, 1, 67, 96
3, 80896, Note_off_c, 1, 67, 0
3, 80896, Note_on_c, 1, 67, 96
3, 81920, Note_off_c, 1, 67, 0
3, 81920, Note_on_c, 1, 69, 96
3, 83456, Note_off_c, 1, 69, 0
3, 83456, Note_on_c, 1, 67, 96
3, 83968, Note_off_c, 1, 67, 0
3, 83968, Note_on_c, 1, 65, 96
3, 86016, Note_off_c, 1, 65, 0
3, 86016, Note_on_c, 1, 64, 96
3, 87552, Note_off_c, 1, 64, 0
3, 87552, Note_on_c, 1, 66, 96
3, 88064, Note_off_c, 1, 66, 0
3, 88064, Note_on_c, 1, 67, 96
3, 90112, Note_off_c, 1, 67, 0
3, 90112, Note_on_c, 1, 69, 96
3, 92160, Note_off_c, 1, 69, 0
3, 95232, Note_on_c, 1, 64, 96
3, 96256, Note_off_c, 1, 64, 0
3, 96256, Note_on_c, 1, 65, 96
3, 97280, Note_off_c, 1, 65, 0
3, 97280, Note_on_c, 1, 67, 96
3, 98304, Note_off_c, 1, 67, 0
3, 98304, Note_on_c, 1, 69, 96
3, 99328, Note_off_c, 1, 69, 0
3, 99328, Note_on_c, 1, 67, 96
3, 99840, Note_off_c, 1, 67, 0
3, 99840, Note_on_c, 1, 69, 96
3, 100352, Note_off_c, 1, 69, 0
3, 100352, Note_on_c, 1, 71, 96
3, 100864, Note_off_c, 1, 71, 0
3, 100864, Note_on_c, 1, 72, 96
3, 101376, Note_off_c, 1, 72, 0
3, 101376, Note_on_c, 1, 74, 96
3, 102400, Note_off_c, 1, 74, 0
3, 102400, Note_on_c, 1, 76, 96
3, 104448, Note_off_c, 1, 76, 0
3, 108032, Note_on_c, 1, 67, 96
3, 109056, Note_off_c, 1, 67, 0
3, 109056, Note_on_c, 1, 69, 96
3, 109312, Note_off_c, 1, 69, 0
3, 109312, Note_on_c, 1, 71, 96
3, 109568, Note_off_c, 1, 71, 0
3, 109568, Note_on_c, 1, 72, 96
3, 109824, Note_off_c, 1, 72, 0
3, 109824, Note_on_c, 1, 74, 96
3, 110080, Note_off_c, 1, 74, 0
3, 110080, Note_on_c, 1, 76, 96
3, 110336, Note_off_c, 1, 76, 0
3, 110336, Note_on_c, 1, 78, 96
3, 110592, Note_off_c, 1, 78, 0
3, 110592, Note_on_c, 1, 79, 96
3, 110848, Note_off_c, 1, 79, 0
3, 110848, Note_on_c, 1, 81, 96
3, 111104, Note_off_c, 1, 81, 0
3, 111104, Note_on_c, 1, 79, 96
3, 111360, Note_off_c, 1, 79, 0
3, 111360, Note_on_c, 1, 77, 96
3, 111616, Note_off_c, 1, 77, 0
3, 111616, Note_on_c, 1, 76, 96
3, 111872, Note_off_c, 1, 76, 0
3, 111872, Note_on_c, 1, 74, 96
3, 112128, Note_off_c, 1, 74, 0
3, 112128, Note_on_c, 1, 72, 96
3, 112384, Note_off_c, 1, 72, 0
3, 112384, Note_on_c, 1, 71, 96
3, 112640, Note_off_c, 1, 71, 0
3, 112640, Note_on_c, 1, 69, 96
3, 112896, Note_off_c, 1, 69, 0
3, 112896, Note_on_c, 1, 72, 96
3, 113152, Note_off_c, 1, 72, 0
3, 113152, Note_on_c, 1, 71, 96
3, 113408, Note_off_c, 1, 71, 0
3, 113408, Note_on_c, 1, 69, 96
3, 113664, Note_off_c, 1, 69, 0
3, 113664, Note_on_c, 1, 67, 96
3, 113920, Note_off_c, 1, 67, 0
3, 113920, Note_on_c, 1, 65, 96
3, 114176, Note_off_c, 1, 65, 0
3, 114176, Note_on_c, 1, 64, 96
3, 114432, Note_off_c, 1, 64, 0
3, 114432, Note_on_c, 1, 62, 96
3, 114688, Note_off_c, 1, 62, 0
3, 114688, Note_on_c, 1, 64, 96
3, 114944, Note_off_c, 1, 64, 0
3, 114944, Note_on_c, 1, 65, 96
3, 115200, Note_off_c, 1, 65, 0
3, 115200, Note_on_c, 1, 64, 96
3, 115456, Note_off_c, 1, 64, 0
3, 115456, Note_on_c, 1, 62, 96
3, 115712, Note_off_c, 1, 62, 0
3, 115712, Note_on_c, 1, 60, 96
3, 115968, Note_off_c, 1, 60, 0
3, 115968, Note_on_c, 1, 64, 96
3, 116224, Note_off_c, 1, 64, 0
3, 116224, Note_on_c, 1, 69, 96
3, 116480, Note_off_c, 1, 69, 0
3, 116480, Note_on_c, 1, 60, 96
3, 116736, Note_off_c, 1, 60, 0
3, 116736, Note_on_c, 1, 59, 96
3, 116992, Note_off_c, 1, 59, 0
3, 116992, Note_on_c, 1, 69, 96
3, 117248, Note_off_c, 1, 69, 0
3, 117248, Note_on_c, 1, 67, 96
3, 117504, Note_off_c, 1, 67, 0
3, 117504, Note_on_c, 1, 59, 96
3, 117760, Note_off_c, 1, 59, 0
3, 117760, Note_on_c, 1, 57, 96
3, 118016, Note_off_c, 1, 57, 0
3, 118016, Note_on_c, 1, 67, 96
3, 118272, Note_off_c, 1, 67, 0
3, 118272, Note_on_c, 1, 66, 96
3, 118528, Note_off_c, 1, 66, 0
3, 118528, Note_on_c, 1, 57, 96
3, 118784, Note_off_c, 1, 57, 0
3, 118784, Note_on_c, 1, 55, 96
3, 119040, Note_off_c, 1, 55, 0
3, 119040, Note_on_c, 1, 65, 96
3, 119296, Note_off_c, 1, 65, 0
3, 119296, Note_on_c, 1, 64, 96
3, 119552, Note_off_c, 1, 64, 0
3, 119552, Note_on_c, 1, 62, 96
3, 119808, Note_off_c, 1, 62, 0
3, 119808, Note_on_c, 1, 64, 96
3, 120064, Note_off_c, 1, 64, 0
3, 120064, Note_on_c, 1, 62, 96
3, 120320, Note_off_c, 1, 62, 0
3, 120320, Note_on_c, 1, 60, 96
3, 120576, Note_off_c, 1, 60, 0
3, 120576, Note_on_c, 1, 62, 96
3, 120832, Note_off_c, 1, 62, 0
3, 120832, Note_on_c, 1, 64, 96
3, 121088, Note_off_c, 1, 64, 0
3, 121088, Note_on_c, 1, 66, 96
3, 121344, Note_off_c, 1, 66, 0
3, 121344, Note_on_c, 1, 67, 96
3, 121600, Note_off_c, 1, 67, 0
3, 121600, Note_on_c, 1, 69, 96
3, 121856, Note_off_c, 1, 69, 0
3, 121856, Note_on_c, 1, 71, 96
3, 122112, Note_off_c, 1, 71, 0
3, 122112, Note_on_c, 1, 69, 96
3, 122368, Note_off_c, 1, 69, 0
3, 122368, Note_on_c, 1, 67, 96
3, 122624, Note_off_c, 1, 67, 0
3, 122624, Note_on_c, 1, 69, 96
3, 122880, Note_off_c, 1, 69, 0
3, 122880, Note_on_c, 1, 71, 96
3, 123136, Note_off_c, 1, 71, 0
3, 123136, Note_on_c, 1, 74, 96
3, 123392, Note_off_c, 1, 74, 0
3, 123392, Note_on_c, 1, 76, 96
3, 123648, Note_off_c, 1, 76, 0
3, 123648, Note_on_c, 1, 77, 96
3, 123904, Note_off_c, 1, 77, 0
3, 123904, Note_on_c, 1, 79, 96
3, 124160, Note_off_c, 1, 79, 0
3, 124160, Note_on_c, 1, 81, 96
3, 124416, Note_off_c, 1, 81, 0
3, 124416, Note_on_c, 1, 79, 96
3, 124672, Note_off_c, 1, 79, 0
3, 124672, Note_on_c, 1, 77, 96
3, 124928, Note_off_c, 1, 77, 0
3, 124928, Note_on_c, 1, 76, 96
3, 125184, Note_off_c, 1, 76, 0
3, 125184, Note_on_c, 1, 78, 96
3, 125440, Note_off_c, 1, 78, 0
3, 125440, Note_on_c, 1, 79, 96
3, 125696, Note_off_c, 1, 79, 0
3, 125696, Note_on_c, 1, 81, 96
3, 125952, Note_off_c, 1, 81, 0
3, 125952, Note_on_c, 1, 83, 96
3, 126208, Note_off_c, 1, 83, 0
3, 126208, Note_on_c, 1, 84, 96
3, 126464, Note_off_c, 1, 84, 0
3, 126464, Note_on_c, 1, 83, 96
3, 126720, Note_off_c, 1, 83, 0
3, 126720, Note_on_c, 1, 81, 96
3, 126976, Note_off_c, 1, 81, 0
3, 126976, Note_on_c, 1, 79, 96
3, 127232, Note_off_c, 1, 79, 0
3, 127232, Note_on_c, 1, 76, 96
3, 127488, Note_off_c, 1, 76, 0
3, 127488, Note_on_c, 1, 74, 96
3, 127744, Note_off_c, 1, 74, 0
3, 127744, Note_on_c, 1, 72, 96
3, 128000, Note_off_c, 1, 72, 0
3, 128000, Note_on_c, 1, 71, 96
3, 128256, Note_off_c, 1, 71, 0
3, 128256, Note_on_c, 1, 72, 96
3, 128512, Note_off_c, 1, 72, 0
3, 128512, Note_on_c, 1, 74, 96
3, 128768, Note_off_c, 1, 74, 0
3, 128768, Note_on_c, 1, 69, 96
3, 129024, Note_off_c, 1, 69, 0
3, 129024, Note_on_c, 1, 67, 96
3, 129280, Note_off_c, 1, 67, 0
3, 129280, Note_on_c, 1, 72, 96
3, 129536, Note_off_c, 1, 72, 0
3, 129536, Note_on_c, 1, 71, 96
3, 129792, Note_off_c, 1, 71, 0
3, 129792, Note_on_c, 1, 69, 96
3, 130048, Note_off_c, 1, 69, 0
3, 130048, Note_on_c, 1, 67, 96
3, 130304, Note_off_c, 1, 67, 0
3, 130304, Note_on_c, 1, 66, 96
3, 130560, Note_off_c, 1, 66, 0
3, 130560, Note_on_c, 1, 64, 96
3, 130816, Note_off_c, 1, 64, 0
3, 130816, Note_on_c, 1, 63, 96
3, 131072, Note_off_c, 1, 63, 0
3, 131072, Note_on_c, 1, 64, 96
3, 131328, Note_off_c, 1, 64, 0
3, 131328, Note_on_c, 1, 66, 96
3, 131584, Note_off_c, 1, 66, 0
3, 131584, Note_on_c, 1, 67, 96
3, 131840, Note_off_c, 1, 67, 0
3, 131840, Note_on_c, 1, 69, 96
3, 132096, Note_off_c, 1, 69, 0
3, 132096, Note_on_c, 1, 71, 96
3, 132352, Note_off_c, 1, 71, 0
3, 132352, Note_on_c, 1, 72, 96
3, 132608, Note_off_c, 1, 72, 0
3, 132608, Note_on_c, 1, 74, 96
3, 132864, Note_off_c, 1, 74, 0
3, 132864, Note_on_c, 1, 71, 96
3, 133120, Note_off_c, 1, 71, 0
3, 133120, Note_on_c, 1, 72, 96
3, 133376, Note_off_c, 1, 72, 0
3, 133376, Note_on_c, 1, 71, 96
3, 133632, Note_off_c, 1, 71, 0
3, 133632, Note_on_c, 1, 69, 96
3, 133888, Note_off_c, 1, 69, 0
3, 133888, Note_on_c, 1, 71, 96
3, 134144, Note_off_c, 1, 71, 0
3, 134144, Note_on_c, 1, 72, 96
3, 134400, Note_off_c, 1, 72, 0
3, 134400, Note_on_c, 1, 74, 96
3, 134656, Note_off_c, 1, 74, 0
3, 134656, Note_on_c, 1, 76, 96
3, 134912, Note_off_c, 1, 76, 0
3, 134912, Note_on_c, 1, 78, 96
3, 135168, Note_off_c, 1, 78, 0
3, 135168, Note_on_c, 1, 79, 96
3, 135424, Note_off_c, 1, 79, 0
3, 135424, Note_on_c, 1, 74, 96
3, 135680, Note_off_c, 1, 74, 0
3, 135680, Note_on_c, 1, 71, 96
3, 135936, Note_off_c, 1, 71, 0
3, 135936, Note_on_c, 1, 77, 96
3, 136192, Note_off_c, 1, 77, 0
3, 136192, Note_on_c, 1, 76, 96
3, 136448, Note_off_c, 1, 76, 0
3, 136448, Note_on_c, 1, 72, 96
3, 136704, Note_off_c, 1, 72, 0
3, 136704, Note_on_c, 1, 67, 96
3, 136960, Note_off_c, 1, 67, 0
3, 136960, Note_on_c, 1, 69, 96
3, 137216, Note_off_c, 1, 69, 0
3, 137216, Note_on_c, 1, 71, 96
3, 137472, Note_off_c, 1, 71, 0
3, 137472, Note_on_c, 1, 67, 96
3, 137728, Note_off_c, 1, 67, 0
3, 137728, Note_on_c, 1, 71, 96
3, 137984, Note_off_c, 1, 71, 0
3, 137984, Note_on_c, 1, 72, 96
3, 138240, Note_off_c, 1, 72, 0
3, 138240, Note_on_c, 1, 74, 96
3, 138496, Note_off_c, 1, 74, 0
3, 138496, Note_on_c, 1, 65, 96
3, 138752, Note_off_c, 1, 65, 0
3, 138752, Note_on_c, 1, 64, 96
3, 139008, Note_off_c, 1, 64, 0
3, 139008, Note_on_c, 1, 62, 96
3, 139264, Note_off_c, 1, 62, 0
3, 139264, Note_on_c, 1, 60, 96
3, 139520, Note_off_c, 1, 60, 0
3, 139520, Note_on_c, 1, 59, 96
3, 139776, Note_off_c, 1, 59, 0
3, 139776, Note_on_c, 1, 60, 96
3, 140032, Note_off_c, 1, 60, 0
3, 140032, Note_on_c, 1, 62, 96
3, 140288, Note_off_c, 1, 62, 0
3, 140288, Note_on_c, 1, 64, 96
3, 140544, Note_off_c, 1, 64, 0
3, 140544, Note_on_c, 1, 66, 96
3, 140800, Note_off_c, 1, 66, 0
3, 140800, Note_on_c, 1, 67, 96
3, 141056, Note_off_c, 1, 67, 0
3, 141056, Note_on_c, 1, 69, 96
3, 141312, Note_off_c, 1, 69, 0
3, 141312, Note_on_c, 1, 71, 96
3, 141568, Note_off_c, 1, 71, 0
3, 141568, Note_on_c, 1, 74, 96
3, 141824, Note_off_c, 1, 74, 0
3, 141824, Note_on_c, 1, 72, 96
3, 142080, Note_off_c, 1, 72, 0
3, 142080, Note_on_c, 1, 71, 96
3, 142336, Note_off_c, 1, 71, 0
3, 142336, Note_on_c, 1, 69, 96
3, 142592, Note_off_c, 1, 69, 0
3, 142592, Note_on_c, 1, 67, 96
3, 142848, Note_off_c, 1, 67, 0
3, 142848, Note_on_c, 1, 66, 96
3, 143104, Note_off_c, 1, 66, 0
3, 143104, Note_on_c, 1, 64, 96
3, 143360, Note_off_c, 1, 64, 0
3, 143360, Note_on_c, 1, 62, 96
3, 143616, Note_off_c, 1, 62, 0
3, 143616, Note_on_c, 1, 76, 96
3, 143872, Note_off_c, 1, 76, 0
3, 143872, Note_on_c, 1, 74, 96
3, 144128, Note_off_c, 1, 74, 0
3, 144128, Note_on_c, 1, 72, 96
3, 144384, Note_off_c, 1, 72, 0
3, 144384, Note_on_c, 1, 71, 96
3, 144640, Note_off_c, 1, 71, 0
3, 144640, Note_on_c, 1, 69, 96
3, 144896, Note_off_c, 1, 69, 0
3, 144896, Note_on_c, 1, 68, 96
3, 145152, Note_off_c, 1, 68, 0
3, 145152, Note_on_c, 1, 66, 96
3, 145408, Note_off_c, 1, 66, 0
3, 145408, Note_on_c, 1, 68, 96
3, 145664, Note_off_c, 1, 68, 0
3, 145664, Note_on_c, 1, 64, 96
3, 145920, Note_off_c, 1, 64, 0
3, 145920, Note_on_c, 1, 66, 96
3, 146176, Note_off_c, 1, 66, 0
3, 146176, Note_on_c, 1, 68, 96
3, 146432, Note_off_c, 1, 68, 0
3, 146432, Note_on_c, 1, 69, 96
3, 146688, Note_off_c, 1, 69, 0
3, 146688, Note_on_c, 1, 71, 96
3, 146944, Note_off_c, 1, 71, 0
3, 146944, Note_on_c, 1, 72, 96
3, 147200, Note_off_c, 1, 72, 0
3, 147200, Note_on_c, 1, 69, 96
3, 147456, Note_off_c, 1, 69, 0
3, 147456, Note_on_c, 1, 74, 96
3, 147712, Note_off_c, 1, 74, 0
3, 147712, Note_on_c, 1, 71, 96
3, 147968, Note_off_c, 1, 71, 0
3, 147968, Note_on_c, 1, 72, 96
3, 148224, Note_off_c, 1, 72, 0
3, 148224, Note_on_c, 1, 74, 96
3, 148480, Note_off_c, 1, 74, 0
3, 148480, Note_on_c, 1, 76, 96
3, 148736, Note_off_c, 1, 76, 0
3, 148736, Note_on_c, 1, 78, 96
3, 148992, Note_off_c, 1, 78, 0
3, 148992, Note_on_c, 1, 79, 96
3, 149248, Note_off_c, 1, 79, 0
3, 149248, Note_on_c, 1, 81, 96
3, 149504, Note_off_c, 1, 81, 0
3, 149504, Note_on_c, 1, 83, 96
3, 149760, Note_off_c, 1, 83, 0
3, 149760, Note_on_c, 1, 81, 96
3, 150016, Note_off_c, 1, 81, 0
3, 150016, Note_on_c, 1, 79, 96
3, 150272, Note_off_c, 1, 79, 0
3, 150272, Note_on_c, 1, 77, 96
3, 150528, Note_off_c, 1, 77, 0
3, 150528, Note_on_c, 1, 76, 96
3, 150784, Note_off_c, 1, 76, 0
3, 150784, Note_on_c, 1, 74, 96
3, 151040, Note_off_c, 1, 74, 0
3, 151040, Note_on_c, 1, 72, 96
3, 151296, Note_off_c, 1, 72, 0
3, 151296, Note_on_c, 1, 71, 96
3, 151552, Note_off_c, 1, 71, 0
3, 151552, Note_on_c, 1, 69, 96
3, 151808, Note_off_c, 1, 69, 0
3, 151808, Note_on_c, 1, 71, 96
3, 152064, Note_off_c, 1, 71, 0
3, 152064, Note_on_c, 1, 72, 96
3, 152320, Note_off_c, 1, 72, 0
3, 152320, Note_on_c, 1, 67, 96
3, 152576, Note_off_c, 1, 67, 0
3, 152576, Note_on_c, 1, 65, 96
3, 152832, Note_off_c, 1, 65, 0
3, 152832, Note_on_c, 1, 72, 96
3, 153088, Note_off_c, 1, 72, 0
3, 153088, Note_on_c, 1, 71, 96
3, 153344, Note_off_c, 1, 71, 0
3, 153344, Note_on_c, 1, 65, 96
3, 153600, Note_off_c, 1, 65, 0
3, 153600, Note_on_c, 1, 64, 96
3, 153856, Note_off_c, 1, 64, 0
3, 153856, Note_on_c, 1, 72, 96
3, 154112, Note_off_c, 1, 72, 0
3, 154112, Note_on_c, 1, 67, 96
3, 154368, Note_off_c, 1, 67, 0
3, 154368, Note_on_c, 1, 64, 96
3, 154624, Note_off_c, 1, 64, 0
3, 154624, Note_on_c, 1, 60, 96
3, 154880, Note_off_c, 1, 60, 0
3, 154880, Note_on_c, 1, 72, 96
3, 155136, Note_off_c, 1, 72, 0
3, 155136, Note_on_c, 1, 70, 96
3, 155392, Note_off_c, 1, 70, 0
3, 155392, Note_on_c, 1, 72, 96
3, 155648, Note_off_c, 1, 72, 0
3, 155648, Note_on_c, 1, 69, 96
3, 155904, Note_off_c, 1, 69, 0
3, 155904, Note_on_c, 1, 74, 96
3, 156160, Note_off_c, 1, 74, 0
3, 156160, Note_on_c, 1, 70, 96
3, 156416, Note_off_c, 1, 70, 0
3, 156416, Note_on_c, 1, 67, 96
3, 156672, Note_off_c, 1, 67, 0
3, 156672, Note_on_c, 1, 66, 96
3, 156928, Note_off_c, 1, 66, 0
3, 156928, Note_on_c, 1, 69, 96
3, 157184, Note_off_c, 1, 69, 0
3, 157184, Note_on_c, 1, 72, 96
3, 157440, Note_off_c, 1, 72, 0
3, 157440, Note_on_c, 1, 66, 96
3, 157696, Note_off_c, 1, 66, 0
3, 157696, Note_on_c, 1, 67, 96
3, 157952, Note_off_c, 1, 67, 0
3, 157952, Note_on_c, 1, 62, 96
3, 158208, Note_off_c, 1, 62, 0
3, 158208, Note_on_c, 1, 59, 96
3, 158464, Note_off_c, 1, 59, 0
3, 158464, Note_on_c, 1, 62, 96
3, 158720, Note_off_c, 1, 62, 0
3, 158720, Note_on_c, 1, 55, 96
3, 159232, Note_off_c, 1, 55, 0
3, 162816, Note_on_c, 1, 72, 96
3, 163840, Note_off_c, 1, 72, 0
3, 163840, Note_on_c, 1, 71, 96
3, 164864, Note_off_c, 1, 71, 0
3, 164864, Note_on_c, 1, 69, 96
3, 165888, Note_off_c, 1, 69, 0
3, 165888, Note_on_c, 1, 71, 96
3, 166912, Note_off_c, 1, 71, 0
3, 166912, Note_on_c, 1, 67, 96
3, 167936, Note_off_c, 1, 67, 0
3, 167936, Note_on_c, 1, 69, 96
3, 168960, Note_off_c, 1, 69, 0
3, 168960, Note_on_c, 1, 71, 96
3, 169984, Note_off_c, 1, 71, 0
3, 169984, Note_on_c, 1, 72, 96
3, 171008, Note_off_c, 1, 72, 0
3, 175104, Note_on_c, 1, 72, 96
3, 176128, Note_off_c, 1, 72, 0
3, 176128, Note_on_c, 1, 72, 96
3, 177152, Note_off_c, 1, 72, 0
3, 177152, Note_on_c, 1, 67, 96
3, 178176, Note_off_c, 1, 67, 0
3, 178176, Note_on_c, 1, 67, 96
3, 179200, Note_off_c, 1, 67, 0
3, 179200, Note_on_c, 1, 64, 96
3, 179712, Note_off_c, 1, 64, 0
3, 179712, Note_on_c, 1, 65, 96
3, 180224, Note_off_c, 1, 65, 0
3, 180224, Note_on_c, 1, 67, 96
3, 181760, Note_off_c, 1, 67, 0
3, 181760, Note_on_c, 1, 65, 96
3, 182272, Note_off_c, 1, 65, 0
3, 182272, Note_on_c, 1, 64, 96
3, 183296, Note_off_c, 1, 64, 0
3, 187392, Note_on_c, 1, 64, 96
3, 188416, Note_off_c, 1, 64, 0
3, 188416, Note_on_c, 1, 69, 96
3, 189440, Note_off_c, 1, 69, 0
3, 189440, Note_on_c, 1, 69, 96
3, 190464, Note_off_c, 1, 69, 0
3, 190464, Note_on_c, 1, 67, 96
3, 193024, Note_off_c, 1, 67, 0
3, 193024, Note_on_c, 1, 69, 96
3, 193536, Note_off_c, 1, 69, 0
3, 193536, Note_on_c, 1, 71, 96
3, 194560, Note_off_c, 1, 71, 0
3, 194560, Note_on_c, 1, 72, 96
3, 195072, Note_off_c, 1, 72, 0
3, 195072, Note_on_c, 1, 71, 96
3, 195584, Note_off_c, 1, 71, 0
3, 195584, Note_on_c, 1, 69, 96
3, 196608, Note_off_c, 1, 69, 0
3, 196608, Note_on_c, 1, 67, 96
3, 197632, Note_off_c, 1, 67, 0
3, 201728, Note_on_c, 1, 72, 96
3, 202752, Note_off_c, 1, 72, 0
3, 202752, Note_on_c, 1, 71, 96
3, 203776, Note_off_c, 1, 71, 0
3, 203776, Note_on_c, 1, 69, 96
3, 204800, Note_off_c, 1, 69, 0
3, 204800, Note_on_c, 1, 67, 96
3, 206336, Note_off_c, 1, 67, 0
3, 206336, Note_on_c, 1, 69, 96
3, 206592, Note_off_c, 1, 69, 0
3, 206592, Note_on_c, 1, 67, 96
3, 206848, Note_off_c, 1, 67, 0
3, 206848, Note_on_c, 1, 65, 96
3, 207360, Note_off_c, 1, 65, 0
3, 207360, Note_on_c, 1, 64, 96
3, 207872, Note_off_c, 1, 64, 0
3, 207872, Note_on_c, 1, 62, 96
3, 208896, Note_off_c, 1, 62, 0
3, 208896, Note_on_c, 1, 60, 96
3, 209920, Note_off_c, 1, 60, 0
3, 215296, Note_on_c, 1, 69, 96
3, 215552, Note_off_c, 1, 69, 0
3, 215552, Note_on_c, 1, 71, 96
3, 215808, Note_off_c, 1, 71, 0
3, 215808, Note_on_c, 1, 72, 96
3, 216064, Note_off_c, 1, 72, 0
3, 216064, Note_on_c, 1, 71, 96
3, 216320, Note_off_c, 1, 71, 0
3, 216320, Note_on_c, 1, 74, 96
3, 216576, Note_off_c, 1, 74, 0
3, 216576, Note_on_c, 1, 72, 96
3, 216832, Note_off_c, 1, 72, 0
3, 216832, Note_on_c, 1, 71, 96
3, 217088, Note_off_c, 1, 71, 0
3, 217088, Note_on_c, 1, 72, 96
3, 217600, Note_off_c, 1, 72, 0
3, 217600, Note_on_c, 1, 72, 96
3, 218112, Note_off_c, 1, 72, 0
3, 218112, Note_on_c, 1, 71, 96
3, 218624, Note_off_c, 1, 71, 0
3, 218624, Note_on_c, 1, 69, 96
3, 219136, Note_off_c, 1, 69, 0
3, 219136, Note_on_c, 1, 71, 96
3, 219648, Note_off_c, 1, 71, 0
3, 219648, Note_on_c, 1, 67, 96
3, 220160, Note_off_c, 1, 67, 0
3, 220160, Note_on_c, 1, 64, 96
3, 220160, Note_on_c, 1, 69, 96
3, 220672, Note_off_c, 1, 69, 0
3, 220672, Note_on_c, 1, 71, 96
3, 221184, Note_off_c, 1, 64, 0
3, 221184, Note_off_c, 1, 71, 0
3, 221184, Note_on_c, 1, 69, 96
3, 222208, Note_off_c, 1, 69, 0
3, 222208, Note_on_c, 1, 69, 96
3, 223232, Note_off_c, 1, 69, 0
3, 223232, Note_on_c, 1, 67, 96
3, 223744, Note_off_c, 1, 67, 0
3, 223744, Note_on_c, 1, 69, 96
3, 224256, Note_off_c, 1, 69, 0
3, 224256, Note_on_c, 1, 71, 96
3, 225280, Note_off_c, 1, 71, 0
3, 225280, Note_on_c, 1, 72, 96
3, 226048, Note_off_c, 1, 72, 0
3, 226048, Note_on_c, 1, 70, 96
3, 226304, Note_off_c, 1, 70, 0
3, 226304, Note_on_c, 1, 69, 96
3, 227072, Note_off_c, 1, 69, 0
3, 227072, Note_on_c, 1, 68, 96
3, 227328, Note_off_c, 1, 68, 0
3, 227328, Note_on_c, 1, 67, 96
3, 233472, Note_off_c, 1, 67, 0
3, 233472, End_track
4, 0, Start_track
4, 0, Title_t, "Instrument 3"
4, 5120, Note_on_c, 2, 64, 96
4, 6144, Note_off_c, 2, 64, 0
4, 6144, Note_on_c, 2, 65, 96
4, 7168, Note_off_c, 2, 65, 0
4, 7168, Note_on_c, 2, 67, 96
4, 8192, Note_off_c, 2, 67, 0
4, 8192, Note_on_c, 2, 65, 96
4, 9216, Note_off_c, 2, 65, 0
4, 9216, Note_on_c, 2, 69, 96
4, 10240, Note_off_c, 2, 69, 0
4, 10240, Note_on_c, 2, 67, 96
4, 11264, Note_off_c, 2, 67, 0
4, 11264, Note_on_c, 2, 65, 96
4, 12288, Note_off_c, 2, 65, 0
4, 12288, Note_on_c, 2, 64, 96
4, 14336, Note_off_c, 2, 64, 0
4, 17408, Note_on_c, 2, 64, 96
4, 18432, Note_off_c, 2, 64, 0
4, 18432, Note_on_c, 2, 64, 96
4, 19456, Note_off_c, 2, 64, 0
4, 19456, Note_on_c, 2, 69, 96
4, 20480, Note_off_c, 2, 69, 0
4, 20480, Note_on_c, 2, 69, 96
4, 21504, Note_off_c, 2, 69, 0
4, 21504, Note_on_c, 2, 72, 96
4, 22016, Note_off_c, 2, 72, 0
4, 22016, Note_on_c, 2, 71, 96
4, 22528, Note_off_c, 2, 71, 0
4, 22528, Note_on_c, 2, 69, 96
4, 23552, Note_off_c, 2, 69, 0
4, 23552, Note_on_c, 2, 71, 96
4, 24576, Note_off_c, 2, 71, 0
4, 24576, Note_on_c, 2, 72, 96
4, 26624, Note_off_c, 2, 72, 0
4, 29696, Note_on_c, 2, 72, 96
4, 30720, Note_off_c, 2, 72, 0
4, 30720, Note_on_c, 2, 67, 96
4, 31744, Note_off_c, 2, 67, 0
4, 31744, Note_on_c, 2, 67, 96
4, 32768, Note_off_c, 2, 67, 0
4, 32768, Note_on_c, 2, 69, 96
4, 34304, Note_off_c, 2, 69, 0
4, 34304, Note_on_c, 2, 67, 96
4, 34816, Note_off_c, 2, 67, 0
4, 34816, Note_on_c, 2, 65, 96
4, 36864, Note_off_c, 2, 65, 0
4, 36864, Note_on_c, 2, 64, 96
4, 38400, Note_off_c, 2, 64, 0
4, 38400, Note_on_c, 2, 65, 96
4, 38912, Note_off_c, 2, 65, 0
4, 38912, Note_on_c, 2, 67, 96
4, 40960, Note_off_c, 2, 67, 0
4, 40960, Note_on_c, 2, 69, 96
4, 43008, Note_off_c, 2, 69, 0
4, 46080, Note_on_c, 2, 64, 96
4, 47104, Note_off_c, 2, 64, 0
4, 47104, Note_on_c, 2, 65, 96
4, 48128, Note_off_c, 2, 65, 0
4, 48128, Note_on_c, 2, 67, 96
4, 49152, Note_off_c, 2, 67, 0
4, 49152, Note_on_c, 2, 69, 96
4, 50176, Note_off_c, 2, 69, 0
4, 50176, Note_on_c, 2, 67, 96
4, 50688, Note_off_c, 2, 67, 0
4, 50688, Note_on_c, 2, 69, 96
4, 51200, Note_off_c, 2, 69, 0
4, 51200, Note_on_c, 2, 71, 96
4, 51712, Note_off_c, 2, 71, 0
4, 51712, Note_on_c, 2, 72, 96
4, 52224, Note_off_c, 2, 72, 0
4, 52224, Note_on_c, 2, 74, 96
4, 53248, Note_off_c, 2, 74, 0
4, 53248, Note_on_c, 2, 76, 96
4, 55296, Note_off_c, 2, 76, 0
4, 58368, Note_on_c, 2, 60, 96
4, 59392, Note_off_c, 2, 60, 0
4, 59392, Note_on_c, 2, 59, 96
4, 60416, Note_off_c, 2, 59, 0
4, 60416, Note_on_c, 2, 57, 96
4, 61440, Note_off_c, 2, 57, 0
4, 61440, Note_on_c, 2, 59, 96
4, 61952, Note_off_c, 2, 59, 0
4, 61952, Note_on_c, 2, 57, 96
4, 62464, Note_off_c, 2, 57, 0
4, 62464, Note_on_c, 2, 55, 96
4, 63488, Note_off_c, 2, 55, 0
4, 63488, Note_on_c, 2, 57, 96
4, 64512, Note_off_c, 2, 57, 0
4, 64512, Note_on_c, 2, 59, 96
4, 65536, Note_off_c, 2, 59, 0
4, 65536, Note_on_c, 2, 60, 96
4, 67584, Note_off_c, 2, 60, 0
4, 70656, Note_on_c, 2, 60, 96
4, 71680, Note_off_c, 2, 60, 0
4, 71680, Note_on_c, 2, 60, 96
4, 72704, Note_off_c, 2, 60, 0
4, 72704, Note_on_c, 2, 55, 96
4, 73728, Note_off_c, 2, 55, 0
4, 73728, Note_on_c, 2, 55, 96
4, 74240, Note_off_c, 2, 55, 0
4, 74240, Note_on_c, 2, 53, 96
4, 74752, Note_off_c, 2, 53, 0
4, 74752, Note_on_c, 2, 52, 96
4, 75264, Note_off_c, 2, 52, 0
4, 75264, Note_on_c, 2, 53, 96
4, 75776, Note_off_c, 2, 53, 0
4, 75776, Note_on_c, 2, 55, 96
4, 76800, Note_off_c, 2, 55, 0
4, 76800, Note_on_c, 2, 53, 96
4, 77824, Note_off_c, 2, 53, 0
4, 77824, Note_on_c, 2, 52, 96
4, 79872, Note_off_c, 2, 52, 0
4, 82944, Note_on_c, 2, 52, 96
4, 83968, Note_off_c, 2, 52, 0
4, 83968, Note_on_c, 2, 57, 96
4, 84992, Note_off_c, 2, 57, 0
4, 84992, Note_on_c, 2, 57, 96
4, 86016, Note_off_c, 2, 57, 0
4, 86016, Note_on_c, 2, 55, 96
4, 87552, Note_off_c, 2, 55, 0
4, 87552, Note_on_c, 2, 57, 96
4, 88064, Note_off_c, 2, 57, 0
4, 88064, Note_on_c, 2, 59, 96
4, 90112, Note_off_c, 2, 59, 0
4, 90112, Note_on_c, 2, 60, 96
4, 91648, Note_off_c, 2, 60, 0
4, 91648, Note_on_c, 2, 58, 96
4, 92160, Note_off_c, 2, 58, 0
4, 92160, Note_on_c, 2, 57, 96
4, 94208, Note_off_c, 2, 57, 0
4, 94208, Note_on_c, 2, 55, 96
4, 96256, Note_off_c, 2, 55, 0
4, 99328, Note_on_c, 2, 60, 96
4, 100352, Note_off_c, 2, 60, 0
4, 100352, Note_on_c, 2, 59, 96
4, 101376, Note_off_c, 2, 59, 0
4, 101376, Note_on_c, 2, 57, 96
4, 102400, Note_off_c, 2, 57, 0
4, 102400, Note_on_c, 2, 55, 96
4, 103424, Note_off_c, 2, 55, 0
4, 103424, Note_on_c, 2, 57, 96
4, 103936, Note_off_c, 2, 57, 0
4, 103936, Note_on_c, 2, 55, 96
4, 104448, Note_off_c, 2, 55, 0
4, 104448, Note_on_c, 2, 53, 96
4, 104960, Note_off_c, 2, 53, 0
4, 104960, Note_on_c, 2, 52, 96
4, 105472, Note_off_c, 2, 52, 0
4, 105472, Note_on_c, 2, 50, 96
4, 106496, Note_off_c, 2, 50, 0
4, 106496, Note_on_c, 2, 48, 96
4, 108544, Note_off_c, 2, 48, 0
4, 112128, Note_on_c, 2, 64, 96
4, 113152, Note_off_c, 2, 64, 0
4, 113152, Note_on_c, 2, 65, 96
4, 114176, Note_off_c, 2, 65, 0
4, 114176, Note_on_c, 2, 67, 96
4, 115200, Note_off_c, 2, 67, 0
4, 115200, Note_on_c, 2, 69, 96
4, 115712, Note_off_c, 2, 69, 0
4, 115712, Note_on_c, 2, 67, 96
4, 116224, Note_off_c, 2, 67, 0
4, 116224, Note_on_c, 2, 66, 96
4, 117248, Note_off_c, 2, 66, 0
4, 117248, Note_on_c, 2, 71, 96
4, 117760, Note_off_c, 2, 71, 0
4, 117760, Note_on_c, 2, 64, 96
4, 118272, Note_off_c, 2, 64, 0
4, 118272, Note_on_c, 2, 62, 96
4, 119296, Note_off_c, 2, 62, 0
4, 119296, Note_on_c, 2, 67, 96
4, 119808, Note_off_c, 2, 67, 0
4, 125440, Note_on_c, 2, 64, 96
4, 125696, Note_off_c, 2, 64, 0
4, 125696, Note_on_c, 2, 66, 96
4, 125952, Note_off_c, 2, 66, 0
4, 125952, Note_on_c, 2, 67, 96
4, 126464, Note_off_c, 2, 67, 0
4, 126464, Note_on_c, 2, 69, 96
4, 126976, Note_off_c, 2, 69, 0
4, 126976, Note_on_c, 2, 71, 96
4, 127488, Note_off_c, 2, 71, 0
4, 127488, Note_on_c, 2, 76, 96
4, 128512, Note_off_c, 2, 76, 0
4, 128512, Note_on_c, 2, 69, 96
4, 129024, Note_off_c, 2, 69, 0
4, 129024, Note_on_c, 2, 71, 96
4, 129536, Note_off_c, 2, 71, 0
4, 129536, Note_on_c, 2, 67, 96
4, 130048, Note_off_c, 2, 67, 0
4, 130048, Note_on_c, 2, 72, 96
4, 131072, Note_off_c, 2, 72, 0
4, 131072, Note_on_c, 2, 71, 96
4, 131584, Note_off_c, 2, 71, 0
4, 131584, Note_on_c, 2, 64, 96
4, 132096, Note_off_c, 2, 64, 0
4, 137728, Note_on_c, 2, 65, 96
4, 138752, Note_off_c, 2, 65, 0
4, 138752, Note_on_c, 2, 67, 96
4, 139776, Note_off_c, 2, 67, 0
4, 139776, Note_on_c, 2, 67, 96
4, 140800, Note_off_c, 2, 67, 0
4, 140800, Note_on_c, 2, 66, 96
4, 141312, Note_off_c, 2, 66, 0
4, 141312, Note_on_c, 2, 67, 96
4, 141824, Note_off_c, 2, 67, 0
4, 141824, Note_on_c, 2, 66, 96
4, 142336, Note_off_c, 2, 66, 0
4, 142336, Note_on_c, 2, 64, 96
4, 142848, Note_off_c, 2, 64, 0
4, 142848, Note_on_c, 2, 69, 96
4, 143872, Note_off_c, 2, 69, 0
4, 143872, Note_on_c, 2, 64, 96
4, 144384, Note_off_c, 2, 64, 0
4, 144384, Note_on_c, 2, 66, 96
4, 144896, Note_off_c, 2, 66, 0
4, 144896, Note_on_c, 2, 71, 96
4, 145920, Note_off_c, 2, 71, 0
4, 145920, Note_on_c, 2, 76, 96
4, 146432, Note_off_c, 2, 76, 0
4, 151040, Note_on_c, 2, 64, 96
4, 151552, Note_off_c, 2, 64, 0
4, 151552, Note_on_c, 2, 65, 96
4, 152064, Note_off_c, 2, 65, 0
4, 152064, Note_on_c, 2, 67, 96
4, 152576, Note_off_c, 2, 67, 0
4, 153088, Note_on_c, 2, 65, 96
4, 153600, Note_off_c, 2, 65, 0
4, 153600, Note_on_c, 2, 67, 96
4, 154112, Note_off_c, 2, 67, 0
4, 154112, Note_on_c, 2, 70, 96
4, 154624, Note_off_c, 2, 70, 0
4, 154624, Note_on_c, 2, 69, 96
4, 154880, Note_off_c, 2, 69, 0
4, 154880, Note_on_c, 2, 66, 96
4, 155136, Note_off_c, 2, 66, 0
4, 155136, Note_on_c, 2, 67, 96
4, 155648, Note_off_c, 2, 67, 0
4, 155648, Note_on_c, 2, 74, 96
4, 156672, Note_off_c, 2, 74, 0
4, 156672, Note_on_c, 2, 72, 96
4, 157184, Note_off_c, 2, 72, 0
4, 157184, Note_on_c, 2, 75, 96
4, 157696, Note_off_c, 2, 75, 0
4, 157696, Note_on_c, 2, 74, 96
4, 158720, Note_off_c, 2, 74, 0
4, 163328, Note_on_c, 2, 69, 96
4, 164352, Note_off_c, 2, 69, 0
4, 164352, Note_on_c, 2, 67, 96
4, 165376, Note_off_c, 2, 67, 0
4, 165376, Note_on_c, 2, 66, 96
4, 165888, Note_off_c, 2, 66, 0
4, 166400, Note_on_c, 2, 62, 96
4, 167424, Note_off_c, 2, 62, 0
4, 167424, Note_on_c, 2, 60, 96
4, 167936, Note_off_c, 2, 60, 0
4, 168448, Note_on_c, 2, 65, 96
4, 169216, Note_off_c, 2, 65, 0
4, 169216, Note_on_c, 2, 64, 96
4, 169472, Note_off_c, 2, 64, 0
4, 169472, Note_on_c, 2, 62, 96
4, 169984, Note_off_c, 2, 62, 0
4, 169984, Note_on_c, 2, 60, 96
4, 170496, Note_off_c, 2, 60, 0
4, 170496, Note_on_c, 2, 67, 96
4, 171008, Note_off_c, 2, 67, 0
4, 175616, Note_on_c, 2, 69, 96
4, 176640, Note_off_c, 2, 69, 0
4, 176640, Note_on_c, 2, 67, 96
4, 176896, Note_off_c, 2, 67, 0
4, 176896, Note_on_c, 2, 66, 96
4, 177152, Note_off_c, 2, 66, 0
4, 177152, Note_on_c, 2, 64, 96
4, 177408, Note_off_c, 2, 64, 0
4, 177408, Note_on_c, 2, 60, 96
4, 177664, Note_off_c, 2, 60, 0
4, 177664, Note_on_c, 2, 59, 96
4, 177920, Note_off_c, 2, 59, 0
4, 177920, Note_on_c, 2, 57, 96
4, 178176, Note_off_c, 2, 57, 0
4, 178176, Note_on_c, 2, 55, 96
4, 178688, Note_off_c, 2, 55, 0
4, 178688, Note_on_c, 2, 62, 96
4, 179456, Note_off_c, 2, 62, 0
4, 179456, Note_on_c, 2, 60, 96
4, 179712, Note_off_c, 2, 60, 0
4, 179712, Note_on_c, 2, 62, 96
4, 180736, Note_off_c, 2, 62, 0
4, 180736, Note_on_c, 2, 60, 96
4, 181248, Note_off_c, 2, 60, 0
4, 181248, Note_on_c, 2, 59, 96
4, 182272, Note_off_c, 2, 59, 0
4, 182272, Note_on_c, 2, 60, 96
4, 183296, Note_off_c, 2, 60, 0
4, 184832, Note_on_c, 2, 57, 96
4, 185344, Note_off_c, 2, 57, 0
4, 185344, Note_on_c, 2, 55, 96
4, 185856, Note_off_c, 2, 55, 0
4, 185856, Note_on_c, 2, 62, 96
4, 186880, Note_off_c, 2, 62, 0
4, 186880, Note_on_c, 2, 60, 96
4, 187904, Note_off_c, 2, 60, 0
4, 187904, Note_on_c, 2, 58, 96
4, 188416, Note_off_c, 2, 58, 0
4, 188416, Note_on_c, 2, 57, 96
4, 188928, Note_off_c, 2, 57, 0
4, 188928, Note_on_c, 2, 59, 96
4, 189952, Note_off_c, 2, 59, 0
4, 189952, Note_on_c, 2, 60, 96
4, 190464, Note_off_c, 2, 60, 0
4, 190464, Note_on_c, 2, 62, 96
4, 190976, Note_off_c, 2, 62, 0
4, 190976, Note_on_c, 2, 64, 96
4, 191488, Note_off_c, 2, 64, 0
4, 191488, Note_on_c, 2, 65, 96
4, 192000, Note_off_c, 2, 65, 0
4, 192000, Note_on_c, 2, 59, 96
4, 192512, Note_off_c, 2, 59, 0
4, 192512, Note_on_c, 2, 60, 96
4, 193536, Note_off_c, 2, 60, 0
4, 194048, Note_on_c, 2, 66, 96
4, 194560, Note_off_c, 2, 66, 0
4, 194560, Note_on_c, 2, 67, 96
4, 196096, Note_off_c, 2, 67, 0
4, 196096, Note_on_c, 2, 65, 96
4, 197120, Note_off_c, 2, 65, 0
4, 197120, Note_on_c, 2, 64, 96
4, 197632, Note_off_c, 2, 64, 0
4, 202240, Note_on_c, 2, 69, 96
4, 203264, Note_off_c, 2, 69, 0
4, 203264, Note_on_c, 2, 67, 96
4, 204288, Note_off_c, 2, 67, 0
4, 204288, Note_on_c, 2, 65, 96
4, 204544, Note_off_c, 2, 65, 0
4, 204544, Note_on_c, 2, 64, 96
4, 204800, Note_off_c, 2, 64, 0
4, 204800, Note_on_c, 2, 62, 96
4, 205312, Note_off_c, 2, 62, 0
4, 205312, Note_on_c, 2, 64, 96
4, 205568, Note_off_c, 2, 64, 0
4, 205568, Note_on_c, 2, 62, 96
4, 205824, Note_off_c, 2, 62, 0
4, 205824, Note_on_c, 2, 60, 96
4, 208384, Note_off_c, 2, 60, 0
4, 208384, Note_on_c, 2, 59, 96
4, 208896, Note_off_c, 2, 59, 0
4, 208896, Note_on_c, 2, 60, 96
4, 209152, Note_off_c, 2, 60, 0
4, 209152, Note_on_c, 2, 62, 96
4, 209408, Note_off_c, 2, 62, 0
4, 209408, Note_on_c, 2, 60, 96
4, 209664, Note_off_c, 2, 60, 0
4, 209664, Note_on_c, 2, 59, 96
4, 209920, Note_off_c, 2, 59, 0
4, 209920, Note_on_c, 2, 60, 96
4, 210176, Note_off_c, 2, 60, 0
4, 210176, Note_on_c, 2, 57, 96
4, 210432, Note_off_c, 2, 57, 0
4, 210432, Note_on_c, 2, 59, 96
4, 210688, Note_off_c, 2, 59, 0
4, 210688, Note_on_c, 2, 60, 96
4, 210944, Note_off_c, 2, 60, 0
4, 210944, Note_on_c, 2, 62, 96
4, 211712, Note_off_c, 2, 62, 0
4, 211712, Note_on_c, 2, 67, 96
4, 211968, Note_off_c, 2, 67, 0
4, 211968, Note_on_c, 2, 60, 96
4, 212736, Note_off_c, 2, 60, 0
4, 212736, Note_on_c, 2, 69, 96
4, 212992, Note_off_c, 2, 69, 0
4, 212992, Note_on_c, 2, 59, 96
4, 213504, Note_off_c, 2, 59, 0
4, 213504, Note_on_c, 2, 65, 96
4, 214016, Note_off_c, 2, 65, 0
4, 214016, Note_on_c, 2, 64, 96
4, 215040, Note_off_c, 2, 64, 0
4, 215040, Note_on_c, 2, 62, 96
4, 215552, Note_off_c, 2, 62, 0
4, 215552, Note_on_c, 2, 60, 96
4, 216064, Note_off_c, 2, 60, 0
4, 216064, Note_on_c, 2, 62, 96
4, 217088, Note_off_c, 2, 62, 0
4, 217088, Note_on_c, 2, 64, 96
4, 218112, Note_off_c, 2, 64, 0
4, 221440, Note_on_c, 2, 59, 96
4, 221696, Note_off_c, 2, 59, 0
4, 221696, Note_on_c, 2, 60, 96
4, 221952, Note_off_c, 2, 60, 0
4, 221952, Note_on_c, 2, 62, 96
4, 222208, Note_off_c, 2, 62, 0
4, 222208, Note_on_c, 2, 60, 96
4, 222464, Note_off_c, 2, 60, 0
4, 222464, Note_on_c, 2, 64, 96
4, 222720, Note_off_c, 2, 64, 0
4, 222720, Note_on_c, 2, 62, 96
4, 222976, Note_off_c, 2, 62, 0
4, 222976, Note_on_c, 2, 60, 96
4, 223232, Note_off_c, 2, 60, 0
4, 223232, Note_on_c, 2, 58, 96
4, 223744, Note_off_c, 2, 58, 0
4, 223744, Note_on_c, 2, 57, 96
4, 224256, Note_off_c, 2, 57, 0
4, 224256, Note_on_c, 2, 62, 96
4, 225280, Note_off_c, 2, 62, 0
4, 225280, Note_on_c, 2, 64, 96
4, 225792, Note_off_c, 2, 64, 0
4, 225792, Note_on_c, 2, 60, 96
4, 226304, Note_off_c, 2, 60, 0
4, 226304, Note_on_c, 2, 65, 96
4, 227840, Note_off_c, 2, 65, 0
4, 227840, Note_on_c, 2, 64, 96
4, 228096, Note_off_c, 2, 64, 0
4, 228096, Note_on_c, 2, 62, 96
4, 228352, Note_off_c, 2, 62, 0
4, 228352, Note_on_c, 2, 64, 96
4, 233472, Note_off_c, 2, 64, 0
4, 233472, End_track
5, 0, Start_track
5, 0, Title_t, "Instrument 4"
5, 111616, Note_on_c, 3, 59, 96
5, 112640, Note_off_c, 3, 59, 0
5, 112640, Note_on_c, 3, 60, 96
5, 113664, Note_off_c, 3, 60, 0
5, 113664, Note_on_c, 3, 62, 96
5, 114688, Note_off_c, 3, 62, 0
5, 114688, Note_on_c, 3, 60, 96
5, 115712, Note_off_c, 3, 60, 0
5, 115712, Note_on_c, 3, 64, 96
5, 116736, Note_off_c, 3, 64, 0
5, 116736, Note_on_c, 3, 62, 96
5, 117760, Note_off_c, 3, 62, 0
5, 117760, Note_on_c, 3, 60, 96
5, 118784, Note_off_c, 3, 60, 0
5, 118784, Note_on_c, 3, 59, 96
5, 119808, Note_off_c, 3, 59, 0
5, 123904, Note_on_c, 3, 59, 96
5, 124928, Note_off_c, 3, 59, 0
5, 124928, Note_on_c, 3, 59, 96
5, 125952, Note_off_c, 3, 59, 0
5, 125952, Note_on_c, 3, 64, 96
5, 126976, Note_off_c, 3, 64, 0
5, 126976, Note_on_c, 3, 64, 96
5, 128000, Note_off_c, 3, 64, 0
5, 128000, Note_on_c, 3, 67, 96
5, 128512, Note_off_c, 3, 67, 0
5, 128512, Note_on_c, 3, 66, 96
5, 129024, Note_off_c, 3, 66, 0
5, 129024, Note_on_c, 3, 64, 96
5, 130560, Note_off_c, 3, 64, 0
5, 130560, Note_on_c, 3, 66, 96
5, 131072, Note_off_c, 3, 66, 0
5, 131072, Note_on_c, 3, 67, 96
5, 132096, Note_off_c, 3, 67, 0
5, 136192, Note_on_c, 3, 67, 96
5, 137216, Note_off_c, 3, 67, 0
5, 137216, Note_on_c, 3, 62, 96
5, 138240, Note_off_c, 3, 62, 0
5, 138240, Note_on_c, 3, 62, 96
5, 139264, Note_off_c, 3, 62, 0
5, 139264, Note_on_c, 3, 64, 96
5, 141824, Note_off_c, 3, 64, 0
5, 141824, Note_on_c, 3, 62, 96
5, 142336, Note_off_c, 3, 62, 0
5, 142336, Note_on_c, 3, 60, 96
5, 143360, Note_off_c, 3, 60, 0
5, 143360, Note_on_c, 3, 59, 96
5, 143872, Note_off_c, 3, 59, 0
5, 143872, Note_on_c, 3, 60, 96
5, 144384, Note_off_c, 3, 60, 0
5, 144384, Note_on_c, 3, 62, 96
5, 145408, Note_off_c, 3, 62, 0
5, 145408, Note_on_c, 3, 64, 96
5, 146432, Note_off_c, 3, 64, 0
5, 150528, Note_on_c, 3, 59, 96
5, 151552, Note_off_c, 3, 59, 0
5, 151552, Note_on_c, 3, 60, 96
5, 152576, Note_off_c, 3, 60, 0
5, 152576, Note_on_c, 3, 62, 96
5, 153600, Note_off_c, 3, 62, 0
5, 153600, Note_on_c, 3, 64, 96
5, 155136, Note_off_c, 3, 64, 0
5, 155136, Note_on_c, 3, 62, 96
5, 155392, Note_off_c, 3, 62, 0
5, 155392, Note_on_c, 3, 64, 96
5, 155648, Note_off_c, 3, 64, 0
5, 155648, Note_on_c, 3, 66, 96
5, 156160, Note_off_c, 3, 66, 0
5, 156160, Note_on_c, 3, 67, 96
5, 156672, Note_off_c, 3, 67, 0
5, 156672, Note_on_c, 3, 69, 96
5, 157696, Note_off_c, 3, 69, 0
5, 157696, Note_on_c, 3, 71, 96
5, 158720, Note_off_c, 3, 71, 0
5, 158976, Note_on_c, 3, 65, 96
5, 159232, Note_off_c, 3, 65, 0
5, 159232, Note_on_c, 3, 67, 96
5, 159488, Note_off_c, 3, 67, 0
5, 159488, Note_on_c, 3, 69, 96
5, 159744, Note_off_c, 3, 69, 0
5, 159744, Note_on_c, 3, 67, 96
5, 160000, Note_off_c, 3, 67, 0
5, 160000, Note_on_c, 3, 64, 96
5, 160256, Note_off_c, 3, 64, 0
5, 160256, Note_on_c, 3, 62, 96
5, 160512, Note_off_c, 3, 62, 0
5, 160512, Note_on_c, 3, 60, 96
5, 160768, Note_off_c, 3, 60, 0
5, 160768, Note_on_c, 3, 59, 96
5, 161024, Note_off_c, 3, 59, 0
5, 161024, Note_on_c, 3, 62, 96
5, 161280, Note_off_c, 3, 62, 0
5, 161280, Note_on_c, 3, 64, 96
5, 161536, Note_off_c, 3, 64, 0
5, 161536, Note_on_c, 3, 65, 96
5, 161792, Note_off_c, 3, 65, 0
5, 161792, Note_on_c, 3, 64, 96
5, 162048, Note_off_c, 3, 64, 0
5, 162048, Note_on_c, 3, 60, 96
5, 162304, Note_off_c, 3, 60, 0
5, 162304, Note_on_c, 3, 59, 96
5, 162560, Note_off_c, 3, 59, 0
5, 162560, Note_on_c, 3, 57, 96
5, 162816, Note_off_c, 3, 57, 0
5, 162816, Note_on_c, 3, 55, 96
5, 163072, Note_off_c, 3, 55, 0
5, 163072, Note_on_c, 3, 60, 96
5, 163328, Note_off_c, 3, 60, 0
5, 163328, Note_on_c, 3, 62, 96
5, 163584, Note_off_c, 3, 62, 0
5, 163584, Note_on_c, 3, 64, 96
5, 163840, Note_off_c, 3, 64, 0
5, 163840, Note_on_c, 3, 54, 96
5, 164096, Note_off_c, 3, 54, 0
5, 164096, Note_on_c, 3, 62, 96
5, 164352, Note_off_c, 3, 62, 0
5, 164352, Note_on_c, 3, 55, 96
5, 164608, Note_off_c, 3, 55, 0
5, 164608, Note_on_c, 3, 59, 96
5, 164864, Note_off_c, 3, 59, 0
5, 164864, Note_on_c, 3, 64, 96
5, 165120, Note_off_c, 3, 64, 0
5, 165120, Note_on_c, 3, 60, 96
5, 165376, Note_off_c, 3, 60, 0
5, 165376, Note_on_c, 3, 57, 96
5, 165632, Note_off_c, 3, 57, 0
5, 165632, Note_on_c, 3, 66, 96
5, 165888, Note_off_c, 3, 66, 0
5, 165888, Note_on_c, 3, 67, 96
5, 166144, Note_off_c, 3, 67, 0
5, 166144, Note_on_c, 3, 62, 96
5, 166400, Note_off_c, 3, 62, 0
5, 166400, Note_on_c, 3, 55, 96
5, 166656, Note_off_c, 3, 55, 0
5, 166656, Note_on_c, 3, 65, 96
5, 166912, Note_off_c, 3, 65, 0
5, 166912, Note_on_c, 3, 64, 96
5, 167168, Note_off_c, 3, 64, 0
5, 167168, Note_on_c, 3, 67, 96
5, 167424, Note_off_c, 3, 67, 0
5, 167424, Note_on_c, 3, 72, 96
5, 167680, Note_off_c, 3, 72, 0
5, 167680, Note_on_c, 3, 70, 96
5, 167936, Note_off_c, 3, 70, 0
5, 167936, Note_on_c, 3, 65, 96
5, 168192, Note_off_c, 3, 65, 0
5, 168192, Note_on_c, 3, 70, 96
5, 168448, Note_off_c, 3, 70, 0
5, 168448, Note_on_c, 3, 69, 96
5, 168704, Note_off_c, 3, 69, 0
5, 168704, Note_on_c, 3, 64, 96
5, 168960, Note_off_c, 3, 64, 0
5, 168960, Note_on_c, 3, 62, 96
5, 169216, Note_off_c, 3, 62, 0
5, 169216, Note_on_c, 3, 67, 96
5, 169472, Note_off_c, 3, 67, 0
5, 169472, Note_on_c, 3, 65, 96
5, 169728, Note_off_c, 3, 65, 0
5, 169728, Note_on_c, 3, 62, 96
5, 169984, Note_off_c, 3, 62, 0
5, 169984, Note_on_c, 3, 64, 96
5, 170240, Note_off_c, 3, 64, 0
5, 170240, Note_on_c, 3, 67, 96
5, 170496, Note_off_c, 3, 67, 0
5, 170496, Note_on_c, 3, 65, 96
5, 170752, Note_off_c, 3, 65, 0
5, 170752, Note_on_c, 3, 64, 96
5, 171008, Note_off_c, 3, 64, 0
5, 171008, Note_on_c, 3, 62, 96
5, 171264, Note_off_c, 3, 62, 0
5, 171264, Note_on_c, 3, 60, 96
5, 171520, Note_off_c, 3, 60, 0
5, 171520, Note_on_c, 3, 59, 96
5, 171776, Note_off_c, 3, 59, 0
5, 171776, Note_on_c, 3, 57, 96
5, 172032, Note_off_c, 3, 57, 0
5, 172032, Note_on_c, 3, 55, 96
5, 172288, Note_off_c, 3, 55, 0
5, 172288, Note_on_c, 3, 53, 96
5, 172544, Note_off_c, 3, 53, 0
5, 172544, Note_on_c, 3, 52, 96
5, 172800, Note_off_c, 3, 52, 0
5, 172800, Note_on_c, 3, 50, 96
5, 173056, Note_off_c, 3, 50, 0
5, 173056, Note_on_c, 3, 48, 96
5, 173312, Note_off_c, 3, 48, 0
5, 173312, Note_on_c, 3, 47, 96
5, 173568, Note_off_c, 3, 47, 0
5, 173568, Note_on_c, 3, 45, 96
5, 173824, Note_off_c, 3, 45, 0
5, 173824, Note_on_c, 3, 47, 96
5, 174080, Note_off_c, 3, 47, 0
5, 174080, Note_on_c, 3, 48, 96
5, 174336, Note_off_c, 3, 48, 0
5, 174336, Note_on_c, 3, 47, 96
5, 174592, Note_off_c, 3, 47, 0
5, 174592, Note_on_c, 3, 48, 96
5, 174848, Note_off_c, 3, 48, 0
5, 174848, Note_on_c, 3, 50, 96
5, 175104, Note_off_c, 3, 50, 0
5, 175104, Note_on_c, 3, 52, 96
5, 175360, Note_off_c, 3, 52, 0
5, 175360, Note_on_c, 3, 48, 96
5, 175616, Note_off_c, 3, 48, 0
5, 175616, Note_on_c, 3, 45, 96
5, 175872, Note_off_c, 3, 45, 0
5, 175872, Note_on_c, 3, 54, 96
5, 176128, Note_off_c, 3, 54, 0
5, 176128, Note_on_c, 3, 55, 96
5, 176384, Note_off_c, 3, 55, 0
5, 176384, Note_on_c, 3, 54, 96
5, 176640, Note_off_c, 3, 54, 0
5, 176640, Note_on_c, 3, 55, 96
5, 176896, Note_off_c, 3, 55, 0
5, 176896, Note_on_c, 3, 57, 96
5, 177152, Note_off_c, 3, 57, 0
5, 177152, Note_on_c, 3, 59, 96
5, 177408, Note_off_c, 3, 59, 0
5, 177408, Note_on_c, 3, 52, 96
5, 177664, Note_off_c, 3, 52, 0
5, 177664, Note_on_c, 3, 50, 96
5, 177920, Note_off_c, 3, 50, 0
5, 177920, Note_on_c, 3, 48, 96
5, 178176, Note_off_c, 3, 48, 0
5, 178176, Note_on_c, 3, 47, 96
5, 178432, Note_off_c, 3, 47, 0
5, 178432, Note_on_c, 3, 43, 96
5, 178688, Note_off_c, 3, 43, 0
5, 178688, Note_on_c, 3, 45, 96
5, 178944, Note_off_c, 3, 45, 0
5, 178944, Note_on_c, 3, 47, 96
5, 179200, Note_off_c, 3, 47, 0
5, 179200, Note_on_c, 3, 48, 96
5, 179456, Note_off_c, 3, 48, 0
5, 179456, Note_on_c, 3, 45, 96
5, 179712, Note_off_c, 3, 45, 0
5, 179712, Note_on_c, 3, 43, 96
5, 179968, Note_off_c, 3, 43, 0
5, 179968, Note_on_c, 3, 41, 96
5, 180224, Note_off_c, 3, 41, 0
5, 180224, Note_on_c, 3, 40, 96
5, 180480, Note_off_c, 3, 40, 0
5, 180480, Note_on_c, 3, 38, 96
5, 180736, Note_off_c, 3, 38, 0
5, 180736, Note_on_c, 3, 40, 96
5, 180992, Note_off_c, 3, 40, 0
5, 180992, Note_on_c, 3, 41, 96
5, 181248, Note_off_c, 3, 41, 0
5, 181248, Note_on_c, 3, 43, 96
5, 181504, Note_off_c, 3, 43, 0
5, 181504, Note_on_c, 3, 41, 96
5, 181760, Note_off_c, 3, 41, 0
5, 181760, Note_on_c, 3, 40, 96
5, 182016, Note_off_c, 3, 40, 0
5, 182016, Note_on_c, 3, 38, 96
5, 182272, Note_off_c, 3, 38, 0
5, 182272, Note_on_c, 3, 36, 96
5, 182528, Note_off_c, 3, 36, 0
5, 182528, Note_on_c, 3, 43, 96
5, 182784, Note_off_c, 3, 43, 0
5, 182784, Note_on_c, 3, 48, 96
5, 183040, Note_off_c, 3, 48, 0
5, 183040, Note_on_c, 3, 50, 96
5, 183296, Note_off_c, 3, 50, 0
5, 183296, Note_on_c, 3, 52, 96
5, 183552, Note_off_c, 3, 52, 0
5, 183552, Note_on_c, 3, 55, 96
5, 183808, Note_off_c, 3, 55, 0
5, 183808, Note_on_c, 3, 53, 96
5, 184064, Note_off_c, 3, 53, 0
5, 184064, Note_on_c, 3, 52, 96
5, 184320, Note_off_c, 3, 52, 0
5, 184320, Note_on_c, 3, 53, 96
5, 184576, Note_off_c, 3, 53, 0
5, 184576, Note_on_c, 3, 52, 96
5, 184832, Note_off_c, 3, 52, 0
5, 184832, Note_on_c, 3, 50, 96
5, 185088, Note_off_c, 3, 50, 0
5, 185088, Note_on_c, 3, 48, 96
5, 185344, Note_off_c, 3, 48, 0
5, 185344, Note_on_c, 3, 47, 96
5, 185600, Note_off_c, 3, 47, 0
5, 185600, Note_on_c, 3, 50, 96
5, 185856, Note_off_c, 3, 50, 0
5, 185856, Note_on_c, 3, 48, 96
5, 186112, Note_off_c, 3, 48, 0
5, 186112, Note_on_c, 3, 47, 96
5, 186368, Note_off_c, 3, 47, 0
5, 186368, Note_on_c, 3, 48, 96
5, 186624, Note_off_c, 3, 48, 0
5, 186624, Note_on_c, 3, 50, 96
5, 186880, Note_off_c, 3, 50, 0
5, 186880, Note_on_c, 3, 52, 96
5, 187136, Note_off_c, 3, 52, 0
5, 187136, Note_on_c, 3, 50, 96
5, 187392, Note_off_c, 3, 50, 0
5, 187392, Note_on_c, 3, 48, 96
5, 187648, Note_off_c, 3, 48, 0
5, 187648, Note_on_c, 3, 46, 96
5, 187904, Note_off_c, 3, 46, 0
5, 187904, Note_on_c, 3, 45, 96
5, 188160, Note_off_c, 3, 45, 0
5, 188160, Note_on_c, 3, 43, 96
5, 188416, Note_off_c, 3, 43, 0
5, 188416, Note_on_c, 3, 41, 96
5, 188672, Note_off_c, 3, 41, 0
5, 188672, Note_on_c, 3, 48, 96
5, 188928, Note_off_c, 3, 48, 0
5, 188928, Note_on_c, 3, 50, 96
5, 189184, Note_off_c, 3, 50, 0
5, 189184, Note_on_c, 3, 52, 96
5, 189440, Note_off_c, 3, 52, 0
5, 189440, Note_on_c, 3, 53, 96
5, 189696, Note_off_c, 3, 53, 0
5, 189696, Note_on_c, 3, 55, 96
5, 189952, Note_off_c, 3, 55, 0
5, 189952, Note_on_c, 3, 53, 96
5, 190208, Note_off_c, 3, 53, 0
5, 190208, Note_on_c, 3, 52, 96
5, 190464, Note_off_c, 3, 52, 0
5, 190464, Note_on_c, 3, 50, 96
5, 190720, Note_off_c, 3, 50, 0
5, 190720, Note_on_c, 3, 48, 96
5, 190976, Note_off_c, 3, 48, 0
5, 190976, Note_on_c, 3, 47, 96
5, 191232, Note_off_c, 3, 47, 0
5, 191232, Note_on_c, 3, 45, 96
5, 191488, Note_off_c, 3, 45, 0
5, 191488, Note_on_c, 3, 47, 96
5, 191744, Note_off_c, 3, 47, 0
5, 191744, Note_on_c, 3, 53, 96
5, 192000, Note_off_c, 3, 53, 0
5, 192000, Note_on_c, 3, 52, 96
5, 192256, Note_off_c, 3, 52, 0
5, 192256, Note_on_c, 3, 50, 96
5, 192512, Note_off_c, 3, 50, 0
5, 192512, Note_on_c, 3, 48, 96
5, 192768, Note_off_c, 3, 48, 0
5, 192768, Note_on_c, 3, 60, 96
5, 193024, Note_off_c, 3, 60, 0
5, 193024, Note_on_c, 3, 59, 96
5, 193280, Note_off_c, 3, 59, 0
5, 193280, Note_on_c, 3, 57, 96
5, 193536, Note_off_c, 3, 57, 0
5, 193536, Note_on_c, 3, 55, 96
5, 193792, Note_off_c, 3, 55, 0
5, 193792, Note_on_c, 3, 54, 96
5, 194048, Note_off_c, 3, 54, 0
5, 194048, Note_on_c, 3, 52, 96
5, 194304, Note_off_c, 3, 52, 0
5, 194304, Note_on_c, 3, 51, 96
5, 194560, Note_off_c, 3, 51, 0
5, 194560, Note_on_c, 3, 52, 96
5, 194816, Note_off_c, 3, 52, 0
5, 194816, Note_on_c, 3, 54, 96
5, 195072, Note_off_c, 3, 54, 0
5, 195072, Note_on_c, 3, 55, 96
5, 195328, Note_off_c, 3, 55, 0
5, 195328, Note_on_c, 3, 57, 96
5, 195584, Note_off_c, 3, 57, 0
5, 195584, Note_on_c, 3, 59, 96
5, 195840, Note_off_c, 3, 59, 0
5, 195840, Note_on_c, 3, 61, 96
5, 196096, Note_off_c, 3, 61, 0
5, 196096, Note_on_c, 3, 63, 96
5, 196352, Note_off_c, 3, 63, 0
5, 196352, Note_on_c, 3, 59, 96
5, 196608, Note_off_c, 3, 59, 0
5, 196608, Note_on_c, 3, 64, 96
5, 196864, Note_off_c, 3, 64, 0
5, 196864, Note_on_c, 3, 66, 96
5, 197120, Note_off_c, 3, 66, 0
5, 197120, Note_on_c, 3, 67, 96
5, 197376, Note_off_c, 3, 67, 0
5, 197376, Note_on_c, 3, 69, 96
5, 197632, Note_off_c, 3, 69, 0
5, 197632, Note_on_c, 3, 67, 96
5, 197888, Note_off_c, 3, 67, 0
5, 197888, Note_on_c, 3, 65, 96
5, 198144, Note_off_c, 3, 65, 0
5, 198144, Note_on_c, 3, 64, 96
5, 198400, Note_off_c, 3, 64, 0
5, 198400, Note_on_c, 3, 62, 96
5, 198656, Note_off_c, 3, 62, 0
5, 198656, Note_on_c, 3, 64, 96
5, 198912, Note_off_c, 3, 64, 0
5, 198912, Note_on_c, 3, 69, 96
5, 199168, Note_off_c, 3, 69, 0
5, 199168, Note_on_c, 3, 71, 96
5, 199424, Note_off_c, 3, 71, 0
5, 199424, Note_on_c, 3, 72, 96
5, 199680, Note_off_c, 3, 72, 0
5, 199680, Note_on_c, 3, 71, 96
5, 199936, Note_off_c, 3, 71, 0
5, 199936, Note_on_c, 3, 69, 96
5, 200192, Note_off_c, 3, 69, 0
5, 200192, Note_on_c, 3, 67, 96
5, 200448, Note_off_c, 3, 67, 0
5, 200448, Note_on_c, 3, 66, 96
5, 200704, Note_off_c, 3, 66, 0
5, 200704, Note_on_c, 3, 67, 96
5, 200960, Note_off_c, 3, 67, 0
5, 200960, Note_on_c, 3, 55, 96
5, 201216, Note_off_c, 3, 55, 0
5, 201216, Note_on_c, 3, 57, 96
5, 201472, Note_off_c, 3, 57, 0
5, 201472, Note_on_c, 3, 59, 96
5, 201728, Note_off_c, 3, 59, 0
5, 201728, Note_on_c, 3, 57, 96
5, 201984, Note_off_c, 3, 57, 0
5, 201984, Note_on_c, 3, 55, 96
5, 202240, Note_off_c, 3, 55, 0
5, 202240, Note_on_c, 3, 54, 96
5, 202496, Note_off_c, 3, 54, 0
5, 202496, Note_on_c, 3, 52, 96
5, 202752, Note_off_c, 3, 52, 0
5, 202752, Note_on_c, 3, 50, 96
5, 203008, Note_off_c, 3, 50, 0
5, 203008, Note_on_c, 3, 47, 96
5, 203264, Note_off_c, 3, 47, 0
5, 203264, Note_on_c, 3, 52, 96
5, 203520, Note_off_c, 3, 52, 0
5, 203520, Note_on_c, 3, 50, 96
5, 203776, Note_off_c, 3, 50, 0
5, 203776, Note_on_c, 3, 48, 96
5, 204032, Note_off_c, 3, 48, 0
5, 204032, Note_on_c, 3, 45, 96
5, 204288, Note_off_c, 3, 45, 0
5, 204288, Note_on_c, 3, 50, 96
5, 204544, Note_off_c, 3, 50, 0
5, 204544, Note_on_c, 3, 52, 96
5, 204800, Note_off_c, 3, 52, 0
5, 204800, Note_on_c, 3, 53, 96
5, 205056, Note_off_c, 3, 53, 0
5, 205056, Note_on_c, 3, 50, 96
5, 205312, Note_off_c, 3, 50, 0
5, 205312, Note_on_c, 3, 55, 96
5, 205568, Note_off_c, 3, 55, 0
5, 205568, Note_on_c, 3, 53, 96
5, 205824, Note_off_c, 3, 53, 0
5, 205824, Note_on_c, 3, 52, 96
5, 206080, Note_off_c, 3, 52, 0
5, 206080, Note_on_c, 3, 48, 96
5, 206336, Note_off_c, 3, 48, 0
5, 206336, Note_on_c, 3, 53, 96
5, 206592, Note_off_c, 3, 53, 0
5, 206592, Note_on_c, 3, 55, 96
5, 206848, Note_off_c, 3, 55, 0
5, 206848, Note_on_c, 3, 57, 96
5, 207104, Note_off_c, 3, 57, 0
5, 207104, Note_on_c, 3, 55, 96
5, 207360, Note_off_c, 3, 55, 0
5, 207360, Note_on_c, 3, 53, 96
5, 207616, Note_off_c, 3, 53, 0
5, 207616, Note_on_c, 3, 52, 96
5, 207872, Note_off_c, 3, 52, 0
5, 207872, Note_on_c, 3, 53, 96
5, 208128, Note_off_c, 3, 53, 0
5, 208128, Note_on_c, 3, 50, 96
5, 208384, Note_off_c, 3, 50, 0
5, 208384, Note_on_c, 3, 55, 96
5, 208640, Note_off_c, 3, 55, 0
5, 208640, Note_on_c, 3, 53, 96
5, 208896, Note_off_c, 3, 53, 0
5, 208896, Note_on_c, 3, 52, 96
5, 209408, Note_off_c, 3, 52, 0
5, 209408, Note_on_c, 3, 54, 96
5, 209664, Note_off_c, 3, 54, 0
5, 209664, Note_on_c, 3, 55, 96
5, 209920, Note_off_c, 3, 55, 0
5, 209920, Note_on_c, 3, 57, 96
5, 211200, Note_off_c, 3, 57, 0
5, 211200, Note_on_c, 3, 55, 96
5, 211456, Note_off_c, 3, 55, 0
5, 211456, Note_on_c, 3, 54, 96
5, 211712, Note_off_c, 3, 54, 0
5, 211712, Note_on_c, 3, 52, 96
5, 211968, Note_off_c, 3, 52, 0
5, 211968, Note_on_c, 3, 54, 96
5, 212224, Note_off_c, 3, 54, 0
5, 212224, Note_on_c, 3, 50, 96
5, 212480, Note_off_c, 3, 50, 0
5, 212480, Note_on_c, 3, 52, 96
5, 212736, Note_off_c, 3, 52, 0
5, 212736, Note_on_c, 3, 54, 96
5, 212992, Note_off_c, 3, 54, 0
5, 212992, Note_on_c, 3, 55, 96
5, 213504, Note_off_c, 3, 55, 0
5, 213504, Note_on_c, 3, 62, 96
5, 214016, Note_off_c, 3, 62, 0
5, 214016, Note_on_c, 3, 60, 96
5, 214528, Note_off_c, 3, 60, 0
5, 214528, Note_on_c, 3, 59, 96
5, 215040, Note_off_c, 3, 59, 0
5, 215040, Note_on_c, 3, 57, 96
5, 215552, Note_off_c, 3, 57, 0
5, 215552, Note_on_c, 3, 55, 96
5, 216064, Note_off_c, 3, 55, 0
5, 216064, Note_on_c, 3, 53, 96
5, 216576, Note_off_c, 3, 53, 0
5, 216576, Note_on_c, 3, 52, 96
5, 216832, Note_off_c, 3, 52, 0
5, 216832, Note_on_c, 3, 53, 96
5, 217088, Note_off_c, 3, 53, 0
5, 217088, Note_on_c, 3, 55, 96
5, 218112, Note_off_c, 3, 55, 0
5, 219648, Note_on_c, 3, 60, 96
5, 220160, Note_off_c, 3, 60, 0
5, 220160, Note_on_c, 3, 60, 96
5, 220672, Note_off_c, 3, 60, 0
5, 220672, Note_on_c, 3, 55, 96
5, 221184, Note_off_c, 3, 55, 0
5, 221184, Note_on_c, 3, 55, 96
5, 221696, Note_off_c, 3, 55, 0
5, 221696, Note_on_c, 3, 52, 96
5, 221952, Note_off_c, 3, 52, 0
5, 221952, Note_on_c, 3, 53, 96
5, 222208, Note_off_c, 3, 53, 0
5, 222208, Note_on_c, 3, 55, 96
5, 222720, Note_off_c, 3, 55, 0
5, 222720, Note_on_c, 3, 53, 96
5, 223232, Note_off_c, 3, 53, 0
5, 223232, Note_on_c, 3, 52, 96
5, 223488, Note_off_c, 3, 52, 0
5, 223488, Note_on_c, 3, 55, 96
5, 223744, Note_off_c, 3, 55, 0
5, 223744, Note_on_c, 3, 53, 96
5, 224000, Note_off_c, 3, 53, 0
5, 224000, Note_on_c, 3, 52, 96
5, 224256, Note_off_c, 3, 52, 0
5, 224256, Note_on_c, 3, 53, 96
5, 224512, Note_off_c, 3, 53, 0
5, 224512, Note_on_c, 3, 50, 96
5, 224768, Note_off_c, 3, 50, 0
5, 224768, Note_on_c, 3, 52, 96
5, 225024, Note_off_c, 3, 52, 0
5, 225024, Note_on_c, 3, 53, 96
5, 225280, Note_off_c, 3, 53, 0
5, 225280, Note_on_c, 3, 55, 96
5, 225792, Note_off_c, 3, 55, 0
5, 225792, Note_on_c, 3, 53, 96
5, 226048, Note_off_c, 3, 53, 0
5, 226048, Note_on_c, 3, 55, 96
5, 226304, Note_off_c, 3, 55, 0
5, 226304, Note_on_c, 3, 57, 96
5, 226816, Note_off_c, 3, 57, 0
5, 226816, Note_on_c, 3, 53, 96
5, 227328, Note_off_c, 3, 53, 0
5, 227328, Note_on_c, 3, 55, 96
5, 233472, Note_off_c, 3, 55, 0
5, 233472, End_track
6, 0, Start_track
6, 0, Title_t, "Instrument 5"
6, 512, Note_on_c, 4, 48, 96
6, 1024, Note_off_c, 4, 48, 0
6, 1024, Note_on_c, 4, 52, 96
6, 1536, Note_off_c, 4, 52, 0
6, 1536, Note_on_c, 4, 48, 96
6, 2048, Note_off_c, 4, 48, 0
6, 2048, Note_on_c, 4, 55, 96
6, 2560, Note_off_c, 4, 55, 0
6, 2560, Note_on_c, 4, 47, 96
6, 3072, Note_off_c, 4, 47, 0
6, 3072, Note_on_c, 4, 48, 96
6, 3584, Note_off_c, 4, 48, 0
6, 3584, Note_on_c, 4, 50, 96
6, 4096, Note_off_c, 4, 50, 0
6, 4096, Note_on_c, 4, 43, 96
6, 4608, Note_off_c, 4, 43, 0
6, 4608, Note_on_c, 4, 55, 96
6, 5120, Note_off_c, 4, 55, 0
6, 5120, Note_on_c, 4, 60, 96
6, 5632, Note_off_c, 4, 60, 0
6, 5632, Note_on_c, 4, 58, 96
6, 6144, Note_off_c, 4, 58, 0
6, 6144, Note_on_c, 4, 57, 96
6, 6656, Note_off_c, 4, 57, 0
6, 6656, Note_on_c, 4, 53, 96
6, 7680, Note_off_c, 4, 53, 0
6, 7680, Note_on_c, 4, 52, 96
6, 8192, Note_off_c, 4, 52, 0
6, 8192, Note_on_c, 4, 45, 96
6, 8704, Note_off_c, 4, 45, 0
6, 8704, Note_on_c, 4, 57, 96
6, 9216, Note_off_c, 4, 57, 0
6, 9216, Note_on_c, 4, 55, 96
6, 9728, Note_off_c, 4, 55, 0
6, 9728, Note_on_c, 4, 53, 96
6, 10240, Note_off_c, 4, 53, 0
6, 10240, Note_on_c, 4, 52, 96
6, 10752, Note_off_c, 4, 52, 0
6, 10752, Note_on_c, 4, 60, 96
6, 11264, Note_off_c, 4, 60, 0
6, 11264, Note_on_c, 4, 50, 96
6, 11776, Note_off_c, 4, 50, 0
6, 11776, Note_on_c, 4, 59, 96
6, 12288, Note_off_c, 4, 59, 0
6, 12288, Note_on_c, 4, 48, 96
6, 12800, Note_off_c, 4, 48, 0
6, 12800, Note_on_c, 4, 50, 96
6, 13312, Note_off_c, 4, 50, 0
6, 13312, Note_on_c, 4, 52, 96
6, 13824, Note_off_c, 4, 52, 0
6, 13824, Note_on_c, 4, 48, 96
6, 14336, Note_off_c, 4, 48, 0
6, 14336, Note_on_c, 4, 45, 96
6, 14848, Note_off_c, 4, 45, 0
6, 14848, Note_on_c, 4, 47, 96
6, 15360, Note_off_c, 4, 47, 0
6, 15360, Note_on_c, 4, 48, 96
6, 15872, Note_off_c, 4, 48, 0
6, 15872, Note_on_c, 4, 45, 96
6, 16384, Note_off_c, 4, 45, 0
6, 16384, Note_on_c, 4, 47, 96
6, 16896, Note_off_c, 4, 47, 0
6, 16896, Note_on_c, 4, 43, 96
6, 17408, Note_off_c, 4, 43, 0
6, 17408, Note_on_c, 4, 48, 96
6, 17920, Note_off_c, 4, 48, 0
6, 17920, Note_on_c, 4, 47, 96
6, 18432, Note_off_c, 4, 47, 0
6, 18432, Note_on_c, 4, 45, 96
6, 18944, Note_off_c, 4, 45, 0
6, 18944, Note_on_c, 4, 57, 96
6, 19968, Note_off_c, 4, 57, 0
6, 19968, Note_on_c, 4, 59, 96
6, 20480, Note_off_c, 4, 59, 0
6, 20480, Note_on_c, 4, 60, 96
6, 20992, Note_off_c, 4, 60, 0
6, 20992, Note_on_c, 4, 59, 96
6, 21504, Note_off_c, 4, 59, 0
6, 21504, Note_on_c, 4, 57, 96
6, 22016, Note_off_c, 4, 57, 0
6, 22016, Note_on_c, 4, 55, 96
6, 22528, Note_off_c, 4, 55, 0
6, 22528, Note_on_c, 4, 53, 96
6, 23040, Note_off_c, 4, 53, 0
6, 23040, Note_on_c, 4, 52, 96
6, 23552, Note_off_c, 4, 52, 0
6, 23552, Note_on_c, 4, 50, 96
6, 24064, Note_off_c, 4, 50, 0
6, 24064, Note_on_c, 4, 55, 96
6, 24576, Note_off_c, 4, 55, 0
6, 24576, Note_on_c, 4, 52, 96
6, 25088, Note_off_c, 4, 52, 0
6, 25088, Note_on_c, 4, 48, 96
6, 25600, Note_off_c, 4, 48, 0
6, 26112, Note_on_c, 4, 48, 96
6, 26624, Note_off_c, 4, 48, 0
6, 26624, Note_on_c, 4, 53, 96
6, 27136, Note_off_c, 4, 53, 0
6, 27136, Note_on_c, 4, 52, 96
6, 27648, Note_off_c, 4, 52, 0
6, 27648, Note_on_c, 4, 50, 96
6, 28160, Note_off_c, 4, 50, 0
6, 28160, Note_on_c, 4, 48, 96
6, 28672, Note_off_c, 4, 48, 0
6, 28672, Note_on_c, 4, 47, 96
6, 29184, Note_off_c, 4, 47, 0
6, 29184, Note_on_c, 4, 40, 96
6, 29696, Note_off_c, 4, 40, 0
6, 29696, Note_on_c, 4, 52, 96
6, 31232, Note_off_c, 4, 52, 0
6, 31232, Note_on_c, 4, 53, 96
6, 31744, Note_off_c, 4, 53, 0
6, 31744, Note_on_c, 4, 52, 96
6, 32256, Note_off_c, 4, 52, 0
6, 32256, Note_on_c, 4, 50, 96
6, 32768, Note_off_c, 4, 50, 0
6, 32768, Note_on_c, 4, 48, 96
6, 33280, Note_off_c, 4, 48, 0
6, 33280, Note_on_c, 4, 45, 96
6, 33792, Note_off_c, 4, 45, 0
6, 33792, Note_on_c, 4, 47, 96
6, 34304, Note_off_c, 4, 47, 0
6, 34304, Note_on_c, 4, 48, 96
6, 34816, Note_off_c, 4, 48, 0
6, 34816, Note_on_c, 4, 50, 96
6, 35328, Note_off_c, 4, 50, 0
6, 35328, Note_on_c, 4, 45, 96
6, 35840, Note_off_c, 4, 45, 0
6, 35840, Note_on_c, 4, 38, 96
6, 36352, Note_off_c, 4, 38, 0
6, 36352, Note_on_c, 4, 50, 96
6, 37376, Note_off_c, 4, 50, 0
6, 37376, Note_on_c, 4, 43, 96
6, 37888, Note_off_c, 4, 43, 0
6, 37888, Note_on_c, 4, 48, 96
6, 38400, Note_off_c, 4, 48, 0
6, 38400, Note_on_c, 4, 50, 96
6, 38912, Note_off_c, 4, 50, 0
6, 38912, Note_on_c, 4, 52, 96
6, 39424, Note_off_c, 4, 52, 0
6, 39424, Note_on_c, 4, 60, 96
6, 39936, Note_off_c, 4, 60, 0
6, 39936, Note_on_c, 4, 48, 96
6, 40448, Note_off_c, 4, 48, 0
6, 40448, Note_on_c, 4, 58, 96
6, 40960, Note_off_c, 4, 58, 0
6, 40960, Note_on_c, 4, 53, 96
6, 41472, Note_off_c, 4, 53, 0
6, 41472, Note_on_c, 4, 55, 96
6, 41984, Note_off_c, 4, 55, 0
6, 41984, Note_on_c, 4, 57, 96
6, 42496, Note_off_c, 4, 57, 0
6, 42496, Note_on_c, 4, 53, 96
6, 43008, Note_off_c, 4, 53, 0
6, 43008, Note_on_c, 4, 50, 96
6, 43520, Note_off_c, 4, 50, 0
6, 43520, Note_on_c, 4, 52, 96
6, 44032, Note_off_c, 4, 52, 0
6, 44032, Note_on_c, 4, 53, 96
6, 44544, Note_off_c, 4, 53, 0
6, 44544, Note_on_c, 4, 50, 96
6, 45056, Note_off_c, 4, 50, 0
6, 45056, Note_on_c, 4, 47, 96
6, 45568, Note_off_c, 4, 47, 0
6, 45568, Note_on_c, 4, 43, 96
6, 46080, Note_off_c, 4, 43, 0
6, 46080, Note_on_c, 4, 48, 96
6, 46592, Note_off_c, 4, 48, 0
6, 46592, Note_on_c, 4, 46, 96
6, 47104, Note_off_c, 4, 46, 0
6, 47104, Note_on_c, 4, 45, 96
6, 47616, Note_off_c, 4, 45, 0
6, 47616, Note_on_c, 4, 53, 96
6, 48640, Note_off_c, 4, 53, 0
6, 48640, Note_on_c, 4, 52, 96
6, 49152, Note_off_c, 4, 52, 0
6, 49152, Note_on_c, 4, 53, 96
6, 49664, Note_off_c, 4, 53, 0
6, 49664, Note_on_c, 4, 50, 96
6, 50176, Note_off_c, 4, 50, 0
6, 50176, Note_on_c, 4, 52, 96
6, 50688, Note_off_c, 4, 52, 0
6, 50688, Note_on_c, 4, 53, 96
6, 51200, Note_off_c, 4, 53, 0
6, 51200, Note_on_c, 4, 55, 96
6, 51712, Note_off_c, 4, 55, 0
6, 51712, Note_on_c, 4, 52, 96
6, 52224, Note_off_c, 4, 52, 0
6, 52224, Note_on_c, 4, 53, 96
6, 52736, Note_off_c, 4, 53, 0
6, 52736, Note_on_c, 4, 55, 96
6, 53248, Note_off_c, 4, 55, 0
6, 53248, Note_on_c, 4, 48, 96
6, 53760, Note_off_c, 4, 48, 0
6, 53760, Note_on_c, 4, 60, 96
6, 54784, Note_off_c, 4, 60, 0
6, 54784, Note_on_c, 4, 58, 96
6, 55296, Note_off_c, 4, 58, 0
6, 55296, Note_on_c, 4, 57, 96
6, 55808, Note_off_c, 4, 57, 0
6, 55808, Note_on_c, 4, 55, 96
6, 56320, Note_off_c, 4, 55, 0
6, 56320, Note_on_c, 4, 53, 96
6, 56832, Note_off_c, 4, 53, 0
6, 56832, Note_on_c, 4, 52, 96
6, 57344, Note_off_c, 4, 52, 0
6, 57344, Note_on_c, 4, 50, 96
6, 57856, Note_off_c, 4, 50, 0
6, 57856, Note_on_c, 4, 52, 96
6, 58368, Note_off_c, 4, 52, 0
6, 58368, Note_on_c, 4, 53, 96
6, 58880, Note_off_c, 4, 53, 0
6, 58880, Note_on_c, 4, 41, 96
6, 59904, Note_off_c, 4, 41, 0
6, 59904, Note_on_c, 4, 40, 96
6, 60928, Note_off_c, 4, 40, 0
6, 60928, Note_on_c, 4, 38, 96
6, 61440, Note_off_c, 4, 38, 0
6, 61440, Note_on_c, 4, 43, 96
6, 61952, Note_off_c, 4, 43, 0
6, 61952, Note_on_c, 4, 41, 96
6, 62464, Note_off_c, 4, 41, 0
6, 62464, Note_on_c, 4, 40, 96
6, 62976, Note_off_c, 4, 40, 0
6, 62976, Note_on_c, 4, 48, 96
6, 63488, Note_off_c, 4, 48, 0
6, 63488, Note_on_c, 4, 41, 96
6, 64000, Note_off_c, 4, 41, 0
6, 64000, Note_on_c, 4, 50, 96
6, 64512, Note_off_c, 4, 50, 0
6, 64512, Note_on_c, 4, 43, 96
6, 65024, Note_off_c, 4, 43, 0
6, 65024, Note_on_c, 4, 53, 96
6, 65536, Note_off_c, 4, 53, 0
6, 65536, Note_on_c, 4, 52, 96
6, 66048, Note_off_c, 4, 52, 0
6, 66048, Note_on_c, 4, 50, 96
6, 66560, Note_off_c, 4, 50, 0
6, 66560, Note_on_c, 4, 48, 96
6, 67072, Note_off_c, 4, 48, 0
6, 67072, Note_on_c, 4, 47, 96
6, 67584, Note_off_c, 4, 47, 0
6, 67584, Note_on_c, 4, 45, 96
6, 68096, Note_off_c, 4, 45, 0
6, 68096, Note_on_c, 4, 55, 96
6, 68608, Note_off_c, 4, 55, 0
6, 68608, Note_on_c, 4, 53, 96
6, 69120, Note_off_c, 4, 53, 0
6, 69120, Note_on_c, 4, 52, 96
6, 69632, Note_off_c, 4, 52, 0
6, 69632, Note_on_c, 4, 50, 96
6, 70144, Note_off_c, 4, 50, 0
6, 70144, Note_on_c, 4, 38, 96
6, 70656, Note_off_c, 4, 38, 0
6, 70656, Note_on_c, 4, 45, 96
6, 71168, Note_off_c, 4, 45, 0
6, 71168, Note_on_c, 4, 43, 96
6, 71680, Note_off_c, 4, 43, 0
6, 71680, Note_on_c, 4, 41, 96
6, 72192, Note_off_c, 4, 41, 0
6, 72192, Note_on_c, 4, 53, 96
6, 72704, Note_off_c, 4, 53, 0
6, 72704, Note_on_c, 4, 52, 96
6, 73216, Note_off_c, 4, 52, 0
6, 73216, Note_on_c, 4, 50, 96
6, 73728, Note_off_c, 4, 50, 0
6, 73728, Note_on_c, 4, 52, 96
6, 74240, Note_off_c, 4, 52, 0
6, 74240, Note_on_c, 4, 50, 96
6, 74752, Note_off_c, 4, 50, 0
6, 74752, Note_on_c, 4, 48, 96
6, 75264, Note_off_c, 4, 48, 0
6, 75264, Note_on_c, 4, 50, 96
6, 75776, Note_off_c, 4, 50, 0
6, 75776, Note_on_c, 4, 52, 96
6, 76288, Note_off_c, 4, 52, 0
6, 76288, Note_on_c, 4, 60, 96
6, 76800, Note_off_c, 4, 60, 0
6, 76800, Note_on_c, 4, 50, 96
6, 77312, Note_off_c, 4, 50, 0
6, 77312, Note_on_c, 4, 59, 96
6, 77824, Note_off_c, 4, 59, 0
6, 77824, Note_on_c, 4, 48, 96
6, 78336, Note_off_c, 4, 48, 0
6, 78336, Note_on_c, 4, 47, 96
6, 78848, Note_off_c, 4, 47, 0
6, 78848, Note_on_c, 4, 45, 96
6, 79360, Note_off_c, 4, 45, 0
6, 79360, Note_on_c, 4, 47, 96
6, 79872, Note_off_c, 4, 47, 0
6, 79872, Note_on_c, 4, 48, 96
6, 80384, Note_off_c, 4, 48, 0
6, 80384, Note_on_c, 4, 50, 96
6, 80896, Note_off_c, 4, 50, 0
6, 80896, Note_on_c, 4, 52, 96
6, 81408, Note_off_c, 4, 52, 0
6, 81408, Note_on_c, 4, 48, 96
6, 81920, Note_off_c, 4, 48, 0
6, 81920, Note_on_c, 4, 53, 96
6, 82432, Note_off_c, 4, 53, 0
6, 82432, Note_on_c, 4, 41, 96
6, 82944, Note_off_c, 4, 41, 0
6, 82944, Note_on_c, 4, 48, 96
6, 84480, Note_off_c, 4, 48, 0
6, 84480, Note_on_c, 4, 40, 96
6, 84992, Note_off_c, 4, 40, 0
6, 84992, Note_on_c, 4, 38, 96
6, 85504, Note_off_c, 4, 38, 0
6, 85504, Note_on_c, 4, 47, 96
6, 86528, Note_off_c, 4, 47, 0
6, 86528, Note_on_c, 4, 38, 96
6, 87040, Note_off_c, 4, 38, 0
6, 87040, Note_on_c, 4, 36, 96
6, 87552, Note_off_c, 4, 36, 0
6, 87552, Note_on_c, 4, 48, 96
6, 88064, Note_off_c, 4, 48, 0
6, 88064, Note_on_c, 4, 47, 96
6, 88576, Note_off_c, 4, 47, 0
6, 88576, Note_on_c, 4, 52, 96
6, 89088, Note_off_c, 4, 52, 0
6, 89088, Note_on_c, 4, 40, 96
6, 89600, Note_off_c, 4, 40, 0
6, 89600, Note_on_c, 4, 55, 96
6, 90624, Note_off_c, 4, 55, 0
6, 90624, Note_on_c, 4, 54, 96
6, 91136, Note_off_c, 4, 54, 0
6, 91136, Note_on_c, 4, 55, 96
6, 92672, Note_off_c, 4, 55, 0
6, 92672, Note_on_c, 4, 61, 96
6, 93184, Note_off_c, 4, 61, 0
6, 93184, Note_on_c, 4, 62, 96
6, 93696, Note_off_c, 4, 62, 0
6, 93696, Note_on_c, 4, 53, 96
6, 94208, Note_off_c, 4, 53, 0
6, 94208, Note_on_c, 4, 52, 96
6, 94720, Note_off_c, 4, 52, 0
6, 94720, Note_on_c, 4, 62, 96
6, 95232, Note_off_c, 4, 62, 0
6, 95232, Note_on_c, 4, 60, 96
6, 95744, Note_off_c, 4, 60, 0
6, 95744, Note_on_c, 4, 48, 96
6, 96256, Note_off_c, 4, 48, 0
6, 96256, Note_on_c, 4, 50, 96
6, 96768, Note_off_c, 4, 50, 0
6, 96768, Note_on_c, 4, 60, 96
6, 97280, Note_off_c, 4, 60, 0
6, 97280, Note_on_c, 4, 58, 96
6, 97792, Note_off_c, 4, 58, 0
6, 97792, Note_on_c, 4, 52, 96
6, 98304, Note_off_c, 4, 52, 0
6, 98304, Note_on_c, 4, 53, 96
6, 98816, Note_off_c, 4, 53, 0
6, 98816, Note_on_c, 4, 50, 96
6, 99328, Note_off_c, 4, 50, 0
6, 99328, Note_on_c, 4, 52, 96
6, 99840, Note_off_c, 4, 52, 0
6, 99840, Note_on_c, 4, 53, 96
6, 100352, Note_off_c, 4, 53, 0
6, 100352, Note_on_c, 4, 55, 96
6, 100864, Note_off_c, 4, 55, 0
6, 100864, Note_on_c, 4, 52, 96
6, 101376, Note_off_c, 4, 52, 0
6, 101376, Note_on_c, 4, 53, 96
6, 101888, Note_off_c, 4, 53, 0
6, 101888, Note_on_c, 4, 58, 96
6, 102912, Note_off_c, 4, 58, 0
6, 102912, Note_on_c, 4, 55, 96
6, 103424, Note_off_c, 4, 55, 0
6, 103424, Note_on_c, 4, 60, 96
6, 103936, Note_off_c, 4, 60, 0
6, 103936, Note_on_c, 4, 58, 96
6, 104448, Note_off_c, 4, 58, 0
6, 104448, Note_on_c, 4, 57, 96
6, 104960, Note_off_c, 4, 57, 0
6, 104960, Note_on_c, 4, 55, 96
6, 105472, Note_off_c, 4, 55, 0
6, 105472, Note_on_c, 4, 53, 96
6, 105984, Note_off_c, 4, 53, 0
6, 105984, Note_on_c, 4, 55, 96
6, 106496, Note_off_c, 4, 55, 0
6, 106496, Note_on_c, 4, 57, 96
6, 107008, Note_off_c, 4, 57, 0
6, 107008, Note_on_c, 4, 59, 96
6, 107520, Note_off_c, 4, 59, 0
6, 107520, Note_on_c, 4, 60, 96
6, 108544, Note_off_c, 4, 60, 0
6, 108544, Note_on_c, 4, 59, 96
6, 109568, Note_off_c, 4, 59, 0
6, 109568, Note_on_c, 4, 57, 96
6, 110592, Note_off_c, 4, 57, 0
6, 110592, Note_on_c, 4, 59, 96
6, 111616, Note_off_c, 4, 59, 0
6, 111616, Note_on_c, 4, 55, 96
6, 112640, Note_off_c, 4, 55, 0
6, 112640, Note_on_c, 4, 57, 96
6, 113664, Note_off_c, 4, 57, 0
6, 113664, Note_on_c, 4, 59, 96
6, 114688, Note_off_c, 4, 59, 0
6, 114688, Note_on_c, 4, 60, 96
6, 115712, Note_off_c, 4, 60, 0
6, 119808, Note_on_c, 4, 60, 96
6, 120832, Note_off_c, 4, 60, 0
6, 120832, Note_on_c, 4, 60, 96
6, 121856, Note_off_c, 4, 60, 0
6, 121856, Note_on_c, 4, 55, 96
6, 122880, Note_off_c, 4, 55, 0
6, 122880, Note_on_c, 4, 55, 96
6, 123904, Note_off_c, 4, 55, 0
6, 123904, Note_on_c, 4, 52, 96
6, 124416, Note_off_c, 4, 52, 0
6, 124416, Note_on_c, 4, 53, 96
6, 124928, Note_off_c, 4, 53, 0
6, 124928, Note_on_c, 4, 55, 96
6, 126464, Note_off_c, 4, 55, 0
6, 126464, Note_on_c, 4, 53, 96
6, 126976, Note_off_c, 4, 53, 0
6, 126976, Note_on_c, 4, 52, 96
6, 128000, Note_off_c, 4, 52, 0
6, 132096, Note_on_c, 4, 52, 96
6, 133120, Note_off_c, 4, 52, 0
6, 133120, Note_on_c, 4, 57, 96
6, 134144, Note_off_c, 4, 57, 0
6, 134144, Note_on_c, 4, 57, 96
6, 135168, Note_off_c, 4, 57, 0
6, 135168, Note_on_c, 4, 55, 96
6, 137728, Note_off_c, 4, 55, 0
6, 137728, Note_on_c, 4, 57, 96
6, 138240, Note_off_c, 4, 57, 0
6, 138240, Note_on_c, 4, 59, 96
6, 139264, Note_off_c, 4, 59, 0
6, 139264, Note_on_c, 4, 60, 96
6, 139776, Note_off_c, 4, 60, 0
6, 139776, Note_on_c, 4, 59, 96
6, 140288, Note_off_c, 4, 59, 0
6, 140288, Note_on_c, 4, 57, 96
6, 141312, Note_off_c, 4, 57, 0
6, 141312, Note_on_c, 4, 55, 96
6, 142336, Note_off_c, 4, 55, 0
6, 146432, Note_on_c, 4, 60, 96
6, 147456, Note_off_c, 4, 60, 0
6, 147456, Note_on_c, 4, 59, 96
6, 148480, Note_off_c, 4, 59, 0
6, 148480, Note_on_c, 4, 57, 96
6, 149504, Note_off_c, 4, 57, 0
6, 149504, Note_on_c, 4, 55, 96
6, 151040, Note_off_c, 4, 55, 0
6, 151040, Note_on_c, 4, 57, 96
6, 151296, Note_off_c, 4, 57, 0
6, 151296, Note_on_c, 4, 55, 96
6, 151552, Note_off_c, 4, 55, 0
6, 151552, Note_on_c, 4, 53, 96
6, 152064, Note_off_c, 4, 53, 0
6, 152064, Note_on_c, 4, 52, 96
6, 152576, Note_off_c, 4, 52, 0
6, 152576, Note_on_c, 4, 50, 96
6, 153600, Note_off_c, 4, 50, 0
6, 153600, Note_on_c, 4, 48, 96
6, 154624, Note_off_c, 4, 48, 0
6, 158720, Note_on_c, 4, 47, 96
6, 159744, Note_off_c, 4, 47, 0
6, 159744, Note_on_c, 4, 48, 96
6, 160768, Note_off_c, 4, 48, 0
6, 160768, Note_on_c, 4, 50, 96
6, 161792, Note_off_c, 4, 50, 0
6, 161792, Note_on_c, 4, 48, 96
6, 162816, Note_off_c, 4, 48, 0
6, 162816, Note_on_c, 4, 52, 96
6, 163840, Note_off_c, 4, 52, 0
6, 163840, Note_on_c, 4, 50, 96
6, 164864, Note_off_c, 4, 50, 0
6, 164864, Note_on_c, 4, 48, 96
6, 165888, Note_off_c, 4, 48, 0
6, 165888, Note_on_c, 4, 47, 96
6, 166912, Note_off_c, 4, 47, 0
6, 171008, Note_on_c, 4, 47, 96
6, 172032, Note_off_c, 4, 47, 0
6, 172032, Note_on_c, 4, 47, 96
6, 173056, Note_off_c, 4, 47, 0
6, 173056, Note_on_c, 4, 52, 96
6, 174080, Note_off_c, 4, 52, 0
6, 174080, Note_on_c, 4, 52, 96
6, 175104, Note_off_c, 4, 52, 0
6, 175104, Note_on_c, 4, 55, 96
6, 175616, Note_off_c, 4, 55, 0
6, 175616, Note_on_c, 4, 54, 96
6, 176128, Note_off_c, 4, 54, 0
6, 176128, Note_on_c, 4, 52, 96
6, 177664, Note_off_c, 4, 52, 0
6, 177664, Note_on_c, 4, 54, 96
6, 178176, Note_off_c, 4, 54, 0
6, 178176, Note_on_c, 4, 55, 96
6, 179200, Note_off_c, 4, 55, 0
6, 183296, Note_on_c, 4, 55, 96
6, 184320, Note_off_c, 4, 55, 0
6, 184320, Note_on_c, 4, 50, 96
6, 185344, Note_off_c, 4, 50, 0
6, 185344, Note_on_c, 4, 50, 96
6, 186368, Note_off_c, 4, 50, 0
6, 186368, Note_on_c, 4, 52, 96
6, 188928, Note_off_c, 4, 52, 0
6, 188928, Note_on_c, 4, 50, 96
6, 189440, Note_off_c, 4, 50, 0
6, 189440, Note_on_c, 4, 48, 96
6, 190464, Note_off_c, 4, 48, 0
6, 190464, Note_on_c, 4, 47, 96
6, 190976, Note_off_c, 4, 47, 0
6, 190976, Note_on_c, 4, 48, 96
6, 191488, Note_off_c, 4, 48, 0
6, 191488, Note_on_c, 4, 50, 96
6, 192512, Note_off_c, 4, 50, 0
6, 192512, Note_on_c, 4, 52, 96
6, 193536, Note_off_c, 4, 52, 0
6, 197632, Note_on_c, 4, 47, 96
6, 198656, Note_off_c, 4, 47, 0
6, 198656, Note_on_c, 4, 48, 96
6, 199680, Note_off_c, 4, 48, 0
6, 199680, Note_on_c, 4, 50, 96
6, 200704, Note_off_c, 4, 50, 0
6, 200704, Note_on_c, 4, 52, 96
6, 202240, Note_off_c, 4, 52, 0
6, 202240, Note_on_c, 4, 50, 96
6, 202496, Note_off_c, 4, 50, 0
6, 202496, Note_on_c, 4, 52, 96
6, 202752, Note_off_c, 4, 52, 0
6, 202752, Note_on_c, 4, 54, 96
6, 203264, Note_off_c, 4, 54, 0
6, 203264, Note_on_c, 4, 55, 96
6, 203776, Note_off_c, 4, 55, 0
6, 203776, Note_on_c, 4, 57, 96
6, 204800, Note_off_c, 4, 57, 0
6, 204800, Note_on_c, 4, 59, 96
6, 205824, Note_off_c, 4, 59, 0
6, 209920, Note_on_c, 4, 48, 96
6, 210944, Note_off_c, 4, 48, 0
6, 210944, Note_on_c, 4, 47, 96
6, 211968, Note_off_c, 4, 47, 0
6, 211968, Note_on_c, 4, 45, 96
6, 212992, Note_off_c, 4, 45, 0
6, 212992, Note_on_c, 4, 43, 96
6, 214016, Note_off_c, 4, 43, 0
6, 214016, Note_on_c, 4, 45, 96
6, 214528, Note_off_c, 4, 45, 0
6, 214528, Note_on_c, 4, 43, 96
6, 215040, Note_off_c, 4, 43, 0
6, 215040, Note_on_c, 4, 41, 96
6, 215552, Note_off_c, 4, 41, 0
6, 215552, Note_on_c, 4, 40, 96
6, 216064, Note_off_c, 4, 40, 0
6, 216064, Note_on_c, 4, 38, 96
6, 217088, Note_off_c, 4, 38, 0
6, 217088, Note_on_c, 4, 36, 96
6, 233472, Note_off_c, 4, 36, 0
6, 233472, End_track
0, 0, End_of_file
