0, 0, Header, 1, 5, 240
1, 0, Start_track
1, 0, Time_signature, 4, 2, 24, 8
1, 0, Key_signature, 0, "major"
1, 0, Tempo, 937500
1, 24720, Tempo, 983606
1, 24960, Tempo, 1000000
1, 25080, Tempo, 1071428
1, 25200, Tempo, 1132075
1, 25320, Tempo, 1200000
1, 25384, Tempo, 1500000
1, 25440, Tempo, 1578947
1, 25440, End_track
2, 0, Start_track
2, 0, MIDI_port, 0
2, 0, Title_t, "1"
2, 0, Program_c, 0, 6
2, 1560, Note_on_c, 0, 67, 64
2, 1680, Note_on_c, 0, 67, 0
2, 1680, Note_on_c, 0, 69, 64
2, 1800, Note_on_c, 0, 69, 0
2, 1800, Note_on_c, 0, 71, 64
2, 1920, Note_on_c, 0, 71, 0
2, 1920, Note_on_c, 0, 72, 64
2, 2100, Note_on_c, 0, 72, 0
2, 2100, Note_on_c, 0, 74, 64
2, 2130, Note_on_c, 0, 74, 0
2, 2132, Note_on_c, 0, 72, 64
2, 2160, Note_on_c, 0, 71, 64
2, 2162, Note_on_c, 0, 72, 0
2, 2280, Note_on_c, 0, 71, 0
2, 2280, Note_on_c, 0, 76, 64
2, 2400, Note_on_c, 0, 76, 0
2, 2400, Note_on_c, 0, 69, 64
2, 2520, Note_on_c, 0, 69, 0
2, 2520, Note_on_c, 0, 74, 64
2, 2690, Note_on_c, 0, 74, 0
2, 2700, Note_on_c, 0, 76, 64
2, 2760, Note_on_c, 0, 76, 0
2, 2760, Note_on_c, 0, 74, 64
2, 2820, Note_on_c, 0, 74, 0
2, 2820, Note_on_c, 0, 72, 64
2, 2880, Note_on_c, 0, 72, 0
2, 2880, Note_on_c, 0, 71, 64
2, 2940, Note_on_c, 0, 71, 0
2, 2940, Note_on_c, 0, 67, 64
2, 3000, Note_on_c, 0, 67, 0
2, 3000, Note_on_c, 0, 69, 64
2, 3060, Note_on_c, 0, 69, 0
2, 3060, Note_on_c, 0, 71, 64
2, 3120, Note_on_c, 0, 71, 0
2, 3120, Note_on_c, 0, 72, 64
2, 3180, Note_on_c, 0, 72, 0
2, 3180, Note_on_c, 0, 71, 64
2, 3240, Note_on_c, 0, 71, 0
2, 3240, Note_on_c, 0, 72, 64
2, 3300, Note_on_c, 0, 72, 0
2, 3300, Note_on_c, 0, 74, 64
2, 3360, Note_on_c, 0, 74, 0
2, 3360, Note_on_c, 0, 76, 64
2, 3420, Note_on_c, 0, 76, 0
2, 3420, Note_on_c, 0, 74, 64
2, 3480, Note_on_c, 0, 74, 0
2, 3480, Note_on_c, 0, 76, 64
2, 3540, Note_on_c, 0, 76, 0
2, 3540, Note_on_c, 0, 78, 64
2, 3600, Note_on_c, 0, 78, 0
2, 3600, Note_on_c, 0, 79, 64
2, 3720, Note_on_c, 0, 79, 0
2, 3720, Note_on_c, 0, 71, 64
2, 3840, Note_on_c, 0, 71, 0
2, 3840, Note_on_c, 0, 72, 64
2, 3960, Note_on_c, 0, 72, 0
2, 3960, Note_on_c, 0, 69, 64
2, 4080, Note_on_c, 0, 69, 0
2, 4080, Note_on_c, 0, 74, 64
2, 4140, Note_on_c, 0, 74, 0
2, 4140, Note_on_c, 0, 72, 64
2, 4200, Note_on_c, 0, 72, 0
2, 4200, Note_on_c, 0, 71, 64
2, 4260, Note_on_c, 0, 71, 0
2, 4260, Note_on_c, 0, 69, 64
2, 4320, Note_on_c, 0, 69, 0
2, 4320, Note_on_c, 0, 67, 64
2, 4490, Note_on_c, 0, 67, 0
2, 4500, Note_on_c, 0, 67, 64
2, 4560, Note_on_c, 0, 67, 0
2, 4560, Note_on_c, 0, 65, 64
2, 4620, Note_on_c, 0, 65, 0
2, 4620, Note_on_c, 0, 64, 64
2, 4680, Note_on_c, 0, 64, 0
2, 4680, Note_on_c, 0, 65, 64
2, 4740, Note_on_c, 0, 65, 0
2, 4740, Note_on_c, 0, 67, 64
2, 4800, Note_on_c, 0, 67, 0
2, 4800, Note_on_c, 0, 69, 64
2, 4860, Note_on_c, 0, 69, 0
2, 4860, Note_on_c, 0, 67, 64
2, 4920, Note_on_c, 0, 67, 0
2, 4920, Note_on_c, 0, 69, 64
2, 4980, Note_on_c, 0, 69, 0
2, 4980, Note_on_c, 0, 71, 64
2, 5040, Note_on_c, 0, 71, 0
2, 5040, Note_on_c, 0, 72, 64
2, 5520, Note_on_c, 0, 72, 0
2, 5520, Note_on_c, 0, 71, 64
2, 5760, Note_on_c, 0, 71, 0
2, 5880, Note_on_c, 0, 72, 64
2, 6000, Note_on_c, 0, 72, 0
2, 6000, Note_on_c, 0, 74, 64
2, 6120, Note_on_c, 0, 74, 0
2, 6120, Note_on_c, 0, 76, 64
2, 6240, Note_on_c, 0, 76, 0
2, 6240, Note_on_c, 0, 77, 64
2, 6420, Note_on_c, 0, 77, 0
2, 6420, Note_on_c, 0, 79, 64
2, 6450, Note_on_c, 0, 79, 0
2, 6450, Note_on_c, 0, 77, 64
2, 6480, Note_on_c, 0, 77, 0
2, 6480, Note_on_c, 0, 76, 64
2, 6600, Note_on_c, 0, 76, 0
2, 6600, Note_on_c, 0, 81, 64
2, 6720, Note_on_c, 0, 81, 0
2, 6720, Note_on_c, 0, 74, 64
2, 6840, Note_on_c, 0, 74, 0
2, 6840, Note_on_c, 0, 79, 64
2, 7020, Note_on_c, 0, 79, 0
2, 7020, Note_on_c, 0, 81, 64
2, 7080, Note_on_c, 0, 81, 0
2, 7080, Note_on_c, 0, 79, 64
2, 7140, Note_on_c, 0, 79, 0
2, 7140, Note_on_c, 0, 77, 64
2, 7200, Note_on_c, 0, 77, 0
2, 7200, Note_on_c, 0, 76, 64
2, 7320, Note_on_c, 0, 76, 0
2, 7320, Note_on_c, 0, 81, 64
2, 7500, Note_on_c, 0, 81, 0
2, 7500, Note_on_c, 0, 83, 64
2, 7560, Note_on_c, 0, 83, 0
2, 7560, Note_on_c, 0, 81, 64
2, 7620, Note_on_c, 0, 81, 0
2, 7620, Note_on_c, 0, 79, 64
2, 7680, Note_on_c, 0, 79, 0
2, 7680, Note_on_c, 0, 77, 64
2, 8160, Note_on_c, 0, 77, 0
2, 8160, Note_on_c, 0, 76, 64
2, 8340, Note_on_c, 0, 76, 0
2, 8340, Note_on_c, 0, 78, 64
2, 8400, Note_on_c, 0, 78, 0
2, 8400, Note_on_c, 0, 79, 64
2, 8880, Note_on_c, 0, 79, 0
2, 8880, Note_on_c, 0, 78, 64
2, 9120, Note_on_c, 0, 78, 0
2, 9120, Note_on_c, 0, 79, 64
2, 9180, Note_on_c, 0, 79, 0
2, 9180, Note_on_c, 0, 77, 64
2, 9240, Note_on_c, 0, 77, 0
2, 9240, Note_on_c, 0, 76, 64
2, 9300, Note_on_c, 0, 76, 0
2, 9300, Note_on_c, 0, 74, 64
2, 9360, Note_on_c, 0, 74, 0
2, 9360, Note_on_c, 0, 72, 64
2, 9420, Note_on_c, 0, 72, 0
2, 9420, Note_on_c, 0, 74, 64
2, 9480, Note_on_c, 0, 74, 0
2, 9480, Note_on_c, 0, 72, 64
2, 9540, Note_on_c, 0, 72, 0
2, 9540, Note_on_c, 0, 71, 64
2, 9600, Note_on_c, 0, 71, 0
2, 9600, Note_on_c, 0, 69, 64
2, 9660, Note_on_c, 0, 69, 0
2, 9660, Note_on_c, 0, 72, 64
2, 9720, Note_on_c, 0, 72, 0
2, 9720, Note_on_c, 0, 71, 64
2, 9780, Note_on_c, 0, 71, 0
2, 9780, Note_on_c, 0, 69, 64
2, 9840, Note_on_c, 0, 69, 0
2, 10140, Note_on_c, 0, 72, 64
2, 10200, Note_on_c, 0, 72, 0
2, 10260, Note_on_c, 0, 69, 64
2, 10320, Note_on_c, 0, 69, 0
2, 10320, Note_on_c, 0, 68, 64
2, 10440, Note_on_c, 0, 68, 0
2, 10440, Note_on_c, 0, 76, 64
2, 10560, Note_on_c, 0, 76, 0
2, 10560, Note_on_c, 0, 74, 64
2, 10680, Note_on_c, 0, 74, 0
2, 10680, Note_on_c, 0, 72, 64
2, 10740, Note_on_c, 0, 72, 0
2, 10740, Note_on_c, 0, 71, 64
2, 10800, Note_on_c, 0, 71, 0
2, 10800, Note_on_c, 0, 69, 64
2, 10860, Note_on_c, 0, 69, 0
2, 10860, Note_on_c, 0, 68, 64
2, 10920, Note_on_c, 0, 68, 0
2, 10920, Note_on_c, 0, 69, 64
2, 10980, Note_on_c, 0, 69, 0
2, 10980, Note_on_c, 0, 71, 64
2, 11040, Note_on_c, 0, 71, 0
2, 11040, Note_on_c, 0, 72, 64
2, 11100, Note_on_c, 0, 72, 0
2, 11100, Note_on_c, 0, 66, 64
2, 11160, Note_on_c, 0, 66, 0
2, 11160, Note_on_c, 0, 68, 64
2, 11220, Note_on_c, 0, 68, 0
2, 11220, Note_on_c, 0, 69, 64
2, 11280, Note_on_c, 0, 69, 0
2, 11280, Note_on_c, 0, 71, 64
2, 11400, Note_on_c, 0, 71, 0
2, 11400, Note_on_c, 0, 69, 64
2, 11460, Note_on_c, 0, 69, 0
2, 11460, Note_on_c, 0, 71, 64
2, 11520, Note_on_c, 0, 71, 0
2, 11520, Note_on_c, 0, 72, 64
2, 11640, Note_on_c, 0, 72, 0
2, 11640, Note_on_c, 0, 77, 64
2, 11760, Note_on_c, 0, 77, 0
2, 11760, Note_on_c, 0, 76, 64
2, 11880, Note_on_c, 0, 76, 0
2, 11880, Note_on_c, 0, 74, 64
2, 12120, Note_on_c, 0, 74, 0
2, 12120, Note_on_c, 0, 72, 64
2, 12180, Note_on_c, 0, 72, 0
2, 12180, Note_on_c, 0, 71, 64
2, 12240, Note_on_c, 0, 71, 0
2, 12240, Note_on_c, 0, 72, 64
2, 12255, Note_on_c, 0, 72, 0
2, 12255, Note_on_c, 0, 71, 64
2, 12270, Note_on_c, 0, 71, 0
2, 12270, Note_on_c, 0, 72, 64
2, 12285, Note_on_c, 0, 72, 0
2, 12285, Note_on_c, 0, 71, 64
2, 12300, Note_on_c, 0, 71, 0
2, 12300, Note_on_c, 0, 72, 64
2, 12315, Note_on_c, 0, 72, 0
2, 12315, Note_on_c, 0, 71, 64
2, 12330, Note_on_c, 0, 71, 0
2, 12330, Note_on_c, 0, 72, 64
2, 12345, Note_on_c, 0, 72, 0
2, 12345, Note_on_c, 0, 71, 64
2, 12360, Note_on_c, 0, 71, 0
2, 12360, Note_on_c, 0, 72, 64
2, 12375, Note_on_c, 0, 72, 0
2, 12375, Note_on_c, 0, 71, 64
2, 12420, Note_on_c, 0, 71, 0
2, 12420, Note_on_c, 0, 69, 64
2, 12470, Note_on_c, 0, 69, 0
2, 12480, Note_on_c, 0, 69, 64
2, 12720, Note_on_c, 0, 69, 0
2, 14040, Note_on_c, 0, 67, 64
2, 14160, Note_on_c, 0, 67, 0
2, 14160, Note_on_c, 0, 69, 64
2, 14280, Note_on_c, 0, 69, 0
2, 14280, Note_on_c, 0, 71, 64
2, 14400, Note_on_c, 0, 71, 0
2, 14400, Note_on_c, 0, 72, 64
2, 14580, Note_on_c, 0, 72, 0
2, 14580, Note_on_c, 0, 74, 64
2, 14610, Note_on_c, 0, 74, 0
2, 14612, Note_on_c, 0, 72, 64
2, 14640, Note_on_c, 0, 71, 64
2, 14642, Note_on_c, 0, 72, 0
2, 14760, Note_on_c, 0, 71, 0
2, 14760, Note_on_c, 0, 72, 64
2, 14880, Note_on_c, 0, 72, 0
2, 14880, Note_on_c, 0, 74, 64
2, 15000, Note_on_c, 0, 74, 0
2, 15000, Note_on_c, 0, 76, 64
2, 15120, Note_on_c, 0, 76, 0
2, 15120, Note_on_c, 0, 77, 64
2, 15300, Note_on_c, 0, 77, 0
2, 15300, Note_on_c, 0, 79, 64
2, 15330, Note_on_c, 0, 79, 0
2, 15332, Note_on_c, 0, 77, 64
2, 15360, Note_on_c, 0, 76, 64
2, 15362, Note_on_c, 0, 77, 0
2, 15480, Note_on_c, 0, 76, 0
2, 15480, Note_on_c, 0, 81, 64
2, 15600, Note_on_c, 0, 81, 0
2, 15600, Note_on_c, 0, 74, 64
2, 15720, Note_on_c, 0, 74, 0
2, 15720, Note_on_c, 0, 79, 64
2, 15900, Note_on_c, 0, 79, 0
2, 15900, Note_on_c, 0, 81, 64
2, 15960, Note_on_c, 0, 81, 0
2, 15960, Note_on_c, 0, 79, 64
2, 16020, Note_on_c, 0, 79, 0
2, 16020, Note_on_c, 0, 77, 64
2, 16080, Note_on_c, 0, 77, 0
2, 16080, Note_on_c, 0, 76, 64
2, 16200, Note_on_c, 0, 76, 0
2, 16200, Note_on_c, 0, 81, 64
2, 16320, Note_on_c, 0, 81, 0
2, 16320, Note_on_c, 0, 74, 64
2, 16440, Note_on_c, 0, 74, 0
2, 16440, Note_on_c, 0, 82, 64
2, 16560, Note_on_c, 0, 82, 0
2, 16560, Note_on_c, 0, 81, 64
2, 16680, Note_on_c, 0, 81, 0
2, 16680, Note_on_c, 0, 79, 64
2, 16740, Note_on_c, 0, 79, 0
2, 16740, Note_on_c, 0, 77, 64
2, 16800, Note_on_c, 0, 77, 0
2, 16800, Note_on_c, 0, 79, 64
2, 16860, Note_on_c, 0, 79, 0
2, 16860, Note_on_c, 0, 77, 64
2, 16920, Note_on_c, 0, 77, 0
2, 16920, Note_on_c, 0, 79, 64
2, 16980, Note_on_c, 0, 79, 0
2, 16980, Note_on_c, 0, 76, 64
2, 17040, Note_on_c, 0, 76, 0
2, 17040, Note_on_c, 0, 77, 64
2, 17100, Note_on_c, 0, 77, 0
2, 17100, Note_on_c, 0, 79, 64
2, 17155, Note_on_c, 0, 79, 0
2, 17160, Note_on_c, 0, 79, 64
2, 17170, Note_on_c, 0, 81, 64
2, 17175, Note_on_c, 0, 79, 0
2, 17184, Note_on_c, 0, 79, 64
2, 17185, Note_on_c, 0, 81, 0
2, 17214, Note_on_c, 0, 79, 0
2, 17220, Note_on_c, 0, 77, 64
2, 17250, Note_on_c, 0, 77, 0
2, 17252, Note_on_c, 0, 79, 64
2, 17280, Note_on_c, 0, 81, 64
2, 17282, Note_on_c, 0, 79, 0
2, 17340, Note_on_c, 0, 81, 0
2, 17340, Note_on_c, 0, 73, 64
2, 17400, Note_on_c, 0, 73, 0
2, 17400, Note_on_c, 0, 74, 64
2, 17460, Note_on_c, 0, 74, 0
2, 17460, Note_on_c, 0, 79, 64
2, 17520, Note_on_c, 0, 79, 0
2, 17520, Note_on_c, 0, 77, 64
2, 17532, Note_on_c, 0, 76, 64
2, 17535, Note_on_c, 0, 77, 0
2, 17546, Note_on_c, 0, 77, 64
2, 17547, Note_on_c, 0, 76, 0
2, 17560, Note_on_c, 0, 76, 64
2, 17561, Note_on_c, 0, 77, 0
2, 17574, Note_on_c, 0, 77, 64
2, 17575, Note_on_c, 0, 76, 0
2, 17588, Note_on_c, 0, 76, 64
2, 17589, Note_on_c, 0, 77, 0
2, 17688, Note_on_c, 0, 76, 0
2, 17700, Note_on_c, 0, 74, 64
2, 17750, Note_on_c, 0, 74, 0
2, 17760, Note_on_c, 0, 74, 64
2, 17908, Note_on_c, 0, 74, 0
2, 19080, Note_on_c, 0, 67, 64
2, 19200, Note_on_c, 0, 67, 0
2, 19200, Note_on_c, 0, 69, 64
2, 19320, Note_on_c, 0, 69, 0
2, 19320, Note_on_c, 0, 71, 64
2, 19440, Note_on_c, 0, 71, 0
2, 19440, Note_on_c, 0, 72, 64
2, 19587, Note_on_c, 0, 72, 0
2, 19620, Note_on_c, 0, 74, 64
2, 19650, Note_on_c, 0, 74, 0
2, 19652, Note_on_c, 0, 72, 64
2, 19680, Note_on_c, 0, 71, 64
2, 19682, Note_on_c, 0, 72, 0
2, 19800, Note_on_c, 0, 71, 0
2, 19800, Note_on_c, 0, 76, 64
2, 19920, Note_on_c, 0, 76, 0
2, 19920, Note_on_c, 0, 69, 64
2, 20040, Note_on_c, 0, 69, 0
2, 20040, Note_on_c, 0, 74, 64
2, 20210, Note_on_c, 0, 74, 0
2, 20220, Note_on_c, 0, 76, 64
2, 20280, Note_on_c, 0, 76, 0
2, 20280, Note_on_c, 0, 74, 64
2, 20340, Note_on_c, 0, 74, 0
2, 20340, Note_on_c, 0, 72, 64
2, 20400, Note_on_c, 0, 72, 0
2, 20400, Note_on_c, 0, 71, 64
2, 20460, Note_on_c, 0, 71, 0
2, 20460, Note_on_c, 0, 72, 64
2, 20520, Note_on_c, 0, 72, 0
2, 20520, Note_on_c, 0, 74, 64
2, 20580, Note_on_c, 0, 74, 0
2, 20580, Note_on_c, 0, 76, 64
2, 20640, Note_on_c, 0, 76, 0
2, 20640, Note_on_c, 0, 77, 64
2, 20700, Note_on_c, 0, 77, 0
2, 20700, Note_on_c, 0, 79, 64
2, 20760, Note_on_c, 0, 79, 0
2, 20760, Note_on_c, 0, 81, 64
2, 20820, Note_on_c, 0, 81, 0
2, 20820, Note_on_c, 0, 79, 64
2, 20880, Note_on_c, 0, 79, 0
2, 20880, Note_on_c, 0, 77, 64
2, 20940, Note_on_c, 0, 77, 0
2, 20940, Note_on_c, 0, 76, 64
2, 21000, Note_on_c, 0, 76, 0
2, 21000, Note_on_c, 0, 74, 64
2, 21060, Note_on_c, 0, 74, 0
2, 21060, Note_on_c, 0, 72, 64
2, 21120, Note_on_c, 0, 72, 0
2, 21120, Note_on_c, 0, 72, 64
2, 21132, Note_on_c, 0, 71, 64
2, 21135, Note_on_c, 0, 72, 0
2, 21146, Note_on_c, 0, 72, 64
2, 21147, Note_on_c, 0, 71, 0
2, 21160, Note_on_c, 0, 71, 64
2, 21161, Note_on_c, 0, 72, 0
2, 21340, Note_on_c, 0, 71, 0
2, 21360, Note_on_c, 0, 72, 64
2, 21480, Note_on_c, 0, 72, 0
2, 21480, Note_on_c, 0, 74, 64
2, 21600, Note_on_c, 0, 74, 0
2, 21600, Note_on_c, 0, 67, 64
2, 21720, Note_on_c, 0, 67, 0
2, 21720, Note_on_c, 0, 72, 64
2, 21950, Note_on_c, 0, 72, 0
2, 21960, Note_on_c, 0, 71, 64
2, 22080, Note_on_c, 0, 71, 0
2, 22080, Note_on_c, 0, 72, 64
2, 22320, Note_on_c, 0, 72, 0
2, 22320, Note_on_c, 0, 71, 64
2, 22440, Note_on_c, 0, 71, 0
2, 22440, Note_on_c, 0, 70, 64
2, 22560, Note_on_c, 0, 70, 0
2, 22560, Note_on_c, 0, 69, 64
2, 22680, Note_on_c, 0, 69, 0
2, 22680, Note_on_c, 0, 74, 64
2, 22910, Note_on_c, 0, 74, 0
2, 22920, Note_on_c, 0, 72, 64
2, 23040, Note_on_c, 0, 72, 0
2, 23040, Note_on_c, 0, 74, 64
2, 23160, Note_on_c, 0, 74, 0
2, 23160, Note_on_c, 0, 76, 64
2, 23280, Note_on_c, 0, 76, 0
2, 23280, Note_on_c, 0, 77, 64
2, 23548, Note_on_c, 0, 77, 0
2, 23580, Note_on_c, 0, 81, 64
2, 23618, Note_on_c, 0, 81, 0
2, 23640, Note_on_c, 0, 79, 64
2, 23676, Note_on_c, 0, 79, 0
2, 23700, Note_on_c, 0, 77, 64
2, 23741, Note_on_c, 0, 77, 0
2, 23760, Note_on_c, 0, 76, 64
2, 23804, Note_on_c, 0, 76, 0
2, 23820, Note_on_c, 0, 77, 64
2, 23861, Note_on_c, 0, 77, 0
2, 23880, Note_on_c, 0, 76, 64
2, 23918, Note_on_c, 0, 76, 0
2, 23940, Note_on_c, 0, 74, 64
2, 23979, Note_on_c, 0, 74, 0
2, 24000, Note_on_c, 0, 72, 64
2, 24480, Note_on_c, 0, 72, 0
2, 24540, Note_on_c, 0, 67, 64
2, 24570, Note_on_c, 0, 67, 0
2, 24570, Note_on_c, 0, 69, 64
2, 24600, Note_on_c, 0, 69, 0
2, 24600, Note_on_c, 0, 71, 64
2, 24660, Note_on_c, 0, 71, 0
2, 24660, Note_on_c, 0, 72, 64
2, 24720, Note_on_c, 0, 72, 0
2, 24720, Note_on_c, 0, 74, 64
2, 24780, Note_on_c, 0, 74, 0
2, 24780, Note_on_c, 0, 76, 64
2, 24840, Note_on_c, 0, 76, 0
2, 24840, Note_on_c, 0, 77, 64
2, 24990, Note_on_c, 0, 77, 0
2, 24990, Note_on_c, 0, 72, 64
2, 25020, Note_on_c, 0, 72, 0
2, 25020, Note_on_c, 0, 74, 64
2, 25050, Note_on_c, 0, 74, 0
2, 25050, Note_on_c, 0, 76, 64
2, 25080, Note_on_c, 0, 76, 0
2, 25080, Note_on_c, 0, 77, 64
2, 25138, Note_on_c, 0, 79, 64
2, 25140, Note_on_c, 0, 77, 0
2, 25198, Note_on_c, 0, 79, 0
2, 25200, Note_on_c, 0, 81, 64
2, 25370, Note_on_c, 0, 81, 0
2, 25380, Note_on_c, 0, 83, 64
2, 25440, Note_on_c, 0, 83, 0
2, 25440, Note_on_c, 0, 84, 64
2, 25920, Note_on_c, 0, 84, 0
2, 25920, End_track
3, 0, Start_track
3, 0, MIDI_port, 0
3, 0, Title_t, "2"
3, 0, Program_c, 1, 6
3, 120, Note_on_c, 1, 60, 64
3, 240, Note_on_c, 1, 60, 0
3, 240, Note_on_c, 1, 62, 64
3, 360, Note_on_c, 1, 62, 0
3, 360, Note_on_c, 1, 64, 64
3, 480, Note_on_c, 1, 64, 0
3, 480, Note_on_c, 1, 65, 64
3, 660, Note_on_c, 1, 65, 0
3, 660, Note_on_c, 1, 67, 64
3, 690, Note_on_c, 1, 67, 0
3, 692, Note_on_c, 1, 65, 64
3, 720, Note_on_c, 1, 64, 64
3, 722, Note_on_c, 1, 65, 0
3, 840, Note_on_c, 1, 64, 0
3, 840, Note_on_c, 1, 69, 64
3, 960, Note_on_c, 1, 69, 0
3, 960, Note_on_c, 1, 62, 64
3, 1080, Note_on_c, 1, 62, 0
3, 1080, Note_on_c, 1, 67, 64
3, 1247, Note_on_c, 1, 67, 0
3, 1260, Note_on_c, 1, 69, 64
3, 1320, Note_on_c, 1, 69, 0
3, 1320, Note_on_c, 1, 67, 64
3, 1380, Note_on_c, 1, 67, 0
3, 1380, Note_on_c, 1, 65, 64
3, 1440, Note_on_c, 1, 65, 0
3, 1440, Note_on_c, 1, 64, 64
3, 1500, Note_on_c, 1, 64, 0
3, 1500, Note_on_c, 1, 65, 64
3, 1560, Note_on_c, 1, 65, 0
3, 1560, Note_on_c, 1, 64, 64
3, 1620, Note_on_c, 1, 64, 0
3, 1620, Note_on_c, 1, 62, 64
3, 1680, Note_on_c, 1, 62, 0
3, 1680, Note_on_c, 1, 60, 64
3, 1740, Note_on_c, 1, 60, 0
3, 1740, Note_on_c, 1, 62, 64
3, 1800, Note_on_c, 1, 62, 0
3, 1800, Note_on_c, 1, 60, 64
3, 1860, Note_on_c, 1, 60, 0
3, 1860, Note_on_c, 1, 59, 64
3, 1920, Note_on_c, 1, 59, 0
3, 1920, Note_on_c, 1, 57, 64
3, 2040, Note_on_c, 1, 57, 0
3, 2040, Note_on_c, 1, 66, 64
3, 2160, Note_on_c, 1, 66, 0
3, 2160, Note_on_c, 1, 67, 64
3, 2483, Note_on_c, 1, 67, 0
3, 2520, Note_on_c, 1, 65, 64
3, 2580, Note_on_c, 1, 65, 0
3, 2580, Note_on_c, 1, 64, 64
3, 2640, Note_on_c, 1, 64, 0
3, 2640, Note_on_c, 1, 65, 64
3, 2760, Note_on_c, 1, 65, 0
3, 2760, Note_on_c, 1, 62, 64
3, 2880, Note_on_c, 1, 62, 0
3, 2880, Note_on_c, 1, 67, 64
3, 3000, Note_on_c, 1, 67, 0
3, 3000, Note_on_c, 1, 65, 64
3, 3120, Note_on_c, 1, 65, 0
3, 3120, Note_on_c, 1, 64, 64
3, 3240, Note_on_c, 1, 64, 0
3, 3240, Note_on_c, 1, 62, 64
3, 3360, Note_on_c, 1, 62, 0
3, 3720, Note_on_c, 1, 67, 64
3, 3960, Note_on_c, 1, 67, 0
3, 3960, Note_on_c, 1, 65, 64
3, 4020, Note_on_c, 1, 65, 0
3, 4020, Note_on_c, 1, 64, 64
3, 4080, Note_on_c, 1, 64, 0
3, 4080, Note_on_c, 1, 65, 64
3, 4360, Note_on_c, 1, 65, 0
3, 4380, Note_on_c, 1, 65, 64
3, 4440, Note_on_c, 1, 65, 0
3, 4440, Note_on_c, 1, 64, 64
3, 4560, Note_on_c, 1, 64, 0
3, 4560, Note_on_c, 1, 62, 64
3, 4800, Note_on_c, 1, 62, 0
3, 4800, Note_on_c, 1, 60, 64
3, 4920, Note_on_c, 1, 60, 0
3, 4920, Note_on_c, 1, 65, 64
3, 5040, Note_on_c, 1, 65, 0
3, 5100, Note_on_c, 1, 67, 64
3, 5160, Note_on_c, 1, 67, 0
3, 5160, Note_on_c, 1, 65, 64
3, 5220, Note_on_c, 1, 65, 0
3, 5220, Note_on_c, 1, 64, 64
3, 5280, Note_on_c, 1, 64, 0
3, 5280, Note_on_c, 1, 65, 64
3, 5400, Note_on_c, 1, 65, 0
3, 5400, Note_on_c, 1, 62, 64
3, 5520, Note_on_c, 1, 62, 0
3, 5520, Note_on_c, 1, 67, 64
3, 6001, Note_on_c, 1, 67, 0
3, 7800, Note_on_c, 1, 67, 64
3, 7920, Note_on_c, 1, 67, 0
3, 7920, Note_on_c, 1, 69, 64
3, 8040, Note_on_c, 1, 69, 0
3, 8040, Note_on_c, 1, 71, 64
3, 8160, Note_on_c, 1, 71, 0
3, 8160, Note_on_c, 1, 72, 64
3, 8330, Note_on_c, 1, 72, 0
3, 8340, Note_on_c, 1, 74, 64
3, 8370, Note_on_c, 1, 74, 0
3, 8372, Note_on_c, 1, 72, 64
3, 8400, Note_on_c, 1, 71, 64
3, 8402, Note_on_c, 1, 72, 0
3, 8520, Note_on_c, 1, 71, 0
3, 8520, Note_on_c, 1, 76, 64
3, 8640, Note_on_c, 1, 76, 0
3, 8640, Note_on_c, 1, 69, 64
3, 8760, Note_on_c, 1, 69, 0
3, 8760, Note_on_c, 1, 74, 64
3, 8924, Note_on_c, 1, 74, 0
3, 8940, Note_on_c, 1, 76, 64
3, 9000, Note_on_c, 1, 76, 0
3, 9000, Note_on_c, 1, 74, 64
3, 9060, Note_on_c, 1, 74, 0
3, 9060, Note_on_c, 1, 72, 64
3, 9120, Note_on_c, 1, 72, 0
3, 9120, Note_on_c, 1, 71, 64
3, 9241, Note_on_c, 1, 71, 0
3, 9480, Note_on_c, 1, 62, 64
3, 9600, Note_on_c, 1, 62, 0
3, 9600, Note_on_c, 1, 64, 64
3, 9720, Note_on_c, 1, 64, 0
3, 9720, Note_on_c, 1, 66, 64
3, 9840, Note_on_c, 1, 66, 0
3, 9840, Note_on_c, 1, 67, 64
3, 10010, Note_on_c, 1, 67, 0
3, 10020, Note_on_c, 1, 69, 64
3, 10050, Note_on_c, 1, 69, 0
3, 10052, Note_on_c, 1, 67, 64
3, 10080, Note_on_c, 1, 65, 64
3, 10082, Note_on_c, 1, 67, 0
3, 10200, Note_on_c, 1, 65, 0
3, 10200, Note_on_c, 1, 71, 64
3, 10320, Note_on_c, 1, 71, 0
3, 10320, Note_on_c, 1, 64, 64
3, 10440, Note_on_c, 1, 64, 0
3, 10440, Note_on_c, 1, 69, 64
3, 10620, Note_on_c, 1, 69, 0
3, 10620, Note_on_c, 1, 71, 64
3, 10680, Note_on_c, 1, 71, 0
3, 10680, Note_on_c, 1, 69, 64
3, 10740, Note_on_c, 1, 69, 0
3, 10740, Note_on_c, 1, 68, 64
3, 10800, Note_on_c, 1, 68, 0
3, 10800, Note_on_c, 1, 66, 64
3, 10920, Note_on_c, 1, 66, 0
3, 10920, Note_on_c, 1, 65, 64
3, 11040, Note_on_c, 1, 65, 0
3, 11040, Note_on_c, 1, 64, 64
3, 11160, Note_on_c, 1, 64, 0
3, 11160, Note_on_c, 1, 62, 64
3, 11340, Note_on_c, 1, 62, 0
3, 11340, Note_on_c, 1, 64, 64
3, 11400, Note_on_c, 1, 64, 0
3, 11400, Note_on_c, 1, 66, 64
3, 11460, Note_on_c, 1, 66, 0
3, 11460, Note_on_c, 1, 68, 64
3, 11520, Note_on_c, 1, 68, 0
3, 11520, Note_on_c, 1, 69, 64
3, 11580, Note_on_c, 1, 69, 0
3, 11580, Note_on_c, 1, 68, 64
3, 11640, Note_on_c, 1, 68, 0
3, 11640, Note_on_c, 1, 69, 64
3, 11700, Note_on_c, 1, 69, 0
3, 11700, Note_on_c, 1, 71, 64
3, 11760, Note_on_c, 1, 71, 0
3, 11760, Note_on_c, 1, 68, 64
3, 11820, Note_on_c, 1, 68, 0
3, 11820, Note_on_c, 1, 66, 64
3, 11880, Note_on_c, 1, 66, 0
3, 11880, Note_on_c, 1, 68, 64
3, 11940, Note_on_c, 1, 68, 0
3, 11940, Note_on_c, 1, 69, 64
3, 12000, Note_on_c, 1, 69, 0
3, 12000, Note_on_c, 1, 71, 64
3, 12120, Note_on_c, 1, 71, 0
3, 12600, Note_on_c, 1, 60, 64
3, 12720, Note_on_c, 1, 60, 0
3, 12720, Note_on_c, 1, 62, 64
3, 12840, Note_on_c, 1, 62, 0
3, 12840, Note_on_c, 1, 64, 64
3, 12960, Note_on_c, 1, 64, 0
3, 12960, Note_on_c, 1, 65, 64
3, 13130, Note_on_c, 1, 65, 0
3, 13140, Note_on_c, 1, 67, 64
3, 13170, Note_on_c, 1, 67, 0
3, 13172, Note_on_c, 1, 65, 64
3, 13200, Note_on_c, 1, 64, 64
3, 13202, Note_on_c, 1, 65, 0
3, 13320, Note_on_c, 1, 64, 0
3, 13320, Note_on_c, 1, 69, 64
3, 13440, Note_on_c, 1, 69, 0
3, 13440, Note_on_c, 1, 62, 64
3, 13560, Note_on_c, 1, 62, 0
3, 13560, Note_on_c, 1, 67, 64
3, 13740, Note_on_c, 1, 67, 0
3, 13740, Note_on_c, 1, 69, 64
3, 13800, Note_on_c, 1, 69, 0
3, 13800, Note_on_c, 1, 67, 64
3, 13860, Note_on_c, 1, 67, 0
3, 13860, Note_on_c, 1, 65, 64
3, 13920, Note_on_c, 1, 65, 0
3, 13920, Note_on_c, 1, 64, 64
3, 14001, Note_on_c, 1, 64, 0
3, 14040, Note_on_c, 1, 64, 64
3, 14128, Note_on_c, 1, 64, 0
3, 14160, Note_on_c, 1, 66, 64
3, 14242, Note_on_c, 1, 66, 0
3, 14280, Note_on_c, 1, 67, 64
3, 14491, Note_on_c, 1, 67, 0
3, 14520, Note_on_c, 1, 66, 64
3, 14640, Note_on_c, 1, 66, 0
3, 14640, Note_on_c, 1, 68, 64
3, 14760, Note_on_c, 1, 68, 0
3, 14760, Note_on_c, 1, 69, 64
3, 14990, Note_on_c, 1, 69, 0
3, 15000, Note_on_c, 1, 67, 64
3, 15120, Note_on_c, 1, 67, 0
3, 15120, Note_on_c, 1, 69, 64
3, 15240, Note_on_c, 1, 69, 0
3, 15240, Note_on_c, 1, 71, 64
3, 15360, Note_on_c, 1, 71, 0
3, 15360, Note_on_c, 1, 72, 64
3, 15514, Note_on_c, 1, 72, 0
3, 15540, Note_on_c, 1, 74, 64
3, 15570, Note_on_c, 1, 74, 0
3, 15572, Note_on_c, 1, 72, 64
3, 15600, Note_on_c, 1, 71, 64
3, 15602, Note_on_c, 1, 72, 0
3, 15691, Note_on_c, 1, 71, 0
3, 15720, Note_on_c, 1, 76, 64
3, 15840, Note_on_c, 1, 76, 0
3, 15840, Note_on_c, 1, 69, 64
3, 15960, Note_on_c, 1, 69, 0
3, 15960, Note_on_c, 1, 74, 64
3, 16140, Note_on_c, 1, 74, 0
3, 16140, Note_on_c, 1, 76, 64
3, 16200, Note_on_c, 1, 76, 0
3, 16200, Note_on_c, 1, 74, 64
3, 16260, Note_on_c, 1, 74, 0
3, 16260, Note_on_c, 1, 72, 64
3, 16320, Note_on_c, 1, 72, 0
3, 16320, Note_on_c, 1, 71, 64
3, 16440, Note_on_c, 1, 71, 0
3, 16440, Note_on_c, 1, 79, 64
3, 16560, Note_on_c, 1, 79, 0
3, 16560, Note_on_c, 1, 73, 64
3, 16680, Note_on_c, 1, 73, 0
3, 16680, Note_on_c, 1, 74, 64
3, 16800, Note_on_c, 1, 74, 0
3, 16800, Note_on_c, 1, 76, 64
3, 16920, Note_on_c, 1, 76, 0
3, 16920, Note_on_c, 1, 73, 64
3, 17040, Note_on_c, 1, 73, 0
3, 17040, Note_on_c, 1, 74, 64
3, 17160, Note_on_c, 1, 74, 0
3, 17160, Note_on_c, 1, 76, 64
3, 17280, Note_on_c, 1, 76, 0
3, 17280, Note_on_c, 1, 69, 64
3, 17400, Note_on_c, 1, 69, 0
3, 17640, Note_on_c, 1, 64, 64
3, 17760, Note_on_c, 1, 64, 0
3, 17760, Note_on_c, 1, 66, 64
3, 17880, Note_on_c, 1, 66, 0
3, 17880, Note_on_c, 1, 67, 64
3, 18000, Note_on_c, 1, 67, 0
3, 18000, Note_on_c, 1, 69, 64
3, 18170, Note_on_c, 1, 69, 0
3, 18180, Note_on_c, 1, 71, 64
3, 18210, Note_on_c, 1, 71, 0
3, 18212, Note_on_c, 1, 69, 64
3, 18240, Note_on_c, 1, 67, 64
3, 18242, Note_on_c, 1, 69, 0
3, 18360, Note_on_c, 1, 67, 0
3, 18360, Note_on_c, 1, 72, 64
3, 18480, Note_on_c, 1, 72, 0
3, 18480, Note_on_c, 1, 66, 64
3, 18600, Note_on_c, 1, 66, 0
3, 18600, Note_on_c, 1, 71, 64
3, 18768, Note_on_c, 1, 71, 0
3, 18780, Note_on_c, 1, 72, 64
3, 18840, Note_on_c, 1, 72, 0
3, 18840, Note_on_c, 1, 71, 64
3, 18900, Note_on_c, 1, 71, 0
3, 18900, Note_on_c, 1, 69, 64
3, 18960, Note_on_c, 1, 69, 0
3, 18960, Note_on_c, 1, 67, 64
3, 19020, Note_on_c, 1, 67, 0
3, 19020, Note_on_c, 1, 66, 64
3, 19080, Note_on_c, 1, 66, 0
3, 19080, Note_on_c, 1, 64, 64
3, 19140, Note_on_c, 1, 64, 0
3, 19140, Note_on_c, 1, 62, 64
3, 19200, Note_on_c, 1, 62, 0
3, 19200, Note_on_c, 1, 64, 64
3, 19440, Note_on_c, 1, 64, 0
3, 19440, Note_on_c, 1, 62, 64
3, 19730, Note_on_c, 1, 62, 0
3, 19740, Note_on_c, 1, 69, 64
3, 19800, Note_on_c, 1, 69, 0
3, 19800, Note_on_c, 1, 67, 64
3, 19860, Note_on_c, 1, 67, 0
3, 19860, Note_on_c, 1, 65, 64
3, 19920, Note_on_c, 1, 65, 0
3, 19920, Note_on_c, 1, 64, 64
3, 19980, Note_on_c, 1, 64, 0
3, 19980, Note_on_c, 1, 67, 64
3, 20040, Note_on_c, 1, 67, 0
3, 20040, Note_on_c, 1, 65, 64
3, 20100, Note_on_c, 1, 65, 0
3, 20100, Note_on_c, 1, 69, 64
3, 20160, Note_on_c, 1, 69, 0
3, 20160, Note_on_c, 1, 67, 64
3, 20450, Note_on_c, 1, 67, 0
3, 20460, Note_on_c, 1, 69, 64
3, 20520, Note_on_c, 1, 69, 0
3, 20520, Note_on_c, 1, 70, 64
3, 20640, Note_on_c, 1, 70, 0
3, 20640, Note_on_c, 1, 72, 64
3, 20860, Note_on_c, 1, 72, 0
3, 20880, Note_on_c, 1, 74, 64
3, 21000, Note_on_c, 1, 74, 0
3, 21000, Note_on_c, 1, 67, 64
3, 21120, Note_on_c, 1, 67, 0
3, 21120, Note_on_c, 1, 67, 64
3, 21470, Note_on_c, 1, 67, 0
3, 21480, Note_on_c, 1, 65, 64
3, 21720, Note_on_c, 1, 65, 0
3, 21720, Note_on_c, 1, 64, 64
3, 21840, Note_on_c, 1, 64, 0
3, 21840, Note_on_c, 1, 62, 64
3, 22080, Note_on_c, 1, 62, 0
3, 22080, Note_on_c, 1, 64, 64
3, 22168, Note_on_c, 1, 64, 0
3, 22200, Note_on_c, 1, 69, 64
3, 22430, Note_on_c, 1, 69, 0
3, 22440, Note_on_c, 1, 67, 64
3, 22670, Note_on_c, 1, 67, 0
3, 22680, Note_on_c, 1, 65, 64
3, 22800, Note_on_c, 1, 65, 0
3, 22800, Note_on_c, 1, 67, 64
3, 22920, Note_on_c, 1, 67, 0
3, 22920, Note_on_c, 1, 69, 64
3, 23040, Note_on_c, 1, 69, 0
3, 23040, Note_on_c, 1, 70, 64
3, 23193, Note_on_c, 1, 70, 0
3, 23220, Note_on_c, 1, 72, 64
3, 23250, Note_on_c, 1, 72, 0
3, 23252, Note_on_c, 1, 70, 64
3, 23280, Note_on_c, 1, 69, 64
3, 23282, Note_on_c, 1, 70, 0
3, 23400, Note_on_c, 1, 69, 0
3, 23400, Note_on_c, 1, 74, 64
3, 23520, Note_on_c, 1, 74, 0
3, 23520, Note_on_c, 1, 67, 64
3, 23640, Note_on_c, 1, 67, 0
3, 23640, Note_on_c, 1, 72, 64
3, 23800, Note_on_c, 1, 72, 0
3, 23820, Note_on_c, 1, 74, 64
3, 23880, Note_on_c, 1, 74, 0
3, 23880, Note_on_c, 1, 72, 64
3, 23940, Note_on_c, 1, 72, 0
3, 23940, Note_on_c, 1, 70, 64
3, 24000, Note_on_c, 1, 70, 0
3, 24000, Note_on_c, 1, 69, 64
3, 24060, Note_on_c, 1, 69, 0
3, 24060, Note_on_c, 1, 70, 64
3, 24120, Note_on_c, 1, 70, 0
3, 24120, Note_on_c, 1, 69, 64
3, 24180, Note_on_c, 1, 69, 0
3, 24180, Note_on_c, 1, 67, 64
3, 24240, Note_on_c, 1, 67, 0
3, 24240, Note_on_c, 1, 65, 64
3, 24300, Note_on_c, 1, 65, 0
3, 24300, Note_on_c, 1, 67, 64
3, 24360, Note_on_c, 1, 67, 0
3, 24360, Note_on_c, 1, 65, 64
3, 24420, Note_on_c, 1, 65, 0
3, 24420, Note_on_c, 1, 64, 64
3, 24480, Note_on_c, 1, 64, 0
3, 24900, Note_on_c, 1, 67, 64
3, 24960, Note_on_c, 1, 67, 0
3, 24960, Note_on_c, 1, 69, 64
3, 25200, Note_on_c, 1, 69, 0
3, 25260, Note_on_c, 1, 77, 64
3, 25320, Note_on_c, 1, 77, 0
3, 25320, Note_on_c, 1, 74, 64
3, 25440, Note_on_c, 1, 74, 0
3, 25440, Note_on_c, 1, 79, 64
3, 25440, Note_on_c, 1, 76, 64
3, 25920, Note_on_c, 1, 76, 0
3, 25920, Note_on_c, 1, 79, 0
3, 25920, End_track
4, 0, Start_track
4, 0, MIDI_port, 0
4, 0, Title_t, "3"
4, 0, Program_c, 1, 6
4, 3000, Note_on_c, 1, 55, 64
4, 3120, Note_on_c, 1, 55, 0
4, 3120, Note_on_c, 1, 57, 64
4, 3240, Note_on_c, 1, 57, 0
4, 3240, Note_on_c, 1, 59, 64
4, 3360, Note_on_c, 1, 59, 0
4, 3360, Note_on_c, 1, 60, 64
4, 3540, Note_on_c, 1, 60, 0
4, 3540, Note_on_c, 1, 62, 64
4, 3570, Note_on_c, 1, 62, 0
4, 3572, Note_on_c, 1, 60, 64
4, 3600, Note_on_c, 1, 59, 64
4, 3602, Note_on_c, 1, 60, 0
4, 3720, Note_on_c, 1, 59, 0
4, 3720, Note_on_c, 1, 64, 64
4, 3840, Note_on_c, 1, 64, 0
4, 3840, Note_on_c, 1, 57, 64
4, 3960, Note_on_c, 1, 57, 0
4, 3960, Note_on_c, 1, 62, 64
4, 4130, Note_on_c, 1, 62, 0
4, 4140, Note_on_c, 1, 64, 64
4, 4200, Note_on_c, 1, 64, 0
4, 4200, Note_on_c, 1, 62, 64
4, 4260, Note_on_c, 1, 62, 0
4, 4260, Note_on_c, 1, 60, 64
4, 4320, Note_on_c, 1, 60, 0
4, 4320, Note_on_c, 1, 59, 64
4, 4440, Note_on_c, 1, 59, 0
4, 4440, Note_on_c, 1, 60, 64
4, 4680, Note_on_c, 1, 60, 0
4, 4680, Note_on_c, 1, 58, 64
4, 4800, Note_on_c, 1, 58, 0
4, 4800, Note_on_c, 1, 57, 64
4, 4920, Note_on_c, 1, 57, 0
4, 4920, Note_on_c, 1, 62, 64
4, 5040, Note_on_c, 1, 62, 0
4, 5040, Note_on_c, 1, 55, 64
4, 5160, Note_on_c, 1, 55, 0
4, 5160, Note_on_c, 1, 60, 64
4, 5280, Note_on_c, 1, 60, 0
4, 5340, Note_on_c, 1, 57, 64
4, 5400, Note_on_c, 1, 57, 0
4, 5400, Note_on_c, 1, 59, 64
4, 5460, Note_on_c, 1, 59, 0
4, 5460, Note_on_c, 1, 60, 64
4, 5520, Note_on_c, 1, 60, 0
4, 5520, Note_on_c, 1, 62, 64
4, 5760, Note_on_c, 1, 62, 0
4, 5760, Note_on_c, 1, 55, 64
4, 6000, Note_on_c, 1, 55, 0
4, 6120, Note_on_c, 1, 55, 64
4, 6240, Note_on_c, 1, 55, 0
4, 6240, Note_on_c, 1, 57, 64
4, 6360, Note_on_c, 1, 57, 0
4, 6360, Note_on_c, 1, 59, 64
4, 6480, Note_on_c, 1, 59, 0
4, 6480, Note_on_c, 1, 60, 64
4, 6660, Note_on_c, 1, 60, 0
4, 6660, Note_on_c, 1, 62, 64
4, 6688, Note_on_c, 1, 60, 64
4, 6690, Note_on_c, 1, 62, 0
4, 6718, Note_on_c, 1, 60, 0
4, 6720, Note_on_c, 1, 59, 64
4, 6840, Note_on_c, 1, 59, 0
4, 6840, Note_on_c, 1, 64, 64
4, 6960, Note_on_c, 1, 64, 0
4, 6960, Note_on_c, 1, 57, 64
4, 7080, Note_on_c, 1, 57, 0
4, 7080, Note_on_c, 1, 62, 64
4, 7260, Note_on_c, 1, 62, 0
4, 7260, Note_on_c, 1, 64, 64
4, 7320, Note_on_c, 1, 64, 0
4, 7320, Note_on_c, 1, 62, 64
4, 7380, Note_on_c, 1, 62, 0
4, 7380, Note_on_c, 1, 60, 64
4, 7440, Note_on_c, 1, 60, 0
4, 7440, Note_on_c, 1, 59, 64
4, 7560, Note_on_c, 1, 59, 0
4, 7560, Note_on_c, 1, 64, 64
4, 7920, Note_on_c, 1, 64, 0
4, 7920, Note_on_c, 1, 62, 64
4, 8160, Note_on_c, 1, 62, 0
4, 8220, Note_on_c, 1, 59, 64
4, 8280, Note_on_c, 1, 59, 0
4, 8280, Note_on_c, 1, 60, 64
4, 8340, Note_on_c, 1, 60, 0
4, 8340, Note_on_c, 1, 57, 64
4, 8400, Note_on_c, 1, 57, 0
4, 8400, Note_on_c, 1, 64, 64
4, 8460, Note_on_c, 1, 64, 0
4, 8460, Note_on_c, 1, 62, 64
4, 8520, Note_on_c, 1, 62, 0
4, 8520, Note_on_c, 1, 60, 64
4, 8580, Note_on_c, 1, 60, 0
4, 8580, Note_on_c, 1, 59, 64
4, 8640, Note_on_c, 1, 59, 0
4, 8640, Note_on_c, 1, 60, 64
4, 8700, Note_on_c, 1, 60, 0
4, 8700, Note_on_c, 1, 57, 64
4, 8760, Note_on_c, 1, 57, 0
4, 8760, Note_on_c, 1, 59, 64
4, 8820, Note_on_c, 1, 59, 0
4, 8820, Note_on_c, 1, 60, 64
4, 8880, Note_on_c, 1, 60, 0
4, 8880, Note_on_c, 1, 62, 64
4, 8940, Note_on_c, 1, 62, 0
4, 8940, Note_on_c, 1, 60, 64
4, 9000, Note_on_c, 1, 60, 0
4, 9000, Note_on_c, 1, 59, 64
4, 9060, Note_on_c, 1, 59, 0
4, 9060, Note_on_c, 1, 57, 64
4, 9120, Note_on_c, 1, 57, 0
4, 9120, Note_on_c, 1, 55, 64
4, 9360, Note_on_c, 1, 55, 0
4, 10680, Note_on_c, 1, 52, 64
4, 10800, Note_on_c, 1, 52, 0
4, 10800, Note_on_c, 1, 54, 64
4, 10920, Note_on_c, 1, 54, 0
4, 10920, Note_on_c, 1, 56, 64
4, 11040, Note_on_c, 1, 56, 0
4, 11040, Note_on_c, 1, 57, 64
4, 11220, Note_on_c, 1, 57, 0
4, 11220, Note_on_c, 1, 59, 64
4, 11250, Note_on_c, 1, 59, 0
4, 11252, Note_on_c, 1, 57, 64
4, 11280, Note_on_c, 1, 55, 64
4, 11282, Note_on_c, 1, 57, 0
4, 11400, Note_on_c, 1, 55, 0
4, 11400, Note_on_c, 1, 60, 64
4, 11520, Note_on_c, 1, 60, 0
4, 11520, Note_on_c, 1, 54, 64
4, 11640, Note_on_c, 1, 54, 0
4, 11640, Note_on_c, 1, 59, 64
4, 11820, Note_on_c, 1, 59, 0
4, 11820, Note_on_c, 1, 60, 64
4, 11880, Note_on_c, 1, 60, 0
4, 11880, Note_on_c, 1, 59, 64
4, 11940, Note_on_c, 1, 59, 0
4, 11940, Note_on_c, 1, 57, 64
4, 12000, Note_on_c, 1, 57, 0
4, 12000, Note_on_c, 1, 56, 64
4, 12120, Note_on_c, 1, 57, 64
4, 12122, Note_on_c, 1, 56, 0
4, 12359, Note_on_c, 1, 57, 0
4, 12360, Note_on_c, 1, 56, 64
4, 12480, Note_on_c, 1, 56, 0
4, 12480, Note_on_c, 1, 57, 64
4, 12720, Note_on_c, 1, 57, 0
4, 12840, Note_on_c, 1, 55, 64
4, 12960, Note_on_c, 1, 55, 0
4, 12960, Note_on_c, 1, 57, 64
4, 13080, Note_on_c, 1, 57, 0
4, 13080, Note_on_c, 1, 59, 64
4, 13200, Note_on_c, 1, 59, 0
4, 13200, Note_on_c, 1, 60, 64
4, 13380, Note_on_c, 1, 60, 0
4, 13380, Note_on_c, 1, 62, 64
4, 13410, Note_on_c, 1, 62, 0
4, 13412, Note_on_c, 1, 60, 64
4, 13440, Note_on_c, 1, 59, 64
4, 13442, Note_on_c, 1, 60, 0
4, 13560, Note_on_c, 1, 59, 0
4, 13560, Note_on_c, 1, 64, 64
4, 13680, Note_on_c, 1, 64, 0
4, 13680, Note_on_c, 1, 57, 64
4, 13800, Note_on_c, 1, 57, 0
4, 13800, Note_on_c, 1, 62, 64
4, 14040, Note_on_c, 1, 62, 0
4, 14040, Note_on_c, 1, 55, 64
4, 14160, Note_on_c, 1, 55, 0
4, 14160, Note_on_c, 1, 62, 64
4, 14400, Note_on_c, 1, 62, 0
4, 14400, Note_on_c, 1, 60, 64
4, 14520, Note_on_c, 1, 60, 0
4, 14520, Note_on_c, 1, 57, 64
4, 14640, Note_on_c, 1, 57, 0
4, 14640, Note_on_c, 1, 64, 64
4, 14880, Note_on_c, 1, 64, 0
4, 14880, Note_on_c, 1, 62, 64
4, 15000, Note_on_c, 1, 62, 0
4, 15480, Note_on_c, 1, 57, 64
4, 15600, Note_on_c, 1, 57, 0
4, 15600, Note_on_c, 1, 59, 64
4, 15720, Note_on_c, 1, 59, 0
4, 15720, Note_on_c, 1, 61, 64
4, 15840, Note_on_c, 1, 61, 0
4, 15840, Note_on_c, 1, 62, 64
4, 16020, Note_on_c, 1, 62, 0
4, 16020, Note_on_c, 1, 64, 64
4, 16050, Note_on_c, 1, 64, 0
4, 16052, Note_on_c, 1, 62, 64
4, 16080, Note_on_c, 1, 60, 64
4, 16082, Note_on_c, 1, 62, 0
4, 16196, Note_on_c, 1, 60, 0
4, 16200, Note_on_c, 1, 65, 64
4, 16320, Note_on_c, 1, 65, 0
4, 16320, Note_on_c, 1, 59, 64
4, 16440, Note_on_c, 1, 59, 0
4, 16440, Note_on_c, 1, 64, 64
4, 16620, Note_on_c, 1, 64, 0
4, 16620, Note_on_c, 1, 65, 64
4, 16680, Note_on_c, 1, 65, 0
4, 16680, Note_on_c, 1, 64, 64
4, 16740, Note_on_c, 1, 64, 0
4, 16740, Note_on_c, 1, 62, 64
4, 16800, Note_on_c, 1, 62, 0
4, 16800, Note_on_c, 1, 61, 64
4, 16920, Note_on_c, 1, 61, 0
4, 17400, Note_on_c, 1, 57, 64
4, 17520, Note_on_c, 1, 57, 0
4, 17520, Note_on_c, 1, 59, 64
4, 17640, Note_on_c, 1, 59, 0
4, 17640, Note_on_c, 1, 61, 64
4, 17760, Note_on_c, 1, 61, 0
4, 17760, Note_on_c, 1, 62, 64
4, 17940, Note_on_c, 1, 62, 0
4, 17940, Note_on_c, 1, 64, 64
4, 17970, Note_on_c, 1, 64, 0
4, 17972, Note_on_c, 1, 62, 64
4, 18000, Note_on_c, 1, 60, 64
4, 18002, Note_on_c, 1, 62, 0
4, 18120, Note_on_c, 1, 60, 0
4, 18120, Note_on_c, 1, 66, 64
4, 18240, Note_on_c, 1, 66, 0
4, 18240, Note_on_c, 1, 59, 64
4, 18360, Note_on_c, 1, 59, 0
4, 18360, Note_on_c, 1, 64, 64
4, 18540, Note_on_c, 1, 64, 0
4, 18540, Note_on_c, 1, 66, 64
4, 18600, Note_on_c, 1, 66, 0
4, 18600, Note_on_c, 1, 64, 64
4, 18660, Note_on_c, 1, 64, 0
4, 18660, Note_on_c, 1, 62, 64
4, 18720, Note_on_c, 1, 62, 0
4, 18720, Note_on_c, 1, 60, 64
4, 19260, Note_on_c, 1, 60, 0
4, 19260, Note_on_c, 1, 62, 64
4, 19320, Note_on_c, 1, 62, 0
4, 19320, Note_on_c, 1, 60, 64
4, 19380, Note_on_c, 1, 60, 0
4, 19380, Note_on_c, 1, 59, 64
4, 19440, Note_on_c, 1, 59, 0
4, 19440, Note_on_c, 1, 57, 64
4, 19500, Note_on_c, 1, 57, 0
4, 19500, Note_on_c, 1, 55, 64
4, 19560, Note_on_c, 1, 55, 0
4, 19560, Note_on_c, 1, 57, 64
4, 19620, Note_on_c, 1, 57, 0
4, 19620, Note_on_c, 1, 54, 64
4, 19680, Note_on_c, 1, 54, 0
4, 19680, Note_on_c, 1, 55, 64
4, 19800, Note_on_c, 1, 59, 64
4, 19804, Note_on_c, 1, 55, 0
4, 19920, Note_on_c, 1, 60, 64
4, 19931, Note_on_c, 1, 59, 0
4, 20040, Note_on_c, 1, 62, 64
4, 20052, Note_on_c, 1, 60, 0
4, 20160, Note_on_c, 1, 62, 0
4, 20160, Note_on_c, 1, 64, 64
4, 20340, Note_on_c, 1, 64, 0
4, 20340, Note_on_c, 1, 65, 64
4, 20370, Note_on_c, 1, 65, 0
4, 20372, Note_on_c, 1, 64, 64
4, 20400, Note_on_c, 1, 62, 64
4, 20402, Note_on_c, 1, 64, 0
4, 20520, Note_on_c, 1, 62, 0
4, 20520, Note_on_c, 1, 67, 64
4, 20640, Note_on_c, 1, 67, 0
4, 20640, Note_on_c, 1, 60, 64
4, 20760, Note_on_c, 1, 60, 0
4, 20760, Note_on_c, 1, 65, 64
4, 20940, Note_on_c, 1, 65, 0
4, 20940, Note_on_c, 1, 67, 64
4, 21000, Note_on_c, 1, 67, 0
4, 21000, Note_on_c, 1, 65, 64
4, 21060, Note_on_c, 1, 65, 0
4, 21060, Note_on_c, 1, 64, 64
4, 21120, Note_on_c, 1, 64, 0
4, 21120, Note_on_c, 1, 62, 64
4, 21360, Note_on_c, 1, 62, 0
4, 21360, Note_on_c, 1, 64, 64
4, 21480, Note_on_c, 1, 64, 0
4, 21480, Note_on_c, 1, 62, 64
4, 21720, Note_on_c, 1, 62, 0
4, 21720, Note_on_c, 1, 55, 64
4, 21830, Note_on_c, 1, 55, 0
4, 21840, Note_on_c, 1, 55, 64
4, 22200, Note_on_c, 1, 55, 0
4, 22200, Note_on_c, 1, 48, 64
4, 22320, Note_on_c, 1, 48, 0
4, 22320, Note_on_c, 1, 50, 64
4, 22440, Note_on_c, 1, 50, 0
4, 22440, Note_on_c, 1, 52, 64
4, 22560, Note_on_c, 1, 52, 0
4, 22560, Note_on_c, 1, 53, 64
4, 22740, Note_on_c, 1, 53, 0
4, 22740, Note_on_c, 1, 55, 64
4, 22770, Note_on_c, 1, 55, 0
4, 22772, Note_on_c, 1, 53, 64
4, 22800, Note_on_c, 1, 52, 64
4, 22802, Note_on_c, 1, 53, 0
4, 22920, Note_on_c, 1, 52, 0
4, 22920, Note_on_c, 1, 57, 64
4, 23040, Note_on_c, 1, 57, 0
4, 23040, Note_on_c, 1, 50, 64
4, 23160, Note_on_c, 1, 50, 0
4, 23160, Note_on_c, 1, 55, 64
4, 23330, Note_on_c, 1, 55, 0
4, 23340, Note_on_c, 1, 57, 64
4, 23400, Note_on_c, 1, 57, 0
4, 23400, Note_on_c, 1, 55, 64
4, 23460, Note_on_c, 1, 55, 0
4, 23460, Note_on_c, 1, 53, 64
4, 23520, Note_on_c, 1, 53, 0
4, 23520, Note_on_c, 1, 52, 64
4, 23580, Note_on_c, 1, 52, 0
4, 23580, Note_on_c, 1, 50, 64
4, 23640, Note_on_c, 1, 50, 0
4, 23640, Note_on_c, 1, 52, 64
4, 23700, Note_on_c, 1, 52, 0
4, 23700, Note_on_c, 1, 53, 64
4, 23760, Note_on_c, 1, 53, 0
4, 23760, Note_on_c, 1, 55, 64
4, 23820, Note_on_c, 1, 55, 0
4, 23820, Note_on_c, 1, 57, 64
4, 23880, Note_on_c, 1, 57, 0
4, 23880, Note_on_c, 1, 58, 64
4, 23940, Note_on_c, 1, 58, 0
4, 23940, Note_on_c, 1, 55, 64
4, 24000, Note_on_c, 1, 55, 0
4, 24000, Note_on_c, 1, 57, 64
4, 24060, Note_on_c, 1, 57, 0
4, 24060, Note_on_c, 1, 52, 64
4, 24120, Note_on_c, 1, 52, 0
4, 24120, Note_on_c, 1, 53, 64
4, 24180, Note_on_c, 1, 53, 0
4, 24180, Note_on_c, 1, 55, 64
4, 24240, Note_on_c, 1, 55, 0
4, 24240, Note_on_c, 1, 57, 64
4, 24300, Note_on_c, 1, 57, 0
4, 24300, Note_on_c, 1, 59, 64
4, 24360, Note_on_c, 1, 59, 0
4, 24360, Note_on_c, 1, 60, 64
4, 24420, Note_on_c, 1, 60, 0
4, 24420, Note_on_c, 1, 57, 64
4, 24480, Note_on_c, 1, 57, 0
4, 24480, Note_on_c, 1, 62, 64
4, 24900, Note_on_c, 1, 62, 0
4, 24960, Note_on_c, 1, 60, 64
4, 25920, Note_on_c, 1, 60, 0
4, 25920, End_track
5, 0, Start_track
5, 0, MIDI_port, 0
5, 0, Title_t, "4"
5, 0, Program_c, 3, 6
5, 4440, Note_on_c, 3, 48, 64
5, 4560, Note_on_c, 3, 48, 0
5, 4560, Note_on_c, 3, 50, 64
5, 4680, Note_on_c, 3, 50, 0
5, 4680, Note_on_c, 3, 52, 64
5, 4800, Note_on_c, 3, 52, 0
5, 4800, Note_on_c, 3, 53, 64
5, 4980, Note_on_c, 3, 53, 0
5, 4980, Note_on_c, 3, 55, 64
5, 5010, Note_on_c, 3, 55, 0
5, 5012, Note_on_c, 3, 53, 64
5, 5040, Note_on_c, 3, 52, 64
5, 5042, Note_on_c, 3, 53, 0
5, 5160, Note_on_c, 3, 52, 0
5, 5160, Note_on_c, 3, 57, 64
5, 5280, Note_on_c, 3, 57, 0
5, 5280, Note_on_c, 3, 50, 64
5, 5400, Note_on_c, 3, 50, 0
5, 5400, Note_on_c, 3, 55, 64
5, 5570, Note_on_c, 3, 55, 0
5, 5580, Note_on_c, 3, 57, 64
5, 5640, Note_on_c, 3, 57, 0
5, 5640, Note_on_c, 3, 55, 64
5, 5700, Note_on_c, 3, 55, 0
5, 5700, Note_on_c, 3, 53, 64
5, 5760, Note_on_c, 3, 53, 0
5, 5760, Note_on_c, 3, 52, 64
5, 5820, Note_on_c, 3, 52, 0
5, 5820, Note_on_c, 3, 53, 64
5, 5880, Note_on_c, 3, 53, 0
5, 5880, Note_on_c, 3, 52, 64
5, 5940, Note_on_c, 3, 52, 0
5, 5940, Note_on_c, 3, 50, 64
5, 6000, Note_on_c, 3, 50, 0
5, 6000, Note_on_c, 3, 48, 64
5, 6060, Note_on_c, 3, 48, 0
5, 6060, Note_on_c, 3, 50, 64
5, 6120, Note_on_c, 3, 50, 0
5, 6120, Note_on_c, 3, 48, 64
5, 6180, Note_on_c, 3, 48, 0
5, 6180, Note_on_c, 3, 47, 64
5, 6240, Note_on_c, 3, 47, 0
5, 6240, Note_on_c, 3, 45, 64
5, 6360, Note_on_c, 3, 45, 0
5, 6360, Note_on_c, 3, 50, 64
5, 6480, Note_on_c, 3, 50, 0
5, 6480, Note_on_c, 3, 57, 64
5, 6600, Note_on_c, 3, 57, 0
5, 6600, Note_on_c, 3, 54, 64
5, 6720, Note_on_c, 3, 54, 0
5, 6720, Note_on_c, 3, 55, 64
5, 6780, Note_on_c, 3, 55, 0
5, 6780, Note_on_c, 3, 57, 64
5, 6840, Note_on_c, 3, 57, 0
5, 6840, Note_on_c, 3, 58, 64
5, 6900, Note_on_c, 3, 58, 0
5, 6900, Note_on_c, 3, 55, 64
5, 6960, Note_on_c, 3, 55, 0
5, 6960, Note_on_c, 3, 49, 64
5, 7080, Note_on_c, 3, 49, 0
5, 7080, Note_on_c, 3, 50, 64
5, 7200, Note_on_c, 3, 50, 0
5, 7200, Note_on_c, 3, 57, 64
5, 7440, Note_on_c, 3, 57, 0
5, 7440, Note_on_c, 3, 52, 64
5, 7680, Note_on_c, 3, 52, 0
5, 7680, Note_on_c, 3, 57, 64
5, 7740, Note_on_c, 3, 57, 0
5, 7740, Note_on_c, 3, 59, 64
5, 7800, Note_on_c, 3, 59, 0
5, 7800, Note_on_c, 3, 60, 64
5, 7860, Note_on_c, 3, 60, 0
5, 7860, Note_on_c, 3, 62, 64
5, 7920, Note_on_c, 3, 62, 0
5, 7920, Note_on_c, 3, 60, 64
5, 7980, Note_on_c, 3, 60, 0
5, 7980, Note_on_c, 3, 59, 64
5, 8040, Note_on_c, 3, 59, 0
5, 8040, Note_on_c, 3, 57, 64
5, 8100, Note_on_c, 3, 57, 0
5, 8100, Note_on_c, 3, 55, 64
5, 8160, Note_on_c, 3, 55, 0
5, 8160, Note_on_c, 3, 60, 64
5, 8280, Note_on_c, 3, 60, 0
5, 9240, Note_on_c, 3, 43, 64
5, 9360, Note_on_c, 3, 43, 0
5, 9360, Note_on_c, 3, 45, 64
5, 9480, Note_on_c, 3, 45, 0
5, 9480, Note_on_c, 3, 47, 64
5, 9600, Note_on_c, 3, 47, 0
5, 9600, Note_on_c, 3, 48, 64
5, 9780, Note_on_c, 3, 48, 0
5, 9780, Note_on_c, 3, 50, 64
5, 9810, Note_on_c, 3, 50, 0
5, 9812, Note_on_c, 3, 48, 64
5, 9840, Note_on_c, 3, 47, 64
5, 9842, Note_on_c, 3, 48, 0
5, 9960, Note_on_c, 3, 47, 0
5, 9960, Note_on_c, 3, 52, 64
5, 10080, Note_on_c, 3, 52, 0
5, 10080, Note_on_c, 3, 45, 64
5, 10200, Note_on_c, 3, 45, 0
5, 10200, Note_on_c, 3, 50, 64
5, 10380, Note_on_c, 3, 50, 0
5, 10380, Note_on_c, 3, 52, 64
5, 10440, Note_on_c, 3, 52, 0
5, 10440, Note_on_c, 3, 50, 64
5, 10500, Note_on_c, 3, 50, 0
5, 10500, Note_on_c, 3, 48, 64
5, 10560, Note_on_c, 3, 48, 0
5, 10560, Note_on_c, 3, 47, 64
5, 10676, Note_on_c, 3, 47, 0
5, 10680, Note_on_c, 3, 52, 64
5, 10920, Note_on_c, 3, 52, 0
5, 10920, Note_on_c, 3, 50, 64
5, 11040, Note_on_c, 3, 50, 0
5, 11040, Note_on_c, 3, 48, 64
5, 11160, Note_on_c, 3, 48, 0
5, 11160, Note_on_c, 3, 53, 64
5, 11400, Note_on_c, 3, 53, 0
5, 11400, Note_on_c, 3, 52, 64
5, 11640, Note_on_c, 3, 52, 0
5, 11640, Note_on_c, 3, 50, 64
5, 11880, Note_on_c, 3, 50, 0
5, 11880, Note_on_c, 3, 52, 64
5, 12000, Note_on_c, 3, 52, 0
5, 12000, Note_on_c, 3, 53, 64
5, 12120, Note_on_c, 3, 53, 0
5, 12120, Note_on_c, 3, 52, 64
5, 12180, Note_on_c, 3, 52, 0
5, 12180, Note_on_c, 3, 50, 64
5, 12240, Note_on_c, 3, 50, 0
5, 12240, Note_on_c, 3, 52, 64
5, 12480, Note_on_c, 3, 52, 0
5, 12480, Note_on_c, 3, 45, 64
5, 12720, Note_on_c, 3, 45, 0
5, 13560, Note_on_c, 3, 43, 64
5, 13680, Note_on_c, 3, 43, 0
5, 13680, Note_on_c, 3, 45, 64
5, 13800, Note_on_c, 3, 45, 0
5, 13800, Note_on_c, 3, 47, 64
5, 13920, Note_on_c, 3, 47, 0
5, 13920, Note_on_c, 3, 48, 64
5, 14100, Note_on_c, 3, 48, 0
5, 14100, Note_on_c, 3, 50, 64
5, 14130, Note_on_c, 3, 50, 0
5, 14132, Note_on_c, 3, 48, 64
5, 14160, Note_on_c, 3, 47, 64
5, 14162, Note_on_c, 3, 48, 0
5, 14280, Note_on_c, 3, 47, 0
5, 14280, Note_on_c, 3, 52, 64
5, 14400, Note_on_c, 3, 52, 0
5, 14400, Note_on_c, 3, 45, 64
5, 14520, Note_on_c, 3, 45, 0
5, 14520, Note_on_c, 3, 50, 64
5, 14700, Note_on_c, 3, 50, 0
5, 14700, Note_on_c, 3, 52, 64
5, 14760, Note_on_c, 3, 52, 0
5, 14760, Note_on_c, 3, 50, 64
5, 14820, Note_on_c, 3, 50, 0
5, 14820, Note_on_c, 3, 48, 64
5, 14880, Note_on_c, 3, 48, 0
5, 14880, Note_on_c, 3, 47, 64
5, 15000, Note_on_c, 3, 47, 0
5, 15000, Note_on_c, 3, 46, 64
5, 15120, Note_on_c, 3, 46, 0
5, 15120, Note_on_c, 3, 45, 64
5, 15240, Note_on_c, 3, 45, 0
5, 15240, Note_on_c, 3, 43, 64
5, 15360, Note_on_c, 3, 43, 0
5, 15360, Note_on_c, 3, 45, 64
5, 15480, Note_on_c, 3, 45, 0
5, 15480, Note_on_c, 3, 54, 64
5, 15600, Note_on_c, 3, 54, 0
5, 15600, Note_on_c, 3, 55, 64
5, 15720, Note_on_c, 3, 55, 0
5, 15720, Note_on_c, 3, 52, 64
5, 15840, Note_on_c, 3, 52, 0
5, 15840, Note_on_c, 3, 50, 64
5, 16080, Note_on_c, 3, 50, 0
5, 16080, Note_on_c, 3, 52, 64
5, 16200, Note_on_c, 3, 52, 0
5, 16200, Note_on_c, 3, 53, 64
5, 16320, Note_on_c, 3, 53, 0
5, 16320, Note_on_c, 3, 55, 64
5, 16500, Note_on_c, 3, 55, 0
5, 16500, Note_on_c, 3, 57, 64
5, 16530, Note_on_c, 3, 57, 0
5, 16532, Note_on_c, 3, 55, 64
5, 16560, Note_on_c, 3, 53, 64
5, 16562, Note_on_c, 3, 55, 0
5, 16680, Note_on_c, 3, 53, 0
5, 16680, Note_on_c, 3, 58, 64
5, 16800, Note_on_c, 3, 58, 0
5, 16800, Note_on_c, 3, 52, 64
5, 16920, Note_on_c, 3, 52, 0
5, 16920, Note_on_c, 3, 57, 64
5, 17100, Note_on_c, 3, 57, 0
5, 17100, Note_on_c, 3, 59, 64
5, 17160, Note_on_c, 3, 57, 64
5, 17175, Note_on_c, 3, 59, 0
5, 17220, Note_on_c, 3, 57, 0
5, 17220, Note_on_c, 3, 55, 64
5, 17280, Note_on_c, 3, 55, 0
5, 17280, Note_on_c, 3, 53, 64
5, 17340, Note_on_c, 3, 53, 0
5, 17340, Note_on_c, 3, 52, 64
5, 17400, Note_on_c, 3, 52, 0
5, 17400, Note_on_c, 3, 53, 64
5, 17460, Note_on_c, 3, 53, 0
5, 17460, Note_on_c, 3, 50, 64
5, 17520, Note_on_c, 3, 50, 0
5, 17520, Note_on_c, 3, 55, 64
5, 17640, Note_on_c, 3, 55, 0
5, 17640, Note_on_c, 3, 57, 64
5, 17760, Note_on_c, 3, 57, 0
5, 17760, Note_on_c, 3, 50, 64
5, 18300, Note_on_c, 3, 50, 0
5, 18300, Note_on_c, 3, 52, 64
5, 18360, Note_on_c, 3, 52, 0
5, 18360, Note_on_c, 3, 50, 64
5, 18420, Note_on_c, 3, 50, 0
5, 18420, Note_on_c, 3, 48, 64
5, 18480, Note_on_c, 3, 48, 0
5, 18480, Note_on_c, 3, 47, 64
5, 18540, Note_on_c, 3, 47, 0
5, 18540, Note_on_c, 3, 45, 64
5, 18600, Note_on_c, 3, 45, 0
5, 18600, Note_on_c, 3, 43, 64
5, 18660, Note_on_c, 3, 43, 0
5, 18660, Note_on_c, 3, 42, 64
5, 18720, Note_on_c, 3, 42, 0
5, 18720, Note_on_c, 3, 40, 64
5, 18840, Note_on_c, 3, 40, 0
5, 18840, Note_on_c, 3, 52, 64
5, 18960, Note_on_c, 3, 52, 0
5, 18960, Note_on_c, 3, 54, 64
5, 19080, Note_on_c, 3, 54, 0
5, 19080, Note_on_c, 3, 55, 64
5, 19320, Note_on_c, 3, 55, 0
5, 19320, Note_on_c, 3, 57, 64
5, 19380, Note_on_c, 3, 57, 0
5, 19380, Note_on_c, 3, 55, 64
5, 19440, Note_on_c, 3, 55, 0
5, 19440, Note_on_c, 3, 54, 64
5, 19560, Note_on_c, 3, 54, 0
5, 19560, Note_on_c, 3, 50, 64
5, 19680, Note_on_c, 3, 50, 0
5, 19680, Note_on_c, 3, 55, 64
5, 20640, Note_on_c, 3, 55, 0
5, 20640, Note_on_c, 3, 57, 64
5, 20880, Note_on_c, 3, 57, 0
5, 20880, Note_on_c, 3, 59, 64
5, 21000, Note_on_c, 3, 59, 0
5, 21000, Note_on_c, 3, 60, 64
5, 21120, Note_on_c, 3, 60, 0
5, 21120, Note_on_c, 3, 53, 64
5, 21180, Note_on_c, 3, 53, 0
5, 21180, Note_on_c, 3, 57, 64
5, 21240, Note_on_c, 3, 57, 0
5, 21240, Note_on_c, 3, 55, 64
5, 21300, Note_on_c, 3, 55, 0
5, 21300, Note_on_c, 3, 53, 64
5, 21360, Note_on_c, 3, 53, 0
5, 21360, Note_on_c, 3, 52, 64
5, 21420, Note_on_c, 3, 52, 0
5, 21420, Note_on_c, 3, 50, 64
5, 21480, Note_on_c, 3, 50, 0
5, 21480, Note_on_c, 3, 48, 64
5, 21540, Note_on_c, 3, 48, 0
5, 21540, Note_on_c, 3, 47, 64
5, 21600, Note_on_c, 3, 47, 0
5, 21600, Note_on_c, 3, 48, 64
5, 21660, Note_on_c, 3, 48, 0
5, 21660, Note_on_c, 3, 50, 64
5, 21720, Note_on_c, 3, 50, 0
5, 21720, Note_on_c, 3, 52, 64
5, 21780, Note_on_c, 3, 52, 0
5, 21780, Note_on_c, 3, 53, 64
5, 21840, Note_on_c, 3, 53, 0
5, 21840, Note_on_c, 3, 55, 64
5, 21960, Note_on_c, 3, 55, 0
5, 21960, Note_on_c, 3, 43, 64
5, 22080, Note_on_c, 3, 43, 0
5, 22080, Note_on_c, 3, 48, 64
5, 24480, Note_on_c, 3, 59, 64
5, 24960, Note_on_c, 3, 59, 0
5, 25920, Note_on_c, 3, 48, 0
5, 25920, End_track
0, 0, End_of_file
