0, 0, Header, 1, 3, 480
1, 0, Start_track
1, 0, Text_t, "N¡ 6 Canon a 2"
1, 0, SMPTE_offset, 32, 0, 0, 0, 0
1, 0, Time_signature, 4, 2, 24, 8
1, 0, Tempo, 500000
1, 0, End_track
2, 0, Start_track
2, 0, Text_t, "Voce 1nd"
2, 1440, Note_on_c, 0, 60, 64
2, 1680, Note_off_c, 0, 60, 64
2, 1680, Note_on_c, 0, 62, 64
2, 1920, Note_off_c, 0, 62, 64
2, 1920, Note_on_c, 0, 63, 64
2, 2400, Note_off_c, 0, 63, 64
2, 2400, Note_on_c, 0, 64, 64
2, 2880, Note_off_c, 0, 64, 64
2, 2880, Note_on_c, 0, 65, 64
2, 3360, Note_off_c, 0, 65, 64
2, 3360, Note_on_c, 0, 66, 64
2, 3840, Note_off_c, 0, 66, 64
2, 3840, Note_on_c, 0, 67, 64
2, 4800, Note_off_c, 0, 67, 64
2, 4800, Note_on_c, 0, 68, 64
2, 5760, Note_off_c, 0, 68, 64
2, 5760, Note_on_c, 0, 59, 64
2, 6720, Note_off_c, 0, 59, 64
2, 7200, Note_on_c, 0, 67, 64
2, 7680, Note_off_c, 0, 67, 64
2, 7680, Note_on_c, 0, 66, 64
2, 8160, Note_off_c, 0, 66, 64
2, 8160, Note_on_c, 0, 65, 64
2, 9120, Note_off_c, 0, 65, 64
2, 9120, Note_on_c, 0, 64, 64
2, 9600, Note_off_c, 0, 64, 64
2, 9600, Note_on_c, 0, 63, 64
2, 10080, Note_off_c, 0, 63, 64
2, 10080, Note_on_c, 0, 62, 64
2, 11040, Note_off_c, 0, 62, 64
2, 11040, Note_on_c, 0, 60, 64
2, 11520, Note_off_c, 0, 60, 64
2, 11520, Note_on_c, 0, 59, 64
2, 12000, Note_off_c, 0, 59, 64
2, 12000, Note_on_c, 0, 55, 64
2, 12480, Note_off_c, 0, 55, 64
2, 12480, Note_on_c, 0, 60, 64
2, 12960, Note_off_c, 0, 60, 64
2, 12960, Note_on_c, 0, 65, 64
2, 13440, Note_off_c, 0, 65, 64
2, 13440, Note_on_c, 0, 63, 64
2, 14400, Note_off_c, 0, 63, 64
2, 14400, Note_on_c, 0, 63, 64
2, 14480, Note_off_c, 0, 63, 64
2, 14480, Note_on_c, 0, 62, 64
2, 14560, Note_off_c, 0, 62, 64
2, 14560, Note_on_c, 0, 63, 64
2, 14640, Note_off_c, 0, 63, 64
2, 14640, Note_on_c, 0, 62, 64
2, 14720, Note_off_c, 0, 62, 64
2, 14720, Note_on_c, 0, 63, 64
2, 14800, Note_off_c, 0, 63, 64
2, 14800, Note_on_c, 0, 62, 64
2, 14880, Note_off_c, 0, 62, 64
2, 14880, Note_on_c, 0, 60, 64
2, 15120, Note_off_c, 0, 60, 64
2, 15120, Note_on_c, 0, 62, 64
2, 15360, Note_off_c, 0, 62, 64
2, 15360, Note_on_c, 0, 60, 64
2, 15600, Note_off_c, 0, 60, 64
2, 15600, Note_on_c, 0, 72, 64
2, 15840, Note_off_c, 0, 72, 64
2, 15840, Note_on_c, 0, 70, 64
2, 16080, Note_off_c, 0, 70, 64
2, 16080, Note_on_c, 0, 68, 64
2, 16320, Note_off_c, 0, 68, 64
2, 16320, Note_on_c, 0, 67, 64
2, 16560, Note_off_c, 0, 67, 64
2, 16560, Note_on_c, 0, 65, 64
2, 16800, Note_off_c, 0, 65, 64
2, 16800, Note_on_c, 0, 63, 64
2, 17040, Note_off_c, 0, 63, 64
2, 17040, Note_on_c, 0, 67, 64
2, 17280, Note_off_c, 0, 67, 64
2, 17280, Note_on_c, 0, 65, 64
2, 17520, Note_off_c, 0, 65, 64
2, 17520, Note_on_c, 0, 67, 64
2, 17760, Note_off_c, 0, 67, 64
2, 17760, Note_on_c, 0, 65, 64
2, 18000, Note_off_c, 0, 65, 64
2, 18000, Note_on_c, 0, 63, 64
2, 18240, Note_off_c, 0, 63, 64
2, 18240, Note_on_c, 0, 62, 64
2, 18480, Note_off_c, 0, 62, 64
2, 18480, Note_on_c, 0, 63, 64
2, 18720, Note_off_c, 0, 63, 64
2, 18720, Note_on_c, 0, 65, 64
2, 18960, Note_off_c, 0, 65, 64
2, 18960, Note_on_c, 0, 62, 64
2, 19200, Note_off_c, 0, 62, 64
2, 19200, Note_on_c, 0, 63, 64
2, 19440, Note_off_c, 0, 63, 64
2, 19440, Note_on_c, 0, 60, 64
2, 19680, Note_off_c, 0, 60, 64
2, 19680, Note_on_c, 0, 57, 64
2, 19920, Note_off_c, 0, 57, 64
2, 19920, Note_on_c, 0, 60, 64
2, 20160, Note_off_c, 0, 60, 64
2, 20160, Note_on_c, 0, 54, 64
2, 20640, Note_off_c, 0, 54, 64
2, 20640, Note_on_c, 0, 55, 64
2, 20880, Note_off_c, 0, 55, 64
2, 20880, Note_on_c, 0, 57, 64
2, 21120, Note_off_c, 0, 57, 64
2, 21120, Note_on_c, 0, 59, 64
2, 21360, Note_off_c, 0, 59, 64
2, 21360, Note_on_c, 0, 60, 64
2, 21600, Note_off_c, 0, 60, 64
2, 21600, Note_on_c, 0, 62, 64
2, 21840, Note_off_c, 0, 62, 64
2, 21840, Note_on_c, 0, 63, 64
2, 22080, Note_off_c, 0, 63, 64
2, 22080, Note_on_c, 0, 65, 64
2, 22560, Note_off_c, 0, 65, 64
2, 22560, Note_on_c, 0, 63, 64
2, 22800, Note_off_c, 0, 63, 64
2, 22800, Note_on_c, 0, 62, 64
2, 23040, Note_off_c, 0, 62, 64
2, 23040, Note_on_c, 0, 63, 64
2, 23280, Note_off_c, 0, 63, 64
2, 23280, Note_on_c, 0, 62, 64
2, 23520, Note_off_c, 0, 62, 64
2, 23520, Note_on_c, 0, 60, 64
2, 23760, Note_off_c, 0, 60, 64
2, 23760, Note_on_c, 0, 63, 64
2, 24000, Note_off_c, 0, 63, 64
2, 24000, Note_on_c, 0, 62, 64
2, 24480, Note_off_c, 0, 62, 64
2, 24480, Note_on_c, 0, 60, 64
2, 24720, Note_off_c, 0, 60, 64
2, 24720, Note_on_c, 0, 59, 64
2, 24960, Note_off_c, 0, 59, 64
2, 24960, Note_on_c, 0, 60, 64
2, 25440, Note_off_c, 0, 60, 64
2, 25440, Note_on_c, 0, 62, 64
2, 25920, Note_off_c, 0, 62, 64
2, 25920, Note_on_c, 0, 55, 64
2, 26880, Note_off_c, 0, 55, 64
2, 26880, Note_on_c, 0, 54, 64
2, 27840, Note_off_c, 0, 54, 64
2, 28080, Note_on_c, 0, 51, 64
2, 28320, Note_off_c, 0, 51, 64
2, 28320, Note_on_c, 0, 54, 64
2, 28560, Note_off_c, 0, 54, 64
2, 28560, Note_on_c, 0, 55, 64
2, 28800, Note_off_c, 0, 55, 64
2, 29040, Note_on_c, 0, 57, 64
2, 29280, Note_off_c, 0, 57, 64
2, 29280, Note_on_c, 0, 59, 64
2, 29520, Note_off_c, 0, 59, 64
2, 29520, Note_on_c, 0, 60, 64
2, 29760, Note_off_c, 0, 60, 64
2, 30000, Note_on_c, 0, 59, 64
2, 30240, Note_off_c, 0, 59, 64
2, 30240, Note_on_c, 0, 60, 64
2, 30480, Note_off_c, 0, 60, 64
2, 30480, Note_on_c, 0, 62, 64
2, 30720, Note_off_c, 0, 62, 64
2, 30720, Note_on_c, 0, 63, 64
2, 31200, Note_off_c, 0, 63, 64
2, 31200, Note_on_c, 0, 64, 64
2, 31680, Note_off_c, 0, 64, 64
2, 31680, Note_on_c, 0, 65, 64
2, 32160, Note_off_c, 0, 65, 64
2, 32160, Note_on_c, 0, 66, 64
2, 32640, Note_off_c, 0, 66, 64
2, 32640, Note_on_c, 0, 67, 64
2, 33600, Note_off_c, 0, 67, 64
2, 33600, Note_on_c, 0, 68, 64
2, 34560, Note_off_c, 0, 68, 64
2, 34560, Note_on_c, 0, 59, 64
2, 35520, Note_off_c, 0, 59, 64
2, 36000, Note_on_c, 0, 67, 64
2, 36480, Note_off_c, 0, 67, 64
2, 36480, Note_on_c, 0, 66, 64
2, 36960, Note_off_c, 0, 66, 64
2, 36960, Note_on_c, 0, 65, 64
2, 37920, Note_off_c, 0, 65, 64
2, 37920, Note_on_c, 0, 64, 64
2, 38400, Note_off_c, 0, 64, 64
2, 38400, Note_on_c, 0, 63, 64
2, 38880, Note_off_c, 0, 63, 64
2, 38880, Note_on_c, 0, 62, 64
2, 39840, Note_off_c, 0, 62, 64
2, 39840, Note_on_c, 0, 60, 64
2, 40320, Note_off_c, 0, 60, 64
2, 40320, Note_on_c, 0, 59, 64
2, 40800, Note_off_c, 0, 59, 64
2, 40800, Note_on_c, 0, 55, 64
2, 41280, Note_off_c, 0, 55, 64
2, 41280, Note_on_c, 0, 60, 64
2, 41760, Note_off_c, 0, 60, 64
2, 41760, Note_on_c, 0, 65, 64
2, 42240, Note_off_c, 0, 65, 64
2, 42240, Note_on_c, 0, 63, 64
2, 43200, Note_off_c, 0, 63, 64
2, 43200, Note_on_c, 0, 63, 64
2, 43280, Note_off_c, 0, 63, 64
2, 43280, Note_on_c, 0, 62, 64
2, 43360, Note_off_c, 0, 62, 64
2, 43360, Note_on_c, 0, 63, 64
2, 43440, Note_off_c, 0, 63, 64
2, 43440, Note_on_c, 0, 62, 64
2, 43520, Note_off_c, 0, 62, 64
2, 43520, Note_on_c, 0, 63, 64
2, 43600, Note_off_c, 0, 63, 64
2, 43600, Note_on_c, 0, 62, 64
2, 43680, Note_off_c, 0, 62, 64
2, 43680, Note_on_c, 0, 60, 64
2, 43920, Note_off_c, 0, 60, 64
2, 43920, Note_on_c, 0, 62, 64
2, 44160, Note_off_c, 0, 62, 64
2, 44160, Note_on_c, 0, 60, 64
2, 44400, Note_off_c, 0, 60, 64
2, 44400, Note_on_c, 0, 72, 64
2, 44640, Note_off_c, 0, 72, 64
2, 44640, Note_on_c, 0, 70, 64
2, 44880, Note_off_c, 0, 70, 64
2, 44880, Note_on_c, 0, 68, 64
2, 45120, Note_off_c, 0, 68, 64
2, 45120, Note_on_c, 0, 67, 64
2, 45360, Note_off_c, 0, 67, 64
2, 45360, Note_on_c, 0, 65, 64
2, 45600, Note_off_c, 0, 65, 64
2, 45600, Note_on_c, 0, 63, 64
2, 45840, Note_off_c, 0, 63, 64
2, 45840, Note_on_c, 0, 67, 64
2, 46080, Note_off_c, 0, 67, 64
2, 46080, Note_on_c, 0, 65, 64
2, 46320, Note_off_c, 0, 65, 64
2, 46320, Note_on_c, 0, 67, 64
2, 46560, Note_off_c, 0, 67, 64
2, 46560, Note_on_c, 0, 65, 64
2, 46800, Note_off_c, 0, 65, 64
2, 46800, Note_on_c, 0, 63, 64
2, 47040, Note_off_c, 0, 63, 64
2, 47040, Note_on_c, 0, 62, 64
2, 47280, Note_off_c, 0, 62, 64
2, 47280, Note_on_c, 0, 63, 64
2, 47520, Note_off_c, 0, 63, 64
2, 47520, Note_on_c, 0, 65, 64
2, 47760, Note_off_c, 0, 65, 64
2, 47760, Note_on_c, 0, 62, 64
2, 48000, Note_off_c, 0, 62, 64
2, 48000, Note_on_c, 0, 63, 64
2, 48240, Note_off_c, 0, 63, 64
2, 48240, Note_on_c, 0, 60, 64
2, 48480, Note_off_c, 0, 60, 64
2, 48480, Note_on_c, 0, 57, 64
2, 48720, Note_off_c, 0, 57, 64
2, 48720, Note_on_c, 0, 60, 64
2, 48960, Note_off_c, 0, 60, 64
2, 48960, Note_on_c, 0, 54, 64
2, 49440, Note_off_c, 0, 54, 64
2, 49440, Note_on_c, 0, 55, 64
2, 49680, Note_off_c, 0, 55, 64
2, 49680, Note_on_c, 0, 57, 64
2, 49920, Note_off_c, 0, 57, 64
2, 49920, Note_on_c, 0, 59, 64
2, 50160, Note_off_c, 0, 59, 64
2, 50160, Note_on_c, 0, 60, 64
2, 50400, Note_off_c, 0, 60, 64
2, 50400, Note_on_c, 0, 62, 64
2, 50640, Note_off_c, 0, 62, 64
2, 50640, Note_on_c, 0, 63, 64
2, 50880, Note_off_c, 0, 63, 64
2, 50880, Note_on_c, 0, 65, 64
2, 51360, Note_off_c, 0, 65, 64
2, 51360, Note_on_c, 0, 63, 64
2, 51600, Note_off_c, 0, 63, 64
2, 51600, Note_on_c, 0, 62, 64
2, 51840, Note_off_c, 0, 62, 64
2, 51840, Note_on_c, 0, 63, 64
2, 52080, Note_off_c, 0, 63, 64
2, 52080, Note_on_c, 0, 62, 64
2, 52320, Note_off_c, 0, 62, 64
2, 52320, Note_on_c, 0, 60, 64
2, 52560, Note_off_c, 0, 60, 64
2, 52560, Note_on_c, 0, 63, 64
2, 52800, Note_off_c, 0, 63, 64
2, 52800, Note_on_c, 0, 62, 64
2, 53280, Note_off_c, 0, 62, 64
2, 53280, Note_on_c, 0, 60, 64
2, 53520, Note_off_c, 0, 60, 64
2, 53520, Note_on_c, 0, 59, 64
2, 53760, Note_off_c, 0, 59, 64
2, 53760, Note_on_c, 0, 60, 64
2, 54240, Note_off_c, 0, 60, 64
2, 54240, Note_on_c, 0, 62, 64
2, 54720, Note_off_c, 0, 62, 64
2, 54720, Note_on_c, 0, 55, 64
2, 55680, Note_off_c, 0, 55, 64
2, 55680, Note_on_c, 0, 54, 64
2, 56640, Note_off_c, 0, 54, 64
2, 56880, Note_on_c, 0, 51, 64
2, 57120, Note_off_c, 0, 51, 64
2, 57120, Note_on_c, 0, 54, 64
2, 57360, Note_off_c, 0, 54, 64
2, 57360, Note_on_c, 0, 55, 64
2, 57600, Note_off_c, 0, 55, 64
2, 57840, Note_on_c, 0, 57, 64
2, 58080, Note_off_c, 0, 57, 64
2, 58080, Note_on_c, 0, 59, 64
2, 58320, Note_off_c, 0, 59, 64
2, 58320, Note_on_c, 0, 60, 64
2, 58560, Note_off_c, 0, 60, 64
2, 58800, Note_on_c, 0, 59, 64
2, 59040, Note_off_c, 0, 59, 64
2, 59040, Note_on_c, 0, 60, 64
2, 59280, Note_off_c, 0, 60, 64
2, 59280, Note_on_c, 0, 62, 64
2, 59520, Note_off_c, 0, 62, 64
2, 59520, Note_on_c, 0, 63, 64
2, 60000, Note_off_c, 0, 63, 64
2, 60000, Note_on_c, 0, 64, 64
2, 60480, Note_off_c, 0, 64, 64
2, 60480, Note_on_c, 0, 65, 64
2, 60960, Note_off_c, 0, 65, 64
2, 60960, Note_on_c, 0, 66, 64
2, 61440, Note_off_c, 0, 66, 64
2, 61440, Note_on_c, 0, 67, 64
2, 62400, Note_off_c, 0, 67, 64
2, 62400, Note_on_c, 0, 68, 64
2, 63360, Note_off_c, 0, 68, 64
2, 63360, Note_on_c, 0, 59, 64
2, 64320, Note_off_c, 0, 59, 64
2, 64800, Note_on_c, 0, 67, 64
2, 65280, Note_off_c, 0, 67, 64
2, 65280, Note_on_c, 0, 66, 64
2, 65760, Note_off_c, 0, 66, 64
2, 65760, Note_on_c, 0, 65, 64
2, 66720, Note_off_c, 0, 65, 64
2, 66720, Note_on_c, 0, 64, 64
2, 67200, Note_off_c, 0, 64, 64
2, 67200, Note_on_c, 0, 63, 64
2, 67680, Note_off_c, 0, 63, 64
2, 67680, Note_on_c, 0, 62, 64
2, 68640, Note_off_c, 0, 62, 64
2, 68640, Note_on_c, 0, 60, 64
2, 69120, Note_off_c, 0, 60, 64
2, 69120, Note_on_c, 0, 59, 64
2, 69600, Note_off_c, 0, 59, 64
2, 69600, Note_on_c, 0, 55, 64
2, 70080, Note_off_c, 0, 55, 64
2, 70080, Note_on_c, 0, 60, 64
2, 70560, Note_off_c, 0, 60, 64
2, 70560, Note_on_c, 0, 65, 64
2, 71040, Note_off_c, 0, 65, 64
2, 71040, Note_on_c, 0, 63, 64
2, 72000, Note_off_c, 0, 63, 64
2, 72000, Note_on_c, 0, 63, 64
2, 72080, Note_off_c, 0, 63, 64
2, 72080, Note_on_c, 0, 62, 64
2, 72160, Note_off_c, 0, 62, 64
2, 72160, Note_on_c, 0, 63, 64
2, 72240, Note_off_c, 0, 63, 64
2, 72240, Note_on_c, 0, 62, 64
2, 72320, Note_off_c, 0, 62, 64
2, 72320, Note_on_c, 0, 63, 64
2, 72400, Note_off_c, 0, 63, 64
2, 72400, Note_on_c, 0, 62, 64
2, 72480, Note_off_c, 0, 62, 64
2, 72480, Note_on_c, 0, 60, 64
2, 72720, Note_off_c, 0, 60, 64
2, 72720, Note_on_c, 0, 62, 64
2, 72960, Note_off_c, 0, 62, 64
2, 72960, Note_on_c, 0, 60, 64
2, 73200, Note_off_c, 0, 60, 64
2, 73200, Note_on_c, 0, 72, 64
2, 73440, Note_off_c, 0, 72, 64
2, 73440, Note_on_c, 0, 70, 64
2, 73680, Note_off_c, 0, 70, 64
2, 73680, Note_on_c, 0, 68, 64
2, 73920, Note_off_c, 0, 68, 64
2, 73920, Note_on_c, 0, 67, 64
2, 74160, Note_off_c, 0, 67, 64
2, 74160, Note_on_c, 0, 65, 64
2, 74400, Note_off_c, 0, 65, 64
2, 74400, Note_on_c, 0, 63, 64
2, 74640, Note_off_c, 0, 63, 64
2, 74640, Note_on_c, 0, 67, 64
2, 74880, Note_off_c, 0, 67, 64
2, 74880, Note_on_c, 0, 65, 64
2, 75120, Note_off_c, 0, 65, 64
2, 75120, Note_on_c, 0, 67, 64
2, 75360, Note_off_c, 0, 67, 64
2, 75360, Note_on_c, 0, 65, 64
2, 75600, Note_off_c, 0, 65, 64
2, 75600, Note_on_c, 0, 63, 64
2, 75840, Note_off_c, 0, 63, 64
2, 75840, Note_on_c, 0, 62, 64
2, 76080, Note_off_c, 0, 62, 64
2, 76080, Note_on_c, 0, 63, 64
2, 76320, Note_off_c, 0, 63, 64
2, 76320, Note_on_c, 0, 65, 64
2, 76560, Note_off_c, 0, 65, 64
2, 76560, Note_on_c, 0, 62, 64
2, 76800, Note_off_c, 0, 62, 64
2, 76800, Note_on_c, 0, 63, 64
2, 77760, Note_off_c, 0, 63, 64
2, 77760, End_track
3, 0, Start_track
3, 0, Text_t, "Voce 20-"
3, 6240, Note_on_c, 1, 50, 64
3, 6480, Note_off_c, 1, 50, 64
3, 6480, Note_on_c, 1, 48, 64
3, 6720, Note_off_c, 1, 48, 64
3, 6720, Note_on_c, 1, 47, 64
3, 7200, Note_off_c, 1, 47, 64
3, 7200, Note_on_c, 1, 46, 64
3, 7680, Note_off_c, 1, 46, 64
3, 7680, Note_on_c, 1, 45, 64
3, 8160, Note_off_c, 1, 45, 64
3, 8160, Note_on_c, 1, 44, 64
3, 8640, Note_off_c, 1, 44, 64
3, 8640, Note_on_c, 1, 43, 64
3, 9600, Note_off_c, 1, 43, 64
3, 9600, Note_on_c, 1, 42, 64
3, 10560, Note_off_c, 1, 42, 64
3, 10560, Note_on_c, 1, 51, 64
3, 11520, Note_off_c, 1, 51, 64
3, 12000, Note_on_c, 1, 43, 64
3, 12480, Note_off_c, 1, 43, 64
3, 12480, Note_on_c, 1, 44, 64
3, 12960, Note_off_c, 1, 44, 64
3, 12960, Note_on_c, 1, 45, 64
3, 13920, Note_off_c, 1, 45, 64
3, 13920, Note_on_c, 1, 46, 64
3, 14400, Note_off_c, 1, 46, 64
3, 14400, Note_on_c, 1, 47, 64
3, 14880, Note_off_c, 1, 47, 64
3, 14880, Note_on_c, 1, 48, 64
3, 15840, Note_off_c, 1, 48, 64
3, 15840, Note_on_c, 1, 50, 64
3, 16320, Note_off_c, 1, 50, 64
3, 16320, Note_on_c, 1, 51, 64
3, 16800, Note_off_c, 1, 51, 64
3, 16800, Note_on_c, 1, 55, 64
3, 17280, Note_off_c, 1, 55, 64
3, 17280, Note_on_c, 1, 50, 64
3, 17760, Note_off_c, 1, 50, 64
3, 17760, Note_on_c, 1, 45, 64
3, 18240, Note_off_c, 1, 45, 64
3, 18240, Note_on_c, 1, 47, 64
3, 19200, Note_off_c, 1, 47, 64
3, 19200, Note_on_c, 1, 50, 64
3, 19280, Note_off_c, 1, 50, 64
3, 19280, Note_on_c, 1, 48, 64
3, 19360, Note_off_c, 1, 48, 64
3, 19360, Note_on_c, 1, 50, 64
3, 19440, Note_off_c, 1, 50, 64
3, 19440, Note_on_c, 1, 48, 64
3, 19520, Note_off_c, 1, 48, 64
3, 19520, Note_on_c, 1, 50, 64
3, 19600, Note_off_c, 1, 50, 64
3, 19600, Note_on_c, 1, 48, 64
3, 19680, Note_off_c, 1, 48, 64
3, 19680, Note_on_c, 1, 50, 64
3, 19920, Note_off_c, 1, 50, 64
3, 19920, Note_on_c, 1, 48, 64
3, 20160, Note_off_c, 1, 48, 64
3, 20160, Note_on_c, 1, 50, 64
3, 20400, Note_off_c, 1, 50, 64
3, 20400, Note_on_c, 1, 38, 64
3, 20640, Note_off_c, 1, 38, 64
3, 20640, Note_on_c, 1, 40, 64
3, 20880, Note_off_c, 1, 40, 64
3, 20880, Note_on_c, 1, 42, 64
3, 21120, Note_off_c, 1, 42, 64
3, 21120, Note_on_c, 1, 43, 64
3, 21360, Note_off_c, 1, 43, 64
3, 21360, Note_on_c, 1, 45, 64
3, 21600, Note_off_c, 1, 45, 64
3, 21600, Note_on_c, 1, 47, 64
3, 21840, Note_off_c, 1, 47, 64
3, 21840, Note_on_c, 1, 43, 64
3, 22080, Note_off_c, 1, 43, 64
3, 22080, Note_on_c, 1, 45, 64
3, 22320, Note_off_c, 1, 45, 64
3, 22320, Note_on_c, 1, 43, 64
3, 22560, Note_off_c, 1, 43, 64
3, 22560, Note_on_c, 1, 45, 64
3, 22800, Note_off_c, 1, 45, 64
3, 22800, Note_on_c, 1, 47, 64
3, 23040, Note_off_c, 1, 47, 64
3, 23040, Note_on_c, 1, 48, 64
3, 23280, Note_off_c, 1, 48, 64
3, 23280, Note_on_c, 1, 47, 64
3, 23520, Note_off_c, 1, 47, 64
3, 23520, Note_on_c, 1, 45, 64
3, 23760, Note_off_c, 1, 45, 64
3, 23760, Note_on_c, 1, 48, 64
3, 24000, Note_off_c, 1, 48, 64
3, 24000, Note_on_c, 1, 47, 64
3, 24240, Note_off_c, 1, 47, 64
3, 24240, Note_on_c, 1, 50, 64
3, 24480, Note_off_c, 1, 50, 64
3, 24480, Note_on_c, 1, 53, 64
3, 24720, Note_off_c, 1, 53, 64
3, 24720, Note_on_c, 1, 50, 64
3, 24960, Note_off_c, 1, 50, 64
3, 24960, Note_on_c, 1, 56, 64
3, 25440, Note_off_c, 1, 56, 64
3, 25440, Note_on_c, 1, 55, 64
3, 25680, Note_off_c, 1, 55, 64
3, 25680, Note_on_c, 1, 53, 64
3, 25920, Note_off_c, 1, 53, 64
3, 25920, Note_on_c, 1, 51, 64
3, 26160, Note_off_c, 1, 51, 64
3, 26160, Note_on_c, 1, 50, 64
3, 26400, Note_off_c, 1, 50, 64
3, 26400, Note_on_c, 1, 48, 64
3, 26640, Note_off_c, 1, 48, 64
3, 26640, Note_on_c, 1, 47, 64
3, 26880, Note_off_c, 1, 47, 64
3, 26880, Note_on_c, 1, 45, 64
3, 27360, Note_off_c, 1, 45, 64
3, 27360, Note_on_c, 1, 47, 64
3, 27600, Note_off_c, 1, 47, 64
3, 27600, Note_on_c, 1, 48, 64
3, 27840, Note_off_c, 1, 48, 64
3, 27840, Note_on_c, 1, 47, 64
3, 28080, Note_off_c, 1, 47, 64
3, 28080, Note_on_c, 1, 48, 64
3, 28320, Note_off_c, 1, 48, 64
3, 28320, Note_on_c, 1, 50, 64
3, 28560, Note_off_c, 1, 50, 64
3, 28560, Note_on_c, 1, 47, 64
3, 28800, Note_off_c, 1, 47, 64
3, 28800, Note_on_c, 1, 48, 64
3, 29280, Note_off_c, 1, 48, 64
3, 29280, Note_on_c, 1, 50, 64
3, 29520, Note_off_c, 1, 50, 64
3, 29520, Note_on_c, 1, 51, 64
3, 29760, Note_off_c, 1, 51, 64
3, 29760, Note_on_c, 1, 50, 64
3, 30240, Note_off_c, 1, 50, 64
3, 30240, Note_on_c, 1, 48, 64
3, 30720, Note_off_c, 1, 48, 64
3, 30720, Note_on_c, 1, 55, 64
3, 31680, Note_off_c, 1, 55, 64
3, 31680, Note_on_c, 1, 56, 64
3, 32640, Note_off_c, 1, 56, 64
3, 32880, Note_on_c, 1, 59, 64
3, 33120, Note_off_c, 1, 59, 64
3, 33120, Note_on_c, 1, 56, 64
3, 33360, Note_off_c, 1, 56, 64
3, 33360, Note_on_c, 1, 55, 64
3, 33600, Note_off_c, 1, 55, 64
3, 33840, Note_on_c, 1, 53, 64
3, 34080, Note_off_c, 1, 53, 64
3, 34080, Note_on_c, 1, 51, 64
3, 34320, Note_off_c, 1, 51, 64
3, 34320, Note_on_c, 1, 50, 64
3, 34560, Note_off_c, 1, 50, 64
3, 34800, Note_on_c, 1, 51, 64
3, 35040, Note_off_c, 1, 51, 64
3, 35040, Note_on_c, 1, 50, 64
3, 35280, Note_off_c, 1, 50, 64
3, 35280, Note_on_c, 1, 48, 64
3, 35520, Note_off_c, 1, 48, 64
3, 35520, Note_on_c, 1, 47, 64
3, 36000, Note_off_c, 1, 47, 64
3, 36000, Note_on_c, 1, 46, 64
3, 36480, Note_off_c, 1, 46, 64
3, 36480, Note_on_c, 1, 45, 64
3, 36960, Note_off_c, 1, 45, 64
3, 36960, Note_on_c, 1, 44, 64
3, 37440, Note_off_c, 1, 44, 64
3, 37440, Note_on_c, 1, 43, 64
3, 38400, Note_off_c, 1, 43, 64
3, 38400, Note_on_c, 1, 42, 64
3, 39360, Note_off_c, 1, 42, 64
3, 39360, Note_on_c, 1, 51, 64
3, 40320, Note_off_c, 1, 51, 64
3, 40800, Note_on_c, 1, 43, 64
3, 41280, Note_off_c, 1, 43, 64
3, 41280, Note_on_c, 1, 44, 64
3, 41760, Note_off_c, 1, 44, 64
3, 41760, Note_on_c, 1, 45, 64
3, 42720, Note_off_c, 1, 45, 64
3, 42720, Note_on_c, 1, 46, 64
3, 43200, Note_off_c, 1, 46, 64
3, 43200, Note_on_c, 1, 47, 64
3, 43680, Note_off_c, 1, 47, 64
3, 43680, Note_on_c, 1, 48, 64
3, 44640, Note_off_c, 1, 48, 64
3, 44640, Note_on_c, 1, 50, 64
3, 45120, Note_off_c, 1, 50, 64
3, 45120, Note_on_c, 1, 51, 64
3, 45600, Note_off_c, 1, 51, 64
3, 45600, Note_on_c, 1, 55, 64
3, 46080, Note_off_c, 1, 55, 64
3, 46080, Note_on_c, 1, 50, 64
3, 46560, Note_off_c, 1, 50, 64
3, 46560, Note_on_c, 1, 45, 64
3, 47040, Note_off_c, 1, 45, 64
3, 47040, Note_on_c, 1, 47, 64
3, 48000, Note_off_c, 1, 47, 64
3, 48000, Note_on_c, 1, 50, 64
3, 48080, Note_off_c, 1, 50, 64
3, 48080, Note_on_c, 1, 48, 64
3, 48160, Note_off_c, 1, 48, 64
3, 48160, Note_on_c, 1, 50, 64
3, 48240, Note_off_c, 1, 50, 64
3, 48240, Note_on_c, 1, 48, 64
3, 48320, Note_off_c, 1, 48, 64
3, 48320, Note_on_c, 1, 50, 64
3, 48400, Note_off_c, 1, 50, 64
3, 48400, Note_on_c, 1, 48, 64
3, 48480, Note_off_c, 1, 48, 64
3, 48480, Note_on_c, 1, 50, 64
3, 48720, Note_off_c, 1, 50, 64
3, 48720, Note_on_c, 1, 48, 64
3, 48960, Note_off_c, 1, 48, 64
3, 48960, Note_on_c, 1, 50, 64
3, 49200, Note_off_c, 1, 50, 64
3, 49200, Note_on_c, 1, 38, 64
3, 49440, Note_off_c, 1, 38, 64
3, 49440, Note_on_c, 1, 40, 64
3, 49680, Note_off_c, 1, 40, 64
3, 49680, Note_on_c, 1, 42, 64
3, 49920, Note_off_c, 1, 42, 64
3, 49920, Note_on_c, 1, 43, 64
3, 50160, Note_off_c, 1, 43, 64
3, 50160, Note_on_c, 1, 45, 64
3, 50400, Note_off_c, 1, 45, 64
3, 50400, Note_on_c, 1, 47, 64
3, 50640, Note_off_c, 1, 47, 64
3, 50640, Note_on_c, 1, 43, 64
3, 50880, Note_off_c, 1, 43, 64
3, 50880, Note_on_c, 1, 45, 64
3, 51120, Note_off_c, 1, 45, 64
3, 51120, Note_on_c, 1, 43, 64
3, 51360, Note_off_c, 1, 43, 64
3, 51360, Note_on_c, 1, 45, 64
3, 51600, Note_off_c, 1, 45, 64
3, 51600, Note_on_c, 1, 47, 64
3, 51840, Note_off_c, 1, 47, 64
3, 51840, Note_on_c, 1, 48, 64
3, 52080, Note_off_c, 1, 48, 64
3, 52080, Note_on_c, 1, 47, 64
3, 52320, Note_off_c, 1, 47, 64
3, 52320, Note_on_c, 1, 45, 64
3, 52560, Note_off_c, 1, 45, 64
3, 52560, Note_on_c, 1, 48, 64
3, 52800, Note_off_c, 1, 48, 64
3, 52800, Note_on_c, 1, 47, 64
3, 53040, Note_off_c, 1, 47, 64
3, 53040, Note_on_c, 1, 50, 64
3, 53280, Note_off_c, 1, 50, 64
3, 53280, Note_on_c, 1, 53, 64
3, 53520, Note_off_c, 1, 53, 64
3, 53520, Note_on_c, 1, 50, 64
3, 53760, Note_off_c, 1, 50, 64
3, 53760, Note_on_c, 1, 56, 64
3, 54240, Note_off_c, 1, 56, 64
3, 54240, Note_on_c, 1, 55, 64
3, 54480, Note_off_c, 1, 55, 64
3, 54480, Note_on_c, 1, 53, 64
3, 54720, Note_off_c, 1, 53, 64
3, 54720, Note_on_c, 1, 51, 64
3, 54960, Note_off_c, 1, 51, 64
3, 54960, Note_on_c, 1, 50, 64
3, 55200, Note_off_c, 1, 50, 64
3, 55200, Note_on_c, 1, 48, 64
3, 55440, Note_off_c, 1, 48, 64
3, 55440, Note_on_c, 1, 47, 64
3, 55680, Note_off_c, 1, 47, 64
3, 55680, Note_on_c, 1, 45, 64
3, 56160, Note_off_c, 1, 45, 64
3, 56160, Note_on_c, 1, 47, 64
3, 56400, Note_off_c, 1, 47, 64
3, 56400, Note_on_c, 1, 48, 64
3, 56640, Note_off_c, 1, 48, 64
3, 56640, Note_on_c, 1, 47, 64
3, 56880, Note_off_c, 1, 47, 64
3, 56880, Note_on_c, 1, 48, 64
3, 57120, Note_off_c, 1, 48, 64
3, 57120, Note_on_c, 1, 50, 64
3, 57360, Note_off_c, 1, 50, 64
3, 57360, Note_on_c, 1, 47, 64
3, 57600, Note_off_c, 1, 47, 64
3, 57600, Note_on_c, 1, 48, 64
3, 58080, Note_off_c, 1, 48, 64
3, 58080, Note_on_c, 1, 50, 64
3, 58320, Note_off_c, 1, 50, 64
3, 58320, Note_on_c, 1, 51, 64
3, 58560, Note_off_c, 1, 51, 64
3, 58560, Note_on_c, 1, 50, 64
3, 59040, Note_off_c, 1, 50, 64
3, 59040, Note_on_c, 1, 48, 64
3, 59520, Note_off_c, 1, 48, 64
3, 59520, Note_on_c, 1, 55, 64
3, 60480, Note_off_c, 1, 55, 64
3, 60480, Note_on_c, 1, 56, 64
3, 61440, Note_off_c, 1, 56, 64
3, 61680, Note_on_c, 1, 59, 64
3, 61920, Note_off_c, 1, 59, 64
3, 61920, Note_on_c, 1, 56, 64
3, 62160, Note_off_c, 1, 56, 64
3, 62160, Note_on_c, 1, 55, 64
3, 62400, Note_off_c, 1, 55, 64
3, 62640, Note_on_c, 1, 53, 64
3, 62880, Note_off_c, 1, 53, 64
3, 62880, Note_on_c, 1, 51, 64
3, 63120, Note_off_c, 1, 51, 64
3, 63120, Note_on_c, 1, 50, 64
3, 63360, Note_off_c, 1, 50, 64
3, 63600, Note_on_c, 1, 51, 64
3, 63840, Note_off_c, 1, 51, 64
3, 63840, Note_on_c, 1, 50, 64
3, 64080, Note_off_c, 1, 50, 64
3, 64080, Note_on_c, 1, 48, 64
3, 64320, Note_off_c, 1, 48, 64
3, 64320, Note_on_c, 1, 47, 64
3, 64800, Note_off_c, 1, 47, 64
3, 64800, Note_on_c, 1, 46, 64
3, 65280, Note_off_c, 1, 46, 64
3, 65280, Note_on_c, 1, 45, 64
3, 65760, Note_off_c, 1, 45, 64
3, 65760, Note_on_c, 1, 44, 64
3, 66240, Note_off_c, 1, 44, 64
3, 66240, Note_on_c, 1, 43, 64
3, 67200, Note_off_c, 1, 43, 64
3, 67200, Note_on_c, 1, 42, 64
3, 68160, Note_off_c, 1, 42, 64
3, 68160, Note_on_c, 1, 51, 64
3, 69120, Note_off_c, 1, 51, 64
3, 69600, Note_on_c, 1, 43, 64
3, 70080, Note_off_c, 1, 43, 64
3, 70080, Note_on_c, 1, 44, 64
3, 70560, Note_off_c, 1, 44, 64
3, 70560, Note_on_c, 1, 45, 64
3, 71520, Note_off_c, 1, 45, 64
3, 71520, Note_on_c, 1, 46, 64
3, 72000, Note_off_c, 1, 46, 64
3, 72000, Note_on_c, 1, 47, 64
3, 72480, Note_off_c, 1, 47, 64
3, 72480, Note_on_c, 1, 48, 64
3, 73440, Note_off_c, 1, 48, 64
3, 73440, Note_on_c, 1, 50, 64
3, 73920, Note_off_c, 1, 50, 64
3, 73920, Note_on_c, 1, 51, 64
3, 74400, Note_off_c, 1, 51, 64
3, 74400, Note_on_c, 1, 55, 64
3, 74880, Note_off_c, 1, 55, 64
3, 74880, Note_on_c, 1, 50, 64
3, 75360, Note_off_c, 1, 50, 64
3, 75360, Note_on_c, 1, 45, 64
3, 75840, Note_off_c, 1, 45, 64
3, 75840, Note_on_c, 1, 47, 64
3, 76800, Note_off_c, 1, 47, 64
3, 76800, Note_on_c, 1, 48, 64
3, 77760, Note_off_c, 1, 48, 64
3, 77760, End_track
0, 0, End_of_file
