0, 0, Header, 1, 3, 192
1, 0, Start_track
1, 0, Title_t, "Preludiul nr.6 în mi minor, BWV 938"
1, 0, Copyright_t, "Copyright © 1999 by Gabriel Mihai Dragomir"
1, 0, Text_t, "Prelude in E minor /Praeludium e-moll, BWV 938\012"
1, 0, Text_t, "By Johann Sebastian Bach (1685 - 1750)\012"
1, 0, Text_t, "Sequenced: 3 iunie - 11 septembrie 1999, Bucuresti\012"
1, 0, Text_t, "by Gabriel Mihai Dragomir <gmd@k.ro>\012"
1, 0, Text_t, "http://gmd.iwarp.com\012"
1, 0, Text_t, "http://homestead.com/bachmidipage/files\012"
1, 0, Time_signature, 3, 3, 12, 8
1, 0, Key_signature, 1, "major"
1, 0, Tempo, 666667
1, 0, Marker_t, "Allegro non troppo"
1, 0, Marker_t, "A"
1, 5760, Marker_t, "A'"
1, 11520, Marker_t, "B"
1, 19584, Marker_t, "B'"
1, 27088, Tempo, 674157
1, 27104, Tempo, 681818
1, 27120, Tempo, 689655
1, 27136, Tempo, 697674
1, 27152, Tempo, 705882
1, 27168, Tempo, 714286
1, 27184, Tempo, 722892
1, 27200, Tempo, 731707
1, 27216, Tempo, 740741
1, 27232, Tempo, 750000
1, 27248, Tempo, 759494
1, 27264, Tempo, 769231
1, 27280, Tempo, 779221
1, 27296, Tempo, 789474
1, 27312, Tempo, 800000
1, 27328, Tempo, 810811
1, 27344, Tempo, 821918
1, 27360, Tempo, 833333
1, 27360, End_track
2, 0, Start_track
2, 0, MIDI_port, 0
2, 0, Title_t, "Right Hand"
2, 0, Program_c, 0, 0
2, 0, Control_c, 0, 7, 127
2, 0, Control_c, 0, 10, 71
2, 0, Control_c, 0, 91, 79
2, 0, Control_c, 0, 93, 0
2, 48, Note_on_c, 0, 64, 105
2, 96, Note_on_c, 0, 64, 0
2, 96, Note_on_c, 0, 67, 105
2, 144, Note_on_c, 0, 67, 0
2, 144, Note_on_c, 0, 71, 105
2, 192, Note_on_c, 0, 71, 0
2, 192, Note_on_c, 0, 67, 105
2, 240, Note_on_c, 0, 67, 0
2, 240, Note_on_c, 0, 64, 105
2, 288, Note_on_c, 0, 64, 0
2, 288, Note_on_c, 0, 76, 105
2, 384, Note_on_c, 0, 76, 0
2, 384, Note_on_c, 0, 71, 105
2, 478, Note_on_c, 0, 71, 0
2, 480, Note_on_c, 0, 76, 105
2, 512, Note_on_c, 0, 76, 0
2, 576, Note_on_c, 0, 75, 105
2, 608, Note_on_c, 0, 75, 0
2, 624, Note_on_c, 0, 71, 105
2, 672, Note_on_c, 0, 71, 0
2, 672, Note_on_c, 0, 75, 105
2, 720, Note_on_c, 0, 75, 0
2, 720, Note_on_c, 0, 78, 105
2, 768, Note_on_c, 0, 78, 0
2, 768, Note_on_c, 0, 75, 105
2, 816, Note_on_c, 0, 75, 0
2, 816, Note_on_c, 0, 71, 105
2, 864, Note_on_c, 0, 71, 0
2, 864, Note_on_c, 0, 83, 105
2, 960, Note_on_c, 0, 83, 0
2, 960, Note_on_c, 0, 78, 105
2, 1054, Note_on_c, 0, 78, 0
2, 1056, Note_on_c, 0, 83, 105
2, 1088, Note_on_c, 0, 83, 0
2, 1152, Note_on_c, 0, 79, 70
2, 1200, Note_on_c, 0, 79, 0
2, 1200, Note_on_c, 0, 78, 70
2, 1248, Note_on_c, 0, 78, 0
2, 1248, Note_on_c, 0, 76, 70
2, 1296, Note_on_c, 0, 76, 0
2, 1296, Note_on_c, 0, 74, 70
2, 1344, Note_on_c, 0, 74, 0
2, 1344, Note_on_c, 0, 72, 70
2, 1392, Note_on_c, 0, 72, 0
2, 1392, Note_on_c, 0, 71, 70
2, 1440, Note_on_c, 0, 71, 0
2, 1440, Note_on_c, 0, 69, 70
2, 1488, Note_on_c, 0, 69, 0
2, 1488, Note_on_c, 0, 72, 70
2, 1536, Note_on_c, 0, 72, 0
2, 1536, Note_on_c, 0, 76, 70
2, 1584, Note_on_c, 0, 76, 0
2, 1584, Note_on_c, 0, 79, 70
2, 1632, Note_on_c, 0, 79, 0
2, 1632, Note_on_c, 0, 78, 70
2, 1680, Note_on_c, 0, 78, 0
2, 1680, Note_on_c, 0, 76, 70
2, 1726, Note_on_c, 0, 76, 0
2, 1728, Note_on_c, 0, 78, 70
2, 1776, Note_on_c, 0, 78, 0
2, 1776, Note_on_c, 0, 76, 70
2, 1824, Note_on_c, 0, 76, 0
2, 1824, Note_on_c, 0, 74, 70
2, 1872, Note_on_c, 0, 74, 0
2, 1872, Note_on_c, 0, 72, 70
2, 1920, Note_on_c, 0, 72, 0
2, 1920, Note_on_c, 0, 71, 70
2, 1968, Note_on_c, 0, 71, 0
2, 1968, Note_on_c, 0, 69, 70
2, 2016, Note_on_c, 0, 69, 0
2, 2016, Note_on_c, 0, 67, 70
2, 2064, Note_on_c, 0, 67, 0
2, 2064, Note_on_c, 0, 71, 70
2, 2112, Note_on_c, 0, 71, 0
2, 2112, Note_on_c, 0, 74, 70
2, 2160, Note_on_c, 0, 74, 0
2, 2160, Note_on_c, 0, 77, 70
2, 2208, Note_on_c, 0, 77, 0
2, 2208, Note_on_c, 0, 76, 70
2, 2256, Note_on_c, 0, 76, 0
2, 2256, Note_on_c, 0, 74, 70
2, 2302, Note_on_c, 0, 74, 0
2, 2304, Note_on_c, 0, 76, 70
2, 2400, Note_on_c, 0, 76, 0
2, 2400, Note_on_c, 0, 78, 72
2, 2416, Note_on_c, 0, 78, 0
2, 2416, Note_on_c, 0, 76, 72
2, 2432, Note_on_c, 0, 76, 0
2, 2432, Note_on_c, 0, 78, 72
2, 2494, Note_on_c, 0, 78, 0
2, 2496, Note_on_c, 0, 79, 73
2, 2590, Note_on_c, 0, 79, 0
2, 2592, Note_on_c, 0, 74, 76
2, 2608, Note_on_c, 0, 74, 0
2, 2608, Note_on_c, 0, 72, 76
2, 2624, Note_on_c, 0, 72, 0
2, 2624, Note_on_c, 0, 74, 76
2, 2782, Note_on_c, 0, 74, 0
2, 2880, Note_on_c, 0, 79, 83
2, 2976, Note_on_c, 0, 79, 0
2, 2976, Note_on_c, 0, 79, 86
2, 2992, Note_on_c, 0, 79, 0
2, 2992, Note_on_c, 0, 78, 86
2, 3008, Note_on_c, 0, 78, 0
2, 3008, Note_on_c, 0, 79, 86
2, 3024, Note_on_c, 0, 79, 0
2, 3024, Note_on_c, 0, 78, 86
2, 3072, Note_on_c, 0, 78, 0
2, 3072, Note_on_c, 0, 79, 88
2, 3168, Note_on_c, 0, 79, 0
2, 3168, Note_on_c, 0, 81, 92
2, 3216, Note_on_c, 0, 81, 0
2, 3216, Note_on_c, 0, 83, 94
2, 3264, Note_on_c, 0, 83, 0
2, 3264, Note_on_c, 0, 84, 96
2, 3358, Note_on_c, 0, 84, 0
2, 3456, Note_on_c, 0, 83, 105
2, 3552, Note_on_c, 0, 83, 0
2, 3552, Note_on_c, 0, 83, 105
2, 3568, Note_on_c, 0, 83, 0
2, 3568, Note_on_c, 0, 81, 105
2, 3584, Note_on_c, 0, 81, 0
2, 3584, Note_on_c, 0, 83, 105
2, 3600, Note_on_c, 0, 83, 0
2, 3600, Note_on_c, 0, 81, 105
2, 3648, Note_on_c, 0, 81, 0
2, 3648, Note_on_c, 0, 79, 105
2, 3744, Note_on_c, 0, 79, 0
2, 3744, Note_on_c, 0, 81, 102
2, 3840, Note_on_c, 0, 81, 0
2, 3840, Note_on_c, 0, 72, 99
2, 3934, Note_on_c, 0, 72, 0
2, 3936, Note_on_c, 0, 71, 96
2, 3968, Note_on_c, 0, 71, 0
2, 4032, Note_on_c, 0, 79, 93
2, 4128, Note_on_c, 0, 79, 0
2, 4128, Note_on_c, 0, 79, 90
2, 4144, Note_on_c, 0, 79, 0
2, 4144, Note_on_c, 0, 78, 90
2, 4160, Note_on_c, 0, 78, 0
2, 4160, Note_on_c, 0, 79, 90
2, 4176, Note_on_c, 0, 79, 0
2, 4176, Note_on_c, 0, 78, 90
2, 4224, Note_on_c, 0, 78, 0
2, 4224, Note_on_c, 0, 76, 88
2, 4320, Note_on_c, 0, 76, 0
2, 4320, Note_on_c, 0, 78, 84
2, 4416, Note_on_c, 0, 78, 0
2, 4416, Note_on_c, 0, 69, 80
2, 4510, Note_on_c, 0, 69, 0
2, 4512, Note_on_c, 0, 67, 75
2, 4544, Note_on_c, 0, 67, 0
2, 4608, Note_on_c, 0, 76, 70
2, 4702, Note_on_c, 0, 76, 0
2, 4704, Note_on_c, 0, 78, 72
2, 4752, Note_on_c, 0, 78, 0
2, 4752, Note_on_c, 0, 76, 73
2, 4800, Note_on_c, 0, 76, 0
2, 4800, Note_on_c, 0, 74, 74
2, 4848, Note_on_c, 0, 74, 0
2, 4848, Note_on_c, 0, 73, 75
2, 4896, Note_on_c, 0, 73, 0
2, 4896, Note_on_c, 0, 78, 76
2, 4990, Note_on_c, 0, 78, 0
2, 4992, Note_on_c, 0, 79, 79
2, 5040, Note_on_c, 0, 79, 0
2, 5040, Note_on_c, 0, 78, 80
2, 5088, Note_on_c, 0, 78, 0
2, 5088, Note_on_c, 0, 76, 81
2, 5136, Note_on_c, 0, 76, 0
2, 5136, Note_on_c, 0, 74, 82
2, 5184, Note_on_c, 0, 74, 0
2, 5184, Note_on_c, 0, 73, 83
2, 5232, Note_on_c, 0, 73, 0
2, 5232, Note_on_c, 0, 76, 84
2, 5280, Note_on_c, 0, 76, 0
2, 5280, Note_on_c, 0, 74, 85
2, 5328, Note_on_c, 0, 74, 0
2, 5328, Note_on_c, 0, 73, 87
2, 5376, Note_on_c, 0, 73, 0
2, 5376, Note_on_c, 0, 71, 89
2, 5424, Note_on_c, 0, 71, 0
2, 5424, Note_on_c, 0, 70, 91
2, 5472, Note_on_c, 0, 70, 0
2, 5472, Note_on_c, 0, 71, 93
2, 5488, Note_on_c, 0, 71, 0
2, 5488, Note_on_c, 0, 70, 93
2, 5504, Note_on_c, 0, 70, 0
2, 5504, Note_on_c, 0, 71, 93
2, 5728, Note_on_c, 0, 71, 0
2, 5808, Note_on_c, 0, 64, 105
2, 5856, Note_on_c, 0, 64, 0
2, 5856, Note_on_c, 0, 67, 105
2, 5904, Note_on_c, 0, 67, 0
2, 5904, Note_on_c, 0, 71, 105
2, 5952, Note_on_c, 0, 71, 0
2, 5952, Note_on_c, 0, 67, 105
2, 6000, Note_on_c, 0, 67, 0
2, 6000, Note_on_c, 0, 64, 105
2, 6048, Note_on_c, 0, 64, 0
2, 6048, Note_on_c, 0, 76, 105
2, 6144, Note_on_c, 0, 76, 0
2, 6144, Note_on_c, 0, 71, 105
2, 6238, Note_on_c, 0, 71, 0
2, 6240, Note_on_c, 0, 76, 105
2, 6272, Note_on_c, 0, 76, 0
2, 6336, Note_on_c, 0, 75, 105
2, 6368, Note_on_c, 0, 75, 0
2, 6384, Note_on_c, 0, 71, 105
2, 6432, Note_on_c, 0, 71, 0
2, 6432, Note_on_c, 0, 75, 105
2, 6480, Note_on_c, 0, 75, 0
2, 6480, Note_on_c, 0, 78, 105
2, 6528, Note_on_c, 0, 78, 0
2, 6528, Note_on_c, 0, 75, 105
2, 6576, Note_on_c, 0, 75, 0
2, 6576, Note_on_c, 0, 71, 105
2, 6624, Note_on_c, 0, 71, 0
2, 6624, Note_on_c, 0, 83, 105
2, 6720, Note_on_c, 0, 83, 0
2, 6720, Note_on_c, 0, 78, 105
2, 6814, Note_on_c, 0, 78, 0
2, 6816, Note_on_c, 0, 83, 105
2, 6848, Note_on_c, 0, 83, 0
2, 6912, Note_on_c, 0, 79, 70
2, 6960, Note_on_c, 0, 79, 0
2, 6960, Note_on_c, 0, 78, 70
2, 7008, Note_on_c, 0, 78, 0
2, 7008, Note_on_c, 0, 76, 70
2, 7056, Note_on_c, 0, 76, 0
2, 7056, Note_on_c, 0, 74, 70
2, 7104, Note_on_c, 0, 74, 0
2, 7104, Note_on_c, 0, 72, 70
2, 7152, Note_on_c, 0, 72, 0
2, 7152, Note_on_c, 0, 71, 70
2, 7200, Note_on_c, 0, 71, 0
2, 7200, Note_on_c, 0, 69, 70
2, 7248, Note_on_c, 0, 69, 0
2, 7248, Note_on_c, 0, 72, 70
2, 7296, Note_on_c, 0, 72, 0
2, 7296, Note_on_c, 0, 76, 70
2, 7344, Note_on_c, 0, 76, 0
2, 7344, Note_on_c, 0, 79, 70
2, 7392, Note_on_c, 0, 79, 0
2, 7392, Note_on_c, 0, 78, 70
2, 7440, Note_on_c, 0, 78, 0
2, 7440, Note_on_c, 0, 76, 70
2, 7486, Note_on_c, 0, 76, 0
2, 7488, Note_on_c, 0, 78, 70
2, 7536, Note_on_c, 0, 78, 0
2, 7536, Note_on_c, 0, 76, 70
2, 7584, Note_on_c, 0, 76, 0
2, 7584, Note_on_c, 0, 74, 70
2, 7632, Note_on_c, 0, 74, 0
2, 7632, Note_on_c, 0, 72, 70
2, 7680, Note_on_c, 0, 72, 0
2, 7680, Note_on_c, 0, 71, 70
2, 7728, Note_on_c, 0, 71, 0
2, 7728, Note_on_c, 0, 69, 70
2, 7776, Note_on_c, 0, 69, 0
2, 7776, Note_on_c, 0, 67, 70
2, 7824, Note_on_c, 0, 67, 0
2, 7824, Note_on_c, 0, 71, 70
2, 7872, Note_on_c, 0, 71, 0
2, 7872, Note_on_c, 0, 74, 70
2, 7920, Note_on_c, 0, 74, 0
2, 7920, Note_on_c, 0, 77, 70
2, 7968, Note_on_c, 0, 77, 0
2, 7968, Note_on_c, 0, 76, 70
2, 8016, Note_on_c, 0, 76, 0
2, 8016, Note_on_c, 0, 74, 70
2, 8062, Note_on_c, 0, 74, 0
2, 8064, Note_on_c, 0, 76, 70
2, 8160, Note_on_c, 0, 76, 0
2, 8160, Note_on_c, 0, 78, 72
2, 8176, Note_on_c, 0, 78, 0
2, 8176, Note_on_c, 0, 76, 72
2, 8192, Note_on_c, 0, 76, 0
2, 8192, Note_on_c, 0, 78, 72
2, 8254, Note_on_c, 0, 78, 0
2, 8256, Note_on_c, 0, 79, 73
2, 8350, Note_on_c, 0, 79, 0
2, 8352, Note_on_c, 0, 74, 76
2, 8368, Note_on_c, 0, 74, 0
2, 8368, Note_on_c, 0, 72, 76
2, 8384, Note_on_c, 0, 72, 0
2, 8384, Note_on_c, 0, 74, 76
2, 8542, Note_on_c, 0, 74, 0
2, 8640, Note_on_c, 0, 79, 83
2, 8736, Note_on_c, 0, 79, 0
2, 8736, Note_on_c, 0, 79, 86
2, 8752, Note_on_c, 0, 79, 0
2, 8752, Note_on_c, 0, 78, 86
2, 8768, Note_on_c, 0, 78, 0
2, 8768, Note_on_c, 0, 79, 86
2, 8784, Note_on_c, 0, 79, 0
2, 8784, Note_on_c, 0, 78, 86
2, 8832, Note_on_c, 0, 78, 0
2, 8832, Note_on_c, 0, 79, 88
2, 8928, Note_on_c, 0, 79, 0
2, 8928, Note_on_c, 0, 81, 92
2, 8976, Note_on_c, 0, 81, 0
2, 8976, Note_on_c, 0, 83, 94
2, 9024, Note_on_c, 0, 83, 0
2, 9024, Note_on_c, 0, 84, 96
2, 9118, Note_on_c, 0, 84, 0
2, 9216, Note_on_c, 0, 83, 105
2, 9312, Note_on_c, 0, 83, 0
2, 9312, Note_on_c, 0, 83, 105
2, 9328, Note_on_c, 0, 83, 0
2, 9328, Note_on_c, 0, 81, 105
2, 9344, Note_on_c, 0, 81, 0
2, 9344, Note_on_c, 0, 83, 105
2, 9360, Note_on_c, 0, 83, 0
2, 9360, Note_on_c, 0, 81, 105
2, 9408, Note_on_c, 0, 81, 0
2, 9408, Note_on_c, 0, 79, 105
2, 9504, Note_on_c, 0, 79, 0
2, 9504, Note_on_c, 0, 81, 102
2, 9600, Note_on_c, 0, 81, 0
2, 9600, Note_on_c, 0, 72, 99
2, 9694, Note_on_c, 0, 72, 0
2, 9696, Note_on_c, 0, 71, 96
2, 9728, Note_on_c, 0, 71, 0
2, 9792, Note_on_c, 0, 79, 93
2, 9888, Note_on_c, 0, 79, 0
2, 9888, Note_on_c, 0, 79, 90
2, 9904, Note_on_c, 0, 79, 0
2, 9904, Note_on_c, 0, 78, 90
2, 9920, Note_on_c, 0, 78, 0
2, 9920, Note_on_c, 0, 79, 90
2, 9936, Note_on_c, 0, 79, 0
2, 9936, Note_on_c, 0, 78, 90
2, 9984, Note_on_c, 0, 78, 0
2, 9984, Note_on_c, 0, 76, 88
2, 10080, Note_on_c, 0, 76, 0
2, 10080, Note_on_c, 0, 78, 84
2, 10176, Note_on_c, 0, 78, 0
2, 10176, Note_on_c, 0, 69, 80
2, 10270, Note_on_c, 0, 69, 0
2, 10272, Note_on_c, 0, 67, 75
2, 10304, Note_on_c, 0, 67, 0
2, 10368, Note_on_c, 0, 76, 70
2, 10462, Note_on_c, 0, 76, 0
2, 10464, Note_on_c, 0, 78, 72
2, 10512, Note_on_c, 0, 78, 0
2, 10512, Note_on_c, 0, 76, 73
2, 10560, Note_on_c, 0, 76, 0
2, 10560, Note_on_c, 0, 74, 74
2, 10608, Note_on_c, 0, 74, 0
2, 10608, Note_on_c, 0, 73, 75
2, 10656, Note_on_c, 0, 73, 0
2, 10656, Note_on_c, 0, 78, 76
2, 10750, Note_on_c, 0, 78, 0
2, 10752, Note_on_c, 0, 79, 79
2, 10800, Note_on_c, 0, 79, 0
2, 10800, Note_on_c, 0, 78, 80
2, 10848, Note_on_c, 0, 78, 0
2, 10848, Note_on_c, 0, 76, 81
2, 10896, Note_on_c, 0, 76, 0
2, 10896, Note_on_c, 0, 74, 82
2, 10944, Note_on_c, 0, 74, 0
2, 10944, Note_on_c, 0, 73, 83
2, 10992, Note_on_c, 0, 73, 0
2, 10992, Note_on_c, 0, 76, 84
2, 11040, Note_on_c, 0, 76, 0
2, 11040, Note_on_c, 0, 74, 85
2, 11088, Note_on_c, 0, 74, 0
2, 11088, Note_on_c, 0, 73, 87
2, 11136, Note_on_c, 0, 73, 0
2, 11136, Note_on_c, 0, 71, 89
2, 11184, Note_on_c, 0, 71, 0
2, 11184, Note_on_c, 0, 70, 91
2, 11232, Note_on_c, 0, 70, 0
2, 11232, Note_on_c, 0, 71, 93
2, 11248, Note_on_c, 0, 71, 0
2, 11248, Note_on_c, 0, 70, 93
2, 11264, Note_on_c, 0, 70, 0
2, 11264, Note_on_c, 0, 71, 93
2, 11488, Note_on_c, 0, 71, 0
2, 11568, Note_on_c, 0, 63, 105
2, 11616, Note_on_c, 0, 63, 0
2, 11616, Note_on_c, 0, 66, 105
2, 11664, Note_on_c, 0, 66, 0
2, 11664, Note_on_c, 0, 69, 105
2, 11712, Note_on_c, 0, 69, 0
2, 11712, Note_on_c, 0, 66, 105
2, 11760, Note_on_c, 0, 66, 0
2, 11760, Note_on_c, 0, 63, 105
2, 11808, Note_on_c, 0, 63, 0
2, 11808, Note_on_c, 0, 72, 105
2, 11904, Note_on_c, 0, 72, 0
2, 11904, Note_on_c, 0, 71, 105
2, 11998, Note_on_c, 0, 71, 0
2, 12000, Note_on_c, 0, 69, 105
2, 12142, Note_on_c, 0, 69, 0
2, 12144, Note_on_c, 0, 68, 105
2, 12192, Note_on_c, 0, 68, 0
2, 12192, Note_on_c, 0, 71, 105
2, 12240, Note_on_c, 0, 71, 0
2, 12240, Note_on_c, 0, 74, 105
2, 12288, Note_on_c, 0, 74, 0
2, 12288, Note_on_c, 0, 71, 105
2, 12336, Note_on_c, 0, 71, 0
2, 12336, Note_on_c, 0, 68, 105
2, 12384, Note_on_c, 0, 68, 0
2, 12384, Note_on_c, 0, 77, 105
2, 12480, Note_on_c, 0, 77, 0
2, 12480, Note_on_c, 0, 76, 105
2, 12574, Note_on_c, 0, 76, 0
2, 12576, Note_on_c, 0, 74, 105
2, 12718, Note_on_c, 0, 74, 0
2, 12720, Note_on_c, 0, 72, 105
2, 12766, Note_on_c, 0, 72, 0
2, 12768, Note_on_c, 0, 71, 105
2, 12814, Note_on_c, 0, 71, 0
2, 12816, Note_on_c, 0, 69, 105
2, 12862, Note_on_c, 0, 69, 0
2, 12864, Note_on_c, 0, 81, 105
2, 13006, Note_on_c, 0, 81, 0
2, 13008, Note_on_c, 0, 77, 105
2, 13054, Note_on_c, 0, 77, 0
2, 13056, Note_on_c, 0, 79, 105
2, 13102, Note_on_c, 0, 79, 0
2, 13104, Note_on_c, 0, 81, 105
2, 13150, Note_on_c, 0, 81, 0
2, 13152, Note_on_c, 0, 74, 105
2, 13294, Note_on_c, 0, 74, 0
2, 13296, Note_on_c, 0, 71, 105
2, 13342, Note_on_c, 0, 71, 0
2, 13344, Note_on_c, 0, 69, 105
2, 13390, Note_on_c, 0, 69, 0
2, 13392, Note_on_c, 0, 67, 105
2, 13438, Note_on_c, 0, 67, 0
2, 13440, Note_on_c, 0, 79, 105
2, 13582, Note_on_c, 0, 79, 0
2, 13584, Note_on_c, 0, 76, 105
2, 13630, Note_on_c, 0, 76, 0
2, 13632, Note_on_c, 0, 77, 105
2, 13678, Note_on_c, 0, 77, 0
2, 13680, Note_on_c, 0, 79, 105
2, 13726, Note_on_c, 0, 79, 0
2, 13728, Note_on_c, 0, 72, 105
2, 13870, Note_on_c, 0, 72, 0
2, 13872, Note_on_c, 0, 77, 105
2, 13918, Note_on_c, 0, 77, 0
2, 13920, Note_on_c, 0, 71, 105
2, 13966, Note_on_c, 0, 71, 0
2, 13968, Note_on_c, 0, 76, 105
2, 14014, Note_on_c, 0, 76, 0
2, 14016, Note_on_c, 0, 69, 105
2, 14062, Note_on_c, 0, 69, 0
2, 14064, Note_on_c, 0, 74, 105
2, 14110, Note_on_c, 0, 74, 0
2, 14112, Note_on_c, 0, 67, 105
2, 14158, Note_on_c, 0, 67, 0
2, 14160, Note_on_c, 0, 72, 105
2, 14206, Note_on_c, 0, 72, 0
2, 14208, Note_on_c, 0, 65, 105
2, 14254, Note_on_c, 0, 65, 0
2, 14256, Note_on_c, 0, 71, 105
2, 14302, Note_on_c, 0, 71, 0
2, 14304, Note_on_c, 0, 64, 105
2, 14350, Note_on_c, 0, 64, 0
2, 14352, Note_on_c, 0, 69, 105
2, 14398, Note_on_c, 0, 69, 0
2, 14400, Note_on_c, 0, 68, 105
2, 14446, Note_on_c, 0, 68, 0
2, 14448, Note_on_c, 0, 69, 105
2, 14494, Note_on_c, 0, 69, 0
2, 14496, Note_on_c, 0, 72, 105
2, 14542, Note_on_c, 0, 72, 0
2, 14544, Note_on_c, 0, 71, 105
2, 14590, Note_on_c, 0, 71, 0
2, 14592, Note_on_c, 0, 69, 105
2, 14638, Note_on_c, 0, 69, 0
2, 14640, Note_on_c, 0, 68, 105
2, 14686, Note_on_c, 0, 68, 0
2, 14688, Note_on_c, 0, 69, 105
2, 14704, Note_on_c, 0, 69, 0
2, 14704, Note_on_c, 0, 68, 104
2, 14720, Note_on_c, 0, 68, 0
2, 14720, Note_on_c, 0, 69, 102
2, 14878, Note_on_c, 0, 69, 0
2, 15024, Note_on_c, 0, 64, 70
2, 15072, Note_on_c, 0, 64, 0
2, 15072, Note_on_c, 0, 69, 70
2, 15120, Note_on_c, 0, 69, 0
2, 15120, Note_on_c, 0, 68, 70
2, 15168, Note_on_c, 0, 68, 0
2, 15168, Note_on_c, 0, 69, 70
2, 15216, Note_on_c, 0, 69, 0
2, 15216, Note_on_c, 0, 72, 70
2, 15264, Note_on_c, 0, 72, 0
2, 15264, Note_on_c, 0, 66, 70
2, 15312, Note_on_c, 0, 66, 0
2, 15312, Note_on_c, 0, 72, 70
2, 15360, Note_on_c, 0, 72, 0
2, 15360, Note_on_c, 0, 64, 70
2, 15408, Note_on_c, 0, 64, 0
2, 15408, Note_on_c, 0, 72, 70
2, 15456, Note_on_c, 0, 72, 0
2, 15456, Note_on_c, 0, 62, 70
2, 15504, Note_on_c, 0, 62, 0
2, 15504, Note_on_c, 0, 72, 70
2, 15552, Note_on_c, 0, 72, 0
2, 15552, Note_on_c, 0, 71, 70
2, 15598, Note_on_c, 0, 71, 0
2, 15600, Note_on_c, 0, 62, 70
2, 15648, Note_on_c, 0, 62, 0
2, 15648, Note_on_c, 0, 67, 70
2, 15696, Note_on_c, 0, 67, 0
2, 15696, Note_on_c, 0, 66, 70
2, 15744, Note_on_c, 0, 66, 0
2, 15744, Note_on_c, 0, 67, 70
2, 15792, Note_on_c, 0, 67, 0
2, 15792, Note_on_c, 0, 71, 70
2, 15840, Note_on_c, 0, 71, 0
2, 15840, Note_on_c, 0, 64, 70
2, 15888, Note_on_c, 0, 64, 0
2, 15888, Note_on_c, 0, 71, 70
2, 15936, Note_on_c, 0, 71, 0
2, 15936, Note_on_c, 0, 62, 70
2, 15984, Note_on_c, 0, 62, 0
2, 15984, Note_on_c, 0, 71, 70
2, 16032, Note_on_c, 0, 71, 0
2, 16032, Note_on_c, 0, 60, 70
2, 16080, Note_on_c, 0, 60, 0
2, 16080, Note_on_c, 0, 71, 70
2, 16128, Note_on_c, 0, 71, 0
2, 16128, Note_on_c, 0, 69, 70
2, 16174, Note_on_c, 0, 69, 0
2, 16176, Note_on_c, 0, 67, 70
2, 16224, Note_on_c, 0, 67, 0
2, 16224, Note_on_c, 0, 66, 70
2, 16272, Note_on_c, 0, 66, 0
2, 16272, Note_on_c, 0, 69, 70
2, 16320, Note_on_c, 0, 69, 0
2, 16320, Note_on_c, 0, 64, 70
2, 16368, Note_on_c, 0, 64, 0
2, 16368, Note_on_c, 0, 69, 70
2, 16416, Note_on_c, 0, 69, 0
2, 16416, Note_on_c, 0, 63, 70
2, 16464, Note_on_c, 0, 63, 0
2, 16464, Note_on_c, 0, 69, 70
2, 16512, Note_on_c, 0, 69, 0
2, 16512, Note_on_c, 0, 64, 70
2, 16560, Note_on_c, 0, 64, 0
2, 16560, Note_on_c, 0, 69, 70
2, 16608, Note_on_c, 0, 69, 0
2, 16608, Note_on_c, 0, 66, 70
2, 16656, Note_on_c, 0, 66, 0
2, 16656, Note_on_c, 0, 69, 70
2, 16704, Note_on_c, 0, 69, 0
2, 16704, Note_on_c, 0, 67, 70
2, 16752, Note_on_c, 0, 67, 0
2, 16752, Note_on_c, 0, 71, 70
2, 16800, Note_on_c, 0, 71, 0
2, 16800, Note_on_c, 0, 76, 71
2, 16848, Note_on_c, 0, 76, 0
2, 16848, Note_on_c, 0, 75, 71
2, 16896, Note_on_c, 0, 75, 0
2, 16896, Note_on_c, 0, 76, 72
2, 16944, Note_on_c, 0, 76, 0
2, 16944, Note_on_c, 0, 78, 72
2, 16992, Note_on_c, 0, 78, 0
2, 16992, Note_on_c, 0, 75, 73
2, 17038, Note_on_c, 0, 75, 0
2, 17040, Note_on_c, 0, 71, 74
2, 17088, Note_on_c, 0, 71, 0
2, 17088, Note_on_c, 0, 73, 74
2, 17136, Note_on_c, 0, 73, 0
2, 17136, Note_on_c, 0, 75, 75
2, 17184, Note_on_c, 0, 75, 0
2, 17184, Note_on_c, 0, 76, 75
2, 17232, Note_on_c, 0, 76, 0
2, 17232, Note_on_c, 0, 78, 76
2, 17280, Note_on_c, 0, 78, 0
2, 17280, Note_on_c, 0, 79, 77
2, 17328, Note_on_c, 0, 79, 0
2, 17328, Note_on_c, 0, 78, 77
2, 17376, Note_on_c, 0, 78, 0
2, 17376, Note_on_c, 0, 79, 78
2, 17424, Note_on_c, 0, 79, 0
2, 17424, Note_on_c, 0, 76, 78
2, 17472, Note_on_c, 0, 76, 0
2, 17472, Note_on_c, 0, 81, 79
2, 17520, Note_on_c, 0, 81, 0
2, 17520, Note_on_c, 0, 76, 79
2, 17568, Note_on_c, 0, 76, 0
2, 17568, Note_on_c, 0, 78, 80
2, 17616, Note_on_c, 0, 78, 0
2, 17616, Note_on_c, 0, 72, 81
2, 17664, Note_on_c, 0, 72, 0
2, 17664, Note_on_c, 0, 71, 81
2, 17712, Note_on_c, 0, 71, 0
2, 17712, Note_on_c, 0, 69, 82
2, 17760, Note_on_c, 0, 69, 0
2, 17760, Note_on_c, 0, 67, 82
2, 17808, Note_on_c, 0, 67, 0
2, 17808, Note_on_c, 0, 71, 83
2, 17856, Note_on_c, 0, 71, 0
2, 17856, Note_on_c, 0, 76, 84
2, 17904, Note_on_c, 0, 76, 0
2, 17904, Note_on_c, 0, 74, 84
2, 17952, Note_on_c, 0, 74, 0
2, 17952, Note_on_c, 0, 76, 85
2, 18000, Note_on_c, 0, 76, 0
2, 18000, Note_on_c, 0, 72, 85
2, 18048, Note_on_c, 0, 72, 0
2, 18048, Note_on_c, 0, 78, 86
2, 18096, Note_on_c, 0, 78, 0
2, 18096, Note_on_c, 0, 72, 86
2, 18144, Note_on_c, 0, 72, 0
2, 18144, Note_on_c, 0, 74, 87
2, 18192, Note_on_c, 0, 74, 0
2, 18192, Note_on_c, 0, 69, 88
2, 18240, Note_on_c, 0, 69, 0
2, 18240, Note_on_c, 0, 67, 88
2, 18288, Note_on_c, 0, 67, 0
2, 18288, Note_on_c, 0, 66, 89
2, 18336, Note_on_c, 0, 66, 0
2, 18336, Note_on_c, 0, 64, 89
2, 18384, Note_on_c, 0, 64, 0
2, 18384, Note_on_c, 0, 67, 90
2, 18432, Note_on_c, 0, 67, 0
2, 18432, Note_on_c, 0, 72, 91
2, 18478, Note_on_c, 0, 72, 0
2, 18480, Note_on_c, 0, 64, 91
2, 18528, Note_on_c, 0, 64, 0
2, 18528, Note_on_c, 0, 63, 92
2, 18576, Note_on_c, 0, 63, 0
2, 18576, Note_on_c, 0, 64, 92
2, 18624, Note_on_c, 0, 64, 0
2, 18624, Note_on_c, 0, 66, 93
2, 18672, Note_on_c, 0, 66, 0
2, 18672, Note_on_c, 0, 67, 93
2, 18720, Note_on_c, 0, 67, 0
2, 18720, Note_on_c, 0, 69, 94
2, 18768, Note_on_c, 0, 69, 0
2, 18768, Note_on_c, 0, 71, 95
2, 18816, Note_on_c, 0, 71, 0
2, 18816, Note_on_c, 0, 72, 95
2, 18864, Note_on_c, 0, 72, 0
2, 18864, Note_on_c, 0, 69, 96
2, 18912, Note_on_c, 0, 69, 0
2, 18912, Note_on_c, 0, 78, 96
2, 19056, Note_on_c, 0, 78, 0
2, 19056, Note_on_c, 0, 71, 98
2, 19104, Note_on_c, 0, 71, 0
2, 19104, Note_on_c, 0, 76, 99
2, 19152, Note_on_c, 0, 76, 0
2, 19152, Note_on_c, 0, 79, 99
2, 19200, Note_on_c, 0, 79, 0
2, 19200, Note_on_c, 0, 78, 100
2, 19248, Note_on_c, 0, 78, 0
2, 19248, Note_on_c, 0, 75, 101
2, 19296, Note_on_c, 0, 75, 0
2, 19296, Note_on_c, 0, 76, 101
2, 19312, Note_on_c, 0, 76, 0
2, 19312, Note_on_c, 0, 75, 101
2, 19328, Note_on_c, 0, 75, 0
2, 19328, Note_on_c, 0, 76, 101
2, 19552, Note_on_c, 0, 76, 0
2, 19632, Note_on_c, 0, 63, 105
2, 19680, Note_on_c, 0, 63, 0
2, 19680, Note_on_c, 0, 66, 105
2, 19728, Note_on_c, 0, 66, 0
2, 19728, Note_on_c, 0, 69, 105
2, 19776, Note_on_c, 0, 69, 0
2, 19776, Note_on_c, 0, 66, 105
2, 19824, Note_on_c, 0, 66, 0
2, 19824, Note_on_c, 0, 63, 105
2, 19872, Note_on_c, 0, 63, 0
2, 19872, Note_on_c, 0, 72, 105
2, 19968, Note_on_c, 0, 72, 0
2, 19968, Note_on_c, 0, 71, 105
2, 20062, Note_on_c, 0, 71, 0
2, 20064, Note_on_c, 0, 69, 105
2, 20206, Note_on_c, 0, 69, 0
2, 20208, Note_on_c, 0, 68, 105
2, 20256, Note_on_c, 0, 68, 0
2, 20256, Note_on_c, 0, 71, 105
2, 20304, Note_on_c, 0, 71, 0
2, 20304, Note_on_c, 0, 74, 105
2, 20352, Note_on_c, 0, 74, 0
2, 20352, Note_on_c, 0, 71, 105
2, 20400, Note_on_c, 0, 71, 0
2, 20400, Note_on_c, 0, 68, 105
2, 20448, Note_on_c, 0, 68, 0
2, 20448, Note_on_c, 0, 77, 105
2, 20544, Note_on_c, 0, 77, 0
2, 20544, Note_on_c, 0, 76, 105
2, 20638, Note_on_c, 0, 76, 0
2, 20640, Note_on_c, 0, 74, 105
2, 20782, Note_on_c, 0, 74, 0
2, 20784, Note_on_c, 0, 72, 105
2, 20830, Note_on_c, 0, 72, 0
2, 20832, Note_on_c, 0, 71, 105
2, 20878, Note_on_c, 0, 71, 0
2, 20880, Note_on_c, 0, 69, 105
2, 20926, Note_on_c, 0, 69, 0
2, 20928, Note_on_c, 0, 81, 105
2, 21070, Note_on_c, 0, 81, 0
2, 21072, Note_on_c, 0, 77, 105
2, 21118, Note_on_c, 0, 77, 0
2, 21120, Note_on_c, 0, 79, 105
2, 21166, Note_on_c, 0, 79, 0
2, 21168, Note_on_c, 0, 81, 105
2, 21214, Note_on_c, 0, 81, 0
2, 21216, Note_on_c, 0, 74, 105
2, 21358, Note_on_c, 0, 74, 0
2, 21360, Note_on_c, 0, 71, 105
2, 21406, Note_on_c, 0, 71, 0
2, 21408, Note_on_c, 0, 69, 105
2, 21454, Note_on_c, 0, 69, 0
2, 21456, Note_on_c, 0, 67, 105
2, 21502, Note_on_c, 0, 67, 0
2, 21504, Note_on_c, 0, 79, 105
2, 21646, Note_on_c, 0, 79, 0
2, 21648, Note_on_c, 0, 76, 105
2, 21694, Note_on_c, 0, 76, 0
2, 21696, Note_on_c, 0, 77, 105
2, 21742, Note_on_c, 0, 77, 0
2, 21744, Note_on_c, 0, 79, 105
2, 21790, Note_on_c, 0, 79, 0
2, 21792, Note_on_c, 0, 72, 105
2, 21934, Note_on_c, 0, 72, 0
2, 21936, Note_on_c, 0, 77, 105
2, 21982, Note_on_c, 0, 77, 0
2, 21984, Note_on_c, 0, 71, 105
2, 22030, Note_on_c, 0, 71, 0
2, 22032, Note_on_c, 0, 76, 105
2, 22078, Note_on_c, 0, 76, 0
2, 22080, Note_on_c, 0, 69, 105
2, 22126, Note_on_c, 0, 69, 0
2, 22128, Note_on_c, 0, 74, 105
2, 22174, Note_on_c, 0, 74, 0
2, 22176, Note_on_c, 0, 67, 105
2, 22222, Note_on_c, 0, 67, 0
2, 22224, Note_on_c, 0, 72, 105
2, 22270, Note_on_c, 0, 72, 0
2, 22272, Note_on_c, 0, 65, 105
2, 22318, Note_on_c, 0, 65, 0
2, 22320, Note_on_c, 0, 71, 105
2, 22366, Note_on_c, 0, 71, 0
2, 22368, Note_on_c, 0, 64, 105
2, 22414, Note_on_c, 0, 64, 0
2, 22416, Note_on_c, 0, 69, 105
2, 22462, Note_on_c, 0, 69, 0
2, 22464, Note_on_c, 0, 68, 105
2, 22510, Note_on_c, 0, 68, 0
2, 22512, Note_on_c, 0, 69, 105
2, 22558, Note_on_c, 0, 69, 0
2, 22560, Note_on_c, 0, 72, 105
2, 22606, Note_on_c, 0, 72, 0
2, 22608, Note_on_c, 0, 71, 105
2, 22654, Note_on_c, 0, 71, 0
2, 22656, Note_on_c, 0, 69, 105
2, 22702, Note_on_c, 0, 69, 0
2, 22704, Note_on_c, 0, 68, 105
2, 22750, Note_on_c, 0, 68, 0
2, 22752, Note_on_c, 0, 69, 105
2, 22768, Note_on_c, 0, 69, 0
2, 22768, Note_on_c, 0, 68, 104
2, 22784, Note_on_c, 0, 68, 0
2, 22784, Note_on_c, 0, 69, 102
2, 22942, Note_on_c, 0, 69, 0
2, 23088, Note_on_c, 0, 64, 70
2, 23136, Note_on_c, 0, 64, 0
2, 23136, Note_on_c, 0, 69, 70
2, 23184, Note_on_c, 0, 69, 0
2, 23184, Note_on_c, 0, 68, 70
2, 23232, Note_on_c, 0, 68, 0
2, 23232, Note_on_c, 0, 69, 70
2, 23280, Note_on_c, 0, 69, 0
2, 23280, Note_on_c, 0, 72, 70
2, 23328, Note_on_c, 0, 72, 0
2, 23328, Note_on_c, 0, 66, 70
2, 23376, Note_on_c, 0, 66, 0
2, 23376, Note_on_c, 0, 72, 70
2, 23424, Note_on_c, 0, 72, 0
2, 23424, Note_on_c, 0, 64, 70
2, 23472, Note_on_c, 0, 64, 0
2, 23472, Note_on_c, 0, 72, 70
2, 23520, Note_on_c, 0, 72, 0
2, 23520, Note_on_c, 0, 62, 70
2, 23568, Note_on_c, 0, 62, 0
2, 23568, Note_on_c, 0, 72, 70
2, 23616, Note_on_c, 0, 72, 0
2, 23616, Note_on_c, 0, 71, 70
2, 23662, Note_on_c, 0, 71, 0
2, 23664, Note_on_c, 0, 62, 70
2, 23712, Note_on_c, 0, 62, 0
2, 23712, Note_on_c, 0, 67, 70
2, 23760, Note_on_c, 0, 67, 0
2, 23760, Note_on_c, 0, 66, 70
2, 23808, Note_on_c, 0, 66, 0
2, 23808, Note_on_c, 0, 67, 70
2, 23856, Note_on_c, 0, 67, 0
2, 23856, Note_on_c, 0, 71, 70
2, 23904, Note_on_c, 0, 71, 0
2, 23904, Note_on_c, 0, 64, 70
2, 23952, Note_on_c, 0, 64, 0
2, 23952, Note_on_c, 0, 71, 70
2, 24000, Note_on_c, 0, 71, 0
2, 24000, Note_on_c, 0, 62, 70
2, 24048, Note_on_c, 0, 62, 0
2, 24048, Note_on_c, 0, 71, 70
2, 24096, Note_on_c, 0, 71, 0
2, 24096, Note_on_c, 0, 60, 70
2, 24144, Note_on_c, 0, 60, 0
2, 24144, Note_on_c, 0, 71, 70
2, 24192, Note_on_c, 0, 71, 0
2, 24192, Note_on_c, 0, 69, 70
2, 24238, Note_on_c, 0, 69, 0
2, 24240, Note_on_c, 0, 67, 70
2, 24288, Note_on_c, 0, 67, 0
2, 24288, Note_on_c, 0, 66, 70
2, 24336, Note_on_c, 0, 66, 0
2, 24336, Note_on_c, 0, 69, 70
2, 24384, Note_on_c, 0, 69, 0
2, 24384, Note_on_c, 0, 64, 70
2, 24432, Note_on_c, 0, 64, 0
2, 24432, Note_on_c, 0, 69, 70
2, 24480, Note_on_c, 0, 69, 0
2, 24480, Note_on_c, 0, 63, 70
2, 24528, Note_on_c, 0, 63, 0
2, 24528, Note_on_c, 0, 69, 70
2, 24576, Note_on_c, 0, 69, 0
2, 24576, Note_on_c, 0, 64, 70
2, 24624, Note_on_c, 0, 64, 0
2, 24624, Note_on_c, 0, 69, 70
2, 24672, Note_on_c, 0, 69, 0
2, 24672, Note_on_c, 0, 66, 70
2, 24720, Note_on_c, 0, 66, 0
2, 24720, Note_on_c, 0, 69, 70
2, 24768, Note_on_c, 0, 69, 0
2, 24768, Note_on_c, 0, 67, 70
2, 24816, Note_on_c, 0, 67, 0
2, 24816, Note_on_c, 0, 71, 70
2, 24864, Note_on_c, 0, 71, 0
2, 24864, Note_on_c, 0, 76, 71
2, 24912, Note_on_c, 0, 76, 0
2, 24912, Note_on_c, 0, 75, 71
2, 24960, Note_on_c, 0, 75, 0
2, 24960, Note_on_c, 0, 76, 72
2, 25008, Note_on_c, 0, 76, 0
2, 25008, Note_on_c, 0, 78, 73
2, 25056, Note_on_c, 0, 78, 0
2, 25056, Note_on_c, 0, 75, 73
2, 25102, Note_on_c, 0, 75, 0
2, 25104, Note_on_c, 0, 71, 74
2, 25152, Note_on_c, 0, 71, 0
2, 25152, Note_on_c, 0, 73, 75
2, 25200, Note_on_c, 0, 73, 0
2, 25200, Note_on_c, 0, 75, 75
2, 25248, Note_on_c, 0, 75, 0
2, 25248, Note_on_c, 0, 76, 76
2, 25296, Note_on_c, 0, 76, 0
2, 25296, Note_on_c, 0, 78, 77
2, 25344, Note_on_c, 0, 78, 0
2, 25344, Note_on_c, 0, 79, 77
2, 25392, Note_on_c, 0, 79, 0
2, 25392, Note_on_c, 0, 78, 78
2, 25440, Note_on_c, 0, 78, 0
2, 25440, Note_on_c, 0, 79, 79
2, 25488, Note_on_c, 0, 79, 0
2, 25488, Note_on_c, 0, 76, 79
2, 25536, Note_on_c, 0, 76, 0
2, 25536, Note_on_c, 0, 81, 80
2, 25584, Note_on_c, 0, 81, 0
2, 25584, Note_on_c, 0, 76, 81
2, 25632, Note_on_c, 0, 76, 0
2, 25632, Note_on_c, 0, 78, 81
2, 25680, Note_on_c, 0, 78, 0
2, 25680, Note_on_c, 0, 72, 82
2, 25728, Note_on_c, 0, 72, 0
2, 25728, Note_on_c, 0, 71, 82
2, 25776, Note_on_c, 0, 71, 0
2, 25776, Note_on_c, 0, 69, 83
2, 25824, Note_on_c, 0, 69, 0
2, 25824, Note_on_c, 0, 67, 84
2, 25872, Note_on_c, 0, 67, 0
2, 25872, Note_on_c, 0, 71, 84
2, 25920, Note_on_c, 0, 71, 0
2, 25920, Note_on_c, 0, 76, 85
2, 25968, Note_on_c, 0, 76, 0
2, 25968, Note_on_c, 0, 74, 86
2, 26016, Note_on_c, 0, 74, 0
2, 26016, Note_on_c, 0, 76, 86
2, 26064, Note_on_c, 0, 76, 0
2, 26064, Note_on_c, 0, 72, 87
2, 26112, Note_on_c, 0, 72, 0
2, 26112, Note_on_c, 0, 78, 88
2, 26160, Note_on_c, 0, 78, 0
2, 26160, Note_on_c, 0, 72, 88
2, 26208, Note_on_c, 0, 72, 0
2, 26208, Note_on_c, 0, 74, 89
2, 26256, Note_on_c, 0, 74, 0
2, 26256, Note_on_c, 0, 69, 90
2, 26304, Note_on_c, 0, 69, 0
2, 26304, Note_on_c, 0, 67, 90
2, 26352, Note_on_c, 0, 67, 0
2, 26352, Note_on_c, 0, 66, 91
2, 26400, Note_on_c, 0, 66, 0
2, 26400, Note_on_c, 0, 64, 92
2, 26448, Note_on_c, 0, 64, 0
2, 26448, Note_on_c, 0, 67, 92
2, 26496, Note_on_c, 0, 67, 0
2, 26496, Note_on_c, 0, 72, 93
2, 26542, Note_on_c, 0, 72, 0
2, 26544, Note_on_c, 0, 64, 93
2, 26592, Note_on_c, 0, 64, 0
2, 26592, Note_on_c, 0, 63, 94
2, 26640, Note_on_c, 0, 63, 0
2, 26640, Note_on_c, 0, 64, 95
2, 26688, Note_on_c, 0, 64, 0
2, 26688, Note_on_c, 0, 66, 95
2, 26736, Note_on_c, 0, 66, 0
2, 26736, Note_on_c, 0, 67, 96
2, 26784, Note_on_c, 0, 67, 0
2, 26784, Note_on_c, 0, 69, 97
2, 26832, Note_on_c, 0, 69, 0
2, 26832, Note_on_c, 0, 71, 97
2, 26880, Note_on_c, 0, 71, 0
2, 26880, Note_on_c, 0, 72, 98
2, 26928, Note_on_c, 0, 72, 0
2, 26928, Note_on_c, 0, 69, 99
2, 26976, Note_on_c, 0, 69, 0
2, 26976, Note_on_c, 0, 78, 99
2, 27120, Note_on_c, 0, 78, 0
2, 27120, Note_on_c, 0, 71, 101
2, 27168, Note_on_c, 0, 71, 0
2, 27168, Note_on_c, 0, 76, 102
2, 27216, Note_on_c, 0, 76, 0
2, 27216, Note_on_c, 0, 79, 103
2, 27264, Note_on_c, 0, 79, 0
2, 27264, Note_on_c, 0, 78, 103
2, 27312, Note_on_c, 0, 78, 0
2, 27312, Note_on_c, 0, 75, 104
2, 27360, Note_on_c, 0, 75, 0
2, 27360, Note_on_c, 0, 76, 104
2, 27376, Note_on_c, 0, 76, 0
2, 27376, Note_on_c, 0, 75, 105
2, 27392, Note_on_c, 0, 75, 0
2, 27392, Note_on_c, 0, 76, 105
2, 27616, Note_on_c, 0, 76, 0
2, 27616, End_track
3, 0, Start_track
3, 0, MIDI_port, 0
3, 0, Title_t, "Left Hand"
3, 0, Program_c, 1, 0
3, 0, Control_c, 1, 7, 127
3, 0, Control_c, 1, 10, 55
3, 0, Control_c, 1, 91, 79
3, 0, Control_c, 1, 93, 0
3, 0, Note_on_c, 1, 52, 105
3, 16, Note_on_c, 1, 52, 0
3, 16, Note_on_c, 1, 51, 105
3, 32, Note_on_c, 1, 51, 0
3, 32, Note_on_c, 1, 52, 105
3, 94, Note_on_c, 1, 52, 0
3, 96, Note_on_c, 1, 40, 105
3, 190, Note_on_c, 1, 40, 0
3, 336, Note_on_c, 1, 52, 105
3, 384, Note_on_c, 1, 52, 0
3, 384, Note_on_c, 1, 55, 105
3, 432, Note_on_c, 1, 55, 0
3, 432, Note_on_c, 1, 59, 105
3, 480, Note_on_c, 1, 59, 0
3, 480, Note_on_c, 1, 55, 105
3, 528, Note_on_c, 1, 55, 0
3, 528, Note_on_c, 1, 52, 105
3, 574, Note_on_c, 1, 52, 0
3, 576, Note_on_c, 1, 59, 105
3, 592, Note_on_c, 1, 59, 0
3, 592, Note_on_c, 1, 58, 105
3, 608, Note_on_c, 1, 58, 0
3, 608, Note_on_c, 1, 59, 105
3, 670, Note_on_c, 1, 59, 0
3, 672, Note_on_c, 1, 47, 105
3, 766, Note_on_c, 1, 47, 0
3, 912, Note_on_c, 1, 59, 105
3, 960, Note_on_c, 1, 59, 0
3, 960, Note_on_c, 1, 63, 105
3, 1008, Note_on_c, 1, 63, 0
3, 1008, Note_on_c, 1, 66, 105
3, 1056, Note_on_c, 1, 66, 0
3, 1056, Note_on_c, 1, 63, 105
3, 1104, Note_on_c, 1, 63, 0
3, 1104, Note_on_c, 1, 59, 105
3, 1150, Note_on_c, 1, 59, 0
3, 1152, Note_on_c, 1, 64, 70
3, 1248, Note_on_c, 1, 64, 0
3, 1248, Note_on_c, 1, 67, 70
3, 1344, Note_on_c, 1, 67, 0
3, 1344, Note_on_c, 1, 64, 70
3, 1440, Note_on_c, 1, 64, 0
3, 1440, Note_on_c, 1, 60, 70
3, 1536, Note_on_c, 1, 60, 0
3, 1536, Note_on_c, 1, 57, 70
3, 1630, Note_on_c, 1, 57, 0
3, 1632, Note_on_c, 1, 60, 70
3, 1664, Note_on_c, 1, 60, 0
3, 1728, Note_on_c, 1, 62, 70
3, 1824, Note_on_c, 1, 62, 0
3, 1824, Note_on_c, 1, 66, 70
3, 1920, Note_on_c, 1, 66, 0
3, 1920, Note_on_c, 1, 62, 70
3, 2016, Note_on_c, 1, 62, 0
3, 2016, Note_on_c, 1, 59, 70
3, 2112, Note_on_c, 1, 59, 0
3, 2112, Note_on_c, 1, 55, 70
3, 2206, Note_on_c, 1, 55, 0
3, 2208, Note_on_c, 1, 59, 70
3, 2240, Note_on_c, 1, 59, 0
3, 2304, Note_on_c, 1, 60, 70
3, 2350, Note_on_c, 1, 60, 0
3, 2352, Note_on_c, 1, 59, 71
3, 2398, Note_on_c, 1, 59, 0
3, 2400, Note_on_c, 1, 57, 72
3, 2446, Note_on_c, 1, 57, 0
3, 2448, Note_on_c, 1, 60, 73
3, 2494, Note_on_c, 1, 60, 0
3, 2496, Note_on_c, 1, 55, 74
3, 2542, Note_on_c, 1, 55, 0
3, 2544, Note_on_c, 1, 60, 75
3, 2590, Note_on_c, 1, 60, 0
3, 2592, Note_on_c, 1, 54, 76
3, 2638, Note_on_c, 1, 54, 0
3, 2640, Note_on_c, 1, 60, 77
3, 2686, Note_on_c, 1, 60, 0
3, 2688, Note_on_c, 1, 52, 78
3, 2734, Note_on_c, 1, 52, 0
3, 2736, Note_on_c, 1, 60, 79
3, 2782, Note_on_c, 1, 60, 0
3, 2784, Note_on_c, 1, 50, 80
3, 2830, Note_on_c, 1, 50, 0
3, 2832, Note_on_c, 1, 60, 81
3, 2878, Note_on_c, 1, 60, 0
3, 2880, Note_on_c, 1, 59, 82
3, 2926, Note_on_c, 1, 59, 0
3, 2928, Note_on_c, 1, 60, 83
3, 2974, Note_on_c, 1, 60, 0
3, 2976, Note_on_c, 1, 57, 85
3, 3022, Note_on_c, 1, 57, 0
3, 3024, Note_on_c, 1, 60, 87
3, 3070, Note_on_c, 1, 60, 0
3, 3072, Note_on_c, 1, 55, 89
3, 3118, Note_on_c, 1, 55, 0
3, 3120, Note_on_c, 1, 60, 91
3, 3166, Note_on_c, 1, 60, 0
3, 3168, Note_on_c, 1, 54, 93
3, 3214, Note_on_c, 1, 54, 0
3, 3216, Note_on_c, 1, 60, 95
3, 3262, Note_on_c, 1, 60, 0
3, 3264, Note_on_c, 1, 52, 97
3, 3310, Note_on_c, 1, 52, 0
3, 3312, Note_on_c, 1, 60, 99
3, 3358, Note_on_c, 1, 60, 0
3, 3360, Note_on_c, 1, 50, 101
3, 3406, Note_on_c, 1, 50, 0
3, 3408, Note_on_c, 1, 60, 103
3, 3454, Note_on_c, 1, 60, 0
3, 3456, Note_on_c, 1, 55, 105
3, 3502, Note_on_c, 1, 55, 0
3, 3504, Note_on_c, 1, 59, 105
3, 3550, Note_on_c, 1, 59, 0
3, 3552, Note_on_c, 1, 54, 105
3, 3598, Note_on_c, 1, 54, 0
3, 3600, Note_on_c, 1, 59, 105
3, 3646, Note_on_c, 1, 59, 0
3, 3648, Note_on_c, 1, 52, 105
3, 3694, Note_on_c, 1, 52, 0
3, 3696, Note_on_c, 1, 59, 104
3, 3742, Note_on_c, 1, 59, 0
3, 3744, Note_on_c, 1, 54, 103
3, 3790, Note_on_c, 1, 54, 0
3, 3792, Note_on_c, 1, 59, 102
3, 3838, Note_on_c, 1, 59, 0
3, 3840, Note_on_c, 1, 52, 101
3, 3886, Note_on_c, 1, 52, 0
3, 3888, Note_on_c, 1, 59, 100
3, 3934, Note_on_c, 1, 59, 0
3, 3936, Note_on_c, 1, 51, 98
3, 3982, Note_on_c, 1, 51, 0
3, 3984, Note_on_c, 1, 59, 96
3, 4030, Note_on_c, 1, 59, 0
3, 4032, Note_on_c, 1, 52, 94
3, 4078, Note_on_c, 1, 52, 0
3, 4080, Note_on_c, 1, 59, 92
3, 4126, Note_on_c, 1, 59, 0
3, 4128, Note_on_c, 1, 50, 90
3, 4174, Note_on_c, 1, 50, 0
3, 4176, Note_on_c, 1, 59, 88
3, 4222, Note_on_c, 1, 59, 0
3, 4224, Note_on_c, 1, 49, 86
3, 4270, Note_on_c, 1, 49, 0
3, 4272, Note_on_c, 1, 59, 84
3, 4318, Note_on_c, 1, 59, 0
3, 4320, Note_on_c, 1, 50, 82
3, 4366, Note_on_c, 1, 50, 0
3, 4368, Note_on_c, 1, 59, 80
3, 4414, Note_on_c, 1, 59, 0
3, 4416, Note_on_c, 1, 49, 78
3, 4462, Note_on_c, 1, 49, 0
3, 4464, Note_on_c, 1, 59, 76
3, 4510, Note_on_c, 1, 59, 0
3, 4512, Note_on_c, 1, 47, 74
3, 4558, Note_on_c, 1, 47, 0
3, 4560, Note_on_c, 1, 59, 72
3, 4606, Note_on_c, 1, 59, 0
3, 4608, Note_on_c, 1, 49, 70
3, 4654, Note_on_c, 1, 49, 0
3, 4656, Note_on_c, 1, 59, 71
3, 4702, Note_on_c, 1, 59, 0
3, 4704, Note_on_c, 1, 50, 72
3, 4750, Note_on_c, 1, 50, 0
3, 4752, Note_on_c, 1, 59, 73
3, 4798, Note_on_c, 1, 59, 0
3, 4800, Note_on_c, 1, 52, 74
3, 4846, Note_on_c, 1, 52, 0
3, 4848, Note_on_c, 1, 59, 75
3, 4894, Note_on_c, 1, 59, 0
3, 4896, Note_on_c, 1, 50, 76
3, 4942, Note_on_c, 1, 50, 0
3, 4944, Note_on_c, 1, 59, 77
3, 4990, Note_on_c, 1, 59, 0
3, 4992, Note_on_c, 1, 52, 78
3, 5038, Note_on_c, 1, 52, 0
3, 5040, Note_on_c, 1, 59, 79
3, 5086, Note_on_c, 1, 59, 0
3, 5088, Note_on_c, 1, 54, 80
3, 5134, Note_on_c, 1, 54, 0
3, 5136, Note_on_c, 1, 59, 81
3, 5182, Note_on_c, 1, 59, 0
3, 5184, Note_on_c, 1, 55, 82
3, 5280, Note_on_c, 1, 55, 0
3, 5280, Note_on_c, 1, 52, 85
3, 5374, Note_on_c, 1, 52, 0
3, 5376, Note_on_c, 1, 54, 89
3, 5408, Note_on_c, 1, 54, 0
3, 5472, Note_on_c, 1, 47, 93
3, 5520, Note_on_c, 1, 47, 0
3, 5520, Note_on_c, 1, 51, 95
3, 5568, Note_on_c, 1, 51, 0
3, 5568, Note_on_c, 1, 54, 97
3, 5616, Note_on_c, 1, 54, 0
3, 5616, Note_on_c, 1, 57, 99
3, 5664, Note_on_c, 1, 57, 0
3, 5664, Note_on_c, 1, 55, 101
3, 5712, Note_on_c, 1, 55, 0
3, 5712, Note_on_c, 1, 54, 103
3, 5758, Note_on_c, 1, 54, 0
3, 5760, Note_on_c, 1, 52, 105
3, 5776, Note_on_c, 1, 52, 0
3, 5776, Note_on_c, 1, 51, 105
3, 5792, Note_on_c, 1, 51, 0
3, 5792, Note_on_c, 1, 52, 105
3, 5854, Note_on_c, 1, 52, 0
3, 5856, Note_on_c, 1, 40, 105
3, 5950, Note_on_c, 1, 40, 0
3, 6096, Note_on_c, 1, 52, 105
3, 6144, Note_on_c, 1, 52, 0
3, 6144, Note_on_c, 1, 55, 105
3, 6192, Note_on_c, 1, 55, 0
3, 6192, Note_on_c, 1, 59, 105
3, 6240, Note_on_c, 1, 59, 0
3, 6240, Note_on_c, 1, 55, 105
3, 6288, Note_on_c, 1, 55, 0
3, 6288, Note_on_c, 1, 52, 105
3, 6334, Note_on_c, 1, 52, 0
3, 6336, Note_on_c, 1, 59, 105
3, 6352, Note_on_c, 1, 59, 0
3, 6352, Note_on_c, 1, 58, 105
3, 6368, Note_on_c, 1, 58, 0
3, 6368, Note_on_c, 1, 59, 105
3, 6430, Note_on_c, 1, 59, 0
3, 6432, Note_on_c, 1, 47, 105
3, 6526, Note_on_c, 1, 47, 0
3, 6672, Note_on_c, 1, 59, 105
3, 6720, Note_on_c, 1, 59, 0
3, 6720, Note_on_c, 1, 63, 105
3, 6768, Note_on_c, 1, 63, 0
3, 6768, Note_on_c, 1, 66, 105
3, 6816, Note_on_c, 1, 66, 0
3, 6816, Note_on_c, 1, 63, 105
3, 6864, Note_on_c, 1, 63, 0
3, 6864, Note_on_c, 1, 59, 105
3, 6910, Note_on_c, 1, 59, 0
3, 6912, Note_on_c, 1, 64, 70
3, 7008, Note_on_c, 1, 64, 0
3, 7008, Note_on_c, 1, 67, 70
3, 7104, Note_on_c, 1, 67, 0
3, 7104, Note_on_c, 1, 64, 70
3, 7200, Note_on_c, 1, 64, 0
3, 7200, Note_on_c, 1, 60, 70
3, 7296, Note_on_c, 1, 60, 0
3, 7296, Note_on_c, 1, 57, 70
3, 7390, Note_on_c, 1, 57, 0
3, 7392, Note_on_c, 1, 60, 70
3, 7424, Note_on_c, 1, 60, 0
3, 7488, Note_on_c, 1, 62, 70
3, 7584, Note_on_c, 1, 62, 0
3, 7584, Note_on_c, 1, 66, 70
3, 7680, Note_on_c, 1, 66, 0
3, 7680, Note_on_c, 1, 62, 70
3, 7776, Note_on_c, 1, 62, 0
3, 7776, Note_on_c, 1, 59, 70
3, 7872, Note_on_c, 1, 59, 0
3, 7872, Note_on_c, 1, 55, 70
3, 7966, Note_on_c, 1, 55, 0
3, 7968, Note_on_c, 1, 59, 70
3, 8000, Note_on_c, 1, 59, 0
3, 8064, Note_on_c, 1, 60, 70
3, 8110, Note_on_c, 1, 60, 0
3, 8112, Note_on_c, 1, 59, 71
3, 8158, Note_on_c, 1, 59, 0
3, 8160, Note_on_c, 1, 57, 72
3, 8206, Note_on_c, 1, 57, 0
3, 8208, Note_on_c, 1, 60, 73
3, 8254, Note_on_c, 1, 60, 0
3, 8256, Note_on_c, 1, 55, 74
3, 8302, Note_on_c, 1, 55, 0
3, 8304, Note_on_c, 1, 60, 75
3, 8350, Note_on_c, 1, 60, 0
3, 8352, Note_on_c, 1, 54, 76
3, 8398, Note_on_c, 1, 54, 0
3, 8400, Note_on_c, 1, 60, 77
3, 8446, Note_on_c, 1, 60, 0
3, 8448, Note_on_c, 1, 52, 78
3, 8494, Note_on_c, 1, 52, 0
3, 8496, Note_on_c, 1, 60, 79
3, 8542, Note_on_c, 1, 60, 0
3, 8544, Note_on_c, 1, 50, 80
3, 8590, Note_on_c, 1, 50, 0
3, 8592, Note_on_c, 1, 60, 81
3, 8638, Note_on_c, 1, 60, 0
3, 8640, Note_on_c, 1, 59, 82
3, 8686, Note_on_c, 1, 59, 0
3, 8688, Note_on_c, 1, 60, 83
3, 8734, Note_on_c, 1, 60, 0
3, 8736, Note_on_c, 1, 57, 85
3, 8782, Note_on_c, 1, 57, 0
3, 8784, Note_on_c, 1, 60, 87
3, 8830, Note_on_c, 1, 60, 0
3, 8832, Note_on_c, 1, 55, 89
3, 8878, Note_on_c, 1, 55, 0
3, 8880, Note_on_c, 1, 60, 91
3, 8926, Note_on_c, 1, 60, 0
3, 8928, Note_on_c, 1, 54, 93
3, 8974, Note_on_c, 1, 54, 0
3, 8976, Note_on_c, 1, 60, 95
3, 9022, Note_on_c, 1, 60, 0
3, 9024, Note_on_c, 1, 52, 97
3, 9070, Note_on_c, 1, 52, 0
3, 9072, Note_on_c, 1, 60, 99
3, 9118, Note_on_c, 1, 60, 0
3, 9120, Note_on_c, 1, 50, 101
3, 9166, Note_on_c, 1, 50, 0
3, 9168, Note_on_c, 1, 60, 103
3, 9214, Note_on_c, 1, 60, 0
3, 9216, Note_on_c, 1, 55, 105
3, 9262, Note_on_c, 1, 55, 0
3, 9264, Note_on_c, 1, 59, 105
3, 9310, Note_on_c, 1, 59, 0
3, 9312, Note_on_c, 1, 54, 105
3, 9358, Note_on_c, 1, 54, 0
3, 9360, Note_on_c, 1, 59, 105
3, 9406, Note_on_c, 1, 59, 0
3, 9408, Note_on_c, 1, 52, 105
3, 9454, Note_on_c, 1, 52, 0
3, 9456, Note_on_c, 1, 59, 104
3, 9502, Note_on_c, 1, 59, 0
3, 9504, Note_on_c, 1, 54, 103
3, 9550, Note_on_c, 1, 54, 0
3, 9552, Note_on_c, 1, 59, 102
3, 9598, Note_on_c, 1, 59, 0
3, 9600, Note_on_c, 1, 52, 101
3, 9646, Note_on_c, 1, 52, 0
3, 9648, Note_on_c, 1, 59, 100
3, 9694, Note_on_c, 1, 59, 0
3, 9696, Note_on_c, 1, 51, 98
3, 9742, Note_on_c, 1, 51, 0
3, 9744, Note_on_c, 1, 59, 96
3, 9790, Note_on_c, 1, 59, 0
3, 9792, Note_on_c, 1, 52, 94
3, 9838, Note_on_c, 1, 52, 0
3, 9840, Note_on_c, 1, 59, 92
3, 9886, Note_on_c, 1, 59, 0
3, 9888, Note_on_c, 1, 50, 90
3, 9934, Note_on_c, 1, 50, 0
3, 9936, Note_on_c, 1, 59, 88
3, 9982, Note_on_c, 1, 59, 0
3, 9984, Note_on_c, 1, 49, 86
3, 10030, Note_on_c, 1, 49, 0
3, 10032, Note_on_c, 1, 59, 84
3, 10078, Note_on_c, 1, 59, 0
3, 10080, Note_on_c, 1, 50, 82
3, 10126, Note_on_c, 1, 50, 0
3, 10128, Note_on_c, 1, 59, 80
3, 10174, Note_on_c, 1, 59, 0
3, 10176, Note_on_c, 1, 49, 78
3, 10222, Note_on_c, 1, 49, 0
3, 10224, Note_on_c, 1, 59, 76
3, 10270, Note_on_c, 1, 59, 0
3, 10272, Note_on_c, 1, 47, 74
3, 10318, Note_on_c, 1, 47, 0
3, 10320, Note_on_c, 1, 59, 72
3, 10366, Note_on_c, 1, 59, 0
3, 10368, Note_on_c, 1, 49, 70
3, 10414, Note_on_c, 1, 49, 0
3, 10416, Note_on_c, 1, 59, 71
3, 10462, Note_on_c, 1, 59, 0
3, 10464, Note_on_c, 1, 50, 72
3, 10510, Note_on_c, 1, 50, 0
3, 10512, Note_on_c, 1, 59, 73
3, 10558, Note_on_c, 1, 59, 0
3, 10560, Note_on_c, 1, 52, 74
3, 10606, Note_on_c, 1, 52, 0
3, 10608, Note_on_c, 1, 59, 75
3, 10654, Note_on_c, 1, 59, 0
3, 10656, Note_on_c, 1, 50, 76
3, 10702, Note_on_c, 1, 50, 0
3, 10704, Note_on_c, 1, 59, 77
3, 10750, Note_on_c, 1, 59, 0
3, 10752, Note_on_c, 1, 52, 78
3, 10798, Note_on_c, 1, 52, 0
3, 10800, Note_on_c, 1, 59, 79
3, 10846, Note_on_c, 1, 59, 0
3, 10848, Note_on_c, 1, 54, 80
3, 10894, Note_on_c, 1, 54, 0
3, 10896, Note_on_c, 1, 59, 81
3, 10942, Note_on_c, 1, 59, 0
3, 10944, Note_on_c, 1, 55, 82
3, 11040, Note_on_c, 1, 55, 0
3, 11040, Note_on_c, 1, 52, 85
3, 11134, Note_on_c, 1, 52, 0
3, 11136, Note_on_c, 1, 54, 89
3, 11168, Note_on_c, 1, 54, 0
3, 11232, Note_on_c, 1, 47, 93
3, 11280, Note_on_c, 1, 47, 0
3, 11280, Note_on_c, 1, 51, 95
3, 11328, Note_on_c, 1, 51, 0
3, 11328, Note_on_c, 1, 54, 97
3, 11376, Note_on_c, 1, 54, 0
3, 11376, Note_on_c, 1, 57, 99
3, 11424, Note_on_c, 1, 57, 0
3, 11424, Note_on_c, 1, 55, 101
3, 11472, Note_on_c, 1, 55, 0
3, 11472, Note_on_c, 1, 54, 103
3, 11518, Note_on_c, 1, 54, 0
3, 11520, Note_on_c, 1, 59, 105
3, 11536, Note_on_c, 1, 59, 0
3, 11536, Note_on_c, 1, 58, 105
3, 11552, Note_on_c, 1, 58, 0
3, 11552, Note_on_c, 1, 59, 105
3, 11616, Note_on_c, 1, 59, 0
3, 11616, Note_on_c, 1, 47, 105
3, 11710, Note_on_c, 1, 47, 0
3, 11856, Note_on_c, 1, 47, 105
3, 11904, Note_on_c, 1, 47, 0
3, 11904, Note_on_c, 1, 51, 105
3, 11952, Note_on_c, 1, 51, 0
3, 11952, Note_on_c, 1, 54, 105
3, 12000, Note_on_c, 1, 54, 0
3, 12000, Note_on_c, 1, 51, 105
3, 12048, Note_on_c, 1, 51, 0
3, 12048, Note_on_c, 1, 47, 105
3, 12094, Note_on_c, 1, 47, 0
3, 12096, Note_on_c, 1, 52, 105
3, 12112, Note_on_c, 1, 52, 0
3, 12112, Note_on_c, 1, 51, 105
3, 12128, Note_on_c, 1, 51, 0
3, 12128, Note_on_c, 1, 52, 105
3, 12192, Note_on_c, 1, 52, 0
3, 12192, Note_on_c, 1, 40, 105
3, 12286, Note_on_c, 1, 40, 0
3, 12432, Note_on_c, 1, 52, 105
3, 12480, Note_on_c, 1, 52, 0
3, 12480, Note_on_c, 1, 56, 105
3, 12528, Note_on_c, 1, 56, 0
3, 12528, Note_on_c, 1, 59, 105
3, 12576, Note_on_c, 1, 59, 0
3, 12576, Note_on_c, 1, 56, 105
3, 12624, Note_on_c, 1, 56, 0
3, 12624, Note_on_c, 1, 52, 105
3, 12670, Note_on_c, 1, 52, 0
3, 12672, Note_on_c, 1, 57, 105
3, 12718, Note_on_c, 1, 57, 0
3, 12720, Note_on_c, 1, 45, 105
3, 12766, Note_on_c, 1, 45, 0
3, 12768, Note_on_c, 1, 47, 105
3, 12814, Note_on_c, 1, 47, 0
3, 12816, Note_on_c, 1, 48, 105
3, 12862, Note_on_c, 1, 48, 0
3, 12864, Note_on_c, 1, 50, 105
3, 12910, Note_on_c, 1, 50, 0
3, 12912, Note_on_c, 1, 52, 105
3, 12958, Note_on_c, 1, 52, 0
3, 12960, Note_on_c, 1, 53, 105
3, 13006, Note_on_c, 1, 53, 0
3, 13008, Note_on_c, 1, 50, 105
3, 13054, Note_on_c, 1, 50, 0
3, 13056, Note_on_c, 1, 52, 105
3, 13102, Note_on_c, 1, 52, 0
3, 13104, Note_on_c, 1, 53, 105
3, 13150, Note_on_c, 1, 53, 0
3, 13152, Note_on_c, 1, 55, 105
3, 13198, Note_on_c, 1, 55, 0
3, 13200, Note_on_c, 1, 57, 105
3, 13246, Note_on_c, 1, 57, 0
3, 13248, Note_on_c, 1, 59, 105
3, 13294, Note_on_c, 1, 59, 0
3, 13296, Note_on_c, 1, 55, 105
3, 13342, Note_on_c, 1, 55, 0
3, 13344, Note_on_c, 1, 57, 105
3, 13390, Note_on_c, 1, 57, 0
3, 13392, Note_on_c, 1, 59, 105
3, 13438, Note_on_c, 1, 59, 0
3, 13440, Note_on_c, 1, 60, 105
3, 13486, Note_on_c, 1, 60, 0
3, 13488, Note_on_c, 1, 62, 105
3, 13534, Note_on_c, 1, 62, 0
3, 13536, Note_on_c, 1, 64, 105
3, 13582, Note_on_c, 1, 64, 0
3, 13584, Note_on_c, 1, 60, 105
3, 13630, Note_on_c, 1, 60, 0
3, 13632, Note_on_c, 1, 62, 105
3, 13678, Note_on_c, 1, 62, 0
3, 13680, Note_on_c, 1, 64, 105
3, 13726, Note_on_c, 1, 64, 0
3, 13728, Note_on_c, 1, 65, 105
3, 13774, Note_on_c, 1, 65, 0
3, 13776, Note_on_c, 1, 67, 105
3, 13822, Note_on_c, 1, 67, 0
3, 13824, Note_on_c, 1, 69, 105
3, 13920, Note_on_c, 1, 69, 0
3, 13920, Note_on_c, 1, 67, 105
3, 14016, Note_on_c, 1, 67, 0
3, 14016, Note_on_c, 1, 65, 105
3, 14112, Note_on_c, 1, 65, 0
3, 14112, Note_on_c, 1, 64, 105
3, 14208, Note_on_c, 1, 64, 0
3, 14208, Note_on_c, 1, 62, 105
3, 14304, Note_on_c, 1, 62, 0
3, 14304, Note_on_c, 1, 60, 105
3, 14400, Note_on_c, 1, 60, 0
3, 14400, Note_on_c, 1, 62, 105
3, 14496, Note_on_c, 1, 62, 0
3, 14496, Note_on_c, 1, 64, 105
3, 14590, Note_on_c, 1, 64, 0
3, 14592, Note_on_c, 1, 52, 105
3, 14624, Note_on_c, 1, 52, 0
3, 14688, Note_on_c, 1, 57, 105
3, 14720, Note_on_c, 1, 57, 0
3, 14736, Note_on_c, 1, 53, 100
3, 14784, Note_on_c, 1, 53, 0
3, 14784, Note_on_c, 1, 52, 94
3, 14832, Note_on_c, 1, 52, 0
3, 14832, Note_on_c, 1, 50, 88
3, 14880, Note_on_c, 1, 50, 0
3, 14880, Note_on_c, 1, 48, 82
3, 14928, Note_on_c, 1, 48, 0
3, 14928, Note_on_c, 1, 47, 76
3, 14976, Note_on_c, 1, 47, 0
3, 14976, Note_on_c, 1, 45, 70
3, 15072, Note_on_c, 1, 45, 0
3, 15072, Note_on_c, 1, 47, 70
3, 15168, Note_on_c, 1, 47, 0
3, 15168, Note_on_c, 1, 48, 70
3, 15264, Note_on_c, 1, 48, 0
3, 15264, Note_on_c, 1, 50, 70
3, 15360, Note_on_c, 1, 50, 0
3, 15360, Note_on_c, 1, 52, 70
3, 15456, Note_on_c, 1, 52, 0
3, 15456, Note_on_c, 1, 54, 70
3, 15550, Note_on_c, 1, 54, 0
3, 15552, Note_on_c, 1, 43, 70
3, 15648, Note_on_c, 1, 43, 0
3, 15648, Note_on_c, 1, 45, 70
3, 15744, Note_on_c, 1, 45, 0
3, 15744, Note_on_c, 1, 47, 70
3, 15840, Note_on_c, 1, 47, 0
3, 15840, Note_on_c, 1, 48, 70
3, 15936, Note_on_c, 1, 48, 0
3, 15936, Note_on_c, 1, 50, 70
3, 16032, Note_on_c, 1, 50, 0
3, 16032, Note_on_c, 1, 52, 70
3, 16126, Note_on_c, 1, 52, 0
3, 16128, Note_on_c, 1, 42, 70
3, 16224, Note_on_c, 1, 42, 0
3, 16224, Note_on_c, 1, 43, 70
3, 16320, Note_on_c, 1, 43, 0
3, 16320, Note_on_c, 1, 45, 70
3, 16416, Note_on_c, 1, 45, 0
3, 16416, Note_on_c, 1, 47, 70
3, 16512, Note_on_c, 1, 47, 0
3, 16512, Note_on_c, 1, 49, 70
3, 16608, Note_on_c, 1, 49, 0
3, 16608, Note_on_c, 1, 51, 70
3, 16704, Note_on_c, 1, 51, 0
3, 16704, Note_on_c, 1, 52, 70
3, 16800, Note_on_c, 1, 52, 0
3, 16800, Note_on_c, 1, 48, 71
3, 16832, Note_on_c, 1, 48, 0
3, 16896, Note_on_c, 1, 45, 72
3, 16928, Note_on_c, 1, 45, 0
3, 16992, Note_on_c, 1, 47, 73
3, 17024, Note_on_c, 1, 47, 0
3, 17136, Note_on_c, 1, 59, 75
3, 17184, Note_on_c, 1, 59, 0
3, 17184, Note_on_c, 1, 61, 75
3, 17232, Note_on_c, 1, 61, 0
3, 17232, Note_on_c, 1, 63, 76
3, 17280, Note_on_c, 1, 63, 0
3, 17280, Note_on_c, 1, 64, 76
3, 17376, Note_on_c, 1, 64, 0
3, 17376, Note_on_c, 1, 62, 78
3, 17472, Note_on_c, 1, 62, 0
3, 17472, Note_on_c, 1, 60, 79
3, 17568, Note_on_c, 1, 60, 0
3, 17568, Note_on_c, 1, 62, 80
3, 17664, Note_on_c, 1, 62, 0
3, 17664, Note_on_c, 1, 54, 81
3, 17758, Note_on_c, 1, 54, 0
3, 17760, Note_on_c, 1, 52, 82
3, 17792, Note_on_c, 1, 52, 0
3, 17856, Note_on_c, 1, 60, 83
3, 17952, Note_on_c, 1, 60, 0
3, 17952, Note_on_c, 1, 59, 85
3, 18048, Note_on_c, 1, 59, 0
3, 18048, Note_on_c, 1, 57, 86
3, 18144, Note_on_c, 1, 57, 0
3, 18144, Note_on_c, 1, 59, 87
3, 18240, Note_on_c, 1, 59, 0
3, 18240, Note_on_c, 1, 50, 88
3, 18334, Note_on_c, 1, 50, 0
3, 18336, Note_on_c, 1, 48, 89
3, 18368, Note_on_c, 1, 48, 0
3, 18432, Note_on_c, 1, 57, 90
3, 18526, Note_on_c, 1, 57, 0
3, 18528, Note_on_c, 1, 59, 92
3, 18574, Note_on_c, 1, 59, 0
3, 18576, Note_on_c, 1, 57, 92
3, 18622, Note_on_c, 1, 57, 0
3, 18624, Note_on_c, 1, 55, 93
3, 18670, Note_on_c, 1, 55, 0
3, 18672, Note_on_c, 1, 54, 93
3, 18718, Note_on_c, 1, 54, 0
3, 18720, Note_on_c, 1, 52, 94
3, 18766, Note_on_c, 1, 52, 0
3, 18768, Note_on_c, 1, 51, 95
3, 18814, Note_on_c, 1, 51, 0
3, 18816, Note_on_c, 1, 52, 95
3, 18862, Note_on_c, 1, 52, 0
3, 18864, Note_on_c, 1, 51, 96
3, 18910, Note_on_c, 1, 51, 0
3, 18912, Note_on_c, 1, 49, 96
3, 18958, Note_on_c, 1, 49, 0
3, 18960, Note_on_c, 1, 47, 97
3, 19006, Note_on_c, 1, 47, 0
3, 19008, Note_on_c, 1, 52, 97
3, 19104, Note_on_c, 1, 52, 0
3, 19104, Note_on_c, 1, 43, 99
3, 19136, Note_on_c, 1, 43, 0
3, 19200, Note_on_c, 1, 47, 100
3, 19232, Note_on_c, 1, 47, 0
3, 19296, Note_on_c, 1, 40, 101
3, 19328, Note_on_c, 1, 40, 0
3, 19344, Note_on_c, 1, 47, 102
3, 19392, Note_on_c, 1, 47, 0
3, 19392, Note_on_c, 1, 52, 102
3, 19440, Note_on_c, 1, 52, 0
3, 19440, Note_on_c, 1, 54, 103
3, 19488, Note_on_c, 1, 54, 0
3, 19488, Note_on_c, 1, 55, 103
3, 19536, Note_on_c, 1, 55, 0
3, 19536, Note_on_c, 1, 57, 104
3, 19582, Note_on_c, 1, 57, 0
3, 19584, Note_on_c, 1, 59, 104
3, 19600, Note_on_c, 1, 59, 0
3, 19600, Note_on_c, 1, 58, 105
3, 19616, Note_on_c, 1, 58, 0
3, 19616, Note_on_c, 1, 59, 105
3, 19680, Note_on_c, 1, 59, 0
3, 19680, Note_on_c, 1, 47, 105
3, 19774, Note_on_c, 1, 47, 0
3, 19920, Note_on_c, 1, 47, 105
3, 19968, Note_on_c, 1, 47, 0
3, 19968, Note_on_c, 1, 51, 105
3, 20016, Note_on_c, 1, 51, 0
3, 20016, Note_on_c, 1, 54, 105
3, 20064, Note_on_c, 1, 54, 0
3, 20064, Note_on_c, 1, 51, 105
3, 20112, Note_on_c, 1, 51, 0
3, 20112, Note_on_c, 1, 47, 105
3, 20158, Note_on_c, 1, 47, 0
3, 20160, Note_on_c, 1, 52, 105
3, 20176, Note_on_c, 1, 52, 0
3, 20176, Note_on_c, 1, 51, 105
3, 20192, Note_on_c, 1, 51, 0
3, 20192, Note_on_c, 1, 52, 105
3, 20256, Note_on_c, 1, 52, 0
3, 20256, Note_on_c, 1, 40, 105
3, 20350, Note_on_c, 1, 40, 0
3, 20496, Note_on_c, 1, 52, 105
3, 20544, Note_on_c, 1, 52, 0
3, 20544, Note_on_c, 1, 56, 105
3, 20592, Note_on_c, 1, 56, 0
3, 20592, Note_on_c, 1, 59, 105
3, 20640, Note_on_c, 1, 59, 0
3, 20640, Note_on_c, 1, 56, 105
3, 20688, Note_on_c, 1, 56, 0
3, 20688, Note_on_c, 1, 52, 105
3, 20734, Note_on_c, 1, 52, 0
3, 20736, Note_on_c, 1, 57, 105
3, 20782, Note_on_c, 1, 57, 0
3, 20784, Note_on_c, 1, 45, 105
3, 20830, Note_on_c, 1, 45, 0
3, 20832, Note_on_c, 1, 47, 105
3, 20878, Note_on_c, 1, 47, 0
3, 20880, Note_on_c, 1, 48, 105
3, 20926, Note_on_c, 1, 48, 0
3, 20928, Note_on_c, 1, 50, 105
3, 20974, Note_on_c, 1, 50, 0
3, 20976, Note_on_c, 1, 52, 105
3, 21022, Note_on_c, 1, 52, 0
3, 21024, Note_on_c, 1, 53, 105
3, 21070, Note_on_c, 1, 53, 0
3, 21072, Note_on_c, 1, 50, 105
3, 21118, Note_on_c, 1, 50, 0
3, 21120, Note_on_c, 1, 52, 105
3, 21166, Note_on_c, 1, 52, 0
3, 21168, Note_on_c, 1, 53, 105
3, 21214, Note_on_c, 1, 53, 0
3, 21216, Note_on_c, 1, 55, 105
3, 21262, Note_on_c, 1, 55, 0
3, 21264, Note_on_c, 1, 57, 105
3, 21310, Note_on_c, 1, 57, 0
3, 21312, Note_on_c, 1, 59, 105
3, 21358, Note_on_c, 1, 59, 0
3, 21360, Note_on_c, 1, 55, 105
3, 21406, Note_on_c, 1, 55, 0
3, 21408, Note_on_c, 1, 57, 105
3, 21454, Note_on_c, 1, 57, 0
3, 21456, Note_on_c, 1, 59, 105
3, 21502, Note_on_c, 1, 59, 0
3, 21504, Note_on_c, 1, 60, 105
3, 21550, Note_on_c, 1, 60, 0
3, 21552, Note_on_c, 1, 62, 105
3, 21598, Note_on_c, 1, 62, 0
3, 21600, Note_on_c, 1, 64, 105
3, 21646, Note_on_c, 1, 64, 0
3, 21648, Note_on_c, 1, 60, 105
3, 21694, Note_on_c, 1, 60, 0
3, 21696, Note_on_c, 1, 62, 105
3, 21742, Note_on_c, 1, 62, 0
3, 21744, Note_on_c, 1, 64, 105
3, 21790, Note_on_c, 1, 64, 0
3, 21792, Note_on_c, 1, 65, 105
3, 21838, Note_on_c, 1, 65, 0
3, 21840, Note_on_c, 1, 67, 105
3, 21886, Note_on_c, 1, 67, 0
3, 21888, Note_on_c, 1, 69, 105
3, 21984, Note_on_c, 1, 69, 0
3, 21984, Note_on_c, 1, 67, 105
3, 22080, Note_on_c, 1, 67, 0
3, 22080, Note_on_c, 1, 65, 105
3, 22176, Note_on_c, 1, 65, 0
3, 22176, Note_on_c, 1, 64, 105
3, 22272, Note_on_c, 1, 64, 0
3, 22272, Note_on_c, 1, 62, 105
3, 22368, Note_on_c, 1, 62, 0
3, 22368, Note_on_c, 1, 60, 105
3, 22464, Note_on_c, 1, 60, 0
3, 22464, Note_on_c, 1, 62, 105
3, 22560, Note_on_c, 1, 62, 0
3, 22560, Note_on_c, 1, 64, 105
3, 22654, Note_on_c, 1, 64, 0
3, 22656, Note_on_c, 1, 52, 105
3, 22688, Note_on_c, 1, 52, 0
3, 22752, Note_on_c, 1, 57, 105
3, 22784, Note_on_c, 1, 57, 0
3, 22800, Note_on_c, 1, 53, 100
3, 22848, Note_on_c, 1, 53, 0
3, 22848, Note_on_c, 1, 52, 94
3, 22896, Note_on_c, 1, 52, 0
3, 22896, Note_on_c, 1, 50, 88
3, 22944, Note_on_c, 1, 50, 0
3, 22944, Note_on_c, 1, 48, 82
3, 22992, Note_on_c, 1, 48, 0
3, 22992, Note_on_c, 1, 47, 76
3, 23040, Note_on_c, 1, 47, 0
3, 23040, Note_on_c, 1, 45, 70
3, 23136, Note_on_c, 1, 45, 0
3, 23136, Note_on_c, 1, 47, 70
3, 23232, Note_on_c, 1, 47, 0
3, 23232, Note_on_c, 1, 48, 70
3, 23328, Note_on_c, 1, 48, 0
3, 23328, Note_on_c, 1, 50, 70
3, 23424, Note_on_c, 1, 50, 0
3, 23424, Note_on_c, 1, 52, 70
3, 23520, Note_on_c, 1, 52, 0
3, 23520, Note_on_c, 1, 54, 70
3, 23614, Note_on_c, 1, 54, 0
3, 23616, Note_on_c, 1, 43, 70
3, 23712, Note_on_c, 1, 43, 0
3, 23712, Note_on_c, 1, 45, 70
3, 23808, Note_on_c, 1, 45, 0
3, 23808, Note_on_c, 1, 47, 70
3, 23904, Note_on_c, 1, 47, 0
3, 23904, Note_on_c, 1, 48, 70
3, 24000, Note_on_c, 1, 48, 0
3, 24000, Note_on_c, 1, 50, 70
3, 24096, Note_on_c, 1, 50, 0
3, 24096, Note_on_c, 1, 52, 70
3, 24190, Note_on_c, 1, 52, 0
3, 24192, Note_on_c, 1, 42, 70
3, 24288, Note_on_c, 1, 42, 0
3, 24288, Note_on_c, 1, 43, 70
3, 24384, Note_on_c, 1, 43, 0
3, 24384, Note_on_c, 1, 45, 70
3, 24480, Note_on_c, 1, 45, 0
3, 24480, Note_on_c, 1, 47, 70
3, 24576, Note_on_c, 1, 47, 0
3, 24576, Note_on_c, 1, 49, 70
3, 24672, Note_on_c, 1, 49, 0
3, 24672, Note_on_c, 1, 51, 70
3, 24768, Note_on_c, 1, 51, 0
3, 24768, Note_on_c, 1, 52, 70
3, 24864, Note_on_c, 1, 52, 0
3, 24864, Note_on_c, 1, 48, 71
3, 24896, Note_on_c, 1, 48, 0
3, 24960, Note_on_c, 1, 45, 72
3, 24992, Note_on_c, 1, 45, 0
3, 25056, Note_on_c, 1, 47, 73
3, 25088, Note_on_c, 1, 47, 0
3, 25200, Note_on_c, 1, 59, 75
3, 25248, Note_on_c, 1, 59, 0
3, 25248, Note_on_c, 1, 61, 76
3, 25296, Note_on_c, 1, 61, 0
3, 25296, Note_on_c, 1, 63, 77
3, 25344, Note_on_c, 1, 63, 0
3, 25344, Note_on_c, 1, 64, 77
3, 25440, Note_on_c, 1, 64, 0
3, 25440, Note_on_c, 1, 62, 79
3, 25536, Note_on_c, 1, 62, 0
3, 25536, Note_on_c, 1, 60, 80
3, 25632, Note_on_c, 1, 60, 0
3, 25632, Note_on_c, 1, 62, 81
3, 25728, Note_on_c, 1, 62, 0
3, 25728, Note_on_c, 1, 54, 82
3, 25822, Note_on_c, 1, 54, 0
3, 25824, Note_on_c, 1, 52, 84
3, 25856, Note_on_c, 1, 52, 0
3, 25920, Note_on_c, 1, 60, 85
3, 26016, Note_on_c, 1, 60, 0
3, 26016, Note_on_c, 1, 59, 86
3, 26112, Note_on_c, 1, 59, 0
3, 26112, Note_on_c, 1, 57, 88
3, 26208, Note_on_c, 1, 57, 0
3, 26208, Note_on_c, 1, 59, 89
3, 26304, Note_on_c, 1, 59, 0
3, 26304, Note_on_c, 1, 50, 90
3, 26398, Note_on_c, 1, 50, 0
3, 26400, Note_on_c, 1, 48, 92
3, 26432, Note_on_c, 1, 48, 0
3, 26496, Note_on_c, 1, 57, 93
3, 26590, Note_on_c, 1, 57, 0
3, 26592, Note_on_c, 1, 59, 94
3, 26638, Note_on_c, 1, 59, 0
3, 26640, Note_on_c, 1, 57, 95
3, 26686, Note_on_c, 1, 57, 0
3, 26688, Note_on_c, 1, 55, 95
3, 26734, Note_on_c, 1, 55, 0
3, 26736, Note_on_c, 1, 54, 96
3, 26782, Note_on_c, 1, 54, 0
3, 26784, Note_on_c, 1, 52, 97
3, 26830, Note_on_c, 1, 52, 0
3, 26832, Note_on_c, 1, 51, 97
3, 26878, Note_on_c, 1, 51, 0
3, 26880, Note_on_c, 1, 52, 98
3, 26926, Note_on_c, 1, 52, 0
3, 26928, Note_on_c, 1, 51, 99
3, 26974, Note_on_c, 1, 51, 0
3, 26976, Note_on_c, 1, 49, 99
3, 27022, Note_on_c, 1, 49, 0
3, 27024, Note_on_c, 1, 47, 100
3, 27070, Note_on_c, 1, 47, 0
3, 27072, Note_on_c, 1, 52, 101
3, 27168, Note_on_c, 1, 52, 0
3, 27168, Note_on_c, 1, 43, 102
3, 27200, Note_on_c, 1, 43, 0
3, 27264, Note_on_c, 1, 47, 103
3, 27296, Note_on_c, 1, 47, 0
3, 27360, Note_on_c, 1, 40, 104
3, 27616, Note_on_c, 1, 40, 0
3, 27616, End_track
0, 0, End_of_file
