0, 0, Header, 1, 5, 1024
1, 0, Start_track
1, 0, Time_signature, 3, 2, 24, 8
1, 0, Key_signature, 2, "major"
1, 0, Tempo, 1333333
1, 0, Title_t, "Bach's B minor Mass: 21. Benedictus"
1, 0, Text_t, "seq. by David Siu     dss@po.cwru.edu"
1, 2048, Tempo, 1428571
1, 5792, Tempo, 1428571
1, 5880, Tempo, 1463414
1, 5968, Tempo, 1538461
1, 6056, Tempo, 1578947
1, 6176, Tempo, 1395348
1, 7168, Tempo, 1428571
1, 7344, Tempo, 1463414
1, 7432, Tempo, 1500000
1, 7608, Tempo, 1538461
1, 7696, Tempo, 1578947
1, 7872, Tempo, 1621621
1, 7960, Tempo, 1666666
1, 8048, Tempo, 1714285
1, 8192, Tempo, 1395348
1, 17952, Tempo, 1428571
1, 18040, Tempo, 1463414
1, 18128, Tempo, 1538461
1, 18216, Tempo, 1621621
1, 18304, Tempo, 1666666
1, 18392, Tempo, 1764705
1, 18432, Tempo, 1395348
1, 20864, Tempo, 1428571
1, 20952, Tempo, 1463414
1, 21040, Tempo, 1538461
1, 21128, Tempo, 1578947
1, 21216, Tempo, 1666666
1, 21304, Tempo, 1714285
1, 21392, Tempo, 1818181
1, 21504, Tempo, 1395348
1, 24288, Tempo, 1428571
1, 24376, Tempo, 1463414
1, 24464, Tempo, 1538461
1, 24552, Tempo, 1621621
1, 24576, Tempo, 1500000
1, 24664, Tempo, 1463414
1, 24752, Tempo, 1428571
1, 24840, Tempo, 1395348
1, 24928, Tempo, 1333333
1, 26336, Tempo, 1395348
1, 26424, Tempo, 1428571
1, 26512, Tempo, 1463414
1, 26600, Tempo, 1538461
1, 26656, Tempo, 1578947
1, 26832, Tempo, 1538461
1, 26920, Tempo, 1500000
1, 27008, Tempo, 1463414
1, 27096, Tempo, 1428571
1, 27680, Tempo, 1333333
1, 33408, Tempo, 1333333
1, 33584, Tempo, 1363636
1, 33760, Tempo, 1395348
1, 36804, Tempo, 1276595
1, 36836, Tempo, 1395348
1, 37100, Tempo, 1428571
1, 37364, Tempo, 1463414
1, 37628, Tempo, 1500000
1, 37892, Tempo, 1538461
1, 38068, Tempo, 1578947
1, 38332, Tempo, 1621621
1, 38912, Tempo, 1428571
1, 48740, Tempo, 1395348
1, 49092, Tempo, 1428571
1, 49356, Tempo, 1463414
1, 49620, Tempo, 1500000
1, 49972, Tempo, 1538461
1, 50116, Tempo, 1666666
1, 50219, Tempo, 1666666
1, 50395, Tempo, 1621621
1, 50571, Tempo, 1578947
1, 50659, Tempo, 1538461
1, 50835, Tempo, 1500000
1, 50923, Tempo, 1463414
1, 51099, Tempo, 1428571
1, 57668, Tempo, 1500000
1, 57988, Tempo, 1428571
1, 58164, Tempo, 1395348
1, 58252, Tempo, 1363636
1, 60420, Tempo, 1333333
1, 60684, Tempo, 1363636
1, 60860, Tempo, 1395348
1, 61036, Tempo, 1428571
1, 61300, Tempo, 1463414
1, 63492, Tempo, 1395348
1, 73700, Tempo, 1500000
1, 73876, Tempo, 1538461
1, 74724, Tempo, 1333333
1, 76836, Tempo, 1276595
1, 77188, Tempo, 1304347
1, 77540, Tempo, 1333333
1, 77892, Tempo, 1363636
1, 78244, Tempo, 1395348
1, 78571, Tempo, 1395348
1, 78835, Tempo, 1428571
1, 79011, Tempo, 1463414
1, 79187, Tempo, 1500000
1, 79363, Tempo, 1538461
1, 79539, Tempo, 1578947
1, 79715, Tempo, 1621621
1, 79964, Tempo, 1463414
1, 80052, Tempo, 1395348
1, 82539, Tempo, 1395348
1, 82627, Tempo, 1463414
1, 82715, Tempo, 1538461
1, 82803, Tempo, 1666666
1, 82923, Tempo, 1333333
1, 82955, Tempo, 1395348
1, 85515, Tempo, 1333333
1, 85603, Tempo, 1395348
1, 85691, Tempo, 1463414
1, 85779, Tempo, 1538461
1, 85867, Tempo, 1621621
1, 85955, Tempo, 1714285
1, 86027, Tempo, 1395348
1, 88683, Tempo, 1395348
1, 88771, Tempo, 1463414
1, 88859, Tempo, 1538461
1, 88947, Tempo, 1666666
1, 89067, Tempo, 1395348
1, 94155, Tempo, 1428571
1, 94419, Tempo, 1463414
1, 94683, Tempo, 1500000
1, 94947, Tempo, 1538461
1, 95243, Tempo, 1333333
1, 103179, Tempo, 1500000
1, 103531, Tempo, 1538461
1, 104043, Tempo, 1395348
1, 107531, Tempo, 1428571
1, 107795, Tempo, 1463414
1, 108059, Tempo, 1500000
1, 108323, Tempo, 1538461
1, 108555, Tempo, 1578947
1, 108819, Tempo, 1538461
1, 108995, Tempo, 1500000
1, 109171, Tempo, 1463414
1, 109435, Tempo, 1428571
1, 109739, Tempo, 1395348
1, 110003, Tempo, 1428571
1, 110179, Tempo, 1463414
1, 122315, Tempo, 1428571
1, 124747, Tempo, 1428571
1, 124923, Tempo, 1463414
1, 125011, Tempo, 1500000
1, 125099, Tempo, 1538461
1, 125187, Tempo, 1578947
1, 125363, Tempo, 1621621
1, 125451, Tempo, 1666666
1, 125539, Tempo, 1714285
1, 125627, Tempo, 1764705
1, 125803, Tempo, 1818181
1, 125963, Tempo, 1428571
1, 132075, Tempo, 1578947
1, 132427, Tempo, 1621621
1, 133035, Tempo, 1578947
1, 133123, Tempo, 1538461
1, 133211, Tempo, 1463414
1, 133299, Tempo, 1428571
1, 133387, Tempo, 1363636
1, 136235, Tempo, 1395348
1, 136499, Tempo, 1428571
1, 136675, Tempo, 1463414
1, 136939, Tempo, 1500000
1, 137115, Tempo, 1538461
1, 137291, Tempo, 1578947
1, 137555, Tempo, 1621621
1, 137731, Tempo, 1666666
1, 137995, Tempo, 1714285
1, 138429, Tempo, 1875000
1, 138869, Tempo, 1818181
1, 138877, Tempo, 2000000
1, 138965, Tempo, 1875000
1, 139053, Tempo, 1764705
1, 139141, Tempo, 1666666
1, 139229, Tempo, 1428571
1, 140835, Tempo, 1463414
1, 140923, Tempo, 1500000
1, 141011, Tempo, 1538461
1, 141099, Tempo, 1578947
1, 141187, Tempo, 1621621
1, 141291, Tempo, 1395348
1, 144363, Tempo, 1500000
1, 144395, Tempo, 1500000
1, 144477, Tempo, 1428571
1, 144741, Tempo, 1463414
1, 144917, Tempo, 1500000
1, 145181, Tempo, 1538461
1, 145357, Tempo, 1578947
1, 145533, Tempo, 1621621
1, 145797, Tempo, 1666666
1, 145973, Tempo, 1714285
1, 146149, Tempo, 1764705
1, 146413, Tempo, 1818181
1, 146589, Tempo, 1875000
1, 146765, Tempo, 1935483
1, 147029, Tempo, 2000000
1, 147205, Tempo, 2068965
1, 147467, Tempo, 1500000
1, 147819, Tempo, 1463414
1, 148171, Tempo, 1428571
1, 148523, Tempo, 1395348
1, 148875, Tempo, 1363636
1, 155883, Tempo, 1395348
1, 156059, Tempo, 1428571
1, 156235, Tempo, 1463414
1, 156323, Tempo, 1500000
1, 156499, Tempo, 1538461
1, 156587, Tempo, 1578947
1, 156683, Tempo, 1395348
1, 159243, Tempo, 1428571
1, 159331, Tempo, 1463414
1, 159419, Tempo, 1538461
1, 159507, Tempo, 1621621
1, 159595, Tempo, 1666666
1, 159723, Tempo, 1333333
1, 164491, Tempo, 1333333
1, 164579, Tempo, 1363636
1, 164667, Tempo, 1395348
1, 164755, Tempo, 1463414
1, 164843, Tempo, 1500000
1, 165099, Tempo, 1395348
1, 172043, Tempo, 1428571
1, 172571, Tempo, 1463414
1, 173011, Tempo, 1500000
1, 173451, Tempo, 1538461
1, 173675, Tempo, 1500000
1, 173851, Tempo, 1538461
1, 173939, Tempo, 1578947
1, 174027, Tempo, 1621621
1, 174115, Tempo, 1666666
1, 174124, Tempo, 1666666
1, 174212, Tempo, 1714285
1, 174300, Tempo, 1764705
1, 174388, Tempo, 1875000
1, 174476, Tempo, 1935483
1, 174564, Tempo, 2068965
1, 174652, Tempo, 2142857
1, 174740, Tempo, 2307692
1, 174828, Tempo, 2400000
1, 174916, Tempo, 2500000
1, 175019, Tempo, 5454545
1, 175115, Tempo, 1428571
1, 175147, Tempo, 1132075
1, 181248, End_track
2, 0, Start_track
2, 0, Title_t, "Solo violin (or flute)"
2, 0, Program_c, 0, 73
2, 0, Control_c, 0, 121, 127
2, 0, Control_c, 0, 91, 80
2, 0, Control_c, 0, 1, 15
2, 0, Control_c, 0, 10, 30
2, 0, Control_c, 0, 11, 90
2, 2048, Note_on_c, 0, 71, 41
2, 2304, Note_on_c, 0, 71, 0
2, 2304, Note_on_c, 0, 78, 41
2, 2560, Note_on_c, 0, 78, 0
2, 2560, Note_on_c, 0, 83, 41
2, 2816, Note_on_c, 0, 83, 0
2, 2816, Note_on_c, 0, 86, 41
2, 2995, Note_on_c, 0, 86, 0
2, 3072, Note_on_c, 0, 85, 40
2, 3533, Note_on_c, 0, 85, 0
2, 3584, Note_on_c, 0, 76, 42
2, 4608, Note_on_c, 0, 76, 0
2, 4608, Note_on_c, 0, 74, 45
2, 5120, Note_on_c, 0, 74, 0
2, 5120, Note_on_c, 0, 73, 47
2, 5888, Note_on_c, 0, 73, 0
2, 5888, Note_on_c, 0, 74, 49
2, 6016, Note_on_c, 0, 74, 0
2, 6016, Note_on_c, 0, 76, 49
2, 6144, Note_on_c, 0, 76, 0
2, 6144, Note_on_c, 0, 74, 48
2, 6400, Note_on_c, 0, 74, 0
2, 6400, Note_on_c, 0, 71, 47
2, 6656, Note_on_c, 0, 71, 0
2, 6656, Note_on_c, 0, 66, 46
2, 6912, Note_on_c, 0, 66, 0
2, 6912, Note_on_c, 0, 71, 45
2, 7168, Note_on_c, 0, 71, 0
2, 7168, Note_on_c, 0, 74, 44
2, 7339, Note_on_c, 0, 74, 0
2, 7339, Note_on_c, 0, 73, 43
2, 7509, Note_on_c, 0, 73, 0
2, 7509, Note_on_c, 0, 71, 43
2, 7680, Note_on_c, 0, 71, 0
2, 7680, Note_on_c, 0, 76, 42
2, 7851, Note_on_c, 0, 76, 0
2, 7851, Note_on_c, 0, 74, 41
2, 8021, Note_on_c, 0, 74, 0
2, 8021, Note_on_c, 0, 73, 40
2, 8192, Note_on_c, 0, 73, 0
2, 8192, Note_on_c, 0, 74, 40
2, 8448, Note_on_c, 0, 74, 0
2, 8448, Note_on_c, 0, 78, 38
2, 8704, Note_on_c, 0, 78, 0
2, 8704, Note_on_c, 0, 83, 39
2, 8960, Note_on_c, 0, 83, 0
2, 8960, Note_on_c, 0, 86, 41
2, 9139, Note_on_c, 0, 86, 0
2, 9216, Note_on_c, 0, 85, 42
2, 9677, Note_on_c, 0, 85, 0
2, 9728, Note_on_c, 0, 77, 45
2, 10496, Note_on_c, 0, 77, 0
2, 10496, Note_on_c, 0, 80, 49
2, 10752, Note_on_c, 0, 80, 0
2, 10752, Note_on_c, 0, 78, 48
2, 11008, Note_on_c, 0, 78, 0
2, 11008, Note_on_c, 0, 77, 47
2, 11264, Note_on_c, 0, 77, 0
2, 11264, Note_on_c, 0, 78, 46
2, 11520, Note_on_c, 0, 78, 0
2, 11520, Note_on_c, 0, 73, 45
2, 11776, Note_on_c, 0, 73, 0
2, 11776, Note_on_c, 0, 74, 44
2, 12032, Note_on_c, 0, 74, 0
2, 12032, Note_on_c, 0, 71, 43
2, 12288, Note_on_c, 0, 71, 0
2, 12288, Note_on_c, 0, 73, 42
2, 12459, Note_on_c, 0, 73, 0
2, 12459, Note_on_c, 0, 74, 42
2, 12629, Note_on_c, 0, 74, 0
2, 12629, Note_on_c, 0, 76, 41
2, 12800, Note_on_c, 0, 76, 0
2, 12800, Note_on_c, 0, 74, 41
2, 12971, Note_on_c, 0, 74, 0
2, 12971, Note_on_c, 0, 73, 40
2, 13141, Note_on_c, 0, 73, 0
2, 13141, Note_on_c, 0, 71, 39
2, 13312, Note_on_c, 0, 71, 0
2, 13312, Note_on_c, 0, 71, 39
2, 13824, Note_on_c, 0, 71, 0
2, 13824, Note_on_c, 0, 70, 37
2, 14507, Note_on_c, 0, 70, 0
2, 14507, Note_on_c, 0, 66, 40
2, 14677, Note_on_c, 0, 66, 0
2, 14677, Note_on_c, 0, 68, 39
2, 14848, Note_on_c, 0, 68, 0
2, 14848, Note_on_c, 0, 70, 39
2, 15019, Note_on_c, 0, 70, 0
2, 15019, Note_on_c, 0, 71, 38
2, 15189, Note_on_c, 0, 71, 0
2, 15189, Note_on_c, 0, 73, 38
2, 15360, Note_on_c, 0, 73, 0
2, 15360, Note_on_c, 0, 74, 37
2, 15531, Note_on_c, 0, 74, 0
2, 15531, Note_on_c, 0, 73, 38
2, 15701, Note_on_c, 0, 73, 0
2, 15701, Note_on_c, 0, 71, 39
2, 15872, Note_on_c, 0, 71, 0
2, 15872, Note_on_c, 0, 66, 40
2, 16043, Note_on_c, 0, 66, 0
2, 16043, Note_on_c, 0, 71, 41
2, 16213, Note_on_c, 0, 71, 0
2, 16213, Note_on_c, 0, 73, 42
2, 16384, Note_on_c, 0, 73, 0
2, 16384, Note_on_c, 0, 74, 43
2, 16555, Note_on_c, 0, 74, 0
2, 16555, Note_on_c, 0, 73, 44
2, 16725, Note_on_c, 0, 73, 0
2, 16725, Note_on_c, 0, 71, 45
2, 16896, Note_on_c, 0, 71, 0
2, 16896, Note_on_c, 0, 73, 46
2, 17067, Note_on_c, 0, 73, 0
2, 17067, Note_on_c, 0, 74, 47
2, 17237, Note_on_c, 0, 74, 0
2, 17237, Note_on_c, 0, 76, 48
2, 17408, Note_on_c, 0, 76, 0
2, 17408, Note_on_c, 0, 78, 49
2, 17579, Note_on_c, 0, 78, 0
2, 17579, Note_on_c, 0, 76, 50
2, 17749, Note_on_c, 0, 76, 0
2, 17749, Note_on_c, 0, 74, 47
2, 17920, Note_on_c, 0, 74, 0
2, 17920, Note_on_c, 0, 76, 45
2, 18091, Note_on_c, 0, 76, 0
2, 18091, Note_on_c, 0, 78, 43
2, 18261, Note_on_c, 0, 78, 0
2, 18261, Note_on_c, 0, 79, 41
2, 18415, Note_on_c, 0, 79, 0
2, 18432, Note_on_c, 0, 73, 37
2, 18603, Note_on_c, 0, 73, 0
2, 18603, Note_on_c, 0, 71, 38
2, 18773, Note_on_c, 0, 71, 0
2, 18773, Note_on_c, 0, 69, 40
2, 18944, Note_on_c, 0, 69, 0
2, 18944, Note_on_c, 0, 64, 41
2, 19115, Note_on_c, 0, 64, 0
2, 19115, Note_on_c, 0, 69, 43
2, 19285, Note_on_c, 0, 69, 0
2, 19285, Note_on_c, 0, 71, 44
2, 19456, Note_on_c, 0, 71, 0
2, 19456, Note_on_c, 0, 73, 45
2, 19627, Note_on_c, 0, 73, 0
2, 19627, Note_on_c, 0, 71, 47
2, 19797, Note_on_c, 0, 71, 0
2, 19797, Note_on_c, 0, 69, 48
2, 19968, Note_on_c, 0, 69, 0
2, 19968, Note_on_c, 0, 71, 50
2, 20139, Note_on_c, 0, 71, 0
2, 20139, Note_on_c, 0, 73, 51
2, 20309, Note_on_c, 0, 73, 0
2, 20309, Note_on_c, 0, 74, 53
2, 20480, Note_on_c, 0, 74, 0
2, 20480, Note_on_c, 0, 76, 54
2, 20651, Note_on_c, 0, 76, 0
2, 20651, Note_on_c, 0, 74, 53
2, 20821, Note_on_c, 0, 74, 0
2, 20821, Note_on_c, 0, 73, 50
2, 20992, Note_on_c, 0, 73, 0
2, 20992, Note_on_c, 0, 74, 48
2, 21163, Note_on_c, 0, 74, 0
2, 21163, Note_on_c, 0, 76, 45
2, 21333, Note_on_c, 0, 76, 0
2, 21333, Note_on_c, 0, 78, 43
2, 21487, Note_on_c, 0, 78, 0
2, 21504, Note_on_c, 0, 71, 36
2, 21675, Note_on_c, 0, 71, 0
2, 21675, Note_on_c, 0, 69, 37
2, 21845, Note_on_c, 0, 69, 0
2, 21845, Note_on_c, 0, 67, 38
2, 22016, Note_on_c, 0, 67, 0
2, 22016, Note_on_c, 0, 62, 39
2, 22187, Note_on_c, 0, 62, 0
2, 22187, Note_on_c, 0, 67, 40
2, 22357, Note_on_c, 0, 67, 0
2, 22357, Note_on_c, 0, 69, 41
2, 22528, Note_on_c, 0, 69, 0
2, 22528, Note_on_c, 0, 71, 42
2, 22699, Note_on_c, 0, 71, 0
2, 22699, Note_on_c, 0, 69, 43
2, 22869, Note_on_c, 0, 69, 0
2, 22869, Note_on_c, 0, 67, 44
2, 23040, Note_on_c, 0, 67, 0
2, 23040, Note_on_c, 0, 69, 45
2, 23211, Note_on_c, 0, 69, 0
2, 23211, Note_on_c, 0, 71, 46
2, 23381, Note_on_c, 0, 71, 0
2, 23381, Note_on_c, 0, 73, 47
2, 23552, Note_on_c, 0, 73, 0
2, 23552, Note_on_c, 0, 74, 48
2, 23723, Note_on_c, 0, 74, 0
2, 23723, Note_on_c, 0, 73, 49
2, 23893, Note_on_c, 0, 73, 0
2, 23893, Note_on_c, 0, 71, 50
2, 24064, Note_on_c, 0, 71, 0
2, 24064, Note_on_c, 0, 73, 51
2, 24235, Note_on_c, 0, 73, 0
2, 24235, Note_on_c, 0, 75, 51
2, 24405, Note_on_c, 0, 75, 0
2, 24405, Note_on_c, 0, 76, 52
2, 24559, Note_on_c, 0, 76, 0
2, 24576, Note_on_c, 0, 78, 53
2, 24747, Note_on_c, 0, 78, 0
2, 24747, Note_on_c, 0, 76, 54
2, 24917, Note_on_c, 0, 76, 0
2, 24917, Note_on_c, 0, 75, 55
2, 25088, Note_on_c, 0, 75, 0
2, 25088, Note_on_c, 0, 76, 56
2, 25259, Note_on_c, 0, 76, 0
2, 25259, Note_on_c, 0, 78, 57
2, 25429, Note_on_c, 0, 78, 0
2, 25429, Note_on_c, 0, 79, 58
2, 25600, Note_on_c, 0, 79, 0
2, 25600, Note_on_c, 0, 81, 59
2, 25771, Note_on_c, 0, 81, 0
2, 25771, Note_on_c, 0, 79, 60
2, 25941, Note_on_c, 0, 79, 0
2, 25941, Note_on_c, 0, 78, 61
2, 26112, Note_on_c, 0, 78, 0
2, 26112, Note_on_c, 0, 79, 62
2, 26283, Note_on_c, 0, 79, 0
2, 26283, Note_on_c, 0, 81, 63
2, 26453, Note_on_c, 0, 81, 0
2, 26453, Note_on_c, 0, 83, 64
2, 26624, Note_on_c, 0, 83, 0
2, 26624, Note_on_c, 0, 84, 65
2, 26795, Note_on_c, 0, 84, 0
2, 26795, Note_on_c, 0, 83, 64
2, 26965, Note_on_c, 0, 83, 0
2, 26965, Note_on_c, 0, 81, 60
2, 27136, Note_on_c, 0, 81, 0
2, 27136, Note_on_c, 0, 79, 56
2, 27307, Note_on_c, 0, 79, 0
2, 27307, Note_on_c, 0, 81, 52
2, 27477, Note_on_c, 0, 81, 0
2, 27477, Note_on_c, 0, 78, 49
2, 27648, Note_on_c, 0, 78, 0
2, 27648, Note_on_c, 0, 79, 45
2, 27904, Note_on_c, 0, 79, 0
2, 27904, Note_on_c, 0, 76, 43
2, 28160, Note_on_c, 0, 76, 0
2, 28160, Note_on_c, 0, 74, 45
2, 28288, Note_on_c, 0, 74, 0
2, 28288, Note_on_c, 0, 73, 47
2, 28843, Note_on_c, 0, 73, 0
2, 28843, Note_on_c, 0, 74, 52
2, 29013, Note_on_c, 0, 74, 0
2, 29013, Note_on_c, 0, 76, 54
2, 29184, Note_on_c, 0, 76, 0
2, 29184, Note_on_c, 0, 78, 56
2, 29355, Note_on_c, 0, 78, 0
2, 29355, Note_on_c, 0, 80, 58
2, 29525, Note_on_c, 0, 80, 0
2, 29525, Note_on_c, 0, 82, 59
2, 29696, Note_on_c, 0, 82, 0
2, 29696, Note_on_c, 0, 83, 61
2, 29867, Note_on_c, 0, 83, 0
2, 29867, Note_on_c, 0, 85, 63
2, 30037, Note_on_c, 0, 85, 0
2, 30037, Note_on_c, 0, 86, 64
2, 30208, Note_on_c, 0, 86, 0
2, 30208, Note_on_c, 0, 88, 66
2, 30438, Note_on_c, 0, 88, 0
2, 30464, Note_on_c, 0, 79, 62
2, 30720, Note_on_c, 0, 79, 0
2, 30720, Note_on_c, 0, 78, 56
2, 30976, Note_on_c, 0, 78, 0
2, 30976, Note_on_c, 0, 73, 50
2, 31232, Note_on_c, 0, 73, 0
2, 31232, Note_on_c, 0, 71, 44
2, 31360, Note_on_c, 0, 71, 0
2, 31360, Note_on_c, 0, 70, 45
2, 31915, Note_on_c, 0, 70, 0
2, 31915, Note_on_c, 0, 73, 50
2, 32085, Note_on_c, 0, 73, 0
2, 32085, Note_on_c, 0, 76, 52
2, 32256, Note_on_c, 0, 76, 0
2, 32256, Note_on_c, 0, 79, 54
2, 32427, Note_on_c, 0, 79, 0
2, 32427, Note_on_c, 0, 78, 55
2, 32597, Note_on_c, 0, 78, 0
2, 32597, Note_on_c, 0, 76, 57
2, 32768, Note_on_c, 0, 76, 0
2, 32768, Note_on_c, 0, 78, 58
2, 32939, Note_on_c, 0, 78, 0
2, 32939, Note_on_c, 0, 82, 60
2, 33109, Note_on_c, 0, 82, 0
2, 33109, Note_on_c, 0, 85, 62
2, 33280, Note_on_c, 0, 85, 0
2, 33280, Note_on_c, 0, 88, 62
2, 33451, Note_on_c, 0, 88, 0
2, 33451, Note_on_c, 0, 86, 60
2, 33621, Note_on_c, 0, 86, 0
2, 33621, Note_on_c, 0, 85, 58
2, 33775, Note_on_c, 0, 85, 0
2, 33792, Note_on_c, 0, 85, 56
2, 34048, Note_on_c, 0, 85, 0
2, 34048, Note_on_c, 0, 86, 53
2, 34432, Note_on_c, 0, 86, 0
2, 34432, Note_on_c, 0, 85, 49
2, 34560, Note_on_c, 0, 85, 0
2, 34560, Note_on_c, 0, 83, 48
2, 34688, Note_on_c, 0, 83, 0
2, 34688, Note_on_c, 0, 82, 48
2, 34816, Note_on_c, 0, 82, 0
2, 34816, Note_on_c, 0, 83, 47
2, 34944, Note_on_c, 0, 83, 0
2, 34944, Note_on_c, 0, 81, 46
2, 35072, Note_on_c, 0, 81, 0
2, 35072, Note_on_c, 0, 79, 45
2, 35200, Note_on_c, 0, 79, 0
2, 35200, Note_on_c, 0, 78, 45
2, 35328, Note_on_c, 0, 78, 0
2, 35328, Note_on_c, 0, 79, 44
2, 35584, Note_on_c, 0, 79, 0
2, 35584, Note_on_c, 0, 76, 43
2, 35840, Note_on_c, 0, 76, 0
2, 35840, Note_on_c, 0, 74, 41
2, 36096, Note_on_c, 0, 74, 0
2, 36096, Note_on_c, 0, 83, 39
2, 36352, Note_on_c, 0, 83, 0
2, 36352, Note_on_c, 0, 73, 42
2, 36608, Note_on_c, 0, 73, 0
2, 36608, Note_on_c, 0, 82, 37
2, 36864, Note_on_c, 0, 82, 0
2, 36864, Note_on_c, 0, 82, 40
2, 37120, Note_on_c, 0, 82, 0
2, 37120, Note_on_c, 0, 83, 36
2, 37632, Note_on_c, 0, 83, 0
2, 37632, Note_on_c, 0, 78, 36
2, 37760, Note_on_c, 0, 78, 0
2, 37760, Note_on_c, 0, 76, 36
2, 37888, Note_on_c, 0, 76, 0
2, 37888, Note_on_c, 0, 78, 35
2, 38059, Note_on_c, 0, 78, 0
2, 38059, Note_on_c, 0, 74, 34
2, 38229, Note_on_c, 0, 74, 0
2, 38229, Note_on_c, 0, 73, 34
2, 38400, Note_on_c, 0, 73, 0
2, 38400, Note_on_c, 0, 74, 33
2, 38571, Note_on_c, 0, 74, 0
2, 38571, Note_on_c, 0, 71, 32
2, 38741, Note_on_c, 0, 71, 0
2, 38741, Note_on_c, 0, 70, 31
2, 38912, Note_on_c, 0, 70, 0
2, 38912, Note_on_c, 0, 71, 31
2, 39424, Note_on_c, 0, 71, 0
2, 40448, Note_on_c, 0, 85, 42
2, 41216, Note_on_c, 0, 85, 0
2, 41216, Note_on_c, 0, 79, 47
2, 41344, Note_on_c, 0, 79, 0
2, 41344, Note_on_c, 0, 78, 46
2, 41472, Note_on_c, 0, 78, 0
2, 41472, Note_on_c, 0, 76, 46
2, 41728, Note_on_c, 0, 76, 0
2, 41728, Note_on_c, 0, 85, 45
2, 41984, Note_on_c, 0, 85, 0
2, 41984, Note_on_c, 0, 74, 44
2, 42240, Note_on_c, 0, 74, 0
2, 42240, Note_on_c, 0, 83, 43
2, 42496, Note_on_c, 0, 83, 0
2, 42496, Note_on_c, 0, 73, 42
2, 42752, Note_on_c, 0, 73, 0
2, 42752, Note_on_c, 0, 82, 41
2, 43008, Note_on_c, 0, 82, 0
2, 43008, Note_on_c, 0, 83, 40
2, 43520, Note_on_c, 0, 83, 0
2, 49664, Note_on_c, 0, 83, 51
2, 50347, Note_on_c, 0, 83, 0
2, 50347, Note_on_c, 0, 85, 48
2, 50517, Note_on_c, 0, 85, 0
2, 50517, Note_on_c, 0, 83, 47
2, 50688, Note_on_c, 0, 83, 0
2, 50688, Note_on_c, 0, 82, 46
2, 50859, Note_on_c, 0, 82, 0
2, 50859, Note_on_c, 0, 80, 45
2, 51029, Note_on_c, 0, 80, 0
2, 51029, Note_on_c, 0, 78, 44
2, 51200, Note_on_c, 0, 78, 0
2, 51200, Note_on_c, 0, 76, 43
2, 51371, Note_on_c, 0, 76, 0
2, 51371, Note_on_c, 0, 74, 42
2, 51541, Note_on_c, 0, 74, 0
2, 51541, Note_on_c, 0, 73, 41
2, 51712, Note_on_c, 0, 73, 0
2, 51712, Note_on_c, 0, 71, 40
2, 51883, Note_on_c, 0, 71, 0
2, 51883, Note_on_c, 0, 73, 39
2, 52053, Note_on_c, 0, 73, 0
2, 52053, Note_on_c, 0, 70, 38
2, 52224, Note_on_c, 0, 70, 0
2, 52224, Note_on_c, 0, 71, 37
2, 52480, Note_on_c, 0, 71, 0
2, 52480, Note_on_c, 0, 74, 39
2, 52736, Note_on_c, 0, 74, 0
2, 52736, Note_on_c, 0, 78, 39
2, 52992, Note_on_c, 0, 78, 0
2, 52992, Note_on_c, 0, 83, 39
2, 53248, Note_on_c, 0, 83, 0
2, 53248, Note_on_c, 0, 86, 39
2, 53760, Note_on_c, 0, 86, 0
2, 54528, Note_on_c, 0, 71, 39
2, 54784, Note_on_c, 0, 71, 0
2, 54784, Note_on_c, 0, 69, 39
2, 55040, Note_on_c, 0, 69, 0
2, 55040, Note_on_c, 0, 68, 40
2, 55296, Note_on_c, 0, 68, 0
2, 55296, Note_on_c, 0, 69, 40
2, 55552, Note_on_c, 0, 69, 0
2, 55552, Note_on_c, 0, 73, 40
2, 55808, Note_on_c, 0, 73, 0
2, 55808, Note_on_c, 0, 76, 40
2, 56064, Note_on_c, 0, 76, 0
2, 56064, Note_on_c, 0, 80, 40
2, 56320, Note_on_c, 0, 80, 0
2, 56320, Note_on_c, 0, 81, 40
2, 56832, Note_on_c, 0, 81, 0
2, 59392, Note_on_c, 0, 72, 52
2, 59904, Note_on_c, 0, 72, 0
2, 59904, Note_on_c, 0, 71, 53
2, 60928, Note_on_c, 0, 71, 0
2, 60928, Note_on_c, 0, 64, 55
2, 61696, Note_on_c, 0, 64, 0
2, 61696, Note_on_c, 0, 66, 55
2, 61952, Note_on_c, 0, 66, 0
2, 61952, Note_on_c, 0, 64, 53
2, 62208, Note_on_c, 0, 64, 0
2, 62208, Note_on_c, 0, 63, 51
2, 62464, Note_on_c, 0, 63, 0
2, 62464, Note_on_c, 0, 64, 49
2, 62720, Note_on_c, 0, 64, 0
2, 62720, Note_on_c, 0, 67, 48
2, 62976, Note_on_c, 0, 67, 0
2, 62976, Note_on_c, 0, 71, 46
2, 63232, Note_on_c, 0, 71, 0
2, 63232, Note_on_c, 0, 76, 44
2, 63488, Note_on_c, 0, 76, 0
2, 63488, Note_on_c, 0, 79, 42
2, 64000, Note_on_c, 0, 79, 0
2, 67840, Note_on_c, 0, 67, 55
2, 68096, Note_on_c, 0, 67, 0
2, 68096, Note_on_c, 0, 66, 53
2, 68352, Note_on_c, 0, 66, 0
2, 68352, Note_on_c, 0, 64, 52
2, 68608, Note_on_c, 0, 64, 0
2, 68608, Note_on_c, 0, 66, 50
2, 68864, Note_on_c, 0, 66, 0
2, 68864, Note_on_c, 0, 69, 49
2, 69120, Note_on_c, 0, 69, 0
2, 69120, Note_on_c, 0, 74, 47
2, 69376, Note_on_c, 0, 74, 0
2, 69376, Note_on_c, 0, 78, 46
2, 69632, Note_on_c, 0, 78, 0
2, 69632, Note_on_c, 0, 81, 46
2, 70144, Note_on_c, 0, 81, 0
2, 70912, Note_on_c, 0, 79, 42
2, 71168, Note_on_c, 0, 79, 0
2, 71168, Note_on_c, 0, 78, 41
2, 71424, Note_on_c, 0, 78, 0
2, 71424, Note_on_c, 0, 76, 41
2, 71680, Note_on_c, 0, 76, 0
2, 71680, Note_on_c, 0, 78, 47
2, 71859, Note_on_c, 0, 78, 0
2, 71936, Note_on_c, 0, 76, 47
2, 72192, Note_on_c, 0, 76, 0
2, 72192, Note_on_c, 0, 74, 47
2, 72448, Note_on_c, 0, 74, 0
2, 72448, Note_on_c, 0, 73, 47
2, 72704, Note_on_c, 0, 73, 0
2, 72704, Note_on_c, 0, 76, 47
2, 72883, Note_on_c, 0, 76, 0
2, 72960, Note_on_c, 0, 74, 47
2, 73216, Note_on_c, 0, 74, 0
2, 73216, Note_on_c, 0, 73, 47
2, 73472, Note_on_c, 0, 73, 0
2, 73472, Note_on_c, 0, 71, 47
2, 73728, Note_on_c, 0, 71, 0
2, 73728, Note_on_c, 0, 73, 48
2, 73899, Note_on_c, 0, 73, 0
2, 73899, Note_on_c, 0, 71, 50
2, 74069, Note_on_c, 0, 71, 0
2, 74069, Note_on_c, 0, 69, 52
2, 74240, Note_on_c, 0, 69, 0
2, 74240, Note_on_c, 0, 64, 54
2, 74411, Note_on_c, 0, 64, 0
2, 74411, Note_on_c, 0, 69, 56
2, 74581, Note_on_c, 0, 69, 0
2, 74581, Note_on_c, 0, 71, 58
2, 74752, Note_on_c, 0, 71, 0
2, 74752, Note_on_c, 0, 73, 58
2, 74923, Note_on_c, 0, 73, 0
2, 74923, Note_on_c, 0, 71, 55
2, 75093, Note_on_c, 0, 71, 0
2, 75093, Note_on_c, 0, 69, 53
2, 75264, Note_on_c, 0, 69, 0
2, 75264, Note_on_c, 0, 71, 50
2, 75435, Note_on_c, 0, 71, 0
2, 75435, Note_on_c, 0, 73, 48
2, 75605, Note_on_c, 0, 73, 0
2, 75605, Note_on_c, 0, 74, 45
2, 75776, Note_on_c, 0, 74, 0
2, 75776, Note_on_c, 0, 76, 46
2, 76288, Note_on_c, 0, 76, 0
2, 78848, Note_on_c, 0, 69, 45
2, 79104, Note_on_c, 0, 69, 0
2, 79104, Note_on_c, 0, 73, 44
2, 79360, Note_on_c, 0, 73, 0
2, 79360, Note_on_c, 0, 76, 43
2, 79616, Note_on_c, 0, 76, 0
2, 79616, Note_on_c, 0, 79, 42
2, 79872, Note_on_c, 0, 79, 0
2, 79872, Note_on_c, 0, 78, 41
2, 80043, Note_on_c, 0, 78, 0
2, 80043, Note_on_c, 0, 76, 45
2, 80213, Note_on_c, 0, 76, 0
2, 80213, Note_on_c, 0, 74, 46
2, 80384, Note_on_c, 0, 74, 0
2, 80384, Note_on_c, 0, 69, 47
2, 80555, Note_on_c, 0, 69, 0
2, 80555, Note_on_c, 0, 74, 48
2, 80725, Note_on_c, 0, 74, 0
2, 80725, Note_on_c, 0, 76, 49
2, 80896, Note_on_c, 0, 76, 0
2, 80896, Note_on_c, 0, 78, 50
2, 81067, Note_on_c, 0, 78, 0
2, 81067, Note_on_c, 0, 76, 52
2, 81237, Note_on_c, 0, 76, 0
2, 81237, Note_on_c, 0, 74, 53
2, 81408, Note_on_c, 0, 74, 0
2, 81408, Note_on_c, 0, 76, 54
2, 81579, Note_on_c, 0, 76, 0
2, 81579, Note_on_c, 0, 78, 55
2, 81749, Note_on_c, 0, 78, 0
2, 81749, Note_on_c, 0, 79, 56
2, 81920, Note_on_c, 0, 79, 0
2, 81920, Note_on_c, 0, 81, 57
2, 82091, Note_on_c, 0, 81, 0
2, 82091, Note_on_c, 0, 79, 57
2, 82261, Note_on_c, 0, 79, 0
2, 82261, Note_on_c, 0, 78, 55
2, 82432, Note_on_c, 0, 78, 0
2, 82432, Note_on_c, 0, 79, 53
2, 82603, Note_on_c, 0, 79, 0
2, 82603, Note_on_c, 0, 81, 51
2, 82773, Note_on_c, 0, 81, 0
2, 82773, Note_on_c, 0, 83, 49
2, 82927, Note_on_c, 0, 83, 0
2, 82944, Note_on_c, 0, 76, 46
2, 83115, Note_on_c, 0, 76, 0
2, 83115, Note_on_c, 0, 74, 47
2, 83285, Note_on_c, 0, 74, 0
2, 83285, Note_on_c, 0, 73, 48
2, 83456, Note_on_c, 0, 73, 0
2, 83456, Note_on_c, 0, 69, 49
2, 83627, Note_on_c, 0, 69, 0
2, 83627, Note_on_c, 0, 73, 50
2, 83797, Note_on_c, 0, 73, 0
2, 83797, Note_on_c, 0, 74, 51
2, 83968, Note_on_c, 0, 74, 0
2, 83968, Note_on_c, 0, 76, 52
2, 84139, Note_on_c, 0, 76, 0
2, 84139, Note_on_c, 0, 74, 53
2, 84309, Note_on_c, 0, 74, 0
2, 84309, Note_on_c, 0, 73, 53
2, 84480, Note_on_c, 0, 73, 0
2, 84480, Note_on_c, 0, 74, 54
2, 84651, Note_on_c, 0, 74, 0
2, 84651, Note_on_c, 0, 76, 55
2, 84821, Note_on_c, 0, 76, 0
2, 84821, Note_on_c, 0, 78, 56
2, 84992, Note_on_c, 0, 78, 0
2, 84992, Note_on_c, 0, 79, 57
2, 85163, Note_on_c, 0, 79, 0
2, 85163, Note_on_c, 0, 78, 55
2, 85333, Note_on_c, 0, 78, 0
2, 85333, Note_on_c, 0, 76, 54
2, 85504, Note_on_c, 0, 76, 0
2, 85504, Note_on_c, 0, 78, 52
2, 85675, Note_on_c, 0, 78, 0
2, 85675, Note_on_c, 0, 79, 50
2, 85845, Note_on_c, 0, 79, 0
2, 85845, Note_on_c, 0, 81, 48
2, 85999, Note_on_c, 0, 81, 0
2, 86016, Note_on_c, 0, 74, 50
2, 86187, Note_on_c, 0, 74, 0
2, 86187, Note_on_c, 0, 73, 51
2, 86357, Note_on_c, 0, 73, 0
2, 86357, Note_on_c, 0, 71, 53
2, 86528, Note_on_c, 0, 71, 0
2, 86528, Note_on_c, 0, 66, 54
2, 86699, Note_on_c, 0, 66, 0
2, 86699, Note_on_c, 0, 71, 56
2, 86869, Note_on_c, 0, 71, 0
2, 86869, Note_on_c, 0, 73, 57
2, 87040, Note_on_c, 0, 73, 0
2, 87040, Note_on_c, 0, 74, 58
2, 87211, Note_on_c, 0, 74, 0
2, 87211, Note_on_c, 0, 73, 60
2, 87381, Note_on_c, 0, 73, 0
2, 87381, Note_on_c, 0, 71, 61
2, 87552, Note_on_c, 0, 71, 0
2, 87552, Note_on_c, 0, 73, 62
2, 87723, Note_on_c, 0, 73, 0
2, 87723, Note_on_c, 0, 74, 64
2, 87893, Note_on_c, 0, 74, 0
2, 87893, Note_on_c, 0, 76, 65
2, 88064, Note_on_c, 0, 76, 0
2, 88064, Note_on_c, 0, 78, 67
2, 88235, Note_on_c, 0, 78, 0
2, 88235, Note_on_c, 0, 76, 68
2, 88405, Note_on_c, 0, 76, 0
2, 88405, Note_on_c, 0, 74, 69
2, 88576, Note_on_c, 0, 74, 0
2, 88576, Note_on_c, 0, 76, 71
2, 88747, Note_on_c, 0, 76, 0
2, 88747, Note_on_c, 0, 78, 72
2, 88917, Note_on_c, 0, 78, 0
2, 88917, Note_on_c, 0, 79, 74
2, 89071, Note_on_c, 0, 79, 0
2, 89088, Note_on_c, 0, 79, 75
2, 89344, Note_on_c, 0, 79, 0
2, 89344, Note_on_c, 0, 73, 70
2, 89600, Note_on_c, 0, 73, 0
2, 89600, Note_on_c, 0, 64, 65
2, 90283, Note_on_c, 0, 64, 0
2, 90283, Note_on_c, 0, 67, 56
2, 90453, Note_on_c, 0, 67, 0
2, 90453, Note_on_c, 0, 71, 57
2, 90624, Note_on_c, 0, 71, 0
2, 90624, Note_on_c, 0, 74, 59
2, 90795, Note_on_c, 0, 74, 0
2, 90795, Note_on_c, 0, 73, 61
2, 90965, Note_on_c, 0, 73, 0
2, 90965, Note_on_c, 0, 71, 62
2, 91136, Note_on_c, 0, 71, 0
2, 91136, Note_on_c, 0, 73, 64
2, 91307, Note_on_c, 0, 73, 0
2, 91307, Note_on_c, 0, 76, 66
2, 91477, Note_on_c, 0, 76, 0
2, 91477, Note_on_c, 0, 79, 67
2, 91648, Note_on_c, 0, 79, 0
2, 91648, Note_on_c, 0, 83, 69
2, 91819, Note_on_c, 0, 83, 0
2, 91819, Note_on_c, 0, 81, 71
2, 91989, Note_on_c, 0, 81, 0
2, 91989, Note_on_c, 0, 79, 73
2, 92160, Note_on_c, 0, 79, 0
2, 92160, Note_on_c, 0, 79, 74
2, 92416, Note_on_c, 0, 79, 0
2, 92416, Note_on_c, 0, 81, 72
2, 92800, Note_on_c, 0, 81, 0
2, 92800, Note_on_c, 0, 79, 72
2, 92928, Note_on_c, 0, 79, 0
2, 92928, Note_on_c, 0, 78, 71
2, 93056, Note_on_c, 0, 78, 0
2, 93056, Note_on_c, 0, 76, 70
2, 93184, Note_on_c, 0, 76, 0
2, 93184, Note_on_c, 0, 78, 68
2, 93312, Note_on_c, 0, 78, 0
2, 93312, Note_on_c, 0, 76, 67
2, 93440, Note_on_c, 0, 76, 0
2, 93440, Note_on_c, 0, 74, 66
2, 93568, Note_on_c, 0, 74, 0
2, 93568, Note_on_c, 0, 73, 64
2, 93696, Note_on_c, 0, 73, 0
2, 93696, Note_on_c, 0, 74, 63
2, 93952, Note_on_c, 0, 74, 0
2, 93952, Note_on_c, 0, 71, 60
2, 94208, Note_on_c, 0, 71, 0
2, 94208, Note_on_c, 0, 74, 58
2, 94336, Note_on_c, 0, 74, 0
2, 94336, Note_on_c, 0, 73, 57
2, 94464, Note_on_c, 0, 73, 0
2, 94464, Note_on_c, 0, 74, 56
2, 94528, Note_on_c, 0, 74, 0
2, 94528, Note_on_c, 0, 73, 56
2, 94592, Note_on_c, 0, 73, 0
2, 94592, Note_on_c, 0, 74, 55
2, 94656, Note_on_c, 0, 74, 0
2, 94656, Note_on_c, 0, 73, 55
2, 94720, Note_on_c, 0, 73, 0
2, 94720, Note_on_c, 0, 74, 55
2, 94784, Note_on_c, 0, 74, 0
2, 94784, Note_on_c, 0, 73, 54
2, 94848, Note_on_c, 0, 73, 0
2, 94848, Note_on_c, 0, 74, 54
2, 94912, Note_on_c, 0, 74, 0
2, 94912, Note_on_c, 0, 73, 53
2, 94976, Note_on_c, 0, 73, 0
2, 94976, Note_on_c, 0, 74, 53
2, 95232, Note_on_c, 0, 74, 0
2, 95232, Note_on_c, 0, 74, 55
2, 96000, Note_on_c, 0, 74, 0
2, 96000, Note_on_c, 0, 78, 48
2, 96128, Note_on_c, 0, 78, 0
2, 96128, Note_on_c, 0, 76, 47
2, 96256, Note_on_c, 0, 76, 0
2, 96256, Note_on_c, 0, 78, 45
2, 96427, Note_on_c, 0, 78, 0
2, 96427, Note_on_c, 0, 81, 43
2, 96597, Note_on_c, 0, 81, 0
2, 96597, Note_on_c, 0, 79, 41
2, 96768, Note_on_c, 0, 79, 0
2, 96768, Note_on_c, 0, 81, 39
2, 96939, Note_on_c, 0, 81, 0
2, 96939, Note_on_c, 0, 86, 37
2, 97109, Note_on_c, 0, 86, 0
2, 97109, Note_on_c, 0, 85, 35
2, 97280, Note_on_c, 0, 85, 0
2, 97280, Note_on_c, 0, 86, 33
2, 97792, Note_on_c, 0, 86, 0
2, 98560, Note_on_c, 0, 71, 36
2, 98816, Note_on_c, 0, 71, 0
2, 98816, Note_on_c, 0, 69, 38
2, 99072, Note_on_c, 0, 69, 0
2, 99072, Note_on_c, 0, 67, 39
2, 99328, Note_on_c, 0, 67, 0
2, 99328, Note_on_c, 0, 69, 40
2, 99584, Note_on_c, 0, 69, 0
2, 99584, Note_on_c, 0, 72, 42
2, 99840, Note_on_c, 0, 72, 0
2, 99840, Note_on_c, 0, 75, 43
2, 100096, Note_on_c, 0, 75, 0
2, 100096, Note_on_c, 0, 76, 44
2, 100352, Note_on_c, 0, 76, 0
2, 100352, Note_on_c, 0, 78, 46
2, 100864, Note_on_c, 0, 78, 0
2, 101632, Note_on_c, 0, 69, 51
2, 101888, Note_on_c, 0, 69, 0
2, 101888, Note_on_c, 0, 67, 49
2, 102144, Note_on_c, 0, 67, 0
2, 102144, Note_on_c, 0, 66, 48
2, 102400, Note_on_c, 0, 66, 0
2, 102400, Note_on_c, 0, 64, 46
2, 102656, Note_on_c, 0, 64, 0
2, 102656, Note_on_c, 0, 67, 44
2, 102912, Note_on_c, 0, 67, 0
2, 102912, Note_on_c, 0, 71, 42
2, 103168, Note_on_c, 0, 71, 0
2, 103168, Note_on_c, 0, 76, 41
2, 103424, Note_on_c, 0, 76, 0
2, 103424, Note_on_c, 0, 79, 39
2, 103936, Note_on_c, 0, 79, 0
2, 104704, Note_on_c, 0, 72, 40
2, 104960, Note_on_c, 0, 72, 0
2, 104960, Note_on_c, 0, 71, 41
2, 105216, Note_on_c, 0, 71, 0
2, 105216, Note_on_c, 0, 69, 42
2, 105472, Note_on_c, 0, 69, 0
2, 105472, Note_on_c, 0, 71, 43
2, 105728, Note_on_c, 0, 71, 0
2, 105728, Note_on_c, 0, 76, 44
2, 105984, Note_on_c, 0, 76, 0
2, 105984, Note_on_c, 0, 79, 46
2, 106240, Note_on_c, 0, 79, 0
2, 106240, Note_on_c, 0, 83, 47
2, 106496, Note_on_c, 0, 83, 0
2, 106496, Note_on_c, 0, 88, 48
2, 107008, Note_on_c, 0, 88, 0
2, 108032, Note_on_c, 0, 83, 54
2, 108715, Note_on_c, 0, 83, 0
2, 108715, Note_on_c, 0, 85, 56
2, 108885, Note_on_c, 0, 85, 0
2, 108885, Note_on_c, 0, 83, 55
2, 109056, Note_on_c, 0, 83, 0
2, 109056, Note_on_c, 0, 82, 53
2, 109227, Note_on_c, 0, 82, 0
2, 109227, Note_on_c, 0, 80, 52
2, 109397, Note_on_c, 0, 80, 0
2, 109397, Note_on_c, 0, 78, 51
2, 109568, Note_on_c, 0, 78, 0
2, 109568, Note_on_c, 0, 76, 49
2, 109739, Note_on_c, 0, 76, 0
2, 109739, Note_on_c, 0, 74, 48
2, 109909, Note_on_c, 0, 74, 0
2, 109909, Note_on_c, 0, 73, 47
2, 110080, Note_on_c, 0, 73, 0
2, 110080, Note_on_c, 0, 71, 45
2, 110251, Note_on_c, 0, 71, 0
2, 110251, Note_on_c, 0, 73, 44
2, 110421, Note_on_c, 0, 73, 0
2, 110421, Note_on_c, 0, 70, 42
2, 110592, Note_on_c, 0, 70, 0
2, 110592, Note_on_c, 0, 71, 41
2, 110848, Note_on_c, 0, 71, 0
2, 110848, Note_on_c, 0, 74, 41
2, 111104, Note_on_c, 0, 74, 0
2, 111104, Note_on_c, 0, 78, 41
2, 111360, Note_on_c, 0, 78, 0
2, 111360, Note_on_c, 0, 83, 41
2, 111616, Note_on_c, 0, 83, 0
2, 111616, Note_on_c, 0, 86, 41
2, 112128, Note_on_c, 0, 86, 0
2, 112896, Note_on_c, 0, 74, 41
2, 113152, Note_on_c, 0, 74, 0
2, 113152, Note_on_c, 0, 73, 42
2, 113408, Note_on_c, 0, 73, 0
2, 113408, Note_on_c, 0, 71, 43
2, 113664, Note_on_c, 0, 71, 0
2, 113664, Note_on_c, 0, 73, 44
2, 113920, Note_on_c, 0, 73, 0
2, 113920, Note_on_c, 0, 78, 45
2, 114176, Note_on_c, 0, 78, 0
2, 114176, Note_on_c, 0, 82, 47
2, 114432, Note_on_c, 0, 82, 0
2, 114432, Note_on_c, 0, 85, 48
2, 114688, Note_on_c, 0, 85, 0
2, 114688, Note_on_c, 0, 88, 49
2, 115200, Note_on_c, 0, 88, 0
2, 115968, Note_on_c, 0, 67, 54
2, 116224, Note_on_c, 0, 67, 0
2, 116224, Note_on_c, 0, 66, 53
2, 116480, Note_on_c, 0, 66, 0
2, 116480, Note_on_c, 0, 64, 51
2, 116736, Note_on_c, 0, 64, 0
2, 116736, Note_on_c, 0, 66, 50
2, 116992, Note_on_c, 0, 66, 0
2, 116992, Note_on_c, 0, 69, 49
2, 117248, Note_on_c, 0, 69, 0
2, 117248, Note_on_c, 0, 72, 47
2, 117504, Note_on_c, 0, 72, 0
2, 117504, Note_on_c, 0, 75, 46
2, 117760, Note_on_c, 0, 75, 0
2, 117760, Note_on_c, 0, 78, 45
2, 118272, Note_on_c, 0, 78, 0
2, 119296, Note_on_c, 0, 66, 52
2, 120320, Note_on_c, 0, 66, 0
2, 120320, Note_on_c, 0, 64, 54
2, 120576, Note_on_c, 0, 64, 0
2, 120576, Note_on_c, 0, 63, 55
2, 120832, Note_on_c, 0, 63, 0
2, 120832, Note_on_c, 0, 64, 57
2, 121088, Note_on_c, 0, 64, 0
2, 121088, Note_on_c, 0, 67, 58
2, 121344, Note_on_c, 0, 67, 0
2, 121344, Note_on_c, 0, 71, 59
2, 121600, Note_on_c, 0, 71, 0
2, 121600, Note_on_c, 0, 76, 60
2, 121856, Note_on_c, 0, 76, 0
2, 121856, Note_on_c, 0, 79, 61
2, 122368, Note_on_c, 0, 79, 0
2, 126208, Note_on_c, 0, 76, 60
2, 126464, Note_on_c, 0, 76, 0
2, 126464, Note_on_c, 0, 74, 59
2, 126720, Note_on_c, 0, 74, 0
2, 126720, Note_on_c, 0, 73, 57
2, 126976, Note_on_c, 0, 73, 0
2, 126976, Note_on_c, 0, 74, 55
2, 127232, Note_on_c, 0, 74, 0
2, 127232, Note_on_c, 0, 78, 53
2, 127488, Note_on_c, 0, 78, 0
2, 127488, Note_on_c, 0, 83, 51
2, 127744, Note_on_c, 0, 83, 0
2, 127744, Note_on_c, 0, 86, 51
2, 128000, Note_on_c, 0, 86, 0
2, 128000, Note_on_c, 0, 90, 50
2, 128512, Note_on_c, 0, 90, 0
2, 129280, Note_on_c, 0, 76, 46
2, 129536, Note_on_c, 0, 76, 0
2, 129536, Note_on_c, 0, 74, 46
2, 129792, Note_on_c, 0, 74, 0
2, 129792, Note_on_c, 0, 73, 45
2, 130048, Note_on_c, 0, 73, 0
2, 130048, Note_on_c, 0, 74, 44
2, 130227, Note_on_c, 0, 74, 0
2, 130304, Note_on_c, 0, 73, 45
2, 130560, Note_on_c, 0, 73, 0
2, 130560, Note_on_c, 0, 71, 46
2, 130816, Note_on_c, 0, 71, 0
2, 130816, Note_on_c, 0, 70, 48
2, 131072, Note_on_c, 0, 70, 0
2, 131072, Note_on_c, 0, 73, 50
2, 131251, Note_on_c, 0, 73, 0
2, 131328, Note_on_c, 0, 71, 52
2, 131584, Note_on_c, 0, 71, 0
2, 131584, Note_on_c, 0, 70, 54
2, 131840, Note_on_c, 0, 70, 0
2, 131840, Note_on_c, 0, 68, 56
2, 132096, Note_on_c, 0, 68, 0
2, 132096, Note_on_c, 0, 70, 55
2, 132267, Note_on_c, 0, 70, 0
2, 132267, Note_on_c, 0, 71, 56
2, 132437, Note_on_c, 0, 71, 0
2, 132437, Note_on_c, 0, 73, 57
2, 132608, Note_on_c, 0, 73, 0
2, 132608, Note_on_c, 0, 74, 58
2, 132779, Note_on_c, 0, 74, 0
2, 132779, Note_on_c, 0, 73, 59
2, 132949, Note_on_c, 0, 73, 0
2, 132949, Note_on_c, 0, 71, 60
2, 133120, Note_on_c, 0, 71, 0
2, 133120, Note_on_c, 0, 73, 61
2, 133291, Note_on_c, 0, 73, 0
2, 133291, Note_on_c, 0, 74, 62
2, 133461, Note_on_c, 0, 74, 0
2, 133461, Note_on_c, 0, 76, 63
2, 133632, Note_on_c, 0, 76, 0
2, 133632, Note_on_c, 0, 78, 64
2, 133803, Note_on_c, 0, 78, 0
2, 133803, Note_on_c, 0, 76, 65
2, 133973, Note_on_c, 0, 76, 0
2, 133973, Note_on_c, 0, 74, 66
2, 134144, Note_on_c, 0, 74, 0
2, 134144, Note_on_c, 0, 76, 67
2, 134656, Note_on_c, 0, 76, 0
2, 139264, Note_on_c, 0, 77, 54
2, 139392, Note_on_c, 0, 77, 0
2, 139392, Note_on_c, 0, 78, 54
2, 139520, Note_on_c, 0, 78, 0
2, 139520, Note_on_c, 0, 77, 53
2, 139584, Note_on_c, 0, 77, 0
2, 139584, Note_on_c, 0, 78, 53
2, 139648, Note_on_c, 0, 78, 0
2, 139648, Note_on_c, 0, 77, 53
2, 139712, Note_on_c, 0, 77, 0
2, 139712, Note_on_c, 0, 78, 53
2, 139776, Note_on_c, 0, 78, 0
2, 139776, Note_on_c, 0, 77, 53
2, 139840, Note_on_c, 0, 77, 0
2, 139840, Note_on_c, 0, 78, 53
2, 139904, Note_on_c, 0, 78, 0
2, 139904, Note_on_c, 0, 77, 52
2, 139968, Note_on_c, 0, 77, 0
2, 139968, Note_on_c, 0, 78, 52
2, 140032, Note_on_c, 0, 78, 0
2, 140032, Note_on_c, 0, 77, 52
2, 140096, Note_on_c, 0, 77, 0
2, 140096, Note_on_c, 0, 78, 52
2, 140160, Note_on_c, 0, 78, 0
2, 140160, Note_on_c, 0, 77, 52
2, 140224, Note_on_c, 0, 77, 0
2, 140224, Note_on_c, 0, 78, 52
2, 140288, Note_on_c, 0, 78, 0
2, 140288, Note_on_c, 0, 77, 51
2, 140352, Note_on_c, 0, 77, 0
2, 140352, Note_on_c, 0, 78, 51
2, 140416, Note_on_c, 0, 78, 0
2, 140416, Note_on_c, 0, 77, 51
2, 140480, Note_on_c, 0, 77, 0
2, 140480, Note_on_c, 0, 78, 51
2, 140544, Note_on_c, 0, 78, 0
2, 140544, Note_on_c, 0, 77, 51
2, 140608, Note_on_c, 0, 77, 0
2, 140608, Note_on_c, 0, 78, 51
2, 140672, Note_on_c, 0, 78, 0
2, 140672, Note_on_c, 0, 77, 50
2, 140736, Note_on_c, 0, 77, 0
2, 140736, Note_on_c, 0, 78, 50
2, 140800, Note_on_c, 0, 78, 0
2, 140800, Note_on_c, 0, 77, 50
2, 140864, Note_on_c, 0, 77, 0
2, 140864, Note_on_c, 0, 78, 50
2, 140928, Note_on_c, 0, 78, 0
2, 140928, Note_on_c, 0, 77, 50
2, 140992, Note_on_c, 0, 77, 0
2, 140992, Note_on_c, 0, 78, 50
2, 141056, Note_on_c, 0, 78, 0
2, 141056, Note_on_c, 0, 77, 49
2, 141107, Note_on_c, 0, 77, 0
2, 141107, Note_on_c, 0, 78, 49
2, 141158, Note_on_c, 0, 78, 0
2, 141158, Note_on_c, 0, 77, 49
2, 141210, Note_on_c, 0, 77, 0
2, 141210, Note_on_c, 0, 75, 49
2, 141261, Note_on_c, 0, 75, 0
2, 141261, Note_on_c, 0, 77, 49
2, 141312, Note_on_c, 0, 77, 0
2, 141312, Note_on_c, 0, 78, 49
2, 141483, Note_on_c, 0, 78, 0
2, 141483, Note_on_c, 0, 76, 48
2, 141653, Note_on_c, 0, 76, 0
2, 141653, Note_on_c, 0, 74, 48
2, 141824, Note_on_c, 0, 74, 0
2, 141824, Note_on_c, 0, 73, 47
2, 141995, Note_on_c, 0, 73, 0
2, 141995, Note_on_c, 0, 74, 45
2, 142165, Note_on_c, 0, 74, 0
2, 142165, Note_on_c, 0, 76, 44
2, 142336, Note_on_c, 0, 76, 0
2, 142336, Note_on_c, 0, 74, 43
2, 142507, Note_on_c, 0, 74, 0
2, 142507, Note_on_c, 0, 73, 42
2, 142677, Note_on_c, 0, 73, 0
2, 142677, Note_on_c, 0, 71, 41
2, 142848, Note_on_c, 0, 71, 0
2, 142848, Note_on_c, 0, 70, 40
2, 143019, Note_on_c, 0, 70, 0
2, 143019, Note_on_c, 0, 71, 39
2, 143189, Note_on_c, 0, 71, 0
2, 143189, Note_on_c, 0, 73, 38
2, 143360, Note_on_c, 0, 73, 0
2, 143360, Note_on_c, 0, 66, 42
2, 143872, Note_on_c, 0, 66, 0
2, 149504, Note_on_c, 0, 71, 46
2, 149760, Note_on_c, 0, 71, 0
2, 149760, Note_on_c, 0, 78, 48
2, 150016, Note_on_c, 0, 78, 0
2, 150016, Note_on_c, 0, 83, 49
2, 150272, Note_on_c, 0, 83, 0
2, 150272, Note_on_c, 0, 86, 50
2, 150451, Note_on_c, 0, 86, 0
2, 150528, Note_on_c, 0, 85, 51
2, 150989, Note_on_c, 0, 85, 0
2, 151040, Note_on_c, 0, 76, 53
2, 152064, Note_on_c, 0, 76, 0
2, 152064, Note_on_c, 0, 74, 50
2, 152576, Note_on_c, 0, 74, 0
2, 152576, Note_on_c, 0, 73, 47
2, 153344, Note_on_c, 0, 73, 0
2, 153344, Note_on_c, 0, 74, 42
2, 153472, Note_on_c, 0, 74, 0
2, 153472, Note_on_c, 0, 76, 41
2, 153600, Note_on_c, 0, 76, 0
2, 153600, Note_on_c, 0, 74, 40
2, 153771, Note_on_c, 0, 74, 0
2, 153771, Note_on_c, 0, 73, 42
2, 153941, Note_on_c, 0, 73, 0
2, 153941, Note_on_c, 0, 71, 43
2, 154112, Note_on_c, 0, 71, 0
2, 154112, Note_on_c, 0, 66, 45
2, 154283, Note_on_c, 0, 66, 0
2, 154283, Note_on_c, 0, 71, 46
2, 154453, Note_on_c, 0, 71, 0
2, 154453, Note_on_c, 0, 73, 47
2, 154624, Note_on_c, 0, 73, 0
2, 154624, Note_on_c, 0, 74, 49
2, 154795, Note_on_c, 0, 74, 0
2, 154795, Note_on_c, 0, 73, 50
2, 154965, Note_on_c, 0, 73, 0
2, 154965, Note_on_c, 0, 71, 52
2, 155136, Note_on_c, 0, 71, 0
2, 155136, Note_on_c, 0, 73, 53
2, 155307, Note_on_c, 0, 73, 0
2, 155307, Note_on_c, 0, 74, 54
2, 155477, Note_on_c, 0, 74, 0
2, 155477, Note_on_c, 0, 76, 56
2, 155648, Note_on_c, 0, 76, 0
2, 155648, Note_on_c, 0, 78, 56
2, 155819, Note_on_c, 0, 78, 0
2, 155819, Note_on_c, 0, 76, 54
2, 155989, Note_on_c, 0, 76, 0
2, 155989, Note_on_c, 0, 74, 53
2, 156160, Note_on_c, 0, 74, 0
2, 156160, Note_on_c, 0, 76, 51
2, 156331, Note_on_c, 0, 76, 0
2, 156331, Note_on_c, 0, 78, 50
2, 156501, Note_on_c, 0, 78, 0
2, 156501, Note_on_c, 0, 79, 48
2, 156655, Note_on_c, 0, 79, 0
2, 156672, Note_on_c, 0, 73, 47
2, 156843, Note_on_c, 0, 73, 0
2, 156843, Note_on_c, 0, 71, 47
2, 157013, Note_on_c, 0, 71, 0
2, 157013, Note_on_c, 0, 69, 48
2, 157184, Note_on_c, 0, 69, 0
2, 157184, Note_on_c, 0, 64, 50
2, 157355, Note_on_c, 0, 64, 0
2, 157355, Note_on_c, 0, 69, 51
2, 157525, Note_on_c, 0, 69, 0
2, 157525, Note_on_c, 0, 71, 52
2, 157696, Note_on_c, 0, 71, 0
2, 157696, Note_on_c, 0, 73, 54
2, 157867, Note_on_c, 0, 73, 0
2, 157867, Note_on_c, 0, 71, 55
2, 158037, Note_on_c, 0, 71, 0
2, 158037, Note_on_c, 0, 69, 56
2, 158208, Note_on_c, 0, 69, 0
2, 158208, Note_on_c, 0, 71, 58
2, 158379, Note_on_c, 0, 71, 0
2, 158379, Note_on_c, 0, 73, 59
2, 158549, Note_on_c, 0, 73, 0
2, 158549, Note_on_c, 0, 74, 61
2, 158720, Note_on_c, 0, 74, 0
2, 158720, Note_on_c, 0, 76, 60
2, 158891, Note_on_c, 0, 76, 0
2, 158891, Note_on_c, 0, 74, 59
2, 159061, Note_on_c, 0, 74, 0
2, 159061, Note_on_c, 0, 73, 57
2, 159232, Note_on_c, 0, 73, 0
2, 159232, Note_on_c, 0, 74, 55
2, 159403, Note_on_c, 0, 74, 0
2, 159403, Note_on_c, 0, 76, 54
2, 159573, Note_on_c, 0, 76, 0
2, 159573, Note_on_c, 0, 78, 52
2, 159727, Note_on_c, 0, 78, 0
2, 159744, Note_on_c, 0, 71, 47
2, 159915, Note_on_c, 0, 71, 0
2, 159915, Note_on_c, 0, 69, 48
2, 160085, Note_on_c, 0, 69, 0
2, 160085, Note_on_c, 0, 67, 49
2, 160256, Note_on_c, 0, 67, 0
2, 160256, Note_on_c, 0, 62, 50
2, 160427, Note_on_c, 0, 62, 0
2, 160427, Note_on_c, 0, 67, 51
2, 160597, Note_on_c, 0, 67, 0
2, 160597, Note_on_c, 0, 69, 52
2, 160768, Note_on_c, 0, 69, 0
2, 160768, Note_on_c, 0, 71, 53
2, 160939, Note_on_c, 0, 71, 0
2, 160939, Note_on_c, 0, 69, 54
2, 161109, Note_on_c, 0, 69, 0
2, 161109, Note_on_c, 0, 67, 55
2, 161280, Note_on_c, 0, 67, 0
2, 161280, Note_on_c, 0, 69, 56
2, 161451, Note_on_c, 0, 69, 0
2, 161451, Note_on_c, 0, 71, 57
2, 161621, Note_on_c, 0, 71, 0
2, 161621, Note_on_c, 0, 73, 58
2, 161792, Note_on_c, 0, 73, 0
2, 161792, Note_on_c, 0, 74, 59
2, 161963, Note_on_c, 0, 74, 0
2, 161963, Note_on_c, 0, 73, 60
2, 162133, Note_on_c, 0, 73, 0
2, 162133, Note_on_c, 0, 71, 61
2, 162304, Note_on_c, 0, 71, 0
2, 162304, Note_on_c, 0, 73, 62
2, 162475, Note_on_c, 0, 73, 0
2, 162475, Note_on_c, 0, 75, 63
2, 162645, Note_on_c, 0, 75, 0
2, 162645, Note_on_c, 0, 76, 64
2, 162816, Note_on_c, 0, 76, 0
2, 162816, Note_on_c, 0, 78, 65
2, 162987, Note_on_c, 0, 78, 0
2, 162987, Note_on_c, 0, 76, 66
2, 163157, Note_on_c, 0, 76, 0
2, 163157, Note_on_c, 0, 75, 66
2, 163328, Note_on_c, 0, 75, 0
2, 163328, Note_on_c, 0, 76, 67
2, 163499, Note_on_c, 0, 76, 0
2, 163499, Note_on_c, 0, 78, 68
2, 163669, Note_on_c, 0, 78, 0
2, 163669, Note_on_c, 0, 79, 69
2, 163840, Note_on_c, 0, 79, 0
2, 163840, Note_on_c, 0, 81, 70
2, 164011, Note_on_c, 0, 81, 0
2, 164011, Note_on_c, 0, 79, 71
2, 164181, Note_on_c, 0, 79, 0
2, 164181, Note_on_c, 0, 78, 72
2, 164352, Note_on_c, 0, 78, 0
2, 164352, Note_on_c, 0, 79, 73
2, 164523, Note_on_c, 0, 79, 0
2, 164523, Note_on_c, 0, 81, 74
2, 164693, Note_on_c, 0, 81, 0
2, 164693, Note_on_c, 0, 83, 75
2, 164864, Note_on_c, 0, 83, 0
2, 164864, Note_on_c, 0, 84, 77
2, 165035, Note_on_c, 0, 84, 0
2, 165035, Note_on_c, 0, 83, 74
2, 165205, Note_on_c, 0, 83, 0
2, 165205, Note_on_c, 0, 81, 70
2, 165376, Note_on_c, 0, 81, 0
2, 165376, Note_on_c, 0, 79, 67
2, 165547, Note_on_c, 0, 79, 0
2, 165547, Note_on_c, 0, 81, 63
2, 165717, Note_on_c, 0, 81, 0
2, 165717, Note_on_c, 0, 78, 60
2, 165888, Note_on_c, 0, 78, 0
2, 165888, Note_on_c, 0, 79, 52
2, 166144, Note_on_c, 0, 79, 0
2, 166144, Note_on_c, 0, 76, 54
2, 166400, Note_on_c, 0, 76, 0
2, 166400, Note_on_c, 0, 74, 57
2, 166528, Note_on_c, 0, 74, 0
2, 166528, Note_on_c, 0, 73, 58
2, 167083, Note_on_c, 0, 73, 0
2, 167083, Note_on_c, 0, 74, 64
2, 167253, Note_on_c, 0, 74, 0
2, 167253, Note_on_c, 0, 76, 66
2, 167424, Note_on_c, 0, 76, 0
2, 167424, Note_on_c, 0, 78, 68
2, 167595, Note_on_c, 0, 78, 0
2, 167595, Note_on_c, 0, 80, 70
2, 167765, Note_on_c, 0, 80, 0
2, 167765, Note_on_c, 0, 82, 71
2, 167936, Note_on_c, 0, 82, 0
2, 167936, Note_on_c, 0, 83, 73
2, 168107, Note_on_c, 0, 83, 0
2, 168107, Note_on_c, 0, 85, 75
2, 168277, Note_on_c, 0, 85, 0
2, 168277, Note_on_c, 0, 86, 77
2, 168448, Note_on_c, 0, 86, 0
2, 168448, Note_on_c, 0, 88, 78
2, 168678, Note_on_c, 0, 88, 0
2, 168704, Note_on_c, 0, 79, 70
2, 168960, Note_on_c, 0, 79, 0
2, 168960, Note_on_c, 0, 78, 63
2, 169216, Note_on_c, 0, 78, 0
2, 169216, Note_on_c, 0, 73, 55
2, 169472, Note_on_c, 0, 73, 0
2, 169472, Note_on_c, 0, 71, 53
2, 169600, Note_on_c, 0, 71, 0
2, 169600, Note_on_c, 0, 70, 55
2, 170155, Note_on_c, 0, 70, 0
2, 170155, Note_on_c, 0, 73, 61
2, 170325, Note_on_c, 0, 73, 0
2, 170325, Note_on_c, 0, 76, 63
2, 170496, Note_on_c, 0, 76, 0
2, 170496, Note_on_c, 0, 79, 65
2, 170667, Note_on_c, 0, 79, 0
2, 170667, Note_on_c, 0, 78, 67
2, 170837, Note_on_c, 0, 78, 0
2, 170837, Note_on_c, 0, 76, 69
2, 171008, Note_on_c, 0, 76, 0
2, 171008, Note_on_c, 0, 78, 71
2, 171179, Note_on_c, 0, 78, 0
2, 171179, Note_on_c, 0, 82, 73
2, 171349, Note_on_c, 0, 82, 0
2, 171349, Note_on_c, 0, 85, 75
2, 171520, Note_on_c, 0, 85, 0
2, 171520, Note_on_c, 0, 88, 77
2, 171691, Note_on_c, 0, 88, 0
2, 171691, Note_on_c, 0, 86, 75
2, 171861, Note_on_c, 0, 86, 0
2, 171861, Note_on_c, 0, 85, 72
2, 172032, Note_on_c, 0, 85, 0
2, 172032, Note_on_c, 0, 86, 64
2, 172672, Note_on_c, 0, 86, 0
2, 172672, Note_on_c, 0, 85, 59
2, 172800, Note_on_c, 0, 85, 0
2, 172800, Note_on_c, 0, 83, 58
2, 172928, Note_on_c, 0, 83, 0
2, 172928, Note_on_c, 0, 82, 57
2, 173056, Note_on_c, 0, 82, 0
2, 173056, Note_on_c, 0, 83, 56
2, 173184, Note_on_c, 0, 83, 0
2, 173184, Note_on_c, 0, 81, 55
2, 173312, Note_on_c, 0, 81, 0
2, 173312, Note_on_c, 0, 79, 54
2, 173440, Note_on_c, 0, 79, 0
2, 173440, Note_on_c, 0, 78, 53
2, 173568, Note_on_c, 0, 78, 0
2, 173568, Note_on_c, 0, 79, 52
2, 173824, Note_on_c, 0, 79, 0
2, 173824, Note_on_c, 0, 76, 51
2, 174080, Note_on_c, 0, 76, 0
2, 174080, Note_on_c, 0, 74, 47
2, 174336, Note_on_c, 0, 74, 0
2, 174336, Note_on_c, 0, 83, 43
2, 174592, Note_on_c, 0, 83, 0
2, 174592, Note_on_c, 0, 73, 39
2, 174848, Note_on_c, 0, 73, 0
2, 174848, Note_on_c, 0, 82, 34
2, 175027, Note_on_c, 0, 82, 0
2, 175104, Note_on_c, 0, 71, 30
2, 178176, Note_on_c, 0, 71, 0
2, 179763, Control_c, 0, 121, 127
2, 181248, End_track
3, 0, Start_track
3, 0, Title_t, "Tenor"
3, 0, Program_c, 1, 71
3, 0, Control_c, 1, 121, 127
3, 0, Control_c, 1, 91, 80
3, 0, Control_c, 1, 1, 15
3, 0, Control_c, 1, 10, 50
3, 0, Control_c, 1, 11, 110
3, 38912, Note_on_c, 1, 62, 35
3, 39168, Note_on_c, 1, 62, 0
3, 39168, Note_on_c, 1, 61, 38
3, 39424, Note_on_c, 1, 61, 0
3, 39424, Note_on_c, 1, 59, 41
3, 39680, Note_on_c, 1, 59, 0
3, 39680, Note_on_c, 1, 62, 42
3, 39859, Note_on_c, 1, 62, 0
3, 39936, Note_on_c, 1, 61, 44
3, 40448, Note_on_c, 1, 61, 0
3, 40448, Note_on_c, 1, 54, 47
3, 40909, Note_on_c, 1, 54, 0
3, 40960, Note_on_c, 1, 64, 51
3, 41728, Note_on_c, 1, 64, 0
3, 41728, Note_on_c, 1, 66, 51
3, 41856, Note_on_c, 1, 66, 0
3, 41856, Note_on_c, 1, 67, 50
3, 41984, Note_on_c, 1, 67, 0
3, 41984, Note_on_c, 1, 66, 50
3, 42496, Note_on_c, 1, 66, 0
3, 42496, Note_on_c, 1, 64, 47
3, 43008, Note_on_c, 1, 64, 0
3, 43008, Note_on_c, 1, 62, 45
3, 43520, Note_on_c, 1, 62, 0
3, 43520, Note_on_c, 1, 64, 45
3, 43776, Note_on_c, 1, 64, 0
3, 43776, Note_on_c, 1, 61, 44
3, 44032, Note_on_c, 1, 61, 0
3, 44032, Note_on_c, 1, 62, 43
3, 44800, Note_on_c, 1, 62, 0
3, 44800, Note_on_c, 1, 64, 41
3, 44928, Note_on_c, 1, 64, 0
3, 44928, Note_on_c, 1, 66, 42
3, 45056, Note_on_c, 1, 66, 0
3, 45056, Note_on_c, 1, 59, 42
3, 45517, Note_on_c, 1, 59, 0
3, 45568, Note_on_c, 1, 62, 44
3, 46080, Note_on_c, 1, 62, 0
3, 46080, Note_on_c, 1, 61, 46
3, 46336, Note_on_c, 1, 61, 0
3, 46336, Note_on_c, 1, 66, 47
3, 46592, Note_on_c, 1, 66, 0
3, 46592, Note_on_c, 1, 65, 46
3, 47104, Note_on_c, 1, 65, 0
3, 47616, Note_on_c, 1, 66, 44
3, 48128, Note_on_c, 1, 66, 0
3, 48128, Note_on_c, 1, 64, 49
3, 48384, Note_on_c, 1, 64, 0
3, 48384, Note_on_c, 1, 62, 51
3, 48640, Note_on_c, 1, 62, 0
3, 48640, Note_on_c, 1, 61, 53
3, 48896, Note_on_c, 1, 61, 0
3, 48896, Note_on_c, 1, 59, 55
3, 49152, Note_on_c, 1, 59, 0
3, 49152, Note_on_c, 1, 58, 58
3, 49408, Note_on_c, 1, 58, 0
3, 49408, Note_on_c, 1, 64, 60
3, 49664, Note_on_c, 1, 64, 0
3, 49664, Note_on_c, 1, 62, 58
3, 50176, Note_on_c, 1, 62, 0
3, 50176, Note_on_c, 1, 61, 54
3, 51200, Note_on_c, 1, 61, 0
3, 51712, Note_on_c, 1, 54, 45
3, 52224, Note_on_c, 1, 54, 0
3, 52224, Note_on_c, 1, 62, 42
3, 52480, Note_on_c, 1, 62, 0
3, 52480, Note_on_c, 1, 61, 44
3, 52736, Note_on_c, 1, 61, 0
3, 52736, Note_on_c, 1, 59, 44
3, 53248, Note_on_c, 1, 59, 0
3, 53760, Note_on_c, 1, 57, 44
3, 54272, Note_on_c, 1, 57, 0
3, 54272, Note_on_c, 1, 56, 44
3, 54784, Note_on_c, 1, 56, 0
3, 54784, Note_on_c, 1, 62, 44
3, 55296, Note_on_c, 1, 62, 0
3, 55296, Note_on_c, 1, 61, 45
3, 55808, Note_on_c, 1, 61, 0
3, 55808, Note_on_c, 1, 62, 45
3, 56064, Note_on_c, 1, 62, 0
3, 56064, Note_on_c, 1, 59, 45
3, 56320, Note_on_c, 1, 59, 0
3, 56320, Note_on_c, 1, 61, 45
3, 57088, Note_on_c, 1, 61, 0
3, 57088, Note_on_c, 1, 62, 45
3, 57216, Note_on_c, 1, 62, 0
3, 57216, Note_on_c, 1, 64, 45
3, 57331, Note_on_c, 1, 64, 0
3, 57344, Note_on_c, 1, 57, 44
3, 57856, Note_on_c, 1, 57, 0
3, 57856, Note_on_c, 1, 61, 51
3, 58112, Note_on_c, 1, 61, 0
3, 58112, Note_on_c, 1, 64, 53
3, 58368, Note_on_c, 1, 64, 0
3, 58368, Note_on_c, 1, 67, 57
3, 58624, Note_on_c, 1, 67, 0
3, 58624, Note_on_c, 1, 66, 58
3, 58880, Note_on_c, 1, 66, 0
3, 58880, Note_on_c, 1, 64, 58
3, 59392, Note_on_c, 1, 64, 0
3, 59904, Note_on_c, 1, 63, 60
3, 60416, Note_on_c, 1, 63, 0
3, 60416, Note_on_c, 1, 64, 61
3, 60928, Note_on_c, 1, 64, 0
3, 60928, Note_on_c, 1, 66, 62
3, 61184, Note_on_c, 1, 66, 0
3, 61184, Note_on_c, 1, 67, 62
3, 61440, Note_on_c, 1, 67, 0
3, 61440, Note_on_c, 1, 69, 62
3, 61696, Note_on_c, 1, 69, 0
3, 61696, Note_on_c, 1, 66, 62
3, 61952, Note_on_c, 1, 66, 0
3, 61952, Note_on_c, 1, 67, 60
3, 62464, Note_on_c, 1, 67, 0
3, 62464, Note_on_c, 1, 67, 55
3, 63488, Note_on_c, 1, 67, 0
3, 64000, Note_on_c, 1, 64, 59
3, 64512, Note_on_c, 1, 64, 0
3, 64512, Note_on_c, 1, 62, 65
3, 64768, Note_on_c, 1, 62, 0
3, 64768, Note_on_c, 1, 61, 68
3, 65024, Note_on_c, 1, 61, 0
3, 65024, Note_on_c, 1, 59, 70
3, 65280, Note_on_c, 1, 59, 0
3, 65280, Note_on_c, 1, 57, 74
3, 65536, Note_on_c, 1, 57, 0
3, 65536, Note_on_c, 1, 69, 76
3, 65792, Note_on_c, 1, 69, 0
3, 65792, Note_on_c, 1, 66, 76
3, 66048, Note_on_c, 1, 66, 0
3, 66048, Note_on_c, 1, 64, 74
3, 66304, Note_on_c, 1, 64, 0
3, 66304, Note_on_c, 1, 62, 73
3, 66560, Note_on_c, 1, 62, 0
3, 66560, Note_on_c, 1, 66, 70
3, 66816, Note_on_c, 1, 66, 0
3, 66816, Note_on_c, 1, 64, 69
3, 67072, Note_on_c, 1, 64, 0
3, 67072, Note_on_c, 1, 62, 67
3, 67328, Note_on_c, 1, 62, 0
3, 67328, Note_on_c, 1, 61, 65
3, 67584, Note_on_c, 1, 61, 0
3, 67584, Note_on_c, 1, 62, 63
3, 68608, Note_on_c, 1, 62, 0
3, 69120, Note_on_c, 1, 66, 53
3, 69632, Note_on_c, 1, 66, 0
3, 69632, Note_on_c, 1, 64, 52
3, 69888, Note_on_c, 1, 64, 0
3, 69888, Note_on_c, 1, 67, 51
3, 70144, Note_on_c, 1, 67, 0
3, 70144, Note_on_c, 1, 66, 50
3, 70656, Note_on_c, 1, 66, 0
3, 70656, Note_on_c, 1, 64, 49
3, 70912, Note_on_c, 1, 64, 0
3, 70912, Note_on_c, 1, 61, 47
3, 71168, Note_on_c, 1, 61, 0
3, 71168, Note_on_c, 1, 57, 46
3, 71680, Note_on_c, 1, 57, 0
3, 72192, Note_on_c, 1, 66, 53
3, 72704, Note_on_c, 1, 66, 0
3, 72704, Note_on_c, 1, 64, 53
3, 72960, Note_on_c, 1, 64, 0
3, 72960, Note_on_c, 1, 67, 53
3, 73216, Note_on_c, 1, 67, 0
3, 73216, Note_on_c, 1, 66, 53
3, 73728, Note_on_c, 1, 66, 0
3, 73728, Note_on_c, 1, 64, 54
3, 73984, Note_on_c, 1, 64, 0
3, 73984, Note_on_c, 1, 68, 58
3, 74240, Note_on_c, 1, 68, 0
3, 74240, Note_on_c, 1, 69, 61
3, 74752, Note_on_c, 1, 69, 0
3, 74752, Note_on_c, 1, 57, 66
3, 75776, Note_on_c, 1, 57, 0
3, 76288, Note_on_c, 1, 67, 54
3, 76800, Note_on_c, 1, 67, 0
3, 76800, Note_on_c, 1, 66, 57
3, 77056, Note_on_c, 1, 66, 0
3, 77056, Note_on_c, 1, 64, 58
3, 77312, Note_on_c, 1, 64, 0
3, 77312, Note_on_c, 1, 62, 58
3, 77568, Note_on_c, 1, 62, 0
3, 77568, Note_on_c, 1, 61, 57
3, 77824, Note_on_c, 1, 61, 0
3, 77824, Note_on_c, 1, 62, 55
3, 78080, Note_on_c, 1, 62, 0
3, 78080, Note_on_c, 1, 57, 54
3, 78336, Note_on_c, 1, 57, 0
3, 78336, Note_on_c, 1, 59, 53
3, 78592, Note_on_c, 1, 59, 0
3, 78592, Note_on_c, 1, 55, 52
3, 78848, Note_on_c, 1, 55, 0
3, 78848, Note_on_c, 1, 54, 51
3, 79104, Note_on_c, 1, 54, 0
3, 79104, Note_on_c, 1, 52, 50
3, 79360, Note_on_c, 1, 52, 0
3, 79360, Note_on_c, 1, 62, 49
3, 79616, Note_on_c, 1, 62, 0
3, 79616, Note_on_c, 1, 61, 47
3, 79872, Note_on_c, 1, 61, 0
3, 79872, Note_on_c, 1, 62, 46
3, 80896, Note_on_c, 1, 62, 0
3, 97792, Note_on_c, 1, 54, 36
3, 98048, Note_on_c, 1, 54, 0
3, 98048, Note_on_c, 1, 55, 37
3, 98304, Note_on_c, 1, 55, 0
3, 98304, Note_on_c, 1, 57, 39
3, 98560, Note_on_c, 1, 57, 0
3, 98560, Note_on_c, 1, 59, 41
3, 98816, Note_on_c, 1, 59, 0
3, 98816, Note_on_c, 1, 60, 43
3, 99840, Note_on_c, 1, 60, 0
3, 99840, Note_on_c, 1, 59, 49
3, 100352, Note_on_c, 1, 59, 0
3, 100352, Note_on_c, 1, 57, 52
3, 100864, Note_on_c, 1, 57, 0
3, 100864, Note_on_c, 1, 55, 55
3, 101325, Note_on_c, 1, 55, 0
3, 101376, Note_on_c, 1, 54, 58
3, 101888, Note_on_c, 1, 54, 0
3, 101888, Note_on_c, 1, 64, 55
3, 102144, Note_on_c, 1, 64, 0
3, 102144, Note_on_c, 1, 63, 54
3, 102400, Note_on_c, 1, 63, 0
3, 102400, Note_on_c, 1, 64, 52
3, 102912, Note_on_c, 1, 64, 0
3, 102912, Note_on_c, 1, 55, 47
3, 103168, Note_on_c, 1, 55, 0
3, 103168, Note_on_c, 1, 54, 46
3, 103424, Note_on_c, 1, 54, 0
3, 103424, Note_on_c, 1, 52, 44
3, 103885, Note_on_c, 1, 52, 0
3, 103936, Note_on_c, 1, 59, 42
3, 104448, Note_on_c, 1, 59, 0
3, 104448, Note_on_c, 1, 60, 44
3, 104704, Note_on_c, 1, 60, 0
3, 104704, Note_on_c, 1, 64, 45
3, 104960, Note_on_c, 1, 64, 0
3, 104960, Note_on_c, 1, 67, 46
3, 105472, Note_on_c, 1, 67, 0
3, 105984, Note_on_c, 1, 59, 52
3, 106496, Note_on_c, 1, 59, 0
3, 106496, Note_on_c, 1, 58, 54
3, 106752, Note_on_c, 1, 58, 0
3, 106752, Note_on_c, 1, 59, 55
3, 107008, Note_on_c, 1, 59, 0
3, 107008, Note_on_c, 1, 61, 57
3, 107264, Note_on_c, 1, 61, 0
3, 107264, Note_on_c, 1, 62, 58
3, 107520, Note_on_c, 1, 62, 0
3, 107520, Note_on_c, 1, 64, 59
3, 107776, Note_on_c, 1, 64, 0
3, 107776, Note_on_c, 1, 62, 60
3, 108032, Note_on_c, 1, 62, 0
3, 108032, Note_on_c, 1, 61, 61
3, 108288, Note_on_c, 1, 61, 0
3, 108288, Note_on_c, 1, 59, 62
3, 108544, Note_on_c, 1, 59, 0
3, 108544, Note_on_c, 1, 66, 63
3, 109568, Note_on_c, 1, 66, 0
3, 110080, Note_on_c, 1, 61, 51
3, 110336, Note_on_c, 1, 61, 0
3, 110336, Note_on_c, 1, 64, 49
3, 110592, Note_on_c, 1, 64, 0
3, 110592, Note_on_c, 1, 62, 46
3, 110848, Note_on_c, 1, 62, 0
3, 110848, Note_on_c, 1, 61, 46
3, 111104, Note_on_c, 1, 61, 0
3, 111104, Note_on_c, 1, 59, 46
3, 112128, Note_on_c, 1, 59, 0
3, 112128, Note_on_c, 1, 54, 45
3, 112589, Note_on_c, 1, 54, 0
3, 112640, Note_on_c, 1, 55, 45
3, 112896, Note_on_c, 1, 55, 0
3, 112896, Note_on_c, 1, 54, 46
3, 113152, Note_on_c, 1, 54, 0
3, 113152, Note_on_c, 1, 52, 47
3, 113408, Note_on_c, 1, 52, 0
3, 113408, Note_on_c, 1, 54, 49
3, 113664, Note_on_c, 1, 54, 0
3, 113664, Note_on_c, 1, 54, 50
3, 113920, Note_on_c, 1, 54, 0
3, 113920, Note_on_c, 1, 58, 51
3, 114176, Note_on_c, 1, 58, 0
3, 114176, Note_on_c, 1, 61, 53
3, 114944, Note_on_c, 1, 61, 0
3, 114944, Note_on_c, 1, 62, 57
3, 115200, Note_on_c, 1, 62, 0
3, 115200, Note_on_c, 1, 64, 58
3, 115456, Note_on_c, 1, 64, 0
3, 115456, Note_on_c, 1, 67, 59
3, 115712, Note_on_c, 1, 67, 0
3, 115712, Note_on_c, 1, 66, 62
3, 115968, Note_on_c, 1, 66, 0
3, 115968, Note_on_c, 1, 64, 61
3, 116224, Note_on_c, 1, 64, 0
3, 116224, Note_on_c, 1, 62, 60
3, 116480, Note_on_c, 1, 62, 0
3, 116480, Note_on_c, 1, 61, 58
3, 116736, Note_on_c, 1, 61, 0
3, 116736, Note_on_c, 1, 63, 57
3, 116992, Note_on_c, 1, 63, 0
3, 116992, Note_on_c, 1, 66, 55
3, 117248, Note_on_c, 1, 66, 0
3, 117248, Note_on_c, 1, 69, 53
3, 117760, Note_on_c, 1, 69, 0
3, 118272, Note_on_c, 1, 60, 50
3, 118784, Note_on_c, 1, 60, 0
3, 118784, Note_on_c, 1, 59, 57
3, 119040, Note_on_c, 1, 59, 0
3, 119040, Note_on_c, 1, 63, 58
3, 119296, Note_on_c, 1, 63, 0
3, 119296, Note_on_c, 1, 66, 59
3, 119552, Note_on_c, 1, 66, 0
3, 119552, Note_on_c, 1, 57, 60
3, 119808, Note_on_c, 1, 57, 0
3, 119808, Note_on_c, 1, 55, 61
3, 120064, Note_on_c, 1, 55, 0
3, 120064, Note_on_c, 1, 54, 60
3, 120320, Note_on_c, 1, 54, 0
3, 120320, Note_on_c, 1, 57, 61
3, 120832, Note_on_c, 1, 57, 0
3, 120832, Note_on_c, 1, 55, 65
3, 121856, Note_on_c, 1, 55, 0
3, 122368, Note_on_c, 1, 64, 71
3, 122624, Note_on_c, 1, 64, 0
3, 122624, Note_on_c, 1, 66, 73
3, 122752, Note_on_c, 1, 66, 0
3, 122752, Note_on_c, 1, 67, 74
3, 122880, Note_on_c, 1, 67, 0
3, 122880, Note_on_c, 1, 67, 74
3, 123136, Note_on_c, 1, 67, 0
3, 123136, Note_on_c, 1, 64, 75
3, 123392, Note_on_c, 1, 64, 0
3, 123392, Note_on_c, 1, 62, 75
3, 123648, Note_on_c, 1, 62, 0
3, 123648, Note_on_c, 1, 61, 75
3, 123904, Note_on_c, 1, 61, 0
3, 123904, Note_on_c, 1, 66, 74
3, 124160, Note_on_c, 1, 66, 0
3, 124160, Note_on_c, 1, 62, 74
3, 124416, Note_on_c, 1, 62, 0
3, 124416, Note_on_c, 1, 61, 74
3, 124672, Note_on_c, 1, 61, 0
3, 124672, Note_on_c, 1, 59, 73
3, 124928, Note_on_c, 1, 59, 0
3, 124928, Note_on_c, 1, 62, 73
3, 125184, Note_on_c, 1, 62, 0
3, 125184, Note_on_c, 1, 61, 73
3, 125440, Note_on_c, 1, 61, 0
3, 125440, Note_on_c, 1, 59, 71
3, 125696, Note_on_c, 1, 59, 0
3, 125696, Note_on_c, 1, 58, 71
3, 125952, Note_on_c, 1, 58, 0
3, 125952, Note_on_c, 1, 59, 71
3, 126976, Note_on_c, 1, 59, 0
3, 127488, Note_on_c, 1, 62, 58
3, 128000, Note_on_c, 1, 62, 0
3, 128000, Note_on_c, 1, 61, 57
3, 128256, Note_on_c, 1, 61, 0
3, 128256, Note_on_c, 1, 64, 55
3, 128512, Note_on_c, 1, 64, 0
3, 128512, Note_on_c, 1, 62, 55
3, 129024, Note_on_c, 1, 62, 0
3, 129024, Note_on_c, 1, 61, 53
3, 129536, Note_on_c, 1, 61, 0
3, 129536, Note_on_c, 1, 58, 52
3, 130048, Note_on_c, 1, 58, 0
3, 130048, Note_on_c, 1, 54, 50
3, 130509, Note_on_c, 1, 54, 0
3, 130560, Note_on_c, 1, 62, 52
3, 131072, Note_on_c, 1, 62, 0
3, 131072, Note_on_c, 1, 64, 57
3, 131328, Note_on_c, 1, 64, 0
3, 131328, Note_on_c, 1, 62, 59
3, 131584, Note_on_c, 1, 62, 0
3, 131584, Note_on_c, 1, 61, 61
3, 131840, Note_on_c, 1, 61, 0
3, 131840, Note_on_c, 1, 59, 63
3, 132096, Note_on_c, 1, 59, 0
3, 132096, Note_on_c, 1, 61, 62
3, 132352, Note_on_c, 1, 61, 0
3, 132352, Note_on_c, 1, 65, 63
3, 132608, Note_on_c, 1, 65, 0
3, 132608, Note_on_c, 1, 66, 66
3, 133120, Note_on_c, 1, 66, 0
3, 133120, Note_on_c, 1, 54, 69
3, 134144, Note_on_c, 1, 54, 0
3, 134656, Note_on_c, 1, 58, 69
3, 135168, Note_on_c, 1, 58, 0
3, 135168, Note_on_c, 1, 59, 66
3, 135424, Note_on_c, 1, 59, 0
3, 135424, Note_on_c, 1, 61, 69
3, 135680, Note_on_c, 1, 61, 0
3, 135680, Note_on_c, 1, 62, 73
3, 135936, Note_on_c, 1, 62, 0
3, 135936, Note_on_c, 1, 64, 76
3, 136192, Note_on_c, 1, 64, 0
3, 136192, Note_on_c, 1, 66, 79
3, 136448, Note_on_c, 1, 66, 0
3, 136448, Note_on_c, 1, 64, 83
3, 136704, Note_on_c, 1, 64, 0
3, 136704, Note_on_c, 1, 67, 86
3, 136960, Note_on_c, 1, 67, 0
3, 136960, Note_on_c, 1, 66, 87
3, 137216, Note_on_c, 1, 66, 0
3, 137216, Note_on_c, 1, 64, 83
3, 137472, Note_on_c, 1, 64, 0
3, 137472, Note_on_c, 1, 62, 77
3, 137728, Note_on_c, 1, 62, 0
3, 137728, Note_on_c, 1, 61, 73
3, 137984, Note_on_c, 1, 61, 0
3, 137984, Note_on_c, 1, 59, 68
3, 138240, Note_on_c, 1, 59, 0
3, 138240, Note_on_c, 1, 65, 63
3, 138540, Note_on_c, 1, 65, 0
3, 138752, Note_on_c, 1, 59, 62
3, 139264, Note_on_c, 1, 59, 0
3, 139264, Note_on_c, 1, 61, 61
3, 139328, Note_on_c, 1, 61, 0
3, 139328, Note_on_c, 1, 59, 61
3, 139520, Note_on_c, 1, 59, 0
3, 139520, Note_on_c, 1, 58, 60
3, 139776, Note_on_c, 1, 58, 0
3, 139776, Note_on_c, 1, 59, 60
3, 140544, Note_on_c, 1, 59, 0
3, 140544, Note_on_c, 1, 58, 58
3, 140800, Note_on_c, 1, 58, 0
3, 140800, Note_on_c, 1, 59, 57
3, 141568, Note_on_c, 1, 59, 0
3, 141568, Note_on_c, 1, 58, 54
3, 141824, Note_on_c, 1, 58, 0
3, 141824, Note_on_c, 1, 64, 53
3, 142336, Note_on_c, 1, 64, 0
3, 142848, Note_on_c, 1, 67, 45
3, 143360, Note_on_c, 1, 67, 0
3, 143360, Note_on_c, 1, 66, 47
3, 143616, Note_on_c, 1, 66, 0
3, 143616, Note_on_c, 1, 64, 47
3, 143872, Note_on_c, 1, 64, 0
3, 143872, Note_on_c, 1, 62, 47
3, 144128, Note_on_c, 1, 62, 0
3, 144128, Note_on_c, 1, 61, 46
3, 144384, Note_on_c, 1, 61, 0
3, 144384, Note_on_c, 1, 62, 46
3, 144640, Note_on_c, 1, 62, 0
3, 144640, Note_on_c, 1, 59, 45
3, 144896, Note_on_c, 1, 59, 0
3, 144896, Note_on_c, 1, 58, 45
3, 145152, Note_on_c, 1, 58, 0
3, 145152, Note_on_c, 1, 59, 44
3, 145408, Note_on_c, 1, 59, 0
3, 145408, Note_on_c, 1, 52, 44
3, 145664, Note_on_c, 1, 52, 0
3, 145664, Note_on_c, 1, 62, 44
3, 145920, Note_on_c, 1, 62, 0
3, 145920, Note_on_c, 1, 61, 43
3, 146176, Note_on_c, 1, 61, 0
3, 146176, Note_on_c, 1, 59, 43
3, 146432, Note_on_c, 1, 59, 0
3, 146432, Note_on_c, 1, 54, 42
3, 146688, Note_on_c, 1, 54, 0
3, 146688, Note_on_c, 1, 59, 42
3, 146944, Note_on_c, 1, 59, 0
3, 146944, Note_on_c, 1, 61, 41
3, 147200, Note_on_c, 1, 61, 0
3, 147200, Note_on_c, 1, 58, 41
3, 147456, Note_on_c, 1, 58, 0
3, 147456, Note_on_c, 1, 59, 41
3, 148480, Note_on_c, 1, 59, 0
3, 179763, Control_c, 1, 121, 127
3, 181248, End_track
4, 0, Start_track
4, 0, Title_t, "Cello"
4, 0, Program_c, 2, 42
4, 0, Control_c, 2, 121, 127
4, 0, Control_c, 2, 91, 80
4, 0, Control_c, 2, 1, 15
4, 0, Control_c, 2, 10, 80
4, 0, Control_c, 2, 11, 75
4, 2048, Note_on_c, 2, 59, 41
4, 3430, Note_on_c, 2, 59, 0
4, 3584, Note_on_c, 2, 58, 42
4, 3840, Note_on_c, 2, 58, 0
4, 3840, Note_on_c, 2, 56, 43
4, 4096, Note_on_c, 2, 56, 0
4, 4096, Note_on_c, 2, 58, 44
4, 5018, Note_on_c, 2, 58, 0
4, 5632, Note_on_c, 2, 54, 50
4, 5990, Note_on_c, 2, 54, 0
4, 6144, Note_on_c, 2, 59, 48
4, 6502, Note_on_c, 2, 59, 0
4, 6656, Note_on_c, 2, 62, 46
4, 7014, Note_on_c, 2, 62, 0
4, 7168, Note_on_c, 2, 54, 44
4, 7526, Note_on_c, 2, 54, 0
4, 7680, Note_on_c, 2, 58, 42
4, 8038, Note_on_c, 2, 58, 0
4, 8192, Note_on_c, 2, 47, 40
4, 8550, Note_on_c, 2, 47, 0
4, 8704, Note_on_c, 2, 59, 39
4, 9472, Note_on_c, 2, 59, 0
4, 9472, Note_on_c, 2, 62, 44
4, 9728, Note_on_c, 2, 62, 0
4, 9728, Note_on_c, 2, 61, 45
4, 9984, Note_on_c, 2, 61, 0
4, 9984, Note_on_c, 2, 59, 46
4, 10240, Note_on_c, 2, 59, 0
4, 10240, Note_on_c, 2, 58, 48
4, 11162, Note_on_c, 2, 58, 0
4, 11776, Note_on_c, 2, 59, 44
4, 12134, Note_on_c, 2, 59, 0
4, 12288, Note_on_c, 2, 52, 42
4, 12646, Note_on_c, 2, 52, 0
4, 12800, Note_on_c, 2, 53, 41
4, 13158, Note_on_c, 2, 53, 0
4, 13312, Note_on_c, 2, 54, 39
4, 13670, Note_on_c, 2, 54, 0
4, 13824, Note_on_c, 2, 52, 37
4, 14182, Note_on_c, 2, 52, 0
4, 14336, Note_on_c, 2, 50, 40
4, 14694, Note_on_c, 2, 50, 0
4, 14848, Note_on_c, 2, 49, 39
4, 15206, Note_on_c, 2, 49, 0
4, 15360, Note_on_c, 2, 47, 37
4, 15718, Note_on_c, 2, 47, 0
4, 15872, Note_on_c, 2, 59, 40
4, 16794, Note_on_c, 2, 59, 0
4, 16896, Note_on_c, 2, 57, 46
4, 17818, Note_on_c, 2, 57, 0
4, 17920, Note_on_c, 2, 55, 45
4, 18278, Note_on_c, 2, 55, 0
4, 18432, Note_on_c, 2, 45, 37
4, 18790, Note_on_c, 2, 45, 0
4, 18944, Note_on_c, 2, 57, 41
4, 19866, Note_on_c, 2, 57, 0
4, 19968, Note_on_c, 2, 55, 50
4, 20890, Note_on_c, 2, 55, 0
4, 20992, Note_on_c, 2, 54, 48
4, 21350, Note_on_c, 2, 54, 0
4, 21504, Note_on_c, 2, 43, 36
4, 21862, Note_on_c, 2, 43, 0
4, 22016, Note_on_c, 2, 55, 39
4, 22938, Note_on_c, 2, 55, 0
4, 23040, Note_on_c, 2, 54, 45
4, 23962, Note_on_c, 2, 54, 0
4, 24064, Note_on_c, 2, 52, 51
4, 24422, Note_on_c, 2, 52, 0
4, 24576, Note_on_c, 2, 51, 53
4, 25498, Note_on_c, 2, 51, 0
4, 27136, Note_on_c, 2, 47, 56
4, 27494, Note_on_c, 2, 47, 0
4, 27648, Note_on_c, 2, 52, 45
4, 28006, Note_on_c, 2, 52, 0
4, 28160, Note_on_c, 2, 55, 45
4, 28416, Note_on_c, 2, 55, 0
4, 28416, Note_on_c, 2, 54, 48
4, 28672, Note_on_c, 2, 54, 0
4, 28672, Note_on_c, 2, 52, 51
4, 29030, Note_on_c, 2, 52, 0
4, 29184, Note_on_c, 2, 50, 56
4, 29542, Note_on_c, 2, 50, 0
4, 29696, Note_on_c, 2, 49, 61
4, 30054, Note_on_c, 2, 49, 0
4, 30208, Note_on_c, 2, 47, 66
4, 30566, Note_on_c, 2, 47, 0
4, 30720, Note_on_c, 2, 46, 56
4, 31078, Note_on_c, 2, 46, 0
4, 31232, Note_on_c, 2, 54, 44
4, 31488, Note_on_c, 2, 54, 0
4, 31488, Note_on_c, 2, 55, 46
4, 31744, Note_on_c, 2, 55, 0
4, 31744, Note_on_c, 2, 54, 49
4, 32102, Note_on_c, 2, 54, 0
4, 32256, Note_on_c, 2, 52, 54
4, 32614, Note_on_c, 2, 52, 0
4, 32768, Note_on_c, 2, 50, 58
4, 33126, Note_on_c, 2, 50, 0
4, 33280, Note_on_c, 2, 49, 62
4, 33638, Note_on_c, 2, 49, 0
4, 33792, Note_on_c, 2, 47, 56
4, 34150, Note_on_c, 2, 47, 0
4, 34304, Note_on_c, 2, 49, 50
4, 34662, Note_on_c, 2, 49, 0
4, 34816, Note_on_c, 2, 50, 47
4, 35174, Note_on_c, 2, 50, 0
4, 35328, Note_on_c, 2, 52, 44
4, 35686, Note_on_c, 2, 52, 0
4, 35840, Note_on_c, 2, 54, 41
4, 36198, Note_on_c, 2, 54, 0
4, 36352, Note_on_c, 2, 42, 42
4, 36710, Note_on_c, 2, 42, 0
4, 37376, Note_on_c, 2, 47, 37
4, 37734, Note_on_c, 2, 47, 0
4, 37888, Note_on_c, 2, 50, 35
4, 38246, Note_on_c, 2, 50, 0
4, 38400, Note_on_c, 2, 54, 33
4, 38758, Note_on_c, 2, 54, 0
4, 38912, Note_on_c, 2, 59, 31
4, 40294, Note_on_c, 2, 59, 0
4, 40448, Note_on_c, 2, 58, 42
4, 40704, Note_on_c, 2, 58, 0
4, 40704, Note_on_c, 2, 56, 43
4, 40960, Note_on_c, 2, 56, 0
4, 40960, Note_on_c, 2, 58, 45
4, 41882, Note_on_c, 2, 58, 0
4, 42496, Note_on_c, 2, 54, 42
4, 42854, Note_on_c, 2, 54, 0
4, 43008, Note_on_c, 2, 59, 40
4, 43366, Note_on_c, 2, 59, 0
4, 43520, Note_on_c, 2, 54, 40
4, 43878, Note_on_c, 2, 54, 0
4, 44032, Note_on_c, 2, 47, 38
4, 44390, Note_on_c, 2, 47, 0
4, 44544, Note_on_c, 2, 49, 35
4, 44902, Note_on_c, 2, 49, 0
4, 45056, Note_on_c, 2, 50, 37
4, 45414, Note_on_c, 2, 50, 0
4, 45568, Note_on_c, 2, 47, 39
4, 46336, Note_on_c, 2, 47, 0
4, 46336, Note_on_c, 2, 50, 42
4, 46592, Note_on_c, 2, 50, 0
4, 46592, Note_on_c, 2, 49, 41
4, 46848, Note_on_c, 2, 49, 0
4, 46848, Note_on_c, 2, 47, 41
4, 47104, Note_on_c, 2, 47, 0
4, 47104, Note_on_c, 2, 46, 40
4, 48026, Note_on_c, 2, 46, 0
4, 48640, Note_on_c, 2, 47, 47
4, 48998, Note_on_c, 2, 47, 0
4, 49152, Note_on_c, 2, 55, 51
4, 49510, Note_on_c, 2, 55, 0
4, 49664, Note_on_c, 2, 52, 51
4, 50022, Note_on_c, 2, 52, 0
4, 50176, Note_on_c, 2, 54, 48
4, 50534, Note_on_c, 2, 54, 0
4, 50688, Note_on_c, 2, 49, 46
4, 51046, Note_on_c, 2, 49, 0
4, 51200, Note_on_c, 2, 46, 43
4, 51558, Note_on_c, 2, 46, 0
4, 51712, Note_on_c, 2, 42, 40
4, 52070, Note_on_c, 2, 42, 0
4, 52224, Note_on_c, 2, 47, 37
4, 52582, Note_on_c, 2, 47, 0
4, 52736, Note_on_c, 2, 50, 39
4, 53094, Note_on_c, 2, 50, 0
4, 53248, Note_on_c, 2, 44, 39
4, 53606, Note_on_c, 2, 44, 0
4, 53760, Note_on_c, 2, 42, 39
4, 54118, Note_on_c, 2, 42, 0
4, 54272, Note_on_c, 2, 40, 39
4, 54630, Note_on_c, 2, 40, 0
4, 54784, Note_on_c, 2, 52, 39
4, 55142, Note_on_c, 2, 52, 0
4, 55296, Note_on_c, 2, 45, 40
4, 56218, Note_on_c, 2, 45, 0
4, 56832, Note_on_c, 2, 47, 40
4, 57190, Note_on_c, 2, 47, 0
4, 57344, Note_on_c, 2, 49, 39
4, 57702, Note_on_c, 2, 49, 0
4, 57856, Note_on_c, 2, 47, 45
4, 58214, Note_on_c, 2, 47, 0
4, 58368, Note_on_c, 2, 46, 50
4, 58726, Note_on_c, 2, 46, 0
4, 58880, Note_on_c, 2, 46, 51
4, 59238, Note_on_c, 2, 46, 0
4, 59392, Note_on_c, 2, 45, 52
4, 59750, Note_on_c, 2, 45, 0
4, 59904, Note_on_c, 2, 45, 53
4, 60262, Note_on_c, 2, 45, 0
4, 60416, Note_on_c, 2, 44, 54
4, 60774, Note_on_c, 2, 44, 0
4, 60928, Note_on_c, 2, 44, 55
4, 61286, Note_on_c, 2, 44, 0
4, 61440, Note_on_c, 2, 42, 55
4, 61798, Note_on_c, 2, 42, 0
4, 61952, Note_on_c, 2, 47, 53
4, 62310, Note_on_c, 2, 47, 0
4, 62464, Note_on_c, 2, 40, 49
4, 62822, Note_on_c, 2, 40, 0
4, 62976, Note_on_c, 2, 52, 46
4, 63898, Note_on_c, 2, 52, 0
4, 64000, Note_on_c, 2, 54, 52
4, 64256, Note_on_c, 2, 54, 0
4, 64256, Note_on_c, 2, 55, 54
4, 64512, Note_on_c, 2, 55, 0
4, 64512, Note_on_c, 2, 57, 57
4, 64870, Note_on_c, 2, 57, 0
4, 65024, Note_on_c, 2, 55, 62
4, 65382, Note_on_c, 2, 55, 0
4, 65536, Note_on_c, 2, 54, 67
4, 65894, Note_on_c, 2, 54, 0
4, 66048, Note_on_c, 2, 59, 65
4, 66406, Note_on_c, 2, 59, 0
4, 66560, Note_on_c, 2, 55, 62
4, 66918, Note_on_c, 2, 55, 0
4, 67072, Note_on_c, 2, 57, 59
4, 67430, Note_on_c, 2, 57, 0
4, 67584, Note_on_c, 2, 50, 56
4, 67942, Note_on_c, 2, 50, 0
4, 68096, Note_on_c, 2, 57, 53
4, 68454, Note_on_c, 2, 57, 0
4, 68608, Note_on_c, 2, 62, 50
4, 68966, Note_on_c, 2, 62, 0
4, 69120, Note_on_c, 2, 50, 47
4, 69478, Note_on_c, 2, 50, 0
4, 69632, Note_on_c, 2, 49, 46
4, 69990, Note_on_c, 2, 49, 0
4, 70144, Note_on_c, 2, 50, 44
4, 70502, Note_on_c, 2, 50, 0
4, 70656, Note_on_c, 2, 45, 43
4, 71014, Note_on_c, 2, 45, 0
4, 71168, Note_on_c, 2, 45, 41
4, 71526, Note_on_c, 2, 45, 0
4, 71680, Note_on_c, 2, 45, 47
4, 72038, Note_on_c, 2, 45, 0
4, 72192, Note_on_c, 2, 45, 47
4, 72550, Note_on_c, 2, 45, 0
4, 72704, Note_on_c, 2, 45, 47
4, 73062, Note_on_c, 2, 45, 0
4, 73216, Note_on_c, 2, 45, 47
4, 73574, Note_on_c, 2, 45, 0
4, 73728, Note_on_c, 2, 45, 48
4, 74086, Note_on_c, 2, 45, 0
4, 74240, Note_on_c, 2, 57, 54
4, 75162, Note_on_c, 2, 57, 0
4, 75264, Note_on_c, 2, 52, 50
4, 75622, Note_on_c, 2, 52, 0
4, 75776, Note_on_c, 2, 50, 46
4, 76032, Note_on_c, 2, 50, 0
4, 76032, Note_on_c, 2, 49, 47
4, 76288, Note_on_c, 2, 49, 0
4, 76288, Note_on_c, 2, 47, 48
4, 76544, Note_on_c, 2, 47, 0
4, 76544, Note_on_c, 2, 45, 49
4, 76800, Note_on_c, 2, 45, 0
4, 76800, Note_on_c, 2, 50, 50
4, 77158, Note_on_c, 2, 50, 0
4, 77312, Note_on_c, 2, 52, 51
4, 77670, Note_on_c, 2, 52, 0
4, 77824, Note_on_c, 2, 54, 49
4, 78182, Note_on_c, 2, 54, 0
4, 78336, Note_on_c, 2, 55, 47
4, 78694, Note_on_c, 2, 55, 0
4, 78848, Note_on_c, 2, 57, 45
4, 79206, Note_on_c, 2, 57, 0
4, 79360, Note_on_c, 2, 45, 43
4, 79718, Note_on_c, 2, 45, 0
4, 79872, Note_on_c, 2, 50, 41
4, 80230, Note_on_c, 2, 50, 0
4, 80384, Note_on_c, 2, 62, 47
4, 81306, Note_on_c, 2, 62, 0
4, 81408, Note_on_c, 2, 61, 54
4, 82330, Note_on_c, 2, 61, 0
4, 82432, Note_on_c, 2, 59, 53
4, 82790, Note_on_c, 2, 59, 0
4, 82944, Note_on_c, 2, 49, 46
4, 83302, Note_on_c, 2, 49, 0
4, 83456, Note_on_c, 2, 61, 49
4, 84378, Note_on_c, 2, 61, 0
4, 84480, Note_on_c, 2, 59, 54
4, 85402, Note_on_c, 2, 59, 0
4, 85504, Note_on_c, 2, 57, 52
4, 85862, Note_on_c, 2, 57, 0
4, 86016, Note_on_c, 2, 47, 50
4, 86374, Note_on_c, 2, 47, 0
4, 86528, Note_on_c, 2, 59, 54
4, 87450, Note_on_c, 2, 59, 0
4, 87552, Note_on_c, 2, 57, 62
4, 88474, Note_on_c, 2, 57, 0
4, 88576, Note_on_c, 2, 55, 71
4, 88934, Note_on_c, 2, 55, 0
4, 89088, Note_on_c, 2, 45, 75
4, 89446, Note_on_c, 2, 45, 0
4, 89600, Note_on_c, 2, 57, 65
4, 89856, Note_on_c, 2, 57, 0
4, 89856, Note_on_c, 2, 59, 61
4, 90112, Note_on_c, 2, 59, 0
4, 90112, Note_on_c, 2, 61, 57
4, 90470, Note_on_c, 2, 61, 0
4, 90624, Note_on_c, 2, 59, 59
4, 90982, Note_on_c, 2, 59, 0
4, 91136, Note_on_c, 2, 57, 64
4, 91494, Note_on_c, 2, 57, 0
4, 91648, Note_on_c, 2, 55, 69
4, 92006, Note_on_c, 2, 55, 0
4, 92160, Note_on_c, 2, 54, 74
4, 92518, Note_on_c, 2, 54, 0
4, 92672, Note_on_c, 2, 49, 68
4, 93030, Note_on_c, 2, 49, 0
4, 93184, Note_on_c, 2, 50, 68
4, 93542, Note_on_c, 2, 50, 0
4, 93696, Note_on_c, 2, 55, 63
4, 94054, Note_on_c, 2, 55, 0
4, 94208, Note_on_c, 2, 57, 58
4, 94566, Note_on_c, 2, 57, 0
4, 94720, Note_on_c, 2, 45, 55
4, 95078, Note_on_c, 2, 45, 0
4, 95232, Note_on_c, 2, 50, 55
4, 95590, Note_on_c, 2, 50, 0
4, 95744, Note_on_c, 2, 49, 51
4, 96102, Note_on_c, 2, 49, 0
4, 96256, Note_on_c, 2, 50, 45
4, 96614, Note_on_c, 2, 50, 0
4, 96768, Note_on_c, 2, 52, 39
4, 97126, Note_on_c, 2, 52, 0
4, 97280, Note_on_c, 2, 54, 33
4, 97638, Note_on_c, 2, 54, 0
4, 97792, Note_on_c, 2, 57, 32
4, 98150, Note_on_c, 2, 57, 0
4, 98304, Note_on_c, 2, 51, 35
4, 98662, Note_on_c, 2, 51, 0
4, 98816, Note_on_c, 2, 52, 38
4, 99174, Note_on_c, 2, 52, 0
4, 99328, Note_on_c, 2, 54, 40
4, 99686, Note_on_c, 2, 54, 0
4, 99840, Note_on_c, 2, 55, 43
4, 100198, Note_on_c, 2, 55, 0
4, 100352, Note_on_c, 2, 57, 46
4, 100710, Note_on_c, 2, 57, 0
4, 100864, Note_on_c, 2, 59, 49
4, 101222, Note_on_c, 2, 59, 0
4, 101376, Note_on_c, 2, 60, 51
4, 101734, Note_on_c, 2, 60, 0
4, 101888, Note_on_c, 2, 59, 49
4, 102144, Note_on_c, 2, 59, 0
4, 102144, Note_on_c, 2, 57, 48
4, 102400, Note_on_c, 2, 57, 0
4, 102400, Note_on_c, 2, 55, 46
4, 102758, Note_on_c, 2, 55, 0
4, 102912, Note_on_c, 2, 57, 42
4, 103270, Note_on_c, 2, 57, 0
4, 103424, Note_on_c, 2, 55, 39
4, 103782, Note_on_c, 2, 55, 0
4, 103936, Note_on_c, 2, 54, 37
4, 104294, Note_on_c, 2, 54, 0
4, 104448, Note_on_c, 2, 52, 39
4, 104806, Note_on_c, 2, 52, 0
4, 104960, Note_on_c, 2, 40, 41
4, 105318, Note_on_c, 2, 40, 0
4, 105472, Note_on_c, 2, 52, 43
4, 105830, Note_on_c, 2, 52, 0
4, 105984, Note_on_c, 2, 50, 46
4, 106342, Note_on_c, 2, 50, 0
4, 106496, Note_on_c, 2, 49, 48
4, 106854, Note_on_c, 2, 49, 0
4, 107008, Note_on_c, 2, 58, 50
4, 107366, Note_on_c, 2, 58, 0
4, 107520, Note_on_c, 2, 59, 52
4, 107878, Note_on_c, 2, 59, 0
4, 108032, Note_on_c, 2, 55, 54
4, 108390, Note_on_c, 2, 55, 0
4, 108544, Note_on_c, 2, 54, 56
4, 108902, Note_on_c, 2, 54, 0
4, 109056, Note_on_c, 2, 49, 53
4, 109414, Note_on_c, 2, 49, 0
4, 109568, Note_on_c, 2, 46, 49
4, 109926, Note_on_c, 2, 46, 0
4, 110080, Note_on_c, 2, 42, 45
4, 110438, Note_on_c, 2, 42, 0
4, 110592, Note_on_c, 2, 47, 41
4, 110950, Note_on_c, 2, 47, 0
4, 111104, Note_on_c, 2, 47, 41
4, 111462, Note_on_c, 2, 47, 0
4, 111616, Note_on_c, 2, 47, 41
4, 111974, Note_on_c, 2, 47, 0
4, 112128, Note_on_c, 2, 47, 40
4, 112486, Note_on_c, 2, 47, 0
4, 112640, Note_on_c, 2, 47, 40
4, 112998, Note_on_c, 2, 47, 0
4, 113152, Note_on_c, 2, 47, 42
4, 113510, Note_on_c, 2, 47, 0
4, 113664, Note_on_c, 2, 46, 44
4, 114022, Note_on_c, 2, 46, 0
4, 114176, Note_on_c, 2, 46, 47
4, 114534, Note_on_c, 2, 46, 0
4, 114688, Note_on_c, 2, 46, 49
4, 115046, Note_on_c, 2, 46, 0
4, 115200, Note_on_c, 2, 46, 51
4, 115558, Note_on_c, 2, 46, 0
4, 115712, Note_on_c, 2, 46, 55
4, 116070, Note_on_c, 2, 46, 0
4, 116224, Note_on_c, 2, 46, 53
4, 116582, Note_on_c, 2, 46, 0
4, 116736, Note_on_c, 2, 45, 50
4, 117094, Note_on_c, 2, 45, 0
4, 117248, Note_on_c, 2, 42, 47
4, 117606, Note_on_c, 2, 42, 0
4, 117760, Note_on_c, 2, 39, 45
4, 118118, Note_on_c, 2, 39, 0
4, 118272, Note_on_c, 2, 39, 44
4, 118630, Note_on_c, 2, 39, 0
4, 118784, Note_on_c, 2, 39, 50
4, 119142, Note_on_c, 2, 39, 0
4, 119296, Note_on_c, 2, 39, 52
4, 119654, Note_on_c, 2, 39, 0
4, 119808, Note_on_c, 2, 40, 54
4, 120166, Note_on_c, 2, 40, 0
4, 120320, Note_on_c, 2, 47, 54
4, 120678, Note_on_c, 2, 47, 0
4, 120832, Note_on_c, 2, 52, 57
4, 121190, Note_on_c, 2, 52, 0
4, 121344, Note_on_c, 2, 50, 59
4, 121702, Note_on_c, 2, 50, 0
4, 121856, Note_on_c, 2, 49, 61
4, 122214, Note_on_c, 2, 49, 0
4, 122368, Note_on_c, 2, 47, 63
4, 122726, Note_on_c, 2, 47, 0
4, 122880, Note_on_c, 2, 46, 65
4, 123238, Note_on_c, 2, 46, 0
4, 123392, Note_on_c, 2, 47, 66
4, 123648, Note_on_c, 2, 47, 0
4, 123648, Note_on_c, 2, 49, 66
4, 123904, Note_on_c, 2, 49, 0
4, 123904, Note_on_c, 2, 50, 65
4, 124262, Note_on_c, 2, 50, 0
4, 124416, Note_on_c, 2, 55, 65
4, 124774, Note_on_c, 2, 55, 0
4, 124928, Note_on_c, 2, 52, 64
4, 125286, Note_on_c, 2, 52, 0
4, 125440, Note_on_c, 2, 54, 63
4, 125798, Note_on_c, 2, 54, 0
4, 125952, Note_on_c, 2, 47, 63
4, 126310, Note_on_c, 2, 47, 0
4, 126464, Note_on_c, 2, 54, 59
4, 126822, Note_on_c, 2, 54, 0
4, 126976, Note_on_c, 2, 59, 55
4, 127334, Note_on_c, 2, 59, 0
4, 127488, Note_on_c, 2, 47, 51
4, 127846, Note_on_c, 2, 47, 0
4, 128000, Note_on_c, 2, 46, 50
4, 128358, Note_on_c, 2, 46, 0
4, 128512, Note_on_c, 2, 47, 49
4, 128870, Note_on_c, 2, 47, 0
4, 129024, Note_on_c, 2, 42, 47
4, 129382, Note_on_c, 2, 42, 0
4, 129536, Note_on_c, 2, 42, 46
4, 129894, Note_on_c, 2, 42, 0
4, 130048, Note_on_c, 2, 42, 44
4, 130406, Note_on_c, 2, 42, 0
4, 130560, Note_on_c, 2, 42, 46
4, 130918, Note_on_c, 2, 42, 0
4, 131072, Note_on_c, 2, 42, 50
4, 131430, Note_on_c, 2, 42, 0
4, 131584, Note_on_c, 2, 42, 54
4, 131942, Note_on_c, 2, 42, 0
4, 132096, Note_on_c, 2, 42, 55
4, 133018, Note_on_c, 2, 42, 0
4, 133632, Note_on_c, 2, 58, 64
4, 133888, Note_on_c, 2, 58, 0
4, 133888, Note_on_c, 2, 59, 65
4, 134144, Note_on_c, 2, 59, 0
4, 134144, Note_on_c, 2, 61, 67
4, 134502, Note_on_c, 2, 61, 0
4, 134656, Note_on_c, 2, 52, 61
4, 135014, Note_on_c, 2, 52, 0
4, 135168, Note_on_c, 2, 50, 58
4, 135526, Note_on_c, 2, 50, 0
4, 135680, Note_on_c, 2, 49, 64
4, 136038, Note_on_c, 2, 49, 0
4, 136192, Note_on_c, 2, 50, 70
4, 136550, Note_on_c, 2, 50, 0
4, 136704, Note_on_c, 2, 52, 76
4, 137062, Note_on_c, 2, 52, 0
4, 137216, Note_on_c, 2, 54, 73
4, 137574, Note_on_c, 2, 54, 0
4, 137728, Note_on_c, 2, 42, 64
4, 138086, Note_on_c, 2, 42, 0
4, 138240, Note_on_c, 2, 44, 56
4, 138598, Note_on_c, 2, 44, 0
4, 138752, Note_on_c, 2, 44, 55
4, 139110, Note_on_c, 2, 44, 0
4, 139264, Note_on_c, 2, 49, 54
4, 139622, Note_on_c, 2, 49, 0
4, 139776, Note_on_c, 2, 49, 53
4, 140134, Note_on_c, 2, 49, 0
4, 140288, Note_on_c, 2, 37, 51
4, 140646, Note_on_c, 2, 37, 0
4, 140800, Note_on_c, 2, 37, 50
4, 141158, Note_on_c, 2, 37, 0
4, 141312, Note_on_c, 2, 42, 49
4, 141670, Note_on_c, 2, 42, 0
4, 141824, Note_on_c, 2, 54, 47
4, 142746, Note_on_c, 2, 54, 0
4, 142848, Note_on_c, 2, 52, 40
4, 143206, Note_on_c, 2, 52, 0
4, 143360, Note_on_c, 2, 50, 42
4, 143718, Note_on_c, 2, 50, 0
4, 143872, Note_on_c, 2, 46, 42
4, 144230, Note_on_c, 2, 46, 0
4, 144384, Note_on_c, 2, 47, 41
4, 144742, Note_on_c, 2, 47, 0
4, 144896, Note_on_c, 2, 50, 40
4, 145254, Note_on_c, 2, 50, 0
4, 145408, Note_on_c, 2, 55, 39
4, 145766, Note_on_c, 2, 55, 0
4, 145920, Note_on_c, 2, 52, 38
4, 146278, Note_on_c, 2, 52, 0
4, 146432, Note_on_c, 2, 54, 37
4, 146790, Note_on_c, 2, 54, 0
4, 146944, Note_on_c, 2, 42, 36
4, 147302, Note_on_c, 2, 42, 0
4, 147968, Note_on_c, 2, 47, 40
4, 148326, Note_on_c, 2, 47, 0
4, 148480, Note_on_c, 2, 50, 42
4, 148838, Note_on_c, 2, 50, 0
4, 148992, Note_on_c, 2, 54, 44
4, 149350, Note_on_c, 2, 54, 0
4, 149504, Note_on_c, 2, 59, 46
4, 150886, Note_on_c, 2, 59, 0
4, 151040, Note_on_c, 2, 58, 53
4, 151296, Note_on_c, 2, 58, 0
4, 151296, Note_on_c, 2, 56, 54
4, 151552, Note_on_c, 2, 56, 0
4, 151552, Note_on_c, 2, 58, 55
4, 152474, Note_on_c, 2, 58, 0
4, 153088, Note_on_c, 2, 54, 43
4, 153446, Note_on_c, 2, 54, 0
4, 153600, Note_on_c, 2, 47, 40
4, 153958, Note_on_c, 2, 47, 0
4, 154112, Note_on_c, 2, 59, 45
4, 155034, Note_on_c, 2, 59, 0
4, 155136, Note_on_c, 2, 57, 53
4, 156058, Note_on_c, 2, 57, 0
4, 156160, Note_on_c, 2, 55, 51
4, 156518, Note_on_c, 2, 55, 0
4, 156672, Note_on_c, 2, 45, 47
4, 157030, Note_on_c, 2, 45, 0
4, 157184, Note_on_c, 2, 57, 50
4, 158106, Note_on_c, 2, 57, 0
4, 158208, Note_on_c, 2, 55, 58
4, 159130, Note_on_c, 2, 55, 0
4, 159232, Note_on_c, 2, 54, 55
4, 159590, Note_on_c, 2, 54, 0
4, 159744, Note_on_c, 2, 43, 47
4, 160102, Note_on_c, 2, 43, 0
4, 160256, Note_on_c, 2, 55, 50
4, 161178, Note_on_c, 2, 55, 0
4, 161280, Note_on_c, 2, 54, 56
4, 162202, Note_on_c, 2, 54, 0
4, 162304, Note_on_c, 2, 52, 62
4, 162662, Note_on_c, 2, 52, 0
4, 162816, Note_on_c, 2, 51, 65
4, 163174, Note_on_c, 2, 51, 0
4, 165376, Note_on_c, 2, 47, 67
4, 165734, Note_on_c, 2, 47, 0
4, 165888, Note_on_c, 2, 52, 52
4, 166246, Note_on_c, 2, 52, 0
4, 166400, Note_on_c, 2, 55, 57
4, 166656, Note_on_c, 2, 55, 0
4, 166656, Note_on_c, 2, 54, 60
4, 166912, Note_on_c, 2, 54, 0
4, 166912, Note_on_c, 2, 52, 62
4, 167270, Note_on_c, 2, 52, 0
4, 167424, Note_on_c, 2, 50, 68
4, 167782, Note_on_c, 2, 50, 0
4, 167936, Note_on_c, 2, 49, 73
4, 168294, Note_on_c, 2, 49, 0
4, 168448, Note_on_c, 2, 47, 78
4, 168806, Note_on_c, 2, 47, 0
4, 168960, Note_on_c, 2, 46, 63
4, 169318, Note_on_c, 2, 46, 0
4, 169472, Note_on_c, 2, 54, 53
4, 169728, Note_on_c, 2, 54, 0
4, 169728, Note_on_c, 2, 55, 56
4, 169984, Note_on_c, 2, 55, 0
4, 169984, Note_on_c, 2, 54, 59
4, 170342, Note_on_c, 2, 54, 0
4, 170496, Note_on_c, 2, 52, 65
4, 170854, Note_on_c, 2, 52, 0
4, 171008, Note_on_c, 2, 50, 71
4, 171366, Note_on_c, 2, 50, 0
4, 171520, Note_on_c, 2, 49, 77
4, 171878, Note_on_c, 2, 49, 0
4, 172032, Note_on_c, 2, 47, 69
4, 172390, Note_on_c, 2, 47, 0
4, 172544, Note_on_c, 2, 49, 60
4, 172902, Note_on_c, 2, 49, 0
4, 173056, Note_on_c, 2, 50, 56
4, 173414, Note_on_c, 2, 50, 0
4, 173568, Note_on_c, 2, 52, 52
4, 173926, Note_on_c, 2, 52, 0
4, 174080, Note_on_c, 2, 54, 47
4, 174438, Note_on_c, 2, 54, 0
4, 174592, Note_on_c, 2, 42, 39
4, 174950, Note_on_c, 2, 42, 0
4, 175104, Note_on_c, 2, 47, 30
4, 178176, Note_on_c, 2, 47, 0
4, 179763, Control_c, 2, 121, 127
4, 181248, End_track
5, 0, Start_track
5, 0, Title_t, "Continuo"
5, 0, Program_c, 3, 74
5, 0, Control_c, 3, 121, 127
5, 0, Control_c, 3, 91, 80
5, 0, Control_c, 3, 1, 15
5, 0, Control_c, 3, 10, 60
5, 0, Control_c, 3, 11, 90
5, 2048, Note_on_c, 3, 62, 41
5, 2048, Note_on_c, 3, 71, 41
5, 2048, Note_on_c, 3, 59, 41
5, 2560, Note_on_c, 3, 62, 0
5, 2560, Note_on_c, 3, 71, 0
5, 2560, Note_on_c, 3, 66, 41
5, 3072, Note_on_c, 3, 66, 0
5, 3072, Note_on_c, 3, 64, 40
5, 3072, Note_on_c, 3, 67, 40
5, 3430, Note_on_c, 3, 59, 0
5, 3584, Note_on_c, 3, 64, 0
5, 3584, Note_on_c, 3, 67, 0
5, 3584, Note_on_c, 3, 61, 42
5, 3584, Note_on_c, 3, 66, 42
5, 3584, Note_on_c, 3, 58, 42
5, 3840, Note_on_c, 3, 61, 0
5, 3840, Note_on_c, 3, 66, 0
5, 3840, Note_on_c, 3, 59, 43
5, 3840, Note_on_c, 3, 58, 0
5, 3840, Note_on_c, 3, 56, 43
5, 4096, Note_on_c, 3, 59, 0
5, 4096, Note_on_c, 3, 61, 44
5, 4096, Note_on_c, 3, 66, 44
5, 4096, Note_on_c, 3, 56, 0
5, 4096, Note_on_c, 3, 58, 44
5, 5018, Note_on_c, 3, 58, 0
5, 5120, Note_on_c, 3, 61, 0
5, 5120, Note_on_c, 3, 66, 0
5, 5120, Note_on_c, 3, 64, 47
5, 5120, Note_on_c, 3, 67, 47
5, 5632, Note_on_c, 3, 64, 0
5, 5632, Note_on_c, 3, 67, 0
5, 5632, Note_on_c, 3, 58, 50
5, 5632, Note_on_c, 3, 66, 50
5, 5632, Note_on_c, 3, 54, 50
5, 5990, Note_on_c, 3, 54, 0
5, 6144, Note_on_c, 3, 58, 0
5, 6144, Note_on_c, 3, 66, 0
5, 6144, Note_on_c, 3, 59, 48
5, 6144, Note_on_c, 3, 66, 48
5, 6144, Note_on_c, 3, 59, 48
5, 6502, Note_on_c, 3, 59, 0
5, 6656, Note_on_c, 3, 59, 0
5, 6656, Note_on_c, 3, 66, 0
5, 6656, Note_on_c, 3, 62, 46
5, 6656, Note_on_c, 3, 62, 46
5, 7014, Note_on_c, 3, 62, 0
5, 7168, Note_on_c, 3, 62, 0
5, 7168, Note_on_c, 3, 59, 44
5, 7168, Note_on_c, 3, 62, 44
5, 7168, Note_on_c, 3, 54, 44
5, 7526, Note_on_c, 3, 54, 0
5, 7680, Note_on_c, 3, 59, 0
5, 7680, Note_on_c, 3, 62, 0
5, 7680, Note_on_c, 3, 61, 42
5, 7680, Note_on_c, 3, 58, 42
5, 8038, Note_on_c, 3, 58, 0
5, 8192, Note_on_c, 3, 61, 0
5, 8192, Note_on_c, 3, 59, 40
5, 8192, Note_on_c, 3, 62, 40
5, 8192, Note_on_c, 3, 66, 40
5, 8192, Note_on_c, 3, 47, 40
5, 8550, Note_on_c, 3, 47, 0
5, 8704, Note_on_c, 3, 59, 0
5, 8704, Note_on_c, 3, 62, 0
5, 8704, Note_on_c, 3, 66, 0
5, 8704, Note_on_c, 3, 62, 39
5, 8704, Note_on_c, 3, 66, 39
5, 8704, Note_on_c, 3, 59, 39
5, 9472, Note_on_c, 3, 62, 0
5, 9472, Note_on_c, 3, 66, 0
5, 9472, Note_on_c, 3, 66, 44
5, 9472, Note_on_c, 3, 71, 44
5, 9472, Note_on_c, 3, 59, 0
5, 9472, Note_on_c, 3, 62, 44
5, 9728, Note_on_c, 3, 66, 0
5, 9728, Note_on_c, 3, 71, 0
5, 9728, Note_on_c, 3, 61, 45
5, 9728, Note_on_c, 3, 69, 45
5, 9728, Note_on_c, 3, 62, 0
5, 9728, Note_on_c, 3, 61, 45
5, 9984, Note_on_c, 3, 69, 0
5, 9984, Note_on_c, 3, 67, 46
5, 9984, Note_on_c, 3, 61, 0
5, 9984, Note_on_c, 3, 59, 46
5, 10240, Note_on_c, 3, 67, 0
5, 10240, Note_on_c, 3, 66, 48
5, 10240, Note_on_c, 3, 59, 0
5, 10240, Note_on_c, 3, 58, 48
5, 11162, Note_on_c, 3, 58, 0
5, 11264, Note_on_c, 3, 61, 0
5, 11264, Note_on_c, 3, 66, 0
5, 11776, Note_on_c, 3, 62, 44
5, 11776, Note_on_c, 3, 66, 44
5, 11776, Note_on_c, 3, 59, 44
5, 12134, Note_on_c, 3, 59, 0
5, 12288, Note_on_c, 3, 62, 0
5, 12288, Note_on_c, 3, 66, 0
5, 12288, Note_on_c, 3, 61, 42
5, 12288, Note_on_c, 3, 67, 42
5, 12288, Note_on_c, 3, 52, 42
5, 12646, Note_on_c, 3, 52, 0
5, 12800, Note_on_c, 3, 61, 0
5, 12800, Note_on_c, 3, 67, 0
5, 12800, Note_on_c, 3, 59, 41
5, 12800, Note_on_c, 3, 68, 41
5, 12800, Note_on_c, 3, 53, 41
5, 13158, Note_on_c, 3, 53, 0
5, 13312, Note_on_c, 3, 59, 0
5, 13312, Note_on_c, 3, 68, 0
5, 13312, Note_on_c, 3, 61, 39
5, 13312, Note_on_c, 3, 66, 39
5, 13312, Note_on_c, 3, 54, 39
5, 13670, Note_on_c, 3, 54, 0
5, 13824, Note_on_c, 3, 52, 37
5, 14182, Note_on_c, 3, 52, 0
5, 14336, Note_on_c, 3, 61, 0
5, 14336, Note_on_c, 3, 66, 0
5, 14336, Note_on_c, 3, 59, 40
5, 14336, Note_on_c, 3, 66, 40
5, 14336, Note_on_c, 3, 50, 40
5, 14694, Note_on_c, 3, 50, 0
5, 14848, Note_on_c, 3, 59, 0
5, 14848, Note_on_c, 3, 66, 0
5, 14848, Note_on_c, 3, 54, 39
5, 14848, Note_on_c, 3, 64, 39
5, 14848, Note_on_c, 3, 49, 39
5, 15206, Note_on_c, 3, 49, 0
5, 15360, Note_on_c, 3, 54, 0
5, 15360, Note_on_c, 3, 64, 0
5, 15360, Note_on_c, 3, 54, 37
5, 15360, Note_on_c, 3, 62, 37
5, 15360, Note_on_c, 3, 47, 37
5, 15718, Note_on_c, 3, 47, 0
5, 15872, Note_on_c, 3, 54, 0
5, 15872, Note_on_c, 3, 62, 0
5, 15872, Note_on_c, 3, 62, 40
5, 15872, Note_on_c, 3, 66, 40
5, 15872, Note_on_c, 3, 59, 40
5, 16794, Note_on_c, 3, 59, 0
5, 16896, Note_on_c, 3, 62, 0
5, 16896, Note_on_c, 3, 66, 0
5, 16896, Note_on_c, 3, 61, 46
5, 16896, Note_on_c, 3, 57, 46
5, 17408, Note_on_c, 3, 61, 0
5, 17408, Note_on_c, 3, 62, 49
5, 17579, Note_on_c, 3, 62, 0
5, 17579, Note_on_c, 3, 64, 50
5, 17749, Note_on_c, 3, 64, 0
5, 17749, Note_on_c, 3, 66, 47
5, 17818, Note_on_c, 3, 57, 0
5, 17920, Note_on_c, 3, 66, 0
5, 17920, Note_on_c, 3, 59, 45
5, 17920, Note_on_c, 3, 67, 45
5, 17920, Note_on_c, 3, 55, 45
5, 18278, Note_on_c, 3, 55, 0
5, 18432, Note_on_c, 3, 59, 0
5, 18432, Note_on_c, 3, 67, 0
5, 18432, Note_on_c, 3, 52, 37
5, 18432, Note_on_c, 3, 61, 37
5, 18432, Note_on_c, 3, 45, 37
5, 18790, Note_on_c, 3, 45, 0
5, 18944, Note_on_c, 3, 52, 0
5, 18944, Note_on_c, 3, 61, 0
5, 18944, Note_on_c, 3, 61, 41
5, 18944, Note_on_c, 3, 64, 41
5, 18944, Note_on_c, 3, 57, 41
5, 19866, Note_on_c, 3, 57, 0
5, 19968, Note_on_c, 3, 61, 0
5, 19968, Note_on_c, 3, 64, 0
5, 19968, Note_on_c, 3, 59, 50
5, 19968, Note_on_c, 3, 55, 50
5, 20480, Note_on_c, 3, 59, 0
5, 20480, Note_on_c, 3, 61, 54
5, 20651, Note_on_c, 3, 61, 0
5, 20651, Note_on_c, 3, 62, 53
5, 20821, Note_on_c, 3, 62, 0
5, 20821, Note_on_c, 3, 64, 50
5, 20890, Note_on_c, 3, 55, 0
5, 20992, Note_on_c, 3, 64, 0
5, 20992, Note_on_c, 3, 57, 48
5, 20992, Note_on_c, 3, 66, 48
5, 20992, Note_on_c, 3, 54, 48
5, 21350, Note_on_c, 3, 54, 0
5, 21504, Note_on_c, 3, 57, 0
5, 21504, Note_on_c, 3, 66, 0
5, 21504, Note_on_c, 3, 50, 36
5, 21504, Note_on_c, 3, 59, 36
5, 21504, Note_on_c, 3, 43, 36
5, 21862, Note_on_c, 3, 43, 0
5, 22016, Note_on_c, 3, 50, 0
5, 22016, Note_on_c, 3, 59, 0
5, 22016, Note_on_c, 3, 59, 39
5, 22016, Note_on_c, 3, 62, 39
5, 22016, Note_on_c, 3, 55, 39
5, 22938, Note_on_c, 3, 55, 0
5, 23040, Note_on_c, 3, 59, 0
5, 23040, Note_on_c, 3, 62, 0
5, 23040, Note_on_c, 3, 57, 45
5, 23040, Note_on_c, 3, 54, 45
5, 23552, Note_on_c, 3, 57, 0
5, 23552, Note_on_c, 3, 59, 48
5, 23723, Note_on_c, 3, 59, 0
5, 23723, Note_on_c, 3, 61, 49
5, 23893, Note_on_c, 3, 61, 0
5, 23893, Note_on_c, 3, 62, 50
5, 23962, Note_on_c, 3, 54, 0
5, 24064, Note_on_c, 3, 62, 0
5, 24064, Note_on_c, 3, 55, 51
5, 24064, Note_on_c, 3, 64, 51
5, 24064, Note_on_c, 3, 52, 51
5, 24422, Note_on_c, 3, 52, 0
5, 24576, Note_on_c, 3, 55, 0
5, 24576, Note_on_c, 3, 64, 0
5, 24576, Note_on_c, 3, 59, 53
5, 24576, Note_on_c, 3, 66, 53
5, 24576, Note_on_c, 3, 51, 53
5, 25498, Note_on_c, 3, 51, 0
5, 25600, Note_on_c, 3, 59, 0
5, 25600, Note_on_c, 3, 66, 0
5, 27136, Note_on_c, 3, 66, 56
5, 27136, Note_on_c, 3, 75, 56
5, 27136, Note_on_c, 3, 47, 56
5, 27494, Note_on_c, 3, 47, 0
5, 27648, Note_on_c, 3, 66, 0
5, 27648, Note_on_c, 3, 75, 0
5, 27648, Note_on_c, 3, 67, 45
5, 27648, Note_on_c, 3, 76, 45
5, 27648, Note_on_c, 3, 52, 45
5, 28006, Note_on_c, 3, 52, 0
5, 28160, Note_on_c, 3, 67, 0
5, 28160, Note_on_c, 3, 76, 0
5, 28160, Note_on_c, 3, 64, 45
5, 28160, Note_on_c, 3, 73, 45
5, 28160, Note_on_c, 3, 55, 45
5, 28416, Note_on_c, 3, 64, 0
5, 28416, Note_on_c, 3, 73, 0
5, 28416, Note_on_c, 3, 62, 48
5, 28416, Note_on_c, 3, 71, 48
5, 28416, Note_on_c, 3, 55, 0
5, 28416, Note_on_c, 3, 54, 48
5, 28672, Note_on_c, 3, 62, 0
5, 28672, Note_on_c, 3, 71, 0
5, 28672, Note_on_c, 3, 61, 51
5, 28672, Note_on_c, 3, 70, 51
5, 28672, Note_on_c, 3, 54, 0
5, 28672, Note_on_c, 3, 52, 51
5, 29030, Note_on_c, 3, 52, 0
5, 29184, Note_on_c, 3, 61, 0
5, 29184, Note_on_c, 3, 70, 0
5, 29184, Note_on_c, 3, 66, 56
5, 29184, Note_on_c, 3, 71, 56
5, 29184, Note_on_c, 3, 50, 56
5, 29542, Note_on_c, 3, 50, 0
5, 29696, Note_on_c, 3, 66, 0
5, 29696, Note_on_c, 3, 64, 61
5, 29696, Note_on_c, 3, 49, 61
5, 29952, Note_on_c, 3, 64, 0
5, 29952, Note_on_c, 3, 71, 0
5, 29952, Note_on_c, 3, 70, 64
5, 30054, Note_on_c, 3, 49, 0
5, 30208, Note_on_c, 3, 70, 0
5, 30208, Note_on_c, 3, 67, 66
5, 30208, Note_on_c, 3, 71, 66
5, 30208, Note_on_c, 3, 47, 66
5, 30464, Note_on_c, 3, 67, 0
5, 30464, Note_on_c, 3, 64, 62
5, 30566, Note_on_c, 3, 47, 0
5, 30720, Note_on_c, 3, 64, 0
5, 30720, Note_on_c, 3, 71, 0
5, 30720, Note_on_c, 3, 61, 56
5, 30720, Note_on_c, 3, 66, 56
5, 30720, Note_on_c, 3, 46, 56
5, 31078, Note_on_c, 3, 46, 0
5, 31232, Note_on_c, 3, 54, 44
5, 31488, Note_on_c, 3, 54, 0
5, 31488, Note_on_c, 3, 55, 46
5, 31744, Note_on_c, 3, 61, 0
5, 31744, Note_on_c, 3, 66, 0
5, 31744, Note_on_c, 3, 66, 49
5, 31744, Note_on_c, 3, 73, 49
5, 31744, Note_on_c, 3, 55, 0
5, 31744, Note_on_c, 3, 54, 49
5, 32102, Note_on_c, 3, 54, 0
5, 32256, Note_on_c, 3, 66, 0
5, 32256, Note_on_c, 3, 73, 0
5, 32256, Note_on_c, 3, 66, 54
5, 32256, Note_on_c, 3, 70, 54
5, 32256, Note_on_c, 3, 52, 54
5, 32614, Note_on_c, 3, 52, 0
5, 32768, Note_on_c, 3, 66, 0
5, 32768, Note_on_c, 3, 70, 0
5, 32768, Note_on_c, 3, 66, 58
5, 32768, Note_on_c, 3, 71, 58
5, 32768, Note_on_c, 3, 50, 58
5, 33126, Note_on_c, 3, 50, 0
5, 33280, Note_on_c, 3, 66, 0
5, 33280, Note_on_c, 3, 71, 0
5, 33280, Note_on_c, 3, 64, 62
5, 33280, Note_on_c, 3, 70, 62
5, 33280, Note_on_c, 3, 49, 62
5, 33638, Note_on_c, 3, 49, 0
5, 33792, Note_on_c, 3, 64, 0
5, 33792, Note_on_c, 3, 70, 0
5, 33792, Note_on_c, 3, 62, 56
5, 33792, Note_on_c, 3, 66, 56
5, 33792, Note_on_c, 3, 71, 56
5, 33792, Note_on_c, 3, 47, 56
5, 34150, Note_on_c, 3, 47, 0
5, 34304, Note_on_c, 3, 62, 0
5, 34304, Note_on_c, 3, 66, 0
5, 34304, Note_on_c, 3, 71, 0
5, 34304, Note_on_c, 3, 64, 50
5, 34304, Note_on_c, 3, 67, 50
5, 34304, Note_on_c, 3, 49, 50
5, 34662, Note_on_c, 3, 49, 0
5, 34816, Note_on_c, 3, 64, 0
5, 34816, Note_on_c, 3, 67, 0
5, 34816, Note_on_c, 3, 62, 47
5, 34816, Note_on_c, 3, 66, 47
5, 34816, Note_on_c, 3, 50, 47
5, 35174, Note_on_c, 3, 50, 0
5, 35328, Note_on_c, 3, 62, 0
5, 35328, Note_on_c, 3, 66, 0
5, 35328, Note_on_c, 3, 64, 44
5, 35328, Note_on_c, 3, 67, 44
5, 35328, Note_on_c, 3, 52, 44
5, 35686, Note_on_c, 3, 52, 0
5, 35840, Note_on_c, 3, 64, 0
5, 35840, Note_on_c, 3, 67, 0
5, 35840, Note_on_c, 3, 62, 41
5, 35840, Note_on_c, 3, 66, 41
5, 35840, Note_on_c, 3, 54, 41
5, 36198, Note_on_c, 3, 54, 0
5, 36352, Note_on_c, 3, 62, 0
5, 36352, Note_on_c, 3, 66, 0
5, 36352, Note_on_c, 3, 61, 42
5, 36352, Note_on_c, 3, 64, 42
5, 36352, Note_on_c, 3, 42, 42
5, 36710, Note_on_c, 3, 42, 0
5, 36864, Note_on_c, 3, 61, 0
5, 36864, Note_on_c, 3, 64, 0
5, 37376, Note_on_c, 3, 62, 37
5, 37376, Note_on_c, 3, 71, 37
5, 37376, Note_on_c, 3, 47, 37
5, 37734, Note_on_c, 3, 47, 0
5, 37888, Note_on_c, 3, 62, 0
5, 37888, Note_on_c, 3, 71, 0
5, 37888, Note_on_c, 3, 59, 35
5, 37888, Note_on_c, 3, 66, 35
5, 37888, Note_on_c, 3, 50, 35
5, 38246, Note_on_c, 3, 50, 0
5, 38400, Note_on_c, 3, 59, 0
5, 38400, Note_on_c, 3, 66, 0
5, 38400, Note_on_c, 3, 62, 33
5, 38400, Note_on_c, 3, 54, 33
5, 38758, Note_on_c, 3, 54, 0
5, 38912, Note_on_c, 3, 62, 0
5, 38912, Note_on_c, 3, 59, 31
5, 39936, Note_on_c, 3, 64, 39
5, 39936, Note_on_c, 3, 67, 39
5, 40294, Note_on_c, 3, 59, 0
5, 40448, Note_on_c, 3, 64, 0
5, 40448, Note_on_c, 3, 67, 0
5, 40448, Note_on_c, 3, 61, 42
5, 40448, Note_on_c, 3, 66, 42
5, 40448, Note_on_c, 3, 58, 42
5, 40704, Note_on_c, 3, 61, 0
5, 40704, Note_on_c, 3, 66, 0
5, 40704, Note_on_c, 3, 59, 43
5, 40704, Note_on_c, 3, 58, 0
5, 40704, Note_on_c, 3, 56, 43
5, 40960, Note_on_c, 3, 59, 0
5, 40960, Note_on_c, 3, 61, 45
5, 40960, Note_on_c, 3, 66, 45
5, 40960, Note_on_c, 3, 56, 0
5, 40960, Note_on_c, 3, 58, 45
5, 41882, Note_on_c, 3, 58, 0
5, 41984, Note_on_c, 3, 61, 0
5, 41984, Note_on_c, 3, 66, 0
5, 41984, Note_on_c, 3, 64, 44
5, 41984, Note_on_c, 3, 66, 44
5, 42496, Note_on_c, 3, 64, 0
5, 42496, Note_on_c, 3, 66, 0
5, 42496, Note_on_c, 3, 58, 42
5, 42496, Note_on_c, 3, 66, 42
5, 42496, Note_on_c, 3, 54, 42
5, 42854, Note_on_c, 3, 54, 0
5, 43008, Note_on_c, 3, 58, 0
5, 43008, Note_on_c, 3, 66, 0
5, 43008, Note_on_c, 3, 59, 40
5, 43008, Note_on_c, 3, 66, 40
5, 43008, Note_on_c, 3, 59, 40
5, 43366, Note_on_c, 3, 59, 0
5, 43520, Note_on_c, 3, 59, 0
5, 43520, Note_on_c, 3, 66, 0
5, 43520, Note_on_c, 3, 62, 40
5, 43520, Note_on_c, 3, 54, 40
5, 43878, Note_on_c, 3, 54, 0
5, 44032, Note_on_c, 3, 62, 0
5, 44032, Note_on_c, 3, 59, 38
5, 44032, Note_on_c, 3, 62, 38
5, 44032, Note_on_c, 3, 47, 38
5, 44390, Note_on_c, 3, 47, 0
5, 44544, Note_on_c, 3, 59, 0
5, 44544, Note_on_c, 3, 62, 0
5, 44544, Note_on_c, 3, 61, 35
5, 44544, Note_on_c, 3, 49, 35
5, 44902, Note_on_c, 3, 49, 0
5, 45056, Note_on_c, 3, 61, 0
5, 45056, Note_on_c, 3, 59, 37
5, 45056, Note_on_c, 3, 62, 37
5, 45056, Note_on_c, 3, 66, 37
5, 45056, Note_on_c, 3, 50, 37
5, 45414, Note_on_c, 3, 50, 0
5, 45568, Note_on_c, 3, 59, 0
5, 45568, Note_on_c, 3, 62, 0
5, 45568, Note_on_c, 3, 66, 0
5, 45568, Note_on_c, 3, 62, 39
5, 45568, Note_on_c, 3, 66, 39
5, 45568, Note_on_c, 3, 47, 39
5, 46336, Note_on_c, 3, 62, 0
5, 46336, Note_on_c, 3, 66, 0
5, 46336, Note_on_c, 3, 66, 42
5, 46336, Note_on_c, 3, 71, 42
5, 46336, Note_on_c, 3, 47, 0
5, 46336, Note_on_c, 3, 50, 42
5, 46592, Note_on_c, 3, 66, 0
5, 46592, Note_on_c, 3, 71, 0
5, 46592, Note_on_c, 3, 61, 41
5, 46592, Note_on_c, 3, 69, 41
5, 46592, Note_on_c, 3, 50, 0
5, 46592, Note_on_c, 3, 49, 41
5, 46848, Note_on_c, 3, 69, 0
5, 46848, Note_on_c, 3, 67, 41
5, 46848, Note_on_c, 3, 49, 0
5, 46848, Note_on_c, 3, 47, 41
5, 47104, Note_on_c, 3, 67, 0
5, 47104, Note_on_c, 3, 66, 40
5, 47104, Note_on_c, 3, 47, 0
5, 47104, Note_on_c, 3, 46, 40
5, 48026, Note_on_c, 3, 46, 0
5, 48128, Note_on_c, 3, 61, 0
5, 48128, Note_on_c, 3, 66, 0
5, 48640, Note_on_c, 3, 62, 47
5, 48640, Note_on_c, 3, 66, 47
5, 48640, Note_on_c, 3, 47, 47
5, 48998, Note_on_c, 3, 47, 0
5, 49152, Note_on_c, 3, 62, 0
5, 49152, Note_on_c, 3, 66, 0
5, 49152, Note_on_c, 3, 61, 51
5, 49152, Note_on_c, 3, 70, 51
5, 49152, Note_on_c, 3, 55, 51
5, 49510, Note_on_c, 3, 55, 0
5, 49664, Note_on_c, 3, 61, 0
5, 49664, Note_on_c, 3, 70, 0
5, 49664, Note_on_c, 3, 62, 51
5, 49664, Note_on_c, 3, 71, 51
5, 49664, Note_on_c, 3, 52, 51
5, 50022, Note_on_c, 3, 52, 0
5, 50176, Note_on_c, 3, 62, 0
5, 50176, Note_on_c, 3, 61, 48
5, 50176, Note_on_c, 3, 54, 48
5, 50534, Note_on_c, 3, 54, 0
5, 50688, Note_on_c, 3, 61, 0
5, 50688, Note_on_c, 3, 71, 0
5, 50688, Note_on_c, 3, 66, 46
5, 50688, Note_on_c, 3, 70, 46
5, 50688, Note_on_c, 3, 49, 46
5, 51046, Note_on_c, 3, 49, 0
5, 51200, Note_on_c, 3, 46, 43
5, 51558, Note_on_c, 3, 46, 0
5, 51712, Note_on_c, 3, 66, 0
5, 51712, Note_on_c, 3, 70, 0
5, 51712, Note_on_c, 3, 61, 40
5, 51712, Note_on_c, 3, 66, 40
5, 51712, Note_on_c, 3, 42, 40
5, 52070, Note_on_c, 3, 42, 0
5, 52224, Note_on_c, 3, 61, 0
5, 52224, Note_on_c, 3, 66, 0
5, 52224, Note_on_c, 3, 62, 37
5, 52224, Note_on_c, 3, 66, 37
5, 52224, Note_on_c, 3, 47, 37
5, 52582, Note_on_c, 3, 47, 0
5, 52736, Note_on_c, 3, 62, 0
5, 52736, Note_on_c, 3, 66, 0
5, 52736, Note_on_c, 3, 66, 39
5, 52736, Note_on_c, 3, 71, 39
5, 52736, Note_on_c, 3, 50, 39
5, 53094, Note_on_c, 3, 50, 0
5, 53248, Note_on_c, 3, 66, 0
5, 53248, Note_on_c, 3, 71, 0
5, 53248, Note_on_c, 3, 64, 39
5, 53248, Note_on_c, 3, 74, 39
5, 53248, Note_on_c, 3, 44, 39
5, 53606, Note_on_c, 3, 44, 0
5, 53760, Note_on_c, 3, 64, 0
5, 53760, Note_on_c, 3, 74, 0
5, 53760, Note_on_c, 3, 66, 39
5, 53760, Note_on_c, 3, 69, 39
5, 53760, Note_on_c, 3, 42, 39
5, 54118, Note_on_c, 3, 42, 0
5, 54272, Note_on_c, 3, 66, 0
5, 54272, Note_on_c, 3, 69, 0
5, 54272, Note_on_c, 3, 64, 39
5, 54272, Note_on_c, 3, 68, 39
5, 54272, Note_on_c, 3, 40, 39
5, 54630, Note_on_c, 3, 40, 0
5, 54784, Note_on_c, 3, 64, 0
5, 54784, Note_on_c, 3, 68, 0
5, 54784, Note_on_c, 3, 68, 39
5, 54784, Note_on_c, 3, 71, 39
5, 54784, Note_on_c, 3, 52, 39
5, 55142, Note_on_c, 3, 52, 0
5, 55296, Note_on_c, 3, 68, 0
5, 55296, Note_on_c, 3, 71, 0
5, 55296, Note_on_c, 3, 69, 40
5, 55296, Note_on_c, 3, 73, 40
5, 55296, Note_on_c, 3, 45, 40
5, 56218, Note_on_c, 3, 45, 0
5, 56320, Note_on_c, 3, 69, 0
5, 56320, Note_on_c, 3, 73, 0
5, 56832, Note_on_c, 3, 62, 40
5, 56832, Note_on_c, 3, 66, 40
5, 56832, Note_on_c, 3, 47, 40
5, 57190, Note_on_c, 3, 47, 0
5, 57344, Note_on_c, 3, 62, 0
5, 57344, Note_on_c, 3, 66, 0
5, 57344, Note_on_c, 3, 64, 39
5, 57344, Note_on_c, 3, 67, 39
5, 57344, Note_on_c, 3, 49, 39
5, 57702, Note_on_c, 3, 49, 0
5, 57856, Note_on_c, 3, 64, 0
5, 57856, Note_on_c, 3, 67, 0
5, 57856, Note_on_c, 3, 64, 45
5, 57856, Note_on_c, 3, 67, 45
5, 57856, Note_on_c, 3, 47, 45
5, 58214, Note_on_c, 3, 47, 0
5, 58368, Note_on_c, 3, 46, 50
5, 58726, Note_on_c, 3, 46, 0
5, 58880, Note_on_c, 3, 46, 51
5, 59238, Note_on_c, 3, 46, 0
5, 59392, Note_on_c, 3, 64, 0
5, 59392, Note_on_c, 3, 67, 0
5, 59392, Note_on_c, 3, 66, 52
5, 59392, Note_on_c, 3, 64, 52
5, 59392, Note_on_c, 3, 45, 52
5, 59750, Note_on_c, 3, 45, 0
5, 59904, Note_on_c, 3, 64, 0
5, 59904, Note_on_c, 3, 63, 53
5, 59904, Note_on_c, 3, 45, 53
5, 60262, Note_on_c, 3, 45, 0
5, 60416, Note_on_c, 3, 66, 0
5, 60416, Note_on_c, 3, 63, 0
5, 60416, Note_on_c, 3, 64, 54
5, 60416, Note_on_c, 3, 71, 54
5, 60416, Note_on_c, 3, 44, 54
5, 60774, Note_on_c, 3, 44, 0
5, 60928, Note_on_c, 3, 64, 0
5, 60928, Note_on_c, 3, 59, 55
5, 60928, Note_on_c, 3, 44, 55
5, 61286, Note_on_c, 3, 44, 0
5, 61440, Note_on_c, 3, 59, 0
5, 61440, Note_on_c, 3, 71, 0
5, 61440, Note_on_c, 3, 61, 55
5, 61440, Note_on_c, 3, 69, 55
5, 61440, Note_on_c, 3, 42, 55
5, 61798, Note_on_c, 3, 42, 0
5, 61952, Note_on_c, 3, 61, 0
5, 61952, Note_on_c, 3, 69, 0
5, 61952, Note_on_c, 3, 63, 53
5, 61952, Note_on_c, 3, 66, 53
5, 61952, Note_on_c, 3, 47, 53
5, 62310, Note_on_c, 3, 47, 0
5, 62464, Note_on_c, 3, 63, 0
5, 62464, Note_on_c, 3, 66, 0
5, 62464, Note_on_c, 3, 59, 49
5, 62464, Note_on_c, 3, 67, 49
5, 62464, Note_on_c, 3, 40, 49
5, 62822, Note_on_c, 3, 40, 0
5, 62976, Note_on_c, 3, 59, 0
5, 62976, Note_on_c, 3, 67, 0
5, 62976, Note_on_c, 3, 67, 46
5, 62976, Note_on_c, 3, 71, 46
5, 62976, Note_on_c, 3, 52, 46
5, 63898, Note_on_c, 3, 52, 0
5, 64000, Note_on_c, 3, 67, 0
5, 64000, Note_on_c, 3, 71, 0
5, 64000, Note_on_c, 3, 57, 52
5, 64000, Note_on_c, 3, 64, 52
5, 64000, Note_on_c, 3, 54, 52
5, 64256, Note_on_c, 3, 57, 0
5, 64256, Note_on_c, 3, 59, 54
5, 64256, Note_on_c, 3, 54, 0
5, 64256, Note_on_c, 3, 55, 54
5, 64512, Note_on_c, 3, 64, 0
5, 64512, Note_on_c, 3, 59, 0
5, 64512, Note_on_c, 3, 55, 0
5, 64512, Note_on_c, 3, 57, 57
5, 64870, Note_on_c, 3, 57, 0
5, 65024, Note_on_c, 3, 64, 62
5, 65024, Note_on_c, 3, 55, 62
5, 65382, Note_on_c, 3, 55, 0
5, 65536, Note_on_c, 3, 64, 0
5, 65536, Note_on_c, 3, 62, 67
5, 65536, Note_on_c, 3, 69, 67
5, 65536, Note_on_c, 3, 54, 67
5, 65894, Note_on_c, 3, 54, 0
5, 66048, Note_on_c, 3, 62, 0
5, 66048, Note_on_c, 3, 69, 0
5, 66048, Note_on_c, 3, 66, 65
5, 66048, Note_on_c, 3, 71, 65
5, 66048, Note_on_c, 3, 64, 65
5, 66048, Note_on_c, 3, 59, 65
5, 66304, Note_on_c, 3, 64, 0
5, 66304, Note_on_c, 3, 62, 64
5, 66406, Note_on_c, 3, 59, 0
5, 66560, Note_on_c, 3, 66, 0
5, 66560, Note_on_c, 3, 71, 0
5, 66560, Note_on_c, 3, 62, 0
5, 66560, Note_on_c, 3, 66, 62
5, 66560, Note_on_c, 3, 69, 62
5, 66560, Note_on_c, 3, 55, 62
5, 66816, Note_on_c, 3, 66, 0
5, 66816, Note_on_c, 3, 69, 0
5, 66816, Note_on_c, 3, 64, 61
5, 66816, Note_on_c, 3, 67, 61
5, 66918, Note_on_c, 3, 55, 0
5, 67072, Note_on_c, 3, 64, 0
5, 67072, Note_on_c, 3, 67, 0
5, 67072, Note_on_c, 3, 62, 59
5, 67072, Note_on_c, 3, 66, 59
5, 67072, Note_on_c, 3, 57, 59
5, 67328, Note_on_c, 3, 62, 0
5, 67328, Note_on_c, 3, 66, 0
5, 67328, Note_on_c, 3, 61, 57
5, 67328, Note_on_c, 3, 64, 57
5, 67430, Note_on_c, 3, 57, 0
5, 67584, Note_on_c, 3, 61, 0
5, 67584, Note_on_c, 3, 64, 0
5, 67584, Note_on_c, 3, 57, 56
5, 67584, Note_on_c, 3, 62, 56
5, 67584, Note_on_c, 3, 66, 56
5, 67584, Note_on_c, 3, 50, 56
5, 67942, Note_on_c, 3, 50, 0
5, 68096, Note_on_c, 3, 57, 53
5, 68454, Note_on_c, 3, 57, 0
5, 68608, Note_on_c, 3, 57, 0
5, 68608, Note_on_c, 3, 62, 0
5, 68608, Note_on_c, 3, 66, 0
5, 68608, Note_on_c, 3, 62, 50
5, 68608, Note_on_c, 3, 66, 50
5, 68608, Note_on_c, 3, 69, 50
5, 68608, Note_on_c, 3, 62, 50
5, 68966, Note_on_c, 3, 62, 0
5, 69120, Note_on_c, 3, 50, 47
5, 69478, Note_on_c, 3, 50, 0
5, 69632, Note_on_c, 3, 62, 0
5, 69632, Note_on_c, 3, 66, 0
5, 69632, Note_on_c, 3, 69, 0
5, 69632, Note_on_c, 3, 64, 46
5, 69632, Note_on_c, 3, 69, 46
5, 69632, Note_on_c, 3, 49, 46
5, 69990, Note_on_c, 3, 49, 0
5, 70144, Note_on_c, 3, 64, 0
5, 70144, Note_on_c, 3, 66, 44
5, 70144, Note_on_c, 3, 50, 44
5, 70502, Note_on_c, 3, 50, 0
5, 70656, Note_on_c, 3, 66, 0
5, 70656, Note_on_c, 3, 69, 0
5, 70656, Note_on_c, 3, 73, 43
5, 70656, Note_on_c, 3, 69, 43
5, 70656, Note_on_c, 3, 45, 43
5, 71014, Note_on_c, 3, 45, 0
5, 71168, Note_on_c, 3, 73, 0
5, 71168, Note_on_c, 3, 67, 41
5, 71168, Note_on_c, 3, 45, 41
5, 71526, Note_on_c, 3, 45, 0
5, 71680, Note_on_c, 3, 69, 0
5, 71680, Note_on_c, 3, 62, 47
5, 71680, Note_on_c, 3, 67, 0
5, 71680, Note_on_c, 3, 69, 47
5, 71680, Note_on_c, 3, 45, 47
5, 72038, Note_on_c, 3, 45, 0
5, 72192, Note_on_c, 3, 45, 47
5, 72550, Note_on_c, 3, 45, 0
5, 72704, Note_on_c, 3, 62, 0
5, 72704, Note_on_c, 3, 61, 47
5, 72704, Note_on_c, 3, 69, 0
5, 72704, Note_on_c, 3, 69, 47
5, 72704, Note_on_c, 3, 45, 47
5, 73062, Note_on_c, 3, 45, 0
5, 73216, Note_on_c, 3, 61, 0
5, 73216, Note_on_c, 3, 62, 47
5, 73216, Note_on_c, 3, 45, 47
5, 73574, Note_on_c, 3, 45, 0
5, 73728, Note_on_c, 3, 62, 0
5, 73728, Note_on_c, 3, 69, 0
5, 73728, Note_on_c, 3, 61, 48
5, 73728, Note_on_c, 3, 64, 48
5, 73728, Note_on_c, 3, 45, 48
5, 74086, Note_on_c, 3, 45, 0
5, 74240, Note_on_c, 3, 61, 0
5, 74240, Note_on_c, 3, 64, 0
5, 74240, Note_on_c, 3, 61, 54
5, 74240, Note_on_c, 3, 64, 54
5, 74240, Note_on_c, 3, 57, 54
5, 75162, Note_on_c, 3, 57, 0
5, 75264, Note_on_c, 3, 61, 0
5, 75264, Note_on_c, 3, 64, 0
5, 75264, Note_on_c, 3, 59, 50
5, 75264, Note_on_c, 3, 68, 50
5, 75264, Note_on_c, 3, 52, 50
5, 75622, Note_on_c, 3, 52, 0
5, 75776, Note_on_c, 3, 68, 0
5, 75776, Note_on_c, 3, 67, 46
5, 75776, Note_on_c, 3, 50, 46
5, 76032, Note_on_c, 3, 59, 0
5, 76032, Note_on_c, 3, 57, 47
5, 76032, Note_on_c, 3, 50, 0
5, 76032, Note_on_c, 3, 49, 47
5, 76288, Note_on_c, 3, 57, 0
5, 76288, Note_on_c, 3, 62, 48
5, 76288, Note_on_c, 3, 49, 0
5, 76288, Note_on_c, 3, 47, 48
5, 76544, Note_on_c, 3, 62, 0
5, 76544, Note_on_c, 3, 61, 49
5, 76544, Note_on_c, 3, 47, 0
5, 76544, Note_on_c, 3, 45, 49
5, 76800, Note_on_c, 3, 67, 0
5, 76800, Note_on_c, 3, 61, 0
5, 76800, Note_on_c, 3, 45, 0
5, 76800, Note_on_c, 3, 66, 50
5, 76800, Note_on_c, 3, 62, 50
5, 76800, Note_on_c, 3, 50, 50
5, 77158, Note_on_c, 3, 50, 0
5, 77312, Note_on_c, 3, 66, 0
5, 77312, Note_on_c, 3, 67, 51
5, 77312, Note_on_c, 3, 52, 51
5, 77670, Note_on_c, 3, 52, 0
5, 77824, Note_on_c, 3, 67, 0
5, 77824, Note_on_c, 3, 69, 49
5, 77824, Note_on_c, 3, 54, 49
5, 78182, Note_on_c, 3, 54, 0
5, 78336, Note_on_c, 3, 62, 0
5, 78336, Note_on_c, 3, 62, 47
5, 78336, Note_on_c, 3, 69, 0
5, 78336, Note_on_c, 3, 71, 47
5, 78336, Note_on_c, 3, 55, 47
5, 78694, Note_on_c, 3, 55, 0
5, 78848, Note_on_c, 3, 62, 0
5, 78848, Note_on_c, 3, 71, 0
5, 78848, Note_on_c, 3, 69, 45
5, 78848, Note_on_c, 3, 62, 45
5, 78848, Note_on_c, 3, 64, 45
5, 78848, Note_on_c, 3, 57, 45
5, 79206, Note_on_c, 3, 57, 0
5, 79360, Note_on_c, 3, 69, 0
5, 79360, Note_on_c, 3, 62, 0
5, 79360, Note_on_c, 3, 64, 0
5, 79360, Note_on_c, 3, 64, 43
5, 79360, Note_on_c, 3, 69, 43
5, 79360, Note_on_c, 3, 73, 43
5, 79360, Note_on_c, 3, 45, 43
5, 79718, Note_on_c, 3, 45, 0
5, 79872, Note_on_c, 3, 64, 0
5, 79872, Note_on_c, 3, 69, 0
5, 79872, Note_on_c, 3, 73, 0
5, 79872, Note_on_c, 3, 66, 41
5, 79872, Note_on_c, 3, 69, 41
5, 79872, Note_on_c, 3, 74, 41
5, 79872, Note_on_c, 3, 50, 41
5, 80230, Note_on_c, 3, 50, 0
5, 80384, Note_on_c, 3, 66, 0
5, 80384, Note_on_c, 3, 69, 0
5, 80384, Note_on_c, 3, 74, 0
5, 80384, Note_on_c, 3, 66, 47
5, 80384, Note_on_c, 3, 69, 47
5, 80384, Note_on_c, 3, 62, 47
5, 81306, Note_on_c, 3, 62, 0
5, 81408, Note_on_c, 3, 66, 0
5, 81408, Note_on_c, 3, 69, 0
5, 81408, Note_on_c, 3, 64, 54
5, 81408, Note_on_c, 3, 67, 54
5, 81408, Note_on_c, 3, 61, 54
5, 81920, Note_on_c, 3, 64, 0
5, 81920, Note_on_c, 3, 67, 0
5, 81920, Note_on_c, 3, 66, 57
5, 82091, Note_on_c, 3, 66, 0
5, 82091, Note_on_c, 3, 67, 57
5, 82261, Note_on_c, 3, 67, 0
5, 82261, Note_on_c, 3, 69, 55
5, 82330, Note_on_c, 3, 61, 0
5, 82432, Note_on_c, 3, 69, 0
5, 82432, Note_on_c, 3, 62, 53
5, 82432, Note_on_c, 3, 67, 53
5, 82432, Note_on_c, 3, 59, 53
5, 82790, Note_on_c, 3, 59, 0
5, 82944, Note_on_c, 3, 62, 0
5, 82944, Note_on_c, 3, 67, 0
5, 82944, Note_on_c, 3, 64, 46
5, 82944, Note_on_c, 3, 67, 46
5, 82944, Note_on_c, 3, 73, 46
5, 82944, Note_on_c, 3, 49, 46
5, 83302, Note_on_c, 3, 49, 0
5, 83456, Note_on_c, 3, 64, 0
5, 83456, Note_on_c, 3, 67, 0
5, 83456, Note_on_c, 3, 73, 0
5, 83456, Note_on_c, 3, 64, 49
5, 83456, Note_on_c, 3, 67, 49
5, 83456, Note_on_c, 3, 61, 49
5, 84378, Note_on_c, 3, 61, 0
5, 84480, Note_on_c, 3, 64, 0
5, 84480, Note_on_c, 3, 67, 0
5, 84480, Note_on_c, 3, 62, 54
5, 84480, Note_on_c, 3, 66, 54
5, 84480, Note_on_c, 3, 59, 54
5, 84992, Note_on_c, 3, 62, 0
5, 84992, Note_on_c, 3, 66, 0
5, 84992, Note_on_c, 3, 64, 57
5, 85163, Note_on_c, 3, 64, 0
5, 85163, Note_on_c, 3, 66, 55
5, 85333, Note_on_c, 3, 66, 0
5, 85333, Note_on_c, 3, 67, 54
5, 85402, Note_on_c, 3, 59, 0
5, 85504, Note_on_c, 3, 67, 0
5, 85504, Note_on_c, 3, 61, 52
5, 85504, Note_on_c, 3, 66, 52
5, 85504, Note_on_c, 3, 57, 52
5, 85862, Note_on_c, 3, 57, 0
5, 86016, Note_on_c, 3, 61, 0
5, 86016, Note_on_c, 3, 66, 0
5, 86016, Note_on_c, 3, 62, 50
5, 86016, Note_on_c, 3, 66, 50
5, 86016, Note_on_c, 3, 71, 50
5, 86016, Note_on_c, 3, 47, 50
5, 86374, Note_on_c, 3, 47, 0
5, 86528, Note_on_c, 3, 62, 0
5, 86528, Note_on_c, 3, 66, 0
5, 86528, Note_on_c, 3, 71, 0
5, 86528, Note_on_c, 3, 62, 54
5, 86528, Note_on_c, 3, 66, 54
5, 86528, Note_on_c, 3, 59, 54
5, 87450, Note_on_c, 3, 59, 0
5, 87552, Note_on_c, 3, 62, 0
5, 87552, Note_on_c, 3, 66, 0
5, 87552, Note_on_c, 3, 61, 62
5, 87552, Note_on_c, 3, 64, 62
5, 87552, Note_on_c, 3, 57, 62
5, 88064, Note_on_c, 3, 61, 0
5, 88064, Note_on_c, 3, 64, 0
5, 88064, Note_on_c, 3, 62, 67
5, 88235, Note_on_c, 3, 62, 0
5, 88235, Note_on_c, 3, 64, 68
5, 88405, Note_on_c, 3, 64, 0
5, 88405, Note_on_c, 3, 66, 69
5, 88474, Note_on_c, 3, 57, 0
5, 88576, Note_on_c, 3, 66, 0
5, 88576, Note_on_c, 3, 59, 71
5, 88576, Note_on_c, 3, 64, 71
5, 88576, Note_on_c, 3, 55, 71
5, 88934, Note_on_c, 3, 55, 0
5, 89088, Note_on_c, 3, 59, 0
5, 89088, Note_on_c, 3, 64, 0
5, 89088, Note_on_c, 3, 57, 75
5, 89088, Note_on_c, 3, 61, 75
5, 89088, Note_on_c, 3, 64, 75
5, 89088, Note_on_c, 3, 45, 75
5, 89446, Note_on_c, 3, 45, 0
5, 89600, Note_on_c, 3, 57, 0
5, 89600, Note_on_c, 3, 61, 0
5, 89600, Note_on_c, 3, 64, 0
5, 89600, Note_on_c, 3, 61, 65
5, 89600, Note_on_c, 3, 57, 65
5, 89856, Note_on_c, 3, 61, 0
5, 89856, Note_on_c, 3, 62, 61
5, 89856, Note_on_c, 3, 57, 0
5, 89856, Note_on_c, 3, 59, 61
5, 90112, Note_on_c, 3, 62, 0
5, 90112, Note_on_c, 3, 64, 57
5, 90112, Note_on_c, 3, 59, 0
5, 90112, Note_on_c, 3, 61, 57
5, 90470, Note_on_c, 3, 61, 0
5, 90624, Note_on_c, 3, 64, 0
5, 90624, Note_on_c, 3, 62, 59
5, 90624, Note_on_c, 3, 67, 59
5, 90624, Note_on_c, 3, 59, 59
5, 90982, Note_on_c, 3, 59, 0
5, 91136, Note_on_c, 3, 62, 0
5, 91136, Note_on_c, 3, 61, 64
5, 91136, Note_on_c, 3, 57, 64
5, 91494, Note_on_c, 3, 57, 0
5, 91648, Note_on_c, 3, 61, 0
5, 91648, Note_on_c, 3, 67, 0
5, 91648, Note_on_c, 3, 61, 69
5, 91648, Note_on_c, 3, 64, 69
5, 91648, Note_on_c, 3, 55, 69
5, 92006, Note_on_c, 3, 55, 0
5, 92160, Note_on_c, 3, 61, 0
5, 92160, Note_on_c, 3, 64, 0
5, 92160, Note_on_c, 3, 57, 74
5, 92160, Note_on_c, 3, 66, 74
5, 92160, Note_on_c, 3, 54, 74
5, 92518, Note_on_c, 3, 54, 0
5, 92672, Note_on_c, 3, 49, 68
5, 93030, Note_on_c, 3, 49, 0
5, 93184, Note_on_c, 3, 50, 68
5, 93542, Note_on_c, 3, 50, 0
5, 93696, Note_on_c, 3, 57, 0
5, 93696, Note_on_c, 3, 66, 0
5, 93696, Note_on_c, 3, 59, 63
5, 93696, Note_on_c, 3, 67, 63
5, 93696, Note_on_c, 3, 55, 63
5, 94054, Note_on_c, 3, 55, 0
5, 94208, Note_on_c, 3, 59, 0
5, 94208, Note_on_c, 3, 67, 0
5, 94208, Note_on_c, 3, 64, 58
5, 94208, Note_on_c, 3, 57, 58
5, 94566, Note_on_c, 3, 57, 0
5, 94720, Note_on_c, 3, 64, 0
5, 94720, Note_on_c, 3, 69, 55
5, 94720, Note_on_c, 3, 61, 55
5, 94720, Note_on_c, 3, 45, 55
5, 94976, Note_on_c, 3, 69, 0
5, 94976, Note_on_c, 3, 67, 53
5, 95078, Note_on_c, 3, 45, 0
5, 95232, Note_on_c, 3, 61, 0
5, 95232, Note_on_c, 3, 67, 0
5, 95232, Note_on_c, 3, 57, 55
5, 95232, Note_on_c, 3, 62, 55
5, 95232, Note_on_c, 3, 66, 55
5, 95232, Note_on_c, 3, 50, 55
5, 95590, Note_on_c, 3, 50, 0
5, 95744, Note_on_c, 3, 49, 51
5, 96102, Note_on_c, 3, 49, 0
5, 96256, Note_on_c, 3, 50, 45
5, 96614, Note_on_c, 3, 50, 0
5, 96768, Note_on_c, 3, 57, 0
5, 96768, Note_on_c, 3, 62, 0
5, 96768, Note_on_c, 3, 66, 0
5, 96768, Note_on_c, 3, 61, 39
5, 96768, Note_on_c, 3, 64, 39
5, 96768, Note_on_c, 3, 52, 39
5, 97126, Note_on_c, 3, 52, 0
5, 97280, Note_on_c, 3, 61, 0
5, 97280, Note_on_c, 3, 64, 0
5, 97280, Note_on_c, 3, 57, 33
5, 97280, Note_on_c, 3, 62, 33
5, 97280, Note_on_c, 3, 54, 33
5, 97638, Note_on_c, 3, 54, 0
5, 97792, Note_on_c, 3, 57, 0
5, 97792, Note_on_c, 3, 62, 0
5, 97792, Note_on_c, 3, 62, 32
5, 97792, Note_on_c, 3, 57, 32
5, 98048, Note_on_c, 3, 62, 0
5, 98048, Note_on_c, 3, 64, 33
5, 98150, Note_on_c, 3, 57, 0
5, 98304, Note_on_c, 3, 64, 0
5, 98304, Note_on_c, 3, 66, 35
5, 98304, Note_on_c, 3, 60, 35
5, 98304, Note_on_c, 3, 51, 35
5, 98560, Note_on_c, 3, 66, 0
5, 98560, Note_on_c, 3, 67, 36
5, 98662, Note_on_c, 3, 51, 0
5, 98816, Note_on_c, 3, 67, 0
5, 98816, Note_on_c, 3, 66, 38
5, 98816, Note_on_c, 3, 52, 38
5, 99072, Note_on_c, 3, 66, 0
5, 99072, Note_on_c, 3, 64, 39
5, 99174, Note_on_c, 3, 52, 0
5, 99328, Note_on_c, 3, 64, 0
5, 99328, Note_on_c, 3, 63, 40
5, 99328, Note_on_c, 3, 54, 40
5, 99686, Note_on_c, 3, 54, 0
5, 99840, Note_on_c, 3, 60, 0
5, 99840, Note_on_c, 3, 63, 0
5, 99840, Note_on_c, 3, 64, 43
5, 99840, Note_on_c, 3, 71, 43
5, 99840, Note_on_c, 3, 55, 43
5, 100198, Note_on_c, 3, 55, 0
5, 100352, Note_on_c, 3, 64, 0
5, 100352, Note_on_c, 3, 71, 0
5, 100352, Note_on_c, 3, 63, 46
5, 100352, Note_on_c, 3, 69, 46
5, 100352, Note_on_c, 3, 57, 46
5, 100710, Note_on_c, 3, 57, 0
5, 100864, Note_on_c, 3, 63, 0
5, 100864, Note_on_c, 3, 69, 0
5, 100864, Note_on_c, 3, 64, 49
5, 100864, Note_on_c, 3, 67, 49
5, 100864, Note_on_c, 3, 59, 49
5, 101222, Note_on_c, 3, 59, 0
5, 101376, Note_on_c, 3, 67, 0
5, 101376, Note_on_c, 3, 60, 51
5, 101734, Note_on_c, 3, 60, 0
5, 101888, Note_on_c, 3, 64, 0
5, 101888, Note_on_c, 3, 64, 49
5, 101888, Note_on_c, 3, 59, 49
5, 102144, Note_on_c, 3, 64, 0
5, 102144, Note_on_c, 3, 63, 48
5, 102144, Note_on_c, 3, 59, 0
5, 102144, Note_on_c, 3, 57, 48
5, 102400, Note_on_c, 3, 63, 0
5, 102400, Note_on_c, 3, 64, 46
5, 102400, Note_on_c, 3, 57, 0
5, 102400, Note_on_c, 3, 55, 46
5, 102758, Note_on_c, 3, 55, 0
5, 102912, Note_on_c, 3, 57, 42
5, 103270, Note_on_c, 3, 57, 0
5, 103424, Note_on_c, 3, 64, 0
5, 103424, Note_on_c, 3, 59, 39
5, 103424, Note_on_c, 3, 64, 39
5, 103424, Note_on_c, 3, 55, 39
5, 103782, Note_on_c, 3, 55, 0
5, 103936, Note_on_c, 3, 59, 0
5, 103936, Note_on_c, 3, 64, 0
5, 103936, Note_on_c, 3, 62, 37
5, 103936, Note_on_c, 3, 66, 37
5, 103936, Note_on_c, 3, 54, 37
5, 104294, Note_on_c, 3, 54, 0
5, 104448, Note_on_c, 3, 62, 0
5, 104448, Note_on_c, 3, 66, 0
5, 104448, Note_on_c, 3, 60, 39
5, 104448, Note_on_c, 3, 67, 39
5, 104448, Note_on_c, 3, 52, 39
5, 104806, Note_on_c, 3, 52, 0
5, 104960, Note_on_c, 3, 60, 0
5, 104960, Note_on_c, 3, 67, 0
5, 104960, Note_on_c, 3, 67, 41
5, 104960, Note_on_c, 3, 40, 41
5, 105216, Note_on_c, 3, 67, 0
5, 105216, Note_on_c, 3, 66, 42
5, 105318, Note_on_c, 3, 40, 0
5, 105472, Note_on_c, 3, 66, 0
5, 105472, Note_on_c, 3, 67, 43
5, 105472, Note_on_c, 3, 52, 43
5, 105830, Note_on_c, 3, 52, 0
5, 105984, Note_on_c, 3, 67, 0
5, 105984, Note_on_c, 3, 59, 46
5, 105984, Note_on_c, 3, 67, 46
5, 105984, Note_on_c, 3, 50, 46
5, 106342, Note_on_c, 3, 50, 0
5, 106496, Note_on_c, 3, 59, 0
5, 106496, Note_on_c, 3, 67, 0
5, 106496, Note_on_c, 3, 58, 48
5, 106496, Note_on_c, 3, 66, 48
5, 106496, Note_on_c, 3, 49, 48
5, 106854, Note_on_c, 3, 49, 0
5, 107008, Note_on_c, 3, 58, 0
5, 107008, Note_on_c, 3, 66, 0
5, 107008, Note_on_c, 3, 61, 50
5, 107008, Note_on_c, 3, 64, 50
5, 107008, Note_on_c, 3, 58, 50
5, 107366, Note_on_c, 3, 58, 0
5, 107520, Note_on_c, 3, 61, 0
5, 107520, Note_on_c, 3, 64, 0
5, 107520, Note_on_c, 3, 62, 52
5, 107520, Note_on_c, 3, 59, 52
5, 107878, Note_on_c, 3, 59, 0
5, 108032, Note_on_c, 3, 62, 0
5, 108032, Note_on_c, 3, 62, 54
5, 108032, Note_on_c, 3, 71, 54
5, 108032, Note_on_c, 3, 55, 54
5, 108390, Note_on_c, 3, 55, 0
5, 108544, Note_on_c, 3, 62, 0
5, 108544, Note_on_c, 3, 71, 0
5, 108544, Note_on_c, 3, 66, 56
5, 108544, Note_on_c, 3, 74, 56
5, 108544, Note_on_c, 3, 54, 56
5, 108902, Note_on_c, 3, 54, 0
5, 109056, Note_on_c, 3, 74, 0
5, 109056, Note_on_c, 3, 73, 53
5, 109056, Note_on_c, 3, 49, 53
5, 109414, Note_on_c, 3, 49, 0
5, 109568, Note_on_c, 3, 66, 0
5, 109568, Note_on_c, 3, 64, 49
5, 109568, Note_on_c, 3, 46, 49
5, 109926, Note_on_c, 3, 46, 0
5, 110080, Note_on_c, 3, 64, 0
5, 110080, Note_on_c, 3, 73, 0
5, 110080, Note_on_c, 3, 66, 45
5, 110080, Note_on_c, 3, 42, 45
5, 110336, Note_on_c, 3, 66, 0
5, 110336, Note_on_c, 3, 64, 43
5, 110438, Note_on_c, 3, 42, 0
5, 110592, Note_on_c, 3, 64, 0
5, 110592, Note_on_c, 3, 59, 41
5, 110592, Note_on_c, 3, 62, 41
5, 110592, Note_on_c, 3, 47, 41
5, 110950, Note_on_c, 3, 47, 0
5, 111104, Note_on_c, 3, 47, 41
5, 111462, Note_on_c, 3, 47, 0
5, 111616, Note_on_c, 3, 59, 0
5, 111616, Note_on_c, 3, 62, 0
5, 111616, Note_on_c, 3, 47, 41
5, 111974, Note_on_c, 3, 47, 0
5, 112128, Note_on_c, 3, 47, 40
5, 112486, Note_on_c, 3, 47, 0
5, 112640, Note_on_c, 3, 47, 40
5, 112998, Note_on_c, 3, 47, 0
5, 113152, Note_on_c, 3, 47, 42
5, 113510, Note_on_c, 3, 47, 0
5, 113664, Note_on_c, 3, 58, 44
5, 113664, Note_on_c, 3, 61, 44
5, 113664, Note_on_c, 3, 66, 44
5, 113664, Note_on_c, 3, 46, 44
5, 114022, Note_on_c, 3, 46, 0
5, 114176, Note_on_c, 3, 46, 47
5, 114534, Note_on_c, 3, 46, 0
5, 114688, Note_on_c, 3, 58, 0
5, 114688, Note_on_c, 3, 61, 0
5, 114688, Note_on_c, 3, 66, 0
5, 114688, Note_on_c, 3, 46, 49
5, 115046, Note_on_c, 3, 46, 0
5, 115200, Note_on_c, 3, 46, 51
5, 115558, Note_on_c, 3, 46, 0
5, 115712, Note_on_c, 3, 46, 55
5, 116070, Note_on_c, 3, 46, 0
5, 116224, Note_on_c, 3, 46, 53
5, 116582, Note_on_c, 3, 46, 0
5, 116736, Note_on_c, 3, 57, 50
5, 116736, Note_on_c, 3, 60, 50
5, 116736, Note_on_c, 3, 63, 50
5, 116736, Note_on_c, 3, 66, 50
5, 116736, Note_on_c, 3, 45, 50
5, 117094, Note_on_c, 3, 45, 0
5, 117248, Note_on_c, 3, 42, 47
5, 117606, Note_on_c, 3, 42, 0
5, 117760, Note_on_c, 3, 57, 0
5, 117760, Note_on_c, 3, 60, 0
5, 117760, Note_on_c, 3, 63, 0
5, 117760, Note_on_c, 3, 66, 0
5, 117760, Note_on_c, 3, 39, 45
5, 118118, Note_on_c, 3, 39, 0
5, 118272, Note_on_c, 3, 39, 44
5, 118630, Note_on_c, 3, 39, 0
5, 118784, Note_on_c, 3, 39, 50
5, 119142, Note_on_c, 3, 39, 0
5, 119296, Note_on_c, 3, 39, 52
5, 119654, Note_on_c, 3, 39, 0
5, 119808, Note_on_c, 3, 59, 54
5, 119808, Note_on_c, 3, 64, 54
5, 119808, Note_on_c, 3, 67, 54
5, 119808, Note_on_c, 3, 40, 54
5, 120166, Note_on_c, 3, 40, 0
5, 120320, Note_on_c, 3, 59, 0
5, 120320, Note_on_c, 3, 64, 0
5, 120320, Note_on_c, 3, 67, 0
5, 120320, Note_on_c, 3, 59, 54
5, 120320, Note_on_c, 3, 63, 54
5, 120320, Note_on_c, 3, 66, 54
5, 120320, Note_on_c, 3, 47, 54
5, 120678, Note_on_c, 3, 47, 0
5, 120832, Note_on_c, 3, 59, 0
5, 120832, Note_on_c, 3, 63, 0
5, 120832, Note_on_c, 3, 66, 0
5, 120832, Note_on_c, 3, 59, 57
5, 120832, Note_on_c, 3, 64, 57
5, 120832, Note_on_c, 3, 67, 57
5, 120832, Note_on_c, 3, 52, 57
5, 121190, Note_on_c, 3, 52, 0
5, 121344, Note_on_c, 3, 50, 59
5, 121702, Note_on_c, 3, 50, 0
5, 121856, Note_on_c, 3, 59, 0
5, 121856, Note_on_c, 3, 64, 0
5, 121856, Note_on_c, 3, 67, 0
5, 121856, Note_on_c, 3, 64, 61
5, 121856, Note_on_c, 3, 69, 61
5, 121856, Note_on_c, 3, 49, 61
5, 122214, Note_on_c, 3, 49, 0
5, 122368, Note_on_c, 3, 64, 0
5, 122368, Note_on_c, 3, 69, 0
5, 122368, Note_on_c, 3, 62, 63
5, 122368, Note_on_c, 3, 67, 63
5, 122368, Note_on_c, 3, 47, 63
5, 122726, Note_on_c, 3, 47, 0
5, 122880, Note_on_c, 3, 62, 0
5, 122880, Note_on_c, 3, 67, 0
5, 122880, Note_on_c, 3, 61, 65
5, 122880, Note_on_c, 3, 64, 65
5, 122880, Note_on_c, 3, 66, 65
5, 122880, Note_on_c, 3, 46, 65
5, 123238, Note_on_c, 3, 46, 0
5, 123392, Note_on_c, 3, 61, 0
5, 123392, Note_on_c, 3, 64, 0
5, 123392, Note_on_c, 3, 66, 0
5, 123392, Note_on_c, 3, 62, 66
5, 123392, Note_on_c, 3, 71, 66
5, 123392, Note_on_c, 3, 47, 66
5, 123648, Note_on_c, 3, 62, 0
5, 123648, Note_on_c, 3, 64, 66
5, 123648, Note_on_c, 3, 47, 0
5, 123648, Note_on_c, 3, 49, 66
5, 123904, Note_on_c, 3, 71, 0
5, 123904, Note_on_c, 3, 64, 0
5, 123904, Note_on_c, 3, 66, 65
5, 123904, Note_on_c, 3, 49, 0
5, 123904, Note_on_c, 3, 50, 65
5, 124262, Note_on_c, 3, 50, 0
5, 124416, Note_on_c, 3, 66, 0
5, 124416, Note_on_c, 3, 62, 65
5, 124416, Note_on_c, 3, 71, 65
5, 124416, Note_on_c, 3, 55, 65
5, 124774, Note_on_c, 3, 55, 0
5, 124928, Note_on_c, 3, 62, 0
5, 124928, Note_on_c, 3, 71, 0
5, 124928, Note_on_c, 3, 66, 64
5, 124928, Note_on_c, 3, 71, 64
5, 124928, Note_on_c, 3, 52, 64
5, 125184, Note_on_c, 3, 66, 0
5, 125184, Note_on_c, 3, 71, 0
5, 125184, Note_on_c, 3, 64, 64
5, 125184, Note_on_c, 3, 67, 64
5, 125286, Note_on_c, 3, 52, 0
5, 125440, Note_on_c, 3, 64, 0
5, 125440, Note_on_c, 3, 67, 0
5, 125440, Note_on_c, 3, 62, 63
5, 125440, Note_on_c, 3, 66, 63
5, 125440, Note_on_c, 3, 54, 63
5, 125696, Note_on_c, 3, 62, 0
5, 125696, Note_on_c, 3, 66, 0
5, 125696, Note_on_c, 3, 61, 63
5, 125696, Note_on_c, 3, 64, 63
5, 125798, Note_on_c, 3, 54, 0
5, 125952, Note_on_c, 3, 61, 0
5, 125952, Note_on_c, 3, 64, 0
5, 125952, Note_on_c, 3, 59, 63
5, 125952, Note_on_c, 3, 62, 63
5, 125952, Note_on_c, 3, 66, 63
5, 125952, Note_on_c, 3, 47, 63
5, 126310, Note_on_c, 3, 47, 0
5, 126464, Note_on_c, 3, 59, 0
5, 126464, Note_on_c, 3, 62, 0
5, 126464, Note_on_c, 3, 66, 0
5, 126464, Note_on_c, 3, 61, 59
5, 126464, Note_on_c, 3, 66, 59
5, 126464, Note_on_c, 3, 70, 59
5, 126464, Note_on_c, 3, 54, 59
5, 126822, Note_on_c, 3, 54, 0
5, 126976, Note_on_c, 3, 61, 0
5, 126976, Note_on_c, 3, 66, 0
5, 126976, Note_on_c, 3, 70, 0
5, 126976, Note_on_c, 3, 62, 55
5, 126976, Note_on_c, 3, 66, 55
5, 126976, Note_on_c, 3, 71, 55
5, 126976, Note_on_c, 3, 59, 55
5, 127334, Note_on_c, 3, 59, 0
5, 127488, Note_on_c, 3, 47, 51
5, 127846, Note_on_c, 3, 47, 0
5, 128000, Note_on_c, 3, 62, 0
5, 128000, Note_on_c, 3, 66, 0
5, 128000, Note_on_c, 3, 71, 0
5, 128000, Note_on_c, 3, 66, 50
5, 128000, Note_on_c, 3, 73, 50
5, 128000, Note_on_c, 3, 76, 50
5, 128000, Note_on_c, 3, 46, 50
5, 128358, Note_on_c, 3, 46, 0
5, 128512, Note_on_c, 3, 66, 0
5, 128512, Note_on_c, 3, 73, 0
5, 128512, Note_on_c, 3, 76, 0
5, 128512, Note_on_c, 3, 66, 49
5, 128512, Note_on_c, 3, 71, 49
5, 128512, Note_on_c, 3, 74, 49
5, 128512, Note_on_c, 3, 47, 49
5, 128870, Note_on_c, 3, 47, 0
5, 129024, Note_on_c, 3, 66, 0
5, 129024, Note_on_c, 3, 71, 0
5, 129024, Note_on_c, 3, 74, 0
5, 129024, Note_on_c, 3, 66, 47
5, 129024, Note_on_c, 3, 58, 47
5, 129024, Note_on_c, 3, 42, 47
5, 129382, Note_on_c, 3, 42, 0
5, 129536, Note_on_c, 3, 58, 0
5, 129536, Note_on_c, 3, 64, 46
5, 129536, Note_on_c, 3, 42, 46
5, 129894, Note_on_c, 3, 42, 0
5, 130048, Note_on_c, 3, 66, 0
5, 130048, Note_on_c, 3, 64, 0
5, 130048, Note_on_c, 3, 62, 44
5, 130048, Note_on_c, 3, 66, 44
5, 130048, Note_on_c, 3, 71, 44
5, 130048, Note_on_c, 3, 42, 44
5, 130406, Note_on_c, 3, 42, 0
5, 130560, Note_on_c, 3, 42, 46
5, 130918, Note_on_c, 3, 42, 0
5, 131072, Note_on_c, 3, 62, 0
5, 131072, Note_on_c, 3, 66, 0
5, 131072, Note_on_c, 3, 71, 0
5, 131072, Note_on_c, 3, 61, 50
5, 131072, Note_on_c, 3, 66, 50
5, 131072, Note_on_c, 3, 70, 50
5, 131072, Note_on_c, 3, 42, 50
5, 131430, Note_on_c, 3, 42, 0
5, 131584, Note_on_c, 3, 61, 0
5, 131584, Note_on_c, 3, 66, 0
5, 131584, Note_on_c, 3, 70, 0
5, 131584, Note_on_c, 3, 62, 54
5, 131584, Note_on_c, 3, 66, 54
5, 131584, Note_on_c, 3, 71, 54
5, 131584, Note_on_c, 3, 42, 54
5, 131942, Note_on_c, 3, 42, 0
5, 132096, Note_on_c, 3, 62, 0
5, 132096, Note_on_c, 3, 66, 0
5, 132096, Note_on_c, 3, 71, 0
5, 132096, Note_on_c, 3, 58, 55
5, 132096, Note_on_c, 3, 61, 55
5, 132096, Note_on_c, 3, 66, 55
5, 132096, Note_on_c, 3, 42, 55
5, 133018, Note_on_c, 3, 42, 0
5, 133120, Note_on_c, 3, 58, 0
5, 133120, Note_on_c, 3, 61, 0
5, 133120, Note_on_c, 3, 66, 0
5, 133120, Note_on_c, 3, 58, 61
5, 133120, Note_on_c, 3, 66, 61
5, 133291, Note_on_c, 3, 58, 0
5, 133291, Note_on_c, 3, 59, 62
5, 133461, Note_on_c, 3, 59, 0
5, 133461, Note_on_c, 3, 61, 63
5, 133632, Note_on_c, 3, 61, 0
5, 133632, Note_on_c, 3, 61, 64
5, 133632, Note_on_c, 3, 58, 64
5, 133888, Note_on_c, 3, 61, 0
5, 133888, Note_on_c, 3, 62, 65
5, 133888, Note_on_c, 3, 58, 0
5, 133888, Note_on_c, 3, 59, 65
5, 134144, Note_on_c, 3, 66, 0
5, 134144, Note_on_c, 3, 62, 0
5, 134144, Note_on_c, 3, 64, 67
5, 134144, Note_on_c, 3, 67, 67
5, 134144, Note_on_c, 3, 59, 0
5, 134144, Note_on_c, 3, 61, 67
5, 134502, Note_on_c, 3, 61, 0
5, 134656, Note_on_c, 3, 64, 0
5, 134656, Note_on_c, 3, 67, 0
5, 134656, Note_on_c, 3, 61, 61
5, 134656, Note_on_c, 3, 66, 61
5, 134656, Note_on_c, 3, 70, 61
5, 134656, Note_on_c, 3, 52, 61
5, 135014, Note_on_c, 3, 52, 0
5, 135168, Note_on_c, 3, 61, 0
5, 135168, Note_on_c, 3, 66, 0
5, 135168, Note_on_c, 3, 70, 0
5, 135168, Note_on_c, 3, 62, 58
5, 135168, Note_on_c, 3, 66, 58
5, 135168, Note_on_c, 3, 71, 58
5, 135168, Note_on_c, 3, 50, 58
5, 135526, Note_on_c, 3, 50, 0
5, 135680, Note_on_c, 3, 62, 0
5, 135680, Note_on_c, 3, 66, 0
5, 135680, Note_on_c, 3, 71, 0
5, 135680, Note_on_c, 3, 64, 64
5, 135680, Note_on_c, 3, 70, 64
5, 135680, Note_on_c, 3, 49, 64
5, 136038, Note_on_c, 3, 49, 0
5, 136192, Note_on_c, 3, 64, 0
5, 136192, Note_on_c, 3, 70, 0
5, 136192, Note_on_c, 3, 66, 70
5, 136192, Note_on_c, 3, 71, 70
5, 136192, Note_on_c, 3, 50, 70
5, 136550, Note_on_c, 3, 50, 0
5, 136704, Note_on_c, 3, 66, 0
5, 136704, Note_on_c, 3, 71, 0
5, 136704, Note_on_c, 3, 67, 76
5, 136704, Note_on_c, 3, 73, 76
5, 136704, Note_on_c, 3, 52, 76
5, 137062, Note_on_c, 3, 52, 0
5, 137216, Note_on_c, 3, 67, 0
5, 137216, Note_on_c, 3, 73, 0
5, 137216, Note_on_c, 3, 62, 73
5, 137216, Note_on_c, 3, 66, 73
5, 137216, Note_on_c, 3, 54, 73
5, 137574, Note_on_c, 3, 54, 0
5, 137728, Note_on_c, 3, 62, 0
5, 137728, Note_on_c, 3, 66, 0
5, 137728, Note_on_c, 3, 61, 64
5, 137728, Note_on_c, 3, 64, 64
5, 137728, Note_on_c, 3, 70, 64
5, 137728, Note_on_c, 3, 42, 64
5, 138086, Note_on_c, 3, 42, 0
5, 138240, Note_on_c, 3, 61, 0
5, 138240, Note_on_c, 3, 64, 0
5, 138240, Note_on_c, 3, 70, 0
5, 138240, Note_on_c, 3, 62, 56
5, 138240, Note_on_c, 3, 65, 56
5, 138240, Note_on_c, 3, 71, 56
5, 138240, Note_on_c, 3, 44, 56
5, 138598, Note_on_c, 3, 44, 0
5, 138752, Note_on_c, 3, 44, 55
5, 139110, Note_on_c, 3, 44, 0
5, 139264, Note_on_c, 3, 62, 0
5, 139264, Note_on_c, 3, 65, 0
5, 139264, Note_on_c, 3, 71, 0
5, 139264, Note_on_c, 3, 68, 54
5, 139264, Note_on_c, 3, 71, 54
5, 139264, Note_on_c, 3, 77, 54
5, 139264, Note_on_c, 3, 49, 54
5, 139622, Note_on_c, 3, 49, 0
5, 139776, Note_on_c, 3, 49, 53
5, 140134, Note_on_c, 3, 49, 0
5, 140288, Note_on_c, 3, 37, 51
5, 140646, Note_on_c, 3, 37, 0
5, 140800, Note_on_c, 3, 37, 50
5, 141158, Note_on_c, 3, 37, 0
5, 141312, Note_on_c, 3, 68, 0
5, 141312, Note_on_c, 3, 71, 0
5, 141312, Note_on_c, 3, 77, 0
5, 141312, Note_on_c, 3, 70, 49
5, 141312, Note_on_c, 3, 73, 49
5, 141312, Note_on_c, 3, 78, 49
5, 141312, Note_on_c, 3, 42, 49
5, 141670, Note_on_c, 3, 42, 0
5, 141824, Note_on_c, 3, 70, 0
5, 141824, Note_on_c, 3, 73, 0
5, 141824, Note_on_c, 3, 78, 0
5, 141824, Note_on_c, 3, 66, 47
5, 141824, Note_on_c, 3, 70, 47
5, 141824, Note_on_c, 3, 54, 47
5, 142336, Note_on_c, 3, 66, 0
5, 142336, Note_on_c, 3, 70, 0
5, 142336, Note_on_c, 3, 71, 43
5, 142746, Note_on_c, 3, 54, 0
5, 142848, Note_on_c, 3, 71, 0
5, 142848, Note_on_c, 3, 67, 40
5, 142848, Note_on_c, 3, 73, 40
5, 142848, Note_on_c, 3, 52, 40
5, 143206, Note_on_c, 3, 52, 0
5, 143360, Note_on_c, 3, 67, 0
5, 143360, Note_on_c, 3, 73, 0
5, 143360, Note_on_c, 3, 66, 42
5, 143360, Note_on_c, 3, 74, 42
5, 143360, Note_on_c, 3, 50, 42
5, 143718, Note_on_c, 3, 50, 0
5, 143872, Note_on_c, 3, 66, 0
5, 143872, Note_on_c, 3, 74, 0
5, 143872, Note_on_c, 3, 64, 42
5, 143872, Note_on_c, 3, 66, 42
5, 143872, Note_on_c, 3, 46, 42
5, 144230, Note_on_c, 3, 46, 0
5, 144384, Note_on_c, 3, 64, 0
5, 144384, Note_on_c, 3, 62, 41
5, 144384, Note_on_c, 3, 47, 41
5, 144742, Note_on_c, 3, 47, 0
5, 144896, Note_on_c, 3, 62, 0
5, 144896, Note_on_c, 3, 66, 0
5, 144896, Note_on_c, 3, 66, 40
5, 144896, Note_on_c, 3, 71, 40
5, 144896, Note_on_c, 3, 50, 40
5, 145254, Note_on_c, 3, 50, 0
5, 145408, Note_on_c, 3, 66, 0
5, 145408, Note_on_c, 3, 64, 39
5, 145408, Note_on_c, 3, 55, 39
5, 145766, Note_on_c, 3, 55, 0
5, 145920, Note_on_c, 3, 64, 0
5, 145920, Note_on_c, 3, 71, 0
5, 145920, Note_on_c, 3, 67, 38
5, 145920, Note_on_c, 3, 73, 38
5, 145920, Note_on_c, 3, 52, 38
5, 146278, Note_on_c, 3, 52, 0
5, 146432, Note_on_c, 3, 67, 0
5, 146432, Note_on_c, 3, 73, 0
5, 146432, Note_on_c, 3, 66, 37
5, 146432, Note_on_c, 3, 71, 37
5, 146432, Note_on_c, 3, 74, 37
5, 146432, Note_on_c, 3, 54, 37
5, 146790, Note_on_c, 3, 54, 0
5, 146944, Note_on_c, 3, 66, 0
5, 146944, Note_on_c, 3, 71, 0
5, 146944, Note_on_c, 3, 74, 0
5, 146944, Note_on_c, 3, 64, 36
5, 146944, Note_on_c, 3, 70, 36
5, 146944, Note_on_c, 3, 73, 36
5, 146944, Note_on_c, 3, 42, 36
5, 147302, Note_on_c, 3, 42, 0
5, 147456, Note_on_c, 3, 64, 0
5, 147456, Note_on_c, 3, 70, 0
5, 147456, Note_on_c, 3, 73, 0
5, 147456, Note_on_c, 3, 62, 36
5, 147456, Note_on_c, 3, 66, 36
5, 147456, Note_on_c, 3, 71, 36
5, 147968, Note_on_c, 3, 47, 40
5, 148326, Note_on_c, 3, 47, 0
5, 148480, Note_on_c, 3, 62, 0
5, 148480, Note_on_c, 3, 66, 0
5, 148480, Note_on_c, 3, 71, 0
5, 148480, Note_on_c, 3, 50, 42
5, 148838, Note_on_c, 3, 50, 0
5, 148992, Note_on_c, 3, 54, 44
5, 149350, Note_on_c, 3, 54, 0
5, 149504, Note_on_c, 3, 62, 46
5, 149504, Note_on_c, 3, 71, 46
5, 149504, Note_on_c, 3, 59, 46
5, 150016, Note_on_c, 3, 62, 0
5, 150016, Note_on_c, 3, 71, 0
5, 150016, Note_on_c, 3, 66, 49
5, 150528, Note_on_c, 3, 66, 0
5, 150528, Note_on_c, 3, 64, 51
5, 150528, Note_on_c, 3, 67, 51
5, 150886, Note_on_c, 3, 59, 0
5, 151040, Note_on_c, 3, 64, 0
5, 151040, Note_on_c, 3, 67, 0
5, 151040, Note_on_c, 3, 61, 53
5, 151040, Note_on_c, 3, 66, 53
5, 151040, Note_on_c, 3, 58, 53
5, 151296, Note_on_c, 3, 61, 0
5, 151296, Note_on_c, 3, 66, 0
5, 151296, Note_on_c, 3, 59, 54
5, 151296, Note_on_c, 3, 58, 0
5, 151296, Note_on_c, 3, 56, 54
5, 151552, Note_on_c, 3, 59, 0
5, 151552, Note_on_c, 3, 61, 55
5, 151552, Note_on_c, 3, 66, 55
5, 151552, Note_on_c, 3, 56, 0
5, 151552, Note_on_c, 3, 58, 55
5, 152474, Note_on_c, 3, 58, 0
5, 152576, Note_on_c, 3, 61, 0
5, 152576, Note_on_c, 3, 66, 0
5, 152576, Note_on_c, 3, 64, 47
5, 152576, Note_on_c, 3, 67, 47
5, 153088, Note_on_c, 3, 64, 0
5, 153088, Note_on_c, 3, 67, 0
5, 153088, Note_on_c, 3, 58, 43
5, 153088, Note_on_c, 3, 66, 43
5, 153088, Note_on_c, 3, 54, 43
5, 153446, Note_on_c, 3, 54, 0
5, 153600, Note_on_c, 3, 58, 0
5, 153600, Note_on_c, 3, 66, 0
5, 153600, Note_on_c, 3, 54, 40
5, 153600, Note_on_c, 3, 62, 40
5, 153600, Note_on_c, 3, 47, 40
5, 153958, Note_on_c, 3, 47, 0
5, 154112, Note_on_c, 3, 54, 0
5, 154112, Note_on_c, 3, 62, 0
5, 154112, Note_on_c, 3, 62, 45
5, 154112, Note_on_c, 3, 66, 45
5, 154112, Note_on_c, 3, 59, 45
5, 155034, Note_on_c, 3, 59, 0
5, 155136, Note_on_c, 3, 62, 0
5, 155136, Note_on_c, 3, 66, 0
5, 155136, Note_on_c, 3, 61, 53
5, 155136, Note_on_c, 3, 57, 53
5, 155648, Note_on_c, 3, 61, 0
5, 155648, Note_on_c, 3, 62, 56
5, 155819, Note_on_c, 3, 62, 0
5, 155819, Note_on_c, 3, 64, 54
5, 155989, Note_on_c, 3, 64, 0
5, 155989, Note_on_c, 3, 66, 53
5, 156058, Note_on_c, 3, 57, 0
5, 156160, Note_on_c, 3, 66, 0
5, 156160, Note_on_c, 3, 59, 51
5, 156160, Note_on_c, 3, 67, 51
5, 156160, Note_on_c, 3, 55, 51
5, 156518, Note_on_c, 3, 55, 0
5, 156672, Note_on_c, 3, 59, 0
5, 156672, Note_on_c, 3, 67, 0
5, 156672, Note_on_c, 3, 52, 47
5, 156672, Note_on_c, 3, 61, 47
5, 156672, Note_on_c, 3, 45, 47
5, 157030, Note_on_c, 3, 45, 0
5, 157184, Note_on_c, 3, 52, 0
5, 157184, Note_on_c, 3, 61, 0
5, 157184, Note_on_c, 3, 61, 50
5, 157184, Note_on_c, 3, 64, 50
5, 157184, Note_on_c, 3, 57, 50
5, 158106, Note_on_c, 3, 57, 0
5, 158208, Note_on_c, 3, 61, 0
5, 158208, Note_on_c, 3, 64, 0
5, 158208, Note_on_c, 3, 59, 58
5, 158208, Note_on_c, 3, 55, 58
5, 158720, Note_on_c, 3, 59, 0
5, 158720, Note_on_c, 3, 61, 60
5, 158891, Note_on_c, 3, 61, 0
5, 158891, Note_on_c, 3, 62, 59
5, 159061, Note_on_c, 3, 62, 0
5, 159061, Note_on_c, 3, 64, 57
5, 159130, Note_on_c, 3, 55, 0
5, 159232, Note_on_c, 3, 64, 0
5, 159232, Note_on_c, 3, 57, 55
5, 159232, Note_on_c, 3, 66, 55
5, 159232, Note_on_c, 3, 54, 55
5, 159590, Note_on_c, 3, 54, 0
5, 159744, Note_on_c, 3, 57, 0
5, 159744, Note_on_c, 3, 66, 0
5, 159744, Note_on_c, 3, 50, 47
5, 159744, Note_on_c, 3, 59, 47
5, 159744, Note_on_c, 3, 43, 47
5, 160102, Note_on_c, 3, 43, 0
5, 160256, Note_on_c, 3, 50, 0
5, 160256, Note_on_c, 3, 59, 0
5, 160256, Note_on_c, 3, 59, 50
5, 160256, Note_on_c, 3, 62, 50
5, 160256, Note_on_c, 3, 55, 50
5, 161178, Note_on_c, 3, 55, 0
5, 161280, Note_on_c, 3, 59, 0
5, 161280, Note_on_c, 3, 62, 0
5, 161280, Note_on_c, 3, 57, 56
5, 161280, Note_on_c, 3, 54, 56
5, 161792, Note_on_c, 3, 57, 0
5, 161792, Note_on_c, 3, 59, 59
5, 161963, Note_on_c, 3, 59, 0
5, 161963, Note_on_c, 3, 61, 60
5, 162133, Note_on_c, 3, 61, 0
5, 162133, Note_on_c, 3, 62, 61
5, 162202, Note_on_c, 3, 54, 0
5, 162304, Note_on_c, 3, 62, 0
5, 162304, Note_on_c, 3, 55, 62
5, 162304, Note_on_c, 3, 64, 62
5, 162304, Note_on_c, 3, 52, 62
5, 162662, Note_on_c, 3, 52, 0
5, 162816, Note_on_c, 3, 55, 0
5, 162816, Note_on_c, 3, 64, 0
5, 162816, Note_on_c, 3, 59, 65
5, 162816, Note_on_c, 3, 66, 65
5, 162816, Note_on_c, 3, 51, 65
5, 163174, Note_on_c, 3, 51, 0
5, 163840, Note_on_c, 3, 59, 0
5, 163840, Note_on_c, 3, 66, 0
5, 165376, Note_on_c, 3, 66, 67
5, 165376, Note_on_c, 3, 75, 67
5, 165376, Note_on_c, 3, 47, 67
5, 165734, Note_on_c, 3, 47, 0
5, 165888, Note_on_c, 3, 66, 0
5, 165888, Note_on_c, 3, 75, 0
5, 165888, Note_on_c, 3, 67, 52
5, 165888, Note_on_c, 3, 76, 52
5, 165888, Note_on_c, 3, 52, 52
5, 166246, Note_on_c, 3, 52, 0
5, 166400, Note_on_c, 3, 67, 0
5, 166400, Note_on_c, 3, 76, 0
5, 166400, Note_on_c, 3, 64, 57
5, 166400, Note_on_c, 3, 73, 57
5, 166400, Note_on_c, 3, 55, 57
5, 166656, Note_on_c, 3, 64, 0
5, 166656, Note_on_c, 3, 73, 0
5, 166656, Note_on_c, 3, 62, 60
5, 166656, Note_on_c, 3, 71, 60
5, 166656, Note_on_c, 3, 55, 0
5, 166656, Note_on_c, 3, 54, 60
5, 166912, Note_on_c, 3, 62, 0
5, 166912, Note_on_c, 3, 71, 0
5, 166912, Note_on_c, 3, 61, 62
5, 166912, Note_on_c, 3, 70, 62
5, 166912, Note_on_c, 3, 54, 0
5, 166912, Note_on_c, 3, 52, 62
5, 167270, Note_on_c, 3, 52, 0
5, 167424, Note_on_c, 3, 61, 0
5, 167424, Note_on_c, 3, 70, 0
5, 167424, Note_on_c, 3, 66, 68
5, 167424, Note_on_c, 3, 71, 68
5, 167424, Note_on_c, 3, 50, 68
5, 167782, Note_on_c, 3, 50, 0
5, 167936, Note_on_c, 3, 66, 0
5, 167936, Note_on_c, 3, 64, 73
5, 167936, Note_on_c, 3, 49, 73
5, 168192, Note_on_c, 3, 64, 0
5, 168192, Note_on_c, 3, 71, 0
5, 168192, Note_on_c, 3, 70, 76
5, 168294, Note_on_c, 3, 49, 0
5, 168448, Note_on_c, 3, 70, 0
5, 168448, Note_on_c, 3, 67, 78
5, 168448, Note_on_c, 3, 71, 78
5, 168448, Note_on_c, 3, 47, 78
5, 168704, Note_on_c, 3, 67, 0
5, 168704, Note_on_c, 3, 64, 70
5, 168806, Note_on_c, 3, 47, 0
5, 168960, Note_on_c, 3, 64, 0
5, 168960, Note_on_c, 3, 71, 0
5, 168960, Note_on_c, 3, 61, 63
5, 168960, Note_on_c, 3, 66, 63
5, 168960, Note_on_c, 3, 46, 63
5, 169318, Note_on_c, 3, 46, 0
5, 169472, Note_on_c, 3, 54, 53
5, 169728, Note_on_c, 3, 54, 0
5, 169728, Note_on_c, 3, 55, 56
5, 169984, Note_on_c, 3, 61, 0
5, 169984, Note_on_c, 3, 66, 0
5, 169984, Note_on_c, 3, 66, 59
5, 169984, Note_on_c, 3, 73, 59
5, 169984, Note_on_c, 3, 55, 0
5, 169984, Note_on_c, 3, 54, 59
5, 170342, Note_on_c, 3, 54, 0
5, 170496, Note_on_c, 3, 66, 0
5, 170496, Note_on_c, 3, 73, 0
5, 170496, Note_on_c, 3, 66, 65
5, 170496, Note_on_c, 3, 70, 65
5, 170496, Note_on_c, 3, 52, 65
5, 170854, Note_on_c, 3, 52, 0
5, 171008, Note_on_c, 3, 66, 0
5, 171008, Note_on_c, 3, 70, 0
5, 171008, Note_on_c, 3, 66, 71
5, 171008, Note_on_c, 3, 71, 71
5, 171008, Note_on_c, 3, 50, 71
5, 171366, Note_on_c, 3, 50, 0
5, 171520, Note_on_c, 3, 66, 0
5, 171520, Note_on_c, 3, 71, 0
5, 171520, Note_on_c, 3, 64, 77
5, 171520, Note_on_c, 3, 70, 77
5, 171520, Note_on_c, 3, 49, 77
5, 171878, Note_on_c, 3, 49, 0
5, 172032, Note_on_c, 3, 64, 0
5, 172032, Note_on_c, 3, 70, 0
5, 172032, Note_on_c, 3, 62, 69
5, 172032, Note_on_c, 3, 66, 69
5, 172032, Note_on_c, 3, 71, 69
5, 172032, Note_on_c, 3, 47, 69
5, 172390, Note_on_c, 3, 47, 0
5, 172544, Note_on_c, 3, 62, 0
5, 172544, Note_on_c, 3, 66, 0
5, 172544, Note_on_c, 3, 71, 0
5, 172544, Note_on_c, 3, 64, 60
5, 172544, Note_on_c, 3, 67, 60
5, 172544, Note_on_c, 3, 49, 60
5, 172902, Note_on_c, 3, 49, 0
5, 173056, Note_on_c, 3, 64, 0
5, 173056, Note_on_c, 3, 67, 0
5, 173056, Note_on_c, 3, 62, 56
5, 173056, Note_on_c, 3, 66, 56
5, 173056, Note_on_c, 3, 50, 56
5, 173414, Note_on_c, 3, 50, 0
5, 173568, Note_on_c, 3, 62, 0
5, 173568, Note_on_c, 3, 66, 0
5, 173568, Note_on_c, 3, 64, 52
5, 173568, Note_on_c, 3, 67, 52
5, 173568, Note_on_c, 3, 71, 52
5, 173568, Note_on_c, 3, 52, 52
5, 173926, Note_on_c, 3, 52, 0
5, 174080, Note_on_c, 3, 64, 0
5, 174080, Note_on_c, 3, 67, 0
5, 174080, Note_on_c, 3, 62, 47
5, 174080, Note_on_c, 3, 66, 47
5, 174080, Note_on_c, 3, 54, 47
5, 174438, Note_on_c, 3, 54, 0
5, 174592, Note_on_c, 3, 62, 0
5, 174592, Note_on_c, 3, 66, 0
5, 174592, Note_on_c, 3, 71, 0
5, 174592, Note_on_c, 3, 61, 39
5, 174592, Note_on_c, 3, 64, 39
5, 174592, Note_on_c, 3, 70, 39
5, 174592, Note_on_c, 3, 42, 39
5, 174950, Note_on_c, 3, 42, 0
5, 175104, Note_on_c, 3, 61, 0
5, 175104, Note_on_c, 3, 64, 0
5, 175104, Note_on_c, 3, 70, 0
5, 175104, Note_on_c, 3, 54, 30
5, 175104, Note_on_c, 3, 59, 30
5, 175104, Note_on_c, 3, 62, 30
5, 175104, Note_on_c, 3, 47, 30
5, 178176, Note_on_c, 3, 54, 0
5, 178176, Note_on_c, 3, 59, 0
5, 178176, Note_on_c, 3, 62, 0
5, 178176, Note_on_c, 3, 47, 0
5, 179763, Control_c, 3, 121, 127
5, 179763, Control_c, 3, 121, 127
5, 181248, End_track
0, 0, End_of_file
