0, 0, Header, 1, 9, 1024
1, 0, Start_track
1, 0, Time_signature, 3, 2, 24, 8
1, 0, Key_signature, -2, "major"
1, 0, Tempo, 810810
1, 332800, End_track
2, 0, Start_track
2, 0, Title_t, "Instrument 1"
2, 48128, Note_on_c, 0, 65, 96
2, 49152, Note_off_c, 0, 65, 0
2, 49152, Note_on_c, 0, 70, 96
2, 51200, Note_off_c, 0, 70, 0
2, 51200, Note_on_c, 0, 72, 96
2, 52224, Note_off_c, 0, 72, 0
2, 52224, Note_on_c, 0, 74, 96
2, 54272, Note_off_c, 0, 74, 0
2, 54272, Note_on_c, 0, 75, 96
2, 55296, Note_off_c, 0, 75, 0
2, 55296, Note_on_c, 0, 77, 96
2, 57344, Note_off_c, 0, 77, 0
2, 57344, Note_on_c, 0, 75, 96
2, 58368, Note_off_c, 0, 75, 0
2, 58368, Note_on_c, 0, 74, 96
2, 60416, Note_off_c, 0, 74, 0
2, 69632, Note_on_c, 0, 79, 96
2, 70656, Note_off_c, 0, 79, 0
2, 70656, Note_on_c, 0, 77, 96
2, 72704, Note_off_c, 0, 77, 0
2, 72704, Note_on_c, 0, 75, 96
2, 73728, Note_off_c, 0, 75, 0
2, 73728, Note_on_c, 0, 74, 96
2, 75776, Note_off_c, 0, 74, 0
2, 75776, Note_on_c, 0, 75, 96
2, 76800, Note_off_c, 0, 75, 0
2, 76800, Note_on_c, 0, 74, 96
2, 77312, Note_off_c, 0, 74, 0
2, 77312, Note_on_c, 0, 72, 96
2, 77824, Note_off_c, 0, 72, 0
2, 77824, Note_on_c, 0, 72, 96
2, 79872, Note_off_c, 0, 72, 0
2, 79872, Note_on_c, 0, 70, 96
2, 81920, Note_off_c, 0, 70, 0
2, 128000, Note_on_c, 0, 65, 96
2, 129024, Note_off_c, 0, 65, 0
2, 129024, Note_on_c, 0, 70, 96
2, 131072, Note_off_c, 0, 70, 0
2, 131072, Note_on_c, 0, 72, 96
2, 132096, Note_off_c, 0, 72, 0
2, 132096, Note_on_c, 0, 74, 96
2, 134144, Note_off_c, 0, 74, 0
2, 134144, Note_on_c, 0, 75, 96
2, 135168, Note_off_c, 0, 75, 0
2, 135168, Note_on_c, 0, 77, 96
2, 137216, Note_off_c, 0, 77, 0
2, 137216, Note_on_c, 0, 75, 96
2, 138240, Note_off_c, 0, 75, 0
2, 138240, Note_on_c, 0, 74, 96
2, 140288, Note_off_c, 0, 74, 0
2, 149504, Note_on_c, 0, 79, 96
2, 150528, Note_off_c, 0, 79, 0
2, 150528, Note_on_c, 0, 77, 96
2, 152576, Note_off_c, 0, 77, 0
2, 152576, Note_on_c, 0, 75, 96
2, 153600, Note_off_c, 0, 75, 0
2, 153600, Note_on_c, 0, 74, 96
2, 155648, Note_off_c, 0, 74, 0
2, 155648, Note_on_c, 0, 75, 96
2, 156672, Note_off_c, 0, 75, 0
2, 156672, Note_on_c, 0, 74, 96
2, 157184, Note_off_c, 0, 74, 0
2, 157184, Note_on_c, 0, 72, 96
2, 157696, Note_off_c, 0, 72, 0
2, 157696, Note_on_c, 0, 72, 96
2, 159744, Note_off_c, 0, 72, 0
2, 159744, Note_on_c, 0, 70, 96
2, 161792, Note_off_c, 0, 70, 0
2, 195584, Note_on_c, 0, 77, 96
2, 196608, Note_off_c, 0, 77, 0
2, 196608, Note_on_c, 0, 79, 96
2, 198656, Note_off_c, 0, 79, 0
2, 198656, Note_on_c, 0, 79, 96
2, 199680, Note_off_c, 0, 79, 0
2, 199680, Note_on_c, 0, 72, 96
2, 201728, Note_off_c, 0, 72, 0
2, 207872, Note_on_c, 0, 72, 96
2, 208896, Note_off_c, 0, 72, 0
2, 208896, Note_on_c, 0, 77, 96
2, 210944, Note_off_c, 0, 77, 0
2, 210944, Note_on_c, 0, 77, 96
2, 211968, Note_off_c, 0, 77, 0
2, 211968, Note_on_c, 0, 70, 96
2, 214016, Note_off_c, 0, 70, 0
2, 223232, Note_on_c, 0, 74, 96
2, 224256, Note_off_c, 0, 74, 0
2, 224256, Note_on_c, 0, 72, 96
2, 226304, Note_off_c, 0, 72, 0
2, 226304, Note_on_c, 0, 70, 96
2, 227328, Note_off_c, 0, 70, 0
2, 227328, Note_on_c, 0, 69, 96
2, 229376, Note_off_c, 0, 69, 0
2, 229376, Note_on_c, 0, 70, 96
2, 230400, Note_off_c, 0, 70, 0
2, 230400, Note_on_c, 0, 67, 96
2, 233472, Note_off_c, 0, 67, 0
2, 233472, Note_on_c, 0, 65, 96
2, 235520, Note_off_c, 0, 65, 0
2, 257024, Note_on_c, 0, 77, 96
2, 258048, Note_off_c, 0, 77, 0
2, 258048, Note_on_c, 0, 75, 96
2, 260096, Note_off_c, 0, 75, 0
2, 260096, Note_on_c, 0, 74, 96
2, 261120, Note_off_c, 0, 74, 0
2, 261120, Note_on_c, 0, 72, 96
2, 263168, Note_off_c, 0, 72, 0
2, 263168, Note_on_c, 0, 74, 96
2, 264192, Note_off_c, 0, 74, 0
2, 264192, Note_on_c, 0, 72, 96
2, 267264, Note_off_c, 0, 72, 0
2, 267264, Note_on_c, 0, 70, 96
2, 284672, Note_off_c, 0, 70, 0
2, 332800, End_track
3, 0, Start_track
3, 0, Title_t, "Instrument 2"
3, 51200, Note_on_c, 1, 69, 96
3, 52224, Note_off_c, 1, 69, 0
3, 52224, Note_on_c, 1, 70, 96
3, 52736, Note_off_c, 1, 70, 0
3, 52736, Note_on_c, 1, 69, 96
3, 53248, Note_off_c, 1, 69, 0
3, 53248, Note_on_c, 1, 70, 96
3, 53760, Note_off_c, 1, 70, 0
3, 53760, Note_on_c, 1, 69, 96
3, 54272, Note_off_c, 1, 69, 0
3, 54272, Note_on_c, 1, 70, 96
3, 55296, Note_off_c, 1, 70, 0
3, 55296, Note_on_c, 1, 70, 96
3, 55808, Note_off_c, 1, 70, 0
3, 55808, Note_on_c, 1, 68, 96
3, 56320, Note_off_c, 1, 68, 0
3, 56320, Note_on_c, 1, 67, 96
3, 57344, Note_off_c, 1, 67, 0
3, 57344, Note_on_c, 1, 69, 96
3, 58368, Note_off_c, 1, 69, 0
3, 58368, Note_on_c, 1, 70, 96
3, 60416, Note_off_c, 1, 70, 0
3, 69632, Note_on_c, 1, 72, 96
3, 70656, Note_off_c, 1, 72, 0
3, 70656, Note_on_c, 1, 72, 96
3, 71168, Note_off_c, 1, 72, 0
3, 71168, Note_on_c, 1, 70, 96
3, 71680, Note_off_c, 1, 70, 0
3, 71680, Note_on_c, 1, 72, 96
3, 72704, Note_off_c, 1, 72, 0
3, 72704, Note_on_c, 1, 69, 96
3, 73728, Note_off_c, 1, 69, 0
3, 73728, Note_on_c, 1, 65, 96
3, 74752, Note_off_c, 1, 65, 0
3, 74752, Note_on_c, 1, 70, 96
3, 75264, Note_off_c, 1, 70, 0
3, 75264, Note_on_c, 1, 69, 96
3, 75776, Note_off_c, 1, 69, 0
3, 75776, Note_on_c, 1, 70, 96
3, 76800, Note_off_c, 1, 70, 0
3, 76800, Note_on_c, 1, 70, 96
3, 78848, Note_off_c, 1, 70, 0
3, 78848, Note_on_c, 1, 69, 96
3, 79872, Note_off_c, 1, 69, 0
3, 79872, Note_on_c, 1, 70, 96
3, 81920, Note_off_c, 1, 70, 0
3, 131072, Note_on_c, 1, 69, 96
3, 132096, Note_off_c, 1, 69, 0
3, 132096, Note_on_c, 1, 70, 96
3, 132608, Note_off_c, 1, 70, 0
3, 132608, Note_on_c, 1, 69, 96
3, 133120, Note_off_c, 1, 69, 0
3, 133120, Note_on_c, 1, 70, 96
3, 133632, Note_off_c, 1, 70, 0
3, 133632, Note_on_c, 1, 69, 96
3, 134144, Note_off_c, 1, 69, 0
3, 134144, Note_on_c, 1, 70, 96
3, 135168, Note_off_c, 1, 70, 0
3, 135168, Note_on_c, 1, 70, 96
3, 135680, Note_off_c, 1, 70, 0
3, 135680, Note_on_c, 1, 68, 96
3, 136192, Note_off_c, 1, 68, 0
3, 136192, Note_on_c, 1, 67, 96
3, 137216, Note_off_c, 1, 67, 0
3, 137216, Note_on_c, 1, 69, 96
3, 138240, Note_off_c, 1, 69, 0
3, 138240, Note_on_c, 1, 70, 96
3, 140288, Note_off_c, 1, 70, 0
3, 149504, Note_on_c, 1, 72, 96
3, 150528, Note_off_c, 1, 72, 0
3, 150528, Note_on_c, 1, 72, 96
3, 151040, Note_off_c, 1, 72, 0
3, 151040, Note_on_c, 1, 70, 96
3, 151552, Note_off_c, 1, 70, 0
3, 151552, Note_on_c, 1, 72, 96
3, 152576, Note_off_c, 1, 72, 0
3, 152576, Note_on_c, 1, 69, 96
3, 153600, Note_off_c, 1, 69, 0
3, 153600, Note_on_c, 1, 65, 96
3, 154624, Note_off_c, 1, 65, 0
3, 154624, Note_on_c, 1, 70, 96
3, 155136, Note_off_c, 1, 70, 0
3, 155136, Note_on_c, 1, 69, 96
3, 155648, Note_off_c, 1, 69, 0
3, 155648, Note_on_c, 1, 70, 96
3, 156672, Note_off_c, 1, 70, 0
3, 156672, Note_on_c, 1, 70, 96
3, 158720, Note_off_c, 1, 70, 0
3, 158720, Note_on_c, 1, 69, 96
3, 159744, Note_off_c, 1, 69, 0
3, 159744, Note_on_c, 1, 70, 96
3, 161792, Note_off_c, 1, 70, 0
3, 195584, Note_on_c, 1, 70, 96
3, 196608, Note_off_c, 1, 70, 0
3, 196608, Note_on_c, 1, 70, 96
3, 198144, Note_off_c, 1, 70, 0
3, 198144, Note_on_c, 1, 74, 96
3, 198656, Note_off_c, 1, 74, 0
3, 198656, Note_on_c, 1, 72, 96
3, 199168, Note_off_c, 1, 72, 0
3, 199168, Note_on_c, 1, 70, 96
3, 199680, Note_off_c, 1, 70, 0
3, 199680, Note_on_c, 1, 69, 96
3, 201728, Note_off_c, 1, 69, 0
3, 207872, Note_on_c, 1, 72, 96
3, 208896, Note_off_c, 1, 72, 0
3, 208896, Note_on_c, 1, 70, 96
3, 210432, Note_off_c, 1, 70, 0
3, 210432, Note_on_c, 1, 72, 96
3, 210944, Note_off_c, 1, 72, 0
3, 210944, Note_on_c, 1, 70, 96
3, 211456, Note_off_c, 1, 70, 0
3, 211456, Note_on_c, 1, 68, 96
3, 211968, Note_off_c, 1, 68, 0
3, 211968, Note_on_c, 1, 67, 96
3, 214016, Note_off_c, 1, 67, 0
3, 223232, Note_on_c, 1, 67, 96
3, 224256, Note_off_c, 1, 67, 0
3, 224256, Note_on_c, 1, 67, 96
3, 225280, Note_off_c, 1, 67, 0
3, 225280, Note_on_c, 1, 60, 96
3, 226304, Note_off_c, 1, 60, 0
3, 226304, Note_on_c, 1, 67, 96
3, 227328, Note_off_c, 1, 67, 0
3, 227328, Note_on_c, 1, 67, 96
3, 227840, Note_off_c, 1, 67, 0
3, 227840, Note_on_c, 1, 69, 96
3, 228096, Note_off_c, 1, 69, 0
3, 228096, Note_on_c, 1, 67, 96
3, 228352, Note_off_c, 1, 67, 0
3, 228352, Note_on_c, 1, 65, 96
3, 228864, Note_off_c, 1, 65, 0
3, 228864, Note_on_c, 1, 64, 96
3, 229376, Note_off_c, 1, 64, 0
3, 229376, Note_on_c, 1, 65, 96
3, 230912, Note_off_c, 1, 65, 0
3, 230912, Note_on_c, 1, 64, 96
3, 231168, Note_off_c, 1, 64, 0
3, 231168, Note_on_c, 1, 62, 96
3, 231424, Note_off_c, 1, 62, 0
3, 231424, Note_on_c, 1, 64, 96
3, 233472, Note_off_c, 1, 64, 0
3, 233472, Note_on_c, 1, 60, 96
3, 235520, Note_off_c, 1, 60, 0
3, 257024, Note_on_c, 1, 69, 96
3, 258048, Note_off_c, 1, 69, 0
3, 258048, Note_on_c, 1, 70, 96
3, 258560, Note_off_c, 1, 70, 0
3, 258560, Note_on_c, 1, 69, 96
3, 259072, Note_off_c, 1, 69, 0
3, 259072, Note_on_c, 1, 70, 96
3, 259584, Note_off_c, 1, 70, 0
3, 259584, Note_on_c, 1, 72, 96
3, 260096, Note_off_c, 1, 72, 0
3, 260096, Note_on_c, 1, 74, 96
3, 260608, Note_off_c, 1, 74, 0
3, 260608, Note_on_c, 1, 70, 96
3, 261120, Note_off_c, 1, 70, 0
3, 261120, Note_on_c, 1, 67, 96
3, 261632, Note_off_c, 1, 67, 0
3, 261632, Note_on_c, 1, 72, 96
3, 262400, Note_off_c, 1, 72, 0
3, 262400, Note_on_c, 1, 70, 96
3, 262656, Note_off_c, 1, 70, 0
3, 262656, Note_on_c, 1, 69, 96
3, 262912, Note_off_c, 1, 69, 0
3, 262912, Note_on_c, 1, 67, 96
3, 263168, Note_off_c, 1, 67, 0
3, 263168, Note_on_c, 1, 65, 96
3, 263424, Note_off_c, 1, 65, 0
3, 263424, Note_on_c, 1, 70, 96
3, 263680, Note_off_c, 1, 70, 0
3, 263680, Note_on_c, 1, 69, 96
3, 263936, Note_off_c, 1, 69, 0
3, 263936, Note_on_c, 1, 70, 96
3, 264192, Note_off_c, 1, 70, 0
3, 264192, Note_on_c, 1, 67, 96
3, 264448, Note_off_c, 1, 67, 0
3, 264448, Note_on_c, 1, 65, 96
3, 264704, Note_off_c, 1, 65, 0
3, 264704, Note_on_c, 1, 63, 96
3, 264960, Note_off_c, 1, 63, 0
3, 264960, Note_on_c, 1, 62, 96
3, 265216, Note_off_c, 1, 62, 0
3, 265216, Note_on_c, 1, 60, 96
3, 265984, Note_off_c, 1, 60, 0
3, 265984, Note_on_c, 1, 70, 96
3, 266240, Note_off_c, 1, 70, 0
3, 266240, Note_on_c, 1, 69, 96
3, 267264, Note_off_c, 1, 69, 0
3, 267264, Note_on_c, 1, 70, 96
3, 268288, Note_off_c, 1, 70, 0
3, 268288, Note_on_c, 1, 65, 96
3, 269312, Note_off_c, 1, 65, 0
3, 269824, Note_on_c, 1, 68, 96
3, 270336, Note_off_c, 1, 68, 0
3, 270336, Note_on_c, 1, 70, 96
3, 270848, Note_off_c, 1, 70, 0
3, 270848, Note_on_c, 1, 68, 96
3, 271360, Note_off_c, 1, 68, 0
3, 271360, Note_on_c, 1, 67, 96
3, 272384, Note_off_c, 1, 67, 0
3, 272896, Note_on_c, 1, 70, 96
3, 273408, Note_off_c, 1, 70, 0
3, 273408, Note_on_c, 1, 65, 96
3, 273920, Note_off_c, 1, 65, 0
3, 273920, Note_on_c, 1, 67, 96
3, 274176, Note_off_c, 1, 67, 0
3, 274176, Note_on_c, 1, 63, 96
3, 274432, Note_off_c, 1, 63, 0
3, 274432, Note_on_c, 1, 70, 96
3, 275968, Note_off_c, 1, 70, 0
3, 275968, Note_on_c, 1, 68, 96
3, 276224, Note_off_c, 1, 68, 0
3, 276224, Note_on_c, 1, 67, 96
3, 276480, Note_off_c, 1, 67, 0
3, 276480, Note_on_c, 1, 68, 96
3, 276992, Note_off_c, 1, 68, 0
3, 276992, Note_on_c, 1, 67, 96
3, 277248, Note_off_c, 1, 67, 0
3, 277248, Note_on_c, 1, 68, 96
3, 277504, Note_off_c, 1, 68, 0
3, 277504, Note_on_c, 1, 65, 96
3, 279040, Note_off_c, 1, 65, 0
3, 279040, Note_on_c, 1, 63, 96
3, 279296, Note_off_c, 1, 63, 0
3, 279296, Note_on_c, 1, 65, 96
3, 279552, Note_off_c, 1, 65, 0
3, 279552, Note_on_c, 1, 67, 96
3, 281088, Note_off_c, 1, 67, 0
3, 281088, Note_on_c, 1, 69, 96
3, 281600, Note_off_c, 1, 69, 0
3, 281600, Note_on_c, 1, 70, 96
3, 283136, Note_off_c, 1, 70, 0
3, 283136, Note_on_c, 1, 69, 96
3, 283392, Note_off_c, 1, 69, 0
3, 283392, Note_on_c, 1, 67, 96
3, 283648, Note_off_c, 1, 67, 0
3, 283648, Note_on_c, 1, 63, 96
3, 284672, Note_off_c, 1, 63, 0
3, 332800, End_track
4, 0, Start_track
4, 0, Title_t, "Instrument 3"
4, 51200, Note_on_c, 2, 65, 96
4, 52224, Note_off_c, 2, 65, 0
4, 52224, Note_on_c, 2, 65, 96
4, 53248, Note_off_c, 2, 65, 0
4, 53248, Note_on_c, 2, 62, 96
4, 54272, Note_off_c, 2, 62, 0
4, 54272, Note_on_c, 2, 58, 96
4, 54784, Note_off_c, 2, 58, 0
4, 54784, Note_on_c, 2, 60, 96
4, 55296, Note_off_c, 2, 60, 0
4, 55296, Note_on_c, 2, 62, 96
4, 56320, Note_off_c, 2, 62, 0
4, 56320, Note_on_c, 2, 62, 96
4, 56832, Note_off_c, 2, 62, 0
4, 56832, Note_on_c, 2, 60, 96
4, 57344, Note_off_c, 2, 60, 0
4, 57344, Note_on_c, 2, 60, 96
4, 57856, Note_off_c, 2, 60, 0
4, 57856, Note_on_c, 2, 58, 96
4, 58368, Note_off_c, 2, 58, 0
4, 58368, Note_on_c, 2, 58, 96
4, 60416, Note_off_c, 2, 58, 0
4, 69632, Note_on_c, 2, 63, 96
4, 70656, Note_off_c, 2, 63, 0
4, 70656, Note_on_c, 2, 65, 96
4, 72704, Note_off_c, 2, 65, 0
4, 72704, Note_on_c, 2, 60, 96
4, 73728, Note_off_c, 2, 60, 0
4, 73728, Note_on_c, 2, 62, 96
4, 74240, Note_off_c, 2, 62, 0
4, 74240, Note_on_c, 2, 63, 96
4, 74752, Note_off_c, 2, 63, 0
4, 74752, Note_on_c, 2, 65, 96
4, 75776, Note_off_c, 2, 65, 0
4, 75776, Note_on_c, 2, 58, 96
4, 76800, Note_off_c, 2, 58, 0
4, 76800, Note_on_c, 2, 65, 96
4, 77824, Note_off_c, 2, 65, 0
4, 77824, Note_on_c, 2, 67, 96
4, 78848, Note_off_c, 2, 67, 0
4, 78848, Note_on_c, 2, 65, 96
4, 79360, Note_off_c, 2, 65, 0
4, 79360, Note_on_c, 2, 63, 96
4, 79872, Note_off_c, 2, 63, 0
4, 79872, Note_on_c, 2, 62, 96
4, 81920, Note_off_c, 2, 62, 0
4, 131072, Note_on_c, 2, 65, 96
4, 132096, Note_off_c, 2, 65, 0
4, 132096, Note_on_c, 2, 65, 96
4, 133120, Note_off_c, 2, 65, 0
4, 133120, Note_on_c, 2, 62, 96
4, 134144, Note_off_c, 2, 62, 0
4, 134144, Note_on_c, 2, 58, 96
4, 134656, Note_off_c, 2, 58, 0
4, 134656, Note_on_c, 2, 60, 96
4, 135168, Note_off_c, 2, 60, 0
4, 135168, Note_on_c, 2, 62, 96
4, 136192, Note_off_c, 2, 62, 0
4, 136192, Note_on_c, 2, 62, 96
4, 136704, Note_off_c, 2, 62, 0
4, 136704, Note_on_c, 2, 60, 96
4, 137216, Note_off_c, 2, 60, 0
4, 137216, Note_on_c, 2, 60, 96
4, 137728, Note_off_c, 2, 60, 0
4, 137728, Note_on_c, 2, 58, 96
4, 138240, Note_off_c, 2, 58, 0
4, 138240, Note_on_c, 2, 58, 96
4, 140288, Note_off_c, 2, 58, 0
4, 149504, Note_on_c, 2, 63, 96
4, 150528, Note_off_c, 2, 63, 0
4, 150528, Note_on_c, 2, 65, 96
4, 152576, Note_off_c, 2, 65, 0
4, 152576, Note_on_c, 2, 60, 96
4, 153600, Note_off_c, 2, 60, 0
4, 153600, Note_on_c, 2, 62, 96
4, 154112, Note_off_c, 2, 62, 0
4, 154112, Note_on_c, 2, 63, 96
4, 154624, Note_off_c, 2, 63, 0
4, 154624, Note_on_c, 2, 65, 96
4, 155648, Note_off_c, 2, 65, 0
4, 155648, Note_on_c, 2, 58, 96
4, 156672, Note_off_c, 2, 58, 0
4, 156672, Note_on_c, 2, 65, 96
4, 157696, Note_off_c, 2, 65, 0
4, 157696, Note_on_c, 2, 67, 96
4, 158720, Note_off_c, 2, 67, 0
4, 158720, Note_on_c, 2, 65, 96
4, 159232, Note_off_c, 2, 65, 0
4, 159232, Note_on_c, 2, 63, 96
4, 159744, Note_off_c, 2, 63, 0
4, 159744, Note_on_c, 2, 62, 96
4, 161792, Note_off_c, 2, 62, 0
4, 195584, Note_on_c, 2, 62, 96
4, 196608, Note_off_c, 2, 62, 0
4, 196608, Note_on_c, 2, 63, 96
4, 197376, Note_off_c, 2, 63, 0
4, 197376, Note_on_c, 2, 65, 96
4, 197632, Note_off_c, 2, 65, 0
4, 197632, Note_on_c, 2, 67, 96
4, 198656, Note_off_c, 2, 67, 0
4, 198656, Note_on_c, 2, 55, 96
4, 199680, Note_off_c, 2, 55, 0
4, 199680, Note_on_c, 2, 53, 96
4, 201728, Note_off_c, 2, 53, 0
4, 207872, Note_on_c, 2, 65, 96
4, 208896, Note_off_c, 2, 65, 0
4, 208896, Note_on_c, 2, 65, 96
4, 209408, Note_off_c, 2, 65, 0
4, 209408, Note_on_c, 2, 63, 96
4, 209920, Note_off_c, 2, 63, 0
4, 209920, Note_on_c, 2, 62, 96
4, 210432, Note_off_c, 2, 62, 0
4, 210432, Note_on_c, 2, 63, 96
4, 210944, Note_off_c, 2, 63, 0
4, 210944, Note_on_c, 2, 65, 96
4, 211968, Note_off_c, 2, 65, 0
4, 211968, Note_on_c, 2, 63, 96
4, 214016, Note_off_c, 2, 63, 0
4, 223232, Note_on_c, 2, 58, 96
4, 224256, Note_off_c, 2, 58, 0
4, 224256, Note_on_c, 2, 60, 96
4, 225280, Note_off_c, 2, 60, 0
4, 225280, Note_on_c, 2, 55, 96
4, 226304, Note_off_c, 2, 55, 0
4, 226304, Note_on_c, 2, 60, 96
4, 227328, Note_off_c, 2, 60, 0
4, 227328, Note_on_c, 2, 60, 96
4, 229376, Note_off_c, 2, 60, 0
4, 229376, Note_on_c, 2, 62, 96
4, 230400, Note_off_c, 2, 62, 0
4, 230400, Note_on_c, 2, 62, 96
4, 231424, Note_off_c, 2, 62, 0
4, 231424, Note_on_c, 2, 60, 96
4, 232448, Note_off_c, 2, 60, 0
4, 232448, Note_on_c, 2, 55, 96
4, 233472, Note_off_c, 2, 55, 0
4, 233472, Note_on_c, 2, 57, 96
4, 235520, Note_off_c, 2, 57, 0
4, 257024, Note_on_c, 2, 62, 96
4, 258048, Note_off_c, 2, 62, 0
4, 258048, Note_on_c, 2, 62, 96
4, 259072, Note_off_c, 2, 62, 0
4, 259072, Note_on_c, 2, 60, 96
4, 260096, Note_off_c, 2, 60, 0
4, 260096, Note_on_c, 2, 58, 96
4, 262144, Note_off_c, 2, 58, 0
4, 262144, Note_on_c, 2, 53, 96
4, 263168, Note_off_c, 2, 53, 0
4, 263168, Note_on_c, 2, 55, 96
4, 264192, Note_off_c, 2, 55, 0
4, 264192, Note_on_c, 2, 58, 96
4, 264704, Note_off_c, 2, 58, 0
4, 264704, Note_on_c, 2, 67, 96
4, 265472, Note_off_c, 2, 67, 0
4, 265472, Note_on_c, 2, 65, 96
4, 265728, Note_off_c, 2, 65, 0
4, 265728, Note_on_c, 2, 63, 96
4, 265984, Note_off_c, 2, 63, 0
4, 265984, Note_on_c, 2, 62, 96
4, 266240, Note_off_c, 2, 62, 0
4, 266240, Note_on_c, 2, 60, 96
4, 266496, Note_off_c, 2, 60, 0
4, 266496, Note_on_c, 2, 65, 96
4, 266752, Note_off_c, 2, 65, 0
4, 266752, Note_on_c, 2, 63, 96
4, 267008, Note_off_c, 2, 63, 0
4, 267008, Note_on_c, 2, 65, 96
4, 267264, Note_off_c, 2, 65, 0
4, 267264, Note_on_c, 2, 62, 96
4, 267776, Note_off_c, 2, 62, 0
4, 267776, Note_on_c, 2, 58, 96
4, 268288, Note_off_c, 2, 58, 0
4, 268288, Note_on_c, 2, 62, 96
4, 269312, Note_off_c, 2, 62, 0
4, 269824, Note_on_c, 2, 65, 96
4, 270336, Note_off_c, 2, 65, 0
4, 270336, Note_on_c, 2, 67, 96
4, 270848, Note_off_c, 2, 67, 0
4, 270848, Note_on_c, 2, 65, 96
4, 271360, Note_off_c, 2, 65, 0
4, 271360, Note_on_c, 2, 63, 96
4, 272384, Note_off_c, 2, 63, 0
4, 272896, Note_on_c, 2, 67, 96
4, 273408, Note_off_c, 2, 67, 0
4, 273408, Note_on_c, 2, 62, 96
4, 273920, Note_off_c, 2, 62, 0
4, 273920, Note_on_c, 2, 63, 96
4, 274176, Note_off_c, 2, 63, 0
4, 274176, Note_on_c, 2, 60, 96
4, 274432, Note_off_c, 2, 60, 0
4, 274432, Note_on_c, 2, 62, 96
4, 275968, Note_off_c, 2, 62, 0
4, 275968, Note_on_c, 2, 63, 96
4, 276480, Note_off_c, 2, 63, 0
4, 276480, Note_on_c, 2, 58, 96
4, 276736, Note_off_c, 2, 58, 0
4, 276736, Note_on_c, 2, 57, 96
4, 276992, Note_off_c, 2, 57, 0
4, 276992, Note_on_c, 2, 58, 96
4, 277248, Note_off_c, 2, 58, 0
4, 277248, Note_on_c, 2, 60, 96
4, 277504, Note_off_c, 2, 60, 0
4, 277504, Note_on_c, 2, 62, 96
4, 279040, Note_off_c, 2, 62, 0
4, 279040, Note_on_c, 2, 58, 96
4, 279552, Note_off_c, 2, 58, 0
4, 279552, Note_on_c, 2, 63, 96
4, 281088, Note_off_c, 2, 63, 0
4, 281088, Note_on_c, 2, 62, 96
4, 281344, Note_off_c, 2, 62, 0
4, 281344, Note_on_c, 2, 60, 96
4, 281600, Note_off_c, 2, 60, 0
4, 281600, Note_on_c, 2, 58, 96
4, 282112, Note_off_c, 2, 58, 0
4, 282112, Note_on_c, 2, 60, 96
4, 282624, Note_off_c, 2, 60, 0
4, 282624, Note_on_c, 2, 62, 96
4, 283648, Note_off_c, 2, 62, 0
4, 283648, Note_on_c, 2, 58, 96
4, 284672, Note_off_c, 2, 58, 0
4, 332800, End_track
5, 0, Start_track
5, 0, Title_t, "Instrument 4"
5, 51200, Note_on_c, 3, 53, 96
5, 52224, Note_off_c, 3, 53, 0
5, 52224, Note_on_c, 3, 58, 96
5, 53248, Note_off_c, 3, 58, 0
5, 53248, Note_on_c, 3, 53, 96
5, 54272, Note_off_c, 3, 53, 0
5, 54272, Note_on_c, 3, 55, 96
5, 55296, Note_off_c, 3, 55, 0
5, 55296, Note_on_c, 3, 50, 96
5, 56320, Note_off_c, 3, 50, 0
5, 56320, Note_on_c, 3, 51, 96
5, 57344, Note_off_c, 3, 51, 0
5, 57344, Note_on_c, 3, 53, 96
5, 58368, Note_off_c, 3, 53, 0
5, 58368, Note_on_c, 3, 46, 96
5, 60416, Note_off_c, 3, 46, 0
5, 69632, Note_on_c, 3, 60, 96
5, 70144, Note_off_c, 3, 60, 0
5, 70144, Note_on_c, 3, 58, 96
5, 70656, Note_off_c, 3, 58, 0
5, 70656, Note_on_c, 3, 57, 96
5, 72704, Note_off_c, 3, 57, 0
5, 72704, Note_on_c, 3, 53, 96
5, 73728, Note_off_c, 3, 53, 0
5, 73728, Note_on_c, 3, 58, 96
5, 74752, Note_off_c, 3, 58, 0
5, 74752, Note_on_c, 3, 57, 96
5, 75776, Note_off_c, 3, 57, 0
5, 75776, Note_on_c, 3, 55, 96
5, 76800, Note_off_c, 3, 55, 0
5, 76800, Note_on_c, 3, 53, 96
5, 77824, Note_off_c, 3, 53, 0
5, 77824, Note_on_c, 3, 51, 96
5, 78848, Note_off_c, 3, 51, 0
5, 78848, Note_on_c, 3, 53, 96
5, 79872, Note_off_c, 3, 53, 0
5, 79872, Note_on_c, 3, 46, 96
5, 81920, Note_off_c, 3, 46, 0
5, 131072, Note_on_c, 3, 53, 96
5, 132096, Note_off_c, 3, 53, 0
5, 132096, Note_on_c, 3, 58, 96
5, 133120, Note_off_c, 3, 58, 0
5, 133120, Note_on_c, 3, 53, 96
5, 134144, Note_off_c, 3, 53, 0
5, 134144, Note_on_c, 3, 55, 96
5, 135168, Note_off_c, 3, 55, 0
5, 135168, Note_on_c, 3, 50, 96
5, 136192, Note_off_c, 3, 50, 0
5, 136192, Note_on_c, 3, 51, 96
5, 137216, Note_off_c, 3, 51, 0
5, 137216, Note_on_c, 3, 53, 96
5, 138240, Note_off_c, 3, 53, 0
5, 138240, Note_on_c, 3, 46, 96
5, 140288, Note_off_c, 3, 46, 0
5, 149504, Note_on_c, 3, 60, 96
5, 150016, Note_off_c, 3, 60, 0
5, 150016, Note_on_c, 3, 58, 96
5, 150528, Note_off_c, 3, 58, 0
5, 150528, Note_on_c, 3, 57, 96
5, 151040, Note_off_c, 3, 57, 0
5, 151040, Note_on_c, 3, 55, 96
5, 151552, Note_off_c, 3, 55, 0
5, 151552, Note_on_c, 3, 57, 96
5, 152576, Note_off_c, 3, 57, 0
5, 152576, Note_on_c, 3, 53, 96
5, 153600, Note_off_c, 3, 53, 0
5, 153600, Note_on_c, 3, 58, 96
5, 154624, Note_off_c, 3, 58, 0
5, 154624, Note_on_c, 3, 57, 96
5, 155648, Note_off_c, 3, 57, 0
5, 155648, Note_on_c, 3, 55, 96
5, 156672, Note_off_c, 3, 55, 0
5, 156672, Note_on_c, 3, 53, 96
5, 157696, Note_off_c, 3, 53, 0
5, 157696, Note_on_c, 3, 51, 96
5, 158720, Note_off_c, 3, 51, 0
5, 158720, Note_on_c, 3, 53, 96
5, 159744, Note_off_c, 3, 53, 0
5, 159744, Note_on_c, 3, 46, 96
5, 161792, Note_off_c, 3, 46, 0
5, 195584, Note_on_c, 3, 58, 96
5, 196608, Note_off_c, 3, 58, 0
5, 196608, Note_on_c, 3, 51, 96
5, 197120, Note_off_c, 3, 51, 0
5, 197120, Note_on_c, 3, 50, 96
5, 197632, Note_off_c, 3, 50, 0
5, 197632, Note_on_c, 3, 51, 96
5, 198144, Note_off_c, 3, 51, 0
5, 198144, Note_on_c, 3, 55, 96
5, 198656, Note_off_c, 3, 55, 0
5, 198656, Note_on_c, 3, 48, 96
5, 199168, Note_off_c, 3, 48, 0
5, 199168, Note_on_c, 3, 51, 96
5, 199680, Note_off_c, 3, 51, 0
5, 199680, Note_on_c, 3, 53, 96
5, 201728, Note_off_c, 3, 53, 0
5, 207872, Note_on_c, 3, 57, 96
5, 208896, Note_off_c, 3, 57, 0
5, 208896, Note_on_c, 3, 50, 96
5, 209408, Note_off_c, 3, 50, 0
5, 209408, Note_on_c, 3, 48, 96
5, 209920, Note_off_c, 3, 48, 0
5, 209920, Note_on_c, 3, 50, 96
5, 210432, Note_off_c, 3, 50, 0
5, 210432, Note_on_c, 3, 53, 96
5, 210944, Note_off_c, 3, 53, 0
5, 210944, Note_on_c, 3, 46, 96
5, 211456, Note_off_c, 3, 46, 0
5, 211456, Note_on_c, 3, 50, 96
5, 211968, Note_off_c, 3, 50, 0
5, 211968, Note_on_c, 3, 51, 96
5, 214016, Note_off_c, 3, 51, 0
5, 223232, Note_on_c, 3, 55, 96
5, 223744, Note_off_c, 3, 55, 0
5, 223744, Note_on_c, 3, 53, 96
5, 224256, Note_off_c, 3, 53, 0
5, 224256, Note_on_c, 3, 52, 96
5, 225024, Note_off_c, 3, 52, 0
5, 225024, Note_on_c, 3, 53, 96
5, 225280, Note_off_c, 3, 53, 0
5, 225280, Note_on_c, 3, 55, 96
5, 225792, Note_off_c, 3, 55, 0
5, 225792, Note_on_c, 3, 58, 96
5, 226304, Note_off_c, 3, 58, 0
5, 226304, Note_on_c, 3, 48, 96
5, 226816, Note_off_c, 3, 48, 0
5, 226816, Note_on_c, 3, 52, 96
5, 227328, Note_off_c, 3, 52, 0
5, 227328, Note_on_c, 3, 53, 96
5, 227840, Note_off_c, 3, 53, 0
5, 227840, Note_on_c, 3, 53, 96
5, 228096, Note_off_c, 3, 53, 0
5, 228096, Note_on_c, 3, 52, 96
5, 228352, Note_off_c, 3, 52, 0
5, 228352, Note_on_c, 3, 53, 96
5, 228864, Note_off_c, 3, 53, 0
5, 228864, Note_on_c, 3, 57, 96
5, 229376, Note_off_c, 3, 57, 0
5, 229376, Note_on_c, 3, 50, 96
5, 229888, Note_off_c, 3, 50, 0
5, 229888, Note_on_c, 3, 53, 96
5, 230400, Note_off_c, 3, 53, 0
5, 230400, Note_on_c, 3, 46, 96
5, 230912, Note_off_c, 3, 46, 0
5, 230912, Note_on_c, 3, 48, 96
5, 231168, Note_off_c, 3, 48, 0
5, 231168, Note_on_c, 3, 50, 96
5, 231424, Note_off_c, 3, 50, 0
5, 231424, Note_on_c, 3, 48, 96
5, 233472, Note_off_c, 3, 48, 0
5, 233472, Note_on_c, 3, 53, 96
5, 235520, Note_off_c, 3, 53, 0
5, 257024, Note_on_c, 3, 50, 96
5, 258048, Note_off_c, 3, 50, 0
5, 258048, Note_on_c, 3, 55, 96
5, 258560, Note_off_c, 3, 55, 0
5, 258560, Note_on_c, 3, 53, 96
5, 259072, Note_off_c, 3, 53, 0
5, 259072, Note_on_c, 3, 55, 96
5, 259584, Note_off_c, 3, 55, 0
5, 259584, Note_on_c, 3, 57, 96
5, 260096, Note_off_c, 3, 57, 0
5, 260096, Note_on_c, 3, 58, 96
5, 260608, Note_off_c, 3, 58, 0
5, 260608, Note_on_c, 3, 50, 96
5, 261120, Note_off_c, 3, 50, 0
5, 261120, Note_on_c, 3, 51, 96
5, 261632, Note_off_c, 3, 51, 0
5, 261632, Note_on_c, 3, 53, 96
5, 261888, Note_off_c, 3, 53, 0
5, 261888, Note_on_c, 3, 55, 96
5, 262144, Note_off_c, 3, 55, 0
5, 262144, Note_on_c, 3, 53, 96
5, 262656, Note_off_c, 3, 53, 0
5, 262656, Note_on_c, 3, 51, 96
5, 263168, Note_off_c, 3, 51, 0
5, 263168, Note_on_c, 3, 50, 96
5, 263680, Note_off_c, 3, 50, 0
5, 263680, Note_on_c, 3, 46, 96
5, 264192, Note_off_c, 3, 46, 0
5, 264192, Note_on_c, 3, 51, 96
5, 264704, Note_off_c, 3, 51, 0
5, 264704, Note_on_c, 3, 48, 96
5, 264960, Note_off_c, 3, 48, 0
5, 264960, Note_on_c, 3, 50, 96
5, 265216, Note_off_c, 3, 50, 0
5, 265216, Note_on_c, 3, 51, 96
5, 265728, Note_off_c, 3, 51, 0
5, 265728, Note_on_c, 3, 48, 96
5, 266240, Note_off_c, 3, 48, 0
5, 266240, Note_on_c, 3, 53, 96
5, 267264, Note_off_c, 3, 53, 0
5, 267264, Note_on_c, 3, 46, 96
5, 267776, Note_off_c, 3, 46, 0
5, 267776, Note_on_c, 3, 46, 96
5, 268288, Note_off_c, 3, 46, 0
5, 268288, Note_on_c, 3, 53, 96
5, 268800, Note_off_c, 3, 53, 0
5, 268800, Note_on_c, 3, 51, 96
5, 269312, Note_off_c, 3, 51, 0
5, 269312, Note_on_c, 3, 53, 96
5, 270336, Note_off_c, 3, 53, 0
5, 270848, Note_on_c, 3, 46, 96
5, 271360, Note_off_c, 3, 46, 0
5, 271360, Note_on_c, 3, 55, 96
5, 271872, Note_off_c, 3, 55, 0
5, 271872, Note_on_c, 3, 53, 96
5, 272384, Note_off_c, 3, 53, 0
5, 272384, Note_on_c, 3, 55, 96
5, 273408, Note_off_c, 3, 55, 0
5, 273920, Note_on_c, 3, 46, 96
5, 274432, Note_off_c, 3, 46, 0
5, 274432, Note_on_c, 3, 56, 96
5, 274944, Note_off_c, 3, 56, 0
5, 274944, Note_on_c, 3, 55, 96
5, 275456, Note_off_c, 3, 55, 0
5, 275456, Note_on_c, 3, 53, 96
5, 275968, Note_off_c, 3, 53, 0
5, 275968, Note_on_c, 3, 51, 96
5, 276480, Note_off_c, 3, 51, 0
5, 276480, Note_on_c, 3, 53, 96
5, 276992, Note_off_c, 3, 53, 0
5, 276992, Note_on_c, 3, 46, 96
5, 277504, Note_off_c, 3, 46, 0
5, 277504, Note_on_c, 3, 58, 96
5, 278016, Note_off_c, 3, 58, 0
5, 278016, Note_on_c, 3, 56, 96
5, 278528, Note_off_c, 3, 56, 0
5, 278528, Note_on_c, 3, 55, 96
5, 279040, Note_off_c, 3, 55, 0
5, 279040, Note_on_c, 3, 53, 96
5, 279552, Note_off_c, 3, 53, 0
5, 279552, Note_on_c, 3, 51, 96
5, 280064, Note_off_c, 3, 51, 0
5, 280064, Note_on_c, 3, 50, 96
5, 280576, Note_off_c, 3, 50, 0
5, 280576, Note_on_c, 3, 51, 96
5, 281088, Note_off_c, 3, 51, 0
5, 281088, Note_on_c, 3, 53, 96
5, 281600, Note_off_c, 3, 53, 0
5, 281600, Note_on_c, 3, 55, 96
5, 282112, Note_off_c, 3, 55, 0
5, 282112, Note_on_c, 3, 57, 96
5, 282624, Note_off_c, 3, 57, 0
5, 282624, Note_on_c, 3, 58, 96
5, 283648, Note_off_c, 3, 58, 0
5, 283648, Note_on_c, 3, 46, 96
5, 284672, Note_off_c, 3, 46, 0
5, 332800, End_track
6, 0, Start_track
6, 0, Title_t, "Instrument 5"
6, 0, Note_on_c, 4, 46, 96
6, 512, Note_off_c, 4, 46, 0
6, 512, Note_on_c, 4, 45, 96
6, 1024, Note_off_c, 4, 45, 0
6, 1024, Note_on_c, 4, 46, 96
6, 1536, Note_off_c, 4, 46, 0
6, 1536, Note_on_c, 4, 48, 96
6, 2048, Note_off_c, 4, 48, 0
6, 2048, Note_on_c, 4, 50, 96
6, 2560, Note_off_c, 4, 50, 0
6, 2560, Note_on_c, 4, 51, 96
6, 3072, Note_off_c, 4, 51, 0
6, 3072, Note_on_c, 4, 50, 96
6, 3584, Note_off_c, 4, 50, 0
6, 3584, Note_on_c, 4, 48, 96
6, 4096, Note_off_c, 4, 48, 0
6, 4096, Note_on_c, 4, 50, 96
6, 4608, Note_off_c, 4, 50, 0
6, 4608, Note_on_c, 4, 51, 96
6, 5120, Note_off_c, 4, 51, 0
6, 5120, Note_on_c, 4, 53, 96
6, 5632, Note_off_c, 4, 53, 0
6, 5632, Note_on_c, 4, 55, 96
6, 6144, Note_off_c, 4, 55, 0
6, 6144, Note_on_c, 4, 53, 96
6, 6656, Note_off_c, 4, 53, 0
6, 6656, Note_on_c, 4, 51, 96
6, 7168, Note_off_c, 4, 51, 0
6, 7168, Note_on_c, 4, 50, 96
6, 7680, Note_off_c, 4, 50, 0
6, 7680, Note_on_c, 4, 48, 96
6, 8192, Note_off_c, 4, 48, 0
6, 8192, Note_on_c, 4, 47, 96
6, 8704, Note_off_c, 4, 47, 0
6, 8704, Note_on_c, 4, 43, 96
6, 9216, Note_off_c, 4, 43, 0
6, 9216, Note_on_c, 4, 48, 96
6, 10240, Note_off_c, 4, 48, 0
6, 10240, Note_on_c, 4, 36, 96
6, 12032, Note_off_c, 4, 36, 0
6, 12288, Note_on_c, 4, 51, 96
6, 12800, Note_off_c, 4, 51, 0
6, 12800, Note_on_c, 4, 53, 96
6, 13312, Note_off_c, 4, 53, 0
6, 13312, Note_on_c, 4, 51, 96
6, 13824, Note_off_c, 4, 51, 0
6, 13824, Note_on_c, 4, 50, 96
6, 14336, Note_off_c, 4, 50, 0
6, 14336, Note_on_c, 4, 48, 96
6, 14848, Note_off_c, 4, 48, 0
6, 14848, Note_on_c, 4, 46, 96
6, 15360, Note_off_c, 4, 46, 0
6, 15360, Note_on_c, 4, 48, 96
6, 15872, Note_off_c, 4, 48, 0
6, 15872, Note_on_c, 4, 50, 96
6, 16384, Note_off_c, 4, 50, 0
6, 16384, Note_on_c, 4, 48, 96
6, 16896, Note_off_c, 4, 48, 0
6, 16896, Note_on_c, 4, 46, 96
6, 17408, Note_off_c, 4, 46, 0
6, 17408, Note_on_c, 4, 45, 96
6, 17920, Note_off_c, 4, 45, 0
6, 17920, Note_on_c, 4, 43, 96
6, 18432, Note_off_c, 4, 43, 0
6, 18432, Note_on_c, 4, 45, 96
6, 18944, Note_off_c, 4, 45, 0
6, 18944, Note_on_c, 4, 43, 96
6, 19456, Note_off_c, 4, 43, 0
6, 19456, Note_on_c, 4, 41, 96
6, 19968, Note_off_c, 4, 41, 0
6, 19968, Note_on_c, 4, 43, 96
6, 20480, Note_off_c, 4, 43, 0
6, 20480, Note_on_c, 4, 45, 96
6, 20992, Note_off_c, 4, 45, 0
6, 20992, Note_on_c, 4, 41, 96
6, 21504, Note_off_c, 4, 41, 0
6, 21504, Note_on_c, 4, 46, 96
6, 22528, Note_off_c, 4, 46, 0
6, 22528, Note_on_c, 4, 58, 96
6, 24320, Note_off_c, 4, 58, 0
6, 25088, Note_on_c, 4, 48, 96
6, 25600, Note_off_c, 4, 48, 0
6, 25600, Note_on_c, 4, 55, 96
6, 26112, Note_off_c, 4, 55, 0
6, 26112, Note_on_c, 4, 53, 96
6, 26624, Note_off_c, 4, 53, 0
6, 26624, Note_on_c, 4, 55, 96
6, 27648, Note_off_c, 4, 55, 0
6, 28160, Note_on_c, 4, 48, 96
6, 28672, Note_off_c, 4, 48, 0
6, 28672, Note_on_c, 4, 57, 96
6, 29184, Note_off_c, 4, 57, 0
6, 29184, Note_on_c, 4, 55, 96
6, 29696, Note_off_c, 4, 55, 0
6, 29696, Note_on_c, 4, 57, 96
6, 30720, Note_off_c, 4, 57, 0
6, 31232, Note_on_c, 4, 48, 96
6, 31744, Note_off_c, 4, 48, 0
6, 31744, Note_on_c, 4, 58, 96
6, 32256, Note_off_c, 4, 58, 0
6, 32256, Note_on_c, 4, 57, 96
6, 32768, Note_off_c, 4, 57, 0
6, 32768, Note_on_c, 4, 55, 96
6, 33280, Note_off_c, 4, 55, 0
6, 33280, Note_on_c, 4, 53, 96
6, 33792, Note_off_c, 4, 53, 0
6, 33792, Note_on_c, 4, 55, 96
6, 34304, Note_off_c, 4, 55, 0
6, 34304, Note_on_c, 4, 48, 96
6, 34816, Note_off_c, 4, 48, 0
6, 34816, Note_on_c, 4, 60, 96
6, 35328, Note_off_c, 4, 60, 0
6, 35328, Note_on_c, 4, 58, 96
6, 35840, Note_off_c, 4, 58, 0
6, 35840, Note_on_c, 4, 57, 96
6, 36352, Note_off_c, 4, 57, 0
6, 36352, Note_on_c, 4, 55, 96
6, 36864, Note_off_c, 4, 55, 0
6, 36864, Note_on_c, 4, 53, 96
6, 37376, Note_off_c, 4, 53, 0
6, 37376, Note_on_c, 4, 58, 96
6, 37632, Note_off_c, 4, 58, 0
6, 37632, Note_on_c, 4, 55, 96
6, 37888, Note_off_c, 4, 55, 0
6, 37888, Note_on_c, 4, 57, 96
6, 38400, Note_off_c, 4, 57, 0
6, 38400, Note_on_c, 4, 60, 96
6, 38912, Note_off_c, 4, 60, 0
6, 38912, Note_on_c, 4, 53, 96
6, 39424, Note_off_c, 4, 53, 0
6, 39424, Note_on_c, 4, 52, 96
6, 39936, Note_off_c, 4, 52, 0
6, 39936, Note_on_c, 4, 50, 96
6, 40448, Note_off_c, 4, 50, 0
6, 40448, Note_on_c, 4, 60, 96
6, 40704, Note_off_c, 4, 60, 0
6, 40704, Note_on_c, 4, 57, 96
6, 40960, Note_off_c, 4, 57, 0
6, 40960, Note_on_c, 4, 58, 96
6, 41472, Note_off_c, 4, 58, 0
6, 41472, Note_on_c, 4, 62, 96
6, 41984, Note_off_c, 4, 62, 0
6, 41984, Note_on_c, 4, 50, 96
6, 42496, Note_off_c, 4, 50, 0
6, 42496, Note_on_c, 4, 48, 96
6, 43008, Note_off_c, 4, 48, 0
6, 43008, Note_on_c, 4, 46, 96
6, 43520, Note_off_c, 4, 46, 0
6, 43520, Note_on_c, 4, 45, 96
6, 43776, Note_off_c, 4, 45, 0
6, 43776, Note_on_c, 4, 46, 96
6, 44032, Note_off_c, 4, 46, 0
6, 44032, Note_on_c, 4, 48, 96
6, 44544, Note_off_c, 4, 48, 0
6, 44544, Note_on_c, 4, 46, 96
6, 45056, Note_off_c, 4, 46, 0
6, 45056, Note_on_c, 4, 48, 96
6, 45568, Note_off_c, 4, 48, 0
6, 45568, Note_on_c, 4, 36, 96
6, 46080, Note_off_c, 4, 36, 0
6, 46080, Note_on_c, 4, 41, 96
6, 46592, Note_off_c, 4, 41, 0
6, 46592, Note_on_c, 4, 53, 96
6, 46848, Note_off_c, 4, 53, 0
6, 46848, Note_on_c, 4, 55, 96
6, 47104, Note_off_c, 4, 55, 0
6, 47104, Note_on_c, 4, 57, 96
6, 47616, Note_off_c, 4, 57, 0
6, 47616, Note_on_c, 4, 60, 96
6, 48128, Note_off_c, 4, 60, 0
6, 48128, Note_on_c, 4, 53, 96
6, 48640, Note_off_c, 4, 53, 0
6, 48640, Note_on_c, 4, 51, 96
6, 49152, Note_off_c, 4, 51, 0
6, 49152, Note_on_c, 4, 50, 96
6, 49664, Note_off_c, 4, 50, 0
6, 49664, Note_on_c, 4, 58, 96
6, 49920, Note_off_c, 4, 58, 0
6, 49920, Note_on_c, 4, 60, 96
6, 50176, Note_off_c, 4, 60, 0
6, 50176, Note_on_c, 4, 62, 96
6, 50688, Note_off_c, 4, 62, 0
6, 50688, Note_on_c, 4, 65, 96
6, 51200, Note_off_c, 4, 65, 0
6, 51200, Note_on_c, 4, 57, 96
6, 51712, Note_off_c, 4, 57, 0
6, 51712, Note_on_c, 4, 53, 96
6, 52224, Note_off_c, 4, 53, 0
6, 52224, Note_on_c, 4, 58, 96
6, 52736, Note_off_c, 4, 58, 0
6, 52736, Note_on_c, 4, 46, 96
6, 52992, Note_off_c, 4, 46, 0
6, 52992, Note_on_c, 4, 48, 96
6, 53248, Note_off_c, 4, 48, 0
6, 53248, Note_on_c, 4, 50, 96
6, 53760, Note_off_c, 4, 50, 0
6, 53760, Note_on_c, 4, 46, 96
6, 54272, Note_off_c, 4, 46, 0
6, 54272, Note_on_c, 4, 43, 96
6, 54784, Note_off_c, 4, 43, 0
6, 54784, Note_on_c, 4, 55, 96
6, 55296, Note_off_c, 4, 55, 0
6, 55296, Note_on_c, 4, 50, 96
6, 55808, Note_off_c, 4, 50, 0
6, 55808, Note_on_c, 4, 48, 96
6, 56064, Note_off_c, 4, 48, 0
6, 56064, Note_on_c, 4, 50, 96
6, 56320, Note_off_c, 4, 50, 0
6, 56320, Note_on_c, 4, 51, 96
6, 56832, Note_off_c, 4, 51, 0
6, 56832, Note_on_c, 4, 55, 96
6, 57344, Note_off_c, 4, 55, 0
6, 57344, Note_on_c, 4, 48, 96
6, 57856, Note_off_c, 4, 48, 0
6, 57856, Note_on_c, 4, 53, 96
6, 58368, Note_off_c, 4, 53, 0
6, 58368, Note_on_c, 4, 46, 96
6, 58880, Note_off_c, 4, 46, 0
6, 58880, Note_on_c, 4, 45, 96
6, 59392, Note_off_c, 4, 45, 0
6, 59392, Note_on_c, 4, 46, 96
6, 59904, Note_off_c, 4, 46, 0
6, 59904, Note_on_c, 4, 48, 96
6, 60416, Note_off_c, 4, 48, 0
6, 60416, Note_on_c, 4, 50, 96
6, 60928, Note_off_c, 4, 50, 0
6, 60928, Note_on_c, 4, 51, 96
6, 61440, Note_off_c, 4, 51, 0
6, 61440, Note_on_c, 4, 50, 96
6, 61952, Note_off_c, 4, 50, 0
6, 61952, Note_on_c, 4, 48, 96
6, 62464, Note_off_c, 4, 48, 0
6, 62464, Note_on_c, 4, 50, 96
6, 62976, Note_off_c, 4, 50, 0
6, 62976, Note_on_c, 4, 51, 96
6, 63488, Note_off_c, 4, 51, 0
6, 63488, Note_on_c, 4, 53, 96
6, 64000, Note_off_c, 4, 53, 0
6, 64000, Note_on_c, 4, 55, 96
6, 64512, Note_off_c, 4, 55, 0
6, 64512, Note_on_c, 4, 53, 96
6, 65024, Note_off_c, 4, 53, 0
6, 65024, Note_on_c, 4, 51, 96
6, 65536, Note_off_c, 4, 51, 0
6, 65536, Note_on_c, 4, 50, 96
6, 66048, Note_off_c, 4, 50, 0
6, 66048, Note_on_c, 4, 48, 96
6, 66560, Note_off_c, 4, 48, 0
6, 66560, Note_on_c, 4, 47, 96
6, 67072, Note_off_c, 4, 47, 0
6, 67072, Note_on_c, 4, 43, 96
6, 67584, Note_off_c, 4, 43, 0
6, 67584, Note_on_c, 4, 48, 96
6, 68096, Note_off_c, 4, 48, 0
6, 68096, Note_on_c, 4, 36, 96
6, 68608, Note_off_c, 4, 36, 0
6, 68608, Note_on_c, 4, 48, 96
6, 69120, Note_off_c, 4, 48, 0
6, 69120, Note_on_c, 4, 50, 96
6, 69632, Note_off_c, 4, 50, 0
6, 69632, Note_on_c, 4, 51, 96
6, 70144, Note_off_c, 4, 51, 0
6, 70144, Note_on_c, 4, 48, 96
6, 70656, Note_off_c, 4, 48, 0
6, 70656, Note_on_c, 4, 45, 96
6, 71168, Note_off_c, 4, 45, 0
6, 71168, Note_on_c, 4, 57, 96
6, 71424, Note_off_c, 4, 57, 0
6, 71424, Note_on_c, 4, 55, 96
6, 71680, Note_off_c, 4, 55, 0
6, 71680, Note_on_c, 4, 57, 96
6, 72192, Note_off_c, 4, 57, 0
6, 72192, Note_on_c, 4, 60, 96
6, 72704, Note_off_c, 4, 60, 0
6, 72704, Note_on_c, 4, 53, 96
6, 73216, Note_off_c, 4, 53, 0
6, 73216, Note_on_c, 4, 57, 96
6, 73728, Note_off_c, 4, 57, 0
6, 73728, Note_on_c, 4, 46, 96
6, 74240, Note_off_c, 4, 46, 0
6, 74240, Note_on_c, 4, 58, 96
6, 74496, Note_off_c, 4, 58, 0
6, 74496, Note_on_c, 4, 57, 96
6, 74752, Note_off_c, 4, 57, 0
6, 74752, Note_on_c, 4, 58, 96
6, 75264, Note_off_c, 4, 58, 0
6, 75264, Note_on_c, 4, 62, 96
6, 75776, Note_off_c, 4, 62, 0
6, 75776, Note_on_c, 4, 55, 96
6, 76288, Note_off_c, 4, 55, 0
6, 76288, Note_on_c, 4, 53, 96
6, 76544, Note_off_c, 4, 53, 0
6, 76544, Note_on_c, 4, 51, 96
6, 76800, Note_off_c, 4, 51, 0
6, 76800, Note_on_c, 4, 53, 96
6, 77312, Note_off_c, 4, 53, 0
6, 77312, Note_on_c, 4, 58, 96
6, 77824, Note_off_c, 4, 58, 0
6, 77824, Note_on_c, 4, 51, 96
6, 78336, Note_off_c, 4, 51, 0
6, 78336, Note_on_c, 4, 50, 96
6, 78592, Note_off_c, 4, 50, 0
6, 78592, Note_on_c, 4, 48, 96
6, 78848, Note_off_c, 4, 48, 0
6, 78848, Note_on_c, 4, 53, 96
6, 79360, Note_off_c, 4, 53, 0
6, 79360, Note_on_c, 4, 41, 96
6, 79872, Note_off_c, 4, 41, 0
6, 79872, Note_on_c, 4, 46, 96
6, 80384, Note_off_c, 4, 46, 0
6, 80384, Note_on_c, 4, 45, 96
6, 80896, Note_off_c, 4, 45, 0
6, 80896, Note_on_c, 4, 46, 96
6, 81408, Note_off_c, 4, 46, 0
6, 81408, Note_on_c, 4, 48, 96
6, 81920, Note_off_c, 4, 48, 0
6, 81920, Note_on_c, 4, 50, 96
6, 82432, Note_off_c, 4, 50, 0
6, 82432, Note_on_c, 4, 51, 96
6, 82944, Note_off_c, 4, 51, 0
6, 82944, Note_on_c, 4, 50, 96
6, 83456, Note_off_c, 4, 50, 0
6, 83456, Note_on_c, 4, 48, 96
6, 83968, Note_off_c, 4, 48, 0
6, 83968, Note_on_c, 4, 50, 96
6, 84480, Note_off_c, 4, 50, 0
6, 84480, Note_on_c, 4, 51, 96
6, 84992, Note_off_c, 4, 51, 0
6, 84992, Note_on_c, 4, 53, 96
6, 85504, Note_off_c, 4, 53, 0
6, 85504, Note_on_c, 4, 55, 96
6, 86016, Note_off_c, 4, 55, 0
6, 86016, Note_on_c, 4, 53, 96
6, 86528, Note_off_c, 4, 53, 0
6, 86528, Note_on_c, 4, 51, 96
6, 87040, Note_off_c, 4, 51, 0
6, 87040, Note_on_c, 4, 50, 96
6, 87552, Note_off_c, 4, 50, 0
6, 87552, Note_on_c, 4, 48, 96
6, 88064, Note_off_c, 4, 48, 0
6, 88064, Note_on_c, 4, 47, 96
6, 88576, Note_off_c, 4, 47, 0
6, 88576, Note_on_c, 4, 43, 96
6, 89088, Note_off_c, 4, 43, 0
6, 89088, Note_on_c, 4, 48, 96
6, 90112, Note_off_c, 4, 48, 0
6, 90112, Note_on_c, 4, 36, 96
6, 91904, Note_off_c, 4, 36, 0
6, 92160, Note_on_c, 4, 51, 96
6, 92672, Note_off_c, 4, 51, 0
6, 92672, Note_on_c, 4, 53, 96
6, 93184, Note_off_c, 4, 53, 0
6, 93184, Note_on_c, 4, 51, 96
6, 93696, Note_off_c, 4, 51, 0
6, 93696, Note_on_c, 4, 50, 96
6, 94208, Note_off_c, 4, 50, 0
6, 94208, Note_on_c, 4, 48, 96
6, 94720, Note_off_c, 4, 48, 0
6, 94720, Note_on_c, 4, 46, 96
6, 95232, Note_off_c, 4, 46, 0
6, 95232, Note_on_c, 4, 48, 96
6, 95744, Note_off_c, 4, 48, 0
6, 95744, Note_on_c, 4, 50, 96
6, 96256, Note_off_c, 4, 50, 0
6, 96256, Note_on_c, 4, 48, 96
6, 96768, Note_off_c, 4, 48, 0
6, 96768, Note_on_c, 4, 46, 96
6, 97280, Note_off_c, 4, 46, 0
6, 97280, Note_on_c, 4, 45, 96
6, 97792, Note_off_c, 4, 45, 0
6, 97792, Note_on_c, 4, 43, 96
6, 98304, Note_off_c, 4, 43, 0
6, 98304, Note_on_c, 4, 45, 96
6, 98816, Note_off_c, 4, 45, 0
6, 98816, Note_on_c, 4, 43, 96
6, 99328, Note_off_c, 4, 43, 0
6, 99328, Note_on_c, 4, 41, 96
6, 99840, Note_off_c, 4, 41, 0
6, 99840, Note_on_c, 4, 43, 96
6, 100352, Note_off_c, 4, 43, 0
6, 100352, Note_on_c, 4, 45, 96
6, 100864, Note_off_c, 4, 45, 0
6, 100864, Note_on_c, 4, 41, 96
6, 101376, Note_off_c, 4, 41, 0
6, 101376, Note_on_c, 4, 46, 96
6, 102400, Note_off_c, 4, 46, 0
6, 102400, Note_on_c, 4, 58, 96
6, 104192, Note_off_c, 4, 58, 0
6, 104960, Note_on_c, 4, 48, 96
6, 105472, Note_off_c, 4, 48, 0
6, 105472, Note_on_c, 4, 55, 96
6, 105984, Note_off_c, 4, 55, 0
6, 105984, Note_on_c, 4, 53, 96
6, 106496, Note_off_c, 4, 53, 0
6, 106496, Note_on_c, 4, 55, 96
6, 107520, Note_off_c, 4, 55, 0
6, 108032, Note_on_c, 4, 48, 96
6, 108544, Note_off_c, 4, 48, 0
6, 108544, Note_on_c, 4, 57, 96
6, 109056, Note_off_c, 4, 57, 0
6, 109056, Note_on_c, 4, 55, 96
6, 109568, Note_off_c, 4, 55, 0
6, 109568, Note_on_c, 4, 57, 96
6, 110592, Note_off_c, 4, 57, 0
6, 111104, Note_on_c, 4, 48, 96
6, 111616, Note_off_c, 4, 48, 0
6, 111616, Note_on_c, 4, 58, 96
6, 112128, Note_off_c, 4, 58, 0
6, 112128, Note_on_c, 4, 57, 96
6, 112640, Note_off_c, 4, 57, 0
6, 112640, Note_on_c, 4, 55, 96
6, 113152, Note_off_c, 4, 55, 0
6, 113152, Note_on_c, 4, 53, 96
6, 113664, Note_off_c, 4, 53, 0
6, 113664, Note_on_c, 4, 55, 96
6, 114176, Note_off_c, 4, 55, 0
6, 114176, Note_on_c, 4, 48, 96
6, 114688, Note_off_c, 4, 48, 0
6, 114688, Note_on_c, 4, 60, 96
6, 115200, Note_off_c, 4, 60, 0
6, 115200, Note_on_c, 4, 58, 96
6, 115712, Note_off_c, 4, 58, 0
6, 115712, Note_on_c, 4, 57, 96
6, 116224, Note_off_c, 4, 57, 0
6, 116224, Note_on_c, 4, 55, 96
6, 116736, Note_off_c, 4, 55, 0
6, 116736, Note_on_c, 4, 53, 96
6, 117248, Note_off_c, 4, 53, 0
6, 117248, Note_on_c, 4, 58, 96
6, 117504, Note_off_c, 4, 58, 0
6, 117504, Note_on_c, 4, 55, 96
6, 117760, Note_off_c, 4, 55, 0
6, 117760, Note_on_c, 4, 57, 96
6, 118272, Note_off_c, 4, 57, 0
6, 118272, Note_on_c, 4, 60, 96
6, 118784, Note_off_c, 4, 60, 0
6, 118784, Note_on_c, 4, 53, 96
6, 119296, Note_off_c, 4, 53, 0
6, 119296, Note_on_c, 4, 52, 96
6, 119808, Note_off_c, 4, 52, 0
6, 119808, Note_on_c, 4, 50, 96
6, 120320, Note_off_c, 4, 50, 0
6, 120320, Note_on_c, 4, 60, 96
6, 120576, Note_off_c, 4, 60, 0
6, 120576, Note_on_c, 4, 57, 96
6, 120832, Note_off_c, 4, 57, 0
6, 120832, Note_on_c, 4, 58, 96
6, 121344, Note_off_c, 4, 58, 0
6, 121344, Note_on_c, 4, 62, 96
6, 121856, Note_off_c, 4, 62, 0
6, 121856, Note_on_c, 4, 50, 96
6, 122368, Note_off_c, 4, 50, 0
6, 122368, Note_on_c, 4, 48, 96
6, 122880, Note_off_c, 4, 48, 0
6, 122880, Note_on_c, 4, 46, 96
6, 123392, Note_off_c, 4, 46, 0
6, 123392, Note_on_c, 4, 45, 96
6, 123648, Note_off_c, 4, 45, 0
6, 123648, Note_on_c, 4, 46, 96
6, 123904, Note_off_c, 4, 46, 0
6, 123904, Note_on_c, 4, 48, 96
6, 124416, Note_off_c, 4, 48, 0
6, 124416, Note_on_c, 4, 46, 96
6, 124928, Note_off_c, 4, 46, 0
6, 124928, Note_on_c, 4, 48, 96
6, 125440, Note_off_c, 4, 48, 0
6, 125440, Note_on_c, 4, 36, 96
6, 125952, Note_off_c, 4, 36, 0
6, 125952, Note_on_c, 4, 41, 96
6, 126464, Note_off_c, 4, 41, 0
6, 126464, Note_on_c, 4, 53, 96
6, 126720, Note_off_c, 4, 53, 0
6, 126720, Note_on_c, 4, 55, 96
6, 126976, Note_off_c, 4, 55, 0
6, 126976, Note_on_c, 4, 57, 96
6, 127488, Note_off_c, 4, 57, 0
6, 127488, Note_on_c, 4, 60, 96
6, 128000, Note_off_c, 4, 60, 0
6, 128000, Note_on_c, 4, 53, 96
6, 128512, Note_off_c, 4, 53, 0
6, 128512, Note_on_c, 4, 51, 96
6, 129024, Note_off_c, 4, 51, 0
6, 129024, Note_on_c, 4, 50, 96
6, 129536, Note_off_c, 4, 50, 0
6, 129536, Note_on_c, 4, 58, 96
6, 129792, Note_off_c, 4, 58, 0
6, 129792, Note_on_c, 4, 60, 96
6, 130048, Note_off_c, 4, 60, 0
6, 130048, Note_on_c, 4, 62, 96
6, 130560, Note_off_c, 4, 62, 0
6, 130560, Note_on_c, 4, 65, 96
6, 131072, Note_off_c, 4, 65, 0
6, 131072, Note_on_c, 4, 57, 96
6, 131584, Note_off_c, 4, 57, 0
6, 131584, Note_on_c, 4, 53, 96
6, 132096, Note_off_c, 4, 53, 0
6, 132096, Note_on_c, 4, 58, 96
6, 132608, Note_off_c, 4, 58, 0
6, 132608, Note_on_c, 4, 46, 96
6, 132864, Note_off_c, 4, 46, 0
6, 132864, Note_on_c, 4, 48, 96
6, 133120, Note_off_c, 4, 48, 0
6, 133120, Note_on_c, 4, 50, 96
6, 133632, Note_off_c, 4, 50, 0
6, 133632, Note_on_c, 4, 46, 96
6, 134144, Note_off_c, 4, 46, 0
6, 134144, Note_on_c, 4, 43, 96
6, 134656, Note_off_c, 4, 43, 0
6, 134656, Note_on_c, 4, 55, 96
6, 135168, Note_off_c, 4, 55, 0
6, 135168, Note_on_c, 4, 50, 96
6, 135680, Note_off_c, 4, 50, 0
6, 135680, Note_on_c, 4, 48, 96
6, 135936, Note_off_c, 4, 48, 0
6, 135936, Note_on_c, 4, 50, 96
6, 136192, Note_off_c, 4, 50, 0
6, 136192, Note_on_c, 4, 51, 96
6, 136704, Note_off_c, 4, 51, 0
6, 136704, Note_on_c, 4, 55, 96
6, 137216, Note_off_c, 4, 55, 0
6, 137216, Note_on_c, 4, 48, 96
6, 137728, Note_off_c, 4, 48, 0
6, 137728, Note_on_c, 4, 53, 96
6, 138240, Note_off_c, 4, 53, 0
6, 138240, Note_on_c, 4, 46, 96
6, 138752, Note_off_c, 4, 46, 0
6, 138752, Note_on_c, 4, 45, 96
6, 139264, Note_off_c, 4, 45, 0
6, 139264, Note_on_c, 4, 46, 96
6, 139776, Note_off_c, 4, 46, 0
6, 139776, Note_on_c, 4, 48, 96
6, 140288, Note_off_c, 4, 48, 0
6, 140288, Note_on_c, 4, 50, 96
6, 140800, Note_off_c, 4, 50, 0
6, 140800, Note_on_c, 4, 51, 96
6, 141312, Note_off_c, 4, 51, 0
6, 141312, Note_on_c, 4, 50, 96
6, 141824, Note_off_c, 4, 50, 0
6, 141824, Note_on_c, 4, 48, 96
6, 142336, Note_off_c, 4, 48, 0
6, 142336, Note_on_c, 4, 50, 96
6, 142848, Note_off_c, 4, 50, 0
6, 142848, Note_on_c, 4, 51, 96
6, 143360, Note_off_c, 4, 51, 0
6, 143360, Note_on_c, 4, 53, 96
6, 143872, Note_off_c, 4, 53, 0
6, 143872, Note_on_c, 4, 55, 96
6, 144384, Note_off_c, 4, 55, 0
6, 144384, Note_on_c, 4, 53, 96
6, 144896, Note_off_c, 4, 53, 0
6, 144896, Note_on_c, 4, 51, 96
6, 145408, Note_off_c, 4, 51, 0
6, 145408, Note_on_c, 4, 50, 96
6, 145920, Note_off_c, 4, 50, 0
6, 145920, Note_on_c, 4, 48, 96
6, 146432, Note_off_c, 4, 48, 0
6, 146432, Note_on_c, 4, 47, 96
6, 146944, Note_off_c, 4, 47, 0
6, 146944, Note_on_c, 4, 43, 96
6, 147456, Note_off_c, 4, 43, 0
6, 147456, Note_on_c, 4, 48, 96
6, 147968, Note_off_c, 4, 48, 0
6, 147968, Note_on_c, 4, 36, 96
6, 148480, Note_off_c, 4, 36, 0
6, 148480, Note_on_c, 4, 48, 96
6, 148992, Note_off_c, 4, 48, 0
6, 148992, Note_on_c, 4, 50, 96
6, 149504, Note_off_c, 4, 50, 0
6, 149504, Note_on_c, 4, 51, 96
6, 150016, Note_off_c, 4, 51, 0
6, 150016, Note_on_c, 4, 48, 96
6, 150528, Note_off_c, 4, 48, 0
6, 150528, Note_on_c, 4, 45, 96
6, 151040, Note_off_c, 4, 45, 0
6, 151040, Note_on_c, 4, 57, 96
6, 151296, Note_off_c, 4, 57, 0
6, 151296, Note_on_c, 4, 55, 96
6, 151552, Note_off_c, 4, 55, 0
6, 151552, Note_on_c, 4, 57, 96
6, 152064, Note_off_c, 4, 57, 0
6, 152064, Note_on_c, 4, 60, 96
6, 152576, Note_off_c, 4, 60, 0
6, 152576, Note_on_c, 4, 53, 96
6, 153088, Note_off_c, 4, 53, 0
6, 153088, Note_on_c, 4, 57, 96
6, 153600, Note_off_c, 4, 57, 0
6, 153600, Note_on_c, 4, 46, 96
6, 154112, Note_off_c, 4, 46, 0
6, 154112, Note_on_c, 4, 58, 96
6, 154368, Note_off_c, 4, 58, 0
6, 154368, Note_on_c, 4, 57, 96
6, 154624, Note_off_c, 4, 57, 0
6, 154624, Note_on_c, 4, 58, 96
6, 155136, Note_off_c, 4, 58, 0
6, 155136, Note_on_c, 4, 62, 96
6, 155648, Note_off_c, 4, 62, 0
6, 155648, Note_on_c, 4, 55, 96
6, 156160, Note_off_c, 4, 55, 0
6, 156160, Note_on_c, 4, 53, 96
6, 156416, Note_off_c, 4, 53, 0
6, 156416, Note_on_c, 4, 51, 96
6, 156672, Note_off_c, 4, 51, 0
6, 156672, Note_on_c, 4, 53, 96
6, 157184, Note_off_c, 4, 53, 0
6, 157184, Note_on_c, 4, 58, 96
6, 157696, Note_off_c, 4, 58, 0
6, 157696, Note_on_c, 4, 51, 96
6, 158208, Note_off_c, 4, 51, 0
6, 158208, Note_on_c, 4, 50, 96
6, 158464, Note_off_c, 4, 50, 0
6, 158464, Note_on_c, 4, 48, 96
6, 158720, Note_off_c, 4, 48, 0
6, 158720, Note_on_c, 4, 53, 96
6, 159232, Note_off_c, 4, 53, 0
6, 159232, Note_on_c, 4, 41, 96
6, 159744, Note_off_c, 4, 41, 0
6, 159744, Note_on_c, 4, 46, 96
6, 160256, Note_off_c, 4, 46, 0
6, 160256, Note_on_c, 4, 58, 96
6, 160768, Note_off_c, 4, 58, 0
6, 160768, Note_on_c, 4, 56, 96
6, 161280, Note_off_c, 4, 56, 0
6, 161280, Note_on_c, 4, 55, 96
6, 161792, Note_off_c, 4, 55, 0
6, 161792, Note_on_c, 4, 53, 96
6, 162304, Note_off_c, 4, 53, 0
6, 162304, Note_on_c, 4, 51, 96
6, 162816, Note_off_c, 4, 51, 0
6, 162816, Note_on_c, 4, 53, 96
6, 163328, Note_off_c, 4, 53, 0
6, 163328, Note_on_c, 4, 55, 96
6, 163840, Note_off_c, 4, 55, 0
6, 163840, Note_on_c, 4, 53, 96
6, 164352, Note_off_c, 4, 53, 0
6, 164352, Note_on_c, 4, 51, 96
6, 164864, Note_off_c, 4, 51, 0
6, 164864, Note_on_c, 4, 50, 96
6, 165376, Note_off_c, 4, 50, 0
6, 165376, Note_on_c, 4, 48, 96
6, 165888, Note_off_c, 4, 48, 0
6, 165888, Note_on_c, 4, 50, 96
6, 166400, Note_off_c, 4, 50, 0
6, 166400, Note_on_c, 4, 48, 96
6, 166912, Note_off_c, 4, 48, 0
6, 166912, Note_on_c, 4, 46, 96
6, 167424, Note_off_c, 4, 46, 0
6, 167424, Note_on_c, 4, 48, 96
6, 167936, Note_off_c, 4, 48, 0
6, 167936, Note_on_c, 4, 50, 96
6, 168448, Note_off_c, 4, 50, 0
6, 168448, Note_on_c, 4, 46, 96
6, 168960, Note_off_c, 4, 46, 0
6, 168960, Note_on_c, 4, 51, 96
6, 169984, Note_off_c, 4, 51, 0
6, 169984, Note_on_c, 4, 39, 96
6, 171776, Note_off_c, 4, 39, 0
6, 172544, Note_on_c, 4, 41, 96
6, 173056, Note_off_c, 4, 41, 0
6, 173056, Note_on_c, 4, 48, 96
6, 173568, Note_off_c, 4, 48, 0
6, 173568, Note_on_c, 4, 46, 96
6, 174080, Note_off_c, 4, 46, 0
6, 174080, Note_on_c, 4, 48, 96
6, 175104, Note_off_c, 4, 48, 0
6, 175616, Note_on_c, 4, 41, 96
6, 176128, Note_off_c, 4, 41, 0
6, 176128, Note_on_c, 4, 50, 96
6, 176640, Note_off_c, 4, 50, 0
6, 176640, Note_on_c, 4, 48, 96
6, 177152, Note_off_c, 4, 48, 0
6, 177152, Note_on_c, 4, 50, 96
6, 178176, Note_off_c, 4, 50, 0
6, 178688, Note_on_c, 4, 41, 96
6, 179200, Note_off_c, 4, 41, 0
6, 179200, Note_on_c, 4, 51, 96
6, 179712, Note_off_c, 4, 51, 0
6, 179712, Note_on_c, 4, 50, 96
6, 180224, Note_off_c, 4, 50, 0
6, 180224, Note_on_c, 4, 48, 96
6, 180736, Note_off_c, 4, 48, 0
6, 180736, Note_on_c, 4, 46, 96
6, 181248, Note_off_c, 4, 46, 0
6, 181248, Note_on_c, 4, 48, 96
6, 181760, Note_off_c, 4, 48, 0
6, 181760, Note_on_c, 4, 41, 96
6, 182272, Note_off_c, 4, 41, 0
6, 182272, Note_on_c, 4, 53, 96
6, 182784, Note_off_c, 4, 53, 0
6, 182784, Note_on_c, 4, 51, 96
6, 183296, Note_off_c, 4, 51, 0
6, 183296, Note_on_c, 4, 50, 96
6, 183808, Note_off_c, 4, 50, 0
6, 183808, Note_on_c, 4, 48, 96
6, 184320, Note_off_c, 4, 48, 0
6, 184320, Note_on_c, 4, 46, 96
6, 184832, Note_off_c, 4, 46, 0
6, 184832, Note_on_c, 4, 51, 96
6, 185088, Note_off_c, 4, 51, 0
6, 185088, Note_on_c, 4, 48, 96
6, 185344, Note_off_c, 4, 48, 0
6, 185344, Note_on_c, 4, 50, 96
6, 185856, Note_off_c, 4, 50, 0
6, 185856, Note_on_c, 4, 53, 96
6, 186368, Note_off_c, 4, 53, 0
6, 186368, Note_on_c, 4, 46, 96
6, 186880, Note_off_c, 4, 46, 0
6, 186880, Note_on_c, 4, 45, 96
6, 187392, Note_off_c, 4, 45, 0
6, 187392, Note_on_c, 4, 43, 96
6, 187904, Note_off_c, 4, 43, 0
6, 187904, Note_on_c, 4, 53, 96
6, 188160, Note_off_c, 4, 53, 0
6, 188160, Note_on_c, 4, 50, 96
6, 188416, Note_off_c, 4, 50, 0
6, 188416, Note_on_c, 4, 51, 96
6, 188928, Note_off_c, 4, 51, 0
6, 188928, Note_on_c, 4, 55, 96
6, 189440, Note_off_c, 4, 55, 0
6, 189440, Note_on_c, 4, 43, 96
6, 189952, Note_off_c, 4, 43, 0
6, 189952, Note_on_c, 4, 41, 96
6, 190464, Note_off_c, 4, 41, 0
6, 190464, Note_on_c, 4, 39, 96
6, 190976, Note_off_c, 4, 39, 0
6, 190976, Note_on_c, 4, 38, 96
6, 191232, Note_off_c, 4, 38, 0
6, 191232, Note_on_c, 4, 39, 96
6, 191488, Note_off_c, 4, 39, 0
6, 191488, Note_on_c, 4, 41, 96
6, 192000, Note_off_c, 4, 41, 0
6, 192000, Note_on_c, 4, 39, 96
6, 192512, Note_off_c, 4, 39, 0
6, 192512, Note_on_c, 4, 41, 96
6, 193024, Note_off_c, 4, 41, 0
6, 193024, Note_on_c, 4, 41, 96
6, 193536, Note_off_c, 4, 41, 0
6, 193536, Note_on_c, 4, 46, 96
6, 194048, Note_off_c, 4, 46, 0
6, 194048, Note_on_c, 4, 58, 96
6, 194304, Note_off_c, 4, 58, 0
6, 194304, Note_on_c, 4, 60, 96
6, 194560, Note_off_c, 4, 60, 0
6, 194560, Note_on_c, 4, 62, 96
6, 195072, Note_off_c, 4, 62, 0
6, 195072, Note_on_c, 4, 65, 96
6, 195584, Note_off_c, 4, 65, 0
6, 195584, Note_on_c, 4, 58, 96
6, 196096, Note_off_c, 4, 58, 0
6, 196096, Note_on_c, 4, 62, 96
6, 196608, Note_off_c, 4, 62, 0
6, 196608, Note_on_c, 4, 63, 96
6, 197120, Note_off_c, 4, 63, 0
6, 197120, Note_on_c, 4, 51, 96
6, 197376, Note_off_c, 4, 51, 0
6, 197376, Note_on_c, 4, 50, 96
6, 197632, Note_off_c, 4, 50, 0
6, 197632, Note_on_c, 4, 51, 96
6, 198144, Note_off_c, 4, 51, 0
6, 198144, Note_on_c, 4, 55, 96
6, 198656, Note_off_c, 4, 55, 0
6, 198656, Note_on_c, 4, 48, 96
6, 199168, Note_off_c, 4, 48, 0
6, 199168, Note_on_c, 4, 51, 96
6, 199680, Note_off_c, 4, 51, 0
6, 199680, Note_on_c, 4, 53, 96
6, 200192, Note_off_c, 4, 53, 0
6, 200192, Note_on_c, 4, 58, 96
6, 200448, Note_off_c, 4, 58, 0
6, 200448, Note_on_c, 4, 55, 96
6, 200704, Note_off_c, 4, 55, 0
6, 200704, Note_on_c, 4, 57, 96
6, 201216, Note_off_c, 4, 57, 0
6, 201216, Note_on_c, 4, 60, 96
6, 201728, Note_off_c, 4, 60, 0
6, 201728, Note_on_c, 4, 53, 96
6, 202240, Note_off_c, 4, 53, 0
6, 202240, Note_on_c, 4, 51, 96
6, 202752, Note_off_c, 4, 51, 0
6, 202752, Note_on_c, 4, 50, 96
6, 203264, Note_off_c, 4, 50, 0
6, 203264, Note_on_c, 4, 60, 96
6, 203520, Note_off_c, 4, 60, 0
6, 203520, Note_on_c, 4, 57, 96
6, 203776, Note_off_c, 4, 57, 0
6, 203776, Note_on_c, 4, 58, 96
6, 204288, Note_off_c, 4, 58, 0
6, 204288, Note_on_c, 4, 62, 96
6, 204800, Note_off_c, 4, 62, 0
6, 204800, Note_on_c, 4, 48, 96
6, 205312, Note_off_c, 4, 48, 0
6, 205312, Note_on_c, 4, 46, 96
6, 205824, Note_off_c, 4, 46, 0
6, 205824, Note_on_c, 4, 45, 96
6, 206336, Note_off_c, 4, 45, 0
6, 206336, Note_on_c, 4, 62, 96
6, 206592, Note_off_c, 4, 62, 0
6, 206592, Note_on_c, 4, 58, 96
6, 206848, Note_off_c, 4, 58, 0
6, 206848, Note_on_c, 4, 60, 96
6, 207360, Note_off_c, 4, 60, 0
6, 207360, Note_on_c, 4, 63, 96
6, 207872, Note_off_c, 4, 63, 0
6, 207872, Note_on_c, 4, 57, 96
6, 208384, Note_off_c, 4, 57, 0
6, 208384, Note_on_c, 4, 60, 96
6, 208896, Note_off_c, 4, 60, 0
6, 208896, Note_on_c, 4, 62, 96
6, 209408, Note_off_c, 4, 62, 0
6, 209408, Note_on_c, 4, 50, 96
6, 209664, Note_off_c, 4, 50, 0
6, 209664, Note_on_c, 4, 48, 96
6, 209920, Note_off_c, 4, 48, 0
6, 209920, Note_on_c, 4, 50, 96
6, 210432, Note_off_c, 4, 50, 0
6, 210432, Note_on_c, 4, 53, 96
6, 210944, Note_off_c, 4, 53, 0
6, 210944, Note_on_c, 4, 46, 96
6, 211456, Note_off_c, 4, 46, 0
6, 211456, Note_on_c, 4, 50, 96
6, 211968, Note_off_c, 4, 50, 0
6, 211968, Note_on_c, 4, 51, 96
6, 212480, Note_off_c, 4, 51, 0
6, 212480, Note_on_c, 4, 39, 96
6, 212736, Note_off_c, 4, 39, 0
6, 212736, Note_on_c, 4, 41, 96
6, 212992, Note_off_c, 4, 41, 0
6, 212992, Note_on_c, 4, 43, 96
6, 213504, Note_off_c, 4, 43, 0
6, 213504, Note_on_c, 4, 46, 96
6, 214016, Note_off_c, 4, 46, 0
6, 214016, Note_on_c, 4, 48, 96
6, 214528, Note_off_c, 4, 48, 0
6, 214528, Note_on_c, 4, 51, 96
6, 215040, Note_off_c, 4, 51, 0
6, 215040, Note_on_c, 4, 50, 96
6, 215552, Note_off_c, 4, 50, 0
6, 215552, Note_on_c, 4, 38, 96
6, 215808, Note_off_c, 4, 38, 0
6, 215808, Note_on_c, 4, 40, 96
6, 216064, Note_off_c, 4, 40, 0
6, 216064, Note_on_c, 4, 42, 96
6, 216576, Note_off_c, 4, 42, 0
6, 216576, Note_on_c, 4, 45, 96
6, 217088, Note_off_c, 4, 45, 0
6, 217088, Note_on_c, 4, 47, 96
6, 217600, Note_off_c, 4, 47, 0
6, 217600, Note_on_c, 4, 50, 96
6, 218112, Note_off_c, 4, 50, 0
6, 218112, Note_on_c, 4, 48, 96
6, 218624, Note_off_c, 4, 48, 0
6, 218624, Note_on_c, 4, 36, 96
6, 218880, Note_off_c, 4, 36, 0
6, 218880, Note_on_c, 4, 38, 96
6, 219136, Note_off_c, 4, 38, 0
6, 219136, Note_on_c, 4, 39, 96
6, 219648, Note_off_c, 4, 39, 0
6, 219648, Note_on_c, 4, 43, 96
6, 220160, Note_off_c, 4, 43, 0
6, 220160, Note_on_c, 4, 45, 96
6, 220672, Note_off_c, 4, 45, 0
6, 220672, Note_on_c, 4, 48, 96
6, 221184, Note_off_c, 4, 48, 0
6, 221184, Note_on_c, 4, 46, 96
6, 221696, Note_off_c, 4, 46, 0
6, 221696, Note_on_c, 4, 58, 96
6, 221952, Note_off_c, 4, 58, 0
6, 221952, Note_on_c, 4, 57, 96
6, 222208, Note_off_c, 4, 57, 0
6, 222208, Note_on_c, 4, 58, 96
6, 222720, Note_off_c, 4, 58, 0
6, 222720, Note_on_c, 4, 62, 96
6, 223232, Note_off_c, 4, 62, 0
6, 223232, Note_on_c, 4, 55, 96
6, 223744, Note_off_c, 4, 55, 0
6, 223744, Note_on_c, 4, 58, 96
6, 224256, Note_off_c, 4, 58, 0
6, 224256, Note_on_c, 4, 52, 96
6, 224768, Note_off_c, 4, 52, 0
6, 224768, Note_on_c, 4, 52, 96
6, 225024, Note_off_c, 4, 52, 0
6, 225024, Note_on_c, 4, 50, 96
6, 225280, Note_off_c, 4, 50, 0
6, 225280, Note_on_c, 4, 52, 96
6, 225792, Note_off_c, 4, 52, 0
6, 225792, Note_on_c, 4, 55, 96
6, 226304, Note_off_c, 4, 55, 0
6, 226304, Note_on_c, 4, 48, 96
6, 226816, Note_off_c, 4, 48, 0
6, 226816, Note_on_c, 4, 52, 96
6, 227328, Note_off_c, 4, 52, 0
6, 227328, Note_on_c, 4, 41, 96
6, 227840, Note_off_c, 4, 41, 0
6, 227840, Note_on_c, 4, 53, 96
6, 228096, Note_off_c, 4, 53, 0
6, 228096, Note_on_c, 4, 52, 96
6, 228352, Note_off_c, 4, 52, 0
6, 228352, Note_on_c, 4, 53, 96
6, 228864, Note_off_c, 4, 53, 0
6, 228864, Note_on_c, 4, 57, 96
6, 229376, Note_off_c, 4, 57, 0
6, 229376, Note_on_c, 4, 50, 96
6, 229888, Note_off_c, 4, 50, 0
6, 229888, Note_on_c, 4, 53, 96
6, 230400, Note_off_c, 4, 53, 0
6, 230400, Note_on_c, 4, 46, 96
6, 230912, Note_off_c, 4, 46, 0
6, 230912, Note_on_c, 4, 48, 96
6, 231168, Note_off_c, 4, 48, 0
6, 231168, Note_on_c, 4, 50, 96
6, 231424, Note_off_c, 4, 50, 0
6, 231424, Note_on_c, 4, 48, 96
6, 231936, Note_off_c, 4, 48, 0
6, 231936, Note_on_c, 4, 45, 96
6, 232448, Note_off_c, 4, 45, 0
6, 232448, Note_on_c, 4, 46, 96
6, 232960, Note_off_c, 4, 46, 0
6, 232960, Note_on_c, 4, 48, 96
6, 233472, Note_off_c, 4, 48, 0
6, 233472, Note_on_c, 4, 41, 96
6, 233984, Note_off_c, 4, 41, 0
6, 233984, Note_on_c, 4, 40, 96
6, 234496, Note_off_c, 4, 40, 0
6, 234496, Note_on_c, 4, 41, 96
6, 235008, Note_off_c, 4, 41, 0
6, 235008, Note_on_c, 4, 43, 96
6, 235520, Note_off_c, 4, 43, 0
6, 235520, Note_on_c, 4, 45, 96
6, 236032, Note_off_c, 4, 45, 0
6, 236032, Note_on_c, 4, 46, 96
6, 236544, Note_off_c, 4, 46, 0
6, 236544, Note_on_c, 4, 45, 96
6, 237056, Note_off_c, 4, 45, 0
6, 237056, Note_on_c, 4, 43, 96
6, 237568, Note_off_c, 4, 43, 0
6, 237568, Note_on_c, 4, 45, 96
6, 238080, Note_off_c, 4, 45, 0
6, 238080, Note_on_c, 4, 46, 96
6, 238592, Note_off_c, 4, 46, 0
6, 238592, Note_on_c, 4, 48, 96
6, 239104, Note_off_c, 4, 48, 0
6, 239104, Note_on_c, 4, 50, 96
6, 239616, Note_off_c, 4, 50, 0
6, 239616, Note_on_c, 4, 48, 96
6, 240128, Note_off_c, 4, 48, 0
6, 240128, Note_on_c, 4, 46, 96
6, 240640, Note_off_c, 4, 46, 0
6, 240640, Note_on_c, 4, 45, 96
6, 241152, Note_off_c, 4, 45, 0
6, 241152, Note_on_c, 4, 43, 96
6, 241664, Note_off_c, 4, 43, 0
6, 241664, Note_on_c, 4, 42, 96
6, 242176, Note_off_c, 4, 42, 0
6, 242176, Note_on_c, 4, 38, 96
6, 242688, Note_off_c, 4, 38, 0
6, 242688, Note_on_c, 4, 43, 96
6, 243712, Note_off_c, 4, 43, 0
6, 243712, Note_on_c, 4, 55, 96
6, 245504, Note_off_c, 4, 55, 0
6, 245760, Note_on_c, 4, 58, 96
6, 246272, Note_off_c, 4, 58, 0
6, 246272, Note_on_c, 4, 60, 96
6, 246784, Note_off_c, 4, 60, 0
6, 246784, Note_on_c, 4, 58, 96
6, 247296, Note_off_c, 4, 58, 0
6, 247296, Note_on_c, 4, 57, 96
6, 247808, Note_off_c, 4, 57, 0
6, 247808, Note_on_c, 4, 55, 96
6, 248320, Note_off_c, 4, 55, 0
6, 248320, Note_on_c, 4, 53, 96
6, 248832, Note_off_c, 4, 53, 0
6, 248832, Note_on_c, 4, 55, 96
6, 249344, Note_off_c, 4, 55, 0
6, 249344, Note_on_c, 4, 57, 96
6, 249856, Note_off_c, 4, 57, 0
6, 249856, Note_on_c, 4, 55, 96
6, 250368, Note_off_c, 4, 55, 0
6, 250368, Note_on_c, 4, 53, 96
6, 250880, Note_off_c, 4, 53, 0
6, 250880, Note_on_c, 4, 52, 96
6, 251392, Note_off_c, 4, 52, 0
6, 251392, Note_on_c, 4, 50, 96
6, 251904, Note_off_c, 4, 50, 0
6, 251904, Note_on_c, 4, 52, 96
6, 252416, Note_off_c, 4, 52, 0
6, 252416, Note_on_c, 4, 50, 96
6, 252928, Note_off_c, 4, 50, 0
6, 252928, Note_on_c, 4, 48, 96
6, 253440, Note_off_c, 4, 48, 0
6, 253440, Note_on_c, 4, 50, 96
6, 253952, Note_off_c, 4, 50, 0
6, 253952, Note_on_c, 4, 52, 96
6, 254464, Note_off_c, 4, 52, 0
6, 254464, Note_on_c, 4, 48, 96
6, 254976, Note_off_c, 4, 48, 0
6, 254976, Note_on_c, 4, 53, 96
6, 256000, Note_off_c, 4, 53, 0
6, 256000, Note_on_c, 4, 41, 96
6, 256512, Note_off_c, 4, 41, 0
6, 256512, Note_on_c, 4, 53, 96
6, 257024, Note_off_c, 4, 53, 0
6, 257024, Note_on_c, 4, 51, 96
6, 257536, Note_off_c, 4, 51, 0
6, 257536, Note_on_c, 4, 50, 96
6, 258048, Note_off_c, 4, 50, 0
6, 258048, Note_on_c, 4, 43, 96
6, 258560, Note_off_c, 4, 43, 0
6, 258560, Note_on_c, 4, 55, 96
6, 258816, Note_off_c, 4, 55, 0
6, 258816, Note_on_c, 4, 53, 96
6, 259072, Note_off_c, 4, 53, 0
6, 259072, Note_on_c, 4, 55, 96
6, 259584, Note_off_c, 4, 55, 0
6, 259584, Note_on_c, 4, 57, 96
6, 260096, Note_off_c, 4, 57, 0
6, 260096, Note_on_c, 4, 58, 96
6, 260608, Note_off_c, 4, 58, 0
6, 260608, Note_on_c, 4, 50, 96
6, 261120, Note_off_c, 4, 50, 0
6, 261120, Note_on_c, 4, 51, 96
6, 261632, Note_off_c, 4, 51, 0
6, 261632, Note_on_c, 4, 53, 96
6, 261888, Note_off_c, 4, 53, 0
6, 261888, Note_on_c, 4, 55, 96
6, 262144, Note_off_c, 4, 55, 0
6, 262144, Note_on_c, 4, 53, 96
6, 262656, Note_off_c, 4, 53, 0
6, 262656, Note_on_c, 4, 51, 96
6, 263168, Note_off_c, 4, 51, 0
6, 263168, Note_on_c, 4, 50, 96
6, 263680, Note_off_c, 4, 50, 0
6, 263680, Note_on_c, 4, 46, 96
6, 264192, Note_off_c, 4, 46, 0
6, 264192, Note_on_c, 4, 51, 96
6, 264704, Note_off_c, 4, 51, 0
6, 264704, Note_on_c, 4, 48, 96
6, 264960, Note_off_c, 4, 48, 0
6, 264960, Note_on_c, 4, 50, 96
6, 265216, Note_off_c, 4, 50, 0
6, 265216, Note_on_c, 4, 51, 96
6, 265728, Note_off_c, 4, 51, 0
6, 265728, Note_on_c, 4, 48, 96
6, 266240, Note_off_c, 4, 48, 0
6, 266240, Note_on_c, 4, 53, 96
6, 266752, Note_off_c, 4, 53, 0
6, 266752, Note_on_c, 4, 41, 96
6, 267264, Note_off_c, 4, 41, 0
6, 267264, Note_on_c, 4, 46, 96
6, 267776, Note_off_c, 4, 46, 0
6, 267776, Note_on_c, 4, 46, 96
6, 268288, Note_off_c, 4, 46, 0
6, 268288, Note_on_c, 4, 53, 96
6, 268800, Note_off_c, 4, 53, 0
6, 268800, Note_on_c, 4, 51, 96
6, 269312, Note_off_c, 4, 51, 0
6, 269312, Note_on_c, 4, 53, 96
6, 270336, Note_off_c, 4, 53, 0
6, 270848, Note_on_c, 4, 46, 96
6, 271360, Note_off_c, 4, 46, 0
6, 271360, Note_on_c, 4, 55, 96
6, 271872, Note_off_c, 4, 55, 0
6, 271872, Note_on_c, 4, 53, 96
6, 272384, Note_off_c, 4, 53, 0
6, 272384, Note_on_c, 4, 55, 96
6, 273408, Note_off_c, 4, 55, 0
6, 273920, Note_on_c, 4, 46, 96
6, 274432, Note_off_c, 4, 46, 0
6, 274432, Note_on_c, 4, 56, 96
6, 274944, Note_off_c, 4, 56, 0
6, 274944, Note_on_c, 4, 55, 96
6, 275456, Note_off_c, 4, 55, 0
6, 275456, Note_on_c, 4, 53, 96
6, 275968, Note_off_c, 4, 53, 0
6, 275968, Note_on_c, 4, 51, 96
6, 276480, Note_off_c, 4, 51, 0
6, 276480, Note_on_c, 4, 53, 96
6, 276992, Note_off_c, 4, 53, 0
6, 276992, Note_on_c, 4, 46, 96
6, 277504, Note_off_c, 4, 46, 0
6, 277504, Note_on_c, 4, 58, 96
6, 278016, Note_off_c, 4, 58, 0
6, 278016, Note_on_c, 4, 56, 96
6, 278528, Note_off_c, 4, 56, 0
6, 278528, Note_on_c, 4, 55, 96
6, 279040, Note_off_c, 4, 55, 0
6, 279040, Note_on_c, 4, 53, 96
6, 279552, Note_off_c, 4, 53, 0
6, 279552, Note_on_c, 4, 51, 96
6, 280064, Note_off_c, 4, 51, 0
6, 280064, Note_on_c, 4, 50, 96
6, 280576, Note_off_c, 4, 50, 0
6, 280576, Note_on_c, 4, 51, 96
6, 281088, Note_off_c, 4, 51, 0
6, 281088, Note_on_c, 4, 53, 96
6, 281600, Note_off_c, 4, 53, 0
6, 281600, Note_on_c, 4, 55, 96
6, 282112, Note_off_c, 4, 55, 0
6, 282112, Note_on_c, 4, 57, 96
6, 282624, Note_off_c, 4, 57, 0
6, 282624, Note_on_c, 4, 58, 96
6, 283136, Note_off_c, 4, 58, 0
6, 283136, Note_on_c, 4, 60, 96
6, 283392, Note_off_c, 4, 60, 0
6, 283392, Note_on_c, 4, 57, 96
6, 283648, Note_off_c, 4, 57, 0
6, 283648, Note_on_c, 4, 58, 96
6, 284160, Note_off_c, 4, 58, 0
6, 284160, Note_on_c, 4, 53, 96
6, 284672, Note_off_c, 4, 53, 0
6, 284672, Note_on_c, 4, 50, 96
6, 285184, Note_off_c, 4, 50, 0
6, 285184, Note_on_c, 4, 48, 96
6, 285696, Note_off_c, 4, 48, 0
6, 285696, Note_on_c, 4, 46, 96
6, 286208, Note_off_c, 4, 46, 0
6, 286208, Note_on_c, 4, 48, 96
6, 286720, Note_off_c, 4, 48, 0
6, 286720, Note_on_c, 4, 50, 96
6, 287232, Note_off_c, 4, 50, 0
6, 287232, Note_on_c, 4, 51, 96
6, 287744, Note_off_c, 4, 51, 0
6, 287744, Note_on_c, 4, 53, 96
6, 288256, Note_off_c, 4, 53, 0
6, 288256, Note_on_c, 4, 55, 96
6, 288768, Note_off_c, 4, 55, 0
6, 288768, Note_on_c, 4, 53, 96
6, 289280, Note_off_c, 4, 53, 0
6, 289280, Note_on_c, 4, 51, 96
6, 289792, Note_off_c, 4, 51, 0
6, 289792, Note_on_c, 4, 50, 96
6, 290304, Note_off_c, 4, 50, 0
6, 290304, Note_on_c, 4, 48, 96
6, 290816, Note_off_c, 4, 48, 0
6, 290816, Note_on_c, 4, 47, 96
6, 291328, Note_off_c, 4, 47, 0
6, 291328, Note_on_c, 4, 43, 96
6, 291840, Note_off_c, 4, 43, 0
6, 291840, Note_on_c, 4, 48, 96
6, 292864, Note_off_c, 4, 48, 0
6, 292864, Note_on_c, 4, 36, 96
6, 294656, Note_off_c, 4, 36, 0
6, 294912, Note_on_c, 4, 50, 96
6, 295424, Note_off_c, 4, 50, 0
6, 295424, Note_on_c, 4, 48, 96
6, 295936, Note_off_c, 4, 48, 0
6, 295936, Note_on_c, 4, 50, 96
6, 296448, Note_off_c, 4, 50, 0
6, 296448, Note_on_c, 4, 51, 96
6, 296960, Note_off_c, 4, 51, 0
6, 296960, Note_on_c, 4, 53, 96
6, 297472, Note_off_c, 4, 53, 0
6, 297472, Note_on_c, 4, 55, 96
6, 297984, Note_off_c, 4, 55, 0
6, 297984, Note_on_c, 4, 53, 96
6, 298496, Note_off_c, 4, 53, 0
6, 298496, Note_on_c, 4, 51, 96
6, 299008, Note_off_c, 4, 51, 0
6, 299008, Note_on_c, 4, 53, 96
6, 299520, Note_off_c, 4, 53, 0
6, 299520, Note_on_c, 4, 55, 96
6, 300032, Note_off_c, 4, 55, 0
6, 300032, Note_on_c, 4, 56, 96
6, 300544, Note_off_c, 4, 56, 0
6, 300544, Note_on_c, 4, 58, 96
6, 301056, Note_off_c, 4, 58, 0
6, 301056, Note_on_c, 4, 56, 96
6, 301568, Note_off_c, 4, 56, 0
6, 301568, Note_on_c, 4, 55, 96
6, 302080, Note_off_c, 4, 55, 0
6, 302080, Note_on_c, 4, 53, 96
6, 302592, Note_off_c, 4, 53, 0
6, 302592, Note_on_c, 4, 51, 96
6, 303104, Note_off_c, 4, 51, 0
6, 303104, Note_on_c, 4, 50, 96
6, 303616, Note_off_c, 4, 50, 0
6, 303616, Note_on_c, 4, 46, 96
6, 304128, Note_off_c, 4, 46, 0
6, 304128, Note_on_c, 4, 51, 96
6, 305152, Note_off_c, 4, 51, 0
6, 305152, Note_on_c, 4, 39, 96
6, 306944, Note_off_c, 4, 39, 0
6, 307712, Note_on_c, 4, 41, 96
6, 308224, Note_off_c, 4, 41, 0
6, 308224, Note_on_c, 4, 48, 96
6, 308736, Note_off_c, 4, 48, 0
6, 308736, Note_on_c, 4, 46, 96
6, 309248, Note_off_c, 4, 46, 0
6, 309248, Note_on_c, 4, 48, 96
6, 310272, Note_off_c, 4, 48, 0
6, 310784, Note_on_c, 4, 41, 96
6, 311296, Note_off_c, 4, 41, 0
6, 311296, Note_on_c, 4, 50, 96
6, 311808, Note_off_c, 4, 50, 0
6, 311808, Note_on_c, 4, 48, 96
6, 312320, Note_off_c, 4, 48, 0
6, 312320, Note_on_c, 4, 50, 96
6, 313344, Note_off_c, 4, 50, 0
6, 313856, Note_on_c, 4, 41, 96
6, 314368, Note_off_c, 4, 41, 0
6, 314368, Note_on_c, 4, 51, 96
6, 314880, Note_off_c, 4, 51, 0
6, 314880, Note_on_c, 4, 50, 96
6, 315392, Note_off_c, 4, 50, 0
6, 315392, Note_on_c, 4, 48, 96
6, 315904, Note_off_c, 4, 48, 0
6, 315904, Note_on_c, 4, 46, 96
6, 316416, Note_off_c, 4, 46, 0
6, 316416, Note_on_c, 4, 48, 96
6, 316928, Note_off_c, 4, 48, 0
6, 316928, Note_on_c, 4, 41, 96
6, 317440, Note_off_c, 4, 41, 0
6, 317440, Note_on_c, 4, 53, 96
6, 317952, Note_off_c, 4, 53, 0
6, 317952, Note_on_c, 4, 51, 96
6, 318464, Note_off_c, 4, 51, 0
6, 318464, Note_on_c, 4, 50, 96
6, 318976, Note_off_c, 4, 50, 0
6, 318976, Note_on_c, 4, 48, 96
6, 319488, Note_off_c, 4, 48, 0
6, 319488, Note_on_c, 4, 46, 96
6, 320000, Note_off_c, 4, 46, 0
6, 320000, Note_on_c, 4, 51, 96
6, 320256, Note_off_c, 4, 51, 0
6, 320256, Note_on_c, 4, 48, 96
6, 320512, Note_off_c, 4, 48, 0
6, 320512, Note_on_c, 4, 50, 96
6, 321024, Note_off_c, 4, 50, 0
6, 321024, Note_on_c, 4, 53, 96
6, 321536, Note_off_c, 4, 53, 0
6, 321536, Note_on_c, 4, 46, 96
6, 322048, Note_off_c, 4, 46, 0
6, 322048, Note_on_c, 4, 45, 96
6, 322560, Note_off_c, 4, 45, 0
6, 322560, Note_on_c, 4, 43, 96
6, 323072, Note_off_c, 4, 43, 0
6, 323072, Note_on_c, 4, 53, 96
6, 323328, Note_off_c, 4, 53, 0
6, 323328, Note_on_c, 4, 50, 96
6, 323584, Note_off_c, 4, 50, 0
6, 323584, Note_on_c, 4, 51, 96
6, 324096, Note_off_c, 4, 51, 0
6, 324096, Note_on_c, 4, 55, 96
6, 324608, Note_off_c, 4, 55, 0
6, 324608, Note_on_c, 4, 43, 96
6, 325120, Note_off_c, 4, 43, 0
6, 325120, Note_on_c, 4, 41, 96
6, 325632, Note_off_c, 4, 41, 0
6, 325632, Note_on_c, 4, 39, 96
6, 326144, Note_off_c, 4, 39, 0
6, 326144, Note_on_c, 4, 50, 96
6, 326400, Note_off_c, 4, 50, 0
6, 326400, Note_on_c, 4, 51, 96
6, 326656, Note_off_c, 4, 51, 0
6, 326656, Note_on_c, 4, 53, 96
6, 327168, Note_off_c, 4, 53, 0
6, 327168, Note_on_c, 4, 51, 96
6, 327680, Note_off_c, 4, 51, 0
6, 327680, Note_on_c, 4, 53, 96
6, 328192, Note_off_c, 4, 53, 0
6, 328192, Note_on_c, 4, 41, 96
6, 328704, Note_off_c, 4, 41, 0
6, 328704, Note_on_c, 4, 46, 96
6, 332800, Note_off_c, 4, 46, 0
6, 332800, End_track
7, 0, Start_track
7, 0, Title_t, "Instrument 6"
7, 0, Note_on_c, 5, 74, 96
7, 1280, Note_off_c, 5, 74, 0
7, 1280, Note_on_c, 5, 72, 96
7, 1536, Note_off_c, 5, 72, 0
7, 1536, Note_on_c, 5, 70, 96
7, 1792, Note_off_c, 5, 70, 0
7, 1792, Note_on_c, 5, 69, 96
7, 2048, Note_off_c, 5, 69, 0
7, 2048, Note_on_c, 5, 70, 96
7, 2304, Note_off_c, 5, 70, 0
7, 2304, Note_on_c, 5, 74, 96
7, 2560, Note_off_c, 5, 74, 0
7, 2560, Note_on_c, 5, 77, 96
7, 3072, Note_off_c, 5, 77, 0
7, 3072, Note_on_c, 5, 77, 96
7, 4352, Note_off_c, 5, 77, 0
7, 4352, Note_on_c, 5, 75, 96
7, 4608, Note_off_c, 5, 75, 0
7, 4608, Note_on_c, 5, 74, 96
7, 4864, Note_off_c, 5, 74, 0
7, 4864, Note_on_c, 5, 72, 96
7, 5120, Note_off_c, 5, 72, 0
7, 5120, Note_on_c, 5, 74, 96
7, 5376, Note_off_c, 5, 74, 0
7, 5376, Note_on_c, 5, 77, 96
7, 5632, Note_off_c, 5, 77, 0
7, 5632, Note_on_c, 5, 80, 96
7, 6144, Note_off_c, 5, 80, 0
7, 6144, Note_on_c, 5, 80, 96
7, 7424, Note_off_c, 5, 80, 0
7, 7424, Note_on_c, 5, 79, 96
7, 7680, Note_off_c, 5, 79, 0
7, 7680, Note_on_c, 5, 77, 96
7, 7936, Note_off_c, 5, 77, 0
7, 7936, Note_on_c, 5, 75, 96
7, 8192, Note_off_c, 5, 75, 0
7, 8192, Note_on_c, 5, 74, 96
7, 8448, Note_off_c, 5, 74, 0
7, 8448, Note_on_c, 5, 72, 96
7, 8704, Note_off_c, 5, 72, 0
7, 8704, Note_on_c, 5, 71, 96
7, 8960, Note_off_c, 5, 71, 0
7, 8960, Note_on_c, 5, 69, 96
7, 9216, Note_off_c, 5, 69, 0
7, 9216, Note_on_c, 5, 67, 96
7, 9472, Note_off_c, 5, 67, 0
7, 9472, Note_on_c, 5, 71, 96
7, 9728, Note_off_c, 5, 71, 0
7, 9728, Note_on_c, 5, 74, 96
7, 9984, Note_off_c, 5, 74, 0
7, 9984, Note_on_c, 5, 77, 96
7, 10240, Note_off_c, 5, 77, 0
7, 10240, Note_on_c, 5, 75, 96
7, 10496, Note_off_c, 5, 75, 0
7, 10496, Note_on_c, 5, 74, 96
7, 10752, Note_off_c, 5, 74, 0
7, 10752, Note_on_c, 5, 75, 96
7, 12032, Note_off_c, 5, 75, 0
7, 12288, Note_on_c, 5, 65, 96
7, 13568, Note_off_c, 5, 65, 0
7, 13568, Note_on_c, 5, 67, 96
7, 13824, Note_off_c, 5, 67, 0
7, 13824, Note_on_c, 5, 69, 96
7, 14080, Note_off_c, 5, 69, 0
7, 14080, Note_on_c, 5, 70, 96
7, 14336, Note_off_c, 5, 70, 0
7, 14336, Note_on_c, 5, 72, 96
7, 14592, Note_off_c, 5, 72, 0
7, 14592, Note_on_c, 5, 74, 96
7, 14848, Note_off_c, 5, 74, 0
7, 14848, Note_on_c, 5, 75, 96
7, 15104, Note_off_c, 5, 75, 0
7, 15104, Note_on_c, 5, 72, 96
7, 15360, Note_off_c, 5, 72, 0
7, 15360, Note_on_c, 5, 69, 96
7, 16640, Note_off_c, 5, 69, 0
7, 16640, Note_on_c, 5, 70, 96
7, 16896, Note_off_c, 5, 70, 0
7, 16896, Note_on_c, 5, 72, 96
7, 17152, Note_off_c, 5, 72, 0
7, 17152, Note_on_c, 5, 74, 96
7, 17408, Note_off_c, 5, 74, 0
7, 17408, Note_on_c, 5, 75, 96
7, 17664, Note_off_c, 5, 75, 0
7, 17664, Note_on_c, 5, 77, 96
7, 17920, Note_off_c, 5, 77, 0
7, 17920, Note_on_c, 5, 79, 96
7, 18176, Note_off_c, 5, 79, 0
7, 18176, Note_on_c, 5, 75, 96
7, 18432, Note_off_c, 5, 75, 0
7, 18432, Note_on_c, 5, 72, 96
7, 18688, Note_off_c, 5, 72, 0
7, 18688, Note_on_c, 5, 79, 96
7, 18944, Note_off_c, 5, 79, 0
7, 18944, Note_on_c, 5, 81, 96
7, 19200, Note_off_c, 5, 81, 0
7, 19200, Note_on_c, 5, 82, 96
7, 19456, Note_off_c, 5, 82, 0
7, 19456, Note_on_c, 5, 81, 96
7, 19712, Note_off_c, 5, 81, 0
7, 19712, Note_on_c, 5, 79, 96
7, 19968, Note_off_c, 5, 79, 0
7, 19968, Note_on_c, 5, 77, 96
7, 20224, Note_off_c, 5, 77, 0
7, 20224, Note_on_c, 5, 75, 96
7, 20480, Note_off_c, 5, 75, 0
7, 20480, Note_on_c, 5, 74, 96
7, 20736, Note_off_c, 5, 74, 0
7, 20736, Note_on_c, 5, 72, 96
7, 20992, Note_off_c, 5, 72, 0
7, 20992, Note_on_c, 5, 70, 96
7, 21248, Note_off_c, 5, 70, 0
7, 21248, Note_on_c, 5, 69, 96
7, 21504, Note_off_c, 5, 69, 0
7, 21504, Note_on_c, 5, 67, 96
7, 21760, Note_off_c, 5, 67, 0
7, 21760, Note_on_c, 5, 65, 96
7, 22016, Note_off_c, 5, 65, 0
7, 22016, Note_on_c, 5, 69, 96
7, 22272, Note_off_c, 5, 69, 0
7, 22272, Note_on_c, 5, 72, 96
7, 22528, Note_off_c, 5, 72, 0
7, 22528, Note_on_c, 5, 75, 96
7, 22784, Note_off_c, 5, 75, 0
7, 22784, Note_on_c, 5, 72, 96
7, 23040, Note_off_c, 5, 72, 0
7, 23040, Note_on_c, 5, 74, 96
7, 24320, Note_off_c, 5, 74, 0
7, 24576, Note_on_c, 5, 76, 96
7, 24832, Note_off_c, 5, 76, 0
7, 24832, Note_on_c, 5, 77, 96
7, 24960, Note_off_c, 5, 77, 0
7, 24960, Note_on_c, 5, 79, 96
7, 25088, Note_off_c, 5, 79, 0
7, 25088, Note_on_c, 5, 70, 96
7, 25344, Note_off_c, 5, 70, 0
7, 25344, Note_on_c, 5, 69, 96
7, 25600, Note_off_c, 5, 69, 0
7, 25600, Note_on_c, 5, 70, 96
7, 25856, Note_off_c, 5, 70, 0
7, 25856, Note_on_c, 5, 76, 96
7, 26112, Note_off_c, 5, 76, 0
7, 26112, Note_on_c, 5, 74, 96
7, 26368, Note_off_c, 5, 74, 0
7, 26368, Note_on_c, 5, 76, 96
7, 26624, Note_off_c, 5, 76, 0
7, 26624, Note_on_c, 5, 72, 96
7, 26880, Note_off_c, 5, 72, 0
7, 26880, Note_on_c, 5, 76, 96
7, 27136, Note_off_c, 5, 76, 0
7, 27136, Note_on_c, 5, 70, 96
7, 27392, Note_off_c, 5, 70, 0
7, 27392, Note_on_c, 5, 76, 96
7, 27648, Note_off_c, 5, 76, 0
7, 27648, Note_on_c, 5, 77, 96
7, 27904, Note_off_c, 5, 77, 0
7, 27904, Note_on_c, 5, 79, 96
7, 28032, Note_off_c, 5, 79, 0
7, 28032, Note_on_c, 5, 81, 96
7, 28160, Note_off_c, 5, 81, 0
7, 28160, Note_on_c, 5, 72, 96
7, 28416, Note_off_c, 5, 72, 0
7, 28416, Note_on_c, 5, 70, 96
7, 28672, Note_off_c, 5, 70, 0
7, 28672, Note_on_c, 5, 72, 96
7, 28928, Note_off_c, 5, 72, 0
7, 28928, Note_on_c, 5, 77, 96
7, 29184, Note_off_c, 5, 77, 0
7, 29184, Note_on_c, 5, 76, 96
7, 29440, Note_off_c, 5, 76, 0
7, 29440, Note_on_c, 5, 77, 96
7, 29696, Note_off_c, 5, 77, 0
7, 29696, Note_on_c, 5, 74, 96
7, 29952, Note_off_c, 5, 74, 0
7, 29952, Note_on_c, 5, 77, 96
7, 30208, Note_off_c, 5, 77, 0
7, 30208, Note_on_c, 5, 72, 96
7, 30464, Note_off_c, 5, 72, 0
7, 30464, Note_on_c, 5, 77, 96
7, 30720, Note_off_c, 5, 77, 0
7, 30720, Note_on_c, 5, 79, 96
7, 30976, Note_off_c, 5, 79, 0
7, 30976, Note_on_c, 5, 81, 96
7, 31104, Note_off_c, 5, 81, 0
7, 31104, Note_on_c, 5, 82, 96
7, 31232, Note_off_c, 5, 82, 0
7, 31232, Note_on_c, 5, 81, 96
7, 31488, Note_off_c, 5, 81, 0
7, 31488, Note_on_c, 5, 82, 96
7, 31744, Note_off_c, 5, 82, 0
7, 31744, Note_on_c, 5, 79, 96
7, 32000, Note_off_c, 5, 79, 0
7, 32000, Note_on_c, 5, 82, 96
7, 32256, Note_off_c, 5, 82, 0
7, 32256, Note_on_c, 5, 77, 96
7, 32512, Note_off_c, 5, 77, 0
7, 32512, Note_on_c, 5, 82, 96
7, 32768, Note_off_c, 5, 82, 0
7, 32768, Note_on_c, 5, 76, 96
7, 33024, Note_off_c, 5, 76, 0
7, 33024, Note_on_c, 5, 82, 96
7, 33280, Note_off_c, 5, 82, 0
7, 33280, Note_on_c, 5, 74, 96
7, 33536, Note_off_c, 5, 74, 0
7, 33536, Note_on_c, 5, 82, 96
7, 33792, Note_off_c, 5, 82, 0
7, 33792, Note_on_c, 5, 76, 96
7, 34048, Note_off_c, 5, 76, 0
7, 34048, Note_on_c, 5, 77, 96
7, 34176, Note_off_c, 5, 77, 0
7, 34176, Note_on_c, 5, 79, 96
7, 34304, Note_off_c, 5, 79, 0
7, 34304, Note_on_c, 5, 77, 96
7, 34560, Note_off_c, 5, 77, 0
7, 34560, Note_on_c, 5, 79, 96
7, 34816, Note_off_c, 5, 79, 0
7, 34816, Note_on_c, 5, 76, 96
7, 35072, Note_off_c, 5, 76, 0
7, 35072, Note_on_c, 5, 79, 96
7, 35328, Note_off_c, 5, 79, 0
7, 35328, Note_on_c, 5, 74, 96
7, 35584, Note_off_c, 5, 74, 0
7, 35584, Note_on_c, 5, 79, 96
7, 35840, Note_off_c, 5, 79, 0
7, 35840, Note_on_c, 5, 72, 96
7, 36096, Note_off_c, 5, 72, 0
7, 36096, Note_on_c, 5, 79, 96
7, 36352, Note_off_c, 5, 79, 0
7, 36352, Note_on_c, 5, 70, 96
7, 36608, Note_off_c, 5, 70, 0
7, 36608, Note_on_c, 5, 79, 96
7, 36864, Note_off_c, 5, 79, 0
7, 36864, Note_on_c, 5, 69, 96
7, 37120, Note_off_c, 5, 69, 0
7, 37120, Note_on_c, 5, 72, 96
7, 37376, Note_off_c, 5, 72, 0
7, 37376, Note_on_c, 5, 74, 96
7, 37632, Note_off_c, 5, 74, 0
7, 37632, Note_on_c, 5, 70, 96
7, 37888, Note_off_c, 5, 70, 0
7, 37888, Note_on_c, 5, 72, 96
7, 38144, Note_off_c, 5, 72, 0
7, 38144, Note_on_c, 5, 69, 96
7, 38400, Note_off_c, 5, 69, 0
7, 38400, Note_on_c, 5, 67, 96
7, 38656, Note_off_c, 5, 67, 0
7, 38656, Note_on_c, 5, 65, 96
7, 38912, Note_off_c, 5, 65, 0
7, 38912, Note_on_c, 5, 77, 96
7, 39168, Note_off_c, 5, 77, 0
7, 39168, Note_on_c, 5, 69, 96
7, 39424, Note_off_c, 5, 69, 0
7, 39424, Note_on_c, 5, 67, 96
7, 39680, Note_off_c, 5, 67, 0
7, 39680, Note_on_c, 5, 65, 96
7, 39936, Note_off_c, 5, 65, 0
7, 39936, Note_on_c, 5, 70, 96
7, 40192, Note_off_c, 5, 70, 0
7, 40192, Note_on_c, 5, 74, 96
7, 40448, Note_off_c, 5, 74, 0
7, 40448, Note_on_c, 5, 75, 96
7, 40704, Note_off_c, 5, 75, 0
7, 40704, Note_on_c, 5, 72, 96
7, 40960, Note_off_c, 5, 72, 0
7, 40960, Note_on_c, 5, 74, 96
7, 41216, Note_off_c, 5, 74, 0
7, 41216, Note_on_c, 5, 70, 96
7, 41472, Note_off_c, 5, 70, 0
7, 41472, Note_on_c, 5, 69, 96
7, 41728, Note_off_c, 5, 69, 0
7, 41728, Note_on_c, 5, 67, 96
7, 41984, Note_off_c, 5, 67, 0
7, 41984, Note_on_c, 5, 77, 96
7, 42240, Note_off_c, 5, 77, 0
7, 42240, Note_on_c, 5, 70, 96
7, 42496, Note_off_c, 5, 70, 0
7, 42496, Note_on_c, 5, 69, 96
7, 42752, Note_off_c, 5, 69, 0
7, 42752, Note_on_c, 5, 67, 96
7, 43008, Note_off_c, 5, 67, 0
7, 43008, Note_on_c, 5, 72, 96
7, 43264, Note_off_c, 5, 72, 0
7, 43264, Note_on_c, 5, 76, 96
7, 43520, Note_off_c, 5, 76, 0
7, 43520, Note_on_c, 5, 77, 96
7, 43776, Note_off_c, 5, 77, 0
7, 43776, Note_on_c, 5, 74, 96
7, 44032, Note_off_c, 5, 74, 0
7, 44032, Note_on_c, 5, 72, 96
7, 44288, Note_off_c, 5, 72, 0
7, 44288, Note_on_c, 5, 81, 96
7, 44544, Note_off_c, 5, 81, 0
7, 44544, Note_on_c, 5, 82, 96
7, 44800, Note_off_c, 5, 82, 0
7, 44800, Note_on_c, 5, 79, 96
7, 45056, Note_off_c, 5, 79, 0
7, 45056, Note_on_c, 5, 72, 96
7, 45312, Note_off_c, 5, 72, 0
7, 45312, Note_on_c, 5, 77, 96
7, 45568, Note_off_c, 5, 77, 0
7, 45568, Note_on_c, 5, 79, 96
7, 45824, Note_off_c, 5, 79, 0
7, 45824, Note_on_c, 5, 76, 96
7, 46080, Note_off_c, 5, 76, 0
7, 46080, Note_on_c, 5, 77, 96
7, 46336, Note_off_c, 5, 77, 0
7, 46336, Note_on_c, 5, 72, 96
7, 46592, Note_off_c, 5, 72, 0
7, 46592, Note_on_c, 5, 74, 96
7, 46848, Note_off_c, 5, 74, 0
7, 46848, Note_on_c, 5, 70, 96
7, 47104, Note_off_c, 5, 70, 0
7, 47104, Note_on_c, 5, 72, 96
7, 47360, Note_off_c, 5, 72, 0
7, 47360, Note_on_c, 5, 69, 96
7, 47616, Note_off_c, 5, 69, 0
7, 47616, Note_on_c, 5, 67, 96
7, 47872, Note_off_c, 5, 67, 0
7, 47872, Note_on_c, 5, 65, 96
7, 48128, Note_off_c, 5, 65, 0
7, 48128, Note_on_c, 5, 77, 96
7, 48640, Note_off_c, 5, 77, 0
7, 58368, Note_on_c, 5, 74, 96
7, 59648, Note_off_c, 5, 74, 0
7, 59648, Note_on_c, 5, 72, 96
7, 59904, Note_off_c, 5, 72, 0
7, 59904, Note_on_c, 5, 70, 96
7, 60160, Note_off_c, 5, 70, 0
7, 60160, Note_on_c, 5, 69, 96
7, 60416, Note_off_c, 5, 69, 0
7, 60416, Note_on_c, 5, 70, 96
7, 60672, Note_off_c, 5, 70, 0
7, 60672, Note_on_c, 5, 74, 96
7, 60928, Note_off_c, 5, 74, 0
7, 60928, Note_on_c, 5, 77, 96
7, 61440, Note_off_c, 5, 77, 0
7, 61440, Note_on_c, 5, 77, 96
7, 62720, Note_off_c, 5, 77, 0
7, 62720, Note_on_c, 5, 75, 96
7, 62976, Note_off_c, 5, 75, 0
7, 62976, Note_on_c, 5, 74, 96
7, 63232, Note_off_c, 5, 74, 0
7, 63232, Note_on_c, 5, 72, 96
7, 63488, Note_off_c, 5, 72, 0
7, 63488, Note_on_c, 5, 74, 96
7, 63744, Note_off_c, 5, 74, 0
7, 63744, Note_on_c, 5, 77, 96
7, 64000, Note_off_c, 5, 77, 0
7, 64000, Note_on_c, 5, 80, 96
7, 64512, Note_off_c, 5, 80, 0
7, 64512, Note_on_c, 5, 80, 96
7, 65792, Note_off_c, 5, 80, 0
7, 65792, Note_on_c, 5, 79, 96
7, 66048, Note_off_c, 5, 79, 0
7, 66048, Note_on_c, 5, 77, 96
7, 66304, Note_off_c, 5, 77, 0
7, 66304, Note_on_c, 5, 75, 96
7, 66560, Note_off_c, 5, 75, 0
7, 66560, Note_on_c, 5, 74, 96
7, 66816, Note_off_c, 5, 74, 0
7, 66816, Note_on_c, 5, 72, 96
7, 67072, Note_off_c, 5, 72, 0
7, 67072, Note_on_c, 5, 71, 96
7, 67328, Note_off_c, 5, 71, 0
7, 67328, Note_on_c, 5, 69, 96
7, 67584, Note_off_c, 5, 69, 0
7, 67584, Note_on_c, 5, 67, 96
7, 67840, Note_off_c, 5, 67, 0
7, 67840, Note_on_c, 5, 71, 96
7, 68096, Note_off_c, 5, 71, 0
7, 68096, Note_on_c, 5, 74, 96
7, 68352, Note_off_c, 5, 74, 0
7, 68352, Note_on_c, 5, 77, 96
7, 68608, Note_off_c, 5, 77, 0
7, 68608, Note_on_c, 5, 75, 96
7, 68864, Note_off_c, 5, 75, 0
7, 68864, Note_on_c, 5, 74, 96
7, 69120, Note_off_c, 5, 74, 0
7, 69120, Note_on_c, 5, 75, 96
7, 69632, Note_off_c, 5, 75, 0
7, 79872, Note_on_c, 5, 74, 96
7, 81152, Note_off_c, 5, 74, 0
7, 81152, Note_on_c, 5, 72, 96
7, 81408, Note_off_c, 5, 72, 0
7, 81408, Note_on_c, 5, 70, 96
7, 81664, Note_off_c, 5, 70, 0
7, 81664, Note_on_c, 5, 69, 96
7, 81920, Note_off_c, 5, 69, 0
7, 81920, Note_on_c, 5, 70, 96
7, 82176, Note_off_c, 5, 70, 0
7, 82176, Note_on_c, 5, 74, 96
7, 82432, Note_off_c, 5, 74, 0
7, 82432, Note_on_c, 5, 77, 96
7, 82944, Note_off_c, 5, 77, 0
7, 82944, Note_on_c, 5, 77, 96
7, 84224, Note_off_c, 5, 77, 0
7, 84224, Note_on_c, 5, 75, 96
7, 84480, Note_off_c, 5, 75, 0
7, 84480, Note_on_c, 5, 74, 96
7, 84736, Note_off_c, 5, 74, 0
7, 84736, Note_on_c, 5, 72, 96
7, 84992, Note_off_c, 5, 72, 0
7, 84992, Note_on_c, 5, 74, 96
7, 85248, Note_off_c, 5, 74, 0
7, 85248, Note_on_c, 5, 77, 96
7, 85504, Note_off_c, 5, 77, 0
7, 85504, Note_on_c, 5, 80, 96
7, 86016, Note_off_c, 5, 80, 0
7, 86016, Note_on_c, 5, 80, 96
7, 87296, Note_off_c, 5, 80, 0
7, 87296, Note_on_c, 5, 79, 96
7, 87552, Note_off_c, 5, 79, 0
7, 87552, Note_on_c, 5, 77, 96
7, 87808, Note_off_c, 5, 77, 0
7, 87808, Note_on_c, 5, 75, 96
7, 88064, Note_off_c, 5, 75, 0
7, 88064, Note_on_c, 5, 74, 96
7, 88320, Note_off_c, 5, 74, 0
7, 88320, Note_on_c, 5, 72, 96
7, 88576, Note_off_c, 5, 72, 0
7, 88576, Note_on_c, 5, 71, 96
7, 88832, Note_off_c, 5, 71, 0
7, 88832, Note_on_c, 5, 69, 96
7, 89088, Note_off_c, 5, 69, 0
7, 89088, Note_on_c, 5, 67, 96
7, 89344, Note_off_c, 5, 67, 0
7, 89344, Note_on_c, 5, 71, 96
7, 89600, Note_off_c, 5, 71, 0
7, 89600, Note_on_c, 5, 74, 96
7, 89856, Note_off_c, 5, 74, 0
7, 89856, Note_on_c, 5, 77, 96
7, 90112, Note_off_c, 5, 77, 0
7, 90112, Note_on_c, 5, 75, 96
7, 90368, Note_off_c, 5, 75, 0
7, 90368, Note_on_c, 5, 74, 96
7, 90624, Note_off_c, 5, 74, 0
7, 90624, Note_on_c, 5, 75, 96
7, 91904, Note_off_c, 5, 75, 0
7, 92160, Note_on_c, 5, 65, 96
7, 93440, Note_off_c, 5, 65, 0
7, 93440, Note_on_c, 5, 67, 96
7, 93696, Note_off_c, 5, 67, 0
7, 93696, Note_on_c, 5, 69, 96
7, 93952, Note_off_c, 5, 69, 0
7, 93952, Note_on_c, 5, 70, 96
7, 94208, Note_off_c, 5, 70, 0
7, 94208, Note_on_c, 5, 72, 96
7, 94464, Note_off_c, 5, 72, 0
7, 94464, Note_on_c, 5, 74, 96
7, 94720, Note_off_c, 5, 74, 0
7, 94720, Note_on_c, 5, 75, 96
7, 94976, Note_off_c, 5, 75, 0
7, 94976, Note_on_c, 5, 72, 96
7, 95232, Note_off_c, 5, 72, 0
7, 95232, Note_on_c, 5, 69, 96
7, 96512, Note_off_c, 5, 69, 0
7, 96512, Note_on_c, 5, 70, 96
7, 96768, Note_off_c, 5, 70, 0
7, 96768, Note_on_c, 5, 72, 96
7, 97024, Note_off_c, 5, 72, 0
7, 97024, Note_on_c, 5, 74, 96
7, 97280, Note_off_c, 5, 74, 0
7, 97280, Note_on_c, 5, 75, 96
7, 97536, Note_off_c, 5, 75, 0
7, 97536, Note_on_c, 5, 77, 96
7, 97792, Note_off_c, 5, 77, 0
7, 97792, Note_on_c, 5, 79, 96
7, 98048, Note_off_c, 5, 79, 0
7, 98048, Note_on_c, 5, 75, 96
7, 98304, Note_off_c, 5, 75, 0
7, 98304, Note_on_c, 5, 72, 96
7, 98560, Note_off_c, 5, 72, 0
7, 98560, Note_on_c, 5, 79, 96
7, 98816, Note_off_c, 5, 79, 0
7, 98816, Note_on_c, 5, 81, 96
7, 99072, Note_off_c, 5, 81, 0
7, 99072, Note_on_c, 5, 82, 96
7, 99328, Note_off_c, 5, 82, 0
7, 99328, Note_on_c, 5, 81, 96
7, 99584, Note_off_c, 5, 81, 0
7, 99584, Note_on_c, 5, 79, 96
7, 99840, Note_off_c, 5, 79, 0
7, 99840, Note_on_c, 5, 77, 96
7, 100096, Note_off_c, 5, 77, 0
7, 100096, Note_on_c, 5, 75, 96
7, 100352, Note_off_c, 5, 75, 0
7, 100352, Note_on_c, 5, 74, 96
7, 100608, Note_off_c, 5, 74, 0
7, 100608, Note_on_c, 5, 72, 96
7, 100864, Note_off_c, 5, 72, 0
7, 100864, Note_on_c, 5, 70, 96
7, 101120, Note_off_c, 5, 70, 0
7, 101120, Note_on_c, 5, 69, 96
7, 101376, Note_off_c, 5, 69, 0
7, 101376, Note_on_c, 5, 67, 96
7, 101632, Note_off_c, 5, 67, 0
7, 101632, Note_on_c, 5, 65, 96
7, 101888, Note_off_c, 5, 65, 0
7, 101888, Note_on_c, 5, 69, 96
7, 102144, Note_off_c, 5, 69, 0
7, 102144, Note_on_c, 5, 72, 96
7, 102400, Note_off_c, 5, 72, 0
7, 102400, Note_on_c, 5, 75, 96
7, 102656, Note_off_c, 5, 75, 0
7, 102656, Note_on_c, 5, 72, 96
7, 102912, Note_off_c, 5, 72, 0
7, 102912, Note_on_c, 5, 74, 96
7, 104192, Note_off_c, 5, 74, 0
7, 104448, Note_on_c, 5, 76, 96
7, 104704, Note_off_c, 5, 76, 0
7, 104704, Note_on_c, 5, 77, 96
7, 104832, Note_off_c, 5, 77, 0
7, 104832, Note_on_c, 5, 79, 96
7, 104960, Note_off_c, 5, 79, 0
7, 104960, Note_on_c, 5, 70, 96
7, 105216, Note_off_c, 5, 70, 0
7, 105216, Note_on_c, 5, 69, 96
7, 105472, Note_off_c, 5, 69, 0
7, 105472, Note_on_c, 5, 70, 96
7, 105728, Note_off_c, 5, 70, 0
7, 105728, Note_on_c, 5, 76, 96
7, 105984, Note_off_c, 5, 76, 0
7, 105984, Note_on_c, 5, 74, 96
7, 106240, Note_off_c, 5, 74, 0
7, 106240, Note_on_c, 5, 76, 96
7, 106496, Note_off_c, 5, 76, 0
7, 106496, Note_on_c, 5, 72, 96
7, 106752, Note_off_c, 5, 72, 0
7, 106752, Note_on_c, 5, 76, 96
7, 107008, Note_off_c, 5, 76, 0
7, 107008, Note_on_c, 5, 70, 96
7, 107264, Note_off_c, 5, 70, 0
7, 107264, Note_on_c, 5, 76, 96
7, 107520, Note_off_c, 5, 76, 0
7, 107520, Note_on_c, 5, 77, 96
7, 107776, Note_off_c, 5, 77, 0
7, 107776, Note_on_c, 5, 79, 96
7, 107904, Note_off_c, 5, 79, 0
7, 107904, Note_on_c, 5, 81, 96
7, 108032, Note_off_c, 5, 81, 0
7, 108032, Note_on_c, 5, 72, 96
7, 108288, Note_off_c, 5, 72, 0
7, 108288, Note_on_c, 5, 70, 96
7, 108544, Note_off_c, 5, 70, 0
7, 108544, Note_on_c, 5, 72, 96
7, 108800, Note_off_c, 5, 72, 0
7, 108800, Note_on_c, 5, 77, 96
7, 109056, Note_off_c, 5, 77, 0
7, 109056, Note_on_c, 5, 76, 96
7, 109312, Note_off_c, 5, 76, 0
7, 109312, Note_on_c, 5, 77, 96
7, 109568, Note_off_c, 5, 77, 0
7, 109568, Note_on_c, 5, 74, 96
7, 109824, Note_off_c, 5, 74, 0
7, 109824, Note_on_c, 5, 77, 96
7, 110080, Note_off_c, 5, 77, 0
7, 110080, Note_on_c, 5, 72, 96
7, 110336, Note_off_c, 5, 72, 0
7, 110336, Note_on_c, 5, 77, 96
7, 110592, Note_off_c, 5, 77, 0
7, 110592, Note_on_c, 5, 79, 96
7, 110848, Note_off_c, 5, 79, 0
7, 110848, Note_on_c, 5, 81, 96
7, 110976, Note_off_c, 5, 81, 0
7, 110976, Note_on_c, 5, 82, 96
7, 111104, Note_off_c, 5, 82, 0
7, 111104, Note_on_c, 5, 81, 96
7, 111360, Note_off_c, 5, 81, 0
7, 111360, Note_on_c, 5, 82, 96
7, 111616, Note_off_c, 5, 82, 0
7, 111616, Note_on_c, 5, 79, 96
7, 111872, Note_off_c, 5, 79, 0
7, 111872, Note_on_c, 5, 82, 96
7, 112128, Note_off_c, 5, 82, 0
7, 112128, Note_on_c, 5, 77, 96
7, 112384, Note_off_c, 5, 77, 0
7, 112384, Note_on_c, 5, 82, 96
7, 112640, Note_off_c, 5, 82, 0
7, 112640, Note_on_c, 5, 76, 96
7, 112896, Note_off_c, 5, 76, 0
7, 112896, Note_on_c, 5, 82, 96
7, 113152, Note_off_c, 5, 82, 0
7, 113152, Note_on_c, 5, 74, 96
7, 113408, Note_off_c, 5, 74, 0
7, 113408, Note_on_c, 5, 82, 96
7, 113664, Note_off_c, 5, 82, 0
7, 113664, Note_on_c, 5, 76, 96
7, 113920, Note_off_c, 5, 76, 0
7, 113920, Note_on_c, 5, 77, 96
7, 114048, Note_off_c, 5, 77, 0
7, 114048, Note_on_c, 5, 79, 96
7, 114176, Note_off_c, 5, 79, 0
7, 114176, Note_on_c, 5, 77, 96
7, 114432, Note_off_c, 5, 77, 0
7, 114432, Note_on_c, 5, 79, 96
7, 114688, Note_off_c, 5, 79, 0
7, 114688, Note_on_c, 5, 76, 96
7, 114944, Note_off_c, 5, 76, 0
7, 114944, Note_on_c, 5, 79, 96
7, 115200, Note_off_c, 5, 79, 0
7, 115200, Note_on_c, 5, 74, 96
7, 115456, Note_off_c, 5, 74, 0
7, 115456, Note_on_c, 5, 79, 96
7, 115712, Note_off_c, 5, 79, 0
7, 115712, Note_on_c, 5, 72, 96
7, 115968, Note_off_c, 5, 72, 0
7, 115968, Note_on_c, 5, 79, 96
7, 116224, Note_off_c, 5, 79, 0
7, 116224, Note_on_c, 5, 70, 96
7, 116480, Note_off_c, 5, 70, 0
7, 116480, Note_on_c, 5, 79, 96
7, 116736, Note_off_c, 5, 79, 0
7, 116736, Note_on_c, 5, 69, 96
7, 116992, Note_off_c, 5, 69, 0
7, 116992, Note_on_c, 5, 72, 96
7, 117248, Note_off_c, 5, 72, 0
7, 117248, Note_on_c, 5, 74, 96
7, 117504, Note_off_c, 5, 74, 0
7, 117504, Note_on_c, 5, 70, 96
7, 117760, Note_off_c, 5, 70, 0
7, 117760, Note_on_c, 5, 72, 96
7, 118016, Note_off_c, 5, 72, 0
7, 118016, Note_on_c, 5, 69, 96
7, 118272, Note_off_c, 5, 69, 0
7, 118272, Note_on_c, 5, 67, 96
7, 118528, Note_off_c, 5, 67, 0
7, 118528, Note_on_c, 5, 65, 96
7, 118784, Note_off_c, 5, 65, 0
7, 118784, Note_on_c, 5, 77, 96
7, 119040, Note_off_c, 5, 77, 0
7, 119040, Note_on_c, 5, 69, 96
7, 119296, Note_off_c, 5, 69, 0
7, 119296, Note_on_c, 5, 67, 96
7, 119552, Note_off_c, 5, 67, 0
7, 119552, Note_on_c, 5, 65, 96
7, 119808, Note_off_c, 5, 65, 0
7, 119808, Note_on_c, 5, 70, 96
7, 120064, Note_off_c, 5, 70, 0
7, 120064, Note_on_c, 5, 74, 96
7, 120320, Note_off_c, 5, 74, 0
7, 120320, Note_on_c, 5, 75, 96
7, 120576, Note_off_c, 5, 75, 0
7, 120576, Note_on_c, 5, 72, 96
7, 120832, Note_off_c, 5, 72, 0
7, 120832, Note_on_c, 5, 74, 96
7, 121088, Note_off_c, 5, 74, 0
7, 121088, Note_on_c, 5, 70, 96
7, 121344, Note_off_c, 5, 70, 0
7, 121344, Note_on_c, 5, 69, 96
7, 121600, Note_off_c, 5, 69, 0
7, 121600, Note_on_c, 5, 67, 96
7, 121856, Note_off_c, 5, 67, 0
7, 121856, Note_on_c, 5, 77, 96
7, 122112, Note_off_c, 5, 77, 0
7, 122112, Note_on_c, 5, 70, 96
7, 122368, Note_off_c, 5, 70, 0
7, 122368, Note_on_c, 5, 69, 96
7, 122624, Note_off_c, 5, 69, 0
7, 122624, Note_on_c, 5, 67, 96
7, 122880, Note_off_c, 5, 67, 0
7, 122880, Note_on_c, 5, 72, 96
7, 123136, Note_off_c, 5, 72, 0
7, 123136, Note_on_c, 5, 76, 96
7, 123392, Note_off_c, 5, 76, 0
7, 123392, Note_on_c, 5, 77, 96
7, 123648, Note_off_c, 5, 77, 0
7, 123648, Note_on_c, 5, 74, 96
7, 123904, Note_off_c, 5, 74, 0
7, 123904, Note_on_c, 5, 72, 96
7, 124160, Note_off_c, 5, 72, 0
7, 124160, Note_on_c, 5, 81, 96
7, 124416, Note_off_c, 5, 81, 0
7, 124416, Note_on_c, 5, 82, 96
7, 124672, Note_off_c, 5, 82, 0
7, 124672, Note_on_c, 5, 79, 96
7, 124928, Note_off_c, 5, 79, 0
7, 124928, Note_on_c, 5, 72, 96
7, 125184, Note_off_c, 5, 72, 0
7, 125184, Note_on_c, 5, 77, 96
7, 125440, Note_off_c, 5, 77, 0
7, 125440, Note_on_c, 5, 79, 96
7, 125696, Note_off_c, 5, 79, 0
7, 125696, Note_on_c, 5, 76, 96
7, 125952, Note_off_c, 5, 76, 0
7, 125952, Note_on_c, 5, 77, 96
7, 126208, Note_off_c, 5, 77, 0
7, 126208, Note_on_c, 5, 72, 96
7, 126464, Note_off_c, 5, 72, 0
7, 126464, Note_on_c, 5, 74, 96
7, 126720, Note_off_c, 5, 74, 0
7, 126720, Note_on_c, 5, 70, 96
7, 126976, Note_off_c, 5, 70, 0
7, 126976, Note_on_c, 5, 72, 96
7, 127232, Note_off_c, 5, 72, 0
7, 127232, Note_on_c, 5, 69, 96
7, 127488, Note_off_c, 5, 69, 0
7, 127488, Note_on_c, 5, 67, 96
7, 127744, Note_off_c, 5, 67, 0
7, 127744, Note_on_c, 5, 65, 96
7, 128000, Note_off_c, 5, 65, 0
7, 128000, Note_on_c, 5, 77, 96
7, 128512, Note_off_c, 5, 77, 0
7, 138240, Note_on_c, 5, 74, 96
7, 139520, Note_off_c, 5, 74, 0
7, 139520, Note_on_c, 5, 72, 96
7, 139776, Note_off_c, 5, 72, 0
7, 139776, Note_on_c, 5, 70, 96
7, 140032, Note_off_c, 5, 70, 0
7, 140032, Note_on_c, 5, 69, 96
7, 140288, Note_off_c, 5, 69, 0
7, 140288, Note_on_c, 5, 70, 96
7, 140544, Note_off_c, 5, 70, 0
7, 140544, Note_on_c, 5, 74, 96
7, 140800, Note_off_c, 5, 74, 0
7, 140800, Note_on_c, 5, 77, 96
7, 141312, Note_off_c, 5, 77, 0
7, 141312, Note_on_c, 5, 77, 96
7, 142592, Note_off_c, 5, 77, 0
7, 142592, Note_on_c, 5, 75, 96
7, 142848, Note_off_c, 5, 75, 0
7, 142848, Note_on_c, 5, 74, 96
7, 143104, Note_off_c, 5, 74, 0
7, 143104, Note_on_c, 5, 72, 96
7, 143360, Note_off_c, 5, 72, 0
7, 143360, Note_on_c, 5, 74, 96
7, 143616, Note_off_c, 5, 74, 0
7, 143616, Note_on_c, 5, 77, 96
7, 143872, Note_off_c, 5, 77, 0
7, 143872, Note_on_c, 5, 80, 96
7, 144384, Note_off_c, 5, 80, 0
7, 144384, Note_on_c, 5, 80, 96
7, 145664, Note_off_c, 5, 80, 0
7, 145664, Note_on_c, 5, 79, 96
7, 145920, Note_off_c, 5, 79, 0
7, 145920, Note_on_c, 5, 77, 96
7, 146176, Note_off_c, 5, 77, 0
7, 146176, Note_on_c, 5, 75, 96
7, 146432, Note_off_c, 5, 75, 0
7, 146432, Note_on_c, 5, 74, 96
7, 146688, Note_off_c, 5, 74, 0
7, 146688, Note_on_c, 5, 72, 96
7, 146944, Note_off_c, 5, 72, 0
7, 146944, Note_on_c, 5, 71, 96
7, 147200, Note_off_c, 5, 71, 0
7, 147200, Note_on_c, 5, 69, 96
7, 147456, Note_off_c, 5, 69, 0
7, 147456, Note_on_c, 5, 67, 96
7, 147712, Note_off_c, 5, 67, 0
7, 147712, Note_on_c, 5, 71, 96
7, 147968, Note_off_c, 5, 71, 0
7, 147968, Note_on_c, 5, 74, 96
7, 148224, Note_off_c, 5, 74, 0
7, 148224, Note_on_c, 5, 77, 96
7, 148480, Note_off_c, 5, 77, 0
7, 148480, Note_on_c, 5, 75, 96
7, 148736, Note_off_c, 5, 75, 0
7, 148736, Note_on_c, 5, 74, 96
7, 148992, Note_off_c, 5, 74, 0
7, 148992, Note_on_c, 5, 75, 96
7, 149504, Note_off_c, 5, 75, 0
7, 159744, Note_on_c, 5, 58, 96
7, 161024, Note_off_c, 5, 58, 0
7, 161024, Note_on_c, 5, 60, 96
7, 161280, Note_off_c, 5, 60, 0
7, 161280, Note_on_c, 5, 62, 96
7, 161536, Note_off_c, 5, 62, 0
7, 161536, Note_on_c, 5, 63, 96
7, 161792, Note_off_c, 5, 63, 0
7, 161792, Note_on_c, 5, 65, 96
7, 162048, Note_off_c, 5, 65, 0
7, 162048, Note_on_c, 5, 67, 96
7, 162304, Note_off_c, 5, 67, 0
7, 162304, Note_on_c, 5, 68, 96
7, 162560, Note_off_c, 5, 68, 0
7, 162560, Note_on_c, 5, 65, 96
7, 162816, Note_off_c, 5, 65, 0
7, 162816, Note_on_c, 5, 62, 96
7, 164096, Note_off_c, 5, 62, 0
7, 164096, Note_on_c, 5, 63, 96
7, 164352, Note_off_c, 5, 63, 0
7, 164352, Note_on_c, 5, 65, 96
7, 164608, Note_off_c, 5, 65, 0
7, 164608, Note_on_c, 5, 67, 96
7, 164864, Note_off_c, 5, 67, 0
7, 164864, Note_on_c, 5, 68, 96
7, 165120, Note_off_c, 5, 68, 0
7, 165120, Note_on_c, 5, 70, 96
7, 165376, Note_off_c, 5, 70, 0
7, 165376, Note_on_c, 5, 72, 96
7, 165632, Note_off_c, 5, 72, 0
7, 165632, Note_on_c, 5, 68, 96
7, 165888, Note_off_c, 5, 68, 0
7, 165888, Note_on_c, 5, 65, 96
7, 166144, Note_off_c, 5, 65, 0
7, 166144, Note_on_c, 5, 72, 96
7, 166400, Note_off_c, 5, 72, 0
7, 166400, Note_on_c, 5, 74, 96
7, 166656, Note_off_c, 5, 74, 0
7, 166656, Note_on_c, 5, 75, 96
7, 166912, Note_off_c, 5, 75, 0
7, 166912, Note_on_c, 5, 74, 96
7, 167168, Note_off_c, 5, 74, 0
7, 167168, Note_on_c, 5, 72, 96
7, 167424, Note_off_c, 5, 72, 0
7, 167424, Note_on_c, 5, 70, 96
7, 167680, Note_off_c, 5, 70, 0
7, 167680, Note_on_c, 5, 68, 96
7, 167936, Note_off_c, 5, 68, 0
7, 167936, Note_on_c, 5, 67, 96
7, 168192, Note_off_c, 5, 67, 0
7, 168192, Note_on_c, 5, 65, 96
7, 168448, Note_off_c, 5, 65, 0
7, 168448, Note_on_c, 5, 63, 96
7, 168704, Note_off_c, 5, 63, 0
7, 168704, Note_on_c, 5, 62, 96
7, 168960, Note_off_c, 5, 62, 0
7, 168960, Note_on_c, 5, 60, 96
7, 169216, Note_off_c, 5, 60, 0
7, 169216, Note_on_c, 5, 58, 96
7, 169472, Note_off_c, 5, 58, 0
7, 169472, Note_on_c, 5, 62, 96
7, 169728, Note_off_c, 5, 62, 0
7, 169728, Note_on_c, 5, 65, 96
7, 169984, Note_off_c, 5, 65, 0
7, 169984, Note_on_c, 5, 68, 96
7, 170240, Note_off_c, 5, 68, 0
7, 170240, Note_on_c, 5, 65, 96
7, 170496, Note_off_c, 5, 65, 0
7, 170496, Note_on_c, 5, 67, 96
7, 171776, Note_off_c, 5, 67, 0
7, 172032, Note_on_c, 5, 69, 96
7, 172288, Note_off_c, 5, 69, 0
7, 172288, Note_on_c, 5, 70, 96
7, 172416, Note_off_c, 5, 70, 0
7, 172416, Note_on_c, 5, 72, 96
7, 172544, Note_off_c, 5, 72, 0
7, 172544, Note_on_c, 5, 63, 96
7, 172800, Note_off_c, 5, 63, 0
7, 172800, Note_on_c, 5, 62, 96
7, 173056, Note_off_c, 5, 62, 0
7, 173056, Note_on_c, 5, 63, 96
7, 173312, Note_off_c, 5, 63, 0
7, 173312, Note_on_c, 5, 69, 96
7, 173568, Note_off_c, 5, 69, 0
7, 173568, Note_on_c, 5, 67, 96
7, 173824, Note_off_c, 5, 67, 0
7, 173824, Note_on_c, 5, 69, 96
7, 174080, Note_off_c, 5, 69, 0
7, 174080, Note_on_c, 5, 65, 96
7, 174336, Note_off_c, 5, 65, 0
7, 174336, Note_on_c, 5, 69, 96
7, 174592, Note_off_c, 5, 69, 0
7, 174592, Note_on_c, 5, 63, 96
7, 174848, Note_off_c, 5, 63, 0
7, 174848, Note_on_c, 5, 69, 96
7, 175104, Note_off_c, 5, 69, 0
7, 175104, Note_on_c, 5, 70, 96
7, 175360, Note_off_c, 5, 70, 0
7, 175360, Note_on_c, 5, 72, 96
7, 175488, Note_off_c, 5, 72, 0
7, 175488, Note_on_c, 5, 74, 96
7, 175616, Note_off_c, 5, 74, 0
7, 175616, Note_on_c, 5, 65, 96
7, 175872, Note_off_c, 5, 65, 0
7, 175872, Note_on_c, 5, 63, 96
7, 176128, Note_off_c, 5, 63, 0
7, 176128, Note_on_c, 5, 65, 96
7, 176384, Note_off_c, 5, 65, 0
7, 176384, Note_on_c, 5, 70, 96
7, 176640, Note_off_c, 5, 70, 0
7, 176640, Note_on_c, 5, 69, 96
7, 176896, Note_off_c, 5, 69, 0
7, 176896, Note_on_c, 5, 70, 96
7, 177152, Note_off_c, 5, 70, 0
7, 177152, Note_on_c, 5, 67, 96
7, 177408, Note_off_c, 5, 67, 0
7, 177408, Note_on_c, 5, 70, 96
7, 177664, Note_off_c, 5, 70, 0
7, 177664, Note_on_c, 5, 65, 96
7, 177920, Note_off_c, 5, 65, 0
7, 177920, Note_on_c, 5, 70, 96
7, 178176, Note_off_c, 5, 70, 0
7, 178176, Note_on_c, 5, 72, 96
7, 178432, Note_off_c, 5, 72, 0
7, 178432, Note_on_c, 5, 74, 96
7, 178560, Note_off_c, 5, 74, 0
7, 178560, Note_on_c, 5, 75, 96
7, 178688, Note_off_c, 5, 75, 0
7, 178688, Note_on_c, 5, 74, 96
7, 178944, Note_off_c, 5, 74, 0
7, 178944, Note_on_c, 5, 75, 96
7, 179200, Note_off_c, 5, 75, 0
7, 179200, Note_on_c, 5, 72, 96
7, 179456, Note_off_c, 5, 72, 0
7, 179456, Note_on_c, 5, 75, 96
7, 179712, Note_off_c, 5, 75, 0
7, 179712, Note_on_c, 5, 70, 96
7, 179968, Note_off_c, 5, 70, 0
7, 179968, Note_on_c, 5, 75, 96
7, 180224, Note_off_c, 5, 75, 0
7, 180224, Note_on_c, 5, 69, 96
7, 180480, Note_off_c, 5, 69, 0
7, 180480, Note_on_c, 5, 75, 96
7, 180736, Note_off_c, 5, 75, 0
7, 180736, Note_on_c, 5, 67, 96
7, 180992, Note_off_c, 5, 67, 0
7, 180992, Note_on_c, 5, 75, 96
7, 181248, Note_off_c, 5, 75, 0
7, 181248, Note_on_c, 5, 69, 96
7, 181504, Note_off_c, 5, 69, 0
7, 181504, Note_on_c, 5, 70, 96
7, 181632, Note_off_c, 5, 70, 0
7, 181632, Note_on_c, 5, 72, 96
7, 181760, Note_off_c, 5, 72, 0
7, 181760, Note_on_c, 5, 70, 96
7, 182016, Note_off_c, 5, 70, 0
7, 182016, Note_on_c, 5, 72, 96
7, 182272, Note_off_c, 5, 72, 0
7, 182272, Note_on_c, 5, 69, 96
7, 182528, Note_off_c, 5, 69, 0
7, 182528, Note_on_c, 5, 72, 96
7, 182784, Note_off_c, 5, 72, 0
7, 182784, Note_on_c, 5, 67, 96
7, 183040, Note_off_c, 5, 67, 0
7, 183040, Note_on_c, 5, 72, 96
7, 183296, Note_off_c, 5, 72, 0
7, 183296, Note_on_c, 5, 65, 96
7, 183552, Note_off_c, 5, 65, 0
7, 183552, Note_on_c, 5, 72, 96
7, 183808, Note_off_c, 5, 72, 0
7, 183808, Note_on_c, 5, 63, 96
7, 184064, Note_off_c, 5, 63, 0
7, 184064, Note_on_c, 5, 72, 96
7, 184320, Note_off_c, 5, 72, 0
7, 184320, Note_on_c, 5, 62, 96
7, 184576, Note_off_c, 5, 62, 0
7, 184576, Note_on_c, 5, 65, 96
7, 184832, Note_off_c, 5, 65, 0
7, 184832, Note_on_c, 5, 67, 96
7, 185088, Note_off_c, 5, 67, 0
7, 185088, Note_on_c, 5, 63, 96
7, 185344, Note_off_c, 5, 63, 0
7, 185344, Note_on_c, 5, 65, 96
7, 185600, Note_off_c, 5, 65, 0
7, 185600, Note_on_c, 5, 62, 96
7, 185856, Note_off_c, 5, 62, 0
7, 185856, Note_on_c, 5, 60, 96
7, 186112, Note_off_c, 5, 60, 0
7, 186112, Note_on_c, 5, 58, 96
7, 186368, Note_off_c, 5, 58, 0
7, 186368, Note_on_c, 5, 70, 96
7, 186624, Note_off_c, 5, 70, 0
7, 186624, Note_on_c, 5, 62, 96
7, 186880, Note_off_c, 5, 62, 0
7, 186880, Note_on_c, 5, 60, 96
7, 187136, Note_off_c, 5, 60, 0
7, 187136, Note_on_c, 5, 58, 96
7, 187392, Note_off_c, 5, 58, 0
7, 187392, Note_on_c, 5, 63, 96
7, 187648, Note_off_c, 5, 63, 0
7, 187648, Note_on_c, 5, 67, 96
7, 187904, Note_off_c, 5, 67, 0
7, 187904, Note_on_c, 5, 68, 96
7, 188160, Note_off_c, 5, 68, 0
7, 188160, Note_on_c, 5, 65, 96
7, 188416, Note_off_c, 5, 65, 0
7, 188416, Note_on_c, 5, 67, 96
7, 188672, Note_off_c, 5, 67, 0
7, 188672, Note_on_c, 5, 63, 96
7, 188928, Note_off_c, 5, 63, 0
7, 188928, Note_on_c, 5, 62, 96
7, 189184, Note_off_c, 5, 62, 0
7, 189184, Note_on_c, 5, 60, 96
7, 189440, Note_off_c, 5, 60, 0
7, 189440, Note_on_c, 5, 70, 96
7, 189696, Note_off_c, 5, 70, 0
7, 189696, Note_on_c, 5, 63, 96
7, 189952, Note_off_c, 5, 63, 0
7, 189952, Note_on_c, 5, 62, 96
7, 190208, Note_off_c, 5, 62, 0
7, 190208, Note_on_c, 5, 60, 96
7, 190464, Note_off_c, 5, 60, 0
7, 190464, Note_on_c, 5, 65, 96
7, 190720, Note_off_c, 5, 65, 0
7, 190720, Note_on_c, 5, 69, 96
7, 190976, Note_off_c, 5, 69, 0
7, 190976, Note_on_c, 5, 70, 96
7, 191232, Note_off_c, 5, 70, 0
7, 191232, Note_on_c, 5, 67, 96
7, 191488, Note_off_c, 5, 67, 0
7, 191488, Note_on_c, 5, 65, 96
7, 191744, Note_off_c, 5, 65, 0
7, 191744, Note_on_c, 5, 74, 96
7, 192000, Note_off_c, 5, 74, 0
7, 192000, Note_on_c, 5, 75, 96
7, 192256, Note_off_c, 5, 75, 0
7, 192256, Note_on_c, 5, 72, 96
7, 192512, Note_off_c, 5, 72, 0
7, 192512, Note_on_c, 5, 65, 96
7, 192768, Note_off_c, 5, 65, 0
7, 192768, Note_on_c, 5, 70, 96
7, 193024, Note_off_c, 5, 70, 0
7, 193024, Note_on_c, 5, 72, 96
7, 193280, Note_off_c, 5, 72, 0
7, 193280, Note_on_c, 5, 69, 96
7, 193536, Note_off_c, 5, 69, 0
7, 193536, Note_on_c, 5, 70, 96
7, 193792, Note_off_c, 5, 70, 0
7, 193792, Note_on_c, 5, 65, 96
7, 194048, Note_off_c, 5, 65, 0
7, 194048, Note_on_c, 5, 67, 96
7, 194304, Note_off_c, 5, 67, 0
7, 194304, Note_on_c, 5, 63, 96
7, 194560, Note_off_c, 5, 63, 0
7, 194560, Note_on_c, 5, 65, 96
7, 194816, Note_off_c, 5, 65, 0
7, 194816, Note_on_c, 5, 62, 96
7, 195072, Note_off_c, 5, 62, 0
7, 195072, Note_on_c, 5, 60, 96
7, 195328, Note_off_c, 5, 60, 0
7, 195328, Note_on_c, 5, 58, 96
7, 195584, Note_off_c, 5, 58, 0
7, 195584, Note_on_c, 5, 70, 96
7, 195840, Note_off_c, 5, 70, 0
7, 195840, Note_on_c, 5, 62, 96
7, 196096, Note_off_c, 5, 62, 0
7, 196096, Note_on_c, 5, 60, 96
7, 196352, Note_off_c, 5, 60, 0
7, 196352, Note_on_c, 5, 58, 96
7, 196608, Note_off_c, 5, 58, 0
7, 196608, Note_on_c, 5, 67, 96
7, 196864, Note_off_c, 5, 67, 0
7, 196864, Note_on_c, 5, 70, 96
7, 197120, Note_off_c, 5, 70, 0
7, 197120, Note_on_c, 5, 72, 96
7, 197376, Note_off_c, 5, 72, 0
7, 197376, Note_on_c, 5, 68, 96
7, 197632, Note_off_c, 5, 68, 0
7, 197632, Note_on_c, 5, 70, 96
7, 197888, Note_off_c, 5, 70, 0
7, 197888, Note_on_c, 5, 67, 96
7, 198144, Note_off_c, 5, 67, 0
7, 198144, Note_on_c, 5, 65, 96
7, 198400, Note_off_c, 5, 65, 0
7, 198400, Note_on_c, 5, 63, 96
7, 198656, Note_off_c, 5, 63, 0
7, 198656, Note_on_c, 5, 75, 96
7, 198912, Note_off_c, 5, 75, 0
7, 198912, Note_on_c, 5, 67, 96
7, 199168, Note_off_c, 5, 67, 0
7, 199168, Note_on_c, 5, 65, 96
7, 199424, Note_off_c, 5, 65, 0
7, 199424, Note_on_c, 5, 63, 96
7, 199680, Note_off_c, 5, 63, 0
7, 199680, Note_on_c, 5, 69, 96
7, 199936, Note_off_c, 5, 69, 0
7, 199936, Note_on_c, 5, 72, 96
7, 200192, Note_off_c, 5, 72, 0
7, 200192, Note_on_c, 5, 74, 96
7, 200448, Note_off_c, 5, 74, 0
7, 200448, Note_on_c, 5, 70, 96
7, 200704, Note_off_c, 5, 70, 0
7, 200704, Note_on_c, 5, 72, 96
7, 200960, Note_off_c, 5, 72, 0
7, 200960, Note_on_c, 5, 69, 96
7, 201216, Note_off_c, 5, 69, 0
7, 201216, Note_on_c, 5, 67, 96
7, 201472, Note_off_c, 5, 67, 0
7, 201472, Note_on_c, 5, 65, 96
7, 201728, Note_off_c, 5, 65, 0
7, 201728, Note_on_c, 5, 77, 96
7, 201984, Note_off_c, 5, 77, 0
7, 201984, Note_on_c, 5, 69, 96
7, 202240, Note_off_c, 5, 69, 0
7, 202240, Note_on_c, 5, 67, 96
7, 202496, Note_off_c, 5, 67, 0
7, 202496, Note_on_c, 5, 65, 96
7, 202752, Note_off_c, 5, 65, 0
7, 202752, Note_on_c, 5, 70, 96
7, 203008, Note_off_c, 5, 70, 0
7, 203008, Note_on_c, 5, 74, 96
7, 203264, Note_off_c, 5, 74, 0
7, 203264, Note_on_c, 5, 75, 96
7, 203520, Note_off_c, 5, 75, 0
7, 203520, Note_on_c, 5, 72, 96
7, 203776, Note_off_c, 5, 72, 0
7, 203776, Note_on_c, 5, 74, 96
7, 204032, Note_off_c, 5, 74, 0
7, 204032, Note_on_c, 5, 70, 96
7, 204288, Note_off_c, 5, 70, 0
7, 204288, Note_on_c, 5, 69, 96
7, 204544, Note_off_c, 5, 69, 0
7, 204544, Note_on_c, 5, 67, 96
7, 204800, Note_off_c, 5, 67, 0
7, 204800, Note_on_c, 5, 77, 96
7, 205056, Note_off_c, 5, 77, 0
7, 205056, Note_on_c, 5, 70, 96
7, 205312, Note_off_c, 5, 70, 0
7, 205312, Note_on_c, 5, 69, 96
7, 205568, Note_off_c, 5, 69, 0
7, 205568, Note_on_c, 5, 67, 96
7, 205824, Note_off_c, 5, 67, 0
7, 205824, Note_on_c, 5, 72, 96
7, 206080, Note_off_c, 5, 72, 0
7, 206080, Note_on_c, 5, 75, 96
7, 206336, Note_off_c, 5, 75, 0
7, 206336, Note_on_c, 5, 77, 96
7, 206592, Note_off_c, 5, 77, 0
7, 206592, Note_on_c, 5, 74, 96
7, 206848, Note_off_c, 5, 74, 0
7, 206848, Note_on_c, 5, 75, 96
7, 207104, Note_off_c, 5, 75, 0
7, 207104, Note_on_c, 5, 72, 96
7, 207360, Note_off_c, 5, 72, 0
7, 207360, Note_on_c, 5, 70, 96
7, 207616, Note_off_c, 5, 70, 0
7, 207616, Note_on_c, 5, 69, 96
7, 207872, Note_off_c, 5, 69, 0
7, 207872, Note_on_c, 5, 77, 96
7, 208128, Note_off_c, 5, 77, 0
7, 208128, Note_on_c, 5, 72, 96
7, 208384, Note_off_c, 5, 72, 0
7, 208384, Note_on_c, 5, 70, 96
7, 208640, Note_off_c, 5, 70, 0
7, 208640, Note_on_c, 5, 69, 96
7, 208896, Note_off_c, 5, 69, 0
7, 208896, Note_on_c, 5, 74, 96
7, 209152, Note_off_c, 5, 74, 0
7, 209152, Note_on_c, 5, 77, 96
7, 209408, Note_off_c, 5, 77, 0
7, 209408, Note_on_c, 5, 79, 96
7, 209664, Note_off_c, 5, 79, 0
7, 209664, Note_on_c, 5, 75, 96
7, 209920, Note_off_c, 5, 75, 0
7, 209920, Note_on_c, 5, 77, 96
7, 210176, Note_off_c, 5, 77, 0
7, 210176, Note_on_c, 5, 74, 96
7, 210432, Note_off_c, 5, 74, 0
7, 210432, Note_on_c, 5, 72, 96
7, 210688, Note_off_c, 5, 72, 0
7, 210688, Note_on_c, 5, 70, 96
7, 210944, Note_off_c, 5, 70, 0
7, 210944, Note_on_c, 5, 80, 96
7, 211200, Note_off_c, 5, 80, 0
7, 211200, Note_on_c, 5, 74, 96
7, 211456, Note_off_c, 5, 74, 0
7, 211456, Note_on_c, 5, 72, 96
7, 211712, Note_off_c, 5, 72, 0
7, 211712, Note_on_c, 5, 70, 96
7, 211968, Note_off_c, 5, 70, 0
7, 211968, Note_on_c, 5, 79, 96
7, 212224, Note_off_c, 5, 79, 0
7, 212224, Note_on_c, 5, 70, 96
7, 212480, Note_off_c, 5, 70, 0
7, 212480, Note_on_c, 5, 72, 96
7, 212736, Note_off_c, 5, 72, 0
7, 212736, Note_on_c, 5, 68, 96
7, 212992, Note_off_c, 5, 68, 0
7, 212992, Note_on_c, 5, 70, 96
7, 213248, Note_off_c, 5, 70, 0
7, 213248, Note_on_c, 5, 67, 96
7, 213504, Note_off_c, 5, 67, 0
7, 213504, Note_on_c, 5, 65, 96
7, 213760, Note_off_c, 5, 65, 0
7, 213760, Note_on_c, 5, 63, 96
7, 214016, Note_off_c, 5, 63, 0
7, 214016, Note_on_c, 5, 75, 96
7, 214272, Note_off_c, 5, 75, 0
7, 214272, Note_on_c, 5, 70, 96
7, 214528, Note_off_c, 5, 70, 0
7, 214528, Note_on_c, 5, 69, 96
7, 214784, Note_off_c, 5, 69, 0
7, 214784, Note_on_c, 5, 67, 96
7, 215040, Note_off_c, 5, 67, 0
7, 215040, Note_on_c, 5, 66, 96
7, 215296, Note_off_c, 5, 66, 0
7, 215296, Note_on_c, 5, 69, 96
7, 215552, Note_off_c, 5, 69, 0
7, 215552, Note_on_c, 5, 70, 96
7, 215808, Note_off_c, 5, 70, 0
7, 215808, Note_on_c, 5, 67, 96
7, 216064, Note_off_c, 5, 67, 0
7, 216064, Note_on_c, 5, 69, 96
7, 216320, Note_off_c, 5, 69, 0
7, 216320, Note_on_c, 5, 66, 96
7, 216576, Note_off_c, 5, 66, 0
7, 216576, Note_on_c, 5, 63, 96
7, 216832, Note_off_c, 5, 63, 0
7, 216832, Note_on_c, 5, 62, 96
7, 217088, Note_off_c, 5, 62, 0
7, 217088, Note_on_c, 5, 74, 96
7, 217344, Note_off_c, 5, 74, 0
7, 217344, Note_on_c, 5, 68, 96
7, 217600, Note_off_c, 5, 68, 0
7, 217600, Note_on_c, 5, 67, 96
7, 217856, Note_off_c, 5, 67, 0
7, 217856, Note_on_c, 5, 65, 96
7, 218112, Note_off_c, 5, 65, 0
7, 218112, Note_on_c, 5, 63, 96
7, 218368, Note_off_c, 5, 63, 0
7, 218368, Note_on_c, 5, 67, 96
7, 218624, Note_off_c, 5, 67, 0
7, 218624, Note_on_c, 5, 68, 96
7, 218880, Note_off_c, 5, 68, 0
7, 218880, Note_on_c, 5, 65, 96
7, 219136, Note_off_c, 5, 65, 0
7, 219136, Note_on_c, 5, 67, 96
7, 219392, Note_off_c, 5, 67, 0
7, 219392, Note_on_c, 5, 63, 96
7, 219648, Note_off_c, 5, 63, 0
7, 219648, Note_on_c, 5, 62, 96
7, 219904, Note_off_c, 5, 62, 0
7, 219904, Note_on_c, 5, 60, 96
7, 220160, Note_off_c, 5, 60, 0
7, 220160, Note_on_c, 5, 72, 96
7, 220416, Note_off_c, 5, 72, 0
7, 220416, Note_on_c, 5, 67, 96
7, 220672, Note_off_c, 5, 67, 0
7, 220672, Note_on_c, 5, 65, 96
7, 220928, Note_off_c, 5, 65, 0
7, 220928, Note_on_c, 5, 63, 96
7, 221184, Note_off_c, 5, 63, 0
7, 221184, Note_on_c, 5, 62, 96
7, 221696, Note_off_c, 5, 62, 0
7, 221696, Note_on_c, 5, 74, 96
7, 222464, Note_off_c, 5, 74, 0
7, 222464, Note_on_c, 5, 72, 96
7, 222720, Note_off_c, 5, 72, 0
7, 222720, Note_on_c, 5, 70, 96
7, 222976, Note_off_c, 5, 70, 0
7, 222976, Note_on_c, 5, 69, 96
7, 223232, Note_off_c, 5, 69, 0
7, 223232, Note_on_c, 5, 70, 96
7, 223488, Note_off_c, 5, 70, 0
7, 223488, Note_on_c, 5, 74, 96
7, 223744, Note_off_c, 5, 74, 0
7, 223744, Note_on_c, 5, 79, 96
7, 224256, Note_off_c, 5, 79, 0
7, 224256, Note_on_c, 5, 79, 96
7, 225536, Note_off_c, 5, 79, 0
7, 225536, Note_on_c, 5, 77, 96
7, 225792, Note_off_c, 5, 77, 0
7, 225792, Note_on_c, 5, 76, 96
7, 226048, Note_off_c, 5, 76, 0
7, 226048, Note_on_c, 5, 74, 96
7, 226304, Note_off_c, 5, 74, 0
7, 226304, Note_on_c, 5, 76, 96
7, 226560, Note_off_c, 5, 76, 0
7, 226560, Note_on_c, 5, 79, 96
7, 226816, Note_off_c, 5, 79, 0
7, 226816, Note_on_c, 5, 84, 96
7, 227328, Note_off_c, 5, 84, 0
7, 227328, Note_on_c, 5, 84, 96
7, 228608, Note_off_c, 5, 84, 0
7, 228608, Note_on_c, 5, 82, 96
7, 228864, Note_off_c, 5, 82, 0
7, 228864, Note_on_c, 5, 81, 96
7, 229120, Note_off_c, 5, 81, 0
7, 229120, Note_on_c, 5, 79, 96
7, 229376, Note_off_c, 5, 79, 0
7, 229376, Note_on_c, 5, 77, 96
7, 229632, Note_off_c, 5, 77, 0
7, 229632, Note_on_c, 5, 75, 96
7, 229888, Note_off_c, 5, 75, 0
7, 229888, Note_on_c, 5, 74, 96
7, 230144, Note_off_c, 5, 74, 0
7, 230144, Note_on_c, 5, 72, 96
7, 230400, Note_off_c, 5, 72, 0
7, 230400, Note_on_c, 5, 70, 96
7, 230656, Note_off_c, 5, 70, 0
7, 230656, Note_on_c, 5, 69, 96
7, 230912, Note_off_c, 5, 69, 0
7, 230912, Note_on_c, 5, 67, 96
7, 231168, Note_off_c, 5, 67, 0
7, 231168, Note_on_c, 5, 65, 96
7, 231424, Note_off_c, 5, 65, 0
7, 231424, Note_on_c, 5, 64, 96
7, 231680, Note_off_c, 5, 64, 0
7, 231680, Note_on_c, 5, 67, 96
7, 231936, Note_off_c, 5, 67, 0
7, 231936, Note_on_c, 5, 70, 96
7, 232192, Note_off_c, 5, 70, 0
7, 232192, Note_on_c, 5, 74, 96
7, 232448, Note_off_c, 5, 74, 0
7, 232448, Note_on_c, 5, 72, 96
7, 232704, Note_off_c, 5, 72, 0
7, 232704, Note_on_c, 5, 69, 96
7, 232960, Note_off_c, 5, 69, 0
7, 232960, Note_on_c, 5, 70, 96
7, 233472, Note_off_c, 5, 70, 0
7, 233472, Note_on_c, 5, 69, 96
7, 234752, Note_off_c, 5, 69, 0
7, 234752, Note_on_c, 5, 67, 96
7, 235008, Note_off_c, 5, 67, 0
7, 235008, Note_on_c, 5, 65, 96
7, 235264, Note_off_c, 5, 65, 0
7, 235264, Note_on_c, 5, 64, 96
7, 235520, Note_off_c, 5, 64, 0
7, 235520, Note_on_c, 5, 65, 96
7, 235776, Note_off_c, 5, 65, 0
7, 235776, Note_on_c, 5, 69, 96
7, 236032, Note_off_c, 5, 69, 0
7, 236032, Note_on_c, 5, 72, 96
7, 236544, Note_off_c, 5, 72, 0
7, 236544, Note_on_c, 5, 72, 96
7, 237824, Note_off_c, 5, 72, 0
7, 237824, Note_on_c, 5, 70, 96
7, 238080, Note_off_c, 5, 70, 0
7, 238080, Note_on_c, 5, 69, 96
7, 238336, Note_off_c, 5, 69, 0
7, 238336, Note_on_c, 5, 67, 96
7, 238592, Note_off_c, 5, 67, 0
7, 238592, Note_on_c, 5, 69, 96
7, 238848, Note_off_c, 5, 69, 0
7, 238848, Note_on_c, 5, 72, 96
7, 239104, Note_off_c, 5, 72, 0
7, 239104, Note_on_c, 5, 75, 96
7, 239616, Note_off_c, 5, 75, 0
7, 239616, Note_on_c, 5, 75, 96
7, 240896, Note_off_c, 5, 75, 0
7, 240896, Note_on_c, 5, 74, 96
7, 241152, Note_off_c, 5, 74, 0
7, 241152, Note_on_c, 5, 72, 96
7, 241408, Note_off_c, 5, 72, 0
7, 241408, Note_on_c, 5, 70, 96
7, 241664, Note_off_c, 5, 70, 0
7, 241664, Note_on_c, 5, 69, 96
7, 241920, Note_off_c, 5, 69, 0
7, 241920, Note_on_c, 5, 67, 96
7, 242176, Note_off_c, 5, 67, 0
7, 242176, Note_on_c, 5, 66, 96
7, 242432, Note_off_c, 5, 66, 0
7, 242432, Note_on_c, 5, 64, 96
7, 242688, Note_off_c, 5, 64, 0
7, 242688, Note_on_c, 5, 62, 96
7, 242944, Note_off_c, 5, 62, 0
7, 242944, Note_on_c, 5, 66, 96
7, 243200, Note_off_c, 5, 66, 0
7, 243200, Note_on_c, 5, 69, 96
7, 243456, Note_off_c, 5, 69, 0
7, 243456, Note_on_c, 5, 72, 96
7, 243712, Note_off_c, 5, 72, 0
7, 243712, Note_on_c, 5, 70, 96
7, 243968, Note_off_c, 5, 70, 0
7, 243968, Note_on_c, 5, 69, 96
7, 244224, Note_off_c, 5, 69, 0
7, 244224, Note_on_c, 5, 70, 96
7, 245504, Note_off_c, 5, 70, 0
7, 245760, Note_on_c, 5, 60, 96
7, 247040, Note_off_c, 5, 60, 0
7, 247040, Note_on_c, 5, 62, 96
7, 247296, Note_off_c, 5, 62, 0
7, 247296, Note_on_c, 5, 64, 96
7, 247552, Note_off_c, 5, 64, 0
7, 247552, Note_on_c, 5, 65, 96
7, 247808, Note_off_c, 5, 65, 0
7, 247808, Note_on_c, 5, 67, 96
7, 248064, Note_off_c, 5, 67, 0
7, 248064, Note_on_c, 5, 69, 96
7, 248320, Note_off_c, 5, 69, 0
7, 248320, Note_on_c, 5, 70, 96
7, 248576, Note_off_c, 5, 70, 0
7, 248576, Note_on_c, 5, 67, 96
7, 248832, Note_off_c, 5, 67, 0
7, 248832, Note_on_c, 5, 64, 96
7, 250112, Note_off_c, 5, 64, 0
7, 250112, Note_on_c, 5, 65, 96
7, 250368, Note_off_c, 5, 65, 0
7, 250368, Note_on_c, 5, 67, 96
7, 250624, Note_off_c, 5, 67, 0
7, 250624, Note_on_c, 5, 69, 96
7, 250880, Note_off_c, 5, 69, 0
7, 250880, Note_on_c, 5, 70, 96
7, 251136, Note_off_c, 5, 70, 0
7, 251136, Note_on_c, 5, 72, 96
7, 251392, Note_off_c, 5, 72, 0
7, 251392, Note_on_c, 5, 74, 96
7, 251648, Note_off_c, 5, 74, 0
7, 251648, Note_on_c, 5, 70, 96
7, 251904, Note_off_c, 5, 70, 0
7, 251904, Note_on_c, 5, 67, 96
7, 252160, Note_off_c, 5, 67, 0
7, 252160, Note_on_c, 5, 74, 96
7, 252416, Note_off_c, 5, 74, 0
7, 252416, Note_on_c, 5, 76, 96
7, 252672, Note_off_c, 5, 76, 0
7, 252672, Note_on_c, 5, 77, 96
7, 252928, Note_off_c, 5, 77, 0
7, 252928, Note_on_c, 5, 76, 96
7, 253184, Note_off_c, 5, 76, 0
7, 253184, Note_on_c, 5, 74, 96
7, 253440, Note_off_c, 5, 74, 0
7, 253440, Note_on_c, 5, 72, 96
7, 253696, Note_off_c, 5, 72, 0
7, 253696, Note_on_c, 5, 70, 96
7, 253952, Note_off_c, 5, 70, 0
7, 253952, Note_on_c, 5, 69, 96
7, 254208, Note_off_c, 5, 69, 0
7, 254208, Note_on_c, 5, 67, 96
7, 254464, Note_off_c, 5, 67, 0
7, 254464, Note_on_c, 5, 65, 96
7, 254720, Note_off_c, 5, 65, 0
7, 254720, Note_on_c, 5, 64, 96
7, 254976, Note_off_c, 5, 64, 0
7, 254976, Note_on_c, 5, 62, 96
7, 255232, Note_off_c, 5, 62, 0
7, 255232, Note_on_c, 5, 60, 96
7, 255488, Note_off_c, 5, 60, 0
7, 255488, Note_on_c, 5, 64, 96
7, 255744, Note_off_c, 5, 64, 0
7, 255744, Note_on_c, 5, 67, 96
7, 256000, Note_off_c, 5, 67, 0
7, 256000, Note_on_c, 5, 70, 96
7, 256256, Note_off_c, 5, 70, 0
7, 256256, Note_on_c, 5, 67, 96
7, 256512, Note_off_c, 5, 67, 0
7, 256512, Note_on_c, 5, 69, 96
7, 257024, Note_off_c, 5, 69, 0
7, 267264, Note_on_c, 5, 74, 96
7, 267520, Note_off_c, 5, 74, 0
7, 267520, Note_on_c, 5, 75, 96
7, 267648, Note_off_c, 5, 75, 0
7, 267648, Note_on_c, 5, 77, 96
7, 267776, Note_off_c, 5, 77, 0
7, 267776, Note_on_c, 5, 68, 96
7, 268032, Note_off_c, 5, 68, 0
7, 268032, Note_on_c, 5, 67, 96
7, 268288, Note_off_c, 5, 67, 0
7, 268288, Note_on_c, 5, 68, 96
7, 268544, Note_off_c, 5, 68, 0
7, 268544, Note_on_c, 5, 74, 96
7, 268800, Note_off_c, 5, 74, 0
7, 268800, Note_on_c, 5, 72, 96
7, 269056, Note_off_c, 5, 72, 0
7, 269056, Note_on_c, 5, 74, 96
7, 269312, Note_off_c, 5, 74, 0
7, 269312, Note_on_c, 5, 70, 96
7, 269568, Note_off_c, 5, 70, 0
7, 269568, Note_on_c, 5, 74, 96
7, 269824, Note_off_c, 5, 74, 0
7, 269824, Note_on_c, 5, 69, 96
7, 270080, Note_off_c, 5, 69, 0
7, 270080, Note_on_c, 5, 74, 96
7, 270336, Note_off_c, 5, 74, 0
7, 270336, Note_on_c, 5, 75, 96
7, 270592, Note_off_c, 5, 75, 0
7, 270592, Note_on_c, 5, 77, 96
7, 270720, Note_off_c, 5, 77, 0
7, 270720, Note_on_c, 5, 79, 96
7, 270848, Note_off_c, 5, 79, 0
7, 270848, Note_on_c, 5, 70, 96
7, 271104, Note_off_c, 5, 70, 0
7, 271104, Note_on_c, 5, 68, 96
7, 271360, Note_off_c, 5, 68, 0
7, 271360, Note_on_c, 5, 70, 96
7, 271616, Note_off_c, 5, 70, 0
7, 271616, Note_on_c, 5, 75, 96
7, 271872, Note_off_c, 5, 75, 0
7, 271872, Note_on_c, 5, 74, 96
7, 272128, Note_off_c, 5, 74, 0
7, 272128, Note_on_c, 5, 75, 96
7, 272384, Note_off_c, 5, 75, 0
7, 272384, Note_on_c, 5, 72, 96
7, 272640, Note_off_c, 5, 72, 0
7, 272640, Note_on_c, 5, 75, 96
7, 272896, Note_off_c, 5, 75, 0
7, 272896, Note_on_c, 5, 70, 96
7, 273152, Note_off_c, 5, 70, 0
7, 273152, Note_on_c, 5, 75, 96
7, 273408, Note_off_c, 5, 75, 0
7, 273408, Note_on_c, 5, 77, 96
7, 273664, Note_off_c, 5, 77, 0
7, 273664, Note_on_c, 5, 79, 96
7, 273792, Note_off_c, 5, 79, 0
7, 273792, Note_on_c, 5, 80, 96
7, 273920, Note_off_c, 5, 80, 0
7, 273920, Note_on_c, 5, 79, 96
7, 274176, Note_off_c, 5, 79, 0
7, 274176, Note_on_c, 5, 80, 96
7, 274432, Note_off_c, 5, 80, 0
7, 274432, Note_on_c, 5, 77, 96
7, 274688, Note_off_c, 5, 77, 0
7, 274688, Note_on_c, 5, 80, 96
7, 274944, Note_off_c, 5, 80, 0
7, 274944, Note_on_c, 5, 75, 96
7, 275200, Note_off_c, 5, 75, 0
7, 275200, Note_on_c, 5, 80, 96
7, 275456, Note_off_c, 5, 80, 0
7, 275456, Note_on_c, 5, 74, 96
7, 275712, Note_off_c, 5, 74, 0
7, 275712, Note_on_c, 5, 80, 96
7, 275968, Note_off_c, 5, 80, 0
7, 275968, Note_on_c, 5, 72, 96
7, 276224, Note_off_c, 5, 72, 0
7, 276224, Note_on_c, 5, 80, 96
7, 276480, Note_off_c, 5, 80, 0
7, 276480, Note_on_c, 5, 74, 96
7, 276736, Note_off_c, 5, 74, 0
7, 276736, Note_on_c, 5, 75, 96
7, 276864, Note_off_c, 5, 75, 0
7, 276864, Note_on_c, 5, 77, 96
7, 276992, Note_off_c, 5, 77, 0
7, 276992, Note_on_c, 5, 75, 96
7, 277248, Note_off_c, 5, 75, 0
7, 277248, Note_on_c, 5, 77, 96
7, 277504, Note_off_c, 5, 77, 0
7, 277504, Note_on_c, 5, 74, 96
7, 277760, Note_off_c, 5, 74, 0
7, 277760, Note_on_c, 5, 77, 96
7, 278016, Note_off_c, 5, 77, 0
7, 278016, Note_on_c, 5, 72, 96
7, 278272, Note_off_c, 5, 72, 0
7, 278272, Note_on_c, 5, 77, 96
7, 278528, Note_off_c, 5, 77, 0
7, 278528, Note_on_c, 5, 70, 96
7, 278784, Note_off_c, 5, 70, 0
7, 278784, Note_on_c, 5, 77, 96
7, 279040, Note_off_c, 5, 77, 0
7, 279040, Note_on_c, 5, 68, 96
7, 279296, Note_off_c, 5, 68, 0
7, 279296, Note_on_c, 5, 77, 96
7, 279552, Note_off_c, 5, 77, 0
7, 279552, Note_on_c, 5, 67, 96
7, 279808, Note_off_c, 5, 67, 0
7, 279808, Note_on_c, 5, 79, 96
7, 280064, Note_off_c, 5, 79, 0
7, 280064, Note_on_c, 5, 81, 96
7, 280320, Note_off_c, 5, 81, 0
7, 280320, Note_on_c, 5, 82, 96
7, 280576, Note_off_c, 5, 82, 0
7, 280576, Note_on_c, 5, 81, 96
7, 280832, Note_off_c, 5, 81, 0
7, 280832, Note_on_c, 5, 79, 96
7, 281088, Note_off_c, 5, 79, 0
7, 281088, Note_on_c, 5, 77, 96
7, 281344, Note_off_c, 5, 77, 0
7, 281344, Note_on_c, 5, 75, 96
7, 281600, Note_off_c, 5, 75, 0
7, 281600, Note_on_c, 5, 74, 96
7, 281856, Note_off_c, 5, 74, 0
7, 281856, Note_on_c, 5, 72, 96
7, 282112, Note_off_c, 5, 72, 0
7, 282112, Note_on_c, 5, 70, 96
7, 282368, Note_off_c, 5, 70, 0
7, 282368, Note_on_c, 5, 69, 96
7, 282624, Note_off_c, 5, 69, 0
7, 282624, Note_on_c, 5, 67, 96
7, 282880, Note_off_c, 5, 67, 0
7, 282880, Note_on_c, 5, 65, 96
7, 283136, Note_off_c, 5, 65, 0
7, 283136, Note_on_c, 5, 69, 96
7, 283392, Note_off_c, 5, 69, 0
7, 283392, Note_on_c, 5, 72, 96
7, 283648, Note_off_c, 5, 72, 0
7, 283648, Note_on_c, 5, 75, 96
7, 283904, Note_off_c, 5, 75, 0
7, 283904, Note_on_c, 5, 72, 96
7, 284160, Note_off_c, 5, 72, 0
7, 284160, Note_on_c, 5, 74, 96
7, 284416, Note_off_c, 5, 74, 0
7, 284416, Note_on_c, 5, 69, 96
7, 284672, Note_off_c, 5, 69, 0
7, 284672, Note_on_c, 5, 70, 96
7, 284928, Note_off_c, 5, 70, 0
7, 284928, Note_on_c, 5, 74, 96
7, 285184, Note_off_c, 5, 74, 0
7, 285184, Note_on_c, 5, 77, 96
7, 285696, Note_off_c, 5, 77, 0
7, 285696, Note_on_c, 5, 77, 96
7, 286976, Note_off_c, 5, 77, 0
7, 286976, Note_on_c, 5, 75, 96
7, 287232, Note_off_c, 5, 75, 0
7, 287232, Note_on_c, 5, 74, 96
7, 287488, Note_off_c, 5, 74, 0
7, 287488, Note_on_c, 5, 72, 96
7, 287744, Note_off_c, 5, 72, 0
7, 287744, Note_on_c, 5, 74, 96
7, 288000, Note_off_c, 5, 74, 0
7, 288000, Note_on_c, 5, 77, 96
7, 288256, Note_off_c, 5, 77, 0
7, 288256, Note_on_c, 5, 80, 96
7, 288768, Note_off_c, 5, 80, 0
7, 288768, Note_on_c, 5, 80, 96
7, 290048, Note_off_c, 5, 80, 0
7, 290048, Note_on_c, 5, 79, 96
7, 290304, Note_off_c, 5, 79, 0
7, 290304, Note_on_c, 5, 77, 96
7, 290560, Note_off_c, 5, 77, 0
7, 290560, Note_on_c, 5, 75, 96
7, 290816, Note_off_c, 5, 75, 0
7, 290816, Note_on_c, 5, 74, 96
7, 291072, Note_off_c, 5, 74, 0
7, 291072, Note_on_c, 5, 72, 96
7, 291328, Note_off_c, 5, 72, 0
7, 291328, Note_on_c, 5, 71, 96
7, 291584, Note_off_c, 5, 71, 0
7, 291584, Note_on_c, 5, 69, 96
7, 291840, Note_off_c, 5, 69, 0
7, 291840, Note_on_c, 5, 67, 96
7, 292096, Note_off_c, 5, 67, 0
7, 292096, Note_on_c, 5, 71, 96
7, 292352, Note_off_c, 5, 71, 0
7, 292352, Note_on_c, 5, 74, 96
7, 292608, Note_off_c, 5, 74, 0
7, 292608, Note_on_c, 5, 77, 96
7, 292864, Note_off_c, 5, 77, 0
7, 292864, Note_on_c, 5, 75, 96
7, 293120, Note_off_c, 5, 75, 0
7, 293120, Note_on_c, 5, 74, 96
7, 293376, Note_off_c, 5, 74, 0
7, 293376, Note_on_c, 5, 75, 96
7, 294656, Note_off_c, 5, 75, 0
7, 294912, Note_on_c, 5, 65, 96
7, 296192, Note_off_c, 5, 65, 0
7, 296192, Note_on_c, 5, 63, 96
7, 296448, Note_off_c, 5, 63, 0
7, 296448, Note_on_c, 5, 62, 96
7, 296704, Note_off_c, 5, 62, 0
7, 296704, Note_on_c, 5, 60, 96
7, 296960, Note_off_c, 5, 60, 0
7, 296960, Note_on_c, 5, 62, 96
7, 297216, Note_off_c, 5, 62, 0
7, 297216, Note_on_c, 5, 65, 96
7, 297472, Note_off_c, 5, 65, 0
7, 297472, Note_on_c, 5, 68, 96
7, 297984, Note_off_c, 5, 68, 0
7, 297984, Note_on_c, 5, 68, 96
7, 299264, Note_off_c, 5, 68, 0
7, 299264, Note_on_c, 5, 67, 96
7, 299520, Note_off_c, 5, 67, 0
7, 299520, Note_on_c, 5, 65, 96
7, 299776, Note_off_c, 5, 65, 0
7, 299776, Note_on_c, 5, 63, 96
7, 300032, Note_off_c, 5, 63, 0
7, 300032, Note_on_c, 5, 65, 96
7, 300288, Note_off_c, 5, 65, 0
7, 300288, Note_on_c, 5, 68, 96
7, 300544, Note_off_c, 5, 68, 0
7, 300544, Note_on_c, 5, 72, 96
7, 301056, Note_off_c, 5, 72, 0
7, 301056, Note_on_c, 5, 72, 96
7, 302336, Note_off_c, 5, 72, 0
7, 302336, Note_on_c, 5, 70, 96
7, 302592, Note_off_c, 5, 70, 0
7, 302592, Note_on_c, 5, 68, 96
7, 302848, Note_off_c, 5, 68, 0
7, 302848, Note_on_c, 5, 67, 96
7, 303104, Note_off_c, 5, 67, 0
7, 303104, Note_on_c, 5, 65, 96
7, 303360, Note_off_c, 5, 65, 0
7, 303360, Note_on_c, 5, 63, 96
7, 303616, Note_off_c, 5, 63, 0
7, 303616, Note_on_c, 5, 62, 96
7, 303872, Note_off_c, 5, 62, 0
7, 303872, Note_on_c, 5, 60, 96
7, 304128, Note_off_c, 5, 60, 0
7, 304128, Note_on_c, 5, 58, 96
7, 304384, Note_off_c, 5, 58, 0
7, 304384, Note_on_c, 5, 62, 96
7, 304640, Note_off_c, 5, 62, 0
7, 304640, Note_on_c, 5, 65, 96
7, 304896, Note_off_c, 5, 65, 0
7, 304896, Note_on_c, 5, 68, 96
7, 305152, Note_off_c, 5, 68, 0
7, 305152, Note_on_c, 5, 67, 96
7, 305408, Note_off_c, 5, 67, 0
7, 305408, Note_on_c, 5, 65, 96
7, 305664, Note_off_c, 5, 65, 0
7, 305664, Note_on_c, 5, 67, 96
7, 306944, Note_off_c, 5, 67, 0
7, 307200, Note_on_c, 5, 69, 96
7, 307456, Note_off_c, 5, 69, 0
7, 307456, Note_on_c, 5, 70, 96
7, 307584, Note_off_c, 5, 70, 0
7, 307584, Note_on_c, 5, 72, 96
7, 307712, Note_off_c, 5, 72, 0
7, 307712, Note_on_c, 5, 63, 96
7, 307968, Note_off_c, 5, 63, 0
7, 307968, Note_on_c, 5, 62, 96
7, 308224, Note_off_c, 5, 62, 0
7, 308224, Note_on_c, 5, 63, 96
7, 308480, Note_off_c, 5, 63, 0
7, 308480, Note_on_c, 5, 69, 96
7, 308736, Note_off_c, 5, 69, 0
7, 308736, Note_on_c, 5, 67, 96
7, 308992, Note_off_c, 5, 67, 0
7, 308992, Note_on_c, 5, 69, 96
7, 309248, Note_off_c, 5, 69, 0
7, 309248, Note_on_c, 5, 65, 96
7, 309504, Note_off_c, 5, 65, 0
7, 309504, Note_on_c, 5, 69, 96
7, 309760, Note_off_c, 5, 69, 0
7, 309760, Note_on_c, 5, 63, 96
7, 310016, Note_off_c, 5, 63, 0
7, 310016, Note_on_c, 5, 69, 96
7, 310272, Note_off_c, 5, 69, 0
7, 310272, Note_on_c, 5, 70, 96
7, 310528, Note_off_c, 5, 70, 0
7, 310528, Note_on_c, 5, 72, 96
7, 310656, Note_off_c, 5, 72, 0
7, 310656, Note_on_c, 5, 74, 96
7, 310784, Note_off_c, 5, 74, 0
7, 310784, Note_on_c, 5, 65, 96
7, 311040, Note_off_c, 5, 65, 0
7, 311040, Note_on_c, 5, 63, 96
7, 311296, Note_off_c, 5, 63, 0
7, 311296, Note_on_c, 5, 65, 96
7, 311552, Note_off_c, 5, 65, 0
7, 311552, Note_on_c, 5, 70, 96
7, 311808, Note_off_c, 5, 70, 0
7, 311808, Note_on_c, 5, 69, 96
7, 312064, Note_off_c, 5, 69, 0
7, 312064, Note_on_c, 5, 70, 96
7, 312320, Note_off_c, 5, 70, 0
7, 312320, Note_on_c, 5, 67, 96
7, 312576, Note_off_c, 5, 67, 0
7, 312576, Note_on_c, 5, 70, 96
7, 312832, Note_off_c, 5, 70, 0
7, 312832, Note_on_c, 5, 65, 96
7, 313088, Note_off_c, 5, 65, 0
7, 313088, Note_on_c, 5, 70, 96
7, 313344, Note_off_c, 5, 70, 0
7, 313344, Note_on_c, 5, 72, 96
7, 313600, Note_off_c, 5, 72, 0
7, 313600, Note_on_c, 5, 74, 96
7, 313728, Note_off_c, 5, 74, 0
7, 313728, Note_on_c, 5, 75, 96
7, 313856, Note_off_c, 5, 75, 0
7, 313856, Note_on_c, 5, 74, 96
7, 314112, Note_off_c, 5, 74, 0
7, 314112, Note_on_c, 5, 75, 96
7, 314368, Note_off_c, 5, 75, 0
7, 314368, Note_on_c, 5, 72, 96
7, 314624, Note_off_c, 5, 72, 0
7, 314624, Note_on_c, 5, 75, 96
7, 314880, Note_off_c, 5, 75, 0
7, 314880, Note_on_c, 5, 70, 96
7, 315136, Note_off_c, 5, 70, 0
7, 315136, Note_on_c, 5, 75, 96
7, 315392, Note_off_c, 5, 75, 0
7, 315392, Note_on_c, 5, 69, 96
7, 315648, Note_off_c, 5, 69, 0
7, 315648, Note_on_c, 5, 75, 96
7, 315904, Note_off_c, 5, 75, 0
7, 315904, Note_on_c, 5, 67, 96
7, 316160, Note_off_c, 5, 67, 0
7, 316160, Note_on_c, 5, 75, 96
7, 316416, Note_off_c, 5, 75, 0
7, 316416, Note_on_c, 5, 69, 96
7, 316672, Note_off_c, 5, 69, 0
7, 316672, Note_on_c, 5, 70, 96
7, 316800, Note_off_c, 5, 70, 0
7, 316800, Note_on_c, 5, 72, 96
7, 316928, Note_off_c, 5, 72, 0
7, 316928, Note_on_c, 5, 70, 96
7, 317184, Note_off_c, 5, 70, 0
7, 317184, Note_on_c, 5, 72, 96
7, 317440, Note_off_c, 5, 72, 0
7, 317440, Note_on_c, 5, 69, 96
7, 317696, Note_off_c, 5, 69, 0
7, 317696, Note_on_c, 5, 72, 96
7, 317952, Note_off_c, 5, 72, 0
7, 317952, Note_on_c, 5, 67, 96
7, 318208, Note_off_c, 5, 67, 0
7, 318208, Note_on_c, 5, 72, 96
7, 318464, Note_off_c, 5, 72, 0
7, 318464, Note_on_c, 5, 65, 96
7, 318720, Note_off_c, 5, 65, 0
7, 318720, Note_on_c, 5, 72, 96
7, 318976, Note_off_c, 5, 72, 0
7, 318976, Note_on_c, 5, 63, 96
7, 319232, Note_off_c, 5, 63, 0
7, 319232, Note_on_c, 5, 72, 96
7, 319488, Note_off_c, 5, 72, 0
7, 319488, Note_on_c, 5, 62, 96
7, 319744, Note_off_c, 5, 62, 0
7, 319744, Note_on_c, 5, 65, 96
7, 320000, Note_off_c, 5, 65, 0
7, 320000, Note_on_c, 5, 67, 96
7, 320256, Note_off_c, 5, 67, 0
7, 320256, Note_on_c, 5, 63, 96
7, 320512, Note_off_c, 5, 63, 0
7, 320512, Note_on_c, 5, 65, 96
7, 320768, Note_off_c, 5, 65, 0
7, 320768, Note_on_c, 5, 62, 96
7, 321024, Note_off_c, 5, 62, 0
7, 321024, Note_on_c, 5, 60, 96
7, 321280, Note_off_c, 5, 60, 0
7, 321280, Note_on_c, 5, 58, 96
7, 321536, Note_off_c, 5, 58, 0
7, 321536, Note_on_c, 5, 70, 96
7, 321792, Note_off_c, 5, 70, 0
7, 321792, Note_on_c, 5, 62, 96
7, 322048, Note_off_c, 5, 62, 0
7, 322048, Note_on_c, 5, 60, 96
7, 322304, Note_off_c, 5, 60, 0
7, 322304, Note_on_c, 5, 58, 96
7, 322560, Note_off_c, 5, 58, 0
7, 322560, Note_on_c, 5, 63, 96
7, 322816, Note_off_c, 5, 63, 0
7, 322816, Note_on_c, 5, 67, 96
7, 323072, Note_off_c, 5, 67, 0
7, 323072, Note_on_c, 5, 68, 96
7, 323328, Note_off_c, 5, 68, 0
7, 323328, Note_on_c, 5, 65, 96
7, 323584, Note_off_c, 5, 65, 0
7, 323584, Note_on_c, 5, 67, 96
7, 323840, Note_off_c, 5, 67, 0
7, 323840, Note_on_c, 5, 63, 96
7, 324096, Note_off_c, 5, 63, 0
7, 324096, Note_on_c, 5, 62, 96
7, 324352, Note_off_c, 5, 62, 0
7, 324352, Note_on_c, 5, 60, 96
7, 324608, Note_off_c, 5, 60, 0
7, 324608, Note_on_c, 5, 70, 96
7, 324864, Note_off_c, 5, 70, 0
7, 324864, Note_on_c, 5, 63, 96
7, 325120, Note_off_c, 5, 63, 0
7, 325120, Note_on_c, 5, 62, 96
7, 325376, Note_off_c, 5, 62, 0
7, 325376, Note_on_c, 5, 60, 96
7, 325632, Note_off_c, 5, 60, 0
7, 325632, Note_on_c, 5, 65, 96
7, 325888, Note_off_c, 5, 65, 0
7, 325888, Note_on_c, 5, 69, 96
7, 326144, Note_off_c, 5, 69, 0
7, 326144, Note_on_c, 5, 70, 96
7, 326400, Note_off_c, 5, 70, 0
7, 326400, Note_on_c, 5, 67, 96
7, 326656, Note_off_c, 5, 67, 0
7, 326656, Note_on_c, 5, 65, 96
7, 326912, Note_off_c, 5, 65, 0
7, 326912, Note_on_c, 5, 74, 96
7, 327168, Note_off_c, 5, 74, 0
7, 327168, Note_on_c, 5, 75, 96
7, 327424, Note_off_c, 5, 75, 0
7, 327424, Note_on_c, 5, 72, 96
7, 327680, Note_off_c, 5, 72, 0
7, 327680, Note_on_c, 5, 65, 96
7, 327936, Note_off_c, 5, 65, 0
7, 327936, Note_on_c, 5, 70, 96
7, 328192, Note_off_c, 5, 70, 0
7, 328192, Note_on_c, 5, 72, 96
7, 328448, Note_off_c, 5, 72, 0
7, 328448, Note_on_c, 5, 69, 96
7, 328704, Note_off_c, 5, 69, 0
7, 328704, Note_on_c, 5, 70, 96
7, 332800, Note_off_c, 5, 70, 0
7, 332800, End_track
8, 0, Start_track
8, 0, Title_t, "Instrument 7"
8, 0, Note_on_c, 6, 70, 96
8, 1024, Note_off_c, 6, 70, 0
8, 1024, Note_on_c, 6, 65, 96
8, 2048, Note_off_c, 6, 65, 0
8, 2560, Note_on_c, 6, 69, 96
8, 3072, Note_off_c, 6, 69, 0
8, 3072, Note_on_c, 6, 70, 96
8, 4096, Note_off_c, 6, 70, 0
8, 4096, Note_on_c, 6, 65, 96
8, 5120, Note_off_c, 6, 65, 0
8, 5632, Note_on_c, 6, 72, 96
8, 6144, Note_off_c, 6, 72, 0
8, 6144, Note_on_c, 6, 74, 96
8, 7168, Note_off_c, 6, 74, 0
8, 7168, Note_on_c, 6, 71, 96
8, 8192, Note_off_c, 6, 71, 0
8, 8704, Note_on_c, 6, 74, 96
8, 9216, Note_off_c, 6, 74, 0
8, 9216, Note_on_c, 6, 74, 96
8, 9728, Note_off_c, 6, 74, 0
8, 9728, Note_on_c, 6, 71, 96
8, 10240, Note_off_c, 6, 71, 0
8, 10240, Note_on_c, 6, 72, 96
8, 12032, Note_off_c, 6, 72, 0
8, 12288, Note_on_c, 6, 72, 96
8, 13312, Note_off_c, 6, 72, 0
8, 13312, Note_on_c, 6, 69, 96
8, 14336, Note_off_c, 6, 69, 0
8, 14848, Note_on_c, 6, 72, 96
8, 15360, Note_off_c, 6, 72, 0
8, 15360, Note_on_c, 6, 75, 96
8, 16384, Note_off_c, 6, 75, 0
8, 16384, Note_on_c, 6, 69, 96
8, 17408, Note_off_c, 6, 69, 0
8, 17920, Note_on_c, 6, 70, 96
8, 18432, Note_off_c, 6, 70, 0
8, 18432, Note_on_c, 6, 77, 96
8, 19456, Note_off_c, 6, 77, 0
8, 19456, Note_on_c, 6, 72, 96
8, 20480, Note_off_c, 6, 72, 0
8, 20992, Note_on_c, 6, 75, 96
8, 21504, Note_off_c, 6, 75, 0
8, 21504, Note_on_c, 6, 75, 96
8, 22016, Note_off_c, 6, 75, 0
8, 22016, Note_on_c, 6, 69, 96
8, 22528, Note_off_c, 6, 69, 0
8, 22528, Note_on_c, 6, 70, 96
8, 24320, Note_off_c, 6, 70, 0
8, 24576, Note_on_c, 6, 70, 96
8, 25600, Note_off_c, 6, 70, 0
8, 25600, Note_on_c, 6, 67, 96
8, 26624, Note_off_c, 6, 67, 0
8, 27136, Note_on_c, 6, 70, 96
8, 27648, Note_off_c, 6, 70, 0
8, 27648, Note_on_c, 6, 72, 96
8, 28672, Note_off_c, 6, 72, 0
8, 28672, Note_on_c, 6, 69, 96
8, 29696, Note_off_c, 6, 69, 0
8, 30208, Note_on_c, 6, 72, 96
8, 30720, Note_off_c, 6, 72, 0
8, 30720, Note_on_c, 6, 72, 96
8, 37376, Note_off_c, 6, 72, 0
8, 37376, Note_on_c, 6, 70, 96
8, 37888, Note_off_c, 6, 70, 0
8, 37888, Note_on_c, 6, 77, 96
8, 38912, Note_off_c, 6, 77, 0
8, 39424, Note_on_c, 6, 72, 96
8, 39936, Note_off_c, 6, 72, 0
8, 39936, Note_on_c, 6, 77, 96
8, 40448, Note_off_c, 6, 77, 0
8, 40448, Note_on_c, 6, 69, 96
8, 40960, Note_off_c, 6, 69, 0
8, 40960, Note_on_c, 6, 74, 96
8, 41984, Note_off_c, 6, 74, 0
8, 42496, Note_on_c, 6, 77, 96
8, 43008, Note_off_c, 6, 77, 0
8, 43008, Note_on_c, 6, 76, 96
8, 43520, Note_off_c, 6, 76, 0
8, 43520, Note_on_c, 6, 72, 96
8, 43776, Note_off_c, 6, 72, 0
8, 43776, Note_on_c, 6, 74, 96
8, 44032, Note_off_c, 6, 74, 0
8, 44032, Note_on_c, 6, 76, 96
8, 44544, Note_off_c, 6, 76, 0
8, 44544, Note_on_c, 6, 77, 96
8, 45568, Note_off_c, 6, 77, 0
8, 45568, Note_on_c, 6, 70, 96
8, 46080, Note_off_c, 6, 70, 0
8, 46080, Note_on_c, 6, 69, 96
8, 47104, Note_off_c, 6, 69, 0
8, 58368, Note_on_c, 6, 70, 96
8, 59392, Note_off_c, 6, 70, 0
8, 59392, Note_on_c, 6, 65, 96
8, 60416, Note_off_c, 6, 65, 0
8, 60928, Note_on_c, 6, 69, 96
8, 61440, Note_off_c, 6, 69, 0
8, 61440, Note_on_c, 6, 70, 96
8, 62464, Note_off_c, 6, 70, 0
8, 62464, Note_on_c, 6, 65, 96
8, 63488, Note_off_c, 6, 65, 0
8, 64000, Note_on_c, 6, 72, 96
8, 64512, Note_off_c, 6, 72, 0
8, 64512, Note_on_c, 6, 74, 96
8, 65536, Note_off_c, 6, 74, 0
8, 65536, Note_on_c, 6, 71, 96
8, 66560, Note_off_c, 6, 71, 0
8, 67072, Note_on_c, 6, 74, 96
8, 67584, Note_off_c, 6, 74, 0
8, 67584, Note_on_c, 6, 74, 96
8, 68096, Note_off_c, 6, 74, 0
8, 68096, Note_on_c, 6, 71, 96
8, 68608, Note_off_c, 6, 71, 0
8, 68608, Note_on_c, 6, 72, 96
8, 69632, Note_off_c, 6, 72, 0
8, 79872, Note_on_c, 6, 70, 96
8, 80896, Note_off_c, 6, 70, 0
8, 80896, Note_on_c, 6, 65, 96
8, 81920, Note_off_c, 6, 65, 0
8, 82432, Note_on_c, 6, 69, 96
8, 82944, Note_off_c, 6, 69, 0
8, 82944, Note_on_c, 6, 70, 96
8, 83968, Note_off_c, 6, 70, 0
8, 83968, Note_on_c, 6, 65, 96
8, 84992, Note_off_c, 6, 65, 0
8, 85504, Note_on_c, 6, 72, 96
8, 86016, Note_off_c, 6, 72, 0
8, 86016, Note_on_c, 6, 74, 96
8, 87040, Note_off_c, 6, 74, 0
8, 87040, Note_on_c, 6, 71, 96
8, 88064, Note_off_c, 6, 71, 0
8, 88576, Note_on_c, 6, 74, 96
8, 89088, Note_off_c, 6, 74, 0
8, 89088, Note_on_c, 6, 74, 96
8, 89600, Note_off_c, 6, 74, 0
8, 89600, Note_on_c, 6, 71, 96
8, 90112, Note_off_c, 6, 71, 0
8, 90112, Note_on_c, 6, 72, 96
8, 91904, Note_off_c, 6, 72, 0
8, 92160, Note_on_c, 6, 72, 96
8, 93184, Note_off_c, 6, 72, 0
8, 93184, Note_on_c, 6, 69, 96
8, 94208, Note_off_c, 6, 69, 0
8, 94720, Note_on_c, 6, 72, 96
8, 95232, Note_off_c, 6, 72, 0
8, 95232, Note_on_c, 6, 75, 96
8, 96256, Note_off_c, 6, 75, 0
8, 96256, Note_on_c, 6, 69, 96
8, 97280, Note_off_c, 6, 69, 0
8, 97792, Note_on_c, 6, 70, 96
8, 98304, Note_off_c, 6, 70, 0
8, 98304, Note_on_c, 6, 77, 96
8, 99328, Note_off_c, 6, 77, 0
8, 99328, Note_on_c, 6, 72, 96
8, 100352, Note_off_c, 6, 72, 0
8, 100864, Note_on_c, 6, 75, 96
8, 101376, Note_off_c, 6, 75, 0
8, 101376, Note_on_c, 6, 75, 96
8, 101888, Note_off_c, 6, 75, 0
8, 101888, Note_on_c, 6, 69, 96
8, 102400, Note_off_c, 6, 69, 0
8, 102400, Note_on_c, 6, 70, 96
8, 104192, Note_off_c, 6, 70, 0
8, 104448, Note_on_c, 6, 70, 96
8, 105472, Note_off_c, 6, 70, 0
8, 105472, Note_on_c, 6, 67, 96
8, 106496, Note_off_c, 6, 67, 0
8, 107008, Note_on_c, 6, 70, 96
8, 107520, Note_off_c, 6, 70, 0
8, 107520, Note_on_c, 6, 72, 96
8, 108544, Note_off_c, 6, 72, 0
8, 108544, Note_on_c, 6, 69, 96
8, 109568, Note_off_c, 6, 69, 0
8, 110080, Note_on_c, 6, 72, 96
8, 110592, Note_off_c, 6, 72, 0
8, 110592, Note_on_c, 6, 72, 96
8, 117248, Note_off_c, 6, 72, 0
8, 117248, Note_on_c, 6, 70, 96
8, 117760, Note_off_c, 6, 70, 0
8, 117760, Note_on_c, 6, 77, 96
8, 118784, Note_off_c, 6, 77, 0
8, 119296, Note_on_c, 6, 72, 96
8, 119808, Note_off_c, 6, 72, 0
8, 119808, Note_on_c, 6, 77, 96
8, 120320, Note_off_c, 6, 77, 0
8, 120320, Note_on_c, 6, 69, 96
8, 120832, Note_off_c, 6, 69, 0
8, 120832, Note_on_c, 6, 74, 96
8, 121856, Note_off_c, 6, 74, 0
8, 122368, Note_on_c, 6, 77, 96
8, 122880, Note_off_c, 6, 77, 0
8, 122880, Note_on_c, 6, 76, 96
8, 123392, Note_off_c, 6, 76, 0
8, 123392, Note_on_c, 6, 72, 96
8, 123648, Note_off_c, 6, 72, 0
8, 123648, Note_on_c, 6, 74, 96
8, 123904, Note_off_c, 6, 74, 0
8, 123904, Note_on_c, 6, 76, 96
8, 124416, Note_off_c, 6, 76, 0
8, 124416, Note_on_c, 6, 77, 96
8, 125440, Note_off_c, 6, 77, 0
8, 125440, Note_on_c, 6, 70, 96
8, 125952, Note_off_c, 6, 70, 0
8, 125952, Note_on_c, 6, 69, 96
8, 126976, Note_off_c, 6, 69, 0
8, 138240, Note_on_c, 6, 70, 96
8, 139264, Note_off_c, 6, 70, 0
8, 139264, Note_on_c, 6, 65, 96
8, 140288, Note_off_c, 6, 65, 0
8, 140800, Note_on_c, 6, 69, 96
8, 141312, Note_off_c, 6, 69, 0
8, 141312, Note_on_c, 6, 70, 96
8, 142336, Note_off_c, 6, 70, 0
8, 142336, Note_on_c, 6, 65, 96
8, 143360, Note_off_c, 6, 65, 0
8, 143872, Note_on_c, 6, 72, 96
8, 144384, Note_off_c, 6, 72, 0
8, 144384, Note_on_c, 6, 74, 96
8, 145408, Note_off_c, 6, 74, 0
8, 145408, Note_on_c, 6, 71, 96
8, 146432, Note_off_c, 6, 71, 0
8, 146944, Note_on_c, 6, 74, 96
8, 147456, Note_off_c, 6, 74, 0
8, 147456, Note_on_c, 6, 74, 96
8, 147968, Note_off_c, 6, 74, 0
8, 147968, Note_on_c, 6, 71, 96
8, 148480, Note_off_c, 6, 71, 0
8, 148480, Note_on_c, 6, 72, 96
8, 149504, Note_off_c, 6, 72, 0
8, 159744, Note_on_c, 6, 65, 96
8, 160768, Note_off_c, 6, 65, 0
8, 160768, Note_on_c, 6, 62, 96
8, 161792, Note_off_c, 6, 62, 0
8, 162304, Note_on_c, 6, 65, 96
8, 162816, Note_off_c, 6, 65, 0
8, 162816, Note_on_c, 6, 68, 96
8, 163840, Note_off_c, 6, 68, 0
8, 163840, Note_on_c, 6, 62, 96
8, 164864, Note_off_c, 6, 62, 0
8, 165376, Note_on_c, 6, 63, 96
8, 165888, Note_off_c, 6, 63, 0
8, 165888, Note_on_c, 6, 70, 96
8, 166912, Note_off_c, 6, 70, 0
8, 166912, Note_on_c, 6, 65, 96
8, 167936, Note_off_c, 6, 65, 0
8, 168448, Note_on_c, 6, 68, 96
8, 168960, Note_off_c, 6, 68, 0
8, 168960, Note_on_c, 6, 68, 96
8, 169472, Note_off_c, 6, 68, 0
8, 169472, Note_on_c, 6, 62, 96
8, 169984, Note_off_c, 6, 62, 0
8, 169984, Note_on_c, 6, 63, 96
8, 171776, Note_off_c, 6, 63, 0
8, 172032, Note_on_c, 6, 63, 96
8, 173056, Note_off_c, 6, 63, 0
8, 173056, Note_on_c, 6, 60, 96
8, 174080, Note_off_c, 6, 60, 0
8, 174592, Note_on_c, 6, 63, 96
8, 175104, Note_off_c, 6, 63, 0
8, 175104, Note_on_c, 6, 65, 96
8, 176128, Note_off_c, 6, 65, 0
8, 176128, Note_on_c, 6, 62, 96
8, 177152, Note_off_c, 6, 62, 0
8, 177664, Note_on_c, 6, 65, 96
8, 178176, Note_off_c, 6, 65, 0
8, 178176, Note_on_c, 6, 65, 96
8, 184832, Note_off_c, 6, 65, 0
8, 184832, Note_on_c, 6, 63, 96
8, 185344, Note_off_c, 6, 63, 0
8, 185344, Note_on_c, 6, 70, 96
8, 186368, Note_off_c, 6, 70, 0
8, 186880, Note_on_c, 6, 65, 96
8, 187392, Note_off_c, 6, 65, 0
8, 187392, Note_on_c, 6, 70, 96
8, 187904, Note_off_c, 6, 70, 0
8, 187904, Note_on_c, 6, 62, 96
8, 188416, Note_off_c, 6, 62, 0
8, 188416, Note_on_c, 6, 67, 96
8, 189440, Note_off_c, 6, 67, 0
8, 189952, Note_on_c, 6, 70, 96
8, 190464, Note_off_c, 6, 70, 0
8, 190464, Note_on_c, 6, 69, 96
8, 190976, Note_off_c, 6, 69, 0
8, 190976, Note_on_c, 6, 65, 96
8, 191232, Note_off_c, 6, 65, 0
8, 191232, Note_on_c, 6, 67, 96
8, 191488, Note_off_c, 6, 67, 0
8, 191488, Note_on_c, 6, 69, 96
8, 192000, Note_off_c, 6, 69, 0
8, 192000, Note_on_c, 6, 70, 96
8, 193024, Note_off_c, 6, 70, 0
8, 193024, Note_on_c, 6, 63, 96
8, 193536, Note_off_c, 6, 63, 0
8, 193536, Note_on_c, 6, 62, 96
8, 194560, Note_off_c, 6, 62, 0
8, 196096, Note_on_c, 6, 68, 96
8, 196608, Note_off_c, 6, 68, 0
8, 196608, Note_on_c, 6, 67, 96
8, 197632, Note_off_c, 6, 67, 0
8, 197632, Note_on_c, 6, 63, 96
8, 198656, Note_off_c, 6, 63, 0
8, 199168, Note_on_c, 6, 72, 96
8, 199680, Note_off_c, 6, 72, 0
8, 199680, Note_on_c, 6, 72, 96
8, 200192, Note_off_c, 6, 72, 0
8, 200192, Note_on_c, 6, 70, 96
8, 200704, Note_off_c, 6, 70, 0
8, 200704, Note_on_c, 6, 77, 96
8, 201728, Note_off_c, 6, 77, 0
8, 202240, Note_on_c, 6, 72, 96
8, 202752, Note_off_c, 6, 72, 0
8, 202752, Note_on_c, 6, 77, 96
8, 203264, Note_off_c, 6, 77, 0
8, 203264, Note_on_c, 6, 69, 96
8, 203776, Note_off_c, 6, 69, 0
8, 203776, Note_on_c, 6, 74, 96
8, 204800, Note_off_c, 6, 74, 0
8, 205312, Note_on_c, 6, 74, 96
8, 205824, Note_off_c, 6, 74, 0
8, 205824, Note_on_c, 6, 77, 96
8, 206336, Note_off_c, 6, 77, 0
8, 206336, Note_on_c, 6, 70, 96
8, 206848, Note_off_c, 6, 70, 0
8, 206848, Note_on_c, 6, 69, 96
8, 207872, Note_off_c, 6, 69, 0
8, 208384, Note_on_c, 6, 72, 96
8, 208896, Note_off_c, 6, 72, 0
8, 208896, Note_on_c, 6, 70, 96
8, 209408, Note_off_c, 6, 70, 0
8, 209408, Note_on_c, 6, 69, 96
8, 209920, Note_off_c, 6, 69, 0
8, 209920, Note_on_c, 6, 70, 96
8, 210944, Note_off_c, 6, 70, 0
8, 211456, Note_on_c, 6, 70, 96
8, 211968, Note_off_c, 6, 70, 0
8, 211968, Note_on_c, 6, 70, 96
8, 212480, Note_off_c, 6, 70, 0
8, 212480, Note_on_c, 6, 63, 96
8, 212992, Note_off_c, 6, 63, 0
8, 212992, Note_on_c, 6, 75, 96
8, 214016, Note_off_c, 6, 75, 0
8, 214528, Note_on_c, 6, 72, 96
8, 215040, Note_off_c, 6, 72, 0
8, 215040, Note_on_c, 6, 69, 96
8, 215552, Note_off_c, 6, 69, 0
8, 215552, Note_on_c, 6, 62, 96
8, 216064, Note_off_c, 6, 62, 0
8, 216064, Note_on_c, 6, 74, 96
8, 217088, Note_off_c, 6, 74, 0
8, 217600, Note_on_c, 6, 62, 96
8, 218112, Note_off_c, 6, 62, 0
8, 218112, Note_on_c, 6, 63, 96
8, 218624, Note_off_c, 6, 63, 0
8, 218624, Note_on_c, 6, 60, 96
8, 219136, Note_off_c, 6, 60, 0
8, 219136, Note_on_c, 6, 72, 96
8, 220160, Note_off_c, 6, 72, 0
8, 220672, Note_on_c, 6, 69, 96
8, 221184, Note_off_c, 6, 69, 0
8, 221184, Note_on_c, 6, 70, 96
8, 221696, Note_off_c, 6, 70, 0
8, 221696, Note_on_c, 6, 65, 96
8, 222208, Note_off_c, 6, 65, 0
8, 222208, Note_on_c, 6, 70, 96
8, 223232, Note_off_c, 6, 70, 0
8, 223744, Note_on_c, 6, 70, 96
8, 224256, Note_off_c, 6, 70, 0
8, 224256, Note_on_c, 6, 70, 96
8, 224768, Note_off_c, 6, 70, 0
8, 224768, Note_on_c, 6, 60, 96
8, 225280, Note_off_c, 6, 60, 0
8, 225280, Note_on_c, 6, 67, 96
8, 226304, Note_off_c, 6, 67, 0
8, 226816, Note_on_c, 6, 67, 96
8, 227328, Note_off_c, 6, 67, 0
8, 227328, Note_on_c, 6, 69, 96
8, 227840, Note_off_c, 6, 69, 0
8, 227840, Note_on_c, 6, 72, 96
8, 228352, Note_off_c, 6, 72, 0
8, 228352, Note_on_c, 6, 77, 96
8, 229376, Note_off_c, 6, 77, 0
8, 229888, Note_on_c, 6, 65, 96
8, 230400, Note_off_c, 6, 65, 0
8, 230400, Note_on_c, 6, 67, 96
8, 230912, Note_off_c, 6, 67, 0
8, 230912, Note_on_c, 6, 70, 96
8, 231424, Note_off_c, 6, 70, 0
8, 231424, Note_on_c, 6, 79, 96
8, 232448, Note_off_c, 6, 79, 0
8, 232960, Note_on_c, 6, 64, 96
8, 233472, Note_off_c, 6, 64, 0
8, 233472, Note_on_c, 6, 65, 96
8, 234496, Note_off_c, 6, 65, 0
8, 234496, Note_on_c, 6, 60, 96
8, 235520, Note_off_c, 6, 60, 0
8, 236032, Note_on_c, 6, 64, 96
8, 236544, Note_off_c, 6, 64, 0
8, 236544, Note_on_c, 6, 65, 96
8, 237568, Note_off_c, 6, 65, 0
8, 237568, Note_on_c, 6, 60, 96
8, 238592, Note_off_c, 6, 60, 0
8, 239104, Note_on_c, 6, 67, 96
8, 239616, Note_off_c, 6, 67, 0
8, 239616, Note_on_c, 6, 69, 96
8, 240640, Note_off_c, 6, 69, 0
8, 240640, Note_on_c, 6, 66, 96
8, 241664, Note_off_c, 6, 66, 0
8, 242176, Note_on_c, 6, 69, 96
8, 242688, Note_off_c, 6, 69, 0
8, 242688, Note_on_c, 6, 69, 96
8, 243200, Note_off_c, 6, 69, 0
8, 243200, Note_on_c, 6, 66, 96
8, 243712, Note_off_c, 6, 66, 0
8, 243712, Note_on_c, 6, 67, 96
8, 245504, Note_off_c, 6, 67, 0
8, 245760, Note_on_c, 6, 67, 96
8, 246784, Note_off_c, 6, 67, 0
8, 246784, Note_on_c, 6, 64, 96
8, 247808, Note_off_c, 6, 64, 0
8, 248320, Note_on_c, 6, 67, 96
8, 248832, Note_off_c, 6, 67, 0
8, 248832, Note_on_c, 6, 70, 96
8, 249856, Note_off_c, 6, 70, 0
8, 249856, Note_on_c, 6, 64, 96
8, 250880, Note_off_c, 6, 64, 0
8, 251392, Note_on_c, 6, 65, 96
8, 251904, Note_off_c, 6, 65, 0
8, 251904, Note_on_c, 6, 72, 96
8, 252928, Note_off_c, 6, 72, 0
8, 252928, Note_on_c, 6, 67, 96
8, 253952, Note_off_c, 6, 67, 0
8, 254464, Note_on_c, 6, 70, 96
8, 254976, Note_off_c, 6, 70, 0
8, 254976, Note_on_c, 6, 70, 96
8, 255488, Note_off_c, 6, 70, 0
8, 255488, Note_on_c, 6, 64, 96
8, 256000, Note_off_c, 6, 64, 0
8, 256000, Note_on_c, 6, 65, 96
8, 257024, Note_off_c, 6, 65, 0
8, 267264, Note_on_c, 6, 68, 96
8, 268288, Note_off_c, 6, 68, 0
8, 268288, Note_on_c, 6, 65, 96
8, 269312, Note_off_c, 6, 65, 0
8, 269824, Note_on_c, 6, 68, 96
8, 270336, Note_off_c, 6, 68, 0
8, 270336, Note_on_c, 6, 70, 96
8, 271360, Note_off_c, 6, 70, 0
8, 271360, Note_on_c, 6, 67, 96
8, 272384, Note_off_c, 6, 67, 0
8, 272896, Note_on_c, 6, 70, 96
8, 273408, Note_off_c, 6, 70, 0
8, 273408, Note_on_c, 6, 70, 96
8, 280064, Note_off_c, 6, 70, 0
8, 280064, Note_on_c, 6, 72, 96
8, 280320, Note_off_c, 6, 72, 0
8, 280320, Note_on_c, 6, 74, 96
8, 280576, Note_off_c, 6, 74, 0
8, 280576, Note_on_c, 6, 67, 96
8, 281088, Note_off_c, 6, 67, 0
8, 281088, Note_on_c, 6, 69, 96
8, 281600, Note_off_c, 6, 69, 0
8, 281600, Note_on_c, 6, 70, 96
8, 283136, Note_off_c, 6, 70, 0
8, 283136, Note_on_c, 6, 69, 96
8, 283392, Note_off_c, 6, 69, 0
8, 283392, Note_on_c, 6, 67, 96
8, 283648, Note_off_c, 6, 67, 0
8, 283648, Note_on_c, 6, 65, 96
8, 284672, Note_off_c, 6, 65, 0
8, 285184, Note_on_c, 6, 69, 96
8, 285696, Note_off_c, 6, 69, 0
8, 285696, Note_on_c, 6, 70, 96
8, 286720, Note_off_c, 6, 70, 0
8, 286720, Note_on_c, 6, 65, 96
8, 287744, Note_off_c, 6, 65, 0
8, 288256, Note_on_c, 6, 72, 96
8, 288768, Note_off_c, 6, 72, 0
8, 288768, Note_on_c, 6, 74, 96
8, 289792, Note_off_c, 6, 74, 0
8, 289792, Note_on_c, 6, 71, 96
8, 290816, Note_off_c, 6, 71, 0
8, 291328, Note_on_c, 6, 74, 96
8, 291840, Note_off_c, 6, 74, 0
8, 291840, Note_on_c, 6, 74, 96
8, 292352, Note_off_c, 6, 74, 0
8, 292352, Note_on_c, 6, 71, 96
8, 292864, Note_off_c, 6, 71, 0
8, 292864, Note_on_c, 6, 72, 96
8, 294656, Note_off_c, 6, 72, 0
8, 294912, Note_on_c, 6, 70, 96
8, 295936, Note_off_c, 6, 70, 0
8, 295936, Note_on_c, 6, 65, 96
8, 296960, Note_off_c, 6, 65, 0
8, 297472, Note_on_c, 6, 63, 96
8, 297984, Note_off_c, 6, 63, 0
8, 297984, Note_on_c, 6, 65, 96
8, 299008, Note_off_c, 6, 65, 0
8, 299008, Note_on_c, 6, 62, 96
8, 300032, Note_off_c, 6, 62, 0
8, 300544, Note_on_c, 6, 63, 96
8, 301056, Note_off_c, 6, 63, 0
8, 301056, Note_on_c, 6, 65, 96
8, 302080, Note_off_c, 6, 65, 0
8, 302080, Note_on_c, 6, 62, 96
8, 303104, Note_off_c, 6, 62, 0
8, 303616, Note_on_c, 6, 65, 96
8, 304128, Note_off_c, 6, 65, 0
8, 304128, Note_on_c, 6, 65, 96
8, 304640, Note_off_c, 6, 65, 0
8, 304640, Note_on_c, 6, 62, 96
8, 305152, Note_off_c, 6, 62, 0
8, 305152, Note_on_c, 6, 63, 96
8, 306944, Note_off_c, 6, 63, 0
8, 307200, Note_on_c, 6, 63, 96
8, 308224, Note_off_c, 6, 63, 0
8, 308224, Note_on_c, 6, 60, 96
8, 309248, Note_off_c, 6, 60, 0
8, 309760, Note_on_c, 6, 63, 96
8, 310272, Note_off_c, 6, 63, 0
8, 310272, Note_on_c, 6, 65, 96
8, 311296, Note_off_c, 6, 65, 0
8, 311296, Note_on_c, 6, 62, 96
8, 312320, Note_off_c, 6, 62, 0
8, 312832, Note_on_c, 6, 77, 96
8, 313344, Note_off_c, 6, 77, 0
8, 313344, Note_on_c, 6, 77, 96
8, 320000, Note_off_c, 6, 77, 0
8, 320000, Note_on_c, 6, 75, 96
8, 320512, Note_off_c, 6, 75, 0
8, 320512, Note_on_c, 6, 70, 96
8, 321536, Note_off_c, 6, 70, 0
8, 322048, Note_on_c, 6, 65, 96
8, 322560, Note_off_c, 6, 65, 0
8, 322560, Note_on_c, 6, 70, 96
8, 323072, Note_off_c, 6, 70, 0
8, 323072, Note_on_c, 6, 62, 96
8, 323584, Note_off_c, 6, 62, 0
8, 323584, Note_on_c, 6, 67, 96
8, 324608, Note_off_c, 6, 67, 0
8, 325120, Note_on_c, 6, 70, 96
8, 325632, Note_off_c, 6, 70, 0
8, 325632, Note_on_c, 6, 69, 96
8, 326144, Note_off_c, 6, 69, 0
8, 326144, Note_on_c, 6, 65, 96
8, 326400, Note_off_c, 6, 65, 0
8, 326400, Note_on_c, 6, 67, 96
8, 326656, Note_off_c, 6, 67, 0
8, 326656, Note_on_c, 6, 69, 96
8, 327168, Note_off_c, 6, 69, 0
8, 327168, Note_on_c, 6, 70, 96
8, 328192, Note_off_c, 6, 70, 0
8, 328192, Note_on_c, 6, 63, 96
8, 328704, Note_off_c, 6, 63, 0
8, 328704, Note_on_c, 6, 62, 96
8, 332800, Note_off_c, 6, 62, 0
8, 332800, End_track
9, 0, Start_track
9, 0, Title_t, "Instrument 8"
9, 0, Note_on_c, 7, 65, 96
9, 1024, Note_off_c, 7, 65, 0
9, 1024, Note_on_c, 7, 62, 96
9, 2048, Note_off_c, 7, 62, 0
9, 2560, Note_on_c, 7, 60, 96
9, 3072, Note_off_c, 7, 60, 0
9, 3072, Note_on_c, 7, 65, 96
9, 4096, Note_off_c, 7, 65, 0
9, 4096, Note_on_c, 7, 58, 96
9, 5120, Note_off_c, 7, 58, 0
9, 5632, Note_on_c, 7, 63, 96
9, 6144, Note_off_c, 7, 63, 0
9, 6144, Note_on_c, 7, 56, 96
9, 7168, Note_off_c, 7, 56, 0
9, 7168, Note_on_c, 7, 65, 96
9, 8192, Note_off_c, 7, 65, 0
9, 8704, Note_on_c, 7, 65, 96
9, 9216, Note_off_c, 7, 65, 0
9, 9216, Note_on_c, 7, 65, 96
9, 9728, Note_off_c, 7, 65, 0
9, 9728, Note_on_c, 7, 68, 96
9, 10240, Note_off_c, 7, 68, 0
9, 10240, Note_on_c, 7, 67, 96
9, 12032, Note_off_c, 7, 67, 0
9, 12288, Note_on_c, 7, 69, 96
9, 13312, Note_off_c, 7, 69, 0
9, 13312, Note_on_c, 7, 60, 96
9, 14336, Note_off_c, 7, 60, 0
9, 14848, Note_on_c, 7, 67, 96
9, 15360, Note_off_c, 7, 67, 0
9, 15360, Note_on_c, 7, 72, 96
9, 16384, Note_off_c, 7, 72, 0
9, 16384, Note_on_c, 7, 63, 96
9, 17408, Note_off_c, 7, 63, 0
9, 17920, Note_on_c, 7, 67, 96
9, 18432, Note_off_c, 7, 67, 0
9, 18432, Note_on_c, 7, 65, 96
9, 19456, Note_off_c, 7, 65, 0
9, 19456, Note_on_c, 7, 65, 96
9, 20480, Note_off_c, 7, 65, 0
9, 20992, Note_on_c, 7, 65, 96
9, 21504, Note_off_c, 7, 65, 0
9, 21504, Note_on_c, 7, 67, 96
9, 22016, Note_off_c, 7, 67, 0
9, 22016, Note_on_c, 7, 63, 96
9, 22528, Note_off_c, 7, 63, 0
9, 22528, Note_on_c, 7, 65, 96
9, 24320, Note_off_c, 7, 65, 0
9, 24576, Note_on_c, 7, 67, 96
9, 25600, Note_off_c, 7, 67, 0
9, 25600, Note_on_c, 7, 64, 96
9, 26624, Note_off_c, 7, 64, 0
9, 27136, Note_on_c, 7, 67, 96
9, 27648, Note_off_c, 7, 67, 0
9, 27648, Note_on_c, 7, 69, 96
9, 28672, Note_off_c, 7, 69, 0
9, 28672, Note_on_c, 7, 65, 96
9, 29696, Note_off_c, 7, 65, 0
9, 30208, Note_on_c, 7, 69, 96
9, 30720, Note_off_c, 7, 69, 0
9, 30720, Note_on_c, 7, 64, 96
9, 31232, Note_off_c, 7, 64, 0
9, 31232, Note_on_c, 7, 65, 96
9, 31744, Note_off_c, 7, 65, 0
9, 31744, Note_on_c, 7, 64, 96
9, 32768, Note_off_c, 7, 64, 0
9, 33280, Note_on_c, 7, 69, 96
9, 33792, Note_off_c, 7, 69, 0
9, 33792, Note_on_c, 7, 70, 96
9, 34304, Note_off_c, 7, 70, 0
9, 34304, Note_on_c, 7, 69, 96
9, 34816, Note_off_c, 7, 69, 0
9, 34816, Note_on_c, 7, 67, 96
9, 35840, Note_off_c, 7, 67, 0
9, 36352, Note_on_c, 7, 64, 96
9, 36864, Note_off_c, 7, 64, 0
9, 36864, Note_on_c, 7, 65, 96
9, 37376, Note_off_c, 7, 65, 0
9, 37376, Note_on_c, 7, 65, 96
9, 37888, Note_off_c, 7, 65, 0
9, 37888, Note_on_c, 7, 60, 96
9, 38912, Note_off_c, 7, 60, 0
9, 39424, Note_on_c, 7, 69, 96
9, 39936, Note_off_c, 7, 69, 0
9, 39936, Note_on_c, 7, 69, 96
9, 40448, Note_off_c, 7, 69, 0
9, 40448, Note_on_c, 7, 72, 96
9, 40960, Note_off_c, 7, 72, 0
9, 40960, Note_on_c, 7, 65, 96
9, 41984, Note_off_c, 7, 65, 0
9, 42496, Note_on_c, 7, 72, 96
9, 43008, Note_off_c, 7, 72, 0
9, 43008, Note_on_c, 7, 67, 96
9, 43520, Note_off_c, 7, 67, 0
9, 43520, Note_on_c, 7, 69, 96
9, 44032, Note_off_c, 7, 69, 0
9, 44032, Note_on_c, 7, 67, 96
9, 44544, Note_off_c, 7, 67, 0
9, 44544, Note_on_c, 7, 62, 96
9, 45056, Note_off_c, 7, 62, 0
9, 45056, Note_on_c, 7, 69, 96
9, 45568, Note_off_c, 7, 69, 0
9, 45568, Note_on_c, 7, 64, 96
9, 46080, Note_off_c, 7, 64, 0
9, 46080, Note_on_c, 7, 60, 96
9, 47104, Note_off_c, 7, 60, 0
9, 58368, Note_on_c, 7, 65, 96
9, 59392, Note_off_c, 7, 65, 0
9, 59392, Note_on_c, 7, 62, 96
9, 60416, Note_off_c, 7, 62, 0
9, 60928, Note_on_c, 7, 60, 96
9, 61440, Note_off_c, 7, 60, 0
9, 61440, Note_on_c, 7, 65, 96
9, 62464, Note_off_c, 7, 65, 0
9, 62464, Note_on_c, 7, 58, 96
9, 63488, Note_off_c, 7, 58, 0
9, 64000, Note_on_c, 7, 63, 96
9, 64512, Note_off_c, 7, 63, 0
9, 64512, Note_on_c, 7, 56, 96
9, 65536, Note_off_c, 7, 56, 0
9, 65536, Note_on_c, 7, 65, 96
9, 66560, Note_off_c, 7, 65, 0
9, 67072, Note_on_c, 7, 65, 96
9, 67584, Note_off_c, 7, 65, 0
9, 67584, Note_on_c, 7, 65, 96
9, 68096, Note_off_c, 7, 65, 0
9, 68096, Note_on_c, 7, 68, 96
9, 68608, Note_off_c, 7, 68, 0
9, 68608, Note_on_c, 7, 67, 96
9, 69632, Note_off_c, 7, 67, 0
9, 79872, Note_on_c, 7, 65, 96
9, 80896, Note_off_c, 7, 65, 0
9, 80896, Note_on_c, 7, 62, 96
9, 81920, Note_off_c, 7, 62, 0
9, 82432, Note_on_c, 7, 60, 96
9, 82944, Note_off_c, 7, 60, 0
9, 82944, Note_on_c, 7, 65, 96
9, 83968, Note_off_c, 7, 65, 0
9, 83968, Note_on_c, 7, 58, 96
9, 84992, Note_off_c, 7, 58, 0
9, 85504, Note_on_c, 7, 63, 96
9, 86016, Note_off_c, 7, 63, 0
9, 86016, Note_on_c, 7, 56, 96
9, 87040, Note_off_c, 7, 56, 0
9, 87040, Note_on_c, 7, 65, 96
9, 88064, Note_off_c, 7, 65, 0
9, 88576, Note_on_c, 7, 65, 96
9, 89088, Note_off_c, 7, 65, 0
9, 89088, Note_on_c, 7, 65, 96
9, 89600, Note_off_c, 7, 65, 0
9, 89600, Note_on_c, 7, 68, 96
9, 90112, Note_off_c, 7, 68, 0
9, 90112, Note_on_c, 7, 67, 96
9, 91904, Note_off_c, 7, 67, 0
9, 92160, Note_on_c, 7, 69, 96
9, 93184, Note_off_c, 7, 69, 0
9, 93184, Note_on_c, 7, 60, 96
9, 94208, Note_off_c, 7, 60, 0
9, 94720, Note_on_c, 7, 67, 96
9, 95232, Note_off_c, 7, 67, 0
9, 95232, Note_on_c, 7, 72, 96
9, 96256, Note_off_c, 7, 72, 0
9, 96256, Note_on_c, 7, 63, 96
9, 97280, Note_off_c, 7, 63, 0
9, 97792, Note_on_c, 7, 67, 96
9, 98304, Note_off_c, 7, 67, 0
9, 98304, Note_on_c, 7, 65, 96
9, 99328, Note_off_c, 7, 65, 0
9, 99328, Note_on_c, 7, 65, 96
9, 100352, Note_off_c, 7, 65, 0
9, 100864, Note_on_c, 7, 65, 96
9, 101376, Note_off_c, 7, 65, 0
9, 101376, Note_on_c, 7, 67, 96
9, 101888, Note_off_c, 7, 67, 0
9, 101888, Note_on_c, 7, 63, 96
9, 102400, Note_off_c, 7, 63, 0
9, 102400, Note_on_c, 7, 65, 96
9, 104192, Note_off_c, 7, 65, 0
9, 104448, Note_on_c, 7, 67, 96
9, 105472, Note_off_c, 7, 67, 0
9, 105472, Note_on_c, 7, 64, 96
9, 106496, Note_off_c, 7, 64, 0
9, 107008, Note_on_c, 7, 67, 96
9, 107520, Note_off_c, 7, 67, 0
9, 107520, Note_on_c, 7, 69, 96
9, 108544, Note_off_c, 7, 69, 0
9, 108544, Note_on_c, 7, 65, 96
9, 109568, Note_off_c, 7, 65, 0
9, 110080, Note_on_c, 7, 69, 96
9, 110592, Note_off_c, 7, 69, 0
9, 110592, Note_on_c, 7, 64, 96
9, 111104, Note_off_c, 7, 64, 0
9, 111104, Note_on_c, 7, 65, 96
9, 111616, Note_off_c, 7, 65, 0
9, 111616, Note_on_c, 7, 64, 96
9, 112640, Note_off_c, 7, 64, 0
9, 113152, Note_on_c, 7, 69, 96
9, 113664, Note_off_c, 7, 69, 0
9, 113664, Note_on_c, 7, 70, 96
9, 114176, Note_off_c, 7, 70, 0
9, 114176, Note_on_c, 7, 69, 96
9, 114688, Note_off_c, 7, 69, 0
9, 114688, Note_on_c, 7, 67, 96
9, 115712, Note_off_c, 7, 67, 0
9, 116224, Note_on_c, 7, 64, 96
9, 116736, Note_off_c, 7, 64, 0
9, 116736, Note_on_c, 7, 65, 96
9, 117248, Note_off_c, 7, 65, 0
9, 117248, Note_on_c, 7, 65, 96
9, 117760, Note_off_c, 7, 65, 0
9, 117760, Note_on_c, 7, 60, 96
9, 118784, Note_off_c, 7, 60, 0
9, 119296, Note_on_c, 7, 69, 96
9, 119808, Note_off_c, 7, 69, 0
9, 119808, Note_on_c, 7, 69, 96
9, 120320, Note_off_c, 7, 69, 0
9, 120320, Note_on_c, 7, 72, 96
9, 120832, Note_off_c, 7, 72, 0
9, 120832, Note_on_c, 7, 65, 96
9, 121856, Note_off_c, 7, 65, 0
9, 122368, Note_on_c, 7, 72, 96
9, 122880, Note_off_c, 7, 72, 0
9, 122880, Note_on_c, 7, 67, 96
9, 123392, Note_off_c, 7, 67, 0
9, 123392, Note_on_c, 7, 69, 96
9, 123904, Note_off_c, 7, 69, 0
9, 123904, Note_on_c, 7, 67, 96
9, 124416, Note_off_c, 7, 67, 0
9, 124416, Note_on_c, 7, 62, 96
9, 124928, Note_off_c, 7, 62, 0
9, 124928, Note_on_c, 7, 69, 96
9, 125440, Note_off_c, 7, 69, 0
9, 125440, Note_on_c, 7, 64, 96
9, 125952, Note_off_c, 7, 64, 0
9, 125952, Note_on_c, 7, 60, 96
9, 126976, Note_off_c, 7, 60, 0
9, 138240, Note_on_c, 7, 65, 96
9, 139264, Note_off_c, 7, 65, 0
9, 139264, Note_on_c, 7, 62, 96
9, 140288, Note_off_c, 7, 62, 0
9, 140800, Note_on_c, 7, 60, 96
9, 141312, Note_off_c, 7, 60, 0
9, 141312, Note_on_c, 7, 65, 96
9, 142336, Note_off_c, 7, 65, 0
9, 142336, Note_on_c, 7, 62, 96
9, 143360, Note_off_c, 7, 62, 0
9, 143872, Note_on_c, 7, 63, 96
9, 144384, Note_off_c, 7, 63, 0
9, 144384, Note_on_c, 7, 56, 96
9, 145408, Note_off_c, 7, 56, 0
9, 145408, Note_on_c, 7, 65, 96
9, 146432, Note_off_c, 7, 65, 0
9, 146944, Note_on_c, 7, 65, 96
9, 147456, Note_off_c, 7, 65, 0
9, 147456, Note_on_c, 7, 65, 96
9, 147968, Note_off_c, 7, 65, 0
9, 147968, Note_on_c, 7, 68, 96
9, 148480, Note_off_c, 7, 68, 0
9, 148480, Note_on_c, 7, 67, 96
9, 149504, Note_off_c, 7, 67, 0
9, 159744, Note_on_c, 7, 62, 96
9, 160768, Note_off_c, 7, 62, 0
9, 160768, Note_on_c, 7, 53, 96
9, 161792, Note_off_c, 7, 53, 0
9, 162304, Note_on_c, 7, 60, 96
9, 162816, Note_off_c, 7, 60, 0
9, 162816, Note_on_c, 7, 65, 96
9, 163840, Note_off_c, 7, 65, 0
9, 163840, Note_on_c, 7, 58, 96
9, 164864, Note_off_c, 7, 58, 0
9, 165376, Note_on_c, 7, 60, 96
9, 165888, Note_off_c, 7, 60, 0
9, 165888, Note_on_c, 7, 58, 96
9, 166912, Note_off_c, 7, 58, 0
9, 166912, Note_on_c, 7, 58, 96
9, 167936, Note_off_c, 7, 58, 0
9, 168448, Note_on_c, 7, 58, 96
9, 168960, Note_off_c, 7, 58, 0
9, 168960, Note_on_c, 7, 60, 96
9, 169472, Note_off_c, 7, 60, 0
9, 169472, Note_on_c, 7, 56, 96
9, 169984, Note_off_c, 7, 56, 0
9, 169984, Note_on_c, 7, 58, 96
9, 171776, Note_off_c, 7, 58, 0
9, 172032, Note_on_c, 7, 60, 96
9, 173056, Note_off_c, 7, 60, 0
9, 173056, Note_on_c, 7, 57, 96
9, 174080, Note_off_c, 7, 57, 0
9, 174592, Note_on_c, 7, 60, 96
9, 175104, Note_off_c, 7, 60, 0
9, 175104, Note_on_c, 7, 62, 96
9, 176128, Note_off_c, 7, 62, 0
9, 176128, Note_on_c, 7, 58, 96
9, 177152, Note_off_c, 7, 58, 0
9, 177664, Note_on_c, 7, 62, 96
9, 178176, Note_off_c, 7, 62, 0
9, 178176, Note_on_c, 7, 57, 96
9, 178688, Note_off_c, 7, 57, 0
9, 178688, Note_on_c, 7, 58, 96
9, 179200, Note_off_c, 7, 58, 0
9, 179200, Note_on_c, 7, 57, 96
9, 180224, Note_off_c, 7, 57, 0
9, 180736, Note_on_c, 7, 62, 96
9, 181248, Note_off_c, 7, 62, 0
9, 181248, Note_on_c, 7, 63, 96
9, 181760, Note_off_c, 7, 63, 0
9, 181760, Note_on_c, 7, 62, 96
9, 182272, Note_off_c, 7, 62, 0
9, 182272, Note_on_c, 7, 60, 96
9, 183296, Note_off_c, 7, 60, 0
9, 183808, Note_on_c, 7, 57, 96
9, 184320, Note_off_c, 7, 57, 0
9, 184320, Note_on_c, 7, 58, 96
9, 184832, Note_off_c, 7, 58, 0
9, 184832, Note_on_c, 7, 58, 96
9, 185344, Note_off_c, 7, 58, 0
9, 185344, Note_on_c, 7, 53, 96
9, 186368, Note_off_c, 7, 53, 0
9, 186880, Note_on_c, 7, 62, 96
9, 187392, Note_off_c, 7, 62, 0
9, 187392, Note_on_c, 7, 62, 96
9, 187904, Note_off_c, 7, 62, 0
9, 187904, Note_on_c, 7, 65, 96
9, 188416, Note_off_c, 7, 65, 0
9, 188416, Note_on_c, 7, 58, 96
9, 189440, Note_off_c, 7, 58, 0
9, 189952, Note_on_c, 7, 65, 96
9, 190464, Note_off_c, 7, 65, 0
9, 190464, Note_on_c, 7, 60, 96
9, 190976, Note_off_c, 7, 60, 0
9, 190976, Note_on_c, 7, 62, 96
9, 191488, Note_off_c, 7, 62, 0
9, 191488, Note_on_c, 7, 60, 96
9, 192000, Note_off_c, 7, 60, 0
9, 192000, Note_on_c, 7, 55, 96
9, 192512, Note_off_c, 7, 55, 0
9, 192512, Note_on_c, 7, 62, 96
9, 193024, Note_off_c, 7, 62, 0
9, 193024, Note_on_c, 7, 57, 96
9, 193536, Note_off_c, 7, 57, 0
9, 193536, Note_on_c, 7, 53, 96
9, 194560, Note_off_c, 7, 53, 0
9, 194560, Note_on_c, 7, 65, 96
9, 195584, Note_off_c, 7, 65, 0
9, 196096, Note_on_c, 7, 65, 96
9, 196608, Note_off_c, 7, 65, 0
9, 196608, Note_on_c, 7, 63, 96
9, 197632, Note_off_c, 7, 63, 0
9, 197632, Note_on_c, 7, 55, 96
9, 198656, Note_off_c, 7, 55, 0
9, 199168, Note_on_c, 7, 67, 96
9, 199680, Note_off_c, 7, 67, 0
9, 199680, Note_on_c, 7, 65, 96
9, 200192, Note_off_c, 7, 65, 0
9, 200192, Note_on_c, 7, 53, 96
9, 200704, Note_off_c, 7, 53, 0
9, 200704, Note_on_c, 7, 60, 96
9, 201728, Note_off_c, 7, 60, 0
9, 202240, Note_on_c, 7, 69, 96
9, 202752, Note_off_c, 7, 69, 0
9, 202752, Note_on_c, 7, 70, 96
9, 203264, Note_off_c, 7, 70, 0
9, 203264, Note_on_c, 7, 72, 96
9, 203776, Note_off_c, 7, 72, 0
9, 203776, Note_on_c, 7, 65, 96
9, 204800, Note_off_c, 7, 65, 0
9, 205312, Note_on_c, 7, 65, 96
9, 205824, Note_off_c, 7, 65, 0
9, 205824, Note_on_c, 7, 65, 96
9, 206336, Note_off_c, 7, 65, 0
9, 206336, Note_on_c, 7, 62, 96
9, 206848, Note_off_c, 7, 62, 0
9, 206848, Note_on_c, 7, 65, 96
9, 207872, Note_off_c, 7, 65, 0
9, 208384, Note_on_c, 7, 63, 96
9, 208896, Note_off_c, 7, 63, 0
9, 208896, Note_on_c, 7, 62, 96
9, 209408, Note_off_c, 7, 62, 0
9, 209408, Note_on_c, 7, 63, 96
9, 209920, Note_off_c, 7, 63, 0
9, 209920, Note_on_c, 7, 58, 96
9, 210944, Note_off_c, 7, 58, 0
9, 211456, Note_on_c, 7, 65, 96
9, 211968, Note_off_c, 7, 65, 0
9, 211968, Note_on_c, 7, 63, 96
9, 212480, Note_off_c, 7, 63, 0
9, 212480, Note_on_c, 7, 67, 96
9, 212736, Note_off_c, 7, 67, 0
9, 212736, Note_on_c, 7, 65, 96
9, 212992, Note_off_c, 7, 65, 0
9, 212992, Note_on_c, 7, 63, 96
9, 214016, Note_off_c, 7, 63, 0
9, 214528, Note_on_c, 7, 60, 96
9, 215040, Note_off_c, 7, 60, 0
9, 215040, Note_on_c, 7, 62, 96
9, 215552, Note_off_c, 7, 62, 0
9, 215552, Note_on_c, 7, 66, 96
9, 215808, Note_off_c, 7, 66, 0
9, 215808, Note_on_c, 7, 63, 96
9, 216064, Note_off_c, 7, 63, 0
9, 216064, Note_on_c, 7, 62, 96
9, 217088, Note_off_c, 7, 62, 0
9, 217600, Note_on_c, 7, 59, 96
9, 218112, Note_off_c, 7, 59, 0
9, 218112, Note_on_c, 7, 60, 96
9, 218624, Note_off_c, 7, 60, 0
9, 218624, Note_on_c, 7, 63, 96
9, 218880, Note_off_c, 7, 63, 0
9, 218880, Note_on_c, 7, 62, 96
9, 219136, Note_off_c, 7, 62, 0
9, 219136, Note_on_c, 7, 60, 96
9, 220160, Note_off_c, 7, 60, 0
9, 220672, Note_on_c, 7, 63, 96
9, 221184, Note_off_c, 7, 63, 0
9, 221184, Note_on_c, 7, 65, 96
9, 221696, Note_off_c, 7, 65, 0
9, 221696, Note_on_c, 7, 62, 96
9, 222208, Note_off_c, 7, 62, 0
9, 222208, Note_on_c, 7, 65, 96
9, 223232, Note_off_c, 7, 65, 0
9, 223744, Note_on_c, 7, 62, 96
9, 224256, Note_off_c, 7, 62, 0
9, 224256, Note_on_c, 7, 64, 96
9, 224768, Note_off_c, 7, 64, 0
9, 224768, Note_on_c, 7, 55, 96
9, 225280, Note_off_c, 7, 55, 0
9, 225280, Note_on_c, 7, 60, 96
9, 226304, Note_off_c, 7, 60, 0
9, 226816, Note_on_c, 7, 60, 96
9, 227328, Note_off_c, 7, 60, 0
9, 227328, Note_on_c, 7, 60, 96
9, 227840, Note_off_c, 7, 60, 0
9, 227840, Note_on_c, 7, 57, 96
9, 228352, Note_off_c, 7, 57, 0
9, 228352, Note_on_c, 7, 69, 96
9, 229376, Note_off_c, 7, 69, 0
9, 229888, Note_on_c, 7, 69, 96
9, 230400, Note_off_c, 7, 69, 0
9, 230400, Note_on_c, 7, 62, 96
9, 230912, Note_off_c, 7, 62, 0
9, 230912, Note_on_c, 7, 67, 96
9, 231424, Note_off_c, 7, 67, 0
9, 231424, Note_on_c, 7, 70, 96
9, 232448, Note_off_c, 7, 70, 0
9, 232960, Note_on_c, 7, 60, 96
9, 233472, Note_off_c, 7, 60, 0
9, 233472, Note_on_c, 7, 60, 96
9, 234496, Note_off_c, 7, 60, 0
9, 234496, Note_on_c, 7, 57, 96
9, 235520, Note_off_c, 7, 57, 0
9, 236032, Note_on_c, 7, 55, 96
9, 236544, Note_off_c, 7, 55, 0
9, 236544, Note_on_c, 7, 60, 96
9, 237568, Note_off_c, 7, 60, 0
9, 237568, Note_on_c, 7, 53, 96
9, 238592, Note_off_c, 7, 53, 0
9, 239104, Note_on_c, 7, 58, 96
9, 239616, Note_off_c, 7, 58, 0
9, 239616, Note_on_c, 7, 51, 96
9, 240640, Note_off_c, 7, 51, 0
9, 240640, Note_on_c, 7, 60, 96
9, 241664, Note_off_c, 7, 60, 0
9, 242176, Note_on_c, 7, 60, 96
9, 242688, Note_off_c, 7, 60, 0
9, 242688, Note_on_c, 7, 60, 96
9, 243200, Note_off_c, 7, 60, 0
9, 243200, Note_on_c, 7, 63, 96
9, 243712, Note_off_c, 7, 63, 0
9, 243712, Note_on_c, 7, 62, 96
9, 245504, Note_off_c, 7, 62, 0
9, 245760, Note_on_c, 7, 64, 96
9, 246784, Note_off_c, 7, 64, 0
9, 246784, Note_on_c, 7, 55, 96
9, 247808, Note_off_c, 7, 55, 0
9, 248320, Note_on_c, 7, 62, 96
9, 248832, Note_off_c, 7, 62, 0
9, 248832, Note_on_c, 7, 67, 96
9, 249856, Note_off_c, 7, 67, 0
9, 249856, Note_on_c, 7, 58, 96
9, 250880, Note_off_c, 7, 58, 0
9, 251392, Note_on_c, 7, 62, 96
9, 251904, Note_off_c, 7, 62, 0
9, 251904, Note_on_c, 7, 60, 96
9, 252928, Note_off_c, 7, 60, 0
9, 252928, Note_on_c, 7, 72, 96
9, 253952, Note_off_c, 7, 72, 0
9, 254464, Note_on_c, 7, 60, 96
9, 254976, Note_off_c, 7, 60, 0
9, 254976, Note_on_c, 7, 62, 96
9, 255488, Note_off_c, 7, 62, 0
9, 255488, Note_on_c, 7, 58, 96
9, 256000, Note_off_c, 7, 58, 0
9, 256000, Note_on_c, 7, 60, 96
9, 257024, Note_off_c, 7, 60, 0
9, 267264, Note_on_c, 7, 65, 96
9, 268288, Note_off_c, 7, 65, 0
9, 268288, Note_on_c, 7, 62, 96
9, 269312, Note_off_c, 7, 62, 0
9, 269824, Note_on_c, 7, 65, 96
9, 270336, Note_off_c, 7, 65, 0
9, 270336, Note_on_c, 7, 67, 96
9, 271360, Note_off_c, 7, 67, 0
9, 271360, Note_on_c, 7, 63, 96
9, 272384, Note_off_c, 7, 63, 0
9, 272896, Note_on_c, 7, 67, 96
9, 273408, Note_off_c, 7, 67, 0
9, 273408, Note_on_c, 7, 62, 96
9, 273920, Note_off_c, 7, 62, 0
9, 273920, Note_on_c, 7, 63, 96
9, 274432, Note_off_c, 7, 63, 0
9, 274432, Note_on_c, 7, 62, 96
9, 275456, Note_off_c, 7, 62, 0
9, 275968, Note_on_c, 7, 67, 96
9, 276480, Note_off_c, 7, 67, 0
9, 276480, Note_on_c, 7, 68, 96
9, 276992, Note_off_c, 7, 68, 0
9, 276992, Note_on_c, 7, 67, 96
9, 277504, Note_off_c, 7, 67, 0
9, 277504, Note_on_c, 7, 65, 96
9, 278528, Note_off_c, 7, 65, 0
9, 279040, Note_on_c, 7, 62, 96
9, 279552, Note_off_c, 7, 62, 0
9, 279552, Note_on_c, 7, 63, 96
9, 281088, Note_off_c, 7, 63, 0
9, 281088, Note_on_c, 7, 62, 96
9, 281344, Note_off_c, 7, 62, 0
9, 281344, Note_on_c, 7, 60, 96
9, 281600, Note_off_c, 7, 60, 0
9, 281600, Note_on_c, 7, 58, 96
9, 282112, Note_off_c, 7, 58, 0
9, 282112, Note_on_c, 7, 60, 96
9, 282624, Note_off_c, 7, 60, 0
9, 282624, Note_on_c, 7, 62, 96
9, 283136, Note_off_c, 7, 62, 0
9, 283136, Note_on_c, 7, 53, 96
9, 283648, Note_off_c, 7, 53, 0
9, 283648, Note_on_c, 7, 58, 96
9, 284672, Note_off_c, 7, 58, 0
9, 285184, Note_on_c, 7, 63, 96
9, 285696, Note_off_c, 7, 63, 0
9, 285696, Note_on_c, 7, 62, 96
9, 286720, Note_off_c, 7, 62, 0
9, 286720, Note_on_c, 7, 58, 96
9, 287744, Note_off_c, 7, 58, 0
9, 288256, Note_on_c, 7, 63, 96
9, 288768, Note_off_c, 7, 63, 0
9, 288768, Note_on_c, 7, 56, 96
9, 289792, Note_off_c, 7, 56, 0
9, 289792, Note_on_c, 7, 65, 96
9, 290816, Note_off_c, 7, 65, 0
9, 291328, Note_on_c, 7, 65, 96
9, 291840, Note_off_c, 7, 65, 0
9, 291840, Note_on_c, 7, 65, 96
9, 292352, Note_off_c, 7, 65, 0
9, 292352, Note_on_c, 7, 68, 96
9, 292864, Note_off_c, 7, 68, 0
9, 292864, Note_on_c, 7, 67, 96
9, 294656, Note_off_c, 7, 67, 0
9, 294912, Note_on_c, 7, 65, 96
9, 295936, Note_off_c, 7, 65, 0
9, 295936, Note_on_c, 7, 58, 96
9, 296960, Note_off_c, 7, 58, 0
9, 297472, Note_on_c, 7, 60, 96
9, 297984, Note_off_c, 7, 60, 0
9, 297984, Note_on_c, 7, 62, 96
9, 299008, Note_off_c, 7, 62, 0
9, 299008, Note_on_c, 7, 58, 96
9, 300032, Note_off_c, 7, 58, 0
9, 300544, Note_on_c, 7, 55, 96
9, 301056, Note_off_c, 7, 55, 0
9, 301056, Note_on_c, 7, 53, 96
9, 302080, Note_off_c, 7, 53, 0
9, 302080, Note_on_c, 7, 56, 96
9, 303104, Note_off_c, 7, 56, 0
9, 303616, Note_on_c, 7, 56, 96
9, 304128, Note_off_c, 7, 56, 0
9, 304128, Note_on_c, 7, 55, 96
9, 304640, Note_off_c, 7, 55, 0
9, 304640, Note_on_c, 7, 56, 96
9, 305152, Note_off_c, 7, 56, 0
9, 305152, Note_on_c, 7, 58, 96
9, 306944, Note_off_c, 7, 58, 0
9, 307200, Note_on_c, 7, 60, 96
9, 308224, Note_off_c, 7, 60, 0
9, 308224, Note_on_c, 7, 57, 96
9, 309248, Note_off_c, 7, 57, 0
9, 309760, Note_on_c, 7, 60, 96
9, 310272, Note_off_c, 7, 60, 0
9, 310272, Note_on_c, 7, 62, 96
9, 311296, Note_off_c, 7, 62, 0
9, 311296, Note_on_c, 7, 58, 96
9, 312320, Note_off_c, 7, 58, 0
9, 312832, Note_on_c, 7, 62, 96
9, 313344, Note_off_c, 7, 62, 0
9, 313344, Note_on_c, 7, 57, 96
9, 313856, Note_off_c, 7, 57, 0
9, 313856, Note_on_c, 7, 58, 96
9, 314368, Note_off_c, 7, 58, 0
9, 314368, Note_on_c, 7, 57, 96
9, 315392, Note_off_c, 7, 57, 0
9, 315904, Note_on_c, 7, 62, 96
9, 316416, Note_off_c, 7, 62, 0
9, 316416, Note_on_c, 7, 63, 96
9, 316928, Note_off_c, 7, 63, 0
9, 316928, Note_on_c, 7, 62, 96
9, 317440, Note_off_c, 7, 62, 0
9, 317440, Note_on_c, 7, 60, 96
9, 318464, Note_off_c, 7, 60, 0
9, 318976, Note_on_c, 7, 69, 96
9, 319488, Note_off_c, 7, 69, 0
9, 319488, Note_on_c, 7, 70, 96
9, 320000, Note_off_c, 7, 70, 0
9, 320000, Note_on_c, 7, 58, 96
9, 320512, Note_off_c, 7, 58, 0
9, 320512, Note_on_c, 7, 65, 96
9, 321536, Note_off_c, 7, 65, 0
9, 322048, Note_on_c, 7, 62, 96
9, 322560, Note_off_c, 7, 62, 0
9, 322560, Note_on_c, 7, 62, 96
9, 323072, Note_off_c, 7, 62, 0
9, 323072, Note_on_c, 7, 65, 96
9, 323584, Note_off_c, 7, 65, 0
9, 323584, Note_on_c, 7, 58, 96
9, 324608, Note_off_c, 7, 58, 0
9, 325120, Note_on_c, 7, 65, 96
9, 325632, Note_off_c, 7, 65, 0
9, 325632, Note_on_c, 7, 60, 96
9, 326144, Note_off_c, 7, 60, 0
9, 326144, Note_on_c, 7, 62, 96
9, 326656, Note_off_c, 7, 62, 0
9, 326656, Note_on_c, 7, 60, 96
9, 327168, Note_off_c, 7, 60, 0
9, 327168, Note_on_c, 7, 55, 96
9, 327680, Note_off_c, 7, 55, 0
9, 327680, Note_on_c, 7, 62, 96
9, 328192, Note_off_c, 7, 62, 0
9, 328192, Note_on_c, 7, 57, 96
9, 328704, Note_off_c, 7, 57, 0
9, 328704, Note_on_c, 7, 53, 96
9, 332800, Note_off_c, 7, 53, 0
9, 332800, End_track
0, 0, End_of_file
