0, 0, Header, 1, 4, 240
1, 0, Start_track
1, 0, Time_signature, 4, 2, 24, 8
1, 0, Key_signature, 0, "major"
1, 0, Tempo, 722891
1, 28800, Tempo, 750000
1, 28924, Tempo, 800000
1, 29040, Tempo, 869565
1, 29160, Tempo, 1000000
1, 29280, Tempo, 1111111
1, 29280, End_track
2, 0, Start_track
2, 0, MIDI_port, 0
2, 0, Title_t, "RH H"
2, 0, Program_c, 0, 6
2, 2040, Note_on_c, 0, 79, 64
2, 2100, Note_on_c, 0, 79, 0
2, 2100, Note_on_c, 0, 78, 64
2, 2160, Note_on_c, 0, 78, 0
2, 2160, Note_on_c, 0, 79, 64
2, 2280, Note_on_c, 0, 79, 0
2, 2280, Note_on_c, 0, 72, 64
2, 2400, Note_on_c, 0, 72, 0
2, 2400, Note_on_c, 0, 75, 64
2, 2520, Note_on_c, 0, 75, 0
2, 2520, Note_on_c, 0, 79, 64
2, 2580, Note_on_c, 0, 79, 0
2, 2580, Note_on_c, 0, 78, 64
2, 2640, Note_on_c, 0, 78, 0
2, 2640, Note_on_c, 0, 79, 64
2, 2760, Note_on_c, 0, 79, 0
2, 2760, Note_on_c, 0, 81, 64
2, 2880, Note_on_c, 0, 81, 0
2, 2880, Note_on_c, 0, 74, 64
2, 3000, Note_on_c, 0, 74, 0
2, 3000, Note_on_c, 0, 79, 64
2, 3060, Note_on_c, 0, 79, 0
2, 3060, Note_on_c, 0, 78, 64
2, 3105, Note_on_c, 0, 78, 0
2, 3120, Note_on_c, 0, 79, 64
2, 3240, Note_on_c, 0, 79, 0
2, 3240, Note_on_c, 0, 81, 64
2, 3360, Note_on_c, 0, 81, 0
2, 3360, Note_on_c, 0, 72, 64
2, 3420, Note_on_c, 0, 72, 0
2, 3420, Note_on_c, 0, 74, 64
2, 3480, Note_on_c, 0, 74, 0
2, 3480, Note_on_c, 0, 75, 64
2, 3720, Note_on_c, 0, 75, 0
2, 3720, Note_on_c, 0, 74, 64
2, 3780, Note_on_c, 0, 74, 0
2, 3780, Note_on_c, 0, 72, 64
2, 3840, Note_on_c, 0, 72, 0
2, 3840, Note_on_c, 0, 70, 64
2, 3960, Note_on_c, 0, 70, 0
2, 3960, Note_on_c, 0, 75, 64
2, 4020, Note_on_c, 0, 75, 0
2, 4020, Note_on_c, 0, 74, 64
2, 4080, Note_on_c, 0, 74, 0
2, 4080, Note_on_c, 0, 75, 64
2, 4200, Note_on_c, 0, 75, 0
2, 4200, Note_on_c, 0, 67, 64
2, 4320, Note_on_c, 0, 67, 0
2, 4320, Note_on_c, 0, 68, 64
2, 4440, Note_on_c, 0, 68, 0
2, 4440, Note_on_c, 0, 77, 64
2, 4500, Note_on_c, 0, 77, 0
2, 4500, Note_on_c, 0, 75, 64
2, 4546, Note_on_c, 0, 75, 0
2, 4560, Note_on_c, 0, 77, 64
2, 4680, Note_on_c, 0, 77, 0
2, 4680, Note_on_c, 0, 69, 64
2, 4800, Note_on_c, 0, 69, 0
2, 4800, Note_on_c, 0, 70, 64
2, 4920, Note_on_c, 0, 70, 0
2, 4920, Note_on_c, 0, 79, 64
2, 4980, Note_on_c, 0, 79, 0
2, 4980, Note_on_c, 0, 77, 64
2, 5040, Note_on_c, 0, 77, 0
2, 5040, Note_on_c, 0, 79, 64
2, 5136, Note_on_c, 0, 79, 0
2, 5160, Note_on_c, 0, 71, 64
2, 5276, Note_on_c, 0, 71, 0
2, 5280, Note_on_c, 0, 72, 64
2, 5389, Note_on_c, 0, 72, 0
2, 5400, Note_on_c, 0, 74, 64
2, 5460, Note_on_c, 0, 74, 0
2, 5460, Note_on_c, 0, 75, 64
2, 5520, Note_on_c, 0, 75, 0
2, 5520, Note_on_c, 0, 77, 64
2, 5880, Note_on_c, 0, 77, 0
2, 5880, Note_on_c, 0, 75, 64
2, 5940, Note_on_c, 0, 75, 0
2, 5940, Note_on_c, 0, 74, 64
2, 6000, Note_on_c, 0, 74, 0
2, 6000, Note_on_c, 0, 72, 64
2, 6060, Note_on_c, 0, 72, 0
2, 6060, Note_on_c, 0, 70, 64
2, 6120, Note_on_c, 0, 70, 0
2, 6120, Note_on_c, 0, 68, 64
2, 6180, Note_on_c, 0, 68, 0
2, 6180, Note_on_c, 0, 67, 64
2, 6240, Note_on_c, 0, 67, 0
2, 6240, Note_on_c, 0, 65, 64
2, 6360, Note_on_c, 0, 80, 64
2, 6373, Note_on_c, 0, 65, 0
2, 6465, Note_on_c, 0, 80, 0
2, 6480, Note_on_c, 0, 79, 64
2, 6574, Note_on_c, 0, 79, 0
2, 6600, Note_on_c, 0, 77, 64
2, 6696, Note_on_c, 0, 77, 0
2, 6720, Note_on_c, 0, 75, 64
2, 6822, Note_on_c, 0, 75, 0
2, 6840, Note_on_c, 0, 74, 64
2, 6937, Note_on_c, 0, 74, 0
2, 6960, Note_on_c, 0, 75, 64
2, 7055, Note_on_c, 0, 75, 0
2, 7080, Note_on_c, 0, 77, 64
2, 7192, Note_on_c, 0, 77, 0
2, 7200, Note_on_c, 0, 71, 64
2, 7303, Note_on_c, 0, 71, 0
2, 7320, Note_on_c, 0, 72, 64
2, 7420, Note_on_c, 0, 72, 0
2, 7440, Note_on_c, 0, 74, 64
2, 7538, Note_on_c, 0, 74, 0
2, 7560, Note_on_c, 0, 71, 64
2, 7670, Note_on_c, 0, 71, 0
2, 7680, Note_on_c, 0, 72, 64
2, 7792, Note_on_c, 0, 72, 0
2, 7800, Note_on_c, 0, 79, 64
2, 7860, Note_on_c, 0, 79, 0
2, 7860, Note_on_c, 0, 78, 64
2, 7920, Note_on_c, 0, 78, 0
2, 7920, Note_on_c, 0, 79, 64
2, 8009, Note_on_c, 0, 79, 0
2, 8040, Note_on_c, 0, 74, 64
2, 8141, Note_on_c, 0, 74, 0
2, 8160, Note_on_c, 0, 75, 64
2, 8406, Note_on_c, 0, 75, 0
2, 8520, Note_on_c, 0, 76, 64
2, 8620, Note_on_c, 0, 76, 0
2, 8640, Note_on_c, 0, 77, 64
2, 8731, Note_on_c, 0, 77, 0
2, 8760, Note_on_c, 0, 77, 64
2, 8820, Note_on_c, 0, 77, 0
2, 8820, Note_on_c, 0, 76, 64
2, 8860, Note_on_c, 0, 76, 0
2, 8880, Note_on_c, 0, 77, 64
2, 8976, Note_on_c, 0, 77, 0
2, 9000, Note_on_c, 0, 72, 64
2, 9099, Note_on_c, 0, 72, 0
2, 9120, Note_on_c, 0, 74, 64
2, 9373, Note_on_c, 0, 74, 0
2, 9480, Note_on_c, 0, 74, 64
2, 9580, Note_on_c, 0, 74, 0
2, 9600, Note_on_c, 0, 75, 64
2, 9692, Note_on_c, 0, 75, 0
2, 9720, Note_on_c, 0, 75, 64
2, 9780, Note_on_c, 0, 75, 0
2, 9780, Note_on_c, 0, 74, 64
2, 9823, Note_on_c, 0, 74, 0
2, 9840, Note_on_c, 0, 75, 64
2, 9944, Note_on_c, 0, 75, 0
2, 9960, Note_on_c, 0, 70, 64
2, 10065, Note_on_c, 0, 70, 0
2, 10080, Note_on_c, 0, 72, 64
2, 10182, Note_on_c, 0, 72, 0
2, 10200, Note_on_c, 0, 75, 64
2, 10260, Note_on_c, 0, 75, 0
2, 10260, Note_on_c, 0, 74, 64
2, 10320, Note_on_c, 0, 74, 0
2, 10320, Note_on_c, 0, 75, 64
2, 10418, Note_on_c, 0, 75, 0
2, 10440, Note_on_c, 0, 77, 64
2, 10546, Note_on_c, 0, 77, 0
2, 10560, Note_on_c, 0, 70, 64
2, 10662, Note_on_c, 0, 70, 0
2, 10680, Note_on_c, 0, 75, 64
2, 10740, Note_on_c, 0, 75, 0
2, 10740, Note_on_c, 0, 74, 64
2, 10800, Note_on_c, 0, 74, 0
2, 10800, Note_on_c, 0, 75, 64
2, 10906, Note_on_c, 0, 75, 0
2, 10920, Note_on_c, 0, 77, 64
2, 11018, Note_on_c, 0, 77, 0
2, 11040, Note_on_c, 0, 68, 64
2, 11100, Note_on_c, 0, 68, 0
2, 11100, Note_on_c, 0, 70, 64
2, 11160, Note_on_c, 0, 70, 0
2, 11160, Note_on_c, 0, 72, 64
2, 11400, Note_on_c, 0, 72, 0
2, 11400, Note_on_c, 0, 70, 64
2, 11460, Note_on_c, 0, 70, 0
2, 11460, Note_on_c, 0, 68, 64
2, 11520, Note_on_c, 0, 68, 0
2, 11520, Note_on_c, 0, 67, 64
2, 11580, Note_on_c, 0, 67, 0
2, 11580, Note_on_c, 0, 63, 64
2, 11640, Note_on_c, 0, 63, 0
2, 11640, Note_on_c, 0, 65, 64
2, 11700, Note_on_c, 0, 65, 0
2, 11700, Note_on_c, 0, 67, 64
2, 11760, Note_on_c, 0, 67, 0
2, 11760, Note_on_c, 0, 68, 64
2, 11820, Note_on_c, 0, 68, 0
2, 11820, Note_on_c, 0, 70, 64
2, 11880, Note_on_c, 0, 70, 0
2, 11880, Note_on_c, 0, 72, 64
2, 11940, Note_on_c, 0, 72, 0
2, 11940, Note_on_c, 0, 74, 64
2, 12000, Note_on_c, 0, 74, 0
2, 12000, Note_on_c, 0, 75, 64
2, 12060, Note_on_c, 0, 75, 0
2, 12060, Note_on_c, 0, 74, 64
2, 12120, Note_on_c, 0, 74, 0
2, 12120, Note_on_c, 0, 72, 64
2, 12180, Note_on_c, 0, 72, 0
2, 12180, Note_on_c, 0, 74, 64
2, 12240, Note_on_c, 0, 74, 0
2, 12240, Note_on_c, 0, 75, 64
2, 12300, Note_on_c, 0, 75, 0
2, 12300, Note_on_c, 0, 77, 64
2, 12360, Note_on_c, 0, 77, 0
2, 12360, Note_on_c, 0, 79, 64
2, 12420, Note_on_c, 0, 79, 0
2, 12420, Note_on_c, 0, 81, 64
2, 12480, Note_on_c, 0, 81, 0
2, 12480, Note_on_c, 0, 82, 64
2, 12540, Note_on_c, 0, 82, 0
2, 12540, Note_on_c, 0, 65, 64
2, 12600, Note_on_c, 0, 65, 0
2, 12600, Note_on_c, 0, 67, 64
2, 12660, Note_on_c, 0, 67, 0
2, 12660, Note_on_c, 0, 68, 64
2, 12720, Note_on_c, 0, 68, 0
2, 12720, Note_on_c, 0, 70, 64
2, 12780, Note_on_c, 0, 70, 0
2, 12780, Note_on_c, 0, 72, 64
2, 12840, Note_on_c, 0, 72, 0
2, 12840, Note_on_c, 0, 74, 64
2, 12900, Note_on_c, 0, 74, 0
2, 12900, Note_on_c, 0, 76, 64
2, 12960, Note_on_c, 0, 76, 0
2, 12960, Note_on_c, 0, 77, 64
2, 13020, Note_on_c, 0, 77, 0
2, 13020, Note_on_c, 0, 75, 64
2, 13080, Note_on_c, 0, 75, 0
2, 13080, Note_on_c, 0, 74, 64
2, 13140, Note_on_c, 0, 74, 0
2, 13140, Note_on_c, 0, 75, 64
2, 13200, Note_on_c, 0, 75, 0
2, 13200, Note_on_c, 0, 77, 64
2, 13260, Note_on_c, 0, 77, 0
2, 13260, Note_on_c, 0, 79, 64
2, 13320, Note_on_c, 0, 79, 0
2, 13320, Note_on_c, 0, 81, 64
2, 13380, Note_on_c, 0, 81, 0
2, 13380, Note_on_c, 0, 83, 64
2, 13440, Note_on_c, 0, 83, 0
2, 13440, Note_on_c, 0, 84, 64
2, 13560, Note_on_c, 0, 84, 0
2, 13560, Note_on_c, 0, 83, 64
2, 13620, Note_on_c, 0, 83, 0
2, 13620, Note_on_c, 0, 81, 64
2, 13680, Note_on_c, 0, 81, 0
2, 13680, Note_on_c, 0, 79, 64
2, 13740, Note_on_c, 0, 79, 0
2, 13740, Note_on_c, 0, 77, 64
2, 13800, Note_on_c, 0, 77, 0
2, 13800, Note_on_c, 0, 75, 64
2, 13860, Note_on_c, 0, 75, 0
2, 13860, Note_on_c, 0, 74, 64
2, 13920, Note_on_c, 0, 74, 0
2, 13920, Note_on_c, 0, 72, 64
2, 14040, Note_on_c, 0, 72, 0
2, 14040, Note_on_c, 0, 75, 64
2, 14160, Note_on_c, 0, 75, 0
2, 14160, Note_on_c, 0, 74, 64
2, 14280, Note_on_c, 0, 74, 0
2, 14280, Note_on_c, 0, 72, 64
2, 14400, Note_on_c, 0, 72, 0
2, 14400, Note_on_c, 0, 70, 64
2, 14520, Note_on_c, 0, 70, 0
2, 14520, Note_on_c, 0, 69, 64
2, 14640, Note_on_c, 0, 69, 0
2, 14640, Note_on_c, 0, 70, 64
2, 14760, Note_on_c, 0, 70, 0
2, 14760, Note_on_c, 0, 72, 64
2, 14880, Note_on_c, 0, 72, 0
2, 14880, Note_on_c, 0, 66, 64
2, 15000, Note_on_c, 0, 66, 0
2, 15000, Note_on_c, 0, 67, 64
2, 15120, Note_on_c, 0, 67, 0
2, 15120, Note_on_c, 0, 69, 64
2, 15240, Note_on_c, 0, 69, 0
2, 15240, Note_on_c, 0, 66, 64
2, 15360, Note_on_c, 0, 66, 0
2, 15360, Note_on_c, 0, 67, 64
2, 15480, Note_on_c, 0, 67, 0
2, 15480, Note_on_c, 0, 74, 64
2, 15540, Note_on_c, 0, 74, 0
2, 15540, Note_on_c, 0, 72, 64
2, 15590, Note_on_c, 0, 72, 0
2, 15600, Note_on_c, 0, 74, 64
2, 15720, Note_on_c, 0, 74, 0
2, 15960, Note_on_c, 0, 76, 64
2, 16020, Note_on_c, 0, 76, 0
2, 16020, Note_on_c, 0, 74, 64
2, 16080, Note_on_c, 0, 74, 0
2, 16080, Note_on_c, 0, 76, 64
2, 16200, Note_on_c, 0, 76, 0
2, 16440, Note_on_c, 0, 78, 64
2, 16500, Note_on_c, 0, 78, 0
2, 16500, Note_on_c, 0, 76, 64
2, 16560, Note_on_c, 0, 76, 0
2, 16560, Note_on_c, 0, 78, 64
2, 16680, Note_on_c, 0, 78, 0
2, 16920, Note_on_c, 0, 67, 64
2, 16980, Note_on_c, 0, 67, 0
2, 16980, Note_on_c, 0, 65, 64
2, 17040, Note_on_c, 0, 65, 0
2, 17040, Note_on_c, 0, 67, 64
2, 17160, Note_on_c, 0, 67, 0
2, 17400, Note_on_c, 0, 69, 64
2, 17460, Note_on_c, 0, 69, 0
2, 17460, Note_on_c, 0, 67, 64
2, 17520, Note_on_c, 0, 67, 0
2, 17520, Note_on_c, 0, 69, 64
2, 17640, Note_on_c, 0, 69, 0
2, 17880, Note_on_c, 0, 71, 64
2, 17940, Note_on_c, 0, 71, 0
2, 17940, Note_on_c, 0, 69, 64
2, 18000, Note_on_c, 0, 69, 0
2, 18000, Note_on_c, 0, 71, 64
2, 18120, Note_on_c, 0, 71, 0
2, 18360, Note_on_c, 0, 72, 64
2, 18420, Note_on_c, 0, 72, 0
2, 18420, Note_on_c, 0, 71, 64
2, 18480, Note_on_c, 0, 71, 0
2, 18480, Note_on_c, 0, 72, 64
2, 18600, Note_on_c, 0, 72, 0
2, 18600, Note_on_c, 0, 67, 64
2, 18720, Note_on_c, 0, 67, 0
2, 18720, Note_on_c, 0, 68, 64
2, 18840, Note_on_c, 0, 68, 0
2, 18840, Note_on_c, 0, 72, 64
2, 18900, Note_on_c, 0, 72, 0
2, 18900, Note_on_c, 0, 71, 64
2, 18960, Note_on_c, 0, 71, 0
2, 18960, Note_on_c, 0, 72, 64
2, 19080, Note_on_c, 0, 72, 0
2, 19080, Note_on_c, 0, 74, 64
2, 19200, Note_on_c, 0, 74, 0
2, 19200, Note_on_c, 0, 67, 64
2, 19320, Note_on_c, 0, 72, 64
2, 19331, Note_on_c, 0, 67, 0
2, 19380, Note_on_c, 0, 72, 0
2, 19380, Note_on_c, 0, 71, 64
2, 19440, Note_on_c, 0, 71, 0
2, 19440, Note_on_c, 0, 72, 64
2, 19560, Note_on_c, 0, 74, 64
2, 19566, Note_on_c, 0, 72, 0
2, 19680, Note_on_c, 0, 65, 64
2, 19690, Note_on_c, 0, 74, 0
2, 19740, Note_on_c, 0, 65, 0
2, 19740, Note_on_c, 0, 67, 64
2, 19800, Note_on_c, 0, 67, 0
2, 19800, Note_on_c, 0, 68, 64
2, 20040, Note_on_c, 0, 68, 0
2, 20040, Note_on_c, 0, 67, 64
2, 20100, Note_on_c, 0, 67, 0
2, 20100, Note_on_c, 0, 65, 64
2, 20160, Note_on_c, 0, 65, 0
2, 20160, Note_on_c, 0, 63, 64
2, 20280, Note_on_c, 0, 63, 0
2, 20280, Note_on_c, 0, 72, 64
2, 20340, Note_on_c, 0, 72, 0
2, 20340, Note_on_c, 0, 71, 64
2, 20400, Note_on_c, 0, 71, 0
2, 20400, Note_on_c, 0, 72, 64
2, 20520, Note_on_c, 0, 72, 0
2, 20520, Note_on_c, 0, 67, 64
2, 20640, Note_on_c, 0, 67, 0
2, 20640, Note_on_c, 0, 68, 64
2, 20880, Note_on_c, 0, 68, 0
2, 21000, Note_on_c, 0, 69, 64
2, 21120, Note_on_c, 0, 69, 0
2, 21120, Note_on_c, 0, 70, 64
2, 21200, Note_on_c, 0, 70, 0
2, 21240, Note_on_c, 0, 70, 64
2, 21300, Note_on_c, 0, 70, 0
2, 21300, Note_on_c, 0, 69, 64
2, 21360, Note_on_c, 0, 69, 0
2, 21360, Note_on_c, 0, 70, 64
2, 21480, Note_on_c, 0, 70, 0
2, 21480, Note_on_c, 0, 65, 64
2, 21600, Note_on_c, 0, 65, 0
2, 21600, Note_on_c, 0, 67, 64
2, 21840, Note_on_c, 0, 67, 0
2, 21960, Note_on_c, 0, 67, 64
2, 22200, Note_on_c, 0, 67, 0
2, 22200, Note_on_c, 0, 68, 64
2, 22260, Note_on_c, 0, 68, 0
2, 22260, Note_on_c, 0, 70, 64
2, 22320, Note_on_c, 0, 70, 0
2, 22320, Note_on_c, 0, 72, 64
2, 22380, Note_on_c, 0, 72, 0
2, 22380, Note_on_c, 0, 71, 64
2, 22440, Note_on_c, 0, 71, 0
2, 22440, Note_on_c, 0, 72, 64
2, 22500, Note_on_c, 0, 72, 0
2, 22500, Note_on_c, 0, 68, 64
2, 22560, Note_on_c, 0, 68, 0
2, 22560, Note_on_c, 0, 65, 64
2, 23160, Note_on_c, 0, 65, 0
2, 23160, Note_on_c, 0, 74, 64
2, 23220, Note_on_c, 0, 74, 0
2, 23220, Note_on_c, 0, 72, 64
2, 23280, Note_on_c, 0, 72, 0
2, 23280, Note_on_c, 0, 74, 64
2, 23400, Note_on_c, 0, 74, 0
2, 23400, Note_on_c, 0, 65, 64
2, 23520, Note_on_c, 0, 65, 0
2, 23520, Note_on_c, 0, 63, 64
2, 23640, Note_on_c, 0, 63, 0
2, 23640, Note_on_c, 0, 75, 64
2, 23700, Note_on_c, 0, 75, 0
2, 23700, Note_on_c, 0, 74, 64
2, 23760, Note_on_c, 0, 74, 0
2, 23760, Note_on_c, 0, 75, 64
2, 23880, Note_on_c, 0, 75, 0
2, 23880, Note_on_c, 0, 67, 64
2, 24000, Note_on_c, 0, 67, 0
2, 24000, Note_on_c, 0, 65, 64
2, 24120, Note_on_c, 0, 65, 0
2, 24120, Note_on_c, 0, 77, 64
2, 24180, Note_on_c, 0, 77, 0
2, 24180, Note_on_c, 0, 75, 64
2, 24240, Note_on_c, 0, 75, 0
2, 24240, Note_on_c, 0, 77, 64
2, 24360, Note_on_c, 0, 77, 0
2, 24360, Note_on_c, 0, 68, 64
2, 24480, Note_on_c, 0, 68, 0
2, 24480, Note_on_c, 0, 67, 64
2, 24540, Note_on_c, 0, 67, 0
2, 24540, Note_on_c, 0, 77, 64
2, 24600, Note_on_c, 0, 77, 0
2, 24600, Note_on_c, 0, 75, 64
2, 24660, Note_on_c, 0, 75, 0
2, 24660, Note_on_c, 0, 74, 64
2, 24720, Note_on_c, 0, 74, 0
2, 24720, Note_on_c, 0, 72, 64
2, 24780, Note_on_c, 0, 72, 0
2, 24780, Note_on_c, 0, 71, 64
2, 24840, Note_on_c, 0, 71, 0
2, 24840, Note_on_c, 0, 69, 64
2, 24900, Note_on_c, 0, 69, 0
2, 24900, Note_on_c, 0, 67, 64
2, 24960, Note_on_c, 0, 67, 0
2, 24960, Note_on_c, 0, 72, 64
2, 25080, Note_on_c, 0, 72, 0
2, 25080, Note_on_c, 0, 77, 64
2, 25200, Note_on_c, 0, 77, 0
2, 25200, Note_on_c, 0, 75, 64
2, 25320, Note_on_c, 0, 75, 0
2, 25320, Note_on_c, 0, 74, 64
2, 25440, Note_on_c, 0, 74, 0
2, 25560, Note_on_c, 0, 68, 64
2, 25680, Note_on_c, 0, 68, 0
2, 25680, Note_on_c, 0, 67, 64
2, 25800, Note_on_c, 0, 67, 0
2, 25800, Note_on_c, 0, 65, 64
2, 25920, Note_on_c, 0, 65, 0
2, 25920, Note_on_c, 0, 67, 64
2, 26040, Note_on_c, 0, 67, 0
2, 26040, Note_on_c, 0, 65, 64
2, 26100, Note_on_c, 0, 65, 0
2, 26100, Note_on_c, 0, 63, 64
2, 26160, Note_on_c, 0, 63, 0
2, 26160, Note_on_c, 0, 65, 64
2, 26280, Note_on_c, 0, 65, 0
2, 26280, Note_on_c, 0, 62, 64
2, 26400, Note_on_c, 0, 62, 0
2, 26400, Note_on_c, 0, 68, 64
2, 26520, Note_on_c, 0, 68, 0
2, 26520, Note_on_c, 0, 67, 64
2, 26640, Note_on_c, 0, 67, 0
2, 26760, Note_on_c, 0, 69, 64
2, 26880, Note_on_c, 0, 69, 0
2, 26880, Note_on_c, 0, 71, 64
2, 27000, Note_on_c, 0, 71, 0
2, 27000, Note_on_c, 0, 72, 64
2, 27120, Note_on_c, 0, 72, 0
2, 27120, Note_on_c, 0, 65, 64
2, 27180, Note_on_c, 0, 65, 0
2, 27180, Note_on_c, 0, 63, 64
2, 27240, Note_on_c, 0, 63, 0
2, 27240, Note_on_c, 0, 62, 64
2, 27300, Note_on_c, 0, 62, 0
2, 27300, Note_on_c, 0, 60, 64
2, 27350, Note_on_c, 0, 60, 0
2, 27360, Note_on_c, 0, 60, 64
2, 27480, Note_on_c, 0, 60, 0
2, 27480, Note_on_c, 0, 72, 64
2, 27540, Note_on_c, 0, 72, 0
2, 27540, Note_on_c, 0, 71, 64
2, 27600, Note_on_c, 0, 71, 0
2, 27600, Note_on_c, 0, 72, 64
2, 27720, Note_on_c, 0, 72, 0
2, 27720, Note_on_c, 0, 67, 64
2, 27840, Note_on_c, 0, 67, 0
2, 27840, Note_on_c, 0, 68, 64
2, 27960, Note_on_c, 0, 68, 0
2, 27960, Note_on_c, 0, 72, 64
2, 28020, Note_on_c, 0, 72, 0
2, 28020, Note_on_c, 0, 71, 64
2, 28080, Note_on_c, 0, 71, 0
2, 28080, Note_on_c, 0, 72, 64
2, 28200, Note_on_c, 0, 72, 0
2, 28200, Note_on_c, 0, 74, 64
2, 28200, Note_on_c, 0, 71, 64
2, 28200, Note_on_c, 0, 68, 64
2, 28320, Note_on_c, 0, 68, 0
2, 28320, Note_on_c, 0, 71, 0
2, 28320, Note_on_c, 0, 74, 0
2, 28320, Note_on_c, 0, 67, 64
2, 28440, Note_on_c, 0, 67, 0
2, 28440, Note_on_c, 0, 72, 64
2, 28500, Note_on_c, 0, 72, 0
2, 28500, Note_on_c, 0, 71, 64
2, 28560, Note_on_c, 0, 71, 0
2, 28560, Note_on_c, 0, 72, 64
2, 28680, Note_on_c, 0, 72, 0
2, 28680, Note_on_c, 0, 74, 64
2, 28800, Note_on_c, 0, 74, 0
2, 28800, Note_on_c, 0, 65, 64
2, 28860, Note_on_c, 0, 65, 0
2, 28860, Note_on_c, 0, 67, 64
2, 28920, Note_on_c, 0, 67, 0
2, 28920, Note_on_c, 0, 68, 64
2, 29160, Note_on_c, 0, 68, 0
2, 29160, Note_on_c, 0, 67, 64
2, 29220, Note_on_c, 0, 67, 0
2, 29220, Note_on_c, 0, 65, 64
2, 29280, Note_on_c, 0, 65, 0
2, 29280, Note_on_c, 0, 64, 64
2, 29760, Note_on_c, 0, 64, 0
2, 29760, End_track
3, 0, Start_track
3, 0, MIDI_port, 0
3, 0, Title_t, "RH L/LH H"
3, 0, Program_c, 1, 6
3, 120, Note_on_c, 1, 72, 64
3, 180, Note_on_c, 1, 72, 0
3, 180, Note_on_c, 1, 71, 64
3, 240, Note_on_c, 1, 71, 0
3, 240, Note_on_c, 1, 72, 64
3, 360, Note_on_c, 1, 72, 0
3, 360, Note_on_c, 1, 67, 64
3, 480, Note_on_c, 1, 67, 0
3, 480, Note_on_c, 1, 68, 64
3, 600, Note_on_c, 1, 68, 0
3, 600, Note_on_c, 1, 72, 64
3, 660, Note_on_c, 1, 71, 64
3, 663, Note_on_c, 1, 72, 0
3, 720, Note_on_c, 1, 71, 0
3, 720, Note_on_c, 1, 72, 64
3, 840, Note_on_c, 1, 72, 0
3, 840, Note_on_c, 1, 74, 64
3, 960, Note_on_c, 1, 74, 0
3, 960, Note_on_c, 1, 67, 64
3, 1080, Note_on_c, 1, 67, 0
3, 1080, Note_on_c, 1, 72, 64
3, 1140, Note_on_c, 1, 72, 0
3, 1140, Note_on_c, 1, 71, 64
3, 1200, Note_on_c, 1, 71, 0
3, 1200, Note_on_c, 1, 72, 64
3, 1320, Note_on_c, 1, 72, 0
3, 1320, Note_on_c, 1, 74, 64
3, 1440, Note_on_c, 1, 74, 0
3, 1440, Note_on_c, 1, 65, 64
3, 1500, Note_on_c, 1, 65, 0
3, 1500, Note_on_c, 1, 67, 64
3, 1560, Note_on_c, 1, 67, 0
3, 1560, Note_on_c, 1, 68, 64
3, 1800, Note_on_c, 1, 67, 64
3, 1809, Note_on_c, 1, 68, 0
3, 1860, Note_on_c, 1, 67, 0
3, 1860, Note_on_c, 1, 65, 64
3, 1920, Note_on_c, 1, 65, 0
3, 1920, Note_on_c, 1, 63, 64
3, 1980, Note_on_c, 1, 63, 0
3, 1980, Note_on_c, 1, 72, 64
3, 2040, Note_on_c, 1, 72, 0
3, 2040, Note_on_c, 1, 71, 64
3, 2100, Note_on_c, 1, 71, 0
3, 2100, Note_on_c, 1, 69, 64
3, 2160, Note_on_c, 1, 69, 0
3, 2160, Note_on_c, 1, 67, 64
3, 2220, Note_on_c, 1, 67, 0
3, 2220, Note_on_c, 1, 65, 64
3, 2280, Note_on_c, 1, 65, 0
3, 2280, Note_on_c, 1, 63, 64
3, 2340, Note_on_c, 1, 63, 0
3, 2340, Note_on_c, 1, 62, 64
3, 2400, Note_on_c, 1, 62, 0
3, 2400, Note_on_c, 1, 60, 64
3, 2520, Note_on_c, 1, 60, 0
3, 2520, Note_on_c, 1, 75, 64
3, 2640, Note_on_c, 1, 75, 0
3, 2640, Note_on_c, 1, 74, 64
3, 2760, Note_on_c, 1, 74, 0
3, 2760, Note_on_c, 1, 72, 64
3, 2880, Note_on_c, 1, 72, 0
3, 2880, Note_on_c, 1, 70, 64
3, 3000, Note_on_c, 1, 70, 0
3, 3000, Note_on_c, 1, 69, 64
3, 3120, Note_on_c, 1, 69, 0
3, 3120, Note_on_c, 1, 70, 64
3, 3240, Note_on_c, 1, 70, 0
3, 3240, Note_on_c, 1, 72, 64
3, 3360, Note_on_c, 1, 72, 0
3, 3360, Note_on_c, 1, 66, 64
3, 3480, Note_on_c, 1, 66, 0
3, 3480, Note_on_c, 1, 67, 64
3, 3600, Note_on_c, 1, 67, 0
3, 3600, Note_on_c, 1, 69, 64
3, 3720, Note_on_c, 1, 69, 0
3, 3720, Note_on_c, 1, 66, 64
3, 3840, Note_on_c, 1, 66, 0
3, 3840, Note_on_c, 1, 67, 64
3, 4068, Note_on_c, 1, 67, 0
3, 4140, Note_on_c, 1, 60, 64
3, 4200, Note_on_c, 1, 60, 0
3, 4200, Note_on_c, 1, 62, 64
3, 4260, Note_on_c, 1, 62, 0
3, 4260, Note_on_c, 1, 63, 64
3, 4320, Note_on_c, 1, 63, 0
3, 4320, Note_on_c, 1, 65, 64
3, 4380, Note_on_c, 1, 65, 0
3, 4380, Note_on_c, 1, 67, 64
3, 4440, Note_on_c, 1, 67, 0
3, 4440, Note_on_c, 1, 68, 64
3, 4614, Note_on_c, 1, 68, 0
3, 4620, Note_on_c, 1, 62, 64
3, 4680, Note_on_c, 1, 62, 0
3, 4680, Note_on_c, 1, 63, 64
3, 4740, Note_on_c, 1, 63, 0
3, 4740, Note_on_c, 1, 65, 64
3, 4800, Note_on_c, 1, 65, 0
3, 4800, Note_on_c, 1, 67, 64
3, 4860, Note_on_c, 1, 67, 0
3, 4860, Note_on_c, 1, 69, 64
3, 4920, Note_on_c, 1, 69, 0
3, 4920, Note_on_c, 1, 70, 64
3, 5100, Note_on_c, 1, 63, 64
3, 5101, Note_on_c, 1, 70, 0
3, 5160, Note_on_c, 1, 63, 0
3, 5160, Note_on_c, 1, 65, 64
3, 5220, Note_on_c, 1, 65, 0
3, 5220, Note_on_c, 1, 67, 64
3, 5280, Note_on_c, 1, 67, 0
3, 5280, Note_on_c, 1, 68, 64
3, 5340, Note_on_c, 1, 68, 0
3, 5340, Note_on_c, 1, 67, 64
3, 5400, Note_on_c, 1, 67, 0
3, 5400, Note_on_c, 1, 65, 64
3, 5460, Note_on_c, 1, 65, 0
3, 5460, Note_on_c, 1, 63, 64
3, 5520, Note_on_c, 1, 63, 0
3, 5520, Note_on_c, 1, 62, 64
3, 5627, Note_on_c, 1, 62, 0
3, 5640, Note_on_c, 1, 72, 64
3, 5700, Note_on_c, 1, 72, 0
3, 5700, Note_on_c, 1, 71, 64
3, 5760, Note_on_c, 1, 71, 0
3, 5760, Note_on_c, 1, 72, 64
3, 5926, Note_on_c, 1, 72, 0
3, 6360, Note_on_c, 1, 75, 64
3, 6480, Note_on_c, 1, 75, 0
3, 6480, Note_on_c, 1, 74, 64
3, 6600, Note_on_c, 1, 74, 0
3, 6600, Note_on_c, 1, 72, 64
3, 6720, Note_on_c, 1, 72, 0
3, 6840, Note_on_c, 1, 68, 64
3, 6960, Note_on_c, 1, 68, 0
3, 6960, Note_on_c, 1, 67, 64
3, 7080, Note_on_c, 1, 67, 0
3, 7080, Note_on_c, 1, 65, 64
3, 7200, Note_on_c, 1, 65, 0
3, 7200, Note_on_c, 1, 67, 64
3, 7320, Note_on_c, 1, 67, 0
3, 7320, Note_on_c, 1, 65, 64
3, 7380, Note_on_c, 1, 65, 0
3, 7380, Note_on_c, 1, 63, 64
3, 7440, Note_on_c, 1, 63, 0
3, 7440, Note_on_c, 1, 65, 64
3, 7560, Note_on_c, 1, 65, 0
3, 7560, Note_on_c, 1, 62, 64
3, 7680, Note_on_c, 1, 62, 0
3, 7680, Note_on_c, 1, 67, 64
3, 7920, Note_on_c, 1, 67, 0
3, 8040, Note_on_c, 1, 71, 64
3, 8138, Note_on_c, 1, 71, 0
3, 8160, Note_on_c, 1, 72, 64
3, 8263, Note_on_c, 1, 72, 0
3, 8280, Note_on_c, 1, 72, 64
3, 8340, Note_on_c, 1, 72, 0
3, 8340, Note_on_c, 1, 71, 64
3, 8400, Note_on_c, 1, 71, 0
3, 8400, Note_on_c, 1, 72, 64
3, 8520, Note_on_c, 1, 72, 0
3, 8520, Note_on_c, 1, 67, 64
3, 8640, Note_on_c, 1, 67, 0
3, 8640, Note_on_c, 1, 68, 64
3, 8880, Note_on_c, 1, 68, 0
3, 9000, Note_on_c, 1, 69, 64
3, 9120, Note_on_c, 1, 69, 0
3, 9120, Note_on_c, 1, 70, 64
3, 9240, Note_on_c, 1, 70, 0
3, 9240, Note_on_c, 1, 70, 64
3, 9300, Note_on_c, 1, 70, 0
3, 9300, Note_on_c, 1, 68, 64
3, 9342, Note_on_c, 1, 68, 0
3, 9360, Note_on_c, 1, 70, 64
3, 9480, Note_on_c, 1, 70, 0
3, 9480, Note_on_c, 1, 65, 64
3, 9600, Note_on_c, 1, 65, 0
3, 9600, Note_on_c, 1, 67, 64
3, 9840, Note_on_c, 1, 67, 0
3, 9960, Note_on_c, 1, 67, 64
3, 10080, Note_on_c, 1, 67, 0
3, 10080, Note_on_c, 1, 68, 64
3, 10200, Note_on_c, 1, 68, 0
3, 10200, Note_on_c, 1, 68, 64
3, 10320, Note_on_c, 1, 68, 0
3, 10320, Note_on_c, 1, 67, 64
3, 10440, Note_on_c, 1, 67, 0
3, 10440, Note_on_c, 1, 65, 64
3, 10560, Note_on_c, 1, 65, 0
3, 10680, Note_on_c, 1, 56, 64
3, 10800, Note_on_c, 1, 56, 0
3, 10800, Note_on_c, 1, 58, 64
3, 10920, Note_on_c, 1, 58, 0
3, 10920, Note_on_c, 1, 60, 64
3, 11040, Note_on_c, 1, 60, 0
3, 11160, Note_on_c, 1, 56, 64
3, 11220, Note_on_c, 1, 56, 0
3, 11220, Note_on_c, 1, 55, 64
3, 11280, Note_on_c, 1, 55, 0
3, 11280, Note_on_c, 1, 56, 64
3, 11400, Note_on_c, 1, 56, 0
3, 11400, Note_on_c, 1, 53, 64
3, 11520, Note_on_c, 1, 53, 0
3, 11520, Note_on_c, 1, 58, 64
3, 11640, Note_on_c, 1, 58, 0
3, 11640, Note_on_c, 1, 60, 64
3, 11760, Note_on_c, 1, 60, 0
3, 11760, Note_on_c, 1, 58, 64
3, 11880, Note_on_c, 1, 58, 0
3, 11880, Note_on_c, 1, 56, 64
3, 12000, Note_on_c, 1, 56, 0
3, 12000, Note_on_c, 1, 58, 64
3, 12120, Note_on_c, 1, 58, 0
3, 12120, Note_on_c, 1, 55, 64
3, 12240, Note_on_c, 1, 55, 0
3, 12240, Note_on_c, 1, 53, 64
3, 12360, Note_on_c, 1, 53, 0
3, 12360, Note_on_c, 1, 51, 64
3, 12480, Note_on_c, 1, 51, 0
3, 12480, Note_on_c, 1, 53, 64
3, 12600, Note_on_c, 1, 53, 0
3, 12600, Note_on_c, 1, 61, 64
3, 12720, Note_on_c, 1, 61, 0
3, 12720, Note_on_c, 1, 60, 64
3, 12840, Note_on_c, 1, 60, 0
3, 12840, Note_on_c, 1, 58, 64
3, 12960, Note_on_c, 1, 58, 0
3, 12960, Note_on_c, 1, 60, 64
3, 13080, Note_on_c, 1, 60, 0
3, 13080, Note_on_c, 1, 56, 64
3, 13200, Note_on_c, 1, 56, 0
3, 13200, Note_on_c, 1, 55, 64
3, 13320, Note_on_c, 1, 55, 0
3, 13320, Note_on_c, 1, 53, 64
3, 13440, Note_on_c, 1, 53, 0
3, 13440, Note_on_c, 1, 55, 64
3, 13560, Note_on_c, 1, 55, 0
3, 13560, Note_on_c, 1, 67, 64
3, 13620, Note_on_c, 1, 67, 0
3, 13620, Note_on_c, 1, 66, 64
3, 13680, Note_on_c, 1, 66, 0
3, 13680, Note_on_c, 1, 67, 64
3, 13800, Note_on_c, 1, 67, 0
3, 13800, Note_on_c, 1, 60, 64
3, 13920, Note_on_c, 1, 60, 0
3, 13920, Note_on_c, 1, 63, 64
3, 14040, Note_on_c, 1, 63, 0
3, 14040, Note_on_c, 1, 67, 64
3, 14100, Note_on_c, 1, 67, 0
3, 14100, Note_on_c, 1, 66, 64
3, 14160, Note_on_c, 1, 66, 0
3, 14160, Note_on_c, 1, 67, 64
3, 14280, Note_on_c, 1, 67, 0
3, 14280, Note_on_c, 1, 69, 64
3, 14400, Note_on_c, 1, 69, 0
3, 14400, Note_on_c, 1, 62, 64
3, 14520, Note_on_c, 1, 62, 0
3, 14520, Note_on_c, 1, 67, 64
3, 14580, Note_on_c, 1, 67, 0
3, 14580, Note_on_c, 1, 66, 64
3, 14640, Note_on_c, 1, 66, 0
3, 14640, Note_on_c, 1, 67, 64
3, 14741, Note_on_c, 1, 67, 0
3, 14760, Note_on_c, 1, 69, 64
3, 14869, Note_on_c, 1, 69, 0
3, 14880, Note_on_c, 1, 60, 64
3, 14940, Note_on_c, 1, 60, 0
3, 14940, Note_on_c, 1, 62, 64
3, 15000, Note_on_c, 1, 62, 0
3, 15000, Note_on_c, 1, 63, 64
3, 15240, Note_on_c, 1, 63, 0
3, 15240, Note_on_c, 1, 62, 64
3, 15300, Note_on_c, 1, 62, 0
3, 15300, Note_on_c, 1, 60, 64
3, 15336, Note_on_c, 1, 60, 0
3, 15360, Note_on_c, 1, 58, 64
3, 15453, Note_on_c, 1, 58, 0
3, 15660, Note_on_c, 1, 62, 64
3, 15720, Note_on_c, 1, 62, 0
3, 15720, Note_on_c, 1, 64, 64
3, 15780, Note_on_c, 1, 64, 0
3, 15780, Note_on_c, 1, 66, 64
3, 15840, Note_on_c, 1, 66, 0
3, 15840, Note_on_c, 1, 67, 64
3, 15900, Note_on_c, 1, 67, 0
3, 15900, Note_on_c, 1, 69, 64
3, 15960, Note_on_c, 1, 69, 0
3, 15960, Note_on_c, 1, 70, 64
3, 16126, Note_on_c, 1, 70, 0
3, 16140, Note_on_c, 1, 64, 64
3, 16200, Note_on_c, 1, 64, 0
3, 16200, Note_on_c, 1, 65, 64
3, 16260, Note_on_c, 1, 65, 0
3, 16260, Note_on_c, 1, 67, 64
3, 16320, Note_on_c, 1, 67, 0
3, 16320, Note_on_c, 1, 69, 64
3, 16380, Note_on_c, 1, 69, 0
3, 16380, Note_on_c, 1, 70, 64
3, 16440, Note_on_c, 1, 70, 0
3, 16440, Note_on_c, 1, 72, 64
3, 16610, Note_on_c, 1, 72, 0
3, 16620, Note_on_c, 1, 66, 64
3, 16680, Note_on_c, 1, 66, 0
3, 16680, Note_on_c, 1, 67, 64
3, 16740, Note_on_c, 1, 67, 0
3, 16740, Note_on_c, 1, 69, 64
3, 16800, Note_on_c, 1, 69, 0
3, 16800, Note_on_c, 1, 70, 64
3, 16907, Note_on_c, 1, 70, 0
3, 16920, Note_on_c, 1, 63, 64
3, 16980, Note_on_c, 1, 63, 0
3, 16980, Note_on_c, 1, 62, 64
3, 17040, Note_on_c, 1, 62, 0
3, 17040, Note_on_c, 1, 63, 64
3, 17160, Note_on_c, 1, 63, 0
3, 17160, Note_on_c, 1, 55, 64
3, 17280, Note_on_c, 1, 55, 0
3, 17280, Note_on_c, 1, 56, 64
3, 17400, Note_on_c, 1, 56, 0
3, 17400, Note_on_c, 1, 65, 64
3, 17460, Note_on_c, 1, 65, 0
3, 17460, Note_on_c, 1, 63, 64
3, 17520, Note_on_c, 1, 63, 0
3, 17520, Note_on_c, 1, 65, 64
3, 17640, Note_on_c, 1, 65, 0
3, 17640, Note_on_c, 1, 57, 64
3, 17760, Note_on_c, 1, 57, 0
3, 17760, Note_on_c, 1, 58, 64
3, 17880, Note_on_c, 1, 58, 0
3, 17880, Note_on_c, 1, 67, 64
3, 17940, Note_on_c, 1, 67, 0
3, 17940, Note_on_c, 1, 65, 64
3, 18000, Note_on_c, 1, 65, 0
3, 18000, Note_on_c, 1, 67, 64
3, 18120, Note_on_c, 1, 67, 0
3, 18120, Note_on_c, 1, 59, 64
3, 18240, Note_on_c, 1, 59, 0
3, 18240, Note_on_c, 1, 60, 64
3, 18300, Note_on_c, 1, 60, 0
3, 18300, Note_on_c, 1, 65, 64
3, 18360, Note_on_c, 1, 65, 0
3, 18360, Note_on_c, 1, 63, 64
3, 18420, Note_on_c, 1, 63, 0
3, 18420, Note_on_c, 1, 62, 64
3, 18480, Note_on_c, 1, 62, 0
3, 18480, Note_on_c, 1, 60, 64
3, 18540, Note_on_c, 1, 60, 0
3, 18540, Note_on_c, 1, 58, 64
3, 18600, Note_on_c, 1, 58, 0
3, 18600, Note_on_c, 1, 56, 64
3, 18660, Note_on_c, 1, 56, 0
3, 18660, Note_on_c, 1, 55, 64
3, 18720, Note_on_c, 1, 55, 0
3, 18720, Note_on_c, 1, 53, 64
3, 18840, Note_on_c, 1, 53, 0
3, 18840, Note_on_c, 1, 68, 64
3, 18960, Note_on_c, 1, 68, 0
3, 18960, Note_on_c, 1, 67, 64
3, 19080, Note_on_c, 1, 67, 0
3, 19080, Note_on_c, 1, 65, 64
3, 19200, Note_on_c, 1, 65, 0
3, 19200, Note_on_c, 1, 63, 64
3, 19320, Note_on_c, 1, 63, 0
3, 19320, Note_on_c, 1, 62, 64
3, 19440, Note_on_c, 1, 62, 0
3, 19440, Note_on_c, 1, 63, 64
3, 19560, Note_on_c, 1, 63, 0
3, 19560, Note_on_c, 1, 65, 64
3, 19680, Note_on_c, 1, 65, 0
3, 19680, Note_on_c, 1, 59, 64
3, 19800, Note_on_c, 1, 59, 0
3, 19800, Note_on_c, 1, 60, 64
3, 19920, Note_on_c, 1, 60, 0
3, 19920, Note_on_c, 1, 62, 64
3, 20040, Note_on_c, 1, 62, 0
3, 20040, Note_on_c, 1, 59, 64
3, 20160, Note_on_c, 1, 59, 0
3, 20160, Note_on_c, 1, 60, 64
3, 20400, Note_on_c, 1, 60, 0
3, 20520, Note_on_c, 1, 64, 64
3, 20640, Note_on_c, 1, 64, 0
3, 20640, Note_on_c, 1, 65, 64
3, 20750, Note_on_c, 1, 65, 0
3, 20760, Note_on_c, 1, 65, 64
3, 20820, Note_on_c, 1, 65, 0
3, 20820, Note_on_c, 1, 64, 64
3, 20880, Note_on_c, 1, 64, 0
3, 20880, Note_on_c, 1, 65, 64
3, 21000, Note_on_c, 1, 65, 0
3, 21000, Note_on_c, 1, 60, 64
3, 21120, Note_on_c, 1, 60, 0
3, 21120, Note_on_c, 1, 62, 64
3, 21360, Note_on_c, 1, 62, 0
3, 21480, Note_on_c, 1, 62, 64
3, 21600, Note_on_c, 1, 62, 0
3, 21600, Note_on_c, 1, 63, 64
3, 21710, Note_on_c, 1, 63, 0
3, 21720, Note_on_c, 1, 63, 64
3, 21780, Note_on_c, 1, 63, 0
3, 21780, Note_on_c, 1, 62, 64
3, 21840, Note_on_c, 1, 62, 0
3, 21840, Note_on_c, 1, 63, 64
3, 21960, Note_on_c, 1, 63, 0
3, 21960, Note_on_c, 1, 58, 64
3, 22080, Note_on_c, 1, 58, 0
3, 22080, Note_on_c, 1, 60, 64
3, 22680, Note_on_c, 1, 60, 0
3, 22680, Note_on_c, 1, 62, 64
3, 22740, Note_on_c, 1, 62, 0
3, 22740, Note_on_c, 1, 63, 64
3, 22800, Note_on_c, 1, 63, 0
3, 22800, Note_on_c, 1, 65, 64
3, 22860, Note_on_c, 1, 65, 0
3, 22860, Note_on_c, 1, 63, 64
3, 22920, Note_on_c, 1, 63, 0
3, 22920, Note_on_c, 1, 65, 64
3, 22980, Note_on_c, 1, 65, 0
3, 22980, Note_on_c, 1, 62, 64
3, 23040, Note_on_c, 1, 62, 0
3, 23040, Note_on_c, 1, 59, 64
3, 23160, Note_on_c, 1, 59, 0
3, 23400, Note_on_c, 1, 59, 64
3, 23520, Note_on_c, 1, 59, 0
3, 23520, Note_on_c, 1, 60, 64
3, 23640, Note_on_c, 1, 60, 0
3, 23880, Note_on_c, 1, 63, 64
3, 24000, Note_on_c, 1, 63, 0
3, 24000, Note_on_c, 1, 62, 64
3, 24120, Note_on_c, 1, 62, 0
3, 24360, Note_on_c, 1, 65, 64
3, 24600, Note_on_c, 1, 65, 0
3, 24840, Note_on_c, 1, 65, 64
3, 24960, Note_on_c, 1, 65, 0
3, 24960, Note_on_c, 1, 63, 64
3, 25080, Note_on_c, 1, 63, 0
3, 25080, Note_on_c, 1, 68, 64
3, 25200, Note_on_c, 1, 68, 0
3, 25200, Note_on_c, 1, 67, 64
3, 25320, Note_on_c, 1, 67, 0
3, 25320, Note_on_c, 1, 65, 64
3, 25440, Note_on_c, 1, 65, 0
3, 25440, Note_on_c, 1, 63, 64
3, 25560, Note_on_c, 1, 63, 0
3, 25560, Note_on_c, 1, 62, 64
3, 25680, Note_on_c, 1, 62, 0
3, 25680, Note_on_c, 1, 63, 64
3, 25800, Note_on_c, 1, 63, 0
3, 25800, Note_on_c, 1, 65, 64
3, 25920, Note_on_c, 1, 65, 0
3, 25920, Note_on_c, 1, 59, 64
3, 26040, Note_on_c, 1, 59, 0
3, 26040, Note_on_c, 1, 60, 64
3, 26160, Note_on_c, 1, 60, 0
3, 26160, Note_on_c, 1, 62, 64
3, 26280, Note_on_c, 1, 62, 0
3, 26280, Note_on_c, 1, 59, 64
3, 26400, Note_on_c, 1, 59, 0
3, 26400, Note_on_c, 1, 59, 64
3, 26520, Note_on_c, 1, 59, 0
3, 26520, Note_on_c, 1, 60, 64
3, 26640, Note_on_c, 1, 60, 0
3, 26760, Note_on_c, 1, 60, 64
3, 26880, Note_on_c, 1, 60, 0
3, 26880, Note_on_c, 1, 65, 64
3, 26940, Note_on_c, 1, 65, 0
3, 26940, Note_on_c, 1, 62, 64
3, 27000, Note_on_c, 1, 62, 0
3, 27000, Note_on_c, 1, 63, 64
3, 27060, Note_on_c, 1, 63, 0
3, 27060, Note_on_c, 1, 60, 64
3, 27240, Note_on_c, 1, 60, 0
3, 27240, Note_on_c, 1, 59, 64
3, 27360, Note_on_c, 1, 59, 0
3, 27360, Note_on_c, 1, 60, 64
3, 27600, Note_on_c, 1, 60, 0
3, 27720, Note_on_c, 1, 64, 64
3, 27840, Note_on_c, 1, 64, 0
3, 27840, Note_on_c, 1, 65, 64
3, 27970, Note_on_c, 1, 65, 0
3, 28200, Note_on_c, 1, 65, 64
3, 28310, Note_on_c, 1, 65, 0
3, 28320, Note_on_c, 1, 65, 64
3, 28440, Note_on_c, 1, 65, 0
3, 28440, Note_on_c, 1, 63, 64
3, 28500, Note_on_c, 1, 63, 0
3, 28500, Note_on_c, 1, 62, 64
3, 28560, Note_on_c, 1, 62, 0
3, 28560, Note_on_c, 1, 63, 64
3, 28680, Note_on_c, 1, 63, 0
3, 28680, Note_on_c, 1, 68, 64
3, 28680, Note_on_c, 1, 65, 64
3, 28800, Note_on_c, 1, 65, 0
3, 28800, Note_on_c, 1, 68, 0
3, 28800, Note_on_c, 1, 62, 64
3, 28800, Note_on_c, 1, 59, 64
3, 28920, Note_on_c, 1, 59, 0
3, 28920, Note_on_c, 1, 62, 0
3, 29040, Note_on_c, 1, 59, 64
3, 29040, Note_on_c, 1, 62, 64
3, 29160, Note_on_c, 1, 62, 0
3, 29160, Note_on_c, 1, 59, 0
3, 29280, Note_on_c, 1, 55, 64
3, 29280, Note_on_c, 1, 60, 64
3, 29760, Note_on_c, 1, 60, 0
3, 29760, Note_on_c, 1, 55, 0
3, 29760, End_track
4, 0, Start_track
4, 0, MIDI_port, 0
4, 0, Title_t, "LH L"
4, 0, Program_c, 2, 6
4, 5880, Note_on_c, 2, 60, 64
4, 5940, Note_on_c, 2, 60, 0
4, 5940, Note_on_c, 2, 59, 64
4, 6000, Note_on_c, 2, 59, 0
4, 6000, Note_on_c, 2, 60, 64
4, 6120, Note_on_c, 2, 60, 0
4, 6120, Note_on_c, 2, 55, 64
4, 6240, Note_on_c, 2, 55, 0
4, 6240, Note_on_c, 2, 56, 64
4, 6360, Note_on_c, 2, 56, 0
4, 6360, Note_on_c, 2, 60, 64
4, 6420, Note_on_c, 2, 60, 0
4, 6420, Note_on_c, 2, 59, 64
4, 6480, Note_on_c, 2, 59, 0
4, 6480, Note_on_c, 2, 60, 64
4, 6600, Note_on_c, 2, 60, 0
4, 6600, Note_on_c, 2, 62, 64
4, 6720, Note_on_c, 2, 62, 0
4, 6720, Note_on_c, 2, 55, 64
4, 6840, Note_on_c, 2, 55, 0
4, 6840, Note_on_c, 2, 60, 64
4, 6900, Note_on_c, 2, 60, 0
4, 6900, Note_on_c, 2, 59, 64
4, 6960, Note_on_c, 2, 60, 64
4, 6963, Note_on_c, 2, 59, 0
4, 7080, Note_on_c, 2, 60, 0
4, 7080, Note_on_c, 2, 62, 64
4, 7200, Note_on_c, 2, 62, 0
4, 7200, Note_on_c, 2, 53, 64
4, 7260, Note_on_c, 2, 53, 0
4, 7260, Note_on_c, 2, 55, 64
4, 7320, Note_on_c, 2, 55, 0
4, 7320, Note_on_c, 2, 56, 64
4, 7560, Note_on_c, 2, 56, 0
4, 7560, Note_on_c, 2, 55, 64
4, 7620, Note_on_c, 2, 55, 0
4, 7620, Note_on_c, 2, 53, 64
4, 7680, Note_on_c, 2, 53, 0
4, 7680, Note_on_c, 2, 51, 64
4, 7740, Note_on_c, 2, 51, 0
4, 7740, Note_on_c, 2, 60, 64
4, 7800, Note_on_c, 2, 60, 0
4, 7800, Note_on_c, 2, 59, 64
4, 7860, Note_on_c, 2, 59, 0
4, 7860, Note_on_c, 2, 57, 64
4, 7920, Note_on_c, 2, 57, 0
4, 7920, Note_on_c, 2, 55, 64
4, 7980, Note_on_c, 2, 55, 0
4, 7980, Note_on_c, 2, 53, 64
4, 8040, Note_on_c, 2, 53, 0
4, 8040, Note_on_c, 2, 51, 64
4, 8100, Note_on_c, 2, 51, 0
4, 8100, Note_on_c, 2, 50, 64
4, 8160, Note_on_c, 2, 50, 0
4, 8160, Note_on_c, 2, 48, 64
4, 8220, Note_on_c, 2, 48, 0
4, 8220, Note_on_c, 2, 50, 64
4, 8280, Note_on_c, 2, 50, 0
4, 8280, Note_on_c, 2, 51, 64
4, 8340, Note_on_c, 2, 51, 0
4, 8340, Note_on_c, 2, 50, 64
4, 8400, Note_on_c, 2, 50, 0
4, 8400, Note_on_c, 2, 48, 64
4, 8460, Note_on_c, 2, 48, 0
4, 8460, Note_on_c, 2, 46, 64
4, 8520, Note_on_c, 2, 46, 0
4, 8520, Note_on_c, 2, 44, 64
4, 8580, Note_on_c, 2, 44, 0
4, 8580, Note_on_c, 2, 43, 64
4, 8640, Note_on_c, 2, 43, 0
4, 8640, Note_on_c, 2, 41, 64
4, 8700, Note_on_c, 2, 41, 0
4, 8700, Note_on_c, 2, 58, 64
4, 8760, Note_on_c, 2, 58, 0
4, 8760, Note_on_c, 2, 56, 64
4, 8820, Note_on_c, 2, 56, 0
4, 8820, Note_on_c, 2, 55, 64
4, 8880, Note_on_c, 2, 55, 0
4, 8880, Note_on_c, 2, 53, 64
4, 8940, Note_on_c, 2, 53, 0
4, 8940, Note_on_c, 2, 51, 64
4, 9000, Note_on_c, 2, 51, 0
4, 9000, Note_on_c, 2, 50, 64
4, 9060, Note_on_c, 2, 50, 0
4, 9060, Note_on_c, 2, 48, 64
4, 9120, Note_on_c, 2, 48, 0
4, 9120, Note_on_c, 2, 46, 64
4, 9180, Note_on_c, 2, 46, 0
4, 9180, Note_on_c, 2, 48, 64
4, 9240, Note_on_c, 2, 48, 0
4, 9240, Note_on_c, 2, 50, 64
4, 9300, Note_on_c, 2, 50, 0
4, 9300, Note_on_c, 2, 48, 64
4, 9360, Note_on_c, 2, 48, 0
4, 9360, Note_on_c, 2, 46, 64
4, 9420, Note_on_c, 2, 46, 0
4, 9420, Note_on_c, 2, 44, 64
4, 9480, Note_on_c, 2, 44, 0
4, 9480, Note_on_c, 2, 43, 64
4, 9540, Note_on_c, 2, 43, 0
4, 9540, Note_on_c, 2, 41, 64
4, 9600, Note_on_c, 2, 41, 0
4, 9600, Note_on_c, 2, 39, 64
4, 9660, Note_on_c, 2, 39, 0
4, 9660, Note_on_c, 2, 56, 64
4, 9720, Note_on_c, 2, 56, 0
4, 9720, Note_on_c, 2, 55, 64
4, 9780, Note_on_c, 2, 55, 0
4, 9780, Note_on_c, 2, 53, 64
4, 9840, Note_on_c, 2, 53, 0
4, 9840, Note_on_c, 2, 51, 64
4, 9900, Note_on_c, 2, 51, 0
4, 9900, Note_on_c, 2, 49, 64
4, 9960, Note_on_c, 2, 49, 0
4, 9960, Note_on_c, 2, 48, 64
4, 10020, Note_on_c, 2, 48, 0
4, 10020, Note_on_c, 2, 46, 64
4, 10080, Note_on_c, 2, 46, 0
4, 10080, Note_on_c, 2, 44, 64
4, 10200, Note_on_c, 2, 44, 0
4, 10200, Note_on_c, 2, 60, 64
4, 10320, Note_on_c, 2, 60, 0
4, 10320, Note_on_c, 2, 58, 64
4, 10440, Note_on_c, 2, 58, 0
4, 10440, Note_on_c, 2, 56, 64
4, 10560, Note_on_c, 2, 56, 0
4, 10560, Note_on_c, 2, 55, 64
4, 10680, Note_on_c, 2, 55, 0
4, 10680, Note_on_c, 2, 53, 64
4, 10800, Note_on_c, 2, 53, 0
4, 10800, Note_on_c, 2, 55, 64
4, 10920, Note_on_c, 2, 55, 0
4, 10920, Note_on_c, 2, 56, 64
4, 11040, Note_on_c, 2, 56, 0
4, 11040, Note_on_c, 2, 50, 64
4, 11160, Note_on_c, 2, 50, 0
4, 11160, Note_on_c, 2, 51, 64
4, 11280, Note_on_c, 2, 51, 0
4, 11280, Note_on_c, 2, 53, 64
4, 11400, Note_on_c, 2, 53, 0
4, 11400, Note_on_c, 2, 50, 64
4, 11520, Note_on_c, 2, 50, 0
4, 11520, Note_on_c, 2, 51, 64
4, 11640, Note_on_c, 2, 51, 0
4, 11640, Note_on_c, 2, 56, 64
4, 11760, Note_on_c, 2, 56, 0
4, 11760, Note_on_c, 2, 55, 64
4, 11880, Note_on_c, 2, 55, 0
4, 11880, Note_on_c, 2, 53, 64
4, 12000, Note_on_c, 2, 53, 0
4, 12000, Note_on_c, 2, 55, 64
4, 12120, Note_on_c, 2, 55, 0
4, 12120, Note_on_c, 2, 51, 64
4, 12240, Note_on_c, 2, 51, 0
4, 12240, Note_on_c, 2, 50, 64
4, 12360, Note_on_c, 2, 50, 0
4, 12360, Note_on_c, 2, 48, 64
4, 12480, Note_on_c, 2, 48, 0
4, 12480, Note_on_c, 2, 50, 64
4, 12600, Note_on_c, 2, 50, 0
4, 12600, Note_on_c, 2, 58, 64
4, 12720, Note_on_c, 2, 58, 0
4, 12720, Note_on_c, 2, 56, 64
4, 12840, Note_on_c, 2, 56, 0
4, 12840, Note_on_c, 2, 55, 64
4, 12960, Note_on_c, 2, 55, 0
4, 12960, Note_on_c, 2, 56, 64
4, 13080, Note_on_c, 2, 56, 0
4, 13080, Note_on_c, 2, 53, 64
4, 13200, Note_on_c, 2, 53, 0
4, 13200, Note_on_c, 2, 51, 64
4, 13320, Note_on_c, 2, 51, 0
4, 13320, Note_on_c, 2, 50, 64
4, 13440, Note_on_c, 2, 50, 0
4, 13440, Note_on_c, 2, 51, 64
4, 13560, Note_on_c, 2, 51, 0
4, 14040, Note_on_c, 2, 48, 64
4, 14160, Note_on_c, 2, 48, 0
4, 14160, Note_on_c, 2, 46, 64
4, 14280, Note_on_c, 2, 46, 0
4, 14280, Note_on_c, 2, 45, 64
4, 14400, Note_on_c, 2, 45, 0
4, 14520, Note_on_c, 2, 51, 64
4, 14640, Note_on_c, 2, 51, 0
4, 14640, Note_on_c, 2, 50, 64
4, 14760, Note_on_c, 2, 50, 0
4, 14760, Note_on_c, 2, 48, 64
4, 14880, Note_on_c, 2, 48, 0
4, 14880, Note_on_c, 2, 50, 64
4, 15000, Note_on_c, 2, 50, 0
4, 15000, Note_on_c, 2, 48, 64
4, 15060, Note_on_c, 2, 48, 0
4, 15060, Note_on_c, 2, 46, 64
4, 15120, Note_on_c, 2, 46, 0
4, 15120, Note_on_c, 2, 48, 64
4, 15240, Note_on_c, 2, 48, 0
4, 15240, Note_on_c, 2, 50, 64
4, 15360, Note_on_c, 2, 50, 0
4, 15360, Note_on_c, 2, 43, 64
4, 15480, Note_on_c, 2, 43, 0
4, 15480, Note_on_c, 2, 58, 64
4, 15540, Note_on_c, 2, 58, 0
4, 15540, Note_on_c, 2, 57, 64
4, 15600, Note_on_c, 2, 57, 0
4, 15600, Note_on_c, 2, 58, 64
4, 15720, Note_on_c, 2, 58, 0
4, 15720, Note_on_c, 2, 50, 64
4, 15840, Note_on_c, 2, 50, 0
4, 15840, Note_on_c, 2, 51, 64
4, 15960, Note_on_c, 2, 51, 0
4, 15960, Note_on_c, 2, 60, 64
4, 16020, Note_on_c, 2, 60, 0
4, 16020, Note_on_c, 2, 58, 64
4, 16080, Note_on_c, 2, 58, 0
4, 16080, Note_on_c, 2, 60, 64
4, 16200, Note_on_c, 2, 60, 0
4, 16200, Note_on_c, 2, 52, 64
4, 16320, Note_on_c, 2, 52, 0
4, 16320, Note_on_c, 2, 53, 64
4, 16440, Note_on_c, 2, 53, 0
4, 16440, Note_on_c, 2, 62, 64
4, 16500, Note_on_c, 2, 62, 0
4, 16500, Note_on_c, 2, 60, 64
4, 16560, Note_on_c, 2, 60, 0
4, 16560, Note_on_c, 2, 62, 64
4, 16680, Note_on_c, 2, 62, 0
4, 16680, Note_on_c, 2, 54, 64
4, 16800, Note_on_c, 2, 54, 0
4, 16800, Note_on_c, 2, 55, 64
4, 16980, Note_on_c, 2, 55, 0
4, 17100, Note_on_c, 2, 43, 64
4, 17160, Note_on_c, 2, 43, 0
4, 17160, Note_on_c, 2, 45, 64
4, 17220, Note_on_c, 2, 45, 0
4, 17220, Note_on_c, 2, 47, 64
4, 17280, Note_on_c, 2, 47, 0
4, 17280, Note_on_c, 2, 48, 64
4, 17340, Note_on_c, 2, 48, 0
4, 17340, Note_on_c, 2, 50, 64
4, 17400, Note_on_c, 2, 50, 0
4, 17400, Note_on_c, 2, 51, 64
4, 17580, Note_on_c, 2, 51, 0
4, 17580, Note_on_c, 2, 45, 64
4, 17640, Note_on_c, 2, 45, 0
4, 17640, Note_on_c, 2, 46, 64
4, 17700, Note_on_c, 2, 46, 0
4, 17700, Note_on_c, 2, 48, 64
4, 17760, Note_on_c, 2, 48, 0
4, 17760, Note_on_c, 2, 50, 64
4, 17820, Note_on_c, 2, 50, 0
4, 17820, Note_on_c, 2, 51, 64
4, 17880, Note_on_c, 2, 51, 0
4, 17880, Note_on_c, 2, 53, 64
4, 18060, Note_on_c, 2, 53, 0
4, 18060, Note_on_c, 2, 47, 64
4, 18120, Note_on_c, 2, 47, 0
4, 18120, Note_on_c, 2, 48, 64
4, 18180, Note_on_c, 2, 48, 0
4, 18180, Note_on_c, 2, 50, 64
4, 18240, Note_on_c, 2, 50, 0
4, 18240, Note_on_c, 2, 51, 64
4, 18360, Note_on_c, 2, 51, 0
4, 18600, Note_on_c, 2, 52, 64
4, 18720, Note_on_c, 2, 52, 0
4, 18720, Note_on_c, 2, 53, 64
4, 18840, Note_on_c, 2, 53, 0
4, 18840, Note_on_c, 2, 41, 64
4, 18960, Note_on_c, 2, 41, 0
4, 18960, Note_on_c, 2, 39, 64
4, 19080, Note_on_c, 2, 39, 0
4, 19080, Note_on_c, 2, 38, 64
4, 19200, Note_on_c, 2, 38, 0
4, 19320, Note_on_c, 2, 44, 64
4, 19440, Note_on_c, 2, 44, 0
4, 19440, Note_on_c, 2, 43, 64
4, 19560, Note_on_c, 2, 43, 0
4, 19560, Note_on_c, 2, 41, 64
4, 19680, Note_on_c, 2, 41, 0
4, 19680, Note_on_c, 2, 43, 64
4, 19800, Note_on_c, 2, 43, 0
4, 19800, Note_on_c, 2, 41, 64
4, 19860, Note_on_c, 2, 41, 0
4, 19860, Note_on_c, 2, 39, 64
4, 19920, Note_on_c, 2, 39, 0
4, 19920, Note_on_c, 2, 41, 64
4, 20040, Note_on_c, 2, 41, 0
4, 20040, Note_on_c, 2, 43, 64
4, 20160, Note_on_c, 2, 43, 0
4, 20160, Note_on_c, 2, 48, 64
4, 20220, Note_on_c, 2, 48, 0
4, 20220, Note_on_c, 2, 50, 64
4, 20280, Note_on_c, 2, 50, 0
4, 20280, Note_on_c, 2, 51, 64
4, 20340, Note_on_c, 2, 51, 0
4, 20340, Note_on_c, 2, 50, 64
4, 20400, Note_on_c, 2, 50, 0
4, 20400, Note_on_c, 2, 48, 64
4, 20460, Note_on_c, 2, 48, 0
4, 20460, Note_on_c, 2, 46, 64
4, 20520, Note_on_c, 2, 46, 0
4, 20520, Note_on_c, 2, 44, 64
4, 20580, Note_on_c, 2, 44, 0
4, 20580, Note_on_c, 2, 43, 64
4, 20640, Note_on_c, 2, 43, 0
4, 20640, Note_on_c, 2, 41, 64
4, 20700, Note_on_c, 2, 41, 0
4, 20700, Note_on_c, 2, 58, 64
4, 20760, Note_on_c, 2, 58, 0
4, 20760, Note_on_c, 2, 56, 64
4, 20820, Note_on_c, 2, 56, 0
4, 20820, Note_on_c, 2, 55, 64
4, 20880, Note_on_c, 2, 55, 0
4, 20880, Note_on_c, 2, 53, 64
4, 20940, Note_on_c, 2, 53, 0
4, 20940, Note_on_c, 2, 51, 64
4, 21000, Note_on_c, 2, 51, 0
4, 21000, Note_on_c, 2, 50, 64
4, 21060, Note_on_c, 2, 50, 0
4, 21060, Note_on_c, 2, 48, 64
4, 21120, Note_on_c, 2, 48, 0
4, 21120, Note_on_c, 2, 46, 64
4, 21180, Note_on_c, 2, 46, 0
4, 21180, Note_on_c, 2, 48, 64
4, 21240, Note_on_c, 2, 48, 0
4, 21240, Note_on_c, 2, 50, 64
4, 21300, Note_on_c, 2, 50, 0
4, 21300, Note_on_c, 2, 48, 64
4, 21360, Note_on_c, 2, 48, 0
4, 21360, Note_on_c, 2, 46, 64
4, 21420, Note_on_c, 2, 46, 0
4, 21420, Note_on_c, 2, 44, 64
4, 21480, Note_on_c, 2, 44, 0
4, 21480, Note_on_c, 2, 43, 64
4, 21540, Note_on_c, 2, 43, 0
4, 21540, Note_on_c, 2, 41, 64
4, 21600, Note_on_c, 2, 41, 0
4, 21600, Note_on_c, 2, 39, 64
4, 21660, Note_on_c, 2, 39, 0
4, 21660, Note_on_c, 2, 56, 64
4, 21720, Note_on_c, 2, 56, 0
4, 21720, Note_on_c, 2, 55, 64
4, 21780, Note_on_c, 2, 55, 0
4, 21780, Note_on_c, 2, 53, 64
4, 21840, Note_on_c, 2, 53, 0
4, 21840, Note_on_c, 2, 51, 64
4, 21900, Note_on_c, 2, 51, 0
4, 21900, Note_on_c, 2, 50, 64
4, 21960, Note_on_c, 2, 50, 0
4, 21960, Note_on_c, 2, 48, 64
4, 22020, Note_on_c, 2, 48, 0
4, 22020, Note_on_c, 2, 46, 64
4, 22080, Note_on_c, 2, 46, 0
4, 22080, Note_on_c, 2, 44, 64
4, 22140, Note_on_c, 2, 44, 0
4, 22140, Note_on_c, 2, 46, 64
4, 22200, Note_on_c, 2, 46, 0
4, 22200, Note_on_c, 2, 48, 64
4, 22260, Note_on_c, 2, 48, 0
4, 22260, Note_on_c, 2, 46, 64
4, 22320, Note_on_c, 2, 46, 0
4, 22320, Note_on_c, 2, 44, 64
4, 22380, Note_on_c, 2, 44, 0
4, 22380, Note_on_c, 2, 43, 64
4, 22440, Note_on_c, 2, 43, 0
4, 22440, Note_on_c, 2, 41, 64
4, 22500, Note_on_c, 2, 41, 0
4, 22500, Note_on_c, 2, 39, 64
4, 22560, Note_on_c, 2, 39, 0
4, 22560, Note_on_c, 2, 38, 64
4, 22620, Note_on_c, 2, 38, 0
4, 22620, Note_on_c, 2, 55, 64
4, 22680, Note_on_c, 2, 55, 0
4, 22680, Note_on_c, 2, 53, 64
4, 22740, Note_on_c, 2, 53, 0
4, 22740, Note_on_c, 2, 51, 64
4, 22800, Note_on_c, 2, 51, 0
4, 22800, Note_on_c, 2, 50, 64
4, 22860, Note_on_c, 2, 50, 0
4, 22860, Note_on_c, 2, 48, 64
4, 22920, Note_on_c, 2, 48, 0
4, 22920, Note_on_c, 2, 47, 64
4, 22980, Note_on_c, 2, 47, 0
4, 22980, Note_on_c, 2, 45, 64
4, 23040, Note_on_c, 2, 45, 0
4, 23040, Note_on_c, 2, 43, 64
4, 23280, Note_on_c, 2, 43, 0
4, 23580, Note_on_c, 2, 43, 64
4, 23640, Note_on_c, 2, 43, 0
4, 23640, Note_on_c, 2, 45, 64
4, 23700, Note_on_c, 2, 45, 0
4, 23700, Note_on_c, 2, 47, 64
4, 23760, Note_on_c, 2, 47, 0
4, 23760, Note_on_c, 2, 48, 64
4, 23820, Note_on_c, 2, 48, 0
4, 23820, Note_on_c, 2, 50, 64
4, 23880, Note_on_c, 2, 50, 0
4, 23880, Note_on_c, 2, 51, 64
4, 23940, Note_on_c, 2, 51, 0
4, 23940, Note_on_c, 2, 53, 64
4, 24000, Note_on_c, 2, 53, 0
4, 24000, Note_on_c, 2, 55, 64
4, 24060, Note_on_c, 2, 55, 0
4, 24060, Note_on_c, 2, 53, 64
4, 24120, Note_on_c, 2, 53, 0
4, 24120, Note_on_c, 2, 56, 64
4, 24180, Note_on_c, 2, 56, 0
4, 24180, Note_on_c, 2, 55, 64
4, 24240, Note_on_c, 2, 55, 0
4, 24240, Note_on_c, 2, 53, 64
4, 24300, Note_on_c, 2, 53, 0
4, 24300, Note_on_c, 2, 51, 64
4, 24360, Note_on_c, 2, 51, 0
4, 24360, Note_on_c, 2, 50, 64
4, 24420, Note_on_c, 2, 50, 0
4, 24420, Note_on_c, 2, 48, 64
4, 24480, Note_on_c, 2, 48, 0
4, 24480, Note_on_c, 2, 47, 64
4, 24600, Note_on_c, 2, 47, 0
4, 24600, Note_on_c, 2, 48, 64
4, 24660, Note_on_c, 2, 48, 0
4, 24660, Note_on_c, 2, 47, 64
4, 24720, Note_on_c, 2, 47, 0
4, 24720, Note_on_c, 2, 48, 64
4, 24840, Note_on_c, 2, 48, 0
4, 24840, Note_on_c, 2, 43, 64
4, 24960, Note_on_c, 2, 43, 0
4, 24960, Note_on_c, 2, 44, 64
4, 25080, Note_on_c, 2, 44, 0
4, 25080, Note_on_c, 2, 48, 64
4, 25140, Note_on_c, 2, 48, 0
4, 25140, Note_on_c, 2, 47, 64
4, 25200, Note_on_c, 2, 47, 0
4, 25200, Note_on_c, 2, 48, 64
4, 25320, Note_on_c, 2, 48, 0
4, 25320, Note_on_c, 2, 50, 64
4, 25440, Note_on_c, 2, 50, 0
4, 25440, Note_on_c, 2, 43, 64
4, 25560, Note_on_c, 2, 43, 0
4, 25560, Note_on_c, 2, 48, 64
4, 25620, Note_on_c, 2, 48, 0
4, 25620, Note_on_c, 2, 47, 64
4, 25680, Note_on_c, 2, 47, 0
4, 25680, Note_on_c, 2, 48, 64
4, 25800, Note_on_c, 2, 48, 0
4, 25800, Note_on_c, 2, 50, 64
4, 25920, Note_on_c, 2, 50, 0
4, 25920, Note_on_c, 2, 41, 64
4, 25980, Note_on_c, 2, 41, 0
4, 25980, Note_on_c, 2, 43, 64
4, 26040, Note_on_c, 2, 43, 0
4, 26040, Note_on_c, 2, 44, 64
4, 26280, Note_on_c, 2, 43, 64
4, 26283, Note_on_c, 2, 44, 0
4, 26340, Note_on_c, 2, 43, 0
4, 26340, Note_on_c, 2, 41, 64
4, 26400, Note_on_c, 2, 41, 0
4, 26400, Note_on_c, 2, 39, 64
4, 26640, Note_on_c, 2, 39, 0
4, 26760, Note_on_c, 2, 51, 64
4, 26880, Note_on_c, 2, 51, 0
4, 26880, Note_on_c, 2, 50, 64
4, 27000, Note_on_c, 2, 50, 0
4, 27000, Note_on_c, 2, 48, 64
4, 27120, Note_on_c, 2, 48, 0
4, 27120, Note_on_c, 2, 55, 64
4, 27240, Note_on_c, 2, 55, 0
4, 27240, Note_on_c, 2, 43, 64
4, 27360, Note_on_c, 2, 43, 0
4, 27360, Note_on_c, 2, 48, 64
4, 27360, Note_on_c, 2, 36, 64
4, 29759, Note_on_c, 2, 36, 0
4, 29760, Note_on_c, 2, 48, 0
4, 29760, End_track
0, 0, End_of_file
