0, 0, Header, 1, 9, 1024
1, 0, Start_track
1, 0, Time_signature, 4, 2, 24, 8
1, 0, Key_signature, 2, "major"
1, 0, Tempo, 625000
1, 98304, End_track
2, 0, Start_track
2, 0, Title_t, "Instrument 1"
2, 3072, Note_on_c, 0, 73, 96
2, 4096, Note_off_c, 0, 73, 0
2, 4096, Note_on_c, 0, 74, 96
2, 5120, Note_off_c, 0, 74, 0
2, 5120, Note_on_c, 0, 73, 96
2, 6144, Note_off_c, 0, 73, 0
2, 6144, Note_on_c, 0, 71, 96
2, 7168, Note_off_c, 0, 71, 0
2, 7168, Note_on_c, 0, 73, 96
2, 7680, Note_off_c, 0, 73, 0
2, 7680, Note_on_c, 0, 74, 96
2, 8192, Note_off_c, 0, 74, 0
2, 8192, Note_on_c, 0, 76, 96
2, 9216, Note_off_c, 0, 76, 0
2, 9216, Note_on_c, 0, 78, 96
2, 10240, Note_off_c, 0, 78, 0
2, 10240, Note_on_c, 0, 76, 96
2, 11264, Note_off_c, 0, 76, 0
2, 11264, Note_on_c, 0, 74, 96
2, 12288, Note_off_c, 0, 74, 0
2, 12288, Note_on_c, 0, 73, 96
2, 14336, Note_off_c, 0, 73, 0
2, 15360, Note_on_c, 0, 76, 96
2, 16384, Note_off_c, 0, 76, 0
2, 16384, Note_on_c, 0, 74, 96
2, 17408, Note_off_c, 0, 74, 0
2, 17408, Note_on_c, 0, 73, 96
2, 18432, Note_off_c, 0, 73, 0
2, 18432, Note_on_c, 0, 74, 96
2, 19456, Note_off_c, 0, 74, 0
2, 19456, Note_on_c, 0, 71, 96
2, 20480, Note_off_c, 0, 71, 0
2, 20480, Note_on_c, 0, 69, 96
2, 21504, Note_off_c, 0, 69, 0
2, 21504, Note_on_c, 0, 66, 96
2, 22016, Note_off_c, 0, 66, 0
2, 22016, Note_on_c, 0, 67, 96
2, 22528, Note_off_c, 0, 67, 0
2, 22528, Note_on_c, 0, 69, 96
2, 23552, Note_off_c, 0, 69, 0
2, 23552, Note_on_c, 0, 67, 96
2, 24576, Note_off_c, 0, 67, 0
2, 24576, Note_on_c, 0, 66, 96
2, 27648, Note_off_c, 0, 66, 0
2, 27648, Note_on_c, 0, 73, 96
2, 28672, Note_off_c, 0, 73, 0
2, 28672, Note_on_c, 0, 74, 96
2, 29696, Note_off_c, 0, 74, 0
2, 29696, Note_on_c, 0, 73, 96
2, 30720, Note_off_c, 0, 73, 0
2, 30720, Note_on_c, 0, 71, 96
2, 31744, Note_off_c, 0, 71, 0
2, 31744, Note_on_c, 0, 73, 96
2, 32256, Note_off_c, 0, 73, 0
2, 32256, Note_on_c, 0, 74, 96
2, 32768, Note_off_c, 0, 74, 0
2, 32768, Note_on_c, 0, 76, 96
2, 33792, Note_off_c, 0, 76, 0
2, 33792, Note_on_c, 0, 78, 96
2, 34816, Note_off_c, 0, 78, 0
2, 34816, Note_on_c, 0, 76, 96
2, 35840, Note_off_c, 0, 76, 0
2, 35840, Note_on_c, 0, 74, 96
2, 36864, Note_off_c, 0, 74, 0
2, 36864, Note_on_c, 0, 73, 96
2, 38912, Note_off_c, 0, 73, 0
2, 39936, Note_on_c, 0, 76, 96
2, 40960, Note_off_c, 0, 76, 0
2, 40960, Note_on_c, 0, 74, 96
2, 41984, Note_off_c, 0, 74, 0
2, 41984, Note_on_c, 0, 73, 96
2, 43008, Note_off_c, 0, 73, 0
2, 43008, Note_on_c, 0, 74, 96
2, 44032, Note_off_c, 0, 74, 0
2, 44032, Note_on_c, 0, 71, 96
2, 45056, Note_off_c, 0, 71, 0
2, 45056, Note_on_c, 0, 69, 96
2, 46080, Note_off_c, 0, 69, 0
2, 46080, Note_on_c, 0, 66, 96
2, 46592, Note_off_c, 0, 66, 0
2, 46592, Note_on_c, 0, 67, 96
2, 47104, Note_off_c, 0, 67, 0
2, 47104, Note_on_c, 0, 69, 96
2, 48128, Note_off_c, 0, 69, 0
2, 48128, Note_on_c, 0, 67, 96
2, 49152, Note_off_c, 0, 67, 0
2, 49152, Note_on_c, 0, 66, 96
2, 52224, Note_off_c, 0, 66, 0
2, 52224, Note_on_c, 0, 69, 96
2, 53248, Note_off_c, 0, 69, 0
2, 53248, Note_on_c, 0, 67, 96
2, 54272, Note_off_c, 0, 67, 0
2, 54272, Note_on_c, 0, 66, 96
2, 55296, Note_off_c, 0, 66, 0
2, 55296, Note_on_c, 0, 64, 96
2, 56320, Note_off_c, 0, 64, 0
2, 56320, Note_on_c, 0, 66, 96
2, 57344, Note_off_c, 0, 66, 0
2, 57344, Note_on_c, 0, 62, 96
2, 58368, Note_off_c, 0, 62, 0
2, 58368, Note_on_c, 0, 64, 96
2, 59392, Note_off_c, 0, 64, 0
2, 59392, Note_on_c, 0, 66, 96
2, 60416, Note_off_c, 0, 66, 0
2, 60416, Note_on_c, 0, 73, 96
2, 61440, Note_off_c, 0, 73, 0
2, 61440, Note_on_c, 0, 74, 96
2, 62464, Note_off_c, 0, 74, 0
2, 62464, Note_on_c, 0, 73, 96
2, 62976, Note_off_c, 0, 73, 0
2, 62976, Note_on_c, 0, 71, 96
2, 63488, Note_off_c, 0, 71, 0
2, 63488, Note_on_c, 0, 69, 96
2, 64512, Note_off_c, 0, 69, 0
2, 64512, Note_on_c, 0, 71, 96
2, 65024, Note_off_c, 0, 71, 0
2, 65024, Note_on_c, 0, 73, 96
2, 65536, Note_off_c, 0, 73, 0
2, 65536, Note_on_c, 0, 74, 96
2, 66560, Note_off_c, 0, 74, 0
2, 66560, Note_on_c, 0, 76, 96
2, 67584, Note_off_c, 0, 76, 0
2, 67584, Note_on_c, 0, 73, 96
2, 68608, Note_off_c, 0, 73, 0
2, 68608, Note_on_c, 0, 78, 96
2, 69632, Note_off_c, 0, 78, 0
2, 69632, Note_on_c, 0, 76, 96
2, 70656, Note_off_c, 0, 76, 0
2, 70656, Note_on_c, 0, 73, 96
2, 71168, Note_off_c, 0, 73, 0
2, 71168, Note_on_c, 0, 74, 96
2, 71680, Note_off_c, 0, 74, 0
2, 71680, Note_on_c, 0, 76, 96
2, 72704, Note_off_c, 0, 76, 0
2, 72704, Note_on_c, 0, 71, 96
2, 73728, Note_off_c, 0, 71, 0
2, 73728, Note_on_c, 0, 69, 96
2, 74752, Note_off_c, 0, 69, 0
2, 74752, Note_on_c, 0, 67, 96
2, 75776, Note_off_c, 0, 67, 0
2, 75776, Note_on_c, 0, 66, 96
2, 76800, Note_off_c, 0, 66, 0
2, 76800, Note_on_c, 0, 64, 96
2, 77824, Note_off_c, 0, 64, 0
2, 77824, Note_on_c, 0, 69, 96
2, 78848, Note_off_c, 0, 69, 0
2, 78848, Note_on_c, 0, 71, 96
2, 79872, Note_off_c, 0, 71, 0
2, 79872, Note_on_c, 0, 73, 96
2, 80384, Note_off_c, 0, 73, 0
2, 80384, Note_on_c, 0, 74, 96
2, 80896, Note_off_c, 0, 74, 0
2, 80896, Note_on_c, 0, 76, 96
2, 81920, Note_off_c, 0, 76, 0
2, 81920, Note_on_c, 0, 74, 96
2, 82944, Note_off_c, 0, 74, 0
2, 82944, Note_on_c, 0, 73, 96
2, 83968, Note_off_c, 0, 73, 0
2, 83968, Note_on_c, 0, 71, 96
2, 84992, Note_off_c, 0, 71, 0
2, 84992, Note_on_c, 0, 74, 96
2, 86016, Note_off_c, 0, 74, 0
2, 86016, Note_on_c, 0, 73, 96
2, 87040, Note_off_c, 0, 73, 0
2, 87040, Note_on_c, 0, 71, 96
2, 88064, Note_off_c, 0, 71, 0
2, 88064, Note_on_c, 0, 69, 96
2, 89088, Note_off_c, 0, 69, 0
2, 89088, Note_on_c, 0, 66, 96
2, 89600, Note_off_c, 0, 66, 0
2, 89600, Note_on_c, 0, 67, 96
2, 90112, Note_off_c, 0, 67, 0
2, 90112, Note_on_c, 0, 69, 96
2, 92160, Note_off_c, 0, 69, 0
2, 92160, Note_on_c, 0, 67, 96
2, 94208, Note_off_c, 0, 67, 0
2, 94208, Note_on_c, 0, 66, 96
2, 98304, Note_off_c, 0, 66, 0
2, 98304, End_track
3, 0, Start_track
3, 0, Title_t, "Instrument 2"
3, 3072, Note_on_c, 1, 66, 96
3, 4096, Note_off_c, 1, 66, 0
3, 4096, Note_on_c, 1, 66, 96
3, 5120, Note_off_c, 1, 66, 0
3, 5120, Note_on_c, 1, 66, 96
3, 5632, Note_off_c, 1, 66, 0
3, 5632, Note_on_c, 1, 64, 96
3, 6144, Note_off_c, 1, 64, 0
3, 6144, Note_on_c, 1, 62, 96
3, 7168, Note_off_c, 1, 62, 0
3, 7168, Note_on_c, 1, 69, 96
3, 8192, Note_off_c, 1, 69, 0
3, 8192, Note_on_c, 1, 67, 96
3, 9216, Note_off_c, 1, 67, 0
3, 9216, Note_on_c, 1, 66, 96
3, 9728, Note_off_c, 1, 66, 0
3, 9728, Note_on_c, 1, 68, 96
3, 10240, Note_off_c, 1, 68, 0
3, 10240, Note_on_c, 1, 69, 96
3, 11264, Note_off_c, 1, 69, 0
3, 11264, Note_on_c, 1, 71, 96
3, 12288, Note_off_c, 1, 71, 0
3, 12288, Note_on_c, 1, 64, 96
3, 14336, Note_off_c, 1, 64, 0
3, 15360, Note_on_c, 1, 66, 96
3, 16384, Note_off_c, 1, 66, 0
3, 16384, Note_on_c, 1, 66, 96
3, 17408, Note_off_c, 1, 66, 0
3, 17408, Note_on_c, 1, 64, 96
3, 18432, Note_off_c, 1, 64, 0
3, 18432, Note_on_c, 1, 66, 96
3, 19456, Note_off_c, 1, 66, 0
3, 19456, Note_on_c, 1, 62, 96
3, 19968, Note_off_c, 1, 62, 0
3, 19968, Note_on_c, 1, 64, 96
3, 20480, Note_off_c, 1, 64, 0
3, 20480, Note_on_c, 1, 66, 96
3, 23552, Note_off_c, 1, 66, 0
3, 23552, Note_on_c, 1, 64, 96
3, 24576, Note_off_c, 1, 64, 0
3, 24576, Note_on_c, 1, 62, 96
3, 27648, Note_off_c, 1, 62, 0
3, 27648, Note_on_c, 1, 64, 96
3, 28672, Note_off_c, 1, 64, 0
3, 28672, Note_on_c, 1, 66, 96
3, 29696, Note_off_c, 1, 66, 0
3, 29696, Note_on_c, 1, 66, 96
3, 30208, Note_off_c, 1, 66, 0
3, 30208, Note_on_c, 1, 64, 96
3, 30720, Note_off_c, 1, 64, 0
3, 30720, Note_on_c, 1, 62, 96
3, 31744, Note_off_c, 1, 62, 0
3, 31744, Note_on_c, 1, 69, 96
3, 32768, Note_off_c, 1, 69, 0
3, 32768, Note_on_c, 1, 67, 96
3, 33792, Note_off_c, 1, 67, 0
3, 33792, Note_on_c, 1, 66, 96
3, 34304, Note_off_c, 1, 66, 0
3, 34304, Note_on_c, 1, 68, 96
3, 34816, Note_off_c, 1, 68, 0
3, 34816, Note_on_c, 1, 69, 96
3, 35840, Note_off_c, 1, 69, 0
3, 35840, Note_on_c, 1, 71, 96
3, 36864, Note_off_c, 1, 71, 0
3, 36864, Note_on_c, 1, 64, 96
3, 38912, Note_off_c, 1, 64, 0
3, 39936, Note_on_c, 1, 66, 96
3, 40960, Note_off_c, 1, 66, 0
3, 40960, Note_on_c, 1, 66, 96
3, 41984, Note_off_c, 1, 66, 0
3, 41984, Note_on_c, 1, 64, 96
3, 43008, Note_off_c, 1, 64, 0
3, 43008, Note_on_c, 1, 66, 96
3, 44032, Note_off_c, 1, 66, 0
3, 44032, Note_on_c, 1, 62, 96
3, 44544, Note_off_c, 1, 62, 0
3, 44544, Note_on_c, 1, 64, 96
3, 45056, Note_off_c, 1, 64, 0
3, 45056, Note_on_c, 1, 66, 96
3, 48128, Note_off_c, 1, 66, 0
3, 48128, Note_on_c, 1, 64, 96
3, 49152, Note_off_c, 1, 64, 0
3, 49152, Note_on_c, 1, 62, 96
3, 52224, Note_off_c, 1, 62, 0
3, 52224, Note_on_c, 1, 66, 96
3, 53248, Note_off_c, 1, 66, 0
3, 53248, Note_on_c, 1, 64, 96
3, 54272, Note_off_c, 1, 64, 0
3, 54272, Note_on_c, 1, 62, 96
3, 55296, Note_off_c, 1, 62, 0
3, 55296, Note_on_c, 1, 62, 96
3, 55808, Note_off_c, 1, 62, 0
3, 55808, Note_on_c, 1, 61, 96
3, 56320, Note_off_c, 1, 61, 0
3, 56320, Note_on_c, 1, 62, 96
3, 57344, Note_off_c, 1, 62, 0
3, 57344, Note_on_c, 1, 62, 96
3, 58368, Note_off_c, 1, 62, 0
3, 58368, Note_on_c, 1, 55, 96
3, 59392, Note_off_c, 1, 55, 0
3, 59392, Note_on_c, 1, 57, 96
3, 60416, Note_off_c, 1, 57, 0
3, 60416, Note_on_c, 1, 69, 96
3, 61440, Note_off_c, 1, 69, 0
3, 61440, Note_on_c, 1, 69, 96
3, 62464, Note_off_c, 1, 69, 0
3, 62464, Note_on_c, 1, 67, 96
3, 63488, Note_off_c, 1, 67, 0
3, 63488, Note_on_c, 1, 66, 96
3, 64512, Note_off_c, 1, 66, 0
3, 64512, Note_on_c, 1, 66, 96
3, 65536, Note_off_c, 1, 66, 0
3, 65536, Note_on_c, 1, 66, 96
3, 66048, Note_off_c, 1, 66, 0
3, 66048, Note_on_c, 1, 71, 96
3, 66560, Note_off_c, 1, 71, 0
3, 66560, Note_on_c, 1, 71, 96
3, 67584, Note_off_c, 1, 71, 0
3, 67584, Note_on_c, 1, 69, 96
3, 68608, Note_off_c, 1, 69, 0
3, 68608, Note_on_c, 1, 69, 96
3, 69632, Note_off_c, 1, 69, 0
3, 69632, Note_on_c, 1, 69, 96
3, 70656, Note_off_c, 1, 69, 0
3, 70656, Note_on_c, 1, 69, 96
3, 71680, Note_off_c, 1, 69, 0
3, 71680, Note_on_c, 1, 64, 96
3, 72192, Note_off_c, 1, 64, 0
3, 72192, Note_on_c, 1, 66, 96
3, 72704, Note_off_c, 1, 66, 0
3, 72704, Note_on_c, 1, 67, 96
3, 73216, Note_off_c, 1, 67, 0
3, 73216, Note_on_c, 1, 66, 96
3, 73728, Note_off_c, 1, 66, 0
3, 73728, Note_on_c, 1, 64, 96
3, 74240, Note_off_c, 1, 64, 0
3, 74240, Note_on_c, 1, 62, 96
3, 74752, Note_off_c, 1, 62, 0
3, 74752, Note_on_c, 1, 64, 96
3, 75776, Note_off_c, 1, 64, 0
3, 75776, Note_on_c, 1, 62, 96
3, 76800, Note_off_c, 1, 62, 0
3, 76800, Note_on_c, 1, 61, 96
3, 77824, Note_off_c, 1, 61, 0
3, 77824, Note_on_c, 1, 61, 96
3, 78336, Note_off_c, 1, 61, 0
3, 78336, Note_on_c, 1, 69, 96
3, 78848, Note_off_c, 1, 69, 0
3, 78848, Note_on_c, 1, 68, 96
3, 79360, Note_off_c, 1, 68, 0
3, 79360, Note_on_c, 1, 66, 96
3, 79872, Note_off_c, 1, 66, 0
3, 79872, Note_on_c, 1, 64, 96
3, 80384, Note_off_c, 1, 64, 0
3, 80384, Note_on_c, 1, 66, 96
3, 80896, Note_off_c, 1, 66, 0
3, 80896, Note_on_c, 1, 67, 96
3, 81920, Note_off_c, 1, 67, 0
3, 81920, Note_on_c, 1, 66, 96
3, 82432, Note_off_c, 1, 66, 0
3, 82432, Note_on_c, 1, 71, 96
3, 83456, Note_off_c, 1, 71, 0
3, 83456, Note_on_c, 1, 70, 96
3, 83968, Note_off_c, 1, 70, 0
3, 83968, Note_on_c, 1, 66, 96
3, 84992, Note_off_c, 1, 66, 0
3, 84992, Note_on_c, 1, 71, 96
3, 86016, Note_off_c, 1, 71, 0
3, 86016, Note_on_c, 1, 71, 96
3, 86528, Note_off_c, 1, 71, 0
3, 86528, Note_on_c, 1, 69, 96
3, 87040, Note_off_c, 1, 69, 0
3, 87040, Note_on_c, 1, 69, 96
3, 87552, Note_off_c, 1, 69, 0
3, 87552, Note_on_c, 1, 67, 96
3, 88064, Note_off_c, 1, 67, 0
3, 88064, Note_on_c, 1, 67, 96
3, 88576, Note_off_c, 1, 67, 0
3, 88576, Note_on_c, 1, 66, 96
3, 88832, Note_off_c, 1, 66, 0
3, 88832, Note_on_c, 1, 64, 96
3, 89088, Note_off_c, 1, 64, 0
3, 89088, Note_on_c, 1, 62, 96
3, 90624, Note_off_c, 1, 62, 0
3, 90624, Note_on_c, 1, 64, 96
3, 91136, Note_off_c, 1, 64, 0
3, 91136, Note_on_c, 1, 66, 96
3, 92160, Note_off_c, 1, 66, 0
3, 92160, Note_on_c, 1, 64, 96
3, 94208, Note_off_c, 1, 64, 0
3, 94208, Note_on_c, 1, 62, 96
3, 98304, Note_off_c, 1, 62, 0
3, 98304, End_track
4, 0, Start_track
4, 0, Title_t, "Instrument 3"
4, 3072, Note_on_c, 2, 58, 96
4, 4096, Note_off_c, 2, 58, 0
4, 4096, Note_on_c, 2, 59, 96
4, 5120, Note_off_c, 2, 59, 0
4, 5120, Note_on_c, 2, 58, 96
4, 6144, Note_off_c, 2, 58, 0
4, 6144, Note_on_c, 2, 59, 96
4, 7168, Note_off_c, 2, 59, 0
4, 7168, Note_on_c, 2, 57, 96
4, 7680, Note_off_c, 2, 57, 0
4, 7680, Note_on_c, 2, 59, 96
4, 8192, Note_off_c, 2, 59, 0
4, 8192, Note_on_c, 2, 61, 96
4, 9216, Note_off_c, 2, 61, 0
4, 9216, Note_on_c, 2, 62, 96
4, 10240, Note_off_c, 2, 62, 0
4, 10240, Note_on_c, 2, 64, 96
4, 10752, Note_off_c, 2, 64, 0
4, 10752, Note_on_c, 2, 66, 96
4, 11264, Note_off_c, 2, 66, 0
4, 11264, Note_on_c, 2, 68, 96
4, 12288, Note_off_c, 2, 68, 0
4, 12288, Note_on_c, 2, 61, 96
4, 14336, Note_off_c, 2, 61, 0
4, 15360, Note_on_c, 2, 61, 96
4, 16384, Note_off_c, 2, 61, 0
4, 16384, Note_on_c, 2, 59, 96
4, 16896, Note_off_c, 2, 59, 0
4, 16896, Note_on_c, 2, 57, 96
4, 17408, Note_off_c, 2, 57, 0
4, 17408, Note_on_c, 2, 55, 96
4, 18432, Note_off_c, 2, 55, 0
4, 18432, Note_on_c, 2, 57, 96
4, 19456, Note_off_c, 2, 57, 0
4, 19456, Note_on_c, 2, 59, 96
4, 19968, Note_off_c, 2, 59, 0
4, 19968, Note_on_c, 2, 61, 96
4, 20480, Note_off_c, 2, 61, 0
4, 20480, Note_on_c, 2, 62, 96
4, 23552, Note_off_c, 2, 62, 0
4, 23552, Note_on_c, 2, 57, 96
4, 24576, Note_off_c, 2, 57, 0
4, 24576, Note_on_c, 2, 57, 96
4, 27648, Note_off_c, 2, 57, 0
4, 27648, Note_on_c, 2, 58, 96
4, 28672, Note_off_c, 2, 58, 0
4, 28672, Note_on_c, 2, 59, 96
4, 29696, Note_off_c, 2, 59, 0
4, 29696, Note_on_c, 2, 58, 96
4, 30720, Note_off_c, 2, 58, 0
4, 30720, Note_on_c, 2, 59, 96
4, 31744, Note_off_c, 2, 59, 0
4, 31744, Note_on_c, 2, 57, 96
4, 32256, Note_off_c, 2, 57, 0
4, 32256, Note_on_c, 2, 59, 96
4, 32768, Note_off_c, 2, 59, 0
4, 32768, Note_on_c, 2, 61, 96
4, 33792, Note_off_c, 2, 61, 0
4, 33792, Note_on_c, 2, 62, 96
4, 34816, Note_off_c, 2, 62, 0
4, 34816, Note_on_c, 2, 64, 96
4, 35328, Note_off_c, 2, 64, 0
4, 35328, Note_on_c, 2, 66, 96
4, 35840, Note_off_c, 2, 66, 0
4, 35840, Note_on_c, 2, 68, 96
4, 36864, Note_off_c, 2, 68, 0
4, 36864, Note_on_c, 2, 61, 96
4, 38912, Note_off_c, 2, 61, 0
4, 39936, Note_on_c, 2, 61, 96
4, 40960, Note_off_c, 2, 61, 0
4, 40960, Note_on_c, 2, 59, 96
4, 41472, Note_off_c, 2, 59, 0
4, 41472, Note_on_c, 2, 57, 96
4, 41984, Note_off_c, 2, 57, 0
4, 41984, Note_on_c, 2, 55, 96
4, 43008, Note_off_c, 2, 55, 0
4, 43008, Note_on_c, 2, 57, 96
4, 44032, Note_off_c, 2, 57, 0
4, 44032, Note_on_c, 2, 59, 96
4, 44544, Note_off_c, 2, 59, 0
4, 44544, Note_on_c, 2, 61, 96
4, 45056, Note_off_c, 2, 61, 0
4, 45056, Note_on_c, 2, 62, 96
4, 48128, Note_off_c, 2, 62, 0
4, 48128, Note_on_c, 2, 57, 96
4, 49152, Note_off_c, 2, 57, 0
4, 49152, Note_on_c, 2, 57, 96
4, 52224, Note_off_c, 2, 57, 0
4, 52224, Note_on_c, 2, 57, 96
4, 53248, Note_off_c, 2, 57, 0
4, 53248, Note_on_c, 2, 57, 96
4, 54272, Note_off_c, 2, 57, 0
4, 54272, Note_on_c, 2, 57, 96
4, 55296, Note_off_c, 2, 57, 0
4, 55296, Note_on_c, 2, 57, 96
4, 56320, Note_off_c, 2, 57, 0
4, 56320, Note_on_c, 2, 57, 96
4, 57344, Note_off_c, 2, 57, 0
4, 57344, Note_on_c, 2, 57, 96
4, 58368, Note_off_c, 2, 57, 0
4, 58368, Note_on_c, 2, 59, 96
4, 58880, Note_off_c, 2, 59, 0
4, 58880, Note_on_c, 2, 61, 96
4, 59392, Note_off_c, 2, 61, 0
4, 59392, Note_on_c, 2, 54, 96
4, 60416, Note_off_c, 2, 54, 0
4, 60416, Note_on_c, 2, 64, 96
4, 61440, Note_off_c, 2, 64, 0
4, 61440, Note_on_c, 2, 62, 96
4, 62464, Note_off_c, 2, 62, 0
4, 62464, Note_on_c, 2, 55, 96
4, 63488, Note_off_c, 2, 55, 0
4, 63488, Note_on_c, 2, 62, 96
4, 64000, Note_off_c, 2, 62, 0
4, 64000, Note_on_c, 2, 64, 96
4, 64512, Note_off_c, 2, 64, 0
4, 64512, Note_on_c, 2, 66, 96
4, 65536, Note_off_c, 2, 66, 0
4, 65536, Note_on_c, 2, 66, 96
4, 66048, Note_off_c, 2, 66, 0
4, 66048, Note_on_c, 2, 62, 96
4, 66560, Note_off_c, 2, 62, 0
4, 66560, Note_on_c, 2, 59, 96
4, 67072, Note_off_c, 2, 59, 0
4, 67072, Note_on_c, 2, 64, 96
4, 67584, Note_off_c, 2, 64, 0
4, 67584, Note_on_c, 2, 64, 96
4, 68608, Note_off_c, 2, 64, 0
4, 68608, Note_on_c, 2, 62, 96
4, 69632, Note_off_c, 2, 62, 0
4, 69632, Note_on_c, 2, 61, 96
4, 70144, Note_off_c, 2, 61, 0
4, 70144, Note_on_c, 2, 66, 96
4, 70656, Note_off_c, 2, 66, 0
4, 70656, Note_on_c, 2, 64, 96
4, 71168, Note_off_c, 2, 64, 0
4, 71168, Note_on_c, 2, 62, 96
4, 71680, Note_off_c, 2, 62, 0
4, 71680, Note_on_c, 2, 61, 96
4, 72704, Note_off_c, 2, 61, 0
4, 72704, Note_on_c, 2, 59, 96
4, 73728, Note_off_c, 2, 59, 0
4, 73728, Note_on_c, 2, 52, 96
4, 74752, Note_off_c, 2, 52, 0
4, 74752, Note_on_c, 2, 57, 96
4, 75776, Note_off_c, 2, 57, 0
4, 75776, Note_on_c, 2, 57, 96
4, 76800, Note_off_c, 2, 57, 0
4, 76800, Note_on_c, 2, 57, 96
4, 77824, Note_off_c, 2, 57, 0
4, 77824, Note_on_c, 2, 57, 96
4, 78848, Note_off_c, 2, 57, 0
4, 78848, Note_on_c, 2, 64, 96
4, 79360, Note_off_c, 2, 64, 0
4, 79360, Note_on_c, 2, 62, 96
4, 79872, Note_off_c, 2, 62, 0
4, 79872, Note_on_c, 2, 64, 96
4, 80384, Note_off_c, 2, 64, 0
4, 80384, Note_on_c, 2, 62, 96
4, 80896, Note_off_c, 2, 62, 0
4, 80896, Note_on_c, 2, 61, 96
4, 81920, Note_off_c, 2, 61, 0
4, 81920, Note_on_c, 2, 61, 96
4, 82432, Note_off_c, 2, 61, 0
4, 82432, Note_on_c, 2, 59, 96
4, 82944, Note_off_c, 2, 59, 0
4, 82944, Note_on_c, 2, 61, 96
4, 83456, Note_off_c, 2, 61, 0
4, 83456, Note_on_c, 2, 64, 96
4, 83968, Note_off_c, 2, 64, 0
4, 83968, Note_on_c, 2, 62, 96
4, 84992, Note_off_c, 2, 62, 0
4, 84992, Note_on_c, 2, 64, 96
4, 86016, Note_off_c, 2, 64, 0
4, 86016, Note_on_c, 2, 64, 96
4, 87040, Note_off_c, 2, 64, 0
4, 87040, Note_on_c, 2, 62, 96
4, 88064, Note_off_c, 2, 62, 0
4, 88064, Note_on_c, 2, 64, 96
4, 88576, Note_off_c, 2, 64, 0
4, 88576, Note_on_c, 2, 57, 96
4, 89088, Note_off_c, 2, 57, 0
4, 89088, Note_on_c, 2, 57, 96
4, 90112, Note_off_c, 2, 57, 0
4, 90112, Note_on_c, 2, 62, 96
4, 93184, Note_off_c, 2, 62, 0
4, 93184, Note_on_c, 2, 61, 96
4, 94208, Note_off_c, 2, 61, 0
4, 94208, Note_on_c, 2, 57, 96
4, 98304, Note_off_c, 2, 57, 0
4, 98304, End_track
5, 0, Start_track
5, 0, Title_t, "Instrument 4"
5, 3072, Note_on_c, 3, 54, 96
5, 4096, Note_off_c, 3, 54, 0
5, 4096, Note_on_c, 3, 47, 96
5, 5120, Note_off_c, 3, 47, 0
5, 5120, Note_on_c, 3, 54, 96
5, 6144, Note_off_c, 3, 54, 0
5, 6144, Note_on_c, 3, 55, 96
5, 7168, Note_off_c, 3, 55, 0
5, 7168, Note_on_c, 3, 54, 96
5, 8192, Note_off_c, 3, 54, 0
5, 8192, Note_on_c, 3, 52, 96
5, 9216, Note_off_c, 3, 52, 0
5, 9216, Note_on_c, 3, 50, 96
5, 10240, Note_off_c, 3, 50, 0
5, 10240, Note_on_c, 3, 49, 96
5, 11264, Note_off_c, 3, 49, 0
5, 11264, Note_on_c, 3, 47, 96
5, 12288, Note_off_c, 3, 47, 0
5, 12288, Note_on_c, 3, 45, 96
5, 14336, Note_off_c, 3, 45, 0
5, 15360, Note_on_c, 3, 46, 96
5, 16384, Note_off_c, 3, 46, 0
5, 16384, Note_on_c, 3, 47, 96
5, 17408, Note_off_c, 3, 47, 0
5, 17408, Note_on_c, 3, 52, 96
5, 18432, Note_off_c, 3, 52, 0
5, 18432, Note_on_c, 3, 50, 96
5, 19456, Note_off_c, 3, 50, 0
5, 19456, Note_on_c, 3, 55, 96
5, 20480, Note_off_c, 3, 55, 0
5, 20480, Note_on_c, 3, 54, 96
5, 21504, Note_off_c, 3, 54, 0
5, 21504, Note_on_c, 3, 59, 96
5, 22528, Note_off_c, 3, 59, 0
5, 22528, Note_on_c, 3, 57, 96
5, 23552, Note_off_c, 3, 57, 0
5, 23552, Note_on_c, 3, 45, 96
5, 24576, Note_off_c, 3, 45, 0
5, 24576, Note_on_c, 3, 50, 96
5, 27648, Note_off_c, 3, 50, 0
5, 27648, Note_on_c, 3, 49, 96
5, 28672, Note_off_c, 3, 49, 0
5, 28672, Note_on_c, 3, 47, 96
5, 29696, Note_off_c, 3, 47, 0
5, 29696, Note_on_c, 3, 54, 96
5, 30720, Note_off_c, 3, 54, 0
5, 30720, Note_on_c, 3, 55, 96
5, 31744, Note_off_c, 3, 55, 0
5, 31744, Note_on_c, 3, 54, 96
5, 32768, Note_off_c, 3, 54, 0
5, 32768, Note_on_c, 3, 52, 96
5, 33792, Note_off_c, 3, 52, 0
5, 33792, Note_on_c, 3, 50, 96
5, 34816, Note_off_c, 3, 50, 0
5, 34816, Note_on_c, 3, 49, 96
5, 35840, Note_off_c, 3, 49, 0
5, 35840, Note_on_c, 3, 47, 96
5, 36864, Note_off_c, 3, 47, 0
5, 36864, Note_on_c, 3, 45, 96
5, 38912, Note_off_c, 3, 45, 0
5, 39936, Note_on_c, 3, 46, 96
5, 40960, Note_off_c, 3, 46, 0
5, 40960, Note_on_c, 3, 47, 96
5, 41984, Note_off_c, 3, 47, 0
5, 41984, Note_on_c, 3, 52, 96
5, 43008, Note_off_c, 3, 52, 0
5, 43008, Note_on_c, 3, 50, 96
5, 44032, Note_off_c, 3, 50, 0
5, 44032, Note_on_c, 3, 55, 96
5, 45056, Note_off_c, 3, 55, 0
5, 45056, Note_on_c, 3, 54, 96
5, 46080, Note_off_c, 3, 54, 0
5, 46080, Note_on_c, 3, 59, 96
5, 47104, Note_off_c, 3, 59, 0
5, 47104, Note_on_c, 3, 57, 96
5, 48128, Note_off_c, 3, 57, 0
5, 48128, Note_on_c, 3, 45, 96
5, 49152, Note_off_c, 3, 45, 0
5, 49152, Note_on_c, 3, 50, 96
5, 52224, Note_off_c, 3, 50, 0
5, 52224, Note_on_c, 3, 50, 96
5, 53248, Note_off_c, 3, 50, 0
5, 53248, Note_on_c, 3, 50, 96
5, 53760, Note_off_c, 3, 50, 0
5, 53760, Note_on_c, 3, 49, 96
5, 54272, Note_off_c, 3, 49, 0
5, 54272, Note_on_c, 3, 50, 96
5, 55296, Note_off_c, 3, 50, 0
5, 55296, Note_on_c, 3, 45, 96
5, 56320, Note_off_c, 3, 45, 0
5, 56320, Note_on_c, 3, 50, 96
5, 56832, Note_off_c, 3, 50, 0
5, 56832, Note_on_c, 3, 52, 96
5, 57344, Note_off_c, 3, 52, 0
5, 57344, Note_on_c, 3, 54, 96
5, 58368, Note_off_c, 3, 54, 0
5, 58368, Note_on_c, 3, 52, 96
5, 59392, Note_off_c, 3, 52, 0
5, 59392, Note_on_c, 3, 50, 96
5, 60416, Note_off_c, 3, 50, 0
5, 60416, Note_on_c, 3, 49, 96
5, 61440, Note_off_c, 3, 49, 0
5, 61440, Note_on_c, 3, 50, 96
5, 62464, Note_off_c, 3, 50, 0
5, 62464, Note_on_c, 3, 52, 96
5, 63488, Note_off_c, 3, 52, 0
5, 63488, Note_on_c, 3, 54, 96
5, 64000, Note_off_c, 3, 54, 0
5, 64000, Note_on_c, 3, 52, 96
5, 64512, Note_off_c, 3, 52, 0
5, 64512, Note_on_c, 3, 50, 96
5, 65024, Note_off_c, 3, 50, 0
5, 65024, Note_on_c, 3, 49, 96
5, 65536, Note_off_c, 3, 49, 0
5, 65536, Note_on_c, 3, 47, 96
5, 66560, Note_off_c, 3, 47, 0
5, 66560, Note_on_c, 3, 52, 96
5, 67584, Note_off_c, 3, 52, 0
5, 67584, Note_on_c, 3, 45, 96
5, 68608, Note_off_c, 3, 45, 0
5, 68608, Note_on_c, 3, 50, 96
5, 69632, Note_off_c, 3, 50, 0
5, 69632, Note_on_c, 3, 57, 96
5, 70656, Note_off_c, 3, 57, 0
5, 70656, Note_on_c, 3, 45, 96
5, 71168, Note_off_c, 3, 45, 0
5, 71168, Note_on_c, 3, 47, 96
5, 71680, Note_off_c, 3, 47, 0
5, 71680, Note_on_c, 3, 49, 96
5, 72192, Note_off_c, 3, 49, 0
5, 72192, Note_on_c, 3, 50, 96
5, 72704, Note_off_c, 3, 50, 0
5, 72704, Note_on_c, 3, 52, 96
5, 73216, Note_off_c, 3, 52, 0
5, 73216, Note_on_c, 3, 50, 96
5, 73728, Note_off_c, 3, 50, 0
5, 73728, Note_on_c, 3, 49, 96
5, 74240, Note_off_c, 3, 49, 0
5, 74240, Note_on_c, 3, 47, 96
5, 74752, Note_off_c, 3, 47, 0
5, 74752, Note_on_c, 3, 49, 96
5, 75264, Note_off_c, 3, 49, 0
5, 75264, Note_on_c, 3, 45, 96
5, 75776, Note_off_c, 3, 45, 0
5, 75776, Note_on_c, 3, 50, 96
5, 76800, Note_off_c, 3, 50, 0
5, 76800, Note_on_c, 3, 57, 96
5, 77312, Note_off_c, 3, 57, 0
5, 77312, Note_on_c, 3, 56, 96
5, 77824, Note_off_c, 3, 56, 0
5, 77824, Note_on_c, 3, 54, 96
5, 78848, Note_off_c, 3, 54, 0
5, 78848, Note_on_c, 3, 52, 96
5, 79360, Note_off_c, 3, 52, 0
5, 79360, Note_on_c, 3, 54, 96
5, 79872, Note_off_c, 3, 54, 0
5, 79872, Note_on_c, 3, 55, 96
5, 80896, Note_off_c, 3, 55, 0
5, 80896, Note_on_c, 3, 46, 96
5, 81920, Note_off_c, 3, 46, 0
5, 81920, Note_on_c, 3, 47, 96
5, 82944, Note_off_c, 3, 47, 0
5, 82944, Note_on_c, 3, 42, 96
5, 83968, Note_off_c, 3, 42, 0
5, 83968, Note_on_c, 3, 47, 96
5, 84992, Note_off_c, 3, 47, 0
5, 84992, Note_on_c, 3, 44, 96
5, 86016, Note_off_c, 3, 44, 0
5, 86016, Note_on_c, 3, 45, 96
5, 87040, Note_off_c, 3, 45, 0
5, 87040, Note_on_c, 3, 47, 96
5, 88064, Note_off_c, 3, 47, 0
5, 88064, Note_on_c, 3, 49, 96
5, 89088, Note_off_c, 3, 49, 0
5, 89088, Note_on_c, 3, 50, 96
5, 89600, Note_off_c, 3, 50, 0
5, 89600, Note_on_c, 3, 52, 96
5, 90112, Note_off_c, 3, 52, 0
5, 90112, Note_on_c, 3, 54, 96
5, 90624, Note_off_c, 3, 54, 0
5, 90624, Note_on_c, 3, 55, 96
5, 91136, Note_off_c, 3, 55, 0
5, 91136, Note_on_c, 3, 57, 96
5, 93184, Note_off_c, 3, 57, 0
5, 93184, Note_on_c, 3, 45, 96
5, 94208, Note_off_c, 3, 45, 0
5, 94208, Note_on_c, 3, 50, 96
5, 98304, Note_off_c, 3, 50, 0
5, 98304, End_track
6, 0, Start_track
6, 0, Title_t, "Instrument 5"
6, 9216, Note_on_c, 4, 81, 96
6, 11264, Note_off_c, 4, 81, 0
6, 11264, Note_on_c, 4, 80, 96
6, 12288, Note_off_c, 4, 80, 0
6, 12288, Note_on_c, 4, 81, 96
6, 14336, Note_off_c, 4, 81, 0
6, 21504, Note_on_c, 4, 86, 96
6, 23552, Note_off_c, 4, 86, 0
6, 23552, Note_on_c, 4, 85, 96
6, 24576, Note_off_c, 4, 85, 0
6, 24576, Note_on_c, 4, 86, 96
6, 27648, Note_off_c, 4, 86, 0
6, 33792, Note_on_c, 4, 81, 96
6, 35840, Note_off_c, 4, 81, 0
6, 35840, Note_on_c, 4, 80, 96
6, 36864, Note_off_c, 4, 80, 0
6, 36864, Note_on_c, 4, 81, 96
6, 38912, Note_off_c, 4, 81, 0
6, 46080, Note_on_c, 4, 86, 96
6, 48128, Note_off_c, 4, 86, 0
6, 48128, Note_on_c, 4, 85, 96
6, 49152, Note_off_c, 4, 85, 0
6, 49152, Note_on_c, 4, 86, 96
6, 52224, Note_off_c, 4, 86, 0
6, 52224, Note_on_c, 4, 81, 96
6, 53248, Note_off_c, 4, 81, 0
6, 53248, Note_on_c, 4, 81, 96
6, 57856, Note_off_c, 4, 81, 0
6, 57856, Note_on_c, 4, 86, 96
6, 58880, Note_off_c, 4, 86, 0
6, 58880, Note_on_c, 4, 85, 96
6, 59392, Note_off_c, 4, 85, 0
6, 59392, Note_on_c, 4, 86, 96
6, 60416, Note_off_c, 4, 86, 0
6, 60416, Note_on_c, 4, 85, 96
6, 60928, Note_off_c, 4, 85, 0
6, 60928, Note_on_c, 4, 83, 96
6, 61440, Note_off_c, 4, 83, 0
6, 61440, Note_on_c, 4, 81, 96
6, 64000, Note_off_c, 4, 81, 0
6, 64000, Note_on_c, 4, 79, 96
6, 64512, Note_off_c, 4, 79, 0
6, 64512, Note_on_c, 4, 78, 96
6, 65024, Note_off_c, 4, 78, 0
6, 65024, Note_on_c, 4, 76, 96
6, 65536, Note_off_c, 4, 76, 0
6, 65536, Note_on_c, 4, 78, 96
6, 65792, Note_off_c, 4, 78, 0
6, 65792, Note_on_c, 4, 80, 96
6, 66048, Note_off_c, 4, 80, 0
6, 66048, Note_on_c, 4, 81, 96
6, 67072, Note_off_c, 4, 81, 0
6, 67072, Note_on_c, 4, 80, 96
6, 67584, Note_off_c, 4, 80, 0
6, 67584, Note_on_c, 4, 81, 96
6, 68608, Note_off_c, 4, 81, 0
6, 68608, Note_on_c, 4, 69, 96
6, 69120, Note_off_c, 4, 69, 0
6, 69120, Note_on_c, 4, 69, 96
6, 69376, Note_off_c, 4, 69, 0
6, 69376, Note_on_c, 4, 69, 96
6, 69632, Note_off_c, 4, 69, 0
6, 69632, Note_on_c, 4, 69, 96
6, 70144, Note_off_c, 4, 69, 0
6, 70144, Note_on_c, 4, 69, 96
6, 70400, Note_off_c, 4, 69, 0
6, 70400, Note_on_c, 4, 69, 96
6, 70656, Note_off_c, 4, 69, 0
6, 70656, Note_on_c, 4, 69, 96
6, 71168, Note_off_c, 4, 69, 0
6, 71168, Note_on_c, 4, 69, 96
6, 71424, Note_off_c, 4, 69, 0
6, 71424, Note_on_c, 4, 69, 96
6, 71680, Note_off_c, 4, 69, 0
6, 71680, Note_on_c, 4, 69, 96
6, 72704, Note_off_c, 4, 69, 0
6, 74752, Note_on_c, 4, 85, 96
6, 75776, Note_off_c, 4, 85, 0
6, 75776, Note_on_c, 4, 86, 96
6, 76800, Note_off_c, 4, 86, 0
6, 80896, Note_on_c, 4, 66, 96
6, 81408, Note_off_c, 4, 66, 0
6, 81408, Note_on_c, 4, 66, 96
6, 81664, Note_off_c, 4, 66, 0
6, 81664, Note_on_c, 4, 66, 96
6, 81920, Note_off_c, 4, 66, 0
6, 81920, Note_on_c, 4, 66, 96
6, 82432, Note_off_c, 4, 66, 0
6, 82432, Note_on_c, 4, 66, 96
6, 82688, Note_off_c, 4, 66, 0
6, 82688, Note_on_c, 4, 66, 96
6, 82944, Note_off_c, 4, 66, 0
6, 82944, Note_on_c, 4, 66, 96
6, 83456, Note_off_c, 4, 66, 0
6, 83456, Note_on_c, 4, 66, 96
6, 83712, Note_off_c, 4, 66, 0
6, 83712, Note_on_c, 4, 66, 96
6, 83968, Note_off_c, 4, 66, 0
6, 83968, Note_on_c, 4, 66, 96
6, 84992, Note_off_c, 4, 66, 0
6, 89088, Note_on_c, 4, 81, 96
6, 90624, Note_off_c, 4, 81, 0
6, 90624, Note_on_c, 4, 79, 96
6, 91136, Note_off_c, 4, 79, 0
6, 91136, Note_on_c, 4, 78, 96
6, 91648, Note_off_c, 4, 78, 0
6, 91648, Note_on_c, 4, 76, 96
6, 91904, Note_off_c, 4, 76, 0
6, 91904, Note_on_c, 4, 74, 96
6, 92160, Note_off_c, 4, 74, 0
6, 92160, Note_on_c, 4, 76, 96
6, 93184, Note_off_c, 4, 76, 0
6, 93184, Note_on_c, 4, 85, 96
6, 94208, Note_off_c, 4, 85, 0
6, 94208, Note_on_c, 4, 86, 96
6, 98304, Note_off_c, 4, 86, 0
6, 98304, End_track
7, 0, Start_track
7, 0, Title_t, "Instrument 6"
7, 9216, Note_on_c, 5, 78, 96
7, 10240, Note_off_c, 5, 78, 0
7, 10240, Note_on_c, 5, 76, 96
7, 11264, Note_off_c, 5, 76, 0
7, 11264, Note_on_c, 5, 74, 96
7, 12288, Note_off_c, 5, 74, 0
7, 12288, Note_on_c, 5, 76, 96
7, 14336, Note_off_c, 5, 76, 0
7, 21504, Note_on_c, 5, 74, 96
7, 22016, Note_off_c, 5, 74, 0
7, 22016, Note_on_c, 5, 76, 96
7, 22528, Note_off_c, 5, 76, 0
7, 22528, Note_on_c, 5, 78, 96
7, 23040, Note_off_c, 5, 78, 0
7, 23040, Note_on_c, 5, 79, 96
7, 23552, Note_off_c, 5, 79, 0
7, 23552, Note_on_c, 5, 81, 96
7, 24576, Note_off_c, 5, 81, 0
7, 24576, Note_on_c, 5, 81, 96
7, 27648, Note_off_c, 5, 81, 0
7, 33792, Note_on_c, 5, 78, 96
7, 34816, Note_off_c, 5, 78, 0
7, 34816, Note_on_c, 5, 76, 96
7, 35840, Note_off_c, 5, 76, 0
7, 35840, Note_on_c, 5, 74, 96
7, 36864, Note_off_c, 5, 74, 0
7, 36864, Note_on_c, 5, 76, 96
7, 38912, Note_off_c, 5, 76, 0
7, 46080, Note_on_c, 5, 74, 96
7, 46592, Note_off_c, 5, 74, 0
7, 46592, Note_on_c, 5, 76, 96
7, 47104, Note_off_c, 5, 76, 0
7, 47104, Note_on_c, 5, 78, 96
7, 47616, Note_off_c, 5, 78, 0
7, 47616, Note_on_c, 5, 79, 96
7, 48128, Note_off_c, 5, 79, 0
7, 48128, Note_on_c, 5, 81, 96
7, 49152, Note_off_c, 5, 81, 0
7, 49152, Note_on_c, 5, 81, 96
7, 52224, Note_off_c, 5, 81, 0
7, 52224, Note_on_c, 5, 74, 96
7, 53248, Note_off_c, 5, 74, 0
7, 53248, Note_on_c, 5, 76, 96
7, 54272, Note_off_c, 5, 76, 0
7, 54272, Note_on_c, 5, 78, 96
7, 55296, Note_off_c, 5, 78, 0
7, 55296, Note_on_c, 5, 79, 96
7, 56320, Note_off_c, 5, 79, 0
7, 56320, Note_on_c, 5, 78, 96
7, 56832, Note_off_c, 5, 78, 0
7, 56832, Note_on_c, 5, 79, 96
7, 57344, Note_off_c, 5, 79, 0
7, 57344, Note_on_c, 5, 81, 96
7, 58368, Note_off_c, 5, 81, 0
7, 58368, Note_on_c, 5, 79, 96
7, 59392, Note_off_c, 5, 79, 0
7, 59392, Note_on_c, 5, 78, 96
7, 60416, Note_off_c, 5, 78, 0
7, 60416, Note_on_c, 5, 81, 96
7, 60928, Note_off_c, 5, 81, 0
7, 60928, Note_on_c, 5, 79, 96
7, 61440, Note_off_c, 5, 79, 0
7, 61440, Note_on_c, 5, 78, 96
7, 62464, Note_off_c, 5, 78, 0
7, 62464, Note_on_c, 5, 76, 96
7, 63488, Note_off_c, 5, 76, 0
7, 63488, Note_on_c, 5, 74, 96
7, 65024, Note_off_c, 5, 74, 0
7, 65024, Note_on_c, 5, 69, 96
7, 65536, Note_off_c, 5, 69, 0
7, 65536, Note_on_c, 5, 74, 96
7, 65792, Note_off_c, 5, 74, 0
7, 65792, Note_on_c, 5, 76, 96
7, 66048, Note_off_c, 5, 76, 0
7, 66048, Note_on_c, 5, 78, 96
7, 66560, Note_off_c, 5, 78, 0
7, 66560, Note_on_c, 5, 76, 96
7, 67584, Note_off_c, 5, 76, 0
7, 67584, Note_on_c, 5, 76, 96
7, 68608, Note_off_c, 5, 76, 0
7, 68608, Note_on_c, 5, 69, 96
7, 69120, Note_off_c, 5, 69, 0
7, 69120, Note_on_c, 5, 69, 96
7, 69376, Note_off_c, 5, 69, 0
7, 69376, Note_on_c, 5, 69, 96
7, 69632, Note_off_c, 5, 69, 0
7, 69632, Note_on_c, 5, 69, 96
7, 70144, Note_off_c, 5, 69, 0
7, 70144, Note_on_c, 5, 69, 96
7, 70400, Note_off_c, 5, 69, 0
7, 70400, Note_on_c, 5, 69, 96
7, 70656, Note_off_c, 5, 69, 0
7, 70656, Note_on_c, 5, 69, 96
7, 71168, Note_off_c, 5, 69, 0
7, 71168, Note_on_c, 5, 69, 96
7, 71424, Note_off_c, 5, 69, 0
7, 71424, Note_on_c, 5, 69, 96
7, 71680, Note_off_c, 5, 69, 0
7, 71680, Note_on_c, 5, 69, 96
7, 72704, Note_off_c, 5, 69, 0
7, 74752, Note_on_c, 5, 76, 96
7, 75776, Note_off_c, 5, 76, 0
7, 75776, Note_on_c, 5, 78, 96
7, 76800, Note_off_c, 5, 78, 0
7, 80896, Note_on_c, 5, 66, 96
7, 81408, Note_off_c, 5, 66, 0
7, 81408, Note_on_c, 5, 66, 96
7, 81664, Note_off_c, 5, 66, 0
7, 81664, Note_on_c, 5, 66, 96
7, 81920, Note_off_c, 5, 66, 0
7, 81920, Note_on_c, 5, 66, 96
7, 82432, Note_off_c, 5, 66, 0
7, 82432, Note_on_c, 5, 66, 96
7, 82688, Note_off_c, 5, 66, 0
7, 82688, Note_on_c, 5, 66, 96
7, 82944, Note_off_c, 5, 66, 0
7, 82944, Note_on_c, 5, 66, 96
7, 83456, Note_off_c, 5, 66, 0
7, 83456, Note_on_c, 5, 66, 96
7, 83712, Note_off_c, 5, 66, 0
7, 83712, Note_on_c, 5, 66, 96
7, 83968, Note_off_c, 5, 66, 0
7, 83968, Note_on_c, 5, 66, 96
7, 84992, Note_off_c, 5, 66, 0
7, 89088, Note_on_c, 5, 78, 96
7, 89600, Note_off_c, 5, 78, 0
7, 89600, Note_on_c, 5, 76, 96
7, 90112, Note_off_c, 5, 76, 0
7, 90112, Note_on_c, 5, 74, 96
7, 91136, Note_off_c, 5, 74, 0
7, 91136, Note_on_c, 5, 81, 96
7, 92672, Note_off_c, 5, 81, 0
7, 92672, Note_on_c, 5, 79, 96
7, 92928, Note_off_c, 5, 79, 0
7, 92928, Note_on_c, 5, 78, 96
7, 93184, Note_off_c, 5, 78, 0
7, 93184, Note_on_c, 5, 76, 96
7, 94208, Note_off_c, 5, 76, 0
7, 94208, Note_on_c, 5, 78, 96
7, 98304, Note_off_c, 5, 78, 0
7, 98304, End_track
8, 0, Start_track
8, 0, Title_t, "Instrument 7"
8, 9216, Note_on_c, 6, 74, 96
8, 10240, Note_off_c, 6, 74, 0
8, 10240, Note_on_c, 6, 69, 96
8, 11264, Note_off_c, 6, 69, 0
8, 11264, Note_on_c, 6, 62, 96
8, 12288, Note_off_c, 6, 62, 0
8, 12288, Note_on_c, 6, 69, 96
8, 14336, Note_off_c, 6, 69, 0
8, 21504, Note_on_c, 6, 66, 96
8, 22528, Note_off_c, 6, 66, 0
8, 22528, Note_on_c, 6, 69, 96
8, 23552, Note_off_c, 6, 69, 0
8, 23552, Note_on_c, 6, 76, 96
8, 24576, Note_off_c, 6, 76, 0
8, 24576, Note_on_c, 6, 78, 96
8, 27648, Note_off_c, 6, 78, 0
8, 33792, Note_on_c, 6, 74, 96
8, 34816, Note_off_c, 6, 74, 0
8, 34816, Note_on_c, 6, 69, 96
8, 35840, Note_off_c, 6, 69, 0
8, 35840, Note_on_c, 6, 62, 96
8, 36864, Note_off_c, 6, 62, 0
8, 36864, Note_on_c, 6, 69, 96
8, 38912, Note_off_c, 6, 69, 0
8, 46080, Note_on_c, 6, 66, 96
8, 47104, Note_off_c, 6, 66, 0
8, 47104, Note_on_c, 6, 69, 96
8, 48128, Note_off_c, 6, 69, 0
8, 48128, Note_on_c, 6, 76, 96
8, 49152, Note_off_c, 6, 76, 0
8, 49152, Note_on_c, 6, 78, 96
8, 52224, Note_off_c, 6, 78, 0
8, 52224, Note_on_c, 6, 66, 96
8, 53248, Note_off_c, 6, 66, 0
8, 53248, Note_on_c, 6, 69, 96
8, 54272, Note_off_c, 6, 69, 0
8, 54272, Note_on_c, 6, 74, 96
8, 55296, Note_off_c, 6, 74, 0
8, 55296, Note_on_c, 6, 76, 96
8, 56320, Note_off_c, 6, 76, 0
8, 56320, Note_on_c, 6, 74, 96
8, 56832, Note_off_c, 6, 74, 0
8, 56832, Note_on_c, 6, 69, 96
8, 57344, Note_off_c, 6, 69, 0
8, 57344, Note_on_c, 6, 62, 96
8, 58368, Note_off_c, 6, 62, 0
8, 58368, Note_on_c, 6, 69, 96
8, 59392, Note_off_c, 6, 69, 0
8, 59392, Note_on_c, 6, 69, 96
8, 60416, Note_off_c, 6, 69, 0
8, 60416, Note_on_c, 6, 76, 96
8, 61440, Note_off_c, 6, 76, 0
8, 61440, Note_on_c, 6, 78, 96
8, 61952, Note_off_c, 6, 78, 0
8, 61952, Note_on_c, 6, 74, 96
8, 62464, Note_off_c, 6, 74, 0
8, 62464, Note_on_c, 6, 79, 96
8, 62976, Note_off_c, 6, 79, 0
8, 62976, Note_on_c, 6, 76, 96
8, 63488, Note_off_c, 6, 76, 0
8, 63488, Note_on_c, 6, 81, 96
8, 64000, Note_off_c, 6, 81, 0
8, 64000, Note_on_c, 6, 69, 96
8, 64512, Note_off_c, 6, 69, 0
8, 67584, Note_on_c, 6, 69, 96
8, 68608, Note_off_c, 6, 69, 0
8, 68608, Note_on_c, 6, 69, 96
8, 69120, Note_off_c, 6, 69, 0
8, 69120, Note_on_c, 6, 69, 96
8, 69376, Note_off_c, 6, 69, 0
8, 69376, Note_on_c, 6, 69, 96
8, 69632, Note_off_c, 6, 69, 0
8, 69632, Note_on_c, 6, 69, 96
8, 70144, Note_off_c, 6, 69, 0
8, 70144, Note_on_c, 6, 69, 96
8, 70400, Note_off_c, 6, 69, 0
8, 70400, Note_on_c, 6, 69, 96
8, 70656, Note_off_c, 6, 69, 0
8, 70656, Note_on_c, 6, 69, 96
8, 71168, Note_off_c, 6, 69, 0
8, 71168, Note_on_c, 6, 69, 96
8, 71424, Note_off_c, 6, 69, 0
8, 71424, Note_on_c, 6, 69, 96
8, 71680, Note_off_c, 6, 69, 0
8, 71680, Note_on_c, 6, 69, 96
8, 72704, Note_off_c, 6, 69, 0
8, 74752, Note_on_c, 6, 69, 96
8, 75776, Note_off_c, 6, 69, 0
8, 75776, Note_on_c, 6, 69, 96
8, 76800, Note_off_c, 6, 69, 0
8, 80896, Note_on_c, 6, 66, 96
8, 81408, Note_off_c, 6, 66, 0
8, 81408, Note_on_c, 6, 66, 96
8, 81664, Note_off_c, 6, 66, 0
8, 81664, Note_on_c, 6, 66, 96
8, 81920, Note_off_c, 6, 66, 0
8, 81920, Note_on_c, 6, 66, 96
8, 82432, Note_off_c, 6, 66, 0
8, 82432, Note_on_c, 6, 66, 96
8, 82688, Note_off_c, 6, 66, 0
8, 82688, Note_on_c, 6, 66, 96
8, 82944, Note_off_c, 6, 66, 0
8, 82944, Note_on_c, 6, 66, 96
8, 83456, Note_off_c, 6, 66, 0
8, 83456, Note_on_c, 6, 66, 96
8, 83712, Note_off_c, 6, 66, 0
8, 83712, Note_on_c, 6, 66, 96
8, 83968, Note_off_c, 6, 66, 0
8, 83968, Note_on_c, 6, 66, 96
8, 84992, Note_off_c, 6, 66, 0
8, 89088, Note_on_c, 6, 74, 96
8, 89600, Note_off_c, 6, 74, 0
8, 89600, Note_on_c, 6, 69, 96
8, 90112, Note_off_c, 6, 69, 0
8, 90112, Note_on_c, 6, 66, 96
8, 91136, Note_off_c, 6, 66, 0
8, 91648, Note_on_c, 6, 74, 96
8, 91904, Note_off_c, 6, 74, 0
8, 91904, Note_on_c, 6, 74, 96
8, 92160, Note_off_c, 6, 74, 0
8, 92160, Note_on_c, 6, 74, 96
8, 92672, Note_off_c, 6, 74, 0
8, 92672, Note_on_c, 6, 74, 96
8, 92928, Note_off_c, 6, 74, 0
8, 92928, Note_on_c, 6, 74, 96
8, 93184, Note_off_c, 6, 74, 0
8, 93184, Note_on_c, 6, 69, 96
8, 93696, Note_off_c, 6, 69, 0
8, 93696, Note_on_c, 6, 69, 96
8, 94208, Note_off_c, 6, 69, 0
8, 94208, Note_on_c, 6, 69, 96
8, 98304, Note_off_c, 6, 69, 0
8, 98304, End_track
9, 0, Start_track
9, 0, Title_t, "Instrument 8"
9, 9216, Note_on_c, 7, 50, 96
9, 10240, Note_off_c, 7, 50, 0
9, 10240, Note_on_c, 7, 45, 96
9, 11264, Note_off_c, 7, 45, 0
9, 11264, Note_on_c, 7, 50, 96
9, 12288, Note_off_c, 7, 50, 0
9, 12288, Note_on_c, 7, 45, 96
9, 14336, Note_off_c, 7, 45, 0
9, 21504, Note_on_c, 7, 50, 96
9, 22528, Note_off_c, 7, 50, 0
9, 22528, Note_on_c, 7, 45, 96
9, 23552, Note_off_c, 7, 45, 0
9, 23552, Note_on_c, 7, 45, 96
9, 24576, Note_off_c, 7, 45, 0
9, 24576, Note_on_c, 7, 50, 96
9, 27648, Note_off_c, 7, 50, 0
9, 33792, Note_on_c, 7, 50, 96
9, 34816, Note_off_c, 7, 50, 0
9, 34816, Note_on_c, 7, 45, 96
9, 35840, Note_off_c, 7, 45, 0
9, 35840, Note_on_c, 7, 50, 96
9, 36864, Note_off_c, 7, 50, 0
9, 36864, Note_on_c, 7, 45, 96
9, 38912, Note_off_c, 7, 45, 0
9, 46080, Note_on_c, 7, 50, 96
9, 47104, Note_off_c, 7, 50, 0
9, 47104, Note_on_c, 7, 45, 96
9, 48128, Note_off_c, 7, 45, 0
9, 48128, Note_on_c, 7, 45, 96
9, 49152, Note_off_c, 7, 45, 0
9, 49152, Note_on_c, 7, 50, 96
9, 52224, Note_off_c, 7, 50, 0
9, 52224, Note_on_c, 7, 50, 96
9, 53248, Note_off_c, 7, 50, 0
9, 53248, Note_on_c, 7, 45, 96
9, 54272, Note_off_c, 7, 45, 0
9, 54272, Note_on_c, 7, 50, 96
9, 55296, Note_off_c, 7, 50, 0
9, 55296, Note_on_c, 7, 45, 96
9, 56320, Note_off_c, 7, 45, 0
9, 56320, Note_on_c, 7, 50, 96
9, 57344, Note_off_c, 7, 50, 0
9, 57344, Note_on_c, 7, 50, 96
9, 58368, Note_off_c, 7, 50, 0
9, 58368, Note_on_c, 7, 45, 96
9, 59392, Note_off_c, 7, 45, 0
9, 59392, Note_on_c, 7, 50, 96
9, 60416, Note_off_c, 7, 50, 0
9, 60416, Note_on_c, 7, 45, 96
9, 61440, Note_off_c, 7, 45, 0
9, 61440, Note_on_c, 7, 50, 96
9, 62464, Note_off_c, 7, 50, 0
9, 62464, Note_on_c, 7, 45, 96
9, 63488, Note_off_c, 7, 45, 0
9, 63488, Note_on_c, 7, 50, 96
9, 64512, Note_off_c, 7, 50, 0
9, 67584, Note_on_c, 7, 45, 96
9, 68608, Note_off_c, 7, 45, 0
9, 68608, Note_on_c, 7, 50, 96
9, 69120, Note_off_c, 7, 50, 0
9, 69120, Note_on_c, 7, 50, 96
9, 69376, Note_off_c, 7, 50, 0
9, 69376, Note_on_c, 7, 50, 96
9, 69632, Note_off_c, 7, 50, 0
9, 69632, Note_on_c, 7, 45, 96
9, 70144, Note_off_c, 7, 45, 0
9, 70144, Note_on_c, 7, 45, 96
9, 70400, Note_off_c, 7, 45, 0
9, 70400, Note_on_c, 7, 45, 96
9, 70656, Note_off_c, 7, 45, 0
9, 70656, Note_on_c, 7, 45, 96
9, 71168, Note_off_c, 7, 45, 0
9, 71168, Note_on_c, 7, 45, 96
9, 71424, Note_off_c, 7, 45, 0
9, 71424, Note_on_c, 7, 45, 96
9, 71680, Note_off_c, 7, 45, 0
9, 71680, Note_on_c, 7, 45, 96
9, 72704, Note_off_c, 7, 45, 0
9, 74752, Note_on_c, 7, 45, 96
9, 75776, Note_off_c, 7, 45, 0
9, 75776, Note_on_c, 7, 50, 96
9, 76800, Note_off_c, 7, 50, 0
9, 89088, Note_on_c, 7, 50, 96
9, 89600, Note_off_c, 7, 50, 0
9, 89600, Note_on_c, 7, 45, 96
9, 90112, Note_off_c, 7, 45, 0
9, 90112, Note_on_c, 7, 50, 96
9, 91136, Note_off_c, 7, 50, 0
9, 91648, Note_on_c, 7, 50, 96
9, 92160, Note_off_c, 7, 50, 0
9, 92160, Note_on_c, 7, 45, 96
9, 92672, Note_off_c, 7, 45, 0
9, 92672, Note_on_c, 7, 45, 96
9, 92928, Note_off_c, 7, 45, 0
9, 92928, Note_on_c, 7, 45, 96
9, 93184, Note_off_c, 7, 45, 0
9, 93184, Note_on_c, 7, 45, 96
9, 93696, Note_off_c, 7, 45, 0
9, 93696, Note_on_c, 7, 45, 96
9, 94208, Note_off_c, 7, 45, 0
9, 94208, Note_on_c, 7, 50, 96
9, 98304, Note_off_c, 7, 50, 0
9, 98304, End_track
0, 0, End_of_file
