0, 0, Header, 1, 6, 120
1, 0, Start_track
1, 0, Title_t, "untitled"
1, 0, Copyright_t, "Copyright © 2001 by <name>"
1, 0, Text_t, "win98\012"
1, 0, Time_signature, 3, 2, 24, 8
1, 0, Key_signature, -1, "major"
1, 0, Tempo, 571429
1, 22320, Tempo, 571429
1, 22334, Tempo, 576923
1, 22348, Tempo, 582524
1, 22363, Tempo, 588235
1, 22377, Tempo, 594059
1, 22392, Tempo, 600000
1, 22406, Tempo, 606061
1, 22420, Tempo, 612245
1, 22435, Tempo, 618557
1, 22449, Tempo, 625000
1, 22464, Tempo, 631579
1, 22478, Tempo, 638298
1, 22492, Tempo, 645161
1, 22507, Tempo, 652174
1, 22521, Tempo, 659341
1, 22536, Tempo, 666667
1, 22550, Tempo, 674157
1, 22564, Tempo, 681818
1, 22579, Tempo, 689655
1, 22593, Tempo, 697674
1, 22608, Tempo, 705882
1, 22622, Tempo, 714286
1, 22636, Tempo, 722892
1, 22651, Tempo, 731707
1, 22665, Tempo, 740741
1, 22680, Tempo, 750000
1, 22680, End_track
2, 0, Start_track
2, 0, Control_c, 0, 0, 0
2, 0, Control_c, 0, 32, 0
2, 0, Program_c, 0, 0
2, 0, Control_c, 0, 7, 110
2, 0, Control_c, 0, 10, 35
2, 0, Note_on_c, 0, 72, 100
2, 119, Note_on_c, 0, 72, 0
2, 120, Note_on_c, 0, 74, 100
2, 150, Note_on_c, 0, 74, 0
2, 150, Note_on_c, 0, 76, 100
2, 180, Note_on_c, 0, 76, 0
2, 180, Note_on_c, 0, 77, 100
2, 239, Note_on_c, 0, 77, 0
2, 240, Note_on_c, 0, 76, 100
2, 359, Note_on_c, 0, 76, 0
2, 360, Note_on_c, 0, 77, 100
2, 400, Note_on_c, 0, 77, 0
2, 400, Note_on_c, 0, 76, 100
2, 440, Note_on_c, 0, 76, 0
2, 440, Note_on_c, 0, 74, 100
2, 480, Note_on_c, 0, 74, 0
2, 480, Note_on_c, 0, 74, 100
2, 600, Note_on_c, 0, 74, 0
2, 600, Note_on_c, 0, 72, 100
2, 719, Note_on_c, 0, 72, 0
2, 720, Note_on_c, 0, 74, 100
2, 760, Note_on_c, 0, 74, 0
2, 760, Note_on_c, 0, 75, 100
2, 800, Note_on_c, 0, 75, 0
2, 800, Note_on_c, 0, 74, 100
2, 840, Note_on_c, 0, 74, 0
2, 840, Note_on_c, 0, 72, 100
2, 880, Note_on_c, 0, 72, 0
2, 880, Note_on_c, 0, 74, 100
2, 920, Note_on_c, 0, 74, 0
2, 920, Note_on_c, 0, 72, 100
2, 960, Note_on_c, 0, 72, 0
2, 960, Note_on_c, 0, 70, 100
2, 1000, Note_on_c, 0, 70, 0
2, 1000, Note_on_c, 0, 72, 100
2, 1040, Note_on_c, 0, 72, 0
2, 1040, Note_on_c, 0, 70, 100
2, 1080, Note_on_c, 0, 70, 0
2, 1080, Note_on_c, 0, 70, 100
2, 1200, Note_on_c, 0, 70, 0
2, 1200, Note_on_c, 0, 69, 100
2, 1320, Note_on_c, 0, 69, 0
2, 1320, Note_on_c, 0, 67, 100
2, 1439, Note_on_c, 0, 67, 0
2, 1440, Note_on_c, 0, 69, 100
2, 1500, Note_on_c, 0, 69, 0
2, 1500, Note_on_c, 0, 72, 100
2, 1560, Note_on_c, 0, 72, 0
2, 1560, Note_on_c, 0, 65, 100
2, 1620, Note_on_c, 0, 65, 0
2, 1620, Note_on_c, 0, 72, 100
2, 1680, Note_on_c, 0, 72, 0
2, 1680, Note_on_c, 0, 67, 100
2, 1740, Note_on_c, 0, 67, 0
2, 1740, Note_on_c, 0, 72, 100
2, 1800, Note_on_c, 0, 72, 0
2, 1800, Note_on_c, 0, 69, 100
2, 1860, Note_on_c, 0, 69, 0
2, 1860, Note_on_c, 0, 72, 100
2, 1920, Note_on_c, 0, 72, 0
2, 1920, Note_on_c, 0, 70, 100
2, 1980, Note_on_c, 0, 70, 0
2, 1980, Note_on_c, 0, 72, 100
2, 2040, Note_on_c, 0, 72, 0
2, 2040, Note_on_c, 0, 67, 100
2, 2100, Note_on_c, 0, 67, 0
2, 2100, Note_on_c, 0, 72, 100
2, 2159, Note_on_c, 0, 72, 0
2, 2160, Note_on_c, 0, 69, 100
2, 2220, Note_on_c, 0, 69, 0
2, 2220, Note_on_c, 0, 72, 100
2, 2280, Note_on_c, 0, 72, 0
2, 2280, Note_on_c, 0, 65, 100
2, 2340, Note_on_c, 0, 65, 0
2, 2340, Note_on_c, 0, 72, 100
2, 2400, Note_on_c, 0, 72, 0
2, 2400, Note_on_c, 0, 67, 100
2, 2460, Note_on_c, 0, 67, 0
2, 2460, Note_on_c, 0, 72, 100
2, 2520, Note_on_c, 0, 72, 0
2, 2520, Note_on_c, 0, 69, 100
2, 2580, Note_on_c, 0, 69, 0
2, 2580, Note_on_c, 0, 72, 100
2, 2640, Note_on_c, 0, 72, 0
2, 2640, Note_on_c, 0, 70, 100
2, 2700, Note_on_c, 0, 70, 0
2, 2700, Note_on_c, 0, 72, 100
2, 2760, Note_on_c, 0, 72, 0
2, 2760, Note_on_c, 0, 67, 100
2, 2820, Note_on_c, 0, 67, 0
2, 2820, Note_on_c, 0, 72, 100
2, 2879, Note_on_c, 0, 72, 0
2, 2880, Note_on_c, 0, 69, 100
2, 2940, Note_on_c, 0, 69, 0
2, 2940, Note_on_c, 0, 72, 100
2, 3000, Note_on_c, 0, 72, 0
2, 3000, Note_on_c, 0, 74, 100
2, 3060, Note_on_c, 0, 74, 0
2, 3060, Note_on_c, 0, 76, 100
2, 3120, Note_on_c, 0, 76, 0
2, 3120, Note_on_c, 0, 77, 100
2, 3180, Note_on_c, 0, 77, 0
2, 3180, Note_on_c, 0, 74, 100
2, 3240, Note_on_c, 0, 74, 0
2, 3240, Note_on_c, 0, 72, 100
2, 3300, Note_on_c, 0, 72, 0
2, 3300, Note_on_c, 0, 71, 100
2, 3360, Note_on_c, 0, 71, 0
2, 3360, Note_on_c, 0, 69, 100
2, 3420, Note_on_c, 0, 69, 0
2, 3420, Note_on_c, 0, 67, 100
2, 3479, Note_on_c, 0, 67, 0
2, 3480, Note_on_c, 0, 72, 100
2, 3510, Note_on_c, 0, 72, 0
2, 3510, Note_on_c, 0, 74, 100
2, 3540, Note_on_c, 0, 74, 0
2, 3540, Note_on_c, 0, 72, 100
2, 3570, Note_on_c, 0, 72, 0
2, 3570, Note_on_c, 0, 71, 100
2, 3600, Note_on_c, 0, 71, 0
2, 3600, Note_on_c, 0, 72, 100
2, 3660, Note_on_c, 0, 72, 0
2, 3660, Note_on_c, 0, 77, 100
2, 3720, Note_on_c, 0, 77, 0
2, 3720, Note_on_c, 0, 76, 100
2, 3839, Note_on_c, 0, 76, 0
2, 3840, Note_on_c, 0, 74, 100
2, 3850, Note_on_c, 0, 74, 0
2, 3850, Note_on_c, 0, 76, 100
2, 3860, Note_on_c, 0, 76, 0
2, 3860, Note_on_c, 0, 74, 100
2, 3870, Note_on_c, 0, 74, 0
2, 3870, Note_on_c, 0, 72, 100
2, 3900, Note_on_c, 0, 72, 0
2, 3900, Note_on_c, 0, 74, 100
2, 3959, Note_on_c, 0, 74, 0
2, 3960, Control_c, 0, 64, 127
2, 3960, Note_on_c, 0, 72, 100
2, 4318, Control_c, 0, 64, 0
2, 4319, Note_on_c, 0, 72, 0
2, 4320, Note_on_c, 0, 72, 100
2, 4439, Note_on_c, 0, 72, 0
2, 4440, Note_on_c, 0, 74, 100
2, 4470, Note_on_c, 0, 74, 0
2, 4470, Note_on_c, 0, 76, 100
2, 4500, Note_on_c, 0, 76, 0
2, 4500, Note_on_c, 0, 77, 100
2, 4559, Note_on_c, 0, 77, 0
2, 4560, Note_on_c, 0, 76, 100
2, 4679, Note_on_c, 0, 76, 0
2, 4680, Note_on_c, 0, 77, 100
2, 4720, Note_on_c, 0, 77, 0
2, 4720, Note_on_c, 0, 76, 100
2, 4760, Note_on_c, 0, 76, 0
2, 4760, Note_on_c, 0, 74, 100
2, 4800, Note_on_c, 0, 74, 0
2, 4800, Note_on_c, 0, 74, 100
2, 4920, Note_on_c, 0, 74, 0
2, 4920, Note_on_c, 0, 72, 100
2, 5039, Note_on_c, 0, 72, 0
2, 5040, Note_on_c, 0, 74, 100
2, 5080, Note_on_c, 0, 74, 0
2, 5080, Note_on_c, 0, 75, 100
2, 5120, Note_on_c, 0, 75, 0
2, 5120, Note_on_c, 0, 74, 100
2, 5160, Note_on_c, 0, 74, 0
2, 5160, Note_on_c, 0, 72, 100
2, 5200, Note_on_c, 0, 72, 0
2, 5200, Note_on_c, 0, 74, 100
2, 5240, Note_on_c, 0, 74, 0
2, 5240, Note_on_c, 0, 72, 100
2, 5280, Note_on_c, 0, 72, 0
2, 5280, Note_on_c, 0, 70, 100
2, 5320, Note_on_c, 0, 70, 0
2, 5320, Note_on_c, 0, 72, 100
2, 5360, Note_on_c, 0, 72, 0
2, 5360, Note_on_c, 0, 70, 100
2, 5400, Note_on_c, 0, 70, 0
2, 5400, Note_on_c, 0, 70, 100
2, 5520, Note_on_c, 0, 70, 0
2, 5520, Note_on_c, 0, 69, 100
2, 5640, Note_on_c, 0, 69, 0
2, 5640, Note_on_c, 0, 67, 100
2, 5759, Note_on_c, 0, 67, 0
2, 5760, Note_on_c, 0, 69, 100
2, 5820, Note_on_c, 0, 69, 0
2, 5820, Note_on_c, 0, 72, 100
2, 5880, Note_on_c, 0, 72, 0
2, 5880, Note_on_c, 0, 65, 100
2, 5940, Note_on_c, 0, 65, 0
2, 5940, Note_on_c, 0, 72, 100
2, 6000, Note_on_c, 0, 72, 0
2, 6000, Note_on_c, 0, 67, 100
2, 6060, Note_on_c, 0, 67, 0
2, 6060, Note_on_c, 0, 72, 100
2, 6120, Note_on_c, 0, 72, 0
2, 6120, Note_on_c, 0, 69, 100
2, 6180, Note_on_c, 0, 69, 0
2, 6180, Note_on_c, 0, 72, 100
2, 6240, Note_on_c, 0, 72, 0
2, 6240, Note_on_c, 0, 70, 100
2, 6300, Note_on_c, 0, 70, 0
2, 6300, Note_on_c, 0, 72, 100
2, 6360, Note_on_c, 0, 72, 0
2, 6360, Note_on_c, 0, 67, 100
2, 6420, Note_on_c, 0, 67, 0
2, 6420, Note_on_c, 0, 72, 100
2, 6479, Note_on_c, 0, 72, 0
2, 6480, Note_on_c, 0, 69, 100
2, 6540, Note_on_c, 0, 69, 0
2, 6540, Note_on_c, 0, 72, 100
2, 6600, Note_on_c, 0, 72, 0
2, 6600, Note_on_c, 0, 65, 100
2, 6660, Note_on_c, 0, 65, 0
2, 6660, Note_on_c, 0, 72, 100
2, 6720, Note_on_c, 0, 72, 0
2, 6720, Note_on_c, 0, 67, 100
2, 6780, Note_on_c, 0, 67, 0
2, 6780, Note_on_c, 0, 72, 100
2, 6840, Note_on_c, 0, 72, 0
2, 6840, Note_on_c, 0, 69, 100
2, 6900, Note_on_c, 0, 69, 0
2, 6900, Note_on_c, 0, 72, 100
2, 6960, Note_on_c, 0, 72, 0
2, 6960, Note_on_c, 0, 70, 100
2, 7020, Note_on_c, 0, 70, 0
2, 7020, Note_on_c, 0, 72, 100
2, 7080, Note_on_c, 0, 72, 0
2, 7080, Note_on_c, 0, 67, 100
2, 7140, Note_on_c, 0, 67, 0
2, 7140, Note_on_c, 0, 72, 100
2, 7199, Note_on_c, 0, 72, 0
2, 7200, Note_on_c, 0, 69, 100
2, 7260, Note_on_c, 0, 69, 0
2, 7260, Note_on_c, 0, 72, 100
2, 7320, Note_on_c, 0, 72, 0
2, 7320, Note_on_c, 0, 74, 100
2, 7380, Note_on_c, 0, 74, 0
2, 7380, Note_on_c, 0, 76, 100
2, 7440, Note_on_c, 0, 76, 0
2, 7440, Note_on_c, 0, 77, 100
2, 7500, Note_on_c, 0, 77, 0
2, 7500, Note_on_c, 0, 74, 100
2, 7560, Note_on_c, 0, 74, 0
2, 7560, Note_on_c, 0, 72, 100
2, 7620, Note_on_c, 0, 72, 0
2, 7620, Note_on_c, 0, 71, 100
2, 7680, Note_on_c, 0, 71, 0
2, 7680, Note_on_c, 0, 69, 100
2, 7740, Note_on_c, 0, 69, 0
2, 7740, Note_on_c, 0, 67, 100
2, 7799, Note_on_c, 0, 67, 0
2, 7800, Note_on_c, 0, 72, 100
2, 7830, Note_on_c, 0, 72, 0
2, 7830, Note_on_c, 0, 74, 100
2, 7860, Note_on_c, 0, 74, 0
2, 7860, Note_on_c, 0, 72, 100
2, 7890, Note_on_c, 0, 72, 0
2, 7890, Note_on_c, 0, 71, 100
2, 7920, Note_on_c, 0, 71, 0
2, 7920, Note_on_c, 0, 72, 100
2, 7980, Note_on_c, 0, 72, 0
2, 7980, Note_on_c, 0, 77, 100
2, 8040, Note_on_c, 0, 77, 0
2, 8040, Note_on_c, 0, 76, 100
2, 8159, Note_on_c, 0, 76, 0
2, 8160, Note_on_c, 0, 74, 100
2, 8170, Note_on_c, 0, 74, 0
2, 8170, Note_on_c, 0, 76, 100
2, 8180, Note_on_c, 0, 76, 0
2, 8180, Note_on_c, 0, 74, 100
2, 8190, Note_on_c, 0, 74, 0
2, 8190, Note_on_c, 0, 72, 100
2, 8220, Note_on_c, 0, 72, 0
2, 8220, Note_on_c, 0, 74, 100
2, 8279, Note_on_c, 0, 74, 0
2, 8280, Control_c, 0, 64, 127
2, 8280, Note_on_c, 0, 72, 100
2, 8638, Control_c, 0, 64, 0
2, 8639, Note_on_c, 0, 72, 0
2, 8639, End_track
3, 0, Start_track
3, 0, Control_c, 1, 0, 0
3, 0, Control_c, 1, 32, 0
3, 0, Program_c, 1, 0
3, 0, Control_c, 1, 7, 105
3, 0, Control_c, 1, 10, 92
3, 0, Note_on_c, 1, 53, 100
3, 119, Note_on_c, 1, 53, 0
3, 120, Note_on_c, 1, 57, 100
3, 239, Note_on_c, 1, 57, 0
3, 240, Note_on_c, 1, 55, 100
3, 359, Note_on_c, 1, 55, 0
3, 360, Note_on_c, 1, 57, 100
3, 479, Note_on_c, 1, 57, 0
3, 480, Note_on_c, 1, 53, 100
3, 540, Note_on_c, 1, 53, 0
3, 540, Note_on_c, 1, 55, 100
3, 600, Note_on_c, 1, 55, 0
3, 600, Note_on_c, 1, 57, 100
3, 660, Note_on_c, 1, 57, 0
3, 660, Note_on_c, 1, 53, 100
3, 719, Note_on_c, 1, 53, 0
3, 720, Note_on_c, 1, 58, 100
3, 839, Note_on_c, 1, 58, 0
3, 840, Note_on_c, 1, 60, 100
3, 959, Note_on_c, 1, 60, 0
3, 960, Note_on_c, 1, 48, 100
3, 1079, Note_on_c, 1, 48, 0
3, 1080, Note_on_c, 1, 53, 100
3, 1199, Note_on_c, 1, 53, 0
3, 1200, Note_on_c, 1, 48, 100
3, 1260, Note_on_c, 1, 48, 0
3, 1260, Note_on_c, 1, 50, 100
3, 1320, Note_on_c, 1, 50, 0
3, 1320, Note_on_c, 1, 52, 100
3, 1380, Note_on_c, 1, 52, 0
3, 1380, Note_on_c, 1, 48, 100
3, 1439, Note_on_c, 1, 48, 0
3, 1440, Note_on_c, 1, 53, 100
3, 1559, Note_on_c, 1, 53, 0
3, 1560, Note_on_c, 1, 45, 100
3, 1679, Note_on_c, 1, 45, 0
3, 1680, Note_on_c, 1, 43, 100
3, 1799, Note_on_c, 1, 43, 0
3, 1800, Note_on_c, 1, 41, 100
3, 1919, Note_on_c, 1, 41, 0
3, 1920, Note_on_c, 1, 43, 100
3, 2039, Note_on_c, 1, 43, 0
3, 2040, Note_on_c, 1, 40, 100
3, 2159, Note_on_c, 1, 40, 0
3, 2160, Note_on_c, 1, 41, 100
3, 2279, Note_on_c, 1, 41, 0
3, 2280, Note_on_c, 1, 45, 100
3, 2399, Note_on_c, 1, 45, 0
3, 2400, Note_on_c, 1, 43, 100
3, 2519, Note_on_c, 1, 43, 0
3, 2520, Note_on_c, 1, 41, 100
3, 2639, Note_on_c, 1, 41, 0
3, 2640, Note_on_c, 1, 43, 100
3, 2759, Note_on_c, 1, 43, 0
3, 2760, Note_on_c, 1, 40, 100
3, 2879, Note_on_c, 1, 40, 0
3, 2880, Note_on_c, 1, 41, 100
3, 2999, Note_on_c, 1, 41, 0
3, 3000, Note_on_c, 1, 53, 100
3, 3119, Note_on_c, 1, 53, 0
3, 3120, Note_on_c, 1, 50, 100
3, 3239, Note_on_c, 1, 50, 0
3, 3240, Note_on_c, 1, 55, 100
3, 3359, Note_on_c, 1, 55, 0
3, 3360, Note_on_c, 1, 52, 100
3, 3479, Note_on_c, 1, 52, 0
3, 3480, Note_on_c, 1, 57, 100
3, 3599, Note_on_c, 1, 57, 0
3, 3600, Note_on_c, 1, 53, 100
3, 3719, Note_on_c, 1, 53, 0
3, 3720, Note_on_c, 1, 55, 100
3, 3839, Note_on_c, 1, 55, 0
3, 3840, Note_on_c, 1, 43, 100
3, 3959, Note_on_c, 1, 43, 0
3, 3960, Control_c, 1, 64, 127
3, 3960, Note_on_c, 1, 48, 100
3, 4318, Control_c, 1, 64, 0
3, 4319, Note_on_c, 1, 48, 0
3, 4320, Note_on_c, 1, 53, 100
3, 4439, Note_on_c, 1, 53, 0
3, 4440, Note_on_c, 1, 57, 100
3, 4559, Note_on_c, 1, 57, 0
3, 4560, Note_on_c, 1, 55, 100
3, 4679, Note_on_c, 1, 55, 0
3, 4680, Note_on_c, 1, 57, 100
3, 4799, Note_on_c, 1, 57, 0
3, 4800, Note_on_c, 1, 53, 100
3, 4860, Note_on_c, 1, 53, 0
3, 4860, Note_on_c, 1, 55, 100
3, 4920, Note_on_c, 1, 55, 0
3, 4920, Note_on_c, 1, 57, 100
3, 4980, Note_on_c, 1, 57, 0
3, 4980, Note_on_c, 1, 53, 100
3, 5039, Note_on_c, 1, 53, 0
3, 5040, Note_on_c, 1, 58, 100
3, 5159, Note_on_c, 1, 58, 0
3, 5160, Note_on_c, 1, 60, 100
3, 5279, Note_on_c, 1, 60, 0
3, 5280, Note_on_c, 1, 48, 100
3, 5399, Note_on_c, 1, 48, 0
3, 5400, Note_on_c, 1, 53, 100
3, 5519, Note_on_c, 1, 53, 0
3, 5520, Note_on_c, 1, 48, 100
3, 5580, Note_on_c, 1, 48, 0
3, 5580, Note_on_c, 1, 50, 100
3, 5640, Note_on_c, 1, 50, 0
3, 5640, Note_on_c, 1, 52, 100
3, 5700, Note_on_c, 1, 52, 0
3, 5700, Note_on_c, 1, 48, 100
3, 5759, Note_on_c, 1, 48, 0
3, 5760, Note_on_c, 1, 53, 100
3, 5879, Note_on_c, 1, 53, 0
3, 5880, Note_on_c, 1, 45, 100
3, 5999, Note_on_c, 1, 45, 0
3, 6000, Note_on_c, 1, 43, 100
3, 6119, Note_on_c, 1, 43, 0
3, 6120, Note_on_c, 1, 41, 100
3, 6239, Note_on_c, 1, 41, 0
3, 6240, Note_on_c, 1, 43, 100
3, 6359, Note_on_c, 1, 43, 0
3, 6360, Note_on_c, 1, 40, 100
3, 6479, Note_on_c, 1, 40, 0
3, 6480, Note_on_c, 1, 41, 100
3, 6599, Note_on_c, 1, 41, 0
3, 6600, Note_on_c, 1, 45, 100
3, 6719, Note_on_c, 1, 45, 0
3, 6720, Note_on_c, 1, 43, 100
3, 6839, Note_on_c, 1, 43, 0
3, 6840, Note_on_c, 1, 41, 100
3, 6959, Note_on_c, 1, 41, 0
3, 6960, Note_on_c, 1, 43, 100
3, 7079, Note_on_c, 1, 43, 0
3, 7080, Note_on_c, 1, 40, 100
3, 7199, Note_on_c, 1, 40, 0
3, 7200, Note_on_c, 1, 41, 100
3, 7319, Note_on_c, 1, 41, 0
3, 7320, Note_on_c, 1, 53, 100
3, 7439, Note_on_c, 1, 53, 0
3, 7440, Note_on_c, 1, 50, 100
3, 7559, Note_on_c, 1, 50, 0
3, 7560, Note_on_c, 1, 55, 100
3, 7679, Note_on_c, 1, 55, 0
3, 7680, Note_on_c, 1, 52, 100
3, 7799, Note_on_c, 1, 52, 0
3, 7800, Note_on_c, 1, 57, 100
3, 7919, Note_on_c, 1, 57, 0
3, 7920, Note_on_c, 1, 53, 100
3, 8039, Note_on_c, 1, 53, 0
3, 8040, Note_on_c, 1, 55, 100
3, 8159, Note_on_c, 1, 55, 0
3, 8160, Note_on_c, 1, 43, 100
3, 8279, Note_on_c, 1, 43, 0
3, 8280, Control_c, 1, 64, 127
3, 8280, Note_on_c, 1, 48, 100
3, 8638, Control_c, 1, 64, 0
3, 8639, Note_on_c, 1, 48, 0
3, 8639, End_track
4, 0, Start_track
4, 0, Control_c, 0, 0, 0
4, 0, Control_c, 0, 7, 110
4, 0, Control_c, 0, 10, 35
4, 0, Control_c, 0, 32, 0
4, 0, Program_c, 0, 0
4, 8640, Note_on_c, 0, 79, 100
4, 8760, Note_on_c, 0, 79, 0
4, 8760, Note_on_c, 0, 77, 100
4, 8820, Note_on_c, 0, 77, 0
4, 8820, Note_on_c, 0, 76, 100
4, 8880, Note_on_c, 0, 76, 0
4, 8880, Note_on_c, 0, 77, 100
4, 8940, Note_on_c, 0, 77, 0
4, 8940, Note_on_c, 0, 74, 100
4, 9000, Note_on_c, 0, 74, 0
4, 9000, Note_on_c, 0, 76, 100
4, 9060, Note_on_c, 0, 76, 0
4, 9060, Note_on_c, 0, 79, 100
4, 9120, Note_on_c, 0, 79, 0
4, 9120, Note_on_c, 0, 82, 100
4, 9239, Note_on_c, 0, 82, 0
4, 9240, Poly_aftertouch_c, 0, 82, 0
4, 9360, Note_on_c, 0, 81, 100
4, 9480, Note_on_c, 0, 81, 0
4, 9480, Note_on_c, 0, 79, 100
4, 9540, Note_on_c, 0, 79, 0
4, 9540, Note_on_c, 0, 77, 100
4, 9600, Note_on_c, 0, 77, 0
4, 9600, Note_on_c, 0, 76, 100
4, 9660, Note_on_c, 0, 76, 0
4, 9660, Note_on_c, 0, 74, 100
4, 9720, Note_on_c, 0, 74, 0
4, 9720, Note_on_c, 0, 74, 100
4, 9840, Note_on_c, 0, 74, 0
4, 9840, Control_c, 0, 64, 127
4, 9840, Note_on_c, 0, 73, 100
4, 10078, Control_c, 0, 64, 0
4, 10079, Note_on_c, 0, 73, 0
4, 10080, Note_on_c, 0, 73, 100
4, 10140, Note_on_c, 0, 73, 0
4, 10140, Note_on_c, 0, 74, 100
4, 10200, Note_on_c, 0, 74, 0
4, 10200, Note_on_c, 0, 76, 100
4, 10260, Note_on_c, 0, 76, 0
4, 10260, Note_on_c, 0, 73, 100
4, 10320, Note_on_c, 0, 73, 0
4, 10320, Note_on_c, 0, 74, 100
4, 10380, Note_on_c, 0, 74, 0
4, 10380, Note_on_c, 0, 76, 100
4, 10439, Note_on_c, 0, 76, 0
4, 10440, Note_on_c, 0, 69, 100
4, 10559, Note_on_c, 0, 69, 0
4, 10560, Note_on_c, 0, 69, 100
4, 10679, Note_on_c, 0, 69, 0
4, 10680, Note_on_c, 0, 69, 100
4, 10799, Note_on_c, 0, 69, 0
4, 10800, Note_on_c, 0, 73, 100
4, 10860, Note_on_c, 0, 73, 0
4, 10860, Note_on_c, 0, 74, 100
4, 10920, Note_on_c, 0, 74, 0
4, 10920, Note_on_c, 0, 76, 100
4, 10980, Note_on_c, 0, 76, 0
4, 10980, Note_on_c, 0, 73, 100
4, 11040, Note_on_c, 0, 73, 0
4, 11040, Note_on_c, 0, 74, 100
4, 11100, Note_on_c, 0, 74, 0
4, 11100, Note_on_c, 0, 76, 100
4, 11159, Note_on_c, 0, 76, 0
4, 11160, Note_on_c, 0, 67, 100
4, 11279, Note_on_c, 0, 67, 0
4, 11280, Note_on_c, 0, 67, 100
4, 11399, Note_on_c, 0, 67, 0
4, 11400, Note_on_c, 0, 67, 100
4, 11519, Note_on_c, 0, 67, 0
4, 11520, Note_on_c, 0, 73, 100
4, 11580, Note_on_c, 0, 73, 0
4, 11580, Note_on_c, 0, 74, 100
4, 11640, Note_on_c, 0, 74, 0
4, 11640, Note_on_c, 0, 76, 100
4, 11700, Note_on_c, 0, 76, 0
4, 11700, Note_on_c, 0, 73, 100
4, 11760, Note_on_c, 0, 73, 0
4, 11760, Note_on_c, 0, 74, 100
4, 11820, Note_on_c, 0, 74, 0
4, 11820, Note_on_c, 0, 76, 100
4, 11880, Note_on_c, 0, 76, 0
4, 11880, Note_on_c, 0, 69, 100
4, 11940, Note_on_c, 0, 69, 0
4, 11940, Note_on_c, 0, 74, 100
4, 12000, Note_on_c, 0, 74, 0
4, 12000, Note_on_c, 0, 72, 100
4, 12060, Note_on_c, 0, 72, 0
4, 12060, Note_on_c, 0, 70, 100
4, 12120, Note_on_c, 0, 70, 0
4, 12120, Note_on_c, 0, 69, 100
4, 12180, Note_on_c, 0, 69, 0
4, 12180, Note_on_c, 0, 67, 100
4, 12239, Note_on_c, 0, 67, 0
4, 12240, Note_on_c, 0, 65, 100
4, 12360, Note_on_c, 0, 65, 0
4, 12360, Note_on_c, 0, 67, 100
4, 12480, Note_on_c, 0, 67, 0
4, 12480, Note_on_c, 0, 64, 100
4, 12599, Note_on_c, 0, 64, 0
4, 12600, Control_c, 0, 64, 127
4, 12600, Note_on_c, 0, 62, 100
4, 12958, Control_c, 0, 64, 0
4, 12959, Note_on_c, 0, 62, 0
4, 12960, Note_on_c, 0, 72, 100
4, 13020, Note_on_c, 0, 72, 0
4, 13020, Note_on_c, 0, 77, 100
4, 13080, Note_on_c, 0, 77, 0
4, 13080, Note_on_c, 0, 76, 100
4, 13140, Note_on_c, 0, 76, 0
4, 13140, Note_on_c, 0, 77, 100
4, 13200, Note_on_c, 0, 77, 0
4, 13200, Note_on_c, 0, 75, 100
4, 13260, Note_on_c, 0, 75, 0
4, 13260, Note_on_c, 0, 77, 100
4, 13320, Note_on_c, 0, 77, 0
4, 13320, Note_on_c, 0, 81, 100
4, 13380, Note_on_c, 0, 81, 0
4, 13380, Note_on_c, 0, 77, 100
4, 13440, Note_on_c, 0, 77, 0
4, 13440, Note_on_c, 0, 74, 100
4, 13500, Note_on_c, 0, 74, 0
4, 13500, Note_on_c, 0, 77, 100
4, 13560, Note_on_c, 0, 77, 0
4, 13560, Note_on_c, 0, 72, 100
4, 13620, Note_on_c, 0, 72, 0
4, 13620, Note_on_c, 0, 77, 100
4, 13679, Note_on_c, 0, 77, 0
4, 13680, Note_on_c, 0, 74, 100
4, 13740, Note_on_c, 0, 74, 0
4, 13740, Note_on_c, 0, 79, 100
4, 13800, Note_on_c, 0, 79, 0
4, 13800, Note_on_c, 0, 78, 100
4, 13860, Note_on_c, 0, 78, 0
4, 13860, Note_on_c, 0, 79, 100
4, 13920, Note_on_c, 0, 79, 0
4, 13920, Note_on_c, 0, 77, 100
4, 13980, Note_on_c, 0, 77, 0
4, 13980, Note_on_c, 0, 79, 100
4, 14040, Note_on_c, 0, 79, 0
4, 14040, Note_on_c, 0, 82, 100
4, 14100, Note_on_c, 0, 82, 0
4, 14100, Note_on_c, 0, 79, 100
4, 14160, Note_on_c, 0, 79, 0
4, 14160, Note_on_c, 0, 76, 100
4, 14220, Note_on_c, 0, 76, 0
4, 14220, Note_on_c, 0, 79, 100
4, 14280, Note_on_c, 0, 79, 0
4, 14280, Note_on_c, 0, 72, 100
4, 14340, Note_on_c, 0, 72, 0
4, 14340, Note_on_c, 0, 70, 100
4, 14399, Note_on_c, 0, 70, 0
4, 14400, Note_on_c, 0, 69, 100
4, 14460, Note_on_c, 0, 69, 0
4, 14460, Note_on_c, 0, 77, 100
4, 14520, Note_on_c, 0, 77, 0
4, 14520, Note_on_c, 0, 79, 100
4, 14580, Note_on_c, 0, 79, 0
4, 14580, Note_on_c, 0, 81, 100
4, 14640, Note_on_c, 0, 81, 0
4, 14640, Note_on_c, 0, 79, 100
4, 14700, Note_on_c, 0, 79, 0
4, 14700, Note_on_c, 0, 77, 100
4, 14759, Note_on_c, 0, 77, 0
4, 14760, Note_on_c, 0, 70, 100
4, 14820, Note_on_c, 0, 70, 0
4, 14820, Note_on_c, 0, 79, 100
4, 14880, Note_on_c, 0, 79, 0
4, 14880, Note_on_c, 0, 81, 100
4, 14940, Note_on_c, 0, 81, 0
4, 14940, Note_on_c, 0, 82, 100
4, 15000, Note_on_c, 0, 82, 0
4, 15000, Note_on_c, 0, 81, 100
4, 15060, Note_on_c, 0, 81, 0
4, 15060, Note_on_c, 0, 79, 100
4, 15119, Note_on_c, 0, 79, 0
4, 15120, Note_on_c, 0, 72, 100
4, 15180, Note_on_c, 0, 72, 0
4, 15180, Note_on_c, 0, 84, 100
4, 15240, Note_on_c, 0, 84, 0
4, 15240, Note_on_c, 0, 82, 100
4, 15300, Note_on_c, 0, 82, 0
4, 15300, Note_on_c, 0, 81, 100
4, 15360, Note_on_c, 0, 81, 0
4, 15360, Note_on_c, 0, 79, 100
4, 15420, Note_on_c, 0, 79, 0
4, 15420, Note_on_c, 0, 81, 100
4, 15479, Note_on_c, 0, 81, 0
4, 15480, Note_on_c, 0, 79, 100
4, 15600, Note_on_c, 0, 79, 0
4, 15600, Control_c, 0, 64, 127
4, 15600, Note_on_c, 0, 77, 100
4, 15838, Control_c, 0, 64, 0
4, 15839, Note_on_c, 0, 77, 0
4, 15840, Note_on_c, 0, 79, 100
4, 15960, Note_on_c, 0, 79, 0
4, 15960, Note_on_c, 0, 77, 100
4, 16020, Note_on_c, 0, 77, 0
4, 16020, Note_on_c, 0, 76, 100
4, 16080, Note_on_c, 0, 76, 0
4, 16080, Note_on_c, 0, 77, 100
4, 16140, Note_on_c, 0, 77, 0
4, 16140, Note_on_c, 0, 74, 100
4, 16200, Note_on_c, 0, 74, 0
4, 16200, Note_on_c, 0, 76, 100
4, 16260, Note_on_c, 0, 76, 0
4, 16260, Note_on_c, 0, 79, 100
4, 16320, Note_on_c, 0, 79, 0
4, 16320, Note_on_c, 0, 82, 100
4, 16439, Note_on_c, 0, 82, 0
4, 16440, Poly_aftertouch_c, 0, 82, 0
4, 16560, Note_on_c, 0, 81, 100
4, 16680, Note_on_c, 0, 81, 0
4, 16680, Note_on_c, 0, 79, 100
4, 16740, Note_on_c, 0, 79, 0
4, 16740, Note_on_c, 0, 77, 100
4, 16800, Note_on_c, 0, 77, 0
4, 16800, Note_on_c, 0, 76, 100
4, 16860, Note_on_c, 0, 76, 0
4, 16860, Note_on_c, 0, 74, 100
4, 16920, Note_on_c, 0, 74, 0
4, 16920, Note_on_c, 0, 74, 100
4, 17040, Note_on_c, 0, 74, 0
4, 17040, Control_c, 0, 64, 127
4, 17040, Note_on_c, 0, 73, 100
4, 17278, Control_c, 0, 64, 0
4, 17279, Note_on_c, 0, 73, 0
4, 17280, Note_on_c, 0, 73, 100
4, 17340, Note_on_c, 0, 73, 0
4, 17340, Note_on_c, 0, 74, 100
4, 17400, Note_on_c, 0, 74, 0
4, 17400, Note_on_c, 0, 76, 100
4, 17460, Note_on_c, 0, 76, 0
4, 17460, Note_on_c, 0, 73, 100
4, 17520, Note_on_c, 0, 73, 0
4, 17520, Note_on_c, 0, 74, 100
4, 17580, Note_on_c, 0, 74, 0
4, 17580, Note_on_c, 0, 76, 100
4, 17639, Note_on_c, 0, 76, 0
4, 17640, Note_on_c, 0, 69, 100
4, 17759, Note_on_c, 0, 69, 0
4, 17760, Note_on_c, 0, 69, 100
4, 17879, Note_on_c, 0, 69, 0
4, 17880, Note_on_c, 0, 69, 100
4, 17999, Note_on_c, 0, 69, 0
4, 18000, Note_on_c, 0, 73, 100
4, 18060, Note_on_c, 0, 73, 0
4, 18060, Note_on_c, 0, 74, 100
4, 18120, Note_on_c, 0, 74, 0
4, 18120, Note_on_c, 0, 76, 100
4, 18180, Note_on_c, 0, 76, 0
4, 18180, Note_on_c, 0, 73, 100
4, 18240, Note_on_c, 0, 73, 0
4, 18240, Note_on_c, 0, 74, 100
4, 18300, Note_on_c, 0, 74, 0
4, 18300, Note_on_c, 0, 76, 100
4, 18359, Note_on_c, 0, 76, 0
4, 18360, Note_on_c, 0, 67, 100
4, 18479, Note_on_c, 0, 67, 0
4, 18480, Note_on_c, 0, 67, 100
4, 18599, Note_on_c, 0, 67, 0
4, 18600, Note_on_c, 0, 67, 100
4, 18719, Note_on_c, 0, 67, 0
4, 18720, Note_on_c, 0, 73, 100
4, 18780, Note_on_c, 0, 73, 0
4, 18780, Note_on_c, 0, 74, 100
4, 18840, Note_on_c, 0, 74, 0
4, 18840, Note_on_c, 0, 76, 100
4, 18900, Note_on_c, 0, 76, 0
4, 18900, Note_on_c, 0, 73, 100
4, 18960, Note_on_c, 0, 73, 0
4, 18960, Note_on_c, 0, 74, 100
4, 19020, Note_on_c, 0, 74, 0
4, 19020, Note_on_c, 0, 76, 100
4, 19080, Note_on_c, 0, 76, 0
4, 19080, Note_on_c, 0, 69, 100
4, 19140, Note_on_c, 0, 69, 0
4, 19140, Note_on_c, 0, 74, 100
4, 19200, Note_on_c, 0, 74, 0
4, 19200, Note_on_c, 0, 72, 100
4, 19260, Note_on_c, 0, 72, 0
4, 19260, Note_on_c, 0, 70, 100
4, 19320, Note_on_c, 0, 70, 0
4, 19320, Note_on_c, 0, 69, 100
4, 19380, Note_on_c, 0, 69, 0
4, 19380, Note_on_c, 0, 67, 100
4, 19439, Note_on_c, 0, 67, 0
4, 19440, Note_on_c, 0, 65, 100
4, 19560, Note_on_c, 0, 65, 0
4, 19560, Note_on_c, 0, 67, 100
4, 19680, Note_on_c, 0, 67, 0
4, 19680, Note_on_c, 0, 64, 100
4, 19799, Note_on_c, 0, 64, 0
4, 19800, Control_c, 0, 64, 127
4, 19800, Note_on_c, 0, 62, 100
4, 20158, Control_c, 0, 64, 0
4, 20159, Note_on_c, 0, 62, 0
4, 20160, Note_on_c, 0, 72, 100
4, 20220, Note_on_c, 0, 72, 0
4, 20220, Note_on_c, 0, 77, 100
4, 20280, Note_on_c, 0, 77, 0
4, 20280, Note_on_c, 0, 76, 100
4, 20340, Note_on_c, 0, 76, 0
4, 20340, Note_on_c, 0, 77, 100
4, 20400, Note_on_c, 0, 77, 0
4, 20400, Note_on_c, 0, 75, 100
4, 20460, Note_on_c, 0, 75, 0
4, 20460, Note_on_c, 0, 77, 100
4, 20520, Note_on_c, 0, 77, 0
4, 20520, Note_on_c, 0, 81, 100
4, 20580, Note_on_c, 0, 81, 0
4, 20580, Note_on_c, 0, 77, 100
4, 20640, Note_on_c, 0, 77, 0
4, 20640, Note_on_c, 0, 74, 100
4, 20700, Note_on_c, 0, 74, 0
4, 20700, Note_on_c, 0, 77, 100
4, 20760, Note_on_c, 0, 77, 0
4, 20760, Note_on_c, 0, 72, 100
4, 20820, Note_on_c, 0, 72, 0
4, 20820, Note_on_c, 0, 77, 100
4, 20879, Note_on_c, 0, 77, 0
4, 20880, Note_on_c, 0, 74, 100
4, 20940, Note_on_c, 0, 74, 0
4, 20940, Note_on_c, 0, 79, 100
4, 21000, Note_on_c, 0, 79, 0
4, 21000, Note_on_c, 0, 78, 100
4, 21060, Note_on_c, 0, 78, 0
4, 21060, Note_on_c, 0, 79, 100
4, 21120, Note_on_c, 0, 79, 0
4, 21120, Note_on_c, 0, 77, 100
4, 21180, Note_on_c, 0, 77, 0
4, 21180, Note_on_c, 0, 79, 100
4, 21240, Note_on_c, 0, 79, 0
4, 21240, Note_on_c, 0, 82, 100
4, 21300, Note_on_c, 0, 82, 0
4, 21300, Note_on_c, 0, 79, 100
4, 21360, Note_on_c, 0, 79, 0
4, 21360, Note_on_c, 0, 76, 100
4, 21420, Note_on_c, 0, 76, 0
4, 21420, Note_on_c, 0, 79, 100
4, 21480, Note_on_c, 0, 79, 0
4, 21480, Note_on_c, 0, 72, 100
4, 21540, Note_on_c, 0, 72, 0
4, 21540, Note_on_c, 0, 70, 100
4, 21599, Note_on_c, 0, 70, 0
4, 21600, Note_on_c, 0, 69, 100
4, 21660, Note_on_c, 0, 69, 0
4, 21660, Note_on_c, 0, 77, 100
4, 21720, Note_on_c, 0, 77, 0
4, 21720, Note_on_c, 0, 79, 100
4, 21780, Note_on_c, 0, 79, 0
4, 21780, Note_on_c, 0, 81, 100
4, 21840, Note_on_c, 0, 81, 0
4, 21840, Note_on_c, 0, 79, 100
4, 21900, Note_on_c, 0, 79, 0
4, 21900, Note_on_c, 0, 77, 100
4, 21959, Note_on_c, 0, 77, 0
4, 21960, Note_on_c, 0, 70, 100
4, 22020, Note_on_c, 0, 70, 0
4, 22020, Note_on_c, 0, 79, 100
4, 22080, Note_on_c, 0, 79, 0
4, 22080, Note_on_c, 0, 81, 100
4, 22140, Note_on_c, 0, 81, 0
4, 22140, Note_on_c, 0, 82, 100
4, 22200, Note_on_c, 0, 82, 0
4, 22200, Note_on_c, 0, 81, 100
4, 22260, Note_on_c, 0, 81, 0
4, 22260, Note_on_c, 0, 79, 100
4, 22319, Note_on_c, 0, 79, 0
4, 22320, Note_on_c, 0, 72, 100
4, 22380, Note_on_c, 0, 72, 0
4, 22380, Note_on_c, 0, 84, 100
4, 22440, Note_on_c, 0, 84, 0
4, 22440, Note_on_c, 0, 82, 100
4, 22500, Note_on_c, 0, 82, 0
4, 22500, Note_on_c, 0, 81, 100
4, 22560, Note_on_c, 0, 81, 0
4, 22560, Note_on_c, 0, 79, 100
4, 22620, Note_on_c, 0, 79, 0
4, 22620, Note_on_c, 0, 81, 100
4, 22679, Note_on_c, 0, 81, 0
4, 22680, Note_on_c, 0, 79, 100
4, 22800, Note_on_c, 0, 79, 0
4, 22800, Control_c, 0, 64, 127
4, 22800, Note_on_c, 0, 77, 100
4, 23038, Control_c, 0, 64, 0
4, 23039, Note_on_c, 0, 77, 0
4, 23040, Poly_aftertouch_c, 0, 77, 0
4, 23040, End_track
5, 0, Start_track
5, 0, Control_c, 1, 0, 0
5, 0, Control_c, 1, 7, 105
5, 0, Control_c, 1, 10, 92
5, 0, Control_c, 1, 32, 0
5, 0, Program_c, 1, 0
5, 8640, Note_on_c, 1, 48, 100
5, 8759, Note_on_c, 1, 48, 0
5, 8760, Note_on_c, 1, 55, 100
5, 8879, Note_on_c, 1, 55, 0
5, 8880, Note_on_c, 1, 43, 100
5, 8999, Note_on_c, 1, 43, 0
5, 9000, Note_on_c, 1, 48, 100
5, 9119, Note_on_c, 1, 48, 0
5, 9120, Note_on_c, 1, 52, 100
5, 9180, Note_on_c, 1, 52, 0
5, 9180, Note_on_c, 1, 50, 100
5, 9240, Note_on_c, 1, 50, 0
5, 9240, Note_on_c, 1, 52, 100
5, 9300, Note_on_c, 1, 52, 0
5, 9300, Note_on_c, 1, 48, 100
5, 9359, Note_on_c, 1, 48, 0
5, 9360, Note_on_c, 1, 53, 100
5, 9479, Note_on_c, 1, 53, 0
5, 9480, Note_on_c, 1, 58, 100
5, 9599, Note_on_c, 1, 58, 0
5, 9600, Note_on_c, 1, 55, 100
5, 9719, Note_on_c, 1, 55, 0
5, 9720, Note_on_c, 1, 57, 100
5, 9839, Note_on_c, 1, 57, 0
5, 9840, Note_on_c, 1, 52, 100
5, 9959, Note_on_c, 1, 52, 0
5, 9960, Note_on_c, 1, 49, 100
5, 10079, Note_on_c, 1, 49, 0
5, 10080, Note_on_c, 1, 45, 100
5, 10199, Note_on_c, 1, 45, 0
5, 10200, Note_on_c, 1, 57, 100
5, 10319, Note_on_c, 1, 57, 0
5, 10320, Note_on_c, 1, 52, 100
5, 10439, Note_on_c, 1, 52, 0
5, 10440, Note_on_c, 1, 49, 100
5, 10500, Note_on_c, 1, 49, 0
5, 10500, Note_on_c, 1, 50, 100
5, 10560, Note_on_c, 1, 50, 0
5, 10560, Note_on_c, 1, 52, 100
5, 10620, Note_on_c, 1, 52, 0
5, 10620, Note_on_c, 1, 49, 100
5, 10680, Note_on_c, 1, 49, 0
5, 10680, Note_on_c, 1, 50, 100
5, 10740, Note_on_c, 1, 50, 0
5, 10740, Note_on_c, 1, 52, 100
5, 10799, Note_on_c, 1, 52, 0
5, 10800, Note_on_c, 1, 45, 100
5, 10919, Note_on_c, 1, 45, 0
5, 10920, Note_on_c, 1, 45, 100
5, 11039, Note_on_c, 1, 45, 0
5, 11040, Note_on_c, 1, 45, 100
5, 11159, Note_on_c, 1, 45, 0
5, 11160, Note_on_c, 1, 49, 100
5, 11220, Note_on_c, 1, 49, 0
5, 11220, Note_on_c, 1, 50, 100
5, 11280, Note_on_c, 1, 50, 0
5, 11280, Note_on_c, 1, 52, 100
5, 11340, Note_on_c, 1, 52, 0
5, 11340, Note_on_c, 1, 49, 100
5, 11400, Note_on_c, 1, 49, 0
5, 11400, Note_on_c, 1, 50, 100
5, 11460, Note_on_c, 1, 50, 0
5, 11460, Note_on_c, 1, 52, 100
5, 11519, Note_on_c, 1, 52, 0
5, 11520, Note_on_c, 1, 43, 100
5, 11639, Note_on_c, 1, 43, 0
5, 11640, Note_on_c, 1, 43, 100
5, 11759, Note_on_c, 1, 43, 0
5, 11760, Note_on_c, 1, 43, 100
5, 11879, Note_on_c, 1, 43, 0
5, 11880, Note_on_c, 1, 41, 100
5, 11999, Note_on_c, 1, 41, 0
5, 12000, Note_on_c, 1, 53, 100
5, 12119, Note_on_c, 1, 53, 0
5, 12120, Note_on_c, 1, 55, 100
5, 12239, Note_on_c, 1, 55, 0
5, 12240, Control_c, 1, 64, 127
5, 12240, Note_on_c, 1, 57, 100
5, 12478, Control_c, 1, 64, 0
5, 12479, Note_on_c, 1, 57, 0
5, 12480, Note_on_c, 1, 45, 100
5, 12599, Note_on_c, 1, 45, 0
5, 12600, Note_on_c, 1, 50, 100
5, 12660, Note_on_c, 1, 50, 0
5, 12660, Note_on_c, 1, 62, 100
5, 12720, Note_on_c, 1, 62, 0
5, 12720, Note_on_c, 1, 60, 100
5, 12780, Note_on_c, 1, 60, 0
5, 12780, Note_on_c, 1, 58, 100
5, 12840, Note_on_c, 1, 58, 0
5, 12840, Note_on_c, 1, 57, 100
5, 12900, Note_on_c, 1, 57, 0
5, 12900, Note_on_c, 1, 55, 100
5, 12959, Note_on_c, 1, 55, 0
5, 12960, Control_c, 1, 64, 127
5, 12960, Note_on_c, 1, 57, 100
5, 13198, Control_c, 1, 64, 0
5, 13199, Note_on_c, 1, 57, 0
5, 13200, Note_on_c, 1, 55, 100
5, 13319, Note_on_c, 1, 55, 0
5, 13320, Note_on_c, 1, 53, 100
5, 13439, Note_on_c, 1, 53, 0
5, 13440, Note_on_c, 1, 58, 100
5, 13559, Note_on_c, 1, 58, 0
5, 13560, Note_on_c, 1, 57, 100
5, 13679, Note_on_c, 1, 57, 0
5, 13680, Control_c, 1, 64, 127
5, 13680, Note_on_c, 1, 58, 100
5, 13918, Control_c, 1, 64, 0
5, 13919, Note_on_c, 1, 58, 0
5, 13920, Note_on_c, 1, 57, 100
5, 14039, Note_on_c, 1, 57, 0
5, 14040, Note_on_c, 1, 55, 100
5, 14159, Note_on_c, 1, 55, 0
5, 14160, Note_on_c, 1, 60, 100
5, 14279, Note_on_c, 1, 60, 0
5, 14280, Note_on_c, 1, 52, 100
5, 14399, Note_on_c, 1, 52, 0
5, 14400, Note_on_c, 1, 53, 100
5, 14519, Note_on_c, 1, 53, 0
5, 14520, Poly_aftertouch_c, 1, 53, 0
5, 14760, Note_on_c, 1, 55, 100
5, 14879, Note_on_c, 1, 55, 0
5, 14880, Poly_aftertouch_c, 1, 53, 0
5, 15120, Note_on_c, 1, 57, 100
5, 15239, Note_on_c, 1, 57, 0
5, 15240, Note_on_c, 1, 58, 100
5, 15359, Note_on_c, 1, 58, 0
5, 15360, Note_on_c, 1, 60, 100
5, 15479, Note_on_c, 1, 60, 0
5, 15480, Control_c, 1, 64, 127
5, 15480, Note_on_c, 1, 53, 100
5, 15838, Control_c, 1, 64, 0
5, 15839, Note_on_c, 1, 53, 0
5, 15840, Note_on_c, 1, 48, 100
5, 15959, Note_on_c, 1, 48, 0
5, 15960, Note_on_c, 1, 55, 100
5, 16079, Note_on_c, 1, 55, 0
5, 16080, Note_on_c, 1, 43, 100
5, 16199, Note_on_c, 1, 43, 0
5, 16200, Note_on_c, 1, 48, 100
5, 16319, Note_on_c, 1, 48, 0
5, 16320, Note_on_c, 1, 52, 100
5, 16380, Note_on_c, 1, 52, 0
5, 16380, Note_on_c, 1, 50, 100
5, 16440, Note_on_c, 1, 50, 0
5, 16440, Note_on_c, 1, 52, 100
5, 16500, Note_on_c, 1, 52, 0
5, 16500, Note_on_c, 1, 48, 100
5, 16559, Note_on_c, 1, 48, 0
5, 16560, Note_on_c, 1, 53, 100
5, 16679, Note_on_c, 1, 53, 0
5, 16680, Note_on_c, 1, 58, 100
5, 16799, Note_on_c, 1, 58, 0
5, 16800, Note_on_c, 1, 55, 100
5, 16919, Note_on_c, 1, 55, 0
5, 16920, Note_on_c, 1, 57, 100
5, 17039, Note_on_c, 1, 57, 0
5, 17040, Note_on_c, 1, 52, 100
5, 17159, Note_on_c, 1, 52, 0
5, 17160, Note_on_c, 1, 49, 100
5, 17279, Note_on_c, 1, 49, 0
5, 17280, Note_on_c, 1, 45, 100
5, 17399, Note_on_c, 1, 45, 0
5, 17400, Note_on_c, 1, 57, 100
5, 17519, Note_on_c, 1, 57, 0
5, 17520, Note_on_c, 1, 52, 100
5, 17639, Note_on_c, 1, 52, 0
5, 17640, Note_on_c, 1, 49, 100
5, 17700, Note_on_c, 1, 49, 0
5, 17700, Note_on_c, 1, 50, 100
5, 17760, Note_on_c, 1, 50, 0
5, 17760, Note_on_c, 1, 52, 100
5, 17820, Note_on_c, 1, 52, 0
5, 17820, Note_on_c, 1, 49, 100
5, 17880, Note_on_c, 1, 49, 0
5, 17880, Note_on_c, 1, 50, 100
5, 17940, Note_on_c, 1, 50, 0
5, 17940, Note_on_c, 1, 52, 100
5, 17999, Note_on_c, 1, 52, 0
5, 18000, Note_on_c, 1, 45, 100
5, 18119, Note_on_c, 1, 45, 0
5, 18120, Note_on_c, 1, 45, 100
5, 18239, Note_on_c, 1, 45, 0
5, 18240, Note_on_c, 1, 45, 100
5, 18359, Note_on_c, 1, 45, 0
5, 18360, Note_on_c, 1, 49, 100
5, 18420, Note_on_c, 1, 49, 0
5, 18420, Note_on_c, 1, 50, 100
5, 18480, Note_on_c, 1, 50, 0
5, 18480, Note_on_c, 1, 52, 100
5, 18540, Note_on_c, 1, 52, 0
5, 18540, Note_on_c, 1, 49, 100
5, 18600, Note_on_c, 1, 49, 0
5, 18600, Note_on_c, 1, 50, 100
5, 18660, Note_on_c, 1, 50, 0
5, 18660, Note_on_c, 1, 52, 100
5, 18719, Note_on_c, 1, 52, 0
5, 18720, Note_on_c, 1, 43, 100
5, 18839, Note_on_c, 1, 43, 0
5, 18840, Note_on_c, 1, 43, 100
5, 18959, Note_on_c, 1, 43, 0
5, 18960, Note_on_c, 1, 43, 100
5, 19079, Note_on_c, 1, 43, 0
5, 19080, Note_on_c, 1, 41, 100
5, 19199, Note_on_c, 1, 41, 0
5, 19200, Note_on_c, 1, 53, 100
5, 19319, Note_on_c, 1, 53, 0
5, 19320, Note_on_c, 1, 55, 100
5, 19439, Note_on_c, 1, 55, 0
5, 19440, Control_c, 1, 64, 127
5, 19440, Note_on_c, 1, 57, 100
5, 19678, Control_c, 1, 64, 0
5, 19679, Note_on_c, 1, 57, 0
5, 19680, Note_on_c, 1, 45, 100
5, 19799, Note_on_c, 1, 45, 0
5, 19800, Note_on_c, 1, 50, 100
5, 19860, Note_on_c, 1, 50, 0
5, 19860, Note_on_c, 1, 62, 100
5, 19920, Note_on_c, 1, 62, 0
5, 19920, Note_on_c, 1, 60, 100
5, 19980, Note_on_c, 1, 60, 0
5, 19980, Note_on_c, 1, 58, 100
5, 20040, Note_on_c, 1, 58, 0
5, 20040, Note_on_c, 1, 57, 100
5, 20100, Note_on_c, 1, 57, 0
5, 20100, Note_on_c, 1, 55, 100
5, 20159, Note_on_c, 1, 55, 0
5, 20160, Control_c, 1, 64, 127
5, 20160, Note_on_c, 1, 57, 100
5, 20398, Control_c, 1, 64, 0
5, 20399, Note_on_c, 1, 57, 0
5, 20400, Note_on_c, 1, 55, 100
5, 20519, Note_on_c, 1, 55, 0
5, 20520, Note_on_c, 1, 53, 100
5, 20639, Note_on_c, 1, 53, 0
5, 20640, Note_on_c, 1, 58, 100
5, 20759, Note_on_c, 1, 58, 0
5, 20760, Note_on_c, 1, 57, 100
5, 20879, Note_on_c, 1, 57, 0
5, 20880, Control_c, 1, 64, 127
5, 20880, Note_on_c, 1, 58, 100
5, 21118, Control_c, 1, 64, 0
5, 21119, Note_on_c, 1, 58, 0
5, 21120, Note_on_c, 1, 57, 100
5, 21239, Note_on_c, 1, 57, 0
5, 21240, Note_on_c, 1, 55, 100
5, 21359, Note_on_c, 1, 55, 0
5, 21360, Note_on_c, 1, 60, 100
5, 21479, Note_on_c, 1, 60, 0
5, 21480, Note_on_c, 1, 52, 100
5, 21599, Note_on_c, 1, 52, 0
5, 21600, Note_on_c, 1, 53, 100
5, 21719, Note_on_c, 1, 53, 0
5, 21720, Poly_aftertouch_c, 1, 53, 0
5, 21960, Note_on_c, 1, 55, 100
5, 22079, Note_on_c, 1, 55, 0
5, 22080, Poly_aftertouch_c, 1, 53, 0
5, 22320, Note_on_c, 1, 57, 100
5, 22439, Note_on_c, 1, 57, 0
5, 22440, Note_on_c, 1, 58, 100
5, 22559, Note_on_c, 1, 58, 0
5, 22560, Note_on_c, 1, 60, 100
5, 22679, Note_on_c, 1, 60, 0
5, 22680, Control_c, 1, 64, 127
5, 22680, Note_on_c, 1, 53, 100
5, 23038, Control_c, 1, 64, 0
5, 23039, Note_on_c, 1, 53, 0
5, 23040, Poly_aftertouch_c, 1, 53, 0
5, 23040, End_track
6, 0, Start_track
6, 0, End_track
0, 0, End_of_file
