0, 0, Header, 1, 17, 120
1, 0, Start_track
1, 0, Text_t, "\015\012\015\012Mass in B Minor          Johann Sebastion Bach\015\012No. 11 Chor, Cum Sancto\015\012\015\012seq by David Siu  dss@po.cwru.edu\015\012\015\012\015\012"
1, 0, Time_signature, 1, 2, 24, 8
1, 0, Key_signature, 2, "major"
1, 0, Tempo, 618557
1, 120, Time_signature, 3, 2, 24, 8
1, 120, Tempo, 555555
1, 45255, Tempo, 666667
1, 45487, Tempo, 714286
1, 45645, Tempo, 857143
1, 45732, Tempo, 1000000
1, 45788, Tempo, 1200000
1, 46560, End_track
2, 0, Start_track
2, 0, MIDI_port, 0
2, 0, Title_t, "Instrument  1"
2, 0, Program_c, 3, 68
2, 120, Control_c, 3, 7, 100
2, 180, Note_on_c, 3, 62, 64
2, 210, Note_on_c, 3, 62, 0
2, 210, Note_on_c, 3, 64, 64
2, 240, Note_on_c, 3, 64, 0
2, 240, Note_on_c, 3, 66, 64
2, 270, Note_on_c, 3, 66, 0
2, 270, Note_on_c, 3, 67, 64
2, 300, Note_on_c, 3, 67, 0
2, 300, Note_on_c, 3, 69, 64
2, 330, Note_on_c, 3, 69, 0
2, 330, Note_on_c, 3, 71, 64
2, 360, Note_on_c, 3, 71, 0
2, 360, Note_on_c, 3, 73, 64
2, 390, Note_on_c, 3, 73, 0
2, 390, Note_on_c, 3, 76, 64
2, 420, Note_on_c, 3, 76, 0
2, 420, Note_on_c, 3, 74, 64
2, 450, Note_on_c, 3, 74, 0
2, 450, Note_on_c, 3, 73, 64
2, 480, Note_on_c, 3, 73, 0
2, 480, Note_on_c, 3, 74, 64
2, 521, Note_on_c, 3, 74, 0
2, 660, Note_on_c, 3, 66, 64
2, 690, Note_on_c, 3, 66, 0
2, 690, Note_on_c, 3, 67, 64
2, 720, Note_on_c, 3, 67, 0
2, 720, Note_on_c, 3, 69, 64
2, 750, Note_on_c, 3, 69, 0
2, 750, Note_on_c, 3, 71, 64
2, 780, Note_on_c, 3, 71, 0
2, 780, Note_on_c, 3, 73, 64
2, 810, Note_on_c, 3, 73, 0
2, 810, Note_on_c, 3, 74, 64
2, 840, Note_on_c, 3, 74, 0
2, 840, Note_on_c, 3, 69, 64
2, 881, Note_on_c, 3, 69, 0
2, 1380, Note_on_c, 3, 73, 64
2, 1410, Note_on_c, 3, 73, 0
2, 1410, Note_on_c, 3, 74, 64
2, 1440, Note_on_c, 3, 74, 0
2, 1440, Note_on_c, 3, 76, 64
2, 1481, Note_on_c, 3, 76, 0
2, 1500, Note_on_c, 3, 69, 64
2, 1541, Note_on_c, 3, 69, 0
2, 1560, Note_on_c, 3, 69, 64
2, 1601, Note_on_c, 3, 69, 0
2, 1620, Note_on_c, 3, 74, 64
2, 1661, Note_on_c, 3, 74, 0
2, 1680, Note_on_c, 3, 78, 64
2, 1721, Note_on_c, 3, 78, 0
2, 1740, Note_on_c, 3, 81, 64
2, 1781, Note_on_c, 3, 81, 0
2, 1800, Note_on_c, 3, 78, 64
2, 1841, Note_on_c, 3, 78, 0
2, 1860, Note_on_c, 3, 74, 64
2, 1901, Note_on_c, 3, 74, 0
2, 1980, Note_on_c, 3, 71, 64
2, 2021, Note_on_c, 3, 71, 0
2, 2040, Note_on_c, 3, 74, 64
2, 2081, Note_on_c, 3, 74, 0
2, 2100, Note_on_c, 3, 78, 64
2, 2141, Note_on_c, 3, 78, 0
2, 2160, Note_on_c, 3, 74, 64
2, 2201, Note_on_c, 3, 74, 0
2, 2220, Note_on_c, 3, 71, 64
2, 2261, Note_on_c, 3, 71, 0
2, 2280, Note_on_c, 3, 69, 64
2, 2460, Note_on_c, 3, 69, 0
2, 2460, Note_on_c, 3, 71, 64
2, 2490, Note_on_c, 3, 71, 0
2, 2490, Note_on_c, 3, 73, 64
2, 2520, Note_on_c, 3, 73, 0
2, 2520, Note_on_c, 3, 74, 64
2, 2550, Note_on_c, 3, 74, 0
2, 2550, Note_on_c, 3, 76, 64
2, 2580, Note_on_c, 3, 76, 0
2, 2580, Note_on_c, 3, 78, 64
2, 2610, Note_on_c, 3, 78, 0
2, 2610, Note_on_c, 3, 74, 64
2, 2640, Note_on_c, 3, 74, 0
2, 2640, Note_on_c, 3, 71, 64
2, 2790, Note_on_c, 3, 71, 0
2, 2790, Note_on_c, 3, 69, 64
2, 2820, Note_on_c, 3, 69, 0
2, 2820, Note_on_c, 3, 68, 64
2, 2850, Note_on_c, 3, 68, 0
2, 2850, Note_on_c, 3, 69, 64
2, 2880, Note_on_c, 3, 69, 0
2, 2880, Note_on_c, 3, 71, 64
2, 2910, Note_on_c, 3, 71, 0
2, 2910, Note_on_c, 3, 73, 64
2, 2940, Note_on_c, 3, 73, 0
2, 2940, Note_on_c, 3, 74, 64
2, 2970, Note_on_c, 3, 74, 0
2, 2970, Note_on_c, 3, 71, 64
2, 3000, Note_on_c, 3, 71, 0
2, 3000, Note_on_c, 3, 73, 64
2, 3041, Note_on_c, 3, 73, 0
2, 3420, Note_on_c, 3, 69, 64
2, 3461, Note_on_c, 3, 69, 0
2, 3480, Note_on_c, 3, 73, 64
2, 3521, Note_on_c, 3, 73, 0
2, 3540, Note_on_c, 3, 76, 64
2, 3581, Note_on_c, 3, 76, 0
2, 3600, Note_on_c, 3, 73, 64
2, 3641, Note_on_c, 3, 73, 0
2, 3660, Note_on_c, 3, 71, 64
2, 3690, Note_on_c, 3, 71, 0
2, 3690, Note_on_c, 3, 69, 64
2, 3720, Note_on_c, 3, 69, 0
2, 3720, Note_on_c, 3, 71, 64
2, 3761, Note_on_c, 3, 71, 0
2, 4140, Note_on_c, 3, 71, 64
2, 4181, Note_on_c, 3, 71, 0
2, 4200, Note_on_c, 3, 74, 64
2, 4241, Note_on_c, 3, 74, 0
2, 4260, Note_on_c, 3, 80, 64
2, 4301, Note_on_c, 3, 80, 0
2, 4320, Note_on_c, 3, 71, 64
2, 4361, Note_on_c, 3, 71, 0
2, 4380, Note_on_c, 3, 69, 64
2, 4410, Note_on_c, 3, 69, 0
2, 4410, Note_on_c, 3, 68, 64
2, 4440, Note_on_c, 3, 68, 0
2, 4440, Note_on_c, 3, 69, 64
2, 4560, Note_on_c, 3, 69, 0
2, 4620, Note_on_c, 3, 69, 64
2, 4650, Note_on_c, 3, 69, 0
2, 4650, Note_on_c, 3, 71, 64
2, 4680, Note_on_c, 3, 71, 0
2, 4680, Note_on_c, 3, 73, 64
2, 4710, Note_on_c, 3, 73, 0
2, 4710, Note_on_c, 3, 74, 64
2, 4740, Note_on_c, 3, 74, 0
2, 4740, Note_on_c, 3, 76, 64
2, 4770, Note_on_c, 3, 76, 0
2, 4770, Note_on_c, 3, 73, 64
2, 4800, Note_on_c, 3, 73, 0
2, 4800, Note_on_c, 3, 81, 64
2, 4841, Note_on_c, 3, 81, 0
2, 4860, Note_on_c, 3, 69, 64
2, 4901, Note_on_c, 3, 69, 0
2, 4980, Note_on_c, 3, 66, 64
2, 5010, Note_on_c, 3, 66, 0
2, 5010, Note_on_c, 3, 68, 64
2, 5040, Note_on_c, 3, 68, 0
2, 5040, Note_on_c, 3, 69, 64
2, 5070, Note_on_c, 3, 69, 0
2, 5070, Note_on_c, 3, 71, 64
2, 5100, Note_on_c, 3, 71, 0
2, 5100, Note_on_c, 3, 73, 64
2, 5130, Note_on_c, 3, 73, 0
2, 5130, Note_on_c, 3, 69, 64
2, 5160, Note_on_c, 3, 69, 0
2, 5160, Note_on_c, 3, 76, 64
2, 5201, Note_on_c, 3, 76, 0
2, 5220, Note_on_c, 3, 64, 64
2, 5261, Note_on_c, 3, 64, 0
2, 5280, Note_on_c, 3, 69, 64
2, 5321, Note_on_c, 3, 69, 0
2, 5340, Note_on_c, 3, 73, 64
2, 5381, Note_on_c, 3, 73, 0
2, 5400, Note_on_c, 3, 69, 64
2, 5441, Note_on_c, 3, 69, 0
2, 5460, Note_on_c, 3, 64, 64
2, 5501, Note_on_c, 3, 64, 0
2, 5580, Note_on_c, 3, 66, 64
2, 5621, Note_on_c, 3, 66, 0
2, 5640, Note_on_c, 3, 75, 64
2, 5681, Note_on_c, 3, 75, 0
2, 5700, Note_on_c, 3, 78, 64
2, 5741, Note_on_c, 3, 78, 0
2, 5760, Note_on_c, 3, 71, 64
2, 5801, Note_on_c, 3, 71, 0
2, 5820, Note_on_c, 3, 66, 64
2, 5861, Note_on_c, 3, 66, 0
2, 5940, Note_on_c, 3, 71, 41
2, 6060, Note_on_c, 3, 71, 0
2, 6060, Note_on_c, 3, 69, 43
2, 6090, Note_on_c, 3, 69, 0
2, 6090, Note_on_c, 3, 68, 44
2, 6120, Note_on_c, 3, 68, 0
2, 6120, Note_on_c, 3, 69, 44
2, 6210, Note_on_c, 3, 69, 0
2, 6210, Note_on_c, 3, 71, 46
2, 6225, Note_on_c, 3, 71, 0
2, 6225, Note_on_c, 3, 73, 46
2, 6240, Note_on_c, 3, 73, 0
2, 6240, Note_on_c, 3, 71, 46
2, 6600, Note_on_c, 3, 71, 0
2, 6660, Note_on_c, 3, 66, 53
2, 6690, Note_on_c, 3, 66, 0
2, 6690, Note_on_c, 3, 68, 54
2, 6705, Note_on_c, 3, 68, 0
2, 6705, Note_on_c, 3, 69, 54
2, 6720, Note_on_c, 3, 69, 0
2, 6720, Note_on_c, 3, 69, 54
2, 6761, Note_on_c, 3, 69, 0
2, 6780, Note_on_c, 3, 66, 55
2, 6810, Note_on_c, 3, 66, 0
2, 6810, Note_on_c, 3, 68, 56
2, 6825, Note_on_c, 3, 68, 0
2, 6825, Note_on_c, 3, 69, 56
2, 6840, Note_on_c, 3, 69, 0
2, 6840, Note_on_c, 3, 69, 56
2, 6881, Note_on_c, 3, 69, 0
2, 7020, Note_on_c, 3, 64, 59
2, 7050, Note_on_c, 3, 64, 0
2, 7050, Note_on_c, 3, 66, 60
2, 7065, Note_on_c, 3, 66, 0
2, 7065, Note_on_c, 3, 67, 60
2, 7080, Note_on_c, 3, 67, 0
2, 7080, Note_on_c, 3, 67, 60
2, 7121, Note_on_c, 3, 67, 0
2, 7140, Note_on_c, 3, 64, 61
2, 7170, Note_on_c, 3, 64, 0
2, 7170, Note_on_c, 3, 66, 62
2, 7185, Note_on_c, 3, 66, 0
2, 7185, Note_on_c, 3, 67, 62
2, 7200, Note_on_c, 3, 67, 0
2, 7200, Note_on_c, 3, 67, 62
2, 7241, Note_on_c, 3, 67, 0
2, 7260, Note_on_c, 3, 66, 63
2, 7290, Note_on_c, 3, 66, 0
2, 7290, Note_on_c, 3, 64, 64
2, 7320, Note_on_c, 3, 64, 0
2, 7320, Note_on_c, 3, 66, 50
2, 7361, Note_on_c, 3, 66, 0
2, 7380, Note_on_c, 3, 62, 51
2, 7410, Note_on_c, 3, 62, 0
2, 7410, Note_on_c, 3, 64, 51
2, 7440, Note_on_c, 3, 64, 0
2, 7440, Note_on_c, 3, 66, 52
2, 7470, Note_on_c, 3, 66, 0
2, 7470, Note_on_c, 3, 68, 52
2, 7500, Note_on_c, 3, 68, 0
2, 7500, Note_on_c, 3, 69, 53
2, 7530, Note_on_c, 3, 69, 0
2, 7530, Note_on_c, 3, 66, 53
2, 7560, Note_on_c, 3, 66, 0
2, 7560, Note_on_c, 3, 71, 53
2, 7590, Note_on_c, 3, 71, 0
2, 7590, Note_on_c, 3, 69, 54
2, 7620, Note_on_c, 3, 69, 0
2, 7620, Note_on_c, 3, 68, 54
2, 7650, Note_on_c, 3, 68, 0
2, 7650, Note_on_c, 3, 66, 55
2, 7680, Note_on_c, 3, 66, 0
2, 7680, Note_on_c, 3, 68, 55
2, 7710, Note_on_c, 3, 68, 0
2, 7710, Note_on_c, 3, 66, 55
2, 7740, Note_on_c, 3, 66, 0
2, 7740, Note_on_c, 3, 64, 56
2, 7770, Note_on_c, 3, 64, 0
2, 7770, Note_on_c, 3, 66, 56
2, 7800, Note_on_c, 3, 66, 0
2, 7800, Note_on_c, 3, 68, 57
2, 7830, Note_on_c, 3, 68, 0
2, 7830, Note_on_c, 3, 69, 57
2, 7860, Note_on_c, 3, 69, 0
2, 7860, Note_on_c, 3, 71, 58
2, 7890, Note_on_c, 3, 71, 0
2, 7890, Note_on_c, 3, 69, 58
2, 7920, Note_on_c, 3, 69, 0
2, 7920, Note_on_c, 3, 73, 58
2, 7950, Note_on_c, 3, 73, 0
2, 7950, Note_on_c, 3, 71, 59
2, 7980, Note_on_c, 3, 71, 0
2, 7980, Note_on_c, 3, 69, 59
2, 8010, Note_on_c, 3, 69, 0
2, 8010, Note_on_c, 3, 68, 60
2, 8040, Note_on_c, 3, 68, 0
2, 8040, Note_on_c, 3, 69, 60
2, 8070, Note_on_c, 3, 69, 0
2, 8070, Note_on_c, 3, 68, 60
2, 8100, Note_on_c, 3, 68, 0
2, 8100, Note_on_c, 3, 66, 61
2, 8130, Note_on_c, 3, 66, 0
2, 8130, Note_on_c, 3, 68, 61
2, 8160, Note_on_c, 3, 68, 0
2, 8160, Note_on_c, 3, 69, 62
2, 8190, Note_on_c, 3, 69, 0
2, 8190, Note_on_c, 3, 71, 62
2, 8220, Note_on_c, 3, 71, 0
2, 8220, Note_on_c, 3, 73, 63
2, 8250, Note_on_c, 3, 73, 0
2, 8250, Note_on_c, 3, 71, 63
2, 8280, Note_on_c, 3, 71, 0
2, 8280, Note_on_c, 3, 74, 63
2, 8310, Note_on_c, 3, 74, 0
2, 8310, Note_on_c, 3, 73, 64
2, 8340, Note_on_c, 3, 73, 0
2, 8340, Note_on_c, 3, 71, 64
2, 8370, Note_on_c, 3, 71, 0
2, 8370, Note_on_c, 3, 69, 65
2, 8400, Note_on_c, 3, 69, 0
2, 8400, Note_on_c, 3, 71, 65
2, 8430, Note_on_c, 3, 71, 0
2, 8430, Note_on_c, 3, 69, 65
2, 8460, Note_on_c, 3, 69, 0
2, 8460, Note_on_c, 3, 68, 66
2, 8490, Note_on_c, 3, 68, 0
2, 8490, Note_on_c, 3, 69, 66
2, 8520, Note_on_c, 3, 69, 0
2, 8520, Note_on_c, 3, 71, 67
2, 8550, Note_on_c, 3, 71, 0
2, 8550, Note_on_c, 3, 73, 67
2, 8580, Note_on_c, 3, 73, 0
2, 8580, Note_on_c, 3, 74, 68
2, 8610, Note_on_c, 3, 74, 0
2, 8610, Note_on_c, 3, 73, 68
2, 8640, Note_on_c, 3, 73, 0
2, 8640, Note_on_c, 3, 76, 68
2, 8670, Note_on_c, 3, 76, 0
2, 8670, Note_on_c, 3, 74, 69
2, 8700, Note_on_c, 3, 74, 0
2, 8700, Note_on_c, 3, 73, 69
2, 8730, Note_on_c, 3, 73, 0
2, 8730, Note_on_c, 3, 71, 70
2, 8760, Note_on_c, 3, 71, 0
2, 8760, Note_on_c, 3, 69, 64
2, 8790, Note_on_c, 3, 69, 0
2, 8790, Note_on_c, 3, 68, 64
2, 8820, Note_on_c, 3, 68, 0
2, 8820, Note_on_c, 3, 69, 64
2, 8850, Note_on_c, 3, 69, 0
2, 8850, Note_on_c, 3, 71, 64
2, 8880, Note_on_c, 3, 71, 0
2, 8880, Note_on_c, 3, 73, 64
2, 8921, Note_on_c, 3, 73, 0
2, 9120, Note_on_c, 3, 69, 64
2, 9150, Note_on_c, 3, 69, 0
2, 9150, Note_on_c, 3, 67, 64
2, 9180, Note_on_c, 3, 67, 0
2, 9180, Note_on_c, 3, 69, 64
2, 9210, Note_on_c, 3, 69, 0
2, 9210, Note_on_c, 3, 71, 64
2, 9240, Note_on_c, 3, 71, 0
2, 9240, Note_on_c, 3, 73, 64
2, 9281, Note_on_c, 3, 73, 0
2, 9480, Note_on_c, 3, 75, 64
2, 9510, Note_on_c, 3, 75, 0
2, 9510, Note_on_c, 3, 73, 64
2, 9540, Note_on_c, 3, 73, 0
2, 9540, Note_on_c, 3, 75, 64
2, 9570, Note_on_c, 3, 75, 0
2, 9570, Note_on_c, 3, 76, 64
2, 9600, Note_on_c, 3, 76, 0
2, 9600, Note_on_c, 3, 78, 64
2, 9641, Note_on_c, 3, 78, 0
2, 9840, Note_on_c, 3, 72, 64
2, 9870, Note_on_c, 3, 72, 0
2, 9870, Note_on_c, 3, 71, 64
2, 9900, Note_on_c, 3, 71, 0
2, 9900, Note_on_c, 3, 72, 64
2, 9930, Note_on_c, 3, 72, 0
2, 9930, Note_on_c, 3, 74, 64
2, 9960, Note_on_c, 3, 74, 0
2, 9960, Note_on_c, 3, 76, 64
2, 10001, Note_on_c, 3, 76, 0
2, 10200, Note_on_c, 3, 69, 64
2, 10230, Note_on_c, 3, 69, 0
2, 10230, Note_on_c, 3, 68, 64
2, 10260, Note_on_c, 3, 68, 0
2, 10260, Note_on_c, 3, 69, 64
2, 10290, Note_on_c, 3, 69, 0
2, 10290, Note_on_c, 3, 71, 64
2, 10320, Note_on_c, 3, 71, 0
2, 10320, Note_on_c, 3, 72, 64
2, 10361, Note_on_c, 3, 72, 0
2, 10560, Note_on_c, 3, 68, 64
2, 10590, Note_on_c, 3, 68, 0
2, 10590, Note_on_c, 3, 66, 64
2, 10620, Note_on_c, 3, 66, 0
2, 10620, Note_on_c, 3, 68, 64
2, 10650, Note_on_c, 3, 68, 0
2, 10650, Note_on_c, 3, 69, 64
2, 10680, Note_on_c, 3, 69, 0
2, 10680, Note_on_c, 3, 71, 64
2, 10721, Note_on_c, 3, 71, 0
2, 10950, Note_on_c, 3, 64, 64
2, 10980, Note_on_c, 3, 64, 0
2, 10980, Note_on_c, 3, 66, 64
2, 11010, Note_on_c, 3, 66, 0
2, 11010, Note_on_c, 3, 68, 64
2, 11040, Note_on_c, 3, 68, 0
2, 11040, Note_on_c, 3, 69, 64
2, 11070, Note_on_c, 3, 69, 0
2, 11070, Note_on_c, 3, 71, 64
2, 11100, Note_on_c, 3, 71, 0
2, 11100, Note_on_c, 3, 73, 64
2, 11130, Note_on_c, 3, 73, 0
2, 11130, Note_on_c, 3, 74, 64
2, 11160, Note_on_c, 3, 74, 0
2, 11160, Note_on_c, 3, 76, 64
2, 11190, Note_on_c, 3, 76, 0
2, 11190, Note_on_c, 3, 78, 64
2, 11220, Note_on_c, 3, 78, 0
2, 11220, Note_on_c, 3, 79, 64
2, 11250, Note_on_c, 3, 79, 0
2, 11250, Note_on_c, 3, 76, 64
2, 11280, Note_on_c, 3, 76, 0
2, 11280, Note_on_c, 3, 78, 64
2, 11310, Note_on_c, 3, 78, 0
2, 11310, Note_on_c, 3, 76, 64
2, 11340, Note_on_c, 3, 76, 0
2, 11340, Note_on_c, 3, 74, 64
2, 11370, Note_on_c, 3, 74, 0
2, 11370, Note_on_c, 3, 73, 64
2, 11400, Note_on_c, 3, 73, 0
2, 11400, Note_on_c, 3, 71, 64
2, 11430, Note_on_c, 3, 71, 0
2, 11430, Note_on_c, 3, 69, 64
2, 11460, Note_on_c, 3, 69, 0
2, 11460, Note_on_c, 3, 68, 64
2, 11490, Note_on_c, 3, 68, 0
2, 11490, Note_on_c, 3, 69, 64
2, 11520, Note_on_c, 3, 69, 0
2, 11520, Note_on_c, 3, 71, 64
2, 11550, Note_on_c, 3, 71, 0
2, 11550, Note_on_c, 3, 73, 64
2, 11580, Note_on_c, 3, 73, 0
2, 11580, Note_on_c, 3, 74, 64
2, 11610, Note_on_c, 3, 74, 0
2, 11610, Note_on_c, 3, 71, 64
2, 11640, Note_on_c, 3, 71, 0
2, 11640, Note_on_c, 3, 76, 64
2, 11670, Note_on_c, 3, 76, 0
2, 11670, Note_on_c, 3, 74, 64
2, 11700, Note_on_c, 3, 74, 0
2, 11700, Note_on_c, 3, 73, 64
2, 11730, Note_on_c, 3, 73, 0
2, 11730, Note_on_c, 3, 71, 64
2, 11760, Note_on_c, 3, 71, 0
2, 11760, Note_on_c, 3, 69, 64
2, 11790, Note_on_c, 3, 69, 0
2, 11790, Note_on_c, 3, 68, 64
2, 11820, Note_on_c, 3, 68, 0
2, 11820, Note_on_c, 3, 66, 64
2, 11850, Note_on_c, 3, 66, 0
2, 11850, Note_on_c, 3, 68, 64
2, 11880, Note_on_c, 3, 68, 0
2, 11880, Note_on_c, 3, 69, 64
2, 11910, Note_on_c, 3, 69, 0
2, 11910, Note_on_c, 3, 71, 64
2, 11940, Note_on_c, 3, 71, 0
2, 11940, Note_on_c, 3, 73, 64
2, 11970, Note_on_c, 3, 73, 0
2, 11970, Note_on_c, 3, 69, 64
2, 12000, Note_on_c, 3, 69, 0
2, 12000, Note_on_c, 3, 74, 64
2, 12030, Note_on_c, 3, 74, 0
2, 12030, Note_on_c, 3, 64, 64
2, 12060, Note_on_c, 3, 64, 0
2, 12060, Note_on_c, 3, 66, 64
2, 12090, Note_on_c, 3, 66, 0
2, 12090, Note_on_c, 3, 68, 64
2, 12120, Note_on_c, 3, 68, 0
2, 12120, Note_on_c, 3, 69, 64
2, 12150, Note_on_c, 3, 69, 0
2, 12150, Note_on_c, 3, 66, 64
2, 12180, Note_on_c, 3, 66, 0
2, 12180, Note_on_c, 3, 68, 64
2, 12210, Note_on_c, 3, 68, 0
2, 12210, Note_on_c, 3, 69, 64
2, 12240, Note_on_c, 3, 69, 0
2, 12240, Note_on_c, 3, 71, 64
2, 12270, Note_on_c, 3, 71, 0
2, 12270, Note_on_c, 3, 73, 64
2, 12300, Note_on_c, 3, 73, 0
2, 12300, Note_on_c, 3, 74, 64
2, 12330, Note_on_c, 3, 74, 0
2, 12330, Note_on_c, 3, 71, 64
2, 12360, Note_on_c, 3, 71, 0
2, 12360, Note_on_c, 3, 68, 64
2, 12390, Note_on_c, 3, 68, 0
2, 12390, Note_on_c, 3, 76, 65
2, 12420, Note_on_c, 3, 76, 0
2, 12420, Note_on_c, 3, 74, 65
2, 12450, Note_on_c, 3, 74, 0
2, 12450, Note_on_c, 3, 73, 66
2, 12480, Note_on_c, 3, 73, 0
2, 12480, Note_on_c, 3, 71, 67
2, 12510, Note_on_c, 3, 71, 0
2, 12510, Note_on_c, 3, 69, 67
2, 12540, Note_on_c, 3, 69, 0
2, 12540, Note_on_c, 3, 68, 68
2, 12570, Note_on_c, 3, 68, 0
2, 12570, Note_on_c, 3, 66, 69
2, 12600, Note_on_c, 3, 66, 0
2, 12600, Note_on_c, 3, 64, 69
2, 12630, Note_on_c, 3, 64, 0
2, 12630, Note_on_c, 3, 66, 70
2, 12660, Note_on_c, 3, 66, 0
2, 12660, Note_on_c, 3, 68, 71
2, 12690, Note_on_c, 3, 68, 0
2, 12690, Note_on_c, 3, 64, 71
2, 12720, Note_on_c, 3, 64, 0
2, 12720, Note_on_c, 3, 69, 72
2, 12750, Note_on_c, 3, 69, 0
2, 12750, Note_on_c, 3, 71, 73
2, 12780, Note_on_c, 3, 71, 0
2, 12780, Note_on_c, 3, 73, 73
2, 12810, Note_on_c, 3, 73, 0
2, 12810, Note_on_c, 3, 74, 74
2, 12840, Note_on_c, 3, 74, 0
2, 12840, Note_on_c, 3, 76, 75
2, 12870, Note_on_c, 3, 76, 0
2, 12870, Note_on_c, 3, 74, 75
2, 12900, Note_on_c, 3, 74, 0
2, 12900, Note_on_c, 3, 78, 76
2, 12930, Note_on_c, 3, 78, 0
2, 12930, Note_on_c, 3, 76, 77
2, 12960, Note_on_c, 3, 76, 0
2, 12960, Note_on_c, 3, 74, 77
2, 12990, Note_on_c, 3, 74, 0
2, 12990, Note_on_c, 3, 73, 78
2, 13020, Note_on_c, 3, 73, 0
2, 13020, Note_on_c, 3, 71, 79
2, 13050, Note_on_c, 3, 71, 0
2, 13050, Note_on_c, 3, 73, 79
2, 13080, Note_on_c, 3, 73, 0
2, 13080, Note_on_c, 3, 69, 80
2, 13200, Note_on_c, 3, 69, 0
2, 22860, Note_on_c, 3, 74, 64
2, 22980, Note_on_c, 3, 74, 0
2, 22980, Note_on_c, 3, 73, 64
2, 23010, Note_on_c, 3, 73, 0
2, 23010, Note_on_c, 3, 71, 64
2, 23040, Note_on_c, 3, 71, 0
2, 23040, Note_on_c, 3, 73, 64
2, 23130, Note_on_c, 3, 73, 0
2, 23130, Note_on_c, 3, 74, 64
2, 23145, Note_on_c, 3, 74, 0
2, 23145, Note_on_c, 3, 76, 64
2, 23160, Note_on_c, 3, 76, 0
2, 23160, Note_on_c, 3, 74, 64
2, 23201, Note_on_c, 3, 74, 0
2, 23220, Note_on_c, 3, 71, 64
2, 23261, Note_on_c, 3, 71, 0
2, 23280, Note_on_c, 3, 74, 64
2, 23321, Note_on_c, 3, 74, 0
2, 23340, Note_on_c, 3, 78, 64
2, 23381, Note_on_c, 3, 78, 0
2, 23400, Note_on_c, 3, 74, 64
2, 23441, Note_on_c, 3, 74, 0
2, 23460, Note_on_c, 3, 73, 64
2, 23490, Note_on_c, 3, 73, 0
2, 23490, Note_on_c, 3, 71, 64
2, 23520, Note_on_c, 3, 71, 0
2, 23520, Note_on_c, 3, 73, 64
2, 23561, Note_on_c, 3, 73, 0
2, 23580, Note_on_c, 3, 66, 64
2, 23621, Note_on_c, 3, 66, 0
2, 23640, Note_on_c, 3, 66, 64
2, 23681, Note_on_c, 3, 66, 0
2, 23700, Note_on_c, 3, 66, 64
2, 23741, Note_on_c, 3, 66, 0
2, 23760, Note_on_c, 3, 66, 64
2, 23801, Note_on_c, 3, 66, 0
2, 23820, Note_on_c, 3, 66, 64
2, 23861, Note_on_c, 3, 66, 0
2, 23880, Note_on_c, 3, 66, 64
2, 23921, Note_on_c, 3, 66, 0
2, 23940, Note_on_c, 3, 70, 64
2, 23981, Note_on_c, 3, 70, 0
2, 24000, Note_on_c, 3, 73, 64
2, 24041, Note_on_c, 3, 73, 0
2, 24060, Note_on_c, 3, 76, 64
2, 24101, Note_on_c, 3, 76, 0
2, 24120, Note_on_c, 3, 73, 64
2, 24161, Note_on_c, 3, 73, 0
2, 24180, Note_on_c, 3, 71, 64
2, 24210, Note_on_c, 3, 71, 0
2, 24210, Note_on_c, 3, 70, 64
2, 24240, Note_on_c, 3, 70, 0
2, 24240, Note_on_c, 3, 71, 64
2, 24281, Note_on_c, 3, 71, 0
2, 24300, Note_on_c, 3, 71, 64
2, 24330, Note_on_c, 3, 71, 0
2, 24330, Note_on_c, 3, 73, 64
2, 24345, Note_on_c, 3, 73, 0
2, 24345, Note_on_c, 3, 74, 64
2, 24360, Note_on_c, 3, 74, 0
2, 24360, Note_on_c, 3, 74, 64
2, 24401, Note_on_c, 3, 74, 0
2, 24420, Note_on_c, 3, 71, 64
2, 24450, Note_on_c, 3, 71, 0
2, 24450, Note_on_c, 3, 73, 64
2, 24465, Note_on_c, 3, 73, 0
2, 24465, Note_on_c, 3, 74, 64
2, 24480, Note_on_c, 3, 74, 0
2, 24480, Note_on_c, 3, 74, 64
2, 24521, Note_on_c, 3, 74, 0
2, 24540, Note_on_c, 3, 73, 64
2, 24570, Note_on_c, 3, 73, 0
2, 24570, Note_on_c, 3, 71, 64
2, 24600, Note_on_c, 3, 71, 0
2, 24600, Note_on_c, 3, 71, 64
2, 24720, Note_on_c, 3, 71, 0
2, 25020, Note_on_c, 3, 69, 64
2, 25061, Note_on_c, 3, 69, 0
2, 25080, Note_on_c, 3, 73, 64
2, 25121, Note_on_c, 3, 73, 0
2, 25140, Note_on_c, 3, 76, 64
2, 25181, Note_on_c, 3, 76, 0
2, 25200, Note_on_c, 3, 73, 64
2, 25241, Note_on_c, 3, 73, 0
2, 25260, Note_on_c, 3, 69, 64
2, 25301, Note_on_c, 3, 69, 0
2, 25380, Note_on_c, 3, 66, 64
2, 25421, Note_on_c, 3, 66, 0
2, 25440, Note_on_c, 3, 69, 64
2, 25481, Note_on_c, 3, 69, 0
2, 25500, Note_on_c, 3, 73, 64
2, 25541, Note_on_c, 3, 73, 0
2, 25560, Note_on_c, 3, 69, 64
2, 25601, Note_on_c, 3, 69, 0
2, 25620, Note_on_c, 3, 66, 64
2, 25661, Note_on_c, 3, 66, 0
2, 25680, Note_on_c, 3, 66, 64
2, 25860, Note_on_c, 3, 66, 0
2, 25860, Note_on_c, 3, 68, 64
2, 25890, Note_on_c, 3, 68, 0
2, 25890, Note_on_c, 3, 69, 64
2, 25920, Note_on_c, 3, 69, 0
2, 25920, Note_on_c, 3, 71, 64
2, 25950, Note_on_c, 3, 71, 0
2, 25950, Note_on_c, 3, 73, 64
2, 25980, Note_on_c, 3, 73, 0
2, 25980, Note_on_c, 3, 74, 64
2, 26010, Note_on_c, 3, 74, 0
2, 26010, Note_on_c, 3, 71, 64
2, 26040, Note_on_c, 3, 71, 0
2, 26040, Note_on_c, 3, 68, 64
2, 26190, Note_on_c, 3, 68, 0
2, 26190, Note_on_c, 3, 66, 64
2, 26220, Note_on_c, 3, 66, 0
2, 26220, Note_on_c, 3, 65, 64
2, 26250, Note_on_c, 3, 65, 0
2, 26250, Note_on_c, 3, 66, 64
2, 26280, Note_on_c, 3, 66, 0
2, 26280, Note_on_c, 3, 68, 64
2, 26310, Note_on_c, 3, 68, 0
2, 26310, Note_on_c, 3, 69, 64
2, 26340, Note_on_c, 3, 69, 0
2, 26340, Note_on_c, 3, 71, 64
2, 26370, Note_on_c, 3, 71, 0
2, 26370, Note_on_c, 3, 68, 64
2, 26400, Note_on_c, 3, 68, 0
2, 26400, Note_on_c, 3, 69, 64
2, 26520, Note_on_c, 3, 69, 0
2, 26580, Note_on_c, 3, 73, 64
2, 26621, Note_on_c, 3, 73, 0
2, 26640, Note_on_c, 3, 78, 64
2, 26681, Note_on_c, 3, 78, 0
2, 26700, Note_on_c, 3, 81, 64
2, 26741, Note_on_c, 3, 81, 0
2, 26760, Note_on_c, 3, 78, 64
2, 26801, Note_on_c, 3, 78, 0
2, 26820, Note_on_c, 3, 73, 64
2, 26861, Note_on_c, 3, 73, 0
2, 26940, Note_on_c, 3, 78, 64
2, 26981, Note_on_c, 3, 78, 0
2, 27000, Note_on_c, 3, 81, 64
2, 27041, Note_on_c, 3, 81, 0
2, 27060, Note_on_c, 3, 85, 64
2, 27101, Note_on_c, 3, 85, 0
2, 27120, Note_on_c, 3, 81, 64
2, 27161, Note_on_c, 3, 81, 0
2, 27180, Note_on_c, 3, 78, 64
2, 27221, Note_on_c, 3, 78, 0
2, 27300, Note_on_c, 3, 81, 64
2, 27341, Note_on_c, 3, 81, 0
2, 27360, Note_on_c, 3, 78, 64
2, 27401, Note_on_c, 3, 78, 0
2, 27420, Note_on_c, 3, 75, 64
2, 27461, Note_on_c, 3, 75, 0
2, 27480, Note_on_c, 3, 78, 64
2, 27521, Note_on_c, 3, 78, 0
2, 27540, Note_on_c, 3, 81, 64
2, 27581, Note_on_c, 3, 81, 0
2, 27660, Note_on_c, 3, 81, 64
2, 27701, Note_on_c, 3, 81, 0
2, 27720, Note_on_c, 3, 78, 64
2, 27761, Note_on_c, 3, 78, 0
2, 27780, Note_on_c, 3, 73, 64
2, 27821, Note_on_c, 3, 73, 0
2, 27840, Note_on_c, 3, 78, 64
2, 27881, Note_on_c, 3, 78, 0
2, 27900, Note_on_c, 3, 81, 64
2, 27941, Note_on_c, 3, 81, 0
2, 28020, Note_on_c, 3, 81, 64
2, 28061, Note_on_c, 3, 81, 0
2, 28080, Note_on_c, 3, 78, 64
2, 28121, Note_on_c, 3, 78, 0
2, 28140, Note_on_c, 3, 75, 64
2, 28181, Note_on_c, 3, 75, 0
2, 28200, Note_on_c, 3, 77, 64
2, 28241, Note_on_c, 3, 77, 0
2, 28260, Note_on_c, 3, 80, 66
2, 28301, Note_on_c, 3, 80, 0
2, 28380, Note_on_c, 3, 80, 69
2, 28421, Note_on_c, 3, 80, 0
2, 28440, Note_on_c, 3, 77, 71
2, 28481, Note_on_c, 3, 77, 0
2, 28500, Note_on_c, 3, 73, 72
2, 28541, Note_on_c, 3, 73, 0
2, 28560, Note_on_c, 3, 78, 75
2, 28601, Note_on_c, 3, 78, 0
2, 28620, Note_on_c, 3, 73, 76
2, 28661, Note_on_c, 3, 73, 0
2, 28740, Note_on_c, 3, 73, 78
2, 28781, Note_on_c, 3, 73, 0
2, 28800, Note_on_c, 3, 78, 78
2, 28841, Note_on_c, 3, 78, 0
2, 28860, Note_on_c, 3, 73, 79
2, 28901, Note_on_c, 3, 73, 0
2, 28920, Note_on_c, 3, 69, 50
2, 28950, Note_on_c, 3, 69, 0
2, 28950, Note_on_c, 3, 68, 50
2, 28980, Note_on_c, 3, 68, 0
2, 28980, Note_on_c, 3, 69, 50
2, 29010, Note_on_c, 3, 69, 0
2, 29010, Note_on_c, 3, 71, 50
2, 29040, Note_on_c, 3, 71, 0
2, 29040, Note_on_c, 3, 73, 50
2, 29081, Note_on_c, 3, 73, 0
2, 29100, Note_on_c, 3, 69, 50
2, 29141, Note_on_c, 3, 69, 0
2, 29160, Note_on_c, 3, 73, 50
2, 29201, Note_on_c, 3, 73, 0
2, 29220, Note_on_c, 3, 69, 50
2, 29261, Note_on_c, 3, 69, 0
2, 29280, Note_on_c, 3, 66, 50
2, 29321, Note_on_c, 3, 66, 0
2, 29340, Note_on_c, 3, 69, 50
2, 29370, Note_on_c, 3, 69, 0
2, 29370, Note_on_c, 3, 68, 50
2, 29400, Note_on_c, 3, 68, 0
2, 29400, Note_on_c, 3, 66, 50
2, 29441, Note_on_c, 3, 66, 0
2, 29460, Note_on_c, 3, 69, 50
2, 29501, Note_on_c, 3, 69, 0
2, 29520, Note_on_c, 3, 71, 50
2, 29561, Note_on_c, 3, 71, 0
2, 29580, Note_on_c, 3, 74, 50
2, 29621, Note_on_c, 3, 74, 0
2, 29640, Note_on_c, 3, 68, 50
2, 29681, Note_on_c, 3, 68, 0
2, 29700, Note_on_c, 3, 71, 50
2, 29730, Note_on_c, 3, 71, 0
2, 29730, Note_on_c, 3, 69, 50
2, 29760, Note_on_c, 3, 69, 0
2, 29760, Note_on_c, 3, 68, 50
2, 29801, Note_on_c, 3, 68, 0
2, 29820, Note_on_c, 3, 71, 50
2, 29861, Note_on_c, 3, 71, 0
2, 29880, Note_on_c, 3, 73, 50
2, 29921, Note_on_c, 3, 73, 0
2, 29940, Note_on_c, 3, 76, 50
2, 29981, Note_on_c, 3, 76, 0
2, 30000, Note_on_c, 3, 70, 50
2, 30041, Note_on_c, 3, 70, 0
2, 30060, Note_on_c, 3, 73, 50
2, 30090, Note_on_c, 3, 73, 0
2, 30090, Note_on_c, 3, 71, 50
2, 30120, Note_on_c, 3, 71, 0
2, 30120, Note_on_c, 3, 70, 50
2, 30161, Note_on_c, 3, 70, 0
2, 30180, Note_on_c, 3, 73, 50
2, 30221, Note_on_c, 3, 73, 0
2, 30240, Note_on_c, 3, 66, 50
2, 30281, Note_on_c, 3, 66, 0
2, 30300, Note_on_c, 3, 78, 50
2, 30341, Note_on_c, 3, 78, 0
2, 30360, Note_on_c, 3, 76, 50
2, 30375, Note_on_c, 3, 76, 0
2, 30375, Note_on_c, 3, 74, 50
2, 30390, Note_on_c, 3, 74, 0
2, 30390, Note_on_c, 3, 76, 50
2, 30405, Note_on_c, 3, 76, 0
2, 30405, Note_on_c, 3, 74, 50
2, 30420, Note_on_c, 3, 74, 0
2, 30420, Note_on_c, 3, 73, 50
2, 30450, Note_on_c, 3, 73, 0
2, 30450, Note_on_c, 3, 74, 50
2, 30480, Note_on_c, 3, 74, 0
2, 30480, Note_on_c, 3, 71, 50
2, 30521, Note_on_c, 3, 71, 0
2, 30540, Note_on_c, 3, 66, 50
2, 30581, Note_on_c, 3, 66, 0
2, 30600, Note_on_c, 3, 62, 50
2, 30641, Note_on_c, 3, 62, 0
2, 30660, Note_on_c, 3, 66, 50
2, 30701, Note_on_c, 3, 66, 0
2, 30720, Note_on_c, 3, 71, 50
2, 30750, Note_on_c, 3, 71, 0
2, 30750, Note_on_c, 3, 70, 50
2, 30780, Note_on_c, 3, 70, 0
2, 30780, Note_on_c, 3, 71, 50
2, 30810, Note_on_c, 3, 71, 0
2, 30810, Note_on_c, 3, 73, 50
2, 30840, Note_on_c, 3, 73, 0
2, 30840, Note_on_c, 3, 74, 50
2, 30870, Note_on_c, 3, 74, 0
2, 30870, Note_on_c, 3, 73, 50
2, 30900, Note_on_c, 3, 73, 0
2, 30900, Note_on_c, 3, 71, 50
2, 30930, Note_on_c, 3, 71, 0
2, 30930, Note_on_c, 3, 73, 50
2, 30960, Note_on_c, 3, 73, 0
2, 30960, Note_on_c, 3, 74, 50
2, 30990, Note_on_c, 3, 74, 0
2, 30990, Note_on_c, 3, 73, 50
2, 31020, Note_on_c, 3, 73, 0
2, 31020, Note_on_c, 3, 71, 50
2, 31050, Note_on_c, 3, 71, 0
2, 31050, Note_on_c, 3, 73, 50
2, 31080, Note_on_c, 3, 73, 0
2, 31080, Note_on_c, 3, 74, 50
2, 31110, Note_on_c, 3, 74, 0
2, 31110, Note_on_c, 3, 73, 50
2, 31140, Note_on_c, 3, 73, 0
2, 31140, Note_on_c, 3, 71, 51
2, 31170, Note_on_c, 3, 71, 0
2, 31170, Note_on_c, 3, 73, 51
2, 31200, Note_on_c, 3, 73, 0
2, 31200, Note_on_c, 3, 74, 51
2, 31230, Note_on_c, 3, 74, 0
2, 31230, Note_on_c, 3, 76, 51
2, 31260, Note_on_c, 3, 76, 0
2, 31260, Note_on_c, 3, 78, 52
2, 31290, Note_on_c, 3, 78, 0
2, 31290, Note_on_c, 3, 76, 52
2, 31320, Note_on_c, 3, 76, 0
2, 31320, Note_on_c, 3, 79, 52
2, 31350, Note_on_c, 3, 79, 0
2, 31350, Note_on_c, 3, 78, 53
2, 31380, Note_on_c, 3, 78, 0
2, 31380, Note_on_c, 3, 76, 53
2, 31410, Note_on_c, 3, 76, 0
2, 31410, Note_on_c, 3, 74, 53
2, 31440, Note_on_c, 3, 74, 0
2, 31440, Note_on_c, 3, 76, 54
2, 31470, Note_on_c, 3, 76, 0
2, 31470, Note_on_c, 3, 74, 54
2, 31500, Note_on_c, 3, 74, 0
2, 31500, Note_on_c, 3, 73, 54
2, 31530, Note_on_c, 3, 73, 0
2, 31530, Note_on_c, 3, 74, 54
2, 31560, Note_on_c, 3, 74, 0
2, 31560, Note_on_c, 3, 76, 55
2, 31590, Note_on_c, 3, 76, 0
2, 31590, Note_on_c, 3, 78, 55
2, 31620, Note_on_c, 3, 78, 0
2, 31620, Note_on_c, 3, 79, 55
2, 31650, Note_on_c, 3, 79, 0
2, 31650, Note_on_c, 3, 78, 56
2, 31680, Note_on_c, 3, 78, 0
2, 31680, Note_on_c, 3, 81, 56
2, 31710, Note_on_c, 3, 81, 0
2, 31710, Note_on_c, 3, 79, 56
2, 31740, Note_on_c, 3, 79, 0
2, 31740, Note_on_c, 3, 78, 56
2, 31770, Note_on_c, 3, 78, 0
2, 31770, Note_on_c, 3, 76, 57
2, 31800, Note_on_c, 3, 76, 0
2, 31800, Note_on_c, 3, 78, 57
2, 31830, Note_on_c, 3, 78, 0
2, 31830, Note_on_c, 3, 76, 57
2, 31860, Note_on_c, 3, 76, 0
2, 31860, Note_on_c, 3, 75, 58
2, 31890, Note_on_c, 3, 75, 0
2, 31890, Note_on_c, 3, 76, 58
2, 31920, Note_on_c, 3, 76, 0
2, 31920, Note_on_c, 3, 78, 58
2, 31950, Note_on_c, 3, 78, 0
2, 31950, Note_on_c, 3, 80, 58
2, 31980, Note_on_c, 3, 80, 0
2, 31980, Note_on_c, 3, 81, 59
2, 32010, Note_on_c, 3, 81, 0
2, 32010, Note_on_c, 3, 80, 59
2, 32040, Note_on_c, 3, 80, 0
2, 32040, Note_on_c, 3, 83, 59
2, 32070, Note_on_c, 3, 83, 0
2, 32070, Note_on_c, 3, 81, 60
2, 32100, Note_on_c, 3, 81, 0
2, 32100, Note_on_c, 3, 80, 60
2, 32130, Note_on_c, 3, 80, 0
2, 32130, Note_on_c, 3, 78, 60
2, 32160, Note_on_c, 3, 78, 0
2, 32160, Note_on_c, 3, 76, 61
2, 32201, Note_on_c, 3, 76, 0
2, 32220, Note_on_c, 3, 71, 61
2, 32261, Note_on_c, 3, 71, 0
2, 32280, Note_on_c, 3, 76, 62
2, 32321, Note_on_c, 3, 76, 0
2, 32340, Note_on_c, 3, 71, 62
2, 32381, Note_on_c, 3, 71, 0
2, 32400, Note_on_c, 3, 68, 63
2, 32430, Note_on_c, 3, 68, 0
2, 32430, Note_on_c, 3, 69, 63
2, 32460, Note_on_c, 3, 69, 0
2, 32460, Note_on_c, 3, 71, 63
2, 32501, Note_on_c, 3, 71, 0
2, 32520, Note_on_c, 3, 71, 64
2, 32561, Note_on_c, 3, 71, 0
2, 32580, Note_on_c, 3, 71, 64
2, 32621, Note_on_c, 3, 71, 0
2, 32640, Note_on_c, 3, 76, 64
2, 32681, Note_on_c, 3, 76, 0
2, 32700, Note_on_c, 3, 71, 64
2, 32741, Note_on_c, 3, 71, 0
2, 32760, Note_on_c, 3, 68, 64
2, 32790, Note_on_c, 3, 68, 0
2, 32790, Note_on_c, 3, 69, 64
2, 32820, Note_on_c, 3, 69, 0
2, 32820, Note_on_c, 3, 71, 64
2, 32910, Note_on_c, 3, 71, 0
2, 32910, Note_on_c, 3, 69, 64
2, 32940, Note_on_c, 3, 69, 0
2, 32940, Note_on_c, 3, 68, 64
2, 32970, Note_on_c, 3, 68, 0
2, 32970, Note_on_c, 3, 69, 64
2, 33000, Note_on_c, 3, 69, 0
2, 33000, Note_on_c, 3, 71, 64
2, 33030, Note_on_c, 3, 71, 0
2, 33030, Note_on_c, 3, 76, 64
2, 33060, Note_on_c, 3, 76, 0
2, 33060, Note_on_c, 3, 74, 64
2, 33090, Note_on_c, 3, 74, 0
2, 33090, Note_on_c, 3, 76, 64
2, 33120, Note_on_c, 3, 76, 0
2, 33120, Note_on_c, 3, 73, 64
2, 33270, Note_on_c, 3, 73, 0
2, 33270, Note_on_c, 3, 69, 64
2, 33300, Note_on_c, 3, 69, 0
2, 33300, Note_on_c, 3, 74, 64
2, 33330, Note_on_c, 3, 74, 0
2, 33330, Note_on_c, 3, 76, 64
2, 33360, Note_on_c, 3, 76, 0
2, 33360, Note_on_c, 3, 78, 64
2, 33390, Note_on_c, 3, 78, 0
2, 33390, Note_on_c, 3, 79, 64
2, 33420, Note_on_c, 3, 79, 0
2, 33420, Note_on_c, 3, 76, 64
2, 33450, Note_on_c, 3, 76, 0
2, 33450, Note_on_c, 3, 78, 64
2, 33480, Note_on_c, 3, 78, 0
2, 33480, Note_on_c, 3, 74, 64
2, 33630, Note_on_c, 3, 74, 0
2, 33630, Note_on_c, 3, 73, 64
2, 33660, Note_on_c, 3, 73, 0
2, 33660, Note_on_c, 3, 71, 64
2, 33690, Note_on_c, 3, 71, 0
2, 33690, Note_on_c, 3, 73, 64
2, 33720, Note_on_c, 3, 73, 0
2, 33720, Note_on_c, 3, 74, 64
2, 33750, Note_on_c, 3, 74, 0
2, 33750, Note_on_c, 3, 73, 64
2, 33780, Note_on_c, 3, 73, 0
2, 33780, Note_on_c, 3, 71, 64
2, 33810, Note_on_c, 3, 71, 0
2, 33810, Note_on_c, 3, 69, 64
2, 33840, Note_on_c, 3, 69, 0
2, 33840, Note_on_c, 3, 71, 64
2, 33870, Note_on_c, 3, 71, 0
2, 33870, Note_on_c, 3, 73, 64
2, 33900, Note_on_c, 3, 73, 0
2, 33900, Note_on_c, 3, 69, 64
2, 33930, Note_on_c, 3, 69, 0
2, 33930, Note_on_c, 3, 71, 64
2, 33960, Note_on_c, 3, 71, 0
2, 33960, Note_on_c, 3, 69, 64
2, 34001, Note_on_c, 3, 69, 0
2, 34020, Note_on_c, 3, 76, 64
2, 34061, Note_on_c, 3, 76, 0
2, 34080, Note_on_c, 3, 81, 64
2, 34121, Note_on_c, 3, 81, 0
2, 34140, Note_on_c, 3, 76, 64
2, 34181, Note_on_c, 3, 76, 0
2, 34200, Note_on_c, 3, 73, 64
2, 34230, Note_on_c, 3, 73, 0
2, 34230, Note_on_c, 3, 74, 64
2, 34260, Note_on_c, 3, 74, 0
2, 34260, Note_on_c, 3, 76, 64
2, 34301, Note_on_c, 3, 76, 0
2, 34320, Note_on_c, 3, 76, 64
2, 34440, Note_on_c, 3, 76, 0
2, 34500, Note_on_c, 3, 64, 64
2, 34541, Note_on_c, 3, 64, 0
2, 34560, Note_on_c, 3, 69, 64
2, 34710, Note_on_c, 3, 69, 0
2, 34710, Note_on_c, 3, 67, 64
2, 34740, Note_on_c, 3, 67, 0
2, 34740, Note_on_c, 3, 66, 64
2, 34770, Note_on_c, 3, 66, 0
2, 34770, Note_on_c, 3, 67, 64
2, 34800, Note_on_c, 3, 67, 0
2, 34800, Note_on_c, 3, 69, 64
2, 34830, Note_on_c, 3, 69, 0
2, 34830, Note_on_c, 3, 71, 64
2, 34860, Note_on_c, 3, 71, 0
2, 34860, Note_on_c, 3, 67, 64
2, 34890, Note_on_c, 3, 67, 0
2, 34890, Note_on_c, 3, 69, 64
2, 34920, Note_on_c, 3, 69, 0
2, 34920, Note_on_c, 3, 66, 64
2, 34950, Note_on_c, 3, 66, 0
2, 34950, Note_on_c, 3, 67, 64
2, 34980, Note_on_c, 3, 67, 0
2, 34980, Note_on_c, 3, 69, 64
2, 35010, Note_on_c, 3, 69, 0
2, 35010, Note_on_c, 3, 66, 64
2, 35040, Note_on_c, 3, 66, 0
2, 35040, Note_on_c, 3, 71, 64
2, 35070, Note_on_c, 3, 71, 0
2, 35070, Note_on_c, 3, 69, 64
2, 35100, Note_on_c, 3, 69, 0
2, 35100, Note_on_c, 3, 67, 64
2, 35130, Note_on_c, 3, 67, 0
2, 35130, Note_on_c, 3, 69, 64
2, 35160, Note_on_c, 3, 69, 0
2, 35160, Note_on_c, 3, 71, 64
2, 35190, Note_on_c, 3, 71, 0
2, 35190, Note_on_c, 3, 73, 64
2, 35220, Note_on_c, 3, 73, 0
2, 35220, Note_on_c, 3, 69, 64
2, 35250, Note_on_c, 3, 69, 0
2, 35250, Note_on_c, 3, 71, 64
2, 35280, Note_on_c, 3, 71, 0
2, 35280, Note_on_c, 3, 67, 64
2, 35430, Note_on_c, 3, 67, 0
2, 35430, Note_on_c, 3, 66, 64
2, 35460, Note_on_c, 3, 66, 0
2, 35460, Note_on_c, 3, 64, 64
2, 35490, Note_on_c, 3, 64, 0
2, 35490, Note_on_c, 3, 66, 64
2, 35520, Note_on_c, 3, 66, 0
2, 35520, Note_on_c, 3, 67, 64
2, 35550, Note_on_c, 3, 67, 0
2, 35550, Note_on_c, 3, 66, 64
2, 35580, Note_on_c, 3, 66, 0
2, 35580, Note_on_c, 3, 64, 64
2, 35610, Note_on_c, 3, 64, 0
2, 35610, Note_on_c, 3, 62, 64
2, 35640, Note_on_c, 3, 62, 0
2, 35640, Note_on_c, 3, 64, 64
2, 35681, Note_on_c, 3, 64, 0
2, 35700, Note_on_c, 3, 74, 64
2, 35730, Note_on_c, 3, 74, 0
2, 35730, Note_on_c, 3, 73, 64
2, 35760, Note_on_c, 3, 73, 0
2, 35760, Note_on_c, 3, 74, 64
2, 35801, Note_on_c, 3, 74, 0
2, 35820, Note_on_c, 3, 69, 64
2, 35861, Note_on_c, 3, 69, 0
2, 35880, Note_on_c, 3, 74, 64
2, 35921, Note_on_c, 3, 74, 0
2, 35940, Note_on_c, 3, 69, 64
2, 35981, Note_on_c, 3, 69, 0
2, 36000, Note_on_c, 3, 66, 64
2, 36030, Note_on_c, 3, 66, 0
2, 36030, Note_on_c, 3, 67, 64
2, 36060, Note_on_c, 3, 67, 0
2, 36060, Note_on_c, 3, 69, 64
2, 36150, Note_on_c, 3, 69, 0
2, 36150, Note_on_c, 3, 67, 64
2, 36180, Note_on_c, 3, 67, 0
2, 36180, Note_on_c, 3, 66, 64
2, 36210, Note_on_c, 3, 66, 0
2, 36210, Note_on_c, 3, 64, 64
2, 36240, Note_on_c, 3, 64, 0
2, 36240, Note_on_c, 3, 62, 64
2, 36281, Note_on_c, 3, 62, 0
2, 36300, Note_on_c, 3, 69, 64
2, 36341, Note_on_c, 3, 69, 0
2, 36360, Note_on_c, 3, 69, 65
2, 36521, Note_on_c, 3, 69, 0
2, 36540, Note_on_c, 3, 74, 65
2, 36570, Note_on_c, 3, 74, 0
2, 36570, Note_on_c, 3, 73, 65
2, 36600, Note_on_c, 3, 73, 0
2, 36600, Note_on_c, 3, 74, 65
2, 36641, Note_on_c, 3, 74, 0
2, 36660, Note_on_c, 3, 72, 65
2, 36701, Note_on_c, 3, 72, 0
2, 36720, Note_on_c, 3, 71, 65
2, 36881, Note_on_c, 3, 71, 0
2, 36900, Note_on_c, 3, 76, 66
2, 36930, Note_on_c, 3, 76, 0
2, 36930, Note_on_c, 3, 75, 66
2, 36960, Note_on_c, 3, 75, 0
2, 36960, Note_on_c, 3, 76, 66
2, 37001, Note_on_c, 3, 76, 0
2, 37020, Note_on_c, 3, 74, 66
2, 37061, Note_on_c, 3, 74, 0
2, 37080, Note_on_c, 3, 72, 66
2, 37230, Note_on_c, 3, 72, 0
2, 37230, Note_on_c, 3, 71, 67
2, 37260, Note_on_c, 3, 71, 0
2, 37260, Note_on_c, 3, 69, 67
2, 37290, Note_on_c, 3, 69, 0
2, 37290, Note_on_c, 3, 71, 67
2, 37320, Note_on_c, 3, 71, 0
2, 37320, Note_on_c, 3, 72, 67
2, 37350, Note_on_c, 3, 72, 0
2, 37350, Note_on_c, 3, 71, 67
2, 37380, Note_on_c, 3, 71, 0
2, 37380, Note_on_c, 3, 69, 67
2, 37410, Note_on_c, 3, 69, 0
2, 37410, Note_on_c, 3, 67, 67
2, 37440, Note_on_c, 3, 67, 0
2, 37440, Note_on_c, 3, 66, 67
2, 37470, Note_on_c, 3, 66, 0
2, 37470, Note_on_c, 3, 69, 67
2, 37500, Note_on_c, 3, 69, 0
2, 37500, Note_on_c, 3, 67, 67
2, 37530, Note_on_c, 3, 67, 0
2, 37530, Note_on_c, 3, 66, 67
2, 37560, Note_on_c, 3, 66, 0
2, 37560, Note_on_c, 3, 67, 67
2, 37601, Note_on_c, 3, 67, 0
2, 37620, Note_on_c, 3, 79, 68
2, 37710, Note_on_c, 3, 79, 0
2, 37710, Note_on_c, 3, 78, 68
2, 37740, Note_on_c, 3, 78, 0
2, 37740, Note_on_c, 3, 76, 68
2, 37770, Note_on_c, 3, 76, 0
2, 37770, Note_on_c, 3, 74, 68
2, 37800, Note_on_c, 3, 74, 0
2, 37800, Note_on_c, 3, 76, 68
2, 37830, Note_on_c, 3, 76, 0
2, 37830, Note_on_c, 3, 74, 68
2, 37860, Note_on_c, 3, 74, 0
2, 37860, Note_on_c, 3, 73, 68
2, 37890, Note_on_c, 3, 73, 0
2, 37890, Note_on_c, 3, 71, 68
2, 37920, Note_on_c, 3, 71, 0
2, 37920, Note_on_c, 3, 73, 68
2, 38321, Note_on_c, 3, 73, 0
2, 38340, Note_on_c, 3, 78, 69
2, 38430, Note_on_c, 3, 78, 0
2, 38430, Note_on_c, 3, 76, 70
2, 38460, Note_on_c, 3, 76, 0
2, 38460, Note_on_c, 3, 74, 70
2, 38490, Note_on_c, 3, 74, 0
2, 38490, Note_on_c, 3, 73, 70
2, 38520, Note_on_c, 3, 73, 0
2, 38520, Note_on_c, 3, 74, 70
2, 38550, Note_on_c, 3, 74, 0
2, 38550, Note_on_c, 3, 73, 70
2, 38580, Note_on_c, 3, 73, 0
2, 38580, Note_on_c, 3, 71, 70
2, 38610, Note_on_c, 3, 71, 0
2, 38610, Note_on_c, 3, 69, 70
2, 38640, Note_on_c, 3, 69, 0
2, 38640, Note_on_c, 3, 71, 70
2, 39041, Note_on_c, 3, 71, 0
2, 39060, Note_on_c, 3, 64, 74
2, 39090, Note_on_c, 3, 64, 0
2, 39090, Note_on_c, 3, 66, 74
2, 39120, Note_on_c, 3, 66, 0
2, 39120, Note_on_c, 3, 67, 74
2, 39150, Note_on_c, 3, 67, 0
2, 39150, Note_on_c, 3, 69, 75
2, 39180, Note_on_c, 3, 69, 0
2, 39180, Note_on_c, 3, 71, 75
2, 39210, Note_on_c, 3, 71, 0
2, 39210, Note_on_c, 3, 73, 75
2, 39240, Note_on_c, 3, 73, 0
2, 39240, Note_on_c, 3, 74, 76
2, 39270, Note_on_c, 3, 74, 0
2, 39270, Note_on_c, 3, 73, 76
2, 39300, Note_on_c, 3, 73, 0
2, 39300, Note_on_c, 3, 71, 76
2, 39330, Note_on_c, 3, 71, 0
2, 39330, Note_on_c, 3, 73, 76
2, 39360, Note_on_c, 3, 73, 0
2, 39360, Note_on_c, 3, 73, 77
2, 39390, Note_on_c, 3, 73, 0
2, 39390, Note_on_c, 3, 71, 77
2, 39420, Note_on_c, 3, 71, 0
2, 39420, Note_on_c, 3, 69, 77
2, 39450, Note_on_c, 3, 69, 0
2, 39450, Note_on_c, 3, 71, 78
2, 39480, Note_on_c, 3, 71, 0
2, 39480, Note_on_c, 3, 73, 78
2, 39510, Note_on_c, 3, 73, 0
2, 39510, Note_on_c, 3, 74, 78
2, 39540, Note_on_c, 3, 74, 0
2, 39540, Note_on_c, 3, 76, 78
2, 39570, Note_on_c, 3, 76, 0
2, 39570, Note_on_c, 3, 78, 79
2, 39600, Note_on_c, 3, 78, 0
2, 39600, Note_on_c, 3, 79, 79
2, 39630, Note_on_c, 3, 79, 0
2, 39630, Note_on_c, 3, 78, 79
2, 39660, Note_on_c, 3, 78, 0
2, 39660, Note_on_c, 3, 76, 79
2, 39690, Note_on_c, 3, 76, 0
2, 39690, Note_on_c, 3, 79, 80
2, 39720, Note_on_c, 3, 79, 0
2, 39720, Note_on_c, 3, 78, 75
2, 39840, Note_on_c, 3, 78, 0
2, 39900, Note_on_c, 3, 69, 75
2, 39941, Note_on_c, 3, 69, 0
2, 39960, Note_on_c, 3, 74, 75
2, 40001, Note_on_c, 3, 74, 0
2, 40020, Note_on_c, 3, 78, 75
2, 40061, Note_on_c, 3, 78, 0
2, 40080, Note_on_c, 3, 74, 75
2, 40121, Note_on_c, 3, 74, 0
2, 40140, Note_on_c, 3, 69, 75
2, 40181, Note_on_c, 3, 69, 0
2, 40260, Note_on_c, 3, 74, 75
2, 40301, Note_on_c, 3, 74, 0
2, 40320, Note_on_c, 3, 78, 75
2, 40361, Note_on_c, 3, 78, 0
2, 40380, Note_on_c, 3, 81, 75
2, 40421, Note_on_c, 3, 81, 0
2, 40440, Note_on_c, 3, 80, 75
2, 40481, Note_on_c, 3, 80, 0
2, 40500, Note_on_c, 3, 74, 76
2, 40541, Note_on_c, 3, 74, 0
2, 40620, Note_on_c, 3, 77, 77
2, 40661, Note_on_c, 3, 77, 0
2, 40680, Note_on_c, 3, 74, 77
2, 40721, Note_on_c, 3, 74, 0
2, 40740, Note_on_c, 3, 71, 78
2, 40781, Note_on_c, 3, 71, 0
2, 40800, Note_on_c, 3, 74, 78
2, 40841, Note_on_c, 3, 74, 0
2, 40860, Note_on_c, 3, 77, 79
2, 40901, Note_on_c, 3, 77, 0
2, 40980, Note_on_c, 3, 77, 80
2, 41021, Note_on_c, 3, 77, 0
2, 41040, Note_on_c, 3, 74, 81
2, 41081, Note_on_c, 3, 74, 0
2, 41100, Note_on_c, 3, 69, 81
2, 41141, Note_on_c, 3, 69, 0
2, 41160, Note_on_c, 3, 74, 82
2, 41201, Note_on_c, 3, 74, 0
2, 41220, Note_on_c, 3, 77, 82
2, 41261, Note_on_c, 3, 77, 0
2, 41340, Note_on_c, 3, 77, 83
2, 41381, Note_on_c, 3, 77, 0
2, 41400, Note_on_c, 3, 74, 84
2, 41441, Note_on_c, 3, 74, 0
2, 41460, Note_on_c, 3, 71, 84
2, 41501, Note_on_c, 3, 71, 0
2, 41520, Note_on_c, 3, 73, 85
2, 41561, Note_on_c, 3, 73, 0
2, 41580, Note_on_c, 3, 76, 82
2, 41621, Note_on_c, 3, 76, 0
2, 41700, Note_on_c, 3, 76, 77
2, 41741, Note_on_c, 3, 76, 0
2, 41760, Note_on_c, 3, 73, 75
2, 41801, Note_on_c, 3, 73, 0
2, 41820, Note_on_c, 3, 69, 72
2, 41861, Note_on_c, 3, 69, 0
2, 41880, Note_on_c, 3, 74, 70
2, 41921, Note_on_c, 3, 74, 0
2, 41940, Note_on_c, 3, 74, 71
2, 41970, Note_on_c, 3, 74, 0
2, 41970, Note_on_c, 3, 73, 71
2, 42000, Note_on_c, 3, 73, 0
2, 42000, Note_on_c, 3, 74, 71
2, 42281, Note_on_c, 3, 74, 0
2, 42300, Note_on_c, 3, 76, 74
2, 42330, Note_on_c, 3, 76, 0
2, 42330, Note_on_c, 3, 74, 74
2, 42360, Note_on_c, 3, 74, 0
2, 42360, Note_on_c, 3, 76, 74
2, 42641, Note_on_c, 3, 76, 0
2, 42660, Note_on_c, 3, 78, 77
2, 42690, Note_on_c, 3, 78, 0
2, 42690, Note_on_c, 3, 76, 77
2, 42720, Note_on_c, 3, 76, 0
2, 42720, Note_on_c, 3, 78, 77
2, 43001, Note_on_c, 3, 78, 0
2, 43020, Note_on_c, 3, 79, 80
2, 43050, Note_on_c, 3, 79, 0
2, 43050, Note_on_c, 3, 78, 80
2, 43080, Note_on_c, 3, 78, 0
2, 43080, Note_on_c, 3, 79, 80
2, 43361, Note_on_c, 3, 79, 0
2, 43380, Note_on_c, 3, 81, 83
2, 43410, Note_on_c, 3, 81, 0
2, 43410, Note_on_c, 3, 79, 83
2, 43440, Note_on_c, 3, 79, 0
2, 43440, Note_on_c, 3, 81, 83
2, 43721, Note_on_c, 3, 81, 0
2, 43740, Note_on_c, 3, 74, 81
2, 43770, Note_on_c, 3, 74, 0
2, 43770, Note_on_c, 3, 73, 81
2, 43800, Note_on_c, 3, 73, 0
2, 43800, Note_on_c, 3, 74, 81
2, 44081, Note_on_c, 3, 74, 0
2, 44100, Note_on_c, 3, 76, 84
2, 44130, Note_on_c, 3, 76, 0
2, 44130, Note_on_c, 3, 71, 84
2, 44160, Note_on_c, 3, 71, 0
2, 44160, Note_on_c, 3, 73, 84
2, 44441, Note_on_c, 3, 73, 0
2, 44460, Note_on_c, 3, 74, 87
2, 44490, Note_on_c, 3, 74, 0
2, 44490, Note_on_c, 3, 69, 88
2, 44520, Note_on_c, 3, 69, 0
2, 44520, Note_on_c, 3, 71, 88
2, 44790, Note_on_c, 3, 71, 0
2, 44790, Note_on_c, 3, 69, 90
2, 44820, Note_on_c, 3, 69, 0
2, 44820, Note_on_c, 3, 67, 91
2, 44850, Note_on_c, 3, 67, 0
2, 44850, Note_on_c, 3, 69, 91
2, 44880, Note_on_c, 3, 69, 0
2, 44880, Note_on_c, 3, 71, 91
2, 44910, Note_on_c, 3, 71, 0
2, 44910, Note_on_c, 3, 67, 91
2, 44940, Note_on_c, 3, 67, 0
2, 44940, Note_on_c, 3, 69, 92
2, 44970, Note_on_c, 3, 69, 0
2, 44970, Note_on_c, 3, 71, 92
2, 45000, Note_on_c, 3, 71, 0
2, 45000, Note_on_c, 3, 73, 92
2, 45030, Note_on_c, 3, 73, 0
2, 45030, Note_on_c, 3, 74, 93
2, 45060, Note_on_c, 3, 74, 0
2, 45060, Note_on_c, 3, 76, 93
2, 45161, Note_on_c, 3, 76, 0
2, 45180, Note_on_c, 3, 76, 94
2, 45210, Note_on_c, 3, 76, 0
2, 45210, Note_on_c, 3, 74, 94
2, 45240, Note_on_c, 3, 74, 0
2, 45240, Note_on_c, 3, 76, 94
2, 45281, Note_on_c, 3, 76, 0
2, 45300, Note_on_c, 3, 79, 95
2, 45341, Note_on_c, 3, 79, 0
2, 45360, Note_on_c, 3, 78, 96
2, 45401, Note_on_c, 3, 78, 0
2, 45420, Note_on_c, 3, 76, 96
2, 45461, Note_on_c, 3, 76, 0
2, 45480, Note_on_c, 3, 74, 97
2, 45521, Note_on_c, 3, 74, 0
2, 45540, Note_on_c, 3, 74, 97
2, 45581, Note_on_c, 3, 74, 0
2, 45600, Note_on_c, 3, 74, 98
2, 45641, Note_on_c, 3, 74, 0
2, 45660, Note_on_c, 3, 74, 98
2, 45701, Note_on_c, 3, 74, 0
2, 45720, Note_on_c, 3, 74, 99
2, 45761, Note_on_c, 3, 74, 0
2, 45780, Note_on_c, 3, 73, 99
2, 45821, Note_on_c, 3, 73, 0
2, 45840, Note_on_c, 3, 74, 100
2, 46200, Note_on_c, 3, 74, 0
2, 46560, End_track
3, 0, Start_track
3, 0, MIDI_port, 0
3, 0, Title_t, "Trumpet"
3, 0, Program_c, 0, 56
3, 120, Control_c, 0, 7, 100
3, 120, Control_c, 0, 7, 100
3, 120, Control_c, 0, 7, 100
3, 120, Note_on_c, 0, 66, 64
3, 240, Note_on_c, 0, 66, 0
3, 540, Note_on_c, 0, 78, 64
3, 540, Note_on_c, 0, 74, 64
3, 540, Note_on_c, 0, 69, 64
3, 545, Note_on_c, 0, 78, 0
3, 563, Note_on_c, 0, 69, 0
3, 563, Note_on_c, 0, 74, 0
3, 600, Note_on_c, 0, 81, 64
3, 600, Note_on_c, 0, 78, 64
3, 600, Note_on_c, 0, 69, 64
3, 623, Note_on_c, 0, 69, 0
3, 623, Note_on_c, 0, 78, 0
3, 623, Note_on_c, 0, 81, 0
3, 660, Note_on_c, 0, 86, 64
3, 660, Note_on_c, 0, 81, 64
3, 660, Note_on_c, 0, 78, 64
3, 683, Note_on_c, 0, 78, 0
3, 683, Note_on_c, 0, 81, 0
3, 683, Note_on_c, 0, 86, 0
3, 720, Note_on_c, 0, 81, 64
3, 720, Note_on_c, 0, 78, 64
3, 720, Note_on_c, 0, 74, 64
3, 743, Note_on_c, 0, 74, 0
3, 743, Note_on_c, 0, 78, 0
3, 743, Note_on_c, 0, 81, 0
3, 780, Note_on_c, 0, 79, 64
3, 780, Note_on_c, 0, 76, 64
3, 780, Note_on_c, 0, 69, 64
3, 803, Note_on_c, 0, 69, 0
3, 810, Note_on_c, 0, 76, 0
3, 810, Note_on_c, 0, 79, 0
3, 810, Note_on_c, 0, 78, 64
3, 810, Note_on_c, 0, 74, 64
3, 840, Note_on_c, 0, 74, 0
3, 840, Note_on_c, 0, 78, 0
3, 840, Note_on_c, 0, 79, 64
3, 840, Note_on_c, 0, 76, 64
3, 840, Note_on_c, 0, 69, 64
3, 960, Note_on_c, 0, 69, 0
3, 960, Note_on_c, 0, 76, 0
3, 960, Note_on_c, 0, 79, 0
3, 1260, Note_on_c, 0, 79, 64
3, 1260, Note_on_c, 0, 76, 64
3, 1260, Note_on_c, 0, 69, 64
3, 1283, Note_on_c, 0, 69, 0
3, 1283, Note_on_c, 0, 76, 0
3, 1283, Note_on_c, 0, 79, 0
3, 1320, Note_on_c, 0, 85, 64
3, 1320, Note_on_c, 0, 79, 64
3, 1320, Note_on_c, 0, 76, 64
3, 1343, Note_on_c, 0, 76, 0
3, 1343, Note_on_c, 0, 79, 0
3, 1343, Note_on_c, 0, 85, 0
3, 1380, Note_on_c, 0, 86, 64
3, 1380, Note_on_c, 0, 85, 64
3, 1380, Note_on_c, 0, 79, 64
3, 1403, Note_on_c, 0, 79, 0
3, 1403, Note_on_c, 0, 85, 0
3, 1403, Note_on_c, 0, 86, 0
3, 1440, Note_on_c, 0, 79, 64
3, 1440, Note_on_c, 0, 76, 64
3, 1440, Note_on_c, 0, 81, 64
3, 1463, Note_on_c, 0, 81, 0
3, 1463, Note_on_c, 0, 76, 0
3, 1463, Note_on_c, 0, 79, 0
3, 1500, Note_on_c, 0, 78, 64
3, 1500, Note_on_c, 0, 74, 64
3, 1500, Note_on_c, 0, 69, 64
3, 1523, Note_on_c, 0, 69, 0
3, 1530, Note_on_c, 0, 74, 0
3, 1530, Note_on_c, 0, 78, 0
3, 1530, Note_on_c, 0, 76, 64
3, 1530, Note_on_c, 0, 73, 64
3, 1560, Note_on_c, 0, 73, 0
3, 1560, Note_on_c, 0, 76, 0
3, 1560, Note_on_c, 0, 78, 64
3, 1560, Note_on_c, 0, 74, 64
3, 1560, Note_on_c, 0, 69, 64
3, 1680, Note_on_c, 0, 69, 0
3, 1920, Note_on_c, 0, 62, 64
3, 2040, Note_on_c, 0, 62, 0
3, 2280, Note_on_c, 0, 69, 64
3, 2400, Note_on_c, 0, 69, 0
3, 2640, Note_on_c, 0, 78, 0
3, 2640, Note_on_c, 0, 76, 64
3, 3000, Note_on_c, 0, 74, 0
3, 3000, Note_on_c, 0, 69, 64
3, 3041, Note_on_c, 0, 69, 0
3, 3060, Note_on_c, 0, 76, 0
3, 3060, Note_on_c, 0, 69, 64
3, 3060, Note_on_c, 0, 69, 64
3, 3060, Note_on_c, 0, 69, 64
3, 3101, Note_on_c, 0, 69, 0
3, 3101, Note_on_c, 0, 69, 0
3, 3101, Note_on_c, 0, 69, 0
3, 3120, Note_on_c, 0, 69, 64
3, 3120, Note_on_c, 0, 69, 64
3, 3120, Note_on_c, 0, 69, 64
3, 3161, Note_on_c, 0, 69, 0
3, 3161, Note_on_c, 0, 69, 0
3, 3161, Note_on_c, 0, 69, 0
3, 3180, Note_on_c, 0, 69, 64
3, 3180, Note_on_c, 0, 69, 64
3, 3180, Note_on_c, 0, 69, 64
3, 3221, Note_on_c, 0, 69, 0
3, 3221, Note_on_c, 0, 69, 0
3, 3221, Note_on_c, 0, 69, 0
3, 3240, Note_on_c, 0, 69, 64
3, 3240, Note_on_c, 0, 69, 64
3, 3240, Note_on_c, 0, 69, 64
3, 3281, Note_on_c, 0, 69, 0
3, 3281, Note_on_c, 0, 69, 0
3, 3281, Note_on_c, 0, 69, 0
3, 3300, Note_on_c, 0, 69, 64
3, 3300, Note_on_c, 0, 69, 64
3, 3300, Note_on_c, 0, 69, 64
3, 3341, Note_on_c, 0, 69, 0
3, 3341, Note_on_c, 0, 69, 0
3, 3341, Note_on_c, 0, 69, 0
3, 3360, Note_on_c, 0, 69, 64
3, 3360, Note_on_c, 0, 69, 64
3, 3360, Note_on_c, 0, 69, 64
3, 3401, Note_on_c, 0, 69, 0
3, 3401, Note_on_c, 0, 69, 0
3, 3401, Note_on_c, 0, 69, 0
3, 3780, Note_on_c, 0, 76, 64
3, 3780, Note_on_c, 0, 76, 64
3, 3780, Note_on_c, 0, 76, 64
3, 3821, Note_on_c, 0, 76, 0
3, 3821, Note_on_c, 0, 76, 0
3, 3821, Note_on_c, 0, 76, 0
3, 3840, Note_on_c, 0, 76, 64
3, 3840, Note_on_c, 0, 76, 64
3, 3840, Note_on_c, 0, 76, 64
3, 3881, Note_on_c, 0, 76, 0
3, 3881, Note_on_c, 0, 76, 0
3, 3881, Note_on_c, 0, 76, 0
3, 3900, Note_on_c, 0, 76, 64
3, 3900, Note_on_c, 0, 76, 64
3, 3900, Note_on_c, 0, 76, 64
3, 3941, Note_on_c, 0, 76, 0
3, 3941, Note_on_c, 0, 76, 0
3, 3941, Note_on_c, 0, 76, 0
3, 3960, Note_on_c, 0, 76, 64
3, 3960, Note_on_c, 0, 76, 64
3, 3960, Note_on_c, 0, 76, 64
3, 4001, Note_on_c, 0, 76, 0
3, 4001, Note_on_c, 0, 76, 0
3, 4001, Note_on_c, 0, 76, 0
3, 4020, Note_on_c, 0, 76, 64
3, 4020, Note_on_c, 0, 76, 64
3, 4020, Note_on_c, 0, 76, 64
3, 4061, Note_on_c, 0, 76, 0
3, 4061, Note_on_c, 0, 76, 0
3, 4061, Note_on_c, 0, 76, 0
3, 4080, Note_on_c, 0, 76, 64
3, 4080, Note_on_c, 0, 76, 64
3, 4080, Note_on_c, 0, 76, 64
3, 4121, Note_on_c, 0, 76, 0
3, 4121, Note_on_c, 0, 76, 0
3, 4121, Note_on_c, 0, 76, 0
3, 8760, Note_on_c, 0, 76, 64
3, 8760, Note_on_c, 0, 69, 64
3, 8820, Note_on_c, 0, 76, 64
3, 8861, Note_on_c, 0, 76, 0
3, 8880, Note_on_c, 0, 69, 0
3, 8880, Note_on_c, 0, 76, 0
3, 8880, Note_on_c, 0, 81, 64
3, 8921, Note_on_c, 0, 81, 0
3, 8940, Note_on_c, 0, 85, 64
3, 8981, Note_on_c, 0, 85, 0
3, 9000, Note_on_c, 0, 81, 64
3, 9041, Note_on_c, 0, 81, 0
3, 9060, Note_on_c, 0, 76, 64
3, 9101, Note_on_c, 0, 76, 0
3, 9120, Note_on_c, 0, 81, 64
3, 9120, Note_on_c, 0, 76, 64
3, 9180, Note_on_c, 0, 81, 64
3, 9221, Note_on_c, 0, 81, 0
3, 9240, Note_on_c, 0, 76, 0
3, 9240, Note_on_c, 0, 81, 0
3, 9240, Note_on_c, 0, 85, 64
3, 9281, Note_on_c, 0, 85, 0
3, 9300, Note_on_c, 0, 88, 64
3, 9341, Note_on_c, 0, 88, 0
3, 9360, Note_on_c, 0, 85, 64
3, 9401, Note_on_c, 0, 85, 0
3, 9420, Note_on_c, 0, 81, 64
3, 9461, Note_on_c, 0, 81, 0
3, 9540, Note_on_c, 0, 84, 64
3, 9581, Note_on_c, 0, 84, 0
3, 9600, Note_on_c, 0, 81, 64
3, 9641, Note_on_c, 0, 81, 0
3, 9660, Note_on_c, 0, 78, 64
3, 9701, Note_on_c, 0, 78, 0
3, 9720, Note_on_c, 0, 81, 64
3, 9761, Note_on_c, 0, 81, 0
3, 9780, Note_on_c, 0, 84, 64
3, 9821, Note_on_c, 0, 84, 0
3, 9840, Note_on_c, 0, 76, 64
3, 9840, Note_on_c, 0, 69, 64
3, 9900, Note_on_c, 0, 84, 64
3, 9941, Note_on_c, 0, 84, 0
3, 9960, Note_on_c, 0, 69, 0
3, 9960, Note_on_c, 0, 76, 0
3, 9960, Note_on_c, 0, 81, 64
3, 10001, Note_on_c, 0, 81, 0
3, 10020, Note_on_c, 0, 76, 64
3, 10061, Note_on_c, 0, 76, 0
3, 10080, Note_on_c, 0, 81, 64
3, 10121, Note_on_c, 0, 81, 0
3, 10140, Note_on_c, 0, 84, 64
3, 10181, Note_on_c, 0, 84, 0
3, 10260, Note_on_c, 0, 84, 64
3, 10301, Note_on_c, 0, 84, 0
3, 10320, Note_on_c, 0, 81, 64
3, 10361, Note_on_c, 0, 81, 0
3, 10380, Note_on_c, 0, 78, 64
3, 10421, Note_on_c, 0, 78, 0
3, 10440, Note_on_c, 0, 81, 64
3, 10481, Note_on_c, 0, 81, 0
3, 10500, Note_on_c, 0, 83, 64
3, 10541, Note_on_c, 0, 83, 0
3, 10560, Note_on_c, 0, 80, 64
3, 10560, Note_on_c, 0, 76, 64
3, 10620, Note_on_c, 0, 83, 64
3, 10661, Note_on_c, 0, 83, 0
3, 10680, Note_on_c, 0, 76, 0
3, 10680, Note_on_c, 0, 80, 0
3, 10680, Note_on_c, 0, 80, 64
3, 10721, Note_on_c, 0, 80, 0
3, 10740, Note_on_c, 0, 76, 64
3, 10781, Note_on_c, 0, 76, 0
3, 10800, Note_on_c, 0, 80, 64
3, 10841, Note_on_c, 0, 80, 0
3, 10860, Note_on_c, 0, 83, 64
3, 10901, Note_on_c, 0, 83, 0
3, 10920, Note_on_c, 0, 81, 64
3, 10920, Note_on_c, 0, 76, 64
3, 10920, Note_on_c, 0, 69, 64
3, 10961, Note_on_c, 0, 81, 0
3, 10980, Note_on_c, 0, 85, 64
3, 11010, Note_on_c, 0, 85, 0
3, 11010, Note_on_c, 0, 83, 64
3, 11040, Note_on_c, 0, 83, 0
3, 11040, Note_on_c, 0, 69, 0
3, 11040, Note_on_c, 0, 76, 0
3, 11040, Note_on_c, 0, 85, 64
3, 11100, Note_on_c, 0, 81, 64
3, 11100, Note_on_c, 0, 76, 64
3, 11141, Note_on_c, 0, 76, 0
3, 11141, Note_on_c, 0, 81, 0
3, 11160, Note_on_c, 0, 81, 64
3, 11160, Note_on_c, 0, 76, 64
3, 11201, Note_on_c, 0, 76, 0
3, 11201, Note_on_c, 0, 81, 0
3, 11220, Note_on_c, 0, 81, 64
3, 11220, Note_on_c, 0, 76, 64
3, 11261, Note_on_c, 0, 76, 0
3, 11261, Note_on_c, 0, 81, 0
3, 11280, Note_on_c, 0, 78, 64
3, 11280, Note_on_c, 0, 69, 64
3, 11340, Note_on_c, 0, 85, 0
3, 11340, Note_on_c, 0, 83, 64
3, 11370, Note_on_c, 0, 83, 0
3, 11370, Note_on_c, 0, 81, 64
3, 11400, Note_on_c, 0, 81, 0
3, 11400, Note_on_c, 0, 69, 0
3, 11400, Note_on_c, 0, 78, 0
3, 11400, Note_on_c, 0, 83, 64
3, 11460, Note_on_c, 0, 74, 64
3, 11501, Note_on_c, 0, 74, 0
3, 11520, Note_on_c, 0, 76, 64
3, 11561, Note_on_c, 0, 76, 0
3, 11580, Note_on_c, 0, 78, 64
3, 11621, Note_on_c, 0, 78, 0
3, 11640, Note_on_c, 0, 76, 64
3, 11700, Note_on_c, 0, 83, 0
3, 11700, Note_on_c, 0, 81, 64
3, 11730, Note_on_c, 0, 81, 0
3, 11730, Note_on_c, 0, 80, 64
3, 11760, Note_on_c, 0, 80, 0
3, 11760, Note_on_c, 0, 76, 0
3, 11760, Note_on_c, 0, 81, 64
3, 11820, Note_on_c, 0, 69, 64
3, 11820, Note_on_c, 0, 69, 64
3, 11861, Note_on_c, 0, 69, 0
3, 11861, Note_on_c, 0, 69, 0
3, 11880, Note_on_c, 0, 74, 64
3, 11880, Note_on_c, 0, 69, 64
3, 11921, Note_on_c, 0, 69, 0
3, 11921, Note_on_c, 0, 74, 0
3, 11940, Note_on_c, 0, 76, 64
3, 11940, Note_on_c, 0, 69, 64
3, 11981, Note_on_c, 0, 69, 0
3, 11981, Note_on_c, 0, 76, 0
3, 12000, Note_on_c, 0, 74, 64
3, 12000, Note_on_c, 0, 66, 64
3, 12060, Note_on_c, 0, 81, 0
3, 12060, Note_on_c, 0, 83, 64
3, 12090, Note_on_c, 0, 83, 0
3, 12090, Note_on_c, 0, 85, 64
3, 12105, Note_on_c, 0, 85, 0
3, 12105, Note_on_c, 0, 86, 64
3, 12120, Note_on_c, 0, 86, 0
3, 12120, Note_on_c, 0, 66, 0
3, 12120, Note_on_c, 0, 74, 0
3, 12120, Note_on_c, 0, 86, 64
3, 12161, Note_on_c, 0, 86, 0
3, 12180, Note_on_c, 0, 83, 64
3, 12210, Note_on_c, 0, 83, 0
3, 12210, Note_on_c, 0, 85, 64
3, 12225, Note_on_c, 0, 85, 0
3, 12225, Note_on_c, 0, 86, 64
3, 12240, Note_on_c, 0, 86, 0
3, 12240, Note_on_c, 0, 86, 64
3, 12281, Note_on_c, 0, 86, 0
3, 12300, Note_on_c, 0, 83, 64
3, 12330, Note_on_c, 0, 83, 0
3, 12330, Note_on_c, 0, 85, 64
3, 12345, Note_on_c, 0, 85, 0
3, 12345, Note_on_c, 0, 86, 64
3, 12360, Note_on_c, 0, 86, 0
3, 12360, Note_on_c, 0, 86, 64
3, 12540, Note_on_c, 0, 86, 0
3, 12540, Note_on_c, 0, 86, 68
3, 12581, Note_on_c, 0, 86, 0
3, 12600, Note_on_c, 0, 85, 69
3, 12641, Note_on_c, 0, 85, 0
3, 12660, Note_on_c, 0, 83, 71
3, 12701, Note_on_c, 0, 83, 0
3, 12720, Note_on_c, 0, 81, 72
3, 12750, Note_on_c, 0, 81, 0
3, 12750, Note_on_c, 0, 80, 73
3, 12780, Note_on_c, 0, 80, 0
3, 12780, Note_on_c, 0, 81, 73
3, 12780, Note_on_c, 0, 76, 73
3, 12780, Note_on_c, 0, 69, 73
3, 12810, Note_on_c, 0, 69, 0
3, 12810, Note_on_c, 0, 76, 0
3, 12810, Note_on_c, 0, 81, 0
3, 12810, Note_on_c, 0, 83, 74
3, 12810, Note_on_c, 0, 76, 74
3, 12810, Note_on_c, 0, 69, 74
3, 12840, Note_on_c, 0, 69, 0
3, 12840, Note_on_c, 0, 76, 0
3, 12840, Note_on_c, 0, 83, 0
3, 12840, Note_on_c, 0, 85, 75
3, 12840, Note_on_c, 0, 76, 75
3, 12840, Note_on_c, 0, 69, 75
3, 12881, Note_on_c, 0, 69, 0
3, 12881, Note_on_c, 0, 76, 0
3, 12881, Note_on_c, 0, 85, 0
3, 12900, Note_on_c, 0, 81, 76
3, 12900, Note_on_c, 0, 85, 76
3, 12900, Note_on_c, 0, 69, 76
3, 12941, Note_on_c, 0, 69, 0
3, 12941, Note_on_c, 0, 85, 0
3, 12941, Note_on_c, 0, 81, 0
3, 12960, Note_on_c, 0, 76, 77
3, 12960, Note_on_c, 0, 86, 77
3, 12960, Note_on_c, 0, 76, 77
3, 13001, Note_on_c, 0, 76, 0
3, 13001, Note_on_c, 0, 86, 0
3, 13001, Note_on_c, 0, 76, 0
3, 13020, Note_on_c, 0, 80, 79
3, 13020, Note_on_c, 0, 83, 79
3, 13020, Note_on_c, 0, 76, 79
3, 13061, Note_on_c, 0, 76, 0
3, 13061, Note_on_c, 0, 83, 0
3, 13061, Note_on_c, 0, 80, 0
3, 13080, Note_on_c, 0, 81, 80
3, 13080, Note_on_c, 0, 85, 80
3, 13080, Note_on_c, 0, 76, 80
3, 13200, Note_on_c, 0, 76, 0
3, 13200, Note_on_c, 0, 85, 0
3, 13200, Note_on_c, 0, 81, 0
3, 24960, Note_on_c, 0, 85, 64
3, 24960, Note_on_c, 0, 81, 64
3, 24960, Note_on_c, 0, 76, 64
3, 25080, Note_on_c, 0, 76, 0
3, 25320, Note_on_c, 0, 76, 64
3, 25440, Note_on_c, 0, 76, 0
3, 25680, Note_on_c, 0, 85, 0
3, 25680, Note_on_c, 0, 83, 64
3, 26040, Note_on_c, 0, 83, 0
3, 26040, Note_on_c, 0, 81, 0
3, 26040, Note_on_c, 0, 83, 64
3, 26040, Note_on_c, 0, 80, 64
3, 26400, Note_on_c, 0, 80, 0
3, 26400, Note_on_c, 0, 83, 0
3, 26400, Note_on_c, 0, 81, 64
3, 26400, Note_on_c, 0, 78, 64
3, 26430, Note_on_c, 0, 78, 0
3, 26430, Note_on_c, 0, 81, 0
3, 26430, Note_on_c, 0, 80, 64
3, 26430, Note_on_c, 0, 76, 64
3, 26460, Note_on_c, 0, 76, 0
3, 26460, Note_on_c, 0, 80, 0
3, 26460, Note_on_c, 0, 81, 64
3, 26460, Note_on_c, 0, 78, 64
3, 26490, Note_on_c, 0, 78, 0
3, 26490, Note_on_c, 0, 81, 0
3, 26490, Note_on_c, 0, 83, 64
3, 26490, Note_on_c, 0, 80, 64
3, 26520, Note_on_c, 0, 80, 0
3, 26520, Note_on_c, 0, 83, 0
3, 26520, Note_on_c, 0, 85, 64
3, 26520, Note_on_c, 0, 81, 64
3, 26561, Note_on_c, 0, 81, 0
3, 26561, Note_on_c, 0, 85, 0
3, 26760, Note_on_c, 0, 81, 64
3, 26760, Note_on_c, 0, 78, 64
3, 26790, Note_on_c, 0, 78, 0
3, 26790, Note_on_c, 0, 81, 0
3, 26790, Note_on_c, 0, 80, 64
3, 26790, Note_on_c, 0, 76, 64
3, 26820, Note_on_c, 0, 76, 0
3, 26820, Note_on_c, 0, 80, 0
3, 26820, Note_on_c, 0, 81, 64
3, 26820, Note_on_c, 0, 78, 64
3, 26850, Note_on_c, 0, 78, 0
3, 26850, Note_on_c, 0, 81, 0
3, 26850, Note_on_c, 0, 83, 64
3, 26850, Note_on_c, 0, 80, 64
3, 26880, Note_on_c, 0, 80, 0
3, 26880, Note_on_c, 0, 83, 0
3, 26880, Note_on_c, 0, 85, 64
3, 26880, Note_on_c, 0, 81, 64
3, 26921, Note_on_c, 0, 81, 0
3, 26921, Note_on_c, 0, 85, 0
3, 27120, Note_on_c, 0, 81, 64
3, 27120, Note_on_c, 0, 78, 64
3, 27150, Note_on_c, 0, 78, 0
3, 27150, Note_on_c, 0, 81, 0
3, 27150, Note_on_c, 0, 80, 64
3, 27150, Note_on_c, 0, 76, 64
3, 27180, Note_on_c, 0, 76, 0
3, 27180, Note_on_c, 0, 80, 0
3, 27180, Note_on_c, 0, 81, 64
3, 27180, Note_on_c, 0, 78, 64
3, 27210, Note_on_c, 0, 78, 0
3, 27210, Note_on_c, 0, 81, 0
3, 27210, Note_on_c, 0, 80, 64
3, 27210, Note_on_c, 0, 76, 64
3, 27240, Note_on_c, 0, 76, 0
3, 27240, Note_on_c, 0, 80, 0
3, 27240, Note_on_c, 0, 81, 64
3, 27240, Note_on_c, 0, 78, 64
3, 27281, Note_on_c, 0, 78, 0
3, 27281, Note_on_c, 0, 81, 0
3, 27480, Note_on_c, 0, 81, 64
3, 27480, Note_on_c, 0, 78, 64
3, 27510, Note_on_c, 0, 78, 0
3, 27510, Note_on_c, 0, 81, 0
3, 27510, Note_on_c, 0, 80, 64
3, 27510, Note_on_c, 0, 76, 64
3, 27540, Note_on_c, 0, 76, 0
3, 27540, Note_on_c, 0, 80, 0
3, 27540, Note_on_c, 0, 81, 64
3, 27540, Note_on_c, 0, 78, 64
3, 27570, Note_on_c, 0, 78, 0
3, 27570, Note_on_c, 0, 81, 0
3, 27570, Note_on_c, 0, 80, 64
3, 27570, Note_on_c, 0, 76, 64
3, 27600, Note_on_c, 0, 76, 0
3, 27600, Note_on_c, 0, 80, 0
3, 27600, Note_on_c, 0, 81, 64
3, 27600, Note_on_c, 0, 78, 64
3, 27641, Note_on_c, 0, 78, 0
3, 27641, Note_on_c, 0, 81, 0
3, 27840, Note_on_c, 0, 81, 64
3, 27840, Note_on_c, 0, 78, 64
3, 27870, Note_on_c, 0, 78, 0
3, 27870, Note_on_c, 0, 81, 0
3, 27870, Note_on_c, 0, 80, 64
3, 27870, Note_on_c, 0, 76, 64
3, 27900, Note_on_c, 0, 76, 0
3, 27900, Note_on_c, 0, 80, 0
3, 27900, Note_on_c, 0, 81, 64
3, 27900, Note_on_c, 0, 78, 64
3, 27930, Note_on_c, 0, 78, 0
3, 27930, Note_on_c, 0, 81, 0
3, 27930, Note_on_c, 0, 80, 64
3, 27930, Note_on_c, 0, 76, 64
3, 27960, Note_on_c, 0, 76, 0
3, 27960, Note_on_c, 0, 80, 0
3, 27960, Note_on_c, 0, 81, 64
3, 27960, Note_on_c, 0, 78, 64
3, 28001, Note_on_c, 0, 78, 0
3, 28001, Note_on_c, 0, 81, 0
3, 28200, Note_on_c, 0, 85, 64
3, 28200, Note_on_c, 0, 80, 64
3, 28230, Note_on_c, 0, 80, 0
3, 28230, Note_on_c, 0, 85, 0
3, 28230, Note_on_c, 0, 86, 65
3, 28230, Note_on_c, 0, 78, 65
3, 28260, Note_on_c, 0, 78, 0
3, 28260, Note_on_c, 0, 86, 0
3, 28260, Note_on_c, 0, 85, 66
3, 28260, Note_on_c, 0, 80, 66
3, 28290, Note_on_c, 0, 80, 0
3, 28290, Note_on_c, 0, 85, 0
3, 28290, Note_on_c, 0, 86, 67
3, 28290, Note_on_c, 0, 78, 67
3, 28320, Note_on_c, 0, 78, 0
3, 28320, Note_on_c, 0, 86, 0
3, 28320, Note_on_c, 0, 85, 67
3, 28320, Note_on_c, 0, 80, 67
3, 28361, Note_on_c, 0, 80, 0
3, 28361, Note_on_c, 0, 85, 0
3, 28560, Note_on_c, 0, 85, 75
3, 28560, Note_on_c, 0, 81, 75
3, 28590, Note_on_c, 0, 81, 0
3, 28590, Note_on_c, 0, 85, 0
3, 28590, Note_on_c, 0, 86, 75
3, 28590, Note_on_c, 0, 83, 75
3, 28620, Note_on_c, 0, 83, 0
3, 28620, Note_on_c, 0, 86, 0
3, 28620, Note_on_c, 0, 85, 76
3, 28620, Note_on_c, 0, 80, 76
3, 28650, Note_on_c, 0, 80, 0
3, 28650, Note_on_c, 0, 85, 0
3, 28650, Note_on_c, 0, 86, 76
3, 28650, Note_on_c, 0, 83, 76
3, 28680, Note_on_c, 0, 83, 0
3, 28680, Note_on_c, 0, 86, 0
3, 28680, Note_on_c, 0, 85, 77
3, 28680, Note_on_c, 0, 81, 77
3, 28721, Note_on_c, 0, 81, 0
3, 28721, Note_on_c, 0, 85, 0
3, 28920, Note_on_c, 0, 85, 64
3, 28920, Note_on_c, 0, 81, 64
3, 28950, Note_on_c, 0, 81, 0
3, 28950, Note_on_c, 0, 85, 0
3, 28950, Note_on_c, 0, 86, 64
3, 28950, Note_on_c, 0, 83, 64
3, 28980, Note_on_c, 0, 83, 0
3, 28980, Note_on_c, 0, 86, 0
3, 28980, Note_on_c, 0, 85, 64
3, 28980, Note_on_c, 0, 81, 64
3, 29010, Note_on_c, 0, 81, 0
3, 29010, Note_on_c, 0, 85, 0
3, 29010, Note_on_c, 0, 83, 64
3, 29010, Note_on_c, 0, 80, 64
3, 29040, Note_on_c, 0, 80, 0
3, 29040, Note_on_c, 0, 83, 0
3, 29040, Note_on_c, 0, 81, 64
3, 29040, Note_on_c, 0, 78, 64
3, 29070, Note_on_c, 0, 78, 0
3, 29081, Note_on_c, 0, 81, 0
3, 39720, Note_on_c, 0, 78, 75
3, 39720, Note_on_c, 0, 74, 75
3, 39720, Note_on_c, 0, 69, 75
3, 39840, Note_on_c, 0, 69, 0
3, 39840, Note_on_c, 0, 74, 0
3, 39840, Note_on_c, 0, 78, 0
3, 40080, Note_on_c, 0, 81, 75
3, 40080, Note_on_c, 0, 78, 75
3, 40080, Note_on_c, 0, 74, 75
3, 40200, Note_on_c, 0, 74, 0
3, 40200, Note_on_c, 0, 78, 0
3, 40200, Note_on_c, 0, 81, 0
3, 40440, Note_on_c, 0, 86, 75
3, 40440, Note_on_c, 0, 80, 75
3, 40440, Note_on_c, 0, 74, 75
3, 40560, Note_on_c, 0, 74, 0
3, 40560, Note_on_c, 0, 80, 0
3, 40560, Note_on_c, 0, 86, 0
3, 40800, Note_on_c, 0, 86, 78
3, 40800, Note_on_c, 0, 81, 78
3, 40800, Note_on_c, 0, 74, 78
3, 40920, Note_on_c, 0, 74, 0
3, 40920, Note_on_c, 0, 81, 0
3, 40920, Note_on_c, 0, 86, 0
3, 41160, Note_on_c, 0, 86, 82
3, 41160, Note_on_c, 0, 83, 82
3, 41160, Note_on_c, 0, 74, 82
3, 41280, Note_on_c, 0, 74, 0
3, 41280, Note_on_c, 0, 83, 0
3, 41280, Note_on_c, 0, 86, 0
3, 41520, Note_on_c, 0, 85, 85
3, 41520, Note_on_c, 0, 81, 85
3, 41520, Note_on_c, 0, 76, 85
3, 41640, Note_on_c, 0, 76, 0
3, 41640, Note_on_c, 0, 81, 0
3, 41640, Note_on_c, 0, 85, 0
3, 41880, Note_on_c, 0, 86, 70
3, 41880, Note_on_c, 0, 81, 70
3, 41880, Note_on_c, 0, 78, 70
3, 42000, Note_on_c, 0, 78, 0
3, 42000, Note_on_c, 0, 81, 0
3, 42000, Note_on_c, 0, 86, 0
3, 43680, Note_on_c, 0, 78, 80
3, 43680, Note_on_c, 0, 69, 80
3, 43740, Note_on_c, 0, 81, 81
3, 43770, Note_on_c, 0, 81, 0
3, 43770, Note_on_c, 0, 79, 81
3, 43800, Note_on_c, 0, 79, 0
3, 43800, Note_on_c, 0, 69, 0
3, 43800, Note_on_c, 0, 78, 0
3, 43800, Note_on_c, 0, 78, 81
3, 43830, Note_on_c, 0, 78, 0
3, 43830, Note_on_c, 0, 76, 81
3, 43860, Note_on_c, 0, 76, 0
3, 43860, Note_on_c, 0, 74, 82
3, 43890, Note_on_c, 0, 74, 0
3, 43890, Note_on_c, 0, 76, 82
3, 43920, Note_on_c, 0, 76, 0
3, 43920, Note_on_c, 0, 78, 82
3, 43920, Note_on_c, 0, 74, 82
3, 43920, Note_on_c, 0, 69, 82
3, 43950, Note_on_c, 0, 78, 0
3, 43950, Note_on_c, 0, 79, 83
3, 43980, Note_on_c, 0, 79, 0
3, 43980, Note_on_c, 0, 81, 83
3, 44010, Note_on_c, 0, 81, 0
3, 44010, Note_on_c, 0, 78, 83
3, 44040, Note_on_c, 0, 78, 0
3, 44040, Note_on_c, 0, 69, 0
3, 44040, Note_on_c, 0, 74, 0
3, 44040, Note_on_c, 0, 83, 83
3, 44040, Note_on_c, 0, 74, 83
3, 44040, Note_on_c, 0, 62, 83
3, 44070, Note_on_c, 0, 83, 0
3, 44070, Note_on_c, 0, 81, 84
3, 44100, Note_on_c, 0, 81, 0
3, 44100, Note_on_c, 0, 79, 84
3, 44130, Note_on_c, 0, 79, 0
3, 44130, Note_on_c, 0, 78, 84
3, 44160, Note_on_c, 0, 78, 0
3, 44160, Note_on_c, 0, 62, 0
3, 44160, Note_on_c, 0, 74, 0
3, 44160, Note_on_c, 0, 76, 84
3, 44190, Note_on_c, 0, 76, 0
3, 44190, Note_on_c, 0, 74, 85
3, 44220, Note_on_c, 0, 74, 0
3, 44220, Note_on_c, 0, 73, 85
3, 44250, Note_on_c, 0, 73, 0
3, 44250, Note_on_c, 0, 74, 85
3, 44280, Note_on_c, 0, 74, 0
3, 44280, Note_on_c, 0, 76, 86
3, 44280, Note_on_c, 0, 76, 86
3, 44280, Note_on_c, 0, 69, 86
3, 44310, Note_on_c, 0, 76, 0
3, 44310, Note_on_c, 0, 78, 86
3, 44340, Note_on_c, 0, 78, 0
3, 44340, Note_on_c, 0, 79, 86
3, 44370, Note_on_c, 0, 79, 0
3, 44370, Note_on_c, 0, 76, 86
3, 44400, Note_on_c, 0, 76, 0
3, 44400, Note_on_c, 0, 69, 0
3, 44400, Note_on_c, 0, 76, 0
3, 44400, Note_on_c, 0, 81, 87
3, 44400, Note_on_c, 0, 78, 87
3, 44400, Note_on_c, 0, 69, 87
3, 44430, Note_on_c, 0, 81, 0
3, 44430, Note_on_c, 0, 79, 87
3, 44460, Note_on_c, 0, 79, 0
3, 44460, Note_on_c, 0, 78, 87
3, 44490, Note_on_c, 0, 78, 0
3, 44490, Note_on_c, 0, 76, 88
3, 44520, Note_on_c, 0, 76, 0
3, 44520, Note_on_c, 0, 69, 0
3, 44520, Note_on_c, 0, 78, 0
3, 44520, Note_on_c, 0, 74, 88
3, 44550, Note_on_c, 0, 74, 0
3, 44550, Note_on_c, 0, 76, 88
3, 44580, Note_on_c, 0, 76, 0
3, 44580, Note_on_c, 0, 74, 88
3, 44610, Note_on_c, 0, 74, 0
3, 44610, Note_on_c, 0, 73, 89
3, 44640, Note_on_c, 0, 73, 0
3, 44640, Note_on_c, 0, 74, 89
3, 44640, Note_on_c, 0, 83, 89
3, 44640, Note_on_c, 0, 62, 89
3, 44670, Note_on_c, 0, 74, 0
3, 44670, Note_on_c, 0, 76, 89
3, 44700, Note_on_c, 0, 76, 0
3, 44700, Note_on_c, 0, 78, 89
3, 44730, Note_on_c, 0, 78, 0
3, 44730, Note_on_c, 0, 74, 90
3, 44760, Note_on_c, 0, 74, 0
3, 44760, Note_on_c, 0, 62, 0
3, 44760, Note_on_c, 0, 83, 0
3, 44760, Note_on_c, 0, 79, 90
3, 44760, Note_on_c, 0, 83, 90
3, 44760, Note_on_c, 0, 74, 90
3, 44801, Note_on_c, 0, 79, 0
3, 44820, Note_on_c, 0, 76, 91
3, 44850, Note_on_c, 0, 76, 0
3, 44850, Note_on_c, 0, 78, 91
3, 44865, Note_on_c, 0, 78, 0
3, 44865, Note_on_c, 0, 79, 91
3, 44880, Note_on_c, 0, 79, 0
3, 44880, Note_on_c, 0, 74, 0
3, 44880, Note_on_c, 0, 83, 0
3, 44880, Note_on_c, 0, 79, 91
3, 44921, Note_on_c, 0, 79, 0
3, 44940, Note_on_c, 0, 76, 92
3, 44970, Note_on_c, 0, 76, 0
3, 44970, Note_on_c, 0, 78, 92
3, 44985, Note_on_c, 0, 78, 0
3, 44985, Note_on_c, 0, 79, 92
3, 45000, Note_on_c, 0, 79, 0
3, 45000, Note_on_c, 0, 79, 92
3, 45000, Note_on_c, 0, 76, 92
3, 45041, Note_on_c, 0, 79, 0
3, 45060, Note_on_c, 0, 76, 93
3, 45090, Note_on_c, 0, 76, 0
3, 45090, Note_on_c, 0, 78, 93
3, 45105, Note_on_c, 0, 78, 0
3, 45105, Note_on_c, 0, 79, 93
3, 45120, Note_on_c, 0, 79, 0
3, 45120, Note_on_c, 0, 76, 0
3, 45120, Note_on_c, 0, 79, 103
3, 45120, Note_on_c, 0, 76, 93
3, 45120, Note_on_c, 0, 69, 93
3, 45240, Note_on_c, 0, 69, 0
3, 45240, Note_on_c, 0, 76, 0
3, 45300, Note_on_c, 0, 79, 0
3, 45300, Note_on_c, 0, 81, 105
3, 45300, Note_on_c, 0, 76, 95
3, 45300, Note_on_c, 0, 69, 95
3, 45330, Note_on_c, 0, 81, 0
3, 45330, Note_on_c, 0, 79, 105
3, 45341, Note_on_c, 0, 69, 0
3, 45341, Note_on_c, 0, 76, 0
3, 45360, Note_on_c, 0, 79, 0
3, 45360, Note_on_c, 0, 78, 106
3, 45360, Note_on_c, 0, 74, 96
3, 45360, Note_on_c, 0, 69, 96
3, 45380, Note_on_c, 0, 78, 0
3, 45380, Note_on_c, 0, 79, 106
3, 45399, Note_on_c, 0, 79, 0
3, 45399, Note_on_c, 0, 78, 106
3, 45401, Note_on_c, 0, 69, 0
3, 45401, Note_on_c, 0, 74, 0
3, 45420, Note_on_c, 0, 78, 0
3, 45420, Note_on_c, 0, 76, 106
3, 45420, Note_on_c, 0, 79, 96
3, 45420, Note_on_c, 0, 69, 96
3, 45440, Note_on_c, 0, 76, 0
3, 45440, Note_on_c, 0, 78, 106
3, 45459, Note_on_c, 0, 78, 0
3, 45459, Note_on_c, 0, 76, 106
3, 45461, Note_on_c, 0, 69, 0
3, 45461, Note_on_c, 0, 79, 0
3, 45480, Note_on_c, 0, 76, 0
3, 45480, Note_on_c, 0, 74, 107
3, 45480, Note_on_c, 0, 78, 97
3, 45480, Note_on_c, 0, 62, 97
3, 45510, Note_on_c, 0, 74, 0
3, 45510, Note_on_c, 0, 76, 107
3, 45521, Note_on_c, 0, 62, 0
3, 45521, Note_on_c, 0, 78, 0
3, 45540, Note_on_c, 0, 76, 0
3, 45540, Note_on_c, 0, 78, 107
3, 45540, Note_on_c, 0, 81, 97
3, 45540, Note_on_c, 0, 69, 97
3, 45570, Note_on_c, 0, 78, 0
3, 45570, Note_on_c, 0, 79, 108
3, 45581, Note_on_c, 0, 69, 0
3, 45581, Note_on_c, 0, 81, 0
3, 45600, Note_on_c, 0, 79, 0
3, 45600, Note_on_c, 0, 81, 108
3, 45600, Note_on_c, 0, 74, 98
3, 45600, Note_on_c, 0, 69, 98
3, 45630, Note_on_c, 0, 81, 0
3, 45630, Note_on_c, 0, 79, 108
3, 45641, Note_on_c, 0, 69, 0
3, 45641, Note_on_c, 0, 74, 0
3, 45660, Note_on_c, 0, 79, 0
3, 45660, Note_on_c, 0, 83, 108
3, 45660, Note_on_c, 0, 74, 98
3, 45660, Note_on_c, 0, 62, 98
3, 45690, Note_on_c, 0, 83, 0
3, 45690, Note_on_c, 0, 81, 109
3, 45701, Note_on_c, 0, 62, 0
3, 45701, Note_on_c, 0, 74, 0
3, 45720, Note_on_c, 0, 81, 0
3, 45720, Note_on_c, 0, 79, 109
3, 45720, Note_on_c, 0, 74, 99
3, 45720, Note_on_c, 0, 69, 99
3, 45750, Note_on_c, 0, 79, 0
3, 45750, Note_on_c, 0, 78, 109
3, 45761, Note_on_c, 0, 69, 0
3, 45761, Note_on_c, 0, 74, 0
3, 45780, Note_on_c, 0, 78, 0
3, 45780, Note_on_c, 0, 76, 109
3, 45780, Note_on_c, 0, 69, 99
3, 45780, Note_on_c, 0, 69, 99
3, 45810, Note_on_c, 0, 76, 0
3, 45810, Note_on_c, 0, 78, 110
3, 45821, Note_on_c, 0, 69, 0
3, 45821, Note_on_c, 0, 69, 0
3, 45840, Note_on_c, 0, 78, 0
3, 45840, Note_on_c, 0, 74, 110
3, 45840, Note_on_c, 0, 69, 100
3, 45840, Note_on_c, 0, 66, 100
3, 46200, Note_on_c, 0, 66, 0
3, 46200, Note_on_c, 0, 69, 0
3, 46200, Note_on_c, 0, 74, 0
3, 46560, End_track
4, 0, Start_track
4, 0, MIDI_port, 0
4, 0, Title_t, "Timpani"
4, 0, Program_c, 1, 47
4, 120, Control_c, 1, 7, 100
4, 540, Note_on_c, 1, 50, 64
4, 570, Note_on_c, 1, 50, 0
4, 570, Note_on_c, 1, 50, 64
4, 600, Note_on_c, 1, 50, 0
4, 600, Note_on_c, 1, 50, 64
4, 623, Note_on_c, 1, 50, 0
4, 660, Note_on_c, 1, 50, 64
4, 683, Note_on_c, 1, 50, 0
4, 720, Note_on_c, 1, 50, 64
4, 750, Note_on_c, 1, 50, 0
4, 750, Note_on_c, 1, 50, 64
4, 780, Note_on_c, 1, 50, 0
4, 780, Note_on_c, 1, 50, 64
4, 810, Note_on_c, 1, 50, 0
4, 810, Note_on_c, 1, 50, 64
4, 840, Note_on_c, 1, 50, 0
4, 840, Note_on_c, 1, 45, 64
4, 960, Note_on_c, 1, 45, 0
4, 1260, Note_on_c, 1, 45, 64
4, 1280, Note_on_c, 1, 45, 0
4, 1290, Note_on_c, 1, 45, 64
4, 1310, Note_on_c, 1, 45, 0
4, 1320, Note_on_c, 1, 45, 64
4, 1343, Note_on_c, 1, 45, 0
4, 1380, Note_on_c, 1, 45, 64
4, 1403, Note_on_c, 1, 45, 0
4, 1440, Note_on_c, 1, 45, 64
4, 1470, Note_on_c, 1, 45, 0
4, 1470, Note_on_c, 1, 45, 64
4, 1500, Note_on_c, 1, 45, 0
4, 1500, Note_on_c, 1, 45, 64
4, 1530, Note_on_c, 1, 45, 0
4, 1530, Note_on_c, 1, 45, 64
4, 1560, Note_on_c, 1, 45, 0
4, 1560, Note_on_c, 1, 50, 64
4, 1680, Note_on_c, 1, 50, 0
4, 1920, Note_on_c, 1, 50, 64
4, 2040, Note_on_c, 1, 50, 0
4, 2280, Note_on_c, 1, 50, 64
4, 2400, Note_on_c, 1, 50, 0
4, 3000, Note_on_c, 1, 45, 64
4, 3120, Note_on_c, 1, 45, 0
4, 8760, Note_on_c, 1, 45, 64
4, 8880, Note_on_c, 1, 45, 0
4, 9120, Note_on_c, 1, 45, 64
4, 9240, Note_on_c, 1, 45, 0
4, 9840, Note_on_c, 1, 45, 64
4, 9960, Note_on_c, 1, 45, 0
4, 10560, Note_on_c, 1, 50, 64
4, 10680, Note_on_c, 1, 50, 0
4, 10920, Note_on_c, 1, 45, 64
4, 11040, Note_on_c, 1, 45, 0
4, 11100, Note_on_c, 1, 45, 64
4, 11141, Note_on_c, 1, 45, 0
4, 11160, Note_on_c, 1, 45, 64
4, 11201, Note_on_c, 1, 45, 0
4, 11220, Note_on_c, 1, 45, 64
4, 11261, Note_on_c, 1, 45, 0
4, 11280, Note_on_c, 1, 50, 64
4, 11400, Note_on_c, 1, 50, 0
4, 11820, Note_on_c, 1, 45, 64
4, 11861, Note_on_c, 1, 45, 0
4, 11880, Note_on_c, 1, 45, 64
4, 11921, Note_on_c, 1, 45, 0
4, 11940, Note_on_c, 1, 45, 64
4, 11981, Note_on_c, 1, 45, 0
4, 12000, Note_on_c, 1, 50, 64
4, 12120, Note_on_c, 1, 50, 0
4, 12780, Note_on_c, 1, 45, 73
4, 12810, Note_on_c, 1, 45, 0
4, 12810, Note_on_c, 1, 45, 74
4, 12840, Note_on_c, 1, 45, 0
4, 12840, Note_on_c, 1, 45, 75
4, 12881, Note_on_c, 1, 45, 0
4, 12900, Note_on_c, 1, 45, 76
4, 12941, Note_on_c, 1, 45, 0
4, 12960, Note_on_c, 1, 50, 77
4, 13001, Note_on_c, 1, 50, 0
4, 13020, Note_on_c, 1, 50, 79
4, 13061, Note_on_c, 1, 50, 0
4, 13080, Note_on_c, 1, 45, 80
4, 13200, Note_on_c, 1, 45, 0
4, 24960, Note_on_c, 1, 45, 64
4, 25080, Note_on_c, 1, 45, 0
4, 25320, Note_on_c, 1, 45, 64
4, 25440, Note_on_c, 1, 45, 0
4, 39720, Note_on_c, 1, 50, 75
4, 39840, Note_on_c, 1, 50, 0
4, 40080, Note_on_c, 1, 50, 75
4, 40200, Note_on_c, 1, 50, 0
4, 40440, Note_on_c, 1, 50, 75
4, 40560, Note_on_c, 1, 50, 0
4, 40800, Note_on_c, 1, 50, 78
4, 40920, Note_on_c, 1, 50, 0
4, 41160, Note_on_c, 1, 50, 82
4, 41280, Note_on_c, 1, 50, 0
4, 41520, Note_on_c, 1, 45, 85
4, 41640, Note_on_c, 1, 45, 0
4, 41880, Note_on_c, 1, 50, 70
4, 42000, Note_on_c, 1, 50, 0
4, 43680, Note_on_c, 1, 50, 80
4, 43800, Note_on_c, 1, 50, 0
4, 43920, Note_on_c, 1, 50, 82
4, 44040, Note_on_c, 1, 50, 0
4, 44040, Note_on_c, 1, 50, 83
4, 44160, Note_on_c, 1, 50, 0
4, 44280, Note_on_c, 1, 45, 86
4, 44400, Note_on_c, 1, 45, 0
4, 44400, Note_on_c, 1, 45, 87
4, 44520, Note_on_c, 1, 45, 0
4, 44640, Note_on_c, 1, 50, 89
4, 44760, Note_on_c, 1, 50, 0
4, 44760, Note_on_c, 1, 50, 90
4, 44880, Note_on_c, 1, 50, 0
4, 45120, Note_on_c, 1, 45, 93
4, 45240, Note_on_c, 1, 45, 0
4, 45300, Note_on_c, 1, 45, 95
4, 45341, Note_on_c, 1, 45, 0
4, 45360, Note_on_c, 1, 50, 96
4, 45401, Note_on_c, 1, 50, 0
4, 45420, Note_on_c, 1, 45, 96
4, 45461, Note_on_c, 1, 45, 0
4, 45480, Note_on_c, 1, 50, 97
4, 45521, Note_on_c, 1, 50, 0
4, 45540, Note_on_c, 1, 50, 97
4, 45570, Note_on_c, 1, 50, 0
4, 45570, Note_on_c, 1, 50, 98
4, 45600, Note_on_c, 1, 50, 0
4, 45600, Note_on_c, 1, 50, 98
4, 45641, Note_on_c, 1, 50, 0
4, 45660, Note_on_c, 1, 50, 98
4, 45701, Note_on_c, 1, 50, 0
4, 45720, Note_on_c, 1, 45, 99
4, 45761, Note_on_c, 1, 45, 0
4, 45780, Note_on_c, 1, 45, 99
4, 45821, Note_on_c, 1, 45, 0
4, 45840, Note_on_c, 1, 50, 100
4, 46200, Note_on_c, 1, 50, 0
4, 46560, End_track
5, 0, Start_track
5, 0, MIDI_port, 0
5, 0, Title_t, "Flute"
5, 0, Program_c, 2, 73
5, 120, Control_c, 2, 7, 100
5, 120, Control_c, 2, 7, 100
5, 180, Note_on_c, 2, 62, 64
5, 210, Note_on_c, 2, 62, 0
5, 210, Note_on_c, 2, 64, 64
5, 240, Note_on_c, 2, 64, 0
5, 240, Note_on_c, 2, 66, 64
5, 270, Note_on_c, 2, 66, 0
5, 270, Note_on_c, 2, 67, 64
5, 300, Note_on_c, 2, 67, 0
5, 300, Note_on_c, 2, 69, 64
5, 330, Note_on_c, 2, 69, 0
5, 330, Note_on_c, 2, 71, 64
5, 360, Note_on_c, 2, 71, 0
5, 360, Note_on_c, 2, 73, 64
5, 390, Note_on_c, 2, 73, 0
5, 390, Note_on_c, 2, 76, 64
5, 420, Note_on_c, 2, 76, 0
5, 420, Note_on_c, 2, 74, 64
5, 450, Note_on_c, 2, 74, 0
5, 450, Note_on_c, 2, 73, 64
5, 480, Note_on_c, 2, 73, 0
5, 480, Note_on_c, 2, 74, 64
5, 521, Note_on_c, 2, 74, 0
5, 660, Note_on_c, 2, 69, 64
5, 660, Note_on_c, 2, 66, 64
5, 690, Note_on_c, 2, 66, 0
5, 690, Note_on_c, 2, 67, 64
5, 701, Note_on_c, 2, 69, 0
5, 720, Note_on_c, 2, 67, 0
5, 720, Note_on_c, 2, 74, 64
5, 720, Note_on_c, 2, 69, 64
5, 750, Note_on_c, 2, 69, 0
5, 750, Note_on_c, 2, 71, 64
5, 761, Note_on_c, 2, 74, 0
5, 780, Note_on_c, 2, 71, 0
5, 780, Note_on_c, 2, 76, 64
5, 780, Note_on_c, 2, 73, 64
5, 810, Note_on_c, 2, 73, 0
5, 810, Note_on_c, 2, 76, 0
5, 810, Note_on_c, 2, 78, 64
5, 810, Note_on_c, 2, 74, 64
5, 840, Note_on_c, 2, 74, 0
5, 840, Note_on_c, 2, 78, 0
5, 840, Note_on_c, 2, 76, 64
5, 840, Note_on_c, 2, 69, 64
5, 870, Note_on_c, 2, 76, 0
5, 870, Note_on_c, 2, 78, 64
5, 881, Note_on_c, 2, 69, 0
5, 900, Note_on_c, 2, 78, 0
5, 900, Note_on_c, 2, 76, 64
5, 930, Note_on_c, 2, 76, 0
5, 930, Note_on_c, 2, 74, 64
5, 960, Note_on_c, 2, 74, 0
5, 960, Note_on_c, 2, 73, 64
5, 990, Note_on_c, 2, 73, 0
5, 990, Note_on_c, 2, 71, 64
5, 1020, Note_on_c, 2, 71, 0
5, 1020, Note_on_c, 2, 69, 64
5, 1050, Note_on_c, 2, 69, 0
5, 1050, Note_on_c, 2, 68, 64
5, 1080, Note_on_c, 2, 68, 0
5, 1080, Note_on_c, 2, 69, 64
5, 1110, Note_on_c, 2, 69, 0
5, 1110, Note_on_c, 2, 71, 64
5, 1140, Note_on_c, 2, 71, 0
5, 1140, Note_on_c, 2, 73, 64
5, 1170, Note_on_c, 2, 73, 0
5, 1170, Note_on_c, 2, 74, 64
5, 1200, Note_on_c, 2, 74, 0
5, 1200, Note_on_c, 2, 73, 64
5, 1241, Note_on_c, 2, 73, 0
5, 1380, Note_on_c, 2, 69, 64
5, 1380, Note_on_c, 2, 73, 64
5, 1410, Note_on_c, 2, 73, 0
5, 1410, Note_on_c, 2, 74, 64
5, 1421, Note_on_c, 2, 69, 0
5, 1440, Note_on_c, 2, 74, 0
5, 1440, Note_on_c, 2, 76, 64
5, 1440, Note_on_c, 2, 76, 64
5, 1481, Note_on_c, 2, 76, 0
5, 1481, Note_on_c, 2, 76, 0
5, 1500, Note_on_c, 2, 78, 64
5, 1500, Note_on_c, 2, 69, 64
5, 1530, Note_on_c, 2, 78, 0
5, 1530, Note_on_c, 2, 79, 64
5, 1541, Note_on_c, 2, 69, 0
5, 1560, Note_on_c, 2, 79, 0
5, 1560, Note_on_c, 2, 78, 64
5, 1560, Note_on_c, 2, 69, 64
5, 1601, Note_on_c, 2, 69, 0
5, 1601, Note_on_c, 2, 78, 0
5, 1620, Note_on_c, 2, 78, 64
5, 1620, Note_on_c, 2, 74, 64
5, 1661, Note_on_c, 2, 74, 0
5, 1661, Note_on_c, 2, 78, 0
5, 1680, Note_on_c, 2, 81, 64
5, 1680, Note_on_c, 2, 78, 64
5, 1721, Note_on_c, 2, 78, 0
5, 1721, Note_on_c, 2, 81, 0
5, 1740, Note_on_c, 2, 86, 64
5, 1740, Note_on_c, 2, 81, 64
5, 1781, Note_on_c, 2, 81, 0
5, 1781, Note_on_c, 2, 86, 0
5, 1800, Note_on_c, 2, 81, 64
5, 1800, Note_on_c, 2, 78, 64
5, 1841, Note_on_c, 2, 78, 0
5, 1841, Note_on_c, 2, 81, 0
5, 1860, Note_on_c, 2, 78, 64
5, 1860, Note_on_c, 2, 74, 64
5, 1901, Note_on_c, 2, 74, 0
5, 1901, Note_on_c, 2, 78, 0
5, 1980, Note_on_c, 2, 74, 64
5, 1980, Note_on_c, 2, 71, 64
5, 2021, Note_on_c, 2, 71, 0
5, 2021, Note_on_c, 2, 74, 0
5, 2040, Note_on_c, 2, 78, 64
5, 2040, Note_on_c, 2, 74, 64
5, 2081, Note_on_c, 2, 74, 0
5, 2081, Note_on_c, 2, 78, 0
5, 2100, Note_on_c, 2, 83, 64
5, 2100, Note_on_c, 2, 78, 64
5, 2141, Note_on_c, 2, 78, 0
5, 2141, Note_on_c, 2, 83, 0
5, 2160, Note_on_c, 2, 78, 64
5, 2160, Note_on_c, 2, 74, 64
5, 2201, Note_on_c, 2, 74, 0
5, 2201, Note_on_c, 2, 78, 0
5, 2220, Note_on_c, 2, 74, 64
5, 2220, Note_on_c, 2, 71, 64
5, 2261, Note_on_c, 2, 71, 0
5, 2261, Note_on_c, 2, 74, 0
5, 2280, Note_on_c, 2, 69, 64
5, 2280, Note_on_c, 2, 69, 64
5, 2460, Note_on_c, 2, 69, 0
5, 2460, Note_on_c, 2, 69, 0
5, 2460, Note_on_c, 2, 71, 64
5, 2460, Note_on_c, 2, 71, 64
5, 2490, Note_on_c, 2, 71, 0
5, 2490, Note_on_c, 2, 71, 0
5, 2490, Note_on_c, 2, 73, 64
5, 2490, Note_on_c, 2, 73, 64
5, 2520, Note_on_c, 2, 73, 0
5, 2520, Note_on_c, 2, 73, 0
5, 2520, Note_on_c, 2, 74, 64
5, 2520, Note_on_c, 2, 74, 64
5, 2550, Note_on_c, 2, 74, 0
5, 2550, Note_on_c, 2, 74, 0
5, 2550, Note_on_c, 2, 76, 64
5, 2550, Note_on_c, 2, 76, 64
5, 2580, Note_on_c, 2, 76, 0
5, 2580, Note_on_c, 2, 76, 0
5, 2580, Note_on_c, 2, 78, 64
5, 2580, Note_on_c, 2, 78, 64
5, 2610, Note_on_c, 2, 78, 0
5, 2610, Note_on_c, 2, 78, 0
5, 2610, Note_on_c, 2, 74, 64
5, 2610, Note_on_c, 2, 74, 64
5, 2640, Note_on_c, 2, 74, 0
5, 2640, Note_on_c, 2, 74, 0
5, 2640, Note_on_c, 2, 71, 64
5, 2640, Note_on_c, 2, 71, 64
5, 2790, Note_on_c, 2, 71, 0
5, 2790, Note_on_c, 2, 71, 0
5, 2790, Note_on_c, 2, 69, 64
5, 2790, Note_on_c, 2, 69, 64
5, 2820, Note_on_c, 2, 69, 0
5, 2820, Note_on_c, 2, 69, 0
5, 2820, Note_on_c, 2, 68, 64
5, 2820, Note_on_c, 2, 68, 64
5, 2850, Note_on_c, 2, 68, 0
5, 2850, Note_on_c, 2, 68, 0
5, 2850, Note_on_c, 2, 69, 64
5, 2850, Note_on_c, 2, 69, 64
5, 2880, Note_on_c, 2, 69, 0
5, 2880, Note_on_c, 2, 69, 0
5, 2880, Note_on_c, 2, 71, 64
5, 2880, Note_on_c, 2, 71, 64
5, 2910, Note_on_c, 2, 71, 0
5, 2910, Note_on_c, 2, 71, 0
5, 2910, Note_on_c, 2, 73, 64
5, 2910, Note_on_c, 2, 73, 64
5, 2940, Note_on_c, 2, 73, 0
5, 2940, Note_on_c, 2, 73, 0
5, 2940, Note_on_c, 2, 74, 64
5, 2940, Note_on_c, 2, 74, 64
5, 2970, Note_on_c, 2, 74, 0
5, 2970, Note_on_c, 2, 74, 0
5, 2970, Note_on_c, 2, 71, 64
5, 2970, Note_on_c, 2, 71, 64
5, 3000, Note_on_c, 2, 71, 0
5, 3000, Note_on_c, 2, 71, 0
5, 3000, Note_on_c, 2, 73, 64
5, 3000, Note_on_c, 2, 73, 64
5, 3041, Note_on_c, 2, 73, 0
5, 3041, Note_on_c, 2, 73, 0
5, 3420, Note_on_c, 2, 73, 64
5, 3420, Note_on_c, 2, 69, 64
5, 3461, Note_on_c, 2, 69, 0
5, 3461, Note_on_c, 2, 73, 0
5, 3480, Note_on_c, 2, 76, 64
5, 3480, Note_on_c, 2, 73, 64
5, 3521, Note_on_c, 2, 73, 0
5, 3521, Note_on_c, 2, 76, 0
5, 3540, Note_on_c, 2, 81, 64
5, 3540, Note_on_c, 2, 76, 64
5, 3581, Note_on_c, 2, 76, 0
5, 3581, Note_on_c, 2, 81, 0
5, 3600, Note_on_c, 2, 76, 64
5, 3600, Note_on_c, 2, 73, 64
5, 3641, Note_on_c, 2, 73, 0
5, 3641, Note_on_c, 2, 76, 0
5, 3660, Note_on_c, 2, 74, 64
5, 3660, Note_on_c, 2, 71, 64
5, 3690, Note_on_c, 2, 71, 0
5, 3690, Note_on_c, 2, 74, 0
5, 3690, Note_on_c, 2, 73, 64
5, 3690, Note_on_c, 2, 69, 64
5, 3720, Note_on_c, 2, 69, 0
5, 3720, Note_on_c, 2, 73, 0
5, 3720, Note_on_c, 2, 74, 64
5, 3720, Note_on_c, 2, 71, 64
5, 3761, Note_on_c, 2, 71, 0
5, 3761, Note_on_c, 2, 74, 0
5, 4140, Note_on_c, 2, 74, 64
5, 4140, Note_on_c, 2, 71, 64
5, 4181, Note_on_c, 2, 71, 0
5, 4181, Note_on_c, 2, 74, 0
5, 4200, Note_on_c, 2, 80, 64
5, 4200, Note_on_c, 2, 74, 64
5, 4241, Note_on_c, 2, 74, 0
5, 4241, Note_on_c, 2, 80, 0
5, 4260, Note_on_c, 2, 83, 64
5, 4260, Note_on_c, 2, 80, 64
5, 4301, Note_on_c, 2, 80, 0
5, 4301, Note_on_c, 2, 83, 0
5, 4320, Note_on_c, 2, 74, 64
5, 4320, Note_on_c, 2, 71, 64
5, 4361, Note_on_c, 2, 71, 0
5, 4361, Note_on_c, 2, 74, 0
5, 4380, Note_on_c, 2, 73, 64
5, 4380, Note_on_c, 2, 69, 64
5, 4410, Note_on_c, 2, 69, 0
5, 4410, Note_on_c, 2, 73, 0
5, 4410, Note_on_c, 2, 71, 64
5, 4410, Note_on_c, 2, 68, 64
5, 4440, Note_on_c, 2, 68, 0
5, 4440, Note_on_c, 2, 71, 0
5, 4440, Note_on_c, 2, 73, 64
5, 4440, Note_on_c, 2, 69, 64
5, 4560, Note_on_c, 2, 69, 0
5, 4560, Note_on_c, 2, 73, 0
5, 4620, Note_on_c, 2, 69, 64
5, 4620, Note_on_c, 2, 69, 64
5, 4650, Note_on_c, 2, 69, 0
5, 4650, Note_on_c, 2, 69, 0
5, 4650, Note_on_c, 2, 71, 64
5, 4650, Note_on_c, 2, 71, 64
5, 4680, Note_on_c, 2, 71, 0
5, 4680, Note_on_c, 2, 71, 0
5, 4680, Note_on_c, 2, 73, 64
5, 4680, Note_on_c, 2, 73, 64
5, 4710, Note_on_c, 2, 73, 0
5, 4710, Note_on_c, 2, 73, 0
5, 4710, Note_on_c, 2, 74, 64
5, 4710, Note_on_c, 2, 74, 64
5, 4740, Note_on_c, 2, 74, 0
5, 4740, Note_on_c, 2, 74, 0
5, 4740, Note_on_c, 2, 76, 64
5, 4740, Note_on_c, 2, 76, 64
5, 4770, Note_on_c, 2, 76, 0
5, 4770, Note_on_c, 2, 76, 0
5, 4770, Note_on_c, 2, 73, 64
5, 4770, Note_on_c, 2, 73, 64
5, 4800, Note_on_c, 2, 73, 0
5, 4800, Note_on_c, 2, 73, 0
5, 4800, Note_on_c, 2, 81, 64
5, 4800, Note_on_c, 2, 81, 64
5, 4841, Note_on_c, 2, 81, 0
5, 4841, Note_on_c, 2, 81, 0
5, 4860, Note_on_c, 2, 69, 64
5, 4860, Note_on_c, 2, 69, 64
5, 4901, Note_on_c, 2, 69, 0
5, 4901, Note_on_c, 2, 69, 0
5, 4980, Note_on_c, 2, 66, 64
5, 4980, Note_on_c, 2, 66, 64
5, 5010, Note_on_c, 2, 66, 0
5, 5010, Note_on_c, 2, 66, 0
5, 5010, Note_on_c, 2, 68, 64
5, 5010, Note_on_c, 2, 68, 64
5, 5040, Note_on_c, 2, 68, 0
5, 5040, Note_on_c, 2, 68, 0
5, 5040, Note_on_c, 2, 69, 64
5, 5040, Note_on_c, 2, 69, 64
5, 5070, Note_on_c, 2, 69, 0
5, 5070, Note_on_c, 2, 69, 0
5, 5070, Note_on_c, 2, 71, 64
5, 5070, Note_on_c, 2, 71, 64
5, 5100, Note_on_c, 2, 71, 0
5, 5100, Note_on_c, 2, 71, 0
5, 5100, Note_on_c, 2, 73, 64
5, 5100, Note_on_c, 2, 73, 64
5, 5130, Note_on_c, 2, 73, 0
5, 5130, Note_on_c, 2, 73, 0
5, 5130, Note_on_c, 2, 69, 64
5, 5130, Note_on_c, 2, 69, 64
5, 5160, Note_on_c, 2, 69, 0
5, 5160, Note_on_c, 2, 69, 0
5, 5160, Note_on_c, 2, 76, 64
5, 5160, Note_on_c, 2, 76, 64
5, 5201, Note_on_c, 2, 76, 0
5, 5201, Note_on_c, 2, 76, 0
5, 5220, Note_on_c, 2, 73, 64
5, 5220, Note_on_c, 2, 64, 64
5, 5261, Note_on_c, 2, 64, 0
5, 5261, Note_on_c, 2, 73, 0
5, 5280, Note_on_c, 2, 76, 64
5, 5280, Note_on_c, 2, 69, 64
5, 5321, Note_on_c, 2, 69, 0
5, 5321, Note_on_c, 2, 76, 0
5, 5340, Note_on_c, 2, 81, 64
5, 5340, Note_on_c, 2, 73, 64
5, 5381, Note_on_c, 2, 73, 0
5, 5381, Note_on_c, 2, 81, 0
5, 5400, Note_on_c, 2, 76, 64
5, 5400, Note_on_c, 2, 69, 64
5, 5441, Note_on_c, 2, 69, 0
5, 5441, Note_on_c, 2, 76, 0
5, 5460, Note_on_c, 2, 73, 64
5, 5460, Note_on_c, 2, 64, 64
5, 5501, Note_on_c, 2, 64, 0
5, 5501, Note_on_c, 2, 73, 0
5, 5580, Note_on_c, 2, 71, 64
5, 5580, Note_on_c, 2, 66, 64
5, 5621, Note_on_c, 2, 66, 0
5, 5621, Note_on_c, 2, 71, 0
5, 5640, Note_on_c, 2, 78, 64
5, 5640, Note_on_c, 2, 75, 64
5, 5681, Note_on_c, 2, 75, 0
5, 5681, Note_on_c, 2, 78, 0
5, 5700, Note_on_c, 2, 81, 64
5, 5700, Note_on_c, 2, 78, 64
5, 5741, Note_on_c, 2, 78, 0
5, 5741, Note_on_c, 2, 81, 0
5, 5760, Note_on_c, 2, 78, 64
5, 5760, Note_on_c, 2, 71, 64
5, 5801, Note_on_c, 2, 71, 0
5, 5801, Note_on_c, 2, 78, 0
5, 5820, Note_on_c, 2, 71, 64
5, 5820, Note_on_c, 2, 66, 64
5, 5861, Note_on_c, 2, 66, 0
5, 5861, Note_on_c, 2, 71, 0
5, 5940, Note_on_c, 2, 80, 41
5, 5940, Note_on_c, 2, 71, 41
5, 6060, Note_on_c, 2, 71, 0
5, 6060, Note_on_c, 2, 80, 0
5, 6060, Note_on_c, 2, 78, 43
5, 6060, Note_on_c, 2, 69, 43
5, 6090, Note_on_c, 2, 69, 0
5, 6090, Note_on_c, 2, 78, 0
5, 6090, Note_on_c, 2, 76, 44
5, 6090, Note_on_c, 2, 68, 44
5, 6120, Note_on_c, 2, 68, 0
5, 6120, Note_on_c, 2, 76, 0
5, 6120, Note_on_c, 2, 78, 44
5, 6120, Note_on_c, 2, 69, 44
5, 6210, Note_on_c, 2, 69, 0
5, 6210, Note_on_c, 2, 78, 0
5, 6210, Note_on_c, 2, 80, 46
5, 6210, Note_on_c, 2, 71, 46
5, 6225, Note_on_c, 2, 71, 0
5, 6225, Note_on_c, 2, 80, 0
5, 6225, Note_on_c, 2, 81, 46
5, 6225, Note_on_c, 2, 73, 46
5, 6240, Note_on_c, 2, 73, 0
5, 6240, Note_on_c, 2, 81, 0
5, 6240, Note_on_c, 2, 80, 46
5, 6240, Note_on_c, 2, 71, 46
5, 6600, Note_on_c, 2, 71, 0
5, 6600, Note_on_c, 2, 80, 0
5, 6660, Note_on_c, 2, 69, 53
5, 6660, Note_on_c, 2, 66, 53
5, 6690, Note_on_c, 2, 66, 0
5, 6690, Note_on_c, 2, 69, 0
5, 6690, Note_on_c, 2, 71, 54
5, 6690, Note_on_c, 2, 68, 54
5, 6705, Note_on_c, 2, 68, 0
5, 6705, Note_on_c, 2, 71, 0
5, 6705, Note_on_c, 2, 73, 54
5, 6705, Note_on_c, 2, 69, 54
5, 6720, Note_on_c, 2, 69, 0
5, 6720, Note_on_c, 2, 73, 0
5, 6720, Note_on_c, 2, 73, 54
5, 6720, Note_on_c, 2, 69, 54
5, 6761, Note_on_c, 2, 69, 0
5, 6761, Note_on_c, 2, 73, 0
5, 6780, Note_on_c, 2, 69, 55
5, 6780, Note_on_c, 2, 66, 55
5, 6810, Note_on_c, 2, 66, 0
5, 6810, Note_on_c, 2, 69, 0
5, 6810, Note_on_c, 2, 71, 56
5, 6810, Note_on_c, 2, 68, 56
5, 6825, Note_on_c, 2, 68, 0
5, 6825, Note_on_c, 2, 71, 0
5, 6825, Note_on_c, 2, 73, 56
5, 6825, Note_on_c, 2, 69, 56
5, 6840, Note_on_c, 2, 69, 0
5, 6840, Note_on_c, 2, 73, 0
5, 6840, Note_on_c, 2, 73, 56
5, 6840, Note_on_c, 2, 69, 56
5, 6881, Note_on_c, 2, 69, 0
5, 6881, Note_on_c, 2, 73, 0
5, 7020, Note_on_c, 2, 73, 59
5, 7020, Note_on_c, 2, 64, 59
5, 7050, Note_on_c, 2, 64, 0
5, 7050, Note_on_c, 2, 73, 0
5, 7050, Note_on_c, 2, 74, 60
5, 7050, Note_on_c, 2, 66, 60
5, 7065, Note_on_c, 2, 66, 0
5, 7065, Note_on_c, 2, 74, 0
5, 7065, Note_on_c, 2, 76, 60
5, 7065, Note_on_c, 2, 67, 60
5, 7080, Note_on_c, 2, 67, 0
5, 7080, Note_on_c, 2, 76, 0
5, 7080, Note_on_c, 2, 76, 60
5, 7080, Note_on_c, 2, 67, 60
5, 7121, Note_on_c, 2, 67, 0
5, 7121, Note_on_c, 2, 76, 0
5, 7140, Note_on_c, 2, 73, 61
5, 7140, Note_on_c, 2, 64, 61
5, 7170, Note_on_c, 2, 64, 0
5, 7170, Note_on_c, 2, 73, 0
5, 7170, Note_on_c, 2, 74, 62
5, 7170, Note_on_c, 2, 66, 62
5, 7185, Note_on_c, 2, 66, 0
5, 7185, Note_on_c, 2, 74, 0
5, 7185, Note_on_c, 2, 76, 62
5, 7185, Note_on_c, 2, 67, 62
5, 7200, Note_on_c, 2, 67, 0
5, 7200, Note_on_c, 2, 76, 0
5, 7200, Note_on_c, 2, 76, 62
5, 7200, Note_on_c, 2, 67, 62
5, 7241, Note_on_c, 2, 67, 0
5, 7241, Note_on_c, 2, 76, 0
5, 7260, Note_on_c, 2, 74, 63
5, 7260, Note_on_c, 2, 66, 63
5, 7290, Note_on_c, 2, 66, 0
5, 7290, Note_on_c, 2, 74, 0
5, 7290, Note_on_c, 2, 73, 64
5, 7290, Note_on_c, 2, 64, 64
5, 7320, Note_on_c, 2, 64, 0
5, 7320, Note_on_c, 2, 73, 0
5, 7320, Note_on_c, 2, 74, 50
5, 7320, Note_on_c, 2, 66, 50
5, 7361, Note_on_c, 2, 66, 0
5, 7361, Note_on_c, 2, 74, 0
5, 7380, Note_on_c, 2, 62, 51
5, 7380, Note_on_c, 2, 62, 51
5, 7410, Note_on_c, 2, 62, 0
5, 7410, Note_on_c, 2, 62, 0
5, 7410, Note_on_c, 2, 64, 51
5, 7410, Note_on_c, 2, 64, 51
5, 7440, Note_on_c, 2, 64, 0
5, 7440, Note_on_c, 2, 64, 0
5, 7440, Note_on_c, 2, 66, 52
5, 7440, Note_on_c, 2, 66, 52
5, 7470, Note_on_c, 2, 66, 0
5, 7470, Note_on_c, 2, 66, 0
5, 7470, Note_on_c, 2, 68, 52
5, 7470, Note_on_c, 2, 68, 52
5, 7500, Note_on_c, 2, 68, 0
5, 7500, Note_on_c, 2, 68, 0
5, 7500, Note_on_c, 2, 69, 53
5, 7500, Note_on_c, 2, 69, 53
5, 7530, Note_on_c, 2, 69, 0
5, 7530, Note_on_c, 2, 69, 0
5, 7530, Note_on_c, 2, 66, 53
5, 7530, Note_on_c, 2, 66, 53
5, 7560, Note_on_c, 2, 66, 0
5, 7560, Note_on_c, 2, 66, 0
5, 7560, Note_on_c, 2, 71, 53
5, 7560, Note_on_c, 2, 71, 53
5, 7590, Note_on_c, 2, 71, 0
5, 7590, Note_on_c, 2, 71, 0
5, 7590, Note_on_c, 2, 69, 54
5, 7590, Note_on_c, 2, 69, 54
5, 7620, Note_on_c, 2, 69, 0
5, 7620, Note_on_c, 2, 69, 0
5, 7620, Note_on_c, 2, 68, 54
5, 7620, Note_on_c, 2, 68, 54
5, 7650, Note_on_c, 2, 68, 0
5, 7650, Note_on_c, 2, 68, 0
5, 7650, Note_on_c, 2, 66, 55
5, 7650, Note_on_c, 2, 66, 55
5, 7680, Note_on_c, 2, 66, 0
5, 7680, Note_on_c, 2, 66, 0
5, 7680, Note_on_c, 2, 68, 55
5, 7680, Note_on_c, 2, 68, 55
5, 7710, Note_on_c, 2, 68, 0
5, 7710, Note_on_c, 2, 68, 0
5, 7710, Note_on_c, 2, 66, 55
5, 7710, Note_on_c, 2, 66, 55
5, 7740, Note_on_c, 2, 66, 0
5, 7740, Note_on_c, 2, 66, 0
5, 7740, Note_on_c, 2, 64, 56
5, 7740, Note_on_c, 2, 64, 56
5, 7770, Note_on_c, 2, 64, 0
5, 7770, Note_on_c, 2, 64, 0
5, 7770, Note_on_c, 2, 66, 56
5, 7770, Note_on_c, 2, 66, 56
5, 7800, Note_on_c, 2, 66, 0
5, 7800, Note_on_c, 2, 66, 0
5, 7800, Note_on_c, 2, 68, 57
5, 7800, Note_on_c, 2, 68, 57
5, 7830, Note_on_c, 2, 68, 0
5, 7830, Note_on_c, 2, 68, 0
5, 7830, Note_on_c, 2, 69, 57
5, 7830, Note_on_c, 2, 69, 57
5, 7860, Note_on_c, 2, 69, 0
5, 7860, Note_on_c, 2, 69, 0
5, 7860, Note_on_c, 2, 71, 58
5, 7860, Note_on_c, 2, 71, 58
5, 7890, Note_on_c, 2, 71, 0
5, 7890, Note_on_c, 2, 71, 0
5, 7890, Note_on_c, 2, 69, 58
5, 7890, Note_on_c, 2, 69, 58
5, 7920, Note_on_c, 2, 69, 0
5, 7920, Note_on_c, 2, 69, 0
5, 7920, Note_on_c, 2, 73, 58
5, 7920, Note_on_c, 2, 73, 58
5, 7950, Note_on_c, 2, 73, 0
5, 7950, Note_on_c, 2, 73, 0
5, 7950, Note_on_c, 2, 71, 59
5, 7950, Note_on_c, 2, 71, 59
5, 7980, Note_on_c, 2, 71, 0
5, 7980, Note_on_c, 2, 71, 0
5, 7980, Note_on_c, 2, 69, 59
5, 7980, Note_on_c, 2, 69, 59
5, 8010, Note_on_c, 2, 69, 0
5, 8010, Note_on_c, 2, 69, 0
5, 8010, Note_on_c, 2, 68, 60
5, 8010, Note_on_c, 2, 68, 60
5, 8040, Note_on_c, 2, 68, 0
5, 8040, Note_on_c, 2, 68, 0
5, 8040, Note_on_c, 2, 69, 60
5, 8040, Note_on_c, 2, 69, 60
5, 8070, Note_on_c, 2, 69, 0
5, 8070, Note_on_c, 2, 69, 0
5, 8070, Note_on_c, 2, 68, 60
5, 8070, Note_on_c, 2, 68, 60
5, 8100, Note_on_c, 2, 68, 0
5, 8100, Note_on_c, 2, 68, 0
5, 8100, Note_on_c, 2, 66, 61
5, 8100, Note_on_c, 2, 66, 61
5, 8130, Note_on_c, 2, 66, 0
5, 8130, Note_on_c, 2, 66, 0
5, 8130, Note_on_c, 2, 68, 61
5, 8130, Note_on_c, 2, 68, 61
5, 8160, Note_on_c, 2, 68, 0
5, 8160, Note_on_c, 2, 68, 0
5, 8160, Note_on_c, 2, 69, 62
5, 8160, Note_on_c, 2, 69, 62
5, 8190, Note_on_c, 2, 69, 0
5, 8190, Note_on_c, 2, 69, 0
5, 8190, Note_on_c, 2, 71, 62
5, 8190, Note_on_c, 2, 71, 62
5, 8220, Note_on_c, 2, 71, 0
5, 8220, Note_on_c, 2, 71, 0
5, 8220, Note_on_c, 2, 73, 63
5, 8220, Note_on_c, 2, 73, 63
5, 8250, Note_on_c, 2, 73, 0
5, 8250, Note_on_c, 2, 73, 0
5, 8250, Note_on_c, 2, 71, 63
5, 8250, Note_on_c, 2, 71, 63
5, 8280, Note_on_c, 2, 71, 0
5, 8280, Note_on_c, 2, 71, 0
5, 8280, Note_on_c, 2, 74, 63
5, 8280, Note_on_c, 2, 74, 63
5, 8310, Note_on_c, 2, 74, 0
5, 8310, Note_on_c, 2, 74, 0
5, 8310, Note_on_c, 2, 73, 64
5, 8310, Note_on_c, 2, 73, 64
5, 8340, Note_on_c, 2, 73, 0
5, 8340, Note_on_c, 2, 73, 0
5, 8340, Note_on_c, 2, 71, 64
5, 8340, Note_on_c, 2, 71, 64
5, 8370, Note_on_c, 2, 71, 0
5, 8370, Note_on_c, 2, 71, 0
5, 8370, Note_on_c, 2, 69, 65
5, 8370, Note_on_c, 2, 69, 65
5, 8400, Note_on_c, 2, 69, 0
5, 8400, Note_on_c, 2, 69, 0
5, 8400, Note_on_c, 2, 71, 65
5, 8400, Note_on_c, 2, 71, 65
5, 8430, Note_on_c, 2, 71, 0
5, 8430, Note_on_c, 2, 71, 0
5, 8430, Note_on_c, 2, 69, 65
5, 8430, Note_on_c, 2, 69, 65
5, 8460, Note_on_c, 2, 69, 0
5, 8460, Note_on_c, 2, 69, 0
5, 8460, Note_on_c, 2, 68, 66
5, 8460, Note_on_c, 2, 68, 66
5, 8490, Note_on_c, 2, 68, 0
5, 8490, Note_on_c, 2, 68, 0
5, 8490, Note_on_c, 2, 69, 66
5, 8490, Note_on_c, 2, 69, 66
5, 8520, Note_on_c, 2, 69, 0
5, 8520, Note_on_c, 2, 69, 0
5, 8520, Note_on_c, 2, 71, 67
5, 8520, Note_on_c, 2, 71, 67
5, 8550, Note_on_c, 2, 71, 0
5, 8550, Note_on_c, 2, 71, 0
5, 8550, Note_on_c, 2, 73, 67
5, 8550, Note_on_c, 2, 73, 67
5, 8580, Note_on_c, 2, 73, 0
5, 8580, Note_on_c, 2, 73, 0
5, 8580, Note_on_c, 2, 74, 68
5, 8580, Note_on_c, 2, 74, 68
5, 8610, Note_on_c, 2, 74, 0
5, 8610, Note_on_c, 2, 74, 0
5, 8610, Note_on_c, 2, 73, 68
5, 8610, Note_on_c, 2, 73, 68
5, 8640, Note_on_c, 2, 73, 0
5, 8640, Note_on_c, 2, 73, 0
5, 8640, Note_on_c, 2, 76, 68
5, 8640, Note_on_c, 2, 76, 68
5, 8670, Note_on_c, 2, 76, 0
5, 8670, Note_on_c, 2, 76, 0
5, 8670, Note_on_c, 2, 74, 69
5, 8670, Note_on_c, 2, 74, 69
5, 8700, Note_on_c, 2, 74, 0
5, 8700, Note_on_c, 2, 74, 0
5, 8700, Note_on_c, 2, 73, 69
5, 8700, Note_on_c, 2, 73, 69
5, 8730, Note_on_c, 2, 73, 0
5, 8730, Note_on_c, 2, 73, 0
5, 8730, Note_on_c, 2, 71, 70
5, 8730, Note_on_c, 2, 71, 70
5, 8760, Note_on_c, 2, 71, 0
5, 8760, Note_on_c, 2, 71, 0
5, 8760, Note_on_c, 2, 73, 64
5, 8760, Note_on_c, 2, 69, 64
5, 8790, Note_on_c, 2, 69, 0
5, 8790, Note_on_c, 2, 73, 0
5, 8790, Note_on_c, 2, 71, 64
5, 8790, Note_on_c, 2, 68, 64
5, 8820, Note_on_c, 2, 68, 0
5, 8820, Note_on_c, 2, 71, 0
5, 8820, Note_on_c, 2, 73, 64
5, 8820, Note_on_c, 2, 69, 64
5, 8850, Note_on_c, 2, 69, 0
5, 8850, Note_on_c, 2, 73, 0
5, 8850, Note_on_c, 2, 74, 64
5, 8850, Note_on_c, 2, 71, 64
5, 8880, Note_on_c, 2, 71, 0
5, 8880, Note_on_c, 2, 74, 0
5, 8880, Note_on_c, 2, 76, 64
5, 8880, Note_on_c, 2, 73, 64
5, 8921, Note_on_c, 2, 73, 0
5, 8921, Note_on_c, 2, 76, 0
5, 9120, Note_on_c, 2, 73, 64
5, 9120, Note_on_c, 2, 69, 64
5, 9150, Note_on_c, 2, 69, 0
5, 9150, Note_on_c, 2, 73, 0
5, 9150, Note_on_c, 2, 71, 64
5, 9150, Note_on_c, 2, 67, 64
5, 9180, Note_on_c, 2, 67, 0
5, 9180, Note_on_c, 2, 71, 0
5, 9180, Note_on_c, 2, 73, 64
5, 9180, Note_on_c, 2, 69, 64
5, 9210, Note_on_c, 2, 69, 0
5, 9210, Note_on_c, 2, 73, 0
5, 9210, Note_on_c, 2, 74, 64
5, 9210, Note_on_c, 2, 71, 64
5, 9240, Note_on_c, 2, 71, 0
5, 9240, Note_on_c, 2, 74, 0
5, 9240, Note_on_c, 2, 76, 64
5, 9240, Note_on_c, 2, 73, 64
5, 9281, Note_on_c, 2, 73, 0
5, 9281, Note_on_c, 2, 76, 0
5, 9480, Note_on_c, 2, 78, 64
5, 9480, Note_on_c, 2, 75, 64
5, 9510, Note_on_c, 2, 75, 0
5, 9510, Note_on_c, 2, 78, 0
5, 9510, Note_on_c, 2, 76, 64
5, 9510, Note_on_c, 2, 73, 64
5, 9540, Note_on_c, 2, 73, 0
5, 9540, Note_on_c, 2, 76, 0
5, 9540, Note_on_c, 2, 78, 64
5, 9540, Note_on_c, 2, 75, 64
5, 9570, Note_on_c, 2, 75, 0
5, 9570, Note_on_c, 2, 78, 0
5, 9570, Note_on_c, 2, 80, 64
5, 9570, Note_on_c, 2, 76, 64
5, 9600, Note_on_c, 2, 76, 0
5, 9600, Note_on_c, 2, 80, 0
5, 9600, Note_on_c, 2, 81, 64
5, 9600, Note_on_c, 2, 78, 64
5, 9641, Note_on_c, 2, 78, 0
5, 9641, Note_on_c, 2, 81, 0
5, 9840, Note_on_c, 2, 81, 64
5, 9840, Note_on_c, 2, 72, 64
5, 9870, Note_on_c, 2, 72, 0
5, 9870, Note_on_c, 2, 81, 0
5, 9870, Note_on_c, 2, 80, 64
5, 9870, Note_on_c, 2, 71, 64
5, 9900, Note_on_c, 2, 71, 0
5, 9900, Note_on_c, 2, 80, 0
5, 9900, Note_on_c, 2, 81, 64
5, 9900, Note_on_c, 2, 72, 64
5, 9930, Note_on_c, 2, 72, 0
5, 9930, Note_on_c, 2, 81, 0
5, 9930, Note_on_c, 2, 83, 64
5, 9930, Note_on_c, 2, 74, 64
5, 9960, Note_on_c, 2, 74, 0
5, 9960, Note_on_c, 2, 83, 0
5, 9960, Note_on_c, 2, 84, 64
5, 9960, Note_on_c, 2, 76, 64
5, 10001, Note_on_c, 2, 76, 0
5, 10001, Note_on_c, 2, 84, 0
5, 10200, Note_on_c, 2, 78, 64
5, 10200, Note_on_c, 2, 69, 64
5, 10230, Note_on_c, 2, 69, 0
5, 10230, Note_on_c, 2, 78, 0
5, 10230, Note_on_c, 2, 76, 64
5, 10230, Note_on_c, 2, 68, 64
5, 10260, Note_on_c, 2, 68, 0
5, 10260, Note_on_c, 2, 76, 0
5, 10260, Note_on_c, 2, 78, 64
5, 10260, Note_on_c, 2, 69, 64
5, 10290, Note_on_c, 2, 69, 0
5, 10290, Note_on_c, 2, 78, 0
5, 10290, Note_on_c, 2, 80, 64
5, 10290, Note_on_c, 2, 71, 64
5, 10320, Note_on_c, 2, 71, 0
5, 10320, Note_on_c, 2, 80, 0
5, 10320, Note_on_c, 2, 81, 64
5, 10320, Note_on_c, 2, 72, 64
5, 10361, Note_on_c, 2, 72, 0
5, 10361, Note_on_c, 2, 81, 0
5, 10560, Note_on_c, 2, 76, 64
5, 10560, Note_on_c, 2, 68, 64
5, 10590, Note_on_c, 2, 68, 0
5, 10590, Note_on_c, 2, 76, 0
5, 10590, Note_on_c, 2, 74, 64
5, 10590, Note_on_c, 2, 66, 64
5, 10620, Note_on_c, 2, 66, 0
5, 10620, Note_on_c, 2, 74, 0
5, 10620, Note_on_c, 2, 76, 64
5, 10620, Note_on_c, 2, 68, 64
5, 10650, Note_on_c, 2, 68, 0
5, 10650, Note_on_c, 2, 76, 0
5, 10650, Note_on_c, 2, 78, 64
5, 10650, Note_on_c, 2, 69, 64
5, 10680, Note_on_c, 2, 69, 0
5, 10680, Note_on_c, 2, 78, 0
5, 10680, Note_on_c, 2, 80, 64
5, 10680, Note_on_c, 2, 71, 64
5, 10721, Note_on_c, 2, 71, 0
5, 10721, Note_on_c, 2, 80, 0
5, 10950, Note_on_c, 2, 64, 64
5, 10950, Note_on_c, 2, 64, 64
5, 10980, Note_on_c, 2, 64, 0
5, 10980, Note_on_c, 2, 64, 0
5, 10980, Note_on_c, 2, 66, 64
5, 10980, Note_on_c, 2, 66, 64
5, 11010, Note_on_c, 2, 66, 0
5, 11010, Note_on_c, 2, 66, 0
5, 11010, Note_on_c, 2, 68, 64
5, 11010, Note_on_c, 2, 68, 64
5, 11040, Note_on_c, 2, 68, 0
5, 11040, Note_on_c, 2, 68, 0
5, 11040, Note_on_c, 2, 69, 64
5, 11040, Note_on_c, 2, 69, 64
5, 11070, Note_on_c, 2, 69, 0
5, 11070, Note_on_c, 2, 69, 0
5, 11070, Note_on_c, 2, 71, 64
5, 11070, Note_on_c, 2, 71, 64
5, 11100, Note_on_c, 2, 71, 0
5, 11100, Note_on_c, 2, 71, 0
5, 11100, Note_on_c, 2, 73, 64
5, 11100, Note_on_c, 2, 73, 64
5, 11130, Note_on_c, 2, 73, 0
5, 11130, Note_on_c, 2, 73, 0
5, 11130, Note_on_c, 2, 74, 64
5, 11130, Note_on_c, 2, 74, 64
5, 11160, Note_on_c, 2, 74, 0
5, 11160, Note_on_c, 2, 74, 0
5, 11160, Note_on_c, 2, 76, 64
5, 11160, Note_on_c, 2, 76, 64
5, 11190, Note_on_c, 2, 76, 0
5, 11190, Note_on_c, 2, 76, 0
5, 11190, Note_on_c, 2, 78, 64
5, 11190, Note_on_c, 2, 78, 64
5, 11220, Note_on_c, 2, 78, 0
5, 11220, Note_on_c, 2, 78, 0
5, 11220, Note_on_c, 2, 79, 64
5, 11220, Note_on_c, 2, 79, 64
5, 11250, Note_on_c, 2, 79, 0
5, 11250, Note_on_c, 2, 79, 0
5, 11250, Note_on_c, 2, 76, 64
5, 11250, Note_on_c, 2, 76, 64
5, 11280, Note_on_c, 2, 76, 0
5, 11280, Note_on_c, 2, 76, 0
5, 11280, Note_on_c, 2, 78, 64
5, 11280, Note_on_c, 2, 78, 64
5, 11310, Note_on_c, 2, 78, 0
5, 11310, Note_on_c, 2, 78, 0
5, 11310, Note_on_c, 2, 76, 64
5, 11310, Note_on_c, 2, 76, 64
5, 11340, Note_on_c, 2, 76, 0
5, 11340, Note_on_c, 2, 76, 0
5, 11340, Note_on_c, 2, 74, 64
5, 11340, Note_on_c, 2, 74, 64
5, 11370, Note_on_c, 2, 74, 0
5, 11370, Note_on_c, 2, 74, 0
5, 11370, Note_on_c, 2, 73, 64
5, 11370, Note_on_c, 2, 73, 64
5, 11400, Note_on_c, 2, 73, 0
5, 11400, Note_on_c, 2, 73, 0
5, 11400, Note_on_c, 2, 71, 64
5, 11400, Note_on_c, 2, 71, 64
5, 11430, Note_on_c, 2, 71, 0
5, 11430, Note_on_c, 2, 71, 0
5, 11430, Note_on_c, 2, 69, 64
5, 11430, Note_on_c, 2, 69, 64
5, 11460, Note_on_c, 2, 69, 0
5, 11460, Note_on_c, 2, 69, 0
5, 11460, Note_on_c, 2, 68, 64
5, 11460, Note_on_c, 2, 68, 64
5, 11490, Note_on_c, 2, 68, 0
5, 11490, Note_on_c, 2, 68, 0
5, 11490, Note_on_c, 2, 69, 64
5, 11490, Note_on_c, 2, 69, 64
5, 11520, Note_on_c, 2, 69, 0
5, 11520, Note_on_c, 2, 69, 0
5, 11520, Note_on_c, 2, 71, 64
5, 11520, Note_on_c, 2, 71, 64
5, 11550, Note_on_c, 2, 71, 0
5, 11550, Note_on_c, 2, 71, 0
5, 11550, Note_on_c, 2, 73, 64
5, 11550, Note_on_c, 2, 73, 64
5, 11580, Note_on_c, 2, 73, 0
5, 11580, Note_on_c, 2, 73, 0
5, 11580, Note_on_c, 2, 74, 64
5, 11580, Note_on_c, 2, 74, 64
5, 11610, Note_on_c, 2, 74, 0
5, 11610, Note_on_c, 2, 74, 0
5, 11610, Note_on_c, 2, 71, 64
5, 11610, Note_on_c, 2, 71, 64
5, 11640, Note_on_c, 2, 71, 0
5, 11640, Note_on_c, 2, 71, 0
5, 11640, Note_on_c, 2, 76, 64
5, 11640, Note_on_c, 2, 76, 64
5, 11670, Note_on_c, 2, 76, 0
5, 11670, Note_on_c, 2, 76, 0
5, 11670, Note_on_c, 2, 74, 64
5, 11670, Note_on_c, 2, 74, 64
5, 11700, Note_on_c, 2, 74, 0
5, 11700, Note_on_c, 2, 74, 0
5, 11700, Note_on_c, 2, 73, 64
5, 11700, Note_on_c, 2, 73, 64
5, 11730, Note_on_c, 2, 73, 0
5, 11730, Note_on_c, 2, 73, 0
5, 11730, Note_on_c, 2, 71, 64
5, 11730, Note_on_c, 2, 71, 64
5, 11760, Note_on_c, 2, 71, 0
5, 11760, Note_on_c, 2, 71, 0
5, 11760, Note_on_c, 2, 69, 64
5, 11760, Note_on_c, 2, 69, 64
5, 11790, Note_on_c, 2, 69, 0
5, 11790, Note_on_c, 2, 69, 0
5, 11790, Note_on_c, 2, 68, 64
5, 11790, Note_on_c, 2, 68, 64
5, 11820, Note_on_c, 2, 68, 0
5, 11820, Note_on_c, 2, 68, 0
5, 11820, Note_on_c, 2, 66, 64
5, 11820, Note_on_c, 2, 66, 64
5, 11850, Note_on_c, 2, 66, 0
5, 11850, Note_on_c, 2, 66, 0
5, 11850, Note_on_c, 2, 68, 64
5, 11850, Note_on_c, 2, 68, 64
5, 11880, Note_on_c, 2, 68, 0
5, 11880, Note_on_c, 2, 68, 0
5, 11880, Note_on_c, 2, 69, 64
5, 11880, Note_on_c, 2, 69, 64
5, 11910, Note_on_c, 2, 69, 0
5, 11910, Note_on_c, 2, 69, 0
5, 11910, Note_on_c, 2, 71, 64
5, 11910, Note_on_c, 2, 71, 64
5, 11940, Note_on_c, 2, 71, 0
5, 11940, Note_on_c, 2, 71, 0
5, 11940, Note_on_c, 2, 73, 64
5, 11940, Note_on_c, 2, 73, 64
5, 11970, Note_on_c, 2, 73, 0
5, 11970, Note_on_c, 2, 73, 0
5, 11970, Note_on_c, 2, 69, 64
5, 11970, Note_on_c, 2, 69, 64
5, 12000, Note_on_c, 2, 69, 0
5, 12000, Note_on_c, 2, 69, 0
5, 12000, Note_on_c, 2, 74, 64
5, 12000, Note_on_c, 2, 74, 64
5, 12030, Note_on_c, 2, 74, 0
5, 12030, Note_on_c, 2, 74, 0
5, 12030, Note_on_c, 2, 64, 64
5, 12030, Note_on_c, 2, 64, 64
5, 12060, Note_on_c, 2, 64, 0
5, 12060, Note_on_c, 2, 64, 0
5, 12060, Note_on_c, 2, 66, 64
5, 12060, Note_on_c, 2, 66, 64
5, 12090, Note_on_c, 2, 66, 0
5, 12090, Note_on_c, 2, 66, 0
5, 12090, Note_on_c, 2, 68, 64
5, 12090, Note_on_c, 2, 68, 64
5, 12120, Note_on_c, 2, 68, 0
5, 12120, Note_on_c, 2, 68, 0
5, 12120, Note_on_c, 2, 69, 64
5, 12120, Note_on_c, 2, 69, 64
5, 12150, Note_on_c, 2, 69, 0
5, 12150, Note_on_c, 2, 69, 0
5, 12150, Note_on_c, 2, 66, 64
5, 12150, Note_on_c, 2, 66, 64
5, 12180, Note_on_c, 2, 66, 0
5, 12180, Note_on_c, 2, 66, 0
5, 12180, Note_on_c, 2, 68, 64
5, 12180, Note_on_c, 2, 68, 64
5, 12210, Note_on_c, 2, 68, 0
5, 12210, Note_on_c, 2, 68, 0
5, 12210, Note_on_c, 2, 69, 64
5, 12210, Note_on_c, 2, 69, 64
5, 12240, Note_on_c, 2, 69, 0
5, 12240, Note_on_c, 2, 69, 0
5, 12240, Note_on_c, 2, 71, 64
5, 12240, Note_on_c, 2, 71, 64
5, 12270, Note_on_c, 2, 71, 0
5, 12270, Note_on_c, 2, 71, 0
5, 12270, Note_on_c, 2, 73, 64
5, 12270, Note_on_c, 2, 73, 64
5, 12300, Note_on_c, 2, 73, 0
5, 12300, Note_on_c, 2, 73, 0
5, 12300, Note_on_c, 2, 74, 64
5, 12300, Note_on_c, 2, 74, 64
5, 12330, Note_on_c, 2, 74, 0
5, 12330, Note_on_c, 2, 74, 0
5, 12330, Note_on_c, 2, 71, 64
5, 12330, Note_on_c, 2, 71, 64
5, 12360, Note_on_c, 2, 71, 0
5, 12360, Note_on_c, 2, 71, 0
5, 12360, Note_on_c, 2, 68, 64
5, 12360, Note_on_c, 2, 68, 64
5, 12390, Note_on_c, 2, 68, 0
5, 12390, Note_on_c, 2, 68, 0
5, 12390, Note_on_c, 2, 76, 65
5, 12390, Note_on_c, 2, 76, 65
5, 12420, Note_on_c, 2, 76, 0
5, 12420, Note_on_c, 2, 76, 0
5, 12420, Note_on_c, 2, 74, 65
5, 12420, Note_on_c, 2, 74, 65
5, 12450, Note_on_c, 2, 74, 0
5, 12450, Note_on_c, 2, 74, 0
5, 12450, Note_on_c, 2, 73, 66
5, 12450, Note_on_c, 2, 73, 66
5, 12480, Note_on_c, 2, 73, 0
5, 12480, Note_on_c, 2, 73, 0
5, 12480, Note_on_c, 2, 71, 67
5, 12480, Note_on_c, 2, 71, 67
5, 12510, Note_on_c, 2, 71, 0
5, 12510, Note_on_c, 2, 71, 0
5, 12510, Note_on_c, 2, 69, 67
5, 12510, Note_on_c, 2, 69, 67
5, 12540, Note_on_c, 2, 69, 0
5, 12540, Note_on_c, 2, 69, 0
5, 12540, Note_on_c, 2, 68, 68
5, 12540, Note_on_c, 2, 68, 68
5, 12570, Note_on_c, 2, 68, 0
5, 12570, Note_on_c, 2, 68, 0
5, 12570, Note_on_c, 2, 66, 69
5, 12570, Note_on_c, 2, 66, 69
5, 12600, Note_on_c, 2, 66, 0
5, 12600, Note_on_c, 2, 66, 0
5, 12600, Note_on_c, 2, 64, 69
5, 12600, Note_on_c, 2, 64, 69
5, 12630, Note_on_c, 2, 64, 0
5, 12630, Note_on_c, 2, 64, 0
5, 12630, Note_on_c, 2, 66, 70
5, 12630, Note_on_c, 2, 66, 70
5, 12660, Note_on_c, 2, 66, 0
5, 12660, Note_on_c, 2, 66, 0
5, 12660, Note_on_c, 2, 68, 71
5, 12660, Note_on_c, 2, 68, 71
5, 12690, Note_on_c, 2, 68, 0
5, 12690, Note_on_c, 2, 68, 0
5, 12690, Note_on_c, 2, 64, 71
5, 12690, Note_on_c, 2, 64, 71
5, 12720, Note_on_c, 2, 64, 0
5, 12720, Note_on_c, 2, 64, 0
5, 12720, Note_on_c, 2, 69, 72
5, 12720, Note_on_c, 2, 69, 72
5, 12750, Note_on_c, 2, 69, 0
5, 12750, Note_on_c, 2, 69, 0
5, 12750, Note_on_c, 2, 71, 73
5, 12750, Note_on_c, 2, 71, 73
5, 12780, Note_on_c, 2, 71, 0
5, 12780, Note_on_c, 2, 71, 0
5, 12780, Note_on_c, 2, 73, 73
5, 12780, Note_on_c, 2, 73, 73
5, 12810, Note_on_c, 2, 73, 0
5, 12810, Note_on_c, 2, 73, 0
5, 12810, Note_on_c, 2, 74, 74
5, 12810, Note_on_c, 2, 74, 74
5, 12840, Note_on_c, 2, 74, 0
5, 12840, Note_on_c, 2, 74, 0
5, 12840, Note_on_c, 2, 76, 75
5, 12840, Note_on_c, 2, 76, 75
5, 12870, Note_on_c, 2, 76, 0
5, 12870, Note_on_c, 2, 76, 0
5, 12870, Note_on_c, 2, 74, 75
5, 12870, Note_on_c, 2, 74, 75
5, 12900, Note_on_c, 2, 74, 0
5, 12900, Note_on_c, 2, 74, 0
5, 12900, Note_on_c, 2, 78, 76
5, 12900, Note_on_c, 2, 78, 76
5, 12930, Note_on_c, 2, 78, 0
5, 12930, Note_on_c, 2, 78, 0
5, 12930, Note_on_c, 2, 76, 77
5, 12930, Note_on_c, 2, 76, 77
5, 12960, Note_on_c, 2, 76, 0
5, 12960, Note_on_c, 2, 76, 0
5, 12960, Note_on_c, 2, 74, 77
5, 12960, Note_on_c, 2, 74, 77
5, 12990, Note_on_c, 2, 74, 0
5, 12990, Note_on_c, 2, 74, 0
5, 12990, Note_on_c, 2, 73, 78
5, 12990, Note_on_c, 2, 73, 78
5, 13020, Note_on_c, 2, 73, 0
5, 13020, Note_on_c, 2, 73, 0
5, 13020, Note_on_c, 2, 71, 79
5, 13020, Note_on_c, 2, 71, 79
5, 13050, Note_on_c, 2, 71, 0
5, 13050, Note_on_c, 2, 71, 0
5, 13050, Note_on_c, 2, 73, 79
5, 13050, Note_on_c, 2, 73, 79
5, 13080, Note_on_c, 2, 73, 0
5, 13080, Note_on_c, 2, 73, 0
5, 13080, Note_on_c, 2, 69, 80
5, 13080, Note_on_c, 2, 69, 80
5, 13200, Note_on_c, 2, 69, 0
5, 13200, Note_on_c, 2, 69, 0
5, 22860, Note_on_c, 2, 78, 64
5, 22860, Note_on_c, 2, 74, 64
5, 22980, Note_on_c, 2, 74, 0
5, 22980, Note_on_c, 2, 78, 0
5, 22980, Note_on_c, 2, 76, 64
5, 22980, Note_on_c, 2, 73, 64
5, 23010, Note_on_c, 2, 73, 0
5, 23010, Note_on_c, 2, 76, 0
5, 23010, Note_on_c, 2, 74, 64
5, 23010, Note_on_c, 2, 71, 64
5, 23040, Note_on_c, 2, 71, 0
5, 23040, Note_on_c, 2, 74, 0
5, 23040, Note_on_c, 2, 76, 64
5, 23040, Note_on_c, 2, 73, 64
5, 23130, Note_on_c, 2, 73, 0
5, 23130, Note_on_c, 2, 76, 0
5, 23130, Note_on_c, 2, 78, 64
5, 23130, Note_on_c, 2, 74, 64
5, 23145, Note_on_c, 2, 74, 0
5, 23145, Note_on_c, 2, 78, 0
5, 23145, Note_on_c, 2, 79, 64
5, 23145, Note_on_c, 2, 76, 64
5, 23160, Note_on_c, 2, 76, 0
5, 23160, Note_on_c, 2, 79, 0
5, 23160, Note_on_c, 2, 78, 64
5, 23160, Note_on_c, 2, 74, 64
5, 23201, Note_on_c, 2, 74, 0
5, 23201, Note_on_c, 2, 78, 0
5, 23220, Note_on_c, 2, 74, 64
5, 23220, Note_on_c, 2, 71, 64
5, 23261, Note_on_c, 2, 71, 0
5, 23261, Note_on_c, 2, 74, 0
5, 23280, Note_on_c, 2, 78, 64
5, 23280, Note_on_c, 2, 74, 64
5, 23321, Note_on_c, 2, 74, 0
5, 23321, Note_on_c, 2, 78, 0
5, 23340, Note_on_c, 2, 83, 64
5, 23340, Note_on_c, 2, 78, 64
5, 23381, Note_on_c, 2, 78, 0
5, 23381, Note_on_c, 2, 83, 0
5, 23400, Note_on_c, 2, 78, 64
5, 23400, Note_on_c, 2, 74, 64
5, 23441, Note_on_c, 2, 74, 0
5, 23441, Note_on_c, 2, 78, 0
5, 23460, Note_on_c, 2, 76, 64
5, 23460, Note_on_c, 2, 73, 64
5, 23490, Note_on_c, 2, 73, 0
5, 23490, Note_on_c, 2, 76, 0
5, 23490, Note_on_c, 2, 74, 64
5, 23490, Note_on_c, 2, 71, 64
5, 23520, Note_on_c, 2, 71, 0
5, 23520, Note_on_c, 2, 74, 0
5, 23520, Note_on_c, 2, 76, 64
5, 23520, Note_on_c, 2, 73, 64
5, 23561, Note_on_c, 2, 73, 0
5, 23561, Note_on_c, 2, 76, 0
5, 23580, Note_on_c, 2, 66, 64
5, 23580, Note_on_c, 2, 66, 64
5, 23621, Note_on_c, 2, 66, 0
5, 23621, Note_on_c, 2, 66, 0
5, 23640, Note_on_c, 2, 66, 64
5, 23640, Note_on_c, 2, 66, 64
5, 23681, Note_on_c, 2, 66, 0
5, 23681, Note_on_c, 2, 66, 0
5, 23700, Note_on_c, 2, 66, 64
5, 23700, Note_on_c, 2, 66, 64
5, 23741, Note_on_c, 2, 66, 0
5, 23741, Note_on_c, 2, 66, 0
5, 23760, Note_on_c, 2, 66, 64
5, 23760, Note_on_c, 2, 66, 64
5, 23801, Note_on_c, 2, 66, 0
5, 23801, Note_on_c, 2, 66, 0
5, 23820, Note_on_c, 2, 66, 64
5, 23820, Note_on_c, 2, 66, 64
5, 23861, Note_on_c, 2, 66, 0
5, 23861, Note_on_c, 2, 66, 0
5, 23880, Note_on_c, 2, 66, 64
5, 23880, Note_on_c, 2, 66, 64
5, 23921, Note_on_c, 2, 66, 0
5, 23921, Note_on_c, 2, 66, 0
5, 23940, Note_on_c, 2, 76, 64
5, 23940, Note_on_c, 2, 70, 64
5, 23981, Note_on_c, 2, 70, 0
5, 23981, Note_on_c, 2, 76, 0
5, 24000, Note_on_c, 2, 82, 64
5, 24000, Note_on_c, 2, 73, 64
5, 24041, Note_on_c, 2, 73, 0
5, 24041, Note_on_c, 2, 82, 0
5, 24060, Note_on_c, 2, 85, 64
5, 24060, Note_on_c, 2, 76, 64
5, 24101, Note_on_c, 2, 76, 0
5, 24101, Note_on_c, 2, 85, 0
5, 24120, Note_on_c, 2, 76, 64
5, 24120, Note_on_c, 2, 73, 64
5, 24161, Note_on_c, 2, 73, 0
5, 24161, Note_on_c, 2, 76, 0
5, 24180, Note_on_c, 2, 74, 64
5, 24180, Note_on_c, 2, 71, 64
5, 24210, Note_on_c, 2, 71, 0
5, 24210, Note_on_c, 2, 74, 0
5, 24210, Note_on_c, 2, 73, 64
5, 24210, Note_on_c, 2, 70, 64
5, 24240, Note_on_c, 2, 70, 0
5, 24240, Note_on_c, 2, 73, 0
5, 24240, Note_on_c, 2, 74, 64
5, 24240, Note_on_c, 2, 71, 64
5, 24281, Note_on_c, 2, 71, 0
5, 24281, Note_on_c, 2, 74, 0
5, 24300, Note_on_c, 2, 74, 64
5, 24300, Note_on_c, 2, 71, 64
5, 24330, Note_on_c, 2, 71, 0
5, 24330, Note_on_c, 2, 74, 0
5, 24330, Note_on_c, 2, 76, 64
5, 24330, Note_on_c, 2, 73, 64
5, 24345, Note_on_c, 2, 73, 0
5, 24345, Note_on_c, 2, 76, 0
5, 24345, Note_on_c, 2, 78, 64
5, 24345, Note_on_c, 2, 74, 64
5, 24360, Note_on_c, 2, 74, 0
5, 24360, Note_on_c, 2, 78, 0
5, 24360, Note_on_c, 2, 78, 64
5, 24360, Note_on_c, 2, 74, 64
5, 24401, Note_on_c, 2, 74, 0
5, 24401, Note_on_c, 2, 78, 0
5, 24420, Note_on_c, 2, 74, 64
5, 24420, Note_on_c, 2, 71, 64
5, 24450, Note_on_c, 2, 71, 0
5, 24450, Note_on_c, 2, 74, 0
5, 24450, Note_on_c, 2, 76, 64
5, 24450, Note_on_c, 2, 73, 64
5, 24465, Note_on_c, 2, 73, 0
5, 24465, Note_on_c, 2, 76, 0
5, 24465, Note_on_c, 2, 78, 64
5, 24465, Note_on_c, 2, 74, 64
5, 24480, Note_on_c, 2, 74, 0
5, 24480, Note_on_c, 2, 78, 0
5, 24480, Note_on_c, 2, 78, 64
5, 24480, Note_on_c, 2, 74, 64
5, 24521, Note_on_c, 2, 74, 0
5, 24521, Note_on_c, 2, 78, 0
5, 24540, Note_on_c, 2, 76, 64
5, 24540, Note_on_c, 2, 73, 64
5, 24570, Note_on_c, 2, 73, 0
5, 24570, Note_on_c, 2, 76, 0
5, 24570, Note_on_c, 2, 74, 64
5, 24570, Note_on_c, 2, 71, 64
5, 24600, Note_on_c, 2, 71, 0
5, 24600, Note_on_c, 2, 74, 0
5, 24600, Note_on_c, 2, 80, 64
5, 24600, Note_on_c, 2, 71, 64
5, 24720, Note_on_c, 2, 71, 0
5, 24720, Note_on_c, 2, 80, 0
5, 25020, Note_on_c, 2, 73, 64
5, 25020, Note_on_c, 2, 69, 64
5, 25061, Note_on_c, 2, 69, 0
5, 25061, Note_on_c, 2, 73, 0
5, 25080, Note_on_c, 2, 76, 64
5, 25080, Note_on_c, 2, 73, 64
5, 25121, Note_on_c, 2, 73, 0
5, 25121, Note_on_c, 2, 76, 0
5, 25140, Note_on_c, 2, 81, 64
5, 25140, Note_on_c, 2, 76, 64
5, 25181, Note_on_c, 2, 76, 0
5, 25181, Note_on_c, 2, 81, 0
5, 25200, Note_on_c, 2, 76, 64
5, 25200, Note_on_c, 2, 73, 64
5, 25241, Note_on_c, 2, 73, 0
5, 25241, Note_on_c, 2, 76, 0
5, 25260, Note_on_c, 2, 73, 64
5, 25260, Note_on_c, 2, 69, 64
5, 25301, Note_on_c, 2, 69, 0
5, 25301, Note_on_c, 2, 73, 0
5, 25380, Note_on_c, 2, 69, 64
5, 25380, Note_on_c, 2, 66, 64
5, 25421, Note_on_c, 2, 66, 0
5, 25421, Note_on_c, 2, 69, 0
5, 25440, Note_on_c, 2, 73, 64
5, 25440, Note_on_c, 2, 69, 64
5, 25481, Note_on_c, 2, 69, 0
5, 25481, Note_on_c, 2, 73, 0
5, 25500, Note_on_c, 2, 78, 64
5, 25500, Note_on_c, 2, 73, 64
5, 25541, Note_on_c, 2, 73, 0
5, 25541, Note_on_c, 2, 78, 0
5, 25560, Note_on_c, 2, 73, 64
5, 25560, Note_on_c, 2, 69, 64
5, 25601, Note_on_c, 2, 69, 0
5, 25601, Note_on_c, 2, 73, 0
5, 25620, Note_on_c, 2, 69, 64
5, 25620, Note_on_c, 2, 66, 64
5, 25661, Note_on_c, 2, 66, 0
5, 25661, Note_on_c, 2, 69, 0
5, 25680, Note_on_c, 2, 66, 64
5, 25680, Note_on_c, 2, 66, 64
5, 25860, Note_on_c, 2, 66, 0
5, 25860, Note_on_c, 2, 66, 0
5, 25860, Note_on_c, 2, 68, 64
5, 25860, Note_on_c, 2, 68, 64
5, 25890, Note_on_c, 2, 68, 0
5, 25890, Note_on_c, 2, 68, 0
5, 25890, Note_on_c, 2, 69, 64
5, 25890, Note_on_c, 2, 69, 64
5, 25920, Note_on_c, 2, 69, 0
5, 25920, Note_on_c, 2, 69, 0
5, 25920, Note_on_c, 2, 71, 64
5, 25920, Note_on_c, 2, 71, 64
5, 25950, Note_on_c, 2, 71, 0
5, 25950, Note_on_c, 2, 71, 0
5, 25950, Note_on_c, 2, 73, 64
5, 25950, Note_on_c, 2, 73, 64
5, 25980, Note_on_c, 2, 73, 0
5, 25980, Note_on_c, 2, 73, 0
5, 25980, Note_on_c, 2, 74, 64
5, 25980, Note_on_c, 2, 74, 64
5, 26010, Note_on_c, 2, 74, 0
5, 26010, Note_on_c, 2, 74, 0
5, 26010, Note_on_c, 2, 71, 64
5, 26010, Note_on_c, 2, 71, 64
5, 26040, Note_on_c, 2, 71, 0
5, 26040, Note_on_c, 2, 71, 0
5, 26040, Note_on_c, 2, 68, 64
5, 26040, Note_on_c, 2, 68, 64
5, 26190, Note_on_c, 2, 68, 0
5, 26190, Note_on_c, 2, 68, 0
5, 26190, Note_on_c, 2, 66, 64
5, 26190, Note_on_c, 2, 66, 64
5, 26220, Note_on_c, 2, 66, 0
5, 26220, Note_on_c, 2, 66, 0
5, 26220, Note_on_c, 2, 65, 64
5, 26220, Note_on_c, 2, 65, 64
5, 26250, Note_on_c, 2, 65, 0
5, 26250, Note_on_c, 2, 65, 0
5, 26250, Note_on_c, 2, 66, 64
5, 26250, Note_on_c, 2, 66, 64
5, 26280, Note_on_c, 2, 66, 0
5, 26280, Note_on_c, 2, 66, 0
5, 26280, Note_on_c, 2, 68, 64
5, 26280, Note_on_c, 2, 68, 64
5, 26310, Note_on_c, 2, 68, 0
5, 26310, Note_on_c, 2, 68, 0
5, 26310, Note_on_c, 2, 69, 64
5, 26310, Note_on_c, 2, 69, 64
5, 26340, Note_on_c, 2, 69, 0
5, 26340, Note_on_c, 2, 69, 0
5, 26340, Note_on_c, 2, 71, 64
5, 26340, Note_on_c, 2, 71, 64
5, 26370, Note_on_c, 2, 71, 0
5, 26370, Note_on_c, 2, 71, 0
5, 26370, Note_on_c, 2, 68, 64
5, 26370, Note_on_c, 2, 68, 64
5, 26400, Note_on_c, 2, 68, 0
5, 26400, Note_on_c, 2, 68, 0
5, 26400, Note_on_c, 2, 69, 64
5, 26400, Note_on_c, 2, 69, 64
5, 26441, Note_on_c, 2, 69, 0
5, 26460, Note_on_c, 2, 73, 64
5, 26501, Note_on_c, 2, 73, 0
5, 26520, Note_on_c, 2, 69, 0
5, 26520, Note_on_c, 2, 78, 64
5, 26561, Note_on_c, 2, 78, 0
5, 26580, Note_on_c, 2, 81, 64
5, 26580, Note_on_c, 2, 73, 64
5, 26621, Note_on_c, 2, 73, 0
5, 26621, Note_on_c, 2, 81, 0
5, 26640, Note_on_c, 2, 78, 64
5, 26640, Note_on_c, 2, 78, 64
5, 26681, Note_on_c, 2, 78, 0
5, 26681, Note_on_c, 2, 78, 0
5, 26700, Note_on_c, 2, 73, 64
5, 26700, Note_on_c, 2, 81, 64
5, 26741, Note_on_c, 2, 81, 0
5, 26741, Note_on_c, 2, 73, 0
5, 26760, Note_on_c, 2, 78, 64
5, 26801, Note_on_c, 2, 78, 0
5, 26820, Note_on_c, 2, 78, 64
5, 26820, Note_on_c, 2, 73, 64
5, 26861, Note_on_c, 2, 73, 0
5, 26861, Note_on_c, 2, 78, 0
5, 26880, Note_on_c, 2, 81, 64
5, 26921, Note_on_c, 2, 81, 0
5, 26940, Note_on_c, 2, 85, 64
5, 26940, Note_on_c, 2, 78, 64
5, 26981, Note_on_c, 2, 78, 0
5, 26981, Note_on_c, 2, 85, 0
5, 27000, Note_on_c, 2, 81, 64
5, 27000, Note_on_c, 2, 81, 64
5, 27041, Note_on_c, 2, 81, 0
5, 27041, Note_on_c, 2, 81, 0
5, 27060, Note_on_c, 2, 78, 64
5, 27060, Note_on_c, 2, 85, 64
5, 27101, Note_on_c, 2, 85, 0
5, 27101, Note_on_c, 2, 78, 0
5, 27120, Note_on_c, 2, 81, 64
5, 27161, Note_on_c, 2, 81, 0
5, 27180, Note_on_c, 2, 81, 64
5, 27180, Note_on_c, 2, 78, 64
5, 27221, Note_on_c, 2, 78, 0
5, 27221, Note_on_c, 2, 81, 0
5, 27240, Note_on_c, 2, 78, 64
5, 27281, Note_on_c, 2, 78, 0
5, 27300, Note_on_c, 2, 75, 64
5, 27300, Note_on_c, 2, 81, 64
5, 27341, Note_on_c, 2, 81, 0
5, 27341, Note_on_c, 2, 75, 0
5, 27360, Note_on_c, 2, 78, 64
5, 27360, Note_on_c, 2, 78, 64
5, 27401, Note_on_c, 2, 78, 0
5, 27401, Note_on_c, 2, 78, 0
5, 27420, Note_on_c, 2, 81, 64
5, 27420, Note_on_c, 2, 75, 64
5, 27461, Note_on_c, 2, 75, 0
5, 27461, Note_on_c, 2, 81, 0
5, 27480, Note_on_c, 2, 78, 64
5, 27521, Note_on_c, 2, 78, 0
5, 27540, Note_on_c, 2, 81, 64
5, 27540, Note_on_c, 2, 81, 64
5, 27581, Note_on_c, 2, 81, 0
5, 27581, Note_on_c, 2, 81, 0
5, 27600, Note_on_c, 2, 78, 64
5, 27641, Note_on_c, 2, 78, 0
5, 27660, Note_on_c, 2, 73, 64
5, 27660, Note_on_c, 2, 81, 64
5, 27701, Note_on_c, 2, 81, 0
5, 27701, Note_on_c, 2, 73, 0
5, 27720, Note_on_c, 2, 78, 64
5, 27720, Note_on_c, 2, 78, 64
5, 27761, Note_on_c, 2, 78, 0
5, 27761, Note_on_c, 2, 78, 0
5, 27780, Note_on_c, 2, 81, 64
5, 27780, Note_on_c, 2, 73, 64
5, 27821, Note_on_c, 2, 73, 0
5, 27821, Note_on_c, 2, 81, 0
5, 27840, Note_on_c, 2, 78, 64
5, 27881, Note_on_c, 2, 78, 0
5, 27900, Note_on_c, 2, 81, 64
5, 27900, Note_on_c, 2, 81, 64
5, 27941, Note_on_c, 2, 81, 0
5, 27941, Note_on_c, 2, 81, 0
5, 27960, Note_on_c, 2, 78, 64
5, 28001, Note_on_c, 2, 78, 0
5, 28020, Note_on_c, 2, 75, 64
5, 28020, Note_on_c, 2, 81, 64
5, 28061, Note_on_c, 2, 81, 0
5, 28061, Note_on_c, 2, 75, 0
5, 28080, Note_on_c, 2, 78, 64
5, 28080, Note_on_c, 2, 78, 64
5, 28121, Note_on_c, 2, 78, 0
5, 28121, Note_on_c, 2, 78, 0
5, 28140, Note_on_c, 2, 80, 64
5, 28140, Note_on_c, 2, 75, 64
5, 28181, Note_on_c, 2, 75, 0
5, 28181, Note_on_c, 2, 80, 0
5, 28200, Note_on_c, 2, 77, 64
5, 28241, Note_on_c, 2, 77, 0
5, 28260, Note_on_c, 2, 80, 66
5, 28260, Note_on_c, 2, 80, 66
5, 28301, Note_on_c, 2, 80, 0
5, 28301, Note_on_c, 2, 80, 0
5, 28320, Note_on_c, 2, 77, 67
5, 28361, Note_on_c, 2, 77, 0
5, 28380, Note_on_c, 2, 73, 69
5, 28380, Note_on_c, 2, 80, 69
5, 28421, Note_on_c, 2, 80, 0
5, 28421, Note_on_c, 2, 73, 0
5, 28440, Note_on_c, 2, 77, 71
5, 28440, Note_on_c, 2, 77, 71
5, 28481, Note_on_c, 2, 77, 0
5, 28481, Note_on_c, 2, 77, 0
5, 28500, Note_on_c, 2, 80, 72
5, 28500, Note_on_c, 2, 73, 72
5, 28541, Note_on_c, 2, 73, 0
5, 28541, Note_on_c, 2, 80, 0
5, 28560, Note_on_c, 2, 78, 75
5, 28601, Note_on_c, 2, 78, 0
5, 28620, Note_on_c, 2, 73, 76
5, 28620, Note_on_c, 2, 73, 76
5, 28661, Note_on_c, 2, 73, 0
5, 28661, Note_on_c, 2, 73, 0
5, 28680, Note_on_c, 2, 69, 77
5, 28721, Note_on_c, 2, 69, 0
5, 28740, Note_on_c, 2, 73, 78
5, 28740, Note_on_c, 2, 73, 78
5, 28781, Note_on_c, 2, 73, 0
5, 28781, Note_on_c, 2, 73, 0
5, 28800, Note_on_c, 2, 78, 78
5, 28800, Note_on_c, 2, 78, 78
5, 28841, Note_on_c, 2, 78, 0
5, 28841, Note_on_c, 2, 78, 0
5, 28860, Note_on_c, 2, 73, 79
5, 28860, Note_on_c, 2, 73, 79
5, 28901, Note_on_c, 2, 73, 0
5, 28901, Note_on_c, 2, 73, 0
5, 28920, Note_on_c, 2, 69, 50
5, 28920, Note_on_c, 2, 69, 50
5, 28950, Note_on_c, 2, 69, 0
5, 28950, Note_on_c, 2, 69, 0
5, 28950, Note_on_c, 2, 68, 50
5, 28950, Note_on_c, 2, 68, 50
5, 28980, Note_on_c, 2, 68, 0
5, 28980, Note_on_c, 2, 68, 0
5, 28980, Note_on_c, 2, 69, 50
5, 28980, Note_on_c, 2, 69, 50
5, 29010, Note_on_c, 2, 69, 0
5, 29010, Note_on_c, 2, 69, 0
5, 29010, Note_on_c, 2, 71, 50
5, 29010, Note_on_c, 2, 71, 50
5, 29040, Note_on_c, 2, 71, 0
5, 29040, Note_on_c, 2, 71, 0
5, 29040, Note_on_c, 2, 73, 50
5, 29040, Note_on_c, 2, 73, 50
5, 29081, Note_on_c, 2, 73, 0
5, 29081, Note_on_c, 2, 73, 0
5, 29100, Note_on_c, 2, 69, 50
5, 29100, Note_on_c, 2, 69, 50
5, 29141, Note_on_c, 2, 69, 0
5, 29141, Note_on_c, 2, 69, 0
5, 29160, Note_on_c, 2, 73, 50
5, 29160, Note_on_c, 2, 73, 50
5, 29201, Note_on_c, 2, 73, 0
5, 29201, Note_on_c, 2, 73, 0
5, 29220, Note_on_c, 2, 69, 50
5, 29220, Note_on_c, 2, 69, 50
5, 29261, Note_on_c, 2, 69, 0
5, 29261, Note_on_c, 2, 69, 0
5, 29280, Note_on_c, 2, 66, 50
5, 29280, Note_on_c, 2, 66, 50
5, 29321, Note_on_c, 2, 66, 0
5, 29321, Note_on_c, 2, 66, 0
5, 29340, Note_on_c, 2, 69, 50
5, 29340, Note_on_c, 2, 69, 50
5, 29370, Note_on_c, 2, 69, 0
5, 29370, Note_on_c, 2, 69, 0
5, 29370, Note_on_c, 2, 68, 50
5, 29370, Note_on_c, 2, 68, 50
5, 29400, Note_on_c, 2, 68, 0
5, 29400, Note_on_c, 2, 68, 0
5, 29400, Note_on_c, 2, 66, 50
5, 29400, Note_on_c, 2, 66, 50
5, 29441, Note_on_c, 2, 66, 0
5, 29441, Note_on_c, 2, 66, 0
5, 29460, Note_on_c, 2, 69, 50
5, 29460, Note_on_c, 2, 69, 50
5, 29501, Note_on_c, 2, 69, 0
5, 29501, Note_on_c, 2, 69, 0
5, 29520, Note_on_c, 2, 71, 50
5, 29520, Note_on_c, 2, 71, 50
5, 29561, Note_on_c, 2, 71, 0
5, 29561, Note_on_c, 2, 71, 0
5, 29580, Note_on_c, 2, 74, 50
5, 29580, Note_on_c, 2, 74, 50
5, 29621, Note_on_c, 2, 74, 0
5, 29621, Note_on_c, 2, 74, 0
5, 29640, Note_on_c, 2, 68, 50
5, 29640, Note_on_c, 2, 68, 50
5, 29681, Note_on_c, 2, 68, 0
5, 29681, Note_on_c, 2, 68, 0
5, 29700, Note_on_c, 2, 71, 50
5, 29700, Note_on_c, 2, 71, 50
5, 29730, Note_on_c, 2, 71, 0
5, 29730, Note_on_c, 2, 71, 0
5, 29730, Note_on_c, 2, 69, 50
5, 29730, Note_on_c, 2, 69, 50
5, 29760, Note_on_c, 2, 69, 0
5, 29760, Note_on_c, 2, 69, 0
5, 29760, Note_on_c, 2, 68, 50
5, 29760, Note_on_c, 2, 68, 50
5, 29801, Note_on_c, 2, 68, 0
5, 29801, Note_on_c, 2, 68, 0
5, 29820, Note_on_c, 2, 71, 50
5, 29820, Note_on_c, 2, 71, 50
5, 29861, Note_on_c, 2, 71, 0
5, 29861, Note_on_c, 2, 71, 0
5, 29880, Note_on_c, 2, 73, 50
5, 29880, Note_on_c, 2, 73, 50
5, 29921, Note_on_c, 2, 73, 0
5, 29921, Note_on_c, 2, 73, 0
5, 29940, Note_on_c, 2, 76, 50
5, 29940, Note_on_c, 2, 76, 50
5, 29981, Note_on_c, 2, 76, 0
5, 29981, Note_on_c, 2, 76, 0
5, 30000, Note_on_c, 2, 70, 50
5, 30000, Note_on_c, 2, 70, 50
5, 30041, Note_on_c, 2, 70, 0
5, 30041, Note_on_c, 2, 70, 0
5, 30060, Note_on_c, 2, 73, 50
5, 30060, Note_on_c, 2, 73, 50
5, 30090, Note_on_c, 2, 73, 0
5, 30090, Note_on_c, 2, 73, 0
5, 30090, Note_on_c, 2, 71, 50
5, 30090, Note_on_c, 2, 71, 50
5, 30120, Note_on_c, 2, 71, 0
5, 30120, Note_on_c, 2, 71, 0
5, 30120, Note_on_c, 2, 70, 50
5, 30120, Note_on_c, 2, 70, 50
5, 30161, Note_on_c, 2, 70, 0
5, 30161, Note_on_c, 2, 70, 0
5, 30180, Note_on_c, 2, 73, 50
5, 30180, Note_on_c, 2, 73, 50
5, 30221, Note_on_c, 2, 73, 0
5, 30221, Note_on_c, 2, 73, 0
5, 30240, Note_on_c, 2, 66, 50
5, 30240, Note_on_c, 2, 66, 50
5, 30281, Note_on_c, 2, 66, 0
5, 30281, Note_on_c, 2, 66, 0
5, 30300, Note_on_c, 2, 78, 50
5, 30300, Note_on_c, 2, 78, 50
5, 30341, Note_on_c, 2, 78, 0
5, 30341, Note_on_c, 2, 78, 0
5, 30360, Note_on_c, 2, 76, 50
5, 30360, Note_on_c, 2, 76, 50
5, 30375, Note_on_c, 2, 76, 0
5, 30375, Note_on_c, 2, 76, 0
5, 30375, Note_on_c, 2, 74, 50
5, 30375, Note_on_c, 2, 74, 50
5, 30390, Note_on_c, 2, 74, 0
5, 30390, Note_on_c, 2, 74, 0
5, 30390, Note_on_c, 2, 76, 50
5, 30390, Note_on_c, 2, 76, 50
5, 30405, Note_on_c, 2, 76, 0
5, 30405, Note_on_c, 2, 76, 0
5, 30405, Note_on_c, 2, 74, 50
5, 30405, Note_on_c, 2, 74, 50
5, 30420, Note_on_c, 2, 74, 0
5, 30420, Note_on_c, 2, 74, 0
5, 30420, Note_on_c, 2, 73, 50
5, 30420, Note_on_c, 2, 73, 50
5, 30450, Note_on_c, 2, 73, 0
5, 30450, Note_on_c, 2, 73, 0
5, 30450, Note_on_c, 2, 74, 50
5, 30450, Note_on_c, 2, 74, 50
5, 30480, Note_on_c, 2, 74, 0
5, 30480, Note_on_c, 2, 74, 0
5, 30480, Note_on_c, 2, 71, 50
5, 30480, Note_on_c, 2, 71, 50
5, 30521, Note_on_c, 2, 71, 0
5, 30521, Note_on_c, 2, 71, 0
5, 30540, Note_on_c, 2, 66, 50
5, 30540, Note_on_c, 2, 66, 50
5, 30581, Note_on_c, 2, 66, 0
5, 30581, Note_on_c, 2, 66, 0
5, 30600, Note_on_c, 2, 62, 50
5, 30600, Note_on_c, 2, 62, 50
5, 30641, Note_on_c, 2, 62, 0
5, 30641, Note_on_c, 2, 62, 0
5, 30660, Note_on_c, 2, 66, 50
5, 30660, Note_on_c, 2, 66, 50
5, 30701, Note_on_c, 2, 66, 0
5, 30701, Note_on_c, 2, 66, 0
5, 30720, Note_on_c, 2, 71, 50
5, 30720, Note_on_c, 2, 71, 50
5, 30750, Note_on_c, 2, 71, 0
5, 30750, Note_on_c, 2, 71, 0
5, 30750, Note_on_c, 2, 70, 50
5, 30750, Note_on_c, 2, 70, 50
5, 30780, Note_on_c, 2, 70, 0
5, 30780, Note_on_c, 2, 70, 0
5, 30780, Note_on_c, 2, 71, 50
5, 30780, Note_on_c, 2, 71, 50
5, 30810, Note_on_c, 2, 71, 0
5, 30810, Note_on_c, 2, 71, 0
5, 30810, Note_on_c, 2, 73, 50
5, 30810, Note_on_c, 2, 73, 50
5, 30840, Note_on_c, 2, 73, 0
5, 30840, Note_on_c, 2, 73, 0
5, 30840, Note_on_c, 2, 74, 50
5, 30840, Note_on_c, 2, 74, 50
5, 30870, Note_on_c, 2, 74, 0
5, 30870, Note_on_c, 2, 74, 0
5, 30870, Note_on_c, 2, 73, 50
5, 30870, Note_on_c, 2, 73, 50
5, 30900, Note_on_c, 2, 73, 0
5, 30900, Note_on_c, 2, 73, 0
5, 30900, Note_on_c, 2, 71, 50
5, 30900, Note_on_c, 2, 71, 50
5, 30930, Note_on_c, 2, 71, 0
5, 30930, Note_on_c, 2, 71, 0
5, 30930, Note_on_c, 2, 73, 50
5, 30930, Note_on_c, 2, 73, 50
5, 30960, Note_on_c, 2, 73, 0
5, 30960, Note_on_c, 2, 73, 0
5, 30960, Note_on_c, 2, 74, 50
5, 30960, Note_on_c, 2, 74, 50
5, 30990, Note_on_c, 2, 74, 0
5, 30990, Note_on_c, 2, 74, 0
5, 30990, Note_on_c, 2, 73, 50
5, 30990, Note_on_c, 2, 73, 50
5, 31020, Note_on_c, 2, 73, 0
5, 31020, Note_on_c, 2, 73, 0
5, 31020, Note_on_c, 2, 71, 50
5, 31020, Note_on_c, 2, 71, 50
5, 31050, Note_on_c, 2, 71, 0
5, 31050, Note_on_c, 2, 71, 0
5, 31050, Note_on_c, 2, 73, 50
5, 31050, Note_on_c, 2, 73, 50
5, 31080, Note_on_c, 2, 73, 0
5, 31080, Note_on_c, 2, 73, 0
5, 31080, Note_on_c, 2, 74, 50
5, 31080, Note_on_c, 2, 74, 50
5, 31110, Note_on_c, 2, 74, 0
5, 31110, Note_on_c, 2, 74, 0
5, 31110, Note_on_c, 2, 73, 50
5, 31110, Note_on_c, 2, 73, 50
5, 31140, Note_on_c, 2, 73, 0
5, 31140, Note_on_c, 2, 73, 0
5, 31140, Note_on_c, 2, 71, 51
5, 31140, Note_on_c, 2, 71, 51
5, 31170, Note_on_c, 2, 71, 0
5, 31170, Note_on_c, 2, 71, 0
5, 31170, Note_on_c, 2, 73, 51
5, 31170, Note_on_c, 2, 73, 51
5, 31200, Note_on_c, 2, 73, 0
5, 31200, Note_on_c, 2, 73, 0
5, 31200, Note_on_c, 2, 74, 51
5, 31200, Note_on_c, 2, 74, 51
5, 31230, Note_on_c, 2, 74, 0
5, 31230, Note_on_c, 2, 74, 0
5, 31230, Note_on_c, 2, 76, 51
5, 31230, Note_on_c, 2, 76, 51
5, 31260, Note_on_c, 2, 76, 0
5, 31260, Note_on_c, 2, 76, 0
5, 31260, Note_on_c, 2, 78, 52
5, 31260, Note_on_c, 2, 78, 52
5, 31290, Note_on_c, 2, 78, 0
5, 31290, Note_on_c, 2, 78, 0
5, 31290, Note_on_c, 2, 76, 52
5, 31290, Note_on_c, 2, 76, 52
5, 31320, Note_on_c, 2, 76, 0
5, 31320, Note_on_c, 2, 76, 0
5, 31320, Note_on_c, 2, 79, 52
5, 31320, Note_on_c, 2, 79, 52
5, 31350, Note_on_c, 2, 79, 0
5, 31350, Note_on_c, 2, 79, 0
5, 31350, Note_on_c, 2, 78, 53
5, 31350, Note_on_c, 2, 78, 53
5, 31380, Note_on_c, 2, 78, 0
5, 31380, Note_on_c, 2, 78, 0
5, 31380, Note_on_c, 2, 76, 53
5, 31380, Note_on_c, 2, 76, 53
5, 31410, Note_on_c, 2, 76, 0
5, 31410, Note_on_c, 2, 76, 0
5, 31410, Note_on_c, 2, 74, 53
5, 31410, Note_on_c, 2, 74, 53
5, 31440, Note_on_c, 2, 74, 0
5, 31440, Note_on_c, 2, 74, 0
5, 31440, Note_on_c, 2, 76, 54
5, 31440, Note_on_c, 2, 76, 54
5, 31470, Note_on_c, 2, 76, 0
5, 31470, Note_on_c, 2, 76, 0
5, 31470, Note_on_c, 2, 74, 54
5, 31470, Note_on_c, 2, 74, 54
5, 31500, Note_on_c, 2, 74, 0
5, 31500, Note_on_c, 2, 74, 0
5, 31500, Note_on_c, 2, 73, 54
5, 31500, Note_on_c, 2, 73, 54
5, 31530, Note_on_c, 2, 73, 0
5, 31530, Note_on_c, 2, 73, 0
5, 31530, Note_on_c, 2, 74, 54
5, 31530, Note_on_c, 2, 74, 54
5, 31560, Note_on_c, 2, 74, 0
5, 31560, Note_on_c, 2, 74, 0
5, 31560, Note_on_c, 2, 76, 55
5, 31560, Note_on_c, 2, 76, 55
5, 31590, Note_on_c, 2, 76, 0
5, 31590, Note_on_c, 2, 76, 0
5, 31590, Note_on_c, 2, 78, 55
5, 31590, Note_on_c, 2, 78, 55
5, 31620, Note_on_c, 2, 78, 0
5, 31620, Note_on_c, 2, 78, 0
5, 31620, Note_on_c, 2, 79, 55
5, 31620, Note_on_c, 2, 79, 55
5, 31650, Note_on_c, 2, 79, 0
5, 31650, Note_on_c, 2, 79, 0
5, 31650, Note_on_c, 2, 78, 56
5, 31650, Note_on_c, 2, 78, 56
5, 31680, Note_on_c, 2, 78, 0
5, 31680, Note_on_c, 2, 78, 0
5, 31680, Note_on_c, 2, 81, 56
5, 31680, Note_on_c, 2, 81, 56
5, 31710, Note_on_c, 2, 81, 0
5, 31710, Note_on_c, 2, 81, 0
5, 31710, Note_on_c, 2, 79, 56
5, 31710, Note_on_c, 2, 79, 56
5, 31740, Note_on_c, 2, 79, 0
5, 31740, Note_on_c, 2, 79, 0
5, 31740, Note_on_c, 2, 78, 56
5, 31740, Note_on_c, 2, 78, 56
5, 31770, Note_on_c, 2, 78, 0
5, 31770, Note_on_c, 2, 78, 0
5, 31770, Note_on_c, 2, 76, 57
5, 31770, Note_on_c, 2, 76, 57
5, 31800, Note_on_c, 2, 76, 0
5, 31800, Note_on_c, 2, 76, 0
5, 31800, Note_on_c, 2, 78, 57
5, 31800, Note_on_c, 2, 78, 57
5, 31830, Note_on_c, 2, 78, 0
5, 31830, Note_on_c, 2, 78, 0
5, 31830, Note_on_c, 2, 76, 57
5, 31830, Note_on_c, 2, 76, 57
5, 31860, Note_on_c, 2, 76, 0
5, 31860, Note_on_c, 2, 76, 0
5, 31860, Note_on_c, 2, 75, 58
5, 31860, Note_on_c, 2, 75, 58
5, 31890, Note_on_c, 2, 75, 0
5, 31890, Note_on_c, 2, 75, 0
5, 31890, Note_on_c, 2, 76, 58
5, 31890, Note_on_c, 2, 76, 58
5, 31920, Note_on_c, 2, 76, 0
5, 31920, Note_on_c, 2, 76, 0
5, 31920, Note_on_c, 2, 78, 58
5, 31920, Note_on_c, 2, 78, 58
5, 31950, Note_on_c, 2, 78, 0
5, 31950, Note_on_c, 2, 78, 0
5, 31950, Note_on_c, 2, 80, 58
5, 31950, Note_on_c, 2, 80, 58
5, 31980, Note_on_c, 2, 80, 0
5, 31980, Note_on_c, 2, 80, 0
5, 31980, Note_on_c, 2, 81, 59
5, 31980, Note_on_c, 2, 81, 59
5, 32010, Note_on_c, 2, 81, 0
5, 32010, Note_on_c, 2, 81, 0
5, 32010, Note_on_c, 2, 80, 59
5, 32010, Note_on_c, 2, 80, 59
5, 32040, Note_on_c, 2, 80, 0
5, 32040, Note_on_c, 2, 80, 0
5, 32040, Note_on_c, 2, 83, 59
5, 32040, Note_on_c, 2, 83, 59
5, 32070, Note_on_c, 2, 83, 0
5, 32070, Note_on_c, 2, 83, 0
5, 32070, Note_on_c, 2, 81, 60
5, 32070, Note_on_c, 2, 81, 60
5, 32100, Note_on_c, 2, 81, 0
5, 32100, Note_on_c, 2, 81, 0
5, 32100, Note_on_c, 2, 80, 60
5, 32100, Note_on_c, 2, 80, 60
5, 32130, Note_on_c, 2, 80, 0
5, 32130, Note_on_c, 2, 80, 0
5, 32130, Note_on_c, 2, 78, 60
5, 32130, Note_on_c, 2, 78, 60
5, 32160, Note_on_c, 2, 78, 0
5, 32160, Note_on_c, 2, 78, 0
5, 32160, Note_on_c, 2, 76, 61
5, 32160, Note_on_c, 2, 76, 61
5, 32201, Note_on_c, 2, 76, 0
5, 32201, Note_on_c, 2, 76, 0
5, 32220, Note_on_c, 2, 71, 61
5, 32220, Note_on_c, 2, 71, 61
5, 32261, Note_on_c, 2, 71, 0
5, 32261, Note_on_c, 2, 71, 0
5, 32280, Note_on_c, 2, 76, 62
5, 32280, Note_on_c, 2, 76, 62
5, 32321, Note_on_c, 2, 76, 0
5, 32321, Note_on_c, 2, 76, 0
5, 32340, Note_on_c, 2, 71, 62
5, 32340, Note_on_c, 2, 71, 62
5, 32381, Note_on_c, 2, 71, 0
5, 32381, Note_on_c, 2, 71, 0
5, 32400, Note_on_c, 2, 68, 63
5, 32400, Note_on_c, 2, 68, 63
5, 32430, Note_on_c, 2, 68, 0
5, 32430, Note_on_c, 2, 68, 0
5, 32430, Note_on_c, 2, 69, 63
5, 32430, Note_on_c, 2, 69, 63
5, 32460, Note_on_c, 2, 69, 0
5, 32460, Note_on_c, 2, 69, 0
5, 32460, Note_on_c, 2, 71, 63
5, 32460, Note_on_c, 2, 71, 63
5, 32501, Note_on_c, 2, 71, 0
5, 32501, Note_on_c, 2, 71, 0
5, 32520, Note_on_c, 2, 71, 64
5, 32520, Note_on_c, 2, 71, 64
5, 32561, Note_on_c, 2, 71, 0
5, 32561, Note_on_c, 2, 71, 0
5, 32580, Note_on_c, 2, 71, 64
5, 32580, Note_on_c, 2, 71, 64
5, 32621, Note_on_c, 2, 71, 0
5, 32621, Note_on_c, 2, 71, 0
5, 32640, Note_on_c, 2, 76, 64
5, 32640, Note_on_c, 2, 76, 64
5, 32681, Note_on_c, 2, 76, 0
5, 32681, Note_on_c, 2, 76, 0
5, 32700, Note_on_c, 2, 71, 64
5, 32700, Note_on_c, 2, 71, 64
5, 32741, Note_on_c, 2, 71, 0
5, 32741, Note_on_c, 2, 71, 0
5, 32760, Note_on_c, 2, 68, 64
5, 32760, Note_on_c, 2, 68, 64
5, 32790, Note_on_c, 2, 68, 0
5, 32790, Note_on_c, 2, 68, 0
5, 32790, Note_on_c, 2, 69, 64
5, 32790, Note_on_c, 2, 69, 64
5, 32820, Note_on_c, 2, 69, 0
5, 32820, Note_on_c, 2, 69, 0
5, 32820, Note_on_c, 2, 71, 64
5, 32820, Note_on_c, 2, 71, 64
5, 32910, Note_on_c, 2, 71, 0
5, 32910, Note_on_c, 2, 71, 0
5, 32910, Note_on_c, 2, 69, 64
5, 32910, Note_on_c, 2, 69, 64
5, 32940, Note_on_c, 2, 69, 0
5, 32940, Note_on_c, 2, 69, 0
5, 32940, Note_on_c, 2, 68, 64
5, 32940, Note_on_c, 2, 68, 64
5, 32970, Note_on_c, 2, 68, 0
5, 32970, Note_on_c, 2, 68, 0
5, 32970, Note_on_c, 2, 69, 64
5, 32970, Note_on_c, 2, 69, 64
5, 33000, Note_on_c, 2, 69, 0
5, 33000, Note_on_c, 2, 69, 0
5, 33000, Note_on_c, 2, 71, 64
5, 33000, Note_on_c, 2, 71, 64
5, 33030, Note_on_c, 2, 71, 0
5, 33030, Note_on_c, 2, 71, 0
5, 33030, Note_on_c, 2, 76, 64
5, 33030, Note_on_c, 2, 76, 64
5, 33060, Note_on_c, 2, 76, 0
5, 33060, Note_on_c, 2, 76, 0
5, 33060, Note_on_c, 2, 74, 64
5, 33060, Note_on_c, 2, 74, 64
5, 33090, Note_on_c, 2, 74, 0
5, 33090, Note_on_c, 2, 74, 0
5, 33090, Note_on_c, 2, 76, 64
5, 33090, Note_on_c, 2, 76, 64
5, 33120, Note_on_c, 2, 76, 0
5, 33120, Note_on_c, 2, 76, 0
5, 33120, Note_on_c, 2, 73, 64
5, 33120, Note_on_c, 2, 73, 64
5, 33270, Note_on_c, 2, 73, 0
5, 33270, Note_on_c, 2, 73, 0
5, 33270, Note_on_c, 2, 69, 64
5, 33270, Note_on_c, 2, 69, 64
5, 33300, Note_on_c, 2, 69, 0
5, 33300, Note_on_c, 2, 69, 0
5, 33300, Note_on_c, 2, 74, 64
5, 33300, Note_on_c, 2, 74, 64
5, 33330, Note_on_c, 2, 74, 0
5, 33330, Note_on_c, 2, 74, 0
5, 33330, Note_on_c, 2, 76, 64
5, 33330, Note_on_c, 2, 76, 64
5, 33360, Note_on_c, 2, 76, 0
5, 33360, Note_on_c, 2, 76, 0
5, 33360, Note_on_c, 2, 78, 64
5, 33360, Note_on_c, 2, 78, 64
5, 33390, Note_on_c, 2, 78, 0
5, 33390, Note_on_c, 2, 78, 0
5, 33390, Note_on_c, 2, 79, 64
5, 33390, Note_on_c, 2, 79, 64
5, 33420, Note_on_c, 2, 79, 0
5, 33420, Note_on_c, 2, 79, 0
5, 33420, Note_on_c, 2, 76, 64
5, 33420, Note_on_c, 2, 76, 64
5, 33450, Note_on_c, 2, 76, 0
5, 33450, Note_on_c, 2, 76, 0
5, 33450, Note_on_c, 2, 78, 64
5, 33450, Note_on_c, 2, 78, 64
5, 33480, Note_on_c, 2, 78, 0
5, 33480, Note_on_c, 2, 78, 0
5, 33480, Note_on_c, 2, 74, 64
5, 33480, Note_on_c, 2, 74, 64
5, 33630, Note_on_c, 2, 74, 0
5, 33630, Note_on_c, 2, 74, 0
5, 33630, Note_on_c, 2, 73, 64
5, 33630, Note_on_c, 2, 73, 64
5, 33660, Note_on_c, 2, 73, 0
5, 33660, Note_on_c, 2, 73, 0
5, 33660, Note_on_c, 2, 71, 64
5, 33660, Note_on_c, 2, 71, 64
5, 33690, Note_on_c, 2, 71, 0
5, 33690, Note_on_c, 2, 71, 0
5, 33690, Note_on_c, 2, 73, 64
5, 33690, Note_on_c, 2, 73, 64
5, 33720, Note_on_c, 2, 73, 0
5, 33720, Note_on_c, 2, 73, 0
5, 33720, Note_on_c, 2, 74, 64
5, 33720, Note_on_c, 2, 74, 64
5, 33750, Note_on_c, 2, 74, 0
5, 33750, Note_on_c, 2, 74, 0
5, 33750, Note_on_c, 2, 73, 64
5, 33750, Note_on_c, 2, 73, 64
5, 33780, Note_on_c, 2, 73, 0
5, 33780, Note_on_c, 2, 73, 0
5, 33780, Note_on_c, 2, 71, 64
5, 33780, Note_on_c, 2, 71, 64
5, 33810, Note_on_c, 2, 71, 0
5, 33810, Note_on_c, 2, 71, 0
5, 33810, Note_on_c, 2, 69, 64
5, 33810, Note_on_c, 2, 69, 64
5, 33840, Note_on_c, 2, 69, 0
5, 33840, Note_on_c, 2, 69, 0
5, 33840, Note_on_c, 2, 71, 64
5, 33840, Note_on_c, 2, 71, 64
5, 33870, Note_on_c, 2, 71, 0
5, 33870, Note_on_c, 2, 73, 64
5, 33881, Note_on_c, 2, 71, 0
5, 33900, Note_on_c, 2, 73, 0
5, 33900, Note_on_c, 2, 81, 64
5, 33900, Note_on_c, 2, 69, 64
5, 33930, Note_on_c, 2, 69, 0
5, 33930, Note_on_c, 2, 81, 0
5, 33930, Note_on_c, 2, 80, 64
5, 33930, Note_on_c, 2, 71, 64
5, 33960, Note_on_c, 2, 71, 0
5, 33960, Note_on_c, 2, 80, 0
5, 33960, Note_on_c, 2, 81, 64
5, 33960, Note_on_c, 2, 69, 64
5, 34001, Note_on_c, 2, 69, 0
5, 34020, Note_on_c, 2, 76, 64
5, 34061, Note_on_c, 2, 76, 0
5, 34080, Note_on_c, 2, 81, 0
5, 34080, Note_on_c, 2, 81, 64
5, 34121, Note_on_c, 2, 81, 0
5, 34140, Note_on_c, 2, 76, 64
5, 34140, Note_on_c, 2, 76, 64
5, 34181, Note_on_c, 2, 76, 0
5, 34181, Note_on_c, 2, 76, 0
5, 34200, Note_on_c, 2, 81, 64
5, 34200, Note_on_c, 2, 73, 64
5, 34230, Note_on_c, 2, 73, 0
5, 34230, Note_on_c, 2, 74, 64
5, 34241, Note_on_c, 2, 81, 0
5, 34260, Note_on_c, 2, 74, 0
5, 34260, Note_on_c, 2, 76, 64
5, 34260, Note_on_c, 2, 76, 64
5, 34301, Note_on_c, 2, 76, 0
5, 34301, Note_on_c, 2, 76, 0
5, 34320, Note_on_c, 2, 73, 64
5, 34320, Note_on_c, 2, 76, 64
5, 34350, Note_on_c, 2, 73, 0
5, 34350, Note_on_c, 2, 71, 64
5, 34380, Note_on_c, 2, 71, 0
5, 34380, Note_on_c, 2, 73, 64
5, 34410, Note_on_c, 2, 73, 0
5, 34410, Note_on_c, 2, 74, 64
5, 34440, Note_on_c, 2, 74, 0
5, 34440, Note_on_c, 2, 76, 0
5, 34440, Note_on_c, 2, 76, 64
5, 34481, Note_on_c, 2, 76, 0
5, 34500, Note_on_c, 2, 73, 64
5, 34500, Note_on_c, 2, 64, 64
5, 34541, Note_on_c, 2, 64, 0
5, 34541, Note_on_c, 2, 73, 0
5, 34560, Note_on_c, 2, 76, 64
5, 34560, Note_on_c, 2, 69, 64
5, 34601, Note_on_c, 2, 76, 0
5, 34620, Note_on_c, 2, 73, 64
5, 34661, Note_on_c, 2, 73, 0
5, 34680, Note_on_c, 2, 69, 64
5, 34710, Note_on_c, 2, 69, 0
5, 34710, Note_on_c, 2, 67, 64
5, 34721, Note_on_c, 2, 69, 0
5, 34740, Note_on_c, 2, 67, 0
5, 34740, Note_on_c, 2, 73, 64
5, 34740, Note_on_c, 2, 66, 64
5, 34770, Note_on_c, 2, 66, 0
5, 34770, Note_on_c, 2, 73, 0
5, 34770, Note_on_c, 2, 71, 64
5, 34770, Note_on_c, 2, 67, 64
5, 34800, Note_on_c, 2, 67, 0
5, 34800, Note_on_c, 2, 71, 0
5, 34800, Note_on_c, 2, 69, 64
5, 34800, Note_on_c, 2, 69, 64
5, 34830, Note_on_c, 2, 69, 0
5, 34830, Note_on_c, 2, 71, 64
5, 34841, Note_on_c, 2, 69, 0
5, 34860, Note_on_c, 2, 71, 0
5, 34860, Note_on_c, 2, 73, 64
5, 34860, Note_on_c, 2, 67, 64
5, 34890, Note_on_c, 2, 67, 0
5, 34890, Note_on_c, 2, 69, 64
5, 34901, Note_on_c, 2, 73, 0
5, 34920, Note_on_c, 2, 69, 0
5, 34920, Note_on_c, 2, 74, 64
5, 34920, Note_on_c, 2, 66, 64
5, 34950, Note_on_c, 2, 66, 0
5, 34950, Note_on_c, 2, 67, 64
5, 34961, Note_on_c, 2, 74, 0
5, 34980, Note_on_c, 2, 67, 0
5, 34980, Note_on_c, 2, 78, 64
5, 34980, Note_on_c, 2, 69, 64
5, 35010, Note_on_c, 2, 69, 0
5, 35010, Note_on_c, 2, 66, 64
5, 35021, Note_on_c, 2, 78, 0
5, 35040, Note_on_c, 2, 66, 0
5, 35040, Note_on_c, 2, 71, 64
5, 35040, Note_on_c, 2, 71, 64
5, 35070, Note_on_c, 2, 71, 0
5, 35070, Note_on_c, 2, 69, 64
5, 35081, Note_on_c, 2, 71, 0
5, 35100, Note_on_c, 2, 69, 0
5, 35100, Note_on_c, 2, 74, 64
5, 35100, Note_on_c, 2, 67, 64
5, 35130, Note_on_c, 2, 67, 0
5, 35130, Note_on_c, 2, 74, 0
5, 35130, Note_on_c, 2, 73, 64
5, 35130, Note_on_c, 2, 69, 64
5, 35160, Note_on_c, 2, 69, 0
5, 35160, Note_on_c, 2, 73, 0
5, 35160, Note_on_c, 2, 71, 64
5, 35160, Note_on_c, 2, 71, 64
5, 35190, Note_on_c, 2, 71, 0
5, 35190, Note_on_c, 2, 73, 64
5, 35201, Note_on_c, 2, 71, 0
5, 35220, Note_on_c, 2, 73, 0
5, 35220, Note_on_c, 2, 74, 64
5, 35220, Note_on_c, 2, 69, 64
5, 35250, Note_on_c, 2, 69, 0
5, 35250, Note_on_c, 2, 71, 64
5, 35261, Note_on_c, 2, 74, 0
5, 35280, Note_on_c, 2, 71, 0
5, 35280, Note_on_c, 2, 76, 64
5, 35280, Note_on_c, 2, 67, 64
5, 35321, Note_on_c, 2, 76, 0
5, 35340, Note_on_c, 2, 79, 64
5, 35381, Note_on_c, 2, 79, 0
5, 35400, Note_on_c, 2, 73, 64
5, 35430, Note_on_c, 2, 67, 0
5, 35430, Note_on_c, 2, 66, 64
5, 35441, Note_on_c, 2, 73, 0
5, 35460, Note_on_c, 2, 66, 0
5, 35460, Note_on_c, 2, 76, 64
5, 35460, Note_on_c, 2, 64, 64
5, 35490, Note_on_c, 2, 64, 0
5, 35490, Note_on_c, 2, 76, 0
5, 35490, Note_on_c, 2, 74, 64
5, 35490, Note_on_c, 2, 66, 64
5, 35520, Note_on_c, 2, 66, 0
5, 35520, Note_on_c, 2, 74, 0
5, 35520, Note_on_c, 2, 73, 64
5, 35520, Note_on_c, 2, 67, 64
5, 35550, Note_on_c, 2, 67, 0
5, 35550, Note_on_c, 2, 66, 64
5, 35561, Note_on_c, 2, 73, 0
5, 35580, Note_on_c, 2, 66, 0
5, 35580, Note_on_c, 2, 76, 64
5, 35580, Note_on_c, 2, 64, 64
5, 35610, Note_on_c, 2, 64, 0
5, 35610, Note_on_c, 2, 62, 64
5, 35621, Note_on_c, 2, 76, 0
5, 35640, Note_on_c, 2, 62, 0
5, 35640, Note_on_c, 2, 69, 64
5, 35640, Note_on_c, 2, 64, 64
5, 35681, Note_on_c, 2, 64, 0
5, 35681, Note_on_c, 2, 69, 0
5, 35700, Note_on_c, 2, 79, 64
5, 35700, Note_on_c, 2, 74, 64
5, 35730, Note_on_c, 2, 74, 0
5, 35730, Note_on_c, 2, 73, 64
5, 35741, Note_on_c, 2, 79, 0
5, 35760, Note_on_c, 2, 73, 0
5, 35760, Note_on_c, 2, 78, 64
5, 35760, Note_on_c, 2, 74, 64
5, 35801, Note_on_c, 2, 74, 0
5, 35801, Note_on_c, 2, 78, 0
5, 35820, Note_on_c, 2, 76, 64
5, 35820, Note_on_c, 2, 69, 64
5, 35850, Note_on_c, 2, 76, 0
5, 35850, Note_on_c, 2, 78, 64
5, 35861, Note_on_c, 2, 69, 0
5, 35880, Note_on_c, 2, 78, 0
5, 35880, Note_on_c, 2, 74, 64
5, 35880, Note_on_c, 2, 74, 64
5, 35921, Note_on_c, 2, 74, 0
5, 35921, Note_on_c, 2, 74, 0
5, 35940, Note_on_c, 2, 69, 64
5, 35940, Note_on_c, 2, 69, 64
5, 35981, Note_on_c, 2, 69, 0
5, 35981, Note_on_c, 2, 69, 0
5, 36000, Note_on_c, 2, 66, 64
5, 36000, Note_on_c, 2, 66, 64
5, 36030, Note_on_c, 2, 66, 0
5, 36030, Note_on_c, 2, 67, 64
5, 36041, Note_on_c, 2, 66, 0
5, 36060, Note_on_c, 2, 67, 0
5, 36060, Note_on_c, 2, 69, 64
5, 36060, Note_on_c, 2, 69, 64
5, 36101, Note_on_c, 2, 69, 0
5, 36120, Note_on_c, 2, 62, 64
5, 36150, Note_on_c, 2, 62, 0
5, 36150, Note_on_c, 2, 69, 0
5, 36150, Note_on_c, 2, 64, 64
5, 36150, Note_on_c, 2, 67, 64
5, 36180, Note_on_c, 2, 67, 0
5, 36180, Note_on_c, 2, 64, 0
5, 36180, Note_on_c, 2, 62, 64
5, 36180, Note_on_c, 2, 66, 64
5, 36210, Note_on_c, 2, 66, 0
5, 36210, Note_on_c, 2, 62, 0
5, 36210, Note_on_c, 2, 64, 64
5, 36210, Note_on_c, 2, 64, 64
5, 36240, Note_on_c, 2, 64, 0
5, 36240, Note_on_c, 2, 64, 0
5, 36240, Note_on_c, 2, 66, 64
5, 36240, Note_on_c, 2, 62, 64
5, 36270, Note_on_c, 2, 66, 0
5, 36270, Note_on_c, 2, 64, 64
5, 36281, Note_on_c, 2, 62, 0
5, 36300, Note_on_c, 2, 64, 0
5, 36300, Note_on_c, 2, 62, 64
5, 36300, Note_on_c, 2, 69, 64
5, 36330, Note_on_c, 2, 62, 0
5, 36330, Note_on_c, 2, 64, 65
5, 36341, Note_on_c, 2, 69, 0
5, 36360, Note_on_c, 2, 64, 0
5, 36360, Note_on_c, 2, 66, 65
5, 36360, Note_on_c, 2, 69, 65
5, 36390, Note_on_c, 2, 66, 0
5, 36390, Note_on_c, 2, 64, 65
5, 36420, Note_on_c, 2, 64, 0
5, 36420, Note_on_c, 2, 62, 65
5, 36450, Note_on_c, 2, 62, 0
5, 36450, Note_on_c, 2, 64, 65
5, 36480, Note_on_c, 2, 64, 0
5, 36480, Note_on_c, 2, 66, 65
5, 36510, Note_on_c, 2, 66, 0
5, 36510, Note_on_c, 2, 64, 65
5, 36540, Note_on_c, 2, 64, 0
5, 36540, Note_on_c, 2, 69, 0
5, 36540, Note_on_c, 2, 62, 65
5, 36540, Note_on_c, 2, 74, 65
5, 36570, Note_on_c, 2, 74, 0
5, 36570, Note_on_c, 2, 62, 0
5, 36570, Note_on_c, 2, 64, 65
5, 36570, Note_on_c, 2, 73, 65
5, 36600, Note_on_c, 2, 73, 0
5, 36600, Note_on_c, 2, 64, 0
5, 36600, Note_on_c, 2, 66, 65
5, 36600, Note_on_c, 2, 74, 65
5, 36630, Note_on_c, 2, 66, 0
5, 36630, Note_on_c, 2, 67, 65
5, 36641, Note_on_c, 2, 74, 0
5, 36660, Note_on_c, 2, 67, 0
5, 36660, Note_on_c, 2, 69, 65
5, 36660, Note_on_c, 2, 72, 65
5, 36690, Note_on_c, 2, 69, 0
5, 36690, Note_on_c, 2, 67, 65
5, 36701, Note_on_c, 2, 72, 0
5, 36720, Note_on_c, 2, 67, 0
5, 36720, Note_on_c, 2, 71, 65
5, 36720, Note_on_c, 2, 71, 65
5, 36750, Note_on_c, 2, 71, 0
5, 36750, Note_on_c, 2, 69, 66
5, 36780, Note_on_c, 2, 69, 0
5, 36780, Note_on_c, 2, 67, 66
5, 36810, Note_on_c, 2, 67, 0
5, 36810, Note_on_c, 2, 66, 66
5, 36840, Note_on_c, 2, 66, 0
5, 36840, Note_on_c, 2, 67, 66
5, 36870, Note_on_c, 2, 67, 0
5, 36870, Note_on_c, 2, 66, 66
5, 36900, Note_on_c, 2, 66, 0
5, 36900, Note_on_c, 2, 71, 0
5, 36900, Note_on_c, 2, 64, 66
5, 36900, Note_on_c, 2, 76, 66
5, 36930, Note_on_c, 2, 76, 0
5, 36930, Note_on_c, 2, 64, 0
5, 36930, Note_on_c, 2, 66, 66
5, 36930, Note_on_c, 2, 75, 66
5, 36960, Note_on_c, 2, 75, 0
5, 36960, Note_on_c, 2, 66, 0
5, 36960, Note_on_c, 2, 67, 66
5, 36960, Note_on_c, 2, 76, 66
5, 36990, Note_on_c, 2, 67, 0
5, 36990, Note_on_c, 2, 69, 66
5, 37001, Note_on_c, 2, 76, 0
5, 37020, Note_on_c, 2, 69, 0
5, 37020, Note_on_c, 2, 71, 66
5, 37020, Note_on_c, 2, 74, 66
5, 37050, Note_on_c, 2, 71, 0
5, 37050, Note_on_c, 2, 69, 66
5, 37061, Note_on_c, 2, 74, 0
5, 37080, Note_on_c, 2, 69, 0
5, 37080, Note_on_c, 2, 72, 66
5, 37080, Note_on_c, 2, 72, 66
5, 37110, Note_on_c, 2, 72, 0
5, 37110, Note_on_c, 2, 71, 66
5, 37140, Note_on_c, 2, 71, 0
5, 37140, Note_on_c, 2, 69, 66
5, 37170, Note_on_c, 2, 69, 0
5, 37170, Note_on_c, 2, 67, 67
5, 37200, Note_on_c, 2, 67, 0
5, 37200, Note_on_c, 2, 69, 67
5, 37230, Note_on_c, 2, 69, 0
5, 37230, Note_on_c, 2, 72, 0
5, 37230, Note_on_c, 2, 67, 67
5, 37230, Note_on_c, 2, 71, 67
5, 37260, Note_on_c, 2, 71, 0
5, 37260, Note_on_c, 2, 67, 0
5, 37260, Note_on_c, 2, 66, 67
5, 37260, Note_on_c, 2, 69, 67
5, 37290, Note_on_c, 2, 69, 0
5, 37290, Note_on_c, 2, 66, 0
5, 37290, Note_on_c, 2, 67, 67
5, 37290, Note_on_c, 2, 71, 67
5, 37320, Note_on_c, 2, 71, 0
5, 37320, Note_on_c, 2, 67, 0
5, 37320, Note_on_c, 2, 69, 67
5, 37320, Note_on_c, 2, 72, 67
5, 37350, Note_on_c, 2, 72, 0
5, 37350, Note_on_c, 2, 69, 0
5, 37350, Note_on_c, 2, 71, 67
5, 37350, Note_on_c, 2, 71, 67
5, 37380, Note_on_c, 2, 71, 0
5, 37380, Note_on_c, 2, 71, 0
5, 37380, Note_on_c, 2, 72, 67
5, 37380, Note_on_c, 2, 69, 67
5, 37410, Note_on_c, 2, 69, 0
5, 37410, Note_on_c, 2, 72, 0
5, 37410, Note_on_c, 2, 71, 67
5, 37410, Note_on_c, 2, 67, 67
5, 37440, Note_on_c, 2, 67, 0
5, 37440, Note_on_c, 2, 71, 0
5, 37440, Note_on_c, 2, 74, 67
5, 37440, Note_on_c, 2, 66, 67
5, 37470, Note_on_c, 2, 66, 0
5, 37470, Note_on_c, 2, 74, 0
5, 37470, Note_on_c, 2, 72, 67
5, 37470, Note_on_c, 2, 69, 67
5, 37500, Note_on_c, 2, 69, 0
5, 37500, Note_on_c, 2, 72, 0
5, 37500, Note_on_c, 2, 71, 67
5, 37500, Note_on_c, 2, 67, 67
5, 37530, Note_on_c, 2, 67, 0
5, 37530, Note_on_c, 2, 71, 0
5, 37530, Note_on_c, 2, 69, 67
5, 37530, Note_on_c, 2, 66, 67
5, 37560, Note_on_c, 2, 66, 0
5, 37560, Note_on_c, 2, 69, 0
5, 37560, Note_on_c, 2, 67, 67
5, 37560, Note_on_c, 2, 67, 67
5, 37590, Note_on_c, 2, 67, 0
5, 37590, Note_on_c, 2, 66, 68
5, 37601, Note_on_c, 2, 67, 0
5, 37620, Note_on_c, 2, 66, 0
5, 37620, Note_on_c, 2, 67, 68
5, 37620, Note_on_c, 2, 79, 68
5, 37650, Note_on_c, 2, 67, 0
5, 37650, Note_on_c, 2, 69, 68
5, 37680, Note_on_c, 2, 69, 0
5, 37680, Note_on_c, 2, 71, 68
5, 37710, Note_on_c, 2, 79, 0
5, 37710, Note_on_c, 2, 78, 68
5, 37740, Note_on_c, 2, 78, 0
5, 37740, Note_on_c, 2, 76, 68
5, 37770, Note_on_c, 2, 76, 0
5, 37770, Note_on_c, 2, 74, 68
5, 37800, Note_on_c, 2, 74, 0
5, 37800, Note_on_c, 2, 76, 68
5, 37830, Note_on_c, 2, 76, 0
5, 37830, Note_on_c, 2, 74, 68
5, 37860, Note_on_c, 2, 74, 0
5, 37860, Note_on_c, 2, 73, 68
5, 37890, Note_on_c, 2, 73, 0
5, 37890, Note_on_c, 2, 71, 68
5, 37920, Note_on_c, 2, 71, 0
5, 37920, Note_on_c, 2, 73, 68
5, 37980, Note_on_c, 2, 71, 0
5, 37980, Note_on_c, 2, 71, 68
5, 38010, Note_on_c, 2, 71, 0
5, 38010, Note_on_c, 2, 69, 69
5, 38040, Note_on_c, 2, 69, 0
5, 38040, Note_on_c, 2, 67, 69
5, 38081, Note_on_c, 2, 67, 0
5, 38100, Note_on_c, 2, 71, 69
5, 38141, Note_on_c, 2, 71, 0
5, 38160, Note_on_c, 2, 73, 69
5, 38201, Note_on_c, 2, 73, 0
5, 38220, Note_on_c, 2, 76, 69
5, 38261, Note_on_c, 2, 76, 0
5, 38280, Note_on_c, 2, 69, 69
5, 38310, Note_on_c, 2, 69, 0
5, 38310, Note_on_c, 2, 67, 69
5, 38340, Note_on_c, 2, 67, 0
5, 38340, Note_on_c, 2, 73, 0
5, 38340, Note_on_c, 2, 66, 69
5, 38340, Note_on_c, 2, 78, 69
5, 38370, Note_on_c, 2, 66, 0
5, 38370, Note_on_c, 2, 67, 69
5, 38400, Note_on_c, 2, 67, 0
5, 38400, Note_on_c, 2, 69, 69
5, 38430, Note_on_c, 2, 78, 0
5, 38430, Note_on_c, 2, 76, 70
5, 38460, Note_on_c, 2, 76, 0
5, 38460, Note_on_c, 2, 74, 70
5, 38490, Note_on_c, 2, 74, 0
5, 38490, Note_on_c, 2, 73, 70
5, 38520, Note_on_c, 2, 73, 0
5, 38520, Note_on_c, 2, 74, 70
5, 38550, Note_on_c, 2, 74, 0
5, 38550, Note_on_c, 2, 73, 70
5, 38580, Note_on_c, 2, 73, 0
5, 38580, Note_on_c, 2, 71, 70
5, 38610, Note_on_c, 2, 71, 0
5, 38610, Note_on_c, 2, 69, 70
5, 38640, Note_on_c, 2, 69, 0
5, 38640, Note_on_c, 2, 71, 70
5, 38700, Note_on_c, 2, 69, 0
5, 38700, Note_on_c, 2, 69, 71
5, 38730, Note_on_c, 2, 69, 0
5, 38730, Note_on_c, 2, 67, 71
5, 38760, Note_on_c, 2, 67, 0
5, 38760, Note_on_c, 2, 66, 71
5, 38801, Note_on_c, 2, 66, 0
5, 38820, Note_on_c, 2, 69, 72
5, 38861, Note_on_c, 2, 69, 0
5, 38880, Note_on_c, 2, 71, 72
5, 38921, Note_on_c, 2, 71, 0
5, 38940, Note_on_c, 2, 66, 73
5, 38981, Note_on_c, 2, 66, 0
5, 39000, Note_on_c, 2, 67, 73
5, 39030, Note_on_c, 2, 67, 0
5, 39030, Note_on_c, 2, 66, 74
5, 39060, Note_on_c, 2, 66, 0
5, 39060, Note_on_c, 2, 71, 0
5, 39060, Note_on_c, 2, 64, 74
5, 39060, Note_on_c, 2, 64, 74
5, 39090, Note_on_c, 2, 64, 0
5, 39090, Note_on_c, 2, 64, 0
5, 39090, Note_on_c, 2, 66, 74
5, 39090, Note_on_c, 2, 66, 74
5, 39120, Note_on_c, 2, 66, 0
5, 39120, Note_on_c, 2, 66, 0
5, 39120, Note_on_c, 2, 67, 74
5, 39120, Note_on_c, 2, 67, 74
5, 39150, Note_on_c, 2, 67, 0
5, 39150, Note_on_c, 2, 67, 0
5, 39150, Note_on_c, 2, 69, 75
5, 39150, Note_on_c, 2, 69, 75
5, 39180, Note_on_c, 2, 69, 0
5, 39180, Note_on_c, 2, 69, 0
5, 39180, Note_on_c, 2, 71, 75
5, 39180, Note_on_c, 2, 71, 75
5, 39210, Note_on_c, 2, 71, 0
5, 39210, Note_on_c, 2, 71, 0
5, 39210, Note_on_c, 2, 73, 75
5, 39210, Note_on_c, 2, 73, 75
5, 39240, Note_on_c, 2, 73, 0
5, 39240, Note_on_c, 2, 73, 0
5, 39240, Note_on_c, 2, 74, 76
5, 39240, Note_on_c, 2, 74, 76
5, 39270, Note_on_c, 2, 74, 0
5, 39270, Note_on_c, 2, 74, 0
5, 39270, Note_on_c, 2, 73, 76
5, 39270, Note_on_c, 2, 73, 76
5, 39300, Note_on_c, 2, 73, 0
5, 39300, Note_on_c, 2, 73, 0
5, 39300, Note_on_c, 2, 71, 76
5, 39300, Note_on_c, 2, 71, 76
5, 39330, Note_on_c, 2, 71, 0
5, 39330, Note_on_c, 2, 71, 0
5, 39330, Note_on_c, 2, 73, 76
5, 39330, Note_on_c, 2, 73, 76
5, 39360, Note_on_c, 2, 73, 0
5, 39360, Note_on_c, 2, 73, 0
5, 39360, Note_on_c, 2, 73, 77
5, 39360, Note_on_c, 2, 73, 77
5, 39390, Note_on_c, 2, 73, 0
5, 39390, Note_on_c, 2, 73, 0
5, 39390, Note_on_c, 2, 71, 77
5, 39390, Note_on_c, 2, 71, 77
5, 39420, Note_on_c, 2, 71, 0
5, 39420, Note_on_c, 2, 71, 0
5, 39420, Note_on_c, 2, 69, 77
5, 39420, Note_on_c, 2, 69, 77
5, 39450, Note_on_c, 2, 69, 0
5, 39450, Note_on_c, 2, 69, 0
5, 39450, Note_on_c, 2, 71, 78
5, 39450, Note_on_c, 2, 71, 78
5, 39480, Note_on_c, 2, 71, 0
5, 39480, Note_on_c, 2, 71, 0
5, 39480, Note_on_c, 2, 73, 78
5, 39480, Note_on_c, 2, 73, 78
5, 39510, Note_on_c, 2, 73, 0
5, 39510, Note_on_c, 2, 73, 0
5, 39510, Note_on_c, 2, 74, 78
5, 39510, Note_on_c, 2, 74, 78
5, 39540, Note_on_c, 2, 74, 0
5, 39540, Note_on_c, 2, 74, 0
5, 39540, Note_on_c, 2, 76, 78
5, 39540, Note_on_c, 2, 76, 78
5, 39570, Note_on_c, 2, 76, 0
5, 39570, Note_on_c, 2, 76, 0
5, 39570, Note_on_c, 2, 78, 79
5, 39570, Note_on_c, 2, 78, 79
5, 39600, Note_on_c, 2, 78, 0
5, 39600, Note_on_c, 2, 78, 0
5, 39600, Note_on_c, 2, 79, 79
5, 39600, Note_on_c, 2, 79, 79
5, 39630, Note_on_c, 2, 79, 0
5, 39630, Note_on_c, 2, 79, 0
5, 39630, Note_on_c, 2, 78, 79
5, 39630, Note_on_c, 2, 78, 79
5, 39660, Note_on_c, 2, 78, 0
5, 39660, Note_on_c, 2, 78, 0
5, 39660, Note_on_c, 2, 76, 79
5, 39660, Note_on_c, 2, 76, 79
5, 39690, Note_on_c, 2, 76, 0
5, 39690, Note_on_c, 2, 76, 0
5, 39690, Note_on_c, 2, 79, 80
5, 39690, Note_on_c, 2, 79, 80
5, 39720, Note_on_c, 2, 79, 0
5, 39720, Note_on_c, 2, 79, 0
5, 39720, Note_on_c, 2, 78, 75
5, 39720, Note_on_c, 2, 78, 75
5, 39750, Note_on_c, 2, 78, 0
5, 39750, Note_on_c, 2, 78, 0
5, 39750, Note_on_c, 2, 76, 75
5, 39750, Note_on_c, 2, 73, 75
5, 39780, Note_on_c, 2, 73, 0
5, 39780, Note_on_c, 2, 76, 0
5, 39780, Note_on_c, 2, 78, 75
5, 39780, Note_on_c, 2, 74, 75
5, 39810, Note_on_c, 2, 74, 0
5, 39810, Note_on_c, 2, 78, 0
5, 39810, Note_on_c, 2, 79, 75
5, 39810, Note_on_c, 2, 76, 75
5, 39840, Note_on_c, 2, 76, 0
5, 39840, Note_on_c, 2, 79, 0
5, 39840, Note_on_c, 2, 81, 75
5, 39840, Note_on_c, 2, 78, 75
5, 39881, Note_on_c, 2, 78, 0
5, 39881, Note_on_c, 2, 81, 0
5, 40080, Note_on_c, 2, 78, 75
5, 40080, Note_on_c, 2, 74, 75
5, 40110, Note_on_c, 2, 74, 0
5, 40110, Note_on_c, 2, 78, 0
5, 40110, Note_on_c, 2, 76, 75
5, 40110, Note_on_c, 2, 73, 75
5, 40140, Note_on_c, 2, 73, 0
5, 40140, Note_on_c, 2, 76, 0
5, 40140, Note_on_c, 2, 78, 75
5, 40140, Note_on_c, 2, 74, 75
5, 40170, Note_on_c, 2, 74, 0
5, 40170, Note_on_c, 2, 78, 0
5, 40170, Note_on_c, 2, 79, 75
5, 40170, Note_on_c, 2, 76, 75
5, 40200, Note_on_c, 2, 76, 0
5, 40200, Note_on_c, 2, 79, 0
5, 40200, Note_on_c, 2, 81, 75
5, 40200, Note_on_c, 2, 78, 75
5, 40241, Note_on_c, 2, 78, 0
5, 40241, Note_on_c, 2, 81, 0
5, 40440, Note_on_c, 2, 83, 75
5, 40440, Note_on_c, 2, 80, 75
5, 40470, Note_on_c, 2, 80, 0
5, 40470, Note_on_c, 2, 83, 0
5, 40470, Note_on_c, 2, 81, 75
5, 40470, Note_on_c, 2, 78, 75
5, 40500, Note_on_c, 2, 78, 0
5, 40500, Note_on_c, 2, 81, 0
5, 40500, Note_on_c, 2, 83, 76
5, 40500, Note_on_c, 2, 80, 76
5, 40530, Note_on_c, 2, 80, 0
5, 40530, Note_on_c, 2, 83, 0
5, 40530, Note_on_c, 2, 85, 76
5, 40530, Note_on_c, 2, 81, 76
5, 40560, Note_on_c, 2, 81, 0
5, 40560, Note_on_c, 2, 85, 0
5, 40560, Note_on_c, 2, 86, 76
5, 40560, Note_on_c, 2, 83, 76
5, 40601, Note_on_c, 2, 83, 0
5, 40601, Note_on_c, 2, 86, 0
5, 40800, Note_on_c, 2, 77, 78
5, 40800, Note_on_c, 2, 74, 78
5, 40830, Note_on_c, 2, 74, 0
5, 40830, Note_on_c, 2, 77, 0
5, 40830, Note_on_c, 2, 76, 79
5, 40830, Note_on_c, 2, 73, 79
5, 40860, Note_on_c, 2, 73, 0
5, 40860, Note_on_c, 2, 76, 0
5, 40860, Note_on_c, 2, 77, 79
5, 40860, Note_on_c, 2, 74, 79
5, 40890, Note_on_c, 2, 74, 0
5, 40890, Note_on_c, 2, 77, 0
5, 40890, Note_on_c, 2, 79, 79
5, 40890, Note_on_c, 2, 76, 79
5, 40920, Note_on_c, 2, 76, 0
5, 40920, Note_on_c, 2, 79, 0
5, 40920, Note_on_c, 2, 81, 79
5, 40920, Note_on_c, 2, 77, 79
5, 40961, Note_on_c, 2, 77, 0
5, 40961, Note_on_c, 2, 81, 0
5, 41160, Note_on_c, 2, 74, 82
5, 41160, Note_on_c, 2, 71, 82
5, 41190, Note_on_c, 2, 71, 0
5, 41190, Note_on_c, 2, 74, 0
5, 41190, Note_on_c, 2, 73, 82
5, 41190, Note_on_c, 2, 69, 82
5, 41220, Note_on_c, 2, 69, 0
5, 41220, Note_on_c, 2, 73, 0
5, 41220, Note_on_c, 2, 74, 82
5, 41220, Note_on_c, 2, 71, 82
5, 41250, Note_on_c, 2, 71, 0
5, 41250, Note_on_c, 2, 74, 0
5, 41250, Note_on_c, 2, 76, 83
5, 41250, Note_on_c, 2, 73, 83
5, 41280, Note_on_c, 2, 73, 0
5, 41280, Note_on_c, 2, 76, 0
5, 41280, Note_on_c, 2, 77, 83
5, 41280, Note_on_c, 2, 74, 83
5, 41321, Note_on_c, 2, 74, 0
5, 41321, Note_on_c, 2, 77, 0
5, 41520, Note_on_c, 2, 73, 85
5, 41520, Note_on_c, 2, 69, 85
5, 41550, Note_on_c, 2, 69, 0
5, 41550, Note_on_c, 2, 73, 0
5, 41550, Note_on_c, 2, 71, 84
5, 41550, Note_on_c, 2, 68, 84
5, 41580, Note_on_c, 2, 68, 0
5, 41580, Note_on_c, 2, 71, 0
5, 41580, Note_on_c, 2, 73, 82
5, 41580, Note_on_c, 2, 69, 82
5, 41610, Note_on_c, 2, 69, 0
5, 41610, Note_on_c, 2, 73, 0
5, 41610, Note_on_c, 2, 74, 81
5, 41610, Note_on_c, 2, 71, 81
5, 41640, Note_on_c, 2, 71, 0
5, 41640, Note_on_c, 2, 74, 0
5, 41640, Note_on_c, 2, 76, 80
5, 41640, Note_on_c, 2, 73, 80
5, 41681, Note_on_c, 2, 73, 0
5, 41681, Note_on_c, 2, 76, 0
5, 41940, Note_on_c, 2, 66, 71
5, 41940, Note_on_c, 2, 66, 71
5, 41970, Note_on_c, 2, 66, 0
5, 41970, Note_on_c, 2, 66, 0
5, 41970, Note_on_c, 2, 67, 71
5, 41970, Note_on_c, 2, 67, 71
5, 42000, Note_on_c, 2, 67, 0
5, 42000, Note_on_c, 2, 67, 0
5, 42000, Note_on_c, 2, 69, 71
5, 42000, Note_on_c, 2, 69, 71
5, 42030, Note_on_c, 2, 69, 0
5, 42030, Note_on_c, 2, 69, 0
5, 42030, Note_on_c, 2, 71, 71
5, 42030, Note_on_c, 2, 71, 71
5, 42060, Note_on_c, 2, 71, 0
5, 42060, Note_on_c, 2, 71, 0
5, 42060, Note_on_c, 2, 72, 72
5, 42060, Note_on_c, 2, 72, 72
5, 42090, Note_on_c, 2, 72, 0
5, 42090, Note_on_c, 2, 72, 0
5, 42090, Note_on_c, 2, 71, 72
5, 42090, Note_on_c, 2, 71, 72
5, 42120, Note_on_c, 2, 71, 0
5, 42120, Note_on_c, 2, 71, 0
5, 42120, Note_on_c, 2, 74, 72
5, 42120, Note_on_c, 2, 74, 72
5, 42150, Note_on_c, 2, 74, 0
5, 42150, Note_on_c, 2, 74, 0
5, 42150, Note_on_c, 2, 72, 72
5, 42150, Note_on_c, 2, 72, 72
5, 42180, Note_on_c, 2, 72, 0
5, 42180, Note_on_c, 2, 72, 0
5, 42180, Note_on_c, 2, 71, 73
5, 42180, Note_on_c, 2, 71, 73
5, 42210, Note_on_c, 2, 71, 0
5, 42210, Note_on_c, 2, 71, 0
5, 42210, Note_on_c, 2, 69, 73
5, 42210, Note_on_c, 2, 69, 73
5, 42240, Note_on_c, 2, 69, 0
5, 42240, Note_on_c, 2, 69, 0
5, 42240, Note_on_c, 2, 71, 73
5, 42240, Note_on_c, 2, 71, 73
5, 42270, Note_on_c, 2, 71, 0
5, 42270, Note_on_c, 2, 71, 0
5, 42270, Note_on_c, 2, 69, 73
5, 42270, Note_on_c, 2, 69, 73
5, 42300, Note_on_c, 2, 69, 0
5, 42300, Note_on_c, 2, 69, 0
5, 42300, Note_on_c, 2, 67, 74
5, 42300, Note_on_c, 2, 67, 74
5, 42330, Note_on_c, 2, 67, 0
5, 42330, Note_on_c, 2, 67, 0
5, 42330, Note_on_c, 2, 69, 74
5, 42330, Note_on_c, 2, 69, 74
5, 42360, Note_on_c, 2, 69, 0
5, 42360, Note_on_c, 2, 69, 0
5, 42360, Note_on_c, 2, 71, 74
5, 42360, Note_on_c, 2, 71, 74
5, 42390, Note_on_c, 2, 71, 0
5, 42390, Note_on_c, 2, 71, 0
5, 42390, Note_on_c, 2, 73, 74
5, 42390, Note_on_c, 2, 73, 74
5, 42420, Note_on_c, 2, 73, 0
5, 42420, Note_on_c, 2, 73, 0
5, 42420, Note_on_c, 2, 74, 75
5, 42420, Note_on_c, 2, 74, 75
5, 42450, Note_on_c, 2, 74, 0
5, 42450, Note_on_c, 2, 74, 0
5, 42450, Note_on_c, 2, 73, 75
5, 42450, Note_on_c, 2, 73, 75
5, 42480, Note_on_c, 2, 73, 0
5, 42480, Note_on_c, 2, 73, 0
5, 42480, Note_on_c, 2, 76, 75
5, 42480, Note_on_c, 2, 76, 75
5, 42510, Note_on_c, 2, 76, 0
5, 42510, Note_on_c, 2, 76, 0
5, 42510, Note_on_c, 2, 74, 75
5, 42510, Note_on_c, 2, 74, 75
5, 42540, Note_on_c, 2, 74, 0
5, 42540, Note_on_c, 2, 74, 0
5, 42540, Note_on_c, 2, 73, 76
5, 42540, Note_on_c, 2, 73, 76
5, 42570, Note_on_c, 2, 73, 0
5, 42570, Note_on_c, 2, 73, 0
5, 42570, Note_on_c, 2, 71, 76
5, 42570, Note_on_c, 2, 71, 76
5, 42600, Note_on_c, 2, 71, 0
5, 42600, Note_on_c, 2, 71, 0
5, 42600, Note_on_c, 2, 73, 76
5, 42600, Note_on_c, 2, 73, 76
5, 42630, Note_on_c, 2, 73, 0
5, 42630, Note_on_c, 2, 73, 0
5, 42630, Note_on_c, 2, 71, 76
5, 42630, Note_on_c, 2, 71, 76
5, 42660, Note_on_c, 2, 71, 0
5, 42660, Note_on_c, 2, 71, 0
5, 42660, Note_on_c, 2, 69, 77
5, 42660, Note_on_c, 2, 69, 77
5, 42690, Note_on_c, 2, 69, 0
5, 42690, Note_on_c, 2, 69, 0
5, 42690, Note_on_c, 2, 71, 77
5, 42690, Note_on_c, 2, 71, 77
5, 42720, Note_on_c, 2, 71, 0
5, 42720, Note_on_c, 2, 71, 0
5, 42720, Note_on_c, 2, 73, 77
5, 42720, Note_on_c, 2, 73, 77
5, 42750, Note_on_c, 2, 73, 0
5, 42750, Note_on_c, 2, 73, 0
5, 42750, Note_on_c, 2, 74, 77
5, 42750, Note_on_c, 2, 74, 77
5, 42780, Note_on_c, 2, 74, 0
5, 42780, Note_on_c, 2, 74, 0
5, 42780, Note_on_c, 2, 76, 78
5, 42780, Note_on_c, 2, 76, 78
5, 42810, Note_on_c, 2, 76, 0
5, 42810, Note_on_c, 2, 76, 0
5, 42810, Note_on_c, 2, 74, 78
5, 42810, Note_on_c, 2, 74, 78
5, 42840, Note_on_c, 2, 74, 0
5, 42840, Note_on_c, 2, 74, 0
5, 42840, Note_on_c, 2, 78, 78
5, 42840, Note_on_c, 2, 78, 78
5, 42870, Note_on_c, 2, 78, 0
5, 42870, Note_on_c, 2, 78, 0
5, 42870, Note_on_c, 2, 76, 78
5, 42870, Note_on_c, 2, 76, 78
5, 42900, Note_on_c, 2, 76, 0
5, 42900, Note_on_c, 2, 76, 0
5, 42900, Note_on_c, 2, 74, 79
5, 42900, Note_on_c, 2, 74, 79
5, 42930, Note_on_c, 2, 74, 0
5, 42930, Note_on_c, 2, 74, 0
5, 42930, Note_on_c, 2, 73, 79
5, 42930, Note_on_c, 2, 73, 79
5, 42960, Note_on_c, 2, 73, 0
5, 42960, Note_on_c, 2, 73, 0
5, 42960, Note_on_c, 2, 74, 79
5, 42960, Note_on_c, 2, 74, 79
5, 42990, Note_on_c, 2, 74, 0
5, 42990, Note_on_c, 2, 74, 0
5, 42990, Note_on_c, 2, 73, 79
5, 42990, Note_on_c, 2, 73, 79
5, 43020, Note_on_c, 2, 73, 0
5, 43020, Note_on_c, 2, 73, 0
5, 43020, Note_on_c, 2, 71, 80
5, 43020, Note_on_c, 2, 71, 80
5, 43050, Note_on_c, 2, 71, 0
5, 43050, Note_on_c, 2, 71, 0
5, 43050, Note_on_c, 2, 73, 80
5, 43050, Note_on_c, 2, 73, 80
5, 43080, Note_on_c, 2, 73, 0
5, 43080, Note_on_c, 2, 73, 0
5, 43080, Note_on_c, 2, 74, 80
5, 43080, Note_on_c, 2, 74, 80
5, 43110, Note_on_c, 2, 74, 0
5, 43110, Note_on_c, 2, 74, 0
5, 43110, Note_on_c, 2, 76, 80
5, 43110, Note_on_c, 2, 76, 80
5, 43140, Note_on_c, 2, 76, 0
5, 43140, Note_on_c, 2, 76, 0
5, 43140, Note_on_c, 2, 78, 81
5, 43140, Note_on_c, 2, 78, 81
5, 43170, Note_on_c, 2, 78, 0
5, 43170, Note_on_c, 2, 78, 0
5, 43170, Note_on_c, 2, 76, 81
5, 43170, Note_on_c, 2, 76, 81
5, 43200, Note_on_c, 2, 76, 0
5, 43200, Note_on_c, 2, 76, 0
5, 43200, Note_on_c, 2, 79, 81
5, 43200, Note_on_c, 2, 79, 81
5, 43230, Note_on_c, 2, 79, 0
5, 43230, Note_on_c, 2, 79, 0
5, 43230, Note_on_c, 2, 78, 81
5, 43230, Note_on_c, 2, 78, 81
5, 43260, Note_on_c, 2, 78, 0
5, 43260, Note_on_c, 2, 78, 0
5, 43260, Note_on_c, 2, 76, 82
5, 43260, Note_on_c, 2, 76, 82
5, 43290, Note_on_c, 2, 76, 0
5, 43290, Note_on_c, 2, 76, 0
5, 43290, Note_on_c, 2, 74, 82
5, 43290, Note_on_c, 2, 74, 82
5, 43320, Note_on_c, 2, 74, 0
5, 43320, Note_on_c, 2, 74, 0
5, 43320, Note_on_c, 2, 76, 82
5, 43320, Note_on_c, 2, 76, 82
5, 43350, Note_on_c, 2, 76, 0
5, 43350, Note_on_c, 2, 76, 0
5, 43350, Note_on_c, 2, 74, 82
5, 43350, Note_on_c, 2, 74, 82
5, 43380, Note_on_c, 2, 74, 0
5, 43380, Note_on_c, 2, 74, 0
5, 43380, Note_on_c, 2, 73, 83
5, 43380, Note_on_c, 2, 73, 83
5, 43410, Note_on_c, 2, 73, 0
5, 43410, Note_on_c, 2, 73, 0
5, 43410, Note_on_c, 2, 74, 83
5, 43410, Note_on_c, 2, 74, 83
5, 43440, Note_on_c, 2, 74, 0
5, 43440, Note_on_c, 2, 74, 0
5, 43440, Note_on_c, 2, 76, 83
5, 43440, Note_on_c, 2, 76, 83
5, 43470, Note_on_c, 2, 76, 0
5, 43470, Note_on_c, 2, 76, 0
5, 43470, Note_on_c, 2, 78, 83
5, 43470, Note_on_c, 2, 78, 83
5, 43500, Note_on_c, 2, 78, 0
5, 43500, Note_on_c, 2, 78, 0
5, 43500, Note_on_c, 2, 79, 84
5, 43500, Note_on_c, 2, 79, 84
5, 43530, Note_on_c, 2, 79, 0
5, 43530, Note_on_c, 2, 79, 0
5, 43530, Note_on_c, 2, 78, 84
5, 43530, Note_on_c, 2, 78, 84
5, 43560, Note_on_c, 2, 78, 0
5, 43560, Note_on_c, 2, 78, 0
5, 43560, Note_on_c, 2, 81, 84
5, 43560, Note_on_c, 2, 81, 84
5, 43590, Note_on_c, 2, 81, 0
5, 43590, Note_on_c, 2, 81, 0
5, 43590, Note_on_c, 2, 79, 84
5, 43590, Note_on_c, 2, 79, 84
5, 43620, Note_on_c, 2, 79, 0
5, 43620, Note_on_c, 2, 79, 0
5, 43620, Note_on_c, 2, 78, 85
5, 43620, Note_on_c, 2, 78, 85
5, 43650, Note_on_c, 2, 78, 0
5, 43650, Note_on_c, 2, 78, 0
5, 43650, Note_on_c, 2, 76, 85
5, 43650, Note_on_c, 2, 76, 85
5, 43680, Note_on_c, 2, 76, 0
5, 43680, Note_on_c, 2, 76, 0
5, 43680, Note_on_c, 2, 78, 80
5, 43680, Note_on_c, 2, 78, 80
5, 43721, Note_on_c, 2, 78, 0
5, 43721, Note_on_c, 2, 78, 0
5, 43740, Note_on_c, 2, 69, 81
5, 43740, Note_on_c, 2, 69, 81
5, 43781, Note_on_c, 2, 69, 0
5, 43781, Note_on_c, 2, 69, 0
5, 43800, Note_on_c, 2, 74, 81
5, 43800, Note_on_c, 2, 74, 81
5, 43841, Note_on_c, 2, 74, 0
5, 43841, Note_on_c, 2, 74, 0
5, 43860, Note_on_c, 2, 78, 82
5, 43860, Note_on_c, 2, 78, 82
5, 43901, Note_on_c, 2, 78, 0
5, 43901, Note_on_c, 2, 78, 0
5, 43920, Note_on_c, 2, 81, 82
5, 43920, Note_on_c, 2, 81, 82
5, 43961, Note_on_c, 2, 81, 0
5, 43961, Note_on_c, 2, 81, 0
5, 43980, Note_on_c, 2, 84, 83
5, 43980, Note_on_c, 2, 84, 83
5, 44021, Note_on_c, 2, 84, 0
5, 44021, Note_on_c, 2, 84, 0
5, 44040, Note_on_c, 2, 83, 83
5, 44040, Note_on_c, 2, 83, 83
5, 44081, Note_on_c, 2, 83, 0
5, 44081, Note_on_c, 2, 83, 0
5, 44100, Note_on_c, 2, 67, 84
5, 44100, Note_on_c, 2, 67, 84
5, 44141, Note_on_c, 2, 67, 0
5, 44141, Note_on_c, 2, 67, 0
5, 44160, Note_on_c, 2, 73, 84
5, 44160, Note_on_c, 2, 73, 84
5, 44201, Note_on_c, 2, 73, 0
5, 44201, Note_on_c, 2, 73, 0
5, 44220, Note_on_c, 2, 76, 85
5, 44220, Note_on_c, 2, 76, 85
5, 44261, Note_on_c, 2, 76, 0
5, 44261, Note_on_c, 2, 76, 0
5, 44280, Note_on_c, 2, 79, 86
5, 44280, Note_on_c, 2, 79, 86
5, 44321, Note_on_c, 2, 79, 0
5, 44321, Note_on_c, 2, 79, 0
5, 44340, Note_on_c, 2, 83, 86
5, 44340, Note_on_c, 2, 83, 86
5, 44381, Note_on_c, 2, 83, 0
5, 44381, Note_on_c, 2, 83, 0
5, 44400, Note_on_c, 2, 81, 87
5, 44400, Note_on_c, 2, 81, 87
5, 44441, Note_on_c, 2, 81, 0
5, 44441, Note_on_c, 2, 81, 0
5, 44460, Note_on_c, 2, 66, 87
5, 44460, Note_on_c, 2, 66, 87
5, 44501, Note_on_c, 2, 66, 0
5, 44501, Note_on_c, 2, 66, 0
5, 44520, Note_on_c, 2, 69, 88
5, 44520, Note_on_c, 2, 69, 88
5, 44561, Note_on_c, 2, 69, 0
5, 44561, Note_on_c, 2, 69, 0
5, 44580, Note_on_c, 2, 74, 88
5, 44580, Note_on_c, 2, 74, 88
5, 44621, Note_on_c, 2, 74, 0
5, 44621, Note_on_c, 2, 74, 0
5, 44640, Note_on_c, 2, 78, 89
5, 44640, Note_on_c, 2, 78, 89
5, 44681, Note_on_c, 2, 78, 0
5, 44681, Note_on_c, 2, 78, 0
5, 44700, Note_on_c, 2, 81, 89
5, 44700, Note_on_c, 2, 81, 89
5, 44741, Note_on_c, 2, 81, 0
5, 44741, Note_on_c, 2, 81, 0
5, 44760, Note_on_c, 2, 79, 90
5, 44760, Note_on_c, 2, 79, 90
5, 44801, Note_on_c, 2, 79, 0
5, 44801, Note_on_c, 2, 79, 0
5, 44820, Note_on_c, 2, 83, 91
5, 44820, Note_on_c, 2, 83, 91
5, 44850, Note_on_c, 2, 83, 0
5, 44850, Note_on_c, 2, 83, 0
5, 44850, Note_on_c, 2, 81, 91
5, 44850, Note_on_c, 2, 81, 91
5, 44880, Note_on_c, 2, 81, 0
5, 44880, Note_on_c, 2, 81, 0
5, 44880, Note_on_c, 2, 79, 91
5, 44880, Note_on_c, 2, 79, 91
5, 44921, Note_on_c, 2, 79, 0
5, 44921, Note_on_c, 2, 79, 0
5, 44940, Note_on_c, 2, 79, 92
5, 44940, Note_on_c, 2, 79, 92
5, 44970, Note_on_c, 2, 79, 0
5, 44970, Note_on_c, 2, 79, 0
5, 44970, Note_on_c, 2, 78, 92
5, 44970, Note_on_c, 2, 78, 92
5, 45000, Note_on_c, 2, 78, 0
5, 45000, Note_on_c, 2, 78, 0
5, 45000, Note_on_c, 2, 76, 92
5, 45000, Note_on_c, 2, 76, 92
5, 45041, Note_on_c, 2, 76, 0
5, 45041, Note_on_c, 2, 76, 0
5, 45060, Note_on_c, 2, 76, 93
5, 45060, Note_on_c, 2, 76, 93
5, 45090, Note_on_c, 2, 76, 0
5, 45090, Note_on_c, 2, 76, 0
5, 45090, Note_on_c, 2, 74, 93
5, 45090, Note_on_c, 2, 74, 93
5, 45120, Note_on_c, 2, 74, 0
5, 45120, Note_on_c, 2, 74, 0
5, 45120, Note_on_c, 2, 73, 93
5, 45120, Note_on_c, 2, 73, 93
5, 45150, Note_on_c, 2, 73, 0
5, 45150, Note_on_c, 2, 73, 0
5, 45150, Note_on_c, 2, 81, 94
5, 45150, Note_on_c, 2, 81, 94
5, 45180, Note_on_c, 2, 81, 0
5, 45180, Note_on_c, 2, 81, 0
5, 45180, Note_on_c, 2, 79, 94
5, 45180, Note_on_c, 2, 79, 94
5, 45210, Note_on_c, 2, 79, 0
5, 45210, Note_on_c, 2, 79, 0
5, 45210, Note_on_c, 2, 78, 94
5, 45210, Note_on_c, 2, 78, 94
5, 45240, Note_on_c, 2, 78, 0
5, 45240, Note_on_c, 2, 78, 0
5, 45240, Note_on_c, 2, 76, 94
5, 45240, Note_on_c, 2, 76, 94
5, 45270, Note_on_c, 2, 76, 0
5, 45270, Note_on_c, 2, 76, 0
5, 45270, Note_on_c, 2, 74, 95
5, 45270, Note_on_c, 2, 74, 95
5, 45300, Note_on_c, 2, 74, 0
5, 45300, Note_on_c, 2, 74, 0
5, 45300, Note_on_c, 2, 73, 95
5, 45300, Note_on_c, 2, 73, 95
5, 45330, Note_on_c, 2, 73, 0
5, 45330, Note_on_c, 2, 73, 0
5, 45330, Note_on_c, 2, 71, 95
5, 45330, Note_on_c, 2, 71, 95
5, 45360, Note_on_c, 2, 71, 0
5, 45360, Note_on_c, 2, 71, 0
5, 45360, Note_on_c, 2, 69, 96
5, 45360, Note_on_c, 2, 69, 96
5, 45390, Note_on_c, 2, 69, 0
5, 45390, Note_on_c, 2, 69, 0
5, 45390, Note_on_c, 2, 71, 96
5, 45390, Note_on_c, 2, 71, 96
5, 45420, Note_on_c, 2, 71, 0
5, 45420, Note_on_c, 2, 71, 0
5, 45420, Note_on_c, 2, 73, 96
5, 45420, Note_on_c, 2, 73, 96
5, 45450, Note_on_c, 2, 73, 0
5, 45450, Note_on_c, 2, 73, 0
5, 45450, Note_on_c, 2, 69, 96
5, 45450, Note_on_c, 2, 69, 96
5, 45480, Note_on_c, 2, 69, 0
5, 45480, Note_on_c, 2, 69, 0
5, 45480, Note_on_c, 2, 74, 97
5, 45480, Note_on_c, 2, 74, 97
5, 45510, Note_on_c, 2, 74, 0
5, 45510, Note_on_c, 2, 74, 0
5, 45510, Note_on_c, 2, 76, 97
5, 45510, Note_on_c, 2, 76, 97
5, 45540, Note_on_c, 2, 76, 0
5, 45540, Note_on_c, 2, 76, 0
5, 45540, Note_on_c, 2, 78, 97
5, 45540, Note_on_c, 2, 78, 97
5, 45570, Note_on_c, 2, 78, 0
5, 45570, Note_on_c, 2, 78, 0
5, 45570, Note_on_c, 2, 79, 98
5, 45570, Note_on_c, 2, 79, 98
5, 45600, Note_on_c, 2, 79, 0
5, 45600, Note_on_c, 2, 79, 0
5, 45600, Note_on_c, 2, 81, 98
5, 45600, Note_on_c, 2, 81, 98
5, 45630, Note_on_c, 2, 81, 0
5, 45630, Note_on_c, 2, 81, 0
5, 45630, Note_on_c, 2, 79, 98
5, 45630, Note_on_c, 2, 79, 98
5, 45660, Note_on_c, 2, 79, 0
5, 45660, Note_on_c, 2, 79, 0
5, 45660, Note_on_c, 2, 83, 98
5, 45660, Note_on_c, 2, 83, 98
5, 45690, Note_on_c, 2, 83, 0
5, 45690, Note_on_c, 2, 83, 0
5, 45690, Note_on_c, 2, 81, 99
5, 45690, Note_on_c, 2, 81, 99
5, 45720, Note_on_c, 2, 81, 0
5, 45720, Note_on_c, 2, 81, 0
5, 45720, Note_on_c, 2, 79, 99
5, 45720, Note_on_c, 2, 79, 99
5, 45750, Note_on_c, 2, 79, 0
5, 45750, Note_on_c, 2, 79, 0
5, 45750, Note_on_c, 2, 78, 99
5, 45750, Note_on_c, 2, 78, 99
5, 45780, Note_on_c, 2, 78, 0
5, 45780, Note_on_c, 2, 78, 0
5, 45780, Note_on_c, 2, 76, 99
5, 45780, Note_on_c, 2, 76, 99
5, 45810, Note_on_c, 2, 76, 0
5, 45810, Note_on_c, 2, 76, 0
5, 45810, Note_on_c, 2, 78, 100
5, 45810, Note_on_c, 2, 78, 100
5, 45840, Note_on_c, 2, 78, 0
5, 45840, Note_on_c, 2, 78, 0
5, 45840, Note_on_c, 2, 74, 100
5, 45840, Note_on_c, 2, 74, 100
5, 46200, Note_on_c, 2, 74, 0
5, 46200, Note_on_c, 2, 74, 0
5, 46560, End_track
6, 0, Start_track
6, 0, MIDI_port, 0
6, 0, Title_t, "Bassoon"
6, 0, Program_c, 4, 70
6, 120, Control_c, 4, 7, 100
6, 120, Note_on_c, 4, 54, 64
6, 120, Note_on_c, 4, 62, 64
6, 240, Note_on_c, 4, 62, 0
6, 240, Note_on_c, 4, 54, 0
6, 540, Note_on_c, 4, 50, 64
6, 581, Note_on_c, 4, 50, 0
6, 600, Note_on_c, 4, 38, 64
6, 641, Note_on_c, 4, 38, 0
6, 660, Note_on_c, 4, 50, 64
6, 701, Note_on_c, 4, 50, 0
6, 720, Note_on_c, 4, 38, 64
6, 761, Note_on_c, 4, 38, 0
6, 780, Note_on_c, 4, 50, 64
6, 821, Note_on_c, 4, 50, 0
6, 840, Note_on_c, 4, 49, 64
6, 960, Note_on_c, 4, 49, 0
6, 1260, Note_on_c, 4, 57, 64
6, 1301, Note_on_c, 4, 57, 0
6, 1320, Note_on_c, 4, 45, 64
6, 1361, Note_on_c, 4, 45, 0
6, 1380, Note_on_c, 4, 57, 64
6, 1421, Note_on_c, 4, 57, 0
6, 1440, Note_on_c, 4, 45, 64
6, 1481, Note_on_c, 4, 45, 0
6, 1500, Note_on_c, 4, 57, 64
6, 1541, Note_on_c, 4, 57, 0
6, 1560, Note_on_c, 4, 50, 64
6, 1601, Note_on_c, 4, 50, 0
6, 1620, Note_on_c, 4, 62, 64
6, 1650, Note_on_c, 4, 62, 0
6, 1650, Note_on_c, 4, 57, 64
6, 1680, Note_on_c, 4, 57, 0
6, 1680, Note_on_c, 4, 57, 64
6, 1710, Note_on_c, 4, 57, 0
6, 1710, Note_on_c, 4, 54, 64
6, 1740, Note_on_c, 4, 54, 0
6, 1740, Note_on_c, 4, 54, 64
6, 1770, Note_on_c, 4, 54, 0
6, 1770, Note_on_c, 4, 50, 64
6, 1800, Note_on_c, 4, 50, 0
6, 1800, Note_on_c, 4, 50, 64
6, 1830, Note_on_c, 4, 50, 0
6, 1830, Note_on_c, 4, 54, 64
6, 1860, Note_on_c, 4, 54, 0
6, 1860, Note_on_c, 4, 54, 64
6, 1890, Note_on_c, 4, 54, 0
6, 1890, Note_on_c, 4, 50, 64
6, 1920, Note_on_c, 4, 50, 0
6, 1920, Note_on_c, 4, 47, 64
6, 1961, Note_on_c, 4, 47, 0
6, 1980, Note_on_c, 4, 59, 64
6, 2010, Note_on_c, 4, 59, 0
6, 2010, Note_on_c, 4, 54, 64
6, 2040, Note_on_c, 4, 54, 0
6, 2040, Note_on_c, 4, 54, 64
6, 2070, Note_on_c, 4, 54, 0
6, 2070, Note_on_c, 4, 50, 64
6, 2100, Note_on_c, 4, 50, 0
6, 2100, Note_on_c, 4, 50, 64
6, 2130, Note_on_c, 4, 50, 0
6, 2130, Note_on_c, 4, 47, 64
6, 2160, Note_on_c, 4, 47, 0
6, 2160, Note_on_c, 4, 47, 64
6, 2190, Note_on_c, 4, 47, 0
6, 2190, Note_on_c, 4, 50, 64
6, 2220, Note_on_c, 4, 50, 0
6, 2220, Note_on_c, 4, 50, 64
6, 2250, Note_on_c, 4, 50, 0
6, 2250, Note_on_c, 4, 47, 64
6, 2280, Note_on_c, 4, 47, 0
6, 2280, Note_on_c, 4, 42, 64
6, 2321, Note_on_c, 4, 42, 0
6, 2340, Note_on_c, 4, 54, 64
6, 2370, Note_on_c, 4, 54, 0
6, 2370, Note_on_c, 4, 50, 64
6, 2400, Note_on_c, 4, 50, 0
6, 2400, Note_on_c, 4, 50, 64
6, 2430, Note_on_c, 4, 50, 0
6, 2430, Note_on_c, 4, 45, 64
6, 2460, Note_on_c, 4, 45, 0
6, 2460, Note_on_c, 4, 45, 64
6, 2490, Note_on_c, 4, 45, 0
6, 2490, Note_on_c, 4, 42, 64
6, 2520, Note_on_c, 4, 42, 0
6, 2520, Note_on_c, 4, 42, 64
6, 2550, Note_on_c, 4, 42, 0
6, 2550, Note_on_c, 4, 45, 64
6, 2580, Note_on_c, 4, 45, 0
6, 2580, Note_on_c, 4, 45, 64
6, 2610, Note_on_c, 4, 45, 0
6, 2610, Note_on_c, 4, 42, 64
6, 2640, Note_on_c, 4, 42, 0
6, 2640, Note_on_c, 4, 44, 64
6, 2681, Note_on_c, 4, 44, 0
6, 2700, Note_on_c, 4, 56, 64
6, 2730, Note_on_c, 4, 56, 0
6, 2730, Note_on_c, 4, 52, 64
6, 2760, Note_on_c, 4, 52, 0
6, 2760, Note_on_c, 4, 52, 64
6, 2790, Note_on_c, 4, 52, 0
6, 2790, Note_on_c, 4, 47, 64
6, 2820, Note_on_c, 4, 47, 0
6, 2820, Note_on_c, 4, 47, 64
6, 2850, Note_on_c, 4, 47, 0
6, 2850, Note_on_c, 4, 44, 64
6, 2880, Note_on_c, 4, 44, 0
6, 2880, Note_on_c, 4, 44, 64
6, 2910, Note_on_c, 4, 44, 0
6, 2910, Note_on_c, 4, 47, 64
6, 2940, Note_on_c, 4, 47, 0
6, 2940, Note_on_c, 4, 47, 64
6, 2970, Note_on_c, 4, 47, 0
6, 2970, Note_on_c, 4, 44, 64
6, 3000, Note_on_c, 4, 44, 0
6, 3000, Note_on_c, 4, 45, 64
6, 3120, Note_on_c, 4, 45, 0
6, 3420, Note_on_c, 4, 57, 64
6, 3461, Note_on_c, 4, 57, 0
6, 3480, Note_on_c, 4, 45, 64
6, 3521, Note_on_c, 4, 45, 0
6, 3540, Note_on_c, 4, 57, 64
6, 3581, Note_on_c, 4, 57, 0
6, 3600, Note_on_c, 4, 45, 64
6, 3641, Note_on_c, 4, 45, 0
6, 3660, Note_on_c, 4, 57, 64
6, 3701, Note_on_c, 4, 57, 0
6, 3720, Note_on_c, 4, 56, 64
6, 3840, Note_on_c, 4, 56, 0
6, 4140, Note_on_c, 4, 52, 64
6, 4181, Note_on_c, 4, 52, 0
6, 4200, Note_on_c, 4, 40, 64
6, 4241, Note_on_c, 4, 40, 0
6, 4260, Note_on_c, 4, 52, 64
6, 4301, Note_on_c, 4, 52, 0
6, 4320, Note_on_c, 4, 40, 64
6, 4361, Note_on_c, 4, 40, 0
6, 4380, Note_on_c, 4, 52, 64
6, 4421, Note_on_c, 4, 52, 0
6, 4440, Note_on_c, 4, 45, 64
6, 4481, Note_on_c, 4, 45, 0
6, 4500, Note_on_c, 4, 57, 64
6, 4530, Note_on_c, 4, 57, 0
6, 4530, Note_on_c, 4, 52, 64
6, 4560, Note_on_c, 4, 52, 0
6, 4560, Note_on_c, 4, 52, 64
6, 4590, Note_on_c, 4, 52, 0
6, 4590, Note_on_c, 4, 49, 64
6, 4620, Note_on_c, 4, 49, 0
6, 4620, Note_on_c, 4, 49, 64
6, 4650, Note_on_c, 4, 49, 0
6, 4650, Note_on_c, 4, 45, 64
6, 4680, Note_on_c, 4, 45, 0
6, 4680, Note_on_c, 4, 45, 64
6, 4710, Note_on_c, 4, 45, 0
6, 4710, Note_on_c, 4, 49, 64
6, 4740, Note_on_c, 4, 49, 0
6, 4740, Note_on_c, 4, 49, 64
6, 4770, Note_on_c, 4, 49, 0
6, 4770, Note_on_c, 4, 45, 64
6, 4800, Note_on_c, 4, 45, 0
6, 4800, Note_on_c, 4, 42, 64
6, 4841, Note_on_c, 4, 42, 0
6, 4860, Note_on_c, 4, 54, 64
6, 4890, Note_on_c, 4, 54, 0
6, 4890, Note_on_c, 4, 49, 64
6, 4920, Note_on_c, 4, 49, 0
6, 4920, Note_on_c, 4, 49, 64
6, 4950, Note_on_c, 4, 49, 0
6, 4950, Note_on_c, 4, 45, 64
6, 4980, Note_on_c, 4, 45, 0
6, 4980, Note_on_c, 4, 45, 64
6, 5010, Note_on_c, 4, 45, 0
6, 5010, Note_on_c, 4, 42, 64
6, 5040, Note_on_c, 4, 42, 0
6, 5040, Note_on_c, 4, 42, 64
6, 5070, Note_on_c, 4, 42, 0
6, 5070, Note_on_c, 4, 45, 64
6, 5100, Note_on_c, 4, 45, 0
6, 5100, Note_on_c, 4, 45, 64
6, 5130, Note_on_c, 4, 45, 0
6, 5130, Note_on_c, 4, 42, 64
6, 5160, Note_on_c, 4, 42, 0
6, 5160, Note_on_c, 4, 37, 64
6, 5201, Note_on_c, 4, 37, 0
6, 5220, Note_on_c, 4, 49, 64
6, 5250, Note_on_c, 4, 49, 0
6, 5250, Note_on_c, 4, 45, 64
6, 5280, Note_on_c, 4, 45, 0
6, 5280, Note_on_c, 4, 45, 64
6, 5310, Note_on_c, 4, 45, 0
6, 5310, Note_on_c, 4, 40, 64
6, 5340, Note_on_c, 4, 40, 0
6, 5340, Note_on_c, 4, 40, 64
6, 5370, Note_on_c, 4, 40, 0
6, 5370, Note_on_c, 4, 37, 64
6, 5400, Note_on_c, 4, 37, 0
6, 5400, Note_on_c, 4, 37, 64
6, 5430, Note_on_c, 4, 37, 0
6, 5430, Note_on_c, 4, 40, 64
6, 5460, Note_on_c, 4, 40, 0
6, 5460, Note_on_c, 4, 40, 64
6, 5490, Note_on_c, 4, 40, 0
6, 5490, Note_on_c, 4, 37, 64
6, 5520, Note_on_c, 4, 37, 0
6, 5520, Note_on_c, 4, 39, 64
6, 5561, Note_on_c, 4, 39, 0
6, 5580, Note_on_c, 4, 51, 64
6, 5610, Note_on_c, 4, 51, 0
6, 5610, Note_on_c, 4, 47, 64
6, 5640, Note_on_c, 4, 47, 0
6, 5640, Note_on_c, 4, 47, 64
6, 5670, Note_on_c, 4, 47, 0
6, 5670, Note_on_c, 4, 42, 64
6, 5700, Note_on_c, 4, 42, 0
6, 5700, Note_on_c, 4, 42, 64
6, 5730, Note_on_c, 4, 42, 0
6, 5730, Note_on_c, 4, 39, 64
6, 5760, Note_on_c, 4, 39, 0
6, 5760, Note_on_c, 4, 39, 64
6, 5790, Note_on_c, 4, 39, 0
6, 5790, Note_on_c, 4, 42, 64
6, 5820, Note_on_c, 4, 42, 0
6, 5820, Note_on_c, 4, 42, 64
6, 5850, Note_on_c, 4, 42, 0
6, 5850, Note_on_c, 4, 39, 64
6, 5880, Note_on_c, 4, 39, 0
6, 5880, Note_on_c, 4, 40, 40
6, 6000, Note_on_c, 4, 40, 0
6, 6300, Note_on_c, 4, 53, 47
6, 6341, Note_on_c, 4, 53, 0
6, 6360, Note_on_c, 4, 41, 48
6, 6401, Note_on_c, 4, 41, 0
6, 6420, Note_on_c, 4, 53, 49
6, 6461, Note_on_c, 4, 53, 0
6, 6480, Note_on_c, 4, 41, 50
6, 6521, Note_on_c, 4, 41, 0
6, 6540, Note_on_c, 4, 53, 51
6, 6581, Note_on_c, 4, 53, 0
6, 6600, Note_on_c, 4, 42, 52
6, 6720, Note_on_c, 4, 42, 0
6, 7020, Note_on_c, 4, 57, 59
6, 7061, Note_on_c, 4, 57, 0
6, 7080, Note_on_c, 4, 45, 60
6, 7121, Note_on_c, 4, 45, 0
6, 7140, Note_on_c, 4, 57, 61
6, 7181, Note_on_c, 4, 57, 0
6, 7200, Note_on_c, 4, 45, 62
6, 7241, Note_on_c, 4, 45, 0
6, 7260, Note_on_c, 4, 57, 63
6, 7301, Note_on_c, 4, 57, 0
6, 7320, Note_on_c, 4, 38, 50
6, 7361, Note_on_c, 4, 38, 0
6, 7380, Note_on_c, 4, 50, 51
6, 7410, Note_on_c, 4, 50, 0
6, 7410, Note_on_c, 4, 49, 51
6, 7440, Note_on_c, 4, 49, 0
6, 7440, Note_on_c, 4, 50, 52
6, 7481, Note_on_c, 4, 50, 0
6, 7500, Note_on_c, 4, 47, 53
6, 7541, Note_on_c, 4, 47, 0
6, 7560, Note_on_c, 4, 49, 53
6, 7601, Note_on_c, 4, 49, 0
6, 7620, Note_on_c, 4, 50, 54
6, 7661, Note_on_c, 4, 50, 0
6, 7680, Note_on_c, 4, 40, 55
6, 7721, Note_on_c, 4, 40, 0
6, 7740, Note_on_c, 4, 52, 56
6, 7770, Note_on_c, 4, 52, 0
6, 7770, Note_on_c, 4, 50, 56
6, 7800, Note_on_c, 4, 50, 0
6, 7800, Note_on_c, 4, 52, 57
6, 7841, Note_on_c, 4, 52, 0
6, 7860, Note_on_c, 4, 49, 58
6, 7901, Note_on_c, 4, 49, 0
6, 7920, Note_on_c, 4, 50, 58
6, 7961, Note_on_c, 4, 50, 0
6, 7980, Note_on_c, 4, 52, 59
6, 8021, Note_on_c, 4, 52, 0
6, 8040, Note_on_c, 4, 42, 60
6, 8081, Note_on_c, 4, 42, 0
6, 8100, Note_on_c, 4, 54, 61
6, 8130, Note_on_c, 4, 54, 0
6, 8130, Note_on_c, 4, 52, 61
6, 8160, Note_on_c, 4, 52, 0
6, 8160, Note_on_c, 4, 54, 62
6, 8201, Note_on_c, 4, 54, 0
6, 8220, Note_on_c, 4, 50, 63
6, 8261, Note_on_c, 4, 50, 0
6, 8280, Note_on_c, 4, 52, 63
6, 8321, Note_on_c, 4, 52, 0
6, 8340, Note_on_c, 4, 54, 64
6, 8381, Note_on_c, 4, 54, 0
6, 8400, Note_on_c, 4, 44, 65
6, 8441, Note_on_c, 4, 44, 0
6, 8460, Note_on_c, 4, 56, 66
6, 8490, Note_on_c, 4, 56, 0
6, 8490, Note_on_c, 4, 54, 66
6, 8520, Note_on_c, 4, 54, 0
6, 8520, Note_on_c, 4, 56, 67
6, 8561, Note_on_c, 4, 56, 0
6, 8580, Note_on_c, 4, 52, 68
6, 8621, Note_on_c, 4, 52, 0
6, 8640, Note_on_c, 4, 54, 68
6, 8681, Note_on_c, 4, 54, 0
6, 8700, Note_on_c, 4, 56, 69
6, 8741, Note_on_c, 4, 56, 0
6, 8760, Note_on_c, 4, 57, 64
6, 8801, Note_on_c, 4, 57, 0
6, 8820, Note_on_c, 4, 45, 64
6, 8861, Note_on_c, 4, 45, 0
6, 8880, Note_on_c, 4, 45, 64
6, 8921, Note_on_c, 4, 45, 0
6, 8940, Note_on_c, 4, 45, 64
6, 8981, Note_on_c, 4, 45, 0
6, 9000, Note_on_c, 4, 45, 64
6, 9041, Note_on_c, 4, 45, 0
6, 9060, Note_on_c, 4, 45, 64
6, 9101, Note_on_c, 4, 45, 0
6, 9120, Note_on_c, 4, 55, 64
6, 9161, Note_on_c, 4, 55, 0
6, 9180, Note_on_c, 4, 43, 64
6, 9221, Note_on_c, 4, 43, 0
6, 9240, Note_on_c, 4, 43, 64
6, 9281, Note_on_c, 4, 43, 0
6, 9300, Note_on_c, 4, 43, 64
6, 9341, Note_on_c, 4, 43, 0
6, 9360, Note_on_c, 4, 43, 64
6, 9401, Note_on_c, 4, 43, 0
6, 9420, Note_on_c, 4, 43, 64
6, 9461, Note_on_c, 4, 43, 0
6, 9480, Note_on_c, 4, 54, 64
6, 9521, Note_on_c, 4, 54, 0
6, 9540, Note_on_c, 4, 42, 64
6, 9581, Note_on_c, 4, 42, 0
6, 9600, Note_on_c, 4, 42, 64
6, 9641, Note_on_c, 4, 42, 0
6, 9660, Note_on_c, 4, 42, 64
6, 9701, Note_on_c, 4, 42, 0
6, 9720, Note_on_c, 4, 42, 64
6, 9761, Note_on_c, 4, 42, 0
6, 9780, Note_on_c, 4, 42, 64
6, 9821, Note_on_c, 4, 42, 0
6, 9840, Note_on_c, 4, 52, 64
6, 9881, Note_on_c, 4, 52, 0
6, 9900, Note_on_c, 4, 40, 64
6, 9941, Note_on_c, 4, 40, 0
6, 9960, Note_on_c, 4, 40, 64
6, 10001, Note_on_c, 4, 40, 0
6, 10020, Note_on_c, 4, 40, 64
6, 10061, Note_on_c, 4, 40, 0
6, 10080, Note_on_c, 4, 40, 64
6, 10121, Note_on_c, 4, 40, 0
6, 10140, Note_on_c, 4, 40, 64
6, 10181, Note_on_c, 4, 40, 0
6, 10200, Note_on_c, 4, 51, 64
6, 10241, Note_on_c, 4, 51, 0
6, 10260, Note_on_c, 4, 39, 64
6, 10301, Note_on_c, 4, 39, 0
6, 10320, Note_on_c, 4, 39, 64
6, 10361, Note_on_c, 4, 39, 0
6, 10380, Note_on_c, 4, 39, 64
6, 10421, Note_on_c, 4, 39, 0
6, 10440, Note_on_c, 4, 39, 64
6, 10481, Note_on_c, 4, 39, 0
6, 10500, Note_on_c, 4, 39, 64
6, 10541, Note_on_c, 4, 39, 0
6, 10560, Note_on_c, 4, 50, 64
6, 10601, Note_on_c, 4, 50, 0
6, 10620, Note_on_c, 4, 38, 64
6, 10661, Note_on_c, 4, 38, 0
6, 10680, Note_on_c, 4, 38, 64
6, 10721, Note_on_c, 4, 38, 0
6, 10740, Note_on_c, 4, 38, 64
6, 10781, Note_on_c, 4, 38, 0
6, 10800, Note_on_c, 4, 38, 64
6, 10841, Note_on_c, 4, 38, 0
6, 10860, Note_on_c, 4, 38, 64
6, 10901, Note_on_c, 4, 38, 0
6, 10920, Note_on_c, 4, 37, 64
6, 10961, Note_on_c, 4, 37, 0
6, 10980, Note_on_c, 4, 57, 64
6, 11010, Note_on_c, 4, 57, 0
6, 11010, Note_on_c, 4, 59, 64
6, 11040, Note_on_c, 4, 59, 0
6, 11040, Note_on_c, 4, 57, 64
6, 11081, Note_on_c, 4, 57, 0
6, 11100, Note_on_c, 4, 56, 64
6, 11141, Note_on_c, 4, 56, 0
6, 11160, Note_on_c, 4, 54, 64
6, 11201, Note_on_c, 4, 54, 0
6, 11220, Note_on_c, 4, 52, 64
6, 11261, Note_on_c, 4, 52, 0
6, 11280, Note_on_c, 4, 50, 64
6, 11321, Note_on_c, 4, 50, 0
6, 11340, Note_on_c, 4, 56, 64
6, 11370, Note_on_c, 4, 56, 0
6, 11370, Note_on_c, 4, 57, 64
6, 11400, Note_on_c, 4, 57, 0
6, 11400, Note_on_c, 4, 56, 64
6, 11441, Note_on_c, 4, 56, 0
6, 11460, Note_on_c, 4, 54, 64
6, 11501, Note_on_c, 4, 54, 0
6, 11520, Note_on_c, 4, 52, 64
6, 11561, Note_on_c, 4, 52, 0
6, 11580, Note_on_c, 4, 50, 64
6, 11621, Note_on_c, 4, 50, 0
6, 11640, Note_on_c, 4, 49, 64
6, 11681, Note_on_c, 4, 49, 0
6, 11700, Note_on_c, 4, 54, 64
6, 11730, Note_on_c, 4, 54, 0
6, 11730, Note_on_c, 4, 56, 64
6, 11760, Note_on_c, 4, 56, 0
6, 11760, Note_on_c, 4, 54, 64
6, 11801, Note_on_c, 4, 54, 0
6, 11820, Note_on_c, 4, 52, 64
6, 11861, Note_on_c, 4, 52, 0
6, 11880, Note_on_c, 4, 50, 64
6, 11921, Note_on_c, 4, 50, 0
6, 11940, Note_on_c, 4, 49, 64
6, 11981, Note_on_c, 4, 49, 0
6, 12000, Note_on_c, 4, 47, 64
6, 12030, Note_on_c, 4, 47, 0
6, 12030, Note_on_c, 4, 49, 64
6, 12060, Note_on_c, 4, 49, 0
6, 12060, Note_on_c, 4, 50, 64
6, 12090, Note_on_c, 4, 50, 0
6, 12090, Note_on_c, 4, 49, 64
6, 12120, Note_on_c, 4, 49, 0
6, 12120, Note_on_c, 4, 47, 64
6, 12161, Note_on_c, 4, 47, 0
6, 12180, Note_on_c, 4, 45, 64
6, 12221, Note_on_c, 4, 45, 0
6, 12240, Note_on_c, 4, 44, 64
6, 12281, Note_on_c, 4, 44, 0
6, 12300, Note_on_c, 4, 42, 64
6, 12341, Note_on_c, 4, 42, 0
6, 12360, Note_on_c, 4, 40, 64
6, 12401, Note_on_c, 4, 40, 0
6, 12420, Note_on_c, 4, 42, 65
6, 12461, Note_on_c, 4, 42, 0
6, 12480, Note_on_c, 4, 44, 67
6, 12521, Note_on_c, 4, 44, 0
6, 12540, Note_on_c, 4, 40, 68
6, 12581, Note_on_c, 4, 40, 0
6, 12600, Note_on_c, 4, 45, 69
6, 12641, Note_on_c, 4, 45, 0
6, 12660, Note_on_c, 4, 52, 71
6, 12701, Note_on_c, 4, 52, 0
6, 12720, Note_on_c, 4, 54, 72
6, 12761, Note_on_c, 4, 54, 0
6, 12780, Note_on_c, 4, 52, 73
6, 12810, Note_on_c, 4, 52, 0
6, 12810, Note_on_c, 4, 50, 74
6, 12840, Note_on_c, 4, 50, 0
6, 12840, Note_on_c, 4, 49, 75
6, 12881, Note_on_c, 4, 49, 0
6, 12900, Note_on_c, 4, 50, 76
6, 12941, Note_on_c, 4, 50, 0
6, 12960, Note_on_c, 4, 52, 77
6, 13001, Note_on_c, 4, 52, 0
6, 13020, Note_on_c, 4, 40, 79
6, 13061, Note_on_c, 4, 40, 0
6, 13080, Note_on_c, 4, 45, 80
6, 13200, Note_on_c, 4, 45, 0
6, 22800, Note_on_c, 4, 47, 64
6, 22920, Note_on_c, 4, 47, 0
6, 23220, Note_on_c, 4, 59, 64
6, 23261, Note_on_c, 4, 59, 0
6, 23280, Note_on_c, 4, 47, 64
6, 23321, Note_on_c, 4, 47, 0
6, 23340, Note_on_c, 4, 59, 64
6, 23381, Note_on_c, 4, 59, 0
6, 23400, Note_on_c, 4, 47, 64
6, 23441, Note_on_c, 4, 47, 0
6, 23460, Note_on_c, 4, 59, 64
6, 23501, Note_on_c, 4, 59, 0
6, 23520, Note_on_c, 4, 58, 64
6, 23640, Note_on_c, 4, 58, 0
6, 23940, Note_on_c, 4, 54, 64
6, 23981, Note_on_c, 4, 54, 0
6, 24000, Note_on_c, 4, 42, 64
6, 24041, Note_on_c, 4, 42, 0
6, 24060, Note_on_c, 4, 54, 64
6, 24101, Note_on_c, 4, 54, 0
6, 24120, Note_on_c, 4, 42, 64
6, 24161, Note_on_c, 4, 42, 0
6, 24180, Note_on_c, 4, 54, 64
6, 24221, Note_on_c, 4, 54, 0
6, 24240, Note_on_c, 4, 47, 64
6, 24360, Note_on_c, 4, 47, 0
6, 24660, Note_on_c, 4, 52, 64
6, 24701, Note_on_c, 4, 52, 0
6, 24720, Note_on_c, 4, 40, 64
6, 24761, Note_on_c, 4, 40, 0
6, 24780, Note_on_c, 4, 52, 64
6, 24821, Note_on_c, 4, 52, 0
6, 24840, Note_on_c, 4, 40, 64
6, 24881, Note_on_c, 4, 40, 0
6, 24900, Note_on_c, 4, 52, 64
6, 24941, Note_on_c, 4, 52, 0
6, 24960, Note_on_c, 4, 45, 64
6, 25001, Note_on_c, 4, 45, 0
6, 25020, Note_on_c, 4, 57, 64
6, 25050, Note_on_c, 4, 57, 0
6, 25050, Note_on_c, 4, 52, 64
6, 25080, Note_on_c, 4, 52, 0
6, 25080, Note_on_c, 4, 52, 64
6, 25110, Note_on_c, 4, 52, 0
6, 25110, Note_on_c, 4, 49, 64
6, 25140, Note_on_c, 4, 49, 0
6, 25140, Note_on_c, 4, 49, 64
6, 25170, Note_on_c, 4, 49, 0
6, 25170, Note_on_c, 4, 45, 64
6, 25200, Note_on_c, 4, 45, 0
6, 25200, Note_on_c, 4, 45, 64
6, 25230, Note_on_c, 4, 45, 0
6, 25230, Note_on_c, 4, 49, 64
6, 25260, Note_on_c, 4, 49, 0
6, 25260, Note_on_c, 4, 49, 64
6, 25290, Note_on_c, 4, 49, 0
6, 25290, Note_on_c, 4, 45, 64
6, 25320, Note_on_c, 4, 45, 0
6, 25320, Note_on_c, 4, 42, 64
6, 25361, Note_on_c, 4, 42, 0
6, 25380, Note_on_c, 4, 54, 64
6, 25410, Note_on_c, 4, 54, 0
6, 25410, Note_on_c, 4, 49, 64
6, 25440, Note_on_c, 4, 49, 0
6, 25440, Note_on_c, 4, 49, 64
6, 25470, Note_on_c, 4, 49, 0
6, 25470, Note_on_c, 4, 45, 64
6, 25500, Note_on_c, 4, 45, 0
6, 25500, Note_on_c, 4, 45, 64
6, 25530, Note_on_c, 4, 45, 0
6, 25530, Note_on_c, 4, 42, 64
6, 25560, Note_on_c, 4, 42, 0
6, 25560, Note_on_c, 4, 42, 64
6, 25590, Note_on_c, 4, 42, 0
6, 25590, Note_on_c, 4, 45, 64
6, 25620, Note_on_c, 4, 45, 0
6, 25620, Note_on_c, 4, 45, 64
6, 25650, Note_on_c, 4, 45, 0
6, 25650, Note_on_c, 4, 42, 64
6, 25680, Note_on_c, 4, 42, 0
6, 25680, Note_on_c, 4, 39, 64
6, 25721, Note_on_c, 4, 39, 0
6, 25740, Note_on_c, 4, 51, 64
6, 25770, Note_on_c, 4, 51, 0
6, 25770, Note_on_c, 4, 47, 64
6, 25800, Note_on_c, 4, 47, 0
6, 25800, Note_on_c, 4, 47, 64
6, 25830, Note_on_c, 4, 47, 0
6, 25830, Note_on_c, 4, 42, 64
6, 25860, Note_on_c, 4, 42, 0
6, 25860, Note_on_c, 4, 42, 64
6, 25890, Note_on_c, 4, 42, 0
6, 25890, Note_on_c, 4, 39, 64
6, 25920, Note_on_c, 4, 39, 0
6, 25920, Note_on_c, 4, 39, 64
6, 25950, Note_on_c, 4, 39, 0
6, 25950, Note_on_c, 4, 42, 64
6, 25980, Note_on_c, 4, 42, 0
6, 25980, Note_on_c, 4, 42, 64
6, 26010, Note_on_c, 4, 42, 0
6, 26010, Note_on_c, 4, 39, 64
6, 26040, Note_on_c, 4, 39, 0
6, 26040, Note_on_c, 4, 41, 64
6, 26081, Note_on_c, 4, 41, 0
6, 26100, Note_on_c, 4, 53, 64
6, 26130, Note_on_c, 4, 53, 0
6, 26130, Note_on_c, 4, 49, 64
6, 26160, Note_on_c, 4, 49, 0
6, 26160, Note_on_c, 4, 49, 64
6, 26190, Note_on_c, 4, 49, 0
6, 26190, Note_on_c, 4, 44, 64
6, 26220, Note_on_c, 4, 44, 0
6, 26220, Note_on_c, 4, 44, 64
6, 26250, Note_on_c, 4, 44, 0
6, 26250, Note_on_c, 4, 41, 64
6, 26280, Note_on_c, 4, 41, 0
6, 26280, Note_on_c, 4, 41, 64
6, 26310, Note_on_c, 4, 41, 0
6, 26310, Note_on_c, 4, 44, 64
6, 26340, Note_on_c, 4, 44, 0
6, 26340, Note_on_c, 4, 44, 64
6, 26370, Note_on_c, 4, 44, 0
6, 26370, Note_on_c, 4, 41, 64
6, 26400, Note_on_c, 4, 41, 0
6, 26400, Note_on_c, 4, 42, 64
6, 26441, Note_on_c, 4, 42, 0
6, 26460, Note_on_c, 4, 54, 64
6, 26501, Note_on_c, 4, 54, 0
6, 26520, Note_on_c, 4, 54, 64
6, 26561, Note_on_c, 4, 54, 0
6, 26580, Note_on_c, 4, 54, 64
6, 26621, Note_on_c, 4, 54, 0
6, 26640, Note_on_c, 4, 54, 64
6, 26681, Note_on_c, 4, 54, 0
6, 26700, Note_on_c, 4, 54, 64
6, 26741, Note_on_c, 4, 54, 0
6, 26760, Note_on_c, 4, 40, 64
6, 26801, Note_on_c, 4, 40, 0
6, 26820, Note_on_c, 4, 52, 64
6, 26861, Note_on_c, 4, 52, 0
6, 26880, Note_on_c, 4, 52, 64
6, 26921, Note_on_c, 4, 52, 0
6, 26940, Note_on_c, 4, 52, 64
6, 26981, Note_on_c, 4, 52, 0
6, 27000, Note_on_c, 4, 52, 64
6, 27041, Note_on_c, 4, 52, 0
6, 27060, Note_on_c, 4, 52, 64
6, 27101, Note_on_c, 4, 52, 0
6, 27120, Note_on_c, 4, 39, 64
6, 27161, Note_on_c, 4, 39, 0
6, 27180, Note_on_c, 4, 51, 64
6, 27221, Note_on_c, 4, 51, 0
6, 27240, Note_on_c, 4, 51, 64
6, 27281, Note_on_c, 4, 51, 0
6, 27300, Note_on_c, 4, 51, 64
6, 27341, Note_on_c, 4, 51, 0
6, 27360, Note_on_c, 4, 51, 64
6, 27401, Note_on_c, 4, 51, 0
6, 27420, Note_on_c, 4, 51, 64
6, 27461, Note_on_c, 4, 51, 0
6, 27480, Note_on_c, 4, 37, 64
6, 27521, Note_on_c, 4, 37, 0
6, 27540, Note_on_c, 4, 49, 64
6, 27581, Note_on_c, 4, 49, 0
6, 27600, Note_on_c, 4, 49, 64
6, 27641, Note_on_c, 4, 49, 0
6, 27660, Note_on_c, 4, 49, 64
6, 27701, Note_on_c, 4, 49, 0
6, 27720, Note_on_c, 4, 49, 64
6, 27761, Note_on_c, 4, 49, 0
6, 27780, Note_on_c, 4, 49, 64
6, 27821, Note_on_c, 4, 49, 0
6, 27840, Note_on_c, 4, 48, 64
6, 27881, Note_on_c, 4, 48, 0
6, 27900, Note_on_c, 4, 60, 64
6, 27941, Note_on_c, 4, 60, 0
6, 27960, Note_on_c, 4, 60, 64
6, 28001, Note_on_c, 4, 60, 0
6, 28020, Note_on_c, 4, 60, 64
6, 28061, Note_on_c, 4, 60, 0
6, 28080, Note_on_c, 4, 60, 64
6, 28121, Note_on_c, 4, 60, 0
6, 28140, Note_on_c, 4, 60, 64
6, 28181, Note_on_c, 4, 60, 0
6, 28200, Note_on_c, 4, 47, 64
6, 28241, Note_on_c, 4, 47, 0
6, 28260, Note_on_c, 4, 59, 66
6, 28301, Note_on_c, 4, 59, 0
6, 28320, Note_on_c, 4, 59, 67
6, 28361, Note_on_c, 4, 59, 0
6, 28380, Note_on_c, 4, 59, 69
6, 28421, Note_on_c, 4, 59, 0
6, 28440, Note_on_c, 4, 59, 71
6, 28481, Note_on_c, 4, 59, 0
6, 28500, Note_on_c, 4, 59, 72
6, 28541, Note_on_c, 4, 59, 0
6, 28560, Note_on_c, 4, 57, 75
6, 28601, Note_on_c, 4, 57, 0
6, 28620, Note_on_c, 4, 53, 76
6, 28661, Note_on_c, 4, 53, 0
6, 28680, Note_on_c, 4, 54, 77
6, 28721, Note_on_c, 4, 54, 0
6, 28740, Note_on_c, 4, 45, 78
6, 28781, Note_on_c, 4, 45, 0
6, 28800, Note_on_c, 4, 47, 78
6, 28841, Note_on_c, 4, 47, 0
6, 28860, Note_on_c, 4, 49, 79
6, 28901, Note_on_c, 4, 49, 0
6, 28920, Note_on_c, 4, 42, 80
6, 29040, Note_on_c, 4, 42, 0
6, 35940, Note_on_c, 4, 57, 64
6, 35981, Note_on_c, 4, 57, 0
6, 36000, Note_on_c, 4, 62, 64
6, 36041, Note_on_c, 4, 62, 0
6, 36060, Note_on_c, 4, 57, 64
6, 36101, Note_on_c, 4, 57, 0
6, 36120, Note_on_c, 4, 54, 64
6, 36150, Note_on_c, 4, 54, 0
6, 36150, Note_on_c, 4, 52, 64
6, 36180, Note_on_c, 4, 52, 0
6, 36180, Note_on_c, 4, 54, 64
6, 36210, Note_on_c, 4, 54, 0
6, 36210, Note_on_c, 4, 55, 64
6, 36240, Note_on_c, 4, 55, 0
6, 36240, Note_on_c, 4, 57, 64
6, 36281, Note_on_c, 4, 57, 0
6, 36300, Note_on_c, 4, 54, 64
6, 36341, Note_on_c, 4, 54, 0
6, 36360, Note_on_c, 4, 57, 65
6, 36401, Note_on_c, 4, 57, 0
6, 36420, Note_on_c, 4, 54, 65
6, 36461, Note_on_c, 4, 54, 0
6, 36480, Note_on_c, 4, 50, 65
6, 36521, Note_on_c, 4, 50, 0
6, 36540, Note_on_c, 4, 54, 65
6, 36570, Note_on_c, 4, 54, 0
6, 36570, Note_on_c, 4, 52, 65
6, 36600, Note_on_c, 4, 52, 0
6, 36600, Note_on_c, 4, 50, 65
6, 36641, Note_on_c, 4, 50, 0
6, 36660, Note_on_c, 4, 54, 65
6, 36701, Note_on_c, 4, 54, 0
6, 36720, Note_on_c, 4, 55, 65
6, 36761, Note_on_c, 4, 55, 0
6, 36780, Note_on_c, 4, 59, 66
6, 36821, Note_on_c, 4, 59, 0
6, 36840, Note_on_c, 4, 52, 66
6, 36881, Note_on_c, 4, 52, 0
6, 36900, Note_on_c, 4, 55, 66
6, 36930, Note_on_c, 4, 55, 0
6, 36930, Note_on_c, 4, 54, 66
6, 36960, Note_on_c, 4, 54, 0
6, 36960, Note_on_c, 4, 52, 66
6, 37001, Note_on_c, 4, 52, 0
6, 37020, Note_on_c, 4, 55, 66
6, 37061, Note_on_c, 4, 55, 0
6, 37080, Note_on_c, 4, 57, 66
6, 37121, Note_on_c, 4, 57, 0
6, 37140, Note_on_c, 4, 60, 66
6, 37181, Note_on_c, 4, 60, 0
6, 37200, Note_on_c, 4, 54, 67
6, 37241, Note_on_c, 4, 54, 0
6, 37260, Note_on_c, 4, 57, 67
6, 37290, Note_on_c, 4, 57, 0
6, 37290, Note_on_c, 4, 55, 67
6, 37320, Note_on_c, 4, 55, 0
6, 37320, Note_on_c, 4, 54, 67
6, 37361, Note_on_c, 4, 54, 0
6, 37380, Note_on_c, 4, 57, 67
6, 37421, Note_on_c, 4, 57, 0
6, 37440, Note_on_c, 4, 50, 67
6, 37481, Note_on_c, 4, 50, 0
6, 37500, Note_on_c, 4, 48, 67
6, 37541, Note_on_c, 4, 48, 0
6, 37560, Note_on_c, 4, 47, 67
6, 37590, Note_on_c, 4, 47, 0
6, 37590, Note_on_c, 4, 48, 68
6, 37620, Note_on_c, 4, 48, 0
6, 37620, Note_on_c, 4, 47, 68
6, 37650, Note_on_c, 4, 47, 0
6, 37650, Note_on_c, 4, 45, 68
6, 37680, Note_on_c, 4, 45, 0
6, 37680, Note_on_c, 4, 43, 68
6, 37721, Note_on_c, 4, 43, 0
6, 37740, Note_on_c, 4, 55, 68
6, 37770, Note_on_c, 4, 55, 0
6, 37770, Note_on_c, 4, 54, 68
6, 37800, Note_on_c, 4, 54, 0
6, 37800, Note_on_c, 4, 55, 68
6, 37841, Note_on_c, 4, 55, 0
6, 37860, Note_on_c, 4, 59, 68
6, 37901, Note_on_c, 4, 59, 0
6, 37920, Note_on_c, 4, 52, 68
6, 37950, Note_on_c, 4, 52, 0
6, 37950, Note_on_c, 4, 50, 68
6, 37980, Note_on_c, 4, 50, 0
6, 37980, Note_on_c, 4, 49, 68
6, 38010, Note_on_c, 4, 49, 0
6, 38010, Note_on_c, 4, 50, 69
6, 38040, Note_on_c, 4, 50, 0
6, 38040, Note_on_c, 4, 52, 69
6, 38070, Note_on_c, 4, 52, 0
6, 38070, Note_on_c, 4, 54, 69
6, 38100, Note_on_c, 4, 54, 0
6, 38100, Note_on_c, 4, 55, 69
6, 38130, Note_on_c, 4, 55, 0
6, 38130, Note_on_c, 4, 54, 69
6, 38160, Note_on_c, 4, 54, 0
6, 38160, Note_on_c, 4, 57, 69
6, 38190, Note_on_c, 4, 57, 0
6, 38190, Note_on_c, 4, 55, 69
6, 38220, Note_on_c, 4, 55, 0
6, 38220, Note_on_c, 4, 54, 69
6, 38250, Note_on_c, 4, 54, 0
6, 38250, Note_on_c, 4, 52, 69
6, 38280, Note_on_c, 4, 52, 0
6, 38280, Note_on_c, 4, 54, 69
6, 38321, Note_on_c, 4, 54, 0
6, 38340, Note_on_c, 4, 42, 69
6, 38381, Note_on_c, 4, 42, 0
6, 38460, Note_on_c, 4, 54, 70
6, 38490, Note_on_c, 4, 54, 0
6, 38490, Note_on_c, 4, 52, 70
6, 38520, Note_on_c, 4, 52, 0
6, 38520, Note_on_c, 4, 54, 70
6, 38561, Note_on_c, 4, 54, 0
6, 38580, Note_on_c, 4, 57, 70
6, 38621, Note_on_c, 4, 57, 0
6, 38640, Note_on_c, 4, 51, 70
6, 38670, Note_on_c, 4, 51, 0
6, 38670, Note_on_c, 4, 49, 70
6, 38700, Note_on_c, 4, 49, 0
6, 38700, Note_on_c, 4, 47, 71
6, 38730, Note_on_c, 4, 47, 0
6, 38730, Note_on_c, 4, 49, 71
6, 38760, Note_on_c, 4, 49, 0
6, 38760, Note_on_c, 4, 51, 71
6, 38790, Note_on_c, 4, 51, 0
6, 38790, Note_on_c, 4, 52, 71
6, 38820, Note_on_c, 4, 52, 0
6, 38820, Note_on_c, 4, 54, 72
6, 38850, Note_on_c, 4, 54, 0
6, 38850, Note_on_c, 4, 52, 72
6, 38880, Note_on_c, 4, 52, 0
6, 38880, Note_on_c, 4, 55, 72
6, 38910, Note_on_c, 4, 55, 0
6, 38910, Note_on_c, 4, 54, 73
6, 38940, Note_on_c, 4, 54, 0
6, 38940, Note_on_c, 4, 52, 73
6, 38970, Note_on_c, 4, 52, 0
6, 38970, Note_on_c, 4, 51, 73
6, 39000, Note_on_c, 4, 51, 0
6, 39000, Note_on_c, 4, 52, 73
6, 39041, Note_on_c, 4, 52, 0
6, 39060, Note_on_c, 4, 40, 74
6, 39101, Note_on_c, 4, 40, 0
6, 39180, Note_on_c, 4, 52, 75
6, 39221, Note_on_c, 4, 52, 0
6, 39240, Note_on_c, 4, 54, 76
6, 39281, Note_on_c, 4, 54, 0
6, 39300, Note_on_c, 4, 56, 76
6, 39341, Note_on_c, 4, 56, 0
6, 39360, Note_on_c, 4, 57, 77
6, 39401, Note_on_c, 4, 57, 0
6, 39420, Note_on_c, 4, 45, 77
6, 39461, Note_on_c, 4, 45, 0
6, 39540, Note_on_c, 4, 57, 78
6, 39581, Note_on_c, 4, 57, 0
6, 39600, Note_on_c, 4, 59, 79
6, 39641, Note_on_c, 4, 59, 0
6, 39660, Note_on_c, 4, 61, 79
6, 39701, Note_on_c, 4, 61, 0
6, 39720, Note_on_c, 4, 62, 75
6, 39761, Note_on_c, 4, 62, 0
6, 39780, Note_on_c, 4, 50, 75
6, 39821, Note_on_c, 4, 50, 0
6, 39840, Note_on_c, 4, 50, 75
6, 39881, Note_on_c, 4, 50, 0
6, 39900, Note_on_c, 4, 50, 75
6, 39941, Note_on_c, 4, 50, 0
6, 39960, Note_on_c, 4, 50, 75
6, 40001, Note_on_c, 4, 50, 0
6, 40020, Note_on_c, 4, 50, 75
6, 40061, Note_on_c, 4, 50, 0
6, 40080, Note_on_c, 4, 60, 75
6, 40121, Note_on_c, 4, 60, 0
6, 40140, Note_on_c, 4, 48, 75
6, 40181, Note_on_c, 4, 48, 0
6, 40200, Note_on_c, 4, 48, 75
6, 40241, Note_on_c, 4, 48, 0
6, 40260, Note_on_c, 4, 48, 75
6, 40301, Note_on_c, 4, 48, 0
6, 40320, Note_on_c, 4, 48, 75
6, 40361, Note_on_c, 4, 48, 0
6, 40380, Note_on_c, 4, 48, 75
6, 40421, Note_on_c, 4, 48, 0
6, 40440, Note_on_c, 4, 59, 75
6, 40481, Note_on_c, 4, 59, 0
6, 40500, Note_on_c, 4, 47, 76
6, 40541, Note_on_c, 4, 47, 0
6, 40560, Note_on_c, 4, 47, 76
6, 40601, Note_on_c, 4, 47, 0
6, 40620, Note_on_c, 4, 47, 77
6, 40661, Note_on_c, 4, 47, 0
6, 40680, Note_on_c, 4, 47, 77
6, 40721, Note_on_c, 4, 47, 0
6, 40740, Note_on_c, 4, 47, 78
6, 40781, Note_on_c, 4, 47, 0
6, 40800, Note_on_c, 4, 57, 78
6, 40841, Note_on_c, 4, 57, 0
6, 40860, Note_on_c, 4, 45, 79
6, 40901, Note_on_c, 4, 45, 0
6, 40920, Note_on_c, 4, 45, 79
6, 40961, Note_on_c, 4, 45, 0
6, 40980, Note_on_c, 4, 45, 80
6, 41021, Note_on_c, 4, 45, 0
6, 41040, Note_on_c, 4, 45, 81
6, 41081, Note_on_c, 4, 45, 0
6, 41100, Note_on_c, 4, 45, 81
6, 41141, Note_on_c, 4, 45, 0
6, 41160, Note_on_c, 4, 56, 82
6, 41201, Note_on_c, 4, 56, 0
6, 41220, Note_on_c, 4, 44, 82
6, 41261, Note_on_c, 4, 44, 0
6, 41280, Note_on_c, 4, 44, 83
6, 41321, Note_on_c, 4, 44, 0
6, 41340, Note_on_c, 4, 44, 83
6, 41381, Note_on_c, 4, 44, 0
6, 41400, Note_on_c, 4, 44, 84
6, 41441, Note_on_c, 4, 44, 0
6, 41460, Note_on_c, 4, 44, 84
6, 41501, Note_on_c, 4, 44, 0
6, 41520, Note_on_c, 4, 55, 85
6, 41561, Note_on_c, 4, 55, 0
6, 41580, Note_on_c, 4, 43, 82
6, 41621, Note_on_c, 4, 43, 0
6, 41640, Note_on_c, 4, 43, 80
6, 41681, Note_on_c, 4, 43, 0
6, 41700, Note_on_c, 4, 43, 77
6, 41741, Note_on_c, 4, 43, 0
6, 41760, Note_on_c, 4, 43, 75
6, 41801, Note_on_c, 4, 43, 0
6, 41820, Note_on_c, 4, 43, 72
6, 41861, Note_on_c, 4, 43, 0
6, 41880, Note_on_c, 4, 42, 70
6, 41921, Note_on_c, 4, 42, 0
6, 41940, Note_on_c, 4, 54, 71
6, 41970, Note_on_c, 4, 54, 0
6, 41970, Note_on_c, 4, 52, 71
6, 42000, Note_on_c, 4, 52, 0
6, 42000, Note_on_c, 4, 54, 71
6, 42041, Note_on_c, 4, 54, 0
6, 42060, Note_on_c, 4, 50, 72
6, 42101, Note_on_c, 4, 50, 0
6, 42120, Note_on_c, 4, 52, 72
6, 42161, Note_on_c, 4, 52, 0
6, 42180, Note_on_c, 4, 54, 73
6, 42221, Note_on_c, 4, 54, 0
6, 42240, Note_on_c, 4, 43, 73
6, 42281, Note_on_c, 4, 43, 0
6, 42300, Note_on_c, 4, 55, 74
6, 42330, Note_on_c, 4, 55, 0
6, 42330, Note_on_c, 4, 54, 74
6, 42360, Note_on_c, 4, 54, 0
6, 42360, Note_on_c, 4, 55, 74
6, 42401, Note_on_c, 4, 55, 0
6, 42420, Note_on_c, 4, 52, 75
6, 42461, Note_on_c, 4, 52, 0
6, 42480, Note_on_c, 4, 54, 75
6, 42521, Note_on_c, 4, 54, 0
6, 42540, Note_on_c, 4, 55, 76
6, 42581, Note_on_c, 4, 55, 0
6, 42600, Note_on_c, 4, 45, 76
6, 42641, Note_on_c, 4, 45, 0
6, 42660, Note_on_c, 4, 57, 77
6, 42690, Note_on_c, 4, 57, 0
6, 42690, Note_on_c, 4, 55, 77
6, 42720, Note_on_c, 4, 55, 0
6, 42720, Note_on_c, 4, 57, 77
6, 42761, Note_on_c, 4, 57, 0
6, 42780, Note_on_c, 4, 54, 78
6, 42821, Note_on_c, 4, 54, 0
6, 42840, Note_on_c, 4, 55, 78
6, 42881, Note_on_c, 4, 55, 0
6, 42900, Note_on_c, 4, 57, 79
6, 42941, Note_on_c, 4, 57, 0
6, 42960, Note_on_c, 4, 47, 79
6, 43001, Note_on_c, 4, 47, 0
6, 43020, Note_on_c, 4, 59, 80
6, 43050, Note_on_c, 4, 59, 0
6, 43050, Note_on_c, 4, 57, 80
6, 43080, Note_on_c, 4, 57, 0
6, 43080, Note_on_c, 4, 59, 80
6, 43121, Note_on_c, 4, 59, 0
6, 43140, Note_on_c, 4, 55, 81
6, 43181, Note_on_c, 4, 55, 0
6, 43200, Note_on_c, 4, 57, 81
6, 43241, Note_on_c, 4, 57, 0
6, 43260, Note_on_c, 4, 59, 82
6, 43301, Note_on_c, 4, 59, 0
6, 43320, Note_on_c, 4, 49, 82
6, 43361, Note_on_c, 4, 49, 0
6, 43380, Note_on_c, 4, 61, 83
6, 43410, Note_on_c, 4, 61, 0
6, 43410, Note_on_c, 4, 59, 83
6, 43440, Note_on_c, 4, 59, 0
6, 43440, Note_on_c, 4, 61, 83
6, 43481, Note_on_c, 4, 61, 0
6, 43500, Note_on_c, 4, 57, 84
6, 43541, Note_on_c, 4, 57, 0
6, 43560, Note_on_c, 4, 59, 84
6, 43601, Note_on_c, 4, 59, 0
6, 43620, Note_on_c, 4, 61, 85
6, 43661, Note_on_c, 4, 61, 0
6, 43680, Note_on_c, 4, 50, 80
6, 43721, Note_on_c, 4, 50, 0
6, 43740, Note_on_c, 4, 62, 81
6, 43770, Note_on_c, 4, 62, 0
6, 43770, Note_on_c, 4, 64, 81
6, 43800, Note_on_c, 4, 64, 0
6, 43800, Note_on_c, 4, 62, 81
6, 43841, Note_on_c, 4, 62, 0
6, 43860, Note_on_c, 4, 61, 82
6, 43901, Note_on_c, 4, 61, 0
6, 43920, Note_on_c, 4, 59, 82
6, 43961, Note_on_c, 4, 59, 0
6, 43980, Note_on_c, 4, 57, 83
6, 44021, Note_on_c, 4, 57, 0
6, 44040, Note_on_c, 4, 55, 83
6, 44081, Note_on_c, 4, 55, 0
6, 44100, Note_on_c, 4, 61, 84
6, 44130, Note_on_c, 4, 61, 0
6, 44130, Note_on_c, 4, 62, 84
6, 44160, Note_on_c, 4, 62, 0
6, 44160, Note_on_c, 4, 61, 84
6, 44201, Note_on_c, 4, 61, 0
6, 44220, Note_on_c, 4, 59, 85
6, 44261, Note_on_c, 4, 59, 0
6, 44280, Note_on_c, 4, 57, 86
6, 44321, Note_on_c, 4, 57, 0
6, 44340, Note_on_c, 4, 55, 86
6, 44381, Note_on_c, 4, 55, 0
6, 44400, Note_on_c, 4, 54, 87
6, 44441, Note_on_c, 4, 54, 0
6, 44460, Note_on_c, 4, 59, 87
6, 44490, Note_on_c, 4, 59, 0
6, 44490, Note_on_c, 4, 61, 88
6, 44520, Note_on_c, 4, 61, 0
6, 44520, Note_on_c, 4, 59, 88
6, 44561, Note_on_c, 4, 59, 0
6, 44580, Note_on_c, 4, 57, 88
6, 44621, Note_on_c, 4, 57, 0
6, 44640, Note_on_c, 4, 55, 89
6, 44681, Note_on_c, 4, 55, 0
6, 44700, Note_on_c, 4, 54, 89
6, 44741, Note_on_c, 4, 54, 0
6, 44760, Note_on_c, 4, 52, 90
6, 44790, Note_on_c, 4, 52, 0
6, 44790, Note_on_c, 4, 54, 90
6, 44820, Note_on_c, 4, 54, 0
6, 44820, Note_on_c, 4, 55, 91
6, 44850, Note_on_c, 4, 55, 0
6, 44850, Note_on_c, 4, 54, 91
6, 44880, Note_on_c, 4, 54, 0
6, 44880, Note_on_c, 4, 52, 91
6, 44921, Note_on_c, 4, 52, 0
6, 44940, Note_on_c, 4, 50, 92
6, 44981, Note_on_c, 4, 50, 0
6, 45000, Note_on_c, 4, 49, 92
6, 45041, Note_on_c, 4, 49, 0
6, 45060, Note_on_c, 4, 47, 93
6, 45101, Note_on_c, 4, 47, 0
6, 45120, Note_on_c, 4, 45, 93
6, 45161, Note_on_c, 4, 45, 0
6, 45180, Note_on_c, 4, 47, 94
6, 45221, Note_on_c, 4, 47, 0
6, 45240, Note_on_c, 4, 49, 94
6, 45281, Note_on_c, 4, 49, 0
6, 45300, Note_on_c, 4, 45, 95
6, 45341, Note_on_c, 4, 45, 0
6, 45360, Note_on_c, 4, 50, 96
6, 45401, Note_on_c, 4, 50, 0
6, 45420, Note_on_c, 4, 45, 96
6, 45461, Note_on_c, 4, 45, 0
6, 45480, Note_on_c, 4, 47, 97
6, 45521, Note_on_c, 4, 47, 0
6, 45540, Note_on_c, 4, 45, 97
6, 45570, Note_on_c, 4, 45, 0
6, 45570, Note_on_c, 4, 43, 98
6, 45600, Note_on_c, 4, 43, 0
6, 45600, Note_on_c, 4, 42, 98
6, 45641, Note_on_c, 4, 42, 0
6, 45660, Note_on_c, 4, 43, 98
6, 45701, Note_on_c, 4, 43, 0
6, 45720, Note_on_c, 4, 45, 99
6, 45840, Note_on_c, 4, 45, 0
6, 45840, Note_on_c, 4, 38, 100
6, 46200, Note_on_c, 4, 38, 0
6, 46560, End_track
7, 0, Start_track
7, 0, MIDI_port, 0
7, 0, Title_t, "Violin I"
7, 0, Program_c, 5, 48
7, 120, Control_c, 5, 7, 100
7, 180, Note_on_c, 5, 62, 64
7, 221, Note_on_c, 5, 62, 0
7, 240, Note_on_c, 5, 62, 64
7, 281, Note_on_c, 5, 62, 0
7, 300, Note_on_c, 5, 62, 64
7, 341, Note_on_c, 5, 62, 0
7, 360, Note_on_c, 5, 62, 64
7, 401, Note_on_c, 5, 62, 0
7, 420, Note_on_c, 5, 62, 64
7, 461, Note_on_c, 5, 62, 0
7, 480, Note_on_c, 5, 62, 64
7, 521, Note_on_c, 5, 62, 0
7, 540, Note_on_c, 5, 86, 64
7, 570, Note_on_c, 5, 86, 0
7, 570, Note_on_c, 5, 81, 64
7, 600, Note_on_c, 5, 81, 0
7, 600, Note_on_c, 5, 81, 64
7, 630, Note_on_c, 5, 81, 0
7, 630, Note_on_c, 5, 78, 64
7, 660, Note_on_c, 5, 78, 0
7, 660, Note_on_c, 5, 78, 64
7, 690, Note_on_c, 5, 78, 0
7, 690, Note_on_c, 5, 74, 64
7, 720, Note_on_c, 5, 74, 0
7, 720, Note_on_c, 5, 74, 64
7, 750, Note_on_c, 5, 74, 0
7, 750, Note_on_c, 5, 69, 64
7, 780, Note_on_c, 5, 69, 0
7, 780, Note_on_c, 5, 69, 64
7, 810, Note_on_c, 5, 69, 0
7, 810, Note_on_c, 5, 69, 64
7, 840, Note_on_c, 5, 69, 0
7, 840, Note_on_c, 5, 69, 64
7, 881, Note_on_c, 5, 69, 0
7, 900, Note_on_c, 5, 57, 64
7, 941, Note_on_c, 5, 57, 0
7, 960, Note_on_c, 5, 57, 64
7, 1001, Note_on_c, 5, 57, 0
7, 1020, Note_on_c, 5, 57, 64
7, 1061, Note_on_c, 5, 57, 0
7, 1080, Note_on_c, 5, 57, 64
7, 1121, Note_on_c, 5, 57, 0
7, 1140, Note_on_c, 5, 57, 64
7, 1181, Note_on_c, 5, 57, 0
7, 1200, Note_on_c, 5, 57, 64
7, 1241, Note_on_c, 5, 57, 0
7, 1260, Note_on_c, 5, 85, 64
7, 1290, Note_on_c, 5, 85, 0
7, 1290, Note_on_c, 5, 79, 64
7, 1320, Note_on_c, 5, 79, 0
7, 1320, Note_on_c, 5, 79, 64
7, 1350, Note_on_c, 5, 79, 0
7, 1350, Note_on_c, 5, 76, 64
7, 1380, Note_on_c, 5, 76, 0
7, 1380, Note_on_c, 5, 76, 64
7, 1410, Note_on_c, 5, 76, 0
7, 1410, Note_on_c, 5, 73, 64
7, 1440, Note_on_c, 5, 73, 0
7, 1440, Note_on_c, 5, 73, 64
7, 1470, Note_on_c, 5, 73, 0
7, 1470, Note_on_c, 5, 69, 64
7, 1500, Note_on_c, 5, 69, 0
7, 1500, Note_on_c, 5, 69, 64
7, 1530, Note_on_c, 5, 69, 0
7, 1530, Note_on_c, 5, 69, 64
7, 1560, Note_on_c, 5, 69, 0
7, 1560, Note_on_c, 5, 69, 64
7, 1680, Note_on_c, 5, 69, 0
7, 1740, Note_on_c, 5, 74, 64
7, 1770, Note_on_c, 5, 74, 0
7, 1770, Note_on_c, 5, 76, 64
7, 1800, Note_on_c, 5, 76, 0
7, 1800, Note_on_c, 5, 78, 64
7, 1830, Note_on_c, 5, 78, 0
7, 1830, Note_on_c, 5, 79, 64
7, 1860, Note_on_c, 5, 79, 0
7, 1860, Note_on_c, 5, 81, 64
7, 1890, Note_on_c, 5, 81, 0
7, 1890, Note_on_c, 5, 78, 64
7, 1920, Note_on_c, 5, 78, 0
7, 1920, Note_on_c, 5, 86, 64
7, 1961, Note_on_c, 5, 86, 0
7, 1980, Note_on_c, 5, 74, 64
7, 2021, Note_on_c, 5, 74, 0
7, 2100, Note_on_c, 5, 71, 64
7, 2130, Note_on_c, 5, 71, 0
7, 2130, Note_on_c, 5, 73, 64
7, 2160, Note_on_c, 5, 73, 0
7, 2160, Note_on_c, 5, 74, 64
7, 2190, Note_on_c, 5, 74, 0
7, 2190, Note_on_c, 5, 76, 64
7, 2220, Note_on_c, 5, 76, 0
7, 2220, Note_on_c, 5, 78, 64
7, 2250, Note_on_c, 5, 78, 0
7, 2250, Note_on_c, 5, 74, 64
7, 2280, Note_on_c, 5, 74, 0
7, 2280, Note_on_c, 5, 81, 64
7, 2321, Note_on_c, 5, 81, 0
7, 2340, Note_on_c, 5, 69, 64
7, 2381, Note_on_c, 5, 69, 0
7, 2400, Note_on_c, 5, 74, 64
7, 2441, Note_on_c, 5, 74, 0
7, 2460, Note_on_c, 5, 78, 64
7, 2501, Note_on_c, 5, 78, 0
7, 2520, Note_on_c, 5, 74, 64
7, 2561, Note_on_c, 5, 74, 0
7, 2580, Note_on_c, 5, 69, 64
7, 2621, Note_on_c, 5, 69, 0
7, 2700, Note_on_c, 5, 71, 64
7, 2741, Note_on_c, 5, 71, 0
7, 2760, Note_on_c, 5, 74, 64
7, 2801, Note_on_c, 5, 74, 0
7, 2820, Note_on_c, 5, 76, 64
7, 2861, Note_on_c, 5, 76, 0
7, 2880, Note_on_c, 5, 74, 64
7, 2921, Note_on_c, 5, 74, 0
7, 2940, Note_on_c, 5, 71, 64
7, 2981, Note_on_c, 5, 71, 0
7, 3000, Note_on_c, 5, 69, 64
7, 3030, Note_on_c, 5, 69, 0
7, 3030, Note_on_c, 5, 68, 64
7, 3060, Note_on_c, 5, 68, 0
7, 3060, Note_on_c, 5, 69, 64
7, 3090, Note_on_c, 5, 69, 0
7, 3090, Note_on_c, 5, 71, 64
7, 3120, Note_on_c, 5, 71, 0
7, 3120, Note_on_c, 5, 73, 64
7, 3150, Note_on_c, 5, 73, 0
7, 3150, Note_on_c, 5, 74, 64
7, 3180, Note_on_c, 5, 74, 0
7, 3180, Note_on_c, 5, 76, 64
7, 3210, Note_on_c, 5, 76, 0
7, 3210, Note_on_c, 5, 78, 64
7, 3240, Note_on_c, 5, 78, 0
7, 3240, Note_on_c, 5, 80, 64
7, 3270, Note_on_c, 5, 80, 0
7, 3270, Note_on_c, 5, 83, 64
7, 3300, Note_on_c, 5, 83, 0
7, 3300, Note_on_c, 5, 81, 64
7, 3330, Note_on_c, 5, 81, 0
7, 3330, Note_on_c, 5, 80, 64
7, 3360, Note_on_c, 5, 80, 0
7, 3360, Note_on_c, 5, 81, 64
7, 3401, Note_on_c, 5, 81, 0
7, 3420, Note_on_c, 5, 81, 64
7, 3450, Note_on_c, 5, 81, 0
7, 3450, Note_on_c, 5, 76, 64
7, 3480, Note_on_c, 5, 76, 0
7, 3480, Note_on_c, 5, 76, 64
7, 3510, Note_on_c, 5, 76, 0
7, 3510, Note_on_c, 5, 73, 64
7, 3540, Note_on_c, 5, 73, 0
7, 3540, Note_on_c, 5, 73, 64
7, 3570, Note_on_c, 5, 73, 0
7, 3570, Note_on_c, 5, 69, 64
7, 3600, Note_on_c, 5, 69, 0
7, 3600, Note_on_c, 5, 69, 64
7, 3630, Note_on_c, 5, 69, 0
7, 3630, Note_on_c, 5, 64, 64
7, 3660, Note_on_c, 5, 64, 0
7, 3660, Note_on_c, 5, 64, 64
7, 3690, Note_on_c, 5, 64, 0
7, 3690, Note_on_c, 5, 64, 64
7, 3720, Note_on_c, 5, 64, 0
7, 3720, Note_on_c, 5, 64, 64
7, 3761, Note_on_c, 5, 64, 0
7, 4140, Note_on_c, 5, 80, 64
7, 4170, Note_on_c, 5, 80, 0
7, 4170, Note_on_c, 5, 74, 64
7, 4200, Note_on_c, 5, 74, 0
7, 4200, Note_on_c, 5, 74, 64
7, 4230, Note_on_c, 5, 74, 0
7, 4230, Note_on_c, 5, 71, 64
7, 4260, Note_on_c, 5, 71, 0
7, 4260, Note_on_c, 5, 71, 64
7, 4290, Note_on_c, 5, 71, 0
7, 4290, Note_on_c, 5, 68, 64
7, 4320, Note_on_c, 5, 68, 0
7, 4320, Note_on_c, 5, 68, 64
7, 4350, Note_on_c, 5, 68, 0
7, 4350, Note_on_c, 5, 64, 64
7, 4380, Note_on_c, 5, 64, 0
7, 4380, Note_on_c, 5, 64, 64
7, 4410, Note_on_c, 5, 64, 0
7, 4410, Note_on_c, 5, 64, 64
7, 4440, Note_on_c, 5, 64, 0
7, 4440, Note_on_c, 5, 64, 64
7, 4481, Note_on_c, 5, 64, 0
7, 4500, Note_on_c, 5, 73, 64
7, 4541, Note_on_c, 5, 73, 0
7, 4560, Note_on_c, 5, 76, 64
7, 4601, Note_on_c, 5, 76, 0
7, 4620, Note_on_c, 5, 81, 64
7, 4661, Note_on_c, 5, 81, 0
7, 4680, Note_on_c, 5, 76, 64
7, 4721, Note_on_c, 5, 76, 0
7, 4740, Note_on_c, 5, 73, 64
7, 4781, Note_on_c, 5, 73, 0
7, 4860, Note_on_c, 5, 69, 64
7, 4901, Note_on_c, 5, 69, 0
7, 4920, Note_on_c, 5, 73, 64
7, 4961, Note_on_c, 5, 73, 0
7, 4980, Note_on_c, 5, 78, 64
7, 5021, Note_on_c, 5, 78, 0
7, 5040, Note_on_c, 5, 73, 64
7, 5081, Note_on_c, 5, 73, 0
7, 5100, Note_on_c, 5, 69, 64
7, 5141, Note_on_c, 5, 69, 0
7, 5160, Note_on_c, 5, 64, 64
7, 5340, Note_on_c, 5, 64, 0
7, 5340, Note_on_c, 5, 66, 64
7, 5370, Note_on_c, 5, 66, 0
7, 5370, Note_on_c, 5, 68, 64
7, 5400, Note_on_c, 5, 68, 0
7, 5400, Note_on_c, 5, 69, 64
7, 5430, Note_on_c, 5, 69, 0
7, 5430, Note_on_c, 5, 71, 64
7, 5460, Note_on_c, 5, 71, 0
7, 5460, Note_on_c, 5, 73, 64
7, 5490, Note_on_c, 5, 73, 0
7, 5490, Note_on_c, 5, 69, 64
7, 5520, Note_on_c, 5, 69, 0
7, 5520, Note_on_c, 5, 66, 64
7, 5670, Note_on_c, 5, 66, 0
7, 5670, Note_on_c, 5, 64, 64
7, 5700, Note_on_c, 5, 64, 0
7, 5700, Note_on_c, 5, 63, 64
7, 5730, Note_on_c, 5, 63, 0
7, 5730, Note_on_c, 5, 64, 64
7, 5760, Note_on_c, 5, 64, 0
7, 5760, Note_on_c, 5, 66, 64
7, 5790, Note_on_c, 5, 66, 0
7, 5790, Note_on_c, 5, 68, 64
7, 5820, Note_on_c, 5, 68, 0
7, 5820, Note_on_c, 5, 69, 64
7, 5850, Note_on_c, 5, 69, 0
7, 5850, Note_on_c, 5, 66, 64
7, 5880, Note_on_c, 5, 66, 0
7, 5880, Note_on_c, 5, 68, 40
7, 5921, Note_on_c, 5, 68, 0
7, 5940, Note_on_c, 5, 64, 41
7, 5981, Note_on_c, 5, 64, 0
7, 6000, Note_on_c, 5, 64, 42
7, 6041, Note_on_c, 5, 64, 0
7, 6060, Note_on_c, 5, 64, 43
7, 6101, Note_on_c, 5, 64, 0
7, 6120, Note_on_c, 5, 64, 44
7, 6161, Note_on_c, 5, 64, 0
7, 6180, Note_on_c, 5, 64, 45
7, 6221, Note_on_c, 5, 64, 0
7, 6240, Note_on_c, 5, 61, 46
7, 6360, Note_on_c, 5, 61, 0
7, 6660, Note_on_c, 5, 61, 53
7, 6701, Note_on_c, 5, 61, 0
7, 6720, Note_on_c, 5, 61, 54
7, 6761, Note_on_c, 5, 61, 0
7, 6780, Note_on_c, 5, 61, 55
7, 6821, Note_on_c, 5, 61, 0
7, 6840, Note_on_c, 5, 61, 56
7, 6881, Note_on_c, 5, 61, 0
7, 6900, Note_on_c, 5, 61, 57
7, 6941, Note_on_c, 5, 61, 0
7, 6960, Note_on_c, 5, 57, 58
7, 7001, Note_on_c, 5, 57, 0
7, 7020, Note_on_c, 5, 57, 59
7, 7061, Note_on_c, 5, 57, 0
7, 7080, Note_on_c, 5, 61, 60
7, 7121, Note_on_c, 5, 61, 0
7, 7140, Note_on_c, 5, 64, 61
7, 7181, Note_on_c, 5, 64, 0
7, 7200, Note_on_c, 5, 61, 62
7, 7241, Note_on_c, 5, 61, 0
7, 7260, Note_on_c, 5, 57, 63
7, 7301, Note_on_c, 5, 57, 0
7, 7320, Note_on_c, 5, 69, 50
7, 7361, Note_on_c, 5, 69, 0
7, 7380, Note_on_c, 5, 62, 51
7, 7410, Note_on_c, 5, 62, 0
7, 7410, Note_on_c, 5, 64, 51
7, 7440, Note_on_c, 5, 64, 0
7, 7440, Note_on_c, 5, 66, 52
7, 7470, Note_on_c, 5, 66, 0
7, 7470, Note_on_c, 5, 68, 52
7, 7500, Note_on_c, 5, 68, 0
7, 7500, Note_on_c, 5, 69, 53
7, 7530, Note_on_c, 5, 69, 0
7, 7530, Note_on_c, 5, 66, 53
7, 7560, Note_on_c, 5, 66, 0
7, 7560, Note_on_c, 5, 71, 53
7, 7590, Note_on_c, 5, 71, 0
7, 7590, Note_on_c, 5, 69, 54
7, 7620, Note_on_c, 5, 69, 0
7, 7620, Note_on_c, 5, 68, 54
7, 7650, Note_on_c, 5, 68, 0
7, 7650, Note_on_c, 5, 66, 55
7, 7680, Note_on_c, 5, 66, 0
7, 7680, Note_on_c, 5, 68, 55
7, 7710, Note_on_c, 5, 68, 0
7, 7710, Note_on_c, 5, 66, 55
7, 7740, Note_on_c, 5, 66, 0
7, 7740, Note_on_c, 5, 64, 56
7, 7770, Note_on_c, 5, 64, 0
7, 7770, Note_on_c, 5, 66, 56
7, 7800, Note_on_c, 5, 66, 0
7, 7800, Note_on_c, 5, 68, 57
7, 7830, Note_on_c, 5, 68, 0
7, 7830, Note_on_c, 5, 69, 57
7, 7860, Note_on_c, 5, 69, 0
7, 7860, Note_on_c, 5, 71, 58
7, 7890, Note_on_c, 5, 71, 0
7, 7890, Note_on_c, 5, 69, 58
7, 7920, Note_on_c, 5, 69, 0
7, 7920, Note_on_c, 5, 73, 58
7, 7950, Note_on_c, 5, 73, 0
7, 7950, Note_on_c, 5, 71, 59
7, 7980, Note_on_c, 5, 71, 0
7, 7980, Note_on_c, 5, 69, 59
7, 8010, Note_on_c, 5, 69, 0
7, 8010, Note_on_c, 5, 68, 60
7, 8040, Note_on_c, 5, 68, 0
7, 8040, Note_on_c, 5, 69, 60
7, 8070, Note_on_c, 5, 69, 0
7, 8070, Note_on_c, 5, 68, 60
7, 8100, Note_on_c, 5, 68, 0
7, 8100, Note_on_c, 5, 66, 61
7, 8130, Note_on_c, 5, 66, 0
7, 8130, Note_on_c, 5, 68, 61
7, 8160, Note_on_c, 5, 68, 0
7, 8160, Note_on_c, 5, 69, 62
7, 8190, Note_on_c, 5, 69, 0
7, 8190, Note_on_c, 5, 71, 62
7, 8220, Note_on_c, 5, 71, 0
7, 8220, Note_on_c, 5, 73, 63
7, 8250, Note_on_c, 5, 73, 0
7, 8250, Note_on_c, 5, 71, 63
7, 8280, Note_on_c, 5, 71, 0
7, 8280, Note_on_c, 5, 74, 63
7, 8310, Note_on_c, 5, 74, 0
7, 8310, Note_on_c, 5, 73, 64
7, 8340, Note_on_c, 5, 73, 0
7, 8340, Note_on_c, 5, 71, 64
7, 8370, Note_on_c, 5, 71, 0
7, 8370, Note_on_c, 5, 69, 65
7, 8400, Note_on_c, 5, 69, 0
7, 8400, Note_on_c, 5, 71, 65
7, 8430, Note_on_c, 5, 71, 0
7, 8430, Note_on_c, 5, 69, 65
7, 8460, Note_on_c, 5, 69, 0
7, 8460, Note_on_c, 5, 68, 66
7, 8490, Note_on_c, 5, 68, 0
7, 8490, Note_on_c, 5, 69, 66
7, 8520, Note_on_c, 5, 69, 0
7, 8520, Note_on_c, 5, 71, 67
7, 8550, Note_on_c, 5, 71, 0
7, 8550, Note_on_c, 5, 73, 67
7, 8580, Note_on_c, 5, 73, 0
7, 8580, Note_on_c, 5, 74, 68
7, 8610, Note_on_c, 5, 74, 0
7, 8610, Note_on_c, 5, 73, 68
7, 8640, Note_on_c, 5, 73, 0
7, 8640, Note_on_c, 5, 76, 68
7, 8670, Note_on_c, 5, 76, 0
7, 8670, Note_on_c, 5, 74, 69
7, 8700, Note_on_c, 5, 74, 0
7, 8700, Note_on_c, 5, 73, 69
7, 8730, Note_on_c, 5, 73, 0
7, 8730, Note_on_c, 5, 71, 70
7, 8760, Note_on_c, 5, 71, 0
7, 8760, Note_on_c, 5, 73, 64
7, 8801, Note_on_c, 5, 73, 0
7, 8820, Note_on_c, 5, 76, 64
7, 8850, Note_on_c, 5, 76, 0
7, 8850, Note_on_c, 5, 73, 64
7, 8880, Note_on_c, 5, 73, 0
7, 8880, Note_on_c, 5, 73, 64
7, 8910, Note_on_c, 5, 73, 0
7, 8910, Note_on_c, 5, 69, 64
7, 8940, Note_on_c, 5, 69, 0
7, 8940, Note_on_c, 5, 69, 64
7, 8970, Note_on_c, 5, 69, 0
7, 8970, Note_on_c, 5, 64, 64
7, 9000, Note_on_c, 5, 64, 0
7, 9000, Note_on_c, 5, 64, 64
7, 9030, Note_on_c, 5, 64, 0
7, 9030, Note_on_c, 5, 61, 64
7, 9060, Note_on_c, 5, 61, 0
7, 9060, Note_on_c, 5, 61, 64
7, 9090, Note_on_c, 5, 61, 0
7, 9090, Note_on_c, 5, 57, 64
7, 9120, Note_on_c, 5, 57, 0
7, 9120, Note_on_c, 5, 57, 64
7, 9161, Note_on_c, 5, 57, 0
7, 9180, Note_on_c, 5, 76, 64
7, 9210, Note_on_c, 5, 76, 0
7, 9210, Note_on_c, 5, 73, 64
7, 9240, Note_on_c, 5, 73, 0
7, 9240, Note_on_c, 5, 73, 64
7, 9270, Note_on_c, 5, 73, 0
7, 9270, Note_on_c, 5, 69, 64
7, 9300, Note_on_c, 5, 69, 0
7, 9300, Note_on_c, 5, 69, 64
7, 9330, Note_on_c, 5, 69, 0
7, 9330, Note_on_c, 5, 64, 64
7, 9360, Note_on_c, 5, 64, 0
7, 9360, Note_on_c, 5, 64, 64
7, 9390, Note_on_c, 5, 64, 0
7, 9390, Note_on_c, 5, 61, 64
7, 9420, Note_on_c, 5, 61, 0
7, 9420, Note_on_c, 5, 61, 64
7, 9450, Note_on_c, 5, 61, 0
7, 9450, Note_on_c, 5, 57, 64
7, 9480, Note_on_c, 5, 57, 0
7, 9480, Note_on_c, 5, 57, 64
7, 9521, Note_on_c, 5, 57, 0
7, 9540, Note_on_c, 5, 75, 64
7, 9570, Note_on_c, 5, 75, 0
7, 9570, Note_on_c, 5, 72, 64
7, 9600, Note_on_c, 5, 72, 0
7, 9600, Note_on_c, 5, 72, 64
7, 9630, Note_on_c, 5, 72, 0
7, 9630, Note_on_c, 5, 69, 64
7, 9660, Note_on_c, 5, 69, 0
7, 9660, Note_on_c, 5, 69, 64
7, 9690, Note_on_c, 5, 69, 0
7, 9690, Note_on_c, 5, 66, 64
7, 9720, Note_on_c, 5, 66, 0
7, 9720, Note_on_c, 5, 66, 64
7, 9750, Note_on_c, 5, 66, 0
7, 9750, Note_on_c, 5, 63, 64
7, 9780, Note_on_c, 5, 63, 0
7, 9780, Note_on_c, 5, 63, 64
7, 9810, Note_on_c, 5, 63, 0
7, 9810, Note_on_c, 5, 57, 64
7, 9840, Note_on_c, 5, 57, 0
7, 9840, Note_on_c, 5, 57, 64
7, 9881, Note_on_c, 5, 57, 0
7, 9900, Note_on_c, 5, 76, 64
7, 9930, Note_on_c, 5, 76, 0
7, 9930, Note_on_c, 5, 72, 64
7, 9960, Note_on_c, 5, 72, 0
7, 9960, Note_on_c, 5, 72, 64
7, 9990, Note_on_c, 5, 72, 0
7, 9990, Note_on_c, 5, 69, 64
7, 10020, Note_on_c, 5, 69, 0
7, 10020, Note_on_c, 5, 69, 64
7, 10050, Note_on_c, 5, 69, 0
7, 10050, Note_on_c, 5, 64, 64
7, 10080, Note_on_c, 5, 64, 0
7, 10080, Note_on_c, 5, 64, 64
7, 10110, Note_on_c, 5, 64, 0
7, 10110, Note_on_c, 5, 60, 64
7, 10140, Note_on_c, 5, 60, 0
7, 10140, Note_on_c, 5, 60, 64
7, 10170, Note_on_c, 5, 60, 0
7, 10170, Note_on_c, 5, 57, 64
7, 10200, Note_on_c, 5, 57, 0
7, 10200, Note_on_c, 5, 57, 64
7, 10241, Note_on_c, 5, 57, 0
7, 10260, Note_on_c, 5, 78, 64
7, 10290, Note_on_c, 5, 78, 0
7, 10290, Note_on_c, 5, 72, 64
7, 10320, Note_on_c, 5, 72, 0
7, 10320, Note_on_c, 5, 72, 64
7, 10350, Note_on_c, 5, 72, 0
7, 10350, Note_on_c, 5, 69, 64
7, 10380, Note_on_c, 5, 69, 0
7, 10380, Note_on_c, 5, 69, 64
7, 10410, Note_on_c, 5, 69, 0
7, 10410, Note_on_c, 5, 66, 64
7, 10440, Note_on_c, 5, 66, 0
7, 10440, Note_on_c, 5, 66, 64
7, 10470, Note_on_c, 5, 66, 0
7, 10470, Note_on_c, 5, 57, 64
7, 10500, Note_on_c, 5, 57, 0
7, 10500, Note_on_c, 5, 57, 64
7, 10530, Note_on_c, 5, 57, 0
7, 10530, Note_on_c, 5, 56, 64
7, 10560, Note_on_c, 5, 56, 0
7, 10560, Note_on_c, 5, 56, 64
7, 10601, Note_on_c, 5, 56, 0
7, 10620, Note_on_c, 5, 80, 64
7, 10650, Note_on_c, 5, 80, 0
7, 10650, Note_on_c, 5, 76, 64
7, 10680, Note_on_c, 5, 76, 0
7, 10680, Note_on_c, 5, 76, 64
7, 10710, Note_on_c, 5, 76, 0
7, 10710, Note_on_c, 5, 71, 64
7, 10740, Note_on_c, 5, 71, 0
7, 10740, Note_on_c, 5, 71, 64
7, 10770, Note_on_c, 5, 71, 0
7, 10770, Note_on_c, 5, 68, 64
7, 10800, Note_on_c, 5, 68, 0
7, 10800, Note_on_c, 5, 68, 64
7, 10830, Note_on_c, 5, 68, 0
7, 10830, Note_on_c, 5, 64, 64
7, 10860, Note_on_c, 5, 64, 0
7, 10860, Note_on_c, 5, 64, 64
7, 10890, Note_on_c, 5, 64, 0
7, 10890, Note_on_c, 5, 57, 64
7, 10920, Note_on_c, 5, 57, 0
7, 10920, Note_on_c, 5, 57, 64
7, 10950, Note_on_c, 5, 57, 0
7, 10950, Note_on_c, 5, 64, 64
7, 10980, Note_on_c, 5, 64, 0
7, 10980, Note_on_c, 5, 66, 64
7, 11010, Note_on_c, 5, 66, 0
7, 11010, Note_on_c, 5, 68, 64
7, 11040, Note_on_c, 5, 68, 0
7, 11040, Note_on_c, 5, 69, 64
7, 11070, Note_on_c, 5, 69, 0
7, 11070, Note_on_c, 5, 71, 64
7, 11100, Note_on_c, 5, 71, 0
7, 11100, Note_on_c, 5, 73, 64
7, 11130, Note_on_c, 5, 73, 0
7, 11130, Note_on_c, 5, 74, 64
7, 11160, Note_on_c, 5, 74, 0
7, 11160, Note_on_c, 5, 76, 64
7, 11190, Note_on_c, 5, 76, 0
7, 11190, Note_on_c, 5, 78, 64
7, 11220, Note_on_c, 5, 78, 0
7, 11220, Note_on_c, 5, 79, 64
7, 11250, Note_on_c, 5, 79, 0
7, 11250, Note_on_c, 5, 76, 64
7, 11280, Note_on_c, 5, 76, 0
7, 11280, Note_on_c, 5, 78, 64
7, 11321, Note_on_c, 5, 78, 0
7, 11340, Note_on_c, 5, 62, 64
7, 11381, Note_on_c, 5, 62, 0
7, 11400, Note_on_c, 5, 68, 64
7, 11441, Note_on_c, 5, 68, 0
7, 11460, Note_on_c, 5, 71, 64
7, 11501, Note_on_c, 5, 71, 0
7, 11520, Note_on_c, 5, 74, 64
7, 11561, Note_on_c, 5, 74, 0
7, 11580, Note_on_c, 5, 78, 64
7, 11621, Note_on_c, 5, 78, 0
7, 11640, Note_on_c, 5, 76, 64
7, 11681, Note_on_c, 5, 76, 0
7, 11700, Note_on_c, 5, 61, 64
7, 11741, Note_on_c, 5, 61, 0
7, 11760, Note_on_c, 5, 66, 64
7, 11801, Note_on_c, 5, 66, 0
7, 11820, Note_on_c, 5, 69, 64
7, 11861, Note_on_c, 5, 69, 0
7, 11880, Note_on_c, 5, 73, 64
7, 11921, Note_on_c, 5, 73, 0
7, 11940, Note_on_c, 5, 76, 64
7, 11981, Note_on_c, 5, 76, 0
7, 12000, Note_on_c, 5, 74, 64
7, 12041, Note_on_c, 5, 74, 0
7, 12060, Note_on_c, 5, 78, 64
7, 12090, Note_on_c, 5, 78, 0
7, 12090, Note_on_c, 5, 76, 64
7, 12120, Note_on_c, 5, 76, 0
7, 12120, Note_on_c, 5, 74, 64
7, 12161, Note_on_c, 5, 74, 0
7, 12180, Note_on_c, 5, 74, 64
7, 12210, Note_on_c, 5, 74, 0
7, 12210, Note_on_c, 5, 73, 64
7, 12240, Note_on_c, 5, 73, 0
7, 12240, Note_on_c, 5, 71, 64
7, 12281, Note_on_c, 5, 71, 0
7, 12300, Note_on_c, 5, 71, 64
7, 12330, Note_on_c, 5, 71, 0
7, 12330, Note_on_c, 5, 69, 64
7, 12360, Note_on_c, 5, 69, 0
7, 12360, Note_on_c, 5, 68, 64
7, 12390, Note_on_c, 5, 68, 0
7, 12390, Note_on_c, 5, 76, 65
7, 12420, Note_on_c, 5, 76, 0
7, 12420, Note_on_c, 5, 74, 65
7, 12450, Note_on_c, 5, 74, 0
7, 12450, Note_on_c, 5, 73, 66
7, 12480, Note_on_c, 5, 73, 0
7, 12480, Note_on_c, 5, 71, 67
7, 12510, Note_on_c, 5, 71, 0
7, 12510, Note_on_c, 5, 69, 67
7, 12540, Note_on_c, 5, 69, 0
7, 12540, Note_on_c, 5, 68, 68
7, 12570, Note_on_c, 5, 68, 0
7, 12570, Note_on_c, 5, 66, 69
7, 12600, Note_on_c, 5, 66, 0
7, 12600, Note_on_c, 5, 64, 69
7, 12630, Note_on_c, 5, 64, 0
7, 12630, Note_on_c, 5, 66, 70
7, 12660, Note_on_c, 5, 66, 0
7, 12660, Note_on_c, 5, 68, 71
7, 12690, Note_on_c, 5, 68, 0
7, 12690, Note_on_c, 5, 64, 71
7, 12720, Note_on_c, 5, 64, 0
7, 12720, Note_on_c, 5, 69, 72
7, 12750, Note_on_c, 5, 69, 0
7, 12750, Note_on_c, 5, 71, 73
7, 12780, Note_on_c, 5, 71, 0
7, 12780, Note_on_c, 5, 73, 73
7, 12810, Note_on_c, 5, 73, 0
7, 12810, Note_on_c, 5, 74, 74
7, 12840, Note_on_c, 5, 74, 0
7, 12840, Note_on_c, 5, 76, 75
7, 12870, Note_on_c, 5, 76, 0
7, 12870, Note_on_c, 5, 74, 75
7, 12900, Note_on_c, 5, 74, 0
7, 12900, Note_on_c, 5, 78, 76
7, 12930, Note_on_c, 5, 78, 0
7, 12930, Note_on_c, 5, 76, 77
7, 12960, Note_on_c, 5, 76, 0
7, 12960, Note_on_c, 5, 74, 77
7, 12990, Note_on_c, 5, 74, 0
7, 12990, Note_on_c, 5, 73, 78
7, 13020, Note_on_c, 5, 73, 0
7, 13020, Note_on_c, 5, 71, 79
7, 13050, Note_on_c, 5, 71, 0
7, 13050, Note_on_c, 5, 73, 79
7, 13080, Note_on_c, 5, 73, 0
7, 13080, Note_on_c, 5, 69, 80
7, 13200, Note_on_c, 5, 69, 0
7, 22860, Note_on_c, 5, 59, 64
7, 22901, Note_on_c, 5, 59, 0
7, 22920, Note_on_c, 5, 59, 64
7, 22961, Note_on_c, 5, 59, 0
7, 22980, Note_on_c, 5, 59, 64
7, 23021, Note_on_c, 5, 59, 0
7, 23040, Note_on_c, 5, 59, 64
7, 23081, Note_on_c, 5, 59, 0
7, 23100, Note_on_c, 5, 59, 64
7, 23141, Note_on_c, 5, 59, 0
7, 23160, Note_on_c, 5, 59, 64
7, 23201, Note_on_c, 5, 59, 0
7, 23220, Note_on_c, 5, 83, 64
7, 23250, Note_on_c, 5, 83, 0
7, 23250, Note_on_c, 5, 78, 64
7, 23280, Note_on_c, 5, 78, 0
7, 23280, Note_on_c, 5, 78, 64
7, 23310, Note_on_c, 5, 78, 0
7, 23310, Note_on_c, 5, 74, 64
7, 23340, Note_on_c, 5, 74, 0
7, 23340, Note_on_c, 5, 74, 64
7, 23370, Note_on_c, 5, 74, 0
7, 23370, Note_on_c, 5, 71, 64
7, 23400, Note_on_c, 5, 71, 0
7, 23400, Note_on_c, 5, 71, 64
7, 23430, Note_on_c, 5, 71, 0
7, 23430, Note_on_c, 5, 73, 64
7, 23460, Note_on_c, 5, 73, 0
7, 23460, Note_on_c, 5, 73, 64
7, 23490, Note_on_c, 5, 73, 0
7, 23490, Note_on_c, 5, 74, 64
7, 23520, Note_on_c, 5, 74, 0
7, 23520, Note_on_c, 5, 73, 64
7, 23561, Note_on_c, 5, 73, 0
7, 23580, Note_on_c, 5, 73, 64
7, 23700, Note_on_c, 5, 73, 0
7, 23700, Note_on_c, 5, 71, 64
7, 23730, Note_on_c, 5, 71, 0
7, 23730, Note_on_c, 5, 70, 64
7, 23760, Note_on_c, 5, 70, 0
7, 23760, Note_on_c, 5, 71, 64
7, 23850, Note_on_c, 5, 71, 0
7, 23850, Note_on_c, 5, 73, 64
7, 23865, Note_on_c, 5, 73, 0
7, 23865, Note_on_c, 5, 74, 64
7, 23880, Note_on_c, 5, 74, 0
7, 23880, Note_on_c, 5, 73, 64
7, 23921, Note_on_c, 5, 73, 0
7, 23940, Note_on_c, 5, 85, 64
7, 23970, Note_on_c, 5, 85, 0
7, 23970, Note_on_c, 5, 82, 64
7, 24000, Note_on_c, 5, 82, 0
7, 24000, Note_on_c, 5, 82, 64
7, 24030, Note_on_c, 5, 82, 0
7, 24030, Note_on_c, 5, 76, 64
7, 24060, Note_on_c, 5, 76, 0
7, 24060, Note_on_c, 5, 76, 64
7, 24090, Note_on_c, 5, 76, 0
7, 24090, Note_on_c, 5, 73, 64
7, 24120, Note_on_c, 5, 73, 0
7, 24120, Note_on_c, 5, 73, 64
7, 24150, Note_on_c, 5, 73, 0
7, 24150, Note_on_c, 5, 74, 64
7, 24180, Note_on_c, 5, 74, 0
7, 24180, Note_on_c, 5, 74, 64
7, 24210, Note_on_c, 5, 74, 0
7, 24210, Note_on_c, 5, 76, 64
7, 24240, Note_on_c, 5, 76, 0
7, 24240, Note_on_c, 5, 74, 64
7, 24360, Note_on_c, 5, 74, 0
7, 24660, Note_on_c, 5, 74, 64
7, 24690, Note_on_c, 5, 74, 0
7, 24690, Note_on_c, 5, 71, 64
7, 24720, Note_on_c, 5, 71, 0
7, 24720, Note_on_c, 5, 71, 64
7, 24750, Note_on_c, 5, 71, 0
7, 24750, Note_on_c, 5, 68, 64
7, 24780, Note_on_c, 5, 68, 0
7, 24780, Note_on_c, 5, 68, 64
7, 24810, Note_on_c, 5, 68, 0
7, 24810, Note_on_c, 5, 64, 64
7, 24840, Note_on_c, 5, 64, 0
7, 24840, Note_on_c, 5, 64, 64
7, 24870, Note_on_c, 5, 64, 0
7, 24870, Note_on_c, 5, 64, 64
7, 24900, Note_on_c, 5, 64, 0
7, 24900, Note_on_c, 5, 64, 64
7, 24930, Note_on_c, 5, 64, 0
7, 24930, Note_on_c, 5, 64, 64
7, 24960, Note_on_c, 5, 64, 0
7, 24960, Note_on_c, 5, 64, 64
7, 25080, Note_on_c, 5, 64, 0
7, 25140, Note_on_c, 5, 69, 64
7, 25170, Note_on_c, 5, 69, 0
7, 25170, Note_on_c, 5, 71, 64
7, 25200, Note_on_c, 5, 71, 0
7, 25200, Note_on_c, 5, 73, 64
7, 25230, Note_on_c, 5, 73, 0
7, 25230, Note_on_c, 5, 74, 64
7, 25260, Note_on_c, 5, 74, 0
7, 25260, Note_on_c, 5, 76, 64
7, 25290, Note_on_c, 5, 76, 0
7, 25290, Note_on_c, 5, 73, 64
7, 25320, Note_on_c, 5, 73, 0
7, 25320, Note_on_c, 5, 81, 64
7, 25361, Note_on_c, 5, 81, 0
7, 25380, Note_on_c, 5, 69, 64
7, 25421, Note_on_c, 5, 69, 0
7, 25500, Note_on_c, 5, 66, 64
7, 25530, Note_on_c, 5, 66, 0
7, 25530, Note_on_c, 5, 68, 64
7, 25560, Note_on_c, 5, 68, 0
7, 25560, Note_on_c, 5, 69, 64
7, 25590, Note_on_c, 5, 69, 0
7, 25590, Note_on_c, 5, 71, 64
7, 25620, Note_on_c, 5, 71, 0
7, 25620, Note_on_c, 5, 73, 64
7, 25650, Note_on_c, 5, 73, 0
7, 25650, Note_on_c, 5, 69, 64
7, 25680, Note_on_c, 5, 69, 0
7, 25680, Note_on_c, 5, 78, 64
7, 25721, Note_on_c, 5, 78, 0
7, 25740, Note_on_c, 5, 66, 64
7, 25781, Note_on_c, 5, 66, 0
7, 25800, Note_on_c, 5, 69, 64
7, 25841, Note_on_c, 5, 69, 0
7, 25860, Note_on_c, 5, 71, 64
7, 25901, Note_on_c, 5, 71, 0
7, 25920, Note_on_c, 5, 69, 64
7, 25961, Note_on_c, 5, 69, 0
7, 25980, Note_on_c, 5, 66, 64
7, 26021, Note_on_c, 5, 66, 0
7, 26100, Note_on_c, 5, 61, 64
7, 26141, Note_on_c, 5, 61, 0
7, 26160, Note_on_c, 5, 68, 64
7, 26201, Note_on_c, 5, 68, 0
7, 26220, Note_on_c, 5, 71, 64
7, 26261, Note_on_c, 5, 71, 0
7, 26280, Note_on_c, 5, 68, 64
7, 26321, Note_on_c, 5, 68, 0
7, 26340, Note_on_c, 5, 61, 64
7, 26381, Note_on_c, 5, 61, 0
7, 26400, Note_on_c, 5, 66, 64
7, 26441, Note_on_c, 5, 66, 0
7, 26460, Note_on_c, 5, 85, 64
7, 26490, Note_on_c, 5, 85, 0
7, 26490, Note_on_c, 5, 81, 64
7, 26520, Note_on_c, 5, 81, 0
7, 26520, Note_on_c, 5, 81, 64
7, 26550, Note_on_c, 5, 81, 0
7, 26550, Note_on_c, 5, 78, 64
7, 26580, Note_on_c, 5, 78, 0
7, 26580, Note_on_c, 5, 78, 64
7, 26610, Note_on_c, 5, 78, 0
7, 26610, Note_on_c, 5, 73, 64
7, 26640, Note_on_c, 5, 73, 0
7, 26640, Note_on_c, 5, 73, 64
7, 26670, Note_on_c, 5, 73, 0
7, 26670, Note_on_c, 5, 69, 64
7, 26700, Note_on_c, 5, 69, 0
7, 26700, Note_on_c, 5, 69, 64
7, 26730, Note_on_c, 5, 69, 0
7, 26730, Note_on_c, 5, 66, 64
7, 26760, Note_on_c, 5, 66, 0
7, 26760, Note_on_c, 5, 66, 64
7, 26801, Note_on_c, 5, 66, 0
7, 26820, Note_on_c, 5, 85, 64
7, 26850, Note_on_c, 5, 85, 0
7, 26850, Note_on_c, 5, 81, 64
7, 26880, Note_on_c, 5, 81, 0
7, 26880, Note_on_c, 5, 81, 64
7, 26910, Note_on_c, 5, 81, 0
7, 26910, Note_on_c, 5, 78, 64
7, 26940, Note_on_c, 5, 78, 0
7, 26940, Note_on_c, 5, 78, 64
7, 26970, Note_on_c, 5, 78, 0
7, 26970, Note_on_c, 5, 73, 64
7, 27000, Note_on_c, 5, 73, 0
7, 27000, Note_on_c, 5, 73, 64
7, 27030, Note_on_c, 5, 73, 0
7, 27030, Note_on_c, 5, 69, 64
7, 27060, Note_on_c, 5, 69, 0
7, 27060, Note_on_c, 5, 69, 64
7, 27090, Note_on_c, 5, 69, 0
7, 27090, Note_on_c, 5, 66, 64
7, 27120, Note_on_c, 5, 66, 0
7, 27120, Note_on_c, 5, 66, 64
7, 27161, Note_on_c, 5, 66, 0
7, 27180, Note_on_c, 5, 84, 64
7, 27210, Note_on_c, 5, 84, 0
7, 27210, Note_on_c, 5, 81, 64
7, 27240, Note_on_c, 5, 81, 0
7, 27240, Note_on_c, 5, 81, 64
7, 27270, Note_on_c, 5, 81, 0
7, 27270, Note_on_c, 5, 78, 64
7, 27300, Note_on_c, 5, 78, 0
7, 27300, Note_on_c, 5, 78, 64
7, 27330, Note_on_c, 5, 78, 0
7, 27330, Note_on_c, 5, 75, 64
7, 27360, Note_on_c, 5, 75, 0
7, 27360, Note_on_c, 5, 75, 64
7, 27390, Note_on_c, 5, 75, 0
7, 27390, Note_on_c, 5, 72, 64
7, 27420, Note_on_c, 5, 72, 0
7, 27420, Note_on_c, 5, 72, 64
7, 27450, Note_on_c, 5, 72, 0
7, 27450, Note_on_c, 5, 66, 64
7, 27480, Note_on_c, 5, 66, 0
7, 27480, Note_on_c, 5, 66, 64
7, 27521, Note_on_c, 5, 66, 0
7, 27540, Note_on_c, 5, 85, 64
7, 27570, Note_on_c, 5, 85, 0
7, 27570, Note_on_c, 5, 81, 64
7, 27600, Note_on_c, 5, 81, 0
7, 27600, Note_on_c, 5, 81, 64
7, 27630, Note_on_c, 5, 81, 0
7, 27630, Note_on_c, 5, 78, 64
7, 27660, Note_on_c, 5, 78, 0
7, 27660, Note_on_c, 5, 78, 64
7, 27690, Note_on_c, 5, 78, 0
7, 27690, Note_on_c, 5, 73, 64
7, 27720, Note_on_c, 5, 73, 0
7, 27720, Note_on_c, 5, 73, 64
7, 27750, Note_on_c, 5, 73, 0
7, 27750, Note_on_c, 5, 69, 64
7, 27780, Note_on_c, 5, 69, 0
7, 27780, Note_on_c, 5, 69, 64
7, 27810, Note_on_c, 5, 69, 0
7, 27810, Note_on_c, 5, 66, 64
7, 27840, Note_on_c, 5, 66, 0
7, 27840, Note_on_c, 5, 66, 64
7, 27881, Note_on_c, 5, 66, 0
7, 27900, Note_on_c, 5, 75, 64
7, 27930, Note_on_c, 5, 75, 0
7, 27930, Note_on_c, 5, 69, 64
7, 27960, Note_on_c, 5, 69, 0
7, 27960, Note_on_c, 5, 69, 64
7, 27990, Note_on_c, 5, 69, 0
7, 27990, Note_on_c, 5, 66, 64
7, 28020, Note_on_c, 5, 66, 0
7, 28020, Note_on_c, 5, 66, 64
7, 28050, Note_on_c, 5, 66, 0
7, 28050, Note_on_c, 5, 63, 64
7, 28080, Note_on_c, 5, 63, 0
7, 28080, Note_on_c, 5, 63, 64
7, 28110, Note_on_c, 5, 63, 0
7, 28110, Note_on_c, 5, 66, 64
7, 28140, Note_on_c, 5, 66, 0
7, 28140, Note_on_c, 5, 66, 64
7, 28170, Note_on_c, 5, 66, 0
7, 28170, Note_on_c, 5, 68, 64
7, 28200, Note_on_c, 5, 68, 0
7, 28200, Note_on_c, 5, 68, 64
7, 28241, Note_on_c, 5, 68, 0
7, 28260, Note_on_c, 5, 77, 66
7, 28290, Note_on_c, 5, 77, 0
7, 28290, Note_on_c, 5, 73, 67
7, 28320, Note_on_c, 5, 73, 0
7, 28320, Note_on_c, 5, 73, 67
7, 28350, Note_on_c, 5, 73, 0
7, 28350, Note_on_c, 5, 68, 68
7, 28380, Note_on_c, 5, 68, 0
7, 28380, Note_on_c, 5, 68, 69
7, 28410, Note_on_c, 5, 68, 0
7, 28410, Note_on_c, 5, 65, 70
7, 28440, Note_on_c, 5, 65, 0
7, 28440, Note_on_c, 5, 65, 71
7, 28470, Note_on_c, 5, 65, 0
7, 28470, Note_on_c, 5, 56, 72
7, 28500, Note_on_c, 5, 56, 0
7, 28500, Note_on_c, 5, 56, 72
7, 28530, Note_on_c, 5, 56, 0
7, 28530, Note_on_c, 5, 57, 73
7, 28560, Note_on_c, 5, 57, 0
7, 28560, Note_on_c, 5, 57, 75
7, 28680, Note_on_c, 5, 57, 0
7, 28740, Note_on_c, 5, 73, 78
7, 28781, Note_on_c, 5, 73, 0
7, 28800, Note_on_c, 5, 78, 78
7, 28841, Note_on_c, 5, 78, 0
7, 28860, Note_on_c, 5, 73, 79
7, 28901, Note_on_c, 5, 73, 0
7, 28920, Note_on_c, 5, 69, 50
7, 28950, Note_on_c, 5, 69, 0
7, 28950, Note_on_c, 5, 68, 50
7, 28980, Note_on_c, 5, 68, 0
7, 28980, Note_on_c, 5, 69, 50
7, 29010, Note_on_c, 5, 69, 0
7, 29010, Note_on_c, 5, 71, 50
7, 29040, Note_on_c, 5, 71, 0
7, 29040, Note_on_c, 5, 73, 50
7, 29081, Note_on_c, 5, 73, 0
7, 29100, Note_on_c, 5, 69, 50
7, 29141, Note_on_c, 5, 69, 0
7, 29160, Note_on_c, 5, 73, 50
7, 29201, Note_on_c, 5, 73, 0
7, 29220, Note_on_c, 5, 69, 50
7, 29261, Note_on_c, 5, 69, 0
7, 29280, Note_on_c, 5, 66, 50
7, 29321, Note_on_c, 5, 66, 0
7, 29340, Note_on_c, 5, 69, 50
7, 29370, Note_on_c, 5, 69, 0
7, 29370, Note_on_c, 5, 68, 50
7, 29400, Note_on_c, 5, 68, 0
7, 29400, Note_on_c, 5, 66, 50
7, 29441, Note_on_c, 5, 66, 0
7, 29460, Note_on_c, 5, 69, 50
7, 29501, Note_on_c, 5, 69, 0
7, 29520, Note_on_c, 5, 71, 50
7, 29561, Note_on_c, 5, 71, 0
7, 29580, Note_on_c, 5, 74, 50
7, 29621, Note_on_c, 5, 74, 0
7, 29640, Note_on_c, 5, 68, 50
7, 29681, Note_on_c, 5, 68, 0
7, 29700, Note_on_c, 5, 71, 50
7, 29730, Note_on_c, 5, 71, 0
7, 29730, Note_on_c, 5, 69, 50
7, 29760, Note_on_c, 5, 69, 0
7, 29760, Note_on_c, 5, 68, 50
7, 29801, Note_on_c, 5, 68, 0
7, 29820, Note_on_c, 5, 71, 50
7, 29861, Note_on_c, 5, 71, 0
7, 29880, Note_on_c, 5, 73, 50
7, 29921, Note_on_c, 5, 73, 0
7, 29940, Note_on_c, 5, 76, 50
7, 29981, Note_on_c, 5, 76, 0
7, 30000, Note_on_c, 5, 70, 50
7, 30041, Note_on_c, 5, 70, 0
7, 30060, Note_on_c, 5, 73, 50
7, 30090, Note_on_c, 5, 73, 0
7, 30090, Note_on_c, 5, 71, 50
7, 30120, Note_on_c, 5, 71, 0
7, 30120, Note_on_c, 5, 70, 50
7, 30161, Note_on_c, 5, 70, 0
7, 30180, Note_on_c, 5, 73, 50
7, 30221, Note_on_c, 5, 73, 0
7, 30240, Note_on_c, 5, 66, 50
7, 30281, Note_on_c, 5, 66, 0
7, 30300, Note_on_c, 5, 78, 50
7, 30341, Note_on_c, 5, 78, 0
7, 30360, Note_on_c, 5, 76, 50
7, 30375, Note_on_c, 5, 76, 0
7, 30375, Note_on_c, 5, 74, 50
7, 30390, Note_on_c, 5, 74, 0
7, 30390, Note_on_c, 5, 76, 50
7, 30405, Note_on_c, 5, 76, 0
7, 30405, Note_on_c, 5, 74, 50
7, 30420, Note_on_c, 5, 74, 0
7, 30420, Note_on_c, 5, 73, 50
7, 30450, Note_on_c, 5, 73, 0
7, 30450, Note_on_c, 5, 74, 50
7, 30480, Note_on_c, 5, 74, 0
7, 30480, Note_on_c, 5, 71, 50
7, 30521, Note_on_c, 5, 71, 0
7, 30540, Note_on_c, 5, 66, 50
7, 30581, Note_on_c, 5, 66, 0
7, 30600, Note_on_c, 5, 62, 50
7, 30641, Note_on_c, 5, 62, 0
7, 30660, Note_on_c, 5, 66, 50
7, 30701, Note_on_c, 5, 66, 0
7, 30720, Note_on_c, 5, 71, 50
7, 30750, Note_on_c, 5, 71, 0
7, 30750, Note_on_c, 5, 70, 50
7, 30780, Note_on_c, 5, 70, 0
7, 30780, Note_on_c, 5, 71, 50
7, 30810, Note_on_c, 5, 71, 0
7, 30810, Note_on_c, 5, 73, 50
7, 30840, Note_on_c, 5, 73, 0
7, 30840, Note_on_c, 5, 74, 50
7, 30870, Note_on_c, 5, 74, 0
7, 30870, Note_on_c, 5, 73, 50
7, 30900, Note_on_c, 5, 73, 0
7, 30900, Note_on_c, 5, 71, 50
7, 30930, Note_on_c, 5, 71, 0
7, 30930, Note_on_c, 5, 73, 50
7, 30960, Note_on_c, 5, 73, 0
7, 30960, Note_on_c, 5, 74, 50
7, 30990, Note_on_c, 5, 74, 0
7, 30990, Note_on_c, 5, 73, 50
7, 31020, Note_on_c, 5, 73, 0
7, 31020, Note_on_c, 5, 71, 50
7, 31050, Note_on_c, 5, 71, 0
7, 31050, Note_on_c, 5, 73, 50
7, 31080, Note_on_c, 5, 73, 0
7, 31080, Note_on_c, 5, 74, 50
7, 31110, Note_on_c, 5, 74, 0
7, 31110, Note_on_c, 5, 73, 50
7, 31140, Note_on_c, 5, 73, 0
7, 31140, Note_on_c, 5, 71, 51
7, 31170, Note_on_c, 5, 71, 0
7, 31170, Note_on_c, 5, 73, 51
7, 31200, Note_on_c, 5, 73, 0
7, 31200, Note_on_c, 5, 74, 51
7, 31230, Note_on_c, 5, 74, 0
7, 31230, Note_on_c, 5, 76, 51
7, 31260, Note_on_c, 5, 76, 0
7, 31260, Note_on_c, 5, 78, 52
7, 31290, Note_on_c, 5, 78, 0
7, 31290, Note_on_c, 5, 76, 52
7, 31320, Note_on_c, 5, 76, 0
7, 31320, Note_on_c, 5, 79, 52
7, 31350, Note_on_c, 5, 79, 0
7, 31350, Note_on_c, 5, 78, 53
7, 31380, Note_on_c, 5, 78, 0
7, 31380, Note_on_c, 5, 76, 53
7, 31410, Note_on_c, 5, 76, 0
7, 31410, Note_on_c, 5, 74, 53
7, 31440, Note_on_c, 5, 74, 0
7, 31440, Note_on_c, 5, 76, 54
7, 31470, Note_on_c, 5, 76, 0
7, 31470, Note_on_c, 5, 74, 54
7, 31500, Note_on_c, 5, 74, 0
7, 31500, Note_on_c, 5, 73, 54
7, 31530, Note_on_c, 5, 73, 0
7, 31530, Note_on_c, 5, 74, 54
7, 31560, Note_on_c, 5, 74, 0
7, 31560, Note_on_c, 5, 76, 55
7, 31590, Note_on_c, 5, 76, 0
7, 31590, Note_on_c, 5, 78, 55
7, 31620, Note_on_c, 5, 78, 0
7, 31620, Note_on_c, 5, 79, 55
7, 31650, Note_on_c, 5, 79, 0
7, 31650, Note_on_c, 5, 78, 56
7, 31680, Note_on_c, 5, 78, 0
7, 31680, Note_on_c, 5, 81, 56
7, 31710, Note_on_c, 5, 81, 0
7, 31710, Note_on_c, 5, 79, 56
7, 31740, Note_on_c, 5, 79, 0
7, 31740, Note_on_c, 5, 78, 56
7, 31770, Note_on_c, 5, 78, 0
7, 31770, Note_on_c, 5, 76, 57
7, 31800, Note_on_c, 5, 76, 0
7, 31800, Note_on_c, 5, 78, 57
7, 31830, Note_on_c, 5, 78, 0
7, 31830, Note_on_c, 5, 76, 57
7, 31860, Note_on_c, 5, 76, 0
7, 31860, Note_on_c, 5, 75, 58
7, 31890, Note_on_c, 5, 75, 0
7, 31890, Note_on_c, 5, 76, 58
7, 31920, Note_on_c, 5, 76, 0
7, 31920, Note_on_c, 5, 78, 58
7, 31950, Note_on_c, 5, 78, 0
7, 31950, Note_on_c, 5, 80, 58
7, 31980, Note_on_c, 5, 80, 0
7, 31980, Note_on_c, 5, 81, 59
7, 32010, Note_on_c, 5, 81, 0
7, 32010, Note_on_c, 5, 80, 59
7, 32040, Note_on_c, 5, 80, 0
7, 32040, Note_on_c, 5, 83, 59
7, 32070, Note_on_c, 5, 83, 0
7, 32070, Note_on_c, 5, 81, 60
7, 32100, Note_on_c, 5, 81, 0
7, 32100, Note_on_c, 5, 80, 60
7, 32130, Note_on_c, 5, 80, 0
7, 32130, Note_on_c, 5, 78, 60
7, 32160, Note_on_c, 5, 78, 0
7, 32160, Note_on_c, 5, 76, 61
7, 32201, Note_on_c, 5, 76, 0
7, 32220, Note_on_c, 5, 71, 61
7, 32261, Note_on_c, 5, 71, 0
7, 32280, Note_on_c, 5, 76, 62
7, 32321, Note_on_c, 5, 76, 0
7, 32340, Note_on_c, 5, 71, 62
7, 32381, Note_on_c, 5, 71, 0
7, 32400, Note_on_c, 5, 68, 63
7, 32430, Note_on_c, 5, 68, 0
7, 32430, Note_on_c, 5, 69, 63
7, 32460, Note_on_c, 5, 69, 0
7, 32460, Note_on_c, 5, 71, 63
7, 32501, Note_on_c, 5, 71, 0
7, 32520, Note_on_c, 5, 71, 64
7, 32700, Note_on_c, 5, 71, 0
7, 32700, Note_on_c, 5, 76, 64
7, 32730, Note_on_c, 5, 76, 0
7, 32730, Note_on_c, 5, 75, 64
7, 32760, Note_on_c, 5, 75, 0
7, 32760, Note_on_c, 5, 76, 64
7, 32910, Note_on_c, 5, 76, 0
7, 32910, Note_on_c, 5, 74, 64
7, 32940, Note_on_c, 5, 74, 0
7, 32940, Note_on_c, 5, 73, 64
7, 32970, Note_on_c, 5, 73, 0
7, 32970, Note_on_c, 5, 74, 64
7, 33000, Note_on_c, 5, 74, 0
7, 33000, Note_on_c, 5, 76, 64
7, 33281, Note_on_c, 5, 76, 0
7, 33300, Note_on_c, 5, 69, 64
7, 33341, Note_on_c, 5, 69, 0
7, 33360, Note_on_c, 5, 74, 64
7, 33401, Note_on_c, 5, 74, 0
7, 33420, Note_on_c, 5, 69, 64
7, 33461, Note_on_c, 5, 69, 0
7, 33480, Note_on_c, 5, 68, 64
7, 33521, Note_on_c, 5, 68, 0
7, 33540, Note_on_c, 5, 66, 64
7, 33581, Note_on_c, 5, 66, 0
7, 33600, Note_on_c, 5, 64, 64
7, 33641, Note_on_c, 5, 64, 0
7, 33660, Note_on_c, 5, 76, 64
7, 33780, Note_on_c, 5, 76, 0
7, 33780, Note_on_c, 5, 76, 64
7, 33900, Note_on_c, 5, 76, 0
7, 33900, Note_on_c, 5, 76, 64
7, 33990, Note_on_c, 5, 76, 0
7, 33990, Note_on_c, 5, 78, 64
7, 34020, Note_on_c, 5, 78, 0
7, 34020, Note_on_c, 5, 74, 64
7, 34050, Note_on_c, 5, 74, 0
7, 34050, Note_on_c, 5, 76, 64
7, 34080, Note_on_c, 5, 76, 0
7, 34080, Note_on_c, 5, 73, 64
7, 34121, Note_on_c, 5, 73, 0
7, 34140, Note_on_c, 5, 76, 64
7, 34181, Note_on_c, 5, 76, 0
7, 34200, Note_on_c, 5, 81, 64
7, 34241, Note_on_c, 5, 81, 0
7, 34260, Note_on_c, 5, 76, 64
7, 34301, Note_on_c, 5, 76, 0
7, 34320, Note_on_c, 5, 73, 64
7, 34350, Note_on_c, 5, 73, 0
7, 34350, Note_on_c, 5, 71, 64
7, 34380, Note_on_c, 5, 71, 0
7, 34380, Note_on_c, 5, 73, 64
7, 34410, Note_on_c, 5, 73, 0
7, 34410, Note_on_c, 5, 74, 64
7, 34440, Note_on_c, 5, 74, 0
7, 34440, Note_on_c, 5, 76, 64
7, 34481, Note_on_c, 5, 76, 0
7, 34500, Note_on_c, 5, 73, 64
7, 34541, Note_on_c, 5, 73, 0
7, 34560, Note_on_c, 5, 76, 64
7, 34601, Note_on_c, 5, 76, 0
7, 34620, Note_on_c, 5, 73, 64
7, 34661, Note_on_c, 5, 73, 0
7, 34680, Note_on_c, 5, 69, 64
7, 34721, Note_on_c, 5, 69, 0
7, 34740, Note_on_c, 5, 73, 64
7, 34770, Note_on_c, 5, 73, 0
7, 34770, Note_on_c, 5, 71, 64
7, 34800, Note_on_c, 5, 71, 0
7, 34800, Note_on_c, 5, 69, 64
7, 34841, Note_on_c, 5, 69, 0
7, 34860, Note_on_c, 5, 73, 64
7, 34901, Note_on_c, 5, 73, 0
7, 34920, Note_on_c, 5, 74, 64
7, 34961, Note_on_c, 5, 74, 0
7, 34980, Note_on_c, 5, 78, 64
7, 35021, Note_on_c, 5, 78, 0
7, 35040, Note_on_c, 5, 71, 64
7, 35081, Note_on_c, 5, 71, 0
7, 35100, Note_on_c, 5, 74, 64
7, 35130, Note_on_c, 5, 74, 0
7, 35130, Note_on_c, 5, 73, 64
7, 35160, Note_on_c, 5, 73, 0
7, 35160, Note_on_c, 5, 71, 64
7, 35201, Note_on_c, 5, 71, 0
7, 35220, Note_on_c, 5, 74, 64
7, 35261, Note_on_c, 5, 74, 0
7, 35280, Note_on_c, 5, 76, 64
7, 35321, Note_on_c, 5, 76, 0
7, 35340, Note_on_c, 5, 79, 64
7, 35381, Note_on_c, 5, 79, 0
7, 35400, Note_on_c, 5, 73, 64
7, 35441, Note_on_c, 5, 73, 0
7, 35460, Note_on_c, 5, 76, 64
7, 35490, Note_on_c, 5, 76, 0
7, 35490, Note_on_c, 5, 74, 64
7, 35520, Note_on_c, 5, 74, 0
7, 35520, Note_on_c, 5, 73, 64
7, 35561, Note_on_c, 5, 73, 0
7, 35580, Note_on_c, 5, 76, 64
7, 35621, Note_on_c, 5, 76, 0
7, 35640, Note_on_c, 5, 69, 64
7, 35681, Note_on_c, 5, 69, 0
7, 35700, Note_on_c, 5, 79, 64
7, 35741, Note_on_c, 5, 79, 0
7, 35760, Note_on_c, 5, 79, 64
7, 35775, Note_on_c, 5, 79, 0
7, 35775, Note_on_c, 5, 78, 64
7, 35790, Note_on_c, 5, 78, 0
7, 35790, Note_on_c, 5, 79, 64
7, 35805, Note_on_c, 5, 79, 0
7, 35805, Note_on_c, 5, 78, 64
7, 35820, Note_on_c, 5, 78, 0
7, 35820, Note_on_c, 5, 76, 64
7, 35850, Note_on_c, 5, 76, 0
7, 35850, Note_on_c, 5, 78, 64
7, 35880, Note_on_c, 5, 78, 0
7, 35880, Note_on_c, 5, 74, 64
7, 35921, Note_on_c, 5, 74, 0
7, 35940, Note_on_c, 5, 69, 64
7, 35981, Note_on_c, 5, 69, 0
7, 36000, Note_on_c, 5, 66, 64
7, 36041, Note_on_c, 5, 66, 0
7, 36060, Note_on_c, 5, 69, 64
7, 36101, Note_on_c, 5, 69, 0
7, 36120, Note_on_c, 5, 62, 64
7, 36150, Note_on_c, 5, 62, 0
7, 36150, Note_on_c, 5, 61, 64
7, 36180, Note_on_c, 5, 61, 0
7, 36180, Note_on_c, 5, 62, 64
7, 36210, Note_on_c, 5, 62, 0
7, 36210, Note_on_c, 5, 64, 64
7, 36240, Note_on_c, 5, 64, 0
7, 36240, Note_on_c, 5, 66, 64
7, 36270, Note_on_c, 5, 66, 0
7, 36270, Note_on_c, 5, 64, 64
7, 36300, Note_on_c, 5, 64, 0
7, 36300, Note_on_c, 5, 62, 64
7, 36330, Note_on_c, 5, 62, 0
7, 36330, Note_on_c, 5, 64, 65
7, 36360, Note_on_c, 5, 64, 0
7, 36360, Note_on_c, 5, 66, 65
7, 36390, Note_on_c, 5, 66, 0
7, 36390, Note_on_c, 5, 64, 65
7, 36420, Note_on_c, 5, 64, 0
7, 36420, Note_on_c, 5, 62, 65
7, 36450, Note_on_c, 5, 62, 0
7, 36450, Note_on_c, 5, 64, 65
7, 36480, Note_on_c, 5, 64, 0
7, 36480, Note_on_c, 5, 66, 65
7, 36510, Note_on_c, 5, 66, 0
7, 36510, Note_on_c, 5, 64, 65
7, 36540, Note_on_c, 5, 64, 0
7, 36540, Note_on_c, 5, 62, 65
7, 36570, Note_on_c, 5, 62, 0
7, 36570, Note_on_c, 5, 64, 65
7, 36600, Note_on_c, 5, 64, 0
7, 36600, Note_on_c, 5, 66, 65
7, 36630, Note_on_c, 5, 66, 0
7, 36630, Note_on_c, 5, 67, 65
7, 36660, Note_on_c, 5, 67, 0
7, 36660, Note_on_c, 5, 69, 65
7, 36690, Note_on_c, 5, 69, 0
7, 36690, Note_on_c, 5, 67, 65
7, 36720, Note_on_c, 5, 67, 0
7, 36720, Note_on_c, 5, 71, 65
7, 36750, Note_on_c, 5, 71, 0
7, 36750, Note_on_c, 5, 69, 66
7, 36780, Note_on_c, 5, 69, 0
7, 36780, Note_on_c, 5, 67, 66
7, 36810, Note_on_c, 5, 67, 0
7, 36810, Note_on_c, 5, 66, 66
7, 36840, Note_on_c, 5, 66, 0
7, 36840, Note_on_c, 5, 67, 66
7, 36870, Note_on_c, 5, 67, 0
7, 36870, Note_on_c, 5, 66, 66
7, 36900, Note_on_c, 5, 66, 0
7, 36900, Note_on_c, 5, 64, 66
7, 36930, Note_on_c, 5, 64, 0
7, 36930, Note_on_c, 5, 66, 66
7, 36960, Note_on_c, 5, 66, 0
7, 36960, Note_on_c, 5, 67, 66
7, 36990, Note_on_c, 5, 67, 0
7, 36990, Note_on_c, 5, 69, 66
7, 37020, Note_on_c, 5, 69, 0
7, 37020, Note_on_c, 5, 71, 66
7, 37050, Note_on_c, 5, 71, 0
7, 37050, Note_on_c, 5, 69, 66
7, 37080, Note_on_c, 5, 69, 0
7, 37080, Note_on_c, 5, 72, 66
7, 37110, Note_on_c, 5, 72, 0
7, 37110, Note_on_c, 5, 71, 66
7, 37140, Note_on_c, 5, 71, 0
7, 37140, Note_on_c, 5, 69, 66
7, 37170, Note_on_c, 5, 69, 0
7, 37170, Note_on_c, 5, 67, 67
7, 37200, Note_on_c, 5, 67, 0
7, 37200, Note_on_c, 5, 69, 67
7, 37230, Note_on_c, 5, 69, 0
7, 37230, Note_on_c, 5, 67, 67
7, 37260, Note_on_c, 5, 67, 0
7, 37260, Note_on_c, 5, 66, 67
7, 37290, Note_on_c, 5, 66, 0
7, 37290, Note_on_c, 5, 67, 67
7, 37320, Note_on_c, 5, 67, 0
7, 37320, Note_on_c, 5, 69, 67
7, 37350, Note_on_c, 5, 69, 0
7, 37350, Note_on_c, 5, 71, 67
7, 37380, Note_on_c, 5, 71, 0
7, 37380, Note_on_c, 5, 72, 67
7, 37410, Note_on_c, 5, 72, 0
7, 37410, Note_on_c, 5, 71, 67
7, 37440, Note_on_c, 5, 71, 0
7, 37440, Note_on_c, 5, 74, 67
7, 37470, Note_on_c, 5, 74, 0
7, 37470, Note_on_c, 5, 72, 67
7, 37500, Note_on_c, 5, 72, 0
7, 37500, Note_on_c, 5, 71, 67
7, 37530, Note_on_c, 5, 71, 0
7, 37530, Note_on_c, 5, 69, 67
7, 37560, Note_on_c, 5, 69, 0
7, 37560, Note_on_c, 5, 67, 67
7, 37590, Note_on_c, 5, 67, 0
7, 37590, Note_on_c, 5, 66, 68
7, 37620, Note_on_c, 5, 66, 0
7, 37620, Note_on_c, 5, 67, 68
7, 37650, Note_on_c, 5, 67, 0
7, 37650, Note_on_c, 5, 69, 68
7, 37680, Note_on_c, 5, 69, 0
7, 37680, Note_on_c, 5, 71, 68
7, 37961, Note_on_c, 5, 71, 0
7, 37980, Note_on_c, 5, 71, 68
7, 38010, Note_on_c, 5, 71, 0
7, 38010, Note_on_c, 5, 69, 69
7, 38040, Note_on_c, 5, 69, 0
7, 38040, Note_on_c, 5, 67, 69
7, 38081, Note_on_c, 5, 67, 0
7, 38100, Note_on_c, 5, 71, 69
7, 38141, Note_on_c, 5, 71, 0
7, 38160, Note_on_c, 5, 73, 69
7, 38201, Note_on_c, 5, 73, 0
7, 38220, Note_on_c, 5, 76, 69
7, 38261, Note_on_c, 5, 76, 0
7, 38280, Note_on_c, 5, 69, 69
7, 38310, Note_on_c, 5, 69, 0
7, 38310, Note_on_c, 5, 67, 69
7, 38340, Note_on_c, 5, 67, 0
7, 38340, Note_on_c, 5, 66, 69
7, 38370, Note_on_c, 5, 66, 0
7, 38370, Note_on_c, 5, 67, 69
7, 38400, Note_on_c, 5, 67, 0
7, 38400, Note_on_c, 5, 69, 69
7, 38681, Note_on_c, 5, 69, 0
7, 38700, Note_on_c, 5, 69, 71
7, 38730, Note_on_c, 5, 69, 0
7, 38730, Note_on_c, 5, 67, 71
7, 38760, Note_on_c, 5, 67, 0
7, 38760, Note_on_c, 5, 66, 71
7, 38801, Note_on_c, 5, 66, 0
7, 38820, Note_on_c, 5, 69, 72
7, 38861, Note_on_c, 5, 69, 0
7, 38880, Note_on_c, 5, 71, 72
7, 38921, Note_on_c, 5, 71, 0
7, 38940, Note_on_c, 5, 66, 73
7, 38981, Note_on_c, 5, 66, 0
7, 39000, Note_on_c, 5, 67, 73
7, 39030, Note_on_c, 5, 67, 0
7, 39030, Note_on_c, 5, 66, 74
7, 39060, Note_on_c, 5, 66, 0
7, 39060, Note_on_c, 5, 64, 74
7, 39090, Note_on_c, 5, 64, 0
7, 39090, Note_on_c, 5, 66, 74
7, 39120, Note_on_c, 5, 66, 0
7, 39120, Note_on_c, 5, 67, 74
7, 39150, Note_on_c, 5, 67, 0
7, 39150, Note_on_c, 5, 69, 75
7, 39180, Note_on_c, 5, 69, 0
7, 39180, Note_on_c, 5, 71, 75
7, 39210, Note_on_c, 5, 71, 0
7, 39210, Note_on_c, 5, 73, 75
7, 39240, Note_on_c, 5, 73, 0
7, 39240, Note_on_c, 5, 74, 76
7, 39270, Note_on_c, 5, 74, 0
7, 39270, Note_on_c, 5, 73, 76
7, 39300, Note_on_c, 5, 73, 0
7, 39300, Note_on_c, 5, 71, 76
7, 39330, Note_on_c, 5, 71, 0
7, 39330, Note_on_c, 5, 73, 76
7, 39360, Note_on_c, 5, 73, 0
7, 39360, Note_on_c, 5, 73, 77
7, 39390, Note_on_c, 5, 73, 0
7, 39390, Note_on_c, 5, 71, 77
7, 39420, Note_on_c, 5, 71, 0
7, 39420, Note_on_c, 5, 69, 77
7, 39450, Note_on_c, 5, 69, 0
7, 39450, Note_on_c, 5, 71, 78
7, 39480, Note_on_c, 5, 71, 0
7, 39480, Note_on_c, 5, 73, 78
7, 39510, Note_on_c, 5, 73, 0
7, 39510, Note_on_c, 5, 74, 78
7, 39540, Note_on_c, 5, 74, 0
7, 39540, Note_on_c, 5, 76, 78
7, 39570, Note_on_c, 5, 76, 0
7, 39570, Note_on_c, 5, 78, 79
7, 39600, Note_on_c, 5, 78, 0
7, 39600, Note_on_c, 5, 79, 79
7, 39630, Note_on_c, 5, 79, 0
7, 39630, Note_on_c, 5, 78, 79
7, 39660, Note_on_c, 5, 78, 0
7, 39660, Note_on_c, 5, 76, 79
7, 39690, Note_on_c, 5, 76, 0
7, 39690, Note_on_c, 5, 79, 80
7, 39720, Note_on_c, 5, 79, 0
7, 39720, Note_on_c, 5, 78, 75
7, 39761, Note_on_c, 5, 78, 0
7, 39780, Note_on_c, 5, 81, 75
7, 39810, Note_on_c, 5, 81, 0
7, 39810, Note_on_c, 5, 78, 75
7, 39840, Note_on_c, 5, 78, 0
7, 39840, Note_on_c, 5, 78, 75
7, 39870, Note_on_c, 5, 78, 0
7, 39870, Note_on_c, 5, 74, 75
7, 39900, Note_on_c, 5, 74, 0
7, 39900, Note_on_c, 5, 74, 75
7, 39930, Note_on_c, 5, 74, 0
7, 39930, Note_on_c, 5, 69, 75
7, 39960, Note_on_c, 5, 69, 0
7, 39960, Note_on_c, 5, 69, 75
7, 39990, Note_on_c, 5, 69, 0
7, 39990, Note_on_c, 5, 66, 75
7, 40020, Note_on_c, 5, 66, 0
7, 40020, Note_on_c, 5, 66, 75
7, 40050, Note_on_c, 5, 66, 0
7, 40050, Note_on_c, 5, 62, 75
7, 40080, Note_on_c, 5, 62, 0
7, 40080, Note_on_c, 5, 62, 75
7, 40121, Note_on_c, 5, 62, 0
7, 40140, Note_on_c, 5, 81, 75
7, 40170, Note_on_c, 5, 81, 0
7, 40170, Note_on_c, 5, 78, 75
7, 40200, Note_on_c, 5, 78, 0
7, 40200, Note_on_c, 5, 78, 75
7, 40230, Note_on_c, 5, 78, 0
7, 40230, Note_on_c, 5, 74, 75
7, 40260, Note_on_c, 5, 74, 0
7, 40260, Note_on_c, 5, 74, 75
7, 40290, Note_on_c, 5, 74, 0
7, 40290, Note_on_c, 5, 69, 75
7, 40320, Note_on_c, 5, 69, 0
7, 40320, Note_on_c, 5, 69, 75
7, 40350, Note_on_c, 5, 69, 0
7, 40350, Note_on_c, 5, 66, 75
7, 40380, Note_on_c, 5, 66, 0
7, 40380, Note_on_c, 5, 66, 75
7, 40410, Note_on_c, 5, 66, 0
7, 40410, Note_on_c, 5, 62, 75
7, 40440, Note_on_c, 5, 62, 0
7, 40440, Note_on_c, 5, 62, 75
7, 40481, Note_on_c, 5, 62, 0
7, 40500, Note_on_c, 5, 80, 76
7, 40530, Note_on_c, 5, 80, 0
7, 40530, Note_on_c, 5, 77, 76
7, 40560, Note_on_c, 5, 77, 0
7, 40560, Note_on_c, 5, 77, 76
7, 40590, Note_on_c, 5, 77, 0
7, 40590, Note_on_c, 5, 74, 76
7, 40620, Note_on_c, 5, 74, 0
7, 40620, Note_on_c, 5, 74, 77
7, 40650, Note_on_c, 5, 74, 0
7, 40650, Note_on_c, 5, 71, 77
7, 40680, Note_on_c, 5, 71, 0
7, 40680, Note_on_c, 5, 71, 77
7, 40710, Note_on_c, 5, 71, 0
7, 40710, Note_on_c, 5, 68, 78
7, 40740, Note_on_c, 5, 68, 0
7, 40740, Note_on_c, 5, 68, 78
7, 40770, Note_on_c, 5, 68, 0
7, 40770, Note_on_c, 5, 62, 78
7, 40800, Note_on_c, 5, 62, 0
7, 40800, Note_on_c, 5, 62, 78
7, 40841, Note_on_c, 5, 62, 0
7, 40860, Note_on_c, 5, 81, 79
7, 40890, Note_on_c, 5, 81, 0
7, 40890, Note_on_c, 5, 77, 79
7, 40920, Note_on_c, 5, 77, 0
7, 40920, Note_on_c, 5, 77, 79
7, 40950, Note_on_c, 5, 77, 0
7, 40950, Note_on_c, 5, 74, 80
7, 40980, Note_on_c, 5, 74, 0
7, 40980, Note_on_c, 5, 74, 80
7, 41010, Note_on_c, 5, 74, 0
7, 41010, Note_on_c, 5, 69, 80
7, 41040, Note_on_c, 5, 69, 0
7, 41040, Note_on_c, 5, 69, 81
7, 41070, Note_on_c, 5, 69, 0
7, 41070, Note_on_c, 5, 65, 81
7, 41100, Note_on_c, 5, 65, 0
7, 41100, Note_on_c, 5, 65, 81
7, 41130, Note_on_c, 5, 65, 0
7, 41130, Note_on_c, 5, 62, 81
7, 41160, Note_on_c, 5, 62, 0
7, 41160, Note_on_c, 5, 62, 82
7, 41201, Note_on_c, 5, 62, 0
7, 41220, Note_on_c, 5, 83, 82
7, 41250, Note_on_c, 5, 83, 0
7, 41250, Note_on_c, 5, 77, 83
7, 41280, Note_on_c, 5, 77, 0
7, 41280, Note_on_c, 5, 77, 83
7, 41310, Note_on_c, 5, 77, 0
7, 41310, Note_on_c, 5, 74, 83
7, 41340, Note_on_c, 5, 74, 0
7, 41340, Note_on_c, 5, 74, 83
7, 41370, Note_on_c, 5, 74, 0
7, 41370, Note_on_c, 5, 71, 84
7, 41400, Note_on_c, 5, 71, 0
7, 41400, Note_on_c, 5, 71, 84
7, 41430, Note_on_c, 5, 71, 0
7, 41430, Note_on_c, 5, 62, 84
7, 41460, Note_on_c, 5, 62, 0
7, 41460, Note_on_c, 5, 62, 84
7, 41490, Note_on_c, 5, 62, 0
7, 41490, Note_on_c, 5, 61, 85
7, 41520, Note_on_c, 5, 61, 0
7, 41520, Note_on_c, 5, 61, 85
7, 41561, Note_on_c, 5, 61, 0
7, 41580, Note_on_c, 5, 85, 82
7, 41610, Note_on_c, 5, 85, 0
7, 41610, Note_on_c, 5, 81, 81
7, 41640, Note_on_c, 5, 81, 0
7, 41640, Note_on_c, 5, 81, 80
7, 41670, Note_on_c, 5, 81, 0
7, 41670, Note_on_c, 5, 76, 79
7, 41700, Note_on_c, 5, 76, 0
7, 41700, Note_on_c, 5, 76, 77
7, 41730, Note_on_c, 5, 76, 0
7, 41730, Note_on_c, 5, 73, 76
7, 41760, Note_on_c, 5, 73, 0
7, 41760, Note_on_c, 5, 73, 75
7, 41790, Note_on_c, 5, 73, 0
7, 41790, Note_on_c, 5, 69, 74
7, 41820, Note_on_c, 5, 69, 0
7, 41820, Note_on_c, 5, 69, 72
7, 41850, Note_on_c, 5, 69, 0
7, 41850, Note_on_c, 5, 62, 71
7, 41880, Note_on_c, 5, 62, 0
7, 41880, Note_on_c, 5, 62, 70
7, 41910, Note_on_c, 5, 62, 0
7, 41910, Note_on_c, 5, 64, 70
7, 41940, Note_on_c, 5, 64, 0
7, 41940, Note_on_c, 5, 66, 71
7, 41970, Note_on_c, 5, 66, 0
7, 41970, Note_on_c, 5, 67, 71
7, 42000, Note_on_c, 5, 67, 0
7, 42000, Note_on_c, 5, 69, 71
7, 42030, Note_on_c, 5, 69, 0
7, 42030, Note_on_c, 5, 71, 71
7, 42060, Note_on_c, 5, 71, 0
7, 42060, Note_on_c, 5, 72, 72
7, 42090, Note_on_c, 5, 72, 0
7, 42090, Note_on_c, 5, 71, 72
7, 42120, Note_on_c, 5, 71, 0
7, 42120, Note_on_c, 5, 74, 72
7, 42150, Note_on_c, 5, 74, 0
7, 42150, Note_on_c, 5, 72, 72
7, 42180, Note_on_c, 5, 72, 0
7, 42180, Note_on_c, 5, 71, 73
7, 42210, Note_on_c, 5, 71, 0
7, 42210, Note_on_c, 5, 69, 73
7, 42240, Note_on_c, 5, 69, 0
7, 42240, Note_on_c, 5, 71, 73
7, 42270, Note_on_c, 5, 71, 0
7, 42270, Note_on_c, 5, 69, 73
7, 42300, Note_on_c, 5, 69, 0
7, 42300, Note_on_c, 5, 67, 74
7, 42330, Note_on_c, 5, 67, 0
7, 42330, Note_on_c, 5, 69, 74
7, 42360, Note_on_c, 5, 69, 0
7, 42360, Note_on_c, 5, 71, 74
7, 42390, Note_on_c, 5, 71, 0
7, 42390, Note_on_c, 5, 73, 74
7, 42420, Note_on_c, 5, 73, 0
7, 42420, Note_on_c, 5, 74, 75
7, 42450, Note_on_c, 5, 74, 0
7, 42450, Note_on_c, 5, 73, 75
7, 42480, Note_on_c, 5, 73, 0
7, 42480, Note_on_c, 5, 76, 75
7, 42510, Note_on_c, 5, 76, 0
7, 42510, Note_on_c, 5, 74, 75
7, 42540, Note_on_c, 5, 74, 0
7, 42540, Note_on_c, 5, 73, 76
7, 42570, Note_on_c, 5, 73, 0
7, 42570, Note_on_c, 5, 71, 76
7, 42600, Note_on_c, 5, 71, 0
7, 42600, Note_on_c, 5, 73, 76
7, 42630, Note_on_c, 5, 73, 0
7, 42630, Note_on_c, 5, 71, 76
7, 42660, Note_on_c, 5, 71, 0
7, 42660, Note_on_c, 5, 69, 77
7, 42690, Note_on_c, 5, 69, 0
7, 42690, Note_on_c, 5, 71, 77
7, 42720, Note_on_c, 5, 71, 0
7, 42720, Note_on_c, 5, 73, 77
7, 42750, Note_on_c, 5, 73, 0
7, 42750, Note_on_c, 5, 74, 77
7, 42780, Note_on_c, 5, 74, 0
7, 42780, Note_on_c, 5, 76, 78
7, 42810, Note_on_c, 5, 76, 0
7, 42810, Note_on_c, 5, 74, 78
7, 42840, Note_on_c, 5, 74, 0
7, 42840, Note_on_c, 5, 78, 78
7, 42870, Note_on_c, 5, 78, 0
7, 42870, Note_on_c, 5, 76, 78
7, 42900, Note_on_c, 5, 76, 0
7, 42900, Note_on_c, 5, 74, 79
7, 42930, Note_on_c, 5, 74, 0
7, 42930, Note_on_c, 5, 73, 79
7, 42960, Note_on_c, 5, 73, 0
7, 42960, Note_on_c, 5, 74, 79
7, 42990, Note_on_c, 5, 74, 0
7, 42990, Note_on_c, 5, 73, 79
7, 43020, Note_on_c, 5, 73, 0
7, 43020, Note_on_c, 5, 71, 80
7, 43050, Note_on_c, 5, 71, 0
7, 43050, Note_on_c, 5, 73, 80
7, 43080, Note_on_c, 5, 73, 0
7, 43080, Note_on_c, 5, 74, 80
7, 43110, Note_on_c, 5, 74, 0
7, 43110, Note_on_c, 5, 76, 80
7, 43140, Note_on_c, 5, 76, 0
7, 43140, Note_on_c, 5, 78, 81
7, 43170, Note_on_c, 5, 78, 0
7, 43170, Note_on_c, 5, 76, 81
7, 43200, Note_on_c, 5, 76, 0
7, 43200, Note_on_c, 5, 79, 81
7, 43230, Note_on_c, 5, 79, 0
7, 43230, Note_on_c, 5, 78, 81
7, 43260, Note_on_c, 5, 78, 0
7, 43260, Note_on_c, 5, 76, 82
7, 43290, Note_on_c, 5, 76, 0
7, 43290, Note_on_c, 5, 74, 82
7, 43320, Note_on_c, 5, 74, 0
7, 43320, Note_on_c, 5, 76, 82
7, 43350, Note_on_c, 5, 76, 0
7, 43350, Note_on_c, 5, 74, 82
7, 43380, Note_on_c, 5, 74, 0
7, 43380, Note_on_c, 5, 73, 83
7, 43410, Note_on_c, 5, 73, 0
7, 43410, Note_on_c, 5, 74, 83
7, 43440, Note_on_c, 5, 74, 0
7, 43440, Note_on_c, 5, 76, 83
7, 43470, Note_on_c, 5, 76, 0
7, 43470, Note_on_c, 5, 78, 83
7, 43500, Note_on_c, 5, 78, 0
7, 43500, Note_on_c, 5, 79, 84
7, 43530, Note_on_c, 5, 79, 0
7, 43530, Note_on_c, 5, 78, 84
7, 43560, Note_on_c, 5, 78, 0
7, 43560, Note_on_c, 5, 81, 84
7, 43590, Note_on_c, 5, 81, 0
7, 43590, Note_on_c, 5, 79, 84
7, 43620, Note_on_c, 5, 79, 0
7, 43620, Note_on_c, 5, 78, 85
7, 43650, Note_on_c, 5, 78, 0
7, 43650, Note_on_c, 5, 76, 85
7, 43680, Note_on_c, 5, 76, 0
7, 43680, Note_on_c, 5, 78, 80
7, 43721, Note_on_c, 5, 78, 0
7, 43740, Note_on_c, 5, 69, 81
7, 43781, Note_on_c, 5, 69, 0
7, 43800, Note_on_c, 5, 74, 81
7, 43841, Note_on_c, 5, 74, 0
7, 43860, Note_on_c, 5, 78, 82
7, 43901, Note_on_c, 5, 78, 0
7, 43920, Note_on_c, 5, 81, 82
7, 43961, Note_on_c, 5, 81, 0
7, 43980, Note_on_c, 5, 84, 83
7, 44021, Note_on_c, 5, 84, 0
7, 44040, Note_on_c, 5, 83, 83
7, 44081, Note_on_c, 5, 83, 0
7, 44100, Note_on_c, 5, 67, 84
7, 44141, Note_on_c, 5, 67, 0
7, 44160, Note_on_c, 5, 73, 84
7, 44201, Note_on_c, 5, 73, 0
7, 44220, Note_on_c, 5, 76, 85
7, 44261, Note_on_c, 5, 76, 0
7, 44280, Note_on_c, 5, 79, 86
7, 44321, Note_on_c, 5, 79, 0
7, 44340, Note_on_c, 5, 83, 86
7, 44381, Note_on_c, 5, 83, 0
7, 44400, Note_on_c, 5, 81, 87
7, 44441, Note_on_c, 5, 81, 0
7, 44460, Note_on_c, 5, 66, 87
7, 44501, Note_on_c, 5, 66, 0
7, 44520, Note_on_c, 5, 69, 88
7, 44561, Note_on_c, 5, 69, 0
7, 44580, Note_on_c, 5, 74, 88
7, 44621, Note_on_c, 5, 74, 0
7, 44640, Note_on_c, 5, 78, 89
7, 44681, Note_on_c, 5, 78, 0
7, 44700, Note_on_c, 5, 81, 89
7, 44741, Note_on_c, 5, 81, 0
7, 44760, Note_on_c, 5, 79, 90
7, 44801, Note_on_c, 5, 79, 0
7, 44820, Note_on_c, 5, 83, 91
7, 44850, Note_on_c, 5, 83, 0
7, 44850, Note_on_c, 5, 81, 91
7, 44880, Note_on_c, 5, 81, 0
7, 44880, Note_on_c, 5, 79, 91
7, 44921, Note_on_c, 5, 79, 0
7, 44940, Note_on_c, 5, 79, 92
7, 44970, Note_on_c, 5, 79, 0
7, 44970, Note_on_c, 5, 78, 92
7, 45000, Note_on_c, 5, 78, 0
7, 45000, Note_on_c, 5, 76, 92
7, 45041, Note_on_c, 5, 76, 0
7, 45060, Note_on_c, 5, 76, 93
7, 45090, Note_on_c, 5, 76, 0
7, 45090, Note_on_c, 5, 74, 93
7, 45120, Note_on_c, 5, 74, 0
7, 45120, Note_on_c, 5, 73, 93
7, 45150, Note_on_c, 5, 73, 0
7, 45150, Note_on_c, 5, 81, 94
7, 45180, Note_on_c, 5, 81, 0
7, 45180, Note_on_c, 5, 79, 94
7, 45210, Note_on_c, 5, 79, 0
7, 45210, Note_on_c, 5, 78, 94
7, 45240, Note_on_c, 5, 78, 0
7, 45240, Note_on_c, 5, 76, 94
7, 45270, Note_on_c, 5, 76, 0
7, 45270, Note_on_c, 5, 74, 95
7, 45300, Note_on_c, 5, 74, 0
7, 45300, Note_on_c, 5, 73, 95
7, 45330, Note_on_c, 5, 73, 0
7, 45330, Note_on_c, 5, 71, 95
7, 45360, Note_on_c, 5, 71, 0
7, 45360, Note_on_c, 5, 69, 96
7, 45390, Note_on_c, 5, 69, 0
7, 45390, Note_on_c, 5, 71, 96
7, 45420, Note_on_c, 5, 71, 0
7, 45420, Note_on_c, 5, 73, 96
7, 45450, Note_on_c, 5, 73, 0
7, 45450, Note_on_c, 5, 69, 96
7, 45480, Note_on_c, 5, 69, 0
7, 45480, Note_on_c, 5, 74, 97
7, 45510, Note_on_c, 5, 74, 0
7, 45510, Note_on_c, 5, 76, 97
7, 45540, Note_on_c, 5, 76, 0
7, 45540, Note_on_c, 5, 78, 97
7, 45570, Note_on_c, 5, 78, 0
7, 45570, Note_on_c, 5, 79, 98
7, 45600, Note_on_c, 5, 79, 0
7, 45600, Note_on_c, 5, 81, 98
7, 45630, Note_on_c, 5, 81, 0
7, 45630, Note_on_c, 5, 79, 98
7, 45660, Note_on_c, 5, 79, 0
7, 45660, Note_on_c, 5, 83, 98
7, 45690, Note_on_c, 5, 83, 0
7, 45690, Note_on_c, 5, 81, 99
7, 45720, Note_on_c, 5, 81, 0
7, 45720, Note_on_c, 5, 79, 99
7, 45750, Note_on_c, 5, 79, 0
7, 45750, Note_on_c, 5, 78, 99
7, 45780, Note_on_c, 5, 78, 0
7, 45780, Note_on_c, 5, 76, 99
7, 45810, Note_on_c, 5, 76, 0
7, 45810, Note_on_c, 5, 78, 100
7, 45840, Note_on_c, 5, 78, 0
7, 45840, Note_on_c, 5, 74, 100
7, 46200, Note_on_c, 5, 74, 0
7, 46560, End_track
8, 0, Start_track
8, 0, MIDI_port, 0
8, 0, Title_t, "Violin II"
8, 0, Program_c, 6, 48
8, 120, Control_c, 6, 7, 100
8, 180, Note_on_c, 6, 62, 64
8, 221, Note_on_c, 6, 62, 0
8, 240, Note_on_c, 6, 62, 64
8, 281, Note_on_c, 6, 62, 0
8, 300, Note_on_c, 6, 62, 64
8, 341, Note_on_c, 6, 62, 0
8, 360, Note_on_c, 6, 62, 64
8, 401, Note_on_c, 6, 62, 0
8, 420, Note_on_c, 6, 62, 64
8, 461, Note_on_c, 6, 62, 0
8, 480, Note_on_c, 6, 62, 64
8, 521, Note_on_c, 6, 62, 0
8, 540, Note_on_c, 6, 81, 64
8, 570, Note_on_c, 6, 81, 0
8, 570, Note_on_c, 6, 78, 64
8, 600, Note_on_c, 6, 78, 0
8, 600, Note_on_c, 6, 78, 64
8, 630, Note_on_c, 6, 78, 0
8, 630, Note_on_c, 6, 74, 64
8, 660, Note_on_c, 6, 74, 0
8, 660, Note_on_c, 6, 74, 64
8, 690, Note_on_c, 6, 74, 0
8, 690, Note_on_c, 6, 69, 64
8, 720, Note_on_c, 6, 69, 0
8, 720, Note_on_c, 6, 69, 64
8, 750, Note_on_c, 6, 69, 0
8, 750, Note_on_c, 6, 66, 64
8, 780, Note_on_c, 6, 66, 0
8, 780, Note_on_c, 6, 66, 64
8, 810, Note_on_c, 6, 66, 0
8, 810, Note_on_c, 6, 66, 64
8, 840, Note_on_c, 6, 66, 0
8, 840, Note_on_c, 6, 69, 64
8, 881, Note_on_c, 6, 69, 0
8, 900, Note_on_c, 6, 57, 64
8, 941, Note_on_c, 6, 57, 0
8, 960, Note_on_c, 6, 57, 64
8, 1001, Note_on_c, 6, 57, 0
8, 1020, Note_on_c, 6, 57, 64
8, 1061, Note_on_c, 6, 57, 0
8, 1080, Note_on_c, 6, 57, 64
8, 1121, Note_on_c, 6, 57, 0
8, 1140, Note_on_c, 6, 57, 64
8, 1181, Note_on_c, 6, 57, 0
8, 1200, Note_on_c, 6, 57, 64
8, 1241, Note_on_c, 6, 57, 0
8, 1260, Note_on_c, 6, 79, 64
8, 1290, Note_on_c, 6, 79, 0
8, 1290, Note_on_c, 6, 76, 64
8, 1320, Note_on_c, 6, 76, 0
8, 1320, Note_on_c, 6, 76, 64
8, 1350, Note_on_c, 6, 76, 0
8, 1350, Note_on_c, 6, 73, 64
8, 1380, Note_on_c, 6, 73, 0
8, 1380, Note_on_c, 6, 73, 64
8, 1410, Note_on_c, 6, 73, 0
8, 1410, Note_on_c, 6, 69, 64
8, 1440, Note_on_c, 6, 69, 0
8, 1440, Note_on_c, 6, 69, 64
8, 1470, Note_on_c, 6, 69, 0
8, 1470, Note_on_c, 6, 67, 64
8, 1500, Note_on_c, 6, 67, 0
8, 1500, Note_on_c, 6, 67, 64
8, 1530, Note_on_c, 6, 67, 0
8, 1530, Note_on_c, 6, 67, 64
8, 1560, Note_on_c, 6, 67, 0
8, 1560, Note_on_c, 6, 66, 64
8, 1680, Note_on_c, 6, 66, 0
8, 1740, Note_on_c, 6, 69, 64
8, 1781, Note_on_c, 6, 69, 0
8, 1800, Note_on_c, 6, 74, 64
8, 1841, Note_on_c, 6, 74, 0
8, 1860, Note_on_c, 6, 74, 64
8, 1901, Note_on_c, 6, 74, 0
8, 1920, Note_on_c, 6, 78, 64
8, 1961, Note_on_c, 6, 78, 0
8, 1980, Note_on_c, 6, 71, 64
8, 2021, Note_on_c, 6, 71, 0
8, 2100, Note_on_c, 6, 66, 64
8, 2141, Note_on_c, 6, 66, 0
8, 2160, Note_on_c, 6, 71, 64
8, 2201, Note_on_c, 6, 71, 0
8, 2220, Note_on_c, 6, 71, 64
8, 2261, Note_on_c, 6, 71, 0
8, 2280, Note_on_c, 6, 74, 64
8, 2321, Note_on_c, 6, 74, 0
8, 2340, Note_on_c, 6, 66, 64
8, 2381, Note_on_c, 6, 66, 0
8, 2400, Note_on_c, 6, 69, 64
8, 2441, Note_on_c, 6, 69, 0
8, 2460, Note_on_c, 6, 74, 64
8, 2501, Note_on_c, 6, 74, 0
8, 2520, Note_on_c, 6, 69, 64
8, 2561, Note_on_c, 6, 69, 0
8, 2580, Note_on_c, 6, 66, 64
8, 2621, Note_on_c, 6, 66, 0
8, 2700, Note_on_c, 6, 64, 64
8, 2741, Note_on_c, 6, 64, 0
8, 2760, Note_on_c, 6, 71, 64
8, 2801, Note_on_c, 6, 71, 0
8, 2820, Note_on_c, 6, 71, 64
8, 2861, Note_on_c, 6, 71, 0
8, 2880, Note_on_c, 6, 71, 64
8, 2921, Note_on_c, 6, 71, 0
8, 2940, Note_on_c, 6, 64, 64
8, 2981, Note_on_c, 6, 64, 0
8, 3000, Note_on_c, 6, 64, 64
8, 3041, Note_on_c, 6, 64, 0
8, 3420, Note_on_c, 6, 76, 64
8, 3450, Note_on_c, 6, 76, 0
8, 3450, Note_on_c, 6, 73, 64
8, 3480, Note_on_c, 6, 73, 0
8, 3480, Note_on_c, 6, 73, 64
8, 3510, Note_on_c, 6, 73, 0
8, 3510, Note_on_c, 6, 69, 64
8, 3540, Note_on_c, 6, 69, 0
8, 3540, Note_on_c, 6, 69, 64
8, 3570, Note_on_c, 6, 69, 0
8, 3570, Note_on_c, 6, 64, 64
8, 3600, Note_on_c, 6, 64, 0
8, 3600, Note_on_c, 6, 64, 64
8, 3630, Note_on_c, 6, 64, 0
8, 3630, Note_on_c, 6, 61, 64
8, 3660, Note_on_c, 6, 61, 0
8, 3660, Note_on_c, 6, 61, 64
8, 3690, Note_on_c, 6, 61, 0
8, 3690, Note_on_c, 6, 61, 64
8, 3720, Note_on_c, 6, 61, 0
8, 3720, Note_on_c, 6, 64, 64
8, 3761, Note_on_c, 6, 64, 0
8, 3780, Note_on_c, 6, 71, 64
8, 3810, Note_on_c, 6, 71, 0
8, 3810, Note_on_c, 6, 69, 64
8, 3840, Note_on_c, 6, 69, 0
8, 3840, Note_on_c, 6, 68, 64
8, 3870, Note_on_c, 6, 68, 0
8, 3870, Note_on_c, 6, 66, 64
8, 3900, Note_on_c, 6, 66, 0
8, 3900, Note_on_c, 6, 64, 64
8, 3930, Note_on_c, 6, 64, 0
8, 3930, Note_on_c, 6, 63, 64
8, 3960, Note_on_c, 6, 63, 0
8, 3960, Note_on_c, 6, 64, 64
8, 3990, Note_on_c, 6, 64, 0
8, 3990, Note_on_c, 6, 66, 64
8, 4020, Note_on_c, 6, 66, 0
8, 4020, Note_on_c, 6, 68, 64
8, 4050, Note_on_c, 6, 68, 0
8, 4050, Note_on_c, 6, 69, 64
8, 4080, Note_on_c, 6, 69, 0
8, 4080, Note_on_c, 6, 68, 64
8, 4121, Note_on_c, 6, 68, 0
8, 4140, Note_on_c, 6, 74, 64
8, 4170, Note_on_c, 6, 74, 0
8, 4170, Note_on_c, 6, 71, 64
8, 4200, Note_on_c, 6, 71, 0
8, 4200, Note_on_c, 6, 71, 64
8, 4230, Note_on_c, 6, 71, 0
8, 4230, Note_on_c, 6, 68, 64
8, 4260, Note_on_c, 6, 68, 0
8, 4260, Note_on_c, 6, 68, 64
8, 4290, Note_on_c, 6, 68, 0
8, 4290, Note_on_c, 6, 64, 64
8, 4320, Note_on_c, 6, 64, 0
8, 4320, Note_on_c, 6, 64, 64
8, 4350, Note_on_c, 6, 64, 0
8, 4350, Note_on_c, 6, 59, 64
8, 4380, Note_on_c, 6, 59, 0
8, 4380, Note_on_c, 6, 59, 64
8, 4410, Note_on_c, 6, 59, 0
8, 4410, Note_on_c, 6, 59, 64
8, 4440, Note_on_c, 6, 59, 0
8, 4440, Note_on_c, 6, 57, 64
8, 4481, Note_on_c, 6, 57, 0
8, 4500, Note_on_c, 6, 69, 64
8, 4541, Note_on_c, 6, 69, 0
8, 4560, Note_on_c, 6, 73, 64
8, 4601, Note_on_c, 6, 73, 0
8, 4620, Note_on_c, 6, 76, 64
8, 4661, Note_on_c, 6, 76, 0
8, 4680, Note_on_c, 6, 73, 64
8, 4721, Note_on_c, 6, 73, 0
8, 4740, Note_on_c, 6, 69, 64
8, 4781, Note_on_c, 6, 69, 0
8, 4860, Note_on_c, 6, 66, 64
8, 4901, Note_on_c, 6, 66, 0
8, 4920, Note_on_c, 6, 69, 64
8, 4961, Note_on_c, 6, 69, 0
8, 4980, Note_on_c, 6, 73, 64
8, 5021, Note_on_c, 6, 73, 0
8, 5040, Note_on_c, 6, 69, 64
8, 5081, Note_on_c, 6, 69, 0
8, 5100, Note_on_c, 6, 66, 64
8, 5141, Note_on_c, 6, 66, 0
8, 5160, Note_on_c, 6, 73, 64
8, 5201, Note_on_c, 6, 73, 0
8, 5220, Note_on_c, 6, 64, 64
8, 5340, Note_on_c, 6, 64, 0
8, 5340, Note_on_c, 6, 66, 64
8, 5370, Note_on_c, 6, 66, 0
8, 5370, Note_on_c, 6, 68, 64
8, 5400, Note_on_c, 6, 68, 0
8, 5400, Note_on_c, 6, 69, 64
8, 5430, Note_on_c, 6, 69, 0
8, 5430, Note_on_c, 6, 71, 64
8, 5460, Note_on_c, 6, 71, 0
8, 5460, Note_on_c, 6, 73, 64
8, 5490, Note_on_c, 6, 73, 0
8, 5490, Note_on_c, 6, 69, 64
8, 5520, Note_on_c, 6, 69, 0
8, 5520, Note_on_c, 6, 66, 64
8, 5670, Note_on_c, 6, 66, 0
8, 5670, Note_on_c, 6, 64, 64
8, 5700, Note_on_c, 6, 64, 0
8, 5700, Note_on_c, 6, 63, 64
8, 5730, Note_on_c, 6, 63, 0
8, 5730, Note_on_c, 6, 64, 64
8, 5760, Note_on_c, 6, 64, 0
8, 5760, Note_on_c, 6, 66, 64
8, 5790, Note_on_c, 6, 66, 0
8, 5790, Note_on_c, 6, 68, 64
8, 5820, Note_on_c, 6, 68, 0
8, 5820, Note_on_c, 6, 69, 64
8, 5850, Note_on_c, 6, 69, 0
8, 5850, Note_on_c, 6, 66, 64
8, 5880, Note_on_c, 6, 66, 0
8, 5880, Note_on_c, 6, 68, 40
8, 5921, Note_on_c, 6, 68, 0
8, 5940, Note_on_c, 6, 64, 41
8, 5981, Note_on_c, 6, 64, 0
8, 6000, Note_on_c, 6, 64, 42
8, 6041, Note_on_c, 6, 64, 0
8, 6060, Note_on_c, 6, 64, 43
8, 6101, Note_on_c, 6, 64, 0
8, 6120, Note_on_c, 6, 64, 44
8, 6161, Note_on_c, 6, 64, 0
8, 6180, Note_on_c, 6, 64, 45
8, 6221, Note_on_c, 6, 64, 0
8, 6240, Note_on_c, 6, 61, 46
8, 6360, Note_on_c, 6, 61, 0
8, 6660, Note_on_c, 6, 61, 53
8, 6701, Note_on_c, 6, 61, 0
8, 6720, Note_on_c, 6, 61, 54
8, 6761, Note_on_c, 6, 61, 0
8, 6780, Note_on_c, 6, 61, 55
8, 6821, Note_on_c, 6, 61, 0
8, 6840, Note_on_c, 6, 61, 56
8, 6881, Note_on_c, 6, 61, 0
8, 6900, Note_on_c, 6, 61, 57
8, 6941, Note_on_c, 6, 61, 0
8, 6960, Note_on_c, 6, 57, 58
8, 7001, Note_on_c, 6, 57, 0
8, 7020, Note_on_c, 6, 57, 59
8, 7061, Note_on_c, 6, 57, 0
8, 7080, Note_on_c, 6, 61, 60
8, 7121, Note_on_c, 6, 61, 0
8, 7140, Note_on_c, 6, 64, 61
8, 7181, Note_on_c, 6, 64, 0
8, 7200, Note_on_c, 6, 61, 62
8, 7241, Note_on_c, 6, 61, 0
8, 7260, Note_on_c, 6, 57, 63
8, 7301, Note_on_c, 6, 57, 0
8, 7320, Note_on_c, 6, 69, 50
8, 7361, Note_on_c, 6, 69, 0
8, 7380, Note_on_c, 6, 57, 51
8, 7421, Note_on_c, 6, 57, 0
8, 7440, Note_on_c, 6, 62, 52
8, 7481, Note_on_c, 6, 62, 0
8, 7500, Note_on_c, 6, 66, 53
8, 7541, Note_on_c, 6, 66, 0
8, 7560, Note_on_c, 6, 64, 53
8, 7601, Note_on_c, 6, 64, 0
8, 7620, Note_on_c, 6, 62, 54
8, 7721, Note_on_c, 6, 62, 0
8, 7740, Note_on_c, 6, 59, 56
8, 7781, Note_on_c, 6, 59, 0
8, 7800, Note_on_c, 6, 64, 57
8, 7841, Note_on_c, 6, 64, 0
8, 7860, Note_on_c, 6, 68, 58
8, 7901, Note_on_c, 6, 68, 0
8, 7920, Note_on_c, 6, 66, 58
8, 7961, Note_on_c, 6, 66, 0
8, 7980, Note_on_c, 6, 64, 59
8, 8081, Note_on_c, 6, 64, 0
8, 8100, Note_on_c, 6, 61, 61
8, 8141, Note_on_c, 6, 61, 0
8, 8160, Note_on_c, 6, 66, 62
8, 8201, Note_on_c, 6, 66, 0
8, 8220, Note_on_c, 6, 69, 63
8, 8261, Note_on_c, 6, 69, 0
8, 8280, Note_on_c, 6, 68, 63
8, 8321, Note_on_c, 6, 68, 0
8, 8340, Note_on_c, 6, 66, 64
8, 8441, Note_on_c, 6, 66, 0
8, 8460, Note_on_c, 6, 64, 66
8, 8501, Note_on_c, 6, 64, 0
8, 8520, Note_on_c, 6, 68, 67
8, 8561, Note_on_c, 6, 68, 0
8, 8580, Note_on_c, 6, 71, 68
8, 8621, Note_on_c, 6, 71, 0
8, 8640, Note_on_c, 6, 69, 68
8, 8681, Note_on_c, 6, 69, 0
8, 8700, Note_on_c, 6, 64, 69
8, 8741, Note_on_c, 6, 64, 0
8, 8760, Note_on_c, 6, 69, 64
8, 8801, Note_on_c, 6, 69, 0
8, 8820, Note_on_c, 6, 76, 64
8, 8850, Note_on_c, 6, 76, 0
8, 8850, Note_on_c, 6, 73, 64
8, 8880, Note_on_c, 6, 73, 0
8, 8880, Note_on_c, 6, 73, 64
8, 8910, Note_on_c, 6, 73, 0
8, 8910, Note_on_c, 6, 69, 64
8, 8940, Note_on_c, 6, 69, 0
8, 8940, Note_on_c, 6, 69, 64
8, 8970, Note_on_c, 6, 69, 0
8, 8970, Note_on_c, 6, 64, 64
8, 9000, Note_on_c, 6, 64, 0
8, 9000, Note_on_c, 6, 64, 64
8, 9030, Note_on_c, 6, 64, 0
8, 9030, Note_on_c, 6, 61, 64
8, 9060, Note_on_c, 6, 61, 0
8, 9060, Note_on_c, 6, 61, 64
8, 9090, Note_on_c, 6, 61, 0
8, 9090, Note_on_c, 6, 57, 64
8, 9120, Note_on_c, 6, 57, 0
8, 9120, Note_on_c, 6, 57, 64
8, 9161, Note_on_c, 6, 57, 0
8, 9180, Note_on_c, 6, 76, 64
8, 9210, Note_on_c, 6, 76, 0
8, 9210, Note_on_c, 6, 73, 64
8, 9240, Note_on_c, 6, 73, 0
8, 9240, Note_on_c, 6, 73, 64
8, 9270, Note_on_c, 6, 73, 0
8, 9270, Note_on_c, 6, 69, 64
8, 9300, Note_on_c, 6, 69, 0
8, 9300, Note_on_c, 6, 69, 64
8, 9330, Note_on_c, 6, 69, 0
8, 9330, Note_on_c, 6, 64, 64
8, 9360, Note_on_c, 6, 64, 0
8, 9360, Note_on_c, 6, 64, 64
8, 9390, Note_on_c, 6, 64, 0
8, 9390, Note_on_c, 6, 61, 64
8, 9420, Note_on_c, 6, 61, 0
8, 9420, Note_on_c, 6, 61, 64
8, 9450, Note_on_c, 6, 61, 0
8, 9450, Note_on_c, 6, 57, 64
8, 9480, Note_on_c, 6, 57, 0
8, 9480, Note_on_c, 6, 57, 64
8, 9521, Note_on_c, 6, 57, 0
8, 9540, Note_on_c, 6, 75, 64
8, 9570, Note_on_c, 6, 75, 0
8, 9570, Note_on_c, 6, 72, 64
8, 9600, Note_on_c, 6, 72, 0
8, 9600, Note_on_c, 6, 72, 64
8, 9630, Note_on_c, 6, 72, 0
8, 9630, Note_on_c, 6, 69, 64
8, 9660, Note_on_c, 6, 69, 0
8, 9660, Note_on_c, 6, 69, 64
8, 9690, Note_on_c, 6, 69, 0
8, 9690, Note_on_c, 6, 66, 64
8, 9720, Note_on_c, 6, 66, 0
8, 9720, Note_on_c, 6, 66, 64
8, 9750, Note_on_c, 6, 66, 0
8, 9750, Note_on_c, 6, 63, 64
8, 9780, Note_on_c, 6, 63, 0
8, 9780, Note_on_c, 6, 63, 64
8, 9810, Note_on_c, 6, 63, 0
8, 9810, Note_on_c, 6, 57, 64
8, 9840, Note_on_c, 6, 57, 0
8, 9840, Note_on_c, 6, 57, 64
8, 9881, Note_on_c, 6, 57, 0
8, 9900, Note_on_c, 6, 76, 64
8, 9930, Note_on_c, 6, 76, 0
8, 9930, Note_on_c, 6, 72, 64
8, 9960, Note_on_c, 6, 72, 0
8, 9960, Note_on_c, 6, 72, 64
8, 9990, Note_on_c, 6, 72, 0
8, 9990, Note_on_c, 6, 69, 64
8, 10020, Note_on_c, 6, 69, 0
8, 10020, Note_on_c, 6, 69, 64
8, 10050, Note_on_c, 6, 69, 0
8, 10050, Note_on_c, 6, 64, 64
8, 10080, Note_on_c, 6, 64, 0
8, 10080, Note_on_c, 6, 64, 64
8, 10110, Note_on_c, 6, 64, 0
8, 10110, Note_on_c, 6, 60, 64
8, 10140, Note_on_c, 6, 60, 0
8, 10140, Note_on_c, 6, 60, 64
8, 10170, Note_on_c, 6, 60, 0
8, 10170, Note_on_c, 6, 57, 64
8, 10200, Note_on_c, 6, 57, 0
8, 10200, Note_on_c, 6, 57, 64
8, 10241, Note_on_c, 6, 57, 0
8, 10260, Note_on_c, 6, 78, 64
8, 10290, Note_on_c, 6, 78, 0
8, 10290, Note_on_c, 6, 72, 64
8, 10320, Note_on_c, 6, 72, 0
8, 10320, Note_on_c, 6, 72, 64
8, 10350, Note_on_c, 6, 72, 0
8, 10350, Note_on_c, 6, 69, 64
8, 10380, Note_on_c, 6, 69, 0
8, 10380, Note_on_c, 6, 69, 64
8, 10410, Note_on_c, 6, 69, 0
8, 10410, Note_on_c, 6, 66, 64
8, 10440, Note_on_c, 6, 66, 0
8, 10440, Note_on_c, 6, 66, 64
8, 10470, Note_on_c, 6, 66, 0
8, 10470, Note_on_c, 6, 57, 64
8, 10500, Note_on_c, 6, 57, 0
8, 10500, Note_on_c, 6, 57, 64
8, 10530, Note_on_c, 6, 57, 0
8, 10530, Note_on_c, 6, 56, 64
8, 10560, Note_on_c, 6, 56, 0
8, 10560, Note_on_c, 6, 56, 64
8, 10601, Note_on_c, 6, 56, 0
8, 10620, Note_on_c, 6, 80, 64
8, 10650, Note_on_c, 6, 80, 0
8, 10650, Note_on_c, 6, 76, 64
8, 10680, Note_on_c, 6, 76, 0
8, 10680, Note_on_c, 6, 76, 64
8, 10710, Note_on_c, 6, 76, 0
8, 10710, Note_on_c, 6, 71, 64
8, 10740, Note_on_c, 6, 71, 0
8, 10740, Note_on_c, 6, 71, 64
8, 10770, Note_on_c, 6, 71, 0
8, 10770, Note_on_c, 6, 68, 64
8, 10800, Note_on_c, 6, 68, 0
8, 10800, Note_on_c, 6, 68, 64
8, 10830, Note_on_c, 6, 68, 0
8, 10830, Note_on_c, 6, 64, 64
8, 10860, Note_on_c, 6, 64, 0
8, 10860, Note_on_c, 6, 64, 64
8, 10890, Note_on_c, 6, 64, 0
8, 10890, Note_on_c, 6, 57, 64
8, 10920, Note_on_c, 6, 57, 0
8, 10920, Note_on_c, 6, 57, 64
8, 10961, Note_on_c, 6, 57, 0
8, 10980, Note_on_c, 6, 61, 64
8, 11021, Note_on_c, 6, 61, 0
8, 11040, Note_on_c, 6, 64, 64
8, 11081, Note_on_c, 6, 64, 0
8, 11100, Note_on_c, 6, 69, 64
8, 11130, Note_on_c, 6, 69, 0
8, 11130, Note_on_c, 6, 68, 64
8, 11160, Note_on_c, 6, 68, 0
8, 11160, Note_on_c, 6, 69, 64
8, 11201, Note_on_c, 6, 69, 0
8, 11220, Note_on_c, 6, 61, 64
8, 11261, Note_on_c, 6, 61, 0
8, 11280, Note_on_c, 6, 62, 64
8, 11321, Note_on_c, 6, 62, 0
8, 11340, Note_on_c, 6, 59, 64
8, 11381, Note_on_c, 6, 59, 0
8, 11400, Note_on_c, 6, 62, 64
8, 11441, Note_on_c, 6, 62, 0
8, 11460, Note_on_c, 6, 68, 64
8, 11490, Note_on_c, 6, 68, 0
8, 11490, Note_on_c, 6, 66, 64
8, 11520, Note_on_c, 6, 66, 0
8, 11520, Note_on_c, 6, 68, 64
8, 11561, Note_on_c, 6, 68, 0
8, 11580, Note_on_c, 6, 59, 64
8, 11621, Note_on_c, 6, 59, 0
8, 11640, Note_on_c, 6, 61, 64
8, 11681, Note_on_c, 6, 61, 0
8, 11700, Note_on_c, 6, 57, 64
8, 11741, Note_on_c, 6, 57, 0
8, 11760, Note_on_c, 6, 61, 64
8, 11801, Note_on_c, 6, 61, 0
8, 11820, Note_on_c, 6, 66, 64
8, 11850, Note_on_c, 6, 66, 0
8, 11850, Note_on_c, 6, 64, 64
8, 11880, Note_on_c, 6, 64, 0
8, 11880, Note_on_c, 6, 66, 64
8, 11921, Note_on_c, 6, 66, 0
8, 11940, Note_on_c, 6, 57, 64
8, 11981, Note_on_c, 6, 57, 0
8, 12000, Note_on_c, 6, 59, 64
8, 12041, Note_on_c, 6, 59, 0
8, 12060, Note_on_c, 6, 66, 64
8, 12101, Note_on_c, 6, 66, 0
8, 12120, Note_on_c, 6, 66, 64
8, 12161, Note_on_c, 6, 66, 0
8, 12180, Note_on_c, 6, 66, 64
8, 12221, Note_on_c, 6, 66, 0
8, 12240, Note_on_c, 6, 66, 64
8, 12281, Note_on_c, 6, 66, 0
8, 12300, Note_on_c, 6, 66, 64
8, 12341, Note_on_c, 6, 66, 0
8, 12360, Note_on_c, 6, 59, 64
8, 12480, Note_on_c, 6, 59, 0
8, 12540, Note_on_c, 6, 68, 68
8, 12581, Note_on_c, 6, 68, 0
8, 12600, Note_on_c, 6, 69, 69
8, 12641, Note_on_c, 6, 69, 0
8, 12660, Note_on_c, 6, 71, 71
8, 12701, Note_on_c, 6, 71, 0
8, 12720, Note_on_c, 6, 66, 72
8, 12761, Note_on_c, 6, 66, 0
8, 12780, Note_on_c, 6, 66, 73
8, 12821, Note_on_c, 6, 66, 0
8, 12840, Note_on_c, 6, 64, 75
8, 12881, Note_on_c, 6, 64, 0
8, 12900, Note_on_c, 6, 69, 76
8, 12941, Note_on_c, 6, 69, 0
8, 12960, Note_on_c, 6, 69, 77
8, 13001, Note_on_c, 6, 69, 0
8, 13020, Note_on_c, 6, 68, 79
8, 13061, Note_on_c, 6, 68, 0
8, 13080, Note_on_c, 6, 64, 80
8, 13200, Note_on_c, 6, 64, 0
8, 22860, Note_on_c, 6, 59, 64
8, 22901, Note_on_c, 6, 59, 0
8, 22920, Note_on_c, 6, 59, 64
8, 22961, Note_on_c, 6, 59, 0
8, 22980, Note_on_c, 6, 59, 64
8, 23021, Note_on_c, 6, 59, 0
8, 23040, Note_on_c, 6, 59, 64
8, 23081, Note_on_c, 6, 59, 0
8, 23100, Note_on_c, 6, 59, 64
8, 23141, Note_on_c, 6, 59, 0
8, 23160, Note_on_c, 6, 59, 64
8, 23201, Note_on_c, 6, 59, 0
8, 23220, Note_on_c, 6, 78, 64
8, 23250, Note_on_c, 6, 78, 0
8, 23250, Note_on_c, 6, 74, 64
8, 23280, Note_on_c, 6, 74, 0
8, 23280, Note_on_c, 6, 74, 64
8, 23310, Note_on_c, 6, 74, 0
8, 23310, Note_on_c, 6, 71, 64
8, 23340, Note_on_c, 6, 71, 0
8, 23340, Note_on_c, 6, 71, 64
8, 23370, Note_on_c, 6, 71, 0
8, 23370, Note_on_c, 6, 66, 64
8, 23400, Note_on_c, 6, 66, 0
8, 23400, Note_on_c, 6, 66, 64
8, 23430, Note_on_c, 6, 66, 0
8, 23430, Note_on_c, 6, 70, 64
8, 23460, Note_on_c, 6, 70, 0
8, 23460, Note_on_c, 6, 70, 64
8, 23490, Note_on_c, 6, 70, 0
8, 23490, Note_on_c, 6, 71, 64
8, 23520, Note_on_c, 6, 71, 0
8, 23520, Note_on_c, 6, 66, 64
8, 23561, Note_on_c, 6, 66, 0
8, 23580, Note_on_c, 6, 64, 64
8, 23700, Note_on_c, 6, 64, 0
8, 23700, Note_on_c, 6, 62, 64
8, 23730, Note_on_c, 6, 62, 0
8, 23730, Note_on_c, 6, 61, 64
8, 23760, Note_on_c, 6, 61, 0
8, 23760, Note_on_c, 6, 62, 64
8, 23850, Note_on_c, 6, 62, 0
8, 23850, Note_on_c, 6, 64, 64
8, 23865, Note_on_c, 6, 64, 0
8, 23865, Note_on_c, 6, 66, 64
8, 23880, Note_on_c, 6, 66, 0
8, 23880, Note_on_c, 6, 64, 64
8, 23921, Note_on_c, 6, 64, 0
8, 23940, Note_on_c, 6, 82, 64
8, 23970, Note_on_c, 6, 82, 0
8, 23970, Note_on_c, 6, 76, 64
8, 24000, Note_on_c, 6, 76, 0
8, 24000, Note_on_c, 6, 76, 64
8, 24030, Note_on_c, 6, 76, 0
8, 24030, Note_on_c, 6, 73, 64
8, 24060, Note_on_c, 6, 73, 0
8, 24060, Note_on_c, 6, 73, 64
8, 24090, Note_on_c, 6, 73, 0
8, 24090, Note_on_c, 6, 70, 64
8, 24120, Note_on_c, 6, 70, 0
8, 24120, Note_on_c, 6, 70, 64
8, 24150, Note_on_c, 6, 70, 0
8, 24150, Note_on_c, 6, 71, 64
8, 24180, Note_on_c, 6, 71, 0
8, 24180, Note_on_c, 6, 71, 64
8, 24210, Note_on_c, 6, 71, 0
8, 24210, Note_on_c, 6, 73, 64
8, 24240, Note_on_c, 6, 73, 0
8, 24240, Note_on_c, 6, 71, 64
8, 24360, Note_on_c, 6, 71, 0
8, 24660, Note_on_c, 6, 71, 64
8, 24690, Note_on_c, 6, 71, 0
8, 24690, Note_on_c, 6, 68, 64
8, 24720, Note_on_c, 6, 68, 0
8, 24720, Note_on_c, 6, 68, 64
8, 24750, Note_on_c, 6, 68, 0
8, 24750, Note_on_c, 6, 64, 64
8, 24780, Note_on_c, 6, 64, 0
8, 24780, Note_on_c, 6, 64, 64
8, 24810, Note_on_c, 6, 64, 0
8, 24810, Note_on_c, 6, 59, 64
8, 24840, Note_on_c, 6, 59, 0
8, 24840, Note_on_c, 6, 59, 64
8, 24870, Note_on_c, 6, 59, 0
8, 24870, Note_on_c, 6, 59, 64
8, 24900, Note_on_c, 6, 59, 0
8, 24900, Note_on_c, 6, 59, 64
8, 24930, Note_on_c, 6, 59, 0
8, 24930, Note_on_c, 6, 59, 64
8, 24960, Note_on_c, 6, 59, 0
8, 24960, Note_on_c, 6, 57, 64
8, 25080, Note_on_c, 6, 57, 0
8, 25140, Note_on_c, 6, 64, 64
8, 25181, Note_on_c, 6, 64, 0
8, 25200, Note_on_c, 6, 69, 64
8, 25241, Note_on_c, 6, 69, 0
8, 25260, Note_on_c, 6, 69, 64
8, 25301, Note_on_c, 6, 69, 0
8, 25320, Note_on_c, 6, 73, 64
8, 25361, Note_on_c, 6, 73, 0
8, 25380, Note_on_c, 6, 66, 64
8, 25421, Note_on_c, 6, 66, 0
8, 25500, Note_on_c, 6, 61, 64
8, 25541, Note_on_c, 6, 61, 0
8, 25560, Note_on_c, 6, 66, 64
8, 25601, Note_on_c, 6, 66, 0
8, 25620, Note_on_c, 6, 66, 64
8, 25661, Note_on_c, 6, 66, 0
8, 25680, Note_on_c, 6, 69, 64
8, 25721, Note_on_c, 6, 69, 0
8, 25740, Note_on_c, 6, 59, 64
8, 25781, Note_on_c, 6, 59, 0
8, 25800, Note_on_c, 6, 59, 64
8, 25841, Note_on_c, 6, 59, 0
8, 25860, Note_on_c, 6, 66, 64
8, 25901, Note_on_c, 6, 66, 0
8, 25920, Note_on_c, 6, 66, 64
8, 25961, Note_on_c, 6, 66, 0
8, 25980, Note_on_c, 6, 59, 64
8, 26021, Note_on_c, 6, 59, 0
8, 26100, Note_on_c, 6, 56, 64
8, 26141, Note_on_c, 6, 56, 0
8, 26160, Note_on_c, 6, 61, 64
8, 26201, Note_on_c, 6, 61, 0
8, 26220, Note_on_c, 6, 65, 64
8, 26261, Note_on_c, 6, 65, 0
8, 26280, Note_on_c, 6, 68, 64
8, 26321, Note_on_c, 6, 68, 0
8, 26340, Note_on_c, 6, 65, 64
8, 26381, Note_on_c, 6, 65, 0
8, 26400, Note_on_c, 6, 61, 64
8, 26441, Note_on_c, 6, 61, 0
8, 26460, Note_on_c, 6, 85, 64
8, 26490, Note_on_c, 6, 85, 0
8, 26490, Note_on_c, 6, 81, 64
8, 26520, Note_on_c, 6, 81, 0
8, 26520, Note_on_c, 6, 81, 64
8, 26550, Note_on_c, 6, 81, 0
8, 26550, Note_on_c, 6, 78, 64
8, 26580, Note_on_c, 6, 78, 0
8, 26580, Note_on_c, 6, 78, 64
8, 26610, Note_on_c, 6, 78, 0
8, 26610, Note_on_c, 6, 73, 64
8, 26640, Note_on_c, 6, 73, 0
8, 26640, Note_on_c, 6, 73, 64
8, 26670, Note_on_c, 6, 73, 0
8, 26670, Note_on_c, 6, 69, 64
8, 26700, Note_on_c, 6, 69, 0
8, 26700, Note_on_c, 6, 69, 64
8, 26730, Note_on_c, 6, 69, 0
8, 26730, Note_on_c, 6, 66, 64
8, 26760, Note_on_c, 6, 66, 0
8, 26760, Note_on_c, 6, 66, 64
8, 26801, Note_on_c, 6, 66, 0
8, 26820, Note_on_c, 6, 85, 64
8, 26850, Note_on_c, 6, 85, 0
8, 26850, Note_on_c, 6, 81, 64
8, 26880, Note_on_c, 6, 81, 0
8, 26880, Note_on_c, 6, 81, 64
8, 26910, Note_on_c, 6, 81, 0
8, 26910, Note_on_c, 6, 78, 64
8, 26940, Note_on_c, 6, 78, 0
8, 26940, Note_on_c, 6, 78, 64
8, 26970, Note_on_c, 6, 78, 0
8, 26970, Note_on_c, 6, 73, 64
8, 27000, Note_on_c, 6, 73, 0
8, 27000, Note_on_c, 6, 73, 64
8, 27030, Note_on_c, 6, 73, 0
8, 27030, Note_on_c, 6, 69, 64
8, 27060, Note_on_c, 6, 69, 0
8, 27060, Note_on_c, 6, 69, 64
8, 27090, Note_on_c, 6, 69, 0
8, 27090, Note_on_c, 6, 66, 64
8, 27120, Note_on_c, 6, 66, 0
8, 27120, Note_on_c, 6, 66, 64
8, 27161, Note_on_c, 6, 66, 0
8, 27180, Note_on_c, 6, 84, 64
8, 27210, Note_on_c, 6, 84, 0
8, 27210, Note_on_c, 6, 81, 64
8, 27240, Note_on_c, 6, 81, 0
8, 27240, Note_on_c, 6, 81, 64
8, 27270, Note_on_c, 6, 81, 0
8, 27270, Note_on_c, 6, 78, 64
8, 27300, Note_on_c, 6, 78, 0
8, 27300, Note_on_c, 6, 78, 64
8, 27330, Note_on_c, 6, 78, 0
8, 27330, Note_on_c, 6, 75, 64
8, 27360, Note_on_c, 6, 75, 0
8, 27360, Note_on_c, 6, 75, 64
8, 27390, Note_on_c, 6, 75, 0
8, 27390, Note_on_c, 6, 72, 64
8, 27420, Note_on_c, 6, 72, 0
8, 27420, Note_on_c, 6, 72, 64
8, 27450, Note_on_c, 6, 72, 0
8, 27450, Note_on_c, 6, 66, 64
8, 27480, Note_on_c, 6, 66, 0
8, 27480, Note_on_c, 6, 66, 64
8, 27521, Note_on_c, 6, 66, 0
8, 27540, Note_on_c, 6, 85, 64
8, 27570, Note_on_c, 6, 85, 0
8, 27570, Note_on_c, 6, 81, 64
8, 27600, Note_on_c, 6, 81, 0
8, 27600, Note_on_c, 6, 81, 64
8, 27630, Note_on_c, 6, 81, 0
8, 27630, Note_on_c, 6, 78, 64
8, 27660, Note_on_c, 6, 78, 0
8, 27660, Note_on_c, 6, 78, 64
8, 27690, Note_on_c, 6, 78, 0
8, 27690, Note_on_c, 6, 73, 64
8, 27720, Note_on_c, 6, 73, 0
8, 27720, Note_on_c, 6, 73, 64
8, 27750, Note_on_c, 6, 73, 0
8, 27750, Note_on_c, 6, 69, 64
8, 27780, Note_on_c, 6, 69, 0
8, 27780, Note_on_c, 6, 69, 64
8, 27810, Note_on_c, 6, 69, 0
8, 27810, Note_on_c, 6, 66, 64
8, 27840, Note_on_c, 6, 66, 0
8, 27840, Note_on_c, 6, 66, 64
8, 27881, Note_on_c, 6, 66, 0
8, 27900, Note_on_c, 6, 75, 64
8, 27930, Note_on_c, 6, 75, 0
8, 27930, Note_on_c, 6, 69, 64
8, 27960, Note_on_c, 6, 69, 0
8, 27960, Note_on_c, 6, 69, 64
8, 27990, Note_on_c, 6, 69, 0
8, 27990, Note_on_c, 6, 66, 64
8, 28020, Note_on_c, 6, 66, 0
8, 28020, Note_on_c, 6, 66, 64
8, 28050, Note_on_c, 6, 66, 0
8, 28050, Note_on_c, 6, 63, 64
8, 28080, Note_on_c, 6, 63, 0
8, 28080, Note_on_c, 6, 63, 64
8, 28110, Note_on_c, 6, 63, 0
8, 28110, Note_on_c, 6, 66, 64
8, 28140, Note_on_c, 6, 66, 0
8, 28140, Note_on_c, 6, 66, 64
8, 28170, Note_on_c, 6, 66, 0
8, 28170, Note_on_c, 6, 68, 64
8, 28200, Note_on_c, 6, 68, 0
8, 28200, Note_on_c, 6, 68, 64
8, 28241, Note_on_c, 6, 68, 0
8, 28260, Note_on_c, 6, 77, 66
8, 28290, Note_on_c, 6, 77, 0
8, 28290, Note_on_c, 6, 73, 67
8, 28320, Note_on_c, 6, 73, 0
8, 28320, Note_on_c, 6, 73, 67
8, 28350, Note_on_c, 6, 73, 0
8, 28350, Note_on_c, 6, 68, 68
8, 28380, Note_on_c, 6, 68, 0
8, 28380, Note_on_c, 6, 68, 69
8, 28410, Note_on_c, 6, 68, 0
8, 28410, Note_on_c, 6, 65, 70
8, 28440, Note_on_c, 6, 65, 0
8, 28440, Note_on_c, 6, 65, 71
8, 28470, Note_on_c, 6, 65, 0
8, 28470, Note_on_c, 6, 56, 72
8, 28500, Note_on_c, 6, 56, 0
8, 28500, Note_on_c, 6, 56, 72
8, 28530, Note_on_c, 6, 56, 0
8, 28530, Note_on_c, 6, 57, 73
8, 28560, Note_on_c, 6, 57, 0
8, 28560, Note_on_c, 6, 57, 75
8, 28601, Note_on_c, 6, 57, 0
8, 28620, Note_on_c, 6, 73, 76
8, 28650, Note_on_c, 6, 73, 0
8, 28650, Note_on_c, 6, 69, 76
8, 28680, Note_on_c, 6, 69, 0
8, 28680, Note_on_c, 6, 69, 77
8, 28710, Note_on_c, 6, 69, 0
8, 28710, Note_on_c, 6, 66, 77
8, 28740, Note_on_c, 6, 66, 0
8, 28740, Note_on_c, 6, 66, 78
8, 28770, Note_on_c, 6, 66, 0
8, 28770, Note_on_c, 6, 62, 78
8, 28800, Note_on_c, 6, 62, 0
8, 28800, Note_on_c, 6, 62, 78
8, 28830, Note_on_c, 6, 62, 0
8, 28830, Note_on_c, 6, 56, 79
8, 28860, Note_on_c, 6, 56, 0
8, 28860, Note_on_c, 6, 56, 79
8, 28890, Note_on_c, 6, 56, 0
8, 28890, Note_on_c, 6, 61, 80
8, 28920, Note_on_c, 6, 61, 0
8, 28920, Note_on_c, 6, 61, 64
8, 28961, Note_on_c, 6, 61, 0
8, 30540, Note_on_c, 6, 66, 50
8, 30581, Note_on_c, 6, 66, 0
8, 30600, Note_on_c, 6, 71, 50
8, 30641, Note_on_c, 6, 71, 0
8, 30660, Note_on_c, 6, 66, 50
8, 30701, Note_on_c, 6, 66, 0
8, 30720, Note_on_c, 6, 62, 50
8, 30750, Note_on_c, 6, 62, 0
8, 30750, Note_on_c, 6, 61, 50
8, 30780, Note_on_c, 6, 61, 0
8, 30780, Note_on_c, 6, 62, 50
8, 30810, Note_on_c, 6, 62, 0
8, 30810, Note_on_c, 6, 64, 50
8, 30840, Note_on_c, 6, 64, 0
8, 30840, Note_on_c, 6, 66, 50
8, 30881, Note_on_c, 6, 66, 0
8, 30900, Note_on_c, 6, 62, 50
8, 30941, Note_on_c, 6, 62, 0
8, 30960, Note_on_c, 6, 66, 50
8, 31001, Note_on_c, 6, 66, 0
8, 31020, Note_on_c, 6, 62, 50
8, 31061, Note_on_c, 6, 62, 0
8, 31080, Note_on_c, 6, 59, 50
8, 31121, Note_on_c, 6, 59, 0
8, 31140, Note_on_c, 6, 62, 51
8, 31170, Note_on_c, 6, 62, 0
8, 31170, Note_on_c, 6, 61, 51
8, 31200, Note_on_c, 6, 61, 0
8, 31200, Note_on_c, 6, 59, 51
8, 31241, Note_on_c, 6, 59, 0
8, 31260, Note_on_c, 6, 62, 52
8, 31301, Note_on_c, 6, 62, 0
8, 31320, Note_on_c, 6, 64, 52
8, 31361, Note_on_c, 6, 64, 0
8, 31380, Note_on_c, 6, 67, 53
8, 31421, Note_on_c, 6, 67, 0
8, 31440, Note_on_c, 6, 61, 54
8, 31481, Note_on_c, 6, 61, 0
8, 31500, Note_on_c, 6, 64, 54
8, 31530, Note_on_c, 6, 64, 0
8, 31530, Note_on_c, 6, 62, 54
8, 31560, Note_on_c, 6, 62, 0
8, 31560, Note_on_c, 6, 61, 55
8, 31601, Note_on_c, 6, 61, 0
8, 31620, Note_on_c, 6, 64, 55
8, 31661, Note_on_c, 6, 64, 0
8, 31680, Note_on_c, 6, 66, 56
8, 31721, Note_on_c, 6, 66, 0
8, 31740, Note_on_c, 6, 69, 56
8, 31781, Note_on_c, 6, 69, 0
8, 31800, Note_on_c, 6, 63, 57
8, 31841, Note_on_c, 6, 63, 0
8, 31860, Note_on_c, 6, 66, 58
8, 31890, Note_on_c, 6, 66, 0
8, 31890, Note_on_c, 6, 64, 58
8, 31920, Note_on_c, 6, 64, 0
8, 31920, Note_on_c, 6, 63, 58
8, 31961, Note_on_c, 6, 63, 0
8, 31980, Note_on_c, 6, 66, 59
8, 32021, Note_on_c, 6, 66, 0
8, 32040, Note_on_c, 6, 59, 59
8, 32081, Note_on_c, 6, 59, 0
8, 32100, Note_on_c, 6, 71, 60
8, 32141, Note_on_c, 6, 71, 0
8, 32160, Note_on_c, 6, 68, 61
8, 32201, Note_on_c, 6, 68, 0
8, 32220, Note_on_c, 6, 66, 61
8, 32250, Note_on_c, 6, 66, 0
8, 32250, Note_on_c, 6, 68, 61
8, 32280, Note_on_c, 6, 68, 0
8, 32280, Note_on_c, 6, 64, 62
8, 32321, Note_on_c, 6, 64, 0
8, 32340, Note_on_c, 6, 71, 62
8, 32381, Note_on_c, 6, 71, 0
8, 32400, Note_on_c, 6, 68, 63
8, 32441, Note_on_c, 6, 68, 0
8, 32460, Note_on_c, 6, 71, 63
8, 32501, Note_on_c, 6, 71, 0
8, 32520, Note_on_c, 6, 64, 64
8, 32550, Note_on_c, 6, 64, 0
8, 32550, Note_on_c, 6, 62, 64
8, 32580, Note_on_c, 6, 62, 0
8, 32580, Note_on_c, 6, 64, 64
8, 32610, Note_on_c, 6, 64, 0
8, 32610, Note_on_c, 6, 66, 64
8, 32640, Note_on_c, 6, 66, 0
8, 32640, Note_on_c, 6, 68, 64
8, 32670, Note_on_c, 6, 68, 0
8, 32670, Note_on_c, 6, 66, 64
8, 32700, Note_on_c, 6, 66, 0
8, 32700, Note_on_c, 6, 64, 64
8, 32730, Note_on_c, 6, 64, 0
8, 32730, Note_on_c, 6, 66, 64
8, 32760, Note_on_c, 6, 66, 0
8, 32760, Note_on_c, 6, 68, 64
8, 32790, Note_on_c, 6, 68, 0
8, 32790, Note_on_c, 6, 66, 64
8, 32820, Note_on_c, 6, 66, 0
8, 32820, Note_on_c, 6, 64, 64
8, 32850, Note_on_c, 6, 64, 0
8, 32850, Note_on_c, 6, 66, 64
8, 32880, Note_on_c, 6, 66, 0
8, 32880, Note_on_c, 6, 68, 64
8, 32910, Note_on_c, 6, 68, 0
8, 32910, Note_on_c, 6, 66, 64
8, 32940, Note_on_c, 6, 66, 0
8, 32940, Note_on_c, 6, 64, 64
8, 32970, Note_on_c, 6, 64, 0
8, 32970, Note_on_c, 6, 66, 64
8, 33000, Note_on_c, 6, 66, 0
8, 33000, Note_on_c, 6, 68, 64
8, 33030, Note_on_c, 6, 68, 0
8, 33030, Note_on_c, 6, 69, 64
8, 33060, Note_on_c, 6, 69, 0
8, 33060, Note_on_c, 6, 71, 64
8, 33090, Note_on_c, 6, 71, 0
8, 33090, Note_on_c, 6, 69, 64
8, 33120, Note_on_c, 6, 69, 0
8, 33120, Note_on_c, 6, 73, 64
8, 33150, Note_on_c, 6, 73, 0
8, 33150, Note_on_c, 6, 71, 64
8, 33180, Note_on_c, 6, 71, 0
8, 33180, Note_on_c, 6, 69, 64
8, 33210, Note_on_c, 6, 69, 0
8, 33210, Note_on_c, 6, 68, 64
8, 33240, Note_on_c, 6, 68, 0
8, 33240, Note_on_c, 6, 69, 64
8, 33270, Note_on_c, 6, 69, 0
8, 33270, Note_on_c, 6, 68, 64
8, 33300, Note_on_c, 6, 68, 0
8, 33300, Note_on_c, 6, 66, 64
8, 33330, Note_on_c, 6, 66, 0
8, 33330, Note_on_c, 6, 68, 64
8, 33360, Note_on_c, 6, 68, 0
8, 33360, Note_on_c, 6, 69, 64
8, 33390, Note_on_c, 6, 69, 0
8, 33390, Note_on_c, 6, 71, 64
8, 33420, Note_on_c, 6, 71, 0
8, 33420, Note_on_c, 6, 73, 64
8, 33450, Note_on_c, 6, 73, 0
8, 33450, Note_on_c, 6, 71, 64
8, 33480, Note_on_c, 6, 71, 0
8, 33480, Note_on_c, 6, 74, 64
8, 33510, Note_on_c, 6, 74, 0
8, 33510, Note_on_c, 6, 73, 64
8, 33540, Note_on_c, 6, 73, 0
8, 33540, Note_on_c, 6, 71, 64
8, 33570, Note_on_c, 6, 71, 0
8, 33570, Note_on_c, 6, 69, 64
8, 33600, Note_on_c, 6, 69, 0
8, 33600, Note_on_c, 6, 71, 64
8, 33630, Note_on_c, 6, 71, 0
8, 33630, Note_on_c, 6, 69, 64
8, 33660, Note_on_c, 6, 69, 0
8, 33660, Note_on_c, 6, 68, 64
8, 33690, Note_on_c, 6, 68, 0
8, 33690, Note_on_c, 6, 69, 64
8, 33720, Note_on_c, 6, 69, 0
8, 33720, Note_on_c, 6, 71, 64
8, 33750, Note_on_c, 6, 71, 0
8, 33750, Note_on_c, 6, 73, 64
8, 33780, Note_on_c, 6, 73, 0
8, 33780, Note_on_c, 6, 74, 64
8, 33810, Note_on_c, 6, 74, 0
8, 33810, Note_on_c, 6, 73, 64
8, 33840, Note_on_c, 6, 73, 0
8, 33840, Note_on_c, 6, 76, 64
8, 33870, Note_on_c, 6, 76, 0
8, 33870, Note_on_c, 6, 74, 64
8, 33900, Note_on_c, 6, 74, 0
8, 33900, Note_on_c, 6, 73, 64
8, 33930, Note_on_c, 6, 73, 0
8, 33930, Note_on_c, 6, 71, 64
8, 33960, Note_on_c, 6, 71, 0
8, 33960, Note_on_c, 6, 69, 64
8, 34001, Note_on_c, 6, 69, 0
8, 34020, Note_on_c, 6, 76, 64
8, 34061, Note_on_c, 6, 76, 0
8, 34080, Note_on_c, 6, 81, 64
8, 34121, Note_on_c, 6, 81, 0
8, 34140, Note_on_c, 6, 76, 64
8, 34181, Note_on_c, 6, 76, 0
8, 34200, Note_on_c, 6, 73, 64
8, 34230, Note_on_c, 6, 73, 0
8, 34230, Note_on_c, 6, 74, 64
8, 34260, Note_on_c, 6, 74, 0
8, 34260, Note_on_c, 6, 76, 64
8, 34361, Note_on_c, 6, 76, 0
8, 34380, Note_on_c, 6, 64, 64
8, 34421, Note_on_c, 6, 64, 0
8, 34440, Note_on_c, 6, 69, 64
8, 34481, Note_on_c, 6, 69, 0
8, 34500, Note_on_c, 6, 64, 64
8, 34541, Note_on_c, 6, 64, 0
8, 34560, Note_on_c, 6, 61, 64
8, 34590, Note_on_c, 6, 61, 0
8, 34590, Note_on_c, 6, 62, 64
8, 34620, Note_on_c, 6, 62, 0
8, 34620, Note_on_c, 6, 64, 64
8, 34710, Note_on_c, 6, 64, 0
8, 34710, Note_on_c, 6, 62, 64
8, 34740, Note_on_c, 6, 62, 0
8, 34740, Note_on_c, 6, 61, 64
8, 34770, Note_on_c, 6, 61, 0
8, 34770, Note_on_c, 6, 62, 64
8, 34800, Note_on_c, 6, 62, 0
8, 34800, Note_on_c, 6, 64, 64
8, 34830, Note_on_c, 6, 64, 0
8, 34830, Note_on_c, 6, 66, 64
8, 34860, Note_on_c, 6, 66, 0
8, 34860, Note_on_c, 6, 67, 64
8, 34890, Note_on_c, 6, 67, 0
8, 34890, Note_on_c, 6, 66, 64
8, 34920, Note_on_c, 6, 66, 0
8, 34920, Note_on_c, 6, 69, 64
8, 34961, Note_on_c, 6, 69, 0
8, 34980, Note_on_c, 6, 69, 64
8, 35081, Note_on_c, 6, 69, 0
8, 35100, Note_on_c, 6, 62, 64
8, 35141, Note_on_c, 6, 62, 0
8, 35160, Note_on_c, 6, 67, 64
8, 35201, Note_on_c, 6, 67, 0
8, 35220, Note_on_c, 6, 62, 64
8, 35261, Note_on_c, 6, 62, 0
8, 35280, Note_on_c, 6, 61, 64
8, 35321, Note_on_c, 6, 61, 0
8, 35340, Note_on_c, 6, 59, 64
8, 35381, Note_on_c, 6, 59, 0
8, 35400, Note_on_c, 6, 57, 64
8, 35441, Note_on_c, 6, 57, 0
8, 35460, Note_on_c, 6, 69, 64
8, 35700, Note_on_c, 6, 69, 0
8, 35700, Note_on_c, 6, 69, 64
8, 35801, Note_on_c, 6, 69, 0
8, 35820, Note_on_c, 6, 67, 64
8, 35850, Note_on_c, 6, 67, 0
8, 35850, Note_on_c, 6, 69, 64
8, 35880, Note_on_c, 6, 69, 0
8, 35880, Note_on_c, 6, 66, 64
8, 35910, Note_on_c, 6, 66, 0
8, 35910, Note_on_c, 6, 67, 64
8, 35940, Note_on_c, 6, 67, 0
8, 35940, Note_on_c, 6, 64, 64
8, 35970, Note_on_c, 6, 64, 0
8, 35970, Note_on_c, 6, 66, 64
8, 36000, Note_on_c, 6, 66, 0
8, 36000, Note_on_c, 6, 62, 64
8, 36041, Note_on_c, 6, 62, 0
8, 36060, Note_on_c, 6, 61, 64
8, 36090, Note_on_c, 6, 61, 0
8, 36090, Note_on_c, 6, 59, 64
8, 36120, Note_on_c, 6, 59, 0
8, 36120, Note_on_c, 6, 57, 64
8, 36161, Note_on_c, 6, 57, 0
8, 36180, Note_on_c, 6, 69, 64
8, 36221, Note_on_c, 6, 69, 0
8, 36240, Note_on_c, 6, 74, 64
8, 36281, Note_on_c, 6, 74, 0
8, 36300, Note_on_c, 6, 69, 64
8, 36341, Note_on_c, 6, 69, 0
8, 36360, Note_on_c, 6, 66, 65
8, 36390, Note_on_c, 6, 66, 0
8, 36390, Note_on_c, 6, 67, 65
8, 36420, Note_on_c, 6, 67, 0
8, 36420, Note_on_c, 6, 69, 65
8, 36510, Note_on_c, 6, 69, 0
8, 36510, Note_on_c, 6, 67, 65
8, 36540, Note_on_c, 6, 67, 0
8, 36540, Note_on_c, 6, 66, 65
8, 36570, Note_on_c, 6, 66, 0
8, 36570, Note_on_c, 6, 67, 65
8, 36600, Note_on_c, 6, 67, 0
8, 36600, Note_on_c, 6, 69, 65
8, 36641, Note_on_c, 6, 69, 0
8, 36660, Note_on_c, 6, 66, 65
8, 36701, Note_on_c, 6, 66, 0
8, 36720, Note_on_c, 6, 62, 65
8, 36881, Note_on_c, 6, 62, 0
8, 36900, Note_on_c, 6, 71, 66
8, 36930, Note_on_c, 6, 71, 0
8, 36930, Note_on_c, 6, 69, 66
8, 36960, Note_on_c, 6, 69, 0
8, 36960, Note_on_c, 6, 71, 66
8, 37001, Note_on_c, 6, 71, 0
8, 37020, Note_on_c, 6, 64, 66
8, 37061, Note_on_c, 6, 64, 0
8, 37080, Note_on_c, 6, 69, 66
8, 37110, Note_on_c, 6, 69, 0
8, 37110, Note_on_c, 6, 67, 66
8, 37140, Note_on_c, 6, 67, 0
8, 37140, Note_on_c, 6, 66, 66
8, 37170, Note_on_c, 6, 66, 0
8, 37170, Note_on_c, 6, 64, 67
8, 37200, Note_on_c, 6, 64, 0
8, 37200, Note_on_c, 6, 62, 67
8, 37241, Note_on_c, 6, 62, 0
8, 37260, Note_on_c, 6, 74, 67
8, 37380, Note_on_c, 6, 74, 0
8, 37380, Note_on_c, 6, 74, 67
8, 37500, Note_on_c, 6, 74, 0
8, 37500, Note_on_c, 6, 74, 67
8, 37590, Note_on_c, 6, 74, 0
8, 37590, Note_on_c, 6, 62, 68
8, 37620, Note_on_c, 6, 62, 0
8, 37620, Note_on_c, 6, 64, 68
8, 37650, Note_on_c, 6, 64, 0
8, 37650, Note_on_c, 6, 66, 68
8, 37680, Note_on_c, 6, 66, 0
8, 37680, Note_on_c, 6, 67, 68
8, 37710, Note_on_c, 6, 67, 0
8, 37710, Note_on_c, 6, 69, 68
8, 37740, Note_on_c, 6, 69, 0
8, 37740, Note_on_c, 6, 67, 68
8, 37770, Note_on_c, 6, 67, 0
8, 37770, Note_on_c, 6, 69, 68
8, 37800, Note_on_c, 6, 69, 0
8, 37800, Note_on_c, 6, 71, 68
8, 37830, Note_on_c, 6, 71, 0
8, 37830, Note_on_c, 6, 69, 68
8, 37860, Note_on_c, 6, 69, 0
8, 37860, Note_on_c, 6, 67, 68
8, 37890, Note_on_c, 6, 67, 0
8, 37890, Note_on_c, 6, 66, 68
8, 37920, Note_on_c, 6, 66, 0
8, 37920, Note_on_c, 6, 67, 68
8, 37950, Note_on_c, 6, 67, 0
8, 37950, Note_on_c, 6, 66, 68
8, 37980, Note_on_c, 6, 66, 0
8, 37980, Note_on_c, 6, 64, 68
8, 38010, Note_on_c, 6, 64, 0
8, 38010, Note_on_c, 6, 66, 69
8, 38040, Note_on_c, 6, 66, 0
8, 38040, Note_on_c, 6, 67, 69
8, 38081, Note_on_c, 6, 67, 0
8, 38310, Note_on_c, 6, 67, 69
8, 38340, Note_on_c, 6, 67, 0
8, 38340, Note_on_c, 6, 69, 69
8, 38370, Note_on_c, 6, 69, 0
8, 38370, Note_on_c, 6, 71, 69
8, 38400, Note_on_c, 6, 71, 0
8, 38400, Note_on_c, 6, 69, 69
8, 38430, Note_on_c, 6, 69, 0
8, 38430, Note_on_c, 6, 67, 70
8, 38460, Note_on_c, 6, 67, 0
8, 38460, Note_on_c, 6, 66, 70
8, 38490, Note_on_c, 6, 66, 0
8, 38490, Note_on_c, 6, 67, 70
8, 38520, Note_on_c, 6, 67, 0
8, 38520, Note_on_c, 6, 69, 70
8, 38550, Note_on_c, 6, 69, 0
8, 38550, Note_on_c, 6, 67, 70
8, 38580, Note_on_c, 6, 67, 0
8, 38580, Note_on_c, 6, 66, 70
8, 38610, Note_on_c, 6, 66, 0
8, 38610, Note_on_c, 6, 64, 70
8, 38640, Note_on_c, 6, 64, 0
8, 38640, Note_on_c, 6, 66, 70
8, 38670, Note_on_c, 6, 66, 0
8, 38670, Note_on_c, 6, 64, 70
8, 38700, Note_on_c, 6, 64, 0
8, 38700, Note_on_c, 6, 63, 71
8, 38730, Note_on_c, 6, 63, 0
8, 38730, Note_on_c, 6, 64, 71
8, 38760, Note_on_c, 6, 64, 0
8, 38760, Note_on_c, 6, 66, 71
8, 38801, Note_on_c, 6, 66, 0
8, 39060, Note_on_c, 6, 71, 74
8, 39101, Note_on_c, 6, 71, 0
8, 39120, Note_on_c, 6, 76, 74
8, 39161, Note_on_c, 6, 76, 0
8, 39180, Note_on_c, 6, 68, 75
8, 39221, Note_on_c, 6, 68, 0
8, 39240, Note_on_c, 6, 69, 76
8, 39281, Note_on_c, 6, 69, 0
8, 39300, Note_on_c, 6, 71, 76
8, 39341, Note_on_c, 6, 71, 0
8, 39360, Note_on_c, 6, 69, 77
8, 39390, Note_on_c, 6, 69, 0
8, 39390, Note_on_c, 6, 71, 77
8, 39420, Note_on_c, 6, 71, 0
8, 39420, Note_on_c, 6, 73, 77
8, 39450, Note_on_c, 6, 73, 0
8, 39450, Note_on_c, 6, 74, 78
8, 39480, Note_on_c, 6, 74, 0
8, 39480, Note_on_c, 6, 76, 78
8, 39521, Note_on_c, 6, 76, 0
8, 39540, Note_on_c, 6, 73, 78
8, 39581, Note_on_c, 6, 73, 0
8, 39600, Note_on_c, 6, 74, 79
8, 39641, Note_on_c, 6, 74, 0
8, 39660, Note_on_c, 6, 76, 79
8, 39701, Note_on_c, 6, 76, 0
8, 39720, Note_on_c, 6, 69, 75
8, 39761, Note_on_c, 6, 69, 0
8, 39780, Note_on_c, 6, 81, 75
8, 39810, Note_on_c, 6, 81, 0
8, 39810, Note_on_c, 6, 78, 75
8, 39840, Note_on_c, 6, 78, 0
8, 39840, Note_on_c, 6, 78, 75
8, 39870, Note_on_c, 6, 78, 0
8, 39870, Note_on_c, 6, 74, 75
8, 39900, Note_on_c, 6, 74, 0
8, 39900, Note_on_c, 6, 74, 75
8, 39930, Note_on_c, 6, 74, 0
8, 39930, Note_on_c, 6, 69, 75
8, 39960, Note_on_c, 6, 69, 0
8, 39960, Note_on_c, 6, 69, 75
8, 39990, Note_on_c, 6, 69, 0
8, 39990, Note_on_c, 6, 66, 75
8, 40020, Note_on_c, 6, 66, 0
8, 40020, Note_on_c, 6, 66, 75
8, 40050, Note_on_c, 6, 66, 0
8, 40050, Note_on_c, 6, 62, 75
8, 40080, Note_on_c, 6, 62, 0
8, 40080, Note_on_c, 6, 62, 75
8, 40121, Note_on_c, 6, 62, 0
8, 40140, Note_on_c, 6, 81, 75
8, 40170, Note_on_c, 6, 81, 0
8, 40170, Note_on_c, 6, 78, 75
8, 40200, Note_on_c, 6, 78, 0
8, 40200, Note_on_c, 6, 78, 75
8, 40230, Note_on_c, 6, 78, 0
8, 40230, Note_on_c, 6, 74, 75
8, 40260, Note_on_c, 6, 74, 0
8, 40260, Note_on_c, 6, 74, 75
8, 40290, Note_on_c, 6, 74, 0
8, 40290, Note_on_c, 6, 69, 75
8, 40320, Note_on_c, 6, 69, 0
8, 40320, Note_on_c, 6, 69, 75
8, 40350, Note_on_c, 6, 69, 0
8, 40350, Note_on_c, 6, 66, 75
8, 40380, Note_on_c, 6, 66, 0
8, 40380, Note_on_c, 6, 66, 75
8, 40410, Note_on_c, 6, 66, 0
8, 40410, Note_on_c, 6, 62, 75
8, 40440, Note_on_c, 6, 62, 0
8, 40440, Note_on_c, 6, 62, 75
8, 40481, Note_on_c, 6, 62, 0
8, 40500, Note_on_c, 6, 80, 76
8, 40530, Note_on_c, 6, 80, 0
8, 40530, Note_on_c, 6, 77, 76
8, 40560, Note_on_c, 6, 77, 0
8, 40560, Note_on_c, 6, 77, 76
8, 40590, Note_on_c, 6, 77, 0
8, 40590, Note_on_c, 6, 74, 76
8, 40620, Note_on_c, 6, 74, 0
8, 40620, Note_on_c, 6, 74, 77
8, 40650, Note_on_c, 6, 74, 0
8, 40650, Note_on_c, 6, 71, 77
8, 40680, Note_on_c, 6, 71, 0
8, 40680, Note_on_c, 6, 71, 77
8, 40710, Note_on_c, 6, 71, 0
8, 40710, Note_on_c, 6, 68, 78
8, 40740, Note_on_c, 6, 68, 0
8, 40740, Note_on_c, 6, 68, 78
8, 40770, Note_on_c, 6, 68, 0
8, 40770, Note_on_c, 6, 62, 78
8, 40800, Note_on_c, 6, 62, 0
8, 40800, Note_on_c, 6, 62, 78
8, 40841, Note_on_c, 6, 62, 0
8, 40860, Note_on_c, 6, 81, 79
8, 40890, Note_on_c, 6, 81, 0
8, 40890, Note_on_c, 6, 77, 79
8, 40920, Note_on_c, 6, 77, 0
8, 40920, Note_on_c, 6, 77, 79
8, 40950, Note_on_c, 6, 77, 0
8, 40950, Note_on_c, 6, 74, 80
8, 40980, Note_on_c, 6, 74, 0
8, 40980, Note_on_c, 6, 74, 80
8, 41010, Note_on_c, 6, 74, 0
8, 41010, Note_on_c, 6, 69, 80
8, 41040, Note_on_c, 6, 69, 0
8, 41040, Note_on_c, 6, 69, 81
8, 41070, Note_on_c, 6, 69, 0
8, 41070, Note_on_c, 6, 65, 81
8, 41100, Note_on_c, 6, 65, 0
8, 41100, Note_on_c, 6, 65, 81
8, 41130, Note_on_c, 6, 65, 0
8, 41130, Note_on_c, 6, 62, 81
8, 41160, Note_on_c, 6, 62, 0
8, 41160, Note_on_c, 6, 62, 82
8, 41201, Note_on_c, 6, 62, 0
8, 41220, Note_on_c, 6, 83, 82
8, 41250, Note_on_c, 6, 83, 0
8, 41250, Note_on_c, 6, 77, 83
8, 41280, Note_on_c, 6, 77, 0
8, 41280, Note_on_c, 6, 77, 83
8, 41310, Note_on_c, 6, 77, 0
8, 41310, Note_on_c, 6, 74, 83
8, 41340, Note_on_c, 6, 74, 0
8, 41340, Note_on_c, 6, 74, 83
8, 41370, Note_on_c, 6, 74, 0
8, 41370, Note_on_c, 6, 71, 84
8, 41400, Note_on_c, 6, 71, 0
8, 41400, Note_on_c, 6, 71, 84
8, 41430, Note_on_c, 6, 71, 0
8, 41430, Note_on_c, 6, 62, 84
8, 41460, Note_on_c, 6, 62, 0
8, 41460, Note_on_c, 6, 62, 84
8, 41490, Note_on_c, 6, 62, 0
8, 41490, Note_on_c, 6, 61, 85
8, 41520, Note_on_c, 6, 61, 0
8, 41520, Note_on_c, 6, 61, 85
8, 41561, Note_on_c, 6, 61, 0
8, 41580, Note_on_c, 6, 85, 82
8, 41610, Note_on_c, 6, 85, 0
8, 41610, Note_on_c, 6, 81, 81
8, 41640, Note_on_c, 6, 81, 0
8, 41640, Note_on_c, 6, 81, 80
8, 41670, Note_on_c, 6, 81, 0
8, 41670, Note_on_c, 6, 76, 79
8, 41700, Note_on_c, 6, 76, 0
8, 41700, Note_on_c, 6, 76, 77
8, 41730, Note_on_c, 6, 76, 0
8, 41730, Note_on_c, 6, 73, 76
8, 41760, Note_on_c, 6, 73, 0
8, 41760, Note_on_c, 6, 73, 75
8, 41790, Note_on_c, 6, 73, 0
8, 41790, Note_on_c, 6, 69, 74
8, 41820, Note_on_c, 6, 69, 0
8, 41820, Note_on_c, 6, 69, 72
8, 41850, Note_on_c, 6, 69, 0
8, 41850, Note_on_c, 6, 62, 71
8, 41880, Note_on_c, 6, 62, 0
8, 41880, Note_on_c, 6, 62, 70
8, 41921, Note_on_c, 6, 62, 0
8, 41940, Note_on_c, 6, 62, 71
8, 41981, Note_on_c, 6, 62, 0
8, 42000, Note_on_c, 6, 66, 71
8, 42041, Note_on_c, 6, 66, 0
8, 42060, Note_on_c, 6, 69, 72
8, 42101, Note_on_c, 6, 69, 0
8, 42120, Note_on_c, 6, 67, 72
8, 42161, Note_on_c, 6, 67, 0
8, 42180, Note_on_c, 6, 66, 73
8, 42281, Note_on_c, 6, 66, 0
8, 42300, Note_on_c, 6, 64, 74
8, 42341, Note_on_c, 6, 64, 0
8, 42360, Note_on_c, 6, 67, 74
8, 42401, Note_on_c, 6, 67, 0
8, 42420, Note_on_c, 6, 71, 75
8, 42461, Note_on_c, 6, 71, 0
8, 42480, Note_on_c, 6, 69, 75
8, 42521, Note_on_c, 6, 69, 0
8, 42540, Note_on_c, 6, 67, 76
8, 42641, Note_on_c, 6, 67, 0
8, 42660, Note_on_c, 6, 66, 77
8, 42701, Note_on_c, 6, 66, 0
8, 42720, Note_on_c, 6, 69, 77
8, 42761, Note_on_c, 6, 69, 0
8, 42780, Note_on_c, 6, 73, 78
8, 42821, Note_on_c, 6, 73, 0
8, 42840, Note_on_c, 6, 71, 78
8, 42881, Note_on_c, 6, 71, 0
8, 42900, Note_on_c, 6, 69, 79
8, 43001, Note_on_c, 6, 69, 0
8, 43020, Note_on_c, 6, 67, 80
8, 43061, Note_on_c, 6, 67, 0
8, 43080, Note_on_c, 6, 71, 80
8, 43121, Note_on_c, 6, 71, 0
8, 43140, Note_on_c, 6, 74, 81
8, 43181, Note_on_c, 6, 74, 0
8, 43200, Note_on_c, 6, 73, 81
8, 43241, Note_on_c, 6, 73, 0
8, 43260, Note_on_c, 6, 71, 82
8, 43361, Note_on_c, 6, 71, 0
8, 43380, Note_on_c, 6, 69, 83
8, 43421, Note_on_c, 6, 69, 0
8, 43440, Note_on_c, 6, 73, 83
8, 43481, Note_on_c, 6, 73, 0
8, 43500, Note_on_c, 6, 76, 84
8, 43541, Note_on_c, 6, 76, 0
8, 43560, Note_on_c, 6, 74, 84
8, 43601, Note_on_c, 6, 74, 0
8, 43620, Note_on_c, 6, 73, 85
8, 43650, Note_on_c, 6, 73, 0
8, 43650, Note_on_c, 6, 71, 85
8, 43680, Note_on_c, 6, 71, 0
8, 43680, Note_on_c, 6, 69, 80
8, 43721, Note_on_c, 6, 69, 0
8, 43740, Note_on_c, 6, 66, 81
8, 43781, Note_on_c, 6, 66, 0
8, 43800, Note_on_c, 6, 69, 81
8, 43841, Note_on_c, 6, 69, 0
8, 43860, Note_on_c, 6, 74, 82
8, 43890, Note_on_c, 6, 74, 0
8, 43890, Note_on_c, 6, 73, 82
8, 43920, Note_on_c, 6, 73, 0
8, 43920, Note_on_c, 6, 74, 82
8, 43961, Note_on_c, 6, 74, 0
8, 43980, Note_on_c, 6, 66, 83
8, 44021, Note_on_c, 6, 66, 0
8, 44040, Note_on_c, 6, 67, 83
8, 44081, Note_on_c, 6, 67, 0
8, 44100, Note_on_c, 6, 64, 84
8, 44141, Note_on_c, 6, 64, 0
8, 44160, Note_on_c, 6, 67, 84
8, 44201, Note_on_c, 6, 67, 0
8, 44220, Note_on_c, 6, 73, 85
8, 44250, Note_on_c, 6, 73, 0
8, 44250, Note_on_c, 6, 71, 85
8, 44280, Note_on_c, 6, 71, 0
8, 44280, Note_on_c, 6, 73, 86
8, 44321, Note_on_c, 6, 73, 0
8, 44340, Note_on_c, 6, 64, 86
8, 44381, Note_on_c, 6, 64, 0
8, 44400, Note_on_c, 6, 66, 87
8, 44441, Note_on_c, 6, 66, 0
8, 44460, Note_on_c, 6, 62, 87
8, 44501, Note_on_c, 6, 62, 0
8, 44520, Note_on_c, 6, 66, 88
8, 44561, Note_on_c, 6, 66, 0
8, 44580, Note_on_c, 6, 71, 88
8, 44610, Note_on_c, 6, 71, 0
8, 44610, Note_on_c, 6, 69, 89
8, 44640, Note_on_c, 6, 69, 0
8, 44640, Note_on_c, 6, 71, 89
8, 44681, Note_on_c, 6, 71, 0
8, 44700, Note_on_c, 6, 62, 89
8, 44741, Note_on_c, 6, 62, 0
8, 44760, Note_on_c, 6, 64, 90
8, 44801, Note_on_c, 6, 64, 0
8, 44820, Note_on_c, 6, 64, 91
8, 44861, Note_on_c, 6, 64, 0
8, 44880, Note_on_c, 6, 71, 91
8, 44921, Note_on_c, 6, 71, 0
8, 44940, Note_on_c, 6, 71, 92
8, 44981, Note_on_c, 6, 71, 0
8, 45000, Note_on_c, 6, 71, 92
8, 45041, Note_on_c, 6, 71, 0
8, 45060, Note_on_c, 6, 71, 93
8, 45101, Note_on_c, 6, 71, 0
8, 45120, Note_on_c, 6, 76, 93
8, 45240, Note_on_c, 6, 76, 0
8, 45300, Note_on_c, 6, 73, 95
8, 45341, Note_on_c, 6, 73, 0
8, 45360, Note_on_c, 6, 74, 96
8, 45401, Note_on_c, 6, 74, 0
8, 45420, Note_on_c, 6, 76, 96
8, 45461, Note_on_c, 6, 76, 0
8, 45480, Note_on_c, 6, 74, 97
8, 45521, Note_on_c, 6, 74, 0
8, 45540, Note_on_c, 6, 74, 97
8, 45581, Note_on_c, 6, 74, 0
8, 45600, Note_on_c, 6, 74, 98
8, 45641, Note_on_c, 6, 74, 0
8, 45660, Note_on_c, 6, 74, 98
8, 45701, Note_on_c, 6, 74, 0
8, 45720, Note_on_c, 6, 74, 99
8, 45761, Note_on_c, 6, 74, 0
8, 45780, Note_on_c, 6, 73, 99
8, 45821, Note_on_c, 6, 73, 0
8, 45840, Note_on_c, 6, 69, 100
8, 46200, Note_on_c, 6, 69, 0
8, 46560, End_track
9, 0, Start_track
9, 0, MIDI_port, 0
9, 0, Title_t, "Viola"
9, 0, Program_c, 7, 48
9, 120, Control_c, 7, 7, 100
9, 180, Note_on_c, 7, 62, 64
9, 221, Note_on_c, 7, 62, 0
9, 240, Note_on_c, 7, 62, 64
9, 281, Note_on_c, 7, 62, 0
9, 300, Note_on_c, 7, 62, 64
9, 341, Note_on_c, 7, 62, 0
9, 360, Note_on_c, 7, 62, 64
9, 401, Note_on_c, 7, 62, 0
9, 420, Note_on_c, 7, 62, 64
9, 461, Note_on_c, 7, 62, 0
9, 480, Note_on_c, 7, 62, 64
9, 521, Note_on_c, 7, 62, 0
9, 540, Note_on_c, 7, 66, 64
9, 570, Note_on_c, 7, 66, 0
9, 570, Note_on_c, 7, 74, 64
9, 600, Note_on_c, 7, 74, 0
9, 600, Note_on_c, 7, 74, 64
9, 630, Note_on_c, 7, 74, 0
9, 630, Note_on_c, 7, 69, 64
9, 660, Note_on_c, 7, 69, 0
9, 660, Note_on_c, 7, 69, 64
9, 690, Note_on_c, 7, 69, 0
9, 690, Note_on_c, 7, 66, 64
9, 720, Note_on_c, 7, 66, 0
9, 720, Note_on_c, 7, 66, 64
9, 750, Note_on_c, 7, 66, 0
9, 750, Note_on_c, 7, 62, 64
9, 780, Note_on_c, 7, 62, 0
9, 780, Note_on_c, 7, 62, 64
9, 810, Note_on_c, 7, 62, 0
9, 810, Note_on_c, 7, 62, 64
9, 840, Note_on_c, 7, 62, 0
9, 840, Note_on_c, 7, 57, 64
9, 881, Note_on_c, 7, 57, 0
9, 900, Note_on_c, 7, 57, 64
9, 941, Note_on_c, 7, 57, 0
9, 960, Note_on_c, 7, 57, 64
9, 1001, Note_on_c, 7, 57, 0
9, 1020, Note_on_c, 7, 57, 64
9, 1061, Note_on_c, 7, 57, 0
9, 1080, Note_on_c, 7, 57, 64
9, 1121, Note_on_c, 7, 57, 0
9, 1140, Note_on_c, 7, 57, 64
9, 1181, Note_on_c, 7, 57, 0
9, 1200, Note_on_c, 7, 57, 64
9, 1241, Note_on_c, 7, 57, 0
9, 1260, Note_on_c, 7, 76, 64
9, 1290, Note_on_c, 7, 76, 0
9, 1290, Note_on_c, 7, 73, 64
9, 1320, Note_on_c, 7, 73, 0
9, 1320, Note_on_c, 7, 73, 64
9, 1350, Note_on_c, 7, 73, 0
9, 1350, Note_on_c, 7, 67, 64
9, 1380, Note_on_c, 7, 67, 0
9, 1380, Note_on_c, 7, 67, 64
9, 1410, Note_on_c, 7, 67, 0
9, 1410, Note_on_c, 7, 64, 64
9, 1440, Note_on_c, 7, 64, 0
9, 1440, Note_on_c, 7, 64, 64
9, 1470, Note_on_c, 7, 64, 0
9, 1470, Note_on_c, 7, 61, 64
9, 1500, Note_on_c, 7, 61, 0
9, 1500, Note_on_c, 7, 61, 64
9, 1530, Note_on_c, 7, 61, 0
9, 1530, Note_on_c, 7, 61, 64
9, 1560, Note_on_c, 7, 61, 0
9, 1560, Note_on_c, 7, 57, 64
9, 1680, Note_on_c, 7, 57, 0
9, 1740, Note_on_c, 7, 66, 64
9, 1781, Note_on_c, 7, 66, 0
9, 1800, Note_on_c, 7, 69, 64
9, 1841, Note_on_c, 7, 69, 0
9, 1860, Note_on_c, 7, 69, 64
9, 1901, Note_on_c, 7, 69, 0
9, 1920, Note_on_c, 7, 71, 64
9, 1961, Note_on_c, 7, 71, 0
9, 1980, Note_on_c, 7, 66, 64
9, 2021, Note_on_c, 7, 66, 0
9, 2100, Note_on_c, 7, 62, 64
9, 2141, Note_on_c, 7, 62, 0
9, 2160, Note_on_c, 7, 66, 64
9, 2201, Note_on_c, 7, 66, 0
9, 2220, Note_on_c, 7, 66, 64
9, 2261, Note_on_c, 7, 66, 0
9, 2280, Note_on_c, 7, 66, 64
9, 2321, Note_on_c, 7, 66, 0
9, 2340, Note_on_c, 7, 62, 64
9, 2381, Note_on_c, 7, 62, 0
9, 2400, Note_on_c, 7, 66, 64
9, 2441, Note_on_c, 7, 66, 0
9, 2460, Note_on_c, 7, 69, 64
9, 2501, Note_on_c, 7, 69, 0
9, 2520, Note_on_c, 7, 74, 64
9, 2561, Note_on_c, 7, 74, 0
9, 2580, Note_on_c, 7, 62, 64
9, 2621, Note_on_c, 7, 62, 0
9, 2700, Note_on_c, 7, 59, 64
9, 2741, Note_on_c, 7, 59, 0
9, 2760, Note_on_c, 7, 64, 64
9, 2801, Note_on_c, 7, 64, 0
9, 2820, Note_on_c, 7, 68, 64
9, 2861, Note_on_c, 7, 68, 0
9, 2880, Note_on_c, 7, 64, 64
9, 2921, Note_on_c, 7, 64, 0
9, 2940, Note_on_c, 7, 68, 64
9, 2981, Note_on_c, 7, 68, 0
9, 3000, Note_on_c, 7, 61, 64
9, 3041, Note_on_c, 7, 61, 0
9, 3420, Note_on_c, 7, 73, 64
9, 3450, Note_on_c, 7, 73, 0
9, 3450, Note_on_c, 7, 69, 64
9, 3480, Note_on_c, 7, 69, 0
9, 3480, Note_on_c, 7, 69, 64
9, 3510, Note_on_c, 7, 69, 0
9, 3510, Note_on_c, 7, 64, 64
9, 3540, Note_on_c, 7, 64, 0
9, 3540, Note_on_c, 7, 64, 64
9, 3570, Note_on_c, 7, 64, 0
9, 3570, Note_on_c, 7, 61, 64
9, 3600, Note_on_c, 7, 61, 0
9, 3600, Note_on_c, 7, 61, 64
9, 3630, Note_on_c, 7, 61, 0
9, 3630, Note_on_c, 7, 57, 64
9, 3660, Note_on_c, 7, 57, 0
9, 3660, Note_on_c, 7, 57, 64
9, 3690, Note_on_c, 7, 57, 0
9, 3690, Note_on_c, 7, 57, 64
9, 3720, Note_on_c, 7, 57, 0
9, 3720, Note_on_c, 7, 57, 64
9, 3761, Note_on_c, 7, 57, 0
9, 4140, Note_on_c, 7, 71, 64
9, 4170, Note_on_c, 7, 71, 0
9, 4170, Note_on_c, 7, 68, 64
9, 4200, Note_on_c, 7, 68, 0
9, 4200, Note_on_c, 7, 68, 64
9, 4230, Note_on_c, 7, 68, 0
9, 4230, Note_on_c, 7, 64, 64
9, 4260, Note_on_c, 7, 64, 0
9, 4260, Note_on_c, 7, 64, 64
9, 4290, Note_on_c, 7, 64, 0
9, 4290, Note_on_c, 7, 59, 64
9, 4320, Note_on_c, 7, 59, 0
9, 4320, Note_on_c, 7, 59, 64
9, 4350, Note_on_c, 7, 59, 0
9, 4350, Note_on_c, 7, 56, 64
9, 4380, Note_on_c, 7, 56, 0
9, 4380, Note_on_c, 7, 56, 64
9, 4410, Note_on_c, 7, 56, 0
9, 4410, Note_on_c, 7, 56, 64
9, 4440, Note_on_c, 7, 56, 0
9, 4440, Note_on_c, 7, 52, 64
9, 4481, Note_on_c, 7, 52, 0
9, 4500, Note_on_c, 7, 64, 64
9, 4541, Note_on_c, 7, 64, 0
9, 4560, Note_on_c, 7, 69, 64
9, 4601, Note_on_c, 7, 69, 0
9, 4620, Note_on_c, 7, 73, 64
9, 4661, Note_on_c, 7, 73, 0
9, 4680, Note_on_c, 7, 76, 64
9, 4721, Note_on_c, 7, 76, 0
9, 4740, Note_on_c, 7, 64, 64
9, 4781, Note_on_c, 7, 64, 0
9, 4860, Note_on_c, 7, 61, 64
9, 4901, Note_on_c, 7, 61, 0
9, 4920, Note_on_c, 7, 66, 64
9, 4961, Note_on_c, 7, 66, 0
9, 4980, Note_on_c, 7, 69, 64
9, 5021, Note_on_c, 7, 69, 0
9, 5040, Note_on_c, 7, 73, 64
9, 5081, Note_on_c, 7, 73, 0
9, 5100, Note_on_c, 7, 61, 64
9, 5141, Note_on_c, 7, 61, 0
9, 5160, Note_on_c, 7, 69, 64
9, 5201, Note_on_c, 7, 69, 0
9, 5220, Note_on_c, 7, 57, 64
9, 5261, Note_on_c, 7, 57, 0
9, 5280, Note_on_c, 7, 61, 64
9, 5321, Note_on_c, 7, 61, 0
9, 5340, Note_on_c, 7, 64, 64
9, 5381, Note_on_c, 7, 64, 0
9, 5400, Note_on_c, 7, 69, 64
9, 5441, Note_on_c, 7, 69, 0
9, 5460, Note_on_c, 7, 57, 64
9, 5501, Note_on_c, 7, 57, 0
9, 5580, Note_on_c, 7, 63, 64
9, 5621, Note_on_c, 7, 63, 0
9, 5640, Note_on_c, 7, 59, 64
9, 5681, Note_on_c, 7, 59, 0
9, 5700, Note_on_c, 7, 54, 64
9, 5741, Note_on_c, 7, 54, 0
9, 5760, Note_on_c, 7, 59, 64
9, 5801, Note_on_c, 7, 59, 0
9, 5820, Note_on_c, 7, 63, 64
9, 5861, Note_on_c, 7, 63, 0
9, 5880, Note_on_c, 7, 59, 40
9, 5921, Note_on_c, 7, 59, 0
9, 5940, Note_on_c, 7, 64, 41
9, 5981, Note_on_c, 7, 64, 0
9, 6000, Note_on_c, 7, 64, 42
9, 6041, Note_on_c, 7, 64, 0
9, 6060, Note_on_c, 7, 64, 43
9, 6101, Note_on_c, 7, 64, 0
9, 6120, Note_on_c, 7, 64, 44
9, 6161, Note_on_c, 7, 64, 0
9, 6180, Note_on_c, 7, 64, 45
9, 6221, Note_on_c, 7, 64, 0
9, 6240, Note_on_c, 7, 61, 46
9, 6360, Note_on_c, 7, 61, 0
9, 6660, Note_on_c, 7, 61, 53
9, 6701, Note_on_c, 7, 61, 0
9, 6720, Note_on_c, 7, 61, 54
9, 6761, Note_on_c, 7, 61, 0
9, 6780, Note_on_c, 7, 61, 55
9, 6821, Note_on_c, 7, 61, 0
9, 6840, Note_on_c, 7, 61, 56
9, 6881, Note_on_c, 7, 61, 0
9, 6900, Note_on_c, 7, 61, 57
9, 6941, Note_on_c, 7, 61, 0
9, 6960, Note_on_c, 7, 57, 58
9, 7001, Note_on_c, 7, 57, 0
9, 7020, Note_on_c, 7, 57, 59
9, 7061, Note_on_c, 7, 57, 0
9, 7080, Note_on_c, 7, 61, 60
9, 7121, Note_on_c, 7, 61, 0
9, 7140, Note_on_c, 7, 64, 61
9, 7181, Note_on_c, 7, 64, 0
9, 7200, Note_on_c, 7, 61, 62
9, 7241, Note_on_c, 7, 61, 0
9, 7260, Note_on_c, 7, 57, 63
9, 7301, Note_on_c, 7, 57, 0
9, 7320, Note_on_c, 7, 69, 50
9, 7361, Note_on_c, 7, 69, 0
9, 7380, Note_on_c, 7, 54, 51
9, 7421, Note_on_c, 7, 54, 0
9, 7440, Note_on_c, 7, 57, 52
9, 7481, Note_on_c, 7, 57, 0
9, 7500, Note_on_c, 7, 62, 53
9, 7541, Note_on_c, 7, 62, 0
9, 7560, Note_on_c, 7, 61, 53
9, 7601, Note_on_c, 7, 61, 0
9, 7620, Note_on_c, 7, 59, 54
9, 7721, Note_on_c, 7, 59, 0
9, 7740, Note_on_c, 7, 56, 56
9, 7781, Note_on_c, 7, 56, 0
9, 7800, Note_on_c, 7, 59, 57
9, 7841, Note_on_c, 7, 59, 0
9, 7860, Note_on_c, 7, 64, 58
9, 7901, Note_on_c, 7, 64, 0
9, 7920, Note_on_c, 7, 62, 58
9, 7961, Note_on_c, 7, 62, 0
9, 7980, Note_on_c, 7, 61, 59
9, 8081, Note_on_c, 7, 61, 0
9, 8100, Note_on_c, 7, 57, 61
9, 8141, Note_on_c, 7, 57, 0
9, 8160, Note_on_c, 7, 62, 62
9, 8201, Note_on_c, 7, 62, 0
9, 8220, Note_on_c, 7, 66, 63
9, 8261, Note_on_c, 7, 66, 0
9, 8280, Note_on_c, 7, 64, 63
9, 8321, Note_on_c, 7, 64, 0
9, 8340, Note_on_c, 7, 62, 64
9, 8441, Note_on_c, 7, 62, 0
9, 8460, Note_on_c, 7, 59, 66
9, 8501, Note_on_c, 7, 59, 0
9, 8520, Note_on_c, 7, 64, 67
9, 8561, Note_on_c, 7, 64, 0
9, 8580, Note_on_c, 7, 68, 68
9, 8621, Note_on_c, 7, 68, 0
9, 8640, Note_on_c, 7, 61, 68
9, 8681, Note_on_c, 7, 61, 0
9, 8700, Note_on_c, 7, 64, 69
9, 8741, Note_on_c, 7, 64, 0
9, 8760, Note_on_c, 7, 64, 64
9, 8880, Note_on_c, 7, 64, 0
9, 8940, Note_on_c, 7, 69, 64
9, 8970, Note_on_c, 7, 69, 0
9, 8970, Note_on_c, 7, 64, 64
9, 9000, Note_on_c, 7, 64, 0
9, 9000, Note_on_c, 7, 64, 64
9, 9030, Note_on_c, 7, 64, 0
9, 9030, Note_on_c, 7, 61, 64
9, 9060, Note_on_c, 7, 61, 0
9, 9060, Note_on_c, 7, 61, 64
9, 9090, Note_on_c, 7, 61, 0
9, 9090, Note_on_c, 7, 57, 64
9, 9120, Note_on_c, 7, 57, 0
9, 9120, Note_on_c, 7, 57, 64
9, 9240, Note_on_c, 7, 57, 0
9, 9300, Note_on_c, 7, 69, 64
9, 9330, Note_on_c, 7, 69, 0
9, 9330, Note_on_c, 7, 64, 64
9, 9360, Note_on_c, 7, 64, 0
9, 9360, Note_on_c, 7, 64, 64
9, 9390, Note_on_c, 7, 64, 0
9, 9390, Note_on_c, 7, 61, 64
9, 9420, Note_on_c, 7, 61, 0
9, 9420, Note_on_c, 7, 61, 64
9, 9450, Note_on_c, 7, 61, 0
9, 9450, Note_on_c, 7, 57, 64
9, 9480, Note_on_c, 7, 57, 0
9, 9480, Note_on_c, 7, 57, 64
9, 9600, Note_on_c, 7, 57, 0
9, 9660, Note_on_c, 7, 69, 64
9, 9690, Note_on_c, 7, 69, 0
9, 9690, Note_on_c, 7, 66, 64
9, 9720, Note_on_c, 7, 66, 0
9, 9720, Note_on_c, 7, 66, 64
9, 9750, Note_on_c, 7, 66, 0
9, 9750, Note_on_c, 7, 63, 64
9, 9780, Note_on_c, 7, 63, 0
9, 9780, Note_on_c, 7, 63, 64
9, 9810, Note_on_c, 7, 63, 0
9, 9810, Note_on_c, 7, 57, 64
9, 9840, Note_on_c, 7, 57, 0
9, 9840, Note_on_c, 7, 57, 64
9, 9960, Note_on_c, 7, 57, 0
9, 10020, Note_on_c, 7, 69, 64
9, 10050, Note_on_c, 7, 69, 0
9, 10050, Note_on_c, 7, 64, 64
9, 10080, Note_on_c, 7, 64, 0
9, 10080, Note_on_c, 7, 64, 64
9, 10110, Note_on_c, 7, 64, 0
9, 10110, Note_on_c, 7, 60, 64
9, 10140, Note_on_c, 7, 60, 0
9, 10140, Note_on_c, 7, 60, 64
9, 10170, Note_on_c, 7, 60, 0
9, 10170, Note_on_c, 7, 57, 64
9, 10200, Note_on_c, 7, 57, 0
9, 10200, Note_on_c, 7, 57, 64
9, 10320, Note_on_c, 7, 57, 0
9, 10380, Note_on_c, 7, 69, 64
9, 10410, Note_on_c, 7, 69, 0
9, 10410, Note_on_c, 7, 66, 64
9, 10440, Note_on_c, 7, 66, 0
9, 10440, Note_on_c, 7, 66, 64
9, 10470, Note_on_c, 7, 66, 0
9, 10470, Note_on_c, 7, 57, 64
9, 10500, Note_on_c, 7, 57, 0
9, 10500, Note_on_c, 7, 57, 64
9, 10530, Note_on_c, 7, 57, 0
9, 10530, Note_on_c, 7, 56, 64
9, 10560, Note_on_c, 7, 56, 0
9, 10560, Note_on_c, 7, 56, 64
9, 10680, Note_on_c, 7, 56, 0
9, 10740, Note_on_c, 7, 71, 64
9, 10770, Note_on_c, 7, 71, 0
9, 10770, Note_on_c, 7, 68, 64
9, 10800, Note_on_c, 7, 68, 0
9, 10800, Note_on_c, 7, 68, 64
9, 10830, Note_on_c, 7, 68, 0
9, 10830, Note_on_c, 7, 64, 64
9, 10860, Note_on_c, 7, 64, 0
9, 10860, Note_on_c, 7, 64, 64
9, 10890, Note_on_c, 7, 64, 0
9, 10890, Note_on_c, 7, 57, 64
9, 10920, Note_on_c, 7, 57, 0
9, 10920, Note_on_c, 7, 57, 64
9, 10961, Note_on_c, 7, 57, 0
9, 10980, Note_on_c, 7, 57, 64
9, 11021, Note_on_c, 7, 57, 0
9, 11040, Note_on_c, 7, 61, 64
9, 11081, Note_on_c, 7, 61, 0
9, 11100, Note_on_c, 7, 64, 64
9, 11141, Note_on_c, 7, 64, 0
9, 11160, Note_on_c, 7, 57, 64
9, 11321, Note_on_c, 7, 57, 0
9, 11340, Note_on_c, 7, 56, 64
9, 11381, Note_on_c, 7, 56, 0
9, 11400, Note_on_c, 7, 59, 64
9, 11441, Note_on_c, 7, 59, 0
9, 11460, Note_on_c, 7, 62, 64
9, 11501, Note_on_c, 7, 62, 0
9, 11520, Note_on_c, 7, 56, 64
9, 11681, Note_on_c, 7, 56, 0
9, 11700, Note_on_c, 7, 54, 64
9, 11741, Note_on_c, 7, 54, 0
9, 11760, Note_on_c, 7, 57, 64
9, 11801, Note_on_c, 7, 57, 0
9, 11820, Note_on_c, 7, 61, 64
9, 11861, Note_on_c, 7, 61, 0
9, 11880, Note_on_c, 7, 54, 64
9, 12041, Note_on_c, 7, 54, 0
9, 12060, Note_on_c, 7, 59, 64
9, 12101, Note_on_c, 7, 59, 0
9, 12120, Note_on_c, 7, 59, 64
9, 12161, Note_on_c, 7, 59, 0
9, 12180, Note_on_c, 7, 59, 64
9, 12221, Note_on_c, 7, 59, 0
9, 12240, Note_on_c, 7, 59, 64
9, 12281, Note_on_c, 7, 59, 0
9, 12300, Note_on_c, 7, 59, 64
9, 12341, Note_on_c, 7, 59, 0
9, 12360, Note_on_c, 7, 64, 64
9, 12480, Note_on_c, 7, 64, 0
9, 12540, Note_on_c, 7, 59, 68
9, 12581, Note_on_c, 7, 59, 0
9, 12600, Note_on_c, 7, 61, 69
9, 12641, Note_on_c, 7, 61, 0
9, 12660, Note_on_c, 7, 62, 71
9, 12701, Note_on_c, 7, 62, 0
9, 12720, Note_on_c, 7, 61, 72
9, 12750, Note_on_c, 7, 61, 0
9, 12750, Note_on_c, 7, 62, 73
9, 12780, Note_on_c, 7, 62, 0
9, 12780, Note_on_c, 7, 61, 73
9, 12810, Note_on_c, 7, 61, 0
9, 12810, Note_on_c, 7, 59, 74
9, 12840, Note_on_c, 7, 59, 0
9, 12840, Note_on_c, 7, 57, 75
9, 12881, Note_on_c, 7, 57, 0
9, 12900, Note_on_c, 7, 61, 76
9, 12941, Note_on_c, 7, 61, 0
9, 12960, Note_on_c, 7, 59, 77
9, 13001, Note_on_c, 7, 59, 0
9, 13020, Note_on_c, 7, 62, 79
9, 13061, Note_on_c, 7, 62, 0
9, 13080, Note_on_c, 7, 61, 80
9, 13200, Note_on_c, 7, 61, 0
9, 22860, Note_on_c, 7, 59, 64
9, 22901, Note_on_c, 7, 59, 0
9, 22920, Note_on_c, 7, 59, 64
9, 22961, Note_on_c, 7, 59, 0
9, 22980, Note_on_c, 7, 59, 64
9, 23021, Note_on_c, 7, 59, 0
9, 23040, Note_on_c, 7, 59, 64
9, 23081, Note_on_c, 7, 59, 0
9, 23100, Note_on_c, 7, 59, 64
9, 23141, Note_on_c, 7, 59, 0
9, 23160, Note_on_c, 7, 59, 64
9, 23201, Note_on_c, 7, 59, 0
9, 23220, Note_on_c, 7, 74, 64
9, 23250, Note_on_c, 7, 74, 0
9, 23250, Note_on_c, 7, 71, 64
9, 23280, Note_on_c, 7, 71, 0
9, 23280, Note_on_c, 7, 71, 64
9, 23310, Note_on_c, 7, 71, 0
9, 23310, Note_on_c, 7, 66, 64
9, 23340, Note_on_c, 7, 66, 0
9, 23340, Note_on_c, 7, 66, 64
9, 23370, Note_on_c, 7, 66, 0
9, 23370, Note_on_c, 7, 62, 64
9, 23400, Note_on_c, 7, 62, 0
9, 23400, Note_on_c, 7, 62, 64
9, 23430, Note_on_c, 7, 62, 0
9, 23430, Note_on_c, 7, 64, 64
9, 23460, Note_on_c, 7, 64, 0
9, 23460, Note_on_c, 7, 64, 64
9, 23490, Note_on_c, 7, 64, 0
9, 23490, Note_on_c, 7, 66, 64
9, 23520, Note_on_c, 7, 66, 0
9, 23520, Note_on_c, 7, 64, 64
9, 23561, Note_on_c, 7, 64, 0
9, 23940, Note_on_c, 7, 76, 64
9, 23970, Note_on_c, 7, 76, 0
9, 23970, Note_on_c, 7, 73, 64
9, 24000, Note_on_c, 7, 73, 0
9, 24000, Note_on_c, 7, 73, 64
9, 24030, Note_on_c, 7, 73, 0
9, 24030, Note_on_c, 7, 70, 64
9, 24060, Note_on_c, 7, 70, 0
9, 24060, Note_on_c, 7, 70, 64
9, 24090, Note_on_c, 7, 70, 0
9, 24090, Note_on_c, 7, 64, 64
9, 24120, Note_on_c, 7, 64, 0
9, 24120, Note_on_c, 7, 64, 64
9, 24150, Note_on_c, 7, 64, 0
9, 24150, Note_on_c, 7, 66, 64
9, 24180, Note_on_c, 7, 66, 0
9, 24180, Note_on_c, 7, 66, 64
9, 24210, Note_on_c, 7, 66, 0
9, 24210, Note_on_c, 7, 70, 64
9, 24240, Note_on_c, 7, 70, 0
9, 24240, Note_on_c, 7, 66, 64
9, 24360, Note_on_c, 7, 66, 0
9, 24660, Note_on_c, 7, 68, 64
9, 24690, Note_on_c, 7, 68, 0
9, 24690, Note_on_c, 7, 62, 64
9, 24720, Note_on_c, 7, 62, 0
9, 24720, Note_on_c, 7, 62, 64
9, 24750, Note_on_c, 7, 62, 0
9, 24750, Note_on_c, 7, 59, 64
9, 24780, Note_on_c, 7, 59, 0
9, 24780, Note_on_c, 7, 59, 64
9, 24810, Note_on_c, 7, 59, 0
9, 24810, Note_on_c, 7, 56, 64
9, 24840, Note_on_c, 7, 56, 0
9, 24840, Note_on_c, 7, 56, 64
9, 24870, Note_on_c, 7, 56, 0
9, 24870, Note_on_c, 7, 56, 64
9, 24900, Note_on_c, 7, 56, 0
9, 24900, Note_on_c, 7, 56, 64
9, 24930, Note_on_c, 7, 56, 0
9, 24930, Note_on_c, 7, 56, 64
9, 24960, Note_on_c, 7, 56, 0
9, 24960, Note_on_c, 7, 52, 64
9, 25080, Note_on_c, 7, 52, 0
9, 25140, Note_on_c, 7, 61, 64
9, 25181, Note_on_c, 7, 61, 0
9, 25200, Note_on_c, 7, 64, 64
9, 25241, Note_on_c, 7, 64, 0
9, 25260, Note_on_c, 7, 64, 64
9, 25301, Note_on_c, 7, 64, 0
9, 25320, Note_on_c, 7, 66, 64
9, 25361, Note_on_c, 7, 66, 0
9, 25380, Note_on_c, 7, 61, 64
9, 25421, Note_on_c, 7, 61, 0
9, 25500, Note_on_c, 7, 57, 64
9, 25541, Note_on_c, 7, 57, 0
9, 25560, Note_on_c, 7, 61, 64
9, 25601, Note_on_c, 7, 61, 0
9, 25620, Note_on_c, 7, 61, 64
9, 25661, Note_on_c, 7, 61, 0
9, 25680, Note_on_c, 7, 54, 64
9, 25721, Note_on_c, 7, 54, 0
9, 25740, Note_on_c, 7, 54, 64
9, 25781, Note_on_c, 7, 54, 0
9, 25800, Note_on_c, 7, 63, 64
9, 25841, Note_on_c, 7, 63, 0
9, 25860, Note_on_c, 7, 63, 64
9, 25901, Note_on_c, 7, 63, 0
9, 25920, Note_on_c, 7, 59, 64
9, 25961, Note_on_c, 7, 59, 0
9, 25980, Note_on_c, 7, 59, 64
9, 26021, Note_on_c, 7, 59, 0
9, 26100, Note_on_c, 7, 61, 64
9, 26141, Note_on_c, 7, 61, 0
9, 26160, Note_on_c, 7, 59, 64
9, 26201, Note_on_c, 7, 59, 0
9, 26220, Note_on_c, 7, 56, 64
9, 26261, Note_on_c, 7, 56, 0
9, 26280, Note_on_c, 7, 61, 64
9, 26321, Note_on_c, 7, 61, 0
9, 26340, Note_on_c, 7, 56, 64
9, 26381, Note_on_c, 7, 56, 0
9, 26400, Note_on_c, 7, 49, 64
9, 26520, Note_on_c, 7, 49, 0
9, 26580, Note_on_c, 7, 66, 64
9, 26610, Note_on_c, 7, 66, 0
9, 26610, Note_on_c, 7, 73, 64
9, 26640, Note_on_c, 7, 73, 0
9, 26640, Note_on_c, 7, 73, 64
9, 26670, Note_on_c, 7, 73, 0
9, 26670, Note_on_c, 7, 69, 64
9, 26700, Note_on_c, 7, 69, 0
9, 26700, Note_on_c, 7, 69, 64
9, 26730, Note_on_c, 7, 69, 0
9, 26730, Note_on_c, 7, 66, 64
9, 26760, Note_on_c, 7, 66, 0
9, 26760, Note_on_c, 7, 66, 64
9, 26880, Note_on_c, 7, 66, 0
9, 26940, Note_on_c, 7, 66, 64
9, 26970, Note_on_c, 7, 66, 0
9, 26970, Note_on_c, 7, 73, 64
9, 27000, Note_on_c, 7, 73, 0
9, 27000, Note_on_c, 7, 73, 64
9, 27030, Note_on_c, 7, 73, 0
9, 27030, Note_on_c, 7, 69, 64
9, 27060, Note_on_c, 7, 69, 0
9, 27060, Note_on_c, 7, 69, 64
9, 27090, Note_on_c, 7, 69, 0
9, 27090, Note_on_c, 7, 66, 64
9, 27120, Note_on_c, 7, 66, 0
9, 27120, Note_on_c, 7, 66, 64
9, 27240, Note_on_c, 7, 66, 0
9, 27300, Note_on_c, 7, 66, 64
9, 27330, Note_on_c, 7, 66, 0
9, 27330, Note_on_c, 7, 75, 64
9, 27360, Note_on_c, 7, 75, 0
9, 27360, Note_on_c, 7, 75, 64
9, 27390, Note_on_c, 7, 75, 0
9, 27390, Note_on_c, 7, 72, 64
9, 27420, Note_on_c, 7, 72, 0
9, 27420, Note_on_c, 7, 72, 64
9, 27450, Note_on_c, 7, 72, 0
9, 27450, Note_on_c, 7, 66, 64
9, 27480, Note_on_c, 7, 66, 0
9, 27480, Note_on_c, 7, 66, 64
9, 27600, Note_on_c, 7, 66, 0
9, 27660, Note_on_c, 7, 66, 64
9, 27690, Note_on_c, 7, 66, 0
9, 27690, Note_on_c, 7, 73, 64
9, 27720, Note_on_c, 7, 73, 0
9, 27720, Note_on_c, 7, 73, 64
9, 27750, Note_on_c, 7, 73, 0
9, 27750, Note_on_c, 7, 69, 64
9, 27780, Note_on_c, 7, 69, 0
9, 27780, Note_on_c, 7, 69, 64
9, 27810, Note_on_c, 7, 69, 0
9, 27810, Note_on_c, 7, 66, 64
9, 27840, Note_on_c, 7, 66, 0
9, 27840, Note_on_c, 7, 66, 64
9, 27960, Note_on_c, 7, 66, 0
9, 28020, Note_on_c, 7, 66, 64
9, 28050, Note_on_c, 7, 66, 0
9, 28050, Note_on_c, 7, 63, 64
9, 28080, Note_on_c, 7, 63, 0
9, 28080, Note_on_c, 7, 63, 64
9, 28110, Note_on_c, 7, 63, 0
9, 28110, Note_on_c, 7, 66, 64
9, 28140, Note_on_c, 7, 66, 0
9, 28140, Note_on_c, 7, 66, 64
9, 28170, Note_on_c, 7, 66, 0
9, 28170, Note_on_c, 7, 68, 64
9, 28200, Note_on_c, 7, 68, 0
9, 28200, Note_on_c, 7, 68, 64
9, 28320, Note_on_c, 7, 68, 0
9, 28380, Note_on_c, 7, 68, 69
9, 28410, Note_on_c, 7, 68, 0
9, 28410, Note_on_c, 7, 65, 70
9, 28440, Note_on_c, 7, 65, 0
9, 28440, Note_on_c, 7, 65, 71
9, 28470, Note_on_c, 7, 65, 0
9, 28470, Note_on_c, 7, 56, 72
9, 28500, Note_on_c, 7, 56, 0
9, 28500, Note_on_c, 7, 56, 72
9, 28530, Note_on_c, 7, 56, 0
9, 28530, Note_on_c, 7, 57, 73
9, 28560, Note_on_c, 7, 57, 0
9, 28560, Note_on_c, 7, 57, 75
9, 28601, Note_on_c, 7, 57, 0
9, 28620, Note_on_c, 7, 73, 76
9, 28650, Note_on_c, 7, 73, 0
9, 28650, Note_on_c, 7, 69, 76
9, 28680, Note_on_c, 7, 69, 0
9, 28680, Note_on_c, 7, 69, 77
9, 28710, Note_on_c, 7, 69, 0
9, 28710, Note_on_c, 7, 66, 77
9, 28740, Note_on_c, 7, 66, 0
9, 28740, Note_on_c, 7, 66, 78
9, 28770, Note_on_c, 7, 66, 0
9, 28770, Note_on_c, 7, 62, 78
9, 28800, Note_on_c, 7, 62, 0
9, 28800, Note_on_c, 7, 62, 78
9, 28830, Note_on_c, 7, 62, 0
9, 28830, Note_on_c, 7, 56, 79
9, 28860, Note_on_c, 7, 56, 0
9, 28860, Note_on_c, 7, 56, 79
9, 28890, Note_on_c, 7, 56, 0
9, 28890, Note_on_c, 7, 61, 80
9, 28920, Note_on_c, 7, 61, 0
9, 28920, Note_on_c, 7, 61, 64
9, 28961, Note_on_c, 7, 61, 0
9, 32340, Note_on_c, 7, 59, 62
9, 32381, Note_on_c, 7, 59, 0
9, 32400, Note_on_c, 7, 64, 63
9, 32441, Note_on_c, 7, 64, 0
9, 32460, Note_on_c, 7, 59, 63
9, 32501, Note_on_c, 7, 59, 0
9, 32520, Note_on_c, 7, 56, 64
9, 32550, Note_on_c, 7, 56, 0
9, 32550, Note_on_c, 7, 54, 64
9, 32580, Note_on_c, 7, 54, 0
9, 32580, Note_on_c, 7, 56, 64
9, 32610, Note_on_c, 7, 56, 0
9, 32610, Note_on_c, 7, 57, 64
9, 32640, Note_on_c, 7, 57, 0
9, 32640, Note_on_c, 7, 59, 64
9, 32681, Note_on_c, 7, 59, 0
9, 32700, Note_on_c, 7, 56, 64
9, 32741, Note_on_c, 7, 56, 0
9, 32760, Note_on_c, 7, 59, 64
9, 32801, Note_on_c, 7, 59, 0
9, 32820, Note_on_c, 7, 56, 64
9, 32861, Note_on_c, 7, 56, 0
9, 32880, Note_on_c, 7, 52, 64
9, 32921, Note_on_c, 7, 52, 0
9, 32940, Note_on_c, 7, 56, 64
9, 32970, Note_on_c, 7, 56, 0
9, 32970, Note_on_c, 7, 54, 64
9, 33000, Note_on_c, 7, 54, 0
9, 33000, Note_on_c, 7, 52, 64
9, 33041, Note_on_c, 7, 52, 0
9, 33060, Note_on_c, 7, 56, 64
9, 33101, Note_on_c, 7, 56, 0
9, 33120, Note_on_c, 7, 57, 64
9, 33161, Note_on_c, 7, 57, 0
9, 33180, Note_on_c, 7, 61, 64
9, 33221, Note_on_c, 7, 61, 0
9, 33240, Note_on_c, 7, 54, 64
9, 33281, Note_on_c, 7, 54, 0
9, 33300, Note_on_c, 7, 57, 64
9, 33330, Note_on_c, 7, 57, 0
9, 33330, Note_on_c, 7, 56, 64
9, 33360, Note_on_c, 7, 56, 0
9, 33360, Note_on_c, 7, 54, 64
9, 33401, Note_on_c, 7, 54, 0
9, 33420, Note_on_c, 7, 57, 64
9, 33461, Note_on_c, 7, 57, 0
9, 33480, Note_on_c, 7, 59, 64
9, 33521, Note_on_c, 7, 59, 0
9, 33540, Note_on_c, 7, 62, 64
9, 33581, Note_on_c, 7, 62, 0
9, 33600, Note_on_c, 7, 56, 64
9, 33641, Note_on_c, 7, 56, 0
9, 33660, Note_on_c, 7, 59, 64
9, 33690, Note_on_c, 7, 59, 0
9, 33690, Note_on_c, 7, 57, 64
9, 33720, Note_on_c, 7, 57, 0
9, 33720, Note_on_c, 7, 56, 64
9, 33761, Note_on_c, 7, 56, 0
9, 33780, Note_on_c, 7, 59, 64
9, 33821, Note_on_c, 7, 59, 0
9, 33840, Note_on_c, 7, 52, 64
9, 33881, Note_on_c, 7, 52, 0
9, 33900, Note_on_c, 7, 64, 64
9, 33941, Note_on_c, 7, 64, 0
9, 33960, Note_on_c, 7, 62, 64
9, 33975, Note_on_c, 7, 62, 0
9, 33975, Note_on_c, 7, 61, 64
9, 33990, Note_on_c, 7, 61, 0
9, 33990, Note_on_c, 7, 62, 64
9, 34005, Note_on_c, 7, 62, 0
9, 34005, Note_on_c, 7, 61, 64
9, 34020, Note_on_c, 7, 61, 0
9, 34020, Note_on_c, 7, 59, 64
9, 34050, Note_on_c, 7, 59, 0
9, 34050, Note_on_c, 7, 61, 64
9, 34080, Note_on_c, 7, 61, 0
9, 34080, Note_on_c, 7, 57, 64
9, 34121, Note_on_c, 7, 57, 0
9, 34140, Note_on_c, 7, 64, 64
9, 34181, Note_on_c, 7, 64, 0
9, 34200, Note_on_c, 7, 61, 64
9, 34241, Note_on_c, 7, 61, 0
9, 34260, Note_on_c, 7, 64, 64
9, 34301, Note_on_c, 7, 64, 0
9, 34320, Note_on_c, 7, 57, 64
9, 34350, Note_on_c, 7, 57, 0
9, 34350, Note_on_c, 7, 56, 64
9, 34380, Note_on_c, 7, 56, 0
9, 34380, Note_on_c, 7, 57, 64
9, 34410, Note_on_c, 7, 57, 0
9, 34410, Note_on_c, 7, 59, 64
9, 34440, Note_on_c, 7, 59, 0
9, 34440, Note_on_c, 7, 61, 64
9, 34470, Note_on_c, 7, 61, 0
9, 34470, Note_on_c, 7, 59, 64
9, 34500, Note_on_c, 7, 59, 0
9, 34500, Note_on_c, 7, 57, 64
9, 34530, Note_on_c, 7, 57, 0
9, 34530, Note_on_c, 7, 59, 64
9, 34560, Note_on_c, 7, 59, 0
9, 34560, Note_on_c, 7, 61, 64
9, 34590, Note_on_c, 7, 61, 0
9, 34590, Note_on_c, 7, 59, 64
9, 34620, Note_on_c, 7, 59, 0
9, 34620, Note_on_c, 7, 57, 64
9, 34650, Note_on_c, 7, 57, 0
9, 34650, Note_on_c, 7, 59, 64
9, 34680, Note_on_c, 7, 59, 0
9, 34680, Note_on_c, 7, 61, 64
9, 34710, Note_on_c, 7, 61, 0
9, 34710, Note_on_c, 7, 59, 64
9, 34740, Note_on_c, 7, 59, 0
9, 34740, Note_on_c, 7, 57, 64
9, 34770, Note_on_c, 7, 57, 0
9, 34770, Note_on_c, 7, 59, 64
9, 34800, Note_on_c, 7, 59, 0
9, 34800, Note_on_c, 7, 61, 64
9, 34830, Note_on_c, 7, 61, 0
9, 34830, Note_on_c, 7, 62, 64
9, 34860, Note_on_c, 7, 62, 0
9, 34860, Note_on_c, 7, 64, 64
9, 34890, Note_on_c, 7, 64, 0
9, 34890, Note_on_c, 7, 62, 64
9, 34920, Note_on_c, 7, 62, 0
9, 34920, Note_on_c, 7, 66, 64
9, 34950, Note_on_c, 7, 66, 0
9, 34950, Note_on_c, 7, 64, 64
9, 34980, Note_on_c, 7, 64, 0
9, 34980, Note_on_c, 7, 62, 64
9, 35010, Note_on_c, 7, 62, 0
9, 35010, Note_on_c, 7, 61, 64
9, 35040, Note_on_c, 7, 61, 0
9, 35040, Note_on_c, 7, 62, 64
9, 35070, Note_on_c, 7, 62, 0
9, 35070, Note_on_c, 7, 61, 64
9, 35100, Note_on_c, 7, 61, 0
9, 35100, Note_on_c, 7, 59, 64
9, 35130, Note_on_c, 7, 59, 0
9, 35130, Note_on_c, 7, 61, 64
9, 35160, Note_on_c, 7, 61, 0
9, 35160, Note_on_c, 7, 62, 64
9, 35190, Note_on_c, 7, 62, 0
9, 35190, Note_on_c, 7, 64, 64
9, 35220, Note_on_c, 7, 64, 0
9, 35220, Note_on_c, 7, 66, 64
9, 35250, Note_on_c, 7, 66, 0
9, 35250, Note_on_c, 7, 64, 64
9, 35280, Note_on_c, 7, 64, 0
9, 35280, Note_on_c, 7, 67, 64
9, 35310, Note_on_c, 7, 67, 0
9, 35310, Note_on_c, 7, 66, 64
9, 35340, Note_on_c, 7, 66, 0
9, 35340, Note_on_c, 7, 64, 64
9, 35370, Note_on_c, 7, 64, 0
9, 35370, Note_on_c, 7, 62, 64
9, 35400, Note_on_c, 7, 62, 0
9, 35400, Note_on_c, 7, 64, 64
9, 35430, Note_on_c, 7, 64, 0
9, 35430, Note_on_c, 7, 62, 64
9, 35460, Note_on_c, 7, 62, 0
9, 35460, Note_on_c, 7, 61, 64
9, 35490, Note_on_c, 7, 61, 0
9, 35490, Note_on_c, 7, 62, 64
9, 35520, Note_on_c, 7, 62, 0
9, 35520, Note_on_c, 7, 64, 64
9, 35550, Note_on_c, 7, 64, 0
9, 35550, Note_on_c, 7, 66, 64
9, 35580, Note_on_c, 7, 66, 0
9, 35580, Note_on_c, 7, 67, 64
9, 35610, Note_on_c, 7, 67, 0
9, 35610, Note_on_c, 7, 66, 64
9, 35640, Note_on_c, 7, 66, 0
9, 35640, Note_on_c, 7, 69, 64
9, 35670, Note_on_c, 7, 69, 0
9, 35670, Note_on_c, 7, 67, 64
9, 35700, Note_on_c, 7, 67, 0
9, 35700, Note_on_c, 7, 66, 64
9, 35730, Note_on_c, 7, 66, 0
9, 35730, Note_on_c, 7, 64, 64
9, 35760, Note_on_c, 7, 64, 0
9, 35760, Note_on_c, 7, 62, 64
9, 35940, Note_on_c, 7, 62, 0
9, 35940, Note_on_c, 7, 61, 64
9, 35970, Note_on_c, 7, 61, 0
9, 35970, Note_on_c, 7, 59, 64
9, 36000, Note_on_c, 7, 59, 0
9, 36000, Note_on_c, 7, 57, 64
9, 36161, Note_on_c, 7, 57, 0
9, 36180, Note_on_c, 7, 62, 64
9, 36210, Note_on_c, 7, 62, 0
9, 36210, Note_on_c, 7, 61, 64
9, 36240, Note_on_c, 7, 61, 0
9, 36240, Note_on_c, 7, 62, 64
9, 36390, Note_on_c, 7, 62, 0
9, 36390, Note_on_c, 7, 59, 65
9, 36420, Note_on_c, 7, 59, 0
9, 36420, Note_on_c, 7, 57, 65
9, 36450, Note_on_c, 7, 57, 0
9, 36450, Note_on_c, 7, 55, 65
9, 36480, Note_on_c, 7, 55, 0
9, 36480, Note_on_c, 7, 54, 65
9, 36521, Note_on_c, 7, 54, 0
9, 36540, Note_on_c, 7, 57, 65
9, 36581, Note_on_c, 7, 57, 0
9, 36600, Note_on_c, 7, 62, 65
9, 36750, Note_on_c, 7, 62, 0
9, 36750, Note_on_c, 7, 60, 66
9, 36780, Note_on_c, 7, 60, 0
9, 36780, Note_on_c, 7, 59, 66
9, 36810, Note_on_c, 7, 59, 0
9, 36810, Note_on_c, 7, 57, 66
9, 36840, Note_on_c, 7, 57, 0
9, 36840, Note_on_c, 7, 55, 66
9, 36990, Note_on_c, 7, 55, 0
9, 36990, Note_on_c, 7, 54, 66
9, 37020, Note_on_c, 7, 54, 0
9, 37020, Note_on_c, 7, 55, 66
9, 37050, Note_on_c, 7, 55, 0
9, 37050, Note_on_c, 7, 54, 66
9, 37080, Note_on_c, 7, 54, 0
9, 37080, Note_on_c, 7, 52, 66
9, 37121, Note_on_c, 7, 52, 0
9, 37140, Note_on_c, 7, 57, 66
9, 37230, Note_on_c, 7, 57, 0
9, 37230, Note_on_c, 7, 59, 67
9, 37260, Note_on_c, 7, 59, 0
9, 37260, Note_on_c, 7, 60, 67
9, 37290, Note_on_c, 7, 60, 0
9, 37290, Note_on_c, 7, 59, 67
9, 37320, Note_on_c, 7, 59, 0
9, 37320, Note_on_c, 7, 57, 67
9, 37350, Note_on_c, 7, 57, 0
9, 37350, Note_on_c, 7, 55, 67
9, 37380, Note_on_c, 7, 55, 0
9, 37380, Note_on_c, 7, 54, 67
9, 37410, Note_on_c, 7, 54, 0
9, 37410, Note_on_c, 7, 55, 67
9, 37440, Note_on_c, 7, 55, 0
9, 37440, Note_on_c, 7, 57, 67
9, 37470, Note_on_c, 7, 57, 0
9, 37470, Note_on_c, 7, 54, 67
9, 37500, Note_on_c, 7, 54, 0
9, 37500, Note_on_c, 7, 55, 67
9, 37530, Note_on_c, 7, 55, 0
9, 37530, Note_on_c, 7, 57, 67
9, 37560, Note_on_c, 7, 57, 0
9, 37560, Note_on_c, 7, 59, 67
9, 37590, Note_on_c, 7, 59, 0
9, 37590, Note_on_c, 7, 57, 68
9, 37620, Note_on_c, 7, 57, 0
9, 37620, Note_on_c, 7, 59, 68
9, 37650, Note_on_c, 7, 59, 0
9, 37650, Note_on_c, 7, 60, 68
9, 37680, Note_on_c, 7, 60, 0
9, 37680, Note_on_c, 7, 62, 68
9, 37721, Note_on_c, 7, 62, 0
9, 37740, Note_on_c, 7, 67, 68
9, 37830, Note_on_c, 7, 67, 0
9, 37830, Note_on_c, 7, 66, 68
9, 37860, Note_on_c, 7, 66, 0
9, 37860, Note_on_c, 7, 64, 68
9, 37890, Note_on_c, 7, 64, 0
9, 37890, Note_on_c, 7, 62, 68
9, 37920, Note_on_c, 7, 62, 0
9, 37920, Note_on_c, 7, 64, 68
9, 37950, Note_on_c, 7, 64, 0
9, 37950, Note_on_c, 7, 66, 68
9, 37980, Note_on_c, 7, 66, 0
9, 37980, Note_on_c, 7, 67, 68
9, 38070, Note_on_c, 7, 67, 0
9, 38070, Note_on_c, 7, 66, 69
9, 38100, Note_on_c, 7, 66, 0
9, 38100, Note_on_c, 7, 64, 69
9, 38130, Note_on_c, 7, 64, 0
9, 38130, Note_on_c, 7, 62, 69
9, 38160, Note_on_c, 7, 62, 0
9, 38160, Note_on_c, 7, 61, 69
9, 38190, Note_on_c, 7, 61, 0
9, 38190, Note_on_c, 7, 59, 69
9, 38220, Note_on_c, 7, 59, 0
9, 38220, Note_on_c, 7, 57, 69
9, 38250, Note_on_c, 7, 57, 0
9, 38250, Note_on_c, 7, 55, 69
9, 38280, Note_on_c, 7, 55, 0
9, 38280, Note_on_c, 7, 57, 69
9, 38310, Note_on_c, 7, 57, 0
9, 38310, Note_on_c, 7, 59, 69
9, 38340, Note_on_c, 7, 59, 0
9, 38340, Note_on_c, 7, 61, 69
9, 38441, Note_on_c, 7, 61, 0
9, 38460, Note_on_c, 7, 57, 70
9, 38501, Note_on_c, 7, 57, 0
9, 38520, Note_on_c, 7, 66, 70
9, 38550, Note_on_c, 7, 66, 0
9, 38550, Note_on_c, 7, 64, 70
9, 38580, Note_on_c, 7, 64, 0
9, 38580, Note_on_c, 7, 62, 70
9, 38610, Note_on_c, 7, 62, 0
9, 38610, Note_on_c, 7, 61, 70
9, 38640, Note_on_c, 7, 61, 0
9, 38640, Note_on_c, 7, 63, 70
9, 38670, Note_on_c, 7, 63, 0
9, 38670, Note_on_c, 7, 64, 70
9, 38700, Note_on_c, 7, 64, 0
9, 38700, Note_on_c, 7, 66, 71
9, 38790, Note_on_c, 7, 66, 0
9, 38790, Note_on_c, 7, 64, 71
9, 38820, Note_on_c, 7, 64, 0
9, 38820, Note_on_c, 7, 63, 72
9, 38850, Note_on_c, 7, 63, 0
9, 38850, Note_on_c, 7, 61, 72
9, 38880, Note_on_c, 7, 61, 0
9, 38880, Note_on_c, 7, 59, 72
9, 39030, Note_on_c, 7, 59, 0
9, 39030, Note_on_c, 7, 57, 74
9, 39060, Note_on_c, 7, 57, 0
9, 39060, Note_on_c, 7, 55, 74
9, 39090, Note_on_c, 7, 55, 0
9, 39090, Note_on_c, 7, 57, 74
9, 39120, Note_on_c, 7, 57, 0
9, 39120, Note_on_c, 7, 59, 74
9, 39161, Note_on_c, 7, 59, 0
9, 39180, Note_on_c, 7, 64, 75
9, 39221, Note_on_c, 7, 64, 0
9, 39240, Note_on_c, 7, 69, 76
9, 39281, Note_on_c, 7, 69, 0
9, 39300, Note_on_c, 7, 64, 76
9, 39341, Note_on_c, 7, 64, 0
9, 39360, Note_on_c, 7, 64, 77
9, 39401, Note_on_c, 7, 64, 0
9, 39420, Note_on_c, 7, 64, 77
9, 39461, Note_on_c, 7, 64, 0
9, 39480, Note_on_c, 7, 69, 78
9, 39521, Note_on_c, 7, 69, 0
9, 39540, Note_on_c, 7, 69, 78
9, 39581, Note_on_c, 7, 69, 0
9, 39600, Note_on_c, 7, 62, 79
9, 39641, Note_on_c, 7, 62, 0
9, 39660, Note_on_c, 7, 69, 79
9, 39701, Note_on_c, 7, 69, 0
9, 39720, Note_on_c, 7, 69, 75
9, 39840, Note_on_c, 7, 69, 0
9, 39900, Note_on_c, 7, 74, 75
9, 39930, Note_on_c, 7, 74, 0
9, 39930, Note_on_c, 7, 69, 75
9, 39960, Note_on_c, 7, 69, 0
9, 39960, Note_on_c, 7, 69, 75
9, 39990, Note_on_c, 7, 69, 0
9, 39990, Note_on_c, 7, 66, 75
9, 40020, Note_on_c, 7, 66, 0
9, 40020, Note_on_c, 7, 66, 75
9, 40050, Note_on_c, 7, 66, 0
9, 40050, Note_on_c, 7, 62, 75
9, 40080, Note_on_c, 7, 62, 0
9, 40080, Note_on_c, 7, 62, 75
9, 40200, Note_on_c, 7, 62, 0
9, 40260, Note_on_c, 7, 74, 75
9, 40290, Note_on_c, 7, 74, 0
9, 40290, Note_on_c, 7, 69, 75
9, 40320, Note_on_c, 7, 69, 0
9, 40320, Note_on_c, 7, 69, 75
9, 40350, Note_on_c, 7, 69, 0
9, 40350, Note_on_c, 7, 66, 75
9, 40380, Note_on_c, 7, 66, 0
9, 40380, Note_on_c, 7, 66, 75
9, 40410, Note_on_c, 7, 66, 0
9, 40410, Note_on_c, 7, 62, 75
9, 40440, Note_on_c, 7, 62, 0
9, 40440, Note_on_c, 7, 62, 75
9, 40560, Note_on_c, 7, 62, 0
9, 40620, Note_on_c, 7, 74, 77
9, 40650, Note_on_c, 7, 74, 0
9, 40650, Note_on_c, 7, 71, 77
9, 40680, Note_on_c, 7, 71, 0
9, 40680, Note_on_c, 7, 71, 77
9, 40710, Note_on_c, 7, 71, 0
9, 40710, Note_on_c, 7, 68, 78
9, 40740, Note_on_c, 7, 68, 0
9, 40740, Note_on_c, 7, 68, 78
9, 40770, Note_on_c, 7, 68, 0
9, 40770, Note_on_c, 7, 62, 78
9, 40800, Note_on_c, 7, 62, 0
9, 40800, Note_on_c, 7, 62, 78
9, 40920, Note_on_c, 7, 62, 0
9, 40980, Note_on_c, 7, 74, 80
9, 41010, Note_on_c, 7, 74, 0
9, 41010, Note_on_c, 7, 69, 80
9, 41040, Note_on_c, 7, 69, 0
9, 41040, Note_on_c, 7, 69, 81
9, 41070, Note_on_c, 7, 69, 0
9, 41070, Note_on_c, 7, 65, 81
9, 41100, Note_on_c, 7, 65, 0
9, 41100, Note_on_c, 7, 65, 81
9, 41130, Note_on_c, 7, 65, 0
9, 41130, Note_on_c, 7, 62, 81
9, 41160, Note_on_c, 7, 62, 0
9, 41160, Note_on_c, 7, 62, 82
9, 41280, Note_on_c, 7, 62, 0
9, 41340, Note_on_c, 7, 74, 83
9, 41370, Note_on_c, 7, 74, 0
9, 41370, Note_on_c, 7, 71, 84
9, 41400, Note_on_c, 7, 71, 0
9, 41400, Note_on_c, 7, 71, 84
9, 41430, Note_on_c, 7, 71, 0
9, 41430, Note_on_c, 7, 62, 84
9, 41460, Note_on_c, 7, 62, 0
9, 41460, Note_on_c, 7, 62, 84
9, 41490, Note_on_c, 7, 62, 0
9, 41490, Note_on_c, 7, 61, 85
9, 41520, Note_on_c, 7, 61, 0
9, 41520, Note_on_c, 7, 61, 85
9, 41640, Note_on_c, 7, 61, 0
9, 41700, Note_on_c, 7, 76, 77
9, 41730, Note_on_c, 7, 76, 0
9, 41730, Note_on_c, 7, 73, 76
9, 41760, Note_on_c, 7, 73, 0
9, 41760, Note_on_c, 7, 73, 75
9, 41790, Note_on_c, 7, 73, 0
9, 41790, Note_on_c, 7, 69, 74
9, 41820, Note_on_c, 7, 69, 0
9, 41820, Note_on_c, 7, 69, 72
9, 41850, Note_on_c, 7, 69, 0
9, 41850, Note_on_c, 7, 62, 71
9, 41880, Note_on_c, 7, 62, 0
9, 41880, Note_on_c, 7, 62, 70
9, 41910, Note_on_c, 7, 62, 0
9, 41910, Note_on_c, 7, 61, 70
9, 41940, Note_on_c, 7, 61, 0
9, 41940, Note_on_c, 7, 62, 71
9, 41970, Note_on_c, 7, 62, 0
9, 41970, Note_on_c, 7, 61, 71
9, 42000, Note_on_c, 7, 61, 0
9, 42000, Note_on_c, 7, 62, 71
9, 42041, Note_on_c, 7, 62, 0
9, 42060, Note_on_c, 7, 66, 72
9, 42101, Note_on_c, 7, 66, 0
9, 42120, Note_on_c, 7, 64, 72
9, 42161, Note_on_c, 7, 64, 0
9, 42180, Note_on_c, 7, 62, 73
9, 42281, Note_on_c, 7, 62, 0
9, 42300, Note_on_c, 7, 67, 74
9, 42341, Note_on_c, 7, 67, 0
9, 42360, Note_on_c, 7, 59, 74
9, 42401, Note_on_c, 7, 59, 0
9, 42420, Note_on_c, 7, 67, 75
9, 42461, Note_on_c, 7, 67, 0
9, 42480, Note_on_c, 7, 66, 75
9, 42521, Note_on_c, 7, 66, 0
9, 42540, Note_on_c, 7, 64, 76
9, 42641, Note_on_c, 7, 64, 0
9, 42660, Note_on_c, 7, 69, 77
9, 42701, Note_on_c, 7, 69, 0
9, 42720, Note_on_c, 7, 61, 77
9, 42761, Note_on_c, 7, 61, 0
9, 42780, Note_on_c, 7, 69, 78
9, 42821, Note_on_c, 7, 69, 0
9, 42840, Note_on_c, 7, 67, 78
9, 42881, Note_on_c, 7, 67, 0
9, 42900, Note_on_c, 7, 66, 79
9, 43001, Note_on_c, 7, 66, 0
9, 43020, Note_on_c, 7, 67, 80
9, 43061, Note_on_c, 7, 67, 0
9, 43080, Note_on_c, 7, 62, 80
9, 43121, Note_on_c, 7, 62, 0
9, 43140, Note_on_c, 7, 59, 81
9, 43181, Note_on_c, 7, 59, 0
9, 43200, Note_on_c, 7, 61, 81
9, 43241, Note_on_c, 7, 61, 0
9, 43260, Note_on_c, 7, 62, 82
9, 43301, Note_on_c, 7, 62, 0
9, 43320, Note_on_c, 7, 61, 82
9, 43361, Note_on_c, 7, 61, 0
9, 43380, Note_on_c, 7, 64, 83
9, 43500, Note_on_c, 7, 64, 0
9, 43500, Note_on_c, 7, 61, 84
9, 43541, Note_on_c, 7, 61, 0
9, 43560, Note_on_c, 7, 62, 84
9, 43601, Note_on_c, 7, 62, 0
9, 43620, Note_on_c, 7, 69, 85
9, 43650, Note_on_c, 7, 69, 0
9, 43650, Note_on_c, 7, 67, 85
9, 43680, Note_on_c, 7, 67, 0
9, 43680, Note_on_c, 7, 66, 80
9, 43721, Note_on_c, 7, 66, 0
9, 43740, Note_on_c, 7, 62, 81
9, 43781, Note_on_c, 7, 62, 0
9, 43800, Note_on_c, 7, 66, 81
9, 43841, Note_on_c, 7, 66, 0
9, 43860, Note_on_c, 7, 69, 82
9, 43901, Note_on_c, 7, 69, 0
9, 43920, Note_on_c, 7, 62, 82
9, 44081, Note_on_c, 7, 62, 0
9, 44100, Note_on_c, 7, 61, 84
9, 44141, Note_on_c, 7, 61, 0
9, 44160, Note_on_c, 7, 64, 84
9, 44201, Note_on_c, 7, 64, 0
9, 44220, Note_on_c, 7, 67, 85
9, 44261, Note_on_c, 7, 67, 0
9, 44280, Note_on_c, 7, 61, 86
9, 44441, Note_on_c, 7, 61, 0
9, 44460, Note_on_c, 7, 59, 87
9, 44501, Note_on_c, 7, 59, 0
9, 44520, Note_on_c, 7, 62, 88
9, 44561, Note_on_c, 7, 62, 0
9, 44580, Note_on_c, 7, 66, 88
9, 44621, Note_on_c, 7, 66, 0
9, 44640, Note_on_c, 7, 59, 89
9, 44801, Note_on_c, 7, 59, 0
9, 44820, Note_on_c, 7, 59, 91
9, 44861, Note_on_c, 7, 59, 0
9, 44880, Note_on_c, 7, 64, 91
9, 44921, Note_on_c, 7, 64, 0
9, 44940, Note_on_c, 7, 64, 92
9, 44981, Note_on_c, 7, 64, 0
9, 45000, Note_on_c, 7, 64, 92
9, 45041, Note_on_c, 7, 64, 0
9, 45060, Note_on_c, 7, 64, 93
9, 45101, Note_on_c, 7, 64, 0
9, 45120, Note_on_c, 7, 64, 93
9, 45240, Note_on_c, 7, 64, 0
9, 45300, Note_on_c, 7, 64, 95
9, 45341, Note_on_c, 7, 64, 0
9, 45360, Note_on_c, 7, 66, 96
9, 45401, Note_on_c, 7, 66, 0
9, 45420, Note_on_c, 7, 61, 96
9, 45461, Note_on_c, 7, 61, 0
9, 45480, Note_on_c, 7, 66, 97
9, 45510, Note_on_c, 7, 66, 0
9, 45510, Note_on_c, 7, 67, 97
9, 45540, Note_on_c, 7, 67, 0
9, 45540, Note_on_c, 7, 66, 97
9, 45570, Note_on_c, 7, 66, 0
9, 45570, Note_on_c, 7, 64, 98
9, 45600, Note_on_c, 7, 64, 0
9, 45600, Note_on_c, 7, 62, 98
9, 45641, Note_on_c, 7, 62, 0
9, 45660, Note_on_c, 7, 59, 98
9, 45701, Note_on_c, 7, 59, 0
9, 45720, Note_on_c, 7, 64, 99
9, 45761, Note_on_c, 7, 64, 0
9, 45780, Note_on_c, 7, 64, 99
9, 45821, Note_on_c, 7, 64, 0
9, 45840, Note_on_c, 7, 66, 100
9, 46200, Note_on_c, 7, 66, 0
9, 46560, End_track
10, 0, Start_track
10, 0, MIDI_port, 0
10, 0, Title_t, "Cello"
10, 0, Program_c, 8, 48
10, 120, Control_c, 8, 7, 100
10, 120, Note_on_c, 8, 38, 64
10, 240, Note_on_c, 8, 38, 0
10, 540, Note_on_c, 8, 50, 64
10, 581, Note_on_c, 8, 50, 0
10, 600, Note_on_c, 8, 38, 64
10, 641, Note_on_c, 8, 38, 0
10, 660, Note_on_c, 8, 50, 64
10, 701, Note_on_c, 8, 50, 0
10, 720, Note_on_c, 8, 38, 64
10, 761, Note_on_c, 8, 38, 0
10, 780, Note_on_c, 8, 50, 64
10, 821, Note_on_c, 8, 50, 0
10, 840, Note_on_c, 8, 49, 64
10, 960, Note_on_c, 8, 49, 0
10, 1260, Note_on_c, 8, 57, 64
10, 1301, Note_on_c, 8, 57, 0
10, 1320, Note_on_c, 8, 45, 64
10, 1361, Note_on_c, 8, 45, 0
10, 1380, Note_on_c, 8, 57, 64
10, 1421, Note_on_c, 8, 57, 0
10, 1440, Note_on_c, 8, 45, 64
10, 1481, Note_on_c, 8, 45, 0
10, 1500, Note_on_c, 8, 57, 64
10, 1541, Note_on_c, 8, 57, 0
10, 1560, Note_on_c, 8, 50, 64
10, 1601, Note_on_c, 8, 50, 0
10, 1620, Note_on_c, 8, 62, 64
10, 1650, Note_on_c, 8, 62, 0
10, 1650, Note_on_c, 8, 57, 64
10, 1680, Note_on_c, 8, 57, 0
10, 1680, Note_on_c, 8, 57, 64
10, 1710, Note_on_c, 8, 57, 0
10, 1710, Note_on_c, 8, 54, 64
10, 1740, Note_on_c, 8, 54, 0
10, 1740, Note_on_c, 8, 54, 64
10, 1770, Note_on_c, 8, 54, 0
10, 1770, Note_on_c, 8, 50, 64
10, 1800, Note_on_c, 8, 50, 0
10, 1800, Note_on_c, 8, 50, 64
10, 1830, Note_on_c, 8, 50, 0
10, 1830, Note_on_c, 8, 54, 64
10, 1860, Note_on_c, 8, 54, 0
10, 1860, Note_on_c, 8, 54, 64
10, 1890, Note_on_c, 8, 54, 0
10, 1890, Note_on_c, 8, 50, 64
10, 1920, Note_on_c, 8, 50, 0
10, 1920, Note_on_c, 8, 47, 64
10, 1961, Note_on_c, 8, 47, 0
10, 1980, Note_on_c, 8, 59, 64
10, 2010, Note_on_c, 8, 59, 0
10, 2010, Note_on_c, 8, 54, 64
10, 2040, Note_on_c, 8, 54, 0
10, 2040, Note_on_c, 8, 54, 64
10, 2070, Note_on_c, 8, 54, 0
10, 2070, Note_on_c, 8, 50, 64
10, 2100, Note_on_c, 8, 50, 0
10, 2100, Note_on_c, 8, 50, 64
10, 2130, Note_on_c, 8, 50, 0
10, 2130, Note_on_c, 8, 47, 64
10, 2160, Note_on_c, 8, 47, 0
10, 2160, Note_on_c, 8, 47, 64
10, 2190, Note_on_c, 8, 47, 0
10, 2190, Note_on_c, 8, 50, 64
10, 2220, Note_on_c, 8, 50, 0
10, 2220, Note_on_c, 8, 50, 64
10, 2250, Note_on_c, 8, 50, 0
10, 2250, Note_on_c, 8, 47, 64
10, 2280, Note_on_c, 8, 47, 0
10, 2280, Note_on_c, 8, 42, 64
10, 2321, Note_on_c, 8, 42, 0
10, 2340, Note_on_c, 8, 54, 64
10, 2370, Note_on_c, 8, 54, 0
10, 2370, Note_on_c, 8, 50, 64
10, 2400, Note_on_c, 8, 50, 0
10, 2400, Note_on_c, 8, 50, 64
10, 2430, Note_on_c, 8, 50, 0
10, 2430, Note_on_c, 8, 45, 64
10, 2460, Note_on_c, 8, 45, 0
10, 2460, Note_on_c, 8, 45, 64
10, 2490, Note_on_c, 8, 45, 0
10, 2490, Note_on_c, 8, 42, 64
10, 2520, Note_on_c, 8, 42, 0
10, 2520, Note_on_c, 8, 42, 64
10, 2550, Note_on_c, 8, 42, 0
10, 2550, Note_on_c, 8, 45, 64
10, 2580, Note_on_c, 8, 45, 0
10, 2580, Note_on_c, 8, 45, 64
10, 2610, Note_on_c, 8, 45, 0
10, 2610, Note_on_c, 8, 42, 64
10, 2640, Note_on_c, 8, 42, 0
10, 2640, Note_on_c, 8, 44, 64
10, 2681, Note_on_c, 8, 44, 0
10, 2700, Note_on_c, 8, 56, 64
10, 2730, Note_on_c, 8, 56, 0
10, 2730, Note_on_c, 8, 52, 64
10, 2760, Note_on_c, 8, 52, 0
10, 2760, Note_on_c, 8, 52, 64
10, 2790, Note_on_c, 8, 52, 0
10, 2790, Note_on_c, 8, 47, 64
10, 2820, Note_on_c, 8, 47, 0
10, 2820, Note_on_c, 8, 47, 64
10, 2850, Note_on_c, 8, 47, 0
10, 2850, Note_on_c, 8, 44, 64
10, 2880, Note_on_c, 8, 44, 0
10, 2880, Note_on_c, 8, 44, 64
10, 2910, Note_on_c, 8, 44, 0
10, 2910, Note_on_c, 8, 47, 64
10, 2940, Note_on_c, 8, 47, 0
10, 2940, Note_on_c, 8, 47, 64
10, 2970, Note_on_c, 8, 47, 0
10, 2970, Note_on_c, 8, 44, 64
10, 3000, Note_on_c, 8, 44, 0
10, 3000, Note_on_c, 8, 45, 64
10, 3120, Note_on_c, 8, 45, 0
10, 3420, Note_on_c, 8, 57, 64
10, 3461, Note_on_c, 8, 57, 0
10, 3480, Note_on_c, 8, 45, 64
10, 3521, Note_on_c, 8, 45, 0
10, 3540, Note_on_c, 8, 57, 64
10, 3581, Note_on_c, 8, 57, 0
10, 3600, Note_on_c, 8, 45, 64
10, 3641, Note_on_c, 8, 45, 0
10, 3660, Note_on_c, 8, 57, 64
10, 3701, Note_on_c, 8, 57, 0
10, 3720, Note_on_c, 8, 56, 64
10, 3840, Note_on_c, 8, 56, 0
10, 4140, Note_on_c, 8, 52, 64
10, 4181, Note_on_c, 8, 52, 0
10, 4200, Note_on_c, 8, 40, 64
10, 4241, Note_on_c, 8, 40, 0
10, 4260, Note_on_c, 8, 52, 64
10, 4301, Note_on_c, 8, 52, 0
10, 4320, Note_on_c, 8, 40, 64
10, 4361, Note_on_c, 8, 40, 0
10, 4380, Note_on_c, 8, 52, 64
10, 4421, Note_on_c, 8, 52, 0
10, 4440, Note_on_c, 8, 45, 64
10, 4481, Note_on_c, 8, 45, 0
10, 4500, Note_on_c, 8, 57, 64
10, 4530, Note_on_c, 8, 57, 0
10, 4530, Note_on_c, 8, 52, 64
10, 4560, Note_on_c, 8, 52, 0
10, 4560, Note_on_c, 8, 52, 64
10, 4590, Note_on_c, 8, 52, 0
10, 4590, Note_on_c, 8, 49, 64
10, 4620, Note_on_c, 8, 49, 0
10, 4620, Note_on_c, 8, 49, 64
10, 4650, Note_on_c, 8, 49, 0
10, 4650, Note_on_c, 8, 45, 64
10, 4680, Note_on_c, 8, 45, 0
10, 4680, Note_on_c, 8, 45, 64
10, 4710, Note_on_c, 8, 45, 0
10, 4710, Note_on_c, 8, 49, 64
10, 4740, Note_on_c, 8, 49, 0
10, 4740, Note_on_c, 8, 49, 64
10, 4770, Note_on_c, 8, 49, 0
10, 4770, Note_on_c, 8, 45, 64
10, 4800, Note_on_c, 8, 45, 0
10, 4800, Note_on_c, 8, 42, 64
10, 4841, Note_on_c, 8, 42, 0
10, 4860, Note_on_c, 8, 54, 64
10, 4890, Note_on_c, 8, 54, 0
10, 4890, Note_on_c, 8, 49, 64
10, 4920, Note_on_c, 8, 49, 0
10, 4920, Note_on_c, 8, 49, 64
10, 4950, Note_on_c, 8, 49, 0
10, 4950, Note_on_c, 8, 45, 64
10, 4980, Note_on_c, 8, 45, 0
10, 4980, Note_on_c, 8, 45, 64
10, 5010, Note_on_c, 8, 45, 0
10, 5010, Note_on_c, 8, 42, 64
10, 5040, Note_on_c, 8, 42, 0
10, 5040, Note_on_c, 8, 42, 64
10, 5070, Note_on_c, 8, 42, 0
10, 5070, Note_on_c, 8, 45, 64
10, 5100, Note_on_c, 8, 45, 0
10, 5100, Note_on_c, 8, 45, 64
10, 5130, Note_on_c, 8, 45, 0
10, 5130, Note_on_c, 8, 42, 64
10, 5160, Note_on_c, 8, 42, 0
10, 5160, Note_on_c, 8, 37, 64
10, 5201, Note_on_c, 8, 37, 0
10, 5220, Note_on_c, 8, 49, 64
10, 5250, Note_on_c, 8, 49, 0
10, 5250, Note_on_c, 8, 45, 64
10, 5280, Note_on_c, 8, 45, 0
10, 5280, Note_on_c, 8, 45, 64
10, 5310, Note_on_c, 8, 45, 0
10, 5310, Note_on_c, 8, 40, 64
10, 5340, Note_on_c, 8, 40, 0
10, 5340, Note_on_c, 8, 40, 64
10, 5370, Note_on_c, 8, 40, 0
10, 5370, Note_on_c, 8, 37, 64
10, 5400, Note_on_c, 8, 37, 0
10, 5400, Note_on_c, 8, 37, 64
10, 5430, Note_on_c, 8, 37, 0
10, 5430, Note_on_c, 8, 40, 64
10, 5460, Note_on_c, 8, 40, 0
10, 5460, Note_on_c, 8, 40, 64
10, 5490, Note_on_c, 8, 40, 0
10, 5490, Note_on_c, 8, 37, 64
10, 5520, Note_on_c, 8, 37, 0
10, 5520, Note_on_c, 8, 39, 64
10, 5561, Note_on_c, 8, 39, 0
10, 5580, Note_on_c, 8, 51, 64
10, 5610, Note_on_c, 8, 51, 0
10, 5610, Note_on_c, 8, 47, 64
10, 5640, Note_on_c, 8, 47, 0
10, 5640, Note_on_c, 8, 47, 64
10, 5670, Note_on_c, 8, 47, 0
10, 5670, Note_on_c, 8, 42, 64
10, 5700, Note_on_c, 8, 42, 0
10, 5700, Note_on_c, 8, 42, 64
10, 5730, Note_on_c, 8, 42, 0
10, 5730, Note_on_c, 8, 39, 64
10, 5760, Note_on_c, 8, 39, 0
10, 5760, Note_on_c, 8, 39, 64
10, 5790, Note_on_c, 8, 39, 0
10, 5790, Note_on_c, 8, 42, 64
10, 5820, Note_on_c, 8, 42, 0
10, 5820, Note_on_c, 8, 42, 64
10, 5850, Note_on_c, 8, 42, 0
10, 5850, Note_on_c, 8, 39, 64
10, 5880, Note_on_c, 8, 39, 0
10, 5880, Note_on_c, 8, 40, 40
10, 6000, Note_on_c, 8, 40, 0
10, 6300, Note_on_c, 8, 53, 47
10, 6341, Note_on_c, 8, 53, 0
10, 6360, Note_on_c, 8, 41, 48
10, 6401, Note_on_c, 8, 41, 0
10, 6420, Note_on_c, 8, 53, 49
10, 6461, Note_on_c, 8, 53, 0
10, 6480, Note_on_c, 8, 41, 50
10, 6521, Note_on_c, 8, 41, 0
10, 6540, Note_on_c, 8, 53, 51
10, 6581, Note_on_c, 8, 53, 0
10, 6600, Note_on_c, 8, 42, 52
10, 6720, Note_on_c, 8, 42, 0
10, 7020, Note_on_c, 8, 57, 59
10, 7061, Note_on_c, 8, 57, 0
10, 7080, Note_on_c, 8, 45, 60
10, 7121, Note_on_c, 8, 45, 0
10, 7140, Note_on_c, 8, 57, 61
10, 7181, Note_on_c, 8, 57, 0
10, 7200, Note_on_c, 8, 45, 62
10, 7241, Note_on_c, 8, 45, 0
10, 7260, Note_on_c, 8, 57, 63
10, 7301, Note_on_c, 8, 57, 0
10, 7320, Note_on_c, 8, 38, 50
10, 7361, Note_on_c, 8, 38, 0
10, 7380, Note_on_c, 8, 50, 51
10, 7410, Note_on_c, 8, 50, 0
10, 7410, Note_on_c, 8, 49, 51
10, 7440, Note_on_c, 8, 49, 0
10, 7440, Note_on_c, 8, 50, 52
10, 7481, Note_on_c, 8, 50, 0
10, 7500, Note_on_c, 8, 47, 53
10, 7541, Note_on_c, 8, 47, 0
10, 7560, Note_on_c, 8, 49, 53
10, 7601, Note_on_c, 8, 49, 0
10, 7620, Note_on_c, 8, 50, 54
10, 7661, Note_on_c, 8, 50, 0
10, 7680, Note_on_c, 8, 40, 55
10, 7721, Note_on_c, 8, 40, 0
10, 7740, Note_on_c, 8, 52, 56
10, 7770, Note_on_c, 8, 52, 0
10, 7770, Note_on_c, 8, 50, 56
10, 7800, Note_on_c, 8, 50, 0
10, 7800, Note_on_c, 8, 52, 57
10, 7841, Note_on_c, 8, 52, 0
10, 7860, Note_on_c, 8, 49, 58
10, 7901, Note_on_c, 8, 49, 0
10, 7920, Note_on_c, 8, 50, 58
10, 7961, Note_on_c, 8, 50, 0
10, 7980, Note_on_c, 8, 52, 59
10, 8021, Note_on_c, 8, 52, 0
10, 8040, Note_on_c, 8, 42, 60
10, 8081, Note_on_c, 8, 42, 0
10, 8100, Note_on_c, 8, 54, 61
10, 8130, Note_on_c, 8, 54, 0
10, 8130, Note_on_c, 8, 52, 61
10, 8160, Note_on_c, 8, 52, 0
10, 8160, Note_on_c, 8, 54, 62
10, 8201, Note_on_c, 8, 54, 0
10, 8220, Note_on_c, 8, 50, 63
10, 8261, Note_on_c, 8, 50, 0
10, 8280, Note_on_c, 8, 52, 63
10, 8321, Note_on_c, 8, 52, 0
10, 8340, Note_on_c, 8, 54, 64
10, 8381, Note_on_c, 8, 54, 0
10, 8400, Note_on_c, 8, 44, 65
10, 8441, Note_on_c, 8, 44, 0
10, 8460, Note_on_c, 8, 56, 66
10, 8490, Note_on_c, 8, 56, 0
10, 8490, Note_on_c, 8, 54, 66
10, 8520, Note_on_c, 8, 54, 0
10, 8520, Note_on_c, 8, 56, 67
10, 8561, Note_on_c, 8, 56, 0
10, 8580, Note_on_c, 8, 52, 68
10, 8621, Note_on_c, 8, 52, 0
10, 8640, Note_on_c, 8, 54, 68
10, 8681, Note_on_c, 8, 54, 0
10, 8700, Note_on_c, 8, 56, 69
10, 8741, Note_on_c, 8, 56, 0
10, 8760, Note_on_c, 8, 57, 64
10, 8801, Note_on_c, 8, 57, 0
10, 8820, Note_on_c, 8, 45, 64
10, 8861, Note_on_c, 8, 45, 0
10, 8880, Note_on_c, 8, 45, 64
10, 8921, Note_on_c, 8, 45, 0
10, 8940, Note_on_c, 8, 45, 64
10, 8981, Note_on_c, 8, 45, 0
10, 9000, Note_on_c, 8, 45, 64
10, 9041, Note_on_c, 8, 45, 0
10, 9060, Note_on_c, 8, 45, 64
10, 9101, Note_on_c, 8, 45, 0
10, 9120, Note_on_c, 8, 55, 64
10, 9161, Note_on_c, 8, 55, 0
10, 9180, Note_on_c, 8, 43, 64
10, 9221, Note_on_c, 8, 43, 0
10, 9240, Note_on_c, 8, 43, 64
10, 9281, Note_on_c, 8, 43, 0
10, 9300, Note_on_c, 8, 43, 64
10, 9341, Note_on_c, 8, 43, 0
10, 9360, Note_on_c, 8, 43, 64
10, 9401, Note_on_c, 8, 43, 0
10, 9420, Note_on_c, 8, 43, 64
10, 9461, Note_on_c, 8, 43, 0
10, 9480, Note_on_c, 8, 54, 64
10, 9521, Note_on_c, 8, 54, 0
10, 9540, Note_on_c, 8, 42, 64
10, 9581, Note_on_c, 8, 42, 0
10, 9600, Note_on_c, 8, 42, 64
10, 9641, Note_on_c, 8, 42, 0
10, 9660, Note_on_c, 8, 42, 64
10, 9701, Note_on_c, 8, 42, 0
10, 9720, Note_on_c, 8, 42, 64
10, 9761, Note_on_c, 8, 42, 0
10, 9780, Note_on_c, 8, 42, 64
10, 9821, Note_on_c, 8, 42, 0
10, 9840, Note_on_c, 8, 52, 64
10, 9881, Note_on_c, 8, 52, 0
10, 9900, Note_on_c, 8, 40, 64
10, 9941, Note_on_c, 8, 40, 0
10, 9960, Note_on_c, 8, 40, 64
10, 10001, Note_on_c, 8, 40, 0
10, 10020, Note_on_c, 8, 40, 64
10, 10061, Note_on_c, 8, 40, 0
10, 10080, Note_on_c, 8, 40, 64
10, 10121, Note_on_c, 8, 40, 0
10, 10140, Note_on_c, 8, 40, 64
10, 10181, Note_on_c, 8, 40, 0
10, 10200, Note_on_c, 8, 51, 64
10, 10241, Note_on_c, 8, 51, 0
10, 10260, Note_on_c, 8, 39, 64
10, 10301, Note_on_c, 8, 39, 0
10, 10320, Note_on_c, 8, 39, 64
10, 10361, Note_on_c, 8, 39, 0
10, 10380, Note_on_c, 8, 39, 64
10, 10421, Note_on_c, 8, 39, 0
10, 10440, Note_on_c, 8, 39, 64
10, 10481, Note_on_c, 8, 39, 0
10, 10500, Note_on_c, 8, 39, 64
10, 10541, Note_on_c, 8, 39, 0
10, 10560, Note_on_c, 8, 50, 64
10, 10601, Note_on_c, 8, 50, 0
10, 10620, Note_on_c, 8, 38, 64
10, 10661, Note_on_c, 8, 38, 0
10, 10680, Note_on_c, 8, 38, 64
10, 10721, Note_on_c, 8, 38, 0
10, 10740, Note_on_c, 8, 38, 64
10, 10781, Note_on_c, 8, 38, 0
10, 10800, Note_on_c, 8, 38, 64
10, 10841, Note_on_c, 8, 38, 0
10, 10860, Note_on_c, 8, 38, 64
10, 10901, Note_on_c, 8, 38, 0
10, 10920, Note_on_c, 8, 37, 64
10, 10961, Note_on_c, 8, 37, 0
10, 10980, Note_on_c, 8, 57, 64
10, 11010, Note_on_c, 8, 57, 0
10, 11010, Note_on_c, 8, 59, 64
10, 11040, Note_on_c, 8, 59, 0
10, 11040, Note_on_c, 8, 57, 64
10, 11081, Note_on_c, 8, 57, 0
10, 11100, Note_on_c, 8, 56, 64
10, 11141, Note_on_c, 8, 56, 0
10, 11160, Note_on_c, 8, 54, 64
10, 11201, Note_on_c, 8, 54, 0
10, 11220, Note_on_c, 8, 52, 64
10, 11261, Note_on_c, 8, 52, 0
10, 11280, Note_on_c, 8, 50, 64
10, 11321, Note_on_c, 8, 50, 0
10, 11340, Note_on_c, 8, 56, 64
10, 11370, Note_on_c, 8, 56, 0
10, 11370, Note_on_c, 8, 57, 64
10, 11400, Note_on_c, 8, 57, 0
10, 11400, Note_on_c, 8, 56, 64
10, 11441, Note_on_c, 8, 56, 0
10, 11460, Note_on_c, 8, 54, 64
10, 11501, Note_on_c, 8, 54, 0
10, 11520, Note_on_c, 8, 52, 64
10, 11561, Note_on_c, 8, 52, 0
10, 11580, Note_on_c, 8, 50, 64
10, 11621, Note_on_c, 8, 50, 0
10, 11640, Note_on_c, 8, 49, 64
10, 11681, Note_on_c, 8, 49, 0
10, 11700, Note_on_c, 8, 54, 64
10, 11730, Note_on_c, 8, 54, 0
10, 11730, Note_on_c, 8, 56, 64
10, 11760, Note_on_c, 8, 56, 0
10, 11760, Note_on_c, 8, 54, 64
10, 11801, Note_on_c, 8, 54, 0
10, 11820, Note_on_c, 8, 52, 64
10, 11861, Note_on_c, 8, 52, 0
10, 11880, Note_on_c, 8, 50, 64
10, 11921, Note_on_c, 8, 50, 0
10, 11940, Note_on_c, 8, 49, 64
10, 11981, Note_on_c, 8, 49, 0
10, 12000, Note_on_c, 8, 47, 64
10, 12030, Note_on_c, 8, 47, 0
10, 12030, Note_on_c, 8, 49, 64
10, 12060, Note_on_c, 8, 49, 0
10, 12060, Note_on_c, 8, 50, 64
10, 12090, Note_on_c, 8, 50, 0
10, 12090, Note_on_c, 8, 49, 64
10, 12120, Note_on_c, 8, 49, 0
10, 12120, Note_on_c, 8, 47, 64
10, 12161, Note_on_c, 8, 47, 0
10, 12180, Note_on_c, 8, 45, 64
10, 12221, Note_on_c, 8, 45, 0
10, 12240, Note_on_c, 8, 44, 64
10, 12281, Note_on_c, 8, 44, 0
10, 12300, Note_on_c, 8, 42, 64
10, 12341, Note_on_c, 8, 42, 0
10, 12360, Note_on_c, 8, 40, 64
10, 12401, Note_on_c, 8, 40, 0
10, 12420, Note_on_c, 8, 42, 65
10, 12461, Note_on_c, 8, 42, 0
10, 12480, Note_on_c, 8, 44, 67
10, 12521, Note_on_c, 8, 44, 0
10, 12540, Note_on_c, 8, 40, 68
10, 12581, Note_on_c, 8, 40, 0
10, 12600, Note_on_c, 8, 45, 69
10, 12641, Note_on_c, 8, 45, 0
10, 12660, Note_on_c, 8, 52, 71
10, 12701, Note_on_c, 8, 52, 0
10, 12720, Note_on_c, 8, 54, 72
10, 12761, Note_on_c, 8, 54, 0
10, 12780, Note_on_c, 8, 52, 73
10, 12810, Note_on_c, 8, 52, 0
10, 12810, Note_on_c, 8, 50, 74
10, 12840, Note_on_c, 8, 50, 0
10, 12840, Note_on_c, 8, 49, 75
10, 12881, Note_on_c, 8, 49, 0
10, 12900, Note_on_c, 8, 50, 76
10, 12941, Note_on_c, 8, 50, 0
10, 12960, Note_on_c, 8, 52, 77
10, 13001, Note_on_c, 8, 52, 0
10, 13020, Note_on_c, 8, 40, 79
10, 13061, Note_on_c, 8, 40, 0
10, 13080, Note_on_c, 8, 57, 40
10, 13110, Note_on_c, 8, 57, 0
10, 13110, Note_on_c, 8, 52, 40
10, 13140, Note_on_c, 8, 52, 0
10, 13140, Note_on_c, 8, 54, 40
10, 13170, Note_on_c, 8, 54, 0
10, 13170, Note_on_c, 8, 56, 40
10, 13200, Note_on_c, 8, 56, 0
10, 13200, Note_on_c, 8, 57, 40
10, 13241, Note_on_c, 8, 57, 0
10, 13260, Note_on_c, 8, 52, 40
10, 13301, Note_on_c, 8, 52, 0
10, 13320, Note_on_c, 8, 49, 40
10, 13361, Note_on_c, 8, 49, 0
10, 13380, Note_on_c, 8, 52, 40
10, 13421, Note_on_c, 8, 52, 0
10, 13440, Note_on_c, 8, 45, 40
10, 13481, Note_on_c, 8, 45, 0
10, 13500, Note_on_c, 8, 57, 40
10, 13541, Note_on_c, 8, 57, 0
10, 13620, Note_on_c, 8, 57, 40
10, 13650, Note_on_c, 8, 57, 0
10, 13650, Note_on_c, 8, 59, 40
10, 13680, Note_on_c, 8, 59, 0
10, 13680, Note_on_c, 8, 61, 40
10, 13721, Note_on_c, 8, 61, 0
10, 13740, Note_on_c, 8, 57, 40
10, 13781, Note_on_c, 8, 57, 0
10, 13800, Note_on_c, 8, 54, 40
10, 13841, Note_on_c, 8, 54, 0
10, 13860, Note_on_c, 8, 42, 40
10, 13901, Note_on_c, 8, 42, 0
10, 13980, Note_on_c, 8, 57, 40
10, 14010, Note_on_c, 8, 57, 0
10, 14010, Note_on_c, 8, 55, 40
10, 14040, Note_on_c, 8, 55, 0
10, 14040, Note_on_c, 8, 54, 40
10, 14081, Note_on_c, 8, 54, 0
10, 14100, Note_on_c, 8, 50, 40
10, 14141, Note_on_c, 8, 50, 0
10, 14160, Note_on_c, 8, 55, 40
10, 14201, Note_on_c, 8, 55, 0
10, 14220, Note_on_c, 8, 43, 40
10, 14261, Note_on_c, 8, 43, 0
10, 14340, Note_on_c, 8, 59, 40
10, 14370, Note_on_c, 8, 59, 0
10, 14370, Note_on_c, 8, 57, 40
10, 14400, Note_on_c, 8, 57, 0
10, 14400, Note_on_c, 8, 55, 40
10, 14441, Note_on_c, 8, 55, 0
10, 14460, Note_on_c, 8, 52, 40
10, 14501, Note_on_c, 8, 52, 0
10, 14520, Note_on_c, 8, 57, 40
10, 14561, Note_on_c, 8, 57, 0
10, 14580, Note_on_c, 8, 45, 40
10, 14621, Note_on_c, 8, 45, 0
10, 14700, Note_on_c, 8, 57, 40
10, 14730, Note_on_c, 8, 57, 0
10, 14730, Note_on_c, 8, 59, 40
10, 14760, Note_on_c, 8, 59, 0
10, 14760, Note_on_c, 8, 61, 40
10, 14801, Note_on_c, 8, 61, 0
10, 14820, Note_on_c, 8, 57, 40
10, 14861, Note_on_c, 8, 57, 0
10, 14880, Note_on_c, 8, 62, 40
10, 14921, Note_on_c, 8, 62, 0
10, 14940, Note_on_c, 8, 57, 40
10, 14970, Note_on_c, 8, 57, 0
10, 14970, Note_on_c, 8, 55, 40
10, 15000, Note_on_c, 8, 55, 0
10, 15000, Note_on_c, 8, 54, 40
10, 15030, Note_on_c, 8, 54, 0
10, 15030, Note_on_c, 8, 55, 40
10, 15060, Note_on_c, 8, 55, 0
10, 15060, Note_on_c, 8, 57, 40
10, 15090, Note_on_c, 8, 57, 0
10, 15090, Note_on_c, 8, 55, 40
10, 15120, Note_on_c, 8, 55, 0
10, 15120, Note_on_c, 8, 54, 40
10, 15150, Note_on_c, 8, 54, 0
10, 15150, Note_on_c, 8, 52, 40
10, 15180, Note_on_c, 8, 52, 0
10, 15180, Note_on_c, 8, 50, 40
10, 15210, Note_on_c, 8, 50, 0
10, 15210, Note_on_c, 8, 49, 40
10, 15240, Note_on_c, 8, 49, 0
10, 15240, Note_on_c, 8, 50, 40
10, 15281, Note_on_c, 8, 50, 0
10, 15300, Note_on_c, 8, 38, 40
10, 15341, Note_on_c, 8, 38, 0
10, 15420, Note_on_c, 8, 54, 40
10, 15450, Note_on_c, 8, 54, 0
10, 15450, Note_on_c, 8, 52, 40
10, 15480, Note_on_c, 8, 52, 0
10, 15480, Note_on_c, 8, 50, 40
10, 15521, Note_on_c, 8, 50, 0
10, 15540, Note_on_c, 8, 54, 40
10, 15581, Note_on_c, 8, 54, 0
10, 15600, Note_on_c, 8, 47, 40
10, 15641, Note_on_c, 8, 47, 0
10, 15660, Note_on_c, 8, 52, 40
10, 15701, Note_on_c, 8, 52, 0
10, 15780, Note_on_c, 8, 52, 40
10, 15821, Note_on_c, 8, 52, 0
10, 15840, Note_on_c, 8, 57, 40
10, 15881, Note_on_c, 8, 57, 0
10, 15900, Note_on_c, 8, 45, 40
10, 15941, Note_on_c, 8, 45, 0
10, 15960, Note_on_c, 8, 50, 40
10, 16080, Note_on_c, 8, 50, 0
10, 16200, Note_on_c, 8, 47, 41
10, 16320, Note_on_c, 8, 47, 0
10, 16320, Note_on_c, 8, 52, 42
10, 16440, Note_on_c, 8, 52, 0
10, 16560, Note_on_c, 8, 56, 43
10, 16680, Note_on_c, 8, 56, 0
10, 16680, Note_on_c, 8, 57, 44
10, 16721, Note_on_c, 8, 57, 0
10, 16740, Note_on_c, 8, 45, 44
10, 16781, Note_on_c, 8, 45, 0
10, 16860, Note_on_c, 8, 54, 45
10, 16901, Note_on_c, 8, 54, 0
10, 16920, Note_on_c, 8, 47, 45
10, 16961, Note_on_c, 8, 47, 0
10, 16980, Note_on_c, 8, 50, 46
10, 17021, Note_on_c, 8, 50, 0
10, 17040, Note_on_c, 8, 52, 46
10, 17081, Note_on_c, 8, 52, 0
10, 17100, Note_on_c, 8, 40, 46
10, 17141, Note_on_c, 8, 40, 0
10, 17220, Note_on_c, 8, 50, 47
10, 17261, Note_on_c, 8, 50, 0
10, 17280, Note_on_c, 8, 49, 47
10, 17321, Note_on_c, 8, 49, 0
10, 17340, Note_on_c, 8, 45, 48
10, 17381, Note_on_c, 8, 45, 0
10, 17400, Note_on_c, 8, 50, 48
10, 17441, Note_on_c, 8, 50, 0
10, 17460, Note_on_c, 8, 38, 48
10, 17501, Note_on_c, 8, 38, 0
10, 17550, Note_on_c, 8, 50, 49
10, 17580, Note_on_c, 8, 50, 0
10, 17580, Note_on_c, 8, 49, 49
10, 17610, Note_on_c, 8, 49, 0
10, 17610, Note_on_c, 8, 47, 49
10, 17640, Note_on_c, 8, 47, 0
10, 17640, Note_on_c, 8, 49, 49
10, 17681, Note_on_c, 8, 49, 0
10, 17700, Note_on_c, 8, 52, 50
10, 17741, Note_on_c, 8, 52, 0
10, 17760, Note_on_c, 8, 45, 50
10, 17801, Note_on_c, 8, 45, 0
10, 17820, Note_on_c, 8, 57, 50
10, 17861, Note_on_c, 8, 57, 0
10, 17940, Note_on_c, 8, 45, 50
10, 17981, Note_on_c, 8, 45, 0
10, 18000, Note_on_c, 8, 57, 50
10, 18041, Note_on_c, 8, 57, 0
10, 18060, Note_on_c, 8, 55, 50
10, 18101, Note_on_c, 8, 55, 0
10, 18120, Note_on_c, 8, 54, 50
10, 18161, Note_on_c, 8, 54, 0
10, 18180, Note_on_c, 8, 42, 50
10, 18221, Note_on_c, 8, 42, 0
10, 18300, Note_on_c, 8, 45, 50
10, 18341, Note_on_c, 8, 45, 0
10, 18360, Note_on_c, 8, 50, 50
10, 18401, Note_on_c, 8, 50, 0
10, 18420, Note_on_c, 8, 47, 50
10, 18461, Note_on_c, 8, 47, 0
10, 18480, Note_on_c, 8, 43, 50
10, 18521, Note_on_c, 8, 43, 0
10, 18540, Note_on_c, 8, 55, 51
10, 18581, Note_on_c, 8, 55, 0
10, 18660, Note_on_c, 8, 42, 52
10, 18701, Note_on_c, 8, 42, 0
10, 18720, Note_on_c, 8, 40, 52
10, 18761, Note_on_c, 8, 40, 0
10, 18780, Note_on_c, 8, 52, 53
10, 18821, Note_on_c, 8, 52, 0
10, 18840, Note_on_c, 8, 45, 53
10, 18881, Note_on_c, 8, 45, 0
10, 18900, Note_on_c, 8, 57, 54
10, 18941, Note_on_c, 8, 57, 0
10, 19020, Note_on_c, 8, 47, 55
10, 19061, Note_on_c, 8, 47, 0
10, 19080, Note_on_c, 8, 49, 56
10, 19121, Note_on_c, 8, 49, 0
10, 19140, Note_on_c, 8, 45, 56
10, 19181, Note_on_c, 8, 45, 0
10, 19200, Note_on_c, 8, 50, 57
10, 19241, Note_on_c, 8, 50, 0
10, 19260, Note_on_c, 8, 38, 57
10, 19301, Note_on_c, 8, 38, 0
10, 19380, Note_on_c, 8, 45, 59
10, 19421, Note_on_c, 8, 45, 0
10, 19440, Note_on_c, 8, 50, 59
10, 19481, Note_on_c, 8, 50, 0
10, 19500, Note_on_c, 8, 45, 60
10, 19541, Note_on_c, 8, 45, 0
10, 19560, Note_on_c, 8, 42, 60
10, 19601, Note_on_c, 8, 42, 0
10, 19620, Note_on_c, 8, 54, 61
10, 19661, Note_on_c, 8, 54, 0
10, 19740, Note_on_c, 8, 42, 62
10, 19781, Note_on_c, 8, 42, 0
10, 19800, Note_on_c, 8, 45, 63
10, 19841, Note_on_c, 8, 45, 0
10, 19860, Note_on_c, 8, 42, 63
10, 19901, Note_on_c, 8, 42, 0
10, 19920, Note_on_c, 8, 38, 64
10, 19961, Note_on_c, 8, 38, 0
10, 19980, Note_on_c, 8, 50, 64
10, 20021, Note_on_c, 8, 50, 0
10, 20100, Note_on_c, 8, 42, 65
10, 20141, Note_on_c, 8, 42, 0
10, 20160, Note_on_c, 8, 43, 66
10, 20201, Note_on_c, 8, 43, 0
10, 20220, Note_on_c, 8, 47, 67
10, 20261, Note_on_c, 8, 47, 0
10, 20280, Note_on_c, 8, 40, 67
10, 20321, Note_on_c, 8, 40, 0
10, 20340, Note_on_c, 8, 52, 68
10, 20381, Note_on_c, 8, 52, 0
10, 20460, Note_on_c, 8, 43, 69
10, 20501, Note_on_c, 8, 43, 0
10, 20520, Note_on_c, 8, 45, 69
10, 20561, Note_on_c, 8, 45, 0
10, 20580, Note_on_c, 8, 48, 70
10, 20621, Note_on_c, 8, 48, 0
10, 20640, Note_on_c, 8, 42, 71
10, 20681, Note_on_c, 8, 42, 0
10, 20700, Note_on_c, 8, 54, 71
10, 20741, Note_on_c, 8, 54, 0
10, 20820, Note_on_c, 8, 45, 72
10, 20861, Note_on_c, 8, 45, 0
10, 20880, Note_on_c, 8, 38, 73
10, 20921, Note_on_c, 8, 38, 0
10, 20940, Note_on_c, 8, 50, 73
10, 20981, Note_on_c, 8, 50, 0
10, 21000, Note_on_c, 8, 47, 74
10, 21041, Note_on_c, 8, 47, 0
10, 21060, Note_on_c, 8, 45, 74
10, 21090, Note_on_c, 8, 45, 0
10, 21090, Note_on_c, 8, 47, 74
10, 21120, Note_on_c, 8, 47, 0
10, 21120, Note_on_c, 8, 43, 74
10, 21161, Note_on_c, 8, 43, 0
10, 21180, Note_on_c, 8, 55, 75
10, 21221, Note_on_c, 8, 55, 0
10, 21240, Note_on_c, 8, 49, 75
10, 21281, Note_on_c, 8, 49, 0
10, 21300, Note_on_c, 8, 52, 75
10, 21341, Note_on_c, 8, 52, 0
10, 21360, Note_on_c, 8, 54, 75
10, 21390, Note_on_c, 8, 54, 0
10, 21390, Note_on_c, 8, 52, 75
10, 21420, Note_on_c, 8, 52, 0
10, 21420, Note_on_c, 8, 50, 75
10, 21450, Note_on_c, 8, 50, 0
10, 21450, Note_on_c, 8, 52, 76
10, 21480, Note_on_c, 8, 52, 0
10, 21480, Note_on_c, 8, 54, 76
10, 21510, Note_on_c, 8, 54, 0
10, 21510, Note_on_c, 8, 56, 76
10, 21540, Note_on_c, 8, 56, 0
10, 21540, Note_on_c, 8, 57, 76
10, 21570, Note_on_c, 8, 57, 0
10, 21570, Note_on_c, 8, 54, 76
10, 21600, Note_on_c, 8, 54, 0
10, 21600, Note_on_c, 8, 59, 76
10, 21630, Note_on_c, 8, 59, 0
10, 21630, Note_on_c, 8, 57, 76
10, 21660, Note_on_c, 8, 57, 0
10, 21660, Note_on_c, 8, 56, 76
10, 21690, Note_on_c, 8, 56, 0
10, 21690, Note_on_c, 8, 54, 76
10, 21720, Note_on_c, 8, 54, 0
10, 21720, Note_on_c, 8, 56, 76
10, 21750, Note_on_c, 8, 56, 0
10, 21750, Note_on_c, 8, 54, 77
10, 21780, Note_on_c, 8, 54, 0
10, 21780, Note_on_c, 8, 52, 77
10, 21810, Note_on_c, 8, 52, 0
10, 21810, Note_on_c, 8, 54, 77
10, 21840, Note_on_c, 8, 54, 0
10, 21840, Note_on_c, 8, 56, 77
10, 21870, Note_on_c, 8, 56, 0
10, 21870, Note_on_c, 8, 58, 77
10, 21900, Note_on_c, 8, 58, 0
10, 21900, Note_on_c, 8, 59, 77
10, 21930, Note_on_c, 8, 59, 0
10, 21930, Note_on_c, 8, 58, 77
10, 21960, Note_on_c, 8, 58, 0
10, 21960, Note_on_c, 8, 61, 77
10, 21990, Note_on_c, 8, 61, 0
10, 21990, Note_on_c, 8, 59, 77
10, 22020, Note_on_c, 8, 59, 0
10, 22020, Note_on_c, 8, 58, 77
10, 22050, Note_on_c, 8, 58, 0
10, 22050, Note_on_c, 8, 56, 78
10, 22080, Note_on_c, 8, 56, 0
10, 22080, Note_on_c, 8, 58, 78
10, 22110, Note_on_c, 8, 58, 0
10, 22110, Note_on_c, 8, 56, 78
10, 22140, Note_on_c, 8, 56, 0
10, 22140, Note_on_c, 8, 54, 78
10, 22170, Note_on_c, 8, 54, 0
10, 22170, Note_on_c, 8, 56, 78
10, 22200, Note_on_c, 8, 56, 0
10, 22200, Note_on_c, 8, 58, 78
10, 22230, Note_on_c, 8, 58, 0
10, 22230, Note_on_c, 8, 59, 78
10, 22260, Note_on_c, 8, 59, 0
10, 22260, Note_on_c, 8, 61, 78
10, 22290, Note_on_c, 8, 61, 0
10, 22290, Note_on_c, 8, 58, 78
10, 22320, Note_on_c, 8, 58, 0
10, 22320, Note_on_c, 8, 62, 78
10, 22350, Note_on_c, 8, 62, 0
10, 22350, Note_on_c, 8, 61, 79
10, 22380, Note_on_c, 8, 61, 0
10, 22380, Note_on_c, 8, 59, 79
10, 22410, Note_on_c, 8, 59, 0
10, 22410, Note_on_c, 8, 58, 79
10, 22440, Note_on_c, 8, 58, 0
10, 22440, Note_on_c, 8, 59, 79
10, 22481, Note_on_c, 8, 59, 0
10, 22500, Note_on_c, 8, 47, 79
10, 22530, Note_on_c, 8, 47, 0
10, 22530, Note_on_c, 8, 49, 79
10, 22560, Note_on_c, 8, 49, 0
10, 22560, Note_on_c, 8, 50, 79
10, 22601, Note_on_c, 8, 50, 0
10, 22620, Note_on_c, 8, 52, 79
10, 22661, Note_on_c, 8, 52, 0
10, 22680, Note_on_c, 8, 54, 80
10, 22721, Note_on_c, 8, 54, 0
10, 22740, Note_on_c, 8, 42, 80
10, 22781, Note_on_c, 8, 42, 0
10, 22800, Note_on_c, 8, 47, 80
10, 22920, Note_on_c, 8, 47, 0
10, 23220, Note_on_c, 8, 59, 64
10, 23261, Note_on_c, 8, 59, 0
10, 23280, Note_on_c, 8, 47, 64
10, 23321, Note_on_c, 8, 47, 0
10, 23340, Note_on_c, 8, 59, 64
10, 23381, Note_on_c, 8, 59, 0
10, 23400, Note_on_c, 8, 47, 64
10, 23441, Note_on_c, 8, 47, 0
10, 23460, Note_on_c, 8, 59, 64
10, 23501, Note_on_c, 8, 59, 0
10, 23520, Note_on_c, 8, 58, 64
10, 23640, Note_on_c, 8, 58, 0
10, 23940, Note_on_c, 8, 54, 64
10, 23981, Note_on_c, 8, 54, 0
10, 24000, Note_on_c, 8, 42, 64
10, 24041, Note_on_c, 8, 42, 0
10, 24060, Note_on_c, 8, 54, 64
10, 24101, Note_on_c, 8, 54, 0
10, 24120, Note_on_c, 8, 42, 64
10, 24161, Note_on_c, 8, 42, 0
10, 24180, Note_on_c, 8, 54, 64
10, 24221, Note_on_c, 8, 54, 0
10, 24240, Note_on_c, 8, 47, 64
10, 24360, Note_on_c, 8, 47, 0
10, 24660, Note_on_c, 8, 52, 64
10, 24701, Note_on_c, 8, 52, 0
10, 24720, Note_on_c, 8, 40, 64
10, 24761, Note_on_c, 8, 40, 0
10, 24780, Note_on_c, 8, 52, 64
10, 24821, Note_on_c, 8, 52, 0
10, 24840, Note_on_c, 8, 40, 64
10, 24881, Note_on_c, 8, 40, 0
10, 24900, Note_on_c, 8, 52, 64
10, 24941, Note_on_c, 8, 52, 0
10, 24960, Note_on_c, 8, 45, 64
10, 25001, Note_on_c, 8, 45, 0
10, 25020, Note_on_c, 8, 57, 64
10, 25050, Note_on_c, 8, 57, 0
10, 25050, Note_on_c, 8, 52, 64
10, 25080, Note_on_c, 8, 52, 0
10, 25080, Note_on_c, 8, 52, 64
10, 25110, Note_on_c, 8, 52, 0
10, 25110, Note_on_c, 8, 49, 64
10, 25140, Note_on_c, 8, 49, 0
10, 25140, Note_on_c, 8, 49, 64
10, 25170, Note_on_c, 8, 49, 0
10, 25170, Note_on_c, 8, 45, 64
10, 25200, Note_on_c, 8, 45, 0
10, 25200, Note_on_c, 8, 45, 64
10, 25230, Note_on_c, 8, 45, 0
10, 25230, Note_on_c, 8, 49, 64
10, 25260, Note_on_c, 8, 49, 0
10, 25260, Note_on_c, 8, 49, 64
10, 25290, Note_on_c, 8, 49, 0
10, 25290, Note_on_c, 8, 45, 64
10, 25320, Note_on_c, 8, 45, 0
10, 25320, Note_on_c, 8, 42, 64
10, 25361, Note_on_c, 8, 42, 0
10, 25380, Note_on_c, 8, 54, 64
10, 25410, Note_on_c, 8, 54, 0
10, 25410, Note_on_c, 8, 49, 64
10, 25440, Note_on_c, 8, 49, 0
10, 25440, Note_on_c, 8, 49, 64
10, 25470, Note_on_c, 8, 49, 0
10, 25470, Note_on_c, 8, 45, 64
10, 25500, Note_on_c, 8, 45, 0
10, 25500, Note_on_c, 8, 45, 64
10, 25530, Note_on_c, 8, 45, 0
10, 25530, Note_on_c, 8, 42, 64
10, 25560, Note_on_c, 8, 42, 0
10, 25560, Note_on_c, 8, 42, 64
10, 25590, Note_on_c, 8, 42, 0
10, 25590, Note_on_c, 8, 45, 64
10, 25620, Note_on_c, 8, 45, 0
10, 25620, Note_on_c, 8, 45, 64
10, 25650, Note_on_c, 8, 45, 0
10, 25650, Note_on_c, 8, 42, 64
10, 25680, Note_on_c, 8, 42, 0
10, 25680, Note_on_c, 8, 39, 64
10, 25721, Note_on_c, 8, 39, 0
10, 25740, Note_on_c, 8, 51, 64
10, 25770, Note_on_c, 8, 51, 0
10, 25770, Note_on_c, 8, 47, 64
10, 25800, Note_on_c, 8, 47, 0
10, 25800, Note_on_c, 8, 47, 64
10, 25830, Note_on_c, 8, 47, 0
10, 25830, Note_on_c, 8, 42, 64
10, 25860, Note_on_c, 8, 42, 0
10, 25860, Note_on_c, 8, 42, 64
10, 25890, Note_on_c, 8, 42, 0
10, 25890, Note_on_c, 8, 39, 64
10, 25920, Note_on_c, 8, 39, 0
10, 25920, Note_on_c, 8, 39, 64
10, 25950, Note_on_c, 8, 39, 0
10, 25950, Note_on_c, 8, 42, 64
10, 25980, Note_on_c, 8, 42, 0
10, 25980, Note_on_c, 8, 42, 64
10, 26010, Note_on_c, 8, 42, 0
10, 26010, Note_on_c, 8, 39, 64
10, 26040, Note_on_c, 8, 39, 0
10, 26040, Note_on_c, 8, 41, 64
10, 26081, Note_on_c, 8, 41, 0
10, 26100, Note_on_c, 8, 53, 64
10, 26130, Note_on_c, 8, 53, 0
10, 26130, Note_on_c, 8, 49, 64
10, 26160, Note_on_c, 8, 49, 0
10, 26160, Note_on_c, 8, 49, 64
10, 26190, Note_on_c, 8, 49, 0
10, 26190, Note_on_c, 8, 44, 64
10, 26220, Note_on_c, 8, 44, 0
10, 26220, Note_on_c, 8, 44, 64
10, 26250, Note_on_c, 8, 44, 0
10, 26250, Note_on_c, 8, 41, 64
10, 26280, Note_on_c, 8, 41, 0
10, 26280, Note_on_c, 8, 41, 64
10, 26310, Note_on_c, 8, 41, 0
10, 26310, Note_on_c, 8, 44, 64
10, 26340, Note_on_c, 8, 44, 0
10, 26340, Note_on_c, 8, 44, 64
10, 26370, Note_on_c, 8, 44, 0
10, 26370, Note_on_c, 8, 41, 64
10, 26400, Note_on_c, 8, 41, 0
10, 26400, Note_on_c, 8, 42, 64
10, 26441, Note_on_c, 8, 42, 0
10, 26460, Note_on_c, 8, 54, 64
10, 26501, Note_on_c, 8, 54, 0
10, 26520, Note_on_c, 8, 54, 64
10, 26561, Note_on_c, 8, 54, 0
10, 26580, Note_on_c, 8, 54, 64
10, 26621, Note_on_c, 8, 54, 0
10, 26640, Note_on_c, 8, 54, 64
10, 26681, Note_on_c, 8, 54, 0
10, 26700, Note_on_c, 8, 54, 64
10, 26741, Note_on_c, 8, 54, 0
10, 26760, Note_on_c, 8, 40, 64
10, 26801, Note_on_c, 8, 40, 0
10, 26820, Note_on_c, 8, 52, 64
10, 26861, Note_on_c, 8, 52, 0
10, 26880, Note_on_c, 8, 52, 64
10, 26921, Note_on_c, 8, 52, 0
10, 26940, Note_on_c, 8, 52, 64
10, 26981, Note_on_c, 8, 52, 0
10, 27000, Note_on_c, 8, 52, 64
10, 27041, Note_on_c, 8, 52, 0
10, 27060, Note_on_c, 8, 52, 64
10, 27101, Note_on_c, 8, 52, 0
10, 27120, Note_on_c, 8, 39, 64
10, 27161, Note_on_c, 8, 39, 0
10, 27180, Note_on_c, 8, 51, 64
10, 27221, Note_on_c, 8, 51, 0
10, 27240, Note_on_c, 8, 51, 64
10, 27281, Note_on_c, 8, 51, 0
10, 27300, Note_on_c, 8, 51, 64
10, 27341, Note_on_c, 8, 51, 0
10, 27360, Note_on_c, 8, 51, 64
10, 27401, Note_on_c, 8, 51, 0
10, 27420, Note_on_c, 8, 51, 64
10, 27461, Note_on_c, 8, 51, 0
10, 27480, Note_on_c, 8, 37, 64
10, 27521, Note_on_c, 8, 37, 0
10, 27540, Note_on_c, 8, 49, 64
10, 27581, Note_on_c, 8, 49, 0
10, 27600, Note_on_c, 8, 49, 64
10, 27641, Note_on_c, 8, 49, 0
10, 27660, Note_on_c, 8, 49, 64
10, 27701, Note_on_c, 8, 49, 0
10, 27720, Note_on_c, 8, 49, 64
10, 27761, Note_on_c, 8, 49, 0
10, 27780, Note_on_c, 8, 49, 64
10, 27821, Note_on_c, 8, 49, 0
10, 27840, Note_on_c, 8, 36, 64
10, 27881, Note_on_c, 8, 36, 0
10, 27900, Note_on_c, 8, 48, 64
10, 27941, Note_on_c, 8, 48, 0
10, 27960, Note_on_c, 8, 48, 64
10, 28001, Note_on_c, 8, 48, 0
10, 28020, Note_on_c, 8, 48, 64
10, 28061, Note_on_c, 8, 48, 0
10, 28080, Note_on_c, 8, 48, 64
10, 28121, Note_on_c, 8, 48, 0
10, 28140, Note_on_c, 8, 48, 64
10, 28181, Note_on_c, 8, 48, 0
10, 28200, Note_on_c, 8, 47, 64
10, 28241, Note_on_c, 8, 47, 0
10, 28260, Note_on_c, 8, 59, 66
10, 28301, Note_on_c, 8, 59, 0
10, 28320, Note_on_c, 8, 59, 67
10, 28361, Note_on_c, 8, 59, 0
10, 28380, Note_on_c, 8, 59, 69
10, 28421, Note_on_c, 8, 59, 0
10, 28440, Note_on_c, 8, 59, 71
10, 28481, Note_on_c, 8, 59, 0
10, 28500, Note_on_c, 8, 59, 72
10, 28541, Note_on_c, 8, 59, 0
10, 28560, Note_on_c, 8, 57, 75
10, 28601, Note_on_c, 8, 57, 0
10, 28620, Note_on_c, 8, 53, 76
10, 28661, Note_on_c, 8, 53, 0
10, 28680, Note_on_c, 8, 54, 77
10, 28721, Note_on_c, 8, 54, 0
10, 28740, Note_on_c, 8, 45, 78
10, 28781, Note_on_c, 8, 45, 0
10, 28800, Note_on_c, 8, 47, 78
10, 28841, Note_on_c, 8, 47, 0
10, 28860, Note_on_c, 8, 49, 79
10, 28901, Note_on_c, 8, 49, 0
10, 28920, Note_on_c, 8, 42, 50
10, 28961, Note_on_c, 8, 42, 0
10, 28980, Note_on_c, 8, 54, 50
10, 29021, Note_on_c, 8, 54, 0
10, 29100, Note_on_c, 8, 54, 50
10, 29130, Note_on_c, 8, 54, 0
10, 29130, Note_on_c, 8, 56, 50
10, 29160, Note_on_c, 8, 56, 0
10, 29160, Note_on_c, 8, 57, 50
10, 29201, Note_on_c, 8, 57, 0
10, 29220, Note_on_c, 8, 54, 50
10, 29261, Note_on_c, 8, 54, 0
10, 29280, Note_on_c, 8, 50, 50
10, 29321, Note_on_c, 8, 50, 0
10, 29340, Note_on_c, 8, 38, 50
10, 29381, Note_on_c, 8, 38, 0
10, 29460, Note_on_c, 8, 50, 50
10, 29490, Note_on_c, 8, 50, 0
10, 29490, Note_on_c, 8, 49, 50
10, 29520, Note_on_c, 8, 49, 0
10, 29520, Note_on_c, 8, 50, 50
10, 29561, Note_on_c, 8, 50, 0
10, 29580, Note_on_c, 8, 47, 50
10, 29621, Note_on_c, 8, 47, 0
10, 29640, Note_on_c, 8, 52, 50
10, 29681, Note_on_c, 8, 52, 0
10, 29700, Note_on_c, 8, 40, 50
10, 29741, Note_on_c, 8, 40, 0
10, 29820, Note_on_c, 8, 52, 50
10, 29850, Note_on_c, 8, 52, 0
10, 29850, Note_on_c, 8, 50, 50
10, 29880, Note_on_c, 8, 50, 0
10, 29880, Note_on_c, 8, 52, 50
10, 29921, Note_on_c, 8, 52, 0
10, 29940, Note_on_c, 8, 49, 50
10, 29981, Note_on_c, 8, 49, 0
10, 30000, Note_on_c, 8, 54, 50
10, 30041, Note_on_c, 8, 54, 0
10, 30060, Note_on_c, 8, 42, 50
10, 30101, Note_on_c, 8, 42, 0
10, 30180, Note_on_c, 8, 54, 50
10, 30210, Note_on_c, 8, 54, 0
10, 30210, Note_on_c, 8, 56, 50
10, 30240, Note_on_c, 8, 56, 0
10, 30240, Note_on_c, 8, 58, 50
10, 30281, Note_on_c, 8, 58, 0
10, 30300, Note_on_c, 8, 54, 50
10, 30341, Note_on_c, 8, 54, 0
10, 30360, Note_on_c, 8, 59, 50
10, 30401, Note_on_c, 8, 59, 0
10, 30420, Note_on_c, 8, 47, 50
10, 30461, Note_on_c, 8, 47, 0
10, 30540, Note_on_c, 8, 62, 50
10, 30570, Note_on_c, 8, 62, 0
10, 30570, Note_on_c, 8, 61, 50
10, 30600, Note_on_c, 8, 61, 0
10, 30600, Note_on_c, 8, 59, 50
10, 30641, Note_on_c, 8, 59, 0
10, 30660, Note_on_c, 8, 58, 50
10, 30701, Note_on_c, 8, 58, 0
10, 30720, Note_on_c, 8, 59, 50
10, 30761, Note_on_c, 8, 59, 0
10, 30780, Note_on_c, 8, 54, 50
10, 30821, Note_on_c, 8, 54, 0
10, 30840, Note_on_c, 8, 50, 50
10, 30870, Note_on_c, 8, 50, 0
10, 30870, Note_on_c, 8, 52, 50
10, 30900, Note_on_c, 8, 52, 0
10, 30900, Note_on_c, 8, 54, 50
10, 30941, Note_on_c, 8, 54, 0
10, 30960, Note_on_c, 8, 47, 50
10, 31001, Note_on_c, 8, 47, 0
10, 31020, Note_on_c, 8, 50, 50
10, 31050, Note_on_c, 8, 50, 0
10, 31050, Note_on_c, 8, 54, 50
10, 31080, Note_on_c, 8, 54, 0
10, 31080, Note_on_c, 8, 59, 50
10, 31121, Note_on_c, 8, 59, 0
10, 31140, Note_on_c, 8, 47, 51
10, 31181, Note_on_c, 8, 47, 0
10, 31260, Note_on_c, 8, 59, 52
10, 31301, Note_on_c, 8, 59, 0
10, 31320, Note_on_c, 8, 59, 52
10, 31361, Note_on_c, 8, 59, 0
10, 31380, Note_on_c, 8, 59, 53
10, 31421, Note_on_c, 8, 59, 0
10, 31440, Note_on_c, 8, 59, 54
10, 31481, Note_on_c, 8, 59, 0
10, 31500, Note_on_c, 8, 47, 54
10, 31541, Note_on_c, 8, 47, 0
10, 31620, Note_on_c, 8, 59, 55
10, 31661, Note_on_c, 8, 59, 0
10, 31680, Note_on_c, 8, 57, 56
10, 31721, Note_on_c, 8, 57, 0
10, 31740, Note_on_c, 8, 57, 56
10, 31781, Note_on_c, 8, 57, 0
10, 31800, Note_on_c, 8, 57, 57
10, 31841, Note_on_c, 8, 57, 0
10, 31860, Note_on_c, 8, 45, 58
10, 31901, Note_on_c, 8, 45, 0
10, 31980, Note_on_c, 8, 54, 59
10, 32021, Note_on_c, 8, 54, 0
10, 32040, Note_on_c, 8, 56, 59
10, 32081, Note_on_c, 8, 56, 0
10, 32100, Note_on_c, 8, 52, 60
10, 32141, Note_on_c, 8, 52, 0
10, 32160, Note_on_c, 8, 62, 61
10, 32190, Note_on_c, 8, 62, 0
10, 32190, Note_on_c, 8, 50, 61
10, 32220, Note_on_c, 8, 50, 0
10, 32220, Note_on_c, 8, 62, 61
10, 32310, Note_on_c, 8, 62, 0
10, 32310, Note_on_c, 8, 64, 62
10, 32340, Note_on_c, 8, 64, 0
10, 32340, Note_on_c, 8, 62, 62
10, 32370, Note_on_c, 8, 62, 0
10, 32370, Note_on_c, 8, 61, 63
10, 32400, Note_on_c, 8, 61, 0
10, 32400, Note_on_c, 8, 59, 63
10, 32430, Note_on_c, 8, 59, 0
10, 32430, Note_on_c, 8, 61, 63
10, 32460, Note_on_c, 8, 61, 0
10, 32460, Note_on_c, 8, 59, 63
10, 32490, Note_on_c, 8, 59, 0
10, 32490, Note_on_c, 8, 57, 64
10, 32520, Note_on_c, 8, 57, 0
10, 32520, Note_on_c, 8, 56, 64
10, 32550, Note_on_c, 8, 56, 0
10, 32550, Note_on_c, 8, 44, 64
10, 32580, Note_on_c, 8, 44, 0
10, 32580, Note_on_c, 8, 56, 64
10, 32670, Note_on_c, 8, 56, 0
10, 32670, Note_on_c, 8, 57, 64
10, 32700, Note_on_c, 8, 57, 0
10, 32700, Note_on_c, 8, 56, 64
10, 32730, Note_on_c, 8, 56, 0
10, 32730, Note_on_c, 8, 54, 64
10, 32760, Note_on_c, 8, 54, 0
10, 32760, Note_on_c, 8, 52, 64
10, 32790, Note_on_c, 8, 52, 0
10, 32790, Note_on_c, 8, 54, 64
10, 32820, Note_on_c, 8, 54, 0
10, 32820, Note_on_c, 8, 56, 64
10, 32850, Note_on_c, 8, 56, 0
10, 32850, Note_on_c, 8, 52, 64
10, 32880, Note_on_c, 8, 52, 0
10, 32880, Note_on_c, 8, 49, 64
10, 32921, Note_on_c, 8, 49, 0
10, 32940, Note_on_c, 8, 50, 64
10, 32981, Note_on_c, 8, 50, 0
10, 33000, Note_on_c, 8, 49, 64
10, 33041, Note_on_c, 8, 49, 0
10, 33060, Note_on_c, 8, 47, 64
10, 33101, Note_on_c, 8, 47, 0
10, 33120, Note_on_c, 8, 45, 64
10, 33161, Note_on_c, 8, 45, 0
10, 33180, Note_on_c, 8, 57, 64
10, 33221, Note_on_c, 8, 57, 0
10, 33240, Note_on_c, 8, 50, 64
10, 33281, Note_on_c, 8, 50, 0
10, 33300, Note_on_c, 8, 52, 64
10, 33341, Note_on_c, 8, 52, 0
10, 33360, Note_on_c, 8, 50, 64
10, 33401, Note_on_c, 8, 50, 0
10, 33420, Note_on_c, 8, 49, 64
10, 33461, Note_on_c, 8, 49, 0
10, 33480, Note_on_c, 8, 47, 64
10, 33521, Note_on_c, 8, 47, 0
10, 33540, Note_on_c, 8, 59, 64
10, 33581, Note_on_c, 8, 59, 0
10, 33600, Note_on_c, 8, 52, 64
10, 33641, Note_on_c, 8, 52, 0
10, 33660, Note_on_c, 8, 56, 64
10, 33690, Note_on_c, 8, 56, 0
10, 33690, Note_on_c, 8, 54, 64
10, 33720, Note_on_c, 8, 54, 0
10, 33720, Note_on_c, 8, 52, 64
10, 33761, Note_on_c, 8, 52, 0
10, 33780, Note_on_c, 8, 50, 64
10, 33821, Note_on_c, 8, 50, 0
10, 33840, Note_on_c, 8, 49, 64
10, 33881, Note_on_c, 8, 49, 0
10, 33900, Note_on_c, 8, 52, 64
10, 33941, Note_on_c, 8, 52, 0
10, 33960, Note_on_c, 8, 45, 64
10, 34001, Note_on_c, 8, 45, 0
10, 34020, Note_on_c, 8, 57, 64
10, 34061, Note_on_c, 8, 57, 0
10, 34140, Note_on_c, 8, 61, 64
10, 34170, Note_on_c, 8, 61, 0
10, 34170, Note_on_c, 8, 59, 64
10, 34200, Note_on_c, 8, 59, 0
10, 34200, Note_on_c, 8, 57, 64
10, 34241, Note_on_c, 8, 57, 0
10, 34260, Note_on_c, 8, 56, 64
10, 34301, Note_on_c, 8, 56, 0
10, 34320, Note_on_c, 8, 57, 64
10, 34361, Note_on_c, 8, 57, 0
10, 34380, Note_on_c, 8, 52, 64
10, 34421, Note_on_c, 8, 52, 0
10, 34440, Note_on_c, 8, 49, 64
10, 34470, Note_on_c, 8, 49, 0
10, 34470, Note_on_c, 8, 50, 64
10, 34500, Note_on_c, 8, 50, 0
10, 34500, Note_on_c, 8, 52, 64
10, 34541, Note_on_c, 8, 52, 0
10, 34560, Note_on_c, 8, 45, 64
10, 34601, Note_on_c, 8, 45, 0
10, 34620, Note_on_c, 8, 49, 64
10, 34661, Note_on_c, 8, 49, 0
10, 34680, Note_on_c, 8, 42, 64
10, 34721, Note_on_c, 8, 42, 0
10, 34740, Note_on_c, 8, 43, 64
10, 34781, Note_on_c, 8, 43, 0
10, 34800, Note_on_c, 8, 42, 64
10, 34841, Note_on_c, 8, 42, 0
10, 34860, Note_on_c, 8, 40, 64
10, 34901, Note_on_c, 8, 40, 0
10, 34920, Note_on_c, 8, 38, 64
10, 34961, Note_on_c, 8, 38, 0
10, 34980, Note_on_c, 8, 50, 64
10, 35021, Note_on_c, 8, 50, 0
10, 35040, Note_on_c, 8, 43, 64
10, 35081, Note_on_c, 8, 43, 0
10, 35100, Note_on_c, 8, 45, 64
10, 35141, Note_on_c, 8, 45, 0
10, 35160, Note_on_c, 8, 43, 64
10, 35201, Note_on_c, 8, 43, 0
10, 35220, Note_on_c, 8, 42, 64
10, 35261, Note_on_c, 8, 42, 0
10, 35280, Note_on_c, 8, 40, 64
10, 35321, Note_on_c, 8, 40, 0
10, 35340, Note_on_c, 8, 52, 64
10, 35381, Note_on_c, 8, 52, 0
10, 35400, Note_on_c, 8, 45, 64
10, 35441, Note_on_c, 8, 45, 0
10, 35460, Note_on_c, 8, 49, 64
10, 35490, Note_on_c, 8, 49, 0
10, 35490, Note_on_c, 8, 47, 64
10, 35520, Note_on_c, 8, 47, 0
10, 35520, Note_on_c, 8, 45, 64
10, 35561, Note_on_c, 8, 45, 0
10, 35580, Note_on_c, 8, 43, 64
10, 35621, Note_on_c, 8, 43, 0
10, 35640, Note_on_c, 8, 42, 64
10, 35681, Note_on_c, 8, 42, 0
10, 35700, Note_on_c, 8, 45, 64
10, 35741, Note_on_c, 8, 45, 0
10, 35760, Note_on_c, 8, 50, 64
10, 35801, Note_on_c, 8, 50, 0
10, 35820, Note_on_c, 8, 38, 64
10, 35861, Note_on_c, 8, 38, 0
10, 35880, Note_on_c, 8, 42, 64
10, 35921, Note_on_c, 8, 42, 0
10, 35940, Note_on_c, 8, 45, 64
10, 35981, Note_on_c, 8, 45, 0
10, 36000, Note_on_c, 8, 50, 64
10, 36041, Note_on_c, 8, 50, 0
10, 36060, Note_on_c, 8, 45, 64
10, 36101, Note_on_c, 8, 45, 0
10, 36120, Note_on_c, 8, 42, 64
10, 36150, Note_on_c, 8, 42, 0
10, 36150, Note_on_c, 8, 40, 64
10, 36180, Note_on_c, 8, 40, 0
10, 36180, Note_on_c, 8, 42, 64
10, 36210, Note_on_c, 8, 42, 0
10, 36210, Note_on_c, 8, 43, 64
10, 36240, Note_on_c, 8, 43, 0
10, 36240, Note_on_c, 8, 45, 64
10, 36281, Note_on_c, 8, 45, 0
10, 36300, Note_on_c, 8, 42, 64
10, 36341, Note_on_c, 8, 42, 0
10, 36360, Note_on_c, 8, 45, 65
10, 36401, Note_on_c, 8, 45, 0
10, 36420, Note_on_c, 8, 42, 65
10, 36461, Note_on_c, 8, 42, 0
10, 36480, Note_on_c, 8, 38, 65
10, 36521, Note_on_c, 8, 38, 0
10, 36540, Note_on_c, 8, 42, 65
10, 36570, Note_on_c, 8, 42, 0
10, 36570, Note_on_c, 8, 40, 65
10, 36600, Note_on_c, 8, 40, 0
10, 36600, Note_on_c, 8, 38, 65
10, 36641, Note_on_c, 8, 38, 0
10, 36660, Note_on_c, 8, 42, 65
10, 36701, Note_on_c, 8, 42, 0
10, 36720, Note_on_c, 8, 43, 65
10, 36761, Note_on_c, 8, 43, 0
10, 36780, Note_on_c, 8, 47, 66
10, 36821, Note_on_c, 8, 47, 0
10, 36840, Note_on_c, 8, 40, 66
10, 36881, Note_on_c, 8, 40, 0
10, 36900, Note_on_c, 8, 43, 66
10, 36930, Note_on_c, 8, 43, 0
10, 36930, Note_on_c, 8, 42, 66
10, 36960, Note_on_c, 8, 42, 0
10, 36960, Note_on_c, 8, 40, 66
10, 37001, Note_on_c, 8, 40, 0
10, 37020, Note_on_c, 8, 43, 66
10, 37061, Note_on_c, 8, 43, 0
10, 37080, Note_on_c, 8, 45, 66
10, 37121, Note_on_c, 8, 45, 0
10, 37140, Note_on_c, 8, 48, 66
10, 37181, Note_on_c, 8, 48, 0
10, 37200, Note_on_c, 8, 42, 67
10, 37241, Note_on_c, 8, 42, 0
10, 37260, Note_on_c, 8, 45, 67
10, 37290, Note_on_c, 8, 45, 0
10, 37290, Note_on_c, 8, 43, 67
10, 37320, Note_on_c, 8, 43, 0
10, 37320, Note_on_c, 8, 42, 67
10, 37361, Note_on_c, 8, 42, 0
10, 37380, Note_on_c, 8, 45, 67
10, 37421, Note_on_c, 8, 45, 0
10, 37440, Note_on_c, 8, 38, 67
10, 37481, Note_on_c, 8, 38, 0
10, 37500, Note_on_c, 8, 48, 67
10, 37541, Note_on_c, 8, 48, 0
10, 37560, Note_on_c, 8, 47, 67
10, 37590, Note_on_c, 8, 47, 0
10, 37590, Note_on_c, 8, 48, 68
10, 37620, Note_on_c, 8, 48, 0
10, 37620, Note_on_c, 8, 47, 68
10, 37650, Note_on_c, 8, 47, 0
10, 37650, Note_on_c, 8, 45, 68
10, 37680, Note_on_c, 8, 45, 0
10, 37680, Note_on_c, 8, 43, 68
10, 37721, Note_on_c, 8, 43, 0
10, 37740, Note_on_c, 8, 55, 68
10, 37770, Note_on_c, 8, 55, 0
10, 37770, Note_on_c, 8, 54, 68
10, 37800, Note_on_c, 8, 54, 0
10, 37800, Note_on_c, 8, 55, 68
10, 37841, Note_on_c, 8, 55, 0
10, 37860, Note_on_c, 8, 59, 68
10, 37901, Note_on_c, 8, 59, 0
10, 37920, Note_on_c, 8, 52, 68
10, 37950, Note_on_c, 8, 52, 0
10, 37950, Note_on_c, 8, 50, 68
10, 37980, Note_on_c, 8, 50, 0
10, 37980, Note_on_c, 8, 49, 68
10, 38010, Note_on_c, 8, 49, 0
10, 38010, Note_on_c, 8, 50, 69
10, 38040, Note_on_c, 8, 50, 0
10, 38040, Note_on_c, 8, 52, 69
10, 38070, Note_on_c, 8, 52, 0
10, 38070, Note_on_c, 8, 54, 69
10, 38100, Note_on_c, 8, 54, 0
10, 38100, Note_on_c, 8, 55, 69
10, 38130, Note_on_c, 8, 55, 0
10, 38130, Note_on_c, 8, 54, 69
10, 38160, Note_on_c, 8, 54, 0
10, 38160, Note_on_c, 8, 57, 69
10, 38190, Note_on_c, 8, 57, 0
10, 38190, Note_on_c, 8, 55, 69
10, 38220, Note_on_c, 8, 55, 0
10, 38220, Note_on_c, 8, 54, 69
10, 38250, Note_on_c, 8, 54, 0
10, 38250, Note_on_c, 8, 52, 69
10, 38280, Note_on_c, 8, 52, 0
10, 38280, Note_on_c, 8, 54, 69
10, 38321, Note_on_c, 8, 54, 0
10, 38340, Note_on_c, 8, 42, 69
10, 38381, Note_on_c, 8, 42, 0
10, 38460, Note_on_c, 8, 54, 70
10, 38490, Note_on_c, 8, 54, 0
10, 38490, Note_on_c, 8, 52, 70
10, 38520, Note_on_c, 8, 52, 0
10, 38520, Note_on_c, 8, 54, 70
10, 38561, Note_on_c, 8, 54, 0
10, 38580, Note_on_c, 8, 57, 70
10, 38621, Note_on_c, 8, 57, 0
10, 38640, Note_on_c, 8, 51, 70
10, 38670, Note_on_c, 8, 51, 0
10, 38670, Note_on_c, 8, 49, 70
10, 38700, Note_on_c, 8, 49, 0
10, 38700, Note_on_c, 8, 47, 71
10, 38730, Note_on_c, 8, 47, 0
10, 38730, Note_on_c, 8, 49, 71
10, 38760, Note_on_c, 8, 49, 0
10, 38760, Note_on_c, 8, 51, 71
10, 38790, Note_on_c, 8, 51, 0
10, 38790, Note_on_c, 8, 52, 71
10, 38820, Note_on_c, 8, 52, 0
10, 38820, Note_on_c, 8, 54, 72
10, 38850, Note_on_c, 8, 54, 0
10, 38850, Note_on_c, 8, 52, 72
10, 38880, Note_on_c, 8, 52, 0
10, 38880, Note_on_c, 8, 55, 72
10, 38910, Note_on_c, 8, 55, 0
10, 38910, Note_on_c, 8, 54, 73
10, 38940, Note_on_c, 8, 54, 0
10, 38940, Note_on_c, 8, 52, 73
10, 38970, Note_on_c, 8, 52, 0
10, 38970, Note_on_c, 8, 51, 73
10, 39000, Note_on_c, 8, 51, 0
10, 39000, Note_on_c, 8, 52, 73
10, 39041, Note_on_c, 8, 52, 0
10, 39060, Note_on_c, 8, 40, 74
10, 39101, Note_on_c, 8, 40, 0
10, 39180, Note_on_c, 8, 52, 75
10, 39221, Note_on_c, 8, 52, 0
10, 39240, Note_on_c, 8, 54, 76
10, 39281, Note_on_c, 8, 54, 0
10, 39300, Note_on_c, 8, 56, 76
10, 39341, Note_on_c, 8, 56, 0
10, 39360, Note_on_c, 8, 57, 77
10, 39401, Note_on_c, 8, 57, 0
10, 39420, Note_on_c, 8, 45, 77
10, 39461, Note_on_c, 8, 45, 0
10, 39540, Note_on_c, 8, 57, 78
10, 39581, Note_on_c, 8, 57, 0
10, 39600, Note_on_c, 8, 59, 79
10, 39641, Note_on_c, 8, 59, 0
10, 39660, Note_on_c, 8, 61, 79
10, 39701, Note_on_c, 8, 61, 0
10, 39720, Note_on_c, 8, 62, 75
10, 39761, Note_on_c, 8, 62, 0
10, 39780, Note_on_c, 8, 50, 75
10, 39821, Note_on_c, 8, 50, 0
10, 39840, Note_on_c, 8, 50, 75
10, 39881, Note_on_c, 8, 50, 0
10, 39900, Note_on_c, 8, 50, 75
10, 39941, Note_on_c, 8, 50, 0
10, 39960, Note_on_c, 8, 50, 75
10, 40001, Note_on_c, 8, 50, 0
10, 40020, Note_on_c, 8, 50, 75
10, 40061, Note_on_c, 8, 50, 0
10, 40080, Note_on_c, 8, 60, 75
10, 40121, Note_on_c, 8, 60, 0
10, 40140, Note_on_c, 8, 48, 75
10, 40181, Note_on_c, 8, 48, 0
10, 40200, Note_on_c, 8, 48, 75
10, 40241, Note_on_c, 8, 48, 0
10, 40260, Note_on_c, 8, 48, 75
10, 40301, Note_on_c, 8, 48, 0
10, 40320, Note_on_c, 8, 48, 75
10, 40361, Note_on_c, 8, 48, 0
10, 40380, Note_on_c, 8, 48, 75
10, 40421, Note_on_c, 8, 48, 0
10, 40440, Note_on_c, 8, 59, 75
10, 40481, Note_on_c, 8, 59, 0
10, 40500, Note_on_c, 8, 47, 76
10, 40541, Note_on_c, 8, 47, 0
10, 40560, Note_on_c, 8, 47, 76
10, 40601, Note_on_c, 8, 47, 0
10, 40620, Note_on_c, 8, 47, 77
10, 40661, Note_on_c, 8, 47, 0
10, 40680, Note_on_c, 8, 47, 77
10, 40721, Note_on_c, 8, 47, 0
10, 40740, Note_on_c, 8, 47, 78
10, 40781, Note_on_c, 8, 47, 0
10, 40800, Note_on_c, 8, 57, 78
10, 40841, Note_on_c, 8, 57, 0
10, 40860, Note_on_c, 8, 45, 79
10, 40901, Note_on_c, 8, 45, 0
10, 40920, Note_on_c, 8, 45, 79
10, 40961, Note_on_c, 8, 45, 0
10, 40980, Note_on_c, 8, 45, 80
10, 41021, Note_on_c, 8, 45, 0
10, 41040, Note_on_c, 8, 45, 81
10, 41081, Note_on_c, 8, 45, 0
10, 41100, Note_on_c, 8, 45, 81
10, 41141, Note_on_c, 8, 45, 0
10, 41160, Note_on_c, 8, 56, 82
10, 41201, Note_on_c, 8, 56, 0
10, 41220, Note_on_c, 8, 44, 82
10, 41261, Note_on_c, 8, 44, 0
10, 41280, Note_on_c, 8, 44, 83
10, 41321, Note_on_c, 8, 44, 0
10, 41340, Note_on_c, 8, 44, 83
10, 41381, Note_on_c, 8, 44, 0
10, 41400, Note_on_c, 8, 44, 84
10, 41441, Note_on_c, 8, 44, 0
10, 41460, Note_on_c, 8, 44, 84
10, 41501, Note_on_c, 8, 44, 0
10, 41520, Note_on_c, 8, 55, 85
10, 41561, Note_on_c, 8, 55, 0
10, 41580, Note_on_c, 8, 43, 82
10, 41621, Note_on_c, 8, 43, 0
10, 41640, Note_on_c, 8, 43, 80
10, 41681, Note_on_c, 8, 43, 0
10, 41700, Note_on_c, 8, 43, 77
10, 41741, Note_on_c, 8, 43, 0
10, 41760, Note_on_c, 8, 43, 75
10, 41801, Note_on_c, 8, 43, 0
10, 41820, Note_on_c, 8, 43, 72
10, 41861, Note_on_c, 8, 43, 0
10, 41880, Note_on_c, 8, 42, 70
10, 41921, Note_on_c, 8, 42, 0
10, 41940, Note_on_c, 8, 54, 71
10, 41970, Note_on_c, 8, 54, 0
10, 41970, Note_on_c, 8, 52, 71
10, 42000, Note_on_c, 8, 52, 0
10, 42000, Note_on_c, 8, 54, 71
10, 42041, Note_on_c, 8, 54, 0
10, 42060, Note_on_c, 8, 50, 72
10, 42101, Note_on_c, 8, 50, 0
10, 42120, Note_on_c, 8, 52, 72
10, 42161, Note_on_c, 8, 52, 0
10, 42180, Note_on_c, 8, 54, 73
10, 42221, Note_on_c, 8, 54, 0
10, 42240, Note_on_c, 8, 43, 73
10, 42281, Note_on_c, 8, 43, 0
10, 42300, Note_on_c, 8, 55, 74
10, 42330, Note_on_c, 8, 55, 0
10, 42330, Note_on_c, 8, 54, 74
10, 42360, Note_on_c, 8, 54, 0
10, 42360, Note_on_c, 8, 55, 74
10, 42401, Note_on_c, 8, 55, 0
10, 42420, Note_on_c, 8, 52, 75
10, 42461, Note_on_c, 8, 52, 0
10, 42480, Note_on_c, 8, 54, 75
10, 42521, Note_on_c, 8, 54, 0
10, 42540, Note_on_c, 8, 55, 76
10, 42581, Note_on_c, 8, 55, 0
10, 42600, Note_on_c, 8, 45, 76
10, 42641, Note_on_c, 8, 45, 0
10, 42660, Note_on_c, 8, 57, 77
10, 42690, Note_on_c, 8, 57, 0
10, 42690, Note_on_c, 8, 55, 77
10, 42720, Note_on_c, 8, 55, 0
10, 42720, Note_on_c, 8, 57, 77
10, 42761, Note_on_c, 8, 57, 0
10, 42780, Note_on_c, 8, 54, 78
10, 42821, Note_on_c, 8, 54, 0
10, 42840, Note_on_c, 8, 55, 78
10, 42881, Note_on_c, 8, 55, 0
10, 42900, Note_on_c, 8, 57, 79
10, 42941, Note_on_c, 8, 57, 0
10, 42960, Note_on_c, 8, 47, 79
10, 43001, Note_on_c, 8, 47, 0
10, 43020, Note_on_c, 8, 59, 80
10, 43050, Note_on_c, 8, 59, 0
10, 43050, Note_on_c, 8, 57, 80
10, 43080, Note_on_c, 8, 57, 0
10, 43080, Note_on_c, 8, 59, 80
10, 43121, Note_on_c, 8, 59, 0
10, 43140, Note_on_c, 8, 55, 81
10, 43181, Note_on_c, 8, 55, 0
10, 43200, Note_on_c, 8, 57, 81
10, 43241, Note_on_c, 8, 57, 0
10, 43260, Note_on_c, 8, 59, 82
10, 43301, Note_on_c, 8, 59, 0
10, 43320, Note_on_c, 8, 49, 82
10, 43361, Note_on_c, 8, 49, 0
10, 43380, Note_on_c, 8, 61, 83
10, 43410, Note_on_c, 8, 61, 0
10, 43410, Note_on_c, 8, 59, 83
10, 43440, Note_on_c, 8, 59, 0
10, 43440, Note_on_c, 8, 61, 83
10, 43481, Note_on_c, 8, 61, 0
10, 43500, Note_on_c, 8, 57, 84
10, 43541, Note_on_c, 8, 57, 0
10, 43560, Note_on_c, 8, 59, 84
10, 43601, Note_on_c, 8, 59, 0
10, 43620, Note_on_c, 8, 61, 85
10, 43661, Note_on_c, 8, 61, 0
10, 43680, Note_on_c, 8, 50, 80
10, 43721, Note_on_c, 8, 50, 0
10, 43740, Note_on_c, 8, 62, 81
10, 43770, Note_on_c, 8, 62, 0
10, 43770, Note_on_c, 8, 64, 81
10, 43800, Note_on_c, 8, 64, 0
10, 43800, Note_on_c, 8, 62, 81
10, 43841, Note_on_c, 8, 62, 0
10, 43860, Note_on_c, 8, 61, 82
10, 43901, Note_on_c, 8, 61, 0
10, 43920, Note_on_c, 8, 59, 82
10, 43961, Note_on_c, 8, 59, 0
10, 43980, Note_on_c, 8, 57, 83
10, 44021, Note_on_c, 8, 57, 0
10, 44040, Note_on_c, 8, 55, 83
10, 44081, Note_on_c, 8, 55, 0
10, 44100, Note_on_c, 8, 61, 84
10, 44130, Note_on_c, 8, 61, 0
10, 44130, Note_on_c, 8, 62, 84
10, 44160, Note_on_c, 8, 62, 0
10, 44160, Note_on_c, 8, 61, 84
10, 44201, Note_on_c, 8, 61, 0
10, 44220, Note_on_c, 8, 59, 85
10, 44261, Note_on_c, 8, 59, 0
10, 44280, Note_on_c, 8, 57, 86
10, 44321, Note_on_c, 8, 57, 0
10, 44340, Note_on_c, 8, 55, 86
10, 44381, Note_on_c, 8, 55, 0
10, 44400, Note_on_c, 8, 54, 87
10, 44441, Note_on_c, 8, 54, 0
10, 44460, Note_on_c, 8, 59, 87
10, 44490, Note_on_c, 8, 59, 0
10, 44490, Note_on_c, 8, 61, 88
10, 44520, Note_on_c, 8, 61, 0
10, 44520, Note_on_c, 8, 59, 88
10, 44561, Note_on_c, 8, 59, 0
10, 44580, Note_on_c, 8, 57, 88
10, 44621, Note_on_c, 8, 57, 0
10, 44640, Note_on_c, 8, 55, 89
10, 44681, Note_on_c, 8, 55, 0
10, 44700, Note_on_c, 8, 54, 89
10, 44741, Note_on_c, 8, 54, 0
10, 44760, Note_on_c, 8, 52, 90
10, 44790, Note_on_c, 8, 52, 0
10, 44790, Note_on_c, 8, 54, 90
10, 44820, Note_on_c, 8, 54, 0
10, 44820, Note_on_c, 8, 55, 91
10, 44850, Note_on_c, 8, 55, 0
10, 44850, Note_on_c, 8, 54, 91
10, 44880, Note_on_c, 8, 54, 0
10, 44880, Note_on_c, 8, 52, 91
10, 44921, Note_on_c, 8, 52, 0
10, 44940, Note_on_c, 8, 50, 92
10, 44981, Note_on_c, 8, 50, 0
10, 45000, Note_on_c, 8, 49, 92
10, 45041, Note_on_c, 8, 49, 0
10, 45060, Note_on_c, 8, 47, 93
10, 45101, Note_on_c, 8, 47, 0
10, 45120, Note_on_c, 8, 45, 93
10, 45161, Note_on_c, 8, 45, 0
10, 45180, Note_on_c, 8, 47, 94
10, 45221, Note_on_c, 8, 47, 0
10, 45240, Note_on_c, 8, 49, 94
10, 45281, Note_on_c, 8, 49, 0
10, 45300, Note_on_c, 8, 45, 95
10, 45341, Note_on_c, 8, 45, 0
10, 45360, Note_on_c, 8, 50, 96
10, 45401, Note_on_c, 8, 50, 0
10, 45420, Note_on_c, 8, 45, 96
10, 45461, Note_on_c, 8, 45, 0
10, 45480, Note_on_c, 8, 47, 97
10, 45521, Note_on_c, 8, 47, 0
10, 45540, Note_on_c, 8, 45, 97
10, 45570, Note_on_c, 8, 45, 0
10, 45570, Note_on_c, 8, 43, 98
10, 45600, Note_on_c, 8, 43, 0
10, 45600, Note_on_c, 8, 42, 98
10, 45641, Note_on_c, 8, 42, 0
10, 45660, Note_on_c, 8, 43, 98
10, 45701, Note_on_c, 8, 43, 0
10, 45720, Note_on_c, 8, 45, 99
10, 45840, Note_on_c, 8, 45, 0
10, 45840, Note_on_c, 8, 38, 100
10, 46200, Note_on_c, 8, 38, 0
10, 46560, End_track
11, 0, Start_track
11, 0, MIDI_port, 0
11, 0, Title_t, "Soprano I"
11, 0, Program_c, 10, 52
11, 900, Note_on_c, 10, 69, 84
11, 941, Note_on_c, 10, 69, 0
11, 960, Note_on_c, 10, 76, 84
11, 1001, Note_on_c, 10, 76, 0
11, 1020, Note_on_c, 10, 73, 84
11, 1061, Note_on_c, 10, 73, 0
11, 1080, Note_on_c, 10, 74, 84
11, 1121, Note_on_c, 10, 74, 0
11, 1140, Note_on_c, 10, 76, 84
11, 1170, Note_on_c, 10, 76, 0
11, 1170, Note_on_c, 10, 78, 84
11, 1200, Note_on_c, 10, 78, 0
11, 1200, Note_on_c, 10, 76, 84
11, 1241, Note_on_c, 10, 76, 0
11, 1260, Note_on_c, 10, 69, 84
11, 1301, Note_on_c, 10, 69, 0
11, 1320, Note_on_c, 10, 69, 84
11, 1361, Note_on_c, 10, 69, 0
11, 1380, Note_on_c, 10, 69, 84
11, 1410, Note_on_c, 10, 69, 0
11, 1410, Note_on_c, 10, 69, 84
11, 1440, Note_on_c, 10, 69, 0
11, 1440, Note_on_c, 10, 76, 84
11, 1481, Note_on_c, 10, 76, 0
11, 1500, Note_on_c, 10, 78, 84
11, 1530, Note_on_c, 10, 78, 0
11, 1530, Note_on_c, 10, 79, 84
11, 1560, Note_on_c, 10, 79, 0
11, 1560, Note_on_c, 10, 78, 84
11, 2640, Note_on_c, 10, 78, 0
11, 2640, Note_on_c, 10, 76, 84
11, 3000, Note_on_c, 10, 76, 0
11, 3000, Note_on_c, 10, 76, 84
11, 3041, Note_on_c, 10, 76, 0
11, 3060, Note_on_c, 10, 69, 84
11, 3101, Note_on_c, 10, 69, 0
11, 3120, Note_on_c, 10, 76, 84
11, 3161, Note_on_c, 10, 76, 0
11, 3180, Note_on_c, 10, 73, 84
11, 3221, Note_on_c, 10, 73, 0
11, 3240, Note_on_c, 10, 74, 84
11, 3281, Note_on_c, 10, 74, 0
11, 3300, Note_on_c, 10, 76, 84
11, 3330, Note_on_c, 10, 76, 0
11, 3330, Note_on_c, 10, 78, 84
11, 3360, Note_on_c, 10, 78, 0
11, 3360, Note_on_c, 10, 76, 84
11, 3401, Note_on_c, 10, 76, 0
11, 3420, Note_on_c, 10, 73, 84
11, 3461, Note_on_c, 10, 73, 0
11, 3480, Note_on_c, 10, 73, 84
11, 3521, Note_on_c, 10, 73, 0
11, 3540, Note_on_c, 10, 73, 84
11, 3570, Note_on_c, 10, 73, 0
11, 3570, Note_on_c, 10, 74, 84
11, 3600, Note_on_c, 10, 74, 0
11, 3600, Note_on_c, 10, 76, 84
11, 3641, Note_on_c, 10, 76, 0
11, 3660, Note_on_c, 10, 76, 84
11, 3701, Note_on_c, 10, 76, 0
11, 3720, Note_on_c, 10, 76, 84
11, 3761, Note_on_c, 10, 76, 0
11, 3780, Note_on_c, 10, 71, 84
11, 3821, Note_on_c, 10, 71, 0
11, 4140, Note_on_c, 10, 76, 84
11, 4181, Note_on_c, 10, 76, 0
11, 4200, Note_on_c, 10, 76, 84
11, 4241, Note_on_c, 10, 76, 0
11, 4260, Note_on_c, 10, 76, 84
11, 4290, Note_on_c, 10, 76, 0
11, 4290, Note_on_c, 10, 76, 84
11, 4320, Note_on_c, 10, 76, 0
11, 4320, Note_on_c, 10, 76, 84
11, 4361, Note_on_c, 10, 76, 0
11, 4380, Note_on_c, 10, 76, 84
11, 4421, Note_on_c, 10, 76, 0
11, 4440, Note_on_c, 10, 76, 84
11, 4800, Note_on_c, 10, 76, 0
11, 4800, Note_on_c, 10, 78, 84
11, 5160, Note_on_c, 10, 78, 0
11, 5160, Note_on_c, 10, 76, 84
11, 5520, Note_on_c, 10, 76, 0
11, 5520, Note_on_c, 10, 78, 84
11, 5561, Note_on_c, 10, 78, 0
11, 5580, Note_on_c, 10, 78, 84
11, 5621, Note_on_c, 10, 78, 0
11, 5640, Note_on_c, 10, 78, 84
11, 5681, Note_on_c, 10, 78, 0
11, 5700, Note_on_c, 10, 78, 84
11, 5730, Note_on_c, 10, 78, 0
11, 5730, Note_on_c, 10, 78, 84
11, 5760, Note_on_c, 10, 78, 0
11, 5760, Note_on_c, 10, 78, 84
11, 5801, Note_on_c, 10, 78, 0
11, 5820, Note_on_c, 10, 78, 84
11, 5861, Note_on_c, 10, 78, 0
11, 5880, Note_on_c, 10, 76, 60
11, 5921, Note_on_c, 10, 76, 0
11, 5940, Note_on_c, 10, 71, 61
11, 5981, Note_on_c, 10, 71, 0
11, 6300, Note_on_c, 10, 71, 67
11, 6341, Note_on_c, 10, 71, 0
11, 6360, Note_on_c, 10, 71, 68
11, 6390, Note_on_c, 10, 71, 0
11, 6390, Note_on_c, 10, 73, 69
11, 6420, Note_on_c, 10, 73, 0
11, 6420, Note_on_c, 10, 74, 69
11, 6540, Note_on_c, 10, 74, 0
11, 6540, Note_on_c, 10, 73, 71
11, 6570, Note_on_c, 10, 73, 0
11, 6570, Note_on_c, 10, 71, 72
11, 6600, Note_on_c, 10, 71, 0
11, 6600, Note_on_c, 10, 69, 72
11, 6641, Note_on_c, 10, 69, 0
11, 6660, Note_on_c, 10, 73, 73
11, 6690, Note_on_c, 10, 73, 0
11, 6690, Note_on_c, 10, 71, 74
11, 6720, Note_on_c, 10, 71, 0
11, 6720, Note_on_c, 10, 69, 74
11, 7320, Note_on_c, 10, 69, 0
11, 7320, Note_on_c, 10, 69, 70
11, 7361, Note_on_c, 10, 69, 0
11, 7380, Note_on_c, 10, 69, 71
11, 7421, Note_on_c, 10, 69, 0
11, 7440, Note_on_c, 10, 66, 72
11, 7470, Note_on_c, 10, 66, 0
11, 7470, Note_on_c, 10, 68, 72
11, 7500, Note_on_c, 10, 68, 0
11, 7500, Note_on_c, 10, 69, 73
11, 7530, Note_on_c, 10, 69, 0
11, 7530, Note_on_c, 10, 68, 73
11, 7560, Note_on_c, 10, 68, 0
11, 7560, Note_on_c, 10, 71, 73
11, 7590, Note_on_c, 10, 71, 0
11, 7590, Note_on_c, 10, 69, 74
11, 7620, Note_on_c, 10, 69, 0
11, 7620, Note_on_c, 10, 68, 74
11, 7650, Note_on_c, 10, 68, 0
11, 7650, Note_on_c, 10, 66, 75
11, 7680, Note_on_c, 10, 66, 0
11, 7680, Note_on_c, 10, 68, 75
11, 7710, Note_on_c, 10, 68, 0
11, 7710, Note_on_c, 10, 66, 75
11, 7740, Note_on_c, 10, 66, 0
11, 7740, Note_on_c, 10, 64, 76
11, 7770, Note_on_c, 10, 64, 0
11, 7770, Note_on_c, 10, 66, 76
11, 7800, Note_on_c, 10, 66, 0
11, 7800, Note_on_c, 10, 68, 77
11, 7830, Note_on_c, 10, 68, 0
11, 7830, Note_on_c, 10, 69, 77
11, 7860, Note_on_c, 10, 69, 0
11, 7860, Note_on_c, 10, 71, 78
11, 7890, Note_on_c, 10, 71, 0
11, 7890, Note_on_c, 10, 69, 78
11, 7920, Note_on_c, 10, 69, 0
11, 7920, Note_on_c, 10, 73, 78
11, 7950, Note_on_c, 10, 73, 0
11, 7950, Note_on_c, 10, 71, 79
11, 7980, Note_on_c, 10, 71, 0
11, 7980, Note_on_c, 10, 69, 79
11, 8010, Note_on_c, 10, 69, 0
11, 8010, Note_on_c, 10, 68, 80
11, 8040, Note_on_c, 10, 68, 0
11, 8040, Note_on_c, 10, 69, 80
11, 8070, Note_on_c, 10, 69, 0
11, 8070, Note_on_c, 10, 68, 80
11, 8100, Note_on_c, 10, 68, 0
11, 8100, Note_on_c, 10, 66, 81
11, 8130, Note_on_c, 10, 66, 0
11, 8130, Note_on_c, 10, 68, 81
11, 8160, Note_on_c, 10, 68, 0
11, 8160, Note_on_c, 10, 69, 82
11, 8190, Note_on_c, 10, 69, 0
11, 8190, Note_on_c, 10, 71, 82
11, 8220, Note_on_c, 10, 71, 0
11, 8220, Note_on_c, 10, 73, 83
11, 8250, Note_on_c, 10, 73, 0
11, 8250, Note_on_c, 10, 71, 83
11, 8280, Note_on_c, 10, 71, 0
11, 8280, Note_on_c, 10, 74, 83
11, 8310, Note_on_c, 10, 74, 0
11, 8310, Note_on_c, 10, 73, 84
11, 8340, Note_on_c, 10, 73, 0
11, 8340, Note_on_c, 10, 71, 84
11, 8370, Note_on_c, 10, 71, 0
11, 8370, Note_on_c, 10, 69, 85
11, 8400, Note_on_c, 10, 69, 0
11, 8400, Note_on_c, 10, 71, 85
11, 8430, Note_on_c, 10, 71, 0
11, 8430, Note_on_c, 10, 69, 85
11, 8460, Note_on_c, 10, 69, 0
11, 8460, Note_on_c, 10, 68, 86
11, 8490, Note_on_c, 10, 68, 0
11, 8490, Note_on_c, 10, 69, 86
11, 8520, Note_on_c, 10, 69, 0
11, 8520, Note_on_c, 10, 71, 87
11, 8550, Note_on_c, 10, 71, 0
11, 8550, Note_on_c, 10, 73, 87
11, 8580, Note_on_c, 10, 73, 0
11, 8580, Note_on_c, 10, 74, 88
11, 8610, Note_on_c, 10, 74, 0
11, 8610, Note_on_c, 10, 73, 88
11, 8640, Note_on_c, 10, 73, 0
11, 8640, Note_on_c, 10, 76, 88
11, 8670, Note_on_c, 10, 76, 0
11, 8670, Note_on_c, 10, 74, 89
11, 8700, Note_on_c, 10, 74, 0
11, 8700, Note_on_c, 10, 73, 89
11, 8730, Note_on_c, 10, 73, 0
11, 8730, Note_on_c, 10, 71, 90
11, 8760, Note_on_c, 10, 71, 0
11, 8760, Note_on_c, 10, 73, 84
11, 9240, Note_on_c, 10, 73, 0
11, 9240, Note_on_c, 10, 73, 84
11, 9281, Note_on_c, 10, 73, 0
11, 9300, Note_on_c, 10, 73, 84
11, 9341, Note_on_c, 10, 73, 0
11, 9360, Note_on_c, 10, 73, 84
11, 9401, Note_on_c, 10, 73, 0
11, 9420, Note_on_c, 10, 73, 84
11, 9461, Note_on_c, 10, 73, 0
11, 9480, Note_on_c, 10, 72, 84
11, 10481, Note_on_c, 10, 72, 0
11, 10500, Note_on_c, 10, 71, 84
11, 10541, Note_on_c, 10, 71, 0
11, 10560, Note_on_c, 10, 71, 84
11, 10800, Note_on_c, 10, 71, 0
11, 10860, Note_on_c, 10, 68, 84
11, 10901, Note_on_c, 10, 68, 0
11, 10920, Note_on_c, 10, 69, 84
11, 10950, Note_on_c, 10, 69, 0
11, 10950, Note_on_c, 10, 64, 84
11, 10980, Note_on_c, 10, 64, 0
11, 10980, Note_on_c, 10, 66, 84
11, 11010, Note_on_c, 10, 66, 0
11, 11010, Note_on_c, 10, 68, 84
11, 11040, Note_on_c, 10, 68, 0
11, 11040, Note_on_c, 10, 69, 84
11, 11070, Note_on_c, 10, 69, 0
11, 11070, Note_on_c, 10, 71, 84
11, 11100, Note_on_c, 10, 71, 0
11, 11100, Note_on_c, 10, 73, 84
11, 11130, Note_on_c, 10, 73, 0
11, 11130, Note_on_c, 10, 74, 84
11, 11160, Note_on_c, 10, 74, 0
11, 11160, Note_on_c, 10, 76, 84
11, 11190, Note_on_c, 10, 76, 0
11, 11190, Note_on_c, 10, 78, 84
11, 11220, Note_on_c, 10, 78, 0
11, 11220, Note_on_c, 10, 79, 84
11, 11250, Note_on_c, 10, 79, 0
11, 11250, Note_on_c, 10, 76, 84
11, 11280, Note_on_c, 10, 76, 0
11, 11280, Note_on_c, 10, 78, 84
11, 11310, Note_on_c, 10, 78, 0
11, 11310, Note_on_c, 10, 76, 84
11, 11340, Note_on_c, 10, 76, 0
11, 11340, Note_on_c, 10, 74, 84
11, 11370, Note_on_c, 10, 74, 0
11, 11370, Note_on_c, 10, 73, 84
11, 11400, Note_on_c, 10, 73, 0
11, 11400, Note_on_c, 10, 71, 84
11, 11430, Note_on_c, 10, 71, 0
11, 11430, Note_on_c, 10, 69, 84
11, 11460, Note_on_c, 10, 69, 0
11, 11460, Note_on_c, 10, 68, 84
11, 11490, Note_on_c, 10, 68, 0
11, 11490, Note_on_c, 10, 69, 84
11, 11520, Note_on_c, 10, 69, 0
11, 11520, Note_on_c, 10, 71, 84
11, 11550, Note_on_c, 10, 71, 0
11, 11550, Note_on_c, 10, 73, 84
11, 11580, Note_on_c, 10, 73, 0
11, 11580, Note_on_c, 10, 74, 84
11, 11610, Note_on_c, 10, 74, 0
11, 11610, Note_on_c, 10, 71, 84
11, 11640, Note_on_c, 10, 71, 0
11, 11640, Note_on_c, 10, 76, 84
11, 11670, Note_on_c, 10, 76, 0
11, 11670, Note_on_c, 10, 74, 84
11, 11700, Note_on_c, 10, 74, 0
11, 11700, Note_on_c, 10, 73, 84
11, 11730, Note_on_c, 10, 73, 0
11, 11730, Note_on_c, 10, 71, 84
11, 11760, Note_on_c, 10, 71, 0
11, 11760, Note_on_c, 10, 69, 84
11, 11790, Note_on_c, 10, 69, 0
11, 11790, Note_on_c, 10, 68, 84
11, 11820, Note_on_c, 10, 68, 0
11, 11820, Note_on_c, 10, 66, 84
11, 11850, Note_on_c, 10, 66, 0
11, 11850, Note_on_c, 10, 68, 84
11, 11880, Note_on_c, 10, 68, 0
11, 11880, Note_on_c, 10, 69, 84
11, 11910, Note_on_c, 10, 69, 0
11, 11910, Note_on_c, 10, 71, 84
11, 11940, Note_on_c, 10, 71, 0
11, 11940, Note_on_c, 10, 73, 84
11, 11970, Note_on_c, 10, 73, 0
11, 11970, Note_on_c, 10, 69, 84
11, 12000, Note_on_c, 10, 69, 0
11, 12000, Note_on_c, 10, 74, 84
11, 12041, Note_on_c, 10, 74, 0
11, 12060, Note_on_c, 10, 78, 84
11, 12090, Note_on_c, 10, 78, 0
11, 12090, Note_on_c, 10, 76, 84
11, 12120, Note_on_c, 10, 76, 0
11, 12120, Note_on_c, 10, 74, 84
11, 12161, Note_on_c, 10, 74, 0
11, 12180, Note_on_c, 10, 74, 84
11, 12210, Note_on_c, 10, 74, 0
11, 12210, Note_on_c, 10, 73, 84
11, 12240, Note_on_c, 10, 73, 0
11, 12240, Note_on_c, 10, 71, 84
11, 12281, Note_on_c, 10, 71, 0
11, 12300, Note_on_c, 10, 71, 84
11, 12330, Note_on_c, 10, 71, 0
11, 12330, Note_on_c, 10, 69, 84
11, 12360, Note_on_c, 10, 69, 0
11, 12360, Note_on_c, 10, 68, 84
11, 12401, Note_on_c, 10, 68, 0
11, 12420, Note_on_c, 10, 66, 85
11, 12450, Note_on_c, 10, 66, 0
11, 12450, Note_on_c, 10, 64, 86
11, 12480, Note_on_c, 10, 64, 0
11, 12480, Note_on_c, 10, 76, 87
11, 12660, Note_on_c, 10, 76, 0
11, 12660, Note_on_c, 10, 68, 91
11, 12701, Note_on_c, 10, 68, 0
11, 12720, Note_on_c, 10, 69, 92
11, 12900, Note_on_c, 10, 69, 0
11, 12900, Note_on_c, 10, 78, 96
11, 12930, Note_on_c, 10, 78, 0
11, 12930, Note_on_c, 10, 76, 97
11, 12960, Note_on_c, 10, 76, 0
11, 12960, Note_on_c, 10, 74, 97
11, 12990, Note_on_c, 10, 74, 0
11, 12990, Note_on_c, 10, 73, 98
11, 13020, Note_on_c, 10, 73, 0
11, 13020, Note_on_c, 10, 71, 99
11, 13050, Note_on_c, 10, 71, 0
11, 13050, Note_on_c, 10, 73, 99
11, 13080, Note_on_c, 10, 73, 0
11, 13080, Note_on_c, 10, 69, 100
11, 13200, Note_on_c, 10, 69, 0
11, 17580, Note_on_c, 10, 74, 69
11, 17621, Note_on_c, 10, 74, 0
11, 17640, Note_on_c, 10, 81, 69
11, 17681, Note_on_c, 10, 81, 0
11, 17700, Note_on_c, 10, 74, 70
11, 17741, Note_on_c, 10, 74, 0
11, 17760, Note_on_c, 10, 73, 70
11, 17790, Note_on_c, 10, 73, 0
11, 17790, Note_on_c, 10, 71, 70
11, 17820, Note_on_c, 10, 71, 0
11, 17820, Note_on_c, 10, 73, 70
11, 17850, Note_on_c, 10, 73, 0
11, 17850, Note_on_c, 10, 74, 70
11, 17880, Note_on_c, 10, 74, 0
11, 17880, Note_on_c, 10, 76, 70
11, 17921, Note_on_c, 10, 76, 0
11, 17940, Note_on_c, 10, 73, 70
11, 17981, Note_on_c, 10, 73, 0
11, 18000, Note_on_c, 10, 76, 70
11, 18041, Note_on_c, 10, 76, 0
11, 18060, Note_on_c, 10, 73, 70
11, 18101, Note_on_c, 10, 73, 0
11, 18120, Note_on_c, 10, 69, 70
11, 18161, Note_on_c, 10, 69, 0
11, 18180, Note_on_c, 10, 73, 70
11, 18210, Note_on_c, 10, 73, 0
11, 18210, Note_on_c, 10, 71, 70
11, 18240, Note_on_c, 10, 71, 0
11, 18240, Note_on_c, 10, 69, 70
11, 18281, Note_on_c, 10, 69, 0
11, 18300, Note_on_c, 10, 73, 70
11, 18341, Note_on_c, 10, 73, 0
11, 18360, Note_on_c, 10, 74, 70
11, 18401, Note_on_c, 10, 74, 0
11, 18420, Note_on_c, 10, 78, 70
11, 18461, Note_on_c, 10, 78, 0
11, 18480, Note_on_c, 10, 71, 70
11, 18521, Note_on_c, 10, 71, 0
11, 18540, Note_on_c, 10, 74, 71
11, 18570, Note_on_c, 10, 74, 0
11, 18570, Note_on_c, 10, 73, 71
11, 18600, Note_on_c, 10, 73, 0
11, 18600, Note_on_c, 10, 71, 71
11, 18641, Note_on_c, 10, 71, 0
11, 18660, Note_on_c, 10, 74, 72
11, 18701, Note_on_c, 10, 74, 0
11, 18720, Note_on_c, 10, 76, 72
11, 18761, Note_on_c, 10, 76, 0
11, 18780, Note_on_c, 10, 79, 73
11, 18821, Note_on_c, 10, 79, 0
11, 18840, Note_on_c, 10, 73, 73
11, 18881, Note_on_c, 10, 73, 0
11, 18900, Note_on_c, 10, 76, 74
11, 18930, Note_on_c, 10, 76, 0
11, 18930, Note_on_c, 10, 74, 74
11, 18960, Note_on_c, 10, 74, 0
11, 18960, Note_on_c, 10, 73, 75
11, 19001, Note_on_c, 10, 73, 0
11, 19020, Note_on_c, 10, 76, 75
11, 19061, Note_on_c, 10, 76, 0
11, 19080, Note_on_c, 10, 69, 76
11, 19121, Note_on_c, 10, 69, 0
11, 19140, Note_on_c, 10, 79, 76
11, 19181, Note_on_c, 10, 79, 0
11, 19200, Note_on_c, 10, 78, 77
11, 19241, Note_on_c, 10, 78, 0
11, 19260, Note_on_c, 10, 76, 77
11, 19290, Note_on_c, 10, 76, 0
11, 19290, Note_on_c, 10, 78, 78
11, 19320, Note_on_c, 10, 78, 0
11, 19320, Note_on_c, 10, 74, 78
11, 19361, Note_on_c, 10, 74, 0
11, 19470, Note_on_c, 10, 67, 79
11, 19500, Note_on_c, 10, 67, 0
11, 19500, Note_on_c, 10, 66, 80
11, 19530, Note_on_c, 10, 66, 0
11, 19530, Note_on_c, 10, 64, 80
11, 19560, Note_on_c, 10, 64, 0
11, 19560, Note_on_c, 10, 62, 80
11, 19590, Note_on_c, 10, 62, 0
11, 19590, Note_on_c, 10, 61, 81
11, 19620, Note_on_c, 10, 61, 0
11, 19620, Note_on_c, 10, 62, 81
11, 19650, Note_on_c, 10, 62, 0
11, 19650, Note_on_c, 10, 64, 81
11, 19680, Note_on_c, 10, 64, 0
11, 19680, Note_on_c, 10, 66, 81
11, 19710, Note_on_c, 10, 66, 0
11, 19710, Note_on_c, 10, 64, 82
11, 19740, Note_on_c, 10, 64, 0
11, 19740, Note_on_c, 10, 62, 82
11, 19770, Note_on_c, 10, 62, 0
11, 19770, Note_on_c, 10, 64, 82
11, 19800, Note_on_c, 10, 64, 0
11, 19800, Note_on_c, 10, 66, 83
11, 19830, Note_on_c, 10, 66, 0
11, 19830, Note_on_c, 10, 64, 83
11, 19860, Note_on_c, 10, 64, 0
11, 19860, Note_on_c, 10, 62, 83
11, 19890, Note_on_c, 10, 62, 0
11, 19890, Note_on_c, 10, 64, 83
11, 19920, Note_on_c, 10, 64, 0
11, 19920, Note_on_c, 10, 66, 84
11, 19950, Note_on_c, 10, 66, 0
11, 19950, Note_on_c, 10, 64, 84
11, 19980, Note_on_c, 10, 64, 0
11, 19980, Note_on_c, 10, 62, 84
11, 20010, Note_on_c, 10, 62, 0
11, 20010, Note_on_c, 10, 64, 85
11, 20040, Note_on_c, 10, 64, 0
11, 20040, Note_on_c, 10, 66, 85
11, 20070, Note_on_c, 10, 66, 0
11, 20070, Note_on_c, 10, 67, 85
11, 20100, Note_on_c, 10, 67, 0
11, 20100, Note_on_c, 10, 69, 85
11, 20130, Note_on_c, 10, 69, 0
11, 20130, Note_on_c, 10, 67, 86
11, 20160, Note_on_c, 10, 67, 0
11, 20160, Note_on_c, 10, 71, 86
11, 20190, Note_on_c, 10, 71, 0
11, 20190, Note_on_c, 10, 69, 86
11, 20220, Note_on_c, 10, 69, 0
11, 20220, Note_on_c, 10, 67, 87
11, 20250, Note_on_c, 10, 67, 0
11, 20250, Note_on_c, 10, 66, 87
11, 20280, Note_on_c, 10, 66, 0
11, 20280, Note_on_c, 10, 67, 87
11, 20310, Note_on_c, 10, 67, 0
11, 20310, Note_on_c, 10, 66, 87
11, 20340, Note_on_c, 10, 66, 0
11, 20340, Note_on_c, 10, 64, 88
11, 20370, Note_on_c, 10, 64, 0
11, 20370, Note_on_c, 10, 66, 88
11, 20400, Note_on_c, 10, 66, 0
11, 20400, Note_on_c, 10, 67, 88
11, 20430, Note_on_c, 10, 67, 0
11, 20430, Note_on_c, 10, 69, 89
11, 20460, Note_on_c, 10, 69, 0
11, 20460, Note_on_c, 10, 71, 89
11, 20490, Note_on_c, 10, 71, 0
11, 20490, Note_on_c, 10, 69, 89
11, 20520, Note_on_c, 10, 69, 0
11, 20520, Note_on_c, 10, 72, 89
11, 20550, Note_on_c, 10, 72, 0
11, 20550, Note_on_c, 10, 71, 90
11, 20580, Note_on_c, 10, 71, 0
11, 20580, Note_on_c, 10, 69, 90
11, 20610, Note_on_c, 10, 69, 0
11, 20610, Note_on_c, 10, 67, 90
11, 20640, Note_on_c, 10, 67, 0
11, 20640, Note_on_c, 10, 69, 91
11, 20670, Note_on_c, 10, 69, 0
11, 20670, Note_on_c, 10, 67, 91
11, 20700, Note_on_c, 10, 67, 0
11, 20700, Note_on_c, 10, 66, 91
11, 20730, Note_on_c, 10, 66, 0
11, 20730, Note_on_c, 10, 67, 91
11, 20760, Note_on_c, 10, 67, 0
11, 20760, Note_on_c, 10, 69, 92
11, 20790, Note_on_c, 10, 69, 0
11, 20790, Note_on_c, 10, 71, 92
11, 20820, Note_on_c, 10, 71, 0
11, 20820, Note_on_c, 10, 72, 92
11, 20850, Note_on_c, 10, 72, 0
11, 20850, Note_on_c, 10, 71, 93
11, 20880, Note_on_c, 10, 71, 0
11, 20880, Note_on_c, 10, 74, 93
11, 20910, Note_on_c, 10, 74, 0
11, 20910, Note_on_c, 10, 72, 93
11, 20940, Note_on_c, 10, 72, 0
11, 20940, Note_on_c, 10, 71, 93
11, 20970, Note_on_c, 10, 71, 0
11, 20970, Note_on_c, 10, 69, 94
11, 21000, Note_on_c, 10, 69, 0
11, 21000, Note_on_c, 10, 67, 94
11, 21030, Note_on_c, 10, 67, 0
11, 21030, Note_on_c, 10, 71, 94
11, 21060, Note_on_c, 10, 71, 0
11, 21060, Note_on_c, 10, 73, 94
11, 21090, Note_on_c, 10, 73, 0
11, 21090, Note_on_c, 10, 74, 94
11, 21120, Note_on_c, 10, 74, 0
11, 21120, Note_on_c, 10, 76, 94
11, 21270, Note_on_c, 10, 76, 0
11, 21270, Note_on_c, 10, 74, 95
11, 21300, Note_on_c, 10, 74, 0
11, 21300, Note_on_c, 10, 73, 95
11, 21330, Note_on_c, 10, 73, 0
11, 21330, Note_on_c, 10, 71, 95
11, 21360, Note_on_c, 10, 71, 0
11, 21360, Note_on_c, 10, 70, 95
11, 21401, Note_on_c, 10, 70, 0
11, 21420, Note_on_c, 10, 66, 95
11, 21461, Note_on_c, 10, 66, 0
11, 21540, Note_on_c, 10, 78, 96
11, 21660, Note_on_c, 10, 78, 0
11, 21660, Note_on_c, 10, 76, 96
11, 21690, Note_on_c, 10, 76, 0
11, 21690, Note_on_c, 10, 74, 96
11, 21720, Note_on_c, 10, 74, 0
11, 21720, Note_on_c, 10, 76, 96
11, 22121, Note_on_c, 10, 76, 0
11, 22140, Note_on_c, 10, 70, 98
11, 22170, Note_on_c, 10, 70, 0
11, 22170, Note_on_c, 10, 71, 98
11, 22200, Note_on_c, 10, 71, 0
11, 22200, Note_on_c, 10, 73, 98
11, 22230, Note_on_c, 10, 73, 0
11, 22230, Note_on_c, 10, 74, 98
11, 22260, Note_on_c, 10, 74, 0
11, 22260, Note_on_c, 10, 76, 98
11, 22290, Note_on_c, 10, 76, 0
11, 22290, Note_on_c, 10, 74, 98
11, 22320, Note_on_c, 10, 74, 0
11, 22320, Note_on_c, 10, 78, 98
11, 22350, Note_on_c, 10, 78, 0
11, 22350, Note_on_c, 10, 76, 99
11, 22380, Note_on_c, 10, 76, 0
11, 22380, Note_on_c, 10, 74, 99
11, 22410, Note_on_c, 10, 74, 0
11, 22410, Note_on_c, 10, 73, 99
11, 22440, Note_on_c, 10, 73, 0
11, 22440, Note_on_c, 10, 74, 99
11, 22470, Note_on_c, 10, 74, 0
11, 22470, Note_on_c, 10, 73, 99
11, 22500, Note_on_c, 10, 73, 0
11, 22500, Note_on_c, 10, 74, 99
11, 22530, Note_on_c, 10, 74, 0
11, 22530, Note_on_c, 10, 76, 99
11, 22560, Note_on_c, 10, 76, 0
11, 22560, Note_on_c, 10, 78, 99
11, 22601, Note_on_c, 10, 78, 0
11, 22620, Note_on_c, 10, 71, 99
11, 22661, Note_on_c, 10, 71, 0
11, 22680, Note_on_c, 10, 70, 100
11, 22800, Note_on_c, 10, 70, 0
11, 22800, Note_on_c, 10, 71, 100
11, 22920, Note_on_c, 10, 71, 0
11, 24240, Note_on_c, 10, 74, 90
11, 24480, Note_on_c, 10, 74, 0
11, 24480, Note_on_c, 10, 74, 90
11, 24600, Note_on_c, 10, 74, 0
11, 24660, Note_on_c, 10, 68, 90
11, 24701, Note_on_c, 10, 68, 0
11, 24720, Note_on_c, 10, 71, 90
11, 24761, Note_on_c, 10, 71, 0
11, 24780, Note_on_c, 10, 76, 90
11, 24821, Note_on_c, 10, 76, 0
11, 24840, Note_on_c, 10, 74, 90
11, 24881, Note_on_c, 10, 74, 0
11, 24900, Note_on_c, 10, 73, 90
11, 24930, Note_on_c, 10, 73, 0
11, 24930, Note_on_c, 10, 71, 90
11, 24960, Note_on_c, 10, 71, 0
11, 24960, Note_on_c, 10, 73, 90
11, 25080, Note_on_c, 10, 73, 0
11, 25680, Note_on_c, 10, 71, 90
11, 25920, Note_on_c, 10, 71, 0
11, 25920, Note_on_c, 10, 71, 90
11, 26040, Note_on_c, 10, 71, 0
11, 26100, Note_on_c, 10, 73, 90
11, 26141, Note_on_c, 10, 73, 0
11, 26160, Note_on_c, 10, 77, 90
11, 26201, Note_on_c, 10, 77, 0
11, 26220, Note_on_c, 10, 80, 90
11, 26250, Note_on_c, 10, 80, 0
11, 26250, Note_on_c, 10, 80, 90
11, 26280, Note_on_c, 10, 80, 0
11, 26280, Note_on_c, 10, 80, 90
11, 26321, Note_on_c, 10, 80, 0
11, 26340, Note_on_c, 10, 73, 90
11, 26381, Note_on_c, 10, 73, 0
11, 26400, Note_on_c, 10, 73, 90
11, 26441, Note_on_c, 10, 73, 0
11, 26460, Note_on_c, 10, 69, 90
11, 26501, Note_on_c, 10, 69, 0
11, 26580, Note_on_c, 10, 73, 90
11, 26621, Note_on_c, 10, 73, 0
11, 26640, Note_on_c, 10, 78, 90
11, 26880, Note_on_c, 10, 78, 0
11, 26880, Note_on_c, 10, 78, 90
11, 26921, Note_on_c, 10, 78, 0
11, 26940, Note_on_c, 10, 78, 90
11, 26981, Note_on_c, 10, 78, 0
11, 27000, Note_on_c, 10, 78, 90
11, 27041, Note_on_c, 10, 78, 0
11, 27060, Note_on_c, 10, 78, 90
11, 27101, Note_on_c, 10, 78, 0
11, 27120, Note_on_c, 10, 78, 90
11, 28121, Note_on_c, 10, 78, 0
11, 28140, Note_on_c, 10, 75, 97
11, 28181, Note_on_c, 10, 75, 0
11, 28200, Note_on_c, 10, 77, 98
11, 28440, Note_on_c, 10, 77, 0
11, 28740, Note_on_c, 10, 73, 98
11, 28781, Note_on_c, 10, 73, 0
11, 28800, Note_on_c, 10, 78, 98
11, 28841, Note_on_c, 10, 78, 0
11, 28860, Note_on_c, 10, 73, 99
11, 28901, Note_on_c, 10, 73, 0
11, 28920, Note_on_c, 10, 69, 70
11, 28950, Note_on_c, 10, 69, 0
11, 28950, Note_on_c, 10, 68, 70
11, 28980, Note_on_c, 10, 68, 0
11, 28980, Note_on_c, 10, 69, 70
11, 29010, Note_on_c, 10, 69, 0
11, 29010, Note_on_c, 10, 71, 70
11, 29040, Note_on_c, 10, 71, 0
11, 29040, Note_on_c, 10, 73, 70
11, 29081, Note_on_c, 10, 73, 0
11, 29100, Note_on_c, 10, 69, 70
11, 29141, Note_on_c, 10, 69, 0
11, 29160, Note_on_c, 10, 73, 70
11, 29201, Note_on_c, 10, 73, 0
11, 29220, Note_on_c, 10, 69, 70
11, 29261, Note_on_c, 10, 69, 0
11, 29280, Note_on_c, 10, 66, 70
11, 29321, Note_on_c, 10, 66, 0
11, 29340, Note_on_c, 10, 69, 70
11, 29370, Note_on_c, 10, 69, 0
11, 29370, Note_on_c, 10, 68, 70
11, 29400, Note_on_c, 10, 68, 0
11, 29400, Note_on_c, 10, 66, 70
11, 29441, Note_on_c, 10, 66, 0
11, 29460, Note_on_c, 10, 69, 70
11, 29501, Note_on_c, 10, 69, 0
11, 29520, Note_on_c, 10, 71, 70
11, 29561, Note_on_c, 10, 71, 0
11, 29580, Note_on_c, 10, 74, 70
11, 29621, Note_on_c, 10, 74, 0
11, 29640, Note_on_c, 10, 68, 70
11, 29681, Note_on_c, 10, 68, 0
11, 29700, Note_on_c, 10, 71, 70
11, 29730, Note_on_c, 10, 71, 0
11, 29730, Note_on_c, 10, 69, 70
11, 29760, Note_on_c, 10, 69, 0
11, 29760, Note_on_c, 10, 68, 70
11, 29801, Note_on_c, 10, 68, 0
11, 29820, Note_on_c, 10, 71, 70
11, 29861, Note_on_c, 10, 71, 0
11, 29880, Note_on_c, 10, 73, 70
11, 29921, Note_on_c, 10, 73, 0
11, 29940, Note_on_c, 10, 76, 70
11, 29981, Note_on_c, 10, 76, 0
11, 30000, Note_on_c, 10, 70, 70
11, 30041, Note_on_c, 10, 70, 0
11, 30060, Note_on_c, 10, 73, 70
11, 30090, Note_on_c, 10, 73, 0
11, 30090, Note_on_c, 10, 71, 70
11, 30120, Note_on_c, 10, 71, 0
11, 30120, Note_on_c, 10, 70, 70
11, 30161, Note_on_c, 10, 70, 0
11, 30180, Note_on_c, 10, 73, 70
11, 30221, Note_on_c, 10, 73, 0
11, 30240, Note_on_c, 10, 66, 70
11, 30281, Note_on_c, 10, 66, 0
11, 30300, Note_on_c, 10, 78, 70
11, 30341, Note_on_c, 10, 78, 0
11, 30360, Note_on_c, 10, 74, 70
11, 30401, Note_on_c, 10, 74, 0
11, 30420, Note_on_c, 10, 73, 70
11, 30450, Note_on_c, 10, 73, 0
11, 30450, Note_on_c, 10, 74, 70
11, 30480, Note_on_c, 10, 74, 0
11, 30480, Note_on_c, 10, 71, 70
11, 30521, Note_on_c, 10, 71, 0
11, 30630, Note_on_c, 10, 76, 70
11, 30660, Note_on_c, 10, 76, 0
11, 30660, Note_on_c, 10, 74, 70
11, 30690, Note_on_c, 10, 74, 0
11, 30690, Note_on_c, 10, 73, 70
11, 30720, Note_on_c, 10, 73, 0
11, 30720, Note_on_c, 10, 71, 70
11, 30750, Note_on_c, 10, 71, 0
11, 30750, Note_on_c, 10, 70, 70
11, 30780, Note_on_c, 10, 70, 0
11, 30780, Note_on_c, 10, 71, 70
11, 30810, Note_on_c, 10, 71, 0
11, 30810, Note_on_c, 10, 73, 70
11, 30840, Note_on_c, 10, 73, 0
11, 30840, Note_on_c, 10, 74, 70
11, 30870, Note_on_c, 10, 74, 0
11, 30870, Note_on_c, 10, 73, 70
11, 30900, Note_on_c, 10, 73, 0
11, 30900, Note_on_c, 10, 71, 70
11, 30930, Note_on_c, 10, 71, 0
11, 30930, Note_on_c, 10, 73, 70
11, 30960, Note_on_c, 10, 73, 0
11, 30960, Note_on_c, 10, 74, 70
11, 30990, Note_on_c, 10, 74, 0
11, 30990, Note_on_c, 10, 73, 70
11, 31020, Note_on_c, 10, 73, 0
11, 31020, Note_on_c, 10, 71, 70
11, 31050, Note_on_c, 10, 71, 0
11, 31050, Note_on_c, 10, 73, 70
11, 31080, Note_on_c, 10, 73, 0
11, 31080, Note_on_c, 10, 74, 70
11, 31110, Note_on_c, 10, 74, 0
11, 31110, Note_on_c, 10, 73, 70
11, 31140, Note_on_c, 10, 73, 0
11, 31140, Note_on_c, 10, 71, 71
11, 31170, Note_on_c, 10, 71, 0
11, 31170, Note_on_c, 10, 73, 71
11, 31200, Note_on_c, 10, 73, 0
11, 31200, Note_on_c, 10, 74, 71
11, 31230, Note_on_c, 10, 74, 0
11, 31230, Note_on_c, 10, 76, 71
11, 31260, Note_on_c, 10, 76, 0
11, 31260, Note_on_c, 10, 78, 72
11, 31290, Note_on_c, 10, 78, 0
11, 31290, Note_on_c, 10, 76, 72
11, 31320, Note_on_c, 10, 76, 0
11, 31320, Note_on_c, 10, 79, 72
11, 31350, Note_on_c, 10, 79, 0
11, 31350, Note_on_c, 10, 78, 73
11, 31380, Note_on_c, 10, 78, 0
11, 31380, Note_on_c, 10, 76, 73
11, 31410, Note_on_c, 10, 76, 0
11, 31410, Note_on_c, 10, 74, 73
11, 31440, Note_on_c, 10, 74, 0
11, 31440, Note_on_c, 10, 76, 74
11, 31470, Note_on_c, 10, 76, 0
11, 31470, Note_on_c, 10, 74, 74
11, 31500, Note_on_c, 10, 74, 0
11, 31500, Note_on_c, 10, 73, 74
11, 31530, Note_on_c, 10, 73, 0
11, 31530, Note_on_c, 10, 74, 74
11, 31560, Note_on_c, 10, 74, 0
11, 31560, Note_on_c, 10, 76, 75
11, 31710, Note_on_c, 10, 76, 0
11, 31710, Note_on_c, 10, 79, 76
11, 31740, Note_on_c, 10, 79, 0
11, 31740, Note_on_c, 10, 78, 76
11, 31770, Note_on_c, 10, 78, 0
11, 31770, Note_on_c, 10, 76, 77
11, 31800, Note_on_c, 10, 76, 0
11, 31800, Note_on_c, 10, 78, 77
11, 31830, Note_on_c, 10, 78, 0
11, 31830, Note_on_c, 10, 76, 77
11, 31860, Note_on_c, 10, 76, 0
11, 31860, Note_on_c, 10, 75, 78
11, 31890, Note_on_c, 10, 75, 0
11, 31890, Note_on_c, 10, 76, 78
11, 31920, Note_on_c, 10, 76, 0
11, 31920, Note_on_c, 10, 78, 78
11, 32070, Note_on_c, 10, 78, 0
11, 32070, Note_on_c, 10, 81, 80
11, 32100, Note_on_c, 10, 81, 0
11, 32100, Note_on_c, 10, 80, 80
11, 32130, Note_on_c, 10, 80, 0
11, 32130, Note_on_c, 10, 78, 80
11, 32160, Note_on_c, 10, 78, 0
11, 32160, Note_on_c, 10, 76, 81
11, 32280, Note_on_c, 10, 76, 0
11, 32280, Note_on_c, 10, 76, 82
11, 32400, Note_on_c, 10, 76, 0
11, 32580, Note_on_c, 10, 71, 84
11, 32621, Note_on_c, 10, 71, 0
11, 32640, Note_on_c, 10, 76, 84
11, 32681, Note_on_c, 10, 76, 0
11, 32700, Note_on_c, 10, 71, 84
11, 32741, Note_on_c, 10, 71, 0
11, 32760, Note_on_c, 10, 68, 84
11, 32790, Note_on_c, 10, 68, 0
11, 32790, Note_on_c, 10, 69, 84
11, 32820, Note_on_c, 10, 69, 0
11, 32820, Note_on_c, 10, 71, 84
11, 32861, Note_on_c, 10, 71, 0
11, 32880, Note_on_c, 10, 71, 84
11, 33000, Note_on_c, 10, 71, 0
11, 33060, Note_on_c, 10, 64, 84
11, 33101, Note_on_c, 10, 64, 0
11, 33120, Note_on_c, 10, 76, 84
11, 33281, Note_on_c, 10, 76, 0
11, 33300, Note_on_c, 10, 69, 84
11, 33330, Note_on_c, 10, 69, 0
11, 33330, Note_on_c, 10, 69, 84
11, 33360, Note_on_c, 10, 69, 0
11, 33360, Note_on_c, 10, 74, 84
11, 33401, Note_on_c, 10, 74, 0
11, 33420, Note_on_c, 10, 69, 84
11, 33461, Note_on_c, 10, 69, 0
11, 33480, Note_on_c, 10, 68, 84
11, 33521, Note_on_c, 10, 68, 0
11, 33540, Note_on_c, 10, 66, 84
11, 33581, Note_on_c, 10, 66, 0
11, 33600, Note_on_c, 10, 64, 84
11, 33720, Note_on_c, 10, 64, 0
11, 33720, Note_on_c, 10, 64, 84
11, 33840, Note_on_c, 10, 64, 0
11, 34020, Note_on_c, 10, 76, 84
11, 34061, Note_on_c, 10, 76, 0
11, 34080, Note_on_c, 10, 81, 84
11, 34121, Note_on_c, 10, 81, 0
11, 34140, Note_on_c, 10, 76, 84
11, 34181, Note_on_c, 10, 76, 0
11, 34200, Note_on_c, 10, 73, 84
11, 34230, Note_on_c, 10, 73, 0
11, 34230, Note_on_c, 10, 74, 84
11, 34260, Note_on_c, 10, 74, 0
11, 34260, Note_on_c, 10, 76, 84
11, 34301, Note_on_c, 10, 76, 0
11, 34320, Note_on_c, 10, 76, 84
11, 34440, Note_on_c, 10, 76, 0
11, 34500, Note_on_c, 10, 64, 84
11, 34541, Note_on_c, 10, 64, 0
11, 34560, Note_on_c, 10, 69, 84
11, 34710, Note_on_c, 10, 69, 0
11, 34710, Note_on_c, 10, 67, 84
11, 34740, Note_on_c, 10, 67, 0
11, 34740, Note_on_c, 10, 66, 84
11, 34770, Note_on_c, 10, 66, 0
11, 34770, Note_on_c, 10, 67, 84
11, 34800, Note_on_c, 10, 67, 0
11, 34800, Note_on_c, 10, 69, 84
11, 34841, Note_on_c, 10, 69, 0
11, 34860, Note_on_c, 10, 67, 84
11, 34890, Note_on_c, 10, 67, 0
11, 34890, Note_on_c, 10, 69, 84
11, 34920, Note_on_c, 10, 69, 0
11, 34920, Note_on_c, 10, 66, 84
11, 34961, Note_on_c, 10, 66, 0
11, 34980, Note_on_c, 10, 69, 84
11, 35021, Note_on_c, 10, 69, 0
11, 35040, Note_on_c, 10, 71, 84
11, 35070, Note_on_c, 10, 71, 0
11, 35070, Note_on_c, 10, 69, 84
11, 35100, Note_on_c, 10, 69, 0
11, 35100, Note_on_c, 10, 67, 84
11, 35130, Note_on_c, 10, 67, 0
11, 35130, Note_on_c, 10, 69, 84
11, 35160, Note_on_c, 10, 69, 0
11, 35160, Note_on_c, 10, 71, 84
11, 35190, Note_on_c, 10, 71, 0
11, 35190, Note_on_c, 10, 73, 84
11, 35220, Note_on_c, 10, 73, 0
11, 35220, Note_on_c, 10, 69, 84
11, 35250, Note_on_c, 10, 69, 0
11, 35250, Note_on_c, 10, 71, 84
11, 35280, Note_on_c, 10, 71, 0
11, 35280, Note_on_c, 10, 67, 84
11, 35430, Note_on_c, 10, 67, 0
11, 35430, Note_on_c, 10, 66, 84
11, 35460, Note_on_c, 10, 66, 0
11, 35460, Note_on_c, 10, 64, 84
11, 35490, Note_on_c, 10, 64, 0
11, 35490, Note_on_c, 10, 66, 84
11, 35520, Note_on_c, 10, 66, 0
11, 35520, Note_on_c, 10, 67, 84
11, 35550, Note_on_c, 10, 67, 0
11, 35550, Note_on_c, 10, 66, 84
11, 35580, Note_on_c, 10, 66, 0
11, 35580, Note_on_c, 10, 64, 84
11, 35610, Note_on_c, 10, 64, 0
11, 35610, Note_on_c, 10, 62, 84
11, 35640, Note_on_c, 10, 62, 0
11, 35640, Note_on_c, 10, 64, 84
11, 35681, Note_on_c, 10, 64, 0
11, 35700, Note_on_c, 10, 74, 84
11, 35730, Note_on_c, 10, 74, 0
11, 35730, Note_on_c, 10, 73, 84
11, 35760, Note_on_c, 10, 73, 0
11, 35760, Note_on_c, 10, 74, 84
11, 35801, Note_on_c, 10, 74, 0
11, 35820, Note_on_c, 10, 69, 84
11, 35861, Note_on_c, 10, 69, 0
11, 35880, Note_on_c, 10, 74, 84
11, 35921, Note_on_c, 10, 74, 0
11, 35940, Note_on_c, 10, 69, 84
11, 35981, Note_on_c, 10, 69, 0
11, 36000, Note_on_c, 10, 66, 84
11, 36030, Note_on_c, 10, 66, 0
11, 36030, Note_on_c, 10, 67, 84
11, 36060, Note_on_c, 10, 67, 0
11, 36060, Note_on_c, 10, 69, 84
11, 36150, Note_on_c, 10, 69, 0
11, 36150, Note_on_c, 10, 67, 84
11, 36180, Note_on_c, 10, 67, 0
11, 36180, Note_on_c, 10, 66, 84
11, 36210, Note_on_c, 10, 66, 0
11, 36210, Note_on_c, 10, 64, 84
11, 36240, Note_on_c, 10, 64, 0
11, 36240, Note_on_c, 10, 62, 84
11, 36281, Note_on_c, 10, 62, 0
11, 36300, Note_on_c, 10, 69, 84
11, 36341, Note_on_c, 10, 69, 0
11, 36360, Note_on_c, 10, 69, 85
11, 36521, Note_on_c, 10, 69, 0
11, 36540, Note_on_c, 10, 74, 85
11, 36570, Note_on_c, 10, 74, 0
11, 36570, Note_on_c, 10, 73, 85
11, 36600, Note_on_c, 10, 73, 0
11, 36600, Note_on_c, 10, 74, 85
11, 36641, Note_on_c, 10, 74, 0
11, 36660, Note_on_c, 10, 72, 85
11, 36701, Note_on_c, 10, 72, 0
11, 36720, Note_on_c, 10, 71, 85
11, 36881, Note_on_c, 10, 71, 0
11, 36900, Note_on_c, 10, 76, 86
11, 36930, Note_on_c, 10, 76, 0
11, 36930, Note_on_c, 10, 75, 86
11, 36960, Note_on_c, 10, 75, 0
11, 36960, Note_on_c, 10, 76, 86
11, 37001, Note_on_c, 10, 76, 0
11, 37020, Note_on_c, 10, 74, 86
11, 37061, Note_on_c, 10, 74, 0
11, 37080, Note_on_c, 10, 72, 86
11, 37230, Note_on_c, 10, 72, 0
11, 37230, Note_on_c, 10, 71, 87
11, 37260, Note_on_c, 10, 71, 0
11, 37260, Note_on_c, 10, 69, 87
11, 37290, Note_on_c, 10, 69, 0
11, 37290, Note_on_c, 10, 71, 87
11, 37320, Note_on_c, 10, 71, 0
11, 37320, Note_on_c, 10, 72, 87
11, 37350, Note_on_c, 10, 72, 0
11, 37350, Note_on_c, 10, 71, 87
11, 37380, Note_on_c, 10, 71, 0
11, 37380, Note_on_c, 10, 69, 87
11, 37410, Note_on_c, 10, 69, 0
11, 37410, Note_on_c, 10, 67, 87
11, 37440, Note_on_c, 10, 67, 0
11, 37440, Note_on_c, 10, 66, 87
11, 37560, Note_on_c, 10, 66, 0
11, 37560, Note_on_c, 10, 67, 87
11, 37601, Note_on_c, 10, 67, 0
11, 37620, Note_on_c, 10, 62, 88
11, 37661, Note_on_c, 10, 62, 0
11, 37680, Note_on_c, 10, 71, 88
11, 37961, Note_on_c, 10, 71, 0
11, 37980, Note_on_c, 10, 71, 88
11, 38010, Note_on_c, 10, 71, 0
11, 38010, Note_on_c, 10, 69, 89
11, 38040, Note_on_c, 10, 69, 0
11, 38040, Note_on_c, 10, 67, 89
11, 38081, Note_on_c, 10, 67, 0
11, 38100, Note_on_c, 10, 71, 89
11, 38141, Note_on_c, 10, 71, 0
11, 38160, Note_on_c, 10, 73, 89
11, 38201, Note_on_c, 10, 73, 0
11, 38220, Note_on_c, 10, 76, 89
11, 38261, Note_on_c, 10, 76, 0
11, 38280, Note_on_c, 10, 69, 89
11, 38310, Note_on_c, 10, 69, 0
11, 38310, Note_on_c, 10, 67, 89
11, 38340, Note_on_c, 10, 67, 0
11, 38340, Note_on_c, 10, 66, 89
11, 38381, Note_on_c, 10, 66, 0
11, 38460, Note_on_c, 10, 69, 90
11, 38501, Note_on_c, 10, 69, 0
11, 38520, Note_on_c, 10, 69, 90
11, 38681, Note_on_c, 10, 69, 0
11, 38700, Note_on_c, 10, 69, 91
11, 38730, Note_on_c, 10, 69, 0
11, 38730, Note_on_c, 10, 67, 91
11, 38760, Note_on_c, 10, 67, 0
11, 38760, Note_on_c, 10, 66, 91
11, 38801, Note_on_c, 10, 66, 0
11, 38820, Note_on_c, 10, 69, 92
11, 38861, Note_on_c, 10, 69, 0
11, 38880, Note_on_c, 10, 71, 92
11, 38921, Note_on_c, 10, 71, 0
11, 38940, Note_on_c, 10, 66, 93
11, 38981, Note_on_c, 10, 66, 0
11, 39000, Note_on_c, 10, 67, 93
11, 39030, Note_on_c, 10, 67, 0
11, 39030, Note_on_c, 10, 66, 94
11, 39060, Note_on_c, 10, 66, 0
11, 39060, Note_on_c, 10, 64, 94
11, 39090, Note_on_c, 10, 64, 0
11, 39090, Note_on_c, 10, 66, 94
11, 39120, Note_on_c, 10, 66, 0
11, 39120, Note_on_c, 10, 67, 94
11, 39150, Note_on_c, 10, 67, 0
11, 39150, Note_on_c, 10, 69, 95
11, 39180, Note_on_c, 10, 69, 0
11, 39180, Note_on_c, 10, 71, 95
11, 39210, Note_on_c, 10, 71, 0
11, 39210, Note_on_c, 10, 73, 95
11, 39240, Note_on_c, 10, 73, 0
11, 39240, Note_on_c, 10, 74, 96
11, 39270, Note_on_c, 10, 74, 0
11, 39270, Note_on_c, 10, 73, 96
11, 39300, Note_on_c, 10, 73, 0
11, 39300, Note_on_c, 10, 71, 96
11, 39330, Note_on_c, 10, 71, 0
11, 39330, Note_on_c, 10, 73, 96
11, 39360, Note_on_c, 10, 73, 0
11, 39360, Note_on_c, 10, 73, 97
11, 39390, Note_on_c, 10, 73, 0
11, 39390, Note_on_c, 10, 71, 97
11, 39420, Note_on_c, 10, 71, 0
11, 39420, Note_on_c, 10, 69, 97
11, 39450, Note_on_c, 10, 69, 0
11, 39450, Note_on_c, 10, 71, 98
11, 39480, Note_on_c, 10, 71, 0
11, 39480, Note_on_c, 10, 73, 98
11, 39510, Note_on_c, 10, 73, 0
11, 39510, Note_on_c, 10, 74, 98
11, 39540, Note_on_c, 10, 74, 0
11, 39540, Note_on_c, 10, 76, 98
11, 39570, Note_on_c, 10, 76, 0
11, 39570, Note_on_c, 10, 78, 99
11, 39600, Note_on_c, 10, 78, 0
11, 39600, Note_on_c, 10, 79, 99
11, 39630, Note_on_c, 10, 79, 0
11, 39630, Note_on_c, 10, 78, 99
11, 39660, Note_on_c, 10, 78, 0
11, 39660, Note_on_c, 10, 76, 99
11, 39690, Note_on_c, 10, 76, 0
11, 39690, Note_on_c, 10, 79, 100
11, 39720, Note_on_c, 10, 79, 0
11, 39720, Note_on_c, 10, 78, 95
11, 39750, Note_on_c, 10, 78, 0
11, 39750, Note_on_c, 10, 76, 95
11, 39780, Note_on_c, 10, 76, 0
11, 39780, Note_on_c, 10, 78, 95
11, 39810, Note_on_c, 10, 78, 0
11, 39810, Note_on_c, 10, 76, 95
11, 39840, Note_on_c, 10, 76, 0
11, 39840, Note_on_c, 10, 74, 95
11, 39881, Note_on_c, 10, 74, 0
11, 40140, Note_on_c, 10, 69, 95
11, 40181, Note_on_c, 10, 69, 0
11, 40200, Note_on_c, 10, 69, 95
11, 40241, Note_on_c, 10, 69, 0
11, 40260, Note_on_c, 10, 69, 95
11, 40290, Note_on_c, 10, 69, 0
11, 40290, Note_on_c, 10, 69, 95
11, 40320, Note_on_c, 10, 69, 0
11, 40320, Note_on_c, 10, 69, 95
11, 40361, Note_on_c, 10, 69, 0
11, 40380, Note_on_c, 10, 69, 95
11, 40421, Note_on_c, 10, 69, 0
11, 40440, Note_on_c, 10, 77, 95
11, 41441, Note_on_c, 10, 77, 0
11, 41460, Note_on_c, 10, 76, 104
11, 41501, Note_on_c, 10, 76, 0
11, 41520, Note_on_c, 10, 76, 105
11, 41760, Note_on_c, 10, 76, 0
11, 41820, Note_on_c, 10, 69, 92
11, 41861, Note_on_c, 10, 69, 0
11, 41880, Note_on_c, 10, 69, 90
11, 41910, Note_on_c, 10, 69, 0
11, 41910, Note_on_c, 10, 67, 90
11, 41940, Note_on_c, 10, 67, 0
11, 41940, Note_on_c, 10, 66, 91
11, 41970, Note_on_c, 10, 66, 0
11, 41970, Note_on_c, 10, 67, 91
11, 42000, Note_on_c, 10, 67, 0
11, 42000, Note_on_c, 10, 69, 91
11, 42030, Note_on_c, 10, 69, 0
11, 42030, Note_on_c, 10, 71, 91
11, 42060, Note_on_c, 10, 71, 0
11, 42060, Note_on_c, 10, 72, 92
11, 42090, Note_on_c, 10, 72, 0
11, 42090, Note_on_c, 10, 71, 92
11, 42120, Note_on_c, 10, 71, 0
11, 42120, Note_on_c, 10, 74, 92
11, 42150, Note_on_c, 10, 74, 0
11, 42150, Note_on_c, 10, 72, 92
11, 42180, Note_on_c, 10, 72, 0
11, 42180, Note_on_c, 10, 71, 93
11, 42210, Note_on_c, 10, 71, 0
11, 42210, Note_on_c, 10, 69, 93
11, 42240, Note_on_c, 10, 69, 0
11, 42240, Note_on_c, 10, 71, 93
11, 42270, Note_on_c, 10, 71, 0
11, 42270, Note_on_c, 10, 69, 93
11, 42300, Note_on_c, 10, 69, 0
11, 42300, Note_on_c, 10, 67, 94
11, 42330, Note_on_c, 10, 67, 0
11, 42330, Note_on_c, 10, 69, 94
11, 42360, Note_on_c, 10, 69, 0
11, 42360, Note_on_c, 10, 71, 94
11, 42390, Note_on_c, 10, 71, 0
11, 42390, Note_on_c, 10, 73, 94
11, 42420, Note_on_c, 10, 73, 0
11, 42420, Note_on_c, 10, 74, 95
11, 42450, Note_on_c, 10, 74, 0
11, 42450, Note_on_c, 10, 73, 95
11, 42480, Note_on_c, 10, 73, 0
11, 42480, Note_on_c, 10, 76, 95
11, 42510, Note_on_c, 10, 76, 0
11, 42510, Note_on_c, 10, 74, 95
11, 42540, Note_on_c, 10, 74, 0
11, 42540, Note_on_c, 10, 73, 96
11, 42570, Note_on_c, 10, 73, 0
11, 42570, Note_on_c, 10, 71, 96
11, 42600, Note_on_c, 10, 71, 0
11, 42600, Note_on_c, 10, 73, 96
11, 42630, Note_on_c, 10, 73, 0
11, 42630, Note_on_c, 10, 71, 96
11, 42660, Note_on_c, 10, 71, 0
11, 42660, Note_on_c, 10, 69, 97
11, 42690, Note_on_c, 10, 69, 0
11, 42690, Note_on_c, 10, 71, 97
11, 42720, Note_on_c, 10, 71, 0
11, 42720, Note_on_c, 10, 73, 97
11, 42750, Note_on_c, 10, 73, 0
11, 42750, Note_on_c, 10, 74, 97
11, 42780, Note_on_c, 10, 74, 0
11, 42780, Note_on_c, 10, 76, 98
11, 42810, Note_on_c, 10, 76, 0
11, 42810, Note_on_c, 10, 74, 98
11, 42840, Note_on_c, 10, 74, 0
11, 42840, Note_on_c, 10, 78, 98
11, 42870, Note_on_c, 10, 78, 0
11, 42870, Note_on_c, 10, 76, 98
11, 42900, Note_on_c, 10, 76, 0
11, 42900, Note_on_c, 10, 74, 99
11, 42930, Note_on_c, 10, 74, 0
11, 42930, Note_on_c, 10, 73, 99
11, 42960, Note_on_c, 10, 73, 0
11, 42960, Note_on_c, 10, 74, 99
11, 42990, Note_on_c, 10, 74, 0
11, 42990, Note_on_c, 10, 73, 99
11, 43020, Note_on_c, 10, 73, 0
11, 43020, Note_on_c, 10, 71, 100
11, 43050, Note_on_c, 10, 71, 0
11, 43050, Note_on_c, 10, 73, 100
11, 43080, Note_on_c, 10, 73, 0
11, 43080, Note_on_c, 10, 74, 100
11, 43110, Note_on_c, 10, 74, 0
11, 43110, Note_on_c, 10, 76, 100
11, 43140, Note_on_c, 10, 76, 0
11, 43140, Note_on_c, 10, 78, 101
11, 43170, Note_on_c, 10, 78, 0
11, 43170, Note_on_c, 10, 76, 101
11, 43200, Note_on_c, 10, 76, 0
11, 43200, Note_on_c, 10, 79, 101
11, 43230, Note_on_c, 10, 79, 0
11, 43230, Note_on_c, 10, 78, 101
11, 43260, Note_on_c, 10, 78, 0
11, 43260, Note_on_c, 10, 76, 102
11, 43290, Note_on_c, 10, 76, 0
11, 43290, Note_on_c, 10, 74, 102
11, 43320, Note_on_c, 10, 74, 0
11, 43320, Note_on_c, 10, 76, 102
11, 43350, Note_on_c, 10, 76, 0
11, 43350, Note_on_c, 10, 74, 102
11, 43380, Note_on_c, 10, 74, 0
11, 43380, Note_on_c, 10, 73, 103
11, 43410, Note_on_c, 10, 73, 0
11, 43410, Note_on_c, 10, 74, 103
11, 43440, Note_on_c, 10, 74, 0
11, 43440, Note_on_c, 10, 76, 103
11, 43470, Note_on_c, 10, 76, 0
11, 43470, Note_on_c, 10, 78, 103
11, 43500, Note_on_c, 10, 78, 0
11, 43500, Note_on_c, 10, 79, 104
11, 43530, Note_on_c, 10, 79, 0
11, 43530, Note_on_c, 10, 78, 104
11, 43560, Note_on_c, 10, 78, 0
11, 43560, Note_on_c, 10, 81, 104
11, 43590, Note_on_c, 10, 81, 0
11, 43590, Note_on_c, 10, 79, 104
11, 43620, Note_on_c, 10, 79, 0
11, 43620, Note_on_c, 10, 78, 105
11, 43650, Note_on_c, 10, 78, 0
11, 43650, Note_on_c, 10, 76, 105
11, 43680, Note_on_c, 10, 76, 0
11, 43680, Note_on_c, 10, 78, 100
11, 43721, Note_on_c, 10, 78, 0
11, 43740, Note_on_c, 10, 78, 101
11, 43770, Note_on_c, 10, 78, 0
11, 43770, Note_on_c, 10, 76, 101
11, 43800, Note_on_c, 10, 76, 0
11, 43800, Note_on_c, 10, 78, 101
11, 44081, Note_on_c, 10, 78, 0
11, 44100, Note_on_c, 10, 76, 104
11, 44130, Note_on_c, 10, 76, 0
11, 44130, Note_on_c, 10, 74, 104
11, 44160, Note_on_c, 10, 74, 0
11, 44160, Note_on_c, 10, 76, 104
11, 44441, Note_on_c, 10, 76, 0
11, 44460, Note_on_c, 10, 74, 107
11, 44490, Note_on_c, 10, 74, 0
11, 44490, Note_on_c, 10, 73, 108
11, 44520, Note_on_c, 10, 73, 0
11, 44520, Note_on_c, 10, 74, 108
11, 44790, Note_on_c, 10, 74, 0
11, 44790, Note_on_c, 10, 73, 110
11, 44820, Note_on_c, 10, 73, 0
11, 44820, Note_on_c, 10, 71, 111
11, 44850, Note_on_c, 10, 71, 0
11, 44850, Note_on_c, 10, 73, 111
11, 44880, Note_on_c, 10, 73, 0
11, 44880, Note_on_c, 10, 74, 111
11, 44910, Note_on_c, 10, 74, 0
11, 44910, Note_on_c, 10, 71, 111
11, 44940, Note_on_c, 10, 71, 0
11, 44940, Note_on_c, 10, 73, 112
11, 44970, Note_on_c, 10, 73, 0
11, 44970, Note_on_c, 10, 74, 112
11, 45000, Note_on_c, 10, 74, 0
11, 45000, Note_on_c, 10, 76, 112
11, 45030, Note_on_c, 10, 76, 0
11, 45030, Note_on_c, 10, 78, 113
11, 45060, Note_on_c, 10, 78, 0
11, 45060, Note_on_c, 10, 79, 113
11, 45090, Note_on_c, 10, 79, 0
11, 45090, Note_on_c, 10, 76, 113
11, 45120, Note_on_c, 10, 76, 0
11, 45120, Note_on_c, 10, 73, 113
11, 45161, Note_on_c, 10, 73, 0
11, 45180, Note_on_c, 10, 69, 114
11, 45221, Note_on_c, 10, 69, 0
11, 45300, Note_on_c, 10, 79, 115
11, 45341, Note_on_c, 10, 79, 0
11, 45360, Note_on_c, 10, 78, 116
11, 45401, Note_on_c, 10, 78, 0
11, 45420, Note_on_c, 10, 76, 116
11, 45450, Note_on_c, 10, 76, 0
11, 45450, Note_on_c, 10, 78, 116
11, 45480, Note_on_c, 10, 78, 0
11, 45480, Note_on_c, 10, 74, 117
11, 45510, Note_on_c, 10, 74, 0
11, 45510, Note_on_c, 10, 76, 117
11, 45540, Note_on_c, 10, 76, 0
11, 45540, Note_on_c, 10, 78, 117
11, 45570, Note_on_c, 10, 78, 0
11, 45570, Note_on_c, 10, 79, 118
11, 45600, Note_on_c, 10, 79, 0
11, 45600, Note_on_c, 10, 81, 118
11, 45641, Note_on_c, 10, 81, 0
11, 45660, Note_on_c, 10, 74, 118
11, 45701, Note_on_c, 10, 74, 0
11, 45720, Note_on_c, 10, 74, 119
11, 45761, Note_on_c, 10, 74, 0
11, 45780, Note_on_c, 10, 73, 119
11, 45821, Note_on_c, 10, 73, 0
11, 45840, Note_on_c, 10, 74, 120
11, 46200, Note_on_c, 10, 74, 0
11, 46560, End_track
12, 0, Start_track
12, 0, MIDI_port, 0
12, 0, Title_t, "Soprano II"
12, 0, Program_c, 11, 52
12, 180, Note_on_c, 11, 62, 84
12, 221, Note_on_c, 11, 62, 0
12, 240, Note_on_c, 11, 69, 84
12, 281, Note_on_c, 11, 69, 0
12, 300, Note_on_c, 11, 66, 84
12, 341, Note_on_c, 11, 66, 0
12, 360, Note_on_c, 11, 67, 84
12, 401, Note_on_c, 11, 67, 0
12, 420, Note_on_c, 11, 69, 84
12, 450, Note_on_c, 11, 69, 0
12, 450, Note_on_c, 11, 71, 84
12, 480, Note_on_c, 11, 71, 0
12, 480, Note_on_c, 11, 69, 84
12, 521, Note_on_c, 11, 69, 0
12, 540, Note_on_c, 11, 69, 84
12, 581, Note_on_c, 11, 69, 0
12, 600, Note_on_c, 11, 69, 84
12, 641, Note_on_c, 11, 69, 0
12, 660, Note_on_c, 11, 69, 84
12, 690, Note_on_c, 11, 69, 0
12, 690, Note_on_c, 11, 69, 84
12, 720, Note_on_c, 11, 69, 0
12, 720, Note_on_c, 11, 74, 84
12, 761, Note_on_c, 11, 74, 0
12, 780, Note_on_c, 11, 76, 84
12, 810, Note_on_c, 11, 76, 0
12, 810, Note_on_c, 11, 78, 84
12, 840, Note_on_c, 11, 78, 0
12, 840, Note_on_c, 11, 76, 84
12, 881, Note_on_c, 11, 76, 0
12, 900, Note_on_c, 11, 69, 84
12, 941, Note_on_c, 11, 69, 0
12, 1260, Note_on_c, 11, 73, 84
12, 1301, Note_on_c, 11, 73, 0
12, 1320, Note_on_c, 11, 73, 84
12, 1361, Note_on_c, 11, 73, 0
12, 1380, Note_on_c, 11, 73, 84
12, 1410, Note_on_c, 11, 73, 0
12, 1410, Note_on_c, 11, 73, 84
12, 1440, Note_on_c, 11, 73, 0
12, 1440, Note_on_c, 11, 73, 84
12, 1481, Note_on_c, 11, 73, 0
12, 1500, Note_on_c, 11, 74, 84
12, 1530, Note_on_c, 11, 74, 0
12, 1530, Note_on_c, 11, 76, 84
12, 1560, Note_on_c, 11, 76, 0
12, 1560, Note_on_c, 11, 74, 84
12, 3000, Note_on_c, 11, 74, 0
12, 3000, Note_on_c, 11, 73, 84
12, 3041, Note_on_c, 11, 73, 0
12, 3780, Note_on_c, 11, 64, 84
12, 3821, Note_on_c, 11, 64, 0
12, 3840, Note_on_c, 11, 71, 84
12, 3881, Note_on_c, 11, 71, 0
12, 3900, Note_on_c, 11, 68, 84
12, 3941, Note_on_c, 11, 68, 0
12, 3960, Note_on_c, 11, 69, 84
12, 4001, Note_on_c, 11, 69, 0
12, 4020, Note_on_c, 11, 71, 84
12, 4050, Note_on_c, 11, 71, 0
12, 4050, Note_on_c, 11, 73, 84
12, 4080, Note_on_c, 11, 73, 0
12, 4080, Note_on_c, 11, 71, 84
12, 4121, Note_on_c, 11, 71, 0
12, 4140, Note_on_c, 11, 64, 84
12, 4181, Note_on_c, 11, 64, 0
12, 4200, Note_on_c, 11, 71, 84
12, 4241, Note_on_c, 11, 71, 0
12, 4260, Note_on_c, 11, 71, 84
12, 4290, Note_on_c, 11, 71, 0
12, 4290, Note_on_c, 11, 71, 84
12, 4320, Note_on_c, 11, 71, 0
12, 4320, Note_on_c, 11, 71, 84
12, 4361, Note_on_c, 11, 71, 0
12, 4380, Note_on_c, 11, 73, 84
12, 4410, Note_on_c, 11, 73, 0
12, 4410, Note_on_c, 11, 74, 84
12, 4440, Note_on_c, 11, 74, 0
12, 4440, Note_on_c, 11, 73, 84
12, 5520, Note_on_c, 11, 73, 0
12, 5520, Note_on_c, 11, 71, 84
12, 5880, Note_on_c, 11, 71, 0
12, 5880, Note_on_c, 11, 71, 60
12, 5921, Note_on_c, 11, 71, 0
12, 6300, Note_on_c, 11, 68, 67
12, 6341, Note_on_c, 11, 68, 0
12, 6360, Note_on_c, 11, 68, 68
12, 6390, Note_on_c, 11, 68, 0
12, 6390, Note_on_c, 11, 69, 69
12, 6420, Note_on_c, 11, 69, 0
12, 6420, Note_on_c, 11, 71, 69
12, 6540, Note_on_c, 11, 71, 0
12, 6540, Note_on_c, 11, 69, 71
12, 6570, Note_on_c, 11, 69, 0
12, 6570, Note_on_c, 11, 68, 72
12, 6600, Note_on_c, 11, 68, 0
12, 6600, Note_on_c, 11, 66, 72
12, 6641, Note_on_c, 11, 66, 0
12, 6660, Note_on_c, 11, 69, 73
12, 6690, Note_on_c, 11, 69, 0
12, 6690, Note_on_c, 11, 68, 74
12, 6720, Note_on_c, 11, 68, 0
12, 6720, Note_on_c, 11, 66, 74
12, 6900, Note_on_c, 11, 66, 0
12, 6900, Note_on_c, 11, 68, 77
12, 6930, Note_on_c, 11, 68, 0
12, 6930, Note_on_c, 11, 69, 78
12, 6960, Note_on_c, 11, 69, 0
12, 6960, Note_on_c, 11, 67, 78
12, 7320, Note_on_c, 11, 67, 0
12, 7320, Note_on_c, 11, 66, 70
12, 7361, Note_on_c, 11, 66, 0
12, 7380, Note_on_c, 11, 69, 71
12, 7421, Note_on_c, 11, 69, 0
12, 7440, Note_on_c, 11, 66, 72
12, 7470, Note_on_c, 11, 66, 0
12, 7470, Note_on_c, 11, 68, 72
12, 7500, Note_on_c, 11, 68, 0
12, 7500, Note_on_c, 11, 69, 73
12, 7530, Note_on_c, 11, 69, 0
12, 7530, Note_on_c, 11, 68, 73
12, 7560, Note_on_c, 11, 68, 0
12, 7560, Note_on_c, 11, 71, 73
12, 7590, Note_on_c, 11, 71, 0
12, 7590, Note_on_c, 11, 69, 74
12, 7620, Note_on_c, 11, 69, 0
12, 7620, Note_on_c, 11, 68, 74
12, 7650, Note_on_c, 11, 68, 0
12, 7650, Note_on_c, 11, 66, 75
12, 7680, Note_on_c, 11, 66, 0
12, 7680, Note_on_c, 11, 68, 75
12, 7710, Note_on_c, 11, 68, 0
12, 7710, Note_on_c, 11, 66, 75
12, 7740, Note_on_c, 11, 66, 0
12, 7740, Note_on_c, 11, 64, 76
12, 7770, Note_on_c, 11, 64, 0
12, 7770, Note_on_c, 11, 66, 76
12, 7800, Note_on_c, 11, 66, 0
12, 7800, Note_on_c, 11, 68, 77
12, 7830, Note_on_c, 11, 68, 0
12, 7830, Note_on_c, 11, 69, 77
12, 7860, Note_on_c, 11, 69, 0
12, 7860, Note_on_c, 11, 71, 78
12, 7890, Note_on_c, 11, 71, 0
12, 7890, Note_on_c, 11, 69, 78
12, 7920, Note_on_c, 11, 69, 0
12, 7920, Note_on_c, 11, 73, 78
12, 7950, Note_on_c, 11, 73, 0
12, 7950, Note_on_c, 11, 71, 79
12, 7980, Note_on_c, 11, 71, 0
12, 7980, Note_on_c, 11, 69, 79
12, 8010, Note_on_c, 11, 69, 0
12, 8010, Note_on_c, 11, 68, 80
12, 8040, Note_on_c, 11, 68, 0
12, 8040, Note_on_c, 11, 69, 80
12, 8070, Note_on_c, 11, 69, 0
12, 8070, Note_on_c, 11, 68, 80
12, 8100, Note_on_c, 11, 68, 0
12, 8100, Note_on_c, 11, 66, 81
12, 8130, Note_on_c, 11, 66, 0
12, 8130, Note_on_c, 11, 68, 81
12, 8160, Note_on_c, 11, 68, 0
12, 8160, Note_on_c, 11, 69, 82
12, 8190, Note_on_c, 11, 69, 0
12, 8190, Note_on_c, 11, 71, 82
12, 8220, Note_on_c, 11, 71, 0
12, 8220, Note_on_c, 11, 73, 83
12, 8250, Note_on_c, 11, 73, 0
12, 8250, Note_on_c, 11, 71, 83
12, 8280, Note_on_c, 11, 71, 0
12, 8280, Note_on_c, 11, 74, 83
12, 8310, Note_on_c, 11, 74, 0
12, 8310, Note_on_c, 11, 73, 84
12, 8340, Note_on_c, 11, 73, 0
12, 8340, Note_on_c, 11, 71, 84
12, 8370, Note_on_c, 11, 71, 0
12, 8370, Note_on_c, 11, 69, 85
12, 8400, Note_on_c, 11, 69, 0
12, 8400, Note_on_c, 11, 71, 85
12, 8430, Note_on_c, 11, 71, 0
12, 8430, Note_on_c, 11, 69, 85
12, 8460, Note_on_c, 11, 69, 0
12, 8460, Note_on_c, 11, 68, 86
12, 8490, Note_on_c, 11, 68, 0
12, 8490, Note_on_c, 11, 69, 86
12, 8520, Note_on_c, 11, 69, 0
12, 8520, Note_on_c, 11, 71, 87
12, 8550, Note_on_c, 11, 71, 0
12, 8550, Note_on_c, 11, 73, 87
12, 8580, Note_on_c, 11, 73, 0
12, 8580, Note_on_c, 11, 74, 88
12, 8610, Note_on_c, 11, 74, 0
12, 8610, Note_on_c, 11, 73, 88
12, 8640, Note_on_c, 11, 73, 0
12, 8640, Note_on_c, 11, 76, 88
12, 8670, Note_on_c, 11, 76, 0
12, 8670, Note_on_c, 11, 74, 89
12, 8700, Note_on_c, 11, 74, 0
12, 8700, Note_on_c, 11, 73, 89
12, 8730, Note_on_c, 11, 73, 0
12, 8730, Note_on_c, 11, 71, 90
12, 8760, Note_on_c, 11, 71, 0
12, 8760, Note_on_c, 11, 69, 84
12, 9240, Note_on_c, 11, 69, 0
12, 9240, Note_on_c, 11, 69, 84
12, 9281, Note_on_c, 11, 69, 0
12, 9300, Note_on_c, 11, 69, 84
12, 9341, Note_on_c, 11, 69, 0
12, 9360, Note_on_c, 11, 69, 84
12, 9401, Note_on_c, 11, 69, 0
12, 9420, Note_on_c, 11, 69, 84
12, 9461, Note_on_c, 11, 69, 0
12, 9480, Note_on_c, 11, 69, 84
12, 10481, Note_on_c, 11, 69, 0
12, 10500, Note_on_c, 11, 66, 84
12, 10541, Note_on_c, 11, 66, 0
12, 10560, Note_on_c, 11, 68, 84
12, 10800, Note_on_c, 11, 68, 0
12, 10860, Note_on_c, 11, 64, 84
12, 10901, Note_on_c, 11, 64, 0
12, 10920, Note_on_c, 11, 69, 84
12, 10961, Note_on_c, 11, 69, 0
12, 10980, Note_on_c, 11, 73, 84
12, 11010, Note_on_c, 11, 73, 0
12, 11010, Note_on_c, 11, 71, 84
12, 11040, Note_on_c, 11, 71, 0
12, 11040, Note_on_c, 11, 73, 84
12, 11321, Note_on_c, 11, 73, 0
12, 11340, Note_on_c, 11, 71, 84
12, 11370, Note_on_c, 11, 71, 0
12, 11370, Note_on_c, 11, 69, 84
12, 11400, Note_on_c, 11, 69, 0
12, 11400, Note_on_c, 11, 71, 84
12, 11681, Note_on_c, 11, 71, 0
12, 11700, Note_on_c, 11, 69, 84
12, 11730, Note_on_c, 11, 69, 0
12, 11730, Note_on_c, 11, 67, 84
12, 11760, Note_on_c, 11, 67, 0
12, 11760, Note_on_c, 11, 69, 84
12, 12120, Note_on_c, 11, 69, 0
12, 12120, Note_on_c, 11, 74, 84
12, 12540, Note_on_c, 11, 74, 0
12, 12540, Note_on_c, 11, 76, 88
12, 12570, Note_on_c, 11, 76, 0
12, 12570, Note_on_c, 11, 74, 89
12, 12600, Note_on_c, 11, 74, 0
12, 12600, Note_on_c, 11, 73, 89
12, 12641, Note_on_c, 11, 73, 0
12, 12660, Note_on_c, 11, 71, 91
12, 12701, Note_on_c, 11, 71, 0
12, 12720, Note_on_c, 11, 69, 92
12, 12750, Note_on_c, 11, 69, 0
12, 12750, Note_on_c, 11, 68, 93
12, 12780, Note_on_c, 11, 68, 0
12, 12780, Note_on_c, 11, 69, 93
12, 12810, Note_on_c, 11, 69, 0
12, 12810, Note_on_c, 11, 71, 94
12, 12840, Note_on_c, 11, 71, 0
12, 12840, Note_on_c, 11, 73, 95
12, 12881, Note_on_c, 11, 73, 0
12, 12900, Note_on_c, 11, 69, 96
12, 12941, Note_on_c, 11, 69, 0
12, 12960, Note_on_c, 11, 64, 97
12, 13001, Note_on_c, 11, 64, 0
12, 13020, Note_on_c, 11, 68, 99
12, 13061, Note_on_c, 11, 68, 0
12, 13080, Note_on_c, 11, 69, 100
12, 13200, Note_on_c, 11, 69, 0
12, 19260, Note_on_c, 11, 69, 77
12, 19301, Note_on_c, 11, 69, 0
12, 19320, Note_on_c, 11, 74, 78
12, 19361, Note_on_c, 11, 74, 0
12, 19380, Note_on_c, 11, 69, 79
12, 19421, Note_on_c, 11, 69, 0
12, 19440, Note_on_c, 11, 66, 79
12, 19470, Note_on_c, 11, 66, 0
12, 19470, Note_on_c, 11, 67, 79
12, 19500, Note_on_c, 11, 67, 0
12, 19500, Note_on_c, 11, 69, 80
12, 19590, Note_on_c, 11, 69, 0
12, 19590, Note_on_c, 11, 67, 81
12, 19620, Note_on_c, 11, 67, 0
12, 19620, Note_on_c, 11, 66, 81
12, 19650, Note_on_c, 11, 66, 0
12, 19650, Note_on_c, 11, 64, 81
12, 19680, Note_on_c, 11, 64, 0
12, 19680, Note_on_c, 11, 62, 81
12, 19721, Note_on_c, 11, 62, 0
12, 19740, Note_on_c, 11, 69, 82
12, 19781, Note_on_c, 11, 69, 0
12, 19800, Note_on_c, 11, 69, 83
12, 19961, Note_on_c, 11, 69, 0
12, 19980, Note_on_c, 11, 74, 84
12, 20010, Note_on_c, 11, 74, 0
12, 20010, Note_on_c, 11, 73, 85
12, 20040, Note_on_c, 11, 73, 0
12, 20040, Note_on_c, 11, 74, 85
12, 20081, Note_on_c, 11, 74, 0
12, 20100, Note_on_c, 11, 72, 85
12, 20141, Note_on_c, 11, 72, 0
12, 20160, Note_on_c, 11, 71, 86
12, 20321, Note_on_c, 11, 71, 0
12, 20340, Note_on_c, 11, 76, 88
12, 20370, Note_on_c, 11, 76, 0
12, 20370, Note_on_c, 11, 75, 88
12, 20400, Note_on_c, 11, 75, 0
12, 20400, Note_on_c, 11, 76, 88
12, 20441, Note_on_c, 11, 76, 0
12, 20460, Note_on_c, 11, 74, 89
12, 20501, Note_on_c, 11, 74, 0
12, 20520, Note_on_c, 11, 72, 89
12, 20670, Note_on_c, 11, 72, 0
12, 20670, Note_on_c, 11, 71, 91
12, 20700, Note_on_c, 11, 71, 0
12, 20700, Note_on_c, 11, 69, 91
12, 20730, Note_on_c, 11, 69, 0
12, 20730, Note_on_c, 11, 71, 91
12, 20760, Note_on_c, 11, 71, 0
12, 20760, Note_on_c, 11, 72, 92
12, 20790, Note_on_c, 11, 72, 0
12, 20790, Note_on_c, 11, 71, 92
12, 20820, Note_on_c, 11, 71, 0
12, 20820, Note_on_c, 11, 69, 92
12, 20850, Note_on_c, 11, 69, 0
12, 20850, Note_on_c, 11, 67, 93
12, 20880, Note_on_c, 11, 67, 0
12, 20880, Note_on_c, 11, 66, 93
12, 21000, Note_on_c, 11, 66, 0
12, 21000, Note_on_c, 11, 67, 94
12, 21120, Note_on_c, 11, 67, 0
12, 21150, Note_on_c, 11, 71, 95
12, 21180, Note_on_c, 11, 71, 0
12, 21180, Note_on_c, 11, 73, 95
12, 21210, Note_on_c, 11, 73, 0
12, 21210, Note_on_c, 11, 74, 95
12, 21240, Note_on_c, 11, 74, 0
12, 21240, Note_on_c, 11, 76, 95
12, 21401, Note_on_c, 11, 76, 0
12, 21420, Note_on_c, 11, 78, 95
12, 21450, Note_on_c, 11, 78, 0
12, 21450, Note_on_c, 11, 76, 96
12, 21480, Note_on_c, 11, 76, 0
12, 21480, Note_on_c, 11, 74, 96
12, 21521, Note_on_c, 11, 74, 0
12, 21540, Note_on_c, 11, 73, 96
12, 21581, Note_on_c, 11, 73, 0
12, 21600, Note_on_c, 11, 74, 96
12, 21761, Note_on_c, 11, 74, 0
12, 21780, Note_on_c, 11, 68, 97
12, 21810, Note_on_c, 11, 68, 0
12, 21810, Note_on_c, 11, 69, 97
12, 21840, Note_on_c, 11, 69, 0
12, 21840, Note_on_c, 11, 71, 97
12, 21870, Note_on_c, 11, 71, 0
12, 21870, Note_on_c, 11, 73, 97
12, 21900, Note_on_c, 11, 73, 0
12, 21900, Note_on_c, 11, 74, 97
12, 21930, Note_on_c, 11, 74, 0
12, 21930, Note_on_c, 11, 73, 97
12, 21960, Note_on_c, 11, 73, 0
12, 21960, Note_on_c, 11, 76, 97
12, 21990, Note_on_c, 11, 76, 0
12, 21990, Note_on_c, 11, 74, 97
12, 22020, Note_on_c, 11, 74, 0
12, 22020, Note_on_c, 11, 73, 97
12, 22050, Note_on_c, 11, 73, 0
12, 22050, Note_on_c, 11, 71, 98
12, 22080, Note_on_c, 11, 71, 0
12, 22080, Note_on_c, 11, 73, 98
12, 22481, Note_on_c, 11, 73, 0
12, 22500, Note_on_c, 11, 71, 99
12, 22530, Note_on_c, 11, 71, 0
12, 22530, Note_on_c, 11, 70, 99
12, 22560, Note_on_c, 11, 70, 0
12, 22560, Note_on_c, 11, 71, 99
12, 22601, Note_on_c, 11, 71, 0
12, 22620, Note_on_c, 11, 76, 99
12, 22661, Note_on_c, 11, 76, 0
12, 22680, Note_on_c, 11, 73, 100
12, 22800, Note_on_c, 11, 73, 0
12, 22800, Note_on_c, 11, 71, 100
12, 22920, Note_on_c, 11, 71, 0
12, 24240, Note_on_c, 11, 71, 90
12, 24480, Note_on_c, 11, 71, 0
12, 24480, Note_on_c, 11, 71, 90
12, 24600, Note_on_c, 11, 71, 0
12, 24660, Note_on_c, 11, 71, 90
12, 24701, Note_on_c, 11, 71, 0
12, 24720, Note_on_c, 11, 76, 90
12, 24761, Note_on_c, 11, 76, 0
12, 24780, Note_on_c, 11, 71, 90
12, 24821, Note_on_c, 11, 71, 0
12, 24840, Note_on_c, 11, 71, 90
12, 24881, Note_on_c, 11, 71, 0
12, 24900, Note_on_c, 11, 69, 90
12, 24930, Note_on_c, 11, 69, 0
12, 24930, Note_on_c, 11, 68, 90
12, 24960, Note_on_c, 11, 68, 0
12, 24960, Note_on_c, 11, 69, 90
12, 25080, Note_on_c, 11, 69, 0
12, 25680, Note_on_c, 11, 69, 90
12, 25920, Note_on_c, 11, 69, 0
12, 25920, Note_on_c, 11, 69, 90
12, 26040, Note_on_c, 11, 69, 0
12, 26100, Note_on_c, 11, 68, 90
12, 26141, Note_on_c, 11, 68, 0
12, 26160, Note_on_c, 11, 73, 90
12, 26201, Note_on_c, 11, 73, 0
12, 26220, Note_on_c, 11, 73, 90
12, 26250, Note_on_c, 11, 73, 0
12, 26250, Note_on_c, 11, 73, 90
12, 26280, Note_on_c, 11, 73, 0
12, 26280, Note_on_c, 11, 73, 90
12, 26321, Note_on_c, 11, 73, 0
12, 26340, Note_on_c, 11, 68, 90
12, 26381, Note_on_c, 11, 68, 0
12, 26400, Note_on_c, 11, 69, 90
12, 26441, Note_on_c, 11, 69, 0
12, 26460, Note_on_c, 11, 66, 90
12, 26501, Note_on_c, 11, 66, 0
12, 26580, Note_on_c, 11, 69, 90
12, 26621, Note_on_c, 11, 69, 0
12, 26640, Note_on_c, 11, 73, 90
12, 26880, Note_on_c, 11, 73, 0
12, 26880, Note_on_c, 11, 73, 90
12, 26921, Note_on_c, 11, 73, 0
12, 26940, Note_on_c, 11, 73, 90
12, 26981, Note_on_c, 11, 73, 0
12, 27000, Note_on_c, 11, 73, 90
12, 27041, Note_on_c, 11, 73, 0
12, 27060, Note_on_c, 11, 73, 90
12, 27101, Note_on_c, 11, 73, 0
12, 27120, Note_on_c, 11, 72, 90
12, 27480, Note_on_c, 11, 72, 0
12, 27480, Note_on_c, 11, 73, 93
12, 27840, Note_on_c, 11, 73, 0
12, 27840, Note_on_c, 11, 75, 95
12, 28200, Note_on_c, 11, 75, 0
12, 28200, Note_on_c, 11, 73, 98
12, 28440, Note_on_c, 11, 73, 0
12, 28500, Note_on_c, 11, 77, 100
12, 28541, Note_on_c, 11, 77, 0
12, 28560, Note_on_c, 11, 78, 95
12, 28601, Note_on_c, 11, 78, 0
12, 28620, Note_on_c, 11, 73, 96
12, 28650, Note_on_c, 11, 73, 0
12, 28650, Note_on_c, 11, 73, 96
12, 28680, Note_on_c, 11, 73, 0
12, 28680, Note_on_c, 11, 73, 97
12, 28721, Note_on_c, 11, 73, 0
12, 28740, Note_on_c, 11, 78, 98
12, 28781, Note_on_c, 11, 78, 0
12, 28800, Note_on_c, 11, 78, 98
12, 28841, Note_on_c, 11, 78, 0
12, 28860, Note_on_c, 11, 77, 99
12, 28901, Note_on_c, 11, 77, 0
12, 28920, Note_on_c, 11, 78, 100
12, 29040, Note_on_c, 11, 78, 0
12, 30420, Note_on_c, 11, 66, 70
12, 30461, Note_on_c, 11, 66, 0
12, 30480, Note_on_c, 11, 71, 70
12, 30521, Note_on_c, 11, 71, 0
12, 30540, Note_on_c, 11, 66, 70
12, 30581, Note_on_c, 11, 66, 0
12, 30600, Note_on_c, 11, 62, 70
12, 30630, Note_on_c, 11, 62, 0
12, 30630, Note_on_c, 11, 64, 70
12, 30660, Note_on_c, 11, 64, 0
12, 30660, Note_on_c, 11, 66, 70
12, 30701, Note_on_c, 11, 66, 0
12, 30720, Note_on_c, 11, 66, 70
12, 30840, Note_on_c, 11, 66, 0
12, 31140, Note_on_c, 11, 66, 71
12, 31181, Note_on_c, 11, 66, 0
12, 31200, Note_on_c, 11, 71, 71
12, 31350, Note_on_c, 11, 71, 0
12, 31350, Note_on_c, 11, 74, 73
12, 31380, Note_on_c, 11, 74, 0
12, 31380, Note_on_c, 11, 73, 73
12, 31410, Note_on_c, 11, 73, 0
12, 31410, Note_on_c, 11, 71, 73
12, 31440, Note_on_c, 11, 71, 0
12, 31440, Note_on_c, 11, 73, 74
12, 31470, Note_on_c, 11, 73, 0
12, 31470, Note_on_c, 11, 71, 74
12, 31500, Note_on_c, 11, 71, 0
12, 31500, Note_on_c, 11, 70, 74
12, 31530, Note_on_c, 11, 70, 0
12, 31530, Note_on_c, 11, 71, 74
12, 31560, Note_on_c, 11, 71, 0
12, 31560, Note_on_c, 11, 73, 75
12, 31601, Note_on_c, 11, 73, 0
12, 31620, Note_on_c, 11, 73, 75
12, 31650, Note_on_c, 11, 73, 0
12, 31650, Note_on_c, 11, 73, 76
12, 31680, Note_on_c, 11, 73, 0
12, 31680, Note_on_c, 11, 73, 76
12, 31721, Note_on_c, 11, 73, 0
12, 31740, Note_on_c, 11, 66, 76
12, 31781, Note_on_c, 11, 66, 0
12, 31800, Note_on_c, 11, 71, 77
12, 32160, Note_on_c, 11, 71, 0
12, 32160, Note_on_c, 11, 71, 81
12, 32201, Note_on_c, 11, 71, 0
12, 32220, Note_on_c, 11, 71, 81
12, 32261, Note_on_c, 11, 71, 0
12, 32280, Note_on_c, 11, 76, 82
12, 32321, Note_on_c, 11, 76, 0
12, 32340, Note_on_c, 11, 71, 82
12, 32381, Note_on_c, 11, 71, 0
12, 32400, Note_on_c, 11, 68, 83
12, 32430, Note_on_c, 11, 68, 0
12, 32430, Note_on_c, 11, 69, 83
12, 32460, Note_on_c, 11, 69, 0
12, 32460, Note_on_c, 11, 71, 83
12, 32501, Note_on_c, 11, 71, 0
12, 32520, Note_on_c, 11, 71, 84
12, 32640, Note_on_c, 11, 71, 0
12, 32700, Note_on_c, 11, 71, 84
12, 32741, Note_on_c, 11, 71, 0
12, 32760, Note_on_c, 11, 76, 84
12, 32910, Note_on_c, 11, 76, 0
12, 32910, Note_on_c, 11, 74, 84
12, 32940, Note_on_c, 11, 74, 0
12, 32940, Note_on_c, 11, 73, 84
12, 32970, Note_on_c, 11, 73, 0
12, 32970, Note_on_c, 11, 74, 84
12, 33000, Note_on_c, 11, 74, 0
12, 33000, Note_on_c, 11, 76, 84
12, 33041, Note_on_c, 11, 76, 0
12, 33060, Note_on_c, 11, 74, 84
12, 33090, Note_on_c, 11, 74, 0
12, 33090, Note_on_c, 11, 76, 84
12, 33120, Note_on_c, 11, 76, 0
12, 33120, Note_on_c, 11, 73, 84
12, 33161, Note_on_c, 11, 73, 0
12, 33180, Note_on_c, 11, 76, 84
12, 33221, Note_on_c, 11, 76, 0
12, 33240, Note_on_c, 11, 78, 84
12, 33270, Note_on_c, 11, 78, 0
12, 33270, Note_on_c, 11, 76, 84
12, 33300, Note_on_c, 11, 76, 0
12, 33300, Note_on_c, 11, 74, 84
12, 33330, Note_on_c, 11, 74, 0
12, 33330, Note_on_c, 11, 76, 84
12, 33360, Note_on_c, 11, 76, 0
12, 33360, Note_on_c, 11, 78, 84
12, 33390, Note_on_c, 11, 78, 0
12, 33390, Note_on_c, 11, 79, 84
12, 33420, Note_on_c, 11, 79, 0
12, 33420, Note_on_c, 11, 76, 84
12, 33450, Note_on_c, 11, 76, 0
12, 33450, Note_on_c, 11, 78, 84
12, 33480, Note_on_c, 11, 78, 0
12, 33480, Note_on_c, 11, 74, 84
12, 33630, Note_on_c, 11, 74, 0
12, 33630, Note_on_c, 11, 73, 84
12, 33660, Note_on_c, 11, 73, 0
12, 33660, Note_on_c, 11, 71, 84
12, 33690, Note_on_c, 11, 71, 0
12, 33690, Note_on_c, 11, 73, 84
12, 33720, Note_on_c, 11, 73, 0
12, 33720, Note_on_c, 11, 74, 84
12, 33750, Note_on_c, 11, 74, 0
12, 33750, Note_on_c, 11, 73, 84
12, 33780, Note_on_c, 11, 73, 0
12, 33780, Note_on_c, 11, 71, 84
12, 33810, Note_on_c, 11, 71, 0
12, 33810, Note_on_c, 11, 69, 84
12, 33840, Note_on_c, 11, 69, 0
12, 33840, Note_on_c, 11, 71, 84
12, 33881, Note_on_c, 11, 71, 0
12, 33900, Note_on_c, 11, 69, 84
12, 33930, Note_on_c, 11, 69, 0
12, 33930, Note_on_c, 11, 68, 84
12, 33960, Note_on_c, 11, 68, 0
12, 33960, Note_on_c, 11, 69, 84
12, 34001, Note_on_c, 11, 69, 0
12, 34020, Note_on_c, 11, 64, 84
12, 34061, Note_on_c, 11, 64, 0
12, 34140, Note_on_c, 11, 76, 84
12, 34181, Note_on_c, 11, 76, 0
12, 34200, Note_on_c, 11, 81, 84
12, 34241, Note_on_c, 11, 81, 0
12, 34260, Note_on_c, 11, 76, 84
12, 34301, Note_on_c, 11, 76, 0
12, 34320, Note_on_c, 11, 73, 84
12, 34350, Note_on_c, 11, 73, 0
12, 34350, Note_on_c, 11, 71, 84
12, 34380, Note_on_c, 11, 71, 0
12, 34380, Note_on_c, 11, 73, 84
12, 34410, Note_on_c, 11, 73, 0
12, 34410, Note_on_c, 11, 74, 84
12, 34440, Note_on_c, 11, 74, 0
12, 34440, Note_on_c, 11, 76, 84
12, 34481, Note_on_c, 11, 76, 0
12, 34500, Note_on_c, 11, 73, 84
12, 34541, Note_on_c, 11, 73, 0
12, 34560, Note_on_c, 11, 76, 84
12, 34601, Note_on_c, 11, 76, 0
12, 34620, Note_on_c, 11, 73, 84
12, 34661, Note_on_c, 11, 73, 0
12, 34680, Note_on_c, 11, 69, 84
12, 34721, Note_on_c, 11, 69, 0
12, 34740, Note_on_c, 11, 73, 84
12, 34770, Note_on_c, 11, 73, 0
12, 34770, Note_on_c, 11, 71, 84
12, 34800, Note_on_c, 11, 71, 0
12, 34800, Note_on_c, 11, 69, 84
12, 34841, Note_on_c, 11, 69, 0
12, 34860, Note_on_c, 11, 73, 84
12, 34901, Note_on_c, 11, 73, 0
12, 34920, Note_on_c, 11, 74, 84
12, 34961, Note_on_c, 11, 74, 0
12, 34980, Note_on_c, 11, 78, 84
12, 35021, Note_on_c, 11, 78, 0
12, 35040, Note_on_c, 11, 71, 84
12, 35081, Note_on_c, 11, 71, 0
12, 35100, Note_on_c, 11, 74, 84
12, 35130, Note_on_c, 11, 74, 0
12, 35130, Note_on_c, 11, 73, 84
12, 35160, Note_on_c, 11, 73, 0
12, 35160, Note_on_c, 11, 71, 84
12, 35201, Note_on_c, 11, 71, 0
12, 35220, Note_on_c, 11, 74, 84
12, 35261, Note_on_c, 11, 74, 0
12, 35280, Note_on_c, 11, 76, 84
12, 35321, Note_on_c, 11, 76, 0
12, 35340, Note_on_c, 11, 79, 84
12, 35381, Note_on_c, 11, 79, 0
12, 35400, Note_on_c, 11, 73, 84
12, 35441, Note_on_c, 11, 73, 0
12, 35460, Note_on_c, 11, 76, 84
12, 35490, Note_on_c, 11, 76, 0
12, 35490, Note_on_c, 11, 74, 84
12, 35520, Note_on_c, 11, 74, 0
12, 35520, Note_on_c, 11, 73, 84
12, 35561, Note_on_c, 11, 73, 0
12, 35580, Note_on_c, 11, 76, 84
12, 35621, Note_on_c, 11, 76, 0
12, 35640, Note_on_c, 11, 69, 84
12, 35681, Note_on_c, 11, 69, 0
12, 35700, Note_on_c, 11, 79, 84
12, 35741, Note_on_c, 11, 79, 0
12, 35760, Note_on_c, 11, 78, 84
12, 35801, Note_on_c, 11, 78, 0
12, 35820, Note_on_c, 11, 76, 84
12, 35850, Note_on_c, 11, 76, 0
12, 35850, Note_on_c, 11, 78, 84
12, 35880, Note_on_c, 11, 78, 0
12, 35880, Note_on_c, 11, 74, 84
12, 35921, Note_on_c, 11, 74, 0
12, 36030, Note_on_c, 11, 67, 84
12, 36060, Note_on_c, 11, 67, 0
12, 36060, Note_on_c, 11, 66, 84
12, 36090, Note_on_c, 11, 66, 0
12, 36090, Note_on_c, 11, 64, 84
12, 36120, Note_on_c, 11, 64, 0
12, 36120, Note_on_c, 11, 62, 84
12, 36150, Note_on_c, 11, 62, 0
12, 36150, Note_on_c, 11, 61, 84
12, 36180, Note_on_c, 11, 61, 0
12, 36180, Note_on_c, 11, 62, 84
12, 36210, Note_on_c, 11, 62, 0
12, 36210, Note_on_c, 11, 64, 84
12, 36240, Note_on_c, 11, 64, 0
12, 36240, Note_on_c, 11, 66, 84
12, 36270, Note_on_c, 11, 66, 0
12, 36270, Note_on_c, 11, 64, 84
12, 36300, Note_on_c, 11, 64, 0
12, 36300, Note_on_c, 11, 62, 84
12, 36330, Note_on_c, 11, 62, 0
12, 36330, Note_on_c, 11, 64, 85
12, 36360, Note_on_c, 11, 64, 0
12, 36360, Note_on_c, 11, 66, 85
12, 36390, Note_on_c, 11, 66, 0
12, 36390, Note_on_c, 11, 64, 85
12, 36420, Note_on_c, 11, 64, 0
12, 36420, Note_on_c, 11, 62, 85
12, 36450, Note_on_c, 11, 62, 0
12, 36450, Note_on_c, 11, 64, 85
12, 36480, Note_on_c, 11, 64, 0
12, 36480, Note_on_c, 11, 66, 85
12, 36510, Note_on_c, 11, 66, 0
12, 36510, Note_on_c, 11, 64, 85
12, 36540, Note_on_c, 11, 64, 0
12, 36540, Note_on_c, 11, 62, 85
12, 36570, Note_on_c, 11, 62, 0
12, 36570, Note_on_c, 11, 64, 85
12, 36600, Note_on_c, 11, 64, 0
12, 36600, Note_on_c, 11, 66, 85
12, 36630, Note_on_c, 11, 66, 0
12, 36630, Note_on_c, 11, 67, 85
12, 36660, Note_on_c, 11, 67, 0
12, 36660, Note_on_c, 11, 69, 85
12, 36690, Note_on_c, 11, 69, 0
12, 36690, Note_on_c, 11, 67, 85
12, 36720, Note_on_c, 11, 67, 0
12, 36720, Note_on_c, 11, 71, 85
12, 36750, Note_on_c, 11, 71, 0
12, 36750, Note_on_c, 11, 69, 86
12, 36780, Note_on_c, 11, 69, 0
12, 36780, Note_on_c, 11, 67, 86
12, 36810, Note_on_c, 11, 67, 0
12, 36810, Note_on_c, 11, 66, 86
12, 36840, Note_on_c, 11, 66, 0
12, 36840, Note_on_c, 11, 67, 86
12, 36870, Note_on_c, 11, 67, 0
12, 36870, Note_on_c, 11, 66, 86
12, 36900, Note_on_c, 11, 66, 0
12, 36900, Note_on_c, 11, 64, 86
12, 36930, Note_on_c, 11, 64, 0
12, 36930, Note_on_c, 11, 66, 86
12, 36960, Note_on_c, 11, 66, 0
12, 36960, Note_on_c, 11, 67, 86
12, 36990, Note_on_c, 11, 67, 0
12, 36990, Note_on_c, 11, 69, 86
12, 37020, Note_on_c, 11, 69, 0
12, 37020, Note_on_c, 11, 71, 86
12, 37050, Note_on_c, 11, 71, 0
12, 37050, Note_on_c, 11, 69, 86
12, 37080, Note_on_c, 11, 69, 0
12, 37080, Note_on_c, 11, 72, 86
12, 37110, Note_on_c, 11, 72, 0
12, 37110, Note_on_c, 11, 71, 86
12, 37140, Note_on_c, 11, 71, 0
12, 37140, Note_on_c, 11, 69, 86
12, 37170, Note_on_c, 11, 69, 0
12, 37170, Note_on_c, 11, 67, 87
12, 37200, Note_on_c, 11, 67, 0
12, 37200, Note_on_c, 11, 69, 87
12, 37230, Note_on_c, 11, 69, 0
12, 37230, Note_on_c, 11, 67, 87
12, 37260, Note_on_c, 11, 67, 0
12, 37260, Note_on_c, 11, 66, 87
12, 37290, Note_on_c, 11, 66, 0
12, 37290, Note_on_c, 11, 67, 87
12, 37320, Note_on_c, 11, 67, 0
12, 37320, Note_on_c, 11, 69, 87
12, 37350, Note_on_c, 11, 69, 0
12, 37350, Note_on_c, 11, 71, 87
12, 37380, Note_on_c, 11, 71, 0
12, 37380, Note_on_c, 11, 72, 87
12, 37410, Note_on_c, 11, 72, 0
12, 37410, Note_on_c, 11, 71, 87
12, 37440, Note_on_c, 11, 71, 0
12, 37440, Note_on_c, 11, 74, 87
12, 37470, Note_on_c, 11, 74, 0
12, 37470, Note_on_c, 11, 72, 87
12, 37500, Note_on_c, 11, 72, 0
12, 37500, Note_on_c, 11, 71, 87
12, 37530, Note_on_c, 11, 71, 0
12, 37530, Note_on_c, 11, 69, 87
12, 37560, Note_on_c, 11, 69, 0
12, 37560, Note_on_c, 11, 67, 87
12, 37601, Note_on_c, 11, 67, 0
12, 37620, Note_on_c, 11, 74, 88
12, 37661, Note_on_c, 11, 74, 0
12, 37680, Note_on_c, 11, 79, 88
12, 37710, Note_on_c, 11, 79, 0
12, 37710, Note_on_c, 11, 78, 88
12, 37740, Note_on_c, 11, 78, 0
12, 37740, Note_on_c, 11, 76, 88
12, 37770, Note_on_c, 11, 76, 0
12, 37770, Note_on_c, 11, 74, 88
12, 37800, Note_on_c, 11, 74, 0
12, 37800, Note_on_c, 11, 76, 88
12, 37830, Note_on_c, 11, 76, 0
12, 37830, Note_on_c, 11, 74, 88
12, 37860, Note_on_c, 11, 74, 0
12, 37860, Note_on_c, 11, 73, 88
12, 37890, Note_on_c, 11, 73, 0
12, 37890, Note_on_c, 11, 71, 88
12, 37920, Note_on_c, 11, 71, 0
12, 37920, Note_on_c, 11, 73, 88
12, 38321, Note_on_c, 11, 73, 0
12, 38340, Note_on_c, 11, 78, 89
12, 38430, Note_on_c, 11, 78, 0
12, 38430, Note_on_c, 11, 76, 90
12, 38460, Note_on_c, 11, 76, 0
12, 38460, Note_on_c, 11, 74, 90
12, 38490, Note_on_c, 11, 74, 0
12, 38490, Note_on_c, 11, 73, 90
12, 38520, Note_on_c, 11, 73, 0
12, 38520, Note_on_c, 11, 74, 90
12, 38550, Note_on_c, 11, 74, 0
12, 38550, Note_on_c, 11, 73, 90
12, 38580, Note_on_c, 11, 73, 0
12, 38580, Note_on_c, 11, 71, 90
12, 38610, Note_on_c, 11, 71, 0
12, 38610, Note_on_c, 11, 69, 90
12, 38640, Note_on_c, 11, 69, 0
12, 38640, Note_on_c, 11, 71, 90
12, 39041, Note_on_c, 11, 71, 0
12, 39060, Note_on_c, 11, 76, 94
12, 39180, Note_on_c, 11, 76, 0
12, 39180, Note_on_c, 11, 74, 95
12, 39210, Note_on_c, 11, 74, 0
12, 39210, Note_on_c, 11, 76, 95
12, 39240, Note_on_c, 11, 76, 0
12, 39240, Note_on_c, 11, 69, 96
12, 39281, Note_on_c, 11, 69, 0
12, 39300, Note_on_c, 11, 64, 96
12, 39341, Note_on_c, 11, 64, 0
12, 39360, Note_on_c, 11, 69, 97
12, 39390, Note_on_c, 11, 69, 0
12, 39390, Note_on_c, 11, 71, 97
12, 39420, Note_on_c, 11, 71, 0
12, 39420, Note_on_c, 11, 73, 97
12, 39450, Note_on_c, 11, 73, 0
12, 39450, Note_on_c, 11, 74, 98
12, 39480, Note_on_c, 11, 74, 0
12, 39480, Note_on_c, 11, 76, 98
12, 39521, Note_on_c, 11, 76, 0
12, 39540, Note_on_c, 11, 73, 98
12, 39581, Note_on_c, 11, 73, 0
12, 39600, Note_on_c, 11, 74, 99
12, 39641, Note_on_c, 11, 74, 0
12, 39660, Note_on_c, 11, 76, 99
12, 39701, Note_on_c, 11, 76, 0
12, 39720, Note_on_c, 11, 74, 95
12, 39750, Note_on_c, 11, 74, 0
12, 39750, Note_on_c, 11, 73, 95
12, 39780, Note_on_c, 11, 73, 0
12, 39780, Note_on_c, 11, 74, 95
12, 39821, Note_on_c, 11, 74, 0
12, 39840, Note_on_c, 11, 69, 95
12, 39881, Note_on_c, 11, 69, 0
12, 40140, Note_on_c, 11, 74, 95
12, 40181, Note_on_c, 11, 74, 0
12, 40200, Note_on_c, 11, 74, 95
12, 40241, Note_on_c, 11, 74, 0
12, 40260, Note_on_c, 11, 74, 95
12, 40290, Note_on_c, 11, 74, 0
12, 40290, Note_on_c, 11, 74, 95
12, 40320, Note_on_c, 11, 74, 0
12, 40320, Note_on_c, 11, 74, 95
12, 40361, Note_on_c, 11, 74, 0
12, 40380, Note_on_c, 11, 74, 95
12, 40421, Note_on_c, 11, 74, 0
12, 40440, Note_on_c, 11, 74, 95
12, 41441, Note_on_c, 11, 74, 0
12, 41460, Note_on_c, 11, 71, 104
12, 41501, Note_on_c, 11, 71, 0
12, 41520, Note_on_c, 11, 73, 105
12, 41760, Note_on_c, 11, 73, 0
12, 41820, Note_on_c, 11, 73, 92
12, 41861, Note_on_c, 11, 73, 0
12, 41880, Note_on_c, 11, 74, 90
12, 41921, Note_on_c, 11, 74, 0
12, 41940, Note_on_c, 11, 69, 91
12, 41970, Note_on_c, 11, 69, 0
12, 41970, Note_on_c, 11, 69, 91
12, 42000, Note_on_c, 11, 69, 0
12, 42000, Note_on_c, 11, 74, 91
12, 42281, Note_on_c, 11, 74, 0
12, 42300, Note_on_c, 11, 71, 94
12, 42341, Note_on_c, 11, 71, 0
12, 42360, Note_on_c, 11, 76, 94
12, 42641, Note_on_c, 11, 76, 0
12, 42660, Note_on_c, 11, 73, 97
12, 42701, Note_on_c, 11, 73, 0
12, 42720, Note_on_c, 11, 78, 97
12, 43001, Note_on_c, 11, 78, 0
12, 43020, Note_on_c, 11, 73, 100
12, 43061, Note_on_c, 11, 73, 0
12, 43080, Note_on_c, 11, 79, 100
12, 43350, Note_on_c, 11, 79, 0
12, 43350, Note_on_c, 11, 78, 102
12, 43380, Note_on_c, 11, 78, 0
12, 43380, Note_on_c, 11, 79, 103
12, 43421, Note_on_c, 11, 79, 0
12, 43440, Note_on_c, 11, 69, 103
12, 43560, Note_on_c, 11, 69, 0
12, 43620, Note_on_c, 11, 69, 105
12, 43661, Note_on_c, 11, 69, 0
12, 43680, Note_on_c, 11, 69, 100
12, 43721, Note_on_c, 11, 69, 0
12, 43740, Note_on_c, 11, 74, 101
12, 43770, Note_on_c, 11, 74, 0
12, 43770, Note_on_c, 11, 73, 101
12, 43800, Note_on_c, 11, 73, 0
12, 43800, Note_on_c, 11, 74, 101
12, 44081, Note_on_c, 11, 74, 0
12, 44100, Note_on_c, 11, 76, 104
12, 44141, Note_on_c, 11, 76, 0
12, 44160, Note_on_c, 11, 73, 104
12, 44280, Note_on_c, 11, 73, 0
12, 44280, Note_on_c, 11, 73, 106
12, 44441, Note_on_c, 11, 73, 0
12, 44460, Note_on_c, 11, 74, 107
12, 44501, Note_on_c, 11, 74, 0
12, 44520, Note_on_c, 11, 71, 108
12, 44640, Note_on_c, 11, 71, 0
12, 44640, Note_on_c, 11, 71, 109
12, 44790, Note_on_c, 11, 71, 0
12, 44790, Note_on_c, 11, 69, 110
12, 44820, Note_on_c, 11, 69, 0
12, 44820, Note_on_c, 11, 67, 111
12, 44850, Note_on_c, 11, 67, 0
12, 44850, Note_on_c, 11, 69, 111
12, 44880, Note_on_c, 11, 69, 0
12, 44880, Note_on_c, 11, 71, 111
12, 44910, Note_on_c, 11, 71, 0
12, 44910, Note_on_c, 11, 67, 111
12, 44940, Note_on_c, 11, 67, 0
12, 44940, Note_on_c, 11, 69, 112
12, 44970, Note_on_c, 11, 69, 0
12, 44970, Note_on_c, 11, 71, 112
12, 45000, Note_on_c, 11, 71, 0
12, 45000, Note_on_c, 11, 73, 112
12, 45030, Note_on_c, 11, 73, 0
12, 45030, Note_on_c, 11, 74, 113
12, 45060, Note_on_c, 11, 74, 0
12, 45060, Note_on_c, 11, 76, 113
12, 45101, Note_on_c, 11, 76, 0
12, 45120, Note_on_c, 11, 76, 113
12, 45161, Note_on_c, 11, 76, 0
12, 45180, Note_on_c, 11, 73, 114
12, 45221, Note_on_c, 11, 73, 0
12, 45300, Note_on_c, 11, 73, 115
12, 45341, Note_on_c, 11, 73, 0
12, 45360, Note_on_c, 11, 74, 116
12, 45401, Note_on_c, 11, 74, 0
12, 45420, Note_on_c, 11, 73, 116
12, 45450, Note_on_c, 11, 73, 0
12, 45450, Note_on_c, 11, 73, 116
12, 45480, Note_on_c, 11, 73, 0
12, 45480, Note_on_c, 11, 74, 117
12, 45521, Note_on_c, 11, 74, 0
12, 45540, Note_on_c, 11, 74, 117
12, 45581, Note_on_c, 11, 74, 0
12, 45600, Note_on_c, 11, 74, 118
12, 45641, Note_on_c, 11, 74, 0
12, 45660, Note_on_c, 11, 79, 118
12, 45701, Note_on_c, 11, 79, 0
12, 45720, Note_on_c, 11, 76, 119
12, 45840, Note_on_c, 11, 76, 0
12, 45840, Note_on_c, 11, 74, 120
12, 46200, Note_on_c, 11, 74, 0
12, 46560, End_track
13, 0, Start_track
13, 0, MIDI_port, 0
13, 0, Title_t, "Alto"
13, 0, Program_c, 12, 52
13, 900, Note_on_c, 12, 61, 84
13, 941, Note_on_c, 12, 61, 0
13, 960, Note_on_c, 12, 67, 84
13, 1001, Note_on_c, 12, 67, 0
13, 1020, Note_on_c, 12, 64, 84
13, 1061, Note_on_c, 12, 64, 0
13, 1080, Note_on_c, 12, 66, 84
13, 1121, Note_on_c, 12, 66, 0
13, 1140, Note_on_c, 12, 67, 84
13, 1170, Note_on_c, 12, 67, 0
13, 1170, Note_on_c, 12, 69, 84
13, 1200, Note_on_c, 12, 69, 0
13, 1200, Note_on_c, 12, 67, 84
13, 1241, Note_on_c, 12, 67, 0
13, 1260, Note_on_c, 12, 67, 84
13, 1301, Note_on_c, 12, 67, 0
13, 1320, Note_on_c, 12, 67, 84
13, 1361, Note_on_c, 12, 67, 0
13, 1380, Note_on_c, 12, 67, 84
13, 1410, Note_on_c, 12, 67, 0
13, 1410, Note_on_c, 12, 67, 84
13, 1440, Note_on_c, 12, 67, 0
13, 1440, Note_on_c, 12, 67, 84
13, 1481, Note_on_c, 12, 67, 0
13, 1500, Note_on_c, 12, 61, 84
13, 1541, Note_on_c, 12, 61, 0
13, 1560, Note_on_c, 12, 69, 84
13, 1920, Note_on_c, 12, 69, 0
13, 1920, Note_on_c, 12, 71, 84
13, 2280, Note_on_c, 12, 71, 0
13, 2280, Note_on_c, 12, 69, 84
13, 2640, Note_on_c, 12, 69, 0
13, 2640, Note_on_c, 12, 71, 84
13, 2681, Note_on_c, 12, 71, 0
13, 2700, Note_on_c, 12, 71, 84
13, 2741, Note_on_c, 12, 71, 0
13, 2760, Note_on_c, 12, 71, 84
13, 2801, Note_on_c, 12, 71, 0
13, 2820, Note_on_c, 12, 71, 84
13, 2850, Note_on_c, 12, 71, 0
13, 2850, Note_on_c, 12, 71, 84
13, 2880, Note_on_c, 12, 71, 0
13, 2880, Note_on_c, 12, 71, 84
13, 2921, Note_on_c, 12, 71, 0
13, 2940, Note_on_c, 12, 71, 84
13, 2981, Note_on_c, 12, 71, 0
13, 3000, Note_on_c, 12, 69, 84
13, 3041, Note_on_c, 12, 69, 0
13, 3060, Note_on_c, 12, 69, 84
13, 3101, Note_on_c, 12, 69, 0
13, 3420, Note_on_c, 12, 64, 84
13, 3461, Note_on_c, 12, 64, 0
13, 3480, Note_on_c, 12, 64, 84
13, 3521, Note_on_c, 12, 64, 0
13, 3540, Note_on_c, 12, 64, 84
13, 3570, Note_on_c, 12, 64, 0
13, 3570, Note_on_c, 12, 64, 84
13, 3600, Note_on_c, 12, 64, 0
13, 3600, Note_on_c, 12, 69, 84
13, 3641, Note_on_c, 12, 69, 0
13, 3660, Note_on_c, 12, 71, 84
13, 3690, Note_on_c, 12, 71, 0
13, 3690, Note_on_c, 12, 73, 84
13, 3720, Note_on_c, 12, 73, 0
13, 3720, Note_on_c, 12, 71, 84
13, 3761, Note_on_c, 12, 71, 0
13, 3780, Note_on_c, 12, 64, 84
13, 3821, Note_on_c, 12, 64, 0
13, 4140, Note_on_c, 12, 71, 84
13, 4181, Note_on_c, 12, 71, 0
13, 4200, Note_on_c, 12, 68, 84
13, 4241, Note_on_c, 12, 68, 0
13, 4260, Note_on_c, 12, 68, 84
13, 4290, Note_on_c, 12, 68, 0
13, 4290, Note_on_c, 12, 68, 84
13, 4320, Note_on_c, 12, 68, 0
13, 4320, Note_on_c, 12, 68, 84
13, 4361, Note_on_c, 12, 68, 0
13, 4380, Note_on_c, 12, 69, 84
13, 4410, Note_on_c, 12, 69, 0
13, 4410, Note_on_c, 12, 71, 84
13, 4440, Note_on_c, 12, 71, 0
13, 4440, Note_on_c, 12, 69, 84
13, 5880, Note_on_c, 12, 69, 0
13, 5880, Note_on_c, 12, 68, 60
13, 5921, Note_on_c, 12, 68, 0
13, 6660, Note_on_c, 12, 57, 73
13, 6701, Note_on_c, 12, 57, 0
13, 6720, Note_on_c, 12, 57, 74
13, 6750, Note_on_c, 12, 57, 0
13, 6750, Note_on_c, 12, 59, 75
13, 6780, Note_on_c, 12, 59, 0
13, 6780, Note_on_c, 12, 61, 75
13, 6900, Note_on_c, 12, 61, 0
13, 6900, Note_on_c, 12, 59, 77
13, 6930, Note_on_c, 12, 59, 0
13, 6930, Note_on_c, 12, 57, 78
13, 6960, Note_on_c, 12, 57, 0
13, 6960, Note_on_c, 12, 64, 78
13, 7001, Note_on_c, 12, 64, 0
13, 7020, Note_on_c, 12, 67, 79
13, 7050, Note_on_c, 12, 67, 0
13, 7050, Note_on_c, 12, 66, 80
13, 7080, Note_on_c, 12, 66, 0
13, 7080, Note_on_c, 12, 64, 80
13, 7320, Note_on_c, 12, 64, 0
13, 7320, Note_on_c, 12, 62, 70
13, 7361, Note_on_c, 12, 62, 0
13, 7380, Note_on_c, 12, 66, 71
13, 7421, Note_on_c, 12, 66, 0
13, 7440, Note_on_c, 12, 62, 72
13, 7470, Note_on_c, 12, 62, 0
13, 7470, Note_on_c, 12, 64, 72
13, 7500, Note_on_c, 12, 64, 0
13, 7500, Note_on_c, 12, 66, 73
13, 7541, Note_on_c, 12, 66, 0
13, 7560, Note_on_c, 12, 64, 73
13, 7601, Note_on_c, 12, 64, 0
13, 7620, Note_on_c, 12, 62, 74
13, 7721, Note_on_c, 12, 62, 0
13, 7740, Note_on_c, 12, 59, 76
13, 7781, Note_on_c, 12, 59, 0
13, 7800, Note_on_c, 12, 64, 77
13, 7830, Note_on_c, 12, 64, 0
13, 7830, Note_on_c, 12, 66, 77
13, 7860, Note_on_c, 12, 66, 0
13, 7860, Note_on_c, 12, 68, 78
13, 7901, Note_on_c, 12, 68, 0
13, 7920, Note_on_c, 12, 66, 78
13, 7961, Note_on_c, 12, 66, 0
13, 7980, Note_on_c, 12, 64, 79
13, 8081, Note_on_c, 12, 64, 0
13, 8100, Note_on_c, 12, 61, 81
13, 8141, Note_on_c, 12, 61, 0
13, 8160, Note_on_c, 12, 66, 82
13, 8190, Note_on_c, 12, 66, 0
13, 8190, Note_on_c, 12, 68, 82
13, 8220, Note_on_c, 12, 68, 0
13, 8220, Note_on_c, 12, 69, 83
13, 8261, Note_on_c, 12, 69, 0
13, 8280, Note_on_c, 12, 68, 83
13, 8321, Note_on_c, 12, 68, 0
13, 8340, Note_on_c, 12, 66, 84
13, 8441, Note_on_c, 12, 66, 0
13, 8460, Note_on_c, 12, 64, 86
13, 8490, Note_on_c, 12, 64, 0
13, 8490, Note_on_c, 12, 66, 86
13, 8520, Note_on_c, 12, 66, 0
13, 8520, Note_on_c, 12, 68, 87
13, 8550, Note_on_c, 12, 68, 0
13, 8550, Note_on_c, 12, 69, 87
13, 8580, Note_on_c, 12, 69, 0
13, 8580, Note_on_c, 12, 71, 88
13, 8621, Note_on_c, 12, 71, 0
13, 8640, Note_on_c, 12, 69, 88
13, 8681, Note_on_c, 12, 69, 0
13, 8700, Note_on_c, 12, 64, 89
13, 8741, Note_on_c, 12, 64, 0
13, 8760, Note_on_c, 12, 64, 84
13, 9240, Note_on_c, 12, 64, 0
13, 9240, Note_on_c, 12, 64, 84
13, 9281, Note_on_c, 12, 64, 0
13, 9300, Note_on_c, 12, 64, 84
13, 9341, Note_on_c, 12, 64, 0
13, 9360, Note_on_c, 12, 64, 84
13, 9401, Note_on_c, 12, 64, 0
13, 9420, Note_on_c, 12, 64, 84
13, 9461, Note_on_c, 12, 64, 0
13, 9480, Note_on_c, 12, 63, 84
13, 9840, Note_on_c, 12, 63, 0
13, 9840, Note_on_c, 12, 64, 84
13, 10200, Note_on_c, 12, 64, 0
13, 10200, Note_on_c, 12, 66, 84
13, 10560, Note_on_c, 12, 66, 0
13, 10560, Note_on_c, 12, 64, 84
13, 10800, Note_on_c, 12, 64, 0
13, 10860, Note_on_c, 12, 64, 84
13, 10901, Note_on_c, 12, 64, 0
13, 10920, Note_on_c, 12, 64, 84
13, 10961, Note_on_c, 12, 64, 0
13, 10980, Note_on_c, 12, 61, 84
13, 11021, Note_on_c, 12, 61, 0
13, 11040, Note_on_c, 12, 64, 84
13, 11081, Note_on_c, 12, 64, 0
13, 11100, Note_on_c, 12, 69, 84
13, 11130, Note_on_c, 12, 69, 0
13, 11130, Note_on_c, 12, 68, 84
13, 11160, Note_on_c, 12, 68, 0
13, 11160, Note_on_c, 12, 69, 84
13, 11201, Note_on_c, 12, 69, 0
13, 11220, Note_on_c, 12, 61, 84
13, 11261, Note_on_c, 12, 61, 0
13, 11280, Note_on_c, 12, 62, 84
13, 11321, Note_on_c, 12, 62, 0
13, 11340, Note_on_c, 12, 59, 84
13, 11381, Note_on_c, 12, 59, 0
13, 11400, Note_on_c, 12, 62, 84
13, 11441, Note_on_c, 12, 62, 0
13, 11460, Note_on_c, 12, 68, 84
13, 11490, Note_on_c, 12, 68, 0
13, 11490, Note_on_c, 12, 66, 84
13, 11520, Note_on_c, 12, 66, 0
13, 11520, Note_on_c, 12, 68, 84
13, 11561, Note_on_c, 12, 68, 0
13, 11580, Note_on_c, 12, 59, 84
13, 11621, Note_on_c, 12, 59, 0
13, 11640, Note_on_c, 12, 61, 84
13, 11681, Note_on_c, 12, 61, 0
13, 11700, Note_on_c, 12, 57, 84
13, 11741, Note_on_c, 12, 57, 0
13, 11760, Note_on_c, 12, 61, 84
13, 11801, Note_on_c, 12, 61, 0
13, 11820, Note_on_c, 12, 66, 84
13, 11850, Note_on_c, 12, 66, 0
13, 11850, Note_on_c, 12, 64, 84
13, 11880, Note_on_c, 12, 64, 0
13, 11880, Note_on_c, 12, 66, 84
13, 11921, Note_on_c, 12, 66, 0
13, 11940, Note_on_c, 12, 57, 84
13, 11981, Note_on_c, 12, 57, 0
13, 12000, Note_on_c, 12, 59, 84
13, 12041, Note_on_c, 12, 59, 0
13, 12060, Note_on_c, 12, 66, 84
13, 12180, Note_on_c, 12, 66, 0
13, 12180, Note_on_c, 12, 66, 84
13, 12210, Note_on_c, 12, 66, 0
13, 12210, Note_on_c, 12, 66, 84
13, 12240, Note_on_c, 12, 66, 0
13, 12240, Note_on_c, 12, 66, 84
13, 12281, Note_on_c, 12, 66, 0
13, 12300, Note_on_c, 12, 66, 84
13, 12341, Note_on_c, 12, 66, 0
13, 12360, Note_on_c, 12, 68, 84
13, 12401, Note_on_c, 12, 68, 0
13, 12420, Note_on_c, 12, 59, 85
13, 12461, Note_on_c, 12, 59, 0
13, 12540, Note_on_c, 12, 68, 88
13, 12581, Note_on_c, 12, 68, 0
13, 12600, Note_on_c, 12, 69, 89
13, 12641, Note_on_c, 12, 69, 0
13, 12660, Note_on_c, 12, 71, 91
13, 12701, Note_on_c, 12, 71, 0
13, 12720, Note_on_c, 12, 66, 92
13, 12840, Note_on_c, 12, 66, 0
13, 12840, Note_on_c, 12, 64, 95
13, 12881, Note_on_c, 12, 64, 0
13, 12900, Note_on_c, 12, 69, 96
13, 13020, Note_on_c, 12, 69, 0
13, 13020, Note_on_c, 12, 64, 99
13, 13061, Note_on_c, 12, 64, 0
13, 13080, Note_on_c, 12, 64, 100
13, 13200, Note_on_c, 12, 64, 0
13, 15060, Note_on_c, 12, 69, 60
13, 15101, Note_on_c, 12, 69, 0
13, 15120, Note_on_c, 12, 74, 60
13, 15161, Note_on_c, 12, 74, 0
13, 15180, Note_on_c, 12, 69, 60
13, 15221, Note_on_c, 12, 69, 0
13, 15240, Note_on_c, 12, 66, 60
13, 15270, Note_on_c, 12, 66, 0
13, 15270, Note_on_c, 12, 64, 60
13, 15300, Note_on_c, 12, 64, 0
13, 15300, Note_on_c, 12, 66, 60
13, 15330, Note_on_c, 12, 66, 0
13, 15330, Note_on_c, 12, 67, 60
13, 15360, Note_on_c, 12, 67, 0
13, 15360, Note_on_c, 12, 69, 60
13, 15401, Note_on_c, 12, 69, 0
13, 15420, Note_on_c, 12, 66, 60
13, 15461, Note_on_c, 12, 66, 0
13, 15480, Note_on_c, 12, 69, 60
13, 15521, Note_on_c, 12, 69, 0
13, 15540, Note_on_c, 12, 66, 60
13, 15581, Note_on_c, 12, 66, 0
13, 15600, Note_on_c, 12, 62, 60
13, 15641, Note_on_c, 12, 62, 0
13, 15660, Note_on_c, 12, 67, 60
13, 15690, Note_on_c, 12, 67, 0
13, 15690, Note_on_c, 12, 66, 60
13, 15720, Note_on_c, 12, 66, 0
13, 15720, Note_on_c, 12, 64, 60
13, 15761, Note_on_c, 12, 64, 0
13, 15780, Note_on_c, 12, 67, 60
13, 15821, Note_on_c, 12, 67, 0
13, 15840, Note_on_c, 12, 69, 60
13, 15881, Note_on_c, 12, 69, 0
13, 15900, Note_on_c, 12, 73, 60
13, 15941, Note_on_c, 12, 73, 0
13, 15960, Note_on_c, 12, 66, 60
13, 16001, Note_on_c, 12, 66, 0
13, 16020, Note_on_c, 12, 69, 60
13, 16050, Note_on_c, 12, 69, 0
13, 16050, Note_on_c, 12, 67, 61
13, 16080, Note_on_c, 12, 67, 0
13, 16080, Note_on_c, 12, 66, 61
13, 16121, Note_on_c, 12, 66, 0
13, 16140, Note_on_c, 12, 69, 61
13, 16181, Note_on_c, 12, 69, 0
13, 16200, Note_on_c, 12, 71, 61
13, 16241, Note_on_c, 12, 71, 0
13, 16260, Note_on_c, 12, 74, 62
13, 16301, Note_on_c, 12, 74, 0
13, 16320, Note_on_c, 12, 68, 62
13, 16361, Note_on_c, 12, 68, 0
13, 16380, Note_on_c, 12, 71, 62
13, 16410, Note_on_c, 12, 71, 0
13, 16410, Note_on_c, 12, 69, 63
13, 16440, Note_on_c, 12, 69, 0
13, 16440, Note_on_c, 12, 68, 63
13, 16481, Note_on_c, 12, 68, 0
13, 16500, Note_on_c, 12, 71, 63
13, 16541, Note_on_c, 12, 71, 0
13, 16560, Note_on_c, 12, 64, 63
13, 16601, Note_on_c, 12, 64, 0
13, 16620, Note_on_c, 12, 74, 64
13, 16661, Note_on_c, 12, 74, 0
13, 16680, Note_on_c, 12, 73, 64
13, 16721, Note_on_c, 12, 73, 0
13, 16740, Note_on_c, 12, 71, 64
13, 16770, Note_on_c, 12, 71, 0
13, 16770, Note_on_c, 12, 73, 65
13, 16800, Note_on_c, 12, 73, 0
13, 16800, Note_on_c, 12, 69, 65
13, 16830, Note_on_c, 12, 69, 0
13, 16830, Note_on_c, 12, 69, 65
13, 16860, Note_on_c, 12, 69, 0
13, 16860, Note_on_c, 12, 71, 65
13, 16890, Note_on_c, 12, 71, 0
13, 16890, Note_on_c, 12, 73, 65
13, 16920, Note_on_c, 12, 73, 0
13, 16920, Note_on_c, 12, 74, 65
13, 16950, Note_on_c, 12, 74, 0
13, 16950, Note_on_c, 12, 73, 66
13, 16980, Note_on_c, 12, 73, 0
13, 16980, Note_on_c, 12, 71, 66
13, 17010, Note_on_c, 12, 71, 0
13, 17010, Note_on_c, 12, 69, 66
13, 17040, Note_on_c, 12, 69, 0
13, 17040, Note_on_c, 12, 67, 66
13, 17190, Note_on_c, 12, 67, 0
13, 17190, Note_on_c, 12, 64, 67
13, 17220, Note_on_c, 12, 64, 0
13, 17220, Note_on_c, 12, 66, 67
13, 17250, Note_on_c, 12, 66, 0
13, 17250, Note_on_c, 12, 67, 67
13, 17280, Note_on_c, 12, 67, 0
13, 17280, Note_on_c, 12, 69, 67
13, 17310, Note_on_c, 12, 69, 0
13, 17310, Note_on_c, 12, 71, 68
13, 17340, Note_on_c, 12, 71, 0
13, 17340, Note_on_c, 12, 69, 68
13, 17370, Note_on_c, 12, 69, 0
13, 17370, Note_on_c, 12, 67, 68
13, 17400, Note_on_c, 12, 67, 0
13, 17400, Note_on_c, 12, 66, 68
13, 17430, Note_on_c, 12, 66, 0
13, 17430, Note_on_c, 12, 64, 68
13, 17460, Note_on_c, 12, 64, 0
13, 17460, Note_on_c, 12, 62, 68
13, 17490, Note_on_c, 12, 62, 0
13, 17490, Note_on_c, 12, 64, 69
13, 17520, Note_on_c, 12, 64, 0
13, 17520, Note_on_c, 12, 66, 69
13, 17561, Note_on_c, 12, 66, 0
13, 17580, Note_on_c, 12, 57, 69
13, 17621, Note_on_c, 12, 57, 0
13, 17670, Note_on_c, 12, 62, 70
13, 17700, Note_on_c, 12, 62, 0
13, 17700, Note_on_c, 12, 61, 70
13, 17730, Note_on_c, 12, 61, 0
13, 17730, Note_on_c, 12, 59, 70
13, 17760, Note_on_c, 12, 59, 0
13, 17760, Note_on_c, 12, 57, 70
13, 17790, Note_on_c, 12, 57, 0
13, 17790, Note_on_c, 12, 56, 70
13, 17820, Note_on_c, 12, 56, 0
13, 17820, Note_on_c, 12, 57, 70
13, 17850, Note_on_c, 12, 57, 0
13, 17850, Note_on_c, 12, 59, 70
13, 17880, Note_on_c, 12, 59, 0
13, 17880, Note_on_c, 12, 61, 70
13, 17910, Note_on_c, 12, 61, 0
13, 17910, Note_on_c, 12, 59, 70
13, 17940, Note_on_c, 12, 59, 0
13, 17940, Note_on_c, 12, 57, 70
13, 17970, Note_on_c, 12, 57, 0
13, 17970, Note_on_c, 12, 59, 70
13, 18000, Note_on_c, 12, 59, 0
13, 18000, Note_on_c, 12, 61, 70
13, 18030, Note_on_c, 12, 61, 0
13, 18030, Note_on_c, 12, 59, 70
13, 18060, Note_on_c, 12, 59, 0
13, 18060, Note_on_c, 12, 57, 70
13, 18090, Note_on_c, 12, 57, 0
13, 18090, Note_on_c, 12, 59, 70
13, 18120, Note_on_c, 12, 59, 0
13, 18120, Note_on_c, 12, 61, 70
13, 18150, Note_on_c, 12, 61, 0
13, 18150, Note_on_c, 12, 59, 70
13, 18180, Note_on_c, 12, 59, 0
13, 18180, Note_on_c, 12, 57, 70
13, 18210, Note_on_c, 12, 57, 0
13, 18210, Note_on_c, 12, 59, 70
13, 18240, Note_on_c, 12, 59, 0
13, 18240, Note_on_c, 12, 61, 70
13, 18270, Note_on_c, 12, 61, 0
13, 18270, Note_on_c, 12, 62, 70
13, 18300, Note_on_c, 12, 62, 0
13, 18300, Note_on_c, 12, 64, 70
13, 18330, Note_on_c, 12, 64, 0
13, 18330, Note_on_c, 12, 62, 70
13, 18360, Note_on_c, 12, 62, 0
13, 18360, Note_on_c, 12, 66, 70
13, 18390, Note_on_c, 12, 66, 0
13, 18390, Note_on_c, 12, 64, 70
13, 18420, Note_on_c, 12, 64, 0
13, 18420, Note_on_c, 12, 62, 70
13, 18450, Note_on_c, 12, 62, 0
13, 18450, Note_on_c, 12, 61, 70
13, 18480, Note_on_c, 12, 61, 0
13, 18480, Note_on_c, 12, 62, 70
13, 18510, Note_on_c, 12, 62, 0
13, 18510, Note_on_c, 12, 61, 70
13, 18540, Note_on_c, 12, 61, 0
13, 18540, Note_on_c, 12, 59, 71
13, 18570, Note_on_c, 12, 59, 0
13, 18570, Note_on_c, 12, 61, 71
13, 18600, Note_on_c, 12, 61, 0
13, 18600, Note_on_c, 12, 62, 71
13, 18630, Note_on_c, 12, 62, 0
13, 18630, Note_on_c, 12, 64, 71
13, 18660, Note_on_c, 12, 64, 0
13, 18660, Note_on_c, 12, 66, 72
13, 18690, Note_on_c, 12, 66, 0
13, 18690, Note_on_c, 12, 64, 72
13, 18720, Note_on_c, 12, 64, 0
13, 18720, Note_on_c, 12, 67, 72
13, 18750, Note_on_c, 12, 67, 0
13, 18750, Note_on_c, 12, 66, 73
13, 18780, Note_on_c, 12, 66, 0
13, 18780, Note_on_c, 12, 64, 73
13, 18810, Note_on_c, 12, 64, 0
13, 18810, Note_on_c, 12, 62, 73
13, 18840, Note_on_c, 12, 62, 0
13, 18840, Note_on_c, 12, 64, 73
13, 18870, Note_on_c, 12, 64, 0
13, 18870, Note_on_c, 12, 62, 74
13, 18900, Note_on_c, 12, 62, 0
13, 18900, Note_on_c, 12, 61, 74
13, 18930, Note_on_c, 12, 61, 0
13, 18930, Note_on_c, 12, 62, 74
13, 18960, Note_on_c, 12, 62, 0
13, 18960, Note_on_c, 12, 64, 75
13, 18990, Note_on_c, 12, 64, 0
13, 18990, Note_on_c, 12, 66, 75
13, 19020, Note_on_c, 12, 66, 0
13, 19020, Note_on_c, 12, 67, 75
13, 19050, Note_on_c, 12, 67, 0
13, 19050, Note_on_c, 12, 66, 75
13, 19080, Note_on_c, 12, 66, 0
13, 19080, Note_on_c, 12, 69, 76
13, 19110, Note_on_c, 12, 69, 0
13, 19110, Note_on_c, 12, 67, 76
13, 19140, Note_on_c, 12, 67, 0
13, 19140, Note_on_c, 12, 66, 76
13, 19170, Note_on_c, 12, 66, 0
13, 19170, Note_on_c, 12, 64, 77
13, 19200, Note_on_c, 12, 64, 0
13, 19200, Note_on_c, 12, 62, 77
13, 19230, Note_on_c, 12, 62, 0
13, 19230, Note_on_c, 12, 69, 77
13, 19260, Note_on_c, 12, 69, 0
13, 19260, Note_on_c, 12, 67, 77
13, 19290, Note_on_c, 12, 67, 0
13, 19290, Note_on_c, 12, 69, 78
13, 19320, Note_on_c, 12, 69, 0
13, 19320, Note_on_c, 12, 66, 78
13, 19350, Note_on_c, 12, 66, 0
13, 19350, Note_on_c, 12, 67, 78
13, 19380, Note_on_c, 12, 67, 0
13, 19380, Note_on_c, 12, 64, 79
13, 19410, Note_on_c, 12, 64, 0
13, 19410, Note_on_c, 12, 66, 79
13, 19440, Note_on_c, 12, 66, 0
13, 19440, Note_on_c, 12, 62, 79
13, 19481, Note_on_c, 12, 62, 0
13, 19500, Note_on_c, 12, 61, 80
13, 19541, Note_on_c, 12, 61, 0
13, 19620, Note_on_c, 12, 69, 81
13, 19661, Note_on_c, 12, 69, 0
13, 19680, Note_on_c, 12, 74, 81
13, 19721, Note_on_c, 12, 74, 0
13, 19740, Note_on_c, 12, 69, 82
13, 19781, Note_on_c, 12, 69, 0
13, 19800, Note_on_c, 12, 66, 83
13, 19830, Note_on_c, 12, 66, 0
13, 19830, Note_on_c, 12, 67, 83
13, 19860, Note_on_c, 12, 67, 0
13, 19860, Note_on_c, 12, 69, 83
13, 19950, Note_on_c, 12, 69, 0
13, 19950, Note_on_c, 12, 67, 84
13, 19980, Note_on_c, 12, 67, 0
13, 19980, Note_on_c, 12, 66, 84
13, 20010, Note_on_c, 12, 66, 0
13, 20010, Note_on_c, 12, 67, 85
13, 20040, Note_on_c, 12, 67, 0
13, 20040, Note_on_c, 12, 69, 85
13, 20081, Note_on_c, 12, 69, 0
13, 20100, Note_on_c, 12, 62, 85
13, 20141, Note_on_c, 12, 62, 0
13, 20160, Note_on_c, 12, 62, 86
13, 20321, Note_on_c, 12, 62, 0
13, 20340, Note_on_c, 12, 71, 88
13, 20370, Note_on_c, 12, 71, 0
13, 20370, Note_on_c, 12, 69, 88
13, 20400, Note_on_c, 12, 69, 0
13, 20400, Note_on_c, 12, 71, 88
13, 20441, Note_on_c, 12, 71, 0
13, 20460, Note_on_c, 12, 64, 89
13, 20501, Note_on_c, 12, 64, 0
13, 20520, Note_on_c, 12, 69, 89
13, 20550, Note_on_c, 12, 69, 0
13, 20550, Note_on_c, 12, 67, 90
13, 20580, Note_on_c, 12, 67, 0
13, 20580, Note_on_c, 12, 66, 90
13, 20610, Note_on_c, 12, 66, 0
13, 20610, Note_on_c, 12, 64, 90
13, 20640, Note_on_c, 12, 64, 0
13, 20640, Note_on_c, 12, 62, 91
13, 21000, Note_on_c, 12, 62, 0
13, 21000, Note_on_c, 12, 62, 94
13, 21120, Note_on_c, 12, 62, 0
13, 21150, Note_on_c, 12, 62, 95
13, 21180, Note_on_c, 12, 62, 0
13, 21180, Note_on_c, 12, 64, 95
13, 21210, Note_on_c, 12, 64, 0
13, 21210, Note_on_c, 12, 66, 95
13, 21240, Note_on_c, 12, 66, 0
13, 21240, Note_on_c, 12, 67, 95
13, 21281, Note_on_c, 12, 67, 0
13, 21300, Note_on_c, 12, 64, 95
13, 21341, Note_on_c, 12, 64, 0
13, 21360, Note_on_c, 12, 61, 95
13, 21401, Note_on_c, 12, 61, 0
13, 21420, Note_on_c, 12, 59, 95
13, 21461, Note_on_c, 12, 59, 0
13, 21480, Note_on_c, 12, 58, 96
13, 21521, Note_on_c, 12, 58, 0
13, 21660, Note_on_c, 12, 58, 96
13, 21701, Note_on_c, 12, 58, 0
13, 21720, Note_on_c, 12, 59, 96
13, 21761, Note_on_c, 12, 59, 0
13, 21780, Note_on_c, 12, 64, 97
13, 21900, Note_on_c, 12, 64, 0
13, 21900, Note_on_c, 12, 62, 97
13, 21930, Note_on_c, 12, 62, 0
13, 21930, Note_on_c, 12, 64, 97
13, 21960, Note_on_c, 12, 64, 0
13, 21960, Note_on_c, 12, 61, 97
13, 22001, Note_on_c, 12, 61, 0
13, 22020, Note_on_c, 12, 61, 97
13, 22061, Note_on_c, 12, 61, 0
13, 22080, Note_on_c, 12, 66, 98
13, 22470, Note_on_c, 12, 66, 0
13, 22470, Note_on_c, 12, 64, 99
13, 22500, Note_on_c, 12, 64, 0
13, 22500, Note_on_c, 12, 62, 99
13, 22530, Note_on_c, 12, 62, 0
13, 22530, Note_on_c, 12, 61, 99
13, 22560, Note_on_c, 12, 61, 0
13, 22560, Note_on_c, 12, 59, 99
13, 22601, Note_on_c, 12, 59, 0
13, 22620, Note_on_c, 12, 67, 99
13, 22661, Note_on_c, 12, 67, 0
13, 22680, Note_on_c, 12, 66, 100
13, 22800, Note_on_c, 12, 66, 0
13, 22800, Note_on_c, 12, 66, 100
13, 22920, Note_on_c, 12, 66, 0
13, 24240, Note_on_c, 12, 66, 90
13, 24480, Note_on_c, 12, 66, 0
13, 24480, Note_on_c, 12, 66, 90
13, 24600, Note_on_c, 12, 66, 0
13, 24660, Note_on_c, 12, 64, 90
13, 24701, Note_on_c, 12, 64, 0
13, 24720, Note_on_c, 12, 68, 90
13, 24761, Note_on_c, 12, 68, 0
13, 24780, Note_on_c, 12, 71, 90
13, 24821, Note_on_c, 12, 71, 0
13, 24840, Note_on_c, 12, 68, 90
13, 24881, Note_on_c, 12, 68, 0
13, 24900, Note_on_c, 12, 64, 90
13, 24941, Note_on_c, 12, 64, 0
13, 24960, Note_on_c, 12, 64, 90
13, 25080, Note_on_c, 12, 64, 0
13, 25680, Note_on_c, 12, 66, 90
13, 25920, Note_on_c, 12, 66, 0
13, 25920, Note_on_c, 12, 66, 90
13, 26040, Note_on_c, 12, 66, 0
13, 26100, Note_on_c, 12, 71, 90
13, 26141, Note_on_c, 12, 71, 0
13, 26160, Note_on_c, 12, 71, 90
13, 26201, Note_on_c, 12, 71, 0
13, 26220, Note_on_c, 12, 71, 90
13, 26250, Note_on_c, 12, 71, 0
13, 26250, Note_on_c, 12, 71, 90
13, 26280, Note_on_c, 12, 71, 0
13, 26280, Note_on_c, 12, 71, 90
13, 26321, Note_on_c, 12, 71, 0
13, 26340, Note_on_c, 12, 71, 90
13, 26381, Note_on_c, 12, 71, 0
13, 26400, Note_on_c, 12, 69, 90
13, 26441, Note_on_c, 12, 69, 0
13, 26460, Note_on_c, 12, 61, 90
13, 26501, Note_on_c, 12, 61, 0
13, 26580, Note_on_c, 12, 66, 90
13, 26621, Note_on_c, 12, 66, 0
13, 26640, Note_on_c, 12, 69, 90
13, 26880, Note_on_c, 12, 69, 0
13, 26880, Note_on_c, 12, 69, 90
13, 26921, Note_on_c, 12, 69, 0
13, 26940, Note_on_c, 12, 69, 90
13, 26981, Note_on_c, 12, 69, 0
13, 27000, Note_on_c, 12, 69, 90
13, 27041, Note_on_c, 12, 69, 0
13, 27060, Note_on_c, 12, 69, 90
13, 27101, Note_on_c, 12, 69, 0
13, 27120, Note_on_c, 12, 69, 90
13, 28121, Note_on_c, 12, 69, 0
13, 28140, Note_on_c, 12, 68, 97
13, 28181, Note_on_c, 12, 68, 0
13, 28200, Note_on_c, 12, 68, 98
13, 28440, Note_on_c, 12, 68, 0
13, 28500, Note_on_c, 12, 68, 100
13, 28541, Note_on_c, 12, 68, 0
13, 28560, Note_on_c, 12, 66, 95
13, 28601, Note_on_c, 12, 66, 0
13, 28620, Note_on_c, 12, 68, 96
13, 28650, Note_on_c, 12, 68, 0
13, 28650, Note_on_c, 12, 68, 96
13, 28680, Note_on_c, 12, 68, 0
13, 28680, Note_on_c, 12, 69, 97
13, 28721, Note_on_c, 12, 69, 0
13, 28740, Note_on_c, 12, 69, 98
13, 28781, Note_on_c, 12, 69, 0
13, 28800, Note_on_c, 12, 68, 98
13, 28920, Note_on_c, 12, 68, 0
13, 28920, Note_on_c, 12, 66, 100
13, 29040, Note_on_c, 12, 66, 0
13, 30540, Note_on_c, 12, 66, 70
13, 30581, Note_on_c, 12, 66, 0
13, 30600, Note_on_c, 12, 71, 70
13, 30641, Note_on_c, 12, 71, 0
13, 30660, Note_on_c, 12, 66, 70
13, 30701, Note_on_c, 12, 66, 0
13, 30720, Note_on_c, 12, 62, 70
13, 30750, Note_on_c, 12, 62, 0
13, 30750, Note_on_c, 12, 61, 70
13, 30780, Note_on_c, 12, 61, 0
13, 30780, Note_on_c, 12, 62, 70
13, 30810, Note_on_c, 12, 62, 0
13, 30810, Note_on_c, 12, 64, 70
13, 30840, Note_on_c, 12, 64, 0
13, 30840, Note_on_c, 12, 66, 70
13, 30881, Note_on_c, 12, 66, 0
13, 30900, Note_on_c, 12, 62, 70
13, 30941, Note_on_c, 12, 62, 0
13, 30960, Note_on_c, 12, 66, 70
13, 31001, Note_on_c, 12, 66, 0
13, 31020, Note_on_c, 12, 62, 70
13, 31061, Note_on_c, 12, 62, 0
13, 31080, Note_on_c, 12, 59, 70
13, 31121, Note_on_c, 12, 59, 0
13, 31140, Note_on_c, 12, 62, 71
13, 31170, Note_on_c, 12, 62, 0
13, 31170, Note_on_c, 12, 61, 71
13, 31200, Note_on_c, 12, 61, 0
13, 31200, Note_on_c, 12, 59, 71
13, 31241, Note_on_c, 12, 59, 0
13, 31260, Note_on_c, 12, 62, 72
13, 31301, Note_on_c, 12, 62, 0
13, 31320, Note_on_c, 12, 64, 72
13, 31361, Note_on_c, 12, 64, 0
13, 31380, Note_on_c, 12, 67, 73
13, 31421, Note_on_c, 12, 67, 0
13, 31440, Note_on_c, 12, 61, 74
13, 31481, Note_on_c, 12, 61, 0
13, 31500, Note_on_c, 12, 64, 74
13, 31530, Note_on_c, 12, 64, 0
13, 31530, Note_on_c, 12, 62, 74
13, 31560, Note_on_c, 12, 62, 0
13, 31560, Note_on_c, 12, 61, 75
13, 31601, Note_on_c, 12, 61, 0
13, 31620, Note_on_c, 12, 64, 75
13, 31661, Note_on_c, 12, 64, 0
13, 31680, Note_on_c, 12, 66, 76
13, 31721, Note_on_c, 12, 66, 0
13, 31740, Note_on_c, 12, 69, 76
13, 31781, Note_on_c, 12, 69, 0
13, 31800, Note_on_c, 12, 63, 77
13, 31841, Note_on_c, 12, 63, 0
13, 31860, Note_on_c, 12, 66, 78
13, 31890, Note_on_c, 12, 66, 0
13, 31890, Note_on_c, 12, 64, 78
13, 31920, Note_on_c, 12, 64, 0
13, 31920, Note_on_c, 12, 63, 78
13, 31961, Note_on_c, 12, 63, 0
13, 31980, Note_on_c, 12, 66, 79
13, 32021, Note_on_c, 12, 66, 0
13, 32040, Note_on_c, 12, 59, 79
13, 32081, Note_on_c, 12, 59, 0
13, 32100, Note_on_c, 12, 71, 80
13, 32141, Note_on_c, 12, 71, 0
13, 32160, Note_on_c, 12, 68, 81
13, 32201, Note_on_c, 12, 68, 0
13, 32220, Note_on_c, 12, 66, 81
13, 32250, Note_on_c, 12, 66, 0
13, 32250, Note_on_c, 12, 68, 81
13, 32280, Note_on_c, 12, 68, 0
13, 32280, Note_on_c, 12, 64, 82
13, 32321, Note_on_c, 12, 64, 0
13, 32430, Note_on_c, 12, 69, 83
13, 32460, Note_on_c, 12, 69, 0
13, 32460, Note_on_c, 12, 68, 83
13, 32490, Note_on_c, 12, 68, 0
13, 32490, Note_on_c, 12, 66, 84
13, 32520, Note_on_c, 12, 66, 0
13, 32520, Note_on_c, 12, 64, 84
13, 32550, Note_on_c, 12, 64, 0
13, 32550, Note_on_c, 12, 62, 84
13, 32580, Note_on_c, 12, 62, 0
13, 32580, Note_on_c, 12, 64, 84
13, 32610, Note_on_c, 12, 64, 0
13, 32610, Note_on_c, 12, 66, 84
13, 32640, Note_on_c, 12, 66, 0
13, 32640, Note_on_c, 12, 68, 84
13, 32670, Note_on_c, 12, 68, 0
13, 32670, Note_on_c, 12, 66, 84
13, 32700, Note_on_c, 12, 66, 0
13, 32700, Note_on_c, 12, 64, 84
13, 32730, Note_on_c, 12, 64, 0
13, 32730, Note_on_c, 12, 66, 84
13, 32760, Note_on_c, 12, 66, 0
13, 32760, Note_on_c, 12, 68, 84
13, 32790, Note_on_c, 12, 68, 0
13, 32790, Note_on_c, 12, 66, 84
13, 32820, Note_on_c, 12, 66, 0
13, 32820, Note_on_c, 12, 64, 84
13, 32850, Note_on_c, 12, 64, 0
13, 32850, Note_on_c, 12, 66, 84
13, 32880, Note_on_c, 12, 66, 0
13, 32880, Note_on_c, 12, 68, 84
13, 32910, Note_on_c, 12, 68, 0
13, 32910, Note_on_c, 12, 66, 84
13, 32940, Note_on_c, 12, 66, 0
13, 32940, Note_on_c, 12, 64, 84
13, 32970, Note_on_c, 12, 64, 0
13, 32970, Note_on_c, 12, 66, 84
13, 33000, Note_on_c, 12, 66, 0
13, 33000, Note_on_c, 12, 68, 84
13, 33030, Note_on_c, 12, 68, 0
13, 33030, Note_on_c, 12, 69, 84
13, 33060, Note_on_c, 12, 69, 0
13, 33060, Note_on_c, 12, 71, 84
13, 33090, Note_on_c, 12, 71, 0
13, 33090, Note_on_c, 12, 69, 84
13, 33120, Note_on_c, 12, 69, 0
13, 33120, Note_on_c, 12, 73, 84
13, 33150, Note_on_c, 12, 73, 0
13, 33150, Note_on_c, 12, 71, 84
13, 33180, Note_on_c, 12, 71, 0
13, 33180, Note_on_c, 12, 69, 84
13, 33210, Note_on_c, 12, 69, 0
13, 33210, Note_on_c, 12, 68, 84
13, 33240, Note_on_c, 12, 68, 0
13, 33240, Note_on_c, 12, 69, 84
13, 33270, Note_on_c, 12, 69, 0
13, 33270, Note_on_c, 12, 68, 84
13, 33300, Note_on_c, 12, 68, 0
13, 33300, Note_on_c, 12, 66, 84
13, 33330, Note_on_c, 12, 66, 0
13, 33330, Note_on_c, 12, 68, 84
13, 33360, Note_on_c, 12, 68, 0
13, 33360, Note_on_c, 12, 69, 84
13, 33390, Note_on_c, 12, 69, 0
13, 33390, Note_on_c, 12, 71, 84
13, 33420, Note_on_c, 12, 71, 0
13, 33420, Note_on_c, 12, 73, 84
13, 33450, Note_on_c, 12, 73, 0
13, 33450, Note_on_c, 12, 71, 84
13, 33480, Note_on_c, 12, 71, 0
13, 33480, Note_on_c, 12, 74, 84
13, 33510, Note_on_c, 12, 74, 0
13, 33510, Note_on_c, 12, 73, 84
13, 33540, Note_on_c, 12, 73, 0
13, 33540, Note_on_c, 12, 71, 84
13, 33570, Note_on_c, 12, 71, 0
13, 33570, Note_on_c, 12, 69, 84
13, 33600, Note_on_c, 12, 69, 0
13, 33600, Note_on_c, 12, 71, 84
13, 33630, Note_on_c, 12, 71, 0
13, 33630, Note_on_c, 12, 69, 84
13, 33660, Note_on_c, 12, 69, 0
13, 33660, Note_on_c, 12, 68, 84
13, 33690, Note_on_c, 12, 68, 0
13, 33690, Note_on_c, 12, 69, 84
13, 33720, Note_on_c, 12, 69, 0
13, 33720, Note_on_c, 12, 71, 84
13, 33750, Note_on_c, 12, 71, 0
13, 33750, Note_on_c, 12, 73, 84
13, 33780, Note_on_c, 12, 73, 0
13, 33780, Note_on_c, 12, 74, 84
13, 33810, Note_on_c, 12, 74, 0
13, 33810, Note_on_c, 12, 73, 84
13, 33840, Note_on_c, 12, 73, 0
13, 33840, Note_on_c, 12, 76, 84
13, 33870, Note_on_c, 12, 76, 0
13, 33870, Note_on_c, 12, 74, 84
13, 33900, Note_on_c, 12, 74, 0
13, 33900, Note_on_c, 12, 73, 84
13, 33930, Note_on_c, 12, 73, 0
13, 33930, Note_on_c, 12, 71, 84
13, 33960, Note_on_c, 12, 71, 0
13, 33960, Note_on_c, 12, 69, 84
13, 34080, Note_on_c, 12, 69, 0
13, 34080, Note_on_c, 12, 69, 84
13, 34200, Note_on_c, 12, 69, 0
13, 34380, Note_on_c, 12, 64, 84
13, 34421, Note_on_c, 12, 64, 0
13, 34440, Note_on_c, 12, 69, 84
13, 34481, Note_on_c, 12, 69, 0
13, 34500, Note_on_c, 12, 64, 84
13, 34541, Note_on_c, 12, 64, 0
13, 34560, Note_on_c, 12, 61, 84
13, 34590, Note_on_c, 12, 61, 0
13, 34590, Note_on_c, 12, 62, 84
13, 34620, Note_on_c, 12, 62, 0
13, 34620, Note_on_c, 12, 64, 84
13, 34661, Note_on_c, 12, 64, 0
13, 34680, Note_on_c, 12, 64, 84
13, 34800, Note_on_c, 12, 64, 0
13, 34860, Note_on_c, 12, 57, 84
13, 34901, Note_on_c, 12, 57, 0
13, 34920, Note_on_c, 12, 69, 84
13, 35081, Note_on_c, 12, 69, 0
13, 35100, Note_on_c, 12, 62, 84
13, 35130, Note_on_c, 12, 62, 0
13, 35130, Note_on_c, 12, 62, 84
13, 35160, Note_on_c, 12, 62, 0
13, 35160, Note_on_c, 12, 67, 84
13, 35201, Note_on_c, 12, 67, 0
13, 35220, Note_on_c, 12, 62, 84
13, 35261, Note_on_c, 12, 62, 0
13, 35280, Note_on_c, 12, 61, 84
13, 35321, Note_on_c, 12, 61, 0
13, 35340, Note_on_c, 12, 59, 84
13, 35381, Note_on_c, 12, 59, 0
13, 35400, Note_on_c, 12, 57, 84
13, 35520, Note_on_c, 12, 57, 0
13, 35520, Note_on_c, 12, 57, 84
13, 35640, Note_on_c, 12, 57, 0
13, 35790, Note_on_c, 12, 69, 84
13, 35820, Note_on_c, 12, 69, 0
13, 35820, Note_on_c, 12, 67, 84
13, 35850, Note_on_c, 12, 67, 0
13, 35850, Note_on_c, 12, 69, 84
13, 35880, Note_on_c, 12, 69, 0
13, 35880, Note_on_c, 12, 66, 84
13, 35910, Note_on_c, 12, 66, 0
13, 35910, Note_on_c, 12, 67, 84
13, 35940, Note_on_c, 12, 67, 0
13, 35940, Note_on_c, 12, 64, 84
13, 35970, Note_on_c, 12, 64, 0
13, 35970, Note_on_c, 12, 66, 84
13, 36000, Note_on_c, 12, 66, 0
13, 36000, Note_on_c, 12, 62, 84
13, 36041, Note_on_c, 12, 62, 0
13, 36060, Note_on_c, 12, 61, 84
13, 36101, Note_on_c, 12, 61, 0
13, 36180, Note_on_c, 12, 69, 84
13, 36221, Note_on_c, 12, 69, 0
13, 36240, Note_on_c, 12, 74, 84
13, 36281, Note_on_c, 12, 74, 0
13, 36300, Note_on_c, 12, 69, 84
13, 36341, Note_on_c, 12, 69, 0
13, 36360, Note_on_c, 12, 66, 85
13, 36390, Note_on_c, 12, 66, 0
13, 36390, Note_on_c, 12, 67, 85
13, 36420, Note_on_c, 12, 67, 0
13, 36420, Note_on_c, 12, 69, 85
13, 36510, Note_on_c, 12, 69, 0
13, 36510, Note_on_c, 12, 67, 85
13, 36540, Note_on_c, 12, 67, 0
13, 36540, Note_on_c, 12, 66, 85
13, 36570, Note_on_c, 12, 66, 0
13, 36570, Note_on_c, 12, 67, 85
13, 36600, Note_on_c, 12, 67, 0
13, 36600, Note_on_c, 12, 69, 85
13, 36641, Note_on_c, 12, 69, 0
13, 36660, Note_on_c, 12, 66, 85
13, 36701, Note_on_c, 12, 66, 0
13, 36720, Note_on_c, 12, 62, 85
13, 36881, Note_on_c, 12, 62, 0
13, 36900, Note_on_c, 12, 71, 86
13, 36930, Note_on_c, 12, 71, 0
13, 36930, Note_on_c, 12, 69, 86
13, 36960, Note_on_c, 12, 69, 0
13, 36960, Note_on_c, 12, 71, 86
13, 37001, Note_on_c, 12, 71, 0
13, 37020, Note_on_c, 12, 64, 86
13, 37061, Note_on_c, 12, 64, 0
13, 37080, Note_on_c, 12, 69, 86
13, 37110, Note_on_c, 12, 69, 0
13, 37110, Note_on_c, 12, 67, 86
13, 37140, Note_on_c, 12, 67, 0
13, 37140, Note_on_c, 12, 66, 86
13, 37170, Note_on_c, 12, 66, 0
13, 37170, Note_on_c, 12, 64, 87
13, 37200, Note_on_c, 12, 64, 0
13, 37200, Note_on_c, 12, 62, 87
13, 37440, Note_on_c, 12, 62, 0
13, 37440, Note_on_c, 12, 62, 87
13, 37560, Note_on_c, 12, 62, 0
13, 37590, Note_on_c, 12, 66, 88
13, 37620, Note_on_c, 12, 66, 0
13, 37620, Note_on_c, 12, 67, 88
13, 37650, Note_on_c, 12, 67, 0
13, 37650, Note_on_c, 12, 69, 88
13, 37680, Note_on_c, 12, 69, 0
13, 37680, Note_on_c, 12, 71, 88
13, 37710, Note_on_c, 12, 71, 0
13, 37710, Note_on_c, 12, 69, 88
13, 37740, Note_on_c, 12, 69, 0
13, 37740, Note_on_c, 12, 67, 88
13, 37770, Note_on_c, 12, 67, 0
13, 37770, Note_on_c, 12, 69, 88
13, 37800, Note_on_c, 12, 69, 0
13, 37800, Note_on_c, 12, 71, 88
13, 37830, Note_on_c, 12, 71, 0
13, 37830, Note_on_c, 12, 69, 88
13, 37860, Note_on_c, 12, 69, 0
13, 37860, Note_on_c, 12, 67, 88
13, 37890, Note_on_c, 12, 67, 0
13, 37890, Note_on_c, 12, 66, 88
13, 37920, Note_on_c, 12, 66, 0
13, 37920, Note_on_c, 12, 67, 88
13, 37950, Note_on_c, 12, 67, 0
13, 37950, Note_on_c, 12, 66, 88
13, 37980, Note_on_c, 12, 66, 0
13, 37980, Note_on_c, 12, 64, 88
13, 38010, Note_on_c, 12, 64, 0
13, 38010, Note_on_c, 12, 66, 89
13, 38040, Note_on_c, 12, 66, 0
13, 38040, Note_on_c, 12, 67, 89
13, 38081, Note_on_c, 12, 67, 0
13, 38100, Note_on_c, 12, 67, 89
13, 38141, Note_on_c, 12, 67, 0
13, 38310, Note_on_c, 12, 67, 89
13, 38340, Note_on_c, 12, 67, 0
13, 38340, Note_on_c, 12, 69, 89
13, 38370, Note_on_c, 12, 69, 0
13, 38370, Note_on_c, 12, 71, 89
13, 38400, Note_on_c, 12, 71, 0
13, 38400, Note_on_c, 12, 69, 89
13, 38430, Note_on_c, 12, 69, 0
13, 38430, Note_on_c, 12, 67, 90
13, 38460, Note_on_c, 12, 67, 0
13, 38460, Note_on_c, 12, 66, 90
13, 38490, Note_on_c, 12, 66, 0
13, 38490, Note_on_c, 12, 67, 90
13, 38520, Note_on_c, 12, 67, 0
13, 38520, Note_on_c, 12, 69, 90
13, 38550, Note_on_c, 12, 69, 0
13, 38550, Note_on_c, 12, 67, 90
13, 38580, Note_on_c, 12, 67, 0
13, 38580, Note_on_c, 12, 66, 90
13, 38610, Note_on_c, 12, 66, 0
13, 38610, Note_on_c, 12, 64, 90
13, 38640, Note_on_c, 12, 64, 0
13, 38640, Note_on_c, 12, 66, 90
13, 38670, Note_on_c, 12, 66, 0
13, 38670, Note_on_c, 12, 64, 90
13, 38700, Note_on_c, 12, 64, 0
13, 38700, Note_on_c, 12, 63, 91
13, 38730, Note_on_c, 12, 63, 0
13, 38730, Note_on_c, 12, 64, 91
13, 38760, Note_on_c, 12, 64, 0
13, 38760, Note_on_c, 12, 66, 91
13, 38801, Note_on_c, 12, 66, 0
13, 38820, Note_on_c, 12, 66, 92
13, 38861, Note_on_c, 12, 66, 0
13, 39060, Note_on_c, 12, 71, 94
13, 39090, Note_on_c, 12, 71, 0
13, 39090, Note_on_c, 12, 69, 94
13, 39120, Note_on_c, 12, 69, 0
13, 39120, Note_on_c, 12, 67, 94
13, 39150, Note_on_c, 12, 67, 0
13, 39150, Note_on_c, 12, 66, 95
13, 39180, Note_on_c, 12, 66, 0
13, 39180, Note_on_c, 12, 68, 95
13, 39221, Note_on_c, 12, 68, 0
13, 39240, Note_on_c, 12, 69, 96
13, 39281, Note_on_c, 12, 69, 0
13, 39300, Note_on_c, 12, 71, 96
13, 39341, Note_on_c, 12, 71, 0
13, 39360, Note_on_c, 12, 64, 97
13, 39390, Note_on_c, 12, 64, 0
13, 39390, Note_on_c, 12, 62, 97
13, 39420, Note_on_c, 12, 62, 0
13, 39420, Note_on_c, 12, 61, 97
13, 39450, Note_on_c, 12, 61, 0
13, 39450, Note_on_c, 12, 59, 98
13, 39480, Note_on_c, 12, 59, 0
13, 39480, Note_on_c, 12, 57, 98
13, 39521, Note_on_c, 12, 57, 0
13, 39540, Note_on_c, 12, 69, 98
13, 39581, Note_on_c, 12, 69, 0
13, 39600, Note_on_c, 12, 62, 99
13, 39641, Note_on_c, 12, 62, 0
13, 39660, Note_on_c, 12, 69, 99
13, 39701, Note_on_c, 12, 69, 0
13, 39720, Note_on_c, 12, 69, 95
13, 39750, Note_on_c, 12, 69, 0
13, 39750, Note_on_c, 12, 67, 95
13, 39780, Note_on_c, 12, 67, 0
13, 39780, Note_on_c, 12, 69, 95
13, 39810, Note_on_c, 12, 69, 0
13, 39810, Note_on_c, 12, 67, 95
13, 39840, Note_on_c, 12, 67, 0
13, 39840, Note_on_c, 12, 66, 95
13, 39881, Note_on_c, 12, 66, 0
13, 40140, Note_on_c, 12, 66, 95
13, 40181, Note_on_c, 12, 66, 0
13, 40200, Note_on_c, 12, 66, 95
13, 40241, Note_on_c, 12, 66, 0
13, 40260, Note_on_c, 12, 66, 95
13, 40290, Note_on_c, 12, 66, 0
13, 40290, Note_on_c, 12, 66, 95
13, 40320, Note_on_c, 12, 66, 0
13, 40320, Note_on_c, 12, 66, 95
13, 40361, Note_on_c, 12, 66, 0
13, 40380, Note_on_c, 12, 66, 95
13, 40421, Note_on_c, 12, 66, 0
13, 40440, Note_on_c, 12, 68, 95
13, 40800, Note_on_c, 12, 68, 0
13, 40800, Note_on_c, 12, 69, 98
13, 41160, Note_on_c, 12, 69, 0
13, 41160, Note_on_c, 12, 71, 102
13, 41520, Note_on_c, 12, 71, 0
13, 41520, Note_on_c, 12, 69, 105
13, 41760, Note_on_c, 12, 69, 0
13, 41820, Note_on_c, 12, 64, 92
13, 41861, Note_on_c, 12, 64, 0
13, 41880, Note_on_c, 12, 62, 90
13, 41910, Note_on_c, 12, 62, 0
13, 41910, Note_on_c, 12, 61, 90
13, 41940, Note_on_c, 12, 61, 0
13, 41940, Note_on_c, 12, 62, 91
13, 41970, Note_on_c, 12, 62, 0
13, 41970, Note_on_c, 12, 64, 91
13, 42000, Note_on_c, 12, 64, 0
13, 42000, Note_on_c, 12, 57, 91
13, 42041, Note_on_c, 12, 57, 0
13, 42060, Note_on_c, 12, 69, 92
13, 42101, Note_on_c, 12, 69, 0
13, 42120, Note_on_c, 12, 67, 92
13, 42161, Note_on_c, 12, 67, 0
13, 42180, Note_on_c, 12, 66, 93
13, 42281, Note_on_c, 12, 66, 0
13, 42300, Note_on_c, 12, 64, 94
13, 42341, Note_on_c, 12, 64, 0
13, 42360, Note_on_c, 12, 67, 94
13, 42401, Note_on_c, 12, 67, 0
13, 42420, Note_on_c, 12, 71, 95
13, 42461, Note_on_c, 12, 71, 0
13, 42480, Note_on_c, 12, 69, 95
13, 42521, Note_on_c, 12, 69, 0
13, 42540, Note_on_c, 12, 67, 96
13, 42641, Note_on_c, 12, 67, 0
13, 42660, Note_on_c, 12, 66, 97
13, 42701, Note_on_c, 12, 66, 0
13, 42720, Note_on_c, 12, 69, 97
13, 42761, Note_on_c, 12, 69, 0
13, 42780, Note_on_c, 12, 73, 98
13, 42821, Note_on_c, 12, 73, 0
13, 42840, Note_on_c, 12, 71, 98
13, 42881, Note_on_c, 12, 71, 0
13, 42900, Note_on_c, 12, 69, 99
13, 43001, Note_on_c, 12, 69, 0
13, 43020, Note_on_c, 12, 67, 100
13, 43061, Note_on_c, 12, 67, 0
13, 43080, Note_on_c, 12, 71, 100
13, 43121, Note_on_c, 12, 71, 0
13, 43140, Note_on_c, 12, 74, 101
13, 43181, Note_on_c, 12, 74, 0
13, 43200, Note_on_c, 12, 73, 101
13, 43241, Note_on_c, 12, 73, 0
13, 43260, Note_on_c, 12, 71, 102
13, 43361, Note_on_c, 12, 71, 0
13, 43380, Note_on_c, 12, 69, 103
13, 43421, Note_on_c, 12, 69, 0
13, 43440, Note_on_c, 12, 73, 103
13, 43481, Note_on_c, 12, 73, 0
13, 43500, Note_on_c, 12, 76, 104
13, 43541, Note_on_c, 12, 76, 0
13, 43560, Note_on_c, 12, 74, 104
13, 43601, Note_on_c, 12, 74, 0
13, 43620, Note_on_c, 12, 69, 105
13, 43721, Note_on_c, 12, 69, 0
13, 43740, Note_on_c, 12, 69, 101
13, 43770, Note_on_c, 12, 69, 0
13, 43770, Note_on_c, 12, 67, 101
13, 43800, Note_on_c, 12, 67, 0
13, 43800, Note_on_c, 12, 69, 101
13, 43841, Note_on_c, 12, 69, 0
13, 43860, Note_on_c, 12, 74, 102
13, 43890, Note_on_c, 12, 74, 0
13, 43890, Note_on_c, 12, 73, 102
13, 43920, Note_on_c, 12, 73, 0
13, 43920, Note_on_c, 12, 74, 102
13, 43961, Note_on_c, 12, 74, 0
13, 43980, Note_on_c, 12, 66, 103
13, 44021, Note_on_c, 12, 66, 0
13, 44040, Note_on_c, 12, 67, 103
13, 44220, Note_on_c, 12, 67, 0
13, 44220, Note_on_c, 12, 73, 105
13, 44250, Note_on_c, 12, 73, 0
13, 44250, Note_on_c, 12, 71, 105
13, 44280, Note_on_c, 12, 71, 0
13, 44280, Note_on_c, 12, 73, 106
13, 44321, Note_on_c, 12, 73, 0
13, 44340, Note_on_c, 12, 64, 106
13, 44381, Note_on_c, 12, 64, 0
13, 44400, Note_on_c, 12, 66, 107
13, 44580, Note_on_c, 12, 66, 0
13, 44580, Note_on_c, 12, 71, 108
13, 44610, Note_on_c, 12, 71, 0
13, 44610, Note_on_c, 12, 69, 109
13, 44640, Note_on_c, 12, 69, 0
13, 44640, Note_on_c, 12, 71, 109
13, 44681, Note_on_c, 12, 71, 0
13, 44700, Note_on_c, 12, 62, 109
13, 44741, Note_on_c, 12, 62, 0
13, 44760, Note_on_c, 12, 64, 110
13, 44801, Note_on_c, 12, 64, 0
13, 44820, Note_on_c, 12, 71, 111
13, 44850, Note_on_c, 12, 71, 0
13, 44850, Note_on_c, 12, 69, 111
13, 44880, Note_on_c, 12, 69, 0
13, 44880, Note_on_c, 12, 67, 111
13, 44921, Note_on_c, 12, 67, 0
13, 44940, Note_on_c, 12, 67, 112
13, 44970, Note_on_c, 12, 67, 0
13, 44970, Note_on_c, 12, 66, 112
13, 45000, Note_on_c, 12, 66, 0
13, 45000, Note_on_c, 12, 64, 112
13, 45030, Note_on_c, 12, 64, 0
13, 45030, Note_on_c, 12, 62, 113
13, 45060, Note_on_c, 12, 62, 0
13, 45060, Note_on_c, 12, 61, 113
13, 45090, Note_on_c, 12, 61, 0
13, 45090, Note_on_c, 12, 62, 113
13, 45120, Note_on_c, 12, 62, 0
13, 45120, Note_on_c, 12, 64, 113
13, 45161, Note_on_c, 12, 64, 0
13, 45180, Note_on_c, 12, 64, 114
13, 45221, Note_on_c, 12, 64, 0
13, 45300, Note_on_c, 12, 69, 115
13, 45341, Note_on_c, 12, 69, 0
13, 45360, Note_on_c, 12, 69, 116
13, 45401, Note_on_c, 12, 69, 0
13, 45420, Note_on_c, 12, 69, 116
13, 45450, Note_on_c, 12, 69, 0
13, 45450, Note_on_c, 12, 69, 116
13, 45480, Note_on_c, 12, 69, 0
13, 45480, Note_on_c, 12, 66, 117
13, 45521, Note_on_c, 12, 66, 0
13, 45540, Note_on_c, 12, 66, 117
13, 45581, Note_on_c, 12, 66, 0
13, 45600, Note_on_c, 12, 62, 118
13, 45641, Note_on_c, 12, 62, 0
13, 45660, Note_on_c, 12, 71, 118
13, 45701, Note_on_c, 12, 71, 0
13, 45720, Note_on_c, 12, 69, 119
13, 45840, Note_on_c, 12, 69, 0
13, 45840, Note_on_c, 12, 69, 120
13, 46200, Note_on_c, 12, 69, 0
13, 46560, End_track
14, 0, Start_track
14, 0, MIDI_port, 0
14, 0, Title_t, "Tenor"
14, 0, Program_c, 13, 52
14, 180, Note_on_c, 13, 57, 84
14, 221, Note_on_c, 13, 57, 0
14, 240, Note_on_c, 13, 66, 84
14, 281, Note_on_c, 13, 66, 0
14, 300, Note_on_c, 13, 62, 84
14, 341, Note_on_c, 13, 62, 0
14, 360, Note_on_c, 13, 64, 84
14, 401, Note_on_c, 13, 64, 0
14, 420, Note_on_c, 13, 66, 84
14, 450, Note_on_c, 13, 66, 0
14, 450, Note_on_c, 13, 67, 84
14, 480, Note_on_c, 13, 67, 0
14, 480, Note_on_c, 13, 66, 84
14, 521, Note_on_c, 13, 66, 0
14, 540, Note_on_c, 13, 66, 84
14, 581, Note_on_c, 13, 66, 0
14, 600, Note_on_c, 13, 66, 84
14, 641, Note_on_c, 13, 66, 0
14, 660, Note_on_c, 13, 66, 84
14, 690, Note_on_c, 13, 66, 0
14, 690, Note_on_c, 13, 67, 84
14, 720, Note_on_c, 13, 67, 0
14, 720, Note_on_c, 13, 69, 84
14, 761, Note_on_c, 13, 69, 0
14, 780, Note_on_c, 13, 69, 84
14, 821, Note_on_c, 13, 69, 0
14, 840, Note_on_c, 13, 69, 84
14, 881, Note_on_c, 13, 69, 0
14, 900, Note_on_c, 13, 64, 84
14, 941, Note_on_c, 13, 64, 0
14, 1260, Note_on_c, 13, 64, 84
14, 1301, Note_on_c, 13, 64, 0
14, 1320, Note_on_c, 13, 64, 84
14, 1361, Note_on_c, 13, 64, 0
14, 1380, Note_on_c, 13, 64, 84
14, 1410, Note_on_c, 13, 64, 0
14, 1410, Note_on_c, 13, 64, 84
14, 1440, Note_on_c, 13, 64, 0
14, 1440, Note_on_c, 13, 64, 84
14, 1481, Note_on_c, 13, 64, 0
14, 1500, Note_on_c, 13, 64, 84
14, 1541, Note_on_c, 13, 64, 0
14, 1560, Note_on_c, 13, 66, 84
14, 2640, Note_on_c, 13, 66, 0
14, 2640, Note_on_c, 13, 59, 84
14, 2681, Note_on_c, 13, 59, 0
14, 2700, Note_on_c, 13, 64, 84
14, 2741, Note_on_c, 13, 64, 0
14, 2760, Note_on_c, 13, 68, 84
14, 2801, Note_on_c, 13, 68, 0
14, 2820, Note_on_c, 13, 64, 84
14, 2850, Note_on_c, 13, 64, 0
14, 2850, Note_on_c, 13, 64, 84
14, 2880, Note_on_c, 13, 64, 0
14, 2880, Note_on_c, 13, 59, 84
14, 2921, Note_on_c, 13, 59, 0
14, 2940, Note_on_c, 13, 64, 84
14, 2981, Note_on_c, 13, 64, 0
14, 3000, Note_on_c, 13, 64, 84
14, 3041, Note_on_c, 13, 64, 0
14, 3060, Note_on_c, 13, 61, 84
14, 3101, Note_on_c, 13, 61, 0
14, 3780, Note_on_c, 13, 56, 84
14, 3821, Note_on_c, 13, 56, 0
14, 3840, Note_on_c, 13, 62, 84
14, 3881, Note_on_c, 13, 62, 0
14, 3900, Note_on_c, 13, 59, 84
14, 3941, Note_on_c, 13, 59, 0
14, 3960, Note_on_c, 13, 61, 84
14, 4001, Note_on_c, 13, 61, 0
14, 4020, Note_on_c, 13, 62, 84
14, 4050, Note_on_c, 13, 62, 0
14, 4050, Note_on_c, 13, 64, 84
14, 4080, Note_on_c, 13, 64, 0
14, 4080, Note_on_c, 13, 62, 84
14, 4121, Note_on_c, 13, 62, 0
14, 4140, Note_on_c, 13, 62, 84
14, 4181, Note_on_c, 13, 62, 0
14, 4200, Note_on_c, 13, 62, 84
14, 4241, Note_on_c, 13, 62, 0
14, 4260, Note_on_c, 13, 62, 84
14, 4290, Note_on_c, 13, 62, 0
14, 4290, Note_on_c, 13, 62, 84
14, 4320, Note_on_c, 13, 62, 0
14, 4320, Note_on_c, 13, 62, 84
14, 4361, Note_on_c, 13, 62, 0
14, 4380, Note_on_c, 13, 56, 84
14, 4421, Note_on_c, 13, 56, 0
14, 4440, Note_on_c, 13, 57, 84
14, 4800, Note_on_c, 13, 57, 0
14, 4800, Note_on_c, 13, 61, 84
14, 5520, Note_on_c, 13, 61, 0
14, 5520, Note_on_c, 13, 66, 84
14, 5561, Note_on_c, 13, 66, 0
14, 5580, Note_on_c, 13, 66, 84
14, 5621, Note_on_c, 13, 66, 0
14, 5640, Note_on_c, 13, 63, 84
14, 5681, Note_on_c, 13, 63, 0
14, 5700, Note_on_c, 13, 63, 84
14, 5730, Note_on_c, 13, 63, 0
14, 5730, Note_on_c, 13, 63, 84
14, 5760, Note_on_c, 13, 63, 0
14, 5760, Note_on_c, 13, 59, 84
14, 5801, Note_on_c, 13, 59, 0
14, 5820, Note_on_c, 13, 59, 84
14, 5861, Note_on_c, 13, 59, 0
14, 5880, Note_on_c, 13, 59, 60
14, 5921, Note_on_c, 13, 59, 0
14, 5940, Note_on_c, 13, 64, 61
14, 5981, Note_on_c, 13, 64, 0
14, 6660, Note_on_c, 13, 54, 73
14, 6701, Note_on_c, 13, 54, 0
14, 6720, Note_on_c, 13, 54, 74
14, 6750, Note_on_c, 13, 54, 0
14, 6750, Note_on_c, 13, 56, 75
14, 6780, Note_on_c, 13, 56, 0
14, 6780, Note_on_c, 13, 57, 75
14, 6900, Note_on_c, 13, 57, 0
14, 6900, Note_on_c, 13, 56, 77
14, 6930, Note_on_c, 13, 56, 0
14, 6930, Note_on_c, 13, 54, 78
14, 6960, Note_on_c, 13, 54, 0
14, 6960, Note_on_c, 13, 61, 78
14, 7001, Note_on_c, 13, 61, 0
14, 7020, Note_on_c, 13, 64, 79
14, 7050, Note_on_c, 13, 64, 0
14, 7050, Note_on_c, 13, 62, 80
14, 7080, Note_on_c, 13, 62, 0
14, 7080, Note_on_c, 13, 61, 80
14, 7320, Note_on_c, 13, 61, 0
14, 7320, Note_on_c, 13, 57, 70
14, 7361, Note_on_c, 13, 57, 0
14, 7380, Note_on_c, 13, 57, 71
14, 7421, Note_on_c, 13, 57, 0
14, 7440, Note_on_c, 13, 57, 72
14, 7481, Note_on_c, 13, 57, 0
14, 7500, Note_on_c, 13, 62, 73
14, 7541, Note_on_c, 13, 62, 0
14, 7560, Note_on_c, 13, 61, 73
14, 7601, Note_on_c, 13, 61, 0
14, 7620, Note_on_c, 13, 59, 74
14, 7721, Note_on_c, 13, 59, 0
14, 7740, Note_on_c, 13, 56, 76
14, 7781, Note_on_c, 13, 56, 0
14, 7800, Note_on_c, 13, 59, 77
14, 7841, Note_on_c, 13, 59, 0
14, 7860, Note_on_c, 13, 64, 78
14, 7901, Note_on_c, 13, 64, 0
14, 7920, Note_on_c, 13, 62, 78
14, 7961, Note_on_c, 13, 62, 0
14, 7980, Note_on_c, 13, 61, 79
14, 8081, Note_on_c, 13, 61, 0
14, 8100, Note_on_c, 13, 57, 81
14, 8141, Note_on_c, 13, 57, 0
14, 8160, Note_on_c, 13, 62, 82
14, 8201, Note_on_c, 13, 62, 0
14, 8220, Note_on_c, 13, 66, 83
14, 8261, Note_on_c, 13, 66, 0
14, 8280, Note_on_c, 13, 64, 83
14, 8321, Note_on_c, 13, 64, 0
14, 8340, Note_on_c, 13, 62, 84
14, 8441, Note_on_c, 13, 62, 0
14, 8460, Note_on_c, 13, 59, 86
14, 8501, Note_on_c, 13, 59, 0
14, 8520, Note_on_c, 13, 64, 87
14, 8561, Note_on_c, 13, 64, 0
14, 8580, Note_on_c, 13, 68, 88
14, 8621, Note_on_c, 13, 68, 0
14, 8640, Note_on_c, 13, 61, 88
14, 8681, Note_on_c, 13, 61, 0
14, 8700, Note_on_c, 13, 64, 89
14, 8741, Note_on_c, 13, 64, 0
14, 8760, Note_on_c, 13, 57, 84
14, 9240, Note_on_c, 13, 57, 0
14, 9240, Note_on_c, 13, 57, 84
14, 9281, Note_on_c, 13, 57, 0
14, 9300, Note_on_c, 13, 57, 84
14, 9341, Note_on_c, 13, 57, 0
14, 9360, Note_on_c, 13, 57, 84
14, 9401, Note_on_c, 13, 57, 0
14, 9420, Note_on_c, 13, 57, 84
14, 9461, Note_on_c, 13, 57, 0
14, 9480, Note_on_c, 13, 57, 84
14, 10481, Note_on_c, 13, 57, 0
14, 10500, Note_on_c, 13, 59, 84
14, 10541, Note_on_c, 13, 59, 0
14, 10560, Note_on_c, 13, 52, 84
14, 10800, Note_on_c, 13, 52, 0
14, 10860, Note_on_c, 13, 59, 84
14, 10901, Note_on_c, 13, 59, 0
14, 10920, Note_on_c, 13, 61, 84
14, 10961, Note_on_c, 13, 61, 0
14, 10980, Note_on_c, 13, 57, 84
14, 11021, Note_on_c, 13, 57, 0
14, 11040, Note_on_c, 13, 61, 84
14, 11081, Note_on_c, 13, 61, 0
14, 11100, Note_on_c, 13, 64, 84
14, 11141, Note_on_c, 13, 64, 0
14, 11160, Note_on_c, 13, 57, 84
14, 11321, Note_on_c, 13, 57, 0
14, 11340, Note_on_c, 13, 56, 84
14, 11381, Note_on_c, 13, 56, 0
14, 11400, Note_on_c, 13, 59, 84
14, 11441, Note_on_c, 13, 59, 0
14, 11460, Note_on_c, 13, 62, 84
14, 11501, Note_on_c, 13, 62, 0
14, 11520, Note_on_c, 13, 56, 84
14, 11681, Note_on_c, 13, 56, 0
14, 11700, Note_on_c, 13, 54, 84
14, 11741, Note_on_c, 13, 54, 0
14, 11760, Note_on_c, 13, 57, 84
14, 11801, Note_on_c, 13, 57, 0
14, 11820, Note_on_c, 13, 61, 84
14, 11861, Note_on_c, 13, 61, 0
14, 11880, Note_on_c, 13, 54, 84
14, 12041, Note_on_c, 13, 54, 0
14, 12060, Note_on_c, 13, 59, 84
14, 12180, Note_on_c, 13, 59, 0
14, 12180, Note_on_c, 13, 59, 84
14, 12210, Note_on_c, 13, 59, 0
14, 12210, Note_on_c, 13, 59, 84
14, 12240, Note_on_c, 13, 59, 0
14, 12240, Note_on_c, 13, 59, 84
14, 12281, Note_on_c, 13, 59, 0
14, 12300, Note_on_c, 13, 59, 84
14, 12341, Note_on_c, 13, 59, 0
14, 12360, Note_on_c, 13, 59, 84
14, 12401, Note_on_c, 13, 59, 0
14, 12420, Note_on_c, 13, 56, 85
14, 12461, Note_on_c, 13, 56, 0
14, 12540, Note_on_c, 13, 59, 88
14, 12581, Note_on_c, 13, 59, 0
14, 12600, Note_on_c, 13, 61, 89
14, 12641, Note_on_c, 13, 61, 0
14, 12660, Note_on_c, 13, 62, 91
14, 12701, Note_on_c, 13, 62, 0
14, 12720, Note_on_c, 13, 61, 92
14, 12750, Note_on_c, 13, 61, 0
14, 12750, Note_on_c, 13, 62, 93
14, 12780, Note_on_c, 13, 62, 0
14, 12780, Note_on_c, 13, 61, 93
14, 12810, Note_on_c, 13, 61, 0
14, 12810, Note_on_c, 13, 59, 94
14, 12840, Note_on_c, 13, 59, 0
14, 12840, Note_on_c, 13, 57, 95
14, 12881, Note_on_c, 13, 57, 0
14, 12900, Note_on_c, 13, 61, 96
14, 12941, Note_on_c, 13, 61, 0
14, 12960, Note_on_c, 13, 59, 97
14, 13001, Note_on_c, 13, 59, 0
14, 13020, Note_on_c, 13, 62, 99
14, 13061, Note_on_c, 13, 62, 0
14, 13080, Note_on_c, 13, 61, 100
14, 13200, Note_on_c, 13, 61, 0
14, 13260, Note_on_c, 13, 64, 60
14, 13301, Note_on_c, 13, 64, 0
14, 13320, Note_on_c, 13, 69, 60
14, 13361, Note_on_c, 13, 69, 0
14, 13380, Note_on_c, 13, 64, 60
14, 13421, Note_on_c, 13, 64, 0
14, 13440, Note_on_c, 13, 61, 60
14, 13470, Note_on_c, 13, 61, 0
14, 13470, Note_on_c, 13, 59, 60
14, 13500, Note_on_c, 13, 59, 0
14, 13500, Note_on_c, 13, 61, 60
14, 13530, Note_on_c, 13, 61, 0
14, 13530, Note_on_c, 13, 62, 60
14, 13560, Note_on_c, 13, 62, 0
14, 13560, Note_on_c, 13, 64, 60
14, 13601, Note_on_c, 13, 64, 0
14, 13620, Note_on_c, 13, 61, 60
14, 13661, Note_on_c, 13, 61, 0
14, 13680, Note_on_c, 13, 64, 60
14, 13721, Note_on_c, 13, 64, 0
14, 13740, Note_on_c, 13, 61, 60
14, 13781, Note_on_c, 13, 61, 0
14, 13800, Note_on_c, 13, 57, 60
14, 13841, Note_on_c, 13, 57, 0
14, 13860, Note_on_c, 13, 61, 60
14, 13890, Note_on_c, 13, 61, 0
14, 13890, Note_on_c, 13, 59, 60
14, 13920, Note_on_c, 13, 59, 0
14, 13920, Note_on_c, 13, 57, 60
14, 13961, Note_on_c, 13, 57, 0
14, 13980, Note_on_c, 13, 61, 60
14, 14021, Note_on_c, 13, 61, 0
14, 14040, Note_on_c, 13, 62, 60
14, 14081, Note_on_c, 13, 62, 0
14, 14100, Note_on_c, 13, 66, 60
14, 14141, Note_on_c, 13, 66, 0
14, 14160, Note_on_c, 13, 59, 60
14, 14201, Note_on_c, 13, 59, 0
14, 14220, Note_on_c, 13, 62, 60
14, 14250, Note_on_c, 13, 62, 0
14, 14250, Note_on_c, 13, 61, 60
14, 14280, Note_on_c, 13, 61, 0
14, 14280, Note_on_c, 13, 59, 60
14, 14321, Note_on_c, 13, 59, 0
14, 14340, Note_on_c, 13, 62, 60
14, 14381, Note_on_c, 13, 62, 0
14, 14400, Note_on_c, 13, 64, 60
14, 14441, Note_on_c, 13, 64, 0
14, 14460, Note_on_c, 13, 67, 60
14, 14501, Note_on_c, 13, 67, 0
14, 14520, Note_on_c, 13, 61, 60
14, 14561, Note_on_c, 13, 61, 0
14, 14580, Note_on_c, 13, 64, 60
14, 14610, Note_on_c, 13, 64, 0
14, 14610, Note_on_c, 13, 62, 60
14, 14640, Note_on_c, 13, 62, 0
14, 14640, Note_on_c, 13, 61, 60
14, 14681, Note_on_c, 13, 61, 0
14, 14700, Note_on_c, 13, 64, 60
14, 14741, Note_on_c, 13, 64, 0
14, 14760, Note_on_c, 13, 57, 60
14, 14801, Note_on_c, 13, 57, 0
14, 14820, Note_on_c, 13, 67, 60
14, 14861, Note_on_c, 13, 67, 0
14, 14880, Note_on_c, 13, 66, 60
14, 14921, Note_on_c, 13, 66, 0
14, 14940, Note_on_c, 13, 64, 60
14, 14970, Note_on_c, 13, 64, 0
14, 14970, Note_on_c, 13, 66, 60
14, 15000, Note_on_c, 13, 66, 0
14, 15000, Note_on_c, 13, 62, 60
14, 15041, Note_on_c, 13, 62, 0
14, 15150, Note_on_c, 13, 55, 60
14, 15180, Note_on_c, 13, 55, 0
14, 15180, Note_on_c, 13, 54, 60
14, 15210, Note_on_c, 13, 54, 0
14, 15210, Note_on_c, 13, 52, 60
14, 15240, Note_on_c, 13, 52, 0
14, 15240, Note_on_c, 13, 50, 60
14, 15270, Note_on_c, 13, 50, 0
14, 15270, Note_on_c, 13, 49, 60
14, 15300, Note_on_c, 13, 49, 0
14, 15300, Note_on_c, 13, 50, 60
14, 15330, Note_on_c, 13, 50, 0
14, 15330, Note_on_c, 13, 52, 60
14, 15360, Note_on_c, 13, 52, 0
14, 15360, Note_on_c, 13, 54, 60
14, 15390, Note_on_c, 13, 54, 0
14, 15390, Note_on_c, 13, 52, 60
14, 15420, Note_on_c, 13, 52, 0
14, 15420, Note_on_c, 13, 50, 60
14, 15450, Note_on_c, 13, 50, 0
14, 15450, Note_on_c, 13, 52, 60
14, 15480, Note_on_c, 13, 52, 0
14, 15480, Note_on_c, 13, 54, 60
14, 15510, Note_on_c, 13, 54, 0
14, 15510, Note_on_c, 13, 52, 60
14, 15540, Note_on_c, 13, 52, 0
14, 15540, Note_on_c, 13, 50, 60
14, 15570, Note_on_c, 13, 50, 0
14, 15570, Note_on_c, 13, 52, 60
14, 15600, Note_on_c, 13, 52, 0
14, 15600, Note_on_c, 13, 54, 60
14, 15630, Note_on_c, 13, 54, 0
14, 15630, Note_on_c, 13, 50, 60
14, 15660, Note_on_c, 13, 50, 0
14, 15660, Note_on_c, 13, 52, 60
14, 15690, Note_on_c, 13, 52, 0
14, 15690, Note_on_c, 13, 54, 60
14, 15720, Note_on_c, 13, 54, 0
14, 15720, Note_on_c, 13, 55, 60
14, 15750, Note_on_c, 13, 55, 0
14, 15750, Note_on_c, 13, 57, 60
14, 15780, Note_on_c, 13, 57, 0
14, 15780, Note_on_c, 13, 59, 60
14, 15810, Note_on_c, 13, 59, 0
14, 15810, Note_on_c, 13, 57, 60
14, 15840, Note_on_c, 13, 57, 0
14, 15840, Note_on_c, 13, 61, 60
14, 15870, Note_on_c, 13, 61, 0
14, 15870, Note_on_c, 13, 59, 60
14, 15900, Note_on_c, 13, 59, 0
14, 15900, Note_on_c, 13, 57, 60
14, 15930, Note_on_c, 13, 57, 0
14, 15930, Note_on_c, 13, 55, 60
14, 15960, Note_on_c, 13, 55, 0
14, 15960, Note_on_c, 13, 57, 60
14, 15990, Note_on_c, 13, 57, 0
14, 15990, Note_on_c, 13, 55, 60
14, 16020, Note_on_c, 13, 55, 0
14, 16020, Note_on_c, 13, 54, 60
14, 16050, Note_on_c, 13, 54, 0
14, 16050, Note_on_c, 13, 55, 61
14, 16080, Note_on_c, 13, 55, 0
14, 16080, Note_on_c, 13, 57, 61
14, 16110, Note_on_c, 13, 57, 0
14, 16110, Note_on_c, 13, 59, 61
14, 16140, Note_on_c, 13, 59, 0
14, 16140, Note_on_c, 13, 61, 61
14, 16170, Note_on_c, 13, 61, 0
14, 16170, Note_on_c, 13, 59, 61
14, 16200, Note_on_c, 13, 59, 0
14, 16200, Note_on_c, 13, 62, 61
14, 16230, Note_on_c, 13, 62, 0
14, 16230, Note_on_c, 13, 61, 62
14, 16260, Note_on_c, 13, 61, 0
14, 16260, Note_on_c, 13, 59, 62
14, 16290, Note_on_c, 13, 59, 0
14, 16290, Note_on_c, 13, 57, 62
14, 16320, Note_on_c, 13, 57, 0
14, 16320, Note_on_c, 13, 59, 62
14, 16350, Note_on_c, 13, 59, 0
14, 16350, Note_on_c, 13, 57, 62
14, 16380, Note_on_c, 13, 57, 0
14, 16380, Note_on_c, 13, 56, 62
14, 16410, Note_on_c, 13, 56, 0
14, 16410, Note_on_c, 13, 57, 63
14, 16440, Note_on_c, 13, 57, 0
14, 16440, Note_on_c, 13, 59, 63
14, 16470, Note_on_c, 13, 59, 0
14, 16470, Note_on_c, 13, 61, 63
14, 16500, Note_on_c, 13, 61, 0
14, 16500, Note_on_c, 13, 62, 63
14, 16530, Note_on_c, 13, 62, 0
14, 16530, Note_on_c, 13, 61, 63
14, 16560, Note_on_c, 13, 61, 0
14, 16560, Note_on_c, 13, 64, 63
14, 16590, Note_on_c, 13, 64, 0
14, 16590, Note_on_c, 13, 62, 64
14, 16620, Note_on_c, 13, 62, 0
14, 16620, Note_on_c, 13, 61, 64
14, 16650, Note_on_c, 13, 61, 0
14, 16650, Note_on_c, 13, 59, 64
14, 16680, Note_on_c, 13, 59, 0
14, 16680, Note_on_c, 13, 57, 64
14, 16710, Note_on_c, 13, 57, 0
14, 16710, Note_on_c, 13, 61, 64
14, 16740, Note_on_c, 13, 61, 0
14, 16740, Note_on_c, 13, 62, 64
14, 16770, Note_on_c, 13, 62, 0
14, 16770, Note_on_c, 13, 64, 65
14, 16800, Note_on_c, 13, 64, 0
14, 16800, Note_on_c, 13, 66, 65
14, 16950, Note_on_c, 13, 66, 0
14, 16950, Note_on_c, 13, 64, 66
14, 16980, Note_on_c, 13, 64, 0
14, 16980, Note_on_c, 13, 62, 66
14, 17010, Note_on_c, 13, 62, 0
14, 17010, Note_on_c, 13, 61, 66
14, 17040, Note_on_c, 13, 61, 0
14, 17040, Note_on_c, 13, 59, 66
14, 17070, Note_on_c, 13, 59, 0
14, 17070, Note_on_c, 13, 62, 66
14, 17100, Note_on_c, 13, 62, 0
14, 17100, Note_on_c, 13, 61, 66
14, 17130, Note_on_c, 13, 61, 0
14, 17130, Note_on_c, 13, 59, 67
14, 17160, Note_on_c, 13, 59, 0
14, 17160, Note_on_c, 13, 64, 67
14, 17310, Note_on_c, 13, 64, 0
14, 17310, Note_on_c, 13, 62, 68
14, 17340, Note_on_c, 13, 62, 0
14, 17340, Note_on_c, 13, 61, 68
14, 17370, Note_on_c, 13, 61, 0
14, 17370, Note_on_c, 13, 59, 68
14, 17400, Note_on_c, 13, 59, 0
14, 17400, Note_on_c, 13, 57, 68
14, 17430, Note_on_c, 13, 57, 0
14, 17430, Note_on_c, 13, 61, 68
14, 17460, Note_on_c, 13, 61, 0
14, 17460, Note_on_c, 13, 59, 68
14, 17490, Note_on_c, 13, 59, 0
14, 17490, Note_on_c, 13, 57, 69
14, 17520, Note_on_c, 13, 57, 0
14, 17520, Note_on_c, 13, 62, 69
14, 17550, Note_on_c, 13, 62, 0
14, 17550, Note_on_c, 13, 66, 69
14, 17580, Note_on_c, 13, 66, 0
14, 17580, Note_on_c, 13, 64, 69
14, 17610, Note_on_c, 13, 64, 0
14, 17610, Note_on_c, 13, 62, 69
14, 17640, Note_on_c, 13, 62, 0
14, 17640, Note_on_c, 13, 64, 69
14, 17681, Note_on_c, 13, 64, 0
14, 17700, Note_on_c, 13, 56, 70
14, 17741, Note_on_c, 13, 56, 0
14, 17760, Note_on_c, 13, 57, 70
14, 17801, Note_on_c, 13, 57, 0
14, 17820, Note_on_c, 13, 64, 70
14, 17861, Note_on_c, 13, 64, 0
14, 17880, Note_on_c, 13, 69, 70
14, 17921, Note_on_c, 13, 69, 0
14, 17940, Note_on_c, 13, 64, 70
14, 17981, Note_on_c, 13, 64, 0
14, 18000, Note_on_c, 13, 61, 70
14, 18030, Note_on_c, 13, 61, 0
14, 18030, Note_on_c, 13, 62, 70
14, 18060, Note_on_c, 13, 62, 0
14, 18060, Note_on_c, 13, 64, 70
14, 18150, Note_on_c, 13, 64, 0
14, 18150, Note_on_c, 13, 62, 70
14, 18180, Note_on_c, 13, 62, 0
14, 18180, Note_on_c, 13, 61, 70
14, 18210, Note_on_c, 13, 61, 0
14, 18210, Note_on_c, 13, 62, 70
14, 18240, Note_on_c, 13, 62, 0
14, 18240, Note_on_c, 13, 64, 70
14, 18281, Note_on_c, 13, 64, 0
14, 18300, Note_on_c, 13, 57, 70
14, 18341, Note_on_c, 13, 57, 0
14, 18360, Note_on_c, 13, 57, 70
14, 18521, Note_on_c, 13, 57, 0
14, 18540, Note_on_c, 13, 55, 71
14, 18570, Note_on_c, 13, 55, 0
14, 18570, Note_on_c, 13, 57, 71
14, 18600, Note_on_c, 13, 57, 0
14, 18600, Note_on_c, 13, 59, 71
14, 18630, Note_on_c, 13, 59, 0
14, 18630, Note_on_c, 13, 61, 71
14, 18660, Note_on_c, 13, 61, 0
14, 18660, Note_on_c, 13, 57, 72
14, 18690, Note_on_c, 13, 57, 0
14, 18690, Note_on_c, 13, 59, 72
14, 18720, Note_on_c, 13, 59, 0
14, 18720, Note_on_c, 13, 55, 72
14, 18870, Note_on_c, 13, 55, 0
14, 18870, Note_on_c, 13, 54, 74
14, 18900, Note_on_c, 13, 54, 0
14, 18900, Note_on_c, 13, 52, 74
14, 18930, Note_on_c, 13, 52, 0
14, 18930, Note_on_c, 13, 54, 74
14, 18960, Note_on_c, 13, 54, 0
14, 18960, Note_on_c, 13, 55, 75
14, 18990, Note_on_c, 13, 55, 0
14, 18990, Note_on_c, 13, 54, 75
14, 19020, Note_on_c, 13, 54, 0
14, 19020, Note_on_c, 13, 52, 75
14, 19050, Note_on_c, 13, 52, 0
14, 19050, Note_on_c, 13, 50, 75
14, 19080, Note_on_c, 13, 50, 0
14, 19080, Note_on_c, 13, 52, 76
14, 19121, Note_on_c, 13, 52, 0
14, 19140, Note_on_c, 13, 61, 76
14, 19181, Note_on_c, 13, 61, 0
14, 19200, Note_on_c, 13, 62, 77
14, 19380, Note_on_c, 13, 62, 0
14, 19380, Note_on_c, 13, 61, 79
14, 19410, Note_on_c, 13, 61, 0
14, 19410, Note_on_c, 13, 59, 79
14, 19440, Note_on_c, 13, 59, 0
14, 19440, Note_on_c, 13, 57, 79
14, 19481, Note_on_c, 13, 57, 0
14, 19500, Note_on_c, 13, 57, 80
14, 19541, Note_on_c, 13, 57, 0
14, 19560, Note_on_c, 13, 57, 80
14, 19601, Note_on_c, 13, 57, 0
14, 19620, Note_on_c, 13, 62, 81
14, 19650, Note_on_c, 13, 62, 0
14, 19650, Note_on_c, 13, 61, 81
14, 19680, Note_on_c, 13, 61, 0
14, 19680, Note_on_c, 13, 62, 81
14, 19830, Note_on_c, 13, 62, 0
14, 19830, Note_on_c, 13, 59, 83
14, 19860, Note_on_c, 13, 59, 0
14, 19860, Note_on_c, 13, 57, 83
14, 19890, Note_on_c, 13, 57, 0
14, 19890, Note_on_c, 13, 55, 83
14, 19920, Note_on_c, 13, 55, 0
14, 19920, Note_on_c, 13, 54, 84
14, 19961, Note_on_c, 13, 54, 0
14, 19980, Note_on_c, 13, 57, 84
14, 20021, Note_on_c, 13, 57, 0
14, 20040, Note_on_c, 13, 62, 85
14, 20190, Note_on_c, 13, 62, 0
14, 20190, Note_on_c, 13, 60, 86
14, 20220, Note_on_c, 13, 60, 0
14, 20220, Note_on_c, 13, 59, 87
14, 20250, Note_on_c, 13, 59, 0
14, 20250, Note_on_c, 13, 57, 87
14, 20280, Note_on_c, 13, 57, 0
14, 20280, Note_on_c, 13, 55, 87
14, 20430, Note_on_c, 13, 55, 0
14, 20430, Note_on_c, 13, 54, 89
14, 20460, Note_on_c, 13, 54, 0
14, 20460, Note_on_c, 13, 55, 89
14, 20490, Note_on_c, 13, 55, 0
14, 20490, Note_on_c, 13, 54, 89
14, 20520, Note_on_c, 13, 54, 0
14, 20520, Note_on_c, 13, 52, 89
14, 20561, Note_on_c, 13, 52, 0
14, 20580, Note_on_c, 13, 57, 90
14, 20670, Note_on_c, 13, 57, 0
14, 20670, Note_on_c, 13, 59, 91
14, 20700, Note_on_c, 13, 59, 0
14, 20700, Note_on_c, 13, 60, 91
14, 20730, Note_on_c, 13, 60, 0
14, 20730, Note_on_c, 13, 59, 91
14, 20760, Note_on_c, 13, 59, 0
14, 20760, Note_on_c, 13, 57, 92
14, 20790, Note_on_c, 13, 57, 0
14, 20790, Note_on_c, 13, 55, 92
14, 20820, Note_on_c, 13, 55, 0
14, 20820, Note_on_c, 13, 54, 92
14, 20850, Note_on_c, 13, 54, 0
14, 20850, Note_on_c, 13, 55, 93
14, 20880, Note_on_c, 13, 55, 0
14, 20880, Note_on_c, 13, 57, 93
14, 20921, Note_on_c, 13, 57, 0
14, 20940, Note_on_c, 13, 57, 93
14, 20981, Note_on_c, 13, 57, 0
14, 21000, Note_on_c, 13, 62, 94
14, 21041, Note_on_c, 13, 62, 0
14, 21060, Note_on_c, 13, 54, 94
14, 21101, Note_on_c, 13, 54, 0
14, 21120, Note_on_c, 13, 59, 94
14, 21161, Note_on_c, 13, 59, 0
14, 21180, Note_on_c, 13, 67, 95
14, 21210, Note_on_c, 13, 67, 0
14, 21210, Note_on_c, 13, 66, 95
14, 21240, Note_on_c, 13, 66, 0
14, 21240, Note_on_c, 13, 64, 95
14, 21281, Note_on_c, 13, 64, 0
14, 21300, Note_on_c, 13, 67, 95
14, 21341, Note_on_c, 13, 67, 0
14, 21360, Note_on_c, 13, 66, 95
14, 21510, Note_on_c, 13, 66, 0
14, 21510, Note_on_c, 13, 67, 96
14, 21540, Note_on_c, 13, 64, 96
14, 21540, Note_on_c, 13, 67, 0
14, 21570, Note_on_c, 13, 64, 0
14, 21570, Note_on_c, 13, 66, 96
14, 21600, Note_on_c, 13, 66, 0
14, 21600, Note_on_c, 13, 62, 96
14, 21641, Note_on_c, 13, 62, 0
14, 21660, Note_on_c, 13, 66, 96
14, 21701, Note_on_c, 13, 66, 0
14, 21720, Note_on_c, 13, 64, 96
14, 21750, Note_on_c, 13, 64, 0
14, 21750, Note_on_c, 13, 62, 97
14, 21780, Note_on_c, 13, 62, 0
14, 21780, Note_on_c, 13, 61, 97
14, 21900, Note_on_c, 13, 61, 0
14, 21900, Note_on_c, 13, 59, 97
14, 21930, Note_on_c, 13, 59, 0
14, 21930, Note_on_c, 13, 61, 97
14, 21960, Note_on_c, 13, 61, 0
14, 21960, Note_on_c, 13, 58, 97
14, 22001, Note_on_c, 13, 58, 0
14, 22020, Note_on_c, 13, 54, 97
14, 22061, Note_on_c, 13, 54, 0
14, 22140, Note_on_c, 13, 61, 98
14, 22181, Note_on_c, 13, 61, 0
14, 22200, Note_on_c, 13, 61, 98
14, 22241, Note_on_c, 13, 61, 0
14, 22260, Note_on_c, 13, 58, 98
14, 22290, Note_on_c, 13, 58, 0
14, 22290, Note_on_c, 13, 58, 98
14, 22320, Note_on_c, 13, 58, 0
14, 22320, Note_on_c, 13, 54, 98
14, 22361, Note_on_c, 13, 54, 0
14, 22380, Note_on_c, 13, 64, 99
14, 22421, Note_on_c, 13, 64, 0
14, 22440, Note_on_c, 13, 62, 99
14, 22481, Note_on_c, 13, 62, 0
14, 22500, Note_on_c, 13, 67, 99
14, 22541, Note_on_c, 13, 67, 0
14, 22560, Note_on_c, 13, 66, 99
14, 22601, Note_on_c, 13, 66, 0
14, 22620, Note_on_c, 13, 64, 99
14, 22650, Note_on_c, 13, 64, 0
14, 22650, Note_on_c, 13, 62, 100
14, 22680, Note_on_c, 13, 62, 0
14, 22680, Note_on_c, 13, 64, 100
14, 22721, Note_on_c, 13, 64, 0
14, 22740, Note_on_c, 13, 61, 100
14, 22781, Note_on_c, 13, 61, 0
14, 22800, Note_on_c, 13, 62, 100
14, 22920, Note_on_c, 13, 62, 0
14, 24240, Note_on_c, 13, 59, 90
14, 24480, Note_on_c, 13, 59, 0
14, 24480, Note_on_c, 13, 59, 90
14, 24600, Note_on_c, 13, 59, 0
14, 24660, Note_on_c, 13, 59, 90
14, 24701, Note_on_c, 13, 59, 0
14, 24720, Note_on_c, 13, 59, 90
14, 24761, Note_on_c, 13, 59, 0
14, 24780, Note_on_c, 13, 59, 90
14, 24821, Note_on_c, 13, 59, 0
14, 24840, Note_on_c, 13, 64, 90
14, 24881, Note_on_c, 13, 64, 0
14, 24900, Note_on_c, 13, 64, 90
14, 24941, Note_on_c, 13, 64, 0
14, 24960, Note_on_c, 13, 61, 90
14, 25080, Note_on_c, 13, 61, 0
14, 25680, Note_on_c, 13, 54, 90
14, 25920, Note_on_c, 13, 54, 0
14, 25920, Note_on_c, 13, 54, 90
14, 26040, Note_on_c, 13, 54, 0
14, 26100, Note_on_c, 13, 61, 90
14, 26141, Note_on_c, 13, 61, 0
14, 26160, Note_on_c, 13, 56, 90
14, 26201, Note_on_c, 13, 56, 0
14, 26220, Note_on_c, 13, 53, 90
14, 26250, Note_on_c, 13, 53, 0
14, 26250, Note_on_c, 13, 53, 90
14, 26280, Note_on_c, 13, 53, 0
14, 26280, Note_on_c, 13, 49, 90
14, 26321, Note_on_c, 13, 49, 0
14, 26340, Note_on_c, 13, 49, 90
14, 26381, Note_on_c, 13, 49, 0
14, 26400, Note_on_c, 13, 54, 90
14, 26441, Note_on_c, 13, 54, 0
14, 26460, Note_on_c, 13, 57, 90
14, 26501, Note_on_c, 13, 57, 0
14, 26700, Note_on_c, 13, 66, 90
14, 26741, Note_on_c, 13, 66, 0
14, 26760, Note_on_c, 13, 61, 90
14, 26801, Note_on_c, 13, 61, 0
14, 26820, Note_on_c, 13, 61, 90
14, 26850, Note_on_c, 13, 61, 0
14, 26850, Note_on_c, 13, 61, 90
14, 26880, Note_on_c, 13, 61, 0
14, 26880, Note_on_c, 13, 61, 90
14, 27060, Note_on_c, 13, 61, 0
14, 27060, Note_on_c, 13, 61, 90
14, 27101, Note_on_c, 13, 61, 0
14, 27120, Note_on_c, 13, 66, 90
14, 27840, Note_on_c, 13, 66, 0
14, 27840, Note_on_c, 13, 63, 95
14, 28200, Note_on_c, 13, 63, 0
14, 28200, Note_on_c, 13, 56, 98
14, 28440, Note_on_c, 13, 56, 0
14, 28500, Note_on_c, 13, 61, 100
14, 28541, Note_on_c, 13, 61, 0
14, 28560, Note_on_c, 13, 61, 95
14, 28601, Note_on_c, 13, 61, 0
14, 28620, Note_on_c, 13, 61, 96
14, 28650, Note_on_c, 13, 61, 0
14, 28650, Note_on_c, 13, 61, 96
14, 28680, Note_on_c, 13, 61, 0
14, 28680, Note_on_c, 13, 66, 97
14, 28721, Note_on_c, 13, 66, 0
14, 28740, Note_on_c, 13, 61, 98
14, 28781, Note_on_c, 13, 61, 0
14, 28800, Note_on_c, 13, 62, 98
14, 28841, Note_on_c, 13, 62, 0
14, 28860, Note_on_c, 13, 61, 99
14, 28901, Note_on_c, 13, 61, 0
14, 28920, Note_on_c, 13, 61, 100
14, 29040, Note_on_c, 13, 61, 0
14, 30780, Note_on_c, 13, 54, 70
14, 30821, Note_on_c, 13, 54, 0
14, 30840, Note_on_c, 13, 59, 70
14, 30881, Note_on_c, 13, 59, 0
14, 30900, Note_on_c, 13, 54, 70
14, 30941, Note_on_c, 13, 54, 0
14, 30960, Note_on_c, 13, 50, 70
14, 30990, Note_on_c, 13, 50, 0
14, 30990, Note_on_c, 13, 52, 70
14, 31020, Note_on_c, 13, 52, 0
14, 31020, Note_on_c, 13, 54, 70
14, 31061, Note_on_c, 13, 54, 0
14, 31080, Note_on_c, 13, 54, 70
14, 31200, Note_on_c, 13, 54, 0
14, 32340, Note_on_c, 13, 59, 82
14, 32381, Note_on_c, 13, 59, 0
14, 32400, Note_on_c, 13, 64, 83
14, 32441, Note_on_c, 13, 64, 0
14, 32460, Note_on_c, 13, 59, 83
14, 32501, Note_on_c, 13, 59, 0
14, 32520, Note_on_c, 13, 56, 84
14, 32550, Note_on_c, 13, 56, 0
14, 32550, Note_on_c, 13, 54, 84
14, 32580, Note_on_c, 13, 54, 0
14, 32580, Note_on_c, 13, 56, 84
14, 32610, Note_on_c, 13, 56, 0
14, 32610, Note_on_c, 13, 57, 84
14, 32640, Note_on_c, 13, 57, 0
14, 32640, Note_on_c, 13, 59, 84
14, 32681, Note_on_c, 13, 59, 0
14, 32700, Note_on_c, 13, 56, 84
14, 32741, Note_on_c, 13, 56, 0
14, 32760, Note_on_c, 13, 59, 84
14, 32801, Note_on_c, 13, 59, 0
14, 32820, Note_on_c, 13, 56, 84
14, 32861, Note_on_c, 13, 56, 0
14, 32880, Note_on_c, 13, 52, 84
14, 32921, Note_on_c, 13, 52, 0
14, 32940, Note_on_c, 13, 56, 84
14, 32970, Note_on_c, 13, 56, 0
14, 32970, Note_on_c, 13, 54, 84
14, 33000, Note_on_c, 13, 54, 0
14, 33000, Note_on_c, 13, 52, 84
14, 33041, Note_on_c, 13, 52, 0
14, 33060, Note_on_c, 13, 56, 84
14, 33101, Note_on_c, 13, 56, 0
14, 33120, Note_on_c, 13, 57, 84
14, 33161, Note_on_c, 13, 57, 0
14, 33180, Note_on_c, 13, 61, 84
14, 33221, Note_on_c, 13, 61, 0
14, 33240, Note_on_c, 13, 54, 84
14, 33281, Note_on_c, 13, 54, 0
14, 33300, Note_on_c, 13, 57, 84
14, 33330, Note_on_c, 13, 57, 0
14, 33330, Note_on_c, 13, 56, 84
14, 33360, Note_on_c, 13, 56, 0
14, 33360, Note_on_c, 13, 54, 84
14, 33401, Note_on_c, 13, 54, 0
14, 33420, Note_on_c, 13, 57, 84
14, 33461, Note_on_c, 13, 57, 0
14, 33480, Note_on_c, 13, 59, 84
14, 33521, Note_on_c, 13, 59, 0
14, 33540, Note_on_c, 13, 62, 84
14, 33581, Note_on_c, 13, 62, 0
14, 33600, Note_on_c, 13, 56, 84
14, 33641, Note_on_c, 13, 56, 0
14, 33660, Note_on_c, 13, 59, 84
14, 33690, Note_on_c, 13, 59, 0
14, 33690, Note_on_c, 13, 57, 84
14, 33720, Note_on_c, 13, 57, 0
14, 33720, Note_on_c, 13, 56, 84
14, 33761, Note_on_c, 13, 56, 0
14, 33780, Note_on_c, 13, 59, 84
14, 33821, Note_on_c, 13, 59, 0
14, 33840, Note_on_c, 13, 52, 84
14, 33881, Note_on_c, 13, 52, 0
14, 33900, Note_on_c, 13, 64, 84
14, 33941, Note_on_c, 13, 64, 0
14, 33960, Note_on_c, 13, 61, 84
14, 34001, Note_on_c, 13, 61, 0
14, 34020, Note_on_c, 13, 59, 84
14, 34050, Note_on_c, 13, 59, 0
14, 34050, Note_on_c, 13, 61, 84
14, 34080, Note_on_c, 13, 61, 0
14, 34080, Note_on_c, 13, 57, 84
14, 34121, Note_on_c, 13, 57, 0
14, 34230, Note_on_c, 13, 62, 84
14, 34260, Note_on_c, 13, 62, 0
14, 34260, Note_on_c, 13, 61, 84
14, 34290, Note_on_c, 13, 61, 0
14, 34290, Note_on_c, 13, 59, 84
14, 34320, Note_on_c, 13, 59, 0
14, 34320, Note_on_c, 13, 57, 84
14, 34350, Note_on_c, 13, 57, 0
14, 34350, Note_on_c, 13, 56, 84
14, 34380, Note_on_c, 13, 56, 0
14, 34380, Note_on_c, 13, 57, 84
14, 34410, Note_on_c, 13, 57, 0
14, 34410, Note_on_c, 13, 59, 84
14, 34440, Note_on_c, 13, 59, 0
14, 34440, Note_on_c, 13, 61, 84
14, 34470, Note_on_c, 13, 61, 0
14, 34470, Note_on_c, 13, 59, 84
14, 34500, Note_on_c, 13, 59, 0
14, 34500, Note_on_c, 13, 57, 84
14, 34530, Note_on_c, 13, 57, 0
14, 34530, Note_on_c, 13, 59, 84
14, 34560, Note_on_c, 13, 59, 0
14, 34560, Note_on_c, 13, 61, 84
14, 34590, Note_on_c, 13, 61, 0
14, 34590, Note_on_c, 13, 59, 84
14, 34620, Note_on_c, 13, 59, 0
14, 34620, Note_on_c, 13, 57, 84
14, 34650, Note_on_c, 13, 57, 0
14, 34650, Note_on_c, 13, 59, 84
14, 34680, Note_on_c, 13, 59, 0
14, 34680, Note_on_c, 13, 61, 84
14, 34710, Note_on_c, 13, 61, 0
14, 34710, Note_on_c, 13, 59, 84
14, 34740, Note_on_c, 13, 59, 0
14, 34740, Note_on_c, 13, 57, 84
14, 34770, Note_on_c, 13, 57, 0
14, 34770, Note_on_c, 13, 59, 84
14, 34800, Note_on_c, 13, 59, 0
14, 34800, Note_on_c, 13, 61, 84
14, 34830, Note_on_c, 13, 61, 0
14, 34830, Note_on_c, 13, 62, 84
14, 34860, Note_on_c, 13, 62, 0
14, 34860, Note_on_c, 13, 64, 84
14, 34890, Note_on_c, 13, 64, 0
14, 34890, Note_on_c, 13, 62, 84
14, 34920, Note_on_c, 13, 62, 0
14, 34920, Note_on_c, 13, 66, 84
14, 34950, Note_on_c, 13, 66, 0
14, 34950, Note_on_c, 13, 64, 84
14, 34980, Note_on_c, 13, 64, 0
14, 34980, Note_on_c, 13, 62, 84
14, 35010, Note_on_c, 13, 62, 0
14, 35010, Note_on_c, 13, 61, 84
14, 35040, Note_on_c, 13, 61, 0
14, 35040, Note_on_c, 13, 62, 84
14, 35070, Note_on_c, 13, 62, 0
14, 35070, Note_on_c, 13, 61, 84
14, 35100, Note_on_c, 13, 61, 0
14, 35100, Note_on_c, 13, 59, 84
14, 35130, Note_on_c, 13, 59, 0
14, 35130, Note_on_c, 13, 61, 84
14, 35160, Note_on_c, 13, 61, 0
14, 35160, Note_on_c, 13, 62, 84
14, 35190, Note_on_c, 13, 62, 0
14, 35190, Note_on_c, 13, 64, 84
14, 35220, Note_on_c, 13, 64, 0
14, 35220, Note_on_c, 13, 66, 84
14, 35250, Note_on_c, 13, 66, 0
14, 35250, Note_on_c, 13, 64, 84
14, 35280, Note_on_c, 13, 64, 0
14, 35280, Note_on_c, 13, 67, 84
14, 35310, Note_on_c, 13, 67, 0
14, 35310, Note_on_c, 13, 66, 84
14, 35340, Note_on_c, 13, 66, 0
14, 35340, Note_on_c, 13, 64, 84
14, 35370, Note_on_c, 13, 64, 0
14, 35370, Note_on_c, 13, 62, 84
14, 35400, Note_on_c, 13, 62, 0
14, 35400, Note_on_c, 13, 64, 84
14, 35430, Note_on_c, 13, 64, 0
14, 35430, Note_on_c, 13, 62, 84
14, 35460, Note_on_c, 13, 62, 0
14, 35460, Note_on_c, 13, 61, 84
14, 35490, Note_on_c, 13, 61, 0
14, 35490, Note_on_c, 13, 62, 84
14, 35520, Note_on_c, 13, 62, 0
14, 35520, Note_on_c, 13, 64, 84
14, 35550, Note_on_c, 13, 64, 0
14, 35550, Note_on_c, 13, 66, 84
14, 35580, Note_on_c, 13, 66, 0
14, 35580, Note_on_c, 13, 67, 84
14, 35610, Note_on_c, 13, 67, 0
14, 35610, Note_on_c, 13, 66, 84
14, 35640, Note_on_c, 13, 66, 0
14, 35640, Note_on_c, 13, 69, 84
14, 35670, Note_on_c, 13, 69, 0
14, 35670, Note_on_c, 13, 67, 84
14, 35700, Note_on_c, 13, 67, 0
14, 35700, Note_on_c, 13, 66, 84
14, 35730, Note_on_c, 13, 66, 0
14, 35730, Note_on_c, 13, 64, 84
14, 35760, Note_on_c, 13, 64, 0
14, 35760, Note_on_c, 13, 62, 84
14, 35940, Note_on_c, 13, 62, 0
14, 35940, Note_on_c, 13, 61, 84
14, 35970, Note_on_c, 13, 61, 0
14, 35970, Note_on_c, 13, 59, 84
14, 36000, Note_on_c, 13, 59, 0
14, 36000, Note_on_c, 13, 57, 84
14, 36041, Note_on_c, 13, 57, 0
14, 36060, Note_on_c, 13, 57, 84
14, 36161, Note_on_c, 13, 57, 0
14, 36180, Note_on_c, 13, 62, 84
14, 36210, Note_on_c, 13, 62, 0
14, 36210, Note_on_c, 13, 61, 84
14, 36240, Note_on_c, 13, 61, 0
14, 36240, Note_on_c, 13, 62, 84
14, 36390, Note_on_c, 13, 62, 0
14, 36390, Note_on_c, 13, 59, 85
14, 36420, Note_on_c, 13, 59, 0
14, 36420, Note_on_c, 13, 57, 85
14, 36450, Note_on_c, 13, 57, 0
14, 36450, Note_on_c, 13, 55, 85
14, 36480, Note_on_c, 13, 55, 0
14, 36480, Note_on_c, 13, 54, 85
14, 36521, Note_on_c, 13, 54, 0
14, 36540, Note_on_c, 13, 57, 85
14, 36581, Note_on_c, 13, 57, 0
14, 36600, Note_on_c, 13, 62, 85
14, 36750, Note_on_c, 13, 62, 0
14, 36750, Note_on_c, 13, 60, 86
14, 36780, Note_on_c, 13, 60, 0
14, 36780, Note_on_c, 13, 59, 86
14, 36810, Note_on_c, 13, 59, 0
14, 36810, Note_on_c, 13, 57, 86
14, 36840, Note_on_c, 13, 57, 0
14, 36840, Note_on_c, 13, 55, 86
14, 36990, Note_on_c, 13, 55, 0
14, 36990, Note_on_c, 13, 54, 86
14, 37020, Note_on_c, 13, 54, 0
14, 37020, Note_on_c, 13, 55, 86
14, 37050, Note_on_c, 13, 55, 0
14, 37050, Note_on_c, 13, 54, 86
14, 37080, Note_on_c, 13, 54, 0
14, 37080, Note_on_c, 13, 52, 86
14, 37121, Note_on_c, 13, 52, 0
14, 37140, Note_on_c, 13, 57, 86
14, 37230, Note_on_c, 13, 57, 0
14, 37230, Note_on_c, 13, 59, 87
14, 37260, Note_on_c, 13, 59, 0
14, 37260, Note_on_c, 13, 60, 87
14, 37290, Note_on_c, 13, 60, 0
14, 37290, Note_on_c, 13, 59, 87
14, 37320, Note_on_c, 13, 59, 0
14, 37320, Note_on_c, 13, 57, 87
14, 37350, Note_on_c, 13, 57, 0
14, 37350, Note_on_c, 13, 55, 87
14, 37380, Note_on_c, 13, 55, 0
14, 37380, Note_on_c, 13, 54, 87
14, 37410, Note_on_c, 13, 54, 0
14, 37410, Note_on_c, 13, 55, 87
14, 37440, Note_on_c, 13, 55, 0
14, 37440, Note_on_c, 13, 57, 87
14, 37481, Note_on_c, 13, 57, 0
14, 37500, Note_on_c, 13, 57, 87
14, 37541, Note_on_c, 13, 57, 0
14, 37560, Note_on_c, 13, 59, 87
14, 37590, Note_on_c, 13, 59, 0
14, 37590, Note_on_c, 13, 57, 88
14, 37620, Note_on_c, 13, 57, 0
14, 37620, Note_on_c, 13, 59, 88
14, 37650, Note_on_c, 13, 59, 0
14, 37650, Note_on_c, 13, 60, 88
14, 37680, Note_on_c, 13, 60, 0
14, 37680, Note_on_c, 13, 62, 88
14, 37721, Note_on_c, 13, 62, 0
14, 37740, Note_on_c, 13, 59, 88
14, 37781, Note_on_c, 13, 59, 0
14, 37800, Note_on_c, 13, 67, 88
14, 37830, Note_on_c, 13, 67, 0
14, 37830, Note_on_c, 13, 66, 88
14, 37860, Note_on_c, 13, 66, 0
14, 37860, Note_on_c, 13, 64, 88
14, 37890, Note_on_c, 13, 64, 0
14, 37890, Note_on_c, 13, 62, 88
14, 37920, Note_on_c, 13, 62, 0
14, 37920, Note_on_c, 13, 64, 88
14, 37950, Note_on_c, 13, 64, 0
14, 37950, Note_on_c, 13, 66, 88
14, 37980, Note_on_c, 13, 66, 0
14, 37980, Note_on_c, 13, 67, 88
14, 38070, Note_on_c, 13, 67, 0
14, 38070, Note_on_c, 13, 66, 89
14, 38100, Note_on_c, 13, 66, 0
14, 38100, Note_on_c, 13, 64, 89
14, 38130, Note_on_c, 13, 64, 0
14, 38130, Note_on_c, 13, 62, 89
14, 38160, Note_on_c, 13, 62, 0
14, 38160, Note_on_c, 13, 61, 89
14, 38190, Note_on_c, 13, 61, 0
14, 38190, Note_on_c, 13, 59, 89
14, 38220, Note_on_c, 13, 59, 0
14, 38220, Note_on_c, 13, 57, 89
14, 38250, Note_on_c, 13, 57, 0
14, 38250, Note_on_c, 13, 55, 89
14, 38280, Note_on_c, 13, 55, 0
14, 38280, Note_on_c, 13, 57, 89
14, 38310, Note_on_c, 13, 57, 0
14, 38310, Note_on_c, 13, 59, 89
14, 38340, Note_on_c, 13, 59, 0
14, 38340, Note_on_c, 13, 61, 89
14, 38460, Note_on_c, 13, 61, 0
14, 38460, Note_on_c, 13, 57, 90
14, 38501, Note_on_c, 13, 57, 0
14, 38520, Note_on_c, 13, 66, 90
14, 38550, Note_on_c, 13, 66, 0
14, 38550, Note_on_c, 13, 64, 90
14, 38580, Note_on_c, 13, 64, 0
14, 38580, Note_on_c, 13, 62, 90
14, 38610, Note_on_c, 13, 62, 0
14, 38610, Note_on_c, 13, 61, 90
14, 38640, Note_on_c, 13, 61, 0
14, 38640, Note_on_c, 13, 63, 90
14, 38670, Note_on_c, 13, 63, 0
14, 38670, Note_on_c, 13, 64, 90
14, 38700, Note_on_c, 13, 64, 0
14, 38700, Note_on_c, 13, 66, 91
14, 38790, Note_on_c, 13, 66, 0
14, 38790, Note_on_c, 13, 64, 91
14, 38820, Note_on_c, 13, 64, 0
14, 38820, Note_on_c, 13, 63, 92
14, 38850, Note_on_c, 13, 63, 0
14, 38850, Note_on_c, 13, 61, 92
14, 38880, Note_on_c, 13, 61, 0
14, 38880, Note_on_c, 13, 59, 92
14, 38921, Note_on_c, 13, 59, 0
14, 38940, Note_on_c, 13, 59, 93
14, 38981, Note_on_c, 13, 59, 0
14, 39000, Note_on_c, 13, 59, 93
14, 39030, Note_on_c, 13, 59, 0
14, 39030, Note_on_c, 13, 57, 94
14, 39060, Note_on_c, 13, 57, 0
14, 39060, Note_on_c, 13, 55, 94
14, 39090, Note_on_c, 13, 55, 0
14, 39090, Note_on_c, 13, 57, 94
14, 39120, Note_on_c, 13, 57, 0
14, 39120, Note_on_c, 13, 59, 94
14, 39161, Note_on_c, 13, 59, 0
14, 39180, Note_on_c, 13, 59, 95
14, 39221, Note_on_c, 13, 59, 0
14, 39240, Note_on_c, 13, 66, 96
14, 39281, Note_on_c, 13, 66, 0
14, 39300, Note_on_c, 13, 59, 96
14, 39341, Note_on_c, 13, 59, 0
14, 39360, Note_on_c, 13, 61, 97
14, 39401, Note_on_c, 13, 61, 0
14, 39420, Note_on_c, 13, 64, 97
14, 39450, Note_on_c, 13, 64, 0
14, 39450, Note_on_c, 13, 62, 98
14, 39480, Note_on_c, 13, 62, 0
14, 39480, Note_on_c, 13, 61, 98
14, 39510, Note_on_c, 13, 61, 0
14, 39510, Note_on_c, 13, 59, 98
14, 39540, Note_on_c, 13, 59, 0
14, 39540, Note_on_c, 13, 57, 98
14, 39581, Note_on_c, 13, 57, 0
14, 39600, Note_on_c, 13, 62, 99
14, 39641, Note_on_c, 13, 62, 0
14, 39660, Note_on_c, 13, 57, 99
14, 39761, Note_on_c, 13, 57, 0
14, 39780, Note_on_c, 13, 62, 95
14, 39821, Note_on_c, 13, 62, 0
14, 39840, Note_on_c, 13, 66, 95
14, 39881, Note_on_c, 13, 66, 0
14, 40140, Note_on_c, 13, 62, 95
14, 40181, Note_on_c, 13, 62, 0
14, 40200, Note_on_c, 13, 62, 95
14, 40241, Note_on_c, 13, 62, 0
14, 40260, Note_on_c, 13, 62, 95
14, 40290, Note_on_c, 13, 62, 0
14, 40290, Note_on_c, 13, 62, 95
14, 40320, Note_on_c, 13, 62, 0
14, 40320, Note_on_c, 13, 62, 95
14, 40361, Note_on_c, 13, 62, 0
14, 40380, Note_on_c, 13, 62, 95
14, 40421, Note_on_c, 13, 62, 0
14, 40440, Note_on_c, 13, 62, 95
14, 41441, Note_on_c, 13, 62, 0
14, 41460, Note_on_c, 13, 64, 104
14, 41501, Note_on_c, 13, 64, 0
14, 41520, Note_on_c, 13, 57, 105
14, 41760, Note_on_c, 13, 57, 0
14, 41820, Note_on_c, 13, 57, 92
14, 41861, Note_on_c, 13, 57, 0
14, 41880, Note_on_c, 13, 57, 90
14, 41921, Note_on_c, 13, 57, 0
14, 41940, Note_on_c, 13, 62, 91
14, 41970, Note_on_c, 13, 62, 0
14, 41970, Note_on_c, 13, 61, 91
14, 42000, Note_on_c, 13, 61, 0
14, 42000, Note_on_c, 13, 62, 91
14, 42041, Note_on_c, 13, 62, 0
14, 42060, Note_on_c, 13, 66, 92
14, 42101, Note_on_c, 13, 66, 0
14, 42120, Note_on_c, 13, 64, 92
14, 42161, Note_on_c, 13, 64, 0
14, 42180, Note_on_c, 13, 62, 93
14, 42281, Note_on_c, 13, 62, 0
14, 42300, Note_on_c, 13, 67, 94
14, 42341, Note_on_c, 13, 67, 0
14, 42360, Note_on_c, 13, 59, 94
14, 42401, Note_on_c, 13, 59, 0
14, 42420, Note_on_c, 13, 67, 95
14, 42461, Note_on_c, 13, 67, 0
14, 42480, Note_on_c, 13, 66, 95
14, 42521, Note_on_c, 13, 66, 0
14, 42540, Note_on_c, 13, 64, 96
14, 42641, Note_on_c, 13, 64, 0
14, 42660, Note_on_c, 13, 69, 97
14, 42701, Note_on_c, 13, 69, 0
14, 42720, Note_on_c, 13, 61, 97
14, 42761, Note_on_c, 13, 61, 0
14, 42780, Note_on_c, 13, 69, 98
14, 42821, Note_on_c, 13, 69, 0
14, 42840, Note_on_c, 13, 67, 98
14, 42881, Note_on_c, 13, 67, 0
14, 42900, Note_on_c, 13, 66, 99
14, 43001, Note_on_c, 13, 66, 0
14, 43020, Note_on_c, 13, 67, 100
14, 43061, Note_on_c, 13, 67, 0
14, 43080, Note_on_c, 13, 62, 100
14, 43121, Note_on_c, 13, 62, 0
14, 43140, Note_on_c, 13, 59, 101
14, 43181, Note_on_c, 13, 59, 0
14, 43200, Note_on_c, 13, 61, 101
14, 43241, Note_on_c, 13, 61, 0
14, 43260, Note_on_c, 13, 62, 102
14, 43301, Note_on_c, 13, 62, 0
14, 43320, Note_on_c, 13, 61, 102
14, 43361, Note_on_c, 13, 61, 0
14, 43380, Note_on_c, 13, 61, 103
14, 43410, Note_on_c, 13, 61, 0
14, 43410, Note_on_c, 13, 59, 103
14, 43440, Note_on_c, 13, 59, 0
14, 43440, Note_on_c, 13, 61, 103
14, 43481, Note_on_c, 13, 61, 0
14, 43500, Note_on_c, 13, 61, 104
14, 43541, Note_on_c, 13, 61, 0
14, 43560, Note_on_c, 13, 62, 104
14, 43601, Note_on_c, 13, 62, 0
14, 43620, Note_on_c, 13, 69, 105
14, 43650, Note_on_c, 13, 69, 0
14, 43650, Note_on_c, 13, 67, 105
14, 43680, Note_on_c, 13, 67, 0
14, 43680, Note_on_c, 13, 66, 100
14, 43721, Note_on_c, 13, 66, 0
14, 43740, Note_on_c, 13, 62, 101
14, 43781, Note_on_c, 13, 62, 0
14, 43860, Note_on_c, 13, 57, 102
14, 43901, Note_on_c, 13, 57, 0
14, 43920, Note_on_c, 13, 62, 102
14, 44081, Note_on_c, 13, 62, 0
14, 44100, Note_on_c, 13, 61, 104
14, 44141, Note_on_c, 13, 61, 0
14, 44160, Note_on_c, 13, 64, 104
14, 44201, Note_on_c, 13, 64, 0
14, 44220, Note_on_c, 13, 67, 105
14, 44261, Note_on_c, 13, 67, 0
14, 44280, Note_on_c, 13, 61, 106
14, 44441, Note_on_c, 13, 61, 0
14, 44460, Note_on_c, 13, 59, 107
14, 44501, Note_on_c, 13, 59, 0
14, 44520, Note_on_c, 13, 62, 108
14, 44561, Note_on_c, 13, 62, 0
14, 44580, Note_on_c, 13, 66, 108
14, 44621, Note_on_c, 13, 66, 0
14, 44640, Note_on_c, 13, 59, 109
14, 44801, Note_on_c, 13, 59, 0
14, 44820, Note_on_c, 13, 64, 111
14, 44861, Note_on_c, 13, 64, 0
14, 44880, Note_on_c, 13, 64, 111
14, 44921, Note_on_c, 13, 64, 0
14, 44940, Note_on_c, 13, 64, 112
14, 44981, Note_on_c, 13, 64, 0
14, 45000, Note_on_c, 13, 69, 112
14, 45041, Note_on_c, 13, 69, 0
14, 45060, Note_on_c, 13, 69, 113
14, 45101, Note_on_c, 13, 69, 0
14, 45120, Note_on_c, 13, 69, 113
14, 45161, Note_on_c, 13, 69, 0
14, 45180, Note_on_c, 13, 64, 114
14, 45221, Note_on_c, 13, 64, 0
14, 45300, Note_on_c, 13, 64, 115
14, 45341, Note_on_c, 13, 64, 0
14, 45360, Note_on_c, 13, 66, 116
14, 45401, Note_on_c, 13, 66, 0
14, 45420, Note_on_c, 13, 61, 116
14, 45450, Note_on_c, 13, 61, 0
14, 45450, Note_on_c, 13, 61, 116
14, 45480, Note_on_c, 13, 61, 0
14, 45480, Note_on_c, 13, 59, 117
14, 45510, Note_on_c, 13, 59, 0
14, 45510, Note_on_c, 13, 61, 117
14, 45540, Note_on_c, 13, 61, 0
14, 45540, Note_on_c, 13, 62, 117
14, 45570, Note_on_c, 13, 62, 0
14, 45570, Note_on_c, 13, 64, 118
14, 45600, Note_on_c, 13, 64, 0
14, 45600, Note_on_c, 13, 66, 118
14, 45641, Note_on_c, 13, 66, 0
14, 45660, Note_on_c, 13, 59, 118
14, 45701, Note_on_c, 13, 59, 0
14, 45720, Note_on_c, 13, 64, 119
14, 45840, Note_on_c, 13, 64, 0
14, 45840, Note_on_c, 13, 66, 120
14, 46200, Note_on_c, 13, 66, 0
14, 46560, End_track
15, 0, Start_track
15, 0, MIDI_port, 0
15, 0, Title_t, "Bass"
15, 0, Program_c, 14, 52
15, 540, Note_on_c, 14, 50, 84
15, 581, Note_on_c, 14, 50, 0
15, 600, Note_on_c, 14, 62, 84
15, 641, Note_on_c, 14, 62, 0
15, 660, Note_on_c, 14, 50, 84
15, 690, Note_on_c, 14, 50, 0
15, 690, Note_on_c, 14, 52, 84
15, 720, Note_on_c, 14, 52, 0
15, 720, Note_on_c, 14, 54, 84
15, 761, Note_on_c, 14, 54, 0
15, 780, Note_on_c, 14, 57, 84
15, 821, Note_on_c, 14, 57, 0
15, 840, Note_on_c, 14, 61, 84
15, 881, Note_on_c, 14, 61, 0
15, 900, Note_on_c, 14, 57, 84
15, 941, Note_on_c, 14, 57, 0
15, 1260, Note_on_c, 14, 45, 84
15, 1301, Note_on_c, 14, 45, 0
15, 1320, Note_on_c, 14, 57, 84
15, 1361, Note_on_c, 14, 57, 0
15, 1380, Note_on_c, 14, 45, 84
15, 1410, Note_on_c, 14, 45, 0
15, 1410, Note_on_c, 14, 47, 84
15, 1440, Note_on_c, 14, 47, 0
15, 1440, Note_on_c, 14, 49, 84
15, 1481, Note_on_c, 14, 49, 0
15, 1500, Note_on_c, 14, 45, 84
15, 1541, Note_on_c, 14, 45, 0
15, 1560, Note_on_c, 14, 50, 84
15, 1601, Note_on_c, 14, 50, 0
15, 1620, Note_on_c, 14, 62, 84
15, 1661, Note_on_c, 14, 62, 0
15, 1680, Note_on_c, 14, 57, 84
15, 1721, Note_on_c, 14, 57, 0
15, 1740, Note_on_c, 14, 54, 84
15, 1781, Note_on_c, 14, 54, 0
15, 1800, Note_on_c, 14, 50, 84
15, 1841, Note_on_c, 14, 50, 0
15, 1860, Note_on_c, 14, 54, 84
15, 1901, Note_on_c, 14, 54, 0
15, 1920, Note_on_c, 14, 47, 84
15, 1961, Note_on_c, 14, 47, 0
15, 1980, Note_on_c, 14, 59, 84
15, 2021, Note_on_c, 14, 59, 0
15, 2040, Note_on_c, 14, 54, 84
15, 2081, Note_on_c, 14, 54, 0
15, 2100, Note_on_c, 14, 50, 84
15, 2141, Note_on_c, 14, 50, 0
15, 2160, Note_on_c, 14, 47, 84
15, 2201, Note_on_c, 14, 47, 0
15, 2220, Note_on_c, 14, 50, 84
15, 2261, Note_on_c, 14, 50, 0
15, 2280, Note_on_c, 14, 42, 84
15, 2321, Note_on_c, 14, 42, 0
15, 2340, Note_on_c, 14, 54, 84
15, 2381, Note_on_c, 14, 54, 0
15, 2400, Note_on_c, 14, 50, 84
15, 2441, Note_on_c, 14, 50, 0
15, 2460, Note_on_c, 14, 45, 84
15, 2501, Note_on_c, 14, 45, 0
15, 2520, Note_on_c, 14, 54, 84
15, 2561, Note_on_c, 14, 54, 0
15, 2580, Note_on_c, 14, 50, 84
15, 2621, Note_on_c, 14, 50, 0
15, 2640, Note_on_c, 14, 57, 84
15, 2655, Note_on_c, 14, 57, 0
15, 2655, Note_on_c, 14, 56, 84
15, 2670, Note_on_c, 14, 56, 0
15, 2670, Note_on_c, 14, 57, 84
15, 2685, Note_on_c, 14, 57, 0
15, 2685, Note_on_c, 14, 56, 84
15, 2700, Note_on_c, 14, 56, 0
15, 2700, Note_on_c, 14, 57, 84
15, 2715, Note_on_c, 14, 57, 0
15, 2715, Note_on_c, 14, 56, 84
15, 2730, Note_on_c, 14, 56, 0
15, 2730, Note_on_c, 14, 57, 84
15, 2745, Note_on_c, 14, 57, 0
15, 2745, Note_on_c, 14, 56, 84
15, 2760, Note_on_c, 14, 56, 0
15, 2760, Note_on_c, 14, 57, 84
15, 2775, Note_on_c, 14, 57, 0
15, 2775, Note_on_c, 14, 56, 84
15, 2790, Note_on_c, 14, 56, 0
15, 2790, Note_on_c, 14, 57, 84
15, 2805, Note_on_c, 14, 57, 0
15, 2805, Note_on_c, 14, 56, 84
15, 2820, Note_on_c, 14, 56, 0
15, 2820, Note_on_c, 14, 57, 84
15, 2835, Note_on_c, 14, 57, 0
15, 2835, Note_on_c, 14, 56, 84
15, 2850, Note_on_c, 14, 56, 0
15, 2850, Note_on_c, 14, 57, 84
15, 2865, Note_on_c, 14, 57, 0
15, 2865, Note_on_c, 14, 56, 84
15, 2880, Note_on_c, 14, 56, 0
15, 2880, Note_on_c, 14, 57, 84
15, 2895, Note_on_c, 14, 57, 0
15, 2895, Note_on_c, 14, 56, 84
15, 2910, Note_on_c, 14, 56, 0
15, 2910, Note_on_c, 14, 57, 84
15, 2925, Note_on_c, 14, 57, 0
15, 2925, Note_on_c, 14, 56, 84
15, 2940, Note_on_c, 14, 56, 0
15, 2940, Note_on_c, 14, 57, 84
15, 2955, Note_on_c, 14, 57, 0
15, 2955, Note_on_c, 14, 56, 84
15, 2970, Note_on_c, 14, 56, 0
15, 2970, Note_on_c, 14, 57, 84
15, 2985, Note_on_c, 14, 57, 0
15, 2985, Note_on_c, 14, 56, 84
15, 3000, Note_on_c, 14, 56, 0
15, 3000, Note_on_c, 14, 57, 84
15, 3041, Note_on_c, 14, 57, 0
15, 3060, Note_on_c, 14, 52, 84
15, 3101, Note_on_c, 14, 52, 0
15, 3120, Note_on_c, 14, 61, 84
15, 3161, Note_on_c, 14, 61, 0
15, 3180, Note_on_c, 14, 57, 84
15, 3221, Note_on_c, 14, 57, 0
15, 3240, Note_on_c, 14, 59, 84
15, 3281, Note_on_c, 14, 59, 0
15, 3300, Note_on_c, 14, 61, 84
15, 3330, Note_on_c, 14, 61, 0
15, 3330, Note_on_c, 14, 62, 84
15, 3360, Note_on_c, 14, 62, 0
15, 3360, Note_on_c, 14, 61, 84
15, 3401, Note_on_c, 14, 61, 0
15, 3420, Note_on_c, 14, 57, 84
15, 3461, Note_on_c, 14, 57, 0
15, 3480, Note_on_c, 14, 57, 84
15, 3521, Note_on_c, 14, 57, 0
15, 3540, Note_on_c, 14, 45, 84
15, 3570, Note_on_c, 14, 45, 0
15, 3570, Note_on_c, 14, 47, 84
15, 3600, Note_on_c, 14, 47, 0
15, 3600, Note_on_c, 14, 49, 84
15, 3641, Note_on_c, 14, 49, 0
15, 3660, Note_on_c, 14, 52, 84
15, 3701, Note_on_c, 14, 52, 0
15, 3720, Note_on_c, 14, 56, 84
15, 3761, Note_on_c, 14, 56, 0
15, 3780, Note_on_c, 14, 52, 84
15, 3821, Note_on_c, 14, 52, 0
15, 4140, Note_on_c, 14, 52, 84
15, 4181, Note_on_c, 14, 52, 0
15, 4200, Note_on_c, 14, 64, 84
15, 4241, Note_on_c, 14, 64, 0
15, 4260, Note_on_c, 14, 52, 84
15, 4290, Note_on_c, 14, 52, 0
15, 4290, Note_on_c, 14, 54, 84
15, 4320, Note_on_c, 14, 54, 0
15, 4320, Note_on_c, 14, 56, 84
15, 4361, Note_on_c, 14, 56, 0
15, 4380, Note_on_c, 14, 52, 84
15, 4421, Note_on_c, 14, 52, 0
15, 4440, Note_on_c, 14, 45, 84
15, 4481, Note_on_c, 14, 45, 0
15, 4500, Note_on_c, 14, 57, 84
15, 4541, Note_on_c, 14, 57, 0
15, 4560, Note_on_c, 14, 52, 84
15, 4601, Note_on_c, 14, 52, 0
15, 4620, Note_on_c, 14, 49, 84
15, 4661, Note_on_c, 14, 49, 0
15, 4680, Note_on_c, 14, 45, 84
15, 4721, Note_on_c, 14, 45, 0
15, 4740, Note_on_c, 14, 49, 84
15, 4781, Note_on_c, 14, 49, 0
15, 4800, Note_on_c, 14, 42, 84
15, 4841, Note_on_c, 14, 42, 0
15, 4860, Note_on_c, 14, 54, 84
15, 4901, Note_on_c, 14, 54, 0
15, 4920, Note_on_c, 14, 49, 84
15, 4961, Note_on_c, 14, 49, 0
15, 4980, Note_on_c, 14, 57, 84
15, 5021, Note_on_c, 14, 57, 0
15, 5040, Note_on_c, 14, 54, 84
15, 5081, Note_on_c, 14, 54, 0
15, 5100, Note_on_c, 14, 57, 84
15, 5141, Note_on_c, 14, 57, 0
15, 5160, Note_on_c, 14, 49, 84
15, 5201, Note_on_c, 14, 49, 0
15, 5220, Note_on_c, 14, 61, 84
15, 5261, Note_on_c, 14, 61, 0
15, 5280, Note_on_c, 14, 57, 84
15, 5321, Note_on_c, 14, 57, 0
15, 5340, Note_on_c, 14, 52, 84
15, 5381, Note_on_c, 14, 52, 0
15, 5400, Note_on_c, 14, 49, 84
15, 5441, Note_on_c, 14, 49, 0
15, 5460, Note_on_c, 14, 52, 84
15, 5501, Note_on_c, 14, 52, 0
15, 5520, Note_on_c, 14, 51, 84
15, 5561, Note_on_c, 14, 51, 0
15, 5580, Note_on_c, 14, 63, 84
15, 5621, Note_on_c, 14, 63, 0
15, 5640, Note_on_c, 14, 59, 84
15, 5681, Note_on_c, 14, 59, 0
15, 5700, Note_on_c, 14, 54, 84
15, 5741, Note_on_c, 14, 54, 0
15, 5760, Note_on_c, 14, 51, 84
15, 5801, Note_on_c, 14, 51, 0
15, 5820, Note_on_c, 14, 47, 84
15, 5861, Note_on_c, 14, 47, 0
15, 5880, Note_on_c, 14, 52, 60
15, 5921, Note_on_c, 14, 52, 0
15, 5940, Note_on_c, 14, 52, 61
15, 5981, Note_on_c, 14, 52, 0
15, 6000, Note_on_c, 14, 52, 62
15, 6041, Note_on_c, 14, 52, 0
15, 6060, Note_on_c, 14, 52, 63
15, 6101, Note_on_c, 14, 52, 0
15, 6120, Note_on_c, 14, 52, 64
15, 6161, Note_on_c, 14, 52, 0
15, 6180, Note_on_c, 14, 52, 65
15, 6221, Note_on_c, 14, 52, 0
15, 6240, Note_on_c, 14, 53, 66
15, 6360, Note_on_c, 14, 53, 0
15, 6660, Note_on_c, 14, 54, 73
15, 6701, Note_on_c, 14, 54, 0
15, 6720, Note_on_c, 14, 54, 74
15, 6761, Note_on_c, 14, 54, 0
15, 6780, Note_on_c, 14, 54, 75
15, 6821, Note_on_c, 14, 54, 0
15, 6840, Note_on_c, 14, 54, 76
15, 6881, Note_on_c, 14, 54, 0
15, 6900, Note_on_c, 14, 54, 77
15, 6941, Note_on_c, 14, 54, 0
15, 6960, Note_on_c, 14, 49, 78
15, 7080, Note_on_c, 14, 49, 0
15, 7380, Note_on_c, 14, 50, 71
15, 7421, Note_on_c, 14, 50, 0
15, 7440, Note_on_c, 14, 50, 72
15, 7481, Note_on_c, 14, 50, 0
15, 7500, Note_on_c, 14, 47, 73
15, 7541, Note_on_c, 14, 47, 0
15, 7560, Note_on_c, 14, 49, 73
15, 7601, Note_on_c, 14, 49, 0
15, 7620, Note_on_c, 14, 50, 74
15, 7661, Note_on_c, 14, 50, 0
15, 7680, Note_on_c, 14, 52, 75
15, 7710, Note_on_c, 14, 52, 0
15, 7710, Note_on_c, 14, 50, 75
15, 7740, Note_on_c, 14, 50, 0
15, 7740, Note_on_c, 14, 52, 76
15, 7770, Note_on_c, 14, 52, 0
15, 7770, Note_on_c, 14, 50, 76
15, 7800, Note_on_c, 14, 50, 0
15, 7800, Note_on_c, 14, 52, 77
15, 7841, Note_on_c, 14, 52, 0
15, 7860, Note_on_c, 14, 49, 78
15, 7901, Note_on_c, 14, 49, 0
15, 7920, Note_on_c, 14, 50, 78
15, 7961, Note_on_c, 14, 50, 0
15, 7980, Note_on_c, 14, 52, 79
15, 8021, Note_on_c, 14, 52, 0
15, 8040, Note_on_c, 14, 54, 80
15, 8070, Note_on_c, 14, 54, 0
15, 8070, Note_on_c, 14, 52, 80
15, 8100, Note_on_c, 14, 52, 0
15, 8100, Note_on_c, 14, 54, 81
15, 8130, Note_on_c, 14, 54, 0
15, 8130, Note_on_c, 14, 52, 81
15, 8160, Note_on_c, 14, 52, 0
15, 8160, Note_on_c, 14, 54, 82
15, 8201, Note_on_c, 14, 54, 0
15, 8220, Note_on_c, 14, 50, 83
15, 8261, Note_on_c, 14, 50, 0
15, 8280, Note_on_c, 14, 52, 83
15, 8321, Note_on_c, 14, 52, 0
15, 8340, Note_on_c, 14, 54, 84
15, 8381, Note_on_c, 14, 54, 0
15, 8400, Note_on_c, 14, 56, 85
15, 8430, Note_on_c, 14, 56, 0
15, 8430, Note_on_c, 14, 54, 85
15, 8460, Note_on_c, 14, 54, 0
15, 8460, Note_on_c, 14, 56, 86
15, 8490, Note_on_c, 14, 56, 0
15, 8490, Note_on_c, 14, 54, 86
15, 8520, Note_on_c, 14, 54, 0
15, 8520, Note_on_c, 14, 56, 87
15, 8561, Note_on_c, 14, 56, 0
15, 8580, Note_on_c, 14, 52, 88
15, 8621, Note_on_c, 14, 52, 0
15, 8640, Note_on_c, 14, 54, 88
15, 8681, Note_on_c, 14, 54, 0
15, 8700, Note_on_c, 14, 56, 89
15, 8741, Note_on_c, 14, 56, 0
15, 8760, Note_on_c, 14, 57, 84
15, 9240, Note_on_c, 14, 57, 0
15, 9240, Note_on_c, 14, 55, 84
15, 9281, Note_on_c, 14, 55, 0
15, 9300, Note_on_c, 14, 55, 84
15, 9341, Note_on_c, 14, 55, 0
15, 9360, Note_on_c, 14, 55, 84
15, 9401, Note_on_c, 14, 55, 0
15, 9420, Note_on_c, 14, 55, 84
15, 9461, Note_on_c, 14, 55, 0
15, 9480, Note_on_c, 14, 54, 84
15, 9840, Note_on_c, 14, 54, 0
15, 9840, Note_on_c, 14, 52, 84
15, 10200, Note_on_c, 14, 52, 0
15, 10200, Note_on_c, 14, 51, 84
15, 10560, Note_on_c, 14, 51, 0
15, 10560, Note_on_c, 14, 50, 84
15, 10800, Note_on_c, 14, 50, 0
15, 10860, Note_on_c, 14, 50, 84
15, 10901, Note_on_c, 14, 50, 0
15, 10920, Note_on_c, 14, 49, 84
15, 10961, Note_on_c, 14, 49, 0
15, 10980, Note_on_c, 14, 57, 84
15, 11010, Note_on_c, 14, 57, 0
15, 11010, Note_on_c, 14, 59, 84
15, 11040, Note_on_c, 14, 59, 0
15, 11040, Note_on_c, 14, 57, 84
15, 11081, Note_on_c, 14, 57, 0
15, 11100, Note_on_c, 14, 56, 84
15, 11141, Note_on_c, 14, 56, 0
15, 11160, Note_on_c, 14, 54, 84
15, 11201, Note_on_c, 14, 54, 0
15, 11220, Note_on_c, 14, 52, 84
15, 11261, Note_on_c, 14, 52, 0
15, 11280, Note_on_c, 14, 50, 84
15, 11310, Note_on_c, 14, 50, 0
15, 11310, Note_on_c, 14, 54, 84
15, 11340, Note_on_c, 14, 54, 0
15, 11340, Note_on_c, 14, 56, 84
15, 11370, Note_on_c, 14, 56, 0
15, 11370, Note_on_c, 14, 57, 84
15, 11400, Note_on_c, 14, 57, 0
15, 11400, Note_on_c, 14, 56, 84
15, 11441, Note_on_c, 14, 56, 0
15, 11460, Note_on_c, 14, 54, 84
15, 11501, Note_on_c, 14, 54, 0
15, 11520, Note_on_c, 14, 52, 84
15, 11561, Note_on_c, 14, 52, 0
15, 11580, Note_on_c, 14, 50, 84
15, 11621, Note_on_c, 14, 50, 0
15, 11640, Note_on_c, 14, 49, 84
15, 11670, Note_on_c, 14, 49, 0
15, 11670, Note_on_c, 14, 52, 84
15, 11700, Note_on_c, 14, 52, 0
15, 11700, Note_on_c, 14, 54, 84
15, 11730, Note_on_c, 14, 54, 0
15, 11730, Note_on_c, 14, 56, 84
15, 11760, Note_on_c, 14, 56, 0
15, 11760, Note_on_c, 14, 54, 84
15, 11801, Note_on_c, 14, 54, 0
15, 11820, Note_on_c, 14, 52, 84
15, 11861, Note_on_c, 14, 52, 0
15, 11880, Note_on_c, 14, 50, 84
15, 11921, Note_on_c, 14, 50, 0
15, 11940, Note_on_c, 14, 49, 84
15, 11981, Note_on_c, 14, 49, 0
15, 12000, Note_on_c, 14, 47, 84
15, 12030, Note_on_c, 14, 47, 0
15, 12030, Note_on_c, 14, 49, 84
15, 12060, Note_on_c, 14, 49, 0
15, 12060, Note_on_c, 14, 50, 84
15, 12090, Note_on_c, 14, 50, 0
15, 12090, Note_on_c, 14, 49, 84
15, 12120, Note_on_c, 14, 49, 0
15, 12120, Note_on_c, 14, 47, 84
15, 12161, Note_on_c, 14, 47, 0
15, 12180, Note_on_c, 14, 59, 84
15, 12210, Note_on_c, 14, 59, 0
15, 12210, Note_on_c, 14, 57, 84
15, 12240, Note_on_c, 14, 57, 0
15, 12240, Note_on_c, 14, 56, 84
15, 12281, Note_on_c, 14, 56, 0
15, 12300, Note_on_c, 14, 56, 84
15, 12330, Note_on_c, 14, 56, 0
15, 12330, Note_on_c, 14, 54, 84
15, 12360, Note_on_c, 14, 54, 0
15, 12360, Note_on_c, 14, 52, 84
15, 12401, Note_on_c, 14, 52, 0
15, 12420, Note_on_c, 14, 52, 85
15, 12450, Note_on_c, 14, 52, 0
15, 12450, Note_on_c, 14, 54, 86
15, 12480, Note_on_c, 14, 54, 0
15, 12480, Note_on_c, 14, 56, 87
15, 12521, Note_on_c, 14, 56, 0
15, 12540, Note_on_c, 14, 52, 88
15, 12581, Note_on_c, 14, 52, 0
15, 12600, Note_on_c, 14, 57, 89
15, 12641, Note_on_c, 14, 57, 0
15, 12660, Note_on_c, 14, 52, 91
15, 12701, Note_on_c, 14, 52, 0
15, 12720, Note_on_c, 14, 54, 92
15, 12761, Note_on_c, 14, 54, 0
15, 12780, Note_on_c, 14, 52, 93
15, 12810, Note_on_c, 14, 52, 0
15, 12810, Note_on_c, 14, 50, 94
15, 12840, Note_on_c, 14, 50, 0
15, 12840, Note_on_c, 14, 49, 95
15, 12881, Note_on_c, 14, 49, 0
15, 12900, Note_on_c, 14, 50, 96
15, 12941, Note_on_c, 14, 50, 0
15, 12960, Note_on_c, 14, 52, 97
15, 13080, Note_on_c, 14, 52, 0
15, 13080, Note_on_c, 14, 45, 100
15, 13200, Note_on_c, 14, 45, 0
15, 19380, Note_on_c, 14, 57, 79
15, 19421, Note_on_c, 14, 57, 0
15, 19440, Note_on_c, 14, 62, 79
15, 19481, Note_on_c, 14, 62, 0
15, 19500, Note_on_c, 14, 57, 80
15, 19541, Note_on_c, 14, 57, 0
15, 19560, Note_on_c, 14, 54, 80
15, 19590, Note_on_c, 14, 54, 0
15, 19590, Note_on_c, 14, 52, 81
15, 19620, Note_on_c, 14, 52, 0
15, 19620, Note_on_c, 14, 54, 81
15, 19650, Note_on_c, 14, 54, 0
15, 19650, Note_on_c, 14, 55, 81
15, 19680, Note_on_c, 14, 55, 0
15, 19680, Note_on_c, 14, 57, 81
15, 19721, Note_on_c, 14, 57, 0
15, 19740, Note_on_c, 14, 54, 82
15, 19781, Note_on_c, 14, 54, 0
15, 19800, Note_on_c, 14, 57, 83
15, 19841, Note_on_c, 14, 57, 0
15, 19860, Note_on_c, 14, 54, 83
15, 19901, Note_on_c, 14, 54, 0
15, 19920, Note_on_c, 14, 50, 84
15, 19961, Note_on_c, 14, 50, 0
15, 19980, Note_on_c, 14, 54, 84
15, 20010, Note_on_c, 14, 54, 0
15, 20010, Note_on_c, 14, 52, 85
15, 20040, Note_on_c, 14, 52, 0
15, 20040, Note_on_c, 14, 50, 85
15, 20081, Note_on_c, 14, 50, 0
15, 20100, Note_on_c, 14, 54, 85
15, 20141, Note_on_c, 14, 54, 0
15, 20160, Note_on_c, 14, 55, 86
15, 20201, Note_on_c, 14, 55, 0
15, 20220, Note_on_c, 14, 59, 87
15, 20261, Note_on_c, 14, 59, 0
15, 20280, Note_on_c, 14, 52, 87
15, 20321, Note_on_c, 14, 52, 0
15, 20340, Note_on_c, 14, 55, 88
15, 20370, Note_on_c, 14, 55, 0
15, 20370, Note_on_c, 14, 54, 88
15, 20400, Note_on_c, 14, 54, 0
15, 20400, Note_on_c, 14, 52, 88
15, 20441, Note_on_c, 14, 52, 0
15, 20460, Note_on_c, 14, 55, 89
15, 20501, Note_on_c, 14, 55, 0
15, 20520, Note_on_c, 14, 57, 89
15, 20561, Note_on_c, 14, 57, 0
15, 20580, Note_on_c, 14, 60, 90
15, 20621, Note_on_c, 14, 60, 0
15, 20640, Note_on_c, 14, 54, 91
15, 20681, Note_on_c, 14, 54, 0
15, 20700, Note_on_c, 14, 57, 91
15, 20730, Note_on_c, 14, 57, 0
15, 20730, Note_on_c, 14, 55, 91
15, 20760, Note_on_c, 14, 55, 0
15, 20760, Note_on_c, 14, 54, 92
15, 20801, Note_on_c, 14, 54, 0
15, 20820, Note_on_c, 14, 57, 92
15, 20861, Note_on_c, 14, 57, 0
15, 20880, Note_on_c, 14, 50, 93
15, 20921, Note_on_c, 14, 50, 0
15, 20940, Note_on_c, 14, 62, 93
15, 20981, Note_on_c, 14, 62, 0
15, 21000, Note_on_c, 14, 59, 94
15, 21041, Note_on_c, 14, 59, 0
15, 21060, Note_on_c, 14, 57, 94
15, 21090, Note_on_c, 14, 57, 0
15, 21090, Note_on_c, 14, 59, 94
15, 21120, Note_on_c, 14, 59, 0
15, 21120, Note_on_c, 14, 55, 94
15, 21161, Note_on_c, 14, 55, 0
15, 21270, Note_on_c, 14, 49, 95
15, 21300, Note_on_c, 14, 49, 0
15, 21300, Note_on_c, 14, 50, 95
15, 21330, Note_on_c, 14, 50, 0
15, 21330, Note_on_c, 14, 52, 95
15, 21360, Note_on_c, 14, 52, 0
15, 21360, Note_on_c, 14, 54, 95
15, 21390, Note_on_c, 14, 54, 0
15, 21390, Note_on_c, 14, 52, 95
15, 21420, Note_on_c, 14, 52, 0
15, 21420, Note_on_c, 14, 50, 95
15, 21450, Note_on_c, 14, 50, 0
15, 21450, Note_on_c, 14, 52, 96
15, 21480, Note_on_c, 14, 52, 0
15, 21480, Note_on_c, 14, 54, 96
15, 21510, Note_on_c, 14, 54, 0
15, 21510, Note_on_c, 14, 56, 96
15, 21540, Note_on_c, 14, 56, 0
15, 21540, Note_on_c, 14, 57, 96
15, 21570, Note_on_c, 14, 57, 0
15, 21570, Note_on_c, 14, 54, 96
15, 21600, Note_on_c, 14, 54, 0
15, 21600, Note_on_c, 14, 59, 96
15, 21630, Note_on_c, 14, 59, 0
15, 21630, Note_on_c, 14, 57, 96
15, 21660, Note_on_c, 14, 57, 0
15, 21660, Note_on_c, 14, 56, 96
15, 21690, Note_on_c, 14, 56, 0
15, 21690, Note_on_c, 14, 54, 96
15, 21720, Note_on_c, 14, 54, 0
15, 21720, Note_on_c, 14, 56, 96
15, 21750, Note_on_c, 14, 56, 0
15, 21750, Note_on_c, 14, 54, 97
15, 21780, Note_on_c, 14, 54, 0
15, 21780, Note_on_c, 14, 52, 97
15, 21810, Note_on_c, 14, 52, 0
15, 21810, Note_on_c, 14, 54, 97
15, 21840, Note_on_c, 14, 54, 0
15, 21840, Note_on_c, 14, 56, 97
15, 21870, Note_on_c, 14, 56, 0
15, 21870, Note_on_c, 14, 58, 97
15, 21900, Note_on_c, 14, 58, 0
15, 21900, Note_on_c, 14, 59, 97
15, 21930, Note_on_c, 14, 59, 0
15, 21930, Note_on_c, 14, 58, 97
15, 21960, Note_on_c, 14, 58, 0
15, 21960, Note_on_c, 14, 61, 97
15, 21990, Note_on_c, 14, 61, 0
15, 21990, Note_on_c, 14, 59, 97
15, 22020, Note_on_c, 14, 59, 0
15, 22020, Note_on_c, 14, 58, 97
15, 22050, Note_on_c, 14, 58, 0
15, 22050, Note_on_c, 14, 56, 98
15, 22080, Note_on_c, 14, 56, 0
15, 22080, Note_on_c, 14, 58, 98
15, 22110, Note_on_c, 14, 58, 0
15, 22110, Note_on_c, 14, 56, 98
15, 22140, Note_on_c, 14, 56, 0
15, 22140, Note_on_c, 14, 54, 98
15, 22170, Note_on_c, 14, 54, 0
15, 22170, Note_on_c, 14, 56, 98
15, 22200, Note_on_c, 14, 56, 0
15, 22200, Note_on_c, 14, 58, 98
15, 22230, Note_on_c, 14, 58, 0
15, 22230, Note_on_c, 14, 59, 98
15, 22260, Note_on_c, 14, 59, 0
15, 22260, Note_on_c, 14, 61, 98
15, 22290, Note_on_c, 14, 61, 0
15, 22290, Note_on_c, 14, 58, 98
15, 22320, Note_on_c, 14, 58, 0
15, 22320, Note_on_c, 14, 62, 98
15, 22350, Note_on_c, 14, 62, 0
15, 22350, Note_on_c, 14, 61, 99
15, 22380, Note_on_c, 14, 61, 0
15, 22380, Note_on_c, 14, 59, 99
15, 22410, Note_on_c, 14, 59, 0
15, 22410, Note_on_c, 14, 58, 99
15, 22440, Note_on_c, 14, 58, 0
15, 22440, Note_on_c, 14, 59, 99
15, 22481, Note_on_c, 14, 59, 0
15, 22500, Note_on_c, 14, 47, 99
15, 22530, Note_on_c, 14, 47, 0
15, 22530, Note_on_c, 14, 49, 99
15, 22560, Note_on_c, 14, 49, 0
15, 22560, Note_on_c, 14, 50, 99
15, 22601, Note_on_c, 14, 50, 0
15, 22620, Note_on_c, 14, 52, 99
15, 22661, Note_on_c, 14, 52, 0
15, 22680, Note_on_c, 14, 54, 100
15, 22800, Note_on_c, 14, 54, 0
15, 22800, Note_on_c, 14, 47, 100
15, 22920, Note_on_c, 14, 47, 0
15, 24240, Note_on_c, 14, 59, 90
15, 24480, Note_on_c, 14, 59, 0
15, 24480, Note_on_c, 14, 47, 90
15, 24600, Note_on_c, 14, 47, 0
15, 24660, Note_on_c, 14, 52, 90
15, 24701, Note_on_c, 14, 52, 0
15, 24720, Note_on_c, 14, 52, 90
15, 24761, Note_on_c, 14, 52, 0
15, 24780, Note_on_c, 14, 52, 90
15, 24821, Note_on_c, 14, 52, 0
15, 24840, Note_on_c, 14, 52, 90
15, 24881, Note_on_c, 14, 52, 0
15, 24900, Note_on_c, 14, 52, 90
15, 24941, Note_on_c, 14, 52, 0
15, 24960, Note_on_c, 14, 45, 90
15, 25080, Note_on_c, 14, 45, 0
15, 25680, Note_on_c, 14, 51, 90
15, 25920, Note_on_c, 14, 51, 0
15, 25920, Note_on_c, 14, 51, 90
15, 26040, Note_on_c, 14, 51, 0
15, 26100, Note_on_c, 14, 53, 90
15, 26141, Note_on_c, 14, 53, 0
15, 26160, Note_on_c, 14, 53, 90
15, 26201, Note_on_c, 14, 53, 0
15, 26220, Note_on_c, 14, 53, 90
15, 26250, Note_on_c, 14, 53, 0
15, 26250, Note_on_c, 14, 53, 90
15, 26280, Note_on_c, 14, 53, 0
15, 26280, Note_on_c, 14, 53, 90
15, 26321, Note_on_c, 14, 53, 0
15, 26340, Note_on_c, 14, 53, 90
15, 26381, Note_on_c, 14, 53, 0
15, 26400, Note_on_c, 14, 54, 90
15, 26441, Note_on_c, 14, 54, 0
15, 26460, Note_on_c, 14, 54, 90
15, 26501, Note_on_c, 14, 54, 0
15, 26700, Note_on_c, 14, 54, 90
15, 26741, Note_on_c, 14, 54, 0
15, 26760, Note_on_c, 14, 52, 90
15, 26801, Note_on_c, 14, 52, 0
15, 26820, Note_on_c, 14, 52, 90
15, 26850, Note_on_c, 14, 52, 0
15, 26850, Note_on_c, 14, 52, 90
15, 26880, Note_on_c, 14, 52, 0
15, 26880, Note_on_c, 14, 52, 90
15, 27060, Note_on_c, 14, 52, 0
15, 27060, Note_on_c, 14, 52, 90
15, 27101, Note_on_c, 14, 52, 0
15, 27120, Note_on_c, 14, 51, 90
15, 27480, Note_on_c, 14, 51, 0
15, 27480, Note_on_c, 14, 49, 93
15, 27840, Note_on_c, 14, 49, 0
15, 27840, Note_on_c, 14, 48, 95
15, 28200, Note_on_c, 14, 48, 0
15, 28200, Note_on_c, 14, 47, 98
15, 28440, Note_on_c, 14, 47, 0
15, 28500, Note_on_c, 14, 59, 100
15, 28541, Note_on_c, 14, 59, 0
15, 28560, Note_on_c, 14, 57, 95
15, 28601, Note_on_c, 14, 57, 0
15, 28620, Note_on_c, 14, 53, 96
15, 28650, Note_on_c, 14, 53, 0
15, 28650, Note_on_c, 14, 53, 96
15, 28680, Note_on_c, 14, 53, 0
15, 28680, Note_on_c, 14, 54, 97
15, 28721, Note_on_c, 14, 54, 0
15, 28740, Note_on_c, 14, 45, 98
15, 28781, Note_on_c, 14, 45, 0
15, 28800, Note_on_c, 14, 47, 98
15, 28841, Note_on_c, 14, 47, 0
15, 28860, Note_on_c, 14, 49, 99
15, 28901, Note_on_c, 14, 49, 0
15, 28920, Note_on_c, 14, 42, 100
15, 29040, Note_on_c, 14, 42, 0
15, 30660, Note_on_c, 14, 58, 70
15, 30701, Note_on_c, 14, 58, 0
15, 30720, Note_on_c, 14, 59, 70
15, 30761, Note_on_c, 14, 59, 0
15, 30780, Note_on_c, 14, 54, 70
15, 30821, Note_on_c, 14, 54, 0
15, 30840, Note_on_c, 14, 50, 70
15, 30870, Note_on_c, 14, 50, 0
15, 30870, Note_on_c, 14, 52, 70
15, 30900, Note_on_c, 14, 52, 0
15, 30900, Note_on_c, 14, 54, 70
15, 30941, Note_on_c, 14, 54, 0
15, 30960, Note_on_c, 14, 47, 70
15, 31001, Note_on_c, 14, 47, 0
15, 31260, Note_on_c, 14, 47, 72
15, 31301, Note_on_c, 14, 47, 0
15, 31320, Note_on_c, 14, 59, 72
15, 31470, Note_on_c, 14, 59, 0
15, 31470, Note_on_c, 14, 57, 74
15, 31500, Note_on_c, 14, 57, 0
15, 31500, Note_on_c, 14, 55, 74
15, 31530, Note_on_c, 14, 55, 0
15, 31530, Note_on_c, 14, 54, 74
15, 31560, Note_on_c, 14, 54, 0
15, 31560, Note_on_c, 14, 52, 75
15, 31601, Note_on_c, 14, 52, 0
15, 31620, Note_on_c, 14, 52, 75
15, 31650, Note_on_c, 14, 52, 0
15, 31650, Note_on_c, 14, 52, 76
15, 31680, Note_on_c, 14, 52, 0
15, 31680, Note_on_c, 14, 57, 76
15, 31721, Note_on_c, 14, 57, 0
15, 31740, Note_on_c, 14, 57, 76
15, 31781, Note_on_c, 14, 57, 0
15, 31800, Note_on_c, 14, 57, 77
15, 31830, Note_on_c, 14, 57, 0
15, 31830, Note_on_c, 14, 56, 77
15, 31860, Note_on_c, 14, 56, 0
15, 31860, Note_on_c, 14, 54, 78
15, 31890, Note_on_c, 14, 54, 0
15, 31890, Note_on_c, 14, 56, 78
15, 31920, Note_on_c, 14, 56, 0
15, 31920, Note_on_c, 14, 57, 78
15, 31961, Note_on_c, 14, 57, 0
15, 31980, Note_on_c, 14, 54, 79
15, 32021, Note_on_c, 14, 54, 0
15, 32040, Note_on_c, 14, 56, 79
15, 32081, Note_on_c, 14, 56, 0
15, 32100, Note_on_c, 14, 52, 80
15, 32141, Note_on_c, 14, 52, 0
15, 32160, Note_on_c, 14, 62, 81
15, 32280, Note_on_c, 14, 62, 0
15, 32280, Note_on_c, 14, 62, 82
15, 32400, Note_on_c, 14, 62, 0
15, 32460, Note_on_c, 14, 59, 83
15, 32501, Note_on_c, 14, 59, 0
15, 32520, Note_on_c, 14, 64, 84
15, 32561, Note_on_c, 14, 64, 0
15, 32580, Note_on_c, 14, 59, 84
15, 32621, Note_on_c, 14, 59, 0
15, 32640, Note_on_c, 14, 56, 84
15, 32670, Note_on_c, 14, 56, 0
15, 32670, Note_on_c, 14, 57, 84
15, 32700, Note_on_c, 14, 57, 0
15, 32700, Note_on_c, 14, 59, 84
15, 32741, Note_on_c, 14, 59, 0
15, 32760, Note_on_c, 14, 52, 84
15, 32801, Note_on_c, 14, 52, 0
15, 34260, Note_on_c, 14, 56, 84
15, 34301, Note_on_c, 14, 56, 0
15, 34320, Note_on_c, 14, 57, 84
15, 34361, Note_on_c, 14, 57, 0
15, 34380, Note_on_c, 14, 52, 84
15, 34421, Note_on_c, 14, 52, 0
15, 34440, Note_on_c, 14, 49, 84
15, 34470, Note_on_c, 14, 49, 0
15, 34470, Note_on_c, 14, 50, 84
15, 34500, Note_on_c, 14, 50, 0
15, 34500, Note_on_c, 14, 52, 84
15, 34541, Note_on_c, 14, 52, 0
15, 34560, Note_on_c, 14, 45, 84
15, 34601, Note_on_c, 14, 45, 0
15, 35940, Note_on_c, 14, 57, 84
15, 35981, Note_on_c, 14, 57, 0
15, 36000, Note_on_c, 14, 62, 84
15, 36041, Note_on_c, 14, 62, 0
15, 36060, Note_on_c, 14, 57, 84
15, 36101, Note_on_c, 14, 57, 0
15, 36120, Note_on_c, 14, 54, 84
15, 36150, Note_on_c, 14, 54, 0
15, 36150, Note_on_c, 14, 52, 84
15, 36180, Note_on_c, 14, 52, 0
15, 36180, Note_on_c, 14, 54, 84
15, 36210, Note_on_c, 14, 54, 0
15, 36210, Note_on_c, 14, 55, 84
15, 36240, Note_on_c, 14, 55, 0
15, 36240, Note_on_c, 14, 57, 84
15, 36281, Note_on_c, 14, 57, 0
15, 36300, Note_on_c, 14, 54, 84
15, 36341, Note_on_c, 14, 54, 0
15, 36360, Note_on_c, 14, 57, 85
15, 36401, Note_on_c, 14, 57, 0
15, 36420, Note_on_c, 14, 54, 85
15, 36461, Note_on_c, 14, 54, 0
15, 36480, Note_on_c, 14, 50, 85
15, 36521, Note_on_c, 14, 50, 0
15, 36540, Note_on_c, 14, 54, 85
15, 36570, Note_on_c, 14, 54, 0
15, 36570, Note_on_c, 14, 52, 85
15, 36600, Note_on_c, 14, 52, 0
15, 36600, Note_on_c, 14, 50, 85
15, 36641, Note_on_c, 14, 50, 0
15, 36660, Note_on_c, 14, 54, 85
15, 36701, Note_on_c, 14, 54, 0
15, 36720, Note_on_c, 14, 55, 85
15, 36761, Note_on_c, 14, 55, 0
15, 36780, Note_on_c, 14, 59, 86
15, 36821, Note_on_c, 14, 59, 0
15, 36840, Note_on_c, 14, 52, 86
15, 36881, Note_on_c, 14, 52, 0
15, 36900, Note_on_c, 14, 55, 86
15, 36930, Note_on_c, 14, 55, 0
15, 36930, Note_on_c, 14, 54, 86
15, 36960, Note_on_c, 14, 54, 0
15, 36960, Note_on_c, 14, 52, 86
15, 37001, Note_on_c, 14, 52, 0
15, 37020, Note_on_c, 14, 55, 86
15, 37061, Note_on_c, 14, 55, 0
15, 37080, Note_on_c, 14, 57, 86
15, 37121, Note_on_c, 14, 57, 0
15, 37140, Note_on_c, 14, 60, 86
15, 37181, Note_on_c, 14, 60, 0
15, 37200, Note_on_c, 14, 54, 87
15, 37241, Note_on_c, 14, 54, 0
15, 37260, Note_on_c, 14, 57, 87
15, 37290, Note_on_c, 14, 57, 0
15, 37290, Note_on_c, 14, 55, 87
15, 37320, Note_on_c, 14, 55, 0
15, 37320, Note_on_c, 14, 54, 87
15, 37361, Note_on_c, 14, 54, 0
15, 37380, Note_on_c, 14, 57, 87
15, 37421, Note_on_c, 14, 57, 0
15, 37440, Note_on_c, 14, 50, 87
15, 37481, Note_on_c, 14, 50, 0
15, 37500, Note_on_c, 14, 62, 87
15, 37541, Note_on_c, 14, 62, 0
15, 37560, Note_on_c, 14, 59, 87
15, 37601, Note_on_c, 14, 59, 0
15, 37620, Note_on_c, 14, 59, 88
15, 37650, Note_on_c, 14, 59, 0
15, 37650, Note_on_c, 14, 57, 88
15, 37680, Note_on_c, 14, 57, 0
15, 37680, Note_on_c, 14, 55, 88
15, 37721, Note_on_c, 14, 55, 0
15, 37740, Note_on_c, 14, 59, 88
15, 37781, Note_on_c, 14, 59, 0
15, 37800, Note_on_c, 14, 55, 88
15, 37841, Note_on_c, 14, 55, 0
15, 37860, Note_on_c, 14, 59, 88
15, 37901, Note_on_c, 14, 59, 0
15, 37920, Note_on_c, 14, 52, 88
15, 37950, Note_on_c, 14, 52, 0
15, 37950, Note_on_c, 14, 50, 88
15, 37980, Note_on_c, 14, 50, 0
15, 37980, Note_on_c, 14, 49, 88
15, 38010, Note_on_c, 14, 49, 0
15, 38010, Note_on_c, 14, 50, 89
15, 38040, Note_on_c, 14, 50, 0
15, 38040, Note_on_c, 14, 52, 89
15, 38070, Note_on_c, 14, 52, 0
15, 38070, Note_on_c, 14, 54, 89
15, 38100, Note_on_c, 14, 54, 0
15, 38100, Note_on_c, 14, 55, 89
15, 38130, Note_on_c, 14, 55, 0
15, 38130, Note_on_c, 14, 54, 89
15, 38160, Note_on_c, 14, 54, 0
15, 38160, Note_on_c, 14, 57, 89
15, 38190, Note_on_c, 14, 57, 0
15, 38190, Note_on_c, 14, 55, 89
15, 38220, Note_on_c, 14, 55, 0
15, 38220, Note_on_c, 14, 54, 89
15, 38250, Note_on_c, 14, 54, 0
15, 38250, Note_on_c, 14, 52, 89
15, 38280, Note_on_c, 14, 52, 0
15, 38280, Note_on_c, 14, 54, 89
15, 38321, Note_on_c, 14, 54, 0
15, 38340, Note_on_c, 14, 54, 89
15, 38370, Note_on_c, 14, 54, 0
15, 38370, Note_on_c, 14, 52, 89
15, 38400, Note_on_c, 14, 52, 0
15, 38400, Note_on_c, 14, 54, 89
15, 38441, Note_on_c, 14, 54, 0
15, 38460, Note_on_c, 14, 57, 90
15, 38501, Note_on_c, 14, 57, 0
15, 38520, Note_on_c, 14, 54, 90
15, 38561, Note_on_c, 14, 54, 0
15, 38580, Note_on_c, 14, 57, 90
15, 38621, Note_on_c, 14, 57, 0
15, 38640, Note_on_c, 14, 51, 90
15, 38670, Note_on_c, 14, 51, 0
15, 38670, Note_on_c, 14, 49, 90
15, 38700, Note_on_c, 14, 49, 0
15, 38700, Note_on_c, 14, 47, 91
15, 38730, Note_on_c, 14, 47, 0
15, 38730, Note_on_c, 14, 49, 91
15, 38760, Note_on_c, 14, 49, 0
15, 38760, Note_on_c, 14, 51, 91
15, 38790, Note_on_c, 14, 51, 0
15, 38790, Note_on_c, 14, 52, 91
15, 38820, Note_on_c, 14, 52, 0
15, 38820, Note_on_c, 14, 54, 92
15, 38850, Note_on_c, 14, 54, 0
15, 38850, Note_on_c, 14, 52, 92
15, 38880, Note_on_c, 14, 52, 0
15, 38880, Note_on_c, 14, 55, 92
15, 38910, Note_on_c, 14, 55, 0
15, 38910, Note_on_c, 14, 54, 93
15, 38940, Note_on_c, 14, 54, 0
15, 38940, Note_on_c, 14, 52, 93
15, 38970, Note_on_c, 14, 52, 0
15, 38970, Note_on_c, 14, 51, 93
15, 39000, Note_on_c, 14, 51, 0
15, 39000, Note_on_c, 14, 52, 93
15, 39041, Note_on_c, 14, 52, 0
15, 39060, Note_on_c, 14, 52, 94
15, 39101, Note_on_c, 14, 52, 0
15, 39180, Note_on_c, 14, 52, 95
15, 39221, Note_on_c, 14, 52, 0
15, 39240, Note_on_c, 14, 54, 96
15, 39281, Note_on_c, 14, 54, 0
15, 39300, Note_on_c, 14, 56, 96
15, 39341, Note_on_c, 14, 56, 0
15, 39360, Note_on_c, 14, 57, 97
15, 39401, Note_on_c, 14, 57, 0
15, 39420, Note_on_c, 14, 45, 97
15, 39461, Note_on_c, 14, 45, 0
15, 39540, Note_on_c, 14, 57, 98
15, 39581, Note_on_c, 14, 57, 0
15, 39600, Note_on_c, 14, 59, 99
15, 39641, Note_on_c, 14, 59, 0
15, 39660, Note_on_c, 14, 61, 99
15, 39701, Note_on_c, 14, 61, 0
15, 39720, Note_on_c, 14, 62, 95
15, 39840, Note_on_c, 14, 62, 0
15, 39840, Note_on_c, 14, 50, 95
15, 39881, Note_on_c, 14, 50, 0
15, 40140, Note_on_c, 14, 48, 95
15, 40181, Note_on_c, 14, 48, 0
15, 40200, Note_on_c, 14, 60, 95
15, 40241, Note_on_c, 14, 60, 0
15, 40260, Note_on_c, 14, 60, 95
15, 40290, Note_on_c, 14, 60, 0
15, 40290, Note_on_c, 14, 60, 95
15, 40320, Note_on_c, 14, 60, 0
15, 40320, Note_on_c, 14, 60, 95
15, 40361, Note_on_c, 14, 60, 0
15, 40380, Note_on_c, 14, 60, 95
15, 40421, Note_on_c, 14, 60, 0
15, 40440, Note_on_c, 14, 59, 95
15, 40800, Note_on_c, 14, 59, 0
15, 40800, Note_on_c, 14, 57, 98
15, 41160, Note_on_c, 14, 57, 0
15, 41160, Note_on_c, 14, 56, 102
15, 41520, Note_on_c, 14, 56, 0
15, 41520, Note_on_c, 14, 55, 105
15, 41760, Note_on_c, 14, 55, 0
15, 41820, Note_on_c, 14, 55, 92
15, 41861, Note_on_c, 14, 55, 0
15, 41880, Note_on_c, 14, 54, 90
15, 41910, Note_on_c, 14, 54, 0
15, 41910, Note_on_c, 14, 55, 90
15, 41940, Note_on_c, 14, 55, 0
15, 41940, Note_on_c, 14, 57, 91
15, 41970, Note_on_c, 14, 57, 0
15, 41970, Note_on_c, 14, 55, 91
15, 42000, Note_on_c, 14, 55, 0
15, 42000, Note_on_c, 14, 54, 91
15, 42041, Note_on_c, 14, 54, 0
15, 42060, Note_on_c, 14, 50, 92
15, 42101, Note_on_c, 14, 50, 0
15, 42120, Note_on_c, 14, 52, 92
15, 42161, Note_on_c, 14, 52, 0
15, 42180, Note_on_c, 14, 54, 93
15, 42221, Note_on_c, 14, 54, 0
15, 42240, Note_on_c, 14, 55, 93
15, 42270, Note_on_c, 14, 55, 0
15, 42270, Note_on_c, 14, 57, 93
15, 42300, Note_on_c, 14, 57, 0
15, 42300, Note_on_c, 14, 59, 94
15, 42330, Note_on_c, 14, 59, 0
15, 42330, Note_on_c, 14, 57, 94
15, 42360, Note_on_c, 14, 57, 0
15, 42360, Note_on_c, 14, 55, 94
15, 42401, Note_on_c, 14, 55, 0
15, 42420, Note_on_c, 14, 52, 95
15, 42461, Note_on_c, 14, 52, 0
15, 42480, Note_on_c, 14, 54, 95
15, 42521, Note_on_c, 14, 54, 0
15, 42540, Note_on_c, 14, 55, 96
15, 42581, Note_on_c, 14, 55, 0
15, 42600, Note_on_c, 14, 57, 96
15, 42630, Note_on_c, 14, 57, 0
15, 42630, Note_on_c, 14, 59, 96
15, 42660, Note_on_c, 14, 59, 0
15, 42660, Note_on_c, 14, 61, 97
15, 42690, Note_on_c, 14, 61, 0
15, 42690, Note_on_c, 14, 59, 97
15, 42720, Note_on_c, 14, 59, 0
15, 42720, Note_on_c, 14, 57, 97
15, 42761, Note_on_c, 14, 57, 0
15, 42780, Note_on_c, 14, 54, 98
15, 42821, Note_on_c, 14, 54, 0
15, 42840, Note_on_c, 14, 55, 98
15, 42881, Note_on_c, 14, 55, 0
15, 42900, Note_on_c, 14, 57, 99
15, 42941, Note_on_c, 14, 57, 0
15, 42960, Note_on_c, 14, 59, 99
15, 42990, Note_on_c, 14, 59, 0
15, 42990, Note_on_c, 14, 61, 99
15, 43020, Note_on_c, 14, 61, 0
15, 43020, Note_on_c, 14, 62, 100
15, 43050, Note_on_c, 14, 62, 0
15, 43050, Note_on_c, 14, 61, 100
15, 43080, Note_on_c, 14, 61, 0
15, 43080, Note_on_c, 14, 59, 100
15, 43121, Note_on_c, 14, 59, 0
15, 43140, Note_on_c, 14, 55, 101
15, 43181, Note_on_c, 14, 55, 0
15, 43200, Note_on_c, 14, 57, 101
15, 43241, Note_on_c, 14, 57, 0
15, 43260, Note_on_c, 14, 59, 102
15, 43301, Note_on_c, 14, 59, 0
15, 43320, Note_on_c, 14, 61, 102
15, 43350, Note_on_c, 14, 61, 0
15, 43350, Note_on_c, 14, 62, 102
15, 43380, Note_on_c, 14, 62, 0
15, 43380, Note_on_c, 14, 64, 103
15, 43410, Note_on_c, 14, 64, 0
15, 43410, Note_on_c, 14, 62, 103
15, 43440, Note_on_c, 14, 62, 0
15, 43440, Note_on_c, 14, 61, 103
15, 43481, Note_on_c, 14, 61, 0
15, 43500, Note_on_c, 14, 57, 104
15, 43541, Note_on_c, 14, 57, 0
15, 43560, Note_on_c, 14, 59, 104
15, 43601, Note_on_c, 14, 59, 0
15, 43620, Note_on_c, 14, 61, 105
15, 43661, Note_on_c, 14, 61, 0
15, 43680, Note_on_c, 14, 62, 100
15, 43721, Note_on_c, 14, 62, 0
15, 43740, Note_on_c, 14, 62, 101
15, 43770, Note_on_c, 14, 62, 0
15, 43770, Note_on_c, 14, 64, 101
15, 43800, Note_on_c, 14, 64, 0
15, 43800, Note_on_c, 14, 62, 101
15, 43841, Note_on_c, 14, 62, 0
15, 43860, Note_on_c, 14, 61, 102
15, 43901, Note_on_c, 14, 61, 0
15, 43920, Note_on_c, 14, 59, 102
15, 43961, Note_on_c, 14, 59, 0
15, 43980, Note_on_c, 14, 57, 103
15, 44021, Note_on_c, 14, 57, 0
15, 44040, Note_on_c, 14, 55, 103
15, 44070, Note_on_c, 14, 55, 0
15, 44070, Note_on_c, 14, 59, 104
15, 44100, Note_on_c, 14, 59, 0
15, 44100, Note_on_c, 14, 61, 104
15, 44130, Note_on_c, 14, 61, 0
15, 44130, Note_on_c, 14, 62, 104
15, 44160, Note_on_c, 14, 62, 0
15, 44160, Note_on_c, 14, 61, 104
15, 44201, Note_on_c, 14, 61, 0
15, 44220, Note_on_c, 14, 59, 105
15, 44261, Note_on_c, 14, 59, 0
15, 44280, Note_on_c, 14, 57, 106
15, 44321, Note_on_c, 14, 57, 0
15, 44340, Note_on_c, 14, 55, 106
15, 44381, Note_on_c, 14, 55, 0
15, 44400, Note_on_c, 14, 54, 107
15, 44430, Note_on_c, 14, 54, 0
15, 44430, Note_on_c, 14, 57, 107
15, 44460, Note_on_c, 14, 57, 0
15, 44460, Note_on_c, 14, 59, 107
15, 44490, Note_on_c, 14, 59, 0
15, 44490, Note_on_c, 14, 61, 108
15, 44520, Note_on_c, 14, 61, 0
15, 44520, Note_on_c, 14, 59, 108
15, 44561, Note_on_c, 14, 59, 0
15, 44580, Note_on_c, 14, 57, 108
15, 44621, Note_on_c, 14, 57, 0
15, 44640, Note_on_c, 14, 55, 109
15, 44681, Note_on_c, 14, 55, 0
15, 44700, Note_on_c, 14, 54, 109
15, 44741, Note_on_c, 14, 54, 0
15, 44760, Note_on_c, 14, 52, 110
15, 44790, Note_on_c, 14, 52, 0
15, 44790, Note_on_c, 14, 54, 110
15, 44820, Note_on_c, 14, 54, 0
15, 44820, Note_on_c, 14, 55, 111
15, 44850, Note_on_c, 14, 55, 0
15, 44850, Note_on_c, 14, 54, 111
15, 44880, Note_on_c, 14, 54, 0
15, 44880, Note_on_c, 14, 52, 111
15, 44921, Note_on_c, 14, 52, 0
15, 44940, Note_on_c, 14, 50, 112
15, 44981, Note_on_c, 14, 50, 0
15, 45000, Note_on_c, 14, 49, 112
15, 45041, Note_on_c, 14, 49, 0
15, 45060, Note_on_c, 14, 47, 113
15, 45101, Note_on_c, 14, 47, 0
15, 45120, Note_on_c, 14, 45, 113
15, 45161, Note_on_c, 14, 45, 0
15, 45180, Note_on_c, 14, 57, 114
15, 45221, Note_on_c, 14, 57, 0
15, 45300, Note_on_c, 14, 57, 115
15, 45341, Note_on_c, 14, 57, 0
15, 45360, Note_on_c, 14, 62, 116
15, 45401, Note_on_c, 14, 62, 0
15, 45420, Note_on_c, 14, 57, 116
15, 45450, Note_on_c, 14, 57, 0
15, 45450, Note_on_c, 14, 57, 116
15, 45480, Note_on_c, 14, 57, 0
15, 45480, Note_on_c, 14, 59, 117
15, 45521, Note_on_c, 14, 59, 0
15, 45540, Note_on_c, 14, 57, 117
15, 45570, Note_on_c, 14, 57, 0
15, 45570, Note_on_c, 14, 55, 118
15, 45600, Note_on_c, 14, 55, 0
15, 45600, Note_on_c, 14, 54, 118
15, 45641, Note_on_c, 14, 54, 0
15, 45660, Note_on_c, 14, 55, 118
15, 45701, Note_on_c, 14, 55, 0
15, 45720, Note_on_c, 14, 57, 119
15, 45840, Note_on_c, 14, 57, 0
15, 45840, Note_on_c, 14, 50, 120
15, 46200, Note_on_c, 14, 50, 0
15, 46560, End_track
16, 0, Start_track
16, 0, MIDI_port, 0
16, 0, Title_t, "Organ"
16, 0, Program_c, 15, 19
16, 120, Control_c, 15, 7, 100
16, 120, Note_on_c, 15, 38, 64
16, 240, Note_on_c, 15, 38, 0
16, 540, Note_on_c, 15, 50, 64
16, 581, Note_on_c, 15, 50, 0
16, 600, Note_on_c, 15, 38, 64
16, 641, Note_on_c, 15, 38, 0
16, 660, Note_on_c, 15, 50, 64
16, 701, Note_on_c, 15, 50, 0
16, 720, Note_on_c, 15, 38, 64
16, 761, Note_on_c, 15, 38, 0
16, 780, Note_on_c, 15, 50, 64
16, 821, Note_on_c, 15, 50, 0
16, 840, Note_on_c, 15, 49, 64
16, 960, Note_on_c, 15, 49, 0
16, 1260, Note_on_c, 15, 57, 64
16, 1301, Note_on_c, 15, 57, 0
16, 1320, Note_on_c, 15, 45, 64
16, 1361, Note_on_c, 15, 45, 0
16, 1380, Note_on_c, 15, 57, 64
16, 1421, Note_on_c, 15, 57, 0
16, 1440, Note_on_c, 15, 45, 64
16, 1481, Note_on_c, 15, 45, 0
16, 1500, Note_on_c, 15, 57, 64
16, 1541, Note_on_c, 15, 57, 0
16, 1560, Note_on_c, 15, 50, 64
16, 1601, Note_on_c, 15, 50, 0
16, 1620, Note_on_c, 15, 62, 64
16, 1650, Note_on_c, 15, 62, 0
16, 1650, Note_on_c, 15, 57, 64
16, 1680, Note_on_c, 15, 57, 0
16, 1680, Note_on_c, 15, 57, 64
16, 1710, Note_on_c, 15, 57, 0
16, 1710, Note_on_c, 15, 54, 64
16, 1740, Note_on_c, 15, 54, 0
16, 1740, Note_on_c, 15, 54, 64
16, 1770, Note_on_c, 15, 54, 0
16, 1770, Note_on_c, 15, 50, 64
16, 1800, Note_on_c, 15, 50, 0
16, 1800, Note_on_c, 15, 50, 64
16, 1830, Note_on_c, 15, 50, 0
16, 1830, Note_on_c, 15, 54, 64
16, 1860, Note_on_c, 15, 54, 0
16, 1860, Note_on_c, 15, 54, 64
16, 1890, Note_on_c, 15, 54, 0
16, 1890, Note_on_c, 15, 50, 64
16, 1920, Note_on_c, 15, 50, 0
16, 1920, Note_on_c, 15, 47, 64
16, 1961, Note_on_c, 15, 47, 0
16, 1980, Note_on_c, 15, 59, 64
16, 2010, Note_on_c, 15, 59, 0
16, 2010, Note_on_c, 15, 54, 64
16, 2040, Note_on_c, 15, 54, 0
16, 2040, Note_on_c, 15, 54, 64
16, 2070, Note_on_c, 15, 54, 0
16, 2070, Note_on_c, 15, 50, 64
16, 2100, Note_on_c, 15, 50, 0
16, 2100, Note_on_c, 15, 50, 64
16, 2130, Note_on_c, 15, 50, 0
16, 2130, Note_on_c, 15, 47, 64
16, 2160, Note_on_c, 15, 47, 0
16, 2160, Note_on_c, 15, 47, 64
16, 2190, Note_on_c, 15, 47, 0
16, 2190, Note_on_c, 15, 50, 64
16, 2220, Note_on_c, 15, 50, 0
16, 2220, Note_on_c, 15, 50, 64
16, 2250, Note_on_c, 15, 50, 0
16, 2250, Note_on_c, 15, 47, 64
16, 2280, Note_on_c, 15, 47, 0
16, 2280, Note_on_c, 15, 42, 64
16, 2321, Note_on_c, 15, 42, 0
16, 2340, Note_on_c, 15, 54, 64
16, 2370, Note_on_c, 15, 54, 0
16, 2370, Note_on_c, 15, 50, 64
16, 2400, Note_on_c, 15, 50, 0
16, 2400, Note_on_c, 15, 50, 64
16, 2430, Note_on_c, 15, 50, 0
16, 2430, Note_on_c, 15, 45, 64
16, 2460, Note_on_c, 15, 45, 0
16, 2460, Note_on_c, 15, 45, 64
16, 2490, Note_on_c, 15, 45, 0
16, 2490, Note_on_c, 15, 42, 64
16, 2520, Note_on_c, 15, 42, 0
16, 2520, Note_on_c, 15, 42, 64
16, 2550, Note_on_c, 15, 42, 0
16, 2550, Note_on_c, 15, 45, 64
16, 2580, Note_on_c, 15, 45, 0
16, 2580, Note_on_c, 15, 45, 64
16, 2610, Note_on_c, 15, 45, 0
16, 2610, Note_on_c, 15, 42, 64
16, 2640, Note_on_c, 15, 42, 0
16, 2640, Note_on_c, 15, 44, 64
16, 2681, Note_on_c, 15, 44, 0
16, 2700, Note_on_c, 15, 56, 64
16, 2730, Note_on_c, 15, 56, 0
16, 2730, Note_on_c, 15, 52, 64
16, 2760, Note_on_c, 15, 52, 0
16, 2760, Note_on_c, 15, 52, 64
16, 2790, Note_on_c, 15, 52, 0
16, 2790, Note_on_c, 15, 47, 64
16, 2820, Note_on_c, 15, 47, 0
16, 2820, Note_on_c, 15, 47, 64
16, 2850, Note_on_c, 15, 47, 0
16, 2850, Note_on_c, 15, 44, 64
16, 2880, Note_on_c, 15, 44, 0
16, 2880, Note_on_c, 15, 44, 64
16, 2910, Note_on_c, 15, 44, 0
16, 2910, Note_on_c, 15, 47, 64
16, 2940, Note_on_c, 15, 47, 0
16, 2940, Note_on_c, 15, 47, 64
16, 2970, Note_on_c, 15, 47, 0
16, 2970, Note_on_c, 15, 44, 64
16, 3000, Note_on_c, 15, 44, 0
16, 3000, Note_on_c, 15, 45, 64
16, 3120, Note_on_c, 15, 45, 0
16, 3420, Note_on_c, 15, 57, 64
16, 3461, Note_on_c, 15, 57, 0
16, 3480, Note_on_c, 15, 45, 64
16, 3521, Note_on_c, 15, 45, 0
16, 3540, Note_on_c, 15, 57, 64
16, 3581, Note_on_c, 15, 57, 0
16, 3600, Note_on_c, 15, 45, 64
16, 3641, Note_on_c, 15, 45, 0
16, 3660, Note_on_c, 15, 57, 64
16, 3701, Note_on_c, 15, 57, 0
16, 3720, Note_on_c, 15, 56, 64
16, 3840, Note_on_c, 15, 56, 0
16, 4140, Note_on_c, 15, 52, 64
16, 4181, Note_on_c, 15, 52, 0
16, 4200, Note_on_c, 15, 40, 64
16, 4241, Note_on_c, 15, 40, 0
16, 4260, Note_on_c, 15, 52, 64
16, 4301, Note_on_c, 15, 52, 0
16, 4320, Note_on_c, 15, 40, 64
16, 4361, Note_on_c, 15, 40, 0
16, 4380, Note_on_c, 15, 52, 64
16, 4421, Note_on_c, 15, 52, 0
16, 4440, Note_on_c, 15, 45, 64
16, 4481, Note_on_c, 15, 45, 0
16, 4500, Note_on_c, 15, 57, 64
16, 4530, Note_on_c, 15, 57, 0
16, 4530, Note_on_c, 15, 52, 64
16, 4560, Note_on_c, 15, 52, 0
16, 4560, Note_on_c, 15, 52, 64
16, 4590, Note_on_c, 15, 52, 0
16, 4590, Note_on_c, 15, 49, 64
16, 4620, Note_on_c, 15, 49, 0
16, 4620, Note_on_c, 15, 49, 64
16, 4650, Note_on_c, 15, 49, 0
16, 4650, Note_on_c, 15, 45, 64
16, 4680, Note_on_c, 15, 45, 0
16, 4680, Note_on_c, 15, 45, 64
16, 4710, Note_on_c, 15, 45, 0
16, 4710, Note_on_c, 15, 49, 64
16, 4740, Note_on_c, 15, 49, 0
16, 4740, Note_on_c, 15, 49, 64
16, 4770, Note_on_c, 15, 49, 0
16, 4770, Note_on_c, 15, 45, 64
16, 4800, Note_on_c, 15, 45, 0
16, 4800, Note_on_c, 15, 42, 64
16, 4841, Note_on_c, 15, 42, 0
16, 4860, Note_on_c, 15, 54, 64
16, 4890, Note_on_c, 15, 54, 0
16, 4890, Note_on_c, 15, 49, 64
16, 4920, Note_on_c, 15, 49, 0
16, 4920, Note_on_c, 15, 49, 64
16, 4950, Note_on_c, 15, 49, 0
16, 4950, Note_on_c, 15, 45, 64
16, 4980, Note_on_c, 15, 45, 0
16, 4980, Note_on_c, 15, 45, 64
16, 5010, Note_on_c, 15, 45, 0
16, 5010, Note_on_c, 15, 42, 64
16, 5040, Note_on_c, 15, 42, 0
16, 5040, Note_on_c, 15, 42, 64
16, 5070, Note_on_c, 15, 42, 0
16, 5070, Note_on_c, 15, 45, 64
16, 5100, Note_on_c, 15, 45, 0
16, 5100, Note_on_c, 15, 45, 64
16, 5130, Note_on_c, 15, 45, 0
16, 5130, Note_on_c, 15, 42, 64
16, 5160, Note_on_c, 15, 42, 0
16, 5160, Note_on_c, 15, 37, 64
16, 5201, Note_on_c, 15, 37, 0
16, 5220, Note_on_c, 15, 49, 64
16, 5250, Note_on_c, 15, 49, 0
16, 5250, Note_on_c, 15, 45, 64
16, 5280, Note_on_c, 15, 45, 0
16, 5280, Note_on_c, 15, 45, 64
16, 5310, Note_on_c, 15, 45, 0
16, 5310, Note_on_c, 15, 40, 64
16, 5340, Note_on_c, 15, 40, 0
16, 5340, Note_on_c, 15, 40, 64
16, 5370, Note_on_c, 15, 40, 0
16, 5370, Note_on_c, 15, 37, 64
16, 5400, Note_on_c, 15, 37, 0
16, 5400, Note_on_c, 15, 37, 64
16, 5430, Note_on_c, 15, 37, 0
16, 5430, Note_on_c, 15, 40, 64
16, 5460, Note_on_c, 15, 40, 0
16, 5460, Note_on_c, 15, 40, 64
16, 5490, Note_on_c, 15, 40, 0
16, 5490, Note_on_c, 15, 37, 64
16, 5520, Note_on_c, 15, 37, 0
16, 5520, Note_on_c, 15, 39, 64
16, 5561, Note_on_c, 15, 39, 0
16, 5580, Note_on_c, 15, 51, 64
16, 5610, Note_on_c, 15, 51, 0
16, 5610, Note_on_c, 15, 47, 64
16, 5640, Note_on_c, 15, 47, 0
16, 5640, Note_on_c, 15, 47, 64
16, 5670, Note_on_c, 15, 47, 0
16, 5670, Note_on_c, 15, 42, 64
16, 5700, Note_on_c, 15, 42, 0
16, 5700, Note_on_c, 15, 42, 64
16, 5730, Note_on_c, 15, 42, 0
16, 5730, Note_on_c, 15, 39, 64
16, 5760, Note_on_c, 15, 39, 0
16, 5760, Note_on_c, 15, 39, 64
16, 5790, Note_on_c, 15, 39, 0
16, 5790, Note_on_c, 15, 42, 64
16, 5820, Note_on_c, 15, 42, 0
16, 5820, Note_on_c, 15, 42, 64
16, 5850, Note_on_c, 15, 42, 0
16, 5850, Note_on_c, 15, 39, 64
16, 5880, Note_on_c, 15, 39, 0
16, 5880, Note_on_c, 15, 40, 40
16, 6000, Note_on_c, 15, 40, 0
16, 6300, Note_on_c, 15, 53, 47
16, 6341, Note_on_c, 15, 53, 0
16, 6360, Note_on_c, 15, 41, 48
16, 6401, Note_on_c, 15, 41, 0
16, 6420, Note_on_c, 15, 53, 49
16, 6461, Note_on_c, 15, 53, 0
16, 6480, Note_on_c, 15, 41, 50
16, 6521, Note_on_c, 15, 41, 0
16, 6540, Note_on_c, 15, 53, 51
16, 6581, Note_on_c, 15, 53, 0
16, 6600, Note_on_c, 15, 42, 52
16, 6720, Note_on_c, 15, 42, 0
16, 7020, Note_on_c, 15, 57, 59
16, 7061, Note_on_c, 15, 57, 0
16, 7080, Note_on_c, 15, 45, 60
16, 7121, Note_on_c, 15, 45, 0
16, 7140, Note_on_c, 15, 57, 61
16, 7181, Note_on_c, 15, 57, 0
16, 7200, Note_on_c, 15, 45, 62
16, 7241, Note_on_c, 15, 45, 0
16, 7260, Note_on_c, 15, 57, 63
16, 7301, Note_on_c, 15, 57, 0
16, 7320, Note_on_c, 15, 38, 50
16, 7361, Note_on_c, 15, 38, 0
16, 7380, Note_on_c, 15, 50, 51
16, 7410, Note_on_c, 15, 50, 0
16, 7410, Note_on_c, 15, 49, 51
16, 7440, Note_on_c, 15, 49, 0
16, 7440, Note_on_c, 15, 50, 52
16, 7481, Note_on_c, 15, 50, 0
16, 7500, Note_on_c, 15, 47, 53
16, 7541, Note_on_c, 15, 47, 0
16, 7560, Note_on_c, 15, 49, 53
16, 7601, Note_on_c, 15, 49, 0
16, 7620, Note_on_c, 15, 50, 54
16, 7661, Note_on_c, 15, 50, 0
16, 7680, Note_on_c, 15, 40, 55
16, 7721, Note_on_c, 15, 40, 0
16, 7740, Note_on_c, 15, 52, 56
16, 7770, Note_on_c, 15, 52, 0
16, 7770, Note_on_c, 15, 50, 56
16, 7800, Note_on_c, 15, 50, 0
16, 7800, Note_on_c, 15, 52, 57
16, 7841, Note_on_c, 15, 52, 0
16, 7860, Note_on_c, 15, 49, 58
16, 7901, Note_on_c, 15, 49, 0
16, 7920, Note_on_c, 15, 50, 58
16, 7961, Note_on_c, 15, 50, 0
16, 7980, Note_on_c, 15, 52, 59
16, 8021, Note_on_c, 15, 52, 0
16, 8040, Note_on_c, 15, 42, 60
16, 8081, Note_on_c, 15, 42, 0
16, 8100, Note_on_c, 15, 54, 61
16, 8130, Note_on_c, 15, 54, 0
16, 8130, Note_on_c, 15, 52, 61
16, 8160, Note_on_c, 15, 52, 0
16, 8160, Note_on_c, 15, 54, 62
16, 8201, Note_on_c, 15, 54, 0
16, 8220, Note_on_c, 15, 50, 63
16, 8261, Note_on_c, 15, 50, 0
16, 8280, Note_on_c, 15, 52, 63
16, 8321, Note_on_c, 15, 52, 0
16, 8340, Note_on_c, 15, 54, 64
16, 8381, Note_on_c, 15, 54, 0
16, 8400, Note_on_c, 15, 44, 65
16, 8441, Note_on_c, 15, 44, 0
16, 8460, Note_on_c, 15, 56, 66
16, 8490, Note_on_c, 15, 56, 0
16, 8490, Note_on_c, 15, 54, 66
16, 8520, Note_on_c, 15, 54, 0
16, 8520, Note_on_c, 15, 56, 67
16, 8561, Note_on_c, 15, 56, 0
16, 8580, Note_on_c, 15, 52, 68
16, 8621, Note_on_c, 15, 52, 0
16, 8640, Note_on_c, 15, 54, 68
16, 8681, Note_on_c, 15, 54, 0
16, 8700, Note_on_c, 15, 56, 69
16, 8741, Note_on_c, 15, 56, 0
16, 8760, Note_on_c, 15, 57, 64
16, 8801, Note_on_c, 15, 57, 0
16, 8820, Note_on_c, 15, 45, 64
16, 8861, Note_on_c, 15, 45, 0
16, 8880, Note_on_c, 15, 45, 64
16, 8921, Note_on_c, 15, 45, 0
16, 8940, Note_on_c, 15, 45, 64
16, 8981, Note_on_c, 15, 45, 0
16, 9000, Note_on_c, 15, 45, 64
16, 9041, Note_on_c, 15, 45, 0
16, 9060, Note_on_c, 15, 45, 64
16, 9101, Note_on_c, 15, 45, 0
16, 9120, Note_on_c, 15, 55, 64
16, 9161, Note_on_c, 15, 55, 0
16, 9180, Note_on_c, 15, 43, 64
16, 9221, Note_on_c, 15, 43, 0
16, 9240, Note_on_c, 15, 43, 64
16, 9281, Note_on_c, 15, 43, 0
16, 9300, Note_on_c, 15, 43, 64
16, 9341, Note_on_c, 15, 43, 0
16, 9360, Note_on_c, 15, 43, 64
16, 9401, Note_on_c, 15, 43, 0
16, 9420, Note_on_c, 15, 43, 64
16, 9461, Note_on_c, 15, 43, 0
16, 9480, Note_on_c, 15, 54, 64
16, 9521, Note_on_c, 15, 54, 0
16, 9540, Note_on_c, 15, 42, 64
16, 9581, Note_on_c, 15, 42, 0
16, 9600, Note_on_c, 15, 42, 64
16, 9641, Note_on_c, 15, 42, 0
16, 9660, Note_on_c, 15, 42, 64
16, 9701, Note_on_c, 15, 42, 0
16, 9720, Note_on_c, 15, 42, 64
16, 9761, Note_on_c, 15, 42, 0
16, 9780, Note_on_c, 15, 42, 64
16, 9821, Note_on_c, 15, 42, 0
16, 9840, Note_on_c, 15, 52, 64
16, 9881, Note_on_c, 15, 52, 0
16, 9900, Note_on_c, 15, 40, 64
16, 9941, Note_on_c, 15, 40, 0
16, 9960, Note_on_c, 15, 40, 64
16, 10001, Note_on_c, 15, 40, 0
16, 10020, Note_on_c, 15, 40, 64
16, 10061, Note_on_c, 15, 40, 0
16, 10080, Note_on_c, 15, 40, 64
16, 10121, Note_on_c, 15, 40, 0
16, 10140, Note_on_c, 15, 40, 64
16, 10181, Note_on_c, 15, 40, 0
16, 10200, Note_on_c, 15, 51, 64
16, 10241, Note_on_c, 15, 51, 0
16, 10260, Note_on_c, 15, 39, 64
16, 10301, Note_on_c, 15, 39, 0
16, 10320, Note_on_c, 15, 39, 64
16, 10361, Note_on_c, 15, 39, 0
16, 10380, Note_on_c, 15, 39, 64
16, 10421, Note_on_c, 15, 39, 0
16, 10440, Note_on_c, 15, 39, 64
16, 10481, Note_on_c, 15, 39, 0
16, 10500, Note_on_c, 15, 39, 64
16, 10541, Note_on_c, 15, 39, 0
16, 10560, Note_on_c, 15, 50, 64
16, 10601, Note_on_c, 15, 50, 0
16, 10620, Note_on_c, 15, 38, 64
16, 10661, Note_on_c, 15, 38, 0
16, 10680, Note_on_c, 15, 38, 64
16, 10721, Note_on_c, 15, 38, 0
16, 10740, Note_on_c, 15, 38, 64
16, 10781, Note_on_c, 15, 38, 0
16, 10800, Note_on_c, 15, 38, 64
16, 10841, Note_on_c, 15, 38, 0
16, 10860, Note_on_c, 15, 38, 64
16, 10901, Note_on_c, 15, 38, 0
16, 10920, Note_on_c, 15, 37, 64
16, 10961, Note_on_c, 15, 37, 0
16, 10980, Note_on_c, 15, 57, 64
16, 11010, Note_on_c, 15, 57, 0
16, 11010, Note_on_c, 15, 59, 64
16, 11040, Note_on_c, 15, 59, 0
16, 11040, Note_on_c, 15, 57, 64
16, 11081, Note_on_c, 15, 57, 0
16, 11100, Note_on_c, 15, 56, 64
16, 11141, Note_on_c, 15, 56, 0
16, 11160, Note_on_c, 15, 54, 64
16, 11201, Note_on_c, 15, 54, 0
16, 11220, Note_on_c, 15, 52, 64
16, 11261, Note_on_c, 15, 52, 0
16, 11280, Note_on_c, 15, 50, 64
16, 11321, Note_on_c, 15, 50, 0
16, 11340, Note_on_c, 15, 56, 64
16, 11370, Note_on_c, 15, 56, 0
16, 11370, Note_on_c, 15, 57, 64
16, 11400, Note_on_c, 15, 57, 0
16, 11400, Note_on_c, 15, 56, 64
16, 11441, Note_on_c, 15, 56, 0
16, 11460, Note_on_c, 15, 54, 64
16, 11501, Note_on_c, 15, 54, 0
16, 11520, Note_on_c, 15, 52, 64
16, 11561, Note_on_c, 15, 52, 0
16, 11580, Note_on_c, 15, 50, 64
16, 11621, Note_on_c, 15, 50, 0
16, 11640, Note_on_c, 15, 49, 64
16, 11681, Note_on_c, 15, 49, 0
16, 11700, Note_on_c, 15, 54, 64
16, 11730, Note_on_c, 15, 54, 0
16, 11730, Note_on_c, 15, 56, 64
16, 11760, Note_on_c, 15, 56, 0
16, 11760, Note_on_c, 15, 54, 64
16, 11801, Note_on_c, 15, 54, 0
16, 11820, Note_on_c, 15, 52, 64
16, 11861, Note_on_c, 15, 52, 0
16, 11880, Note_on_c, 15, 50, 64
16, 11921, Note_on_c, 15, 50, 0
16, 11940, Note_on_c, 15, 49, 64
16, 11981, Note_on_c, 15, 49, 0
16, 12000, Note_on_c, 15, 47, 64
16, 12030, Note_on_c, 15, 47, 0
16, 12030, Note_on_c, 15, 49, 64
16, 12060, Note_on_c, 15, 49, 0
16, 12060, Note_on_c, 15, 50, 64
16, 12090, Note_on_c, 15, 50, 0
16, 12090, Note_on_c, 15, 49, 64
16, 12120, Note_on_c, 15, 49, 0
16, 12120, Note_on_c, 15, 47, 64
16, 12161, Note_on_c, 15, 47, 0
16, 12180, Note_on_c, 15, 45, 64
16, 12221, Note_on_c, 15, 45, 0
16, 12240, Note_on_c, 15, 44, 64
16, 12281, Note_on_c, 15, 44, 0
16, 12300, Note_on_c, 15, 42, 64
16, 12341, Note_on_c, 15, 42, 0
16, 12360, Note_on_c, 15, 40, 64
16, 12401, Note_on_c, 15, 40, 0
16, 12420, Note_on_c, 15, 42, 65
16, 12461, Note_on_c, 15, 42, 0
16, 12480, Note_on_c, 15, 44, 67
16, 12521, Note_on_c, 15, 44, 0
16, 12540, Note_on_c, 15, 40, 68
16, 12581, Note_on_c, 15, 40, 0
16, 12600, Note_on_c, 15, 45, 69
16, 12641, Note_on_c, 15, 45, 0
16, 12660, Note_on_c, 15, 52, 71
16, 12701, Note_on_c, 15, 52, 0
16, 12720, Note_on_c, 15, 54, 72
16, 12761, Note_on_c, 15, 54, 0
16, 12780, Note_on_c, 15, 52, 73
16, 12810, Note_on_c, 15, 52, 0
16, 12810, Note_on_c, 15, 50, 74
16, 12840, Note_on_c, 15, 50, 0
16, 12840, Note_on_c, 15, 49, 75
16, 12881, Note_on_c, 15, 49, 0
16, 12900, Note_on_c, 15, 50, 76
16, 12941, Note_on_c, 15, 50, 0
16, 12960, Note_on_c, 15, 52, 77
16, 13001, Note_on_c, 15, 52, 0
16, 13020, Note_on_c, 15, 40, 79
16, 13061, Note_on_c, 15, 40, 0
16, 13080, Note_on_c, 15, 57, 40
16, 13110, Note_on_c, 15, 57, 0
16, 13110, Note_on_c, 15, 52, 40
16, 13140, Note_on_c, 15, 52, 0
16, 13140, Note_on_c, 15, 54, 40
16, 13170, Note_on_c, 15, 54, 0
16, 13170, Note_on_c, 15, 56, 40
16, 13200, Note_on_c, 15, 56, 0
16, 13200, Note_on_c, 15, 57, 40
16, 13241, Note_on_c, 15, 57, 0
16, 13260, Note_on_c, 15, 52, 40
16, 13301, Note_on_c, 15, 52, 0
16, 13320, Note_on_c, 15, 49, 40
16, 13361, Note_on_c, 15, 49, 0
16, 13380, Note_on_c, 15, 52, 40
16, 13421, Note_on_c, 15, 52, 0
16, 13440, Note_on_c, 15, 45, 40
16, 13481, Note_on_c, 15, 45, 0
16, 13500, Note_on_c, 15, 57, 40
16, 13541, Note_on_c, 15, 57, 0
16, 13620, Note_on_c, 15, 57, 40
16, 13650, Note_on_c, 15, 57, 0
16, 13650, Note_on_c, 15, 59, 40
16, 13680, Note_on_c, 15, 59, 0
16, 13680, Note_on_c, 15, 61, 40
16, 13721, Note_on_c, 15, 61, 0
16, 13740, Note_on_c, 15, 57, 40
16, 13781, Note_on_c, 15, 57, 0
16, 13800, Note_on_c, 15, 54, 40
16, 13841, Note_on_c, 15, 54, 0
16, 13860, Note_on_c, 15, 42, 40
16, 13901, Note_on_c, 15, 42, 0
16, 13980, Note_on_c, 15, 57, 40
16, 14010, Note_on_c, 15, 57, 0
16, 14010, Note_on_c, 15, 55, 40
16, 14040, Note_on_c, 15, 55, 0
16, 14040, Note_on_c, 15, 54, 40
16, 14081, Note_on_c, 15, 54, 0
16, 14100, Note_on_c, 15, 50, 40
16, 14141, Note_on_c, 15, 50, 0
16, 14160, Note_on_c, 15, 55, 40
16, 14201, Note_on_c, 15, 55, 0
16, 14220, Note_on_c, 15, 43, 40
16, 14261, Note_on_c, 15, 43, 0
16, 14340, Note_on_c, 15, 59, 40
16, 14370, Note_on_c, 15, 59, 0
16, 14370, Note_on_c, 15, 57, 40
16, 14400, Note_on_c, 15, 57, 0
16, 14400, Note_on_c, 15, 55, 40
16, 14441, Note_on_c, 15, 55, 0
16, 14460, Note_on_c, 15, 52, 40
16, 14501, Note_on_c, 15, 52, 0
16, 14520, Note_on_c, 15, 57, 40
16, 14561, Note_on_c, 15, 57, 0
16, 14580, Note_on_c, 15, 45, 40
16, 14621, Note_on_c, 15, 45, 0
16, 14700, Note_on_c, 15, 57, 40
16, 14730, Note_on_c, 15, 57, 0
16, 14730, Note_on_c, 15, 59, 40
16, 14760, Note_on_c, 15, 59, 0
16, 14760, Note_on_c, 15, 61, 40
16, 14801, Note_on_c, 15, 61, 0
16, 14820, Note_on_c, 15, 57, 40
16, 14861, Note_on_c, 15, 57, 0
16, 14880, Note_on_c, 15, 62, 40
16, 14921, Note_on_c, 15, 62, 0
16, 14940, Note_on_c, 15, 57, 40
16, 14970, Note_on_c, 15, 57, 0
16, 14970, Note_on_c, 15, 55, 40
16, 15000, Note_on_c, 15, 55, 0
16, 15000, Note_on_c, 15, 54, 40
16, 15030, Note_on_c, 15, 54, 0
16, 15030, Note_on_c, 15, 55, 40
16, 15060, Note_on_c, 15, 55, 0
16, 15060, Note_on_c, 15, 57, 40
16, 15090, Note_on_c, 15, 57, 0
16, 15090, Note_on_c, 15, 55, 40
16, 15120, Note_on_c, 15, 55, 0
16, 15120, Note_on_c, 15, 54, 40
16, 15150, Note_on_c, 15, 54, 0
16, 15150, Note_on_c, 15, 52, 40
16, 15180, Note_on_c, 15, 52, 0
16, 15180, Note_on_c, 15, 50, 40
16, 15210, Note_on_c, 15, 50, 0
16, 15210, Note_on_c, 15, 49, 40
16, 15240, Note_on_c, 15, 49, 0
16, 15240, Note_on_c, 15, 50, 40
16, 15281, Note_on_c, 15, 50, 0
16, 15300, Note_on_c, 15, 38, 40
16, 15341, Note_on_c, 15, 38, 0
16, 15420, Note_on_c, 15, 54, 40
16, 15450, Note_on_c, 15, 54, 0
16, 15450, Note_on_c, 15, 52, 40
16, 15480, Note_on_c, 15, 52, 0
16, 15480, Note_on_c, 15, 50, 40
16, 15521, Note_on_c, 15, 50, 0
16, 15540, Note_on_c, 15, 54, 40
16, 15581, Note_on_c, 15, 54, 0
16, 15600, Note_on_c, 15, 47, 40
16, 15641, Note_on_c, 15, 47, 0
16, 15660, Note_on_c, 15, 52, 40
16, 15701, Note_on_c, 15, 52, 0
16, 15780, Note_on_c, 15, 52, 40
16, 15821, Note_on_c, 15, 52, 0
16, 15840, Note_on_c, 15, 57, 40
16, 15881, Note_on_c, 15, 57, 0
16, 15900, Note_on_c, 15, 45, 40
16, 15941, Note_on_c, 15, 45, 0
16, 15960, Note_on_c, 15, 50, 40
16, 16080, Note_on_c, 15, 50, 0
16, 16200, Note_on_c, 15, 47, 41
16, 16320, Note_on_c, 15, 47, 0
16, 16320, Note_on_c, 15, 52, 42
16, 16440, Note_on_c, 15, 52, 0
16, 16560, Note_on_c, 15, 56, 43
16, 16680, Note_on_c, 15, 56, 0
16, 16680, Note_on_c, 15, 57, 44
16, 16721, Note_on_c, 15, 57, 0
16, 16740, Note_on_c, 15, 45, 44
16, 16781, Note_on_c, 15, 45, 0
16, 16860, Note_on_c, 15, 54, 45
16, 16901, Note_on_c, 15, 54, 0
16, 16920, Note_on_c, 15, 47, 45
16, 16961, Note_on_c, 15, 47, 0
16, 16980, Note_on_c, 15, 50, 46
16, 17021, Note_on_c, 15, 50, 0
16, 17040, Note_on_c, 15, 52, 46
16, 17081, Note_on_c, 15, 52, 0
16, 17100, Note_on_c, 15, 40, 46
16, 17141, Note_on_c, 15, 40, 0
16, 17220, Note_on_c, 15, 50, 47
16, 17261, Note_on_c, 15, 50, 0
16, 17280, Note_on_c, 15, 49, 47
16, 17321, Note_on_c, 15, 49, 0
16, 17340, Note_on_c, 15, 45, 48
16, 17381, Note_on_c, 15, 45, 0
16, 17400, Note_on_c, 15, 50, 48
16, 17441, Note_on_c, 15, 50, 0
16, 17460, Note_on_c, 15, 38, 48
16, 17501, Note_on_c, 15, 38, 0
16, 17550, Note_on_c, 15, 50, 49
16, 17580, Note_on_c, 15, 50, 0
16, 17580, Note_on_c, 15, 49, 49
16, 17610, Note_on_c, 15, 49, 0
16, 17610, Note_on_c, 15, 47, 49
16, 17640, Note_on_c, 15, 47, 0
16, 17640, Note_on_c, 15, 49, 49
16, 17681, Note_on_c, 15, 49, 0
16, 17700, Note_on_c, 15, 52, 50
16, 17741, Note_on_c, 15, 52, 0
16, 17760, Note_on_c, 15, 45, 50
16, 17801, Note_on_c, 15, 45, 0
16, 17820, Note_on_c, 15, 57, 50
16, 17861, Note_on_c, 15, 57, 0
16, 17940, Note_on_c, 15, 45, 50
16, 17981, Note_on_c, 15, 45, 0
16, 18000, Note_on_c, 15, 57, 50
16, 18041, Note_on_c, 15, 57, 0
16, 18060, Note_on_c, 15, 55, 50
16, 18101, Note_on_c, 15, 55, 0
16, 18120, Note_on_c, 15, 54, 50
16, 18161, Note_on_c, 15, 54, 0
16, 18180, Note_on_c, 15, 42, 50
16, 18221, Note_on_c, 15, 42, 0
16, 18300, Note_on_c, 15, 45, 50
16, 18341, Note_on_c, 15, 45, 0
16, 18360, Note_on_c, 15, 50, 50
16, 18401, Note_on_c, 15, 50, 0
16, 18420, Note_on_c, 15, 47, 50
16, 18461, Note_on_c, 15, 47, 0
16, 18480, Note_on_c, 15, 43, 50
16, 18521, Note_on_c, 15, 43, 0
16, 18540, Note_on_c, 15, 55, 51
16, 18581, Note_on_c, 15, 55, 0
16, 18660, Note_on_c, 15, 42, 52
16, 18701, Note_on_c, 15, 42, 0
16, 18720, Note_on_c, 15, 40, 52
16, 18761, Note_on_c, 15, 40, 0
16, 18780, Note_on_c, 15, 52, 53
16, 18821, Note_on_c, 15, 52, 0
16, 18840, Note_on_c, 15, 45, 53
16, 18881, Note_on_c, 15, 45, 0
16, 18900, Note_on_c, 15, 57, 54
16, 18941, Note_on_c, 15, 57, 0
16, 19020, Note_on_c, 15, 47, 55
16, 19061, Note_on_c, 15, 47, 0
16, 19080, Note_on_c, 15, 49, 56
16, 19121, Note_on_c, 15, 49, 0
16, 19140, Note_on_c, 15, 45, 56
16, 19181, Note_on_c, 15, 45, 0
16, 19200, Note_on_c, 15, 50, 57
16, 19241, Note_on_c, 15, 50, 0
16, 19260, Note_on_c, 15, 38, 57
16, 19301, Note_on_c, 15, 38, 0
16, 19380, Note_on_c, 15, 45, 59
16, 19421, Note_on_c, 15, 45, 0
16, 19440, Note_on_c, 15, 50, 59
16, 19481, Note_on_c, 15, 50, 0
16, 19500, Note_on_c, 15, 45, 60
16, 19541, Note_on_c, 15, 45, 0
16, 19560, Note_on_c, 15, 42, 60
16, 19601, Note_on_c, 15, 42, 0
16, 19620, Note_on_c, 15, 54, 61
16, 19661, Note_on_c, 15, 54, 0
16, 19740, Note_on_c, 15, 42, 62
16, 19781, Note_on_c, 15, 42, 0
16, 19800, Note_on_c, 15, 45, 63
16, 19841, Note_on_c, 15, 45, 0
16, 19860, Note_on_c, 15, 42, 63
16, 19901, Note_on_c, 15, 42, 0
16, 19920, Note_on_c, 15, 38, 64
16, 19961, Note_on_c, 15, 38, 0
16, 19980, Note_on_c, 15, 50, 64
16, 20021, Note_on_c, 15, 50, 0
16, 20100, Note_on_c, 15, 42, 65
16, 20141, Note_on_c, 15, 42, 0
16, 20160, Note_on_c, 15, 43, 66
16, 20201, Note_on_c, 15, 43, 0
16, 20220, Note_on_c, 15, 47, 67
16, 20261, Note_on_c, 15, 47, 0
16, 20280, Note_on_c, 15, 40, 67
16, 20321, Note_on_c, 15, 40, 0
16, 20340, Note_on_c, 15, 52, 68
16, 20381, Note_on_c, 15, 52, 0
16, 20460, Note_on_c, 15, 43, 69
16, 20501, Note_on_c, 15, 43, 0
16, 20520, Note_on_c, 15, 45, 69
16, 20561, Note_on_c, 15, 45, 0
16, 20580, Note_on_c, 15, 48, 70
16, 20621, Note_on_c, 15, 48, 0
16, 20640, Note_on_c, 15, 42, 71
16, 20681, Note_on_c, 15, 42, 0
16, 20700, Note_on_c, 15, 54, 71
16, 20741, Note_on_c, 15, 54, 0
16, 20820, Note_on_c, 15, 45, 72
16, 20861, Note_on_c, 15, 45, 0
16, 20880, Note_on_c, 15, 38, 73
16, 20921, Note_on_c, 15, 38, 0
16, 20940, Note_on_c, 15, 50, 73
16, 20981, Note_on_c, 15, 50, 0
16, 21000, Note_on_c, 15, 47, 74
16, 21041, Note_on_c, 15, 47, 0
16, 21060, Note_on_c, 15, 45, 74
16, 21090, Note_on_c, 15, 45, 0
16, 21090, Note_on_c, 15, 47, 74
16, 21120, Note_on_c, 15, 47, 0
16, 21120, Note_on_c, 15, 43, 74
16, 21161, Note_on_c, 15, 43, 0
16, 21180, Note_on_c, 15, 55, 75
16, 21221, Note_on_c, 15, 55, 0
16, 21240, Note_on_c, 15, 49, 75
16, 21281, Note_on_c, 15, 49, 0
16, 21300, Note_on_c, 15, 52, 75
16, 21341, Note_on_c, 15, 52, 0
16, 21360, Note_on_c, 15, 54, 75
16, 21390, Note_on_c, 15, 54, 0
16, 21390, Note_on_c, 15, 52, 75
16, 21420, Note_on_c, 15, 52, 0
16, 21420, Note_on_c, 15, 50, 75
16, 21450, Note_on_c, 15, 50, 0
16, 21450, Note_on_c, 15, 52, 76
16, 21480, Note_on_c, 15, 52, 0
16, 21480, Note_on_c, 15, 54, 76
16, 21510, Note_on_c, 15, 54, 0
16, 21510, Note_on_c, 15, 56, 76
16, 21540, Note_on_c, 15, 56, 0
16, 21540, Note_on_c, 15, 57, 76
16, 21570, Note_on_c, 15, 57, 0
16, 21570, Note_on_c, 15, 54, 76
16, 21600, Note_on_c, 15, 54, 0
16, 21600, Note_on_c, 15, 59, 76
16, 21630, Note_on_c, 15, 59, 0
16, 21630, Note_on_c, 15, 57, 76
16, 21660, Note_on_c, 15, 57, 0
16, 21660, Note_on_c, 15, 56, 76
16, 21690, Note_on_c, 15, 56, 0
16, 21690, Note_on_c, 15, 54, 76
16, 21720, Note_on_c, 15, 54, 0
16, 21720, Note_on_c, 15, 56, 76
16, 21750, Note_on_c, 15, 56, 0
16, 21750, Note_on_c, 15, 54, 77
16, 21780, Note_on_c, 15, 54, 0
16, 21780, Note_on_c, 15, 52, 77
16, 21810, Note_on_c, 15, 52, 0
16, 21810, Note_on_c, 15, 54, 77
16, 21840, Note_on_c, 15, 54, 0
16, 21840, Note_on_c, 15, 56, 77
16, 21870, Note_on_c, 15, 56, 0
16, 21870, Note_on_c, 15, 58, 77
16, 21900, Note_on_c, 15, 58, 0
16, 21900, Note_on_c, 15, 59, 77
16, 21930, Note_on_c, 15, 59, 0
16, 21930, Note_on_c, 15, 58, 77
16, 21960, Note_on_c, 15, 58, 0
16, 21960, Note_on_c, 15, 61, 77
16, 21990, Note_on_c, 15, 61, 0
16, 21990, Note_on_c, 15, 59, 77
16, 22020, Note_on_c, 15, 59, 0
16, 22020, Note_on_c, 15, 58, 77
16, 22050, Note_on_c, 15, 58, 0
16, 22050, Note_on_c, 15, 56, 78
16, 22080, Note_on_c, 15, 56, 0
16, 22080, Note_on_c, 15, 58, 78
16, 22110, Note_on_c, 15, 58, 0
16, 22110, Note_on_c, 15, 56, 78
16, 22140, Note_on_c, 15, 56, 0
16, 22140, Note_on_c, 15, 54, 78
16, 22170, Note_on_c, 15, 54, 0
16, 22170, Note_on_c, 15, 56, 78
16, 22200, Note_on_c, 15, 56, 0
16, 22200, Note_on_c, 15, 58, 78
16, 22230, Note_on_c, 15, 58, 0
16, 22230, Note_on_c, 15, 59, 78
16, 22260, Note_on_c, 15, 59, 0
16, 22260, Note_on_c, 15, 61, 78
16, 22290, Note_on_c, 15, 61, 0
16, 22290, Note_on_c, 15, 58, 78
16, 22320, Note_on_c, 15, 58, 0
16, 22320, Note_on_c, 15, 62, 78
16, 22350, Note_on_c, 15, 62, 0
16, 22350, Note_on_c, 15, 61, 79
16, 22380, Note_on_c, 15, 61, 0
16, 22380, Note_on_c, 15, 59, 79
16, 22410, Note_on_c, 15, 59, 0
16, 22410, Note_on_c, 15, 58, 79
16, 22440, Note_on_c, 15, 58, 0
16, 22440, Note_on_c, 15, 59, 79
16, 22481, Note_on_c, 15, 59, 0
16, 22500, Note_on_c, 15, 47, 79
16, 22530, Note_on_c, 15, 47, 0
16, 22530, Note_on_c, 15, 49, 79
16, 22560, Note_on_c, 15, 49, 0
16, 22560, Note_on_c, 15, 50, 79
16, 22601, Note_on_c, 15, 50, 0
16, 22620, Note_on_c, 15, 52, 79
16, 22661, Note_on_c, 15, 52, 0
16, 22680, Note_on_c, 15, 54, 80
16, 22721, Note_on_c, 15, 54, 0
16, 22740, Note_on_c, 15, 42, 80
16, 22781, Note_on_c, 15, 42, 0
16, 22800, Note_on_c, 15, 47, 80
16, 22920, Note_on_c, 15, 47, 0
16, 23220, Note_on_c, 15, 59, 64
16, 23261, Note_on_c, 15, 59, 0
16, 23280, Note_on_c, 15, 47, 64
16, 23321, Note_on_c, 15, 47, 0
16, 23340, Note_on_c, 15, 59, 64
16, 23381, Note_on_c, 15, 59, 0
16, 23400, Note_on_c, 15, 47, 64
16, 23441, Note_on_c, 15, 47, 0
16, 23460, Note_on_c, 15, 59, 64
16, 23501, Note_on_c, 15, 59, 0
16, 23520, Note_on_c, 15, 58, 64
16, 23640, Note_on_c, 15, 58, 0
16, 23940, Note_on_c, 15, 54, 64
16, 23981, Note_on_c, 15, 54, 0
16, 24000, Note_on_c, 15, 42, 64
16, 24041, Note_on_c, 15, 42, 0
16, 24060, Note_on_c, 15, 54, 64
16, 24101, Note_on_c, 15, 54, 0
16, 24120, Note_on_c, 15, 42, 64
16, 24161, Note_on_c, 15, 42, 0
16, 24180, Note_on_c, 15, 54, 64
16, 24221, Note_on_c, 15, 54, 0
16, 24240, Note_on_c, 15, 47, 64
16, 24360, Note_on_c, 15, 47, 0
16, 24660, Note_on_c, 15, 52, 64
16, 24701, Note_on_c, 15, 52, 0
16, 24720, Note_on_c, 15, 40, 64
16, 24761, Note_on_c, 15, 40, 0
16, 24780, Note_on_c, 15, 52, 64
16, 24821, Note_on_c, 15, 52, 0
16, 24840, Note_on_c, 15, 40, 64
16, 24881, Note_on_c, 15, 40, 0
16, 24900, Note_on_c, 15, 52, 64
16, 24941, Note_on_c, 15, 52, 0
16, 24960, Note_on_c, 15, 45, 64
16, 25001, Note_on_c, 15, 45, 0
16, 25020, Note_on_c, 15, 57, 64
16, 25050, Note_on_c, 15, 57, 0
16, 25050, Note_on_c, 15, 52, 64
16, 25080, Note_on_c, 15, 52, 0
16, 25080, Note_on_c, 15, 52, 64
16, 25110, Note_on_c, 15, 52, 0
16, 25110, Note_on_c, 15, 49, 64
16, 25140, Note_on_c, 15, 49, 0
16, 25140, Note_on_c, 15, 49, 64
16, 25170, Note_on_c, 15, 49, 0
16, 25170, Note_on_c, 15, 45, 64
16, 25200, Note_on_c, 15, 45, 0
16, 25200, Note_on_c, 15, 45, 64
16, 25230, Note_on_c, 15, 45, 0
16, 25230, Note_on_c, 15, 49, 64
16, 25260, Note_on_c, 15, 49, 0
16, 25260, Note_on_c, 15, 49, 64
16, 25290, Note_on_c, 15, 49, 0
16, 25290, Note_on_c, 15, 45, 64
16, 25320, Note_on_c, 15, 45, 0
16, 25320, Note_on_c, 15, 42, 64
16, 25361, Note_on_c, 15, 42, 0
16, 25380, Note_on_c, 15, 54, 64
16, 25410, Note_on_c, 15, 54, 0
16, 25410, Note_on_c, 15, 49, 64
16, 25440, Note_on_c, 15, 49, 0
16, 25440, Note_on_c, 15, 49, 64
16, 25470, Note_on_c, 15, 49, 0
16, 25470, Note_on_c, 15, 45, 64
16, 25500, Note_on_c, 15, 45, 0
16, 25500, Note_on_c, 15, 45, 64
16, 25530, Note_on_c, 15, 45, 0
16, 25530, Note_on_c, 15, 42, 64
16, 25560, Note_on_c, 15, 42, 0
16, 25560, Note_on_c, 15, 42, 64
16, 25590, Note_on_c, 15, 42, 0
16, 25590, Note_on_c, 15, 45, 64
16, 25620, Note_on_c, 15, 45, 0
16, 25620, Note_on_c, 15, 45, 64
16, 25650, Note_on_c, 15, 45, 0
16, 25650, Note_on_c, 15, 42, 64
16, 25680, Note_on_c, 15, 42, 0
16, 25680, Note_on_c, 15, 39, 64
16, 25721, Note_on_c, 15, 39, 0
16, 25740, Note_on_c, 15, 51, 64
16, 25770, Note_on_c, 15, 51, 0
16, 25770, Note_on_c, 15, 47, 64
16, 25800, Note_on_c, 15, 47, 0
16, 25800, Note_on_c, 15, 47, 64
16, 25830, Note_on_c, 15, 47, 0
16, 25830, Note_on_c, 15, 42, 64
16, 25860, Note_on_c, 15, 42, 0
16, 25860, Note_on_c, 15, 42, 64
16, 25890, Note_on_c, 15, 42, 0
16, 25890, Note_on_c, 15, 39, 64
16, 25920, Note_on_c, 15, 39, 0
16, 25920, Note_on_c, 15, 39, 64
16, 25950, Note_on_c, 15, 39, 0
16, 25950, Note_on_c, 15, 42, 64
16, 25980, Note_on_c, 15, 42, 0
16, 25980, Note_on_c, 15, 42, 64
16, 26010, Note_on_c, 15, 42, 0
16, 26010, Note_on_c, 15, 39, 64
16, 26040, Note_on_c, 15, 39, 0
16, 26040, Note_on_c, 15, 41, 64
16, 26081, Note_on_c, 15, 41, 0
16, 26100, Note_on_c, 15, 53, 64
16, 26130, Note_on_c, 15, 53, 0
16, 26130, Note_on_c, 15, 49, 64
16, 26160, Note_on_c, 15, 49, 0
16, 26160, Note_on_c, 15, 49, 64
16, 26190, Note_on_c, 15, 49, 0
16, 26190, Note_on_c, 15, 44, 64
16, 26220, Note_on_c, 15, 44, 0
16, 26220, Note_on_c, 15, 44, 64
16, 26250, Note_on_c, 15, 44, 0
16, 26250, Note_on_c, 15, 41, 64
16, 26280, Note_on_c, 15, 41, 0
16, 26280, Note_on_c, 15, 41, 64
16, 26310, Note_on_c, 15, 41, 0
16, 26310, Note_on_c, 15, 44, 64
16, 26340, Note_on_c, 15, 44, 0
16, 26340, Note_on_c, 15, 44, 64
16, 26370, Note_on_c, 15, 44, 0
16, 26370, Note_on_c, 15, 41, 64
16, 26400, Note_on_c, 15, 41, 0
16, 26400, Note_on_c, 15, 42, 64
16, 26441, Note_on_c, 15, 42, 0
16, 26460, Note_on_c, 15, 54, 64
16, 26501, Note_on_c, 15, 54, 0
16, 26520, Note_on_c, 15, 54, 64
16, 26561, Note_on_c, 15, 54, 0
16, 26580, Note_on_c, 15, 54, 64
16, 26621, Note_on_c, 15, 54, 0
16, 26640, Note_on_c, 15, 54, 64
16, 26681, Note_on_c, 15, 54, 0
16, 26700, Note_on_c, 15, 54, 64
16, 26741, Note_on_c, 15, 54, 0
16, 26760, Note_on_c, 15, 40, 64
16, 26801, Note_on_c, 15, 40, 0
16, 26820, Note_on_c, 15, 52, 64
16, 26861, Note_on_c, 15, 52, 0
16, 26880, Note_on_c, 15, 52, 64
16, 26921, Note_on_c, 15, 52, 0
16, 26940, Note_on_c, 15, 52, 64
16, 26981, Note_on_c, 15, 52, 0
16, 27000, Note_on_c, 15, 52, 64
16, 27041, Note_on_c, 15, 52, 0
16, 27060, Note_on_c, 15, 52, 64
16, 27101, Note_on_c, 15, 52, 0
16, 27120, Note_on_c, 15, 39, 64
16, 27161, Note_on_c, 15, 39, 0
16, 27180, Note_on_c, 15, 51, 64
16, 27221, Note_on_c, 15, 51, 0
16, 27240, Note_on_c, 15, 51, 64
16, 27281, Note_on_c, 15, 51, 0
16, 27300, Note_on_c, 15, 51, 64
16, 27341, Note_on_c, 15, 51, 0
16, 27360, Note_on_c, 15, 51, 64
16, 27401, Note_on_c, 15, 51, 0
16, 27420, Note_on_c, 15, 51, 64
16, 27461, Note_on_c, 15, 51, 0
16, 27480, Note_on_c, 15, 37, 64
16, 27521, Note_on_c, 15, 37, 0
16, 27540, Note_on_c, 15, 49, 64
16, 27581, Note_on_c, 15, 49, 0
16, 27600, Note_on_c, 15, 49, 64
16, 27641, Note_on_c, 15, 49, 0
16, 27660, Note_on_c, 15, 49, 64
16, 27701, Note_on_c, 15, 49, 0
16, 27720, Note_on_c, 15, 49, 64
16, 27761, Note_on_c, 15, 49, 0
16, 27780, Note_on_c, 15, 49, 64
16, 27821, Note_on_c, 15, 49, 0
16, 27840, Note_on_c, 15, 36, 64
16, 27881, Note_on_c, 15, 36, 0
16, 27900, Note_on_c, 15, 48, 64
16, 27941, Note_on_c, 15, 48, 0
16, 27960, Note_on_c, 15, 48, 64
16, 28001, Note_on_c, 15, 48, 0
16, 28020, Note_on_c, 15, 48, 64
16, 28061, Note_on_c, 15, 48, 0
16, 28080, Note_on_c, 15, 48, 64
16, 28121, Note_on_c, 15, 48, 0
16, 28140, Note_on_c, 15, 48, 64
16, 28181, Note_on_c, 15, 48, 0
16, 28200, Note_on_c, 15, 47, 64
16, 28241, Note_on_c, 15, 47, 0
16, 28260, Note_on_c, 15, 59, 64
16, 28301, Note_on_c, 15, 59, 0
16, 28320, Note_on_c, 15, 59, 64
16, 28361, Note_on_c, 15, 59, 0
16, 28380, Note_on_c, 15, 59, 64
16, 28421, Note_on_c, 15, 59, 0
16, 28440, Note_on_c, 15, 59, 64
16, 28481, Note_on_c, 15, 59, 0
16, 28500, Note_on_c, 15, 59, 64
16, 28541, Note_on_c, 15, 59, 0
16, 28560, Note_on_c, 15, 57, 75
16, 28601, Note_on_c, 15, 57, 0
16, 28620, Note_on_c, 15, 53, 76
16, 28661, Note_on_c, 15, 53, 0
16, 28680, Note_on_c, 15, 54, 77
16, 28721, Note_on_c, 15, 54, 0
16, 28740, Note_on_c, 15, 45, 78
16, 28781, Note_on_c, 15, 45, 0
16, 28800, Note_on_c, 15, 47, 78
16, 28841, Note_on_c, 15, 47, 0
16, 28860, Note_on_c, 15, 49, 79
16, 28901, Note_on_c, 15, 49, 0
16, 28920, Note_on_c, 15, 42, 50
16, 28961, Note_on_c, 15, 42, 0
16, 28980, Note_on_c, 15, 54, 50
16, 29021, Note_on_c, 15, 54, 0
16, 29100, Note_on_c, 15, 54, 50
16, 29130, Note_on_c, 15, 54, 0
16, 29130, Note_on_c, 15, 56, 50
16, 29160, Note_on_c, 15, 56, 0
16, 29160, Note_on_c, 15, 57, 50
16, 29201, Note_on_c, 15, 57, 0
16, 29220, Note_on_c, 15, 54, 50
16, 29261, Note_on_c, 15, 54, 0
16, 29280, Note_on_c, 15, 50, 50
16, 29321, Note_on_c, 15, 50, 0
16, 29340, Note_on_c, 15, 38, 50
16, 29381, Note_on_c, 15, 38, 0
16, 29460, Note_on_c, 15, 50, 50
16, 29490, Note_on_c, 15, 50, 0
16, 29490, Note_on_c, 15, 49, 50
16, 29520, Note_on_c, 15, 49, 0
16, 29520, Note_on_c, 15, 50, 50
16, 29561, Note_on_c, 15, 50, 0
16, 29580, Note_on_c, 15, 47, 50
16, 29621, Note_on_c, 15, 47, 0
16, 29640, Note_on_c, 15, 52, 50
16, 29681, Note_on_c, 15, 52, 0
16, 29700, Note_on_c, 15, 40, 50
16, 29741, Note_on_c, 15, 40, 0
16, 29820, Note_on_c, 15, 52, 50
16, 29850, Note_on_c, 15, 52, 0
16, 29850, Note_on_c, 15, 50, 50
16, 29880, Note_on_c, 15, 50, 0
16, 29880, Note_on_c, 15, 52, 50
16, 29921, Note_on_c, 15, 52, 0
16, 29940, Note_on_c, 15, 49, 50
16, 29981, Note_on_c, 15, 49, 0
16, 30000, Note_on_c, 15, 54, 50
16, 30041, Note_on_c, 15, 54, 0
16, 30060, Note_on_c, 15, 42, 50
16, 30101, Note_on_c, 15, 42, 0
16, 30180, Note_on_c, 15, 54, 50
16, 30210, Note_on_c, 15, 54, 0
16, 30210, Note_on_c, 15, 56, 50
16, 30240, Note_on_c, 15, 56, 0
16, 30240, Note_on_c, 15, 58, 50
16, 30281, Note_on_c, 15, 58, 0
16, 30300, Note_on_c, 15, 54, 50
16, 30341, Note_on_c, 15, 54, 0
16, 30360, Note_on_c, 15, 59, 50
16, 30401, Note_on_c, 15, 59, 0
16, 30420, Note_on_c, 15, 47, 50
16, 30461, Note_on_c, 15, 47, 0
16, 30540, Note_on_c, 15, 62, 50
16, 30570, Note_on_c, 15, 62, 0
16, 30570, Note_on_c, 15, 61, 50
16, 30600, Note_on_c, 15, 61, 0
16, 30600, Note_on_c, 15, 59, 50
16, 30641, Note_on_c, 15, 59, 0
16, 30660, Note_on_c, 15, 58, 50
16, 30701, Note_on_c, 15, 58, 0
16, 30720, Note_on_c, 15, 59, 50
16, 30761, Note_on_c, 15, 59, 0
16, 30780, Note_on_c, 15, 54, 50
16, 30821, Note_on_c, 15, 54, 0
16, 30840, Note_on_c, 15, 50, 50
16, 30870, Note_on_c, 15, 50, 0
16, 30870, Note_on_c, 15, 52, 50
16, 30900, Note_on_c, 15, 52, 0
16, 30900, Note_on_c, 15, 54, 50
16, 30941, Note_on_c, 15, 54, 0
16, 30960, Note_on_c, 15, 47, 50
16, 31001, Note_on_c, 15, 47, 0
16, 31020, Note_on_c, 15, 50, 50
16, 31050, Note_on_c, 15, 50, 0
16, 31050, Note_on_c, 15, 54, 50
16, 31080, Note_on_c, 15, 54, 0
16, 31080, Note_on_c, 15, 59, 50
16, 31121, Note_on_c, 15, 59, 0
16, 31140, Note_on_c, 15, 47, 51
16, 31181, Note_on_c, 15, 47, 0
16, 31260, Note_on_c, 15, 59, 52
16, 31301, Note_on_c, 15, 59, 0
16, 31320, Note_on_c, 15, 59, 52
16, 31361, Note_on_c, 15, 59, 0
16, 31380, Note_on_c, 15, 59, 53
16, 31421, Note_on_c, 15, 59, 0
16, 31440, Note_on_c, 15, 59, 54
16, 31481, Note_on_c, 15, 59, 0
16, 31500, Note_on_c, 15, 47, 54
16, 31541, Note_on_c, 15, 47, 0
16, 31620, Note_on_c, 15, 59, 55
16, 31661, Note_on_c, 15, 59, 0
16, 31680, Note_on_c, 15, 57, 56
16, 31721, Note_on_c, 15, 57, 0
16, 31740, Note_on_c, 15, 57, 56
16, 31781, Note_on_c, 15, 57, 0
16, 31800, Note_on_c, 15, 57, 57
16, 31841, Note_on_c, 15, 57, 0
16, 31860, Note_on_c, 15, 45, 58
16, 31901, Note_on_c, 15, 45, 0
16, 31980, Note_on_c, 15, 54, 59
16, 32021, Note_on_c, 15, 54, 0
16, 32040, Note_on_c, 15, 56, 59
16, 32081, Note_on_c, 15, 56, 0
16, 32100, Note_on_c, 15, 52, 60
16, 32141, Note_on_c, 15, 52, 0
16, 32160, Note_on_c, 15, 62, 61
16, 32190, Note_on_c, 15, 62, 0
16, 32190, Note_on_c, 15, 50, 61
16, 32220, Note_on_c, 15, 50, 0
16, 32220, Note_on_c, 15, 62, 61
16, 32310, Note_on_c, 15, 62, 0
16, 32310, Note_on_c, 15, 64, 62
16, 32340, Note_on_c, 15, 64, 0
16, 32340, Note_on_c, 15, 62, 62
16, 32370, Note_on_c, 15, 62, 0
16, 32370, Note_on_c, 15, 61, 63
16, 32400, Note_on_c, 15, 61, 0
16, 32400, Note_on_c, 15, 59, 63
16, 32430, Note_on_c, 15, 59, 0
16, 32430, Note_on_c, 15, 61, 63
16, 32460, Note_on_c, 15, 61, 0
16, 32460, Note_on_c, 15, 59, 63
16, 32490, Note_on_c, 15, 59, 0
16, 32490, Note_on_c, 15, 57, 64
16, 32520, Note_on_c, 15, 57, 0
16, 32520, Note_on_c, 15, 56, 64
16, 32550, Note_on_c, 15, 56, 0
16, 32550, Note_on_c, 15, 44, 64
16, 32580, Note_on_c, 15, 44, 0
16, 32580, Note_on_c, 15, 56, 64
16, 32670, Note_on_c, 15, 56, 0
16, 32670, Note_on_c, 15, 57, 64
16, 32700, Note_on_c, 15, 57, 0
16, 32700, Note_on_c, 15, 56, 64
16, 32730, Note_on_c, 15, 56, 0
16, 32730, Note_on_c, 15, 54, 64
16, 32760, Note_on_c, 15, 54, 0
16, 32760, Note_on_c, 15, 52, 64
16, 32790, Note_on_c, 15, 52, 0
16, 32790, Note_on_c, 15, 54, 64
16, 32820, Note_on_c, 15, 54, 0
16, 32820, Note_on_c, 15, 56, 64
16, 32850, Note_on_c, 15, 56, 0
16, 32850, Note_on_c, 15, 52, 64
16, 32880, Note_on_c, 15, 52, 0
16, 32880, Note_on_c, 15, 49, 64
16, 32921, Note_on_c, 15, 49, 0
16, 32940, Note_on_c, 15, 50, 64
16, 32981, Note_on_c, 15, 50, 0
16, 33000, Note_on_c, 15, 49, 64
16, 33041, Note_on_c, 15, 49, 0
16, 33060, Note_on_c, 15, 47, 64
16, 33101, Note_on_c, 15, 47, 0
16, 33120, Note_on_c, 15, 45, 64
16, 33161, Note_on_c, 15, 45, 0
16, 33180, Note_on_c, 15, 57, 64
16, 33221, Note_on_c, 15, 57, 0
16, 33240, Note_on_c, 15, 50, 64
16, 33281, Note_on_c, 15, 50, 0
16, 33300, Note_on_c, 15, 52, 64
16, 33341, Note_on_c, 15, 52, 0
16, 33360, Note_on_c, 15, 50, 64
16, 33401, Note_on_c, 15, 50, 0
16, 33420, Note_on_c, 15, 49, 64
16, 33461, Note_on_c, 15, 49, 0
16, 33480, Note_on_c, 15, 47, 64
16, 33521, Note_on_c, 15, 47, 0
16, 33540, Note_on_c, 15, 59, 64
16, 33581, Note_on_c, 15, 59, 0
16, 33600, Note_on_c, 15, 52, 64
16, 33641, Note_on_c, 15, 52, 0
16, 33660, Note_on_c, 15, 56, 64
16, 33690, Note_on_c, 15, 56, 0
16, 33690, Note_on_c, 15, 54, 64
16, 33720, Note_on_c, 15, 54, 0
16, 33720, Note_on_c, 15, 52, 64
16, 33761, Note_on_c, 15, 52, 0
16, 33780, Note_on_c, 15, 50, 64
16, 33821, Note_on_c, 15, 50, 0
16, 33840, Note_on_c, 15, 49, 64
16, 33881, Note_on_c, 15, 49, 0
16, 33900, Note_on_c, 15, 52, 64
16, 33941, Note_on_c, 15, 52, 0
16, 33960, Note_on_c, 15, 45, 64
16, 34001, Note_on_c, 15, 45, 0
16, 34020, Note_on_c, 15, 57, 64
16, 34061, Note_on_c, 15, 57, 0
16, 34140, Note_on_c, 15, 61, 64
16, 34170, Note_on_c, 15, 61, 0
16, 34170, Note_on_c, 15, 59, 64
16, 34200, Note_on_c, 15, 59, 0
16, 34200, Note_on_c, 15, 57, 64
16, 34241, Note_on_c, 15, 57, 0
16, 34260, Note_on_c, 15, 56, 64
16, 34301, Note_on_c, 15, 56, 0
16, 34320, Note_on_c, 15, 57, 64
16, 34361, Note_on_c, 15, 57, 0
16, 34380, Note_on_c, 15, 52, 64
16, 34421, Note_on_c, 15, 52, 0
16, 34440, Note_on_c, 15, 49, 64
16, 34470, Note_on_c, 15, 49, 0
16, 34470, Note_on_c, 15, 50, 64
16, 34500, Note_on_c, 15, 50, 0
16, 34500, Note_on_c, 15, 52, 64
16, 34541, Note_on_c, 15, 52, 0
16, 34560, Note_on_c, 15, 45, 64
16, 34601, Note_on_c, 15, 45, 0
16, 34620, Note_on_c, 15, 49, 64
16, 34661, Note_on_c, 15, 49, 0
16, 34680, Note_on_c, 15, 42, 64
16, 34721, Note_on_c, 15, 42, 0
16, 34740, Note_on_c, 15, 43, 64
16, 34781, Note_on_c, 15, 43, 0
16, 34800, Note_on_c, 15, 42, 64
16, 34841, Note_on_c, 15, 42, 0
16, 34860, Note_on_c, 15, 40, 64
16, 34901, Note_on_c, 15, 40, 0
16, 34920, Note_on_c, 15, 38, 64
16, 34961, Note_on_c, 15, 38, 0
16, 34980, Note_on_c, 15, 50, 64
16, 35021, Note_on_c, 15, 50, 0
16, 35040, Note_on_c, 15, 43, 64
16, 35081, Note_on_c, 15, 43, 0
16, 35100, Note_on_c, 15, 45, 64
16, 35141, Note_on_c, 15, 45, 0
16, 35160, Note_on_c, 15, 43, 64
16, 35201, Note_on_c, 15, 43, 0
16, 35220, Note_on_c, 15, 42, 64
16, 35261, Note_on_c, 15, 42, 0
16, 35280, Note_on_c, 15, 40, 64
16, 35321, Note_on_c, 15, 40, 0
16, 35340, Note_on_c, 15, 52, 64
16, 35381, Note_on_c, 15, 52, 0
16, 35400, Note_on_c, 15, 45, 64
16, 35441, Note_on_c, 15, 45, 0
16, 35460, Note_on_c, 15, 49, 64
16, 35490, Note_on_c, 15, 49, 0
16, 35490, Note_on_c, 15, 47, 64
16, 35520, Note_on_c, 15, 47, 0
16, 35520, Note_on_c, 15, 45, 64
16, 35561, Note_on_c, 15, 45, 0
16, 35580, Note_on_c, 15, 43, 64
16, 35621, Note_on_c, 15, 43, 0
16, 35640, Note_on_c, 15, 42, 64
16, 35681, Note_on_c, 15, 42, 0
16, 35700, Note_on_c, 15, 45, 64
16, 35741, Note_on_c, 15, 45, 0
16, 35760, Note_on_c, 15, 50, 64
16, 35801, Note_on_c, 15, 50, 0
16, 35820, Note_on_c, 15, 38, 64
16, 35861, Note_on_c, 15, 38, 0
16, 35880, Note_on_c, 15, 42, 64
16, 35921, Note_on_c, 15, 42, 0
16, 35940, Note_on_c, 15, 45, 64
16, 35981, Note_on_c, 15, 45, 0
16, 36000, Note_on_c, 15, 50, 64
16, 36041, Note_on_c, 15, 50, 0
16, 36060, Note_on_c, 15, 45, 64
16, 36101, Note_on_c, 15, 45, 0
16, 36120, Note_on_c, 15, 42, 64
16, 36150, Note_on_c, 15, 42, 0
16, 36150, Note_on_c, 15, 40, 64
16, 36180, Note_on_c, 15, 40, 0
16, 36180, Note_on_c, 15, 42, 64
16, 36210, Note_on_c, 15, 42, 0
16, 36210, Note_on_c, 15, 43, 64
16, 36240, Note_on_c, 15, 43, 0
16, 36240, Note_on_c, 15, 45, 64
16, 36281, Note_on_c, 15, 45, 0
16, 36300, Note_on_c, 15, 42, 64
16, 36341, Note_on_c, 15, 42, 0
16, 36360, Note_on_c, 15, 45, 65
16, 36401, Note_on_c, 15, 45, 0
16, 36420, Note_on_c, 15, 42, 65
16, 36461, Note_on_c, 15, 42, 0
16, 36480, Note_on_c, 15, 38, 65
16, 36521, Note_on_c, 15, 38, 0
16, 36540, Note_on_c, 15, 42, 65
16, 36570, Note_on_c, 15, 42, 0
16, 36570, Note_on_c, 15, 40, 65
16, 36600, Note_on_c, 15, 40, 0
16, 36600, Note_on_c, 15, 38, 65
16, 36641, Note_on_c, 15, 38, 0
16, 36660, Note_on_c, 15, 42, 65
16, 36701, Note_on_c, 15, 42, 0
16, 36720, Note_on_c, 15, 43, 65
16, 36761, Note_on_c, 15, 43, 0
16, 36780, Note_on_c, 15, 47, 66
16, 36821, Note_on_c, 15, 47, 0
16, 36840, Note_on_c, 15, 40, 66
16, 36881, Note_on_c, 15, 40, 0
16, 36900, Note_on_c, 15, 43, 66
16, 36930, Note_on_c, 15, 43, 0
16, 36930, Note_on_c, 15, 42, 66
16, 36960, Note_on_c, 15, 42, 0
16, 36960, Note_on_c, 15, 40, 66
16, 37001, Note_on_c, 15, 40, 0
16, 37020, Note_on_c, 15, 43, 66
16, 37061, Note_on_c, 15, 43, 0
16, 37080, Note_on_c, 15, 45, 66
16, 37121, Note_on_c, 15, 45, 0
16, 37140, Note_on_c, 15, 48, 66
16, 37181, Note_on_c, 15, 48, 0
16, 37200, Note_on_c, 15, 42, 67
16, 37241, Note_on_c, 15, 42, 0
16, 37260, Note_on_c, 15, 45, 67
16, 37290, Note_on_c, 15, 45, 0
16, 37290, Note_on_c, 15, 43, 67
16, 37320, Note_on_c, 15, 43, 0
16, 37320, Note_on_c, 15, 42, 67
16, 37361, Note_on_c, 15, 42, 0
16, 37380, Note_on_c, 15, 45, 67
16, 37421, Note_on_c, 15, 45, 0
16, 37440, Note_on_c, 15, 38, 67
16, 37481, Note_on_c, 15, 38, 0
16, 37500, Note_on_c, 15, 48, 67
16, 37541, Note_on_c, 15, 48, 0
16, 37560, Note_on_c, 15, 47, 67
16, 37590, Note_on_c, 15, 47, 0
16, 37590, Note_on_c, 15, 48, 68
16, 37620, Note_on_c, 15, 48, 0
16, 37620, Note_on_c, 15, 47, 68
16, 37650, Note_on_c, 15, 47, 0
16, 37650, Note_on_c, 15, 45, 68
16, 37680, Note_on_c, 15, 45, 0
16, 37680, Note_on_c, 15, 43, 68
16, 37721, Note_on_c, 15, 43, 0
16, 37740, Note_on_c, 15, 55, 68
16, 37770, Note_on_c, 15, 55, 0
16, 37770, Note_on_c, 15, 54, 68
16, 37800, Note_on_c, 15, 54, 0
16, 37800, Note_on_c, 15, 55, 68
16, 37841, Note_on_c, 15, 55, 0
16, 37860, Note_on_c, 15, 59, 68
16, 37901, Note_on_c, 15, 59, 0
16, 37920, Note_on_c, 15, 52, 68
16, 37950, Note_on_c, 15, 52, 0
16, 37950, Note_on_c, 15, 50, 68
16, 37980, Note_on_c, 15, 50, 0
16, 37980, Note_on_c, 15, 49, 68
16, 38010, Note_on_c, 15, 49, 0
16, 38010, Note_on_c, 15, 50, 69
16, 38040, Note_on_c, 15, 50, 0
16, 38040, Note_on_c, 15, 52, 69
16, 38070, Note_on_c, 15, 52, 0
16, 38070, Note_on_c, 15, 54, 69
16, 38100, Note_on_c, 15, 54, 0
16, 38100, Note_on_c, 15, 55, 69
16, 38130, Note_on_c, 15, 55, 0
16, 38130, Note_on_c, 15, 54, 69
16, 38160, Note_on_c, 15, 54, 0
16, 38160, Note_on_c, 15, 57, 69
16, 38190, Note_on_c, 15, 57, 0
16, 38190, Note_on_c, 15, 55, 69
16, 38220, Note_on_c, 15, 55, 0
16, 38220, Note_on_c, 15, 54, 69
16, 38250, Note_on_c, 15, 54, 0
16, 38250, Note_on_c, 15, 52, 69
16, 38280, Note_on_c, 15, 52, 0
16, 38280, Note_on_c, 15, 54, 69
16, 38321, Note_on_c, 15, 54, 0
16, 38340, Note_on_c, 15, 42, 69
16, 38381, Note_on_c, 15, 42, 0
16, 38460, Note_on_c, 15, 54, 70
16, 38490, Note_on_c, 15, 54, 0
16, 38490, Note_on_c, 15, 52, 70
16, 38520, Note_on_c, 15, 52, 0
16, 38520, Note_on_c, 15, 54, 70
16, 38561, Note_on_c, 15, 54, 0
16, 38580, Note_on_c, 15, 57, 70
16, 38621, Note_on_c, 15, 57, 0
16, 38640, Note_on_c, 15, 51, 70
16, 38670, Note_on_c, 15, 51, 0
16, 38670, Note_on_c, 15, 49, 70
16, 38700, Note_on_c, 15, 49, 0
16, 38700, Note_on_c, 15, 47, 71
16, 38730, Note_on_c, 15, 47, 0
16, 38730, Note_on_c, 15, 49, 71
16, 38760, Note_on_c, 15, 49, 0
16, 38760, Note_on_c, 15, 51, 71
16, 38790, Note_on_c, 15, 51, 0
16, 38790, Note_on_c, 15, 52, 71
16, 38820, Note_on_c, 15, 52, 0
16, 38820, Note_on_c, 15, 54, 72
16, 38850, Note_on_c, 15, 54, 0
16, 38850, Note_on_c, 15, 52, 72
16, 38880, Note_on_c, 15, 52, 0
16, 38880, Note_on_c, 15, 55, 72
16, 38910, Note_on_c, 15, 55, 0
16, 38910, Note_on_c, 15, 54, 73
16, 38940, Note_on_c, 15, 54, 0
16, 38940, Note_on_c, 15, 52, 73
16, 38970, Note_on_c, 15, 52, 0
16, 38970, Note_on_c, 15, 51, 73
16, 39000, Note_on_c, 15, 51, 0
16, 39000, Note_on_c, 15, 52, 73
16, 39041, Note_on_c, 15, 52, 0
16, 39060, Note_on_c, 15, 40, 74
16, 39101, Note_on_c, 15, 40, 0
16, 39180, Note_on_c, 15, 52, 75
16, 39221, Note_on_c, 15, 52, 0
16, 39240, Note_on_c, 15, 54, 76
16, 39281, Note_on_c, 15, 54, 0
16, 39300, Note_on_c, 15, 56, 76
16, 39341, Note_on_c, 15, 56, 0
16, 39360, Note_on_c, 15, 57, 77
16, 39401, Note_on_c, 15, 57, 0
16, 39420, Note_on_c, 15, 45, 77
16, 39461, Note_on_c, 15, 45, 0
16, 39540, Note_on_c, 15, 57, 78
16, 39581, Note_on_c, 15, 57, 0
16, 39600, Note_on_c, 15, 59, 79
16, 39641, Note_on_c, 15, 59, 0
16, 39660, Note_on_c, 15, 61, 79
16, 39701, Note_on_c, 15, 61, 0
16, 39720, Note_on_c, 15, 62, 75
16, 39761, Note_on_c, 15, 62, 0
16, 39780, Note_on_c, 15, 50, 75
16, 39821, Note_on_c, 15, 50, 0
16, 39840, Note_on_c, 15, 50, 75
16, 39881, Note_on_c, 15, 50, 0
16, 39900, Note_on_c, 15, 50, 75
16, 39941, Note_on_c, 15, 50, 0
16, 39960, Note_on_c, 15, 50, 75
16, 40001, Note_on_c, 15, 50, 0
16, 40020, Note_on_c, 15, 50, 75
16, 40061, Note_on_c, 15, 50, 0
16, 40080, Note_on_c, 15, 60, 75
16, 40121, Note_on_c, 15, 60, 0
16, 40140, Note_on_c, 15, 48, 75
16, 40181, Note_on_c, 15, 48, 0
16, 40200, Note_on_c, 15, 48, 75
16, 40241, Note_on_c, 15, 48, 0
16, 40260, Note_on_c, 15, 48, 75
16, 40301, Note_on_c, 15, 48, 0
16, 40320, Note_on_c, 15, 48, 75
16, 40361, Note_on_c, 15, 48, 0
16, 40380, Note_on_c, 15, 48, 75
16, 40421, Note_on_c, 15, 48, 0
16, 40440, Note_on_c, 15, 59, 75
16, 40481, Note_on_c, 15, 59, 0
16, 40500, Note_on_c, 15, 47, 76
16, 40541, Note_on_c, 15, 47, 0
16, 40560, Note_on_c, 15, 47, 76
16, 40601, Note_on_c, 15, 47, 0
16, 40620, Note_on_c, 15, 47, 77
16, 40661, Note_on_c, 15, 47, 0
16, 40680, Note_on_c, 15, 47, 77
16, 40721, Note_on_c, 15, 47, 0
16, 40740, Note_on_c, 15, 47, 78
16, 40781, Note_on_c, 15, 47, 0
16, 40800, Note_on_c, 15, 57, 78
16, 40841, Note_on_c, 15, 57, 0
16, 40860, Note_on_c, 15, 45, 79
16, 40901, Note_on_c, 15, 45, 0
16, 40920, Note_on_c, 15, 45, 79
16, 40961, Note_on_c, 15, 45, 0
16, 40980, Note_on_c, 15, 45, 80
16, 41021, Note_on_c, 15, 45, 0
16, 41040, Note_on_c, 15, 45, 81
16, 41081, Note_on_c, 15, 45, 0
16, 41100, Note_on_c, 15, 45, 81
16, 41141, Note_on_c, 15, 45, 0
16, 41160, Note_on_c, 15, 56, 82
16, 41201, Note_on_c, 15, 56, 0
16, 41220, Note_on_c, 15, 44, 82
16, 41261, Note_on_c, 15, 44, 0
16, 41280, Note_on_c, 15, 44, 83
16, 41321, Note_on_c, 15, 44, 0
16, 41340, Note_on_c, 15, 44, 83
16, 41381, Note_on_c, 15, 44, 0
16, 41400, Note_on_c, 15, 44, 84
16, 41441, Note_on_c, 15, 44, 0
16, 41460, Note_on_c, 15, 44, 84
16, 41501, Note_on_c, 15, 44, 0
16, 41520, Note_on_c, 15, 55, 85
16, 41561, Note_on_c, 15, 55, 0
16, 41580, Note_on_c, 15, 43, 82
16, 41621, Note_on_c, 15, 43, 0
16, 41640, Note_on_c, 15, 43, 80
16, 41681, Note_on_c, 15, 43, 0
16, 41700, Note_on_c, 15, 43, 77
16, 41741, Note_on_c, 15, 43, 0
16, 41760, Note_on_c, 15, 43, 75
16, 41801, Note_on_c, 15, 43, 0
16, 41820, Note_on_c, 15, 43, 72
16, 41861, Note_on_c, 15, 43, 0
16, 41880, Note_on_c, 15, 42, 70
16, 41921, Note_on_c, 15, 42, 0
16, 41940, Note_on_c, 15, 54, 71
16, 41970, Note_on_c, 15, 54, 0
16, 41970, Note_on_c, 15, 52, 71
16, 42000, Note_on_c, 15, 52, 0
16, 42000, Note_on_c, 15, 54, 71
16, 42041, Note_on_c, 15, 54, 0
16, 42060, Note_on_c, 15, 50, 72
16, 42101, Note_on_c, 15, 50, 0
16, 42120, Note_on_c, 15, 52, 72
16, 42161, Note_on_c, 15, 52, 0
16, 42180, Note_on_c, 15, 54, 73
16, 42221, Note_on_c, 15, 54, 0
16, 42240, Note_on_c, 15, 43, 73
16, 42281, Note_on_c, 15, 43, 0
16, 42300, Note_on_c, 15, 55, 74
16, 42330, Note_on_c, 15, 55, 0
16, 42330, Note_on_c, 15, 54, 74
16, 42360, Note_on_c, 15, 54, 0
16, 42360, Note_on_c, 15, 55, 74
16, 42401, Note_on_c, 15, 55, 0
16, 42420, Note_on_c, 15, 52, 75
16, 42461, Note_on_c, 15, 52, 0
16, 42480, Note_on_c, 15, 54, 75
16, 42521, Note_on_c, 15, 54, 0
16, 42540, Note_on_c, 15, 55, 76
16, 42581, Note_on_c, 15, 55, 0
16, 42600, Note_on_c, 15, 45, 76
16, 42641, Note_on_c, 15, 45, 0
16, 42660, Note_on_c, 15, 57, 77
16, 42690, Note_on_c, 15, 57, 0
16, 42690, Note_on_c, 15, 55, 77
16, 42720, Note_on_c, 15, 55, 0
16, 42720, Note_on_c, 15, 57, 77
16, 42761, Note_on_c, 15, 57, 0
16, 42780, Note_on_c, 15, 54, 78
16, 42821, Note_on_c, 15, 54, 0
16, 42840, Note_on_c, 15, 55, 78
16, 42881, Note_on_c, 15, 55, 0
16, 42900, Note_on_c, 15, 57, 79
16, 42941, Note_on_c, 15, 57, 0
16, 42960, Note_on_c, 15, 47, 79
16, 43001, Note_on_c, 15, 47, 0
16, 43020, Note_on_c, 15, 59, 80
16, 43050, Note_on_c, 15, 59, 0
16, 43050, Note_on_c, 15, 57, 80
16, 43080, Note_on_c, 15, 57, 0
16, 43080, Note_on_c, 15, 59, 80
16, 43121, Note_on_c, 15, 59, 0
16, 43140, Note_on_c, 15, 55, 81
16, 43181, Note_on_c, 15, 55, 0
16, 43200, Note_on_c, 15, 57, 81
16, 43241, Note_on_c, 15, 57, 0
16, 43260, Note_on_c, 15, 59, 82
16, 43301, Note_on_c, 15, 59, 0
16, 43320, Note_on_c, 15, 49, 82
16, 43361, Note_on_c, 15, 49, 0
16, 43380, Note_on_c, 15, 61, 83
16, 43410, Note_on_c, 15, 61, 0
16, 43410, Note_on_c, 15, 59, 83
16, 43440, Note_on_c, 15, 59, 0
16, 43440, Note_on_c, 15, 61, 83
16, 43481, Note_on_c, 15, 61, 0
16, 43500, Note_on_c, 15, 57, 84
16, 43541, Note_on_c, 15, 57, 0
16, 43560, Note_on_c, 15, 59, 84
16, 43601, Note_on_c, 15, 59, 0
16, 43620, Note_on_c, 15, 61, 85
16, 43661, Note_on_c, 15, 61, 0
16, 43680, Note_on_c, 15, 50, 80
16, 43721, Note_on_c, 15, 50, 0
16, 43740, Note_on_c, 15, 62, 81
16, 43770, Note_on_c, 15, 62, 0
16, 43770, Note_on_c, 15, 64, 81
16, 43800, Note_on_c, 15, 64, 0
16, 43800, Note_on_c, 15, 62, 81
16, 43841, Note_on_c, 15, 62, 0
16, 43860, Note_on_c, 15, 61, 82
16, 43901, Note_on_c, 15, 61, 0
16, 43920, Note_on_c, 15, 59, 82
16, 43961, Note_on_c, 15, 59, 0
16, 43980, Note_on_c, 15, 57, 83
16, 44021, Note_on_c, 15, 57, 0
16, 44040, Note_on_c, 15, 55, 83
16, 44081, Note_on_c, 15, 55, 0
16, 44100, Note_on_c, 15, 61, 84
16, 44130, Note_on_c, 15, 61, 0
16, 44130, Note_on_c, 15, 62, 84
16, 44160, Note_on_c, 15, 62, 0
16, 44160, Note_on_c, 15, 61, 84
16, 44201, Note_on_c, 15, 61, 0
16, 44220, Note_on_c, 15, 59, 85
16, 44261, Note_on_c, 15, 59, 0
16, 44280, Note_on_c, 15, 57, 86
16, 44321, Note_on_c, 15, 57, 0
16, 44340, Note_on_c, 15, 55, 86
16, 44381, Note_on_c, 15, 55, 0
16, 44400, Note_on_c, 15, 54, 87
16, 44441, Note_on_c, 15, 54, 0
16, 44460, Note_on_c, 15, 59, 87
16, 44490, Note_on_c, 15, 59, 0
16, 44490, Note_on_c, 15, 61, 88
16, 44520, Note_on_c, 15, 61, 0
16, 44520, Note_on_c, 15, 59, 88
16, 44561, Note_on_c, 15, 59, 0
16, 44580, Note_on_c, 15, 57, 88
16, 44621, Note_on_c, 15, 57, 0
16, 44640, Note_on_c, 15, 55, 89
16, 44681, Note_on_c, 15, 55, 0
16, 44700, Note_on_c, 15, 54, 89
16, 44741, Note_on_c, 15, 54, 0
16, 44760, Note_on_c, 15, 52, 90
16, 44790, Note_on_c, 15, 52, 0
16, 44790, Note_on_c, 15, 54, 90
16, 44820, Note_on_c, 15, 54, 0
16, 44820, Note_on_c, 15, 55, 91
16, 44850, Note_on_c, 15, 55, 0
16, 44850, Note_on_c, 15, 54, 91
16, 44880, Note_on_c, 15, 54, 0
16, 44880, Note_on_c, 15, 52, 91
16, 44921, Note_on_c, 15, 52, 0
16, 44940, Note_on_c, 15, 50, 92
16, 44981, Note_on_c, 15, 50, 0
16, 45000, Note_on_c, 15, 49, 92
16, 45041, Note_on_c, 15, 49, 0
16, 45060, Note_on_c, 15, 47, 93
16, 45101, Note_on_c, 15, 47, 0
16, 45120, Note_on_c, 15, 45, 93
16, 45161, Note_on_c, 15, 45, 0
16, 45180, Note_on_c, 15, 47, 94
16, 45221, Note_on_c, 15, 47, 0
16, 45240, Note_on_c, 15, 49, 94
16, 45281, Note_on_c, 15, 49, 0
16, 45300, Note_on_c, 15, 45, 95
16, 45341, Note_on_c, 15, 45, 0
16, 45360, Note_on_c, 15, 50, 96
16, 45401, Note_on_c, 15, 50, 0
16, 45420, Note_on_c, 15, 45, 96
16, 45461, Note_on_c, 15, 45, 0
16, 45480, Note_on_c, 15, 47, 97
16, 45521, Note_on_c, 15, 47, 0
16, 45540, Note_on_c, 15, 45, 97
16, 45570, Note_on_c, 15, 45, 0
16, 45570, Note_on_c, 15, 43, 98
16, 45600, Note_on_c, 15, 43, 0
16, 45600, Note_on_c, 15, 42, 98
16, 45641, Note_on_c, 15, 42, 0
16, 45660, Note_on_c, 15, 43, 98
16, 45701, Note_on_c, 15, 43, 0
16, 45720, Note_on_c, 15, 45, 99
16, 45840, Note_on_c, 15, 45, 0
16, 45840, Note_on_c, 15, 38, 100
16, 46200, Note_on_c, 15, 38, 0
16, 46560, End_track
17, 0, Start_track
17, 0, MIDI_port, 0
17, 0, Title_t, "Oboe"
17, 0, Program_c, 3, 68
17, 120, Control_c, 3, 7, 100
17, 660, Note_on_c, 3, 69, 64
17, 701, Note_on_c, 3, 69, 0
17, 720, Note_on_c, 3, 74, 64
17, 761, Note_on_c, 3, 74, 0
17, 780, Note_on_c, 3, 76, 64
17, 810, Note_on_c, 3, 76, 0
17, 810, Note_on_c, 3, 78, 64
17, 840, Note_on_c, 3, 78, 0
17, 840, Note_on_c, 3, 76, 64
17, 870, Note_on_c, 3, 76, 0
17, 870, Note_on_c, 3, 78, 64
17, 900, Note_on_c, 3, 78, 0
17, 900, Note_on_c, 3, 76, 64
17, 930, Note_on_c, 3, 76, 0
17, 930, Note_on_c, 3, 74, 64
17, 960, Note_on_c, 3, 74, 0
17, 960, Note_on_c, 3, 73, 64
17, 990, Note_on_c, 3, 73, 0
17, 990, Note_on_c, 3, 71, 64
17, 1020, Note_on_c, 3, 71, 0
17, 1020, Note_on_c, 3, 69, 64
17, 1050, Note_on_c, 3, 69, 0
17, 1050, Note_on_c, 3, 68, 64
17, 1080, Note_on_c, 3, 68, 0
17, 1080, Note_on_c, 3, 69, 64
17, 1110, Note_on_c, 3, 69, 0
17, 1110, Note_on_c, 3, 71, 64
17, 1140, Note_on_c, 3, 71, 0
17, 1140, Note_on_c, 3, 73, 64
17, 1170, Note_on_c, 3, 73, 0
17, 1170, Note_on_c, 3, 74, 64
17, 1200, Note_on_c, 3, 74, 0
17, 1200, Note_on_c, 3, 73, 64
17, 1241, Note_on_c, 3, 73, 0
17, 1380, Note_on_c, 3, 69, 64
17, 1421, Note_on_c, 3, 69, 0
17, 1440, Note_on_c, 3, 76, 64
17, 1481, Note_on_c, 3, 76, 0
17, 1500, Note_on_c, 3, 78, 64
17, 1530, Note_on_c, 3, 78, 0
17, 1530, Note_on_c, 3, 79, 64
17, 1560, Note_on_c, 3, 79, 0
17, 1560, Note_on_c, 3, 78, 64
17, 1601, Note_on_c, 3, 78, 0
17, 1620, Note_on_c, 3, 78, 64
17, 1661, Note_on_c, 3, 78, 0
17, 1680, Note_on_c, 3, 81, 64
17, 1721, Note_on_c, 3, 81, 0
17, 1740, Note_on_c, 3, 86, 64
17, 1781, Note_on_c, 3, 86, 0
17, 1800, Note_on_c, 3, 81, 64
17, 1841, Note_on_c, 3, 81, 0
17, 1860, Note_on_c, 3, 78, 64
17, 1901, Note_on_c, 3, 78, 0
17, 1980, Note_on_c, 3, 74, 64
17, 2021, Note_on_c, 3, 74, 0
17, 2040, Note_on_c, 3, 78, 64
17, 2081, Note_on_c, 3, 78, 0
17, 2100, Note_on_c, 3, 83, 64
17, 2141, Note_on_c, 3, 83, 0
17, 2160, Note_on_c, 3, 78, 64
17, 2201, Note_on_c, 3, 78, 0
17, 2220, Note_on_c, 3, 74, 64
17, 2261, Note_on_c, 3, 74, 0
17, 2280, Note_on_c, 3, 69, 64
17, 2460, Note_on_c, 3, 69, 0
17, 2460, Note_on_c, 3, 71, 64
17, 2490, Note_on_c, 3, 71, 0
17, 2490, Note_on_c, 3, 73, 64
17, 2520, Note_on_c, 3, 73, 0
17, 2520, Note_on_c, 3, 74, 64
17, 2550, Note_on_c, 3, 74, 0
17, 2550, Note_on_c, 3, 76, 64
17, 2580, Note_on_c, 3, 76, 0
17, 2580, Note_on_c, 3, 78, 64
17, 2610, Note_on_c, 3, 78, 0
17, 2610, Note_on_c, 3, 74, 64
17, 2640, Note_on_c, 3, 74, 0
17, 2640, Note_on_c, 3, 71, 64
17, 2790, Note_on_c, 3, 71, 0
17, 2790, Note_on_c, 3, 69, 64
17, 2820, Note_on_c, 3, 69, 0
17, 2820, Note_on_c, 3, 68, 64
17, 2850, Note_on_c, 3, 68, 0
17, 2850, Note_on_c, 3, 69, 64
17, 2880, Note_on_c, 3, 69, 0
17, 2880, Note_on_c, 3, 71, 64
17, 2910, Note_on_c, 3, 71, 0
17, 2910, Note_on_c, 3, 73, 64
17, 2940, Note_on_c, 3, 73, 0
17, 2940, Note_on_c, 3, 74, 64
17, 2970, Note_on_c, 3, 74, 0
17, 2970, Note_on_c, 3, 71, 64
17, 3000, Note_on_c, 3, 71, 0
17, 3000, Note_on_c, 3, 73, 64
17, 3041, Note_on_c, 3, 73, 0
17, 3420, Note_on_c, 3, 73, 64
17, 3461, Note_on_c, 3, 73, 0
17, 3480, Note_on_c, 3, 76, 64
17, 3521, Note_on_c, 3, 76, 0
17, 3540, Note_on_c, 3, 81, 64
17, 3581, Note_on_c, 3, 81, 0
17, 3600, Note_on_c, 3, 76, 64
17, 3641, Note_on_c, 3, 76, 0
17, 3660, Note_on_c, 3, 74, 64
17, 3690, Note_on_c, 3, 74, 0
17, 3690, Note_on_c, 3, 73, 64
17, 3720, Note_on_c, 3, 73, 0
17, 3720, Note_on_c, 3, 74, 64
17, 3761, Note_on_c, 3, 74, 0
17, 4140, Note_on_c, 3, 74, 64
17, 4181, Note_on_c, 3, 74, 0
17, 4200, Note_on_c, 3, 80, 64
17, 4241, Note_on_c, 3, 80, 0
17, 4260, Note_on_c, 3, 83, 64
17, 4301, Note_on_c, 3, 83, 0
17, 4320, Note_on_c, 3, 74, 64
17, 4361, Note_on_c, 3, 74, 0
17, 4380, Note_on_c, 3, 73, 64
17, 4410, Note_on_c, 3, 73, 0
17, 4410, Note_on_c, 3, 71, 64
17, 4440, Note_on_c, 3, 71, 0
17, 4440, Note_on_c, 3, 73, 64
17, 4560, Note_on_c, 3, 73, 0
17, 4620, Note_on_c, 3, 69, 64
17, 4650, Note_on_c, 3, 69, 0
17, 4650, Note_on_c, 3, 71, 64
17, 4680, Note_on_c, 3, 71, 0
17, 4680, Note_on_c, 3, 73, 64
17, 4710, Note_on_c, 3, 73, 0
17, 4710, Note_on_c, 3, 74, 64
17, 4740, Note_on_c, 3, 74, 0
17, 4740, Note_on_c, 3, 76, 64
17, 4770, Note_on_c, 3, 76, 0
17, 4770, Note_on_c, 3, 73, 64
17, 4800, Note_on_c, 3, 73, 0
17, 4800, Note_on_c, 3, 81, 64
17, 4841, Note_on_c, 3, 81, 0
17, 4860, Note_on_c, 3, 69, 64
17, 4901, Note_on_c, 3, 69, 0
17, 4980, Note_on_c, 3, 66, 64
17, 5010, Note_on_c, 3, 66, 0
17, 5010, Note_on_c, 3, 68, 64
17, 5040, Note_on_c, 3, 68, 0
17, 5040, Note_on_c, 3, 69, 64
17, 5070, Note_on_c, 3, 69, 0
17, 5070, Note_on_c, 3, 71, 64
17, 5100, Note_on_c, 3, 71, 0
17, 5100, Note_on_c, 3, 73, 64
17, 5130, Note_on_c, 3, 73, 0
17, 5130, Note_on_c, 3, 69, 64
17, 5160, Note_on_c, 3, 69, 0
17, 5160, Note_on_c, 3, 76, 64
17, 5201, Note_on_c, 3, 76, 0
17, 5220, Note_on_c, 3, 73, 64
17, 5261, Note_on_c, 3, 73, 0
17, 5280, Note_on_c, 3, 76, 64
17, 5321, Note_on_c, 3, 76, 0
17, 5340, Note_on_c, 3, 81, 64
17, 5381, Note_on_c, 3, 81, 0
17, 5400, Note_on_c, 3, 76, 64
17, 5441, Note_on_c, 3, 76, 0
17, 5460, Note_on_c, 3, 73, 64
17, 5501, Note_on_c, 3, 73, 0
17, 5580, Note_on_c, 3, 71, 64
17, 5621, Note_on_c, 3, 71, 0
17, 5640, Note_on_c, 3, 78, 64
17, 5681, Note_on_c, 3, 78, 0
17, 5700, Note_on_c, 3, 81, 64
17, 5741, Note_on_c, 3, 81, 0
17, 5760, Note_on_c, 3, 78, 64
17, 5801, Note_on_c, 3, 78, 0
17, 5820, Note_on_c, 3, 71, 64
17, 5861, Note_on_c, 3, 71, 0
17, 5940, Note_on_c, 3, 80, 41
17, 6060, Note_on_c, 3, 80, 0
17, 6060, Note_on_c, 3, 78, 43
17, 6090, Note_on_c, 3, 78, 0
17, 6090, Note_on_c, 3, 76, 44
17, 6120, Note_on_c, 3, 76, 0
17, 6120, Note_on_c, 3, 78, 44
17, 6210, Note_on_c, 3, 78, 0
17, 6210, Note_on_c, 3, 80, 46
17, 6225, Note_on_c, 3, 80, 0
17, 6225, Note_on_c, 3, 81, 46
17, 6240, Note_on_c, 3, 81, 0
17, 6240, Note_on_c, 3, 80, 46
17, 6600, Note_on_c, 3, 80, 0
17, 6660, Note_on_c, 3, 69, 53
17, 6690, Note_on_c, 3, 69, 0
17, 6690, Note_on_c, 3, 71, 54
17, 6705, Note_on_c, 3, 71, 0
17, 6705, Note_on_c, 3, 73, 54
17, 6720, Note_on_c, 3, 73, 0
17, 6720, Note_on_c, 3, 73, 54
17, 6761, Note_on_c, 3, 73, 0
17, 6780, Note_on_c, 3, 69, 55
17, 6810, Note_on_c, 3, 69, 0
17, 6810, Note_on_c, 3, 71, 56
17, 6825, Note_on_c, 3, 71, 0
17, 6825, Note_on_c, 3, 73, 56
17, 6840, Note_on_c, 3, 73, 0
17, 6840, Note_on_c, 3, 73, 56
17, 6881, Note_on_c, 3, 73, 0
17, 7020, Note_on_c, 3, 73, 59
17, 7050, Note_on_c, 3, 73, 0
17, 7050, Note_on_c, 3, 74, 60
17, 7065, Note_on_c, 3, 74, 0
17, 7065, Note_on_c, 3, 76, 60
17, 7080, Note_on_c, 3, 76, 0
17, 7080, Note_on_c, 3, 76, 60
17, 7121, Note_on_c, 3, 76, 0
17, 7140, Note_on_c, 3, 73, 61
17, 7170, Note_on_c, 3, 73, 0
17, 7170, Note_on_c, 3, 74, 62
17, 7185, Note_on_c, 3, 74, 0
17, 7185, Note_on_c, 3, 76, 62
17, 7200, Note_on_c, 3, 76, 0
17, 7200, Note_on_c, 3, 76, 62
17, 7241, Note_on_c, 3, 76, 0
17, 7260, Note_on_c, 3, 74, 63
17, 7290, Note_on_c, 3, 74, 0
17, 7290, Note_on_c, 3, 73, 64
17, 7320, Note_on_c, 3, 73, 0
17, 7320, Note_on_c, 3, 74, 50
17, 7361, Note_on_c, 3, 74, 0
17, 7380, Note_on_c, 3, 62, 51
17, 7410, Note_on_c, 3, 62, 0
17, 7410, Note_on_c, 3, 64, 51
17, 7440, Note_on_c, 3, 64, 0
17, 7440, Note_on_c, 3, 66, 52
17, 7470, Note_on_c, 3, 66, 0
17, 7470, Note_on_c, 3, 68, 52
17, 7500, Note_on_c, 3, 68, 0
17, 7500, Note_on_c, 3, 69, 53
17, 7530, Note_on_c, 3, 69, 0
17, 7530, Note_on_c, 3, 66, 53
17, 7560, Note_on_c, 3, 66, 0
17, 7560, Note_on_c, 3, 71, 53
17, 7590, Note_on_c, 3, 71, 0
17, 7590, Note_on_c, 3, 69, 54
17, 7620, Note_on_c, 3, 69, 0
17, 7620, Note_on_c, 3, 68, 54
17, 7650, Note_on_c, 3, 68, 0
17, 7650, Note_on_c, 3, 66, 55
17, 7680, Note_on_c, 3, 66, 0
17, 7680, Note_on_c, 3, 68, 55
17, 7710, Note_on_c, 3, 68, 0
17, 7710, Note_on_c, 3, 66, 55
17, 7740, Note_on_c, 3, 66, 0
17, 7740, Note_on_c, 3, 64, 56
17, 7770, Note_on_c, 3, 64, 0
17, 7770, Note_on_c, 3, 66, 56
17, 7800, Note_on_c, 3, 66, 0
17, 7800, Note_on_c, 3, 68, 57
17, 7830, Note_on_c, 3, 68, 0
17, 7830, Note_on_c, 3, 69, 57
17, 7860, Note_on_c, 3, 69, 0
17, 7860, Note_on_c, 3, 71, 58
17, 7890, Note_on_c, 3, 71, 0
17, 7890, Note_on_c, 3, 69, 58
17, 7920, Note_on_c, 3, 69, 0
17, 7920, Note_on_c, 3, 73, 58
17, 7950, Note_on_c, 3, 73, 0
17, 7950, Note_on_c, 3, 71, 59
17, 7980, Note_on_c, 3, 71, 0
17, 7980, Note_on_c, 3, 69, 59
17, 8010, Note_on_c, 3, 69, 0
17, 8010, Note_on_c, 3, 68, 60
17, 8040, Note_on_c, 3, 68, 0
17, 8040, Note_on_c, 3, 69, 60
17, 8070, Note_on_c, 3, 69, 0
17, 8070, Note_on_c, 3, 68, 60
17, 8100, Note_on_c, 3, 68, 0
17, 8100, Note_on_c, 3, 66, 61
17, 8130, Note_on_c, 3, 66, 0
17, 8130, Note_on_c, 3, 68, 61
17, 8160, Note_on_c, 3, 68, 0
17, 8160, Note_on_c, 3, 69, 62
17, 8190, Note_on_c, 3, 69, 0
17, 8190, Note_on_c, 3, 71, 62
17, 8220, Note_on_c, 3, 71, 0
17, 8220, Note_on_c, 3, 73, 63
17, 8250, Note_on_c, 3, 73, 0
17, 8250, Note_on_c, 3, 71, 63
17, 8280, Note_on_c, 3, 71, 0
17, 8280, Note_on_c, 3, 74, 63
17, 8310, Note_on_c, 3, 74, 0
17, 8310, Note_on_c, 3, 73, 64
17, 8340, Note_on_c, 3, 73, 0
17, 8340, Note_on_c, 3, 71, 64
17, 8370, Note_on_c, 3, 71, 0
17, 8370, Note_on_c, 3, 69, 65
17, 8400, Note_on_c, 3, 69, 0
17, 8400, Note_on_c, 3, 71, 65
17, 8430, Note_on_c, 3, 71, 0
17, 8430, Note_on_c, 3, 69, 65
17, 8460, Note_on_c, 3, 69, 0
17, 8460, Note_on_c, 3, 68, 66
17, 8490, Note_on_c, 3, 68, 0
17, 8490, Note_on_c, 3, 69, 66
17, 8520, Note_on_c, 3, 69, 0
17, 8520, Note_on_c, 3, 71, 67
17, 8550, Note_on_c, 3, 71, 0
17, 8550, Note_on_c, 3, 73, 67
17, 8580, Note_on_c, 3, 73, 0
17, 8580, Note_on_c, 3, 74, 68
17, 8610, Note_on_c, 3, 74, 0
17, 8610, Note_on_c, 3, 73, 68
17, 8640, Note_on_c, 3, 73, 0
17, 8640, Note_on_c, 3, 76, 68
17, 8670, Note_on_c, 3, 76, 0
17, 8670, Note_on_c, 3, 74, 69
17, 8700, Note_on_c, 3, 74, 0
17, 8700, Note_on_c, 3, 73, 69
17, 8730, Note_on_c, 3, 73, 0
17, 8730, Note_on_c, 3, 71, 70
17, 8760, Note_on_c, 3, 71, 0
17, 8760, Note_on_c, 3, 73, 64
17, 8790, Note_on_c, 3, 73, 0
17, 8790, Note_on_c, 3, 71, 64
17, 8820, Note_on_c, 3, 71, 0
17, 8820, Note_on_c, 3, 73, 64
17, 8850, Note_on_c, 3, 73, 0
17, 8850, Note_on_c, 3, 74, 64
17, 8880, Note_on_c, 3, 74, 0
17, 8880, Note_on_c, 3, 76, 64
17, 8921, Note_on_c, 3, 76, 0
17, 9120, Note_on_c, 3, 73, 64
17, 9150, Note_on_c, 3, 73, 0
17, 9150, Note_on_c, 3, 71, 64
17, 9180, Note_on_c, 3, 71, 0
17, 9180, Note_on_c, 3, 73, 64
17, 9210, Note_on_c, 3, 73, 0
17, 9210, Note_on_c, 3, 74, 64
17, 9240, Note_on_c, 3, 74, 0
17, 9240, Note_on_c, 3, 76, 64
17, 9281, Note_on_c, 3, 76, 0
17, 9480, Note_on_c, 3, 78, 64
17, 9510, Note_on_c, 3, 78, 0
17, 9510, Note_on_c, 3, 76, 64
17, 9540, Note_on_c, 3, 76, 0
17, 9540, Note_on_c, 3, 78, 64
17, 9570, Note_on_c, 3, 78, 0
17, 9570, Note_on_c, 3, 80, 64
17, 9600, Note_on_c, 3, 80, 0
17, 9600, Note_on_c, 3, 81, 64
17, 9641, Note_on_c, 3, 81, 0
17, 9840, Note_on_c, 3, 81, 64
17, 9870, Note_on_c, 3, 81, 0
17, 9870, Note_on_c, 3, 80, 64
17, 9900, Note_on_c, 3, 80, 0
17, 9900, Note_on_c, 3, 81, 64
17, 9930, Note_on_c, 3, 81, 0
17, 9930, Note_on_c, 3, 83, 64
17, 9960, Note_on_c, 3, 83, 0
17, 9960, Note_on_c, 3, 84, 64
17, 10001, Note_on_c, 3, 84, 0
17, 10200, Note_on_c, 3, 78, 64
17, 10230, Note_on_c, 3, 78, 0
17, 10230, Note_on_c, 3, 76, 64
17, 10260, Note_on_c, 3, 76, 0
17, 10260, Note_on_c, 3, 78, 64
17, 10290, Note_on_c, 3, 78, 0
17, 10290, Note_on_c, 3, 80, 64
17, 10320, Note_on_c, 3, 80, 0
17, 10320, Note_on_c, 3, 81, 64
17, 10361, Note_on_c, 3, 81, 0
17, 10560, Note_on_c, 3, 76, 64
17, 10590, Note_on_c, 3, 76, 0
17, 10590, Note_on_c, 3, 74, 64
17, 10620, Note_on_c, 3, 74, 0
17, 10620, Note_on_c, 3, 76, 64
17, 10650, Note_on_c, 3, 76, 0
17, 10650, Note_on_c, 3, 78, 64
17, 10680, Note_on_c, 3, 78, 0
17, 10680, Note_on_c, 3, 80, 64
17, 10721, Note_on_c, 3, 80, 0
17, 10950, Note_on_c, 3, 64, 64
17, 10980, Note_on_c, 3, 64, 0
17, 10980, Note_on_c, 3, 66, 64
17, 11010, Note_on_c, 3, 66, 0
17, 11010, Note_on_c, 3, 68, 64
17, 11040, Note_on_c, 3, 68, 0
17, 11040, Note_on_c, 3, 69, 64
17, 11070, Note_on_c, 3, 69, 0
17, 11070, Note_on_c, 3, 71, 64
17, 11100, Note_on_c, 3, 71, 0
17, 11100, Note_on_c, 3, 73, 64
17, 11130, Note_on_c, 3, 73, 0
17, 11130, Note_on_c, 3, 74, 64
17, 11160, Note_on_c, 3, 74, 0
17, 11160, Note_on_c, 3, 76, 64
17, 11190, Note_on_c, 3, 76, 0
17, 11190, Note_on_c, 3, 78, 64
17, 11220, Note_on_c, 3, 78, 0
17, 11220, Note_on_c, 3, 79, 64
17, 11250, Note_on_c, 3, 79, 0
17, 11250, Note_on_c, 3, 76, 64
17, 11280, Note_on_c, 3, 76, 0
17, 11280, Note_on_c, 3, 78, 64
17, 11310, Note_on_c, 3, 78, 0
17, 11310, Note_on_c, 3, 76, 64
17, 11340, Note_on_c, 3, 76, 0
17, 11340, Note_on_c, 3, 74, 64
17, 11370, Note_on_c, 3, 74, 0
17, 11370, Note_on_c, 3, 73, 64
17, 11400, Note_on_c, 3, 73, 0
17, 11400, Note_on_c, 3, 71, 64
17, 11430, Note_on_c, 3, 71, 0
17, 11430, Note_on_c, 3, 69, 64
17, 11460, Note_on_c, 3, 69, 0
17, 11460, Note_on_c, 3, 68, 64
17, 11490, Note_on_c, 3, 68, 0
17, 11490, Note_on_c, 3, 69, 64
17, 11520, Note_on_c, 3, 69, 0
17, 11520, Note_on_c, 3, 71, 64
17, 11550, Note_on_c, 3, 71, 0
17, 11550, Note_on_c, 3, 73, 64
17, 11580, Note_on_c, 3, 73, 0
17, 11580, Note_on_c, 3, 74, 64
17, 11610, Note_on_c, 3, 74, 0
17, 11610, Note_on_c, 3, 71, 64
17, 11640, Note_on_c, 3, 71, 0
17, 11640, Note_on_c, 3, 76, 64
17, 11670, Note_on_c, 3, 76, 0
17, 11670, Note_on_c, 3, 74, 64
17, 11700, Note_on_c, 3, 74, 0
17, 11700, Note_on_c, 3, 73, 64
17, 11730, Note_on_c, 3, 73, 0
17, 11730, Note_on_c, 3, 71, 64
17, 11760, Note_on_c, 3, 71, 0
17, 11760, Note_on_c, 3, 69, 64
17, 11790, Note_on_c, 3, 69, 0
17, 11790, Note_on_c, 3, 68, 64
17, 11820, Note_on_c, 3, 68, 0
17, 11820, Note_on_c, 3, 66, 64
17, 11850, Note_on_c, 3, 66, 0
17, 11850, Note_on_c, 3, 68, 64
17, 11880, Note_on_c, 3, 68, 0
17, 11880, Note_on_c, 3, 69, 64
17, 11910, Note_on_c, 3, 69, 0
17, 11910, Note_on_c, 3, 71, 64
17, 11940, Note_on_c, 3, 71, 0
17, 11940, Note_on_c, 3, 73, 64
17, 11970, Note_on_c, 3, 73, 0
17, 11970, Note_on_c, 3, 69, 64
17, 12000, Note_on_c, 3, 69, 0
17, 12000, Note_on_c, 3, 74, 64
17, 12030, Note_on_c, 3, 74, 0
17, 12030, Note_on_c, 3, 64, 64
17, 12060, Note_on_c, 3, 64, 0
17, 12060, Note_on_c, 3, 66, 64
17, 12090, Note_on_c, 3, 66, 0
17, 12090, Note_on_c, 3, 68, 64
17, 12120, Note_on_c, 3, 68, 0
17, 12120, Note_on_c, 3, 69, 64
17, 12150, Note_on_c, 3, 69, 0
17, 12150, Note_on_c, 3, 66, 64
17, 12180, Note_on_c, 3, 66, 0
17, 12180, Note_on_c, 3, 68, 64
17, 12210, Note_on_c, 3, 68, 0
17, 12210, Note_on_c, 3, 69, 64
17, 12240, Note_on_c, 3, 69, 0
17, 12240, Note_on_c, 3, 71, 64
17, 12270, Note_on_c, 3, 71, 0
17, 12270, Note_on_c, 3, 73, 64
17, 12300, Note_on_c, 3, 73, 0
17, 12300, Note_on_c, 3, 74, 64
17, 12330, Note_on_c, 3, 74, 0
17, 12330, Note_on_c, 3, 71, 64
17, 12360, Note_on_c, 3, 71, 0
17, 12360, Note_on_c, 3, 68, 64
17, 12390, Note_on_c, 3, 68, 0
17, 12390, Note_on_c, 3, 76, 65
17, 12420, Note_on_c, 3, 76, 0
17, 12420, Note_on_c, 3, 74, 65
17, 12450, Note_on_c, 3, 74, 0
17, 12450, Note_on_c, 3, 73, 66
17, 12480, Note_on_c, 3, 73, 0
17, 12480, Note_on_c, 3, 71, 67
17, 12510, Note_on_c, 3, 71, 0
17, 12510, Note_on_c, 3, 69, 67
17, 12540, Note_on_c, 3, 69, 0
17, 12540, Note_on_c, 3, 68, 68
17, 12570, Note_on_c, 3, 68, 0
17, 12570, Note_on_c, 3, 66, 69
17, 12600, Note_on_c, 3, 66, 0
17, 12600, Note_on_c, 3, 64, 69
17, 12630, Note_on_c, 3, 64, 0
17, 12630, Note_on_c, 3, 66, 70
17, 12660, Note_on_c, 3, 66, 0
17, 12660, Note_on_c, 3, 68, 71
17, 12690, Note_on_c, 3, 68, 0
17, 12690, Note_on_c, 3, 64, 71
17, 12720, Note_on_c, 3, 64, 0
17, 12720, Note_on_c, 3, 69, 72
17, 12750, Note_on_c, 3, 69, 0
17, 12750, Note_on_c, 3, 71, 73
17, 12780, Note_on_c, 3, 71, 0
17, 12780, Note_on_c, 3, 73, 73
17, 12810, Note_on_c, 3, 73, 0
17, 12810, Note_on_c, 3, 74, 74
17, 12840, Note_on_c, 3, 74, 0
17, 12840, Note_on_c, 3, 76, 75
17, 12870, Note_on_c, 3, 76, 0
17, 12870, Note_on_c, 3, 74, 75
17, 12900, Note_on_c, 3, 74, 0
17, 12900, Note_on_c, 3, 78, 76
17, 12930, Note_on_c, 3, 78, 0
17, 12930, Note_on_c, 3, 76, 77
17, 12960, Note_on_c, 3, 76, 0
17, 12960, Note_on_c, 3, 74, 77
17, 12990, Note_on_c, 3, 74, 0
17, 12990, Note_on_c, 3, 73, 78
17, 13020, Note_on_c, 3, 73, 0
17, 13020, Note_on_c, 3, 71, 79
17, 13050, Note_on_c, 3, 71, 0
17, 13050, Note_on_c, 3, 73, 79
17, 13080, Note_on_c, 3, 73, 0
17, 13080, Note_on_c, 3, 69, 80
17, 13200, Note_on_c, 3, 69, 0
17, 22860, Note_on_c, 3, 78, 64
17, 22980, Note_on_c, 3, 78, 0
17, 22980, Note_on_c, 3, 76, 64
17, 23010, Note_on_c, 3, 76, 0
17, 23010, Note_on_c, 3, 74, 64
17, 23040, Note_on_c, 3, 74, 0
17, 23040, Note_on_c, 3, 76, 64
17, 23130, Note_on_c, 3, 76, 0
17, 23130, Note_on_c, 3, 78, 64
17, 23145, Note_on_c, 3, 78, 0
17, 23145, Note_on_c, 3, 79, 64
17, 23160, Note_on_c, 3, 79, 0
17, 23160, Note_on_c, 3, 78, 64
17, 23201, Note_on_c, 3, 78, 0
17, 23220, Note_on_c, 3, 74, 64
17, 23261, Note_on_c, 3, 74, 0
17, 23280, Note_on_c, 3, 78, 64
17, 23321, Note_on_c, 3, 78, 0
17, 23340, Note_on_c, 3, 83, 64
17, 23381, Note_on_c, 3, 83, 0
17, 23400, Note_on_c, 3, 78, 64
17, 23441, Note_on_c, 3, 78, 0
17, 23460, Note_on_c, 3, 76, 64
17, 23490, Note_on_c, 3, 76, 0
17, 23490, Note_on_c, 3, 74, 64
17, 23520, Note_on_c, 3, 74, 0
17, 23520, Note_on_c, 3, 76, 64
17, 23561, Note_on_c, 3, 76, 0
17, 23580, Note_on_c, 3, 66, 64
17, 23621, Note_on_c, 3, 66, 0
17, 23640, Note_on_c, 3, 66, 64
17, 23681, Note_on_c, 3, 66, 0
17, 23700, Note_on_c, 3, 66, 64
17, 23741, Note_on_c, 3, 66, 0
17, 23760, Note_on_c, 3, 66, 64
17, 23801, Note_on_c, 3, 66, 0
17, 23820, Note_on_c, 3, 66, 64
17, 23861, Note_on_c, 3, 66, 0
17, 23880, Note_on_c, 3, 66, 64
17, 23921, Note_on_c, 3, 66, 0
17, 23940, Note_on_c, 3, 76, 64
17, 23981, Note_on_c, 3, 76, 0
17, 24000, Note_on_c, 3, 82, 64
17, 24041, Note_on_c, 3, 82, 0
17, 24060, Note_on_c, 3, 85, 64
17, 24101, Note_on_c, 3, 85, 0
17, 24120, Note_on_c, 3, 76, 64
17, 24161, Note_on_c, 3, 76, 0
17, 24180, Note_on_c, 3, 74, 64
17, 24210, Note_on_c, 3, 74, 0
17, 24210, Note_on_c, 3, 73, 64
17, 24240, Note_on_c, 3, 73, 0
17, 24240, Note_on_c, 3, 74, 64
17, 24281, Note_on_c, 3, 74, 0
17, 24300, Note_on_c, 3, 74, 64
17, 24330, Note_on_c, 3, 74, 0
17, 24330, Note_on_c, 3, 76, 64
17, 24345, Note_on_c, 3, 76, 0
17, 24345, Note_on_c, 3, 78, 64
17, 24360, Note_on_c, 3, 78, 0
17, 24360, Note_on_c, 3, 78, 64
17, 24401, Note_on_c, 3, 78, 0
17, 24420, Note_on_c, 3, 74, 64
17, 24450, Note_on_c, 3, 74, 0
17, 24450, Note_on_c, 3, 76, 64
17, 24465, Note_on_c, 3, 76, 0
17, 24465, Note_on_c, 3, 78, 64
17, 24480, Note_on_c, 3, 78, 0
17, 24480, Note_on_c, 3, 78, 64
17, 24521, Note_on_c, 3, 78, 0
17, 24540, Note_on_c, 3, 76, 64
17, 24570, Note_on_c, 3, 76, 0
17, 24570, Note_on_c, 3, 74, 64
17, 24600, Note_on_c, 3, 74, 0
17, 24600, Note_on_c, 3, 80, 64
17, 24720, Note_on_c, 3, 80, 0
17, 25020, Note_on_c, 3, 73, 64
17, 25061, Note_on_c, 3, 73, 0
17, 25080, Note_on_c, 3, 76, 64
17, 25121, Note_on_c, 3, 76, 0
17, 25140, Note_on_c, 3, 81, 64
17, 25181, Note_on_c, 3, 81, 0
17, 25200, Note_on_c, 3, 76, 64
17, 25241, Note_on_c, 3, 76, 0
17, 25260, Note_on_c, 3, 73, 64
17, 25301, Note_on_c, 3, 73, 0
17, 25380, Note_on_c, 3, 69, 64
17, 25421, Note_on_c, 3, 69, 0
17, 25440, Note_on_c, 3, 73, 64
17, 25481, Note_on_c, 3, 73, 0
17, 25500, Note_on_c, 3, 78, 64
17, 25541, Note_on_c, 3, 78, 0
17, 25560, Note_on_c, 3, 73, 64
17, 25601, Note_on_c, 3, 73, 0
17, 25620, Note_on_c, 3, 69, 64
17, 25661, Note_on_c, 3, 69, 0
17, 25680, Note_on_c, 3, 66, 64
17, 25860, Note_on_c, 3, 66, 0
17, 25860, Note_on_c, 3, 68, 64
17, 25890, Note_on_c, 3, 68, 0
17, 25890, Note_on_c, 3, 69, 64
17, 25920, Note_on_c, 3, 69, 0
17, 25920, Note_on_c, 3, 71, 64
17, 25950, Note_on_c, 3, 71, 0
17, 25950, Note_on_c, 3, 73, 64
17, 25980, Note_on_c, 3, 73, 0
17, 25980, Note_on_c, 3, 74, 64
17, 26010, Note_on_c, 3, 74, 0
17, 26010, Note_on_c, 3, 71, 64
17, 26040, Note_on_c, 3, 71, 0
17, 26040, Note_on_c, 3, 68, 64
17, 26190, Note_on_c, 3, 68, 0
17, 26190, Note_on_c, 3, 66, 64
17, 26220, Note_on_c, 3, 66, 0
17, 26220, Note_on_c, 3, 65, 64
17, 26250, Note_on_c, 3, 65, 0
17, 26250, Note_on_c, 3, 66, 64
17, 26280, Note_on_c, 3, 66, 0
17, 26280, Note_on_c, 3, 68, 64
17, 26310, Note_on_c, 3, 68, 0
17, 26310, Note_on_c, 3, 69, 64
17, 26340, Note_on_c, 3, 69, 0
17, 26340, Note_on_c, 3, 71, 64
17, 26370, Note_on_c, 3, 71, 0
17, 26370, Note_on_c, 3, 68, 64
17, 26400, Note_on_c, 3, 68, 0
17, 26400, Note_on_c, 3, 69, 64
17, 26441, Note_on_c, 3, 69, 0
17, 26460, Note_on_c, 3, 73, 64
17, 26501, Note_on_c, 3, 73, 0
17, 26520, Note_on_c, 3, 78, 64
17, 26561, Note_on_c, 3, 78, 0
17, 26580, Note_on_c, 3, 81, 64
17, 26621, Note_on_c, 3, 81, 0
17, 26640, Note_on_c, 3, 78, 64
17, 26681, Note_on_c, 3, 78, 0
17, 26700, Note_on_c, 3, 73, 64
17, 26741, Note_on_c, 3, 73, 0
17, 26820, Note_on_c, 3, 78, 64
17, 26861, Note_on_c, 3, 78, 0
17, 26880, Note_on_c, 3, 81, 64
17, 26921, Note_on_c, 3, 81, 0
17, 26940, Note_on_c, 3, 85, 64
17, 26981, Note_on_c, 3, 85, 0
17, 27000, Note_on_c, 3, 81, 64
17, 27041, Note_on_c, 3, 81, 0
17, 27060, Note_on_c, 3, 78, 64
17, 27101, Note_on_c, 3, 78, 0
17, 27180, Note_on_c, 3, 81, 64
17, 27221, Note_on_c, 3, 81, 0
17, 27240, Note_on_c, 3, 78, 64
17, 27281, Note_on_c, 3, 78, 0
17, 27300, Note_on_c, 3, 75, 64
17, 27341, Note_on_c, 3, 75, 0
17, 27360, Note_on_c, 3, 78, 64
17, 27401, Note_on_c, 3, 78, 0
17, 27420, Note_on_c, 3, 81, 64
17, 27461, Note_on_c, 3, 81, 0
17, 27540, Note_on_c, 3, 81, 64
17, 27581, Note_on_c, 3, 81, 0
17, 27600, Note_on_c, 3, 78, 64
17, 27641, Note_on_c, 3, 78, 0
17, 27660, Note_on_c, 3, 73, 64
17, 27701, Note_on_c, 3, 73, 0
17, 27720, Note_on_c, 3, 78, 64
17, 27761, Note_on_c, 3, 78, 0
17, 27780, Note_on_c, 3, 81, 64
17, 27821, Note_on_c, 3, 81, 0
17, 27900, Note_on_c, 3, 81, 64
17, 27941, Note_on_c, 3, 81, 0
17, 27960, Note_on_c, 3, 78, 64
17, 28001, Note_on_c, 3, 78, 0
17, 28020, Note_on_c, 3, 75, 64
17, 28061, Note_on_c, 3, 75, 0
17, 28080, Note_on_c, 3, 78, 64
17, 28121, Note_on_c, 3, 78, 0
17, 28140, Note_on_c, 3, 80, 64
17, 28181, Note_on_c, 3, 80, 0
17, 28260, Note_on_c, 3, 80, 66
17, 28301, Note_on_c, 3, 80, 0
17, 28320, Note_on_c, 3, 77, 67
17, 28361, Note_on_c, 3, 77, 0
17, 28380, Note_on_c, 3, 73, 69
17, 28421, Note_on_c, 3, 73, 0
17, 28440, Note_on_c, 3, 77, 71
17, 28481, Note_on_c, 3, 77, 0
17, 28500, Note_on_c, 3, 80, 72
17, 28541, Note_on_c, 3, 80, 0
17, 28620, Note_on_c, 3, 73, 76
17, 28661, Note_on_c, 3, 73, 0
17, 28680, Note_on_c, 3, 69, 77
17, 28721, Note_on_c, 3, 69, 0
17, 28740, Note_on_c, 3, 73, 78
17, 28781, Note_on_c, 3, 73, 0
17, 28800, Note_on_c, 3, 78, 78
17, 28841, Note_on_c, 3, 78, 0
17, 28860, Note_on_c, 3, 73, 79
17, 28901, Note_on_c, 3, 73, 0
17, 28920, Note_on_c, 3, 69, 50
17, 28950, Note_on_c, 3, 69, 0
17, 28950, Note_on_c, 3, 68, 50
17, 28980, Note_on_c, 3, 68, 0
17, 28980, Note_on_c, 3, 69, 50
17, 29010, Note_on_c, 3, 69, 0
17, 29010, Note_on_c, 3, 71, 50
17, 29040, Note_on_c, 3, 71, 0
17, 29040, Note_on_c, 3, 73, 50
17, 29081, Note_on_c, 3, 73, 0
17, 29100, Note_on_c, 3, 69, 50
17, 29141, Note_on_c, 3, 69, 0
17, 29160, Note_on_c, 3, 73, 50
17, 29201, Note_on_c, 3, 73, 0
17, 29220, Note_on_c, 3, 69, 50
17, 29261, Note_on_c, 3, 69, 0
17, 29280, Note_on_c, 3, 66, 50
17, 29321, Note_on_c, 3, 66, 0
17, 29340, Note_on_c, 3, 69, 50
17, 29370, Note_on_c, 3, 69, 0
17, 29370, Note_on_c, 3, 68, 50
17, 29400, Note_on_c, 3, 68, 0
17, 29400, Note_on_c, 3, 66, 50
17, 29441, Note_on_c, 3, 66, 0
17, 29460, Note_on_c, 3, 69, 50
17, 29501, Note_on_c, 3, 69, 0
17, 29520, Note_on_c, 3, 71, 50
17, 29561, Note_on_c, 3, 71, 0
17, 29580, Note_on_c, 3, 74, 50
17, 29621, Note_on_c, 3, 74, 0
17, 29640, Note_on_c, 3, 68, 50
17, 29681, Note_on_c, 3, 68, 0
17, 29700, Note_on_c, 3, 71, 50
17, 29730, Note_on_c, 3, 71, 0
17, 29730, Note_on_c, 3, 69, 50
17, 29760, Note_on_c, 3, 69, 0
17, 29760, Note_on_c, 3, 68, 50
17, 29801, Note_on_c, 3, 68, 0
17, 29820, Note_on_c, 3, 71, 50
17, 29861, Note_on_c, 3, 71, 0
17, 29880, Note_on_c, 3, 73, 50
17, 29921, Note_on_c, 3, 73, 0
17, 29940, Note_on_c, 3, 76, 50
17, 29981, Note_on_c, 3, 76, 0
17, 30000, Note_on_c, 3, 70, 50
17, 30041, Note_on_c, 3, 70, 0
17, 30060, Note_on_c, 3, 73, 50
17, 30090, Note_on_c, 3, 73, 0
17, 30090, Note_on_c, 3, 71, 50
17, 30120, Note_on_c, 3, 71, 0
17, 30120, Note_on_c, 3, 70, 50
17, 30161, Note_on_c, 3, 70, 0
17, 30180, Note_on_c, 3, 73, 50
17, 30221, Note_on_c, 3, 73, 0
17, 30240, Note_on_c, 3, 66, 50
17, 30281, Note_on_c, 3, 66, 0
17, 30300, Note_on_c, 3, 78, 50
17, 30341, Note_on_c, 3, 78, 0
17, 30360, Note_on_c, 3, 76, 50
17, 30375, Note_on_c, 3, 76, 0
17, 30375, Note_on_c, 3, 74, 50
17, 30390, Note_on_c, 3, 74, 0
17, 30390, Note_on_c, 3, 76, 50
17, 30405, Note_on_c, 3, 76, 0
17, 30405, Note_on_c, 3, 74, 50
17, 30420, Note_on_c, 3, 74, 0
17, 30420, Note_on_c, 3, 73, 50
17, 30450, Note_on_c, 3, 73, 0
17, 30450, Note_on_c, 3, 74, 50
17, 30480, Note_on_c, 3, 74, 0
17, 30480, Note_on_c, 3, 71, 50
17, 30521, Note_on_c, 3, 71, 0
17, 30540, Note_on_c, 3, 66, 50
17, 30581, Note_on_c, 3, 66, 0
17, 30600, Note_on_c, 3, 62, 50
17, 30641, Note_on_c, 3, 62, 0
17, 30660, Note_on_c, 3, 66, 50
17, 30701, Note_on_c, 3, 66, 0
17, 30720, Note_on_c, 3, 71, 50
17, 30750, Note_on_c, 3, 71, 0
17, 30750, Note_on_c, 3, 70, 50
17, 30780, Note_on_c, 3, 70, 0
17, 30780, Note_on_c, 3, 71, 50
17, 30810, Note_on_c, 3, 71, 0
17, 30810, Note_on_c, 3, 73, 50
17, 30840, Note_on_c, 3, 73, 0
17, 30840, Note_on_c, 3, 74, 50
17, 30870, Note_on_c, 3, 74, 0
17, 30870, Note_on_c, 3, 73, 50
17, 30900, Note_on_c, 3, 73, 0
17, 30900, Note_on_c, 3, 71, 50
17, 30930, Note_on_c, 3, 71, 0
17, 30930, Note_on_c, 3, 73, 50
17, 30960, Note_on_c, 3, 73, 0
17, 30960, Note_on_c, 3, 74, 50
17, 30990, Note_on_c, 3, 74, 0
17, 30990, Note_on_c, 3, 73, 50
17, 31020, Note_on_c, 3, 73, 0
17, 31020, Note_on_c, 3, 71, 50
17, 31050, Note_on_c, 3, 71, 0
17, 31050, Note_on_c, 3, 73, 50
17, 31080, Note_on_c, 3, 73, 0
17, 31080, Note_on_c, 3, 74, 50
17, 31110, Note_on_c, 3, 74, 0
17, 31110, Note_on_c, 3, 73, 50
17, 31140, Note_on_c, 3, 73, 0
17, 31140, Note_on_c, 3, 71, 51
17, 31170, Note_on_c, 3, 71, 0
17, 31170, Note_on_c, 3, 73, 51
17, 31200, Note_on_c, 3, 73, 0
17, 31200, Note_on_c, 3, 74, 51
17, 31230, Note_on_c, 3, 74, 0
17, 31230, Note_on_c, 3, 76, 51
17, 31260, Note_on_c, 3, 76, 0
17, 31260, Note_on_c, 3, 78, 52
17, 31290, Note_on_c, 3, 78, 0
17, 31290, Note_on_c, 3, 76, 52
17, 31320, Note_on_c, 3, 76, 0
17, 31320, Note_on_c, 3, 79, 52
17, 31350, Note_on_c, 3, 79, 0
17, 31350, Note_on_c, 3, 78, 53
17, 31380, Note_on_c, 3, 78, 0
17, 31380, Note_on_c, 3, 76, 53
17, 31410, Note_on_c, 3, 76, 0
17, 31410, Note_on_c, 3, 74, 53
17, 31440, Note_on_c, 3, 74, 0
17, 31440, Note_on_c, 3, 76, 54
17, 31470, Note_on_c, 3, 76, 0
17, 31470, Note_on_c, 3, 74, 54
17, 31500, Note_on_c, 3, 74, 0
17, 31500, Note_on_c, 3, 73, 54
17, 31530, Note_on_c, 3, 73, 0
17, 31530, Note_on_c, 3, 74, 54
17, 31560, Note_on_c, 3, 74, 0
17, 31560, Note_on_c, 3, 76, 55
17, 31590, Note_on_c, 3, 76, 0
17, 31590, Note_on_c, 3, 78, 55
17, 31620, Note_on_c, 3, 78, 0
17, 31620, Note_on_c, 3, 79, 55
17, 31650, Note_on_c, 3, 79, 0
17, 31650, Note_on_c, 3, 78, 56
17, 31680, Note_on_c, 3, 78, 0
17, 31680, Note_on_c, 3, 81, 56
17, 31710, Note_on_c, 3, 81, 0
17, 31710, Note_on_c, 3, 79, 56
17, 31740, Note_on_c, 3, 79, 0
17, 31740, Note_on_c, 3, 78, 56
17, 31770, Note_on_c, 3, 78, 0
17, 31770, Note_on_c, 3, 76, 57
17, 31800, Note_on_c, 3, 76, 0
17, 31800, Note_on_c, 3, 78, 57
17, 31830, Note_on_c, 3, 78, 0
17, 31830, Note_on_c, 3, 76, 57
17, 31860, Note_on_c, 3, 76, 0
17, 31860, Note_on_c, 3, 75, 58
17, 31890, Note_on_c, 3, 75, 0
17, 31890, Note_on_c, 3, 76, 58
17, 31920, Note_on_c, 3, 76, 0
17, 31920, Note_on_c, 3, 78, 58
17, 31950, Note_on_c, 3, 78, 0
17, 31950, Note_on_c, 3, 80, 58
17, 31980, Note_on_c, 3, 80, 0
17, 31980, Note_on_c, 3, 81, 59
17, 32010, Note_on_c, 3, 81, 0
17, 32010, Note_on_c, 3, 80, 59
17, 32040, Note_on_c, 3, 80, 0
17, 32040, Note_on_c, 3, 83, 59
17, 32070, Note_on_c, 3, 83, 0
17, 32070, Note_on_c, 3, 81, 60
17, 32100, Note_on_c, 3, 81, 0
17, 32100, Note_on_c, 3, 80, 60
17, 32130, Note_on_c, 3, 80, 0
17, 32130, Note_on_c, 3, 78, 60
17, 32160, Note_on_c, 3, 78, 0
17, 32160, Note_on_c, 3, 76, 61
17, 32201, Note_on_c, 3, 76, 0
17, 32220, Note_on_c, 3, 71, 61
17, 32261, Note_on_c, 3, 71, 0
17, 32280, Note_on_c, 3, 76, 62
17, 32321, Note_on_c, 3, 76, 0
17, 32340, Note_on_c, 3, 71, 62
17, 32381, Note_on_c, 3, 71, 0
17, 32400, Note_on_c, 3, 68, 63
17, 32430, Note_on_c, 3, 68, 0
17, 32430, Note_on_c, 3, 69, 63
17, 32460, Note_on_c, 3, 69, 0
17, 32460, Note_on_c, 3, 71, 63
17, 32501, Note_on_c, 3, 71, 0
17, 32520, Note_on_c, 3, 71, 64
17, 32561, Note_on_c, 3, 71, 0
17, 32580, Note_on_c, 3, 71, 64
17, 32621, Note_on_c, 3, 71, 0
17, 32640, Note_on_c, 3, 76, 64
17, 32681, Note_on_c, 3, 76, 0
17, 32700, Note_on_c, 3, 71, 64
17, 32741, Note_on_c, 3, 71, 0
17, 32760, Note_on_c, 3, 68, 64
17, 32790, Note_on_c, 3, 68, 0
17, 32790, Note_on_c, 3, 69, 64
17, 32820, Note_on_c, 3, 69, 0
17, 32820, Note_on_c, 3, 71, 64
17, 32910, Note_on_c, 3, 71, 0
17, 32910, Note_on_c, 3, 69, 64
17, 32940, Note_on_c, 3, 69, 0
17, 32940, Note_on_c, 3, 68, 64
17, 32970, Note_on_c, 3, 68, 0
17, 32970, Note_on_c, 3, 69, 64
17, 33000, Note_on_c, 3, 69, 0
17, 33000, Note_on_c, 3, 71, 64
17, 33030, Note_on_c, 3, 71, 0
17, 33030, Note_on_c, 3, 76, 64
17, 33060, Note_on_c, 3, 76, 0
17, 33060, Note_on_c, 3, 74, 64
17, 33090, Note_on_c, 3, 74, 0
17, 33090, Note_on_c, 3, 76, 64
17, 33120, Note_on_c, 3, 76, 0
17, 33120, Note_on_c, 3, 73, 64
17, 33270, Note_on_c, 3, 73, 0
17, 33270, Note_on_c, 3, 69, 64
17, 33300, Note_on_c, 3, 69, 0
17, 33300, Note_on_c, 3, 74, 64
17, 33330, Note_on_c, 3, 74, 0
17, 33330, Note_on_c, 3, 76, 64
17, 33360, Note_on_c, 3, 76, 0
17, 33360, Note_on_c, 3, 78, 64
17, 33390, Note_on_c, 3, 78, 0
17, 33390, Note_on_c, 3, 79, 64
17, 33420, Note_on_c, 3, 79, 0
17, 33420, Note_on_c, 3, 76, 64
17, 33450, Note_on_c, 3, 76, 0
17, 33450, Note_on_c, 3, 78, 64
17, 33480, Note_on_c, 3, 78, 0
17, 33480, Note_on_c, 3, 74, 64
17, 33630, Note_on_c, 3, 74, 0
17, 33630, Note_on_c, 3, 73, 64
17, 33660, Note_on_c, 3, 73, 0
17, 33660, Note_on_c, 3, 71, 64
17, 33690, Note_on_c, 3, 71, 0
17, 33690, Note_on_c, 3, 73, 64
17, 33720, Note_on_c, 3, 73, 0
17, 33720, Note_on_c, 3, 74, 64
17, 33750, Note_on_c, 3, 74, 0
17, 33750, Note_on_c, 3, 73, 64
17, 33780, Note_on_c, 3, 73, 0
17, 33780, Note_on_c, 3, 71, 64
17, 33810, Note_on_c, 3, 71, 0
17, 33810, Note_on_c, 3, 69, 64
17, 33840, Note_on_c, 3, 69, 0
17, 33840, Note_on_c, 3, 71, 64
17, 33881, Note_on_c, 3, 71, 0
17, 33900, Note_on_c, 3, 81, 64
17, 33930, Note_on_c, 3, 81, 0
17, 33930, Note_on_c, 3, 80, 64
17, 33960, Note_on_c, 3, 80, 0
17, 33960, Note_on_c, 3, 81, 64
17, 34080, Note_on_c, 3, 81, 0
17, 34140, Note_on_c, 3, 76, 64
17, 34181, Note_on_c, 3, 76, 0
17, 34200, Note_on_c, 3, 81, 64
17, 34241, Note_on_c, 3, 81, 0
17, 34260, Note_on_c, 3, 76, 64
17, 34301, Note_on_c, 3, 76, 0
17, 34320, Note_on_c, 3, 73, 64
17, 34350, Note_on_c, 3, 73, 0
17, 34350, Note_on_c, 3, 71, 64
17, 34380, Note_on_c, 3, 71, 0
17, 34380, Note_on_c, 3, 73, 64
17, 34410, Note_on_c, 3, 73, 0
17, 34410, Note_on_c, 3, 74, 64
17, 34440, Note_on_c, 3, 74, 0
17, 34440, Note_on_c, 3, 76, 64
17, 34481, Note_on_c, 3, 76, 0
17, 34500, Note_on_c, 3, 73, 64
17, 34541, Note_on_c, 3, 73, 0
17, 34560, Note_on_c, 3, 76, 64
17, 34601, Note_on_c, 3, 76, 0
17, 34620, Note_on_c, 3, 73, 64
17, 34661, Note_on_c, 3, 73, 0
17, 34680, Note_on_c, 3, 69, 64
17, 34721, Note_on_c, 3, 69, 0
17, 34740, Note_on_c, 3, 73, 64
17, 34770, Note_on_c, 3, 73, 0
17, 34770, Note_on_c, 3, 71, 64
17, 34800, Note_on_c, 3, 71, 0
17, 34800, Note_on_c, 3, 69, 64
17, 34841, Note_on_c, 3, 69, 0
17, 34860, Note_on_c, 3, 73, 64
17, 34901, Note_on_c, 3, 73, 0
17, 34920, Note_on_c, 3, 74, 64
17, 34961, Note_on_c, 3, 74, 0
17, 34980, Note_on_c, 3, 78, 64
17, 35021, Note_on_c, 3, 78, 0
17, 35040, Note_on_c, 3, 71, 64
17, 35081, Note_on_c, 3, 71, 0
17, 35100, Note_on_c, 3, 74, 64
17, 35130, Note_on_c, 3, 74, 0
17, 35130, Note_on_c, 3, 73, 64
17, 35160, Note_on_c, 3, 73, 0
17, 35160, Note_on_c, 3, 71, 64
17, 35201, Note_on_c, 3, 71, 0
17, 35220, Note_on_c, 3, 74, 64
17, 35261, Note_on_c, 3, 74, 0
17, 35280, Note_on_c, 3, 76, 64
17, 35321, Note_on_c, 3, 76, 0
17, 35340, Note_on_c, 3, 79, 64
17, 35381, Note_on_c, 3, 79, 0
17, 35400, Note_on_c, 3, 73, 64
17, 35441, Note_on_c, 3, 73, 0
17, 35460, Note_on_c, 3, 76, 64
17, 35490, Note_on_c, 3, 76, 0
17, 35490, Note_on_c, 3, 74, 64
17, 35520, Note_on_c, 3, 74, 0
17, 35520, Note_on_c, 3, 73, 64
17, 35561, Note_on_c, 3, 73, 0
17, 35580, Note_on_c, 3, 76, 64
17, 35621, Note_on_c, 3, 76, 0
17, 35640, Note_on_c, 3, 69, 64
17, 35681, Note_on_c, 3, 69, 0
17, 35700, Note_on_c, 3, 79, 64
17, 35741, Note_on_c, 3, 79, 0
17, 35760, Note_on_c, 3, 78, 64
17, 35801, Note_on_c, 3, 78, 0
17, 35820, Note_on_c, 3, 76, 64
17, 35850, Note_on_c, 3, 76, 0
17, 35850, Note_on_c, 3, 78, 64
17, 35880, Note_on_c, 3, 78, 0
17, 35880, Note_on_c, 3, 74, 64
17, 35921, Note_on_c, 3, 74, 0
17, 35940, Note_on_c, 3, 69, 64
17, 35981, Note_on_c, 3, 69, 0
17, 36000, Note_on_c, 3, 66, 64
17, 36041, Note_on_c, 3, 66, 0
17, 36060, Note_on_c, 3, 69, 64
17, 36101, Note_on_c, 3, 69, 0
17, 36120, Note_on_c, 3, 62, 64
17, 36150, Note_on_c, 3, 62, 0
17, 36150, Note_on_c, 3, 64, 64
17, 36180, Note_on_c, 3, 64, 0
17, 36180, Note_on_c, 3, 62, 64
17, 36210, Note_on_c, 3, 62, 0
17, 36210, Note_on_c, 3, 64, 64
17, 36240, Note_on_c, 3, 64, 0
17, 36240, Note_on_c, 3, 66, 64
17, 36270, Note_on_c, 3, 66, 0
17, 36270, Note_on_c, 3, 64, 64
17, 36300, Note_on_c, 3, 64, 0
17, 36300, Note_on_c, 3, 62, 64
17, 36330, Note_on_c, 3, 62, 0
17, 36330, Note_on_c, 3, 64, 65
17, 36360, Note_on_c, 3, 64, 0
17, 36360, Note_on_c, 3, 66, 65
17, 36390, Note_on_c, 3, 66, 0
17, 36390, Note_on_c, 3, 64, 65
17, 36420, Note_on_c, 3, 64, 0
17, 36420, Note_on_c, 3, 62, 65
17, 36450, Note_on_c, 3, 62, 0
17, 36450, Note_on_c, 3, 64, 65
17, 36480, Note_on_c, 3, 64, 0
17, 36480, Note_on_c, 3, 66, 65
17, 36510, Note_on_c, 3, 66, 0
17, 36510, Note_on_c, 3, 64, 65
17, 36540, Note_on_c, 3, 64, 0
17, 36540, Note_on_c, 3, 62, 65
17, 36570, Note_on_c, 3, 62, 0
17, 36570, Note_on_c, 3, 64, 65
17, 36600, Note_on_c, 3, 64, 0
17, 36600, Note_on_c, 3, 66, 65
17, 36630, Note_on_c, 3, 66, 0
17, 36630, Note_on_c, 3, 67, 65
17, 36660, Note_on_c, 3, 67, 0
17, 36660, Note_on_c, 3, 69, 65
17, 36690, Note_on_c, 3, 69, 0
17, 36690, Note_on_c, 3, 67, 65
17, 36720, Note_on_c, 3, 67, 0
17, 36720, Note_on_c, 3, 71, 65
17, 36750, Note_on_c, 3, 71, 0
17, 36750, Note_on_c, 3, 69, 66
17, 36780, Note_on_c, 3, 69, 0
17, 36780, Note_on_c, 3, 67, 66
17, 36810, Note_on_c, 3, 67, 0
17, 36810, Note_on_c, 3, 66, 66
17, 36840, Note_on_c, 3, 66, 0
17, 36840, Note_on_c, 3, 67, 66
17, 36870, Note_on_c, 3, 67, 0
17, 36870, Note_on_c, 3, 66, 66
17, 36900, Note_on_c, 3, 66, 0
17, 36900, Note_on_c, 3, 64, 66
17, 36930, Note_on_c, 3, 64, 0
17, 36930, Note_on_c, 3, 66, 66
17, 36960, Note_on_c, 3, 66, 0
17, 36960, Note_on_c, 3, 67, 66
17, 36990, Note_on_c, 3, 67, 0
17, 36990, Note_on_c, 3, 69, 66
17, 37020, Note_on_c, 3, 69, 0
17, 37020, Note_on_c, 3, 71, 66
17, 37050, Note_on_c, 3, 71, 0
17, 37050, Note_on_c, 3, 69, 66
17, 37080, Note_on_c, 3, 69, 0
17, 37080, Note_on_c, 3, 72, 66
17, 37110, Note_on_c, 3, 72, 0
17, 37110, Note_on_c, 3, 71, 66
17, 37140, Note_on_c, 3, 71, 0
17, 37140, Note_on_c, 3, 69, 66
17, 37170, Note_on_c, 3, 69, 0
17, 37170, Note_on_c, 3, 67, 67
17, 37200, Note_on_c, 3, 67, 0
17, 37200, Note_on_c, 3, 69, 67
17, 37230, Note_on_c, 3, 69, 0
17, 37230, Note_on_c, 3, 67, 67
17, 37260, Note_on_c, 3, 67, 0
17, 37260, Note_on_c, 3, 66, 67
17, 37290, Note_on_c, 3, 66, 0
17, 37290, Note_on_c, 3, 67, 67
17, 37320, Note_on_c, 3, 67, 0
17, 37320, Note_on_c, 3, 69, 67
17, 37350, Note_on_c, 3, 69, 0
17, 37350, Note_on_c, 3, 71, 67
17, 37380, Note_on_c, 3, 71, 0
17, 37380, Note_on_c, 3, 72, 67
17, 37410, Note_on_c, 3, 72, 0
17, 37410, Note_on_c, 3, 71, 67
17, 37440, Note_on_c, 3, 71, 0
17, 37440, Note_on_c, 3, 74, 67
17, 37470, Note_on_c, 3, 74, 0
17, 37470, Note_on_c, 3, 72, 67
17, 37500, Note_on_c, 3, 72, 0
17, 37500, Note_on_c, 3, 71, 67
17, 37530, Note_on_c, 3, 71, 0
17, 37530, Note_on_c, 3, 69, 67
17, 37560, Note_on_c, 3, 69, 0
17, 37560, Note_on_c, 3, 67, 67
17, 37590, Note_on_c, 3, 67, 0
17, 37590, Note_on_c, 3, 66, 68
17, 37620, Note_on_c, 3, 66, 0
17, 37620, Note_on_c, 3, 67, 68
17, 37650, Note_on_c, 3, 67, 0
17, 37650, Note_on_c, 3, 69, 68
17, 37680, Note_on_c, 3, 69, 0
17, 37680, Note_on_c, 3, 71, 68
17, 37980, Note_on_c, 3, 71, 0
17, 37980, Note_on_c, 3, 71, 68
17, 38010, Note_on_c, 3, 71, 0
17, 38010, Note_on_c, 3, 69, 69
17, 38040, Note_on_c, 3, 69, 0
17, 38040, Note_on_c, 3, 67, 69
17, 38081, Note_on_c, 3, 67, 0
17, 38100, Note_on_c, 3, 71, 69
17, 38141, Note_on_c, 3, 71, 0
17, 38160, Note_on_c, 3, 73, 69
17, 38201, Note_on_c, 3, 73, 0
17, 38220, Note_on_c, 3, 76, 69
17, 38261, Note_on_c, 3, 76, 0
17, 38280, Note_on_c, 3, 69, 69
17, 38310, Note_on_c, 3, 69, 0
17, 38310, Note_on_c, 3, 67, 69
17, 38340, Note_on_c, 3, 67, 0
17, 38340, Note_on_c, 3, 66, 69
17, 38370, Note_on_c, 3, 66, 0
17, 38370, Note_on_c, 3, 67, 69
17, 38400, Note_on_c, 3, 67, 0
17, 38400, Note_on_c, 3, 69, 69
17, 38700, Note_on_c, 3, 69, 0
17, 38700, Note_on_c, 3, 69, 71
17, 38730, Note_on_c, 3, 69, 0
17, 38730, Note_on_c, 3, 67, 71
17, 38760, Note_on_c, 3, 67, 0
17, 38760, Note_on_c, 3, 66, 71
17, 38801, Note_on_c, 3, 66, 0
17, 38820, Note_on_c, 3, 69, 72
17, 38861, Note_on_c, 3, 69, 0
17, 38880, Note_on_c, 3, 71, 72
17, 38921, Note_on_c, 3, 71, 0
17, 38940, Note_on_c, 3, 66, 73
17, 38981, Note_on_c, 3, 66, 0
17, 39000, Note_on_c, 3, 67, 73
17, 39030, Note_on_c, 3, 67, 0
17, 39030, Note_on_c, 3, 66, 74
17, 39060, Note_on_c, 3, 66, 0
17, 39060, Note_on_c, 3, 64, 74
17, 39090, Note_on_c, 3, 64, 0
17, 39090, Note_on_c, 3, 66, 74
17, 39120, Note_on_c, 3, 66, 0
17, 39120, Note_on_c, 3, 67, 74
17, 39150, Note_on_c, 3, 67, 0
17, 39150, Note_on_c, 3, 69, 75
17, 39180, Note_on_c, 3, 69, 0
17, 39180, Note_on_c, 3, 71, 75
17, 39210, Note_on_c, 3, 71, 0
17, 39210, Note_on_c, 3, 73, 75
17, 39240, Note_on_c, 3, 73, 0
17, 39240, Note_on_c, 3, 74, 76
17, 39270, Note_on_c, 3, 74, 0
17, 39270, Note_on_c, 3, 73, 76
17, 39300, Note_on_c, 3, 73, 0
17, 39300, Note_on_c, 3, 71, 76
17, 39330, Note_on_c, 3, 71, 0
17, 39330, Note_on_c, 3, 73, 76
17, 39360, Note_on_c, 3, 73, 0
17, 39360, Note_on_c, 3, 73, 77
17, 39390, Note_on_c, 3, 73, 0
17, 39390, Note_on_c, 3, 71, 77
17, 39420, Note_on_c, 3, 71, 0
17, 39420, Note_on_c, 3, 69, 77
17, 39450, Note_on_c, 3, 69, 0
17, 39450, Note_on_c, 3, 71, 78
17, 39480, Note_on_c, 3, 71, 0
17, 39480, Note_on_c, 3, 73, 78
17, 39510, Note_on_c, 3, 73, 0
17, 39510, Note_on_c, 3, 74, 78
17, 39540, Note_on_c, 3, 74, 0
17, 39540, Note_on_c, 3, 76, 78
17, 39570, Note_on_c, 3, 76, 0
17, 39570, Note_on_c, 3, 78, 79
17, 39600, Note_on_c, 3, 78, 0
17, 39600, Note_on_c, 3, 79, 79
17, 39630, Note_on_c, 3, 79, 0
17, 39630, Note_on_c, 3, 78, 79
17, 39660, Note_on_c, 3, 78, 0
17, 39660, Note_on_c, 3, 76, 79
17, 39690, Note_on_c, 3, 76, 0
17, 39690, Note_on_c, 3, 79, 80
17, 39720, Note_on_c, 3, 79, 0
17, 39720, Note_on_c, 3, 78, 75
17, 39761, Note_on_c, 3, 78, 0
17, 39780, Note_on_c, 3, 69, 75
17, 39821, Note_on_c, 3, 69, 0
17, 39840, Note_on_c, 3, 74, 75
17, 39881, Note_on_c, 3, 74, 0
17, 39900, Note_on_c, 3, 78, 75
17, 39941, Note_on_c, 3, 78, 0
17, 39960, Note_on_c, 3, 74, 75
17, 40001, Note_on_c, 3, 74, 0
17, 40020, Note_on_c, 3, 69, 75
17, 40061, Note_on_c, 3, 69, 0
17, 40140, Note_on_c, 3, 74, 75
17, 40181, Note_on_c, 3, 74, 0
17, 40200, Note_on_c, 3, 78, 75
17, 40241, Note_on_c, 3, 78, 0
17, 40260, Note_on_c, 3, 81, 75
17, 40301, Note_on_c, 3, 81, 0
17, 40320, Note_on_c, 3, 78, 75
17, 40361, Note_on_c, 3, 78, 0
17, 40380, Note_on_c, 3, 74, 75
17, 40421, Note_on_c, 3, 74, 0
17, 40500, Note_on_c, 3, 77, 76
17, 40541, Note_on_c, 3, 77, 0
17, 40560, Note_on_c, 3, 74, 76
17, 40601, Note_on_c, 3, 74, 0
17, 40620, Note_on_c, 3, 71, 77
17, 40661, Note_on_c, 3, 71, 0
17, 40680, Note_on_c, 3, 74, 77
17, 40721, Note_on_c, 3, 74, 0
17, 40740, Note_on_c, 3, 77, 78
17, 40781, Note_on_c, 3, 77, 0
17, 40860, Note_on_c, 3, 77, 79
17, 40901, Note_on_c, 3, 77, 0
17, 40920, Note_on_c, 3, 74, 79
17, 40961, Note_on_c, 3, 74, 0
17, 40980, Note_on_c, 3, 69, 80
17, 41021, Note_on_c, 3, 69, 0
17, 41040, Note_on_c, 3, 74, 81
17, 41081, Note_on_c, 3, 74, 0
17, 41100, Note_on_c, 3, 77, 81
17, 41141, Note_on_c, 3, 77, 0
17, 41220, Note_on_c, 3, 77, 82
17, 41261, Note_on_c, 3, 77, 0
17, 41280, Note_on_c, 3, 74, 83
17, 41321, Note_on_c, 3, 74, 0
17, 41340, Note_on_c, 3, 71, 83
17, 41381, Note_on_c, 3, 71, 0
17, 41400, Note_on_c, 3, 74, 84
17, 41441, Note_on_c, 3, 74, 0
17, 41460, Note_on_c, 3, 76, 84
17, 41501, Note_on_c, 3, 76, 0
17, 41580, Note_on_c, 3, 76, 82
17, 41621, Note_on_c, 3, 76, 0
17, 41640, Note_on_c, 3, 73, 80
17, 41681, Note_on_c, 3, 73, 0
17, 41700, Note_on_c, 3, 69, 77
17, 41741, Note_on_c, 3, 69, 0
17, 41760, Note_on_c, 3, 73, 75
17, 41801, Note_on_c, 3, 73, 0
17, 41820, Note_on_c, 3, 76, 72
17, 41861, Note_on_c, 3, 76, 0
17, 41880, Note_on_c, 3, 81, 70
17, 41921, Note_on_c, 3, 81, 0
17, 41940, Note_on_c, 3, 66, 71
17, 41970, Note_on_c, 3, 66, 0
17, 41970, Note_on_c, 3, 67, 71
17, 42000, Note_on_c, 3, 67, 0
17, 42000, Note_on_c, 3, 69, 71
17, 42030, Note_on_c, 3, 69, 0
17, 42030, Note_on_c, 3, 71, 71
17, 42060, Note_on_c, 3, 71, 0
17, 42060, Note_on_c, 3, 72, 72
17, 42090, Note_on_c, 3, 72, 0
17, 42090, Note_on_c, 3, 71, 72
17, 42120, Note_on_c, 3, 71, 0
17, 42120, Note_on_c, 3, 74, 72
17, 42150, Note_on_c, 3, 74, 0
17, 42150, Note_on_c, 3, 72, 72
17, 42180, Note_on_c, 3, 72, 0
17, 42180, Note_on_c, 3, 71, 73
17, 42210, Note_on_c, 3, 71, 0
17, 42210, Note_on_c, 3, 69, 73
17, 42240, Note_on_c, 3, 69, 0
17, 42240, Note_on_c, 3, 71, 73
17, 42270, Note_on_c, 3, 71, 0
17, 42270, Note_on_c, 3, 69, 73
17, 42300, Note_on_c, 3, 69, 0
17, 42300, Note_on_c, 3, 67, 74
17, 42330, Note_on_c, 3, 67, 0
17, 42330, Note_on_c, 3, 69, 74
17, 42360, Note_on_c, 3, 69, 0
17, 42360, Note_on_c, 3, 71, 74
17, 42390, Note_on_c, 3, 71, 0
17, 42390, Note_on_c, 3, 73, 74
17, 42420, Note_on_c, 3, 73, 0
17, 42420, Note_on_c, 3, 74, 75
17, 42450, Note_on_c, 3, 74, 0
17, 42450, Note_on_c, 3, 73, 75
17, 42480, Note_on_c, 3, 73, 0
17, 42480, Note_on_c, 3, 76, 75
17, 42510, Note_on_c, 3, 76, 0
17, 42510, Note_on_c, 3, 74, 75
17, 42540, Note_on_c, 3, 74, 0
17, 42540, Note_on_c, 3, 73, 76
17, 42570, Note_on_c, 3, 73, 0
17, 42570, Note_on_c, 3, 71, 76
17, 42600, Note_on_c, 3, 71, 0
17, 42600, Note_on_c, 3, 73, 76
17, 42630, Note_on_c, 3, 73, 0
17, 42630, Note_on_c, 3, 71, 76
17, 42660, Note_on_c, 3, 71, 0
17, 42660, Note_on_c, 3, 69, 77
17, 42690, Note_on_c, 3, 69, 0
17, 42690, Note_on_c, 3, 71, 77
17, 42720, Note_on_c, 3, 71, 0
17, 42720, Note_on_c, 3, 73, 77
17, 42750, Note_on_c, 3, 73, 0
17, 42750, Note_on_c, 3, 74, 77
17, 42780, Note_on_c, 3, 74, 0
17, 42780, Note_on_c, 3, 76, 78
17, 42810, Note_on_c, 3, 76, 0
17, 42810, Note_on_c, 3, 74, 78
17, 42840, Note_on_c, 3, 74, 0
17, 42840, Note_on_c, 3, 78, 78
17, 42870, Note_on_c, 3, 78, 0
17, 42870, Note_on_c, 3, 76, 78
17, 42900, Note_on_c, 3, 76, 0
17, 42900, Note_on_c, 3, 74, 79
17, 42930, Note_on_c, 3, 74, 0
17, 42930, Note_on_c, 3, 73, 79
17, 42960, Note_on_c, 3, 73, 0
17, 42960, Note_on_c, 3, 74, 79
17, 42990, Note_on_c, 3, 74, 0
17, 42990, Note_on_c, 3, 73, 79
17, 43020, Note_on_c, 3, 73, 0
17, 43020, Note_on_c, 3, 71, 80
17, 43050, Note_on_c, 3, 71, 0
17, 43050, Note_on_c, 3, 73, 80
17, 43080, Note_on_c, 3, 73, 0
17, 43080, Note_on_c, 3, 74, 80
17, 43110, Note_on_c, 3, 74, 0
17, 43110, Note_on_c, 3, 76, 80
17, 43140, Note_on_c, 3, 76, 0
17, 43140, Note_on_c, 3, 78, 81
17, 43170, Note_on_c, 3, 78, 0
17, 43170, Note_on_c, 3, 76, 81
17, 43200, Note_on_c, 3, 76, 0
17, 43200, Note_on_c, 3, 79, 81
17, 43230, Note_on_c, 3, 79, 0
17, 43230, Note_on_c, 3, 78, 81
17, 43260, Note_on_c, 3, 78, 0
17, 43260, Note_on_c, 3, 76, 82
17, 43290, Note_on_c, 3, 76, 0
17, 43290, Note_on_c, 3, 74, 82
17, 43320, Note_on_c, 3, 74, 0
17, 43320, Note_on_c, 3, 76, 82
17, 43350, Note_on_c, 3, 76, 0
17, 43350, Note_on_c, 3, 74, 82
17, 43380, Note_on_c, 3, 74, 0
17, 43380, Note_on_c, 3, 73, 83
17, 43410, Note_on_c, 3, 73, 0
17, 43410, Note_on_c, 3, 74, 83
17, 43440, Note_on_c, 3, 74, 0
17, 43440, Note_on_c, 3, 76, 83
17, 43470, Note_on_c, 3, 76, 0
17, 43470, Note_on_c, 3, 78, 83
17, 43500, Note_on_c, 3, 78, 0
17, 43500, Note_on_c, 3, 79, 84
17, 43530, Note_on_c, 3, 79, 0
17, 43530, Note_on_c, 3, 78, 84
17, 43560, Note_on_c, 3, 78, 0
17, 43560, Note_on_c, 3, 81, 84
17, 43590, Note_on_c, 3, 81, 0
17, 43590, Note_on_c, 3, 79, 84
17, 43620, Note_on_c, 3, 79, 0
17, 43620, Note_on_c, 3, 78, 85
17, 43650, Note_on_c, 3, 78, 0
17, 43650, Note_on_c, 3, 76, 85
17, 43680, Note_on_c, 3, 76, 0
17, 43680, Note_on_c, 3, 78, 80
17, 43721, Note_on_c, 3, 78, 0
17, 43740, Note_on_c, 3, 78, 81
17, 43770, Note_on_c, 3, 78, 0
17, 43770, Note_on_c, 3, 76, 81
17, 43800, Note_on_c, 3, 76, 0
17, 43800, Note_on_c, 3, 78, 81
17, 44100, Note_on_c, 3, 78, 0
17, 44100, Note_on_c, 3, 76, 84
17, 44130, Note_on_c, 3, 76, 0
17, 44130, Note_on_c, 3, 74, 84
17, 44160, Note_on_c, 3, 74, 0
17, 44160, Note_on_c, 3, 76, 84
17, 44460, Note_on_c, 3, 76, 0
17, 44460, Note_on_c, 3, 74, 87
17, 44490, Note_on_c, 3, 74, 0
17, 44490, Note_on_c, 3, 73, 88
17, 44520, Note_on_c, 3, 73, 0
17, 44520, Note_on_c, 3, 74, 88
17, 44790, Note_on_c, 3, 74, 0
17, 44790, Note_on_c, 3, 73, 90
17, 44820, Note_on_c, 3, 73, 0
17, 44820, Note_on_c, 3, 71, 91
17, 44850, Note_on_c, 3, 71, 0
17, 44850, Note_on_c, 3, 73, 91
17, 44880, Note_on_c, 3, 73, 0
17, 44880, Note_on_c, 3, 74, 91
17, 44910, Note_on_c, 3, 74, 0
17, 44910, Note_on_c, 3, 71, 91
17, 44940, Note_on_c, 3, 71, 0
17, 44940, Note_on_c, 3, 73, 92
17, 44970, Note_on_c, 3, 73, 0
17, 44970, Note_on_c, 3, 74, 92
17, 45000, Note_on_c, 3, 74, 0
17, 45000, Note_on_c, 3, 76, 92
17, 45030, Note_on_c, 3, 76, 0
17, 45030, Note_on_c, 3, 78, 93
17, 45060, Note_on_c, 3, 78, 0
17, 45060, Note_on_c, 3, 79, 93
17, 45090, Note_on_c, 3, 79, 0
17, 45090, Note_on_c, 3, 76, 93
17, 45120, Note_on_c, 3, 76, 0
17, 45120, Note_on_c, 3, 73, 93
17, 45150, Note_on_c, 3, 73, 0
17, 45150, Note_on_c, 3, 81, 94
17, 45180, Note_on_c, 3, 81, 0
17, 45180, Note_on_c, 3, 79, 94
17, 45210, Note_on_c, 3, 79, 0
17, 45210, Note_on_c, 3, 78, 94
17, 45240, Note_on_c, 3, 78, 0
17, 45240, Note_on_c, 3, 76, 94
17, 45270, Note_on_c, 3, 76, 0
17, 45270, Note_on_c, 3, 74, 95
17, 45300, Note_on_c, 3, 74, 0
17, 45300, Note_on_c, 3, 73, 95
17, 45330, Note_on_c, 3, 73, 0
17, 45330, Note_on_c, 3, 71, 95
17, 45360, Note_on_c, 3, 71, 0
17, 45360, Note_on_c, 3, 69, 96
17, 45390, Note_on_c, 3, 69, 0
17, 45390, Note_on_c, 3, 71, 96
17, 45420, Note_on_c, 3, 71, 0
17, 45420, Note_on_c, 3, 73, 96
17, 45450, Note_on_c, 3, 73, 0
17, 45450, Note_on_c, 3, 69, 96
17, 45480, Note_on_c, 3, 69, 0
17, 45480, Note_on_c, 3, 74, 97
17, 45510, Note_on_c, 3, 74, 0
17, 45510, Note_on_c, 3, 76, 97
17, 45540, Note_on_c, 3, 76, 0
17, 45540, Note_on_c, 3, 78, 97
17, 45570, Note_on_c, 3, 78, 0
17, 45570, Note_on_c, 3, 79, 98
17, 45600, Note_on_c, 3, 79, 0
17, 45600, Note_on_c, 3, 81, 98
17, 45630, Note_on_c, 3, 81, 0
17, 45630, Note_on_c, 3, 79, 98
17, 45660, Note_on_c, 3, 79, 0
17, 45660, Note_on_c, 3, 83, 98
17, 45690, Note_on_c, 3, 83, 0
17, 45690, Note_on_c, 3, 81, 99
17, 45720, Note_on_c, 3, 81, 0
17, 45720, Note_on_c, 3, 79, 99
17, 45750, Note_on_c, 3, 79, 0
17, 45750, Note_on_c, 3, 78, 99
17, 45780, Note_on_c, 3, 78, 0
17, 45780, Note_on_c, 3, 76, 99
17, 45810, Note_on_c, 3, 76, 0
17, 45810, Note_on_c, 3, 78, 100
17, 45840, Note_on_c, 3, 78, 0
17, 45840, Note_on_c, 3, 74, 100
17, 46200, Note_on_c, 3, 74, 0
17, 46560, End_track
0, 0, End_of_file
