0, 0, Header, 1, 20, 1024
1, 0, Start_track
1, 0, Time_signature, 1, 1, 48, 8
1, 0, Key_signature, 2, "major"
1, 0, Tempo, 500000
1, 0, Title_t, "Bach's B minor Mass: 23. Dona nobis pacem"
1, 0, Text_t, "seq. by David Siu   dss@po.cwru.edu"
1, 2048, Time_signature, 4, 1, 48, 8
1, 2048, Tempo, 461538
1, 337792, Tempo, 504201
1, 345984, Tempo, 517241
1, 348096, Tempo, 521739
1, 350208, Tempo, 526315
1, 352320, Tempo, 530973
1, 354432, Tempo, 535714
1, 354688, Tempo, 504201
1, 355280, Tempo, 508474
1, 355872, Tempo, 512820
1, 356464, Tempo, 517241
1, 357056, Tempo, 521739
1, 357648, Tempo, 526315
1, 358240, Tempo, 530973
1, 358832, Tempo, 535714
1, 359424, Tempo, 540540
1, 360016, Tempo, 545454
1, 360608, Tempo, 550458
1, 361200, Tempo, 555555
1, 361792, Tempo, 560747
1, 362368, Tempo, 566037
1, 362776, Tempo, 571428
1, 363048, Tempo, 576923
1, 363320, Tempo, 582524
1, 363592, Tempo, 588235
1, 363864, Tempo, 594059
1, 364136, Tempo, 600000
1, 364408, Tempo, 606060
1, 364680, Tempo, 612244
1, 365088, Tempo, 618556
1, 365360, Tempo, 625000
1, 365632, Tempo, 631578
1, 365904, Tempo, 638297
1, 366176, Tempo, 645161
1, 366448, Tempo, 652173
1, 366720, Tempo, 659340
1, 366772, Tempo, 666666
1, 366908, Tempo, 674157
1, 367044, Tempo, 681818
1, 367180, Tempo, 697674
1, 367316, Tempo, 705882
1, 367452, Tempo, 714285
1, 367588, Tempo, 731707
1, 367724, Tempo, 740740
1, 367860, Tempo, 750000
1, 367996, Tempo, 769230
1, 368132, Tempo, 779220
1, 368268, Tempo, 789473
1, 368404, Tempo, 810810
1, 368540, Tempo, 821917
1, 368676, Tempo, 833333
1, 368692, Tempo, 937500
1, 369372, Tempo, 952380
1, 369916, Tempo, 967741
1, 369926, Tempo, 1153846
1, 370470, Tempo, 1818181
1, 370628, Tempo, 821917
1, 387072, End_track
2, 0, Start_track
2, 0, Title_t, "Violone"
2, 0, Program_c, 15, 48
2, 0, Control_c, 15, 121, 127
2, 0, Control_c, 15, 91, 127
2, 0, Control_c, 15, 1, 20
2, 0, Control_c, 15, 10, 110
2, 0, Control_c, 15, 11, 90
2, 4096, Note_on_c, 15, 38, 36
2, 6144, Note_on_c, 15, 38, 0
2, 6144, Note_on_c, 15, 40, 37
2, 8192, Note_on_c, 15, 40, 0
2, 8192, Note_on_c, 15, 42, 39
2, 10240, Note_on_c, 15, 42, 0
2, 10240, Note_on_c, 15, 43, 40
2, 12288, Note_on_c, 15, 43, 0
2, 12288, Note_on_c, 15, 42, 41
2, 13312, Note_on_c, 15, 42, 0
2, 13312, Note_on_c, 15, 40, 42
2, 14336, Note_on_c, 15, 40, 0
2, 14336, Note_on_c, 15, 42, 42
2, 15360, Note_on_c, 15, 42, 0
2, 15360, Note_on_c, 15, 38, 43
2, 16384, Note_on_c, 15, 38, 0
2, 16384, Note_on_c, 15, 43, 44
2, 20480, Note_on_c, 15, 43, 0
2, 20480, Note_on_c, 15, 42, 46
2, 22528, Note_on_c, 15, 42, 0
2, 22528, Note_on_c, 15, 40, 48
2, 26624, Note_on_c, 15, 40, 0
2, 26624, Note_on_c, 15, 38, 50
2, 30720, Note_on_c, 15, 38, 0
2, 30720, Note_on_c, 15, 45, 53
2, 34816, Note_on_c, 15, 45, 0
2, 34816, Note_on_c, 15, 52, 55
2, 36864, Note_on_c, 15, 52, 0
2, 36864, Note_on_c, 15, 45, 52
2, 40960, Note_on_c, 15, 45, 0
2, 40960, Note_on_c, 15, 44, 45
2, 43008, Note_on_c, 15, 44, 0
2, 43008, Note_on_c, 15, 45, 41
2, 44032, Note_on_c, 15, 45, 0
2, 44032, Note_on_c, 15, 43, 37
2, 44544, Note_on_c, 15, 43, 0
2, 44544, Note_on_c, 15, 42, 37
2, 45056, Note_on_c, 15, 42, 0
2, 45056, Note_on_c, 15, 40, 38
2, 45568, Note_on_c, 15, 40, 0
2, 45568, Note_on_c, 15, 42, 38
2, 46080, Note_on_c, 15, 42, 0
2, 46080, Note_on_c, 15, 38, 39
2, 46592, Note_on_c, 15, 38, 0
2, 46592, Note_on_c, 15, 40, 40
2, 47104, Note_on_c, 15, 40, 0
2, 47104, Note_on_c, 15, 42, 40
2, 47616, Note_on_c, 15, 42, 0
2, 47616, Note_on_c, 15, 40, 41
2, 48128, Note_on_c, 15, 40, 0
2, 48128, Note_on_c, 15, 42, 41
2, 48640, Note_on_c, 15, 42, 0
2, 48640, Note_on_c, 15, 43, 42
2, 49152, Note_on_c, 15, 43, 0
2, 49152, Note_on_c, 15, 42, 42
2, 49664, Note_on_c, 15, 42, 0
2, 49664, Note_on_c, 15, 43, 43
2, 50176, Note_on_c, 15, 43, 0
2, 50176, Note_on_c, 15, 42, 44
2, 50688, Note_on_c, 15, 42, 0
2, 50688, Note_on_c, 15, 40, 44
2, 51200, Note_on_c, 15, 40, 0
2, 51200, Note_on_c, 15, 38, 45
2, 52224, Note_on_c, 15, 38, 0
2, 52224, Note_on_c, 15, 35, 46
2, 53248, Note_on_c, 15, 35, 0
2, 53248, Note_on_c, 15, 40, 47
2, 55296, Note_on_c, 15, 40, 0
2, 55296, Note_on_c, 15, 33, 49
2, 57344, Note_on_c, 15, 33, 0
2, 57344, Note_on_c, 15, 45, 52
2, 59392, Note_on_c, 15, 45, 0
2, 59392, Note_on_c, 15, 38, 54
2, 61440, Note_on_c, 15, 38, 0
2, 61440, Note_on_c, 15, 50, 56
2, 63488, Note_on_c, 15, 50, 0
2, 63488, Note_on_c, 15, 43, 58
2, 65536, Note_on_c, 15, 43, 0
2, 65536, Note_on_c, 15, 38, 57
2, 67584, Note_on_c, 15, 38, 0
2, 67584, Note_on_c, 15, 40, 52
2, 69632, Note_on_c, 15, 40, 0
2, 69632, Note_on_c, 15, 42, 42
2, 71680, Note_on_c, 15, 42, 0
2, 71680, Note_on_c, 15, 43, 44
2, 73728, Note_on_c, 15, 43, 0
2, 73728, Note_on_c, 15, 42, 46
2, 74752, Note_on_c, 15, 42, 0
2, 74752, Note_on_c, 15, 40, 47
2, 75776, Note_on_c, 15, 40, 0
2, 75776, Note_on_c, 15, 42, 48
2, 76800, Note_on_c, 15, 42, 0
2, 76800, Note_on_c, 15, 35, 49
2, 77824, Note_on_c, 15, 35, 0
2, 77824, Note_on_c, 15, 47, 51
2, 80896, Note_on_c, 15, 47, 0
2, 80896, Note_on_c, 15, 45, 54
2, 82944, Note_on_c, 15, 45, 0
2, 82944, Note_on_c, 15, 50, 56
2, 83968, Note_on_c, 15, 50, 0
2, 83968, Note_on_c, 15, 43, 57
2, 84992, Note_on_c, 15, 43, 0
2, 84992, Note_on_c, 15, 47, 58
2, 86016, Note_on_c, 15, 47, 0
2, 86016, Note_on_c, 15, 45, 59
2, 87040, Note_on_c, 15, 45, 0
2, 87040, Note_on_c, 15, 43, 60
2, 88064, Note_on_c, 15, 43, 0
2, 88064, Note_on_c, 15, 42, 61
2, 92672, Note_on_c, 15, 42, 0
2, 92672, Note_on_c, 15, 40, 66
2, 93184, Note_on_c, 15, 40, 0
2, 93184, Note_on_c, 15, 42, 67
2, 93696, Note_on_c, 15, 42, 0
2, 93696, Note_on_c, 15, 43, 68
2, 94208, Note_on_c, 15, 43, 0
2, 94208, Note_on_c, 15, 42, 68
2, 94720, Note_on_c, 15, 42, 0
2, 94720, Note_on_c, 15, 40, 69
2, 95232, Note_on_c, 15, 40, 0
2, 95232, Note_on_c, 15, 38, 69
2, 95744, Note_on_c, 15, 38, 0
2, 95744, Note_on_c, 15, 37, 70
2, 96256, Note_on_c, 15, 37, 0
2, 96256, Note_on_c, 15, 35, 70
2, 98304, Note_on_c, 15, 35, 0
2, 98304, Note_on_c, 15, 37, 72
2, 100352, Note_on_c, 15, 37, 0
2, 100352, Note_on_c, 15, 38, 75
2, 101376, Note_on_c, 15, 38, 0
2, 101376, Note_on_c, 15, 42, 76
2, 102400, Note_on_c, 15, 42, 0
2, 102400, Note_on_c, 15, 47, 77
2, 106496, Note_on_c, 15, 47, 0
2, 106496, Note_on_c, 15, 46, 76
2, 108544, Note_on_c, 15, 46, 0
2, 108544, Note_on_c, 15, 47, 75
2, 109056, Note_on_c, 15, 47, 0
2, 109056, Note_on_c, 15, 49, 75
2, 109568, Note_on_c, 15, 49, 0
2, 109568, Note_on_c, 15, 45, 74
2, 110080, Note_on_c, 15, 45, 0
2, 110080, Note_on_c, 15, 47, 74
2, 110592, Note_on_c, 15, 47, 0
2, 110592, Note_on_c, 15, 49, 74
2, 111104, Note_on_c, 15, 49, 0
2, 111104, Note_on_c, 15, 50, 73
2, 111616, Note_on_c, 15, 50, 0
2, 111616, Note_on_c, 15, 47, 73
2, 112128, Note_on_c, 15, 47, 0
2, 112128, Note_on_c, 15, 49, 73
2, 112640, Note_on_c, 15, 49, 0
2, 112640, Note_on_c, 15, 50, 72
2, 113152, Note_on_c, 15, 50, 0
2, 113152, Note_on_c, 15, 49, 72
2, 113664, Note_on_c, 15, 49, 0
2, 113664, Note_on_c, 15, 50, 72
2, 114176, Note_on_c, 15, 50, 0
2, 114176, Note_on_c, 15, 52, 71
2, 114688, Note_on_c, 15, 52, 0
2, 114688, Note_on_c, 15, 50, 71
2, 115200, Note_on_c, 15, 50, 0
2, 115200, Note_on_c, 15, 52, 71
2, 115712, Note_on_c, 15, 52, 0
2, 115712, Note_on_c, 15, 50, 70
2, 116224, Note_on_c, 15, 50, 0
2, 116224, Note_on_c, 15, 49, 70
2, 116736, Note_on_c, 15, 49, 0
2, 116736, Note_on_c, 15, 47, 70
2, 121856, Note_on_c, 15, 47, 0
2, 121856, Note_on_c, 15, 49, 76
2, 122880, Note_on_c, 15, 49, 0
2, 122880, Note_on_c, 15, 50, 78
2, 124928, Note_on_c, 15, 50, 0
2, 124928, Note_on_c, 15, 45, 83
2, 126976, Note_on_c, 15, 45, 0
2, 126976, Note_on_c, 15, 43, 87
2, 128000, Note_on_c, 15, 43, 0
2, 128000, Note_on_c, 15, 42, 90
2, 129024, Note_on_c, 15, 42, 0
2, 129024, Note_on_c, 15, 40, 92
2, 131072, Note_on_c, 15, 40, 0
2, 131072, Note_on_c, 15, 45, 91
2, 133120, Note_on_c, 15, 45, 0
2, 133120, Note_on_c, 15, 38, 88
2, 135168, Note_on_c, 15, 38, 0
2, 135168, Note_on_c, 15, 40, 85
2, 137216, Note_on_c, 15, 40, 0
2, 137216, Note_on_c, 15, 33, 83
2, 143360, Note_on_c, 15, 33, 0
2, 143360, Note_on_c, 15, 34, 77
2, 143872, Note_on_c, 15, 34, 0
2, 143872, Note_on_c, 15, 35, 77
2, 144384, Note_on_c, 15, 35, 0
2, 144384, Note_on_c, 15, 32, 77
2, 144896, Note_on_c, 15, 32, 0
2, 144896, Note_on_c, 15, 34, 77
2, 145408, Note_on_c, 15, 34, 0
2, 145408, Note_on_c, 15, 35, 77
2, 145920, Note_on_c, 15, 35, 0
2, 145920, Note_on_c, 15, 37, 78
2, 146432, Note_on_c, 15, 37, 0
2, 146432, Note_on_c, 15, 34, 78
2, 146944, Note_on_c, 15, 34, 0
2, 146944, Note_on_c, 15, 35, 78
2, 147456, Note_on_c, 15, 35, 0
2, 147456, Note_on_c, 15, 37, 78
2, 147968, Note_on_c, 15, 37, 0
2, 147968, Note_on_c, 15, 38, 78
2, 148480, Note_on_c, 15, 38, 0
2, 148480, Note_on_c, 15, 35, 78
2, 148992, Note_on_c, 15, 35, 0
2, 148992, Note_on_c, 15, 37, 78
2, 149504, Note_on_c, 15, 37, 0
2, 149504, Note_on_c, 15, 38, 79
2, 150016, Note_on_c, 15, 38, 0
2, 150016, Note_on_c, 15, 37, 79
2, 150528, Note_on_c, 15, 37, 0
2, 150528, Note_on_c, 15, 38, 78
2, 151040, Note_on_c, 15, 38, 0
2, 151040, Note_on_c, 15, 40, 77
2, 151552, Note_on_c, 15, 40, 0
2, 151552, Note_on_c, 15, 36, 76
2, 152064, Note_on_c, 15, 36, 0
2, 152064, Note_on_c, 15, 35, 75
2, 152576, Note_on_c, 15, 35, 0
2, 152576, Note_on_c, 15, 36, 75
2, 153088, Note_on_c, 15, 36, 0
2, 153088, Note_on_c, 15, 38, 74
2, 153600, Note_on_c, 15, 38, 0
2, 153600, Note_on_c, 15, 35, 73
2, 154112, Note_on_c, 15, 35, 0
2, 154112, Note_on_c, 15, 37, 72
2, 154624, Note_on_c, 15, 37, 0
2, 154624, Note_on_c, 15, 39, 72
2, 155136, Note_on_c, 15, 39, 0
2, 155136, Note_on_c, 15, 35, 71
2, 155648, Note_on_c, 15, 35, 0
2, 155648, Note_on_c, 15, 40, 70
2, 157696, Note_on_c, 15, 40, 0
2, 157696, Note_on_c, 15, 33, 67
2, 159744, Note_on_c, 15, 33, 0
2, 159744, Note_on_c, 15, 35, 66
2, 161792, Note_on_c, 15, 35, 0
2, 161792, Note_on_c, 15, 28, 67
2, 163840, Note_on_c, 15, 28, 0
2, 163840, Note_on_c, 15, 55, 67
2, 167936, Note_on_c, 15, 55, 0
2, 167936, Note_on_c, 15, 54, 69
2, 169984, Note_on_c, 15, 54, 0
2, 169984, Note_on_c, 15, 55, 69
2, 171008, Note_on_c, 15, 55, 0
2, 171008, Note_on_c, 15, 54, 70
2, 171520, Note_on_c, 15, 54, 0
2, 171520, Note_on_c, 15, 52, 70
2, 172032, Note_on_c, 15, 52, 0
2, 172032, Note_on_c, 15, 47, 70
2, 176128, Note_on_c, 15, 47, 0
2, 176128, Note_on_c, 15, 46, 71
2, 178176, Note_on_c, 15, 46, 0
2, 178176, Note_on_c, 15, 47, 72
2, 179200, Note_on_c, 15, 47, 0
2, 179200, Note_on_c, 15, 45, 72
2, 179712, Note_on_c, 15, 45, 0
2, 179712, Note_on_c, 15, 43, 73
2, 180224, Note_on_c, 15, 43, 0
2, 180224, Note_on_c, 15, 38, 73
2, 184320, Note_on_c, 15, 38, 0
2, 184320, Note_on_c, 15, 37, 74
2, 186368, Note_on_c, 15, 37, 0
2, 186368, Note_on_c, 15, 38, 75
2, 187392, Note_on_c, 15, 38, 0
2, 187392, Note_on_c, 15, 37, 75
2, 187904, Note_on_c, 15, 37, 0
2, 187904, Note_on_c, 15, 35, 75
2, 188416, Note_on_c, 15, 35, 0
2, 188416, Note_on_c, 15, 33, 76
2, 188928, Note_on_c, 15, 33, 0
2, 188928, Note_on_c, 15, 35, 76
2, 189440, Note_on_c, 15, 35, 0
2, 189440, Note_on_c, 15, 32, 76
2, 189952, Note_on_c, 15, 32, 0
2, 189952, Note_on_c, 15, 33, 77
2, 190464, Note_on_c, 15, 33, 0
2, 190464, Note_on_c, 15, 35, 77
2, 190976, Note_on_c, 15, 35, 0
2, 190976, Note_on_c, 15, 33, 78
2, 191488, Note_on_c, 15, 33, 0
2, 191488, Note_on_c, 15, 35, 78
2, 192000, Note_on_c, 15, 35, 0
2, 192000, Note_on_c, 15, 37, 78
2, 192512, Note_on_c, 15, 37, 0
2, 192512, Note_on_c, 15, 35, 79
2, 193024, Note_on_c, 15, 35, 0
2, 193024, Note_on_c, 15, 38, 79
2, 193536, Note_on_c, 15, 38, 0
2, 193536, Note_on_c, 15, 37, 80
2, 194048, Note_on_c, 15, 37, 0
2, 194048, Note_on_c, 15, 35, 80
2, 194560, Note_on_c, 15, 35, 0
2, 194560, Note_on_c, 15, 33, 80
2, 195584, Note_on_c, 15, 33, 0
2, 195584, Note_on_c, 15, 35, 81
2, 196608, Note_on_c, 15, 35, 0
2, 196608, Note_on_c, 15, 37, 82
2, 198656, Note_on_c, 15, 37, 0
2, 198656, Note_on_c, 15, 30, 83
2, 199680, Note_on_c, 15, 30, 0
2, 199680, Note_on_c, 15, 42, 84
2, 200704, Note_on_c, 15, 42, 0
2, 200704, Note_on_c, 15, 47, 85
2, 203776, Note_on_c, 15, 47, 0
2, 203776, Note_on_c, 15, 45, 87
2, 204800, Note_on_c, 15, 45, 0
2, 204800, Note_on_c, 15, 43, 88
2, 205824, Note_on_c, 15, 43, 0
2, 205824, Note_on_c, 15, 42, 89
2, 206848, Note_on_c, 15, 42, 0
2, 206848, Note_on_c, 15, 40, 90
2, 208896, Note_on_c, 15, 40, 0
2, 208896, Note_on_c, 15, 45, 91
2, 210944, Note_on_c, 15, 45, 0
2, 210944, Note_on_c, 15, 38, 93
2, 211968, Note_on_c, 15, 38, 0
2, 211968, Note_on_c, 15, 50, 94
2, 212992, Note_on_c, 15, 50, 0
2, 212992, Note_on_c, 15, 49, 95
2, 214016, Note_on_c, 15, 49, 0
2, 214016, Note_on_c, 15, 47, 98
2, 215040, Note_on_c, 15, 47, 0
2, 215040, Note_on_c, 15, 49, 98
2, 216064, Note_on_c, 15, 49, 0
2, 216064, Note_on_c, 15, 45, 98
2, 217088, Note_on_c, 15, 45, 0
2, 217088, Note_on_c, 15, 50, 98
2, 221184, Note_on_c, 15, 50, 0
2, 221184, Note_on_c, 15, 48, 98
2, 225280, Note_on_c, 15, 48, 0
2, 225280, Note_on_c, 15, 47, 103
2, 227328, Note_on_c, 15, 47, 0
2, 227328, Note_on_c, 15, 38, 104
2, 227328, Note_on_c, 15, 45, 104
2, 231424, Note_on_c, 15, 38, 0
2, 231424, Note_on_c, 15, 45, 0
2, 231424, Note_on_c, 15, 40, 101
2, 233472, Note_on_c, 15, 40, 0
2, 233472, Note_on_c, 15, 42, 100
2, 235520, Note_on_c, 15, 42, 0
2, 235520, Note_on_c, 15, 43, 99
2, 237568, Note_on_c, 15, 43, 0
2, 237568, Note_on_c, 15, 42, 98
2, 238592, Note_on_c, 15, 42, 0
2, 238592, Note_on_c, 15, 40, 98
2, 239616, Note_on_c, 15, 40, 0
2, 239616, Note_on_c, 15, 42, 97
2, 240640, Note_on_c, 15, 42, 0
2, 240640, Note_on_c, 15, 38, 97
2, 241664, Note_on_c, 15, 38, 0
2, 241664, Note_on_c, 15, 43, 96
2, 245760, Note_on_c, 15, 43, 0
2, 245760, Note_on_c, 15, 42, 97
2, 247808, Note_on_c, 15, 42, 0
2, 247808, Note_on_c, 15, 40, 99
2, 249856, Note_on_c, 15, 40, 0
2, 249856, Note_on_c, 15, 45, 101
2, 251904, Note_on_c, 15, 45, 0
2, 251904, Note_on_c, 15, 38, 103
2, 252928, Note_on_c, 15, 38, 0
2, 252928, Note_on_c, 15, 42, 104
2, 253952, Note_on_c, 15, 42, 0
2, 253952, Note_on_c, 15, 47, 103
2, 257024, Note_on_c, 15, 47, 0
2, 257024, Note_on_c, 15, 49, 103
2, 258048, Note_on_c, 15, 49, 0
2, 258048, Note_on_c, 15, 50, 103
2, 259072, Note_on_c, 15, 50, 0
2, 259072, Note_on_c, 15, 47, 103
2, 260096, Note_on_c, 15, 47, 0
2, 260096, Note_on_c, 15, 43, 103
2, 261120, Note_on_c, 15, 43, 0
2, 261120, Note_on_c, 15, 40, 103
2, 262144, Note_on_c, 15, 40, 0
2, 262144, Note_on_c, 15, 45, 103
2, 264192, Note_on_c, 15, 45, 0
2, 264192, Note_on_c, 15, 38, 103
2, 268288, Note_on_c, 15, 38, 0
2, 268288, Note_on_c, 15, 45, 103
2, 270336, Note_on_c, 15, 45, 0
2, 270336, Note_on_c, 15, 47, 102
2, 272384, Note_on_c, 15, 47, 0
2, 272384, Note_on_c, 15, 43, 102
2, 274432, Note_on_c, 15, 43, 0
2, 274432, Note_on_c, 15, 45, 100
2, 276480, Note_on_c, 15, 45, 0
2, 276480, Note_on_c, 15, 47, 98
2, 278528, Note_on_c, 15, 47, 0
2, 278528, Note_on_c, 15, 49, 96
2, 280576, Note_on_c, 15, 49, 0
2, 280576, Note_on_c, 15, 50, 95
2, 282624, Note_on_c, 15, 50, 0
2, 282624, Note_on_c, 15, 49, 92
2, 283648, Note_on_c, 15, 49, 0
2, 283648, Note_on_c, 15, 47, 92
2, 284672, Note_on_c, 15, 47, 0
2, 284672, Note_on_c, 15, 33, 92
2, 288768, Note_on_c, 15, 33, 0
2, 288768, Note_on_c, 15, 35, 92
2, 290816, Note_on_c, 15, 35, 0
2, 290816, Note_on_c, 15, 37, 92
2, 292864, Note_on_c, 15, 37, 0
2, 292864, Note_on_c, 15, 38, 92
2, 294912, Note_on_c, 15, 38, 0
2, 294912, Note_on_c, 15, 37, 92
2, 295936, Note_on_c, 15, 37, 0
2, 295936, Note_on_c, 15, 35, 92
2, 296960, Note_on_c, 15, 35, 0
2, 296960, Note_on_c, 15, 37, 92
2, 297984, Note_on_c, 15, 37, 0
2, 297984, Note_on_c, 15, 33, 92
2, 299008, Note_on_c, 15, 33, 0
2, 299008, Note_on_c, 15, 38, 92
2, 303104, Note_on_c, 15, 38, 0
2, 303104, Note_on_c, 15, 37, 93
2, 305152, Note_on_c, 15, 37, 0
2, 305152, Note_on_c, 15, 35, 95
2, 305152, Note_on_c, 15, 40, 95
2, 309248, Note_on_c, 15, 35, 0
2, 309248, Note_on_c, 15, 40, 0
2, 309248, Note_on_c, 15, 33, 97
2, 311296, Note_on_c, 15, 33, 0
2, 311296, Note_on_c, 15, 45, 98
2, 315392, Note_on_c, 15, 45, 0
2, 315392, Note_on_c, 15, 44, 101
2, 317440, Note_on_c, 15, 44, 0
2, 317440, Note_on_c, 15, 45, 102
2, 317952, Note_on_c, 15, 45, 0
2, 317952, Note_on_c, 15, 47, 102
2, 318464, Note_on_c, 15, 47, 0
2, 318464, Note_on_c, 15, 45, 103
2, 318976, Note_on_c, 15, 45, 0
2, 318976, Note_on_c, 15, 43, 103
2, 319488, Note_on_c, 15, 43, 0
2, 319488, Note_on_c, 15, 42, 103
2, 320000, Note_on_c, 15, 42, 0
2, 320000, Note_on_c, 15, 43, 103
2, 320512, Note_on_c, 15, 43, 0
2, 320512, Note_on_c, 15, 40, 104
2, 321024, Note_on_c, 15, 40, 0
2, 321024, Note_on_c, 15, 42, 104
2, 321536, Note_on_c, 15, 42, 0
2, 321536, Note_on_c, 15, 44, 104
2, 322048, Note_on_c, 15, 44, 0
2, 322048, Note_on_c, 15, 45, 105
2, 322560, Note_on_c, 15, 45, 0
2, 322560, Note_on_c, 15, 42, 105
2, 323072, Note_on_c, 15, 42, 0
2, 323072, Note_on_c, 15, 44, 105
2, 323584, Note_on_c, 15, 44, 0
2, 323584, Note_on_c, 15, 46, 106
2, 324096, Note_on_c, 15, 46, 0
2, 324096, Note_on_c, 15, 47, 106
2, 324608, Note_on_c, 15, 47, 0
2, 324608, Note_on_c, 15, 44, 107
2, 325120, Note_on_c, 15, 44, 0
2, 325120, Note_on_c, 15, 46, 107
2, 325632, Note_on_c, 15, 46, 0
2, 325632, Note_on_c, 15, 47, 107
2, 330752, Note_on_c, 15, 47, 0
2, 330752, Note_on_c, 15, 45, 112
2, 331264, Note_on_c, 15, 45, 0
2, 331264, Note_on_c, 15, 43, 112
2, 331776, Note_on_c, 15, 43, 0
2, 331776, Note_on_c, 15, 45, 113
2, 332288, Note_on_c, 15, 45, 0
2, 332288, Note_on_c, 15, 47, 113
2, 332800, Note_on_c, 15, 47, 0
2, 332800, Note_on_c, 15, 49, 114
2, 333312, Note_on_c, 15, 49, 0
2, 333312, Note_on_c, 15, 45, 114
2, 333824, Note_on_c, 15, 45, 0
2, 333824, Note_on_c, 15, 50, 115
2, 334848, Note_on_c, 15, 50, 0
2, 334848, Note_on_c, 15, 45, 116
2, 335872, Note_on_c, 15, 45, 0
2, 335872, Note_on_c, 15, 50, 117
2, 339968, Note_on_c, 15, 50, 0
2, 339968, Note_on_c, 15, 48, 121
2, 342016, Note_on_c, 15, 48, 0
2, 342016, Note_on_c, 15, 47, 123
2, 348160, Note_on_c, 15, 47, 0
2, 348160, Note_on_c, 15, 45, 127
2, 350208, Note_on_c, 15, 45, 0
2, 350208, Note_on_c, 15, 44, 127
2, 354304, Note_on_c, 15, 44, 0
2, 354304, Note_on_c, 15, 45, 127
2, 357376, Note_on_c, 15, 45, 0
2, 357376, Note_on_c, 15, 38, 127
2, 358400, Note_on_c, 15, 38, 0
2, 358400, Note_on_c, 15, 43, 127
2, 359424, Note_on_c, 15, 43, 0
2, 359424, Note_on_c, 15, 42, 127
2, 360448, Note_on_c, 15, 42, 0
2, 360448, Note_on_c, 15, 43, 127
2, 361472, Note_on_c, 15, 43, 0
2, 361472, Note_on_c, 15, 40, 127
2, 362496, Note_on_c, 15, 40, 0
2, 362496, Note_on_c, 15, 42, 127
2, 365568, Note_on_c, 15, 42, 0
2, 365568, Note_on_c, 15, 43, 127
2, 366592, Note_on_c, 15, 43, 0
2, 366592, Note_on_c, 15, 45, 127
2, 368640, Note_on_c, 15, 45, 0
2, 368640, Note_on_c, 15, 33, 127
2, 370483, Note_on_c, 15, 33, 0
2, 370688, Note_on_c, 15, 26, 127
2, 378880, Note_on_c, 15, 26, 0
2, 380623, Control_c, 15, 121, 127
2, 387072, End_track
3, 0, Start_track
3, 0, Title_t, "Trumpet I"
3, 0, Program_c, 0, 56
3, 0, Control_c, 0, 121, 127
3, 0, Control_c, 0, 91, 127
3, 0, Control_c, 0, 1, 20
3, 0, Control_c, 0, 10, 40
3, 120832, Note_on_c, 0, 74, 74
3, 124928, Note_on_c, 0, 74, 0
3, 124928, Note_on_c, 0, 76, 83
3, 126976, Note_on_c, 0, 76, 0
3, 126976, Note_on_c, 0, 78, 87
3, 129024, Note_on_c, 0, 78, 0
3, 129024, Note_on_c, 0, 79, 92
3, 131072, Note_on_c, 0, 79, 0
3, 131072, Note_on_c, 0, 78, 91
3, 132096, Note_on_c, 0, 78, 0
3, 132096, Note_on_c, 0, 76, 90
3, 133120, Note_on_c, 0, 76, 0
3, 133120, Note_on_c, 0, 78, 88
3, 134144, Note_on_c, 0, 78, 0
3, 134144, Note_on_c, 0, 74, 87
3, 135168, Note_on_c, 0, 74, 0
3, 135168, Note_on_c, 0, 79, 85
3, 139264, Note_on_c, 0, 79, 0
3, 139264, Note_on_c, 0, 78, 80
3, 141312, Note_on_c, 0, 78, 0
3, 141312, Note_on_c, 0, 76, 80
3, 145408, Note_on_c, 0, 76, 0
3, 145408, Note_on_c, 0, 74, 77
3, 149504, Note_on_c, 0, 74, 0
3, 212992, Note_on_c, 0, 74, 95
3, 215040, Note_on_c, 0, 74, 0
3, 215040, Note_on_c, 0, 76, 98
3, 217088, Note_on_c, 0, 76, 0
3, 217088, Note_on_c, 0, 78, 98
3, 219136, Note_on_c, 0, 78, 0
3, 219136, Note_on_c, 0, 79, 98
3, 221184, Note_on_c, 0, 79, 0
3, 221184, Note_on_c, 0, 78, 98
3, 222208, Note_on_c, 0, 78, 0
3, 222208, Note_on_c, 0, 76, 98
3, 223232, Note_on_c, 0, 76, 0
3, 223232, Note_on_c, 0, 78, 98
3, 224256, Note_on_c, 0, 78, 0
3, 224256, Note_on_c, 0, 74, 100
3, 225280, Note_on_c, 0, 74, 0
3, 225280, Note_on_c, 0, 79, 103
3, 229376, Note_on_c, 0, 79, 0
3, 229376, Note_on_c, 0, 78, 103
3, 231424, Note_on_c, 0, 78, 0
3, 231424, Note_on_c, 0, 76, 101
3, 233472, Note_on_c, 0, 76, 0
3, 233472, Note_on_c, 0, 74, 100
3, 237568, Note_on_c, 0, 74, 0
3, 258048, Note_on_c, 0, 81, 103
3, 260096, Note_on_c, 0, 81, 0
3, 260096, Note_on_c, 0, 83, 103
3, 262144, Note_on_c, 0, 83, 0
3, 262144, Note_on_c, 0, 85, 103
3, 264192, Note_on_c, 0, 85, 0
3, 264192, Note_on_c, 0, 86, 103
3, 266240, Note_on_c, 0, 86, 0
3, 266240, Note_on_c, 0, 85, 103
3, 267264, Note_on_c, 0, 85, 0
3, 267264, Note_on_c, 0, 83, 103
3, 268288, Note_on_c, 0, 83, 0
3, 268288, Note_on_c, 0, 85, 103
3, 269312, Note_on_c, 0, 85, 0
3, 269312, Note_on_c, 0, 81, 102
3, 270336, Note_on_c, 0, 81, 0
3, 270336, Note_on_c, 0, 86, 102
3, 274432, Note_on_c, 0, 86, 0
3, 274432, Note_on_c, 0, 85, 100
3, 276480, Note_on_c, 0, 85, 0
3, 276480, Note_on_c, 0, 83, 98
3, 280576, Note_on_c, 0, 83, 0
3, 280576, Note_on_c, 0, 81, 95
3, 281600, Note_on_c, 0, 81, 0
3, 281600, Note_on_c, 0, 79, 92
3, 282112, Note_on_c, 0, 79, 0
3, 282112, Note_on_c, 0, 78, 92
3, 282624, Note_on_c, 0, 78, 0
3, 282624, Note_on_c, 0, 79, 92
3, 286720, Note_on_c, 0, 79, 0
3, 286720, Note_on_c, 0, 78, 92
3, 289792, Note_on_c, 0, 78, 0
3, 289792, Note_on_c, 0, 76, 92
3, 290304, Note_on_c, 0, 76, 0
3, 290304, Note_on_c, 0, 74, 92
3, 290816, Note_on_c, 0, 74, 0
3, 290816, Note_on_c, 0, 81, 92
3, 293888, Note_on_c, 0, 81, 0
3, 293888, Note_on_c, 0, 79, 92
3, 294400, Note_on_c, 0, 79, 0
3, 294400, Note_on_c, 0, 78, 92
3, 294912, Note_on_c, 0, 78, 0
3, 294912, Note_on_c, 0, 83, 92
3, 296960, Note_on_c, 0, 83, 0
3, 296960, Note_on_c, 0, 81, 92
3, 301056, Note_on_c, 0, 81, 0
3, 301056, Note_on_c, 0, 80, 92
3, 303104, Note_on_c, 0, 80, 0
3, 303104, Note_on_c, 0, 81, 93
3, 307200, Note_on_c, 0, 81, 0
3, 307200, Note_on_c, 0, 80, 96
3, 309248, Note_on_c, 0, 80, 0
3, 309248, Note_on_c, 0, 81, 97
3, 313344, Note_on_c, 0, 81, 0
3, 339968, Note_on_c, 0, 81, 121
3, 342016, Note_on_c, 0, 81, 0
3, 342016, Note_on_c, 0, 83, 123
3, 344064, Note_on_c, 0, 83, 0
3, 344064, Note_on_c, 0, 85, 125
3, 346112, Note_on_c, 0, 85, 0
3, 346112, Note_on_c, 0, 86, 127
3, 350720, Note_on_c, 0, 86, 0
3, 350720, Note_on_c, 0, 85, 127
3, 351232, Note_on_c, 0, 85, 0
3, 351232, Note_on_c, 0, 83, 127
3, 351744, Note_on_c, 0, 83, 0
3, 351744, Note_on_c, 0, 81, 127
3, 352256, Note_on_c, 0, 81, 0
3, 352256, Note_on_c, 0, 83, 127
3, 355328, Note_on_c, 0, 83, 0
3, 355328, Note_on_c, 0, 76, 127
3, 356352, Note_on_c, 0, 76, 0
3, 356352, Note_on_c, 0, 81, 127
3, 360448, Note_on_c, 0, 81, 0
3, 360448, Note_on_c, 0, 79, 127
3, 363520, Note_on_c, 0, 79, 0
3, 363520, Note_on_c, 0, 78, 127
3, 364032, Note_on_c, 0, 78, 0
3, 364032, Note_on_c, 0, 76, 127
3, 364544, Note_on_c, 0, 76, 0
3, 364544, Note_on_c, 0, 78, 127
3, 365568, Note_on_c, 0, 78, 0
3, 365568, Note_on_c, 0, 83, 127
3, 366592, Note_on_c, 0, 83, 0
3, 366592, Note_on_c, 0, 78, 127
3, 368640, Note_on_c, 0, 78, 0
3, 368640, Note_on_c, 0, 76, 127
3, 370483, Note_on_c, 0, 76, 0
3, 370688, Note_on_c, 0, 74, 127
3, 378880, Note_on_c, 0, 74, 0
3, 380623, Control_c, 0, 121, 127
3, 387072, End_track
4, 0, Start_track
4, 0, Title_t, "Timpani"
4, 0, Program_c, 1, 47
4, 0, Control_c, 1, 121, 127
4, 0, Control_c, 1, 91, 127
4, 0, Control_c, 1, 10, 90
4, 284672, Note_on_c, 1, 45, 92
4, 288768, Note_on_c, 1, 45, 0
4, 288768, Note_on_c, 1, 50, 92
4, 290816, Note_on_c, 1, 50, 0
4, 290816, Note_on_c, 1, 45, 92
4, 292864, Note_on_c, 1, 45, 0
4, 292864, Note_on_c, 1, 50, 92
4, 294912, Note_on_c, 1, 50, 0
4, 294912, Note_on_c, 1, 50, 92
4, 296960, Note_on_c, 1, 50, 0
4, 296960, Note_on_c, 1, 45, 92
4, 299008, Note_on_c, 1, 45, 0
4, 299008, Note_on_c, 1, 50, 92
4, 303104, Note_on_c, 1, 50, 0
4, 303104, Note_on_c, 1, 45, 93
4, 305152, Note_on_c, 1, 45, 0
4, 305152, Note_on_c, 1, 50, 95
4, 308224, Note_on_c, 1, 50, 0
4, 308224, Note_on_c, 1, 50, 96
4, 309248, Note_on_c, 1, 50, 0
4, 309248, Note_on_c, 1, 45, 97
4, 313344, Note_on_c, 1, 45, 0
4, 335872, Note_on_c, 1, 50, 117
4, 339968, Note_on_c, 1, 50, 0
4, 339968, Note_on_c, 1, 45, 121
4, 342016, Note_on_c, 1, 45, 0
4, 347136, Note_on_c, 1, 50, 127
4, 347648, Note_on_c, 1, 50, 0
4, 347648, Note_on_c, 1, 50, 127
4, 348160, Note_on_c, 1, 50, 0
4, 348160, Note_on_c, 1, 50, 127
4, 349184, Note_on_c, 1, 50, 0
4, 349184, Note_on_c, 1, 50, 127
4, 350208, Note_on_c, 1, 50, 0
4, 350208, Note_on_c, 1, 50, 127
4, 351232, Note_on_c, 1, 50, 0
4, 353280, Note_on_c, 1, 50, 127
4, 354304, Note_on_c, 1, 50, 0
4, 354304, Note_on_c, 1, 45, 127
4, 355328, Note_on_c, 1, 45, 0
4, 357376, Note_on_c, 1, 50, 127
4, 358400, Note_on_c, 1, 50, 0
4, 358400, Note_on_c, 1, 50, 127
4, 359424, Note_on_c, 1, 50, 0
4, 362496, Note_on_c, 1, 45, 127
4, 363520, Note_on_c, 1, 45, 0
4, 365568, Note_on_c, 1, 50, 127
4, 366592, Note_on_c, 1, 50, 0
4, 366592, Note_on_c, 1, 45, 127
4, 367616, Note_on_c, 1, 45, 0
4, 367616, Note_on_c, 1, 45, 127
4, 368128, Note_on_c, 1, 45, 0
4, 368128, Note_on_c, 1, 45, 127
4, 368640, Note_on_c, 1, 45, 0
4, 368640, Note_on_c, 1, 45, 127
4, 369459, Note_on_c, 1, 45, 0
4, 369664, Note_on_c, 1, 45, 127
4, 370483, Note_on_c, 1, 45, 0
4, 370688, Note_on_c, 1, 50, 127
4, 378880, Note_on_c, 1, 50, 0
4, 380623, Control_c, 1, 121, 127
4, 387072, End_track
5, 0, Start_track
5, 0, Title_t, "Oboe II"
5, 0, Program_c, 3, 68
5, 16384, Note_on_c, 3, 62, 44
5, 18432, Note_on_c, 3, 62, 0
5, 18432, Note_on_c, 3, 64, 45
5, 20480, Note_on_c, 3, 64, 0
5, 20480, Note_on_c, 3, 66, 46
5, 22528, Note_on_c, 3, 66, 0
5, 22528, Note_on_c, 3, 67, 48
5, 24576, Note_on_c, 3, 67, 0
5, 24576, Note_on_c, 3, 66, 49
5, 25600, Note_on_c, 3, 66, 0
5, 25600, Note_on_c, 3, 64, 50
5, 26624, Note_on_c, 3, 64, 0
5, 26624, Note_on_c, 3, 66, 50
5, 27648, Note_on_c, 3, 66, 0
5, 27648, Note_on_c, 3, 62, 51
5, 28672, Note_on_c, 3, 62, 0
5, 28672, Note_on_c, 3, 67, 52
5, 32768, Note_on_c, 3, 67, 0
5, 32768, Note_on_c, 3, 66, 54
5, 34816, Note_on_c, 3, 66, 0
5, 34816, Note_on_c, 3, 64, 55
5, 38912, Note_on_c, 3, 64, 0
5, 38912, Note_on_c, 3, 62, 49
5, 43008, Note_on_c, 3, 62, 0
5, 49152, Note_on_c, 3, 69, 42
5, 53248, Note_on_c, 3, 69, 0
5, 53248, Note_on_c, 3, 68, 47
5, 55296, Note_on_c, 3, 68, 0
5, 55296, Note_on_c, 3, 69, 49
5, 56320, Note_on_c, 3, 69, 0
5, 56320, Note_on_c, 3, 67, 50
5, 56832, Note_on_c, 3, 67, 0
5, 56832, Note_on_c, 3, 66, 51
5, 57344, Note_on_c, 3, 66, 0
5, 57344, Note_on_c, 3, 64, 52
5, 57856, Note_on_c, 3, 64, 0
5, 57856, Note_on_c, 3, 66, 52
5, 58368, Note_on_c, 3, 66, 0
5, 58368, Note_on_c, 3, 62, 53
5, 58880, Note_on_c, 3, 62, 0
5, 58880, Note_on_c, 3, 64, 53
5, 59392, Note_on_c, 3, 64, 0
5, 59392, Note_on_c, 3, 66, 54
5, 59904, Note_on_c, 3, 66, 0
5, 59904, Note_on_c, 3, 64, 54
5, 60416, Note_on_c, 3, 64, 0
5, 60416, Note_on_c, 3, 66, 55
5, 60928, Note_on_c, 3, 66, 0
5, 60928, Note_on_c, 3, 67, 56
5, 61440, Note_on_c, 3, 67, 0
5, 61440, Note_on_c, 3, 66, 56
5, 61952, Note_on_c, 3, 66, 0
5, 61952, Note_on_c, 3, 67, 57
5, 62464, Note_on_c, 3, 67, 0
5, 62464, Note_on_c, 3, 66, 57
5, 62976, Note_on_c, 3, 66, 0
5, 62976, Note_on_c, 3, 64, 58
5, 63488, Note_on_c, 3, 64, 0
5, 63488, Note_on_c, 3, 62, 58
5, 65024, Note_on_c, 3, 62, 0
5, 65024, Note_on_c, 3, 64, 59
5, 65536, Note_on_c, 3, 64, 0
5, 65536, Note_on_c, 3, 66, 57
5, 67584, Note_on_c, 3, 66, 0
5, 67584, Note_on_c, 3, 59, 52
5, 69632, Note_on_c, 3, 59, 0
5, 77824, Note_on_c, 3, 62, 51
5, 79872, Note_on_c, 3, 62, 0
5, 79872, Note_on_c, 3, 64, 53
5, 81920, Note_on_c, 3, 64, 0
5, 81920, Note_on_c, 3, 66, 55
5, 83968, Note_on_c, 3, 66, 0
5, 83968, Note_on_c, 3, 67, 57
5, 86016, Note_on_c, 3, 67, 0
5, 86016, Note_on_c, 3, 66, 59
5, 87040, Note_on_c, 3, 66, 0
5, 87040, Note_on_c, 3, 64, 60
5, 88064, Note_on_c, 3, 64, 0
5, 88064, Note_on_c, 3, 66, 61
5, 90112, Note_on_c, 3, 66, 0
5, 90112, Note_on_c, 3, 71, 64
5, 93184, Note_on_c, 3, 71, 0
5, 93184, Note_on_c, 3, 69, 67
5, 95232, Note_on_c, 3, 69, 0
5, 95232, Note_on_c, 3, 74, 69
5, 96256, Note_on_c, 3, 74, 0
5, 96256, Note_on_c, 3, 67, 70
5, 97280, Note_on_c, 3, 67, 0
5, 97280, Note_on_c, 3, 71, 71
5, 98304, Note_on_c, 3, 71, 0
5, 98304, Note_on_c, 3, 69, 72
5, 99328, Note_on_c, 3, 69, 0
5, 99328, Note_on_c, 3, 67, 74
5, 100352, Note_on_c, 3, 67, 0
5, 100352, Note_on_c, 3, 66, 75
5, 104448, Note_on_c, 3, 66, 0
5, 112640, Note_on_c, 3, 69, 72
5, 116736, Note_on_c, 3, 69, 0
5, 116736, Note_on_c, 3, 71, 70
5, 118784, Note_on_c, 3, 71, 0
5, 118784, Note_on_c, 3, 73, 69
5, 120832, Note_on_c, 3, 73, 0
5, 120832, Note_on_c, 3, 74, 74
5, 122880, Note_on_c, 3, 74, 0
5, 122880, Note_on_c, 3, 73, 78
5, 123904, Note_on_c, 3, 73, 0
5, 123904, Note_on_c, 3, 71, 81
5, 124928, Note_on_c, 3, 71, 0
5, 124928, Note_on_c, 3, 73, 83
5, 125952, Note_on_c, 3, 73, 0
5, 125952, Note_on_c, 3, 69, 85
5, 126976, Note_on_c, 3, 69, 0
5, 126976, Note_on_c, 3, 74, 87
5, 131072, Note_on_c, 3, 74, 0
5, 131072, Note_on_c, 3, 73, 91
5, 133120, Note_on_c, 3, 73, 0
5, 133120, Note_on_c, 3, 71, 88
5, 137216, Note_on_c, 3, 71, 0
5, 137216, Note_on_c, 3, 69, 83
5, 139264, Note_on_c, 3, 69, 0
5, 139264, Note_on_c, 3, 62, 80
5, 141312, Note_on_c, 3, 62, 0
5, 141312, Note_on_c, 3, 64, 80
5, 143360, Note_on_c, 3, 64, 0
5, 143360, Note_on_c, 3, 66, 77
5, 145408, Note_on_c, 3, 66, 0
5, 145408, Note_on_c, 3, 67, 77
5, 147456, Note_on_c, 3, 67, 0
5, 147456, Note_on_c, 3, 66, 78
5, 148480, Note_on_c, 3, 66, 0
5, 148480, Note_on_c, 3, 64, 78
5, 149504, Note_on_c, 3, 64, 0
5, 149504, Note_on_c, 3, 66, 79
5, 150528, Note_on_c, 3, 66, 0
5, 150528, Note_on_c, 3, 62, 78
5, 151552, Note_on_c, 3, 62, 0
5, 151552, Note_on_c, 3, 69, 76
5, 155648, Note_on_c, 3, 69, 0
5, 155648, Note_on_c, 3, 67, 70
5, 157696, Note_on_c, 3, 67, 0
5, 157696, Note_on_c, 3, 66, 67
5, 161792, Note_on_c, 3, 66, 0
5, 161792, Note_on_c, 3, 64, 67
5, 163840, Note_on_c, 3, 64, 0
5, 163840, Note_on_c, 3, 67, 67
5, 167936, Note_on_c, 3, 67, 0
5, 167936, Note_on_c, 3, 66, 69
5, 169984, Note_on_c, 3, 66, 0
5, 169984, Note_on_c, 3, 67, 69
5, 171008, Note_on_c, 3, 67, 0
5, 171008, Note_on_c, 3, 66, 70
5, 171520, Note_on_c, 3, 66, 0
5, 171520, Note_on_c, 3, 64, 70
5, 172032, Note_on_c, 3, 64, 0
5, 172032, Note_on_c, 3, 62, 70
5, 172544, Note_on_c, 3, 62, 0
5, 172544, Note_on_c, 3, 64, 70
5, 173056, Note_on_c, 3, 64, 0
5, 173056, Note_on_c, 3, 61, 70
5, 173568, Note_on_c, 3, 61, 0
5, 173568, Note_on_c, 3, 62, 71
5, 174080, Note_on_c, 3, 62, 0
5, 174080, Note_on_c, 3, 64, 71
5, 174592, Note_on_c, 3, 64, 0
5, 174592, Note_on_c, 3, 62, 71
5, 175104, Note_on_c, 3, 62, 0
5, 175104, Note_on_c, 3, 64, 71
5, 175616, Note_on_c, 3, 64, 0
5, 175616, Note_on_c, 3, 66, 71
5, 176128, Note_on_c, 3, 66, 0
5, 176128, Note_on_c, 3, 64, 71
5, 176640, Note_on_c, 3, 64, 0
5, 176640, Note_on_c, 3, 67, 72
5, 177152, Note_on_c, 3, 67, 0
5, 177152, Note_on_c, 3, 66, 72
5, 177664, Note_on_c, 3, 66, 0
5, 177664, Note_on_c, 3, 64, 72
5, 178176, Note_on_c, 3, 64, 0
5, 178176, Note_on_c, 3, 62, 72
5, 179200, Note_on_c, 3, 62, 0
5, 179200, Note_on_c, 3, 64, 72
5, 180224, Note_on_c, 3, 64, 0
5, 180224, Note_on_c, 3, 66, 73
5, 182272, Note_on_c, 3, 66, 0
5, 182272, Note_on_c, 3, 64, 74
5, 186368, Note_on_c, 3, 64, 0
5, 186368, Note_on_c, 3, 66, 75
5, 188416, Note_on_c, 3, 66, 0
5, 189440, Note_on_c, 3, 73, 76
5, 190464, Note_on_c, 3, 73, 0
5, 190464, Note_on_c, 3, 74, 77
5, 191488, Note_on_c, 3, 74, 0
5, 191488, Note_on_c, 3, 71, 78
5, 192512, Note_on_c, 3, 71, 0
5, 192512, Note_on_c, 3, 68, 79
5, 194560, Note_on_c, 3, 68, 0
5, 194560, Note_on_c, 3, 66, 80
5, 196608, Note_on_c, 3, 66, 0
5, 200704, Note_on_c, 3, 62, 85
5, 202752, Note_on_c, 3, 62, 0
5, 202752, Note_on_c, 3, 64, 87
5, 204800, Note_on_c, 3, 64, 0
5, 204800, Note_on_c, 3, 66, 88
5, 206848, Note_on_c, 3, 66, 0
5, 206848, Note_on_c, 3, 67, 90
5, 208896, Note_on_c, 3, 67, 0
5, 208896, Note_on_c, 3, 66, 91
5, 209920, Note_on_c, 3, 66, 0
5, 209920, Note_on_c, 3, 64, 92
5, 210944, Note_on_c, 3, 64, 0
5, 210944, Note_on_c, 3, 66, 93
5, 211968, Note_on_c, 3, 66, 0
5, 211968, Note_on_c, 3, 62, 94
5, 212992, Note_on_c, 3, 62, 0
5, 212992, Note_on_c, 3, 67, 95
5, 217088, Note_on_c, 3, 67, 0
5, 217088, Note_on_c, 3, 66, 98
5, 219136, Note_on_c, 3, 66, 0
5, 219136, Note_on_c, 3, 64, 98
5, 223232, Note_on_c, 3, 64, 0
5, 223232, Note_on_c, 3, 62, 98
5, 225280, Note_on_c, 3, 62, 0
5, 228352, Note_on_c, 3, 74, 103
5, 230400, Note_on_c, 3, 74, 0
5, 230400, Note_on_c, 3, 74, 102
5, 231424, Note_on_c, 3, 74, 0
5, 231424, Note_on_c, 3, 73, 101
5, 233472, Note_on_c, 3, 73, 0
5, 233472, Note_on_c, 3, 74, 100
5, 233984, Note_on_c, 3, 74, 0
5, 233984, Note_on_c, 3, 73, 100
5, 234496, Note_on_c, 3, 73, 0
5, 234496, Note_on_c, 3, 71, 100
5, 235008, Note_on_c, 3, 71, 0
5, 235008, Note_on_c, 3, 69, 100
5, 235520, Note_on_c, 3, 69, 0
5, 235520, Note_on_c, 3, 67, 99
5, 236544, Note_on_c, 3, 67, 0
5, 236544, Note_on_c, 3, 62, 99
5, 237568, Note_on_c, 3, 62, 0
5, 237568, Note_on_c, 3, 67, 98
5, 240640, Note_on_c, 3, 67, 0
5, 240640, Note_on_c, 3, 66, 97
5, 241664, Note_on_c, 3, 66, 0
5, 241664, Note_on_c, 3, 62, 96
5, 243712, Note_on_c, 3, 62, 0
5, 243712, Note_on_c, 3, 64, 94
5, 245760, Note_on_c, 3, 64, 0
5, 245760, Note_on_c, 3, 66, 97
5, 247808, Note_on_c, 3, 66, 0
5, 247808, Note_on_c, 3, 67, 99
5, 249856, Note_on_c, 3, 67, 0
5, 249856, Note_on_c, 3, 66, 101
5, 250880, Note_on_c, 3, 66, 0
5, 250880, Note_on_c, 3, 64, 102
5, 251904, Note_on_c, 3, 64, 0
5, 251904, Note_on_c, 3, 66, 103
5, 252928, Note_on_c, 3, 66, 0
5, 252928, Note_on_c, 3, 62, 104
5, 253952, Note_on_c, 3, 62, 0
5, 253952, Note_on_c, 3, 67, 103
5, 258048, Note_on_c, 3, 67, 0
5, 258048, Note_on_c, 3, 66, 103
5, 260096, Note_on_c, 3, 66, 0
5, 260096, Note_on_c, 3, 64, 103
5, 264192, Note_on_c, 3, 64, 0
5, 264192, Note_on_c, 3, 62, 103
5, 268288, Note_on_c, 3, 62, 0
5, 270336, Note_on_c, 3, 62, 102
5, 272384, Note_on_c, 3, 62, 0
5, 272384, Note_on_c, 3, 64, 102
5, 274432, Note_on_c, 3, 64, 0
5, 274432, Note_on_c, 3, 66, 100
5, 276480, Note_on_c, 3, 66, 0
5, 276480, Note_on_c, 3, 67, 98
5, 278528, Note_on_c, 3, 67, 0
5, 278528, Note_on_c, 3, 66, 96
5, 279552, Note_on_c, 3, 66, 0
5, 279552, Note_on_c, 3, 64, 96
5, 280576, Note_on_c, 3, 64, 0
5, 280576, Note_on_c, 3, 66, 95
5, 281600, Note_on_c, 3, 66, 0
5, 281600, Note_on_c, 3, 62, 92
5, 282624, Note_on_c, 3, 62, 0
5, 282624, Note_on_c, 3, 67, 92
5, 286720, Note_on_c, 3, 67, 0
5, 286720, Note_on_c, 3, 66, 92
5, 289792, Note_on_c, 3, 66, 0
5, 289792, Note_on_c, 3, 64, 92
5, 290304, Note_on_c, 3, 64, 0
5, 290304, Note_on_c, 3, 62, 92
5, 290816, Note_on_c, 3, 62, 0
5, 290816, Note_on_c, 3, 69, 92
5, 293888, Note_on_c, 3, 69, 0
5, 293888, Note_on_c, 3, 67, 92
5, 294400, Note_on_c, 3, 67, 0
5, 294400, Note_on_c, 3, 66, 92
5, 294912, Note_on_c, 3, 66, 0
5, 294912, Note_on_c, 3, 71, 92
5, 296960, Note_on_c, 3, 71, 0
5, 296960, Note_on_c, 3, 69, 92
5, 301056, Note_on_c, 3, 69, 0
5, 301056, Note_on_c, 3, 68, 92
5, 303104, Note_on_c, 3, 68, 0
5, 303104, Note_on_c, 3, 69, 93
5, 307200, Note_on_c, 3, 69, 0
5, 307200, Note_on_c, 3, 68, 96
5, 309248, Note_on_c, 3, 68, 0
5, 309248, Note_on_c, 3, 69, 97
5, 309760, Note_on_c, 3, 69, 0
5, 309760, Note_on_c, 3, 64, 97
5, 310272, Note_on_c, 3, 64, 0
5, 310272, Note_on_c, 3, 66, 98
5, 310784, Note_on_c, 3, 66, 0
5, 310784, Note_on_c, 3, 68, 98
5, 311296, Note_on_c, 3, 68, 0
5, 311296, Note_on_c, 3, 69, 98
5, 311808, Note_on_c, 3, 69, 0
5, 311808, Note_on_c, 3, 71, 99
5, 312320, Note_on_c, 3, 71, 0
5, 312320, Note_on_c, 3, 68, 99
5, 312832, Note_on_c, 3, 68, 0
5, 312832, Note_on_c, 3, 69, 99
5, 313344, Note_on_c, 3, 69, 0
5, 313344, Note_on_c, 3, 71, 99
5, 314368, Note_on_c, 3, 71, 0
5, 314368, Note_on_c, 3, 66, 100
5, 315392, Note_on_c, 3, 66, 0
5, 315392, Note_on_c, 3, 71, 101
5, 318464, Note_on_c, 3, 71, 0
5, 318464, Note_on_c, 3, 64, 103
5, 319488, Note_on_c, 3, 64, 0
5, 319488, Note_on_c, 3, 69, 103
5, 320000, Note_on_c, 3, 69, 0
5, 320000, Note_on_c, 3, 71, 103
5, 320512, Note_on_c, 3, 71, 0
5, 320512, Note_on_c, 3, 68, 104
5, 321024, Note_on_c, 3, 68, 0
5, 321024, Note_on_c, 3, 69, 104
5, 321536, Note_on_c, 3, 69, 0
5, 321536, Note_on_c, 3, 71, 104
5, 322048, Note_on_c, 3, 71, 0
5, 322048, Note_on_c, 3, 73, 105
5, 322560, Note_on_c, 3, 73, 0
5, 322560, Note_on_c, 3, 69, 105
5, 323072, Note_on_c, 3, 69, 0
5, 323072, Note_on_c, 3, 71, 105
5, 323584, Note_on_c, 3, 71, 0
5, 323584, Note_on_c, 3, 73, 106
5, 326656, Note_on_c, 3, 73, 0
5, 326656, Note_on_c, 3, 71, 108
5, 327168, Note_on_c, 3, 71, 0
5, 327168, Note_on_c, 3, 69, 108
5, 327680, Note_on_c, 3, 69, 0
5, 327680, Note_on_c, 3, 71, 109
5, 331776, Note_on_c, 3, 71, 0
5, 331776, Note_on_c, 3, 64, 113
5, 333824, Note_on_c, 3, 64, 0
5, 333824, Note_on_c, 3, 62, 115
5, 335872, Note_on_c, 3, 62, 0
5, 335872, Note_on_c, 3, 62, 117
5, 337920, Note_on_c, 3, 62, 0
5, 337920, Note_on_c, 3, 64, 119
5, 339968, Note_on_c, 3, 64, 0
5, 339968, Note_on_c, 3, 66, 121
5, 342016, Note_on_c, 3, 66, 0
5, 342016, Note_on_c, 3, 67, 123
5, 344064, Note_on_c, 3, 67, 0
5, 344064, Note_on_c, 3, 66, 125
5, 345088, Note_on_c, 3, 66, 0
5, 345088, Note_on_c, 3, 64, 126
5, 346112, Note_on_c, 3, 64, 0
5, 346112, Note_on_c, 3, 66, 127
5, 347136, Note_on_c, 3, 66, 0
5, 347136, Note_on_c, 3, 71, 127
5, 349184, Note_on_c, 3, 71, 0
5, 349184, Note_on_c, 3, 71, 127
5, 350208, Note_on_c, 3, 71, 0
5, 350208, Note_on_c, 3, 64, 127
5, 351232, Note_on_c, 3, 64, 0
5, 351232, Note_on_c, 3, 68, 127
5, 352256, Note_on_c, 3, 68, 0
5, 352256, Note_on_c, 3, 71, 127
5, 355328, Note_on_c, 3, 71, 0
5, 355328, Note_on_c, 3, 64, 127
5, 356352, Note_on_c, 3, 64, 0
5, 356352, Note_on_c, 3, 69, 127
5, 360448, Note_on_c, 3, 69, 0
5, 360448, Note_on_c, 3, 67, 127
5, 363520, Note_on_c, 3, 67, 0
5, 363520, Note_on_c, 3, 66, 127
5, 364032, Note_on_c, 3, 66, 0
5, 364032, Note_on_c, 3, 64, 127
5, 364544, Note_on_c, 3, 64, 0
5, 364544, Note_on_c, 3, 66, 127
5, 365568, Note_on_c, 3, 66, 0
5, 365568, Note_on_c, 3, 71, 127
5, 366592, Note_on_c, 3, 71, 0
5, 366592, Note_on_c, 3, 66, 127
5, 367616, Note_on_c, 3, 66, 0
5, 367616, Note_on_c, 3, 64, 127
5, 368128, Note_on_c, 3, 64, 0
5, 368128, Note_on_c, 3, 62, 127
5, 368640, Note_on_c, 3, 62, 0
5, 368640, Note_on_c, 3, 64, 127
5, 370483, Note_on_c, 3, 64, 0
5, 370688, Note_on_c, 3, 66, 127
5, 378880, Note_on_c, 3, 66, 0
5, 380623, Control_c, 3, 121, 127
5, 387072, End_track
6, 0, Start_track
6, 0, Title_t, "Bassoon"
6, 0, Program_c, 4, 70
6, 0, Control_c, 4, 121, 127
6, 0, Control_c, 4, 91, 127
6, 0, Control_c, 4, 1, 20
6, 0, Control_c, 4, 10, 90
6, 0, Control_c, 4, 11, 90
6, 4096, Note_on_c, 4, 50, 36
6, 6144, Note_on_c, 4, 50, 0
6, 6144, Note_on_c, 4, 52, 37
6, 8192, Note_on_c, 4, 52, 0
6, 8192, Note_on_c, 4, 54, 39
6, 10240, Note_on_c, 4, 54, 0
6, 10240, Note_on_c, 4, 55, 40
6, 12288, Note_on_c, 4, 55, 0
6, 12288, Note_on_c, 4, 54, 41
6, 13312, Note_on_c, 4, 54, 0
6, 13312, Note_on_c, 4, 52, 42
6, 14336, Note_on_c, 4, 52, 0
6, 14336, Note_on_c, 4, 54, 42
6, 15360, Note_on_c, 4, 54, 0
6, 15360, Note_on_c, 4, 50, 43
6, 16384, Note_on_c, 4, 50, 0
6, 16384, Note_on_c, 4, 55, 44
6, 20480, Note_on_c, 4, 55, 0
6, 20480, Note_on_c, 4, 54, 46
6, 22528, Note_on_c, 4, 54, 0
6, 22528, Note_on_c, 4, 52, 48
6, 26624, Note_on_c, 4, 52, 0
6, 26624, Note_on_c, 4, 50, 50
6, 30720, Note_on_c, 4, 50, 0
6, 30720, Note_on_c, 4, 57, 53
6, 34816, Note_on_c, 4, 57, 0
6, 34816, Note_on_c, 4, 64, 55
6, 36864, Note_on_c, 4, 64, 0
6, 36864, Note_on_c, 4, 57, 52
6, 40960, Note_on_c, 4, 57, 0
6, 40960, Note_on_c, 4, 56, 45
6, 43008, Note_on_c, 4, 56, 0
6, 43008, Note_on_c, 4, 57, 41
6, 44032, Note_on_c, 4, 57, 0
6, 44032, Note_on_c, 4, 55, 37
6, 44544, Note_on_c, 4, 55, 0
6, 44544, Note_on_c, 4, 54, 37
6, 45056, Note_on_c, 4, 54, 0
6, 45056, Note_on_c, 4, 52, 38
6, 45568, Note_on_c, 4, 52, 0
6, 45568, Note_on_c, 4, 54, 38
6, 46080, Note_on_c, 4, 54, 0
6, 46080, Note_on_c, 4, 50, 39
6, 46592, Note_on_c, 4, 50, 0
6, 46592, Note_on_c, 4, 52, 40
6, 47104, Note_on_c, 4, 52, 0
6, 47104, Note_on_c, 4, 54, 40
6, 47616, Note_on_c, 4, 54, 0
6, 47616, Note_on_c, 4, 52, 41
6, 48128, Note_on_c, 4, 52, 0
6, 48128, Note_on_c, 4, 54, 41
6, 48640, Note_on_c, 4, 54, 0
6, 48640, Note_on_c, 4, 55, 42
6, 49152, Note_on_c, 4, 55, 0
6, 49152, Note_on_c, 4, 54, 42
6, 49664, Note_on_c, 4, 54, 0
6, 49664, Note_on_c, 4, 55, 43
6, 50176, Note_on_c, 4, 55, 0
6, 50176, Note_on_c, 4, 54, 44
6, 50688, Note_on_c, 4, 54, 0
6, 50688, Note_on_c, 4, 52, 44
6, 51200, Note_on_c, 4, 52, 0
6, 51200, Note_on_c, 4, 50, 45
6, 52224, Note_on_c, 4, 50, 0
6, 52224, Note_on_c, 4, 47, 46
6, 53248, Note_on_c, 4, 47, 0
6, 53248, Note_on_c, 4, 52, 47
6, 55296, Note_on_c, 4, 52, 0
6, 55296, Note_on_c, 4, 45, 49
6, 57344, Note_on_c, 4, 45, 0
6, 57344, Note_on_c, 4, 57, 52
6, 59392, Note_on_c, 4, 57, 0
6, 59392, Note_on_c, 4, 50, 54
6, 61440, Note_on_c, 4, 50, 0
6, 61440, Note_on_c, 4, 62, 56
6, 63488, Note_on_c, 4, 62, 0
6, 63488, Note_on_c, 4, 55, 58
6, 65536, Note_on_c, 4, 55, 0
6, 65536, Note_on_c, 4, 50, 57
6, 67584, Note_on_c, 4, 50, 0
6, 67584, Note_on_c, 4, 52, 52
6, 69632, Note_on_c, 4, 52, 0
6, 69632, Note_on_c, 4, 54, 42
6, 71680, Note_on_c, 4, 54, 0
6, 71680, Note_on_c, 4, 55, 44
6, 73728, Note_on_c, 4, 55, 0
6, 73728, Note_on_c, 4, 54, 46
6, 74752, Note_on_c, 4, 54, 0
6, 74752, Note_on_c, 4, 52, 47
6, 75776, Note_on_c, 4, 52, 0
6, 75776, Note_on_c, 4, 54, 48
6, 76800, Note_on_c, 4, 54, 0
6, 76800, Note_on_c, 4, 47, 49
6, 77824, Note_on_c, 4, 47, 0
6, 77824, Note_on_c, 4, 59, 51
6, 80896, Note_on_c, 4, 59, 0
6, 80896, Note_on_c, 4, 57, 54
6, 82944, Note_on_c, 4, 57, 0
6, 82944, Note_on_c, 4, 62, 56
6, 83968, Note_on_c, 4, 62, 0
6, 83968, Note_on_c, 4, 55, 57
6, 84992, Note_on_c, 4, 55, 0
6, 84992, Note_on_c, 4, 59, 58
6, 86016, Note_on_c, 4, 59, 0
6, 86016, Note_on_c, 4, 57, 59
6, 87040, Note_on_c, 4, 57, 0
6, 87040, Note_on_c, 4, 55, 60
6, 88064, Note_on_c, 4, 55, 0
6, 88064, Note_on_c, 4, 54, 61
6, 92672, Note_on_c, 4, 54, 0
6, 92672, Note_on_c, 4, 52, 66
6, 93184, Note_on_c, 4, 52, 0
6, 93184, Note_on_c, 4, 54, 67
6, 93696, Note_on_c, 4, 54, 0
6, 93696, Note_on_c, 4, 55, 68
6, 94208, Note_on_c, 4, 55, 0
6, 94208, Note_on_c, 4, 54, 68
6, 94720, Note_on_c, 4, 54, 0
6, 94720, Note_on_c, 4, 52, 69
6, 95232, Note_on_c, 4, 52, 0
6, 95232, Note_on_c, 4, 50, 69
6, 95744, Note_on_c, 4, 50, 0
6, 95744, Note_on_c, 4, 49, 70
6, 96256, Note_on_c, 4, 49, 0
6, 96256, Note_on_c, 4, 47, 70
6, 98304, Note_on_c, 4, 47, 0
6, 98304, Note_on_c, 4, 49, 72
6, 100352, Note_on_c, 4, 49, 0
6, 100352, Note_on_c, 4, 50, 75
6, 101376, Note_on_c, 4, 50, 0
6, 101376, Note_on_c, 4, 54, 76
6, 102400, Note_on_c, 4, 54, 0
6, 102400, Note_on_c, 4, 59, 77
6, 106496, Note_on_c, 4, 59, 0
6, 106496, Note_on_c, 4, 58, 76
6, 108544, Note_on_c, 4, 58, 0
6, 108544, Note_on_c, 4, 59, 75
6, 109056, Note_on_c, 4, 59, 0
6, 109056, Note_on_c, 4, 61, 75
6, 109568, Note_on_c, 4, 61, 0
6, 109568, Note_on_c, 4, 57, 74
6, 110080, Note_on_c, 4, 57, 0
6, 110080, Note_on_c, 4, 59, 74
6, 110592, Note_on_c, 4, 59, 0
6, 110592, Note_on_c, 4, 61, 74
6, 111104, Note_on_c, 4, 61, 0
6, 111104, Note_on_c, 4, 62, 73
6, 111616, Note_on_c, 4, 62, 0
6, 111616, Note_on_c, 4, 59, 73
6, 112128, Note_on_c, 4, 59, 0
6, 112128, Note_on_c, 4, 61, 73
6, 112640, Note_on_c, 4, 61, 0
6, 112640, Note_on_c, 4, 62, 72
6, 113152, Note_on_c, 4, 62, 0
6, 113152, Note_on_c, 4, 61, 72
6, 113664, Note_on_c, 4, 61, 0
6, 113664, Note_on_c, 4, 62, 72
6, 114176, Note_on_c, 4, 62, 0
6, 114176, Note_on_c, 4, 64, 71
6, 114688, Note_on_c, 4, 64, 0
6, 114688, Note_on_c, 4, 62, 71
6, 115200, Note_on_c, 4, 62, 0
6, 115200, Note_on_c, 4, 64, 71
6, 115712, Note_on_c, 4, 64, 0
6, 115712, Note_on_c, 4, 62, 70
6, 116224, Note_on_c, 4, 62, 0
6, 116224, Note_on_c, 4, 61, 70
6, 116736, Note_on_c, 4, 61, 0
6, 116736, Note_on_c, 4, 59, 70
6, 121856, Note_on_c, 4, 59, 0
6, 121856, Note_on_c, 4, 61, 76
6, 122880, Note_on_c, 4, 61, 0
6, 122880, Note_on_c, 4, 62, 78
6, 124928, Note_on_c, 4, 62, 0
6, 124928, Note_on_c, 4, 57, 83
6, 126976, Note_on_c, 4, 57, 0
6, 126976, Note_on_c, 4, 55, 87
6, 128000, Note_on_c, 4, 55, 0
6, 128000, Note_on_c, 4, 54, 90
6, 129024, Note_on_c, 4, 54, 0
6, 129024, Note_on_c, 4, 52, 92
6, 131072, Note_on_c, 4, 52, 0
6, 131072, Note_on_c, 4, 57, 91
6, 133120, Note_on_c, 4, 57, 0
6, 133120, Note_on_c, 4, 50, 88
6, 135168, Note_on_c, 4, 50, 0
6, 135168, Note_on_c, 4, 52, 85
6, 137216, Note_on_c, 4, 52, 0
6, 137216, Note_on_c, 4, 45, 83
6, 143360, Note_on_c, 4, 45, 0
6, 143360, Note_on_c, 4, 46, 77
6, 143872, Note_on_c, 4, 46, 0
6, 143872, Note_on_c, 4, 47, 77
6, 144384, Note_on_c, 4, 47, 0
6, 144384, Note_on_c, 4, 44, 77
6, 144896, Note_on_c, 4, 44, 0
6, 144896, Note_on_c, 4, 46, 77
6, 145408, Note_on_c, 4, 46, 0
6, 145408, Note_on_c, 4, 47, 77
6, 145920, Note_on_c, 4, 47, 0
6, 145920, Note_on_c, 4, 49, 78
6, 146432, Note_on_c, 4, 49, 0
6, 146432, Note_on_c, 4, 46, 78
6, 146944, Note_on_c, 4, 46, 0
6, 146944, Note_on_c, 4, 47, 78
6, 147456, Note_on_c, 4, 47, 0
6, 147456, Note_on_c, 4, 49, 78
6, 147968, Note_on_c, 4, 49, 0
6, 147968, Note_on_c, 4, 50, 78
6, 148480, Note_on_c, 4, 50, 0
6, 148480, Note_on_c, 4, 47, 78
6, 148992, Note_on_c, 4, 47, 0
6, 148992, Note_on_c, 4, 49, 78
6, 149504, Note_on_c, 4, 49, 0
6, 149504, Note_on_c, 4, 50, 79
6, 150016, Note_on_c, 4, 50, 0
6, 150016, Note_on_c, 4, 49, 79
6, 150528, Note_on_c, 4, 49, 0
6, 150528, Note_on_c, 4, 50, 78
6, 151040, Note_on_c, 4, 50, 0
6, 151040, Note_on_c, 4, 52, 77
6, 151552, Note_on_c, 4, 52, 0
6, 151552, Note_on_c, 4, 48, 76
6, 152064, Note_on_c, 4, 48, 0
6, 152064, Note_on_c, 4, 47, 75
6, 152576, Note_on_c, 4, 47, 0
6, 152576, Note_on_c, 4, 48, 75
6, 153088, Note_on_c, 4, 48, 0
6, 153088, Note_on_c, 4, 50, 74
6, 153600, Note_on_c, 4, 50, 0
6, 153600, Note_on_c, 4, 47, 73
6, 154112, Note_on_c, 4, 47, 0
6, 154112, Note_on_c, 4, 49, 72
6, 154624, Note_on_c, 4, 49, 0
6, 154624, Note_on_c, 4, 51, 72
6, 155136, Note_on_c, 4, 51, 0
6, 155136, Note_on_c, 4, 47, 71
6, 155648, Note_on_c, 4, 47, 0
6, 155648, Note_on_c, 4, 52, 70
6, 157696, Note_on_c, 4, 52, 0
6, 157696, Note_on_c, 4, 45, 67
6, 159744, Note_on_c, 4, 45, 0
6, 159744, Note_on_c, 4, 47, 66
6, 161792, Note_on_c, 4, 47, 0
6, 161792, Note_on_c, 4, 40, 67
6, 163840, Note_on_c, 4, 40, 0
6, 163840, Note_on_c, 4, 67, 67
6, 167936, Note_on_c, 4, 67, 0
6, 167936, Note_on_c, 4, 66, 69
6, 169984, Note_on_c, 4, 66, 0
6, 169984, Note_on_c, 4, 67, 69
6, 171008, Note_on_c, 4, 67, 0
6, 171008, Note_on_c, 4, 66, 70
6, 171520, Note_on_c, 4, 66, 0
6, 171520, Note_on_c, 4, 64, 70
6, 172032, Note_on_c, 4, 64, 0
6, 172032, Note_on_c, 4, 59, 70
6, 176128, Note_on_c, 4, 59, 0
6, 176128, Note_on_c, 4, 58, 71
6, 178176, Note_on_c, 4, 58, 0
6, 178176, Note_on_c, 4, 59, 72
6, 179200, Note_on_c, 4, 59, 0
6, 179200, Note_on_c, 4, 57, 72
6, 179712, Note_on_c, 4, 57, 0
6, 179712, Note_on_c, 4, 55, 73
6, 180224, Note_on_c, 4, 55, 0
6, 180224, Note_on_c, 4, 50, 73
6, 184320, Note_on_c, 4, 50, 0
6, 184320, Note_on_c, 4, 49, 74
6, 186368, Note_on_c, 4, 49, 0
6, 186368, Note_on_c, 4, 50, 75
6, 187392, Note_on_c, 4, 50, 0
6, 187392, Note_on_c, 4, 49, 75
6, 187904, Note_on_c, 4, 49, 0
6, 187904, Note_on_c, 4, 47, 75
6, 188416, Note_on_c, 4, 47, 0
6, 188416, Note_on_c, 4, 45, 76
6, 188928, Note_on_c, 4, 45, 0
6, 188928, Note_on_c, 4, 47, 76
6, 189440, Note_on_c, 4, 47, 0
6, 189440, Note_on_c, 4, 44, 76
6, 189952, Note_on_c, 4, 44, 0
6, 189952, Note_on_c, 4, 45, 77
6, 190464, Note_on_c, 4, 45, 0
6, 190464, Note_on_c, 4, 47, 77
6, 190976, Note_on_c, 4, 47, 0
6, 190976, Note_on_c, 4, 45, 78
6, 191488, Note_on_c, 4, 45, 0
6, 191488, Note_on_c, 4, 47, 78
6, 192000, Note_on_c, 4, 47, 0
6, 192000, Note_on_c, 4, 49, 78
6, 192512, Note_on_c, 4, 49, 0
6, 192512, Note_on_c, 4, 47, 79
6, 193024, Note_on_c, 4, 47, 0
6, 193024, Note_on_c, 4, 50, 79
6, 193536, Note_on_c, 4, 50, 0
6, 193536, Note_on_c, 4, 49, 80
6, 194048, Note_on_c, 4, 49, 0
6, 194048, Note_on_c, 4, 47, 80
6, 194560, Note_on_c, 4, 47, 0
6, 194560, Note_on_c, 4, 45, 80
6, 195584, Note_on_c, 4, 45, 0
6, 195584, Note_on_c, 4, 47, 81
6, 196608, Note_on_c, 4, 47, 0
6, 196608, Note_on_c, 4, 49, 82
6, 198656, Note_on_c, 4, 49, 0
6, 198656, Note_on_c, 4, 42, 83
6, 199680, Note_on_c, 4, 42, 0
6, 199680, Note_on_c, 4, 54, 84
6, 200704, Note_on_c, 4, 54, 0
6, 200704, Note_on_c, 4, 59, 85
6, 203776, Note_on_c, 4, 59, 0
6, 203776, Note_on_c, 4, 57, 87
6, 204800, Note_on_c, 4, 57, 0
6, 204800, Note_on_c, 4, 55, 88
6, 205824, Note_on_c, 4, 55, 0
6, 205824, Note_on_c, 4, 54, 89
6, 206848, Note_on_c, 4, 54, 0
6, 206848, Note_on_c, 4, 52, 90
6, 208896, Note_on_c, 4, 52, 0
6, 208896, Note_on_c, 4, 57, 91
6, 210944, Note_on_c, 4, 57, 0
6, 210944, Note_on_c, 4, 50, 93
6, 211968, Note_on_c, 4, 50, 0
6, 211968, Note_on_c, 4, 62, 94
6, 212992, Note_on_c, 4, 62, 0
6, 212992, Note_on_c, 4, 61, 95
6, 214016, Note_on_c, 4, 61, 0
6, 214016, Note_on_c, 4, 59, 98
6, 215040, Note_on_c, 4, 59, 0
6, 215040, Note_on_c, 4, 61, 98
6, 216064, Note_on_c, 4, 61, 0
6, 216064, Note_on_c, 4, 57, 98
6, 217088, Note_on_c, 4, 57, 0
6, 217088, Note_on_c, 4, 62, 98
6, 221184, Note_on_c, 4, 62, 0
6, 221184, Note_on_c, 4, 60, 98
6, 225280, Note_on_c, 4, 60, 0
6, 225280, Note_on_c, 4, 59, 103
6, 227328, Note_on_c, 4, 59, 0
6, 227328, Note_on_c, 4, 50, 104
6, 227328, Note_on_c, 4, 57, 104
6, 231424, Note_on_c, 4, 50, 0
6, 231424, Note_on_c, 4, 57, 0
6, 231424, Note_on_c, 4, 52, 101
6, 233472, Note_on_c, 4, 52, 0
6, 233472, Note_on_c, 4, 54, 100
6, 235520, Note_on_c, 4, 54, 0
6, 235520, Note_on_c, 4, 55, 99
6, 237568, Note_on_c, 4, 55, 0
6, 237568, Note_on_c, 4, 54, 98
6, 238592, Note_on_c, 4, 54, 0
6, 238592, Note_on_c, 4, 52, 98
6, 239616, Note_on_c, 4, 52, 0
6, 239616, Note_on_c, 4, 54, 97
6, 240640, Note_on_c, 4, 54, 0
6, 240640, Note_on_c, 4, 50, 97
6, 241664, Note_on_c, 4, 50, 0
6, 241664, Note_on_c, 4, 55, 96
6, 245760, Note_on_c, 4, 55, 0
6, 245760, Note_on_c, 4, 54, 97
6, 247808, Note_on_c, 4, 54, 0
6, 247808, Note_on_c, 4, 52, 99
6, 249856, Note_on_c, 4, 52, 0
6, 249856, Note_on_c, 4, 57, 101
6, 251904, Note_on_c, 4, 57, 0
6, 251904, Note_on_c, 4, 50, 103
6, 252928, Note_on_c, 4, 50, 0
6, 252928, Note_on_c, 4, 54, 104
6, 253952, Note_on_c, 4, 54, 0
6, 253952, Note_on_c, 4, 59, 103
6, 257024, Note_on_c, 4, 59, 0
6, 257024, Note_on_c, 4, 61, 103
6, 258048, Note_on_c, 4, 61, 0
6, 258048, Note_on_c, 4, 62, 103
6, 259072, Note_on_c, 4, 62, 0
6, 259072, Note_on_c, 4, 59, 103
6, 260096, Note_on_c, 4, 59, 0
6, 260096, Note_on_c, 4, 55, 103
6, 261120, Note_on_c, 4, 55, 0
6, 261120, Note_on_c, 4, 52, 103
6, 262144, Note_on_c, 4, 52, 0
6, 262144, Note_on_c, 4, 57, 103
6, 264192, Note_on_c, 4, 57, 0
6, 264192, Note_on_c, 4, 50, 103
6, 268288, Note_on_c, 4, 50, 0
6, 268288, Note_on_c, 4, 57, 103
6, 270336, Note_on_c, 4, 57, 0
6, 270336, Note_on_c, 4, 59, 102
6, 272384, Note_on_c, 4, 59, 0
6, 272384, Note_on_c, 4, 55, 102
6, 274432, Note_on_c, 4, 55, 0
6, 274432, Note_on_c, 4, 57, 100
6, 276480, Note_on_c, 4, 57, 0
6, 276480, Note_on_c, 4, 59, 98
6, 278528, Note_on_c, 4, 59, 0
6, 278528, Note_on_c, 4, 61, 96
6, 280576, Note_on_c, 4, 61, 0
6, 280576, Note_on_c, 4, 62, 95
6, 282624, Note_on_c, 4, 62, 0
6, 282624, Note_on_c, 4, 61, 92
6, 283648, Note_on_c, 4, 61, 0
6, 283648, Note_on_c, 4, 59, 92
6, 284672, Note_on_c, 4, 59, 0
6, 284672, Note_on_c, 4, 45, 92
6, 288768, Note_on_c, 4, 45, 0
6, 288768, Note_on_c, 4, 47, 92
6, 290816, Note_on_c, 4, 47, 0
6, 290816, Note_on_c, 4, 49, 92
6, 292864, Note_on_c, 4, 49, 0
6, 292864, Note_on_c, 4, 50, 92
6, 294912, Note_on_c, 4, 50, 0
6, 294912, Note_on_c, 4, 49, 92
6, 295936, Note_on_c, 4, 49, 0
6, 295936, Note_on_c, 4, 47, 92
6, 296960, Note_on_c, 4, 47, 0
6, 296960, Note_on_c, 4, 49, 92
6, 297984, Note_on_c, 4, 49, 0
6, 297984, Note_on_c, 4, 45, 92
6, 299008, Note_on_c, 4, 45, 0
6, 299008, Note_on_c, 4, 50, 92
6, 303104, Note_on_c, 4, 50, 0
6, 303104, Note_on_c, 4, 49, 93
6, 305152, Note_on_c, 4, 49, 0
6, 305152, Note_on_c, 4, 47, 95
6, 305152, Note_on_c, 4, 52, 95
6, 309248, Note_on_c, 4, 47, 0
6, 309248, Note_on_c, 4, 52, 0
6, 309248, Note_on_c, 4, 45, 97
6, 311296, Note_on_c, 4, 45, 0
6, 311296, Note_on_c, 4, 57, 98
6, 315392, Note_on_c, 4, 57, 0
6, 315392, Note_on_c, 4, 56, 101
6, 317440, Note_on_c, 4, 56, 0
6, 317440, Note_on_c, 4, 57, 102
6, 317952, Note_on_c, 4, 57, 0
6, 317952, Note_on_c, 4, 59, 102
6, 318464, Note_on_c, 4, 59, 0
6, 318464, Note_on_c, 4, 57, 103
6, 318976, Note_on_c, 4, 57, 0
6, 318976, Note_on_c, 4, 55, 103
6, 319488, Note_on_c, 4, 55, 0
6, 319488, Note_on_c, 4, 54, 103
6, 320000, Note_on_c, 4, 54, 0
6, 320000, Note_on_c, 4, 55, 103
6, 320512, Note_on_c, 4, 55, 0
6, 320512, Note_on_c, 4, 52, 104
6, 321024, Note_on_c, 4, 52, 0
6, 321024, Note_on_c, 4, 54, 104
6, 321536, Note_on_c, 4, 54, 0
6, 321536, Note_on_c, 4, 56, 104
6, 322048, Note_on_c, 4, 56, 0
6, 322048, Note_on_c, 4, 57, 105
6, 322560, Note_on_c, 4, 57, 0
6, 322560, Note_on_c, 4, 54, 105
6, 323072, Note_on_c, 4, 54, 0
6, 323072, Note_on_c, 4, 56, 105
6, 323584, Note_on_c, 4, 56, 0
6, 323584, Note_on_c, 4, 58, 106
6, 324096, Note_on_c, 4, 58, 0
6, 324096, Note_on_c, 4, 59, 106
6, 324608, Note_on_c, 4, 59, 0
6, 324608, Note_on_c, 4, 56, 107
6, 325120, Note_on_c, 4, 56, 0
6, 325120, Note_on_c, 4, 58, 107
6, 325632, Note_on_c, 4, 58, 0
6, 325632, Note_on_c, 4, 59, 107
6, 330752, Note_on_c, 4, 59, 0
6, 330752, Note_on_c, 4, 57, 112
6, 331264, Note_on_c, 4, 57, 0
6, 331264, Note_on_c, 4, 55, 112
6, 331776, Note_on_c, 4, 55, 0
6, 331776, Note_on_c, 4, 57, 113
6, 332288, Note_on_c, 4, 57, 0
6, 332288, Note_on_c, 4, 59, 113
6, 332800, Note_on_c, 4, 59, 0
6, 332800, Note_on_c, 4, 61, 114
6, 333312, Note_on_c, 4, 61, 0
6, 333312, Note_on_c, 4, 57, 114
6, 333824, Note_on_c, 4, 57, 0
6, 333824, Note_on_c, 4, 62, 115
6, 334848, Note_on_c, 4, 62, 0
6, 334848, Note_on_c, 4, 57, 116
6, 335872, Note_on_c, 4, 57, 0
6, 335872, Note_on_c, 4, 62, 117
6, 339968, Note_on_c, 4, 62, 0
6, 339968, Note_on_c, 4, 60, 121
6, 342016, Note_on_c, 4, 60, 0
6, 342016, Note_on_c, 4, 59, 123
6, 348160, Note_on_c, 4, 59, 0
6, 348160, Note_on_c, 4, 57, 127
6, 350208, Note_on_c, 4, 57, 0
6, 350208, Note_on_c, 4, 56, 127
6, 354304, Note_on_c, 4, 56, 0
6, 354304, Note_on_c, 4, 57, 127
6, 357376, Note_on_c, 4, 57, 0
6, 357376, Note_on_c, 4, 50, 127
6, 358400, Note_on_c, 4, 50, 0
6, 358400, Note_on_c, 4, 55, 127
6, 359424, Note_on_c, 4, 55, 0
6, 359424, Note_on_c, 4, 54, 127
6, 360448, Note_on_c, 4, 54, 0
6, 360448, Note_on_c, 4, 55, 127
6, 361472, Note_on_c, 4, 55, 0
6, 361472, Note_on_c, 4, 52, 127
6, 362496, Note_on_c, 4, 52, 0
6, 362496, Note_on_c, 4, 54, 127
6, 365568, Note_on_c, 4, 54, 0
6, 365568, Note_on_c, 4, 55, 127
6, 366592, Note_on_c, 4, 55, 0
6, 366592, Note_on_c, 4, 57, 127
6, 368640, Note_on_c, 4, 57, 0
6, 368640, Note_on_c, 4, 45, 127
6, 370483, Note_on_c, 4, 45, 0
6, 370688, Note_on_c, 4, 38, 127
6, 378880, Note_on_c, 4, 38, 0
6, 380623, Control_c, 4, 121, 127
6, 387072, End_track
7, 0, Start_track
7, 0, Title_t, "Violin I"
7, 0, Program_c, 5, 48
7, 0, Control_c, 5, 121, 127
7, 0, Control_c, 5, 91, 127
7, 0, Control_c, 5, 1, 20
7, 0, Control_c, 5, 10, 30
7, 0, Control_c, 5, 11, 100
7, 20480, Note_on_c, 5, 69, 46
7, 22528, Note_on_c, 5, 69, 0
7, 22528, Note_on_c, 5, 71, 48
7, 24576, Note_on_c, 5, 71, 0
7, 24576, Note_on_c, 5, 73, 49
7, 26624, Note_on_c, 5, 73, 0
7, 26624, Note_on_c, 5, 74, 50
7, 28672, Note_on_c, 5, 74, 0
7, 28672, Note_on_c, 5, 73, 52
7, 29696, Note_on_c, 5, 73, 0
7, 29696, Note_on_c, 5, 71, 52
7, 30720, Note_on_c, 5, 71, 0
7, 30720, Note_on_c, 5, 73, 53
7, 31744, Note_on_c, 5, 73, 0
7, 31744, Note_on_c, 5, 69, 53
7, 32768, Note_on_c, 5, 69, 0
7, 32768, Note_on_c, 5, 74, 54
7, 36864, Note_on_c, 5, 74, 0
7, 36864, Note_on_c, 5, 73, 52
7, 38912, Note_on_c, 5, 73, 0
7, 38912, Note_on_c, 5, 71, 49
7, 43008, Note_on_c, 5, 71, 0
7, 43008, Note_on_c, 5, 69, 41
7, 47104, Note_on_c, 5, 69, 0
7, 53248, Note_on_c, 5, 74, 47
7, 57344, Note_on_c, 5, 74, 0
7, 57344, Note_on_c, 5, 73, 52
7, 59392, Note_on_c, 5, 73, 0
7, 59392, Note_on_c, 5, 74, 54
7, 60416, Note_on_c, 5, 74, 0
7, 60416, Note_on_c, 5, 73, 55
7, 60928, Note_on_c, 5, 73, 0
7, 60928, Note_on_c, 5, 71, 56
7, 61440, Note_on_c, 5, 71, 0
7, 61440, Note_on_c, 5, 69, 56
7, 61952, Note_on_c, 5, 69, 0
7, 61952, Note_on_c, 5, 71, 57
7, 62464, Note_on_c, 5, 71, 0
7, 62464, Note_on_c, 5, 67, 57
7, 62976, Note_on_c, 5, 67, 0
7, 62976, Note_on_c, 5, 69, 58
7, 63488, Note_on_c, 5, 69, 0
7, 63488, Note_on_c, 5, 71, 58
7, 64000, Note_on_c, 5, 71, 0
7, 64000, Note_on_c, 5, 69, 59
7, 64512, Note_on_c, 5, 69, 0
7, 64512, Note_on_c, 5, 71, 60
7, 65024, Note_on_c, 5, 71, 0
7, 65024, Note_on_c, 5, 72, 59
7, 65536, Note_on_c, 5, 72, 0
7, 65536, Note_on_c, 5, 71, 57
7, 66048, Note_on_c, 5, 71, 0
7, 66048, Note_on_c, 5, 72, 56
7, 66560, Note_on_c, 5, 72, 0
7, 66560, Note_on_c, 5, 71, 54
7, 67072, Note_on_c, 5, 71, 0
7, 67072, Note_on_c, 5, 69, 53
7, 67584, Note_on_c, 5, 69, 0
7, 67584, Note_on_c, 5, 67, 52
7, 68608, Note_on_c, 5, 67, 0
7, 68608, Note_on_c, 5, 64, 49
7, 69632, Note_on_c, 5, 64, 0
7, 69632, Note_on_c, 5, 69, 42
7, 71680, Note_on_c, 5, 69, 0
7, 71680, Note_on_c, 5, 62, 44
7, 73728, Note_on_c, 5, 62, 0
7, 81920, Note_on_c, 5, 69, 55
7, 83968, Note_on_c, 5, 69, 0
7, 83968, Note_on_c, 5, 71, 57
7, 86016, Note_on_c, 5, 71, 0
7, 86016, Note_on_c, 5, 73, 59
7, 88064, Note_on_c, 5, 73, 0
7, 88064, Note_on_c, 5, 74, 61
7, 90112, Note_on_c, 5, 74, 0
7, 90112, Note_on_c, 5, 73, 64
7, 91136, Note_on_c, 5, 73, 0
7, 91136, Note_on_c, 5, 71, 65
7, 92160, Note_on_c, 5, 71, 0
7, 92160, Note_on_c, 5, 73, 66
7, 93184, Note_on_c, 5, 73, 0
7, 93184, Note_on_c, 5, 66, 67
7, 94208, Note_on_c, 5, 66, 0
7, 94208, Note_on_c, 5, 78, 68
7, 97280, Note_on_c, 5, 78, 0
7, 97280, Note_on_c, 5, 71, 71
7, 98304, Note_on_c, 5, 71, 0
7, 98304, Note_on_c, 5, 76, 72
7, 101376, Note_on_c, 5, 76, 0
7, 101376, Note_on_c, 5, 74, 76
7, 103424, Note_on_c, 5, 74, 0
7, 103424, Note_on_c, 5, 79, 78
7, 104448, Note_on_c, 5, 79, 0
7, 104448, Note_on_c, 5, 73, 78
7, 105472, Note_on_c, 5, 73, 0
7, 105472, Note_on_c, 5, 76, 77
7, 106496, Note_on_c, 5, 76, 0
7, 106496, Note_on_c, 5, 74, 76
7, 107520, Note_on_c, 5, 74, 0
7, 107520, Note_on_c, 5, 73, 76
7, 108544, Note_on_c, 5, 73, 0
7, 108544, Note_on_c, 5, 71, 75
7, 112640, Note_on_c, 5, 71, 0
7, 120832, Note_on_c, 5, 74, 74
7, 124928, Note_on_c, 5, 74, 0
7, 124928, Note_on_c, 5, 76, 83
7, 126976, Note_on_c, 5, 76, 0
7, 126976, Note_on_c, 5, 78, 87
7, 129024, Note_on_c, 5, 78, 0
7, 129024, Note_on_c, 5, 79, 92
7, 131072, Note_on_c, 5, 79, 0
7, 131072, Note_on_c, 5, 78, 91
7, 132096, Note_on_c, 5, 78, 0
7, 132096, Note_on_c, 5, 76, 90
7, 133120, Note_on_c, 5, 76, 0
7, 133120, Note_on_c, 5, 78, 88
7, 134144, Note_on_c, 5, 78, 0
7, 134144, Note_on_c, 5, 74, 87
7, 135168, Note_on_c, 5, 74, 0
7, 135168, Note_on_c, 5, 79, 85
7, 139264, Note_on_c, 5, 79, 0
7, 139264, Note_on_c, 5, 78, 80
7, 140288, Note_on_c, 5, 78, 0
7, 140288, Note_on_c, 5, 78, 78
7, 141312, Note_on_c, 5, 78, 0
7, 141312, Note_on_c, 5, 76, 80
7, 145408, Note_on_c, 5, 76, 0
7, 145408, Note_on_c, 5, 74, 77
7, 149504, Note_on_c, 5, 74, 0
7, 155648, Note_on_c, 5, 76, 70
7, 159744, Note_on_c, 5, 76, 0
7, 159744, Note_on_c, 5, 75, 66
7, 161792, Note_on_c, 5, 75, 0
7, 161792, Note_on_c, 5, 76, 67
7, 162816, Note_on_c, 5, 76, 0
7, 162816, Note_on_c, 5, 74, 67
7, 163328, Note_on_c, 5, 74, 0
7, 163328, Note_on_c, 5, 72, 67
7, 163840, Note_on_c, 5, 72, 0
7, 163840, Note_on_c, 5, 71, 67
7, 164352, Note_on_c, 5, 71, 0
7, 164352, Note_on_c, 5, 72, 68
7, 164864, Note_on_c, 5, 72, 0
7, 164864, Note_on_c, 5, 69, 68
7, 165376, Note_on_c, 5, 69, 0
7, 165376, Note_on_c, 5, 71, 68
7, 165888, Note_on_c, 5, 71, 0
7, 165888, Note_on_c, 5, 72, 68
7, 166400, Note_on_c, 5, 72, 0
7, 166400, Note_on_c, 5, 71, 68
7, 166912, Note_on_c, 5, 71, 0
7, 166912, Note_on_c, 5, 72, 68
7, 167424, Note_on_c, 5, 72, 0
7, 167424, Note_on_c, 5, 74, 69
7, 167936, Note_on_c, 5, 74, 0
7, 167936, Note_on_c, 5, 72, 69
7, 168448, Note_on_c, 5, 72, 0
7, 168448, Note_on_c, 5, 76, 69
7, 168960, Note_on_c, 5, 76, 0
7, 168960, Note_on_c, 5, 74, 69
7, 169472, Note_on_c, 5, 74, 0
7, 169472, Note_on_c, 5, 72, 69
7, 169984, Note_on_c, 5, 72, 0
7, 169984, Note_on_c, 5, 71, 69
7, 171008, Note_on_c, 5, 71, 0
7, 171008, Note_on_c, 5, 73, 70
7, 172032, Note_on_c, 5, 73, 0
7, 172032, Note_on_c, 5, 74, 70
7, 174080, Note_on_c, 5, 74, 0
7, 174080, Note_on_c, 5, 67, 71
7, 175104, Note_on_c, 5, 67, 0
7, 175104, Note_on_c, 5, 64, 71
7, 176128, Note_on_c, 5, 64, 0
7, 176128, Note_on_c, 5, 73, 71
7, 180224, Note_on_c, 5, 73, 0
7, 180224, Note_on_c, 5, 71, 73
7, 181248, Note_on_c, 5, 71, 0
7, 182272, Note_on_c, 5, 76, 74
7, 184320, Note_on_c, 5, 76, 0
7, 184320, Note_on_c, 5, 69, 74
7, 188416, Note_on_c, 5, 69, 0
7, 188416, Note_on_c, 5, 78, 76
7, 192512, Note_on_c, 5, 78, 0
7, 192512, Note_on_c, 5, 77, 79
7, 194560, Note_on_c, 5, 77, 0
7, 194560, Note_on_c, 5, 78, 80
7, 195584, Note_on_c, 5, 78, 0
7, 195584, Note_on_c, 5, 76, 81
7, 196096, Note_on_c, 5, 76, 0
7, 196096, Note_on_c, 5, 74, 82
7, 196608, Note_on_c, 5, 74, 0
7, 196608, Note_on_c, 5, 73, 82
7, 197120, Note_on_c, 5, 73, 0
7, 197120, Note_on_c, 5, 74, 82
7, 197632, Note_on_c, 5, 74, 0
7, 197632, Note_on_c, 5, 71, 83
7, 198144, Note_on_c, 5, 71, 0
7, 198144, Note_on_c, 5, 73, 83
7, 198656, Note_on_c, 5, 73, 0
7, 198656, Note_on_c, 5, 74, 83
7, 199168, Note_on_c, 5, 74, 0
7, 199168, Note_on_c, 5, 73, 84
7, 199680, Note_on_c, 5, 73, 0
7, 199680, Note_on_c, 5, 74, 84
7, 200192, Note_on_c, 5, 74, 0
7, 200192, Note_on_c, 5, 76, 85
7, 200704, Note_on_c, 5, 76, 0
7, 200704, Note_on_c, 5, 74, 85
7, 201216, Note_on_c, 5, 74, 0
7, 201216, Note_on_c, 5, 78, 85
7, 201728, Note_on_c, 5, 78, 0
7, 201728, Note_on_c, 5, 76, 86
7, 202240, Note_on_c, 5, 76, 0
7, 202240, Note_on_c, 5, 74, 86
7, 202752, Note_on_c, 5, 74, 0
7, 202752, Note_on_c, 5, 73, 87
7, 204800, Note_on_c, 5, 73, 0
7, 204800, Note_on_c, 5, 78, 88
7, 206848, Note_on_c, 5, 78, 0
7, 206848, Note_on_c, 5, 71, 90
7, 208896, Note_on_c, 5, 71, 0
7, 212992, Note_on_c, 5, 74, 95
7, 215040, Note_on_c, 5, 74, 0
7, 215040, Note_on_c, 5, 76, 98
7, 217088, Note_on_c, 5, 76, 0
7, 217088, Note_on_c, 5, 78, 98
7, 219136, Note_on_c, 5, 78, 0
7, 219136, Note_on_c, 5, 79, 98
7, 221184, Note_on_c, 5, 79, 0
7, 221184, Note_on_c, 5, 78, 98
7, 222208, Note_on_c, 5, 78, 0
7, 222208, Note_on_c, 5, 76, 98
7, 223232, Note_on_c, 5, 76, 0
7, 223232, Note_on_c, 5, 78, 98
7, 224256, Note_on_c, 5, 78, 0
7, 224256, Note_on_c, 5, 74, 100
7, 225280, Note_on_c, 5, 74, 0
7, 225280, Note_on_c, 5, 79, 103
7, 229376, Note_on_c, 5, 79, 0
7, 229376, Note_on_c, 5, 78, 103
7, 231424, Note_on_c, 5, 78, 0
7, 231424, Note_on_c, 5, 76, 101
7, 233472, Note_on_c, 5, 76, 0
7, 233472, Note_on_c, 5, 74, 100
7, 236544, Note_on_c, 5, 74, 0
7, 236544, Note_on_c, 5, 71, 99
7, 238592, Note_on_c, 5, 71, 0
7, 238592, Note_on_c, 5, 71, 98
7, 239616, Note_on_c, 5, 71, 0
7, 239616, Note_on_c, 5, 69, 97
7, 241664, Note_on_c, 5, 69, 0
7, 241664, Note_on_c, 5, 71, 96
7, 243712, Note_on_c, 5, 71, 0
7, 243712, Note_on_c, 5, 64, 94
7, 244736, Note_on_c, 5, 64, 0
7, 245760, Note_on_c, 5, 69, 97
7, 247808, Note_on_c, 5, 69, 0
7, 247808, Note_on_c, 5, 71, 99
7, 249856, Note_on_c, 5, 71, 0
7, 249856, Note_on_c, 5, 73, 101
7, 251904, Note_on_c, 5, 73, 0
7, 251904, Note_on_c, 5, 74, 103
7, 253952, Note_on_c, 5, 74, 0
7, 253952, Note_on_c, 5, 73, 103
7, 254976, Note_on_c, 5, 73, 0
7, 254976, Note_on_c, 5, 71, 103
7, 256000, Note_on_c, 5, 71, 0
7, 256000, Note_on_c, 5, 73, 103
7, 257024, Note_on_c, 5, 73, 0
7, 257024, Note_on_c, 5, 69, 103
7, 258048, Note_on_c, 5, 69, 0
7, 258048, Note_on_c, 5, 74, 103
7, 262144, Note_on_c, 5, 74, 0
7, 262144, Note_on_c, 5, 73, 103
7, 264192, Note_on_c, 5, 73, 0
7, 264192, Note_on_c, 5, 71, 103
7, 268288, Note_on_c, 5, 71, 0
7, 268288, Note_on_c, 5, 69, 103
7, 272384, Note_on_c, 5, 69, 0
7, 280576, Note_on_c, 5, 74, 95
7, 284672, Note_on_c, 5, 74, 0
7, 284672, Note_on_c, 5, 76, 92
7, 286720, Note_on_c, 5, 76, 0
7, 286720, Note_on_c, 5, 78, 92
7, 288768, Note_on_c, 5, 78, 0
7, 288768, Note_on_c, 5, 79, 92
7, 290816, Note_on_c, 5, 79, 0
7, 290816, Note_on_c, 5, 78, 92
7, 291840, Note_on_c, 5, 78, 0
7, 291840, Note_on_c, 5, 76, 92
7, 292864, Note_on_c, 5, 76, 0
7, 292864, Note_on_c, 5, 78, 92
7, 293888, Note_on_c, 5, 78, 0
7, 293888, Note_on_c, 5, 74, 92
7, 294912, Note_on_c, 5, 74, 0
7, 294912, Note_on_c, 5, 79, 92
7, 299008, Note_on_c, 5, 79, 0
7, 299008, Note_on_c, 5, 78, 92
7, 301056, Note_on_c, 5, 78, 0
7, 301056, Note_on_c, 5, 76, 92
7, 305152, Note_on_c, 5, 76, 0
7, 305152, Note_on_c, 5, 74, 95
7, 307200, Note_on_c, 5, 74, 0
7, 307200, Note_on_c, 5, 74, 96
7, 311296, Note_on_c, 5, 74, 0
7, 311296, Note_on_c, 5, 73, 98
7, 313344, Note_on_c, 5, 73, 0
7, 313344, Note_on_c, 5, 74, 99
7, 313856, Note_on_c, 5, 74, 0
7, 313856, Note_on_c, 5, 76, 100
7, 314368, Note_on_c, 5, 76, 0
7, 314368, Note_on_c, 5, 74, 100
7, 314880, Note_on_c, 5, 74, 0
7, 314880, Note_on_c, 5, 73, 100
7, 315392, Note_on_c, 5, 73, 0
7, 315392, Note_on_c, 5, 71, 101
7, 315904, Note_on_c, 5, 71, 0
7, 315904, Note_on_c, 5, 73, 101
7, 316416, Note_on_c, 5, 73, 0
7, 316416, Note_on_c, 5, 69, 101
7, 316928, Note_on_c, 5, 69, 0
7, 316928, Note_on_c, 5, 71, 102
7, 317440, Note_on_c, 5, 71, 0
7, 317440, Note_on_c, 5, 73, 102
7, 317952, Note_on_c, 5, 73, 0
7, 317952, Note_on_c, 5, 74, 102
7, 318464, Note_on_c, 5, 74, 0
7, 318464, Note_on_c, 5, 71, 103
7, 318976, Note_on_c, 5, 71, 0
7, 318976, Note_on_c, 5, 73, 103
7, 319488, Note_on_c, 5, 73, 0
7, 319488, Note_on_c, 5, 75, 103
7, 320000, Note_on_c, 5, 75, 0
7, 320000, Note_on_c, 5, 76, 103
7, 320512, Note_on_c, 5, 76, 0
7, 320512, Note_on_c, 5, 73, 104
7, 321024, Note_on_c, 5, 73, 0
7, 321024, Note_on_c, 5, 75, 104
7, 321536, Note_on_c, 5, 75, 0
7, 321536, Note_on_c, 5, 76, 104
7, 326656, Note_on_c, 5, 76, 0
7, 326656, Note_on_c, 5, 74, 108
7, 327168, Note_on_c, 5, 74, 0
7, 327168, Note_on_c, 5, 73, 108
7, 327680, Note_on_c, 5, 73, 0
7, 327680, Note_on_c, 5, 74, 109
7, 328192, Note_on_c, 5, 74, 0
7, 328192, Note_on_c, 5, 76, 109
7, 328704, Note_on_c, 5, 76, 0
7, 328704, Note_on_c, 5, 78, 110
7, 329216, Note_on_c, 5, 78, 0
7, 329216, Note_on_c, 5, 74, 110
7, 329728, Note_on_c, 5, 74, 0
7, 329728, Note_on_c, 5, 79, 111
7, 335872, Note_on_c, 5, 79, 0
7, 335872, Note_on_c, 5, 78, 117
7, 337920, Note_on_c, 5, 78, 0
7, 337920, Note_on_c, 5, 76, 119
7, 346112, Note_on_c, 5, 76, 0
7, 346112, Note_on_c, 5, 74, 127
7, 348160, Note_on_c, 5, 74, 0
7, 349184, Note_on_c, 5, 74, 127
7, 350208, Note_on_c, 5, 74, 0
7, 350208, Note_on_c, 5, 76, 127
7, 352768, Note_on_c, 5, 76, 0
7, 352768, Note_on_c, 5, 78, 127
7, 353280, Note_on_c, 5, 78, 0
7, 353280, Note_on_c, 5, 76, 127
7, 353792, Note_on_c, 5, 76, 0
7, 353792, Note_on_c, 5, 74, 127
7, 354304, Note_on_c, 5, 74, 0
7, 354304, Note_on_c, 5, 73, 127
7, 355328, Note_on_c, 5, 73, 0
7, 355328, Note_on_c, 5, 69, 127
7, 356352, Note_on_c, 5, 69, 0
7, 356352, Note_on_c, 5, 78, 127
7, 360448, Note_on_c, 5, 78, 0
7, 360448, Note_on_c, 5, 76, 127
7, 363520, Note_on_c, 5, 76, 0
7, 363520, Note_on_c, 5, 69, 127
7, 364544, Note_on_c, 5, 69, 0
7, 364544, Note_on_c, 5, 74, 127
7, 367616, Note_on_c, 5, 74, 0
7, 367616, Note_on_c, 5, 73, 127
7, 368128, Note_on_c, 5, 73, 0
7, 368128, Note_on_c, 5, 71, 127
7, 368640, Note_on_c, 5, 71, 0
7, 368640, Note_on_c, 5, 73, 127
7, 370483, Note_on_c, 5, 73, 0
7, 370688, Note_on_c, 5, 74, 127
7, 378880, Note_on_c, 5, 74, 0
7, 380623, Control_c, 5, 121, 127
7, 387072, End_track
8, 0, Start_track
8, 0, Title_t, "Violin II"
8, 0, Program_c, 6, 48
8, 0, Control_c, 6, 121, 127
8, 0, Control_c, 6, 91, 127
8, 0, Control_c, 6, 1, 20
8, 0, Control_c, 6, 10, 50
8, 0, Control_c, 6, 11, 100
8, 16384, Note_on_c, 6, 62, 44
8, 18432, Note_on_c, 6, 62, 0
8, 18432, Note_on_c, 6, 64, 45
8, 20480, Note_on_c, 6, 64, 0
8, 20480, Note_on_c, 6, 66, 46
8, 22528, Note_on_c, 6, 66, 0
8, 22528, Note_on_c, 6, 67, 48
8, 24576, Note_on_c, 6, 67, 0
8, 24576, Note_on_c, 6, 66, 49
8, 25600, Note_on_c, 6, 66, 0
8, 25600, Note_on_c, 6, 64, 50
8, 26624, Note_on_c, 6, 64, 0
8, 26624, Note_on_c, 6, 66, 50
8, 27648, Note_on_c, 6, 66, 0
8, 27648, Note_on_c, 6, 62, 51
8, 28672, Note_on_c, 6, 62, 0
8, 28672, Note_on_c, 6, 67, 52
8, 32768, Note_on_c, 6, 67, 0
8, 32768, Note_on_c, 6, 66, 54
8, 34816, Note_on_c, 6, 66, 0
8, 34816, Note_on_c, 6, 64, 55
8, 38912, Note_on_c, 6, 64, 0
8, 38912, Note_on_c, 6, 62, 49
8, 43008, Note_on_c, 6, 62, 0
8, 49152, Note_on_c, 6, 69, 42
8, 53248, Note_on_c, 6, 69, 0
8, 53248, Note_on_c, 6, 68, 47
8, 55296, Note_on_c, 6, 68, 0
8, 55296, Note_on_c, 6, 69, 49
8, 56320, Note_on_c, 6, 69, 0
8, 56320, Note_on_c, 6, 67, 50
8, 56832, Note_on_c, 6, 67, 0
8, 56832, Note_on_c, 6, 66, 51
8, 57344, Note_on_c, 6, 66, 0
8, 57344, Note_on_c, 6, 64, 52
8, 57856, Note_on_c, 6, 64, 0
8, 57856, Note_on_c, 6, 66, 52
8, 58368, Note_on_c, 6, 66, 0
8, 58368, Note_on_c, 6, 62, 53
8, 58880, Note_on_c, 6, 62, 0
8, 58880, Note_on_c, 6, 64, 53
8, 59392, Note_on_c, 6, 64, 0
8, 59392, Note_on_c, 6, 66, 54
8, 59904, Note_on_c, 6, 66, 0
8, 59904, Note_on_c, 6, 64, 54
8, 60416, Note_on_c, 6, 64, 0
8, 60416, Note_on_c, 6, 66, 55
8, 60928, Note_on_c, 6, 66, 0
8, 60928, Note_on_c, 6, 67, 56
8, 61440, Note_on_c, 6, 67, 0
8, 61440, Note_on_c, 6, 66, 56
8, 61952, Note_on_c, 6, 66, 0
8, 61952, Note_on_c, 6, 67, 57
8, 62464, Note_on_c, 6, 67, 0
8, 62464, Note_on_c, 6, 66, 57
8, 62976, Note_on_c, 6, 66, 0
8, 62976, Note_on_c, 6, 64, 58
8, 63488, Note_on_c, 6, 64, 0
8, 63488, Note_on_c, 6, 62, 58
8, 64000, Note_on_c, 6, 62, 0
8, 64000, Note_on_c, 6, 61, 59
8, 64512, Note_on_c, 6, 61, 0
8, 64512, Note_on_c, 6, 62, 60
8, 65024, Note_on_c, 6, 62, 0
8, 65024, Note_on_c, 6, 64, 59
8, 65536, Note_on_c, 6, 64, 0
8, 65536, Note_on_c, 6, 66, 57
8, 67584, Note_on_c, 6, 66, 0
8, 67584, Note_on_c, 6, 59, 52
8, 69632, Note_on_c, 6, 59, 0
8, 77824, Note_on_c, 6, 62, 51
8, 79872, Note_on_c, 6, 62, 0
8, 79872, Note_on_c, 6, 64, 53
8, 81920, Note_on_c, 6, 64, 0
8, 81920, Note_on_c, 6, 66, 55
8, 83968, Note_on_c, 6, 66, 0
8, 83968, Note_on_c, 6, 67, 57
8, 86016, Note_on_c, 6, 67, 0
8, 86016, Note_on_c, 6, 66, 59
8, 87040, Note_on_c, 6, 66, 0
8, 87040, Note_on_c, 6, 64, 60
8, 88064, Note_on_c, 6, 64, 0
8, 88064, Note_on_c, 6, 66, 61
8, 90112, Note_on_c, 6, 66, 0
8, 90112, Note_on_c, 6, 71, 64
8, 93184, Note_on_c, 6, 71, 0
8, 93184, Note_on_c, 6, 69, 67
8, 95232, Note_on_c, 6, 69, 0
8, 95232, Note_on_c, 6, 74, 69
8, 96256, Note_on_c, 6, 74, 0
8, 96256, Note_on_c, 6, 67, 70
8, 97280, Note_on_c, 6, 67, 0
8, 97280, Note_on_c, 6, 71, 71
8, 98304, Note_on_c, 6, 71, 0
8, 98304, Note_on_c, 6, 69, 72
8, 99328, Note_on_c, 6, 69, 0
8, 99328, Note_on_c, 6, 67, 74
8, 100352, Note_on_c, 6, 67, 0
8, 100352, Note_on_c, 6, 66, 75
8, 104448, Note_on_c, 6, 66, 0
8, 112640, Note_on_c, 6, 69, 72
8, 116736, Note_on_c, 6, 69, 0
8, 116736, Note_on_c, 6, 71, 70
8, 118784, Note_on_c, 6, 71, 0
8, 118784, Note_on_c, 6, 73, 69
8, 120832, Note_on_c, 6, 73, 0
8, 120832, Note_on_c, 6, 74, 74
8, 122880, Note_on_c, 6, 74, 0
8, 122880, Note_on_c, 6, 73, 78
8, 123904, Note_on_c, 6, 73, 0
8, 123904, Note_on_c, 6, 71, 81
8, 124928, Note_on_c, 6, 71, 0
8, 124928, Note_on_c, 6, 73, 83
8, 125952, Note_on_c, 6, 73, 0
8, 125952, Note_on_c, 6, 69, 85
8, 126976, Note_on_c, 6, 69, 0
8, 126976, Note_on_c, 6, 74, 87
8, 131072, Note_on_c, 6, 74, 0
8, 131072, Note_on_c, 6, 73, 91
8, 133120, Note_on_c, 6, 73, 0
8, 133120, Note_on_c, 6, 71, 88
8, 137216, Note_on_c, 6, 71, 0
8, 137216, Note_on_c, 6, 69, 83
8, 139264, Note_on_c, 6, 69, 0
8, 139264, Note_on_c, 6, 62, 80
8, 141312, Note_on_c, 6, 62, 0
8, 141312, Note_on_c, 6, 64, 80
8, 143360, Note_on_c, 6, 64, 0
8, 143360, Note_on_c, 6, 66, 77
8, 145408, Note_on_c, 6, 66, 0
8, 145408, Note_on_c, 6, 67, 77
8, 147456, Note_on_c, 6, 67, 0
8, 147456, Note_on_c, 6, 66, 78
8, 148480, Note_on_c, 6, 66, 0
8, 148480, Note_on_c, 6, 64, 78
8, 149504, Note_on_c, 6, 64, 0
8, 149504, Note_on_c, 6, 66, 79
8, 150528, Note_on_c, 6, 66, 0
8, 150528, Note_on_c, 6, 62, 78
8, 151552, Note_on_c, 6, 62, 0
8, 151552, Note_on_c, 6, 69, 76
8, 155648, Note_on_c, 6, 69, 0
8, 155648, Note_on_c, 6, 67, 70
8, 157696, Note_on_c, 6, 67, 0
8, 157696, Note_on_c, 6, 66, 67
8, 161792, Note_on_c, 6, 66, 0
8, 161792, Note_on_c, 6, 64, 67
8, 163840, Note_on_c, 6, 64, 0
8, 163840, Note_on_c, 6, 67, 67
8, 167936, Note_on_c, 6, 67, 0
8, 167936, Note_on_c, 6, 66, 69
8, 169984, Note_on_c, 6, 66, 0
8, 169984, Note_on_c, 6, 67, 69
8, 171008, Note_on_c, 6, 67, 0
8, 171008, Note_on_c, 6, 66, 70
8, 171520, Note_on_c, 6, 66, 0
8, 171520, Note_on_c, 6, 64, 70
8, 172032, Note_on_c, 6, 64, 0
8, 172032, Note_on_c, 6, 62, 70
8, 172544, Note_on_c, 6, 62, 0
8, 172544, Note_on_c, 6, 64, 70
8, 173056, Note_on_c, 6, 64, 0
8, 173056, Note_on_c, 6, 61, 70
8, 173568, Note_on_c, 6, 61, 0
8, 173568, Note_on_c, 6, 62, 71
8, 174080, Note_on_c, 6, 62, 0
8, 174080, Note_on_c, 6, 64, 71
8, 174592, Note_on_c, 6, 64, 0
8, 174592, Note_on_c, 6, 62, 71
8, 175104, Note_on_c, 6, 62, 0
8, 175104, Note_on_c, 6, 64, 71
8, 175616, Note_on_c, 6, 64, 0
8, 175616, Note_on_c, 6, 66, 71
8, 176128, Note_on_c, 6, 66, 0
8, 176128, Note_on_c, 6, 64, 71
8, 176640, Note_on_c, 6, 64, 0
8, 176640, Note_on_c, 6, 67, 72
8, 177152, Note_on_c, 6, 67, 0
8, 177152, Note_on_c, 6, 66, 72
8, 177664, Note_on_c, 6, 66, 0
8, 177664, Note_on_c, 6, 64, 72
8, 178176, Note_on_c, 6, 64, 0
8, 178176, Note_on_c, 6, 62, 72
8, 179200, Note_on_c, 6, 62, 0
8, 179200, Note_on_c, 6, 64, 72
8, 180224, Note_on_c, 6, 64, 0
8, 180224, Note_on_c, 6, 66, 73
8, 182272, Note_on_c, 6, 66, 0
8, 182272, Note_on_c, 6, 59, 74
8, 184320, Note_on_c, 6, 59, 0
8, 184320, Note_on_c, 6, 64, 74
8, 187392, Note_on_c, 6, 64, 0
8, 187392, Note_on_c, 6, 62, 75
8, 188416, Note_on_c, 6, 62, 0
8, 188416, Note_on_c, 6, 61, 76
8, 189440, Note_on_c, 6, 61, 0
8, 189440, Note_on_c, 6, 69, 76
8, 190464, Note_on_c, 6, 69, 0
8, 190464, Note_on_c, 6, 68, 77
8, 194560, Note_on_c, 6, 68, 0
8, 194560, Note_on_c, 6, 66, 80
8, 196608, Note_on_c, 6, 66, 0
8, 200704, Note_on_c, 6, 62, 85
8, 202752, Note_on_c, 6, 62, 0
8, 202752, Note_on_c, 6, 64, 87
8, 204800, Note_on_c, 6, 64, 0
8, 204800, Note_on_c, 6, 66, 88
8, 206848, Note_on_c, 6, 66, 0
8, 206848, Note_on_c, 6, 67, 90
8, 208896, Note_on_c, 6, 67, 0
8, 208896, Note_on_c, 6, 66, 91
8, 209920, Note_on_c, 6, 66, 0
8, 209920, Note_on_c, 6, 64, 92
8, 210944, Note_on_c, 6, 64, 0
8, 210944, Note_on_c, 6, 66, 93
8, 211968, Note_on_c, 6, 66, 0
8, 211968, Note_on_c, 6, 62, 94
8, 212992, Note_on_c, 6, 62, 0
8, 212992, Note_on_c, 6, 67, 95
8, 217088, Note_on_c, 6, 67, 0
8, 217088, Note_on_c, 6, 66, 98
8, 219136, Note_on_c, 6, 66, 0
8, 219136, Note_on_c, 6, 64, 98
8, 223232, Note_on_c, 6, 64, 0
8, 223232, Note_on_c, 6, 62, 98
8, 225280, Note_on_c, 6, 62, 0
8, 228352, Note_on_c, 6, 74, 103
8, 230400, Note_on_c, 6, 74, 0
8, 230400, Note_on_c, 6, 74, 102
8, 231424, Note_on_c, 6, 74, 0
8, 231424, Note_on_c, 6, 73, 101
8, 233472, Note_on_c, 6, 73, 0
8, 233472, Note_on_c, 6, 74, 100
8, 233984, Note_on_c, 6, 74, 0
8, 233984, Note_on_c, 6, 73, 100
8, 234496, Note_on_c, 6, 73, 0
8, 234496, Note_on_c, 6, 71, 100
8, 235008, Note_on_c, 6, 71, 0
8, 235008, Note_on_c, 6, 69, 100
8, 235520, Note_on_c, 6, 69, 0
8, 235520, Note_on_c, 6, 67, 99
8, 236544, Note_on_c, 6, 67, 0
8, 236544, Note_on_c, 6, 62, 99
8, 237568, Note_on_c, 6, 62, 0
8, 237568, Note_on_c, 6, 67, 98
8, 240640, Note_on_c, 6, 67, 0
8, 240640, Note_on_c, 6, 66, 97
8, 241664, Note_on_c, 6, 66, 0
8, 241664, Note_on_c, 6, 62, 96
8, 243712, Note_on_c, 6, 62, 0
8, 243712, Note_on_c, 6, 64, 94
8, 245760, Note_on_c, 6, 64, 0
8, 245760, Note_on_c, 6, 66, 97
8, 247808, Note_on_c, 6, 66, 0
8, 247808, Note_on_c, 6, 67, 99
8, 249856, Note_on_c, 6, 67, 0
8, 249856, Note_on_c, 6, 66, 101
8, 250880, Note_on_c, 6, 66, 0
8, 250880, Note_on_c, 6, 64, 102
8, 251904, Note_on_c, 6, 64, 0
8, 251904, Note_on_c, 6, 66, 103
8, 252928, Note_on_c, 6, 66, 0
8, 252928, Note_on_c, 6, 62, 104
8, 253952, Note_on_c, 6, 62, 0
8, 253952, Note_on_c, 6, 67, 103
8, 258048, Note_on_c, 6, 67, 0
8, 258048, Note_on_c, 6, 66, 103
8, 260096, Note_on_c, 6, 66, 0
8, 260096, Note_on_c, 6, 64, 103
8, 264192, Note_on_c, 6, 64, 0
8, 264192, Note_on_c, 6, 62, 103
8, 268288, Note_on_c, 6, 62, 0
8, 270336, Note_on_c, 6, 62, 102
8, 272384, Note_on_c, 6, 62, 0
8, 272384, Note_on_c, 6, 64, 102
8, 274432, Note_on_c, 6, 64, 0
8, 274432, Note_on_c, 6, 66, 100
8, 276480, Note_on_c, 6, 66, 0
8, 276480, Note_on_c, 6, 67, 98
8, 278528, Note_on_c, 6, 67, 0
8, 278528, Note_on_c, 6, 66, 96
8, 279552, Note_on_c, 6, 66, 0
8, 279552, Note_on_c, 6, 64, 96
8, 280576, Note_on_c, 6, 64, 0
8, 280576, Note_on_c, 6, 66, 95
8, 281600, Note_on_c, 6, 66, 0
8, 281600, Note_on_c, 6, 62, 92
8, 282624, Note_on_c, 6, 62, 0
8, 282624, Note_on_c, 6, 67, 92
8, 286720, Note_on_c, 6, 67, 0
8, 286720, Note_on_c, 6, 66, 92
8, 289792, Note_on_c, 6, 66, 0
8, 289792, Note_on_c, 6, 64, 92
8, 290304, Note_on_c, 6, 64, 0
8, 290304, Note_on_c, 6, 62, 92
8, 290816, Note_on_c, 6, 62, 0
8, 290816, Note_on_c, 6, 69, 92
8, 293888, Note_on_c, 6, 69, 0
8, 293888, Note_on_c, 6, 67, 92
8, 294400, Note_on_c, 6, 67, 0
8, 294400, Note_on_c, 6, 66, 92
8, 294912, Note_on_c, 6, 66, 0
8, 294912, Note_on_c, 6, 71, 92
8, 296960, Note_on_c, 6, 71, 0
8, 296960, Note_on_c, 6, 69, 92
8, 301056, Note_on_c, 6, 69, 0
8, 301056, Note_on_c, 6, 68, 92
8, 303104, Note_on_c, 6, 68, 0
8, 303104, Note_on_c, 6, 69, 93
8, 307200, Note_on_c, 6, 69, 0
8, 307200, Note_on_c, 6, 68, 96
8, 309248, Note_on_c, 6, 68, 0
8, 309248, Note_on_c, 6, 69, 97
8, 309760, Note_on_c, 6, 69, 0
8, 309760, Note_on_c, 6, 64, 97
8, 310272, Note_on_c, 6, 64, 0
8, 310272, Note_on_c, 6, 66, 98
8, 310784, Note_on_c, 6, 66, 0
8, 310784, Note_on_c, 6, 68, 98
8, 311296, Note_on_c, 6, 68, 0
8, 311296, Note_on_c, 6, 69, 98
8, 311808, Note_on_c, 6, 69, 0
8, 311808, Note_on_c, 6, 71, 99
8, 312320, Note_on_c, 6, 71, 0
8, 312320, Note_on_c, 6, 68, 99
8, 312832, Note_on_c, 6, 68, 0
8, 312832, Note_on_c, 6, 69, 99
8, 313344, Note_on_c, 6, 69, 0
8, 313344, Note_on_c, 6, 71, 99
8, 314368, Note_on_c, 6, 71, 0
8, 314368, Note_on_c, 6, 66, 100
8, 315392, Note_on_c, 6, 66, 0
8, 315392, Note_on_c, 6, 71, 101
8, 318464, Note_on_c, 6, 71, 0
8, 318464, Note_on_c, 6, 64, 103
8, 319488, Note_on_c, 6, 64, 0
8, 319488, Note_on_c, 6, 69, 103
8, 320000, Note_on_c, 6, 69, 0
8, 320000, Note_on_c, 6, 71, 103
8, 320512, Note_on_c, 6, 71, 0
8, 320512, Note_on_c, 6, 68, 104
8, 321024, Note_on_c, 6, 68, 0
8, 321024, Note_on_c, 6, 69, 104
8, 321536, Note_on_c, 6, 69, 0
8, 321536, Note_on_c, 6, 71, 104
8, 322048, Note_on_c, 6, 71, 0
8, 322048, Note_on_c, 6, 73, 105
8, 322560, Note_on_c, 6, 73, 0
8, 322560, Note_on_c, 6, 69, 105
8, 323072, Note_on_c, 6, 69, 0
8, 323072, Note_on_c, 6, 71, 105
8, 323584, Note_on_c, 6, 71, 0
8, 323584, Note_on_c, 6, 73, 106
8, 326656, Note_on_c, 6, 73, 0
8, 326656, Note_on_c, 6, 71, 108
8, 327168, Note_on_c, 6, 71, 0
8, 327168, Note_on_c, 6, 69, 108
8, 327680, Note_on_c, 6, 69, 0
8, 327680, Note_on_c, 6, 71, 109
8, 331776, Note_on_c, 6, 71, 0
8, 331776, Note_on_c, 6, 64, 113
8, 333824, Note_on_c, 6, 64, 0
8, 333824, Note_on_c, 6, 62, 115
8, 335872, Note_on_c, 6, 62, 0
8, 335872, Note_on_c, 6, 62, 117
8, 337920, Note_on_c, 6, 62, 0
8, 337920, Note_on_c, 6, 64, 119
8, 339968, Note_on_c, 6, 64, 0
8, 339968, Note_on_c, 6, 66, 121
8, 342016, Note_on_c, 6, 66, 0
8, 342016, Note_on_c, 6, 67, 123
8, 344064, Note_on_c, 6, 67, 0
8, 344064, Note_on_c, 6, 66, 125
8, 345088, Note_on_c, 6, 66, 0
8, 345088, Note_on_c, 6, 64, 126
8, 346112, Note_on_c, 6, 64, 0
8, 346112, Note_on_c, 6, 66, 127
8, 347136, Note_on_c, 6, 66, 0
8, 347136, Note_on_c, 6, 71, 127
8, 349184, Note_on_c, 6, 71, 0
8, 349184, Note_on_c, 6, 71, 127
8, 350208, Note_on_c, 6, 71, 0
8, 350208, Note_on_c, 6, 64, 127
8, 351232, Note_on_c, 6, 64, 0
8, 351232, Note_on_c, 6, 68, 127
8, 352256, Note_on_c, 6, 68, 0
8, 352256, Note_on_c, 6, 71, 127
8, 355328, Note_on_c, 6, 71, 0
8, 355328, Note_on_c, 6, 64, 127
8, 356352, Note_on_c, 6, 64, 0
8, 356352, Note_on_c, 6, 69, 127
8, 360448, Note_on_c, 6, 69, 0
8, 360448, Note_on_c, 6, 67, 127
8, 363520, Note_on_c, 6, 67, 0
8, 363520, Note_on_c, 6, 66, 127
8, 364032, Note_on_c, 6, 66, 0
8, 364032, Note_on_c, 6, 64, 127
8, 364544, Note_on_c, 6, 64, 0
8, 364544, Note_on_c, 6, 66, 127
8, 365568, Note_on_c, 6, 66, 0
8, 365568, Note_on_c, 6, 71, 127
8, 366592, Note_on_c, 6, 71, 0
8, 366592, Note_on_c, 6, 66, 127
8, 367616, Note_on_c, 6, 66, 0
8, 367616, Note_on_c, 6, 64, 127
8, 368128, Note_on_c, 6, 64, 0
8, 368128, Note_on_c, 6, 62, 127
8, 368640, Note_on_c, 6, 62, 0
8, 368640, Note_on_c, 6, 64, 127
8, 370483, Note_on_c, 6, 64, 0
8, 370688, Note_on_c, 6, 66, 127
8, 378880, Note_on_c, 6, 66, 0
8, 380623, Control_c, 6, 121, 127
8, 387072, End_track
9, 0, Start_track
9, 0, Title_t, "Viola"
9, 0, Program_c, 7, 48
9, 0, Control_c, 7, 121, 127
9, 0, Control_c, 7, 91, 127
9, 0, Control_c, 7, 1, 20
9, 0, Control_c, 7, 10, 70
9, 0, Control_c, 7, 11, 100
9, 8192, Note_on_c, 7, 57, 39
9, 10240, Note_on_c, 7, 57, 0
9, 10240, Note_on_c, 7, 59, 40
9, 12288, Note_on_c, 7, 59, 0
9, 12288, Note_on_c, 7, 61, 41
9, 14336, Note_on_c, 7, 61, 0
9, 14336, Note_on_c, 7, 62, 42
9, 16384, Note_on_c, 7, 62, 0
9, 16384, Note_on_c, 7, 61, 44
9, 17408, Note_on_c, 7, 61, 0
9, 17408, Note_on_c, 7, 59, 44
9, 18432, Note_on_c, 7, 59, 0
9, 18432, Note_on_c, 7, 61, 45
9, 19456, Note_on_c, 7, 61, 0
9, 19456, Note_on_c, 7, 57, 46
9, 20480, Note_on_c, 7, 57, 0
9, 20480, Note_on_c, 7, 62, 46
9, 24576, Note_on_c, 7, 62, 0
9, 24576, Note_on_c, 7, 61, 49
9, 26624, Note_on_c, 7, 61, 0
9, 26624, Note_on_c, 7, 59, 50
9, 30720, Note_on_c, 7, 59, 0
9, 30720, Note_on_c, 7, 57, 53
9, 34816, Note_on_c, 7, 57, 0
9, 40960, Note_on_c, 7, 62, 45
9, 45056, Note_on_c, 7, 62, 0
9, 45056, Note_on_c, 7, 61, 38
9, 47104, Note_on_c, 7, 61, 0
9, 47104, Note_on_c, 7, 62, 40
9, 48128, Note_on_c, 7, 62, 0
9, 48128, Note_on_c, 7, 61, 41
9, 48640, Note_on_c, 7, 61, 0
9, 48640, Note_on_c, 7, 59, 42
9, 49152, Note_on_c, 7, 59, 0
9, 49152, Note_on_c, 7, 57, 42
9, 49664, Note_on_c, 7, 57, 0
9, 49664, Note_on_c, 7, 59, 43
9, 50176, Note_on_c, 7, 59, 0
9, 50176, Note_on_c, 7, 55, 44
9, 50688, Note_on_c, 7, 55, 0
9, 50688, Note_on_c, 7, 57, 44
9, 51200, Note_on_c, 7, 57, 0
9, 51200, Note_on_c, 7, 59, 45
9, 51712, Note_on_c, 7, 59, 0
9, 51712, Note_on_c, 7, 57, 45
9, 52224, Note_on_c, 7, 57, 0
9, 52224, Note_on_c, 7, 59, 46
9, 52736, Note_on_c, 7, 59, 0
9, 52736, Note_on_c, 7, 61, 46
9, 53248, Note_on_c, 7, 61, 0
9, 53248, Note_on_c, 7, 59, 47
9, 53760, Note_on_c, 7, 59, 0
9, 53760, Note_on_c, 7, 62, 48
9, 54272, Note_on_c, 7, 62, 0
9, 54272, Note_on_c, 7, 61, 48
9, 54784, Note_on_c, 7, 61, 0
9, 54784, Note_on_c, 7, 59, 49
9, 55296, Note_on_c, 7, 59, 0
9, 55296, Note_on_c, 7, 57, 49
9, 56320, Note_on_c, 7, 57, 0
9, 56320, Note_on_c, 7, 52, 50
9, 57344, Note_on_c, 7, 52, 0
9, 57344, Note_on_c, 7, 57, 52
9, 59392, Note_on_c, 7, 57, 0
9, 59392, Note_on_c, 7, 50, 54
9, 63488, Note_on_c, 7, 50, 0
9, 69632, Note_on_c, 7, 57, 42
9, 71680, Note_on_c, 7, 57, 0
9, 71680, Note_on_c, 7, 59, 44
9, 73728, Note_on_c, 7, 59, 0
9, 73728, Note_on_c, 7, 61, 46
9, 75776, Note_on_c, 7, 61, 0
9, 75776, Note_on_c, 7, 62, 48
9, 77824, Note_on_c, 7, 62, 0
9, 77824, Note_on_c, 7, 61, 51
9, 78848, Note_on_c, 7, 61, 0
9, 78848, Note_on_c, 7, 59, 52
9, 79872, Note_on_c, 7, 59, 0
9, 79872, Note_on_c, 7, 61, 53
9, 80896, Note_on_c, 7, 61, 0
9, 80896, Note_on_c, 7, 54, 54
9, 81920, Note_on_c, 7, 54, 0
9, 81920, Note_on_c, 7, 66, 55
9, 84992, Note_on_c, 7, 66, 0
9, 84992, Note_on_c, 7, 64, 58
9, 87040, Note_on_c, 7, 64, 0
9, 87040, Note_on_c, 7, 69, 60
9, 88064, Note_on_c, 7, 69, 0
9, 88064, Note_on_c, 7, 62, 61
9, 89088, Note_on_c, 7, 62, 0
9, 89088, Note_on_c, 7, 66, 63
9, 90112, Note_on_c, 7, 66, 0
9, 90112, Note_on_c, 7, 64, 64
9, 91136, Note_on_c, 7, 64, 0
9, 91136, Note_on_c, 7, 62, 65
9, 92160, Note_on_c, 7, 62, 0
9, 92160, Note_on_c, 7, 61, 66
9, 96256, Note_on_c, 7, 61, 0
9, 100352, Note_on_c, 7, 62, 75
9, 104448, Note_on_c, 7, 62, 0
9, 104448, Note_on_c, 7, 64, 78
9, 106496, Note_on_c, 7, 64, 0
9, 106496, Note_on_c, 7, 66, 76
9, 108544, Note_on_c, 7, 66, 0
9, 108544, Note_on_c, 7, 67, 75
9, 110592, Note_on_c, 7, 67, 0
9, 110592, Note_on_c, 7, 66, 74
9, 111616, Note_on_c, 7, 66, 0
9, 111616, Note_on_c, 7, 64, 73
9, 112640, Note_on_c, 7, 64, 0
9, 112640, Note_on_c, 7, 66, 72
9, 113664, Note_on_c, 7, 66, 0
9, 113664, Note_on_c, 7, 62, 72
9, 114688, Note_on_c, 7, 62, 0
9, 114688, Note_on_c, 7, 69, 71
9, 118784, Note_on_c, 7, 69, 0
9, 118784, Note_on_c, 7, 67, 69
9, 120832, Note_on_c, 7, 67, 0
9, 120832, Note_on_c, 7, 66, 74
9, 124928, Note_on_c, 7, 66, 0
9, 124928, Note_on_c, 7, 64, 83
9, 126976, Note_on_c, 7, 64, 0
9, 126976, Note_on_c, 7, 57, 87
9, 129024, Note_on_c, 7, 57, 0
9, 129024, Note_on_c, 7, 59, 92
9, 131072, Note_on_c, 7, 59, 0
9, 131072, Note_on_c, 7, 61, 91
9, 133120, Note_on_c, 7, 61, 0
9, 133120, Note_on_c, 7, 62, 88
9, 135168, Note_on_c, 7, 62, 0
9, 135168, Note_on_c, 7, 61, 85
9, 136192, Note_on_c, 7, 61, 0
9, 136192, Note_on_c, 7, 59, 84
9, 137216, Note_on_c, 7, 59, 0
9, 137216, Note_on_c, 7, 61, 83
9, 138240, Note_on_c, 7, 61, 0
9, 138240, Note_on_c, 7, 57, 81
9, 139264, Note_on_c, 7, 57, 0
9, 139264, Note_on_c, 7, 62, 80
9, 143360, Note_on_c, 7, 62, 0
9, 143360, Note_on_c, 7, 61, 77
9, 145408, Note_on_c, 7, 61, 0
9, 145408, Note_on_c, 7, 59, 77
9, 149504, Note_on_c, 7, 59, 0
9, 149504, Note_on_c, 7, 57, 79
9, 151552, Note_on_c, 7, 57, 0
9, 151552, Note_on_c, 7, 64, 76
9, 153600, Note_on_c, 7, 64, 0
9, 153600, Note_on_c, 7, 63, 73
9, 155648, Note_on_c, 7, 63, 0
9, 155648, Note_on_c, 7, 59, 70
9, 157696, Note_on_c, 7, 59, 0
9, 157696, Note_on_c, 7, 60, 67
9, 159744, Note_on_c, 7, 60, 0
9, 159744, Note_on_c, 7, 59, 66
9, 160768, Note_on_c, 7, 59, 0
9, 160768, Note_on_c, 7, 57, 66
9, 161792, Note_on_c, 7, 57, 0
9, 161792, Note_on_c, 7, 55, 67
9, 163840, Note_on_c, 7, 55, 0
9, 172032, Note_on_c, 7, 59, 70
9, 176128, Note_on_c, 7, 59, 0
9, 176128, Note_on_c, 7, 58, 71
9, 178176, Note_on_c, 7, 58, 0
9, 178176, Note_on_c, 7, 59, 72
9, 179200, Note_on_c, 7, 59, 0
9, 179200, Note_on_c, 7, 57, 72
9, 179712, Note_on_c, 7, 57, 0
9, 179712, Note_on_c, 7, 55, 73
9, 180224, Note_on_c, 7, 55, 0
9, 180224, Note_on_c, 7, 54, 73
9, 180736, Note_on_c, 7, 54, 0
9, 180736, Note_on_c, 7, 55, 73
9, 181248, Note_on_c, 7, 55, 0
9, 181248, Note_on_c, 7, 52, 73
9, 181760, Note_on_c, 7, 52, 0
9, 181760, Note_on_c, 7, 54, 73
9, 182272, Note_on_c, 7, 54, 0
9, 182272, Note_on_c, 7, 55, 74
9, 182784, Note_on_c, 7, 55, 0
9, 182784, Note_on_c, 7, 54, 74
9, 183296, Note_on_c, 7, 54, 0
9, 183296, Note_on_c, 7, 55, 74
9, 183808, Note_on_c, 7, 55, 0
9, 183808, Note_on_c, 7, 57, 74
9, 184320, Note_on_c, 7, 57, 0
9, 184320, Note_on_c, 7, 55, 74
9, 184832, Note_on_c, 7, 55, 0
9, 184832, Note_on_c, 7, 59, 74
9, 185344, Note_on_c, 7, 59, 0
9, 185344, Note_on_c, 7, 57, 75
9, 185856, Note_on_c, 7, 57, 0
9, 185856, Note_on_c, 7, 55, 75
9, 186368, Note_on_c, 7, 55, 0
9, 186368, Note_on_c, 7, 54, 75
9, 187392, Note_on_c, 7, 54, 0
9, 187392, Note_on_c, 7, 55, 75
9, 188416, Note_on_c, 7, 55, 0
9, 188416, Note_on_c, 7, 57, 76
9, 190464, Note_on_c, 7, 57, 0
9, 190464, Note_on_c, 7, 50, 77
9, 191488, Note_on_c, 7, 50, 0
9, 191488, Note_on_c, 7, 62, 78
9, 192512, Note_on_c, 7, 62, 0
9, 192512, Note_on_c, 7, 61, 79
9, 195584, Note_on_c, 7, 61, 0
9, 195584, Note_on_c, 7, 62, 81
9, 196608, Note_on_c, 7, 62, 0
9, 196608, Note_on_c, 7, 64, 82
9, 198656, Note_on_c, 7, 64, 0
9, 198656, Note_on_c, 7, 57, 83
9, 200704, Note_on_c, 7, 57, 0
9, 204800, Note_on_c, 7, 57, 88
9, 206848, Note_on_c, 7, 57, 0
9, 206848, Note_on_c, 7, 59, 90
9, 208896, Note_on_c, 7, 59, 0
9, 208896, Note_on_c, 7, 61, 91
9, 210944, Note_on_c, 7, 61, 0
9, 210944, Note_on_c, 7, 62, 93
9, 212992, Note_on_c, 7, 62, 0
9, 212992, Note_on_c, 7, 61, 95
9, 214016, Note_on_c, 7, 61, 0
9, 214016, Note_on_c, 7, 59, 98
9, 215040, Note_on_c, 7, 59, 0
9, 215040, Note_on_c, 7, 61, 98
9, 216064, Note_on_c, 7, 61, 0
9, 216064, Note_on_c, 7, 57, 98
9, 217088, Note_on_c, 7, 57, 0
9, 217088, Note_on_c, 7, 62, 98
9, 221184, Note_on_c, 7, 62, 0
9, 221184, Note_on_c, 7, 60, 98
9, 225280, Note_on_c, 7, 60, 0
9, 225280, Note_on_c, 7, 59, 103
9, 227328, Note_on_c, 7, 59, 0
9, 227328, Note_on_c, 7, 57, 104
9, 231424, Note_on_c, 7, 57, 0
9, 233472, Note_on_c, 7, 57, 100
9, 235520, Note_on_c, 7, 57, 0
9, 235520, Note_on_c, 7, 59, 99
9, 237568, Note_on_c, 7, 59, 0
9, 237568, Note_on_c, 7, 61, 98
9, 239616, Note_on_c, 7, 61, 0
9, 239616, Note_on_c, 7, 62, 97
9, 241664, Note_on_c, 7, 62, 0
9, 241664, Note_on_c, 7, 61, 96
9, 242688, Note_on_c, 7, 61, 0
9, 242688, Note_on_c, 7, 59, 96
9, 243712, Note_on_c, 7, 59, 0
9, 243712, Note_on_c, 7, 61, 94
9, 244736, Note_on_c, 7, 61, 0
9, 244736, Note_on_c, 7, 57, 95
9, 245760, Note_on_c, 7, 57, 0
9, 245760, Note_on_c, 7, 62, 97
9, 249856, Note_on_c, 7, 62, 0
9, 249856, Note_on_c, 7, 61, 101
9, 251904, Note_on_c, 7, 61, 0
9, 251904, Note_on_c, 7, 57, 103
9, 252928, Note_on_c, 7, 57, 0
9, 252928, Note_on_c, 7, 66, 104
9, 253952, Note_on_c, 7, 66, 0
9, 253952, Note_on_c, 7, 64, 103
9, 254976, Note_on_c, 7, 64, 0
9, 254976, Note_on_c, 7, 62, 103
9, 256000, Note_on_c, 7, 62, 0
9, 256000, Note_on_c, 7, 61, 103
9, 257024, Note_on_c, 7, 61, 0
9, 257024, Note_on_c, 7, 64, 103
9, 258048, Note_on_c, 7, 64, 0
9, 258048, Note_on_c, 7, 62, 103
9, 259072, Note_on_c, 7, 62, 0
9, 259072, Note_on_c, 7, 66, 103
9, 260096, Note_on_c, 7, 66, 0
9, 260096, Note_on_c, 7, 59, 103
9, 262144, Note_on_c, 7, 59, 0
9, 262144, Note_on_c, 7, 57, 103
9, 266240, Note_on_c, 7, 57, 0
9, 266240, Note_on_c, 7, 55, 103
9, 268288, Note_on_c, 7, 55, 0
9, 268288, Note_on_c, 7, 57, 103
9, 270336, Note_on_c, 7, 57, 0
9, 270336, Note_on_c, 7, 59, 102
9, 272384, Note_on_c, 7, 59, 0
9, 272384, Note_on_c, 7, 55, 102
9, 274432, Note_on_c, 7, 55, 0
9, 274432, Note_on_c, 7, 57, 100
9, 276480, Note_on_c, 7, 57, 0
9, 276480, Note_on_c, 7, 59, 98
9, 278528, Note_on_c, 7, 59, 0
9, 278528, Note_on_c, 7, 61, 96
9, 280576, Note_on_c, 7, 61, 0
9, 280576, Note_on_c, 7, 62, 95
9, 282624, Note_on_c, 7, 62, 0
9, 282624, Note_on_c, 7, 61, 92
9, 283648, Note_on_c, 7, 61, 0
9, 283648, Note_on_c, 7, 59, 92
9, 284672, Note_on_c, 7, 59, 0
9, 284672, Note_on_c, 7, 61, 92
9, 285696, Note_on_c, 7, 61, 0
9, 285696, Note_on_c, 7, 57, 92
9, 286720, Note_on_c, 7, 57, 0
9, 286720, Note_on_c, 7, 62, 92
9, 289792, Note_on_c, 7, 62, 0
9, 289792, Note_on_c, 7, 61, 92
9, 290304, Note_on_c, 7, 61, 0
9, 290304, Note_on_c, 7, 59, 92
9, 290816, Note_on_c, 7, 59, 0
9, 290816, Note_on_c, 7, 64, 92
9, 293888, Note_on_c, 7, 64, 0
9, 293888, Note_on_c, 7, 57, 92
9, 294912, Note_on_c, 7, 57, 0
9, 294912, Note_on_c, 7, 62, 92
9, 296960, Note_on_c, 7, 62, 0
9, 296960, Note_on_c, 7, 64, 92
9, 299008, Note_on_c, 7, 64, 0
9, 299008, Note_on_c, 7, 62, 92
9, 300032, Note_on_c, 7, 62, 0
9, 300032, Note_on_c, 7, 61, 92
9, 301056, Note_on_c, 7, 61, 0
9, 301056, Note_on_c, 7, 59, 92
9, 303104, Note_on_c, 7, 59, 0
9, 303104, Note_on_c, 7, 61, 93
9, 305152, Note_on_c, 7, 61, 0
9, 305152, Note_on_c, 7, 62, 95
9, 306176, Note_on_c, 7, 62, 0
9, 306176, Note_on_c, 7, 61, 95
9, 307200, Note_on_c, 7, 61, 0
9, 307200, Note_on_c, 7, 59, 96
9, 309248, Note_on_c, 7, 59, 0
9, 309248, Note_on_c, 7, 64, 97
9, 312320, Note_on_c, 7, 64, 0
9, 312320, Note_on_c, 7, 64, 99
9, 313344, Note_on_c, 7, 64, 0
9, 313344, Note_on_c, 7, 66, 99
9, 314368, Note_on_c, 7, 66, 0
9, 314368, Note_on_c, 7, 62, 100
9, 315392, Note_on_c, 7, 62, 0
9, 315392, Note_on_c, 7, 64, 101
9, 319488, Note_on_c, 7, 64, 0
9, 319488, Note_on_c, 7, 66, 103
9, 321536, Note_on_c, 7, 66, 0
9, 321536, Note_on_c, 7, 59, 104
9, 323584, Note_on_c, 7, 59, 0
9, 323584, Note_on_c, 7, 66, 106
9, 326144, Note_on_c, 7, 66, 0
9, 326144, Note_on_c, 7, 67, 108
9, 326656, Note_on_c, 7, 67, 0
9, 326656, Note_on_c, 7, 66, 108
9, 327168, Note_on_c, 7, 66, 0
9, 327168, Note_on_c, 7, 64, 108
9, 327680, Note_on_c, 7, 64, 0
9, 327680, Note_on_c, 7, 66, 109
9, 328704, Note_on_c, 7, 66, 0
9, 328704, Note_on_c, 7, 62, 110
9, 331776, Note_on_c, 7, 62, 0
9, 331776, Note_on_c, 7, 61, 113
9, 332288, Note_on_c, 7, 61, 0
9, 332288, Note_on_c, 7, 59, 113
9, 332800, Note_on_c, 7, 59, 0
9, 332800, Note_on_c, 7, 61, 114
9, 333312, Note_on_c, 7, 61, 0
9, 333312, Note_on_c, 7, 62, 114
9, 333824, Note_on_c, 7, 62, 0
9, 333824, Note_on_c, 7, 64, 115
9, 334336, Note_on_c, 7, 64, 0
9, 334336, Note_on_c, 7, 61, 115
9, 334848, Note_on_c, 7, 61, 0
9, 334848, Note_on_c, 7, 57, 116
9, 336896, Note_on_c, 7, 57, 0
9, 339968, Note_on_c, 7, 57, 121
9, 342016, Note_on_c, 7, 57, 0
9, 342016, Note_on_c, 7, 59, 123
9, 344064, Note_on_c, 7, 59, 0
9, 344064, Note_on_c, 7, 61, 125
9, 346112, Note_on_c, 7, 61, 0
9, 346112, Note_on_c, 7, 62, 127
9, 348160, Note_on_c, 7, 62, 0
9, 348160, Note_on_c, 7, 64, 127
9, 349184, Note_on_c, 7, 64, 0
9, 349184, Note_on_c, 7, 66, 127
9, 350208, Note_on_c, 7, 66, 0
9, 350208, Note_on_c, 7, 59, 127
9, 352256, Note_on_c, 7, 59, 0
9, 352256, Note_on_c, 7, 64, 127
9, 355328, Note_on_c, 7, 64, 0
9, 355328, Note_on_c, 7, 61, 127
9, 357376, Note_on_c, 7, 61, 0
9, 357376, Note_on_c, 7, 62, 127
9, 358400, Note_on_c, 7, 62, 0
9, 358400, Note_on_c, 7, 59, 127
9, 359424, Note_on_c, 7, 59, 0
9, 359424, Note_on_c, 7, 57, 127
9, 360448, Note_on_c, 7, 57, 0
9, 360448, Note_on_c, 7, 59, 127
9, 361472, Note_on_c, 7, 59, 0
9, 361472, Note_on_c, 7, 55, 127
9, 362496, Note_on_c, 7, 55, 0
9, 362496, Note_on_c, 7, 57, 127
9, 363520, Note_on_c, 7, 57, 0
9, 363520, Note_on_c, 7, 59, 127
9, 364032, Note_on_c, 7, 59, 0
9, 364032, Note_on_c, 7, 61, 127
9, 364544, Note_on_c, 7, 61, 0
9, 364544, Note_on_c, 7, 62, 127
9, 365568, Note_on_c, 7, 62, 0
9, 365568, Note_on_c, 7, 59, 127
9, 366592, Note_on_c, 7, 59, 0
9, 366592, Note_on_c, 7, 57, 127
9, 368640, Note_on_c, 7, 57, 0
9, 368640, Note_on_c, 7, 57, 127
9, 370483, Note_on_c, 7, 57, 0
9, 370688, Note_on_c, 7, 57, 127
9, 378880, Note_on_c, 7, 57, 0
9, 380623, Control_c, 7, 121, 127
9, 387072, End_track
10, 0, Start_track
10, 0, Title_t, "Cello"
10, 0, Program_c, 8, 48
10, 0, Control_c, 8, 121, 127
10, 0, Control_c, 8, 91, 127
10, 0, Control_c, 8, 1, 20
10, 0, Control_c, 8, 10, 90
10, 0, Control_c, 8, 11, 100
10, 4096, Note_on_c, 8, 50, 36
10, 6144, Note_on_c, 8, 50, 0
10, 6144, Note_on_c, 8, 52, 37
10, 8192, Note_on_c, 8, 52, 0
10, 8192, Note_on_c, 8, 54, 39
10, 10240, Note_on_c, 8, 54, 0
10, 10240, Note_on_c, 8, 55, 40
10, 12288, Note_on_c, 8, 55, 0
10, 12288, Note_on_c, 8, 54, 41
10, 13312, Note_on_c, 8, 54, 0
10, 13312, Note_on_c, 8, 52, 42
10, 14336, Note_on_c, 8, 52, 0
10, 14336, Note_on_c, 8, 54, 42
10, 15360, Note_on_c, 8, 54, 0
10, 15360, Note_on_c, 8, 50, 43
10, 16384, Note_on_c, 8, 50, 0
10, 16384, Note_on_c, 8, 55, 44
10, 20480, Note_on_c, 8, 55, 0
10, 20480, Note_on_c, 8, 54, 46
10, 22528, Note_on_c, 8, 54, 0
10, 22528, Note_on_c, 8, 52, 48
10, 26624, Note_on_c, 8, 52, 0
10, 26624, Note_on_c, 8, 50, 50
10, 30720, Note_on_c, 8, 50, 0
10, 30720, Note_on_c, 8, 57, 53
10, 34816, Note_on_c, 8, 57, 0
10, 34816, Note_on_c, 8, 64, 55
10, 36864, Note_on_c, 8, 64, 0
10, 36864, Note_on_c, 8, 57, 52
10, 40960, Note_on_c, 8, 57, 0
10, 40960, Note_on_c, 8, 56, 45
10, 43008, Note_on_c, 8, 56, 0
10, 43008, Note_on_c, 8, 57, 41
10, 44032, Note_on_c, 8, 57, 0
10, 44032, Note_on_c, 8, 55, 37
10, 44544, Note_on_c, 8, 55, 0
10, 44544, Note_on_c, 8, 54, 37
10, 45056, Note_on_c, 8, 54, 0
10, 45056, Note_on_c, 8, 52, 38
10, 45568, Note_on_c, 8, 52, 0
10, 45568, Note_on_c, 8, 54, 38
10, 46080, Note_on_c, 8, 54, 0
10, 46080, Note_on_c, 8, 50, 39
10, 46592, Note_on_c, 8, 50, 0
10, 46592, Note_on_c, 8, 52, 40
10, 47104, Note_on_c, 8, 52, 0
10, 47104, Note_on_c, 8, 54, 40
10, 47616, Note_on_c, 8, 54, 0
10, 47616, Note_on_c, 8, 52, 41
10, 48128, Note_on_c, 8, 52, 0
10, 48128, Note_on_c, 8, 54, 41
10, 48640, Note_on_c, 8, 54, 0
10, 48640, Note_on_c, 8, 55, 42
10, 49152, Note_on_c, 8, 55, 0
10, 49152, Note_on_c, 8, 54, 42
10, 49664, Note_on_c, 8, 54, 0
10, 49664, Note_on_c, 8, 55, 43
10, 50176, Note_on_c, 8, 55, 0
10, 50176, Note_on_c, 8, 54, 44
10, 50688, Note_on_c, 8, 54, 0
10, 50688, Note_on_c, 8, 52, 44
10, 51200, Note_on_c, 8, 52, 0
10, 51200, Note_on_c, 8, 50, 45
10, 52224, Note_on_c, 8, 50, 0
10, 52224, Note_on_c, 8, 47, 46
10, 53248, Note_on_c, 8, 47, 0
10, 53248, Note_on_c, 8, 52, 47
10, 55296, Note_on_c, 8, 52, 0
10, 55296, Note_on_c, 8, 45, 49
10, 57344, Note_on_c, 8, 45, 0
10, 57344, Note_on_c, 8, 57, 52
10, 59392, Note_on_c, 8, 57, 0
10, 59392, Note_on_c, 8, 50, 54
10, 61440, Note_on_c, 8, 50, 0
10, 61440, Note_on_c, 8, 62, 56
10, 63488, Note_on_c, 8, 62, 0
10, 63488, Note_on_c, 8, 55, 58
10, 65536, Note_on_c, 8, 55, 0
10, 65536, Note_on_c, 8, 50, 57
10, 67584, Note_on_c, 8, 50, 0
10, 67584, Note_on_c, 8, 52, 52
10, 69632, Note_on_c, 8, 52, 0
10, 69632, Note_on_c, 8, 54, 42
10, 71680, Note_on_c, 8, 54, 0
10, 71680, Note_on_c, 8, 55, 44
10, 73728, Note_on_c, 8, 55, 0
10, 73728, Note_on_c, 8, 54, 46
10, 74752, Note_on_c, 8, 54, 0
10, 74752, Note_on_c, 8, 52, 47
10, 75776, Note_on_c, 8, 52, 0
10, 75776, Note_on_c, 8, 54, 48
10, 76800, Note_on_c, 8, 54, 0
10, 76800, Note_on_c, 8, 47, 49
10, 77824, Note_on_c, 8, 47, 0
10, 77824, Note_on_c, 8, 59, 51
10, 80896, Note_on_c, 8, 59, 0
10, 80896, Note_on_c, 8, 57, 54
10, 82944, Note_on_c, 8, 57, 0
10, 82944, Note_on_c, 8, 62, 56
10, 83968, Note_on_c, 8, 62, 0
10, 83968, Note_on_c, 8, 55, 57
10, 84992, Note_on_c, 8, 55, 0
10, 84992, Note_on_c, 8, 59, 58
10, 86016, Note_on_c, 8, 59, 0
10, 86016, Note_on_c, 8, 57, 59
10, 87040, Note_on_c, 8, 57, 0
10, 87040, Note_on_c, 8, 55, 60
10, 88064, Note_on_c, 8, 55, 0
10, 88064, Note_on_c, 8, 54, 61
10, 92672, Note_on_c, 8, 54, 0
10, 92672, Note_on_c, 8, 52, 66
10, 93184, Note_on_c, 8, 52, 0
10, 93184, Note_on_c, 8, 54, 67
10, 93696, Note_on_c, 8, 54, 0
10, 93696, Note_on_c, 8, 55, 68
10, 94208, Note_on_c, 8, 55, 0
10, 94208, Note_on_c, 8, 54, 68
10, 94720, Note_on_c, 8, 54, 0
10, 94720, Note_on_c, 8, 52, 69
10, 95232, Note_on_c, 8, 52, 0
10, 95232, Note_on_c, 8, 50, 69
10, 95744, Note_on_c, 8, 50, 0
10, 95744, Note_on_c, 8, 49, 70
10, 96256, Note_on_c, 8, 49, 0
10, 96256, Note_on_c, 8, 47, 70
10, 98304, Note_on_c, 8, 47, 0
10, 98304, Note_on_c, 8, 49, 72
10, 100352, Note_on_c, 8, 49, 0
10, 100352, Note_on_c, 8, 50, 75
10, 101376, Note_on_c, 8, 50, 0
10, 101376, Note_on_c, 8, 54, 76
10, 102400, Note_on_c, 8, 54, 0
10, 102400, Note_on_c, 8, 59, 77
10, 106496, Note_on_c, 8, 59, 0
10, 106496, Note_on_c, 8, 58, 76
10, 108544, Note_on_c, 8, 58, 0
10, 108544, Note_on_c, 8, 59, 75
10, 109056, Note_on_c, 8, 59, 0
10, 109056, Note_on_c, 8, 61, 75
10, 109568, Note_on_c, 8, 61, 0
10, 109568, Note_on_c, 8, 57, 74
10, 110080, Note_on_c, 8, 57, 0
10, 110080, Note_on_c, 8, 59, 74
10, 110592, Note_on_c, 8, 59, 0
10, 110592, Note_on_c, 8, 61, 74
10, 111104, Note_on_c, 8, 61, 0
10, 111104, Note_on_c, 8, 62, 73
10, 111616, Note_on_c, 8, 62, 0
10, 111616, Note_on_c, 8, 59, 73
10, 112128, Note_on_c, 8, 59, 0
10, 112128, Note_on_c, 8, 61, 73
10, 112640, Note_on_c, 8, 61, 0
10, 112640, Note_on_c, 8, 62, 72
10, 113152, Note_on_c, 8, 62, 0
10, 113152, Note_on_c, 8, 61, 72
10, 113664, Note_on_c, 8, 61, 0
10, 113664, Note_on_c, 8, 62, 72
10, 114176, Note_on_c, 8, 62, 0
10, 114176, Note_on_c, 8, 64, 71
10, 114688, Note_on_c, 8, 64, 0
10, 114688, Note_on_c, 8, 62, 71
10, 115200, Note_on_c, 8, 62, 0
10, 115200, Note_on_c, 8, 64, 71
10, 115712, Note_on_c, 8, 64, 0
10, 115712, Note_on_c, 8, 62, 70
10, 116224, Note_on_c, 8, 62, 0
10, 116224, Note_on_c, 8, 61, 70
10, 116736, Note_on_c, 8, 61, 0
10, 116736, Note_on_c, 8, 59, 70
10, 121856, Note_on_c, 8, 59, 0
10, 121856, Note_on_c, 8, 61, 76
10, 122880, Note_on_c, 8, 61, 0
10, 122880, Note_on_c, 8, 62, 78
10, 124928, Note_on_c, 8, 62, 0
10, 124928, Note_on_c, 8, 57, 83
10, 126976, Note_on_c, 8, 57, 0
10, 126976, Note_on_c, 8, 55, 87
10, 128000, Note_on_c, 8, 55, 0
10, 128000, Note_on_c, 8, 54, 90
10, 129024, Note_on_c, 8, 54, 0
10, 129024, Note_on_c, 8, 52, 92
10, 131072, Note_on_c, 8, 52, 0
10, 131072, Note_on_c, 8, 57, 91
10, 133120, Note_on_c, 8, 57, 0
10, 133120, Note_on_c, 8, 50, 88
10, 135168, Note_on_c, 8, 50, 0
10, 135168, Note_on_c, 8, 52, 85
10, 137216, Note_on_c, 8, 52, 0
10, 137216, Note_on_c, 8, 45, 83
10, 143360, Note_on_c, 8, 45, 0
10, 143360, Note_on_c, 8, 46, 77
10, 143872, Note_on_c, 8, 46, 0
10, 143872, Note_on_c, 8, 47, 77
10, 144384, Note_on_c, 8, 47, 0
10, 144384, Note_on_c, 8, 44, 77
10, 144896, Note_on_c, 8, 44, 0
10, 144896, Note_on_c, 8, 46, 77
10, 145408, Note_on_c, 8, 46, 0
10, 145408, Note_on_c, 8, 47, 77
10, 145920, Note_on_c, 8, 47, 0
10, 145920, Note_on_c, 8, 49, 78
10, 146432, Note_on_c, 8, 49, 0
10, 146432, Note_on_c, 8, 46, 78
10, 146944, Note_on_c, 8, 46, 0
10, 146944, Note_on_c, 8, 47, 78
10, 147456, Note_on_c, 8, 47, 0
10, 147456, Note_on_c, 8, 49, 78
10, 147968, Note_on_c, 8, 49, 0
10, 147968, Note_on_c, 8, 50, 78
10, 148480, Note_on_c, 8, 50, 0
10, 148480, Note_on_c, 8, 47, 78
10, 148992, Note_on_c, 8, 47, 0
10, 148992, Note_on_c, 8, 49, 78
10, 149504, Note_on_c, 8, 49, 0
10, 149504, Note_on_c, 8, 50, 79
10, 150016, Note_on_c, 8, 50, 0
10, 150016, Note_on_c, 8, 49, 79
10, 150528, Note_on_c, 8, 49, 0
10, 150528, Note_on_c, 8, 50, 78
10, 151040, Note_on_c, 8, 50, 0
10, 151040, Note_on_c, 8, 52, 77
10, 151552, Note_on_c, 8, 52, 0
10, 151552, Note_on_c, 8, 48, 76
10, 152064, Note_on_c, 8, 48, 0
10, 152064, Note_on_c, 8, 47, 75
10, 152576, Note_on_c, 8, 47, 0
10, 152576, Note_on_c, 8, 48, 75
10, 153088, Note_on_c, 8, 48, 0
10, 153088, Note_on_c, 8, 50, 74
10, 153600, Note_on_c, 8, 50, 0
10, 153600, Note_on_c, 8, 47, 73
10, 154112, Note_on_c, 8, 47, 0
10, 154112, Note_on_c, 8, 49, 72
10, 154624, Note_on_c, 8, 49, 0
10, 154624, Note_on_c, 8, 51, 72
10, 155136, Note_on_c, 8, 51, 0
10, 155136, Note_on_c, 8, 47, 71
10, 155648, Note_on_c, 8, 47, 0
10, 155648, Note_on_c, 8, 52, 70
10, 157696, Note_on_c, 8, 52, 0
10, 157696, Note_on_c, 8, 45, 67
10, 159744, Note_on_c, 8, 45, 0
10, 159744, Note_on_c, 8, 47, 66
10, 161792, Note_on_c, 8, 47, 0
10, 161792, Note_on_c, 8, 40, 67
10, 163840, Note_on_c, 8, 40, 0
10, 163840, Note_on_c, 8, 67, 67
10, 167936, Note_on_c, 8, 67, 0
10, 167936, Note_on_c, 8, 66, 69
10, 169984, Note_on_c, 8, 66, 0
10, 169984, Note_on_c, 8, 67, 69
10, 171008, Note_on_c, 8, 67, 0
10, 171008, Note_on_c, 8, 66, 70
10, 171520, Note_on_c, 8, 66, 0
10, 171520, Note_on_c, 8, 64, 70
10, 172032, Note_on_c, 8, 64, 0
10, 172032, Note_on_c, 8, 59, 70
10, 176128, Note_on_c, 8, 59, 0
10, 176128, Note_on_c, 8, 58, 71
10, 178176, Note_on_c, 8, 58, 0
10, 178176, Note_on_c, 8, 59, 72
10, 179200, Note_on_c, 8, 59, 0
10, 179200, Note_on_c, 8, 57, 72
10, 179712, Note_on_c, 8, 57, 0
10, 179712, Note_on_c, 8, 55, 73
10, 180224, Note_on_c, 8, 55, 0
10, 180224, Note_on_c, 8, 50, 73
10, 184320, Note_on_c, 8, 50, 0
10, 184320, Note_on_c, 8, 49, 74
10, 186368, Note_on_c, 8, 49, 0
10, 186368, Note_on_c, 8, 50, 75
10, 187392, Note_on_c, 8, 50, 0
10, 187392, Note_on_c, 8, 49, 75
10, 187904, Note_on_c, 8, 49, 0
10, 187904, Note_on_c, 8, 47, 75
10, 188416, Note_on_c, 8, 47, 0
10, 188416, Note_on_c, 8, 45, 76
10, 188928, Note_on_c, 8, 45, 0
10, 188928, Note_on_c, 8, 47, 76
10, 189440, Note_on_c, 8, 47, 0
10, 189440, Note_on_c, 8, 44, 76
10, 189952, Note_on_c, 8, 44, 0
10, 189952, Note_on_c, 8, 45, 77
10, 190464, Note_on_c, 8, 45, 0
10, 190464, Note_on_c, 8, 47, 77
10, 190976, Note_on_c, 8, 47, 0
10, 190976, Note_on_c, 8, 45, 78
10, 191488, Note_on_c, 8, 45, 0
10, 191488, Note_on_c, 8, 47, 78
10, 192000, Note_on_c, 8, 47, 0
10, 192000, Note_on_c, 8, 49, 78
10, 192512, Note_on_c, 8, 49, 0
10, 192512, Note_on_c, 8, 47, 79
10, 193024, Note_on_c, 8, 47, 0
10, 193024, Note_on_c, 8, 50, 79
10, 193536, Note_on_c, 8, 50, 0
10, 193536, Note_on_c, 8, 49, 80
10, 194048, Note_on_c, 8, 49, 0
10, 194048, Note_on_c, 8, 47, 80
10, 194560, Note_on_c, 8, 47, 0
10, 194560, Note_on_c, 8, 45, 80
10, 195584, Note_on_c, 8, 45, 0
10, 195584, Note_on_c, 8, 47, 81
10, 196608, Note_on_c, 8, 47, 0
10, 196608, Note_on_c, 8, 49, 82
10, 198656, Note_on_c, 8, 49, 0
10, 198656, Note_on_c, 8, 42, 83
10, 199680, Note_on_c, 8, 42, 0
10, 199680, Note_on_c, 8, 54, 84
10, 200704, Note_on_c, 8, 54, 0
10, 200704, Note_on_c, 8, 59, 85
10, 203776, Note_on_c, 8, 59, 0
10, 203776, Note_on_c, 8, 57, 87
10, 204800, Note_on_c, 8, 57, 0
10, 204800, Note_on_c, 8, 55, 88
10, 205824, Note_on_c, 8, 55, 0
10, 205824, Note_on_c, 8, 54, 89
10, 206848, Note_on_c, 8, 54, 0
10, 206848, Note_on_c, 8, 52, 90
10, 208896, Note_on_c, 8, 52, 0
10, 208896, Note_on_c, 8, 57, 91
10, 210944, Note_on_c, 8, 57, 0
10, 210944, Note_on_c, 8, 50, 93
10, 211968, Note_on_c, 8, 50, 0
10, 211968, Note_on_c, 8, 62, 94
10, 212992, Note_on_c, 8, 62, 0
10, 212992, Note_on_c, 8, 61, 95
10, 214016, Note_on_c, 8, 61, 0
10, 214016, Note_on_c, 8, 59, 98
10, 215040, Note_on_c, 8, 59, 0
10, 215040, Note_on_c, 8, 61, 98
10, 216064, Note_on_c, 8, 61, 0
10, 216064, Note_on_c, 8, 57, 98
10, 217088, Note_on_c, 8, 57, 0
10, 217088, Note_on_c, 8, 62, 98
10, 221184, Note_on_c, 8, 62, 0
10, 221184, Note_on_c, 8, 60, 98
10, 225280, Note_on_c, 8, 60, 0
10, 225280, Note_on_c, 8, 59, 103
10, 227328, Note_on_c, 8, 59, 0
10, 227328, Note_on_c, 8, 50, 104
10, 227328, Note_on_c, 8, 57, 104
10, 231424, Note_on_c, 8, 50, 0
10, 231424, Note_on_c, 8, 57, 0
10, 231424, Note_on_c, 8, 52, 101
10, 233472, Note_on_c, 8, 52, 0
10, 233472, Note_on_c, 8, 54, 100
10, 235520, Note_on_c, 8, 54, 0
10, 235520, Note_on_c, 8, 55, 99
10, 237568, Note_on_c, 8, 55, 0
10, 237568, Note_on_c, 8, 54, 98
10, 238592, Note_on_c, 8, 54, 0
10, 238592, Note_on_c, 8, 52, 98
10, 239616, Note_on_c, 8, 52, 0
10, 239616, Note_on_c, 8, 54, 97
10, 240640, Note_on_c, 8, 54, 0
10, 240640, Note_on_c, 8, 50, 97
10, 241664, Note_on_c, 8, 50, 0
10, 241664, Note_on_c, 8, 55, 96
10, 245760, Note_on_c, 8, 55, 0
10, 245760, Note_on_c, 8, 54, 97
10, 247808, Note_on_c, 8, 54, 0
10, 247808, Note_on_c, 8, 52, 99
10, 249856, Note_on_c, 8, 52, 0
10, 249856, Note_on_c, 8, 57, 101
10, 251904, Note_on_c, 8, 57, 0
10, 251904, Note_on_c, 8, 50, 103
10, 252928, Note_on_c, 8, 50, 0
10, 252928, Note_on_c, 8, 54, 104
10, 253952, Note_on_c, 8, 54, 0
10, 253952, Note_on_c, 8, 59, 103
10, 257024, Note_on_c, 8, 59, 0
10, 257024, Note_on_c, 8, 61, 103
10, 258048, Note_on_c, 8, 61, 0
10, 258048, Note_on_c, 8, 62, 103
10, 259072, Note_on_c, 8, 62, 0
10, 259072, Note_on_c, 8, 59, 103
10, 260096, Note_on_c, 8, 59, 0
10, 260096, Note_on_c, 8, 55, 103
10, 261120, Note_on_c, 8, 55, 0
10, 261120, Note_on_c, 8, 52, 103
10, 262144, Note_on_c, 8, 52, 0
10, 262144, Note_on_c, 8, 57, 103
10, 264192, Note_on_c, 8, 57, 0
10, 264192, Note_on_c, 8, 50, 103
10, 268288, Note_on_c, 8, 50, 0
10, 268288, Note_on_c, 8, 57, 103
10, 270336, Note_on_c, 8, 57, 0
10, 270336, Note_on_c, 8, 59, 102
10, 272384, Note_on_c, 8, 59, 0
10, 272384, Note_on_c, 8, 55, 102
10, 274432, Note_on_c, 8, 55, 0
10, 274432, Note_on_c, 8, 57, 100
10, 276480, Note_on_c, 8, 57, 0
10, 276480, Note_on_c, 8, 59, 98
10, 278528, Note_on_c, 8, 59, 0
10, 278528, Note_on_c, 8, 61, 96
10, 280576, Note_on_c, 8, 61, 0
10, 280576, Note_on_c, 8, 62, 95
10, 282624, Note_on_c, 8, 62, 0
10, 282624, Note_on_c, 8, 61, 92
10, 283648, Note_on_c, 8, 61, 0
10, 283648, Note_on_c, 8, 59, 92
10, 284672, Note_on_c, 8, 59, 0
10, 284672, Note_on_c, 8, 45, 92
10, 288768, Note_on_c, 8, 45, 0
10, 288768, Note_on_c, 8, 47, 92
10, 290816, Note_on_c, 8, 47, 0
10, 290816, Note_on_c, 8, 49, 92
10, 292864, Note_on_c, 8, 49, 0
10, 292864, Note_on_c, 8, 50, 92
10, 294912, Note_on_c, 8, 50, 0
10, 294912, Note_on_c, 8, 49, 92
10, 295936, Note_on_c, 8, 49, 0
10, 295936, Note_on_c, 8, 47, 92
10, 296960, Note_on_c, 8, 47, 0
10, 296960, Note_on_c, 8, 49, 92
10, 297984, Note_on_c, 8, 49, 0
10, 297984, Note_on_c, 8, 45, 92
10, 299008, Note_on_c, 8, 45, 0
10, 299008, Note_on_c, 8, 50, 92
10, 303104, Note_on_c, 8, 50, 0
10, 303104, Note_on_c, 8, 49, 93
10, 305152, Note_on_c, 8, 49, 0
10, 305152, Note_on_c, 8, 47, 95
10, 305152, Note_on_c, 8, 52, 95
10, 309248, Note_on_c, 8, 47, 0
10, 309248, Note_on_c, 8, 52, 0
10, 309248, Note_on_c, 8, 45, 97
10, 311296, Note_on_c, 8, 45, 0
10, 311296, Note_on_c, 8, 57, 98
10, 315392, Note_on_c, 8, 57, 0
10, 315392, Note_on_c, 8, 56, 101
10, 317440, Note_on_c, 8, 56, 0
10, 317440, Note_on_c, 8, 57, 102
10, 317952, Note_on_c, 8, 57, 0
10, 317952, Note_on_c, 8, 59, 102
10, 318464, Note_on_c, 8, 59, 0
10, 318464, Note_on_c, 8, 57, 103
10, 318976, Note_on_c, 8, 57, 0
10, 318976, Note_on_c, 8, 55, 103
10, 319488, Note_on_c, 8, 55, 0
10, 319488, Note_on_c, 8, 54, 103
10, 320000, Note_on_c, 8, 54, 0
10, 320000, Note_on_c, 8, 55, 103
10, 320512, Note_on_c, 8, 55, 0
10, 320512, Note_on_c, 8, 52, 104
10, 321024, Note_on_c, 8, 52, 0
10, 321024, Note_on_c, 8, 54, 104
10, 321536, Note_on_c, 8, 54, 0
10, 321536, Note_on_c, 8, 56, 104
10, 322048, Note_on_c, 8, 56, 0
10, 322048, Note_on_c, 8, 57, 105
10, 322560, Note_on_c, 8, 57, 0
10, 322560, Note_on_c, 8, 54, 105
10, 323072, Note_on_c, 8, 54, 0
10, 323072, Note_on_c, 8, 56, 105
10, 323584, Note_on_c, 8, 56, 0
10, 323584, Note_on_c, 8, 58, 106
10, 324096, Note_on_c, 8, 58, 0
10, 324096, Note_on_c, 8, 59, 106
10, 324608, Note_on_c, 8, 59, 0
10, 324608, Note_on_c, 8, 56, 107
10, 325120, Note_on_c, 8, 56, 0
10, 325120, Note_on_c, 8, 58, 107
10, 325632, Note_on_c, 8, 58, 0
10, 325632, Note_on_c, 8, 59, 107
10, 330752, Note_on_c, 8, 59, 0
10, 330752, Note_on_c, 8, 57, 112
10, 331264, Note_on_c, 8, 57, 0
10, 331264, Note_on_c, 8, 55, 112
10, 331776, Note_on_c, 8, 55, 0
10, 331776, Note_on_c, 8, 57, 113
10, 332288, Note_on_c, 8, 57, 0
10, 332288, Note_on_c, 8, 59, 113
10, 332800, Note_on_c, 8, 59, 0
10, 332800, Note_on_c, 8, 61, 114
10, 333312, Note_on_c, 8, 61, 0
10, 333312, Note_on_c, 8, 57, 114
10, 333824, Note_on_c, 8, 57, 0
10, 333824, Note_on_c, 8, 62, 115
10, 334848, Note_on_c, 8, 62, 0
10, 334848, Note_on_c, 8, 57, 116
10, 335872, Note_on_c, 8, 57, 0
10, 335872, Note_on_c, 8, 62, 117
10, 339968, Note_on_c, 8, 62, 0
10, 339968, Note_on_c, 8, 60, 121
10, 342016, Note_on_c, 8, 60, 0
10, 342016, Note_on_c, 8, 59, 123
10, 348160, Note_on_c, 8, 59, 0
10, 348160, Note_on_c, 8, 57, 127
10, 350208, Note_on_c, 8, 57, 0
10, 350208, Note_on_c, 8, 56, 127
10, 354304, Note_on_c, 8, 56, 0
10, 354304, Note_on_c, 8, 57, 127
10, 357376, Note_on_c, 8, 57, 0
10, 357376, Note_on_c, 8, 50, 127
10, 358400, Note_on_c, 8, 50, 0
10, 358400, Note_on_c, 8, 55, 127
10, 359424, Note_on_c, 8, 55, 0
10, 359424, Note_on_c, 8, 54, 127
10, 360448, Note_on_c, 8, 54, 0
10, 360448, Note_on_c, 8, 55, 127
10, 361472, Note_on_c, 8, 55, 0
10, 361472, Note_on_c, 8, 52, 127
10, 362496, Note_on_c, 8, 52, 0
10, 362496, Note_on_c, 8, 54, 127
10, 365568, Note_on_c, 8, 54, 0
10, 365568, Note_on_c, 8, 55, 127
10, 366592, Note_on_c, 8, 55, 0
10, 366592, Note_on_c, 8, 57, 127
10, 368640, Note_on_c, 8, 57, 0
10, 368640, Note_on_c, 8, 45, 127
10, 370483, Note_on_c, 8, 45, 0
10, 370688, Note_on_c, 8, 38, 127
10, 378880, Note_on_c, 8, 38, 0
10, 380623, Control_c, 8, 121, 127
10, 387072, End_track
11, 0, Start_track
11, 0, Title_t, "Flute II"
11, 0, Program_c, 2, 73
11, 16384, Note_on_c, 2, 62, 44
11, 18432, Note_on_c, 2, 62, 0
11, 18432, Note_on_c, 2, 64, 45
11, 20480, Note_on_c, 2, 64, 0
11, 20480, Note_on_c, 2, 66, 46
11, 22528, Note_on_c, 2, 66, 0
11, 22528, Note_on_c, 2, 67, 48
11, 24576, Note_on_c, 2, 67, 0
11, 24576, Note_on_c, 2, 66, 49
11, 25600, Note_on_c, 2, 66, 0
11, 25600, Note_on_c, 2, 64, 50
11, 26624, Note_on_c, 2, 64, 0
11, 26624, Note_on_c, 2, 66, 50
11, 27648, Note_on_c, 2, 66, 0
11, 27648, Note_on_c, 2, 62, 51
11, 28672, Note_on_c, 2, 62, 0
11, 28672, Note_on_c, 2, 67, 52
11, 32768, Note_on_c, 2, 67, 0
11, 32768, Note_on_c, 2, 66, 54
11, 34816, Note_on_c, 2, 66, 0
11, 34816, Note_on_c, 2, 64, 55
11, 38912, Note_on_c, 2, 64, 0
11, 38912, Note_on_c, 2, 62, 49
11, 43008, Note_on_c, 2, 62, 0
11, 49152, Note_on_c, 2, 69, 42
11, 53248, Note_on_c, 2, 69, 0
11, 53248, Note_on_c, 2, 68, 47
11, 55296, Note_on_c, 2, 68, 0
11, 55296, Note_on_c, 2, 69, 49
11, 56320, Note_on_c, 2, 69, 0
11, 56320, Note_on_c, 2, 67, 50
11, 56832, Note_on_c, 2, 67, 0
11, 56832, Note_on_c, 2, 66, 51
11, 57344, Note_on_c, 2, 66, 0
11, 57344, Note_on_c, 2, 64, 52
11, 57856, Note_on_c, 2, 64, 0
11, 57856, Note_on_c, 2, 66, 52
11, 58368, Note_on_c, 2, 66, 0
11, 58368, Note_on_c, 2, 62, 53
11, 58880, Note_on_c, 2, 62, 0
11, 58880, Note_on_c, 2, 64, 53
11, 59392, Note_on_c, 2, 64, 0
11, 59392, Note_on_c, 2, 66, 54
11, 59904, Note_on_c, 2, 66, 0
11, 59904, Note_on_c, 2, 64, 54
11, 60416, Note_on_c, 2, 64, 0
11, 60416, Note_on_c, 2, 66, 55
11, 60928, Note_on_c, 2, 66, 0
11, 60928, Note_on_c, 2, 67, 56
11, 61440, Note_on_c, 2, 67, 0
11, 61440, Note_on_c, 2, 66, 56
11, 61952, Note_on_c, 2, 66, 0
11, 61952, Note_on_c, 2, 67, 57
11, 62464, Note_on_c, 2, 67, 0
11, 62464, Note_on_c, 2, 66, 57
11, 62976, Note_on_c, 2, 66, 0
11, 62976, Note_on_c, 2, 64, 58
11, 63488, Note_on_c, 2, 64, 0
11, 63488, Note_on_c, 2, 62, 58
11, 65024, Note_on_c, 2, 62, 0
11, 65024, Note_on_c, 2, 64, 59
11, 65536, Note_on_c, 2, 64, 0
11, 65536, Note_on_c, 2, 66, 57
11, 67584, Note_on_c, 2, 66, 0
11, 67584, Note_on_c, 2, 59, 52
11, 69632, Note_on_c, 2, 59, 0
11, 77824, Note_on_c, 2, 62, 51
11, 79872, Note_on_c, 2, 62, 0
11, 79872, Note_on_c, 2, 64, 53
11, 81920, Note_on_c, 2, 64, 0
11, 81920, Note_on_c, 2, 66, 55
11, 83968, Note_on_c, 2, 66, 0
11, 83968, Note_on_c, 2, 67, 57
11, 86016, Note_on_c, 2, 67, 0
11, 86016, Note_on_c, 2, 66, 59
11, 87040, Note_on_c, 2, 66, 0
11, 87040, Note_on_c, 2, 64, 60
11, 88064, Note_on_c, 2, 64, 0
11, 88064, Note_on_c, 2, 66, 61
11, 90112, Note_on_c, 2, 66, 0
11, 90112, Note_on_c, 2, 71, 64
11, 93184, Note_on_c, 2, 71, 0
11, 93184, Note_on_c, 2, 69, 67
11, 95232, Note_on_c, 2, 69, 0
11, 95232, Note_on_c, 2, 74, 69
11, 96256, Note_on_c, 2, 74, 0
11, 96256, Note_on_c, 2, 67, 70
11, 97280, Note_on_c, 2, 67, 0
11, 97280, Note_on_c, 2, 71, 71
11, 98304, Note_on_c, 2, 71, 0
11, 98304, Note_on_c, 2, 69, 72
11, 99328, Note_on_c, 2, 69, 0
11, 99328, Note_on_c, 2, 67, 74
11, 100352, Note_on_c, 2, 67, 0
11, 100352, Note_on_c, 2, 66, 75
11, 104448, Note_on_c, 2, 66, 0
11, 112640, Note_on_c, 2, 69, 72
11, 116736, Note_on_c, 2, 69, 0
11, 116736, Note_on_c, 2, 71, 70
11, 118784, Note_on_c, 2, 71, 0
11, 118784, Note_on_c, 2, 73, 69
11, 120832, Note_on_c, 2, 73, 0
11, 120832, Note_on_c, 2, 74, 74
11, 122880, Note_on_c, 2, 74, 0
11, 122880, Note_on_c, 2, 73, 78
11, 123904, Note_on_c, 2, 73, 0
11, 123904, Note_on_c, 2, 71, 81
11, 124928, Note_on_c, 2, 71, 0
11, 124928, Note_on_c, 2, 73, 83
11, 125952, Note_on_c, 2, 73, 0
11, 125952, Note_on_c, 2, 69, 85
11, 126976, Note_on_c, 2, 69, 0
11, 126976, Note_on_c, 2, 74, 87
11, 131072, Note_on_c, 2, 74, 0
11, 131072, Note_on_c, 2, 73, 91
11, 133120, Note_on_c, 2, 73, 0
11, 133120, Note_on_c, 2, 71, 88
11, 137216, Note_on_c, 2, 71, 0
11, 137216, Note_on_c, 2, 69, 83
11, 139264, Note_on_c, 2, 69, 0
11, 139264, Note_on_c, 2, 62, 80
11, 141312, Note_on_c, 2, 62, 0
11, 141312, Note_on_c, 2, 64, 80
11, 143360, Note_on_c, 2, 64, 0
11, 143360, Note_on_c, 2, 66, 77
11, 145408, Note_on_c, 2, 66, 0
11, 145408, Note_on_c, 2, 67, 77
11, 147456, Note_on_c, 2, 67, 0
11, 147456, Note_on_c, 2, 66, 78
11, 148480, Note_on_c, 2, 66, 0
11, 148480, Note_on_c, 2, 64, 78
11, 149504, Note_on_c, 2, 64, 0
11, 149504, Note_on_c, 2, 66, 79
11, 150528, Note_on_c, 2, 66, 0
11, 150528, Note_on_c, 2, 62, 78
11, 151552, Note_on_c, 2, 62, 0
11, 151552, Note_on_c, 2, 69, 76
11, 155648, Note_on_c, 2, 69, 0
11, 155648, Note_on_c, 2, 67, 70
11, 157696, Note_on_c, 2, 67, 0
11, 157696, Note_on_c, 2, 66, 67
11, 161792, Note_on_c, 2, 66, 0
11, 161792, Note_on_c, 2, 64, 67
11, 163840, Note_on_c, 2, 64, 0
11, 163840, Note_on_c, 2, 67, 67
11, 167936, Note_on_c, 2, 67, 0
11, 167936, Note_on_c, 2, 66, 69
11, 169984, Note_on_c, 2, 66, 0
11, 169984, Note_on_c, 2, 67, 69
11, 171008, Note_on_c, 2, 67, 0
11, 171008, Note_on_c, 2, 66, 70
11, 171520, Note_on_c, 2, 66, 0
11, 171520, Note_on_c, 2, 64, 70
11, 172032, Note_on_c, 2, 64, 0
11, 172032, Note_on_c, 2, 62, 70
11, 172544, Note_on_c, 2, 62, 0
11, 172544, Note_on_c, 2, 64, 70
11, 173056, Note_on_c, 2, 64, 0
11, 173056, Note_on_c, 2, 61, 70
11, 173568, Note_on_c, 2, 61, 0
11, 173568, Note_on_c, 2, 62, 71
11, 174080, Note_on_c, 2, 62, 0
11, 174080, Note_on_c, 2, 64, 71
11, 174592, Note_on_c, 2, 64, 0
11, 174592, Note_on_c, 2, 62, 71
11, 175104, Note_on_c, 2, 62, 0
11, 175104, Note_on_c, 2, 64, 71
11, 175616, Note_on_c, 2, 64, 0
11, 175616, Note_on_c, 2, 66, 71
11, 176128, Note_on_c, 2, 66, 0
11, 176128, Note_on_c, 2, 64, 71
11, 176640, Note_on_c, 2, 64, 0
11, 176640, Note_on_c, 2, 67, 72
11, 177152, Note_on_c, 2, 67, 0
11, 177152, Note_on_c, 2, 66, 72
11, 177664, Note_on_c, 2, 66, 0
11, 177664, Note_on_c, 2, 64, 72
11, 178176, Note_on_c, 2, 64, 0
11, 178176, Note_on_c, 2, 62, 72
11, 179200, Note_on_c, 2, 62, 0
11, 179200, Note_on_c, 2, 64, 72
11, 180224, Note_on_c, 2, 64, 0
11, 180224, Note_on_c, 2, 66, 73
11, 182272, Note_on_c, 2, 66, 0
11, 182272, Note_on_c, 2, 64, 74
11, 186368, Note_on_c, 2, 64, 0
11, 186368, Note_on_c, 2, 66, 75
11, 188416, Note_on_c, 2, 66, 0
11, 189440, Note_on_c, 2, 73, 76
11, 190464, Note_on_c, 2, 73, 0
11, 190464, Note_on_c, 2, 74, 77
11, 191488, Note_on_c, 2, 74, 0
11, 191488, Note_on_c, 2, 71, 78
11, 192512, Note_on_c, 2, 71, 0
11, 192512, Note_on_c, 2, 68, 79
11, 194560, Note_on_c, 2, 68, 0
11, 194560, Note_on_c, 2, 66, 80
11, 196608, Note_on_c, 2, 66, 0
11, 200704, Note_on_c, 2, 62, 85
11, 202752, Note_on_c, 2, 62, 0
11, 202752, Note_on_c, 2, 64, 87
11, 204800, Note_on_c, 2, 64, 0
11, 204800, Note_on_c, 2, 66, 88
11, 206848, Note_on_c, 2, 66, 0
11, 206848, Note_on_c, 2, 67, 90
11, 208896, Note_on_c, 2, 67, 0
11, 208896, Note_on_c, 2, 66, 91
11, 209920, Note_on_c, 2, 66, 0
11, 209920, Note_on_c, 2, 64, 92
11, 210944, Note_on_c, 2, 64, 0
11, 210944, Note_on_c, 2, 66, 93
11, 211968, Note_on_c, 2, 66, 0
11, 211968, Note_on_c, 2, 62, 94
11, 212992, Note_on_c, 2, 62, 0
11, 212992, Note_on_c, 2, 67, 95
11, 217088, Note_on_c, 2, 67, 0
11, 217088, Note_on_c, 2, 66, 98
11, 219136, Note_on_c, 2, 66, 0
11, 219136, Note_on_c, 2, 64, 98
11, 223232, Note_on_c, 2, 64, 0
11, 223232, Note_on_c, 2, 62, 98
11, 225280, Note_on_c, 2, 62, 0
11, 228352, Note_on_c, 2, 74, 103
11, 230400, Note_on_c, 2, 74, 0
11, 230400, Note_on_c, 2, 74, 102
11, 231424, Note_on_c, 2, 74, 0
11, 231424, Note_on_c, 2, 73, 101
11, 233472, Note_on_c, 2, 73, 0
11, 233472, Note_on_c, 2, 74, 100
11, 233984, Note_on_c, 2, 74, 0
11, 233984, Note_on_c, 2, 73, 100
11, 234496, Note_on_c, 2, 73, 0
11, 234496, Note_on_c, 2, 71, 100
11, 235008, Note_on_c, 2, 71, 0
11, 235008, Note_on_c, 2, 69, 100
11, 235520, Note_on_c, 2, 69, 0
11, 235520, Note_on_c, 2, 67, 99
11, 236544, Note_on_c, 2, 67, 0
11, 236544, Note_on_c, 2, 62, 99
11, 237568, Note_on_c, 2, 62, 0
11, 237568, Note_on_c, 2, 67, 98
11, 240640, Note_on_c, 2, 67, 0
11, 240640, Note_on_c, 2, 66, 97
11, 241664, Note_on_c, 2, 66, 0
11, 241664, Note_on_c, 2, 62, 96
11, 243712, Note_on_c, 2, 62, 0
11, 243712, Note_on_c, 2, 64, 94
11, 245760, Note_on_c, 2, 64, 0
11, 245760, Note_on_c, 2, 66, 97
11, 247808, Note_on_c, 2, 66, 0
11, 247808, Note_on_c, 2, 67, 99
11, 249856, Note_on_c, 2, 67, 0
11, 249856, Note_on_c, 2, 66, 101
11, 250880, Note_on_c, 2, 66, 0
11, 250880, Note_on_c, 2, 64, 102
11, 251904, Note_on_c, 2, 64, 0
11, 251904, Note_on_c, 2, 66, 103
11, 252928, Note_on_c, 2, 66, 0
11, 252928, Note_on_c, 2, 62, 104
11, 253952, Note_on_c, 2, 62, 0
11, 253952, Note_on_c, 2, 67, 103
11, 258048, Note_on_c, 2, 67, 0
11, 258048, Note_on_c, 2, 66, 103
11, 260096, Note_on_c, 2, 66, 0
11, 260096, Note_on_c, 2, 64, 103
11, 264192, Note_on_c, 2, 64, 0
11, 264192, Note_on_c, 2, 62, 103
11, 268288, Note_on_c, 2, 62, 0
11, 270336, Note_on_c, 2, 62, 102
11, 272384, Note_on_c, 2, 62, 0
11, 272384, Note_on_c, 2, 64, 102
11, 274432, Note_on_c, 2, 64, 0
11, 274432, Note_on_c, 2, 66, 100
11, 276480, Note_on_c, 2, 66, 0
11, 276480, Note_on_c, 2, 67, 98
11, 278528, Note_on_c, 2, 67, 0
11, 278528, Note_on_c, 2, 66, 96
11, 279552, Note_on_c, 2, 66, 0
11, 279552, Note_on_c, 2, 64, 96
11, 280576, Note_on_c, 2, 64, 0
11, 280576, Note_on_c, 2, 66, 95
11, 281600, Note_on_c, 2, 66, 0
11, 281600, Note_on_c, 2, 62, 92
11, 282624, Note_on_c, 2, 62, 0
11, 282624, Note_on_c, 2, 67, 92
11, 286720, Note_on_c, 2, 67, 0
11, 286720, Note_on_c, 2, 66, 92
11, 289792, Note_on_c, 2, 66, 0
11, 289792, Note_on_c, 2, 64, 92
11, 290304, Note_on_c, 2, 64, 0
11, 290304, Note_on_c, 2, 62, 92
11, 290816, Note_on_c, 2, 62, 0
11, 290816, Note_on_c, 2, 69, 92
11, 293888, Note_on_c, 2, 69, 0
11, 293888, Note_on_c, 2, 67, 92
11, 294400, Note_on_c, 2, 67, 0
11, 294400, Note_on_c, 2, 66, 92
11, 294912, Note_on_c, 2, 66, 0
11, 294912, Note_on_c, 2, 71, 92
11, 296960, Note_on_c, 2, 71, 0
11, 296960, Note_on_c, 2, 69, 92
11, 301056, Note_on_c, 2, 69, 0
11, 301056, Note_on_c, 2, 68, 92
11, 303104, Note_on_c, 2, 68, 0
11, 303104, Note_on_c, 2, 69, 93
11, 307200, Note_on_c, 2, 69, 0
11, 307200, Note_on_c, 2, 68, 96
11, 309248, Note_on_c, 2, 68, 0
11, 309248, Note_on_c, 2, 69, 97
11, 309760, Note_on_c, 2, 69, 0
11, 309760, Note_on_c, 2, 64, 97
11, 310272, Note_on_c, 2, 64, 0
11, 310272, Note_on_c, 2, 66, 98
11, 310784, Note_on_c, 2, 66, 0
11, 310784, Note_on_c, 2, 68, 98
11, 311296, Note_on_c, 2, 68, 0
11, 311296, Note_on_c, 2, 69, 98
11, 311808, Note_on_c, 2, 69, 0
11, 311808, Note_on_c, 2, 71, 99
11, 312320, Note_on_c, 2, 71, 0
11, 312320, Note_on_c, 2, 68, 99
11, 312832, Note_on_c, 2, 68, 0
11, 312832, Note_on_c, 2, 69, 99
11, 313344, Note_on_c, 2, 69, 0
11, 313344, Note_on_c, 2, 71, 99
11, 314368, Note_on_c, 2, 71, 0
11, 314368, Note_on_c, 2, 66, 100
11, 315392, Note_on_c, 2, 66, 0
11, 315392, Note_on_c, 2, 71, 101
11, 318464, Note_on_c, 2, 71, 0
11, 318464, Note_on_c, 2, 64, 103
11, 319488, Note_on_c, 2, 64, 0
11, 319488, Note_on_c, 2, 69, 103
11, 320000, Note_on_c, 2, 69, 0
11, 320000, Note_on_c, 2, 71, 103
11, 320512, Note_on_c, 2, 71, 0
11, 320512, Note_on_c, 2, 68, 104
11, 321024, Note_on_c, 2, 68, 0
11, 321024, Note_on_c, 2, 69, 104
11, 321536, Note_on_c, 2, 69, 0
11, 321536, Note_on_c, 2, 71, 104
11, 322048, Note_on_c, 2, 71, 0
11, 322048, Note_on_c, 2, 73, 105
11, 322560, Note_on_c, 2, 73, 0
11, 322560, Note_on_c, 2, 69, 105
11, 323072, Note_on_c, 2, 69, 0
11, 323072, Note_on_c, 2, 71, 105
11, 323584, Note_on_c, 2, 71, 0
11, 323584, Note_on_c, 2, 73, 106
11, 326656, Note_on_c, 2, 73, 0
11, 326656, Note_on_c, 2, 71, 108
11, 327168, Note_on_c, 2, 71, 0
11, 327168, Note_on_c, 2, 69, 108
11, 327680, Note_on_c, 2, 69, 0
11, 327680, Note_on_c, 2, 71, 109
11, 331776, Note_on_c, 2, 71, 0
11, 331776, Note_on_c, 2, 64, 113
11, 333824, Note_on_c, 2, 64, 0
11, 333824, Note_on_c, 2, 62, 115
11, 335872, Note_on_c, 2, 62, 0
11, 335872, Note_on_c, 2, 62, 117
11, 337920, Note_on_c, 2, 62, 0
11, 337920, Note_on_c, 2, 64, 119
11, 339968, Note_on_c, 2, 64, 0
11, 339968, Note_on_c, 2, 66, 121
11, 342016, Note_on_c, 2, 66, 0
11, 342016, Note_on_c, 2, 67, 123
11, 344064, Note_on_c, 2, 67, 0
11, 344064, Note_on_c, 2, 66, 125
11, 345088, Note_on_c, 2, 66, 0
11, 345088, Note_on_c, 2, 64, 126
11, 346112, Note_on_c, 2, 64, 0
11, 346112, Note_on_c, 2, 66, 127
11, 347136, Note_on_c, 2, 66, 0
11, 347136, Note_on_c, 2, 71, 127
11, 349184, Note_on_c, 2, 71, 0
11, 349184, Note_on_c, 2, 71, 127
11, 350208, Note_on_c, 2, 71, 0
11, 350208, Note_on_c, 2, 64, 127
11, 351232, Note_on_c, 2, 64, 0
11, 351232, Note_on_c, 2, 68, 127
11, 352256, Note_on_c, 2, 68, 0
11, 352256, Note_on_c, 2, 71, 127
11, 355328, Note_on_c, 2, 71, 0
11, 355328, Note_on_c, 2, 64, 127
11, 356352, Note_on_c, 2, 64, 0
11, 356352, Note_on_c, 2, 69, 127
11, 360448, Note_on_c, 2, 69, 0
11, 360448, Note_on_c, 2, 67, 127
11, 363520, Note_on_c, 2, 67, 0
11, 363520, Note_on_c, 2, 66, 127
11, 364032, Note_on_c, 2, 66, 0
11, 364032, Note_on_c, 2, 64, 127
11, 364544, Note_on_c, 2, 64, 0
11, 364544, Note_on_c, 2, 66, 127
11, 365568, Note_on_c, 2, 66, 0
11, 365568, Note_on_c, 2, 71, 127
11, 366592, Note_on_c, 2, 71, 0
11, 366592, Note_on_c, 2, 66, 127
11, 367616, Note_on_c, 2, 66, 0
11, 367616, Note_on_c, 2, 64, 127
11, 368128, Note_on_c, 2, 64, 0
11, 368128, Note_on_c, 2, 62, 127
11, 368640, Note_on_c, 2, 62, 0
11, 368640, Note_on_c, 2, 64, 127
11, 370483, Note_on_c, 2, 64, 0
11, 370688, Note_on_c, 2, 66, 127
11, 378880, Note_on_c, 2, 66, 0
11, 380623, Control_c, 2, 121, 127
11, 387072, End_track
12, 0, Start_track
12, 0, Title_t, "Soprano"
12, 0, Program_c, 10, 52
12, 0, Control_c, 10, 121, 127
12, 0, Control_c, 10, 91, 127
12, 0, Control_c, 10, 1, 20
12, 0, Control_c, 10, 10, 30
12, 0, Control_c, 10, 93, 127
12, 20480, Note_on_c, 10, 69, 46
12, 22528, Note_on_c, 10, 69, 0
12, 22528, Note_on_c, 10, 71, 48
12, 24576, Note_on_c, 10, 71, 0
12, 24576, Note_on_c, 10, 73, 49
12, 26624, Note_on_c, 10, 73, 0
12, 26624, Note_on_c, 10, 74, 50
12, 28672, Note_on_c, 10, 74, 0
12, 28672, Note_on_c, 10, 73, 52
12, 29696, Note_on_c, 10, 73, 0
12, 29696, Note_on_c, 10, 71, 52
12, 30720, Note_on_c, 10, 71, 0
12, 30720, Note_on_c, 10, 73, 53
12, 31744, Note_on_c, 10, 73, 0
12, 31744, Note_on_c, 10, 69, 53
12, 32768, Note_on_c, 10, 69, 0
12, 32768, Note_on_c, 10, 74, 54
12, 36864, Note_on_c, 10, 74, 0
12, 36864, Note_on_c, 10, 73, 52
12, 38912, Note_on_c, 10, 73, 0
12, 38912, Note_on_c, 10, 71, 49
12, 43008, Note_on_c, 10, 71, 0
12, 43008, Note_on_c, 10, 69, 41
12, 47104, Note_on_c, 10, 69, 0
12, 53248, Note_on_c, 10, 74, 47
12, 57344, Note_on_c, 10, 74, 0
12, 57344, Note_on_c, 10, 73, 52
12, 59392, Note_on_c, 10, 73, 0
12, 59392, Note_on_c, 10, 74, 54
12, 60416, Note_on_c, 10, 74, 0
12, 60416, Note_on_c, 10, 73, 55
12, 60928, Note_on_c, 10, 73, 0
12, 60928, Note_on_c, 10, 71, 56
12, 61440, Note_on_c, 10, 71, 0
12, 61440, Note_on_c, 10, 69, 56
12, 61952, Note_on_c, 10, 69, 0
12, 61952, Note_on_c, 10, 71, 57
12, 62464, Note_on_c, 10, 71, 0
12, 62464, Note_on_c, 10, 67, 57
12, 62976, Note_on_c, 10, 67, 0
12, 62976, Note_on_c, 10, 69, 58
12, 63488, Note_on_c, 10, 69, 0
12, 63488, Note_on_c, 10, 71, 58
12, 64000, Note_on_c, 10, 71, 0
12, 64000, Note_on_c, 10, 69, 59
12, 64512, Note_on_c, 10, 69, 0
12, 64512, Note_on_c, 10, 71, 60
12, 65024, Note_on_c, 10, 71, 0
12, 65024, Note_on_c, 10, 72, 59
12, 65536, Note_on_c, 10, 72, 0
12, 65536, Note_on_c, 10, 71, 57
12, 66048, Note_on_c, 10, 71, 0
12, 66048, Note_on_c, 10, 72, 56
12, 66560, Note_on_c, 10, 72, 0
12, 66560, Note_on_c, 10, 71, 54
12, 67072, Note_on_c, 10, 71, 0
12, 67072, Note_on_c, 10, 69, 53
12, 67584, Note_on_c, 10, 69, 0
12, 67584, Note_on_c, 10, 67, 52
12, 68608, Note_on_c, 10, 67, 0
12, 68608, Note_on_c, 10, 64, 49
12, 69632, Note_on_c, 10, 64, 0
12, 69632, Note_on_c, 10, 69, 42
12, 71680, Note_on_c, 10, 69, 0
12, 71680, Note_on_c, 10, 62, 44
12, 73728, Note_on_c, 10, 62, 0
12, 81920, Note_on_c, 10, 69, 55
12, 83968, Note_on_c, 10, 69, 0
12, 83968, Note_on_c, 10, 71, 57
12, 86016, Note_on_c, 10, 71, 0
12, 86016, Note_on_c, 10, 73, 59
12, 88064, Note_on_c, 10, 73, 0
12, 88064, Note_on_c, 10, 74, 61
12, 90112, Note_on_c, 10, 74, 0
12, 90112, Note_on_c, 10, 73, 64
12, 91136, Note_on_c, 10, 73, 0
12, 91136, Note_on_c, 10, 71, 65
12, 92160, Note_on_c, 10, 71, 0
12, 92160, Note_on_c, 10, 73, 66
12, 93184, Note_on_c, 10, 73, 0
12, 93184, Note_on_c, 10, 66, 67
12, 94208, Note_on_c, 10, 66, 0
12, 94208, Note_on_c, 10, 78, 68
12, 97280, Note_on_c, 10, 78, 0
12, 97280, Note_on_c, 10, 76, 71
12, 97792, Note_on_c, 10, 76, 0
12, 97792, Note_on_c, 10, 74, 72
12, 98304, Note_on_c, 10, 74, 0
12, 98304, Note_on_c, 10, 76, 72
12, 101376, Note_on_c, 10, 76, 0
12, 101376, Note_on_c, 10, 74, 76
12, 103424, Note_on_c, 10, 74, 0
12, 103424, Note_on_c, 10, 79, 78
12, 104448, Note_on_c, 10, 79, 0
12, 104448, Note_on_c, 10, 73, 78
12, 105472, Note_on_c, 10, 73, 0
12, 105472, Note_on_c, 10, 76, 77
12, 106496, Note_on_c, 10, 76, 0
12, 106496, Note_on_c, 10, 74, 76
12, 107520, Note_on_c, 10, 74, 0
12, 107520, Note_on_c, 10, 73, 76
12, 108544, Note_on_c, 10, 73, 0
12, 108544, Note_on_c, 10, 71, 75
12, 112640, Note_on_c, 10, 71, 0
12, 120832, Note_on_c, 10, 74, 74
12, 124928, Note_on_c, 10, 74, 0
12, 124928, Note_on_c, 10, 76, 83
12, 126976, Note_on_c, 10, 76, 0
12, 126976, Note_on_c, 10, 78, 87
12, 129024, Note_on_c, 10, 78, 0
12, 129024, Note_on_c, 10, 79, 92
12, 131072, Note_on_c, 10, 79, 0
12, 131072, Note_on_c, 10, 78, 91
12, 132096, Note_on_c, 10, 78, 0
12, 132096, Note_on_c, 10, 76, 90
12, 133120, Note_on_c, 10, 76, 0
12, 133120, Note_on_c, 10, 78, 88
12, 134144, Note_on_c, 10, 78, 0
12, 134144, Note_on_c, 10, 74, 87
12, 135168, Note_on_c, 10, 74, 0
12, 135168, Note_on_c, 10, 79, 85
12, 139264, Note_on_c, 10, 79, 0
12, 139264, Note_on_c, 10, 78, 80
12, 140288, Note_on_c, 10, 78, 0
12, 140288, Note_on_c, 10, 78, 78
12, 141312, Note_on_c, 10, 78, 0
12, 141312, Note_on_c, 10, 76, 80
12, 145408, Note_on_c, 10, 76, 0
12, 145408, Note_on_c, 10, 74, 77
12, 149504, Note_on_c, 10, 74, 0
12, 155648, Note_on_c, 10, 76, 70
12, 159744, Note_on_c, 10, 76, 0
12, 159744, Note_on_c, 10, 75, 66
12, 161792, Note_on_c, 10, 75, 0
12, 161792, Note_on_c, 10, 76, 67
12, 162816, Note_on_c, 10, 76, 0
12, 162816, Note_on_c, 10, 74, 67
12, 163328, Note_on_c, 10, 74, 0
12, 163328, Note_on_c, 10, 72, 67
12, 163840, Note_on_c, 10, 72, 0
12, 163840, Note_on_c, 10, 71, 67
12, 164352, Note_on_c, 10, 71, 0
12, 164352, Note_on_c, 10, 72, 68
12, 164864, Note_on_c, 10, 72, 0
12, 164864, Note_on_c, 10, 69, 68
12, 165376, Note_on_c, 10, 69, 0
12, 165376, Note_on_c, 10, 71, 68
12, 165888, Note_on_c, 10, 71, 0
12, 165888, Note_on_c, 10, 72, 68
12, 166400, Note_on_c, 10, 72, 0
12, 166400, Note_on_c, 10, 71, 68
12, 166912, Note_on_c, 10, 71, 0
12, 166912, Note_on_c, 10, 72, 68
12, 167424, Note_on_c, 10, 72, 0
12, 167424, Note_on_c, 10, 74, 69
12, 167936, Note_on_c, 10, 74, 0
12, 167936, Note_on_c, 10, 72, 69
12, 168448, Note_on_c, 10, 72, 0
12, 168448, Note_on_c, 10, 76, 69
12, 168960, Note_on_c, 10, 76, 0
12, 168960, Note_on_c, 10, 74, 69
12, 169472, Note_on_c, 10, 74, 0
12, 169472, Note_on_c, 10, 72, 69
12, 169984, Note_on_c, 10, 72, 0
12, 169984, Note_on_c, 10, 71, 69
12, 171008, Note_on_c, 10, 71, 0
12, 171008, Note_on_c, 10, 73, 70
12, 172032, Note_on_c, 10, 73, 0
12, 172032, Note_on_c, 10, 74, 70
12, 174080, Note_on_c, 10, 74, 0
12, 174080, Note_on_c, 10, 67, 71
12, 175104, Note_on_c, 10, 67, 0
12, 176128, Note_on_c, 10, 73, 71
12, 180224, Note_on_c, 10, 73, 0
12, 180224, Note_on_c, 10, 71, 73
12, 181248, Note_on_c, 10, 71, 0
12, 182272, Note_on_c, 10, 76, 74
12, 183296, Note_on_c, 10, 76, 0
12, 183296, Note_on_c, 10, 76, 74
12, 184320, Note_on_c, 10, 76, 0
12, 184320, Note_on_c, 10, 69, 74
12, 186368, Note_on_c, 10, 69, 0
12, 186368, Note_on_c, 10, 69, 75
12, 187392, Note_on_c, 10, 69, 0
12, 188416, Note_on_c, 10, 78, 76
12, 192512, Note_on_c, 10, 78, 0
12, 192512, Note_on_c, 10, 77, 79
12, 194560, Note_on_c, 10, 77, 0
12, 194560, Note_on_c, 10, 78, 80
12, 195584, Note_on_c, 10, 78, 0
12, 195584, Note_on_c, 10, 76, 81
12, 196096, Note_on_c, 10, 76, 0
12, 196096, Note_on_c, 10, 74, 82
12, 196608, Note_on_c, 10, 74, 0
12, 196608, Note_on_c, 10, 73, 82
12, 197120, Note_on_c, 10, 73, 0
12, 197120, Note_on_c, 10, 74, 82
12, 197632, Note_on_c, 10, 74, 0
12, 197632, Note_on_c, 10, 71, 83
12, 198144, Note_on_c, 10, 71, 0
12, 198144, Note_on_c, 10, 73, 83
12, 198656, Note_on_c, 10, 73, 0
12, 198656, Note_on_c, 10, 74, 83
12, 199168, Note_on_c, 10, 74, 0
12, 199168, Note_on_c, 10, 73, 84
12, 199680, Note_on_c, 10, 73, 0
12, 199680, Note_on_c, 10, 74, 84
12, 200192, Note_on_c, 10, 74, 0
12, 200192, Note_on_c, 10, 76, 85
12, 200704, Note_on_c, 10, 76, 0
12, 200704, Note_on_c, 10, 74, 85
12, 201216, Note_on_c, 10, 74, 0
12, 201216, Note_on_c, 10, 78, 85
12, 201728, Note_on_c, 10, 78, 0
12, 201728, Note_on_c, 10, 76, 86
12, 202240, Note_on_c, 10, 76, 0
12, 202240, Note_on_c, 10, 74, 86
12, 202752, Note_on_c, 10, 74, 0
12, 202752, Note_on_c, 10, 73, 87
12, 203776, Note_on_c, 10, 73, 0
12, 203776, Note_on_c, 10, 73, 87
12, 204800, Note_on_c, 10, 73, 0
12, 204800, Note_on_c, 10, 78, 88
12, 206848, Note_on_c, 10, 78, 0
12, 206848, Note_on_c, 10, 71, 90
12, 208896, Note_on_c, 10, 71, 0
12, 212992, Note_on_c, 10, 74, 95
12, 215040, Note_on_c, 10, 74, 0
12, 215040, Note_on_c, 10, 76, 98
12, 217088, Note_on_c, 10, 76, 0
12, 217088, Note_on_c, 10, 78, 98
12, 219136, Note_on_c, 10, 78, 0
12, 219136, Note_on_c, 10, 79, 98
12, 221184, Note_on_c, 10, 79, 0
12, 221184, Note_on_c, 10, 78, 98
12, 222208, Note_on_c, 10, 78, 0
12, 222208, Note_on_c, 10, 76, 98
12, 223232, Note_on_c, 10, 76, 0
12, 223232, Note_on_c, 10, 78, 98
12, 224256, Note_on_c, 10, 78, 0
12, 224256, Note_on_c, 10, 74, 100
12, 225280, Note_on_c, 10, 74, 0
12, 225280, Note_on_c, 10, 79, 103
12, 229376, Note_on_c, 10, 79, 0
12, 229376, Note_on_c, 10, 78, 103
12, 231424, Note_on_c, 10, 78, 0
12, 231424, Note_on_c, 10, 76, 101
12, 233472, Note_on_c, 10, 76, 0
12, 233472, Note_on_c, 10, 74, 100
12, 236544, Note_on_c, 10, 74, 0
12, 236544, Note_on_c, 10, 71, 99
12, 238592, Note_on_c, 10, 71, 0
12, 238592, Note_on_c, 10, 71, 98
12, 239616, Note_on_c, 10, 71, 0
12, 239616, Note_on_c, 10, 69, 97
12, 240640, Note_on_c, 10, 69, 0
12, 240640, Note_on_c, 10, 69, 97
12, 241664, Note_on_c, 10, 69, 0
12, 241664, Note_on_c, 10, 71, 96
12, 243712, Note_on_c, 10, 71, 0
12, 243712, Note_on_c, 10, 64, 94
12, 244736, Note_on_c, 10, 64, 0
12, 245760, Note_on_c, 10, 69, 97
12, 247808, Note_on_c, 10, 69, 0
12, 247808, Note_on_c, 10, 71, 99
12, 249856, Note_on_c, 10, 71, 0
12, 249856, Note_on_c, 10, 73, 101
12, 251904, Note_on_c, 10, 73, 0
12, 251904, Note_on_c, 10, 74, 103
12, 253952, Note_on_c, 10, 74, 0
12, 253952, Note_on_c, 10, 73, 103
12, 254976, Note_on_c, 10, 73, 0
12, 254976, Note_on_c, 10, 71, 103
12, 256000, Note_on_c, 10, 71, 0
12, 256000, Note_on_c, 10, 73, 103
12, 257024, Note_on_c, 10, 73, 0
12, 257024, Note_on_c, 10, 69, 103
12, 258048, Note_on_c, 10, 69, 0
12, 258048, Note_on_c, 10, 74, 103
12, 262144, Note_on_c, 10, 74, 0
12, 262144, Note_on_c, 10, 73, 103
12, 264192, Note_on_c, 10, 73, 0
12, 264192, Note_on_c, 10, 71, 103
12, 268288, Note_on_c, 10, 71, 0
12, 268288, Note_on_c, 10, 69, 103
12, 272384, Note_on_c, 10, 69, 0
12, 280576, Note_on_c, 10, 74, 95
12, 284672, Note_on_c, 10, 74, 0
12, 284672, Note_on_c, 10, 76, 92
12, 286720, Note_on_c, 10, 76, 0
12, 286720, Note_on_c, 10, 78, 92
12, 288768, Note_on_c, 10, 78, 0
12, 288768, Note_on_c, 10, 79, 92
12, 290816, Note_on_c, 10, 79, 0
12, 290816, Note_on_c, 10, 78, 92
12, 291840, Note_on_c, 10, 78, 0
12, 291840, Note_on_c, 10, 76, 92
12, 292864, Note_on_c, 10, 76, 0
12, 292864, Note_on_c, 10, 78, 92
12, 293888, Note_on_c, 10, 78, 0
12, 293888, Note_on_c, 10, 74, 92
12, 294912, Note_on_c, 10, 74, 0
12, 294912, Note_on_c, 10, 79, 92
12, 299008, Note_on_c, 10, 79, 0
12, 299008, Note_on_c, 10, 78, 92
12, 301056, Note_on_c, 10, 78, 0
12, 301056, Note_on_c, 10, 76, 92
12, 305152, Note_on_c, 10, 76, 0
12, 305152, Note_on_c, 10, 74, 95
12, 307200, Note_on_c, 10, 74, 0
12, 307200, Note_on_c, 10, 74, 96
12, 311296, Note_on_c, 10, 74, 0
12, 311296, Note_on_c, 10, 73, 98
12, 313344, Note_on_c, 10, 73, 0
12, 313344, Note_on_c, 10, 74, 99
12, 313856, Note_on_c, 10, 74, 0
12, 313856, Note_on_c, 10, 76, 100
12, 314368, Note_on_c, 10, 76, 0
12, 314368, Note_on_c, 10, 74, 100
12, 314880, Note_on_c, 10, 74, 0
12, 314880, Note_on_c, 10, 73, 100
12, 315392, Note_on_c, 10, 73, 0
12, 315392, Note_on_c, 10, 71, 101
12, 315904, Note_on_c, 10, 71, 0
12, 315904, Note_on_c, 10, 73, 101
12, 316416, Note_on_c, 10, 73, 0
12, 316416, Note_on_c, 10, 69, 101
12, 316928, Note_on_c, 10, 69, 0
12, 316928, Note_on_c, 10, 71, 102
12, 317440, Note_on_c, 10, 71, 0
12, 317440, Note_on_c, 10, 73, 102
12, 317952, Note_on_c, 10, 73, 0
12, 317952, Note_on_c, 10, 74, 102
12, 318464, Note_on_c, 10, 74, 0
12, 318464, Note_on_c, 10, 71, 103
12, 318976, Note_on_c, 10, 71, 0
12, 318976, Note_on_c, 10, 73, 103
12, 319488, Note_on_c, 10, 73, 0
12, 319488, Note_on_c, 10, 75, 103
12, 320000, Note_on_c, 10, 75, 0
12, 320000, Note_on_c, 10, 76, 103
12, 320512, Note_on_c, 10, 76, 0
12, 320512, Note_on_c, 10, 73, 104
12, 321024, Note_on_c, 10, 73, 0
12, 321024, Note_on_c, 10, 75, 104
12, 321536, Note_on_c, 10, 75, 0
12, 321536, Note_on_c, 10, 76, 104
12, 326656, Note_on_c, 10, 76, 0
12, 326656, Note_on_c, 10, 74, 108
12, 327168, Note_on_c, 10, 74, 0
12, 327168, Note_on_c, 10, 73, 108
12, 327680, Note_on_c, 10, 73, 0
12, 327680, Note_on_c, 10, 74, 109
12, 328192, Note_on_c, 10, 74, 0
12, 328192, Note_on_c, 10, 76, 109
12, 328704, Note_on_c, 10, 76, 0
12, 328704, Note_on_c, 10, 78, 110
12, 329216, Note_on_c, 10, 78, 0
12, 329216, Note_on_c, 10, 74, 110
12, 329728, Note_on_c, 10, 74, 0
12, 329728, Note_on_c, 10, 79, 111
12, 335872, Note_on_c, 10, 79, 0
12, 335872, Note_on_c, 10, 78, 117
12, 337920, Note_on_c, 10, 78, 0
12, 337920, Note_on_c, 10, 76, 119
12, 346112, Note_on_c, 10, 76, 0
12, 346112, Note_on_c, 10, 74, 127
12, 348160, Note_on_c, 10, 74, 0
12, 349184, Note_on_c, 10, 74, 127
12, 350208, Note_on_c, 10, 74, 0
12, 350208, Note_on_c, 10, 76, 127
12, 352768, Note_on_c, 10, 76, 0
12, 352768, Note_on_c, 10, 78, 127
12, 353280, Note_on_c, 10, 78, 0
12, 353280, Note_on_c, 10, 76, 127
12, 353792, Note_on_c, 10, 76, 0
12, 353792, Note_on_c, 10, 74, 127
12, 354304, Note_on_c, 10, 74, 0
12, 354304, Note_on_c, 10, 73, 127
12, 355328, Note_on_c, 10, 73, 0
12, 355328, Note_on_c, 10, 69, 127
12, 356352, Note_on_c, 10, 69, 0
12, 356352, Note_on_c, 10, 78, 127
12, 360448, Note_on_c, 10, 78, 0
12, 360448, Note_on_c, 10, 76, 127
12, 363520, Note_on_c, 10, 76, 0
12, 363520, Note_on_c, 10, 69, 127
12, 364544, Note_on_c, 10, 69, 0
12, 364544, Note_on_c, 10, 74, 127
12, 367616, Note_on_c, 10, 74, 0
12, 367616, Note_on_c, 10, 73, 127
12, 368128, Note_on_c, 10, 73, 0
12, 368128, Note_on_c, 10, 71, 127
12, 368640, Note_on_c, 10, 71, 0
12, 368640, Note_on_c, 10, 73, 127
12, 370483, Note_on_c, 10, 73, 0
12, 370688, Note_on_c, 10, 74, 127
12, 378880, Note_on_c, 10, 74, 0
12, 380623, Control_c, 10, 121, 127
12, 387072, End_track
13, 0, Start_track
13, 0, Title_t, "Alto"
13, 0, Program_c, 11, 52
13, 0, Control_c, 11, 121, 127
13, 0, Control_c, 11, 91, 127
13, 0, Control_c, 11, 1, 20
13, 0, Control_c, 11, 10, 50
13, 0, Control_c, 11, 93, 127
13, 16384, Note_on_c, 11, 62, 44
13, 18432, Note_on_c, 11, 62, 0
13, 18432, Note_on_c, 11, 64, 45
13, 20480, Note_on_c, 11, 64, 0
13, 20480, Note_on_c, 11, 66, 46
13, 22528, Note_on_c, 11, 66, 0
13, 22528, Note_on_c, 11, 67, 48
13, 24576, Note_on_c, 11, 67, 0
13, 24576, Note_on_c, 11, 66, 49
13, 25600, Note_on_c, 11, 66, 0
13, 25600, Note_on_c, 11, 64, 50
13, 26624, Note_on_c, 11, 64, 0
13, 26624, Note_on_c, 11, 66, 50
13, 27648, Note_on_c, 11, 66, 0
13, 27648, Note_on_c, 11, 62, 51
13, 28672, Note_on_c, 11, 62, 0
13, 28672, Note_on_c, 11, 67, 52
13, 32768, Note_on_c, 11, 67, 0
13, 32768, Note_on_c, 11, 66, 54
13, 34816, Note_on_c, 11, 66, 0
13, 34816, Note_on_c, 11, 64, 55
13, 38912, Note_on_c, 11, 64, 0
13, 38912, Note_on_c, 11, 62, 49
13, 43008, Note_on_c, 11, 62, 0
13, 49152, Note_on_c, 11, 69, 42
13, 53248, Note_on_c, 11, 69, 0
13, 53248, Note_on_c, 11, 68, 47
13, 55296, Note_on_c, 11, 68, 0
13, 55296, Note_on_c, 11, 69, 49
13, 56320, Note_on_c, 11, 69, 0
13, 56320, Note_on_c, 11, 67, 50
13, 56832, Note_on_c, 11, 67, 0
13, 56832, Note_on_c, 11, 66, 51
13, 57344, Note_on_c, 11, 66, 0
13, 57344, Note_on_c, 11, 64, 52
13, 57856, Note_on_c, 11, 64, 0
13, 57856, Note_on_c, 11, 66, 52
13, 58368, Note_on_c, 11, 66, 0
13, 58368, Note_on_c, 11, 62, 53
13, 58880, Note_on_c, 11, 62, 0
13, 58880, Note_on_c, 11, 64, 53
13, 59392, Note_on_c, 11, 64, 0
13, 59392, Note_on_c, 11, 66, 54
13, 59904, Note_on_c, 11, 66, 0
13, 59904, Note_on_c, 11, 64, 54
13, 60416, Note_on_c, 11, 64, 0
13, 60416, Note_on_c, 11, 66, 55
13, 60928, Note_on_c, 11, 66, 0
13, 60928, Note_on_c, 11, 67, 56
13, 61440, Note_on_c, 11, 67, 0
13, 61440, Note_on_c, 11, 66, 56
13, 61952, Note_on_c, 11, 66, 0
13, 61952, Note_on_c, 11, 67, 57
13, 62464, Note_on_c, 11, 67, 0
13, 62464, Note_on_c, 11, 66, 57
13, 62976, Note_on_c, 11, 66, 0
13, 62976, Note_on_c, 11, 64, 58
13, 63488, Note_on_c, 11, 64, 0
13, 63488, Note_on_c, 11, 62, 58
13, 64512, Note_on_c, 11, 62, 0
13, 64512, Note_on_c, 11, 59, 60
13, 65536, Note_on_c, 11, 59, 0
13, 65536, Note_on_c, 11, 66, 57
13, 67584, Note_on_c, 11, 66, 0
13, 67584, Note_on_c, 11, 59, 52
13, 69632, Note_on_c, 11, 59, 0
13, 77824, Note_on_c, 11, 62, 51
13, 79872, Note_on_c, 11, 62, 0
13, 79872, Note_on_c, 11, 64, 53
13, 81920, Note_on_c, 11, 64, 0
13, 81920, Note_on_c, 11, 66, 55
13, 83968, Note_on_c, 11, 66, 0
13, 83968, Note_on_c, 11, 67, 57
13, 86016, Note_on_c, 11, 67, 0
13, 86016, Note_on_c, 11, 66, 59
13, 87040, Note_on_c, 11, 66, 0
13, 87040, Note_on_c, 11, 64, 60
13, 88064, Note_on_c, 11, 64, 0
13, 88064, Note_on_c, 11, 66, 61
13, 89088, Note_on_c, 11, 66, 0
13, 89088, Note_on_c, 11, 59, 63
13, 90112, Note_on_c, 11, 59, 0
13, 90112, Note_on_c, 11, 71, 64
13, 93184, Note_on_c, 11, 71, 0
13, 93184, Note_on_c, 11, 69, 67
13, 95232, Note_on_c, 11, 69, 0
13, 95232, Note_on_c, 11, 74, 69
13, 96256, Note_on_c, 11, 74, 0
13, 96256, Note_on_c, 11, 67, 70
13, 97280, Note_on_c, 11, 67, 0
13, 97280, Note_on_c, 11, 71, 71
13, 98304, Note_on_c, 11, 71, 0
13, 98304, Note_on_c, 11, 69, 72
13, 99328, Note_on_c, 11, 69, 0
13, 99328, Note_on_c, 11, 67, 74
13, 100352, Note_on_c, 11, 67, 0
13, 100352, Note_on_c, 11, 66, 75
13, 104448, Note_on_c, 11, 66, 0
13, 112640, Note_on_c, 11, 69, 72
13, 116736, Note_on_c, 11, 69, 0
13, 116736, Note_on_c, 11, 71, 70
13, 118784, Note_on_c, 11, 71, 0
13, 118784, Note_on_c, 11, 73, 69
13, 120832, Note_on_c, 11, 73, 0
13, 120832, Note_on_c, 11, 74, 74
13, 122880, Note_on_c, 11, 74, 0
13, 122880, Note_on_c, 11, 73, 78
13, 123904, Note_on_c, 11, 73, 0
13, 123904, Note_on_c, 11, 71, 81
13, 124928, Note_on_c, 11, 71, 0
13, 124928, Note_on_c, 11, 73, 83
13, 125952, Note_on_c, 11, 73, 0
13, 125952, Note_on_c, 11, 69, 85
13, 126976, Note_on_c, 11, 69, 0
13, 126976, Note_on_c, 11, 74, 87
13, 131072, Note_on_c, 11, 74, 0
13, 131072, Note_on_c, 11, 73, 91
13, 133120, Note_on_c, 11, 73, 0
13, 133120, Note_on_c, 11, 71, 88
13, 137216, Note_on_c, 11, 71, 0
13, 137216, Note_on_c, 11, 69, 83
13, 139264, Note_on_c, 11, 69, 0
13, 139264, Note_on_c, 11, 62, 80
13, 141312, Note_on_c, 11, 62, 0
13, 141312, Note_on_c, 11, 64, 80
13, 143360, Note_on_c, 11, 64, 0
13, 143360, Note_on_c, 11, 66, 77
13, 145408, Note_on_c, 11, 66, 0
13, 145408, Note_on_c, 11, 67, 77
13, 147456, Note_on_c, 11, 67, 0
13, 147456, Note_on_c, 11, 66, 78
13, 148480, Note_on_c, 11, 66, 0
13, 148480, Note_on_c, 11, 64, 78
13, 149504, Note_on_c, 11, 64, 0
13, 149504, Note_on_c, 11, 66, 79
13, 150528, Note_on_c, 11, 66, 0
13, 150528, Note_on_c, 11, 62, 78
13, 151552, Note_on_c, 11, 62, 0
13, 151552, Note_on_c, 11, 69, 76
13, 155648, Note_on_c, 11, 69, 0
13, 155648, Note_on_c, 11, 67, 70
13, 157696, Note_on_c, 11, 67, 0
13, 157696, Note_on_c, 11, 66, 67
13, 161792, Note_on_c, 11, 66, 0
13, 161792, Note_on_c, 11, 64, 67
13, 163840, Note_on_c, 11, 64, 0
13, 163840, Note_on_c, 11, 67, 67
13, 167936, Note_on_c, 11, 67, 0
13, 167936, Note_on_c, 11, 66, 69
13, 169984, Note_on_c, 11, 66, 0
13, 169984, Note_on_c, 11, 67, 69
13, 171008, Note_on_c, 11, 67, 0
13, 171008, Note_on_c, 11, 66, 70
13, 171520, Note_on_c, 11, 66, 0
13, 171520, Note_on_c, 11, 64, 70
13, 172032, Note_on_c, 11, 64, 0
13, 172032, Note_on_c, 11, 62, 70
13, 172544, Note_on_c, 11, 62, 0
13, 172544, Note_on_c, 11, 64, 70
13, 173056, Note_on_c, 11, 64, 0
13, 173056, Note_on_c, 11, 61, 70
13, 173568, Note_on_c, 11, 61, 0
13, 173568, Note_on_c, 11, 62, 71
13, 174080, Note_on_c, 11, 62, 0
13, 174080, Note_on_c, 11, 64, 71
13, 174592, Note_on_c, 11, 64, 0
13, 174592, Note_on_c, 11, 62, 71
13, 175104, Note_on_c, 11, 62, 0
13, 175104, Note_on_c, 11, 64, 71
13, 175616, Note_on_c, 11, 64, 0
13, 175616, Note_on_c, 11, 66, 71
13, 176128, Note_on_c, 11, 66, 0
13, 176128, Note_on_c, 11, 64, 71
13, 176640, Note_on_c, 11, 64, 0
13, 176640, Note_on_c, 11, 67, 72
13, 177152, Note_on_c, 11, 67, 0
13, 177152, Note_on_c, 11, 66, 72
13, 177664, Note_on_c, 11, 66, 0
13, 177664, Note_on_c, 11, 64, 72
13, 178176, Note_on_c, 11, 64, 0
13, 178176, Note_on_c, 11, 62, 72
13, 179200, Note_on_c, 11, 62, 0
13, 179200, Note_on_c, 11, 64, 72
13, 180224, Note_on_c, 11, 64, 0
13, 180224, Note_on_c, 11, 66, 73
13, 182272, Note_on_c, 11, 66, 0
13, 182272, Note_on_c, 11, 59, 74
13, 183296, Note_on_c, 11, 59, 0
13, 184320, Note_on_c, 11, 64, 74
13, 187392, Note_on_c, 11, 64, 0
13, 187392, Note_on_c, 11, 62, 75
13, 188416, Note_on_c, 11, 62, 0
13, 188416, Note_on_c, 11, 61, 76
13, 189440, Note_on_c, 11, 61, 0
13, 189440, Note_on_c, 11, 69, 76
13, 190464, Note_on_c, 11, 69, 0
13, 190464, Note_on_c, 11, 68, 77
13, 194560, Note_on_c, 11, 68, 0
13, 194560, Note_on_c, 11, 66, 80
13, 196608, Note_on_c, 11, 66, 0
13, 200704, Note_on_c, 11, 62, 85
13, 202752, Note_on_c, 11, 62, 0
13, 202752, Note_on_c, 11, 64, 87
13, 204800, Note_on_c, 11, 64, 0
13, 204800, Note_on_c, 11, 66, 88
13, 206848, Note_on_c, 11, 66, 0
13, 206848, Note_on_c, 11, 67, 90
13, 208896, Note_on_c, 11, 67, 0
13, 208896, Note_on_c, 11, 66, 91
13, 209920, Note_on_c, 11, 66, 0
13, 209920, Note_on_c, 11, 64, 92
13, 210944, Note_on_c, 11, 64, 0
13, 210944, Note_on_c, 11, 66, 93
13, 211968, Note_on_c, 11, 66, 0
13, 211968, Note_on_c, 11, 62, 94
13, 212992, Note_on_c, 11, 62, 0
13, 212992, Note_on_c, 11, 67, 95
13, 217088, Note_on_c, 11, 67, 0
13, 217088, Note_on_c, 11, 66, 98
13, 219136, Note_on_c, 11, 66, 0
13, 219136, Note_on_c, 11, 64, 98
13, 223232, Note_on_c, 11, 64, 0
13, 223232, Note_on_c, 11, 62, 98
13, 225280, Note_on_c, 11, 62, 0
13, 228352, Note_on_c, 11, 74, 103
13, 230400, Note_on_c, 11, 74, 0
13, 230400, Note_on_c, 11, 74, 102
13, 231424, Note_on_c, 11, 74, 0
13, 231424, Note_on_c, 11, 73, 101
13, 232448, Note_on_c, 11, 73, 0
13, 232448, Note_on_c, 11, 73, 101
13, 233472, Note_on_c, 11, 73, 0
13, 233472, Note_on_c, 11, 74, 100
13, 233984, Note_on_c, 11, 74, 0
13, 233984, Note_on_c, 11, 73, 100
13, 234496, Note_on_c, 11, 73, 0
13, 234496, Note_on_c, 11, 71, 100
13, 235008, Note_on_c, 11, 71, 0
13, 235008, Note_on_c, 11, 69, 100
13, 235520, Note_on_c, 11, 69, 0
13, 235520, Note_on_c, 11, 67, 99
13, 236544, Note_on_c, 11, 67, 0
13, 236544, Note_on_c, 11, 62, 99
13, 237568, Note_on_c, 11, 62, 0
13, 237568, Note_on_c, 11, 67, 98
13, 240640, Note_on_c, 11, 67, 0
13, 240640, Note_on_c, 11, 66, 97
13, 241664, Note_on_c, 11, 66, 0
13, 241664, Note_on_c, 11, 62, 96
13, 243712, Note_on_c, 11, 62, 0
13, 243712, Note_on_c, 11, 64, 94
13, 245760, Note_on_c, 11, 64, 0
13, 245760, Note_on_c, 11, 66, 97
13, 247808, Note_on_c, 11, 66, 0
13, 247808, Note_on_c, 11, 67, 99
13, 249856, Note_on_c, 11, 67, 0
13, 249856, Note_on_c, 11, 66, 101
13, 250880, Note_on_c, 11, 66, 0
13, 250880, Note_on_c, 11, 64, 102
13, 251904, Note_on_c, 11, 64, 0
13, 251904, Note_on_c, 11, 66, 103
13, 252928, Note_on_c, 11, 66, 0
13, 252928, Note_on_c, 11, 62, 104
13, 253952, Note_on_c, 11, 62, 0
13, 253952, Note_on_c, 11, 67, 103
13, 258048, Note_on_c, 11, 67, 0
13, 258048, Note_on_c, 11, 66, 103
13, 260096, Note_on_c, 11, 66, 0
13, 260096, Note_on_c, 11, 64, 103
13, 264192, Note_on_c, 11, 64, 0
13, 264192, Note_on_c, 11, 62, 103
13, 268288, Note_on_c, 11, 62, 0
13, 270336, Note_on_c, 11, 62, 102
13, 272384, Note_on_c, 11, 62, 0
13, 272384, Note_on_c, 11, 64, 102
13, 274432, Note_on_c, 11, 64, 0
13, 274432, Note_on_c, 11, 66, 100
13, 276480, Note_on_c, 11, 66, 0
13, 276480, Note_on_c, 11, 67, 98
13, 278528, Note_on_c, 11, 67, 0
13, 278528, Note_on_c, 11, 66, 96
13, 279552, Note_on_c, 11, 66, 0
13, 279552, Note_on_c, 11, 64, 96
13, 280576, Note_on_c, 11, 64, 0
13, 280576, Note_on_c, 11, 66, 95
13, 281600, Note_on_c, 11, 66, 0
13, 281600, Note_on_c, 11, 62, 92
13, 282624, Note_on_c, 11, 62, 0
13, 282624, Note_on_c, 11, 67, 92
13, 286720, Note_on_c, 11, 67, 0
13, 286720, Note_on_c, 11, 66, 92
13, 289792, Note_on_c, 11, 66, 0
13, 289792, Note_on_c, 11, 64, 92
13, 290304, Note_on_c, 11, 64, 0
13, 290304, Note_on_c, 11, 62, 92
13, 290816, Note_on_c, 11, 62, 0
13, 290816, Note_on_c, 11, 69, 92
13, 293888, Note_on_c, 11, 69, 0
13, 293888, Note_on_c, 11, 67, 92
13, 294400, Note_on_c, 11, 67, 0
13, 294400, Note_on_c, 11, 66, 92
13, 294912, Note_on_c, 11, 66, 0
13, 294912, Note_on_c, 11, 71, 92
13, 296960, Note_on_c, 11, 71, 0
13, 296960, Note_on_c, 11, 69, 92
13, 299008, Note_on_c, 11, 69, 0
13, 299008, Note_on_c, 11, 69, 92
13, 301056, Note_on_c, 11, 69, 0
13, 301056, Note_on_c, 11, 68, 92
13, 303104, Note_on_c, 11, 68, 0
13, 303104, Note_on_c, 11, 69, 93
13, 307200, Note_on_c, 11, 69, 0
13, 307200, Note_on_c, 11, 68, 96
13, 309248, Note_on_c, 11, 68, 0
13, 309248, Note_on_c, 11, 69, 97
13, 309760, Note_on_c, 11, 69, 0
13, 309760, Note_on_c, 11, 64, 97
13, 310272, Note_on_c, 11, 64, 0
13, 310272, Note_on_c, 11, 66, 98
13, 310784, Note_on_c, 11, 66, 0
13, 310784, Note_on_c, 11, 68, 98
13, 311296, Note_on_c, 11, 68, 0
13, 311296, Note_on_c, 11, 69, 98
13, 311808, Note_on_c, 11, 69, 0
13, 311808, Note_on_c, 11, 71, 99
13, 312320, Note_on_c, 11, 71, 0
13, 312320, Note_on_c, 11, 68, 99
13, 312832, Note_on_c, 11, 68, 0
13, 312832, Note_on_c, 11, 69, 99
13, 313344, Note_on_c, 11, 69, 0
13, 313344, Note_on_c, 11, 71, 99
13, 314368, Note_on_c, 11, 71, 0
13, 314368, Note_on_c, 11, 66, 100
13, 315392, Note_on_c, 11, 66, 0
13, 315392, Note_on_c, 11, 71, 101
13, 318464, Note_on_c, 11, 71, 0
13, 318464, Note_on_c, 11, 64, 103
13, 319488, Note_on_c, 11, 64, 0
13, 319488, Note_on_c, 11, 69, 103
13, 321536, Note_on_c, 11, 69, 0
13, 321536, Note_on_c, 11, 64, 104
13, 322560, Note_on_c, 11, 64, 0
13, 323584, Note_on_c, 11, 73, 106
13, 326656, Note_on_c, 11, 73, 0
13, 326656, Note_on_c, 11, 71, 108
13, 327168, Note_on_c, 11, 71, 0
13, 327168, Note_on_c, 11, 70, 108
13, 327680, Note_on_c, 11, 70, 0
13, 327680, Note_on_c, 11, 71, 109
13, 330752, Note_on_c, 11, 71, 0
13, 330752, Note_on_c, 11, 71, 112
13, 331776, Note_on_c, 11, 71, 0
13, 331776, Note_on_c, 11, 64, 113
13, 333824, Note_on_c, 11, 64, 0
13, 333824, Note_on_c, 11, 62, 115
13, 335872, Note_on_c, 11, 62, 0
13, 335872, Note_on_c, 11, 62, 117
13, 337920, Note_on_c, 11, 62, 0
13, 337920, Note_on_c, 11, 64, 119
13, 339968, Note_on_c, 11, 64, 0
13, 339968, Note_on_c, 11, 66, 121
13, 342016, Note_on_c, 11, 66, 0
13, 342016, Note_on_c, 11, 67, 123
13, 344064, Note_on_c, 11, 67, 0
13, 344064, Note_on_c, 11, 66, 125
13, 345088, Note_on_c, 11, 66, 0
13, 345088, Note_on_c, 11, 64, 126
13, 346112, Note_on_c, 11, 64, 0
13, 346112, Note_on_c, 11, 66, 127
13, 347136, Note_on_c, 11, 66, 0
13, 347136, Note_on_c, 11, 71, 127
13, 349184, Note_on_c, 11, 71, 0
13, 349184, Note_on_c, 11, 71, 127
13, 350208, Note_on_c, 11, 71, 0
13, 350208, Note_on_c, 11, 64, 127
13, 351232, Note_on_c, 11, 64, 0
13, 351232, Note_on_c, 11, 68, 127
13, 352256, Note_on_c, 11, 68, 0
13, 352256, Note_on_c, 11, 71, 127
13, 355328, Note_on_c, 11, 71, 0
13, 355328, Note_on_c, 11, 64, 127
13, 356352, Note_on_c, 11, 64, 0
13, 356352, Note_on_c, 11, 69, 127
13, 359424, Note_on_c, 11, 69, 0
13, 359424, Note_on_c, 11, 62, 127
13, 360448, Note_on_c, 11, 62, 0
13, 360448, Note_on_c, 11, 67, 127
13, 363520, Note_on_c, 11, 67, 0
13, 363520, Note_on_c, 11, 66, 127
13, 364032, Note_on_c, 11, 66, 0
13, 364032, Note_on_c, 11, 64, 127
13, 364544, Note_on_c, 11, 64, 0
13, 364544, Note_on_c, 11, 66, 127
13, 365568, Note_on_c, 11, 66, 0
13, 365568, Note_on_c, 11, 71, 127
13, 366592, Note_on_c, 11, 71, 0
13, 366592, Note_on_c, 11, 66, 127
13, 367616, Note_on_c, 11, 66, 0
13, 367616, Note_on_c, 11, 64, 127
13, 368128, Note_on_c, 11, 64, 0
13, 368128, Note_on_c, 11, 62, 127
13, 368640, Note_on_c, 11, 62, 0
13, 368640, Note_on_c, 11, 64, 127
13, 370483, Note_on_c, 11, 64, 0
13, 370688, Note_on_c, 11, 66, 127
13, 378880, Note_on_c, 11, 66, 0
13, 380623, Control_c, 11, 121, 127
13, 387072, End_track
14, 0, Start_track
14, 0, Title_t, "Tenor"
14, 0, Program_c, 12, 52
14, 0, Control_c, 12, 121, 127
14, 0, Control_c, 12, 91, 127
14, 0, Control_c, 12, 1, 20
14, 0, Control_c, 12, 10, 70
14, 0, Control_c, 12, 93, 127
14, 8192, Note_on_c, 12, 57, 39
14, 10240, Note_on_c, 12, 57, 0
14, 10240, Note_on_c, 12, 59, 40
14, 12288, Note_on_c, 12, 59, 0
14, 12288, Note_on_c, 12, 61, 41
14, 14336, Note_on_c, 12, 61, 0
14, 14336, Note_on_c, 12, 62, 42
14, 16384, Note_on_c, 12, 62, 0
14, 16384, Note_on_c, 12, 61, 44
14, 17408, Note_on_c, 12, 61, 0
14, 17408, Note_on_c, 12, 59, 44
14, 18432, Note_on_c, 12, 59, 0
14, 18432, Note_on_c, 12, 61, 45
14, 19456, Note_on_c, 12, 61, 0
14, 19456, Note_on_c, 12, 57, 46
14, 20480, Note_on_c, 12, 57, 0
14, 20480, Note_on_c, 12, 62, 46
14, 24576, Note_on_c, 12, 62, 0
14, 24576, Note_on_c, 12, 61, 49
14, 26624, Note_on_c, 12, 61, 0
14, 26624, Note_on_c, 12, 59, 50
14, 30720, Note_on_c, 12, 59, 0
14, 30720, Note_on_c, 12, 57, 53
14, 34816, Note_on_c, 12, 57, 0
14, 40960, Note_on_c, 12, 62, 45
14, 45056, Note_on_c, 12, 62, 0
14, 45056, Note_on_c, 12, 61, 38
14, 47104, Note_on_c, 12, 61, 0
14, 47104, Note_on_c, 12, 62, 40
14, 48128, Note_on_c, 12, 62, 0
14, 48128, Note_on_c, 12, 61, 41
14, 48640, Note_on_c, 12, 61, 0
14, 48640, Note_on_c, 12, 59, 42
14, 49152, Note_on_c, 12, 59, 0
14, 49152, Note_on_c, 12, 57, 42
14, 49664, Note_on_c, 12, 57, 0
14, 49664, Note_on_c, 12, 59, 43
14, 50176, Note_on_c, 12, 59, 0
14, 50176, Note_on_c, 12, 55, 44
14, 50688, Note_on_c, 12, 55, 0
14, 50688, Note_on_c, 12, 57, 44
14, 51200, Note_on_c, 12, 57, 0
14, 51200, Note_on_c, 12, 59, 45
14, 51712, Note_on_c, 12, 59, 0
14, 51712, Note_on_c, 12, 57, 45
14, 52224, Note_on_c, 12, 57, 0
14, 52224, Note_on_c, 12, 59, 46
14, 52736, Note_on_c, 12, 59, 0
14, 52736, Note_on_c, 12, 61, 46
14, 53248, Note_on_c, 12, 61, 0
14, 53248, Note_on_c, 12, 59, 47
14, 53760, Note_on_c, 12, 59, 0
14, 53760, Note_on_c, 12, 62, 48
14, 54272, Note_on_c, 12, 62, 0
14, 54272, Note_on_c, 12, 61, 48
14, 54784, Note_on_c, 12, 61, 0
14, 54784, Note_on_c, 12, 59, 49
14, 55296, Note_on_c, 12, 59, 0
14, 55296, Note_on_c, 12, 57, 49
14, 56320, Note_on_c, 12, 57, 0
14, 56320, Note_on_c, 12, 52, 50
14, 57344, Note_on_c, 12, 52, 0
14, 57344, Note_on_c, 12, 57, 52
14, 59392, Note_on_c, 12, 57, 0
14, 59392, Note_on_c, 12, 50, 54
14, 63488, Note_on_c, 12, 50, 0
14, 69632, Note_on_c, 12, 57, 42
14, 71680, Note_on_c, 12, 57, 0
14, 71680, Note_on_c, 12, 59, 44
14, 73728, Note_on_c, 12, 59, 0
14, 73728, Note_on_c, 12, 61, 46
14, 75776, Note_on_c, 12, 61, 0
14, 75776, Note_on_c, 12, 62, 48
14, 77824, Note_on_c, 12, 62, 0
14, 77824, Note_on_c, 12, 61, 51
14, 78848, Note_on_c, 12, 61, 0
14, 78848, Note_on_c, 12, 59, 52
14, 79872, Note_on_c, 12, 59, 0
14, 79872, Note_on_c, 12, 61, 53
14, 80896, Note_on_c, 12, 61, 0
14, 80896, Note_on_c, 12, 54, 54
14, 81920, Note_on_c, 12, 54, 0
14, 81920, Note_on_c, 12, 66, 55
14, 84992, Note_on_c, 12, 66, 0
14, 84992, Note_on_c, 12, 64, 58
14, 87040, Note_on_c, 12, 64, 0
14, 87040, Note_on_c, 12, 69, 60
14, 88064, Note_on_c, 12, 69, 0
14, 88064, Note_on_c, 12, 62, 61
14, 89088, Note_on_c, 12, 62, 0
14, 89088, Note_on_c, 12, 66, 63
14, 90112, Note_on_c, 12, 66, 0
14, 90112, Note_on_c, 12, 64, 64
14, 91136, Note_on_c, 12, 64, 0
14, 91136, Note_on_c, 12, 62, 65
14, 92160, Note_on_c, 12, 62, 0
14, 92160, Note_on_c, 12, 61, 66
14, 96256, Note_on_c, 12, 61, 0
14, 100352, Note_on_c, 12, 62, 75
14, 104448, Note_on_c, 12, 62, 0
14, 104448, Note_on_c, 12, 64, 78
14, 106496, Note_on_c, 12, 64, 0
14, 106496, Note_on_c, 12, 66, 76
14, 108544, Note_on_c, 12, 66, 0
14, 108544, Note_on_c, 12, 67, 75
14, 110592, Note_on_c, 12, 67, 0
14, 110592, Note_on_c, 12, 66, 74
14, 111616, Note_on_c, 12, 66, 0
14, 111616, Note_on_c, 12, 64, 73
14, 112640, Note_on_c, 12, 64, 0
14, 112640, Note_on_c, 12, 66, 72
14, 113664, Note_on_c, 12, 66, 0
14, 113664, Note_on_c, 12, 62, 72
14, 114688, Note_on_c, 12, 62, 0
14, 114688, Note_on_c, 12, 69, 71
14, 118784, Note_on_c, 12, 69, 0
14, 118784, Note_on_c, 12, 67, 69
14, 120832, Note_on_c, 12, 67, 0
14, 120832, Note_on_c, 12, 66, 74
14, 124928, Note_on_c, 12, 66, 0
14, 124928, Note_on_c, 12, 64, 83
14, 126976, Note_on_c, 12, 64, 0
14, 126976, Note_on_c, 12, 57, 87
14, 129024, Note_on_c, 12, 57, 0
14, 129024, Note_on_c, 12, 59, 92
14, 131072, Note_on_c, 12, 59, 0
14, 131072, Note_on_c, 12, 61, 91
14, 133120, Note_on_c, 12, 61, 0
14, 133120, Note_on_c, 12, 62, 88
14, 135168, Note_on_c, 12, 62, 0
14, 135168, Note_on_c, 12, 61, 85
14, 136192, Note_on_c, 12, 61, 0
14, 136192, Note_on_c, 12, 59, 84
14, 137216, Note_on_c, 12, 59, 0
14, 137216, Note_on_c, 12, 61, 83
14, 138240, Note_on_c, 12, 61, 0
14, 138240, Note_on_c, 12, 57, 81
14, 139264, Note_on_c, 12, 57, 0
14, 139264, Note_on_c, 12, 62, 80
14, 143360, Note_on_c, 12, 62, 0
14, 143360, Note_on_c, 12, 61, 77
14, 145408, Note_on_c, 12, 61, 0
14, 145408, Note_on_c, 12, 59, 77
14, 149504, Note_on_c, 12, 59, 0
14, 149504, Note_on_c, 12, 57, 79
14, 151552, Note_on_c, 12, 57, 0
14, 151552, Note_on_c, 12, 64, 76
14, 152576, Note_on_c, 12, 64, 0
14, 152576, Note_on_c, 12, 64, 75
14, 153600, Note_on_c, 12, 64, 0
14, 153600, Note_on_c, 12, 63, 73
14, 154624, Note_on_c, 12, 63, 0
14, 154624, Note_on_c, 12, 59, 72
14, 156672, Note_on_c, 12, 59, 0
14, 156672, Note_on_c, 12, 59, 69
14, 157696, Note_on_c, 12, 59, 0
14, 157696, Note_on_c, 12, 60, 67
14, 159744, Note_on_c, 12, 60, 0
14, 159744, Note_on_c, 12, 59, 66
14, 161792, Note_on_c, 12, 59, 0
14, 161792, Note_on_c, 12, 55, 67
14, 163840, Note_on_c, 12, 55, 0
14, 172032, Note_on_c, 12, 59, 70
14, 176128, Note_on_c, 12, 59, 0
14, 176128, Note_on_c, 12, 58, 71
14, 178176, Note_on_c, 12, 58, 0
14, 178176, Note_on_c, 12, 59, 72
14, 179200, Note_on_c, 12, 59, 0
14, 179200, Note_on_c, 12, 57, 72
14, 179712, Note_on_c, 12, 57, 0
14, 179712, Note_on_c, 12, 55, 73
14, 180224, Note_on_c, 12, 55, 0
14, 180224, Note_on_c, 12, 54, 73
14, 180736, Note_on_c, 12, 54, 0
14, 180736, Note_on_c, 12, 55, 73
14, 181248, Note_on_c, 12, 55, 0
14, 181248, Note_on_c, 12, 52, 73
14, 181760, Note_on_c, 12, 52, 0
14, 181760, Note_on_c, 12, 54, 73
14, 182272, Note_on_c, 12, 54, 0
14, 182272, Note_on_c, 12, 55, 74
14, 182784, Note_on_c, 12, 55, 0
14, 182784, Note_on_c, 12, 54, 74
14, 183296, Note_on_c, 12, 54, 0
14, 183296, Note_on_c, 12, 55, 74
14, 183808, Note_on_c, 12, 55, 0
14, 183808, Note_on_c, 12, 57, 74
14, 184320, Note_on_c, 12, 57, 0
14, 184320, Note_on_c, 12, 55, 74
14, 184832, Note_on_c, 12, 55, 0
14, 184832, Note_on_c, 12, 59, 74
14, 185344, Note_on_c, 12, 59, 0
14, 185344, Note_on_c, 12, 57, 75
14, 185856, Note_on_c, 12, 57, 0
14, 185856, Note_on_c, 12, 55, 75
14, 186368, Note_on_c, 12, 55, 0
14, 186368, Note_on_c, 12, 54, 75
14, 187392, Note_on_c, 12, 54, 0
14, 187392, Note_on_c, 12, 55, 75
14, 188416, Note_on_c, 12, 55, 0
14, 188416, Note_on_c, 12, 57, 76
14, 190464, Note_on_c, 12, 57, 0
14, 190464, Note_on_c, 12, 50, 77
14, 191488, Note_on_c, 12, 50, 0
14, 191488, Note_on_c, 12, 62, 78
14, 192512, Note_on_c, 12, 62, 0
14, 192512, Note_on_c, 12, 61, 79
14, 193536, Note_on_c, 12, 61, 0
14, 193536, Note_on_c, 12, 61, 80
14, 194560, Note_on_c, 12, 61, 0
14, 194560, Note_on_c, 12, 61, 80
14, 195584, Note_on_c, 12, 61, 0
14, 195584, Note_on_c, 12, 62, 81
14, 196608, Note_on_c, 12, 62, 0
14, 196608, Note_on_c, 12, 64, 82
14, 198656, Note_on_c, 12, 64, 0
14, 198656, Note_on_c, 12, 57, 83
14, 200704, Note_on_c, 12, 57, 0
14, 204800, Note_on_c, 12, 57, 88
14, 206848, Note_on_c, 12, 57, 0
14, 206848, Note_on_c, 12, 59, 90
14, 208896, Note_on_c, 12, 59, 0
14, 208896, Note_on_c, 12, 61, 91
14, 210944, Note_on_c, 12, 61, 0
14, 210944, Note_on_c, 12, 62, 93
14, 212992, Note_on_c, 12, 62, 0
14, 212992, Note_on_c, 12, 61, 95
14, 214016, Note_on_c, 12, 61, 0
14, 214016, Note_on_c, 12, 59, 98
14, 215040, Note_on_c, 12, 59, 0
14, 215040, Note_on_c, 12, 61, 98
14, 216064, Note_on_c, 12, 61, 0
14, 216064, Note_on_c, 12, 57, 98
14, 217088, Note_on_c, 12, 57, 0
14, 217088, Note_on_c, 12, 62, 98
14, 221184, Note_on_c, 12, 62, 0
14, 221184, Note_on_c, 12, 60, 98
14, 222208, Note_on_c, 12, 60, 0
14, 222208, Note_on_c, 12, 60, 98
14, 223232, Note_on_c, 12, 60, 0
14, 223232, Note_on_c, 12, 60, 98
14, 225280, Note_on_c, 12, 60, 0
14, 225280, Note_on_c, 12, 59, 103
14, 227328, Note_on_c, 12, 59, 0
14, 227328, Note_on_c, 12, 57, 104
14, 231424, Note_on_c, 12, 57, 0
14, 233472, Note_on_c, 12, 57, 100
14, 235520, Note_on_c, 12, 57, 0
14, 235520, Note_on_c, 12, 59, 99
14, 237568, Note_on_c, 12, 59, 0
14, 237568, Note_on_c, 12, 61, 98
14, 239616, Note_on_c, 12, 61, 0
14, 239616, Note_on_c, 12, 62, 97
14, 241664, Note_on_c, 12, 62, 0
14, 241664, Note_on_c, 12, 61, 96
14, 242688, Note_on_c, 12, 61, 0
14, 242688, Note_on_c, 12, 59, 96
14, 243712, Note_on_c, 12, 59, 0
14, 243712, Note_on_c, 12, 61, 94
14, 244736, Note_on_c, 12, 61, 0
14, 244736, Note_on_c, 12, 57, 95
14, 245760, Note_on_c, 12, 57, 0
14, 245760, Note_on_c, 12, 62, 97
14, 249856, Note_on_c, 12, 62, 0
14, 249856, Note_on_c, 12, 61, 101
14, 251904, Note_on_c, 12, 61, 0
14, 251904, Note_on_c, 12, 59, 103
14, 252928, Note_on_c, 12, 59, 0
14, 252928, Note_on_c, 12, 66, 104
14, 253952, Note_on_c, 12, 66, 0
14, 253952, Note_on_c, 12, 64, 103
14, 254976, Note_on_c, 12, 64, 0
14, 254976, Note_on_c, 12, 62, 103
14, 256000, Note_on_c, 12, 62, 0
14, 256000, Note_on_c, 12, 61, 103
14, 257024, Note_on_c, 12, 61, 0
14, 257024, Note_on_c, 12, 64, 103
14, 258048, Note_on_c, 12, 64, 0
14, 258048, Note_on_c, 12, 62, 103
14, 259072, Note_on_c, 12, 62, 0
14, 259072, Note_on_c, 12, 66, 103
14, 260096, Note_on_c, 12, 66, 0
14, 260096, Note_on_c, 12, 59, 103
14, 262144, Note_on_c, 12, 59, 0
14, 262144, Note_on_c, 12, 57, 103
14, 266240, Note_on_c, 12, 57, 0
14, 266240, Note_on_c, 12, 55, 103
14, 268288, Note_on_c, 12, 55, 0
14, 268288, Note_on_c, 12, 57, 103
14, 270336, Note_on_c, 12, 57, 0
14, 270336, Note_on_c, 12, 59, 102
14, 272384, Note_on_c, 12, 59, 0
14, 272384, Note_on_c, 12, 55, 102
14, 274432, Note_on_c, 12, 55, 0
14, 274432, Note_on_c, 12, 57, 100
14, 276480, Note_on_c, 12, 57, 0
14, 276480, Note_on_c, 12, 59, 98
14, 278528, Note_on_c, 12, 59, 0
14, 278528, Note_on_c, 12, 61, 96
14, 280576, Note_on_c, 12, 61, 0
14, 280576, Note_on_c, 12, 62, 95
14, 282624, Note_on_c, 12, 62, 0
14, 282624, Note_on_c, 12, 61, 92
14, 283648, Note_on_c, 12, 61, 0
14, 283648, Note_on_c, 12, 59, 92
14, 284672, Note_on_c, 12, 59, 0
14, 284672, Note_on_c, 12, 61, 92
14, 285696, Note_on_c, 12, 61, 0
14, 285696, Note_on_c, 12, 57, 92
14, 286720, Note_on_c, 12, 57, 0
14, 286720, Note_on_c, 12, 62, 92
14, 289792, Note_on_c, 12, 62, 0
14, 289792, Note_on_c, 12, 61, 92
14, 290304, Note_on_c, 12, 61, 0
14, 290304, Note_on_c, 12, 59, 92
14, 290816, Note_on_c, 12, 59, 0
14, 290816, Note_on_c, 12, 64, 92
14, 293888, Note_on_c, 12, 64, 0
14, 293888, Note_on_c, 12, 57, 92
14, 294912, Note_on_c, 12, 57, 0
14, 294912, Note_on_c, 12, 62, 92
14, 296960, Note_on_c, 12, 62, 0
14, 296960, Note_on_c, 12, 64, 92
14, 299008, Note_on_c, 12, 64, 0
14, 299008, Note_on_c, 12, 62, 92
14, 300032, Note_on_c, 12, 62, 0
14, 300032, Note_on_c, 12, 61, 92
14, 301056, Note_on_c, 12, 61, 0
14, 301056, Note_on_c, 12, 59, 92
14, 303104, Note_on_c, 12, 59, 0
14, 303104, Note_on_c, 12, 61, 93
14, 305152, Note_on_c, 12, 61, 0
14, 305152, Note_on_c, 12, 62, 95
14, 306176, Note_on_c, 12, 62, 0
14, 306176, Note_on_c, 12, 61, 95
14, 307200, Note_on_c, 12, 61, 0
14, 307200, Note_on_c, 12, 59, 96
14, 309248, Note_on_c, 12, 59, 0
14, 309248, Note_on_c, 12, 64, 97
14, 312320, Note_on_c, 12, 64, 0
14, 312320, Note_on_c, 12, 64, 99
14, 313344, Note_on_c, 12, 64, 0
14, 313344, Note_on_c, 12, 66, 99
14, 314368, Note_on_c, 12, 66, 0
14, 314368, Note_on_c, 12, 62, 100
14, 315392, Note_on_c, 12, 62, 0
14, 315392, Note_on_c, 12, 64, 101
14, 318464, Note_on_c, 12, 64, 0
14, 318464, Note_on_c, 12, 64, 103
14, 319488, Note_on_c, 12, 64, 0
14, 319488, Note_on_c, 12, 66, 103
14, 321536, Note_on_c, 12, 66, 0
14, 321536, Note_on_c, 12, 59, 104
14, 323584, Note_on_c, 12, 59, 0
14, 323584, Note_on_c, 12, 66, 106
14, 326144, Note_on_c, 12, 66, 0
14, 326144, Note_on_c, 12, 67, 108
14, 326656, Note_on_c, 12, 67, 0
14, 326656, Note_on_c, 12, 66, 108
14, 327168, Note_on_c, 12, 66, 0
14, 327168, Note_on_c, 12, 64, 108
14, 327680, Note_on_c, 12, 64, 0
14, 327680, Note_on_c, 12, 66, 109
14, 328704, Note_on_c, 12, 66, 0
14, 328704, Note_on_c, 12, 62, 110
14, 329728, Note_on_c, 12, 62, 0
14, 329728, Note_on_c, 12, 62, 111
14, 331776, Note_on_c, 12, 62, 0
14, 331776, Note_on_c, 12, 61, 113
14, 332800, Note_on_c, 12, 61, 0
14, 332800, Note_on_c, 12, 57, 114
14, 333824, Note_on_c, 12, 57, 0
14, 333824, Note_on_c, 12, 57, 115
14, 335872, Note_on_c, 12, 57, 0
14, 335872, Note_on_c, 12, 57, 117
14, 337920, Note_on_c, 12, 57, 0
14, 339968, Note_on_c, 12, 57, 121
14, 342016, Note_on_c, 12, 57, 0
14, 342016, Note_on_c, 12, 59, 123
14, 344064, Note_on_c, 12, 59, 0
14, 344064, Note_on_c, 12, 61, 125
14, 346112, Note_on_c, 12, 61, 0
14, 346112, Note_on_c, 12, 62, 127
14, 348160, Note_on_c, 12, 62, 0
14, 348160, Note_on_c, 12, 64, 127
14, 349184, Note_on_c, 12, 64, 0
14, 349184, Note_on_c, 12, 66, 127
14, 350208, Note_on_c, 12, 66, 0
14, 350208, Note_on_c, 12, 59, 127
14, 352256, Note_on_c, 12, 59, 0
14, 352256, Note_on_c, 12, 64, 127
14, 355328, Note_on_c, 12, 64, 0
14, 355328, Note_on_c, 12, 61, 127
14, 357376, Note_on_c, 12, 61, 0
14, 357376, Note_on_c, 12, 62, 127
14, 357888, Note_on_c, 12, 62, 0
14, 357888, Note_on_c, 12, 61, 127
14, 358400, Note_on_c, 12, 61, 0
14, 358400, Note_on_c, 12, 59, 127
14, 359424, Note_on_c, 12, 59, 0
14, 359424, Note_on_c, 12, 57, 127
14, 360448, Note_on_c, 12, 57, 0
14, 360448, Note_on_c, 12, 59, 127
14, 361472, Note_on_c, 12, 59, 0
14, 361472, Note_on_c, 12, 55, 127
14, 362496, Note_on_c, 12, 55, 0
14, 362496, Note_on_c, 12, 57, 127
14, 363520, Note_on_c, 12, 57, 0
14, 363520, Note_on_c, 12, 59, 127
14, 364032, Note_on_c, 12, 59, 0
14, 364032, Note_on_c, 12, 61, 127
14, 364544, Note_on_c, 12, 61, 0
14, 364544, Note_on_c, 12, 62, 127
14, 365568, Note_on_c, 12, 62, 0
14, 365568, Note_on_c, 12, 59, 127
14, 366592, Note_on_c, 12, 59, 0
14, 366592, Note_on_c, 12, 57, 127
14, 370688, Note_on_c, 12, 57, 0
14, 370688, Note_on_c, 12, 57, 127
14, 378880, Note_on_c, 12, 57, 0
14, 380623, Control_c, 12, 121, 127
14, 387072, End_track
15, 0, Start_track
15, 0, Title_t, "Bass"
15, 0, Program_c, 13, 52
15, 0, Control_c, 13, 121, 127
15, 0, Control_c, 13, 91, 127
15, 0, Control_c, 13, 1, 20
15, 0, Control_c, 13, 10, 90
15, 0, Control_c, 13, 93, 127
15, 4096, Note_on_c, 13, 50, 36
15, 6144, Note_on_c, 13, 50, 0
15, 6144, Note_on_c, 13, 52, 37
15, 8192, Note_on_c, 13, 52, 0
15, 8192, Note_on_c, 13, 54, 39
15, 10240, Note_on_c, 13, 54, 0
15, 10240, Note_on_c, 13, 55, 40
15, 12288, Note_on_c, 13, 55, 0
15, 12288, Note_on_c, 13, 54, 41
15, 13312, Note_on_c, 13, 54, 0
15, 13312, Note_on_c, 13, 52, 42
15, 14336, Note_on_c, 13, 52, 0
15, 14336, Note_on_c, 13, 54, 42
15, 15360, Note_on_c, 13, 54, 0
15, 15360, Note_on_c, 13, 50, 43
15, 16384, Note_on_c, 13, 50, 0
15, 16384, Note_on_c, 13, 55, 44
15, 20480, Note_on_c, 13, 55, 0
15, 20480, Note_on_c, 13, 54, 46
15, 22528, Note_on_c, 13, 54, 0
15, 22528, Note_on_c, 13, 52, 48
15, 26624, Note_on_c, 13, 52, 0
15, 26624, Note_on_c, 13, 50, 50
15, 30720, Note_on_c, 13, 50, 0
15, 36864, Note_on_c, 13, 57, 52
15, 40960, Note_on_c, 13, 57, 0
15, 40960, Note_on_c, 13, 56, 45
15, 43008, Note_on_c, 13, 56, 0
15, 43008, Note_on_c, 13, 57, 41
15, 44032, Note_on_c, 13, 57, 0
15, 44032, Note_on_c, 13, 55, 37
15, 44544, Note_on_c, 13, 55, 0
15, 44544, Note_on_c, 13, 54, 37
15, 45056, Note_on_c, 13, 54, 0
15, 45056, Note_on_c, 13, 52, 38
15, 45568, Note_on_c, 13, 52, 0
15, 45568, Note_on_c, 13, 54, 38
15, 46080, Note_on_c, 13, 54, 0
15, 46080, Note_on_c, 13, 50, 39
15, 46592, Note_on_c, 13, 50, 0
15, 46592, Note_on_c, 13, 52, 40
15, 47104, Note_on_c, 13, 52, 0
15, 47104, Note_on_c, 13, 54, 40
15, 47616, Note_on_c, 13, 54, 0
15, 47616, Note_on_c, 13, 52, 41
15, 48128, Note_on_c, 13, 52, 0
15, 48128, Note_on_c, 13, 54, 41
15, 48640, Note_on_c, 13, 54, 0
15, 48640, Note_on_c, 13, 55, 42
15, 49152, Note_on_c, 13, 55, 0
15, 49152, Note_on_c, 13, 54, 42
15, 49664, Note_on_c, 13, 54, 0
15, 49664, Note_on_c, 13, 55, 43
15, 50176, Note_on_c, 13, 55, 0
15, 50176, Note_on_c, 13, 54, 44
15, 50688, Note_on_c, 13, 54, 0
15, 50688, Note_on_c, 13, 52, 44
15, 51200, Note_on_c, 13, 52, 0
15, 51200, Note_on_c, 13, 50, 45
15, 52224, Note_on_c, 13, 50, 0
15, 52224, Note_on_c, 13, 47, 46
15, 53248, Note_on_c, 13, 47, 0
15, 53248, Note_on_c, 13, 52, 47
15, 55296, Note_on_c, 13, 52, 0
15, 55296, Note_on_c, 13, 45, 49
15, 59392, Note_on_c, 13, 45, 0
15, 65536, Note_on_c, 13, 50, 57
15, 67584, Note_on_c, 13, 50, 0
15, 67584, Note_on_c, 13, 52, 52
15, 69632, Note_on_c, 13, 52, 0
15, 69632, Note_on_c, 13, 54, 42
15, 71680, Note_on_c, 13, 54, 0
15, 71680, Note_on_c, 13, 55, 44
15, 73728, Note_on_c, 13, 55, 0
15, 73728, Note_on_c, 13, 54, 46
15, 74752, Note_on_c, 13, 54, 0
15, 74752, Note_on_c, 13, 52, 47
15, 75776, Note_on_c, 13, 52, 0
15, 75776, Note_on_c, 13, 54, 48
15, 76800, Note_on_c, 13, 54, 0
15, 76800, Note_on_c, 13, 47, 49
15, 77824, Note_on_c, 13, 47, 0
15, 77824, Note_on_c, 13, 59, 51
15, 80896, Note_on_c, 13, 59, 0
15, 80896, Note_on_c, 13, 57, 54
15, 82944, Note_on_c, 13, 57, 0
15, 82944, Note_on_c, 13, 62, 56
15, 83968, Note_on_c, 13, 62, 0
15, 83968, Note_on_c, 13, 55, 57
15, 84992, Note_on_c, 13, 55, 0
15, 84992, Note_on_c, 13, 59, 58
15, 86016, Note_on_c, 13, 59, 0
15, 86016, Note_on_c, 13, 57, 59
15, 87040, Note_on_c, 13, 57, 0
15, 87040, Note_on_c, 13, 55, 60
15, 88064, Note_on_c, 13, 55, 0
15, 88064, Note_on_c, 13, 54, 61
15, 92160, Note_on_c, 13, 54, 0
15, 102400, Note_on_c, 13, 59, 77
15, 106496, Note_on_c, 13, 59, 0
15, 106496, Note_on_c, 13, 58, 76
15, 108544, Note_on_c, 13, 58, 0
15, 108544, Note_on_c, 13, 59, 75
15, 109056, Note_on_c, 13, 59, 0
15, 109056, Note_on_c, 13, 61, 75
15, 109568, Note_on_c, 13, 61, 0
15, 109568, Note_on_c, 13, 57, 74
15, 110080, Note_on_c, 13, 57, 0
15, 110080, Note_on_c, 13, 59, 74
15, 110592, Note_on_c, 13, 59, 0
15, 110592, Note_on_c, 13, 61, 74
15, 111104, Note_on_c, 13, 61, 0
15, 111104, Note_on_c, 13, 62, 73
15, 111616, Note_on_c, 13, 62, 0
15, 111616, Note_on_c, 13, 59, 73
15, 112128, Note_on_c, 13, 59, 0
15, 112128, Note_on_c, 13, 61, 73
15, 112640, Note_on_c, 13, 61, 0
15, 112640, Note_on_c, 13, 62, 72
15, 113152, Note_on_c, 13, 62, 0
15, 113152, Note_on_c, 13, 61, 72
15, 113664, Note_on_c, 13, 61, 0
15, 113664, Note_on_c, 13, 62, 72
15, 114176, Note_on_c, 13, 62, 0
15, 114176, Note_on_c, 13, 64, 71
15, 114688, Note_on_c, 13, 64, 0
15, 114688, Note_on_c, 13, 62, 71
15, 115200, Note_on_c, 13, 62, 0
15, 115200, Note_on_c, 13, 64, 71
15, 115712, Note_on_c, 13, 64, 0
15, 115712, Note_on_c, 13, 62, 70
15, 116224, Note_on_c, 13, 62, 0
15, 116224, Note_on_c, 13, 61, 70
15, 116736, Note_on_c, 13, 61, 0
15, 116736, Note_on_c, 13, 59, 70
15, 121856, Note_on_c, 13, 59, 0
15, 121856, Note_on_c, 13, 61, 76
15, 122880, Note_on_c, 13, 61, 0
15, 122880, Note_on_c, 13, 62, 78
15, 124928, Note_on_c, 13, 62, 0
15, 124928, Note_on_c, 13, 57, 83
15, 126976, Note_on_c, 13, 57, 0
15, 126976, Note_on_c, 13, 55, 87
15, 128000, Note_on_c, 13, 55, 0
15, 128000, Note_on_c, 13, 54, 90
15, 129024, Note_on_c, 13, 54, 0
15, 129024, Note_on_c, 13, 52, 92
15, 131072, Note_on_c, 13, 52, 0
15, 131072, Note_on_c, 13, 57, 91
15, 133120, Note_on_c, 13, 57, 0
15, 133120, Note_on_c, 13, 50, 88
15, 135168, Note_on_c, 13, 50, 0
15, 135168, Note_on_c, 13, 52, 85
15, 137216, Note_on_c, 13, 52, 0
15, 137216, Note_on_c, 13, 45, 83
15, 143360, Note_on_c, 13, 45, 0
15, 143360, Note_on_c, 13, 46, 77
15, 143872, Note_on_c, 13, 46, 0
15, 143872, Note_on_c, 13, 47, 77
15, 144384, Note_on_c, 13, 47, 0
15, 144384, Note_on_c, 13, 44, 77
15, 144896, Note_on_c, 13, 44, 0
15, 144896, Note_on_c, 13, 46, 77
15, 145408, Note_on_c, 13, 46, 0
15, 145408, Note_on_c, 13, 47, 77
15, 145920, Note_on_c, 13, 47, 0
15, 145920, Note_on_c, 13, 49, 78
15, 146432, Note_on_c, 13, 49, 0
15, 146432, Note_on_c, 13, 46, 78
15, 146944, Note_on_c, 13, 46, 0
15, 146944, Note_on_c, 13, 47, 78
15, 147456, Note_on_c, 13, 47, 0
15, 147456, Note_on_c, 13, 49, 78
15, 147968, Note_on_c, 13, 49, 0
15, 147968, Note_on_c, 13, 50, 78
15, 148480, Note_on_c, 13, 50, 0
15, 148480, Note_on_c, 13, 47, 78
15, 148992, Note_on_c, 13, 47, 0
15, 148992, Note_on_c, 13, 49, 78
15, 149504, Note_on_c, 13, 49, 0
15, 149504, Note_on_c, 13, 50, 79
15, 150016, Note_on_c, 13, 50, 0
15, 150016, Note_on_c, 13, 49, 79
15, 150528, Note_on_c, 13, 49, 0
15, 150528, Note_on_c, 13, 50, 78
15, 151040, Note_on_c, 13, 50, 0
15, 151040, Note_on_c, 13, 52, 77
15, 151552, Note_on_c, 13, 52, 0
15, 151552, Note_on_c, 13, 48, 76
15, 152064, Note_on_c, 13, 48, 0
15, 152064, Note_on_c, 13, 47, 75
15, 152576, Note_on_c, 13, 47, 0
15, 152576, Note_on_c, 13, 48, 75
15, 153088, Note_on_c, 13, 48, 0
15, 153088, Note_on_c, 13, 50, 74
15, 153600, Note_on_c, 13, 50, 0
15, 153600, Note_on_c, 13, 47, 73
15, 154624, Note_on_c, 13, 47, 0
15, 154624, Note_on_c, 13, 47, 72
15, 155648, Note_on_c, 13, 47, 0
15, 155648, Note_on_c, 13, 52, 70
15, 157696, Note_on_c, 13, 52, 0
15, 157696, Note_on_c, 13, 45, 67
15, 159744, Note_on_c, 13, 45, 0
15, 159744, Note_on_c, 13, 47, 66
15, 161792, Note_on_c, 13, 47, 0
15, 161792, Note_on_c, 13, 52, 67
15, 163840, Note_on_c, 13, 52, 0
15, 180224, Note_on_c, 13, 50, 73
15, 184320, Note_on_c, 13, 50, 0
15, 184320, Note_on_c, 13, 49, 74
15, 186368, Note_on_c, 13, 49, 0
15, 186368, Note_on_c, 13, 50, 75
15, 187392, Note_on_c, 13, 50, 0
15, 187392, Note_on_c, 13, 49, 75
15, 187904, Note_on_c, 13, 49, 0
15, 187904, Note_on_c, 13, 47, 75
15, 188416, Note_on_c, 13, 47, 0
15, 188416, Note_on_c, 13, 45, 76
15, 188928, Note_on_c, 13, 45, 0
15, 188928, Note_on_c, 13, 47, 76
15, 189440, Note_on_c, 13, 47, 0
15, 189440, Note_on_c, 13, 44, 76
15, 189952, Note_on_c, 13, 44, 0
15, 189952, Note_on_c, 13, 45, 77
15, 190464, Note_on_c, 13, 45, 0
15, 190464, Note_on_c, 13, 47, 77
15, 190976, Note_on_c, 13, 47, 0
15, 190976, Note_on_c, 13, 45, 78
15, 191488, Note_on_c, 13, 45, 0
15, 191488, Note_on_c, 13, 47, 78
15, 192000, Note_on_c, 13, 47, 0
15, 192000, Note_on_c, 13, 49, 78
15, 192512, Note_on_c, 13, 49, 0
15, 192512, Note_on_c, 13, 47, 79
15, 193024, Note_on_c, 13, 47, 0
15, 193024, Note_on_c, 13, 50, 79
15, 193536, Note_on_c, 13, 50, 0
15, 193536, Note_on_c, 13, 49, 80
15, 194048, Note_on_c, 13, 49, 0
15, 194048, Note_on_c, 13, 47, 80
15, 194560, Note_on_c, 13, 47, 0
15, 194560, Note_on_c, 13, 45, 80
15, 195584, Note_on_c, 13, 45, 0
15, 195584, Note_on_c, 13, 47, 81
15, 196608, Note_on_c, 13, 47, 0
15, 196608, Note_on_c, 13, 49, 82
15, 198656, Note_on_c, 13, 49, 0
15, 198656, Note_on_c, 13, 42, 83
15, 199680, Note_on_c, 13, 42, 0
15, 200704, Note_on_c, 13, 59, 85
15, 203776, Note_on_c, 13, 59, 0
15, 203776, Note_on_c, 13, 57, 87
15, 204800, Note_on_c, 13, 57, 0
15, 204800, Note_on_c, 13, 55, 88
15, 205824, Note_on_c, 13, 55, 0
15, 205824, Note_on_c, 13, 54, 89
15, 206848, Note_on_c, 13, 54, 0
15, 206848, Note_on_c, 13, 52, 90
15, 208896, Note_on_c, 13, 52, 0
15, 208896, Note_on_c, 13, 57, 91
15, 210944, Note_on_c, 13, 57, 0
15, 210944, Note_on_c, 13, 50, 93
15, 212992, Note_on_c, 13, 50, 0
15, 227328, Note_on_c, 13, 50, 104
15, 231424, Note_on_c, 13, 50, 0
15, 231424, Note_on_c, 13, 52, 101
15, 233472, Note_on_c, 13, 52, 0
15, 233472, Note_on_c, 13, 54, 100
15, 235520, Note_on_c, 13, 54, 0
15, 235520, Note_on_c, 13, 55, 99
15, 237568, Note_on_c, 13, 55, 0
15, 237568, Note_on_c, 13, 54, 98
15, 238592, Note_on_c, 13, 54, 0
15, 238592, Note_on_c, 13, 52, 98
15, 239616, Note_on_c, 13, 52, 0
15, 239616, Note_on_c, 13, 54, 97
15, 240640, Note_on_c, 13, 54, 0
15, 240640, Note_on_c, 13, 50, 97
15, 241664, Note_on_c, 13, 50, 0
15, 241664, Note_on_c, 13, 55, 96
15, 245760, Note_on_c, 13, 55, 0
15, 245760, Note_on_c, 13, 54, 97
15, 247808, Note_on_c, 13, 54, 0
15, 247808, Note_on_c, 13, 52, 99
15, 249856, Note_on_c, 13, 52, 0
15, 249856, Note_on_c, 13, 57, 101
15, 251904, Note_on_c, 13, 57, 0
15, 251904, Note_on_c, 13, 50, 103
15, 252928, Note_on_c, 13, 50, 0
15, 253952, Note_on_c, 13, 59, 103
15, 257024, Note_on_c, 13, 59, 0
15, 257024, Note_on_c, 13, 61, 103
15, 258048, Note_on_c, 13, 61, 0
15, 258048, Note_on_c, 13, 62, 103
15, 259072, Note_on_c, 13, 62, 0
15, 259072, Note_on_c, 13, 59, 103
15, 260096, Note_on_c, 13, 59, 0
15, 260096, Note_on_c, 13, 55, 103
15, 261120, Note_on_c, 13, 55, 0
15, 261120, Note_on_c, 13, 52, 103
15, 262144, Note_on_c, 13, 52, 0
15, 262144, Note_on_c, 13, 57, 103
15, 264192, Note_on_c, 13, 57, 0
15, 264192, Note_on_c, 13, 50, 103
15, 266240, Note_on_c, 13, 50, 0
15, 284672, Note_on_c, 13, 45, 92
15, 288768, Note_on_c, 13, 45, 0
15, 288768, Note_on_c, 13, 47, 92
15, 290816, Note_on_c, 13, 47, 0
15, 290816, Note_on_c, 13, 49, 92
15, 292864, Note_on_c, 13, 49, 0
15, 292864, Note_on_c, 13, 50, 92
15, 294912, Note_on_c, 13, 50, 0
15, 294912, Note_on_c, 13, 49, 92
15, 295936, Note_on_c, 13, 49, 0
15, 295936, Note_on_c, 13, 47, 92
15, 296960, Note_on_c, 13, 47, 0
15, 296960, Note_on_c, 13, 49, 92
15, 297984, Note_on_c, 13, 49, 0
15, 297984, Note_on_c, 13, 45, 92
15, 299008, Note_on_c, 13, 45, 0
15, 299008, Note_on_c, 13, 50, 92
15, 303104, Note_on_c, 13, 50, 0
15, 303104, Note_on_c, 13, 49, 93
15, 305152, Note_on_c, 13, 49, 0
15, 305152, Note_on_c, 13, 47, 95
15, 309248, Note_on_c, 13, 47, 0
15, 309248, Note_on_c, 13, 45, 97
15, 311296, Note_on_c, 13, 45, 0
15, 311296, Note_on_c, 13, 57, 98
15, 315392, Note_on_c, 13, 57, 0
15, 315392, Note_on_c, 13, 56, 101
15, 317440, Note_on_c, 13, 56, 0
15, 317440, Note_on_c, 13, 57, 102
15, 317952, Note_on_c, 13, 57, 0
15, 317952, Note_on_c, 13, 59, 102
15, 318464, Note_on_c, 13, 59, 0
15, 318464, Note_on_c, 13, 57, 103
15, 318976, Note_on_c, 13, 57, 0
15, 318976, Note_on_c, 13, 55, 103
15, 319488, Note_on_c, 13, 55, 0
15, 319488, Note_on_c, 13, 54, 103
15, 320000, Note_on_c, 13, 54, 0
15, 320000, Note_on_c, 13, 55, 103
15, 320512, Note_on_c, 13, 55, 0
15, 320512, Note_on_c, 13, 52, 104
15, 321024, Note_on_c, 13, 52, 0
15, 321024, Note_on_c, 13, 54, 104
15, 321536, Note_on_c, 13, 54, 0
15, 321536, Note_on_c, 13, 56, 104
15, 322048, Note_on_c, 13, 56, 0
15, 322048, Note_on_c, 13, 57, 105
15, 322560, Note_on_c, 13, 57, 0
15, 322560, Note_on_c, 13, 54, 105
15, 323072, Note_on_c, 13, 54, 0
15, 323072, Note_on_c, 13, 56, 105
15, 323584, Note_on_c, 13, 56, 0
15, 323584, Note_on_c, 13, 58, 106
15, 324096, Note_on_c, 13, 58, 0
15, 324096, Note_on_c, 13, 59, 106
15, 324608, Note_on_c, 13, 59, 0
15, 324608, Note_on_c, 13, 56, 107
15, 325120, Note_on_c, 13, 56, 0
15, 325120, Note_on_c, 13, 58, 107
15, 325632, Note_on_c, 13, 58, 0
15, 325632, Note_on_c, 13, 59, 107
15, 330752, Note_on_c, 13, 59, 0
15, 330752, Note_on_c, 13, 57, 112
15, 331264, Note_on_c, 13, 57, 0
15, 331264, Note_on_c, 13, 55, 112
15, 331776, Note_on_c, 13, 55, 0
15, 331776, Note_on_c, 13, 57, 113
15, 332288, Note_on_c, 13, 57, 0
15, 332288, Note_on_c, 13, 59, 113
15, 332800, Note_on_c, 13, 59, 0
15, 332800, Note_on_c, 13, 61, 114
15, 333312, Note_on_c, 13, 61, 0
15, 333312, Note_on_c, 13, 57, 114
15, 333824, Note_on_c, 13, 57, 0
15, 333824, Note_on_c, 13, 62, 115
15, 334848, Note_on_c, 13, 62, 0
15, 334848, Note_on_c, 13, 57, 116
15, 335872, Note_on_c, 13, 57, 0
15, 335872, Note_on_c, 13, 62, 117
15, 339968, Note_on_c, 13, 62, 0
15, 339968, Note_on_c, 13, 60, 121
15, 342016, Note_on_c, 13, 60, 0
15, 342016, Note_on_c, 13, 59, 123
15, 348160, Note_on_c, 13, 59, 0
15, 348160, Note_on_c, 13, 57, 127
15, 350208, Note_on_c, 13, 57, 0
15, 350208, Note_on_c, 13, 56, 127
15, 354304, Note_on_c, 13, 56, 0
15, 354304, Note_on_c, 13, 57, 127
15, 355328, Note_on_c, 13, 57, 0
15, 355328, Note_on_c, 13, 57, 127
15, 357376, Note_on_c, 13, 57, 0
15, 357376, Note_on_c, 13, 50, 127
15, 358400, Note_on_c, 13, 50, 0
15, 358400, Note_on_c, 13, 55, 127
15, 359424, Note_on_c, 13, 55, 0
15, 359424, Note_on_c, 13, 54, 127
15, 360448, Note_on_c, 13, 54, 0
15, 360448, Note_on_c, 13, 55, 127
15, 361472, Note_on_c, 13, 55, 0
15, 361472, Note_on_c, 13, 52, 127
15, 362496, Note_on_c, 13, 52, 0
15, 362496, Note_on_c, 13, 54, 127
15, 365568, Note_on_c, 13, 54, 0
15, 365568, Note_on_c, 13, 55, 127
15, 366592, Note_on_c, 13, 55, 0
15, 366592, Note_on_c, 13, 57, 127
15, 368640, Note_on_c, 13, 57, 0
15, 368640, Note_on_c, 13, 45, 127
15, 370483, Note_on_c, 13, 45, 0
15, 370688, Note_on_c, 13, 50, 127
15, 378880, Note_on_c, 13, 50, 0
15, 380623, Control_c, 13, 121, 127
15, 387072, End_track
16, 0, Start_track
16, 0, Title_t, "Organ"
16, 0, Program_c, 14, 19
16, 0, Control_c, 14, 121, 127
16, 0, Control_c, 14, 91, 127
16, 0, Control_c, 14, 10, 90
16, 0, Control_c, 14, 11, 90
16, 4096, Note_on_c, 14, 50, 36
16, 6144, Note_on_c, 14, 50, 0
16, 6144, Note_on_c, 14, 52, 37
16, 8192, Note_on_c, 14, 52, 0
16, 8192, Note_on_c, 14, 54, 39
16, 10240, Note_on_c, 14, 54, 0
16, 10240, Note_on_c, 14, 55, 40
16, 12288, Note_on_c, 14, 55, 0
16, 12288, Note_on_c, 14, 54, 41
16, 13312, Note_on_c, 14, 54, 0
16, 13312, Note_on_c, 14, 52, 42
16, 14336, Note_on_c, 14, 52, 0
16, 14336, Note_on_c, 14, 54, 42
16, 15360, Note_on_c, 14, 54, 0
16, 15360, Note_on_c, 14, 50, 43
16, 16384, Note_on_c, 14, 50, 0
16, 16384, Note_on_c, 14, 55, 44
16, 20480, Note_on_c, 14, 55, 0
16, 20480, Note_on_c, 14, 54, 46
16, 22528, Note_on_c, 14, 54, 0
16, 22528, Note_on_c, 14, 52, 48
16, 26624, Note_on_c, 14, 52, 0
16, 26624, Note_on_c, 14, 50, 50
16, 30720, Note_on_c, 14, 50, 0
16, 30720, Note_on_c, 14, 57, 53
16, 34816, Note_on_c, 14, 57, 0
16, 34816, Note_on_c, 14, 64, 55
16, 36864, Note_on_c, 14, 64, 0
16, 36864, Note_on_c, 14, 57, 52
16, 40960, Note_on_c, 14, 57, 0
16, 40960, Note_on_c, 14, 56, 45
16, 43008, Note_on_c, 14, 56, 0
16, 43008, Note_on_c, 14, 57, 41
16, 44032, Note_on_c, 14, 57, 0
16, 44032, Note_on_c, 14, 55, 37
16, 44544, Note_on_c, 14, 55, 0
16, 44544, Note_on_c, 14, 54, 37
16, 45056, Note_on_c, 14, 54, 0
16, 45056, Note_on_c, 14, 52, 38
16, 45568, Note_on_c, 14, 52, 0
16, 45568, Note_on_c, 14, 54, 38
16, 46080, Note_on_c, 14, 54, 0
16, 46080, Note_on_c, 14, 50, 39
16, 46592, Note_on_c, 14, 50, 0
16, 46592, Note_on_c, 14, 52, 40
16, 47104, Note_on_c, 14, 52, 0
16, 47104, Note_on_c, 14, 54, 40
16, 47616, Note_on_c, 14, 54, 0
16, 47616, Note_on_c, 14, 52, 41
16, 48128, Note_on_c, 14, 52, 0
16, 48128, Note_on_c, 14, 54, 41
16, 48640, Note_on_c, 14, 54, 0
16, 48640, Note_on_c, 14, 55, 42
16, 49152, Note_on_c, 14, 55, 0
16, 49152, Note_on_c, 14, 54, 42
16, 49664, Note_on_c, 14, 54, 0
16, 49664, Note_on_c, 14, 55, 43
16, 50176, Note_on_c, 14, 55, 0
16, 50176, Note_on_c, 14, 54, 44
16, 50688, Note_on_c, 14, 54, 0
16, 50688, Note_on_c, 14, 52, 44
16, 51200, Note_on_c, 14, 52, 0
16, 51200, Note_on_c, 14, 50, 45
16, 52224, Note_on_c, 14, 50, 0
16, 52224, Note_on_c, 14, 47, 46
16, 53248, Note_on_c, 14, 47, 0
16, 53248, Note_on_c, 14, 52, 47
16, 55296, Note_on_c, 14, 52, 0
16, 55296, Note_on_c, 14, 45, 49
16, 57344, Note_on_c, 14, 45, 0
16, 57344, Note_on_c, 14, 57, 52
16, 59392, Note_on_c, 14, 57, 0
16, 59392, Note_on_c, 14, 50, 54
16, 61440, Note_on_c, 14, 50, 0
16, 61440, Note_on_c, 14, 62, 56
16, 63488, Note_on_c, 14, 62, 0
16, 63488, Note_on_c, 14, 55, 58
16, 65536, Note_on_c, 14, 55, 0
16, 65536, Note_on_c, 14, 50, 57
16, 67584, Note_on_c, 14, 50, 0
16, 67584, Note_on_c, 14, 52, 52
16, 69632, Note_on_c, 14, 52, 0
16, 69632, Note_on_c, 14, 54, 42
16, 71680, Note_on_c, 14, 54, 0
16, 71680, Note_on_c, 14, 55, 44
16, 73728, Note_on_c, 14, 55, 0
16, 73728, Note_on_c, 14, 54, 46
16, 74752, Note_on_c, 14, 54, 0
16, 74752, Note_on_c, 14, 52, 47
16, 75776, Note_on_c, 14, 52, 0
16, 75776, Note_on_c, 14, 54, 48
16, 76800, Note_on_c, 14, 54, 0
16, 76800, Note_on_c, 14, 47, 49
16, 77824, Note_on_c, 14, 47, 0
16, 77824, Note_on_c, 14, 59, 51
16, 80896, Note_on_c, 14, 59, 0
16, 80896, Note_on_c, 14, 57, 54
16, 82944, Note_on_c, 14, 57, 0
16, 82944, Note_on_c, 14, 62, 56
16, 83968, Note_on_c, 14, 62, 0
16, 83968, Note_on_c, 14, 55, 57
16, 84992, Note_on_c, 14, 55, 0
16, 84992, Note_on_c, 14, 59, 58
16, 86016, Note_on_c, 14, 59, 0
16, 86016, Note_on_c, 14, 57, 59
16, 87040, Note_on_c, 14, 57, 0
16, 87040, Note_on_c, 14, 55, 60
16, 88064, Note_on_c, 14, 55, 0
16, 88064, Note_on_c, 14, 54, 61
16, 92672, Note_on_c, 14, 54, 0
16, 92672, Note_on_c, 14, 52, 66
16, 93184, Note_on_c, 14, 52, 0
16, 93184, Note_on_c, 14, 54, 67
16, 93696, Note_on_c, 14, 54, 0
16, 93696, Note_on_c, 14, 55, 68
16, 94208, Note_on_c, 14, 55, 0
16, 94208, Note_on_c, 14, 54, 68
16, 94720, Note_on_c, 14, 54, 0
16, 94720, Note_on_c, 14, 52, 69
16, 95232, Note_on_c, 14, 52, 0
16, 95232, Note_on_c, 14, 50, 69
16, 95744, Note_on_c, 14, 50, 0
16, 95744, Note_on_c, 14, 49, 70
16, 96256, Note_on_c, 14, 49, 0
16, 96256, Note_on_c, 14, 47, 70
16, 98304, Note_on_c, 14, 47, 0
16, 98304, Note_on_c, 14, 49, 72
16, 100352, Note_on_c, 14, 49, 0
16, 100352, Note_on_c, 14, 50, 75
16, 101376, Note_on_c, 14, 50, 0
16, 101376, Note_on_c, 14, 54, 76
16, 102400, Note_on_c, 14, 54, 0
16, 102400, Note_on_c, 14, 59, 77
16, 106496, Note_on_c, 14, 59, 0
16, 106496, Note_on_c, 14, 58, 76
16, 108544, Note_on_c, 14, 58, 0
16, 108544, Note_on_c, 14, 59, 75
16, 109056, Note_on_c, 14, 59, 0
16, 109056, Note_on_c, 14, 61, 75
16, 109568, Note_on_c, 14, 61, 0
16, 109568, Note_on_c, 14, 57, 74
16, 110080, Note_on_c, 14, 57, 0
16, 110080, Note_on_c, 14, 59, 74
16, 110592, Note_on_c, 14, 59, 0
16, 110592, Note_on_c, 14, 61, 74
16, 111104, Note_on_c, 14, 61, 0
16, 111104, Note_on_c, 14, 62, 73
16, 111616, Note_on_c, 14, 62, 0
16, 111616, Note_on_c, 14, 59, 73
16, 112128, Note_on_c, 14, 59, 0
16, 112128, Note_on_c, 14, 61, 73
16, 112640, Note_on_c, 14, 61, 0
16, 112640, Note_on_c, 14, 62, 72
16, 113152, Note_on_c, 14, 62, 0
16, 113152, Note_on_c, 14, 61, 72
16, 113664, Note_on_c, 14, 61, 0
16, 113664, Note_on_c, 14, 62, 72
16, 114176, Note_on_c, 14, 62, 0
16, 114176, Note_on_c, 14, 64, 71
16, 114688, Note_on_c, 14, 64, 0
16, 114688, Note_on_c, 14, 62, 71
16, 115200, Note_on_c, 14, 62, 0
16, 115200, Note_on_c, 14, 64, 71
16, 115712, Note_on_c, 14, 64, 0
16, 115712, Note_on_c, 14, 62, 70
16, 116224, Note_on_c, 14, 62, 0
16, 116224, Note_on_c, 14, 61, 70
16, 116736, Note_on_c, 14, 61, 0
16, 116736, Note_on_c, 14, 59, 70
16, 121856, Note_on_c, 14, 59, 0
16, 121856, Note_on_c, 14, 61, 76
16, 122880, Note_on_c, 14, 61, 0
16, 122880, Note_on_c, 14, 62, 78
16, 124928, Note_on_c, 14, 62, 0
16, 124928, Note_on_c, 14, 57, 83
16, 126976, Note_on_c, 14, 57, 0
16, 126976, Note_on_c, 14, 55, 87
16, 128000, Note_on_c, 14, 55, 0
16, 128000, Note_on_c, 14, 54, 90
16, 129024, Note_on_c, 14, 54, 0
16, 129024, Note_on_c, 14, 52, 92
16, 131072, Note_on_c, 14, 52, 0
16, 131072, Note_on_c, 14, 57, 91
16, 133120, Note_on_c, 14, 57, 0
16, 133120, Note_on_c, 14, 50, 88
16, 135168, Note_on_c, 14, 50, 0
16, 135168, Note_on_c, 14, 52, 85
16, 137216, Note_on_c, 14, 52, 0
16, 137216, Note_on_c, 14, 45, 83
16, 143360, Note_on_c, 14, 45, 0
16, 143360, Note_on_c, 14, 46, 77
16, 143872, Note_on_c, 14, 46, 0
16, 143872, Note_on_c, 14, 47, 77
16, 144384, Note_on_c, 14, 47, 0
16, 144384, Note_on_c, 14, 44, 77
16, 144896, Note_on_c, 14, 44, 0
16, 144896, Note_on_c, 14, 46, 77
16, 145408, Note_on_c, 14, 46, 0
16, 145408, Note_on_c, 14, 47, 77
16, 145920, Note_on_c, 14, 47, 0
16, 145920, Note_on_c, 14, 49, 78
16, 146432, Note_on_c, 14, 49, 0
16, 146432, Note_on_c, 14, 46, 78
16, 146944, Note_on_c, 14, 46, 0
16, 146944, Note_on_c, 14, 47, 78
16, 147456, Note_on_c, 14, 47, 0
16, 147456, Note_on_c, 14, 49, 78
16, 147968, Note_on_c, 14, 49, 0
16, 147968, Note_on_c, 14, 50, 78
16, 148480, Note_on_c, 14, 50, 0
16, 148480, Note_on_c, 14, 47, 78
16, 148992, Note_on_c, 14, 47, 0
16, 148992, Note_on_c, 14, 49, 78
16, 149504, Note_on_c, 14, 49, 0
16, 149504, Note_on_c, 14, 50, 79
16, 150016, Note_on_c, 14, 50, 0
16, 150016, Note_on_c, 14, 49, 79
16, 150528, Note_on_c, 14, 49, 0
16, 150528, Note_on_c, 14, 50, 78
16, 151040, Note_on_c, 14, 50, 0
16, 151040, Note_on_c, 14, 52, 77
16, 151552, Note_on_c, 14, 52, 0
16, 151552, Note_on_c, 14, 48, 76
16, 152064, Note_on_c, 14, 48, 0
16, 152064, Note_on_c, 14, 47, 75
16, 152576, Note_on_c, 14, 47, 0
16, 152576, Note_on_c, 14, 48, 75
16, 153088, Note_on_c, 14, 48, 0
16, 153088, Note_on_c, 14, 50, 74
16, 153600, Note_on_c, 14, 50, 0
16, 153600, Note_on_c, 14, 47, 73
16, 154112, Note_on_c, 14, 47, 0
16, 154112, Note_on_c, 14, 49, 72
16, 154624, Note_on_c, 14, 49, 0
16, 154624, Note_on_c, 14, 51, 72
16, 155136, Note_on_c, 14, 51, 0
16, 155136, Note_on_c, 14, 47, 71
16, 155648, Note_on_c, 14, 47, 0
16, 155648, Note_on_c, 14, 52, 70
16, 157696, Note_on_c, 14, 52, 0
16, 157696, Note_on_c, 14, 45, 67
16, 159744, Note_on_c, 14, 45, 0
16, 159744, Note_on_c, 14, 47, 66
16, 161792, Note_on_c, 14, 47, 0
16, 161792, Note_on_c, 14, 40, 67
16, 163840, Note_on_c, 14, 40, 0
16, 163840, Note_on_c, 14, 67, 67
16, 167936, Note_on_c, 14, 67, 0
16, 167936, Note_on_c, 14, 66, 69
16, 169984, Note_on_c, 14, 66, 0
16, 169984, Note_on_c, 14, 67, 69
16, 171008, Note_on_c, 14, 67, 0
16, 171008, Note_on_c, 14, 66, 70
16, 171520, Note_on_c, 14, 66, 0
16, 171520, Note_on_c, 14, 64, 70
16, 172032, Note_on_c, 14, 64, 0
16, 172032, Note_on_c, 14, 59, 70
16, 176128, Note_on_c, 14, 59, 0
16, 176128, Note_on_c, 14, 58, 71
16, 178176, Note_on_c, 14, 58, 0
16, 178176, Note_on_c, 14, 59, 72
16, 179200, Note_on_c, 14, 59, 0
16, 179200, Note_on_c, 14, 57, 72
16, 179712, Note_on_c, 14, 57, 0
16, 179712, Note_on_c, 14, 55, 73
16, 180224, Note_on_c, 14, 55, 0
16, 180224, Note_on_c, 14, 50, 73
16, 184320, Note_on_c, 14, 50, 0
16, 184320, Note_on_c, 14, 49, 74
16, 186368, Note_on_c, 14, 49, 0
16, 186368, Note_on_c, 14, 50, 75
16, 187392, Note_on_c, 14, 50, 0
16, 187392, Note_on_c, 14, 49, 75
16, 187904, Note_on_c, 14, 49, 0
16, 187904, Note_on_c, 14, 47, 75
16, 188416, Note_on_c, 14, 47, 0
16, 188416, Note_on_c, 14, 45, 76
16, 188928, Note_on_c, 14, 45, 0
16, 188928, Note_on_c, 14, 47, 76
16, 189440, Note_on_c, 14, 47, 0
16, 189440, Note_on_c, 14, 44, 76
16, 189952, Note_on_c, 14, 44, 0
16, 189952, Note_on_c, 14, 45, 77
16, 190464, Note_on_c, 14, 45, 0
16, 190464, Note_on_c, 14, 47, 77
16, 190976, Note_on_c, 14, 47, 0
16, 190976, Note_on_c, 14, 45, 78
16, 191488, Note_on_c, 14, 45, 0
16, 191488, Note_on_c, 14, 47, 78
16, 192000, Note_on_c, 14, 47, 0
16, 192000, Note_on_c, 14, 49, 78
16, 192512, Note_on_c, 14, 49, 0
16, 192512, Note_on_c, 14, 47, 79
16, 193024, Note_on_c, 14, 47, 0
16, 193024, Note_on_c, 14, 50, 79
16, 193536, Note_on_c, 14, 50, 0
16, 193536, Note_on_c, 14, 49, 80
16, 194048, Note_on_c, 14, 49, 0
16, 194048, Note_on_c, 14, 47, 80
16, 194560, Note_on_c, 14, 47, 0
16, 194560, Note_on_c, 14, 45, 80
16, 195584, Note_on_c, 14, 45, 0
16, 195584, Note_on_c, 14, 47, 81
16, 196608, Note_on_c, 14, 47, 0
16, 196608, Note_on_c, 14, 49, 82
16, 198656, Note_on_c, 14, 49, 0
16, 198656, Note_on_c, 14, 42, 83
16, 199680, Note_on_c, 14, 42, 0
16, 199680, Note_on_c, 14, 54, 84
16, 200704, Note_on_c, 14, 54, 0
16, 200704, Note_on_c, 14, 59, 85
16, 203776, Note_on_c, 14, 59, 0
16, 203776, Note_on_c, 14, 57, 87
16, 204800, Note_on_c, 14, 57, 0
16, 204800, Note_on_c, 14, 55, 88
16, 205824, Note_on_c, 14, 55, 0
16, 205824, Note_on_c, 14, 54, 89
16, 206848, Note_on_c, 14, 54, 0
16, 206848, Note_on_c, 14, 52, 90
16, 208896, Note_on_c, 14, 52, 0
16, 208896, Note_on_c, 14, 57, 91
16, 210944, Note_on_c, 14, 57, 0
16, 210944, Note_on_c, 14, 50, 93
16, 211968, Note_on_c, 14, 50, 0
16, 211968, Note_on_c, 14, 62, 94
16, 212992, Note_on_c, 14, 62, 0
16, 212992, Note_on_c, 14, 61, 95
16, 214016, Note_on_c, 14, 61, 0
16, 214016, Note_on_c, 14, 59, 98
16, 215040, Note_on_c, 14, 59, 0
16, 215040, Note_on_c, 14, 61, 98
16, 216064, Note_on_c, 14, 61, 0
16, 216064, Note_on_c, 14, 57, 98
16, 217088, Note_on_c, 14, 57, 0
16, 217088, Note_on_c, 14, 62, 98
16, 221184, Note_on_c, 14, 62, 0
16, 221184, Note_on_c, 14, 60, 98
16, 225280, Note_on_c, 14, 60, 0
16, 225280, Note_on_c, 14, 59, 103
16, 227328, Note_on_c, 14, 59, 0
16, 227328, Note_on_c, 14, 50, 104
16, 227328, Note_on_c, 14, 57, 104
16, 231424, Note_on_c, 14, 50, 0
16, 231424, Note_on_c, 14, 57, 0
16, 231424, Note_on_c, 14, 52, 101
16, 233472, Note_on_c, 14, 52, 0
16, 233472, Note_on_c, 14, 54, 100
16, 235520, Note_on_c, 14, 54, 0
16, 235520, Note_on_c, 14, 55, 99
16, 237568, Note_on_c, 14, 55, 0
16, 237568, Note_on_c, 14, 54, 98
16, 238592, Note_on_c, 14, 54, 0
16, 238592, Note_on_c, 14, 52, 98
16, 239616, Note_on_c, 14, 52, 0
16, 239616, Note_on_c, 14, 54, 97
16, 240640, Note_on_c, 14, 54, 0
16, 240640, Note_on_c, 14, 50, 97
16, 241664, Note_on_c, 14, 50, 0
16, 241664, Note_on_c, 14, 55, 96
16, 245760, Note_on_c, 14, 55, 0
16, 245760, Note_on_c, 14, 54, 97
16, 247808, Note_on_c, 14, 54, 0
16, 247808, Note_on_c, 14, 52, 99
16, 249856, Note_on_c, 14, 52, 0
16, 249856, Note_on_c, 14, 57, 101
16, 251904, Note_on_c, 14, 57, 0
16, 251904, Note_on_c, 14, 50, 103
16, 252928, Note_on_c, 14, 50, 0
16, 252928, Note_on_c, 14, 54, 104
16, 253952, Note_on_c, 14, 54, 0
16, 253952, Note_on_c, 14, 59, 103
16, 257024, Note_on_c, 14, 59, 0
16, 257024, Note_on_c, 14, 61, 103
16, 258048, Note_on_c, 14, 61, 0
16, 258048, Note_on_c, 14, 62, 103
16, 259072, Note_on_c, 14, 62, 0
16, 259072, Note_on_c, 14, 59, 103
16, 260096, Note_on_c, 14, 59, 0
16, 260096, Note_on_c, 14, 55, 103
16, 261120, Note_on_c, 14, 55, 0
16, 261120, Note_on_c, 14, 52, 103
16, 262144, Note_on_c, 14, 52, 0
16, 262144, Note_on_c, 14, 57, 103
16, 264192, Note_on_c, 14, 57, 0
16, 264192, Note_on_c, 14, 50, 103
16, 268288, Note_on_c, 14, 50, 0
16, 268288, Note_on_c, 14, 57, 103
16, 270336, Note_on_c, 14, 57, 0
16, 270336, Note_on_c, 14, 59, 102
16, 272384, Note_on_c, 14, 59, 0
16, 272384, Note_on_c, 14, 55, 102
16, 274432, Note_on_c, 14, 55, 0
16, 274432, Note_on_c, 14, 57, 100
16, 276480, Note_on_c, 14, 57, 0
16, 276480, Note_on_c, 14, 59, 98
16, 278528, Note_on_c, 14, 59, 0
16, 278528, Note_on_c, 14, 61, 96
16, 280576, Note_on_c, 14, 61, 0
16, 280576, Note_on_c, 14, 62, 95
16, 282624, Note_on_c, 14, 62, 0
16, 282624, Note_on_c, 14, 61, 92
16, 283648, Note_on_c, 14, 61, 0
16, 283648, Note_on_c, 14, 59, 92
16, 284672, Note_on_c, 14, 59, 0
16, 284672, Note_on_c, 14, 45, 92
16, 288768, Note_on_c, 14, 45, 0
16, 288768, Note_on_c, 14, 47, 92
16, 290816, Note_on_c, 14, 47, 0
16, 290816, Note_on_c, 14, 49, 92
16, 292864, Note_on_c, 14, 49, 0
16, 292864, Note_on_c, 14, 50, 92
16, 294912, Note_on_c, 14, 50, 0
16, 294912, Note_on_c, 14, 49, 92
16, 295936, Note_on_c, 14, 49, 0
16, 295936, Note_on_c, 14, 47, 92
16, 296960, Note_on_c, 14, 47, 0
16, 296960, Note_on_c, 14, 49, 92
16, 297984, Note_on_c, 14, 49, 0
16, 297984, Note_on_c, 14, 45, 92
16, 299008, Note_on_c, 14, 45, 0
16, 299008, Note_on_c, 14, 50, 92
16, 303104, Note_on_c, 14, 50, 0
16, 303104, Note_on_c, 14, 49, 93
16, 305152, Note_on_c, 14, 49, 0
16, 305152, Note_on_c, 14, 47, 95
16, 305152, Note_on_c, 14, 52, 95
16, 309248, Note_on_c, 14, 47, 0
16, 309248, Note_on_c, 14, 52, 0
16, 309248, Note_on_c, 14, 45, 97
16, 311296, Note_on_c, 14, 45, 0
16, 311296, Note_on_c, 14, 57, 98
16, 315392, Note_on_c, 14, 57, 0
16, 315392, Note_on_c, 14, 56, 101
16, 317440, Note_on_c, 14, 56, 0
16, 317440, Note_on_c, 14, 57, 102
16, 317952, Note_on_c, 14, 57, 0
16, 317952, Note_on_c, 14, 59, 102
16, 318464, Note_on_c, 14, 59, 0
16, 318464, Note_on_c, 14, 57, 103
16, 318976, Note_on_c, 14, 57, 0
16, 318976, Note_on_c, 14, 55, 103
16, 319488, Note_on_c, 14, 55, 0
16, 319488, Note_on_c, 14, 54, 103
16, 320000, Note_on_c, 14, 54, 0
16, 320000, Note_on_c, 14, 55, 103
16, 320512, Note_on_c, 14, 55, 0
16, 320512, Note_on_c, 14, 52, 104
16, 321024, Note_on_c, 14, 52, 0
16, 321024, Note_on_c, 14, 54, 104
16, 321536, Note_on_c, 14, 54, 0
16, 321536, Note_on_c, 14, 56, 104
16, 322048, Note_on_c, 14, 56, 0
16, 322048, Note_on_c, 14, 57, 105
16, 322560, Note_on_c, 14, 57, 0
16, 322560, Note_on_c, 14, 54, 105
16, 323072, Note_on_c, 14, 54, 0
16, 323072, Note_on_c, 14, 56, 105
16, 323584, Note_on_c, 14, 56, 0
16, 323584, Note_on_c, 14, 58, 106
16, 324096, Note_on_c, 14, 58, 0
16, 324096, Note_on_c, 14, 59, 106
16, 324608, Note_on_c, 14, 59, 0
16, 324608, Note_on_c, 14, 56, 107
16, 325120, Note_on_c, 14, 56, 0
16, 325120, Note_on_c, 14, 58, 107
16, 325632, Note_on_c, 14, 58, 0
16, 325632, Note_on_c, 14, 59, 107
16, 330752, Note_on_c, 14, 59, 0
16, 330752, Note_on_c, 14, 57, 112
16, 331264, Note_on_c, 14, 57, 0
16, 331264, Note_on_c, 14, 55, 112
16, 331776, Note_on_c, 14, 55, 0
16, 331776, Note_on_c, 14, 57, 113
16, 332288, Note_on_c, 14, 57, 0
16, 332288, Note_on_c, 14, 59, 113
16, 332800, Note_on_c, 14, 59, 0
16, 332800, Note_on_c, 14, 61, 114
16, 333312, Note_on_c, 14, 61, 0
16, 333312, Note_on_c, 14, 57, 114
16, 333824, Note_on_c, 14, 57, 0
16, 333824, Note_on_c, 14, 62, 115
16, 334848, Note_on_c, 14, 62, 0
16, 334848, Note_on_c, 14, 57, 116
16, 335872, Note_on_c, 14, 57, 0
16, 335872, Note_on_c, 14, 62, 117
16, 339968, Note_on_c, 14, 62, 0
16, 339968, Note_on_c, 14, 60, 121
16, 342016, Note_on_c, 14, 60, 0
16, 342016, Note_on_c, 14, 59, 123
16, 348160, Note_on_c, 14, 59, 0
16, 348160, Note_on_c, 14, 57, 127
16, 350208, Note_on_c, 14, 57, 0
16, 350208, Note_on_c, 14, 56, 127
16, 354304, Note_on_c, 14, 56, 0
16, 354304, Note_on_c, 14, 57, 127
16, 357376, Note_on_c, 14, 57, 0
16, 357376, Note_on_c, 14, 50, 127
16, 358400, Note_on_c, 14, 50, 0
16, 358400, Note_on_c, 14, 55, 127
16, 359424, Note_on_c, 14, 55, 0
16, 359424, Note_on_c, 14, 54, 127
16, 360448, Note_on_c, 14, 54, 0
16, 360448, Note_on_c, 14, 55, 127
16, 361472, Note_on_c, 14, 55, 0
16, 361472, Note_on_c, 14, 52, 127
16, 362496, Note_on_c, 14, 52, 0
16, 362496, Note_on_c, 14, 54, 127
16, 365568, Note_on_c, 14, 54, 0
16, 365568, Note_on_c, 14, 55, 127
16, 366592, Note_on_c, 14, 55, 0
16, 366592, Note_on_c, 14, 57, 127
16, 368640, Note_on_c, 14, 57, 0
16, 368640, Note_on_c, 14, 45, 127
16, 370483, Note_on_c, 14, 45, 0
16, 370688, Note_on_c, 14, 38, 127
16, 378880, Note_on_c, 14, 38, 0
16, 380623, Control_c, 14, 121, 127
16, 387072, End_track
17, 0, Start_track
17, 0, Title_t, "Flute I"
17, 0, Program_c, 2, 73
17, 0, Control_c, 2, 121, 127
17, 0, Control_c, 2, 91, 127
17, 0, Control_c, 2, 1, 20
17, 0, Control_c, 2, 10, 30
17, 0, Control_c, 2, 11, 127
17, 20480, Note_on_c, 2, 69, 46
17, 22528, Note_on_c, 2, 69, 0
17, 22528, Note_on_c, 2, 71, 48
17, 24576, Note_on_c, 2, 71, 0
17, 24576, Note_on_c, 2, 73, 49
17, 26624, Note_on_c, 2, 73, 0
17, 26624, Note_on_c, 2, 74, 50
17, 28672, Note_on_c, 2, 74, 0
17, 28672, Note_on_c, 2, 73, 52
17, 29696, Note_on_c, 2, 73, 0
17, 29696, Note_on_c, 2, 71, 52
17, 30720, Note_on_c, 2, 71, 0
17, 30720, Note_on_c, 2, 73, 53
17, 31744, Note_on_c, 2, 73, 0
17, 31744, Note_on_c, 2, 69, 53
17, 32768, Note_on_c, 2, 69, 0
17, 32768, Note_on_c, 2, 74, 54
17, 36864, Note_on_c, 2, 74, 0
17, 36864, Note_on_c, 2, 73, 52
17, 38912, Note_on_c, 2, 73, 0
17, 38912, Note_on_c, 2, 71, 49
17, 43008, Note_on_c, 2, 71, 0
17, 43008, Note_on_c, 2, 69, 41
17, 47104, Note_on_c, 2, 69, 0
17, 53248, Note_on_c, 2, 74, 47
17, 57344, Note_on_c, 2, 74, 0
17, 57344, Note_on_c, 2, 73, 52
17, 59392, Note_on_c, 2, 73, 0
17, 59392, Note_on_c, 2, 74, 54
17, 60416, Note_on_c, 2, 74, 0
17, 60416, Note_on_c, 2, 73, 55
17, 60928, Note_on_c, 2, 73, 0
17, 60928, Note_on_c, 2, 71, 56
17, 61440, Note_on_c, 2, 71, 0
17, 61440, Note_on_c, 2, 69, 56
17, 61952, Note_on_c, 2, 69, 0
17, 61952, Note_on_c, 2, 71, 57
17, 62464, Note_on_c, 2, 71, 0
17, 62464, Note_on_c, 2, 67, 57
17, 62976, Note_on_c, 2, 67, 0
17, 62976, Note_on_c, 2, 69, 58
17, 63488, Note_on_c, 2, 69, 0
17, 63488, Note_on_c, 2, 71, 58
17, 64000, Note_on_c, 2, 71, 0
17, 64000, Note_on_c, 2, 69, 59
17, 64512, Note_on_c, 2, 69, 0
17, 64512, Note_on_c, 2, 71, 60
17, 65024, Note_on_c, 2, 71, 0
17, 65024, Note_on_c, 2, 72, 59
17, 65536, Note_on_c, 2, 72, 0
17, 65536, Note_on_c, 2, 71, 57
17, 66048, Note_on_c, 2, 71, 0
17, 66048, Note_on_c, 2, 72, 56
17, 66560, Note_on_c, 2, 72, 0
17, 66560, Note_on_c, 2, 71, 54
17, 67072, Note_on_c, 2, 71, 0
17, 67072, Note_on_c, 2, 69, 53
17, 67584, Note_on_c, 2, 69, 0
17, 67584, Note_on_c, 2, 67, 52
17, 68608, Note_on_c, 2, 67, 0
17, 68608, Note_on_c, 2, 64, 49
17, 69632, Note_on_c, 2, 64, 0
17, 69632, Note_on_c, 2, 69, 42
17, 71680, Note_on_c, 2, 69, 0
17, 71680, Note_on_c, 2, 62, 44
17, 73728, Note_on_c, 2, 62, 0
17, 81920, Note_on_c, 2, 69, 55
17, 83968, Note_on_c, 2, 69, 0
17, 83968, Note_on_c, 2, 71, 57
17, 86016, Note_on_c, 2, 71, 0
17, 86016, Note_on_c, 2, 73, 59
17, 88064, Note_on_c, 2, 73, 0
17, 88064, Note_on_c, 2, 74, 61
17, 90112, Note_on_c, 2, 74, 0
17, 90112, Note_on_c, 2, 73, 64
17, 91136, Note_on_c, 2, 73, 0
17, 91136, Note_on_c, 2, 71, 65
17, 92160, Note_on_c, 2, 71, 0
17, 92160, Note_on_c, 2, 73, 66
17, 93184, Note_on_c, 2, 73, 0
17, 93184, Note_on_c, 2, 66, 67
17, 94208, Note_on_c, 2, 66, 0
17, 94208, Note_on_c, 2, 78, 68
17, 97280, Note_on_c, 2, 78, 0
17, 97280, Note_on_c, 2, 71, 71
17, 98304, Note_on_c, 2, 71, 0
17, 98304, Note_on_c, 2, 76, 72
17, 101376, Note_on_c, 2, 76, 0
17, 101376, Note_on_c, 2, 74, 76
17, 103424, Note_on_c, 2, 74, 0
17, 103424, Note_on_c, 2, 79, 78
17, 104448, Note_on_c, 2, 79, 0
17, 104448, Note_on_c, 2, 73, 78
17, 105472, Note_on_c, 2, 73, 0
17, 105472, Note_on_c, 2, 76, 77
17, 106496, Note_on_c, 2, 76, 0
17, 106496, Note_on_c, 2, 74, 76
17, 107520, Note_on_c, 2, 74, 0
17, 107520, Note_on_c, 2, 73, 76
17, 108544, Note_on_c, 2, 73, 0
17, 108544, Note_on_c, 2, 71, 75
17, 112640, Note_on_c, 2, 71, 0
17, 120832, Note_on_c, 2, 74, 74
17, 124928, Note_on_c, 2, 74, 0
17, 124928, Note_on_c, 2, 76, 83
17, 126976, Note_on_c, 2, 76, 0
17, 126976, Note_on_c, 2, 78, 87
17, 129024, Note_on_c, 2, 78, 0
17, 129024, Note_on_c, 2, 79, 92
17, 131072, Note_on_c, 2, 79, 0
17, 131072, Note_on_c, 2, 78, 91
17, 132096, Note_on_c, 2, 78, 0
17, 132096, Note_on_c, 2, 76, 90
17, 133120, Note_on_c, 2, 76, 0
17, 133120, Note_on_c, 2, 78, 88
17, 134144, Note_on_c, 2, 78, 0
17, 134144, Note_on_c, 2, 74, 87
17, 135168, Note_on_c, 2, 74, 0
17, 135168, Note_on_c, 2, 79, 85
17, 139264, Note_on_c, 2, 79, 0
17, 139264, Note_on_c, 2, 78, 80
17, 140288, Note_on_c, 2, 78, 0
17, 140288, Note_on_c, 2, 78, 78
17, 141312, Note_on_c, 2, 78, 0
17, 141312, Note_on_c, 2, 76, 80
17, 145408, Note_on_c, 2, 76, 0
17, 145408, Note_on_c, 2, 74, 77
17, 149504, Note_on_c, 2, 74, 0
17, 155648, Note_on_c, 2, 76, 70
17, 159744, Note_on_c, 2, 76, 0
17, 159744, Note_on_c, 2, 75, 66
17, 161792, Note_on_c, 2, 75, 0
17, 161792, Note_on_c, 2, 76, 67
17, 162816, Note_on_c, 2, 76, 0
17, 162816, Note_on_c, 2, 74, 67
17, 163328, Note_on_c, 2, 74, 0
17, 163328, Note_on_c, 2, 72, 67
17, 163840, Note_on_c, 2, 72, 0
17, 163840, Note_on_c, 2, 71, 67
17, 164352, Note_on_c, 2, 71, 0
17, 164352, Note_on_c, 2, 72, 68
17, 164864, Note_on_c, 2, 72, 0
17, 164864, Note_on_c, 2, 69, 68
17, 165376, Note_on_c, 2, 69, 0
17, 165376, Note_on_c, 2, 71, 68
17, 165888, Note_on_c, 2, 71, 0
17, 165888, Note_on_c, 2, 72, 68
17, 166400, Note_on_c, 2, 72, 0
17, 166400, Note_on_c, 2, 71, 68
17, 166912, Note_on_c, 2, 71, 0
17, 166912, Note_on_c, 2, 72, 68
17, 167424, Note_on_c, 2, 72, 0
17, 167424, Note_on_c, 2, 74, 69
17, 167936, Note_on_c, 2, 74, 0
17, 167936, Note_on_c, 2, 72, 69
17, 168448, Note_on_c, 2, 72, 0
17, 168448, Note_on_c, 2, 76, 69
17, 168960, Note_on_c, 2, 76, 0
17, 168960, Note_on_c, 2, 74, 69
17, 169472, Note_on_c, 2, 74, 0
17, 169472, Note_on_c, 2, 72, 69
17, 169984, Note_on_c, 2, 72, 0
17, 169984, Note_on_c, 2, 71, 69
17, 171008, Note_on_c, 2, 71, 0
17, 171008, Note_on_c, 2, 73, 70
17, 172032, Note_on_c, 2, 73, 0
17, 172032, Note_on_c, 2, 74, 70
17, 174080, Note_on_c, 2, 74, 0
17, 174080, Note_on_c, 2, 67, 71
17, 175104, Note_on_c, 2, 67, 0
17, 175104, Note_on_c, 2, 64, 71
17, 176128, Note_on_c, 2, 64, 0
17, 176128, Note_on_c, 2, 73, 71
17, 180224, Note_on_c, 2, 73, 0
17, 180224, Note_on_c, 2, 71, 73
17, 181248, Note_on_c, 2, 71, 0
17, 182272, Note_on_c, 2, 76, 74
17, 184320, Note_on_c, 2, 76, 0
17, 184320, Note_on_c, 2, 69, 74
17, 188416, Note_on_c, 2, 69, 0
17, 188416, Note_on_c, 2, 78, 76
17, 192512, Note_on_c, 2, 78, 0
17, 192512, Note_on_c, 2, 77, 79
17, 194560, Note_on_c, 2, 77, 0
17, 194560, Note_on_c, 2, 78, 80
17, 195584, Note_on_c, 2, 78, 0
17, 195584, Note_on_c, 2, 76, 81
17, 196096, Note_on_c, 2, 76, 0
17, 196096, Note_on_c, 2, 74, 82
17, 196608, Note_on_c, 2, 74, 0
17, 196608, Note_on_c, 2, 73, 82
17, 197120, Note_on_c, 2, 73, 0
17, 197120, Note_on_c, 2, 74, 82
17, 197632, Note_on_c, 2, 74, 0
17, 197632, Note_on_c, 2, 71, 83
17, 198144, Note_on_c, 2, 71, 0
17, 198144, Note_on_c, 2, 73, 83
17, 198656, Note_on_c, 2, 73, 0
17, 198656, Note_on_c, 2, 74, 83
17, 199168, Note_on_c, 2, 74, 0
17, 199168, Note_on_c, 2, 73, 84
17, 199680, Note_on_c, 2, 73, 0
17, 199680, Note_on_c, 2, 74, 84
17, 200192, Note_on_c, 2, 74, 0
17, 200192, Note_on_c, 2, 76, 85
17, 200704, Note_on_c, 2, 76, 0
17, 200704, Note_on_c, 2, 74, 85
17, 201216, Note_on_c, 2, 74, 0
17, 201216, Note_on_c, 2, 78, 85
17, 201728, Note_on_c, 2, 78, 0
17, 201728, Note_on_c, 2, 76, 86
17, 202240, Note_on_c, 2, 76, 0
17, 202240, Note_on_c, 2, 74, 86
17, 202752, Note_on_c, 2, 74, 0
17, 202752, Note_on_c, 2, 73, 87
17, 204800, Note_on_c, 2, 73, 0
17, 204800, Note_on_c, 2, 78, 88
17, 206848, Note_on_c, 2, 78, 0
17, 206848, Note_on_c, 2, 71, 90
17, 208896, Note_on_c, 2, 71, 0
17, 212992, Note_on_c, 2, 74, 95
17, 215040, Note_on_c, 2, 74, 0
17, 215040, Note_on_c, 2, 76, 98
17, 217088, Note_on_c, 2, 76, 0
17, 217088, Note_on_c, 2, 78, 98
17, 219136, Note_on_c, 2, 78, 0
17, 219136, Note_on_c, 2, 79, 98
17, 221184, Note_on_c, 2, 79, 0
17, 221184, Note_on_c, 2, 78, 98
17, 222208, Note_on_c, 2, 78, 0
17, 222208, Note_on_c, 2, 76, 98
17, 223232, Note_on_c, 2, 76, 0
17, 223232, Note_on_c, 2, 78, 98
17, 224256, Note_on_c, 2, 78, 0
17, 224256, Note_on_c, 2, 74, 100
17, 225280, Note_on_c, 2, 74, 0
17, 225280, Note_on_c, 2, 79, 103
17, 229376, Note_on_c, 2, 79, 0
17, 229376, Note_on_c, 2, 78, 103
17, 231424, Note_on_c, 2, 78, 0
17, 231424, Note_on_c, 2, 76, 101
17, 233472, Note_on_c, 2, 76, 0
17, 233472, Note_on_c, 2, 74, 100
17, 236544, Note_on_c, 2, 74, 0
17, 236544, Note_on_c, 2, 71, 99
17, 238592, Note_on_c, 2, 71, 0
17, 238592, Note_on_c, 2, 71, 98
17, 239616, Note_on_c, 2, 71, 0
17, 239616, Note_on_c, 2, 69, 97
17, 241664, Note_on_c, 2, 69, 0
17, 241664, Note_on_c, 2, 71, 96
17, 243712, Note_on_c, 2, 71, 0
17, 243712, Note_on_c, 2, 64, 94
17, 244736, Note_on_c, 2, 64, 0
17, 245760, Note_on_c, 2, 69, 97
17, 247808, Note_on_c, 2, 69, 0
17, 247808, Note_on_c, 2, 71, 99
17, 249856, Note_on_c, 2, 71, 0
17, 249856, Note_on_c, 2, 73, 101
17, 251904, Note_on_c, 2, 73, 0
17, 251904, Note_on_c, 2, 74, 103
17, 253952, Note_on_c, 2, 74, 0
17, 253952, Note_on_c, 2, 73, 103
17, 254976, Note_on_c, 2, 73, 0
17, 254976, Note_on_c, 2, 71, 103
17, 256000, Note_on_c, 2, 71, 0
17, 256000, Note_on_c, 2, 73, 103
17, 257024, Note_on_c, 2, 73, 0
17, 257024, Note_on_c, 2, 69, 103
17, 258048, Note_on_c, 2, 69, 0
17, 258048, Note_on_c, 2, 74, 103
17, 262144, Note_on_c, 2, 74, 0
17, 262144, Note_on_c, 2, 73, 103
17, 264192, Note_on_c, 2, 73, 0
17, 264192, Note_on_c, 2, 71, 103
17, 268288, Note_on_c, 2, 71, 0
17, 268288, Note_on_c, 2, 69, 103
17, 272384, Note_on_c, 2, 69, 0
17, 280576, Note_on_c, 2, 74, 95
17, 284672, Note_on_c, 2, 74, 0
17, 284672, Note_on_c, 2, 76, 92
17, 286720, Note_on_c, 2, 76, 0
17, 286720, Note_on_c, 2, 78, 92
17, 288768, Note_on_c, 2, 78, 0
17, 288768, Note_on_c, 2, 79, 92
17, 290816, Note_on_c, 2, 79, 0
17, 290816, Note_on_c, 2, 78, 92
17, 291840, Note_on_c, 2, 78, 0
17, 291840, Note_on_c, 2, 76, 92
17, 292864, Note_on_c, 2, 76, 0
17, 292864, Note_on_c, 2, 78, 92
17, 293888, Note_on_c, 2, 78, 0
17, 293888, Note_on_c, 2, 74, 92
17, 294912, Note_on_c, 2, 74, 0
17, 294912, Note_on_c, 2, 79, 92
17, 299008, Note_on_c, 2, 79, 0
17, 299008, Note_on_c, 2, 78, 92
17, 301056, Note_on_c, 2, 78, 0
17, 301056, Note_on_c, 2, 76, 92
17, 305152, Note_on_c, 2, 76, 0
17, 305152, Note_on_c, 2, 74, 95
17, 307200, Note_on_c, 2, 74, 0
17, 307200, Note_on_c, 2, 74, 96
17, 311296, Note_on_c, 2, 74, 0
17, 311296, Note_on_c, 2, 73, 98
17, 313344, Note_on_c, 2, 73, 0
17, 313344, Note_on_c, 2, 74, 99
17, 313856, Note_on_c, 2, 74, 0
17, 313856, Note_on_c, 2, 76, 100
17, 314368, Note_on_c, 2, 76, 0
17, 314368, Note_on_c, 2, 74, 100
17, 314880, Note_on_c, 2, 74, 0
17, 314880, Note_on_c, 2, 73, 100
17, 315392, Note_on_c, 2, 73, 0
17, 315392, Note_on_c, 2, 71, 101
17, 315904, Note_on_c, 2, 71, 0
17, 315904, Note_on_c, 2, 73, 101
17, 316416, Note_on_c, 2, 73, 0
17, 316416, Note_on_c, 2, 69, 101
17, 316928, Note_on_c, 2, 69, 0
17, 316928, Note_on_c, 2, 71, 102
17, 317440, Note_on_c, 2, 71, 0
17, 317440, Note_on_c, 2, 73, 102
17, 317952, Note_on_c, 2, 73, 0
17, 317952, Note_on_c, 2, 74, 102
17, 318464, Note_on_c, 2, 74, 0
17, 318464, Note_on_c, 2, 71, 103
17, 318976, Note_on_c, 2, 71, 0
17, 318976, Note_on_c, 2, 73, 103
17, 319488, Note_on_c, 2, 73, 0
17, 319488, Note_on_c, 2, 75, 103
17, 320000, Note_on_c, 2, 75, 0
17, 320000, Note_on_c, 2, 76, 103
17, 320512, Note_on_c, 2, 76, 0
17, 320512, Note_on_c, 2, 73, 104
17, 321024, Note_on_c, 2, 73, 0
17, 321024, Note_on_c, 2, 75, 104
17, 321536, Note_on_c, 2, 75, 0
17, 321536, Note_on_c, 2, 76, 104
17, 326656, Note_on_c, 2, 76, 0
17, 326656, Note_on_c, 2, 74, 108
17, 327168, Note_on_c, 2, 74, 0
17, 327168, Note_on_c, 2, 73, 108
17, 327680, Note_on_c, 2, 73, 0
17, 327680, Note_on_c, 2, 74, 109
17, 328192, Note_on_c, 2, 74, 0
17, 328192, Note_on_c, 2, 76, 109
17, 328704, Note_on_c, 2, 76, 0
17, 328704, Note_on_c, 2, 78, 110
17, 329216, Note_on_c, 2, 78, 0
17, 329216, Note_on_c, 2, 74, 110
17, 329728, Note_on_c, 2, 74, 0
17, 329728, Note_on_c, 2, 79, 111
17, 335872, Note_on_c, 2, 79, 0
17, 335872, Note_on_c, 2, 78, 117
17, 337920, Note_on_c, 2, 78, 0
17, 337920, Note_on_c, 2, 76, 119
17, 346112, Note_on_c, 2, 76, 0
17, 346112, Note_on_c, 2, 74, 127
17, 348160, Note_on_c, 2, 74, 0
17, 349184, Note_on_c, 2, 74, 127
17, 350208, Note_on_c, 2, 74, 0
17, 350208, Note_on_c, 2, 76, 127
17, 352768, Note_on_c, 2, 76, 0
17, 352768, Note_on_c, 2, 78, 127
17, 353280, Note_on_c, 2, 78, 0
17, 353280, Note_on_c, 2, 76, 127
17, 353792, Note_on_c, 2, 76, 0
17, 353792, Note_on_c, 2, 74, 127
17, 354304, Note_on_c, 2, 74, 0
17, 354304, Note_on_c, 2, 73, 127
17, 355328, Note_on_c, 2, 73, 0
17, 355328, Note_on_c, 2, 69, 127
17, 356352, Note_on_c, 2, 69, 0
17, 356352, Note_on_c, 2, 78, 127
17, 360448, Note_on_c, 2, 78, 0
17, 360448, Note_on_c, 2, 76, 127
17, 363520, Note_on_c, 2, 76, 0
17, 363520, Note_on_c, 2, 69, 127
17, 364544, Note_on_c, 2, 69, 0
17, 364544, Note_on_c, 2, 74, 127
17, 367616, Note_on_c, 2, 74, 0
17, 367616, Note_on_c, 2, 73, 127
17, 368128, Note_on_c, 2, 73, 0
17, 368128, Note_on_c, 2, 71, 127
17, 368640, Note_on_c, 2, 71, 0
17, 368640, Note_on_c, 2, 73, 127
17, 370483, Note_on_c, 2, 73, 0
17, 370688, Note_on_c, 2, 74, 127
17, 378880, Note_on_c, 2, 74, 0
17, 380623, Control_c, 2, 121, 127
17, 387072, End_track
18, 0, Start_track
18, 0, Title_t, "Oboe I"
18, 0, Program_c, 3, 68
18, 0, Control_c, 3, 121, 127
18, 0, Control_c, 3, 91, 127
18, 0, Control_c, 3, 1, 20
18, 0, Control_c, 3, 10, 60
18, 0, Control_c, 3, 11, 90
18, 20480, Note_on_c, 3, 69, 46
18, 22528, Note_on_c, 3, 69, 0
18, 22528, Note_on_c, 3, 71, 48
18, 24576, Note_on_c, 3, 71, 0
18, 24576, Note_on_c, 3, 73, 49
18, 26624, Note_on_c, 3, 73, 0
18, 26624, Note_on_c, 3, 74, 50
18, 28672, Note_on_c, 3, 74, 0
18, 28672, Note_on_c, 3, 73, 52
18, 29696, Note_on_c, 3, 73, 0
18, 29696, Note_on_c, 3, 71, 52
18, 30720, Note_on_c, 3, 71, 0
18, 30720, Note_on_c, 3, 73, 53
18, 31744, Note_on_c, 3, 73, 0
18, 31744, Note_on_c, 3, 69, 53
18, 32768, Note_on_c, 3, 69, 0
18, 32768, Note_on_c, 3, 74, 54
18, 36864, Note_on_c, 3, 74, 0
18, 36864, Note_on_c, 3, 73, 52
18, 38912, Note_on_c, 3, 73, 0
18, 38912, Note_on_c, 3, 71, 49
18, 43008, Note_on_c, 3, 71, 0
18, 43008, Note_on_c, 3, 69, 41
18, 47104, Note_on_c, 3, 69, 0
18, 53248, Note_on_c, 3, 74, 47
18, 57344, Note_on_c, 3, 74, 0
18, 57344, Note_on_c, 3, 73, 52
18, 59392, Note_on_c, 3, 73, 0
18, 59392, Note_on_c, 3, 74, 54
18, 60416, Note_on_c, 3, 74, 0
18, 60416, Note_on_c, 3, 73, 55
18, 60928, Note_on_c, 3, 73, 0
18, 60928, Note_on_c, 3, 71, 56
18, 61440, Note_on_c, 3, 71, 0
18, 61440, Note_on_c, 3, 69, 56
18, 61952, Note_on_c, 3, 69, 0
18, 61952, Note_on_c, 3, 71, 57
18, 62464, Note_on_c, 3, 71, 0
18, 62464, Note_on_c, 3, 67, 57
18, 62976, Note_on_c, 3, 67, 0
18, 62976, Note_on_c, 3, 69, 58
18, 63488, Note_on_c, 3, 69, 0
18, 63488, Note_on_c, 3, 71, 58
18, 64000, Note_on_c, 3, 71, 0
18, 64000, Note_on_c, 3, 69, 59
18, 64512, Note_on_c, 3, 69, 0
18, 64512, Note_on_c, 3, 71, 60
18, 65024, Note_on_c, 3, 71, 0
18, 65024, Note_on_c, 3, 72, 59
18, 65536, Note_on_c, 3, 72, 0
18, 65536, Note_on_c, 3, 71, 57
18, 66048, Note_on_c, 3, 71, 0
18, 66048, Note_on_c, 3, 72, 56
18, 66560, Note_on_c, 3, 72, 0
18, 66560, Note_on_c, 3, 71, 54
18, 67072, Note_on_c, 3, 71, 0
18, 67072, Note_on_c, 3, 69, 53
18, 67584, Note_on_c, 3, 69, 0
18, 67584, Note_on_c, 3, 67, 52
18, 68608, Note_on_c, 3, 67, 0
18, 68608, Note_on_c, 3, 64, 49
18, 69632, Note_on_c, 3, 64, 0
18, 69632, Note_on_c, 3, 69, 42
18, 71680, Note_on_c, 3, 69, 0
18, 71680, Note_on_c, 3, 62, 44
18, 73728, Note_on_c, 3, 62, 0
18, 81920, Note_on_c, 3, 69, 55
18, 83968, Note_on_c, 3, 69, 0
18, 83968, Note_on_c, 3, 71, 57
18, 86016, Note_on_c, 3, 71, 0
18, 86016, Note_on_c, 3, 73, 59
18, 88064, Note_on_c, 3, 73, 0
18, 88064, Note_on_c, 3, 74, 61
18, 90112, Note_on_c, 3, 74, 0
18, 90112, Note_on_c, 3, 73, 64
18, 91136, Note_on_c, 3, 73, 0
18, 91136, Note_on_c, 3, 71, 65
18, 92160, Note_on_c, 3, 71, 0
18, 92160, Note_on_c, 3, 73, 66
18, 93184, Note_on_c, 3, 73, 0
18, 93184, Note_on_c, 3, 66, 67
18, 94208, Note_on_c, 3, 66, 0
18, 94208, Note_on_c, 3, 78, 68
18, 97280, Note_on_c, 3, 78, 0
18, 97280, Note_on_c, 3, 71, 71
18, 98304, Note_on_c, 3, 71, 0
18, 98304, Note_on_c, 3, 76, 72
18, 101376, Note_on_c, 3, 76, 0
18, 101376, Note_on_c, 3, 74, 76
18, 103424, Note_on_c, 3, 74, 0
18, 103424, Note_on_c, 3, 79, 78
18, 104448, Note_on_c, 3, 79, 0
18, 104448, Note_on_c, 3, 73, 78
18, 105472, Note_on_c, 3, 73, 0
18, 105472, Note_on_c, 3, 76, 77
18, 106496, Note_on_c, 3, 76, 0
18, 106496, Note_on_c, 3, 74, 76
18, 107520, Note_on_c, 3, 74, 0
18, 107520, Note_on_c, 3, 73, 76
18, 108544, Note_on_c, 3, 73, 0
18, 108544, Note_on_c, 3, 71, 75
18, 112640, Note_on_c, 3, 71, 0
18, 120832, Note_on_c, 3, 74, 74
18, 124928, Note_on_c, 3, 74, 0
18, 124928, Note_on_c, 3, 76, 83
18, 126976, Note_on_c, 3, 76, 0
18, 126976, Note_on_c, 3, 78, 87
18, 129024, Note_on_c, 3, 78, 0
18, 129024, Note_on_c, 3, 79, 92
18, 131072, Note_on_c, 3, 79, 0
18, 131072, Note_on_c, 3, 78, 91
18, 132096, Note_on_c, 3, 78, 0
18, 132096, Note_on_c, 3, 76, 90
18, 133120, Note_on_c, 3, 76, 0
18, 133120, Note_on_c, 3, 78, 88
18, 134144, Note_on_c, 3, 78, 0
18, 134144, Note_on_c, 3, 74, 87
18, 135168, Note_on_c, 3, 74, 0
18, 135168, Note_on_c, 3, 79, 85
18, 139264, Note_on_c, 3, 79, 0
18, 139264, Note_on_c, 3, 78, 80
18, 140288, Note_on_c, 3, 78, 0
18, 140288, Note_on_c, 3, 78, 78
18, 141312, Note_on_c, 3, 78, 0
18, 141312, Note_on_c, 3, 76, 80
18, 145408, Note_on_c, 3, 76, 0
18, 145408, Note_on_c, 3, 74, 77
18, 149504, Note_on_c, 3, 74, 0
18, 155648, Note_on_c, 3, 76, 70
18, 159744, Note_on_c, 3, 76, 0
18, 159744, Note_on_c, 3, 75, 66
18, 161792, Note_on_c, 3, 75, 0
18, 161792, Note_on_c, 3, 76, 67
18, 162816, Note_on_c, 3, 76, 0
18, 162816, Note_on_c, 3, 74, 67
18, 163328, Note_on_c, 3, 74, 0
18, 163328, Note_on_c, 3, 72, 67
18, 163840, Note_on_c, 3, 72, 0
18, 163840, Note_on_c, 3, 71, 67
18, 164352, Note_on_c, 3, 71, 0
18, 164352, Note_on_c, 3, 72, 68
18, 164864, Note_on_c, 3, 72, 0
18, 164864, Note_on_c, 3, 69, 68
18, 165376, Note_on_c, 3, 69, 0
18, 165376, Note_on_c, 3, 71, 68
18, 165888, Note_on_c, 3, 71, 0
18, 165888, Note_on_c, 3, 72, 68
18, 166400, Note_on_c, 3, 72, 0
18, 166400, Note_on_c, 3, 71, 68
18, 166912, Note_on_c, 3, 71, 0
18, 166912, Note_on_c, 3, 72, 68
18, 167424, Note_on_c, 3, 72, 0
18, 167424, Note_on_c, 3, 74, 69
18, 167936, Note_on_c, 3, 74, 0
18, 167936, Note_on_c, 3, 72, 69
18, 168448, Note_on_c, 3, 72, 0
18, 168448, Note_on_c, 3, 76, 69
18, 168960, Note_on_c, 3, 76, 0
18, 168960, Note_on_c, 3, 74, 69
18, 169472, Note_on_c, 3, 74, 0
18, 169472, Note_on_c, 3, 72, 69
18, 169984, Note_on_c, 3, 72, 0
18, 169984, Note_on_c, 3, 71, 69
18, 171008, Note_on_c, 3, 71, 0
18, 171008, Note_on_c, 3, 73, 70
18, 172032, Note_on_c, 3, 73, 0
18, 172032, Note_on_c, 3, 74, 70
18, 174080, Note_on_c, 3, 74, 0
18, 174080, Note_on_c, 3, 67, 71
18, 175104, Note_on_c, 3, 67, 0
18, 175104, Note_on_c, 3, 64, 71
18, 176128, Note_on_c, 3, 64, 0
18, 176128, Note_on_c, 3, 73, 71
18, 180224, Note_on_c, 3, 73, 0
18, 180224, Note_on_c, 3, 71, 73
18, 181248, Note_on_c, 3, 71, 0
18, 182272, Note_on_c, 3, 76, 74
18, 184320, Note_on_c, 3, 76, 0
18, 184320, Note_on_c, 3, 69, 74
18, 188416, Note_on_c, 3, 69, 0
18, 188416, Note_on_c, 3, 78, 76
18, 192512, Note_on_c, 3, 78, 0
18, 192512, Note_on_c, 3, 77, 79
18, 194560, Note_on_c, 3, 77, 0
18, 194560, Note_on_c, 3, 78, 80
18, 195584, Note_on_c, 3, 78, 0
18, 195584, Note_on_c, 3, 76, 81
18, 196096, Note_on_c, 3, 76, 0
18, 196096, Note_on_c, 3, 74, 82
18, 196608, Note_on_c, 3, 74, 0
18, 196608, Note_on_c, 3, 73, 82
18, 197120, Note_on_c, 3, 73, 0
18, 197120, Note_on_c, 3, 74, 82
18, 197632, Note_on_c, 3, 74, 0
18, 197632, Note_on_c, 3, 71, 83
18, 198144, Note_on_c, 3, 71, 0
18, 198144, Note_on_c, 3, 73, 83
18, 198656, Note_on_c, 3, 73, 0
18, 198656, Note_on_c, 3, 74, 83
18, 199168, Note_on_c, 3, 74, 0
18, 199168, Note_on_c, 3, 73, 84
18, 199680, Note_on_c, 3, 73, 0
18, 199680, Note_on_c, 3, 74, 84
18, 200192, Note_on_c, 3, 74, 0
18, 200192, Note_on_c, 3, 76, 85
18, 200704, Note_on_c, 3, 76, 0
18, 200704, Note_on_c, 3, 74, 85
18, 201216, Note_on_c, 3, 74, 0
18, 201216, Note_on_c, 3, 78, 85
18, 201728, Note_on_c, 3, 78, 0
18, 201728, Note_on_c, 3, 76, 86
18, 202240, Note_on_c, 3, 76, 0
18, 202240, Note_on_c, 3, 74, 86
18, 202752, Note_on_c, 3, 74, 0
18, 202752, Note_on_c, 3, 73, 87
18, 204800, Note_on_c, 3, 73, 0
18, 204800, Note_on_c, 3, 78, 88
18, 206848, Note_on_c, 3, 78, 0
18, 206848, Note_on_c, 3, 71, 90
18, 208896, Note_on_c, 3, 71, 0
18, 212992, Note_on_c, 3, 74, 95
18, 215040, Note_on_c, 3, 74, 0
18, 215040, Note_on_c, 3, 76, 98
18, 217088, Note_on_c, 3, 76, 0
18, 217088, Note_on_c, 3, 78, 98
18, 219136, Note_on_c, 3, 78, 0
18, 219136, Note_on_c, 3, 79, 98
18, 221184, Note_on_c, 3, 79, 0
18, 221184, Note_on_c, 3, 78, 98
18, 222208, Note_on_c, 3, 78, 0
18, 222208, Note_on_c, 3, 76, 98
18, 223232, Note_on_c, 3, 76, 0
18, 223232, Note_on_c, 3, 78, 98
18, 224256, Note_on_c, 3, 78, 0
18, 224256, Note_on_c, 3, 74, 100
18, 225280, Note_on_c, 3, 74, 0
18, 225280, Note_on_c, 3, 79, 103
18, 229376, Note_on_c, 3, 79, 0
18, 229376, Note_on_c, 3, 78, 103
18, 231424, Note_on_c, 3, 78, 0
18, 231424, Note_on_c, 3, 76, 101
18, 233472, Note_on_c, 3, 76, 0
18, 233472, Note_on_c, 3, 74, 100
18, 236544, Note_on_c, 3, 74, 0
18, 236544, Note_on_c, 3, 71, 99
18, 238592, Note_on_c, 3, 71, 0
18, 238592, Note_on_c, 3, 71, 98
18, 239616, Note_on_c, 3, 71, 0
18, 239616, Note_on_c, 3, 69, 97
18, 241664, Note_on_c, 3, 69, 0
18, 241664, Note_on_c, 3, 71, 96
18, 243712, Note_on_c, 3, 71, 0
18, 243712, Note_on_c, 3, 64, 94
18, 244736, Note_on_c, 3, 64, 0
18, 245760, Note_on_c, 3, 69, 97
18, 247808, Note_on_c, 3, 69, 0
18, 247808, Note_on_c, 3, 71, 99
18, 249856, Note_on_c, 3, 71, 0
18, 249856, Note_on_c, 3, 73, 101
18, 251904, Note_on_c, 3, 73, 0
18, 251904, Note_on_c, 3, 74, 103
18, 253952, Note_on_c, 3, 74, 0
18, 253952, Note_on_c, 3, 73, 103
18, 254976, Note_on_c, 3, 73, 0
18, 254976, Note_on_c, 3, 71, 103
18, 256000, Note_on_c, 3, 71, 0
18, 256000, Note_on_c, 3, 73, 103
18, 257024, Note_on_c, 3, 73, 0
18, 257024, Note_on_c, 3, 69, 103
18, 258048, Note_on_c, 3, 69, 0
18, 258048, Note_on_c, 3, 74, 103
18, 262144, Note_on_c, 3, 74, 0
18, 262144, Note_on_c, 3, 73, 103
18, 264192, Note_on_c, 3, 73, 0
18, 264192, Note_on_c, 3, 71, 103
18, 268288, Note_on_c, 3, 71, 0
18, 268288, Note_on_c, 3, 69, 103
18, 272384, Note_on_c, 3, 69, 0
18, 280576, Note_on_c, 3, 74, 95
18, 284672, Note_on_c, 3, 74, 0
18, 284672, Note_on_c, 3, 76, 92
18, 286720, Note_on_c, 3, 76, 0
18, 286720, Note_on_c, 3, 78, 92
18, 288768, Note_on_c, 3, 78, 0
18, 288768, Note_on_c, 3, 79, 92
18, 290816, Note_on_c, 3, 79, 0
18, 290816, Note_on_c, 3, 78, 92
18, 291840, Note_on_c, 3, 78, 0
18, 291840, Note_on_c, 3, 76, 92
18, 292864, Note_on_c, 3, 76, 0
18, 292864, Note_on_c, 3, 78, 92
18, 293888, Note_on_c, 3, 78, 0
18, 293888, Note_on_c, 3, 74, 92
18, 294912, Note_on_c, 3, 74, 0
18, 294912, Note_on_c, 3, 79, 92
18, 299008, Note_on_c, 3, 79, 0
18, 299008, Note_on_c, 3, 78, 92
18, 301056, Note_on_c, 3, 78, 0
18, 301056, Note_on_c, 3, 76, 92
18, 305152, Note_on_c, 3, 76, 0
18, 305152, Note_on_c, 3, 74, 95
18, 307200, Note_on_c, 3, 74, 0
18, 307200, Note_on_c, 3, 74, 96
18, 311296, Note_on_c, 3, 74, 0
18, 311296, Note_on_c, 3, 73, 98
18, 313344, Note_on_c, 3, 73, 0
18, 313344, Note_on_c, 3, 74, 99
18, 313856, Note_on_c, 3, 74, 0
18, 313856, Note_on_c, 3, 76, 100
18, 314368, Note_on_c, 3, 76, 0
18, 314368, Note_on_c, 3, 74, 100
18, 314880, Note_on_c, 3, 74, 0
18, 314880, Note_on_c, 3, 73, 100
18, 315392, Note_on_c, 3, 73, 0
18, 315392, Note_on_c, 3, 71, 101
18, 315904, Note_on_c, 3, 71, 0
18, 315904, Note_on_c, 3, 73, 101
18, 316416, Note_on_c, 3, 73, 0
18, 316416, Note_on_c, 3, 69, 101
18, 316928, Note_on_c, 3, 69, 0
18, 316928, Note_on_c, 3, 71, 102
18, 317440, Note_on_c, 3, 71, 0
18, 317440, Note_on_c, 3, 73, 102
18, 317952, Note_on_c, 3, 73, 0
18, 317952, Note_on_c, 3, 74, 102
18, 318464, Note_on_c, 3, 74, 0
18, 318464, Note_on_c, 3, 71, 103
18, 318976, Note_on_c, 3, 71, 0
18, 318976, Note_on_c, 3, 73, 103
18, 319488, Note_on_c, 3, 73, 0
18, 319488, Note_on_c, 3, 75, 103
18, 320000, Note_on_c, 3, 75, 0
18, 320000, Note_on_c, 3, 76, 103
18, 320512, Note_on_c, 3, 76, 0
18, 320512, Note_on_c, 3, 73, 104
18, 321024, Note_on_c, 3, 73, 0
18, 321024, Note_on_c, 3, 75, 104
18, 321536, Note_on_c, 3, 75, 0
18, 321536, Note_on_c, 3, 76, 104
18, 326656, Note_on_c, 3, 76, 0
18, 326656, Note_on_c, 3, 74, 108
18, 327168, Note_on_c, 3, 74, 0
18, 327168, Note_on_c, 3, 73, 108
18, 327680, Note_on_c, 3, 73, 0
18, 327680, Note_on_c, 3, 74, 109
18, 328192, Note_on_c, 3, 74, 0
18, 328192, Note_on_c, 3, 76, 109
18, 328704, Note_on_c, 3, 76, 0
18, 328704, Note_on_c, 3, 78, 110
18, 329216, Note_on_c, 3, 78, 0
18, 329216, Note_on_c, 3, 74, 110
18, 329728, Note_on_c, 3, 74, 0
18, 329728, Note_on_c, 3, 79, 111
18, 335872, Note_on_c, 3, 79, 0
18, 335872, Note_on_c, 3, 78, 117
18, 337920, Note_on_c, 3, 78, 0
18, 337920, Note_on_c, 3, 76, 119
18, 346112, Note_on_c, 3, 76, 0
18, 346112, Note_on_c, 3, 74, 127
18, 348160, Note_on_c, 3, 74, 0
18, 349184, Note_on_c, 3, 74, 127
18, 350208, Note_on_c, 3, 74, 0
18, 350208, Note_on_c, 3, 76, 127
18, 352768, Note_on_c, 3, 76, 0
18, 352768, Note_on_c, 3, 78, 127
18, 353280, Note_on_c, 3, 78, 0
18, 353280, Note_on_c, 3, 76, 127
18, 353792, Note_on_c, 3, 76, 0
18, 353792, Note_on_c, 3, 74, 127
18, 354304, Note_on_c, 3, 74, 0
18, 354304, Note_on_c, 3, 73, 127
18, 355328, Note_on_c, 3, 73, 0
18, 355328, Note_on_c, 3, 69, 127
18, 356352, Note_on_c, 3, 69, 0
18, 356352, Note_on_c, 3, 78, 127
18, 360448, Note_on_c, 3, 78, 0
18, 360448, Note_on_c, 3, 76, 127
18, 363520, Note_on_c, 3, 76, 0
18, 363520, Note_on_c, 3, 69, 127
18, 364544, Note_on_c, 3, 69, 0
18, 364544, Note_on_c, 3, 74, 127
18, 367616, Note_on_c, 3, 74, 0
18, 367616, Note_on_c, 3, 73, 127
18, 368128, Note_on_c, 3, 73, 0
18, 368128, Note_on_c, 3, 71, 127
18, 368640, Note_on_c, 3, 71, 0
18, 368640, Note_on_c, 3, 73, 127
18, 370483, Note_on_c, 3, 73, 0
18, 370688, Note_on_c, 3, 74, 127
18, 378880, Note_on_c, 3, 74, 0
18, 380623, Control_c, 3, 121, 127
18, 387072, End_track
19, 0, Start_track
19, 0, Title_t, "Trumpet II"
19, 0, Program_c, 0, 56
19, 253952, Note_on_c, 0, 74, 103
19, 256000, Note_on_c, 0, 74, 0
19, 256000, Note_on_c, 0, 76, 103
19, 258048, Note_on_c, 0, 76, 0
19, 258048, Note_on_c, 0, 78, 103
19, 260096, Note_on_c, 0, 78, 0
19, 260096, Note_on_c, 0, 79, 103
19, 262144, Note_on_c, 0, 79, 0
19, 262144, Note_on_c, 0, 78, 103
19, 263168, Note_on_c, 0, 78, 0
19, 263168, Note_on_c, 0, 76, 103
19, 264192, Note_on_c, 0, 76, 0
19, 264192, Note_on_c, 0, 78, 103
19, 265216, Note_on_c, 0, 78, 0
19, 265216, Note_on_c, 0, 74, 103
19, 266240, Note_on_c, 0, 74, 0
19, 266240, Note_on_c, 0, 79, 103
19, 270336, Note_on_c, 0, 79, 0
19, 270336, Note_on_c, 0, 78, 102
19, 272384, Note_on_c, 0, 78, 0
19, 272384, Note_on_c, 0, 76, 102
19, 276480, Note_on_c, 0, 76, 0
19, 276480, Note_on_c, 0, 74, 98
19, 278528, Note_on_c, 0, 74, 0
19, 280576, Note_on_c, 0, 74, 95
19, 284672, Note_on_c, 0, 74, 0
19, 284672, Note_on_c, 0, 76, 92
19, 286720, Note_on_c, 0, 76, 0
19, 286720, Note_on_c, 0, 78, 92
19, 288768, Note_on_c, 0, 78, 0
19, 288768, Note_on_c, 0, 79, 92
19, 290816, Note_on_c, 0, 79, 0
19, 290816, Note_on_c, 0, 78, 92
19, 291840, Note_on_c, 0, 78, 0
19, 291840, Note_on_c, 0, 76, 92
19, 292864, Note_on_c, 0, 76, 0
19, 292864, Note_on_c, 0, 78, 92
19, 293888, Note_on_c, 0, 78, 0
19, 293888, Note_on_c, 0, 74, 92
19, 294912, Note_on_c, 0, 74, 0
19, 294912, Note_on_c, 0, 79, 92
19, 299008, Note_on_c, 0, 79, 0
19, 299008, Note_on_c, 0, 78, 92
19, 301056, Note_on_c, 0, 78, 0
19, 301056, Note_on_c, 0, 76, 92
19, 305152, Note_on_c, 0, 76, 0
19, 305152, Note_on_c, 0, 74, 95
19, 305408, Note_on_c, 0, 74, 0
19, 305408, Note_on_c, 0, 76, 95
19, 305664, Note_on_c, 0, 76, 0
19, 305664, Note_on_c, 0, 74, 95
19, 305920, Note_on_c, 0, 74, 0
19, 305920, Note_on_c, 0, 76, 95
19, 306176, Note_on_c, 0, 76, 0
19, 306176, Note_on_c, 0, 74, 95
19, 306432, Note_on_c, 0, 74, 0
19, 306432, Note_on_c, 0, 76, 95
19, 306688, Note_on_c, 0, 76, 0
19, 306688, Note_on_c, 0, 74, 95
19, 306944, Note_on_c, 0, 74, 0
19, 306944, Note_on_c, 0, 76, 96
19, 307200, Note_on_c, 0, 76, 0
19, 307200, Note_on_c, 0, 74, 96
19, 307405, Note_on_c, 0, 74, 0
19, 307405, Note_on_c, 0, 76, 96
19, 307610, Note_on_c, 0, 76, 0
19, 307610, Note_on_c, 0, 74, 96
19, 307814, Note_on_c, 0, 74, 0
19, 307814, Note_on_c, 0, 76, 96
19, 308019, Note_on_c, 0, 76, 0
19, 308019, Note_on_c, 0, 74, 96
19, 308224, Note_on_c, 0, 74, 0
19, 308224, Note_on_c, 0, 73, 96
19, 308736, Note_on_c, 0, 73, 0
19, 308736, Note_on_c, 0, 74, 97
19, 309248, Note_on_c, 0, 74, 0
19, 309248, Note_on_c, 0, 76, 97
19, 313344, Note_on_c, 0, 76, 0
19, 335872, Note_on_c, 0, 74, 117
19, 337920, Note_on_c, 0, 74, 0
19, 337920, Note_on_c, 0, 76, 119
19, 339968, Note_on_c, 0, 76, 0
19, 339968, Note_on_c, 0, 78, 121
19, 342016, Note_on_c, 0, 78, 0
19, 342016, Note_on_c, 0, 79, 123
19, 344064, Note_on_c, 0, 79, 0
19, 344064, Note_on_c, 0, 78, 125
19, 345088, Note_on_c, 0, 78, 0
19, 345088, Note_on_c, 0, 76, 126
19, 346112, Note_on_c, 0, 76, 0
19, 346112, Note_on_c, 0, 78, 127
19, 347136, Note_on_c, 0, 78, 0
19, 347136, Note_on_c, 0, 83, 127
19, 348672, Note_on_c, 0, 83, 0
19, 348672, Note_on_c, 0, 81, 127
19, 349184, Note_on_c, 0, 81, 0
19, 349184, Note_on_c, 0, 80, 127
19, 349696, Note_on_c, 0, 80, 0
19, 349696, Note_on_c, 0, 78, 127
19, 350208, Note_on_c, 0, 78, 0
19, 350208, Note_on_c, 0, 76, 127
19, 355328, Note_on_c, 0, 76, 0
19, 355328, Note_on_c, 0, 81, 127
19, 355840, Note_on_c, 0, 81, 0
19, 355840, Note_on_c, 0, 79, 127
19, 356352, Note_on_c, 0, 79, 0
19, 356352, Note_on_c, 0, 78, 127
19, 360448, Note_on_c, 0, 78, 0
19, 360448, Note_on_c, 0, 76, 127
19, 363520, Note_on_c, 0, 76, 0
19, 363520, Note_on_c, 0, 69, 127
19, 364544, Note_on_c, 0, 69, 0
19, 364544, Note_on_c, 0, 74, 127
19, 367616, Note_on_c, 0, 74, 0
19, 367616, Note_on_c, 0, 69, 127
19, 368128, Note_on_c, 0, 69, 0
19, 368128, Note_on_c, 0, 69, 127
19, 368640, Note_on_c, 0, 69, 0
19, 368640, Note_on_c, 0, 69, 127
19, 369459, Note_on_c, 0, 69, 0
19, 369664, Note_on_c, 0, 69, 127
19, 370483, Note_on_c, 0, 69, 0
19, 370688, Note_on_c, 0, 69, 127
19, 378880, Note_on_c, 0, 69, 0
19, 380623, Control_c, 0, 121, 127
19, 387072, End_track
20, 0, Start_track
20, 0, Title_t, "Trumpet III"
20, 0, Program_c, 0, 56
20, 284672, Note_on_c, 0, 69, 92
20, 288768, Note_on_c, 0, 69, 0
20, 288768, Note_on_c, 0, 62, 92
20, 290816, Note_on_c, 0, 62, 0
20, 291840, Note_on_c, 0, 69, 92
20, 292864, Note_on_c, 0, 69, 0
20, 292864, Note_on_c, 0, 69, 92
20, 294912, Note_on_c, 0, 69, 0
20, 294912, Note_on_c, 0, 74, 92
20, 296960, Note_on_c, 0, 74, 0
20, 296960, Note_on_c, 0, 76, 92
20, 299008, Note_on_c, 0, 76, 0
20, 299008, Note_on_c, 0, 74, 92
20, 301056, Note_on_c, 0, 74, 0
20, 301056, Note_on_c, 0, 76, 92
20, 304128, Note_on_c, 0, 76, 0
20, 304128, Note_on_c, 0, 69, 94
20, 305152, Note_on_c, 0, 69, 0
20, 305152, Note_on_c, 0, 66, 95
20, 307200, Note_on_c, 0, 66, 0
20, 307200, Note_on_c, 0, 62, 96
20, 309248, Note_on_c, 0, 62, 0
20, 309248, Note_on_c, 0, 69, 97
20, 313344, Note_on_c, 0, 69, 0
20, 335872, Note_on_c, 0, 66, 117
20, 337920, Note_on_c, 0, 66, 0
20, 337920, Note_on_c, 0, 69, 119
20, 342016, Note_on_c, 0, 69, 0
20, 342016, Note_on_c, 0, 76, 123
20, 343040, Note_on_c, 0, 76, 0
20, 343040, Note_on_c, 0, 78, 124
20, 344064, Note_on_c, 0, 78, 0
20, 344064, Note_on_c, 0, 79, 125
20, 345088, Note_on_c, 0, 79, 0
20, 345088, Note_on_c, 0, 81, 126
20, 346112, Note_on_c, 0, 81, 0
20, 346112, Note_on_c, 0, 83, 127
20, 347136, Note_on_c, 0, 83, 0
20, 347136, Note_on_c, 0, 78, 127
20, 348160, Note_on_c, 0, 78, 0
20, 349184, Note_on_c, 0, 74, 127
20, 350208, Note_on_c, 0, 74, 0
20, 350208, Note_on_c, 0, 83, 127
20, 352256, Note_on_c, 0, 83, 0
20, 352256, Note_on_c, 0, 80, 127
20, 354304, Note_on_c, 0, 80, 0
20, 354304, Note_on_c, 0, 85, 127
20, 355328, Note_on_c, 0, 85, 0
20, 357376, Note_on_c, 0, 74, 127
20, 358400, Note_on_c, 0, 74, 0
20, 358400, Note_on_c, 0, 74, 127
20, 359424, Note_on_c, 0, 74, 0
20, 362496, Note_on_c, 0, 69, 127
20, 363520, Note_on_c, 0, 69, 0
20, 365568, Note_on_c, 0, 62, 127
20, 366592, Note_on_c, 0, 62, 0
20, 366592, Note_on_c, 0, 69, 127
20, 367616, Note_on_c, 0, 69, 0
20, 367616, Note_on_c, 0, 69, 127
20, 368128, Note_on_c, 0, 69, 0
20, 368128, Note_on_c, 0, 69, 127
20, 368640, Note_on_c, 0, 69, 0
20, 368640, Note_on_c, 0, 69, 127
20, 369459, Note_on_c, 0, 69, 0
20, 369664, Note_on_c, 0, 69, 127
20, 370483, Note_on_c, 0, 69, 0
20, 370688, Note_on_c, 0, 66, 127
20, 378880, Note_on_c, 0, 66, 0
20, 380623, Control_c, 0, 121, 127
20, 387072, End_track
0, 0, End_of_file
