0, 0, Header, 1, 4, 384
1, 0, Start_track
1, 0, Tempo, 1621620
1, 0, Time_signature, 4, 2, 24, 8
1, 76800, Tempo, 800000
1, 244992, Tempo, 857140
1, 249216, Tempo, 923070
1, 250368, Tempo, 1000000
1, 251136, Tempo, 1090900
1, 251904, Tempo, 2000000
1, 253440, End_track
2, 0, Start_track
2, 0, Title_t, "Track 1"
2, 0, Program_c, 0, 19
2, 0, Note_on_c, 0, 79, 92
2, 24, Note_off_c, 0, 79, 64
2, 24, Note_on_c, 0, 77, 92
2, 48, Note_off_c, 0, 77, 64
2, 48, Note_on_c, 0, 79, 92
2, 240, Note_off_c, 0, 79, 64
2, 240, Note_on_c, 0, 82, 92
2, 288, Note_off_c, 0, 82, 64
2, 288, Note_on_c, 0, 81, 92
2, 336, Note_off_c, 0, 81, 64
2, 336, Note_on_c, 0, 79, 92
2, 384, Note_off_c, 0, 79, 64
2, 384, Note_on_c, 0, 78, 92
2, 432, Note_off_c, 0, 78, 64
2, 432, Note_on_c, 0, 79, 92
2, 480, Note_off_c, 0, 79, 64
2, 480, Note_on_c, 0, 78, 92
2, 528, Note_off_c, 0, 78, 64
2, 528, Note_on_c, 0, 79, 92
2, 576, Note_off_c, 0, 79, 64
2, 576, Note_on_c, 0, 81, 92
2, 600, Note_off_c, 0, 81, 64
2, 600, Note_on_c, 0, 79, 92
2, 624, Note_off_c, 0, 79, 64
2, 624, Note_on_c, 0, 81, 92
2, 648, Note_off_c, 0, 81, 64
2, 648, Note_on_c, 0, 79, 92
2, 672, Note_off_c, 0, 79, 64
2, 672, Note_on_c, 0, 81, 92
2, 696, Note_off_c, 0, 81, 64
2, 696, Note_on_c, 0, 78, 92
2, 720, Note_off_c, 0, 78, 64
2, 720, Note_on_c, 0, 79, 92
2, 744, Note_off_c, 0, 79, 64
2, 744, Note_on_c, 0, 81, 92
2, 768, Note_off_c, 0, 81, 64
2, 768, Note_on_c, 0, 75, 92
2, 1008, Note_off_c, 0, 75, 64
2, 1008, Note_on_c, 0, 77, 92
2, 1056, Note_off_c, 0, 77, 64
2, 1056, Note_on_c, 0, 75, 92
2, 1104, Note_off_c, 0, 75, 64
2, 1104, Note_on_c, 0, 74, 92
2, 1152, Note_off_c, 0, 74, 64
2, 1152, Note_on_c, 0, 72, 92
2, 1200, Note_off_c, 0, 72, 64
2, 1200, Note_on_c, 0, 74, 92
2, 1248, Note_off_c, 0, 74, 64
2, 1248, Note_on_c, 0, 72, 92
2, 1296, Note_off_c, 0, 72, 64
2, 1296, Note_on_c, 0, 74, 92
2, 1344, Note_off_c, 0, 74, 64
2, 1344, Note_on_c, 0, 75, 92
2, 1368, Note_off_c, 0, 75, 64
2, 1368, Note_on_c, 0, 74, 92
2, 1392, Note_off_c, 0, 74, 64
2, 1392, Note_on_c, 0, 75, 92
2, 1416, Note_off_c, 0, 75, 64
2, 1416, Note_on_c, 0, 74, 92
2, 1440, Note_off_c, 0, 74, 64
2, 1440, Note_on_c, 0, 75, 92
2, 1464, Note_off_c, 0, 75, 64
2, 1464, Note_on_c, 0, 72, 92
2, 1488, Note_off_c, 0, 72, 64
2, 1488, Note_on_c, 0, 74, 92
2, 1512, Note_off_c, 0, 74, 64
2, 1512, Note_on_c, 0, 75, 92
2, 1536, Note_off_c, 0, 75, 64
2, 1536, Note_on_c, 0, 71, 92
2, 1728, Note_off_c, 0, 71, 64
2, 1728, Note_on_c, 0, 67, 92
2, 1776, Note_off_c, 0, 67, 64
2, 1776, Note_on_c, 0, 71, 92
2, 1824, Note_off_c, 0, 71, 64
2, 1824, Note_on_c, 0, 69, 92
2, 1872, Note_off_c, 0, 69, 64
2, 1872, Note_on_c, 0, 67, 92
2, 1920, Note_off_c, 0, 67, 64
2, 1920, Note_on_c, 0, 74, 92
2, 1968, Note_off_c, 0, 74, 64
2, 1968, Note_on_c, 0, 72, 92
2, 2016, Note_off_c, 0, 72, 64
2, 2016, Note_on_c, 0, 71, 92
2, 2064, Note_off_c, 0, 71, 64
2, 2064, Note_on_c, 0, 77, 92
2, 2112, Note_off_c, 0, 77, 64
2, 2112, Note_on_c, 0, 75, 92
2, 2160, Note_off_c, 0, 75, 64
2, 2160, Note_on_c, 0, 74, 92
2, 2208, Note_off_c, 0, 74, 64
2, 2208, Note_on_c, 0, 80, 92
2, 2256, Note_off_c, 0, 80, 64
2, 2256, Note_on_c, 0, 79, 92
2, 2304, Note_off_c, 0, 79, 64
2, 2304, Note_on_c, 0, 77, 92
2, 2496, Note_off_c, 0, 77, 64
2, 2496, Note_on_c, 0, 75, 92
2, 2544, Note_off_c, 0, 75, 64
2, 2544, Note_on_c, 0, 74, 92
2, 2592, Note_off_c, 0, 74, 64
2, 2592, Note_on_c, 0, 72, 92
2, 2640, Note_off_c, 0, 72, 64
2, 2640, Note_on_c, 0, 71, 92
2, 2688, Note_off_c, 0, 71, 64
2, 2688, Note_on_c, 0, 72, 92
2, 2736, Note_off_c, 0, 72, 64
2, 2736, Note_on_c, 0, 67, 92
2, 2784, Note_off_c, 0, 67, 64
2, 2784, Note_on_c, 0, 72, 92
2, 2832, Note_off_c, 0, 72, 64
2, 2832, Note_on_c, 0, 74, 92
2, 2880, Note_off_c, 0, 74, 64
2, 2880, Note_on_c, 0, 75, 92
2, 2928, Note_off_c, 0, 75, 64
2, 2928, Note_on_c, 0, 72, 92
2, 2976, Note_off_c, 0, 72, 64
2, 2976, Note_on_c, 0, 74, 92
2, 3024, Note_off_c, 0, 74, 64
2, 3024, Note_on_c, 0, 75, 92
2, 3072, Note_off_c, 0, 75, 64
2, 3072, Note_on_c, 0, 67, 92
2, 3264, Note_off_c, 0, 67, 64
2, 3264, Note_on_c, 0, 66, 92
2, 3312, Note_off_c, 0, 66, 64
2, 3312, Note_on_c, 0, 69, 92
2, 3360, Note_off_c, 0, 69, 64
2, 3360, Note_on_c, 0, 72, 92
2, 3408, Note_off_c, 0, 72, 64
2, 3408, Note_on_c, 0, 75, 92
2, 3456, Note_off_c, 0, 75, 64
2, 3456, Note_on_c, 0, 74, 92
2, 3504, Note_off_c, 0, 74, 64
2, 3504, Note_on_c, 0, 72, 92
2, 3552, Note_off_c, 0, 72, 64
2, 3552, Note_on_c, 0, 84, 92
2, 3696, Note_off_c, 0, 84, 64
2, 3696, Note_on_c, 0, 82, 92
2, 3744, Note_off_c, 0, 82, 64
2, 3744, Note_on_c, 0, 81, 92
2, 3792, Note_off_c, 0, 81, 64
2, 3792, Note_on_c, 0, 79, 92
2, 3840, Note_off_c, 0, 79, 64
2, 3840, Note_on_c, 0, 78, 92
2, 3888, Note_off_c, 0, 78, 64
2, 3888, Note_on_c, 0, 79, 92
2, 3936, Note_off_c, 0, 79, 64
2, 3936, Note_on_c, 0, 81, 92
2, 3984, Note_off_c, 0, 81, 64
2, 3984, Note_on_c, 0, 72, 92
2, 4032, Note_off_c, 0, 72, 64
2, 4032, Note_on_c, 0, 74, 92
2, 4080, Note_off_c, 0, 74, 64
2, 4080, Note_on_c, 0, 75, 92
2, 4128, Note_off_c, 0, 75, 64
2, 4128, Note_on_c, 0, 69, 92
2, 4176, Note_off_c, 0, 69, 64
2, 4176, Note_on_c, 0, 70, 92
2, 4224, Note_off_c, 0, 70, 64
2, 4224, Note_on_c, 0, 72, 92
2, 4272, Note_off_c, 0, 72, 64
2, 4272, Note_on_c, 0, 66, 92
2, 4320, Note_off_c, 0, 66, 64
2, 4320, Note_on_c, 0, 67, 92
2, 4368, Note_off_c, 0, 67, 64
2, 4368, Note_on_c, 0, 69, 92
2, 4416, Note_off_c, 0, 69, 64
2, 4416, Note_on_c, 0, 60, 92
2, 4464, Note_off_c, 0, 60, 64
2, 4464, Note_on_c, 0, 63, 92
2, 4512, Note_off_c, 0, 63, 64
2, 4512, Note_on_c, 0, 62, 92
2, 4560, Note_off_c, 0, 62, 64
2, 4560, Note_on_c, 0, 60, 92
2, 4608, Note_off_c, 0, 60, 64
2, 4896, Note_on_c, 0, 60, 92
2, 4944, Note_off_c, 0, 60, 64
2, 4944, Note_on_c, 0, 62, 92
2, 4992, Note_off_c, 0, 62, 64
2, 4992, Note_on_c, 0, 63, 92
2, 5040, Note_off_c, 0, 63, 64
2, 5040, Note_on_c, 0, 60, 92
2, 5088, Note_off_c, 0, 60, 64
2, 5184, Note_on_c, 0, 59, 92
2, 5232, Note_off_c, 0, 59, 64
2, 5232, Note_on_c, 0, 60, 92
2, 5280, Note_off_c, 0, 60, 64
2, 5280, Note_on_c, 0, 62, 92
2, 5328, Note_off_c, 0, 62, 64
2, 5328, Note_on_c, 0, 63, 92
2, 5376, Note_off_c, 0, 63, 64
2, 5376, Note_on_c, 0, 65, 92
2, 5424, Note_off_c, 0, 65, 64
2, 5424, Note_on_c, 0, 62, 92
2, 5472, Note_off_c, 0, 62, 64
2, 5472, Note_on_c, 0, 55, 92
2, 5520, Note_off_c, 0, 55, 64
2, 5520, Note_on_c, 0, 59, 92
2, 5568, Note_off_c, 0, 59, 64
2, 5568, Note_on_c, 0, 60, 92
2, 5616, Note_off_c, 0, 60, 64
2, 5616, Note_on_c, 0, 62, 92
2, 5664, Note_off_c, 0, 62, 64
2, 5664, Note_on_c, 0, 63, 92
2, 5712, Note_off_c, 0, 63, 64
2, 5712, Note_on_c, 0, 65, 92
2, 5760, Note_off_c, 0, 65, 64
2, 5760, Note_on_c, 0, 67, 92
2, 5808, Note_off_c, 0, 67, 64
2, 5808, Note_on_c, 0, 63, 92
2, 5856, Note_off_c, 0, 63, 64
2, 5856, Note_on_c, 0, 60, 92
2, 5904, Note_off_c, 0, 60, 64
2, 5904, Note_on_c, 0, 59, 92
2, 5952, Note_off_c, 0, 59, 64
2, 5952, Note_on_c, 0, 60, 92
2, 6000, Note_off_c, 0, 60, 64
2, 6000, Note_on_c, 0, 63, 92
2, 6048, Note_off_c, 0, 63, 64
2, 6048, Note_on_c, 0, 65, 92
2, 6096, Note_off_c, 0, 65, 64
2, 6096, Note_on_c, 0, 67, 92
2, 6144, Note_off_c, 0, 67, 64
2, 6144, Note_on_c, 0, 68, 92
2, 6192, Note_off_c, 0, 68, 64
2, 6192, Note_on_c, 0, 65, 92
2, 6240, Note_off_c, 0, 65, 64
2, 6240, Note_on_c, 0, 62, 92
2, 6288, Note_off_c, 0, 62, 64
2, 6288, Note_on_c, 0, 60, 92
2, 6336, Note_off_c, 0, 60, 64
2, 6336, Note_on_c, 0, 59, 92
2, 6384, Note_off_c, 0, 59, 64
2, 6384, Note_on_c, 0, 74, 92
2, 6432, Note_off_c, 0, 74, 64
2, 6432, Note_on_c, 0, 68, 92
2, 6480, Note_off_c, 0, 68, 64
2, 6480, Note_on_c, 0, 67, 92
2, 6528, Note_off_c, 0, 67, 64
2, 6528, Note_on_c, 0, 65, 92
2, 6576, Note_off_c, 0, 65, 64
2, 6576, Note_on_c, 0, 74, 92
2, 6624, Note_off_c, 0, 74, 64
2, 6624, Note_on_c, 0, 67, 92
2, 6672, Note_off_c, 0, 67, 64
2, 6672, Note_on_c, 0, 65, 92
2, 6720, Note_off_c, 0, 65, 64
2, 6720, Note_on_c, 0, 63, 92
2, 6768, Note_off_c, 0, 63, 64
2, 6768, Note_on_c, 0, 62, 92
2, 6816, Note_off_c, 0, 62, 64
2, 6816, Note_on_c, 0, 60, 92
2, 6864, Note_off_c, 0, 60, 64
2, 6864, Note_on_c, 0, 59, 92
2, 6912, Note_off_c, 0, 59, 64
2, 6912, Note_on_c, 0, 60, 92
2, 6960, Note_off_c, 0, 60, 64
2, 6960, Note_on_c, 0, 66, 92
2, 7008, Note_off_c, 0, 66, 64
2, 7008, Note_on_c, 0, 60, 92
2, 7056, Note_off_c, 0, 60, 64
2, 7056, Note_on_c, 0, 58, 92
2, 7104, Note_off_c, 0, 58, 64
2, 8448, Note_on_c, 0, 63, 92
2, 8496, Note_off_c, 0, 63, 64
2, 8640, Note_on_c, 0, 60, 92
2, 8688, Note_off_c, 0, 60, 64
2, 8688, Note_on_c, 0, 62, 92
2, 8736, Note_off_c, 0, 62, 64
2, 8736, Note_on_c, 0, 63, 92
2, 8784, Note_off_c, 0, 63, 64
2, 8784, Note_on_c, 0, 65, 92
2, 8832, Note_off_c, 0, 65, 64
2, 8832, Note_on_c, 0, 63, 92
2, 8880, Note_off_c, 0, 63, 64
2, 8880, Note_on_c, 0, 60, 92
2, 8928, Note_off_c, 0, 60, 64
2, 8928, Note_on_c, 0, 63, 92
2, 8976, Note_off_c, 0, 63, 64
2, 8976, Note_on_c, 0, 67, 92
2, 9024, Note_off_c, 0, 67, 64
2, 9024, Note_on_c, 0, 72, 92
2, 9072, Note_off_c, 0, 72, 64
2, 9072, Note_on_c, 0, 75, 92
2, 9120, Note_off_c, 0, 75, 64
2, 9120, Note_on_c, 0, 74, 92
2, 9168, Note_off_c, 0, 74, 64
2, 9168, Note_on_c, 0, 72, 92
2, 9216, Note_off_c, 0, 72, 64
2, 9216, Note_on_c, 0, 81, 92
2, 9264, Note_off_c, 0, 81, 64
2, 9264, Note_on_c, 0, 60, 92
2, 9312, Note_off_c, 0, 60, 64
2, 9312, Note_on_c, 0, 62, 92
2, 9360, Note_off_c, 0, 62, 64
2, 9360, Note_on_c, 0, 64, 92
2, 9408, Note_off_c, 0, 64, 64
2, 9408, Note_on_c, 0, 66, 92
2, 9456, Note_off_c, 0, 66, 64
2, 9456, Note_on_c, 0, 67, 92
2, 9504, Note_off_c, 0, 67, 64
2, 9504, Note_on_c, 0, 69, 92
2, 9552, Note_off_c, 0, 69, 64
2, 9552, Note_on_c, 0, 70, 92
2, 9600, Note_off_c, 0, 70, 64
2, 9600, Note_on_c, 0, 69, 92
2, 9648, Note_off_c, 0, 69, 64
2, 9648, Note_on_c, 0, 66, 92
2, 9696, Note_off_c, 0, 66, 64
2, 9696, Note_on_c, 0, 69, 92
2, 9744, Note_off_c, 0, 69, 64
2, 9744, Note_on_c, 0, 72, 92
2, 9792, Note_off_c, 0, 72, 64
2, 9792, Note_on_c, 0, 75, 92
2, 9840, Note_off_c, 0, 75, 64
2, 9840, Note_on_c, 0, 78, 92
2, 9888, Note_off_c, 0, 78, 64
2, 9888, Note_on_c, 0, 79, 92
2, 9936, Note_off_c, 0, 79, 64
2, 9936, Note_on_c, 0, 81, 92
2, 9984, Note_off_c, 0, 81, 64
2, 9984, Note_on_c, 0, 82, 92
2, 10032, Note_off_c, 0, 82, 64
2, 10032, Note_on_c, 0, 81, 92
2, 10080, Note_off_c, 0, 81, 64
2, 10080, Note_on_c, 0, 79, 92
2, 10128, Note_off_c, 0, 79, 64
2, 10128, Note_on_c, 0, 77, 92
2, 10176, Note_off_c, 0, 77, 64
2, 10176, Note_on_c, 0, 75, 92
2, 10224, Note_off_c, 0, 75, 64
2, 10224, Note_on_c, 0, 74, 92
2, 10272, Note_off_c, 0, 74, 64
2, 10272, Note_on_c, 0, 73, 92
2, 10320, Note_off_c, 0, 73, 64
2, 10320, Note_on_c, 0, 74, 92
2, 10368, Note_off_c, 0, 74, 64
2, 10368, Note_on_c, 0, 73, 92
2, 10416, Note_off_c, 0, 73, 64
2, 10416, Note_on_c, 0, 76, 92
2, 10464, Note_off_c, 0, 76, 64
2, 10464, Note_on_c, 0, 79, 92
2, 10512, Note_off_c, 0, 79, 64
2, 10512, Note_on_c, 0, 82, 92
2, 10560, Note_off_c, 0, 82, 64
2, 10560, Note_on_c, 0, 81, 92
2, 10608, Note_off_c, 0, 81, 64
2, 10608, Note_on_c, 0, 79, 92
2, 10656, Note_off_c, 0, 79, 64
2, 10656, Note_on_c, 0, 78, 92
2, 10704, Note_off_c, 0, 78, 64
2, 10704, Note_on_c, 0, 76, 92
2, 10752, Note_off_c, 0, 76, 64
2, 10752, Note_on_c, 0, 78, 92
2, 10800, Note_off_c, 0, 78, 64
2, 10800, Note_on_c, 0, 75, 92
2, 10848, Note_off_c, 0, 75, 64
2, 10848, Note_on_c, 0, 74, 92
2, 10896, Note_off_c, 0, 74, 64
2, 10896, Note_on_c, 0, 72, 92
2, 10944, Note_off_c, 0, 72, 64
2, 10944, Note_on_c, 0, 81, 92
2, 10992, Note_on_c, 0, 72, 92
2, 11040, Note_off_c, 0, 72, 64
2, 11040, Note_on_c, 0, 70, 92
2, 11088, Note_off_c, 0, 70, 64
2, 11088, Note_on_c, 0, 69, 92
2, 11136, Note_off_c, 0, 69, 64
2, 11136, Note_on_c, 0, 70, 92
2, 11184, Note_off_c, 0, 70, 64
2, 11184, Note_on_c, 0, 74, 92
2, 11232, Note_on_c, 0, 72, 92
2, 11280, Note_off_c, 0, 72, 64
2, 11280, Note_on_c, 0, 70, 92
2, 11328, Note_off_c, 0, 81, 64
2, 11328, Note_on_c, 0, 79, 92
2, 11520, Note_off_c, 0, 74, 64
2, 11520, Note_on_c, 0, 76, 92
2, 12480, Note_off_c, 0, 76, 64
2, 12480, Note_off_c, 0, 79, 64
2, 12480, Note_off_c, 0, 70, 64
2, 12480, Note_on_c, 0, 69, 92
2, 12480, Note_on_c, 0, 74, 92
2, 12480, Note_on_c, 0, 78, 92
2, 12672, Note_off_c, 0, 78, 64
2, 12672, Note_off_c, 0, 74, 64
2, 12672, Note_off_c, 0, 69, 64
2, 12864, Note_on_c, 0, 77, 92
2, 12960, Note_off_c, 0, 77, 64
2, 12960, Note_on_c, 0, 74, 92
2, 13056, Note_off_c, 0, 74, 64
2, 13056, Note_on_c, 0, 71, 92
2, 13152, Note_off_c, 0, 71, 64
2, 13152, Note_on_c, 0, 72, 92
2, 13248, Note_off_c, 0, 72, 64
2, 13248, Note_on_c, 0, 74, 92
2, 13248, Note_on_c, 0, 68, 92
2, 13632, Note_off_c, 0, 68, 64
2, 13632, Note_on_c, 0, 67, 92
2, 13728, Note_off_c, 0, 67, 64
2, 13728, Note_on_c, 0, 65, 92
2, 14016, Note_off_c, 0, 65, 64
2, 14016, Note_off_c, 0, 74, 64
2, 14016, Note_on_c, 0, 72, 92
2, 14016, Note_on_c, 0, 63, 92
2, 14112, Note_off_c, 0, 63, 64
2, 14112, Note_off_c, 0, 72, 64
2, 14112, Note_on_c, 0, 71, 92
2, 14112, Note_on_c, 0, 62, 92
2, 14208, Note_off_c, 0, 62, 64
2, 14208, Note_off_c, 0, 71, 64
2, 14208, Note_on_c, 0, 63, 92
2, 14208, Note_on_c, 0, 72, 92
2, 14304, Note_off_c, 0, 72, 64
2, 14304, Note_on_c, 0, 74, 92
2, 14400, Note_off_c, 0, 74, 64
2, 14400, Note_off_c, 0, 63, 64
2, 14400, Note_on_c, 0, 75, 92
2, 14784, Note_on_c, 0, 72, 92
2, 14880, Note_off_c, 0, 72, 64
2, 14880, Note_on_c, 0, 69, 92
2, 14976, Note_off_c, 0, 69, 64
2, 14976, Note_on_c, 0, 66, 92
2, 15072, Note_off_c, 0, 66, 64
2, 15072, Note_on_c, 0, 67, 92
2, 15168, Note_off_c, 0, 67, 64
2, 15168, Note_off_c, 0, 75, 64
2, 15168, Note_on_c, 0, 69, 92
2, 15168, Note_on_c, 0, 74, 92
2, 15264, Note_off_c, 0, 74, 64
2, 15264, Note_on_c, 0, 72, 92
2, 15360, Note_off_c, 0, 69, 64
2, 15360, Note_on_c, 0, 62, 92
2, 15456, Note_off_c, 0, 62, 64
2, 15456, Note_on_c, 0, 66, 92
2, 15552, Note_off_c, 0, 66, 64
2, 15552, Note_off_c, 0, 72, 64
2, 15552, Note_on_c, 0, 67, 92
2, 15552, Note_on_c, 0, 70, 92
2, 15648, Note_off_c, 0, 70, 64
2, 15648, Note_on_c, 0, 69, 92
2, 15744, Note_off_c, 0, 69, 64
2, 15744, Note_on_c, 0, 70, 92
2, 15936, Note_off_c, 0, 70, 64
2, 15936, Note_off_c, 0, 67, 64
2, 15936, Note_on_c, 0, 79, 92
2, 16032, Note_off_c, 0, 79, 64
2, 16032, Note_on_c, 0, 75, 92
2, 16128, Note_off_c, 0, 75, 64
2, 16128, Note_on_c, 0, 73, 92
2, 16224, Note_off_c, 0, 73, 64
2, 16224, Note_on_c, 0, 74, 92
2, 16320, Note_off_c, 0, 74, 64
2, 16320, Note_on_c, 0, 76, 92
2, 16320, Note_on_c, 0, 67, 92
2, 16416, Note_off_c, 0, 67, 64
2, 16416, Note_on_c, 0, 64, 92
2, 16512, Note_off_c, 0, 64, 64
2, 16512, Note_on_c, 0, 61, 92
2, 16608, Note_off_c, 0, 61, 64
2, 16608, Note_on_c, 0, 62, 92
2, 16704, Note_off_c, 0, 62, 64
2, 16704, Note_on_c, 0, 64, 92
2, 16896, Note_off_c, 0, 64, 64
2, 16896, Note_on_c, 0, 57, 92
2, 16992, Note_off_c, 0, 57, 64
2, 16992, Note_on_c, 0, 61, 92
2, 17088, Note_off_c, 0, 61, 64
2, 17088, Note_off_c, 0, 76, 64
2, 17088, Note_on_c, 0, 62, 92
2, 17088, Note_on_c, 0, 74, 92
2, 17184, Note_off_c, 0, 74, 64
2, 17184, Note_on_c, 0, 73, 92
2, 17280, Note_off_c, 0, 73, 64
2, 17280, Note_off_c, 0, 62, 64
2, 17280, Note_on_c, 0, 74, 92
2, 17376, Note_off_c, 0, 74, 64
2, 17376, Note_on_c, 0, 76, 92
2, 17472, Note_off_c, 0, 76, 64
2, 17472, Note_on_c, 0, 69, 92
2, 17472, Note_on_c, 0, 77, 92
2, 17856, Note_off_c, 0, 77, 64
2, 17856, Note_off_c, 0, 69, 64
2, 17856, Note_on_c, 0, 67, 92
2, 17856, Note_on_c, 0, 76, 92
2, 17952, Note_off_c, 0, 76, 64
2, 17952, Note_on_c, 0, 74, 92
2, 18048, Note_off_c, 0, 74, 64
2, 18048, Note_on_c, 0, 76, 92
2, 18144, Note_off_c, 0, 76, 64
2, 18144, Note_on_c, 0, 73, 92
2, 18240, Note_off_c, 0, 73, 64
2, 18240, Note_on_c, 0, 74, 92
2, 18528, Note_off_c, 0, 74, 64
2, 18528, Note_on_c, 0, 71, 92
2, 18624, Note_off_c, 0, 71, 64
2, 18624, Note_on_c, 0, 73, 92
2, 18720, Note_off_c, 0, 73, 64
2, 18720, Note_on_c, 0, 76, 92
2, 18816, Note_off_c, 0, 76, 64
2, 18816, Note_on_c, 0, 69, 92
2, 18912, Note_off_c, 0, 67, 64
2, 18912, Note_on_c, 0, 67, 92
2, 19008, Note_off_c, 0, 67, 64
2, 19008, Note_on_c, 0, 65, 92
2, 19104, Note_off_c, 0, 65, 64
2, 19104, Note_on_c, 0, 64, 92
2, 19200, Note_off_c, 0, 64, 64
2, 19200, Note_on_c, 0, 65, 92
2, 19296, Note_off_c, 0, 65, 64
2, 19296, Note_on_c, 0, 61, 92
2, 19392, Note_off_c, 0, 61, 64
2, 19392, Note_on_c, 0, 62, 92
2, 19488, Note_off_c, 0, 62, 64
2, 19488, Note_on_c, 0, 65, 92
2, 19584, Note_off_c, 0, 65, 64
2, 19584, Note_off_c, 0, 69, 64
2, 19584, Note_on_c, 0, 59, 92
2, 19680, Note_on_c, 0, 65, 92
2, 19776, Note_off_c, 0, 65, 64
2, 19776, Note_on_c, 0, 64, 92
2, 19872, Note_off_c, 0, 64, 64
2, 19872, Note_on_c, 0, 62, 92
2, 19968, Note_off_c, 0, 62, 64
2, 19968, Note_off_c, 0, 59, 64
2, 19968, Note_on_c, 0, 62, 92
2, 20160, Note_off_c, 0, 62, 64
2, 20160, Note_on_c, 0, 61, 92
2, 20352, Note_off_c, 0, 61, 64
2, 20592, Note_on_c, 0, 57, 92
2, 20640, Note_off_c, 0, 57, 64
2, 20640, Note_on_c, 0, 59, 92
2, 20688, Note_off_c, 0, 59, 64
2, 20688, Note_on_c, 0, 61, 92
2, 20736, Note_off_c, 0, 61, 64
2, 20736, Note_on_c, 0, 62, 92
2, 20784, Note_off_c, 0, 62, 64
2, 20784, Note_on_c, 0, 64, 92
2, 20832, Note_off_c, 0, 64, 64
2, 20832, Note_on_c, 0, 65, 92
2, 20880, Note_off_c, 0, 65, 64
2, 20880, Note_on_c, 0, 67, 92
2, 20928, Note_off_c, 0, 67, 64
2, 20928, Note_on_c, 0, 69, 92
2, 20976, Note_off_c, 0, 69, 64
2, 20976, Note_on_c, 0, 70, 92
2, 21024, Note_off_c, 0, 70, 64
2, 21024, Note_on_c, 0, 69, 92
2, 21072, Note_off_c, 0, 69, 64
2, 21072, Note_on_c, 0, 67, 92
2, 21120, Note_off_c, 0, 67, 64
2, 21120, Note_on_c, 0, 76, 92
2, 21312, Note_on_c, 0, 67, 92
2, 21312, Note_on_c, 0, 73, 92
2, 21696, Note_off_c, 0, 73, 64
2, 21696, Note_off_c, 0, 67, 64
2, 21696, Note_off_c, 0, 76, 64
2, 21696, Note_on_c, 0, 66, 92
2, 21696, Note_on_c, 0, 71, 92
2, 21696, Note_on_c, 0, 74, 92
2, 21888, Note_off_c, 0, 74, 64
2, 21888, Note_off_c, 0, 71, 64
2, 21888, Note_off_c, 0, 66, 64
2, 21936, Note_on_c, 0, 71, 92
2, 21984, Note_off_c, 0, 71, 64
2, 21984, Note_on_c, 0, 70, 92
2, 22032, Note_off_c, 0, 70, 64
2, 22032, Note_on_c, 0, 71, 92
2, 22080, Note_off_c, 0, 71, 64
2, 22080, Note_on_c, 0, 73, 92
2, 22128, Note_off_c, 0, 73, 64
2, 22128, Note_on_c, 0, 71, 92
2, 22152, Note_off_c, 0, 71, 64
2, 22152, Note_on_c, 0, 73, 92
2, 22176, Note_off_c, 0, 73, 64
2, 22176, Note_on_c, 0, 71, 92
2, 22224, Note_off_c, 0, 71, 64
2, 22224, Note_on_c, 0, 70, 92
2, 22248, Note_off_c, 0, 70, 64
2, 22248, Note_on_c, 0, 71, 92
2, 22272, Note_off_c, 0, 71, 64
2, 22272, Note_on_c, 0, 74, 92
2, 22320, Note_off_c, 0, 74, 64
2, 22320, Note_on_c, 0, 71, 92
2, 22368, Note_off_c, 0, 71, 64
2, 22368, Note_on_c, 0, 70, 92
2, 22416, Note_off_c, 0, 70, 64
2, 22416, Note_on_c, 0, 71, 92
2, 22464, Note_off_c, 0, 71, 64
2, 22464, Note_on_c, 0, 73, 92
2, 22512, Note_off_c, 0, 73, 64
2, 22512, Note_on_c, 0, 71, 92
2, 22536, Note_off_c, 0, 71, 64
2, 22536, Note_on_c, 0, 73, 92
2, 22560, Note_off_c, 0, 73, 64
2, 22560, Note_on_c, 0, 71, 92
2, 22608, Note_off_c, 0, 71, 64
2, 22608, Note_on_c, 0, 70, 92
2, 22632, Note_off_c, 0, 70, 64
2, 22632, Note_on_c, 0, 71, 92
2, 22656, Note_off_c, 0, 71, 64
2, 22656, Note_on_c, 0, 80, 92
2, 22848, Note_on_c, 0, 77, 92
2, 22848, Note_on_c, 0, 71, 92
2, 23232, Note_off_c, 0, 71, 64
2, 23232, Note_off_c, 0, 77, 64
2, 23232, Note_off_c, 0, 80, 64
2, 23232, Note_on_c, 0, 72, 92
2, 23232, Note_on_c, 0, 75, 92
2, 23232, Note_on_c, 0, 79, 92
2, 23424, Note_off_c, 0, 75, 64
2, 23424, Note_off_c, 0, 72, 64
2, 23472, Note_off_c, 0, 79, 64
2, 23472, Note_on_c, 0, 77, 92
2, 23520, Note_off_c, 0, 77, 64
2, 23520, Note_on_c, 0, 75, 92
2, 23568, Note_off_c, 0, 75, 64
2, 23568, Note_on_c, 0, 74, 92
2, 23616, Note_off_c, 0, 74, 64
2, 23616, Note_on_c, 0, 75, 92
2, 23664, Note_off_c, 0, 75, 64
2, 23664, Note_on_c, 0, 79, 92
2, 23712, Note_off_c, 0, 79, 64
2, 23712, Note_on_c, 0, 71, 92
2, 23808, Note_off_c, 0, 71, 64
2, 23808, Note_on_c, 0, 72, 92
2, 23856, Note_off_c, 0, 72, 64
2, 23856, Note_on_c, 0, 74, 92
2, 23904, Note_off_c, 0, 74, 64
2, 23904, Note_on_c, 0, 72, 92
2, 23952, Note_off_c, 0, 72, 64
2, 23952, Note_on_c, 0, 71, 92
2, 24000, Note_off_c, 0, 71, 64
2, 24000, Note_on_c, 0, 72, 92
2, 24048, Note_off_c, 0, 72, 64
2, 24048, Note_on_c, 0, 75, 92
2, 24096, Note_off_c, 0, 75, 64
2, 24096, Note_on_c, 0, 67, 92
2, 24192, Note_off_c, 0, 67, 64
2, 24192, Note_on_c, 0, 68, 92
2, 24240, Note_off_c, 0, 68, 64
2, 24240, Note_on_c, 0, 70, 92
2, 24288, Note_off_c, 0, 70, 64
2, 24288, Note_on_c, 0, 68, 92
2, 24336, Note_off_c, 0, 68, 64
2, 24336, Note_on_c, 0, 67, 92
2, 24384, Note_off_c, 0, 67, 64
2, 24384, Note_on_c, 0, 68, 92
2, 24432, Note_off_c, 0, 68, 64
2, 24432, Note_on_c, 0, 72, 92
2, 24480, Note_off_c, 0, 72, 64
2, 24480, Note_on_c, 0, 75, 92
2, 24576, Note_off_c, 0, 75, 64
2, 24768, Note_on_c, 0, 72, 92
2, 24768, Note_on_c, 0, 75, 92
2, 24960, Note_off_c, 0, 75, 64
2, 24960, Note_off_c, 0, 72, 64
2, 24960, Note_on_c, 0, 74, 92
2, 24960, Note_on_c, 0, 70, 92
2, 25152, Note_off_c, 0, 70, 64
2, 25152, Note_on_c, 0, 72, 92
2, 25344, Note_off_c, 0, 72, 64
2, 25344, Note_on_c, 0, 70, 92
2, 25920, Note_off_c, 0, 70, 64
2, 25920, Note_off_c, 0, 74, 64
2, 25920, Note_on_c, 0, 72, 92
2, 25920, Note_on_c, 0, 69, 92
2, 26496, Note_off_c, 0, 69, 64
2, 26592, Note_off_c, 0, 72, 64
2, 26592, Note_on_c, 0, 84, 92
2, 26688, Note_off_c, 0, 84, 64
2, 26688, Note_on_c, 0, 82, 92
2, 26736, Note_off_c, 0, 82, 64
2, 26736, Note_on_c, 0, 81, 92
2, 26784, Note_off_c, 0, 81, 64
2, 26784, Note_on_c, 0, 82, 92
2, 26832, Note_off_c, 0, 82, 64
2, 26832, Note_on_c, 0, 84, 92
2, 26880, Note_off_c, 0, 84, 64
2, 26880, Note_on_c, 0, 78, 92
2, 26976, Note_off_c, 0, 78, 64
2, 26976, Note_on_c, 0, 75, 92
2, 27168, Note_off_c, 0, 75, 64
2, 27168, Note_on_c, 0, 74, 92
2, 27264, Note_off_c, 0, 74, 64
2, 27264, Note_on_c, 0, 73, 92
2, 27360, Note_off_c, 0, 73, 64
2, 27360, Note_on_c, 0, 82, 92
2, 27456, Note_off_c, 0, 82, 64
2, 27456, Note_on_c, 0, 81, 92
2, 27504, Note_off_c, 0, 81, 64
2, 27504, Note_on_c, 0, 79, 92
2, 27552, Note_off_c, 0, 79, 64
2, 27552, Note_on_c, 0, 81, 92
2, 27600, Note_off_c, 0, 81, 64
2, 27600, Note_on_c, 0, 82, 92
2, 27648, Note_off_c, 0, 82, 64
2, 27648, Note_on_c, 0, 75, 92
2, 27744, Note_off_c, 0, 75, 64
2, 27744, Note_on_c, 0, 74, 92
2, 27936, Note_off_c, 0, 74, 64
2, 27936, Note_on_c, 0, 72, 92
2, 28032, Note_off_c, 0, 72, 64
2, 28032, Note_on_c, 0, 70, 92
2, 28080, Note_on_c, 0, 69, 92
2, 28128, Note_off_c, 0, 69, 64
2, 28128, Note_on_c, 0, 67, 92
2, 28176, Note_off_c, 0, 67, 64
2, 28176, Note_on_c, 0, 66, 92
2, 28224, Note_off_c, 0, 66, 64
2, 28224, Note_off_c, 0, 70, 64
2, 28224, Note_on_c, 0, 67, 92
2, 28272, Note_on_c, 0, 70, 92
2, 28320, Note_off_c, 0, 70, 64
2, 28320, Note_on_c, 0, 69, 92
2, 28368, Note_off_c, 0, 69, 64
2, 28368, Note_off_c, 0, 67, 64
2, 28368, Note_on_c, 0, 67, 92
2, 28416, Note_off_c, 0, 67, 64
2, 28416, Note_on_c, 0, 73, 92
2, 28464, Note_on_c, 0, 70, 92
2, 28512, Note_off_c, 0, 70, 64
2, 28512, Note_on_c, 0, 69, 92
2, 28560, Note_off_c, 0, 69, 64
2, 28560, Note_on_c, 0, 67, 92
2, 28608, Note_off_c, 0, 67, 64
2, 28608, Note_off_c, 0, 73, 64
2, 28608, Note_on_c, 0, 74, 92
2, 28656, Note_on_c, 0, 70, 92
2, 28704, Note_off_c, 0, 70, 64
2, 28704, Note_on_c, 0, 69, 92
2, 28752, Note_off_c, 0, 69, 64
2, 28752, Note_on_c, 0, 67, 92
2, 28800, Note_off_c, 0, 67, 64
2, 28800, Note_off_c, 0, 74, 64
2, 28800, Note_on_c, 0, 76, 92
2, 28992, Note_off_c, 0, 76, 64
2, 28992, Note_on_c, 0, 61, 92
2, 28992, Note_on_c, 0, 63, 92
2, 28992, Note_on_c, 0, 67, 92
2, 29376, Note_off_c, 0, 67, 64
2, 29376, Note_off_c, 0, 63, 64
2, 29376, Note_off_c, 0, 61, 64
2, 29376, Note_on_c, 0, 62, 92
2, 29376, Note_on_c, 0, 66, 92
2, 29568, Note_off_c, 0, 66, 64
2, 29568, Note_off_c, 0, 62, 64
2, 29664, Note_on_c, 0, 62, 92
2, 29712, Note_off_c, 0, 62, 64
2, 29712, Note_on_c, 0, 64, 92
2, 29760, Note_off_c, 0, 64, 64
2, 29760, Note_on_c, 0, 66, 92
2, 29856, Note_off_c, 0, 66, 64
2, 29856, Note_on_c, 0, 66, 92
2, 29904, Note_off_c, 0, 66, 64
2, 29904, Note_on_c, 0, 67, 92
2, 29952, Note_off_c, 0, 67, 64
2, 29952, Note_on_c, 0, 69, 92
2, 30048, Note_off_c, 0, 69, 64
2, 30048, Note_on_c, 0, 69, 92
2, 30096, Note_off_c, 0, 69, 64
2, 30096, Note_on_c, 0, 70, 92
2, 30144, Note_off_c, 0, 70, 64
2, 30144, Note_on_c, 0, 72, 92
2, 30240, Note_off_c, 0, 72, 64
2, 30528, Note_on_c, 0, 78, 92
2, 30528, Note_on_c, 0, 75, 92
2, 30624, Note_off_c, 0, 75, 64
2, 30624, Note_on_c, 0, 74, 92
2, 30720, Note_off_c, 0, 74, 64
2, 30720, Note_on_c, 0, 75, 92
2, 31296, Note_off_c, 0, 75, 64
2, 31296, Note_off_c, 0, 78, 64
2, 31296, Note_on_c, 0, 74, 92
2, 31296, Note_on_c, 0, 77, 92
2, 31680, Note_off_c, 0, 77, 64
2, 31680, Note_off_c, 0, 74, 64
2, 31680, Note_on_c, 0, 75, 92
2, 31872, Note_on_c, 0, 80, 92
2, 32064, Note_off_c, 0, 75, 64
2, 32064, Note_on_c, 0, 74, 92
2, 32256, Note_off_c, 0, 74, 64
2, 32256, Note_off_c, 0, 80, 64
2, 32256, Note_on_c, 0, 75, 92
2, 32256, Note_on_c, 0, 82, 92
2, 32640, Note_off_c, 0, 82, 64
2, 32640, Note_off_c, 0, 75, 64
2, 32640, Note_on_c, 0, 77, 92
2, 32640, Note_on_c, 0, 80, 92
2, 33216, Note_off_c, 0, 80, 64
2, 33216, Note_off_c, 0, 77, 64
2, 33216, Note_on_c, 0, 75, 92
2, 33216, Note_on_c, 0, 78, 92
2, 33312, Note_off_c, 0, 78, 64
2, 33312, Note_off_c, 0, 75, 64
2, 33312, Note_on_c, 0, 74, 92
2, 33312, Note_on_c, 0, 77, 92
2, 33408, Note_off_c, 0, 77, 64
2, 33408, Note_off_c, 0, 74, 64
2, 33408, Note_on_c, 0, 75, 92
2, 33408, Note_on_c, 0, 78, 92
2, 33984, Note_off_c, 0, 78, 64
2, 33984, Note_off_c, 0, 75, 64
2, 33984, Note_on_c, 0, 77, 92
2, 33984, Note_on_c, 0, 73, 92
2, 34080, Note_off_c, 0, 73, 64
2, 34080, Note_on_c, 0, 72, 92
2, 34176, Note_off_c, 0, 72, 64
2, 34176, Note_on_c, 0, 71, 92
2, 34656, Note_off_c, 0, 71, 64
2, 34656, Note_on_c, 0, 71, 92
2, 34752, Note_off_c, 0, 71, 64
2, 34752, Note_on_c, 0, 72, 92
2, 34848, Note_off_c, 0, 77, 64
2, 34848, Note_on_c, 0, 75, 92
2, 34944, Note_off_c, 0, 75, 64
2, 34944, Note_on_c, 0, 79, 92
2, 35136, Note_off_c, 0, 72, 64
2, 35136, Note_on_c, 0, 73, 92
2, 35520, Note_off_c, 0, 73, 64
2, 35520, Note_off_c, 0, 79, 64
2, 35520, Note_on_c, 0, 72, 92
2, 35520, Note_on_c, 0, 77, 92
2, 35712, Note_off_c, 0, 77, 64
2, 35712, Note_off_c, 0, 72, 64
2, 35808, Note_on_c, 0, 65, 92
2, 35856, Note_off_c, 0, 65, 64
2, 35856, Note_on_c, 0, 67, 92
2, 35904, Note_off_c, 0, 67, 64
2, 35904, Note_on_c, 0, 68, 92
2, 35952, Note_off_c, 0, 68, 64
2, 35952, Note_on_c, 0, 70, 92
2, 36000, Note_off_c, 0, 70, 64
2, 36000, Note_on_c, 0, 72, 92
2, 36048, Note_off_c, 0, 72, 64
2, 36048, Note_on_c, 0, 74, 92
2, 36096, Note_off_c, 0, 74, 64
2, 36096, Note_on_c, 0, 75, 92
2, 36144, Note_off_c, 0, 75, 64
2, 36144, Note_on_c, 0, 74, 92
2, 36192, Note_off_c, 0, 74, 64
2, 36192, Note_on_c, 0, 72, 92
2, 36240, Note_off_c, 0, 72, 64
2, 36240, Note_on_c, 0, 71, 92
2, 36288, Note_off_c, 0, 71, 64
2, 36288, Note_on_c, 0, 72, 92
2, 36336, Note_off_c, 0, 72, 64
2, 36336, Note_on_c, 0, 78, 92
2, 36384, Note_off_c, 0, 78, 64
2, 36384, Note_on_c, 0, 79, 92
2, 36432, Note_off_c, 0, 79, 64
2, 36432, Note_on_c, 0, 81, 92
2, 36480, Note_off_c, 0, 81, 64
2, 36480, Note_on_c, 0, 79, 92
2, 36528, Note_off_c, 0, 79, 64
2, 36528, Note_on_c, 0, 78, 92
2, 36576, Note_off_c, 0, 78, 64
2, 36576, Note_on_c, 0, 76, 92
2, 36624, Note_off_c, 0, 76, 64
2, 36624, Note_on_c, 0, 74, 92
2, 36672, Note_off_c, 0, 74, 64
2, 36672, Note_on_c, 0, 86, 92
2, 36768, Note_off_c, 0, 86, 64
2, 36768, Note_on_c, 0, 72, 92
2, 36768, Note_on_c, 0, 78, 92
2, 36864, Note_off_c, 0, 78, 64
2, 36864, Note_off_c, 0, 72, 64
2, 36864, Note_on_c, 0, 72, 92
2, 36864, Note_on_c, 0, 78, 92
2, 37056, Note_off_c, 0, 78, 64
2, 37056, Note_off_c, 0, 72, 64
2, 37056, Note_on_c, 0, 71, 92
2, 37056, Note_on_c, 0, 79, 92
2, 37248, Note_off_c, 0, 79, 64
2, 37248, Note_off_c, 0, 71, 64
2, 37824, Note_on_c, 0, 73, 92
2, 37824, Note_on_c, 0, 82, 92
2, 37920, Note_off_c, 0, 82, 64
2, 37920, Note_on_c, 0, 79, 92
2, 38016, Note_off_c, 0, 79, 64
2, 38016, Note_on_c, 0, 76, 92
2, 38112, Note_off_c, 0, 76, 64
2, 38112, Note_on_c, 0, 77, 92
2, 38208, Note_off_c, 0, 77, 64
2, 38208, Note_off_c, 0, 73, 64
2, 38208, Note_on_c, 0, 79, 92
2, 38208, Note_on_c, 0, 72, 92
2, 38304, Note_off_c, 0, 72, 64
2, 38304, Note_on_c, 0, 70, 92
2, 38400, Note_off_c, 0, 70, 64
2, 38400, Note_off_c, 0, 79, 64
2, 38400, Note_on_c, 0, 70, 92
2, 38400, Note_on_c, 0, 72, 92
2, 38496, Note_off_c, 0, 72, 64
2, 38496, Note_on_c, 0, 76, 92
2, 38592, Note_off_c, 0, 76, 64
2, 38592, Note_off_c, 0, 70, 64
2, 38592, Note_on_c, 0, 77, 92
2, 38592, Note_on_c, 0, 68, 92
2, 38688, Note_off_c, 0, 68, 64
2, 38688, Note_on_c, 0, 67, 92
2, 38784, Note_off_c, 0, 67, 64
2, 38784, Note_on_c, 0, 68, 92
2, 38880, Note_off_c, 0, 77, 64
2, 38880, Note_on_c, 0, 79, 92
2, 38976, Note_off_c, 0, 79, 64
2, 38976, Note_off_c, 0, 68, 64
2, 38976, Note_on_c, 0, 80, 92
2, 38976, Note_on_c, 0, 77, 92
2, 39072, Note_off_c, 0, 77, 64
2, 39072, Note_on_c, 0, 74, 92
2, 39168, Note_off_c, 0, 74, 64
2, 39168, Note_on_c, 0, 71, 92
2, 39264, Note_off_c, 0, 71, 64
2, 39264, Note_on_c, 0, 72, 92
2, 39360, Note_off_c, 0, 72, 64
2, 39360, Note_on_c, 0, 74, 92
2, 39744, Note_off_c, 0, 80, 64
2, 39744, Note_on_c, 0, 79, 92
2, 39840, Note_off_c, 0, 79, 64
2, 39840, Note_on_c, 0, 77, 92
2, 39936, Note_off_c, 0, 77, 64
2, 39936, Note_on_c, 0, 77, 92
2, 40128, Note_off_c, 0, 77, 64
2, 40128, Note_off_c, 0, 74, 64
2, 40128, Note_on_c, 0, 72, 92
2, 40128, Note_on_c, 0, 75, 92
2, 40224, Note_off_c, 0, 75, 64
2, 40224, Note_off_c, 0, 72, 64
2, 40224, Note_on_c, 0, 71, 92
2, 40224, Note_on_c, 0, 74, 92
2, 40320, Note_off_c, 0, 74, 64
2, 40320, Note_off_c, 0, 71, 64
2, 40320, Note_on_c, 0, 75, 92
2, 40320, Note_on_c, 0, 72, 92
2, 40416, Note_off_c, 0, 72, 64
2, 40416, Note_on_c, 0, 74, 92
2, 40512, Note_off_c, 0, 74, 64
2, 40512, Note_off_c, 0, 75, 64
2, 40512, Note_on_c, 0, 75, 92
2, 40608, Note_off_c, 0, 75, 64
2, 40608, Note_on_c, 0, 72, 92
2, 40704, Note_off_c, 0, 72, 64
2, 40704, Note_on_c, 0, 66, 92
2, 40800, Note_off_c, 0, 66, 64
2, 40800, Note_on_c, 0, 67, 92
2, 40896, Note_off_c, 0, 67, 64
2, 40896, Note_on_c, 0, 69, 92
2, 40896, Note_on_c, 0, 84, 92
2, 40992, Note_off_c, 0, 84, 64
2, 40992, Note_on_c, 0, 81, 92
2, 41088, Note_off_c, 0, 81, 64
2, 41088, Note_on_c, 0, 78, 92
2, 41184, Note_off_c, 0, 78, 64
2, 41184, Note_on_c, 0, 79, 92
2, 41280, Note_off_c, 0, 79, 64
2, 41280, Note_on_c, 0, 81, 92
2, 41472, Note_off_c, 0, 81, 64
2, 41472, Note_on_c, 0, 74, 92
2, 41664, Note_off_c, 0, 74, 64
2, 41664, Note_off_c, 0, 69, 64
2, 41664, Note_on_c, 0, 82, 92
2, 41664, Note_on_c, 0, 74, 92
2, 41760, Note_off_c, 0, 74, 64
2, 41760, Note_on_c, 0, 70, 92
2, 41856, Note_off_c, 0, 70, 64
2, 41856, Note_on_c, 0, 67, 92
2, 41952, Note_off_c, 0, 67, 64
2, 41952, Note_off_c, 0, 82, 64
2, 41952, Note_on_c, 0, 81, 92
2, 41952, Note_on_c, 0, 69, 92
2, 42048, Note_off_c, 0, 69, 64
2, 42048, Note_off_c, 0, 81, 64
2, 42048, Note_on_c, 0, 70, 92
2, 42048, Note_on_c, 0, 79, 92
2, 42144, Note_off_c, 0, 79, 64
2, 42144, Note_on_c, 0, 77, 92
2, 42240, Note_off_c, 0, 77, 64
2, 42240, Note_on_c, 0, 75, 92
2, 42336, Note_off_c, 0, 70, 64
2, 42336, Note_on_c, 0, 67, 92
2, 42432, Note_off_c, 0, 67, 64
2, 42432, Note_on_c, 0, 72, 92
2, 42720, Note_off_c, 0, 72, 64
2, 42720, Note_on_c, 0, 70, 92
2, 42816, Note_off_c, 0, 70, 64
2, 42816, Note_on_c, 0, 69, 92
2, 42912, Note_off_c, 0, 69, 64
2, 42912, Note_on_c, 0, 67, 92
2, 43008, Note_off_c, 0, 67, 64
2, 43008, Note_on_c, 0, 66, 92
2, 43200, Note_off_c, 0, 66, 64
2, 43200, Note_off_c, 0, 75, 64
2, 43200, Note_on_c, 0, 74, 92
2, 43200, Note_on_c, 0, 67, 92
2, 43296, Note_off_c, 0, 67, 64
2, 43296, Note_off_c, 0, 74, 64
2, 43296, Note_on_c, 0, 72, 92
2, 43296, Note_on_c, 0, 69, 92
2, 43392, Note_off_c, 0, 69, 64
2, 43392, Note_off_c, 0, 72, 64
2, 43392, Note_on_c, 0, 70, 92
2, 43488, Note_on_c, 0, 72, 92
2, 43584, Note_off_c, 0, 72, 64
2, 43584, Note_on_c, 0, 74, 92
2, 43968, Note_off_c, 0, 74, 64
2, 43968, Note_off_c, 0, 70, 64
2, 43968, Note_on_c, 0, 72, 92
2, 43968, Note_on_c, 0, 69, 92
2, 44064, Note_off_c, 0, 69, 64
2, 44064, Note_on_c, 0, 67, 92
2, 44160, Note_off_c, 0, 67, 64
2, 44160, Note_on_c, 0, 69, 92
2, 44256, Note_off_c, 0, 69, 64
2, 44256, Note_on_c, 0, 66, 92
2, 44352, Note_off_c, 0, 66, 64
2, 44352, Note_on_c, 0, 67, 92
2, 44640, Note_off_c, 0, 67, 64
2, 44640, Note_on_c, 0, 64, 92
2, 44736, Note_off_c, 0, 64, 64
2, 44736, Note_on_c, 0, 66, 92
2, 44832, Note_off_c, 0, 66, 64
2, 44832, Note_on_c, 0, 69, 92
2, 44928, Note_off_c, 0, 69, 64
2, 44928, Note_on_c, 0, 62, 92
2, 45024, Note_off_c, 0, 72, 64
2, 45024, Note_on_c, 0, 72, 92
2, 45120, Note_off_c, 0, 72, 64
2, 45120, Note_on_c, 0, 70, 92
2, 45216, Note_off_c, 0, 70, 64
2, 45216, Note_on_c, 0, 69, 92
2, 45312, Note_off_c, 0, 69, 64
2, 45312, Note_on_c, 0, 70, 92
2, 45408, Note_off_c, 0, 70, 64
2, 45408, Note_on_c, 0, 66, 92
2, 45504, Note_off_c, 0, 66, 64
2, 45504, Note_on_c, 0, 67, 92
2, 45600, Note_off_c, 0, 67, 64
2, 45600, Note_on_c, 0, 70, 92
2, 45696, Note_off_c, 0, 70, 64
2, 45696, Note_off_c, 0, 62, 64
2, 45696, Note_on_c, 0, 73, 92
2, 45792, Note_on_c, 0, 70, 92
2, 45888, Note_off_c, 0, 70, 64
2, 45888, Note_on_c, 0, 69, 92
2, 45984, Note_off_c, 0, 69, 64
2, 45984, Note_on_c, 0, 67, 92
2, 46080, Note_off_c, 0, 73, 64
2, 46080, Note_on_c, 0, 74, 92
2, 46176, Note_off_c, 0, 67, 64
2, 46176, Note_on_c, 0, 64, 92
2, 46272, Note_off_c, 0, 64, 64
2, 46272, Note_on_c, 0, 66, 92
2, 46464, Note_off_c, 0, 66, 64
2, 46464, Note_off_c, 0, 74, 64
2, 46464, Note_on_c, 0, 69, 92
2, 46464, Note_on_c, 0, 66, 92
2, 46848, Note_off_c, 0, 66, 64
2, 46848, Note_off_c, 0, 69, 64
2, 46848, Note_on_c, 0, 67, 92
2, 46848, Note_on_c, 0, 70, 92
2, 47232, Note_off_c, 0, 70, 64
2, 47232, Note_on_c, 0, 71, 92
2, 47616, Note_off_c, 0, 71, 64
2, 47616, Note_on_c, 0, 72, 92
2, 48000, Note_off_c, 0, 67, 64
2, 48000, Note_on_c, 0, 67, 92
2, 48384, Note_off_c, 0, 67, 64
2, 48384, Note_on_c, 0, 68, 92
2, 48768, Note_off_c, 0, 68, 64
2, 48768, Note_off_c, 0, 72, 64
2, 48768, Note_on_c, 0, 72, 92
2, 48768, Note_on_c, 0, 69, 92
2, 49152, Note_off_c, 0, 69, 64
2, 49152, Note_off_c, 0, 72, 64
2, 49152, Note_on_c, 0, 70, 92
2, 49152, Note_on_c, 0, 73, 92
2, 49536, Note_off_c, 0, 73, 64
2, 49536, Note_on_c, 0, 74, 92
2, 49920, Note_off_c, 0, 74, 64
2, 49920, Note_on_c, 0, 75, 92
2, 50688, Note_off_c, 0, 70, 64
2, 50688, Note_on_c, 0, 68, 92
2, 51072, Note_on_c, 0, 63, 92
2, 51456, Note_off_c, 0, 63, 64
2, 51456, Note_off_c, 0, 75, 64
2, 51456, Note_on_c, 0, 64, 92
2, 51456, Note_on_c, 0, 73, 92
2, 51840, Note_off_c, 0, 64, 64
2, 51840, Note_on_c, 0, 65, 92
2, 52224, Note_off_c, 0, 65, 64
2, 52224, Note_off_c, 0, 73, 64
2, 52224, Note_off_c, 0, 68, 64
2, 52224, Note_on_c, 0, 76, 92
2, 52224, Note_on_c, 0, 73, 92
2, 52224, Note_on_c, 0, 67, 92
2, 52608, Note_off_c, 0, 67, 64
2, 52608, Note_off_c, 0, 73, 64
2, 52608, Note_off_c, 0, 76, 64
2, 52800, Note_on_c, 0, 67, 92
2, 52800, Note_on_c, 0, 73, 92
2, 52800, Note_on_c, 0, 76, 92
2, 52992, Note_off_c, 0, 76, 64
2, 52992, Note_off_c, 0, 73, 64
2, 52992, Note_off_c, 0, 67, 64
2, 52992, Note_on_c, 0, 66, 92
2, 52992, Note_on_c, 0, 69, 92
2, 52992, Note_on_c, 0, 75, 92
2, 53376, Note_off_c, 0, 75, 64
2, 53376, Note_off_c, 0, 69, 64
2, 53376, Note_off_c, 0, 66, 64
2, 53376, Note_on_c, 0, 76, 92
2, 53376, Note_on_c, 0, 64, 92
2, 53376, Note_on_c, 0, 70, 92
2, 53568, Note_off_c, 0, 64, 64
2, 53568, Note_on_c, 0, 66, 92
2, 53760, Note_off_c, 0, 66, 64
2, 53760, Note_off_c, 0, 70, 64
2, 53760, Note_on_c, 0, 71, 92
2, 53760, Note_on_c, 0, 67, 92
2, 54144, Note_off_c, 0, 71, 64
2, 54144, Note_on_c, 0, 69, 92
2, 54336, Note_off_c, 0, 67, 64
2, 54336, Note_off_c, 0, 76, 64
2, 54336, Note_on_c, 0, 66, 92
2, 54336, Note_on_c, 0, 75, 92
2, 54528, Note_off_c, 0, 66, 64
2, 54528, Note_off_c, 0, 69, 64
2, 54528, Note_on_c, 0, 67, 92
2, 54720, Note_off_c, 0, 75, 64
2, 54720, Note_on_c, 0, 76, 92
2, 54912, Note_off_c, 0, 67, 64
2, 54912, Note_on_c, 0, 66, 92
2, 54912, Note_on_c, 0, 72, 92
2, 55104, Note_off_c, 0, 76, 64
2, 55104, Note_on_c, 0, 75, 92
2, 55296, Note_off_c, 0, 75, 64
2, 55296, Note_off_c, 0, 72, 64
2, 55296, Note_off_c, 0, 66, 64
2, 55296, Note_on_c, 0, 67, 92
2, 55296, Note_on_c, 0, 71, 92
2, 55296, Note_on_c, 0, 76, 92
2, 55680, Note_off_c, 0, 76, 64
2, 55680, Note_off_c, 0, 71, 64
2, 55680, Note_off_c, 0, 67, 64
2, 55680, Note_on_c, 0, 69, 92
2, 55680, Note_on_c, 0, 72, 92
2, 55680, Note_on_c, 0, 78, 92
2, 55680, Note_on_c, 0, 66, 92
2, 56064, Note_off_c, 0, 66, 64
2, 56256, Note_off_c, 0, 78, 64
2, 56256, Note_off_c, 0, 72, 64
2, 56256, Note_off_c, 0, 69, 64
2, 56256, Note_on_c, 0, 71, 92
2, 56256, Note_on_c, 0, 67, 92
2, 56256, Note_on_c, 0, 76, 92
2, 56352, Note_off_c, 0, 76, 64
2, 56352, Note_off_c, 0, 67, 64
2, 56352, Note_on_c, 0, 66, 92
2, 56352, Note_on_c, 0, 75, 92
2, 56448, Note_off_c, 0, 75, 64
2, 56448, Note_off_c, 0, 66, 64
2, 56448, Note_off_c, 0, 71, 64
2, 56448, Note_on_c, 0, 67, 92
2, 56448, Note_on_c, 0, 70, 92
2, 56448, Note_on_c, 0, 76, 92
2, 56448, Note_on_c, 0, 64, 92
2, 56832, Note_off_c, 0, 64, 64
2, 57024, Note_off_c, 0, 76, 64
2, 57024, Note_off_c, 0, 70, 64
2, 57024, Note_off_c, 0, 67, 64
2, 57024, Note_on_c, 0, 66, 92
2, 57024, Note_on_c, 0, 71, 92
2, 57024, Note_on_c, 0, 74, 92
2, 57216, Note_off_c, 0, 74, 64
2, 57216, Note_off_c, 0, 71, 64
2, 57216, Note_off_c, 0, 66, 64
2, 57216, Note_on_c, 0, 78, 92
2, 57408, Note_on_c, 0, 72, 92
2, 57408, Note_on_c, 0, 69, 92
2, 57600, Note_off_c, 0, 69, 64
2, 57600, Note_off_c, 0, 72, 64
2, 57600, Note_on_c, 0, 68, 92
2, 57600, Note_on_c, 0, 71, 92
2, 57792, Note_off_c, 0, 78, 64
2, 57792, Note_on_c, 0, 76, 92
2, 57888, Note_off_c, 0, 76, 64
2, 57888, Note_on_c, 0, 78, 92
2, 57984, Note_off_c, 0, 78, 64
2, 57984, Note_off_c, 0, 68, 64
2, 57984, Note_on_c, 0, 80, 92
2, 58176, Note_off_c, 0, 71, 64
2, 58176, Note_on_c, 0, 74, 92
2, 58464, Note_off_c, 0, 80, 64
2, 58464, Note_on_c, 0, 79, 92
2, 58560, Note_off_c, 0, 79, 64
2, 58560, Note_on_c, 0, 77, 92
2, 58656, Note_off_c, 0, 77, 64
2, 58656, Note_on_c, 0, 80, 92
2, 58752, Note_off_c, 0, 80, 64
2, 58752, Note_on_c, 0, 79, 92
2, 58848, Note_off_c, 0, 79, 64
2, 58848, Note_on_c, 0, 77, 92
2, 58944, Note_off_c, 0, 77, 64
2, 58944, Note_on_c, 0, 75, 92
2, 59040, Note_off_c, 0, 75, 64
2, 59040, Note_off_c, 0, 74, 64
2, 59040, Note_on_c, 0, 74, 92
2, 59136, Note_on_c, 0, 75, 92
2, 59232, Note_off_c, 0, 74, 64
2, 59232, Note_on_c, 0, 72, 92
2, 59328, Note_off_c, 0, 72, 64
2, 59328, Note_on_c, 0, 71, 92
2, 59424, Note_off_c, 0, 71, 64
2, 59424, Note_on_c, 0, 74, 92
2, 59520, Note_off_c, 0, 74, 64
2, 59520, Note_on_c, 0, 72, 92
2, 59616, Note_off_c, 0, 72, 64
2, 59616, Note_on_c, 0, 70, 92
2, 59712, Note_off_c, 0, 70, 64
2, 59712, Note_on_c, 0, 69, 92
2, 59808, Note_off_c, 0, 69, 64
2, 59808, Note_on_c, 0, 67, 92
2, 59904, Note_off_c, 0, 67, 64
2, 59904, Note_on_c, 0, 66, 92
2, 60096, Note_off_c, 0, 66, 64
2, 60096, Note_on_c, 0, 69, 92
2, 60288, Note_off_c, 0, 75, 64
2, 60288, Note_on_c, 0, 74, 92
2, 60384, Note_off_c, 0, 69, 64
2, 60384, Note_on_c, 0, 72, 92
2, 60480, Note_off_c, 0, 72, 64
2, 60480, Note_on_c, 0, 70, 92
2, 60576, Note_off_c, 0, 70, 64
2, 60576, Note_on_c, 0, 69, 92
2, 60672, Note_off_c, 0, 69, 64
2, 60672, Note_on_c, 0, 67, 92
2, 60768, Note_off_c, 0, 74, 64
2, 60768, Note_on_c, 0, 72, 92
2, 60864, Note_off_c, 0, 72, 64
2, 60864, Note_off_c, 0, 67, 64
2, 60864, Note_on_c, 0, 66, 92
2, 60864, Note_on_c, 0, 70, 92
2, 60960, Note_off_c, 0, 70, 64
2, 60960, Note_on_c, 0, 74, 92
2, 61056, Note_off_c, 0, 74, 64
2, 61056, Note_off_c, 0, 66, 64
2, 61056, Note_on_c, 0, 67, 92
2, 61056, Note_on_c, 0, 72, 92
2, 61152, Note_off_c, 0, 72, 64
2, 61152, Note_on_c, 0, 70, 92
2, 61248, Note_off_c, 0, 70, 64
2, 61248, Note_off_c, 0, 67, 64
2, 61248, Note_on_c, 0, 63, 92
2, 61248, Note_on_c, 0, 69, 92
2, 61344, Note_off_c, 0, 69, 64
2, 61344, Note_on_c, 0, 67, 92
2, 61440, Note_off_c, 0, 67, 64
2, 61440, Note_off_c, 0, 63, 64
2, 61440, Note_on_c, 0, 62, 92
2, 61440, Note_on_c, 0, 66, 92
2, 61632, Note_off_c, 0, 66, 64
2, 61632, Note_on_c, 0, 69, 92
2, 61824, Note_off_c, 0, 69, 64
2, 61824, Note_on_c, 0, 67, 92
2, 62016, Note_off_c, 0, 67, 64
2, 62016, Note_on_c, 0, 70, 92
2, 62208, Note_off_c, 0, 62, 64
2, 62208, Note_on_c, 0, 63, 92
2, 62304, Note_off_c, 0, 70, 64
2, 62304, Note_on_c, 0, 75, 92
2, 62448, Note_off_c, 0, 75, 64
2, 62448, Note_on_c, 0, 74, 92
2, 62496, Note_off_c, 0, 74, 64
2, 62496, Note_on_c, 0, 72, 92
2, 62544, Note_off_c, 0, 72, 64
2, 62544, Note_on_c, 0, 71, 92
2, 62592, Note_off_c, 0, 71, 64
2, 62592, Note_off_c, 0, 63, 64
2, 62592, Note_on_c, 0, 72, 92
2, 62640, Note_off_c, 0, 72, 64
2, 62640, Note_on_c, 0, 70, 92
2, 62688, Note_off_c, 0, 70, 64
2, 62688, Note_on_c, 0, 68, 92
2, 62736, Note_off_c, 0, 68, 64
2, 62736, Note_on_c, 0, 67, 92
2, 62784, Note_off_c, 0, 67, 64
2, 62784, Note_on_c, 0, 63, 92
2, 62784, Note_on_c, 0, 68, 92
2, 62832, Note_off_c, 0, 68, 64
2, 62832, Note_on_c, 0, 72, 92
2, 62880, Note_off_c, 0, 72, 64
2, 62880, Note_on_c, 0, 70, 92
2, 62928, Note_off_c, 0, 70, 64
2, 62928, Note_on_c, 0, 68, 92
2, 62976, Note_off_c, 0, 68, 64
2, 62976, Note_off_c, 0, 63, 64
2, 62976, Note_on_c, 0, 62, 92
2, 62976, Note_on_c, 0, 67, 92
2, 63024, Note_off_c, 0, 67, 64
2, 63024, Note_on_c, 0, 66, 92
2, 63072, Note_off_c, 0, 66, 64
2, 63072, Note_on_c, 0, 75, 92
2, 63168, Note_off_c, 0, 62, 64
2, 63264, Note_off_c, 0, 75, 64
2, 63264, Note_on_c, 0, 74, 92
2, 63312, Note_off_c, 0, 74, 64
2, 63312, Note_on_c, 0, 73, 92
2, 63360, Note_off_c, 0, 73, 64
2, 63360, Note_on_c, 0, 82, 92
2, 63408, Note_off_c, 0, 82, 64
2, 63408, Note_on_c, 0, 81, 92
2, 63456, Note_off_c, 0, 81, 64
2, 63456, Note_on_c, 0, 79, 92
2, 63504, Note_off_c, 0, 79, 64
2, 63504, Note_on_c, 0, 78, 92
2, 63552, Note_off_c, 0, 78, 64
2, 63552, Note_on_c, 0, 79, 92
2, 63600, Note_off_c, 0, 79, 64
2, 63600, Note_on_c, 0, 81, 92
2, 63648, Note_off_c, 0, 81, 64
2, 63648, Note_on_c, 0, 78, 92
2, 63696, Note_off_c, 0, 78, 64
2, 63696, Note_on_c, 0, 79, 92
2, 63792, Note_off_c, 0, 79, 64
2, 63792, Note_on_c, 0, 81, 92
2, 63840, Note_off_c, 0, 81, 64
2, 63840, Note_on_c, 0, 82, 92
2, 63984, Note_off_c, 0, 82, 64
2, 63984, Note_on_c, 0, 81, 92
2, 64032, Note_off_c, 0, 81, 64
2, 64032, Note_on_c, 0, 79, 92
2, 64080, Note_off_c, 0, 79, 64
2, 64080, Note_on_c, 0, 78, 92
2, 64128, Note_off_c, 0, 78, 64
2, 64128, Note_on_c, 0, 79, 92
2, 64176, Note_off_c, 0, 79, 64
2, 64176, Note_on_c, 0, 77, 92
2, 64224, Note_off_c, 0, 77, 64
2, 64224, Note_on_c, 0, 76, 92
2, 64272, Note_off_c, 0, 76, 64
2, 64272, Note_on_c, 0, 77, 92
2, 64320, Note_off_c, 0, 77, 64
2, 64320, Note_on_c, 0, 67, 92
2, 64320, Note_on_c, 0, 75, 92
2, 64368, Note_off_c, 0, 75, 64
2, 64368, Note_on_c, 0, 74, 92
2, 64416, Note_off_c, 0, 74, 64
2, 64416, Note_on_c, 0, 73, 92
2, 64464, Note_off_c, 0, 73, 64
2, 64464, Note_on_c, 0, 74, 92
2, 64512, Note_off_c, 0, 67, 64
2, 64512, Note_on_c, 0, 69, 92
2, 64608, Note_off_c, 0, 74, 64
2, 64608, Note_on_c, 0, 72, 92
2, 64656, Note_off_c, 0, 72, 64
2, 64656, Note_on_c, 0, 71, 92
2, 64704, Note_off_c, 0, 71, 64
2, 64704, Note_off_c, 0, 69, 64
2, 64704, Note_on_c, 0, 66, 92
2, 64704, Note_on_c, 0, 72, 92
2, 64896, Note_off_c, 0, 66, 64
2, 64896, Note_on_c, 0, 62, 92
2, 64944, Note_off_c, 0, 72, 64
2, 64944, Note_on_c, 0, 70, 92
2, 64992, Note_off_c, 0, 70, 64
2, 64992, Note_on_c, 0, 69, 92
2, 65088, Note_off_c, 0, 69, 64
2, 65088, Note_off_c, 0, 62, 64
2, 65088, Note_on_c, 0, 64, 92
2, 65088, Note_on_c, 0, 70, 92
2, 65136, Note_off_c, 0, 70, 64
2, 65136, Note_on_c, 0, 69, 92
2, 65184, Note_off_c, 0, 69, 64
2, 65184, Note_on_c, 0, 67, 92
2, 65280, Note_off_c, 0, 64, 64
2, 65280, Note_on_c, 0, 62, 92
2, 65328, Note_off_c, 0, 67, 64
2, 65328, Note_on_c, 0, 66, 92
2, 65376, Note_off_c, 0, 66, 64
2, 65376, Note_on_c, 0, 64, 92
2, 65424, Note_off_c, 0, 64, 64
2, 65424, Note_on_c, 0, 66, 92
2, 65472, Note_off_c, 0, 66, 64
2, 65472, Note_on_c, 0, 67, 92
2, 65520, Note_off_c, 0, 67, 64
2, 65520, Note_on_c, 0, 72, 92
2, 65568, Note_off_c, 0, 72, 64
2, 65568, Note_on_c, 0, 69, 92
2, 65664, Note_off_c, 0, 69, 64
2, 65664, Note_on_c, 0, 67, 92
2, 65856, Note_off_c, 0, 67, 64
2, 65856, Note_on_c, 0, 66, 92
2, 65952, Note_off_c, 0, 62, 64
2, 65952, Note_on_c, 0, 63, 92
2, 66000, Note_off_c, 0, 66, 64
2, 66000, Note_on_c, 0, 67, 92
2, 66048, Note_off_c, 0, 67, 64
2, 66048, Note_off_c, 0, 63, 64
2, 66048, Note_on_c, 0, 67, 92
2, 66048, Note_on_c, 0, 62, 92
2, 66048, Note_on_c, 0, 65, 92
2, 66240, Note_off_c, 0, 65, 64
2, 66240, Note_off_c, 0, 62, 64
2, 66240, Note_on_c, 0, 61, 92
2, 66240, Note_on_c, 0, 64, 92
2, 66432, Note_off_c, 0, 64, 64
2, 66432, Note_off_c, 0, 61, 64
2, 66432, Note_off_c, 0, 67, 64
2, 66480, Note_on_c, 0, 64, 92
2, 66528, Note_off_c, 0, 64, 64
2, 66528, Note_on_c, 0, 63, 92
2, 66576, Note_off_c, 0, 63, 64
2, 66576, Note_on_c, 0, 64, 92
2, 66624, Note_off_c, 0, 64, 64
2, 66624, Note_on_c, 0, 65, 92
2, 66648, Note_off_c, 0, 65, 64
2, 66648, Note_on_c, 0, 64, 92
2, 66672, Note_off_c, 0, 64, 64
2, 66672, Note_on_c, 0, 65, 92
2, 66696, Note_off_c, 0, 65, 64
2, 66696, Note_on_c, 0, 64, 92
2, 66720, Note_off_c, 0, 64, 64
2, 66720, Note_on_c, 0, 65, 92
2, 66744, Note_off_c, 0, 65, 64
2, 66744, Note_on_c, 0, 64, 92
2, 66768, Note_off_c, 0, 64, 64
2, 66768, Note_on_c, 0, 63, 92
2, 66792, Note_off_c, 0, 63, 64
2, 66792, Note_on_c, 0, 64, 92
2, 66816, Note_off_c, 0, 64, 64
2, 66816, Note_on_c, 0, 70, 92
2, 66864, Note_off_c, 0, 70, 64
2, 66864, Note_on_c, 0, 64, 92
2, 66912, Note_off_c, 0, 64, 64
2, 66912, Note_on_c, 0, 63, 92
2, 66960, Note_off_c, 0, 63, 64
2, 66960, Note_on_c, 0, 64, 92
2, 67008, Note_off_c, 0, 64, 64
2, 67008, Note_on_c, 0, 65, 92
2, 67032, Note_off_c, 0, 65, 64
2, 67032, Note_on_c, 0, 64, 92
2, 67056, Note_off_c, 0, 64, 64
2, 67056, Note_on_c, 0, 65, 92
2, 67080, Note_off_c, 0, 65, 64
2, 67080, Note_on_c, 0, 64, 92
2, 67104, Note_off_c, 0, 64, 64
2, 67104, Note_on_c, 0, 65, 92
2, 67128, Note_off_c, 0, 65, 64
2, 67128, Note_on_c, 0, 64, 92
2, 67152, Note_off_c, 0, 64, 64
2, 67152, Note_on_c, 0, 63, 92
2, 67176, Note_off_c, 0, 63, 64
2, 67176, Note_on_c, 0, 64, 92
2, 67200, Note_off_c, 0, 64, 64
2, 67200, Note_on_c, 0, 73, 92
2, 67392, Note_on_c, 0, 64, 92
2, 67392, Note_on_c, 0, 70, 92
2, 67776, Note_off_c, 0, 70, 64
2, 67776, Note_off_c, 0, 64, 64
2, 67776, Note_off_c, 0, 73, 64
2, 67776, Note_on_c, 0, 65, 92
2, 67776, Note_on_c, 0, 68, 92
2, 67776, Note_on_c, 0, 72, 92
2, 67968, Note_off_c, 0, 68, 64
2, 67968, Note_off_c, 0, 65, 64
2, 68016, Note_off_c, 0, 72, 64
2, 68016, Note_on_c, 0, 70, 92
2, 68064, Note_off_c, 0, 70, 64
2, 68064, Note_on_c, 0, 68, 92
2, 68112, Note_off_c, 0, 68, 64
2, 68112, Note_on_c, 0, 67, 92
2, 68160, Note_off_c, 0, 67, 64
2, 68160, Note_on_c, 0, 68, 92
2, 68208, Note_off_c, 0, 68, 64
2, 68208, Note_on_c, 0, 72, 92
2, 68256, Note_off_c, 0, 72, 64
2, 68256, Note_on_c, 0, 64, 92
2, 68352, Note_off_c, 0, 64, 64
2, 68352, Note_on_c, 0, 65, 92
2, 68400, Note_off_c, 0, 65, 64
2, 68400, Note_on_c, 0, 67, 92
2, 68448, Note_off_c, 0, 67, 64
2, 68448, Note_on_c, 0, 65, 92
2, 68496, Note_off_c, 0, 65, 64
2, 68496, Note_on_c, 0, 64, 92
2, 68544, Note_off_c, 0, 64, 64
2, 68544, Note_on_c, 0, 65, 92
2, 68592, Note_off_c, 0, 65, 64
2, 68592, Note_on_c, 0, 68, 92
2, 68640, Note_off_c, 0, 68, 64
2, 68640, Note_on_c, 0, 60, 92
2, 68736, Note_off_c, 0, 60, 64
2, 68736, Note_on_c, 0, 61, 92
2, 68784, Note_off_c, 0, 61, 64
2, 68784, Note_on_c, 0, 63, 92
2, 68832, Note_off_c, 0, 63, 64
2, 68832, Note_on_c, 0, 61, 92
2, 68880, Note_off_c, 0, 61, 64
2, 68880, Note_on_c, 0, 60, 92
2, 68928, Note_off_c, 0, 60, 64
2, 68928, Note_on_c, 0, 61, 92
2, 68976, Note_off_c, 0, 61, 64
2, 68976, Note_on_c, 0, 65, 92
2, 69024, Note_off_c, 0, 65, 64
2, 69024, Note_on_c, 0, 68, 92
2, 69120, Note_off_c, 0, 68, 64
2, 69312, Note_on_c, 0, 68, 92
2, 69312, Note_on_c, 0, 65, 92
2, 69504, Note_off_c, 0, 65, 64
2, 69504, Note_off_c, 0, 68, 64
2, 69504, Note_on_c, 0, 67, 92
2, 69504, Note_on_c, 0, 63, 92
2, 69696, Note_off_c, 0, 63, 64
2, 69696, Note_on_c, 0, 65, 92
2, 69888, Note_off_c, 0, 65, 64
2, 69888, Note_on_c, 0, 63, 92
2, 69936, Note_off_c, 0, 67, 64
2, 69936, Note_on_c, 0, 77, 92
2, 69984, Note_off_c, 0, 77, 64
2, 69984, Note_on_c, 0, 75, 92
2, 70032, Note_off_c, 0, 75, 64
2, 70032, Note_on_c, 0, 74, 92
2, 70080, Note_off_c, 0, 74, 64
2, 70080, Note_off_c, 0, 63, 64
2, 70080, Note_on_c, 0, 75, 92
2, 70128, Note_off_c, 0, 75, 64
2, 70128, Note_on_c, 0, 79, 92
2, 70176, Note_off_c, 0, 79, 64
2, 70176, Note_on_c, 0, 71, 92
2, 70272, Note_off_c, 0, 71, 64
2, 70272, Note_on_c, 0, 72, 92
2, 70320, Note_on_c, 0, 65, 92
2, 70368, Note_off_c, 0, 65, 64
2, 70368, Note_on_c, 0, 63, 92
2, 70416, Note_off_c, 0, 63, 64
2, 70416, Note_on_c, 0, 62, 92
2, 70464, Note_off_c, 0, 62, 64
2, 70464, Note_on_c, 0, 63, 92
2, 70512, Note_off_c, 0, 63, 64
2, 70512, Note_on_c, 0, 67, 92
2, 70560, Note_off_c, 0, 67, 64
2, 70560, Note_on_c, 0, 60, 92
2, 70656, Note_off_c, 0, 60, 64
2, 70656, Note_on_c, 0, 62, 92
2, 70704, Note_off_c, 0, 72, 64
2, 70704, Note_on_c, 0, 70, 92
2, 70752, Note_off_c, 0, 70, 64
2, 70752, Note_on_c, 0, 72, 92
2, 70800, Note_off_c, 0, 72, 64
2, 70800, Note_on_c, 0, 74, 92
2, 70848, Note_off_c, 0, 74, 64
2, 70848, Note_on_c, 0, 72, 92
2, 70896, Note_off_c, 0, 72, 64
2, 70896, Note_on_c, 0, 75, 92
2, 70944, Note_off_c, 0, 75, 64
2, 70944, Note_on_c, 0, 66, 92
2, 71040, Note_off_c, 0, 66, 64
2, 71040, Note_on_c, 0, 67, 92
2, 71088, Note_off_c, 0, 67, 64
2, 71088, Note_on_c, 0, 70, 92
2, 71136, Note_off_c, 0, 70, 64
2, 71136, Note_on_c, 0, 69, 92
2, 71184, Note_off_c, 0, 69, 64
2, 71184, Note_on_c, 0, 67, 92
2, 71232, Note_off_c, 0, 67, 64
2, 71232, Note_off_c, 0, 62, 64
2, 71232, Note_on_c, 0, 62, 92
2, 71232, Note_on_c, 0, 69, 92
2, 71280, Note_off_c, 0, 69, 64
2, 71280, Note_on_c, 0, 72, 92
2, 71328, Note_off_c, 0, 72, 64
2, 71328, Note_on_c, 0, 70, 92
2, 71376, Note_off_c, 0, 70, 64
2, 71376, Note_on_c, 0, 69, 92
2, 71424, Note_off_c, 0, 69, 64
2, 71424, Note_on_c, 0, 70, 92
2, 71472, Note_off_c, 0, 70, 64
2, 71472, Note_on_c, 0, 67, 92
2, 71520, Note_off_c, 0, 67, 64
2, 71520, Note_on_c, 0, 69, 92
2, 71568, Note_off_c, 0, 69, 64
2, 71568, Note_on_c, 0, 70, 92
2, 71616, Note_off_c, 0, 70, 64
2, 71616, Note_off_c, 0, 62, 64
2, 71616, Note_on_c, 0, 66, 92
2, 71616, Note_on_c, 0, 72, 92
2, 71664, Note_off_c, 0, 72, 64
2, 71664, Note_on_c, 0, 74, 92
2, 71712, Note_off_c, 0, 74, 64
2, 71712, Note_on_c, 0, 76, 92
2, 71760, Note_off_c, 0, 76, 64
2, 71760, Note_on_c, 0, 78, 92
2, 71808, Note_off_c, 0, 78, 64
2, 71808, Note_off_c, 0, 66, 64
2, 71808, Note_on_c, 0, 79, 92
2, 72000, Note_on_c, 0, 70, 92
2, 72000, Note_on_c, 0, 75, 92
2, 72096, Note_off_c, 0, 75, 64
2, 72096, Note_on_c, 0, 74, 92
2, 72192, Note_off_c, 0, 74, 64
2, 72192, Note_on_c, 0, 76, 92
2, 72288, Note_off_c, 0, 70, 64
2, 72288, Note_on_c, 0, 69, 92
2, 72384, Note_off_c, 0, 69, 64
2, 72384, Note_on_c, 0, 70, 92
2, 72480, Note_off_c, 0, 70, 64
2, 72480, Note_on_c, 0, 69, 92
2, 72576, Note_off_c, 0, 69, 64
2, 72576, Note_on_c, 0, 70, 92
2, 72768, Note_off_c, 0, 70, 64
2, 72768, Note_off_c, 0, 76, 64
2, 72768, Note_off_c, 0, 79, 64
2, 73536, Note_on_c, 0, 69, 92
2, 73536, Note_on_c, 0, 72, 92
2, 73536, Note_on_c, 0, 74, 92
2, 73536, Note_on_c, 0, 78, 92
2, 73728, Note_off_c, 0, 78, 64
2, 73728, Note_off_c, 0, 74, 64
2, 73728, Note_off_c, 0, 72, 64
2, 73728, Note_off_c, 0, 69, 64
2, 73728, Note_on_c, 0, 71, 92
2, 73728, Note_on_c, 0, 74, 92
2, 73728, Note_on_c, 0, 79, 92
2, 75264, Note_off_c, 0, 79, 64
2, 75264, Note_off_c, 0, 74, 64
2, 75264, Note_off_c, 0, 71, 64
2, 77376, Note_on_c, 0, 74, 92
2, 77568, Note_off_c, 0, 74, 64
2, 77568, Note_on_c, 0, 70, 92
2, 77664, Note_off_c, 0, 70, 64
2, 77664, Note_on_c, 0, 72, 92
2, 77760, Note_off_c, 0, 72, 64
2, 77760, Note_on_c, 0, 69, 92
2, 77856, Note_off_c, 0, 69, 64
2, 77856, Note_on_c, 0, 70, 92
2, 77952, Note_off_c, 0, 70, 64
2, 77952, Note_on_c, 0, 67, 92
2, 78144, Note_off_c, 0, 67, 64
2, 78144, Note_on_c, 0, 79, 92
2, 78336, Note_off_c, 0, 79, 64
2, 78336, Note_on_c, 0, 78, 92
2, 78432, Note_off_c, 0, 78, 64
2, 78432, Note_on_c, 0, 79, 92
2, 78528, Note_off_c, 0, 79, 64
2, 78528, Note_on_c, 0, 76, 92
2, 78624, Note_off_c, 0, 76, 64
2, 78624, Note_on_c, 0, 78, 92
2, 78720, Note_off_c, 0, 78, 64
2, 78720, Note_on_c, 0, 74, 92
2, 78912, Note_off_c, 0, 74, 64
2, 78912, Note_on_c, 0, 79, 92
2, 79008, Note_off_c, 0, 79, 64
2, 79008, Note_on_c, 0, 74, 92
2, 79104, Note_off_c, 0, 74, 64
2, 79104, Note_on_c, 0, 75, 92
2, 79296, Note_off_c, 0, 75, 64
2, 79296, Note_on_c, 0, 72, 92
2, 79488, Note_off_c, 0, 72, 64
2, 79488, Note_on_c, 0, 65, 92
2, 79680, Note_off_c, 0, 65, 64
2, 79680, Note_on_c, 0, 77, 92
2, 79872, Note_off_c, 0, 77, 64
2, 79872, Note_on_c, 0, 74, 92
2, 79968, Note_off_c, 0, 74, 64
2, 79968, Note_on_c, 0, 75, 92
2, 80064, Note_off_c, 0, 75, 64
2, 80064, Note_on_c, 0, 72, 92
2, 80160, Note_off_c, 0, 72, 64
2, 80160, Note_on_c, 0, 74, 92
2, 80256, Note_off_c, 0, 74, 64
2, 80256, Note_on_c, 0, 70, 92
2, 80448, Note_off_c, 0, 70, 64
2, 80448, Note_on_c, 0, 75, 92
2, 80544, Note_off_c, 0, 75, 64
2, 80544, Note_on_c, 0, 70, 92
2, 80640, Note_off_c, 0, 70, 64
2, 80640, Note_on_c, 0, 72, 92
2, 80832, Note_off_c, 0, 72, 64
2, 80832, Note_on_c, 0, 69, 92
2, 81024, Note_off_c, 0, 69, 64
2, 81024, Note_on_c, 0, 62, 92
2, 81216, Note_off_c, 0, 62, 64
2, 81216, Note_on_c, 0, 74, 92
2, 81408, Note_off_c, 0, 74, 64
2, 81408, Note_on_c, 0, 70, 92
2, 81504, Note_off_c, 0, 70, 64
2, 81504, Note_on_c, 0, 72, 92
2, 81600, Note_off_c, 0, 72, 64
2, 81600, Note_on_c, 0, 69, 92
2, 81696, Note_off_c, 0, 69, 64
2, 81696, Note_on_c, 0, 70, 92
2, 81792, Note_off_c, 0, 70, 64
2, 81792, Note_on_c, 0, 67, 92
2, 81888, Note_off_c, 0, 67, 64
2, 81888, Note_on_c, 0, 69, 92
2, 81984, Note_off_c, 0, 69, 64
2, 81984, Note_on_c, 0, 67, 92
2, 81984, Note_on_c, 0, 70, 92
2, 82080, Note_off_c, 0, 70, 64
2, 82080, Note_on_c, 0, 72, 92
2, 82176, Note_off_c, 0, 72, 64
2, 82176, Note_off_c, 0, 67, 64
2, 82176, Note_on_c, 0, 74, 92
2, 82176, Note_on_c, 0, 65, 92
2, 82272, Note_off_c, 0, 65, 64
2, 82272, Note_on_c, 0, 67, 92
2, 82368, Note_off_c, 0, 67, 64
2, 82368, Note_off_c, 0, 74, 64
2, 82368, Note_on_c, 0, 76, 92
2, 82368, Note_on_c, 0, 64, 92
2, 82464, Note_off_c, 0, 64, 64
2, 82464, Note_on_c, 0, 65, 92
2, 82560, Note_off_c, 0, 65, 64
2, 82560, Note_off_c, 0, 76, 64
2, 82560, Note_on_c, 0, 62, 92
2, 82560, Note_on_c, 0, 77, 92
2, 82656, Note_off_c, 0, 77, 64
2, 82656, Note_on_c, 0, 79, 92
2, 82752, Note_off_c, 0, 79, 64
2, 82752, Note_off_c, 0, 62, 64
2, 82752, Note_on_c, 0, 74, 92
2, 82752, Note_on_c, 0, 77, 92
2, 82848, Note_off_c, 0, 77, 64
2, 82848, Note_on_c, 0, 79, 92
2, 82944, Note_off_c, 0, 79, 64
2, 82944, Note_off_c, 0, 74, 64
2, 82944, Note_on_c, 0, 81, 92
2, 82944, Note_on_c, 0, 73, 92
2, 83040, Note_off_c, 0, 73, 64
2, 83040, Note_on_c, 0, 74, 92
2, 83136, Note_off_c, 0, 74, 64
2, 83136, Note_off_c, 0, 81, 64
2, 83136, Note_on_c, 0, 76, 92
2, 83136, Note_on_c, 0, 71, 92
2, 83232, Note_off_c, 0, 71, 64
2, 83232, Note_on_c, 0, 73, 92
2, 83328, Note_off_c, 0, 73, 64
2, 83328, Note_off_c, 0, 76, 64
2, 83328, Note_on_c, 0, 77, 92
2, 83328, Note_on_c, 0, 69, 92
2, 83520, Note_off_c, 0, 69, 64
2, 83520, Note_on_c, 0, 74, 92
2, 83616, Note_off_c, 0, 74, 64
2, 83616, Note_on_c, 0, 69, 92
2, 83712, Note_off_c, 0, 69, 64
2, 83712, Note_on_c, 0, 70, 92
2, 83904, Note_off_c, 0, 70, 64
2, 83904, Note_on_c, 0, 67, 92
2, 84096, Note_off_c, 0, 67, 64
2, 84096, Note_off_c, 0, 77, 64
2, 84096, Note_on_c, 0, 76, 92
2, 84096, Note_on_c, 0, 60, 92
2, 84288, Note_off_c, 0, 60, 64
2, 84288, Note_on_c, 0, 72, 92
2, 84480, Note_off_c, 0, 72, 64
2, 84480, Note_on_c, 0, 69, 92
2, 84576, Note_off_c, 0, 69, 64
2, 84576, Note_on_c, 0, 70, 92
2, 84672, Note_off_c, 0, 70, 64
2, 84672, Note_on_c, 0, 67, 92
2, 84768, Note_off_c, 0, 67, 64
2, 84768, Note_on_c, 0, 69, 92
2, 84864, Note_off_c, 0, 69, 64
2, 84864, Note_off_c, 0, 76, 64
2, 84864, Note_on_c, 0, 74, 92
2, 84864, Note_on_c, 0, 65, 92
2, 85056, Note_off_c, 0, 65, 64
2, 85056, Note_on_c, 0, 70, 92
2, 85152, Note_off_c, 0, 70, 64
2, 85152, Note_on_c, 0, 65, 92
2, 85248, Note_off_c, 0, 65, 64
2, 85248, Note_on_c, 0, 67, 92
2, 85440, Note_off_c, 0, 67, 64
2, 85440, Note_on_c, 0, 64, 92
2, 85632, Note_off_c, 0, 64, 64
2, 85632, Note_off_c, 0, 74, 64
2, 85632, Note_on_c, 0, 73, 92
2, 85632, Note_on_c, 0, 57, 92
2, 85824, Note_off_c, 0, 57, 64
2, 85824, Note_on_c, 0, 69, 92
2, 86016, Note_off_c, 0, 69, 64
2, 86016, Note_off_c, 0, 73, 64
2, 86016, Note_on_c, 0, 65, 92
2, 86016, Note_on_c, 0, 74, 92
2, 86112, Note_off_c, 0, 65, 64
2, 86112, Note_on_c, 0, 67, 92
2, 86208, Note_off_c, 0, 67, 64
2, 86208, Note_on_c, 0, 64, 92
2, 86304, Note_off_c, 0, 64, 64
2, 86304, Note_on_c, 0, 65, 92
2, 86400, Note_off_c, 0, 65, 64
2, 86400, Note_off_c, 0, 74, 64
2, 86400, Note_on_c, 0, 62, 92
2, 86496, Note_off_c, 0, 62, 64
2, 86496, Note_on_c, 0, 64, 92
2, 86592, Note_off_c, 0, 64, 64
2, 86592, Note_on_c, 0, 74, 92
2, 86592, Note_on_c, 0, 65, 92
2, 86688, Note_off_c, 0, 65, 64
2, 86688, Note_on_c, 0, 67, 92
2, 86784, Note_off_c, 0, 67, 64
2, 86784, Note_off_c, 0, 74, 64
2, 86784, Note_on_c, 0, 69, 92
2, 86784, Note_on_c, 0, 72, 92
2, 86880, Note_off_c, 0, 72, 64
2, 86880, Note_on_c, 0, 74, 92
2, 86976, Note_off_c, 0, 74, 64
2, 86976, Note_off_c, 0, 69, 64
2, 86976, Note_on_c, 0, 67, 92
2, 86976, Note_on_c, 0, 70, 92
2, 87072, Note_off_c, 0, 70, 64
2, 87072, Note_on_c, 0, 72, 92
2, 87168, Note_off_c, 0, 72, 64
2, 87168, Note_off_c, 0, 67, 64
2, 87168, Note_on_c, 0, 66, 92
2, 87168, Note_on_c, 0, 69, 92
2, 87264, Note_off_c, 0, 69, 64
2, 87264, Note_on_c, 0, 70, 92
2, 87360, Note_off_c, 0, 70, 64
2, 87360, Note_off_c, 0, 66, 64
2, 87360, Note_on_c, 0, 62, 92
2, 87360, Note_on_c, 0, 72, 92
2, 87456, Note_off_c, 0, 72, 64
2, 87456, Note_on_c, 0, 74, 92
2, 87552, Note_off_c, 0, 74, 64
2, 87552, Note_off_c, 0, 62, 64
2, 87552, Note_on_c, 0, 67, 92
2, 87552, Note_on_c, 0, 70, 92
2, 87648, Note_off_c, 0, 70, 64
2, 87648, Note_on_c, 0, 72, 92
2, 87744, Note_off_c, 0, 72, 64
2, 87744, Note_off_c, 0, 67, 64
2, 87744, Note_on_c, 0, 65, 92
2, 87744, Note_on_c, 0, 69, 92
2, 87840, Note_off_c, 0, 69, 64
2, 87840, Note_on_c, 0, 70, 92
2, 87936, Note_off_c, 0, 70, 64
2, 87936, Note_off_c, 0, 65, 64
2, 87936, Note_on_c, 0, 63, 92
2, 87936, Note_on_c, 0, 67, 92
2, 88032, Note_off_c, 0, 67, 64
2, 88032, Note_on_c, 0, 69, 92
2, 88128, Note_off_c, 0, 69, 64
2, 88128, Note_off_c, 0, 63, 64
2, 88128, Note_on_c, 0, 62, 92
2, 88128, Note_on_c, 0, 70, 92
2, 88224, Note_off_c, 0, 70, 64
2, 88224, Note_on_c, 0, 72, 92
2, 88320, Note_off_c, 0, 72, 64
2, 88320, Note_off_c, 0, 62, 64
2, 88320, Note_on_c, 0, 60, 92
2, 88320, Note_on_c, 0, 69, 92
2, 88416, Note_off_c, 0, 69, 64
2, 88416, Note_on_c, 0, 70, 92
2, 88512, Note_off_c, 0, 70, 64
2, 88512, Note_off_c, 0, 60, 64
2, 88512, Note_on_c, 0, 63, 92
2, 88512, Note_on_c, 0, 67, 92
2, 88608, Note_off_c, 0, 67, 64
2, 88608, Note_on_c, 0, 69, 92
2, 88704, Note_off_c, 0, 69, 64
2, 88704, Note_off_c, 0, 63, 64
2, 88704, Note_on_c, 0, 62, 92
2, 88704, Note_on_c, 0, 66, 92
2, 88800, Note_off_c, 0, 66, 64
2, 88800, Note_on_c, 0, 69, 92
2, 88896, Note_off_c, 0, 69, 64
2, 88896, Note_off_c, 0, 62, 64
2, 88896, Note_on_c, 0, 64, 92
2, 88896, Note_on_c, 0, 67, 92
2, 88992, Note_off_c, 0, 67, 64
2, 88992, Note_on_c, 0, 70, 92
2, 89088, Note_off_c, 0, 70, 64
2, 89088, Note_off_c, 0, 64, 64
2, 89088, Note_on_c, 0, 66, 92
2, 89088, Note_on_c, 0, 69, 92
2, 89184, Note_off_c, 0, 69, 64
2, 89184, Note_on_c, 0, 72, 92
2, 89280, Note_off_c, 0, 72, 64
2, 89280, Note_off_c, 0, 66, 64
2, 89280, Note_on_c, 0, 67, 92
2, 89280, Note_on_c, 0, 70, 92
2, 89376, Note_off_c, 0, 70, 64
2, 89376, Note_on_c, 0, 74, 92
2, 89472, Note_off_c, 0, 74, 64
2, 89472, Note_off_c, 0, 67, 64
2, 89472, Note_on_c, 0, 69, 92
2, 89472, Note_on_c, 0, 72, 92
2, 89568, Note_off_c, 0, 72, 64
2, 89568, Note_on_c, 0, 75, 92
2, 89664, Note_off_c, 0, 75, 64
2, 89664, Note_off_c, 0, 69, 64
2, 89664, Note_on_c, 0, 70, 92
2, 89664, Note_on_c, 0, 74, 92
2, 89760, Note_off_c, 0, 74, 64
2, 89760, Note_on_c, 0, 77, 92
2, 89856, Note_off_c, 0, 77, 64
2, 89856, Note_off_c, 0, 70, 64
2, 89856, Note_on_c, 0, 72, 92
2, 89856, Note_on_c, 0, 76, 92
2, 89952, Note_off_c, 0, 76, 64
2, 89952, Note_on_c, 0, 78, 92
2, 90048, Note_off_c, 0, 78, 64
2, 90048, Note_on_c, 0, 79, 92
2, 90144, Note_off_c, 0, 72, 64
2, 90144, Note_on_c, 0, 70, 92
2, 90240, Note_off_c, 0, 70, 64
2, 90240, Note_on_c, 0, 69, 92
2, 90336, Note_off_c, 0, 79, 64
2, 90336, Note_on_c, 0, 79, 92
2, 90432, Note_off_c, 0, 79, 64
2, 90432, Note_on_c, 0, 78, 92
2, 90528, Note_off_c, 0, 69, 64
2, 90528, Note_on_c, 0, 69, 92
2, 90624, Note_off_c, 0, 69, 64
2, 90624, Note_off_c, 0, 78, 64
2, 90624, Note_on_c, 0, 79, 92
2, 90624, Note_on_c, 0, 67, 92
2, 90816, Note_off_c, 0, 67, 64
2, 90816, Note_on_c, 0, 69, 92
2, 91008, Note_off_c, 0, 69, 64
2, 91008, Note_off_c, 0, 79, 64
2, 91008, Note_on_c, 0, 70, 92
2, 91104, Note_off_c, 0, 70, 64
2, 91104, Note_on_c, 0, 72, 92
2, 91200, Note_off_c, 0, 72, 64
2, 91200, Note_on_c, 0, 82, 92
2, 91200, Note_on_c, 0, 70, 92
2, 91296, Note_off_c, 0, 70, 64
2, 91296, Note_on_c, 0, 72, 92
2, 91392, Note_off_c, 0, 72, 64
2, 91392, Note_off_c, 0, 82, 64
2, 91392, Note_on_c, 0, 81, 92
2, 91392, Note_on_c, 0, 74, 92
2, 91584, Note_off_c, 0, 74, 64
2, 91584, Note_off_c, 0, 81, 64
2, 91584, Note_on_c, 0, 79, 92
2, 91584, Note_on_c, 0, 69, 92
2, 91776, Note_off_c, 0, 69, 64
2, 91776, Note_off_c, 0, 79, 64
2, 91776, Note_on_c, 0, 70, 92
2, 91776, Note_on_c, 0, 78, 92
2, 91968, Note_off_c, 0, 78, 64
2, 91968, Note_on_c, 0, 79, 92
2, 92160, Note_off_c, 0, 79, 64
2, 92160, Note_on_c, 0, 72, 92
2, 92256, Note_off_c, 0, 72, 64
2, 92256, Note_on_c, 0, 74, 92
2, 92352, Note_off_c, 0, 74, 64
2, 92352, Note_on_c, 0, 75, 92
2, 92544, Note_off_c, 0, 70, 64
2, 92544, Note_on_c, 0, 69, 92
2, 92640, Note_off_c, 0, 75, 64
2, 92640, Note_on_c, 0, 75, 92
2, 92736, Note_off_c, 0, 75, 64
2, 92736, Note_on_c, 0, 74, 92
2, 92832, Note_off_c, 0, 74, 64
2, 92832, Note_on_c, 0, 72, 92
2, 92928, Note_off_c, 0, 72, 64
2, 92928, Note_on_c, 0, 70, 92
2, 93024, Note_off_c, 0, 70, 64
2, 93024, Note_on_c, 0, 72, 92
2, 93120, Note_off_c, 0, 72, 64
2, 93120, Note_on_c, 0, 74, 92
2, 93312, Note_off_c, 0, 69, 64
2, 93312, Note_on_c, 0, 67, 92
2, 93408, Note_off_c, 0, 74, 64
2, 93408, Note_on_c, 0, 74, 92
2, 93504, Note_off_c, 0, 74, 64
2, 93504, Note_on_c, 0, 72, 92
2, 93600, Note_off_c, 0, 72, 64
2, 93600, Note_on_c, 0, 70, 92
2, 93696, Note_off_c, 0, 70, 64
2, 93696, Note_on_c, 0, 69, 92
2, 93792, Note_off_c, 0, 69, 64
2, 93792, Note_on_c, 0, 70, 92
2, 93888, Note_off_c, 0, 70, 64
2, 93888, Note_on_c, 0, 72, 92
2, 94080, Note_off_c, 0, 67, 64
2, 94080, Note_on_c, 0, 66, 92
2, 94176, Note_off_c, 0, 72, 64
2, 94176, Note_on_c, 0, 72, 92
2, 94272, Note_off_c, 0, 72, 64
2, 94272, Note_on_c, 0, 70, 92
2, 94368, Note_off_c, 0, 70, 64
2, 94368, Note_on_c, 0, 69, 92
2, 94464, Note_off_c, 0, 69, 64
2, 94464, Note_off_c, 0, 66, 64
2, 94464, Note_on_c, 0, 67, 92
2, 94656, Note_on_c, 0, 74, 92
2, 94848, Note_off_c, 0, 74, 64
2, 94848, Note_off_c, 0, 67, 64
2, 94848, Note_on_c, 0, 79, 92
2, 95040, Note_on_c, 0, 74, 92
2, 95232, Note_off_c, 0, 74, 64
2, 95232, Note_on_c, 0, 69, 92
2, 95424, Note_off_c, 0, 79, 64
2, 95424, Note_on_c, 0, 77, 92
2, 95616, Note_off_c, 0, 77, 64
2, 95616, Note_off_c, 0, 69, 64
2, 95616, Note_on_c, 0, 82, 92
2, 95808, Note_on_c, 0, 77, 92
2, 96000, Note_off_c, 0, 77, 64
2, 96000, Note_on_c, 0, 72, 92
2, 96192, Note_off_c, 0, 82, 64
2, 96192, Note_on_c, 0, 81, 92
2, 96384, Note_off_c, 0, 72, 64
2, 96384, Note_on_c, 0, 70, 92
2, 96576, Note_off_c, 0, 81, 64
2, 96576, Note_on_c, 0, 79, 92
2, 96768, Note_off_c, 0, 70, 64
2, 96768, Note_on_c, 0, 69, 92
2, 96960, Note_off_c, 0, 79, 64
2, 96960, Note_on_c, 0, 79, 92
2, 97152, Note_off_c, 0, 79, 64
2, 97152, Note_on_c, 0, 78, 92
2, 97344, Note_off_c, 0, 69, 64
2, 97344, Note_on_c, 0, 69, 92
2, 97536, Note_off_c, 0, 69, 64
2, 97536, Note_off_c, 0, 78, 64
2, 97536, Note_on_c, 0, 79, 92
2, 97536, Note_on_c, 0, 67, 92
2, 97728, Note_off_c, 0, 67, 64
2, 97728, Note_on_c, 0, 69, 92
2, 97920, Note_off_c, 0, 69, 64
2, 97920, Note_off_c, 0, 79, 64
2, 97920, Note_on_c, 0, 70, 92
2, 98112, Note_on_c, 0, 74, 92
2, 98208, Note_off_c, 0, 74, 64
2, 98208, Note_on_c, 0, 76, 92
2, 98304, Note_off_c, 0, 76, 64
2, 98304, Note_off_c, 0, 70, 64
2, 98304, Note_on_c, 0, 69, 92
2, 98304, Note_on_c, 0, 77, 92
2, 98496, Note_off_c, 0, 77, 64
2, 98496, Note_off_c, 0, 69, 64
2, 98496, Note_on_c, 0, 73, 92
2, 98496, Note_on_c, 0, 79, 92
2, 98688, Note_off_c, 0, 79, 64
2, 98688, Note_off_c, 0, 73, 64
2, 98688, Note_on_c, 0, 74, 92
2, 98688, Note_on_c, 0, 81, 92
2, 98880, Note_off_c, 0, 81, 64
2, 98880, Note_off_c, 0, 74, 64
2, 98880, Note_on_c, 0, 77, 92
2, 98880, Note_on_c, 0, 82, 92
2, 99072, Note_off_c, 0, 82, 64
2, 99072, Note_off_c, 0, 77, 64
2, 99072, Note_on_c, 0, 81, 92
2, 99072, Note_on_c, 0, 76, 92
2, 99264, Note_off_c, 0, 76, 64
2, 99264, Note_on_c, 0, 74, 92
2, 99456, Note_off_c, 0, 74, 64
2, 99456, Note_on_c, 0, 73, 92
2, 99552, Note_off_c, 0, 81, 64
2, 99552, Note_on_c, 0, 79, 92
2, 99648, Note_off_c, 0, 79, 64
2, 99648, Note_off_c, 0, 73, 64
2, 99648, Note_on_c, 0, 77, 92
2, 99648, Note_on_c, 0, 74, 92
2, 99744, Note_off_c, 0, 77, 64
2, 99744, Note_on_c, 0, 76, 92
2, 99840, Note_off_c, 0, 76, 64
2, 99840, Note_off_c, 0, 74, 64
2, 99840, Note_on_c, 0, 67, 92
2, 99840, Note_on_c, 0, 74, 92
2, 99936, Note_off_c, 0, 67, 64
2, 99936, Note_on_c, 0, 69, 92
2, 100032, Note_off_c, 0, 69, 64
2, 100032, Note_on_c, 0, 70, 92
2, 100224, Note_off_c, 0, 74, 64
2, 100320, Note_off_c, 0, 70, 64
2, 100320, Note_on_c, 0, 70, 92
2, 100416, Note_off_c, 0, 70, 64
2, 100416, Note_on_c, 0, 76, 92
2, 100416, Note_on_c, 0, 69, 92
2, 100512, Note_off_c, 0, 69, 64
2, 100512, Note_on_c, 0, 67, 92
2, 100608, Note_off_c, 0, 67, 64
2, 100608, Note_off_c, 0, 76, 64
2, 100608, Note_on_c, 0, 77, 92
2, 100608, Note_on_c, 0, 65, 92
2, 100704, Note_off_c, 0, 65, 64
2, 100704, Note_on_c, 0, 67, 92
2, 100800, Note_off_c, 0, 67, 64
2, 100800, Note_on_c, 0, 69, 92
2, 101088, Note_off_c, 0, 69, 64
2, 101088, Note_off_c, 0, 77, 64
2, 101088, Note_on_c, 0, 77, 92
2, 101088, Note_on_c, 0, 69, 92
2, 101184, Note_off_c, 0, 69, 64
2, 101184, Note_off_c, 0, 77, 64
2, 101184, Note_on_c, 0, 79, 92
2, 101184, Note_on_c, 0, 67, 92
2, 101280, Note_off_c, 0, 67, 64
2, 101280, Note_off_c, 0, 79, 64
2, 101280, Note_on_c, 0, 81, 92
2, 101280, Note_on_c, 0, 65, 92
2, 101376, Note_off_c, 0, 65, 64
2, 101376, Note_off_c, 0, 81, 64
2, 101376, Note_on_c, 0, 64, 92
2, 101376, Note_on_c, 0, 82, 92
2, 101472, Note_off_c, 0, 82, 64
2, 101472, Note_off_c, 0, 64, 64
2, 101472, Note_on_c, 0, 65, 92
2, 101472, Note_on_c, 0, 81, 92
2, 101568, Note_off_c, 0, 81, 64
2, 101568, Note_off_c, 0, 65, 64
2, 101568, Note_on_c, 0, 67, 92
2, 101568, Note_on_c, 0, 79, 92
2, 101664, Note_off_c, 0, 79, 64
2, 101664, Note_on_c, 0, 77, 92
2, 101760, Note_off_c, 0, 77, 64
2, 101760, Note_on_c, 0, 76, 92
2, 101856, Note_off_c, 0, 67, 64
2, 101856, Note_on_c, 0, 67, 92
2, 101952, Note_off_c, 0, 67, 64
2, 101952, Note_on_c, 0, 65, 92
2, 102048, Note_off_c, 0, 65, 64
2, 102048, Note_off_c, 0, 76, 64
2, 102048, Note_on_c, 0, 74, 92
2, 102048, Note_on_c, 0, 64, 92
2, 102144, Note_off_c, 0, 64, 64
2, 102144, Note_off_c, 0, 74, 64
2, 102144, Note_on_c, 0, 69, 92
2, 102144, Note_on_c, 0, 74, 92
2, 102528, Note_off_c, 0, 74, 64
2, 102528, Note_off_c, 0, 69, 64
2, 102624, Note_on_c, 0, 74, 92
2, 102720, Note_off_c, 0, 74, 64
2, 102720, Note_on_c, 0, 72, 92
2, 102816, Note_off_c, 0, 72, 64
2, 102816, Note_on_c, 0, 74, 92
2, 102912, Note_off_c, 0, 74, 64
2, 102912, Note_on_c, 0, 70, 92
2, 103008, Note_off_c, 0, 70, 64
2, 103008, Note_on_c, 0, 72, 92
2, 103104, Note_off_c, 0, 72, 64
2, 103104, Note_on_c, 0, 69, 92
2, 103200, Note_off_c, 0, 69, 64
2, 103200, Note_on_c, 0, 70, 92
2, 103296, Note_off_c, 0, 70, 64
2, 103296, Note_on_c, 0, 67, 92
2, 103488, Note_off_c, 0, 67, 64
2, 103488, Note_on_c, 0, 70, 92
2, 103680, Note_off_c, 0, 70, 64
2, 103680, Note_on_c, 0, 72, 92
2, 104064, Note_off_c, 0, 72, 64
2, 104160, Note_on_c, 0, 72, 92
2, 104256, Note_off_c, 0, 72, 64
2, 104256, Note_on_c, 0, 70, 92
2, 104352, Note_off_c, 0, 70, 64
2, 104352, Note_on_c, 0, 72, 92
2, 104448, Note_off_c, 0, 72, 64
2, 104448, Note_on_c, 0, 69, 92
2, 104544, Note_off_c, 0, 69, 64
2, 104544, Note_on_c, 0, 70, 92
2, 104640, Note_off_c, 0, 70, 64
2, 104640, Note_on_c, 0, 67, 92
2, 104736, Note_off_c, 0, 67, 64
2, 104736, Note_on_c, 0, 69, 92
2, 104832, Note_off_c, 0, 69, 64
2, 104832, Note_on_c, 0, 65, 92
2, 105024, Note_off_c, 0, 65, 64
2, 105024, Note_on_c, 0, 69, 92
2, 105216, Note_off_c, 0, 69, 64
2, 105216, Note_on_c, 0, 70, 92
2, 105600, Note_off_c, 0, 70, 64
2, 105696, Note_on_c, 0, 70, 92
2, 105792, Note_off_c, 0, 70, 64
2, 105792, Note_on_c, 0, 69, 92
2, 105888, Note_off_c, 0, 69, 64
2, 105888, Note_on_c, 0, 70, 92
2, 105984, Note_off_c, 0, 70, 64
2, 105984, Note_on_c, 0, 67, 92
2, 106464, Note_off_c, 0, 67, 64
2, 106464, Note_on_c, 0, 70, 92
2, 106560, Note_off_c, 0, 70, 64
2, 106560, Note_on_c, 0, 69, 92
2, 106656, Note_off_c, 0, 69, 64
2, 106656, Note_on_c, 0, 70, 92
2, 106752, Note_off_c, 0, 70, 64
2, 106752, Note_on_c, 0, 72, 92
2, 107232, Note_off_c, 0, 72, 64
2, 107232, Note_on_c, 0, 70, 92
2, 107328, Note_off_c, 0, 70, 64
2, 107328, Note_on_c, 0, 72, 92
2, 107424, Note_off_c, 0, 72, 64
2, 107424, Note_on_c, 0, 69, 92
2, 107520, Note_off_c, 0, 69, 64
2, 107520, Note_on_c, 0, 70, 92
2, 107616, Note_off_c, 0, 70, 64
2, 107616, Note_on_c, 0, 74, 92
2, 107712, Note_off_c, 0, 74, 64
2, 107712, Note_on_c, 0, 67, 92
2, 107808, Note_off_c, 0, 67, 64
2, 107808, Note_on_c, 0, 70, 92
2, 107904, Note_off_c, 0, 70, 64
2, 107904, Note_on_c, 0, 69, 92
2, 108000, Note_off_c, 0, 69, 64
2, 108000, Note_on_c, 0, 72, 92
2, 108096, Note_off_c, 0, 72, 64
2, 108096, Note_on_c, 0, 66, 92
2, 108192, Note_off_c, 0, 66, 64
2, 108192, Note_on_c, 0, 69, 92
2, 108288, Note_off_c, 0, 69, 64
2, 108288, Note_on_c, 0, 67, 92
2, 108480, Note_off_c, 0, 67, 64
2, 108480, Note_on_c, 0, 70, 92
2, 108672, Note_off_c, 0, 70, 64
2, 108672, Note_on_c, 0, 60, 92
2, 108864, Note_off_c, 0, 60, 64
2, 108864, Note_on_c, 0, 74, 92
2, 108864, Note_on_c, 0, 69, 92
2, 109056, Note_off_c, 0, 69, 64
2, 109056, Note_off_c, 0, 74, 64
2, 109056, Note_on_c, 0, 58, 92
2, 109056, Note_on_c, 0, 70, 92
2, 109152, Note_off_c, 0, 70, 64
2, 109152, Note_on_c, 0, 72, 92
2, 109248, Note_off_c, 0, 72, 64
2, 109248, Note_off_c, 0, 58, 64
2, 109248, Note_on_c, 0, 60, 92
2, 109248, Note_on_c, 0, 69, 92
2, 109344, Note_off_c, 0, 69, 64
2, 109344, Note_on_c, 0, 70, 92
2, 109440, Note_off_c, 0, 70, 64
2, 109440, Note_off_c, 0, 60, 64
2, 109440, Note_on_c, 0, 67, 92
2, 109440, Note_on_c, 0, 62, 92
2, 109536, Note_off_c, 0, 62, 64
2, 109536, Note_on_c, 0, 74, 92
2, 109632, Note_off_c, 0, 74, 64
2, 109632, Note_off_c, 0, 67, 64
2, 109632, Note_on_c, 0, 79, 92
2, 109632, Note_on_c, 0, 72, 92
2, 109728, Note_off_c, 0, 72, 64
2, 109728, Note_on_c, 0, 75, 92
2, 109824, Note_off_c, 0, 75, 64
2, 109824, Note_off_c, 0, 79, 64
2, 109824, Note_on_c, 0, 69, 92
2, 109824, Note_on_c, 0, 78, 92
2, 109920, Note_off_c, 0, 78, 64
2, 109920, Note_on_c, 0, 79, 92
2, 110016, Note_off_c, 0, 79, 64
2, 110016, Note_off_c, 0, 69, 64
2, 110016, Note_on_c, 0, 66, 92
2, 110016, Note_on_c, 0, 76, 92
2, 110112, Note_off_c, 0, 76, 64
2, 110112, Note_on_c, 0, 78, 92
2, 110208, Note_off_c, 0, 78, 64
2, 110208, Note_off_c, 0, 66, 64
2, 110208, Note_on_c, 0, 67, 92
2, 110208, Note_on_c, 0, 74, 92
2, 110400, Note_off_c, 0, 74, 64
2, 110400, Note_on_c, 0, 79, 92
2, 110496, Note_off_c, 0, 79, 64
2, 110496, Note_on_c, 0, 74, 92
2, 110592, Note_off_c, 0, 74, 64
2, 110592, Note_on_c, 0, 75, 92
2, 110784, Note_off_c, 0, 75, 64
2, 110784, Note_on_c, 0, 72, 92
2, 110976, Note_off_c, 0, 72, 64
2, 110976, Note_off_c, 0, 67, 64
2, 110976, Note_on_c, 0, 65, 92
2, 111168, Note_off_c, 0, 65, 64
2, 111168, Note_on_c, 0, 69, 92
2, 111168, Note_on_c, 0, 77, 92
2, 111360, Note_off_c, 0, 77, 64
2, 111360, Note_off_c, 0, 69, 64
2, 111360, Note_on_c, 0, 70, 92
2, 111360, Note_on_c, 0, 74, 92
2, 111456, Note_off_c, 0, 74, 64
2, 111456, Note_on_c, 0, 75, 92
2, 111552, Note_off_c, 0, 75, 64
2, 111552, Note_on_c, 0, 72, 92
2, 111648, Note_off_c, 0, 72, 64
2, 111648, Note_on_c, 0, 74, 92
2, 111744, Note_off_c, 0, 74, 64
2, 111744, Note_off_c, 0, 70, 64
2, 111744, Note_on_c, 0, 70, 92
2, 111936, Note_off_c, 0, 70, 64
2, 111936, Note_on_c, 0, 75, 92
2, 112032, Note_off_c, 0, 75, 64
2, 112032, Note_on_c, 0, 70, 92
2, 112128, Note_off_c, 0, 70, 64
2, 112128, Note_on_c, 0, 72, 92
2, 112320, Note_off_c, 0, 72, 64
2, 112320, Note_on_c, 0, 69, 92
2, 112512, Note_off_c, 0, 69, 64
2, 112512, Note_on_c, 0, 62, 92
2, 112704, Note_off_c, 0, 62, 64
2, 112704, Note_on_c, 0, 74, 92
2, 112896, Note_off_c, 0, 74, 64
2, 112896, Note_on_c, 0, 70, 92
2, 112992, Note_off_c, 0, 70, 64
2, 112992, Note_on_c, 0, 72, 92
2, 113088, Note_off_c, 0, 72, 64
2, 113088, Note_on_c, 0, 69, 92
2, 113184, Note_off_c, 0, 69, 64
2, 113184, Note_on_c, 0, 70, 92
2, 113280, Note_off_c, 0, 70, 64
2, 113280, Note_on_c, 0, 67, 92
2, 113376, Note_off_c, 0, 67, 64
2, 113376, Note_on_c, 0, 69, 92
2, 113472, Note_off_c, 0, 69, 64
2, 113472, Note_on_c, 0, 67, 92
2, 113472, Note_on_c, 0, 71, 92
2, 113568, Note_off_c, 0, 71, 64
2, 113568, Note_on_c, 0, 73, 92
2, 113664, Note_off_c, 0, 73, 64
2, 113664, Note_off_c, 0, 67, 64
2, 113664, Note_on_c, 0, 74, 92
2, 113664, Note_on_c, 0, 65, 92
2, 113760, Note_off_c, 0, 65, 64
2, 113760, Note_on_c, 0, 67, 92
2, 113856, Note_off_c, 0, 67, 64
2, 113856, Note_off_c, 0, 74, 64
2, 113856, Note_on_c, 0, 76, 92
2, 113856, Note_on_c, 0, 64, 92
2, 113952, Note_off_c, 0, 64, 64
2, 113952, Note_on_c, 0, 65, 92
2, 114048, Note_off_c, 0, 65, 64
2, 114048, Note_off_c, 0, 76, 64
2, 114048, Note_on_c, 0, 62, 92
2, 114048, Note_on_c, 0, 77, 92
2, 114144, Note_off_c, 0, 77, 64
2, 114144, Note_on_c, 0, 79, 92
2, 114240, Note_off_c, 0, 79, 64
2, 114240, Note_off_c, 0, 62, 64
2, 114240, Note_on_c, 0, 74, 92
2, 114240, Note_on_c, 0, 77, 92
2, 114336, Note_off_c, 0, 77, 64
2, 114336, Note_on_c, 0, 79, 92
2, 114432, Note_off_c, 0, 79, 64
2, 114432, Note_off_c, 0, 74, 64
2, 114432, Note_on_c, 0, 81, 92
2, 114432, Note_on_c, 0, 73, 92
2, 114528, Note_off_c, 0, 73, 64
2, 114528, Note_on_c, 0, 74, 92
2, 114624, Note_off_c, 0, 74, 64
2, 114624, Note_off_c, 0, 81, 64
2, 114624, Note_on_c, 0, 76, 92
2, 114624, Note_on_c, 0, 71, 92
2, 114720, Note_off_c, 0, 71, 64
2, 114720, Note_on_c, 0, 73, 92
2, 114816, Note_off_c, 0, 73, 64
2, 114816, Note_off_c, 0, 76, 64
2, 114816, Note_on_c, 0, 77, 92
2, 114816, Note_on_c, 0, 69, 92
2, 115008, Note_off_c, 0, 69, 64
2, 115008, Note_on_c, 0, 74, 92
2, 115104, Note_off_c, 0, 74, 64
2, 115104, Note_on_c, 0, 69, 92
2, 115200, Note_off_c, 0, 69, 64
2, 115200, Note_on_c, 0, 70, 92
2, 115392, Note_off_c, 0, 70, 64
2, 115392, Note_on_c, 0, 67, 92
2, 115584, Note_off_c, 0, 67, 64
2, 115584, Note_off_c, 0, 77, 64
2, 115584, Note_on_c, 0, 76, 92
2, 115584, Note_on_c, 0, 60, 92
2, 115776, Note_off_c, 0, 60, 64
2, 115776, Note_on_c, 0, 72, 92
2, 115968, Note_off_c, 0, 72, 64
2, 115968, Note_on_c, 0, 69, 92
2, 116064, Note_off_c, 0, 69, 64
2, 116064, Note_on_c, 0, 70, 92
2, 116160, Note_off_c, 0, 70, 64
2, 116160, Note_on_c, 0, 67, 92
2, 116256, Note_off_c, 0, 67, 64
2, 116256, Note_on_c, 0, 69, 92
2, 116352, Note_off_c, 0, 69, 64
2, 116352, Note_off_c, 0, 76, 64
2, 116352, Note_on_c, 0, 74, 92
2, 116352, Note_on_c, 0, 65, 92
2, 116544, Note_off_c, 0, 65, 64
2, 116544, Note_on_c, 0, 70, 92
2, 116640, Note_off_c, 0, 70, 64
2, 116640, Note_on_c, 0, 65, 92
2, 116736, Note_off_c, 0, 65, 64
2, 116736, Note_on_c, 0, 67, 92
2, 116928, Note_off_c, 0, 67, 64
2, 116928, Note_on_c, 0, 64, 92
2, 117120, Note_off_c, 0, 64, 64
2, 117120, Note_off_c, 0, 74, 64
2, 117120, Note_on_c, 0, 73, 92
2, 117120, Note_on_c, 0, 57, 92
2, 117312, Note_off_c, 0, 57, 64
2, 117312, Note_on_c, 0, 69, 92
2, 117504, Note_off_c, 0, 69, 64
2, 117504, Note_off_c, 0, 73, 64
2, 117504, Note_on_c, 0, 74, 92
2, 117504, Note_on_c, 0, 65, 92
2, 117600, Note_off_c, 0, 65, 64
2, 117600, Note_on_c, 0, 67, 92
2, 117696, Note_off_c, 0, 67, 64
2, 117696, Note_on_c, 0, 64, 92
2, 117792, Note_off_c, 0, 64, 64
2, 117792, Note_on_c, 0, 65, 92
2, 117888, Note_off_c, 0, 65, 64
2, 117888, Note_off_c, 0, 74, 64
2, 117888, Note_on_c, 0, 62, 92
2, 117984, Note_off_c, 0, 62, 64
2, 117984, Note_on_c, 0, 64, 92
2, 118080, Note_off_c, 0, 64, 64
2, 118080, Note_on_c, 0, 74, 92
2, 118080, Note_on_c, 0, 65, 92
2, 118176, Note_off_c, 0, 65, 64
2, 118176, Note_on_c, 0, 67, 92
2, 118272, Note_off_c, 0, 67, 64
2, 118272, Note_off_c, 0, 74, 64
2, 118272, Note_on_c, 0, 72, 92
2, 118272, Note_on_c, 0, 63, 92
2, 118368, Note_off_c, 0, 63, 64
2, 118368, Note_on_c, 0, 65, 92
2, 118464, Note_off_c, 0, 65, 64
2, 118464, Note_on_c, 0, 62, 92
2, 118560, Note_off_c, 0, 62, 64
2, 118560, Note_on_c, 0, 63, 92
2, 118656, Note_off_c, 0, 63, 64
2, 118656, Note_off_c, 0, 72, 64
2, 118656, Note_on_c, 0, 77, 92
2, 118656, Note_on_c, 0, 60, 92
2, 118752, Note_off_c, 0, 60, 64
2, 118752, Note_on_c, 0, 62, 92
2, 118848, Note_off_c, 0, 62, 64
2, 118848, Note_on_c, 0, 63, 92
2, 118944, Note_off_c, 0, 63, 64
2, 118944, Note_on_c, 0, 65, 92
2, 119040, Note_off_c, 0, 65, 64
2, 119040, Note_off_c, 0, 77, 64
2, 119040, Note_on_c, 0, 70, 92
2, 119040, Note_on_c, 0, 62, 92
2, 119136, Note_off_c, 0, 62, 64
2, 119136, Note_on_c, 0, 63, 92
2, 119232, Note_off_c, 0, 63, 64
2, 119232, Note_on_c, 0, 60, 92
2, 119328, Note_off_c, 0, 60, 64
2, 119328, Note_on_c, 0, 62, 92
2, 119424, Note_off_c, 0, 62, 64
2, 119424, Note_off_c, 0, 70, 64
2, 119424, Note_on_c, 0, 58, 92
2, 119520, Note_off_c, 0, 58, 64
2, 119520, Note_on_c, 0, 79, 92
2, 119520, Note_on_c, 0, 60, 92
2, 119616, Note_off_c, 0, 60, 64
2, 119616, Note_off_c, 0, 79, 64
2, 119616, Note_on_c, 0, 78, 92
2, 119616, Note_on_c, 0, 62, 92
2, 119712, Note_off_c, 0, 62, 64
2, 119712, Note_off_c, 0, 78, 64
2, 119712, Note_on_c, 0, 79, 92
2, 119712, Note_on_c, 0, 63, 92
2, 119808, Note_off_c, 0, 63, 64
2, 119808, Note_off_c, 0, 79, 64
2, 119808, Note_on_c, 0, 69, 92
2, 119808, Note_on_c, 0, 60, 92
2, 119904, Note_off_c, 0, 60, 64
2, 119904, Note_on_c, 0, 62, 92
2, 120000, Note_off_c, 0, 62, 64
2, 120000, Note_off_c, 0, 69, 64
2, 120000, Note_on_c, 0, 75, 92
2, 120000, Note_on_c, 0, 58, 92
2, 120096, Note_off_c, 0, 58, 64
2, 120096, Note_on_c, 0, 60, 92
2, 120192, Note_off_c, 0, 60, 64
2, 120192, Note_off_c, 0, 75, 64
2, 120192, Note_on_c, 0, 57, 92
2, 120192, Note_on_c, 0, 74, 92
2, 120288, Note_off_c, 0, 74, 64
2, 120288, Note_on_c, 0, 72, 92
2, 120384, Note_off_c, 0, 72, 64
2, 120384, Note_off_c, 0, 57, 64
2, 120384, Note_on_c, 0, 62, 92
2, 120384, Note_on_c, 0, 70, 92
2, 120480, Note_off_c, 0, 70, 64
2, 120480, Note_on_c, 0, 69, 92
2, 120576, Note_off_c, 0, 69, 64
2, 120576, Note_on_c, 0, 67, 92
2, 120672, Note_off_c, 0, 62, 64
2, 120672, Note_on_c, 0, 63, 92
2, 120768, Note_off_c, 0, 63, 64
2, 120768, Note_off_c, 0, 67, 64
2, 120768, Note_on_c, 0, 69, 92
2, 120768, Note_on_c, 0, 60, 92
2, 120864, Note_off_c, 0, 60, 64
2, 120864, Note_on_c, 0, 62, 92
2, 120960, Note_off_c, 0, 62, 64
2, 120960, Note_off_c, 0, 69, 64
2, 120960, Note_on_c, 0, 70, 92
2, 120960, Note_on_c, 0, 58, 92
2, 121056, Note_off_c, 0, 58, 64
2, 121056, Note_off_c, 0, 70, 64
2, 121056, Note_on_c, 0, 72, 92
2, 121056, Note_on_c, 0, 63, 92
2, 121152, Note_off_c, 0, 63, 64
2, 121152, Note_off_c, 0, 72, 64
2, 121152, Note_on_c, 0, 70, 92
2, 121152, Note_on_c, 0, 62, 92
2, 121248, Note_off_c, 0, 62, 64
2, 121248, Note_off_c, 0, 70, 64
2, 121248, Note_on_c, 0, 72, 92
2, 121248, Note_on_c, 0, 63, 92
2, 121344, Note_off_c, 0, 63, 64
2, 121344, Note_off_c, 0, 72, 64
2, 121344, Note_on_c, 0, 74, 92
2, 121728, Note_off_c, 0, 74, 64
2, 121824, Note_on_c, 0, 74, 92
2, 121920, Note_off_c, 0, 74, 64
2, 121920, Note_on_c, 0, 75, 92
2, 122016, Note_off_c, 0, 75, 64
2, 122016, Note_on_c, 0, 74, 92
2, 122112, Note_off_c, 0, 74, 64
2, 122112, Note_on_c, 0, 72, 92
2, 122208, Note_off_c, 0, 72, 64
2, 122208, Note_on_c, 0, 74, 92
2, 122304, Note_off_c, 0, 74, 64
2, 122304, Note_on_c, 0, 75, 92
2, 122592, Note_off_c, 0, 75, 64
2, 122592, Note_on_c, 0, 75, 92
2, 122688, Note_off_c, 0, 75, 64
2, 122688, Note_on_c, 0, 74, 92
2, 122784, Note_off_c, 0, 74, 64
2, 122784, Note_on_c, 0, 72, 92
2, 122880, Note_off_c, 0, 72, 64
2, 122880, Note_on_c, 0, 70, 92
2, 122976, Note_off_c, 0, 70, 64
2, 122976, Note_on_c, 0, 72, 92
2, 123072, Note_off_c, 0, 72, 64
2, 123072, Note_on_c, 0, 74, 92
2, 123360, Note_off_c, 0, 74, 64
2, 123360, Note_on_c, 0, 74, 92
2, 123456, Note_off_c, 0, 74, 64
2, 123456, Note_on_c, 0, 72, 92
2, 123552, Note_off_c, 0, 72, 64
2, 123552, Note_on_c, 0, 70, 92
2, 123648, Note_off_c, 0, 70, 64
2, 123648, Note_on_c, 0, 69, 92
2, 123744, Note_off_c, 0, 69, 64
2, 123744, Note_on_c, 0, 70, 92
2, 123840, Note_off_c, 0, 70, 64
2, 123840, Note_on_c, 0, 72, 92
2, 124128, Note_off_c, 0, 72, 64
2, 124128, Note_on_c, 0, 72, 92
2, 124224, Note_off_c, 0, 72, 64
2, 124224, Note_on_c, 0, 70, 92
2, 124320, Note_off_c, 0, 70, 64
2, 124320, Note_on_c, 0, 69, 92
2, 124416, Note_off_c, 0, 69, 64
2, 124416, Note_on_c, 0, 70, 92
2, 124608, Note_off_c, 0, 70, 64
2, 124608, Note_on_c, 0, 72, 92
2, 124800, Note_off_c, 0, 72, 64
2, 124800, Note_on_c, 0, 74, 92
2, 124896, Note_off_c, 0, 74, 64
2, 124896, Note_on_c, 0, 76, 92
2, 124992, Note_off_c, 0, 76, 64
2, 124992, Note_on_c, 0, 74, 92
2, 125088, Note_off_c, 0, 74, 64
2, 125088, Note_on_c, 0, 76, 92
2, 125184, Note_off_c, 0, 76, 64
2, 125184, Note_on_c, 0, 77, 92
2, 126816, Note_off_c, 0, 77, 64
2, 126816, Note_on_c, 0, 79, 92
2, 126912, Note_off_c, 0, 79, 64
2, 126912, Note_on_c, 0, 75, 92
2, 127008, Note_off_c, 0, 75, 64
2, 127008, Note_on_c, 0, 77, 92
2, 127104, Note_off_c, 0, 77, 64
2, 127104, Note_on_c, 0, 74, 92
2, 127200, Note_off_c, 0, 74, 64
2, 127200, Note_on_c, 0, 75, 92
2, 127296, Note_off_c, 0, 75, 64
2, 127296, Note_on_c, 0, 77, 92
2, 127392, Note_off_c, 0, 77, 64
2, 127392, Note_on_c, 0, 79, 92
2, 127488, Note_off_c, 0, 79, 64
2, 127488, Note_on_c, 0, 75, 92
2, 128352, Note_off_c, 0, 75, 64
2, 128352, Note_on_c, 0, 77, 92
2, 128448, Note_off_c, 0, 77, 64
2, 128448, Note_on_c, 0, 74, 92
2, 128544, Note_off_c, 0, 74, 64
2, 128544, Note_on_c, 0, 75, 92
2, 128640, Note_off_c, 0, 75, 64
2, 128640, Note_on_c, 0, 72, 92
2, 128736, Note_off_c, 0, 72, 64
2, 128736, Note_on_c, 0, 74, 92
2, 128832, Note_off_c, 0, 74, 64
2, 128832, Note_on_c, 0, 75, 92
2, 128928, Note_off_c, 0, 75, 64
2, 128928, Note_on_c, 0, 77, 92
2, 129024, Note_off_c, 0, 77, 64
2, 129024, Note_on_c, 0, 74, 92
2, 129888, Note_off_c, 0, 74, 64
2, 129888, Note_on_c, 0, 75, 92
2, 129984, Note_off_c, 0, 75, 64
2, 129984, Note_on_c, 0, 72, 92
2, 130080, Note_off_c, 0, 72, 64
2, 130080, Note_on_c, 0, 74, 92
2, 130176, Note_off_c, 0, 74, 64
2, 130176, Note_on_c, 0, 62, 92
2, 130176, Note_on_c, 0, 70, 92
2, 130272, Note_off_c, 0, 70, 64
2, 130272, Note_on_c, 0, 69, 92
2, 130368, Note_off_c, 0, 69, 64
2, 130368, Note_off_c, 0, 62, 64
2, 130368, Note_on_c, 0, 64, 92
2, 130368, Note_on_c, 0, 67, 92
2, 130464, Note_off_c, 0, 67, 64
2, 130464, Note_on_c, 0, 70, 92
2, 130560, Note_off_c, 0, 70, 64
2, 130560, Note_off_c, 0, 64, 64
2, 130560, Note_on_c, 0, 65, 92
2, 130560, Note_on_c, 0, 69, 92
2, 130656, Note_off_c, 0, 69, 64
2, 130656, Note_on_c, 0, 70, 92
2, 130752, Note_off_c, 0, 70, 64
2, 130752, Note_on_c, 0, 67, 92
2, 130848, Note_off_c, 0, 67, 64
2, 130848, Note_on_c, 0, 69, 92
2, 130944, Note_off_c, 0, 69, 64
2, 130944, Note_on_c, 0, 70, 92
2, 131040, Note_off_c, 0, 70, 64
2, 131040, Note_on_c, 0, 74, 92
2, 131136, Note_off_c, 0, 74, 64
2, 131136, Note_on_c, 0, 72, 92
2, 131232, Note_off_c, 0, 72, 64
2, 131232, Note_on_c, 0, 74, 92
2, 131280, Note_off_c, 0, 74, 64
2, 131280, Note_on_c, 0, 75, 92
2, 131328, Note_off_c, 0, 75, 64
2, 131328, Note_on_c, 0, 74, 92
2, 131424, Note_off_c, 0, 74, 64
2, 131424, Note_off_c, 0, 65, 64
2, 131424, Note_on_c, 0, 63, 92
2, 131424, Note_on_c, 0, 72, 92
2, 131520, Note_off_c, 0, 72, 64
2, 131520, Note_off_c, 0, 63, 64
2, 131520, Note_on_c, 0, 62, 92
2, 131520, Note_on_c, 0, 70, 92
2, 131616, Note_off_c, 0, 70, 64
2, 131616, Note_off_c, 0, 62, 64
2, 131616, Note_on_c, 0, 63, 92
2, 131616, Note_on_c, 0, 72, 92
2, 131712, Note_off_c, 0, 72, 64
2, 131712, Note_off_c, 0, 63, 64
2, 131712, Note_on_c, 0, 60, 92
2, 131712, Note_on_c, 0, 69, 92
2, 131808, Note_off_c, 0, 69, 64
2, 131808, Note_on_c, 0, 72, 92
2, 131904, Note_off_c, 0, 72, 64
2, 131904, Note_on_c, 0, 70, 92
2, 132000, Note_off_c, 0, 70, 64
2, 132000, Note_off_c, 0, 60, 64
2, 132000, Note_on_c, 0, 62, 92
2, 132000, Note_on_c, 0, 69, 92
2, 132096, Note_off_c, 0, 69, 64
2, 132096, Note_off_c, 0, 62, 64
2, 132096, Note_on_c, 0, 62, 92
2, 132096, Note_on_c, 0, 70, 92
2, 132288, Note_off_c, 0, 70, 64
2, 132288, Note_off_c, 0, 62, 64
2, 132288, Note_on_c, 0, 63, 92
2, 132288, Note_on_c, 0, 72, 92
2, 132480, Note_off_c, 0, 72, 64
2, 132480, Note_off_c, 0, 63, 64
2, 132480, Note_on_c, 0, 65, 92
2, 132480, Note_on_c, 0, 74, 92
2, 132576, Note_off_c, 0, 74, 64
2, 132576, Note_on_c, 0, 75, 92
2, 132672, Note_off_c, 0, 75, 64
2, 132672, Note_on_c, 0, 74, 92
2, 132768, Note_off_c, 0, 74, 64
2, 132768, Note_on_c, 0, 75, 92
2, 132864, Note_off_c, 0, 75, 64
2, 132864, Note_on_c, 0, 72, 92
2, 132960, Note_off_c, 0, 72, 64
2, 132960, Note_on_c, 0, 74, 92
2, 133056, Note_off_c, 0, 74, 64
2, 133056, Note_on_c, 0, 70, 92
2, 133152, Note_off_c, 0, 70, 64
2, 133152, Note_on_c, 0, 72, 92
2, 133248, Note_off_c, 0, 72, 64
2, 133248, Note_off_c, 0, 65, 64
2, 133248, Note_on_c, 0, 69, 92
2, 133440, Note_off_c, 0, 69, 64
2, 133440, Note_on_c, 0, 74, 92
2, 133440, Note_on_c, 0, 65, 92
2, 133632, Note_off_c, 0, 65, 64
2, 133632, Note_on_c, 0, 63, 92
2, 133728, Note_off_c, 0, 63, 64
2, 133728, Note_on_c, 0, 65, 92
2, 133824, Note_off_c, 0, 65, 64
2, 133824, Note_on_c, 0, 67, 92
2, 134016, Note_off_c, 0, 74, 64
2, 134016, Note_on_c, 0, 72, 92
2, 134112, Note_off_c, 0, 67, 64
2, 134112, Note_on_c, 0, 67, 92
2, 134208, Note_off_c, 0, 67, 64
2, 134208, Note_on_c, 0, 65, 92
2, 134304, Note_off_c, 0, 65, 64
2, 134304, Note_on_c, 0, 63, 92
2, 134400, Note_off_c, 0, 63, 64
2, 134400, Note_on_c, 0, 62, 92
2, 134496, Note_off_c, 0, 62, 64
2, 134496, Note_on_c, 0, 63, 92
2, 134592, Note_off_c, 0, 63, 64
2, 134592, Note_on_c, 0, 65, 92
2, 134784, Note_off_c, 0, 72, 64
2, 134784, Note_on_c, 0, 70, 92
2, 134880, Note_off_c, 0, 65, 64
2, 134880, Note_on_c, 0, 65, 92
2, 134976, Note_off_c, 0, 65, 64
2, 134976, Note_on_c, 0, 63, 92
2, 135072, Note_off_c, 0, 63, 64
2, 135072, Note_on_c, 0, 62, 92
2, 135168, Note_off_c, 0, 62, 64
2, 135168, Note_on_c, 0, 60, 92
2, 135264, Note_off_c, 0, 60, 64
2, 135264, Note_on_c, 0, 62, 92
2, 135360, Note_off_c, 0, 62, 64
2, 135360, Note_on_c, 0, 63, 92
2, 135552, Note_off_c, 0, 70, 64
2, 135552, Note_on_c, 0, 69, 92
2, 135648, Note_off_c, 0, 63, 64
2, 135648, Note_on_c, 0, 63, 92
2, 135744, Note_off_c, 0, 63, 64
2, 135744, Note_on_c, 0, 62, 92
2, 135840, Note_off_c, 0, 62, 64
2, 135840, Note_on_c, 0, 60, 92
2, 135936, Note_off_c, 0, 60, 64
2, 135936, Note_off_c, 0, 69, 64
2, 135936, Note_on_c, 0, 58, 92
2, 136128, Note_on_c, 0, 65, 92
2, 136320, Note_off_c, 0, 65, 64
2, 136320, Note_off_c, 0, 58, 64
2, 136320, Note_on_c, 0, 70, 92
2, 136512, Note_off_c, 0, 70, 64
2, 136512, Note_on_c, 0, 70, 92
2, 136704, Note_off_c, 0, 70, 64
2, 136704, Note_on_c, 0, 69, 92
2, 136896, Note_on_c, 0, 60, 92
2, 137088, Note_off_c, 0, 60, 64
2, 137088, Note_off_c, 0, 69, 64
2, 137088, Note_on_c, 0, 65, 92
2, 137088, Note_on_c, 0, 70, 92
2, 137280, Note_off_c, 0, 70, 64
2, 137280, Note_off_c, 0, 65, 64
2, 137280, Note_on_c, 0, 65, 92
2, 137280, Note_on_c, 0, 71, 92
2, 137472, Note_off_c, 0, 71, 64
2, 137472, Note_off_c, 0, 65, 64
2, 137472, Note_on_c, 0, 63, 92
2, 137472, Note_on_c, 0, 72, 92
2, 137664, Note_off_c, 0, 72, 64
2, 137664, Note_off_c, 0, 63, 64
2, 137664, Note_on_c, 0, 64, 92
2, 137664, Note_on_c, 0, 67, 92
2, 137856, Note_off_c, 0, 67, 64
2, 137856, Note_off_c, 0, 64, 64
2, 137856, Note_on_c, 0, 65, 92
2, 137856, Note_on_c, 0, 72, 92
2, 138048, Note_off_c, 0, 72, 64
2, 138048, Note_off_c, 0, 65, 64
2, 138048, Note_on_c, 0, 66, 92
2, 138048, Note_on_c, 0, 72, 92
2, 138240, Note_off_c, 0, 72, 64
2, 138240, Note_off_c, 0, 66, 64
2, 138240, Note_on_c, 0, 67, 92
2, 138240, Note_on_c, 0, 70, 92
2, 138432, Note_off_c, 0, 70, 64
2, 138432, Note_off_c, 0, 67, 64
2, 138432, Note_on_c, 0, 62, 92
2, 138432, Note_on_c, 0, 71, 92
2, 138624, Note_off_c, 0, 71, 64
2, 138624, Note_off_c, 0, 62, 64
2, 138624, Note_on_c, 0, 67, 92
2, 138624, Note_on_c, 0, 72, 92
2, 138816, Note_off_c, 0, 72, 64
2, 138816, Note_off_c, 0, 67, 64
2, 138816, Note_on_c, 0, 67, 92
2, 138816, Note_on_c, 0, 73, 92
2, 139008, Note_off_c, 0, 73, 64
2, 139008, Note_off_c, 0, 67, 64
2, 139008, Note_on_c, 0, 65, 92
2, 139008, Note_on_c, 0, 74, 92
2, 139200, Note_off_c, 0, 74, 64
2, 139200, Note_off_c, 0, 65, 64
2, 139200, Note_on_c, 0, 66, 92
2, 139200, Note_on_c, 0, 69, 92
2, 139392, Note_off_c, 0, 69, 64
2, 139392, Note_off_c, 0, 66, 64
2, 139392, Note_on_c, 0, 67, 92
2, 139392, Note_on_c, 0, 74, 92
2, 139584, Note_off_c, 0, 74, 64
2, 139584, Note_off_c, 0, 67, 64
2, 139584, Note_on_c, 0, 68, 92
2, 139584, Note_on_c, 0, 74, 92
2, 139776, Note_off_c, 0, 74, 64
2, 139776, Note_off_c, 0, 68, 64
2, 139776, Note_on_c, 0, 73, 92
2, 139776, Note_on_c, 0, 69, 92
2, 139872, Note_off_c, 0, 69, 64
2, 139872, Note_on_c, 0, 70, 92
2, 139968, Note_off_c, 0, 70, 64
2, 139968, Note_on_c, 0, 67, 92
2, 140064, Note_off_c, 0, 67, 64
2, 140064, Note_on_c, 0, 69, 92
2, 140160, Note_off_c, 0, 69, 64
2, 140160, Note_off_c, 0, 73, 64
2, 140160, Note_on_c, 0, 74, 92
2, 140160, Note_on_c, 0, 65, 92
2, 140256, Note_off_c, 0, 65, 64
2, 140256, Note_on_c, 0, 67, 92
2, 140352, Note_off_c, 0, 67, 64
2, 140352, Note_on_c, 0, 69, 92
2, 140448, Note_off_c, 0, 69, 64
2, 140448, Note_on_c, 0, 70, 92
2, 140544, Note_off_c, 0, 70, 64
2, 140544, Note_on_c, 0, 67, 92
2, 140640, Note_off_c, 0, 67, 64
2, 140640, Note_on_c, 0, 69, 92
2, 140736, Note_off_c, 0, 69, 64
2, 140736, Note_on_c, 0, 65, 92
2, 140832, Note_off_c, 0, 65, 64
2, 140832, Note_on_c, 0, 67, 92
2, 140928, Note_off_c, 0, 67, 64
2, 140928, Note_off_c, 0, 74, 64
2, 140928, Note_on_c, 0, 73, 92
2, 140928, Note_on_c, 0, 64, 92
2, 141024, Note_off_c, 0, 64, 64
2, 141024, Note_on_c, 0, 65, 92
2, 141120, Note_off_c, 0, 65, 64
2, 141120, Note_on_c, 0, 67, 92
2, 141216, Note_off_c, 0, 67, 64
2, 141216, Note_on_c, 0, 69, 92
2, 141312, Note_off_c, 0, 69, 64
2, 141312, Note_off_c, 0, 73, 64
2, 141312, Note_on_c, 0, 74, 92
2, 141312, Note_on_c, 0, 65, 92
2, 141408, Note_off_c, 0, 65, 64
2, 141408, Note_on_c, 0, 69, 92
2, 141504, Note_off_c, 0, 69, 64
2, 141504, Note_off_c, 0, 74, 64
2, 141504, Note_on_c, 0, 77, 92
2, 141504, Note_on_c, 0, 62, 92
2, 141600, Note_off_c, 0, 62, 64
2, 141600, Note_on_c, 0, 65, 92
2, 141696, Note_off_c, 0, 65, 64
2, 141696, Note_off_c, 0, 77, 64
2, 141696, Note_on_c, 0, 67, 92
2, 141696, Note_on_c, 0, 64, 92
2, 141792, Note_off_c, 0, 64, 64
2, 141792, Note_off_c, 0, 67, 64
2, 141792, Note_on_c, 0, 67, 92
2, 141888, Note_off_c, 0, 67, 64
2, 141888, Note_on_c, 0, 76, 92
2, 141888, Note_on_c, 0, 61, 92
2, 141984, Note_off_c, 0, 61, 64
2, 141984, Note_on_c, 0, 64, 92
2, 142080, Note_off_c, 0, 64, 64
2, 142080, Note_off_c, 0, 76, 64
2, 142080, Note_on_c, 0, 65, 92
2, 142080, Note_on_c, 0, 62, 92
2, 142176, Note_off_c, 0, 62, 64
2, 142176, Note_off_c, 0, 65, 64
2, 142176, Note_on_c, 0, 69, 92
2, 142176, Note_on_c, 0, 65, 92
2, 142272, Note_off_c, 0, 65, 64
2, 142272, Note_off_c, 0, 69, 64
2, 142272, Note_on_c, 0, 74, 92
2, 142272, Note_on_c, 0, 57, 92
2, 142368, Note_off_c, 0, 57, 64
2, 142368, Note_on_c, 0, 62, 92
2, 142464, Note_off_c, 0, 62, 64
2, 142464, Note_off_c, 0, 74, 64
2, 142464, Note_on_c, 0, 73, 92
2, 142464, Note_on_c, 0, 64, 92
2, 142560, Note_off_c, 0, 64, 64
2, 142560, Note_off_c, 0, 73, 64
2, 142560, Note_on_c, 0, 76, 92
2, 142560, Note_on_c, 0, 67, 92
2, 142656, Note_off_c, 0, 67, 64
2, 142656, Note_off_c, 0, 76, 64
2, 142656, Note_on_c, 0, 81, 92
2, 142656, Note_on_c, 0, 57, 92
2, 142752, Note_off_c, 0, 57, 64
2, 142752, Note_on_c, 0, 61, 92
2, 142848, Note_off_c, 0, 61, 64
2, 142848, Note_off_c, 0, 81, 64
2, 142848, Note_on_c, 0, 77, 92
2, 142848, Note_on_c, 0, 62, 92
2, 142944, Note_off_c, 0, 62, 64
2, 142944, Note_off_c, 0, 77, 64
2, 142944, Note_on_c, 0, 79, 92
2, 142944, Note_on_c, 0, 65, 92
2, 143040, Note_off_c, 0, 65, 64
2, 143040, Note_off_c, 0, 79, 64
2, 143040, Note_on_c, 0, 76, 92
2, 143040, Note_on_c, 0, 57, 92
2, 143136, Note_off_c, 0, 57, 64
2, 143136, Note_off_c, 0, 76, 64
2, 143136, Note_on_c, 0, 77, 92
2, 143136, Note_on_c, 0, 62, 92
2, 143232, Note_off_c, 0, 62, 64
2, 143232, Note_off_c, 0, 77, 64
2, 143232, Note_on_c, 0, 74, 92
2, 143328, Note_off_c, 0, 74, 64
2, 143328, Note_on_c, 0, 77, 92
2, 143424, Note_off_c, 0, 77, 64
2, 143424, Note_on_c, 0, 76, 92
2, 143520, Note_off_c, 0, 76, 64
2, 143520, Note_on_c, 0, 74, 92
2, 143616, Note_off_c, 0, 74, 64
2, 143616, Note_on_c, 0, 73, 92
2, 143712, Note_off_c, 0, 73, 64
2, 143712, Note_on_c, 0, 74, 92
2, 143808, Note_off_c, 0, 74, 64
2, 143808, Note_on_c, 0, 71, 92
2, 143904, Note_off_c, 0, 71, 64
2, 143904, Note_on_c, 0, 73, 92
2, 144000, Note_off_c, 0, 73, 64
2, 144000, Note_on_c, 0, 69, 92
2, 144192, Note_off_c, 0, 69, 64
2, 144192, Note_on_c, 0, 74, 92
2, 144288, Note_off_c, 0, 74, 64
2, 144288, Note_on_c, 0, 69, 92
2, 144384, Note_off_c, 0, 69, 64
2, 144384, Note_on_c, 0, 70, 92
2, 144576, Note_off_c, 0, 70, 64
2, 144576, Note_on_c, 0, 67, 92
2, 144768, Note_off_c, 0, 67, 64
2, 144768, Note_on_c, 0, 60, 92
2, 144960, Note_off_c, 0, 60, 64
2, 144960, Note_on_c, 0, 72, 92
2, 145152, Note_off_c, 0, 72, 64
2, 145152, Note_on_c, 0, 69, 92
2, 145248, Note_off_c, 0, 69, 64
2, 145248, Note_on_c, 0, 70, 92
2, 145344, Note_off_c, 0, 70, 64
2, 145344, Note_on_c, 0, 67, 92
2, 145440, Note_off_c, 0, 67, 64
2, 145440, Note_on_c, 0, 69, 92
2, 145536, Note_off_c, 0, 69, 64
2, 145536, Note_on_c, 0, 65, 92
2, 145728, Note_off_c, 0, 65, 64
2, 145728, Note_on_c, 0, 70, 92
2, 145824, Note_off_c, 0, 70, 64
2, 145824, Note_on_c, 0, 65, 92
2, 145920, Note_off_c, 0, 65, 64
2, 145920, Note_on_c, 0, 67, 92
2, 146112, Note_off_c, 0, 67, 64
2, 146112, Note_on_c, 0, 64, 92
2, 146304, Note_off_c, 0, 64, 64
2, 146304, Note_on_c, 0, 57, 92
2, 146496, Note_off_c, 0, 57, 64
2, 146496, Note_on_c, 0, 69, 92
2, 146688, Note_off_c, 0, 69, 64
2, 146688, Note_on_c, 0, 65, 92
2, 146784, Note_off_c, 0, 65, 64
2, 146784, Note_on_c, 0, 67, 92
2, 146880, Note_off_c, 0, 67, 64
2, 146880, Note_on_c, 0, 64, 92
2, 146976, Note_off_c, 0, 64, 64
2, 146976, Note_on_c, 0, 65, 92
2, 147072, Note_off_c, 0, 65, 64
2, 147072, Note_on_c, 0, 62, 92
2, 147168, Note_off_c, 0, 62, 64
2, 147168, Note_on_c, 0, 65, 92
2, 147264, Note_off_c, 0, 65, 64
2, 147264, Note_on_c, 0, 69, 92
2, 147360, Note_off_c, 0, 69, 64
2, 147360, Note_on_c, 0, 74, 92
2, 147456, Note_off_c, 0, 74, 64
2, 147456, Note_on_c, 0, 73, 92
2, 147552, Note_off_c, 0, 73, 64
2, 147552, Note_on_c, 0, 74, 92
2, 147648, Note_off_c, 0, 74, 64
2, 147648, Note_on_c, 0, 71, 92
2, 147744, Note_off_c, 0, 71, 64
2, 147744, Note_on_c, 0, 73, 92
2, 147840, Note_off_c, 0, 73, 64
2, 147840, Note_on_c, 0, 69, 92
2, 147936, Note_off_c, 0, 69, 64
2, 147936, Note_on_c, 0, 73, 92
2, 148032, Note_off_c, 0, 73, 64
2, 148032, Note_on_c, 0, 76, 92
2, 148128, Note_off_c, 0, 76, 64
2, 148128, Note_on_c, 0, 79, 92
2, 148224, Note_off_c, 0, 79, 64
2, 148224, Note_on_c, 0, 77, 92
2, 148320, Note_off_c, 0, 77, 64
2, 148320, Note_on_c, 0, 79, 92
2, 148416, Note_off_c, 0, 79, 64
2, 148416, Note_on_c, 0, 76, 92
2, 148512, Note_off_c, 0, 76, 64
2, 148512, Note_on_c, 0, 77, 92
2, 148608, Note_off_c, 0, 77, 64
2, 148608, Note_on_c, 0, 74, 92
2, 148704, Note_off_c, 0, 74, 64
2, 148704, Note_on_c, 0, 77, 92
2, 148800, Note_off_c, 0, 77, 64
2, 148800, Note_on_c, 0, 81, 92
2, 148896, Note_off_c, 0, 81, 64
2, 148896, Note_on_c, 0, 84, 92
2, 148992, Note_off_c, 0, 84, 64
2, 148992, Note_on_c, 0, 82, 92
2, 149088, Note_off_c, 0, 82, 64
2, 149088, Note_on_c, 0, 84, 92
2, 149184, Note_off_c, 0, 84, 64
2, 149184, Note_on_c, 0, 81, 92
2, 149280, Note_off_c, 0, 81, 64
2, 149280, Note_on_c, 0, 82, 92
2, 149376, Note_off_c, 0, 82, 64
2, 149376, Note_on_c, 0, 79, 92
2, 149472, Note_off_c, 0, 79, 64
2, 149472, Note_on_c, 0, 81, 92
2, 149568, Note_off_c, 0, 81, 64
2, 149568, Note_on_c, 0, 77, 92
2, 149664, Note_off_c, 0, 77, 64
2, 149664, Note_on_c, 0, 79, 92
2, 149760, Note_off_c, 0, 79, 64
2, 149760, Note_on_c, 0, 76, 92
2, 149856, Note_off_c, 0, 76, 64
2, 149856, Note_on_c, 0, 77, 92
2, 149952, Note_off_c, 0, 77, 64
2, 149952, Note_on_c, 0, 74, 92
2, 150048, Note_off_c, 0, 74, 64
2, 150048, Note_on_c, 0, 76, 92
2, 150144, Note_off_c, 0, 76, 64
2, 150144, Note_on_c, 0, 72, 92
2, 150240, Note_off_c, 0, 72, 64
2, 150240, Note_on_c, 0, 76, 92
2, 150336, Note_off_c, 0, 76, 64
2, 150336, Note_on_c, 0, 79, 92
2, 150432, Note_off_c, 0, 79, 64
2, 150432, Note_on_c, 0, 82, 92
2, 150528, Note_off_c, 0, 82, 64
2, 150528, Note_on_c, 0, 81, 92
2, 150624, Note_off_c, 0, 81, 64
2, 150624, Note_on_c, 0, 82, 92
2, 150720, Note_off_c, 0, 82, 64
2, 150720, Note_on_c, 0, 79, 92
2, 150816, Note_off_c, 0, 79, 64
2, 150816, Note_on_c, 0, 81, 92
2, 150912, Note_off_c, 0, 81, 64
2, 150912, Note_on_c, 0, 77, 92
2, 151008, Note_off_c, 0, 77, 64
2, 151008, Note_on_c, 0, 79, 92
2, 151104, Note_off_c, 0, 79, 64
2, 151104, Note_on_c, 0, 76, 92
2, 151200, Note_off_c, 0, 76, 64
2, 151200, Note_on_c, 0, 77, 92
2, 151296, Note_off_c, 0, 77, 64
2, 151296, Note_on_c, 0, 74, 92
2, 151392, Note_off_c, 0, 74, 64
2, 151392, Note_on_c, 0, 76, 92
2, 151488, Note_off_c, 0, 76, 64
2, 151488, Note_on_c, 0, 72, 92
2, 151584, Note_off_c, 0, 72, 64
2, 151584, Note_on_c, 0, 74, 92
2, 151680, Note_off_c, 0, 74, 64
2, 151680, Note_on_c, 0, 70, 92
2, 151776, Note_off_c, 0, 70, 64
2, 151776, Note_on_c, 0, 74, 92
2, 151872, Note_off_c, 0, 74, 64
2, 151872, Note_on_c, 0, 77, 92
2, 151968, Note_off_c, 0, 77, 64
2, 151968, Note_on_c, 0, 81, 92
2, 152064, Note_off_c, 0, 81, 64
2, 152064, Note_on_c, 0, 79, 92
2, 152160, Note_off_c, 0, 79, 64
2, 152160, Note_on_c, 0, 81, 92
2, 152256, Note_off_c, 0, 81, 64
2, 152256, Note_on_c, 0, 77, 92
2, 152352, Note_off_c, 0, 77, 64
2, 152352, Note_on_c, 0, 79, 92
2, 152448, Note_off_c, 0, 79, 64
2, 152448, Note_on_c, 0, 76, 92
2, 152544, Note_off_c, 0, 76, 64
2, 152544, Note_on_c, 0, 77, 92
2, 152640, Note_off_c, 0, 77, 64
2, 152640, Note_on_c, 0, 74, 92
2, 152736, Note_off_c, 0, 74, 64
2, 152736, Note_on_c, 0, 76, 92
2, 152832, Note_off_c, 0, 76, 64
2, 152832, Note_on_c, 0, 73, 92
2, 152928, Note_off_c, 0, 73, 64
2, 152928, Note_on_c, 0, 74, 92
2, 153024, Note_off_c, 0, 74, 64
2, 153024, Note_on_c, 0, 71, 92
2, 153120, Note_off_c, 0, 71, 64
2, 153120, Note_on_c, 0, 73, 92
2, 153216, Note_off_c, 0, 73, 64
2, 153216, Note_on_c, 0, 69, 92
2, 153312, Note_off_c, 0, 69, 64
2, 153312, Note_on_c, 0, 73, 92
2, 153408, Note_off_c, 0, 73, 64
2, 153408, Note_on_c, 0, 76, 92
2, 153504, Note_off_c, 0, 76, 64
2, 153504, Note_on_c, 0, 81, 92
2, 153600, Note_off_c, 0, 81, 64
2, 153600, Note_on_c, 0, 74, 92
2, 153696, Note_off_c, 0, 74, 64
2, 153696, Note_on_c, 0, 77, 92
2, 153792, Note_off_c, 0, 77, 64
2, 153792, Note_on_c, 0, 69, 92
2, 153888, Note_off_c, 0, 69, 64
2, 153888, Note_on_c, 0, 74, 92
2, 153984, Note_off_c, 0, 74, 64
2, 153984, Note_on_c, 0, 65, 92
2, 154080, Note_off_c, 0, 65, 64
2, 154080, Note_on_c, 0, 69, 92
2, 154176, Note_off_c, 0, 69, 64
2, 154176, Note_on_c, 0, 62, 92
2, 154272, Note_off_c, 0, 62, 64
2, 154272, Note_on_c, 0, 71, 92
2, 154368, Note_off_c, 0, 71, 64
2, 154368, Note_on_c, 0, 69, 92
2, 154464, Note_off_c, 0, 69, 64
2, 154464, Note_on_c, 0, 73, 92
2, 154560, Note_off_c, 0, 73, 64
2, 154560, Note_on_c, 0, 76, 92
2, 154656, Note_off_c, 0, 76, 64
2, 154656, Note_on_c, 0, 79, 92
2, 154752, Note_off_c, 0, 79, 64
2, 154752, Note_on_c, 0, 77, 92
2, 154848, Note_off_c, 0, 77, 64
2, 154848, Note_on_c, 0, 81, 92
2, 154944, Note_off_c, 0, 81, 64
2, 154944, Note_on_c, 0, 74, 92
2, 155040, Note_off_c, 0, 74, 64
2, 155040, Note_on_c, 0, 77, 92
2, 155136, Note_off_c, 0, 77, 64
2, 155136, Note_on_c, 0, 67, 92
2, 155232, Note_off_c, 0, 67, 64
2, 155232, Note_on_c, 0, 70, 92
2, 155328, Note_off_c, 0, 70, 64
2, 155328, Note_on_c, 0, 74, 92
2, 155424, Note_off_c, 0, 74, 64
2, 155424, Note_on_c, 0, 77, 92
2, 155520, Note_off_c, 0, 77, 64
2, 155520, Note_on_c, 0, 76, 92
2, 155616, Note_off_c, 0, 76, 64
2, 155616, Note_on_c, 0, 79, 92
2, 155712, Note_off_c, 0, 79, 64
2, 155712, Note_on_c, 0, 72, 92
2, 155808, Note_off_c, 0, 72, 64
2, 155808, Note_on_c, 0, 76, 92
2, 155904, Note_off_c, 0, 76, 64
2, 155904, Note_on_c, 0, 65, 92
2, 156000, Note_off_c, 0, 65, 64
2, 156000, Note_on_c, 0, 69, 92
2, 156096, Note_off_c, 0, 69, 64
2, 156096, Note_on_c, 0, 72, 92
2, 156192, Note_off_c, 0, 72, 64
2, 156192, Note_on_c, 0, 76, 92
2, 156288, Note_off_c, 0, 76, 64
2, 156288, Note_on_c, 0, 74, 92
2, 156384, Note_off_c, 0, 74, 64
2, 156384, Note_on_c, 0, 77, 92
2, 156480, Note_off_c, 0, 77, 64
2, 156480, Note_on_c, 0, 70, 92
2, 156576, Note_off_c, 0, 70, 64
2, 156576, Note_on_c, 0, 74, 92
2, 156672, Note_off_c, 0, 74, 64
2, 156672, Note_on_c, 0, 64, 92
2, 156768, Note_off_c, 0, 64, 64
2, 156768, Note_on_c, 0, 67, 92
2, 156864, Note_off_c, 0, 67, 64
2, 156864, Note_on_c, 0, 70, 92
2, 156960, Note_off_c, 0, 70, 64
2, 156960, Note_on_c, 0, 74, 92
2, 157056, Note_off_c, 0, 74, 64
2, 157056, Note_on_c, 0, 73, 92
2, 157152, Note_off_c, 0, 73, 64
2, 157152, Note_on_c, 0, 76, 92
2, 157248, Note_off_c, 0, 76, 64
2, 157248, Note_on_c, 0, 69, 92
2, 157344, Note_off_c, 0, 69, 64
2, 157344, Note_on_c, 0, 73, 92
2, 157440, Note_off_c, 0, 73, 64
2, 157440, Note_on_c, 0, 74, 92
2, 157536, Note_off_c, 0, 74, 64
2, 157536, Note_on_c, 0, 77, 92
2, 157632, Note_off_c, 0, 77, 64
2, 157632, Note_on_c, 0, 69, 92
2, 157728, Note_off_c, 0, 69, 64
2, 157728, Note_on_c, 0, 74, 92
2, 157824, Note_off_c, 0, 74, 64
2, 157824, Note_on_c, 0, 65, 92
2, 157920, Note_off_c, 0, 65, 64
2, 157920, Note_on_c, 0, 69, 92
2, 158016, Note_off_c, 0, 69, 64
2, 158016, Note_on_c, 0, 62, 92
2, 158112, Note_off_c, 0, 62, 64
2, 158112, Note_on_c, 0, 69, 92
2, 158208, Note_off_c, 0, 69, 64
2, 158208, Note_on_c, 0, 70, 92
2, 158304, Note_off_c, 0, 70, 64
2, 158304, Note_on_c, 0, 72, 92
2, 158400, Note_off_c, 0, 72, 64
2, 158400, Note_on_c, 0, 69, 92
2, 158496, Note_off_c, 0, 69, 64
2, 158496, Note_on_c, 0, 70, 92
2, 158592, Note_off_c, 0, 70, 64
2, 158592, Note_on_c, 0, 67, 92
2, 158784, Note_off_c, 0, 67, 64
2, 158784, Note_on_c, 0, 70, 92
2, 158976, Note_off_c, 0, 70, 64
2, 158976, Note_on_c, 0, 72, 92
2, 159072, Note_off_c, 0, 72, 64
2, 159072, Note_on_c, 0, 76, 92
2, 159168, Note_off_c, 0, 76, 64
2, 159168, Note_on_c, 0, 67, 92
2, 159264, Note_off_c, 0, 67, 64
2, 159264, Note_on_c, 0, 72, 92
2, 159360, Note_off_c, 0, 72, 64
2, 159360, Note_on_c, 0, 64, 92
2, 159456, Note_off_c, 0, 64, 64
2, 159456, Note_on_c, 0, 67, 92
2, 159552, Note_off_c, 0, 67, 64
2, 159552, Note_on_c, 0, 60, 92
2, 159648, Note_off_c, 0, 60, 64
2, 159648, Note_on_c, 0, 67, 92
2, 159744, Note_off_c, 0, 67, 64
2, 159744, Note_on_c, 0, 69, 92
2, 159936, Note_off_c, 0, 69, 64
2, 159936, Note_on_c, 0, 70, 92
2, 160128, Note_off_c, 0, 70, 64
2, 160128, Note_on_c, 0, 72, 92
2, 160320, Note_off_c, 0, 72, 64
2, 160320, Note_on_c, 0, 74, 92
2, 160512, Note_off_c, 0, 74, 64
2, 160512, Note_on_c, 0, 67, 92
2, 160704, Note_off_c, 0, 67, 64
2, 160704, Note_on_c, 0, 79, 92
2, 160992, Note_off_c, 0, 79, 64
2, 160992, Note_on_c, 0, 76, 92
2, 161088, Note_off_c, 0, 76, 64
2, 161088, Note_on_c, 0, 72, 92
2, 161184, Note_off_c, 0, 72, 64
2, 161184, Note_on_c, 0, 81, 92
2, 161280, Note_off_c, 0, 81, 64
2, 161280, Note_on_c, 0, 82, 92
2, 161376, Note_off_c, 0, 82, 64
2, 161376, Note_on_c, 0, 72, 92
2, 161472, Note_off_c, 0, 72, 64
2, 161472, Note_on_c, 0, 74, 92
2, 161760, Note_off_c, 0, 74, 64
2, 161760, Note_on_c, 0, 74, 92
2, 161856, Note_off_c, 0, 74, 64
2, 161856, Note_on_c, 0, 72, 92
2, 161952, Note_off_c, 0, 72, 64
2, 161952, Note_on_c, 0, 70, 92
2, 162048, Note_off_c, 0, 70, 64
2, 162048, Note_on_c, 0, 81, 92
2, 162144, Note_off_c, 0, 81, 64
2, 162144, Note_on_c, 0, 70, 92
2, 162240, Note_off_c, 0, 70, 64
2, 162240, Note_on_c, 0, 72, 92
2, 162528, Note_off_c, 0, 72, 64
2, 162528, Note_on_c, 0, 72, 92
2, 162624, Note_off_c, 0, 72, 64
2, 162624, Note_on_c, 0, 70, 92
2, 162720, Note_off_c, 0, 70, 64
2, 162720, Note_on_c, 0, 69, 92
2, 162816, Note_off_c, 0, 69, 64
2, 162816, Note_on_c, 0, 79, 92
2, 162912, Note_off_c, 0, 79, 64
2, 162912, Note_on_c, 0, 69, 92
2, 163008, Note_off_c, 0, 69, 64
2, 163008, Note_on_c, 0, 70, 92
2, 163296, Note_off_c, 0, 70, 64
2, 163296, Note_on_c, 0, 70, 92
2, 163392, Note_off_c, 0, 70, 64
2, 163392, Note_on_c, 0, 69, 92
2, 163488, Note_off_c, 0, 69, 64
2, 163488, Note_on_c, 0, 67, 92
2, 163584, Note_off_c, 0, 67, 64
2, 163584, Note_on_c, 0, 65, 92
2, 163968, Note_off_c, 0, 65, 64
2, 164544, Note_on_c, 0, 72, 92
2, 164736, Note_off_c, 0, 72, 64
2, 164736, Note_on_c, 0, 77, 92
2, 164928, Note_off_c, 0, 77, 64
2, 164928, Note_on_c, 0, 76, 92
2, 165120, Note_off_c, 0, 76, 64
2, 165120, Note_on_c, 0, 77, 92
2, 165216, Note_off_c, 0, 77, 64
2, 165216, Note_on_c, 0, 75, 92
2, 165312, Note_off_c, 0, 75, 64
2, 165312, Note_on_c, 0, 74, 92
2, 165408, Note_off_c, 0, 74, 64
2, 165408, Note_on_c, 0, 77, 92
2, 165504, Note_off_c, 0, 77, 64
2, 165504, Note_on_c, 0, 75, 92
2, 165600, Note_off_c, 0, 75, 64
2, 165600, Note_on_c, 0, 72, 92
2, 165696, Note_off_c, 0, 72, 64
2, 165696, Note_on_c, 0, 71, 92
2, 165792, Note_off_c, 0, 71, 64
2, 165792, Note_on_c, 0, 74, 92
2, 165888, Note_off_c, 0, 74, 64
2, 165888, Note_on_c, 0, 72, 92
2, 166080, Note_off_c, 0, 72, 64
2, 166848, Note_on_c, 0, 79, 92
2, 167040, Note_off_c, 0, 79, 64
2, 167040, Note_on_c, 0, 84, 92
2, 167232, Note_off_c, 0, 84, 64
2, 167232, Note_on_c, 0, 83, 92
2, 167424, Note_off_c, 0, 83, 64
2, 167424, Note_on_c, 0, 84, 92
2, 167520, Note_off_c, 0, 84, 64
2, 167520, Note_on_c, 0, 82, 92
2, 167616, Note_off_c, 0, 82, 64
2, 167616, Note_on_c, 0, 81, 92
2, 167712, Note_off_c, 0, 81, 64
2, 167712, Note_on_c, 0, 84, 92
2, 167808, Note_off_c, 0, 84, 64
2, 167808, Note_on_c, 0, 82, 92
2, 167904, Note_off_c, 0, 82, 64
2, 167904, Note_on_c, 0, 79, 92
2, 168000, Note_off_c, 0, 79, 64
2, 168000, Note_on_c, 0, 78, 92
2, 168096, Note_off_c, 0, 78, 64
2, 168096, Note_on_c, 0, 81, 92
2, 168192, Note_off_c, 0, 81, 64
2, 168192, Note_on_c, 0, 79, 92
2, 168384, Note_off_c, 0, 79, 64
2, 168384, Note_on_c, 0, 74, 92
2, 168576, Note_off_c, 0, 74, 64
2, 168576, Note_on_c, 0, 79, 92
2, 168768, Note_off_c, 0, 79, 64
2, 168768, Note_on_c, 0, 78, 92
2, 168960, Note_off_c, 0, 78, 64
2, 168960, Note_on_c, 0, 79, 92
2, 169056, Note_off_c, 0, 79, 64
2, 169056, Note_on_c, 0, 81, 92
2, 169152, Note_off_c, 0, 81, 64
2, 169152, Note_on_c, 0, 78, 92
2, 169248, Note_off_c, 0, 78, 64
2, 169248, Note_on_c, 0, 81, 92
2, 169344, Note_off_c, 0, 81, 64
2, 169344, Note_on_c, 0, 79, 92
2, 169440, Note_off_c, 0, 79, 64
2, 169440, Note_on_c, 0, 81, 92
2, 169536, Note_off_c, 0, 81, 64
2, 169536, Note_on_c, 0, 77, 92
2, 169632, Note_off_c, 0, 77, 64
2, 169632, Note_on_c, 0, 79, 92
2, 169728, Note_off_c, 0, 79, 64
2, 169728, Note_on_c, 0, 75, 92
2, 169824, Note_off_c, 0, 75, 64
2, 169824, Note_on_c, 0, 77, 92
2, 169920, Note_off_c, 0, 77, 64
2, 169920, Note_on_c, 0, 74, 92
2, 170016, Note_off_c, 0, 74, 64
2, 170016, Note_on_c, 0, 77, 92
2, 170112, Note_off_c, 0, 77, 64
2, 170112, Note_on_c, 0, 75, 92
2, 170208, Note_off_c, 0, 75, 64
2, 170208, Note_on_c, 0, 77, 92
2, 170304, Note_off_c, 0, 77, 64
2, 170304, Note_on_c, 0, 74, 92
2, 170400, Note_off_c, 0, 74, 64
2, 170400, Note_on_c, 0, 75, 92
2, 170496, Note_off_c, 0, 75, 64
2, 170496, Note_on_c, 0, 72, 92
2, 170592, Note_off_c, 0, 72, 64
2, 170592, Note_on_c, 0, 74, 92
2, 170688, Note_off_c, 0, 74, 64
2, 170688, Note_on_c, 0, 70, 92
2, 170784, Note_off_c, 0, 70, 64
2, 170784, Note_on_c, 0, 74, 92
2, 170880, Note_off_c, 0, 74, 64
2, 170880, Note_on_c, 0, 72, 92
2, 170976, Note_off_c, 0, 72, 64
2, 170976, Note_on_c, 0, 74, 92
2, 171072, Note_off_c, 0, 74, 64
2, 171072, Note_on_c, 0, 70, 92
2, 171168, Note_off_c, 0, 70, 64
2, 171168, Note_on_c, 0, 72, 92
2, 171264, Note_off_c, 0, 72, 64
2, 171264, Note_on_c, 0, 69, 92
2, 171360, Note_off_c, 0, 69, 64
2, 171360, Note_on_c, 0, 70, 92
2, 171456, Note_off_c, 0, 70, 64
2, 171456, Note_on_c, 0, 67, 92
2, 171552, Note_off_c, 0, 67, 64
2, 171552, Note_on_c, 0, 70, 92
2, 171648, Note_off_c, 0, 70, 64
2, 171648, Note_on_c, 0, 69, 92
2, 171744, Note_off_c, 0, 69, 64
2, 171744, Note_on_c, 0, 70, 92
2, 171840, Note_off_c, 0, 70, 64
2, 171840, Note_on_c, 0, 67, 92
2, 171936, Note_off_c, 0, 67, 64
2, 171936, Note_on_c, 0, 69, 92
2, 172032, Note_off_c, 0, 69, 64
2, 172032, Note_on_c, 0, 66, 92
2, 172128, Note_off_c, 0, 66, 64
2, 172128, Note_on_c, 0, 67, 92
2, 172224, Note_off_c, 0, 67, 64
2, 172224, Note_on_c, 0, 64, 92
2, 172320, Note_off_c, 0, 64, 64
2, 172320, Note_on_c, 0, 66, 92
2, 172416, Note_off_c, 0, 66, 64
2, 172416, Note_on_c, 0, 62, 92
2, 172608, Note_off_c, 0, 62, 64
2, 172608, Note_on_c, 0, 74, 92
2, 172800, Note_off_c, 0, 74, 64
2, 172800, Note_on_c, 0, 70, 92
2, 172896, Note_off_c, 0, 70, 64
2, 172896, Note_on_c, 0, 72, 92
2, 172992, Note_off_c, 0, 72, 64
2, 172992, Note_on_c, 0, 69, 92
2, 173088, Note_off_c, 0, 69, 64
2, 173088, Note_on_c, 0, 70, 92
2, 173184, Note_off_c, 0, 70, 64
2, 173184, Note_on_c, 0, 67, 92
2, 173376, Note_off_c, 0, 67, 64
2, 173376, Note_on_c, 0, 79, 92
2, 173568, Note_off_c, 0, 79, 64
2, 173568, Note_on_c, 0, 78, 92
2, 173664, Note_off_c, 0, 78, 64
2, 173664, Note_on_c, 0, 79, 92
2, 173760, Note_off_c, 0, 79, 64
2, 173760, Note_on_c, 0, 76, 92
2, 173856, Note_off_c, 0, 76, 64
2, 173856, Note_on_c, 0, 78, 92
2, 173952, Note_off_c, 0, 78, 64
2, 173952, Note_on_c, 0, 74, 92
2, 174048, Note_off_c, 0, 74, 64
2, 174048, Note_on_c, 0, 81, 92
2, 174144, Note_off_c, 0, 81, 64
2, 174144, Note_on_c, 0, 72, 92
2, 174240, Note_off_c, 0, 72, 64
2, 174240, Note_on_c, 0, 81, 92
2, 174336, Note_off_c, 0, 81, 64
2, 174336, Note_on_c, 0, 70, 92
2, 174432, Note_off_c, 0, 70, 64
2, 174432, Note_on_c, 0, 72, 92
2, 174528, Note_off_c, 0, 72, 64
2, 174528, Note_on_c, 0, 69, 92
2, 174624, Note_off_c, 0, 69, 64
2, 174624, Note_on_c, 0, 70, 92
2, 174720, Note_off_c, 0, 70, 64
2, 174720, Note_on_c, 0, 67, 92
2, 174816, Note_off_c, 0, 67, 64
2, 174816, Note_on_c, 0, 70, 92
2, 174912, Note_off_c, 0, 70, 64
2, 174912, Note_on_c, 0, 75, 92
2, 175008, Note_off_c, 0, 75, 64
2, 175008, Note_on_c, 0, 67, 92
2, 175104, Note_off_c, 0, 67, 64
2, 175104, Note_on_c, 0, 62, 92
2, 175104, Note_on_c, 0, 66, 92
2, 175200, Note_off_c, 0, 66, 64
2, 175200, Note_on_c, 0, 69, 92
2, 175296, Note_off_c, 0, 69, 64
2, 175296, Note_on_c, 0, 74, 92
2, 175392, Note_off_c, 0, 62, 64
2, 175392, Note_on_c, 0, 64, 92
2, 175488, Note_off_c, 0, 64, 64
2, 175488, Note_on_c, 0, 66, 92
2, 175584, Note_off_c, 0, 74, 64
2, 175584, Note_on_c, 0, 72, 92
2, 175680, Note_off_c, 0, 72, 64
2, 175680, Note_on_c, 0, 70, 92
2, 175776, Note_off_c, 0, 70, 64
2, 175776, Note_on_c, 0, 69, 92
2, 175872, Note_off_c, 0, 69, 64
2, 175872, Note_off_c, 0, 66, 64
2, 175872, Note_on_c, 0, 70, 92
2, 175872, Note_on_c, 0, 67, 92
2, 175968, Note_off_c, 0, 70, 64
2, 175968, Note_on_c, 0, 74, 92
2, 176064, Note_off_c, 0, 74, 64
2, 176064, Note_on_c, 0, 79, 92
2, 176160, Note_off_c, 0, 67, 64
2, 176160, Note_on_c, 0, 69, 92
2, 176256, Note_off_c, 0, 69, 64
2, 176256, Note_on_c, 0, 70, 92
2, 176352, Note_off_c, 0, 79, 64
2, 176352, Note_on_c, 0, 73, 92
2, 176448, Note_off_c, 0, 73, 64
2, 176448, Note_on_c, 0, 76, 92
2, 176544, Note_off_c, 0, 70, 64
2, 176640, Note_off_c, 0, 76, 64
2, 176640, Note_on_c, 0, 69, 92
2, 176640, Note_on_c, 0, 74, 92
2, 177024, Note_off_c, 0, 74, 64
2, 177024, Note_off_c, 0, 69, 64
2, 177024, Note_on_c, 0, 82, 92
2, 177216, Note_on_c, 0, 74, 92
2, 177408, Note_off_c, 0, 74, 64
2, 177408, Note_on_c, 0, 79, 92
2, 177504, Note_off_c, 0, 79, 64
2, 177504, Note_on_c, 0, 77, 92
2, 177600, Note_off_c, 0, 77, 64
2, 177600, Note_on_c, 0, 75, 92
2, 177696, Note_off_c, 0, 75, 64
2, 177696, Note_on_c, 0, 74, 92
2, 177792, Note_off_c, 0, 74, 64
2, 177792, Note_off_c, 0, 82, 64
2, 177792, Note_on_c, 0, 81, 92
2, 177792, Note_on_c, 0, 72, 92
2, 177888, Note_off_c, 0, 72, 64
2, 177888, Note_on_c, 0, 75, 92
2, 177984, Note_off_c, 0, 75, 64
2, 177984, Note_on_c, 0, 74, 92
2, 178080, Note_off_c, 0, 74, 64
2, 178080, Note_on_c, 0, 72, 92
2, 178176, Note_off_c, 0, 72, 64
2, 178176, Note_on_c, 0, 70, 92
2, 178560, Note_off_c, 0, 70, 64
2, 178560, Note_off_c, 0, 81, 64
2, 178560, Note_on_c, 0, 79, 92
2, 178752, Note_on_c, 0, 70, 92
2, 178944, Note_off_c, 0, 70, 64
2, 178944, Note_on_c, 0, 75, 92
2, 179040, Note_off_c, 0, 75, 64
2, 179040, Note_on_c, 0, 74, 92
2, 179136, Note_off_c, 0, 74, 64
2, 179136, Note_on_c, 0, 72, 92
2, 179232, Note_off_c, 0, 72, 64
2, 179232, Note_on_c, 0, 70, 92
2, 179328, Note_off_c, 0, 70, 64
2, 179328, Note_off_c, 0, 79, 64
2, 179328, Note_on_c, 0, 78, 92
2, 179328, Note_on_c, 0, 69, 92
2, 179424, Note_off_c, 0, 69, 64
2, 179424, Note_on_c, 0, 72, 92
2, 179520, Note_off_c, 0, 72, 64
2, 179520, Note_on_c, 0, 70, 92
2, 179616, Note_off_c, 0, 70, 64
2, 179616, Note_on_c, 0, 69, 92
2, 179712, Note_off_c, 0, 69, 64
2, 179712, Note_off_c, 0, 78, 64
2, 179712, Note_on_c, 0, 79, 92
2, 179712, Note_on_c, 0, 67, 92
2, 179904, Note_off_c, 0, 79, 64
2, 179904, Note_on_c, 0, 74, 92
2, 180096, Note_off_c, 0, 74, 64
2, 180096, Note_off_c, 0, 67, 64
2, 180096, Note_on_c, 0, 79, 92
2, 180288, Note_off_c, 0, 79, 64
2, 180288, Note_on_c, 0, 78, 92
2, 180480, Note_off_c, 0, 78, 64
2, 180480, Note_on_c, 0, 79, 92
2, 180672, Note_off_c, 0, 79, 64
2, 180672, Note_on_c, 0, 62, 92
2, 180672, Note_on_c, 0, 74, 92
2, 180864, Note_off_c, 0, 74, 64
2, 180864, Note_off_c, 0, 62, 64
2, 180864, Note_on_c, 0, 67, 92
2, 180864, Note_on_c, 0, 70, 92
2, 181056, Note_off_c, 0, 70, 64
2, 181056, Note_off_c, 0, 67, 64
2, 181056, Note_on_c, 0, 66, 92
2, 181056, Note_on_c, 0, 72, 92
2, 181248, Note_off_c, 0, 72, 64
2, 181248, Note_off_c, 0, 66, 64
2, 181248, Note_on_c, 0, 67, 92
2, 181248, Note_on_c, 0, 74, 92
2, 181440, Note_off_c, 0, 74, 64
2, 181440, Note_off_c, 0, 67, 64
2, 181440, Note_on_c, 0, 66, 92
2, 181440, Note_on_c, 0, 74, 92
2, 181632, Note_off_c, 0, 74, 64
2, 181632, Note_off_c, 0, 66, 64
2, 181632, Note_on_c, 0, 70, 92
2, 181632, Note_on_c, 0, 74, 92
2, 181728, Note_off_c, 0, 70, 64
2, 181728, Note_on_c, 0, 67, 92
2, 181824, Note_off_c, 0, 67, 64
2, 181824, Note_off_c, 0, 74, 64
2, 181824, Note_on_c, 0, 69, 92
2, 181824, Note_on_c, 0, 74, 92
2, 181920, Note_off_c, 0, 69, 64
2, 181920, Note_on_c, 0, 62, 92
2, 182016, Note_off_c, 0, 62, 64
2, 182016, Note_off_c, 0, 74, 64
2, 182016, Note_on_c, 0, 67, 92
2, 182016, Note_on_c, 0, 74, 92
2, 182208, Note_off_c, 0, 74, 64
2, 182208, Note_off_c, 0, 67, 64
2, 182208, Note_on_c, 0, 67, 92
2, 182208, Note_on_c, 0, 75, 92
2, 182400, Note_off_c, 0, 75, 64
2, 182400, Note_off_c, 0, 67, 64
2, 182400, Note_on_c, 0, 67, 92
2, 182400, Note_on_c, 0, 77, 92
2, 182592, Note_off_c, 0, 77, 64
2, 182592, Note_off_c, 0, 67, 64
2, 182592, Note_on_c, 0, 71, 92
2, 182592, Note_on_c, 0, 79, 92
2, 182784, Note_off_c, 0, 79, 64
2, 182784, Note_off_c, 0, 71, 64
2, 182784, Note_on_c, 0, 67, 92
2, 182784, Note_on_c, 0, 75, 92
2, 182976, Note_off_c, 0, 75, 64
2, 182976, Note_on_c, 0, 79, 92
2, 183168, Note_off_c, 0, 79, 64
2, 183168, Note_off_c, 0, 67, 64
2, 183168, Note_on_c, 0, 84, 92
2, 183360, Note_off_c, 0, 84, 64
2, 183360, Note_on_c, 0, 83, 92
2, 183552, Note_off_c, 0, 83, 64
2, 183552, Note_on_c, 0, 84, 92
2, 183744, Note_off_c, 0, 84, 64
2, 183744, Note_on_c, 0, 67, 92
2, 183744, Note_on_c, 0, 79, 92
2, 183936, Note_off_c, 0, 79, 64
2, 183936, Note_off_c, 0, 67, 64
2, 183936, Note_on_c, 0, 72, 92
2, 183936, Note_on_c, 0, 75, 92
2, 184128, Note_off_c, 0, 75, 64
2, 184128, Note_off_c, 0, 72, 64
2, 184128, Note_on_c, 0, 71, 92
2, 184128, Note_on_c, 0, 77, 92
2, 184320, Note_off_c, 0, 77, 64
2, 184320, Note_off_c, 0, 71, 64
2, 184320, Note_on_c, 0, 72, 92
2, 184320, Note_on_c, 0, 79, 92
2, 184512, Note_off_c, 0, 79, 64
2, 184512, Note_off_c, 0, 72, 64
2, 184512, Note_on_c, 0, 71, 92
2, 184512, Note_on_c, 0, 79, 92
2, 184704, Note_off_c, 0, 79, 64
2, 184704, Note_off_c, 0, 71, 64
2, 184704, Note_on_c, 0, 75, 92
2, 184704, Note_on_c, 0, 79, 92
2, 184800, Note_off_c, 0, 75, 64
2, 184800, Note_on_c, 0, 72, 92
2, 184896, Note_off_c, 0, 72, 64
2, 184896, Note_off_c, 0, 79, 64
2, 184896, Note_on_c, 0, 74, 92
2, 184896, Note_on_c, 0, 79, 92
2, 184992, Note_off_c, 0, 74, 64
2, 184992, Note_on_c, 0, 67, 92
2, 185088, Note_off_c, 0, 67, 64
2, 185088, Note_off_c, 0, 79, 64
2, 185088, Note_on_c, 0, 79, 92
2, 185088, Note_on_c, 0, 72, 92
2, 185184, Note_off_c, 0, 72, 64
2, 185184, Note_on_c, 0, 71, 92
2, 185280, Note_off_c, 0, 71, 64
2, 185280, Note_on_c, 0, 72, 92
2, 185376, Note_off_c, 0, 72, 64
2, 185376, Note_on_c, 0, 75, 92
2, 185472, Note_off_c, 0, 75, 64
2, 185472, Note_off_c, 0, 79, 64
2, 185472, Note_on_c, 0, 74, 92
2, 185568, Note_off_c, 0, 74, 64
2, 185568, Note_on_c, 0, 75, 92
2, 185664, Note_off_c, 0, 75, 64
2, 185664, Note_on_c, 0, 74, 92
2, 185760, Note_off_c, 0, 74, 64
2, 185760, Note_on_c, 0, 72, 92
2, 185856, Note_off_c, 0, 72, 64
2, 185856, Note_on_c, 0, 71, 92
2, 185952, Note_off_c, 0, 71, 64
2, 185952, Note_on_c, 0, 69, 92
2, 186048, Note_off_c, 0, 69, 64
2, 186048, Note_on_c, 0, 71, 92
2, 186144, Note_off_c, 0, 71, 64
2, 186144, Note_on_c, 0, 72, 92
2, 186240, Note_off_c, 0, 72, 64
2, 186240, Note_on_c, 0, 74, 92
2, 186336, Note_off_c, 0, 74, 64
2, 186336, Note_on_c, 0, 72, 92
2, 186432, Note_off_c, 0, 72, 64
2, 186432, Note_on_c, 0, 79, 92
2, 186432, Note_on_c, 0, 74, 92
2, 186528, Note_off_c, 0, 74, 64
2, 186528, Note_on_c, 0, 71, 92
2, 186624, Note_off_c, 0, 71, 64
2, 186624, Note_off_c, 0, 79, 64
2, 186624, Note_on_c, 0, 72, 92
2, 186624, Note_on_c, 0, 75, 92
2, 186720, Note_off_c, 0, 75, 64
2, 186720, Note_on_c, 0, 77, 92
2, 186816, Note_off_c, 0, 77, 64
2, 186816, Note_off_c, 0, 72, 64
2, 186816, Note_on_c, 0, 71, 92
2, 186816, Note_on_c, 0, 74, 92
2, 186912, Note_off_c, 0, 74, 64
2, 186912, Note_on_c, 0, 75, 92
2, 187008, Note_off_c, 0, 75, 64
2, 187008, Note_off_c, 0, 71, 64
2, 187008, Note_on_c, 0, 72, 92
2, 187200, Note_off_c, 0, 72, 64
2, 187200, Note_on_c, 0, 84, 92
2, 187200, Note_on_c, 0, 79, 92
2, 187392, Note_off_c, 0, 79, 64
2, 187392, Note_off_c, 0, 84, 64
2, 187392, Note_on_c, 0, 79, 92
2, 187392, Note_on_c, 0, 83, 92
2, 187488, Note_off_c, 0, 83, 64
2, 187488, Note_on_c, 0, 84, 92
2, 187584, Note_off_c, 0, 84, 64
2, 187584, Note_off_c, 0, 79, 64
2, 187584, Note_on_c, 0, 81, 92
2, 187680, Note_off_c, 0, 81, 64
2, 187680, Note_on_c, 0, 83, 92
2, 187776, Note_off_c, 0, 83, 64
2, 187776, Note_on_c, 0, 79, 92
2, 187968, Note_off_c, 0, 79, 64
2, 187968, Note_on_c, 0, 84, 92
2, 188064, Note_off_c, 0, 84, 64
2, 188064, Note_on_c, 0, 79, 92
2, 188160, Note_off_c, 0, 79, 64
2, 188160, Note_on_c, 0, 80, 92
2, 188352, Note_off_c, 0, 80, 64
2, 188352, Note_on_c, 0, 77, 92
2, 188544, Note_off_c, 0, 77, 64
2, 188544, Note_on_c, 0, 70, 92
2, 188736, Note_off_c, 0, 70, 64
2, 188736, Note_on_c, 0, 82, 92
2, 188928, Note_off_c, 0, 82, 64
2, 188928, Note_on_c, 0, 79, 92
2, 189024, Note_off_c, 0, 79, 64
2, 189024, Note_on_c, 0, 80, 92
2, 189120, Note_off_c, 0, 80, 64
2, 189120, Note_on_c, 0, 77, 92
2, 189216, Note_off_c, 0, 77, 64
2, 189216, Note_on_c, 0, 79, 92
2, 189312, Note_off_c, 0, 79, 64
2, 189312, Note_on_c, 0, 75, 92
2, 189504, Note_off_c, 0, 75, 64
2, 189504, Note_on_c, 0, 80, 92
2, 189600, Note_off_c, 0, 80, 64
2, 189600, Note_on_c, 0, 75, 92
2, 189696, Note_off_c, 0, 75, 64
2, 189696, Note_on_c, 0, 77, 92
2, 189888, Note_off_c, 0, 77, 64
2, 189888, Note_on_c, 0, 74, 92
2, 190080, Note_off_c, 0, 74, 64
2, 190080, Note_on_c, 0, 67, 92
2, 190272, Note_off_c, 0, 67, 64
2, 190272, Note_on_c, 0, 79, 92
2, 190464, Note_off_c, 0, 79, 64
2, 190464, Note_on_c, 0, 75, 92
2, 190560, Note_off_c, 0, 75, 64
2, 190560, Note_on_c, 0, 77, 92
2, 190656, Note_off_c, 0, 77, 64
2, 190656, Note_on_c, 0, 74, 92
2, 190752, Note_off_c, 0, 74, 64
2, 190752, Note_on_c, 0, 75, 92
2, 190848, Note_off_c, 0, 75, 64
2, 190848, Note_on_c, 0, 72, 92
2, 190944, Note_off_c, 0, 72, 64
2, 190944, Note_on_c, 0, 75, 92
2, 191040, Note_off_c, 0, 75, 64
2, 191040, Note_on_c, 0, 74, 92
2, 191136, Note_off_c, 0, 74, 64
2, 191136, Note_on_c, 0, 72, 92
2, 191232, Note_off_c, 0, 72, 64
2, 191232, Note_on_c, 0, 71, 92
2, 191328, Note_off_c, 0, 71, 64
2, 191328, Note_on_c, 0, 72, 92
2, 191424, Note_off_c, 0, 72, 64
2, 191424, Note_on_c, 0, 69, 92
2, 191520, Note_off_c, 0, 69, 64
2, 191520, Note_on_c, 0, 71, 92
2, 191616, Note_off_c, 0, 71, 64
2, 191616, Note_on_c, 0, 67, 92
2, 191712, Note_off_c, 0, 67, 64
2, 191712, Note_on_c, 0, 77, 92
2, 191808, Note_off_c, 0, 77, 64
2, 191808, Note_on_c, 0, 75, 92
2, 191904, Note_off_c, 0, 75, 64
2, 191904, Note_on_c, 0, 74, 92
2, 192000, Note_off_c, 0, 74, 64
2, 192000, Note_on_c, 0, 72, 92
2, 192096, Note_off_c, 0, 72, 64
2, 192096, Note_on_c, 0, 67, 92
2, 192192, Note_off_c, 0, 67, 64
2, 192192, Note_on_c, 0, 74, 92
2, 192288, Note_off_c, 0, 74, 64
2, 192288, Note_on_c, 0, 67, 92
2, 192384, Note_off_c, 0, 67, 64
2, 192384, Note_on_c, 0, 75, 92
2, 192480, Note_off_c, 0, 75, 64
2, 192480, Note_on_c, 0, 67, 92
2, 192576, Note_off_c, 0, 67, 64
2, 192576, Note_on_c, 0, 77, 92
2, 192672, Note_off_c, 0, 77, 64
2, 192672, Note_on_c, 0, 67, 92
2, 192768, Note_off_c, 0, 67, 64
2, 192768, Note_on_c, 0, 79, 92
2, 192864, Note_off_c, 0, 79, 64
2, 192864, Note_on_c, 0, 67, 92
2, 192960, Note_off_c, 0, 67, 64
2, 192960, Note_on_c, 0, 81, 92
2, 193056, Note_off_c, 0, 81, 64
2, 193056, Note_on_c, 0, 67, 92
2, 193152, Note_off_c, 0, 67, 64
2, 193152, Note_on_c, 0, 83, 92
2, 193344, Note_off_c, 0, 83, 64
2, 193344, Note_on_c, 0, 79, 92
2, 193536, Note_off_c, 0, 79, 64
2, 193536, Note_on_c, 0, 81, 92
2, 193584, Note_off_c, 0, 81, 64
2, 193584, Note_on_c, 0, 79, 92
2, 193632, Note_off_c, 0, 79, 64
2, 193632, Note_on_c, 0, 81, 92
2, 193680, Note_off_c, 0, 81, 64
2, 193680, Note_on_c, 0, 79, 92
2, 193728, Note_off_c, 0, 79, 64
2, 193728, Note_on_c, 0, 81, 92
2, 193776, Note_off_c, 0, 81, 64
2, 193776, Note_on_c, 0, 79, 92
2, 193824, Note_off_c, 0, 79, 64
2, 193824, Note_on_c, 0, 81, 92
2, 193872, Note_off_c, 0, 81, 64
2, 193872, Note_on_c, 0, 79, 92
2, 193920, Note_off_c, 0, 79, 64
2, 193920, Note_on_c, 0, 81, 92
2, 193968, Note_off_c, 0, 81, 64
2, 193968, Note_on_c, 0, 79, 92
2, 194016, Note_off_c, 0, 79, 64
2, 194016, Note_on_c, 0, 81, 92
2, 194064, Note_off_c, 0, 81, 64
2, 194064, Note_on_c, 0, 79, 92
2, 194112, Note_off_c, 0, 79, 64
2, 194112, Note_on_c, 0, 81, 92
2, 194160, Note_off_c, 0, 81, 64
2, 194160, Note_on_c, 0, 79, 92
2, 194208, Note_off_c, 0, 79, 64
2, 194208, Note_on_c, 0, 81, 92
2, 194256, Note_off_c, 0, 81, 64
2, 194256, Note_on_c, 0, 79, 92
2, 194304, Note_off_c, 0, 79, 64
2, 194304, Note_on_c, 0, 81, 92
2, 194352, Note_off_c, 0, 81, 64
2, 194352, Note_on_c, 0, 79, 92
2, 194400, Note_off_c, 0, 79, 64
2, 194400, Note_on_c, 0, 81, 92
2, 194448, Note_off_c, 0, 81, 64
2, 194448, Note_on_c, 0, 79, 92
2, 194496, Note_off_c, 0, 79, 64
2, 194496, Note_on_c, 0, 81, 92
2, 194544, Note_off_c, 0, 81, 64
2, 194544, Note_on_c, 0, 79, 92
2, 194592, Note_off_c, 0, 79, 64
2, 194592, Note_on_c, 0, 81, 92
2, 194640, Note_off_c, 0, 81, 64
2, 194640, Note_on_c, 0, 79, 92
2, 194688, Note_off_c, 0, 79, 64
2, 194688, Note_on_c, 0, 81, 92
2, 194736, Note_off_c, 0, 81, 64
2, 194736, Note_on_c, 0, 79, 92
2, 194784, Note_off_c, 0, 79, 64
2, 194784, Note_on_c, 0, 81, 92
2, 194832, Note_off_c, 0, 81, 64
2, 194832, Note_on_c, 0, 79, 92
2, 194880, Note_off_c, 0, 79, 64
2, 194880, Note_on_c, 0, 81, 92
2, 194928, Note_off_c, 0, 81, 64
2, 194928, Note_on_c, 0, 79, 92
2, 194976, Note_off_c, 0, 79, 64
2, 194976, Note_on_c, 0, 81, 92
2, 195024, Note_off_c, 0, 81, 64
2, 195024, Note_on_c, 0, 79, 92
2, 195072, Note_off_c, 0, 79, 64
2, 195072, Note_on_c, 0, 81, 92
2, 195120, Note_off_c, 0, 81, 64
2, 195120, Note_on_c, 0, 79, 92
2, 195168, Note_off_c, 0, 79, 64
2, 195168, Note_on_c, 0, 75, 92
2, 195264, Note_off_c, 0, 75, 64
2, 195264, Note_on_c, 0, 77, 92
2, 195360, Note_off_c, 0, 77, 64
2, 195360, Note_on_c, 0, 79, 92
2, 195456, Note_off_c, 0, 79, 64
2, 195456, Note_on_c, 0, 80, 92
2, 195936, Note_off_c, 0, 80, 64
2, 195936, Note_on_c, 0, 74, 92
2, 196032, Note_off_c, 0, 74, 64
2, 196032, Note_on_c, 0, 75, 92
2, 196128, Note_off_c, 0, 75, 64
2, 196128, Note_on_c, 0, 77, 92
2, 196224, Note_off_c, 0, 77, 64
2, 196224, Note_on_c, 0, 79, 92
2, 196704, Note_off_c, 0, 79, 64
2, 196704, Note_on_c, 0, 82, 92
2, 196800, Note_off_c, 0, 82, 64
2, 196800, Note_on_c, 0, 80, 92
2, 196896, Note_off_c, 0, 80, 64
2, 196896, Note_on_c, 0, 79, 92
2, 196992, Note_off_c, 0, 79, 64
2, 196992, Note_on_c, 0, 77, 92
2, 197088, Note_off_c, 0, 77, 64
2, 197088, Note_on_c, 0, 75, 92
2, 197184, Note_off_c, 0, 75, 64
2, 197184, Note_on_c, 0, 74, 92
2, 197280, Note_off_c, 0, 74, 64
2, 197280, Note_on_c, 0, 75, 92
2, 197376, Note_off_c, 0, 75, 64
2, 197376, Note_on_c, 0, 74, 92
2, 197568, Note_off_c, 0, 74, 64
2, 197568, Note_on_c, 0, 77, 92
2, 197760, Note_off_c, 0, 77, 64
2, 197760, Note_on_c, 0, 70, 92
2, 197952, Note_off_c, 0, 70, 64
2, 197952, Note_on_c, 0, 74, 92
2, 197952, Note_on_c, 0, 70, 92
2, 198144, Note_off_c, 0, 70, 64
2, 198144, Note_off_c, 0, 74, 64
2, 198144, Note_on_c, 0, 75, 92
2, 198144, Note_on_c, 0, 67, 92
2, 198240, Note_off_c, 0, 67, 64
2, 198240, Note_on_c, 0, 68, 92
2, 198336, Note_off_c, 0, 68, 64
2, 198336, Note_on_c, 0, 65, 92
2, 198432, Note_off_c, 0, 65, 64
2, 198432, Note_on_c, 0, 67, 92
2, 198528, Note_off_c, 0, 67, 64
2, 198528, Note_on_c, 0, 63, 92
2, 198624, Note_off_c, 0, 75, 64
2, 198624, Note_on_c, 0, 77, 92
2, 198720, Note_off_c, 0, 77, 64
2, 198720, Note_off_c, 0, 63, 64
2, 198720, Note_on_c, 0, 75, 92
2, 198720, Note_on_c, 0, 79, 92
2, 198816, Note_off_c, 0, 79, 64
2, 198816, Note_on_c, 0, 81, 92
2, 198912, Note_off_c, 0, 81, 64
2, 198912, Note_off_c, 0, 75, 64
2, 198912, Note_on_c, 0, 82, 92
2, 198912, Note_on_c, 0, 74, 92
2, 199008, Note_off_c, 0, 74, 64
2, 199008, Note_on_c, 0, 75, 92
2, 199104, Note_off_c, 0, 75, 64
2, 199104, Note_on_c, 0, 72, 92
2, 199200, Note_off_c, 0, 72, 64
2, 199200, Note_on_c, 0, 74, 92
2, 199296, Note_off_c, 0, 74, 64
2, 199296, Note_on_c, 0, 70, 92
2, 199488, Note_off_c, 0, 70, 64
2, 199488, Note_on_c, 0, 75, 92
2, 199584, Note_off_c, 0, 75, 64
2, 199584, Note_on_c, 0, 70, 92
2, 199680, Note_off_c, 0, 70, 64
2, 199680, Note_off_c, 0, 82, 64
2, 199680, Note_on_c, 0, 72, 92
2, 199776, Note_on_c, 0, 75, 92
2, 199872, Note_off_c, 0, 75, 64
2, 199872, Note_off_c, 0, 72, 64
2, 199872, Note_on_c, 0, 68, 92
2, 199872, Note_on_c, 0, 77, 92
2, 199968, Note_off_c, 0, 77, 64
2, 199968, Note_on_c, 0, 79, 92
2, 200064, Note_off_c, 0, 79, 64
2, 200064, Note_off_c, 0, 68, 64
2, 200064, Note_on_c, 0, 62, 92
2, 200064, Note_on_c, 0, 80, 92
2, 200160, Note_off_c, 0, 80, 64
2, 200160, Note_on_c, 0, 79, 92
2, 200256, Note_off_c, 0, 79, 64
2, 200256, Note_off_c, 0, 62, 64
2, 200256, Note_on_c, 0, 74, 92
2, 200256, Note_on_c, 0, 77, 92
2, 200352, Note_off_c, 0, 77, 64
2, 200352, Note_on_c, 0, 80, 92
2, 200448, Note_off_c, 0, 80, 64
2, 200448, Note_off_c, 0, 74, 64
2, 200448, Note_on_c, 0, 79, 92
2, 200448, Note_on_c, 0, 70, 92
2, 200544, Note_off_c, 0, 70, 64
2, 200544, Note_on_c, 0, 72, 92
2, 200640, Note_off_c, 0, 72, 64
2, 200640, Note_on_c, 0, 68, 92
2, 200736, Note_off_c, 0, 68, 64
2, 200736, Note_on_c, 0, 70, 92
2, 200832, Note_off_c, 0, 70, 64
2, 200832, Note_on_c, 0, 67, 92
2, 201024, Note_off_c, 0, 67, 64
2, 201024, Note_on_c, 0, 72, 92
2, 201120, Note_off_c, 0, 72, 64
2, 201120, Note_on_c, 0, 67, 92
2, 201216, Note_off_c, 0, 67, 64
2, 201216, Note_off_c, 0, 79, 64
2, 201216, Note_on_c, 0, 68, 92
2, 201312, Note_on_c, 0, 72, 92
2, 201408, Note_off_c, 0, 72, 64
2, 201408, Note_off_c, 0, 68, 64
2, 201408, Note_on_c, 0, 65, 92
2, 201408, Note_on_c, 0, 74, 92
2, 201504, Note_off_c, 0, 74, 64
2, 201504, Note_on_c, 0, 75, 92
2, 201600, Note_off_c, 0, 75, 64
2, 201600, Note_off_c, 0, 65, 64
2, 201600, Note_on_c, 0, 58, 92
2, 201600, Note_on_c, 0, 77, 92
2, 201696, Note_off_c, 0, 77, 64
2, 201696, Note_on_c, 0, 75, 92
2, 201792, Note_off_c, 0, 75, 64
2, 201792, Note_off_c, 0, 58, 64
2, 201792, Note_on_c, 0, 68, 92
2, 201792, Note_on_c, 0, 74, 92
2, 201888, Note_off_c, 0, 74, 64
2, 201888, Note_on_c, 0, 77, 92
2, 201984, Note_off_c, 0, 77, 64
2, 201984, Note_off_c, 0, 68, 64
2, 201984, Note_on_c, 0, 70, 92
2, 201984, Note_on_c, 0, 67, 92
2, 202080, Note_off_c, 0, 67, 64
2, 202080, Note_on_c, 0, 68, 92
2, 202176, Note_off_c, 0, 68, 64
2, 202176, Note_off_c, 0, 70, 64
2, 202176, Note_on_c, 0, 74, 92
2, 202176, Note_on_c, 0, 65, 92
2, 202272, Note_off_c, 0, 65, 64
2, 202272, Note_on_c, 0, 67, 92
2, 202368, Note_off_c, 0, 67, 64
2, 202368, Note_off_c, 0, 74, 64
2, 202368, Note_on_c, 0, 75, 92
2, 202368, Note_on_c, 0, 63, 92
2, 202464, Note_off_c, 0, 63, 64
2, 202464, Note_on_c, 0, 67, 92
2, 202560, Note_off_c, 0, 67, 64
2, 202560, Note_off_c, 0, 75, 64
2, 202560, Note_on_c, 0, 65, 92
2, 202656, Note_off_c, 0, 65, 64
2, 202656, Note_on_c, 0, 68, 92
2, 202752, Note_off_c, 0, 68, 64
2, 202752, Note_on_c, 0, 67, 92
2, 202848, Note_off_c, 0, 67, 64
2, 202848, Note_on_c, 0, 68, 92
2, 202944, Note_off_c, 0, 68, 64
2, 202944, Note_on_c, 0, 70, 92
2, 202944, Note_on_c, 0, 65, 92
2, 203040, Note_off_c, 0, 65, 64
2, 203040, Note_on_c, 0, 67, 92
2, 203136, Note_off_c, 0, 67, 64
2, 203136, Note_off_c, 0, 70, 64
2, 203136, Note_on_c, 0, 75, 92
2, 203136, Note_on_c, 0, 63, 92
2, 203232, Note_off_c, 0, 63, 64
2, 203232, Note_on_c, 0, 67, 92
2, 203328, Note_off_c, 0, 67, 64
2, 203328, Note_off_c, 0, 75, 64
2, 203328, Note_on_c, 0, 74, 92
2, 203328, Note_on_c, 0, 65, 92
2, 203424, Note_off_c, 0, 65, 64
2, 203424, Note_on_c, 0, 68, 92
2, 203520, Note_off_c, 0, 68, 64
2, 203520, Note_off_c, 0, 74, 64
2, 203520, Note_on_c, 0, 75, 92
2, 203520, Note_on_c, 0, 67, 92
2, 203616, Note_off_c, 0, 67, 64
2, 203616, Note_on_c, 0, 68, 92
2, 203712, Note_off_c, 0, 68, 64
2, 203712, Note_off_c, 0, 75, 64
2, 203712, Note_on_c, 0, 77, 92
2, 203712, Note_on_c, 0, 65, 92
2, 203808, Note_off_c, 0, 65, 64
2, 203808, Note_on_c, 0, 67, 92
2, 203904, Note_off_c, 0, 67, 64
2, 203904, Note_off_c, 0, 77, 64
2, 203904, Note_on_c, 0, 79, 92
2, 203904, Note_on_c, 0, 63, 92
2, 204000, Note_off_c, 0, 63, 64
2, 204000, Note_on_c, 0, 67, 92
2, 204096, Note_off_c, 0, 67, 64
2, 204096, Note_off_c, 0, 79, 64
2, 204096, Note_on_c, 0, 65, 92
2, 204192, Note_off_c, 0, 65, 64
2, 204192, Note_on_c, 0, 68, 92
2, 204288, Note_off_c, 0, 68, 64
2, 204288, Note_on_c, 0, 67, 92
2, 204384, Note_off_c, 0, 67, 64
2, 204384, Note_on_c, 0, 70, 92
2, 204480, Note_off_c, 0, 70, 64
2, 204480, Note_on_c, 0, 69, 92
2, 204576, Note_off_c, 0, 69, 64
2, 204576, Note_on_c, 0, 72, 92
2, 204672, Note_off_c, 0, 72, 64
2, 204672, Note_on_c, 0, 70, 92
2, 204768, Note_off_c, 0, 70, 64
2, 204768, Note_on_c, 0, 74, 92
2, 204864, Note_off_c, 0, 74, 64
2, 204864, Note_on_c, 0, 72, 92
2, 204960, Note_off_c, 0, 72, 64
2, 204960, Note_on_c, 0, 75, 92
2, 205056, Note_off_c, 0, 75, 64
2, 205056, Note_on_c, 0, 74, 92
2, 205152, Note_off_c, 0, 74, 64
2, 205152, Note_on_c, 0, 75, 92
2, 205248, Note_off_c, 0, 75, 64
2, 205248, Note_on_c, 0, 77, 92
2, 205248, Note_on_c, 0, 72, 92
2, 205344, Note_off_c, 0, 72, 64
2, 205344, Note_on_c, 0, 74, 92
2, 205440, Note_off_c, 0, 74, 64
2, 205440, Note_off_c, 0, 77, 64
2, 205440, Note_on_c, 0, 82, 92
2, 205440, Note_on_c, 0, 70, 92
2, 205536, Note_off_c, 0, 70, 64
2, 205536, Note_on_c, 0, 74, 92
2, 205632, Note_off_c, 0, 74, 64
2, 205632, Note_off_c, 0, 82, 64
2, 205632, Note_on_c, 0, 81, 92
2, 205632, Note_on_c, 0, 72, 92
2, 205728, Note_off_c, 0, 72, 64
2, 205728, Note_on_c, 0, 75, 92
2, 205824, Note_off_c, 0, 75, 64
2, 205824, Note_off_c, 0, 81, 64
2, 205824, Note_on_c, 0, 82, 92
2, 205824, Note_on_c, 0, 74, 92
2, 205920, Note_off_c, 0, 74, 64
2, 205920, Note_on_c, 0, 75, 92
2, 206016, Note_off_c, 0, 75, 64
2, 206016, Note_off_c, 0, 82, 64
2, 206016, Note_on_c, 0, 72, 92
2, 206112, Note_off_c, 0, 72, 64
2, 206112, Note_on_c, 0, 74, 92
2, 206208, Note_off_c, 0, 74, 64
2, 206208, Note_on_c, 0, 70, 92
2, 206304, Note_off_c, 0, 70, 64
2, 206304, Note_on_c, 0, 74, 92
2, 206400, Note_off_c, 0, 74, 64
2, 206400, Note_on_c, 0, 72, 92
2, 206496, Note_off_c, 0, 72, 64
2, 206496, Note_on_c, 0, 75, 92
2, 206592, Note_off_c, 0, 75, 64
2, 206592, Note_on_c, 0, 74, 92
2, 206688, Note_off_c, 0, 74, 64
2, 206688, Note_on_c, 0, 75, 92
2, 206784, Note_off_c, 0, 75, 64
2, 206784, Note_on_c, 0, 72, 92
2, 206880, Note_off_c, 0, 72, 64
2, 206880, Note_on_c, 0, 74, 92
2, 206976, Note_off_c, 0, 74, 64
2, 206976, Note_on_c, 0, 70, 92
2, 207072, Note_off_c, 0, 70, 64
2, 207072, Note_on_c, 0, 74, 92
2, 207168, Note_off_c, 0, 74, 64
2, 207168, Note_on_c, 0, 72, 92
2, 207264, Note_off_c, 0, 72, 64
2, 207264, Note_on_c, 0, 75, 92
2, 207360, Note_off_c, 0, 75, 64
2, 207360, Note_on_c, 0, 74, 92
2, 207456, Note_off_c, 0, 74, 64
2, 207456, Note_on_c, 0, 77, 92
2, 207552, Note_off_c, 0, 77, 64
2, 207552, Note_on_c, 0, 76, 92
2, 207648, Note_off_c, 0, 76, 64
2, 207648, Note_on_c, 0, 79, 92
2, 207744, Note_off_c, 0, 79, 64
2, 207744, Note_on_c, 0, 77, 92
2, 207840, Note_off_c, 0, 77, 64
2, 207840, Note_on_c, 0, 80, 92
2, 207936, Note_off_c, 0, 80, 64
2, 207936, Note_on_c, 0, 79, 92
2, 208032, Note_off_c, 0, 79, 64
2, 208032, Note_on_c, 0, 82, 92
2, 208128, Note_off_c, 0, 82, 64
2, 208128, Note_on_c, 0, 84, 92
2, 208128, Note_on_c, 0, 80, 92
2, 208224, Note_off_c, 0, 80, 64
2, 208224, Note_on_c, 0, 82, 92
2, 208320, Note_off_c, 0, 82, 64
2, 208320, Note_on_c, 0, 79, 92
2, 208416, Note_off_c, 0, 79, 64
2, 208416, Note_on_c, 0, 80, 92
2, 208512, Note_off_c, 0, 80, 64
2, 208512, Note_on_c, 0, 77, 92
2, 208608, Note_off_c, 0, 77, 64
2, 208608, Note_on_c, 0, 79, 92
2, 208704, Note_off_c, 0, 79, 64
2, 208704, Note_on_c, 0, 75, 92
2, 208800, Note_off_c, 0, 75, 64
2, 208800, Note_on_c, 0, 77, 92
2, 208896, Note_off_c, 0, 77, 64
2, 208896, Note_on_c, 0, 73, 92
2, 209280, Note_off_c, 0, 84, 64
2, 209280, Note_on_c, 0, 82, 92
2, 209472, Note_off_c, 0, 82, 64
2, 209472, Note_on_c, 0, 80, 92
2, 209664, Note_off_c, 0, 80, 64
2, 209664, Note_off_c, 0, 73, 64
2, 209664, Note_on_c, 0, 82, 92
2, 209664, Note_on_c, 0, 79, 92
2, 209760, Note_off_c, 0, 79, 64
2, 209760, Note_on_c, 0, 80, 92
2, 209856, Note_off_c, 0, 80, 64
2, 209856, Note_on_c, 0, 77, 92
2, 209952, Note_off_c, 0, 77, 64
2, 209952, Note_on_c, 0, 79, 92
2, 210048, Note_off_c, 0, 79, 64
2, 210048, Note_on_c, 0, 75, 92
2, 210144, Note_off_c, 0, 75, 64
2, 210144, Note_on_c, 0, 77, 92
2, 210240, Note_off_c, 0, 77, 64
2, 210240, Note_on_c, 0, 73, 92
2, 210336, Note_off_c, 0, 73, 64
2, 210336, Note_on_c, 0, 75, 92
2, 210432, Note_off_c, 0, 75, 64
2, 210432, Note_on_c, 0, 72, 92
2, 210816, Note_off_c, 0, 82, 64
2, 210816, Note_on_c, 0, 80, 92
2, 211008, Note_off_c, 0, 80, 64
2, 211008, Note_on_c, 0, 79, 92
2, 211200, Note_off_c, 0, 79, 64
2, 211200, Note_off_c, 0, 72, 64
2, 211200, Note_on_c, 0, 80, 92
2, 211200, Note_on_c, 0, 77, 92
2, 211296, Note_off_c, 0, 77, 64
2, 211296, Note_on_c, 0, 79, 92
2, 211392, Note_off_c, 0, 79, 64
2, 211392, Note_on_c, 0, 75, 92
2, 211488, Note_off_c, 0, 75, 64
2, 211488, Note_on_c, 0, 77, 92
2, 211584, Note_off_c, 0, 77, 64
2, 211584, Note_on_c, 0, 73, 92
2, 211680, Note_off_c, 0, 73, 64
2, 211680, Note_on_c, 0, 75, 92
2, 211776, Note_off_c, 0, 75, 64
2, 211776, Note_on_c, 0, 72, 92
2, 211872, Note_off_c, 0, 72, 64
2, 211872, Note_on_c, 0, 73, 92
2, 211968, Note_off_c, 0, 73, 64
2, 211968, Note_on_c, 0, 71, 92
2, 212352, Note_off_c, 0, 71, 64
2, 212352, Note_off_c, 0, 80, 64
2, 212352, Note_on_c, 0, 72, 92
2, 212352, Note_on_c, 0, 79, 92
2, 212544, Note_off_c, 0, 79, 64
2, 212544, Note_off_c, 0, 72, 64
2, 212544, Note_on_c, 0, 74, 92
2, 212544, Note_on_c, 0, 77, 92
2, 212736, Note_off_c, 0, 77, 64
2, 212736, Note_off_c, 0, 74, 64
2, 212736, Note_on_c, 0, 67, 92
2, 212736, Note_on_c, 0, 75, 92
2, 212832, Note_off_c, 0, 75, 64
2, 212832, Note_on_c, 0, 77, 92
2, 212928, Note_off_c, 0, 77, 64
2, 212928, Note_on_c, 0, 74, 92
2, 213024, Note_off_c, 0, 74, 64
2, 213024, Note_on_c, 0, 75, 92
2, 213120, Note_off_c, 0, 75, 64
2, 213120, Note_off_c, 0, 67, 64
2, 213120, Note_on_c, 0, 72, 92
2, 213216, Note_off_c, 0, 72, 64
2, 213216, Note_on_c, 0, 75, 92
2, 213312, Note_off_c, 0, 75, 64
2, 213312, Note_on_c, 0, 67, 92
2, 213312, Note_on_c, 0, 74, 92
2, 213408, Note_off_c, 0, 74, 64
2, 213408, Note_on_c, 0, 77, 92
2, 213504, Note_off_c, 0, 77, 64
2, 213504, Note_off_c, 0, 67, 64
2, 213504, Note_on_c, 0, 67, 92
2, 213504, Note_on_c, 0, 75, 92
2, 213600, Note_off_c, 0, 75, 64
2, 213600, Note_on_c, 0, 77, 92
2, 213696, Note_off_c, 0, 77, 64
2, 213696, Note_off_c, 0, 67, 64
2, 213696, Note_on_c, 0, 67, 92
2, 213696, Note_on_c, 0, 74, 92
2, 213792, Note_off_c, 0, 74, 64
2, 213792, Note_on_c, 0, 75, 92
2, 213888, Note_off_c, 0, 75, 64
2, 213888, Note_off_c, 0, 67, 64
2, 213888, Note_on_c, 0, 72, 92
2, 213984, Note_on_c, 0, 75, 92
2, 214080, Note_off_c, 0, 75, 64
2, 214080, Note_off_c, 0, 72, 64
2, 214080, Note_on_c, 0, 71, 92
2, 214080, Note_on_c, 0, 74, 92
2, 214176, Note_off_c, 0, 74, 64
2, 214176, Note_on_c, 0, 77, 92
2, 214272, Note_off_c, 0, 77, 64
2, 214272, Note_off_c, 0, 71, 64
2, 214272, Note_on_c, 0, 72, 92
2, 214272, Note_on_c, 0, 75, 92
2, 214368, Note_off_c, 0, 75, 64
2, 214368, Note_on_c, 0, 77, 92
2, 214464, Note_off_c, 0, 77, 64
2, 214464, Note_off_c, 0, 72, 64
2, 214464, Note_on_c, 0, 71, 92
2, 214464, Note_on_c, 0, 74, 92
2, 214560, Note_off_c, 0, 74, 64
2, 214560, Note_on_c, 0, 75, 92
2, 214656, Note_off_c, 0, 75, 64
2, 214656, Note_off_c, 0, 71, 64
2, 214656, Note_on_c, 0, 67, 92
2, 214656, Note_on_c, 0, 72, 92
2, 214752, Note_off_c, 0, 72, 64
2, 214752, Note_on_c, 0, 75, 92
2, 214848, Note_off_c, 0, 75, 64
2, 214848, Note_off_c, 0, 67, 64
2, 214848, Note_on_c, 0, 67, 92
2, 214848, Note_on_c, 0, 74, 92
2, 214944, Note_off_c, 0, 74, 64
2, 214944, Note_on_c, 0, 77, 92
2, 215040, Note_off_c, 0, 77, 64
2, 215040, Note_off_c, 0, 67, 64
2, 215040, Note_on_c, 0, 67, 92
2, 215040, Note_on_c, 0, 76, 92
2, 215136, Note_off_c, 0, 76, 64
2, 215136, Note_on_c, 0, 79, 92
2, 215232, Note_off_c, 0, 79, 64
2, 215232, Note_on_c, 0, 78, 92
2, 215328, Note_off_c, 0, 78, 64
2, 215328, Note_on_c, 0, 81, 92
2, 215424, Note_off_c, 0, 81, 64
2, 215424, Note_off_c, 0, 67, 64
2, 215424, Note_on_c, 0, 79, 92
2, 215520, Note_off_c, 0, 79, 64
2, 215520, Note_on_c, 0, 82, 92
2, 215616, Note_off_c, 0, 82, 64
2, 215616, Note_on_c, 0, 81, 92
2, 215712, Note_off_c, 0, 81, 64
2, 215712, Note_on_c, 0, 84, 92
2, 215808, Note_off_c, 0, 84, 64
2, 215808, Note_on_c, 0, 82, 92
2, 215904, Note_off_c, 0, 82, 64
2, 215904, Note_on_c, 0, 84, 92
2, 216000, Note_off_c, 0, 84, 64
2, 216000, Note_on_c, 0, 81, 92
2, 216096, Note_off_c, 0, 81, 64
2, 216096, Note_on_c, 0, 82, 92
2, 216192, Note_off_c, 0, 82, 64
2, 216192, Note_on_c, 0, 79, 92
2, 216288, Note_off_c, 0, 79, 64
2, 216288, Note_on_c, 0, 82, 92
2, 216384, Note_off_c, 0, 82, 64
2, 216384, Note_on_c, 0, 81, 92
2, 216480, Note_off_c, 0, 81, 64
2, 216480, Note_on_c, 0, 84, 92
2, 216576, Note_off_c, 0, 84, 64
2, 216576, Note_on_c, 0, 82, 92
2, 216672, Note_off_c, 0, 82, 64
2, 216672, Note_on_c, 0, 84, 92
2, 216768, Note_off_c, 0, 84, 64
2, 216768, Note_on_c, 0, 81, 92
2, 216864, Note_off_c, 0, 81, 64
2, 216864, Note_on_c, 0, 82, 92
2, 216960, Note_off_c, 0, 82, 64
2, 216960, Note_on_c, 0, 79, 92
2, 217056, Note_off_c, 0, 79, 64
2, 217056, Note_on_c, 0, 82, 92
2, 217152, Note_off_c, 0, 82, 64
2, 217152, Note_on_c, 0, 81, 92
2, 217248, Note_off_c, 0, 81, 64
2, 217248, Note_on_c, 0, 84, 92
2, 217344, Note_off_c, 0, 84, 64
2, 217344, Note_on_c, 0, 82, 92
2, 217440, Note_off_c, 0, 82, 64
2, 217440, Note_on_c, 0, 84, 92
2, 217536, Note_off_c, 0, 84, 64
2, 217536, Note_on_c, 0, 81, 92
2, 217632, Note_off_c, 0, 81, 64
2, 217632, Note_on_c, 0, 82, 92
2, 217728, Note_off_c, 0, 82, 64
2, 217728, Note_on_c, 0, 79, 92
2, 217824, Note_off_c, 0, 79, 64
2, 217824, Note_on_c, 0, 82, 92
2, 217920, Note_off_c, 0, 82, 64
2, 217920, Note_on_c, 0, 81, 92
2, 218016, Note_off_c, 0, 81, 64
2, 218016, Note_on_c, 0, 84, 92
2, 218112, Note_off_c, 0, 84, 64
2, 218112, Note_on_c, 0, 82, 92
2, 218208, Note_off_c, 0, 82, 64
2, 218208, Note_on_c, 0, 84, 92
2, 218304, Note_off_c, 0, 84, 64
2, 218304, Note_on_c, 0, 82, 92
2, 218400, Note_off_c, 0, 82, 64
2, 218400, Note_on_c, 0, 81, 92
2, 218496, Note_off_c, 0, 81, 64
2, 218496, Note_on_c, 0, 79, 92
2, 218592, Note_off_c, 0, 79, 64
2, 218592, Note_on_c, 0, 82, 92
2, 218688, Note_off_c, 0, 82, 64
2, 218688, Note_on_c, 0, 81, 92
2, 218784, Note_off_c, 0, 81, 64
2, 218784, Note_on_c, 0, 79, 92
2, 218880, Note_off_c, 0, 79, 64
2, 218880, Note_on_c, 0, 78, 92
2, 219072, Note_off_c, 0, 78, 64
2, 219072, Note_on_c, 0, 74, 92
2, 219264, Note_off_c, 0, 74, 64
2, 219456, Note_on_c, 0, 74, 92
2, 219648, Note_off_c, 0, 74, 64
2, 219648, Note_on_c, 0, 70, 92
2, 219744, Note_off_c, 0, 70, 64
2, 219744, Note_on_c, 0, 72, 92
2, 219840, Note_off_c, 0, 72, 64
2, 219840, Note_on_c, 0, 69, 92
2, 219936, Note_off_c, 0, 69, 64
2, 219936, Note_on_c, 0, 70, 92
2, 220032, Note_off_c, 0, 70, 64
2, 220032, Note_on_c, 0, 67, 92
2, 220224, Note_off_c, 0, 67, 64
2, 220224, Note_on_c, 0, 79, 92
2, 220416, Note_off_c, 0, 79, 64
2, 220416, Note_on_c, 0, 78, 92
2, 220512, Note_off_c, 0, 78, 64
2, 220512, Note_on_c, 0, 79, 92
2, 220608, Note_off_c, 0, 79, 64
2, 220608, Note_on_c, 0, 76, 92
2, 220704, Note_off_c, 0, 76, 64
2, 220704, Note_on_c, 0, 78, 92
2, 220800, Note_off_c, 0, 78, 64
2, 220800, Note_on_c, 0, 74, 92
2, 220992, Note_off_c, 0, 74, 64
2, 220992, Note_on_c, 0, 79, 92
2, 221088, Note_off_c, 0, 79, 64
2, 221088, Note_on_c, 0, 74, 92
2, 221184, Note_off_c, 0, 74, 64
2, 221184, Note_on_c, 0, 75, 92
2, 221376, Note_off_c, 0, 75, 64
2, 221376, Note_on_c, 0, 72, 92
2, 221568, Note_off_c, 0, 72, 64
2, 221568, Note_on_c, 0, 65, 92
2, 221760, Note_off_c, 0, 65, 64
2, 221760, Note_on_c, 0, 77, 92
2, 221952, Note_off_c, 0, 77, 64
2, 221952, Note_on_c, 0, 74, 92
2, 222048, Note_off_c, 0, 74, 64
2, 222048, Note_on_c, 0, 75, 92
2, 222144, Note_off_c, 0, 75, 64
2, 222144, Note_on_c, 0, 72, 92
2, 222240, Note_off_c, 0, 72, 64
2, 222240, Note_on_c, 0, 74, 92
2, 222336, Note_off_c, 0, 74, 64
2, 222336, Note_on_c, 0, 70, 92
2, 222528, Note_off_c, 0, 70, 64
2, 222528, Note_on_c, 0, 75, 92
2, 222624, Note_off_c, 0, 75, 64
2, 222624, Note_on_c, 0, 70, 92
2, 222720, Note_off_c, 0, 70, 64
2, 222720, Note_on_c, 0, 72, 92
2, 222912, Note_off_c, 0, 72, 64
2, 222912, Note_on_c, 0, 69, 92
2, 223104, Note_off_c, 0, 69, 64
2, 223104, Note_on_c, 0, 62, 92
2, 223296, Note_off_c, 0, 62, 64
2, 223296, Note_on_c, 0, 74, 92
2, 223488, Note_off_c, 0, 74, 64
2, 223488, Note_on_c, 0, 70, 92
2, 223584, Note_off_c, 0, 70, 64
2, 223584, Note_on_c, 0, 72, 92
2, 223680, Note_off_c, 0, 72, 64
2, 223680, Note_on_c, 0, 69, 92
2, 223776, Note_off_c, 0, 69, 64
2, 223776, Note_on_c, 0, 70, 92
2, 223872, Note_off_c, 0, 70, 64
2, 223872, Note_on_c, 0, 67, 92
2, 223968, Note_off_c, 0, 67, 64
2, 223968, Note_on_c, 0, 70, 92
2, 224064, Note_off_c, 0, 70, 64
2, 224064, Note_on_c, 0, 69, 92
2, 224160, Note_off_c, 0, 69, 64
2, 224160, Note_on_c, 0, 67, 92
2, 224256, Note_off_c, 0, 67, 64
2, 224256, Note_on_c, 0, 66, 92
2, 224352, Note_off_c, 0, 66, 64
2, 224352, Note_on_c, 0, 67, 92
2, 224448, Note_off_c, 0, 67, 64
2, 224448, Note_on_c, 0, 64, 92
2, 224544, Note_off_c, 0, 64, 64
2, 224544, Note_on_c, 0, 66, 92
2, 224640, Note_off_c, 0, 66, 64
2, 224640, Note_on_c, 0, 62, 92
2, 224736, Note_off_c, 0, 62, 64
2, 224736, Note_on_c, 0, 66, 92
2, 224832, Note_off_c, 0, 66, 64
2, 224832, Note_on_c, 0, 69, 92
2, 224928, Note_off_c, 0, 69, 64
2, 224928, Note_on_c, 0, 72, 92
2, 225024, Note_off_c, 0, 72, 64
2, 225024, Note_on_c, 0, 70, 92
2, 225120, Note_off_c, 0, 70, 64
2, 225120, Note_on_c, 0, 72, 92
2, 225216, Note_off_c, 0, 72, 64
2, 225216, Note_on_c, 0, 69, 92
2, 225312, Note_off_c, 0, 69, 64
2, 225312, Note_on_c, 0, 70, 92
2, 225408, Note_off_c, 0, 70, 64
2, 225408, Note_on_c, 0, 67, 92
2, 225504, Note_off_c, 0, 67, 64
2, 225504, Note_on_c, 0, 70, 92
2, 225600, Note_off_c, 0, 70, 64
2, 225600, Note_on_c, 0, 74, 92
2, 225696, Note_off_c, 0, 74, 64
2, 225696, Note_on_c, 0, 77, 92
2, 225792, Note_off_c, 0, 77, 64
2, 225792, Note_on_c, 0, 75, 92
2, 225888, Note_off_c, 0, 75, 64
2, 225888, Note_on_c, 0, 77, 92
2, 225984, Note_off_c, 0, 77, 64
2, 225984, Note_on_c, 0, 74, 92
2, 226080, Note_off_c, 0, 74, 64
2, 226080, Note_on_c, 0, 75, 92
2, 226176, Note_off_c, 0, 75, 64
2, 226176, Note_on_c, 0, 72, 92
2, 226272, Note_off_c, 0, 72, 64
2, 226272, Note_on_c, 0, 74, 92
2, 226368, Note_off_c, 0, 74, 64
2, 226368, Note_on_c, 0, 70, 92
2, 226464, Note_off_c, 0, 70, 64
2, 226464, Note_on_c, 0, 72, 92
2, 226560, Note_off_c, 0, 72, 64
2, 226560, Note_on_c, 0, 69, 92
2, 226656, Note_off_c, 0, 69, 64
2, 226656, Note_on_c, 0, 70, 92
2, 226752, Note_off_c, 0, 70, 64
2, 226752, Note_on_c, 0, 67, 92
2, 226848, Note_off_c, 0, 67, 64
2, 226848, Note_on_c, 0, 69, 92
2, 226944, Note_off_c, 0, 69, 64
2, 226944, Note_on_c, 0, 65, 92
2, 227040, Note_off_c, 0, 65, 64
2, 227040, Note_on_c, 0, 69, 92
2, 227136, Note_off_c, 0, 69, 64
2, 227136, Note_on_c, 0, 72, 92
2, 227232, Note_off_c, 0, 72, 64
2, 227232, Note_on_c, 0, 75, 92
2, 227328, Note_off_c, 0, 75, 64
2, 227328, Note_on_c, 0, 74, 92
2, 227424, Note_off_c, 0, 74, 64
2, 227424, Note_on_c, 0, 75, 92
2, 227520, Note_off_c, 0, 75, 64
2, 227520, Note_on_c, 0, 72, 92
2, 227616, Note_off_c, 0, 72, 64
2, 227616, Note_on_c, 0, 74, 92
2, 227712, Note_off_c, 0, 74, 64
2, 227712, Note_on_c, 0, 70, 92
2, 227808, Note_off_c, 0, 70, 64
2, 227808, Note_on_c, 0, 72, 92
2, 227904, Note_off_c, 0, 72, 64
2, 227904, Note_on_c, 0, 69, 92
2, 228000, Note_off_c, 0, 69, 64
2, 228000, Note_on_c, 0, 70, 92
2, 228096, Note_off_c, 0, 70, 64
2, 228096, Note_on_c, 0, 67, 92
2, 228192, Note_off_c, 0, 67, 64
2, 228192, Note_on_c, 0, 69, 92
2, 228288, Note_off_c, 0, 69, 64
2, 228288, Note_on_c, 0, 65, 92
2, 228384, Note_off_c, 0, 65, 64
2, 228384, Note_on_c, 0, 67, 92
2, 228480, Note_off_c, 0, 67, 64
2, 228480, Note_on_c, 0, 63, 92
2, 228576, Note_off_c, 0, 63, 64
2, 228576, Note_on_c, 0, 67, 92
2, 228672, Note_off_c, 0, 67, 64
2, 228672, Note_on_c, 0, 70, 92
2, 228768, Note_off_c, 0, 70, 64
2, 228768, Note_on_c, 0, 74, 92
2, 228864, Note_off_c, 0, 74, 64
2, 228864, Note_on_c, 0, 72, 92
2, 228960, Note_off_c, 0, 72, 64
2, 228960, Note_on_c, 0, 74, 92
2, 229056, Note_off_c, 0, 74, 64
2, 229056, Note_on_c, 0, 70, 92
2, 229152, Note_off_c, 0, 70, 64
2, 229152, Note_on_c, 0, 72, 92
2, 229248, Note_off_c, 0, 72, 64
2, 229248, Note_on_c, 0, 69, 92
2, 229344, Note_off_c, 0, 69, 64
2, 229344, Note_on_c, 0, 70, 92
2, 229440, Note_off_c, 0, 70, 64
2, 229440, Note_on_c, 0, 67, 92
2, 229536, Note_off_c, 0, 67, 64
2, 229536, Note_on_c, 0, 69, 92
2, 229632, Note_off_c, 0, 69, 64
2, 229632, Note_on_c, 0, 66, 92
2, 229728, Note_off_c, 0, 66, 64
2, 229728, Note_on_c, 0, 67, 92
2, 229824, Note_off_c, 0, 67, 64
2, 229824, Note_on_c, 0, 64, 92
2, 229920, Note_off_c, 0, 64, 64
2, 229920, Note_on_c, 0, 66, 92
2, 230016, Note_off_c, 0, 66, 64
2, 230016, Note_on_c, 0, 62, 92
2, 230112, Note_off_c, 0, 62, 64
2, 230112, Note_on_c, 0, 66, 92
2, 230208, Note_off_c, 0, 66, 64
2, 230208, Note_on_c, 0, 69, 92
2, 230304, Note_off_c, 0, 69, 64
2, 230304, Note_on_c, 0, 74, 92
2, 230400, Note_off_c, 0, 74, 64
2, 230400, Note_on_c, 0, 67, 92
2, 230496, Note_off_c, 0, 67, 64
2, 230496, Note_on_c, 0, 70, 92
2, 230592, Note_off_c, 0, 70, 64
2, 230592, Note_on_c, 0, 74, 92
2, 230688, Note_off_c, 0, 74, 64
2, 230688, Note_on_c, 0, 79, 92
2, 230784, Note_off_c, 0, 79, 64
2, 230784, Note_on_c, 0, 70, 92
2, 230880, Note_off_c, 0, 70, 64
2, 230880, Note_on_c, 0, 74, 92
2, 230976, Note_off_c, 0, 74, 64
2, 230976, Note_on_c, 0, 67, 92
2, 231072, Note_off_c, 0, 67, 64
2, 231072, Note_on_c, 0, 70, 92
2, 231168, Note_off_c, 0, 70, 64
2, 231168, Note_on_c, 0, 62, 92
2, 231264, Note_off_c, 0, 62, 64
2, 231264, Note_on_c, 0, 66, 92
2, 231360, Note_off_c, 0, 66, 64
2, 231360, Note_on_c, 0, 69, 92
2, 231456, Note_off_c, 0, 69, 64
2, 231456, Note_on_c, 0, 72, 92
2, 231552, Note_off_c, 0, 72, 64
2, 231552, Note_on_c, 0, 70, 92
2, 231648, Note_off_c, 0, 70, 64
2, 231648, Note_on_c, 0, 74, 92
2, 231744, Note_off_c, 0, 74, 64
2, 231744, Note_on_c, 0, 67, 92
2, 231840, Note_off_c, 0, 67, 64
2, 231840, Note_on_c, 0, 70, 92
2, 231936, Note_off_c, 0, 70, 64
2, 231936, Note_on_c, 0, 60, 92
2, 232032, Note_off_c, 0, 60, 64
2, 232032, Note_on_c, 0, 63, 92
2, 232128, Note_off_c, 0, 63, 64
2, 232128, Note_on_c, 0, 67, 92
2, 232224, Note_off_c, 0, 67, 64
2, 232224, Note_on_c, 0, 70, 92
2, 232320, Note_off_c, 0, 70, 64
2, 232320, Note_on_c, 0, 69, 92
2, 232416, Note_off_c, 0, 69, 64
2, 232416, Note_on_c, 0, 72, 92
2, 232512, Note_off_c, 0, 72, 64
2, 232512, Note_on_c, 0, 65, 92
2, 232608, Note_off_c, 0, 65, 64
2, 232608, Note_on_c, 0, 69, 92
2, 232704, Note_off_c, 0, 69, 64
2, 232704, Note_on_c, 0, 58, 92
2, 232800, Note_off_c, 0, 58, 64
2, 232800, Note_on_c, 0, 62, 92
2, 232896, Note_off_c, 0, 62, 64
2, 232896, Note_on_c, 0, 65, 92
2, 232992, Note_off_c, 0, 65, 64
2, 232992, Note_on_c, 0, 69, 92
2, 233088, Note_off_c, 0, 69, 64
2, 233088, Note_on_c, 0, 67, 92
2, 233184, Note_off_c, 0, 67, 64
2, 233184, Note_on_c, 0, 70, 92
2, 233280, Note_off_c, 0, 70, 64
2, 233280, Note_on_c, 0, 63, 92
2, 233376, Note_off_c, 0, 63, 64
2, 233376, Note_on_c, 0, 67, 92
2, 233472, Note_off_c, 0, 67, 64
2, 233472, Note_on_c, 0, 57, 92
2, 233568, Note_off_c, 0, 57, 64
2, 233568, Note_on_c, 0, 60, 92
2, 233664, Note_off_c, 0, 60, 64
2, 233664, Note_on_c, 0, 64, 92
2, 233760, Note_off_c, 0, 64, 64
2, 233760, Note_on_c, 0, 67, 92
2, 233856, Note_off_c, 0, 67, 64
2, 233856, Note_on_c, 0, 66, 92
2, 233952, Note_off_c, 0, 66, 64
2, 233952, Note_on_c, 0, 69, 92
2, 234048, Note_off_c, 0, 69, 64
2, 234048, Note_on_c, 0, 62, 92
2, 234144, Note_on_c, 0, 66, 92
2, 234240, Note_off_c, 0, 66, 64
2, 234240, Note_off_c, 0, 62, 64
2, 234240, Note_on_c, 0, 58, 92
2, 234240, Note_on_c, 0, 67, 92
2, 234336, Note_off_c, 0, 58, 64
2, 234336, Note_on_c, 0, 60, 92
2, 234432, Note_off_c, 0, 60, 64
2, 234432, Note_off_c, 0, 67, 64
2, 234432, Note_on_c, 0, 57, 92
2, 234432, Note_on_c, 0, 69, 92
2, 234528, Note_off_c, 0, 57, 64
2, 234528, Note_on_c, 0, 58, 92
2, 234624, Note_off_c, 0, 58, 64
2, 234624, Note_off_c, 0, 69, 64
2, 234624, Note_on_c, 0, 55, 92
2, 234624, Note_on_c, 0, 70, 92
2, 234720, Note_off_c, 0, 70, 64
2, 234720, Note_on_c, 0, 72, 92
2, 234816, Note_off_c, 0, 72, 64
2, 234816, Note_off_c, 0, 55, 64
2, 234816, Note_on_c, 0, 67, 92
2, 234816, Note_on_c, 0, 70, 92
2, 234912, Note_off_c, 0, 70, 64
2, 234912, Note_on_c, 0, 72, 92
2, 235008, Note_off_c, 0, 72, 64
2, 235008, Note_off_c, 0, 67, 64
2, 235008, Note_on_c, 0, 74, 92
2, 235008, Note_on_c, 0, 66, 92
2, 235104, Note_off_c, 0, 66, 64
2, 235104, Note_on_c, 0, 67, 92
2, 235200, Note_off_c, 0, 67, 64
2, 235200, Note_on_c, 0, 64, 92
2, 235296, Note_off_c, 0, 64, 64
2, 235296, Note_on_c, 0, 66, 92
2, 235392, Note_off_c, 0, 66, 64
2, 235392, Note_off_c, 0, 74, 64
2, 235392, Note_on_c, 0, 62, 92
2, 235584, Note_off_c, 0, 62, 64
2, 235584, Note_on_c, 0, 70, 92
2, 235584, Note_on_c, 0, 67, 92
2, 235680, Note_off_c, 0, 67, 64
2, 235680, Note_on_c, 0, 62, 92
2, 235776, Note_off_c, 0, 62, 64
2, 235776, Note_off_c, 0, 70, 64
2, 235776, Note_on_c, 0, 63, 92
2, 235776, Note_on_c, 0, 72, 92
2, 235872, Note_off_c, 0, 72, 64
2, 235872, Note_on_c, 0, 74, 92
2, 235968, Note_off_c, 0, 74, 64
2, 235968, Note_off_c, 0, 63, 64
2, 235968, Note_on_c, 0, 60, 92
2, 235968, Note_on_c, 0, 75, 92
2, 236160, Note_off_c, 0, 60, 64
2, 236256, Note_off_c, 0, 75, 64
2, 236256, Note_on_c, 0, 75, 92
2, 236352, Note_off_c, 0, 75, 64
2, 236352, Note_on_c, 0, 65, 92
2, 236352, Note_on_c, 0, 74, 92
2, 236448, Note_off_c, 0, 74, 64
2, 236448, Note_on_c, 0, 72, 92
2, 236544, Note_off_c, 0, 72, 64
2, 236544, Note_off_c, 0, 65, 64
2, 236544, Note_on_c, 0, 62, 92
2, 236544, Note_on_c, 0, 70, 92
2, 236640, Note_off_c, 0, 70, 64
2, 236640, Note_off_c, 0, 62, 64
2, 236640, Note_on_c, 0, 63, 92
2, 236640, Note_on_c, 0, 72, 92
2, 236736, Note_off_c, 0, 72, 64
2, 236736, Note_off_c, 0, 63, 64
2, 236736, Note_on_c, 0, 74, 92
2, 236736, Note_on_c, 0, 60, 92
2, 236832, Note_off_c, 0, 60, 64
2, 236832, Note_on_c, 0, 62, 92
2, 236928, Note_off_c, 0, 62, 64
2, 236928, Note_on_c, 0, 58, 92
2, 237024, Note_off_c, 0, 74, 64
2, 237024, Note_on_c, 0, 74, 92
2, 237120, Note_off_c, 0, 74, 64
2, 237120, Note_off_c, 0, 58, 64
2, 237120, Note_on_c, 0, 63, 92
2, 237120, Note_on_c, 0, 72, 92
2, 237216, Note_off_c, 0, 72, 64
2, 237216, Note_off_c, 0, 63, 64
2, 237216, Note_on_c, 0, 58, 92
2, 237216, Note_on_c, 0, 70, 92
2, 237312, Note_off_c, 0, 70, 64
2, 237312, Note_off_c, 0, 58, 64
2, 237312, Note_on_c, 0, 60, 92
2, 237312, Note_on_c, 0, 69, 92
2, 237408, Note_off_c, 0, 69, 64
2, 237408, Note_on_c, 0, 70, 92
2, 237504, Note_off_c, 0, 70, 64
2, 237504, Note_off_c, 0, 60, 64
2, 237504, Note_on_c, 0, 57, 92
2, 237504, Note_on_c, 0, 72, 92
2, 237696, Note_off_c, 0, 57, 64
2, 237792, Note_off_c, 0, 72, 64
2, 237792, Note_on_c, 0, 72, 92
2, 237888, Note_off_c, 0, 72, 64
2, 237888, Note_on_c, 0, 62, 92
2, 237888, Note_on_c, 0, 70, 92
2, 237984, Note_off_c, 0, 70, 64
2, 237984, Note_off_c, 0, 62, 64
2, 237984, Note_on_c, 0, 60, 92
2, 237984, Note_on_c, 0, 69, 92
2, 238080, Note_off_c, 0, 69, 64
2, 238080, Note_off_c, 0, 60, 64
2, 238080, Note_on_c, 0, 67, 92
2, 238080, Note_on_c, 0, 58, 92
2, 238176, Note_off_c, 0, 58, 64
2, 238176, Note_on_c, 0, 60, 92
2, 238272, Note_off_c, 0, 60, 64
2, 238272, Note_off_c, 0, 67, 64
2, 238272, Note_on_c, 0, 69, 92
2, 238272, Note_on_c, 0, 58, 92
2, 238368, Note_off_c, 0, 58, 64
2, 238464, Note_off_c, 0, 69, 64
2, 238464, Note_on_c, 0, 70, 92
2, 238656, Note_off_c, 0, 70, 64
2, 238656, Note_on_c, 0, 72, 92
2, 238848, Note_off_c, 0, 72, 64
2, 238848, Note_on_c, 0, 74, 92
2, 239616, Note_on_c, 0, 67, 92
2, 239712, Note_off_c, 0, 74, 64
2, 239712, Note_on_c, 0, 75, 92
2, 239808, Note_off_c, 0, 75, 64
2, 239808, Note_on_c, 0, 72, 92
2, 239904, Note_off_c, 0, 72, 64
2, 239904, Note_on_c, 0, 74, 92
2, 240000, Note_off_c, 0, 74, 64
2, 240000, Note_on_c, 0, 70, 92
2, 240096, Note_off_c, 0, 70, 64
2, 240096, Note_on_c, 0, 72, 92
2, 240192, Note_off_c, 0, 72, 64
2, 240192, Note_on_c, 0, 74, 92
2, 240288, Note_off_c, 0, 74, 64
2, 240288, Note_on_c, 0, 75, 92
2, 240384, Note_off_c, 0, 75, 64
2, 240384, Note_on_c, 0, 72, 92
2, 240480, Note_off_c, 0, 67, 64
2, 240480, Note_on_c, 0, 69, 92
2, 240576, Note_off_c, 0, 69, 64
2, 240576, Note_on_c, 0, 65, 92
2, 240672, Note_off_c, 0, 65, 64
2, 240672, Note_on_c, 0, 67, 92
2, 240768, Note_off_c, 0, 67, 64
2, 240768, Note_on_c, 0, 63, 92
2, 240864, Note_off_c, 0, 63, 64
2, 240864, Note_on_c, 0, 65, 92
2, 240960, Note_off_c, 0, 65, 64
2, 240960, Note_on_c, 0, 67, 92
2, 241056, Note_off_c, 0, 67, 64
2, 241056, Note_on_c, 0, 69, 92
2, 241152, Note_off_c, 0, 69, 64
2, 241152, Note_on_c, 0, 65, 92
2, 241248, Note_off_c, 0, 72, 64
2, 241248, Note_on_c, 0, 74, 92
2, 241344, Note_off_c, 0, 74, 64
2, 241344, Note_on_c, 0, 70, 92
2, 241440, Note_off_c, 0, 70, 64
2, 241440, Note_on_c, 0, 72, 92
2, 241536, Note_off_c, 0, 72, 64
2, 241536, Note_on_c, 0, 69, 92
2, 241632, Note_off_c, 0, 69, 64
2, 241632, Note_on_c, 0, 70, 92
2, 241728, Note_off_c, 0, 70, 64
2, 241728, Note_on_c, 0, 72, 92
2, 241824, Note_off_c, 0, 72, 64
2, 241824, Note_on_c, 0, 74, 92
2, 241920, Note_off_c, 0, 74, 64
2, 241920, Note_on_c, 0, 70, 92
2, 242016, Note_off_c, 0, 65, 64
2, 242016, Note_on_c, 0, 67, 92
2, 242112, Note_off_c, 0, 67, 64
2, 242112, Note_on_c, 0, 63, 92
2, 242208, Note_off_c, 0, 63, 64
2, 242208, Note_on_c, 0, 65, 92
2, 242304, Note_off_c, 0, 65, 64
2, 242304, Note_on_c, 0, 62, 92
2, 242400, Note_off_c, 0, 62, 64
2, 242400, Note_on_c, 0, 64, 92
2, 242496, Note_off_c, 0, 64, 64
2, 242496, Note_on_c, 0, 66, 92
2, 242592, Note_off_c, 0, 66, 64
2, 242592, Note_on_c, 0, 67, 92
2, 242688, Note_off_c, 0, 67, 64
2, 242688, Note_on_c, 0, 61, 92
2, 242784, Note_off_c, 0, 70, 64
2, 242784, Note_on_c, 0, 72, 92
2, 242880, Note_off_c, 0, 72, 64
2, 242880, Note_on_c, 0, 69, 92
2, 242976, Note_off_c, 0, 69, 64
2, 242976, Note_on_c, 0, 70, 92
2, 243072, Note_off_c, 0, 70, 64
2, 243072, Note_on_c, 0, 67, 92
2, 243168, Note_off_c, 0, 67, 64
2, 243168, Note_on_c, 0, 70, 92
2, 243264, Note_off_c, 0, 70, 64
2, 243264, Note_on_c, 0, 69, 92
2, 243360, Note_off_c, 0, 69, 64
2, 243360, Note_on_c, 0, 67, 92
2, 243456, Note_off_c, 0, 67, 64
2, 243456, Note_off_c, 0, 61, 64
2, 243456, Note_on_c, 0, 62, 92
2, 243456, Note_on_c, 0, 66, 92
2, 243552, Note_off_c, 0, 66, 64
2, 243552, Note_on_c, 0, 67, 92
2, 243648, Note_off_c, 0, 67, 64
2, 243648, Note_off_c, 0, 62, 64
2, 243648, Note_on_c, 0, 60, 92
2, 243648, Note_on_c, 0, 64, 92
2, 243744, Note_off_c, 0, 64, 64
2, 243744, Note_on_c, 0, 66, 92
2, 243840, Note_off_c, 0, 66, 64
2, 243840, Note_off_c, 0, 60, 64
2, 243840, Note_on_c, 0, 58, 92
2, 243840, Note_on_c, 0, 67, 92
2, 243936, Note_off_c, 0, 67, 64
2, 243936, Note_on_c, 0, 70, 92
2, 244032, Note_off_c, 0, 70, 64
2, 244032, Note_off_c, 0, 58, 64
2, 244032, Note_on_c, 0, 62, 92
2, 244032, Note_on_c, 0, 69, 92
2, 244128, Note_off_c, 0, 69, 64
2, 244128, Note_on_c, 0, 72, 92
2, 244224, Note_off_c, 0, 72, 64
2, 244224, Note_on_c, 0, 70, 92
2, 244320, Note_off_c, 0, 70, 64
2, 244320, Note_off_c, 0, 62, 64
2, 244320, Note_on_c, 0, 69, 92
2, 244320, Note_on_c, 0, 60, 92
2, 244416, Note_off_c, 0, 60, 64
2, 244416, Note_off_c, 0, 69, 64
2, 244416, Note_on_c, 0, 67, 92
2, 244416, Note_on_c, 0, 58, 92
2, 244512, Note_off_c, 0, 58, 64
2, 244512, Note_off_c, 0, 67, 64
2, 244512, Note_on_c, 0, 69, 92
2, 244512, Note_on_c, 0, 60, 92
2, 244608, Note_off_c, 0, 60, 64
2, 244608, Note_off_c, 0, 69, 64
2, 244608, Note_on_c, 0, 57, 92
2, 244608, Note_on_c, 0, 66, 92
2, 244656, Note_off_c, 0, 66, 64
2, 244656, Note_on_c, 0, 67, 92
2, 244704, Note_off_c, 0, 67, 64
2, 244704, Note_on_c, 0, 66, 92
2, 244896, Note_off_c, 0, 66, 64
2, 244896, Note_off_c, 0, 57, 64
2, 244896, Note_on_c, 0, 55, 92
2, 244896, Note_on_c, 0, 67, 92
2, 244992, Note_off_c, 0, 67, 64
2, 244992, Note_off_c, 0, 55, 64
2, 244992, Note_on_c, 0, 55, 92
2, 244992, Note_on_c, 0, 67, 92
2, 245184, Note_off_c, 0, 67, 64
2, 245184, Note_off_c, 0, 55, 64
2, 245568, Note_on_c, 0, 70, 92
2, 245568, Note_on_c, 0, 75, 92
2, 245760, Note_off_c, 0, 75, 64
2, 245760, Note_off_c, 0, 70, 64
2, 245760, Note_on_c, 0, 69, 92
2, 245760, Note_on_c, 0, 74, 92
2, 246144, Note_off_c, 0, 74, 64
2, 246144, Note_off_c, 0, 69, 64
2, 246336, Note_on_c, 0, 70, 92
2, 246336, Note_on_c, 0, 74, 92
2, 246528, Note_off_c, 0, 74, 64
2, 246528, Note_off_c, 0, 70, 64
2, 246528, Note_on_c, 0, 70, 92
2, 246528, Note_on_c, 0, 79, 92
2, 246624, Note_off_c, 0, 79, 64
2, 246624, Note_on_c, 0, 77, 92
2, 246720, Note_off_c, 0, 77, 64
2, 246720, Note_on_c, 0, 75, 92
2, 246816, Note_off_c, 0, 75, 64
2, 246816, Note_on_c, 0, 74, 92
2, 246912, Note_off_c, 0, 74, 64
2, 246912, Note_on_c, 0, 72, 92
2, 247008, Note_off_c, 0, 70, 64
2, 247008, Note_on_c, 0, 70, 92
2, 247104, Note_off_c, 0, 70, 64
2, 247104, Note_off_c, 0, 72, 64
2, 247104, Note_on_c, 0, 74, 92
2, 247104, Note_on_c, 0, 69, 92
2, 247200, Note_off_c, 0, 69, 64
2, 247200, Note_off_c, 0, 74, 64
2, 247200, Note_on_c, 0, 75, 92
2, 247200, Note_on_c, 0, 67, 92
2, 247296, Note_off_c, 0, 67, 64
2, 247296, Note_off_c, 0, 75, 64
2, 247296, Note_on_c, 0, 69, 92
2, 247296, Note_on_c, 0, 77, 92
2, 247392, Note_off_c, 0, 77, 64
2, 247392, Note_on_c, 0, 79, 92
2, 247488, Note_off_c, 0, 79, 64
2, 247488, Note_on_c, 0, 75, 92
2, 247584, Note_off_c, 0, 75, 64
2, 247584, Note_on_c, 0, 77, 92
2, 247680, Note_off_c, 0, 77, 64
2, 247680, Note_on_c, 0, 74, 92
2, 247776, Note_off_c, 0, 69, 64
2, 247776, Note_on_c, 0, 69, 92
2, 247872, Note_off_c, 0, 69, 64
2, 247872, Note_off_c, 0, 74, 64
2, 247872, Note_on_c, 0, 70, 92
2, 247872, Note_on_c, 0, 67, 92
2, 247968, Note_off_c, 0, 67, 64
2, 247968, Note_on_c, 0, 66, 92
2, 248064, Note_off_c, 0, 66, 64
2, 248064, Note_off_c, 0, 70, 64
2, 248064, Note_on_c, 0, 67, 92
2, 248064, Note_on_c, 0, 75, 92
2, 248160, Note_off_c, 0, 75, 64
2, 248160, Note_on_c, 0, 74, 92
2, 248256, Note_off_c, 0, 74, 64
2, 248256, Note_on_c, 0, 72, 92
2, 248352, Note_off_c, 0, 72, 64
2, 248352, Note_on_c, 0, 70, 92
2, 248448, Note_off_c, 0, 70, 64
2, 248448, Note_on_c, 0, 69, 92
2, 248544, Note_off_c, 0, 67, 64
2, 248544, Note_on_c, 0, 67, 92
2, 248640, Note_off_c, 0, 67, 64
2, 248640, Note_off_c, 0, 69, 64
2, 248640, Note_on_c, 0, 70, 92
2, 248640, Note_on_c, 0, 66, 92
2, 248736, Note_off_c, 0, 66, 64
2, 248736, Note_off_c, 0, 70, 64
2, 248736, Note_on_c, 0, 72, 92
2, 248736, Note_on_c, 0, 64, 92
2, 248832, Note_off_c, 0, 64, 64
2, 248832, Note_off_c, 0, 72, 64
2, 248832, Note_on_c, 0, 62, 92
2, 248832, Note_on_c, 0, 74, 92
2, 248928, Note_off_c, 0, 74, 64
2, 248928, Note_on_c, 0, 75, 92
2, 249024, Note_off_c, 0, 75, 64
2, 249024, Note_off_c, 0, 62, 64
2, 249024, Note_on_c, 0, 66, 92
2, 249024, Note_on_c, 0, 72, 92
2, 249120, Note_off_c, 0, 72, 64
2, 249120, Note_on_c, 0, 74, 92
2, 249216, Note_off_c, 0, 74, 64
2, 249216, Note_off_c, 0, 66, 64
2, 249216, Note_on_c, 0, 70, 92
2, 249216, Note_on_c, 0, 67, 92
2, 249408, Note_off_c, 0, 67, 64
2, 249408, Note_off_c, 0, 70, 64
2, 249408, Note_on_c, 0, 78, 92
2, 249408, Note_on_c, 0, 63, 92
2, 249600, Note_off_c, 0, 63, 64
2, 249600, Note_off_c, 0, 78, 64
2, 249600, Note_on_c, 0, 79, 92
2, 249600, Note_on_c, 0, 62, 92
2, 249792, Note_off_c, 0, 62, 64
2, 249792, Note_off_c, 0, 79, 64
2, 249792, Note_on_c, 0, 72, 92
2, 249792, Note_on_c, 0, 66, 92
2, 249984, Note_off_c, 0, 66, 64
2, 249984, Note_off_c, 0, 72, 64
2, 249984, Note_on_c, 0, 70, 92
2, 249984, Note_on_c, 0, 67, 92
2, 250176, Note_off_c, 0, 67, 64
2, 250176, Note_off_c, 0, 70, 64
2, 250176, Note_on_c, 0, 78, 92
2, 250176, Note_on_c, 0, 63, 92
2, 250368, Note_off_c, 0, 63, 64
2, 250368, Note_off_c, 0, 78, 64
2, 250368, Note_on_c, 0, 62, 92
2, 250368, Note_on_c, 0, 79, 92
2, 250560, Note_off_c, 0, 79, 64
2, 250560, Note_off_c, 0, 62, 64
2, 250560, Note_on_c, 0, 66, 92
2, 250560, Note_on_c, 0, 72, 92
2, 250752, Note_off_c, 0, 72, 64
2, 250752, Note_off_c, 0, 66, 64
2, 250752, Note_on_c, 0, 67, 92
2, 250752, Note_on_c, 0, 70, 92
2, 250944, Note_off_c, 0, 70, 64
2, 250944, Note_off_c, 0, 67, 64
2, 250944, Note_on_c, 0, 63, 92
2, 250944, Note_on_c, 0, 78, 92
2, 251136, Note_off_c, 0, 78, 64
2, 251136, Note_off_c, 0, 63, 64
2, 251136, Note_on_c, 0, 62, 92
2, 251136, Note_on_c, 0, 79, 92
2, 251328, Note_off_c, 0, 79, 64
2, 251328, Note_off_c, 0, 62, 64
2, 251328, Note_on_c, 0, 72, 92
2, 251328, Note_on_c, 0, 81, 92
2, 251520, Note_off_c, 0, 81, 64
2, 251520, Note_off_c, 0, 72, 64
2, 251520, Note_on_c, 0, 70, 92
2, 251520, Note_on_c, 0, 74, 92
2, 251712, Note_off_c, 0, 74, 64
2, 251712, Note_off_c, 0, 70, 64
2, 251712, Note_on_c, 0, 72, 92
2, 251712, Note_on_c, 0, 74, 92
2, 251712, Note_on_c, 0, 69, 92
2, 251712, Note_on_c, 0, 78, 92
2, 251904, Note_off_c, 0, 78, 64
2, 251904, Note_off_c, 0, 69, 64
2, 251904, Note_off_c, 0, 74, 64
2, 251904, Note_off_c, 0, 72, 64
2, 251904, Note_on_c, 0, 67, 92
2, 251904, Note_on_c, 0, 71, 92
2, 251904, Note_on_c, 0, 74, 92
2, 251904, Note_on_c, 0, 79, 92
2, 252480, Note_off_c, 0, 79, 64
2, 252480, Note_off_c, 0, 74, 64
2, 252480, Note_off_c, 0, 71, 64
2, 252480, Note_off_c, 0, 67, 64
2, 253440, End_track
3, 0, Start_track
3, 0, Title_t, "Track 2"
3, 0, Note_on_c, 0, 62, 92
3, 0, Note_on_c, 0, 67, 92
3, 0, Note_on_c, 0, 70, 92
3, 384, Note_off_c, 0, 70, 64
3, 384, Note_off_c, 0, 67, 64
3, 384, Note_off_c, 0, 62, 64
3, 768, Note_on_c, 0, 60, 92
3, 768, Note_on_c, 0, 66, 92
3, 768, Note_on_c, 0, 69, 92
3, 1152, Note_off_c, 0, 69, 64
3, 1152, Note_off_c, 0, 66, 64
3, 1152, Note_off_c, 0, 60, 64
3, 1536, Note_on_c, 0, 62, 92
3, 1536, Note_on_c, 0, 65, 92
3, 1536, Note_on_c, 0, 68, 92
3, 1920, Note_off_c, 0, 68, 64
3, 1920, Note_off_c, 0, 65, 64
3, 1920, Note_off_c, 0, 62, 64
3, 2304, Note_on_c, 0, 60, 92
3, 2304, Note_on_c, 0, 67, 92
3, 2304, Note_on_c, 0, 72, 92
3, 2688, Note_off_c, 0, 72, 64
3, 2688, Note_off_c, 0, 67, 64
3, 2688, Note_off_c, 0, 60, 64
3, 3072, Note_on_c, 0, 63, 92
3, 3072, Note_on_c, 0, 60, 92
3, 3072, Note_on_c, 0, 57, 92
3, 3456, Note_off_c, 0, 57, 64
3, 3456, Note_off_c, 0, 60, 64
3, 3456, Note_off_c, 0, 63, 64
3, 3840, Note_on_c, 0, 63, 92
3, 3840, Note_on_c, 0, 60, 92
3, 3840, Note_on_c, 0, 57, 92
3, 4224, Note_off_c, 0, 57, 64
3, 4224, Note_off_c, 0, 60, 64
3, 4224, Note_off_c, 0, 63, 64
3, 4608, Note_on_c, 0, 58, 92
3, 4656, Note_off_c, 0, 58, 64
3, 4656, Note_on_c, 0, 55, 92
3, 4704, Note_off_c, 0, 55, 64
3, 4704, Note_on_c, 0, 54, 92
3, 4752, Note_off_c, 0, 54, 64
3, 4752, Note_on_c, 0, 55, 92
3, 4800, Note_off_c, 0, 55, 64
3, 4800, Note_on_c, 0, 57, 92
3, 4848, Note_off_c, 0, 57, 64
3, 4848, Note_on_c, 0, 58, 92
3, 4896, Note_off_c, 0, 58, 64
3, 5088, Note_on_c, 0, 55, 92
3, 5136, Note_off_c, 0, 55, 64
3, 5136, Note_on_c, 0, 57, 92
3, 5184, Note_off_c, 0, 57, 64
3, 7104, Note_on_c, 0, 57, 92
3, 7152, Note_off_c, 0, 57, 64
3, 7152, Note_on_c, 0, 55, 92
3, 7200, Note_off_c, 0, 55, 64
3, 7200, Note_on_c, 0, 54, 92
3, 7248, Note_off_c, 0, 54, 64
3, 7248, Note_on_c, 0, 52, 92
3, 7296, Note_off_c, 0, 52, 64
3, 7296, Note_on_c, 0, 54, 92
3, 7344, Note_off_c, 0, 54, 64
3, 7344, Note_on_c, 0, 57, 92
3, 7392, Note_off_c, 0, 57, 64
3, 7392, Note_on_c, 0, 50, 92
3, 7440, Note_off_c, 0, 50, 64
3, 7440, Note_on_c, 0, 48, 92
3, 7488, Note_off_c, 0, 48, 64
3, 7488, Note_on_c, 0, 46, 92
3, 7536, Note_off_c, 0, 46, 64
3, 7536, Note_on_c, 0, 45, 92
3, 7584, Note_off_c, 0, 45, 64
3, 7584, Note_on_c, 0, 43, 92
3, 7632, Note_off_c, 0, 43, 64
3, 7632, Note_on_c, 0, 42, 92
3, 7680, Note_off_c, 0, 42, 64
3, 7680, Note_on_c, 0, 43, 92
3, 7728, Note_off_c, 0, 43, 64
3, 7728, Note_on_c, 0, 38, 92
3, 7776, Note_off_c, 0, 38, 64
3, 7776, Note_on_c, 0, 40, 92
3, 7824, Note_off_c, 0, 40, 64
3, 7824, Note_on_c, 0, 42, 92
3, 7872, Note_off_c, 0, 42, 64
3, 7872, Note_on_c, 0, 43, 92
3, 7920, Note_off_c, 0, 43, 64
3, 7920, Note_on_c, 0, 45, 92
3, 7968, Note_off_c, 0, 45, 64
3, 7968, Note_on_c, 0, 46, 92
3, 8016, Note_off_c, 0, 46, 64
3, 8016, Note_on_c, 0, 48, 92
3, 8064, Note_off_c, 0, 48, 64
3, 8064, Note_on_c, 0, 46, 92
3, 8112, Note_off_c, 0, 46, 64
3, 8112, Note_on_c, 0, 43, 92
3, 8160, Note_off_c, 0, 43, 64
3, 8160, Note_on_c, 0, 46, 92
3, 8208, Note_off_c, 0, 46, 64
3, 8208, Note_on_c, 0, 50, 92
3, 8256, Note_off_c, 0, 50, 64
3, 8256, Note_on_c, 0, 55, 92
3, 8304, Note_off_c, 0, 55, 64
3, 8304, Note_on_c, 0, 58, 92
3, 8352, Note_off_c, 0, 58, 64
3, 8352, Note_on_c, 0, 57, 92
3, 8400, Note_off_c, 0, 57, 64
3, 8400, Note_on_c, 0, 55, 92
3, 8448, Note_off_c, 0, 55, 64
3, 8496, Note_on_c, 0, 55, 92
3, 8544, Note_off_c, 0, 55, 64
3, 8544, Note_on_c, 0, 57, 92
3, 8592, Note_off_c, 0, 57, 64
3, 8592, Note_on_c, 0, 59, 92
3, 8640, Note_off_c, 0, 59, 64
3, 11376, Note_on_c, 0, 65, 92
3, 11424, Note_off_c, 0, 65, 64
3, 11424, Note_on_c, 0, 63, 92
3, 11472, Note_off_c, 0, 63, 64
3, 11472, Note_on_c, 0, 62, 92
3, 11520, Note_off_c, 0, 62, 64
3, 11520, Note_on_c, 0, 61, 92
3, 11568, Note_off_c, 0, 61, 64
3, 11568, Note_on_c, 0, 58, 92
3, 11616, Note_off_c, 0, 58, 64
3, 11616, Note_on_c, 0, 57, 92
3, 11664, Note_off_c, 0, 57, 64
3, 11664, Note_on_c, 0, 55, 92
3, 11712, Note_off_c, 0, 55, 64
3, 11712, Note_on_c, 0, 64, 92
3, 11760, Note_off_c, 0, 64, 64
3, 11760, Note_on_c, 0, 61, 92
3, 11808, Note_off_c, 0, 61, 64
3, 11808, Note_on_c, 0, 58, 92
3, 11856, Note_off_c, 0, 58, 64
3, 11856, Note_on_c, 0, 57, 92
3, 11904, Note_off_c, 0, 57, 64
3, 11904, Note_on_c, 0, 55, 92
3, 11952, Note_off_c, 0, 55, 64
3, 11952, Note_on_c, 0, 58, 92
3, 12000, Note_off_c, 0, 58, 64
3, 12000, Note_on_c, 0, 57, 92
3, 12048, Note_off_c, 0, 57, 64
3, 12048, Note_on_c, 0, 55, 92
3, 12096, Note_off_c, 0, 55, 64
3, 12096, Note_on_c, 0, 61, 92
3, 12144, Note_off_c, 0, 61, 64
3, 12144, Note_on_c, 0, 64, 92
3, 12192, Note_off_c, 0, 64, 64
3, 12192, Note_on_c, 0, 62, 92
3, 12240, Note_off_c, 0, 62, 64
3, 12240, Note_on_c, 0, 61, 92
3, 12288, Note_off_c, 0, 61, 64
3, 12288, Note_on_c, 0, 62, 92
3, 12672, Note_off_c, 0, 62, 64
3, 13248, Note_on_c, 0, 65, 92
3, 13344, Note_off_c, 0, 65, 64
3, 13344, Note_on_c, 0, 62, 92
3, 13440, Note_off_c, 0, 62, 64
3, 13440, Note_on_c, 0, 59, 92
3, 13536, Note_off_c, 0, 59, 64
3, 13536, Note_on_c, 0, 60, 92
3, 13632, Note_off_c, 0, 60, 64
3, 13632, Note_on_c, 0, 62, 92
3, 13824, Note_off_c, 0, 62, 64
3, 13824, Note_on_c, 0, 55, 92
3, 13920, Note_off_c, 0, 55, 64
3, 13920, Note_on_c, 0, 59, 92
3, 14016, Note_off_c, 0, 59, 64
3, 14016, Note_on_c, 0, 60, 92
3, 14400, Note_off_c, 0, 60, 64
3, 14400, Note_on_c, 0, 60, 92
3, 14496, Note_off_c, 0, 60, 64
3, 14496, Note_on_c, 0, 57, 92
3, 14592, Note_off_c, 0, 57, 64
3, 14592, Note_on_c, 0, 54, 92
3, 14688, Note_off_c, 0, 54, 64
3, 14688, Note_on_c, 0, 55, 92
3, 14784, Note_off_c, 0, 55, 64
3, 14784, Note_on_c, 0, 57, 92
3, 15552, Note_off_c, 0, 57, 64
3, 15552, Note_on_c, 0, 55, 92
3, 15648, Note_off_c, 0, 55, 64
3, 15648, Note_on_c, 0, 54, 92
3, 15744, Note_off_c, 0, 54, 64
3, 15744, Note_on_c, 0, 55, 92
3, 15840, Note_off_c, 0, 55, 64
3, 15840, Note_on_c, 0, 57, 92
3, 15936, Note_off_c, 0, 57, 64
3, 15936, Note_on_c, 0, 58, 92
3, 16704, Note_off_c, 0, 58, 64
3, 16704, Note_on_c, 0, 57, 92
3, 16800, Note_off_c, 0, 57, 64
3, 16800, Note_on_c, 0, 55, 92
3, 17088, Note_off_c, 0, 55, 64
3, 17088, Note_on_c, 0, 53, 92
3, 17184, Note_off_c, 0, 53, 64
3, 17184, Note_on_c, 0, 52, 92
3, 17280, Note_off_c, 0, 52, 64
3, 17280, Note_on_c, 0, 53, 92
3, 17376, Note_off_c, 0, 53, 64
3, 17376, Note_on_c, 0, 55, 92
3, 17472, Note_off_c, 0, 55, 64
3, 17472, Note_on_c, 0, 57, 92
3, 17568, Note_off_c, 0, 57, 64
3, 17568, Note_on_c, 0, 53, 92
3, 17664, Note_off_c, 0, 53, 64
3, 17664, Note_on_c, 0, 50, 92
3, 17760, Note_off_c, 0, 50, 64
3, 17760, Note_on_c, 0, 53, 92
3, 17856, Note_off_c, 0, 53, 64
3, 17856, Note_on_c, 0, 55, 92
3, 18144, Note_off_c, 0, 55, 64
3, 18144, Note_on_c, 0, 57, 92
3, 18240, Note_off_c, 0, 57, 64
3, 18240, Note_on_c, 0, 58, 92
3, 18336, Note_off_c, 0, 58, 64
3, 18336, Note_on_c, 0, 55, 92
3, 18432, Note_off_c, 0, 55, 64
3, 18432, Note_on_c, 0, 52, 92
3, 18624, Note_off_c, 0, 52, 64
3, 18624, Note_on_c, 0, 57, 92
3, 18720, Note_off_c, 0, 57, 64
3, 18720, Note_on_c, 0, 55, 92
3, 18816, Note_off_c, 0, 55, 64
3, 18816, Note_on_c, 0, 53, 92
3, 18912, Note_off_c, 0, 53, 64
3, 18912, Note_on_c, 0, 52, 92
3, 19008, Note_off_c, 0, 52, 64
3, 19008, Note_on_c, 0, 50, 92
3, 19104, Note_off_c, 0, 50, 64
3, 19104, Note_on_c, 0, 49, 92
3, 19200, Note_off_c, 0, 49, 64
3, 19200, Note_on_c, 0, 50, 92
3, 19296, Note_off_c, 0, 50, 64
3, 19296, Note_on_c, 0, 52, 92
3, 19392, Note_off_c, 0, 52, 64
3, 19392, Note_on_c, 0, 53, 92
3, 19488, Note_off_c, 0, 53, 64
3, 19488, Note_on_c, 0, 50, 92
3, 19584, Note_on_c, 0, 56, 92
3, 19968, Note_off_c, 0, 56, 64
3, 19968, Note_off_c, 0, 50, 64
3, 19968, Note_on_c, 0, 52, 92
3, 19968, Note_on_c, 0, 57, 92
3, 20352, Note_off_c, 0, 57, 64
3, 20352, Note_off_c, 0, 52, 64
3, 21312, Note_on_c, 0, 52, 92
3, 21312, Note_on_c, 0, 55, 92
3, 21312, Note_on_c, 0, 58, 92
3, 21504, Note_off_c, 0, 55, 64
3, 21504, Note_off_c, 0, 52, 64
3, 21504, Note_on_c, 0, 52, 92
3, 21696, Note_off_c, 0, 52, 64
3, 21696, Note_off_c, 0, 58, 64
3, 21696, Note_on_c, 0, 54, 92
3, 21696, Note_on_c, 0, 59, 92
3, 21888, Note_off_c, 0, 59, 64
3, 21888, Note_off_c, 0, 54, 64
3, 22848, Note_on_c, 0, 53, 92
3, 22848, Note_on_c, 0, 62, 92
3, 23040, Note_off_c, 0, 53, 64
3, 23040, Note_on_c, 0, 55, 92
3, 23232, Note_off_c, 0, 62, 64
3, 23232, Note_on_c, 0, 60, 92
3, 23424, Note_off_c, 0, 60, 64
3, 23424, Note_off_c, 0, 55, 64
3, 24576, Note_on_c, 0, 67, 92
3, 24672, Note_off_c, 0, 67, 64
3, 24672, Note_on_c, 0, 66, 92
3, 24768, Note_on_c, 0, 60, 92
3, 24960, Note_off_c, 0, 60, 64
3, 24960, Note_off_c, 0, 66, 64
3, 24960, Note_on_c, 0, 67, 92
3, 24960, Note_on_c, 0, 62, 92
3, 25152, Note_off_c, 0, 62, 64
3, 25152, Note_off_c, 0, 67, 64
3, 25152, Note_on_c, 0, 69, 92
3, 25152, Note_on_c, 0, 57, 92
3, 25344, Note_off_c, 0, 57, 64
3, 25344, Note_off_c, 0, 69, 64
3, 25344, Note_on_c, 0, 67, 92
3, 25344, Note_on_c, 0, 58, 92
3, 25536, Note_off_c, 0, 58, 64
3, 25536, Note_off_c, 0, 67, 64
3, 25536, Note_on_c, 0, 66, 92
3, 25536, Note_on_c, 0, 62, 92
3, 25632, Note_off_c, 0, 62, 64
3, 25632, Note_on_c, 0, 60, 92
3, 25728, Note_off_c, 0, 60, 64
3, 25728, Note_off_c, 0, 66, 64
3, 25728, Note_on_c, 0, 67, 92
3, 25728, Note_on_c, 0, 58, 92
3, 25824, Note_off_c, 0, 58, 64
3, 25824, Note_on_c, 0, 55, 92
3, 25920, Note_off_c, 0, 55, 64
3, 25920, Note_on_c, 0, 60, 92
3, 26016, Note_off_c, 0, 60, 64
3, 26016, Note_on_c, 0, 62, 92
3, 26064, Note_off_c, 0, 62, 64
3, 26064, Note_on_c, 0, 63, 92
3, 26112, Note_off_c, 0, 63, 64
3, 26112, Note_off_c, 0, 67, 64
3, 26112, Note_on_c, 0, 66, 92
3, 26112, Note_on_c, 0, 57, 92
3, 26496, Note_off_c, 0, 57, 64
3, 26496, Note_off_c, 0, 66, 64
3, 27072, Note_on_c, 0, 50, 92
3, 27072, Note_on_c, 0, 54, 92
3, 27264, Note_off_c, 0, 54, 64
3, 27264, Note_off_c, 0, 50, 64
3, 27264, Note_on_c, 0, 52, 92
3, 27264, Note_on_c, 0, 55, 92
3, 27456, Note_off_c, 0, 55, 64
3, 27456, Note_off_c, 0, 52, 64
3, 27840, Note_on_c, 0, 54, 92
3, 27840, Note_on_c, 0, 57, 92
3, 28032, Note_off_c, 0, 57, 64
3, 28032, Note_off_c, 0, 54, 64
3, 28032, Note_on_c, 0, 55, 92
3, 28032, Note_on_c, 0, 58, 92
3, 28224, Note_off_c, 0, 58, 64
3, 28224, Note_off_c, 0, 55, 64
3, 28992, Note_on_c, 0, 55, 92
3, 28992, Note_on_c, 0, 58, 92
3, 29376, Note_off_c, 0, 58, 64
3, 29376, Note_off_c, 0, 55, 64
3, 29376, Note_on_c, 0, 57, 92
3, 29568, Note_off_c, 0, 57, 64
3, 30240, Note_on_c, 0, 72, 92
3, 30288, Note_off_c, 0, 72, 64
3, 30288, Note_on_c, 0, 74, 92
3, 30336, Note_off_c, 0, 74, 64
3, 30336, Note_on_c, 0, 75, 92
3, 30432, Note_off_c, 0, 75, 64
3, 30432, Note_on_c, 0, 74, 92
3, 30528, Note_off_c, 0, 74, 64
3, 30528, Note_on_c, 0, 72, 92
3, 30720, Note_off_c, 0, 72, 64
3, 30720, Note_on_c, 0, 70, 92
3, 30816, Note_on_c, 0, 63, 92
3, 30864, Note_off_c, 0, 63, 64
3, 30864, Note_on_c, 0, 65, 92
3, 30912, Note_off_c, 0, 65, 64
3, 30912, Note_on_c, 0, 66, 92
3, 30960, Note_off_c, 0, 66, 64
3, 30960, Note_on_c, 0, 65, 92
3, 31008, Note_off_c, 0, 65, 64
3, 31008, Note_on_c, 0, 63, 92
3, 31104, Note_off_c, 0, 63, 64
3, 31104, Note_off_c, 0, 70, 64
3, 31104, Note_on_c, 0, 71, 92
3, 31104, Note_on_c, 0, 68, 92
3, 31488, Note_off_c, 0, 68, 64
3, 31488, Note_off_c, 0, 71, 64
3, 31488, Note_on_c, 0, 70, 92
3, 31488, Note_on_c, 0, 66, 92
3, 31872, Note_off_c, 0, 66, 64
3, 31872, Note_off_c, 0, 70, 64
3, 31872, Note_on_c, 0, 68, 92
3, 31872, Note_on_c, 0, 65, 92
3, 32256, Note_off_c, 0, 68, 64
3, 32256, Note_on_c, 0, 66, 92
3, 32448, Note_off_c, 0, 65, 64
3, 32448, Note_on_c, 0, 63, 92
3, 32640, Note_off_c, 0, 66, 64
3, 32640, Note_on_c, 0, 65, 92
3, 32832, Note_off_c, 0, 63, 64
3, 32832, Note_on_c, 0, 62, 92
3, 32928, Note_off_c, 0, 62, 64
3, 32928, Note_on_c, 0, 63, 92
3, 32976, Note_off_c, 0, 63, 64
3, 32976, Note_on_c, 0, 60, 92
3, 33024, Note_off_c, 0, 60, 64
3, 33024, Note_on_c, 0, 62, 92
3, 33216, Note_off_c, 0, 62, 64
3, 33216, Note_off_c, 0, 65, 64
3, 33216, Note_on_c, 0, 66, 92
3, 33216, Note_on_c, 0, 63, 92
3, 33408, Note_off_c, 0, 63, 64
3, 33408, Note_off_c, 0, 66, 64
3, 33600, Note_on_c, 0, 69, 92
3, 33600, Note_on_c, 0, 63, 92
3, 33792, Note_off_c, 0, 63, 64
3, 33792, Note_off_c, 0, 69, 64
3, 33792, Note_on_c, 0, 65, 92
3, 33792, Note_on_c, 0, 70, 92
3, 34176, Note_off_c, 0, 70, 64
3, 34272, Note_on_c, 0, 68, 92
3, 34368, Note_off_c, 0, 68, 64
3, 34368, Note_on_c, 0, 67, 92
3, 34464, Note_off_c, 0, 67, 64
3, 34464, Note_off_c, 0, 65, 64
3, 34464, Note_on_c, 0, 65, 92
3, 34560, Note_off_c, 0, 65, 64
3, 34560, Note_on_c, 0, 67, 92
3, 34752, Note_on_c, 0, 55, 92
3, 34944, Note_off_c, 0, 67, 64
3, 35040, Note_off_c, 0, 55, 64
3, 35040, Note_on_c, 0, 56, 92
3, 35136, Note_off_c, 0, 56, 64
3, 35136, Note_on_c, 0, 64, 92
3, 35136, Note_on_c, 0, 58, 92
3, 35520, Note_off_c, 0, 58, 64
3, 35520, Note_off_c, 0, 64, 64
3, 35520, Note_on_c, 0, 65, 92
3, 35520, Note_on_c, 0, 56, 92
3, 35712, Note_off_c, 0, 56, 64
3, 35712, Note_off_c, 0, 65, 64
3, 36672, Note_on_c, 0, 62, 92
3, 36672, Note_on_c, 0, 57, 92
3, 36864, Note_off_c, 0, 57, 64
3, 36864, Note_off_c, 0, 62, 64
3, 36864, Note_on_c, 0, 55, 92
3, 36864, Note_on_c, 0, 62, 92
3, 37248, Note_off_c, 0, 62, 64
3, 37248, Note_off_c, 0, 55, 64
3, 37440, Note_on_c, 0, 70, 92
3, 37536, Note_off_c, 0, 70, 64
3, 37536, Note_on_c, 0, 67, 92
3, 37632, Note_off_c, 0, 67, 64
3, 37632, Note_on_c, 0, 64, 92
3, 37728, Note_off_c, 0, 64, 64
3, 37728, Note_on_c, 0, 65, 92
3, 37824, Note_off_c, 0, 65, 64
3, 37824, Note_on_c, 0, 67, 92
3, 38592, Note_off_c, 0, 67, 64
3, 38592, Note_on_c, 0, 65, 92
3, 38688, Note_off_c, 0, 65, 64
3, 38688, Note_on_c, 0, 64, 92
3, 38784, Note_off_c, 0, 64, 64
3, 38784, Note_on_c, 0, 65, 92
3, 38976, Note_off_c, 0, 65, 64
3, 39360, Note_on_c, 0, 65, 92
3, 39456, Note_off_c, 0, 65, 64
3, 39456, Note_on_c, 0, 62, 92
3, 39552, Note_off_c, 0, 62, 64
3, 39552, Note_on_c, 0, 59, 92
3, 39648, Note_off_c, 0, 59, 64
3, 39648, Note_on_c, 0, 60, 92
3, 39744, Note_off_c, 0, 60, 64
3, 39744, Note_on_c, 0, 62, 92
3, 39936, Note_off_c, 0, 62, 64
3, 39936, Note_on_c, 0, 55, 92
3, 40032, Note_off_c, 0, 55, 64
3, 40032, Note_on_c, 0, 59, 92
3, 40128, Note_off_c, 0, 59, 64
3, 40128, Note_on_c, 0, 60, 92
3, 40512, Note_off_c, 0, 60, 64
3, 40512, Note_on_c, 0, 55, 92
3, 40704, Note_off_c, 0, 55, 64
3, 40704, Note_on_c, 0, 60, 92
3, 40896, Note_off_c, 0, 60, 64
3, 40896, Note_on_c, 0, 63, 92
3, 41280, Note_off_c, 0, 63, 64
3, 41280, Note_on_c, 0, 62, 92
3, 41376, Note_off_c, 0, 62, 64
3, 41376, Note_on_c, 0, 60, 92
3, 41472, Note_off_c, 0, 60, 64
3, 41472, Note_on_c, 0, 62, 92
3, 42432, Note_off_c, 0, 62, 64
3, 42432, Note_on_c, 0, 63, 92
3, 42528, Note_off_c, 0, 63, 64
3, 42528, Note_on_c, 0, 60, 92
3, 42624, Note_off_c, 0, 60, 64
3, 42624, Note_on_c, 0, 57, 92
3, 42720, Note_off_c, 0, 57, 64
3, 42720, Note_on_c, 0, 58, 92
3, 42816, Note_off_c, 0, 58, 64
3, 42816, Note_on_c, 0, 60, 92
3, 43104, Note_off_c, 0, 60, 64
3, 43104, Note_on_c, 0, 57, 92
3, 43200, Note_off_c, 0, 57, 64
3, 43200, Note_on_c, 0, 62, 92
3, 43488, Note_off_c, 0, 62, 64
3, 43488, Note_on_c, 0, 60, 92
3, 43584, Note_off_c, 0, 60, 64
3, 43584, Note_on_c, 0, 58, 92
3, 43680, Note_off_c, 0, 58, 64
3, 43680, Note_on_c, 0, 57, 92
3, 43776, Note_off_c, 0, 57, 64
3, 43776, Note_on_c, 0, 55, 92
3, 43872, Note_off_c, 0, 55, 64
3, 43872, Note_on_c, 0, 58, 92
3, 43968, Note_off_c, 0, 58, 64
3, 43968, Note_on_c, 0, 60, 92
3, 44256, Note_off_c, 0, 60, 64
3, 44256, Note_on_c, 0, 62, 92
3, 44352, Note_off_c, 0, 62, 64
3, 44352, Note_on_c, 0, 63, 92
3, 44448, Note_off_c, 0, 63, 64
3, 44448, Note_on_c, 0, 60, 92
3, 44544, Note_off_c, 0, 60, 64
3, 44544, Note_on_c, 0, 57, 92
3, 44736, Note_off_c, 0, 57, 64
3, 44736, Note_on_c, 0, 62, 92
3, 44832, Note_off_c, 0, 62, 64
3, 44832, Note_on_c, 0, 60, 92
3, 44928, Note_off_c, 0, 60, 64
3, 44928, Note_on_c, 0, 58, 92
3, 45024, Note_off_c, 0, 58, 64
3, 45024, Note_on_c, 0, 57, 92
3, 45120, Note_off_c, 0, 57, 64
3, 45120, Note_on_c, 0, 55, 92
3, 45216, Note_off_c, 0, 55, 64
3, 45216, Note_on_c, 0, 54, 92
3, 45312, Note_off_c, 0, 54, 64
3, 45312, Note_on_c, 0, 55, 92
3, 45408, Note_on_c, 0, 57, 92
3, 45504, Note_off_c, 0, 57, 64
3, 45504, Note_on_c, 0, 58, 92
3, 45600, Note_off_c, 0, 58, 64
3, 45600, Note_off_c, 0, 55, 64
3, 45600, Note_on_c, 0, 55, 92
3, 45696, Note_on_c, 0, 64, 92
3, 45792, Note_off_c, 0, 55, 64
3, 45792, Note_on_c, 0, 55, 92
3, 45888, Note_off_c, 0, 55, 64
3, 45888, Note_on_c, 0, 54, 92
3, 45984, Note_off_c, 0, 54, 64
3, 45984, Note_on_c, 0, 55, 92
3, 46080, Note_off_c, 0, 55, 64
3, 46080, Note_off_c, 0, 64, 64
3, 46080, Note_on_c, 0, 57, 92
3, 46080, Note_on_c, 0, 62, 92
3, 46464, Note_off_c, 0, 62, 64
3, 46464, Note_off_c, 0, 57, 64
3, 47232, Note_on_c, 0, 62, 92
3, 47616, Note_off_c, 0, 62, 64
3, 47616, Note_on_c, 0, 63, 92
3, 48000, Note_off_c, 0, 63, 64
3, 48000, Note_on_c, 0, 64, 92
3, 48384, Note_off_c, 0, 64, 64
3, 48384, Note_on_c, 0, 65, 92
3, 49536, Note_off_c, 0, 65, 64
3, 49536, Note_on_c, 0, 65, 92
3, 49536, Note_on_c, 0, 53, 92
3, 49920, Note_off_c, 0, 53, 64
3, 49920, Note_off_c, 0, 65, 64
3, 49920, Note_on_c, 0, 63, 92
3, 49920, Note_on_c, 0, 54, 92
3, 50304, Note_off_c, 0, 54, 64
3, 50304, Note_off_c, 0, 63, 64
3, 50304, Note_on_c, 0, 58, 92
3, 50304, Note_on_c, 0, 55, 92
3, 50688, Note_off_c, 0, 55, 64
3, 50688, Note_off_c, 0, 58, 64
3, 50688, Note_on_c, 0, 56, 92
3, 50688, Note_on_c, 0, 59, 92
3, 51072, Note_off_c, 0, 59, 64
3, 51072, Note_on_c, 0, 60, 92
3, 51456, Note_off_c, 0, 60, 64
3, 51456, Note_on_c, 0, 61, 92
3, 52224, Note_off_c, 0, 56, 64
3, 52224, Note_on_c, 0, 58, 92
3, 52608, Note_off_c, 0, 58, 64
3, 52608, Note_off_c, 0, 61, 64
3, 53856, Note_on_c, 0, 52, 92
3, 53904, Note_off_c, 0, 52, 64
3, 53904, Note_on_c, 0, 54, 92
3, 53952, Note_off_c, 0, 54, 64
3, 53952, Note_on_c, 0, 55, 92
3, 54000, Note_off_c, 0, 55, 64
3, 54000, Note_on_c, 0, 54, 92
3, 54048, Note_off_c, 0, 54, 64
3, 54048, Note_on_c, 0, 52, 92
3, 54144, Note_off_c, 0, 52, 64
3, 54144, Note_on_c, 0, 60, 92
3, 54528, Note_off_c, 0, 60, 64
3, 54528, Note_on_c, 0, 64, 92
3, 54528, Note_on_c, 0, 59, 92
3, 54912, Note_off_c, 0, 59, 64
3, 54912, Note_off_c, 0, 64, 64
3, 54912, Note_on_c, 0, 66, 92
3, 54912, Note_on_c, 0, 57, 92
3, 55488, Note_off_c, 0, 57, 64
3, 55488, Note_off_c, 0, 66, 64
3, 55488, Note_on_c, 0, 64, 92
3, 55488, Note_on_c, 0, 55, 92
3, 55680, Note_off_c, 0, 55, 64
3, 55680, Note_off_c, 0, 64, 64
3, 55680, Note_on_c, 0, 63, 92
3, 55680, Note_on_c, 0, 54, 92
3, 55872, Note_off_c, 0, 63, 64
3, 55872, Note_on_c, 0, 57, 92
3, 55968, Note_on_c, 0, 60, 92
3, 56064, Note_off_c, 0, 60, 64
3, 56064, Note_on_c, 0, 63, 92
3, 56256, Note_off_c, 0, 63, 64
3, 56256, Note_off_c, 0, 57, 64
3, 56256, Note_off_c, 0, 54, 64
3, 56256, Note_on_c, 0, 64, 92
3, 56448, Note_off_c, 0, 64, 64
3, 56640, Note_on_c, 0, 61, 92
3, 56640, Note_on_c, 0, 52, 92
3, 56832, Note_off_c, 0, 52, 64
3, 56832, Note_on_c, 0, 54, 92
3, 57024, Note_off_c, 0, 61, 64
3, 57024, Note_on_c, 0, 59, 92
3, 57216, Note_off_c, 0, 59, 64
3, 57216, Note_off_c, 0, 54, 64
3, 57408, Note_on_c, 0, 66, 92
3, 57408, Note_on_c, 0, 54, 92
3, 57600, Note_off_c, 0, 54, 64
3, 57600, Note_off_c, 0, 66, 64
3, 57600, Note_on_c, 0, 56, 92
3, 57600, Note_on_c, 0, 59, 92
3, 57792, Note_off_c, 0, 59, 64
3, 57792, Note_on_c, 0, 64, 92
3, 57984, Note_off_c, 0, 64, 64
3, 57984, Note_on_c, 0, 62, 92
3, 58080, Note_off_c, 0, 56, 64
3, 58080, Note_on_c, 0, 55, 92
3, 58176, Note_off_c, 0, 55, 64
3, 58176, Note_on_c, 0, 53, 92
3, 58272, Note_off_c, 0, 53, 64
3, 58272, Note_on_c, 0, 51, 92
3, 58368, Note_off_c, 0, 51, 64
3, 58368, Note_on_c, 0, 50, 92
3, 58752, Note_off_c, 0, 50, 64
3, 58752, Note_off_c, 0, 62, 64
3, 59520, Note_on_c, 0, 60, 92
3, 60000, Note_off_c, 0, 60, 64
3, 60000, Note_on_c, 0, 58, 92
3, 60096, Note_off_c, 0, 58, 64
3, 60096, Note_on_c, 0, 57, 92
3, 60192, Note_off_c, 0, 57, 64
3, 60192, Note_on_c, 0, 60, 92
3, 60288, Note_off_c, 0, 60, 64
3, 60288, Note_on_c, 0, 58, 92
3, 60384, Note_off_c, 0, 58, 64
3, 60384, Note_on_c, 0, 57, 92
3, 60480, Note_off_c, 0, 57, 64
3, 60480, Note_on_c, 0, 55, 92
3, 60576, Note_off_c, 0, 55, 64
3, 60576, Note_on_c, 0, 54, 92
3, 60672, Note_off_c, 0, 54, 64
3, 60672, Note_on_c, 0, 55, 92
3, 61248, Note_off_c, 0, 55, 64
3, 61248, Note_on_c, 0, 60, 92
3, 61536, Note_off_c, 0, 60, 64
3, 61536, Note_on_c, 0, 58, 92
3, 61632, Note_off_c, 0, 58, 64
3, 61632, Note_on_c, 0, 57, 92
3, 61728, Note_off_c, 0, 57, 64
3, 61728, Note_on_c, 0, 60, 92
3, 61824, Note_off_c, 0, 60, 64
3, 61824, Note_on_c, 0, 58, 92
3, 61920, Note_off_c, 0, 58, 64
3, 61920, Note_on_c, 0, 57, 92
3, 62016, Note_off_c, 0, 57, 64
3, 62016, Note_on_c, 0, 55, 92
3, 62112, Note_off_c, 0, 55, 64
3, 62112, Note_on_c, 0, 54, 92
3, 62208, Note_off_c, 0, 54, 64
3, 62208, Note_on_c, 0, 55, 92
3, 62592, Note_off_c, 0, 55, 64
3, 62784, Note_on_c, 0, 60, 92
3, 62976, Note_off_c, 0, 60, 64
3, 62976, Note_on_c, 0, 57, 92
3, 63168, Note_off_c, 0, 57, 64
3, 63168, Note_on_c, 0, 54, 92
3, 63168, Note_on_c, 0, 57, 92
3, 63360, Note_off_c, 0, 57, 64
3, 63360, Note_off_c, 0, 54, 64
3, 63552, Note_on_c, 0, 62, 92
3, 63552, Note_on_c, 0, 58, 92
3, 63744, Note_off_c, 0, 58, 64
3, 63744, Note_off_c, 0, 62, 64
3, 63744, Note_on_c, 0, 52, 92
3, 63744, Note_on_c, 0, 61, 92
3, 63936, Note_off_c, 0, 61, 64
3, 63936, Note_off_c, 0, 52, 64
3, 63936, Note_on_c, 0, 55, 92
3, 63936, Note_on_c, 0, 64, 92
3, 64128, Note_off_c, 0, 64, 64
3, 64128, Note_off_c, 0, 55, 64
3, 64320, Note_on_c, 0, 58, 92
3, 64512, Note_off_c, 0, 58, 64
3, 64512, Note_on_c, 0, 57, 92
3, 65088, Note_off_c, 0, 57, 64
3, 65088, Note_on_c, 0, 55, 92
3, 65184, Note_off_c, 0, 55, 64
3, 65184, Note_on_c, 0, 57, 92
3, 65280, Note_off_c, 0, 57, 64
3, 65280, Note_on_c, 0, 58, 92
3, 65472, Note_off_c, 0, 58, 64
3, 65472, Note_on_c, 0, 57, 92
3, 65568, Note_off_c, 0, 57, 64
3, 65568, Note_on_c, 0, 55, 92
3, 65664, Note_off_c, 0, 55, 64
3, 65664, Note_on_c, 0, 57, 92
3, 65760, Note_off_c, 0, 57, 64
3, 65760, Note_on_c, 0, 58, 92
3, 65856, Note_off_c, 0, 58, 64
3, 65856, Note_on_c, 0, 60, 92
3, 66048, Note_off_c, 0, 60, 64
3, 66048, Note_on_c, 0, 59, 92
3, 66240, Note_off_c, 0, 59, 64
3, 66240, Note_on_c, 0, 58, 92
3, 66432, Note_off_c, 0, 58, 64
3, 67392, Note_on_c, 0, 55, 92
3, 67392, Note_on_c, 0, 58, 92
3, 67584, Note_off_c, 0, 58, 64
3, 67584, Note_on_c, 0, 60, 92
3, 67776, Note_off_c, 0, 55, 64
3, 67776, Note_on_c, 0, 56, 92
3, 67968, Note_off_c, 0, 56, 64
3, 67968, Note_off_c, 0, 60, 64
3, 69120, Note_on_c, 0, 60, 92
3, 69216, Note_off_c, 0, 60, 64
3, 69216, Note_on_c, 0, 59, 92
3, 69312, Note_on_c, 0, 53, 92
3, 69504, Note_off_c, 0, 53, 64
3, 69504, Note_off_c, 0, 59, 64
3, 69504, Note_on_c, 0, 60, 92
3, 69504, Note_on_c, 0, 55, 92
3, 69696, Note_off_c, 0, 55, 64
3, 69696, Note_off_c, 0, 60, 64
3, 69696, Note_on_c, 0, 62, 92
3, 69696, Note_on_c, 0, 50, 92
3, 69888, Note_off_c, 0, 50, 64
3, 69888, Note_off_c, 0, 62, 64
3, 69888, Note_on_c, 0, 60, 92
3, 69888, Note_on_c, 0, 51, 92
3, 70080, Note_off_c, 0, 51, 64
3, 70080, Note_off_c, 0, 60, 64
3, 71232, Note_on_c, 0, 57, 92
3, 71424, Note_off_c, 0, 57, 64
3, 71424, Note_on_c, 0, 55, 92
3, 71616, Note_off_c, 0, 55, 64
3, 71616, Note_on_c, 0, 57, 92
3, 71808, Note_off_c, 0, 57, 64
3, 72000, Note_on_c, 0, 67, 92
3, 72000, Note_on_c, 0, 55, 92
3, 72096, Note_off_c, 0, 67, 64
3, 72096, Note_on_c, 0, 65, 92
3, 72192, Note_off_c, 0, 65, 64
3, 72192, Note_on_c, 0, 64, 92
3, 72288, Note_off_c, 0, 55, 64
3, 72288, Note_on_c, 0, 54, 92
3, 72384, Note_off_c, 0, 54, 64
3, 72384, Note_on_c, 0, 55, 92
3, 72480, Note_off_c, 0, 55, 64
3, 72480, Note_on_c, 0, 54, 92
3, 72576, Note_off_c, 0, 54, 64
3, 72576, Note_on_c, 0, 55, 92
3, 72768, Note_off_c, 0, 55, 64
3, 72768, Note_off_c, 0, 64, 64
3, 73536, Note_on_c, 0, 50, 92
3, 73536, Note_on_c, 0, 57, 92
3, 73536, Note_on_c, 0, 62, 92
3, 73728, Note_off_c, 0, 62, 64
3, 73728, Note_off_c, 0, 57, 64
3, 73728, Note_off_c, 0, 50, 64
3, 73728, Note_on_c, 0, 62, 92
3, 73728, Note_on_c, 0, 55, 92
3, 73728, Note_on_c, 0, 50, 92
3, 75264, Note_off_c, 0, 50, 64
3, 75264, Note_off_c, 0, 55, 64
3, 75264, Note_off_c, 0, 62, 64
3, 90432, Note_on_c, 0, 62, 92
3, 90624, Note_off_c, 0, 62, 64
3, 90624, Note_on_c, 0, 58, 92
3, 90720, Note_off_c, 0, 58, 64
3, 90720, Note_on_c, 0, 60, 92
3, 90816, Note_off_c, 0, 60, 64
3, 90816, Note_on_c, 0, 57, 92
3, 90912, Note_off_c, 0, 57, 64
3, 90912, Note_on_c, 0, 58, 92
3, 91008, Note_off_c, 0, 58, 64
3, 91008, Note_on_c, 0, 55, 92
3, 91200, Note_off_c, 0, 55, 64
3, 91200, Note_on_c, 0, 67, 92
3, 91392, Note_off_c, 0, 67, 64
3, 91392, Note_on_c, 0, 66, 92
3, 91488, Note_off_c, 0, 66, 64
3, 91488, Note_on_c, 0, 67, 92
3, 91584, Note_off_c, 0, 67, 64
3, 91584, Note_on_c, 0, 64, 92
3, 91680, Note_off_c, 0, 64, 64
3, 91680, Note_on_c, 0, 66, 92
3, 91776, Note_off_c, 0, 66, 64
3, 91776, Note_on_c, 0, 62, 92
3, 91968, Note_off_c, 0, 62, 64
3, 91968, Note_on_c, 0, 67, 92
3, 92064, Note_off_c, 0, 67, 64
3, 92064, Note_on_c, 0, 62, 92
3, 92160, Note_off_c, 0, 62, 64
3, 92160, Note_on_c, 0, 63, 92
3, 92352, Note_off_c, 0, 63, 64
3, 92352, Note_on_c, 0, 60, 92
3, 92544, Note_off_c, 0, 60, 64
3, 92544, Note_on_c, 0, 53, 92
3, 92736, Note_off_c, 0, 53, 64
3, 92736, Note_on_c, 0, 65, 92
3, 92928, Note_off_c, 0, 65, 64
3, 92928, Note_on_c, 0, 62, 92
3, 93024, Note_off_c, 0, 62, 64
3, 93024, Note_on_c, 0, 63, 92
3, 93120, Note_off_c, 0, 63, 64
3, 93120, Note_on_c, 0, 60, 92
3, 93216, Note_off_c, 0, 60, 64
3, 93216, Note_on_c, 0, 62, 92
3, 93312, Note_off_c, 0, 62, 64
3, 93312, Note_on_c, 0, 58, 92
3, 93504, Note_off_c, 0, 58, 64
3, 93504, Note_on_c, 0, 63, 92
3, 93600, Note_off_c, 0, 63, 64
3, 93600, Note_on_c, 0, 58, 92
3, 93696, Note_off_c, 0, 58, 64
3, 93696, Note_on_c, 0, 60, 92
3, 93888, Note_off_c, 0, 60, 64
3, 93888, Note_on_c, 0, 57, 92
3, 94080, Note_off_c, 0, 57, 64
3, 94080, Note_on_c, 0, 50, 92
3, 94272, Note_off_c, 0, 50, 64
3, 94272, Note_on_c, 0, 62, 92
3, 94464, Note_off_c, 0, 62, 64
3, 94464, Note_on_c, 0, 58, 92
3, 94560, Note_off_c, 0, 58, 64
3, 94560, Note_on_c, 0, 60, 92
3, 94656, Note_off_c, 0, 60, 64
3, 94656, Note_on_c, 0, 57, 92
3, 94752, Note_off_c, 0, 57, 64
3, 94752, Note_on_c, 0, 58, 92
3, 94848, Note_off_c, 0, 58, 64
3, 94848, Note_on_c, 0, 55, 92
3, 94944, Note_off_c, 0, 55, 64
3, 94944, Note_on_c, 0, 57, 92
3, 95040, Note_off_c, 0, 57, 64
3, 95040, Note_on_c, 0, 58, 92
3, 95136, Note_off_c, 0, 58, 64
3, 95136, Note_on_c, 0, 60, 92
3, 95232, Note_off_c, 0, 60, 64
3, 95232, Note_on_c, 0, 62, 92
3, 95328, Note_off_c, 0, 62, 64
3, 95328, Note_on_c, 0, 63, 92
3, 95424, Note_off_c, 0, 63, 64
3, 95424, Note_on_c, 0, 60, 92
3, 95520, Note_off_c, 0, 60, 64
3, 95520, Note_on_c, 0, 62, 92
3, 95616, Note_off_c, 0, 62, 64
3, 95616, Note_on_c, 0, 58, 92
3, 95712, Note_off_c, 0, 58, 64
3, 95712, Note_on_c, 0, 60, 92
3, 95808, Note_off_c, 0, 60, 64
3, 95808, Note_on_c, 0, 62, 92
3, 95904, Note_off_c, 0, 62, 64
3, 95904, Note_on_c, 0, 63, 92
3, 96000, Note_off_c, 0, 63, 64
3, 96000, Note_on_c, 0, 65, 92
3, 96096, Note_off_c, 0, 65, 64
3, 96096, Note_on_c, 0, 67, 92
3, 96192, Note_off_c, 0, 67, 64
3, 96192, Note_on_c, 0, 63, 92
3, 96288, Note_off_c, 0, 63, 64
3, 96288, Note_on_c, 0, 65, 92
3, 96384, Note_off_c, 0, 65, 64
3, 96384, Note_on_c, 0, 62, 92
3, 96480, Note_off_c, 0, 62, 64
3, 96480, Note_on_c, 0, 65, 92
3, 96576, Note_off_c, 0, 65, 64
3, 96576, Note_on_c, 0, 63, 92
3, 96672, Note_off_c, 0, 63, 64
3, 96672, Note_on_c, 0, 62, 92
3, 96768, Note_off_c, 0, 62, 64
3, 96768, Note_on_c, 0, 60, 92
3, 96864, Note_off_c, 0, 60, 64
3, 96864, Note_on_c, 0, 62, 92
3, 96960, Note_off_c, 0, 62, 64
3, 96960, Note_on_c, 0, 58, 92
3, 97056, Note_off_c, 0, 58, 64
3, 97056, Note_on_c, 0, 60, 92
3, 97152, Note_off_c, 0, 60, 64
3, 97152, Note_on_c, 0, 57, 92
3, 97248, Note_off_c, 0, 57, 64
3, 97248, Note_on_c, 0, 58, 92
3, 97344, Note_off_c, 0, 58, 64
3, 97344, Note_on_c, 0, 60, 92
3, 97440, Note_off_c, 0, 60, 64
3, 97440, Note_on_c, 0, 62, 92
3, 97536, Note_off_c, 0, 62, 64
3, 97536, Note_on_c, 0, 58, 92
3, 97632, Note_off_c, 0, 58, 64
3, 97632, Note_on_c, 0, 60, 92
3, 97728, Note_off_c, 0, 60, 64
3, 97728, Note_on_c, 0, 57, 92
3, 97824, Note_off_c, 0, 57, 64
3, 97824, Note_on_c, 0, 58, 92
3, 97920, Note_off_c, 0, 58, 64
3, 97920, Note_on_c, 0, 55, 92
3, 98016, Note_off_c, 0, 55, 64
3, 98016, Note_on_c, 0, 57, 92
3, 98112, Note_off_c, 0, 57, 64
3, 98112, Note_on_c, 0, 58, 92
3, 98208, Note_off_c, 0, 58, 64
3, 98208, Note_on_c, 0, 60, 92
3, 98304, Note_off_c, 0, 60, 64
3, 98304, Note_on_c, 0, 62, 92
3, 98496, Note_off_c, 0, 62, 64
3, 98496, Note_on_c, 0, 64, 92
3, 98688, Note_off_c, 0, 64, 64
3, 98688, Note_on_c, 0, 65, 92
3, 98784, Note_off_c, 0, 65, 64
3, 98784, Note_on_c, 0, 67, 92
3, 98880, Note_off_c, 0, 67, 64
3, 98880, Note_on_c, 0, 65, 92
3, 98976, Note_off_c, 0, 65, 64
3, 98976, Note_on_c, 0, 67, 92
3, 99072, Note_off_c, 0, 67, 64
3, 99072, Note_on_c, 0, 69, 92
3, 99264, Note_off_c, 0, 69, 64
3, 99264, Note_on_c, 0, 64, 92
3, 99456, Note_off_c, 0, 64, 64
3, 99456, Note_on_c, 0, 65, 92
3, 100224, Note_off_c, 0, 65, 64
3, 100224, Note_on_c, 0, 64, 92
3, 100992, Note_off_c, 0, 64, 64
3, 100992, Note_on_c, 0, 62, 92
3, 101760, Note_off_c, 0, 62, 64
3, 101760, Note_on_c, 0, 61, 92
3, 102144, Note_off_c, 0, 61, 64
3, 102144, Note_on_c, 0, 62, 92
3, 102528, Note_off_c, 0, 62, 64
3, 102624, Note_on_c, 0, 65, 92
3, 102720, Note_off_c, 0, 65, 64
3, 102720, Note_on_c, 0, 63, 92
3, 102816, Note_off_c, 0, 63, 64
3, 102816, Note_on_c, 0, 65, 92
3, 102912, Note_off_c, 0, 65, 64
3, 102912, Note_on_c, 0, 62, 92
3, 103008, Note_off_c, 0, 62, 64
3, 103008, Note_on_c, 0, 63, 92
3, 103104, Note_off_c, 0, 63, 64
3, 103104, Note_on_c, 0, 60, 92
3, 103200, Note_off_c, 0, 60, 64
3, 103200, Note_on_c, 0, 62, 92
3, 103296, Note_off_c, 0, 62, 64
3, 103296, Note_on_c, 0, 58, 92
3, 103488, Note_off_c, 0, 58, 64
3, 103488, Note_on_c, 0, 62, 92
3, 103680, Note_off_c, 0, 62, 64
3, 103680, Note_on_c, 0, 55, 92
3, 104064, Note_off_c, 0, 55, 64
3, 104160, Note_on_c, 0, 63, 92
3, 104256, Note_off_c, 0, 63, 64
3, 104256, Note_on_c, 0, 62, 92
3, 104352, Note_off_c, 0, 62, 64
3, 104352, Note_on_c, 0, 63, 92
3, 104448, Note_off_c, 0, 63, 64
3, 104448, Note_on_c, 0, 60, 92
3, 104544, Note_off_c, 0, 60, 64
3, 104544, Note_on_c, 0, 62, 92
3, 104640, Note_off_c, 0, 62, 64
3, 104640, Note_on_c, 0, 58, 92
3, 104736, Note_off_c, 0, 58, 64
3, 104736, Note_on_c, 0, 60, 92
3, 104832, Note_off_c, 0, 60, 64
3, 104832, Note_on_c, 0, 57, 92
3, 105024, Note_off_c, 0, 57, 64
3, 105024, Note_on_c, 0, 60, 92
3, 105216, Note_off_c, 0, 60, 64
3, 105216, Note_on_c, 0, 53, 92
3, 105600, Note_off_c, 0, 53, 64
3, 105696, Note_on_c, 0, 62, 92
3, 105792, Note_off_c, 0, 62, 64
3, 105792, Note_on_c, 0, 60, 92
3, 105888, Note_off_c, 0, 60, 64
3, 105888, Note_on_c, 0, 62, 92
3, 105984, Note_off_c, 0, 62, 64
3, 105984, Note_on_c, 0, 58, 92
3, 106080, Note_off_c, 0, 58, 64
3, 106080, Note_on_c, 0, 62, 92
3, 106176, Note_off_c, 0, 62, 64
3, 106176, Note_on_c, 0, 60, 92
3, 106272, Note_off_c, 0, 60, 64
3, 106272, Note_on_c, 0, 62, 92
3, 106368, Note_off_c, 0, 62, 64
3, 106368, Note_on_c, 0, 63, 92
3, 106848, Note_off_c, 0, 63, 64
3, 106848, Note_on_c, 0, 67, 92
3, 106944, Note_off_c, 0, 67, 64
3, 106944, Note_on_c, 0, 66, 92
3, 107040, Note_off_c, 0, 66, 64
3, 107040, Note_on_c, 0, 67, 92
3, 107136, Note_off_c, 0, 67, 64
3, 107136, Note_on_c, 0, 69, 92
3, 107232, Note_off_c, 0, 69, 64
3, 107232, Note_on_c, 0, 67, 92
3, 107328, Note_off_c, 0, 67, 64
3, 107328, Note_on_c, 0, 69, 92
3, 107424, Note_off_c, 0, 69, 64
3, 107424, Note_on_c, 0, 66, 92
3, 107520, Note_off_c, 0, 66, 64
3, 107520, Note_on_c, 0, 67, 92
3, 107712, Note_off_c, 0, 67, 64
3, 107712, Note_on_c, 0, 62, 92
3, 107904, Note_off_c, 0, 62, 64
3, 107904, Note_on_c, 0, 60, 92
3, 108000, Note_off_c, 0, 60, 64
3, 108000, Note_on_c, 0, 63, 92
3, 108096, Note_off_c, 0, 63, 64
3, 108096, Note_on_c, 0, 57, 92
3, 108192, Note_off_c, 0, 57, 64
3, 108192, Note_on_c, 0, 60, 92
3, 108288, Note_off_c, 0, 60, 64
3, 108288, Note_on_c, 0, 58, 92
3, 108384, Note_off_c, 0, 58, 64
3, 108384, Note_on_c, 0, 62, 92
3, 108480, Note_off_c, 0, 62, 64
3, 108480, Note_on_c, 0, 55, 92
3, 108576, Note_off_c, 0, 55, 64
3, 108576, Note_on_c, 0, 58, 92
3, 108672, Note_off_c, 0, 58, 64
3, 108672, Note_on_c, 0, 57, 92
3, 108768, Note_off_c, 0, 57, 64
3, 108768, Note_on_c, 0, 60, 92
3, 108864, Note_off_c, 0, 60, 64
3, 108864, Note_on_c, 0, 54, 92
3, 108960, Note_off_c, 0, 54, 64
3, 108960, Note_on_c, 0, 57, 92
3, 109056, Note_off_c, 0, 57, 64
3, 109056, Note_on_c, 0, 55, 92
3, 109632, Note_off_c, 0, 55, 64
3, 109632, Note_on_c, 0, 63, 92
3, 109824, Note_off_c, 0, 63, 64
3, 109824, Note_on_c, 0, 62, 92
3, 110016, Note_off_c, 0, 62, 64
3, 110016, Note_on_c, 0, 60, 92
3, 110208, Note_off_c, 0, 60, 64
3, 110208, Note_on_c, 0, 58, 92
3, 110400, Note_off_c, 0, 58, 64
3, 110400, Note_on_c, 0, 55, 92
3, 110592, Note_off_c, 0, 55, 64
3, 110592, Note_on_c, 0, 60, 92
3, 110688, Note_off_c, 0, 60, 64
3, 110688, Note_on_c, 0, 62, 92
3, 110784, Note_off_c, 0, 62, 64
3, 110784, Note_on_c, 0, 63, 92
3, 111072, Note_off_c, 0, 63, 64
3, 111072, Note_on_c, 0, 63, 92
3, 111168, Note_off_c, 0, 63, 64
3, 111168, Note_on_c, 0, 62, 92
3, 111264, Note_off_c, 0, 62, 64
3, 111264, Note_on_c, 0, 60, 92
3, 111360, Note_off_c, 0, 60, 64
3, 111360, Note_on_c, 0, 58, 92
3, 111456, Note_off_c, 0, 58, 64
3, 111456, Note_on_c, 0, 60, 92
3, 111552, Note_off_c, 0, 60, 64
3, 111552, Note_on_c, 0, 62, 92
3, 111840, Note_off_c, 0, 62, 64
3, 111840, Note_on_c, 0, 62, 92
3, 111936, Note_off_c, 0, 62, 64
3, 111936, Note_on_c, 0, 60, 92
3, 112032, Note_off_c, 0, 60, 64
3, 112032, Note_on_c, 0, 58, 92
3, 112128, Note_off_c, 0, 58, 64
3, 112128, Note_on_c, 0, 57, 92
3, 112224, Note_off_c, 0, 57, 64
3, 112224, Note_on_c, 0, 58, 92
3, 112320, Note_off_c, 0, 58, 64
3, 112320, Note_on_c, 0, 60, 92
3, 112608, Note_off_c, 0, 60, 64
3, 112608, Note_on_c, 0, 60, 92
3, 112704, Note_off_c, 0, 60, 64
3, 112704, Note_on_c, 0, 58, 92
3, 112800, Note_off_c, 0, 58, 64
3, 112800, Note_on_c, 0, 57, 92
3, 112896, Note_off_c, 0, 57, 64
3, 112896, Note_on_c, 0, 55, 92
3, 113088, Note_off_c, 0, 55, 64
3, 113088, Note_on_c, 0, 57, 92
3, 113280, Note_off_c, 0, 57, 64
3, 113280, Note_on_c, 0, 58, 92
3, 113472, Note_off_c, 0, 58, 64
3, 113472, Note_on_c, 0, 57, 92
3, 113568, Note_off_c, 0, 57, 64
3, 113568, Note_on_c, 0, 55, 92
3, 113664, Note_off_c, 0, 55, 64
3, 113664, Note_on_c, 0, 57, 92
3, 114240, Note_off_c, 0, 57, 64
3, 114240, Note_on_c, 0, 50, 92
3, 114432, Note_off_c, 0, 50, 64
3, 114432, Note_on_c, 0, 52, 92
3, 114624, Note_off_c, 0, 52, 64
3, 114624, Note_on_c, 0, 57, 92
3, 114816, Note_off_c, 0, 57, 64
3, 114816, Note_on_c, 0, 50, 92
3, 115008, Note_off_c, 0, 50, 64
3, 115008, Note_on_c, 0, 53, 92
3, 115200, Note_off_c, 0, 53, 64
3, 115200, Note_on_c, 0, 55, 92
3, 115296, Note_off_c, 0, 55, 64
3, 115296, Note_on_c, 0, 57, 92
3, 115392, Note_off_c, 0, 57, 64
3, 115392, Note_on_c, 0, 58, 92
3, 115680, Note_off_c, 0, 58, 64
3, 115680, Note_on_c, 0, 58, 92
3, 115776, Note_off_c, 0, 58, 64
3, 115776, Note_on_c, 0, 57, 92
3, 115872, Note_off_c, 0, 57, 64
3, 115872, Note_on_c, 0, 55, 92
3, 115968, Note_off_c, 0, 55, 64
3, 115968, Note_on_c, 0, 53, 92
3, 116064, Note_off_c, 0, 53, 64
3, 116064, Note_on_c, 0, 55, 92
3, 116160, Note_off_c, 0, 55, 64
3, 116160, Note_on_c, 0, 57, 92
3, 116448, Note_off_c, 0, 57, 64
3, 116448, Note_on_c, 0, 57, 92
3, 116544, Note_off_c, 0, 57, 64
3, 116544, Note_on_c, 0, 55, 92
3, 116640, Note_off_c, 0, 55, 64
3, 116640, Note_on_c, 0, 53, 92
3, 116736, Note_off_c, 0, 53, 64
3, 116736, Note_on_c, 0, 52, 92
3, 116832, Note_off_c, 0, 52, 64
3, 116832, Note_on_c, 0, 53, 92
3, 116928, Note_off_c, 0, 53, 64
3, 116928, Note_on_c, 0, 55, 92
3, 117216, Note_off_c, 0, 55, 64
3, 117216, Note_on_c, 0, 55, 92
3, 117312, Note_off_c, 0, 55, 64
3, 117312, Note_on_c, 0, 53, 92
3, 117408, Note_off_c, 0, 53, 64
3, 117408, Note_on_c, 0, 52, 92
3, 117504, Note_off_c, 0, 52, 64
3, 117504, Note_on_c, 0, 50, 92
3, 117696, Note_off_c, 0, 50, 64
3, 117696, Note_on_c, 0, 53, 92
3, 117888, Note_off_c, 0, 53, 64
3, 117888, Note_on_c, 0, 58, 92
3, 118656, Note_off_c, 0, 58, 64
3, 118656, Note_on_c, 0, 57, 92
3, 119424, Note_off_c, 0, 57, 64
3, 119424, Note_on_c, 0, 55, 92
3, 120192, Note_off_c, 0, 55, 64
3, 120192, Note_on_c, 0, 54, 92
3, 120576, Note_off_c, 0, 54, 64
3, 120576, Note_on_c, 0, 55, 92
3, 120960, Note_off_c, 0, 55, 64
3, 121344, Note_on_c, 0, 57, 92
3, 121440, Note_off_c, 0, 57, 64
3, 121440, Note_on_c, 0, 58, 92
3, 121536, Note_off_c, 0, 58, 64
3, 121536, Note_on_c, 0, 55, 92
3, 121632, Note_off_c, 0, 55, 64
3, 121632, Note_on_c, 0, 57, 92
3, 121728, Note_off_c, 0, 57, 64
3, 121728, Note_on_c, 0, 58, 92
3, 122496, Note_off_c, 0, 58, 64
3, 122496, Note_on_c, 0, 57, 92
3, 123264, Note_off_c, 0, 57, 64
3, 123264, Note_on_c, 0, 55, 92
3, 124032, Note_off_c, 0, 55, 64
3, 124032, Note_on_c, 0, 54, 92
3, 124416, Note_off_c, 0, 54, 64
3, 124416, Note_on_c, 0, 55, 92
3, 124608, Note_off_c, 0, 55, 64
3, 124608, Note_on_c, 0, 57, 92
3, 124800, Note_off_c, 0, 57, 64
3, 124800, Note_on_c, 0, 58, 92
3, 124896, Note_off_c, 0, 58, 64
3, 124896, Note_on_c, 0, 60, 92
3, 124992, Note_off_c, 0, 60, 64
3, 124992, Note_on_c, 0, 58, 92
3, 125088, Note_off_c, 0, 58, 64
3, 125088, Note_on_c, 0, 60, 92
3, 125184, Note_off_c, 0, 60, 64
3, 125184, Note_on_c, 0, 57, 92
3, 125280, Note_off_c, 0, 57, 64
3, 125280, Note_on_c, 0, 58, 92
3, 125376, Note_off_c, 0, 58, 64
3, 125376, Note_on_c, 0, 55, 92
3, 125472, Note_off_c, 0, 55, 64
3, 125472, Note_on_c, 0, 57, 92
3, 125568, Note_off_c, 0, 57, 64
3, 125568, Note_on_c, 0, 58, 92
3, 125664, Note_off_c, 0, 58, 64
3, 125664, Note_on_c, 0, 60, 92
3, 125760, Note_off_c, 0, 60, 64
3, 125760, Note_on_c, 0, 62, 92
3, 125856, Note_off_c, 0, 62, 64
3, 125856, Note_on_c, 0, 63, 92
3, 125952, Note_off_c, 0, 63, 64
3, 125952, Note_on_c, 0, 60, 92
3, 126048, Note_off_c, 0, 60, 64
3, 126048, Note_on_c, 0, 62, 92
3, 126144, Note_off_c, 0, 62, 64
3, 126144, Note_on_c, 0, 58, 92
3, 126240, Note_off_c, 0, 58, 64
3, 126240, Note_on_c, 0, 60, 92
3, 126336, Note_off_c, 0, 60, 64
3, 126336, Note_on_c, 0, 57, 92
3, 126432, Note_off_c, 0, 57, 64
3, 126432, Note_on_c, 0, 58, 92
3, 126528, Note_off_c, 0, 58, 64
3, 126528, Note_on_c, 0, 60, 92
3, 126624, Note_off_c, 0, 60, 64
3, 126624, Note_on_c, 0, 62, 92
3, 126720, Note_off_c, 0, 62, 64
3, 126720, Note_on_c, 0, 58, 92
3, 127584, Note_off_c, 0, 58, 64
3, 127584, Note_on_c, 0, 60, 92
3, 127680, Note_off_c, 0, 60, 64
3, 127680, Note_on_c, 0, 57, 92
3, 127776, Note_off_c, 0, 57, 64
3, 127776, Note_on_c, 0, 58, 92
3, 127872, Note_off_c, 0, 58, 64
3, 127872, Note_on_c, 0, 55, 92
3, 127968, Note_off_c, 0, 55, 64
3, 127968, Note_on_c, 0, 57, 92
3, 128064, Note_off_c, 0, 57, 64
3, 128064, Note_on_c, 0, 58, 92
3, 128160, Note_off_c, 0, 58, 64
3, 128160, Note_on_c, 0, 60, 92
3, 128256, Note_off_c, 0, 60, 64
3, 128256, Note_on_c, 0, 57, 92
3, 129120, Note_off_c, 0, 57, 64
3, 129120, Note_on_c, 0, 58, 92
3, 129216, Note_off_c, 0, 58, 64
3, 129216, Note_on_c, 0, 55, 92
3, 129312, Note_off_c, 0, 55, 64
3, 129312, Note_on_c, 0, 57, 92
3, 129408, Note_off_c, 0, 57, 64
3, 129408, Note_on_c, 0, 53, 92
3, 129504, Note_off_c, 0, 53, 64
3, 129504, Note_on_c, 0, 55, 92
3, 129600, Note_off_c, 0, 55, 64
3, 129600, Note_on_c, 0, 57, 92
3, 129696, Note_off_c, 0, 57, 64
3, 129696, Note_on_c, 0, 53, 92
3, 129792, Note_off_c, 0, 53, 64
3, 129792, Note_on_c, 0, 58, 92
3, 129984, Note_off_c, 0, 58, 64
3, 129984, Note_on_c, 0, 60, 92
3, 130176, Note_off_c, 0, 60, 64
3, 131904, Note_on_c, 0, 53, 92
3, 132096, Note_off_c, 0, 53, 64
3, 132096, Note_on_c, 0, 50, 92
3, 132192, Note_off_c, 0, 50, 64
3, 132192, Note_on_c, 0, 51, 92
3, 132288, Note_off_c, 0, 51, 64
3, 132288, Note_on_c, 0, 48, 92
3, 132384, Note_off_c, 0, 48, 64
3, 132384, Note_on_c, 0, 50, 92
3, 132480, Note_off_c, 0, 50, 64
3, 132480, Note_on_c, 0, 46, 92
3, 132672, Note_off_c, 0, 46, 64
3, 132672, Note_on_c, 0, 58, 92
3, 132864, Note_off_c, 0, 58, 64
3, 132864, Note_on_c, 0, 57, 92
3, 132960, Note_off_c, 0, 57, 64
3, 132960, Note_on_c, 0, 58, 92
3, 133056, Note_off_c, 0, 58, 64
3, 133056, Note_on_c, 0, 55, 92
3, 133152, Note_off_c, 0, 55, 64
3, 133152, Note_on_c, 0, 57, 92
3, 133248, Note_off_c, 0, 57, 64
3, 133248, Note_on_c, 0, 53, 92
3, 133440, Note_off_c, 0, 53, 64
3, 133440, Note_on_c, 0, 58, 92
3, 133536, Note_off_c, 0, 58, 64
3, 133536, Note_on_c, 0, 53, 92
3, 133632, Note_off_c, 0, 53, 64
3, 133632, Note_on_c, 0, 55, 92
3, 133824, Note_off_c, 0, 55, 64
3, 133824, Note_on_c, 0, 51, 92
3, 134016, Note_off_c, 0, 51, 64
3, 134016, Note_on_c, 0, 45, 92
3, 134208, Note_off_c, 0, 45, 64
3, 134208, Note_on_c, 0, 57, 92
3, 134400, Note_off_c, 0, 57, 64
3, 134400, Note_on_c, 0, 53, 92
3, 134496, Note_off_c, 0, 53, 64
3, 134496, Note_on_c, 0, 55, 92
3, 134592, Note_off_c, 0, 55, 64
3, 134592, Note_on_c, 0, 51, 92
3, 134688, Note_off_c, 0, 51, 64
3, 134688, Note_on_c, 0, 53, 92
3, 134784, Note_off_c, 0, 53, 64
3, 134784, Note_on_c, 0, 50, 92
3, 134976, Note_off_c, 0, 50, 64
3, 134976, Note_on_c, 0, 55, 92
3, 135072, Note_off_c, 0, 55, 64
3, 135072, Note_on_c, 0, 50, 92
3, 135168, Note_off_c, 0, 50, 64
3, 135168, Note_on_c, 0, 51, 92
3, 135360, Note_off_c, 0, 51, 64
3, 135360, Note_on_c, 0, 48, 92
3, 135552, Note_off_c, 0, 48, 64
3, 135552, Note_on_c, 0, 41, 92
3, 135744, Note_off_c, 0, 41, 64
3, 135744, Note_on_c, 0, 53, 92
3, 135936, Note_off_c, 0, 53, 64
3, 135936, Note_on_c, 0, 50, 92
3, 136032, Note_off_c, 0, 50, 64
3, 136032, Note_on_c, 0, 51, 92
3, 136128, Note_off_c, 0, 51, 64
3, 136128, Note_on_c, 0, 48, 92
3, 136224, Note_off_c, 0, 48, 64
3, 136224, Note_on_c, 0, 50, 92
3, 136320, Note_off_c, 0, 50, 64
3, 136320, Note_on_c, 0, 46, 92
3, 136416, Note_off_c, 0, 46, 64
3, 136416, Note_on_c, 0, 48, 92
3, 136512, Note_off_c, 0, 48, 64
3, 136512, Note_on_c, 0, 50, 92
3, 136608, Note_off_c, 0, 50, 64
3, 136608, Note_on_c, 0, 51, 92
3, 136704, Note_off_c, 0, 51, 64
3, 136704, Note_on_c, 0, 53, 92
3, 136800, Note_off_c, 0, 53, 64
3, 136800, Note_on_c, 0, 55, 92
3, 136896, Note_off_c, 0, 55, 64
3, 136896, Note_on_c, 0, 51, 92
3, 136992, Note_off_c, 0, 51, 64
3, 136992, Note_on_c, 0, 53, 92
3, 137088, Note_off_c, 0, 53, 64
3, 137088, Note_on_c, 0, 50, 92
3, 137184, Note_off_c, 0, 50, 64
3, 137184, Note_on_c, 0, 51, 92
3, 137280, Note_off_c, 0, 51, 64
3, 137280, Note_on_c, 0, 53, 92
3, 137376, Note_off_c, 0, 53, 64
3, 137376, Note_on_c, 0, 55, 92
3, 137472, Note_off_c, 0, 55, 64
3, 137472, Note_on_c, 0, 48, 92
3, 137568, Note_off_c, 0, 48, 64
3, 137568, Note_on_c, 0, 50, 92
3, 137664, Note_off_c, 0, 50, 64
3, 137664, Note_on_c, 0, 46, 92
3, 137760, Note_off_c, 0, 46, 64
3, 137760, Note_on_c, 0, 48, 92
3, 137856, Note_off_c, 0, 48, 64
3, 137856, Note_on_c, 0, 45, 92
3, 137952, Note_off_c, 0, 45, 64
3, 137952, Note_on_c, 0, 46, 92
3, 138048, Note_off_c, 0, 46, 64
3, 138048, Note_on_c, 0, 48, 92
3, 138144, Note_off_c, 0, 48, 64
3, 138144, Note_on_c, 0, 50, 92
3, 138240, Note_off_c, 0, 50, 64
3, 138240, Note_on_c, 0, 43, 92
3, 138336, Note_off_c, 0, 43, 64
3, 138336, Note_on_c, 0, 45, 92
3, 138432, Note_off_c, 0, 45, 64
3, 138432, Note_on_c, 0, 41, 92
3, 138528, Note_off_c, 0, 41, 64
3, 138528, Note_on_c, 0, 43, 92
3, 138624, Note_off_c, 0, 43, 64
3, 138624, Note_on_c, 0, 40, 92
3, 138720, Note_off_c, 0, 40, 64
3, 138720, Note_on_c, 0, 41, 92
3, 138816, Note_off_c, 0, 41, 64
3, 138816, Note_on_c, 0, 43, 92
3, 138912, Note_off_c, 0, 43, 64
3, 138912, Note_on_c, 0, 45, 92
3, 139008, Note_off_c, 0, 45, 64
3, 139008, Note_on_c, 0, 38, 92
3, 139104, Note_off_c, 0, 38, 64
3, 139104, Note_on_c, 0, 50, 92
3, 139200, Note_off_c, 0, 50, 64
3, 139200, Note_on_c, 0, 48, 92
3, 139296, Note_off_c, 0, 48, 64
3, 139296, Note_on_c, 0, 50, 92
3, 139392, Note_off_c, 0, 50, 64
3, 139392, Note_on_c, 0, 47, 92
3, 139488, Note_off_c, 0, 47, 64
3, 139488, Note_on_c, 0, 48, 92
3, 139584, Note_off_c, 0, 48, 64
3, 139584, Note_on_c, 0, 50, 92
3, 139680, Note_off_c, 0, 50, 64
3, 139680, Note_on_c, 0, 52, 92
3, 139776, Note_off_c, 0, 52, 64
3, 139776, Note_on_c, 0, 45, 92
3, 139968, Note_off_c, 0, 45, 64
3, 139968, Note_on_c, 0, 57, 92
3, 140160, Note_off_c, 0, 57, 64
3, 140160, Note_on_c, 0, 58, 92
3, 140352, Note_off_c, 0, 58, 64
3, 140352, Note_on_c, 0, 50, 92
3, 140544, Note_off_c, 0, 50, 64
3, 140544, Note_on_c, 0, 52, 92
3, 140736, Note_off_c, 0, 52, 64
3, 140736, Note_on_c, 0, 55, 92
3, 140928, Note_off_c, 0, 55, 64
3, 140928, Note_on_c, 0, 57, 92
3, 141120, Note_off_c, 0, 57, 64
3, 141120, Note_on_c, 0, 45, 92
3, 141312, Note_off_c, 0, 45, 64
3, 141312, Note_on_c, 0, 50, 92
3, 141504, Note_off_c, 0, 50, 64
3, 143232, Note_on_c, 0, 53, 92
3, 143328, Note_off_c, 0, 53, 64
3, 143328, Note_on_c, 0, 57, 92
3, 143424, Note_off_c, 0, 57, 64
3, 143424, Note_on_c, 0, 50, 92
3, 143520, Note_off_c, 0, 50, 64
3, 143520, Note_on_c, 0, 53, 92
3, 143616, Note_off_c, 0, 53, 64
3, 143616, Note_on_c, 0, 45, 92
3, 143712, Note_off_c, 0, 45, 64
3, 143712, Note_on_c, 0, 49, 92
3, 143808, Note_off_c, 0, 49, 64
3, 143808, Note_on_c, 0, 52, 92
3, 143904, Note_off_c, 0, 52, 64
3, 143904, Note_on_c, 0, 55, 92
3, 144000, Note_off_c, 0, 55, 64
3, 144000, Note_on_c, 0, 53, 92
3, 144096, Note_off_c, 0, 53, 64
3, 144096, Note_on_c, 0, 57, 92
3, 144192, Note_off_c, 0, 57, 64
3, 144192, Note_on_c, 0, 50, 92
3, 144288, Note_off_c, 0, 50, 64
3, 144288, Note_on_c, 0, 53, 92
3, 144384, Note_off_c, 0, 53, 64
3, 144384, Note_on_c, 0, 43, 92
3, 144480, Note_off_c, 0, 43, 64
3, 144480, Note_on_c, 0, 46, 92
3, 144576, Note_off_c, 0, 46, 64
3, 144576, Note_on_c, 0, 50, 92
3, 144672, Note_off_c, 0, 50, 64
3, 144672, Note_on_c, 0, 53, 92
3, 144768, Note_off_c, 0, 53, 64
3, 144768, Note_on_c, 0, 52, 92
3, 144864, Note_off_c, 0, 52, 64
3, 144864, Note_on_c, 0, 55, 92
3, 144960, Note_off_c, 0, 55, 64
3, 144960, Note_on_c, 0, 48, 92
3, 145056, Note_off_c, 0, 48, 64
3, 145056, Note_on_c, 0, 52, 92
3, 145152, Note_off_c, 0, 52, 64
3, 145152, Note_on_c, 0, 41, 92
3, 145248, Note_off_c, 0, 41, 64
3, 145248, Note_on_c, 0, 45, 92
3, 145344, Note_off_c, 0, 45, 64
3, 145344, Note_on_c, 0, 48, 92
3, 145440, Note_off_c, 0, 48, 64
3, 145440, Note_on_c, 0, 52, 92
3, 145536, Note_off_c, 0, 52, 64
3, 145536, Note_on_c, 0, 50, 92
3, 145632, Note_off_c, 0, 50, 64
3, 145632, Note_on_c, 0, 53, 92
3, 145728, Note_off_c, 0, 53, 64
3, 145728, Note_on_c, 0, 46, 92
3, 145824, Note_off_c, 0, 46, 64
3, 145824, Note_on_c, 0, 50, 92
3, 145920, Note_off_c, 0, 50, 64
3, 145920, Note_on_c, 0, 40, 92
3, 146016, Note_off_c, 0, 40, 64
3, 146016, Note_on_c, 0, 43, 92
3, 146112, Note_off_c, 0, 43, 64
3, 146112, Note_on_c, 0, 46, 92
3, 146208, Note_off_c, 0, 46, 64
3, 146208, Note_on_c, 0, 50, 92
3, 146304, Note_off_c, 0, 50, 64
3, 146304, Note_on_c, 0, 49, 92
3, 146400, Note_off_c, 0, 49, 64
3, 146400, Note_on_c, 0, 52, 92
3, 146496, Note_off_c, 0, 52, 64
3, 146496, Note_on_c, 0, 45, 92
3, 146592, Note_off_c, 0, 45, 64
3, 146592, Note_on_c, 0, 49, 92
3, 146688, Note_off_c, 0, 49, 64
3, 146688, Note_on_c, 0, 38, 92
3, 146880, Note_off_c, 0, 38, 64
3, 146880, Note_on_c, 0, 40, 92
3, 147072, Note_off_c, 0, 40, 64
3, 147072, Note_on_c, 0, 41, 92
3, 147264, Note_off_c, 0, 41, 64
3, 147264, Note_on_c, 0, 38, 92
3, 147456, Note_off_c, 0, 38, 64
3, 147456, Note_on_c, 0, 45, 92
3, 147648, Note_off_c, 0, 45, 64
3, 147648, Note_on_c, 0, 47, 92
3, 147840, Note_off_c, 0, 47, 64
3, 147840, Note_on_c, 0, 49, 92
3, 148032, Note_off_c, 0, 49, 64
3, 148032, Note_on_c, 0, 45, 92
3, 148224, Note_off_c, 0, 45, 64
3, 148224, Note_on_c, 0, 50, 92
3, 148416, Note_off_c, 0, 50, 64
3, 148416, Note_on_c, 0, 52, 92
3, 148608, Note_off_c, 0, 52, 64
3, 148608, Note_on_c, 0, 53, 92
3, 148800, Note_off_c, 0, 53, 64
3, 148800, Note_on_c, 0, 50, 92
3, 148992, Note_off_c, 0, 50, 64
3, 148992, Note_on_c, 0, 55, 92
3, 149184, Note_off_c, 0, 55, 64
3, 149184, Note_on_c, 0, 57, 92
3, 149376, Note_off_c, 0, 57, 64
3, 149376, Note_on_c, 0, 58, 92
3, 149568, Note_off_c, 0, 58, 64
3, 149568, Note_on_c, 0, 55, 92
3, 149760, Note_off_c, 0, 55, 64
3, 149760, Note_on_c, 0, 60, 92
3, 149952, Note_off_c, 0, 60, 64
3, 149952, Note_on_c, 0, 62, 92
3, 150144, Note_off_c, 0, 62, 64
3, 150144, Note_on_c, 0, 64, 92
3, 150336, Note_off_c, 0, 64, 64
3, 150336, Note_on_c, 0, 60, 92
3, 150528, Note_off_c, 0, 60, 64
3, 150528, Note_on_c, 0, 65, 92
3, 150720, Note_off_c, 0, 65, 64
3, 150720, Note_on_c, 0, 67, 92
3, 150912, Note_off_c, 0, 67, 64
3, 150912, Note_on_c, 0, 69, 92
3, 151104, Note_off_c, 0, 69, 64
3, 151104, Note_on_c, 0, 65, 92
3, 151296, Note_off_c, 0, 65, 64
3, 151296, Note_on_c, 0, 70, 92
3, 151392, Note_off_c, 0, 70, 64
3, 151392, Note_on_c, 0, 72, 92
3, 151488, Note_off_c, 0, 72, 64
3, 151488, Note_on_c, 0, 69, 92
3, 151584, Note_off_c, 0, 69, 64
3, 151584, Note_on_c, 0, 70, 92
3, 151680, Note_off_c, 0, 70, 64
3, 151680, Note_on_c, 0, 67, 92
3, 151776, Note_off_c, 0, 67, 64
3, 151776, Note_on_c, 0, 69, 92
3, 151872, Note_off_c, 0, 69, 64
3, 151872, Note_on_c, 0, 65, 92
3, 151968, Note_off_c, 0, 65, 64
3, 151968, Note_on_c, 0, 67, 92
3, 152064, Note_off_c, 0, 67, 64
3, 152064, Note_on_c, 0, 64, 92
3, 152160, Note_off_c, 0, 64, 64
3, 152160, Note_on_c, 0, 65, 92
3, 152256, Note_off_c, 0, 65, 64
3, 152256, Note_on_c, 0, 62, 92
3, 152352, Note_off_c, 0, 62, 64
3, 152352, Note_on_c, 0, 64, 92
3, 152448, Note_off_c, 0, 64, 64
3, 152448, Note_on_c, 0, 61, 92
3, 152544, Note_off_c, 0, 61, 64
3, 152544, Note_on_c, 0, 62, 92
3, 152640, Note_off_c, 0, 62, 64
3, 152640, Note_on_c, 0, 59, 92
3, 152736, Note_off_c, 0, 59, 64
3, 152736, Note_on_c, 0, 61, 92
3, 152832, Note_off_c, 0, 61, 64
3, 152832, Note_on_c, 0, 57, 92
3, 152928, Note_off_c, 0, 57, 64
3, 152928, Note_on_c, 0, 58, 92
3, 153024, Note_off_c, 0, 58, 64
3, 153024, Note_on_c, 0, 55, 92
3, 153120, Note_off_c, 0, 55, 64
3, 153120, Note_on_c, 0, 57, 92
3, 153216, Note_off_c, 0, 57, 64
3, 153216, Note_on_c, 0, 53, 92
3, 153312, Note_off_c, 0, 53, 64
3, 153312, Note_on_c, 0, 55, 92
3, 153408, Note_off_c, 0, 55, 64
3, 153408, Note_on_c, 0, 52, 92
3, 153504, Note_off_c, 0, 52, 64
3, 153504, Note_on_c, 0, 55, 92
3, 153600, Note_off_c, 0, 55, 64
3, 153600, Note_on_c, 0, 53, 92
3, 153696, Note_off_c, 0, 53, 64
3, 153696, Note_on_c, 0, 55, 92
3, 153792, Note_off_c, 0, 55, 64
3, 153792, Note_on_c, 0, 52, 92
3, 153888, Note_off_c, 0, 52, 64
3, 153888, Note_on_c, 0, 53, 92
3, 153984, Note_off_c, 0, 53, 64
3, 153984, Note_on_c, 0, 50, 92
3, 154176, Note_off_c, 0, 50, 64
3, 154176, Note_on_c, 0, 62, 92
3, 154368, Note_off_c, 0, 62, 64
3, 154368, Note_on_c, 0, 61, 92
3, 154464, Note_off_c, 0, 61, 64
3, 154464, Note_on_c, 0, 62, 92
3, 154560, Note_off_c, 0, 62, 64
3, 154560, Note_on_c, 0, 59, 92
3, 154656, Note_off_c, 0, 59, 64
3, 154656, Note_on_c, 0, 61, 92
3, 154752, Note_off_c, 0, 61, 64
3, 154752, Note_on_c, 0, 57, 92
3, 154944, Note_off_c, 0, 57, 64
3, 154944, Note_on_c, 0, 62, 92
3, 155040, Note_off_c, 0, 62, 64
3, 155040, Note_on_c, 0, 57, 92
3, 155136, Note_off_c, 0, 57, 64
3, 155136, Note_on_c, 0, 58, 92
3, 155328, Note_off_c, 0, 58, 64
3, 155328, Note_on_c, 0, 55, 92
3, 155520, Note_off_c, 0, 55, 64
3, 155520, Note_on_c, 0, 48, 92
3, 155712, Note_off_c, 0, 48, 64
3, 155712, Note_on_c, 0, 60, 92
3, 155904, Note_off_c, 0, 60, 64
3, 155904, Note_on_c, 0, 57, 92
3, 156000, Note_off_c, 0, 57, 64
3, 156000, Note_on_c, 0, 58, 92
3, 156096, Note_off_c, 0, 58, 64
3, 156096, Note_on_c, 0, 55, 92
3, 156192, Note_off_c, 0, 55, 64
3, 156192, Note_on_c, 0, 57, 92
3, 156288, Note_off_c, 0, 57, 64
3, 156288, Note_on_c, 0, 53, 92
3, 156480, Note_off_c, 0, 53, 64
3, 156480, Note_on_c, 0, 58, 92
3, 156576, Note_off_c, 0, 58, 64
3, 156576, Note_on_c, 0, 53, 92
3, 156672, Note_off_c, 0, 53, 64
3, 156672, Note_on_c, 0, 55, 92
3, 156864, Note_off_c, 0, 55, 64
3, 156864, Note_on_c, 0, 52, 92
3, 157056, Note_off_c, 0, 52, 64
3, 157056, Note_on_c, 0, 45, 92
3, 157248, Note_off_c, 0, 45, 64
3, 157248, Note_on_c, 0, 57, 92
3, 157440, Note_off_c, 0, 57, 64
3, 157440, Note_on_c, 0, 53, 92
3, 157536, Note_off_c, 0, 53, 64
3, 157536, Note_on_c, 0, 55, 92
3, 157632, Note_off_c, 0, 55, 64
3, 157632, Note_on_c, 0, 52, 92
3, 157728, Note_off_c, 0, 52, 64
3, 157728, Note_on_c, 0, 53, 92
3, 157824, Note_off_c, 0, 53, 64
3, 157824, Note_on_c, 0, 50, 92
3, 158016, Note_off_c, 0, 50, 64
3, 158016, Note_on_c, 0, 53, 92
3, 158208, Note_off_c, 0, 53, 64
3, 158208, Note_on_c, 0, 55, 92
3, 158304, Note_off_c, 0, 55, 64
3, 158304, Note_on_c, 0, 58, 92
3, 158400, Note_off_c, 0, 58, 64
3, 158400, Note_on_c, 0, 50, 92
3, 158496, Note_off_c, 0, 50, 64
3, 158496, Note_on_c, 0, 55, 92
3, 158592, Note_off_c, 0, 55, 64
3, 158592, Note_on_c, 0, 46, 92
3, 158688, Note_off_c, 0, 46, 64
3, 158688, Note_on_c, 0, 50, 92
3, 158784, Note_off_c, 0, 50, 64
3, 158784, Note_on_c, 0, 43, 92
3, 158880, Note_off_c, 0, 43, 64
3, 158880, Note_on_c, 0, 50, 92
3, 158976, Note_off_c, 0, 50, 64
3, 158976, Note_on_c, 0, 52, 92
3, 159072, Note_off_c, 0, 52, 64
3, 159072, Note_on_c, 0, 53, 92
3, 159168, Note_off_c, 0, 53, 64
3, 159168, Note_on_c, 0, 50, 92
3, 159264, Note_off_c, 0, 50, 64
3, 159264, Note_on_c, 0, 52, 92
3, 159360, Note_off_c, 0, 52, 64
3, 159360, Note_on_c, 0, 48, 92
3, 159552, Note_off_c, 0, 48, 64
3, 159552, Note_on_c, 0, 52, 92
3, 159744, Note_off_c, 0, 52, 64
3, 159744, Note_on_c, 0, 53, 92
3, 159936, Note_off_c, 0, 53, 64
3, 159936, Note_on_c, 0, 55, 92
3, 160128, Note_off_c, 0, 55, 64
3, 160128, Note_on_c, 0, 57, 92
3, 160224, Note_off_c, 0, 57, 64
3, 160224, Note_on_c, 0, 58, 92
3, 160320, Note_off_c, 0, 58, 64
3, 160320, Note_on_c, 0, 57, 92
3, 160416, Note_off_c, 0, 57, 64
3, 160416, Note_on_c, 0, 58, 92
3, 160512, Note_off_c, 0, 58, 64
3, 160512, Note_on_c, 0, 60, 92
3, 160608, Note_off_c, 0, 60, 64
3, 160608, Note_on_c, 0, 62, 92
3, 160704, Note_off_c, 0, 62, 64
3, 160704, Note_on_c, 0, 58, 92
3, 160800, Note_off_c, 0, 58, 64
3, 160800, Note_on_c, 0, 60, 92
3, 160896, Note_off_c, 0, 60, 64
3, 160896, Note_on_c, 0, 57, 92
3, 161088, Note_off_c, 0, 57, 64
3, 161088, Note_on_c, 0, 69, 92
3, 161664, Note_off_c, 0, 69, 64
3, 161664, Note_on_c, 0, 67, 92
3, 162432, Note_off_c, 0, 67, 64
3, 162432, Note_on_c, 0, 65, 92
3, 163200, Note_off_c, 0, 65, 64
3, 163200, Note_on_c, 0, 64, 92
3, 163584, Note_off_c, 0, 64, 64
3, 163776, Note_on_c, 0, 60, 92
3, 163968, Note_off_c, 0, 60, 64
3, 163968, Note_on_c, 0, 65, 92
3, 164160, Note_off_c, 0, 65, 64
3, 164160, Note_on_c, 0, 64, 92
3, 164352, Note_off_c, 0, 64, 64
3, 164352, Note_on_c, 0, 65, 92
3, 164736, Note_off_c, 0, 65, 64
3, 164928, Note_on_c, 0, 58, 92
3, 165120, Note_off_c, 0, 58, 64
3, 165120, Note_on_c, 0, 60, 92
3, 165216, Note_off_c, 0, 60, 64
3, 165216, Note_on_c, 0, 67, 92
3, 165312, Note_off_c, 0, 67, 64
3, 165312, Note_on_c, 0, 55, 92
3, 165408, Note_off_c, 0, 55, 64
3, 165408, Note_on_c, 0, 67, 92
3, 165504, Note_off_c, 0, 67, 64
3, 165504, Note_on_c, 0, 55, 92
3, 165600, Note_off_c, 0, 55, 64
3, 165600, Note_on_c, 0, 67, 92
3, 165696, Note_off_c, 0, 67, 64
3, 165696, Note_on_c, 0, 55, 92
3, 165792, Note_off_c, 0, 55, 64
3, 165792, Note_on_c, 0, 67, 92
3, 165888, Note_off_c, 0, 67, 64
3, 165888, Note_on_c, 0, 55, 92
3, 166080, Note_off_c, 0, 55, 64
3, 166080, Note_on_c, 0, 67, 92
3, 166272, Note_off_c, 0, 67, 64
3, 166272, Note_on_c, 0, 72, 92
3, 166464, Note_off_c, 0, 72, 64
3, 166464, Note_on_c, 0, 71, 92
3, 166656, Note_off_c, 0, 71, 64
3, 166656, Note_on_c, 0, 72, 92
3, 167040, Note_off_c, 0, 72, 64
3, 167232, Note_on_c, 0, 65, 92
3, 167424, Note_off_c, 0, 65, 64
3, 167424, Note_on_c, 0, 67, 92
3, 167520, Note_off_c, 0, 67, 64
3, 167520, Note_on_c, 0, 74, 92
3, 167616, Note_off_c, 0, 74, 64
3, 167616, Note_on_c, 0, 62, 92
3, 167712, Note_off_c, 0, 62, 64
3, 167712, Note_on_c, 0, 74, 92
3, 167808, Note_off_c, 0, 74, 64
3, 167808, Note_on_c, 0, 62, 92
3, 167904, Note_off_c, 0, 62, 64
3, 167904, Note_on_c, 0, 74, 92
3, 168000, Note_off_c, 0, 74, 64
3, 168000, Note_on_c, 0, 62, 92
3, 168096, Note_off_c, 0, 62, 64
3, 168096, Note_on_c, 0, 74, 92
3, 168192, Note_off_c, 0, 74, 64
3, 168192, Note_on_c, 0, 62, 92
3, 168384, Note_off_c, 0, 62, 64
3, 168384, Note_on_c, 0, 60, 92
3, 168576, Note_off_c, 0, 60, 64
3, 168576, Note_on_c, 0, 58, 92
3, 168768, Note_off_c, 0, 58, 64
3, 168768, Note_on_c, 0, 60, 92
3, 168960, Note_off_c, 0, 60, 64
3, 168960, Note_on_c, 0, 62, 92
3, 169056, Note_off_c, 0, 62, 64
3, 169056, Note_on_c, 0, 74, 92
3, 169152, Note_off_c, 0, 74, 64
3, 169152, Note_on_c, 0, 72, 92
3, 169248, Note_off_c, 0, 72, 64
3, 169248, Note_on_c, 0, 75, 92
3, 169344, Note_off_c, 0, 75, 64
3, 169344, Note_on_c, 0, 74, 92
3, 169440, Note_off_c, 0, 74, 64
3, 169440, Note_on_c, 0, 75, 92
3, 169536, Note_off_c, 0, 75, 64
3, 169536, Note_on_c, 0, 72, 92
3, 169632, Note_off_c, 0, 72, 64
3, 169632, Note_on_c, 0, 74, 92
3, 169728, Note_off_c, 0, 74, 64
3, 169728, Note_on_c, 0, 70, 92
3, 169824, Note_off_c, 0, 70, 64
3, 169824, Note_on_c, 0, 72, 92
3, 169920, Note_off_c, 0, 72, 64
3, 169920, Note_on_c, 0, 69, 92
3, 170016, Note_off_c, 0, 69, 64
3, 170016, Note_on_c, 0, 72, 92
3, 170112, Note_off_c, 0, 72, 64
3, 170112, Note_on_c, 0, 70, 92
3, 170208, Note_off_c, 0, 70, 64
3, 170208, Note_on_c, 0, 72, 92
3, 170304, Note_off_c, 0, 72, 64
3, 170304, Note_on_c, 0, 69, 92
3, 170400, Note_off_c, 0, 69, 64
3, 170400, Note_on_c, 0, 70, 92
3, 170496, Note_off_c, 0, 70, 64
3, 170496, Note_on_c, 0, 67, 92
3, 170592, Note_off_c, 0, 67, 64
3, 170592, Note_on_c, 0, 69, 92
3, 170688, Note_off_c, 0, 69, 64
3, 170688, Note_on_c, 0, 65, 92
3, 170784, Note_off_c, 0, 65, 64
3, 170784, Note_on_c, 0, 69, 92
3, 170880, Note_off_c, 0, 69, 64
3, 170880, Note_on_c, 0, 67, 92
3, 170976, Note_off_c, 0, 67, 64
3, 170976, Note_on_c, 0, 69, 92
3, 171072, Note_off_c, 0, 69, 64
3, 171072, Note_on_c, 0, 65, 92
3, 171168, Note_off_c, 0, 65, 64
3, 171168, Note_on_c, 0, 67, 92
3, 171264, Note_off_c, 0, 67, 64
3, 171264, Note_on_c, 0, 63, 92
3, 171360, Note_off_c, 0, 63, 64
3, 171360, Note_on_c, 0, 65, 92
3, 171456, Note_off_c, 0, 65, 64
3, 171456, Note_on_c, 0, 62, 92
3, 171552, Note_off_c, 0, 62, 64
3, 171552, Note_on_c, 0, 65, 92
3, 171648, Note_off_c, 0, 65, 64
3, 171648, Note_on_c, 0, 63, 92
3, 171744, Note_off_c, 0, 63, 64
3, 171744, Note_on_c, 0, 65, 92
3, 171840, Note_off_c, 0, 65, 64
3, 171840, Note_on_c, 0, 62, 92
3, 171936, Note_off_c, 0, 62, 64
3, 171936, Note_on_c, 0, 63, 92
3, 172032, Note_off_c, 0, 63, 64
3, 172032, Note_on_c, 0, 60, 92
3, 172128, Note_off_c, 0, 60, 64
3, 172128, Note_on_c, 0, 62, 92
3, 172224, Note_off_c, 0, 62, 64
3, 172224, Note_on_c, 0, 58, 92
3, 172320, Note_off_c, 0, 58, 64
3, 172320, Note_on_c, 0, 60, 92
3, 172416, Note_off_c, 0, 60, 64
3, 172416, Note_on_c, 0, 57, 92
3, 172512, Note_off_c, 0, 57, 64
3, 172512, Note_on_c, 0, 60, 92
3, 172608, Note_off_c, 0, 60, 64
3, 172608, Note_on_c, 0, 54, 92
3, 172704, Note_off_c, 0, 54, 64
3, 172704, Note_on_c, 0, 57, 92
3, 172800, Note_off_c, 0, 57, 64
3, 172800, Note_on_c, 0, 55, 92
3, 172896, Note_off_c, 0, 55, 64
3, 172896, Note_on_c, 0, 58, 92
3, 172992, Note_off_c, 0, 58, 64
3, 172992, Note_on_c, 0, 50, 92
3, 173088, Note_off_c, 0, 50, 64
3, 173088, Note_on_c, 0, 55, 92
3, 173184, Note_off_c, 0, 55, 64
3, 173184, Note_on_c, 0, 46, 92
3, 173280, Note_off_c, 0, 46, 64
3, 173280, Note_on_c, 0, 50, 92
3, 173376, Note_off_c, 0, 50, 64
3, 173376, Note_on_c, 0, 43, 92
3, 173472, Note_off_c, 0, 43, 64
3, 173472, Note_on_c, 0, 48, 92
3, 173568, Note_off_c, 0, 48, 64
3, 173568, Note_on_c, 0, 50, 92
3, 173664, Note_off_c, 0, 50, 64
3, 173664, Note_on_c, 0, 45, 92
3, 173760, Note_off_c, 0, 45, 64
3, 173760, Note_on_c, 0, 52, 92
3, 173856, Note_off_c, 0, 52, 64
3, 173856, Note_on_c, 0, 45, 92
3, 173952, Note_off_c, 0, 45, 64
3, 173952, Note_on_c, 0, 54, 92
3, 174048, Note_off_c, 0, 54, 64
3, 174048, Note_on_c, 0, 55, 92
3, 174144, Note_off_c, 0, 55, 64
3, 174144, Note_on_c, 0, 52, 92
3, 174240, Note_off_c, 0, 52, 64
3, 174240, Note_on_c, 0, 54, 92
3, 174336, Note_off_c, 0, 54, 64
3, 174336, Note_on_c, 0, 55, 92
3, 174432, Note_off_c, 0, 55, 64
3, 174432, Note_on_c, 0, 50, 92
3, 174528, Note_off_c, 0, 50, 64
3, 174528, Note_on_c, 0, 57, 92
3, 174624, Note_off_c, 0, 57, 64
3, 174624, Note_on_c, 0, 50, 92
3, 174720, Note_off_c, 0, 50, 64
3, 174720, Note_on_c, 0, 58, 92
3, 174816, Note_off_c, 0, 58, 64
3, 174816, Note_on_c, 0, 50, 92
3, 174912, Note_off_c, 0, 50, 64
3, 174912, Note_on_c, 0, 60, 92
3, 175008, Note_off_c, 0, 60, 64
3, 175008, Note_on_c, 0, 50, 92
3, 175104, Note_off_c, 0, 50, 64
3, 175680, Note_on_c, 0, 62, 92
3, 175872, Note_off_c, 0, 62, 64
3, 175872, Note_on_c, 0, 58, 92
3, 175968, Note_off_c, 0, 58, 64
3, 175968, Note_on_c, 0, 60, 92
3, 176064, Note_off_c, 0, 60, 64
3, 176064, Note_on_c, 0, 57, 92
3, 176160, Note_off_c, 0, 57, 64
3, 176160, Note_on_c, 0, 58, 92
3, 176256, Note_off_c, 0, 58, 64
3, 176256, Note_on_c, 0, 55, 92
3, 176448, Note_off_c, 0, 55, 64
3, 176448, Note_on_c, 0, 67, 92
3, 176544, Note_on_c, 0, 61, 92
3, 176640, Note_off_c, 0, 61, 64
3, 176640, Note_off_c, 0, 67, 64
3, 176640, Note_on_c, 0, 62, 92
3, 176640, Note_on_c, 0, 66, 92
3, 176736, Note_off_c, 0, 66, 64
3, 176736, Note_on_c, 0, 67, 92
3, 176832, Note_off_c, 0, 67, 64
3, 176832, Note_on_c, 0, 64, 92
3, 176928, Note_off_c, 0, 64, 64
3, 176928, Note_on_c, 0, 66, 92
3, 177024, Note_off_c, 0, 66, 64
3, 177024, Note_off_c, 0, 62, 64
3, 177024, Note_on_c, 0, 62, 92
3, 177216, Note_off_c, 0, 62, 64
3, 177216, Note_on_c, 0, 67, 92
3, 177312, Note_off_c, 0, 67, 64
3, 177312, Note_on_c, 0, 62, 92
3, 177408, Note_off_c, 0, 62, 64
3, 177408, Note_on_c, 0, 63, 92
3, 177600, Note_off_c, 0, 63, 64
3, 177600, Note_on_c, 0, 60, 92
3, 177792, Note_off_c, 0, 60, 64
3, 177792, Note_on_c, 0, 53, 92
3, 177984, Note_off_c, 0, 53, 64
3, 177984, Note_on_c, 0, 65, 92
3, 178176, Note_off_c, 0, 65, 64
3, 178176, Note_on_c, 0, 62, 92
3, 178272, Note_off_c, 0, 62, 64
3, 178272, Note_on_c, 0, 63, 92
3, 178368, Note_off_c, 0, 63, 64
3, 178368, Note_on_c, 0, 60, 92
3, 178464, Note_off_c, 0, 60, 64
3, 178464, Note_on_c, 0, 62, 92
3, 178560, Note_off_c, 0, 62, 64
3, 178560, Note_on_c, 0, 58, 92
3, 178752, Note_off_c, 0, 58, 64
3, 178752, Note_on_c, 0, 63, 92
3, 178848, Note_off_c, 0, 63, 64
3, 178848, Note_on_c, 0, 58, 92
3, 178944, Note_off_c, 0, 58, 64
3, 178944, Note_on_c, 0, 60, 92
3, 179136, Note_off_c, 0, 60, 64
3, 179136, Note_on_c, 0, 57, 92
3, 179328, Note_off_c, 0, 57, 64
3, 179328, Note_on_c, 0, 50, 92
3, 179520, Note_off_c, 0, 50, 64
3, 179520, Note_on_c, 0, 62, 92
3, 179712, Note_off_c, 0, 62, 64
3, 179712, Note_on_c, 0, 58, 92
3, 179808, Note_off_c, 0, 58, 64
3, 179808, Note_on_c, 0, 60, 92
3, 179904, Note_off_c, 0, 60, 64
3, 179904, Note_on_c, 0, 57, 92
3, 180000, Note_off_c, 0, 57, 64
3, 180000, Note_on_c, 0, 58, 92
3, 180096, Note_off_c, 0, 58, 64
3, 180096, Note_on_c, 0, 55, 92
3, 180192, Note_off_c, 0, 55, 64
3, 180192, Note_on_c, 0, 58, 92
3, 180288, Note_off_c, 0, 58, 64
3, 180288, Note_on_c, 0, 57, 92
3, 180384, Note_off_c, 0, 57, 64
3, 180384, Note_on_c, 0, 60, 92
3, 180480, Note_off_c, 0, 60, 64
3, 180480, Note_on_c, 0, 58, 92
3, 180576, Note_off_c, 0, 58, 64
3, 180576, Note_on_c, 0, 60, 92
3, 180672, Note_off_c, 0, 60, 64
3, 180672, Note_on_c, 0, 57, 92
3, 180768, Note_off_c, 0, 57, 64
3, 180768, Note_on_c, 0, 58, 92
3, 180864, Note_off_c, 0, 58, 64
3, 180864, Note_on_c, 0, 55, 92
3, 180960, Note_off_c, 0, 55, 64
3, 180960, Note_on_c, 0, 58, 92
3, 181056, Note_off_c, 0, 58, 64
3, 181056, Note_on_c, 0, 57, 92
3, 181152, Note_off_c, 0, 57, 64
3, 181152, Note_on_c, 0, 60, 92
3, 181248, Note_off_c, 0, 60, 64
3, 181248, Note_on_c, 0, 58, 92
3, 181344, Note_off_c, 0, 58, 64
3, 181344, Note_on_c, 0, 60, 92
3, 181440, Note_off_c, 0, 60, 64
3, 181440, Note_on_c, 0, 57, 92
3, 181536, Note_off_c, 0, 57, 64
3, 181536, Note_on_c, 0, 58, 92
3, 181632, Note_off_c, 0, 58, 64
3, 181632, Note_on_c, 0, 55, 92
3, 181728, Note_off_c, 0, 55, 64
3, 181728, Note_on_c, 0, 58, 92
3, 181824, Note_off_c, 0, 58, 64
3, 181824, Note_on_c, 0, 57, 92
3, 181920, Note_off_c, 0, 57, 64
3, 181920, Note_on_c, 0, 60, 92
3, 182016, Note_off_c, 0, 60, 64
3, 182016, Note_on_c, 0, 58, 92
3, 182112, Note_off_c, 0, 58, 64
3, 182112, Note_on_c, 0, 62, 92
3, 182208, Note_off_c, 0, 62, 64
3, 182208, Note_on_c, 0, 60, 92
3, 182304, Note_off_c, 0, 60, 64
3, 182304, Note_on_c, 0, 63, 92
3, 182400, Note_off_c, 0, 63, 64
3, 182400, Note_on_c, 0, 62, 92
3, 182496, Note_off_c, 0, 62, 64
3, 182496, Note_on_c, 0, 65, 92
3, 182592, Note_off_c, 0, 65, 64
3, 182592, Note_on_c, 0, 63, 92
3, 182688, Note_off_c, 0, 63, 64
3, 182688, Note_on_c, 0, 62, 92
3, 182784, Note_off_c, 0, 62, 64
3, 182784, Note_on_c, 0, 60, 92
3, 182880, Note_off_c, 0, 60, 64
3, 182880, Note_on_c, 0, 62, 92
3, 182976, Note_off_c, 0, 62, 64
3, 182976, Note_on_c, 0, 59, 92
3, 183072, Note_off_c, 0, 59, 64
3, 183072, Note_on_c, 0, 62, 92
3, 183168, Note_off_c, 0, 62, 64
3, 183168, Note_on_c, 0, 60, 92
3, 183264, Note_off_c, 0, 60, 64
3, 183264, Note_on_c, 0, 63, 92
3, 183360, Note_off_c, 0, 63, 64
3, 183360, Note_on_c, 0, 62, 92
3, 183456, Note_off_c, 0, 62, 64
3, 183456, Note_on_c, 0, 65, 92
3, 183552, Note_off_c, 0, 65, 64
3, 183552, Note_on_c, 0, 63, 92
3, 183648, Note_off_c, 0, 63, 64
3, 183648, Note_on_c, 0, 65, 92
3, 183744, Note_off_c, 0, 65, 64
3, 183744, Note_on_c, 0, 62, 92
3, 183840, Note_off_c, 0, 62, 64
3, 183840, Note_on_c, 0, 63, 92
3, 183936, Note_off_c, 0, 63, 64
3, 183936, Note_on_c, 0, 60, 92
3, 184032, Note_off_c, 0, 60, 64
3, 184032, Note_on_c, 0, 63, 92
3, 184128, Note_off_c, 0, 63, 64
3, 184128, Note_on_c, 0, 62, 92
3, 184224, Note_off_c, 0, 62, 64
3, 184224, Note_on_c, 0, 65, 92
3, 184320, Note_off_c, 0, 65, 64
3, 184320, Note_on_c, 0, 63, 92
3, 184416, Note_off_c, 0, 63, 64
3, 184416, Note_on_c, 0, 65, 92
3, 184512, Note_off_c, 0, 65, 64
3, 184512, Note_on_c, 0, 62, 92
3, 184608, Note_off_c, 0, 62, 64
3, 184608, Note_on_c, 0, 63, 92
3, 184704, Note_off_c, 0, 63, 64
3, 184704, Note_on_c, 0, 60, 92
3, 184800, Note_off_c, 0, 60, 64
3, 184800, Note_on_c, 0, 63, 92
3, 184896, Note_off_c, 0, 63, 64
3, 184896, Note_on_c, 0, 62, 92
3, 184992, Note_off_c, 0, 62, 64
3, 184992, Note_on_c, 0, 65, 92
3, 185088, Note_off_c, 0, 65, 64
3, 185088, Note_on_c, 0, 63, 92
3, 185184, Note_off_c, 0, 63, 64
3, 185184, Note_on_c, 0, 62, 92
3, 185280, Note_off_c, 0, 62, 64
3, 185280, Note_on_c, 0, 63, 92
3, 185376, Note_off_c, 0, 63, 64
3, 185376, Note_on_c, 0, 67, 92
3, 185472, Note_off_c, 0, 67, 64
3, 185472, Note_on_c, 0, 68, 92
3, 185568, Note_off_c, 0, 68, 64
3, 185568, Note_on_c, 0, 67, 92
3, 185664, Note_off_c, 0, 67, 64
3, 185664, Note_on_c, 0, 65, 92
3, 185760, Note_off_c, 0, 65, 64
3, 185760, Note_on_c, 0, 63, 92
3, 185856, Note_off_c, 0, 63, 64
3, 185856, Note_on_c, 0, 62, 92
3, 185952, Note_off_c, 0, 62, 64
3, 185952, Note_on_c, 0, 60, 92
3, 186048, Note_off_c, 0, 60, 64
3, 186048, Note_on_c, 0, 62, 92
3, 186144, Note_off_c, 0, 62, 64
3, 186144, Note_on_c, 0, 63, 92
3, 186240, Note_off_c, 0, 63, 64
3, 186240, Note_on_c, 0, 65, 92
3, 186336, Note_off_c, 0, 65, 64
3, 186336, Note_on_c, 0, 62, 92
3, 186432, Note_off_c, 0, 62, 64
3, 186432, Note_on_c, 0, 67, 92
3, 187104, Note_off_c, 0, 67, 64
3, 187104, Note_on_c, 0, 67, 92
3, 187200, Note_off_c, 0, 67, 64
3, 187200, Note_on_c, 0, 65, 92
3, 187296, Note_off_c, 0, 65, 64
3, 187296, Note_on_c, 0, 63, 92
3, 187392, Note_off_c, 0, 63, 64
3, 187392, Note_on_c, 0, 62, 92
3, 187488, Note_off_c, 0, 62, 64
3, 187488, Note_on_c, 0, 63, 92
3, 187584, Note_off_c, 0, 63, 64
3, 187584, Note_on_c, 0, 60, 92
3, 187680, Note_off_c, 0, 60, 64
3, 187680, Note_on_c, 0, 62, 92
3, 187776, Note_off_c, 0, 62, 64
3, 187776, Note_on_c, 0, 63, 92
3, 188544, Note_off_c, 0, 63, 64
3, 188544, Note_on_c, 0, 62, 92
3, 189312, Note_off_c, 0, 62, 64
3, 189312, Note_on_c, 0, 60, 92
3, 190080, Note_off_c, 0, 60, 64
3, 190080, Note_on_c, 0, 59, 92
3, 190464, Note_off_c, 0, 59, 64
3, 190464, Note_on_c, 0, 60, 92
3, 190848, Note_off_c, 0, 60, 64
3, 190944, Note_on_c, 0, 67, 92
3, 191040, Note_off_c, 0, 67, 64
3, 191040, Note_on_c, 0, 65, 92
3, 191136, Note_off_c, 0, 65, 64
3, 191136, Note_on_c, 0, 63, 92
3, 191232, Note_off_c, 0, 63, 64
3, 191232, Note_on_c, 0, 62, 92
3, 191712, Note_off_c, 0, 62, 64
3, 191712, Note_on_c, 0, 68, 92
3, 191808, Note_off_c, 0, 68, 64
3, 191808, Note_on_c, 0, 67, 92
3, 191904, Note_off_c, 0, 67, 64
3, 191904, Note_on_c, 0, 65, 92
3, 192000, Note_off_c, 0, 65, 64
3, 192000, Note_on_c, 0, 63, 92
3, 192096, Note_off_c, 0, 63, 64
3, 192096, Note_on_c, 0, 65, 92
3, 192192, Note_off_c, 0, 65, 64
3, 192192, Note_on_c, 0, 62, 92
3, 192288, Note_off_c, 0, 62, 64
3, 192288, Note_on_c, 0, 63, 92
3, 192384, Note_off_c, 0, 63, 64
3, 192384, Note_on_c, 0, 60, 92
3, 192480, Note_off_c, 0, 60, 64
3, 192480, Note_on_c, 0, 63, 92
3, 192576, Note_off_c, 0, 63, 64
3, 192576, Note_on_c, 0, 62, 92
3, 192672, Note_off_c, 0, 62, 64
3, 192672, Note_on_c, 0, 60, 92
3, 192768, Note_off_c, 0, 60, 64
3, 192768, Note_on_c, 0, 59, 92
3, 192864, Note_off_c, 0, 59, 64
3, 192864, Note_on_c, 0, 60, 92
3, 192960, Note_off_c, 0, 60, 64
3, 192960, Note_on_c, 0, 57, 92
3, 193056, Note_off_c, 0, 57, 64
3, 193056, Note_on_c, 0, 59, 92
3, 193152, Note_off_c, 0, 59, 64
3, 193152, Note_on_c, 0, 55, 92
3, 193248, Note_off_c, 0, 55, 64
3, 193248, Note_on_c, 0, 59, 92
3, 193344, Note_off_c, 0, 59, 64
3, 193344, Note_on_c, 0, 57, 92
3, 193440, Note_off_c, 0, 57, 64
3, 193440, Note_on_c, 0, 59, 92
3, 193536, Note_off_c, 0, 59, 64
3, 193536, Note_on_c, 0, 60, 92
3, 193632, Note_off_c, 0, 60, 64
3, 193632, Note_on_c, 0, 55, 92
3, 193728, Note_off_c, 0, 55, 64
3, 193728, Note_on_c, 0, 62, 92
3, 193824, Note_off_c, 0, 62, 64
3, 193824, Note_on_c, 0, 55, 92
3, 193920, Note_off_c, 0, 55, 64
3, 193920, Note_on_c, 0, 63, 92
3, 194016, Note_off_c, 0, 63, 64
3, 194016, Note_on_c, 0, 55, 92
3, 194112, Note_off_c, 0, 55, 64
3, 194112, Note_on_c, 0, 65, 92
3, 194208, Note_off_c, 0, 65, 64
3, 194208, Note_on_c, 0, 55, 92
3, 194304, Note_off_c, 0, 55, 64
3, 194304, Note_on_c, 0, 67, 92
3, 194400, Note_off_c, 0, 67, 64
3, 194400, Note_on_c, 0, 55, 92
3, 194496, Note_off_c, 0, 55, 64
3, 194496, Note_on_c, 0, 69, 92
3, 194592, Note_off_c, 0, 69, 64
3, 194592, Note_on_c, 0, 55, 92
3, 194688, Note_off_c, 0, 55, 64
3, 194688, Note_on_c, 0, 71, 92
3, 194784, Note_off_c, 0, 71, 64
3, 194784, Note_on_c, 0, 67, 92
3, 194880, Note_off_c, 0, 67, 64
3, 194880, Note_on_c, 0, 69, 92
3, 194976, Note_off_c, 0, 69, 64
3, 194976, Note_on_c, 0, 71, 92
3, 195072, Note_off_c, 0, 71, 64
3, 195072, Note_on_c, 0, 72, 92
3, 195552, Note_off_c, 0, 72, 64
3, 195552, Note_on_c, 0, 65, 92
3, 195648, Note_off_c, 0, 65, 64
3, 195648, Note_on_c, 0, 67, 92
3, 195744, Note_off_c, 0, 67, 64
3, 195744, Note_on_c, 0, 68, 92
3, 195840, Note_off_c, 0, 68, 64
3, 195840, Note_on_c, 0, 70, 92
3, 196320, Note_off_c, 0, 70, 64
3, 196320, Note_on_c, 0, 63, 92
3, 196416, Note_off_c, 0, 63, 64
3, 196416, Note_on_c, 0, 65, 92
3, 196512, Note_off_c, 0, 65, 64
3, 196512, Note_on_c, 0, 67, 92
3, 196608, Note_off_c, 0, 67, 64
3, 196608, Note_on_c, 0, 68, 92
3, 197472, Note_off_c, 0, 68, 64
3, 197472, Note_on_c, 0, 72, 92
3, 197568, Note_off_c, 0, 72, 64
3, 197568, Note_on_c, 0, 70, 92
3, 197664, Note_off_c, 0, 70, 64
3, 197664, Note_on_c, 0, 68, 92
3, 197760, Note_off_c, 0, 68, 64
3, 197760, Note_on_c, 0, 67, 92
3, 197856, Note_off_c, 0, 67, 64
3, 197856, Note_on_c, 0, 68, 92
3, 197952, Note_off_c, 0, 68, 64
3, 197952, Note_on_c, 0, 65, 92
3, 198048, Note_off_c, 0, 65, 64
3, 198048, Note_on_c, 0, 67, 92
3, 198144, Note_off_c, 0, 67, 64
3, 198144, Note_on_c, 0, 63, 92
3, 198240, Note_off_c, 0, 63, 64
3, 198240, Note_on_c, 0, 65, 92
3, 198336, Note_off_c, 0, 65, 64
3, 198336, Note_on_c, 0, 62, 92
3, 198432, Note_off_c, 0, 62, 64
3, 198432, Note_on_c, 0, 63, 92
3, 198528, Note_off_c, 0, 63, 64
3, 198528, Note_on_c, 0, 60, 92
3, 198720, Note_off_c, 0, 60, 64
3, 198720, Note_on_c, 0, 65, 92
3, 198912, Note_off_c, 0, 65, 64
3, 198912, Note_on_c, 0, 58, 92
3, 199008, Note_off_c, 0, 58, 64
3, 199008, Note_on_c, 0, 60, 92
3, 199104, Note_off_c, 0, 60, 64
3, 199104, Note_on_c, 0, 56, 92
3, 199200, Note_off_c, 0, 56, 64
3, 199200, Note_on_c, 0, 58, 92
3, 199296, Note_off_c, 0, 58, 64
3, 199296, Note_on_c, 0, 55, 92
3, 200064, Note_off_c, 0, 55, 64
3, 200064, Note_on_c, 0, 53, 92
3, 200832, Note_off_c, 0, 53, 64
3, 200832, Note_on_c, 0, 51, 92
3, 201600, Note_off_c, 0, 51, 64
3, 201600, Note_on_c, 0, 50, 92
3, 201984, Note_off_c, 0, 50, 64
3, 201984, Note_on_c, 0, 51, 92
3, 202176, Note_off_c, 0, 51, 64
3, 202176, Note_on_c, 0, 53, 92
3, 202368, Note_off_c, 0, 53, 64
3, 202368, Note_on_c, 0, 55, 92
3, 202560, Note_off_c, 0, 55, 64
3, 202560, Note_on_c, 0, 58, 92
3, 202752, Note_off_c, 0, 58, 64
3, 202752, Note_on_c, 0, 58, 92
3, 202944, Note_off_c, 0, 58, 64
3, 203712, Note_on_c, 0, 62, 92
3, 203904, Note_off_c, 0, 62, 64
3, 203904, Note_on_c, 0, 58, 92
3, 204096, Note_off_c, 0, 58, 64
3, 204096, Note_on_c, 0, 58, 92
3, 204288, Note_off_c, 0, 58, 64
3, 204288, Note_on_c, 0, 58, 92
3, 204480, Note_off_c, 0, 58, 64
3, 204480, Note_on_c, 0, 63, 92
3, 204672, Note_off_c, 0, 63, 64
3, 204672, Note_on_c, 0, 62, 92
3, 204864, Note_off_c, 0, 62, 64
3, 204864, Note_on_c, 0, 65, 92
3, 205056, Note_off_c, 0, 65, 64
3, 205056, Note_on_c, 0, 65, 92
3, 205248, Note_off_c, 0, 65, 64
3, 206016, Note_on_c, 0, 53, 92
3, 206208, Note_off_c, 0, 53, 64
3, 206208, Note_on_c, 0, 58, 92
3, 206400, Note_off_c, 0, 58, 64
3, 206400, Note_on_c, 0, 57, 92
3, 206592, Note_off_c, 0, 57, 64
3, 206592, Note_on_c, 0, 58, 92
3, 206784, Note_off_c, 0, 58, 64
3, 206784, Note_on_c, 0, 57, 92
3, 206976, Note_off_c, 0, 57, 64
3, 206976, Note_on_c, 0, 62, 92
3, 207168, Note_off_c, 0, 62, 64
3, 207168, Note_on_c, 0, 65, 92
3, 207360, Note_off_c, 0, 65, 64
3, 207360, Note_on_c, 0, 58, 92
3, 208128, Note_off_c, 0, 58, 64
3, 208128, Note_on_c, 0, 65, 92
3, 208320, Note_off_c, 0, 65, 64
3, 208320, Note_on_c, 0, 67, 92
3, 208512, Note_off_c, 0, 67, 64
3, 208512, Note_on_c, 0, 68, 92
3, 208704, Note_off_c, 0, 68, 64
3, 208704, Note_on_c, 0, 65, 92
3, 208896, Note_off_c, 0, 65, 64
3, 208896, Note_on_c, 0, 70, 92
3, 208992, Note_off_c, 0, 70, 64
3, 208992, Note_on_c, 0, 72, 92
3, 209088, Note_off_c, 0, 72, 64
3, 209088, Note_on_c, 0, 68, 92
3, 209184, Note_off_c, 0, 68, 64
3, 209184, Note_on_c, 0, 70, 92
3, 209280, Note_off_c, 0, 70, 64
3, 209280, Note_on_c, 0, 67, 92
3, 209376, Note_off_c, 0, 67, 64
3, 209376, Note_on_c, 0, 68, 92
3, 209472, Note_off_c, 0, 68, 64
3, 209472, Note_on_c, 0, 65, 92
3, 209568, Note_off_c, 0, 65, 64
3, 209568, Note_on_c, 0, 67, 92
3, 209664, Note_off_c, 0, 67, 64
3, 209664, Note_on_c, 0, 63, 92
3, 209856, Note_off_c, 0, 63, 64
3, 209856, Note_on_c, 0, 65, 92
3, 210048, Note_off_c, 0, 65, 64
3, 210048, Note_on_c, 0, 67, 92
3, 210240, Note_off_c, 0, 67, 64
3, 210240, Note_on_c, 0, 63, 92
3, 210432, Note_off_c, 0, 63, 64
3, 210432, Note_on_c, 0, 68, 92
3, 210528, Note_off_c, 0, 68, 64
3, 210528, Note_on_c, 0, 70, 92
3, 210624, Note_off_c, 0, 70, 64
3, 210624, Note_on_c, 0, 67, 92
3, 210720, Note_off_c, 0, 67, 64
3, 210720, Note_on_c, 0, 68, 92
3, 210816, Note_off_c, 0, 68, 64
3, 210816, Note_on_c, 0, 65, 92
3, 210912, Note_off_c, 0, 65, 64
3, 210912, Note_on_c, 0, 67, 92
3, 211008, Note_off_c, 0, 67, 64
3, 211008, Note_on_c, 0, 63, 92
3, 211104, Note_off_c, 0, 63, 64
3, 211104, Note_on_c, 0, 65, 92
3, 211200, Note_off_c, 0, 65, 64
3, 211200, Note_on_c, 0, 61, 92
3, 211392, Note_off_c, 0, 61, 64
3, 211392, Note_on_c, 0, 63, 92
3, 211584, Note_off_c, 0, 63, 64
3, 211584, Note_on_c, 0, 65, 92
3, 211776, Note_off_c, 0, 65, 64
3, 211776, Note_on_c, 0, 61, 92
3, 211968, Note_off_c, 0, 61, 64
3, 211968, Note_on_c, 0, 67, 92
3, 212160, Note_off_c, 0, 67, 64
3, 212160, Note_on_c, 0, 62, 92
3, 212352, Note_off_c, 0, 62, 64
3, 212352, Note_on_c, 0, 63, 92
3, 212544, Note_off_c, 0, 63, 64
3, 212544, Note_on_c, 0, 59, 92
3, 212736, Note_off_c, 0, 59, 64
3, 212736, Note_on_c, 0, 60, 92
3, 212928, Note_off_c, 0, 60, 64
3, 212928, Note_on_c, 0, 55, 92
3, 213120, Note_off_c, 0, 55, 64
3, 213120, Note_on_c, 0, 60, 92
3, 213312, Note_off_c, 0, 60, 64
3, 213312, Note_on_c, 0, 59, 92
3, 213504, Note_off_c, 0, 59, 64
3, 213504, Note_on_c, 0, 60, 92
3, 213888, Note_off_c, 0, 60, 64
3, 214080, Note_on_c, 0, 67, 92
3, 214272, Note_off_c, 0, 67, 64
3, 214272, Note_on_c, 0, 67, 92
3, 214464, Note_off_c, 0, 67, 64
3, 214464, Note_on_c, 0, 65, 92
3, 214656, Note_off_c, 0, 65, 64
3, 214656, Note_on_c, 0, 63, 92
3, 214848, Note_off_c, 0, 63, 64
3, 214848, Note_on_c, 0, 55, 92
3, 215040, Note_off_c, 0, 55, 64
3, 215040, Note_on_c, 0, 60, 92
3, 215424, Note_off_c, 0, 60, 64
3, 215616, Note_on_c, 0, 57, 92
3, 215616, Note_on_c, 0, 62, 92
3, 215808, Note_off_c, 0, 62, 64
3, 215808, Note_off_c, 0, 57, 64
3, 215808, Note_on_c, 0, 55, 92
3, 215808, Note_on_c, 0, 62, 92
3, 216000, Note_off_c, 0, 62, 64
3, 216000, Note_off_c, 0, 55, 64
3, 216000, Note_on_c, 0, 62, 92
3, 216192, Note_off_c, 0, 62, 64
3, 216192, Note_on_c, 0, 67, 92
3, 216384, Note_off_c, 0, 67, 64
3, 216384, Note_on_c, 0, 66, 92
3, 216384, Note_on_c, 0, 74, 92
3, 216576, Note_off_c, 0, 74, 64
3, 216576, Note_off_c, 0, 66, 64
3, 216576, Note_on_c, 0, 67, 92
3, 216576, Note_on_c, 0, 74, 92
3, 216768, Note_off_c, 0, 74, 64
3, 216768, Note_on_c, 0, 74, 92
3, 216960, Note_off_c, 0, 74, 64
3, 216960, Note_off_c, 0, 67, 64
3, 216960, Note_on_c, 0, 79, 92
3, 217152, Note_off_c, 0, 79, 64
3, 217152, Note_on_c, 0, 74, 92
3, 217152, Note_on_c, 0, 78, 92
3, 217344, Note_off_c, 0, 78, 64
3, 217344, Note_off_c, 0, 74, 64
3, 217344, Note_on_c, 0, 74, 92
3, 217344, Note_on_c, 0, 79, 92
3, 217536, Note_off_c, 0, 79, 64
3, 217536, Note_off_c, 0, 74, 64
3, 217536, Note_on_c, 0, 72, 92
3, 217536, Note_on_c, 0, 78, 92
3, 217728, Note_off_c, 0, 78, 64
3, 217728, Note_off_c, 0, 72, 64
3, 217728, Note_on_c, 0, 70, 92
3, 217728, Note_on_c, 0, 74, 92
3, 217920, Note_off_c, 0, 74, 64
3, 217920, Note_off_c, 0, 70, 64
3, 217920, Note_on_c, 0, 62, 92
3, 217920, Note_on_c, 0, 74, 92
3, 218112, Note_off_c, 0, 74, 64
3, 218112, Note_off_c, 0, 62, 64
3, 218112, Note_on_c, 0, 67, 92
3, 218112, Note_on_c, 0, 74, 92
3, 218496, Note_off_c, 0, 74, 64
3, 218496, Note_off_c, 0, 67, 64
3, 218688, Note_on_c, 0, 75, 92
3, 218688, Note_on_c, 0, 72, 92
3, 218784, Note_off_c, 0, 72, 64
3, 218784, Note_on_c, 0, 70, 92
3, 218880, Note_off_c, 0, 70, 64
3, 218880, Note_off_c, 0, 75, 64
3, 218880, Note_on_c, 0, 74, 92
3, 218880, Note_on_c, 0, 69, 92
3, 218976, Note_off_c, 0, 69, 64
3, 218976, Note_on_c, 0, 67, 92
3, 219072, Note_off_c, 0, 67, 64
3, 219072, Note_off_c, 0, 74, 64
3, 219072, Note_on_c, 0, 69, 92
3, 219072, Note_on_c, 0, 66, 92
3, 219168, Note_off_c, 0, 66, 64
3, 219168, Note_on_c, 0, 64, 92
3, 219264, Note_off_c, 0, 64, 64
3, 219264, Note_off_c, 0, 69, 64
3, 219264, Note_on_c, 0, 62, 92
3, 219360, Note_off_c, 0, 62, 64
3, 219360, Note_on_c, 0, 60, 92
3, 219456, Note_off_c, 0, 60, 64
3, 219456, Note_on_c, 0, 58, 92
3, 219552, Note_off_c, 0, 58, 64
3, 219552, Note_on_c, 0, 57, 92
3, 219648, Note_off_c, 0, 57, 64
3, 219648, Note_on_c, 0, 55, 92
3, 219744, Note_off_c, 0, 55, 64
3, 219744, Note_on_c, 0, 53, 92
3, 219840, Note_off_c, 0, 53, 64
3, 219840, Note_on_c, 0, 51, 92
3, 219936, Note_off_c, 0, 51, 64
3, 219936, Note_on_c, 0, 50, 92
3, 220032, Note_off_c, 0, 50, 64
3, 220032, Note_on_c, 0, 48, 92
3, 220128, Note_off_c, 0, 48, 64
3, 220128, Note_on_c, 0, 46, 92
3, 220224, Note_off_c, 0, 46, 64
3, 220224, Note_on_c, 0, 45, 92
3, 220320, Note_off_c, 0, 45, 64
3, 220320, Note_on_c, 0, 43, 92
3, 220416, Note_off_c, 0, 43, 64
3, 220416, Note_on_c, 0, 50, 92
3, 220608, Note_off_c, 0, 50, 64
3, 220608, Note_on_c, 0, 38, 92
3, 220800, Note_off_c, 0, 38, 64
3, 220896, Note_on_c, 0, 55, 92
3, 220992, Note_off_c, 0, 55, 64
3, 220992, Note_on_c, 0, 57, 92
3, 221088, Note_off_c, 0, 57, 64
3, 221088, Note_on_c, 0, 58, 92
3, 221184, Note_off_c, 0, 58, 64
3, 221184, Note_on_c, 0, 48, 92
3, 221280, Note_off_c, 0, 48, 64
3, 221280, Note_on_c, 0, 51, 92
3, 221376, Note_off_c, 0, 51, 64
3, 221376, Note_on_c, 0, 55, 92
3, 221472, Note_off_c, 0, 55, 64
3, 221472, Note_on_c, 0, 58, 92
3, 221568, Note_off_c, 0, 58, 64
3, 221568, Note_on_c, 0, 57, 92
3, 221664, Note_off_c, 0, 57, 64
3, 221664, Note_on_c, 0, 60, 92
3, 221760, Note_off_c, 0, 60, 64
3, 221760, Note_on_c, 0, 53, 92
3, 221856, Note_off_c, 0, 53, 64
3, 221856, Note_on_c, 0, 57, 92
3, 221952, Note_off_c, 0, 57, 64
3, 221952, Note_on_c, 0, 46, 92
3, 222048, Note_off_c, 0, 46, 64
3, 222048, Note_on_c, 0, 50, 92
3, 222144, Note_off_c, 0, 50, 64
3, 222144, Note_on_c, 0, 53, 92
3, 222240, Note_off_c, 0, 53, 64
3, 222240, Note_on_c, 0, 57, 92
3, 222336, Note_off_c, 0, 57, 64
3, 222336, Note_on_c, 0, 55, 92
3, 222432, Note_off_c, 0, 55, 64
3, 222432, Note_on_c, 0, 58, 92
3, 222528, Note_off_c, 0, 58, 64
3, 222528, Note_on_c, 0, 51, 92
3, 222624, Note_off_c, 0, 51, 64
3, 222624, Note_on_c, 0, 55, 92
3, 222720, Note_off_c, 0, 55, 64
3, 222720, Note_on_c, 0, 45, 92
3, 222816, Note_off_c, 0, 45, 64
3, 222816, Note_on_c, 0, 48, 92
3, 222912, Note_off_c, 0, 48, 64
3, 222912, Note_on_c, 0, 51, 92
3, 223008, Note_off_c, 0, 51, 64
3, 223008, Note_on_c, 0, 55, 92
3, 223104, Note_off_c, 0, 55, 64
3, 223104, Note_on_c, 0, 54, 92
3, 223200, Note_off_c, 0, 54, 64
3, 223200, Note_on_c, 0, 57, 92
3, 223296, Note_off_c, 0, 57, 64
3, 223296, Note_on_c, 0, 50, 92
3, 223392, Note_off_c, 0, 50, 64
3, 223392, Note_on_c, 0, 54, 92
3, 223488, Note_off_c, 0, 54, 64
3, 223488, Note_on_c, 0, 43, 92
3, 223680, Note_off_c, 0, 43, 64
3, 223680, Note_on_c, 0, 45, 92
3, 223872, Note_off_c, 0, 45, 64
3, 223872, Note_on_c, 0, 46, 92
3, 224064, Note_off_c, 0, 46, 64
3, 224064, Note_on_c, 0, 43, 92
3, 224256, Note_off_c, 0, 43, 64
3, 224256, Note_on_c, 0, 50, 92
3, 224448, Note_off_c, 0, 50, 64
3, 224448, Note_on_c, 0, 52, 92
3, 224640, Note_off_c, 0, 52, 64
3, 224640, Note_on_c, 0, 54, 92
3, 224832, Note_off_c, 0, 54, 64
3, 224832, Note_on_c, 0, 50, 92
3, 225024, Note_off_c, 0, 50, 64
3, 225024, Note_on_c, 0, 55, 92
3, 225216, Note_off_c, 0, 55, 64
3, 225216, Note_on_c, 0, 57, 92
3, 225408, Note_off_c, 0, 57, 64
3, 225408, Note_on_c, 0, 58, 92
3, 225600, Note_off_c, 0, 58, 64
3, 225600, Note_on_c, 0, 55, 92
3, 225792, Note_off_c, 0, 55, 64
3, 225792, Note_on_c, 0, 60, 92
3, 225984, Note_off_c, 0, 60, 64
3, 225984, Note_on_c, 0, 62, 92
3, 226176, Note_off_c, 0, 62, 64
3, 226176, Note_on_c, 0, 63, 92
3, 226368, Note_off_c, 0, 63, 64
3, 226368, Note_on_c, 0, 60, 92
3, 226560, Note_off_c, 0, 60, 64
3, 226560, Note_on_c, 0, 53, 92
3, 226752, Note_off_c, 0, 53, 64
3, 226752, Note_on_c, 0, 55, 92
3, 226944, Note_off_c, 0, 55, 64
3, 226944, Note_on_c, 0, 57, 92
3, 227136, Note_off_c, 0, 57, 64
3, 227136, Note_on_c, 0, 53, 92
3, 227328, Note_off_c, 0, 53, 64
3, 227328, Note_on_c, 0, 58, 92
3, 227520, Note_off_c, 0, 58, 64
3, 227520, Note_on_c, 0, 60, 92
3, 227712, Note_off_c, 0, 60, 64
3, 227712, Note_on_c, 0, 62, 92
3, 227904, Note_off_c, 0, 62, 64
3, 227904, Note_on_c, 0, 58, 92
3, 228096, Note_off_c, 0, 58, 64
3, 228096, Note_on_c, 0, 63, 92
3, 228192, Note_off_c, 0, 63, 64
3, 228192, Note_on_c, 0, 65, 92
3, 228288, Note_off_c, 0, 65, 64
3, 228288, Note_on_c, 0, 62, 92
3, 228384, Note_off_c, 0, 62, 64
3, 228384, Note_on_c, 0, 63, 92
3, 228480, Note_off_c, 0, 63, 64
3, 228480, Note_on_c, 0, 60, 92
3, 228576, Note_off_c, 0, 60, 64
3, 228576, Note_on_c, 0, 62, 92
3, 228672, Note_off_c, 0, 62, 64
3, 228672, Note_on_c, 0, 58, 92
3, 228768, Note_off_c, 0, 58, 64
3, 228768, Note_on_c, 0, 60, 92
3, 228864, Note_off_c, 0, 60, 64
3, 228864, Note_on_c, 0, 57, 92
3, 228960, Note_off_c, 0, 57, 64
3, 228960, Note_on_c, 0, 58, 92
3, 229056, Note_off_c, 0, 58, 64
3, 229056, Note_on_c, 0, 55, 92
3, 229152, Note_off_c, 0, 55, 64
3, 229152, Note_on_c, 0, 57, 92
3, 229248, Note_off_c, 0, 57, 64
3, 229248, Note_on_c, 0, 54, 92
3, 229344, Note_off_c, 0, 54, 64
3, 229344, Note_on_c, 0, 55, 92
3, 229440, Note_off_c, 0, 55, 64
3, 229440, Note_on_c, 0, 52, 92
3, 229536, Note_off_c, 0, 52, 64
3, 229536, Note_on_c, 0, 54, 92
3, 229632, Note_off_c, 0, 54, 64
3, 229632, Note_on_c, 0, 50, 92
3, 229728, Note_off_c, 0, 50, 64
3, 229728, Note_on_c, 0, 51, 92
3, 229824, Note_off_c, 0, 51, 64
3, 229824, Note_on_c, 0, 48, 92
3, 229920, Note_off_c, 0, 48, 64
3, 229920, Note_on_c, 0, 50, 92
3, 230016, Note_off_c, 0, 50, 64
3, 230016, Note_on_c, 0, 46, 92
3, 230112, Note_off_c, 0, 46, 64
3, 230112, Note_on_c, 0, 48, 92
3, 230208, Note_off_c, 0, 48, 64
3, 230208, Note_on_c, 0, 45, 92
3, 230304, Note_off_c, 0, 45, 64
3, 230304, Note_on_c, 0, 48, 92
3, 230400, Note_off_c, 0, 48, 64
3, 230400, Note_on_c, 0, 46, 92
3, 230496, Note_off_c, 0, 46, 64
3, 230496, Note_on_c, 0, 48, 92
3, 230592, Note_off_c, 0, 48, 64
3, 230592, Note_on_c, 0, 45, 92
3, 230688, Note_off_c, 0, 45, 64
3, 230688, Note_on_c, 0, 46, 92
3, 230784, Note_off_c, 0, 46, 64
3, 230784, Note_on_c, 0, 43, 92
3, 230976, Note_off_c, 0, 43, 64
3, 230976, Note_on_c, 0, 55, 92
3, 231168, Note_off_c, 0, 55, 64
3, 231168, Note_on_c, 0, 54, 92
3, 231264, Note_off_c, 0, 54, 64
3, 231264, Note_on_c, 0, 55, 92
3, 231360, Note_off_c, 0, 55, 64
3, 231360, Note_on_c, 0, 52, 92
3, 231456, Note_off_c, 0, 52, 64
3, 231456, Note_on_c, 0, 54, 92
3, 231552, Note_off_c, 0, 54, 64
3, 231552, Note_on_c, 0, 50, 92
3, 231744, Note_off_c, 0, 50, 64
3, 231744, Note_on_c, 0, 55, 92
3, 231840, Note_off_c, 0, 55, 64
3, 231840, Note_on_c, 0, 50, 92
3, 231936, Note_off_c, 0, 50, 64
3, 231936, Note_on_c, 0, 51, 92
3, 232128, Note_off_c, 0, 51, 64
3, 232128, Note_on_c, 0, 48, 92
3, 232320, Note_off_c, 0, 48, 64
3, 232320, Note_on_c, 0, 41, 92
3, 232512, Note_off_c, 0, 41, 64
3, 232512, Note_on_c, 0, 53, 92
3, 232704, Note_off_c, 0, 53, 64
3, 232704, Note_on_c, 0, 50, 92
3, 232800, Note_off_c, 0, 50, 64
3, 232800, Note_on_c, 0, 51, 92
3, 232896, Note_off_c, 0, 51, 64
3, 232896, Note_on_c, 0, 48, 92
3, 232992, Note_off_c, 0, 48, 64
3, 232992, Note_on_c, 0, 50, 92
3, 233088, Note_off_c, 0, 50, 64
3, 233088, Note_on_c, 0, 46, 92
3, 233280, Note_off_c, 0, 46, 64
3, 233280, Note_on_c, 0, 51, 92
3, 233376, Note_off_c, 0, 51, 64
3, 233376, Note_on_c, 0, 46, 92
3, 233472, Note_off_c, 0, 46, 64
3, 233472, Note_on_c, 0, 48, 92
3, 233664, Note_off_c, 0, 48, 64
3, 233664, Note_on_c, 0, 45, 92
3, 233856, Note_off_c, 0, 45, 64
3, 233856, Note_on_c, 0, 38, 92
3, 234048, Note_off_c, 0, 38, 64
3, 234048, Note_on_c, 0, 50, 92
3, 234240, Note_off_c, 0, 50, 64
3, 234240, Note_on_c, 0, 55, 92
3, 234432, Note_off_c, 0, 55, 64
3, 234432, Note_on_c, 0, 53, 92
3, 234624, Note_off_c, 0, 53, 64
3, 234624, Note_on_c, 0, 51, 92
3, 235008, Note_off_c, 0, 51, 64
3, 235008, Note_on_c, 0, 50, 92
3, 235392, Note_off_c, 0, 50, 64
3, 235392, Note_on_c, 0, 58, 92
3, 236160, Note_off_c, 0, 58, 64
3, 236160, Note_on_c, 0, 53, 92
3, 236160, Note_on_c, 0, 57, 92
3, 236352, Note_off_c, 0, 53, 64
3, 236928, Note_off_c, 0, 57, 64
3, 236928, Note_on_c, 0, 55, 92
3, 237696, Note_off_c, 0, 55, 64
3, 237696, Note_on_c, 0, 54, 92
3, 237696, Note_on_c, 0, 50, 92
3, 237888, Note_off_c, 0, 50, 64
3, 238080, Note_off_c, 0, 54, 64
3, 238080, Note_on_c, 0, 55, 92
3, 238368, Note_on_c, 0, 57, 92
3, 238464, Note_off_c, 0, 57, 64
3, 238464, Note_off_c, 0, 55, 64
3, 238464, Note_on_c, 0, 55, 92
3, 238560, Note_off_c, 0, 55, 64
3, 238560, Note_on_c, 0, 58, 92
3, 238656, Note_off_c, 0, 58, 64
3, 238656, Note_on_c, 0, 57, 92
3, 238752, Note_off_c, 0, 57, 64
3, 238752, Note_on_c, 0, 55, 92
3, 238848, Note_off_c, 0, 55, 64
3, 238848, Note_on_c, 0, 54, 92
3, 238944, Note_off_c, 0, 54, 64
3, 238944, Note_on_c, 0, 55, 92
3, 239040, Note_off_c, 0, 55, 64
3, 239040, Note_on_c, 0, 54, 92
3, 239136, Note_off_c, 0, 54, 64
3, 239136, Note_on_c, 0, 52, 92
3, 239232, Note_off_c, 0, 52, 64
3, 239232, Note_on_c, 0, 50, 92
3, 239328, Note_off_c, 0, 50, 64
3, 239328, Note_on_c, 0, 62, 92
3, 239424, Note_off_c, 0, 62, 64
3, 239424, Note_on_c, 0, 60, 92
3, 239520, Note_off_c, 0, 60, 64
3, 239520, Note_on_c, 0, 62, 92
3, 239616, Note_off_c, 0, 62, 64
3, 239616, Note_on_c, 0, 58, 92
3, 239712, Note_off_c, 0, 58, 64
3, 239712, Note_on_c, 0, 60, 92
3, 239808, Note_off_c, 0, 60, 64
3, 239808, Note_on_c, 0, 57, 92
3, 239904, Note_off_c, 0, 57, 64
3, 239904, Note_on_c, 0, 58, 92
3, 240000, Note_off_c, 0, 58, 64
3, 240000, Note_on_c, 0, 55, 92
3, 240096, Note_off_c, 0, 55, 64
3, 240096, Note_on_c, 0, 57, 92
3, 240192, Note_off_c, 0, 57, 64
3, 240192, Note_on_c, 0, 53, 92
3, 240288, Note_off_c, 0, 53, 64
3, 240288, Note_on_c, 0, 55, 92
3, 240384, Note_off_c, 0, 55, 64
3, 240384, Note_on_c, 0, 51, 92
3, 240480, Note_off_c, 0, 51, 64
3, 240480, Note_on_c, 0, 53, 92
3, 240576, Note_off_c, 0, 53, 64
3, 240576, Note_on_c, 0, 50, 92
3, 240672, Note_off_c, 0, 50, 64
3, 240672, Note_on_c, 0, 51, 92
3, 240768, Note_off_c, 0, 51, 64
3, 240768, Note_on_c, 0, 48, 92
3, 240864, Note_off_c, 0, 48, 64
3, 240864, Note_on_c, 0, 60, 92
3, 240960, Note_off_c, 0, 60, 64
3, 240960, Note_on_c, 0, 58, 92
3, 241056, Note_off_c, 0, 58, 64
3, 241056, Note_on_c, 0, 60, 92
3, 241152, Note_off_c, 0, 60, 64
3, 241152, Note_on_c, 0, 57, 92
3, 241248, Note_off_c, 0, 57, 64
3, 241248, Note_on_c, 0, 58, 92
3, 241344, Note_off_c, 0, 58, 64
3, 241344, Note_on_c, 0, 55, 92
3, 241440, Note_off_c, 0, 55, 64
3, 241440, Note_on_c, 0, 57, 92
3, 241536, Note_off_c, 0, 57, 64
3, 241536, Note_on_c, 0, 53, 92
3, 241632, Note_off_c, 0, 53, 64
3, 241632, Note_on_c, 0, 55, 92
3, 241728, Note_off_c, 0, 55, 64
3, 241728, Note_on_c, 0, 51, 92
3, 241824, Note_off_c, 0, 51, 64
3, 241824, Note_on_c, 0, 53, 92
3, 241920, Note_off_c, 0, 53, 64
3, 241920, Note_on_c, 0, 50, 92
3, 242016, Note_off_c, 0, 50, 64
3, 242016, Note_on_c, 0, 51, 92
3, 242112, Note_off_c, 0, 51, 64
3, 242112, Note_on_c, 0, 48, 92
3, 242208, Note_off_c, 0, 48, 64
3, 242208, Note_on_c, 0, 50, 92
3, 242304, Note_off_c, 0, 50, 64
3, 242304, Note_on_c, 0, 46, 92
3, 242400, Note_off_c, 0, 46, 64
3, 242400, Note_on_c, 0, 58, 92
3, 242496, Note_off_c, 0, 58, 64
3, 242496, Note_on_c, 0, 57, 92
3, 242592, Note_off_c, 0, 57, 64
3, 242592, Note_on_c, 0, 58, 92
3, 242688, Note_off_c, 0, 58, 64
3, 242688, Note_on_c, 0, 55, 92
3, 242784, Note_off_c, 0, 55, 64
3, 242784, Note_on_c, 0, 57, 92
3, 242880, Note_off_c, 0, 57, 64
3, 242880, Note_on_c, 0, 54, 92
3, 242976, Note_off_c, 0, 54, 64
3, 242976, Note_on_c, 0, 55, 92
3, 243072, Note_off_c, 0, 55, 64
3, 243072, Note_on_c, 0, 52, 92
3, 243264, Note_off_c, 0, 52, 64
3, 243264, Note_on_c, 0, 57, 92
3, 243456, Note_off_c, 0, 57, 64
3, 243456, Note_on_c, 0, 50, 92
3, 243840, Note_off_c, 0, 50, 64
3, 243840, Note_on_c, 0, 52, 92
3, 244032, Note_off_c, 0, 52, 64
3, 244032, Note_on_c, 0, 54, 92
3, 244224, Note_off_c, 0, 54, 64
3, 244224, Note_on_c, 0, 55, 92
3, 244416, Note_off_c, 0, 55, 64
3, 244416, Note_on_c, 0, 48, 92
3, 244608, Note_off_c, 0, 48, 64
3, 244608, Note_on_c, 0, 50, 92
3, 244992, Note_off_c, 0, 50, 64
3, 244992, Note_on_c, 0, 50, 92
3, 245184, Note_off_c, 0, 50, 64
3, 245568, Note_on_c, 0, 67, 92
3, 245760, Note_off_c, 0, 67, 64
3, 245760, Note_on_c, 0, 62, 92
3, 246144, Note_off_c, 0, 62, 64
3, 246336, Note_on_c, 0, 62, 92
3, 246528, Note_off_c, 0, 62, 64
3, 246528, Note_on_c, 0, 60, 92
3, 247296, Note_off_c, 0, 60, 64
3, 247296, Note_on_c, 0, 58, 92
3, 248064, Note_off_c, 0, 58, 64
3, 248064, Note_on_c, 0, 57, 92
3, 248832, Note_off_c, 0, 57, 64
3, 248832, Note_on_c, 0, 58, 92
3, 249024, Note_off_c, 0, 58, 64
3, 249024, Note_on_c, 0, 60, 92
3, 249216, Note_off_c, 0, 60, 64
3, 249216, Note_on_c, 0, 62, 92
3, 249408, Note_off_c, 0, 62, 64
3, 249408, Note_on_c, 0, 60, 92
3, 249600, Note_off_c, 0, 60, 64
3, 249600, Note_on_c, 0, 55, 92
3, 249792, Note_off_c, 0, 55, 64
3, 249792, Note_on_c, 0, 57, 92
3, 249984, Note_off_c, 0, 57, 64
3, 249984, Note_on_c, 0, 62, 92
3, 250176, Note_off_c, 0, 62, 64
3, 250176, Note_on_c, 0, 60, 92
3, 250368, Note_off_c, 0, 60, 64
3, 250368, Note_on_c, 0, 55, 92
3, 250560, Note_off_c, 0, 55, 64
3, 250560, Note_on_c, 0, 57, 92
3, 250752, Note_off_c, 0, 57, 64
3, 250752, Note_on_c, 0, 62, 92
3, 250944, Note_off_c, 0, 62, 64
3, 250944, Note_on_c, 0, 60, 92
3, 251136, Note_off_c, 0, 60, 64
3, 251136, Note_on_c, 0, 55, 92
3, 251328, Note_off_c, 0, 55, 64
3, 251328, Note_on_c, 0, 63, 92
3, 251328, Note_on_c, 0, 60, 92
3, 251520, Note_off_c, 0, 60, 64
3, 251520, Note_off_c, 0, 63, 64
3, 251520, Note_on_c, 0, 62, 92
3, 251520, Note_on_c, 0, 58, 92
3, 251712, Note_off_c, 0, 58, 64
3, 251712, Note_off_c, 0, 62, 64
3, 251712, Note_on_c, 0, 62, 92
3, 251712, Note_on_c, 0, 57, 92
3, 251904, Note_off_c, 0, 57, 64
3, 251904, Note_off_c, 0, 62, 64
3, 251904, Note_on_c, 0, 55, 92
3, 251904, Note_on_c, 0, 62, 92
3, 252480, Note_off_c, 0, 62, 64
3, 252480, Note_off_c, 0, 55, 64
3, 253440, End_track
4, 0, Start_track
4, 0, Title_t, "Track 3"
4, 0, Note_on_c, 0, 43, 102
4, 384, Note_off_c, 0, 43, 64
4, 768, Note_on_c, 0, 43, 102
4, 1152, Note_off_c, 0, 43, 64
4, 1536, Note_on_c, 0, 43, 102
4, 1920, Note_off_c, 0, 43, 64
4, 2304, Note_on_c, 0, 43, 102
4, 2688, Note_off_c, 0, 43, 64
4, 3072, Note_on_c, 0, 43, 102
4, 3456, Note_off_c, 0, 43, 64
4, 3840, Note_on_c, 0, 43, 102
4, 4224, Note_off_c, 0, 43, 64
4, 4608, Note_on_c, 0, 43, 102
4, 10752, Note_off_c, 0, 43, 64
4, 10752, Note_on_c, 0, 50, 102
4, 12672, Note_off_c, 0, 50, 64
4, 12672, Note_on_c, 0, 62, 102
4, 13248, Note_off_c, 0, 62, 64
4, 13248, Note_on_c, 0, 59, 102
4, 13440, Note_off_c, 0, 59, 64
4, 13440, Note_on_c, 0, 55, 102
4, 13632, Note_off_c, 0, 55, 64
4, 13632, Note_on_c, 0, 59, 102
4, 13824, Note_off_c, 0, 59, 64
4, 13824, Note_on_c, 0, 51, 102
4, 14016, Note_off_c, 0, 51, 64
4, 14016, Note_on_c, 0, 55, 102
4, 14208, Note_off_c, 0, 55, 64
4, 14208, Note_on_c, 0, 51, 102
4, 14400, Note_off_c, 0, 51, 64
4, 14400, Note_on_c, 0, 48, 102
4, 14592, Note_off_c, 0, 48, 64
4, 14592, Note_on_c, 0, 45, 102
4, 14784, Note_off_c, 0, 45, 64
4, 14784, Note_on_c, 0, 54, 102
4, 14976, Note_off_c, 0, 54, 64
4, 14976, Note_on_c, 0, 50, 102
4, 15168, Note_off_c, 0, 50, 64
4, 15168, Note_on_c, 0, 54, 102
4, 15360, Note_off_c, 0, 54, 64
4, 15360, Note_on_c, 0, 46, 102
4, 15552, Note_off_c, 0, 46, 64
4, 15552, Note_on_c, 0, 50, 102
4, 15744, Note_off_c, 0, 50, 64
4, 15744, Note_on_c, 0, 46, 102
4, 15936, Note_off_c, 0, 46, 64
4, 15936, Note_on_c, 0, 43, 102
4, 16128, Note_off_c, 0, 43, 64
4, 16128, Note_on_c, 0, 40, 102
4, 16320, Note_off_c, 0, 40, 64
4, 16320, Note_on_c, 0, 49, 102
4, 16512, Note_off_c, 0, 49, 64
4, 16512, Note_on_c, 0, 45, 102
4, 16704, Note_off_c, 0, 45, 64
4, 16704, Note_on_c, 0, 49, 102
4, 16896, Note_off_c, 0, 49, 64
4, 16896, Note_on_c, 0, 41, 102
4, 17088, Note_off_c, 0, 41, 64
4, 17088, Note_on_c, 0, 45, 102
4, 17280, Note_off_c, 0, 45, 64
4, 17280, Note_on_c, 0, 41, 102
4, 17472, Note_off_c, 0, 41, 64
4, 17472, Note_on_c, 0, 38, 102
4, 17664, Note_off_c, 0, 38, 64
4, 17664, Note_on_c, 0, 46, 102
4, 18432, Note_off_c, 0, 46, 64
4, 18432, Note_on_c, 0, 45, 102
4, 20352, Note_off_c, 0, 45, 64
4, 21312, Note_on_c, 0, 46, 102
4, 21504, Note_off_c, 0, 46, 64
4, 21504, Note_on_c, 0, 38, 102
4, 21888, Note_off_c, 0, 38, 64
4, 22848, Note_on_c, 0, 50, 102
4, 23040, Note_off_c, 0, 50, 64
4, 23040, Note_on_c, 0, 51, 102
4, 23424, Note_off_c, 0, 51, 64
4, 24768, Note_on_c, 0, 57, 102
4, 24960, Note_off_c, 0, 57, 64
4, 24960, Note_on_c, 0, 58, 102
4, 25152, Note_off_c, 0, 58, 64
4, 25152, Note_on_c, 0, 54, 102
4, 25344, Note_off_c, 0, 54, 64
4, 25344, Note_on_c, 0, 55, 102
4, 25536, Note_off_c, 0, 55, 64
4, 25536, Note_on_c, 0, 50, 102
4, 25728, Note_off_c, 0, 50, 64
4, 25728, Note_on_c, 0, 51, 102
4, 26112, Note_off_c, 0, 51, 64
4, 26112, Note_on_c, 0, 50, 102
4, 29568, Note_off_c, 0, 50, 64
4, 30528, Note_on_c, 0, 45, 102
4, 30720, Note_off_c, 0, 45, 64
4, 30720, Note_on_c, 0, 46, 102
4, 33024, Note_off_c, 0, 46, 64
4, 33024, Note_on_c, 0, 47, 102
4, 33408, Note_off_c, 0, 47, 64
4, 33408, Note_on_c, 0, 48, 102
4, 33792, Note_off_c, 0, 48, 64
4, 33792, Note_on_c, 0, 49, 102
4, 34176, Note_off_c, 0, 49, 64
4, 34176, Note_on_c, 0, 50, 102
4, 34560, Note_off_c, 0, 50, 64
4, 34560, Note_on_c, 0, 51, 102
4, 34944, Note_off_c, 0, 51, 64
4, 34944, Note_on_c, 0, 52, 102
4, 35328, Note_off_c, 0, 52, 64
4, 35328, Note_on_c, 0, 44, 102
4, 35712, Note_off_c, 0, 44, 64
4, 36672, Note_on_c, 0, 38, 102
4, 36864, Note_off_c, 0, 38, 64
4, 36864, Note_on_c, 0, 43, 102
4, 37248, Note_off_c, 0, 43, 64
4, 37248, Note_on_c, 0, 55, 102
4, 37824, Note_off_c, 0, 55, 64
4, 37824, Note_on_c, 0, 52, 102
4, 38016, Note_off_c, 0, 52, 64
4, 38016, Note_on_c, 0, 48, 102
4, 38208, Note_off_c, 0, 48, 64
4, 38208, Note_on_c, 0, 52, 102
4, 38400, Note_off_c, 0, 52, 64
4, 38400, Note_on_c, 0, 44, 102
4, 38592, Note_off_c, 0, 44, 64
4, 38592, Note_on_c, 0, 48, 102
4, 38784, Note_off_c, 0, 48, 64
4, 38784, Note_on_c, 0, 44, 102
4, 38976, Note_off_c, 0, 44, 64
4, 38976, Note_on_c, 0, 41, 102
4, 39168, Note_off_c, 0, 41, 64
4, 39168, Note_on_c, 0, 50, 102
4, 39360, Note_off_c, 0, 50, 64
4, 39360, Note_on_c, 0, 47, 102
4, 39552, Note_off_c, 0, 47, 64
4, 39552, Note_on_c, 0, 43, 102
4, 39744, Note_off_c, 0, 43, 64
4, 39744, Note_on_c, 0, 47, 102
4, 39936, Note_off_c, 0, 47, 64
4, 39936, Note_on_c, 0, 39, 102
4, 40128, Note_off_c, 0, 39, 64
4, 40128, Note_on_c, 0, 43, 102
4, 40320, Note_off_c, 0, 43, 64
4, 40320, Note_on_c, 0, 39, 102
4, 40512, Note_off_c, 0, 39, 64
4, 40512, Note_on_c, 0, 36, 102
4, 40704, Note_off_c, 0, 36, 64
4, 40704, Note_on_c, 0, 45, 102
4, 40896, Note_off_c, 0, 45, 64
4, 40896, Note_on_c, 0, 42, 102
4, 41088, Note_off_c, 0, 42, 64
4, 41088, Note_on_c, 0, 38, 102
4, 41280, Note_off_c, 0, 38, 64
4, 41280, Note_on_c, 0, 42, 102
4, 41472, Note_off_c, 0, 42, 64
4, 41472, Note_on_c, 0, 46, 102
4, 41664, Note_off_c, 0, 46, 64
4, 41664, Note_on_c, 0, 43, 102
4, 41856, Note_off_c, 0, 43, 64
4, 41856, Note_on_c, 0, 40, 102
4, 42048, Note_off_c, 0, 40, 64
4, 42048, Note_on_c, 0, 43, 102
4, 42240, Note_off_c, 0, 43, 64
4, 42240, Note_on_c, 0, 48, 102
4, 42432, Note_off_c, 0, 48, 64
4, 42432, Note_on_c, 0, 45, 102
4, 42624, Note_off_c, 0, 45, 64
4, 42624, Note_on_c, 0, 42, 102
4, 42816, Note_off_c, 0, 42, 64
4, 42816, Note_on_c, 0, 45, 102
4, 43008, Note_off_c, 0, 45, 64
4, 43008, Note_on_c, 0, 50, 102
4, 43200, Note_off_c, 0, 50, 64
4, 43200, Note_on_c, 0, 46, 102
4, 43392, Note_off_c, 0, 46, 64
4, 43392, Note_on_c, 0, 43, 102
4, 43584, Note_off_c, 0, 43, 64
4, 43584, Note_on_c, 0, 46, 102
4, 43776, Note_off_c, 0, 46, 64
4, 43776, Note_on_c, 0, 39, 102
4, 44544, Note_off_c, 0, 39, 64
4, 44544, Note_on_c, 0, 38, 102
4, 46464, Note_off_c, 0, 38, 64
4, 46464, Note_on_c, 0, 62, 102
4, 46656, Note_off_c, 0, 62, 64
4, 46656, Note_on_c, 0, 60, 102
4, 46848, Note_off_c, 0, 60, 64
4, 46848, Note_on_c, 0, 58, 102
4, 47040, Note_off_c, 0, 58, 64
4, 47040, Note_on_c, 0, 57, 102
4, 47232, Note_off_c, 0, 57, 64
4, 47232, Note_on_c, 0, 55, 102
4, 47424, Note_off_c, 0, 55, 64
4, 47424, Note_on_c, 0, 53, 102
4, 47616, Note_off_c, 0, 53, 64
4, 47616, Note_on_c, 0, 51, 102
4, 47808, Note_off_c, 0, 51, 64
4, 47808, Note_on_c, 0, 50, 102
4, 48000, Note_off_c, 0, 50, 64
4, 48000, Note_on_c, 0, 60, 102
4, 48192, Note_off_c, 0, 60, 64
4, 48192, Note_on_c, 0, 58, 102
4, 48384, Note_off_c, 0, 58, 64
4, 48384, Note_on_c, 0, 56, 102
4, 48576, Note_off_c, 0, 56, 64
4, 48576, Note_on_c, 0, 55, 102
4, 48768, Note_off_c, 0, 55, 64
4, 48768, Note_on_c, 0, 53, 102
4, 48960, Note_off_c, 0, 53, 64
4, 48960, Note_on_c, 0, 51, 102
4, 49152, Note_off_c, 0, 51, 64
4, 49152, Note_on_c, 0, 49, 102
4, 49344, Note_off_c, 0, 49, 64
4, 49344, Note_on_c, 0, 48, 102
4, 49536, Note_off_c, 0, 48, 64
4, 49536, Note_on_c, 0, 58, 102
4, 49728, Note_off_c, 0, 58, 64
4, 49728, Note_on_c, 0, 56, 102
4, 49920, Note_off_c, 0, 56, 64
4, 49920, Note_on_c, 0, 54, 102
4, 50112, Note_off_c, 0, 54, 64
4, 50112, Note_on_c, 0, 53, 102
4, 50304, Note_off_c, 0, 53, 64
4, 50304, Note_on_c, 0, 51, 102
4, 50496, Note_off_c, 0, 51, 64
4, 50496, Note_on_c, 0, 49, 102
4, 50688, Note_off_c, 0, 49, 64
4, 50688, Note_on_c, 0, 47, 102
4, 50880, Note_off_c, 0, 47, 64
4, 50880, Note_on_c, 0, 46, 102
4, 51072, Note_off_c, 0, 46, 64
4, 51072, Note_on_c, 0, 56, 102
4, 51264, Note_off_c, 0, 56, 64
4, 51264, Note_on_c, 0, 54, 102
4, 51456, Note_off_c, 0, 54, 64
4, 51456, Note_on_c, 0, 52, 102
4, 51648, Note_off_c, 0, 52, 64
4, 51648, Note_on_c, 0, 51, 102
4, 51840, Note_off_c, 0, 51, 64
4, 51840, Note_on_c, 0, 49, 102
4, 52032, Note_off_c, 0, 49, 64
4, 52032, Note_on_c, 0, 47, 102
4, 52224, Note_off_c, 0, 47, 64
4, 52224, Note_on_c, 0, 46, 102
4, 52608, Note_off_c, 0, 46, 64
4, 52800, Note_on_c, 0, 46, 102
4, 52992, Note_off_c, 0, 46, 64
4, 52992, Note_on_c, 0, 48, 102
4, 53376, Note_off_c, 0, 48, 64
4, 53376, Note_on_c, 0, 49, 102
4, 53760, Note_off_c, 0, 49, 64
4, 53760, Note_on_c, 0, 47, 102
4, 56064, Note_off_c, 0, 47, 64
4, 56064, Note_on_c, 0, 48, 102
4, 56448, Note_off_c, 0, 48, 64
4, 56448, Note_on_c, 0, 49, 102
4, 56832, Note_off_c, 0, 49, 64
4, 56832, Note_on_c, 0, 50, 102
4, 57216, Note_off_c, 0, 50, 64
4, 57216, Note_on_c, 0, 51, 102
4, 57600, Note_off_c, 0, 51, 64
4, 57600, Note_on_c, 0, 52, 102
4, 57984, Note_off_c, 0, 52, 64
4, 57984, Note_on_c, 0, 53, 102
4, 58176, Note_off_c, 0, 53, 64
4, 58176, Note_on_c, 0, 53, 102
4, 58368, Note_off_c, 0, 53, 64
4, 58368, Note_on_c, 0, 47, 102
4, 58560, Note_off_c, 0, 47, 64
4, 58560, Note_on_c, 0, 50, 102
4, 58752, Note_off_c, 0, 50, 64
4, 58752, Note_on_c, 0, 47, 102
4, 58944, Note_off_c, 0, 47, 64
4, 58944, Note_on_c, 0, 43, 102
4, 59136, Note_off_c, 0, 43, 64
4, 59136, Note_on_c, 0, 48, 102
4, 59328, Note_off_c, 0, 48, 64
4, 59328, Note_on_c, 0, 50, 102
4, 59520, Note_off_c, 0, 50, 64
4, 59520, Note_on_c, 0, 51, 102
4, 59712, Note_off_c, 0, 51, 64
4, 59712, Note_on_c, 0, 48, 102
4, 59904, Note_off_c, 0, 48, 64
4, 59904, Note_on_c, 0, 50, 102
4, 60096, Note_off_c, 0, 50, 64
4, 60096, Note_on_c, 0, 54, 102
4, 60288, Note_off_c, 0, 54, 64
4, 60288, Note_on_c, 0, 55, 102
4, 60480, Note_off_c, 0, 55, 64
4, 60480, Note_on_c, 0, 46, 102
4, 60672, Note_off_c, 0, 46, 64
4, 60672, Note_on_c, 0, 51, 102
4, 61248, Note_off_c, 0, 51, 64
4, 61248, Note_on_c, 0, 48, 102
4, 61440, Note_off_c, 0, 48, 64
4, 61440, Note_on_c, 0, 50, 102
4, 61824, Note_off_c, 0, 50, 64
4, 62016, Note_on_c, 0, 43, 102
4, 62208, Note_off_c, 0, 43, 64
4, 62208, Note_on_c, 0, 48, 102
4, 63360, Note_off_c, 0, 48, 64
4, 63552, Note_on_c, 0, 46, 102
4, 63744, Note_off_c, 0, 46, 64
4, 63744, Note_on_c, 0, 45, 102
4, 63936, Note_off_c, 0, 45, 64
4, 63936, Note_on_c, 0, 37, 102
4, 64128, Note_off_c, 0, 37, 64
4, 64128, Note_on_c, 0, 40, 102
4, 64320, Note_off_c, 0, 40, 64
4, 64320, Note_on_c, 0, 43, 102
4, 64512, Note_off_c, 0, 43, 64
4, 64512, Note_on_c, 0, 42, 102
4, 64704, Note_off_c, 0, 42, 64
4, 64704, Note_on_c, 0, 38, 102
4, 64896, Note_off_c, 0, 38, 64
4, 64896, Note_on_c, 0, 43, 102
4, 65088, Note_off_c, 0, 43, 64
4, 65088, Note_on_c, 0, 37, 102
4, 65280, Note_off_c, 0, 37, 64
4, 65280, Note_on_c, 0, 38, 102
4, 66048, Note_off_c, 0, 38, 64
4, 66048, Note_on_c, 0, 43, 102
4, 66432, Note_off_c, 0, 43, 64
4, 67392, Note_on_c, 0, 43, 102
4, 67584, Note_off_c, 0, 43, 64
4, 67584, Note_on_c, 0, 36, 102
4, 67968, Note_off_c, 0, 36, 64
4, 69312, Note_on_c, 0, 50, 102
4, 69504, Note_off_c, 0, 50, 64
4, 69504, Note_on_c, 0, 51, 102
4, 69696, Note_off_c, 0, 51, 64
4, 69696, Note_on_c, 0, 47, 102
4, 69888, Note_off_c, 0, 47, 64
4, 69888, Note_on_c, 0, 48, 102
4, 70080, Note_off_c, 0, 48, 64
4, 70080, Note_on_c, 0, 43, 102
4, 70272, Note_off_c, 0, 43, 64
4, 70272, Note_on_c, 0, 44, 102
4, 70464, Note_off_c, 0, 44, 64
4, 70464, Note_on_c, 0, 48, 102
4, 70656, Note_off_c, 0, 48, 64
4, 70656, Note_on_c, 0, 42, 102
4, 70848, Note_off_c, 0, 42, 64
4, 70848, Note_on_c, 0, 57, 102
4, 71040, Note_off_c, 0, 57, 64
4, 71040, Note_on_c, 0, 58, 102
4, 71232, Note_off_c, 0, 58, 64
4, 71232, Note_on_c, 0, 54, 102
4, 71424, Note_off_c, 0, 54, 64
4, 71424, Note_on_c, 0, 55, 102
4, 71616, Note_off_c, 0, 55, 64
4, 71616, Note_on_c, 0, 50, 102
4, 71808, Note_off_c, 0, 50, 64
4, 71808, Note_on_c, 0, 51, 102
4, 72000, Note_off_c, 0, 51, 64
4, 72000, Note_on_c, 0, 55, 102
4, 72192, Note_off_c, 0, 55, 64
4, 72192, Note_on_c, 0, 49, 102
4, 72672, Note_off_c, 0, 49, 64
4, 72672, Note_on_c, 0, 50, 102
4, 72768, Note_off_c, 0, 50, 64
4, 72768, Note_on_c, 0, 51, 102
4, 72864, Note_off_c, 0, 51, 64
4, 72864, Note_on_c, 0, 52, 102
4, 72960, Note_off_c, 0, 52, 64
4, 72960, Note_on_c, 0, 53, 102
4, 73056, Note_off_c, 0, 53, 64
4, 73056, Note_on_c, 0, 54, 102
4, 73152, Note_off_c, 0, 54, 64
4, 73152, Note_on_c, 0, 55, 102
4, 73248, Note_off_c, 0, 55, 64
4, 73248, Note_on_c, 0, 49, 102
4, 73344, Note_off_c, 0, 49, 64
4, 73344, Note_on_c, 0, 50, 102
4, 73536, Note_off_c, 0, 50, 64
4, 73536, Note_on_c, 0, 38, 102
4, 73728, Note_off_c, 0, 38, 64
4, 73728, Note_on_c, 0, 43, 102
4, 75264, Note_off_c, 0, 43, 64
4, 98112, Note_on_c, 0, 55, 102
4, 98304, Note_off_c, 0, 55, 64
4, 98304, Note_on_c, 0, 53, 102
4, 98400, Note_off_c, 0, 53, 64
4, 98400, Note_on_c, 0, 55, 102
4, 98496, Note_off_c, 0, 55, 64
4, 98496, Note_on_c, 0, 52, 102
4, 98592, Note_off_c, 0, 52, 64
4, 98592, Note_on_c, 0, 53, 102
4, 98688, Note_off_c, 0, 53, 64
4, 98688, Note_on_c, 0, 50, 102
4, 98880, Note_off_c, 0, 50, 64
4, 98880, Note_on_c, 0, 62, 102
4, 99072, Note_off_c, 0, 62, 64
4, 99072, Note_on_c, 0, 61, 102
4, 99168, Note_off_c, 0, 61, 64
4, 99168, Note_on_c, 0, 62, 102
4, 99264, Note_off_c, 0, 62, 64
4, 99264, Note_on_c, 0, 59, 102
4, 99360, Note_off_c, 0, 59, 64
4, 99360, Note_on_c, 0, 61, 102
4, 99456, Note_off_c, 0, 61, 64
4, 99456, Note_on_c, 0, 57, 102
4, 99648, Note_off_c, 0, 57, 64
4, 99648, Note_on_c, 0, 62, 102
4, 99744, Note_off_c, 0, 62, 64
4, 99744, Note_on_c, 0, 57, 102
4, 99840, Note_off_c, 0, 57, 64
4, 99840, Note_on_c, 0, 58, 102
4, 100032, Note_off_c, 0, 58, 64
4, 100032, Note_on_c, 0, 55, 102
4, 100224, Note_off_c, 0, 55, 64
4, 100224, Note_on_c, 0, 48, 102
4, 100416, Note_off_c, 0, 48, 64
4, 100416, Note_on_c, 0, 60, 102
4, 100608, Note_off_c, 0, 60, 64
4, 100608, Note_on_c, 0, 57, 102
4, 100704, Note_off_c, 0, 57, 64
4, 100704, Note_on_c, 0, 58, 102
4, 100800, Note_off_c, 0, 58, 64
4, 100800, Note_on_c, 0, 55, 102
4, 100896, Note_off_c, 0, 55, 64
4, 100896, Note_on_c, 0, 57, 102
4, 100992, Note_off_c, 0, 57, 64
4, 100992, Note_on_c, 0, 53, 102
4, 101184, Note_off_c, 0, 53, 64
4, 101184, Note_on_c, 0, 58, 102
4, 101280, Note_off_c, 0, 58, 64
4, 101280, Note_on_c, 0, 53, 102
4, 101376, Note_off_c, 0, 53, 64
4, 101376, Note_on_c, 0, 55, 102
4, 101568, Note_off_c, 0, 55, 64
4, 101568, Note_on_c, 0, 52, 102
4, 101760, Note_off_c, 0, 52, 64
4, 101760, Note_on_c, 0, 45, 102
4, 101952, Note_off_c, 0, 45, 64
4, 101952, Note_on_c, 0, 57, 102
4, 102144, Note_off_c, 0, 57, 64
4, 102144, Note_on_c, 0, 53, 102
4, 102240, Note_off_c, 0, 53, 64
4, 102240, Note_on_c, 0, 55, 102
4, 102336, Note_off_c, 0, 55, 64
4, 102336, Note_on_c, 0, 52, 102
4, 102432, Note_off_c, 0, 52, 64
4, 102432, Note_on_c, 0, 53, 102
4, 102528, Note_off_c, 0, 53, 64
4, 102528, Note_on_c, 0, 50, 102
4, 102720, Note_off_c, 0, 50, 64
4, 102720, Note_on_c, 0, 53, 102
4, 102912, Note_off_c, 0, 53, 64
4, 102912, Note_on_c, 0, 55, 102
4, 103296, Note_off_c, 0, 55, 64
4, 103392, Note_on_c, 0, 55, 102
4, 103488, Note_off_c, 0, 55, 64
4, 103488, Note_on_c, 0, 53, 102
4, 103584, Note_off_c, 0, 53, 64
4, 103584, Note_on_c, 0, 55, 102
4, 103680, Note_off_c, 0, 55, 64
4, 103680, Note_on_c, 0, 51, 102
4, 103776, Note_off_c, 0, 51, 64
4, 103776, Note_on_c, 0, 53, 102
4, 103872, Note_off_c, 0, 53, 64
4, 103872, Note_on_c, 0, 50, 102
4, 103968, Note_off_c, 0, 50, 64
4, 103968, Note_on_c, 0, 51, 102
4, 104064, Note_off_c, 0, 51, 64
4, 104064, Note_on_c, 0, 48, 102
4, 104256, Note_off_c, 0, 48, 64
4, 104256, Note_on_c, 0, 51, 102
4, 104448, Note_off_c, 0, 51, 64
4, 104448, Note_on_c, 0, 53, 102
4, 104832, Note_off_c, 0, 53, 64
4, 104928, Note_on_c, 0, 53, 102
4, 105024, Note_off_c, 0, 53, 64
4, 105024, Note_on_c, 0, 51, 102
4, 105120, Note_off_c, 0, 51, 64
4, 105120, Note_on_c, 0, 53, 102
4, 105216, Note_off_c, 0, 53, 64
4, 105216, Note_on_c, 0, 50, 102
4, 105312, Note_off_c, 0, 50, 64
4, 105312, Note_on_c, 0, 51, 102
4, 105408, Note_off_c, 0, 51, 64
4, 105408, Note_on_c, 0, 48, 102
4, 105504, Note_off_c, 0, 48, 64
4, 105504, Note_on_c, 0, 50, 102
4, 105600, Note_off_c, 0, 50, 64
4, 105600, Note_on_c, 0, 46, 102
4, 105792, Note_off_c, 0, 46, 64
4, 105792, Note_on_c, 0, 50, 102
4, 105984, Note_off_c, 0, 50, 64
4, 105984, Note_on_c, 0, 51, 102
4, 106176, Note_off_c, 0, 51, 64
4, 106176, Note_on_c, 0, 50, 102
4, 106368, Note_off_c, 0, 50, 64
4, 106368, Note_on_c, 0, 48, 102
4, 106560, Note_off_c, 0, 48, 64
4, 106560, Note_on_c, 0, 46, 102
4, 106752, Note_off_c, 0, 46, 64
4, 106752, Note_on_c, 0, 45, 102
4, 106944, Note_off_c, 0, 45, 64
4, 106944, Note_on_c, 0, 43, 102
4, 107136, Note_off_c, 0, 43, 64
4, 107136, Note_on_c, 0, 42, 102
4, 107328, Note_off_c, 0, 42, 64
4, 107328, Note_on_c, 0, 38, 102
4, 107520, Note_off_c, 0, 38, 64
4, 107520, Note_on_c, 0, 43, 102
4, 107712, Note_off_c, 0, 43, 64
4, 107712, Note_on_c, 0, 46, 102
4, 107904, Note_off_c, 0, 46, 64
4, 107904, Note_on_c, 0, 48, 102
4, 108096, Note_off_c, 0, 48, 64
4, 108096, Note_on_c, 0, 50, 102
4, 108288, Note_off_c, 0, 50, 64
4, 108288, Note_on_c, 0, 43, 102
4, 108672, Note_off_c, 0, 43, 64
4, 108864, Note_on_c, 0, 38, 102
4, 109056, Note_off_c, 0, 38, 64
4, 109056, Note_on_c, 0, 43, 102
4, 109248, Note_off_c, 0, 43, 64
4, 109248, Note_on_c, 0, 45, 102
4, 109440, Note_off_c, 0, 45, 64
4, 109440, Note_on_c, 0, 46, 102
4, 109632, Note_off_c, 0, 46, 64
4, 109632, Note_on_c, 0, 48, 102
4, 109824, Note_off_c, 0, 48, 64
4, 109824, Note_on_c, 0, 50, 102
4, 110016, Note_off_c, 0, 50, 64
4, 110016, Note_on_c, 0, 45, 102
4, 110208, Note_off_c, 0, 45, 64
4, 110208, Note_on_c, 0, 46, 102
4, 110976, Note_off_c, 0, 46, 64
4, 110976, Note_on_c, 0, 45, 102
4, 111744, Note_off_c, 0, 45, 64
4, 111744, Note_on_c, 0, 43, 102
4, 112512, Note_off_c, 0, 43, 64
4, 112512, Note_on_c, 0, 42, 102
4, 112896, Note_off_c, 0, 42, 64
4, 112896, Note_on_c, 0, 43, 102
4, 113088, Note_off_c, 0, 43, 64
4, 113088, Note_on_c, 0, 41, 102
4, 113280, Note_off_c, 0, 41, 64
4, 113280, Note_on_c, 0, 40, 102
4, 113472, Note_off_c, 0, 40, 64
4, 113472, Note_on_c, 0, 52, 102
4, 113664, Note_off_c, 0, 52, 64
4, 113664, Note_on_c, 0, 50, 102
4, 113856, Note_off_c, 0, 50, 64
4, 113856, Note_on_c, 0, 48, 102
4, 114048, Note_off_c, 0, 48, 64
4, 114048, Note_on_c, 0, 46, 102
4, 114432, Note_off_c, 0, 46, 64
4, 114432, Note_on_c, 0, 45, 102
4, 114816, Note_off_c, 0, 45, 64
4, 120384, Note_on_c, 0, 50, 102
4, 120576, Note_off_c, 0, 50, 64
4, 120576, Note_on_c, 0, 46, 102
4, 120672, Note_off_c, 0, 46, 64
4, 120672, Note_on_c, 0, 48, 102
4, 120768, Note_off_c, 0, 48, 64
4, 120768, Note_on_c, 0, 45, 102
4, 120864, Note_off_c, 0, 45, 64
4, 120864, Note_on_c, 0, 46, 102
4, 120960, Note_off_c, 0, 46, 64
4, 120960, Note_on_c, 0, 43, 102
4, 121152, Note_off_c, 0, 43, 64
4, 121152, Note_on_c, 0, 55, 102
4, 121344, Note_off_c, 0, 55, 64
4, 121344, Note_on_c, 0, 54, 102
4, 121440, Note_off_c, 0, 54, 64
4, 121440, Note_on_c, 0, 55, 102
4, 121536, Note_off_c, 0, 55, 64
4, 121536, Note_on_c, 0, 52, 102
4, 121632, Note_off_c, 0, 52, 64
4, 121632, Note_on_c, 0, 54, 102
4, 121728, Note_off_c, 0, 54, 64
4, 121728, Note_on_c, 0, 50, 102
4, 121920, Note_off_c, 0, 50, 64
4, 121920, Note_on_c, 0, 55, 102
4, 122016, Note_off_c, 0, 55, 64
4, 122016, Note_on_c, 0, 50, 102
4, 122112, Note_off_c, 0, 50, 64
4, 122112, Note_on_c, 0, 51, 102
4, 122304, Note_off_c, 0, 51, 64
4, 122304, Note_on_c, 0, 48, 102
4, 122496, Note_off_c, 0, 48, 64
4, 122496, Note_on_c, 0, 41, 102
4, 122688, Note_off_c, 0, 41, 64
4, 122688, Note_on_c, 0, 53, 102
4, 122880, Note_off_c, 0, 53, 64
4, 122880, Note_on_c, 0, 50, 102
4, 122976, Note_off_c, 0, 50, 64
4, 122976, Note_on_c, 0, 51, 102
4, 123072, Note_off_c, 0, 51, 64
4, 123072, Note_on_c, 0, 48, 102
4, 123168, Note_off_c, 0, 48, 64
4, 123168, Note_on_c, 0, 50, 102
4, 123264, Note_off_c, 0, 50, 64
4, 123264, Note_on_c, 0, 46, 102
4, 123456, Note_off_c, 0, 46, 64
4, 123456, Note_on_c, 0, 51, 102
4, 123552, Note_off_c, 0, 51, 64
4, 123552, Note_on_c, 0, 46, 102
4, 123648, Note_off_c, 0, 46, 64
4, 123648, Note_on_c, 0, 48, 102
4, 123840, Note_off_c, 0, 48, 64
4, 123840, Note_on_c, 0, 45, 102
4, 124032, Note_off_c, 0, 45, 64
4, 124032, Note_on_c, 0, 38, 102
4, 124224, Note_off_c, 0, 38, 64
4, 124224, Note_on_c, 0, 50, 102
4, 124416, Note_off_c, 0, 50, 64
4, 124416, Note_on_c, 0, 46, 102
4, 124512, Note_off_c, 0, 46, 64
4, 124512, Note_on_c, 0, 48, 102
4, 124608, Note_off_c, 0, 48, 64
4, 124608, Note_on_c, 0, 45, 102
4, 124704, Note_off_c, 0, 45, 64
4, 124704, Note_on_c, 0, 46, 102
4, 124800, Note_off_c, 0, 46, 64
4, 124800, Note_on_c, 0, 43, 102
4, 124992, Note_off_c, 0, 43, 64
4, 124992, Note_on_c, 0, 55, 102
4, 125184, Note_off_c, 0, 55, 64
4, 125184, Note_on_c, 0, 53, 102
4, 125280, Note_off_c, 0, 53, 64
4, 125280, Note_on_c, 0, 55, 102
4, 125376, Note_off_c, 0, 55, 64
4, 125376, Note_on_c, 0, 51, 102
4, 125472, Note_off_c, 0, 51, 64
4, 125472, Note_on_c, 0, 53, 102
4, 125568, Note_off_c, 0, 53, 64
4, 125568, Note_on_c, 0, 50, 102
4, 125760, Note_off_c, 0, 50, 64
4, 125760, Note_on_c, 0, 58, 102
4, 125952, Note_off_c, 0, 58, 64
4, 125952, Note_on_c, 0, 57, 102
4, 126048, Note_off_c, 0, 57, 64
4, 126048, Note_on_c, 0, 58, 102
4, 126144, Note_off_c, 0, 58, 64
4, 126144, Note_on_c, 0, 55, 102
4, 126240, Note_off_c, 0, 55, 64
4, 126240, Note_on_c, 0, 57, 102
4, 126336, Note_off_c, 0, 57, 64
4, 126336, Note_on_c, 0, 53, 102
4, 126432, Note_off_c, 0, 53, 64
4, 126432, Note_on_c, 0, 55, 102
4, 126528, Note_off_c, 0, 55, 64
4, 126528, Note_on_c, 0, 51, 102
4, 126624, Note_off_c, 0, 51, 64
4, 126624, Note_on_c, 0, 53, 102
4, 126720, Note_off_c, 0, 53, 64
4, 126720, Note_on_c, 0, 50, 102
4, 126816, Note_off_c, 0, 50, 64
4, 126816, Note_on_c, 0, 51, 102
4, 126912, Note_off_c, 0, 51, 64
4, 126912, Note_on_c, 0, 48, 102
4, 127008, Note_off_c, 0, 48, 64
4, 127008, Note_on_c, 0, 50, 102
4, 127104, Note_off_c, 0, 50, 64
4, 127104, Note_on_c, 0, 46, 102
4, 127200, Note_off_c, 0, 46, 64
4, 127200, Note_on_c, 0, 58, 102
4, 127296, Note_off_c, 0, 58, 64
4, 127296, Note_on_c, 0, 57, 102
4, 127392, Note_off_c, 0, 57, 64
4, 127392, Note_on_c, 0, 58, 102
4, 127488, Note_off_c, 0, 58, 64
4, 127488, Note_on_c, 0, 55, 102
4, 127584, Note_off_c, 0, 55, 64
4, 127584, Note_on_c, 0, 57, 102
4, 127680, Note_off_c, 0, 57, 64
4, 127680, Note_on_c, 0, 53, 102
4, 127776, Note_off_c, 0, 53, 64
4, 127776, Note_on_c, 0, 55, 102
4, 127872, Note_off_c, 0, 55, 64
4, 127872, Note_on_c, 0, 51, 102
4, 127968, Note_off_c, 0, 51, 64
4, 127968, Note_on_c, 0, 53, 102
4, 128064, Note_off_c, 0, 53, 64
4, 128064, Note_on_c, 0, 50, 102
4, 128160, Note_off_c, 0, 50, 64
4, 128160, Note_on_c, 0, 51, 102
4, 128256, Note_off_c, 0, 51, 64
4, 128256, Note_on_c, 0, 48, 102
4, 128352, Note_off_c, 0, 48, 64
4, 128352, Note_on_c, 0, 50, 102
4, 128448, Note_off_c, 0, 50, 64
4, 128448, Note_on_c, 0, 46, 102
4, 128544, Note_off_c, 0, 46, 64
4, 128544, Note_on_c, 0, 48, 102
4, 128640, Note_off_c, 0, 48, 64
4, 128640, Note_on_c, 0, 45, 102
4, 128736, Note_off_c, 0, 45, 64
4, 128736, Note_on_c, 0, 57, 102
4, 128832, Note_off_c, 0, 57, 64
4, 128832, Note_on_c, 0, 55, 102
4, 128928, Note_off_c, 0, 55, 64
4, 128928, Note_on_c, 0, 57, 102
4, 129024, Note_off_c, 0, 57, 64
4, 129024, Note_on_c, 0, 53, 102
4, 129120, Note_off_c, 0, 53, 64
4, 129120, Note_on_c, 0, 55, 102
4, 129216, Note_off_c, 0, 55, 64
4, 129216, Note_on_c, 0, 51, 102
4, 129312, Note_off_c, 0, 51, 64
4, 129312, Note_on_c, 0, 53, 102
4, 129408, Note_off_c, 0, 53, 64
4, 129408, Note_on_c, 0, 50, 102
4, 129504, Note_off_c, 0, 50, 64
4, 129504, Note_on_c, 0, 51, 102
4, 129600, Note_off_c, 0, 51, 64
4, 129600, Note_on_c, 0, 48, 102
4, 129696, Note_off_c, 0, 48, 64
4, 129696, Note_on_c, 0, 50, 102
4, 129792, Note_off_c, 0, 50, 64
4, 129792, Note_on_c, 0, 46, 102
4, 129888, Note_off_c, 0, 46, 64
4, 129888, Note_on_c, 0, 48, 102
4, 129984, Note_off_c, 0, 48, 64
4, 129984, Note_on_c, 0, 45, 102
4, 130080, Note_off_c, 0, 45, 64
4, 130080, Note_on_c, 0, 46, 102
4, 130176, Note_off_c, 0, 46, 64
4, 130176, Note_on_c, 0, 43, 102
4, 130272, Note_off_c, 0, 43, 64
4, 130272, Note_on_c, 0, 48, 102
4, 130368, Note_off_c, 0, 48, 64
4, 130368, Note_on_c, 0, 46, 102
4, 130464, Note_off_c, 0, 46, 64
4, 130464, Note_on_c, 0, 48, 102
4, 130560, Note_off_c, 0, 48, 64
4, 130560, Note_on_c, 0, 41, 102
4, 130752, Note_off_c, 0, 41, 64
4, 130752, Note_on_c, 0, 53, 102
4, 130944, Note_off_c, 0, 53, 64
4, 130944, Note_on_c, 0, 55, 102
4, 131136, Note_off_c, 0, 55, 64
4, 131136, Note_on_c, 0, 57, 102
4, 131328, Note_off_c, 0, 57, 64
4, 131328, Note_on_c, 0, 58, 102
4, 131520, Note_off_c, 0, 58, 64
4, 131520, Note_on_c, 0, 51, 102
4, 131712, Note_off_c, 0, 51, 64
4, 131712, Note_on_c, 0, 53, 102
4, 131904, Note_off_c, 0, 53, 64
4, 131904, Note_on_c, 0, 41, 102
4, 132096, Note_off_c, 0, 41, 64
4, 132096, Note_on_c, 0, 46, 102
4, 132480, Note_off_c, 0, 46, 64
4, 159552, Note_on_c, 0, 48, 102
4, 159744, Note_off_c, 0, 48, 64
4, 159744, Note_on_c, 0, 45, 102
4, 159840, Note_off_c, 0, 45, 64
4, 159840, Note_on_c, 0, 46, 102
4, 159936, Note_off_c, 0, 46, 64
4, 159936, Note_on_c, 0, 43, 102
4, 160032, Note_off_c, 0, 43, 64
4, 160032, Note_on_c, 0, 45, 102
4, 160128, Note_off_c, 0, 45, 64
4, 160128, Note_on_c, 0, 41, 102
4, 160320, Note_off_c, 0, 41, 64
4, 160320, Note_on_c, 0, 53, 102
4, 160512, Note_off_c, 0, 53, 64
4, 160512, Note_on_c, 0, 52, 102
4, 160608, Note_off_c, 0, 52, 64
4, 160608, Note_on_c, 0, 53, 102
4, 160704, Note_off_c, 0, 53, 64
4, 160704, Note_on_c, 0, 50, 102
4, 160800, Note_off_c, 0, 50, 64
4, 160800, Note_on_c, 0, 52, 102
4, 160896, Note_off_c, 0, 52, 64
4, 160896, Note_on_c, 0, 48, 102
4, 161088, Note_off_c, 0, 48, 64
4, 161088, Note_on_c, 0, 53, 102
4, 161184, Note_off_c, 0, 53, 64
4, 161184, Note_on_c, 0, 48, 102
4, 161280, Note_off_c, 0, 48, 64
4, 161280, Note_on_c, 0, 50, 102
4, 161472, Note_off_c, 0, 50, 64
4, 161472, Note_on_c, 0, 46, 102
4, 161664, Note_off_c, 0, 46, 64
4, 161664, Note_on_c, 0, 40, 102
4, 161856, Note_off_c, 0, 40, 64
4, 161856, Note_on_c, 0, 52, 102
4, 162048, Note_off_c, 0, 52, 64
4, 162048, Note_on_c, 0, 48, 102
4, 162144, Note_off_c, 0, 48, 64
4, 162144, Note_on_c, 0, 50, 102
4, 162240, Note_off_c, 0, 50, 64
4, 162240, Note_on_c, 0, 46, 102
4, 162336, Note_off_c, 0, 46, 64
4, 162336, Note_on_c, 0, 48, 102
4, 162432, Note_off_c, 0, 48, 64
4, 162432, Note_on_c, 0, 45, 102
4, 162624, Note_off_c, 0, 45, 64
4, 162624, Note_on_c, 0, 50, 102
4, 162720, Note_off_c, 0, 50, 64
4, 162720, Note_on_c, 0, 45, 102
4, 162816, Note_off_c, 0, 45, 64
4, 162816, Note_on_c, 0, 46, 102
4, 163008, Note_off_c, 0, 46, 64
4, 163008, Note_on_c, 0, 43, 102
4, 163200, Note_off_c, 0, 43, 64
4, 163200, Note_on_c, 0, 36, 102
4, 163392, Note_off_c, 0, 36, 64
4, 163392, Note_on_c, 0, 48, 102
4, 163584, Note_off_c, 0, 48, 64
4, 163584, Note_on_c, 0, 45, 102
4, 163680, Note_off_c, 0, 45, 64
4, 163680, Note_on_c, 0, 46, 102
4, 163776, Note_off_c, 0, 46, 64
4, 163776, Note_on_c, 0, 43, 102
4, 163872, Note_off_c, 0, 43, 64
4, 163872, Note_on_c, 0, 45, 102
4, 163968, Note_off_c, 0, 45, 64
4, 163968, Note_on_c, 0, 41, 102
4, 164064, Note_off_c, 0, 41, 64
4, 164064, Note_on_c, 0, 45, 102
4, 164160, Note_off_c, 0, 45, 64
4, 164160, Note_on_c, 0, 43, 102
4, 164256, Note_off_c, 0, 43, 64
4, 164256, Note_on_c, 0, 46, 102
4, 164352, Note_off_c, 0, 46, 64
4, 164352, Note_on_c, 0, 45, 102
4, 164448, Note_off_c, 0, 45, 64
4, 164448, Note_on_c, 0, 46, 102
4, 164544, Note_off_c, 0, 46, 64
4, 164544, Note_on_c, 0, 43, 102
4, 164640, Note_off_c, 0, 43, 64
4, 164640, Note_on_c, 0, 45, 102
4, 164736, Note_off_c, 0, 45, 64
4, 164736, Note_on_c, 0, 41, 102
4, 164832, Note_off_c, 0, 41, 64
4, 164832, Note_on_c, 0, 45, 102
4, 164928, Note_off_c, 0, 45, 64
4, 164928, Note_on_c, 0, 43, 102
4, 165024, Note_off_c, 0, 43, 64
4, 165024, Note_on_c, 0, 46, 102
4, 165120, Note_off_c, 0, 46, 64
4, 165120, Note_on_c, 0, 45, 102
4, 165216, Note_off_c, 0, 45, 64
4, 165216, Note_on_c, 0, 48, 102
4, 165312, Note_off_c, 0, 48, 64
4, 165312, Note_on_c, 0, 47, 102
4, 165408, Note_off_c, 0, 47, 64
4, 165408, Note_on_c, 0, 50, 102
4, 165504, Note_off_c, 0, 50, 64
4, 165504, Note_on_c, 0, 48, 102
4, 165600, Note_off_c, 0, 48, 64
4, 165600, Note_on_c, 0, 51, 102
4, 165696, Note_off_c, 0, 51, 64
4, 165696, Note_on_c, 0, 50, 102
4, 165792, Note_off_c, 0, 50, 64
4, 165792, Note_on_c, 0, 53, 102
4, 165888, Note_off_c, 0, 53, 64
4, 165888, Note_on_c, 0, 51, 102
4, 165984, Note_off_c, 0, 51, 64
4, 165984, Note_on_c, 0, 53, 102
4, 166080, Note_off_c, 0, 53, 64
4, 166080, Note_on_c, 0, 50, 102
4, 166176, Note_off_c, 0, 50, 64
4, 166176, Note_on_c, 0, 51, 102
4, 166272, Note_off_c, 0, 51, 64
4, 166272, Note_on_c, 0, 48, 102
4, 166368, Note_off_c, 0, 48, 64
4, 166368, Note_on_c, 0, 51, 102
4, 166464, Note_off_c, 0, 51, 64
4, 166464, Note_on_c, 0, 50, 102
4, 166560, Note_off_c, 0, 50, 64
4, 166560, Note_on_c, 0, 53, 102
4, 166656, Note_off_c, 0, 53, 64
4, 166656, Note_on_c, 0, 51, 102
4, 166752, Note_off_c, 0, 51, 64
4, 166752, Note_on_c, 0, 53, 102
4, 166848, Note_off_c, 0, 53, 64
4, 166848, Note_on_c, 0, 50, 102
4, 166944, Note_off_c, 0, 50, 64
4, 166944, Note_on_c, 0, 51, 102
4, 167040, Note_off_c, 0, 51, 64
4, 167040, Note_on_c, 0, 48, 102
4, 167136, Note_off_c, 0, 48, 64
4, 167136, Note_on_c, 0, 51, 102
4, 167232, Note_off_c, 0, 51, 64
4, 167232, Note_on_c, 0, 50, 102
4, 167328, Note_off_c, 0, 50, 64
4, 167328, Note_on_c, 0, 53, 102
4, 167424, Note_off_c, 0, 53, 64
4, 167424, Note_on_c, 0, 52, 102
4, 167520, Note_off_c, 0, 52, 64
4, 167520, Note_on_c, 0, 55, 102
4, 167616, Note_off_c, 0, 55, 64
4, 167616, Note_on_c, 0, 54, 102
4, 167712, Note_off_c, 0, 54, 64
4, 167712, Note_on_c, 0, 57, 102
4, 167808, Note_off_c, 0, 57, 64
4, 167808, Note_on_c, 0, 55, 102
4, 167904, Note_off_c, 0, 55, 64
4, 167904, Note_on_c, 0, 58, 102
4, 168000, Note_off_c, 0, 58, 64
4, 168000, Note_on_c, 0, 57, 102
4, 168096, Note_off_c, 0, 57, 64
4, 168096, Note_on_c, 0, 60, 102
4, 168192, Note_off_c, 0, 60, 64
4, 168192, Note_on_c, 0, 58, 102
4, 168288, Note_off_c, 0, 58, 64
4, 168288, Note_on_c, 0, 60, 102
4, 168384, Note_off_c, 0, 60, 64
4, 168384, Note_on_c, 0, 57, 102
4, 168480, Note_off_c, 0, 57, 64
4, 168480, Note_on_c, 0, 58, 102
4, 168576, Note_off_c, 0, 58, 64
4, 168576, Note_on_c, 0, 55, 102
4, 168672, Note_off_c, 0, 55, 64
4, 168672, Note_on_c, 0, 58, 102
4, 168768, Note_off_c, 0, 58, 64
4, 168768, Note_on_c, 0, 57, 102
4, 168864, Note_off_c, 0, 57, 64
4, 168864, Note_on_c, 0, 60, 102
4, 168960, Note_off_c, 0, 60, 64
4, 168960, Note_on_c, 0, 58, 102
4, 169056, Note_off_c, 0, 58, 64
4, 169056, Note_on_c, 0, 60, 102
4, 169152, Note_off_c, 0, 60, 64
4, 169152, Note_on_c, 0, 57, 102
4, 169248, Note_off_c, 0, 57, 64
4, 169248, Note_on_c, 0, 60, 102
4, 169344, Note_off_c, 0, 60, 64
4, 169344, Note_on_c, 0, 58, 102
4, 169440, Note_off_c, 0, 58, 64
4, 169440, Note_on_c, 0, 60, 102
4, 169536, Note_off_c, 0, 60, 64
4, 169536, Note_on_c, 0, 57, 102
4, 169632, Note_off_c, 0, 57, 64
4, 169632, Note_on_c, 0, 58, 102
4, 169728, Note_off_c, 0, 58, 64
4, 169728, Note_on_c, 0, 55, 102
4, 169824, Note_off_c, 0, 55, 64
4, 169824, Note_on_c, 0, 57, 102
4, 169920, Note_off_c, 0, 57, 64
4, 169920, Note_on_c, 0, 54, 102
4, 170016, Note_off_c, 0, 54, 64
4, 170016, Note_on_c, 0, 57, 102
4, 170112, Note_off_c, 0, 57, 64
4, 170112, Note_on_c, 0, 55, 102
4, 170208, Note_off_c, 0, 55, 64
4, 170208, Note_on_c, 0, 57, 102
4, 170304, Note_off_c, 0, 57, 64
4, 170304, Note_on_c, 0, 53, 102
4, 170400, Note_off_c, 0, 53, 64
4, 170400, Note_on_c, 0, 55, 102
4, 170496, Note_off_c, 0, 55, 64
4, 170496, Note_on_c, 0, 51, 102
4, 170592, Note_off_c, 0, 51, 64
4, 170592, Note_on_c, 0, 53, 102
4, 170688, Note_off_c, 0, 53, 64
4, 170688, Note_on_c, 0, 50, 102
4, 170784, Note_off_c, 0, 50, 64
4, 170784, Note_on_c, 0, 53, 102
4, 170880, Note_off_c, 0, 53, 64
4, 170880, Note_on_c, 0, 51, 102
4, 170976, Note_off_c, 0, 51, 64
4, 170976, Note_on_c, 0, 53, 102
4, 171072, Note_off_c, 0, 53, 64
4, 171072, Note_on_c, 0, 50, 102
4, 171168, Note_off_c, 0, 50, 64
4, 171168, Note_on_c, 0, 51, 102
4, 171264, Note_off_c, 0, 51, 64
4, 171264, Note_on_c, 0, 48, 102
4, 171360, Note_off_c, 0, 48, 64
4, 171360, Note_on_c, 0, 50, 102
4, 171456, Note_off_c, 0, 50, 64
4, 171456, Note_on_c, 0, 46, 102
4, 171552, Note_off_c, 0, 46, 64
4, 171552, Note_on_c, 0, 50, 102
4, 171648, Note_off_c, 0, 50, 64
4, 171648, Note_on_c, 0, 48, 102
4, 171744, Note_off_c, 0, 48, 64
4, 171744, Note_on_c, 0, 50, 102
4, 171840, Note_off_c, 0, 50, 64
4, 171840, Note_on_c, 0, 46, 102
4, 171936, Note_off_c, 0, 46, 64
4, 171936, Note_on_c, 0, 48, 102
4, 172032, Note_off_c, 0, 48, 64
4, 172032, Note_on_c, 0, 45, 102
4, 172128, Note_off_c, 0, 45, 64
4, 172128, Note_on_c, 0, 46, 102
4, 172224, Note_off_c, 0, 46, 64
4, 172224, Note_on_c, 0, 43, 102
4, 172320, Note_off_c, 0, 43, 64
4, 172320, Note_on_c, 0, 45, 102
4, 172416, Note_off_c, 0, 45, 64
4, 172416, Note_on_c, 0, 42, 102
4, 172608, Note_off_c, 0, 42, 64
4, 172608, Note_on_c, 0, 38, 102
4, 172800, Note_off_c, 0, 38, 64
4, 172800, Note_on_c, 0, 43, 102
4, 172992, Note_off_c, 0, 43, 64
4, 172992, Note_on_c, 0, 41, 102
4, 173184, Note_off_c, 0, 41, 64
4, 173184, Note_on_c, 0, 39, 102
4, 173568, Note_off_c, 0, 39, 64
4, 173568, Note_on_c, 0, 38, 102
4, 176832, Note_off_c, 0, 38, 64
4, 176832, Note_on_c, 0, 42, 102
4, 177024, Note_off_c, 0, 42, 64
4, 177024, Note_on_c, 0, 43, 102
4, 177216, Note_off_c, 0, 43, 64
4, 177216, Note_on_c, 0, 46, 102
4, 177408, Note_off_c, 0, 46, 64
4, 177408, Note_on_c, 0, 48, 102
4, 177600, Note_off_c, 0, 48, 64
4, 177600, Note_on_c, 0, 51, 102
4, 177792, Note_off_c, 0, 51, 64
4, 177792, Note_on_c, 0, 53, 102
4, 177984, Note_off_c, 0, 53, 64
4, 177984, Note_on_c, 0, 45, 102
4, 178176, Note_off_c, 0, 45, 64
4, 178176, Note_on_c, 0, 46, 102
4, 178368, Note_off_c, 0, 46, 64
4, 178368, Note_on_c, 0, 50, 102
4, 178560, Note_off_c, 0, 50, 64
4, 178560, Note_on_c, 0, 51, 102
4, 178752, Note_off_c, 0, 51, 64
4, 178752, Note_on_c, 0, 43, 102
4, 178944, Note_off_c, 0, 43, 64
4, 178944, Note_on_c, 0, 45, 102
4, 179136, Note_off_c, 0, 45, 64
4, 179136, Note_on_c, 0, 48, 102
4, 179328, Note_off_c, 0, 48, 64
4, 179328, Note_on_c, 0, 50, 102
4, 179520, Note_off_c, 0, 50, 64
4, 179520, Note_on_c, 0, 38, 102
4, 179712, Note_off_c, 0, 38, 64
4, 179712, Note_on_c, 0, 43, 102
4, 180096, Note_off_c, 0, 43, 64
4, 180288, Note_on_c, 0, 38, 102
4, 180480, Note_off_c, 0, 38, 64
4, 180480, Note_on_c, 0, 43, 102
4, 180864, Note_off_c, 0, 43, 64
4, 181056, Note_on_c, 0, 38, 102
4, 181248, Note_off_c, 0, 38, 64
4, 181248, Note_on_c, 0, 43, 102
4, 181440, Note_off_c, 0, 43, 64
4, 181440, Note_on_c, 0, 50, 102
4, 181632, Note_off_c, 0, 50, 64
4, 181632, Note_on_c, 0, 55, 102
4, 181824, Note_off_c, 0, 55, 64
4, 181824, Note_on_c, 0, 54, 102
4, 182016, Note_off_c, 0, 54, 64
4, 182016, Note_on_c, 0, 55, 102
4, 182208, Note_off_c, 0, 55, 64
4, 182208, Note_on_c, 0, 51, 102
4, 182400, Note_off_c, 0, 51, 64
4, 182400, Note_on_c, 0, 47, 102
4, 182592, Note_off_c, 0, 47, 64
4, 182592, Note_on_c, 0, 43, 102
4, 182784, Note_off_c, 0, 43, 64
4, 182784, Note_on_c, 0, 48, 102
4, 183168, Note_off_c, 0, 48, 64
4, 183360, Note_on_c, 0, 55, 102
4, 183552, Note_off_c, 0, 55, 64
4, 183552, Note_on_c, 0, 48, 102
4, 183936, Note_off_c, 0, 48, 64
4, 184128, Note_on_c, 0, 43, 102
4, 184320, Note_off_c, 0, 43, 64
4, 184320, Note_on_c, 0, 48, 102
4, 184512, Note_off_c, 0, 48, 64
4, 184512, Note_on_c, 0, 55, 102
4, 184704, Note_off_c, 0, 55, 64
4, 184704, Note_on_c, 0, 60, 102
4, 184896, Note_off_c, 0, 60, 64
4, 184896, Note_on_c, 0, 59, 102
4, 185088, Note_off_c, 0, 59, 64
4, 185088, Note_on_c, 0, 60, 102
4, 185280, Note_off_c, 0, 60, 64
4, 185280, Note_on_c, 0, 56, 102
4, 185472, Note_off_c, 0, 56, 64
4, 185472, Note_on_c, 0, 53, 102
4, 185664, Note_off_c, 0, 53, 64
4, 185664, Note_on_c, 0, 50, 102
4, 185856, Note_off_c, 0, 50, 64
4, 185856, Note_on_c, 0, 55, 102
4, 186048, Note_off_c, 0, 55, 64
4, 186048, Note_on_c, 0, 50, 102
4, 186240, Note_off_c, 0, 50, 64
4, 186240, Note_on_c, 0, 47, 102
4, 186432, Note_off_c, 0, 47, 64
4, 186432, Note_on_c, 0, 43, 102
4, 186624, Note_off_c, 0, 43, 64
4, 186624, Note_on_c, 0, 48, 102
4, 186816, Note_off_c, 0, 48, 64
4, 186816, Note_on_c, 0, 43, 102
4, 187008, Note_off_c, 0, 43, 64
4, 187008, Note_on_c, 0, 39, 102
4, 187200, Note_off_c, 0, 39, 64
4, 187200, Note_on_c, 0, 36, 102
4, 187392, Note_off_c, 0, 36, 64
4, 187392, Note_on_c, 0, 43, 102
4, 187584, Note_off_c, 0, 43, 64
4, 187584, Note_on_c, 0, 55, 102
4, 187776, Note_off_c, 0, 55, 64
4, 187776, Note_on_c, 0, 48, 102
4, 187968, Note_off_c, 0, 48, 64
4, 187968, Note_on_c, 0, 51, 102
4, 188160, Note_off_c, 0, 51, 64
4, 188160, Note_on_c, 0, 53, 102
4, 188256, Note_off_c, 0, 53, 64
4, 188256, Note_on_c, 0, 48, 102
4, 188352, Note_off_c, 0, 48, 64
4, 188352, Note_on_c, 0, 56, 102
4, 188640, Note_off_c, 0, 56, 64
4, 188640, Note_on_c, 0, 46, 102
4, 188736, Note_off_c, 0, 46, 64
4, 188736, Note_on_c, 0, 50, 102
4, 188832, Note_off_c, 0, 50, 64
4, 188832, Note_on_c, 0, 46, 102
4, 188928, Note_off_c, 0, 46, 64
4, 188928, Note_on_c, 0, 51, 102
4, 189024, Note_off_c, 0, 51, 64
4, 189024, Note_on_c, 0, 46, 102
4, 189120, Note_off_c, 0, 46, 64
4, 189120, Note_on_c, 0, 55, 102
4, 189408, Note_off_c, 0, 55, 64
4, 189408, Note_on_c, 0, 44, 102
4, 189504, Note_off_c, 0, 44, 64
4, 189504, Note_on_c, 0, 48, 102
4, 189600, Note_off_c, 0, 48, 64
4, 189600, Note_on_c, 0, 44, 102
4, 189696, Note_off_c, 0, 44, 64
4, 189696, Note_on_c, 0, 50, 102
4, 189792, Note_off_c, 0, 50, 64
4, 189792, Note_on_c, 0, 44, 102
4, 189888, Note_off_c, 0, 44, 64
4, 189888, Note_on_c, 0, 53, 102
4, 190176, Note_off_c, 0, 53, 64
4, 190176, Note_on_c, 0, 43, 102
4, 190272, Note_off_c, 0, 43, 64
4, 190272, Note_on_c, 0, 47, 102
4, 190368, Note_off_c, 0, 47, 64
4, 190368, Note_on_c, 0, 43, 102
4, 190464, Note_off_c, 0, 43, 64
4, 190464, Note_on_c, 0, 48, 102
4, 190560, Note_off_c, 0, 48, 64
4, 190560, Note_on_c, 0, 43, 102
4, 190656, Note_off_c, 0, 43, 64
4, 190656, Note_on_c, 0, 50, 102
4, 190752, Note_off_c, 0, 50, 64
4, 190752, Note_on_c, 0, 43, 102
4, 190848, Note_off_c, 0, 43, 64
4, 190848, Note_on_c, 0, 51, 102
4, 190944, Note_off_c, 0, 51, 64
4, 190944, Note_on_c, 0, 43, 102
4, 191040, Note_off_c, 0, 43, 64
4, 191040, Note_on_c, 0, 53, 102
4, 191136, Note_off_c, 0, 53, 64
4, 191136, Note_on_c, 0, 43, 102
4, 191232, Note_off_c, 0, 43, 64
4, 191232, Note_on_c, 0, 55, 102
4, 191328, Note_off_c, 0, 55, 64
4, 191328, Note_on_c, 0, 43, 102
4, 191424, Note_off_c, 0, 43, 64
4, 191424, Note_on_c, 0, 57, 102
4, 191520, Note_off_c, 0, 57, 64
4, 191520, Note_on_c, 0, 43, 102
4, 191616, Note_off_c, 0, 43, 64
4, 191616, Note_on_c, 0, 59, 102
4, 191712, Note_off_c, 0, 59, 64
4, 191712, Note_on_c, 0, 43, 102
4, 191808, Note_off_c, 0, 43, 64
4, 191808, Note_on_c, 0, 55, 102
4, 191904, Note_off_c, 0, 55, 64
4, 191904, Note_on_c, 0, 43, 102
4, 192000, Note_off_c, 0, 43, 64
4, 192000, Note_on_c, 0, 60, 102
4, 192384, Note_off_c, 0, 60, 64
4, 193248, Note_on_c, 0, 55, 102
4, 193344, Note_off_c, 0, 55, 64
4, 193344, Note_on_c, 0, 53, 102
4, 193440, Note_off_c, 0, 53, 64
4, 193440, Note_on_c, 0, 55, 102
4, 193536, Note_off_c, 0, 55, 64
4, 193536, Note_on_c, 0, 51, 102
4, 193632, Note_off_c, 0, 51, 64
4, 193632, Note_on_c, 0, 53, 102
4, 193728, Note_off_c, 0, 53, 64
4, 193728, Note_on_c, 0, 50, 102
4, 193824, Note_off_c, 0, 50, 64
4, 193824, Note_on_c, 0, 51, 102
4, 193920, Note_off_c, 0, 51, 64
4, 193920, Note_on_c, 0, 48, 102
4, 194016, Note_off_c, 0, 48, 64
4, 194016, Note_on_c, 0, 50, 102
4, 194112, Note_off_c, 0, 50, 64
4, 194112, Note_on_c, 0, 48, 102
4, 194208, Note_off_c, 0, 48, 64
4, 194208, Note_on_c, 0, 50, 102
4, 194304, Note_off_c, 0, 50, 64
4, 194304, Note_on_c, 0, 47, 102
4, 194400, Note_off_c, 0, 47, 64
4, 194400, Note_on_c, 0, 48, 102
4, 194496, Note_off_c, 0, 48, 64
4, 194496, Note_on_c, 0, 45, 102
4, 194592, Note_off_c, 0, 45, 64
4, 194592, Note_on_c, 0, 47, 102
4, 194688, Note_off_c, 0, 47, 64
4, 194688, Note_on_c, 0, 43, 102
4, 194880, Note_off_c, 0, 43, 64
4, 194880, Note_on_c, 0, 55, 102
4, 195072, Note_off_c, 0, 55, 64
4, 195072, Note_on_c, 0, 51, 102
4, 195264, Note_off_c, 0, 51, 64
4, 195264, Note_on_c, 0, 48, 102
4, 195456, Note_off_c, 0, 48, 64
4, 195456, Note_on_c, 0, 53, 102
4, 195648, Note_off_c, 0, 53, 64
4, 195648, Note_on_c, 0, 51, 102
4, 195840, Note_off_c, 0, 51, 64
4, 195840, Note_on_c, 0, 50, 102
4, 196032, Note_off_c, 0, 50, 64
4, 196032, Note_on_c, 0, 46, 102
4, 196224, Note_off_c, 0, 46, 64
4, 196224, Note_on_c, 0, 51, 102
4, 196416, Note_off_c, 0, 51, 64
4, 196416, Note_on_c, 0, 50, 102
4, 196608, Note_off_c, 0, 50, 64
4, 196608, Note_on_c, 0, 48, 102
4, 196800, Note_off_c, 0, 48, 64
4, 196800, Note_on_c, 0, 46, 102
4, 196992, Note_off_c, 0, 46, 64
4, 196992, Note_on_c, 0, 48, 102
4, 197184, Note_off_c, 0, 48, 64
4, 197184, Note_on_c, 0, 44, 102
4, 197376, Note_off_c, 0, 44, 64
4, 197376, Note_on_c, 0, 46, 102
4, 197760, Note_off_c, 0, 46, 64
4, 197952, Note_on_c, 0, 46, 102
4, 198144, Note_off_c, 0, 46, 64
4, 198144, Note_on_c, 0, 39, 102
4, 198528, Note_off_c, 0, 39, 64
4, 202176, Note_on_c, 0, 46, 102
4, 202368, Note_off_c, 0, 46, 64
4, 202368, Note_on_c, 0, 51, 102
4, 202560, Note_off_c, 0, 51, 64
4, 202560, Note_on_c, 0, 50, 102
4, 202752, Note_off_c, 0, 50, 64
4, 202752, Note_on_c, 0, 51, 102
4, 203136, Note_off_c, 0, 51, 64
4, 203712, Note_on_c, 0, 46, 102
4, 203904, Note_off_c, 0, 46, 64
4, 203904, Note_on_c, 0, 51, 102
4, 204096, Note_off_c, 0, 51, 64
4, 204096, Note_on_c, 0, 50, 102
4, 204288, Note_off_c, 0, 50, 64
4, 204288, Note_on_c, 0, 51, 102
4, 204480, Note_off_c, 0, 51, 64
4, 204480, Note_on_c, 0, 53, 102
4, 204672, Note_off_c, 0, 53, 64
4, 204672, Note_on_c, 0, 55, 102
4, 204864, Note_off_c, 0, 55, 64
4, 204864, Note_on_c, 0, 57, 102
4, 205056, Note_off_c, 0, 57, 64
4, 205056, Note_on_c, 0, 58, 102
4, 205248, Note_off_c, 0, 58, 64
4, 206784, Note_on_c, 0, 41, 102
4, 206976, Note_off_c, 0, 41, 64
4, 206976, Note_on_c, 0, 46, 102
4, 207168, Note_off_c, 0, 46, 64
4, 207168, Note_on_c, 0, 45, 102
4, 207360, Note_off_c, 0, 45, 64
4, 207360, Note_on_c, 0, 46, 102
4, 207552, Note_off_c, 0, 46, 64
4, 207552, Note_on_c, 0, 48, 102
4, 207744, Note_off_c, 0, 48, 64
4, 207744, Note_on_c, 0, 50, 102
4, 207936, Note_off_c, 0, 50, 64
4, 207936, Note_on_c, 0, 52, 102
4, 208128, Note_off_c, 0, 52, 64
4, 208128, Note_on_c, 0, 53, 102
4, 208512, Note_off_c, 0, 53, 64
4, 208896, Note_on_c, 0, 46, 102
4, 209088, Note_off_c, 0, 46, 64
4, 209088, Note_on_c, 0, 48, 102
4, 209280, Note_off_c, 0, 48, 64
4, 209280, Note_on_c, 0, 49, 102
4, 209472, Note_off_c, 0, 49, 64
4, 209472, Note_on_c, 0, 46, 102
4, 209664, Note_off_c, 0, 46, 64
4, 209664, Note_on_c, 0, 51, 102
4, 210048, Note_off_c, 0, 51, 64
4, 210432, Note_on_c, 0, 44, 102
4, 210624, Note_off_c, 0, 44, 64
4, 210624, Note_on_c, 0, 46, 102
4, 210816, Note_off_c, 0, 46, 64
4, 210816, Note_on_c, 0, 48, 102
4, 211008, Note_off_c, 0, 48, 64
4, 211008, Note_on_c, 0, 44, 102
4, 211200, Note_off_c, 0, 44, 64
4, 211200, Note_on_c, 0, 49, 102
4, 211584, Note_off_c, 0, 49, 64
4, 211968, Note_on_c, 0, 55, 102
4, 212064, Note_off_c, 0, 55, 64
4, 212064, Note_on_c, 0, 56, 102
4, 212160, Note_off_c, 0, 56, 64
4, 212160, Note_on_c, 0, 53, 102
4, 212256, Note_off_c, 0, 53, 64
4, 212256, Note_on_c, 0, 55, 102
4, 212352, Note_off_c, 0, 55, 64
4, 212352, Note_on_c, 0, 51, 102
4, 212448, Note_off_c, 0, 51, 64
4, 212448, Note_on_c, 0, 53, 102
4, 212544, Note_off_c, 0, 53, 64
4, 212544, Note_on_c, 0, 50, 102
4, 212640, Note_off_c, 0, 50, 64
4, 212640, Note_on_c, 0, 51, 102
4, 212736, Note_off_c, 0, 51, 64
4, 212736, Note_on_c, 0, 48, 102
4, 213120, Note_off_c, 0, 48, 64
4, 213312, Note_on_c, 0, 43, 102
4, 213504, Note_off_c, 0, 43, 64
4, 213504, Note_on_c, 0, 48, 102
4, 213888, Note_off_c, 0, 48, 64
4, 214080, Note_on_c, 0, 43, 102
4, 214272, Note_off_c, 0, 43, 64
4, 214272, Note_on_c, 0, 36, 102
4, 214464, Note_off_c, 0, 36, 64
4, 214464, Note_on_c, 0, 43, 102
4, 214656, Note_off_c, 0, 43, 64
4, 214656, Note_on_c, 0, 48, 102
4, 214848, Note_off_c, 0, 48, 64
4, 214848, Note_on_c, 0, 47, 102
4, 215040, Note_off_c, 0, 47, 64
4, 215040, Note_on_c, 0, 48, 102
4, 215232, Note_off_c, 0, 48, 64
4, 215232, Note_on_c, 0, 50, 102
4, 215424, Note_off_c, 0, 50, 64
4, 215424, Note_on_c, 0, 52, 102
4, 215616, Note_off_c, 0, 52, 64
4, 215616, Note_on_c, 0, 54, 102
4, 215808, Note_off_c, 0, 54, 64
4, 215808, Note_on_c, 0, 55, 102
4, 216192, Note_off_c, 0, 55, 64
4, 216384, Note_on_c, 0, 50, 102
4, 216576, Note_off_c, 0, 50, 64
4, 216576, Note_on_c, 0, 55, 102
4, 216960, Note_off_c, 0, 55, 64
4, 217152, Note_on_c, 0, 50, 102
4, 217344, Note_off_c, 0, 50, 64
4, 217344, Note_on_c, 0, 43, 102
4, 217536, Note_off_c, 0, 43, 64
4, 217536, Note_on_c, 0, 50, 102
4, 217728, Note_off_c, 0, 50, 64
4, 217728, Note_on_c, 0, 55, 102
4, 217920, Note_off_c, 0, 55, 64
4, 217920, Note_on_c, 0, 54, 102
4, 218112, Note_off_c, 0, 54, 64
4, 218112, Note_on_c, 0, 55, 102
4, 218304, Note_off_c, 0, 55, 64
4, 218304, Note_on_c, 0, 57, 102
4, 218496, Note_off_c, 0, 57, 64
4, 218496, Note_on_c, 0, 58, 102
4, 218688, Note_off_c, 0, 58, 64
4, 218688, Note_on_c, 0, 60, 102
4, 218880, Note_off_c, 0, 60, 64
4, 218880, Note_on_c, 0, 62, 102
4, 219072, Note_off_c, 0, 62, 64
4, 219072, Note_on_c, 0, 50, 102
4, 219264, Note_off_c, 0, 50, 64
4, 244800, Note_on_c, 0, 50, 102
4, 244992, Note_off_c, 0, 50, 64
4, 244992, Note_on_c, 0, 46, 102
4, 245088, Note_off_c, 0, 46, 64
4, 245088, Note_on_c, 0, 48, 102
4, 245184, Note_off_c, 0, 48, 64
4, 245184, Note_on_c, 0, 45, 102
4, 245280, Note_off_c, 0, 45, 64
4, 245280, Note_on_c, 0, 46, 102
4, 245376, Note_off_c, 0, 46, 64
4, 245376, Note_on_c, 0, 43, 102
4, 245568, Note_off_c, 0, 43, 64
4, 245568, Note_on_c, 0, 55, 102
4, 245760, Note_off_c, 0, 55, 64
4, 245760, Note_on_c, 0, 54, 102
4, 245856, Note_off_c, 0, 54, 64
4, 245856, Note_on_c, 0, 55, 102
4, 245952, Note_off_c, 0, 55, 64
4, 245952, Note_on_c, 0, 52, 102
4, 246048, Note_off_c, 0, 52, 64
4, 246048, Note_on_c, 0, 54, 102
4, 246144, Note_off_c, 0, 54, 64
4, 246144, Note_on_c, 0, 50, 102
4, 246336, Note_off_c, 0, 50, 64
4, 246336, Note_on_c, 0, 55, 102
4, 246432, Note_off_c, 0, 55, 64
4, 246432, Note_on_c, 0, 50, 102
4, 246528, Note_off_c, 0, 50, 64
4, 246528, Note_on_c, 0, 51, 102
4, 246720, Note_off_c, 0, 51, 64
4, 246720, Note_on_c, 0, 48, 102
4, 246912, Note_off_c, 0, 48, 64
4, 246912, Note_on_c, 0, 41, 102
4, 247104, Note_off_c, 0, 41, 64
4, 247104, Note_on_c, 0, 53, 102
4, 247296, Note_off_c, 0, 53, 64
4, 247296, Note_on_c, 0, 50, 102
4, 247392, Note_off_c, 0, 50, 64
4, 247392, Note_on_c, 0, 51, 102
4, 247488, Note_off_c, 0, 51, 64
4, 247488, Note_on_c, 0, 48, 102
4, 247584, Note_off_c, 0, 48, 64
4, 247584, Note_on_c, 0, 50, 102
4, 247680, Note_off_c, 0, 50, 64
4, 247680, Note_on_c, 0, 46, 102
4, 247872, Note_off_c, 0, 46, 64
4, 247872, Note_on_c, 0, 51, 102
4, 247968, Note_off_c, 0, 51, 64
4, 247968, Note_on_c, 0, 46, 102
4, 248064, Note_off_c, 0, 46, 64
4, 248064, Note_on_c, 0, 48, 102
4, 248256, Note_off_c, 0, 48, 64
4, 248256, Note_on_c, 0, 45, 102
4, 248448, Note_off_c, 0, 45, 64
4, 248448, Note_on_c, 0, 38, 102
4, 248640, Note_off_c, 0, 38, 64
4, 248640, Note_on_c, 0, 50, 102
4, 248832, Note_off_c, 0, 50, 64
4, 248832, Note_on_c, 0, 46, 102
4, 248928, Note_off_c, 0, 46, 64
4, 248928, Note_on_c, 0, 48, 102
4, 249024, Note_off_c, 0, 48, 64
4, 249024, Note_on_c, 0, 45, 102
4, 249120, Note_off_c, 0, 45, 64
4, 249120, Note_on_c, 0, 46, 102
4, 249216, Note_off_c, 0, 46, 64
4, 249216, Note_on_c, 0, 43, 102
4, 249312, Note_off_c, 0, 43, 64
4, 249312, Note_on_c, 0, 46, 102
4, 249408, Note_off_c, 0, 46, 64
4, 249408, Note_on_c, 0, 45, 102
4, 249504, Note_off_c, 0, 45, 64
4, 249504, Note_on_c, 0, 48, 102
4, 249600, Note_off_c, 0, 48, 64
4, 249600, Note_on_c, 0, 46, 102
4, 249696, Note_off_c, 0, 46, 64
4, 249696, Note_on_c, 0, 48, 102
4, 249792, Note_off_c, 0, 48, 64
4, 249792, Note_on_c, 0, 45, 102
4, 249888, Note_off_c, 0, 45, 64
4, 249888, Note_on_c, 0, 46, 102
4, 249984, Note_off_c, 0, 46, 64
4, 249984, Note_on_c, 0, 43, 102
4, 250080, Note_off_c, 0, 43, 64
4, 250080, Note_on_c, 0, 46, 102
4, 250176, Note_off_c, 0, 46, 64
4, 250176, Note_on_c, 0, 45, 102
4, 250272, Note_off_c, 0, 45, 64
4, 250272, Note_on_c, 0, 48, 102
4, 250368, Note_off_c, 0, 48, 64
4, 250368, Note_on_c, 0, 46, 102
4, 250464, Note_off_c, 0, 46, 64
4, 250464, Note_on_c, 0, 48, 102
4, 250560, Note_off_c, 0, 48, 64
4, 250560, Note_on_c, 0, 45, 102
4, 250656, Note_off_c, 0, 45, 64
4, 250656, Note_on_c, 0, 46, 102
4, 250752, Note_off_c, 0, 46, 64
4, 250752, Note_on_c, 0, 43, 102
4, 250848, Note_off_c, 0, 43, 64
4, 250848, Note_on_c, 0, 46, 102
4, 250944, Note_off_c, 0, 46, 64
4, 250944, Note_on_c, 0, 45, 102
4, 251040, Note_off_c, 0, 45, 64
4, 251040, Note_on_c, 0, 48, 102
4, 251136, Note_off_c, 0, 48, 64
4, 251136, Note_on_c, 0, 46, 102
4, 251232, Note_off_c, 0, 46, 64
4, 251232, Note_on_c, 0, 50, 102
4, 251328, Note_off_c, 0, 50, 64
4, 251328, Note_on_c, 0, 48, 102
4, 251424, Note_off_c, 0, 48, 64
4, 251424, Note_on_c, 0, 51, 102
4, 251520, Note_off_c, 0, 51, 64
4, 251520, Note_on_c, 0, 50, 102
4, 251712, Note_off_c, 0, 50, 64
4, 251712, Note_on_c, 0, 38, 102
4, 251904, Note_off_c, 0, 38, 64
4, 251904, Note_on_c, 0, 43, 102
4, 252480, Note_off_c, 0, 43, 64
4, 253440, End_track
0, 0, End_of_file
