0, 0, Header, 1, 9, 1024
1, 0, Start_track
1, 0, Time_signature, 4, 2, 24, 8
1, 0, Key_signature, -2, "minor"
1, 0, Tempo, 833333
1, 98304, End_track
2, 0, Start_track
2, 0, Title_t, "Instrument 1"
2, 0, Note_on_c, 0, 74, 96
2, 1024, Note_off_c, 0, 74, 0
2, 1024, Note_on_c, 0, 74, 96
2, 2048, Note_off_c, 0, 74, 0
2, 2048, Note_on_c, 0, 69, 96
2, 3072, Note_off_c, 0, 69, 0
2, 3072, Note_on_c, 0, 71, 96
2, 4096, Note_off_c, 0, 71, 0
2, 4096, Note_on_c, 0, 72, 96
2, 5120, Note_off_c, 0, 72, 0
2, 5120, Note_on_c, 0, 70, 96
2, 6144, Note_off_c, 0, 70, 0
2, 6144, Note_on_c, 0, 69, 96
2, 8192, Note_off_c, 0, 69, 0
2, 8192, Note_on_c, 0, 67, 96
2, 9216, Note_off_c, 0, 67, 0
2, 12288, Note_on_c, 0, 70, 96
2, 13312, Note_off_c, 0, 70, 0
2, 13312, Note_on_c, 0, 70, 96
2, 14336, Note_off_c, 0, 70, 0
2, 14336, Note_on_c, 0, 69, 96
2, 15360, Note_off_c, 0, 69, 0
2, 15360, Note_on_c, 0, 67, 96
2, 16384, Note_off_c, 0, 67, 0
2, 16384, Note_on_c, 0, 66, 96
2, 17408, Note_off_c, 0, 66, 0
2, 17408, Note_on_c, 0, 67, 96
2, 18432, Note_off_c, 0, 67, 0
2, 18432, Note_on_c, 0, 69, 96
2, 19456, Note_off_c, 0, 69, 0
2, 22528, Note_on_c, 0, 74, 96
2, 23552, Note_off_c, 0, 74, 0
2, 23552, Note_on_c, 0, 74, 96
2, 24576, Note_off_c, 0, 74, 0
2, 24576, Note_on_c, 0, 69, 96
2, 26112, Note_off_c, 0, 69, 0
2, 26112, Note_on_c, 0, 70, 96
2, 26624, Note_off_c, 0, 70, 0
2, 26624, Note_on_c, 0, 72, 96
2, 27648, Note_off_c, 0, 72, 0
2, 27648, Note_on_c, 0, 70, 96
2, 28672, Note_off_c, 0, 70, 0
2, 28672, Note_on_c, 0, 69, 96
2, 30720, Note_off_c, 0, 69, 0
2, 30720, Note_on_c, 0, 67, 96
2, 32768, Note_off_c, 0, 67, 0
2, 34816, Note_on_c, 0, 70, 96
2, 35840, Note_off_c, 0, 70, 0
2, 35840, Note_on_c, 0, 70, 96
2, 36864, Note_off_c, 0, 70, 0
2, 36864, Note_on_c, 0, 69, 96
2, 37888, Note_off_c, 0, 69, 0
2, 37888, Note_on_c, 0, 67, 96
2, 38912, Note_off_c, 0, 67, 0
2, 38912, Note_on_c, 0, 66, 96
2, 39936, Note_off_c, 0, 66, 0
2, 39936, Note_on_c, 0, 67, 96
2, 40960, Note_off_c, 0, 67, 0
2, 40960, Note_on_c, 0, 69, 96
2, 41984, Note_off_c, 0, 69, 0
2, 45056, Note_on_c, 0, 69, 96
2, 46080, Note_off_c, 0, 69, 0
2, 46080, Note_on_c, 0, 70, 96
2, 47104, Note_off_c, 0, 70, 0
2, 47104, Note_on_c, 0, 72, 96
2, 48128, Note_off_c, 0, 72, 0
2, 48128, Note_on_c, 0, 69, 96
2, 49152, Note_off_c, 0, 69, 0
2, 49152, Note_on_c, 0, 70, 96
2, 50176, Note_off_c, 0, 70, 0
2, 50176, Note_on_c, 0, 69, 96
2, 51200, Note_off_c, 0, 69, 0
2, 51200, Note_on_c, 0, 67, 96
2, 53248, Note_off_c, 0, 67, 0
2, 53248, Note_on_c, 0, 65, 96
2, 54272, Note_off_c, 0, 65, 0
2, 57344, Note_on_c, 0, 70, 96
2, 58368, Note_off_c, 0, 70, 0
2, 58368, Note_on_c, 0, 72, 96
2, 59392, Note_off_c, 0, 72, 0
2, 59392, Note_on_c, 0, 74, 96
2, 60416, Note_off_c, 0, 74, 0
2, 60416, Note_on_c, 0, 74, 96
2, 61440, Note_off_c, 0, 74, 0
2, 61440, Note_on_c, 0, 75, 96
2, 62464, Note_off_c, 0, 75, 0
2, 62464, Note_on_c, 0, 74, 96
2, 63488, Note_off_c, 0, 74, 0
2, 63488, Note_on_c, 0, 72, 96
2, 65536, Note_off_c, 0, 72, 0
2, 65536, Note_on_c, 0, 70, 96
2, 66560, Note_off_c, 0, 70, 0
2, 69632, Note_on_c, 0, 74, 96
2, 70656, Note_off_c, 0, 74, 0
2, 70656, Note_on_c, 0, 74, 96
2, 71680, Note_off_c, 0, 74, 0
2, 71680, Note_on_c, 0, 72, 96
2, 72704, Note_off_c, 0, 72, 0
2, 72704, Note_on_c, 0, 74, 96
2, 73728, Note_off_c, 0, 74, 0
2, 73728, Note_on_c, 0, 70, 96
2, 74752, Note_off_c, 0, 70, 0
2, 74752, Note_on_c, 0, 72, 96
2, 75776, Note_off_c, 0, 72, 0
2, 75776, Note_on_c, 0, 74, 96
2, 76800, Note_off_c, 0, 74, 0
2, 79872, Note_on_c, 0, 74, 96
2, 80896, Note_off_c, 0, 74, 0
2, 80896, Note_on_c, 0, 74, 96
2, 81920, Note_off_c, 0, 74, 0
2, 81920, Note_on_c, 0, 72, 96
2, 82944, Note_off_c, 0, 72, 0
2, 82944, Note_on_c, 0, 70, 96
2, 83968, Note_off_c, 0, 70, 0
2, 83968, Note_on_c, 0, 69, 96
2, 84992, Note_off_c, 0, 69, 0
2, 84992, Note_on_c, 0, 69, 96
2, 86016, Note_off_c, 0, 69, 0
2, 86016, Note_on_c, 0, 67, 96
2, 90112, Note_off_c, 0, 67, 0
2, 98304, End_track
3, 0, Start_track
3, 0, Title_t, "Instrument 2"
3, 0, Note_on_c, 1, 65, 96
3, 512, Note_off_c, 1, 65, 0
3, 512, Note_on_c, 1, 70, 96
3, 768, Note_off_c, 1, 70, 0
3, 768, Note_on_c, 1, 69, 96
3, 1024, Note_off_c, 1, 69, 0
3, 1024, Note_on_c, 1, 70, 96
3, 1536, Note_off_c, 1, 70, 0
3, 1536, Note_on_c, 1, 72, 96
3, 2048, Note_off_c, 1, 72, 0
3, 2048, Note_on_c, 1, 74, 96
3, 3072, Note_off_c, 1, 74, 0
3, 3072, Note_on_c, 1, 67, 96
3, 4096, Note_off_c, 1, 67, 0
3, 4096, Note_on_c, 1, 67, 96
3, 5120, Note_off_c, 1, 67, 0
3, 5120, Note_on_c, 1, 67, 96
3, 6144, Note_off_c, 1, 67, 0
3, 6144, Note_on_c, 1, 69, 96
3, 7168, Note_off_c, 1, 69, 0
3, 7168, Note_on_c, 1, 62, 96
3, 8192, Note_off_c, 1, 62, 0
3, 8192, Note_on_c, 1, 62, 96
3, 9216, Note_off_c, 1, 62, 0
3, 12288, Note_on_c, 1, 62, 96
3, 13312, Note_off_c, 1, 62, 0
3, 13312, Note_on_c, 1, 67, 96
3, 14336, Note_off_c, 1, 67, 0
3, 14336, Note_on_c, 1, 67, 96
3, 14848, Note_off_c, 1, 67, 0
3, 14848, Note_on_c, 1, 62, 96
3, 15360, Note_off_c, 1, 62, 0
3, 15360, Note_on_c, 1, 67, 96
3, 16384, Note_off_c, 1, 67, 0
3, 16384, Note_on_c, 1, 69, 96
3, 17408, Note_off_c, 1, 69, 0
3, 17408, Note_on_c, 1, 70, 96
3, 17920, Note_off_c, 1, 70, 0
3, 17920, Note_on_c, 1, 67, 96
3, 18432, Note_off_c, 1, 67, 0
3, 18432, Note_on_c, 1, 66, 96
3, 19456, Note_off_c, 1, 66, 0
3, 22528, Note_on_c, 1, 70, 96
3, 23040, Note_off_c, 1, 70, 0
3, 23040, Note_on_c, 1, 72, 96
3, 23552, Note_off_c, 1, 72, 0
3, 23552, Note_on_c, 1, 74, 96
3, 24576, Note_off_c, 1, 74, 0
3, 24576, Note_on_c, 1, 62, 96
3, 25600, Note_off_c, 1, 62, 0
3, 25600, Note_on_c, 1, 62, 96
3, 26624, Note_off_c, 1, 62, 0
3, 26624, Note_on_c, 1, 67, 96
3, 27648, Note_off_c, 1, 67, 0
3, 27648, Note_on_c, 1, 67, 96
3, 28672, Note_off_c, 1, 67, 0
3, 28672, Note_on_c, 1, 67, 96
3, 29696, Note_off_c, 1, 67, 0
3, 29696, Note_on_c, 1, 62, 96
3, 30720, Note_off_c, 1, 62, 0
3, 30720, Note_on_c, 1, 62, 96
3, 31744, Note_off_c, 1, 62, 0
3, 34816, Note_on_c, 1, 67, 96
3, 35840, Note_off_c, 1, 67, 0
3, 35840, Note_on_c, 1, 67, 96
3, 36864, Note_off_c, 1, 67, 0
3, 36864, Note_on_c, 1, 63, 96
3, 37888, Note_off_c, 1, 63, 0
3, 37888, Note_on_c, 1, 67, 96
3, 38912, Note_off_c, 1, 67, 0
3, 38912, Note_on_c, 1, 62, 96
3, 39936, Note_off_c, 1, 62, 0
3, 39936, Note_on_c, 1, 67, 96
3, 40960, Note_off_c, 1, 67, 0
3, 40960, Note_on_c, 1, 66, 96
3, 41984, Note_off_c, 1, 66, 0
3, 45056, Note_on_c, 1, 66, 96
3, 46080, Note_off_c, 1, 66, 0
3, 46080, Note_on_c, 1, 67, 96
3, 47104, Note_off_c, 1, 67, 0
3, 47104, Note_on_c, 1, 67, 96
3, 48128, Note_off_c, 1, 67, 0
3, 48128, Note_on_c, 1, 65, 96
3, 49152, Note_off_c, 1, 65, 0
3, 49152, Note_on_c, 1, 65, 96
3, 50176, Note_off_c, 1, 65, 0
3, 50176, Note_on_c, 1, 65, 96
3, 51200, Note_off_c, 1, 65, 0
3, 51200, Note_on_c, 1, 65, 96
3, 52224, Note_off_c, 1, 65, 0
3, 52224, Note_on_c, 1, 60, 96
3, 53248, Note_off_c, 1, 60, 0
3, 53248, Note_on_c, 1, 60, 96
3, 54272, Note_off_c, 1, 60, 0
3, 57344, Note_on_c, 1, 67, 96
3, 58368, Note_off_c, 1, 67, 0
3, 58368, Note_on_c, 1, 69, 96
3, 59392, Note_off_c, 1, 69, 0
3, 59392, Note_on_c, 1, 65, 96
3, 60416, Note_off_c, 1, 65, 0
3, 60416, Note_on_c, 1, 70, 96
3, 61440, Note_off_c, 1, 70, 0
3, 61440, Note_on_c, 1, 70, 96
3, 62464, Note_off_c, 1, 70, 0
3, 62464, Note_on_c, 1, 70, 96
3, 63488, Note_off_c, 1, 70, 0
3, 63488, Note_on_c, 1, 67, 96
3, 64512, Note_off_c, 1, 67, 0
3, 64512, Note_on_c, 1, 60, 96
3, 65536, Note_off_c, 1, 60, 0
3, 65536, Note_on_c, 1, 62, 96
3, 66560, Note_off_c, 1, 62, 0
3, 69632, Note_on_c, 1, 65, 96
3, 70656, Note_off_c, 1, 65, 0
3, 70656, Note_on_c, 1, 65, 96
3, 71680, Note_off_c, 1, 65, 0
3, 71680, Note_on_c, 1, 65, 96
3, 72704, Note_off_c, 1, 65, 0
3, 72704, Note_on_c, 1, 69, 96
3, 73728, Note_off_c, 1, 69, 0
3, 73728, Note_on_c, 1, 62, 96
3, 74752, Note_off_c, 1, 62, 0
3, 74752, Note_on_c, 1, 67, 96
3, 75776, Note_off_c, 1, 67, 0
3, 75776, Note_on_c, 1, 69, 96
3, 76800, Note_off_c, 1, 69, 0
3, 79872, Note_on_c, 1, 67, 96
3, 80896, Note_off_c, 1, 67, 0
3, 80896, Note_on_c, 1, 67, 96
3, 81408, Note_off_c, 1, 67, 0
3, 81408, Note_on_c, 1, 65, 96
3, 81920, Note_off_c, 1, 65, 0
3, 81920, Note_on_c, 1, 64, 96
3, 82432, Note_off_c, 1, 64, 0
3, 82432, Note_on_c, 1, 62, 96
3, 82944, Note_off_c, 1, 62, 0
3, 82944, Note_on_c, 1, 62, 96
3, 83968, Note_off_c, 1, 62, 0
3, 83968, Note_on_c, 1, 63, 96
3, 84480, Note_off_c, 1, 63, 0
3, 84480, Note_on_c, 1, 60, 96
3, 84992, Note_off_c, 1, 60, 0
3, 84992, Note_on_c, 1, 57, 96
3, 86016, Note_off_c, 1, 57, 0
3, 86016, Note_on_c, 1, 59, 96
3, 90112, Note_off_c, 1, 59, 0
3, 98304, End_track
4, 0, Start_track
4, 0, Title_t, "Instrument 3"
4, 0, Note_on_c, 2, 58, 96
4, 512, Note_off_c, 2, 58, 0
4, 512, Note_on_c, 2, 60, 96
4, 1024, Note_off_c, 2, 60, 0
4, 1024, Note_on_c, 2, 62, 96
4, 2048, Note_off_c, 2, 62, 0
4, 2048, Note_on_c, 2, 62, 96
4, 3072, Note_off_c, 2, 62, 0
4, 3072, Note_on_c, 2, 62, 96
4, 4096, Note_off_c, 2, 62, 0
4, 4096, Note_on_c, 2, 60, 96
4, 5120, Note_off_c, 2, 60, 0
4, 5120, Note_on_c, 2, 67, 96
4, 5632, Note_off_c, 2, 67, 0
4, 5632, Note_on_c, 2, 65, 96
4, 6144, Note_off_c, 2, 65, 0
4, 6144, Note_on_c, 2, 63, 96
4, 7168, Note_off_c, 2, 63, 0
4, 7168, Note_on_c, 2, 62, 96
4, 7680, Note_off_c, 2, 62, 0
4, 7680, Note_on_c, 2, 60, 96
4, 8192, Note_off_c, 2, 60, 0
4, 8192, Note_on_c, 2, 58, 96
4, 9216, Note_off_c, 2, 58, 0
4, 12288, Note_on_c, 2, 55, 96
4, 13312, Note_off_c, 2, 55, 0
4, 13312, Note_on_c, 2, 55, 96
4, 14336, Note_off_c, 2, 55, 0
4, 14336, Note_on_c, 2, 57, 96
4, 14848, Note_off_c, 2, 57, 0
4, 14848, Note_on_c, 2, 58, 96
4, 15360, Note_off_c, 2, 58, 0
4, 15360, Note_on_c, 2, 60, 96
4, 16384, Note_off_c, 2, 60, 0
4, 16384, Note_on_c, 2, 60, 96
4, 17408, Note_off_c, 2, 60, 0
4, 17408, Note_on_c, 2, 62, 96
4, 17920, Note_off_c, 2, 62, 0
4, 17920, Note_on_c, 2, 58, 96
4, 18432, Note_off_c, 2, 58, 0
4, 18432, Note_on_c, 2, 62, 96
4, 19456, Note_off_c, 2, 62, 0
4, 22528, Note_on_c, 2, 62, 96
4, 23552, Note_off_c, 2, 62, 0
4, 23552, Note_on_c, 2, 50, 96
4, 24064, Note_off_c, 2, 50, 0
4, 24064, Note_on_c, 2, 51, 96
4, 24576, Note_off_c, 2, 51, 0
4, 24576, Note_on_c, 2, 53, 96
4, 25088, Note_off_c, 2, 53, 0
4, 25088, Note_on_c, 2, 55, 96
4, 25600, Note_off_c, 2, 55, 0
4, 25600, Note_on_c, 2, 57, 96
4, 26624, Note_off_c, 2, 57, 0
4, 26624, Note_on_c, 2, 55, 96
4, 27136, Note_off_c, 2, 55, 0
4, 27136, Note_on_c, 2, 57, 96
4, 27648, Note_off_c, 2, 57, 0
4, 27648, Note_on_c, 2, 58, 96
4, 28160, Note_off_c, 2, 58, 0
4, 28160, Note_on_c, 2, 60, 96
4, 28672, Note_off_c, 2, 60, 0
4, 28672, Note_on_c, 2, 62, 96
4, 29696, Note_off_c, 2, 62, 0
4, 29696, Note_on_c, 2, 57, 96
4, 30720, Note_off_c, 2, 57, 0
4, 30720, Note_on_c, 2, 58, 96
4, 31744, Note_off_c, 2, 58, 0
4, 34816, Note_on_c, 2, 62, 96
4, 35840, Note_off_c, 2, 62, 0
4, 35840, Note_on_c, 2, 55, 96
4, 36864, Note_off_c, 2, 55, 0
4, 36864, Note_on_c, 2, 57, 96
4, 37888, Note_off_c, 2, 57, 0
4, 37888, Note_on_c, 2, 58, 96
4, 38912, Note_off_c, 2, 58, 0
4, 38912, Note_on_c, 2, 57, 96
4, 39936, Note_off_c, 2, 57, 0
4, 39936, Note_on_c, 2, 60, 96
4, 40960, Note_off_c, 2, 60, 0
4, 40960, Note_on_c, 2, 57, 96
4, 41984, Note_off_c, 2, 57, 0
4, 45056, Note_on_c, 2, 62, 96
4, 46080, Note_off_c, 2, 62, 0
4, 46080, Note_on_c, 2, 62, 96
4, 47104, Note_off_c, 2, 62, 0
4, 47104, Note_on_c, 2, 64, 96
4, 48128, Note_off_c, 2, 64, 0
4, 48128, Note_on_c, 2, 60, 96
4, 49152, Note_off_c, 2, 60, 0
4, 49152, Note_on_c, 2, 62, 96
4, 50176, Note_off_c, 2, 62, 0
4, 50176, Note_on_c, 2, 57, 96
4, 50688, Note_off_c, 2, 57, 0
4, 50688, Note_on_c, 2, 53, 96
4, 51200, Note_off_c, 2, 53, 0
4, 51200, Note_on_c, 2, 60, 96
4, 52224, Note_off_c, 2, 60, 0
4, 52224, Note_on_c, 2, 55, 96
4, 53248, Note_off_c, 2, 55, 0
4, 53248, Note_on_c, 2, 57, 96
4, 54272, Note_off_c, 2, 57, 0
4, 57344, Note_on_c, 2, 62, 96
4, 57856, Note_off_c, 2, 62, 0
4, 57856, Note_on_c, 2, 67, 96
4, 58368, Note_off_c, 2, 67, 0
4, 58368, Note_on_c, 2, 60, 96
4, 59392, Note_off_c, 2, 60, 0
4, 59392, Note_on_c, 2, 58, 96
4, 59904, Note_off_c, 2, 58, 0
4, 59904, Note_on_c, 2, 60, 96
4, 60416, Note_off_c, 2, 60, 0
4, 60416, Note_on_c, 2, 62, 96
4, 61440, Note_off_c, 2, 62, 0
4, 61440, Note_on_c, 2, 67, 96
4, 62464, Note_off_c, 2, 67, 0
4, 62464, Note_on_c, 2, 65, 96
4, 62976, Note_off_c, 2, 65, 0
4, 62976, Note_on_c, 2, 58, 96
4, 63488, Note_off_c, 2, 58, 0
4, 63488, Note_on_c, 2, 60, 96
4, 64512, Note_off_c, 2, 60, 0
4, 64512, Note_on_c, 2, 65, 96
4, 65536, Note_off_c, 2, 65, 0
4, 65536, Note_on_c, 2, 65, 96
4, 66560, Note_off_c, 2, 65, 0
4, 69632, Note_on_c, 2, 58, 96
4, 70656, Note_off_c, 2, 58, 0
4, 70656, Note_on_c, 2, 53, 96
4, 71168, Note_off_c, 2, 53, 0
4, 71168, Note_on_c, 2, 55, 96
4, 71680, Note_off_c, 2, 55, 0
4, 71680, Note_on_c, 2, 57, 96
4, 72192, Note_off_c, 2, 57, 0
4, 72192, Note_on_c, 2, 55, 96
4, 72704, Note_off_c, 2, 55, 0
4, 72704, Note_on_c, 2, 57, 96
4, 73216, Note_off_c, 2, 57, 0
4, 73216, Note_on_c, 2, 54, 96
4, 73728, Note_off_c, 2, 54, 0
4, 73728, Note_on_c, 2, 55, 96
4, 74240, Note_off_c, 2, 55, 0
4, 74240, Note_on_c, 2, 58, 96
4, 74752, Note_off_c, 2, 58, 0
4, 74752, Note_on_c, 2, 63, 96
4, 75776, Note_off_c, 2, 63, 0
4, 75776, Note_on_c, 2, 54, 96
4, 76800, Note_off_c, 2, 54, 0
4, 79872, Note_on_c, 2, 62, 96
4, 81408, Note_off_c, 2, 62, 0
4, 81408, Note_on_c, 2, 58, 96
4, 81920, Note_off_c, 2, 58, 0
4, 81920, Note_on_c, 2, 55, 96
4, 82432, Note_off_c, 2, 55, 0
4, 82432, Note_on_c, 2, 57, 96
4, 82944, Note_off_c, 2, 57, 0
4, 82944, Note_on_c, 2, 58, 96
4, 83456, Note_off_c, 2, 58, 0
4, 83456, Note_on_c, 2, 55, 96
4, 83968, Note_off_c, 2, 55, 0
4, 83968, Note_on_c, 2, 60, 96
4, 84480, Note_off_c, 2, 60, 0
4, 84480, Note_on_c, 2, 63, 96
4, 84992, Note_off_c, 2, 63, 0
4, 84992, Note_on_c, 2, 54, 96
4, 85504, Note_off_c, 2, 54, 0
4, 85504, Note_on_c, 2, 62, 96
4, 86016, Note_off_c, 2, 62, 0
4, 86016, Note_on_c, 2, 62, 96
4, 90112, Note_off_c, 2, 62, 0
4, 98304, End_track
5, 0, Start_track
5, 0, Title_t, "Instrument 4"
5, 0, Note_on_c, 3, 58, 96
5, 1024, Note_off_c, 3, 58, 0
5, 1024, Note_on_c, 3, 57, 96
5, 1536, Note_off_c, 3, 57, 0
5, 1536, Note_on_c, 3, 55, 96
5, 2048, Note_off_c, 3, 55, 0
5, 2048, Note_on_c, 3, 54, 96
5, 3072, Note_off_c, 3, 54, 0
5, 3072, Note_on_c, 3, 53, 96
5, 4096, Note_off_c, 3, 53, 0
5, 4096, Note_on_c, 3, 52, 96
5, 5120, Note_off_c, 3, 52, 0
5, 5120, Note_on_c, 3, 51, 96
5, 5632, Note_off_c, 3, 51, 0
5, 5632, Note_on_c, 3, 50, 96
5, 6144, Note_off_c, 3, 50, 0
5, 6144, Note_on_c, 3, 48, 96
5, 7168, Note_off_c, 3, 48, 0
5, 7168, Note_on_c, 3, 50, 96
5, 8192, Note_off_c, 3, 50, 0
5, 8192, Note_on_c, 3, 43, 96
5, 9216, Note_off_c, 3, 43, 0
5, 12288, Note_on_c, 3, 55, 96
5, 12800, Note_off_c, 3, 55, 0
5, 12800, Note_on_c, 3, 53, 96
5, 13312, Note_off_c, 3, 53, 0
5, 13312, Note_on_c, 3, 51, 96
5, 13824, Note_off_c, 3, 51, 0
5, 13824, Note_on_c, 3, 50, 96
5, 14336, Note_off_c, 3, 50, 0
5, 14336, Note_on_c, 3, 48, 96
5, 14848, Note_off_c, 3, 48, 0
5, 14848, Note_on_c, 3, 50, 96
5, 15360, Note_off_c, 3, 50, 0
5, 15360, Note_on_c, 3, 51, 96
5, 16384, Note_off_c, 3, 51, 0
5, 16384, Note_on_c, 3, 45, 96
5, 17408, Note_off_c, 3, 45, 0
5, 17408, Note_on_c, 3, 43, 96
5, 18432, Note_off_c, 3, 43, 0
5, 18432, Note_on_c, 3, 50, 96
5, 19456, Note_off_c, 3, 50, 0
5, 22528, Note_on_c, 3, 43, 96
5, 23040, Note_off_c, 3, 43, 0
5, 23040, Note_on_c, 3, 45, 96
5, 23552, Note_off_c, 3, 45, 0
5, 23552, Note_on_c, 3, 46, 96
5, 24064, Note_off_c, 3, 46, 0
5, 24064, Note_on_c, 3, 48, 96
5, 24576, Note_off_c, 3, 48, 0
5, 24576, Note_on_c, 3, 50, 96
5, 25088, Note_off_c, 3, 50, 0
5, 25088, Note_on_c, 3, 51, 96
5, 25600, Note_off_c, 3, 51, 0
5, 25600, Note_on_c, 3, 53, 96
5, 26624, Note_off_c, 3, 53, 0
5, 26624, Note_on_c, 3, 52, 96
5, 27136, Note_off_c, 3, 52, 0
5, 27136, Note_on_c, 3, 54, 96
5, 27648, Note_off_c, 3, 54, 0
5, 27648, Note_on_c, 3, 55, 96
5, 28672, Note_off_c, 3, 55, 0
5, 28672, Note_on_c, 3, 62, 96
5, 29696, Note_off_c, 3, 62, 0
5, 29696, Note_on_c, 3, 50, 96
5, 30720, Note_off_c, 3, 50, 0
5, 30720, Note_on_c, 3, 43, 96
5, 32768, Note_off_c, 3, 43, 0
5, 34816, Note_on_c, 3, 55, 96
5, 35328, Note_off_c, 3, 55, 0
5, 35328, Note_on_c, 3, 43, 96
5, 35840, Note_off_c, 3, 43, 0
5, 35840, Note_on_c, 3, 45, 96
5, 36352, Note_off_c, 3, 45, 0
5, 36352, Note_on_c, 3, 46, 96
5, 36864, Note_off_c, 3, 46, 0
5, 36864, Note_on_c, 3, 48, 96
5, 37888, Note_off_c, 3, 48, 0
5, 37888, Note_on_c, 3, 49, 96
5, 38912, Note_off_c, 3, 49, 0
5, 38912, Note_on_c, 3, 50, 96
5, 39936, Note_off_c, 3, 50, 0
5, 39936, Note_on_c, 3, 51, 96
5, 40960, Note_off_c, 3, 51, 0
5, 40960, Note_on_c, 3, 50, 96
5, 41984, Note_off_c, 3, 50, 0
5, 45056, Note_on_c, 3, 50, 96
5, 46080, Note_off_c, 3, 50, 0
5, 46080, Note_on_c, 3, 55, 96
5, 46592, Note_off_c, 3, 55, 0
5, 46592, Note_on_c, 3, 53, 96
5, 47104, Note_off_c, 3, 53, 0
5, 47104, Note_on_c, 3, 52, 96
5, 48128, Note_off_c, 3, 52, 0
5, 48128, Note_on_c, 3, 53, 96
5, 48640, Note_off_c, 3, 53, 0
5, 48640, Note_on_c, 3, 52, 96
5, 49152, Note_off_c, 3, 52, 0
5, 49152, Note_on_c, 3, 50, 96
5, 50176, Note_off_c, 3, 50, 0
5, 50176, Note_on_c, 3, 48, 96
5, 50688, Note_off_c, 3, 48, 0
5, 50688, Note_on_c, 3, 46, 96
5, 51200, Note_off_c, 3, 46, 0
5, 51200, Note_on_c, 3, 48, 96
5, 53248, Note_off_c, 3, 48, 0
5, 53248, Note_on_c, 3, 53, 96
5, 54272, Note_off_c, 3, 53, 0
5, 57344, Note_on_c, 3, 55, 96
5, 58368, Note_off_c, 3, 55, 0
5, 58368, Note_on_c, 3, 53, 96
5, 58880, Note_off_c, 3, 53, 0
5, 58880, Note_on_c, 3, 51, 96
5, 59392, Note_off_c, 3, 51, 0
5, 59392, Note_on_c, 3, 50, 96
5, 59904, Note_off_c, 3, 50, 0
5, 59904, Note_on_c, 3, 60, 96
5, 60416, Note_off_c, 3, 60, 0
5, 60416, Note_on_c, 3, 58, 96
5, 60928, Note_off_c, 3, 58, 0
5, 60928, Note_on_c, 3, 57, 96
5, 61440, Note_off_c, 3, 57, 0
5, 61440, Note_on_c, 3, 55, 96
5, 61952, Note_off_c, 3, 55, 0
5, 61952, Note_on_c, 3, 53, 96
5, 62464, Note_off_c, 3, 53, 0
5, 62464, Note_on_c, 3, 51, 96
5, 62976, Note_off_c, 3, 51, 0
5, 62976, Note_on_c, 3, 50, 96
5, 63488, Note_off_c, 3, 50, 0
5, 63488, Note_on_c, 3, 51, 96
5, 64512, Note_off_c, 3, 51, 0
5, 64512, Note_on_c, 3, 53, 96
5, 65536, Note_off_c, 3, 53, 0
5, 65536, Note_on_c, 3, 46, 96
5, 66560, Note_off_c, 3, 46, 0
5, 69632, Note_on_c, 3, 46, 96
5, 70144, Note_off_c, 3, 46, 0
5, 70144, Note_on_c, 3, 48, 96
5, 70656, Note_off_c, 3, 48, 0
5, 70656, Note_on_c, 3, 50, 96
5, 71168, Note_off_c, 3, 50, 0
5, 71168, Note_on_c, 3, 51, 96
5, 71680, Note_off_c, 3, 51, 0
5, 71680, Note_on_c, 3, 53, 96
5, 72192, Note_off_c, 3, 53, 0
5, 72192, Note_on_c, 3, 52, 96
5, 72704, Note_off_c, 3, 52, 0
5, 72704, Note_on_c, 3, 54, 96
5, 73216, Note_off_c, 3, 54, 0
5, 73216, Note_on_c, 3, 50, 96
5, 73728, Note_off_c, 3, 50, 0
5, 73728, Note_on_c, 3, 55, 96
5, 74752, Note_off_c, 3, 55, 0
5, 74752, Note_on_c, 3, 53, 96
5, 75264, Note_off_c, 3, 53, 0
5, 75264, Note_on_c, 3, 51, 96
5, 75776, Note_off_c, 3, 51, 0
5, 75776, Note_on_c, 3, 50, 96
5, 76800, Note_off_c, 3, 50, 0
5, 79872, Note_on_c, 3, 55, 96
5, 80384, Note_off_c, 3, 55, 0
5, 80384, Note_on_c, 3, 57, 96
5, 80896, Note_off_c, 3, 57, 0
5, 80896, Note_on_c, 3, 58, 96
5, 81408, Note_off_c, 3, 58, 0
5, 81408, Note_on_c, 3, 50, 96
5, 81920, Note_off_c, 3, 50, 0
5, 81920, Note_on_c, 3, 52, 96
5, 82432, Note_off_c, 3, 52, 0
5, 82432, Note_on_c, 3, 54, 96
5, 82944, Note_off_c, 3, 54, 0
5, 82944, Note_on_c, 3, 55, 96
5, 83456, Note_off_c, 3, 55, 0
5, 83456, Note_on_c, 3, 46, 96
5, 83968, Note_off_c, 3, 46, 0
5, 83968, Note_on_c, 3, 48, 96
5, 84480, Note_off_c, 3, 48, 0
5, 84480, Note_on_c, 3, 45, 96
5, 84992, Note_off_c, 3, 45, 0
5, 84992, Note_on_c, 3, 50, 96
5, 86016, Note_off_c, 3, 50, 0
5, 86016, Note_on_c, 3, 43, 96
5, 90112, Note_off_c, 3, 43, 0
5, 98304, End_track
6, 0, Start_track
6, 0, Title_t, "Instrument 5"
6, 0, Note_on_c, 4, 58, 96
6, 1024, Note_off_c, 4, 58, 0
6, 1024, Note_on_c, 4, 57, 96
6, 1536, Note_off_c, 4, 57, 0
6, 1536, Note_on_c, 4, 55, 96
6, 2048, Note_off_c, 4, 55, 0
6, 2048, Note_on_c, 4, 54, 96
6, 3072, Note_off_c, 4, 54, 0
6, 3072, Note_on_c, 4, 53, 96
6, 4096, Note_off_c, 4, 53, 0
6, 4096, Note_on_c, 4, 52, 96
6, 5120, Note_off_c, 4, 52, 0
6, 5120, Note_on_c, 4, 51, 96
6, 5632, Note_off_c, 4, 51, 0
6, 5632, Note_on_c, 4, 50, 96
6, 6144, Note_off_c, 4, 50, 0
6, 6144, Note_on_c, 4, 48, 96
6, 7168, Note_off_c, 4, 48, 0
6, 7168, Note_on_c, 4, 50, 96
6, 8192, Note_off_c, 4, 50, 0
6, 8192, Note_on_c, 4, 43, 96
6, 9216, Note_off_c, 4, 43, 0
6, 12288, Note_on_c, 4, 55, 96
6, 12800, Note_off_c, 4, 55, 0
6, 12800, Note_on_c, 4, 53, 96
6, 13312, Note_off_c, 4, 53, 0
6, 13312, Note_on_c, 4, 51, 96
6, 13824, Note_off_c, 4, 51, 0
6, 13824, Note_on_c, 4, 50, 96
6, 14336, Note_off_c, 4, 50, 0
6, 14336, Note_on_c, 4, 48, 96
6, 14848, Note_off_c, 4, 48, 0
6, 14848, Note_on_c, 4, 50, 96
6, 15360, Note_off_c, 4, 50, 0
6, 15360, Note_on_c, 4, 51, 96
6, 16384, Note_off_c, 4, 51, 0
6, 16384, Note_on_c, 4, 45, 96
6, 17408, Note_off_c, 4, 45, 0
6, 17408, Note_on_c, 4, 43, 96
6, 18432, Note_off_c, 4, 43, 0
6, 18432, Note_on_c, 4, 50, 96
6, 19456, Note_off_c, 4, 50, 0
6, 22528, Note_on_c, 4, 43, 96
6, 23040, Note_off_c, 4, 43, 0
6, 23040, Note_on_c, 4, 45, 96
6, 23552, Note_off_c, 4, 45, 0
6, 23552, Note_on_c, 4, 46, 96
6, 24064, Note_off_c, 4, 46, 0
6, 24064, Note_on_c, 4, 48, 96
6, 24576, Note_off_c, 4, 48, 0
6, 24576, Note_on_c, 4, 50, 96
6, 25088, Note_off_c, 4, 50, 0
6, 25088, Note_on_c, 4, 51, 96
6, 25600, Note_off_c, 4, 51, 0
6, 25600, Note_on_c, 4, 53, 96
6, 26624, Note_off_c, 4, 53, 0
6, 26624, Note_on_c, 4, 52, 96
6, 27136, Note_off_c, 4, 52, 0
6, 27136, Note_on_c, 4, 54, 96
6, 27648, Note_off_c, 4, 54, 0
6, 27648, Note_on_c, 4, 55, 96
6, 28672, Note_off_c, 4, 55, 0
6, 28672, Note_on_c, 4, 62, 96
6, 29696, Note_off_c, 4, 62, 0
6, 29696, Note_on_c, 4, 50, 96
6, 30720, Note_off_c, 4, 50, 0
6, 30720, Note_on_c, 4, 43, 96
6, 32768, Note_off_c, 4, 43, 0
6, 34816, Note_on_c, 4, 55, 96
6, 35328, Note_off_c, 4, 55, 0
6, 35328, Note_on_c, 4, 43, 96
6, 35840, Note_off_c, 4, 43, 0
6, 35840, Note_on_c, 4, 45, 96
6, 36352, Note_off_c, 4, 45, 0
6, 36352, Note_on_c, 4, 46, 96
6, 36864, Note_off_c, 4, 46, 0
6, 36864, Note_on_c, 4, 48, 96
6, 37888, Note_off_c, 4, 48, 0
6, 37888, Note_on_c, 4, 49, 96
6, 38912, Note_off_c, 4, 49, 0
6, 38912, Note_on_c, 4, 50, 96
6, 39936, Note_off_c, 4, 50, 0
6, 39936, Note_on_c, 4, 51, 96
6, 40960, Note_off_c, 4, 51, 0
6, 40960, Note_on_c, 4, 50, 96
6, 41984, Note_off_c, 4, 50, 0
6, 45056, Note_on_c, 4, 50, 96
6, 46080, Note_off_c, 4, 50, 0
6, 46080, Note_on_c, 4, 55, 96
6, 46592, Note_off_c, 4, 55, 0
6, 46592, Note_on_c, 4, 53, 96
6, 47104, Note_off_c, 4, 53, 0
6, 47104, Note_on_c, 4, 52, 96
6, 48128, Note_off_c, 4, 52, 0
6, 48128, Note_on_c, 4, 53, 96
6, 48640, Note_off_c, 4, 53, 0
6, 48640, Note_on_c, 4, 52, 96
6, 49152, Note_off_c, 4, 52, 0
6, 49152, Note_on_c, 4, 50, 96
6, 50176, Note_off_c, 4, 50, 0
6, 50176, Note_on_c, 4, 48, 96
6, 50688, Note_off_c, 4, 48, 0
6, 50688, Note_on_c, 4, 46, 96
6, 51200, Note_off_c, 4, 46, 0
6, 51200, Note_on_c, 4, 48, 96
6, 52224, Note_off_c, 4, 48, 0
6, 52224, Note_on_c, 4, 36, 96
6, 53248, Note_off_c, 4, 36, 0
6, 53248, Note_on_c, 4, 41, 96
6, 54272, Note_off_c, 4, 41, 0
6, 57344, Note_on_c, 4, 43, 96
6, 57856, Note_off_c, 4, 43, 0
6, 57856, Note_on_c, 4, 55, 96
6, 58368, Note_off_c, 4, 55, 0
6, 58368, Note_on_c, 4, 53, 96
6, 58880, Note_off_c, 4, 53, 0
6, 58880, Note_on_c, 4, 51, 96
6, 59392, Note_off_c, 4, 51, 0
6, 59392, Note_on_c, 4, 50, 96
6, 59904, Note_off_c, 4, 50, 0
6, 59904, Note_on_c, 4, 48, 96
6, 60416, Note_off_c, 4, 48, 0
6, 60416, Note_on_c, 4, 46, 96
6, 60928, Note_off_c, 4, 46, 0
6, 60928, Note_on_c, 4, 45, 96
6, 61440, Note_off_c, 4, 45, 0
6, 61440, Note_on_c, 4, 43, 96
6, 61952, Note_off_c, 4, 43, 0
6, 61952, Note_on_c, 4, 41, 96
6, 62464, Note_off_c, 4, 41, 0
6, 62464, Note_on_c, 4, 39, 96
6, 62976, Note_off_c, 4, 39, 0
6, 62976, Note_on_c, 4, 38, 96
6, 63488, Note_off_c, 4, 38, 0
6, 63488, Note_on_c, 4, 39, 96
6, 64512, Note_off_c, 4, 39, 0
6, 64512, Note_on_c, 4, 41, 96
6, 65536, Note_off_c, 4, 41, 0
6, 65536, Note_on_c, 4, 46, 96
6, 66560, Note_off_c, 4, 46, 0
6, 69632, Note_on_c, 4, 46, 96
6, 70144, Note_off_c, 4, 46, 0
6, 70144, Note_on_c, 4, 48, 96
6, 70656, Note_off_c, 4, 48, 0
6, 70656, Note_on_c, 4, 50, 96
6, 71168, Note_off_c, 4, 50, 0
6, 71168, Note_on_c, 4, 51, 96
6, 71680, Note_off_c, 4, 51, 0
6, 71680, Note_on_c, 4, 53, 96
6, 72192, Note_off_c, 4, 53, 0
6, 72192, Note_on_c, 4, 52, 96
6, 72704, Note_off_c, 4, 52, 0
6, 72704, Note_on_c, 4, 54, 96
6, 73216, Note_off_c, 4, 54, 0
6, 73216, Note_on_c, 4, 50, 96
6, 73728, Note_off_c, 4, 50, 0
6, 73728, Note_on_c, 4, 55, 96
6, 74752, Note_off_c, 4, 55, 0
6, 74752, Note_on_c, 4, 53, 96
6, 75264, Note_off_c, 4, 53, 0
6, 75264, Note_on_c, 4, 51, 96
6, 75776, Note_off_c, 4, 51, 0
6, 75776, Note_on_c, 4, 50, 96
6, 76800, Note_off_c, 4, 50, 0
6, 79872, Note_on_c, 4, 55, 96
6, 80384, Note_off_c, 4, 55, 0
6, 80384, Note_on_c, 4, 57, 96
6, 80896, Note_off_c, 4, 57, 0
6, 80896, Note_on_c, 4, 58, 96
6, 81408, Note_off_c, 4, 58, 0
6, 81408, Note_on_c, 4, 50, 96
6, 81920, Note_off_c, 4, 50, 0
6, 81920, Note_on_c, 4, 52, 96
6, 82432, Note_off_c, 4, 52, 0
6, 82432, Note_on_c, 4, 54, 96
6, 82944, Note_off_c, 4, 54, 0
6, 82944, Note_on_c, 4, 55, 96
6, 83456, Note_off_c, 4, 55, 0
6, 83456, Note_on_c, 4, 46, 96
6, 83968, Note_off_c, 4, 46, 0
6, 83968, Note_on_c, 4, 48, 96
6, 84480, Note_off_c, 4, 48, 0
6, 84480, Note_on_c, 4, 45, 96
6, 84992, Note_off_c, 4, 45, 0
6, 84992, Note_on_c, 4, 50, 96
6, 85504, Note_off_c, 4, 50, 0
6, 85504, Note_on_c, 4, 38, 96
6, 86016, Note_off_c, 4, 38, 0
6, 86016, Note_on_c, 4, 43, 96
6, 90112, Note_off_c, 4, 43, 0
6, 98304, End_track
7, 0, Start_track
7, 0, Title_t, "Instrument 6"
7, 0, Note_on_c, 5, 74, 96
7, 256, Note_off_c, 5, 74, 0
7, 256, Note_on_c, 5, 74, 96
7, 512, Note_off_c, 5, 74, 0
7, 512, Note_on_c, 5, 74, 96
7, 768, Note_off_c, 5, 74, 0
7, 768, Note_on_c, 5, 74, 96
7, 1024, Note_off_c, 5, 74, 0
7, 1024, Note_on_c, 5, 74, 96
7, 1280, Note_off_c, 5, 74, 0
7, 1280, Note_on_c, 5, 74, 96
7, 1536, Note_off_c, 5, 74, 0
7, 1536, Note_on_c, 5, 74, 96
7, 1792, Note_off_c, 5, 74, 0
7, 1792, Note_on_c, 5, 74, 96
7, 2048, Note_off_c, 5, 74, 0
7, 2048, Note_on_c, 5, 74, 96
7, 2304, Note_off_c, 5, 74, 0
7, 2304, Note_on_c, 5, 74, 96
7, 2560, Note_off_c, 5, 74, 0
7, 2560, Note_on_c, 5, 74, 96
7, 2816, Note_off_c, 5, 74, 0
7, 2816, Note_on_c, 5, 74, 96
7, 3072, Note_off_c, 5, 74, 0
7, 3072, Note_on_c, 5, 79, 96
7, 3328, Note_off_c, 5, 79, 0
7, 3328, Note_on_c, 5, 79, 96
7, 3584, Note_off_c, 5, 79, 0
7, 3584, Note_on_c, 5, 79, 96
7, 3840, Note_off_c, 5, 79, 0
7, 3840, Note_on_c, 5, 79, 96
7, 4096, Note_off_c, 5, 79, 0
7, 4096, Note_on_c, 5, 79, 96
7, 4352, Note_off_c, 5, 79, 0
7, 4352, Note_on_c, 5, 79, 96
7, 4608, Note_off_c, 5, 79, 0
7, 4608, Note_on_c, 5, 79, 96
7, 4864, Note_off_c, 5, 79, 0
7, 4864, Note_on_c, 5, 79, 96
7, 5120, Note_off_c, 5, 79, 0
7, 5120, Note_on_c, 5, 79, 96
7, 5376, Note_off_c, 5, 79, 0
7, 5376, Note_on_c, 5, 79, 96
7, 5632, Note_off_c, 5, 79, 0
7, 5632, Note_on_c, 5, 79, 96
7, 5888, Note_off_c, 5, 79, 0
7, 5888, Note_on_c, 5, 79, 96
7, 6144, Note_off_c, 5, 79, 0
7, 6144, Note_on_c, 5, 79, 96
7, 6400, Note_off_c, 5, 79, 0
7, 6400, Note_on_c, 5, 79, 96
7, 6656, Note_off_c, 5, 79, 0
7, 6656, Note_on_c, 5, 79, 96
7, 6912, Note_off_c, 5, 79, 0
7, 6912, Note_on_c, 5, 79, 96
7, 7168, Note_off_c, 5, 79, 0
7, 7168, Note_on_c, 5, 78, 96
7, 7424, Note_off_c, 5, 78, 0
7, 7424, Note_on_c, 5, 78, 96
7, 7680, Note_off_c, 5, 78, 0
7, 7680, Note_on_c, 5, 78, 96
7, 7936, Note_off_c, 5, 78, 0
7, 7936, Note_on_c, 5, 78, 96
7, 8192, Note_off_c, 5, 78, 0
7, 8192, Note_on_c, 5, 79, 96
7, 8448, Note_off_c, 5, 79, 0
7, 8448, Note_on_c, 5, 79, 96
7, 8704, Note_off_c, 5, 79, 0
7, 8704, Note_on_c, 5, 79, 96
7, 8960, Note_off_c, 5, 79, 0
7, 8960, Note_on_c, 5, 79, 96
7, 9216, Note_off_c, 5, 79, 0
7, 9216, Note_on_c, 5, 77, 96
7, 9472, Note_off_c, 5, 77, 0
7, 9472, Note_on_c, 5, 77, 96
7, 9728, Note_off_c, 5, 77, 0
7, 9728, Note_on_c, 5, 77, 96
7, 9984, Note_off_c, 5, 77, 0
7, 9984, Note_on_c, 5, 77, 96
7, 10240, Note_off_c, 5, 77, 0
7, 10240, Note_on_c, 5, 76, 96
7, 10496, Note_off_c, 5, 76, 0
7, 10496, Note_on_c, 5, 76, 96
7, 10752, Note_off_c, 5, 76, 0
7, 10752, Note_on_c, 5, 76, 96
7, 11008, Note_off_c, 5, 76, 0
7, 11008, Note_on_c, 5, 76, 96
7, 11264, Note_off_c, 5, 76, 0
7, 11264, Note_on_c, 5, 75, 96
7, 11520, Note_off_c, 5, 75, 0
7, 11520, Note_on_c, 5, 75, 96
7, 11776, Note_off_c, 5, 75, 0
7, 11776, Note_on_c, 5, 75, 96
7, 12032, Note_off_c, 5, 75, 0
7, 12032, Note_on_c, 5, 75, 96
7, 12288, Note_off_c, 5, 75, 0
7, 12288, Note_on_c, 5, 74, 96
7, 12544, Note_off_c, 5, 74, 0
7, 12544, Note_on_c, 5, 74, 96
7, 12800, Note_off_c, 5, 74, 0
7, 12800, Note_on_c, 5, 74, 96
7, 13056, Note_off_c, 5, 74, 0
7, 13056, Note_on_c, 5, 74, 96
7, 13312, Note_off_c, 5, 74, 0
7, 13312, Note_on_c, 5, 79, 96
7, 13568, Note_off_c, 5, 79, 0
7, 13568, Note_on_c, 5, 79, 96
7, 13824, Note_off_c, 5, 79, 0
7, 13824, Note_on_c, 5, 79, 96
7, 14080, Note_off_c, 5, 79, 0
7, 14080, Note_on_c, 5, 79, 96
7, 14336, Note_off_c, 5, 79, 0
7, 14336, Note_on_c, 5, 79, 96
7, 14592, Note_off_c, 5, 79, 0
7, 14592, Note_on_c, 5, 79, 96
7, 14848, Note_off_c, 5, 79, 0
7, 14848, Note_on_c, 5, 78, 96
7, 15104, Note_off_c, 5, 78, 0
7, 15104, Note_on_c, 5, 78, 96
7, 15360, Note_off_c, 5, 78, 0
7, 15360, Note_on_c, 5, 79, 96
7, 15616, Note_off_c, 5, 79, 0
7, 15616, Note_on_c, 5, 79, 96
7, 15872, Note_off_c, 5, 79, 0
7, 15872, Note_on_c, 5, 79, 96
7, 16128, Note_off_c, 5, 79, 0
7, 16128, Note_on_c, 5, 79, 96
7, 16384, Note_off_c, 5, 79, 0
7, 16384, Note_on_c, 5, 72, 96
7, 16640, Note_off_c, 5, 72, 0
7, 16640, Note_on_c, 5, 72, 96
7, 16896, Note_off_c, 5, 72, 0
7, 16896, Note_on_c, 5, 72, 96
7, 17152, Note_off_c, 5, 72, 0
7, 17152, Note_on_c, 5, 72, 96
7, 17408, Note_off_c, 5, 72, 0
7, 17408, Note_on_c, 5, 70, 96
7, 17664, Note_off_c, 5, 70, 0
7, 17664, Note_on_c, 5, 70, 96
7, 17920, Note_off_c, 5, 70, 0
7, 17920, Note_on_c, 5, 70, 96
7, 18176, Note_off_c, 5, 70, 0
7, 18176, Note_on_c, 5, 70, 96
7, 18432, Note_off_c, 5, 70, 0
7, 18432, Note_on_c, 5, 69, 96
7, 18688, Note_off_c, 5, 69, 0
7, 18688, Note_on_c, 5, 69, 96
7, 18944, Note_off_c, 5, 69, 0
7, 18944, Note_on_c, 5, 69, 96
7, 19200, Note_off_c, 5, 69, 0
7, 19200, Note_on_c, 5, 69, 96
7, 19456, Note_off_c, 5, 69, 0
7, 19456, Note_on_c, 5, 74, 96
7, 19712, Note_off_c, 5, 74, 0
7, 19712, Note_on_c, 5, 74, 96
7, 19968, Note_off_c, 5, 74, 0
7, 19968, Note_on_c, 5, 74, 96
7, 20224, Note_off_c, 5, 74, 0
7, 20224, Note_on_c, 5, 74, 96
7, 20480, Note_off_c, 5, 74, 0
7, 20480, Note_on_c, 5, 73, 96
7, 20736, Note_off_c, 5, 73, 0
7, 20736, Note_on_c, 5, 73, 96
7, 20992, Note_off_c, 5, 73, 0
7, 20992, Note_on_c, 5, 73, 96
7, 21248, Note_off_c, 5, 73, 0
7, 21248, Note_on_c, 5, 73, 96
7, 21504, Note_off_c, 5, 73, 0
7, 21504, Note_on_c, 5, 72, 96
7, 21760, Note_off_c, 5, 72, 0
7, 21760, Note_on_c, 5, 72, 96
7, 22016, Note_off_c, 5, 72, 0
7, 22016, Note_on_c, 5, 72, 96
7, 22272, Note_off_c, 5, 72, 0
7, 22272, Note_on_c, 5, 72, 96
7, 22528, Note_off_c, 5, 72, 0
7, 22528, Note_on_c, 5, 70, 96
7, 22869, Note_off_c, 5, 70, 0
7, 22869, Note_on_c, 5, 70, 96
7, 23211, Note_off_c, 5, 70, 0
7, 23211, Note_on_c, 5, 70, 96
7, 23552, Note_off_c, 5, 70, 0
7, 23552, Note_on_c, 5, 70, 96
7, 23893, Note_off_c, 5, 70, 0
7, 23893, Note_on_c, 5, 70, 96
7, 24235, Note_off_c, 5, 70, 0
7, 24235, Note_on_c, 5, 70, 96
7, 24576, Note_off_c, 5, 70, 0
7, 24576, Note_on_c, 5, 69, 96
7, 24917, Note_off_c, 5, 69, 0
7, 24917, Note_on_c, 5, 69, 96
7, 25259, Note_off_c, 5, 69, 0
7, 25259, Note_on_c, 5, 69, 96
7, 25600, Note_off_c, 5, 69, 0
7, 25600, Note_on_c, 5, 74, 96
7, 25941, Note_off_c, 5, 74, 0
7, 25941, Note_on_c, 5, 74, 96
7, 26283, Note_off_c, 5, 74, 0
7, 26283, Note_on_c, 5, 74, 96
7, 26624, Note_off_c, 5, 74, 0
7, 26624, Note_on_c, 5, 72, 96
7, 26965, Note_off_c, 5, 72, 0
7, 26965, Note_on_c, 5, 72, 96
7, 27307, Note_off_c, 5, 72, 0
7, 27307, Note_on_c, 5, 72, 96
7, 27648, Note_off_c, 5, 72, 0
7, 27648, Note_on_c, 5, 79, 96
7, 27989, Note_off_c, 5, 79, 0
7, 27989, Note_on_c, 5, 79, 96
7, 28331, Note_off_c, 5, 79, 0
7, 28331, Note_on_c, 5, 79, 96
7, 28672, Note_off_c, 5, 79, 0
7, 28672, Note_on_c, 5, 79, 96
7, 29013, Note_off_c, 5, 79, 0
7, 29013, Note_on_c, 5, 79, 96
7, 29355, Note_off_c, 5, 79, 0
7, 29355, Note_on_c, 5, 79, 96
7, 29696, Note_off_c, 5, 79, 0
7, 29696, Note_on_c, 5, 78, 96
7, 30037, Note_off_c, 5, 78, 0
7, 30037, Note_on_c, 5, 78, 96
7, 30379, Note_off_c, 5, 78, 0
7, 30379, Note_on_c, 5, 78, 96
7, 30720, Note_off_c, 5, 78, 0
7, 30720, Note_on_c, 5, 79, 96
7, 31061, Note_off_c, 5, 79, 0
7, 31061, Note_on_c, 5, 79, 96
7, 31403, Note_off_c, 5, 79, 0
7, 31403, Note_on_c, 5, 79, 96
7, 31744, Note_off_c, 5, 79, 0
7, 31744, Note_on_c, 5, 77, 96
7, 32085, Note_off_c, 5, 77, 0
7, 32085, Note_on_c, 5, 77, 96
7, 32427, Note_off_c, 5, 77, 0
7, 32427, Note_on_c, 5, 77, 96
7, 32768, Note_off_c, 5, 77, 0
7, 32768, Note_on_c, 5, 75, 96
7, 33109, Note_off_c, 5, 75, 0
7, 33109, Note_on_c, 5, 75, 96
7, 33451, Note_off_c, 5, 75, 0
7, 33451, Note_on_c, 5, 75, 96
7, 33792, Note_off_c, 5, 75, 0
7, 33792, Note_on_c, 5, 75, 96
7, 34133, Note_off_c, 5, 75, 0
7, 34133, Note_on_c, 5, 75, 96
7, 34475, Note_off_c, 5, 75, 0
7, 34475, Note_on_c, 5, 75, 96
7, 34816, Note_off_c, 5, 75, 0
7, 34816, Note_on_c, 5, 74, 96
7, 35157, Note_off_c, 5, 74, 0
7, 35157, Note_on_c, 5, 74, 96
7, 35499, Note_off_c, 5, 74, 0
7, 35499, Note_on_c, 5, 74, 96
7, 35840, Note_off_c, 5, 74, 0
7, 35840, Note_on_c, 5, 74, 96
7, 36181, Note_off_c, 5, 74, 0
7, 36181, Note_on_c, 5, 74, 96
7, 36523, Note_off_c, 5, 74, 0
7, 36523, Note_on_c, 5, 74, 96
7, 36864, Note_off_c, 5, 74, 0
7, 36864, Note_on_c, 5, 72, 96
7, 37205, Note_off_c, 5, 72, 0
7, 37205, Note_on_c, 5, 72, 96
7, 37547, Note_off_c, 5, 72, 0
7, 37547, Note_on_c, 5, 72, 96
7, 37888, Note_off_c, 5, 72, 0
7, 37888, Note_on_c, 5, 76, 96
7, 38229, Note_off_c, 5, 76, 0
7, 38229, Note_on_c, 5, 76, 96
7, 38571, Note_off_c, 5, 76, 0
7, 38571, Note_on_c, 5, 76, 96
7, 38912, Note_off_c, 5, 76, 0
7, 38912, Note_on_c, 5, 69, 96
7, 39253, Note_off_c, 5, 69, 0
7, 39253, Note_on_c, 5, 69, 96
7, 39595, Note_off_c, 5, 69, 0
7, 39595, Note_on_c, 5, 69, 96
7, 39936, Note_off_c, 5, 69, 0
7, 39936, Note_on_c, 5, 67, 96
7, 40277, Note_off_c, 5, 67, 0
7, 40277, Note_on_c, 5, 67, 96
7, 40619, Note_off_c, 5, 67, 0
7, 40619, Note_on_c, 5, 67, 96
7, 40960, Note_off_c, 5, 67, 0
7, 40960, Note_on_c, 5, 74, 96
7, 41301, Note_off_c, 5, 74, 0
7, 41301, Note_on_c, 5, 74, 96
7, 41643, Note_off_c, 5, 74, 0
7, 41643, Note_on_c, 5, 74, 96
7, 41984, Note_off_c, 5, 74, 0
7, 41984, Note_on_c, 5, 72, 96
7, 42325, Note_off_c, 5, 72, 0
7, 42325, Note_on_c, 5, 72, 96
7, 42667, Note_off_c, 5, 72, 0
7, 42667, Note_on_c, 5, 72, 96
7, 43008, Note_off_c, 5, 72, 0
7, 43008, Note_on_c, 5, 71, 96
7, 43349, Note_off_c, 5, 71, 0
7, 43349, Note_on_c, 5, 71, 96
7, 43691, Note_off_c, 5, 71, 0
7, 43691, Note_on_c, 5, 71, 96
7, 44032, Note_off_c, 5, 71, 0
7, 44032, Note_on_c, 5, 70, 96
7, 44373, Note_off_c, 5, 70, 0
7, 44373, Note_on_c, 5, 70, 96
7, 44715, Note_off_c, 5, 70, 0
7, 44715, Note_on_c, 5, 70, 96
7, 45056, Note_off_c, 5, 70, 0
7, 45056, Note_on_c, 5, 69, 96
7, 45568, Note_off_c, 5, 69, 0
7, 45568, Note_on_c, 5, 69, 96
7, 46080, Note_off_c, 5, 69, 0
7, 46080, Note_on_c, 5, 67, 96
7, 46592, Note_off_c, 5, 67, 0
7, 46592, Note_on_c, 5, 67, 96
7, 47104, Note_off_c, 5, 67, 0
7, 47104, Note_on_c, 5, 79, 96
7, 47616, Note_off_c, 5, 79, 0
7, 47616, Note_on_c, 5, 79, 96
7, 48128, Note_off_c, 5, 79, 0
7, 48128, Note_on_c, 5, 72, 96
7, 48640, Note_off_c, 5, 72, 0
7, 48640, Note_on_c, 5, 72, 96
7, 49152, Note_off_c, 5, 72, 0
7, 49152, Note_on_c, 5, 77, 96
7, 49664, Note_off_c, 5, 77, 0
7, 49664, Note_on_c, 5, 77, 96
7, 50176, Note_off_c, 5, 77, 0
7, 50176, Note_on_c, 5, 77, 96
7, 50688, Note_off_c, 5, 77, 0
7, 50688, Note_on_c, 5, 77, 96
7, 51200, Note_off_c, 5, 77, 0
7, 51200, Note_on_c, 5, 77, 96
7, 51712, Note_off_c, 5, 77, 0
7, 51712, Note_on_c, 5, 77, 96
7, 52224, Note_off_c, 5, 77, 0
7, 52224, Note_on_c, 5, 76, 96
7, 52736, Note_off_c, 5, 76, 0
7, 52736, Note_on_c, 5, 76, 96
7, 53248, Note_off_c, 5, 76, 0
7, 53248, Note_on_c, 5, 77, 96
7, 53760, Note_off_c, 5, 77, 0
7, 53760, Note_on_c, 5, 77, 96
7, 54272, Note_off_c, 5, 77, 0
7, 54272, Note_on_c, 5, 77, 96
7, 54784, Note_off_c, 5, 77, 0
7, 54784, Note_on_c, 5, 77, 96
7, 55296, Note_off_c, 5, 77, 0
7, 55296, Note_on_c, 5, 76, 96
7, 55808, Note_off_c, 5, 76, 0
7, 55808, Note_on_c, 5, 76, 96
7, 56320, Note_off_c, 5, 76, 0
7, 56320, Note_on_c, 5, 75, 96
7, 56832, Note_off_c, 5, 75, 0
7, 56832, Note_on_c, 5, 75, 96
7, 57344, Note_off_c, 5, 75, 0
7, 57344, Note_on_c, 5, 74, 96
7, 57856, Note_off_c, 5, 74, 0
7, 57856, Note_on_c, 5, 74, 96
7, 58368, Note_off_c, 5, 74, 0
7, 58368, Note_on_c, 5, 77, 96
7, 58880, Note_off_c, 5, 77, 0
7, 58880, Note_on_c, 5, 77, 96
7, 59392, Note_off_c, 5, 77, 0
7, 59392, Note_on_c, 5, 77, 96
7, 59904, Note_off_c, 5, 77, 0
7, 59904, Note_on_c, 5, 77, 96
7, 60416, Note_off_c, 5, 77, 0
7, 60416, Note_on_c, 5, 79, 96
7, 60928, Note_off_c, 5, 79, 0
7, 60928, Note_on_c, 5, 79, 96
7, 61440, Note_off_c, 5, 79, 0
7, 61440, Note_on_c, 5, 79, 96
7, 61952, Note_off_c, 5, 79, 0
7, 61952, Note_on_c, 5, 81, 96
7, 62464, Note_off_c, 5, 81, 0
7, 62464, Note_on_c, 5, 82, 96
7, 62976, Note_off_c, 5, 82, 0
7, 62976, Note_on_c, 5, 82, 96
7, 63488, Note_off_c, 5, 82, 0
7, 63488, Note_on_c, 5, 82, 96
7, 64000, Note_off_c, 5, 82, 0
7, 64000, Note_on_c, 5, 82, 96
7, 64512, Note_off_c, 5, 82, 0
7, 64512, Note_on_c, 5, 81, 96
7, 65024, Note_off_c, 5, 81, 0
7, 65024, Note_on_c, 5, 81, 96
7, 65536, Note_off_c, 5, 81, 0
7, 65536, Note_on_c, 5, 82, 96
7, 66048, Note_off_c, 5, 82, 0
7, 66048, Note_on_c, 5, 82, 96
7, 66560, Note_off_c, 5, 82, 0
7, 66560, Note_on_c, 5, 80, 96
7, 67072, Note_off_c, 5, 80, 0
7, 67072, Note_on_c, 5, 80, 96
7, 67584, Note_off_c, 5, 80, 0
7, 67584, Note_on_c, 5, 79, 96
7, 68096, Note_off_c, 5, 79, 0
7, 68096, Note_on_c, 5, 79, 96
7, 68608, Note_off_c, 5, 79, 0
7, 68608, Note_on_c, 5, 78, 96
7, 69120, Note_off_c, 5, 78, 0
7, 69120, Note_on_c, 5, 78, 96
7, 69632, Note_off_c, 5, 78, 0
7, 69632, Note_on_c, 5, 77, 96
7, 70315, Note_off_c, 5, 77, 0
7, 70315, Note_on_c, 5, 77, 96
7, 70656, Note_off_c, 5, 77, 0
7, 70656, Note_on_c, 5, 82, 96
7, 71339, Note_off_c, 5, 82, 0
7, 71339, Note_on_c, 5, 82, 96
7, 71680, Note_off_c, 5, 82, 0
7, 71680, Note_on_c, 5, 82, 96
7, 72363, Note_off_c, 5, 82, 0
7, 72363, Note_on_c, 5, 82, 96
7, 72704, Note_off_c, 5, 82, 0
7, 72704, Note_on_c, 5, 81, 96
7, 73387, Note_off_c, 5, 81, 0
7, 73387, Note_on_c, 5, 81, 96
7, 73728, Note_off_c, 5, 81, 0
7, 73728, Note_on_c, 5, 81, 96
7, 74411, Note_off_c, 5, 81, 0
7, 74411, Note_on_c, 5, 81, 96
7, 74752, Note_off_c, 5, 81, 0
7, 74752, Note_on_c, 5, 79, 96
7, 75435, Note_off_c, 5, 79, 0
7, 75435, Note_on_c, 5, 79, 96
7, 75776, Note_off_c, 5, 79, 0
7, 75776, Note_on_c, 5, 78, 96
7, 76459, Note_off_c, 5, 78, 0
7, 76459, Note_on_c, 5, 78, 96
7, 76800, Note_off_c, 5, 78, 0
7, 76800, Note_on_c, 5, 86, 96
7, 77483, Note_off_c, 5, 86, 0
7, 77483, Note_on_c, 5, 86, 96
7, 77824, Note_off_c, 5, 86, 0
7, 77824, Note_on_c, 5, 85, 96
7, 78507, Note_off_c, 5, 85, 0
7, 78507, Note_on_c, 5, 85, 96
7, 78848, Note_off_c, 5, 85, 0
7, 78848, Note_on_c, 5, 84, 96
7, 79531, Note_off_c, 5, 84, 0
7, 79531, Note_on_c, 5, 84, 96
7, 79872, Note_off_c, 5, 84, 0
7, 79872, Note_on_c, 5, 84, 96
7, 80555, Note_off_c, 5, 84, 0
7, 80555, Note_on_c, 5, 84, 96
7, 80896, Note_off_c, 5, 84, 0
7, 80896, Note_on_c, 5, 82, 96
7, 81579, Note_off_c, 5, 82, 0
7, 81579, Note_on_c, 5, 82, 96
7, 81920, Note_off_c, 5, 82, 0
7, 81920, Note_on_c, 5, 82, 96
7, 82603, Note_off_c, 5, 82, 0
7, 82603, Note_on_c, 5, 81, 96
7, 82944, Note_off_c, 5, 81, 0
7, 82944, Note_on_c, 5, 81, 96
7, 83627, Note_off_c, 5, 81, 0
7, 83627, Note_on_c, 5, 79, 96
7, 83968, Note_off_c, 5, 79, 0
7, 83968, Note_on_c, 5, 79, 96
7, 84651, Note_off_c, 5, 79, 0
7, 84651, Note_on_c, 5, 79, 96
7, 84992, Note_off_c, 5, 79, 0
7, 84992, Note_on_c, 5, 78, 96
7, 85675, Note_off_c, 5, 78, 0
7, 85675, Note_on_c, 5, 78, 96
7, 86016, Note_off_c, 5, 78, 0
7, 86016, Note_on_c, 5, 79, 96
7, 87040, Note_off_c, 5, 79, 0
7, 87040, Note_on_c, 5, 79, 96
7, 88064, Note_off_c, 5, 79, 0
7, 88064, Note_on_c, 5, 78, 96
7, 89088, Note_off_c, 5, 78, 0
7, 89088, Note_on_c, 5, 77, 96
7, 90112, Note_off_c, 5, 77, 0
7, 90112, Note_on_c, 5, 76, 96
7, 91136, Note_off_c, 5, 76, 0
7, 91136, Note_on_c, 5, 75, 96
7, 92160, Note_off_c, 5, 75, 0
7, 92160, Note_on_c, 5, 74, 96
7, 98304, Note_off_c, 5, 74, 0
7, 98304, End_track
8, 0, Start_track
8, 0, Title_t, "Instrument 7"
8, 0, Note_on_c, 6, 70, 96
8, 256, Note_off_c, 6, 70, 0
8, 256, Note_on_c, 6, 70, 96
8, 512, Note_off_c, 6, 70, 0
8, 512, Note_on_c, 6, 70, 96
8, 768, Note_off_c, 6, 70, 0
8, 768, Note_on_c, 6, 70, 96
8, 1024, Note_off_c, 6, 70, 0
8, 1024, Note_on_c, 6, 70, 96
8, 1280, Note_off_c, 6, 70, 0
8, 1280, Note_on_c, 6, 70, 96
8, 1536, Note_off_c, 6, 70, 0
8, 1536, Note_on_c, 6, 70, 96
8, 1792, Note_off_c, 6, 70, 0
8, 1792, Note_on_c, 6, 70, 96
8, 2048, Note_off_c, 6, 70, 0
8, 2048, Note_on_c, 6, 72, 96
8, 2304, Note_off_c, 6, 72, 0
8, 2304, Note_on_c, 6, 72, 96
8, 2560, Note_off_c, 6, 72, 0
8, 2560, Note_on_c, 6, 72, 96
8, 2816, Note_off_c, 6, 72, 0
8, 2816, Note_on_c, 6, 72, 96
8, 3072, Note_off_c, 6, 72, 0
8, 3072, Note_on_c, 6, 71, 96
8, 3328, Note_off_c, 6, 71, 0
8, 3328, Note_on_c, 6, 71, 96
8, 3584, Note_off_c, 6, 71, 0
8, 3584, Note_on_c, 6, 71, 96
8, 3840, Note_off_c, 6, 71, 0
8, 3840, Note_on_c, 6, 71, 96
8, 4096, Note_off_c, 6, 71, 0
8, 4096, Note_on_c, 6, 67, 96
8, 4352, Note_off_c, 6, 67, 0
8, 4352, Note_on_c, 6, 67, 96
8, 4608, Note_off_c, 6, 67, 0
8, 4608, Note_on_c, 6, 67, 96
8, 4864, Note_off_c, 6, 67, 0
8, 4864, Note_on_c, 6, 67, 96
8, 5120, Note_off_c, 6, 67, 0
8, 5120, Note_on_c, 6, 70, 96
8, 5376, Note_off_c, 6, 70, 0
8, 5376, Note_on_c, 6, 70, 96
8, 5632, Note_off_c, 6, 70, 0
8, 5632, Note_on_c, 6, 70, 96
8, 5888, Note_off_c, 6, 70, 0
8, 5888, Note_on_c, 6, 70, 96
8, 6144, Note_off_c, 6, 70, 0
8, 6144, Note_on_c, 6, 75, 96
8, 6400, Note_off_c, 6, 75, 0
8, 6400, Note_on_c, 6, 75, 96
8, 6656, Note_off_c, 6, 75, 0
8, 6656, Note_on_c, 6, 75, 96
8, 6912, Note_off_c, 6, 75, 0
8, 6912, Note_on_c, 6, 75, 96
8, 7168, Note_off_c, 6, 75, 0
8, 7168, Note_on_c, 6, 74, 96
8, 7424, Note_off_c, 6, 74, 0
8, 7424, Note_on_c, 6, 74, 96
8, 7680, Note_off_c, 6, 74, 0
8, 7680, Note_on_c, 6, 74, 96
8, 7936, Note_off_c, 6, 74, 0
8, 7936, Note_on_c, 6, 74, 96
8, 8192, Note_off_c, 6, 74, 0
8, 8192, Note_on_c, 6, 74, 96
8, 8448, Note_off_c, 6, 74, 0
8, 8448, Note_on_c, 6, 74, 96
8, 8704, Note_off_c, 6, 74, 0
8, 8704, Note_on_c, 6, 74, 96
8, 8960, Note_off_c, 6, 74, 0
8, 8960, Note_on_c, 6, 74, 96
8, 9216, Note_off_c, 6, 74, 0
8, 9216, Note_on_c, 6, 74, 96
8, 9472, Note_off_c, 6, 74, 0
8, 9472, Note_on_c, 6, 74, 96
8, 9728, Note_off_c, 6, 74, 0
8, 9728, Note_on_c, 6, 74, 96
8, 9984, Note_off_c, 6, 74, 0
8, 9984, Note_on_c, 6, 74, 96
8, 10240, Note_off_c, 6, 74, 0
8, 10240, Note_on_c, 6, 74, 96
8, 10496, Note_off_c, 6, 74, 0
8, 10496, Note_on_c, 6, 74, 96
8, 10752, Note_off_c, 6, 74, 0
8, 10752, Note_on_c, 6, 74, 96
8, 11008, Note_off_c, 6, 74, 0
8, 11008, Note_on_c, 6, 74, 96
8, 11264, Note_off_c, 6, 74, 0
8, 11264, Note_on_c, 6, 72, 96
8, 11520, Note_off_c, 6, 72, 0
8, 11520, Note_on_c, 6, 72, 96
8, 11776, Note_off_c, 6, 72, 0
8, 11776, Note_on_c, 6, 72, 96
8, 12032, Note_off_c, 6, 72, 0
8, 12032, Note_on_c, 6, 72, 96
8, 12288, Note_off_c, 6, 72, 0
8, 12288, Note_on_c, 6, 70, 96
8, 12544, Note_off_c, 6, 70, 0
8, 12544, Note_on_c, 6, 70, 96
8, 12800, Note_off_c, 6, 70, 0
8, 12800, Note_on_c, 6, 70, 96
8, 13056, Note_off_c, 6, 70, 0
8, 13056, Note_on_c, 6, 70, 96
8, 13312, Note_off_c, 6, 70, 0
8, 13312, Note_on_c, 6, 70, 96
8, 13568, Note_off_c, 6, 70, 0
8, 13568, Note_on_c, 6, 70, 96
8, 13824, Note_off_c, 6, 70, 0
8, 13824, Note_on_c, 6, 70, 96
8, 14080, Note_off_c, 6, 70, 0
8, 14080, Note_on_c, 6, 70, 96
8, 14336, Note_off_c, 6, 70, 0
8, 14336, Note_on_c, 6, 75, 96
8, 14592, Note_off_c, 6, 75, 0
8, 14592, Note_on_c, 6, 75, 96
8, 14848, Note_off_c, 6, 75, 0
8, 14848, Note_on_c, 6, 74, 96
8, 15104, Note_off_c, 6, 74, 0
8, 15104, Note_on_c, 6, 74, 96
8, 15360, Note_off_c, 6, 74, 0
8, 15360, Note_on_c, 6, 72, 96
8, 15616, Note_off_c, 6, 72, 0
8, 15616, Note_on_c, 6, 72, 96
8, 15872, Note_off_c, 6, 72, 0
8, 15872, Note_on_c, 6, 70, 96
8, 16128, Note_off_c, 6, 70, 0
8, 16128, Note_on_c, 6, 70, 96
8, 16384, Note_off_c, 6, 70, 0
8, 16384, Note_on_c, 6, 69, 96
8, 16640, Note_off_c, 6, 69, 0
8, 16640, Note_on_c, 6, 69, 96
8, 16896, Note_off_c, 6, 69, 0
8, 16896, Note_on_c, 6, 69, 96
8, 17152, Note_off_c, 6, 69, 0
8, 17152, Note_on_c, 6, 69, 96
8, 17408, Note_off_c, 6, 69, 0
8, 17408, Note_on_c, 6, 62, 96
8, 17664, Note_off_c, 6, 62, 0
8, 17664, Note_on_c, 6, 62, 96
8, 17920, Note_off_c, 6, 62, 0
8, 17920, Note_on_c, 6, 64, 96
8, 18176, Note_off_c, 6, 64, 0
8, 18176, Note_on_c, 6, 64, 96
8, 18432, Note_off_c, 6, 64, 0
8, 18432, Note_on_c, 6, 66, 96
8, 18688, Note_off_c, 6, 66, 0
8, 18688, Note_on_c, 6, 66, 96
8, 18944, Note_off_c, 6, 66, 0
8, 18944, Note_on_c, 6, 66, 96
8, 19200, Note_off_c, 6, 66, 0
8, 19200, Note_on_c, 6, 66, 96
8, 19456, Note_off_c, 6, 66, 0
8, 19456, Note_on_c, 6, 70, 96
8, 19712, Note_off_c, 6, 70, 0
8, 19712, Note_on_c, 6, 70, 96
8, 19968, Note_off_c, 6, 70, 0
8, 19968, Note_on_c, 6, 70, 96
8, 20224, Note_off_c, 6, 70, 0
8, 20224, Note_on_c, 6, 70, 96
8, 20480, Note_off_c, 6, 70, 0
8, 20480, Note_on_c, 6, 70, 96
8, 20736, Note_off_c, 6, 70, 0
8, 20736, Note_on_c, 6, 70, 96
8, 20992, Note_off_c, 6, 70, 0
8, 20992, Note_on_c, 6, 70, 96
8, 21248, Note_off_c, 6, 70, 0
8, 21248, Note_on_c, 6, 70, 96
8, 21504, Note_off_c, 6, 70, 0
8, 21504, Note_on_c, 6, 69, 96
8, 21760, Note_off_c, 6, 69, 0
8, 21760, Note_on_c, 6, 69, 96
8, 22016, Note_off_c, 6, 69, 0
8, 22016, Note_on_c, 6, 69, 96
8, 22272, Note_off_c, 6, 69, 0
8, 22272, Note_on_c, 6, 69, 96
8, 22528, Note_off_c, 6, 69, 0
8, 22528, Note_on_c, 6, 67, 96
8, 22869, Note_off_c, 6, 67, 0
8, 22869, Note_on_c, 6, 67, 96
8, 23211, Note_off_c, 6, 67, 0
8, 23211, Note_on_c, 6, 67, 96
8, 23552, Note_off_c, 6, 67, 0
8, 23552, Note_on_c, 6, 67, 96
8, 23893, Note_off_c, 6, 67, 0
8, 23893, Note_on_c, 6, 67, 96
8, 24235, Note_off_c, 6, 67, 0
8, 24235, Note_on_c, 6, 67, 96
8, 24576, Note_off_c, 6, 67, 0
8, 24576, Note_on_c, 6, 65, 96
8, 24917, Note_off_c, 6, 65, 0
8, 24917, Note_on_c, 6, 65, 96
8, 25259, Note_off_c, 6, 65, 0
8, 25259, Note_on_c, 6, 65, 96
8, 25600, Note_off_c, 6, 65, 0
8, 25600, Note_on_c, 6, 65, 96
8, 25941, Note_off_c, 6, 65, 0
8, 25941, Note_on_c, 6, 65, 96
8, 26283, Note_off_c, 6, 65, 0
8, 26283, Note_on_c, 6, 65, 96
8, 26624, Note_off_c, 6, 65, 0
8, 26624, Note_on_c, 6, 67, 96
8, 26965, Note_off_c, 6, 67, 0
8, 26965, Note_on_c, 6, 67, 96
8, 27307, Note_off_c, 6, 67, 0
8, 27307, Note_on_c, 6, 67, 96
8, 27648, Note_off_c, 6, 67, 0
8, 27648, Note_on_c, 6, 74, 96
8, 27989, Note_off_c, 6, 74, 0
8, 27989, Note_on_c, 6, 74, 96
8, 28331, Note_off_c, 6, 74, 0
8, 28331, Note_on_c, 6, 74, 96
8, 28672, Note_off_c, 6, 74, 0
8, 28672, Note_on_c, 6, 74, 96
8, 29013, Note_off_c, 6, 74, 0
8, 29013, Note_on_c, 6, 74, 96
8, 29355, Note_off_c, 6, 74, 0
8, 29355, Note_on_c, 6, 74, 96
8, 29696, Note_off_c, 6, 74, 0
8, 29696, Note_on_c, 6, 74, 96
8, 30037, Note_off_c, 6, 74, 0
8, 30037, Note_on_c, 6, 74, 96
8, 30379, Note_off_c, 6, 74, 0
8, 30379, Note_on_c, 6, 74, 96
8, 30720, Note_off_c, 6, 74, 0
8, 30720, Note_on_c, 6, 74, 96
8, 31061, Note_off_c, 6, 74, 0
8, 31061, Note_on_c, 6, 74, 96
8, 31403, Note_off_c, 6, 74, 0
8, 31403, Note_on_c, 6, 74, 96
8, 31744, Note_off_c, 6, 74, 0
8, 31744, Note_on_c, 6, 74, 96
8, 32085, Note_off_c, 6, 74, 0
8, 32085, Note_on_c, 6, 74, 96
8, 32427, Note_off_c, 6, 74, 0
8, 32427, Note_on_c, 6, 74, 96
8, 32768, Note_off_c, 6, 74, 0
8, 32768, Note_on_c, 6, 74, 96
8, 33109, Note_off_c, 6, 74, 0
8, 33109, Note_on_c, 6, 74, 96
8, 33451, Note_off_c, 6, 74, 0
8, 33451, Note_on_c, 6, 74, 96
8, 33792, Note_off_c, 6, 74, 0
8, 33792, Note_on_c, 6, 72, 96
8, 34133, Note_off_c, 6, 72, 0
8, 34133, Note_on_c, 6, 72, 96
8, 34475, Note_off_c, 6, 72, 0
8, 34475, Note_on_c, 6, 72, 96
8, 34816, Note_off_c, 6, 72, 0
8, 34816, Note_on_c, 6, 70, 96
8, 35157, Note_off_c, 6, 70, 0
8, 35157, Note_on_c, 6, 70, 96
8, 35499, Note_off_c, 6, 70, 0
8, 35499, Note_on_c, 6, 70, 96
8, 35840, Note_off_c, 6, 70, 0
8, 35840, Note_on_c, 6, 67, 96
8, 36181, Note_off_c, 6, 67, 0
8, 36181, Note_on_c, 6, 67, 96
8, 36523, Note_off_c, 6, 67, 0
8, 36523, Note_on_c, 6, 67, 96
8, 36864, Note_off_c, 6, 67, 0
8, 36864, Note_on_c, 6, 67, 96
8, 37205, Note_off_c, 6, 67, 0
8, 37205, Note_on_c, 6, 67, 96
8, 37547, Note_off_c, 6, 67, 0
8, 37547, Note_on_c, 6, 66, 96
8, 37888, Note_off_c, 6, 66, 0
8, 37888, Note_on_c, 6, 67, 96
8, 38229, Note_off_c, 6, 67, 0
8, 38229, Note_on_c, 6, 67, 96
8, 38571, Note_off_c, 6, 67, 0
8, 38571, Note_on_c, 6, 67, 96
8, 38912, Note_off_c, 6, 67, 0
8, 38912, Note_on_c, 6, 74, 96
8, 39253, Note_off_c, 6, 74, 0
8, 39253, Note_on_c, 6, 74, 96
8, 39595, Note_off_c, 6, 74, 0
8, 39595, Note_on_c, 6, 74, 96
8, 39936, Note_off_c, 6, 74, 0
8, 39936, Note_on_c, 6, 72, 96
8, 40277, Note_off_c, 6, 72, 0
8, 40277, Note_on_c, 6, 72, 96
8, 40619, Note_off_c, 6, 72, 0
8, 40619, Note_on_c, 6, 72, 96
8, 40960, Note_off_c, 6, 72, 0
8, 40960, Note_on_c, 6, 66, 96
8, 41301, Note_off_c, 6, 66, 0
8, 41301, Note_on_c, 6, 66, 96
8, 41643, Note_off_c, 6, 66, 0
8, 41643, Note_on_c, 6, 66, 96
8, 41984, Note_off_c, 6, 66, 0
8, 41984, Note_on_c, 6, 69, 96
8, 42325, Note_off_c, 6, 69, 0
8, 42325, Note_on_c, 6, 69, 96
8, 42667, Note_off_c, 6, 69, 0
8, 42667, Note_on_c, 6, 69, 96
8, 43008, Note_off_c, 6, 69, 0
8, 43008, Note_on_c, 6, 69, 96
8, 43349, Note_off_c, 6, 69, 0
8, 43349, Note_on_c, 6, 69, 96
8, 43691, Note_off_c, 6, 69, 0
8, 43691, Note_on_c, 6, 69, 96
8, 44032, Note_off_c, 6, 69, 0
8, 44032, Note_on_c, 6, 67, 96
8, 44373, Note_off_c, 6, 67, 0
8, 44373, Note_on_c, 6, 67, 96
8, 44715, Note_off_c, 6, 67, 0
8, 44715, Note_on_c, 6, 67, 96
8, 45056, Note_off_c, 6, 67, 0
8, 45056, Note_on_c, 6, 66, 96
8, 45568, Note_off_c, 6, 66, 0
8, 45568, Note_on_c, 6, 66, 96
8, 46080, Note_off_c, 6, 66, 0
8, 46080, Note_on_c, 6, 74, 96
8, 46592, Note_off_c, 6, 74, 0
8, 46592, Note_on_c, 6, 74, 96
8, 47104, Note_off_c, 6, 74, 0
8, 47104, Note_on_c, 6, 72, 96
8, 47616, Note_off_c, 6, 72, 0
8, 47616, Note_on_c, 6, 72, 96
8, 48128, Note_off_c, 6, 72, 0
8, 48128, Note_on_c, 6, 77, 96
8, 48640, Note_off_c, 6, 77, 0
8, 48640, Note_on_c, 6, 77, 96
8, 49152, Note_off_c, 6, 77, 0
8, 49152, Note_on_c, 6, 70, 96
8, 49664, Note_off_c, 6, 70, 0
8, 49664, Note_on_c, 6, 70, 96
8, 50176, Note_off_c, 6, 70, 0
8, 50176, Note_on_c, 6, 72, 96
8, 50688, Note_off_c, 6, 72, 0
8, 50688, Note_on_c, 6, 74, 96
8, 51200, Note_off_c, 6, 74, 0
8, 51200, Note_on_c, 6, 72, 96
8, 51712, Note_off_c, 6, 72, 0
8, 51712, Note_on_c, 6, 72, 96
8, 52224, Note_off_c, 6, 72, 0
8, 52224, Note_on_c, 6, 72, 96
8, 52736, Note_off_c, 6, 72, 0
8, 52736, Note_on_c, 6, 72, 96
8, 53248, Note_off_c, 6, 72, 0
8, 53248, Note_on_c, 6, 72, 96
8, 53760, Note_off_c, 6, 72, 0
8, 53760, Note_on_c, 6, 72, 96
8, 54272, Note_off_c, 6, 72, 0
8, 54272, Note_on_c, 6, 73, 96
8, 54784, Note_off_c, 6, 73, 0
8, 54784, Note_on_c, 6, 73, 96
8, 55296, Note_off_c, 6, 73, 0
8, 55296, Note_on_c, 6, 73, 96
8, 55808, Note_off_c, 6, 73, 0
8, 55808, Note_on_c, 6, 73, 96
8, 56320, Note_off_c, 6, 73, 0
8, 56320, Note_on_c, 6, 72, 96
8, 56832, Note_off_c, 6, 72, 0
8, 56832, Note_on_c, 6, 72, 96
8, 57344, Note_off_c, 6, 72, 0
8, 57344, Note_on_c, 6, 70, 96
8, 57856, Note_off_c, 6, 70, 0
8, 57856, Note_on_c, 6, 70, 96
8, 58368, Note_off_c, 6, 70, 0
8, 58368, Note_on_c, 6, 69, 96
8, 58880, Note_off_c, 6, 69, 0
8, 58880, Note_on_c, 6, 69, 96
8, 59392, Note_off_c, 6, 69, 0
8, 59392, Note_on_c, 6, 70, 96
8, 59904, Note_off_c, 6, 70, 0
8, 59904, Note_on_c, 6, 70, 96
8, 60416, Note_off_c, 6, 70, 0
8, 60416, Note_on_c, 6, 70, 96
8, 60928, Note_off_c, 6, 70, 0
8, 60928, Note_on_c, 6, 70, 96
8, 61440, Note_off_c, 6, 70, 0
8, 61440, Note_on_c, 6, 70, 96
8, 61952, Note_off_c, 6, 70, 0
8, 61952, Note_on_c, 6, 72, 96
8, 62464, Note_off_c, 6, 72, 0
8, 62464, Note_on_c, 6, 74, 96
8, 62976, Note_off_c, 6, 74, 0
8, 62976, Note_on_c, 6, 74, 96
8, 63488, Note_off_c, 6, 74, 0
8, 63488, Note_on_c, 6, 79, 96
8, 64000, Note_off_c, 6, 79, 0
8, 64000, Note_on_c, 6, 79, 96
8, 64512, Note_off_c, 6, 79, 0
8, 64512, Note_on_c, 6, 77, 96
8, 65024, Note_off_c, 6, 77, 0
8, 65024, Note_on_c, 6, 77, 96
8, 65536, Note_off_c, 6, 77, 0
8, 65536, Note_on_c, 6, 77, 96
8, 66048, Note_off_c, 6, 77, 0
8, 66048, Note_on_c, 6, 77, 96
8, 66560, Note_off_c, 6, 77, 0
8, 66560, Note_on_c, 6, 77, 96
8, 67072, Note_off_c, 6, 77, 0
8, 67072, Note_on_c, 6, 77, 96
8, 67584, Note_off_c, 6, 77, 0
8, 67584, Note_on_c, 6, 77, 96
8, 68096, Note_off_c, 6, 77, 0
8, 68096, Note_on_c, 6, 77, 96
8, 68608, Note_off_c, 6, 77, 0
8, 68608, Note_on_c, 6, 75, 96
8, 69120, Note_off_c, 6, 75, 0
8, 69120, Note_on_c, 6, 75, 96
8, 69632, Note_off_c, 6, 75, 0
8, 69632, Note_on_c, 6, 74, 96
8, 70315, Note_off_c, 6, 74, 0
8, 70315, Note_on_c, 6, 74, 96
8, 70656, Note_off_c, 6, 74, 0
8, 70656, Note_on_c, 6, 77, 96
8, 71339, Note_off_c, 6, 77, 0
8, 71339, Note_on_c, 6, 77, 96
8, 71680, Note_off_c, 6, 77, 0
8, 71680, Note_on_c, 6, 77, 96
8, 72363, Note_off_c, 6, 77, 0
8, 72363, Note_on_c, 6, 77, 96
8, 72704, Note_off_c, 6, 77, 0
8, 72704, Note_on_c, 6, 74, 96
8, 73387, Note_off_c, 6, 74, 0
8, 73387, Note_on_c, 6, 74, 96
8, 73728, Note_off_c, 6, 74, 0
8, 73728, Note_on_c, 6, 74, 96
8, 74411, Note_off_c, 6, 74, 0
8, 74411, Note_on_c, 6, 74, 96
8, 74752, Note_off_c, 6, 74, 0
8, 74752, Note_on_c, 6, 75, 96
8, 75435, Note_off_c, 6, 75, 0
8, 75435, Note_on_c, 6, 75, 96
8, 75776, Note_off_c, 6, 75, 0
8, 75776, Note_on_c, 6, 69, 96
8, 76459, Note_off_c, 6, 69, 0
8, 76459, Note_on_c, 6, 69, 96
8, 76800, Note_off_c, 6, 69, 0
8, 76800, Note_on_c, 6, 82, 96
8, 77483, Note_off_c, 6, 82, 0
8, 77483, Note_on_c, 6, 82, 96
8, 77824, Note_off_c, 6, 82, 0
8, 77824, Note_on_c, 6, 82, 96
8, 78507, Note_off_c, 6, 82, 0
8, 78507, Note_on_c, 6, 82, 96
8, 78848, Note_off_c, 6, 82, 0
8, 78848, Note_on_c, 6, 81, 96
8, 79531, Note_off_c, 6, 81, 0
8, 79531, Note_on_c, 6, 81, 96
8, 79872, Note_off_c, 6, 81, 0
8, 79872, Note_on_c, 6, 81, 96
8, 80555, Note_off_c, 6, 81, 0
8, 80555, Note_on_c, 6, 81, 96
8, 80896, Note_off_c, 6, 81, 0
8, 80896, Note_on_c, 6, 79, 96
8, 81579, Note_off_c, 6, 79, 0
8, 81579, Note_on_c, 6, 79, 96
8, 81920, Note_off_c, 6, 79, 0
8, 81920, Note_on_c, 6, 79, 96
8, 82603, Note_off_c, 6, 79, 0
8, 82603, Note_on_c, 6, 74, 96
8, 82944, Note_off_c, 6, 74, 0
8, 82944, Note_on_c, 6, 74, 96
8, 83627, Note_off_c, 6, 74, 0
8, 83627, Note_on_c, 6, 74, 96
8, 83968, Note_off_c, 6, 74, 0
8, 83968, Note_on_c, 6, 72, 96
8, 84651, Note_off_c, 6, 72, 0
8, 84651, Note_on_c, 6, 72, 96
8, 84992, Note_off_c, 6, 72, 0
8, 84992, Note_on_c, 6, 72, 96
8, 85675, Note_off_c, 6, 72, 0
8, 85675, Note_on_c, 6, 72, 96
8, 86016, Note_off_c, 6, 72, 0
8, 86016, Note_on_c, 6, 71, 96
8, 87040, Note_off_c, 6, 71, 0
8, 87040, Note_on_c, 6, 75, 96
8, 89088, Note_off_c, 6, 75, 0
8, 89088, Note_on_c, 6, 74, 96
8, 91136, Note_off_c, 6, 74, 0
8, 91136, Note_on_c, 6, 72, 96
8, 93184, Note_off_c, 6, 72, 0
8, 93184, Note_on_c, 6, 71, 96
8, 93696, Note_off_c, 6, 71, 0
8, 93696, Note_on_c, 6, 69, 96
8, 94208, Note_off_c, 6, 69, 0
8, 94208, Note_on_c, 6, 71, 96
8, 98304, Note_off_c, 6, 71, 0
8, 98304, End_track
9, 0, Start_track
9, 0, Title_t, "Instrument 8"
9, 0, Note_on_c, 7, 65, 96
9, 256, Note_off_c, 7, 65, 0
9, 256, Note_on_c, 7, 65, 96
9, 512, Note_off_c, 7, 65, 0
9, 512, Note_on_c, 7, 65, 96
9, 768, Note_off_c, 7, 65, 0
9, 768, Note_on_c, 7, 65, 96
9, 1024, Note_off_c, 7, 65, 0
9, 1024, Note_on_c, 7, 67, 96
9, 1280, Note_off_c, 7, 67, 0
9, 1280, Note_on_c, 7, 67, 96
9, 1536, Note_off_c, 7, 67, 0
9, 1536, Note_on_c, 7, 67, 96
9, 1792, Note_off_c, 7, 67, 0
9, 1792, Note_on_c, 7, 67, 96
9, 2048, Note_off_c, 7, 67, 0
9, 2048, Note_on_c, 7, 69, 96
9, 2304, Note_off_c, 7, 69, 0
9, 2304, Note_on_c, 7, 69, 96
9, 2560, Note_off_c, 7, 69, 0
9, 2560, Note_on_c, 7, 69, 96
9, 2816, Note_off_c, 7, 69, 0
9, 2816, Note_on_c, 7, 69, 96
9, 3072, Note_off_c, 7, 69, 0
9, 3072, Note_on_c, 7, 62, 96
9, 3328, Note_off_c, 7, 62, 0
9, 3328, Note_on_c, 7, 62, 96
9, 3584, Note_off_c, 7, 62, 0
9, 3584, Note_on_c, 7, 62, 96
9, 3840, Note_off_c, 7, 62, 0
9, 3840, Note_on_c, 7, 62, 96
9, 4096, Note_off_c, 7, 62, 0
9, 4096, Note_on_c, 7, 64, 96
9, 4352, Note_off_c, 7, 64, 0
9, 4352, Note_on_c, 7, 64, 96
9, 4608, Note_off_c, 7, 64, 0
9, 4608, Note_on_c, 7, 64, 96
9, 4864, Note_off_c, 7, 64, 0
9, 4864, Note_on_c, 7, 64, 96
9, 5120, Note_off_c, 7, 64, 0
9, 5120, Note_on_c, 7, 67, 96
9, 5376, Note_off_c, 7, 67, 0
9, 5376, Note_on_c, 7, 67, 96
9, 5632, Note_off_c, 7, 67, 0
9, 5632, Note_on_c, 7, 67, 96
9, 5888, Note_off_c, 7, 67, 0
9, 5888, Note_on_c, 7, 67, 96
9, 6144, Note_off_c, 7, 67, 0
9, 6144, Note_on_c, 7, 69, 96
9, 6400, Note_off_c, 7, 69, 0
9, 6400, Note_on_c, 7, 69, 96
9, 6656, Note_off_c, 7, 69, 0
9, 6656, Note_on_c, 7, 69, 96
9, 6912, Note_off_c, 7, 69, 0
9, 6912, Note_on_c, 7, 69, 96
9, 7168, Note_off_c, 7, 69, 0
9, 7168, Note_on_c, 7, 69, 96
9, 7424, Note_off_c, 7, 69, 0
9, 7424, Note_on_c, 7, 69, 96
9, 7680, Note_off_c, 7, 69, 0
9, 7680, Note_on_c, 7, 69, 96
9, 7936, Note_off_c, 7, 69, 0
9, 7936, Note_on_c, 7, 69, 96
9, 8192, Note_off_c, 7, 69, 0
9, 8192, Note_on_c, 7, 70, 96
9, 8448, Note_off_c, 7, 70, 0
9, 8448, Note_on_c, 7, 70, 96
9, 8704, Note_off_c, 7, 70, 0
9, 8704, Note_on_c, 7, 70, 96
9, 8960, Note_off_c, 7, 70, 0
9, 8960, Note_on_c, 7, 70, 96
9, 9216, Note_off_c, 7, 70, 0
9, 9216, Note_on_c, 7, 71, 96
9, 9472, Note_off_c, 7, 71, 0
9, 9472, Note_on_c, 7, 71, 96
9, 9728, Note_off_c, 7, 71, 0
9, 9728, Note_on_c, 7, 71, 96
9, 9984, Note_off_c, 7, 71, 0
9, 9984, Note_on_c, 7, 71, 96
9, 10240, Note_off_c, 7, 71, 0
9, 10240, Note_on_c, 7, 72, 96
9, 10496, Note_off_c, 7, 72, 0
9, 10496, Note_on_c, 7, 72, 96
9, 10752, Note_off_c, 7, 72, 0
9, 10752, Note_on_c, 7, 72, 96
9, 11008, Note_off_c, 7, 72, 0
9, 11008, Note_on_c, 7, 72, 96
9, 11264, Note_off_c, 7, 72, 0
9, 11264, Note_on_c, 7, 66, 96
9, 11520, Note_off_c, 7, 66, 0
9, 11520, Note_on_c, 7, 66, 96
9, 11776, Note_off_c, 7, 66, 0
9, 11776, Note_on_c, 7, 66, 96
9, 12032, Note_off_c, 7, 66, 0
9, 12032, Note_on_c, 7, 66, 96
9, 12288, Note_off_c, 7, 66, 0
9, 12288, Note_on_c, 7, 67, 96
9, 12544, Note_off_c, 7, 67, 0
9, 12544, Note_on_c, 7, 67, 96
9, 12800, Note_off_c, 7, 67, 0
9, 12800, Note_on_c, 7, 67, 96
9, 13056, Note_off_c, 7, 67, 0
9, 13056, Note_on_c, 7, 67, 96
9, 13312, Note_off_c, 7, 67, 0
9, 13312, Note_on_c, 7, 67, 96
9, 13568, Note_off_c, 7, 67, 0
9, 13568, Note_on_c, 7, 67, 96
9, 13824, Note_off_c, 7, 67, 0
9, 13824, Note_on_c, 7, 67, 96
9, 14080, Note_off_c, 7, 67, 0
9, 14080, Note_on_c, 7, 67, 96
9, 14336, Note_off_c, 7, 67, 0
9, 14336, Note_on_c, 7, 69, 96
9, 14592, Note_off_c, 7, 69, 0
9, 14592, Note_on_c, 7, 69, 96
9, 14848, Note_off_c, 7, 69, 0
9, 14848, Note_on_c, 7, 62, 96
9, 15104, Note_off_c, 7, 62, 0
9, 15104, Note_on_c, 7, 62, 96
9, 15360, Note_off_c, 7, 62, 0
9, 15360, Note_on_c, 7, 67, 96
9, 15616, Note_off_c, 7, 67, 0
9, 15616, Note_on_c, 7, 67, 96
9, 15872, Note_off_c, 7, 67, 0
9, 15872, Note_on_c, 7, 58, 96
9, 16128, Note_off_c, 7, 58, 0
9, 16128, Note_on_c, 7, 58, 96
9, 16384, Note_off_c, 7, 58, 0
9, 16384, Note_on_c, 7, 63, 96
9, 16640, Note_off_c, 7, 63, 0
9, 16640, Note_on_c, 7, 63, 96
9, 16896, Note_off_c, 7, 63, 0
9, 16896, Note_on_c, 7, 60, 96
9, 17152, Note_off_c, 7, 60, 0
9, 17152, Note_on_c, 7, 60, 96
9, 17408, Note_off_c, 7, 60, 0
9, 17408, Note_on_c, 7, 67, 96
9, 17664, Note_off_c, 7, 67, 0
9, 17664, Note_on_c, 7, 67, 96
9, 17920, Note_off_c, 7, 67, 0
9, 17920, Note_on_c, 7, 61, 96
9, 18176, Note_off_c, 7, 61, 0
9, 18176, Note_on_c, 7, 61, 96
9, 18432, Note_off_c, 7, 61, 0
9, 18432, Note_on_c, 7, 62, 96
9, 18688, Note_off_c, 7, 62, 0
9, 18688, Note_on_c, 7, 62, 96
9, 18944, Note_off_c, 7, 62, 0
9, 18944, Note_on_c, 7, 62, 96
9, 19200, Note_off_c, 7, 62, 0
9, 19200, Note_on_c, 7, 62, 96
9, 19456, Note_off_c, 7, 62, 0
9, 19456, Note_on_c, 7, 62, 96
9, 19712, Note_off_c, 7, 62, 0
9, 19712, Note_on_c, 7, 62, 96
9, 19968, Note_off_c, 7, 62, 0
9, 19968, Note_on_c, 7, 62, 96
9, 20224, Note_off_c, 7, 62, 0
9, 20224, Note_on_c, 7, 62, 96
9, 20480, Note_off_c, 7, 62, 0
9, 20480, Note_on_c, 7, 64, 96
9, 20736, Note_off_c, 7, 64, 0
9, 20736, Note_on_c, 7, 64, 96
9, 20992, Note_off_c, 7, 64, 0
9, 20992, Note_on_c, 7, 64, 96
9, 21248, Note_off_c, 7, 64, 0
9, 21248, Note_on_c, 7, 64, 96
9, 21504, Note_off_c, 7, 64, 0
9, 21504, Note_on_c, 7, 66, 96
9, 21760, Note_off_c, 7, 66, 0
9, 21760, Note_on_c, 7, 66, 96
9, 22016, Note_off_c, 7, 66, 0
9, 22016, Note_on_c, 7, 66, 96
9, 22272, Note_off_c, 7, 66, 0
9, 22272, Note_on_c, 7, 66, 96
9, 22528, Note_off_c, 7, 66, 0
9, 22528, Note_on_c, 7, 67, 96
9, 22869, Note_off_c, 7, 67, 0
9, 22869, Note_on_c, 7, 67, 96
9, 23211, Note_off_c, 7, 67, 0
9, 23211, Note_on_c, 7, 67, 96
9, 23552, Note_off_c, 7, 67, 0
9, 23552, Note_on_c, 7, 62, 96
9, 23893, Note_off_c, 7, 62, 0
9, 23893, Note_on_c, 7, 62, 96
9, 24235, Note_off_c, 7, 62, 0
9, 24235, Note_on_c, 7, 62, 96
9, 24576, Note_off_c, 7, 62, 0
9, 24576, Note_on_c, 7, 62, 96
9, 24917, Note_off_c, 7, 62, 0
9, 24917, Note_on_c, 7, 62, 96
9, 25259, Note_off_c, 7, 62, 0
9, 25259, Note_on_c, 7, 62, 96
9, 25600, Note_off_c, 7, 62, 0
9, 25600, Note_on_c, 7, 57, 96
9, 25941, Note_off_c, 7, 57, 0
9, 25941, Note_on_c, 7, 57, 96
9, 26283, Note_off_c, 7, 57, 0
9, 26283, Note_on_c, 7, 57, 96
9, 26624, Note_off_c, 7, 57, 0
9, 26624, Note_on_c, 7, 64, 96
9, 26965, Note_off_c, 7, 64, 0
9, 26965, Note_on_c, 7, 64, 96
9, 27307, Note_off_c, 7, 64, 0
9, 27307, Note_on_c, 7, 64, 96
9, 27648, Note_off_c, 7, 64, 0
9, 27648, Note_on_c, 7, 70, 96
9, 27989, Note_off_c, 7, 70, 0
9, 27989, Note_on_c, 7, 70, 96
9, 28331, Note_off_c, 7, 70, 0
9, 28331, Note_on_c, 7, 70, 96
9, 28672, Note_off_c, 7, 70, 0
9, 28672, Note_on_c, 7, 72, 96
9, 29013, Note_off_c, 7, 72, 0
9, 29013, Note_on_c, 7, 72, 96
9, 29355, Note_off_c, 7, 72, 0
9, 29355, Note_on_c, 7, 72, 96
9, 29696, Note_off_c, 7, 72, 0
9, 29696, Note_on_c, 7, 72, 96
9, 30037, Note_off_c, 7, 72, 0
9, 30037, Note_on_c, 7, 72, 96
9, 30379, Note_off_c, 7, 72, 0
9, 30379, Note_on_c, 7, 72, 96
9, 30720, Note_off_c, 7, 72, 0
9, 30720, Note_on_c, 7, 70, 96
9, 31061, Note_off_c, 7, 70, 0
9, 31061, Note_on_c, 7, 70, 96
9, 31403, Note_off_c, 7, 70, 0
9, 31403, Note_on_c, 7, 70, 96
9, 31744, Note_off_c, 7, 70, 0
9, 31744, Note_on_c, 7, 71, 96
9, 32085, Note_off_c, 7, 71, 0
9, 32085, Note_on_c, 7, 71, 96
9, 32427, Note_off_c, 7, 71, 0
9, 32427, Note_on_c, 7, 70, 96
9, 32768, Note_off_c, 7, 70, 0
9, 32768, Note_on_c, 7, 72, 96
9, 33109, Note_off_c, 7, 72, 0
9, 33109, Note_on_c, 7, 72, 96
9, 33451, Note_off_c, 7, 72, 0
9, 33451, Note_on_c, 7, 72, 96
9, 33792, Note_off_c, 7, 72, 0
9, 33792, Note_on_c, 7, 66, 96
9, 34133, Note_off_c, 7, 66, 0
9, 34133, Note_on_c, 7, 66, 96
9, 34475, Note_off_c, 7, 66, 0
9, 34475, Note_on_c, 7, 66, 96
9, 34816, Note_off_c, 7, 66, 0
9, 34816, Note_on_c, 7, 67, 96
9, 35157, Note_off_c, 7, 67, 0
9, 35157, Note_on_c, 7, 67, 96
9, 35499, Note_off_c, 7, 67, 0
9, 35499, Note_on_c, 7, 67, 96
9, 35840, Note_off_c, 7, 67, 0
9, 35840, Note_on_c, 7, 62, 96
9, 36181, Note_off_c, 7, 62, 0
9, 36181, Note_on_c, 7, 62, 96
9, 36523, Note_off_c, 7, 62, 0
9, 36523, Note_on_c, 7, 62, 96
9, 36864, Note_off_c, 7, 62, 0
9, 36864, Note_on_c, 7, 63, 96
9, 37205, Note_off_c, 7, 63, 0
9, 37205, Note_on_c, 7, 63, 96
9, 37547, Note_off_c, 7, 63, 0
9, 37547, Note_on_c, 7, 63, 96
9, 37888, Note_off_c, 7, 63, 0
9, 37888, Note_on_c, 7, 64, 96
9, 38229, Note_off_c, 7, 64, 0
9, 38229, Note_on_c, 7, 64, 96
9, 38571, Note_off_c, 7, 64, 0
9, 38571, Note_on_c, 7, 64, 96
9, 38912, Note_off_c, 7, 64, 0
9, 38912, Note_on_c, 7, 66, 96
9, 39253, Note_off_c, 7, 66, 0
9, 39253, Note_on_c, 7, 66, 96
9, 39595, Note_off_c, 7, 66, 0
9, 39595, Note_on_c, 7, 66, 96
9, 39936, Note_off_c, 7, 66, 0
9, 39936, Note_on_c, 7, 75, 96
9, 40277, Note_off_c, 7, 75, 0
9, 40277, Note_on_c, 7, 75, 96
9, 40619, Note_off_c, 7, 75, 0
9, 40619, Note_on_c, 7, 75, 96
9, 40960, Note_off_c, 7, 75, 0
9, 40960, Note_on_c, 7, 69, 96
9, 41301, Note_off_c, 7, 69, 0
9, 41301, Note_on_c, 7, 69, 96
9, 41643, Note_off_c, 7, 69, 0
9, 41643, Note_on_c, 7, 69, 96
9, 41984, Note_off_c, 7, 69, 0
9, 41984, Note_on_c, 7, 66, 96
9, 42325, Note_off_c, 7, 66, 0
9, 42325, Note_on_c, 7, 66, 96
9, 42667, Note_off_c, 7, 66, 0
9, 42667, Note_on_c, 7, 66, 96
9, 43008, Note_off_c, 7, 66, 0
9, 43008, Note_on_c, 7, 67, 96
9, 43349, Note_off_c, 7, 67, 0
9, 43349, Note_on_c, 7, 67, 96
9, 43691, Note_off_c, 7, 67, 0
9, 43691, Note_on_c, 7, 67, 96
9, 44032, Note_off_c, 7, 67, 0
9, 44032, Note_on_c, 7, 61, 96
9, 44373, Note_off_c, 7, 61, 0
9, 44373, Note_on_c, 7, 61, 96
9, 44715, Note_off_c, 7, 61, 0
9, 44715, Note_on_c, 7, 60, 96
9, 45056, Note_off_c, 7, 60, 0
9, 45056, Note_on_c, 7, 62, 96
9, 45568, Note_off_c, 7, 62, 0
9, 45568, Note_on_c, 7, 62, 96
9, 46080, Note_off_c, 7, 62, 0
9, 46080, Note_on_c, 7, 58, 96
9, 46592, Note_off_c, 7, 58, 0
9, 46592, Note_on_c, 7, 58, 96
9, 47104, Note_off_c, 7, 58, 0
9, 47104, Note_on_c, 7, 55, 96
9, 47616, Note_off_c, 7, 55, 0
9, 47616, Note_on_c, 7, 55, 96
9, 48128, Note_off_c, 7, 55, 0
9, 48128, Note_on_c, 7, 57, 96
9, 48640, Note_off_c, 7, 57, 0
9, 48640, Note_on_c, 7, 57, 96
9, 49152, Note_off_c, 7, 57, 0
9, 49152, Note_on_c, 7, 62, 96
9, 49664, Note_off_c, 7, 62, 0
9, 49664, Note_on_c, 7, 62, 96
9, 50176, Note_off_c, 7, 62, 0
9, 50176, Note_on_c, 7, 69, 96
9, 50688, Note_off_c, 7, 69, 0
9, 50688, Note_on_c, 7, 70, 96
9, 51200, Note_off_c, 7, 70, 0
9, 51200, Note_on_c, 7, 70, 96
9, 51712, Note_off_c, 7, 70, 0
9, 51712, Note_on_c, 7, 70, 96
9, 52224, Note_off_c, 7, 70, 0
9, 52224, Note_on_c, 7, 70, 96
9, 52736, Note_off_c, 7, 70, 0
9, 52736, Note_on_c, 7, 70, 96
9, 53248, Note_off_c, 7, 70, 0
9, 53248, Note_on_c, 7, 69, 96
9, 53760, Note_off_c, 7, 69, 0
9, 53760, Note_on_c, 7, 69, 96
9, 54272, Note_off_c, 7, 69, 0
9, 54272, Note_on_c, 7, 65, 96
9, 54784, Note_off_c, 7, 65, 0
9, 54784, Note_on_c, 7, 65, 96
9, 55296, Note_off_c, 7, 65, 0
9, 55296, Note_on_c, 7, 67, 96
9, 55808, Note_off_c, 7, 67, 0
9, 55808, Note_on_c, 7, 67, 96
9, 56320, Note_off_c, 7, 67, 0
9, 56320, Note_on_c, 7, 69, 96
9, 56832, Note_off_c, 7, 69, 0
9, 56832, Note_on_c, 7, 69, 96
9, 57344, Note_off_c, 7, 69, 0
9, 57344, Note_on_c, 7, 70, 96
9, 57856, Note_off_c, 7, 70, 0
9, 57856, Note_on_c, 7, 70, 96
9, 58368, Note_off_c, 7, 70, 0
9, 58368, Note_on_c, 7, 65, 96
9, 58880, Note_off_c, 7, 65, 0
9, 58880, Note_on_c, 7, 65, 96
9, 59392, Note_off_c, 7, 65, 0
9, 59392, Note_on_c, 7, 65, 96
9, 59904, Note_off_c, 7, 65, 0
9, 59904, Note_on_c, 7, 65, 96
9, 60416, Note_off_c, 7, 65, 0
9, 60416, Note_on_c, 7, 62, 96
9, 60928, Note_off_c, 7, 62, 0
9, 60928, Note_on_c, 7, 62, 96
9, 61440, Note_off_c, 7, 62, 0
9, 61440, Note_on_c, 7, 58, 96
9, 61952, Note_off_c, 7, 58, 0
9, 61952, Note_on_c, 7, 58, 96
9, 62464, Note_off_c, 7, 58, 0
9, 62464, Note_on_c, 7, 65, 96
9, 62976, Note_off_c, 7, 65, 0
9, 62976, Note_on_c, 7, 65, 96
9, 63488, Note_off_c, 7, 65, 0
9, 63488, Note_on_c, 7, 63, 96
9, 64000, Note_off_c, 7, 63, 0
9, 64000, Note_on_c, 7, 63, 96
9, 64512, Note_off_c, 7, 63, 0
9, 64512, Note_on_c, 7, 63, 96
9, 65024, Note_off_c, 7, 63, 0
9, 65024, Note_on_c, 7, 63, 96
9, 65536, Note_off_c, 7, 63, 0
9, 65536, Note_on_c, 7, 62, 96
9, 66048, Note_off_c, 7, 62, 0
9, 66048, Note_on_c, 7, 62, 96
9, 66560, Note_off_c, 7, 62, 0
9, 66560, Note_on_c, 7, 62, 96
9, 67072, Note_off_c, 7, 62, 0
9, 67072, Note_on_c, 7, 62, 96
9, 67584, Note_off_c, 7, 62, 0
9, 67584, Note_on_c, 7, 63, 96
9, 68096, Note_off_c, 7, 63, 0
9, 68096, Note_on_c, 7, 63, 96
9, 68608, Note_off_c, 7, 63, 0
9, 68608, Note_on_c, 7, 57, 96
9, 69120, Note_off_c, 7, 57, 0
9, 69120, Note_on_c, 7, 57, 96
9, 69632, Note_off_c, 7, 57, 0
9, 69632, Note_on_c, 7, 58, 96
9, 70315, Note_off_c, 7, 58, 0
9, 70315, Note_on_c, 7, 58, 96
9, 70656, Note_off_c, 7, 58, 0
9, 70656, Note_on_c, 7, 65, 96
9, 71339, Note_off_c, 7, 65, 0
9, 71339, Note_on_c, 7, 65, 96
9, 71680, Note_off_c, 7, 65, 0
9, 71680, Note_on_c, 7, 72, 96
9, 72363, Note_off_c, 7, 72, 0
9, 72363, Note_on_c, 7, 72, 96
9, 72704, Note_off_c, 7, 72, 0
9, 72704, Note_on_c, 7, 69, 96
9, 73387, Note_off_c, 7, 69, 0
9, 73387, Note_on_c, 7, 69, 96
9, 73728, Note_off_c, 7, 69, 0
9, 73728, Note_on_c, 7, 70, 96
9, 74411, Note_off_c, 7, 70, 0
9, 74411, Note_on_c, 7, 70, 96
9, 74752, Note_off_c, 7, 70, 0
9, 74752, Note_on_c, 7, 67, 96
9, 75435, Note_off_c, 7, 67, 0
9, 75435, Note_on_c, 7, 67, 96
9, 75776, Note_off_c, 7, 67, 0
9, 75776, Note_on_c, 7, 74, 96
9, 76459, Note_off_c, 7, 74, 0
9, 76459, Note_on_c, 7, 74, 96
9, 76800, Note_off_c, 7, 74, 0
9, 76800, Note_on_c, 7, 62, 96
9, 77483, Note_off_c, 7, 62, 0
9, 77483, Note_on_c, 7, 62, 96
9, 77824, Note_off_c, 7, 62, 0
9, 77824, Note_on_c, 7, 64, 96
9, 78507, Note_off_c, 7, 64, 0
9, 78507, Note_on_c, 7, 64, 96
9, 78848, Note_off_c, 7, 64, 0
9, 78848, Note_on_c, 7, 66, 96
9, 79531, Note_off_c, 7, 66, 0
9, 79531, Note_on_c, 7, 66, 96
9, 79872, Note_off_c, 7, 66, 0
9, 79872, Note_on_c, 7, 67, 96
9, 80555, Note_off_c, 7, 67, 0
9, 80555, Note_on_c, 7, 67, 96
9, 80896, Note_off_c, 7, 67, 0
9, 80896, Note_on_c, 7, 62, 96
9, 81579, Note_off_c, 7, 62, 0
9, 81579, Note_on_c, 7, 62, 96
9, 81920, Note_off_c, 7, 62, 0
9, 81920, Note_on_c, 7, 55, 96
9, 82603, Note_off_c, 7, 55, 0
9, 82603, Note_on_c, 7, 62, 96
9, 82944, Note_off_c, 7, 62, 0
9, 82944, Note_on_c, 7, 62, 96
9, 83627, Note_off_c, 7, 62, 0
9, 83627, Note_on_c, 7, 67, 96
9, 83968, Note_off_c, 7, 67, 0
9, 83968, Note_on_c, 7, 63, 96
9, 84651, Note_off_c, 7, 63, 0
9, 84651, Note_on_c, 7, 63, 96
9, 84992, Note_off_c, 7, 63, 0
9, 84992, Note_on_c, 7, 62, 96
9, 85675, Note_off_c, 7, 62, 0
9, 85675, Note_on_c, 7, 62, 96
9, 86016, Note_off_c, 7, 62, 0
9, 86016, Note_on_c, 7, 62, 96
9, 87040, Note_off_c, 7, 62, 0
9, 87040, Note_on_c, 7, 55, 96
9, 88064, Note_off_c, 7, 55, 0
9, 88064, Note_on_c, 7, 57, 96
9, 89088, Note_off_c, 7, 57, 0
9, 89088, Note_on_c, 7, 59, 96
9, 90112, Note_off_c, 7, 59, 0
9, 90112, Note_on_c, 7, 60, 96
9, 91136, Note_off_c, 7, 60, 0
9, 91136, Note_on_c, 7, 54, 96
9, 92160, Note_off_c, 7, 54, 0
9, 92160, Note_on_c, 7, 55, 96
9, 98304, Note_off_c, 7, 55, 0
9, 98304, End_track
0, 0, End_of_file
