0, 0, Header, 1, 7, 1024
1, 0, Start_track
1, 0, Time_signature, 4, 2, 24, 8
1, 0, Key_signature, 1, "major"
1, 0, Tempo, 845070
1, 57344, End_track
2, 0, Start_track
2, 0, Title_t, "Instrument 1"
2, 4096, Note_on_c, 0, 74, 96
2, 6144, Note_off_c, 0, 74, 0
2, 6144, Note_on_c, 0, 71, 96
2, 8192, Note_off_c, 0, 71, 0
2, 8192, Note_on_c, 0, 74, 96
2, 10240, Note_off_c, 0, 74, 0
2, 10240, Note_on_c, 0, 71, 96
2, 12288, Note_off_c, 0, 71, 0
2, 12288, Note_on_c, 0, 71, 96
2, 13312, Note_off_c, 0, 71, 0
2, 13312, Note_on_c, 0, 71, 96
2, 14336, Note_off_c, 0, 71, 0
2, 14336, Note_on_c, 0, 69, 96
2, 15360, Note_off_c, 0, 69, 0
2, 15360, Note_on_c, 0, 69, 96
2, 16384, Note_off_c, 0, 69, 0
2, 16384, Note_on_c, 0, 71, 96
2, 17408, Note_off_c, 0, 71, 0
2, 17408, Note_on_c, 0, 71, 96
2, 18432, Note_off_c, 0, 71, 0
2, 18432, Note_on_c, 0, 69, 96
2, 19456, Note_off_c, 0, 69, 0
2, 19456, Note_on_c, 0, 69, 96
2, 20480, Note_off_c, 0, 69, 0
2, 20480, Note_on_c, 0, 71, 96
2, 21504, Note_off_c, 0, 71, 0
2, 21504, Note_on_c, 0, 71, 96
2, 22528, Note_off_c, 0, 71, 0
2, 22528, Note_on_c, 0, 69, 96
2, 24576, Note_off_c, 0, 69, 0
2, 24576, Note_on_c, 0, 67, 96
2, 28672, Note_off_c, 0, 67, 0
2, 28672, Note_on_c, 0, 79, 96
2, 30720, Note_off_c, 0, 79, 0
2, 30720, Note_on_c, 0, 78, 96
2, 32768, Note_off_c, 0, 78, 0
2, 32768, Note_on_c, 0, 76, 96
2, 34816, Note_off_c, 0, 76, 0
2, 34816, Note_on_c, 0, 74, 96
2, 36864, Note_off_c, 0, 74, 0
2, 36864, Note_on_c, 0, 72, 96
2, 38912, Note_off_c, 0, 72, 0
2, 38912, Note_on_c, 0, 71, 96
2, 40960, Note_off_c, 0, 71, 0
2, 40960, Note_on_c, 0, 69, 96
2, 45056, Note_off_c, 0, 69, 0
2, 45056, Note_on_c, 0, 67, 96
2, 57344, Note_off_c, 0, 67, 0
2, 57344, End_track
3, 0, Start_track
3, 0, Title_t, "Instrument 2"
3, 512, Note_on_c, 1, 62, 96
3, 768, Note_off_c, 1, 62, 0
3, 768, Note_on_c, 1, 64, 96
3, 1024, Note_off_c, 1, 64, 0
3, 1024, Note_on_c, 1, 66, 96
3, 1280, Note_off_c, 1, 66, 0
3, 1280, Note_on_c, 1, 67, 96
3, 1536, Note_off_c, 1, 67, 0
3, 1536, Note_on_c, 1, 69, 96
3, 1792, Note_off_c, 1, 69, 0
3, 1792, Note_on_c, 1, 66, 96
3, 2048, Note_off_c, 1, 66, 0
3, 2048, Note_on_c, 1, 67, 96
3, 2560, Note_off_c, 1, 67, 0
3, 2560, Note_on_c, 1, 62, 96
3, 3072, Note_off_c, 1, 62, 0
3, 3072, Note_on_c, 1, 67, 96
3, 4608, Note_off_c, 1, 67, 0
3, 4608, Note_on_c, 1, 66, 96
3, 4864, Note_off_c, 1, 66, 0
3, 4864, Note_on_c, 1, 67, 96
3, 5120, Note_off_c, 1, 67, 0
3, 5120, Note_on_c, 1, 69, 96
3, 6656, Note_off_c, 1, 69, 0
3, 6656, Note_on_c, 1, 67, 96
3, 6912, Note_off_c, 1, 67, 0
3, 6912, Note_on_c, 1, 69, 96
3, 7168, Note_off_c, 1, 69, 0
3, 7168, Note_on_c, 1, 71, 96
3, 7680, Note_off_c, 1, 71, 0
3, 7680, Note_on_c, 1, 71, 96
3, 8192, Note_off_c, 1, 71, 0
3, 8192, Note_on_c, 1, 69, 96
3, 10240, Note_off_c, 1, 69, 0
3, 10240, Note_on_c, 1, 67, 96
3, 12288, Note_off_c, 1, 67, 0
3, 12800, Note_on_c, 1, 62, 96
3, 13312, Note_off_c, 1, 62, 0
3, 13312, Note_on_c, 1, 67, 96
3, 13824, Note_off_c, 1, 67, 0
3, 13824, Note_on_c, 1, 67, 96
3, 14336, Note_off_c, 1, 67, 0
3, 14336, Note_on_c, 1, 67, 96
3, 14848, Note_off_c, 1, 67, 0
3, 14848, Note_on_c, 1, 66, 96
3, 15104, Note_off_c, 1, 66, 0
3, 15104, Note_on_c, 1, 67, 96
3, 15360, Note_off_c, 1, 67, 0
3, 15360, Note_on_c, 1, 69, 96
3, 15872, Note_off_c, 1, 69, 0
3, 15872, Note_on_c, 1, 69, 96
3, 16384, Note_off_c, 1, 69, 0
3, 16384, Note_on_c, 1, 69, 96
3, 16896, Note_off_c, 1, 69, 0
3, 16896, Note_on_c, 1, 67, 96
3, 17152, Note_off_c, 1, 67, 0
3, 17152, Note_on_c, 1, 66, 96
3, 17408, Note_off_c, 1, 66, 0
3, 17408, Note_on_c, 1, 67, 96
3, 17664, Note_off_c, 1, 67, 0
3, 17664, Note_on_c, 1, 69, 96
3, 17920, Note_off_c, 1, 69, 0
3, 17920, Note_on_c, 1, 71, 96
3, 18176, Note_off_c, 1, 71, 0
3, 18176, Note_on_c, 1, 67, 96
3, 18432, Note_off_c, 1, 67, 0
3, 18432, Note_on_c, 1, 69, 96
3, 18688, Note_off_c, 1, 69, 0
3, 18688, Note_on_c, 1, 71, 96
3, 18944, Note_off_c, 1, 71, 0
3, 18944, Note_on_c, 1, 69, 96
3, 19200, Note_off_c, 1, 69, 0
3, 19200, Note_on_c, 1, 67, 96
3, 19456, Note_off_c, 1, 67, 0
3, 19456, Note_on_c, 1, 66, 96
3, 19712, Note_off_c, 1, 66, 0
3, 19712, Note_on_c, 1, 67, 96
3, 19968, Note_off_c, 1, 67, 0
3, 19968, Note_on_c, 1, 66, 96
3, 20224, Note_off_c, 1, 66, 0
3, 20224, Note_on_c, 1, 64, 96
3, 20480, Note_off_c, 1, 64, 0
3, 20480, Note_on_c, 1, 62, 96
3, 20992, Note_off_c, 1, 62, 0
3, 20992, Note_on_c, 1, 62, 96
3, 21504, Note_off_c, 1, 62, 0
3, 21504, Note_on_c, 1, 67, 96
3, 23040, Note_off_c, 1, 67, 0
3, 23040, Note_on_c, 1, 66, 96
3, 23296, Note_off_c, 1, 66, 0
3, 23296, Note_on_c, 1, 64, 96
3, 23552, Note_off_c, 1, 64, 0
3, 23552, Note_on_c, 1, 66, 96
3, 25088, Note_off_c, 1, 66, 0
3, 25088, Note_on_c, 1, 59, 96
3, 25600, Note_off_c, 1, 59, 0
3, 25600, Note_on_c, 1, 64, 96
3, 27136, Note_off_c, 1, 64, 0
3, 27136, Note_on_c, 1, 62, 96
3, 27648, Note_off_c, 1, 62, 0
3, 27648, Note_on_c, 1, 64, 96
3, 28160, Note_off_c, 1, 64, 0
3, 28160, Note_on_c, 1, 66, 96
3, 28672, Note_off_c, 1, 66, 0
3, 28672, Note_on_c, 1, 67, 96
3, 29184, Note_off_c, 1, 67, 0
3, 29184, Note_on_c, 1, 66, 96
3, 29696, Note_off_c, 1, 66, 0
3, 29696, Note_on_c, 1, 64, 96
3, 30208, Note_off_c, 1, 64, 0
3, 30208, Note_on_c, 1, 62, 96
3, 30720, Note_off_c, 1, 62, 0
3, 30720, Note_on_c, 1, 60, 96
3, 32256, Note_off_c, 1, 60, 0
3, 32256, Note_on_c, 1, 62, 96
3, 32512, Note_off_c, 1, 62, 0
3, 32512, Note_on_c, 1, 60, 96
3, 32768, Note_off_c, 1, 60, 0
3, 32768, Note_on_c, 1, 59, 96
3, 34304, Note_off_c, 1, 59, 0
3, 34304, Note_on_c, 1, 60, 96
3, 34560, Note_off_c, 1, 60, 0
3, 34560, Note_on_c, 1, 59, 96
3, 34816, Note_off_c, 1, 59, 0
3, 34816, Note_on_c, 1, 57, 96
3, 36352, Note_off_c, 1, 57, 0
3, 36352, Note_on_c, 1, 59, 96
3, 36608, Note_off_c, 1, 59, 0
3, 36608, Note_on_c, 1, 57, 96
3, 36864, Note_off_c, 1, 57, 0
3, 36864, Note_on_c, 1, 55, 96
3, 37120, Note_off_c, 1, 55, 0
3, 37120, Note_on_c, 1, 67, 96
3, 37376, Note_off_c, 1, 67, 0
3, 37376, Note_on_c, 1, 66, 96
3, 37632, Note_off_c, 1, 66, 0
3, 37632, Note_on_c, 1, 64, 96
3, 37888, Note_off_c, 1, 64, 0
3, 37888, Note_on_c, 1, 62, 96
3, 39168, Note_off_c, 1, 62, 0
3, 39168, Note_on_c, 1, 59, 96
3, 39424, Note_off_c, 1, 59, 0
3, 39424, Note_on_c, 1, 60, 96
3, 39680, Note_off_c, 1, 60, 0
3, 39680, Note_on_c, 1, 62, 96
3, 39936, Note_off_c, 1, 62, 0
3, 39936, Note_on_c, 1, 64, 96
3, 41216, Note_off_c, 1, 64, 0
3, 41216, Note_on_c, 1, 66, 96
3, 41472, Note_off_c, 1, 66, 0
3, 41472, Note_on_c, 1, 64, 96
3, 41728, Note_off_c, 1, 64, 0
3, 41728, Note_on_c, 1, 66, 96
3, 41984, Note_off_c, 1, 66, 0
3, 41984, Note_on_c, 1, 67, 96
3, 43264, Note_off_c, 1, 67, 0
3, 43264, Note_on_c, 1, 71, 96
3, 43520, Note_off_c, 1, 71, 0
3, 43520, Note_on_c, 1, 69, 96
3, 43776, Note_off_c, 1, 69, 0
3, 43776, Note_on_c, 1, 67, 96
3, 44032, Note_off_c, 1, 67, 0
3, 44032, Note_on_c, 1, 66, 96
3, 45312, Note_off_c, 1, 66, 0
3, 45312, Note_on_c, 1, 69, 96
3, 45568, Note_off_c, 1, 69, 0
3, 45568, Note_on_c, 1, 67, 96
3, 45824, Note_off_c, 1, 67, 0
3, 45824, Note_on_c, 1, 66, 96
3, 46080, Note_off_c, 1, 66, 0
3, 46080, Note_on_c, 1, 64, 96
3, 46336, Note_off_c, 1, 64, 0
3, 46336, Note_on_c, 1, 67, 96
3, 46592, Note_off_c, 1, 67, 0
3, 46592, Note_on_c, 1, 66, 96
3, 46848, Note_off_c, 1, 66, 0
3, 46848, Note_on_c, 1, 64, 96
3, 47104, Note_off_c, 1, 64, 0
3, 47104, Note_on_c, 1, 62, 96
3, 47872, Note_off_c, 1, 62, 0
3, 47872, Note_on_c, 1, 64, 96
3, 48128, Note_off_c, 1, 64, 0
3, 48128, Note_on_c, 1, 65, 96
3, 49664, Note_off_c, 1, 65, 0
3, 49664, Note_on_c, 1, 64, 96
3, 49920, Note_off_c, 1, 64, 0
3, 49920, Note_on_c, 1, 62, 96
3, 50176, Note_off_c, 1, 62, 0
3, 50176, Note_on_c, 1, 60, 96
3, 50432, Note_off_c, 1, 60, 0
3, 50432, Note_on_c, 1, 59, 96
3, 50688, Note_off_c, 1, 59, 0
3, 50688, Note_on_c, 1, 57, 96
3, 50944, Note_off_c, 1, 57, 0
3, 50944, Note_on_c, 1, 55, 96
3, 51200, Note_off_c, 1, 55, 0
3, 51200, Note_on_c, 1, 64, 96
3, 53504, Note_off_c, 1, 64, 0
3, 53504, Note_on_c, 1, 67, 96
3, 53760, Note_off_c, 1, 67, 0
3, 53760, Note_on_c, 1, 65, 96
3, 54016, Note_off_c, 1, 65, 0
3, 54016, Note_on_c, 1, 64, 96
3, 54272, Note_off_c, 1, 64, 0
3, 54272, Note_on_c, 1, 62, 96
3, 55040, Note_off_c, 1, 62, 0
3, 55040, Note_on_c, 1, 60, 96
3, 55296, Note_off_c, 1, 60, 0
3, 55296, Note_on_c, 1, 62, 96
3, 57344, Note_off_c, 1, 62, 0
3, 57344, End_track
4, 0, Start_track
4, 0, Title_t, "Instrument 3"
4, 512, Note_on_c, 2, 54, 96
4, 768, Note_off_c, 2, 54, 0
4, 768, Note_on_c, 2, 55, 96
4, 1024, Note_off_c, 2, 55, 0
4, 1024, Note_on_c, 2, 57, 96
4, 1280, Note_off_c, 2, 57, 0
4, 1280, Note_on_c, 2, 59, 96
4, 1536, Note_off_c, 2, 59, 0
4, 1536, Note_on_c, 2, 60, 96
4, 1792, Note_off_c, 2, 60, 0
4, 1792, Note_on_c, 2, 57, 96
4, 2048, Note_off_c, 2, 57, 0
4, 2048, Note_on_c, 2, 62, 96
4, 3584, Note_off_c, 2, 62, 0
4, 3584, Note_on_c, 2, 60, 96
4, 3840, Note_off_c, 2, 60, 0
4, 3840, Note_on_c, 2, 59, 96
4, 4096, Note_off_c, 2, 59, 0
4, 4096, Note_on_c, 2, 57, 96
4, 5120, Note_off_c, 2, 57, 0
4, 5120, Note_on_c, 2, 50, 96
4, 6144, Note_off_c, 2, 50, 0
4, 6144, Note_on_c, 2, 62, 96
4, 7424, Note_off_c, 2, 62, 0
4, 7424, Note_on_c, 2, 60, 96
4, 7680, Note_off_c, 2, 60, 0
4, 7680, Note_on_c, 2, 62, 96
4, 7936, Note_off_c, 2, 62, 0
4, 7936, Note_on_c, 2, 64, 96
4, 8192, Note_off_c, 2, 64, 0
4, 8192, Note_on_c, 2, 57, 96
4, 9728, Note_off_c, 2, 57, 0
4, 9728, Note_on_c, 2, 62, 96
4, 10240, Note_off_c, 2, 62, 0
4, 10240, Note_on_c, 2, 62, 96
4, 12288, Note_off_c, 2, 62, 0
4, 14848, Note_on_c, 2, 57, 96
4, 15360, Note_off_c, 2, 57, 0
4, 15360, Note_on_c, 2, 62, 96
4, 15872, Note_off_c, 2, 62, 0
4, 15872, Note_on_c, 2, 62, 96
4, 16384, Note_off_c, 2, 62, 0
4, 16384, Note_on_c, 2, 62, 96
4, 16896, Note_off_c, 2, 62, 0
4, 16896, Note_on_c, 2, 59, 96
4, 17152, Note_off_c, 2, 59, 0
4, 17152, Note_on_c, 2, 60, 96
4, 17408, Note_off_c, 2, 60, 0
4, 17408, Note_on_c, 2, 62, 96
4, 17920, Note_off_c, 2, 62, 0
4, 17920, Note_on_c, 2, 62, 96
4, 18432, Note_off_c, 2, 62, 0
4, 18432, Note_on_c, 2, 62, 96
4, 18944, Note_off_c, 2, 62, 0
4, 18944, Note_on_c, 2, 57, 96
4, 19456, Note_off_c, 2, 57, 0
4, 19456, Note_on_c, 2, 62, 96
4, 20480, Note_off_c, 2, 62, 0
4, 22016, Note_on_c, 2, 59, 96
4, 22528, Note_off_c, 2, 59, 0
4, 22528, Note_on_c, 2, 64, 96
4, 23040, Note_off_c, 2, 64, 0
4, 23040, Note_on_c, 2, 64, 96
4, 23552, Note_off_c, 2, 64, 0
4, 23552, Note_on_c, 2, 62, 96
4, 25088, Note_off_c, 2, 62, 0
4, 25088, Note_on_c, 2, 55, 96
4, 25600, Note_off_c, 2, 55, 0
4, 25600, Note_on_c, 2, 60, 96
4, 27136, Note_off_c, 2, 60, 0
4, 27136, Note_on_c, 2, 59, 96
4, 27648, Note_off_c, 2, 59, 0
4, 27648, Note_on_c, 2, 61, 96
4, 28160, Note_off_c, 2, 61, 0
4, 28160, Note_on_c, 2, 63, 96
4, 28672, Note_off_c, 2, 63, 0
4, 28672, Note_on_c, 2, 64, 96
4, 31232, Note_off_c, 2, 64, 0
4, 31232, Note_on_c, 2, 66, 96
4, 31488, Note_off_c, 2, 66, 0
4, 31488, Note_on_c, 2, 64, 96
4, 31744, Note_off_c, 2, 64, 0
4, 31744, Note_on_c, 2, 62, 96
4, 33280, Note_off_c, 2, 62, 0
4, 33280, Note_on_c, 2, 64, 96
4, 33536, Note_off_c, 2, 64, 0
4, 33536, Note_on_c, 2, 62, 96
4, 33792, Note_off_c, 2, 62, 0
4, 33792, Note_on_c, 2, 60, 96
4, 35328, Note_off_c, 2, 60, 0
4, 35328, Note_on_c, 2, 62, 96
4, 35584, Note_off_c, 2, 62, 0
4, 35584, Note_on_c, 2, 60, 96
4, 35840, Note_off_c, 2, 60, 0
4, 35840, Note_on_c, 2, 59, 96
4, 37376, Note_off_c, 2, 59, 0
4, 37376, Note_on_c, 2, 60, 96
4, 37632, Note_off_c, 2, 60, 0
4, 37632, Note_on_c, 2, 59, 96
4, 37888, Note_off_c, 2, 59, 0
4, 37888, Note_on_c, 2, 57, 96
4, 39424, Note_off_c, 2, 57, 0
4, 39424, Note_on_c, 2, 59, 96
4, 39680, Note_off_c, 2, 59, 0
4, 39680, Note_on_c, 2, 57, 96
4, 39936, Note_off_c, 2, 57, 0
4, 39936, Note_on_c, 2, 55, 96
4, 41472, Note_off_c, 2, 55, 0
4, 41472, Note_on_c, 2, 52, 96
4, 41984, Note_off_c, 2, 52, 0
4, 41984, Note_on_c, 2, 57, 96
4, 43264, Note_off_c, 2, 57, 0
4, 43264, Note_on_c, 2, 55, 96
4, 43520, Note_off_c, 2, 55, 0
4, 43520, Note_on_c, 2, 57, 96
4, 43776, Note_off_c, 2, 57, 0
4, 43776, Note_on_c, 2, 59, 96
4, 44032, Note_off_c, 2, 59, 0
4, 44032, Note_on_c, 2, 60, 96
4, 44544, Note_off_c, 2, 60, 0
4, 44544, Note_on_c, 2, 59, 96
4, 45056, Note_off_c, 2, 59, 0
4, 45056, Note_on_c, 2, 59, 96
4, 47360, Note_off_c, 2, 59, 0
4, 47360, Note_on_c, 2, 60, 96
4, 47616, Note_off_c, 2, 60, 0
4, 47616, Note_on_c, 2, 62, 96
4, 48128, Note_off_c, 2, 62, 0
4, 48128, Note_on_c, 2, 62, 96
4, 48640, Note_off_c, 2, 62, 0
4, 48640, Note_on_c, 2, 60, 96
4, 48896, Note_off_c, 2, 60, 0
4, 48896, Note_on_c, 2, 62, 96
4, 49664, Note_off_c, 2, 62, 0
4, 49664, Note_on_c, 2, 60, 96
4, 49920, Note_off_c, 2, 60, 0
4, 49920, Note_on_c, 2, 59, 96
4, 50176, Note_off_c, 2, 59, 0
4, 50176, Note_on_c, 2, 57, 96
4, 50432, Note_off_c, 2, 57, 0
4, 50432, Note_on_c, 2, 55, 96
4, 50688, Note_off_c, 2, 55, 0
4, 50688, Note_on_c, 2, 53, 96
4, 50944, Note_off_c, 2, 53, 0
4, 50944, Note_on_c, 2, 52, 96
4, 51200, Note_off_c, 2, 52, 0
4, 51200, Note_on_c, 2, 60, 96
4, 54528, Note_off_c, 2, 60, 0
4, 54528, Note_on_c, 2, 62, 96
4, 54656, Note_off_c, 2, 62, 0
4, 54656, Note_on_c, 2, 60, 96
4, 54784, Note_off_c, 2, 60, 0
4, 54784, Note_on_c, 2, 59, 96
4, 55040, Note_off_c, 2, 59, 0
4, 55040, Note_on_c, 2, 60, 96
4, 55168, Note_off_c, 2, 60, 0
4, 55168, Note_on_c, 2, 57, 96
4, 55296, Note_off_c, 2, 57, 0
4, 55296, Note_on_c, 2, 59, 96
4, 57344, Note_off_c, 2, 59, 0
4, 57344, End_track
5, 0, Start_track
5, 0, Title_t, "Instrument 4"
5, 0, Note_on_c, 3, 50, 96
5, 2048, Note_off_c, 3, 50, 0
5, 2048, Note_on_c, 3, 47, 96
5, 4096, Note_off_c, 3, 47, 0
5, 4608, Note_on_c, 3, 50, 96
5, 4864, Note_off_c, 3, 50, 0
5, 4864, Note_on_c, 3, 52, 96
5, 5120, Note_off_c, 3, 52, 0
5, 5120, Note_on_c, 3, 54, 96
5, 5376, Note_off_c, 3, 54, 0
5, 5376, Note_on_c, 3, 55, 96
5, 5632, Note_off_c, 3, 55, 0
5, 5632, Note_on_c, 3, 57, 96
5, 5888, Note_off_c, 3, 57, 0
5, 5888, Note_on_c, 3, 54, 96
5, 6144, Note_off_c, 3, 54, 0
5, 6144, Note_on_c, 3, 55, 96
5, 6656, Note_off_c, 3, 55, 0
5, 6656, Note_on_c, 3, 50, 96
5, 7168, Note_off_c, 3, 50, 0
5, 7168, Note_on_c, 3, 55, 96
5, 8704, Note_off_c, 3, 55, 0
5, 8704, Note_on_c, 3, 54, 96
5, 8960, Note_off_c, 3, 54, 0
5, 8960, Note_on_c, 3, 52, 96
5, 9216, Note_off_c, 3, 52, 0
5, 9216, Note_on_c, 3, 54, 96
5, 10240, Note_off_c, 3, 54, 0
5, 10240, Note_on_c, 3, 55, 96
5, 12288, Note_off_c, 3, 55, 0
5, 12288, Note_on_c, 3, 43, 96
5, 13312, Note_off_c, 3, 43, 0
5, 13824, Note_on_c, 3, 43, 96
5, 14336, Note_off_c, 3, 43, 0
5, 14336, Note_on_c, 3, 50, 96
5, 15360, Note_off_c, 3, 50, 0
5, 15872, Note_on_c, 3, 50, 96
5, 16384, Note_off_c, 3, 50, 0
5, 16384, Note_on_c, 3, 55, 96
5, 17408, Note_off_c, 3, 55, 0
5, 17920, Note_on_c, 3, 55, 96
5, 18432, Note_off_c, 3, 55, 0
5, 18432, Note_on_c, 3, 62, 96
5, 19456, Note_off_c, 3, 62, 0
5, 19968, Note_on_c, 3, 50, 96
5, 20480, Note_off_c, 3, 50, 0
5, 20480, Note_on_c, 3, 55, 96
5, 20992, Note_off_c, 3, 55, 0
5, 20992, Note_on_c, 3, 54, 96
5, 21504, Note_off_c, 3, 54, 0
5, 21504, Note_on_c, 3, 52, 96
5, 22016, Note_off_c, 3, 52, 0
5, 22016, Note_on_c, 3, 50, 96
5, 22528, Note_off_c, 3, 50, 0
5, 22528, Note_on_c, 3, 48, 96
5, 23040, Note_off_c, 3, 48, 0
5, 23040, Note_on_c, 3, 47, 96
5, 23552, Note_off_c, 3, 47, 0
5, 23552, Note_on_c, 3, 48, 96
5, 24064, Note_off_c, 3, 48, 0
5, 24064, Note_on_c, 3, 50, 96
5, 24576, Note_off_c, 3, 50, 0
5, 24576, Note_on_c, 3, 52, 96
5, 26112, Note_off_c, 3, 52, 0
5, 26112, Note_on_c, 3, 48, 96
5, 26624, Note_off_c, 3, 48, 0
5, 26624, Note_on_c, 3, 55, 96
5, 28160, Note_off_c, 3, 55, 0
5, 28160, Note_on_c, 3, 54, 96
5, 28672, Note_off_c, 3, 54, 0
5, 28672, Note_on_c, 3, 52, 96
5, 29184, Note_off_c, 3, 52, 0
5, 29184, Note_on_c, 3, 54, 96
5, 29696, Note_off_c, 3, 54, 0
5, 29696, Note_on_c, 3, 55, 96
5, 30208, Note_off_c, 3, 55, 0
5, 30208, Note_on_c, 3, 52, 96
5, 30720, Note_off_c, 3, 52, 0
5, 30720, Note_on_c, 3, 57, 96
5, 31232, Note_off_c, 3, 57, 0
5, 31232, Note_on_c, 3, 54, 96
5, 31744, Note_off_c, 3, 54, 0
5, 31744, Note_on_c, 3, 59, 96
5, 32256, Note_off_c, 3, 59, 0
5, 32256, Note_on_c, 3, 57, 96
5, 32768, Note_off_c, 3, 57, 0
5, 32768, Note_on_c, 3, 55, 96
5, 33280, Note_off_c, 3, 55, 0
5, 33280, Note_on_c, 3, 52, 96
5, 33792, Note_off_c, 3, 52, 0
5, 33792, Note_on_c, 3, 57, 96
5, 34304, Note_off_c, 3, 57, 0
5, 34304, Note_on_c, 3, 55, 96
5, 34816, Note_off_c, 3, 55, 0
5, 34816, Note_on_c, 3, 54, 96
5, 35328, Note_off_c, 3, 54, 0
5, 35328, Note_on_c, 3, 50, 96
5, 35840, Note_off_c, 3, 50, 0
5, 35840, Note_on_c, 3, 55, 96
5, 36352, Note_off_c, 3, 55, 0
5, 36352, Note_on_c, 3, 54, 96
5, 36864, Note_off_c, 3, 54, 0
5, 36864, Note_on_c, 3, 52, 96
5, 37376, Note_off_c, 3, 52, 0
5, 37376, Note_on_c, 3, 57, 96
5, 37888, Note_off_c, 3, 57, 0
5, 37888, Note_on_c, 3, 54, 96
5, 38400, Note_off_c, 3, 54, 0
5, 38400, Note_on_c, 3, 50, 96
5, 38912, Note_off_c, 3, 50, 0
5, 38912, Note_on_c, 3, 55, 96
5, 39424, Note_off_c, 3, 55, 0
5, 39424, Note_on_c, 3, 54, 96
5, 39936, Note_off_c, 3, 54, 0
5, 39936, Note_on_c, 3, 52, 96
5, 40448, Note_off_c, 3, 52, 0
5, 40448, Note_on_c, 3, 50, 96
5, 40960, Note_off_c, 3, 50, 0
5, 40960, Note_on_c, 3, 48, 96
5, 42496, Note_off_c, 3, 48, 0
5, 42496, Note_on_c, 3, 49, 96
5, 43008, Note_off_c, 3, 49, 0
5, 43008, Note_on_c, 3, 50, 96
5, 44544, Note_off_c, 3, 50, 0
5, 44544, Note_on_c, 3, 51, 96
5, 45056, Note_off_c, 3, 51, 0
5, 45056, Note_on_c, 3, 52, 96
5, 46592, Note_off_c, 3, 52, 0
5, 46592, Note_on_c, 3, 50, 96
5, 46848, Note_off_c, 3, 50, 0
5, 46848, Note_on_c, 3, 48, 96
5, 47104, Note_off_c, 3, 48, 0
5, 47104, Note_on_c, 3, 47, 96
5, 48640, Note_off_c, 3, 47, 0
5, 48640, Note_on_c, 3, 45, 96
5, 48896, Note_off_c, 3, 45, 0
5, 48896, Note_on_c, 3, 47, 96
5, 49152, Note_off_c, 3, 47, 0
5, 49152, Note_on_c, 3, 48, 96
5, 49664, Note_off_c, 3, 48, 0
5, 49664, Note_on_c, 3, 50, 96
5, 49920, Note_off_c, 3, 50, 0
5, 49920, Note_on_c, 3, 52, 96
5, 50176, Note_off_c, 3, 52, 0
5, 50176, Note_on_c, 3, 53, 96
5, 50432, Note_off_c, 3, 53, 0
5, 50432, Note_on_c, 3, 55, 96
5, 50688, Note_off_c, 3, 55, 0
5, 50688, Note_on_c, 3, 57, 96
5, 50944, Note_off_c, 3, 57, 0
5, 50944, Note_on_c, 3, 59, 96
5, 51200, Note_off_c, 3, 59, 0
5, 51200, Note_on_c, 3, 60, 96
5, 51712, Note_off_c, 3, 60, 0
5, 51712, Note_on_c, 3, 55, 96
5, 52224, Note_off_c, 3, 55, 0
5, 52224, Note_on_c, 3, 52, 96
5, 52736, Note_off_c, 3, 52, 0
5, 52736, Note_on_c, 3, 48, 96
5, 53248, Note_off_c, 3, 48, 0
5, 53248, Note_on_c, 3, 55, 96
5, 55296, Note_off_c, 3, 55, 0
5, 55296, Note_on_c, 3, 43, 96
5, 57344, Note_off_c, 3, 43, 0
5, 57344, End_track
6, 0, Start_track
6, 0, Title_t, "Instrument 5"
6, 0, Note_on_c, 4, 50, 96
6, 2048, Note_off_c, 4, 50, 0
6, 2048, Note_on_c, 4, 47, 96
6, 4096, Note_off_c, 4, 47, 0
6, 4608, Note_on_c, 4, 50, 96
6, 4864, Note_off_c, 4, 50, 0
6, 4864, Note_on_c, 4, 52, 96
6, 5120, Note_off_c, 4, 52, 0
6, 5120, Note_on_c, 4, 54, 96
6, 5376, Note_off_c, 4, 54, 0
6, 5376, Note_on_c, 4, 55, 96
6, 5632, Note_off_c, 4, 55, 0
6, 5632, Note_on_c, 4, 57, 96
6, 5888, Note_off_c, 4, 57, 0
6, 5888, Note_on_c, 4, 54, 96
6, 6144, Note_off_c, 4, 54, 0
6, 6144, Note_on_c, 4, 55, 96
6, 6656, Note_off_c, 4, 55, 0
6, 6656, Note_on_c, 4, 50, 96
6, 7168, Note_off_c, 4, 50, 0
6, 7168, Note_on_c, 4, 55, 96
6, 8192, Note_off_c, 4, 55, 0
6, 8192, Note_on_c, 4, 50, 96
6, 10240, Note_off_c, 4, 50, 0
6, 10240, Note_on_c, 4, 43, 96
6, 12288, Note_off_c, 4, 43, 0
6, 12288, Note_on_c, 4, 43, 96
6, 12800, Note_off_c, 4, 43, 0
6, 12800, Note_on_c, 4, 45, 96
6, 13312, Note_off_c, 4, 45, 0
6, 13312, Note_on_c, 4, 47, 96
6, 13824, Note_off_c, 4, 47, 0
6, 13824, Note_on_c, 4, 43, 96
6, 14336, Note_off_c, 4, 43, 0
6, 14336, Note_on_c, 4, 50, 96
6, 14848, Note_off_c, 4, 50, 0
6, 14848, Note_on_c, 4, 52, 96
6, 15360, Note_off_c, 4, 52, 0
6, 15360, Note_on_c, 4, 54, 96
6, 15872, Note_off_c, 4, 54, 0
6, 15872, Note_on_c, 4, 50, 96
6, 16384, Note_off_c, 4, 50, 0
6, 16384, Note_on_c, 4, 55, 96
6, 16896, Note_off_c, 4, 55, 0
6, 16896, Note_on_c, 4, 57, 96
6, 17408, Note_off_c, 4, 57, 0
6, 17408, Note_on_c, 4, 59, 96
6, 17920, Note_off_c, 4, 59, 0
6, 17920, Note_on_c, 4, 55, 96
6, 18432, Note_off_c, 4, 55, 0
6, 18432, Note_on_c, 4, 62, 96
6, 18944, Note_off_c, 4, 62, 0
6, 18944, Note_on_c, 4, 50, 96
6, 19456, Note_off_c, 4, 50, 0
6, 19456, Note_on_c, 4, 54, 96
6, 19968, Note_off_c, 4, 54, 0
6, 19968, Note_on_c, 4, 50, 96
6, 20480, Note_off_c, 4, 50, 0
6, 20480, Note_on_c, 4, 55, 96
6, 20992, Note_off_c, 4, 55, 0
6, 20992, Note_on_c, 4, 54, 96
6, 21504, Note_off_c, 4, 54, 0
6, 21504, Note_on_c, 4, 52, 96
6, 22016, Note_off_c, 4, 52, 0
6, 22016, Note_on_c, 4, 50, 96
6, 22528, Note_off_c, 4, 50, 0
6, 22528, Note_on_c, 4, 48, 96
6, 23040, Note_off_c, 4, 48, 0
6, 23040, Note_on_c, 4, 47, 96
6, 23552, Note_off_c, 4, 47, 0
6, 23552, Note_on_c, 4, 48, 96
6, 24064, Note_off_c, 4, 48, 0
6, 24064, Note_on_c, 4, 50, 96
6, 24576, Note_off_c, 4, 50, 0
6, 24576, Note_on_c, 4, 52, 96
6, 26112, Note_off_c, 4, 52, 0
6, 26112, Note_on_c, 4, 48, 96
6, 26624, Note_off_c, 4, 48, 0
6, 26624, Note_on_c, 4, 55, 96
6, 28160, Note_off_c, 4, 55, 0
6, 28160, Note_on_c, 4, 54, 96
6, 28672, Note_off_c, 4, 54, 0
6, 28672, Note_on_c, 4, 52, 96
6, 29184, Note_off_c, 4, 52, 0
6, 29184, Note_on_c, 4, 54, 96
6, 29696, Note_off_c, 4, 54, 0
6, 29696, Note_on_c, 4, 55, 96
6, 30208, Note_off_c, 4, 55, 0
6, 30208, Note_on_c, 4, 52, 96
6, 30720, Note_off_c, 4, 52, 0
6, 30720, Note_on_c, 4, 57, 96
6, 31232, Note_off_c, 4, 57, 0
6, 31232, Note_on_c, 4, 54, 96
6, 31744, Note_off_c, 4, 54, 0
6, 31744, Note_on_c, 4, 59, 96
6, 32256, Note_off_c, 4, 59, 0
6, 32256, Note_on_c, 4, 57, 96
6, 32768, Note_off_c, 4, 57, 0
6, 32768, Note_on_c, 4, 55, 96
6, 33280, Note_off_c, 4, 55, 0
6, 33280, Note_on_c, 4, 52, 96
6, 33792, Note_off_c, 4, 52, 0
6, 33792, Note_on_c, 4, 57, 96
6, 34304, Note_off_c, 4, 57, 0
6, 34304, Note_on_c, 4, 55, 96
6, 34816, Note_off_c, 4, 55, 0
6, 34816, Note_on_c, 4, 54, 96
6, 35328, Note_off_c, 4, 54, 0
6, 35328, Note_on_c, 4, 50, 96
6, 35840, Note_off_c, 4, 50, 0
6, 35840, Note_on_c, 4, 55, 96
6, 36352, Note_off_c, 4, 55, 0
6, 36352, Note_on_c, 4, 54, 96
6, 36864, Note_off_c, 4, 54, 0
6, 36864, Note_on_c, 4, 52, 96
6, 37376, Note_off_c, 4, 52, 0
6, 37376, Note_on_c, 4, 57, 96
6, 37888, Note_off_c, 4, 57, 0
6, 37888, Note_on_c, 4, 54, 96
6, 38400, Note_off_c, 4, 54, 0
6, 38400, Note_on_c, 4, 50, 96
6, 38912, Note_off_c, 4, 50, 0
6, 38912, Note_on_c, 4, 55, 96
6, 39424, Note_off_c, 4, 55, 0
6, 39424, Note_on_c, 4, 54, 96
6, 39936, Note_off_c, 4, 54, 0
6, 39936, Note_on_c, 4, 52, 96
6, 40448, Note_off_c, 4, 52, 0
6, 40448, Note_on_c, 4, 50, 96
6, 40960, Note_off_c, 4, 50, 0
6, 40960, Note_on_c, 4, 48, 96
6, 42496, Note_off_c, 4, 48, 0
6, 42496, Note_on_c, 4, 49, 96
6, 43008, Note_off_c, 4, 49, 0
6, 43008, Note_on_c, 4, 50, 96
6, 44544, Note_off_c, 4, 50, 0
6, 44544, Note_on_c, 4, 51, 96
6, 45056, Note_off_c, 4, 51, 0
6, 45056, Note_on_c, 4, 52, 96
6, 46592, Note_off_c, 4, 52, 0
6, 46592, Note_on_c, 4, 50, 96
6, 46848, Note_off_c, 4, 50, 0
6, 46848, Note_on_c, 4, 48, 96
6, 47104, Note_off_c, 4, 48, 0
6, 47104, Note_on_c, 4, 47, 96
6, 48640, Note_off_c, 4, 47, 0
6, 48640, Note_on_c, 4, 45, 96
6, 48896, Note_off_c, 4, 45, 0
6, 48896, Note_on_c, 4, 47, 96
6, 49152, Note_off_c, 4, 47, 0
6, 49152, Note_on_c, 4, 48, 96
6, 49664, Note_off_c, 4, 48, 0
6, 49664, Note_on_c, 4, 50, 96
6, 49920, Note_off_c, 4, 50, 0
6, 49920, Note_on_c, 4, 52, 96
6, 50176, Note_off_c, 4, 52, 0
6, 50176, Note_on_c, 4, 53, 96
6, 50432, Note_off_c, 4, 53, 0
6, 50432, Note_on_c, 4, 55, 96
6, 50688, Note_off_c, 4, 55, 0
6, 50688, Note_on_c, 4, 57, 96
6, 50944, Note_off_c, 4, 57, 0
6, 50944, Note_on_c, 4, 59, 96
6, 51200, Note_off_c, 4, 59, 0
6, 51200, Note_on_c, 4, 60, 96
6, 51712, Note_off_c, 4, 60, 0
6, 51712, Note_on_c, 4, 55, 96
6, 52224, Note_off_c, 4, 55, 0
6, 52224, Note_on_c, 4, 52, 96
6, 52736, Note_off_c, 4, 52, 0
6, 52736, Note_on_c, 4, 48, 96
6, 53248, Note_off_c, 4, 48, 0
6, 53248, Note_on_c, 4, 55, 96
6, 55296, Note_off_c, 4, 55, 0
6, 55296, Note_on_c, 4, 43, 96
6, 57344, Note_off_c, 4, 43, 0
6, 57344, End_track
7, 0, Start_track
7, 0, Title_t, "Instrument 6"
7, 2560, Note_on_c, 5, 67, 96
7, 2816, Note_off_c, 5, 67, 0
7, 2816, Note_on_c, 5, 69, 96
7, 3072, Note_off_c, 5, 69, 0
7, 3072, Note_on_c, 5, 71, 96
7, 3328, Note_off_c, 5, 71, 0
7, 3328, Note_on_c, 5, 72, 96
7, 3584, Note_off_c, 5, 72, 0
7, 3584, Note_on_c, 5, 74, 96
7, 3840, Note_off_c, 5, 74, 0
7, 3840, Note_on_c, 5, 76, 96
7, 4096, Note_off_c, 5, 76, 0
7, 4096, Note_on_c, 5, 74, 96
7, 4352, Note_off_c, 5, 74, 0
7, 4352, Note_on_c, 5, 69, 96
7, 4608, Note_off_c, 5, 69, 0
7, 4608, Note_on_c, 5, 71, 96
7, 4864, Note_off_c, 5, 71, 0
7, 4864, Note_on_c, 5, 72, 96
7, 5120, Note_off_c, 5, 72, 0
7, 5120, Note_on_c, 5, 74, 96
7, 5376, Note_off_c, 5, 74, 0
7, 5376, Note_on_c, 5, 76, 96
7, 5632, Note_off_c, 5, 76, 0
7, 5632, Note_on_c, 5, 78, 96
7, 5888, Note_off_c, 5, 78, 0
7, 5888, Note_on_c, 5, 74, 96
7, 6144, Note_off_c, 5, 74, 0
7, 6144, Note_on_c, 5, 79, 96
7, 6400, Note_off_c, 5, 79, 0
7, 6400, Note_on_c, 5, 74, 96
7, 6656, Note_off_c, 5, 74, 0
7, 6656, Note_on_c, 5, 76, 96
7, 6912, Note_off_c, 5, 76, 0
7, 6912, Note_on_c, 5, 78, 96
7, 7168, Note_off_c, 5, 78, 0
7, 7168, Note_on_c, 5, 79, 96
7, 7424, Note_off_c, 5, 79, 0
7, 7424, Note_on_c, 5, 81, 96
7, 7680, Note_off_c, 5, 81, 0
7, 7680, Note_on_c, 5, 83, 96
7, 7936, Note_off_c, 5, 83, 0
7, 7936, Note_on_c, 5, 79, 96
7, 8192, Note_off_c, 5, 79, 0
7, 8192, Note_on_c, 5, 81, 96
7, 8448, Note_off_c, 5, 81, 0
7, 8448, Note_on_c, 5, 69, 96
7, 8704, Note_off_c, 5, 69, 0
7, 8704, Note_on_c, 5, 71, 96
7, 8960, Note_off_c, 5, 71, 0
7, 8960, Note_on_c, 5, 72, 96
7, 9216, Note_off_c, 5, 72, 0
7, 9216, Note_on_c, 5, 74, 96
7, 9472, Note_off_c, 5, 74, 0
7, 9472, Note_on_c, 5, 72, 96
7, 9728, Note_off_c, 5, 72, 0
7, 9728, Note_on_c, 5, 71, 96
7, 9984, Note_off_c, 5, 71, 0
7, 9984, Note_on_c, 5, 69, 96
7, 10240, Note_off_c, 5, 69, 0
7, 10240, Note_on_c, 5, 71, 96
7, 10496, Note_off_c, 5, 71, 0
7, 10496, Note_on_c, 5, 69, 96
7, 10752, Note_off_c, 5, 69, 0
7, 10752, Note_on_c, 5, 67, 96
7, 11008, Note_off_c, 5, 67, 0
7, 11008, Note_on_c, 5, 66, 96
7, 11264, Note_off_c, 5, 66, 0
7, 11264, Note_on_c, 5, 67, 96
7, 11520, Note_off_c, 5, 67, 0
7, 11520, Note_on_c, 5, 62, 96
7, 11776, Note_off_c, 5, 62, 0
7, 11776, Note_on_c, 5, 59, 96
7, 12032, Note_off_c, 5, 59, 0
7, 12032, Note_on_c, 5, 62, 96
7, 12288, Note_off_c, 5, 62, 0
7, 12288, Note_on_c, 5, 55, 96
7, 13312, Note_off_c, 5, 55, 0
7, 16896, Note_on_c, 5, 74, 96
7, 17408, Note_off_c, 5, 74, 0
7, 17408, Note_on_c, 5, 79, 96
7, 17920, Note_off_c, 5, 79, 0
7, 17920, Note_on_c, 5, 79, 96
7, 18432, Note_off_c, 5, 79, 0
7, 18432, Note_on_c, 5, 79, 96
7, 18944, Note_off_c, 5, 79, 0
7, 18944, Note_on_c, 5, 78, 96
7, 19200, Note_off_c, 5, 78, 0
7, 19200, Note_on_c, 5, 79, 96
7, 19456, Note_off_c, 5, 79, 0
7, 19456, Note_on_c, 5, 81, 96
7, 19968, Note_off_c, 5, 81, 0
7, 19968, Note_on_c, 5, 81, 96
7, 20480, Note_off_c, 5, 81, 0
7, 20480, Note_on_c, 5, 81, 96
7, 20992, Note_off_c, 5, 81, 0
7, 20992, Note_on_c, 5, 79, 96
7, 21248, Note_off_c, 5, 79, 0
7, 21248, Note_on_c, 5, 78, 96
7, 21504, Note_off_c, 5, 78, 0
7, 21504, Note_on_c, 5, 79, 96
7, 21760, Note_off_c, 5, 79, 0
7, 21760, Note_on_c, 5, 81, 96
7, 22016, Note_off_c, 5, 81, 0
7, 22016, Note_on_c, 5, 83, 96
7, 22272, Note_off_c, 5, 83, 0
7, 22272, Note_on_c, 5, 79, 96
7, 22528, Note_off_c, 5, 79, 0
7, 22528, Note_on_c, 5, 81, 96
7, 22784, Note_off_c, 5, 81, 0
7, 22784, Note_on_c, 5, 83, 96
7, 23040, Note_off_c, 5, 83, 0
7, 23040, Note_on_c, 5, 81, 96
7, 23296, Note_off_c, 5, 81, 0
7, 23296, Note_on_c, 5, 79, 96
7, 23552, Note_off_c, 5, 79, 0
7, 23552, Note_on_c, 5, 78, 96
7, 23808, Note_off_c, 5, 78, 0
7, 23808, Note_on_c, 5, 76, 96
7, 24064, Note_off_c, 5, 76, 0
7, 24064, Note_on_c, 5, 74, 96
7, 24320, Note_off_c, 5, 74, 0
7, 24320, Note_on_c, 5, 72, 96
7, 24576, Note_off_c, 5, 72, 0
7, 24576, Note_on_c, 5, 71, 96
7, 25088, Note_off_c, 5, 71, 0
7, 25088, Note_on_c, 5, 72, 96
7, 25344, Note_off_c, 5, 72, 0
7, 25344, Note_on_c, 5, 74, 96
7, 25600, Note_off_c, 5, 74, 0
7, 25600, Note_on_c, 5, 76, 96
7, 25856, Note_off_c, 5, 76, 0
7, 25856, Note_on_c, 5, 74, 96
7, 26112, Note_off_c, 5, 74, 0
7, 26112, Note_on_c, 5, 76, 96
7, 26368, Note_off_c, 5, 76, 0
7, 26368, Note_on_c, 5, 78, 96
7, 26624, Note_off_c, 5, 78, 0
7, 26624, Note_on_c, 5, 79, 96
7, 27136, Note_off_c, 5, 79, 0
7, 27136, Note_on_c, 5, 74, 96
7, 27648, Note_off_c, 5, 74, 0
7, 27648, Note_on_c, 5, 79, 96
7, 27904, Note_off_c, 5, 79, 0
7, 27904, Note_on_c, 5, 81, 96
7, 28160, Note_off_c, 5, 81, 0
7, 28160, Note_on_c, 5, 83, 96
7, 28416, Note_off_c, 5, 83, 0
7, 28416, Note_on_c, 5, 81, 96
7, 28672, Note_off_c, 5, 81, 0
7, 28672, Note_on_c, 5, 79, 96
7, 28928, Note_off_c, 5, 79, 0
7, 28928, Note_on_c, 5, 78, 96
7, 29184, Note_off_c, 5, 78, 0
7, 29184, Note_on_c, 5, 79, 96
7, 29440, Note_off_c, 5, 79, 0
7, 29440, Note_on_c, 5, 81, 96
7, 29696, Note_off_c, 5, 81, 0
7, 29696, Note_on_c, 5, 83, 96
7, 29952, Note_off_c, 5, 83, 0
7, 29952, Note_on_c, 5, 81, 96
7, 30208, Note_off_c, 5, 81, 0
7, 30208, Note_on_c, 5, 83, 96
7, 30464, Note_off_c, 5, 83, 0
7, 30464, Note_on_c, 5, 79, 96
7, 30720, Note_off_c, 5, 79, 0
7, 30720, Note_on_c, 5, 84, 96
7, 30976, Note_off_c, 5, 84, 0
7, 30976, Note_on_c, 5, 83, 96
7, 31232, Note_off_c, 5, 83, 0
7, 31232, Note_on_c, 5, 81, 96
7, 31488, Note_off_c, 5, 81, 0
7, 31488, Note_on_c, 5, 79, 96
7, 31744, Note_off_c, 5, 79, 0
7, 31744, Note_on_c, 5, 78, 96
7, 32000, Note_off_c, 5, 78, 0
7, 32000, Note_on_c, 5, 81, 96
7, 32256, Note_off_c, 5, 81, 0
7, 32256, Note_on_c, 5, 79, 96
7, 32512, Note_off_c, 5, 79, 0
7, 32512, Note_on_c, 5, 81, 96
7, 32768, Note_off_c, 5, 81, 0
7, 32768, Note_on_c, 5, 83, 96
7, 33024, Note_off_c, 5, 83, 0
7, 33024, Note_on_c, 5, 81, 96
7, 33280, Note_off_c, 5, 81, 0
7, 33280, Note_on_c, 5, 79, 96
7, 33536, Note_off_c, 5, 79, 0
7, 33536, Note_on_c, 5, 78, 96
7, 33792, Note_off_c, 5, 78, 0
7, 33792, Note_on_c, 5, 76, 96
7, 34048, Note_off_c, 5, 76, 0
7, 34048, Note_on_c, 5, 79, 96
7, 34304, Note_off_c, 5, 79, 0
7, 34304, Note_on_c, 5, 78, 96
7, 34560, Note_off_c, 5, 78, 0
7, 34560, Note_on_c, 5, 79, 96
7, 34816, Note_off_c, 5, 79, 0
7, 34816, Note_on_c, 5, 81, 96
7, 35072, Note_off_c, 5, 81, 0
7, 35072, Note_on_c, 5, 79, 96
7, 35328, Note_off_c, 5, 79, 0
7, 35328, Note_on_c, 5, 78, 96
7, 35584, Note_off_c, 5, 78, 0
7, 35584, Note_on_c, 5, 76, 96
7, 35840, Note_off_c, 5, 76, 0
7, 35840, Note_on_c, 5, 74, 96
7, 36096, Note_off_c, 5, 74, 0
7, 36096, Note_on_c, 5, 78, 96
7, 36352, Note_off_c, 5, 78, 0
7, 36352, Note_on_c, 5, 76, 96
7, 36608, Note_off_c, 5, 76, 0
7, 36608, Note_on_c, 5, 78, 96
7, 36864, Note_off_c, 5, 78, 0
7, 36864, Note_on_c, 5, 79, 96
7, 37120, Note_off_c, 5, 79, 0
7, 37120, Note_on_c, 5, 76, 96
7, 37376, Note_off_c, 5, 76, 0
7, 37376, Note_on_c, 5, 78, 96
7, 37632, Note_off_c, 5, 78, 0
7, 37632, Note_on_c, 5, 79, 96
7, 37888, Note_off_c, 5, 79, 0
7, 37888, Note_on_c, 5, 81, 96
7, 38144, Note_off_c, 5, 81, 0
7, 38144, Note_on_c, 5, 79, 96
7, 38400, Note_off_c, 5, 79, 0
7, 38400, Note_on_c, 5, 78, 96
7, 38656, Note_off_c, 5, 78, 0
7, 38656, Note_on_c, 5, 76, 96
7, 38912, Note_off_c, 5, 76, 0
7, 38912, Note_on_c, 5, 74, 96
7, 39168, Note_off_c, 5, 74, 0
7, 39168, Note_on_c, 5, 78, 96
7, 39424, Note_off_c, 5, 78, 0
7, 39424, Note_on_c, 5, 76, 96
7, 39680, Note_off_c, 5, 76, 0
7, 39680, Note_on_c, 5, 78, 96
7, 39936, Note_off_c, 5, 78, 0
7, 39936, Note_on_c, 5, 79, 96
7, 40192, Note_off_c, 5, 79, 0
7, 40192, Note_on_c, 5, 71, 96
7, 40448, Note_off_c, 5, 71, 0
7, 40448, Note_on_c, 5, 72, 96
7, 40704, Note_off_c, 5, 72, 0
7, 40704, Note_on_c, 5, 74, 96
7, 40960, Note_off_c, 5, 74, 0
7, 40960, Note_on_c, 5, 76, 96
7, 41216, Note_off_c, 5, 76, 0
7, 41216, Note_on_c, 5, 74, 96
7, 41472, Note_off_c, 5, 74, 0
7, 41472, Note_on_c, 5, 72, 96
7, 41728, Note_off_c, 5, 72, 0
7, 41728, Note_on_c, 5, 71, 96
7, 41984, Note_off_c, 5, 71, 0
7, 41984, Note_on_c, 5, 69, 96
7, 42240, Note_off_c, 5, 69, 0
7, 42240, Note_on_c, 5, 67, 96
7, 42496, Note_off_c, 5, 67, 0
7, 42496, Note_on_c, 5, 66, 96
7, 42752, Note_off_c, 5, 66, 0
7, 42752, Note_on_c, 5, 64, 96
7, 43008, Note_off_c, 5, 64, 0
7, 43008, Note_on_c, 5, 62, 96
7, 43264, Note_off_c, 5, 62, 0
7, 43264, Note_on_c, 5, 64, 96
7, 43520, Note_off_c, 5, 64, 0
7, 43520, Note_on_c, 5, 66, 96
7, 43776, Note_off_c, 5, 66, 0
7, 43776, Note_on_c, 5, 67, 96
7, 44032, Note_off_c, 5, 67, 0
7, 44032, Note_on_c, 5, 69, 96
7, 44288, Note_off_c, 5, 69, 0
7, 44288, Note_on_c, 5, 67, 96
7, 44544, Note_off_c, 5, 67, 0
7, 44544, Note_on_c, 5, 69, 96
7, 44800, Note_off_c, 5, 69, 0
7, 44800, Note_on_c, 5, 66, 96
7, 45056, Note_off_c, 5, 66, 0
7, 45056, Note_on_c, 5, 67, 96
7, 45312, Note_off_c, 5, 67, 0
7, 45312, Note_on_c, 5, 66, 96
7, 45568, Note_off_c, 5, 66, 0
7, 45568, Note_on_c, 5, 64, 96
7, 45824, Note_off_c, 5, 64, 0
7, 45824, Note_on_c, 5, 66, 96
7, 46080, Note_off_c, 5, 66, 0
7, 46080, Note_on_c, 5, 67, 96
7, 46336, Note_off_c, 5, 67, 0
7, 46336, Note_on_c, 5, 69, 96
7, 46592, Note_off_c, 5, 69, 0
7, 46592, Note_on_c, 5, 71, 96
7, 46848, Note_off_c, 5, 71, 0
7, 46848, Note_on_c, 5, 72, 96
7, 47104, Note_off_c, 5, 72, 0
7, 47104, Note_on_c, 5, 74, 96
7, 47360, Note_off_c, 5, 74, 0
7, 47360, Note_on_c, 5, 72, 96
7, 47616, Note_off_c, 5, 72, 0
7, 47616, Note_on_c, 5, 71, 96
7, 47872, Note_off_c, 5, 71, 0
7, 47872, Note_on_c, 5, 72, 96
7, 48128, Note_off_c, 5, 72, 0
7, 48128, Note_on_c, 5, 74, 96
7, 48384, Note_off_c, 5, 74, 0
7, 48384, Note_on_c, 5, 76, 96
7, 48640, Note_off_c, 5, 76, 0
7, 48640, Note_on_c, 5, 77, 96
7, 48896, Note_off_c, 5, 77, 0
7, 48896, Note_on_c, 5, 74, 96
7, 49152, Note_off_c, 5, 74, 0
7, 49152, Note_on_c, 5, 79, 96
7, 49408, Note_off_c, 5, 79, 0
7, 49408, Note_on_c, 5, 76, 96
7, 49664, Note_off_c, 5, 76, 0
7, 49664, Note_on_c, 5, 77, 96
7, 49920, Note_off_c, 5, 77, 0
7, 49920, Note_on_c, 5, 79, 96
7, 50176, Note_off_c, 5, 79, 0
7, 50176, Note_on_c, 5, 81, 96
7, 50432, Note_off_c, 5, 81, 0
7, 50432, Note_on_c, 5, 83, 96
7, 50688, Note_off_c, 5, 83, 0
7, 50688, Note_on_c, 5, 84, 96
7, 50944, Note_off_c, 5, 84, 0
7, 50944, Note_on_c, 5, 86, 96
7, 51200, Note_off_c, 5, 86, 0
7, 51200, Note_on_c, 5, 88, 96
7, 51456, Note_off_c, 5, 88, 0
7, 51456, Note_on_c, 5, 79, 96
7, 51712, Note_off_c, 5, 79, 0
7, 51712, Note_on_c, 5, 81, 96
7, 51968, Note_off_c, 5, 81, 0
7, 51968, Note_on_c, 5, 83, 96
7, 52224, Note_off_c, 5, 83, 0
7, 52224, Note_on_c, 5, 84, 96
7, 52480, Note_off_c, 5, 84, 0
7, 52480, Note_on_c, 5, 86, 96
7, 52736, Note_off_c, 5, 86, 0
7, 52736, Note_on_c, 5, 88, 96
7, 52992, Note_off_c, 5, 88, 0
7, 52992, Note_on_c, 5, 90, 96
7, 53248, Note_off_c, 5, 90, 0
7, 53248, Note_on_c, 5, 91, 96
7, 57344, Note_off_c, 5, 91, 0
7, 57344, End_track
0, 0, End_of_file
