0, 0, Header, 1, 4, 120
1, 0, Start_track
1, 0, Title_t, "Polonaise in Gm"
1, 0, Title_t, "from ""Anna Magdalena's Notebook"""
1, 0, Text_t, "Composed by Johann Sebastian Bach (1685-1750)\012"
1, 0, Text_t, "Programmed for MIDI by Lory Werths\012"
1, 0, Time_signature, 3, 2, 24, 8
1, 0, Key_signature, -2, "major"
1, 0, Tempo, 600000
1, 1440, Tempo, 600000
1, 1440, End_track
2, 0, Start_track
2, 0, Control_c, 0, 0, 0
2, 0, Control_c, 0, 7, 105
2, 0, Control_c, 0, 10, 32
2, 0, Control_c, 0, 32, 127
2, 0, Program_c, 0, 0
2, 1, Control_c, 0, 0, 127
2, 2, Program_c, 0, 11
2, 360, Note_on_c, 0, 67, 100
2, 449, Note_on_c, 0, 67, 0
2, 450, Note_on_c, 0, 69, 100
2, 479, Note_on_c, 0, 69, 0
2, 480, Note_on_c, 0, 70, 100
2, 599, Note_on_c, 0, 70, 0
2, 600, Note_on_c, 0, 72, 100
2, 719, Note_on_c, 0, 72, 0
2, 720, Note_on_c, 0, 69, 100
2, 745, Note_on_c, 0, 69, 0
2, 780, Note_on_c, 0, 69, 100
2, 809, Note_on_c, 0, 69, 0
2, 810, Note_on_c, 0, 70, 100
2, 839, Note_on_c, 0, 70, 0
2, 840, Note_on_c, 0, 72, 100
2, 1079, Note_on_c, 0, 72, 0
2, 1080, Note_on_c, 0, 70, 100
2, 1105, Note_on_c, 0, 70, 0
2, 1140, Note_on_c, 0, 70, 100
2, 1169, Note_on_c, 0, 70, 0
2, 1170, Note_on_c, 0, 72, 100
2, 1199, Note_on_c, 0, 72, 0
2, 1200, Note_on_c, 0, 74, 100
2, 1225, Note_on_c, 0, 74, 0
2, 1260, Note_on_c, 0, 79, 100
2, 1285, Note_on_c, 0, 79, 0
2, 1320, Note_on_c, 0, 72, 100
2, 1345, Note_on_c, 0, 72, 0
2, 1380, Note_on_c, 0, 79, 100
2, 1405, Note_on_c, 0, 79, 0
2, 1440, Note_on_c, 0, 70, 100
2, 1465, Note_on_c, 0, 70, 0
2, 1500, Note_on_c, 0, 69, 100
2, 1529, Note_on_c, 0, 69, 0
2, 1530, Note_on_c, 0, 70, 100
2, 1559, Note_on_c, 0, 70, 0
2, 1560, Note_on_c, 0, 67, 100
2, 1799, Note_on_c, 0, 67, 0
2, 1800, Note_on_c, 0, 67, 100
2, 1889, Note_on_c, 0, 67, 0
2, 1890, Note_on_c, 0, 69, 100
2, 1919, Note_on_c, 0, 69, 0
2, 1920, Note_on_c, 0, 70, 100
2, 2039, Note_on_c, 0, 70, 0
2, 2040, Note_on_c, 0, 72, 100
2, 2159, Note_on_c, 0, 72, 0
2, 2160, Note_on_c, 0, 69, 100
2, 2185, Note_on_c, 0, 69, 0
2, 2220, Note_on_c, 0, 69, 100
2, 2249, Note_on_c, 0, 69, 0
2, 2250, Note_on_c, 0, 70, 100
2, 2279, Note_on_c, 0, 70, 0
2, 2280, Note_on_c, 0, 72, 100
2, 2519, Note_on_c, 0, 72, 0
2, 2520, Note_on_c, 0, 70, 100
2, 2545, Note_on_c, 0, 70, 0
2, 2580, Note_on_c, 0, 70, 100
2, 2609, Note_on_c, 0, 70, 0
2, 2610, Note_on_c, 0, 72, 100
2, 2639, Note_on_c, 0, 72, 0
2, 2640, Note_on_c, 0, 74, 100
2, 2665, Note_on_c, 0, 74, 0
2, 2700, Note_on_c, 0, 79, 100
2, 2725, Note_on_c, 0, 79, 0
2, 2760, Note_on_c, 0, 72, 100
2, 2785, Note_on_c, 0, 72, 0
2, 2820, Note_on_c, 0, 79, 100
2, 2845, Note_on_c, 0, 79, 0
2, 2880, Note_on_c, 0, 70, 100
2, 2905, Note_on_c, 0, 70, 0
2, 2940, Note_on_c, 0, 69, 100
2, 2969, Note_on_c, 0, 69, 0
2, 2970, Note_on_c, 0, 70, 100
2, 2999, Note_on_c, 0, 70, 0
2, 3000, Note_on_c, 0, 67, 100
2, 3239, Note_on_c, 0, 67, 0
2, 3240, Note_on_c, 0, 70, 100
2, 3329, Note_on_c, 0, 70, 0
2, 3330, Note_on_c, 0, 72, 100
2, 3359, Note_on_c, 0, 72, 0
2, 3360, Note_on_c, 0, 74, 100
2, 3479, Note_on_c, 0, 74, 0
2, 3480, Note_on_c, 0, 77, 100
2, 3599, Note_on_c, 0, 77, 0
2, 3600, Note_on_c, 0, 74, 100
2, 3625, Note_on_c, 0, 74, 0
2, 3660, Note_on_c, 0, 72, 100
2, 3689, Note_on_c, 0, 72, 0
2, 3690, Note_on_c, 0, 70, 100
2, 3719, Note_on_c, 0, 70, 0
2, 3720, Note_on_c, 0, 69, 100
2, 3749, Note_on_c, 0, 69, 0
2, 3750, Note_on_c, 0, 70, 100
2, 3779, Note_on_c, 0, 70, 0
2, 3780, Note_on_c, 0, 72, 100
2, 3809, Note_on_c, 0, 72, 0
2, 3810, Note_on_c, 0, 69, 100
2, 3839, Note_on_c, 0, 69, 0
2, 3840, Note_on_c, 0, 65, 100
2, 3959, Note_on_c, 0, 65, 0
2, 3960, Note_on_c, 0, 77, 100
2, 4019, Note_on_c, 0, 77, 0
2, 4020, Note_on_c, 0, 74, 100
2, 4045, Note_on_c, 0, 74, 0
2, 4080, Note_on_c, 0, 70, 100
2, 4105, Note_on_c, 0, 70, 0
2, 4140, Note_on_c, 0, 77, 100
2, 4165, Note_on_c, 0, 77, 0
2, 4200, Note_on_c, 0, 79, 100
2, 4229, Note_on_c, 0, 79, 0
2, 4230, Note_on_c, 0, 77, 100
2, 4259, Note_on_c, 0, 77, 0
2, 4260, Note_on_c, 0, 75, 100
2, 4289, Note_on_c, 0, 75, 0
2, 4290, Note_on_c, 0, 74, 100
2, 4319, Note_on_c, 0, 74, 0
2, 4320, Note_on_c, 0, 75, 100
2, 4379, Note_on_c, 0, 75, 0
2, 4380, Note_on_c, 0, 72, 100
2, 4405, Note_on_c, 0, 72, 0
2, 4440, Note_on_c, 0, 69, 100
2, 4465, Note_on_c, 0, 69, 0
2, 4500, Note_on_c, 0, 75, 100
2, 4525, Note_on_c, 0, 75, 0
2, 4560, Note_on_c, 0, 77, 100
2, 4589, Note_on_c, 0, 77, 0
2, 4590, Note_on_c, 0, 75, 100
2, 4619, Note_on_c, 0, 75, 0
2, 4620, Note_on_c, 0, 74, 100
2, 4649, Note_on_c, 0, 74, 0
2, 4650, Note_on_c, 0, 72, 100
2, 4679, Note_on_c, 0, 72, 0
2, 4680, Note_on_c, 0, 74, 100
2, 4705, Note_on_c, 0, 74, 0
2, 4740, Note_on_c, 0, 72, 100
2, 4769, Note_on_c, 0, 72, 0
2, 4770, Note_on_c, 0, 74, 100
2, 4799, Note_on_c, 0, 74, 0
2, 4800, Note_on_c, 0, 75, 100
2, 4825, Note_on_c, 0, 75, 0
2, 4860, Note_on_c, 0, 74, 100
2, 4885, Note_on_c, 0, 74, 0
2, 4920, Note_on_c, 0, 72, 100
2, 4945, Note_on_c, 0, 72, 0
2, 4980, Note_on_c, 0, 70, 100
2, 5005, Note_on_c, 0, 70, 0
2, 5040, Note_on_c, 0, 69, 100
2, 5069, Note_on_c, 0, 69, 0
2, 5070, Note_on_c, 0, 70, 100
2, 5099, Note_on_c, 0, 70, 0
2, 5100, Note_on_c, 0, 72, 100
2, 5129, Note_on_c, 0, 72, 0
2, 5130, Note_on_c, 0, 69, 100
2, 5159, Note_on_c, 0, 69, 0
2, 5160, Note_on_c, 0, 70, 100
2, 5279, Note_on_c, 0, 70, 0
2, 5280, Note_on_c, 0, 58, 100
2, 5399, Note_on_c, 0, 58, 0
2, 5400, Note_on_c, 0, 74, 100
2, 5450, Note_on_c, 0, 74, 0
2, 5520, Note_on_c, 0, 75, 100
2, 5570, Note_on_c, 0, 75, 0
2, 5640, Note_on_c, 0, 67, 100
2, 5690, Note_on_c, 0, 67, 0
2, 5760, Note_on_c, 0, 66, 100
2, 5785, Note_on_c, 0, 66, 0
2, 5820, Note_on_c, 0, 66, 100
2, 5849, Note_on_c, 0, 66, 0
2, 5850, Note_on_c, 0, 67, 100
2, 5879, Note_on_c, 0, 67, 0
2, 5880, Note_on_c, 0, 69, 100
2, 5905, Note_on_c, 0, 69, 0
2, 5940, Note_on_c, 0, 62, 100
2, 5965, Note_on_c, 0, 62, 0
2, 6000, Note_on_c, 0, 66, 100
2, 6025, Note_on_c, 0, 66, 0
2, 6060, Note_on_c, 0, 69, 100
2, 6085, Note_on_c, 0, 69, 0
2, 6120, Note_on_c, 0, 74, 100
2, 6170, Note_on_c, 0, 74, 0
2, 6240, Note_on_c, 0, 75, 100
2, 6290, Note_on_c, 0, 75, 0
2, 6360, Note_on_c, 0, 67, 100
2, 6410, Note_on_c, 0, 67, 0
2, 6480, Note_on_c, 0, 66, 100
2, 6505, Note_on_c, 0, 66, 0
2, 6540, Note_on_c, 0, 66, 100
2, 6569, Note_on_c, 0, 66, 0
2, 6570, Note_on_c, 0, 67, 100
2, 6599, Note_on_c, 0, 67, 0
2, 6600, Note_on_c, 0, 69, 100
2, 6625, Note_on_c, 0, 69, 0
2, 6660, Note_on_c, 0, 62, 100
2, 6685, Note_on_c, 0, 62, 0
2, 6720, Note_on_c, 0, 66, 100
2, 6745, Note_on_c, 0, 66, 0
2, 6780, Note_on_c, 0, 69, 100
2, 6805, Note_on_c, 0, 69, 0
2, 6840, Note_on_c, 0, 74, 100
2, 6865, Note_on_c, 0, 74, 0
2, 6900, Note_on_c, 0, 74, 100
2, 6929, Note_on_c, 0, 74, 0
2, 6930, Note_on_c, 0, 75, 100
2, 6959, Note_on_c, 0, 75, 0
2, 6960, Note_on_c, 0, 74, 100
2, 6985, Note_on_c, 0, 74, 0
2, 7020, Note_on_c, 0, 74, 100
2, 7049, Note_on_c, 0, 74, 0
2, 7050, Note_on_c, 0, 75, 100
2, 7079, Note_on_c, 0, 75, 0
2, 7080, Note_on_c, 0, 74, 100
2, 7105, Note_on_c, 0, 74, 0
2, 7140, Note_on_c, 0, 79, 100
2, 7165, Note_on_c, 0, 79, 0
2, 7200, Note_on_c, 0, 70, 100
2, 7225, Note_on_c, 0, 70, 0
2, 7260, Note_on_c, 0, 69, 100
2, 7289, Note_on_c, 0, 69, 0
2, 7290, Note_on_c, 0, 70, 100
2, 7319, Note_on_c, 0, 70, 0
2, 7320, Note_on_c, 0, 67, 100
2, 7439, Note_on_c, 0, 67, 0
2, 7440, Note_on_c, 0, 55, 100
2, 7559, Note_on_c, 0, 55, 0
2, 7560, Note_on_c, 0, 70, 100
2, 7649, Note_on_c, 0, 70, 0
2, 7650, Note_on_c, 0, 72, 100
2, 7679, Note_on_c, 0, 72, 0
2, 7680, Note_on_c, 0, 74, 100
2, 7799, Note_on_c, 0, 74, 0
2, 7800, Note_on_c, 0, 77, 100
2, 7919, Note_on_c, 0, 77, 0
2, 7920, Note_on_c, 0, 74, 100
2, 7945, Note_on_c, 0, 74, 0
2, 7980, Note_on_c, 0, 72, 100
2, 8009, Note_on_c, 0, 72, 0
2, 8010, Note_on_c, 0, 70, 100
2, 8039, Note_on_c, 0, 70, 0
2, 8040, Note_on_c, 0, 69, 100
2, 8069, Note_on_c, 0, 69, 0
2, 8070, Note_on_c, 0, 70, 100
2, 8099, Note_on_c, 0, 70, 0
2, 8100, Note_on_c, 0, 72, 100
2, 8129, Note_on_c, 0, 72, 0
2, 8130, Note_on_c, 0, 69, 100
2, 8159, Note_on_c, 0, 69, 0
2, 8160, Note_on_c, 0, 65, 100
2, 8279, Note_on_c, 0, 65, 0
2, 8280, Note_on_c, 0, 77, 100
2, 8339, Note_on_c, 0, 77, 0
2, 8340, Note_on_c, 0, 74, 100
2, 8365, Note_on_c, 0, 74, 0
2, 8400, Note_on_c, 0, 70, 100
2, 8425, Note_on_c, 0, 70, 0
2, 8460, Note_on_c, 0, 77, 100
2, 8485, Note_on_c, 0, 77, 0
2, 8520, Note_on_c, 0, 79, 100
2, 8549, Note_on_c, 0, 79, 0
2, 8550, Note_on_c, 0, 77, 100
2, 8579, Note_on_c, 0, 77, 0
2, 8580, Note_on_c, 0, 75, 100
2, 8609, Note_on_c, 0, 75, 0
2, 8610, Note_on_c, 0, 74, 100
2, 8639, Note_on_c, 0, 74, 0
2, 8640, Note_on_c, 0, 75, 100
2, 8699, Note_on_c, 0, 75, 0
2, 8700, Note_on_c, 0, 72, 100
2, 8725, Note_on_c, 0, 72, 0
2, 8760, Note_on_c, 0, 69, 100
2, 8785, Note_on_c, 0, 69, 0
2, 8820, Note_on_c, 0, 75, 100
2, 8845, Note_on_c, 0, 75, 0
2, 8880, Note_on_c, 0, 77, 100
2, 8909, Note_on_c, 0, 77, 0
2, 8910, Note_on_c, 0, 75, 100
2, 8939, Note_on_c, 0, 75, 0
2, 8940, Note_on_c, 0, 74, 100
2, 8969, Note_on_c, 0, 74, 0
2, 8970, Note_on_c, 0, 72, 100
2, 8999, Note_on_c, 0, 72, 0
2, 9000, Note_on_c, 0, 74, 100
2, 9025, Note_on_c, 0, 74, 0
2, 9060, Note_on_c, 0, 72, 100
2, 9089, Note_on_c, 0, 72, 0
2, 9090, Note_on_c, 0, 74, 100
2, 9119, Note_on_c, 0, 74, 0
2, 9120, Note_on_c, 0, 75, 100
2, 9145, Note_on_c, 0, 75, 0
2, 9180, Note_on_c, 0, 74, 100
2, 9205, Note_on_c, 0, 74, 0
2, 9240, Note_on_c, 0, 72, 100
2, 9265, Note_on_c, 0, 72, 0
2, 9300, Note_on_c, 0, 70, 100
2, 9325, Note_on_c, 0, 70, 0
2, 9360, Note_on_c, 0, 69, 100
2, 9389, Note_on_c, 0, 69, 0
2, 9390, Note_on_c, 0, 70, 100
2, 9419, Note_on_c, 0, 70, 0
2, 9420, Note_on_c, 0, 72, 100
2, 9449, Note_on_c, 0, 72, 0
2, 9450, Note_on_c, 0, 69, 100
2, 9479, Note_on_c, 0, 69, 0
2, 9480, Note_on_c, 0, 70, 100
2, 9599, Note_on_c, 0, 70, 0
2, 9600, Note_on_c, 0, 58, 100
2, 9719, Note_on_c, 0, 58, 0
2, 9720, Note_on_c, 0, 74, 100
2, 9770, Note_on_c, 0, 74, 0
2, 9840, Note_on_c, 0, 75, 100
2, 9890, Note_on_c, 0, 75, 0
2, 9960, Note_on_c, 0, 67, 100
2, 10010, Note_on_c, 0, 67, 0
2, 10080, Note_on_c, 0, 66, 100
2, 10105, Note_on_c, 0, 66, 0
2, 10140, Note_on_c, 0, 66, 100
2, 10169, Note_on_c, 0, 66, 0
2, 10170, Note_on_c, 0, 67, 100
2, 10199, Note_on_c, 0, 67, 0
2, 10200, Note_on_c, 0, 69, 100
2, 10225, Note_on_c, 0, 69, 0
2, 10260, Note_on_c, 0, 62, 100
2, 10285, Note_on_c, 0, 62, 0
2, 10320, Note_on_c, 0, 66, 100
2, 10345, Note_on_c, 0, 66, 0
2, 10380, Note_on_c, 0, 69, 100
2, 10405, Note_on_c, 0, 69, 0
2, 10440, Note_on_c, 0, 74, 100
2, 10490, Note_on_c, 0, 74, 0
2, 10560, Note_on_c, 0, 75, 100
2, 10610, Note_on_c, 0, 75, 0
2, 10680, Note_on_c, 0, 67, 100
2, 10730, Note_on_c, 0, 67, 0
2, 10800, Note_on_c, 0, 66, 100
2, 10825, Note_on_c, 0, 66, 0
2, 10860, Note_on_c, 0, 66, 100
2, 10889, Note_on_c, 0, 66, 0
2, 10890, Note_on_c, 0, 67, 100
2, 10919, Note_on_c, 0, 67, 0
2, 10920, Note_on_c, 0, 69, 100
2, 10945, Note_on_c, 0, 69, 0
2, 10980, Note_on_c, 0, 62, 100
2, 11005, Note_on_c, 0, 62, 0
2, 11040, Note_on_c, 0, 66, 100
2, 11065, Note_on_c, 0, 66, 0
2, 11100, Note_on_c, 0, 69, 100
2, 11125, Note_on_c, 0, 69, 0
2, 11160, Note_on_c, 0, 74, 100
2, 11185, Note_on_c, 0, 74, 0
2, 11220, Note_on_c, 0, 74, 100
2, 11249, Note_on_c, 0, 74, 0
2, 11250, Note_on_c, 0, 75, 100
2, 11279, Note_on_c, 0, 75, 0
2, 11280, Note_on_c, 0, 74, 100
2, 11305, Note_on_c, 0, 74, 0
2, 11340, Note_on_c, 0, 74, 100
2, 11369, Note_on_c, 0, 74, 0
2, 11370, Note_on_c, 0, 75, 100
2, 11399, Note_on_c, 0, 75, 0
2, 11400, Note_on_c, 0, 74, 100
2, 11425, Note_on_c, 0, 74, 0
2, 11460, Note_on_c, 0, 79, 100
2, 11485, Note_on_c, 0, 79, 0
2, 11520, Note_on_c, 0, 70, 100
2, 11545, Note_on_c, 0, 70, 0
2, 11580, Note_on_c, 0, 69, 100
2, 11609, Note_on_c, 0, 69, 0
2, 11610, Note_on_c, 0, 70, 100
2, 11639, Note_on_c, 0, 70, 0
2, 11640, Note_on_c, 0, 67, 100
2, 11759, Note_on_c, 0, 67, 0
2, 11760, Note_on_c, 0, 55, 100
2, 11879, Note_on_c, 0, 55, 0
2, 11879, End_track
3, 0, Start_track
3, 0, Control_c, 1, 0, 0
3, 0, Control_c, 1, 7, 100
3, 0, Control_c, 1, 10, 63
3, 0, Control_c, 1, 32, 127
3, 0, Program_c, 1, 0
3, 1, Control_c, 1, 0, 127
3, 2, Program_c, 1, 11
3, 360, Note_on_c, 1, 55, 100
3, 475, Note_on_c, 1, 55, 0
3, 480, Note_on_c, 1, 55, 100
3, 595, Note_on_c, 1, 55, 0
3, 600, Note_on_c, 1, 55, 100
3, 715, Note_on_c, 1, 55, 0
3, 720, Note_on_c, 1, 55, 100
3, 835, Note_on_c, 1, 55, 0
3, 840, Note_on_c, 1, 54, 100
3, 865, Note_on_c, 1, 54, 0
3, 900, Note_on_c, 1, 52, 100
3, 925, Note_on_c, 1, 52, 0
3, 960, Note_on_c, 1, 54, 100
3, 985, Note_on_c, 1, 54, 0
3, 1020, Note_on_c, 1, 50, 100
3, 1045, Note_on_c, 1, 50, 0
3, 1080, Note_on_c, 1, 55, 100
3, 1195, Note_on_c, 1, 55, 0
3, 1200, Note_on_c, 1, 43, 100
3, 1315, Note_on_c, 1, 43, 0
3, 1320, Note_on_c, 1, 48, 100
3, 1435, Note_on_c, 1, 48, 0
3, 1440, Note_on_c, 1, 50, 100
3, 1559, Note_on_c, 1, 50, 0
3, 1560, Note_on_c, 1, 55, 100
3, 1585, Note_on_c, 1, 55, 0
3, 1620, Note_on_c, 1, 43, 100
3, 1645, Note_on_c, 1, 43, 0
3, 1680, Note_on_c, 1, 46, 100
3, 1705, Note_on_c, 1, 46, 0
3, 1740, Note_on_c, 1, 50, 100
3, 1765, Note_on_c, 1, 50, 0
3, 1800, Note_on_c, 1, 55, 100
3, 1915, Note_on_c, 1, 55, 0
3, 1920, Note_on_c, 1, 55, 100
3, 2035, Note_on_c, 1, 55, 0
3, 2040, Note_on_c, 1, 55, 100
3, 2155, Note_on_c, 1, 55, 0
3, 2160, Note_on_c, 1, 55, 100
3, 2275, Note_on_c, 1, 55, 0
3, 2280, Note_on_c, 1, 54, 100
3, 2305, Note_on_c, 1, 54, 0
3, 2340, Note_on_c, 1, 52, 100
3, 2365, Note_on_c, 1, 52, 0
3, 2400, Note_on_c, 1, 54, 100
3, 2425, Note_on_c, 1, 54, 0
3, 2460, Note_on_c, 1, 50, 100
3, 2485, Note_on_c, 1, 50, 0
3, 2520, Note_on_c, 1, 55, 100
3, 2635, Note_on_c, 1, 55, 0
3, 2640, Note_on_c, 1, 43, 100
3, 2755, Note_on_c, 1, 43, 0
3, 2760, Note_on_c, 1, 48, 100
3, 2875, Note_on_c, 1, 48, 0
3, 2880, Note_on_c, 1, 50, 100
3, 2999, Note_on_c, 1, 50, 0
3, 3000, Note_on_c, 1, 55, 100
3, 3025, Note_on_c, 1, 55, 0
3, 3060, Note_on_c, 1, 43, 100
3, 3085, Note_on_c, 1, 43, 0
3, 3120, Note_on_c, 1, 46, 100
3, 3145, Note_on_c, 1, 46, 0
3, 3180, Note_on_c, 1, 50, 100
3, 3205, Note_on_c, 1, 50, 0
3, 3240, Note_on_c, 1, 55, 100
3, 3329, Note_on_c, 1, 55, 0
3, 3330, Note_on_c, 1, 57, 100
3, 3359, Note_on_c, 1, 57, 0
3, 3360, Note_on_c, 1, 58, 100
3, 3475, Note_on_c, 1, 58, 0
3, 3480, Note_on_c, 1, 57, 100
3, 3595, Note_on_c, 1, 57, 0
3, 3600, Note_on_c, 1, 58, 100
3, 3715, Note_on_c, 1, 58, 0
3, 3720, Note_on_c, 1, 53, 100
3, 3835, Note_on_c, 1, 53, 0
3, 3840, Note_on_c, 1, 53, 100
3, 3865, Note_on_c, 1, 53, 0
3, 3900, Note_on_c, 1, 51, 100
3, 3925, Note_on_c, 1, 51, 0
3, 3960, Note_on_c, 1, 50, 100
3, 4075, Note_on_c, 1, 50, 0
3, 4080, Note_on_c, 1, 55, 100
3, 4195, Note_on_c, 1, 55, 0
3, 4200, Note_on_c, 1, 51, 100
3, 4315, Note_on_c, 1, 51, 0
3, 4320, Note_on_c, 1, 48, 100
3, 4435, Note_on_c, 1, 48, 0
3, 4440, Note_on_c, 1, 53, 100
3, 4555, Note_on_c, 1, 53, 0
3, 4560, Note_on_c, 1, 50, 100
3, 4675, Note_on_c, 1, 50, 0
3, 4680, Note_on_c, 1, 46, 100
3, 4795, Note_on_c, 1, 46, 0
3, 4800, Note_on_c, 1, 55, 100
3, 4915, Note_on_c, 1, 55, 0
3, 4920, Note_on_c, 1, 51, 100
3, 5035, Note_on_c, 1, 51, 0
3, 5040, Note_on_c, 1, 53, 100
3, 5099, Note_on_c, 1, 53, 0
3, 5100, Note_on_c, 1, 51, 100
3, 5159, Note_on_c, 1, 51, 0
3, 5160, Note_on_c, 1, 50, 100
3, 5219, Note_on_c, 1, 50, 0
3, 5220, Note_on_c, 1, 51, 100
3, 5279, Note_on_c, 1, 51, 0
3, 5280, Note_on_c, 1, 50, 100
3, 5339, Note_on_c, 1, 50, 0
3, 5340, Note_on_c, 1, 48, 100
3, 5399, Note_on_c, 1, 48, 0
3, 5400, Note_on_c, 1, 46, 100
3, 5450, Note_on_c, 1, 46, 0
3, 5520, Note_on_c, 1, 48, 100
3, 5570, Note_on_c, 1, 48, 0
3, 5640, Note_on_c, 1, 51, 100
3, 5690, Note_on_c, 1, 51, 0
3, 5760, Note_on_c, 1, 50, 100
3, 5879, Note_on_c, 1, 50, 0
3, 5880, Note_on_c, 1, 50, 100
3, 5999, Note_on_c, 1, 50, 0
3, 6000, Note_on_c, 1, 48, 100
3, 6119, Note_on_c, 1, 48, 0
3, 6120, Note_on_c, 1, 46, 100
3, 6170, Note_on_c, 1, 46, 0
3, 6240, Note_on_c, 1, 48, 100
3, 6290, Note_on_c, 1, 48, 0
3, 6360, Note_on_c, 1, 51, 100
3, 6410, Note_on_c, 1, 51, 0
3, 6480, Note_on_c, 1, 50, 100
3, 6715, Note_on_c, 1, 50, 0
3, 6720, Note_on_c, 1, 48, 100
3, 6835, Note_on_c, 1, 48, 0
3, 6840, Note_on_c, 1, 46, 100
3, 6955, Note_on_c, 1, 46, 0
3, 6960, Note_on_c, 1, 43, 100
3, 7075, Note_on_c, 1, 43, 0
3, 7080, Note_on_c, 1, 46, 100
3, 7195, Note_on_c, 1, 46, 0
3, 7200, Note_on_c, 1, 50, 100
3, 7315, Note_on_c, 1, 50, 0
3, 7320, Note_on_c, 1, 43, 100
3, 7555, Note_on_c, 1, 43, 0
3, 7560, Note_on_c, 1, 55, 100
3, 7649, Note_on_c, 1, 55, 0
3, 7650, Note_on_c, 1, 57, 100
3, 7679, Note_on_c, 1, 57, 0
3, 7680, Note_on_c, 1, 58, 100
3, 7795, Note_on_c, 1, 58, 0
3, 7800, Note_on_c, 1, 57, 100
3, 7915, Note_on_c, 1, 57, 0
3, 7920, Note_on_c, 1, 58, 100
3, 8035, Note_on_c, 1, 58, 0
3, 8040, Note_on_c, 1, 53, 100
3, 8155, Note_on_c, 1, 53, 0
3, 8160, Note_on_c, 1, 53, 100
3, 8185, Note_on_c, 1, 53, 0
3, 8220, Note_on_c, 1, 51, 100
3, 8245, Note_on_c, 1, 51, 0
3, 8280, Note_on_c, 1, 50, 100
3, 8395, Note_on_c, 1, 50, 0
3, 8400, Note_on_c, 1, 55, 100
3, 8515, Note_on_c, 1, 55, 0
3, 8520, Note_on_c, 1, 51, 100
3, 8635, Note_on_c, 1, 51, 0
3, 8640, Note_on_c, 1, 48, 100
3, 8755, Note_on_c, 1, 48, 0
3, 8760, Note_on_c, 1, 53, 100
3, 8875, Note_on_c, 1, 53, 0
3, 8880, Note_on_c, 1, 50, 100
3, 8995, Note_on_c, 1, 50, 0
3, 9000, Note_on_c, 1, 46, 100
3, 9115, Note_on_c, 1, 46, 0
3, 9120, Note_on_c, 1, 55, 100
3, 9235, Note_on_c, 1, 55, 0
3, 9240, Note_on_c, 1, 51, 100
3, 9355, Note_on_c, 1, 51, 0
3, 9360, Note_on_c, 1, 53, 100
3, 9419, Note_on_c, 1, 53, 0
3, 9420, Note_on_c, 1, 51, 100
3, 9479, Note_on_c, 1, 51, 0
3, 9480, Note_on_c, 1, 50, 100
3, 9539, Note_on_c, 1, 50, 0
3, 9540, Note_on_c, 1, 51, 100
3, 9599, Note_on_c, 1, 51, 0
3, 9600, Note_on_c, 1, 50, 100
3, 9659, Note_on_c, 1, 50, 0
3, 9660, Note_on_c, 1, 48, 100
3, 9719, Note_on_c, 1, 48, 0
3, 9720, Note_on_c, 1, 46, 100
3, 9770, Note_on_c, 1, 46, 0
3, 9840, Note_on_c, 1, 48, 100
3, 9890, Note_on_c, 1, 48, 0
3, 9960, Note_on_c, 1, 51, 100
3, 10010, Note_on_c, 1, 51, 0
3, 10080, Note_on_c, 1, 50, 100
3, 10199, Note_on_c, 1, 50, 0
3, 10200, Note_on_c, 1, 50, 100
3, 10319, Note_on_c, 1, 50, 0
3, 10320, Note_on_c, 1, 48, 100
3, 10439, Note_on_c, 1, 48, 0
3, 10440, Note_on_c, 1, 46, 100
3, 10490, Note_on_c, 1, 46, 0
3, 10560, Note_on_c, 1, 48, 100
3, 10610, Note_on_c, 1, 48, 0
3, 10680, Note_on_c, 1, 51, 100
3, 10730, Note_on_c, 1, 51, 0
3, 10800, Note_on_c, 1, 50, 100
3, 11035, Note_on_c, 1, 50, 0
3, 11040, Note_on_c, 1, 48, 100
3, 11155, Note_on_c, 1, 48, 0
3, 11160, Note_on_c, 1, 46, 100
3, 11275, Note_on_c, 1, 46, 0
3, 11280, Note_on_c, 1, 43, 100
3, 11395, Note_on_c, 1, 43, 0
3, 11400, Note_on_c, 1, 46, 100
3, 11515, Note_on_c, 1, 46, 0
3, 11520, Note_on_c, 1, 50, 100
3, 11635, Note_on_c, 1, 50, 0
3, 11640, Note_on_c, 1, 43, 100
3, 11879, Note_on_c, 1, 43, 0
3, 11879, End_track
4, 0, Start_track
4, 0, End_track
0, 0, End_of_file
