0, 0, Header, 1, 4, 120
1, 0, Start_track
1, 0, Title_t, "Minuet in Am"
1, 0, Title_t, "from ""Anna Magdalena's Notebook"""
1, 0, Text_t, "From Magdalena's Notebook and written in her hand, but the composition is ASSUMED to have been by an anonymous composer.  Who's to say she couldn't have composed it herself?\012"
1, 0, Text_t, "Programmed for MIDI by Lory Werths\012"
1, 0, Time_signature, 3, 2, 24, 8
1, 0, Key_signature, 0, "major"
1, 0, Tempo, 517241
1, 0, End_track
2, 0, Start_track
2, 0, Control_c, 0, 0, 0
2, 0, Control_c, 0, 7, 110
2, 0, Control_c, 0, 10, 33
2, 0, Poly_aftertouch_c, 0, 60, 0
2, 0, Control_c, 0, 32, 0
2, 0, Program_c, 0, 16
2, 240, Note_on_c, 0, 64, 100
2, 360, Note_on_c, 0, 64, 0
2, 360, Note_on_c, 0, 69, 100
2, 450, Note_on_c, 0, 69, 0
2, 450, Note_on_c, 0, 71, 100
2, 480, Note_on_c, 0, 71, 0
2, 480, Note_on_c, 0, 72, 100
2, 600, Note_on_c, 0, 72, 0
2, 600, Note_on_c, 0, 71, 100
2, 720, Note_on_c, 0, 71, 0
2, 720, Note_on_c, 0, 72, 100
2, 840, Note_on_c, 0, 72, 0
2, 840, Note_on_c, 0, 69, 100
2, 957, Note_on_c, 0, 69, 0
2, 960, Note_on_c, 0, 76, 100
2, 1200, Note_on_c, 0, 76, 0
2, 1200, Note_on_c, 0, 76, 100
2, 1260, Note_on_c, 0, 76, 0
2, 1260, Note_on_c, 0, 74, 100
2, 1320, Note_on_c, 0, 74, 0
2, 1320, Note_on_c, 0, 72, 100
2, 1380, Note_on_c, 0, 72, 0
2, 1380, Note_on_c, 0, 71, 100
2, 1440, Note_on_c, 0, 71, 0
2, 1440, Note_on_c, 0, 72, 100
2, 1560, Note_on_c, 0, 72, 0
2, 1560, Note_on_c, 0, 69, 100
2, 1677, Note_on_c, 0, 69, 0
2, 1680, Note_on_c, 0, 77, 100
2, 1920, Note_on_c, 0, 77, 0
2, 1920, Note_on_c, 0, 76, 100
2, 2040, Note_on_c, 0, 76, 0
2, 2040, Note_on_c, 0, 75, 100
2, 2160, Note_on_c, 0, 75, 0
2, 2160, Note_on_c, 0, 76, 100
2, 2280, Note_on_c, 0, 76, 0
2, 2280, Note_on_c, 0, 71, 100
2, 2397, Note_on_c, 0, 71, 0
2, 2400, Note_on_c, 0, 76, 100
2, 2640, Note_on_c, 0, 76, 0
2, 2640, Note_on_c, 0, 74, 100
2, 2760, Note_on_c, 0, 74, 0
2, 2760, Note_on_c, 0, 73, 100
2, 2880, Note_on_c, 0, 73, 0
2, 2880, Note_on_c, 0, 74, 100
2, 3000, Note_on_c, 0, 74, 0
2, 3000, Note_on_c, 0, 69, 100
2, 3117, Note_on_c, 0, 69, 0
2, 3120, Note_on_c, 0, 74, 100
2, 3360, Note_on_c, 0, 74, 0
2, 3360, Note_on_c, 0, 72, 100
2, 3480, Note_on_c, 0, 72, 0
2, 3480, Note_on_c, 0, 71, 100
2, 3600, Note_on_c, 0, 71, 0
2, 3600, Note_on_c, 0, 72, 100
2, 3720, Note_on_c, 0, 72, 0
2, 3720, Note_on_c, 0, 67, 100
2, 3837, Note_on_c, 0, 67, 0
2, 3840, Note_on_c, 0, 72, 100
2, 3960, Note_on_c, 0, 72, 0
2, 3960, Note_on_c, 0, 71, 100
2, 4020, Note_on_c, 0, 71, 0
2, 4020, Note_on_c, 0, 72, 100
2, 4080, Note_on_c, 0, 72, 0
2, 4080, Note_on_c, 0, 74, 100
2, 4140, Note_on_c, 0, 74, 0
2, 4140, Note_on_c, 0, 71, 100
2, 4200, Note_on_c, 0, 71, 0
2, 4200, Note_on_c, 0, 77, 100
2, 4260, Note_on_c, 0, 77, 0
2, 4260, Note_on_c, 0, 69, 100
2, 4320, Note_on_c, 0, 69, 0
2, 4320, Note_on_c, 0, 68, 100
2, 4559, Note_on_c, 0, 68, 0
2, 4560, Note_on_c, 0, 64, 100
2, 4680, Note_on_c, 0, 64, 0
2, 4680, Note_on_c, 0, 69, 100
2, 4770, Note_on_c, 0, 69, 0
2, 4770, Note_on_c, 0, 71, 100
2, 4800, Note_on_c, 0, 71, 0
2, 4800, Note_on_c, 0, 72, 100
2, 4920, Note_on_c, 0, 72, 0
2, 4920, Note_on_c, 0, 71, 100
2, 5040, Note_on_c, 0, 71, 0
2, 5040, Note_on_c, 0, 72, 100
2, 5160, Note_on_c, 0, 72, 0
2, 5160, Note_on_c, 0, 69, 100
2, 5277, Note_on_c, 0, 69, 0
2, 5280, Note_on_c, 0, 76, 100
2, 5520, Note_on_c, 0, 76, 0
2, 5520, Note_on_c, 0, 76, 100
2, 5580, Note_on_c, 0, 76, 0
2, 5580, Note_on_c, 0, 74, 100
2, 5640, Note_on_c, 0, 74, 0
2, 5640, Note_on_c, 0, 72, 100
2, 5700, Note_on_c, 0, 72, 0
2, 5700, Note_on_c, 0, 71, 100
2, 5760, Note_on_c, 0, 71, 0
2, 5760, Note_on_c, 0, 72, 100
2, 5880, Note_on_c, 0, 72, 0
2, 5880, Note_on_c, 0, 69, 100
2, 5997, Note_on_c, 0, 69, 0
2, 6000, Note_on_c, 0, 77, 100
2, 6240, Note_on_c, 0, 77, 0
2, 6240, Note_on_c, 0, 76, 100
2, 6360, Note_on_c, 0, 76, 0
2, 6360, Note_on_c, 0, 75, 100
2, 6480, Note_on_c, 0, 75, 0
2, 6480, Note_on_c, 0, 76, 100
2, 6600, Note_on_c, 0, 76, 0
2, 6600, Note_on_c, 0, 71, 100
2, 6717, Note_on_c, 0, 71, 0
2, 6720, Note_on_c, 0, 76, 100
2, 6960, Note_on_c, 0, 76, 0
2, 6960, Note_on_c, 0, 74, 100
2, 7080, Note_on_c, 0, 74, 0
2, 7080, Note_on_c, 0, 73, 100
2, 7200, Note_on_c, 0, 73, 0
2, 7200, Note_on_c, 0, 74, 100
2, 7320, Note_on_c, 0, 74, 0
2, 7320, Note_on_c, 0, 69, 100
2, 7437, Note_on_c, 0, 69, 0
2, 7440, Note_on_c, 0, 74, 100
2, 7680, Note_on_c, 0, 74, 0
2, 7680, Note_on_c, 0, 72, 100
2, 7800, Note_on_c, 0, 72, 0
2, 7800, Note_on_c, 0, 71, 100
2, 7920, Note_on_c, 0, 71, 0
2, 7920, Note_on_c, 0, 72, 100
2, 8040, Note_on_c, 0, 72, 0
2, 8040, Note_on_c, 0, 67, 100
2, 8157, Note_on_c, 0, 67, 0
2, 8160, Note_on_c, 0, 72, 100
2, 8280, Note_on_c, 0, 72, 0
2, 8280, Note_on_c, 0, 71, 100
2, 8340, Note_on_c, 0, 71, 0
2, 8340, Note_on_c, 0, 72, 100
2, 8400, Note_on_c, 0, 72, 0
2, 8400, Note_on_c, 0, 74, 100
2, 8460, Note_on_c, 0, 74, 0
2, 8460, Note_on_c, 0, 71, 100
2, 8520, Note_on_c, 0, 71, 0
2, 8520, Note_on_c, 0, 77, 100
2, 8580, Note_on_c, 0, 77, 0
2, 8580, Note_on_c, 0, 69, 100
2, 8640, Note_on_c, 0, 69, 0
2, 8640, Note_on_c, 0, 68, 100
2, 8879, Note_on_c, 0, 68, 0
2, 8880, Note_on_c, 0, 67, 100
2, 9000, Note_on_c, 0, 67, 0
2, 9000, Note_on_c, 0, 72, 100
2, 9090, Note_on_c, 0, 72, 0
2, 9090, Note_on_c, 0, 74, 100
2, 9120, Note_on_c, 0, 74, 0
2, 9120, Note_on_c, 0, 76, 100
2, 9240, Note_on_c, 0, 76, 0
2, 9240, Note_on_c, 0, 74, 100
2, 9360, Note_on_c, 0, 74, 0
2, 9360, Note_on_c, 0, 76, 100
2, 9480, Note_on_c, 0, 76, 0
2, 9480, Note_on_c, 0, 72, 100
2, 9597, Note_on_c, 0, 72, 0
2, 9600, Note_on_c, 0, 79, 100
2, 9840, Note_on_c, 0, 79, 0
2, 9840, Note_on_c, 0, 79, 100
2, 9900, Note_on_c, 0, 79, 0
2, 9900, Note_on_c, 0, 77, 100
2, 9960, Note_on_c, 0, 77, 0
2, 9960, Note_on_c, 0, 76, 100
2, 10020, Note_on_c, 0, 76, 0
2, 10020, Note_on_c, 0, 74, 100
2, 10080, Note_on_c, 0, 74, 0
2, 10080, Note_on_c, 0, 76, 100
2, 10200, Note_on_c, 0, 76, 0
2, 10200, Note_on_c, 0, 72, 100
2, 10317, Note_on_c, 0, 72, 0
2, 10320, Note_on_c, 0, 81, 100
2, 10560, Note_on_c, 0, 81, 0
2, 10560, Note_on_c, 0, 79, 100
2, 10680, Note_on_c, 0, 79, 0
2, 10680, Note_on_c, 0, 78, 100
2, 10800, Note_on_c, 0, 78, 0
2, 10800, Note_on_c, 0, 79, 100
2, 10920, Note_on_c, 0, 79, 0
2, 10920, Note_on_c, 0, 74, 100
2, 11037, Note_on_c, 0, 74, 0
2, 11040, Note_on_c, 0, 76, 100
2, 11160, Note_on_c, 0, 76, 0
2, 11160, Note_on_c, 0, 77, 100
2, 11280, Note_on_c, 0, 77, 0
2, 11280, Note_on_c, 0, 74, 100
2, 11520, Note_on_c, 0, 74, 0
2, 11520, Note_on_c, 0, 72, 100
2, 11758, Note_on_c, 0, 72, 0
2, 11760, Note_on_c, 0, 76, 100
2, 11880, Note_on_c, 0, 76, 0
2, 11880, Note_on_c, 0, 77, 100
2, 12000, Note_on_c, 0, 77, 0
2, 12000, Note_on_c, 0, 79, 100
2, 12020, Note_on_c, 0, 79, 0
2, 12020, Note_on_c, 0, 78, 100
2, 12040, Note_on_c, 0, 78, 0
2, 12040, Note_on_c, 0, 79, 100
2, 12060, Note_on_c, 0, 79, 0
2, 12060, Note_on_c, 0, 78, 100
2, 12080, Note_on_c, 0, 78, 0
2, 12080, Note_on_c, 0, 79, 100
2, 12100, Note_on_c, 0, 79, 0
2, 12100, Note_on_c, 0, 78, 100
2, 12120, Note_on_c, 0, 78, 0
2, 12120, Note_on_c, 0, 79, 100
2, 12140, Note_on_c, 0, 79, 0
2, 12140, Note_on_c, 0, 78, 100
2, 12179, Note_on_c, 0, 78, 0
2, 12180, Note_on_c, 0, 76, 100
2, 12210, Note_on_c, 0, 76, 0
2, 12210, Note_on_c, 0, 78, 100
2, 12240, Note_on_c, 0, 78, 0
2, 12240, Note_on_c, 0, 79, 100
2, 12360, Note_on_c, 0, 79, 0
2, 12360, Note_on_c, 0, 74, 100
2, 12477, Note_on_c, 0, 74, 0
2, 12480, Note_on_c, 0, 78, 100
2, 12600, Note_on_c, 0, 78, 0
2, 12600, Note_on_c, 0, 79, 100
2, 12720, Note_on_c, 0, 79, 0
2, 12720, Note_on_c, 0, 81, 100
2, 12740, Note_on_c, 0, 81, 0
2, 12740, Note_on_c, 0, 80, 100
2, 12760, Note_on_c, 0, 80, 0
2, 12760, Note_on_c, 0, 81, 100
2, 12780, Note_on_c, 0, 81, 0
2, 12780, Note_on_c, 0, 80, 100
2, 12800, Note_on_c, 0, 80, 0
2, 12800, Note_on_c, 0, 81, 100
2, 12820, Note_on_c, 0, 81, 0
2, 12820, Note_on_c, 0, 80, 100
2, 12840, Note_on_c, 0, 80, 0
2, 12840, Note_on_c, 0, 81, 100
2, 12860, Note_on_c, 0, 81, 0
2, 12860, Note_on_c, 0, 80, 100
2, 12899, Note_on_c, 0, 80, 0
2, 12900, Note_on_c, 0, 78, 100
2, 12930, Note_on_c, 0, 78, 0
2, 12930, Note_on_c, 0, 80, 100
2, 12960, Note_on_c, 0, 80, 0
2, 12960, Note_on_c, 0, 81, 100
2, 13080, Note_on_c, 0, 81, 0
2, 13080, Note_on_c, 0, 76, 100
2, 13197, Note_on_c, 0, 76, 0
2, 13200, Note_on_c, 0, 81, 100
2, 13320, Note_on_c, 0, 81, 0
2, 13320, Note_on_c, 0, 77, 100
2, 13440, Note_on_c, 0, 77, 0
2, 13440, Note_on_c, 0, 76, 100
2, 13560, Note_on_c, 0, 76, 0
2, 13560, Note_on_c, 0, 74, 100
2, 13680, Note_on_c, 0, 74, 0
2, 13680, Note_on_c, 0, 76, 100
2, 13797, Note_on_c, 0, 76, 0
2, 13800, Note_on_c, 0, 64, 100
2, 13920, Note_on_c, 0, 64, 0
2, 13920, Note_on_c, 0, 69, 100
2, 14040, Note_on_c, 0, 69, 0
2, 14040, Note_on_c, 0, 74, 100
2, 14160, Note_on_c, 0, 74, 0
2, 14160, Note_on_c, 0, 72, 100
2, 14180, Note_on_c, 0, 72, 0
2, 14180, Note_on_c, 0, 71, 100
2, 14200, Note_on_c, 0, 71, 0
2, 14200, Note_on_c, 0, 72, 100
2, 14220, Note_on_c, 0, 72, 0
2, 14220, Note_on_c, 0, 71, 100
2, 14240, Note_on_c, 0, 71, 0
2, 14240, Note_on_c, 0, 72, 100
2, 14260, Note_on_c, 0, 72, 0
2, 14260, Note_on_c, 0, 71, 100
2, 14280, Note_on_c, 0, 71, 0
2, 14280, Note_on_c, 0, 72, 100
2, 14300, Note_on_c, 0, 72, 0
2, 14300, Note_on_c, 0, 71, 100
2, 14320, Note_on_c, 0, 71, 0
2, 14320, Note_on_c, 0, 72, 100
2, 14340, Note_on_c, 0, 72, 0
2, 14340, Note_on_c, 0, 71, 100
2, 14360, Note_on_c, 0, 71, 0
2, 14360, Note_on_c, 0, 69, 100
2, 14380, Note_on_c, 0, 69, 0
2, 14380, Note_on_c, 0, 71, 100
2, 14400, Note_on_c, 0, 71, 0
2, 14400, Note_on_c, 0, 69, 100
2, 14638, Note_on_c, 0, 69, 0
2, 14640, Note_on_c, 0, 67, 100
2, 14760, Note_on_c, 0, 67, 0
2, 14760, Note_on_c, 0, 72, 100
2, 14850, Note_on_c, 0, 72, 0
2, 14850, Note_on_c, 0, 74, 100
2, 14880, Note_on_c, 0, 74, 0
2, 14880, Note_on_c, 0, 76, 100
2, 15000, Note_on_c, 0, 76, 0
2, 15000, Note_on_c, 0, 74, 100
2, 15120, Note_on_c, 0, 74, 0
2, 15120, Note_on_c, 0, 76, 100
2, 15240, Note_on_c, 0, 76, 0
2, 15240, Note_on_c, 0, 72, 100
2, 15357, Note_on_c, 0, 72, 0
2, 15360, Note_on_c, 0, 79, 100
2, 15600, Note_on_c, 0, 79, 0
2, 15600, Note_on_c, 0, 79, 100
2, 15660, Note_on_c, 0, 79, 0
2, 15660, Note_on_c, 0, 77, 100
2, 15720, Note_on_c, 0, 77, 0
2, 15720, Note_on_c, 0, 76, 100
2, 15780, Note_on_c, 0, 76, 0
2, 15780, Note_on_c, 0, 74, 100
2, 15840, Note_on_c, 0, 74, 0
2, 15840, Note_on_c, 0, 76, 100
2, 15960, Note_on_c, 0, 76, 0
2, 15960, Note_on_c, 0, 72, 100
2, 16077, Note_on_c, 0, 72, 0
2, 16080, Note_on_c, 0, 81, 100
2, 16320, Note_on_c, 0, 81, 0
2, 16320, Note_on_c, 0, 79, 100
2, 16440, Note_on_c, 0, 79, 0
2, 16440, Note_on_c, 0, 78, 100
2, 16560, Note_on_c, 0, 78, 0
2, 16560, Note_on_c, 0, 79, 100
2, 16680, Note_on_c, 0, 79, 0
2, 16680, Note_on_c, 0, 74, 100
2, 16797, Note_on_c, 0, 74, 0
2, 16800, Note_on_c, 0, 76, 100
2, 16920, Note_on_c, 0, 76, 0
2, 16920, Note_on_c, 0, 77, 100
2, 17040, Note_on_c, 0, 77, 0
2, 17040, Note_on_c, 0, 74, 100
2, 17280, Note_on_c, 0, 74, 0
2, 17280, Note_on_c, 0, 72, 100
2, 17518, Note_on_c, 0, 72, 0
2, 17520, Note_on_c, 0, 76, 100
2, 17640, Note_on_c, 0, 76, 0
2, 17640, Note_on_c, 0, 77, 100
2, 17760, Note_on_c, 0, 77, 0
2, 17760, Note_on_c, 0, 79, 100
2, 17780, Note_on_c, 0, 79, 0
2, 17780, Note_on_c, 0, 78, 100
2, 17800, Note_on_c, 0, 78, 0
2, 17800, Note_on_c, 0, 79, 100
2, 17820, Note_on_c, 0, 79, 0
2, 17820, Note_on_c, 0, 78, 100
2, 17840, Note_on_c, 0, 78, 0
2, 17840, Note_on_c, 0, 79, 100
2, 17860, Note_on_c, 0, 79, 0
2, 17860, Note_on_c, 0, 78, 100
2, 17880, Note_on_c, 0, 78, 0
2, 17880, Note_on_c, 0, 79, 100
2, 17900, Note_on_c, 0, 79, 0
2, 17900, Note_on_c, 0, 78, 100
2, 17939, Note_on_c, 0, 78, 0
2, 17940, Note_on_c, 0, 76, 100
2, 17970, Note_on_c, 0, 76, 0
2, 17970, Note_on_c, 0, 78, 100
2, 18000, Note_on_c, 0, 78, 0
2, 18000, Note_on_c, 0, 79, 100
2, 18120, Note_on_c, 0, 79, 0
2, 18120, Note_on_c, 0, 74, 100
2, 18237, Note_on_c, 0, 74, 0
2, 18240, Note_on_c, 0, 78, 100
2, 18360, Note_on_c, 0, 78, 0
2, 18360, Note_on_c, 0, 79, 100
2, 18480, Note_on_c, 0, 79, 0
2, 18480, Note_on_c, 0, 81, 100
2, 18500, Note_on_c, 0, 81, 0
2, 18500, Note_on_c, 0, 80, 100
2, 18520, Note_on_c, 0, 80, 0
2, 18520, Note_on_c, 0, 81, 100
2, 18540, Note_on_c, 0, 81, 0
2, 18540, Note_on_c, 0, 80, 100
2, 18560, Note_on_c, 0, 80, 0
2, 18560, Note_on_c, 0, 81, 100
2, 18580, Note_on_c, 0, 81, 0
2, 18580, Note_on_c, 0, 80, 100
2, 18600, Note_on_c, 0, 80, 0
2, 18600, Note_on_c, 0, 81, 100
2, 18620, Note_on_c, 0, 81, 0
2, 18620, Note_on_c, 0, 80, 100
2, 18659, Note_on_c, 0, 80, 0
2, 18660, Note_on_c, 0, 78, 100
2, 18690, Note_on_c, 0, 78, 0
2, 18690, Note_on_c, 0, 80, 100
2, 18720, Note_on_c, 0, 80, 0
2, 18720, Note_on_c, 0, 81, 100
2, 18840, Note_on_c, 0, 81, 0
2, 18840, Note_on_c, 0, 76, 100
2, 18957, Note_on_c, 0, 76, 0
2, 18960, Note_on_c, 0, 81, 100
2, 19080, Note_on_c, 0, 81, 0
2, 19080, Note_on_c, 0, 77, 100
2, 19200, Note_on_c, 0, 77, 0
2, 19200, Note_on_c, 0, 76, 100
2, 19320, Note_on_c, 0, 76, 0
2, 19320, Note_on_c, 0, 74, 100
2, 19440, Note_on_c, 0, 74, 0
2, 19440, Note_on_c, 0, 76, 100
2, 19557, Note_on_c, 0, 76, 0
2, 19560, Note_on_c, 0, 64, 100
2, 19680, Note_on_c, 0, 64, 0
2, 19680, Note_on_c, 0, 69, 100
2, 19800, Note_on_c, 0, 69, 0
2, 19800, Note_on_c, 0, 74, 100
2, 19920, Note_on_c, 0, 74, 0
2, 19920, Note_on_c, 0, 72, 100
2, 19940, Note_on_c, 0, 72, 0
2, 19940, Note_on_c, 0, 71, 100
2, 19960, Note_on_c, 0, 71, 0
2, 19960, Note_on_c, 0, 72, 100
2, 19980, Note_on_c, 0, 72, 0
2, 19980, Note_on_c, 0, 71, 100
2, 20000, Note_on_c, 0, 71, 0
2, 20000, Note_on_c, 0, 72, 100
2, 20020, Note_on_c, 0, 72, 0
2, 20020, Note_on_c, 0, 71, 100
2, 20040, Note_on_c, 0, 71, 0
2, 20040, Note_on_c, 0, 72, 100
2, 20060, Note_on_c, 0, 72, 0
2, 20060, Note_on_c, 0, 71, 100
2, 20080, Note_on_c, 0, 71, 0
2, 20080, Note_on_c, 0, 72, 100
2, 20100, Note_on_c, 0, 72, 0
2, 20100, Note_on_c, 0, 71, 100
2, 20120, Note_on_c, 0, 71, 0
2, 20120, Note_on_c, 0, 69, 100
2, 20140, Note_on_c, 0, 69, 0
2, 20140, Note_on_c, 0, 71, 100
2, 20160, Note_on_c, 0, 71, 0
2, 20160, Note_on_c, 0, 69, 100
2, 20398, Note_on_c, 0, 69, 0
2, 20520, Poly_aftertouch_c, 0, 69, 0
2, 20520, End_track
3, 0, Start_track
3, 0, Control_c, 1, 0, 0
3, 0, Control_c, 1, 7, 100
3, 0, Control_c, 1, 10, 93
3, 0, Poly_aftertouch_c, 1, 60, 0
3, 0, Control_c, 1, 32, 0
3, 0, Program_c, 1, 16
3, 600, Note_on_c, 1, 52, 100
3, 720, Note_on_c, 1, 52, 0
3, 720, Note_on_c, 1, 57, 100
3, 810, Note_on_c, 1, 57, 0
3, 810, Note_on_c, 1, 59, 100
3, 840, Note_on_c, 1, 59, 0
3, 840, Note_on_c, 1, 60, 100
3, 960, Note_on_c, 1, 60, 0
3, 960, Note_on_c, 1, 59, 100
3, 1080, Note_on_c, 1, 59, 0
3, 1080, Note_on_c, 1, 60, 100
3, 1200, Note_on_c, 1, 60, 0
3, 1200, Note_on_c, 1, 57, 100
3, 1317, Note_on_c, 1, 57, 0
3, 1320, Note_on_c, 1, 64, 100
3, 1560, Note_on_c, 1, 64, 0
3, 1560, Note_on_c, 1, 64, 100
3, 1620, Note_on_c, 1, 64, 0
3, 1620, Note_on_c, 1, 62, 100
3, 1680, Note_on_c, 1, 62, 0
3, 1680, Note_on_c, 1, 60, 100
3, 1740, Note_on_c, 1, 60, 0
3, 1740, Note_on_c, 1, 59, 100
3, 1800, Note_on_c, 1, 59, 0
3, 1800, Note_on_c, 1, 57, 100
3, 1917, Note_on_c, 1, 57, 0
3, 1920, Note_on_c, 1, 57, 100
3, 1970, Note_on_c, 1, 57, 0
3, 2040, Note_on_c, 1, 57, 100
3, 2090, Note_on_c, 1, 57, 0
3, 2160, Note_on_c, 1, 56, 100
3, 2210, Note_on_c, 1, 56, 0
3, 2280, Note_on_c, 1, 56, 100
3, 2330, Note_on_c, 1, 56, 0
3, 2400, Note_on_c, 1, 56, 100
3, 2450, Note_on_c, 1, 56, 0
3, 2520, Note_on_c, 1, 55, 100
3, 2570, Note_on_c, 1, 55, 0
3, 2640, Note_on_c, 1, 55, 100
3, 2690, Note_on_c, 1, 55, 0
3, 2760, Note_on_c, 1, 55, 100
3, 2810, Note_on_c, 1, 55, 0
3, 2880, Note_on_c, 1, 54, 100
3, 2930, Note_on_c, 1, 54, 0
3, 3000, Note_on_c, 1, 54, 100
3, 3050, Note_on_c, 1, 54, 0
3, 3120, Note_on_c, 1, 54, 100
3, 3170, Note_on_c, 1, 54, 0
3, 3240, Note_on_c, 1, 53, 100
3, 3290, Note_on_c, 1, 53, 0
3, 3360, Note_on_c, 1, 53, 100
3, 3410, Note_on_c, 1, 53, 0
3, 3480, Note_on_c, 1, 53, 100
3, 3530, Note_on_c, 1, 53, 0
3, 3600, Note_on_c, 1, 52, 100
3, 3650, Note_on_c, 1, 52, 0
3, 3720, Note_on_c, 1, 52, 100
3, 3770, Note_on_c, 1, 52, 0
3, 3840, Note_on_c, 1, 52, 100
3, 3890, Note_on_c, 1, 52, 0
3, 3960, Note_on_c, 1, 50, 100
3, 4010, Note_on_c, 1, 50, 0
3, 4080, Note_on_c, 1, 50, 100
3, 4130, Note_on_c, 1, 50, 0
3, 4200, Note_on_c, 1, 50, 100
3, 4250, Note_on_c, 1, 50, 0
3, 4320, Note_on_c, 1, 52, 100
3, 4370, Note_on_c, 1, 52, 0
3, 4440, Note_on_c, 1, 40, 100
3, 4490, Note_on_c, 1, 40, 0
3, 4560, Poly_aftertouch_c, 1, 40, 0
3, 4680, Poly_aftertouch_c, 1, 40, 0
3, 4920, Note_on_c, 1, 52, 100
3, 5040, Note_on_c, 1, 52, 0
3, 5040, Note_on_c, 1, 57, 100
3, 5130, Note_on_c, 1, 57, 0
3, 5130, Note_on_c, 1, 59, 100
3, 5160, Note_on_c, 1, 59, 0
3, 5160, Note_on_c, 1, 60, 100
3, 5280, Note_on_c, 1, 60, 0
3, 5280, Note_on_c, 1, 59, 100
3, 5400, Note_on_c, 1, 59, 0
3, 5400, Note_on_c, 1, 60, 100
3, 5520, Note_on_c, 1, 60, 0
3, 5520, Note_on_c, 1, 57, 100
3, 5637, Note_on_c, 1, 57, 0
3, 5640, Note_on_c, 1, 64, 100
3, 5880, Note_on_c, 1, 64, 0
3, 5880, Note_on_c, 1, 64, 100
3, 5940, Note_on_c, 1, 64, 0
3, 5940, Note_on_c, 1, 62, 100
3, 6000, Note_on_c, 1, 62, 0
3, 6000, Note_on_c, 1, 60, 100
3, 6060, Note_on_c, 1, 60, 0
3, 6060, Note_on_c, 1, 59, 100
3, 6120, Note_on_c, 1, 59, 0
3, 6120, Note_on_c, 1, 57, 100
3, 6237, Note_on_c, 1, 57, 0
3, 6240, Note_on_c, 1, 57, 100
3, 6290, Note_on_c, 1, 57, 0
3, 6360, Note_on_c, 1, 57, 100
3, 6410, Note_on_c, 1, 57, 0
3, 6480, Note_on_c, 1, 56, 100
3, 6530, Note_on_c, 1, 56, 0
3, 6600, Note_on_c, 1, 56, 100
3, 6650, Note_on_c, 1, 56, 0
3, 6720, Note_on_c, 1, 56, 100
3, 6770, Note_on_c, 1, 56, 0
3, 6840, Note_on_c, 1, 55, 100
3, 6890, Note_on_c, 1, 55, 0
3, 6960, Note_on_c, 1, 55, 100
3, 7010, Note_on_c, 1, 55, 0
3, 7080, Note_on_c, 1, 55, 100
3, 7130, Note_on_c, 1, 55, 0
3, 7200, Note_on_c, 1, 54, 100
3, 7250, Note_on_c, 1, 54, 0
3, 7320, Note_on_c, 1, 54, 100
3, 7370, Note_on_c, 1, 54, 0
3, 7440, Note_on_c, 1, 54, 100
3, 7490, Note_on_c, 1, 54, 0
3, 7560, Note_on_c, 1, 53, 100
3, 7610, Note_on_c, 1, 53, 0
3, 7680, Note_on_c, 1, 53, 100
3, 7730, Note_on_c, 1, 53, 0
3, 7800, Note_on_c, 1, 53, 100
3, 7850, Note_on_c, 1, 53, 0
3, 7920, Note_on_c, 1, 52, 100
3, 7970, Note_on_c, 1, 52, 0
3, 8040, Note_on_c, 1, 52, 100
3, 8090, Note_on_c, 1, 52, 0
3, 8160, Note_on_c, 1, 52, 100
3, 8210, Note_on_c, 1, 52, 0
3, 8280, Note_on_c, 1, 50, 100
3, 8330, Note_on_c, 1, 50, 0
3, 8400, Note_on_c, 1, 50, 100
3, 8450, Note_on_c, 1, 50, 0
3, 8520, Note_on_c, 1, 50, 100
3, 8570, Note_on_c, 1, 50, 0
3, 8640, Note_on_c, 1, 52, 100
3, 8690, Note_on_c, 1, 52, 0
3, 8760, Note_on_c, 1, 40, 100
3, 8810, Note_on_c, 1, 40, 0
3, 8880, Poly_aftertouch_c, 1, 40, 0
3, 9240, Note_on_c, 1, 55, 100
3, 9360, Note_on_c, 1, 55, 0
3, 9360, Note_on_c, 1, 60, 100
3, 9450, Note_on_c, 1, 60, 0
3, 9450, Note_on_c, 1, 62, 100
3, 9480, Note_on_c, 1, 62, 0
3, 9480, Note_on_c, 1, 64, 100
3, 9600, Note_on_c, 1, 64, 0
3, 9600, Note_on_c, 1, 62, 100
3, 9720, Note_on_c, 1, 62, 0
3, 9720, Note_on_c, 1, 64, 100
3, 9840, Note_on_c, 1, 64, 0
3, 9840, Note_on_c, 1, 60, 100
3, 9957, Note_on_c, 1, 60, 0
3, 9960, Note_on_c, 1, 67, 100
3, 10200, Note_on_c, 1, 67, 0
3, 10200, Note_on_c, 1, 67, 100
3, 10260, Note_on_c, 1, 67, 0
3, 10260, Note_on_c, 1, 65, 100
3, 10320, Note_on_c, 1, 65, 0
3, 10320, Note_on_c, 1, 64, 100
3, 10380, Note_on_c, 1, 64, 0
3, 10380, Note_on_c, 1, 62, 100
3, 10440, Note_on_c, 1, 62, 0
3, 10440, Note_on_c, 1, 60, 100
3, 10557, Note_on_c, 1, 60, 0
3, 10560, Note_on_c, 1, 60, 100
3, 10610, Note_on_c, 1, 60, 0
3, 10680, Note_on_c, 1, 60, 100
3, 10730, Note_on_c, 1, 60, 0
3, 10800, Note_on_c, 1, 59, 100
3, 10920, Note_on_c, 1, 59, 0
3, 10920, Note_on_c, 1, 55, 100
3, 11037, Note_on_c, 1, 55, 0
3, 11040, Note_on_c, 1, 60, 100
3, 11160, Note_on_c, 1, 60, 0
3, 11160, Note_on_c, 1, 57, 100
3, 11280, Note_on_c, 1, 57, 0
3, 11280, Note_on_c, 1, 53, 100
3, 11400, Note_on_c, 1, 53, 0
3, 11400, Note_on_c, 1, 55, 100
3, 11520, Note_on_c, 1, 55, 0
3, 11520, Note_on_c, 1, 48, 100
3, 11570, Note_on_c, 1, 48, 0
3, 11640, Note_on_c, 1, 36, 100
3, 11690, Note_on_c, 1, 36, 0
3, 11760, Poly_aftertouch_c, 1, 54, 0
3, 12120, Note_on_c, 1, 45, 100
3, 12239, Note_on_c, 1, 45, 0
3, 12240, Note_on_c, 1, 46, 100
3, 12359, Note_on_c, 1, 46, 0
3, 12360, Note_on_c, 1, 48, 100
3, 12380, Note_on_c, 1, 48, 0
3, 12380, Note_on_c, 1, 47, 100
3, 12400, Note_on_c, 1, 47, 0
3, 12400, Note_on_c, 1, 48, 100
3, 12420, Note_on_c, 1, 48, 0
3, 12420, Note_on_c, 1, 47, 100
3, 12440, Note_on_c, 1, 47, 0
3, 12440, Note_on_c, 1, 45, 100
3, 12460, Note_on_c, 1, 45, 0
3, 12460, Note_on_c, 1, 47, 100
3, 12480, Note_on_c, 1, 47, 0
3, 12480, Note_on_c, 1, 48, 100
3, 12597, Note_on_c, 1, 48, 0
3, 12600, Note_on_c, 1, 47, 100
3, 12719, Note_on_c, 1, 47, 0
3, 12720, Note_on_c, 1, 40, 100
3, 12839, Note_on_c, 1, 40, 0
3, 12840, Note_on_c, 1, 47, 100
3, 12959, Note_on_c, 1, 47, 0
3, 12960, Note_on_c, 1, 48, 100
3, 13079, Note_on_c, 1, 48, 0
3, 13080, Note_on_c, 1, 50, 100
3, 13100, Note_on_c, 1, 50, 0
3, 13100, Note_on_c, 1, 49, 100
3, 13120, Note_on_c, 1, 49, 0
3, 13120, Note_on_c, 1, 50, 100
3, 13140, Note_on_c, 1, 50, 0
3, 13140, Note_on_c, 1, 49, 100
3, 13160, Note_on_c, 1, 49, 0
3, 13160, Note_on_c, 1, 47, 100
3, 13180, Note_on_c, 1, 47, 0
3, 13180, Note_on_c, 1, 49, 100
3, 13200, Note_on_c, 1, 49, 0
3, 13200, Note_on_c, 1, 45, 100
3, 13318, Note_on_c, 1, 45, 0
3, 13320, Note_on_c, 1, 50, 100
3, 13440, Note_on_c, 1, 50, 0
3, 13440, Note_on_c, 1, 52, 100
3, 13560, Note_on_c, 1, 52, 0
3, 13560, Note_on_c, 1, 53, 100
3, 13680, Note_on_c, 1, 53, 0
3, 13680, Note_on_c, 1, 48, 100
3, 13918, Note_on_c, 1, 48, 0
3, 13920, Note_on_c, 1, 53, 100
3, 14040, Note_on_c, 1, 53, 0
3, 14040, Note_on_c, 1, 50, 100
3, 14157, Note_on_c, 1, 50, 0
3, 14160, Note_on_c, 1, 52, 100
3, 14210, Note_on_c, 1, 52, 0
3, 14280, Note_on_c, 1, 40, 100
3, 14330, Note_on_c, 1, 40, 0
3, 14400, Note_on_c, 1, 45, 100
3, 14638, Note_on_c, 1, 45, 0
3, 14640, Poly_aftertouch_c, 1, 45, 0
3, 15000, Note_on_c, 1, 55, 100
3, 15120, Note_on_c, 1, 55, 0
3, 15120, Note_on_c, 1, 60, 100
3, 15210, Note_on_c, 1, 60, 0
3, 15210, Note_on_c, 1, 62, 100
3, 15240, Note_on_c, 1, 62, 0
3, 15240, Note_on_c, 1, 64, 100
3, 15360, Note_on_c, 1, 64, 0
3, 15360, Note_on_c, 1, 62, 100
3, 15480, Note_on_c, 1, 62, 0
3, 15480, Note_on_c, 1, 64, 100
3, 15600, Note_on_c, 1, 64, 0
3, 15600, Note_on_c, 1, 60, 100
3, 15717, Note_on_c, 1, 60, 0
3, 15720, Note_on_c, 1, 67, 100
3, 15960, Note_on_c, 1, 67, 0
3, 15960, Note_on_c, 1, 67, 100
3, 16020, Note_on_c, 1, 67, 0
3, 16020, Note_on_c, 1, 65, 100
3, 16080, Note_on_c, 1, 65, 0
3, 16080, Note_on_c, 1, 64, 100
3, 16140, Note_on_c, 1, 64, 0
3, 16140, Note_on_c, 1, 62, 100
3, 16200, Note_on_c, 1, 62, 0
3, 16200, Note_on_c, 1, 60, 100
3, 16317, Note_on_c, 1, 60, 0
3, 16320, Note_on_c, 1, 60, 100
3, 16370, Note_on_c, 1, 60, 0
3, 16440, Note_on_c, 1, 60, 100
3, 16490, Note_on_c, 1, 60, 0
3, 16560, Note_on_c, 1, 59, 100
3, 16680, Note_on_c, 1, 59, 0
3, 16680, Note_on_c, 1, 55, 100
3, 16797, Note_on_c, 1, 55, 0
3, 16800, Note_on_c, 1, 60, 100
3, 16920, Note_on_c, 1, 60, 0
3, 16920, Note_on_c, 1, 57, 100
3, 17040, Note_on_c, 1, 57, 0
3, 17040, Note_on_c, 1, 53, 100
3, 17160, Note_on_c, 1, 53, 0
3, 17160, Note_on_c, 1, 55, 100
3, 17280, Note_on_c, 1, 55, 0
3, 17280, Note_on_c, 1, 48, 100
3, 17330, Note_on_c, 1, 48, 0
3, 17400, Note_on_c, 1, 36, 100
3, 17450, Note_on_c, 1, 36, 0
3, 17520, Poly_aftertouch_c, 1, 54, 0
3, 17880, Note_on_c, 1, 45, 100
3, 17999, Note_on_c, 1, 45, 0
3, 18000, Note_on_c, 1, 46, 100
3, 18119, Note_on_c, 1, 46, 0
3, 18120, Note_on_c, 1, 48, 100
3, 18140, Note_on_c, 1, 48, 0
3, 18140, Note_on_c, 1, 47, 100
3, 18160, Note_on_c, 1, 47, 0
3, 18160, Note_on_c, 1, 48, 100
3, 18180, Note_on_c, 1, 48, 0
3, 18180, Note_on_c, 1, 47, 100
3, 18200, Note_on_c, 1, 47, 0
3, 18200, Note_on_c, 1, 45, 100
3, 18220, Note_on_c, 1, 45, 0
3, 18220, Note_on_c, 1, 47, 100
3, 18240, Note_on_c, 1, 47, 0
3, 18240, Note_on_c, 1, 48, 100
3, 18357, Note_on_c, 1, 48, 0
3, 18360, Note_on_c, 1, 47, 100
3, 18479, Note_on_c, 1, 47, 0
3, 18480, Note_on_c, 1, 40, 100
3, 18599, Note_on_c, 1, 40, 0
3, 18600, Note_on_c, 1, 47, 100
3, 18719, Note_on_c, 1, 47, 0
3, 18720, Note_on_c, 1, 48, 100
3, 18839, Note_on_c, 1, 48, 0
3, 18840, Note_on_c, 1, 50, 100
3, 18860, Note_on_c, 1, 50, 0
3, 18860, Note_on_c, 1, 49, 100
3, 18880, Note_on_c, 1, 49, 0
3, 18880, Note_on_c, 1, 50, 100
3, 18900, Note_on_c, 1, 50, 0
3, 18900, Note_on_c, 1, 49, 100
3, 18920, Note_on_c, 1, 49, 0
3, 18920, Note_on_c, 1, 47, 100
3, 18940, Note_on_c, 1, 47, 0
3, 18940, Note_on_c, 1, 49, 100
3, 18960, Note_on_c, 1, 49, 0
3, 18960, Note_on_c, 1, 45, 100
3, 19077, Note_on_c, 1, 45, 0
3, 19080, Note_on_c, 1, 50, 100
3, 19200, Note_on_c, 1, 50, 0
3, 19200, Note_on_c, 1, 52, 100
3, 19320, Note_on_c, 1, 52, 0
3, 19320, Note_on_c, 1, 53, 100
3, 19440, Note_on_c, 1, 53, 0
3, 19440, Note_on_c, 1, 48, 100
3, 19678, Note_on_c, 1, 48, 0
3, 19680, Note_on_c, 1, 53, 100
3, 19800, Note_on_c, 1, 53, 0
3, 19800, Note_on_c, 1, 50, 100
3, 19917, Note_on_c, 1, 50, 0
3, 19920, Note_on_c, 1, 52, 100
3, 19970, Note_on_c, 1, 52, 0
3, 20040, Note_on_c, 1, 40, 100
3, 20090, Note_on_c, 1, 40, 0
3, 20160, Note_on_c, 1, 45, 100
3, 20398, Note_on_c, 1, 45, 0
3, 20520, Poly_aftertouch_c, 1, 45, 0
3, 20520, End_track
4, 0, Start_track
4, 0, End_track
0, 0, End_of_file
