0, 0, Header, 1, 21, 240
1, 0, Start_track
1, 0, Time_signature, 2, 1, 24, 8
1, 0, Tempo, 370370
1, 0, Marker_t, "Gavotte 1"
1, 50880, Marker_t, "Gavotte 2"
1, 111672, Tempo, 441176
1, 111876, Tempo, 370370
1, 112320, Marker_t, "Gavotte 1 Repeat"
1, 160656, Tempo, 397351
1, 160896, Tempo, 447761
1, 161112, Tempo, 517241
1, 161184, Tempo, 625000
1, 161280, Tempo, 370370
1, 161316, Tempo, 540541
1, 161724, Tempo, 370370
1, 161724, End_track
2, 0, Start_track
2, 0, Title_t, "Trumpet"
2, 0, Program_c, 0, 56
2, 0, Control_c, 0, 7, 127
2, 474, Note_on_c, 0, 69, 85
2, 566, Note_off_c, 0, 69, 64
2, 720, Note_on_c, 0, 81, 85
2, 778, Note_off_c, 0, 81, 64
2, 830, Note_on_c, 0, 78, 85
2, 881, Note_off_c, 0, 78, 64
2, 965, Note_on_c, 0, 79, 102
2, 1268, Note_off_c, 0, 79, 64
2, 1435, Note_on_c, 0, 69, 98
2, 1521, Note_off_c, 0, 69, 64
2, 1680, Note_on_c, 0, 79, 91
2, 1736, Note_off_c, 0, 79, 64
2, 1790, Note_on_c, 0, 76, 85
2, 1838, Note_off_c, 0, 76, 64
2, 1921, Note_on_c, 0, 78, 100
2, 2218, Note_off_c, 0, 78, 64
2, 4319, Note_on_c, 0, 69, 98
2, 4423, Note_off_c, 0, 69, 64
2, 4551, Note_on_c, 0, 81, 89
2, 4614, Note_off_c, 0, 81, 64
2, 4659, Note_on_c, 0, 78, 80
2, 4709, Note_off_c, 0, 78, 64
2, 4779, Note_on_c, 0, 79, 98
2, 5073, Note_off_c, 0, 79, 64
2, 5283, Note_on_c, 0, 69, 85
2, 5366, Note_off_c, 0, 69, 64
2, 5507, Note_on_c, 0, 79, 85
2, 5564, Note_off_c, 0, 79, 64
2, 5620, Note_on_c, 0, 76, 82
2, 5669, Note_off_c, 0, 76, 64
2, 5748, Note_on_c, 0, 78, 91
2, 6039, Note_off_c, 0, 78, 64
2, 10087, Note_on_c, 0, 69, 107
2, 10216, Note_off_c, 0, 69, 64
2, 10308, Note_on_c, 0, 81, 89
2, 10364, Note_off_c, 0, 81, 64
2, 10428, Note_on_c, 0, 78, 98
2, 10475, Note_off_c, 0, 78, 64
2, 10568, Note_on_c, 0, 78, 105
2, 10664, Note_off_c, 0, 78, 64
2, 10671, Note_on_c, 0, 79, 82
2, 10859, Note_off_c, 0, 79, 64
2, 11055, Note_on_c, 0, 69, 107
2, 11183, Note_off_c, 0, 69, 64
2, 11282, Note_on_c, 0, 79, 100
2, 11336, Note_off_c, 0, 79, 64
2, 11388, Note_on_c, 0, 76, 91
2, 11435, Note_off_c, 0, 76, 64
2, 11531, Note_on_c, 0, 76, 105
2, 11638, Note_on_c, 0, 78, 72
2, 11643, Note_off_c, 0, 76, 64
2, 11834, Note_off_c, 0, 78, 64
2, 13924, Note_on_c, 0, 69, 116
2, 14052, Note_off_c, 0, 69, 64
2, 14144, Note_on_c, 0, 81, 93
2, 14199, Note_off_c, 0, 81, 64
2, 14268, Note_on_c, 0, 78, 98
2, 14318, Note_off_c, 0, 78, 64
2, 14396, Note_on_c, 0, 78, 105
2, 14504, Note_off_c, 0, 78, 64
2, 14505, Note_on_c, 0, 79, 82
2, 14664, Note_off_c, 0, 79, 64
2, 14882, Note_on_c, 0, 69, 102
2, 15006, Note_off_c, 0, 69, 64
2, 15110, Note_on_c, 0, 79, 93
2, 15168, Note_off_c, 0, 79, 64
2, 15224, Note_on_c, 0, 76, 98
2, 15276, Note_off_c, 0, 76, 64
2, 15369, Note_on_c, 0, 76, 105
2, 15474, Note_on_c, 0, 78, 80
2, 15483, Note_off_c, 0, 76, 64
2, 15675, Note_off_c, 0, 78, 64
2, 50408, Note_on_c, 0, 74, 93
2, 50580, Note_off_c, 0, 74, 64
2, 50636, Note_on_c, 0, 74, 87
2, 50750, Note_off_c, 0, 74, 64
2, 50885, Note_on_c, 0, 66, 105
2, 51043, Note_off_c, 0, 66, 64
2, 51122, Note_on_c, 0, 66, 107
2, 51241, Note_off_c, 0, 66, 64
2, 51351, Note_on_c, 0, 69, 100
2, 51530, Note_off_c, 0, 69, 64
2, 51585, Note_on_c, 0, 69, 95
2, 51678, Note_off_c, 0, 69, 64
2, 51833, Note_on_c, 0, 62, 116
2, 52164, Note_off_c, 0, 62, 64
2, 54239, Note_on_c, 0, 74, 100
2, 54407, Note_off_c, 0, 74, 64
2, 54461, Note_on_c, 0, 74, 93
2, 54596, Note_off_c, 0, 74, 64
2, 54699, Note_on_c, 0, 66, 91
2, 54872, Note_off_c, 0, 66, 64
2, 54942, Note_on_c, 0, 66, 98
2, 55070, Note_off_c, 0, 66, 64
2, 55181, Note_on_c, 0, 69, 100
2, 55352, Note_off_c, 0, 69, 64
2, 55419, Note_on_c, 0, 69, 93
2, 55507, Note_off_c, 0, 69, 64
2, 55667, Note_on_c, 0, 62, 107
2, 55971, Note_off_c, 0, 62, 64
2, 59984, Note_on_c, 0, 74, 98
2, 60218, Note_off_c, 0, 74, 64
2, 60327, Note_on_c, 0, 69, 82
2, 60392, Note_off_c, 0, 69, 64
2, 60464, Note_on_c, 0, 74, 95
2, 60723, Note_off_c, 0, 74, 64
2, 60810, Note_on_c, 0, 76, 82
2, 60869, Note_off_c, 0, 76, 64
2, 60945, Note_on_c, 0, 74, 100
2, 61010, Note_off_c, 0, 74, 64
2, 61065, Note_on_c, 0, 76, 82
2, 61121, Note_off_c, 0, 76, 64
2, 61184, Note_on_c, 0, 74, 102
2, 61244, Note_off_c, 0, 74, 64
2, 61308, Note_on_c, 0, 76, 93
2, 61368, Note_off_c, 0, 76, 64
2, 61434, Note_on_c, 0, 74, 107
2, 61908, Note_off_c, 0, 74, 64
2, 63809, Note_on_c, 0, 76, 107
2, 63998, Note_off_c, 0, 76, 64
2, 64034, Note_on_c, 0, 76, 82
2, 64181, Note_off_c, 0, 76, 64
2, 64284, Note_on_c, 0, 81, 93
2, 64475, Note_off_c, 0, 81, 64
2, 64509, Note_on_c, 0, 81, 82
2, 64653, Note_off_c, 0, 81, 64
2, 64766, Note_on_c, 0, 76, 95
2, 64975, Note_off_c, 0, 76, 64
2, 65006, Note_on_c, 0, 76, 82
2, 65114, Note_off_c, 0, 76, 64
2, 65260, Note_on_c, 0, 69, 100
2, 65534, Note_off_c, 0, 69, 64
2, 65756, Note_on_c, 0, 74, 102
2, 65929, Note_off_c, 0, 74, 64
2, 65981, Note_on_c, 0, 74, 87
2, 66096, Note_off_c, 0, 74, 64
2, 66232, Note_on_c, 0, 66, 98
2, 66415, Note_off_c, 0, 66, 64
2, 66473, Note_on_c, 0, 66, 95
2, 66602, Note_off_c, 0, 66, 64
2, 66708, Note_on_c, 0, 69, 98
2, 66914, Note_off_c, 0, 69, 64
2, 66942, Note_on_c, 0, 69, 85
2, 67041, Note_off_c, 0, 69, 64
2, 67203, Note_on_c, 0, 62, 107
2, 67527, Note_off_c, 0, 62, 64
2, 69592, Note_on_c, 0, 74, 98
2, 69781, Note_off_c, 0, 74, 64
2, 69822, Note_on_c, 0, 74, 87
2, 69961, Note_off_c, 0, 74, 64
2, 70060, Note_on_c, 0, 66, 85
2, 70249, Note_off_c, 0, 66, 64
2, 70292, Note_on_c, 0, 66, 78
2, 70442, Note_off_c, 0, 66, 64
2, 70541, Note_on_c, 0, 69, 89
2, 70740, Note_off_c, 0, 69, 64
2, 70773, Note_on_c, 0, 69, 82
2, 70883, Note_off_c, 0, 69, 64
2, 71028, Note_on_c, 0, 62, 100
2, 71375, Note_off_c, 0, 62, 64
2, 75354, Note_on_c, 0, 74, 105
2, 75577, Note_off_c, 0, 74, 64
2, 75700, Note_on_c, 0, 69, 91
2, 75762, Note_off_c, 0, 69, 64
2, 75833, Note_on_c, 0, 74, 100
2, 76097, Note_off_c, 0, 74, 64
2, 76196, Note_on_c, 0, 76, 98
2, 76256, Note_off_c, 0, 76, 64
2, 76311, Note_on_c, 0, 74, 100
2, 76373, Note_off_c, 0, 74, 64
2, 76425, Note_on_c, 0, 76, 100
2, 76486, Note_off_c, 0, 76, 64
2, 76544, Note_on_c, 0, 74, 95
2, 76608, Note_off_c, 0, 74, 64
2, 76657, Note_on_c, 0, 76, 102
2, 76716, Note_off_c, 0, 76, 64
2, 76772, Note_on_c, 0, 76, 100
2, 76837, Note_on_c, 0, 74, 98
2, 76839, Note_off_c, 0, 76, 64
2, 76877, Note_on_c, 0, 76, 76
2, 76887, Note_off_c, 0, 74, 64
2, 76931, Note_on_c, 0, 74, 93
2, 76943, Note_off_c, 0, 76, 64
2, 77271, Note_off_c, 0, 74, 64
2, 79190, Note_on_c, 0, 76, 107
2, 79385, Note_off_c, 0, 76, 64
2, 79411, Note_on_c, 0, 76, 87
2, 79553, Note_off_c, 0, 76, 64
2, 79663, Note_on_c, 0, 81, 102
2, 79841, Note_off_c, 0, 81, 64
2, 79890, Note_on_c, 0, 81, 93
2, 80027, Note_off_c, 0, 81, 64
2, 80131, Note_on_c, 0, 76, 95
2, 80333, Note_off_c, 0, 76, 64
2, 80379, Note_on_c, 0, 76, 87
2, 80480, Note_off_c, 0, 76, 64
2, 80630, Note_on_c, 0, 69, 105
2, 80982, Note_off_c, 0, 69, 64
2, 111834, Note_on_c, 0, 69, 85
2, 111926, Note_off_c, 0, 69, 64
2, 112080, Note_on_c, 0, 81, 85
2, 112138, Note_off_c, 0, 81, 64
2, 112190, Note_on_c, 0, 78, 85
2, 112241, Note_off_c, 0, 78, 64
2, 112325, Note_on_c, 0, 79, 102
2, 112628, Note_off_c, 0, 79, 64
2, 112795, Note_on_c, 0, 69, 98
2, 112881, Note_off_c, 0, 69, 64
2, 113040, Note_on_c, 0, 79, 91
2, 113096, Note_off_c, 0, 79, 64
2, 113150, Note_on_c, 0, 76, 85
2, 113198, Note_off_c, 0, 76, 64
2, 113281, Note_on_c, 0, 78, 100
2, 113578, Note_off_c, 0, 78, 64
2, 115679, Note_on_c, 0, 69, 98
2, 115783, Note_off_c, 0, 69, 64
2, 115911, Note_on_c, 0, 81, 89
2, 115974, Note_off_c, 0, 81, 64
2, 116019, Note_on_c, 0, 78, 80
2, 116069, Note_off_c, 0, 78, 64
2, 116139, Note_on_c, 0, 79, 98
2, 116433, Note_off_c, 0, 79, 64
2, 116643, Note_on_c, 0, 69, 85
2, 116726, Note_off_c, 0, 69, 64
2, 116867, Note_on_c, 0, 79, 85
2, 116924, Note_off_c, 0, 79, 64
2, 116980, Note_on_c, 0, 76, 82
2, 117029, Note_off_c, 0, 76, 64
2, 117108, Note_on_c, 0, 78, 91
2, 117399, Note_off_c, 0, 78, 64
2, 121447, Note_on_c, 0, 69, 107
2, 121576, Note_off_c, 0, 69, 64
2, 121668, Note_on_c, 0, 81, 89
2, 121724, Note_off_c, 0, 81, 64
2, 121788, Note_on_c, 0, 78, 98
2, 121835, Note_off_c, 0, 78, 64
2, 121928, Note_on_c, 0, 78, 105
2, 122024, Note_off_c, 0, 78, 64
2, 122031, Note_on_c, 0, 79, 82
2, 122219, Note_off_c, 0, 79, 64
2, 122415, Note_on_c, 0, 69, 107
2, 122543, Note_off_c, 0, 69, 64
2, 122642, Note_on_c, 0, 79, 100
2, 122696, Note_off_c, 0, 79, 64
2, 122748, Note_on_c, 0, 76, 91
2, 122795, Note_off_c, 0, 76, 64
2, 122891, Note_on_c, 0, 76, 105
2, 122998, Note_on_c, 0, 78, 72
2, 123003, Note_off_c, 0, 76, 64
2, 123194, Note_off_c, 0, 78, 64
2, 125284, Note_on_c, 0, 69, 116
2, 125412, Note_off_c, 0, 69, 64
2, 125504, Note_on_c, 0, 81, 93
2, 125559, Note_off_c, 0, 81, 64
2, 125628, Note_on_c, 0, 78, 98
2, 125678, Note_off_c, 0, 78, 64
2, 125756, Note_on_c, 0, 78, 105
2, 125864, Note_off_c, 0, 78, 64
2, 125865, Note_on_c, 0, 79, 82
2, 126024, Note_off_c, 0, 79, 64
2, 126242, Note_on_c, 0, 69, 102
2, 126366, Note_off_c, 0, 69, 64
2, 126470, Note_on_c, 0, 79, 93
2, 126528, Note_off_c, 0, 79, 64
2, 126584, Note_on_c, 0, 76, 98
2, 126636, Note_off_c, 0, 76, 64
2, 126729, Note_on_c, 0, 76, 105
2, 126834, Note_on_c, 0, 78, 80
2, 126843, Note_off_c, 0, 76, 64
2, 127035, Note_off_c, 0, 78, 64
2, 127035, End_track
3, 0, Start_track
3, 0, Title_t, "Trumpet"
3, 0, Program_c, 1, 56
3, 0, Control_c, 1, 7, 127
3, 485, Note_on_c, 1, 66, 95
3, 575, Note_off_c, 1, 66, 64
3, 710, Note_on_c, 1, 78, 87
3, 762, Note_off_c, 1, 78, 64
3, 810, Note_on_c, 1, 74, 85
3, 856, Note_off_c, 1, 74, 64
3, 951, Note_on_c, 1, 76, 98
3, 1223, Note_off_c, 1, 76, 64
3, 1433, Note_on_c, 1, 69, 87
3, 1539, Note_off_c, 1, 69, 64
3, 1682, Note_on_c, 1, 76, 107
3, 1734, Note_off_c, 1, 76, 64
3, 1786, Note_on_c, 1, 69, 87
3, 1845, Note_off_c, 1, 69, 64
3, 1925, Note_on_c, 1, 69, 113
3, 2177, Note_off_c, 1, 69, 64
3, 4310, Note_on_c, 1, 66, 95
3, 4446, Note_off_c, 1, 66, 64
3, 4549, Note_on_c, 1, 78, 80
3, 4594, Note_off_c, 1, 78, 64
3, 4661, Note_on_c, 1, 74, 80
3, 4704, Note_off_c, 1, 74, 64
3, 4797, Note_on_c, 1, 76, 105
3, 5055, Note_off_c, 1, 76, 64
3, 5276, Note_on_c, 1, 69, 95
3, 5420, Note_off_c, 1, 69, 64
3, 5532, Note_on_c, 1, 76, 91
3, 5584, Note_off_c, 1, 76, 64
3, 5627, Note_on_c, 1, 69, 91
3, 5681, Note_off_c, 1, 69, 64
3, 5755, Note_on_c, 1, 69, 102
3, 6029, Note_off_c, 1, 69, 64
3, 10115, Note_on_c, 1, 66, 105
3, 10241, Note_off_c, 1, 66, 64
3, 10322, Note_on_c, 1, 78, 89
3, 10373, Note_off_c, 1, 78, 64
3, 10430, Note_on_c, 1, 74, 89
3, 10479, Note_off_c, 1, 74, 64
3, 10562, Note_on_c, 1, 74, 95
3, 10655, Note_off_c, 1, 74, 64
3, 10666, Note_on_c, 1, 76, 82
3, 10886, Note_off_c, 1, 76, 64
3, 11043, Note_on_c, 1, 69, 91
3, 11192, Note_off_c, 1, 69, 64
3, 11280, Note_on_c, 1, 76, 102
3, 11328, Note_off_c, 1, 76, 64
3, 11386, Note_on_c, 1, 69, 102
3, 11435, Note_off_c, 1, 69, 64
3, 11519, Note_on_c, 1, 69, 116
3, 11766, Note_off_c, 1, 69, 64
3, 13935, Note_on_c, 1, 66, 113
3, 14081, Note_off_c, 1, 66, 64
3, 14145, Note_on_c, 1, 78, 87
3, 14201, Note_off_c, 1, 78, 64
3, 14257, Note_on_c, 1, 74, 95
3, 14309, Note_off_c, 1, 74, 64
3, 14388, Note_on_c, 1, 74, 100
3, 14496, Note_off_c, 1, 74, 64
3, 14502, Note_on_c, 1, 76, 82
3, 14694, Note_off_c, 1, 76, 64
3, 14869, Note_on_c, 1, 69, 102
3, 15035, Note_off_c, 1, 69, 64
3, 15107, Note_on_c, 1, 76, 100
3, 15155, Note_off_c, 1, 76, 64
3, 15209, Note_on_c, 1, 69, 110
3, 15265, Note_off_c, 1, 69, 64
3, 15353, Note_on_c, 1, 69, 113
3, 15596, Note_off_c, 1, 69, 64
3, 50406, Note_on_c, 1, 74, 102
3, 50592, Note_off_c, 1, 74, 64
3, 50637, Note_on_c, 1, 74, 89
3, 50779, Note_off_c, 1, 74, 64
3, 50891, Note_on_c, 1, 66, 87
3, 51051, Note_off_c, 1, 66, 64
3, 51119, Note_on_c, 1, 66, 85
3, 51240, Note_off_c, 1, 66, 64
3, 51359, Note_on_c, 1, 69, 93
3, 51546, Note_off_c, 1, 69, 64
3, 51585, Note_on_c, 1, 69, 80
3, 51702, Note_off_c, 1, 69, 64
3, 51837, Note_on_c, 1, 62, 100
3, 52271, Note_off_c, 1, 62, 64
3, 54230, Note_on_c, 1, 74, 91
3, 54426, Note_off_c, 1, 74, 64
3, 54460, Note_on_c, 1, 74, 87
3, 54593, Note_off_c, 1, 74, 64
3, 54710, Note_on_c, 1, 66, 87
3, 54885, Note_off_c, 1, 66, 64
3, 54946, Note_on_c, 1, 66, 87
3, 55074, Note_off_c, 1, 66, 64
3, 55182, Note_on_c, 1, 69, 85
3, 55365, Note_off_c, 1, 69, 64
3, 55421, Note_on_c, 1, 69, 82
3, 55520, Note_off_c, 1, 69, 64
3, 55667, Note_on_c, 1, 62, 100
3, 56145, Note_off_c, 1, 62, 64
3, 63797, Note_on_c, 1, 76, 105
3, 64004, Note_off_c, 1, 76, 64
3, 64038, Note_on_c, 1, 76, 82
3, 64182, Note_off_c, 1, 76, 64
3, 64284, Note_on_c, 1, 81, 95
3, 64478, Note_off_c, 1, 81, 64
3, 64520, Note_on_c, 1, 81, 91
3, 64659, Note_off_c, 1, 81, 64
3, 64760, Note_on_c, 1, 76, 87
3, 64961, Note_off_c, 1, 76, 64
3, 65004, Note_on_c, 1, 76, 80
3, 65125, Note_off_c, 1, 76, 64
3, 65262, Note_on_c, 1, 69, 98
3, 65589, Note_off_c, 1, 69, 64
3, 65775, Note_on_c, 1, 74, 102
3, 65960, Note_off_c, 1, 74, 64
3, 66003, Note_on_c, 1, 74, 95
3, 66129, Note_off_c, 1, 74, 64
3, 66241, Note_on_c, 1, 66, 91
3, 66421, Note_off_c, 1, 66, 64
3, 66479, Note_on_c, 1, 66, 85
3, 66610, Note_off_c, 1, 66, 64
3, 66725, Note_on_c, 1, 69, 87
3, 66909, Note_off_c, 1, 69, 64
3, 66948, Note_on_c, 1, 69, 80
3, 67049, Note_off_c, 1, 69, 64
3, 67200, Note_on_c, 1, 62, 102
3, 67685, Note_off_c, 1, 62, 64
3, 69596, Note_on_c, 1, 74, 102
3, 69787, Note_off_c, 1, 74, 64
3, 69821, Note_on_c, 1, 74, 95
3, 69961, Note_off_c, 1, 74, 64
3, 70064, Note_on_c, 1, 66, 87
3, 70243, Note_off_c, 1, 66, 64
3, 70298, Note_on_c, 1, 66, 85
3, 70435, Note_off_c, 1, 66, 64
3, 70538, Note_on_c, 1, 69, 89
3, 70725, Note_off_c, 1, 69, 64
3, 70772, Note_on_c, 1, 69, 80
3, 70872, Note_off_c, 1, 69, 64
3, 71025, Note_on_c, 1, 62, 98
3, 71387, Note_off_c, 1, 62, 64
3, 79181, Note_on_c, 1, 76, 107
3, 79385, Note_off_c, 1, 76, 64
3, 79419, Note_on_c, 1, 76, 89
3, 79588, Note_off_c, 1, 76, 64
3, 79670, Note_on_c, 1, 81, 100
3, 79847, Note_off_c, 1, 81, 64
3, 79901, Note_on_c, 1, 81, 89
3, 80043, Note_off_c, 1, 81, 64
3, 80141, Note_on_c, 1, 76, 91
3, 80342, Note_off_c, 1, 76, 64
3, 80385, Note_on_c, 1, 76, 85
3, 80492, Note_off_c, 1, 76, 64
3, 80627, Note_on_c, 1, 69, 100
3, 80955, Note_off_c, 1, 69, 64
3, 111845, Note_on_c, 1, 66, 95
3, 111935, Note_off_c, 1, 66, 64
3, 112070, Note_on_c, 1, 78, 87
3, 112122, Note_off_c, 1, 78, 64
3, 112170, Note_on_c, 1, 74, 85
3, 112216, Note_off_c, 1, 74, 64
3, 112311, Note_on_c, 1, 76, 98
3, 112583, Note_off_c, 1, 76, 64
3, 112793, Note_on_c, 1, 69, 87
3, 112899, Note_off_c, 1, 69, 64
3, 113042, Note_on_c, 1, 76, 107
3, 113094, Note_off_c, 1, 76, 64
3, 113146, Note_on_c, 1, 69, 87
3, 113205, Note_off_c, 1, 69, 64
3, 113285, Note_on_c, 1, 69, 113
3, 113537, Note_off_c, 1, 69, 64
3, 115670, Note_on_c, 1, 66, 95
3, 115806, Note_off_c, 1, 66, 64
3, 115909, Note_on_c, 1, 78, 80
3, 115954, Note_off_c, 1, 78, 64
3, 116021, Note_on_c, 1, 74, 80
3, 116064, Note_off_c, 1, 74, 64
3, 116157, Note_on_c, 1, 76, 105
3, 116415, Note_off_c, 1, 76, 64
3, 116636, Note_on_c, 1, 69, 95
3, 116780, Note_off_c, 1, 69, 64
3, 116892, Note_on_c, 1, 76, 91
3, 116944, Note_off_c, 1, 76, 64
3, 116987, Note_on_c, 1, 69, 91
3, 117041, Note_off_c, 1, 69, 64
3, 117115, Note_on_c, 1, 69, 102
3, 117389, Note_off_c, 1, 69, 64
3, 121475, Note_on_c, 1, 66, 105
3, 121601, Note_off_c, 1, 66, 64
3, 121682, Note_on_c, 1, 78, 89
3, 121733, Note_off_c, 1, 78, 64
3, 121790, Note_on_c, 1, 74, 89
3, 121839, Note_off_c, 1, 74, 64
3, 121922, Note_on_c, 1, 74, 95
3, 122015, Note_off_c, 1, 74, 64
3, 122026, Note_on_c, 1, 76, 82
3, 122246, Note_off_c, 1, 76, 64
3, 122403, Note_on_c, 1, 69, 91
3, 122552, Note_off_c, 1, 69, 64
3, 122640, Note_on_c, 1, 76, 102
3, 122688, Note_off_c, 1, 76, 64
3, 122746, Note_on_c, 1, 69, 102
3, 122795, Note_off_c, 1, 69, 64
3, 122879, Note_on_c, 1, 69, 116
3, 123126, Note_off_c, 1, 69, 64
3, 125295, Note_on_c, 1, 66, 113
3, 125441, Note_off_c, 1, 66, 64
3, 125505, Note_on_c, 1, 78, 87
3, 125561, Note_off_c, 1, 78, 64
3, 125617, Note_on_c, 1, 74, 95
3, 125669, Note_off_c, 1, 74, 64
3, 125748, Note_on_c, 1, 74, 100
3, 125856, Note_off_c, 1, 74, 64
3, 125862, Note_on_c, 1, 76, 82
3, 126054, Note_off_c, 1, 76, 64
3, 126229, Note_on_c, 1, 69, 102
3, 126395, Note_off_c, 1, 69, 64
3, 126467, Note_on_c, 1, 76, 100
3, 126515, Note_off_c, 1, 76, 64
3, 126569, Note_on_c, 1, 69, 110
3, 126625, Note_off_c, 1, 69, 64
3, 126713, Note_on_c, 1, 69, 113
3, 126956, Note_off_c, 1, 69, 64
3, 126956, End_track
4, 0, Start_track
4, 0, Title_t, "Trumpet"
4, 0, Program_c, 2, 56
4, 0, Control_c, 2, 7, 127
4, 474, Note_on_c, 2, 62, 105
4, 560, Note_off_c, 2, 62, 64
4, 715, Note_on_c, 2, 62, 105
4, 803, Note_off_c, 2, 62, 64
4, 956, Note_on_c, 2, 69, 113
4, 1257, Note_off_c, 2, 69, 64
4, 1433, Note_on_c, 2, 69, 107
4, 1534, Note_off_c, 2, 69, 64
4, 1669, Note_on_c, 2, 69, 113
4, 1746, Note_off_c, 2, 69, 64
4, 1912, Note_on_c, 2, 62, 110
4, 2186, Note_off_c, 2, 62, 64
4, 4317, Note_on_c, 2, 62, 102
4, 4414, Note_off_c, 2, 62, 64
4, 4567, Note_on_c, 2, 62, 102
4, 4632, Note_off_c, 2, 62, 64
4, 4799, Note_on_c, 2, 69, 95
4, 5062, Note_off_c, 2, 69, 64
4, 5280, Note_on_c, 2, 69, 89
4, 5363, Note_off_c, 2, 69, 64
4, 5514, Note_on_c, 2, 69, 87
4, 5586, Note_off_c, 2, 69, 64
4, 5753, Note_on_c, 2, 62, 107
4, 6020, Note_off_c, 2, 62, 64
4, 10073, Note_on_c, 2, 62, 110
4, 10167, Note_off_c, 2, 62, 64
4, 10314, Note_on_c, 2, 62, 105
4, 10397, Note_off_c, 2, 62, 64
4, 10552, Note_on_c, 2, 69, 119
4, 10829, Note_off_c, 2, 69, 64
4, 11042, Note_on_c, 2, 69, 102
4, 11148, Note_off_c, 2, 69, 64
4, 11283, Note_on_c, 2, 69, 110
4, 11362, Note_off_c, 2, 69, 64
4, 11522, Note_on_c, 2, 62, 113
4, 11772, Note_off_c, 2, 62, 64
4, 13920, Note_on_c, 2, 62, 105
4, 14019, Note_off_c, 2, 62, 64
4, 14157, Note_on_c, 2, 62, 105
4, 14235, Note_off_c, 2, 62, 64
4, 14390, Note_on_c, 2, 69, 116
4, 14672, Note_off_c, 2, 69, 64
4, 14879, Note_on_c, 2, 69, 105
4, 15000, Note_off_c, 2, 69, 64
4, 15113, Note_on_c, 2, 69, 107
4, 15200, Note_off_c, 2, 69, 64
4, 15356, Note_on_c, 2, 62, 110
4, 15615, Note_off_c, 2, 62, 64
4, 50406, Note_on_c, 2, 74, 100
4, 50590, Note_off_c, 2, 74, 64
4, 50637, Note_on_c, 2, 74, 87
4, 50756, Note_off_c, 2, 74, 64
4, 50883, Note_on_c, 2, 66, 87
4, 51058, Note_off_c, 2, 66, 64
4, 51110, Note_on_c, 2, 66, 82
4, 51238, Note_off_c, 2, 66, 64
4, 51351, Note_on_c, 2, 69, 89
4, 51539, Note_off_c, 2, 69, 64
4, 51585, Note_on_c, 2, 69, 85
4, 51684, Note_off_c, 2, 69, 64
4, 51843, Note_on_c, 2, 62, 102
4, 52226, Note_off_c, 2, 62, 64
4, 54237, Note_on_c, 2, 74, 102
4, 54406, Note_off_c, 2, 74, 64
4, 54459, Note_on_c, 2, 74, 87
4, 54590, Note_off_c, 2, 74, 64
4, 54699, Note_on_c, 2, 66, 91
4, 54869, Note_off_c, 2, 66, 64
4, 54944, Note_on_c, 2, 66, 85
4, 55081, Note_off_c, 2, 66, 64
4, 55189, Note_on_c, 2, 69, 91
4, 55374, Note_off_c, 2, 69, 64
4, 55412, Note_on_c, 2, 69, 80
4, 55515, Note_off_c, 2, 69, 64
4, 55664, Note_on_c, 2, 62, 102
4, 56026, Note_off_c, 2, 62, 64
4, 63811, Note_on_c, 2, 76, 105
4, 64016, Note_off_c, 2, 76, 64
4, 64050, Note_on_c, 2, 76, 91
4, 64196, Note_off_c, 2, 76, 64
4, 64301, Note_on_c, 2, 81, 98
4, 64488, Note_off_c, 2, 81, 64
4, 64527, Note_on_c, 2, 81, 91
4, 64671, Note_off_c, 2, 81, 64
4, 64769, Note_on_c, 2, 76, 95
4, 64956, Note_off_c, 2, 76, 64
4, 65014, Note_on_c, 2, 76, 82
4, 65129, Note_off_c, 2, 76, 64
4, 65260, Note_on_c, 2, 69, 98
4, 65584, Note_off_c, 2, 69, 64
4, 65766, Note_on_c, 2, 74, 100
4, 65944, Note_off_c, 2, 74, 64
4, 66008, Note_on_c, 2, 74, 85
4, 66133, Note_off_c, 2, 74, 64
4, 66246, Note_on_c, 2, 66, 93
4, 66437, Note_off_c, 2, 66, 64
4, 66491, Note_on_c, 2, 66, 78
4, 66614, Note_off_c, 2, 66, 64
4, 66738, Note_on_c, 2, 69, 91
4, 66909, Note_off_c, 2, 69, 64
4, 66956, Note_on_c, 2, 69, 87
4, 67062, Note_off_c, 2, 69, 64
4, 67206, Note_on_c, 2, 62, 100
4, 67560, Note_off_c, 2, 62, 64
4, 69599, Note_on_c, 2, 74, 100
4, 69783, Note_off_c, 2, 74, 64
4, 69819, Note_on_c, 2, 74, 87
4, 69944, Note_off_c, 2, 74, 64
4, 70066, Note_on_c, 2, 66, 85
4, 70250, Note_off_c, 2, 66, 64
4, 70304, Note_on_c, 2, 66, 80
4, 70433, Note_off_c, 2, 66, 64
4, 70552, Note_on_c, 2, 69, 85
4, 70728, Note_off_c, 2, 69, 64
4, 70781, Note_on_c, 2, 69, 80
4, 70883, Note_off_c, 2, 69, 64
4, 71031, Note_on_c, 2, 62, 89
4, 71450, Note_off_c, 2, 62, 64
4, 79187, Note_on_c, 2, 76, 105
4, 79386, Note_off_c, 2, 76, 64
4, 79417, Note_on_c, 2, 76, 87
4, 79597, Note_off_c, 2, 76, 64
4, 79671, Note_on_c, 2, 81, 95
4, 79847, Note_off_c, 2, 81, 64
4, 79908, Note_on_c, 2, 81, 87
4, 80043, Note_off_c, 2, 81, 64
4, 80139, Note_on_c, 2, 76, 85
4, 80337, Note_off_c, 2, 76, 64
4, 80384, Note_on_c, 2, 76, 80
4, 80499, Note_off_c, 2, 76, 64
4, 80627, Note_on_c, 2, 69, 100
4, 80960, Note_off_c, 2, 69, 64
4, 111834, Note_on_c, 2, 62, 105
4, 111920, Note_off_c, 2, 62, 64
4, 112075, Note_on_c, 2, 62, 105
4, 112163, Note_off_c, 2, 62, 64
4, 112316, Note_on_c, 2, 69, 113
4, 112617, Note_off_c, 2, 69, 64
4, 112793, Note_on_c, 2, 69, 107
4, 112894, Note_off_c, 2, 69, 64
4, 113029, Note_on_c, 2, 69, 113
4, 113106, Note_off_c, 2, 69, 64
4, 113272, Note_on_c, 2, 62, 110
4, 113546, Note_off_c, 2, 62, 64
4, 115677, Note_on_c, 2, 62, 102
4, 115774, Note_off_c, 2, 62, 64
4, 115927, Note_on_c, 2, 62, 102
4, 115992, Note_off_c, 2, 62, 64
4, 116159, Note_on_c, 2, 69, 95
4, 116422, Note_off_c, 2, 69, 64
4, 116640, Note_on_c, 2, 69, 89
4, 116723, Note_off_c, 2, 69, 64
4, 116874, Note_on_c, 2, 69, 87
4, 116946, Note_off_c, 2, 69, 64
4, 117113, Note_on_c, 2, 62, 107
4, 117380, Note_off_c, 2, 62, 64
4, 121433, Note_on_c, 2, 62, 110
4, 121527, Note_off_c, 2, 62, 64
4, 121674, Note_on_c, 2, 62, 105
4, 121757, Note_off_c, 2, 62, 64
4, 121912, Note_on_c, 2, 69, 119
4, 122189, Note_off_c, 2, 69, 64
4, 122402, Note_on_c, 2, 69, 102
4, 122508, Note_off_c, 2, 69, 64
4, 122643, Note_on_c, 2, 69, 110
4, 122722, Note_off_c, 2, 69, 64
4, 122882, Note_on_c, 2, 62, 113
4, 123132, Note_off_c, 2, 62, 64
4, 125280, Note_on_c, 2, 62, 105
4, 125379, Note_off_c, 2, 62, 64
4, 125517, Note_on_c, 2, 62, 105
4, 125595, Note_off_c, 2, 62, 64
4, 125750, Note_on_c, 2, 69, 116
4, 126032, Note_off_c, 2, 69, 64
4, 126239, Note_on_c, 2, 69, 105
4, 126360, Note_off_c, 2, 69, 64
4, 126473, Note_on_c, 2, 69, 107
4, 126560, Note_off_c, 2, 69, 64
4, 126716, Note_on_c, 2, 62, 110
4, 126975, Note_off_c, 2, 62, 64
4, 126975, End_track
5, 0, Start_track
5, 0, Title_t, "Timpani"
5, 0, Program_c, 3, 47
5, 0, Control_c, 3, 7, 100
5, 486, Note_on_c, 3, 50, 105
5, 560, Note_off_c, 3, 50, 64
5, 717, Note_on_c, 3, 50, 105
5, 787, Note_off_c, 3, 50, 64
5, 960, Note_on_c, 3, 45, 113
5, 1088, Note_off_c, 3, 45, 64
5, 1442, Note_on_c, 3, 45, 116
5, 1532, Note_off_c, 3, 45, 64
5, 1687, Note_on_c, 3, 45, 107
5, 1768, Note_off_c, 3, 45, 64
5, 1923, Note_on_c, 3, 50, 122
5, 2025, Note_off_c, 3, 50, 64
5, 4324, Note_on_c, 3, 50, 102
5, 4409, Note_off_c, 3, 50, 64
5, 4563, Note_on_c, 3, 50, 110
5, 4635, Note_off_c, 3, 50, 64
5, 4805, Note_on_c, 3, 45, 105
5, 4938, Note_off_c, 3, 45, 64
5, 5283, Note_on_c, 3, 45, 100
5, 5377, Note_off_c, 3, 45, 64
5, 5528, Note_on_c, 3, 45, 100
5, 5625, Note_off_c, 3, 45, 64
5, 5757, Note_on_c, 3, 50, 110
5, 5876, Note_off_c, 3, 50, 64
5, 10084, Note_on_c, 3, 50, 110
5, 10169, Note_off_c, 3, 50, 64
5, 10314, Note_on_c, 3, 50, 110
5, 10392, Note_off_c, 3, 50, 64
5, 10561, Note_on_c, 3, 45, 119
5, 10683, Note_off_c, 3, 45, 64
5, 11034, Note_on_c, 3, 45, 113
5, 11135, Note_off_c, 3, 45, 64
5, 11290, Note_on_c, 3, 45, 116
5, 11375, Note_off_c, 3, 45, 64
5, 11531, Note_on_c, 3, 50, 122
5, 11646, Note_off_c, 3, 50, 64
5, 13913, Note_on_c, 3, 50, 105
5, 13997, Note_off_c, 3, 50, 64
5, 14147, Note_on_c, 3, 50, 107
5, 14222, Note_off_c, 3, 50, 64
5, 14391, Note_on_c, 3, 45, 113
5, 14517, Note_off_c, 3, 45, 64
5, 14870, Note_on_c, 3, 45, 122
5, 14955, Note_off_c, 3, 45, 64
5, 15120, Note_on_c, 3, 45, 113
5, 15189, Note_off_c, 3, 45, 64
5, 15353, Note_on_c, 3, 50, 113
5, 15455, Note_off_c, 3, 50, 64
5, 111846, Note_on_c, 3, 50, 105
5, 111920, Note_off_c, 3, 50, 64
5, 112077, Note_on_c, 3, 50, 105
5, 112147, Note_off_c, 3, 50, 64
5, 112320, Note_on_c, 3, 45, 113
5, 112448, Note_off_c, 3, 45, 64
5, 112802, Note_on_c, 3, 45, 116
5, 112892, Note_off_c, 3, 45, 64
5, 113047, Note_on_c, 3, 45, 107
5, 113128, Note_off_c, 3, 45, 64
5, 113283, Note_on_c, 3, 50, 122
5, 113385, Note_off_c, 3, 50, 64
5, 115684, Note_on_c, 3, 50, 102
5, 115769, Note_off_c, 3, 50, 64
5, 115923, Note_on_c, 3, 50, 110
5, 115995, Note_off_c, 3, 50, 64
5, 116165, Note_on_c, 3, 45, 105
5, 116298, Note_off_c, 3, 45, 64
5, 116643, Note_on_c, 3, 45, 100
5, 116737, Note_off_c, 3, 45, 64
5, 116888, Note_on_c, 3, 45, 100
5, 116985, Note_off_c, 3, 45, 64
5, 117117, Note_on_c, 3, 50, 110
5, 117236, Note_off_c, 3, 50, 64
5, 121444, Note_on_c, 3, 50, 110
5, 121529, Note_off_c, 3, 50, 64
5, 121674, Note_on_c, 3, 50, 110
5, 121752, Note_off_c, 3, 50, 64
5, 121921, Note_on_c, 3, 45, 119
5, 122043, Note_off_c, 3, 45, 64
5, 122394, Note_on_c, 3, 45, 113
5, 122495, Note_off_c, 3, 45, 64
5, 122650, Note_on_c, 3, 45, 116
5, 122735, Note_off_c, 3, 45, 64
5, 122891, Note_on_c, 3, 50, 122
5, 123006, Note_off_c, 3, 50, 64
5, 125273, Note_on_c, 3, 50, 105
5, 125357, Note_off_c, 3, 50, 64
5, 125507, Note_on_c, 3, 50, 107
5, 125582, Note_off_c, 3, 50, 64
5, 125751, Note_on_c, 3, 45, 113
5, 125877, Note_off_c, 3, 45, 64
5, 126230, Note_on_c, 3, 45, 122
5, 126315, Note_off_c, 3, 45, 64
5, 126480, Note_on_c, 3, 45, 113
5, 126549, Note_off_c, 3, 45, 64
5, 126713, Note_on_c, 3, 50, 113
5, 126815, Note_off_c, 3, 50, 64
5, 126815, End_track
6, 0, Start_track
6, 0, Title_t, "Oboe"
6, 0, Program_c, 4, 68
6, 0, Control_c, 4, 7, 100
6, 470, Note_on_c, 4, 69, 100
6, 600, Note_off_c, 4, 69, 64
6, 713, Note_on_c, 4, 81, 87
6, 762, Note_off_c, 4, 81, 64
6, 827, Note_on_c, 4, 78, 98
6, 877, Note_off_c, 4, 78, 64
6, 956, Note_on_c, 4, 79, 105
6, 1233, Note_off_c, 4, 79, 64
6, 1440, Note_on_c, 4, 69, 95
6, 1595, Note_off_c, 4, 69, 64
6, 1676, Note_on_c, 4, 79, 87
6, 1730, Note_off_c, 4, 79, 64
6, 1784, Note_on_c, 4, 76, 89
6, 1829, Note_off_c, 4, 76, 64
6, 1921, Note_on_c, 4, 78, 102
6, 2184, Note_off_c, 4, 78, 64
6, 2407, Note_on_c, 4, 69, 98
6, 2580, Note_off_c, 4, 69, 64
6, 2639, Note_on_c, 4, 76, 87
6, 2690, Note_off_c, 4, 76, 64
6, 2749, Note_on_c, 4, 73, 85
6, 2805, Note_off_c, 4, 73, 64
6, 2873, Note_on_c, 4, 74, 100
6, 3057, Note_off_c, 4, 74, 64
6, 3111, Note_on_c, 4, 73, 78
6, 3167, Note_off_c, 4, 73, 64
6, 3213, Note_on_c, 4, 71, 89
6, 3287, Note_off_c, 4, 71, 64
6, 3339, Note_on_c, 4, 69, 85
6, 3402, Note_off_c, 4, 69, 64
6, 3447, Note_on_c, 4, 71, 76
6, 3521, Note_off_c, 4, 71, 64
6, 3588, Note_on_c, 4, 67, 85
6, 3678, Note_off_c, 4, 67, 64
6, 3804, Note_on_c, 4, 67, 80
6, 3858, Note_on_c, 4, 66, 82
6, 3874, Note_off_c, 4, 67, 64
6, 3914, Note_on_c, 4, 67, 68
6, 3919, Note_off_c, 4, 66, 64
6, 3946, Note_on_c, 4, 66, 53
6, 3986, Note_off_c, 4, 67, 64
6, 4023, Note_on_c, 4, 64, 57
6, 4029, Note_off_c, 4, 66, 64
6, 4119, Note_off_c, 4, 64, 64
6, 4139, Note_on_c, 4, 62, 82
6, 4194, Note_off_c, 4, 62, 64
6, 4293, Note_on_c, 4, 69, 102
6, 4455, Note_off_c, 4, 69, 64
6, 4556, Note_on_c, 4, 81, 66
6, 4596, Note_off_c, 4, 81, 64
6, 4664, Note_on_c, 4, 78, 91
6, 4716, Note_off_c, 4, 78, 64
6, 4785, Note_on_c, 4, 79, 100
6, 5040, Note_off_c, 4, 79, 64
6, 5258, Note_on_c, 4, 69, 93
6, 5447, Note_off_c, 4, 69, 64
6, 5521, Note_on_c, 4, 79, 85
6, 5579, Note_off_c, 4, 79, 64
6, 5634, Note_on_c, 4, 76, 87
6, 5679, Note_off_c, 4, 76, 64
6, 5766, Note_on_c, 4, 78, 102
6, 6034, Note_off_c, 4, 78, 64
6, 6246, Note_on_c, 4, 80, 95
6, 6416, Note_off_c, 4, 80, 64
6, 6475, Note_on_c, 4, 83, 80
6, 6522, Note_off_c, 4, 83, 64
6, 6581, Note_on_c, 4, 80, 91
6, 6628, Note_off_c, 4, 80, 64
6, 6705, Note_on_c, 4, 81, 95
6, 6889, Note_off_c, 4, 81, 64
6, 6943, Note_on_c, 4, 80, 76
6, 7000, Note_off_c, 4, 80, 64
6, 7044, Note_on_c, 4, 78, 82
6, 7118, Note_off_c, 4, 78, 64
6, 7173, Note_on_c, 4, 76, 85
6, 7253, Note_off_c, 4, 76, 64
6, 7283, Note_on_c, 4, 78, 63
6, 7353, Note_off_c, 4, 78, 64
6, 7420, Note_on_c, 4, 74, 62
6, 7517, Note_off_c, 4, 74, 64
6, 7652, Note_on_c, 4, 73, 80
6, 7845, Note_off_c, 4, 73, 64
6, 7883, Note_on_c, 4, 78, 85
6, 7951, Note_off_c, 4, 78, 64
6, 7994, Note_on_c, 4, 74, 80
6, 8055, Note_off_c, 4, 74, 64
6, 8129, Note_on_c, 4, 76, 91
6, 8302, Note_off_c, 4, 76, 64
6, 8374, Note_on_c, 4, 74, 66
6, 8442, Note_off_c, 4, 74, 64
6, 8482, Note_on_c, 4, 73, 78
6, 8547, Note_off_c, 4, 73, 64
6, 8600, Note_on_c, 4, 71, 82
6, 8666, Note_off_c, 4, 71, 64
6, 8711, Note_on_c, 4, 73, 63
6, 8770, Note_off_c, 4, 73, 64
6, 8837, Note_on_c, 4, 69, 74
6, 8909, Note_off_c, 4, 69, 64
6, 9089, Note_on_c, 4, 64, 85
6, 9167, Note_off_c, 4, 64, 64
6, 9337, Note_on_c, 4, 68, 80
6, 9411, Note_off_c, 4, 68, 64
6, 9593, Note_on_c, 4, 69, 85
6, 9848, Note_off_c, 4, 69, 64
6, 10084, Note_on_c, 4, 69, 100
6, 10242, Note_off_c, 4, 69, 64
6, 10318, Note_on_c, 4, 81, 87
6, 10368, Note_off_c, 4, 81, 64
6, 10433, Note_on_c, 4, 78, 93
6, 10484, Note_off_c, 4, 78, 64
6, 10560, Note_on_c, 4, 78, 113
6, 10665, Note_on_c, 4, 79, 89
6, 10671, Note_off_c, 4, 78, 64
6, 10833, Note_off_c, 4, 79, 64
6, 11043, Note_on_c, 4, 69, 102
6, 11171, Note_off_c, 4, 69, 64
6, 11272, Note_on_c, 4, 79, 87
6, 11328, Note_off_c, 4, 79, 64
6, 11387, Note_on_c, 4, 76, 95
6, 11439, Note_off_c, 4, 76, 64
6, 11519, Note_on_c, 4, 76, 105
6, 11639, Note_on_c, 4, 78, 82
6, 11645, Note_off_c, 4, 76, 64
6, 11808, Note_off_c, 4, 78, 64
6, 12024, Note_on_c, 4, 69, 95
6, 12181, Note_off_c, 4, 69, 64
6, 12244, Note_on_c, 4, 76, 82
6, 12293, Note_off_c, 4, 76, 64
6, 12350, Note_on_c, 4, 73, 78
6, 12415, Note_off_c, 4, 73, 64
6, 12478, Note_on_c, 4, 74, 85
6, 12662, Note_off_c, 4, 74, 64
6, 12712, Note_on_c, 4, 73, 70
6, 12784, Note_off_c, 4, 73, 64
6, 12815, Note_on_c, 4, 71, 74
6, 12890, Note_off_c, 4, 71, 64
6, 12941, Note_on_c, 4, 69, 74
6, 13038, Note_off_c, 4, 69, 64
6, 13045, Note_on_c, 4, 71, 66
6, 13142, Note_off_c, 4, 71, 64
6, 13187, Note_on_c, 4, 67, 80
6, 13290, Note_off_c, 4, 67, 64
6, 13416, Note_on_c, 4, 67, 82
6, 13470, Note_on_c, 4, 66, 85
6, 13488, Note_off_c, 4, 67, 64
6, 13518, Note_off_c, 4, 66, 64
6, 13544, Note_on_c, 4, 67, 61
6, 13559, Note_on_c, 4, 66, 63
6, 13601, Note_off_c, 4, 67, 64
6, 13641, Note_on_c, 4, 64, 57
6, 13652, Note_off_c, 4, 66, 64
6, 13733, Note_off_c, 4, 64, 64
6, 13778, Note_on_c, 4, 62, 82
6, 13832, Note_off_c, 4, 62, 64
6, 13918, Note_on_c, 4, 69, 107
6, 14089, Note_off_c, 4, 69, 64
6, 14150, Note_on_c, 4, 81, 85
6, 14204, Note_off_c, 4, 81, 64
6, 14262, Note_on_c, 4, 78, 100
6, 14323, Note_off_c, 4, 78, 64
6, 14386, Note_on_c, 4, 78, 110
6, 14501, Note_on_c, 4, 79, 91
6, 14523, Note_off_c, 4, 78, 64
6, 14694, Note_off_c, 4, 79, 64
6, 14858, Note_on_c, 4, 69, 100
6, 15000, Note_off_c, 4, 69, 64
6, 15101, Note_on_c, 4, 79, 87
6, 15155, Note_off_c, 4, 79, 64
6, 15223, Note_on_c, 4, 76, 85
6, 15268, Note_off_c, 4, 76, 64
6, 15349, Note_on_c, 4, 76, 100
6, 15462, Note_on_c, 4, 78, 72
6, 15480, Note_off_c, 4, 76, 64
6, 15630, Note_off_c, 4, 78, 64
6, 15848, Note_on_c, 4, 80, 95
6, 16013, Note_off_c, 4, 80, 64
6, 16078, Note_on_c, 4, 83, 85
6, 16132, Note_off_c, 4, 83, 64
6, 16193, Note_on_c, 4, 80, 82
6, 16253, Note_off_c, 4, 80, 64
6, 16323, Note_on_c, 4, 81, 89
6, 16501, Note_off_c, 4, 81, 64
6, 16559, Note_on_c, 4, 80, 66
6, 16623, Note_off_c, 4, 80, 64
6, 16663, Note_on_c, 4, 78, 66
6, 16735, Note_off_c, 4, 78, 64
6, 16791, Note_on_c, 4, 76, 87
6, 16865, Note_off_c, 4, 76, 64
6, 16901, Note_on_c, 4, 78, 78
6, 16969, Note_off_c, 4, 78, 64
6, 17028, Note_on_c, 4, 74, 82
6, 17135, Note_off_c, 4, 74, 64
6, 17271, Note_on_c, 4, 73, 87
6, 17457, Note_off_c, 4, 73, 64
6, 17498, Note_on_c, 4, 78, 72
6, 17570, Note_off_c, 4, 78, 64
6, 17621, Note_on_c, 4, 74, 74
6, 17675, Note_off_c, 4, 74, 64
6, 17748, Note_on_c, 4, 76, 89
6, 17921, Note_off_c, 4, 76, 64
6, 17986, Note_on_c, 4, 74, 68
6, 18045, Note_off_c, 4, 74, 64
6, 18096, Note_on_c, 4, 73, 80
6, 18157, Note_off_c, 4, 73, 64
6, 18213, Note_on_c, 4, 71, 82
6, 18317, Note_off_c, 4, 71, 64
6, 18328, Note_on_c, 4, 73, 68
6, 18396, Note_off_c, 4, 73, 64
6, 18450, Note_on_c, 4, 69, 87
6, 18533, Note_off_c, 4, 69, 64
6, 18699, Note_on_c, 4, 64, 85
6, 18783, Note_off_c, 4, 64, 64
6, 18951, Note_on_c, 4, 68, 85
6, 19026, Note_off_c, 4, 68, 64
6, 19192, Note_on_c, 4, 69, 87
6, 19433, Note_off_c, 4, 69, 64
6, 50392, Note_on_c, 4, 74, 98
6, 50495, Note_on_c, 4, 73, 72
6, 50513, Note_off_c, 4, 74, 64
6, 50604, Note_off_c, 4, 73, 64
6, 50619, Note_on_c, 4, 74, 78
6, 50703, Note_off_c, 4, 74, 64
6, 50856, Note_on_c, 4, 66, 98
6, 50963, Note_on_c, 4, 64, 85
6, 50970, Note_off_c, 4, 66, 64
6, 51089, Note_on_c, 4, 66, 66
6, 51098, Note_off_c, 4, 64, 64
6, 51204, Note_off_c, 4, 66, 64
6, 51342, Note_on_c, 4, 69, 102
6, 51441, Note_on_c, 4, 67, 98
6, 51459, Note_off_c, 4, 69, 64
6, 51548, Note_off_c, 4, 67, 64
6, 51567, Note_on_c, 4, 69, 80
6, 51668, Note_off_c, 4, 69, 64
6, 51809, Note_on_c, 4, 62, 82
6, 52077, Note_off_c, 4, 62, 64
6, 52295, Note_on_c, 4, 74, 85
6, 52388, Note_off_c, 4, 74, 64
6, 52403, Note_on_c, 4, 76, 85
6, 52480, Note_off_c, 4, 76, 64
6, 52525, Note_on_c, 4, 78, 78
6, 52601, Note_off_c, 4, 78, 64
6, 52638, Note_on_c, 4, 74, 72
6, 52719, Note_off_c, 4, 74, 64
6, 52768, Note_on_c, 4, 76, 76
6, 52856, Note_off_c, 4, 76, 64
6, 53018, Note_on_c, 4, 76, 68
6, 53103, Note_off_c, 4, 76, 64
6, 53267, Note_on_c, 4, 76, 80
6, 53337, Note_off_c, 4, 76, 64
6, 53371, Note_on_c, 4, 78, 80
6, 53448, Note_off_c, 4, 78, 64
6, 53483, Note_on_c, 4, 79, 70
6, 53553, Note_off_c, 4, 79, 64
6, 53596, Note_on_c, 4, 76, 80
6, 53664, Note_off_c, 4, 76, 64
6, 53742, Note_on_c, 4, 78, 95
6, 53841, Note_off_c, 4, 78, 64
6, 53969, Note_on_c, 4, 74, 63
6, 54064, Note_off_c, 4, 74, 64
6, 54235, Note_on_c, 4, 74, 102
6, 54334, Note_on_c, 4, 73, 98
6, 54352, Note_off_c, 4, 74, 64
6, 54428, Note_off_c, 4, 73, 64
6, 54455, Note_on_c, 4, 74, 68
6, 54541, Note_off_c, 4, 74, 64
6, 54705, Note_on_c, 4, 66, 98
6, 54802, Note_on_c, 4, 64, 82
6, 54811, Note_off_c, 4, 66, 64
6, 54914, Note_off_c, 4, 64, 64
6, 54937, Note_on_c, 4, 66, 60
6, 55047, Note_off_c, 4, 66, 64
6, 55185, Note_on_c, 4, 69, 85
6, 55284, Note_on_c, 4, 67, 87
6, 55292, Note_off_c, 4, 69, 64
6, 55364, Note_off_c, 4, 67, 64
6, 55416, Note_on_c, 4, 69, 89
6, 55509, Note_off_c, 4, 69, 64
6, 55659, Note_on_c, 4, 62, 82
6, 55922, Note_off_c, 4, 62, 64
6, 56150, Note_on_c, 4, 78, 85
6, 56253, Note_on_c, 4, 76, 82
6, 56292, Note_off_c, 4, 78, 64
6, 56366, Note_on_c, 4, 74, 58
6, 56373, Note_off_c, 4, 76, 64
6, 56480, Note_on_c, 4, 73, 63
6, 56503, Note_off_c, 4, 74, 64
6, 56604, Note_off_c, 4, 73, 64
6, 56607, Note_on_c, 4, 71, 61
6, 56717, Note_off_c, 4, 71, 64
6, 56851, Note_on_c, 4, 71, 68
6, 56962, Note_off_c, 4, 71, 64
6, 57106, Note_on_c, 4, 71, 68
6, 57212, Note_on_c, 4, 73, 62
6, 57219, Note_off_c, 4, 71, 64
6, 57315, Note_off_c, 4, 73, 64
6, 57327, Note_on_c, 4, 74, 72
6, 57425, Note_off_c, 4, 74, 64
6, 57435, Note_on_c, 4, 71, 70
6, 57534, Note_off_c, 4, 71, 64
6, 57588, Note_on_c, 4, 76, 82
6, 57693, Note_off_c, 4, 76, 64
6, 57819, Note_on_c, 4, 64, 62
6, 57916, Note_off_c, 4, 64, 64
6, 58074, Note_on_c, 4, 76, 91
6, 58179, Note_on_c, 4, 74, 78
6, 58220, Note_off_c, 4, 76, 64
6, 58305, Note_on_c, 4, 73, 57
6, 58323, Note_off_c, 4, 74, 64
6, 58418, Note_on_c, 4, 71, 68
6, 58440, Note_off_c, 4, 73, 64
6, 58512, Note_off_c, 4, 71, 64
6, 58542, Note_on_c, 4, 69, 60
6, 58670, Note_off_c, 4, 69, 64
6, 58798, Note_on_c, 4, 69, 70
6, 58902, Note_off_c, 4, 69, 64
6, 59039, Note_on_c, 4, 69, 87
6, 59142, Note_on_c, 4, 71, 82
6, 59178, Note_off_c, 4, 69, 64
6, 59264, Note_on_c, 4, 73, 47
6, 59268, Note_off_c, 4, 71, 64
6, 59360, Note_on_c, 4, 69, 60
6, 59370, Note_off_c, 4, 73, 64
6, 59462, Note_off_c, 4, 69, 64
6, 59502, Note_on_c, 4, 74, 68
6, 59603, Note_off_c, 4, 74, 64
6, 59730, Note_on_c, 4, 62, 68
6, 59818, Note_off_c, 4, 62, 64
6, 59997, Note_on_c, 4, 74, 98
6, 60090, Note_on_c, 4, 73, 89
6, 60108, Note_off_c, 4, 74, 64
6, 60213, Note_on_c, 4, 74, 82
6, 60225, Note_off_c, 4, 73, 64
6, 60306, Note_off_c, 4, 74, 64
6, 60467, Note_on_c, 4, 68, 105
6, 60569, Note_on_c, 4, 66, 78
6, 60589, Note_off_c, 4, 68, 64
6, 60684, Note_off_c, 4, 66, 64
6, 60697, Note_on_c, 4, 68, 64
6, 60798, Note_off_c, 4, 68, 64
6, 60953, Note_on_c, 4, 71, 80
6, 61043, Note_on_c, 4, 69, 74
6, 61070, Note_off_c, 4, 71, 64
6, 61156, Note_off_c, 4, 69, 64
6, 61183, Note_on_c, 4, 71, 82
6, 61259, Note_off_c, 4, 71, 64
6, 61433, Note_on_c, 4, 80, 74
6, 61716, Note_off_c, 4, 80, 64
6, 61925, Note_on_c, 4, 71, 78
6, 62020, Note_on_c, 4, 69, 66
6, 62051, Note_off_c, 4, 71, 64
6, 62133, Note_on_c, 4, 71, 70
6, 62144, Note_off_c, 4, 69, 64
6, 62238, Note_off_c, 4, 71, 64
6, 62249, Note_on_c, 4, 74, 66
6, 62312, Note_off_c, 4, 74, 64
6, 62376, Note_on_c, 4, 73, 78
6, 62477, Note_on_c, 4, 71, 61
6, 62515, Note_off_c, 4, 73, 64
6, 62605, Note_on_c, 4, 73, 54
6, 62636, Note_off_c, 4, 71, 64
6, 62706, Note_off_c, 4, 73, 64
6, 62715, Note_on_c, 4, 76, 64
6, 62790, Note_off_c, 4, 76, 64
6, 62843, Note_on_c, 4, 75, 89
6, 62947, Note_on_c, 4, 73, 51
6, 62960, Note_off_c, 4, 75, 64
6, 63075, Note_on_c, 4, 75, 53
6, 63077, Note_off_c, 4, 73, 64
6, 63186, Note_on_c, 4, 78, 64
6, 63199, Note_off_c, 4, 75, 64
6, 63246, Note_off_c, 4, 78, 64
6, 63323, Note_on_c, 4, 83, 85
6, 63443, Note_on_c, 4, 81, 70
6, 63485, Note_off_c, 4, 83, 64
6, 63566, Note_on_c, 4, 80, 60
6, 63584, Note_off_c, 4, 81, 64
6, 63672, Note_on_c, 4, 78, 57
6, 63689, Note_off_c, 4, 80, 64
6, 63784, Note_off_c, 4, 78, 64
6, 63800, Note_on_c, 4, 76, 78
6, 63896, Note_off_c, 4, 76, 64
6, 64040, Note_on_c, 4, 81, 78
6, 64113, Note_off_c, 4, 81, 64
6, 64289, Note_on_c, 4, 76, 80
6, 64385, Note_off_c, 4, 76, 64
6, 64532, Note_on_c, 4, 81, 80
6, 64607, Note_off_c, 4, 81, 64
6, 64774, Note_on_c, 4, 74, 82
6, 64819, Note_on_c, 4, 73, 80
6, 64837, Note_off_c, 4, 74, 64
6, 64880, Note_off_c, 4, 73, 64
6, 64887, Note_on_c, 4, 74, 68
6, 64929, Note_on_c, 4, 73, 66
6, 64956, Note_off_c, 4, 74, 64
6, 65008, Note_on_c, 4, 71, 66
6, 65022, Note_off_c, 4, 73, 64
6, 65100, Note_off_c, 4, 71, 64
6, 65141, Note_on_c, 4, 73, 87
6, 65201, Note_off_c, 4, 73, 64
6, 65260, Note_on_c, 4, 69, 82
6, 65528, Note_off_c, 4, 69, 64
6, 65760, Note_on_c, 4, 74, 95
6, 65861, Note_on_c, 4, 73, 102
6, 65876, Note_off_c, 4, 74, 64
6, 65967, Note_off_c, 4, 73, 64
6, 65991, Note_on_c, 4, 74, 93
6, 66074, Note_off_c, 4, 74, 64
6, 66239, Note_on_c, 4, 66, 102
6, 66338, Note_on_c, 4, 64, 82
6, 66363, Note_off_c, 4, 66, 64
6, 66452, Note_off_c, 4, 64, 64
6, 66464, Note_on_c, 4, 66, 80
6, 66575, Note_off_c, 4, 66, 64
6, 66727, Note_on_c, 4, 69, 100
6, 66820, Note_on_c, 4, 67, 102
6, 66831, Note_off_c, 4, 69, 64
6, 66914, Note_off_c, 4, 67, 64
6, 66941, Note_on_c, 4, 69, 85
6, 67046, Note_off_c, 4, 69, 64
6, 67193, Note_on_c, 4, 62, 87
6, 67485, Note_off_c, 4, 62, 64
6, 67681, Note_on_c, 4, 74, 66
6, 67782, Note_on_c, 4, 76, 66
6, 67804, Note_off_c, 4, 74, 64
6, 67877, Note_off_c, 4, 76, 64
6, 67910, Note_on_c, 4, 78, 55
6, 68009, Note_on_c, 4, 74, 68
6, 68014, Note_off_c, 4, 78, 64
6, 68104, Note_off_c, 4, 74, 64
6, 68140, Note_on_c, 4, 76, 76
6, 68226, Note_off_c, 4, 76, 64
6, 68385, Note_on_c, 4, 76, 63
6, 68486, Note_off_c, 4, 76, 64
6, 68628, Note_on_c, 4, 76, 68
6, 68734, Note_on_c, 4, 78, 54
6, 68747, Note_off_c, 4, 76, 64
6, 68829, Note_off_c, 4, 78, 64
6, 68855, Note_on_c, 4, 79, 61
6, 68937, Note_off_c, 4, 79, 64
6, 68966, Note_on_c, 4, 76, 57
6, 69042, Note_off_c, 4, 76, 64
6, 69094, Note_on_c, 4, 78, 60
6, 69195, Note_off_c, 4, 78, 64
6, 69343, Note_on_c, 4, 74, 59
6, 69434, Note_off_c, 4, 74, 64
6, 69598, Note_on_c, 4, 74, 105
6, 69697, Note_on_c, 4, 73, 91
6, 69710, Note_off_c, 4, 74, 64
6, 69805, Note_off_c, 4, 73, 64
6, 69823, Note_on_c, 4, 74, 78
6, 69909, Note_off_c, 4, 74, 64
6, 70061, Note_on_c, 4, 66, 100
6, 70160, Note_on_c, 4, 64, 70
6, 70179, Note_off_c, 4, 66, 64
6, 70289, Note_off_c, 4, 64, 64
6, 70289, Note_on_c, 4, 66, 64
6, 70399, Note_off_c, 4, 66, 64
6, 70557, Note_on_c, 4, 69, 85
6, 70662, Note_on_c, 4, 67, 80
6, 70680, Note_off_c, 4, 69, 64
6, 70768, Note_off_c, 4, 67, 64
6, 70784, Note_on_c, 4, 69, 78
6, 70885, Note_off_c, 4, 69, 64
6, 71022, Note_on_c, 4, 62, 80
6, 71301, Note_off_c, 4, 62, 64
6, 71513, Note_on_c, 4, 78, 82
6, 71616, Note_on_c, 4, 76, 78
6, 71672, Note_off_c, 4, 78, 64
6, 71727, Note_on_c, 4, 74, 60
6, 71742, Note_off_c, 4, 76, 64
6, 71843, Note_on_c, 4, 73, 58
6, 71857, Note_off_c, 4, 74, 64
6, 71954, Note_off_c, 4, 73, 64
6, 71960, Note_on_c, 4, 71, 58
6, 72066, Note_off_c, 4, 71, 64
6, 72210, Note_on_c, 4, 71, 70
6, 72318, Note_off_c, 4, 71, 64
6, 72469, Note_on_c, 4, 71, 72
6, 72572, Note_on_c, 4, 73, 62
6, 72600, Note_off_c, 4, 71, 64
6, 72685, Note_on_c, 4, 74, 61
6, 72698, Note_off_c, 4, 73, 64
6, 72806, Note_off_c, 4, 74, 64
6, 72806, Note_on_c, 4, 71, 57
6, 72890, Note_off_c, 4, 71, 64
6, 72950, Note_on_c, 4, 76, 74
6, 73068, Note_off_c, 4, 76, 64
6, 73184, Note_on_c, 4, 64, 64
6, 73286, Note_off_c, 4, 64, 64
6, 73443, Note_on_c, 4, 76, 91
6, 73547, Note_on_c, 4, 74, 78
6, 73581, Note_off_c, 4, 76, 64
6, 73671, Note_on_c, 4, 73, 62
6, 73697, Note_off_c, 4, 74, 64
6, 73778, Note_on_c, 4, 71, 66
6, 73796, Note_off_c, 4, 73, 64
6, 73896, Note_off_c, 4, 71, 64
6, 73898, Note_on_c, 4, 69, 61
6, 74030, Note_off_c, 4, 69, 64
6, 74159, Note_on_c, 4, 69, 68
6, 74280, Note_off_c, 4, 69, 64
6, 74404, Note_on_c, 4, 69, 85
6, 74501, Note_on_c, 4, 71, 74
6, 74537, Note_off_c, 4, 69, 64
6, 74636, Note_off_c, 4, 71, 64
6, 74636, Note_on_c, 4, 73, 48
6, 74742, Note_on_c, 4, 69, 66
6, 74750, Note_off_c, 4, 73, 64
6, 74845, Note_off_c, 4, 69, 64
6, 74865, Note_on_c, 4, 74, 63
6, 74971, Note_off_c, 4, 74, 64
6, 75101, Note_on_c, 4, 62, 64
6, 75192, Note_off_c, 4, 62, 64
6, 75363, Note_on_c, 4, 74, 100
6, 75464, Note_on_c, 4, 73, 91
6, 75480, Note_off_c, 4, 74, 64
6, 75581, Note_off_c, 4, 73, 64
6, 75585, Note_on_c, 4, 74, 66
6, 75668, Note_off_c, 4, 74, 64
6, 75833, Note_on_c, 4, 68, 91
6, 75941, Note_on_c, 4, 66, 68
6, 75965, Note_off_c, 4, 68, 64
6, 76062, Note_off_c, 4, 66, 64
6, 76080, Note_on_c, 4, 68, 63
6, 76173, Note_off_c, 4, 68, 64
6, 76332, Note_on_c, 4, 71, 80
6, 76425, Note_on_c, 4, 69, 76
6, 76452, Note_off_c, 4, 71, 64
6, 76535, Note_off_c, 4, 69, 64
6, 76562, Note_on_c, 4, 71, 82
6, 76640, Note_off_c, 4, 71, 64
6, 76800, Note_on_c, 4, 80, 82
6, 77068, Note_off_c, 4, 80, 64
6, 77293, Note_on_c, 4, 71, 82
6, 77390, Note_on_c, 4, 69, 70
6, 77410, Note_off_c, 4, 71, 64
6, 77500, Note_on_c, 4, 71, 63
6, 77504, Note_off_c, 4, 69, 64
6, 77595, Note_off_c, 4, 71, 64
6, 77622, Note_on_c, 4, 74, 72
6, 77685, Note_off_c, 4, 74, 64
6, 77752, Note_on_c, 4, 73, 91
6, 77847, Note_on_c, 4, 71, 66
6, 77878, Note_off_c, 4, 73, 64
6, 77968, Note_on_c, 4, 73, 56
6, 77995, Note_off_c, 4, 71, 64
6, 78072, Note_off_c, 4, 73, 64
6, 78089, Note_on_c, 4, 76, 70
6, 78171, Note_off_c, 4, 76, 64
6, 78213, Note_on_c, 4, 75, 87
6, 78319, Note_on_c, 4, 73, 52
6, 78326, Note_off_c, 4, 75, 64
6, 78431, Note_on_c, 4, 75, 55
6, 78438, Note_off_c, 4, 73, 64
6, 78549, Note_on_c, 4, 78, 63
6, 78562, Note_off_c, 4, 75, 64
6, 78611, Note_off_c, 4, 78, 64
6, 78692, Note_on_c, 4, 83, 82
6, 78805, Note_on_c, 4, 81, 80
6, 78866, Note_off_c, 4, 83, 64
6, 78938, Note_on_c, 4, 80, 60
6, 78958, Note_off_c, 4, 81, 64
6, 79043, Note_on_c, 4, 78, 55
6, 79067, Note_off_c, 4, 80, 64
6, 79151, Note_off_c, 4, 78, 64
6, 79169, Note_on_c, 4, 76, 72
6, 79263, Note_off_c, 4, 76, 64
6, 79417, Note_on_c, 4, 81, 78
6, 79498, Note_off_c, 4, 81, 64
6, 79664, Note_on_c, 4, 76, 78
6, 79743, Note_off_c, 4, 76, 64
6, 79908, Note_on_c, 4, 81, 78
6, 79982, Note_off_c, 4, 81, 64
6, 80151, Note_on_c, 4, 74, 68
6, 80207, Note_on_c, 4, 73, 59
6, 80218, Note_off_c, 4, 74, 64
6, 80261, Note_on_c, 4, 74, 64
6, 80270, Note_off_c, 4, 73, 64
6, 80306, Note_on_c, 4, 73, 60
6, 80322, Note_off_c, 4, 74, 64
6, 80363, Note_on_c, 4, 71, 78
6, 80382, Note_off_c, 4, 73, 64
6, 80448, Note_off_c, 4, 71, 64
6, 80483, Note_on_c, 4, 73, 78
6, 80544, Note_off_c, 4, 73, 64
6, 80619, Note_on_c, 4, 69, 87
6, 80877, Note_off_c, 4, 69, 64
6, 111830, Note_on_c, 4, 69, 100
6, 111960, Note_off_c, 4, 69, 64
6, 112073, Note_on_c, 4, 81, 87
6, 112122, Note_off_c, 4, 81, 64
6, 112187, Note_on_c, 4, 78, 98
6, 112237, Note_off_c, 4, 78, 64
6, 112316, Note_on_c, 4, 79, 105
6, 112593, Note_off_c, 4, 79, 64
6, 112800, Note_on_c, 4, 69, 95
6, 112955, Note_off_c, 4, 69, 64
6, 113036, Note_on_c, 4, 79, 87
6, 113090, Note_off_c, 4, 79, 64
6, 113144, Note_on_c, 4, 76, 89
6, 113189, Note_off_c, 4, 76, 64
6, 113281, Note_on_c, 4, 78, 102
6, 113544, Note_off_c, 4, 78, 64
6, 113767, Note_on_c, 4, 69, 98
6, 113940, Note_off_c, 4, 69, 64
6, 113999, Note_on_c, 4, 76, 87
6, 114050, Note_off_c, 4, 76, 64
6, 114109, Note_on_c, 4, 73, 85
6, 114165, Note_off_c, 4, 73, 64
6, 114233, Note_on_c, 4, 74, 100
6, 114417, Note_off_c, 4, 74, 64
6, 114471, Note_on_c, 4, 73, 78
6, 114527, Note_off_c, 4, 73, 64
6, 114573, Note_on_c, 4, 71, 89
6, 114647, Note_off_c, 4, 71, 64
6, 114699, Note_on_c, 4, 69, 85
6, 114762, Note_off_c, 4, 69, 64
6, 114807, Note_on_c, 4, 71, 76
6, 114881, Note_off_c, 4, 71, 64
6, 114948, Note_on_c, 4, 67, 85
6, 115038, Note_off_c, 4, 67, 64
6, 115164, Note_on_c, 4, 67, 80
6, 115218, Note_on_c, 4, 66, 82
6, 115234, Note_off_c, 4, 67, 64
6, 115274, Note_on_c, 4, 67, 68
6, 115279, Note_off_c, 4, 66, 64
6, 115306, Note_on_c, 4, 66, 53
6, 115346, Note_off_c, 4, 67, 64
6, 115383, Note_on_c, 4, 64, 57
6, 115389, Note_off_c, 4, 66, 64
6, 115479, Note_off_c, 4, 64, 64
6, 115499, Note_on_c, 4, 62, 82
6, 115554, Note_off_c, 4, 62, 64
6, 115653, Note_on_c, 4, 69, 102
6, 115815, Note_off_c, 4, 69, 64
6, 115916, Note_on_c, 4, 81, 66
6, 115956, Note_off_c, 4, 81, 64
6, 116024, Note_on_c, 4, 78, 91
6, 116076, Note_off_c, 4, 78, 64
6, 116145, Note_on_c, 4, 79, 100
6, 116400, Note_off_c, 4, 79, 64
6, 116618, Note_on_c, 4, 69, 93
6, 116807, Note_off_c, 4, 69, 64
6, 116881, Note_on_c, 4, 79, 85
6, 116939, Note_off_c, 4, 79, 64
6, 116994, Note_on_c, 4, 76, 87
6, 117039, Note_off_c, 4, 76, 64
6, 117126, Note_on_c, 4, 78, 102
6, 117394, Note_off_c, 4, 78, 64
6, 117606, Note_on_c, 4, 80, 95
6, 117776, Note_off_c, 4, 80, 64
6, 117835, Note_on_c, 4, 83, 80
6, 117882, Note_off_c, 4, 83, 64
6, 117941, Note_on_c, 4, 80, 91
6, 117988, Note_off_c, 4, 80, 64
6, 118065, Note_on_c, 4, 81, 95
6, 118249, Note_off_c, 4, 81, 64
6, 118303, Note_on_c, 4, 80, 76
6, 118360, Note_off_c, 4, 80, 64
6, 118404, Note_on_c, 4, 78, 82
6, 118478, Note_off_c, 4, 78, 64
6, 118533, Note_on_c, 4, 76, 85
6, 118613, Note_off_c, 4, 76, 64
6, 118643, Note_on_c, 4, 78, 63
6, 118713, Note_off_c, 4, 78, 64
6, 118780, Note_on_c, 4, 74, 62
6, 118877, Note_off_c, 4, 74, 64
6, 119012, Note_on_c, 4, 73, 80
6, 119205, Note_off_c, 4, 73, 64
6, 119243, Note_on_c, 4, 78, 85
6, 119311, Note_off_c, 4, 78, 64
6, 119354, Note_on_c, 4, 74, 80
6, 119415, Note_off_c, 4, 74, 64
6, 119489, Note_on_c, 4, 76, 91
6, 119662, Note_off_c, 4, 76, 64
6, 119734, Note_on_c, 4, 74, 66
6, 119802, Note_off_c, 4, 74, 64
6, 119842, Note_on_c, 4, 73, 78
6, 119907, Note_off_c, 4, 73, 64
6, 119960, Note_on_c, 4, 71, 82
6, 120026, Note_off_c, 4, 71, 64
6, 120071, Note_on_c, 4, 73, 63
6, 120130, Note_off_c, 4, 73, 64
6, 120197, Note_on_c, 4, 69, 74
6, 120269, Note_off_c, 4, 69, 64
6, 120449, Note_on_c, 4, 64, 85
6, 120527, Note_off_c, 4, 64, 64
6, 120697, Note_on_c, 4, 68, 80
6, 120771, Note_off_c, 4, 68, 64
6, 120953, Note_on_c, 4, 69, 85
6, 121208, Note_off_c, 4, 69, 64
6, 121444, Note_on_c, 4, 69, 100
6, 121602, Note_off_c, 4, 69, 64
6, 121678, Note_on_c, 4, 81, 87
6, 121728, Note_off_c, 4, 81, 64
6, 121793, Note_on_c, 4, 78, 93
6, 121844, Note_off_c, 4, 78, 64
6, 121920, Note_on_c, 4, 78, 113
6, 122025, Note_on_c, 4, 79, 89
6, 122031, Note_off_c, 4, 78, 64
6, 122193, Note_off_c, 4, 79, 64
6, 122403, Note_on_c, 4, 69, 102
6, 122531, Note_off_c, 4, 69, 64
6, 122632, Note_on_c, 4, 79, 87
6, 122688, Note_off_c, 4, 79, 64
6, 122747, Note_on_c, 4, 76, 95
6, 122799, Note_off_c, 4, 76, 64
6, 122879, Note_on_c, 4, 76, 105
6, 122999, Note_on_c, 4, 78, 82
6, 123005, Note_off_c, 4, 76, 64
6, 123168, Note_off_c, 4, 78, 64
6, 123384, Note_on_c, 4, 69, 95
6, 123541, Note_off_c, 4, 69, 64
6, 123604, Note_on_c, 4, 76, 82
6, 123653, Note_off_c, 4, 76, 64
6, 123710, Note_on_c, 4, 73, 78
6, 123775, Note_off_c, 4, 73, 64
6, 123838, Note_on_c, 4, 74, 85
6, 124022, Note_off_c, 4, 74, 64
6, 124072, Note_on_c, 4, 73, 70
6, 124144, Note_off_c, 4, 73, 64
6, 124175, Note_on_c, 4, 71, 74
6, 124250, Note_off_c, 4, 71, 64
6, 124301, Note_on_c, 4, 69, 74
6, 124398, Note_off_c, 4, 69, 64
6, 124405, Note_on_c, 4, 71, 66
6, 124502, Note_off_c, 4, 71, 64
6, 124547, Note_on_c, 4, 67, 80
6, 124650, Note_off_c, 4, 67, 64
6, 124776, Note_on_c, 4, 67, 82
6, 124830, Note_on_c, 4, 66, 85
6, 124848, Note_off_c, 4, 67, 64
6, 124878, Note_off_c, 4, 66, 64
6, 124904, Note_on_c, 4, 67, 61
6, 124919, Note_on_c, 4, 66, 63
6, 124961, Note_off_c, 4, 67, 64
6, 125001, Note_on_c, 4, 64, 57
6, 125012, Note_off_c, 4, 66, 64
6, 125093, Note_off_c, 4, 64, 64
6, 125138, Note_on_c, 4, 62, 82
6, 125192, Note_off_c, 4, 62, 64
6, 125278, Note_on_c, 4, 69, 107
6, 125449, Note_off_c, 4, 69, 64
6, 125510, Note_on_c, 4, 81, 85
6, 125564, Note_off_c, 4, 81, 64
6, 125622, Note_on_c, 4, 78, 100
6, 125683, Note_off_c, 4, 78, 64
6, 125746, Note_on_c, 4, 78, 110
6, 125861, Note_on_c, 4, 79, 91
6, 125883, Note_off_c, 4, 78, 64
6, 126054, Note_off_c, 4, 79, 64
6, 126218, Note_on_c, 4, 69, 100
6, 126360, Note_off_c, 4, 69, 64
6, 126461, Note_on_c, 4, 79, 87
6, 126515, Note_off_c, 4, 79, 64
6, 126583, Note_on_c, 4, 76, 85
6, 126628, Note_off_c, 4, 76, 64
6, 126709, Note_on_c, 4, 76, 100
6, 126822, Note_on_c, 4, 78, 72
6, 126840, Note_off_c, 4, 76, 64
6, 126990, Note_off_c, 4, 78, 64
6, 127208, Note_on_c, 4, 80, 95
6, 127373, Note_off_c, 4, 80, 64
6, 127438, Note_on_c, 4, 83, 85
6, 127492, Note_off_c, 4, 83, 64
6, 127553, Note_on_c, 4, 80, 82
6, 127613, Note_off_c, 4, 80, 64
6, 127683, Note_on_c, 4, 81, 89
6, 127861, Note_off_c, 4, 81, 64
6, 127919, Note_on_c, 4, 80, 66
6, 127983, Note_off_c, 4, 80, 64
6, 128023, Note_on_c, 4, 78, 66
6, 128095, Note_off_c, 4, 78, 64
6, 128151, Note_on_c, 4, 76, 87
6, 128225, Note_off_c, 4, 76, 64
6, 128261, Note_on_c, 4, 78, 78
6, 128329, Note_off_c, 4, 78, 64
6, 128388, Note_on_c, 4, 74, 82
6, 128495, Note_off_c, 4, 74, 64
6, 128631, Note_on_c, 4, 73, 87
6, 128817, Note_off_c, 4, 73, 64
6, 128858, Note_on_c, 4, 78, 72
6, 128930, Note_off_c, 4, 78, 64
6, 128981, Note_on_c, 4, 74, 74
6, 129035, Note_off_c, 4, 74, 64
6, 129108, Note_on_c, 4, 76, 89
6, 129281, Note_off_c, 4, 76, 64
6, 129346, Note_on_c, 4, 74, 68
6, 129405, Note_off_c, 4, 74, 64
6, 129456, Note_on_c, 4, 73, 80
6, 129517, Note_off_c, 4, 73, 64
6, 129573, Note_on_c, 4, 71, 82
6, 129677, Note_off_c, 4, 71, 64
6, 129688, Note_on_c, 4, 73, 68
6, 129756, Note_off_c, 4, 73, 64
6, 129810, Note_on_c, 4, 69, 87
6, 129893, Note_off_c, 4, 69, 64
6, 130059, Note_on_c, 4, 64, 85
6, 130143, Note_off_c, 4, 64, 64
6, 130311, Note_on_c, 4, 68, 85
6, 130386, Note_off_c, 4, 68, 64
6, 130552, Note_on_c, 4, 69, 87
6, 130793, Note_off_c, 4, 69, 64
6, 130793, End_track
7, 0, Start_track
7, 0, Title_t, "Oboe"
7, 0, Program_c, 5, 68
7, 0, Control_c, 5, 7, 100
7, 474, Note_on_c, 5, 69, 95
7, 603, Note_off_c, 5, 69, 64
7, 711, Note_on_c, 5, 81, 89
7, 762, Note_off_c, 5, 81, 64
7, 821, Note_on_c, 5, 78, 95
7, 875, Note_off_c, 5, 78, 64
7, 954, Note_on_c, 5, 79, 100
7, 1215, Note_off_c, 5, 79, 64
7, 1446, Note_on_c, 5, 69, 100
7, 1597, Note_off_c, 5, 69, 64
7, 1678, Note_on_c, 5, 79, 82
7, 1726, Note_off_c, 5, 79, 64
7, 1789, Note_on_c, 5, 76, 80
7, 1831, Note_off_c, 5, 76, 64
7, 1932, Note_on_c, 5, 78, 93
7, 2191, Note_off_c, 5, 78, 64
7, 2427, Note_on_c, 5, 69, 98
7, 2585, Note_off_c, 5, 69, 64
7, 2653, Note_on_c, 5, 76, 82
7, 2698, Note_off_c, 5, 76, 64
7, 2763, Note_on_c, 5, 73, 80
7, 2814, Note_off_c, 5, 73, 64
7, 2891, Note_on_c, 5, 74, 89
7, 3060, Note_off_c, 5, 74, 64
7, 3118, Note_on_c, 5, 73, 82
7, 3177, Note_off_c, 5, 73, 64
7, 3229, Note_on_c, 5, 71, 78
7, 3298, Note_off_c, 5, 71, 64
7, 3354, Note_on_c, 5, 69, 70
7, 3417, Note_off_c, 5, 69, 64
7, 3466, Note_on_c, 5, 71, 68
7, 3534, Note_off_c, 5, 71, 64
7, 3595, Note_on_c, 5, 67, 87
7, 3681, Note_off_c, 5, 67, 64
7, 3823, Note_on_c, 5, 67, 78
7, 3877, Note_on_c, 5, 66, 82
7, 3897, Note_off_c, 5, 67, 64
7, 3912, Note_off_c, 5, 66, 64
7, 3931, Note_on_c, 5, 67, 72
7, 3973, Note_on_c, 5, 66, 62
7, 4014, Note_off_c, 5, 67, 64
7, 4054, Note_on_c, 5, 64, 64
7, 4063, Note_off_c, 5, 66, 64
7, 4131, Note_off_c, 5, 64, 64
7, 4181, Note_on_c, 5, 62, 80
7, 4228, Note_off_c, 5, 62, 64
7, 4302, Note_on_c, 5, 69, 105
7, 4449, Note_off_c, 5, 69, 64
7, 4542, Note_on_c, 5, 81, 82
7, 4588, Note_off_c, 5, 81, 64
7, 4653, Note_on_c, 5, 78, 93
7, 4698, Note_off_c, 5, 78, 64
7, 4786, Note_on_c, 5, 79, 100
7, 5051, Note_off_c, 5, 79, 64
7, 5265, Note_on_c, 5, 69, 100
7, 5434, Note_off_c, 5, 69, 64
7, 5519, Note_on_c, 5, 79, 82
7, 5566, Note_off_c, 5, 79, 64
7, 5632, Note_on_c, 5, 76, 85
7, 5686, Note_off_c, 5, 76, 64
7, 5767, Note_on_c, 5, 78, 89
7, 6028, Note_off_c, 5, 78, 64
7, 6243, Note_on_c, 5, 80, 100
7, 6394, Note_off_c, 5, 80, 64
7, 6464, Note_on_c, 5, 83, 78
7, 6516, Note_off_c, 5, 83, 64
7, 6576, Note_on_c, 5, 80, 82
7, 6619, Note_off_c, 5, 80, 64
7, 6707, Note_on_c, 5, 81, 91
7, 6885, Note_off_c, 5, 81, 64
7, 6950, Note_on_c, 5, 80, 58
7, 7011, Note_off_c, 5, 80, 64
7, 7054, Note_on_c, 5, 78, 52
7, 7119, Note_off_c, 5, 78, 64
7, 7179, Note_on_c, 5, 76, 89
7, 7265, Note_off_c, 5, 76, 64
7, 7296, Note_on_c, 5, 78, 64
7, 7353, Note_off_c, 5, 78, 64
7, 7420, Note_on_c, 5, 74, 82
7, 7522, Note_off_c, 5, 74, 64
7, 7663, Note_on_c, 5, 73, 87
7, 7845, Note_off_c, 5, 73, 64
7, 7884, Note_on_c, 5, 78, 76
7, 7949, Note_off_c, 5, 78, 64
7, 8008, Note_on_c, 5, 74, 66
7, 8062, Note_off_c, 5, 74, 64
7, 8138, Note_on_c, 5, 76, 89
7, 8313, Note_off_c, 5, 76, 64
7, 8379, Note_on_c, 5, 74, 70
7, 8442, Note_off_c, 5, 74, 64
7, 8494, Note_on_c, 5, 73, 89
7, 8551, Note_off_c, 5, 73, 64
7, 8619, Note_on_c, 5, 71, 85
7, 8703, Note_off_c, 5, 71, 64
7, 8730, Note_on_c, 5, 73, 64
7, 8797, Note_off_c, 5, 73, 64
7, 8844, Note_on_c, 5, 69, 74
7, 8917, Note_off_c, 5, 69, 64
7, 9090, Note_on_c, 5, 64, 85
7, 9166, Note_off_c, 5, 64, 64
7, 9346, Note_on_c, 5, 68, 87
7, 9439, Note_off_c, 5, 68, 64
7, 9597, Note_on_c, 5, 69, 89
7, 9861, Note_off_c, 5, 69, 64
7, 10091, Note_on_c, 5, 69, 91
7, 10235, Note_off_c, 5, 69, 64
7, 10307, Note_on_c, 5, 81, 82
7, 10363, Note_off_c, 5, 81, 64
7, 10419, Note_on_c, 5, 78, 91
7, 10467, Note_off_c, 5, 78, 64
7, 10555, Note_on_c, 5, 78, 110
7, 10671, Note_on_c, 5, 79, 82
7, 10676, Note_off_c, 5, 78, 64
7, 10858, Note_off_c, 5, 79, 64
7, 11036, Note_on_c, 5, 69, 100
7, 11176, Note_off_c, 5, 69, 64
7, 11271, Note_on_c, 5, 79, 85
7, 11319, Note_off_c, 5, 79, 64
7, 11385, Note_on_c, 5, 76, 85
7, 11430, Note_off_c, 5, 76, 64
7, 11527, Note_on_c, 5, 76, 100
7, 11632, Note_on_c, 5, 78, 66
7, 11652, Note_off_c, 5, 76, 64
7, 11833, Note_off_c, 5, 78, 64
7, 12019, Note_on_c, 5, 69, 87
7, 12168, Note_off_c, 5, 69, 64
7, 12233, Note_on_c, 5, 76, 76
7, 12287, Note_off_c, 5, 76, 64
7, 12355, Note_on_c, 5, 73, 80
7, 12415, Note_off_c, 5, 73, 64
7, 12478, Note_on_c, 5, 74, 89
7, 12669, Note_off_c, 5, 74, 64
7, 12726, Note_on_c, 5, 73, 61
7, 12791, Note_off_c, 5, 73, 64
7, 12829, Note_on_c, 5, 71, 68
7, 12908, Note_off_c, 5, 71, 64
7, 12948, Note_on_c, 5, 69, 70
7, 13033, Note_off_c, 5, 69, 64
7, 13063, Note_on_c, 5, 71, 66
7, 13133, Note_off_c, 5, 71, 64
7, 13183, Note_on_c, 5, 67, 76
7, 13297, Note_off_c, 5, 67, 64
7, 13423, Note_on_c, 5, 67, 74
7, 13480, Note_on_c, 5, 66, 85
7, 13498, Note_off_c, 5, 67, 64
7, 13520, Note_off_c, 5, 66, 64
7, 13533, Note_on_c, 5, 67, 66
7, 13590, Note_on_c, 5, 66, 68
7, 13628, Note_off_c, 5, 67, 64
7, 13672, Note_on_c, 5, 64, 66
7, 13677, Note_off_c, 5, 66, 64
7, 13747, Note_off_c, 5, 64, 64
7, 13792, Note_on_c, 5, 62, 82
7, 13835, Note_off_c, 5, 62, 64
7, 13914, Note_on_c, 5, 69, 105
7, 14064, Note_off_c, 5, 69, 64
7, 14145, Note_on_c, 5, 81, 78
7, 14195, Note_off_c, 5, 81, 64
7, 14267, Note_on_c, 5, 78, 95
7, 14310, Note_off_c, 5, 78, 64
7, 14386, Note_on_c, 5, 78, 107
7, 14506, Note_on_c, 5, 79, 87
7, 14508, Note_off_c, 5, 78, 64
7, 14712, Note_off_c, 5, 79, 64
7, 14859, Note_on_c, 5, 69, 98
7, 15036, Note_off_c, 5, 69, 64
7, 15104, Note_on_c, 5, 79, 78
7, 15162, Note_off_c, 5, 79, 64
7, 15228, Note_on_c, 5, 76, 72
7, 15275, Note_off_c, 5, 76, 64
7, 15354, Note_on_c, 5, 76, 100
7, 15473, Note_off_c, 5, 76, 64
7, 15473, Note_on_c, 5, 78, 68
7, 15680, Note_off_c, 5, 78, 64
7, 15837, Note_on_c, 5, 80, 98
7, 15991, Note_off_c, 5, 80, 64
7, 16076, Note_on_c, 5, 83, 85
7, 16123, Note_off_c, 5, 83, 64
7, 16186, Note_on_c, 5, 80, 82
7, 16233, Note_off_c, 5, 80, 64
7, 16320, Note_on_c, 5, 81, 87
7, 16503, Note_off_c, 5, 81, 64
7, 16560, Note_on_c, 5, 80, 85
7, 16621, Note_off_c, 5, 80, 64
7, 16665, Note_on_c, 5, 78, 66
7, 16731, Note_off_c, 5, 78, 64
7, 16790, Note_on_c, 5, 76, 82
7, 16864, Note_off_c, 5, 76, 64
7, 16901, Note_on_c, 5, 78, 64
7, 16960, Note_off_c, 5, 78, 64
7, 17032, Note_on_c, 5, 74, 82
7, 17134, Note_off_c, 5, 74, 64
7, 17268, Note_on_c, 5, 73, 87
7, 17442, Note_off_c, 5, 73, 64
7, 17500, Note_on_c, 5, 78, 63
7, 17565, Note_off_c, 5, 78, 64
7, 17620, Note_on_c, 5, 74, 66
7, 17673, Note_off_c, 5, 74, 64
7, 17763, Note_on_c, 5, 76, 91
7, 17934, Note_off_c, 5, 76, 64
7, 17988, Note_on_c, 5, 74, 72
7, 18038, Note_off_c, 5, 74, 64
7, 18106, Note_on_c, 5, 73, 85
7, 18162, Note_off_c, 5, 73, 64
7, 18229, Note_on_c, 5, 71, 89
7, 18322, Note_off_c, 5, 71, 64
7, 18344, Note_on_c, 5, 73, 64
7, 18407, Note_off_c, 5, 73, 64
7, 18475, Note_on_c, 5, 69, 82
7, 18553, Note_off_c, 5, 69, 64
7, 18715, Note_on_c, 5, 64, 85
7, 18783, Note_off_c, 5, 64, 64
7, 18952, Note_on_c, 5, 68, 78
7, 19026, Note_off_c, 5, 68, 64
7, 19194, Note_on_c, 5, 69, 87
7, 19437, Note_off_c, 5, 69, 64
7, 50402, Note_on_c, 5, 74, 95
7, 50508, Note_on_c, 5, 73, 102
7, 50522, Note_off_c, 5, 74, 64
7, 50608, Note_off_c, 5, 73, 64
7, 50628, Note_on_c, 5, 74, 98
7, 50732, Note_off_c, 5, 74, 64
7, 50887, Note_on_c, 5, 66, 102
7, 50982, Note_on_c, 5, 64, 80
7, 51011, Note_off_c, 5, 66, 64
7, 51087, Note_off_c, 5, 64, 64
7, 51105, Note_on_c, 5, 66, 68
7, 51224, Note_off_c, 5, 66, 64
7, 51339, Note_on_c, 5, 69, 89
7, 51438, Note_on_c, 5, 67, 98
7, 51456, Note_off_c, 5, 69, 64
7, 51549, Note_off_c, 5, 67, 64
7, 51567, Note_on_c, 5, 69, 82
7, 51665, Note_off_c, 5, 69, 64
7, 51809, Note_on_c, 5, 62, 80
7, 52100, Note_off_c, 5, 62, 64
7, 52289, Note_on_c, 5, 69, 85
7, 52374, Note_off_c, 5, 69, 64
7, 52541, Note_on_c, 5, 74, 82
7, 52950, Note_off_c, 5, 74, 64
7, 53024, Note_on_c, 5, 73, 58
7, 53115, Note_off_c, 5, 73, 64
7, 53121, Note_on_c, 5, 71, 68
7, 53237, Note_off_c, 5, 71, 64
7, 53263, Note_on_c, 5, 73, 64
7, 53362, Note_on_c, 5, 74, 70
7, 53368, Note_off_c, 5, 73, 64
7, 53448, Note_off_c, 5, 74, 64
7, 53484, Note_on_c, 5, 76, 82
7, 53565, Note_off_c, 5, 76, 64
7, 53598, Note_on_c, 5, 73, 62
7, 53663, Note_off_c, 5, 73, 64
7, 53733, Note_on_c, 5, 74, 87
7, 53839, Note_off_c, 5, 74, 64
7, 53976, Note_on_c, 5, 69, 63
7, 54062, Note_off_c, 5, 69, 64
7, 54233, Note_on_c, 5, 74, 102
7, 54330, Note_on_c, 5, 73, 100
7, 54347, Note_off_c, 5, 74, 64
7, 54440, Note_off_c, 5, 73, 64
7, 54453, Note_on_c, 5, 74, 78
7, 54546, Note_off_c, 5, 74, 64
7, 54703, Note_on_c, 5, 66, 98
7, 54800, Note_on_c, 5, 64, 72
7, 54810, Note_off_c, 5, 66, 64
7, 54924, Note_off_c, 5, 64, 64
7, 54937, Note_on_c, 5, 66, 74
7, 55043, Note_off_c, 5, 66, 64
7, 55191, Note_on_c, 5, 69, 98
7, 55292, Note_on_c, 5, 67, 98
7, 55299, Note_off_c, 5, 69, 64
7, 55387, Note_off_c, 5, 67, 64
7, 55416, Note_on_c, 5, 69, 76
7, 55522, Note_off_c, 5, 69, 64
7, 55666, Note_on_c, 5, 62, 80
7, 56087, Note_off_c, 5, 62, 64
7, 56625, Note_on_c, 5, 71, 82
7, 56741, Note_on_c, 5, 69, 76
7, 56771, Note_off_c, 5, 71, 64
7, 56868, Note_on_c, 5, 68, 60
7, 56874, Note_off_c, 5, 69, 64
7, 56967, Note_on_c, 5, 66, 63
7, 56976, Note_off_c, 5, 68, 64
7, 57075, Note_off_c, 5, 66, 64
7, 57095, Note_on_c, 5, 64, 70
7, 57214, Note_off_c, 5, 64, 64
7, 57360, Note_on_c, 5, 64, 78
7, 57470, Note_off_c, 5, 64, 64
7, 57588, Note_on_c, 5, 64, 64
7, 57701, Note_on_c, 5, 66, 64
7, 57736, Note_off_c, 5, 64, 64
7, 57812, Note_off_c, 5, 66, 64
7, 57819, Note_on_c, 5, 68, 62
7, 57921, Note_off_c, 5, 68, 64
7, 57927, Note_on_c, 5, 64, 68
7, 58004, Note_off_c, 5, 64, 64
7, 58064, Note_on_c, 5, 69, 66
7, 58640, Note_off_c, 5, 69, 64
7, 58652, Note_on_c, 5, 68, 66
7, 58764, Note_on_c, 5, 66, 61
7, 58787, Note_off_c, 5, 68, 64
7, 58874, Note_on_c, 5, 64, 66
7, 58886, Note_off_c, 5, 66, 64
7, 58969, Note_off_c, 5, 64, 64
7, 59001, Note_on_c, 5, 62, 70
7, 59124, Note_off_c, 5, 62, 64
7, 59273, Note_on_c, 5, 62, 78
7, 59358, Note_off_c, 5, 62, 64
7, 59499, Note_on_c, 5, 62, 76
7, 59603, Note_on_c, 5, 64, 56
7, 59644, Note_off_c, 5, 62, 64
7, 59727, Note_on_c, 5, 66, 60
7, 59728, Note_off_c, 5, 64, 64
7, 59820, Note_off_c, 5, 66, 64
7, 59840, Note_on_c, 5, 62, 66
7, 59907, Note_off_c, 5, 62, 64
7, 60000, Note_on_c, 5, 74, 82
7, 60091, Note_on_c, 5, 73, 68
7, 60125, Note_off_c, 5, 74, 64
7, 60207, Note_off_c, 5, 73, 64
7, 60231, Note_on_c, 5, 74, 87
7, 60312, Note_off_c, 5, 74, 64
7, 60477, Note_on_c, 5, 68, 100
7, 60576, Note_on_c, 5, 66, 68
7, 60593, Note_off_c, 5, 68, 64
7, 60693, Note_off_c, 5, 66, 64
7, 60713, Note_on_c, 5, 68, 60
7, 60827, Note_off_c, 5, 68, 64
7, 60951, Note_on_c, 5, 71, 78
7, 61059, Note_on_c, 5, 69, 68
7, 61077, Note_off_c, 5, 71, 64
7, 61167, Note_off_c, 5, 69, 64
7, 61183, Note_on_c, 5, 71, 76
7, 61251, Note_off_c, 5, 71, 64
7, 61424, Note_on_c, 5, 74, 89
7, 61777, Note_off_c, 5, 74, 64
7, 61899, Note_on_c, 5, 68, 55
7, 62106, Note_off_c, 5, 68, 64
7, 62144, Note_on_c, 5, 68, 62
7, 62319, Note_off_c, 5, 68, 64
7, 62387, Note_on_c, 5, 69, 82
7, 62578, Note_off_c, 5, 69, 64
7, 62611, Note_on_c, 5, 69, 70
7, 62817, Note_off_c, 5, 69, 64
7, 62852, Note_on_c, 5, 66, 64
7, 63044, Note_off_c, 5, 66, 64
7, 63082, Note_on_c, 5, 66, 63
7, 63233, Note_off_c, 5, 66, 64
7, 63332, Note_on_c, 5, 68, 70
7, 63424, Note_off_c, 5, 68, 64
7, 63435, Note_on_c, 5, 69, 78
7, 63532, Note_off_c, 5, 69, 64
7, 63561, Note_on_c, 5, 71, 74
7, 63701, Note_off_c, 5, 71, 64
7, 63809, Note_on_c, 5, 73, 64
7, 63930, Note_off_c, 5, 73, 64
7, 64045, Note_on_c, 5, 76, 87
7, 64167, Note_off_c, 5, 76, 64
7, 64295, Note_on_c, 5, 69, 85
7, 64497, Note_off_c, 5, 69, 64
7, 64542, Note_on_c, 5, 69, 82
7, 64718, Note_off_c, 5, 69, 64
7, 64761, Note_on_c, 5, 69, 70
7, 64945, Note_off_c, 5, 69, 64
7, 65008, Note_on_c, 5, 68, 66
7, 65141, Note_off_c, 5, 68, 64
7, 65253, Note_on_c, 5, 69, 78
7, 65508, Note_off_c, 5, 69, 64
7, 65759, Note_on_c, 5, 74, 98
7, 65854, Note_on_c, 5, 73, 89
7, 65876, Note_off_c, 5, 74, 64
7, 65955, Note_off_c, 5, 73, 64
7, 65982, Note_on_c, 5, 74, 87
7, 66088, Note_off_c, 5, 74, 64
7, 66234, Note_on_c, 5, 66, 87
7, 66331, Note_on_c, 5, 64, 76
7, 66353, Note_off_c, 5, 66, 64
7, 66435, Note_off_c, 5, 64, 64
7, 66461, Note_on_c, 5, 66, 64
7, 66579, Note_off_c, 5, 66, 64
7, 66720, Note_on_c, 5, 69, 91
7, 66813, Note_on_c, 5, 67, 98
7, 66831, Note_off_c, 5, 69, 64
7, 66916, Note_off_c, 5, 67, 64
7, 66947, Note_on_c, 5, 69, 80
7, 67049, Note_off_c, 5, 69, 64
7, 67191, Note_on_c, 5, 62, 87
7, 67488, Note_off_c, 5, 62, 64
7, 67667, Note_on_c, 5, 69, 66
7, 67767, Note_off_c, 5, 69, 64
7, 67915, Note_on_c, 5, 74, 80
7, 68316, Note_off_c, 5, 74, 64
7, 68385, Note_on_c, 5, 73, 58
7, 68492, Note_on_c, 5, 71, 68
7, 68532, Note_off_c, 5, 73, 64
7, 68586, Note_off_c, 5, 71, 64
7, 68626, Note_on_c, 5, 73, 66
7, 68736, Note_on_c, 5, 74, 72
7, 68739, Note_off_c, 5, 73, 64
7, 68824, Note_off_c, 5, 74, 64
7, 68856, Note_on_c, 5, 76, 80
7, 68943, Note_off_c, 5, 76, 64
7, 68975, Note_on_c, 5, 73, 61
7, 69036, Note_off_c, 5, 73, 64
7, 69092, Note_on_c, 5, 74, 85
7, 69182, Note_off_c, 5, 74, 64
7, 69332, Note_on_c, 5, 69, 68
7, 69416, Note_off_c, 5, 69, 64
7, 69603, Note_on_c, 5, 74, 98
7, 69697, Note_on_c, 5, 73, 80
7, 69720, Note_off_c, 5, 74, 64
7, 69801, Note_off_c, 5, 73, 64
7, 69819, Note_on_c, 5, 74, 82
7, 69915, Note_off_c, 5, 74, 64
7, 70066, Note_on_c, 5, 66, 85
7, 70165, Note_on_c, 5, 64, 66
7, 70194, Note_off_c, 5, 66, 64
7, 70275, Note_off_c, 5, 64, 64
7, 70303, Note_on_c, 5, 66, 63
7, 70399, Note_off_c, 5, 66, 64
7, 70543, Note_on_c, 5, 69, 82
7, 70629, Note_on_c, 5, 67, 63
7, 70647, Note_off_c, 5, 69, 64
7, 70746, Note_off_c, 5, 67, 64
7, 70772, Note_on_c, 5, 69, 78
7, 70877, Note_off_c, 5, 69, 64
7, 71031, Note_on_c, 5, 62, 78
7, 71483, Note_off_c, 5, 62, 64
7, 71978, Note_on_c, 5, 71, 85
7, 72091, Note_on_c, 5, 69, 72
7, 72132, Note_off_c, 5, 71, 64
7, 72217, Note_on_c, 5, 68, 57
7, 72242, Note_off_c, 5, 69, 64
7, 72330, Note_on_c, 5, 66, 57
7, 72339, Note_off_c, 5, 68, 64
7, 72428, Note_off_c, 5, 66, 64
7, 72452, Note_on_c, 5, 64, 64
7, 72575, Note_off_c, 5, 64, 64
7, 72705, Note_on_c, 5, 64, 68
7, 72820, Note_off_c, 5, 64, 64
7, 72955, Note_on_c, 5, 64, 87
7, 73059, Note_on_c, 5, 66, 58
7, 73097, Note_off_c, 5, 64, 64
7, 73184, Note_off_c, 5, 66, 64
7, 73184, Note_on_c, 5, 68, 53
7, 73288, Note_on_c, 5, 64, 68
7, 73293, Note_off_c, 5, 68, 64
7, 73367, Note_off_c, 5, 64, 64
7, 73430, Note_on_c, 5, 69, 68
7, 73999, Note_on_c, 5, 68, 64
7, 74004, Note_off_c, 5, 69, 64
7, 74108, Note_on_c, 5, 66, 60
7, 74120, Note_off_c, 5, 68, 64
7, 74226, Note_on_c, 5, 64, 66
7, 74228, Note_off_c, 5, 66, 64
7, 74314, Note_off_c, 5, 64, 64
7, 74370, Note_on_c, 5, 62, 63
7, 74478, Note_off_c, 5, 62, 64
7, 74647, Note_on_c, 5, 62, 72
7, 74733, Note_off_c, 5, 62, 64
7, 74874, Note_on_c, 5, 62, 80
7, 74987, Note_on_c, 5, 64, 60
7, 75022, Note_off_c, 5, 62, 64
7, 75106, Note_off_c, 5, 64, 64
7, 75117, Note_on_c, 5, 66, 63
7, 75207, Note_off_c, 5, 66, 64
7, 75221, Note_on_c, 5, 62, 78
7, 75275, Note_off_c, 5, 62, 64
7, 75362, Note_on_c, 5, 74, 87
7, 75462, Note_on_c, 5, 73, 64
7, 75486, Note_off_c, 5, 74, 64
7, 75565, Note_off_c, 5, 73, 64
7, 75585, Note_on_c, 5, 74, 82
7, 75677, Note_off_c, 5, 74, 64
7, 75842, Note_on_c, 5, 68, 98
7, 75950, Note_on_c, 5, 66, 62
7, 75968, Note_off_c, 5, 68, 64
7, 76060, Note_off_c, 5, 66, 64
7, 76078, Note_on_c, 5, 68, 64
7, 76200, Note_off_c, 5, 68, 64
7, 76325, Note_on_c, 5, 71, 80
7, 76418, Note_on_c, 5, 69, 66
7, 76447, Note_off_c, 5, 71, 64
7, 76524, Note_off_c, 5, 69, 64
7, 76546, Note_on_c, 5, 71, 82
7, 76656, Note_off_c, 5, 71, 64
7, 76794, Note_on_c, 5, 74, 89
7, 77149, Note_off_c, 5, 74, 64
7, 77266, Note_on_c, 5, 68, 55
7, 77444, Note_off_c, 5, 68, 64
7, 77493, Note_on_c, 5, 68, 60
7, 77630, Note_off_c, 5, 68, 64
7, 77745, Note_on_c, 5, 69, 76
7, 77937, Note_off_c, 5, 69, 64
7, 77977, Note_on_c, 5, 69, 66
7, 78164, Note_off_c, 5, 69, 64
7, 78213, Note_on_c, 5, 66, 63
7, 78409, Note_off_c, 5, 66, 64
7, 78454, Note_on_c, 5, 66, 64
7, 78594, Note_off_c, 5, 66, 64
7, 78699, Note_on_c, 5, 68, 72
7, 78780, Note_off_c, 5, 68, 64
7, 78787, Note_on_c, 5, 69, 70
7, 78912, Note_off_c, 5, 69, 64
7, 78918, Note_on_c, 5, 71, 78
7, 79055, Note_off_c, 5, 71, 64
7, 79160, Note_on_c, 5, 73, 63
7, 79286, Note_off_c, 5, 73, 64
7, 79404, Note_on_c, 5, 76, 78
7, 79534, Note_off_c, 5, 76, 64
7, 79655, Note_on_c, 5, 69, 80
7, 79838, Note_off_c, 5, 69, 64
7, 79885, Note_on_c, 5, 69, 66
7, 80066, Note_off_c, 5, 69, 64
7, 80120, Note_on_c, 5, 69, 70
7, 80331, Note_off_c, 5, 69, 64
7, 80367, Note_on_c, 5, 68, 63
7, 80502, Note_off_c, 5, 68, 64
7, 80622, Note_on_c, 5, 69, 74
7, 80877, Note_off_c, 5, 69, 64
7, 111834, Note_on_c, 5, 69, 95
7, 111963, Note_off_c, 5, 69, 64
7, 112071, Note_on_c, 5, 81, 89
7, 112122, Note_off_c, 5, 81, 64
7, 112181, Note_on_c, 5, 78, 95
7, 112235, Note_off_c, 5, 78, 64
7, 112314, Note_on_c, 5, 79, 100
7, 112575, Note_off_c, 5, 79, 64
7, 112806, Note_on_c, 5, 69, 100
7, 112957, Note_off_c, 5, 69, 64
7, 113038, Note_on_c, 5, 79, 82
7, 113086, Note_off_c, 5, 79, 64
7, 113149, Note_on_c, 5, 76, 80
7, 113191, Note_off_c, 5, 76, 64
7, 113292, Note_on_c, 5, 78, 93
7, 113551, Note_off_c, 5, 78, 64
7, 113787, Note_on_c, 5, 69, 98
7, 113945, Note_off_c, 5, 69, 64
7, 114013, Note_on_c, 5, 76, 82
7, 114058, Note_off_c, 5, 76, 64
7, 114123, Note_on_c, 5, 73, 80
7, 114174, Note_off_c, 5, 73, 64
7, 114251, Note_on_c, 5, 74, 89
7, 114420, Note_off_c, 5, 74, 64
7, 114478, Note_on_c, 5, 73, 82
7, 114537, Note_off_c, 5, 73, 64
7, 114589, Note_on_c, 5, 71, 78
7, 114658, Note_off_c, 5, 71, 64
7, 114714, Note_on_c, 5, 69, 70
7, 114777, Note_off_c, 5, 69, 64
7, 114826, Note_on_c, 5, 71, 68
7, 114894, Note_off_c, 5, 71, 64
7, 114955, Note_on_c, 5, 67, 87
7, 115041, Note_off_c, 5, 67, 64
7, 115183, Note_on_c, 5, 67, 78
7, 115237, Note_on_c, 5, 66, 82
7, 115257, Note_off_c, 5, 67, 64
7, 115272, Note_off_c, 5, 66, 64
7, 115291, Note_on_c, 5, 67, 72
7, 115333, Note_on_c, 5, 66, 62
7, 115374, Note_off_c, 5, 67, 64
7, 115414, Note_on_c, 5, 64, 64
7, 115423, Note_off_c, 5, 66, 64
7, 115491, Note_off_c, 5, 64, 64
7, 115541, Note_on_c, 5, 62, 80
7, 115588, Note_off_c, 5, 62, 64
7, 115662, Note_on_c, 5, 69, 105
7, 115809, Note_off_c, 5, 69, 64
7, 115902, Note_on_c, 5, 81, 82
7, 115948, Note_off_c, 5, 81, 64
7, 116013, Note_on_c, 5, 78, 93
7, 116058, Note_off_c, 5, 78, 64
7, 116146, Note_on_c, 5, 79, 100
7, 116411, Note_off_c, 5, 79, 64
7, 116625, Note_on_c, 5, 69, 100
7, 116794, Note_off_c, 5, 69, 64
7, 116879, Note_on_c, 5, 79, 82
7, 116926, Note_off_c, 5, 79, 64
7, 116992, Note_on_c, 5, 76, 85
7, 117046, Note_off_c, 5, 76, 64
7, 117127, Note_on_c, 5, 78, 89
7, 117388, Note_off_c, 5, 78, 64
7, 117603, Note_on_c, 5, 80, 100
7, 117754, Note_off_c, 5, 80, 64
7, 117824, Note_on_c, 5, 83, 78
7, 117876, Note_off_c, 5, 83, 64
7, 117936, Note_on_c, 5, 80, 82
7, 117979, Note_off_c, 5, 80, 64
7, 118067, Note_on_c, 5, 81, 91
7, 118245, Note_off_c, 5, 81, 64
7, 118310, Note_on_c, 5, 80, 58
7, 118371, Note_off_c, 5, 80, 64
7, 118414, Note_on_c, 5, 78, 52
7, 118479, Note_off_c, 5, 78, 64
7, 118539, Note_on_c, 5, 76, 89
7, 118625, Note_off_c, 5, 76, 64
7, 118656, Note_on_c, 5, 78, 64
7, 118713, Note_off_c, 5, 78, 64
7, 118780, Note_on_c, 5, 74, 82
7, 118882, Note_off_c, 5, 74, 64
7, 119023, Note_on_c, 5, 73, 87
7, 119205, Note_off_c, 5, 73, 64
7, 119244, Note_on_c, 5, 78, 76
7, 119309, Note_off_c, 5, 78, 64
7, 119368, Note_on_c, 5, 74, 66
7, 119422, Note_off_c, 5, 74, 64
7, 119498, Note_on_c, 5, 76, 89
7, 119673, Note_off_c, 5, 76, 64
7, 119739, Note_on_c, 5, 74, 70
7, 119802, Note_off_c, 5, 74, 64
7, 119854, Note_on_c, 5, 73, 89
7, 119911, Note_off_c, 5, 73, 64
7, 119979, Note_on_c, 5, 71, 85
7, 120063, Note_off_c, 5, 71, 64
7, 120090, Note_on_c, 5, 73, 64
7, 120157, Note_off_c, 5, 73, 64
7, 120204, Note_on_c, 5, 69, 74
7, 120277, Note_off_c, 5, 69, 64
7, 120450, Note_on_c, 5, 64, 85
7, 120526, Note_off_c, 5, 64, 64
7, 120706, Note_on_c, 5, 68, 87
7, 120799, Note_off_c, 5, 68, 64
7, 120957, Note_on_c, 5, 69, 89
7, 121221, Note_off_c, 5, 69, 64
7, 121451, Note_on_c, 5, 69, 91
7, 121595, Note_off_c, 5, 69, 64
7, 121667, Note_on_c, 5, 81, 82
7, 121723, Note_off_c, 5, 81, 64
7, 121779, Note_on_c, 5, 78, 91
7, 121827, Note_off_c, 5, 78, 64
7, 121915, Note_on_c, 5, 78, 110
7, 122031, Note_on_c, 5, 79, 82
7, 122036, Note_off_c, 5, 78, 64
7, 122218, Note_off_c, 5, 79, 64
7, 122396, Note_on_c, 5, 69, 100
7, 122536, Note_off_c, 5, 69, 64
7, 122631, Note_on_c, 5, 79, 85
7, 122679, Note_off_c, 5, 79, 64
7, 122745, Note_on_c, 5, 76, 85
7, 122790, Note_off_c, 5, 76, 64
7, 122887, Note_on_c, 5, 76, 100
7, 122992, Note_on_c, 5, 78, 66
7, 123012, Note_off_c, 5, 76, 64
7, 123193, Note_off_c, 5, 78, 64
7, 123379, Note_on_c, 5, 69, 87
7, 123528, Note_off_c, 5, 69, 64
7, 123593, Note_on_c, 5, 76, 76
7, 123647, Note_off_c, 5, 76, 64
7, 123715, Note_on_c, 5, 73, 80
7, 123775, Note_off_c, 5, 73, 64
7, 123838, Note_on_c, 5, 74, 89
7, 124029, Note_off_c, 5, 74, 64
7, 124086, Note_on_c, 5, 73, 61
7, 124151, Note_off_c, 5, 73, 64
7, 124189, Note_on_c, 5, 71, 68
7, 124268, Note_off_c, 5, 71, 64
7, 124308, Note_on_c, 5, 69, 70
7, 124393, Note_off_c, 5, 69, 64
7, 124423, Note_on_c, 5, 71, 66
7, 124493, Note_off_c, 5, 71, 64
7, 124543, Note_on_c, 5, 67, 76
7, 124657, Note_off_c, 5, 67, 64
7, 124783, Note_on_c, 5, 67, 74
7, 124840, Note_on_c, 5, 66, 85
7, 124858, Note_off_c, 5, 67, 64
7, 124880, Note_off_c, 5, 66, 64
7, 124893, Note_on_c, 5, 67, 66
7, 124950, Note_on_c, 5, 66, 68
7, 124988, Note_off_c, 5, 67, 64
7, 125032, Note_on_c, 5, 64, 66
7, 125037, Note_off_c, 5, 66, 64
7, 125107, Note_off_c, 5, 64, 64
7, 125152, Note_on_c, 5, 62, 82
7, 125195, Note_off_c, 5, 62, 64
7, 125274, Note_on_c, 5, 69, 105
7, 125424, Note_off_c, 5, 69, 64
7, 125505, Note_on_c, 5, 81, 78
7, 125555, Note_off_c, 5, 81, 64
7, 125627, Note_on_c, 5, 78, 95
7, 125670, Note_off_c, 5, 78, 64
7, 125746, Note_on_c, 5, 78, 107
7, 125866, Note_on_c, 5, 79, 87
7, 125868, Note_off_c, 5, 78, 64
7, 126072, Note_off_c, 5, 79, 64
7, 126219, Note_on_c, 5, 69, 98
7, 126396, Note_off_c, 5, 69, 64
7, 126464, Note_on_c, 5, 79, 78
7, 126522, Note_off_c, 5, 79, 64
7, 126588, Note_on_c, 5, 76, 72
7, 126635, Note_off_c, 5, 76, 64
7, 126714, Note_on_c, 5, 76, 100
7, 126833, Note_off_c, 5, 76, 64
7, 126833, Note_on_c, 5, 78, 68
7, 127040, Note_off_c, 5, 78, 64
7, 127197, Note_on_c, 5, 80, 98
7, 127351, Note_off_c, 5, 80, 64
7, 127436, Note_on_c, 5, 83, 85
7, 127483, Note_off_c, 5, 83, 64
7, 127546, Note_on_c, 5, 80, 82
7, 127593, Note_off_c, 5, 80, 64
7, 127680, Note_on_c, 5, 81, 87
7, 127863, Note_off_c, 5, 81, 64
7, 127920, Note_on_c, 5, 80, 85
7, 127981, Note_off_c, 5, 80, 64
7, 128025, Note_on_c, 5, 78, 66
7, 128091, Note_off_c, 5, 78, 64
7, 128150, Note_on_c, 5, 76, 82
7, 128224, Note_off_c, 5, 76, 64
7, 128261, Note_on_c, 5, 78, 64
7, 128320, Note_off_c, 5, 78, 64
7, 128392, Note_on_c, 5, 74, 82
7, 128494, Note_off_c, 5, 74, 64
7, 128628, Note_on_c, 5, 73, 87
7, 128802, Note_off_c, 5, 73, 64
7, 128860, Note_on_c, 5, 78, 63
7, 128925, Note_off_c, 5, 78, 64
7, 128980, Note_on_c, 5, 74, 66
7, 129033, Note_off_c, 5, 74, 64
7, 129123, Note_on_c, 5, 76, 91
7, 129294, Note_off_c, 5, 76, 64
7, 129348, Note_on_c, 5, 74, 72
7, 129398, Note_off_c, 5, 74, 64
7, 129466, Note_on_c, 5, 73, 85
7, 129522, Note_off_c, 5, 73, 64
7, 129589, Note_on_c, 5, 71, 89
7, 129682, Note_off_c, 5, 71, 64
7, 129704, Note_on_c, 5, 73, 64
7, 129767, Note_off_c, 5, 73, 64
7, 129835, Note_on_c, 5, 69, 82
7, 129913, Note_off_c, 5, 69, 64
7, 130075, Note_on_c, 5, 64, 85
7, 130143, Note_off_c, 5, 64, 64
7, 130312, Note_on_c, 5, 68, 78
7, 130386, Note_off_c, 5, 68, 64
7, 130554, Note_on_c, 5, 69, 87
7, 130797, Note_off_c, 5, 69, 64
7, 130797, End_track
8, 0, Start_track
8, 0, Title_t, "Violin"
8, 0, Program_c, 6, 40
8, 0, Control_c, 6, 7, 100
8, 483, Note_on_c, 6, 69, 93
8, 627, Note_off_c, 6, 69, 64
8, 713, Note_on_c, 6, 81, 89
8, 767, Note_off_c, 6, 81, 64
8, 828, Note_on_c, 6, 78, 93
8, 879, Note_off_c, 6, 78, 64
8, 958, Note_on_c, 6, 79, 105
8, 1232, Note_off_c, 6, 79, 64
8, 1442, Note_on_c, 6, 69, 87
8, 1588, Note_off_c, 6, 69, 64
8, 1675, Note_on_c, 6, 79, 89
8, 1719, Note_off_c, 6, 79, 64
8, 1793, Note_on_c, 6, 76, 91
8, 1836, Note_off_c, 6, 76, 64
8, 1930, Note_on_c, 6, 78, 100
8, 2198, Note_off_c, 6, 78, 64
8, 2416, Note_on_c, 6, 69, 93
8, 2562, Note_off_c, 6, 69, 64
8, 2623, Note_on_c, 6, 76, 82
8, 2672, Note_off_c, 6, 76, 64
8, 2740, Note_on_c, 6, 73, 82
8, 2787, Note_off_c, 6, 73, 64
8, 2873, Note_on_c, 6, 74, 100
8, 3066, Note_off_c, 6, 74, 64
8, 3118, Note_on_c, 6, 73, 80
8, 3199, Note_off_c, 6, 73, 64
8, 3221, Note_on_c, 6, 71, 76
8, 3293, Note_off_c, 6, 71, 64
8, 3347, Note_on_c, 6, 69, 78
8, 3422, Note_off_c, 6, 69, 64
8, 3456, Note_on_c, 6, 71, 58
8, 3537, Note_off_c, 6, 71, 64
8, 3588, Note_on_c, 6, 67, 87
8, 3683, Note_off_c, 6, 67, 64
8, 3820, Note_on_c, 6, 67, 82
8, 3885, Note_on_c, 6, 66, 91
8, 3903, Note_off_c, 6, 67, 64
8, 3923, Note_off_c, 6, 66, 64
8, 3928, Note_on_c, 6, 67, 68
8, 3984, Note_on_c, 6, 66, 78
8, 4016, Note_off_c, 6, 67, 64
8, 4056, Note_on_c, 6, 64, 60
8, 4063, Note_off_c, 6, 66, 64
8, 4126, Note_off_c, 6, 64, 64
8, 4176, Note_on_c, 6, 62, 91
8, 4220, Note_off_c, 6, 62, 64
8, 4297, Note_on_c, 6, 69, 105
8, 4457, Note_off_c, 6, 69, 64
8, 4533, Note_on_c, 6, 81, 89
8, 4585, Note_off_c, 6, 81, 64
8, 4650, Note_on_c, 6, 78, 95
8, 4704, Note_off_c, 6, 78, 64
8, 4779, Note_on_c, 6, 79, 102
8, 5078, Note_off_c, 6, 79, 64
8, 5275, Note_on_c, 6, 69, 102
8, 5435, Note_off_c, 6, 69, 64
8, 5516, Note_on_c, 6, 79, 85
8, 5568, Note_off_c, 6, 79, 64
8, 5633, Note_on_c, 6, 76, 80
8, 5688, Note_off_c, 6, 76, 64
8, 5764, Note_on_c, 6, 78, 85
8, 6041, Note_off_c, 6, 78, 64
8, 6245, Note_on_c, 6, 80, 91
8, 6426, Note_off_c, 6, 80, 64
8, 6480, Note_on_c, 6, 83, 85
8, 6534, Note_off_c, 6, 83, 64
8, 6601, Note_on_c, 6, 80, 87
8, 6648, Note_off_c, 6, 80, 64
8, 6714, Note_on_c, 6, 81, 93
8, 6889, Note_off_c, 6, 81, 64
8, 6952, Note_on_c, 6, 80, 74
8, 7020, Note_off_c, 6, 80, 64
8, 7058, Note_on_c, 6, 78, 76
8, 7119, Note_off_c, 6, 78, 64
8, 7181, Note_on_c, 6, 76, 82
8, 7253, Note_off_c, 6, 76, 64
8, 7290, Note_on_c, 6, 78, 76
8, 7353, Note_off_c, 6, 78, 64
8, 7427, Note_on_c, 6, 74, 91
8, 7524, Note_off_c, 6, 74, 64
8, 7668, Note_on_c, 6, 73, 82
8, 7852, Note_off_c, 6, 73, 64
8, 7890, Note_on_c, 6, 78, 82
8, 7958, Note_off_c, 6, 78, 64
8, 8005, Note_on_c, 6, 74, 85
8, 8063, Note_off_c, 6, 74, 64
8, 8140, Note_on_c, 6, 76, 98
8, 8327, Note_off_c, 6, 76, 64
8, 8385, Note_on_c, 6, 74, 80
8, 8448, Note_off_c, 6, 74, 64
8, 8498, Note_on_c, 6, 73, 80
8, 8547, Note_off_c, 6, 73, 64
8, 8612, Note_on_c, 6, 71, 85
8, 8708, Note_off_c, 6, 71, 64
8, 8720, Note_on_c, 6, 73, 60
8, 8784, Note_off_c, 6, 73, 64
8, 8851, Note_on_c, 6, 69, 89
8, 8936, Note_off_c, 6, 69, 64
8, 9096, Note_on_c, 6, 64, 87
8, 9180, Note_off_c, 6, 64, 64
8, 9346, Note_on_c, 6, 68, 95
8, 9425, Note_off_c, 6, 68, 64
8, 9598, Note_on_c, 6, 69, 89
8, 9879, Note_off_c, 6, 69, 64
8, 10091, Note_on_c, 6, 69, 89
8, 10241, Note_off_c, 6, 69, 64
8, 10323, Note_on_c, 6, 81, 85
8, 10374, Note_off_c, 6, 81, 64
8, 10431, Note_on_c, 6, 78, 95
8, 10482, Note_off_c, 6, 78, 64
8, 10562, Note_on_c, 6, 78, 110
8, 10678, Note_on_c, 6, 79, 80
8, 10680, Note_off_c, 6, 78, 64
8, 10872, Note_off_c, 6, 79, 64
8, 11042, Note_on_c, 6, 69, 100
8, 11191, Note_off_c, 6, 69, 64
8, 11272, Note_on_c, 6, 79, 89
8, 11324, Note_off_c, 6, 79, 64
8, 11389, Note_on_c, 6, 76, 82
8, 11438, Note_off_c, 6, 76, 64
8, 11520, Note_on_c, 6, 76, 100
8, 11637, Note_on_c, 6, 78, 74
8, 11643, Note_off_c, 6, 76, 64
8, 11846, Note_off_c, 6, 78, 64
8, 12017, Note_on_c, 6, 69, 89
8, 12168, Note_off_c, 6, 69, 64
8, 12233, Note_on_c, 6, 76, 82
8, 12291, Note_off_c, 6, 76, 64
8, 12350, Note_on_c, 6, 73, 80
8, 12401, Note_off_c, 6, 73, 64
8, 12480, Note_on_c, 6, 74, 95
8, 12663, Note_off_c, 6, 74, 64
8, 12721, Note_on_c, 6, 73, 66
8, 12802, Note_off_c, 6, 73, 64
8, 12824, Note_on_c, 6, 71, 70
8, 12905, Note_off_c, 6, 71, 64
8, 12951, Note_on_c, 6, 69, 61
8, 13058, Note_off_c, 6, 69, 64
8, 13061, Note_on_c, 6, 71, 60
8, 13145, Note_off_c, 6, 71, 64
8, 13189, Note_on_c, 6, 67, 87
8, 13299, Note_off_c, 6, 67, 64
8, 13427, Note_on_c, 6, 67, 82
8, 13488, Note_on_c, 6, 66, 89
8, 13506, Note_off_c, 6, 67, 64
8, 13527, Note_off_c, 6, 66, 64
8, 13535, Note_on_c, 6, 67, 78
8, 13590, Note_on_c, 6, 66, 76
8, 13632, Note_off_c, 6, 67, 64
8, 13670, Note_on_c, 6, 64, 80
8, 13680, Note_off_c, 6, 66, 64
8, 13754, Note_off_c, 6, 64, 64
8, 13794, Note_on_c, 6, 62, 85
8, 13839, Note_off_c, 6, 62, 64
8, 13914, Note_on_c, 6, 69, 105
8, 14075, Note_off_c, 6, 69, 64
8, 14144, Note_on_c, 6, 81, 85
8, 14201, Note_off_c, 6, 81, 64
8, 14267, Note_on_c, 6, 78, 91
8, 14318, Note_off_c, 6, 78, 64
8, 14395, Note_on_c, 6, 78, 113
8, 14501, Note_on_c, 6, 79, 85
8, 14519, Note_off_c, 6, 78, 64
8, 14715, Note_off_c, 6, 79, 64
8, 14849, Note_on_c, 6, 69, 89
8, 15009, Note_off_c, 6, 69, 64
8, 15104, Note_on_c, 6, 79, 80
8, 15158, Note_off_c, 6, 79, 64
8, 15218, Note_on_c, 6, 76, 82
8, 15266, Note_off_c, 6, 76, 64
8, 15349, Note_on_c, 6, 76, 105
8, 15471, Note_on_c, 6, 78, 54
8, 15480, Note_off_c, 6, 76, 64
8, 15680, Note_off_c, 6, 78, 64
8, 15833, Note_on_c, 6, 80, 102
8, 16004, Note_off_c, 6, 80, 64
8, 16065, Note_on_c, 6, 83, 85
8, 16119, Note_off_c, 6, 83, 64
8, 16190, Note_on_c, 6, 80, 82
8, 16238, Note_off_c, 6, 80, 64
8, 16312, Note_on_c, 6, 81, 98
8, 16501, Note_off_c, 6, 81, 64
8, 16555, Note_on_c, 6, 80, 68
8, 16622, Note_off_c, 6, 80, 64
8, 16670, Note_on_c, 6, 78, 74
8, 16731, Note_off_c, 6, 78, 64
8, 16794, Note_on_c, 6, 76, 82
8, 16874, Note_off_c, 6, 76, 64
8, 16908, Note_on_c, 6, 78, 62
8, 16965, Note_off_c, 6, 78, 64
8, 17034, Note_on_c, 6, 74, 98
8, 17136, Note_off_c, 6, 74, 64
8, 17277, Note_on_c, 6, 73, 89
8, 17464, Note_off_c, 6, 73, 64
8, 17496, Note_on_c, 6, 78, 66
8, 17568, Note_off_c, 6, 78, 64
8, 17620, Note_on_c, 6, 74, 64
8, 17680, Note_off_c, 6, 74, 64
8, 17751, Note_on_c, 6, 76, 93
8, 17936, Note_off_c, 6, 76, 64
8, 18002, Note_on_c, 6, 74, 80
8, 18060, Note_off_c, 6, 74, 64
8, 18116, Note_on_c, 6, 73, 85
8, 18175, Note_off_c, 6, 73, 64
8, 18233, Note_on_c, 6, 71, 85
8, 18317, Note_off_c, 6, 71, 64
8, 18341, Note_on_c, 6, 73, 57
8, 18418, Note_off_c, 6, 73, 64
8, 18468, Note_on_c, 6, 69, 85
8, 18551, Note_off_c, 6, 69, 64
8, 18711, Note_on_c, 6, 64, 85
8, 18800, Note_off_c, 6, 64, 64
8, 18956, Note_on_c, 6, 68, 91
8, 19032, Note_off_c, 6, 68, 64
8, 19197, Note_on_c, 6, 69, 87
8, 19462, Note_off_c, 6, 69, 64
8, 50401, Note_on_c, 6, 74, 102
8, 50496, Note_on_c, 6, 73, 87
8, 50516, Note_off_c, 6, 74, 64
8, 50621, Note_off_c, 6, 73, 64
8, 50624, Note_on_c, 6, 74, 72
8, 50730, Note_off_c, 6, 74, 64
8, 50878, Note_on_c, 6, 66, 98
8, 50975, Note_on_c, 6, 64, 78
8, 50995, Note_off_c, 6, 66, 64
8, 51092, Note_off_c, 6, 64, 64
8, 51094, Note_on_c, 6, 66, 80
8, 51216, Note_off_c, 6, 66, 64
8, 51355, Note_on_c, 6, 69, 102
8, 51452, Note_on_c, 6, 67, 95
8, 51472, Note_off_c, 6, 69, 64
8, 51560, Note_off_c, 6, 67, 64
8, 51571, Note_on_c, 6, 69, 82
8, 51681, Note_off_c, 6, 69, 64
8, 51814, Note_on_c, 6, 62, 87
8, 52098, Note_off_c, 6, 62, 64
8, 52309, Note_on_c, 6, 74, 76
8, 52417, Note_on_c, 6, 76, 66
8, 52442, Note_off_c, 6, 74, 64
8, 52520, Note_off_c, 6, 76, 64
8, 52543, Note_on_c, 6, 78, 63
8, 52646, Note_on_c, 6, 74, 66
8, 52651, Note_off_c, 6, 78, 64
8, 52739, Note_off_c, 6, 74, 64
8, 52777, Note_on_c, 6, 76, 76
8, 52872, Note_off_c, 6, 76, 64
8, 53011, Note_on_c, 6, 76, 70
8, 53103, Note_off_c, 6, 76, 64
8, 53274, Note_on_c, 6, 76, 95
8, 53378, Note_on_c, 6, 78, 64
8, 53394, Note_off_c, 6, 76, 64
8, 53475, Note_off_c, 6, 78, 64
8, 53501, Note_on_c, 6, 79, 70
8, 53600, Note_off_c, 6, 79, 64
8, 53609, Note_on_c, 6, 76, 62
8, 53691, Note_off_c, 6, 76, 64
8, 53745, Note_on_c, 6, 78, 78
8, 53844, Note_off_c, 6, 78, 64
8, 53976, Note_on_c, 6, 74, 82
8, 54062, Note_off_c, 6, 74, 64
8, 54239, Note_on_c, 6, 74, 105
8, 54336, Note_on_c, 6, 73, 87
8, 54359, Note_off_c, 6, 74, 64
8, 54444, Note_off_c, 6, 73, 64
8, 54459, Note_on_c, 6, 74, 78
8, 54546, Note_off_c, 6, 74, 64
8, 54699, Note_on_c, 6, 66, 100
8, 54797, Note_on_c, 6, 64, 78
8, 54815, Note_off_c, 6, 66, 64
8, 54908, Note_off_c, 6, 64, 64
8, 54930, Note_on_c, 6, 66, 80
8, 55038, Note_off_c, 6, 66, 64
8, 55185, Note_on_c, 6, 69, 89
8, 55283, Note_on_c, 6, 67, 72
8, 55301, Note_off_c, 6, 69, 64
8, 55383, Note_off_c, 6, 67, 64
8, 55401, Note_on_c, 6, 69, 82
8, 55496, Note_off_c, 6, 69, 64
8, 55659, Note_on_c, 6, 62, 89
8, 55947, Note_off_c, 6, 62, 64
8, 56159, Note_on_c, 6, 78, 66
8, 56278, Note_on_c, 6, 76, 66
8, 56309, Note_off_c, 6, 78, 64
8, 56390, Note_on_c, 6, 74, 53
8, 56397, Note_off_c, 6, 76, 64
8, 56507, Note_on_c, 6, 73, 56
8, 56525, Note_off_c, 6, 74, 64
8, 56615, Note_off_c, 6, 73, 64
8, 56615, Note_on_c, 6, 71, 70
8, 56717, Note_off_c, 6, 71, 64
8, 56861, Note_on_c, 6, 71, 70
8, 56949, Note_off_c, 6, 71, 64
8, 57110, Note_on_c, 6, 71, 80
8, 57209, Note_on_c, 6, 73, 56
8, 57248, Note_off_c, 6, 71, 64
8, 57315, Note_off_c, 6, 73, 64
8, 57340, Note_on_c, 6, 74, 68
8, 57430, Note_off_c, 6, 74, 64
8, 57437, Note_on_c, 6, 71, 66
8, 57547, Note_off_c, 6, 71, 64
8, 57588, Note_on_c, 6, 76, 85
8, 57691, Note_off_c, 6, 76, 64
8, 57830, Note_on_c, 6, 64, 78
8, 57939, Note_off_c, 6, 64, 64
8, 58089, Note_on_c, 6, 76, 89
8, 58184, Note_on_c, 6, 74, 74
8, 58218, Note_off_c, 6, 76, 64
8, 58317, Note_on_c, 6, 73, 53
8, 58334, Note_off_c, 6, 74, 64
8, 58429, Note_on_c, 6, 71, 55
8, 58436, Note_off_c, 6, 73, 64
8, 58535, Note_off_c, 6, 71, 64
8, 58548, Note_on_c, 6, 69, 63
8, 58679, Note_off_c, 6, 69, 64
8, 58798, Note_on_c, 6, 69, 70
8, 58901, Note_off_c, 6, 69, 64
8, 59024, Note_on_c, 6, 69, 78
8, 59133, Note_on_c, 6, 71, 64
8, 59163, Note_off_c, 6, 69, 64
8, 59252, Note_off_c, 6, 71, 64
8, 59252, Note_on_c, 6, 73, 51
8, 59354, Note_on_c, 6, 69, 66
8, 59360, Note_off_c, 6, 73, 64
8, 59448, Note_off_c, 6, 69, 64
8, 59481, Note_on_c, 6, 74, 80
8, 59581, Note_off_c, 6, 74, 64
8, 59721, Note_on_c, 6, 62, 76
8, 59797, Note_off_c, 6, 62, 64
8, 59991, Note_on_c, 6, 74, 100
8, 60087, Note_on_c, 6, 73, 102
8, 60107, Note_off_c, 6, 74, 64
8, 60191, Note_off_c, 6, 73, 64
8, 60207, Note_on_c, 6, 74, 82
8, 60303, Note_off_c, 6, 74, 64
8, 60450, Note_on_c, 6, 68, 80
8, 60548, Note_on_c, 6, 66, 62
8, 60573, Note_off_c, 6, 68, 64
8, 60652, Note_off_c, 6, 66, 64
8, 60684, Note_on_c, 6, 68, 74
8, 60783, Note_off_c, 6, 68, 64
8, 60951, Note_on_c, 6, 71, 82
8, 61048, Note_on_c, 6, 69, 78
8, 61075, Note_off_c, 6, 71, 64
8, 61160, Note_off_c, 6, 69, 64
8, 61179, Note_on_c, 6, 71, 85
8, 61259, Note_off_c, 6, 71, 64
8, 61430, Note_on_c, 6, 80, 87
8, 61739, Note_off_c, 6, 80, 64
8, 61899, Note_on_c, 6, 71, 89
8, 62002, Note_on_c, 6, 69, 64
8, 62018, Note_off_c, 6, 71, 64
8, 62126, Note_on_c, 6, 71, 64
8, 62133, Note_off_c, 6, 69, 64
8, 62232, Note_on_c, 6, 74, 78
8, 62238, Note_off_c, 6, 71, 64
8, 62313, Note_off_c, 6, 74, 64
8, 62375, Note_on_c, 6, 73, 85
8, 62475, Note_on_c, 6, 71, 70
8, 62511, Note_off_c, 6, 73, 64
8, 62601, Note_on_c, 6, 73, 51
8, 62630, Note_off_c, 6, 71, 64
8, 62709, Note_off_c, 6, 73, 64
8, 62720, Note_on_c, 6, 76, 70
8, 62798, Note_off_c, 6, 76, 64
8, 62857, Note_on_c, 6, 75, 89
8, 62963, Note_on_c, 6, 73, 59
8, 62978, Note_off_c, 6, 75, 64
8, 63071, Note_on_c, 6, 75, 52
8, 63091, Note_off_c, 6, 73, 64
8, 63192, Note_on_c, 6, 78, 61
8, 63203, Note_off_c, 6, 75, 64
8, 63243, Note_off_c, 6, 78, 64
8, 63320, Note_on_c, 6, 83, 85
8, 63426, Note_on_c, 6, 81, 78
8, 63541, Note_off_c, 6, 83, 64
8, 63552, Note_on_c, 6, 80, 70
8, 63554, Note_off_c, 6, 81, 64
8, 63651, Note_on_c, 6, 78, 78
8, 63671, Note_off_c, 6, 80, 64
8, 63775, Note_off_c, 6, 78, 64
8, 63779, Note_on_c, 6, 76, 66
8, 63894, Note_off_c, 6, 76, 64
8, 64029, Note_on_c, 6, 81, 78
8, 64101, Note_off_c, 6, 81, 64
8, 64277, Note_on_c, 6, 76, 80
8, 64360, Note_off_c, 6, 76, 64
8, 64528, Note_on_c, 6, 81, 87
8, 64612, Note_off_c, 6, 81, 64
8, 64770, Note_on_c, 6, 74, 82
8, 64828, Note_on_c, 6, 73, 76
8, 64847, Note_off_c, 6, 74, 64
8, 64887, Note_on_c, 6, 74, 64
8, 64895, Note_off_c, 6, 73, 64
8, 64938, Note_on_c, 6, 73, 66
8, 64956, Note_off_c, 6, 74, 64
8, 65003, Note_on_c, 6, 71, 76
8, 65031, Note_off_c, 6, 73, 64
8, 65084, Note_off_c, 6, 71, 64
8, 65123, Note_on_c, 6, 73, 76
8, 65190, Note_off_c, 6, 73, 64
8, 65247, Note_on_c, 6, 69, 80
8, 65532, Note_off_c, 6, 69, 64
8, 65739, Note_on_c, 6, 74, 95
8, 65834, Note_on_c, 6, 73, 76
8, 65864, Note_off_c, 6, 74, 64
8, 65957, Note_off_c, 6, 73, 64
8, 65980, Note_on_c, 6, 74, 80
8, 66070, Note_off_c, 6, 74, 64
8, 66230, Note_on_c, 6, 66, 95
8, 66326, Note_on_c, 6, 64, 78
8, 66350, Note_off_c, 6, 66, 64
8, 66448, Note_off_c, 6, 64, 64
8, 66466, Note_on_c, 6, 66, 64
8, 66583, Note_off_c, 6, 66, 64
8, 66716, Note_on_c, 6, 69, 89
8, 66817, Note_on_c, 6, 67, 89
8, 66831, Note_off_c, 6, 69, 64
8, 66920, Note_off_c, 6, 67, 64
8, 66947, Note_on_c, 6, 69, 85
8, 67046, Note_off_c, 6, 69, 64
8, 67188, Note_on_c, 6, 62, 91
8, 67478, Note_off_c, 6, 62, 64
8, 67686, Note_on_c, 6, 74, 78
8, 67787, Note_on_c, 6, 76, 72
8, 67805, Note_off_c, 6, 74, 64
8, 67895, Note_off_c, 6, 76, 64
8, 67908, Note_on_c, 6, 78, 57
8, 68014, Note_on_c, 6, 74, 63
8, 68018, Note_off_c, 6, 78, 64
8, 68118, Note_off_c, 6, 74, 64
8, 68150, Note_on_c, 6, 76, 66
8, 68252, Note_off_c, 6, 76, 64
8, 68388, Note_on_c, 6, 76, 64
8, 68487, Note_off_c, 6, 76, 64
8, 68631, Note_on_c, 6, 76, 78
8, 68727, Note_on_c, 6, 78, 59
8, 68731, Note_off_c, 6, 76, 64
8, 68819, Note_off_c, 6, 78, 64
8, 68855, Note_on_c, 6, 79, 61
8, 68964, Note_off_c, 6, 79, 64
8, 68966, Note_on_c, 6, 76, 58
8, 69051, Note_off_c, 6, 76, 64
8, 69103, Note_on_c, 6, 78, 63
8, 69191, Note_off_c, 6, 78, 64
8, 69344, Note_on_c, 6, 74, 58
8, 69449, Note_off_c, 6, 74, 64
8, 69589, Note_on_c, 6, 74, 102
8, 69699, Note_on_c, 6, 73, 98
8, 69728, Note_off_c, 6, 74, 64
8, 69807, Note_off_c, 6, 73, 64
8, 69818, Note_on_c, 6, 74, 74
8, 69915, Note_off_c, 6, 74, 64
8, 70070, Note_on_c, 6, 66, 105
8, 70165, Note_on_c, 6, 64, 80
8, 70192, Note_off_c, 6, 66, 64
8, 70278, Note_off_c, 6, 64, 64
8, 70288, Note_on_c, 6, 66, 85
8, 70410, Note_off_c, 6, 66, 64
8, 70554, Note_on_c, 6, 69, 98
8, 70649, Note_on_c, 6, 67, 85
8, 70678, Note_off_c, 6, 69, 64
8, 70755, Note_off_c, 6, 67, 64
8, 70773, Note_on_c, 6, 69, 87
8, 70887, Note_off_c, 6, 69, 64
8, 71018, Note_on_c, 6, 62, 93
8, 71303, Note_off_c, 6, 62, 64
8, 71511, Note_on_c, 6, 78, 64
8, 71627, Note_on_c, 6, 76, 70
8, 71666, Note_off_c, 6, 78, 64
8, 71744, Note_on_c, 6, 74, 59
8, 71751, Note_off_c, 6, 76, 64
8, 71859, Note_on_c, 6, 73, 57
8, 71875, Note_off_c, 6, 74, 64
8, 71958, Note_on_c, 6, 71, 63
8, 71983, Note_off_c, 6, 73, 64
8, 72082, Note_off_c, 6, 71, 64
8, 72213, Note_on_c, 6, 71, 64
8, 72320, Note_off_c, 6, 71, 64
8, 72469, Note_on_c, 6, 71, 72
8, 72573, Note_on_c, 6, 73, 58
8, 72588, Note_off_c, 6, 71, 64
8, 72682, Note_on_c, 6, 74, 72
8, 72689, Note_off_c, 6, 73, 64
8, 72797, Note_on_c, 6, 71, 58
8, 72806, Note_off_c, 6, 74, 64
8, 72887, Note_off_c, 6, 71, 64
8, 72942, Note_on_c, 6, 76, 78
8, 73049, Note_off_c, 6, 76, 64
8, 73180, Note_on_c, 6, 64, 74
8, 73274, Note_off_c, 6, 64, 64
8, 73437, Note_on_c, 6, 76, 89
8, 73536, Note_on_c, 6, 74, 80
8, 73569, Note_off_c, 6, 76, 64
8, 73659, Note_on_c, 6, 73, 52
8, 73677, Note_off_c, 6, 74, 64
8, 73769, Note_on_c, 6, 71, 70
8, 73779, Note_off_c, 6, 73, 64
8, 73868, Note_off_c, 6, 71, 64
8, 73898, Note_on_c, 6, 69, 70
8, 74024, Note_off_c, 6, 69, 64
8, 74139, Note_on_c, 6, 69, 70
8, 74258, Note_off_c, 6, 69, 64
8, 74370, Note_on_c, 6, 69, 85
8, 74471, Note_on_c, 6, 71, 70
8, 74499, Note_off_c, 6, 69, 64
8, 74602, Note_on_c, 6, 73, 52
8, 74609, Note_off_c, 6, 71, 64
8, 74708, Note_on_c, 6, 69, 60
8, 74709, Note_off_c, 6, 73, 64
8, 74811, Note_off_c, 6, 69, 64
8, 74836, Note_on_c, 6, 74, 80
8, 74943, Note_off_c, 6, 74, 64
8, 75077, Note_on_c, 6, 62, 68
8, 75178, Note_off_c, 6, 62, 64
8, 75353, Note_on_c, 6, 74, 87
8, 75452, Note_on_c, 6, 73, 82
8, 75475, Note_off_c, 6, 74, 64
8, 75576, Note_off_c, 6, 73, 64
8, 75578, Note_on_c, 6, 74, 82
8, 75675, Note_off_c, 6, 74, 64
8, 75830, Note_on_c, 6, 68, 102
8, 75936, Note_on_c, 6, 66, 70
8, 75959, Note_off_c, 6, 68, 64
8, 76060, Note_on_c, 6, 68, 66
8, 76074, Note_off_c, 6, 66, 64
8, 76173, Note_off_c, 6, 68, 64
8, 76323, Note_on_c, 6, 71, 89
8, 76420, Note_on_c, 6, 69, 78
8, 76443, Note_off_c, 6, 71, 64
8, 76535, Note_off_c, 6, 69, 64
8, 76551, Note_on_c, 6, 71, 87
8, 76629, Note_off_c, 6, 71, 64
8, 76794, Note_on_c, 6, 80, 91
8, 77111, Note_off_c, 6, 80, 64
8, 77266, Note_on_c, 6, 71, 85
8, 77367, Note_on_c, 6, 69, 64
8, 77388, Note_off_c, 6, 71, 64
8, 77489, Note_on_c, 6, 71, 66
8, 77495, Note_off_c, 6, 69, 64
8, 77604, Note_on_c, 6, 74, 70
8, 77610, Note_off_c, 6, 71, 64
8, 77679, Note_off_c, 6, 74, 64
8, 77736, Note_on_c, 6, 73, 89
8, 77838, Note_on_c, 6, 71, 60
8, 77874, Note_off_c, 6, 73, 64
8, 77963, Note_on_c, 6, 73, 52
8, 77988, Note_off_c, 6, 71, 64
8, 78072, Note_off_c, 6, 73, 64
8, 78085, Note_on_c, 6, 76, 68
8, 78168, Note_off_c, 6, 76, 64
8, 78213, Note_on_c, 6, 75, 98
8, 78315, Note_on_c, 6, 73, 53
8, 78338, Note_off_c, 6, 75, 64
8, 78440, Note_on_c, 6, 75, 60
8, 78450, Note_off_c, 6, 73, 64
8, 78553, Note_on_c, 6, 78, 61
8, 78560, Note_off_c, 6, 75, 64
8, 78603, Note_off_c, 6, 78, 64
8, 78693, Note_on_c, 6, 83, 87
8, 78809, Note_on_c, 6, 81, 74
8, 78848, Note_off_c, 6, 83, 64
8, 78924, Note_on_c, 6, 80, 68
8, 78954, Note_off_c, 6, 81, 64
8, 79030, Note_on_c, 6, 78, 64
8, 79055, Note_off_c, 6, 80, 64
8, 79127, Note_off_c, 6, 78, 64
8, 79151, Note_on_c, 6, 76, 64
8, 79266, Note_off_c, 6, 76, 64
8, 79406, Note_on_c, 6, 81, 72
8, 79489, Note_off_c, 6, 81, 64
8, 79651, Note_on_c, 6, 76, 80
8, 79748, Note_off_c, 6, 76, 64
8, 79898, Note_on_c, 6, 81, 76
8, 79973, Note_off_c, 6, 81, 64
8, 80146, Note_on_c, 6, 74, 76
8, 80200, Note_on_c, 6, 73, 58
8, 80214, Note_off_c, 6, 74, 64
8, 80258, Note_on_c, 6, 74, 61
8, 80283, Note_off_c, 6, 73, 64
8, 80322, Note_on_c, 6, 73, 53
8, 80333, Note_off_c, 6, 74, 64
8, 80371, Note_on_c, 6, 71, 80
8, 80394, Note_off_c, 6, 73, 64
8, 80463, Note_off_c, 6, 71, 64
8, 80490, Note_on_c, 6, 73, 78
8, 80556, Note_off_c, 6, 73, 64
8, 80613, Note_on_c, 6, 69, 87
8, 80890, Note_off_c, 6, 69, 64
8, 111843, Note_on_c, 6, 69, 93
8, 111987, Note_off_c, 6, 69, 64
8, 112073, Note_on_c, 6, 81, 89
8, 112127, Note_off_c, 6, 81, 64
8, 112188, Note_on_c, 6, 78, 93
8, 112239, Note_off_c, 6, 78, 64
8, 112318, Note_on_c, 6, 79, 105
8, 112592, Note_off_c, 6, 79, 64
8, 112802, Note_on_c, 6, 69, 87
8, 112948, Note_off_c, 6, 69, 64
8, 113035, Note_on_c, 6, 79, 89
8, 113079, Note_off_c, 6, 79, 64
8, 113153, Note_on_c, 6, 76, 91
8, 113196, Note_off_c, 6, 76, 64
8, 113290, Note_on_c, 6, 78, 100
8, 113558, Note_off_c, 6, 78, 64
8, 113776, Note_on_c, 6, 69, 93
8, 113922, Note_off_c, 6, 69, 64
8, 113983, Note_on_c, 6, 76, 82
8, 114032, Note_off_c, 6, 76, 64
8, 114100, Note_on_c, 6, 73, 82
8, 114147, Note_off_c, 6, 73, 64
8, 114233, Note_on_c, 6, 74, 100
8, 114426, Note_off_c, 6, 74, 64
8, 114478, Note_on_c, 6, 73, 80
8, 114559, Note_off_c, 6, 73, 64
8, 114581, Note_on_c, 6, 71, 76
8, 114653, Note_off_c, 6, 71, 64
8, 114707, Note_on_c, 6, 69, 78
8, 114782, Note_off_c, 6, 69, 64
8, 114816, Note_on_c, 6, 71, 58
8, 114897, Note_off_c, 6, 71, 64
8, 114948, Note_on_c, 6, 67, 87
8, 115043, Note_off_c, 6, 67, 64
8, 115180, Note_on_c, 6, 67, 82
8, 115245, Note_on_c, 6, 66, 91
8, 115263, Note_off_c, 6, 67, 64
8, 115283, Note_off_c, 6, 66, 64
8, 115288, Note_on_c, 6, 67, 68
8, 115344, Note_on_c, 6, 66, 78
8, 115376, Note_off_c, 6, 67, 64
8, 115416, Note_on_c, 6, 64, 60
8, 115423, Note_off_c, 6, 66, 64
8, 115486, Note_off_c, 6, 64, 64
8, 115536, Note_on_c, 6, 62, 91
8, 115580, Note_off_c, 6, 62, 64
8, 115657, Note_on_c, 6, 69, 105
8, 115817, Note_off_c, 6, 69, 64
8, 115893, Note_on_c, 6, 81, 89
8, 115945, Note_off_c, 6, 81, 64
8, 116010, Note_on_c, 6, 78, 95
8, 116064, Note_off_c, 6, 78, 64
8, 116139, Note_on_c, 6, 79, 102
8, 116438, Note_off_c, 6, 79, 64
8, 116635, Note_on_c, 6, 69, 102
8, 116795, Note_off_c, 6, 69, 64
8, 116876, Note_on_c, 6, 79, 85
8, 116928, Note_off_c, 6, 79, 64
8, 116993, Note_on_c, 6, 76, 80
8, 117048, Note_off_c, 6, 76, 64
8, 117124, Note_on_c, 6, 78, 85
8, 117401, Note_off_c, 6, 78, 64
8, 117605, Note_on_c, 6, 80, 91
8, 117786, Note_off_c, 6, 80, 64
8, 117840, Note_on_c, 6, 83, 85
8, 117894, Note_off_c, 6, 83, 64
8, 117961, Note_on_c, 6, 80, 87
8, 118008, Note_off_c, 6, 80, 64
8, 118074, Note_on_c, 6, 81, 93
8, 118249, Note_off_c, 6, 81, 64
8, 118312, Note_on_c, 6, 80, 74
8, 118380, Note_off_c, 6, 80, 64
8, 118418, Note_on_c, 6, 78, 76
8, 118479, Note_off_c, 6, 78, 64
8, 118541, Note_on_c, 6, 76, 82
8, 118613, Note_off_c, 6, 76, 64
8, 118650, Note_on_c, 6, 78, 76
8, 118713, Note_off_c, 6, 78, 64
8, 118787, Note_on_c, 6, 74, 91
8, 118884, Note_off_c, 6, 74, 64
8, 119028, Note_on_c, 6, 73, 82
8, 119212, Note_off_c, 6, 73, 64
8, 119250, Note_on_c, 6, 78, 82
8, 119318, Note_off_c, 6, 78, 64
8, 119365, Note_on_c, 6, 74, 85
8, 119423, Note_off_c, 6, 74, 64
8, 119500, Note_on_c, 6, 76, 98
8, 119687, Note_off_c, 6, 76, 64
8, 119745, Note_on_c, 6, 74, 80
8, 119808, Note_off_c, 6, 74, 64
8, 119858, Note_on_c, 6, 73, 80
8, 119907, Note_off_c, 6, 73, 64
8, 119972, Note_on_c, 6, 71, 85
8, 120068, Note_off_c, 6, 71, 64
8, 120080, Note_on_c, 6, 73, 60
8, 120144, Note_off_c, 6, 73, 64
8, 120211, Note_on_c, 6, 69, 89
8, 120296, Note_off_c, 6, 69, 64
8, 120456, Note_on_c, 6, 64, 87
8, 120540, Note_off_c, 6, 64, 64
8, 120706, Note_on_c, 6, 68, 95
8, 120785, Note_off_c, 6, 68, 64
8, 120958, Note_on_c, 6, 69, 89
8, 121239, Note_off_c, 6, 69, 64
8, 121451, Note_on_c, 6, 69, 89
8, 121601, Note_off_c, 6, 69, 64
8, 121683, Note_on_c, 6, 81, 85
8, 121734, Note_off_c, 6, 81, 64
8, 121791, Note_on_c, 6, 78, 95
8, 121842, Note_off_c, 6, 78, 64
8, 121922, Note_on_c, 6, 78, 110
8, 122038, Note_on_c, 6, 79, 80
8, 122040, Note_off_c, 6, 78, 64
8, 122232, Note_off_c, 6, 79, 64
8, 122402, Note_on_c, 6, 69, 100
8, 122551, Note_off_c, 6, 69, 64
8, 122632, Note_on_c, 6, 79, 89
8, 122684, Note_off_c, 6, 79, 64
8, 122749, Note_on_c, 6, 76, 82
8, 122798, Note_off_c, 6, 76, 64
8, 122880, Note_on_c, 6, 76, 100
8, 122997, Note_on_c, 6, 78, 74
8, 123003, Note_off_c, 6, 76, 64
8, 123206, Note_off_c, 6, 78, 64
8, 123377, Note_on_c, 6, 69, 89
8, 123528, Note_off_c, 6, 69, 64
8, 123593, Note_on_c, 6, 76, 82
8, 123651, Note_off_c, 6, 76, 64
8, 123710, Note_on_c, 6, 73, 80
8, 123761, Note_off_c, 6, 73, 64
8, 123840, Note_on_c, 6, 74, 95
8, 124023, Note_off_c, 6, 74, 64
8, 124081, Note_on_c, 6, 73, 66
8, 124162, Note_off_c, 6, 73, 64
8, 124184, Note_on_c, 6, 71, 70
8, 124265, Note_off_c, 6, 71, 64
8, 124311, Note_on_c, 6, 69, 61
8, 124418, Note_off_c, 6, 69, 64
8, 124421, Note_on_c, 6, 71, 60
8, 124505, Note_off_c, 6, 71, 64
8, 124549, Note_on_c, 6, 67, 87
8, 124659, Note_off_c, 6, 67, 64
8, 124787, Note_on_c, 6, 67, 82
8, 124848, Note_on_c, 6, 66, 89
8, 124866, Note_off_c, 6, 67, 64
8, 124887, Note_off_c, 6, 66, 64
8, 124895, Note_on_c, 6, 67, 78
8, 124950, Note_on_c, 6, 66, 76
8, 124992, Note_off_c, 6, 67, 64
8, 125030, Note_on_c, 6, 64, 80
8, 125040, Note_off_c, 6, 66, 64
8, 125114, Note_off_c, 6, 64, 64
8, 125154, Note_on_c, 6, 62, 85
8, 125199, Note_off_c, 6, 62, 64
8, 125274, Note_on_c, 6, 69, 105
8, 125435, Note_off_c, 6, 69, 64
8, 125504, Note_on_c, 6, 81, 85
8, 125561, Note_off_c, 6, 81, 64
8, 125627, Note_on_c, 6, 78, 91
8, 125678, Note_off_c, 6, 78, 64
8, 125755, Note_on_c, 6, 78, 113
8, 125861, Note_on_c, 6, 79, 85
8, 125879, Note_off_c, 6, 78, 64
8, 126075, Note_off_c, 6, 79, 64
8, 126209, Note_on_c, 6, 69, 89
8, 126369, Note_off_c, 6, 69, 64
8, 126464, Note_on_c, 6, 79, 80
8, 126518, Note_off_c, 6, 79, 64
8, 126578, Note_on_c, 6, 76, 82
8, 126626, Note_off_c, 6, 76, 64
8, 126709, Note_on_c, 6, 76, 105
8, 126831, Note_on_c, 6, 78, 54
8, 126840, Note_off_c, 6, 76, 64
8, 127040, Note_off_c, 6, 78, 64
8, 127193, Note_on_c, 6, 80, 102
8, 127364, Note_off_c, 6, 80, 64
8, 127425, Note_on_c, 6, 83, 85
8, 127479, Note_off_c, 6, 83, 64
8, 127550, Note_on_c, 6, 80, 82
8, 127598, Note_off_c, 6, 80, 64
8, 127672, Note_on_c, 6, 81, 98
8, 127861, Note_off_c, 6, 81, 64
8, 127915, Note_on_c, 6, 80, 68
8, 127982, Note_off_c, 6, 80, 64
8, 128030, Note_on_c, 6, 78, 74
8, 128091, Note_off_c, 6, 78, 64
8, 128154, Note_on_c, 6, 76, 82
8, 128234, Note_off_c, 6, 76, 64
8, 128268, Note_on_c, 6, 78, 62
8, 128325, Note_off_c, 6, 78, 64
8, 128394, Note_on_c, 6, 74, 98
8, 128496, Note_off_c, 6, 74, 64
8, 128637, Note_on_c, 6, 73, 89
8, 128824, Note_off_c, 6, 73, 64
8, 128856, Note_on_c, 6, 78, 66
8, 128928, Note_off_c, 6, 78, 64
8, 128980, Note_on_c, 6, 74, 64
8, 129040, Note_off_c, 6, 74, 64
8, 129111, Note_on_c, 6, 76, 93
8, 129296, Note_off_c, 6, 76, 64
8, 129362, Note_on_c, 6, 74, 80
8, 129420, Note_off_c, 6, 74, 64
8, 129476, Note_on_c, 6, 73, 85
8, 129535, Note_off_c, 6, 73, 64
8, 129593, Note_on_c, 6, 71, 85
8, 129677, Note_off_c, 6, 71, 64
8, 129701, Note_on_c, 6, 73, 57
8, 129778, Note_off_c, 6, 73, 64
8, 129828, Note_on_c, 6, 69, 85
8, 129911, Note_off_c, 6, 69, 64
8, 130071, Note_on_c, 6, 64, 85
8, 130160, Note_off_c, 6, 64, 64
8, 130316, Note_on_c, 6, 68, 91
8, 130392, Note_off_c, 6, 68, 64
8, 130557, Note_on_c, 6, 69, 87
8, 130822, Note_off_c, 6, 69, 64
8, 130822, End_track
9, 0, Start_track
9, 0, Title_t, "Violin"
9, 0, Program_c, 7, 40
9, 0, Control_c, 7, 7, 100
9, 485, Note_on_c, 7, 66, 102
9, 638, Note_off_c, 7, 66, 64
9, 722, Note_on_c, 7, 78, 80
9, 789, Note_off_c, 7, 78, 64
9, 832, Note_on_c, 7, 74, 82
9, 888, Note_off_c, 7, 74, 64
9, 954, Note_on_c, 7, 76, 105
9, 1221, Note_off_c, 7, 76, 64
9, 1430, Note_on_c, 7, 64, 87
9, 1574, Note_off_c, 7, 64, 64
9, 1674, Note_on_c, 7, 76, 91
9, 1725, Note_off_c, 7, 76, 64
9, 1791, Note_on_c, 7, 73, 87
9, 1845, Note_off_c, 7, 73, 64
9, 1917, Note_on_c, 7, 74, 100
9, 2204, Note_off_c, 7, 74, 64
9, 2418, Note_on_c, 7, 62, 91
9, 2501, Note_off_c, 7, 62, 64
9, 2653, Note_on_c, 7, 64, 87
9, 2735, Note_off_c, 7, 64, 64
9, 2868, Note_on_c, 7, 57, 80
9, 2965, Note_off_c, 7, 57, 64
9, 3110, Note_on_c, 7, 62, 82
9, 3201, Note_off_c, 7, 62, 64
9, 3354, Note_on_c, 7, 62, 82
9, 3440, Note_off_c, 7, 62, 64
9, 3584, Note_on_c, 7, 61, 85
9, 3658, Note_off_c, 7, 61, 64
9, 3836, Note_on_c, 7, 57, 80
9, 4117, Note_off_c, 7, 57, 64
9, 4308, Note_on_c, 7, 66, 102
9, 4468, Note_off_c, 7, 66, 64
9, 4549, Note_on_c, 7, 78, 74
9, 4621, Note_off_c, 7, 78, 64
9, 4664, Note_on_c, 7, 74, 72
9, 4725, Note_off_c, 7, 74, 64
9, 4801, Note_on_c, 7, 76, 95
9, 5067, Note_off_c, 7, 76, 64
9, 5291, Note_on_c, 7, 64, 98
9, 5433, Note_off_c, 7, 64, 64
9, 5503, Note_on_c, 7, 76, 76
9, 5566, Note_off_c, 7, 76, 64
9, 5617, Note_on_c, 7, 73, 72
9, 5672, Note_off_c, 7, 73, 64
9, 5757, Note_on_c, 7, 74, 98
9, 6030, Note_off_c, 7, 74, 64
9, 6248, Note_on_c, 7, 74, 87
9, 6344, Note_off_c, 7, 74, 64
9, 6477, Note_on_c, 7, 71, 80
9, 6570, Note_off_c, 7, 71, 64
9, 6713, Note_on_c, 7, 76, 95
9, 6911, Note_off_c, 7, 76, 64
9, 6961, Note_on_c, 7, 74, 78
9, 7033, Note_off_c, 7, 74, 64
9, 7065, Note_on_c, 7, 73, 85
9, 7130, Note_off_c, 7, 73, 64
9, 7184, Note_on_c, 7, 71, 80
9, 7285, Note_off_c, 7, 71, 64
9, 7429, Note_on_c, 7, 68, 68
9, 7526, Note_off_c, 7, 68, 64
9, 7668, Note_on_c, 7, 69, 82
9, 7836, Note_off_c, 7, 69, 64
9, 7911, Note_on_c, 7, 69, 80
9, 8036, Note_off_c, 7, 69, 64
9, 8145, Note_on_c, 7, 69, 80
9, 8235, Note_off_c, 7, 69, 64
9, 8363, Note_on_c, 7, 69, 66
9, 8450, Note_off_c, 7, 69, 64
9, 8610, Note_on_c, 7, 66, 72
9, 8795, Note_off_c, 7, 66, 64
9, 8856, Note_on_c, 7, 66, 64
9, 8961, Note_off_c, 7, 66, 64
9, 9090, Note_on_c, 7, 64, 76
9, 9188, Note_off_c, 7, 64, 64
9, 9353, Note_on_c, 7, 64, 70
9, 9420, Note_off_c, 7, 64, 64
9, 9605, Note_on_c, 7, 64, 95
9, 9881, Note_off_c, 7, 64, 64
9, 10079, Note_on_c, 7, 66, 91
9, 10219, Note_off_c, 7, 66, 64
9, 10307, Note_on_c, 7, 78, 91
9, 10374, Note_off_c, 7, 78, 64
9, 10422, Note_on_c, 7, 74, 91
9, 10482, Note_off_c, 7, 74, 64
9, 10561, Note_on_c, 7, 74, 107
9, 10658, Note_off_c, 7, 74, 64
9, 10664, Note_on_c, 7, 76, 85
9, 10862, Note_off_c, 7, 76, 64
9, 11034, Note_on_c, 7, 64, 100
9, 11178, Note_off_c, 7, 64, 64
9, 11265, Note_on_c, 7, 76, 82
9, 11333, Note_off_c, 7, 76, 64
9, 11382, Note_on_c, 7, 73, 82
9, 11443, Note_off_c, 7, 73, 64
9, 11513, Note_on_c, 7, 73, 100
9, 11627, Note_off_c, 7, 73, 64
9, 11637, Note_on_c, 7, 74, 85
9, 11841, Note_off_c, 7, 74, 64
9, 11999, Note_on_c, 7, 62, 78
9, 12100, Note_off_c, 7, 62, 64
9, 12244, Note_on_c, 7, 64, 80
9, 12334, Note_off_c, 7, 64, 64
9, 12471, Note_on_c, 7, 57, 68
9, 12581, Note_off_c, 7, 57, 64
9, 12701, Note_on_c, 7, 62, 76
9, 12806, Note_off_c, 7, 62, 64
9, 12953, Note_on_c, 7, 62, 85
9, 13052, Note_off_c, 7, 62, 64
9, 13194, Note_on_c, 7, 61, 76
9, 13279, Note_off_c, 7, 61, 64
9, 13443, Note_on_c, 7, 57, 85
9, 13698, Note_off_c, 7, 57, 64
9, 13914, Note_on_c, 7, 66, 95
9, 14100, Note_off_c, 7, 66, 64
9, 14159, Note_on_c, 7, 78, 72
9, 14228, Note_off_c, 7, 78, 64
9, 14265, Note_on_c, 7, 74, 87
9, 14325, Note_off_c, 7, 74, 64
9, 14390, Note_on_c, 7, 74, 98
9, 14503, Note_on_c, 7, 76, 82
9, 14504, Note_off_c, 7, 74, 64
9, 14672, Note_off_c, 7, 76, 64
9, 14856, Note_on_c, 7, 64, 89
9, 15007, Note_off_c, 7, 64, 64
9, 15088, Note_on_c, 7, 76, 80
9, 15162, Note_off_c, 7, 76, 64
9, 15218, Note_on_c, 7, 73, 85
9, 15275, Note_off_c, 7, 73, 64
9, 15342, Note_on_c, 7, 73, 93
9, 15452, Note_off_c, 7, 73, 64
9, 15464, Note_on_c, 7, 74, 78
9, 15651, Note_off_c, 7, 74, 64
9, 15849, Note_on_c, 7, 74, 85
9, 15954, Note_off_c, 7, 74, 64
9, 16080, Note_on_c, 7, 71, 78
9, 16164, Note_off_c, 7, 71, 64
9, 16321, Note_on_c, 7, 76, 85
9, 16510, Note_off_c, 7, 76, 64
9, 16559, Note_on_c, 7, 74, 64
9, 16636, Note_off_c, 7, 74, 64
9, 16665, Note_on_c, 7, 73, 82
9, 16735, Note_off_c, 7, 73, 64
9, 16791, Note_on_c, 7, 71, 82
9, 16897, Note_off_c, 7, 71, 64
9, 17039, Note_on_c, 7, 68, 74
9, 17133, Note_off_c, 7, 68, 64
9, 17284, Note_on_c, 7, 69, 82
9, 17397, Note_off_c, 7, 69, 64
9, 17529, Note_on_c, 7, 69, 68
9, 17637, Note_off_c, 7, 69, 64
9, 17759, Note_on_c, 7, 69, 68
9, 17856, Note_off_c, 7, 69, 64
9, 17993, Note_on_c, 7, 69, 74
9, 18096, Note_off_c, 7, 69, 64
9, 18236, Note_on_c, 7, 66, 59
9, 18342, Note_off_c, 7, 66, 64
9, 18476, Note_on_c, 7, 66, 70
9, 18572, Note_off_c, 7, 66, 64
9, 18715, Note_on_c, 7, 64, 70
9, 18809, Note_off_c, 7, 64, 64
9, 18956, Note_on_c, 7, 64, 82
9, 19043, Note_off_c, 7, 64, 64
9, 19203, Note_on_c, 7, 64, 87
9, 19457, Note_off_c, 7, 64, 64
9, 50419, Note_on_c, 7, 74, 102
9, 50520, Note_on_c, 7, 73, 87
9, 50541, Note_off_c, 7, 74, 64
9, 50639, Note_off_c, 7, 73, 64
9, 50642, Note_on_c, 7, 74, 78
9, 50730, Note_off_c, 7, 74, 64
9, 50891, Note_on_c, 7, 66, 98
9, 50986, Note_on_c, 7, 64, 61
9, 51007, Note_off_c, 7, 66, 64
9, 51096, Note_off_c, 7, 64, 64
9, 51112, Note_on_c, 7, 66, 70
9, 51225, Note_off_c, 7, 66, 64
9, 51360, Note_on_c, 7, 69, 98
9, 51456, Note_on_c, 7, 67, 89
9, 51472, Note_off_c, 7, 69, 64
9, 51562, Note_off_c, 7, 67, 64
9, 51585, Note_on_c, 7, 69, 87
9, 51692, Note_off_c, 7, 69, 64
9, 51828, Note_on_c, 7, 62, 100
9, 52138, Note_off_c, 7, 62, 64
9, 52327, Note_on_c, 7, 69, 64
9, 52421, Note_off_c, 7, 69, 64
9, 52557, Note_on_c, 7, 74, 80
9, 52956, Note_off_c, 7, 74, 64
9, 53024, Note_on_c, 7, 73, 57
9, 53120, Note_off_c, 7, 73, 64
9, 53126, Note_on_c, 7, 71, 68
9, 53213, Note_off_c, 7, 71, 64
9, 53256, Note_on_c, 7, 73, 66
9, 53357, Note_off_c, 7, 73, 64
9, 53369, Note_on_c, 7, 74, 74
9, 53452, Note_off_c, 7, 74, 64
9, 53492, Note_on_c, 7, 76, 82
9, 53578, Note_off_c, 7, 76, 64
9, 53616, Note_on_c, 7, 73, 63
9, 53676, Note_off_c, 7, 73, 64
9, 53738, Note_on_c, 7, 74, 87
9, 53837, Note_off_c, 7, 74, 64
9, 53985, Note_on_c, 7, 69, 66
9, 54069, Note_off_c, 7, 69, 64
9, 54232, Note_on_c, 7, 74, 100
9, 54339, Note_off_c, 7, 74, 64
9, 54343, Note_on_c, 7, 73, 105
9, 54440, Note_off_c, 7, 73, 64
9, 54464, Note_on_c, 7, 74, 98
9, 54557, Note_off_c, 7, 74, 64
9, 54699, Note_on_c, 7, 66, 85
9, 54795, Note_on_c, 7, 64, 64
9, 54822, Note_off_c, 7, 66, 64
9, 54890, Note_off_c, 7, 64, 64
9, 54935, Note_on_c, 7, 66, 87
9, 55041, Note_off_c, 7, 66, 64
9, 55191, Note_on_c, 7, 69, 100
9, 55288, Note_on_c, 7, 67, 98
9, 55302, Note_off_c, 7, 69, 64
9, 55382, Note_off_c, 7, 67, 64
9, 55421, Note_on_c, 7, 69, 87
9, 55508, Note_off_c, 7, 69, 64
9, 55657, Note_on_c, 7, 62, 87
9, 56115, Note_off_c, 7, 62, 64
9, 56611, Note_on_c, 7, 71, 80
9, 56732, Note_on_c, 7, 69, 80
9, 56760, Note_off_c, 7, 71, 64
9, 56849, Note_on_c, 7, 68, 62
9, 56868, Note_off_c, 7, 69, 64
9, 56949, Note_on_c, 7, 66, 60
9, 56966, Note_off_c, 7, 68, 64
9, 57057, Note_off_c, 7, 66, 64
9, 57075, Note_on_c, 7, 64, 66
9, 57192, Note_off_c, 7, 64, 64
9, 57341, Note_on_c, 7, 64, 76
9, 57453, Note_off_c, 7, 64, 64
9, 57596, Note_on_c, 7, 64, 82
9, 57691, Note_on_c, 7, 66, 60
9, 57727, Note_off_c, 7, 64, 64
9, 57803, Note_off_c, 7, 66, 64
9, 57815, Note_on_c, 7, 68, 58
9, 57907, Note_off_c, 7, 68, 64
9, 57925, Note_on_c, 7, 64, 70
9, 58022, Note_off_c, 7, 64, 64
9, 58065, Note_on_c, 7, 69, 89
9, 58172, Note_off_c, 7, 69, 64
9, 58298, Note_on_c, 7, 57, 72
9, 58391, Note_off_c, 7, 57, 64
9, 58551, Note_on_c, 7, 69, 87
9, 58645, Note_on_c, 7, 68, 72
9, 58688, Note_off_c, 7, 69, 64
9, 58776, Note_on_c, 7, 66, 57
9, 58787, Note_off_c, 7, 68, 64
9, 58892, Note_off_c, 7, 66, 64
9, 58893, Note_on_c, 7, 64, 62
9, 58996, Note_off_c, 7, 64, 64
9, 59019, Note_on_c, 7, 62, 80
9, 59144, Note_off_c, 7, 62, 64
9, 59271, Note_on_c, 7, 62, 82
9, 59370, Note_off_c, 7, 62, 64
9, 59522, Note_on_c, 7, 62, 82
9, 59619, Note_on_c, 7, 64, 64
9, 59648, Note_off_c, 7, 62, 64
9, 59712, Note_off_c, 7, 64, 64
9, 59720, Note_on_c, 7, 66, 61
9, 59811, Note_off_c, 7, 66, 64
9, 59831, Note_on_c, 7, 62, 87
9, 59889, Note_off_c, 7, 62, 64
9, 59975, Note_on_c, 7, 74, 85
9, 60076, Note_on_c, 7, 73, 78
9, 60101, Note_off_c, 7, 74, 64
9, 60177, Note_off_c, 7, 73, 64
9, 60207, Note_on_c, 7, 74, 95
9, 60308, Note_off_c, 7, 74, 64
9, 60467, Note_on_c, 7, 68, 102
9, 60562, Note_on_c, 7, 66, 76
9, 60590, Note_off_c, 7, 68, 64
9, 60666, Note_off_c, 7, 66, 64
9, 60697, Note_on_c, 7, 68, 91
9, 60823, Note_off_c, 7, 68, 64
9, 60945, Note_on_c, 7, 71, 80
9, 61050, Note_on_c, 7, 69, 68
9, 61068, Note_off_c, 7, 71, 64
9, 61156, Note_off_c, 7, 69, 64
9, 61176, Note_on_c, 7, 71, 85
9, 61255, Note_off_c, 7, 71, 64
9, 61435, Note_on_c, 7, 74, 93
9, 61781, Note_off_c, 7, 74, 64
9, 61898, Note_on_c, 7, 68, 59
9, 62101, Note_off_c, 7, 68, 64
9, 62137, Note_on_c, 7, 68, 63
9, 62315, Note_off_c, 7, 68, 64
9, 62375, Note_on_c, 7, 69, 64
9, 62567, Note_off_c, 7, 69, 64
9, 62612, Note_on_c, 7, 69, 66
9, 62790, Note_off_c, 7, 69, 64
9, 62850, Note_on_c, 7, 69, 70
9, 63039, Note_off_c, 7, 69, 64
9, 63100, Note_on_c, 7, 69, 78
9, 63240, Note_off_c, 7, 69, 64
9, 63339, Note_on_c, 7, 71, 78
9, 63437, Note_on_c, 7, 73, 60
9, 63447, Note_off_c, 7, 71, 64
9, 63545, Note_off_c, 7, 73, 64
9, 63566, Note_on_c, 7, 74, 85
9, 63669, Note_off_c, 7, 74, 64
9, 63806, Note_on_c, 7, 73, 66
9, 63910, Note_off_c, 7, 73, 64
9, 64041, Note_on_c, 7, 76, 82
9, 64171, Note_off_c, 7, 76, 64
9, 64279, Note_on_c, 7, 73, 63
9, 64378, Note_off_c, 7, 73, 64
9, 64533, Note_on_c, 7, 69, 74
9, 64650, Note_off_c, 7, 69, 64
9, 64774, Note_on_c, 7, 71, 98
9, 64833, Note_off_c, 7, 71, 64
9, 64841, Note_on_c, 7, 69, 60
9, 64880, Note_on_c, 7, 71, 80
9, 64902, Note_off_c, 7, 69, 64
9, 64936, Note_on_c, 7, 69, 76
9, 64947, Note_off_c, 7, 71, 64
9, 65012, Note_on_c, 7, 68, 85
9, 65026, Note_off_c, 7, 69, 64
9, 65091, Note_off_c, 7, 68, 64
9, 65141, Note_on_c, 7, 69, 87
9, 65219, Note_off_c, 7, 69, 64
9, 65269, Note_on_c, 7, 64, 93
9, 65537, Note_off_c, 7, 64, 64
9, 65753, Note_on_c, 7, 74, 102
9, 65849, Note_on_c, 7, 73, 91
9, 65868, Note_off_c, 7, 74, 64
9, 65955, Note_off_c, 7, 73, 64
9, 65978, Note_on_c, 7, 74, 89
9, 66074, Note_off_c, 7, 74, 64
9, 66239, Note_on_c, 7, 66, 91
9, 66336, Note_on_c, 7, 64, 78
9, 66362, Note_off_c, 7, 66, 64
9, 66441, Note_off_c, 7, 64, 64
9, 66468, Note_on_c, 7, 66, 80
9, 66581, Note_off_c, 7, 66, 64
9, 66718, Note_on_c, 7, 69, 82
9, 66813, Note_on_c, 7, 67, 85
9, 66828, Note_off_c, 7, 69, 64
9, 66911, Note_off_c, 7, 67, 64
9, 66950, Note_on_c, 7, 69, 85
9, 67042, Note_off_c, 7, 69, 64
9, 67190, Note_on_c, 7, 62, 78
9, 67528, Note_off_c, 7, 62, 64
9, 67669, Note_on_c, 7, 69, 74
9, 67769, Note_off_c, 7, 69, 64
9, 67919, Note_on_c, 7, 74, 70
9, 68336, Note_off_c, 7, 74, 64
9, 68390, Note_on_c, 7, 73, 62
9, 68493, Note_on_c, 7, 71, 64
9, 68513, Note_off_c, 7, 73, 64
9, 68598, Note_off_c, 7, 71, 64
9, 68624, Note_on_c, 7, 73, 60
9, 68734, Note_off_c, 7, 73, 64
9, 68738, Note_on_c, 7, 74, 72
9, 68824, Note_off_c, 7, 74, 64
9, 68856, Note_on_c, 7, 76, 78
9, 68957, Note_off_c, 7, 76, 64
9, 68973, Note_on_c, 7, 73, 57
9, 69042, Note_off_c, 7, 73, 64
9, 69092, Note_on_c, 7, 74, 82
9, 69184, Note_off_c, 7, 74, 64
9, 69330, Note_on_c, 7, 69, 64
9, 69422, Note_off_c, 7, 69, 64
9, 69591, Note_on_c, 7, 74, 89
9, 69693, Note_on_c, 7, 73, 100
9, 69706, Note_off_c, 7, 74, 64
9, 69794, Note_off_c, 7, 73, 64
9, 69823, Note_on_c, 7, 74, 87
9, 69915, Note_off_c, 7, 74, 64
9, 70064, Note_on_c, 7, 66, 85
9, 70165, Note_on_c, 7, 64, 64
9, 70197, Note_off_c, 7, 66, 64
9, 70282, Note_off_c, 7, 64, 64
9, 70293, Note_on_c, 7, 66, 74
9, 70397, Note_off_c, 7, 66, 64
9, 70541, Note_on_c, 7, 69, 91
9, 70637, Note_on_c, 7, 67, 82
9, 70655, Note_off_c, 7, 69, 64
9, 70741, Note_off_c, 7, 67, 64
9, 70772, Note_on_c, 7, 69, 87
9, 70867, Note_off_c, 7, 69, 64
9, 71020, Note_on_c, 7, 62, 82
9, 71499, Note_off_c, 7, 62, 64
9, 71972, Note_on_c, 7, 71, 70
9, 72096, Note_on_c, 7, 69, 66
9, 72123, Note_off_c, 7, 71, 64
9, 72217, Note_on_c, 7, 68, 57
9, 72240, Note_off_c, 7, 69, 64
9, 72325, Note_on_c, 7, 66, 52
9, 72352, Note_off_c, 7, 68, 64
9, 72440, Note_off_c, 7, 66, 64
9, 72449, Note_on_c, 7, 64, 62
9, 72568, Note_off_c, 7, 64, 64
9, 72705, Note_on_c, 7, 64, 64
9, 72824, Note_off_c, 7, 64, 64
9, 72950, Note_on_c, 7, 64, 87
9, 73049, Note_on_c, 7, 66, 70
9, 73081, Note_off_c, 7, 64, 64
9, 73158, Note_off_c, 7, 66, 64
9, 73180, Note_on_c, 7, 68, 64
9, 73265, Note_off_c, 7, 68, 64
9, 73281, Note_on_c, 7, 64, 66
9, 73378, Note_off_c, 7, 64, 64
9, 73423, Note_on_c, 7, 69, 87
9, 73542, Note_off_c, 7, 69, 64
9, 73664, Note_on_c, 7, 57, 80
9, 73767, Note_off_c, 7, 57, 64
9, 73916, Note_on_c, 7, 69, 87
9, 74013, Note_on_c, 7, 68, 66
9, 74048, Note_off_c, 7, 69, 64
9, 74145, Note_on_c, 7, 66, 60
9, 74174, Note_off_c, 7, 68, 64
9, 74253, Note_on_c, 7, 64, 60
9, 74260, Note_off_c, 7, 66, 64
9, 74348, Note_off_c, 7, 64, 64
9, 74376, Note_on_c, 7, 62, 74
9, 74505, Note_off_c, 7, 62, 64
9, 74624, Note_on_c, 7, 62, 78
9, 74723, Note_off_c, 7, 62, 64
9, 74874, Note_on_c, 7, 62, 91
9, 74973, Note_on_c, 7, 64, 64
9, 75002, Note_off_c, 7, 62, 64
9, 75083, Note_off_c, 7, 64, 64
9, 75097, Note_on_c, 7, 66, 58
9, 75182, Note_off_c, 7, 66, 64
9, 75207, Note_on_c, 7, 62, 68
9, 75264, Note_off_c, 7, 62, 64
9, 75358, Note_on_c, 7, 74, 100
9, 75457, Note_on_c, 7, 73, 82
9, 75484, Note_off_c, 7, 74, 64
9, 75576, Note_off_c, 7, 73, 64
9, 75588, Note_on_c, 7, 74, 85
9, 75677, Note_off_c, 7, 74, 64
9, 75839, Note_on_c, 7, 68, 100
9, 75930, Note_on_c, 7, 66, 63
9, 75961, Note_off_c, 7, 68, 64
9, 76053, Note_off_c, 7, 66, 64
9, 76062, Note_on_c, 7, 68, 70
9, 76184, Note_off_c, 7, 68, 64
9, 76316, Note_on_c, 7, 71, 85
9, 76409, Note_on_c, 7, 69, 78
9, 76431, Note_off_c, 7, 71, 64
9, 76541, Note_off_c, 7, 69, 64
9, 76541, Note_on_c, 7, 71, 80
9, 76636, Note_off_c, 7, 71, 64
9, 76805, Note_on_c, 7, 74, 98
9, 77145, Note_off_c, 7, 74, 64
9, 77273, Note_on_c, 7, 68, 57
9, 77466, Note_off_c, 7, 68, 64
9, 77502, Note_on_c, 7, 68, 64
9, 77635, Note_off_c, 7, 68, 64
9, 77741, Note_on_c, 7, 69, 80
9, 77945, Note_off_c, 7, 69, 64
9, 77982, Note_on_c, 7, 69, 66
9, 78148, Note_off_c, 7, 69, 64
9, 78218, Note_on_c, 7, 69, 76
9, 78380, Note_off_c, 7, 69, 64
9, 78450, Note_on_c, 7, 69, 76
9, 78600, Note_off_c, 7, 69, 64
9, 78704, Note_on_c, 7, 71, 89
9, 78803, Note_on_c, 7, 73, 64
9, 78818, Note_off_c, 7, 71, 64
9, 78899, Note_off_c, 7, 73, 64
9, 78931, Note_on_c, 7, 74, 93
9, 79034, Note_off_c, 7, 74, 64
9, 79174, Note_on_c, 7, 73, 74
9, 79286, Note_off_c, 7, 73, 64
9, 79410, Note_on_c, 7, 76, 89
9, 79541, Note_off_c, 7, 76, 64
9, 79648, Note_on_c, 7, 73, 78
9, 79748, Note_off_c, 7, 73, 64
9, 79892, Note_on_c, 7, 69, 82
9, 80022, Note_off_c, 7, 69, 64
9, 80133, Note_on_c, 7, 71, 95
9, 80187, Note_on_c, 7, 69, 80
9, 80196, Note_off_c, 7, 71, 64
9, 80240, Note_on_c, 7, 71, 72
9, 80252, Note_off_c, 7, 69, 64
9, 80292, Note_on_c, 7, 69, 72
9, 80304, Note_off_c, 7, 71, 64
9, 80358, Note_on_c, 7, 68, 78
9, 80375, Note_off_c, 7, 69, 64
9, 80447, Note_off_c, 7, 68, 64
9, 80483, Note_on_c, 7, 69, 91
9, 80560, Note_off_c, 7, 69, 64
9, 80618, Note_on_c, 7, 64, 91
9, 80922, Note_off_c, 7, 64, 64
9, 111845, Note_on_c, 7, 66, 102
9, 111998, Note_off_c, 7, 66, 64
9, 112082, Note_on_c, 7, 78, 80
9, 112149, Note_off_c, 7, 78, 64
9, 112192, Note_on_c, 7, 74, 82
9, 112248, Note_off_c, 7, 74, 64
9, 112314, Note_on_c, 7, 76, 105
9, 112581, Note_off_c, 7, 76, 64
9, 112790, Note_on_c, 7, 64, 87
9, 112934, Note_off_c, 7, 64, 64
9, 113034, Note_on_c, 7, 76, 91
9, 113085, Note_off_c, 7, 76, 64
9, 113151, Note_on_c, 7, 73, 87
9, 113205, Note_off_c, 7, 73, 64
9, 113277, Note_on_c, 7, 74, 100
9, 113564, Note_off_c, 7, 74, 64
9, 113778, Note_on_c, 7, 62, 91
9, 113861, Note_off_c, 7, 62, 64
9, 114013, Note_on_c, 7, 64, 87
9, 114095, Note_off_c, 7, 64, 64
9, 114228, Note_on_c, 7, 57, 80
9, 114325, Note_off_c, 7, 57, 64
9, 114470, Note_on_c, 7, 62, 82
9, 114561, Note_off_c, 7, 62, 64
9, 114714, Note_on_c, 7, 62, 82
9, 114800, Note_off_c, 7, 62, 64
9, 114944, Note_on_c, 7, 61, 85
9, 115018, Note_off_c, 7, 61, 64
9, 115196, Note_on_c, 7, 57, 80
9, 115477, Note_off_c, 7, 57, 64
9, 115668, Note_on_c, 7, 66, 102
9, 115828, Note_off_c, 7, 66, 64
9, 115909, Note_on_c, 7, 78, 74
9, 115981, Note_off_c, 7, 78, 64
9, 116024, Note_on_c, 7, 74, 72
9, 116085, Note_off_c, 7, 74, 64
9, 116161, Note_on_c, 7, 76, 95
9, 116427, Note_off_c, 7, 76, 64
9, 116651, Note_on_c, 7, 64, 98
9, 116793, Note_off_c, 7, 64, 64
9, 116863, Note_on_c, 7, 76, 76
9, 116926, Note_off_c, 7, 76, 64
9, 116977, Note_on_c, 7, 73, 72
9, 117032, Note_off_c, 7, 73, 64
9, 117117, Note_on_c, 7, 74, 98
9, 117390, Note_off_c, 7, 74, 64
9, 117608, Note_on_c, 7, 74, 87
9, 117704, Note_off_c, 7, 74, 64
9, 117837, Note_on_c, 7, 71, 80
9, 117930, Note_off_c, 7, 71, 64
9, 118073, Note_on_c, 7, 76, 95
9, 118271, Note_off_c, 7, 76, 64
9, 118321, Note_on_c, 7, 74, 78
9, 118393, Note_off_c, 7, 74, 64
9, 118425, Note_on_c, 7, 73, 85
9, 118490, Note_off_c, 7, 73, 64
9, 118544, Note_on_c, 7, 71, 80
9, 118645, Note_off_c, 7, 71, 64
9, 118789, Note_on_c, 7, 68, 68
9, 118886, Note_off_c, 7, 68, 64
9, 119028, Note_on_c, 7, 69, 82
9, 119196, Note_off_c, 7, 69, 64
9, 119271, Note_on_c, 7, 69, 80
9, 119396, Note_off_c, 7, 69, 64
9, 119505, Note_on_c, 7, 69, 80
9, 119595, Note_off_c, 7, 69, 64
9, 119723, Note_on_c, 7, 69, 66
9, 119810, Note_off_c, 7, 69, 64
9, 119970, Note_on_c, 7, 66, 72
9, 120155, Note_off_c, 7, 66, 64
9, 120216, Note_on_c, 7, 66, 64
9, 120321, Note_off_c, 7, 66, 64
9, 120450, Note_on_c, 7, 64, 76
9, 120548, Note_off_c, 7, 64, 64
9, 120713, Note_on_c, 7, 64, 70
9, 120780, Note_off_c, 7, 64, 64
9, 120965, Note_on_c, 7, 64, 95
9, 121241, Note_off_c, 7, 64, 64
9, 121439, Note_on_c, 7, 66, 91
9, 121579, Note_off_c, 7, 66, 64
9, 121667, Note_on_c, 7, 78, 91
9, 121734, Note_off_c, 7, 78, 64
9, 121782, Note_on_c, 7, 74, 91
9, 121842, Note_off_c, 7, 74, 64
9, 121921, Note_on_c, 7, 74, 107
9, 122018, Note_off_c, 7, 74, 64
9, 122024, Note_on_c, 7, 76, 85
9, 122222, Note_off_c, 7, 76, 64
9, 122394, Note_on_c, 7, 64, 100
9, 122538, Note_off_c, 7, 64, 64
9, 122625, Note_on_c, 7, 76, 82
9, 122693, Note_off_c, 7, 76, 64
9, 122742, Note_on_c, 7, 73, 82
9, 122803, Note_off_c, 7, 73, 64
9, 122873, Note_on_c, 7, 73, 100
9, 122987, Note_off_c, 7, 73, 64
9, 122997, Note_on_c, 7, 74, 85
9, 123201, Note_off_c, 7, 74, 64
9, 123359, Note_on_c, 7, 62, 78
9, 123460, Note_off_c, 7, 62, 64
9, 123604, Note_on_c, 7, 64, 80
9, 123694, Note_off_c, 7, 64, 64
9, 123831, Note_on_c, 7, 57, 68
9, 123941, Note_off_c, 7, 57, 64
9, 124061, Note_on_c, 7, 62, 76
9, 124166, Note_off_c, 7, 62, 64
9, 124313, Note_on_c, 7, 62, 85
9, 124412, Note_off_c, 7, 62, 64
9, 124554, Note_on_c, 7, 61, 76
9, 124639, Note_off_c, 7, 61, 64
9, 124803, Note_on_c, 7, 57, 85
9, 125058, Note_off_c, 7, 57, 64
9, 125274, Note_on_c, 7, 66, 95
9, 125460, Note_off_c, 7, 66, 64
9, 125519, Note_on_c, 7, 78, 72
9, 125588, Note_off_c, 7, 78, 64
9, 125625, Note_on_c, 7, 74, 87
9, 125685, Note_off_c, 7, 74, 64
9, 125750, Note_on_c, 7, 74, 98
9, 125863, Note_on_c, 7, 76, 82
9, 125864, Note_off_c, 7, 74, 64
9, 126032, Note_off_c, 7, 76, 64
9, 126216, Note_on_c, 7, 64, 89
9, 126367, Note_off_c, 7, 64, 64
9, 126448, Note_on_c, 7, 76, 80
9, 126522, Note_off_c, 7, 76, 64
9, 126578, Note_on_c, 7, 73, 85
9, 126635, Note_off_c, 7, 73, 64
9, 126702, Note_on_c, 7, 73, 93
9, 126812, Note_off_c, 7, 73, 64
9, 126824, Note_on_c, 7, 74, 78
9, 127011, Note_off_c, 7, 74, 64
9, 127209, Note_on_c, 7, 74, 85
9, 127314, Note_off_c, 7, 74, 64
9, 127440, Note_on_c, 7, 71, 78
9, 127524, Note_off_c, 7, 71, 64
9, 127681, Note_on_c, 7, 76, 85
9, 127870, Note_off_c, 7, 76, 64
9, 127919, Note_on_c, 7, 74, 64
9, 127996, Note_off_c, 7, 74, 64
9, 128025, Note_on_c, 7, 73, 82
9, 128095, Note_off_c, 7, 73, 64
9, 128151, Note_on_c, 7, 71, 82
9, 128257, Note_off_c, 7, 71, 64
9, 128399, Note_on_c, 7, 68, 74
9, 128493, Note_off_c, 7, 68, 64
9, 128644, Note_on_c, 7, 69, 82
9, 128757, Note_off_c, 7, 69, 64
9, 128889, Note_on_c, 7, 69, 68
9, 128997, Note_off_c, 7, 69, 64
9, 129119, Note_on_c, 7, 69, 68
9, 129216, Note_off_c, 7, 69, 64
9, 129353, Note_on_c, 7, 69, 74
9, 129456, Note_off_c, 7, 69, 64
9, 129596, Note_on_c, 7, 66, 59
9, 129702, Note_off_c, 7, 66, 64
9, 129836, Note_on_c, 7, 66, 70
9, 129932, Note_off_c, 7, 66, 64
9, 130075, Note_on_c, 7, 64, 70
9, 130169, Note_off_c, 7, 64, 64
9, 130316, Note_on_c, 7, 64, 82
9, 130403, Note_off_c, 7, 64, 64
9, 130563, Note_on_c, 7, 64, 87
9, 130817, Note_off_c, 7, 64, 64
9, 130817, End_track
10, 0, Start_track
10, 0, Title_t, "Viola"
10, 0, Program_c, 8, 41
10, 0, Control_c, 8, 7, 100
10, 476, Note_on_c, 8, 62, 93
10, 609, Note_off_c, 8, 62, 64
10, 724, Note_on_c, 8, 62, 100
10, 796, Note_off_c, 8, 62, 64
10, 967, Note_on_c, 8, 69, 98
10, 1237, Note_off_c, 8, 69, 64
10, 1451, Note_on_c, 8, 69, 91
10, 1610, Note_off_c, 8, 69, 64
10, 1694, Note_on_c, 8, 69, 100
10, 1764, Note_off_c, 8, 69, 64
10, 1939, Note_on_c, 8, 69, 110
10, 2202, Note_off_c, 8, 69, 64
10, 2418, Note_on_c, 8, 69, 89
10, 2501, Note_off_c, 8, 69, 64
10, 2652, Note_on_c, 8, 61, 82
10, 2745, Note_off_c, 8, 61, 64
10, 2880, Note_on_c, 8, 66, 82
10, 2983, Note_off_c, 8, 66, 64
10, 3119, Note_on_c, 8, 64, 85
10, 3219, Note_off_c, 8, 64, 64
10, 3361, Note_on_c, 8, 66, 87
10, 3446, Note_off_c, 8, 66, 64
10, 3590, Note_on_c, 8, 64, 82
10, 3665, Note_off_c, 8, 64, 64
10, 3842, Note_on_c, 8, 62, 87
10, 4130, Note_off_c, 8, 62, 64
10, 4310, Note_on_c, 8, 62, 102
10, 4427, Note_off_c, 8, 62, 64
10, 4562, Note_on_c, 8, 62, 100
10, 4635, Note_off_c, 8, 62, 64
10, 4790, Note_on_c, 8, 69, 91
10, 5080, Note_off_c, 8, 69, 64
10, 5273, Note_on_c, 8, 69, 87
10, 5381, Note_off_c, 8, 69, 64
10, 5517, Note_on_c, 8, 69, 87
10, 5604, Note_off_c, 8, 69, 64
10, 5757, Note_on_c, 8, 69, 89
10, 6045, Note_off_c, 8, 69, 64
10, 6245, Note_on_c, 8, 71, 89
10, 6336, Note_off_c, 8, 71, 64
10, 6480, Note_on_c, 8, 68, 68
10, 6581, Note_off_c, 8, 68, 64
10, 6713, Note_on_c, 8, 64, 78
10, 6806, Note_off_c, 8, 64, 64
10, 6963, Note_on_c, 8, 64, 80
10, 7058, Note_off_c, 8, 64, 64
10, 7209, Note_on_c, 8, 64, 82
10, 7310, Note_off_c, 8, 64, 64
10, 7445, Note_on_c, 8, 64, 80
10, 7532, Note_off_c, 8, 64, 64
10, 7686, Note_on_c, 8, 64, 89
10, 7843, Note_off_c, 8, 64, 64
10, 7919, Note_on_c, 8, 62, 82
10, 8005, Note_off_c, 8, 62, 64
10, 8142, Note_on_c, 8, 57, 76
10, 8230, Note_off_c, 8, 57, 64
10, 8380, Note_on_c, 8, 57, 78
10, 8482, Note_off_c, 8, 57, 64
10, 8626, Note_on_c, 8, 62, 85
10, 8801, Note_off_c, 8, 62, 64
10, 8862, Note_on_c, 8, 62, 82
10, 8943, Note_off_c, 8, 62, 64
10, 9089, Note_on_c, 8, 61, 80
10, 9171, Note_off_c, 8, 61, 64
10, 9339, Note_on_c, 8, 59, 82
10, 9418, Note_off_c, 8, 59, 64
10, 9607, Note_on_c, 8, 61, 80
10, 9879, Note_off_c, 8, 61, 64
10, 10075, Note_on_c, 8, 62, 91
10, 10215, Note_off_c, 8, 62, 64
10, 10329, Note_on_c, 8, 62, 100
10, 10395, Note_off_c, 8, 62, 64
10, 10559, Note_on_c, 8, 69, 85
10, 10833, Note_off_c, 8, 69, 64
10, 11049, Note_on_c, 8, 69, 87
10, 11220, Note_off_c, 8, 69, 64
10, 11290, Note_on_c, 8, 69, 95
10, 11371, Note_off_c, 8, 69, 64
10, 11528, Note_on_c, 8, 69, 102
10, 11812, Note_off_c, 8, 69, 64
10, 12016, Note_on_c, 8, 69, 87
10, 12123, Note_off_c, 8, 69, 64
10, 12255, Note_on_c, 8, 61, 74
10, 12332, Note_off_c, 8, 61, 64
10, 12489, Note_on_c, 8, 66, 89
10, 12649, Note_off_c, 8, 66, 64
10, 12726, Note_on_c, 8, 64, 74
10, 12822, Note_off_c, 8, 64, 64
10, 12957, Note_on_c, 8, 66, 82
10, 13032, Note_off_c, 8, 66, 64
10, 13189, Note_on_c, 8, 64, 82
10, 13271, Note_off_c, 8, 64, 64
10, 13441, Note_on_c, 8, 62, 89
10, 13713, Note_off_c, 8, 62, 64
10, 13911, Note_on_c, 8, 62, 100
10, 14082, Note_off_c, 8, 62, 64
10, 14165, Note_on_c, 8, 62, 100
10, 14244, Note_off_c, 8, 62, 64
10, 14400, Note_on_c, 8, 69, 91
10, 14681, Note_off_c, 8, 69, 64
10, 14876, Note_on_c, 8, 69, 87
10, 15030, Note_off_c, 8, 69, 64
10, 15126, Note_on_c, 8, 69, 93
10, 15182, Note_off_c, 8, 69, 64
10, 15354, Note_on_c, 8, 69, 100
10, 15660, Note_off_c, 8, 69, 64
10, 15839, Note_on_c, 8, 71, 82
10, 15918, Note_off_c, 8, 71, 64
10, 16083, Note_on_c, 8, 68, 68
10, 16163, Note_off_c, 8, 68, 64
10, 16305, Note_on_c, 8, 64, 85
10, 16487, Note_off_c, 8, 64, 64
10, 16564, Note_on_c, 8, 64, 60
10, 16663, Note_off_c, 8, 64, 64
10, 16803, Note_on_c, 8, 64, 80
10, 16890, Note_off_c, 8, 64, 64
10, 17034, Note_on_c, 8, 64, 82
10, 17120, Note_off_c, 8, 64, 64
10, 17286, Note_on_c, 8, 64, 89
10, 17419, Note_off_c, 8, 64, 64
10, 17514, Note_on_c, 8, 62, 68
10, 17610, Note_off_c, 8, 62, 64
10, 17743, Note_on_c, 8, 57, 74
10, 17831, Note_off_c, 8, 57, 64
10, 17995, Note_on_c, 8, 57, 85
10, 18092, Note_off_c, 8, 57, 64
10, 18238, Note_on_c, 8, 62, 85
10, 18414, Note_off_c, 8, 62, 64
10, 18463, Note_on_c, 8, 62, 80
10, 18550, Note_off_c, 8, 62, 64
10, 18699, Note_on_c, 8, 61, 78
10, 18776, Note_off_c, 8, 61, 64
10, 18940, Note_on_c, 8, 59, 80
10, 19010, Note_off_c, 8, 59, 64
10, 19197, Note_on_c, 8, 61, 98
10, 19458, Note_off_c, 8, 61, 64
10, 50417, Note_on_c, 8, 74, 102
10, 50522, Note_on_c, 8, 73, 95
10, 50545, Note_off_c, 8, 74, 64
10, 50624, Note_off_c, 8, 73, 64
10, 50637, Note_on_c, 8, 74, 95
10, 50743, Note_off_c, 8, 74, 64
10, 50880, Note_on_c, 8, 66, 82
10, 50979, Note_on_c, 8, 64, 78
10, 50999, Note_off_c, 8, 66, 64
10, 51078, Note_off_c, 8, 64, 64
10, 51103, Note_on_c, 8, 66, 98
10, 51222, Note_off_c, 8, 66, 64
10, 51350, Note_on_c, 8, 69, 91
10, 51447, Note_on_c, 8, 67, 93
10, 51461, Note_off_c, 8, 69, 64
10, 51555, Note_off_c, 8, 67, 64
10, 51576, Note_on_c, 8, 69, 85
10, 51693, Note_off_c, 8, 69, 64
10, 51819, Note_on_c, 8, 62, 80
10, 51927, Note_off_c, 8, 62, 64
10, 52053, Note_on_c, 8, 64, 72
10, 52165, Note_off_c, 8, 64, 64
10, 52295, Note_on_c, 8, 66, 80
10, 52424, Note_off_c, 8, 66, 64
10, 52532, Note_on_c, 8, 62, 82
10, 52631, Note_off_c, 8, 62, 64
10, 52761, Note_on_c, 8, 67, 80
10, 52878, Note_off_c, 8, 67, 64
10, 53002, Note_on_c, 8, 64, 78
10, 53096, Note_off_c, 8, 64, 64
10, 53247, Note_on_c, 8, 69, 85
10, 53355, Note_off_c, 8, 69, 64
10, 53483, Note_on_c, 8, 57, 74
10, 53558, Note_off_c, 8, 57, 64
10, 53722, Note_on_c, 8, 62, 80
10, 53825, Note_off_c, 8, 62, 64
10, 53970, Note_on_c, 8, 66, 78
10, 54039, Note_off_c, 8, 66, 64
10, 54228, Note_on_c, 8, 74, 89
10, 54329, Note_on_c, 8, 73, 82
10, 54341, Note_off_c, 8, 74, 64
10, 54433, Note_off_c, 8, 73, 64
10, 54453, Note_on_c, 8, 74, 89
10, 54546, Note_off_c, 8, 74, 64
10, 54695, Note_on_c, 8, 66, 85
10, 54806, Note_on_c, 8, 64, 82
10, 54816, Note_off_c, 8, 66, 64
10, 54905, Note_off_c, 8, 64, 64
10, 54935, Note_on_c, 8, 66, 89
10, 55034, Note_off_c, 8, 66, 64
10, 55182, Note_on_c, 8, 69, 87
10, 55283, Note_on_c, 8, 67, 85
10, 55301, Note_off_c, 8, 69, 64
10, 55392, Note_off_c, 8, 67, 64
10, 55414, Note_on_c, 8, 69, 78
10, 55491, Note_off_c, 8, 69, 64
10, 55657, Note_on_c, 8, 62, 80
10, 55761, Note_off_c, 8, 62, 64
10, 55770, Note_on_c, 8, 64, 78
10, 55893, Note_on_c, 8, 66, 68
10, 55907, Note_off_c, 8, 64, 64
10, 56012, Note_on_c, 8, 64, 68
10, 56035, Note_off_c, 8, 66, 64
10, 56121, Note_on_c, 8, 62, 82
10, 56138, Note_off_c, 8, 64, 64
10, 56231, Note_off_c, 8, 62, 64
10, 56231, Note_on_c, 8, 61, 80
10, 56312, Note_off_c, 8, 61, 64
10, 56346, Note_on_c, 8, 59, 61
10, 56444, Note_off_c, 8, 59, 64
10, 56458, Note_on_c, 8, 57, 80
10, 56568, Note_off_c, 8, 57, 64
10, 56595, Note_on_c, 8, 56, 74
10, 56723, Note_off_c, 8, 56, 64
10, 56843, Note_on_c, 8, 71, 87
10, 56955, Note_on_c, 8, 69, 80
10, 56975, Note_off_c, 8, 71, 64
10, 57075, Note_on_c, 8, 68, 70
10, 57088, Note_off_c, 8, 69, 64
10, 57194, Note_on_c, 8, 66, 74
10, 57215, Note_off_c, 8, 68, 64
10, 57318, Note_on_c, 8, 64, 66
10, 57333, Note_off_c, 8, 66, 64
10, 57428, Note_on_c, 8, 62, 70
10, 57453, Note_off_c, 8, 64, 64
10, 57540, Note_off_c, 8, 62, 64
10, 57552, Note_on_c, 8, 61, 78
10, 57662, Note_off_c, 8, 61, 64
10, 57677, Note_on_c, 8, 62, 78
10, 57794, Note_off_c, 8, 62, 64
10, 57803, Note_on_c, 8, 64, 72
10, 57921, Note_on_c, 8, 62, 78
10, 57948, Note_off_c, 8, 64, 64
10, 58037, Note_on_c, 8, 61, 76
10, 58065, Note_off_c, 8, 62, 64
10, 58163, Note_on_c, 8, 59, 70
10, 58173, Note_off_c, 8, 61, 64
10, 58270, Note_off_c, 8, 59, 64
10, 58276, Note_on_c, 8, 57, 60
10, 58391, Note_off_c, 8, 57, 64
10, 58397, Note_on_c, 8, 56, 85
10, 58494, Note_off_c, 8, 56, 64
10, 58526, Note_on_c, 8, 54, 87
10, 58681, Note_off_c, 8, 54, 64
10, 58785, Note_on_c, 8, 69, 89
10, 58896, Note_on_c, 8, 68, 64
10, 58917, Note_off_c, 8, 69, 64
10, 59003, Note_off_c, 8, 68, 64
10, 59018, Note_on_c, 8, 66, 76
10, 59140, Note_on_c, 8, 64, 74
10, 59165, Note_off_c, 8, 66, 64
10, 59259, Note_off_c, 8, 64, 64
10, 59264, Note_on_c, 8, 62, 66
10, 59365, Note_on_c, 8, 61, 60
10, 59381, Note_off_c, 8, 62, 64
10, 59480, Note_off_c, 8, 61, 64
10, 59498, Note_on_c, 8, 59, 80
10, 59613, Note_on_c, 8, 61, 85
10, 59619, Note_off_c, 8, 59, 64
10, 59696, Note_off_c, 8, 61, 64
10, 59739, Note_on_c, 8, 62, 82
10, 59815, Note_off_c, 8, 62, 64
10, 59844, Note_on_c, 8, 59, 85
10, 59901, Note_off_c, 8, 59, 64
10, 59990, Note_on_c, 8, 74, 89
10, 60083, Note_on_c, 8, 73, 89
10, 60112, Note_off_c, 8, 74, 64
10, 60179, Note_off_c, 8, 73, 64
10, 60204, Note_on_c, 8, 74, 82
10, 60319, Note_off_c, 8, 74, 64
10, 60458, Note_on_c, 8, 68, 87
10, 60553, Note_on_c, 8, 66, 78
10, 60580, Note_off_c, 8, 68, 64
10, 60659, Note_off_c, 8, 66, 64
10, 60690, Note_on_c, 8, 68, 93
10, 60807, Note_off_c, 8, 68, 64
10, 60939, Note_on_c, 8, 71, 89
10, 61043, Note_on_c, 8, 69, 85
10, 61057, Note_off_c, 8, 71, 64
10, 61143, Note_off_c, 8, 69, 64
10, 61178, Note_on_c, 8, 71, 85
10, 61268, Note_off_c, 8, 71, 64
10, 61420, Note_on_c, 8, 71, 102
10, 61797, Note_off_c, 8, 71, 64
10, 61892, Note_on_c, 8, 64, 72
10, 62074, Note_off_c, 8, 64, 64
10, 62119, Note_on_c, 8, 64, 64
10, 62295, Note_off_c, 8, 64, 64
10, 62364, Note_on_c, 8, 64, 72
10, 62529, Note_off_c, 8, 64, 64
10, 62600, Note_on_c, 8, 64, 78
10, 62796, Note_off_c, 8, 64, 64
10, 62848, Note_on_c, 8, 66, 82
10, 63032, Note_off_c, 8, 66, 64
10, 63093, Note_on_c, 8, 66, 64
10, 63249, Note_off_c, 8, 66, 64
10, 63330, Note_on_c, 8, 68, 80
10, 63433, Note_on_c, 8, 69, 82
10, 63440, Note_off_c, 8, 68, 64
10, 63536, Note_off_c, 8, 69, 64
10, 63554, Note_on_c, 8, 71, 85
10, 63681, Note_off_c, 8, 71, 64
10, 63800, Note_on_c, 8, 73, 85
10, 63917, Note_off_c, 8, 73, 64
10, 64040, Note_on_c, 8, 69, 82
10, 64130, Note_off_c, 8, 69, 64
10, 64279, Note_on_c, 8, 69, 80
10, 64394, Note_off_c, 8, 69, 64
10, 64515, Note_on_c, 8, 64, 82
10, 64635, Note_off_c, 8, 64, 64
10, 64758, Note_on_c, 8, 66, 82
10, 64826, Note_on_c, 8, 64, 66
10, 64833, Note_off_c, 8, 66, 64
10, 64878, Note_on_c, 8, 66, 66
10, 64895, Note_off_c, 8, 64, 64
10, 64925, Note_on_c, 8, 64, 68
10, 64947, Note_off_c, 8, 66, 64
10, 64997, Note_on_c, 8, 62, 89
10, 65022, Note_off_c, 8, 64, 64
10, 65089, Note_off_c, 8, 62, 64
10, 65123, Note_on_c, 8, 64, 85
10, 65201, Note_off_c, 8, 64, 64
10, 65252, Note_on_c, 8, 61, 87
10, 65537, Note_off_c, 8, 61, 64
10, 65751, Note_on_c, 8, 74, 82
10, 65854, Note_on_c, 8, 73, 82
10, 65865, Note_off_c, 8, 74, 64
10, 65955, Note_off_c, 8, 73, 64
10, 65989, Note_on_c, 8, 74, 98
10, 66081, Note_off_c, 8, 74, 64
10, 66230, Note_on_c, 8, 66, 85
10, 66333, Note_on_c, 8, 64, 85
10, 66351, Note_off_c, 8, 66, 64
10, 66437, Note_off_c, 8, 64, 64
10, 66468, Note_on_c, 8, 66, 87
10, 66588, Note_off_c, 8, 66, 64
10, 66713, Note_on_c, 8, 69, 85
10, 66810, Note_on_c, 8, 67, 85
10, 66826, Note_off_c, 8, 69, 64
10, 66920, Note_off_c, 8, 67, 64
10, 66947, Note_on_c, 8, 69, 85
10, 67060, Note_off_c, 8, 69, 64
10, 67186, Note_on_c, 8, 62, 80
10, 67308, Note_off_c, 8, 62, 64
10, 67409, Note_on_c, 8, 64, 66
10, 67533, Note_off_c, 8, 64, 64
10, 67650, Note_on_c, 8, 66, 78
10, 67782, Note_off_c, 8, 66, 64
10, 67895, Note_on_c, 8, 62, 70
10, 68010, Note_off_c, 8, 62, 64
10, 68127, Note_on_c, 8, 67, 80
10, 68257, Note_off_c, 8, 67, 64
10, 68369, Note_on_c, 8, 64, 82
10, 68457, Note_off_c, 8, 64, 64
10, 68613, Note_on_c, 8, 69, 85
10, 68723, Note_off_c, 8, 69, 64
10, 68853, Note_on_c, 8, 57, 78
10, 68923, Note_off_c, 8, 57, 64
10, 69098, Note_on_c, 8, 62, 80
10, 69186, Note_off_c, 8, 62, 64
10, 69330, Note_on_c, 8, 66, 82
10, 69405, Note_off_c, 8, 66, 64
10, 69594, Note_on_c, 8, 74, 89
10, 69695, Note_on_c, 8, 73, 89
10, 69719, Note_off_c, 8, 74, 64
10, 69800, Note_off_c, 8, 73, 64
10, 69828, Note_on_c, 8, 74, 89
10, 69915, Note_off_c, 8, 74, 64
10, 70071, Note_on_c, 8, 66, 87
10, 70172, Note_on_c, 8, 64, 78
10, 70185, Note_off_c, 8, 66, 64
10, 70275, Note_off_c, 8, 64, 64
10, 70305, Note_on_c, 8, 66, 85
10, 70408, Note_off_c, 8, 66, 64
10, 70548, Note_on_c, 8, 69, 82
10, 70647, Note_on_c, 8, 67, 85
10, 70656, Note_off_c, 8, 69, 64
10, 70757, Note_off_c, 8, 67, 64
10, 70779, Note_on_c, 8, 69, 80
10, 70876, Note_off_c, 8, 69, 64
10, 71013, Note_on_c, 8, 62, 82
10, 71115, Note_on_c, 8, 64, 82
10, 71130, Note_off_c, 8, 62, 64
10, 71216, Note_off_c, 8, 64, 64
10, 71250, Note_on_c, 8, 66, 82
10, 71351, Note_on_c, 8, 64, 80
10, 71371, Note_off_c, 8, 66, 64
10, 71474, Note_off_c, 8, 64, 64
10, 71474, Note_on_c, 8, 62, 78
10, 71562, Note_off_c, 8, 62, 64
10, 71598, Note_on_c, 8, 61, 66
10, 71709, Note_off_c, 8, 61, 64
10, 71720, Note_on_c, 8, 59, 80
10, 71814, Note_off_c, 8, 59, 64
10, 71825, Note_on_c, 8, 57, 74
10, 71933, Note_off_c, 8, 57, 64
10, 71954, Note_on_c, 8, 56, 72
10, 72087, Note_off_c, 8, 56, 64
10, 72194, Note_on_c, 8, 71, 93
10, 72294, Note_on_c, 8, 69, 80
10, 72309, Note_off_c, 8, 71, 64
10, 72411, Note_off_c, 8, 69, 64
10, 72428, Note_on_c, 8, 68, 82
10, 72550, Note_on_c, 8, 66, 78
10, 72566, Note_off_c, 8, 68, 64
10, 72678, Note_on_c, 8, 64, 72
10, 72683, Note_off_c, 8, 66, 64
10, 72791, Note_on_c, 8, 62, 66
10, 72811, Note_off_c, 8, 64, 64
10, 72883, Note_off_c, 8, 62, 64
10, 72914, Note_on_c, 8, 61, 95
10, 73016, Note_off_c, 8, 61, 64
10, 73029, Note_on_c, 8, 62, 82
10, 73140, Note_off_c, 8, 62, 64
10, 73158, Note_on_c, 8, 64, 76
10, 73274, Note_off_c, 8, 64, 64
10, 73281, Note_on_c, 8, 62, 85
10, 73400, Note_on_c, 8, 61, 85
10, 73412, Note_off_c, 8, 62, 64
10, 73524, Note_on_c, 8, 59, 85
10, 73529, Note_off_c, 8, 61, 64
10, 73599, Note_off_c, 8, 59, 64
10, 73634, Note_on_c, 8, 57, 64
10, 73725, Note_off_c, 8, 57, 64
10, 73752, Note_on_c, 8, 56, 98
10, 73842, Note_off_c, 8, 56, 64
10, 73878, Note_on_c, 8, 54, 93
10, 74039, Note_off_c, 8, 54, 64
10, 74141, Note_on_c, 8, 69, 87
10, 74244, Note_on_c, 8, 68, 66
10, 74260, Note_off_c, 8, 69, 64
10, 74337, Note_off_c, 8, 68, 64
10, 74363, Note_on_c, 8, 66, 80
10, 74480, Note_on_c, 8, 64, 89
10, 74504, Note_off_c, 8, 66, 64
10, 74589, Note_off_c, 8, 64, 64
10, 74593, Note_on_c, 8, 62, 82
10, 74678, Note_off_c, 8, 62, 64
10, 74723, Note_on_c, 8, 61, 85
10, 74813, Note_off_c, 8, 61, 64
10, 74856, Note_on_c, 8, 59, 91
10, 74969, Note_off_c, 8, 59, 64
10, 74970, Note_on_c, 8, 61, 89
10, 75052, Note_off_c, 8, 61, 64
10, 75090, Note_on_c, 8, 62, 82
10, 75162, Note_off_c, 8, 62, 64
10, 75194, Note_on_c, 8, 59, 89
10, 75254, Note_off_c, 8, 59, 64
10, 75335, Note_on_c, 8, 74, 91
10, 75425, Note_on_c, 8, 73, 89
10, 75450, Note_off_c, 8, 74, 64
10, 75529, Note_off_c, 8, 73, 64
10, 75569, Note_on_c, 8, 74, 95
10, 75675, Note_off_c, 8, 74, 64
10, 75826, Note_on_c, 8, 68, 102
10, 75927, Note_on_c, 8, 66, 85
10, 75934, Note_off_c, 8, 68, 64
10, 76029, Note_off_c, 8, 66, 64
10, 76060, Note_on_c, 8, 68, 93
10, 76172, Note_off_c, 8, 68, 64
10, 76307, Note_on_c, 8, 71, 87
10, 76415, Note_on_c, 8, 69, 100
10, 76431, Note_off_c, 8, 71, 64
10, 76499, Note_off_c, 8, 69, 64
10, 76544, Note_on_c, 8, 71, 85
10, 76622, Note_off_c, 8, 71, 64
10, 76787, Note_on_c, 8, 71, 102
10, 77149, Note_off_c, 8, 71, 64
10, 77255, Note_on_c, 8, 64, 74
10, 77446, Note_off_c, 8, 64, 64
10, 77493, Note_on_c, 8, 64, 68
10, 77640, Note_off_c, 8, 64, 64
10, 77732, Note_on_c, 8, 64, 76
10, 77896, Note_off_c, 8, 64, 64
10, 77964, Note_on_c, 8, 64, 68
10, 78112, Note_off_c, 8, 64, 64
10, 78213, Note_on_c, 8, 66, 70
10, 78375, Note_off_c, 8, 66, 64
10, 78467, Note_on_c, 8, 66, 76
10, 78598, Note_off_c, 8, 66, 64
10, 78697, Note_on_c, 8, 68, 64
10, 78792, Note_on_c, 8, 69, 82
10, 78810, Note_off_c, 8, 68, 64
10, 78891, Note_off_c, 8, 69, 64
10, 78924, Note_on_c, 8, 71, 85
10, 79059, Note_off_c, 8, 71, 64
10, 79179, Note_on_c, 8, 73, 85
10, 79282, Note_off_c, 8, 73, 64
10, 79410, Note_on_c, 8, 69, 80
10, 79491, Note_off_c, 8, 69, 64
10, 79651, Note_on_c, 8, 69, 80
10, 79772, Note_off_c, 8, 69, 64
10, 79887, Note_on_c, 8, 64, 82
10, 79991, Note_off_c, 8, 64, 64
10, 80121, Note_on_c, 8, 66, 76
10, 80209, Note_on_c, 8, 64, 60
10, 80236, Note_off_c, 8, 66, 64
10, 80265, Note_on_c, 8, 66, 68
10, 80279, Note_off_c, 8, 64, 64
10, 80313, Note_on_c, 8, 64, 68
10, 80337, Note_off_c, 8, 66, 64
10, 80375, Note_on_c, 8, 62, 82
10, 80380, Note_off_c, 8, 64, 64
10, 80474, Note_off_c, 8, 62, 64
10, 80474, Note_on_c, 8, 64, 58
10, 80560, Note_off_c, 8, 64, 64
10, 80606, Note_on_c, 8, 61, 80
10, 80897, Note_off_c, 8, 61, 64
10, 111836, Note_on_c, 8, 62, 93
10, 111969, Note_off_c, 8, 62, 64
10, 112084, Note_on_c, 8, 62, 100
10, 112156, Note_off_c, 8, 62, 64
10, 112327, Note_on_c, 8, 69, 98
10, 112597, Note_off_c, 8, 69, 64
10, 112811, Note_on_c, 8, 69, 91
10, 112970, Note_off_c, 8, 69, 64
10, 113054, Note_on_c, 8, 69, 100
10, 113124, Note_off_c, 8, 69, 64
10, 113299, Note_on_c, 8, 69, 110
10, 113562, Note_off_c, 8, 69, 64
10, 113778, Note_on_c, 8, 69, 89
10, 113861, Note_off_c, 8, 69, 64
10, 114012, Note_on_c, 8, 61, 82
10, 114105, Note_off_c, 8, 61, 64
10, 114240, Note_on_c, 8, 66, 82
10, 114343, Note_off_c, 8, 66, 64
10, 114479, Note_on_c, 8, 64, 85
10, 114579, Note_off_c, 8, 64, 64
10, 114721, Note_on_c, 8, 66, 87
10, 114806, Note_off_c, 8, 66, 64
10, 114950, Note_on_c, 8, 64, 82
10, 115025, Note_off_c, 8, 64, 64
10, 115202, Note_on_c, 8, 62, 87
10, 115490, Note_off_c, 8, 62, 64
10, 115670, Note_on_c, 8, 62, 102
10, 115787, Note_off_c, 8, 62, 64
10, 115922, Note_on_c, 8, 62, 100
10, 115995, Note_off_c, 8, 62, 64
10, 116150, Note_on_c, 8, 69, 91
10, 116440, Note_off_c, 8, 69, 64
10, 116633, Note_on_c, 8, 69, 87
10, 116741, Note_off_c, 8, 69, 64
10, 116877, Note_on_c, 8, 69, 87
10, 116964, Note_off_c, 8, 69, 64
10, 117117, Note_on_c, 8, 69, 89
10, 117405, Note_off_c, 8, 69, 64
10, 117605, Note_on_c, 8, 71, 89
10, 117696, Note_off_c, 8, 71, 64
10, 117840, Note_on_c, 8, 68, 68
10, 117941, Note_off_c, 8, 68, 64
10, 118073, Note_on_c, 8, 64, 78
10, 118166, Note_off_c, 8, 64, 64
10, 118323, Note_on_c, 8, 64, 80
10, 118418, Note_off_c, 8, 64, 64
10, 118569, Note_on_c, 8, 64, 82
10, 118670, Note_off_c, 8, 64, 64
10, 118805, Note_on_c, 8, 64, 80
10, 118892, Note_off_c, 8, 64, 64
10, 119046, Note_on_c, 8, 64, 89
10, 119203, Note_off_c, 8, 64, 64
10, 119279, Note_on_c, 8, 62, 82
10, 119365, Note_off_c, 8, 62, 64
10, 119502, Note_on_c, 8, 57, 76
10, 119590, Note_off_c, 8, 57, 64
10, 119740, Note_on_c, 8, 57, 78
10, 119842, Note_off_c, 8, 57, 64
10, 119986, Note_on_c, 8, 62, 85
10, 120161, Note_off_c, 8, 62, 64
10, 120222, Note_on_c, 8, 62, 82
10, 120303, Note_off_c, 8, 62, 64
10, 120449, Note_on_c, 8, 61, 80
10, 120531, Note_off_c, 8, 61, 64
10, 120699, Note_on_c, 8, 59, 82
10, 120778, Note_off_c, 8, 59, 64
10, 120967, Note_on_c, 8, 61, 80
10, 121239, Note_off_c, 8, 61, 64
10, 121435, Note_on_c, 8, 62, 91
10, 121575, Note_off_c, 8, 62, 64
10, 121689, Note_on_c, 8, 62, 100
10, 121755, Note_off_c, 8, 62, 64
10, 121919, Note_on_c, 8, 69, 85
10, 122193, Note_off_c, 8, 69, 64
10, 122409, Note_on_c, 8, 69, 87
10, 122580, Note_off_c, 8, 69, 64
10, 122650, Note_on_c, 8, 69, 95
10, 122731, Note_off_c, 8, 69, 64
10, 122888, Note_on_c, 8, 69, 102
10, 123172, Note_off_c, 8, 69, 64
10, 123376, Note_on_c, 8, 69, 87
10, 123483, Note_off_c, 8, 69, 64
10, 123615, Note_on_c, 8, 61, 74
10, 123692, Note_off_c, 8, 61, 64
10, 123849, Note_on_c, 8, 66, 89
10, 124009, Note_off_c, 8, 66, 64
10, 124086, Note_on_c, 8, 64, 74
10, 124182, Note_off_c, 8, 64, 64
10, 124317, Note_on_c, 8, 66, 82
10, 124392, Note_off_c, 8, 66, 64
10, 124549, Note_on_c, 8, 64, 82
10, 124631, Note_off_c, 8, 64, 64
10, 124801, Note_on_c, 8, 62, 89
10, 125073, Note_off_c, 8, 62, 64
10, 125271, Note_on_c, 8, 62, 100
10, 125442, Note_off_c, 8, 62, 64
10, 125525, Note_on_c, 8, 62, 100
10, 125604, Note_off_c, 8, 62, 64
10, 125760, Note_on_c, 8, 69, 91
10, 126041, Note_off_c, 8, 69, 64
10, 126236, Note_on_c, 8, 69, 87
10, 126390, Note_off_c, 8, 69, 64
10, 126486, Note_on_c, 8, 69, 93
10, 126542, Note_off_c, 8, 69, 64
10, 126714, Note_on_c, 8, 69, 100
10, 127020, Note_off_c, 8, 69, 64
10, 127199, Note_on_c, 8, 71, 82
10, 127278, Note_off_c, 8, 71, 64
10, 127443, Note_on_c, 8, 68, 68
10, 127523, Note_off_c, 8, 68, 64
10, 127665, Note_on_c, 8, 64, 85
10, 127847, Note_off_c, 8, 64, 64
10, 127924, Note_on_c, 8, 64, 60
10, 128023, Note_off_c, 8, 64, 64
10, 128163, Note_on_c, 8, 64, 80
10, 128250, Note_off_c, 8, 64, 64
10, 128394, Note_on_c, 8, 64, 82
10, 128480, Note_off_c, 8, 64, 64
10, 128646, Note_on_c, 8, 64, 89
10, 128779, Note_off_c, 8, 64, 64
10, 128874, Note_on_c, 8, 62, 68
10, 128970, Note_off_c, 8, 62, 64
10, 129103, Note_on_c, 8, 57, 74
10, 129191, Note_off_c, 8, 57, 64
10, 129355, Note_on_c, 8, 57, 85
10, 129452, Note_off_c, 8, 57, 64
10, 129598, Note_on_c, 8, 62, 85
10, 129774, Note_off_c, 8, 62, 64
10, 129823, Note_on_c, 8, 62, 80
10, 129910, Note_off_c, 8, 62, 64
10, 130059, Note_on_c, 8, 61, 78
10, 130136, Note_off_c, 8, 61, 64
10, 130300, Note_on_c, 8, 59, 80
10, 130370, Note_off_c, 8, 59, 64
10, 130557, Note_on_c, 8, 61, 98
10, 130818, Note_off_c, 8, 61, 64
10, 130818, End_track
11, 0, Start_track
11, 0, Title_t, "Cello"
11, 0, Program_c, 10, 42
11, 0, Control_c, 10, 7, 100
11, 476, Note_on_c, 10, 62, 102
11, 1124, Note_off_c, 10, 62, 64
11, 1185, Note_on_c, 10, 61, 80
11, 1251, Note_off_c, 10, 61, 64
11, 1295, Note_on_c, 10, 59, 102
11, 1365, Note_off_c, 10, 59, 64
11, 1422, Note_on_c, 10, 61, 105
11, 1507, Note_off_c, 10, 61, 64
11, 1667, Note_on_c, 10, 57, 89
11, 1746, Note_off_c, 10, 57, 64
11, 1912, Note_on_c, 10, 62, 102
11, 2101, Note_off_c, 10, 62, 64
11, 2155, Note_on_c, 10, 50, 91
11, 2236, Note_off_c, 10, 50, 64
11, 2259, Note_on_c, 10, 52, 82
11, 2319, Note_off_c, 10, 52, 64
11, 2380, Note_on_c, 10, 54, 98
11, 2560, Note_off_c, 10, 54, 64
11, 2641, Note_on_c, 10, 55, 68
11, 2699, Note_off_c, 10, 55, 64
11, 2750, Note_on_c, 10, 52, 82
11, 2810, Note_off_c, 10, 52, 64
11, 2873, Note_on_c, 10, 54, 100
11, 2988, Note_off_c, 10, 54, 64
11, 3129, Note_on_c, 10, 55, 82
11, 3212, Note_off_c, 10, 55, 64
11, 3366, Note_on_c, 10, 57, 93
11, 3447, Note_off_c, 10, 57, 64
11, 3595, Note_on_c, 10, 45, 89
11, 3665, Note_off_c, 10, 45, 64
11, 3834, Note_on_c, 10, 50, 100
11, 4031, Note_off_c, 10, 50, 64
11, 4083, Note_on_c, 10, 54, 78
11, 4166, Note_off_c, 10, 54, 64
11, 4193, Note_on_c, 10, 57, 87
11, 4270, Note_off_c, 10, 57, 64
11, 4322, Note_on_c, 10, 62, 100
11, 4963, Note_off_c, 10, 62, 64
11, 5033, Note_on_c, 10, 61, 91
11, 5094, Note_off_c, 10, 61, 64
11, 5129, Note_on_c, 10, 59, 85
11, 5206, Note_off_c, 10, 59, 64
11, 5264, Note_on_c, 10, 61, 93
11, 5355, Note_off_c, 10, 61, 64
11, 5512, Note_on_c, 10, 57, 87
11, 5588, Note_off_c, 10, 57, 64
11, 5764, Note_on_c, 10, 62, 93
11, 5854, Note_off_c, 10, 62, 64
11, 5989, Note_on_c, 10, 61, 78
11, 6099, Note_off_c, 10, 61, 64
11, 6240, Note_on_c, 10, 59, 87
11, 6318, Note_off_c, 10, 59, 64
11, 6484, Note_on_c, 10, 64, 93
11, 6560, Note_off_c, 10, 64, 64
11, 6722, Note_on_c, 10, 61, 93
11, 6920, Note_off_c, 10, 61, 64
11, 6950, Note_on_c, 10, 59, 87
11, 7032, Note_off_c, 10, 59, 64
11, 7051, Note_on_c, 10, 57, 89
11, 7119, Note_off_c, 10, 57, 64
11, 7182, Note_on_c, 10, 56, 98
11, 7290, Note_off_c, 10, 56, 64
11, 7418, Note_on_c, 10, 52, 76
11, 7508, Note_off_c, 10, 52, 64
11, 7667, Note_on_c, 10, 57, 93
11, 7753, Note_off_c, 10, 57, 64
11, 7910, Note_on_c, 10, 50, 85
11, 7998, Note_off_c, 10, 50, 64
11, 8133, Note_on_c, 10, 49, 89
11, 8230, Note_off_c, 10, 49, 64
11, 8367, Note_on_c, 10, 54, 93
11, 8460, Note_off_c, 10, 54, 64
11, 8621, Note_on_c, 10, 50, 89
11, 8718, Note_off_c, 10, 50, 64
11, 8858, Note_on_c, 10, 47, 89
11, 8961, Note_off_c, 10, 47, 64
11, 9107, Note_on_c, 10, 52, 98
11, 9184, Note_off_c, 10, 52, 64
11, 9341, Note_on_c, 10, 40, 91
11, 9405, Note_off_c, 10, 40, 64
11, 9598, Note_on_c, 10, 45, 95
11, 9859, Note_off_c, 10, 45, 64
11, 10102, Note_on_c, 10, 62, 98
11, 10683, Note_off_c, 10, 62, 64
11, 10793, Note_on_c, 10, 61, 80
11, 10851, Note_off_c, 10, 61, 64
11, 10892, Note_on_c, 10, 59, 95
11, 10971, Note_off_c, 10, 59, 64
11, 11035, Note_on_c, 10, 61, 95
11, 11142, Note_off_c, 10, 61, 64
11, 11277, Note_on_c, 10, 57, 87
11, 11357, Note_off_c, 10, 57, 64
11, 11510, Note_on_c, 10, 62, 102
11, 11704, Note_off_c, 10, 62, 64
11, 11758, Note_on_c, 10, 50, 91
11, 11832, Note_off_c, 10, 50, 64
11, 11857, Note_on_c, 10, 52, 78
11, 11920, Note_off_c, 10, 52, 64
11, 11988, Note_on_c, 10, 54, 102
11, 12172, Note_off_c, 10, 54, 64
11, 12255, Note_on_c, 10, 55, 85
11, 12320, Note_off_c, 10, 55, 64
11, 12357, Note_on_c, 10, 52, 89
11, 12422, Note_off_c, 10, 52, 64
11, 12476, Note_on_c, 10, 54, 105
11, 12586, Note_off_c, 10, 54, 64
11, 12721, Note_on_c, 10, 55, 87
11, 12818, Note_off_c, 10, 55, 64
11, 12977, Note_on_c, 10, 57, 89
11, 13068, Note_off_c, 10, 57, 64
11, 13200, Note_on_c, 10, 45, 87
11, 13263, Note_off_c, 10, 45, 64
11, 13442, Note_on_c, 10, 50, 87
11, 13610, Note_off_c, 10, 50, 64
11, 13677, Note_on_c, 10, 54, 82
11, 13736, Note_off_c, 10, 54, 64
11, 13778, Note_on_c, 10, 57, 85
11, 13846, Note_off_c, 10, 57, 64
11, 13911, Note_on_c, 10, 62, 100
11, 14562, Note_off_c, 10, 62, 64
11, 14628, Note_on_c, 10, 61, 87
11, 14699, Note_off_c, 10, 61, 64
11, 14724, Note_on_c, 10, 59, 87
11, 14800, Note_off_c, 10, 59, 64
11, 14865, Note_on_c, 10, 61, 100
11, 14946, Note_off_c, 10, 61, 64
11, 15090, Note_on_c, 10, 57, 89
11, 15194, Note_off_c, 10, 57, 64
11, 15342, Note_on_c, 10, 62, 95
11, 15455, Note_off_c, 10, 62, 64
11, 15588, Note_on_c, 10, 61, 80
11, 15696, Note_off_c, 10, 61, 64
11, 15826, Note_on_c, 10, 59, 85
11, 15916, Note_off_c, 10, 59, 64
11, 16073, Note_on_c, 10, 64, 93
11, 16155, Note_off_c, 10, 64, 64
11, 16307, Note_on_c, 10, 61, 95
11, 16508, Note_off_c, 10, 61, 64
11, 16550, Note_on_c, 10, 59, 85
11, 16634, Note_off_c, 10, 59, 64
11, 16650, Note_on_c, 10, 57, 89
11, 16721, Note_off_c, 10, 57, 64
11, 16782, Note_on_c, 10, 56, 100
11, 16893, Note_off_c, 10, 56, 64
11, 17027, Note_on_c, 10, 52, 78
11, 17126, Note_off_c, 10, 52, 64
11, 17279, Note_on_c, 10, 57, 91
11, 17383, Note_off_c, 10, 57, 64
11, 17513, Note_on_c, 10, 50, 82
11, 17610, Note_off_c, 10, 50, 64
11, 17748, Note_on_c, 10, 49, 80
11, 17849, Note_off_c, 10, 49, 64
11, 17993, Note_on_c, 10, 54, 89
11, 18092, Note_off_c, 10, 54, 64
11, 18236, Note_on_c, 10, 50, 85
11, 18346, Note_off_c, 10, 50, 64
11, 18481, Note_on_c, 10, 47, 82
11, 18576, Note_off_c, 10, 47, 64
11, 18717, Note_on_c, 10, 52, 93
11, 18798, Note_off_c, 10, 52, 64
11, 18947, Note_on_c, 10, 40, 87
11, 19028, Note_off_c, 10, 40, 64
11, 19199, Note_on_c, 10, 45, 107
11, 19457, Note_off_c, 10, 45, 64
11, 50408, Note_on_c, 10, 62, 102
11, 50513, Note_on_c, 10, 61, 98
11, 50529, Note_off_c, 10, 62, 64
11, 50610, Note_off_c, 10, 61, 64
11, 50631, Note_on_c, 10, 62, 82
11, 50743, Note_off_c, 10, 62, 64
11, 50882, Note_on_c, 10, 54, 95
11, 50977, Note_on_c, 10, 52, 85
11, 50986, Note_off_c, 10, 54, 64
11, 51083, Note_off_c, 10, 52, 64
11, 51103, Note_on_c, 10, 54, 100
11, 51229, Note_off_c, 10, 54, 64
11, 51348, Note_on_c, 10, 57, 98
11, 51440, Note_on_c, 10, 55, 91
11, 51460, Note_off_c, 10, 57, 64
11, 51555, Note_off_c, 10, 55, 64
11, 51577, Note_on_c, 10, 57, 85
11, 51679, Note_off_c, 10, 57, 64
11, 51834, Note_on_c, 10, 50, 98
11, 52196, Note_off_c, 10, 50, 64
11, 54251, Note_on_c, 10, 62, 110
11, 54348, Note_on_c, 10, 61, 105
11, 54370, Note_off_c, 10, 62, 64
11, 54446, Note_off_c, 10, 61, 64
11, 54468, Note_on_c, 10, 62, 82
11, 54579, Note_off_c, 10, 62, 64
11, 54717, Note_on_c, 10, 54, 102
11, 54815, Note_on_c, 10, 52, 87
11, 54829, Note_off_c, 10, 54, 64
11, 54920, Note_off_c, 10, 52, 64
11, 54948, Note_on_c, 10, 54, 105
11, 55079, Note_off_c, 10, 54, 64
11, 55196, Note_on_c, 10, 57, 95
11, 55299, Note_on_c, 10, 55, 110
11, 55313, Note_off_c, 10, 57, 64
11, 55392, Note_off_c, 10, 55, 64
11, 55421, Note_on_c, 10, 57, 87
11, 55517, Note_off_c, 10, 57, 64
11, 55688, Note_on_c, 10, 50, 116
11, 55976, Note_off_c, 10, 50, 64
11, 59997, Note_on_c, 10, 62, 100
11, 60096, Note_on_c, 10, 61, 100
11, 60110, Note_off_c, 10, 62, 64
11, 60202, Note_off_c, 10, 61, 64
11, 60218, Note_on_c, 10, 62, 87
11, 60308, Note_off_c, 10, 62, 64
11, 60458, Note_on_c, 10, 56, 82
11, 60560, Note_on_c, 10, 54, 68
11, 60573, Note_off_c, 10, 56, 64
11, 60672, Note_off_c, 10, 54, 64
11, 60686, Note_on_c, 10, 56, 93
11, 60818, Note_off_c, 10, 56, 64
11, 60929, Note_on_c, 10, 59, 80
11, 61034, Note_on_c, 10, 57, 100
11, 61057, Note_off_c, 10, 59, 64
11, 61133, Note_off_c, 10, 57, 64
11, 61169, Note_on_c, 10, 59, 91
11, 61257, Note_off_c, 10, 59, 64
11, 61424, Note_on_c, 10, 52, 91
11, 63633, Note_off_c, 10, 52, 64
11, 63824, Note_on_c, 10, 57, 100
11, 63921, Note_on_c, 10, 56, 82
11, 63941, Note_off_c, 10, 57, 64
11, 64031, Note_off_c, 10, 56, 64
11, 64040, Note_on_c, 10, 57, 91
11, 64153, Note_off_c, 10, 57, 64
11, 64274, Note_on_c, 10, 49, 80
11, 64374, Note_on_c, 10, 47, 78
11, 64416, Note_off_c, 10, 49, 64
11, 64508, Note_off_c, 10, 47, 64
11, 64517, Note_on_c, 10, 49, 89
11, 64637, Note_off_c, 10, 49, 64
11, 64760, Note_on_c, 10, 52, 85
11, 64864, Note_on_c, 10, 50, 95
11, 64884, Note_off_c, 10, 52, 64
11, 64967, Note_off_c, 10, 50, 64
11, 64992, Note_on_c, 10, 52, 85
11, 65114, Note_off_c, 10, 52, 64
11, 65246, Note_on_c, 10, 45, 87
11, 65553, Note_off_c, 10, 45, 64
11, 65755, Note_on_c, 10, 62, 105
11, 65854, Note_on_c, 10, 61, 98
11, 65876, Note_off_c, 10, 62, 64
11, 65960, Note_off_c, 10, 61, 64
11, 65985, Note_on_c, 10, 62, 89
11, 66081, Note_off_c, 10, 62, 64
11, 66236, Note_on_c, 10, 54, 102
11, 66331, Note_on_c, 10, 52, 68
11, 66354, Note_off_c, 10, 54, 64
11, 66446, Note_off_c, 10, 52, 64
11, 66470, Note_on_c, 10, 54, 98
11, 66583, Note_off_c, 10, 54, 64
11, 66718, Note_on_c, 10, 57, 89
11, 66821, Note_on_c, 10, 55, 93
11, 66844, Note_off_c, 10, 57, 64
11, 66915, Note_off_c, 10, 55, 64
11, 66943, Note_on_c, 10, 57, 85
11, 67046, Note_off_c, 10, 57, 64
11, 67206, Note_on_c, 10, 50, 100
11, 67640, Note_off_c, 10, 50, 64
11, 69611, Note_on_c, 10, 62, 100
11, 69718, Note_on_c, 10, 61, 95
11, 69740, Note_off_c, 10, 62, 64
11, 69809, Note_off_c, 10, 61, 64
11, 69834, Note_on_c, 10, 62, 87
11, 69926, Note_off_c, 10, 62, 64
11, 70079, Note_on_c, 10, 54, 102
11, 70172, Note_on_c, 10, 52, 72
11, 70187, Note_off_c, 10, 54, 64
11, 70284, Note_off_c, 10, 52, 64
11, 70304, Note_on_c, 10, 54, 89
11, 70415, Note_off_c, 10, 54, 64
11, 70554, Note_on_c, 10, 57, 85
11, 70649, Note_off_c, 10, 57, 64
11, 70658, Note_on_c, 10, 55, 82
11, 70755, Note_off_c, 10, 55, 64
11, 70781, Note_on_c, 10, 57, 91
11, 70851, Note_off_c, 10, 57, 64
11, 71034, Note_on_c, 10, 50, 89
11, 71474, Note_off_c, 10, 50, 64
11, 75344, Note_on_c, 10, 62, 98
11, 75452, Note_on_c, 10, 61, 105
11, 75470, Note_off_c, 10, 62, 64
11, 75540, Note_off_c, 10, 61, 64
11, 75569, Note_on_c, 10, 62, 98
11, 75671, Note_off_c, 10, 62, 64
11, 75821, Note_on_c, 10, 56, 98
11, 75925, Note_on_c, 10, 54, 85
11, 75935, Note_off_c, 10, 56, 64
11, 76022, Note_off_c, 10, 54, 64
11, 76053, Note_on_c, 10, 56, 100
11, 76188, Note_off_c, 10, 56, 64
11, 76305, Note_on_c, 10, 59, 89
11, 76416, Note_on_c, 10, 57, 102
11, 76431, Note_off_c, 10, 59, 64
11, 76510, Note_off_c, 10, 57, 64
11, 76539, Note_on_c, 10, 59, 85
11, 76629, Note_off_c, 10, 59, 64
11, 76796, Note_on_c, 10, 52, 85
11, 78984, Note_off_c, 10, 52, 64
11, 79192, Note_on_c, 10, 57, 98
11, 79287, Note_on_c, 10, 56, 80
11, 79313, Note_off_c, 10, 57, 64
11, 79401, Note_off_c, 10, 56, 64
11, 79412, Note_on_c, 10, 57, 87
11, 79527, Note_off_c, 10, 57, 64
11, 79653, Note_on_c, 10, 49, 95
11, 79755, Note_on_c, 10, 47, 82
11, 79793, Note_off_c, 10, 49, 64
11, 79874, Note_off_c, 10, 47, 64
11, 79892, Note_on_c, 10, 49, 91
11, 80045, Note_off_c, 10, 49, 64
11, 80142, Note_on_c, 10, 52, 87
11, 80249, Note_on_c, 10, 50, 105
11, 80270, Note_off_c, 10, 52, 64
11, 80350, Note_off_c, 10, 50, 64
11, 80375, Note_on_c, 10, 52, 85
11, 80465, Note_off_c, 10, 52, 64
11, 80625, Note_on_c, 10, 45, 105
11, 80924, Note_off_c, 10, 45, 64
11, 111836, Note_on_c, 10, 62, 102
11, 112484, Note_off_c, 10, 62, 64
11, 112545, Note_on_c, 10, 61, 80
11, 112611, Note_off_c, 10, 61, 64
11, 112655, Note_on_c, 10, 59, 102
11, 112725, Note_off_c, 10, 59, 64
11, 112782, Note_on_c, 10, 61, 105
11, 112867, Note_off_c, 10, 61, 64
11, 113027, Note_on_c, 10, 57, 89
11, 113106, Note_off_c, 10, 57, 64
11, 113272, Note_on_c, 10, 62, 102
11, 113461, Note_off_c, 10, 62, 64
11, 113515, Note_on_c, 10, 50, 91
11, 113596, Note_off_c, 10, 50, 64
11, 113619, Note_on_c, 10, 52, 82
11, 113679, Note_off_c, 10, 52, 64
11, 113740, Note_on_c, 10, 54, 98
11, 113920, Note_off_c, 10, 54, 64
11, 114001, Note_on_c, 10, 55, 68
11, 114059, Note_off_c, 10, 55, 64
11, 114110, Note_on_c, 10, 52, 82
11, 114170, Note_off_c, 10, 52, 64
11, 114233, Note_on_c, 10, 54, 100
11, 114348, Note_off_c, 10, 54, 64
11, 114489, Note_on_c, 10, 55, 82
11, 114572, Note_off_c, 10, 55, 64
11, 114726, Note_on_c, 10, 57, 93
11, 114807, Note_off_c, 10, 57, 64
11, 114955, Note_on_c, 10, 45, 89
11, 115025, Note_off_c, 10, 45, 64
11, 115194, Note_on_c, 10, 50, 100
11, 115391, Note_off_c, 10, 50, 64
11, 115443, Note_on_c, 10, 54, 78
11, 115526, Note_off_c, 10, 54, 64
11, 115553, Note_on_c, 10, 57, 87
11, 115630, Note_off_c, 10, 57, 64
11, 115682, Note_on_c, 10, 62, 100
11, 116323, Note_off_c, 10, 62, 64
11, 116393, Note_on_c, 10, 61, 91
11, 116454, Note_off_c, 10, 61, 64
11, 116489, Note_on_c, 10, 59, 85
11, 116566, Note_off_c, 10, 59, 64
11, 116624, Note_on_c, 10, 61, 93
11, 116715, Note_off_c, 10, 61, 64
11, 116872, Note_on_c, 10, 57, 87
11, 116948, Note_off_c, 10, 57, 64
11, 117124, Note_on_c, 10, 62, 93
11, 117214, Note_off_c, 10, 62, 64
11, 117349, Note_on_c, 10, 61, 78
11, 117459, Note_off_c, 10, 61, 64
11, 117600, Note_on_c, 10, 59, 87
11, 117678, Note_off_c, 10, 59, 64
11, 117844, Note_on_c, 10, 64, 93
11, 117920, Note_off_c, 10, 64, 64
11, 118082, Note_on_c, 10, 61, 93
11, 118280, Note_off_c, 10, 61, 64
11, 118310, Note_on_c, 10, 59, 87
11, 118392, Note_off_c, 10, 59, 64
11, 118411, Note_on_c, 10, 57, 89
11, 118479, Note_off_c, 10, 57, 64
11, 118542, Note_on_c, 10, 56, 98
11, 118650, Note_off_c, 10, 56, 64
11, 118778, Note_on_c, 10, 52, 76
11, 118868, Note_off_c, 10, 52, 64
11, 119027, Note_on_c, 10, 57, 93
11, 119113, Note_off_c, 10, 57, 64
11, 119270, Note_on_c, 10, 50, 85
11, 119358, Note_off_c, 10, 50, 64
11, 119493, Note_on_c, 10, 49, 89
11, 119590, Note_off_c, 10, 49, 64
11, 119727, Note_on_c, 10, 54, 93
11, 119820, Note_off_c, 10, 54, 64
11, 119981, Note_on_c, 10, 50, 89
11, 120078, Note_off_c, 10, 50, 64
11, 120218, Note_on_c, 10, 47, 89
11, 120321, Note_off_c, 10, 47, 64
11, 120467, Note_on_c, 10, 52, 98
11, 120544, Note_off_c, 10, 52, 64
11, 120701, Note_on_c, 10, 40, 91
11, 120765, Note_off_c, 10, 40, 64
11, 120958, Note_on_c, 10, 45, 95
11, 121219, Note_off_c, 10, 45, 64
11, 121462, Note_on_c, 10, 62, 98
11, 122043, Note_off_c, 10, 62, 64
11, 122153, Note_on_c, 10, 61, 80
11, 122211, Note_off_c, 10, 61, 64
11, 122252, Note_on_c, 10, 59, 95
11, 122331, Note_off_c, 10, 59, 64
11, 122395, Note_on_c, 10, 61, 95
11, 122502, Note_off_c, 10, 61, 64
11, 122637, Note_on_c, 10, 57, 87
11, 122717, Note_off_c, 10, 57, 64
11, 122870, Note_on_c, 10, 62, 102
11, 123064, Note_off_c, 10, 62, 64
11, 123118, Note_on_c, 10, 50, 91
11, 123192, Note_off_c, 10, 50, 64
11, 123217, Note_on_c, 10, 52, 78
11, 123280, Note_off_c, 10, 52, 64
11, 123348, Note_on_c, 10, 54, 102
11, 123532, Note_off_c, 10, 54, 64
11, 123615, Note_on_c, 10, 55, 85
11, 123680, Note_off_c, 10, 55, 64
11, 123717, Note_on_c, 10, 52, 89
11, 123782, Note_off_c, 10, 52, 64
11, 123836, Note_on_c, 10, 54, 105
11, 123946, Note_off_c, 10, 54, 64
11, 124081, Note_on_c, 10, 55, 87
11, 124178, Note_off_c, 10, 55, 64
11, 124337, Note_on_c, 10, 57, 89
11, 124428, Note_off_c, 10, 57, 64
11, 124560, Note_on_c, 10, 45, 87
11, 124623, Note_off_c, 10, 45, 64
11, 124802, Note_on_c, 10, 50, 87
11, 124970, Note_off_c, 10, 50, 64
11, 125037, Note_on_c, 10, 54, 82
11, 125096, Note_off_c, 10, 54, 64
11, 125138, Note_on_c, 10, 57, 85
11, 125206, Note_off_c, 10, 57, 64
11, 125271, Note_on_c, 10, 62, 100
11, 125922, Note_off_c, 10, 62, 64
11, 125988, Note_on_c, 10, 61, 87
11, 126059, Note_off_c, 10, 61, 64
11, 126084, Note_on_c, 10, 59, 87
11, 126160, Note_off_c, 10, 59, 64
11, 126225, Note_on_c, 10, 61, 100
11, 126306, Note_off_c, 10, 61, 64
11, 126450, Note_on_c, 10, 57, 89
11, 126554, Note_off_c, 10, 57, 64
11, 126702, Note_on_c, 10, 62, 95
11, 126815, Note_off_c, 10, 62, 64
11, 126948, Note_on_c, 10, 61, 80
11, 127056, Note_off_c, 10, 61, 64
11, 127186, Note_on_c, 10, 59, 85
11, 127276, Note_off_c, 10, 59, 64
11, 127433, Note_on_c, 10, 64, 93
11, 127515, Note_off_c, 10, 64, 64
11, 127667, Note_on_c, 10, 61, 95
11, 127868, Note_off_c, 10, 61, 64
11, 127910, Note_on_c, 10, 59, 85
11, 127994, Note_off_c, 10, 59, 64
11, 128010, Note_on_c, 10, 57, 89
11, 128081, Note_off_c, 10, 57, 64
11, 128142, Note_on_c, 10, 56, 100
11, 128253, Note_off_c, 10, 56, 64
11, 128387, Note_on_c, 10, 52, 78
11, 128486, Note_off_c, 10, 52, 64
11, 128639, Note_on_c, 10, 57, 91
11, 128743, Note_off_c, 10, 57, 64
11, 128873, Note_on_c, 10, 50, 82
11, 128970, Note_off_c, 10, 50, 64
11, 129108, Note_on_c, 10, 49, 80
11, 129209, Note_off_c, 10, 49, 64
11, 129353, Note_on_c, 10, 54, 89
11, 129452, Note_off_c, 10, 54, 64
11, 129596, Note_on_c, 10, 50, 85
11, 129706, Note_off_c, 10, 50, 64
11, 129841, Note_on_c, 10, 47, 82
11, 129936, Note_off_c, 10, 47, 64
11, 130077, Note_on_c, 10, 52, 93
11, 130158, Note_off_c, 10, 52, 64
11, 130307, Note_on_c, 10, 40, 87
11, 130388, Note_off_c, 10, 40, 64
11, 130559, Note_on_c, 10, 45, 107
11, 130817, Note_off_c, 10, 45, 64
11, 130817, End_track
12, 0, Start_track
12, 0, Title_t, "Trumpet"
12, 0, Program_c, 0, 56
12, 0, Control_c, 0, 7, 127
12, 23517, Note_on_c, 0, 66, 80
12, 23690, Note_off_c, 0, 66, 64
12, 23757, Note_on_c, 0, 78, 87
12, 23814, Note_off_c, 0, 78, 64
12, 23865, Note_on_c, 0, 74, 82
12, 23912, Note_off_c, 0, 74, 64
12, 24000, Note_on_c, 0, 76, 85
12, 24322, Note_off_c, 0, 76, 64
12, 24486, Note_on_c, 0, 66, 82
12, 24632, Note_off_c, 0, 66, 64
12, 24736, Note_on_c, 0, 76, 87
12, 24788, Note_off_c, 0, 76, 64
12, 24844, Note_on_c, 0, 78, 91
12, 24887, Note_off_c, 0, 78, 64
12, 24974, Note_on_c, 0, 74, 95
12, 25276, Note_off_c, 0, 74, 64
12, 29290, Note_on_c, 0, 69, 85
12, 29461, Note_off_c, 0, 69, 64
12, 29524, Note_on_c, 0, 79, 82
12, 29580, Note_off_c, 0, 79, 64
12, 29636, Note_on_c, 0, 76, 80
12, 29688, Note_off_c, 0, 76, 64
12, 29765, Note_on_c, 0, 78, 91
12, 29939, Note_off_c, 0, 78, 64
12, 30006, Note_on_c, 0, 76, 85
12, 30068, Note_off_c, 0, 76, 64
12, 30118, Note_on_c, 0, 74, 80
12, 30181, Note_off_c, 0, 74, 64
12, 30242, Note_on_c, 0, 76, 98
12, 30305, Note_off_c, 0, 76, 64
12, 30347, Note_on_c, 0, 78, 93
12, 30404, Note_off_c, 0, 78, 64
12, 30469, Note_on_c, 0, 76, 102
12, 30525, Note_off_c, 0, 76, 64
12, 30582, Note_on_c, 0, 78, 93
12, 30635, Note_off_c, 0, 78, 64
12, 30714, Note_on_c, 0, 76, 107
12, 30852, Note_off_c, 0, 76, 64
12, 30959, Note_on_c, 0, 69, 89
12, 31108, Note_off_c, 0, 69, 64
12, 33126, Note_on_c, 0, 69, 102
12, 33259, Note_off_c, 0, 69, 64
12, 33349, Note_on_c, 0, 79, 87
12, 33417, Note_off_c, 0, 79, 64
12, 33464, Note_on_c, 0, 76, 87
12, 33525, Note_off_c, 0, 76, 64
12, 33597, Note_on_c, 0, 78, 98
12, 33662, Note_off_c, 0, 78, 64
12, 33706, Note_on_c, 0, 76, 98
12, 33772, Note_off_c, 0, 76, 64
12, 33824, Note_on_c, 0, 74, 98
12, 33898, Note_off_c, 0, 74, 64
12, 33934, Note_on_c, 0, 76, 95
12, 33993, Note_off_c, 0, 76, 64
12, 34058, Note_on_c, 0, 78, 85
12, 34148, Note_on_c, 0, 76, 82
12, 34157, Note_off_c, 0, 78, 64
12, 34199, Note_off_c, 0, 76, 64
12, 34201, Note_on_c, 0, 78, 78
12, 34249, Note_on_c, 0, 76, 82
12, 34260, Note_off_c, 0, 78, 64
12, 34370, Note_off_c, 0, 76, 64
12, 34400, Note_on_c, 0, 74, 85
12, 34469, Note_off_c, 0, 74, 64
12, 34557, Note_on_c, 0, 74, 91
12, 34889, Note_off_c, 0, 74, 64
12, 38884, Note_on_c, 0, 66, 98
12, 39037, Note_off_c, 0, 66, 64
12, 39118, Note_on_c, 0, 78, 85
12, 39176, Note_off_c, 0, 78, 64
12, 39230, Note_on_c, 0, 74, 80
12, 39282, Note_off_c, 0, 74, 64
12, 39363, Note_on_c, 0, 74, 93
12, 39469, Note_off_c, 0, 74, 64
12, 39476, Note_on_c, 0, 76, 70
12, 39692, Note_off_c, 0, 76, 64
12, 39860, Note_on_c, 0, 66, 91
12, 39978, Note_off_c, 0, 66, 64
12, 40086, Note_on_c, 0, 76, 98
12, 40158, Note_off_c, 0, 76, 64
12, 40189, Note_on_c, 0, 78, 85
12, 40239, Note_off_c, 0, 78, 64
12, 40324, Note_on_c, 0, 76, 102
12, 40440, Note_on_c, 0, 74, 78
12, 40448, Note_off_c, 0, 76, 64
12, 40645, Note_off_c, 0, 74, 64
12, 44644, Note_on_c, 0, 69, 87
12, 44802, Note_off_c, 0, 69, 64
12, 44891, Note_on_c, 0, 79, 80
12, 44950, Note_off_c, 0, 79, 64
12, 45000, Note_on_c, 0, 76, 82
12, 45054, Note_off_c, 0, 76, 64
12, 45125, Note_on_c, 0, 78, 98
12, 45297, Note_off_c, 0, 78, 64
12, 45358, Note_on_c, 0, 76, 85
12, 45420, Note_off_c, 0, 76, 64
12, 45468, Note_on_c, 0, 74, 85
12, 45532, Note_off_c, 0, 74, 64
12, 45594, Note_on_c, 0, 76, 91
12, 45661, Note_off_c, 0, 76, 64
12, 45702, Note_on_c, 0, 78, 87
12, 45770, Note_off_c, 0, 78, 64
12, 45818, Note_on_c, 0, 76, 105
12, 45877, Note_off_c, 0, 76, 64
12, 45935, Note_on_c, 0, 78, 93
12, 45992, Note_off_c, 0, 78, 64
12, 46064, Note_on_c, 0, 76, 102
12, 46178, Note_off_c, 0, 76, 64
12, 46298, Note_on_c, 0, 69, 89
12, 46422, Note_off_c, 0, 69, 64
12, 48487, Note_on_c, 0, 69, 105
12, 48644, Note_off_c, 0, 69, 64
12, 48730, Note_on_c, 0, 79, 85
12, 48798, Note_off_c, 0, 79, 64
12, 48840, Note_on_c, 0, 76, 87
12, 48901, Note_off_c, 0, 76, 64
12, 48968, Note_on_c, 0, 78, 89
12, 49040, Note_off_c, 0, 78, 64
12, 49077, Note_on_c, 0, 76, 80
12, 49137, Note_off_c, 0, 76, 64
12, 49198, Note_on_c, 0, 74, 93
12, 49274, Note_off_c, 0, 74, 64
12, 49322, Note_on_c, 0, 76, 93
12, 49387, Note_off_c, 0, 76, 64
12, 49441, Note_on_c, 0, 78, 91
12, 49542, Note_on_c, 0, 76, 85
12, 49545, Note_off_c, 0, 78, 64
12, 49590, Note_off_c, 0, 76, 64
12, 49590, Note_on_c, 0, 78, 70
12, 49639, Note_on_c, 0, 76, 87
12, 49644, Note_off_c, 0, 78, 64
12, 49754, Note_off_c, 0, 76, 64
12, 49783, Note_on_c, 0, 74, 85
12, 49846, Note_off_c, 0, 74, 64
12, 49927, Note_on_c, 0, 74, 102
12, 50206, Note_off_c, 0, 74, 64
12, 81139, Note_on_c, 0, 76, 105
12, 81414, Note_off_c, 0, 76, 64
12, 81499, Note_on_c, 0, 81, 93
12, 81560, Note_off_c, 0, 81, 64
12, 81625, Note_on_c, 0, 76, 100
12, 81909, Note_off_c, 0, 76, 64
12, 81983, Note_on_c, 0, 78, 87
12, 82041, Note_off_c, 0, 78, 64
12, 82097, Note_on_c, 0, 76, 102
12, 82161, Note_off_c, 0, 76, 64
12, 82212, Note_on_c, 0, 78, 85
12, 82266, Note_off_c, 0, 78, 64
12, 82331, Note_on_c, 0, 76, 95
12, 82395, Note_off_c, 0, 76, 64
12, 82444, Note_on_c, 0, 78, 87
12, 82502, Note_off_c, 0, 78, 64
12, 82570, Note_on_c, 0, 78, 85
12, 82629, Note_off_c, 0, 78, 64
12, 82635, Note_on_c, 0, 76, 85
12, 82674, Note_on_c, 0, 78, 78
12, 82678, Note_off_c, 0, 76, 64
12, 82723, Note_off_c, 0, 78, 64
12, 82727, Note_on_c, 0, 76, 85
12, 82748, Note_on_c, 0, 78, 87
12, 82759, Note_off_c, 0, 76, 64
12, 82803, Note_on_c, 0, 76, 89
12, 82811, Note_off_c, 0, 78, 64
12, 83096, Note_off_c, 0, 76, 64
12, 84969, Note_on_c, 0, 78, 100
12, 85238, Note_off_c, 0, 78, 64
12, 85313, Note_on_c, 0, 83, 87
12, 85367, Note_off_c, 0, 83, 64
12, 85445, Note_on_c, 0, 78, 100
12, 85698, Note_off_c, 0, 78, 64
12, 85772, Note_on_c, 0, 79, 80
12, 85832, Note_off_c, 0, 79, 64
12, 85893, Note_on_c, 0, 78, 85
12, 85954, Note_off_c, 0, 78, 64
12, 86003, Note_on_c, 0, 79, 87
12, 86064, Note_off_c, 0, 79, 64
12, 86121, Note_on_c, 0, 78, 80
12, 86190, Note_off_c, 0, 78, 64
12, 86233, Note_on_c, 0, 79, 82
12, 86291, Note_off_c, 0, 79, 64
12, 86354, Note_on_c, 0, 79, 87
12, 86418, Note_off_c, 0, 79, 64
12, 86420, Note_on_c, 0, 78, 82
12, 86458, Note_on_c, 0, 79, 87
12, 86471, Note_off_c, 0, 78, 64
12, 86507, Note_off_c, 0, 79, 64
12, 86516, Note_on_c, 0, 78, 78
12, 86534, Note_on_c, 0, 79, 89
12, 86548, Note_off_c, 0, 78, 64
12, 86584, Note_on_c, 0, 78, 78
12, 86598, Note_off_c, 0, 79, 64
12, 86879, Note_off_c, 0, 78, 64
12, 88793, Note_on_c, 0, 69, 100
12, 89021, Note_off_c, 0, 69, 64
12, 89028, Note_on_c, 0, 74, 89
12, 89144, Note_off_c, 0, 74, 64
12, 89273, Note_on_c, 0, 74, 100
12, 89493, Note_off_c, 0, 74, 64
12, 89520, Note_on_c, 0, 78, 80
12, 89643, Note_off_c, 0, 78, 64
12, 89774, Note_on_c, 0, 78, 105
12, 89943, Note_off_c, 0, 78, 64
12, 89981, Note_on_c, 0, 81, 72
12, 90096, Note_off_c, 0, 81, 64
12, 90227, Note_on_c, 0, 81, 100
12, 90690, Note_off_c, 0, 81, 64
12, 94540, Note_on_c, 0, 74, 95
12, 94736, Note_off_c, 0, 74, 64
12, 94779, Note_on_c, 0, 74, 87
12, 94934, Note_off_c, 0, 74, 64
12, 95026, Note_on_c, 0, 66, 85
12, 95240, Note_off_c, 0, 66, 64
12, 95274, Note_on_c, 0, 66, 80
12, 95424, Note_off_c, 0, 66, 64
12, 95517, Note_on_c, 0, 69, 82
12, 95719, Note_off_c, 0, 69, 64
12, 95759, Note_on_c, 0, 69, 80
12, 95858, Note_off_c, 0, 69, 64
12, 95996, Note_on_c, 0, 62, 98
12, 96304, Note_off_c, 0, 62, 64
12, 96506, Note_on_c, 0, 76, 105
12, 96774, Note_off_c, 0, 76, 64
12, 96848, Note_on_c, 0, 81, 93
12, 96905, Note_off_c, 0, 81, 64
12, 96972, Note_on_c, 0, 76, 107
12, 97258, Note_off_c, 0, 76, 64
12, 97334, Note_on_c, 0, 78, 91
12, 97393, Note_off_c, 0, 78, 64
12, 97445, Note_on_c, 0, 76, 98
12, 97515, Note_off_c, 0, 76, 64
12, 97564, Note_on_c, 0, 78, 93
12, 97622, Note_off_c, 0, 78, 64
12, 97679, Note_on_c, 0, 76, 91
12, 97751, Note_off_c, 0, 76, 64
12, 97802, Note_on_c, 0, 78, 95
12, 97859, Note_off_c, 0, 78, 64
12, 97924, Note_on_c, 0, 78, 93
12, 98000, Note_off_c, 0, 78, 64
12, 98001, Note_on_c, 0, 76, 82
12, 98038, Note_on_c, 0, 78, 70
12, 98050, Note_off_c, 0, 76, 64
12, 98090, Note_off_c, 0, 78, 64
12, 98093, Note_on_c, 0, 76, 74
12, 98118, Note_on_c, 0, 78, 85
12, 98127, Note_off_c, 0, 76, 64
12, 98165, Note_on_c, 0, 76, 89
12, 98182, Note_off_c, 0, 78, 64
12, 98450, Note_off_c, 0, 76, 64
12, 100334, Note_on_c, 0, 78, 107
12, 100619, Note_off_c, 0, 78, 64
12, 100687, Note_on_c, 0, 83, 89
12, 100743, Note_off_c, 0, 83, 64
12, 100808, Note_on_c, 0, 78, 105
12, 101081, Note_off_c, 0, 78, 64
12, 101157, Note_on_c, 0, 79, 87
12, 101220, Note_off_c, 0, 79, 64
12, 101270, Note_on_c, 0, 78, 100
12, 101337, Note_off_c, 0, 78, 64
12, 101380, Note_on_c, 0, 79, 91
12, 101439, Note_off_c, 0, 79, 64
12, 101490, Note_on_c, 0, 78, 89
12, 101558, Note_off_c, 0, 78, 64
12, 101594, Note_on_c, 0, 79, 93
12, 101652, Note_off_c, 0, 79, 64
12, 101713, Note_on_c, 0, 79, 89
12, 101789, Note_on_c, 0, 78, 60
12, 101794, Note_off_c, 0, 79, 64
12, 101838, Note_on_c, 0, 79, 72
12, 101844, Note_off_c, 0, 78, 64
12, 101879, Note_on_c, 0, 78, 72
12, 101884, Note_off_c, 0, 79, 64
12, 101906, Note_on_c, 0, 79, 78
12, 101916, Note_off_c, 0, 78, 64
12, 101956, Note_on_c, 0, 78, 80
12, 101972, Note_off_c, 0, 79, 64
12, 102232, Note_off_c, 0, 78, 64
12, 104170, Note_on_c, 0, 69, 100
12, 104393, Note_off_c, 0, 69, 64
12, 104403, Note_on_c, 0, 74, 98
12, 104503, Note_off_c, 0, 74, 64
12, 104645, Note_on_c, 0, 74, 102
12, 104853, Note_off_c, 0, 74, 64
12, 104883, Note_on_c, 0, 78, 82
12, 104976, Note_off_c, 0, 78, 64
12, 105117, Note_on_c, 0, 78, 105
12, 105313, Note_off_c, 0, 78, 64
12, 105354, Note_on_c, 0, 81, 85
12, 105434, Note_off_c, 0, 81, 64
12, 105581, Note_on_c, 0, 81, 102
12, 106080, Note_off_c, 0, 81, 64
12, 109913, Note_on_c, 0, 74, 93
12, 110103, Note_off_c, 0, 74, 64
12, 110157, Note_on_c, 0, 74, 93
12, 110322, Note_off_c, 0, 74, 64
12, 110400, Note_on_c, 0, 66, 93
12, 110614, Note_off_c, 0, 66, 64
12, 110645, Note_on_c, 0, 66, 85
12, 110812, Note_off_c, 0, 66, 64
12, 110889, Note_on_c, 0, 69, 87
12, 111087, Note_off_c, 0, 69, 64
12, 111122, Note_on_c, 0, 69, 87
12, 111221, Note_off_c, 0, 69, 64
12, 111368, Note_on_c, 0, 62, 105
12, 111692, Note_off_c, 0, 62, 64
12, 134877, Note_on_c, 0, 66, 80
12, 135050, Note_off_c, 0, 66, 64
12, 135117, Note_on_c, 0, 78, 87
12, 135174, Note_off_c, 0, 78, 64
12, 135225, Note_on_c, 0, 74, 82
12, 135272, Note_off_c, 0, 74, 64
12, 135360, Note_on_c, 0, 76, 85
12, 135682, Note_off_c, 0, 76, 64
12, 135846, Note_on_c, 0, 66, 82
12, 135992, Note_off_c, 0, 66, 64
12, 136096, Note_on_c, 0, 76, 87
12, 136148, Note_off_c, 0, 76, 64
12, 136204, Note_on_c, 0, 78, 91
12, 136247, Note_off_c, 0, 78, 64
12, 136334, Note_on_c, 0, 74, 95
12, 136636, Note_off_c, 0, 74, 64
12, 140650, Note_on_c, 0, 69, 85
12, 140821, Note_off_c, 0, 69, 64
12, 140884, Note_on_c, 0, 79, 82
12, 140940, Note_off_c, 0, 79, 64
12, 140996, Note_on_c, 0, 76, 80
12, 141048, Note_off_c, 0, 76, 64
12, 141125, Note_on_c, 0, 78, 91
12, 141299, Note_off_c, 0, 78, 64
12, 141366, Note_on_c, 0, 76, 85
12, 141428, Note_off_c, 0, 76, 64
12, 141478, Note_on_c, 0, 74, 80
12, 141541, Note_off_c, 0, 74, 64
12, 141602, Note_on_c, 0, 76, 98
12, 141665, Note_off_c, 0, 76, 64
12, 141707, Note_on_c, 0, 78, 93
12, 141764, Note_off_c, 0, 78, 64
12, 141829, Note_on_c, 0, 76, 102
12, 141885, Note_off_c, 0, 76, 64
12, 141942, Note_on_c, 0, 78, 93
12, 141995, Note_off_c, 0, 78, 64
12, 142074, Note_on_c, 0, 76, 107
12, 142212, Note_off_c, 0, 76, 64
12, 142319, Note_on_c, 0, 69, 89
12, 142468, Note_off_c, 0, 69, 64
12, 144486, Note_on_c, 0, 69, 102
12, 144619, Note_off_c, 0, 69, 64
12, 144709, Note_on_c, 0, 79, 87
12, 144777, Note_off_c, 0, 79, 64
12, 144824, Note_on_c, 0, 76, 87
12, 144885, Note_off_c, 0, 76, 64
12, 144957, Note_on_c, 0, 78, 98
12, 145022, Note_off_c, 0, 78, 64
12, 145066, Note_on_c, 0, 76, 98
12, 145132, Note_off_c, 0, 76, 64
12, 145184, Note_on_c, 0, 74, 98
12, 145258, Note_off_c, 0, 74, 64
12, 145294, Note_on_c, 0, 76, 95
12, 145353, Note_off_c, 0, 76, 64
12, 145418, Note_on_c, 0, 78, 85
12, 145508, Note_on_c, 0, 76, 82
12, 145517, Note_off_c, 0, 78, 64
12, 145559, Note_off_c, 0, 76, 64
12, 145561, Note_on_c, 0, 78, 78
12, 145609, Note_on_c, 0, 76, 82
12, 145620, Note_off_c, 0, 78, 64
12, 145730, Note_off_c, 0, 76, 64
12, 145760, Note_on_c, 0, 74, 85
12, 145829, Note_off_c, 0, 74, 64
12, 145917, Note_on_c, 0, 74, 91
12, 146249, Note_off_c, 0, 74, 64
12, 150244, Note_on_c, 0, 66, 98
12, 150397, Note_off_c, 0, 66, 64
12, 150478, Note_on_c, 0, 78, 85
12, 150536, Note_off_c, 0, 78, 64
12, 150590, Note_on_c, 0, 74, 80
12, 150642, Note_off_c, 0, 74, 64
12, 150723, Note_on_c, 0, 74, 93
12, 150829, Note_off_c, 0, 74, 64
12, 150836, Note_on_c, 0, 76, 70
12, 151052, Note_off_c, 0, 76, 64
12, 151220, Note_on_c, 0, 66, 91
12, 151338, Note_off_c, 0, 66, 64
12, 151446, Note_on_c, 0, 76, 98
12, 151518, Note_off_c, 0, 76, 64
12, 151549, Note_on_c, 0, 78, 85
12, 151599, Note_off_c, 0, 78, 64
12, 151684, Note_on_c, 0, 76, 102
12, 151800, Note_on_c, 0, 74, 78
12, 151808, Note_off_c, 0, 76, 64
12, 152005, Note_off_c, 0, 74, 64
12, 156004, Note_on_c, 0, 69, 87
12, 156162, Note_off_c, 0, 69, 64
12, 156251, Note_on_c, 0, 79, 80
12, 156310, Note_off_c, 0, 79, 64
12, 156360, Note_on_c, 0, 76, 82
12, 156414, Note_off_c, 0, 76, 64
12, 156485, Note_on_c, 0, 78, 98
12, 156657, Note_off_c, 0, 78, 64
12, 156718, Note_on_c, 0, 76, 85
12, 156780, Note_off_c, 0, 76, 64
12, 156828, Note_on_c, 0, 74, 85
12, 156892, Note_off_c, 0, 74, 64
12, 156954, Note_on_c, 0, 76, 91
12, 157021, Note_off_c, 0, 76, 64
12, 157062, Note_on_c, 0, 78, 87
12, 157130, Note_off_c, 0, 78, 64
12, 157178, Note_on_c, 0, 76, 105
12, 157237, Note_off_c, 0, 76, 64
12, 157295, Note_on_c, 0, 78, 93
12, 157352, Note_off_c, 0, 78, 64
12, 157424, Note_on_c, 0, 76, 102
12, 157538, Note_off_c, 0, 76, 64
12, 157658, Note_on_c, 0, 69, 89
12, 157782, Note_off_c, 0, 69, 64
12, 159847, Note_on_c, 0, 69, 105
12, 160004, Note_off_c, 0, 69, 64
12, 160090, Note_on_c, 0, 79, 85
12, 160158, Note_off_c, 0, 79, 64
12, 160200, Note_on_c, 0, 76, 87
12, 160261, Note_off_c, 0, 76, 64
12, 160328, Note_on_c, 0, 78, 89
12, 160400, Note_off_c, 0, 78, 64
12, 160437, Note_on_c, 0, 76, 80
12, 160497, Note_off_c, 0, 76, 64
12, 160558, Note_on_c, 0, 74, 93
12, 160634, Note_off_c, 0, 74, 64
12, 160682, Note_on_c, 0, 76, 93
12, 160747, Note_off_c, 0, 76, 64
12, 160801, Note_on_c, 0, 78, 91
12, 160902, Note_on_c, 0, 76, 85
12, 160905, Note_off_c, 0, 78, 64
12, 160950, Note_off_c, 0, 76, 64
12, 160950, Note_on_c, 0, 78, 70
12, 160999, Note_on_c, 0, 76, 87
12, 161004, Note_off_c, 0, 78, 64
12, 161114, Note_off_c, 0, 76, 64
12, 161143, Note_on_c, 0, 74, 85
12, 161206, Note_off_c, 0, 74, 64
12, 161287, Note_on_c, 0, 74, 102
12, 161566, Note_off_c, 0, 74, 64
12, 161566, End_track
13, 0, Start_track
13, 0, Title_t, "Trumpet"
13, 0, Program_c, 1, 56
13, 0, Control_c, 1, 7, 127
13, 29289, Note_on_c, 1, 76, 85
13, 29412, Note_off_c, 1, 76, 64
13, 29532, Note_on_c, 1, 76, 85
13, 29642, Note_off_c, 1, 76, 64
13, 29773, Note_on_c, 1, 74, 98
13, 29972, Note_off_c, 1, 74, 64
13, 30254, Note_on_c, 1, 83, 100
13, 30451, Note_off_c, 1, 83, 64
13, 30724, Note_on_c, 1, 81, 100
13, 31178, Note_off_c, 1, 81, 64
13, 33116, Note_on_c, 1, 76, 89
13, 33231, Note_off_c, 1, 76, 64
13, 33357, Note_on_c, 1, 76, 91
13, 33478, Note_off_c, 1, 76, 64
13, 33588, Note_on_c, 1, 74, 89
13, 33730, Note_off_c, 1, 74, 64
13, 33833, Note_on_c, 1, 74, 91
13, 33933, Note_off_c, 1, 74, 64
13, 34067, Note_on_c, 1, 69, 82
13, 34124, Note_off_c, 1, 69, 64
13, 34191, Note_on_c, 1, 66, 105
13, 34256, Note_off_c, 1, 66, 64
13, 34293, Note_on_c, 1, 69, 102
13, 34373, Note_off_c, 1, 69, 64
13, 34545, Note_on_c, 1, 66, 107
13, 35026, Note_off_c, 1, 66, 64
13, 44649, Note_on_c, 1, 76, 85
13, 44772, Note_off_c, 1, 76, 64
13, 44892, Note_on_c, 1, 76, 85
13, 45002, Note_off_c, 1, 76, 64
13, 45133, Note_on_c, 1, 74, 98
13, 45332, Note_off_c, 1, 74, 64
13, 45614, Note_on_c, 1, 83, 100
13, 45811, Note_off_c, 1, 83, 64
13, 46084, Note_on_c, 1, 81, 100
13, 46538, Note_off_c, 1, 81, 64
13, 48476, Note_on_c, 1, 76, 89
13, 48591, Note_off_c, 1, 76, 64
13, 48717, Note_on_c, 1, 76, 91
13, 48838, Note_off_c, 1, 76, 64
13, 48948, Note_on_c, 1, 74, 89
13, 49090, Note_off_c, 1, 74, 64
13, 49193, Note_on_c, 1, 74, 91
13, 49293, Note_off_c, 1, 74, 64
13, 49427, Note_on_c, 1, 69, 82
13, 49484, Note_off_c, 1, 69, 64
13, 49551, Note_on_c, 1, 66, 105
13, 49616, Note_off_c, 1, 66, 64
13, 49653, Note_on_c, 1, 69, 102
13, 49733, Note_off_c, 1, 69, 64
13, 49905, Note_on_c, 1, 66, 107
13, 50386, Note_off_c, 1, 66, 64
13, 88809, Note_on_c, 1, 66, 100
13, 89042, Note_off_c, 1, 66, 64
13, 89043, Note_on_c, 1, 69, 87
13, 89166, Note_off_c, 1, 69, 64
13, 89279, Note_on_c, 1, 69, 87
13, 89495, Note_off_c, 1, 69, 64
13, 89519, Note_on_c, 1, 74, 85
13, 89630, Note_off_c, 1, 74, 64
13, 89756, Note_on_c, 1, 74, 93
13, 89949, Note_off_c, 1, 74, 64
13, 89990, Note_on_c, 1, 78, 91
13, 90068, Note_off_c, 1, 78, 64
13, 90233, Note_on_c, 1, 78, 105
13, 90696, Note_off_c, 1, 78, 64
13, 94544, Note_on_c, 1, 74, 98
13, 94740, Note_off_c, 1, 74, 64
13, 94782, Note_on_c, 1, 74, 80
13, 94947, Note_off_c, 1, 74, 64
13, 95030, Note_on_c, 1, 66, 82
13, 95246, Note_off_c, 1, 66, 64
13, 95277, Note_on_c, 1, 66, 82
13, 95433, Note_off_c, 1, 66, 64
13, 95522, Note_on_c, 1, 69, 87
13, 95725, Note_off_c, 1, 69, 64
13, 95756, Note_on_c, 1, 69, 80
13, 95850, Note_off_c, 1, 69, 64
13, 96006, Note_on_c, 1, 62, 98
13, 96335, Note_off_c, 1, 62, 64
13, 104169, Note_on_c, 1, 66, 100
13, 104402, Note_off_c, 1, 66, 64
13, 104403, Note_on_c, 1, 69, 87
13, 104526, Note_off_c, 1, 69, 64
13, 104639, Note_on_c, 1, 69, 87
13, 104855, Note_off_c, 1, 69, 64
13, 104879, Note_on_c, 1, 74, 85
13, 104990, Note_off_c, 1, 74, 64
13, 105116, Note_on_c, 1, 74, 93
13, 105309, Note_off_c, 1, 74, 64
13, 105350, Note_on_c, 1, 78, 91
13, 105428, Note_off_c, 1, 78, 64
13, 105593, Note_on_c, 1, 78, 105
13, 106056, Note_off_c, 1, 78, 64
13, 109904, Note_on_c, 1, 74, 98
13, 110100, Note_off_c, 1, 74, 64
13, 110142, Note_on_c, 1, 74, 80
13, 110307, Note_off_c, 1, 74, 64
13, 110390, Note_on_c, 1, 66, 82
13, 110606, Note_off_c, 1, 66, 64
13, 110637, Note_on_c, 1, 66, 82
13, 110793, Note_off_c, 1, 66, 64
13, 110882, Note_on_c, 1, 69, 87
13, 111085, Note_off_c, 1, 69, 64
13, 111116, Note_on_c, 1, 69, 80
13, 111210, Note_off_c, 1, 69, 64
13, 111366, Note_on_c, 1, 62, 98
13, 111695, Note_off_c, 1, 62, 64
13, 140649, Note_on_c, 1, 76, 85
13, 140772, Note_off_c, 1, 76, 64
13, 140892, Note_on_c, 1, 76, 85
13, 141002, Note_off_c, 1, 76, 64
13, 141133, Note_on_c, 1, 74, 98
13, 141332, Note_off_c, 1, 74, 64
13, 141614, Note_on_c, 1, 83, 100
13, 141811, Note_off_c, 1, 83, 64
13, 142084, Note_on_c, 1, 81, 100
13, 142538, Note_off_c, 1, 81, 64
13, 144476, Note_on_c, 1, 76, 89
13, 144591, Note_off_c, 1, 76, 64
13, 144717, Note_on_c, 1, 76, 91
13, 144838, Note_off_c, 1, 76, 64
13, 144948, Note_on_c, 1, 74, 89
13, 145090, Note_off_c, 1, 74, 64
13, 145193, Note_on_c, 1, 74, 91
13, 145293, Note_off_c, 1, 74, 64
13, 145427, Note_on_c, 1, 69, 82
13, 145484, Note_off_c, 1, 69, 64
13, 145551, Note_on_c, 1, 66, 105
13, 145616, Note_off_c, 1, 66, 64
13, 145653, Note_on_c, 1, 69, 102
13, 145733, Note_off_c, 1, 69, 64
13, 145905, Note_on_c, 1, 66, 107
13, 146386, Note_off_c, 1, 66, 64
13, 156009, Note_on_c, 1, 76, 85
13, 156132, Note_off_c, 1, 76, 64
13, 156252, Note_on_c, 1, 76, 85
13, 156362, Note_off_c, 1, 76, 64
13, 156493, Note_on_c, 1, 74, 98
13, 156692, Note_off_c, 1, 74, 64
13, 156974, Note_on_c, 1, 83, 100
13, 157171, Note_off_c, 1, 83, 64
13, 157444, Note_on_c, 1, 81, 100
13, 157898, Note_off_c, 1, 81, 64
13, 159836, Note_on_c, 1, 76, 89
13, 159951, Note_off_c, 1, 76, 64
13, 160077, Note_on_c, 1, 76, 91
13, 160198, Note_off_c, 1, 76, 64
13, 160308, Note_on_c, 1, 74, 89
13, 160450, Note_off_c, 1, 74, 64
13, 160553, Note_on_c, 1, 74, 91
13, 160653, Note_off_c, 1, 74, 64
13, 160787, Note_on_c, 1, 69, 82
13, 160844, Note_off_c, 1, 69, 64
13, 160911, Note_on_c, 1, 66, 105
13, 160976, Note_off_c, 1, 66, 64
13, 161013, Note_on_c, 1, 69, 102
13, 161093, Note_off_c, 1, 69, 64
13, 161265, Note_on_c, 1, 66, 107
13, 161746, Note_off_c, 1, 66, 64
13, 161746, End_track
14, 0, Start_track
14, 0, Title_t, "Trumpet"
14, 0, Program_c, 2, 56
14, 0, Control_c, 2, 7, 127
14, 29309, Note_on_c, 2, 69, 102
14, 29423, Note_off_c, 2, 69, 64
14, 29541, Note_on_c, 2, 69, 102
14, 29644, Note_off_c, 2, 69, 64
14, 29792, Note_on_c, 2, 69, 113
14, 29970, Note_off_c, 2, 69, 64
14, 30254, Note_on_c, 2, 74, 105
14, 30423, Note_off_c, 2, 74, 64
14, 30717, Note_on_c, 2, 69, 116
14, 31194, Note_off_c, 2, 69, 64
14, 33093, Note_on_c, 2, 69, 100
14, 33217, Note_off_c, 2, 69, 64
14, 33338, Note_on_c, 2, 69, 98
14, 33444, Note_off_c, 2, 69, 64
14, 33581, Note_on_c, 2, 69, 100
14, 33708, Note_off_c, 2, 69, 64
14, 33820, Note_on_c, 2, 66, 82
14, 33881, Note_off_c, 2, 66, 64
14, 33942, Note_on_c, 2, 62, 89
14, 34022, Note_off_c, 2, 62, 64
14, 34063, Note_on_c, 2, 69, 98
14, 34207, Note_off_c, 2, 69, 64
14, 34301, Note_on_c, 2, 69, 100
14, 34353, Note_off_c, 2, 69, 64
14, 34409, Note_on_c, 2, 69, 100
14, 34464, Note_off_c, 2, 69, 64
14, 34554, Note_on_c, 2, 69, 107
14, 35037, Note_off_c, 2, 69, 64
14, 44669, Note_on_c, 2, 69, 102
14, 44783, Note_off_c, 2, 69, 64
14, 44901, Note_on_c, 2, 69, 102
14, 45004, Note_off_c, 2, 69, 64
14, 45152, Note_on_c, 2, 69, 113
14, 45330, Note_off_c, 2, 69, 64
14, 45614, Note_on_c, 2, 74, 105
14, 45783, Note_off_c, 2, 74, 64
14, 46077, Note_on_c, 2, 69, 116
14, 46554, Note_off_c, 2, 69, 64
14, 48453, Note_on_c, 2, 69, 100
14, 48577, Note_off_c, 2, 69, 64
14, 48698, Note_on_c, 2, 69, 98
14, 48804, Note_off_c, 2, 69, 64
14, 48941, Note_on_c, 2, 69, 100
14, 49068, Note_off_c, 2, 69, 64
14, 49180, Note_on_c, 2, 66, 82
14, 49241, Note_off_c, 2, 66, 64
14, 49302, Note_on_c, 2, 62, 89
14, 49382, Note_off_c, 2, 62, 64
14, 49423, Note_on_c, 2, 69, 98
14, 49567, Note_off_c, 2, 69, 64
14, 49661, Note_on_c, 2, 69, 100
14, 49713, Note_off_c, 2, 69, 64
14, 49769, Note_on_c, 2, 69, 100
14, 49824, Note_off_c, 2, 69, 64
14, 49914, Note_on_c, 2, 69, 107
14, 50397, Note_off_c, 2, 69, 64
14, 88800, Note_on_c, 2, 62, 98
14, 89018, Note_off_c, 2, 62, 64
14, 89034, Note_on_c, 2, 66, 89
14, 89147, Note_off_c, 2, 66, 64
14, 89274, Note_on_c, 2, 66, 93
14, 89497, Note_off_c, 2, 66, 64
14, 89511, Note_on_c, 2, 69, 89
14, 89627, Note_off_c, 2, 69, 64
14, 89754, Note_on_c, 2, 69, 93
14, 89938, Note_off_c, 2, 69, 64
14, 89979, Note_on_c, 2, 74, 80
14, 90084, Note_off_c, 2, 74, 64
14, 90226, Note_on_c, 2, 74, 102
14, 90687, Note_off_c, 2, 74, 64
14, 94544, Note_on_c, 2, 74, 87
14, 94733, Note_off_c, 2, 74, 64
14, 94775, Note_on_c, 2, 74, 87
14, 94937, Note_off_c, 2, 74, 64
14, 95030, Note_on_c, 2, 66, 82
14, 95243, Note_off_c, 2, 66, 64
14, 95279, Note_on_c, 2, 66, 78
14, 95433, Note_off_c, 2, 66, 64
14, 95517, Note_on_c, 2, 69, 85
14, 95709, Note_off_c, 2, 69, 64
14, 95750, Note_on_c, 2, 69, 82
14, 95862, Note_off_c, 2, 69, 64
14, 96004, Note_on_c, 2, 62, 95
14, 96305, Note_off_c, 2, 62, 64
14, 104160, Note_on_c, 2, 62, 98
14, 104378, Note_off_c, 2, 62, 64
14, 104394, Note_on_c, 2, 66, 89
14, 104507, Note_off_c, 2, 66, 64
14, 104634, Note_on_c, 2, 66, 93
14, 104857, Note_off_c, 2, 66, 64
14, 104871, Note_on_c, 2, 69, 89
14, 104987, Note_off_c, 2, 69, 64
14, 105114, Note_on_c, 2, 69, 93
14, 105298, Note_off_c, 2, 69, 64
14, 105339, Note_on_c, 2, 74, 80
14, 105444, Note_off_c, 2, 74, 64
14, 105586, Note_on_c, 2, 74, 102
14, 106047, Note_off_c, 2, 74, 64
14, 109904, Note_on_c, 2, 74, 87
14, 110093, Note_off_c, 2, 74, 64
14, 110135, Note_on_c, 2, 74, 87
14, 110297, Note_off_c, 2, 74, 64
14, 110390, Note_on_c, 2, 66, 82
14, 110603, Note_off_c, 2, 66, 64
14, 110639, Note_on_c, 2, 66, 78
14, 110793, Note_off_c, 2, 66, 64
14, 110877, Note_on_c, 2, 69, 85
14, 111069, Note_off_c, 2, 69, 64
14, 111110, Note_on_c, 2, 69, 82
14, 111222, Note_off_c, 2, 69, 64
14, 111364, Note_on_c, 2, 62, 95
14, 111665, Note_off_c, 2, 62, 64
14, 140669, Note_on_c, 2, 69, 102
14, 140783, Note_off_c, 2, 69, 64
14, 140901, Note_on_c, 2, 69, 102
14, 141004, Note_off_c, 2, 69, 64
14, 141152, Note_on_c, 2, 69, 113
14, 141330, Note_off_c, 2, 69, 64
14, 141614, Note_on_c, 2, 74, 105
14, 141783, Note_off_c, 2, 74, 64
14, 142077, Note_on_c, 2, 69, 116
14, 142554, Note_off_c, 2, 69, 64
14, 144453, Note_on_c, 2, 69, 100
14, 144577, Note_off_c, 2, 69, 64
14, 144698, Note_on_c, 2, 69, 98
14, 144804, Note_off_c, 2, 69, 64
14, 144941, Note_on_c, 2, 69, 100
14, 145068, Note_off_c, 2, 69, 64
14, 145180, Note_on_c, 2, 66, 82
14, 145241, Note_off_c, 2, 66, 64
14, 145302, Note_on_c, 2, 62, 89
14, 145382, Note_off_c, 2, 62, 64
14, 145423, Note_on_c, 2, 69, 98
14, 145567, Note_off_c, 2, 69, 64
14, 145661, Note_on_c, 2, 69, 100
14, 145713, Note_off_c, 2, 69, 64
14, 145769, Note_on_c, 2, 69, 100
14, 145824, Note_off_c, 2, 69, 64
14, 145914, Note_on_c, 2, 69, 107
14, 146397, Note_off_c, 2, 69, 64
14, 156029, Note_on_c, 2, 69, 102
14, 156143, Note_off_c, 2, 69, 64
14, 156261, Note_on_c, 2, 69, 102
14, 156364, Note_off_c, 2, 69, 64
14, 156512, Note_on_c, 2, 69, 113
14, 156690, Note_off_c, 2, 69, 64
14, 156974, Note_on_c, 2, 74, 105
14, 157143, Note_off_c, 2, 74, 64
14, 157437, Note_on_c, 2, 69, 116
14, 157914, Note_off_c, 2, 69, 64
14, 159813, Note_on_c, 2, 69, 100
14, 159937, Note_off_c, 2, 69, 64
14, 160058, Note_on_c, 2, 69, 98
14, 160164, Note_off_c, 2, 69, 64
14, 160301, Note_on_c, 2, 69, 100
14, 160428, Note_off_c, 2, 69, 64
14, 160540, Note_on_c, 2, 66, 82
14, 160601, Note_off_c, 2, 66, 64
14, 160662, Note_on_c, 2, 62, 89
14, 160742, Note_off_c, 2, 62, 64
14, 160783, Note_on_c, 2, 69, 98
14, 160927, Note_off_c, 2, 69, 64
14, 161021, Note_on_c, 2, 69, 100
14, 161073, Note_off_c, 2, 69, 64
14, 161129, Note_on_c, 2, 69, 100
14, 161184, Note_off_c, 2, 69, 64
14, 161274, Note_on_c, 2, 69, 107
14, 161757, Note_off_c, 2, 69, 64
14, 161757, End_track
15, 0, Start_track
15, 0, Title_t, "Timpani"
15, 0, Program_c, 3, 47
15, 0, Control_c, 3, 7, 100
15, 29297, Note_on_c, 3, 45, 110
15, 29378, Note_off_c, 3, 45, 64
15, 29536, Note_on_c, 3, 45, 110
15, 29614, Note_off_c, 3, 45, 64
15, 29770, Note_on_c, 3, 50, 119
15, 29855, Note_off_c, 3, 50, 64
15, 30245, Note_on_c, 3, 50, 122
15, 30324, Note_off_c, 3, 50, 64
15, 30729, Note_on_c, 3, 45, 127
15, 30825, Note_off_c, 3, 45, 64
15, 33136, Note_on_c, 3, 45, 119
15, 33208, Note_off_c, 3, 45, 64
15, 33368, Note_on_c, 3, 45, 119
15, 33437, Note_off_c, 3, 45, 64
15, 33602, Note_on_c, 3, 50, 119
15, 33683, Note_off_c, 3, 50, 64
15, 34080, Note_on_c, 3, 45, 122
15, 34155, Note_off_c, 3, 45, 64
15, 34310, Note_on_c, 3, 45, 122
15, 34369, Note_off_c, 3, 45, 64
15, 34547, Note_on_c, 3, 50, 122
15, 34614, Note_off_c, 3, 50, 64
15, 44657, Note_on_c, 3, 45, 110
15, 44738, Note_off_c, 3, 45, 64
15, 44896, Note_on_c, 3, 45, 110
15, 44974, Note_off_c, 3, 45, 64
15, 45130, Note_on_c, 3, 50, 119
15, 45215, Note_off_c, 3, 50, 64
15, 45605, Note_on_c, 3, 50, 122
15, 45684, Note_off_c, 3, 50, 64
15, 46089, Note_on_c, 3, 45, 127
15, 46185, Note_off_c, 3, 45, 64
15, 48496, Note_on_c, 3, 45, 119
15, 48568, Note_off_c, 3, 45, 64
15, 48728, Note_on_c, 3, 45, 119
15, 48797, Note_off_c, 3, 45, 64
15, 48962, Note_on_c, 3, 50, 119
15, 49043, Note_off_c, 3, 50, 64
15, 49440, Note_on_c, 3, 45, 122
15, 49515, Note_off_c, 3, 45, 64
15, 49670, Note_on_c, 3, 45, 122
15, 49729, Note_off_c, 3, 45, 64
15, 49907, Note_on_c, 3, 50, 122
15, 49974, Note_off_c, 3, 50, 64
15, 140657, Note_on_c, 3, 45, 110
15, 140738, Note_off_c, 3, 45, 64
15, 140896, Note_on_c, 3, 45, 110
15, 140974, Note_off_c, 3, 45, 64
15, 141130, Note_on_c, 3, 50, 119
15, 141215, Note_off_c, 3, 50, 64
15, 141605, Note_on_c, 3, 50, 122
15, 141684, Note_off_c, 3, 50, 64
15, 142089, Note_on_c, 3, 45, 127
15, 142185, Note_off_c, 3, 45, 64
15, 144496, Note_on_c, 3, 45, 119
15, 144568, Note_off_c, 3, 45, 64
15, 144728, Note_on_c, 3, 45, 119
15, 144797, Note_off_c, 3, 45, 64
15, 144962, Note_on_c, 3, 50, 119
15, 145043, Note_off_c, 3, 50, 64
15, 145440, Note_on_c, 3, 45, 122
15, 145515, Note_off_c, 3, 45, 64
15, 145670, Note_on_c, 3, 45, 122
15, 145729, Note_off_c, 3, 45, 64
15, 145907, Note_on_c, 3, 50, 122
15, 145974, Note_off_c, 3, 50, 64
15, 156017, Note_on_c, 3, 45, 110
15, 156098, Note_off_c, 3, 45, 64
15, 156256, Note_on_c, 3, 45, 110
15, 156334, Note_off_c, 3, 45, 64
15, 156490, Note_on_c, 3, 50, 119
15, 156575, Note_off_c, 3, 50, 64
15, 156965, Note_on_c, 3, 50, 122
15, 157044, Note_off_c, 3, 50, 64
15, 157449, Note_on_c, 3, 45, 127
15, 157545, Note_off_c, 3, 45, 64
15, 159856, Note_on_c, 3, 45, 119
15, 159928, Note_off_c, 3, 45, 64
15, 160088, Note_on_c, 3, 45, 119
15, 160157, Note_off_c, 3, 45, 64
15, 160322, Note_on_c, 3, 50, 119
15, 160403, Note_off_c, 3, 50, 64
15, 160800, Note_on_c, 3, 45, 122
15, 160875, Note_off_c, 3, 45, 64
15, 161030, Note_on_c, 3, 45, 122
15, 161089, Note_off_c, 3, 45, 64
15, 161267, Note_on_c, 3, 50, 122
15, 161334, Note_off_c, 3, 50, 64
15, 161334, End_track
16, 0, Start_track
16, 0, Title_t, "Oboe"
16, 0, Program_c, 4, 68
16, 0, Control_c, 4, 7, 100
16, 19677, Note_on_c, 4, 76, 85
16, 19830, Note_off_c, 4, 76, 64
16, 19915, Note_on_c, 4, 64, 64
16, 19974, Note_off_c, 4, 64, 64
16, 20030, Note_on_c, 4, 67, 64
16, 20106, Note_off_c, 4, 67, 64
16, 20149, Note_on_c, 4, 66, 53
16, 20426, Note_off_c, 4, 66, 64
16, 20628, Note_on_c, 4, 74, 87
16, 20807, Note_off_c, 4, 74, 64
16, 20864, Note_on_c, 4, 66, 58
16, 20955, Note_off_c, 4, 66, 64
16, 20975, Note_on_c, 4, 69, 60
16, 21022, Note_off_c, 4, 69, 64
16, 21114, Note_on_c, 4, 67, 66
16, 21395, Note_off_c, 4, 67, 64
16, 21593, Note_on_c, 4, 73, 87
16, 21764, Note_off_c, 4, 73, 64
16, 21827, Note_on_c, 4, 70, 64
16, 21888, Note_off_c, 4, 70, 64
16, 21940, Note_on_c, 4, 73, 68
16, 22008, Note_off_c, 4, 73, 64
16, 22075, Note_on_c, 4, 71, 87
16, 22244, Note_off_c, 4, 71, 64
16, 22304, Note_on_c, 4, 73, 63
16, 22386, Note_off_c, 4, 73, 64
16, 22411, Note_on_c, 4, 74, 70
16, 22491, Note_off_c, 4, 74, 64
16, 22538, Note_on_c, 4, 73, 82
16, 22601, Note_off_c, 4, 73, 64
16, 22644, Note_on_c, 4, 71, 64
16, 22716, Note_off_c, 4, 71, 64
16, 22775, Note_on_c, 4, 79, 74
16, 22892, Note_off_c, 4, 79, 64
16, 23015, Note_on_c, 4, 81, 82
16, 23076, Note_on_c, 4, 79, 68
16, 23082, Note_off_c, 4, 81, 64
16, 23130, Note_on_c, 4, 81, 61
16, 23142, Note_off_c, 4, 79, 64
16, 23178, Note_on_c, 4, 79, 64
16, 23184, Note_off_c, 4, 81, 64
16, 23256, Note_off_c, 4, 79, 64
16, 23259, Note_on_c, 4, 78, 70
16, 23346, Note_off_c, 4, 78, 64
16, 23497, Note_on_c, 4, 66, 82
16, 23646, Note_off_c, 4, 66, 64
16, 23739, Note_on_c, 4, 78, 58
16, 23810, Note_off_c, 4, 78, 64
16, 23848, Note_on_c, 4, 74, 64
16, 23907, Note_off_c, 4, 74, 64
16, 23983, Note_on_c, 4, 76, 82
16, 24260, Note_off_c, 4, 76, 64
16, 24485, Note_on_c, 4, 66, 72
16, 24617, Note_off_c, 4, 66, 64
16, 24714, Note_on_c, 4, 76, 82
16, 24789, Note_off_c, 4, 76, 64
16, 24825, Note_on_c, 4, 73, 64
16, 24887, Note_off_c, 4, 73, 64
16, 24955, Note_on_c, 4, 74, 82
16, 25130, Note_off_c, 4, 74, 64
16, 25194, Note_on_c, 4, 71, 66
16, 25265, Note_off_c, 4, 71, 64
16, 25302, Note_on_c, 4, 74, 72
16, 25382, Note_off_c, 4, 74, 64
16, 25430, Note_on_c, 4, 73, 64
16, 25502, Note_off_c, 4, 73, 64
16, 25533, Note_on_c, 4, 70, 70
16, 25598, Note_off_c, 4, 70, 64
16, 25655, Note_on_c, 4, 71, 63
16, 25749, Note_off_c, 4, 71, 64
16, 25898, Note_on_c, 4, 78, 76
16, 26094, Note_off_c, 4, 78, 64
16, 26147, Note_on_c, 4, 79, 72
16, 26240, Note_off_c, 4, 79, 64
16, 26258, Note_on_c, 4, 78, 60
16, 26341, Note_off_c, 4, 78, 64
16, 26376, Note_on_c, 4, 76, 66
16, 26474, Note_off_c, 4, 76, 64
16, 26499, Note_on_c, 4, 74, 59
16, 26588, Note_off_c, 4, 74, 64
16, 26622, Note_on_c, 4, 73, 62
16, 26705, Note_off_c, 4, 73, 64
16, 26737, Note_on_c, 4, 74, 64
16, 26800, Note_off_c, 4, 74, 64
16, 26868, Note_on_c, 4, 71, 82
16, 27117, Note_off_c, 4, 71, 64
16, 27351, Note_on_c, 4, 71, 85
16, 27529, Note_off_c, 4, 71, 64
16, 27596, Note_on_c, 4, 83, 72
16, 27660, Note_off_c, 4, 83, 64
16, 27707, Note_on_c, 4, 79, 72
16, 27761, Note_off_c, 4, 79, 64
16, 27828, Note_on_c, 4, 81, 74
16, 28103, Note_off_c, 4, 81, 64
16, 28308, Note_on_c, 4, 71, 82
16, 28485, Note_off_c, 4, 71, 64
16, 28550, Note_on_c, 4, 81, 76
16, 28605, Note_off_c, 4, 81, 64
16, 28663, Note_on_c, 4, 78, 80
16, 28715, Note_off_c, 4, 78, 64
16, 28787, Note_on_c, 4, 79, 80
16, 29075, Note_off_c, 4, 79, 64
16, 29280, Note_on_c, 4, 73, 95
16, 29450, Note_off_c, 4, 73, 64
16, 29518, Note_on_c, 4, 79, 87
16, 29586, Note_off_c, 4, 79, 64
16, 29626, Note_on_c, 4, 76, 87
16, 29675, Note_off_c, 4, 76, 64
16, 29747, Note_on_c, 4, 78, 98
16, 29923, Note_off_c, 4, 78, 64
16, 29988, Note_on_c, 4, 76, 80
16, 30063, Note_off_c, 4, 76, 64
16, 30096, Note_on_c, 4, 74, 82
16, 30159, Note_off_c, 4, 74, 64
16, 30213, Note_on_c, 4, 76, 89
16, 30287, Note_off_c, 4, 76, 64
16, 30332, Note_on_c, 4, 73, 80
16, 30395, Note_off_c, 4, 73, 64
16, 30443, Note_on_c, 4, 74, 89
16, 30549, Note_off_c, 4, 74, 64
16, 30683, Note_on_c, 4, 74, 93
16, 30742, Note_off_c, 4, 74, 64
16, 30742, Note_on_c, 4, 73, 46
16, 30780, Note_on_c, 4, 74, 68
16, 30798, Note_off_c, 4, 73, 64
16, 30846, Note_on_c, 4, 73, 64
16, 30864, Note_off_c, 4, 74, 64
16, 30927, Note_on_c, 4, 71, 72
16, 30958, Note_off_c, 4, 73, 64
16, 30991, Note_off_c, 4, 71, 64
16, 31055, Note_on_c, 4, 69, 85
16, 31127, Note_off_c, 4, 69, 64
16, 31187, Note_on_c, 4, 81, 85
16, 31334, Note_off_c, 4, 81, 64
16, 31428, Note_on_c, 4, 69, 66
16, 31507, Note_off_c, 4, 69, 64
16, 31547, Note_on_c, 4, 72, 72
16, 31613, Note_off_c, 4, 72, 64
16, 31669, Note_on_c, 4, 71, 57
16, 31937, Note_off_c, 4, 71, 64
16, 32160, Note_on_c, 4, 79, 91
16, 32294, Note_off_c, 4, 79, 64
16, 32385, Note_on_c, 4, 71, 74
16, 32463, Note_off_c, 4, 71, 64
16, 32495, Note_on_c, 4, 74, 85
16, 32571, Note_off_c, 4, 74, 64
16, 32632, Note_on_c, 4, 73, 87
16, 32787, Note_off_c, 4, 73, 64
16, 32862, Note_on_c, 4, 76, 68
16, 32943, Note_off_c, 4, 76, 64
16, 32965, Note_on_c, 4, 73, 60
16, 33039, Note_off_c, 4, 73, 64
16, 33096, Note_on_c, 4, 69, 72
16, 33237, Note_off_c, 4, 69, 64
16, 33345, Note_on_c, 4, 79, 74
16, 33428, Note_off_c, 4, 79, 64
16, 33460, Note_on_c, 4, 76, 78
16, 33530, Note_off_c, 4, 76, 64
16, 33586, Note_on_c, 4, 78, 89
16, 33672, Note_off_c, 4, 78, 64
16, 33698, Note_on_c, 4, 76, 80
16, 33768, Note_off_c, 4, 76, 64
16, 33826, Note_on_c, 4, 74, 76
16, 33905, Note_off_c, 4, 74, 64
16, 33939, Note_on_c, 4, 76, 74
16, 33995, Note_off_c, 4, 76, 64
16, 34070, Note_on_c, 4, 69, 78
16, 34153, Note_off_c, 4, 69, 64
16, 34306, Note_on_c, 4, 73, 66
16, 34394, Note_off_c, 4, 73, 64
16, 34547, Note_on_c, 4, 74, 80
16, 34810, Note_off_c, 4, 74, 64
16, 35044, Note_on_c, 4, 76, 82
16, 35199, Note_off_c, 4, 76, 64
16, 35259, Note_on_c, 4, 64, 64
16, 35327, Note_off_c, 4, 64, 64
16, 35373, Note_on_c, 4, 67, 63
16, 35444, Note_off_c, 4, 67, 64
16, 35490, Note_on_c, 4, 67, 80
16, 35606, Note_on_c, 4, 66, 63
16, 35631, Note_off_c, 4, 67, 64
16, 35759, Note_off_c, 4, 66, 64
16, 35982, Note_on_c, 4, 74, 93
16, 36131, Note_off_c, 4, 74, 64
16, 36216, Note_on_c, 4, 66, 59
16, 36317, Note_off_c, 4, 66, 64
16, 36336, Note_on_c, 4, 69, 76
16, 36399, Note_off_c, 4, 69, 64
16, 36457, Note_on_c, 4, 69, 85
16, 36576, Note_on_c, 4, 67, 66
16, 36608, Note_off_c, 4, 69, 64
16, 36720, Note_off_c, 4, 67, 64
16, 36947, Note_on_c, 4, 73, 89
16, 37116, Note_off_c, 4, 73, 64
16, 37175, Note_on_c, 4, 70, 66
16, 37245, Note_off_c, 4, 70, 64
16, 37298, Note_on_c, 4, 73, 78
16, 37355, Note_off_c, 4, 73, 64
16, 37425, Note_on_c, 4, 71, 89
16, 37609, Note_off_c, 4, 71, 64
16, 37665, Note_on_c, 4, 73, 56
16, 37742, Note_off_c, 4, 73, 64
16, 37776, Note_on_c, 4, 74, 68
16, 37863, Note_off_c, 4, 74, 64
16, 37899, Note_on_c, 4, 73, 78
16, 37971, Note_off_c, 4, 73, 64
16, 38005, Note_on_c, 4, 71, 57
16, 38072, Note_off_c, 4, 71, 64
16, 38140, Note_on_c, 4, 79, 68
16, 38243, Note_off_c, 4, 79, 64
16, 38375, Note_on_c, 4, 81, 82
16, 38432, Note_on_c, 4, 79, 68
16, 38435, Note_off_c, 4, 81, 64
16, 38484, Note_on_c, 4, 81, 64
16, 38488, Note_off_c, 4, 79, 64
16, 38529, Note_on_c, 4, 79, 80
16, 38543, Note_off_c, 4, 81, 64
16, 38610, Note_off_c, 4, 79, 64
16, 38612, Note_on_c, 4, 78, 70
16, 38720, Note_off_c, 4, 78, 64
16, 38867, Note_on_c, 4, 66, 76
16, 39020, Note_off_c, 4, 66, 64
16, 39108, Note_on_c, 4, 78, 63
16, 39193, Note_off_c, 4, 78, 64
16, 39224, Note_on_c, 4, 74, 68
16, 39270, Note_off_c, 4, 74, 64
16, 39344, Note_on_c, 4, 74, 91
16, 39465, Note_off_c, 4, 74, 64
16, 39470, Note_on_c, 4, 76, 64
16, 39666, Note_off_c, 4, 76, 64
16, 39825, Note_on_c, 4, 66, 64
16, 39954, Note_off_c, 4, 66, 64
16, 40050, Note_on_c, 4, 76, 80
16, 40116, Note_off_c, 4, 76, 64
16, 40167, Note_on_c, 4, 73, 66
16, 40230, Note_off_c, 4, 73, 64
16, 40307, Note_on_c, 4, 74, 87
16, 40484, Note_off_c, 4, 74, 64
16, 40547, Note_on_c, 4, 71, 72
16, 40617, Note_off_c, 4, 71, 64
16, 40656, Note_on_c, 4, 74, 70
16, 40723, Note_off_c, 4, 74, 64
16, 40779, Note_on_c, 4, 73, 58
16, 40862, Note_off_c, 4, 73, 64
16, 40883, Note_on_c, 4, 70, 64
16, 40952, Note_off_c, 4, 70, 64
16, 41012, Note_on_c, 4, 71, 60
16, 41108, Note_off_c, 4, 71, 64
16, 41259, Note_on_c, 4, 78, 85
16, 41448, Note_off_c, 4, 78, 64
16, 41499, Note_on_c, 4, 79, 74
16, 41582, Note_off_c, 4, 79, 64
16, 41618, Note_on_c, 4, 78, 80
16, 41690, Note_off_c, 4, 78, 64
16, 41742, Note_on_c, 4, 76, 70
16, 41828, Note_off_c, 4, 76, 64
16, 41862, Note_on_c, 4, 74, 72
16, 41927, Note_off_c, 4, 74, 64
16, 41979, Note_on_c, 4, 73, 66
16, 42051, Note_off_c, 4, 73, 64
16, 42091, Note_on_c, 4, 74, 82
16, 42158, Note_off_c, 4, 74, 64
16, 42230, Note_on_c, 4, 71, 57
16, 42498, Note_off_c, 4, 71, 64
16, 42716, Note_on_c, 4, 71, 82
16, 42872, Note_off_c, 4, 71, 64
16, 42951, Note_on_c, 4, 83, 82
16, 43023, Note_off_c, 4, 83, 64
16, 43061, Note_on_c, 4, 79, 82
16, 43121, Note_off_c, 4, 79, 64
16, 43203, Note_on_c, 4, 79, 100
16, 43310, Note_on_c, 4, 81, 60
16, 43324, Note_off_c, 4, 79, 64
16, 43506, Note_off_c, 4, 81, 64
16, 43673, Note_on_c, 4, 71, 82
16, 43826, Note_off_c, 4, 71, 64
16, 43893, Note_on_c, 4, 81, 78
16, 43959, Note_off_c, 4, 81, 64
16, 44010, Note_on_c, 4, 78, 80
16, 44071, Note_off_c, 4, 78, 64
16, 44139, Note_on_c, 4, 78, 100
16, 44260, Note_on_c, 4, 79, 68
16, 44269, Note_off_c, 4, 78, 64
16, 44465, Note_off_c, 4, 79, 64
16, 44649, Note_on_c, 4, 73, 82
16, 44814, Note_off_c, 4, 73, 64
16, 44877, Note_on_c, 4, 79, 85
16, 44951, Note_off_c, 4, 79, 64
16, 44994, Note_on_c, 4, 76, 76
16, 45045, Note_off_c, 4, 76, 64
16, 45111, Note_on_c, 4, 78, 89
16, 45282, Note_off_c, 4, 78, 64
16, 45349, Note_on_c, 4, 76, 74
16, 45426, Note_off_c, 4, 76, 64
16, 45459, Note_on_c, 4, 74, 66
16, 45524, Note_off_c, 4, 74, 64
16, 45590, Note_on_c, 4, 76, 78
16, 45659, Note_off_c, 4, 76, 64
16, 45709, Note_on_c, 4, 73, 63
16, 45770, Note_off_c, 4, 73, 64
16, 45822, Note_on_c, 4, 74, 82
16, 45925, Note_off_c, 4, 74, 64
16, 46056, Note_on_c, 4, 74, 87
16, 46112, Note_on_c, 4, 73, 64
16, 46114, Note_off_c, 4, 74, 64
16, 46159, Note_on_c, 4, 74, 78
16, 46172, Note_off_c, 4, 73, 64
16, 46217, Note_on_c, 4, 73, 64
16, 46231, Note_off_c, 4, 74, 64
16, 46289, Note_on_c, 4, 71, 68
16, 46302, Note_off_c, 4, 73, 64
16, 46357, Note_off_c, 4, 71, 64
16, 46418, Note_on_c, 4, 69, 72
16, 46488, Note_off_c, 4, 69, 64
16, 46546, Note_on_c, 4, 81, 80
16, 46688, Note_off_c, 4, 81, 64
16, 46780, Note_on_c, 4, 69, 61
16, 46848, Note_off_c, 4, 69, 64
16, 46897, Note_on_c, 4, 72, 70
16, 46951, Note_off_c, 4, 72, 64
16, 47021, Note_on_c, 4, 72, 80
16, 47117, Note_on_c, 4, 71, 57
16, 47149, Note_off_c, 4, 72, 64
16, 47306, Note_off_c, 4, 71, 64
16, 47507, Note_on_c, 4, 79, 91
16, 47644, Note_off_c, 4, 79, 64
16, 47730, Note_on_c, 4, 71, 85
16, 47804, Note_off_c, 4, 71, 64
16, 47862, Note_on_c, 4, 74, 89
16, 47918, Note_off_c, 4, 74, 64
16, 47981, Note_on_c, 4, 74, 85
16, 48094, Note_on_c, 4, 73, 62
16, 48108, Note_off_c, 4, 74, 64
16, 48191, Note_off_c, 4, 73, 64
16, 48230, Note_on_c, 4, 76, 78
16, 48332, Note_off_c, 4, 76, 64
16, 48344, Note_on_c, 4, 73, 63
16, 48423, Note_off_c, 4, 73, 64
16, 48472, Note_on_c, 4, 69, 82
16, 48603, Note_off_c, 4, 69, 64
16, 48717, Note_on_c, 4, 79, 80
16, 48794, Note_off_c, 4, 79, 64
16, 48830, Note_on_c, 4, 76, 87
16, 48895, Note_off_c, 4, 76, 64
16, 48953, Note_on_c, 4, 78, 89
16, 49039, Note_off_c, 4, 78, 64
16, 49061, Note_on_c, 4, 76, 74
16, 49134, Note_off_c, 4, 76, 64
16, 49183, Note_on_c, 4, 74, 80
16, 49260, Note_off_c, 4, 74, 64
16, 49295, Note_on_c, 4, 76, 85
16, 49350, Note_off_c, 4, 76, 64
16, 49422, Note_on_c, 4, 69, 87
16, 49516, Note_off_c, 4, 69, 64
16, 49667, Note_on_c, 4, 73, 78
16, 49754, Note_off_c, 4, 73, 64
16, 49905, Note_on_c, 4, 74, 82
16, 50142, Note_off_c, 4, 74, 64
16, 83022, Note_on_c, 4, 79, 72
16, 83133, Note_off_c, 4, 79, 64
16, 83270, Note_on_c, 4, 78, 58
16, 83645, Note_off_c, 4, 78, 64
16, 83762, Note_on_c, 4, 76, 63
16, 84159, Note_off_c, 4, 76, 64
16, 84242, Note_on_c, 4, 74, 66
16, 84386, Note_off_c, 4, 74, 64
16, 84478, Note_on_c, 4, 76, 80
16, 84536, Note_on_c, 4, 74, 59
16, 84537, Note_off_c, 4, 76, 64
16, 84582, Note_on_c, 4, 76, 63
16, 84590, Note_off_c, 4, 74, 64
16, 84633, Note_on_c, 4, 74, 70
16, 84645, Note_off_c, 4, 76, 64
16, 84708, Note_on_c, 4, 73, 62
16, 84714, Note_off_c, 4, 74, 64
16, 84817, Note_off_c, 4, 73, 64
16, 84953, Note_on_c, 4, 74, 74
16, 85054, Note_on_c, 4, 73, 57
16, 85072, Note_off_c, 4, 74, 64
16, 85158, Note_on_c, 4, 74, 68
16, 85175, Note_off_c, 4, 73, 64
16, 85265, Note_off_c, 4, 74, 64
16, 85277, Note_on_c, 4, 78, 68
16, 85330, Note_off_c, 4, 78, 64
16, 85411, Note_on_c, 4, 78, 89
16, 85520, Note_on_c, 4, 76, 68
16, 85525, Note_off_c, 4, 78, 64
16, 85632, Note_off_c, 4, 76, 64
16, 85648, Note_on_c, 4, 78, 66
16, 85724, Note_off_c, 4, 78, 64
16, 85758, Note_on_c, 4, 83, 85
16, 85821, Note_off_c, 4, 83, 64
16, 85884, Note_on_c, 4, 83, 80
16, 85974, Note_off_c, 4, 83, 64
16, 85983, Note_on_c, 4, 79, 80
16, 86053, Note_off_c, 4, 79, 64
16, 86117, Note_on_c, 4, 81, 89
16, 86190, Note_off_c, 4, 81, 64
16, 86357, Note_on_c, 4, 81, 85
16, 86730, Note_off_c, 4, 81, 64
16, 86858, Note_on_c, 4, 79, 89
16, 86957, Note_on_c, 4, 78, 74
16, 86991, Note_off_c, 4, 79, 64
16, 87075, Note_off_c, 4, 78, 64
16, 87086, Note_on_c, 4, 76, 70
16, 87167, Note_off_c, 4, 76, 64
16, 87198, Note_on_c, 4, 79, 87
16, 87281, Note_off_c, 4, 79, 64
16, 87338, Note_on_c, 4, 78, 93
16, 87425, Note_off_c, 4, 78, 64
16, 87576, Note_on_c, 4, 71, 78
16, 87666, Note_off_c, 4, 71, 64
16, 87830, Note_on_c, 4, 73, 72
16, 87905, Note_off_c, 4, 73, 64
16, 88060, Note_on_c, 4, 70, 70
16, 88157, Note_off_c, 4, 70, 64
16, 88308, Note_on_c, 4, 71, 82
16, 88577, Note_off_c, 4, 71, 64
16, 88802, Note_on_c, 4, 66, 78
16, 88906, Note_on_c, 4, 64, 68
16, 88935, Note_off_c, 4, 66, 64
16, 89023, Note_on_c, 4, 66, 58
16, 89057, Note_off_c, 4, 64, 64
16, 89136, Note_on_c, 4, 67, 70
16, 89144, Note_off_c, 4, 66, 64
16, 89217, Note_off_c, 4, 67, 64
16, 89261, Note_on_c, 4, 69, 98
16, 89372, Note_on_c, 4, 67, 61
16, 89374, Note_off_c, 4, 69, 64
16, 89498, Note_on_c, 4, 69, 68
16, 89507, Note_off_c, 4, 67, 64
16, 89599, Note_on_c, 4, 71, 80
16, 89621, Note_off_c, 4, 69, 64
16, 89680, Note_off_c, 4, 71, 64
16, 89723, Note_on_c, 4, 72, 82
16, 89828, Note_on_c, 4, 71, 59
16, 89842, Note_off_c, 4, 72, 64
16, 89961, Note_on_c, 4, 72, 66
16, 89975, Note_off_c, 4, 71, 64
16, 90076, Note_on_c, 4, 74, 68
16, 90083, Note_off_c, 4, 72, 64
16, 90146, Note_off_c, 4, 74, 64
16, 90215, Note_on_c, 4, 72, 87
16, 90324, Note_on_c, 4, 71, 74
16, 90346, Note_off_c, 4, 72, 64
16, 90456, Note_on_c, 4, 72, 60
16, 90458, Note_off_c, 4, 71, 64
16, 90540, Note_off_c, 4, 72, 64
16, 90562, Note_on_c, 4, 78, 63
16, 90620, Note_off_c, 4, 78, 64
16, 90688, Note_on_c, 4, 72, 68
16, 90798, Note_on_c, 4, 71, 66
16, 90825, Note_off_c, 4, 72, 64
16, 90923, Note_on_c, 4, 72, 66
16, 90933, Note_off_c, 4, 71, 64
16, 91019, Note_off_c, 4, 72, 64
16, 91050, Note_on_c, 4, 81, 68
16, 91107, Note_off_c, 4, 81, 64
16, 91172, Note_on_c, 4, 71, 85
16, 91287, Note_on_c, 4, 69, 62
16, 91318, Note_off_c, 4, 71, 64
16, 91399, Note_on_c, 4, 71, 74
16, 91422, Note_off_c, 4, 69, 64
16, 91478, Note_off_c, 4, 71, 64
16, 91516, Note_on_c, 4, 81, 66
16, 91592, Note_off_c, 4, 81, 64
16, 91644, Note_on_c, 4, 79, 78
16, 91736, Note_off_c, 4, 79, 64
16, 91759, Note_on_c, 4, 78, 62
16, 91835, Note_off_c, 4, 78, 64
16, 91883, Note_on_c, 4, 76, 70
16, 91975, Note_off_c, 4, 76, 64
16, 91997, Note_on_c, 4, 74, 82
16, 92079, Note_off_c, 4, 74, 64
16, 92128, Note_on_c, 4, 73, 87
16, 92245, Note_off_c, 4, 73, 64
16, 92371, Note_on_c, 4, 69, 80
16, 92457, Note_off_c, 4, 69, 64
16, 92616, Note_on_c, 4, 78, 98
16, 92731, Note_on_c, 4, 76, 82
16, 92758, Note_off_c, 4, 78, 64
16, 92848, Note_on_c, 4, 74, 66
16, 92857, Note_off_c, 4, 76, 64
16, 92958, Note_on_c, 4, 73, 78
16, 92981, Note_off_c, 4, 74, 64
16, 93064, Note_off_c, 4, 73, 64
16, 93086, Note_on_c, 4, 71, 64
16, 93203, Note_off_c, 4, 71, 64
16, 93343, Note_on_c, 4, 71, 72
16, 93433, Note_off_c, 4, 71, 64
16, 93593, Note_on_c, 4, 71, 98
16, 93703, Note_on_c, 4, 73, 62
16, 93719, Note_off_c, 4, 71, 64
16, 93820, Note_on_c, 4, 74, 70
16, 93822, Note_off_c, 4, 73, 64
16, 93924, Note_off_c, 4, 74, 64
16, 93930, Note_on_c, 4, 71, 72
16, 94016, Note_off_c, 4, 71, 64
16, 94067, Note_on_c, 4, 76, 100
16, 94176, Note_on_c, 4, 74, 82
16, 94200, Note_off_c, 4, 76, 64
16, 94308, Note_off_c, 4, 74, 64
16, 94308, Note_on_c, 4, 73, 72
16, 94412, Note_on_c, 4, 71, 74
16, 94430, Note_off_c, 4, 73, 64
16, 94508, Note_off_c, 4, 71, 64
16, 94529, Note_on_c, 4, 69, 78
16, 94653, Note_off_c, 4, 69, 64
16, 94776, Note_on_c, 4, 74, 85
16, 94873, Note_off_c, 4, 74, 64
16, 95015, Note_on_c, 4, 69, 82
16, 95130, Note_off_c, 4, 69, 64
16, 95256, Note_on_c, 4, 74, 87
16, 95345, Note_off_c, 4, 74, 64
16, 95499, Note_on_c, 4, 67, 76
16, 95559, Note_on_c, 4, 66, 64
16, 95579, Note_off_c, 4, 67, 64
16, 95622, Note_on_c, 4, 67, 72
16, 95629, Note_off_c, 4, 66, 64
16, 95670, Note_on_c, 4, 66, 76
16, 95694, Note_off_c, 4, 67, 64
16, 95739, Note_on_c, 4, 64, 72
16, 95766, Note_off_c, 4, 66, 64
16, 95820, Note_off_c, 4, 64, 64
16, 95858, Note_on_c, 4, 66, 85
16, 95926, Note_off_c, 4, 66, 64
16, 95989, Note_on_c, 4, 62, 91
16, 96304, Note_off_c, 4, 62, 64
16, 98405, Note_on_c, 4, 79, 80
16, 98513, Note_off_c, 4, 79, 64
16, 98639, Note_on_c, 4, 78, 59
16, 99006, Note_off_c, 4, 78, 64
16, 99107, Note_on_c, 4, 76, 59
16, 99503, Note_off_c, 4, 76, 64
16, 99589, Note_on_c, 4, 74, 63
16, 99764, Note_off_c, 4, 74, 64
16, 99839, Note_on_c, 4, 76, 72
16, 99888, Note_on_c, 4, 74, 78
16, 99900, Note_off_c, 4, 76, 64
16, 99949, Note_off_c, 4, 74, 64
16, 99949, Note_on_c, 4, 76, 64
16, 100001, Note_on_c, 4, 74, 70
16, 100007, Note_off_c, 4, 76, 64
16, 100073, Note_on_c, 4, 73, 58
16, 100084, Note_off_c, 4, 74, 64
16, 100194, Note_off_c, 4, 73, 64
16, 100327, Note_on_c, 4, 74, 80
16, 100431, Note_on_c, 4, 73, 59
16, 100448, Note_off_c, 4, 74, 64
16, 100523, Note_on_c, 4, 74, 68
16, 100538, Note_off_c, 4, 73, 64
16, 100628, Note_off_c, 4, 74, 64
16, 100637, Note_on_c, 4, 78, 66
16, 100705, Note_off_c, 4, 78, 64
16, 100776, Note_on_c, 4, 78, 93
16, 100878, Note_on_c, 4, 76, 68
16, 100883, Note_off_c, 4, 78, 64
16, 101004, Note_off_c, 4, 76, 64
16, 101011, Note_on_c, 4, 78, 66
16, 101083, Note_off_c, 4, 78, 64
16, 101124, Note_on_c, 4, 83, 85
16, 101186, Note_off_c, 4, 83, 64
16, 101252, Note_on_c, 4, 83, 91
16, 101360, Note_on_c, 4, 79, 80
16, 101369, Note_off_c, 4, 83, 64
16, 101429, Note_off_c, 4, 79, 64
16, 101487, Note_on_c, 4, 81, 87
16, 101573, Note_off_c, 4, 81, 64
16, 101729, Note_on_c, 4, 81, 93
16, 102071, Note_off_c, 4, 81, 64
16, 102233, Note_on_c, 4, 79, 87
16, 102334, Note_on_c, 4, 78, 64
16, 102356, Note_off_c, 4, 79, 64
16, 102455, Note_on_c, 4, 76, 68
16, 102464, Note_off_c, 4, 78, 64
16, 102516, Note_off_c, 4, 76, 64
16, 102570, Note_on_c, 4, 79, 80
16, 102640, Note_off_c, 4, 79, 64
16, 102696, Note_on_c, 4, 78, 95
16, 102786, Note_off_c, 4, 78, 64
16, 102937, Note_on_c, 4, 71, 76
16, 103020, Note_off_c, 4, 71, 64
16, 103178, Note_on_c, 4, 73, 66
16, 103263, Note_off_c, 4, 73, 64
16, 103416, Note_on_c, 4, 70, 70
16, 103524, Note_off_c, 4, 70, 64
16, 103667, Note_on_c, 4, 71, 78
16, 103922, Note_off_c, 4, 71, 64
16, 104163, Note_on_c, 4, 66, 80
16, 104262, Note_on_c, 4, 64, 66
16, 104291, Note_off_c, 4, 66, 64
16, 104390, Note_on_c, 4, 66, 58
16, 104433, Note_off_c, 4, 64, 64
16, 104498, Note_on_c, 4, 67, 76
16, 104525, Note_off_c, 4, 66, 64
16, 104589, Note_off_c, 4, 67, 64
16, 104624, Note_on_c, 4, 69, 87
16, 104742, Note_off_c, 4, 69, 64
16, 104742, Note_on_c, 4, 67, 68
16, 104861, Note_on_c, 4, 69, 62
16, 104872, Note_off_c, 4, 67, 64
16, 104969, Note_on_c, 4, 71, 80
16, 104985, Note_off_c, 4, 69, 64
16, 105050, Note_off_c, 4, 71, 64
16, 105101, Note_on_c, 4, 72, 87
16, 105212, Note_on_c, 4, 71, 59
16, 105216, Note_off_c, 4, 72, 64
16, 105344, Note_on_c, 4, 72, 60
16, 105354, Note_off_c, 4, 71, 64
16, 105437, Note_on_c, 4, 74, 68
16, 105453, Note_off_c, 4, 72, 64
16, 105511, Note_off_c, 4, 74, 64
16, 105571, Note_on_c, 4, 72, 102
16, 105675, Note_on_c, 4, 71, 66
16, 105702, Note_off_c, 4, 72, 64
16, 105822, Note_on_c, 4, 72, 63
16, 105831, Note_off_c, 4, 71, 64
16, 105938, Note_on_c, 4, 78, 51
16, 105939, Note_off_c, 4, 72, 64
16, 105984, Note_off_c, 4, 78, 64
16, 106056, Note_on_c, 4, 72, 70
16, 106157, Note_on_c, 4, 71, 60
16, 106199, Note_off_c, 4, 72, 64
16, 106298, Note_on_c, 4, 72, 57
16, 106317, Note_off_c, 4, 71, 64
16, 106413, Note_off_c, 4, 72, 64
16, 106413, Note_on_c, 4, 81, 72
16, 106476, Note_off_c, 4, 81, 64
16, 106541, Note_on_c, 4, 71, 80
16, 106650, Note_on_c, 4, 69, 58
16, 106685, Note_off_c, 4, 71, 64
16, 106778, Note_on_c, 4, 71, 70
16, 106807, Note_off_c, 4, 69, 64
16, 106848, Note_off_c, 4, 71, 64
16, 106886, Note_on_c, 4, 81, 74
16, 106964, Note_off_c, 4, 81, 64
16, 107014, Note_on_c, 4, 79, 80
16, 107120, Note_off_c, 4, 79, 64
16, 107124, Note_on_c, 4, 78, 56
16, 107210, Note_off_c, 4, 78, 64
16, 107246, Note_on_c, 4, 76, 63
16, 107360, Note_off_c, 4, 76, 64
16, 107361, Note_on_c, 4, 74, 72
16, 107435, Note_off_c, 4, 74, 64
16, 107487, Note_on_c, 4, 73, 78
16, 107612, Note_off_c, 4, 73, 64
16, 107734, Note_on_c, 4, 69, 72
16, 107824, Note_off_c, 4, 69, 64
16, 107982, Note_on_c, 4, 78, 98
16, 108096, Note_on_c, 4, 76, 82
16, 108139, Note_off_c, 4, 78, 64
16, 108213, Note_on_c, 4, 74, 68
16, 108229, Note_off_c, 4, 76, 64
16, 108319, Note_on_c, 4, 73, 78
16, 108348, Note_off_c, 4, 74, 64
16, 108420, Note_off_c, 4, 73, 64
16, 108456, Note_on_c, 4, 71, 60
16, 108575, Note_off_c, 4, 71, 64
16, 108708, Note_on_c, 4, 71, 70
16, 108807, Note_off_c, 4, 71, 64
16, 108963, Note_on_c, 4, 71, 100
16, 109061, Note_on_c, 4, 73, 62
16, 109084, Note_off_c, 4, 71, 64
16, 109179, Note_on_c, 4, 74, 70
16, 109203, Note_off_c, 4, 73, 64
16, 109287, Note_on_c, 4, 71, 66
16, 109307, Note_off_c, 4, 74, 64
16, 109370, Note_off_c, 4, 71, 64
16, 109426, Note_on_c, 4, 76, 98
16, 109545, Note_on_c, 4, 74, 80
16, 109572, Note_off_c, 4, 76, 64
16, 109651, Note_on_c, 4, 73, 58
16, 109682, Note_off_c, 4, 74, 64
16, 109766, Note_on_c, 4, 71, 74
16, 109793, Note_off_c, 4, 73, 64
16, 109881, Note_off_c, 4, 71, 64
16, 109894, Note_on_c, 4, 69, 70
16, 110002, Note_off_c, 4, 69, 64
16, 110139, Note_on_c, 4, 74, 85
16, 110227, Note_off_c, 4, 74, 64
16, 110387, Note_on_c, 4, 69, 78
16, 110488, Note_off_c, 4, 69, 64
16, 110628, Note_on_c, 4, 74, 82
16, 110700, Note_off_c, 4, 74, 64
16, 110860, Note_on_c, 4, 67, 76
16, 110920, Note_on_c, 4, 66, 80
16, 110940, Note_off_c, 4, 67, 64
16, 110987, Note_on_c, 4, 67, 66
16, 110988, Note_off_c, 4, 66, 64
16, 111046, Note_on_c, 4, 66, 63
16, 111066, Note_off_c, 4, 67, 64
16, 111114, Note_on_c, 4, 64, 76
16, 111136, Note_off_c, 4, 66, 64
16, 111208, Note_off_c, 4, 64, 64
16, 111242, Note_on_c, 4, 66, 100
16, 111303, Note_off_c, 4, 66, 64
16, 111357, Note_on_c, 4, 62, 85
16, 111646, Note_off_c, 4, 62, 64
16, 131037, Note_on_c, 4, 76, 85
16, 131190, Note_off_c, 4, 76, 64
16, 131275, Note_on_c, 4, 64, 64
16, 131334, Note_off_c, 4, 64, 64
16, 131390, Note_on_c, 4, 67, 64
16, 131466, Note_off_c, 4, 67, 64
16, 131509, Note_on_c, 4, 66, 53
16, 131786, Note_off_c, 4, 66, 64
16, 131988, Note_on_c, 4, 74, 87
16, 132167, Note_off_c, 4, 74, 64
16, 132224, Note_on_c, 4, 66, 58
16, 132315, Note_off_c, 4, 66, 64
16, 132335, Note_on_c, 4, 69, 60
16, 132382, Note_off_c, 4, 69, 64
16, 132474, Note_on_c, 4, 67, 66
16, 132755, Note_off_c, 4, 67, 64
16, 132953, Note_on_c, 4, 73, 87
16, 133124, Note_off_c, 4, 73, 64
16, 133187, Note_on_c, 4, 70, 64
16, 133248, Note_off_c, 4, 70, 64
16, 133300, Note_on_c, 4, 73, 68
16, 133368, Note_off_c, 4, 73, 64
16, 133435, Note_on_c, 4, 71, 87
16, 133604, Note_off_c, 4, 71, 64
16, 133664, Note_on_c, 4, 73, 63
16, 133746, Note_off_c, 4, 73, 64
16, 133771, Note_on_c, 4, 74, 70
16, 133851, Note_off_c, 4, 74, 64
16, 133898, Note_on_c, 4, 73, 82
16, 133961, Note_off_c, 4, 73, 64
16, 134004, Note_on_c, 4, 71, 64
16, 134076, Note_off_c, 4, 71, 64
16, 134135, Note_on_c, 4, 79, 74
16, 134252, Note_off_c, 4, 79, 64
16, 134375, Note_on_c, 4, 81, 82
16, 134436, Note_on_c, 4, 79, 68
16, 134442, Note_off_c, 4, 81, 64
16, 134490, Note_on_c, 4, 81, 61
16, 134502, Note_off_c, 4, 79, 64
16, 134538, Note_on_c, 4, 79, 64
16, 134544, Note_off_c, 4, 81, 64
16, 134616, Note_off_c, 4, 79, 64
16, 134619, Note_on_c, 4, 78, 70
16, 134706, Note_off_c, 4, 78, 64
16, 134857, Note_on_c, 4, 66, 82
16, 135006, Note_off_c, 4, 66, 64
16, 135099, Note_on_c, 4, 78, 58
16, 135170, Note_off_c, 4, 78, 64
16, 135208, Note_on_c, 4, 74, 64
16, 135267, Note_off_c, 4, 74, 64
16, 135343, Note_on_c, 4, 76, 82
16, 135620, Note_off_c, 4, 76, 64
16, 135845, Note_on_c, 4, 66, 72
16, 135977, Note_off_c, 4, 66, 64
16, 136074, Note_on_c, 4, 76, 82
16, 136149, Note_off_c, 4, 76, 64
16, 136185, Note_on_c, 4, 73, 64
16, 136247, Note_off_c, 4, 73, 64
16, 136315, Note_on_c, 4, 74, 82
16, 136490, Note_off_c, 4, 74, 64
16, 136554, Note_on_c, 4, 71, 66
16, 136625, Note_off_c, 4, 71, 64
16, 136662, Note_on_c, 4, 74, 72
16, 136742, Note_off_c, 4, 74, 64
16, 136790, Note_on_c, 4, 73, 64
16, 136862, Note_off_c, 4, 73, 64
16, 136893, Note_on_c, 4, 70, 70
16, 136958, Note_off_c, 4, 70, 64
16, 137015, Note_on_c, 4, 71, 63
16, 137109, Note_off_c, 4, 71, 64
16, 137258, Note_on_c, 4, 78, 76
16, 137454, Note_off_c, 4, 78, 64
16, 137507, Note_on_c, 4, 79, 72
16, 137600, Note_off_c, 4, 79, 64
16, 137618, Note_on_c, 4, 78, 60
16, 137701, Note_off_c, 4, 78, 64
16, 137736, Note_on_c, 4, 76, 66
16, 137834, Note_off_c, 4, 76, 64
16, 137859, Note_on_c, 4, 74, 59
16, 137948, Note_off_c, 4, 74, 64
16, 137982, Note_on_c, 4, 73, 62
16, 138065, Note_off_c, 4, 73, 64
16, 138097, Note_on_c, 4, 74, 64
16, 138160, Note_off_c, 4, 74, 64
16, 138228, Note_on_c, 4, 71, 82
16, 138477, Note_off_c, 4, 71, 64
16, 138711, Note_on_c, 4, 71, 85
16, 138889, Note_off_c, 4, 71, 64
16, 138956, Note_on_c, 4, 83, 72
16, 139020, Note_off_c, 4, 83, 64
16, 139067, Note_on_c, 4, 79, 72
16, 139121, Note_off_c, 4, 79, 64
16, 139188, Note_on_c, 4, 81, 74
16, 139463, Note_off_c, 4, 81, 64
16, 139668, Note_on_c, 4, 71, 82
16, 139845, Note_off_c, 4, 71, 64
16, 139910, Note_on_c, 4, 81, 76
16, 139965, Note_off_c, 4, 81, 64
16, 140023, Note_on_c, 4, 78, 80
16, 140075, Note_off_c, 4, 78, 64
16, 140147, Note_on_c, 4, 79, 80
16, 140435, Note_off_c, 4, 79, 64
16, 140640, Note_on_c, 4, 73, 95
16, 140810, Note_off_c, 4, 73, 64
16, 140878, Note_on_c, 4, 79, 87
16, 140946, Note_off_c, 4, 79, 64
16, 140986, Note_on_c, 4, 76, 87
16, 141035, Note_off_c, 4, 76, 64
16, 141107, Note_on_c, 4, 78, 98
16, 141283, Note_off_c, 4, 78, 64
16, 141348, Note_on_c, 4, 76, 80
16, 141423, Note_off_c, 4, 76, 64
16, 141456, Note_on_c, 4, 74, 82
16, 141519, Note_off_c, 4, 74, 64
16, 141573, Note_on_c, 4, 76, 89
16, 141647, Note_off_c, 4, 76, 64
16, 141692, Note_on_c, 4, 73, 80
16, 141755, Note_off_c, 4, 73, 64
16, 141803, Note_on_c, 4, 74, 89
16, 141909, Note_off_c, 4, 74, 64
16, 142043, Note_on_c, 4, 74, 93
16, 142102, Note_off_c, 4, 74, 64
16, 142102, Note_on_c, 4, 73, 46
16, 142140, Note_on_c, 4, 74, 68
16, 142158, Note_off_c, 4, 73, 64
16, 142206, Note_on_c, 4, 73, 64
16, 142224, Note_off_c, 4, 74, 64
16, 142287, Note_on_c, 4, 71, 72
16, 142318, Note_off_c, 4, 73, 64
16, 142351, Note_off_c, 4, 71, 64
16, 142415, Note_on_c, 4, 69, 85
16, 142487, Note_off_c, 4, 69, 64
16, 142547, Note_on_c, 4, 81, 85
16, 142694, Note_off_c, 4, 81, 64
16, 142788, Note_on_c, 4, 69, 66
16, 142867, Note_off_c, 4, 69, 64
16, 142907, Note_on_c, 4, 72, 72
16, 142973, Note_off_c, 4, 72, 64
16, 143029, Note_on_c, 4, 71, 57
16, 143297, Note_off_c, 4, 71, 64
16, 143520, Note_on_c, 4, 79, 91
16, 143654, Note_off_c, 4, 79, 64
16, 143745, Note_on_c, 4, 71, 74
16, 143823, Note_off_c, 4, 71, 64
16, 143855, Note_on_c, 4, 74, 85
16, 143931, Note_off_c, 4, 74, 64
16, 143992, Note_on_c, 4, 73, 87
16, 144147, Note_off_c, 4, 73, 64
16, 144222, Note_on_c, 4, 76, 68
16, 144303, Note_off_c, 4, 76, 64
16, 144325, Note_on_c, 4, 73, 60
16, 144399, Note_off_c, 4, 73, 64
16, 144456, Note_on_c, 4, 69, 72
16, 144597, Note_off_c, 4, 69, 64
16, 144705, Note_on_c, 4, 79, 74
16, 144788, Note_off_c, 4, 79, 64
16, 144820, Note_on_c, 4, 76, 78
16, 144890, Note_off_c, 4, 76, 64
16, 144946, Note_on_c, 4, 78, 89
16, 145032, Note_off_c, 4, 78, 64
16, 145058, Note_on_c, 4, 76, 80
16, 145128, Note_off_c, 4, 76, 64
16, 145186, Note_on_c, 4, 74, 76
16, 145265, Note_off_c, 4, 74, 64
16, 145299, Note_on_c, 4, 76, 74
16, 145355, Note_off_c, 4, 76, 64
16, 145430, Note_on_c, 4, 69, 78
16, 145513, Note_off_c, 4, 69, 64
16, 145666, Note_on_c, 4, 73, 66
16, 145754, Note_off_c, 4, 73, 64
16, 145907, Note_on_c, 4, 74, 80
16, 146170, Note_off_c, 4, 74, 64
16, 146404, Note_on_c, 4, 76, 82
16, 146559, Note_off_c, 4, 76, 64
16, 146619, Note_on_c, 4, 64, 64
16, 146687, Note_off_c, 4, 64, 64
16, 146733, Note_on_c, 4, 67, 63
16, 146804, Note_off_c, 4, 67, 64
16, 146850, Note_on_c, 4, 67, 80
16, 146966, Note_on_c, 4, 66, 63
16, 146991, Note_off_c, 4, 67, 64
16, 147119, Note_off_c, 4, 66, 64
16, 147342, Note_on_c, 4, 74, 93
16, 147491, Note_off_c, 4, 74, 64
16, 147576, Note_on_c, 4, 66, 59
16, 147677, Note_off_c, 4, 66, 64
16, 147696, Note_on_c, 4, 69, 76
16, 147759, Note_off_c, 4, 69, 64
16, 147817, Note_on_c, 4, 69, 85
16, 147936, Note_on_c, 4, 67, 66
16, 147968, Note_off_c, 4, 69, 64
16, 148080, Note_off_c, 4, 67, 64
16, 148307, Note_on_c, 4, 73, 89
16, 148476, Note_off_c, 4, 73, 64
16, 148535, Note_on_c, 4, 70, 66
16, 148605, Note_off_c, 4, 70, 64
16, 148658, Note_on_c, 4, 73, 78
16, 148715, Note_off_c, 4, 73, 64
16, 148785, Note_on_c, 4, 71, 89
16, 148969, Note_off_c, 4, 71, 64
16, 149025, Note_on_c, 4, 73, 56
16, 149102, Note_off_c, 4, 73, 64
16, 149136, Note_on_c, 4, 74, 68
16, 149223, Note_off_c, 4, 74, 64
16, 149259, Note_on_c, 4, 73, 78
16, 149331, Note_off_c, 4, 73, 64
16, 149365, Note_on_c, 4, 71, 57
16, 149432, Note_off_c, 4, 71, 64
16, 149500, Note_on_c, 4, 79, 68
16, 149603, Note_off_c, 4, 79, 64
16, 149735, Note_on_c, 4, 81, 82
16, 149792, Note_on_c, 4, 79, 68
16, 149795, Note_off_c, 4, 81, 64
16, 149844, Note_on_c, 4, 81, 64
16, 149848, Note_off_c, 4, 79, 64
16, 149889, Note_on_c, 4, 79, 80
16, 149903, Note_off_c, 4, 81, 64
16, 149970, Note_off_c, 4, 79, 64
16, 149972, Note_on_c, 4, 78, 70
16, 150080, Note_off_c, 4, 78, 64
16, 150227, Note_on_c, 4, 66, 76
16, 150380, Note_off_c, 4, 66, 64
16, 150468, Note_on_c, 4, 78, 63
16, 150553, Note_off_c, 4, 78, 64
16, 150584, Note_on_c, 4, 74, 68
16, 150630, Note_off_c, 4, 74, 64
16, 150704, Note_on_c, 4, 74, 91
16, 150825, Note_off_c, 4, 74, 64
16, 150830, Note_on_c, 4, 76, 64
16, 151026, Note_off_c, 4, 76, 64
16, 151185, Note_on_c, 4, 66, 64
16, 151314, Note_off_c, 4, 66, 64
16, 151410, Note_on_c, 4, 76, 80
16, 151476, Note_off_c, 4, 76, 64
16, 151527, Note_on_c, 4, 73, 66
16, 151590, Note_off_c, 4, 73, 64
16, 151667, Note_on_c, 4, 74, 87
16, 151844, Note_off_c, 4, 74, 64
16, 151907, Note_on_c, 4, 71, 72
16, 151977, Note_off_c, 4, 71, 64
16, 152016, Note_on_c, 4, 74, 70
16, 152083, Note_off_c, 4, 74, 64
16, 152139, Note_on_c, 4, 73, 58
16, 152222, Note_off_c, 4, 73, 64
16, 152243, Note_on_c, 4, 70, 64
16, 152312, Note_off_c, 4, 70, 64
16, 152372, Note_on_c, 4, 71, 60
16, 152468, Note_off_c, 4, 71, 64
16, 152619, Note_on_c, 4, 78, 85
16, 152808, Note_off_c, 4, 78, 64
16, 152859, Note_on_c, 4, 79, 74
16, 152942, Note_off_c, 4, 79, 64
16, 152978, Note_on_c, 4, 78, 80
16, 153050, Note_off_c, 4, 78, 64
16, 153102, Note_on_c, 4, 76, 70
16, 153188, Note_off_c, 4, 76, 64
16, 153222, Note_on_c, 4, 74, 72
16, 153287, Note_off_c, 4, 74, 64
16, 153339, Note_on_c, 4, 73, 66
16, 153411, Note_off_c, 4, 73, 64
16, 153451, Note_on_c, 4, 74, 82
16, 153518, Note_off_c, 4, 74, 64
16, 153590, Note_on_c, 4, 71, 57
16, 153858, Note_off_c, 4, 71, 64
16, 154076, Note_on_c, 4, 71, 82
16, 154232, Note_off_c, 4, 71, 64
16, 154311, Note_on_c, 4, 83, 82
16, 154383, Note_off_c, 4, 83, 64
16, 154421, Note_on_c, 4, 79, 82
16, 154481, Note_off_c, 4, 79, 64
16, 154563, Note_on_c, 4, 79, 100
16, 154670, Note_on_c, 4, 81, 60
16, 154684, Note_off_c, 4, 79, 64
16, 154866, Note_off_c, 4, 81, 64
16, 155033, Note_on_c, 4, 71, 82
16, 155186, Note_off_c, 4, 71, 64
16, 155253, Note_on_c, 4, 81, 78
16, 155319, Note_off_c, 4, 81, 64
16, 155370, Note_on_c, 4, 78, 80
16, 155431, Note_off_c, 4, 78, 64
16, 155499, Note_on_c, 4, 78, 100
16, 155620, Note_on_c, 4, 79, 68
16, 155629, Note_off_c, 4, 78, 64
16, 155825, Note_off_c, 4, 79, 64
16, 156009, Note_on_c, 4, 73, 82
16, 156174, Note_off_c, 4, 73, 64
16, 156237, Note_on_c, 4, 79, 85
16, 156311, Note_off_c, 4, 79, 64
16, 156354, Note_on_c, 4, 76, 76
16, 156405, Note_off_c, 4, 76, 64
16, 156471, Note_on_c, 4, 78, 89
16, 156642, Note_off_c, 4, 78, 64
16, 156709, Note_on_c, 4, 76, 74
16, 156786, Note_off_c, 4, 76, 64
16, 156819, Note_on_c, 4, 74, 66
16, 156884, Note_off_c, 4, 74, 64
16, 156950, Note_on_c, 4, 76, 78
16, 157019, Note_off_c, 4, 76, 64
16, 157069, Note_on_c, 4, 73, 63
16, 157130, Note_off_c, 4, 73, 64
16, 157182, Note_on_c, 4, 74, 82
16, 157285, Note_off_c, 4, 74, 64
16, 157416, Note_on_c, 4, 74, 87
16, 157472, Note_on_c, 4, 73, 64
16, 157474, Note_off_c, 4, 74, 64
16, 157519, Note_on_c, 4, 74, 78
16, 157532, Note_off_c, 4, 73, 64
16, 157577, Note_on_c, 4, 73, 64
16, 157591, Note_off_c, 4, 74, 64
16, 157649, Note_on_c, 4, 71, 68
16, 157662, Note_off_c, 4, 73, 64
16, 157717, Note_off_c, 4, 71, 64
16, 157778, Note_on_c, 4, 69, 72
16, 157848, Note_off_c, 4, 69, 64
16, 157906, Note_on_c, 4, 81, 80
16, 158048, Note_off_c, 4, 81, 64
16, 158140, Note_on_c, 4, 69, 61
16, 158208, Note_off_c, 4, 69, 64
16, 158257, Note_on_c, 4, 72, 70
16, 158311, Note_off_c, 4, 72, 64
16, 158381, Note_on_c, 4, 72, 80
16, 158477, Note_on_c, 4, 71, 57
16, 158509, Note_off_c, 4, 72, 64
16, 158666, Note_off_c, 4, 71, 64
16, 158867, Note_on_c, 4, 79, 91
16, 159004, Note_off_c, 4, 79, 64
16, 159090, Note_on_c, 4, 71, 85
16, 159164, Note_off_c, 4, 71, 64
16, 159222, Note_on_c, 4, 74, 89
16, 159278, Note_off_c, 4, 74, 64
16, 159341, Note_on_c, 4, 74, 85
16, 159454, Note_on_c, 4, 73, 62
16, 159468, Note_off_c, 4, 74, 64
16, 159551, Note_off_c, 4, 73, 64
16, 159590, Note_on_c, 4, 76, 78
16, 159692, Note_off_c, 4, 76, 64
16, 159704, Note_on_c, 4, 73, 63
16, 159783, Note_off_c, 4, 73, 64
16, 159832, Note_on_c, 4, 69, 82
16, 159963, Note_off_c, 4, 69, 64
16, 160077, Note_on_c, 4, 79, 80
16, 160154, Note_off_c, 4, 79, 64
16, 160190, Note_on_c, 4, 76, 87
16, 160255, Note_off_c, 4, 76, 64
16, 160313, Note_on_c, 4, 78, 89
16, 160399, Note_off_c, 4, 78, 64
16, 160421, Note_on_c, 4, 76, 74
16, 160494, Note_off_c, 4, 76, 64
16, 160543, Note_on_c, 4, 74, 80
16, 160620, Note_off_c, 4, 74, 64
16, 160655, Note_on_c, 4, 76, 85
16, 160710, Note_off_c, 4, 76, 64
16, 160782, Note_on_c, 4, 69, 87
16, 160876, Note_off_c, 4, 69, 64
16, 161027, Note_on_c, 4, 73, 78
16, 161114, Note_off_c, 4, 73, 64
16, 161265, Note_on_c, 4, 74, 82
16, 161502, Note_off_c, 4, 74, 64
16, 161502, End_track
17, 0, Start_track
17, 0, Title_t, "Oboe"
17, 0, Program_c, 5, 68
17, 0, Control_c, 5, 7, 100
17, 19694, Note_on_c, 5, 76, 85
17, 19833, Note_off_c, 5, 76, 64
17, 19915, Note_on_c, 5, 64, 60
17, 19974, Note_off_c, 5, 64, 64
17, 20032, Note_on_c, 5, 67, 68
17, 20096, Note_off_c, 5, 67, 64
17, 20151, Note_on_c, 5, 66, 53
17, 20441, Note_off_c, 5, 66, 64
17, 20633, Note_on_c, 5, 74, 87
17, 20779, Note_off_c, 5, 74, 64
17, 20862, Note_on_c, 5, 66, 57
17, 20959, Note_off_c, 5, 66, 64
17, 20981, Note_on_c, 5, 69, 64
17, 21024, Note_off_c, 5, 69, 64
17, 21116, Note_on_c, 5, 67, 62
17, 21395, Note_off_c, 5, 67, 64
17, 21605, Note_on_c, 5, 73, 87
17, 21756, Note_off_c, 5, 73, 64
17, 21821, Note_on_c, 5, 70, 59
17, 21890, Note_off_c, 5, 70, 64
17, 21933, Note_on_c, 5, 73, 63
17, 22001, Note_off_c, 5, 73, 64
17, 22068, Note_on_c, 5, 71, 62
17, 22248, Note_off_c, 5, 71, 64
17, 22309, Note_on_c, 5, 73, 64
17, 22385, Note_off_c, 5, 73, 64
17, 22422, Note_on_c, 5, 74, 66
17, 22511, Note_off_c, 5, 74, 64
17, 22541, Note_on_c, 5, 73, 66
17, 22606, Note_off_c, 5, 73, 64
17, 22647, Note_on_c, 5, 71, 70
17, 22718, Note_off_c, 5, 71, 64
17, 22782, Note_on_c, 5, 79, 74
17, 22892, Note_off_c, 5, 79, 64
17, 23033, Note_on_c, 5, 81, 89
17, 23099, Note_off_c, 5, 81, 64
17, 23099, Note_on_c, 5, 79, 53
17, 23148, Note_on_c, 5, 81, 66
17, 23193, Note_off_c, 5, 81, 64
17, 23245, Note_on_c, 5, 78, 47
17, 23252, Note_off_c, 5, 79, 64
17, 23357, Note_off_c, 5, 78, 64
17, 23499, Note_on_c, 5, 66, 82
17, 23650, Note_off_c, 5, 66, 64
17, 23753, Note_on_c, 5, 78, 63
17, 23826, Note_off_c, 5, 78, 64
17, 23864, Note_on_c, 5, 74, 59
17, 23916, Note_off_c, 5, 74, 64
17, 23990, Note_on_c, 5, 76, 76
17, 24255, Note_off_c, 5, 76, 64
17, 24471, Note_on_c, 5, 66, 72
17, 24629, Note_off_c, 5, 66, 64
17, 24714, Note_on_c, 5, 76, 80
17, 24780, Note_off_c, 5, 76, 64
17, 24822, Note_on_c, 5, 73, 57
17, 24881, Note_off_c, 5, 73, 64
17, 24950, Note_on_c, 5, 74, 82
17, 25104, Note_off_c, 5, 74, 64
17, 25191, Note_on_c, 5, 71, 68
17, 25265, Note_off_c, 5, 71, 64
17, 25306, Note_on_c, 5, 74, 72
17, 25383, Note_off_c, 5, 74, 64
17, 25423, Note_on_c, 5, 73, 62
17, 25506, Note_off_c, 5, 73, 64
17, 25533, Note_on_c, 5, 70, 59
17, 25598, Note_off_c, 5, 70, 64
17, 25659, Note_on_c, 5, 71, 46
17, 25758, Note_off_c, 5, 71, 64
17, 25900, Note_on_c, 5, 78, 80
17, 26103, Note_off_c, 5, 78, 64
17, 26147, Note_on_c, 5, 79, 78
17, 26237, Note_off_c, 5, 79, 64
17, 26262, Note_on_c, 5, 78, 61
17, 26348, Note_off_c, 5, 78, 64
17, 26386, Note_on_c, 5, 76, 63
17, 26471, Note_off_c, 5, 76, 64
17, 26492, Note_on_c, 5, 74, 59
17, 26591, Note_off_c, 5, 74, 64
17, 26622, Note_on_c, 5, 73, 82
17, 26694, Note_off_c, 5, 73, 64
17, 26728, Note_on_c, 5, 74, 72
17, 26786, Note_off_c, 5, 74, 64
17, 26863, Note_on_c, 5, 71, 68
17, 27120, Note_off_c, 5, 71, 64
17, 27345, Note_on_c, 5, 71, 85
17, 27520, Note_off_c, 5, 71, 64
17, 27574, Note_on_c, 5, 83, 70
17, 27652, Note_off_c, 5, 83, 64
17, 27687, Note_on_c, 5, 79, 70
17, 27744, Note_off_c, 5, 79, 64
17, 27815, Note_on_c, 5, 81, 62
17, 28087, Note_off_c, 5, 81, 64
17, 28305, Note_on_c, 5, 71, 80
17, 28472, Note_off_c, 5, 71, 64
17, 28544, Note_on_c, 5, 81, 66
17, 28599, Note_off_c, 5, 81, 64
17, 28659, Note_on_c, 5, 78, 78
17, 28717, Note_off_c, 5, 78, 64
17, 28785, Note_on_c, 5, 79, 64
17, 29064, Note_off_c, 5, 79, 64
17, 29289, Note_on_c, 5, 73, 80
17, 29446, Note_off_c, 5, 73, 64
17, 29514, Note_on_c, 5, 79, 70
17, 29617, Note_off_c, 5, 79, 64
17, 29631, Note_on_c, 5, 76, 74
17, 29681, Note_off_c, 5, 76, 64
17, 29747, Note_on_c, 5, 78, 80
17, 29921, Note_off_c, 5, 78, 64
17, 29993, Note_on_c, 5, 76, 61
17, 30085, Note_off_c, 5, 76, 64
17, 30101, Note_on_c, 5, 74, 68
17, 30164, Note_off_c, 5, 74, 64
17, 30220, Note_on_c, 5, 76, 64
17, 30296, Note_off_c, 5, 76, 64
17, 30342, Note_on_c, 5, 73, 63
17, 30398, Note_off_c, 5, 73, 64
17, 30454, Note_on_c, 5, 74, 61
17, 30551, Note_off_c, 5, 74, 64
17, 30695, Note_on_c, 5, 74, 85
17, 30753, Note_off_c, 5, 74, 64
17, 30758, Note_on_c, 5, 73, 42
17, 30796, Note_on_c, 5, 74, 68
17, 30807, Note_off_c, 5, 73, 64
17, 30839, Note_on_c, 5, 73, 62
17, 30863, Note_off_c, 5, 74, 64
17, 30915, Note_on_c, 5, 71, 70
17, 30929, Note_off_c, 5, 73, 64
17, 30987, Note_off_c, 5, 71, 64
17, 31050, Note_on_c, 5, 69, 64
17, 31109, Note_off_c, 5, 69, 64
17, 31179, Note_on_c, 5, 81, 82
17, 31322, Note_off_c, 5, 81, 64
17, 31419, Note_on_c, 5, 69, 63
17, 31482, Note_off_c, 5, 69, 64
17, 31533, Note_on_c, 5, 72, 78
17, 31588, Note_off_c, 5, 72, 64
17, 31655, Note_on_c, 5, 71, 57
17, 31935, Note_off_c, 5, 71, 64
17, 32160, Note_on_c, 5, 79, 87
17, 32304, Note_off_c, 5, 79, 64
17, 32380, Note_on_c, 5, 71, 80
17, 32454, Note_off_c, 5, 71, 64
17, 32502, Note_on_c, 5, 74, 78
17, 32553, Note_off_c, 5, 74, 64
17, 32630, Note_on_c, 5, 73, 64
17, 32803, Note_off_c, 5, 73, 64
17, 32875, Note_on_c, 5, 76, 80
17, 32938, Note_off_c, 5, 76, 64
17, 32981, Note_on_c, 5, 73, 74
17, 33050, Note_off_c, 5, 73, 64
17, 33102, Note_on_c, 5, 69, 82
17, 33254, Note_off_c, 5, 69, 64
17, 33339, Note_on_c, 5, 79, 72
17, 33419, Note_off_c, 5, 79, 64
17, 33460, Note_on_c, 5, 76, 78
17, 33527, Note_off_c, 5, 76, 64
17, 33591, Note_on_c, 5, 78, 72
17, 33669, Note_off_c, 5, 78, 64
17, 33694, Note_on_c, 5, 76, 72
17, 33768, Note_off_c, 5, 76, 64
17, 33818, Note_on_c, 5, 74, 64
17, 33903, Note_off_c, 5, 74, 64
17, 33928, Note_on_c, 5, 76, 68
17, 33984, Note_off_c, 5, 76, 64
17, 34061, Note_on_c, 5, 69, 70
17, 34148, Note_off_c, 5, 69, 64
17, 34317, Note_on_c, 5, 73, 63
17, 34414, Note_off_c, 5, 73, 64
17, 34554, Note_on_c, 5, 74, 82
17, 34817, Note_off_c, 5, 74, 64
17, 35042, Note_on_c, 5, 76, 89
17, 35181, Note_off_c, 5, 76, 64
17, 35271, Note_on_c, 5, 64, 62
17, 35328, Note_off_c, 5, 64, 64
17, 35370, Note_on_c, 5, 67, 70
17, 35430, Note_off_c, 5, 67, 64
17, 35504, Note_on_c, 5, 67, 87
17, 35616, Note_on_c, 5, 66, 59
17, 35629, Note_off_c, 5, 67, 64
17, 35789, Note_off_c, 5, 66, 64
17, 35985, Note_on_c, 5, 74, 87
17, 36106, Note_off_c, 5, 74, 64
17, 36219, Note_on_c, 5, 66, 60
17, 36297, Note_off_c, 5, 66, 64
17, 36329, Note_on_c, 5, 69, 76
17, 36374, Note_off_c, 5, 69, 64
17, 36455, Note_on_c, 5, 69, 87
17, 36563, Note_on_c, 5, 67, 66
17, 36576, Note_off_c, 5, 69, 64
17, 36785, Note_off_c, 5, 67, 64
17, 36945, Note_on_c, 5, 73, 82
17, 37101, Note_off_c, 5, 73, 64
17, 37163, Note_on_c, 5, 70, 54
17, 37245, Note_off_c, 5, 70, 64
17, 37285, Note_on_c, 5, 73, 63
17, 37348, Note_off_c, 5, 73, 64
17, 37431, Note_on_c, 5, 71, 85
17, 37608, Note_off_c, 5, 71, 64
17, 37663, Note_on_c, 5, 73, 57
17, 37739, Note_off_c, 5, 73, 64
17, 37764, Note_on_c, 5, 74, 70
17, 37856, Note_off_c, 5, 74, 64
17, 37890, Note_on_c, 5, 73, 80
17, 37968, Note_off_c, 5, 73, 64
17, 37996, Note_on_c, 5, 71, 57
17, 38075, Note_off_c, 5, 71, 64
17, 38131, Note_on_c, 5, 79, 68
17, 38235, Note_off_c, 5, 79, 64
17, 38372, Note_on_c, 5, 81, 80
17, 38428, Note_on_c, 5, 79, 66
17, 38435, Note_off_c, 5, 81, 64
17, 38478, Note_on_c, 5, 81, 63
17, 38488, Note_off_c, 5, 79, 64
17, 38525, Note_on_c, 5, 79, 66
17, 38534, Note_off_c, 5, 81, 64
17, 38608, Note_off_c, 5, 79, 64
17, 38608, Note_on_c, 5, 78, 74
17, 38723, Note_off_c, 5, 78, 64
17, 38865, Note_on_c, 5, 66, 78
17, 39024, Note_off_c, 5, 66, 64
17, 39105, Note_on_c, 5, 78, 66
17, 39188, Note_off_c, 5, 78, 64
17, 39211, Note_on_c, 5, 74, 68
17, 39261, Note_off_c, 5, 74, 64
17, 39344, Note_on_c, 5, 74, 82
17, 39463, Note_on_c, 5, 76, 58
17, 39476, Note_off_c, 5, 74, 64
17, 39665, Note_off_c, 5, 76, 64
17, 39828, Note_on_c, 5, 66, 68
17, 39963, Note_off_c, 5, 66, 64
17, 40064, Note_on_c, 5, 76, 80
17, 40142, Note_off_c, 5, 76, 64
17, 40183, Note_on_c, 5, 73, 66
17, 40242, Note_off_c, 5, 73, 64
17, 40309, Note_on_c, 5, 74, 80
17, 40487, Note_off_c, 5, 74, 64
17, 40543, Note_on_c, 5, 71, 66
17, 40622, Note_off_c, 5, 71, 64
17, 40655, Note_on_c, 5, 74, 68
17, 40727, Note_off_c, 5, 74, 64
17, 40784, Note_on_c, 5, 73, 63
17, 40860, Note_off_c, 5, 73, 64
17, 40889, Note_on_c, 5, 70, 60
17, 40964, Note_off_c, 5, 70, 64
17, 41016, Note_on_c, 5, 71, 56
17, 41117, Note_off_c, 5, 71, 64
17, 41254, Note_on_c, 5, 78, 80
17, 41452, Note_off_c, 5, 78, 64
17, 41497, Note_on_c, 5, 79, 80
17, 41578, Note_off_c, 5, 79, 64
17, 41616, Note_on_c, 5, 78, 74
17, 41686, Note_off_c, 5, 78, 64
17, 41745, Note_on_c, 5, 76, 72
17, 41855, Note_off_c, 5, 76, 64
17, 41864, Note_on_c, 5, 74, 70
17, 41925, Note_off_c, 5, 74, 64
17, 41978, Note_on_c, 5, 73, 62
17, 42057, Note_off_c, 5, 73, 64
17, 42086, Note_on_c, 5, 74, 78
17, 42159, Note_off_c, 5, 74, 64
17, 42224, Note_on_c, 5, 71, 59
17, 42489, Note_off_c, 5, 71, 64
17, 42710, Note_on_c, 5, 71, 87
17, 42881, Note_off_c, 5, 71, 64
17, 42944, Note_on_c, 5, 83, 70
17, 43025, Note_off_c, 5, 83, 64
17, 43061, Note_on_c, 5, 79, 74
17, 43119, Note_off_c, 5, 79, 64
17, 43191, Note_on_c, 5, 79, 85
17, 43311, Note_on_c, 5, 81, 59
17, 43315, Note_off_c, 5, 79, 64
17, 43517, Note_off_c, 5, 81, 64
17, 43666, Note_on_c, 5, 71, 82
17, 43819, Note_off_c, 5, 71, 64
17, 43893, Note_on_c, 5, 81, 66
17, 43967, Note_off_c, 5, 81, 64
17, 44008, Note_on_c, 5, 78, 80
17, 44064, Note_off_c, 5, 78, 64
17, 44141, Note_on_c, 5, 78, 95
17, 44255, Note_on_c, 5, 79, 68
17, 44276, Note_off_c, 5, 78, 64
17, 44478, Note_off_c, 5, 79, 64
17, 44629, Note_on_c, 5, 73, 72
17, 44814, Note_off_c, 5, 73, 64
17, 44869, Note_on_c, 5, 79, 76
17, 44944, Note_off_c, 5, 79, 64
17, 44982, Note_on_c, 5, 76, 82
17, 45038, Note_off_c, 5, 76, 64
17, 45104, Note_on_c, 5, 78, 93
17, 45273, Note_off_c, 5, 78, 64
17, 45347, Note_on_c, 5, 76, 72
17, 45425, Note_off_c, 5, 76, 64
17, 45455, Note_on_c, 5, 74, 82
17, 45524, Note_off_c, 5, 74, 64
17, 45578, Note_on_c, 5, 76, 82
17, 45648, Note_off_c, 5, 76, 64
17, 45691, Note_on_c, 5, 73, 78
17, 45758, Note_off_c, 5, 73, 64
17, 45810, Note_on_c, 5, 74, 80
17, 45932, Note_off_c, 5, 74, 64
17, 46056, Note_on_c, 5, 74, 91
17, 46121, Note_off_c, 5, 74, 64
17, 46121, Note_on_c, 5, 73, 49
17, 46155, Note_on_c, 5, 74, 61
17, 46173, Note_off_c, 5, 73, 64
17, 46213, Note_on_c, 5, 73, 63
17, 46227, Note_off_c, 5, 74, 64
17, 46281, Note_on_c, 5, 71, 70
17, 46303, Note_off_c, 5, 73, 64
17, 46352, Note_off_c, 5, 71, 64
17, 46410, Note_on_c, 5, 69, 82
17, 46485, Note_off_c, 5, 69, 64
17, 46547, Note_on_c, 5, 81, 80
17, 46688, Note_off_c, 5, 81, 64
17, 46789, Note_on_c, 5, 69, 66
17, 46857, Note_off_c, 5, 69, 64
17, 46906, Note_on_c, 5, 72, 76
17, 46956, Note_off_c, 5, 72, 64
17, 47023, Note_on_c, 5, 72, 89
17, 47133, Note_on_c, 5, 71, 59
17, 47151, Note_off_c, 5, 72, 64
17, 47325, Note_off_c, 5, 71, 64
17, 47520, Note_on_c, 5, 79, 91
17, 47660, Note_off_c, 5, 79, 64
17, 47741, Note_on_c, 5, 71, 80
17, 47813, Note_off_c, 5, 71, 64
17, 47859, Note_on_c, 5, 74, 80
17, 47923, Note_off_c, 5, 74, 64
17, 47986, Note_on_c, 5, 74, 93
17, 48101, Note_on_c, 5, 73, 64
17, 48110, Note_off_c, 5, 74, 64
17, 48198, Note_off_c, 5, 73, 64
17, 48224, Note_on_c, 5, 76, 72
17, 48285, Note_off_c, 5, 76, 64
17, 48330, Note_on_c, 5, 73, 66
17, 48389, Note_off_c, 5, 73, 64
17, 48468, Note_on_c, 5, 69, 64
17, 48614, Note_off_c, 5, 69, 64
17, 48720, Note_on_c, 5, 79, 76
17, 48800, Note_off_c, 5, 79, 64
17, 48840, Note_on_c, 5, 76, 82
17, 48908, Note_off_c, 5, 76, 64
17, 48963, Note_on_c, 5, 78, 85
17, 49039, Note_off_c, 5, 78, 64
17, 49073, Note_on_c, 5, 76, 76
17, 49149, Note_off_c, 5, 76, 64
17, 49197, Note_on_c, 5, 74, 59
17, 49280, Note_off_c, 5, 74, 64
17, 49311, Note_on_c, 5, 76, 66
17, 49372, Note_off_c, 5, 76, 64
17, 49437, Note_on_c, 5, 69, 76
17, 49521, Note_off_c, 5, 69, 64
17, 49669, Note_on_c, 5, 73, 82
17, 49752, Note_off_c, 5, 73, 64
17, 49910, Note_on_c, 5, 74, 87
17, 50164, Note_off_c, 5, 74, 64
17, 83038, Note_on_c, 5, 76, 68
17, 83146, Note_off_c, 5, 76, 64
17, 83283, Note_on_c, 5, 74, 61
17, 83666, Note_off_c, 5, 74, 64
17, 83762, Note_on_c, 5, 73, 58
17, 84161, Note_off_c, 5, 73, 64
17, 84233, Note_on_c, 5, 71, 66
17, 84415, Note_off_c, 5, 71, 64
17, 84480, Note_on_c, 5, 73, 63
17, 84527, Note_on_c, 5, 71, 80
17, 84543, Note_off_c, 5, 73, 64
17, 84578, Note_on_c, 5, 73, 63
17, 84591, Note_off_c, 5, 71, 64
17, 84642, Note_on_c, 5, 71, 53
17, 84660, Note_off_c, 5, 73, 64
17, 84707, Note_on_c, 5, 70, 60
17, 84717, Note_off_c, 5, 71, 64
17, 84820, Note_off_c, 5, 70, 64
17, 84953, Note_on_c, 5, 71, 66
17, 85841, Note_off_c, 5, 71, 64
17, 85887, Note_on_c, 5, 73, 62
17, 86298, Note_off_c, 5, 73, 64
17, 86366, Note_on_c, 5, 75, 68
17, 86737, Note_off_c, 5, 75, 64
17, 86854, Note_on_c, 5, 76, 82
17, 86944, Note_off_c, 5, 76, 64
17, 87088, Note_on_c, 5, 70, 74
17, 87198, Note_off_c, 5, 70, 64
17, 87327, Note_on_c, 5, 71, 82
17, 87428, Note_off_c, 5, 71, 64
17, 87570, Note_on_c, 5, 62, 70
17, 87684, Note_off_c, 5, 62, 64
17, 87822, Note_on_c, 5, 67, 80
17, 87932, Note_off_c, 5, 67, 64
17, 88060, Note_on_c, 5, 66, 72
17, 88164, Note_off_c, 5, 66, 64
17, 88317, Note_on_c, 5, 62, 64
17, 88638, Note_off_c, 5, 62, 64
17, 88794, Note_on_c, 5, 62, 66
17, 90578, Note_off_c, 5, 62, 64
17, 90670, Note_on_c, 5, 69, 74
17, 90765, Note_off_c, 5, 69, 64
17, 90929, Note_on_c, 5, 69, 78
17, 91350, Note_off_c, 5, 69, 64
17, 91421, Note_on_c, 5, 67, 68
17, 91527, Note_on_c, 5, 66, 74
17, 91529, Note_off_c, 5, 67, 64
17, 91629, Note_off_c, 5, 66, 64
17, 91655, Note_on_c, 5, 64, 76
17, 91786, Note_off_c, 5, 64, 64
17, 91880, Note_on_c, 5, 69, 85
17, 91975, Note_off_c, 5, 69, 64
17, 92133, Note_on_c, 5, 69, 98
17, 92228, Note_on_c, 5, 67, 82
17, 92256, Note_off_c, 5, 69, 64
17, 92355, Note_on_c, 5, 66, 60
17, 92387, Note_off_c, 5, 67, 64
17, 92468, Note_on_c, 5, 64, 68
17, 92483, Note_off_c, 5, 66, 64
17, 92591, Note_off_c, 5, 64, 64
17, 92605, Note_on_c, 5, 62, 72
17, 92747, Note_off_c, 5, 62, 64
17, 92859, Note_on_c, 5, 62, 78
17, 92961, Note_off_c, 5, 62, 64
17, 93123, Note_on_c, 5, 62, 91
17, 93222, Note_on_c, 5, 64, 80
17, 93244, Note_off_c, 5, 62, 64
17, 93338, Note_off_c, 5, 64, 64
17, 93339, Note_on_c, 5, 66, 68
17, 93449, Note_on_c, 5, 62, 63
17, 93455, Note_off_c, 5, 66, 64
17, 93545, Note_off_c, 5, 62, 64
17, 93591, Note_on_c, 5, 67, 68
17, 93699, Note_off_c, 5, 67, 64
17, 93836, Note_on_c, 5, 67, 80
17, 93921, Note_off_c, 5, 67, 64
17, 94085, Note_on_c, 5, 67, 87
17, 94448, Note_off_c, 5, 67, 64
17, 94551, Note_on_c, 5, 66, 78
17, 94670, Note_off_c, 5, 66, 64
17, 94785, Note_on_c, 5, 69, 85
17, 94886, Note_off_c, 5, 69, 64
17, 95027, Note_on_c, 5, 69, 78
17, 95143, Note_off_c, 5, 69, 64
17, 95265, Note_on_c, 5, 66, 82
17, 95388, Note_off_c, 5, 66, 64
17, 95498, Note_on_c, 5, 67, 78
17, 95559, Note_on_c, 5, 66, 68
17, 95570, Note_off_c, 5, 67, 64
17, 95606, Note_on_c, 5, 67, 68
17, 95616, Note_off_c, 5, 66, 64
17, 95658, Note_on_c, 5, 66, 66
17, 95681, Note_off_c, 5, 67, 64
17, 95733, Note_on_c, 5, 64, 72
17, 95760, Note_off_c, 5, 66, 64
17, 95829, Note_off_c, 5, 64, 64
17, 95852, Note_on_c, 5, 66, 85
17, 95924, Note_off_c, 5, 66, 64
17, 95987, Note_on_c, 5, 62, 80
17, 96315, Note_off_c, 5, 62, 64
17, 98387, Note_on_c, 5, 76, 78
17, 98503, Note_off_c, 5, 76, 64
17, 98639, Note_on_c, 5, 74, 68
17, 99038, Note_off_c, 5, 74, 64
17, 99121, Note_on_c, 5, 73, 56
17, 99531, Note_off_c, 5, 73, 64
17, 99589, Note_on_c, 5, 71, 70
17, 99785, Note_off_c, 5, 71, 64
17, 99834, Note_on_c, 5, 73, 78
17, 99893, Note_on_c, 5, 71, 76
17, 99895, Note_off_c, 5, 73, 64
17, 99940, Note_on_c, 5, 73, 64
17, 99949, Note_off_c, 5, 71, 64
17, 100001, Note_on_c, 5, 71, 63
17, 100021, Note_off_c, 5, 73, 64
17, 100071, Note_on_c, 5, 70, 64
17, 100086, Note_off_c, 5, 71, 64
17, 100190, Note_off_c, 5, 70, 64
17, 100314, Note_on_c, 5, 71, 70
17, 101180, Note_off_c, 5, 71, 64
17, 101254, Note_on_c, 5, 73, 62
17, 101654, Note_off_c, 5, 73, 64
17, 101724, Note_on_c, 5, 75, 76
17, 102089, Note_off_c, 5, 75, 64
17, 102224, Note_on_c, 5, 76, 85
17, 102316, Note_off_c, 5, 76, 64
17, 102455, Note_on_c, 5, 70, 72
17, 102566, Note_off_c, 5, 70, 64
17, 102690, Note_on_c, 5, 71, 74
17, 102795, Note_off_c, 5, 71, 64
17, 102932, Note_on_c, 5, 62, 74
17, 103040, Note_off_c, 5, 62, 64
17, 103180, Note_on_c, 5, 67, 80
17, 103283, Note_off_c, 5, 67, 64
17, 103418, Note_on_c, 5, 66, 70
17, 103504, Note_off_c, 5, 66, 64
17, 103672, Note_on_c, 5, 62, 64
17, 103956, Note_off_c, 5, 62, 64
17, 104147, Note_on_c, 5, 62, 66
17, 105911, Note_off_c, 5, 62, 64
17, 106044, Note_on_c, 5, 69, 66
17, 106132, Note_off_c, 5, 69, 64
17, 106289, Note_on_c, 5, 69, 68
17, 106727, Note_off_c, 5, 69, 64
17, 106794, Note_on_c, 5, 67, 85
17, 106897, Note_on_c, 5, 66, 74
17, 106899, Note_off_c, 5, 67, 64
17, 106996, Note_off_c, 5, 66, 64
17, 107019, Note_on_c, 5, 64, 78
17, 107129, Note_off_c, 5, 64, 64
17, 107257, Note_on_c, 5, 69, 85
17, 107369, Note_off_c, 5, 69, 64
17, 107505, Note_on_c, 5, 69, 91
17, 107610, Note_on_c, 5, 67, 82
17, 107640, Note_off_c, 5, 69, 64
17, 107736, Note_on_c, 5, 66, 61
17, 107752, Note_off_c, 5, 67, 64
17, 107844, Note_on_c, 5, 64, 64
17, 107858, Note_off_c, 5, 66, 64
17, 107963, Note_off_c, 5, 64, 64
17, 107984, Note_on_c, 5, 62, 78
17, 108108, Note_off_c, 5, 62, 64
17, 108215, Note_on_c, 5, 62, 80
17, 108326, Note_off_c, 5, 62, 64
17, 108468, Note_on_c, 5, 62, 95
17, 108569, Note_on_c, 5, 64, 64
17, 108596, Note_off_c, 5, 62, 64
17, 108692, Note_off_c, 5, 64, 64
17, 108699, Note_on_c, 5, 66, 66
17, 108801, Note_on_c, 5, 62, 72
17, 108809, Note_off_c, 5, 66, 64
17, 108913, Note_off_c, 5, 62, 64
17, 108945, Note_on_c, 5, 67, 82
17, 109059, Note_off_c, 5, 67, 64
17, 109196, Note_on_c, 5, 67, 82
17, 109287, Note_off_c, 5, 67, 64
17, 109444, Note_on_c, 5, 67, 85
17, 109827, Note_off_c, 5, 67, 64
17, 109899, Note_on_c, 5, 66, 74
17, 110015, Note_off_c, 5, 66, 64
17, 110142, Note_on_c, 5, 69, 82
17, 110240, Note_off_c, 5, 69, 64
17, 110393, Note_on_c, 5, 69, 80
17, 110520, Note_off_c, 5, 69, 64
17, 110634, Note_on_c, 5, 66, 70
17, 110758, Note_off_c, 5, 66, 64
17, 110862, Note_on_c, 5, 67, 72
17, 110927, Note_on_c, 5, 66, 66
17, 110933, Note_off_c, 5, 67, 64
17, 110972, Note_on_c, 5, 67, 68
17, 110987, Note_off_c, 5, 66, 64
17, 111030, Note_on_c, 5, 66, 61
17, 111055, Note_off_c, 5, 67, 64
17, 111096, Note_on_c, 5, 64, 70
17, 111122, Note_off_c, 5, 66, 64
17, 111183, Note_off_c, 5, 64, 64
17, 111208, Note_on_c, 5, 66, 80
17, 111273, Note_off_c, 5, 66, 64
17, 111336, Note_on_c, 5, 62, 78
17, 111651, Note_off_c, 5, 62, 64
17, 131054, Note_on_c, 5, 76, 85
17, 131193, Note_off_c, 5, 76, 64
17, 131275, Note_on_c, 5, 64, 60
17, 131334, Note_off_c, 5, 64, 64
17, 131392, Note_on_c, 5, 67, 68
17, 131456, Note_off_c, 5, 67, 64
17, 131511, Note_on_c, 5, 66, 53
17, 131801, Note_off_c, 5, 66, 64
17, 131993, Note_on_c, 5, 74, 87
17, 132139, Note_off_c, 5, 74, 64
17, 132222, Note_on_c, 5, 66, 57
17, 132319, Note_off_c, 5, 66, 64
17, 132341, Note_on_c, 5, 69, 64
17, 132384, Note_off_c, 5, 69, 64
17, 132476, Note_on_c, 5, 67, 62
17, 132755, Note_off_c, 5, 67, 64
17, 132965, Note_on_c, 5, 73, 87
17, 133116, Note_off_c, 5, 73, 64
17, 133181, Note_on_c, 5, 70, 59
17, 133250, Note_off_c, 5, 70, 64
17, 133293, Note_on_c, 5, 73, 63
17, 133361, Note_off_c, 5, 73, 64
17, 133428, Note_on_c, 5, 71, 62
17, 133608, Note_off_c, 5, 71, 64
17, 133669, Note_on_c, 5, 73, 64
17, 133745, Note_off_c, 5, 73, 64
17, 133782, Note_on_c, 5, 74, 66
17, 133871, Note_off_c, 5, 74, 64
17, 133901, Note_on_c, 5, 73, 66
17, 133966, Note_off_c, 5, 73, 64
17, 134007, Note_on_c, 5, 71, 70
17, 134078, Note_off_c, 5, 71, 64
17, 134142, Note_on_c, 5, 79, 74
17, 134252, Note_off_c, 5, 79, 64
17, 134393, Note_on_c, 5, 81, 89
17, 134459, Note_off_c, 5, 81, 64
17, 134459, Note_on_c, 5, 79, 53
17, 134508, Note_on_c, 5, 81, 66
17, 134553, Note_off_c, 5, 81, 64
17, 134605, Note_on_c, 5, 78, 47
17, 134612, Note_off_c, 5, 79, 64
17, 134717, Note_off_c, 5, 78, 64
17, 134859, Note_on_c, 5, 66, 82
17, 135010, Note_off_c, 5, 66, 64
17, 135113, Note_on_c, 5, 78, 63
17, 135186, Note_off_c, 5, 78, 64
17, 135224, Note_on_c, 5, 74, 59
17, 135276, Note_off_c, 5, 74, 64
17, 135350, Note_on_c, 5, 76, 76
17, 135615, Note_off_c, 5, 76, 64
17, 135831, Note_on_c, 5, 66, 72
17, 135989, Note_off_c, 5, 66, 64
17, 136074, Note_on_c, 5, 76, 80
17, 136140, Note_off_c, 5, 76, 64
17, 136182, Note_on_c, 5, 73, 57
17, 136241, Note_off_c, 5, 73, 64
17, 136310, Note_on_c, 5, 74, 82
17, 136464, Note_off_c, 5, 74, 64
17, 136551, Note_on_c, 5, 71, 68
17, 136625, Note_off_c, 5, 71, 64
17, 136666, Note_on_c, 5, 74, 72
17, 136743, Note_off_c, 5, 74, 64
17, 136783, Note_on_c, 5, 73, 62
17, 136866, Note_off_c, 5, 73, 64
17, 136893, Note_on_c, 5, 70, 59
17, 136958, Note_off_c, 5, 70, 64
17, 137019, Note_on_c, 5, 71, 46
17, 137118, Note_off_c, 5, 71, 64
17, 137260, Note_on_c, 5, 78, 80
17, 137463, Note_off_c, 5, 78, 64
17, 137507, Note_on_c, 5, 79, 78
17, 137597, Note_off_c, 5, 79, 64
17, 137622, Note_on_c, 5, 78, 61
17, 137708, Note_off_c, 5, 78, 64
17, 137746, Note_on_c, 5, 76, 63
17, 137831, Note_off_c, 5, 76, 64
17, 137852, Note_on_c, 5, 74, 59
17, 137951, Note_off_c, 5, 74, 64
17, 137982, Note_on_c, 5, 73, 82
17, 138054, Note_off_c, 5, 73, 64
17, 138088, Note_on_c, 5, 74, 72
17, 138146, Note_off_c, 5, 74, 64
17, 138223, Note_on_c, 5, 71, 68
17, 138480, Note_off_c, 5, 71, 64
17, 138705, Note_on_c, 5, 71, 85
17, 138880, Note_off_c, 5, 71, 64
17, 138934, Note_on_c, 5, 83, 70
17, 139012, Note_off_c, 5, 83, 64
17, 139047, Note_on_c, 5, 79, 70
17, 139104, Note_off_c, 5, 79, 64
17, 139175, Note_on_c, 5, 81, 62
17, 139447, Note_off_c, 5, 81, 64
17, 139665, Note_on_c, 5, 71, 80
17, 139832, Note_off_c, 5, 71, 64
17, 139904, Note_on_c, 5, 81, 66
17, 139959, Note_off_c, 5, 81, 64
17, 140019, Note_on_c, 5, 78, 78
17, 140077, Note_off_c, 5, 78, 64
17, 140145, Note_on_c, 5, 79, 64
17, 140424, Note_off_c, 5, 79, 64
17, 140649, Note_on_c, 5, 73, 80
17, 140806, Note_off_c, 5, 73, 64
17, 140874, Note_on_c, 5, 79, 70
17, 140977, Note_off_c, 5, 79, 64
17, 140991, Note_on_c, 5, 76, 74
17, 141041, Note_off_c, 5, 76, 64
17, 141107, Note_on_c, 5, 78, 80
17, 141281, Note_off_c, 5, 78, 64
17, 141353, Note_on_c, 5, 76, 61
17, 141445, Note_off_c, 5, 76, 64
17, 141461, Note_on_c, 5, 74, 68
17, 141524, Note_off_c, 5, 74, 64
17, 141580, Note_on_c, 5, 76, 64
17, 141656, Note_off_c, 5, 76, 64
17, 141702, Note_on_c, 5, 73, 63
17, 141758, Note_off_c, 5, 73, 64
17, 141814, Note_on_c, 5, 74, 61
17, 141911, Note_off_c, 5, 74, 64
17, 142055, Note_on_c, 5, 74, 85
17, 142113, Note_off_c, 5, 74, 64
17, 142118, Note_on_c, 5, 73, 42
17, 142156, Note_on_c, 5, 74, 68
17, 142167, Note_off_c, 5, 73, 64
17, 142199, Note_on_c, 5, 73, 62
17, 142223, Note_off_c, 5, 74, 64
17, 142275, Note_on_c, 5, 71, 70
17, 142289, Note_off_c, 5, 73, 64
17, 142347, Note_off_c, 5, 71, 64
17, 142410, Note_on_c, 5, 69, 64
17, 142469, Note_off_c, 5, 69, 64
17, 142539, Note_on_c, 5, 81, 82
17, 142682, Note_off_c, 5, 81, 64
17, 142779, Note_on_c, 5, 69, 63
17, 142842, Note_off_c, 5, 69, 64
17, 142893, Note_on_c, 5, 72, 78
17, 142948, Note_off_c, 5, 72, 64
17, 143015, Note_on_c, 5, 71, 57
17, 143295, Note_off_c, 5, 71, 64
17, 143520, Note_on_c, 5, 79, 87
17, 143664, Note_off_c, 5, 79, 64
17, 143740, Note_on_c, 5, 71, 80
17, 143814, Note_off_c, 5, 71, 64
17, 143862, Note_on_c, 5, 74, 78
17, 143913, Note_off_c, 5, 74, 64
17, 143990, Note_on_c, 5, 73, 64
17, 144163, Note_off_c, 5, 73, 64
17, 144235, Note_on_c, 5, 76, 80
17, 144298, Note_off_c, 5, 76, 64
17, 144341, Note_on_c, 5, 73, 74
17, 144410, Note_off_c, 5, 73, 64
17, 144462, Note_on_c, 5, 69, 82
17, 144614, Note_off_c, 5, 69, 64
17, 144699, Note_on_c, 5, 79, 72
17, 144779, Note_off_c, 5, 79, 64
17, 144820, Note_on_c, 5, 76, 78
17, 144887, Note_off_c, 5, 76, 64
17, 144951, Note_on_c, 5, 78, 72
17, 145029, Note_off_c, 5, 78, 64
17, 145054, Note_on_c, 5, 76, 72
17, 145128, Note_off_c, 5, 76, 64
17, 145178, Note_on_c, 5, 74, 64
17, 145263, Note_off_c, 5, 74, 64
17, 145288, Note_on_c, 5, 76, 68
17, 145344, Note_off_c, 5, 76, 64
17, 145421, Note_on_c, 5, 69, 70
17, 145508, Note_off_c, 5, 69, 64
17, 145677, Note_on_c, 5, 73, 63
17, 145774, Note_off_c, 5, 73, 64
17, 145914, Note_on_c, 5, 74, 82
17, 146177, Note_off_c, 5, 74, 64
17, 146402, Note_on_c, 5, 76, 89
17, 146541, Note_off_c, 5, 76, 64
17, 146631, Note_on_c, 5, 64, 62
17, 146688, Note_off_c, 5, 64, 64
17, 146730, Note_on_c, 5, 67, 70
17, 146790, Note_off_c, 5, 67, 64
17, 146864, Note_on_c, 5, 67, 87
17, 146976, Note_on_c, 5, 66, 59
17, 146989, Note_off_c, 5, 67, 64
17, 147149, Note_off_c, 5, 66, 64
17, 147345, Note_on_c, 5, 74, 87
17, 147466, Note_off_c, 5, 74, 64
17, 147579, Note_on_c, 5, 66, 60
17, 147657, Note_off_c, 5, 66, 64
17, 147689, Note_on_c, 5, 69, 76
17, 147734, Note_off_c, 5, 69, 64
17, 147815, Note_on_c, 5, 69, 87
17, 147923, Note_on_c, 5, 67, 66
17, 147936, Note_off_c, 5, 69, 64
17, 148145, Note_off_c, 5, 67, 64
17, 148305, Note_on_c, 5, 73, 82
17, 148461, Note_off_c, 5, 73, 64
17, 148523, Note_on_c, 5, 70, 54
17, 148605, Note_off_c, 5, 70, 64
17, 148645, Note_on_c, 5, 73, 63
17, 148708, Note_off_c, 5, 73, 64
17, 148791, Note_on_c, 5, 71, 85
17, 148968, Note_off_c, 5, 71, 64
17, 149023, Note_on_c, 5, 73, 57
17, 149099, Note_off_c, 5, 73, 64
17, 149124, Note_on_c, 5, 74, 70
17, 149216, Note_off_c, 5, 74, 64
17, 149250, Note_on_c, 5, 73, 80
17, 149328, Note_off_c, 5, 73, 64
17, 149356, Note_on_c, 5, 71, 57
17, 149435, Note_off_c, 5, 71, 64
17, 149491, Note_on_c, 5, 79, 68
17, 149595, Note_off_c, 5, 79, 64
17, 149732, Note_on_c, 5, 81, 80
17, 149788, Note_on_c, 5, 79, 66
17, 149795, Note_off_c, 5, 81, 64
17, 149838, Note_on_c, 5, 81, 63
17, 149848, Note_off_c, 5, 79, 64
17, 149885, Note_on_c, 5, 79, 66
17, 149894, Note_off_c, 5, 81, 64
17, 149968, Note_off_c, 5, 79, 64
17, 149968, Note_on_c, 5, 78, 74
17, 150083, Note_off_c, 5, 78, 64
17, 150225, Note_on_c, 5, 66, 78
17, 150384, Note_off_c, 5, 66, 64
17, 150465, Note_on_c, 5, 78, 66
17, 150548, Note_off_c, 5, 78, 64
17, 150571, Note_on_c, 5, 74, 68
17, 150621, Note_off_c, 5, 74, 64
17, 150704, Note_on_c, 5, 74, 82
17, 150823, Note_on_c, 5, 76, 58
17, 150836, Note_off_c, 5, 74, 64
17, 151025, Note_off_c, 5, 76, 64
17, 151188, Note_on_c, 5, 66, 68
17, 151323, Note_off_c, 5, 66, 64
17, 151424, Note_on_c, 5, 76, 80
17, 151502, Note_off_c, 5, 76, 64
17, 151543, Note_on_c, 5, 73, 66
17, 151602, Note_off_c, 5, 73, 64
17, 151669, Note_on_c, 5, 74, 80
17, 151847, Note_off_c, 5, 74, 64
17, 151903, Note_on_c, 5, 71, 66
17, 151982, Note_off_c, 5, 71, 64
17, 152015, Note_on_c, 5, 74, 68
17, 152087, Note_off_c, 5, 74, 64
17, 152144, Note_on_c, 5, 73, 63
17, 152220, Note_off_c, 5, 73, 64
17, 152249, Note_on_c, 5, 70, 60
17, 152324, Note_off_c, 5, 70, 64
17, 152376, Note_on_c, 5, 71, 56
17, 152477, Note_off_c, 5, 71, 64
17, 152614, Note_on_c, 5, 78, 80
17, 152812, Note_off_c, 5, 78, 64
17, 152857, Note_on_c, 5, 79, 80
17, 152938, Note_off_c, 5, 79, 64
17, 152976, Note_on_c, 5, 78, 74
17, 153046, Note_off_c, 5, 78, 64
17, 153105, Note_on_c, 5, 76, 72
17, 153215, Note_off_c, 5, 76, 64
17, 153224, Note_on_c, 5, 74, 70
17, 153285, Note_off_c, 5, 74, 64
17, 153338, Note_on_c, 5, 73, 62
17, 153417, Note_off_c, 5, 73, 64
17, 153446, Note_on_c, 5, 74, 78
17, 153519, Note_off_c, 5, 74, 64
17, 153584, Note_on_c, 5, 71, 59
17, 153849, Note_off_c, 5, 71, 64
17, 154070, Note_on_c, 5, 71, 87
17, 154241, Note_off_c, 5, 71, 64
17, 154304, Note_on_c, 5, 83, 70
17, 154385, Note_off_c, 5, 83, 64
17, 154421, Note_on_c, 5, 79, 74
17, 154479, Note_off_c, 5, 79, 64
17, 154551, Note_on_c, 5, 79, 85
17, 154671, Note_on_c, 5, 81, 59
17, 154675, Note_off_c, 5, 79, 64
17, 154877, Note_off_c, 5, 81, 64
17, 155026, Note_on_c, 5, 71, 82
17, 155179, Note_off_c, 5, 71, 64
17, 155253, Note_on_c, 5, 81, 66
17, 155327, Note_off_c, 5, 81, 64
17, 155368, Note_on_c, 5, 78, 80
17, 155424, Note_off_c, 5, 78, 64
17, 155501, Note_on_c, 5, 78, 95
17, 155615, Note_on_c, 5, 79, 68
17, 155636, Note_off_c, 5, 78, 64
17, 155838, Note_off_c, 5, 79, 64
17, 155989, Note_on_c, 5, 73, 72
17, 156174, Note_off_c, 5, 73, 64
17, 156229, Note_on_c, 5, 79, 76
17, 156304, Note_off_c, 5, 79, 64
17, 156342, Note_on_c, 5, 76, 82
17, 156398, Note_off_c, 5, 76, 64
17, 156464, Note_on_c, 5, 78, 93
17, 156633, Note_off_c, 5, 78, 64
17, 156707, Note_on_c, 5, 76, 72
17, 156785, Note_off_c, 5, 76, 64
17, 156815, Note_on_c, 5, 74, 82
17, 156884, Note_off_c, 5, 74, 64
17, 156938, Note_on_c, 5, 76, 82
17, 157008, Note_off_c, 5, 76, 64
17, 157051, Note_on_c, 5, 73, 78
17, 157118, Note_off_c, 5, 73, 64
17, 157170, Note_on_c, 5, 74, 80
17, 157292, Note_off_c, 5, 74, 64
17, 157416, Note_on_c, 5, 74, 91
17, 157481, Note_off_c, 5, 74, 64
17, 157481, Note_on_c, 5, 73, 49
17, 157515, Note_on_c, 5, 74, 61
17, 157533, Note_off_c, 5, 73, 64
17, 157573, Note_on_c, 5, 73, 63
17, 157587, Note_off_c, 5, 74, 64
17, 157641, Note_on_c, 5, 71, 70
17, 157663, Note_off_c, 5, 73, 64
17, 157712, Note_off_c, 5, 71, 64
17, 157770, Note_on_c, 5, 69, 82
17, 157845, Note_off_c, 5, 69, 64
17, 157907, Note_on_c, 5, 81, 80
17, 158048, Note_off_c, 5, 81, 64
17, 158149, Note_on_c, 5, 69, 66
17, 158217, Note_off_c, 5, 69, 64
17, 158266, Note_on_c, 5, 72, 76
17, 158316, Note_off_c, 5, 72, 64
17, 158383, Note_on_c, 5, 72, 89
17, 158493, Note_on_c, 5, 71, 59
17, 158511, Note_off_c, 5, 72, 64
17, 158685, Note_off_c, 5, 71, 64
17, 158880, Note_on_c, 5, 79, 91
17, 159020, Note_off_c, 5, 79, 64
17, 159101, Note_on_c, 5, 71, 80
17, 159173, Note_off_c, 5, 71, 64
17, 159219, Note_on_c, 5, 74, 80
17, 159283, Note_off_c, 5, 74, 64
17, 159346, Note_on_c, 5, 74, 93
17, 159461, Note_on_c, 5, 73, 64
17, 159470, Note_off_c, 5, 74, 64
17, 159558, Note_off_c, 5, 73, 64
17, 159584, Note_on_c, 5, 76, 72
17, 159645, Note_off_c, 5, 76, 64
17, 159690, Note_on_c, 5, 73, 66
17, 159749, Note_off_c, 5, 73, 64
17, 159828, Note_on_c, 5, 69, 64
17, 159974, Note_off_c, 5, 69, 64
17, 160080, Note_on_c, 5, 79, 76
17, 160160, Note_off_c, 5, 79, 64
17, 160200, Note_on_c, 5, 76, 82
17, 160268, Note_off_c, 5, 76, 64
17, 160323, Note_on_c, 5, 78, 85
17, 160399, Note_off_c, 5, 78, 64
17, 160433, Note_on_c, 5, 76, 76
17, 160509, Note_off_c, 5, 76, 64
17, 160557, Note_on_c, 5, 74, 59
17, 160640, Note_off_c, 5, 74, 64
17, 160671, Note_on_c, 5, 76, 66
17, 160732, Note_off_c, 5, 76, 64
17, 160797, Note_on_c, 5, 69, 76
17, 160881, Note_off_c, 5, 69, 64
17, 161029, Note_on_c, 5, 73, 82
17, 161112, Note_off_c, 5, 73, 64
17, 161270, Note_on_c, 5, 74, 87
17, 161524, Note_off_c, 5, 74, 64
17, 161524, End_track
18, 0, Start_track
18, 0, Title_t, "Violin"
18, 0, Program_c, 6, 40
18, 0, Control_c, 6, 7, 100
18, 19679, Note_on_c, 6, 76, 89
18, 19825, Note_off_c, 6, 76, 64
18, 19902, Note_on_c, 6, 64, 76
18, 19969, Note_off_c, 6, 64, 64
18, 20019, Note_on_c, 6, 67, 63
18, 20084, Note_off_c, 6, 67, 64
18, 20142, Note_on_c, 6, 66, 52
18, 20426, Note_off_c, 6, 66, 64
18, 20639, Note_on_c, 6, 74, 87
18, 20801, Note_off_c, 6, 74, 64
18, 20869, Note_on_c, 6, 66, 64
18, 20961, Note_off_c, 6, 66, 64
18, 20986, Note_on_c, 6, 69, 76
18, 21051, Note_off_c, 6, 69, 64
18, 21123, Note_on_c, 6, 67, 53
18, 21409, Note_off_c, 6, 67, 64
18, 21605, Note_on_c, 6, 73, 89
18, 21765, Note_off_c, 6, 73, 64
18, 21819, Note_on_c, 6, 70, 68
18, 21888, Note_off_c, 6, 70, 64
18, 21940, Note_on_c, 6, 73, 78
18, 22012, Note_off_c, 6, 73, 64
18, 22073, Note_on_c, 6, 71, 89
18, 22250, Note_off_c, 6, 71, 64
18, 22318, Note_on_c, 6, 73, 68
18, 22385, Note_off_c, 6, 73, 64
18, 22419, Note_on_c, 6, 74, 78
18, 22502, Note_off_c, 6, 74, 64
18, 22539, Note_on_c, 6, 73, 87
18, 22620, Note_off_c, 6, 73, 64
18, 22655, Note_on_c, 6, 71, 52
18, 22730, Note_off_c, 6, 71, 64
18, 22791, Note_on_c, 6, 79, 74
18, 22901, Note_off_c, 6, 79, 64
18, 23022, Note_on_c, 6, 81, 87
18, 23076, Note_on_c, 6, 79, 66
18, 23081, Note_off_c, 6, 81, 64
18, 23123, Note_on_c, 6, 81, 58
18, 23142, Note_off_c, 6, 79, 64
18, 23172, Note_on_c, 6, 79, 72
18, 23184, Note_off_c, 6, 81, 64
18, 23250, Note_on_c, 6, 78, 70
18, 23254, Note_off_c, 6, 79, 64
18, 23351, Note_off_c, 6, 78, 64
18, 23492, Note_on_c, 6, 66, 80
18, 23646, Note_off_c, 6, 66, 64
18, 23747, Note_on_c, 6, 78, 63
18, 23805, Note_off_c, 6, 78, 64
18, 23855, Note_on_c, 6, 74, 63
18, 23913, Note_off_c, 6, 74, 64
18, 23990, Note_on_c, 6, 76, 78
18, 24260, Note_off_c, 6, 76, 64
18, 24473, Note_on_c, 6, 66, 63
18, 24631, Note_off_c, 6, 66, 64
18, 24714, Note_on_c, 6, 76, 87
18, 24780, Note_off_c, 6, 76, 64
18, 24822, Note_on_c, 6, 73, 80
18, 24879, Note_off_c, 6, 73, 64
18, 24959, Note_on_c, 6, 74, 85
18, 25122, Note_off_c, 6, 74, 64
18, 25189, Note_on_c, 6, 71, 82
18, 25259, Note_off_c, 6, 71, 64
18, 25302, Note_on_c, 6, 74, 82
18, 25374, Note_off_c, 6, 74, 64
18, 25425, Note_on_c, 6, 73, 72
18, 25508, Note_off_c, 6, 73, 64
18, 25538, Note_on_c, 6, 70, 59
18, 25605, Note_off_c, 6, 70, 64
18, 25650, Note_on_c, 6, 71, 53
18, 25767, Note_off_c, 6, 71, 64
18, 25905, Note_on_c, 6, 78, 95
18, 26094, Note_off_c, 6, 78, 64
18, 26145, Note_on_c, 6, 79, 87
18, 26229, Note_off_c, 6, 79, 64
18, 26260, Note_on_c, 6, 78, 82
18, 26341, Note_off_c, 6, 78, 64
18, 26379, Note_on_c, 6, 76, 68
18, 26481, Note_off_c, 6, 76, 64
18, 26492, Note_on_c, 6, 74, 66
18, 26568, Note_off_c, 6, 74, 64
18, 26611, Note_on_c, 6, 73, 62
18, 26705, Note_off_c, 6, 73, 64
18, 26715, Note_on_c, 6, 74, 68
18, 26795, Note_off_c, 6, 74, 64
18, 26863, Note_on_c, 6, 71, 60
18, 27129, Note_off_c, 6, 71, 64
18, 27353, Note_on_c, 6, 71, 87
18, 27520, Note_off_c, 6, 71, 64
18, 27592, Note_on_c, 6, 83, 82
18, 27651, Note_off_c, 6, 83, 64
18, 27704, Note_on_c, 6, 79, 74
18, 27763, Note_off_c, 6, 79, 64
18, 27831, Note_on_c, 6, 81, 66
18, 28121, Note_off_c, 6, 81, 64
18, 28330, Note_on_c, 6, 71, 80
18, 28485, Note_off_c, 6, 71, 64
18, 28550, Note_on_c, 6, 81, 85
18, 28604, Note_off_c, 6, 81, 64
18, 28665, Note_on_c, 6, 78, 93
18, 28730, Note_off_c, 6, 78, 64
18, 28787, Note_on_c, 6, 79, 82
18, 29073, Note_off_c, 6, 79, 64
18, 29273, Note_on_c, 6, 73, 85
18, 29455, Note_off_c, 6, 73, 64
18, 29514, Note_on_c, 6, 79, 82
18, 29586, Note_off_c, 6, 79, 64
18, 29631, Note_on_c, 6, 76, 82
18, 29698, Note_off_c, 6, 76, 64
18, 29760, Note_on_c, 6, 78, 89
18, 29916, Note_off_c, 6, 78, 64
18, 29982, Note_on_c, 6, 76, 76
18, 30057, Note_off_c, 6, 76, 64
18, 30091, Note_on_c, 6, 74, 72
18, 30161, Note_off_c, 6, 74, 64
18, 30218, Note_on_c, 6, 76, 82
18, 30288, Note_off_c, 6, 76, 64
18, 30330, Note_on_c, 6, 73, 68
18, 30390, Note_off_c, 6, 73, 64
18, 30441, Note_on_c, 6, 74, 85
18, 30587, Note_off_c, 6, 74, 64
18, 30681, Note_on_c, 6, 74, 80
18, 30729, Note_on_c, 6, 73, 64
18, 30744, Note_off_c, 6, 74, 64
18, 30783, Note_on_c, 6, 74, 70
18, 30792, Note_off_c, 6, 73, 64
18, 30832, Note_on_c, 6, 73, 66
18, 30852, Note_off_c, 6, 74, 64
18, 30899, Note_on_c, 6, 71, 66
18, 30934, Note_off_c, 6, 73, 64
18, 30978, Note_off_c, 6, 71, 64
18, 31023, Note_on_c, 6, 69, 76
18, 31089, Note_off_c, 6, 69, 64
18, 31156, Note_on_c, 6, 81, 85
18, 31320, Note_off_c, 6, 81, 64
18, 31401, Note_on_c, 6, 69, 64
18, 31473, Note_off_c, 6, 69, 64
18, 31520, Note_on_c, 6, 72, 76
18, 31584, Note_off_c, 6, 72, 64
18, 31647, Note_on_c, 6, 71, 59
18, 31939, Note_off_c, 6, 71, 64
18, 32144, Note_on_c, 6, 79, 87
18, 32306, Note_off_c, 6, 79, 64
18, 32367, Note_on_c, 6, 71, 78
18, 32436, Note_off_c, 6, 71, 64
18, 32483, Note_on_c, 6, 74, 82
18, 32537, Note_off_c, 6, 74, 64
18, 32612, Note_on_c, 6, 73, 87
18, 32805, Note_off_c, 6, 73, 64
18, 32848, Note_on_c, 6, 76, 72
18, 32909, Note_off_c, 6, 76, 64
18, 32961, Note_on_c, 6, 73, 57
18, 33035, Note_off_c, 6, 73, 64
18, 33086, Note_on_c, 6, 69, 82
18, 33258, Note_off_c, 6, 69, 64
18, 33339, Note_on_c, 6, 79, 78
18, 33415, Note_off_c, 6, 79, 64
18, 33456, Note_on_c, 6, 76, 78
18, 33519, Note_off_c, 6, 76, 64
18, 33582, Note_on_c, 6, 78, 85
18, 33662, Note_off_c, 6, 78, 64
18, 33687, Note_on_c, 6, 76, 70
18, 33770, Note_off_c, 6, 76, 64
18, 33804, Note_on_c, 6, 74, 60
18, 33896, Note_off_c, 6, 74, 64
18, 33917, Note_on_c, 6, 76, 62
18, 33982, Note_off_c, 6, 76, 64
18, 34054, Note_on_c, 6, 69, 80
18, 34149, Note_off_c, 6, 69, 64
18, 34301, Note_on_c, 6, 73, 72
18, 34380, Note_off_c, 6, 73, 64
18, 34551, Note_on_c, 6, 74, 80
18, 34806, Note_off_c, 6, 74, 64
18, 35030, Note_on_c, 6, 76, 87
18, 35186, Note_off_c, 6, 76, 64
18, 35269, Note_on_c, 6, 64, 64
18, 35336, Note_off_c, 6, 64, 64
18, 35390, Note_on_c, 6, 67, 72
18, 35447, Note_off_c, 6, 67, 64
18, 35505, Note_on_c, 6, 67, 93
18, 35594, Note_on_c, 6, 68, 57
18, 35606, Note_on_c, 6, 66, 44
18, 35633, Note_off_c, 6, 68, 64
18, 35645, Note_off_c, 6, 67, 64
18, 35782, Note_off_c, 6, 66, 64
18, 35985, Note_on_c, 6, 74, 95
18, 36151, Note_off_c, 6, 74, 64
18, 36210, Note_on_c, 6, 66, 62
18, 36306, Note_off_c, 6, 66, 64
18, 36338, Note_on_c, 6, 69, 76
18, 36399, Note_off_c, 6, 69, 64
18, 36457, Note_on_c, 6, 69, 95
18, 36574, Note_on_c, 6, 67, 60
18, 36610, Note_off_c, 6, 69, 64
18, 36749, Note_off_c, 6, 67, 64
18, 36947, Note_on_c, 6, 73, 87
18, 37105, Note_off_c, 6, 73, 64
18, 37177, Note_on_c, 6, 70, 59
18, 37250, Note_off_c, 6, 70, 64
18, 37290, Note_on_c, 6, 73, 68
18, 37346, Note_off_c, 6, 73, 64
18, 37420, Note_on_c, 6, 71, 91
18, 37591, Note_off_c, 6, 71, 64
18, 37656, Note_on_c, 6, 73, 57
18, 37762, Note_on_c, 6, 74, 64
18, 37770, Note_off_c, 6, 73, 64
18, 37866, Note_off_c, 6, 74, 64
18, 37881, Note_on_c, 6, 73, 57
18, 37949, Note_off_c, 6, 73, 64
18, 37998, Note_on_c, 6, 71, 60
18, 38081, Note_off_c, 6, 71, 64
18, 38129, Note_on_c, 6, 79, 70
18, 38217, Note_off_c, 6, 79, 64
18, 38372, Note_on_c, 6, 81, 78
18, 38421, Note_on_c, 6, 79, 85
18, 38435, Note_off_c, 6, 81, 64
18, 38480, Note_on_c, 6, 81, 68
18, 38486, Note_off_c, 6, 79, 64
18, 38525, Note_on_c, 6, 79, 85
18, 38541, Note_off_c, 6, 81, 64
18, 38600, Note_on_c, 6, 78, 66
18, 38604, Note_off_c, 6, 79, 64
18, 38694, Note_off_c, 6, 78, 64
18, 38855, Note_on_c, 6, 66, 70
18, 39023, Note_off_c, 6, 66, 64
18, 39103, Note_on_c, 6, 78, 64
18, 39180, Note_off_c, 6, 78, 64
18, 39216, Note_on_c, 6, 74, 78
18, 39272, Note_off_c, 6, 74, 64
18, 39337, Note_on_c, 6, 74, 82
18, 39456, Note_on_c, 6, 76, 61
18, 39463, Note_off_c, 6, 74, 64
18, 39665, Note_off_c, 6, 76, 64
18, 39816, Note_on_c, 6, 66, 62
18, 39965, Note_off_c, 6, 66, 64
18, 40052, Note_on_c, 6, 76, 80
18, 40133, Note_off_c, 6, 76, 64
18, 40169, Note_on_c, 6, 73, 63
18, 40228, Note_off_c, 6, 73, 64
18, 40302, Note_on_c, 6, 74, 85
18, 40478, Note_off_c, 6, 74, 64
18, 40536, Note_on_c, 6, 71, 82
18, 40615, Note_off_c, 6, 71, 64
18, 40647, Note_on_c, 6, 74, 78
18, 40728, Note_off_c, 6, 74, 64
18, 40775, Note_on_c, 6, 73, 58
18, 40872, Note_off_c, 6, 73, 64
18, 40872, Note_on_c, 6, 70, 62
18, 40944, Note_off_c, 6, 70, 64
18, 40999, Note_on_c, 6, 71, 52
18, 41130, Note_off_c, 6, 71, 64
18, 41243, Note_on_c, 6, 78, 80
18, 41443, Note_off_c, 6, 78, 64
18, 41483, Note_on_c, 6, 79, 87
18, 41578, Note_off_c, 6, 79, 64
18, 41598, Note_on_c, 6, 78, 70
18, 41679, Note_off_c, 6, 78, 64
18, 41718, Note_on_c, 6, 76, 68
18, 41826, Note_off_c, 6, 76, 64
18, 41839, Note_on_c, 6, 74, 66
18, 41907, Note_off_c, 6, 74, 64
18, 41954, Note_on_c, 6, 73, 63
18, 42035, Note_off_c, 6, 73, 64
18, 42069, Note_on_c, 6, 74, 76
18, 42154, Note_off_c, 6, 74, 64
18, 42213, Note_on_c, 6, 71, 63
18, 42482, Note_off_c, 6, 71, 64
18, 42698, Note_on_c, 6, 71, 85
18, 42874, Note_off_c, 6, 71, 64
18, 42942, Note_on_c, 6, 83, 82
18, 43014, Note_off_c, 6, 83, 64
18, 43056, Note_on_c, 6, 79, 82
18, 43115, Note_off_c, 6, 79, 64
18, 43182, Note_on_c, 6, 79, 100
18, 43304, Note_on_c, 6, 81, 74
18, 43311, Note_off_c, 6, 79, 64
18, 43520, Note_off_c, 6, 81, 64
18, 43671, Note_on_c, 6, 71, 85
18, 43848, Note_off_c, 6, 71, 64
18, 43905, Note_on_c, 6, 81, 76
18, 43970, Note_off_c, 6, 81, 64
18, 44019, Note_on_c, 6, 78, 87
18, 44076, Note_off_c, 6, 78, 64
18, 44147, Note_on_c, 6, 78, 100
18, 44251, Note_on_c, 6, 79, 78
18, 44278, Note_off_c, 6, 78, 64
18, 44469, Note_off_c, 6, 79, 64
18, 44624, Note_on_c, 6, 73, 76
18, 44795, Note_off_c, 6, 73, 64
18, 44861, Note_on_c, 6, 79, 76
18, 44942, Note_off_c, 6, 79, 64
18, 44975, Note_on_c, 6, 76, 82
18, 45039, Note_off_c, 6, 76, 64
18, 45108, Note_on_c, 6, 78, 89
18, 45279, Note_off_c, 6, 78, 64
18, 45335, Note_on_c, 6, 76, 80
18, 45405, Note_off_c, 6, 76, 64
18, 45446, Note_on_c, 6, 74, 68
18, 45522, Note_off_c, 6, 74, 64
18, 45572, Note_on_c, 6, 76, 89
18, 45651, Note_off_c, 6, 76, 64
18, 45691, Note_on_c, 6, 73, 68
18, 45752, Note_off_c, 6, 73, 64
18, 45806, Note_on_c, 6, 74, 82
18, 45930, Note_off_c, 6, 74, 64
18, 46046, Note_on_c, 6, 74, 91
18, 46064, Note_on_c, 6, 76, 39
18, 46078, Note_off_c, 6, 76, 64
18, 46103, Note_off_c, 6, 74, 64
18, 46109, Note_on_c, 6, 73, 43
18, 46146, Note_on_c, 6, 74, 82
18, 46157, Note_off_c, 6, 73, 64
18, 46199, Note_on_c, 6, 73, 66
18, 46217, Note_off_c, 6, 74, 64
18, 46263, Note_on_c, 6, 71, 66
18, 46289, Note_off_c, 6, 73, 64
18, 46337, Note_off_c, 6, 71, 64
18, 46391, Note_on_c, 6, 69, 80
18, 46456, Note_off_c, 6, 69, 64
18, 46526, Note_on_c, 6, 81, 89
18, 46672, Note_off_c, 6, 81, 64
18, 46776, Note_on_c, 6, 69, 68
18, 46848, Note_off_c, 6, 69, 64
18, 46888, Note_on_c, 6, 72, 80
18, 46949, Note_off_c, 6, 72, 64
18, 46998, Note_on_c, 6, 72, 78
18, 47111, Note_on_c, 6, 71, 56
18, 47126, Note_off_c, 6, 72, 64
18, 47345, Note_off_c, 6, 71, 64
18, 47489, Note_on_c, 6, 79, 87
18, 47649, Note_off_c, 6, 79, 64
18, 47718, Note_on_c, 6, 71, 70
18, 47783, Note_off_c, 6, 71, 64
18, 47840, Note_on_c, 6, 74, 80
18, 47892, Note_off_c, 6, 74, 64
18, 47959, Note_on_c, 6, 74, 98
18, 48078, Note_on_c, 6, 73, 62
18, 48090, Note_off_c, 6, 74, 64
18, 48170, Note_off_c, 6, 73, 64
18, 48209, Note_on_c, 6, 76, 63
18, 48294, Note_off_c, 6, 76, 64
18, 48319, Note_on_c, 6, 73, 57
18, 48398, Note_off_c, 6, 73, 64
18, 48447, Note_on_c, 6, 69, 82
18, 48600, Note_off_c, 6, 69, 64
18, 48702, Note_on_c, 6, 79, 80
18, 48792, Note_off_c, 6, 79, 64
18, 48825, Note_on_c, 6, 76, 78
18, 48897, Note_off_c, 6, 76, 64
18, 48947, Note_on_c, 6, 78, 87
18, 49026, Note_off_c, 6, 78, 64
18, 49059, Note_on_c, 6, 76, 89
18, 49134, Note_off_c, 6, 76, 64
18, 49172, Note_on_c, 6, 74, 70
18, 49250, Note_off_c, 6, 74, 64
18, 49295, Note_on_c, 6, 76, 85
18, 49359, Note_off_c, 6, 76, 64
18, 49419, Note_on_c, 6, 69, 87
18, 49502, Note_off_c, 6, 69, 64
18, 49658, Note_on_c, 6, 73, 78
18, 49737, Note_off_c, 6, 73, 64
18, 49898, Note_on_c, 6, 74, 82
18, 50157, Note_off_c, 6, 74, 64
18, 81121, Note_on_c, 6, 69, 105
18, 81218, Note_on_c, 6, 68, 78
18, 81247, Note_off_c, 6, 69, 64
18, 81348, Note_on_c, 6, 69, 72
18, 81364, Note_off_c, 6, 68, 64
18, 81434, Note_off_c, 6, 69, 64
18, 81592, Note_on_c, 6, 61, 100
18, 81688, Note_on_c, 6, 59, 76
18, 81722, Note_off_c, 6, 61, 64
18, 81818, Note_on_c, 6, 61, 60
18, 81819, Note_off_c, 6, 59, 64
18, 81926, Note_off_c, 6, 61, 64
18, 82055, Note_on_c, 6, 64, 89
18, 82149, Note_on_c, 6, 62, 82
18, 82170, Note_off_c, 6, 64, 64
18, 82253, Note_off_c, 6, 62, 64
18, 82269, Note_on_c, 6, 64, 66
18, 82365, Note_off_c, 6, 64, 64
18, 82529, Note_on_c, 6, 57, 63
18, 82880, Note_off_c, 6, 57, 64
18, 83022, Note_on_c, 6, 79, 78
18, 83115, Note_off_c, 6, 79, 64
18, 83263, Note_on_c, 6, 78, 68
18, 83652, Note_off_c, 6, 78, 64
18, 83744, Note_on_c, 6, 76, 70
18, 84149, Note_off_c, 6, 76, 64
18, 84222, Note_on_c, 6, 74, 82
18, 84419, Note_off_c, 6, 74, 64
18, 84440, Note_on_c, 6, 76, 70
18, 84496, Note_on_c, 6, 74, 85
18, 84509, Note_off_c, 6, 76, 64
18, 84545, Note_on_c, 6, 76, 63
18, 84554, Note_off_c, 6, 74, 64
18, 84590, Note_on_c, 6, 74, 74
18, 84606, Note_off_c, 6, 76, 64
18, 84676, Note_on_c, 6, 73, 64
18, 84690, Note_off_c, 6, 74, 64
18, 84804, Note_off_c, 6, 73, 64
18, 84941, Note_on_c, 6, 74, 82
18, 85043, Note_on_c, 6, 73, 60
18, 85065, Note_off_c, 6, 74, 64
18, 85130, Note_on_c, 6, 74, 68
18, 85158, Note_off_c, 6, 73, 64
18, 85243, Note_off_c, 6, 74, 64
18, 85257, Note_on_c, 6, 78, 63
18, 85328, Note_off_c, 6, 78, 64
18, 85396, Note_on_c, 6, 78, 87
18, 85499, Note_on_c, 6, 76, 66
18, 85509, Note_off_c, 6, 78, 64
18, 85626, Note_on_c, 6, 78, 62
18, 85652, Note_off_c, 6, 76, 64
18, 85718, Note_off_c, 6, 78, 64
18, 85745, Note_on_c, 6, 83, 80
18, 85817, Note_off_c, 6, 83, 64
18, 85862, Note_on_c, 6, 83, 82
18, 85970, Note_on_c, 6, 79, 70
18, 85976, Note_off_c, 6, 83, 64
18, 86040, Note_off_c, 6, 79, 64
18, 86102, Note_on_c, 6, 81, 82
18, 86235, Note_off_c, 6, 81, 64
18, 86355, Note_on_c, 6, 81, 89
18, 86723, Note_off_c, 6, 81, 64
18, 86877, Note_on_c, 6, 79, 98
18, 86975, Note_on_c, 6, 78, 66
18, 86994, Note_off_c, 6, 79, 64
18, 87075, Note_off_c, 6, 78, 64
18, 87077, Note_on_c, 6, 76, 60
18, 87178, Note_off_c, 6, 76, 64
18, 87198, Note_on_c, 6, 79, 66
18, 87281, Note_off_c, 6, 79, 64
18, 87327, Note_on_c, 6, 78, 87
18, 87428, Note_off_c, 6, 78, 64
18, 87569, Note_on_c, 6, 71, 72
18, 87662, Note_off_c, 6, 71, 64
18, 87819, Note_on_c, 6, 73, 68
18, 87880, Note_off_c, 6, 73, 64
18, 88056, Note_on_c, 6, 70, 68
18, 88152, Note_off_c, 6, 70, 64
18, 88296, Note_on_c, 6, 71, 82
18, 88550, Note_off_c, 6, 71, 64
18, 88807, Note_on_c, 6, 66, 82
18, 88895, Note_on_c, 6, 64, 80
18, 88926, Note_off_c, 6, 66, 64
18, 89018, Note_on_c, 6, 66, 62
18, 89059, Note_off_c, 6, 64, 64
18, 89113, Note_on_c, 6, 67, 72
18, 89124, Note_off_c, 6, 66, 64
18, 89226, Note_off_c, 6, 67, 64
18, 89243, Note_on_c, 6, 69, 87
18, 89342, Note_on_c, 6, 67, 66
18, 89360, Note_off_c, 6, 69, 64
18, 89462, Note_on_c, 6, 69, 52
18, 89482, Note_off_c, 6, 67, 64
18, 89579, Note_on_c, 6, 71, 68
18, 89595, Note_off_c, 6, 69, 64
18, 89667, Note_off_c, 6, 71, 64
18, 89716, Note_on_c, 6, 72, 98
18, 89819, Note_on_c, 6, 71, 74
18, 89828, Note_off_c, 6, 72, 64
18, 89932, Note_on_c, 6, 72, 68
18, 89952, Note_off_c, 6, 71, 64
18, 90049, Note_on_c, 6, 74, 80
18, 90056, Note_off_c, 6, 72, 64
18, 90125, Note_off_c, 6, 74, 64
18, 90179, Note_on_c, 6, 72, 89
18, 90278, Note_on_c, 6, 71, 70
18, 90312, Note_off_c, 6, 72, 64
18, 90422, Note_on_c, 6, 72, 68
18, 90429, Note_off_c, 6, 71, 64
18, 90525, Note_on_c, 6, 78, 58
18, 90531, Note_off_c, 6, 72, 64
18, 90596, Note_off_c, 6, 78, 64
18, 90659, Note_on_c, 6, 72, 82
18, 90760, Note_on_c, 6, 71, 61
18, 90789, Note_off_c, 6, 72, 64
18, 90904, Note_on_c, 6, 72, 66
18, 90913, Note_off_c, 6, 71, 64
18, 91014, Note_off_c, 6, 72, 64
18, 91016, Note_on_c, 6, 81, 85
18, 91082, Note_off_c, 6, 81, 64
18, 91151, Note_on_c, 6, 71, 91
18, 91253, Note_on_c, 6, 69, 57
18, 91282, Note_off_c, 6, 71, 64
18, 91375, Note_on_c, 6, 71, 74
18, 91395, Note_off_c, 6, 69, 64
18, 91467, Note_off_c, 6, 71, 64
18, 91489, Note_on_c, 6, 81, 72
18, 91568, Note_off_c, 6, 81, 64
18, 91619, Note_on_c, 6, 79, 78
18, 91736, Note_on_c, 6, 78, 60
18, 91752, Note_off_c, 6, 79, 64
18, 91829, Note_off_c, 6, 78, 64
18, 91856, Note_on_c, 6, 76, 63
18, 91968, Note_off_c, 6, 76, 64
18, 91977, Note_on_c, 6, 74, 74
18, 92052, Note_off_c, 6, 74, 64
18, 92110, Note_on_c, 6, 73, 82
18, 92225, Note_off_c, 6, 73, 64
18, 92360, Note_on_c, 6, 69, 80
18, 92459, Note_off_c, 6, 69, 64
18, 92610, Note_on_c, 6, 78, 100
18, 92718, Note_on_c, 6, 76, 85
18, 92754, Note_off_c, 6, 78, 64
18, 92840, Note_on_c, 6, 74, 59
18, 92848, Note_off_c, 6, 76, 64
18, 92952, Note_on_c, 6, 73, 78
18, 92969, Note_off_c, 6, 74, 64
18, 93064, Note_off_c, 6, 73, 64
18, 93077, Note_on_c, 6, 71, 61
18, 93190, Note_off_c, 6, 71, 64
18, 93335, Note_on_c, 6, 71, 72
18, 93444, Note_off_c, 6, 71, 64
18, 93586, Note_on_c, 6, 71, 87
18, 93690, Note_on_c, 6, 73, 64
18, 93707, Note_off_c, 6, 71, 64
18, 93799, Note_off_c, 6, 73, 64
18, 93806, Note_on_c, 6, 74, 72
18, 93915, Note_off_c, 6, 74, 64
18, 93919, Note_on_c, 6, 71, 74
18, 93993, Note_off_c, 6, 71, 64
18, 94052, Note_on_c, 6, 76, 100
18, 94155, Note_on_c, 6, 74, 82
18, 94184, Note_off_c, 6, 76, 64
18, 94279, Note_on_c, 6, 73, 61
18, 94290, Note_off_c, 6, 74, 64
18, 94383, Note_on_c, 6, 71, 66
18, 94404, Note_off_c, 6, 73, 64
18, 94482, Note_off_c, 6, 71, 64
18, 94513, Note_on_c, 6, 69, 82
18, 94632, Note_off_c, 6, 69, 64
18, 94758, Note_on_c, 6, 74, 85
18, 94853, Note_off_c, 6, 74, 64
18, 95010, Note_on_c, 6, 69, 85
18, 95121, Note_off_c, 6, 69, 64
18, 95256, Note_on_c, 6, 74, 82
18, 95337, Note_off_c, 6, 74, 64
18, 95490, Note_on_c, 6, 67, 82
18, 95544, Note_on_c, 6, 66, 51
18, 95555, Note_off_c, 6, 67, 64
18, 95589, Note_on_c, 6, 67, 68
18, 95598, Note_off_c, 6, 66, 64
18, 95640, Note_on_c, 6, 66, 68
18, 95670, Note_off_c, 6, 67, 64
18, 95715, Note_on_c, 6, 64, 68
18, 95728, Note_off_c, 6, 66, 64
18, 95811, Note_off_c, 6, 64, 64
18, 95833, Note_on_c, 6, 66, 87
18, 95903, Note_off_c, 6, 66, 64
18, 95962, Note_on_c, 6, 62, 87
18, 96263, Note_off_c, 6, 62, 64
18, 96484, Note_on_c, 6, 69, 105
18, 96576, Note_on_c, 6, 68, 87
18, 96599, Note_off_c, 6, 69, 64
18, 96693, Note_off_c, 6, 68, 64
18, 96709, Note_on_c, 6, 69, 82
18, 96792, Note_off_c, 6, 69, 64
18, 96954, Note_on_c, 6, 61, 82
18, 97049, Note_on_c, 6, 59, 68
18, 97089, Note_off_c, 6, 61, 64
18, 97184, Note_on_c, 6, 61, 70
18, 97188, Note_off_c, 6, 59, 64
18, 97290, Note_off_c, 6, 61, 64
18, 97425, Note_on_c, 6, 64, 80
18, 97519, Note_on_c, 6, 62, 76
18, 97542, Note_off_c, 6, 64, 64
18, 97634, Note_off_c, 6, 62, 64
18, 97647, Note_on_c, 6, 64, 82
18, 97730, Note_off_c, 6, 64, 64
18, 97893, Note_on_c, 6, 57, 70
18, 98216, Note_off_c, 6, 57, 64
18, 98390, Note_on_c, 6, 79, 85
18, 98489, Note_off_c, 6, 79, 64
18, 98628, Note_on_c, 6, 78, 59
18, 99018, Note_off_c, 6, 78, 64
18, 99107, Note_on_c, 6, 76, 61
18, 99544, Note_off_c, 6, 76, 64
18, 99590, Note_on_c, 6, 74, 68
18, 99769, Note_off_c, 6, 74, 64
18, 99816, Note_on_c, 6, 76, 66
18, 99857, Note_on_c, 6, 74, 68
18, 99877, Note_off_c, 6, 76, 64
18, 99909, Note_on_c, 6, 76, 60
18, 99911, Note_off_c, 6, 74, 64
18, 99954, Note_on_c, 6, 74, 68
18, 99963, Note_off_c, 6, 76, 64
18, 100043, Note_on_c, 6, 73, 57
18, 100050, Note_off_c, 6, 74, 64
18, 100157, Note_off_c, 6, 73, 64
18, 100302, Note_on_c, 6, 74, 78
18, 100403, Note_on_c, 6, 73, 60
18, 100419, Note_off_c, 6, 74, 64
18, 100503, Note_on_c, 6, 74, 70
18, 100527, Note_off_c, 6, 73, 64
18, 100611, Note_off_c, 6, 74, 64
18, 100620, Note_on_c, 6, 78, 60
18, 100689, Note_off_c, 6, 78, 64
18, 100759, Note_on_c, 6, 78, 91
18, 100867, Note_on_c, 6, 76, 53
18, 100890, Note_off_c, 6, 78, 64
18, 100993, Note_on_c, 6, 78, 58
18, 101013, Note_off_c, 6, 76, 64
18, 101074, Note_off_c, 6, 78, 64
18, 101110, Note_on_c, 6, 83, 70
18, 101171, Note_off_c, 6, 83, 64
18, 101229, Note_on_c, 6, 83, 89
18, 101339, Note_off_c, 6, 83, 64
18, 101342, Note_on_c, 6, 79, 72
18, 101420, Note_off_c, 6, 79, 64
18, 101479, Note_on_c, 6, 81, 85
18, 101558, Note_off_c, 6, 81, 64
18, 101731, Note_on_c, 6, 81, 89
18, 102091, Note_off_c, 6, 81, 64
18, 102219, Note_on_c, 6, 79, 87
18, 102323, Note_on_c, 6, 78, 82
18, 102347, Note_off_c, 6, 79, 64
18, 102413, Note_off_c, 6, 78, 64
18, 102444, Note_on_c, 6, 76, 76
18, 102523, Note_off_c, 6, 76, 64
18, 102550, Note_on_c, 6, 79, 68
18, 102626, Note_off_c, 6, 79, 64
18, 102685, Note_on_c, 6, 78, 91
18, 102775, Note_off_c, 6, 78, 64
18, 102930, Note_on_c, 6, 71, 78
18, 103018, Note_off_c, 6, 71, 64
18, 103167, Note_on_c, 6, 73, 64
18, 103243, Note_off_c, 6, 73, 64
18, 103414, Note_on_c, 6, 70, 68
18, 103511, Note_off_c, 6, 70, 64
18, 103653, Note_on_c, 6, 71, 82
18, 103920, Note_off_c, 6, 71, 64
18, 104165, Note_on_c, 6, 66, 85
18, 104260, Note_on_c, 6, 64, 74
18, 104292, Note_off_c, 6, 66, 64
18, 104377, Note_on_c, 6, 66, 60
18, 104402, Note_off_c, 6, 64, 64
18, 104472, Note_off_c, 6, 66, 64
18, 104489, Note_on_c, 6, 67, 74
18, 104582, Note_off_c, 6, 67, 64
18, 104618, Note_on_c, 6, 69, 85
18, 104728, Note_on_c, 6, 67, 66
18, 104737, Note_off_c, 6, 69, 64
18, 104847, Note_on_c, 6, 69, 62
18, 104863, Note_off_c, 6, 67, 64
18, 104955, Note_on_c, 6, 71, 72
18, 104957, Note_off_c, 6, 69, 64
18, 105034, Note_off_c, 6, 71, 64
18, 105083, Note_on_c, 6, 72, 87
18, 105194, Note_on_c, 6, 71, 72
18, 105198, Note_off_c, 6, 72, 64
18, 105306, Note_on_c, 6, 72, 63
18, 105308, Note_off_c, 6, 71, 64
18, 105417, Note_off_c, 6, 72, 64
18, 105419, Note_on_c, 6, 74, 70
18, 105500, Note_off_c, 6, 74, 64
18, 105556, Note_on_c, 6, 72, 95
18, 105655, Note_on_c, 6, 71, 61
18, 105689, Note_off_c, 6, 72, 64
18, 105803, Note_on_c, 6, 72, 63
18, 105812, Note_off_c, 6, 71, 64
18, 105914, Note_off_c, 6, 72, 64
18, 105914, Note_on_c, 6, 78, 68
18, 105965, Note_off_c, 6, 78, 64
18, 106042, Note_on_c, 6, 72, 85
18, 106139, Note_on_c, 6, 71, 60
18, 106177, Note_off_c, 6, 72, 64
18, 106281, Note_on_c, 6, 72, 61
18, 106294, Note_off_c, 6, 71, 64
18, 106375, Note_off_c, 6, 72, 64
18, 106389, Note_on_c, 6, 81, 70
18, 106454, Note_off_c, 6, 81, 64
18, 106515, Note_on_c, 6, 71, 78
18, 106618, Note_on_c, 6, 69, 52
18, 106659, Note_off_c, 6, 71, 64
18, 106755, Note_on_c, 6, 71, 70
18, 106766, Note_off_c, 6, 69, 64
18, 106825, Note_off_c, 6, 71, 64
18, 106868, Note_on_c, 6, 81, 74
18, 106940, Note_off_c, 6, 81, 64
18, 107000, Note_on_c, 6, 79, 82
18, 107109, Note_on_c, 6, 78, 55
18, 107120, Note_off_c, 6, 79, 64
18, 107211, Note_off_c, 6, 78, 64
18, 107239, Note_on_c, 6, 76, 70
18, 107345, Note_on_c, 6, 74, 68
18, 107351, Note_off_c, 6, 76, 64
18, 107430, Note_off_c, 6, 74, 64
18, 107477, Note_on_c, 6, 73, 78
18, 107592, Note_off_c, 6, 73, 64
18, 107730, Note_on_c, 6, 69, 72
18, 107826, Note_off_c, 6, 69, 64
18, 107981, Note_on_c, 6, 78, 98
18, 108090, Note_on_c, 6, 76, 82
18, 108126, Note_off_c, 6, 78, 64
18, 108204, Note_on_c, 6, 74, 60
18, 108218, Note_off_c, 6, 76, 64
18, 108314, Note_on_c, 6, 73, 66
18, 108337, Note_off_c, 6, 74, 64
18, 108427, Note_off_c, 6, 73, 64
18, 108440, Note_on_c, 6, 71, 72
18, 108556, Note_off_c, 6, 71, 64
18, 108697, Note_on_c, 6, 71, 70
18, 108800, Note_off_c, 6, 71, 64
18, 108949, Note_on_c, 6, 71, 100
18, 109052, Note_on_c, 6, 73, 63
18, 109071, Note_off_c, 6, 71, 64
18, 109170, Note_on_c, 6, 74, 63
18, 109178, Note_off_c, 6, 73, 64
18, 109277, Note_on_c, 6, 71, 61
18, 109284, Note_off_c, 6, 74, 64
18, 109376, Note_off_c, 6, 71, 64
18, 109413, Note_on_c, 6, 76, 100
18, 109525, Note_on_c, 6, 74, 82
18, 109554, Note_off_c, 6, 76, 64
18, 109646, Note_on_c, 6, 73, 61
18, 109664, Note_off_c, 6, 74, 64
18, 109746, Note_on_c, 6, 71, 68
18, 109777, Note_off_c, 6, 73, 64
18, 109862, Note_off_c, 6, 71, 64
18, 109883, Note_on_c, 6, 69, 60
18, 109991, Note_off_c, 6, 69, 64
18, 110132, Note_on_c, 6, 74, 78
18, 110222, Note_off_c, 6, 74, 64
18, 110382, Note_on_c, 6, 69, 82
18, 110492, Note_off_c, 6, 69, 64
18, 110623, Note_on_c, 6, 74, 85
18, 110708, Note_off_c, 6, 74, 64
18, 110864, Note_on_c, 6, 67, 80
18, 110920, Note_on_c, 6, 66, 63
18, 110933, Note_off_c, 6, 67, 64
18, 110970, Note_on_c, 6, 67, 68
18, 110980, Note_off_c, 6, 66, 64
18, 111015, Note_on_c, 6, 66, 70
18, 111044, Note_off_c, 6, 67, 64
18, 111091, Note_on_c, 6, 64, 78
18, 111110, Note_off_c, 6, 66, 64
18, 111176, Note_off_c, 6, 64, 64
18, 111208, Note_on_c, 6, 66, 89
18, 111278, Note_off_c, 6, 66, 64
18, 111338, Note_on_c, 6, 62, 98
18, 111613, Note_off_c, 6, 62, 64
18, 131039, Note_on_c, 6, 76, 89
18, 131185, Note_off_c, 6, 76, 64
18, 131262, Note_on_c, 6, 64, 76
18, 131329, Note_off_c, 6, 64, 64
18, 131379, Note_on_c, 6, 67, 63
18, 131444, Note_off_c, 6, 67, 64
18, 131502, Note_on_c, 6, 66, 52
18, 131786, Note_off_c, 6, 66, 64
18, 131999, Note_on_c, 6, 74, 87
18, 132161, Note_off_c, 6, 74, 64
18, 132229, Note_on_c, 6, 66, 64
18, 132321, Note_off_c, 6, 66, 64
18, 132346, Note_on_c, 6, 69, 76
18, 132411, Note_off_c, 6, 69, 64
18, 132483, Note_on_c, 6, 67, 53
18, 132769, Note_off_c, 6, 67, 64
18, 132965, Note_on_c, 6, 73, 89
18, 133125, Note_off_c, 6, 73, 64
18, 133179, Note_on_c, 6, 70, 68
18, 133248, Note_off_c, 6, 70, 64
18, 133300, Note_on_c, 6, 73, 78
18, 133372, Note_off_c, 6, 73, 64
18, 133433, Note_on_c, 6, 71, 89
18, 133610, Note_off_c, 6, 71, 64
18, 133678, Note_on_c, 6, 73, 68
18, 133745, Note_off_c, 6, 73, 64
18, 133779, Note_on_c, 6, 74, 78
18, 133862, Note_off_c, 6, 74, 64
18, 133899, Note_on_c, 6, 73, 87
18, 133980, Note_off_c, 6, 73, 64
18, 134015, Note_on_c, 6, 71, 52
18, 134090, Note_off_c, 6, 71, 64
18, 134151, Note_on_c, 6, 79, 74
18, 134261, Note_off_c, 6, 79, 64
18, 134382, Note_on_c, 6, 81, 87
18, 134436, Note_on_c, 6, 79, 66
18, 134441, Note_off_c, 6, 81, 64
18, 134483, Note_on_c, 6, 81, 58
18, 134502, Note_off_c, 6, 79, 64
18, 134532, Note_on_c, 6, 79, 72
18, 134544, Note_off_c, 6, 81, 64
18, 134610, Note_on_c, 6, 78, 70
18, 134614, Note_off_c, 6, 79, 64
18, 134711, Note_off_c, 6, 78, 64
18, 134852, Note_on_c, 6, 66, 80
18, 135006, Note_off_c, 6, 66, 64
18, 135107, Note_on_c, 6, 78, 63
18, 135165, Note_off_c, 6, 78, 64
18, 135215, Note_on_c, 6, 74, 63
18, 135273, Note_off_c, 6, 74, 64
18, 135350, Note_on_c, 6, 76, 78
18, 135620, Note_off_c, 6, 76, 64
18, 135833, Note_on_c, 6, 66, 63
18, 135991, Note_off_c, 6, 66, 64
18, 136074, Note_on_c, 6, 76, 87
18, 136140, Note_off_c, 6, 76, 64
18, 136182, Note_on_c, 6, 73, 80
18, 136239, Note_off_c, 6, 73, 64
18, 136319, Note_on_c, 6, 74, 85
18, 136482, Note_off_c, 6, 74, 64
18, 136549, Note_on_c, 6, 71, 82
18, 136619, Note_off_c, 6, 71, 64
18, 136662, Note_on_c, 6, 74, 82
18, 136734, Note_off_c, 6, 74, 64
18, 136785, Note_on_c, 6, 73, 72
18, 136868, Note_off_c, 6, 73, 64
18, 136898, Note_on_c, 6, 70, 59
18, 136965, Note_off_c, 6, 70, 64
18, 137010, Note_on_c, 6, 71, 53
18, 137127, Note_off_c, 6, 71, 64
18, 137265, Note_on_c, 6, 78, 95
18, 137454, Note_off_c, 6, 78, 64
18, 137505, Note_on_c, 6, 79, 87
18, 137589, Note_off_c, 6, 79, 64
18, 137620, Note_on_c, 6, 78, 82
18, 137701, Note_off_c, 6, 78, 64
18, 137739, Note_on_c, 6, 76, 68
18, 137841, Note_off_c, 6, 76, 64
18, 137852, Note_on_c, 6, 74, 66
18, 137928, Note_off_c, 6, 74, 64
18, 137971, Note_on_c, 6, 73, 62
18, 138065, Note_off_c, 6, 73, 64
18, 138075, Note_on_c, 6, 74, 68
18, 138155, Note_off_c, 6, 74, 64
18, 138223, Note_on_c, 6, 71, 60
18, 138489, Note_off_c, 6, 71, 64
18, 138713, Note_on_c, 6, 71, 87
18, 138880, Note_off_c, 6, 71, 64
18, 138952, Note_on_c, 6, 83, 82
18, 139011, Note_off_c, 6, 83, 64
18, 139064, Note_on_c, 6, 79, 74
18, 139123, Note_off_c, 6, 79, 64
18, 139191, Note_on_c, 6, 81, 66
18, 139481, Note_off_c, 6, 81, 64
18, 139690, Note_on_c, 6, 71, 80
18, 139845, Note_off_c, 6, 71, 64
18, 139910, Note_on_c, 6, 81, 85
18, 139964, Note_off_c, 6, 81, 64
18, 140025, Note_on_c, 6, 78, 93
18, 140090, Note_off_c, 6, 78, 64
18, 140147, Note_on_c, 6, 79, 82
18, 140433, Note_off_c, 6, 79, 64
18, 140633, Note_on_c, 6, 73, 85
18, 140815, Note_off_c, 6, 73, 64
18, 140874, Note_on_c, 6, 79, 82
18, 140946, Note_off_c, 6, 79, 64
18, 140991, Note_on_c, 6, 76, 82
18, 141058, Note_off_c, 6, 76, 64
18, 141120, Note_on_c, 6, 78, 89
18, 141276, Note_off_c, 6, 78, 64
18, 141342, Note_on_c, 6, 76, 76
18, 141417, Note_off_c, 6, 76, 64
18, 141451, Note_on_c, 6, 74, 72
18, 141521, Note_off_c, 6, 74, 64
18, 141578, Note_on_c, 6, 76, 82
18, 141648, Note_off_c, 6, 76, 64
18, 141690, Note_on_c, 6, 73, 68
18, 141750, Note_off_c, 6, 73, 64
18, 141801, Note_on_c, 6, 74, 85
18, 141947, Note_off_c, 6, 74, 64
18, 142041, Note_on_c, 6, 74, 80
18, 142089, Note_on_c, 6, 73, 64
18, 142104, Note_off_c, 6, 74, 64
18, 142143, Note_on_c, 6, 74, 70
18, 142152, Note_off_c, 6, 73, 64
18, 142192, Note_on_c, 6, 73, 66
18, 142212, Note_off_c, 6, 74, 64
18, 142259, Note_on_c, 6, 71, 66
18, 142294, Note_off_c, 6, 73, 64
18, 142338, Note_off_c, 6, 71, 64
18, 142383, Note_on_c, 6, 69, 76
18, 142449, Note_off_c, 6, 69, 64
18, 142516, Note_on_c, 6, 81, 85
18, 142680, Note_off_c, 6, 81, 64
18, 142761, Note_on_c, 6, 69, 64
18, 142833, Note_off_c, 6, 69, 64
18, 142880, Note_on_c, 6, 72, 76
18, 142944, Note_off_c, 6, 72, 64
18, 143007, Note_on_c, 6, 71, 59
18, 143299, Note_off_c, 6, 71, 64
18, 143504, Note_on_c, 6, 79, 87
18, 143666, Note_off_c, 6, 79, 64
18, 143727, Note_on_c, 6, 71, 78
18, 143796, Note_off_c, 6, 71, 64
18, 143843, Note_on_c, 6, 74, 82
18, 143897, Note_off_c, 6, 74, 64
18, 143972, Note_on_c, 6, 73, 87
18, 144165, Note_off_c, 6, 73, 64
18, 144208, Note_on_c, 6, 76, 72
18, 144269, Note_off_c, 6, 76, 64
18, 144321, Note_on_c, 6, 73, 57
18, 144395, Note_off_c, 6, 73, 64
18, 144446, Note_on_c, 6, 69, 82
18, 144618, Note_off_c, 6, 69, 64
18, 144699, Note_on_c, 6, 79, 78
18, 144775, Note_off_c, 6, 79, 64
18, 144816, Note_on_c, 6, 76, 78
18, 144879, Note_off_c, 6, 76, 64
18, 144942, Note_on_c, 6, 78, 85
18, 145022, Note_off_c, 6, 78, 64
18, 145047, Note_on_c, 6, 76, 70
18, 145130, Note_off_c, 6, 76, 64
18, 145164, Note_on_c, 6, 74, 60
18, 145256, Note_off_c, 6, 74, 64
18, 145277, Note_on_c, 6, 76, 62
18, 145342, Note_off_c, 6, 76, 64
18, 145414, Note_on_c, 6, 69, 80
18, 145509, Note_off_c, 6, 69, 64
18, 145661, Note_on_c, 6, 73, 72
18, 145740, Note_off_c, 6, 73, 64
18, 145911, Note_on_c, 6, 74, 80
18, 146166, Note_off_c, 6, 74, 64
18, 146390, Note_on_c, 6, 76, 87
18, 146546, Note_off_c, 6, 76, 64
18, 146629, Note_on_c, 6, 64, 64
18, 146696, Note_off_c, 6, 64, 64
18, 146750, Note_on_c, 6, 67, 72
18, 146807, Note_off_c, 6, 67, 64
18, 146865, Note_on_c, 6, 67, 93
18, 146954, Note_on_c, 6, 68, 57
18, 146966, Note_on_c, 6, 66, 44
18, 146993, Note_off_c, 6, 68, 64
18, 147005, Note_off_c, 6, 67, 64
18, 147142, Note_off_c, 6, 66, 64
18, 147345, Note_on_c, 6, 74, 95
18, 147511, Note_off_c, 6, 74, 64
18, 147570, Note_on_c, 6, 66, 62
18, 147666, Note_off_c, 6, 66, 64
18, 147698, Note_on_c, 6, 69, 76
18, 147759, Note_off_c, 6, 69, 64
18, 147817, Note_on_c, 6, 69, 95
18, 147934, Note_on_c, 6, 67, 60
18, 147970, Note_off_c, 6, 69, 64
18, 148109, Note_off_c, 6, 67, 64
18, 148307, Note_on_c, 6, 73, 87
18, 148465, Note_off_c, 6, 73, 64
18, 148537, Note_on_c, 6, 70, 59
18, 148610, Note_off_c, 6, 70, 64
18, 148650, Note_on_c, 6, 73, 68
18, 148706, Note_off_c, 6, 73, 64
18, 148780, Note_on_c, 6, 71, 91
18, 148951, Note_off_c, 6, 71, 64
18, 149016, Note_on_c, 6, 73, 57
18, 149122, Note_on_c, 6, 74, 64
18, 149130, Note_off_c, 6, 73, 64
18, 149226, Note_off_c, 6, 74, 64
18, 149241, Note_on_c, 6, 73, 57
18, 149309, Note_off_c, 6, 73, 64
18, 149358, Note_on_c, 6, 71, 60
18, 149441, Note_off_c, 6, 71, 64
18, 149489, Note_on_c, 6, 79, 70
18, 149577, Note_off_c, 6, 79, 64
18, 149732, Note_on_c, 6, 81, 78
18, 149781, Note_on_c, 6, 79, 85
18, 149795, Note_off_c, 6, 81, 64
18, 149840, Note_on_c, 6, 81, 68
18, 149846, Note_off_c, 6, 79, 64
18, 149885, Note_on_c, 6, 79, 85
18, 149901, Note_off_c, 6, 81, 64
18, 149960, Note_on_c, 6, 78, 66
18, 149964, Note_off_c, 6, 79, 64
18, 150054, Note_off_c, 6, 78, 64
18, 150215, Note_on_c, 6, 66, 70
18, 150383, Note_off_c, 6, 66, 64
18, 150463, Note_on_c, 6, 78, 64
18, 150540, Note_off_c, 6, 78, 64
18, 150576, Note_on_c, 6, 74, 78
18, 150632, Note_off_c, 6, 74, 64
18, 150697, Note_on_c, 6, 74, 82
18, 150816, Note_on_c, 6, 76, 61
18, 150823, Note_off_c, 6, 74, 64
18, 151025, Note_off_c, 6, 76, 64
18, 151176, Note_on_c, 6, 66, 62
18, 151325, Note_off_c, 6, 66, 64
18, 151412, Note_on_c, 6, 76, 80
18, 151493, Note_off_c, 6, 76, 64
18, 151529, Note_on_c, 6, 73, 63
18, 151588, Note_off_c, 6, 73, 64
18, 151662, Note_on_c, 6, 74, 85
18, 151838, Note_off_c, 6, 74, 64
18, 151896, Note_on_c, 6, 71, 82
18, 151975, Note_off_c, 6, 71, 64
18, 152007, Note_on_c, 6, 74, 78
18, 152088, Note_off_c, 6, 74, 64
18, 152135, Note_on_c, 6, 73, 58
18, 152232, Note_off_c, 6, 73, 64
18, 152232, Note_on_c, 6, 70, 62
18, 152304, Note_off_c, 6, 70, 64
18, 152359, Note_on_c, 6, 71, 52
18, 152490, Note_off_c, 6, 71, 64
18, 152603, Note_on_c, 6, 78, 80
18, 152803, Note_off_c, 6, 78, 64
18, 152843, Note_on_c, 6, 79, 87
18, 152938, Note_off_c, 6, 79, 64
18, 152958, Note_on_c, 6, 78, 70
18, 153039, Note_off_c, 6, 78, 64
18, 153078, Note_on_c, 6, 76, 68
18, 153186, Note_off_c, 6, 76, 64
18, 153199, Note_on_c, 6, 74, 66
18, 153267, Note_off_c, 6, 74, 64
18, 153314, Note_on_c, 6, 73, 63
18, 153395, Note_off_c, 6, 73, 64
18, 153429, Note_on_c, 6, 74, 76
18, 153514, Note_off_c, 6, 74, 64
18, 153573, Note_on_c, 6, 71, 63
18, 153842, Note_off_c, 6, 71, 64
18, 154058, Note_on_c, 6, 71, 85
18, 154234, Note_off_c, 6, 71, 64
18, 154302, Note_on_c, 6, 83, 82
18, 154374, Note_off_c, 6, 83, 64
18, 154416, Note_on_c, 6, 79, 82
18, 154475, Note_off_c, 6, 79, 64
18, 154542, Note_on_c, 6, 79, 100
18, 154664, Note_on_c, 6, 81, 74
18, 154671, Note_off_c, 6, 79, 64
18, 154880, Note_off_c, 6, 81, 64
18, 155031, Note_on_c, 6, 71, 85
18, 155208, Note_off_c, 6, 71, 64
18, 155265, Note_on_c, 6, 81, 76
18, 155330, Note_off_c, 6, 81, 64
18, 155379, Note_on_c, 6, 78, 87
18, 155436, Note_off_c, 6, 78, 64
18, 155507, Note_on_c, 6, 78, 100
18, 155611, Note_on_c, 6, 79, 78
18, 155638, Note_off_c, 6, 78, 64
18, 155829, Note_off_c, 6, 79, 64
18, 155984, Note_on_c, 6, 73, 76
18, 156155, Note_off_c, 6, 73, 64
18, 156221, Note_on_c, 6, 79, 76
18, 156302, Note_off_c, 6, 79, 64
18, 156335, Note_on_c, 6, 76, 82
18, 156399, Note_off_c, 6, 76, 64
18, 156468, Note_on_c, 6, 78, 89
18, 156639, Note_off_c, 6, 78, 64
18, 156695, Note_on_c, 6, 76, 80
18, 156765, Note_off_c, 6, 76, 64
18, 156806, Note_on_c, 6, 74, 68
18, 156882, Note_off_c, 6, 74, 64
18, 156932, Note_on_c, 6, 76, 89
18, 157011, Note_off_c, 6, 76, 64
18, 157051, Note_on_c, 6, 73, 68
18, 157112, Note_off_c, 6, 73, 64
18, 157166, Note_on_c, 6, 74, 82
18, 157290, Note_off_c, 6, 74, 64
18, 157406, Note_on_c, 6, 74, 91
18, 157424, Note_on_c, 6, 76, 39
18, 157438, Note_off_c, 6, 76, 64
18, 157463, Note_off_c, 6, 74, 64
18, 157469, Note_on_c, 6, 73, 43
18, 157506, Note_on_c, 6, 74, 82
18, 157517, Note_off_c, 6, 73, 64
18, 157559, Note_on_c, 6, 73, 66
18, 157577, Note_off_c, 6, 74, 64
18, 157623, Note_on_c, 6, 71, 66
18, 157649, Note_off_c, 6, 73, 64
18, 157697, Note_off_c, 6, 71, 64
18, 157751, Note_on_c, 6, 69, 80
18, 157816, Note_off_c, 6, 69, 64
18, 157886, Note_on_c, 6, 81, 89
18, 158032, Note_off_c, 6, 81, 64
18, 158136, Note_on_c, 6, 69, 68
18, 158208, Note_off_c, 6, 69, 64
18, 158248, Note_on_c, 6, 72, 80
18, 158309, Note_off_c, 6, 72, 64
18, 158358, Note_on_c, 6, 72, 78
18, 158471, Note_on_c, 6, 71, 56
18, 158486, Note_off_c, 6, 72, 64
18, 158705, Note_off_c, 6, 71, 64
18, 158849, Note_on_c, 6, 79, 87
18, 159009, Note_off_c, 6, 79, 64
18, 159078, Note_on_c, 6, 71, 70
18, 159143, Note_off_c, 6, 71, 64
18, 159200, Note_on_c, 6, 74, 80
18, 159252, Note_off_c, 6, 74, 64
18, 159319, Note_on_c, 6, 74, 98
18, 159438, Note_on_c, 6, 73, 62
18, 159450, Note_off_c, 6, 74, 64
18, 159530, Note_off_c, 6, 73, 64
18, 159569, Note_on_c, 6, 76, 63
18, 159654, Note_off_c, 6, 76, 64
18, 159679, Note_on_c, 6, 73, 57
18, 159758, Note_off_c, 6, 73, 64
18, 159807, Note_on_c, 6, 69, 82
18, 159960, Note_off_c, 6, 69, 64
18, 160062, Note_on_c, 6, 79, 80
18, 160152, Note_off_c, 6, 79, 64
18, 160185, Note_on_c, 6, 76, 78
18, 160257, Note_off_c, 6, 76, 64
18, 160307, Note_on_c, 6, 78, 87
18, 160386, Note_off_c, 6, 78, 64
18, 160419, Note_on_c, 6, 76, 89
18, 160494, Note_off_c, 6, 76, 64
18, 160532, Note_on_c, 6, 74, 70
18, 160610, Note_off_c, 6, 74, 64
18, 160655, Note_on_c, 6, 76, 85
18, 160719, Note_off_c, 6, 76, 64
18, 160779, Note_on_c, 6, 69, 87
18, 160862, Note_off_c, 6, 69, 64
18, 161018, Note_on_c, 6, 73, 78
18, 161097, Note_off_c, 6, 73, 64
18, 161258, Note_on_c, 6, 74, 82
18, 161517, Note_off_c, 6, 74, 64
18, 161517, End_track
19, 0, Start_track
19, 0, Title_t, "Violin"
19, 0, Program_c, 7, 40
19, 0, Control_c, 7, 7, 100
19, 19658, Note_on_c, 7, 64, 82
19, 19800, Note_off_c, 7, 64, 64
19, 19911, Note_on_c, 7, 76, 91
19, 20000, Note_off_c, 7, 76, 64
19, 20147, Note_on_c, 7, 76, 95
19, 20338, Note_off_c, 7, 76, 64
19, 20390, Note_on_c, 7, 66, 76
19, 20480, Note_off_c, 7, 66, 64
19, 20495, Note_on_c, 7, 64, 85
19, 20588, Note_off_c, 7, 64, 64
19, 20620, Note_on_c, 7, 66, 74
19, 20700, Note_off_c, 7, 66, 64
19, 20871, Note_on_c, 7, 78, 82
19, 20943, Note_off_c, 7, 78, 64
19, 21110, Note_on_c, 7, 78, 98
19, 21310, Note_off_c, 7, 78, 64
19, 21359, Note_on_c, 7, 67, 66
19, 21461, Note_on_c, 7, 66, 70
19, 21472, Note_off_c, 7, 67, 64
19, 21530, Note_off_c, 7, 66, 64
19, 21598, Note_on_c, 7, 67, 87
19, 21710, Note_off_c, 7, 67, 64
19, 21843, Note_on_c, 7, 66, 76
19, 21935, Note_off_c, 7, 66, 64
19, 22091, Note_on_c, 7, 71, 82
19, 22208, Note_off_c, 7, 71, 64
19, 22318, Note_on_c, 7, 70, 70
19, 22430, Note_off_c, 7, 70, 64
19, 22545, Note_on_c, 7, 71, 80
19, 22637, Note_off_c, 7, 71, 64
19, 22788, Note_on_c, 7, 71, 87
19, 22870, Note_off_c, 7, 71, 64
19, 23020, Note_on_c, 7, 71, 89
19, 23205, Note_off_c, 7, 71, 64
19, 23263, Note_on_c, 7, 70, 68
19, 23362, Note_off_c, 7, 70, 64
19, 23522, Note_on_c, 7, 62, 76
19, 23614, Note_off_c, 7, 62, 64
19, 23753, Note_on_c, 7, 74, 91
19, 23823, Note_off_c, 7, 74, 64
19, 23992, Note_on_c, 7, 74, 91
19, 24185, Note_off_c, 7, 74, 64
19, 24230, Note_on_c, 7, 73, 63
19, 24318, Note_off_c, 7, 73, 64
19, 24325, Note_on_c, 7, 71, 82
19, 24417, Note_off_c, 7, 71, 64
19, 24467, Note_on_c, 7, 73, 82
19, 24556, Note_off_c, 7, 73, 64
19, 24710, Note_on_c, 7, 70, 74
19, 24813, Note_off_c, 7, 70, 64
19, 24948, Note_on_c, 7, 71, 82
19, 25061, Note_off_c, 7, 71, 64
19, 25184, Note_on_c, 7, 62, 78
19, 25272, Note_off_c, 7, 62, 64
19, 25423, Note_on_c, 7, 64, 82
19, 25603, Note_off_c, 7, 64, 64
19, 25664, Note_on_c, 7, 66, 82
19, 25733, Note_off_c, 7, 66, 64
19, 25767, Note_on_c, 7, 67, 87
19, 25862, Note_off_c, 7, 67, 64
19, 25896, Note_on_c, 7, 66, 100
19, 26000, Note_off_c, 7, 66, 64
19, 26134, Note_on_c, 7, 71, 87
19, 26219, Note_off_c, 7, 71, 64
19, 26381, Note_on_c, 7, 71, 85
19, 26508, Note_off_c, 7, 71, 64
19, 26618, Note_on_c, 7, 70, 80
19, 26706, Note_off_c, 7, 70, 64
19, 26868, Note_on_c, 7, 66, 82
19, 27150, Note_off_c, 7, 66, 64
19, 27347, Note_on_c, 7, 67, 89
19, 27533, Note_off_c, 7, 67, 64
19, 27592, Note_on_c, 7, 74, 85
19, 27653, Note_off_c, 7, 74, 64
19, 27695, Note_on_c, 7, 71, 85
19, 27763, Note_off_c, 7, 71, 64
19, 27837, Note_on_c, 7, 72, 98
19, 28107, Note_off_c, 7, 72, 64
19, 28305, Note_on_c, 7, 66, 78
19, 28452, Note_off_c, 7, 66, 64
19, 28541, Note_on_c, 7, 78, 87
19, 28602, Note_off_c, 7, 78, 64
19, 28650, Note_on_c, 7, 75, 85
19, 28717, Note_off_c, 7, 75, 64
19, 28778, Note_on_c, 7, 76, 80
19, 29064, Note_off_c, 7, 76, 64
19, 29266, Note_on_c, 7, 64, 76
19, 29367, Note_off_c, 7, 64, 64
19, 29511, Note_on_c, 7, 76, 85
19, 29609, Note_off_c, 7, 76, 64
19, 29756, Note_on_c, 7, 74, 91
19, 29876, Note_off_c, 7, 74, 64
19, 29982, Note_on_c, 7, 66, 82
19, 30085, Note_off_c, 7, 66, 64
19, 30225, Note_on_c, 7, 71, 95
19, 30346, Note_off_c, 7, 71, 64
19, 30467, Note_on_c, 7, 71, 95
19, 30564, Note_off_c, 7, 71, 64
19, 30701, Note_on_c, 7, 69, 91
19, 30985, Note_off_c, 7, 69, 64
19, 31174, Note_on_c, 7, 69, 74
19, 31257, Note_off_c, 7, 69, 64
19, 31417, Note_on_c, 7, 81, 87
19, 31485, Note_off_c, 7, 81, 64
19, 31660, Note_on_c, 7, 79, 91
19, 31860, Note_off_c, 7, 79, 64
19, 31905, Note_on_c, 7, 67, 80
19, 32000, Note_off_c, 7, 67, 64
19, 32004, Note_on_c, 7, 66, 62
19, 32081, Note_off_c, 7, 66, 64
19, 32135, Note_on_c, 7, 67, 82
19, 32243, Note_off_c, 7, 67, 64
19, 32391, Note_on_c, 7, 64, 80
19, 32479, Note_off_c, 7, 64, 64
19, 32621, Note_on_c, 7, 69, 82
19, 32925, Note_off_c, 7, 69, 64
19, 33104, Note_on_c, 7, 76, 100
19, 33204, Note_off_c, 7, 76, 64
19, 33343, Note_on_c, 7, 73, 80
19, 33440, Note_off_c, 7, 73, 64
19, 33590, Note_on_c, 7, 74, 91
19, 33695, Note_off_c, 7, 74, 64
19, 33824, Note_on_c, 7, 71, 82
19, 33919, Note_off_c, 7, 71, 64
19, 34058, Note_on_c, 7, 69, 87
19, 34148, Note_off_c, 7, 69, 64
19, 34304, Note_on_c, 7, 69, 82
19, 34385, Note_off_c, 7, 69, 64
19, 34553, Note_on_c, 7, 69, 95
19, 34837, Note_off_c, 7, 69, 64
19, 35026, Note_on_c, 7, 64, 80
19, 35127, Note_off_c, 7, 64, 64
19, 35269, Note_on_c, 7, 76, 85
19, 35355, Note_off_c, 7, 76, 64
19, 35508, Note_on_c, 7, 76, 87
19, 35699, Note_off_c, 7, 76, 64
19, 35751, Note_on_c, 7, 66, 70
19, 35840, Note_off_c, 7, 66, 64
19, 35850, Note_on_c, 7, 64, 72
19, 35949, Note_off_c, 7, 64, 64
19, 35993, Note_on_c, 7, 66, 80
19, 36072, Note_off_c, 7, 66, 64
19, 36227, Note_on_c, 7, 78, 78
19, 36308, Note_off_c, 7, 78, 64
19, 36466, Note_on_c, 7, 78, 93
19, 36657, Note_off_c, 7, 78, 64
19, 36714, Note_on_c, 7, 67, 61
19, 36803, Note_on_c, 7, 66, 68
19, 36822, Note_off_c, 7, 67, 64
19, 36871, Note_off_c, 7, 66, 64
19, 36941, Note_on_c, 7, 67, 82
19, 37047, Note_off_c, 7, 67, 64
19, 37184, Note_on_c, 7, 66, 76
19, 37285, Note_off_c, 7, 66, 64
19, 37431, Note_on_c, 7, 71, 82
19, 37544, Note_off_c, 7, 71, 64
19, 37662, Note_on_c, 7, 70, 70
19, 37775, Note_off_c, 7, 70, 64
19, 37897, Note_on_c, 7, 71, 82
19, 37980, Note_off_c, 7, 71, 64
19, 38138, Note_on_c, 7, 71, 87
19, 38206, Note_off_c, 7, 71, 64
19, 38372, Note_on_c, 7, 71, 102
19, 38576, Note_off_c, 7, 71, 64
19, 38581, Note_on_c, 7, 70, 68
19, 38693, Note_off_c, 7, 70, 64
19, 38840, Note_on_c, 7, 62, 78
19, 38939, Note_off_c, 7, 62, 64
19, 39101, Note_on_c, 7, 74, 89
19, 39172, Note_off_c, 7, 74, 64
19, 39335, Note_on_c, 7, 74, 95
19, 39542, Note_off_c, 7, 74, 64
19, 39585, Note_on_c, 7, 73, 62
19, 39670, Note_off_c, 7, 73, 64
19, 39674, Note_on_c, 7, 71, 87
19, 39747, Note_off_c, 7, 71, 64
19, 39816, Note_on_c, 7, 73, 100
19, 39967, Note_off_c, 7, 73, 64
19, 40048, Note_on_c, 7, 71, 80
19, 40115, Note_off_c, 7, 71, 64
19, 40154, Note_on_c, 7, 70, 82
19, 40223, Note_off_c, 7, 70, 64
19, 40287, Note_on_c, 7, 71, 87
19, 40415, Note_off_c, 7, 71, 64
19, 40527, Note_on_c, 7, 62, 74
19, 40615, Note_off_c, 7, 62, 64
19, 40766, Note_on_c, 7, 64, 91
19, 40944, Note_off_c, 7, 64, 64
19, 41016, Note_on_c, 7, 66, 85
19, 41081, Note_off_c, 7, 66, 64
19, 41117, Note_on_c, 7, 67, 87
19, 41202, Note_off_c, 7, 67, 64
19, 41245, Note_on_c, 7, 66, 89
19, 41344, Note_off_c, 7, 66, 64
19, 41479, Note_on_c, 7, 71, 82
19, 41571, Note_off_c, 7, 71, 64
19, 41724, Note_on_c, 7, 71, 93
19, 41819, Note_off_c, 7, 71, 64
19, 41967, Note_on_c, 7, 70, 98
19, 42052, Note_off_c, 7, 70, 64
19, 42204, Note_on_c, 7, 66, 82
19, 42503, Note_off_c, 7, 66, 64
19, 42694, Note_on_c, 7, 67, 82
19, 42874, Note_off_c, 7, 67, 64
19, 42948, Note_on_c, 7, 74, 91
19, 43013, Note_off_c, 7, 74, 64
19, 43058, Note_on_c, 7, 71, 85
19, 43117, Note_off_c, 7, 71, 64
19, 43196, Note_on_c, 7, 71, 102
19, 43305, Note_on_c, 7, 72, 80
19, 43319, Note_off_c, 7, 71, 64
19, 43477, Note_off_c, 7, 72, 64
19, 43679, Note_on_c, 7, 66, 98
19, 43839, Note_off_c, 7, 66, 64
19, 43904, Note_on_c, 7, 78, 72
19, 43967, Note_off_c, 7, 78, 64
19, 44019, Note_on_c, 7, 75, 82
19, 44076, Note_off_c, 7, 75, 64
19, 44157, Note_on_c, 7, 75, 107
19, 44267, Note_on_c, 7, 76, 82
19, 44278, Note_off_c, 7, 75, 64
19, 44496, Note_off_c, 7, 76, 64
19, 44634, Note_on_c, 7, 64, 82
19, 44751, Note_off_c, 7, 64, 64
19, 44877, Note_on_c, 7, 76, 91
19, 44953, Note_off_c, 7, 76, 64
19, 45106, Note_on_c, 7, 74, 95
19, 45203, Note_off_c, 7, 74, 64
19, 45345, Note_on_c, 7, 66, 78
19, 45448, Note_off_c, 7, 66, 64
19, 45587, Note_on_c, 7, 71, 82
19, 45673, Note_off_c, 7, 71, 64
19, 45819, Note_on_c, 7, 71, 85
19, 45898, Note_off_c, 7, 71, 64
19, 46065, Note_on_c, 7, 69, 89
19, 46379, Note_off_c, 7, 69, 64
19, 46532, Note_on_c, 7, 69, 85
19, 46622, Note_off_c, 7, 69, 64
19, 46771, Note_on_c, 7, 81, 89
19, 46847, Note_off_c, 7, 81, 64
19, 47010, Note_on_c, 7, 79, 89
19, 47208, Note_off_c, 7, 79, 64
19, 47248, Note_on_c, 7, 67, 72
19, 47342, Note_on_c, 7, 66, 82
19, 47354, Note_off_c, 7, 67, 64
19, 47410, Note_off_c, 7, 66, 64
19, 47475, Note_on_c, 7, 67, 74
19, 47592, Note_off_c, 7, 67, 64
19, 47716, Note_on_c, 7, 64, 78
19, 47801, Note_off_c, 7, 64, 64
19, 47970, Note_on_c, 7, 69, 82
19, 48326, Note_off_c, 7, 69, 64
19, 48459, Note_on_c, 7, 76, 85
19, 48548, Note_off_c, 7, 76, 64
19, 48701, Note_on_c, 7, 73, 70
19, 48794, Note_off_c, 7, 73, 64
19, 48942, Note_on_c, 7, 74, 82
19, 49044, Note_off_c, 7, 74, 64
19, 49179, Note_on_c, 7, 71, 80
19, 49273, Note_off_c, 7, 71, 64
19, 49406, Note_on_c, 7, 69, 87
19, 49500, Note_off_c, 7, 69, 64
19, 49662, Note_on_c, 7, 69, 85
19, 49748, Note_off_c, 7, 69, 64
19, 49908, Note_on_c, 7, 69, 85
19, 50191, Note_off_c, 7, 69, 64
19, 81119, Note_on_c, 7, 69, 102
19, 81222, Note_on_c, 7, 68, 82
19, 81245, Note_off_c, 7, 69, 64
19, 81353, Note_on_c, 7, 69, 80
19, 81354, Note_off_c, 7, 68, 64
19, 81432, Note_off_c, 7, 69, 64
19, 81605, Note_on_c, 7, 61, 85
19, 81702, Note_on_c, 7, 59, 70
19, 81735, Note_off_c, 7, 61, 64
19, 81819, Note_off_c, 7, 59, 64
19, 81830, Note_on_c, 7, 61, 66
19, 81947, Note_off_c, 7, 61, 64
19, 82068, Note_on_c, 7, 64, 85
19, 82169, Note_on_c, 7, 62, 78
19, 82188, Note_off_c, 7, 64, 64
19, 82278, Note_off_c, 7, 62, 64
19, 82293, Note_on_c, 7, 64, 78
19, 82395, Note_off_c, 7, 64, 64
19, 82518, Note_on_c, 7, 57, 80
19, 82824, Note_off_c, 7, 57, 64
19, 83031, Note_on_c, 7, 76, 80
19, 83106, Note_off_c, 7, 76, 64
19, 83267, Note_on_c, 7, 74, 78
19, 83652, Note_off_c, 7, 74, 64
19, 83762, Note_on_c, 7, 73, 66
19, 84163, Note_off_c, 7, 73, 64
19, 84222, Note_on_c, 7, 71, 82
19, 84416, Note_off_c, 7, 71, 64
19, 84464, Note_on_c, 7, 73, 68
19, 84516, Note_on_c, 7, 71, 74
19, 84528, Note_off_c, 7, 73, 64
19, 84566, Note_on_c, 7, 73, 61
19, 84588, Note_off_c, 7, 71, 64
19, 84622, Note_on_c, 7, 71, 59
19, 84645, Note_off_c, 7, 73, 64
19, 84690, Note_on_c, 7, 70, 59
19, 84712, Note_off_c, 7, 71, 64
19, 84804, Note_off_c, 7, 70, 64
19, 84946, Note_on_c, 7, 71, 80
19, 85810, Note_off_c, 7, 71, 64
19, 85871, Note_on_c, 7, 73, 58
19, 86267, Note_off_c, 7, 73, 64
19, 86354, Note_on_c, 7, 75, 68
19, 86728, Note_off_c, 7, 75, 64
19, 86849, Note_on_c, 7, 76, 82
19, 86935, Note_off_c, 7, 76, 64
19, 87083, Note_on_c, 7, 70, 74
19, 87200, Note_off_c, 7, 70, 64
19, 87331, Note_on_c, 7, 71, 78
19, 87432, Note_off_c, 7, 71, 64
19, 87563, Note_on_c, 7, 62, 78
19, 87677, Note_off_c, 7, 62, 64
19, 87815, Note_on_c, 7, 64, 78
19, 87903, Note_off_c, 7, 64, 64
19, 88060, Note_on_c, 7, 61, 70
19, 88154, Note_off_c, 7, 61, 64
19, 88308, Note_on_c, 7, 62, 70
19, 88613, Note_off_c, 7, 62, 64
19, 88785, Note_on_c, 7, 62, 60
19, 90548, Note_off_c, 7, 62, 64
19, 90672, Note_on_c, 7, 69, 78
19, 90774, Note_off_c, 7, 69, 64
19, 90918, Note_on_c, 7, 69, 82
19, 91010, Note_off_c, 7, 69, 64
19, 91170, Note_on_c, 7, 69, 85
19, 91390, Note_off_c, 7, 69, 64
19, 91422, Note_on_c, 7, 67, 76
19, 91511, Note_on_c, 7, 66, 64
19, 91512, Note_off_c, 7, 67, 64
19, 91610, Note_off_c, 7, 66, 64
19, 91633, Note_on_c, 7, 64, 82
19, 91745, Note_off_c, 7, 64, 64
19, 91862, Note_on_c, 7, 69, 87
19, 91941, Note_off_c, 7, 69, 64
19, 92121, Note_on_c, 7, 69, 98
19, 92216, Note_on_c, 7, 67, 85
19, 92252, Note_off_c, 7, 69, 64
19, 92342, Note_on_c, 7, 66, 64
19, 92367, Note_off_c, 7, 67, 64
19, 92450, Note_on_c, 7, 64, 68
19, 92477, Note_off_c, 7, 66, 64
19, 92567, Note_off_c, 7, 64, 64
19, 92580, Note_on_c, 7, 62, 66
19, 92711, Note_off_c, 7, 62, 64
19, 92846, Note_on_c, 7, 62, 74
19, 92958, Note_off_c, 7, 62, 64
19, 93098, Note_on_c, 7, 62, 95
19, 93199, Note_on_c, 7, 64, 78
19, 93222, Note_off_c, 7, 62, 64
19, 93312, Note_off_c, 7, 64, 64
19, 93312, Note_on_c, 7, 66, 59
19, 93422, Note_off_c, 7, 66, 64
19, 93426, Note_on_c, 7, 62, 64
19, 93530, Note_off_c, 7, 62, 64
19, 93577, Note_on_c, 7, 67, 85
19, 93680, Note_off_c, 7, 67, 64
19, 93824, Note_on_c, 7, 67, 78
19, 93912, Note_off_c, 7, 67, 64
19, 94062, Note_on_c, 7, 67, 85
19, 94455, Note_off_c, 7, 67, 64
19, 94536, Note_on_c, 7, 66, 76
19, 94670, Note_off_c, 7, 66, 64
19, 94769, Note_on_c, 7, 69, 87
19, 94884, Note_off_c, 7, 69, 64
19, 95006, Note_on_c, 7, 66, 68
19, 95134, Note_off_c, 7, 66, 64
19, 95256, Note_on_c, 7, 62, 82
19, 95390, Note_off_c, 7, 62, 64
19, 95497, Note_on_c, 7, 64, 82
19, 95546, Note_on_c, 7, 62, 63
19, 95555, Note_off_c, 7, 64, 64
19, 95591, Note_on_c, 7, 64, 66
19, 95602, Note_off_c, 7, 62, 64
19, 95642, Note_on_c, 7, 62, 80
19, 95654, Note_off_c, 7, 64, 64
19, 95728, Note_off_c, 7, 62, 64
19, 95728, Note_on_c, 7, 61, 82
19, 95807, Note_off_c, 7, 61, 64
19, 95852, Note_on_c, 7, 62, 80
19, 95921, Note_off_c, 7, 62, 64
19, 95971, Note_on_c, 7, 57, 87
19, 96273, Note_off_c, 7, 57, 64
19, 96479, Note_on_c, 7, 69, 100
19, 96572, Note_on_c, 7, 68, 95
19, 96592, Note_off_c, 7, 69, 64
19, 96668, Note_off_c, 7, 68, 64
19, 96702, Note_on_c, 7, 69, 95
19, 96779, Note_off_c, 7, 69, 64
19, 96943, Note_on_c, 7, 61, 91
19, 97037, Note_on_c, 7, 59, 80
19, 97067, Note_off_c, 7, 61, 64
19, 97148, Note_off_c, 7, 59, 64
19, 97182, Note_on_c, 7, 61, 82
19, 97283, Note_off_c, 7, 61, 64
19, 97427, Note_on_c, 7, 64, 98
19, 97517, Note_on_c, 7, 62, 85
19, 97528, Note_off_c, 7, 64, 64
19, 97625, Note_off_c, 7, 62, 64
19, 97640, Note_on_c, 7, 64, 78
19, 97731, Note_off_c, 7, 64, 64
19, 97875, Note_on_c, 7, 57, 82
19, 98189, Note_off_c, 7, 57, 64
19, 98390, Note_on_c, 7, 76, 80
19, 98473, Note_off_c, 7, 76, 64
19, 98635, Note_on_c, 7, 74, 60
19, 98995, Note_off_c, 7, 74, 64
19, 99123, Note_on_c, 7, 73, 56
19, 99495, Note_off_c, 7, 73, 64
19, 99593, Note_on_c, 7, 71, 68
19, 99778, Note_off_c, 7, 71, 64
19, 99821, Note_on_c, 7, 73, 58
19, 99870, Note_on_c, 7, 71, 82
19, 99877, Note_off_c, 7, 73, 64
19, 99918, Note_on_c, 7, 73, 64
19, 99935, Note_off_c, 7, 71, 64
19, 99980, Note_on_c, 7, 71, 64
19, 99999, Note_off_c, 7, 73, 64
19, 100057, Note_on_c, 7, 70, 63
19, 100068, Note_off_c, 7, 71, 64
19, 100154, Note_off_c, 7, 70, 64
19, 100304, Note_on_c, 7, 71, 68
19, 101214, Note_off_c, 7, 71, 64
19, 101245, Note_on_c, 7, 73, 68
19, 101628, Note_off_c, 7, 73, 64
19, 101717, Note_on_c, 7, 75, 70
19, 102101, Note_off_c, 7, 75, 64
19, 102219, Note_on_c, 7, 76, 82
19, 102309, Note_off_c, 7, 76, 64
19, 102449, Note_on_c, 7, 70, 70
19, 102568, Note_off_c, 7, 70, 64
19, 102687, Note_on_c, 7, 71, 72
19, 102782, Note_off_c, 7, 71, 64
19, 102923, Note_on_c, 7, 62, 76
19, 103020, Note_off_c, 7, 62, 64
19, 103180, Note_on_c, 7, 64, 80
19, 103260, Note_off_c, 7, 64, 64
19, 103407, Note_on_c, 7, 61, 76
19, 103493, Note_off_c, 7, 61, 64
19, 103662, Note_on_c, 7, 62, 63
19, 103944, Note_off_c, 7, 62, 64
19, 104150, Note_on_c, 7, 62, 68
19, 105965, Note_off_c, 7, 62, 64
19, 106055, Note_on_c, 7, 69, 82
19, 106143, Note_off_c, 7, 69, 64
19, 106304, Note_on_c, 7, 69, 82
19, 106391, Note_off_c, 7, 69, 64
19, 106537, Note_on_c, 7, 69, 80
19, 106749, Note_off_c, 7, 69, 64
19, 106776, Note_on_c, 7, 67, 61
19, 106861, Note_off_c, 7, 67, 64
19, 106868, Note_on_c, 7, 66, 66
19, 106980, Note_off_c, 7, 66, 64
19, 107005, Note_on_c, 7, 64, 64
19, 107106, Note_off_c, 7, 64, 64
19, 107250, Note_on_c, 7, 69, 80
19, 107363, Note_off_c, 7, 69, 64
19, 107505, Note_on_c, 7, 69, 95
19, 107606, Note_on_c, 7, 67, 80
19, 107642, Note_off_c, 7, 69, 64
19, 107712, Note_on_c, 7, 66, 60
19, 107734, Note_off_c, 7, 67, 64
19, 107824, Note_on_c, 7, 64, 61
19, 107837, Note_off_c, 7, 66, 64
19, 107936, Note_off_c, 7, 64, 64
19, 107955, Note_on_c, 7, 62, 68
19, 108089, Note_off_c, 7, 62, 64
19, 108229, Note_on_c, 7, 62, 80
19, 108342, Note_off_c, 7, 62, 64
19, 108468, Note_on_c, 7, 62, 91
19, 108569, Note_on_c, 7, 64, 85
19, 108587, Note_off_c, 7, 62, 64
19, 108661, Note_off_c, 7, 64, 64
19, 108688, Note_on_c, 7, 66, 80
19, 108798, Note_on_c, 7, 62, 68
19, 108800, Note_off_c, 7, 66, 64
19, 108922, Note_off_c, 7, 62, 64
19, 108940, Note_on_c, 7, 67, 85
19, 109057, Note_off_c, 7, 67, 64
19, 109196, Note_on_c, 7, 67, 76
19, 109286, Note_off_c, 7, 67, 64
19, 109438, Note_on_c, 7, 67, 78
19, 109799, Note_off_c, 7, 67, 64
19, 109887, Note_on_c, 7, 66, 70
19, 110007, Note_off_c, 7, 66, 64
19, 110132, Note_on_c, 7, 69, 82
19, 110243, Note_off_c, 7, 69, 64
19, 110376, Note_on_c, 7, 66, 64
19, 110504, Note_off_c, 7, 66, 64
19, 110628, Note_on_c, 7, 62, 74
19, 110758, Note_off_c, 7, 62, 64
19, 110870, Note_on_c, 7, 64, 78
19, 110918, Note_on_c, 7, 62, 80
19, 110927, Note_off_c, 7, 64, 64
19, 110963, Note_on_c, 7, 64, 68
19, 110979, Note_off_c, 7, 62, 64
19, 111030, Note_on_c, 7, 62, 78
19, 111039, Note_off_c, 7, 64, 64
19, 111096, Note_on_c, 7, 61, 68
19, 111111, Note_off_c, 7, 62, 64
19, 111177, Note_off_c, 7, 61, 64
19, 111224, Note_on_c, 7, 62, 85
19, 111284, Note_off_c, 7, 62, 64
19, 111350, Note_on_c, 7, 57, 85
19, 111645, Note_off_c, 7, 57, 64
19, 131018, Note_on_c, 7, 64, 82
19, 131160, Note_off_c, 7, 64, 64
19, 131271, Note_on_c, 7, 76, 91
19, 131360, Note_off_c, 7, 76, 64
19, 131507, Note_on_c, 7, 76, 95
19, 131698, Note_off_c, 7, 76, 64
19, 131750, Note_on_c, 7, 66, 76
19, 131840, Note_off_c, 7, 66, 64
19, 131855, Note_on_c, 7, 64, 85
19, 131948, Note_off_c, 7, 64, 64
19, 131980, Note_on_c, 7, 66, 74
19, 132060, Note_off_c, 7, 66, 64
19, 132231, Note_on_c, 7, 78, 82
19, 132303, Note_off_c, 7, 78, 64
19, 132470, Note_on_c, 7, 78, 98
19, 132670, Note_off_c, 7, 78, 64
19, 132719, Note_on_c, 7, 67, 66
19, 132821, Note_on_c, 7, 66, 70
19, 132832, Note_off_c, 7, 67, 64
19, 132890, Note_off_c, 7, 66, 64
19, 132958, Note_on_c, 7, 67, 87
19, 133070, Note_off_c, 7, 67, 64
19, 133203, Note_on_c, 7, 66, 76
19, 133295, Note_off_c, 7, 66, 64
19, 133451, Note_on_c, 7, 71, 82
19, 133568, Note_off_c, 7, 71, 64
19, 133678, Note_on_c, 7, 70, 70
19, 133790, Note_off_c, 7, 70, 64
19, 133905, Note_on_c, 7, 71, 80
19, 133997, Note_off_c, 7, 71, 64
19, 134148, Note_on_c, 7, 71, 87
19, 134230, Note_off_c, 7, 71, 64
19, 134380, Note_on_c, 7, 71, 89
19, 134565, Note_off_c, 7, 71, 64
19, 134623, Note_on_c, 7, 70, 68
19, 134722, Note_off_c, 7, 70, 64
19, 134882, Note_on_c, 7, 62, 76
19, 134974, Note_off_c, 7, 62, 64
19, 135113, Note_on_c, 7, 74, 91
19, 135183, Note_off_c, 7, 74, 64
19, 135352, Note_on_c, 7, 74, 91
19, 135545, Note_off_c, 7, 74, 64
19, 135590, Note_on_c, 7, 73, 63
19, 135678, Note_off_c, 7, 73, 64
19, 135685, Note_on_c, 7, 71, 82
19, 135777, Note_off_c, 7, 71, 64
19, 135827, Note_on_c, 7, 73, 82
19, 135916, Note_off_c, 7, 73, 64
19, 136070, Note_on_c, 7, 70, 74
19, 136173, Note_off_c, 7, 70, 64
19, 136308, Note_on_c, 7, 71, 82
19, 136421, Note_off_c, 7, 71, 64
19, 136544, Note_on_c, 7, 62, 78
19, 136632, Note_off_c, 7, 62, 64
19, 136783, Note_on_c, 7, 64, 82
19, 136963, Note_off_c, 7, 64, 64
19, 137024, Note_on_c, 7, 66, 82
19, 137093, Note_off_c, 7, 66, 64
19, 137127, Note_on_c, 7, 67, 87
19, 137222, Note_off_c, 7, 67, 64
19, 137256, Note_on_c, 7, 66, 100
19, 137360, Note_off_c, 7, 66, 64
19, 137494, Note_on_c, 7, 71, 87
19, 137579, Note_off_c, 7, 71, 64
19, 137741, Note_on_c, 7, 71, 85
19, 137868, Note_off_c, 7, 71, 64
19, 137978, Note_on_c, 7, 70, 80
19, 138066, Note_off_c, 7, 70, 64
19, 138228, Note_on_c, 7, 66, 82
19, 138510, Note_off_c, 7, 66, 64
19, 138707, Note_on_c, 7, 67, 89
19, 138893, Note_off_c, 7, 67, 64
19, 138952, Note_on_c, 7, 74, 85
19, 139013, Note_off_c, 7, 74, 64
19, 139055, Note_on_c, 7, 71, 85
19, 139123, Note_off_c, 7, 71, 64
19, 139197, Note_on_c, 7, 72, 98
19, 139467, Note_off_c, 7, 72, 64
19, 139665, Note_on_c, 7, 66, 78
19, 139812, Note_off_c, 7, 66, 64
19, 139901, Note_on_c, 7, 78, 87
19, 139962, Note_off_c, 7, 78, 64
19, 140010, Note_on_c, 7, 75, 85
19, 140077, Note_off_c, 7, 75, 64
19, 140138, Note_on_c, 7, 76, 80
19, 140424, Note_off_c, 7, 76, 64
19, 140626, Note_on_c, 7, 64, 76
19, 140727, Note_off_c, 7, 64, 64
19, 140871, Note_on_c, 7, 76, 85
19, 140969, Note_off_c, 7, 76, 64
19, 141116, Note_on_c, 7, 74, 91
19, 141236, Note_off_c, 7, 74, 64
19, 141342, Note_on_c, 7, 66, 82
19, 141445, Note_off_c, 7, 66, 64
19, 141585, Note_on_c, 7, 71, 95
19, 141706, Note_off_c, 7, 71, 64
19, 141827, Note_on_c, 7, 71, 95
19, 141924, Note_off_c, 7, 71, 64
19, 142061, Note_on_c, 7, 69, 91
19, 142345, Note_off_c, 7, 69, 64
19, 142534, Note_on_c, 7, 69, 74
19, 142617, Note_off_c, 7, 69, 64
19, 142777, Note_on_c, 7, 81, 87
19, 142845, Note_off_c, 7, 81, 64
19, 143020, Note_on_c, 7, 79, 91
19, 143220, Note_off_c, 7, 79, 64
19, 143265, Note_on_c, 7, 67, 80
19, 143360, Note_off_c, 7, 67, 64
19, 143364, Note_on_c, 7, 66, 62
19, 143441, Note_off_c, 7, 66, 64
19, 143495, Note_on_c, 7, 67, 82
19, 143603, Note_off_c, 7, 67, 64
19, 143751, Note_on_c, 7, 64, 80
19, 143839, Note_off_c, 7, 64, 64
19, 143981, Note_on_c, 7, 69, 82
19, 144285, Note_off_c, 7, 69, 64
19, 144464, Note_on_c, 7, 76, 100
19, 144564, Note_off_c, 7, 76, 64
19, 144703, Note_on_c, 7, 73, 80
19, 144800, Note_off_c, 7, 73, 64
19, 144950, Note_on_c, 7, 74, 91
19, 145055, Note_off_c, 7, 74, 64
19, 145184, Note_on_c, 7, 71, 82
19, 145279, Note_off_c, 7, 71, 64
19, 145418, Note_on_c, 7, 69, 87
19, 145508, Note_off_c, 7, 69, 64
19, 145664, Note_on_c, 7, 69, 82
19, 145745, Note_off_c, 7, 69, 64
19, 145913, Note_on_c, 7, 69, 95
19, 146197, Note_off_c, 7, 69, 64
19, 146386, Note_on_c, 7, 64, 80
19, 146487, Note_off_c, 7, 64, 64
19, 146629, Note_on_c, 7, 76, 85
19, 146715, Note_off_c, 7, 76, 64
19, 146868, Note_on_c, 7, 76, 87
19, 147059, Note_off_c, 7, 76, 64
19, 147111, Note_on_c, 7, 66, 70
19, 147200, Note_off_c, 7, 66, 64
19, 147210, Note_on_c, 7, 64, 72
19, 147309, Note_off_c, 7, 64, 64
19, 147353, Note_on_c, 7, 66, 80
19, 147432, Note_off_c, 7, 66, 64
19, 147587, Note_on_c, 7, 78, 78
19, 147668, Note_off_c, 7, 78, 64
19, 147826, Note_on_c, 7, 78, 93
19, 148017, Note_off_c, 7, 78, 64
19, 148074, Note_on_c, 7, 67, 61
19, 148163, Note_on_c, 7, 66, 68
19, 148182, Note_off_c, 7, 67, 64
19, 148231, Note_off_c, 7, 66, 64
19, 148301, Note_on_c, 7, 67, 82
19, 148407, Note_off_c, 7, 67, 64
19, 148544, Note_on_c, 7, 66, 76
19, 148645, Note_off_c, 7, 66, 64
19, 148791, Note_on_c, 7, 71, 82
19, 148904, Note_off_c, 7, 71, 64
19, 149022, Note_on_c, 7, 70, 70
19, 149135, Note_off_c, 7, 70, 64
19, 149257, Note_on_c, 7, 71, 82
19, 149340, Note_off_c, 7, 71, 64
19, 149498, Note_on_c, 7, 71, 87
19, 149566, Note_off_c, 7, 71, 64
19, 149732, Note_on_c, 7, 71, 102
19, 149936, Note_off_c, 7, 71, 64
19, 149941, Note_on_c, 7, 70, 68
19, 150053, Note_off_c, 7, 70, 64
19, 150200, Note_on_c, 7, 62, 78
19, 150299, Note_off_c, 7, 62, 64
19, 150461, Note_on_c, 7, 74, 89
19, 150532, Note_off_c, 7, 74, 64
19, 150695, Note_on_c, 7, 74, 95
19, 150902, Note_off_c, 7, 74, 64
19, 150945, Note_on_c, 7, 73, 62
19, 151030, Note_off_c, 7, 73, 64
19, 151034, Note_on_c, 7, 71, 87
19, 151107, Note_off_c, 7, 71, 64
19, 151176, Note_on_c, 7, 73, 100
19, 151327, Note_off_c, 7, 73, 64
19, 151408, Note_on_c, 7, 71, 80
19, 151475, Note_off_c, 7, 71, 64
19, 151514, Note_on_c, 7, 70, 82
19, 151583, Note_off_c, 7, 70, 64
19, 151647, Note_on_c, 7, 71, 87
19, 151775, Note_off_c, 7, 71, 64
19, 151887, Note_on_c, 7, 62, 74
19, 151975, Note_off_c, 7, 62, 64
19, 152126, Note_on_c, 7, 64, 91
19, 152304, Note_off_c, 7, 64, 64
19, 152376, Note_on_c, 7, 66, 85
19, 152441, Note_off_c, 7, 66, 64
19, 152477, Note_on_c, 7, 67, 87
19, 152562, Note_off_c, 7, 67, 64
19, 152605, Note_on_c, 7, 66, 89
19, 152704, Note_off_c, 7, 66, 64
19, 152839, Note_on_c, 7, 71, 82
19, 152931, Note_off_c, 7, 71, 64
19, 153084, Note_on_c, 7, 71, 93
19, 153179, Note_off_c, 7, 71, 64
19, 153327, Note_on_c, 7, 70, 98
19, 153412, Note_off_c, 7, 70, 64
19, 153564, Note_on_c, 7, 66, 82
19, 153863, Note_off_c, 7, 66, 64
19, 154054, Note_on_c, 7, 67, 82
19, 154234, Note_off_c, 7, 67, 64
19, 154308, Note_on_c, 7, 74, 91
19, 154373, Note_off_c, 7, 74, 64
19, 154418, Note_on_c, 7, 71, 85
19, 154477, Note_off_c, 7, 71, 64
19, 154556, Note_on_c, 7, 71, 102
19, 154665, Note_on_c, 7, 72, 80
19, 154679, Note_off_c, 7, 71, 64
19, 154837, Note_off_c, 7, 72, 64
19, 155039, Note_on_c, 7, 66, 98
19, 155199, Note_off_c, 7, 66, 64
19, 155264, Note_on_c, 7, 78, 72
19, 155327, Note_off_c, 7, 78, 64
19, 155379, Note_on_c, 7, 75, 82
19, 155436, Note_off_c, 7, 75, 64
19, 155517, Note_on_c, 7, 75, 107
19, 155627, Note_on_c, 7, 76, 82
19, 155638, Note_off_c, 7, 75, 64
19, 155856, Note_off_c, 7, 76, 64
19, 155994, Note_on_c, 7, 64, 82
19, 156111, Note_off_c, 7, 64, 64
19, 156237, Note_on_c, 7, 76, 91
19, 156313, Note_off_c, 7, 76, 64
19, 156466, Note_on_c, 7, 74, 95
19, 156563, Note_off_c, 7, 74, 64
19, 156705, Note_on_c, 7, 66, 78
19, 156808, Note_off_c, 7, 66, 64
19, 156947, Note_on_c, 7, 71, 82
19, 157033, Note_off_c, 7, 71, 64
19, 157179, Note_on_c, 7, 71, 85
19, 157258, Note_off_c, 7, 71, 64
19, 157425, Note_on_c, 7, 69, 89
19, 157739, Note_off_c, 7, 69, 64
19, 157892, Note_on_c, 7, 69, 85
19, 157982, Note_off_c, 7, 69, 64
19, 158131, Note_on_c, 7, 81, 89
19, 158207, Note_off_c, 7, 81, 64
19, 158370, Note_on_c, 7, 79, 89
19, 158568, Note_off_c, 7, 79, 64
19, 158608, Note_on_c, 7, 67, 72
19, 158702, Note_on_c, 7, 66, 82
19, 158714, Note_off_c, 7, 67, 64
19, 158770, Note_off_c, 7, 66, 64
19, 158835, Note_on_c, 7, 67, 74
19, 158952, Note_off_c, 7, 67, 64
19, 159076, Note_on_c, 7, 64, 78
19, 159161, Note_off_c, 7, 64, 64
19, 159330, Note_on_c, 7, 69, 82
19, 159686, Note_off_c, 7, 69, 64
19, 159819, Note_on_c, 7, 76, 85
19, 159908, Note_off_c, 7, 76, 64
19, 160061, Note_on_c, 7, 73, 70
19, 160154, Note_off_c, 7, 73, 64
19, 160302, Note_on_c, 7, 74, 82
19, 160404, Note_off_c, 7, 74, 64
19, 160539, Note_on_c, 7, 71, 80
19, 160633, Note_off_c, 7, 71, 64
19, 160766, Note_on_c, 7, 69, 87
19, 160860, Note_off_c, 7, 69, 64
19, 161022, Note_on_c, 7, 69, 85
19, 161108, Note_off_c, 7, 69, 64
19, 161268, Note_on_c, 7, 69, 85
19, 161551, Note_off_c, 7, 69, 64
19, 161551, End_track
20, 0, Start_track
20, 0, Title_t, "Viola"
20, 0, Program_c, 8, 41
20, 0, Control_c, 8, 7, 100
20, 19672, Note_on_c, 8, 61, 87
20, 19795, Note_off_c, 8, 61, 64
20, 19913, Note_on_c, 8, 57, 82
20, 20000, Note_off_c, 8, 57, 64
20, 20149, Note_on_c, 8, 57, 82
20, 20390, Note_off_c, 8, 57, 64
20, 20392, Note_on_c, 8, 59, 82
20, 20489, Note_off_c, 8, 59, 64
20, 20500, Note_on_c, 8, 61, 82
20, 20583, Note_off_c, 8, 61, 64
20, 20640, Note_on_c, 8, 62, 82
20, 20745, Note_off_c, 8, 62, 64
20, 20888, Note_on_c, 8, 59, 82
20, 20966, Note_off_c, 8, 59, 64
20, 21137, Note_on_c, 8, 59, 85
20, 21470, Note_off_c, 8, 59, 64
20, 21614, Note_on_c, 8, 64, 85
20, 21706, Note_off_c, 8, 64, 64
20, 21852, Note_on_c, 8, 64, 80
20, 21949, Note_off_c, 8, 64, 64
20, 22077, Note_on_c, 8, 62, 76
20, 22192, Note_off_c, 8, 62, 64
20, 22314, Note_on_c, 8, 66, 82
20, 22437, Note_off_c, 8, 66, 64
20, 22552, Note_on_c, 8, 64, 80
20, 22664, Note_off_c, 8, 64, 64
20, 22781, Note_on_c, 8, 62, 78
20, 22865, Note_off_c, 8, 62, 64
20, 23030, Note_on_c, 8, 61, 80
20, 23371, Note_off_c, 8, 61, 64
20, 23517, Note_on_c, 8, 59, 89
20, 23624, Note_off_c, 8, 59, 64
20, 23760, Note_on_c, 8, 59, 82
20, 23848, Note_off_c, 8, 59, 64
20, 23997, Note_on_c, 8, 59, 91
20, 24179, Note_off_c, 8, 59, 64
20, 24244, Note_on_c, 8, 58, 80
20, 24305, Note_off_c, 8, 58, 64
20, 24348, Note_on_c, 8, 61, 87
20, 24433, Note_off_c, 8, 61, 64
20, 24474, Note_on_c, 8, 66, 93
20, 24575, Note_off_c, 8, 66, 64
20, 24726, Note_on_c, 8, 66, 80
20, 24820, Note_off_c, 8, 66, 64
20, 24969, Note_on_c, 8, 66, 80
20, 25090, Note_off_c, 8, 66, 64
20, 25212, Note_on_c, 8, 67, 82
20, 25319, Note_off_c, 8, 67, 64
20, 25452, Note_on_c, 8, 67, 80
20, 25564, Note_off_c, 8, 67, 64
20, 25686, Note_on_c, 8, 66, 76
20, 25761, Note_off_c, 8, 66, 64
20, 25783, Note_on_c, 8, 64, 82
20, 25878, Note_off_c, 8, 64, 64
20, 25907, Note_on_c, 8, 62, 80
20, 26017, Note_off_c, 8, 62, 64
20, 26148, Note_on_c, 8, 61, 85
20, 26256, Note_off_c, 8, 61, 64
20, 26389, Note_on_c, 8, 61, 80
20, 26496, Note_off_c, 8, 61, 64
20, 26640, Note_on_c, 8, 66, 87
20, 26723, Note_off_c, 8, 66, 64
20, 26888, Note_on_c, 8, 62, 78
20, 27187, Note_off_c, 8, 62, 64
20, 27353, Note_on_c, 8, 62, 82
20, 27450, Note_off_c, 8, 62, 64
20, 27590, Note_on_c, 8, 67, 85
20, 27677, Note_off_c, 8, 67, 64
20, 27830, Note_on_c, 8, 64, 89
20, 28035, Note_off_c, 8, 64, 64
20, 28087, Note_on_c, 8, 63, 82
20, 28175, Note_off_c, 8, 63, 64
20, 28182, Note_on_c, 8, 64, 87
20, 28275, Note_off_c, 8, 64, 64
20, 28312, Note_on_c, 8, 66, 89
20, 28406, Note_off_c, 8, 66, 64
20, 28544, Note_on_c, 8, 63, 76
20, 28638, Note_off_c, 8, 63, 64
20, 28789, Note_on_c, 8, 59, 87
20, 29124, Note_off_c, 8, 59, 64
20, 29273, Note_on_c, 8, 57, 87
20, 29381, Note_off_c, 8, 57, 64
20, 29520, Note_on_c, 8, 57, 76
20, 29637, Note_off_c, 8, 57, 64
20, 29753, Note_on_c, 8, 69, 85
20, 29860, Note_off_c, 8, 69, 64
20, 30000, Note_on_c, 8, 71, 87
20, 30112, Note_off_c, 8, 71, 64
20, 30234, Note_on_c, 8, 64, 87
20, 30342, Note_off_c, 8, 64, 64
20, 30485, Note_on_c, 8, 64, 82
20, 30566, Note_off_c, 8, 64, 64
20, 30717, Note_on_c, 8, 64, 93
20, 31057, Note_off_c, 8, 64, 64
20, 31187, Note_on_c, 8, 66, 82
20, 31271, Note_off_c, 8, 66, 64
20, 31421, Note_on_c, 8, 62, 82
20, 31507, Note_off_c, 8, 62, 64
20, 31669, Note_on_c, 8, 62, 80
20, 32004, Note_off_c, 8, 62, 64
20, 32166, Note_on_c, 8, 59, 89
20, 32267, Note_off_c, 8, 59, 64
20, 32409, Note_on_c, 8, 64, 87
20, 32492, Note_off_c, 8, 64, 64
20, 32648, Note_on_c, 8, 64, 87
20, 32951, Note_off_c, 8, 64, 64
20, 33115, Note_on_c, 8, 64, 82
20, 33209, Note_off_c, 8, 64, 64
20, 33348, Note_on_c, 8, 69, 82
20, 33460, Note_off_c, 8, 69, 64
20, 33582, Note_on_c, 8, 69, 82
20, 33669, Note_off_c, 8, 69, 64
20, 33694, Note_on_c, 8, 67, 72
20, 33780, Note_off_c, 8, 67, 64
20, 33816, Note_on_c, 8, 66, 91
20, 33905, Note_off_c, 8, 66, 64
20, 33919, Note_on_c, 8, 67, 78
20, 34011, Note_off_c, 8, 67, 64
20, 34054, Note_on_c, 8, 64, 91
20, 34169, Note_off_c, 8, 64, 64
20, 34301, Note_on_c, 8, 64, 85
20, 34405, Note_off_c, 8, 64, 64
20, 34556, Note_on_c, 8, 66, 89
20, 34857, Note_off_c, 8, 66, 64
20, 35031, Note_on_c, 8, 61, 82
20, 35136, Note_off_c, 8, 61, 64
20, 35267, Note_on_c, 8, 57, 78
20, 35373, Note_off_c, 8, 57, 64
20, 35514, Note_on_c, 8, 57, 76
20, 35737, Note_off_c, 8, 57, 64
20, 35760, Note_on_c, 8, 59, 80
20, 35849, Note_off_c, 8, 59, 64
20, 35865, Note_on_c, 8, 61, 80
20, 35946, Note_off_c, 8, 61, 64
20, 35993, Note_on_c, 8, 62, 82
20, 36099, Note_off_c, 8, 62, 64
20, 36239, Note_on_c, 8, 59, 82
20, 36324, Note_off_c, 8, 59, 64
20, 36480, Note_on_c, 8, 59, 76
20, 36779, Note_off_c, 8, 59, 64
20, 36961, Note_on_c, 8, 64, 78
20, 37066, Note_off_c, 8, 64, 64
20, 37197, Note_on_c, 8, 64, 80
20, 37307, Note_off_c, 8, 64, 64
20, 37425, Note_on_c, 8, 62, 80
20, 37541, Note_off_c, 8, 62, 64
20, 37660, Note_on_c, 8, 66, 82
20, 37771, Note_off_c, 8, 66, 64
20, 37901, Note_on_c, 8, 64, 82
20, 38003, Note_off_c, 8, 64, 64
20, 38138, Note_on_c, 8, 62, 76
20, 38230, Note_off_c, 8, 62, 64
20, 38383, Note_on_c, 8, 61, 89
20, 38732, Note_off_c, 8, 61, 64
20, 38851, Note_on_c, 8, 59, 66
20, 38946, Note_off_c, 8, 59, 64
20, 39108, Note_on_c, 8, 59, 80
20, 39211, Note_off_c, 8, 59, 64
20, 39361, Note_on_c, 8, 59, 91
20, 39564, Note_off_c, 8, 59, 64
20, 39594, Note_on_c, 8, 58, 82
20, 39659, Note_off_c, 8, 58, 64
20, 39697, Note_on_c, 8, 61, 89
20, 39792, Note_off_c, 8, 61, 64
20, 39827, Note_on_c, 8, 66, 91
20, 39927, Note_off_c, 8, 66, 64
20, 40066, Note_on_c, 8, 66, 80
20, 40161, Note_off_c, 8, 66, 64
20, 40305, Note_on_c, 8, 66, 76
20, 40417, Note_off_c, 8, 66, 64
20, 40554, Note_on_c, 8, 67, 82
20, 40653, Note_off_c, 8, 67, 64
20, 40788, Note_on_c, 8, 67, 85
20, 40982, Note_off_c, 8, 67, 64
20, 41029, Note_on_c, 8, 66, 80
20, 41110, Note_off_c, 8, 66, 64
20, 41132, Note_on_c, 8, 64, 78
20, 41219, Note_off_c, 8, 64, 64
20, 41254, Note_on_c, 8, 62, 82
20, 41375, Note_off_c, 8, 62, 64
20, 41502, Note_on_c, 8, 61, 82
20, 41610, Note_off_c, 8, 61, 64
20, 41736, Note_on_c, 8, 61, 85
20, 41837, Note_off_c, 8, 61, 64
20, 41983, Note_on_c, 8, 66, 85
20, 42071, Note_off_c, 8, 66, 64
20, 42224, Note_on_c, 8, 62, 87
20, 42559, Note_off_c, 8, 62, 64
20, 42705, Note_on_c, 8, 62, 85
20, 42793, Note_off_c, 8, 62, 64
20, 42946, Note_on_c, 8, 67, 87
20, 43034, Note_off_c, 8, 67, 64
20, 43189, Note_on_c, 8, 64, 89
20, 43412, Note_off_c, 8, 64, 64
20, 43448, Note_on_c, 8, 63, 82
20, 43535, Note_off_c, 8, 63, 64
20, 43544, Note_on_c, 8, 64, 87
20, 43643, Note_off_c, 8, 64, 64
20, 43673, Note_on_c, 8, 66, 85
20, 43769, Note_off_c, 8, 66, 64
20, 43911, Note_on_c, 8, 63, 72
20, 44017, Note_off_c, 8, 63, 64
20, 44148, Note_on_c, 8, 59, 78
20, 44494, Note_off_c, 8, 59, 64
20, 44633, Note_on_c, 8, 57, 82
20, 44749, Note_off_c, 8, 57, 64
20, 44870, Note_on_c, 8, 57, 82
20, 44991, Note_off_c, 8, 57, 64
20, 45104, Note_on_c, 8, 69, 82
20, 45219, Note_off_c, 8, 69, 64
20, 45345, Note_on_c, 8, 71, 89
20, 45455, Note_off_c, 8, 71, 64
20, 45581, Note_on_c, 8, 64, 85
20, 45689, Note_off_c, 8, 64, 64
20, 45830, Note_on_c, 8, 64, 85
20, 45914, Note_off_c, 8, 64, 64
20, 46073, Note_on_c, 8, 64, 93
20, 46429, Note_off_c, 8, 64, 64
20, 46548, Note_on_c, 8, 66, 87
20, 46638, Note_off_c, 8, 66, 64
20, 46771, Note_on_c, 8, 62, 87
20, 46856, Note_off_c, 8, 62, 64
20, 47033, Note_on_c, 8, 62, 82
20, 47396, Note_off_c, 8, 62, 64
20, 47504, Note_on_c, 8, 59, 82
20, 47590, Note_off_c, 8, 59, 64
20, 47741, Note_on_c, 8, 64, 85
20, 47810, Note_off_c, 8, 64, 64
20, 47975, Note_on_c, 8, 64, 91
20, 48314, Note_off_c, 8, 64, 64
20, 48467, Note_on_c, 8, 64, 80
20, 48566, Note_off_c, 8, 64, 64
20, 48708, Note_on_c, 8, 69, 87
20, 48825, Note_off_c, 8, 69, 64
20, 48949, Note_on_c, 8, 69, 91
20, 49039, Note_off_c, 8, 69, 64
20, 49066, Note_on_c, 8, 67, 91
20, 49154, Note_off_c, 8, 67, 64
20, 49187, Note_on_c, 8, 66, 95
20, 49273, Note_off_c, 8, 66, 64
20, 49295, Note_on_c, 8, 67, 82
20, 49374, Note_off_c, 8, 67, 64
20, 49424, Note_on_c, 8, 64, 100
20, 49534, Note_off_c, 8, 64, 64
20, 49669, Note_on_c, 8, 64, 95
20, 49761, Note_off_c, 8, 64, 64
20, 49910, Note_on_c, 8, 66, 95
20, 50220, Note_off_c, 8, 66, 64
20, 81131, Note_on_c, 8, 69, 102
20, 81227, Note_on_c, 8, 68, 74
20, 81251, Note_off_c, 8, 69, 64
20, 81337, Note_off_c, 8, 68, 64
20, 81362, Note_on_c, 8, 69, 85
20, 81458, Note_off_c, 8, 69, 64
20, 81605, Note_on_c, 8, 61, 80
20, 81708, Note_on_c, 8, 59, 76
20, 81722, Note_off_c, 8, 61, 64
20, 81807, Note_off_c, 8, 59, 64
20, 81837, Note_on_c, 8, 61, 76
20, 81942, Note_off_c, 8, 61, 64
20, 82084, Note_on_c, 8, 64, 80
20, 82176, Note_on_c, 8, 62, 68
20, 82197, Note_off_c, 8, 64, 64
20, 82275, Note_off_c, 8, 62, 64
20, 82304, Note_on_c, 8, 64, 78
20, 82397, Note_off_c, 8, 64, 64
20, 82534, Note_on_c, 8, 57, 72
20, 82817, Note_off_c, 8, 57, 64
20, 83043, Note_on_c, 8, 70, 62
20, 83142, Note_on_c, 8, 68, 55
20, 83166, Note_off_c, 8, 70, 64
20, 83258, Note_off_c, 8, 68, 64
20, 83268, Note_on_c, 8, 70, 59
20, 83357, Note_off_c, 8, 70, 64
20, 83517, Note_on_c, 8, 71, 82
20, 83623, Note_on_c, 8, 70, 68
20, 83652, Note_off_c, 8, 71, 64
20, 83753, Note_off_c, 8, 70, 64
20, 83756, Note_on_c, 8, 71, 74
20, 83837, Note_off_c, 8, 71, 64
20, 83990, Note_on_c, 8, 64, 74
20, 84091, Note_on_c, 8, 62, 64
20, 84120, Note_off_c, 8, 64, 64
20, 84200, Note_off_c, 8, 62, 64
20, 84219, Note_on_c, 8, 64, 80
20, 84320, Note_off_c, 8, 64, 64
20, 84458, Note_on_c, 8, 66, 66
20, 84559, Note_off_c, 8, 66, 64
20, 84699, Note_on_c, 8, 54, 78
20, 84793, Note_off_c, 8, 54, 64
20, 84951, Note_on_c, 8, 66, 78
20, 86723, Note_off_c, 8, 66, 64
20, 86843, Note_on_c, 8, 64, 80
20, 86940, Note_off_c, 8, 64, 64
20, 87093, Note_on_c, 8, 61, 68
20, 87209, Note_off_c, 8, 61, 64
20, 87335, Note_on_c, 8, 62, 80
20, 87437, Note_off_c, 8, 62, 64
20, 87569, Note_on_c, 8, 55, 82
20, 87687, Note_off_c, 8, 55, 64
20, 87819, Note_on_c, 8, 52, 80
20, 87921, Note_off_c, 8, 52, 64
20, 88065, Note_on_c, 8, 54, 76
20, 88152, Note_off_c, 8, 54, 64
20, 88314, Note_on_c, 8, 59, 76
20, 88614, Note_off_c, 8, 59, 64
20, 88782, Note_on_c, 8, 57, 64
20, 89588, Note_off_c, 8, 57, 64
20, 89734, Note_on_c, 8, 54, 64
20, 90573, Note_off_c, 8, 54, 64
20, 90681, Note_on_c, 8, 66, 80
20, 90796, Note_off_c, 8, 66, 64
20, 90913, Note_on_c, 8, 62, 66
20, 91020, Note_off_c, 8, 62, 64
20, 91163, Note_on_c, 8, 67, 72
20, 91300, Note_off_c, 8, 67, 64
20, 91399, Note_on_c, 8, 64, 64
20, 91534, Note_off_c, 8, 64, 64
20, 91642, Note_on_c, 8, 61, 74
20, 91748, Note_off_c, 8, 61, 64
20, 91876, Note_on_c, 8, 62, 80
20, 91971, Note_off_c, 8, 62, 64
20, 92106, Note_on_c, 8, 57, 78
20, 92335, Note_off_c, 8, 57, 64
20, 92353, Note_on_c, 8, 59, 68
20, 92454, Note_off_c, 8, 59, 64
20, 92461, Note_on_c, 8, 61, 80
20, 92553, Note_off_c, 8, 61, 64
20, 92592, Note_on_c, 8, 62, 85
20, 92700, Note_on_c, 8, 61, 68
20, 92708, Note_off_c, 8, 62, 64
20, 92796, Note_off_c, 8, 61, 64
20, 92825, Note_on_c, 8, 59, 66
20, 92934, Note_on_c, 8, 57, 68
20, 92935, Note_off_c, 8, 59, 64
20, 93014, Note_off_c, 8, 57, 64
20, 93077, Note_on_c, 8, 55, 82
20, 93219, Note_off_c, 8, 55, 64
20, 93339, Note_on_c, 8, 62, 80
20, 93449, Note_off_c, 8, 62, 64
20, 93577, Note_on_c, 8, 64, 82
20, 93683, Note_off_c, 8, 64, 64
20, 93816, Note_on_c, 8, 59, 74
20, 93932, Note_off_c, 8, 59, 64
20, 94063, Note_on_c, 8, 61, 82
20, 94176, Note_on_c, 8, 59, 80
20, 94196, Note_off_c, 8, 61, 64
20, 94275, Note_off_c, 8, 59, 64
20, 94284, Note_on_c, 8, 57, 63
20, 94374, Note_off_c, 8, 57, 64
20, 94387, Note_on_c, 8, 55, 66
20, 94473, Note_off_c, 8, 55, 64
20, 94518, Note_on_c, 8, 57, 85
20, 94648, Note_off_c, 8, 57, 64
20, 94760, Note_on_c, 8, 54, 80
20, 94873, Note_off_c, 8, 54, 64
20, 95004, Note_on_c, 8, 50, 76
20, 95114, Note_off_c, 8, 50, 64
20, 95247, Note_on_c, 8, 57, 78
20, 95352, Note_off_c, 8, 57, 64
20, 95492, Note_on_c, 8, 57, 82
20, 95687, Note_off_c, 8, 57, 64
20, 95735, Note_on_c, 8, 55, 66
20, 95813, Note_off_c, 8, 55, 64
20, 95832, Note_on_c, 8, 57, 76
20, 95908, Note_off_c, 8, 57, 64
20, 95971, Note_on_c, 8, 54, 82
20, 96246, Note_off_c, 8, 54, 64
20, 96490, Note_on_c, 8, 69, 98
20, 96587, Note_on_c, 8, 68, 89
20, 96606, Note_off_c, 8, 69, 64
20, 96691, Note_off_c, 8, 68, 64
20, 96714, Note_on_c, 8, 69, 85
20, 96803, Note_off_c, 8, 69, 64
20, 96947, Note_on_c, 8, 61, 85
20, 97053, Note_on_c, 8, 59, 76
20, 97064, Note_off_c, 8, 61, 64
20, 97155, Note_off_c, 8, 59, 64
20, 97190, Note_on_c, 8, 61, 78
20, 97298, Note_off_c, 8, 61, 64
20, 97436, Note_on_c, 8, 64, 80
20, 97535, Note_on_c, 8, 62, 80
20, 97550, Note_off_c, 8, 64, 64
20, 97627, Note_off_c, 8, 62, 64
20, 97667, Note_on_c, 8, 64, 82
20, 97757, Note_off_c, 8, 64, 64
20, 97902, Note_on_c, 8, 57, 68
20, 98185, Note_off_c, 8, 57, 64
20, 98390, Note_on_c, 8, 70, 80
20, 98493, Note_on_c, 8, 68, 63
20, 98508, Note_off_c, 8, 70, 64
20, 98588, Note_off_c, 8, 68, 64
20, 98622, Note_on_c, 8, 70, 63
20, 98723, Note_off_c, 8, 70, 64
20, 98870, Note_on_c, 8, 71, 91
20, 98979, Note_on_c, 8, 70, 70
20, 99000, Note_off_c, 8, 71, 64
20, 99107, Note_on_c, 8, 71, 64
20, 99117, Note_off_c, 8, 70, 64
20, 99197, Note_off_c, 8, 71, 64
20, 99360, Note_on_c, 8, 64, 78
20, 99461, Note_on_c, 8, 62, 70
20, 99490, Note_off_c, 8, 64, 64
20, 99576, Note_off_c, 8, 62, 64
20, 99596, Note_on_c, 8, 64, 76
20, 99706, Note_off_c, 8, 64, 64
20, 99843, Note_on_c, 8, 66, 82
20, 99936, Note_off_c, 8, 66, 64
20, 100084, Note_on_c, 8, 54, 80
20, 100167, Note_off_c, 8, 54, 64
20, 100332, Note_on_c, 8, 66, 70
20, 102114, Note_off_c, 8, 66, 64
20, 102217, Note_on_c, 8, 64, 85
20, 102340, Note_off_c, 8, 64, 64
20, 102453, Note_on_c, 8, 61, 72
20, 102542, Note_off_c, 8, 61, 64
20, 102685, Note_on_c, 8, 62, 70
20, 102795, Note_off_c, 8, 62, 64
20, 102928, Note_on_c, 8, 55, 66
20, 103049, Note_off_c, 8, 55, 64
20, 103178, Note_on_c, 8, 52, 70
20, 103275, Note_off_c, 8, 52, 64
20, 103424, Note_on_c, 8, 54, 70
20, 103499, Note_off_c, 8, 54, 64
20, 103668, Note_on_c, 8, 59, 63
20, 103941, Note_off_c, 8, 59, 64
20, 104138, Note_on_c, 8, 57, 66
20, 104940, Note_off_c, 8, 57, 64
20, 105106, Note_on_c, 8, 54, 61
20, 105965, Note_off_c, 8, 54, 64
20, 106060, Note_on_c, 8, 66, 82
20, 106182, Note_off_c, 8, 66, 64
20, 106289, Note_on_c, 8, 62, 68
20, 106391, Note_off_c, 8, 62, 64
20, 106543, Note_on_c, 8, 67, 87
20, 106676, Note_off_c, 8, 67, 64
20, 106771, Note_on_c, 8, 64, 66
20, 106892, Note_off_c, 8, 64, 64
20, 107005, Note_on_c, 8, 61, 70
20, 107117, Note_off_c, 8, 61, 64
20, 107239, Note_on_c, 8, 62, 78
20, 107325, Note_off_c, 8, 62, 64
20, 107484, Note_on_c, 8, 57, 76
20, 107693, Note_off_c, 8, 57, 64
20, 107729, Note_on_c, 8, 59, 85
20, 107828, Note_off_c, 8, 59, 64
20, 107837, Note_on_c, 8, 61, 80
20, 107928, Note_off_c, 8, 61, 64
20, 107957, Note_on_c, 8, 62, 80
20, 108067, Note_on_c, 8, 61, 78
20, 108071, Note_off_c, 8, 62, 64
20, 108161, Note_off_c, 8, 61, 64
20, 108188, Note_on_c, 8, 59, 63
20, 108279, Note_off_c, 8, 59, 64
20, 108305, Note_on_c, 8, 57, 72
20, 108384, Note_off_c, 8, 57, 64
20, 108438, Note_on_c, 8, 55, 66
20, 108575, Note_off_c, 8, 55, 64
20, 108693, Note_on_c, 8, 62, 80
20, 108800, Note_off_c, 8, 62, 64
20, 108940, Note_on_c, 8, 64, 85
20, 109043, Note_off_c, 8, 64, 64
20, 109180, Note_on_c, 8, 59, 80
20, 109296, Note_off_c, 8, 59, 64
20, 109431, Note_on_c, 8, 61, 85
20, 109536, Note_off_c, 8, 61, 64
20, 109545, Note_on_c, 8, 59, 82
20, 109644, Note_off_c, 8, 59, 64
20, 109655, Note_on_c, 8, 57, 66
20, 109746, Note_off_c, 8, 57, 64
20, 109755, Note_on_c, 8, 55, 72
20, 109844, Note_off_c, 8, 55, 64
20, 109892, Note_on_c, 8, 57, 82
20, 110007, Note_off_c, 8, 57, 64
20, 110132, Note_on_c, 8, 54, 76
20, 110240, Note_off_c, 8, 54, 64
20, 110378, Note_on_c, 8, 50, 78
20, 110498, Note_off_c, 8, 50, 64
20, 110623, Note_on_c, 8, 57, 80
20, 110756, Note_off_c, 8, 57, 64
20, 110853, Note_on_c, 8, 59, 70
20, 110924, Note_on_c, 8, 57, 57
20, 110933, Note_off_c, 8, 59, 64
20, 110979, Note_on_c, 8, 59, 63
20, 110981, Note_off_c, 8, 57, 64
20, 111028, Note_on_c, 8, 57, 76
20, 111050, Note_off_c, 8, 59, 64
20, 111082, Note_on_c, 8, 55, 76
20, 111111, Note_off_c, 8, 57, 64
20, 111167, Note_off_c, 8, 55, 64
20, 111203, Note_on_c, 8, 57, 80
20, 111276, Note_off_c, 8, 57, 64
20, 111332, Note_on_c, 8, 54, 70
20, 111631, Note_off_c, 8, 54, 64
20, 131032, Note_on_c, 8, 61, 87
20, 131155, Note_off_c, 8, 61, 64
20, 131273, Note_on_c, 8, 57, 82
20, 131360, Note_off_c, 8, 57, 64
20, 131509, Note_on_c, 8, 57, 82
20, 131750, Note_off_c, 8, 57, 64
20, 131752, Note_on_c, 8, 59, 82
20, 131849, Note_off_c, 8, 59, 64
20, 131860, Note_on_c, 8, 61, 82
20, 131943, Note_off_c, 8, 61, 64
20, 132000, Note_on_c, 8, 62, 82
20, 132105, Note_off_c, 8, 62, 64
20, 132248, Note_on_c, 8, 59, 82
20, 132326, Note_off_c, 8, 59, 64
20, 132497, Note_on_c, 8, 59, 85
20, 132830, Note_off_c, 8, 59, 64
20, 132974, Note_on_c, 8, 64, 85
20, 133066, Note_off_c, 8, 64, 64
20, 133212, Note_on_c, 8, 64, 80
20, 133309, Note_off_c, 8, 64, 64
20, 133437, Note_on_c, 8, 62, 76
20, 133552, Note_off_c, 8, 62, 64
20, 133674, Note_on_c, 8, 66, 82
20, 133797, Note_off_c, 8, 66, 64
20, 133912, Note_on_c, 8, 64, 80
20, 134024, Note_off_c, 8, 64, 64
20, 134141, Note_on_c, 8, 62, 78
20, 134225, Note_off_c, 8, 62, 64
20, 134390, Note_on_c, 8, 61, 80
20, 134731, Note_off_c, 8, 61, 64
20, 134877, Note_on_c, 8, 59, 89
20, 134984, Note_off_c, 8, 59, 64
20, 135120, Note_on_c, 8, 59, 82
20, 135208, Note_off_c, 8, 59, 64
20, 135357, Note_on_c, 8, 59, 91
20, 135539, Note_off_c, 8, 59, 64
20, 135604, Note_on_c, 8, 58, 80
20, 135665, Note_off_c, 8, 58, 64
20, 135708, Note_on_c, 8, 61, 87
20, 135793, Note_off_c, 8, 61, 64
20, 135834, Note_on_c, 8, 66, 93
20, 135935, Note_off_c, 8, 66, 64
20, 136086, Note_on_c, 8, 66, 80
20, 136180, Note_off_c, 8, 66, 64
20, 136329, Note_on_c, 8, 66, 80
20, 136450, Note_off_c, 8, 66, 64
20, 136572, Note_on_c, 8, 67, 82
20, 136679, Note_off_c, 8, 67, 64
20, 136812, Note_on_c, 8, 67, 80
20, 136924, Note_off_c, 8, 67, 64
20, 137046, Note_on_c, 8, 66, 76
20, 137121, Note_off_c, 8, 66, 64
20, 137143, Note_on_c, 8, 64, 82
20, 137238, Note_off_c, 8, 64, 64
20, 137267, Note_on_c, 8, 62, 80
20, 137377, Note_off_c, 8, 62, 64
20, 137508, Note_on_c, 8, 61, 85
20, 137616, Note_off_c, 8, 61, 64
20, 137749, Note_on_c, 8, 61, 80
20, 137856, Note_off_c, 8, 61, 64
20, 138000, Note_on_c, 8, 66, 87
20, 138083, Note_off_c, 8, 66, 64
20, 138248, Note_on_c, 8, 62, 78
20, 138547, Note_off_c, 8, 62, 64
20, 138713, Note_on_c, 8, 62, 82
20, 138810, Note_off_c, 8, 62, 64
20, 138950, Note_on_c, 8, 67, 85
20, 139037, Note_off_c, 8, 67, 64
20, 139190, Note_on_c, 8, 64, 89
20, 139395, Note_off_c, 8, 64, 64
20, 139447, Note_on_c, 8, 63, 82
20, 139535, Note_off_c, 8, 63, 64
20, 139542, Note_on_c, 8, 64, 87
20, 139635, Note_off_c, 8, 64, 64
20, 139672, Note_on_c, 8, 66, 89
20, 139766, Note_off_c, 8, 66, 64
20, 139904, Note_on_c, 8, 63, 76
20, 139998, Note_off_c, 8, 63, 64
20, 140149, Note_on_c, 8, 59, 87
20, 140484, Note_off_c, 8, 59, 64
20, 140633, Note_on_c, 8, 57, 87
20, 140741, Note_off_c, 8, 57, 64
20, 140880, Note_on_c, 8, 57, 76
20, 140997, Note_off_c, 8, 57, 64
20, 141113, Note_on_c, 8, 69, 85
20, 141220, Note_off_c, 8, 69, 64
20, 141360, Note_on_c, 8, 71, 87
20, 141472, Note_off_c, 8, 71, 64
20, 141594, Note_on_c, 8, 64, 87
20, 141702, Note_off_c, 8, 64, 64
20, 141845, Note_on_c, 8, 64, 82
20, 141926, Note_off_c, 8, 64, 64
20, 142077, Note_on_c, 8, 64, 93
20, 142417, Note_off_c, 8, 64, 64
20, 142547, Note_on_c, 8, 66, 82
20, 142631, Note_off_c, 8, 66, 64
20, 142781, Note_on_c, 8, 62, 82
20, 142867, Note_off_c, 8, 62, 64
20, 143029, Note_on_c, 8, 62, 80
20, 143364, Note_off_c, 8, 62, 64
20, 143526, Note_on_c, 8, 59, 89
20, 143627, Note_off_c, 8, 59, 64
20, 143769, Note_on_c, 8, 64, 87
20, 143852, Note_off_c, 8, 64, 64
20, 144008, Note_on_c, 8, 64, 87
20, 144311, Note_off_c, 8, 64, 64
20, 144475, Note_on_c, 8, 64, 82
20, 144569, Note_off_c, 8, 64, 64
20, 144708, Note_on_c, 8, 69, 82
20, 144820, Note_off_c, 8, 69, 64
20, 144942, Note_on_c, 8, 69, 82
20, 145029, Note_off_c, 8, 69, 64
20, 145054, Note_on_c, 8, 67, 72
20, 145140, Note_off_c, 8, 67, 64
20, 145176, Note_on_c, 8, 66, 91
20, 145265, Note_off_c, 8, 66, 64
20, 145279, Note_on_c, 8, 67, 78
20, 145371, Note_off_c, 8, 67, 64
20, 145414, Note_on_c, 8, 64, 91
20, 145529, Note_off_c, 8, 64, 64
20, 145661, Note_on_c, 8, 64, 85
20, 145765, Note_off_c, 8, 64, 64
20, 145916, Note_on_c, 8, 66, 89
20, 146217, Note_off_c, 8, 66, 64
20, 146391, Note_on_c, 8, 61, 82
20, 146496, Note_off_c, 8, 61, 64
20, 146627, Note_on_c, 8, 57, 78
20, 146733, Note_off_c, 8, 57, 64
20, 146874, Note_on_c, 8, 57, 76
20, 147097, Note_off_c, 8, 57, 64
20, 147120, Note_on_c, 8, 59, 80
20, 147209, Note_off_c, 8, 59, 64
20, 147225, Note_on_c, 8, 61, 80
20, 147306, Note_off_c, 8, 61, 64
20, 147353, Note_on_c, 8, 62, 82
20, 147459, Note_off_c, 8, 62, 64
20, 147599, Note_on_c, 8, 59, 82
20, 147684, Note_off_c, 8, 59, 64
20, 147840, Note_on_c, 8, 59, 76
20, 148139, Note_off_c, 8, 59, 64
20, 148321, Note_on_c, 8, 64, 78
20, 148426, Note_off_c, 8, 64, 64
20, 148557, Note_on_c, 8, 64, 80
20, 148667, Note_off_c, 8, 64, 64
20, 148785, Note_on_c, 8, 62, 80
20, 148901, Note_off_c, 8, 62, 64
20, 149020, Note_on_c, 8, 66, 82
20, 149131, Note_off_c, 8, 66, 64
20, 149261, Note_on_c, 8, 64, 82
20, 149363, Note_off_c, 8, 64, 64
20, 149498, Note_on_c, 8, 62, 76
20, 149590, Note_off_c, 8, 62, 64
20, 149743, Note_on_c, 8, 61, 89
20, 150092, Note_off_c, 8, 61, 64
20, 150211, Note_on_c, 8, 59, 66
20, 150306, Note_off_c, 8, 59, 64
20, 150468, Note_on_c, 8, 59, 80
20, 150571, Note_off_c, 8, 59, 64
20, 150721, Note_on_c, 8, 59, 91
20, 150924, Note_off_c, 8, 59, 64
20, 150954, Note_on_c, 8, 58, 82
20, 151019, Note_off_c, 8, 58, 64
20, 151057, Note_on_c, 8, 61, 89
20, 151152, Note_off_c, 8, 61, 64
20, 151187, Note_on_c, 8, 66, 91
20, 151287, Note_off_c, 8, 66, 64
20, 151426, Note_on_c, 8, 66, 80
20, 151521, Note_off_c, 8, 66, 64
20, 151665, Note_on_c, 8, 66, 76
20, 151777, Note_off_c, 8, 66, 64
20, 151914, Note_on_c, 8, 67, 82
20, 152013, Note_off_c, 8, 67, 64
20, 152148, Note_on_c, 8, 67, 85
20, 152342, Note_off_c, 8, 67, 64
20, 152389, Note_on_c, 8, 66, 80
20, 152470, Note_off_c, 8, 66, 64
20, 152492, Note_on_c, 8, 64, 78
20, 152579, Note_off_c, 8, 64, 64
20, 152614, Note_on_c, 8, 62, 82
20, 152735, Note_off_c, 8, 62, 64
20, 152862, Note_on_c, 8, 61, 82
20, 152970, Note_off_c, 8, 61, 64
20, 153096, Note_on_c, 8, 61, 85
20, 153197, Note_off_c, 8, 61, 64
20, 153343, Note_on_c, 8, 66, 85
20, 153431, Note_off_c, 8, 66, 64
20, 153584, Note_on_c, 8, 62, 87
20, 153919, Note_off_c, 8, 62, 64
20, 154065, Note_on_c, 8, 62, 85
20, 154153, Note_off_c, 8, 62, 64
20, 154306, Note_on_c, 8, 67, 87
20, 154394, Note_off_c, 8, 67, 64
20, 154549, Note_on_c, 8, 64, 89
20, 154772, Note_off_c, 8, 64, 64
20, 154808, Note_on_c, 8, 63, 82
20, 154895, Note_off_c, 8, 63, 64
20, 154904, Note_on_c, 8, 64, 87
20, 155003, Note_off_c, 8, 64, 64
20, 155033, Note_on_c, 8, 66, 85
20, 155129, Note_off_c, 8, 66, 64
20, 155271, Note_on_c, 8, 63, 72
20, 155377, Note_off_c, 8, 63, 64
20, 155508, Note_on_c, 8, 59, 78
20, 155854, Note_off_c, 8, 59, 64
20, 155993, Note_on_c, 8, 57, 82
20, 156109, Note_off_c, 8, 57, 64
20, 156230, Note_on_c, 8, 57, 82
20, 156351, Note_off_c, 8, 57, 64
20, 156464, Note_on_c, 8, 69, 82
20, 156579, Note_off_c, 8, 69, 64
20, 156705, Note_on_c, 8, 71, 89
20, 156815, Note_off_c, 8, 71, 64
20, 156941, Note_on_c, 8, 64, 85
20, 157049, Note_off_c, 8, 64, 64
20, 157190, Note_on_c, 8, 64, 85
20, 157274, Note_off_c, 8, 64, 64
20, 157433, Note_on_c, 8, 64, 93
20, 157789, Note_off_c, 8, 64, 64
20, 157908, Note_on_c, 8, 66, 87
20, 157998, Note_off_c, 8, 66, 64
20, 158131, Note_on_c, 8, 62, 87
20, 158216, Note_off_c, 8, 62, 64
20, 158393, Note_on_c, 8, 62, 82
20, 158756, Note_off_c, 8, 62, 64
20, 158864, Note_on_c, 8, 59, 82
20, 158950, Note_off_c, 8, 59, 64
20, 159101, Note_on_c, 8, 64, 85
20, 159170, Note_off_c, 8, 64, 64
20, 159335, Note_on_c, 8, 64, 91
20, 159674, Note_off_c, 8, 64, 64
20, 159827, Note_on_c, 8, 64, 80
20, 159926, Note_off_c, 8, 64, 64
20, 160068, Note_on_c, 8, 69, 87
20, 160185, Note_off_c, 8, 69, 64
20, 160309, Note_on_c, 8, 69, 91
20, 160399, Note_off_c, 8, 69, 64
20, 160426, Note_on_c, 8, 67, 91
20, 160514, Note_off_c, 8, 67, 64
20, 160547, Note_on_c, 8, 66, 95
20, 160633, Note_off_c, 8, 66, 64
20, 160655, Note_on_c, 8, 67, 82
20, 160734, Note_off_c, 8, 67, 64
20, 160784, Note_on_c, 8, 64, 100
20, 160894, Note_off_c, 8, 64, 64
20, 161029, Note_on_c, 8, 64, 95
20, 161121, Note_off_c, 8, 64, 64
20, 161270, Note_on_c, 8, 66, 95
20, 161580, Note_off_c, 8, 66, 64
20, 161580, End_track
21, 0, Start_track
21, 0, Title_t, "Cello"
21, 0, Program_c, 10, 42
21, 0, Control_c, 10, 7, 100
21, 19676, Note_on_c, 10, 45, 85
21, 19782, Note_off_c, 10, 45, 64
21, 19928, Note_on_c, 10, 49, 76
21, 20041, Note_off_c, 10, 49, 64
21, 20165, Note_on_c, 10, 50, 85
21, 20287, Note_off_c, 10, 50, 64
21, 20401, Note_on_c, 10, 49, 60
21, 20527, Note_off_c, 10, 49, 64
21, 20631, Note_on_c, 10, 47, 72
21, 20730, Note_off_c, 10, 47, 64
21, 20877, Note_on_c, 10, 50, 80
21, 20968, Note_off_c, 10, 50, 64
21, 21123, Note_on_c, 10, 52, 91
21, 21236, Note_off_c, 10, 52, 64
21, 21357, Note_on_c, 10, 50, 68
21, 21477, Note_off_c, 10, 50, 64
21, 21602, Note_on_c, 10, 52, 78
21, 21720, Note_off_c, 10, 52, 64
21, 21846, Note_on_c, 10, 54, 64
21, 21967, Note_off_c, 10, 54, 64
21, 22089, Note_on_c, 10, 55, 87
21, 22208, Note_off_c, 10, 55, 64
21, 22304, Note_on_c, 10, 54, 70
21, 22422, Note_off_c, 10, 54, 64
21, 22559, Note_on_c, 10, 55, 74
21, 22649, Note_off_c, 10, 55, 64
21, 22781, Note_on_c, 10, 52, 78
21, 22881, Note_off_c, 10, 52, 64
21, 23022, Note_on_c, 10, 54, 89
21, 23198, Note_off_c, 10, 54, 64
21, 23261, Note_on_c, 10, 56, 82
21, 23328, Note_off_c, 10, 56, 64
21, 23370, Note_on_c, 10, 58, 93
21, 23456, Note_off_c, 10, 58, 64
21, 23501, Note_on_c, 10, 59, 100
21, 23619, Note_off_c, 10, 59, 64
21, 23745, Note_on_c, 10, 57, 85
21, 23844, Note_off_c, 10, 57, 64
21, 23987, Note_on_c, 10, 56, 74
21, 24118, Note_off_c, 10, 56, 64
21, 24222, Note_on_c, 10, 61, 68
21, 24350, Note_off_c, 10, 61, 64
21, 24465, Note_on_c, 10, 58, 85
21, 24588, Note_off_c, 10, 58, 64
21, 24716, Note_on_c, 10, 54, 72
21, 24831, Note_off_c, 10, 54, 64
21, 24962, Note_on_c, 10, 59, 87
21, 25081, Note_off_c, 10, 59, 64
21, 25209, Note_on_c, 10, 55, 87
21, 25320, Note_off_c, 10, 55, 64
21, 25445, Note_on_c, 10, 52, 82
21, 25589, Note_off_c, 10, 52, 64
21, 25670, Note_on_c, 10, 50, 76
21, 25752, Note_off_c, 10, 50, 64
21, 25770, Note_on_c, 10, 49, 85
21, 25851, Note_off_c, 10, 49, 64
21, 25904, Note_on_c, 10, 50, 93
21, 26037, Note_off_c, 10, 50, 64
21, 26132, Note_on_c, 10, 52, 87
21, 26237, Note_off_c, 10, 52, 64
21, 26373, Note_on_c, 10, 54, 91
21, 26472, Note_off_c, 10, 54, 64
21, 26611, Note_on_c, 10, 42, 76
21, 26688, Note_off_c, 10, 42, 64
21, 26850, Note_on_c, 10, 47, 85
21, 27025, Note_off_c, 10, 47, 64
21, 27088, Note_on_c, 10, 57, 82
21, 27156, Note_off_c, 10, 57, 64
21, 27193, Note_on_c, 10, 54, 85
21, 27275, Note_off_c, 10, 54, 64
21, 27327, Note_on_c, 10, 55, 82
21, 27983, Note_off_c, 10, 55, 64
21, 28055, Note_on_c, 10, 54, 87
21, 28132, Note_off_c, 10, 54, 64
21, 28160, Note_on_c, 10, 52, 85
21, 28236, Note_off_c, 10, 52, 64
21, 28290, Note_on_c, 10, 51, 87
21, 28422, Note_off_c, 10, 51, 64
21, 28555, Note_on_c, 10, 47, 85
21, 28634, Note_off_c, 10, 47, 64
21, 28794, Note_on_c, 10, 52, 85
21, 28974, Note_off_c, 10, 52, 64
21, 29027, Note_on_c, 10, 54, 66
21, 29122, Note_off_c, 10, 54, 64
21, 29124, Note_on_c, 10, 55, 80
21, 29210, Note_off_c, 10, 55, 64
21, 29261, Note_on_c, 10, 57, 100
21, 29363, Note_off_c, 10, 57, 64
21, 29513, Note_on_c, 10, 49, 102
21, 29613, Note_off_c, 10, 49, 64
21, 29748, Note_on_c, 10, 50, 89
21, 29867, Note_off_c, 10, 50, 64
21, 29982, Note_on_c, 10, 47, 102
21, 30093, Note_off_c, 10, 47, 64
21, 30227, Note_on_c, 10, 43, 100
21, 30346, Note_off_c, 10, 43, 64
21, 30461, Note_on_c, 10, 44, 105
21, 30562, Note_off_c, 10, 44, 64
21, 30704, Note_on_c, 10, 45, 100
21, 30881, Note_off_c, 10, 45, 64
21, 30935, Note_on_c, 10, 47, 87
21, 31014, Note_off_c, 10, 47, 64
21, 31039, Note_on_c, 10, 49, 100
21, 31107, Note_off_c, 10, 49, 64
21, 31145, Note_on_c, 10, 50, 89
21, 31242, Note_off_c, 10, 50, 64
21, 31268, Note_on_c, 10, 52, 91
21, 31349, Note_off_c, 10, 52, 64
21, 31390, Note_on_c, 10, 54, 95
21, 31836, Note_off_c, 10, 54, 64
21, 31903, Note_on_c, 10, 52, 85
21, 31989, Note_off_c, 10, 52, 64
21, 32006, Note_on_c, 10, 50, 82
21, 32079, Note_off_c, 10, 50, 64
21, 32119, Note_on_c, 10, 52, 89
21, 32200, Note_off_c, 10, 52, 64
21, 32229, Note_on_c, 10, 54, 102
21, 32321, Note_off_c, 10, 54, 64
21, 32362, Note_on_c, 10, 55, 95
21, 32783, Note_off_c, 10, 55, 64
21, 32855, Note_on_c, 10, 52, 89
21, 32961, Note_off_c, 10, 52, 64
21, 33089, Note_on_c, 10, 49, 78
21, 33203, Note_off_c, 10, 49, 64
21, 33325, Note_on_c, 10, 45, 85
21, 33455, Note_off_c, 10, 45, 64
21, 33573, Note_on_c, 10, 50, 87
21, 33692, Note_off_c, 10, 50, 64
21, 33815, Note_on_c, 10, 55, 87
21, 33928, Note_off_c, 10, 55, 64
21, 34052, Note_on_c, 10, 57, 89
21, 34153, Note_off_c, 10, 57, 64
21, 34292, Note_on_c, 10, 45, 82
21, 34376, Note_off_c, 10, 45, 64
21, 34547, Note_on_c, 10, 50, 85
21, 34864, Note_off_c, 10, 50, 64
21, 35024, Note_on_c, 10, 45, 85
21, 35129, Note_off_c, 10, 45, 64
21, 35262, Note_on_c, 10, 49, 76
21, 35372, Note_off_c, 10, 49, 64
21, 35503, Note_on_c, 10, 50, 80
21, 35625, Note_off_c, 10, 50, 64
21, 35744, Note_on_c, 10, 49, 58
21, 35856, Note_off_c, 10, 49, 64
21, 35987, Note_on_c, 10, 47, 72
21, 36095, Note_off_c, 10, 47, 64
21, 36243, Note_on_c, 10, 50, 82
21, 36353, Note_off_c, 10, 50, 64
21, 36471, Note_on_c, 10, 52, 82
21, 36594, Note_off_c, 10, 52, 64
21, 36696, Note_on_c, 10, 50, 66
21, 36815, Note_off_c, 10, 50, 64
21, 36939, Note_on_c, 10, 52, 66
21, 37053, Note_off_c, 10, 52, 64
21, 37177, Note_on_c, 10, 54, 66
21, 37308, Note_off_c, 10, 54, 64
21, 37418, Note_on_c, 10, 55, 89
21, 37533, Note_off_c, 10, 55, 64
21, 37643, Note_on_c, 10, 54, 63
21, 37762, Note_off_c, 10, 54, 64
21, 37893, Note_on_c, 10, 55, 74
21, 38001, Note_off_c, 10, 55, 64
21, 38126, Note_on_c, 10, 52, 85
21, 38228, Note_off_c, 10, 52, 64
21, 38381, Note_on_c, 10, 54, 85
21, 38579, Note_off_c, 10, 54, 64
21, 38621, Note_on_c, 10, 56, 91
21, 38689, Note_off_c, 10, 56, 64
21, 38723, Note_on_c, 10, 58, 85
21, 38813, Note_off_c, 10, 58, 64
21, 38861, Note_on_c, 10, 59, 100
21, 38982, Note_off_c, 10, 59, 64
21, 39098, Note_on_c, 10, 57, 78
21, 39206, Note_off_c, 10, 57, 64
21, 39332, Note_on_c, 10, 56, 76
21, 39456, Note_off_c, 10, 56, 64
21, 39578, Note_on_c, 10, 61, 76
21, 39702, Note_off_c, 10, 61, 64
21, 39823, Note_on_c, 10, 58, 78
21, 39942, Note_off_c, 10, 58, 64
21, 40073, Note_on_c, 10, 54, 72
21, 40183, Note_off_c, 10, 54, 64
21, 40309, Note_on_c, 10, 59, 85
21, 40415, Note_off_c, 10, 59, 64
21, 40552, Note_on_c, 10, 55, 87
21, 40646, Note_off_c, 10, 55, 64
21, 40788, Note_on_c, 10, 52, 87
21, 40962, Note_off_c, 10, 52, 64
21, 41016, Note_on_c, 10, 50, 80
21, 41106, Note_off_c, 10, 50, 64
21, 41130, Note_on_c, 10, 49, 93
21, 41220, Note_off_c, 10, 49, 64
21, 41267, Note_on_c, 10, 50, 98
21, 41396, Note_off_c, 10, 50, 64
21, 41495, Note_on_c, 10, 52, 82
21, 41600, Note_off_c, 10, 52, 64
21, 41735, Note_on_c, 10, 54, 87
21, 41830, Note_off_c, 10, 54, 64
21, 41969, Note_on_c, 10, 42, 70
21, 42048, Note_off_c, 10, 42, 64
21, 42210, Note_on_c, 10, 47, 89
21, 42359, Note_off_c, 10, 47, 64
21, 42455, Note_on_c, 10, 57, 76
21, 42514, Note_off_c, 10, 57, 64
21, 42559, Note_on_c, 10, 54, 93
21, 42622, Note_off_c, 10, 54, 64
21, 42696, Note_on_c, 10, 55, 85
21, 43383, Note_off_c, 10, 55, 64
21, 43437, Note_on_c, 10, 54, 80
21, 43502, Note_off_c, 10, 54, 64
21, 43537, Note_on_c, 10, 52, 82
21, 43608, Note_off_c, 10, 52, 64
21, 43680, Note_on_c, 10, 51, 80
21, 43799, Note_off_c, 10, 51, 64
21, 43916, Note_on_c, 10, 47, 87
21, 43999, Note_off_c, 10, 47, 64
21, 44143, Note_on_c, 10, 52, 87
21, 44352, Note_off_c, 10, 52, 64
21, 44395, Note_on_c, 10, 54, 98
21, 44467, Note_off_c, 10, 54, 64
21, 44498, Note_on_c, 10, 55, 91
21, 44579, Note_off_c, 10, 55, 64
21, 44625, Note_on_c, 10, 57, 95
21, 44741, Note_off_c, 10, 57, 64
21, 44863, Note_on_c, 10, 49, 85
21, 44980, Note_off_c, 10, 49, 64
21, 45113, Note_on_c, 10, 50, 89
21, 45228, Note_off_c, 10, 50, 64
21, 45347, Note_on_c, 10, 47, 82
21, 45471, Note_off_c, 10, 47, 64
21, 45587, Note_on_c, 10, 43, 87
21, 45709, Note_off_c, 10, 43, 64
21, 45816, Note_on_c, 10, 44, 78
21, 45902, Note_off_c, 10, 44, 64
21, 46053, Note_on_c, 10, 45, 89
21, 46256, Note_off_c, 10, 45, 64
21, 46296, Note_on_c, 10, 47, 76
21, 46388, Note_off_c, 10, 47, 64
21, 46404, Note_on_c, 10, 49, 98
21, 46476, Note_off_c, 10, 49, 64
21, 46521, Note_on_c, 10, 50, 68
21, 46616, Note_off_c, 10, 50, 64
21, 46645, Note_on_c, 10, 52, 87
21, 46719, Note_off_c, 10, 52, 64
21, 46773, Note_on_c, 10, 54, 100
21, 47194, Note_off_c, 10, 54, 64
21, 47259, Note_on_c, 10, 52, 85
21, 47342, Note_off_c, 10, 52, 64
21, 47358, Note_on_c, 10, 50, 85
21, 47435, Note_off_c, 10, 50, 64
21, 47471, Note_on_c, 10, 52, 87
21, 47563, Note_off_c, 10, 52, 64
21, 47586, Note_on_c, 10, 54, 95
21, 47682, Note_off_c, 10, 54, 64
21, 47723, Note_on_c, 10, 55, 98
21, 48130, Note_off_c, 10, 55, 64
21, 48209, Note_on_c, 10, 52, 85
21, 48337, Note_off_c, 10, 52, 64
21, 48456, Note_on_c, 10, 49, 82
21, 48580, Note_off_c, 10, 49, 64
21, 48690, Note_on_c, 10, 45, 82
21, 48821, Note_off_c, 10, 45, 64
21, 48935, Note_on_c, 10, 50, 87
21, 49050, Note_off_c, 10, 50, 64
21, 49179, Note_on_c, 10, 55, 87
21, 49286, Note_off_c, 10, 55, 64
21, 49424, Note_on_c, 10, 57, 91
21, 49523, Note_off_c, 10, 57, 64
21, 49653, Note_on_c, 10, 45, 91
21, 49736, Note_off_c, 10, 45, 64
21, 49903, Note_on_c, 10, 50, 89
21, 50184, Note_off_c, 10, 50, 64
21, 81121, Note_on_c, 10, 57, 102
21, 81215, Note_on_c, 10, 56, 82
21, 81238, Note_off_c, 10, 57, 64
21, 81333, Note_off_c, 10, 56, 64
21, 81354, Note_on_c, 10, 57, 87
21, 81450, Note_off_c, 10, 57, 64
21, 81611, Note_on_c, 10, 49, 98
21, 81707, Note_on_c, 10, 47, 89
21, 81737, Note_off_c, 10, 49, 64
21, 81823, Note_off_c, 10, 47, 64
21, 81827, Note_on_c, 10, 49, 87
21, 81956, Note_off_c, 10, 49, 64
21, 82077, Note_on_c, 10, 52, 93
21, 82172, Note_on_c, 10, 50, 98
21, 82196, Note_off_c, 10, 52, 64
21, 82286, Note_off_c, 10, 50, 64
21, 82298, Note_on_c, 10, 52, 80
21, 82394, Note_off_c, 10, 52, 64
21, 82556, Note_on_c, 10, 45, 80
21, 82997, Note_off_c, 10, 45, 64
21, 84955, Note_on_c, 10, 59, 102
21, 85047, Note_on_c, 10, 58, 82
21, 85077, Note_off_c, 10, 59, 64
21, 85162, Note_off_c, 10, 58, 64
21, 85178, Note_on_c, 10, 59, 87
21, 85272, Note_off_c, 10, 59, 64
21, 85418, Note_on_c, 10, 50, 80
21, 85499, Note_on_c, 10, 49, 78
21, 85527, Note_off_c, 10, 50, 64
21, 85626, Note_on_c, 10, 50, 80
21, 85637, Note_off_c, 10, 49, 64
21, 85747, Note_off_c, 10, 50, 64
21, 85889, Note_on_c, 10, 54, 89
21, 85985, Note_on_c, 10, 52, 82
21, 86004, Note_off_c, 10, 54, 64
21, 86100, Note_off_c, 10, 52, 64
21, 86105, Note_on_c, 10, 54, 82
21, 86193, Note_off_c, 10, 54, 64
21, 86363, Note_on_c, 10, 47, 87
21, 86811, Note_off_c, 10, 47, 64
21, 88805, Note_on_c, 10, 50, 82
21, 88901, Note_on_c, 10, 49, 87
21, 88922, Note_off_c, 10, 50, 64
21, 89025, Note_off_c, 10, 49, 64
21, 89028, Note_on_c, 10, 50, 80
21, 89120, Note_off_c, 10, 50, 64
21, 89277, Note_on_c, 10, 42, 76
21, 89376, Note_on_c, 10, 40, 66
21, 89392, Note_off_c, 10, 42, 64
21, 89502, Note_on_c, 10, 42, 80
21, 89516, Note_off_c, 10, 40, 64
21, 89622, Note_off_c, 10, 42, 64
21, 89747, Note_on_c, 10, 45, 87
21, 89842, Note_on_c, 10, 43, 89
21, 89856, Note_off_c, 10, 45, 64
21, 89945, Note_off_c, 10, 43, 64
21, 89957, Note_on_c, 10, 45, 82
21, 90031, Note_off_c, 10, 45, 64
21, 90188, Note_on_c, 10, 38, 85
21, 90636, Note_off_c, 10, 38, 64
21, 94549, Note_on_c, 10, 50, 100
21, 94637, Note_on_c, 10, 49, 80
21, 94670, Note_off_c, 10, 50, 64
21, 94745, Note_off_c, 10, 49, 64
21, 94770, Note_on_c, 10, 50, 87
21, 94884, Note_off_c, 10, 50, 64
21, 95019, Note_on_c, 10, 42, 85
21, 95107, Note_on_c, 10, 40, 70
21, 95138, Note_off_c, 10, 42, 64
21, 95235, Note_off_c, 10, 40, 64
21, 95240, Note_on_c, 10, 42, 87
21, 95355, Note_off_c, 10, 42, 64
21, 95507, Note_on_c, 10, 45, 82
21, 95597, Note_on_c, 10, 43, 85
21, 95618, Note_off_c, 10, 45, 64
21, 95703, Note_off_c, 10, 43, 64
21, 95724, Note_on_c, 10, 45, 80
21, 95823, Note_off_c, 10, 45, 64
21, 95969, Note_on_c, 10, 38, 82
21, 96263, Note_off_c, 10, 38, 64
21, 96466, Note_on_c, 10, 57, 102
21, 96561, Note_on_c, 10, 56, 80
21, 96585, Note_off_c, 10, 57, 64
21, 96677, Note_off_c, 10, 56, 64
21, 96689, Note_on_c, 10, 57, 89
21, 96795, Note_off_c, 10, 57, 64
21, 96954, Note_on_c, 10, 49, 91
21, 97044, Note_on_c, 10, 47, 68
21, 97076, Note_off_c, 10, 49, 64
21, 97170, Note_off_c, 10, 47, 64
21, 97179, Note_on_c, 10, 49, 87
21, 97305, Note_off_c, 10, 49, 64
21, 97433, Note_on_c, 10, 52, 89
21, 97530, Note_on_c, 10, 50, 87
21, 97546, Note_off_c, 10, 52, 64
21, 97647, Note_off_c, 10, 50, 64
21, 97649, Note_on_c, 10, 52, 82
21, 97744, Note_off_c, 10, 52, 64
21, 97911, Note_on_c, 10, 45, 89
21, 98390, Note_off_c, 10, 45, 64
21, 100325, Note_on_c, 10, 59, 102
21, 100421, Note_on_c, 10, 58, 82
21, 100449, Note_off_c, 10, 59, 64
21, 100547, Note_off_c, 10, 58, 64
21, 100548, Note_on_c, 10, 59, 82
21, 100637, Note_off_c, 10, 59, 64
21, 100786, Note_on_c, 10, 50, 85
21, 100871, Note_on_c, 10, 49, 80
21, 100896, Note_off_c, 10, 50, 64
21, 100988, Note_on_c, 10, 50, 68
21, 100998, Note_off_c, 10, 49, 64
21, 101105, Note_off_c, 10, 50, 64
21, 101247, Note_on_c, 10, 54, 95
21, 101340, Note_on_c, 10, 52, 82
21, 101362, Note_off_c, 10, 54, 64
21, 101465, Note_on_c, 10, 54, 82
21, 101480, Note_off_c, 10, 52, 64
21, 101564, Note_off_c, 10, 54, 64
21, 101720, Note_on_c, 10, 47, 82
21, 102203, Note_off_c, 10, 47, 64
21, 104139, Note_on_c, 10, 50, 85
21, 104244, Note_on_c, 10, 49, 102
21, 104262, Note_off_c, 10, 50, 64
21, 104348, Note_off_c, 10, 49, 64
21, 104373, Note_on_c, 10, 50, 82
21, 104512, Note_off_c, 10, 50, 64
21, 104629, Note_on_c, 10, 42, 89
21, 104735, Note_on_c, 10, 40, 66
21, 104769, Note_off_c, 10, 42, 64
21, 104847, Note_off_c, 10, 40, 64
21, 104861, Note_on_c, 10, 42, 87
21, 104987, Note_off_c, 10, 42, 64
21, 105095, Note_on_c, 10, 45, 82
21, 105200, Note_on_c, 10, 43, 80
21, 105216, Note_off_c, 10, 45, 64
21, 105309, Note_off_c, 10, 43, 64
21, 105315, Note_on_c, 10, 45, 85
21, 105410, Note_off_c, 10, 45, 64
21, 105558, Note_on_c, 10, 38, 102
21, 106042, Note_off_c, 10, 38, 64
21, 109903, Note_on_c, 10, 50, 98
21, 110006, Note_on_c, 10, 49, 87
21, 110029, Note_off_c, 10, 50, 64
21, 110124, Note_off_c, 10, 49, 64
21, 110132, Note_on_c, 10, 50, 82
21, 110250, Note_off_c, 10, 50, 64
21, 110382, Note_on_c, 10, 42, 85
21, 110488, Note_on_c, 10, 40, 72
21, 110511, Note_off_c, 10, 42, 64
21, 110594, Note_off_c, 10, 40, 64
21, 110618, Note_on_c, 10, 42, 85
21, 110735, Note_off_c, 10, 42, 64
21, 110873, Note_on_c, 10, 45, 82
21, 110970, Note_on_c, 10, 43, 80
21, 110990, Note_off_c, 10, 45, 64
21, 111075, Note_off_c, 10, 43, 64
21, 111100, Note_on_c, 10, 45, 82
21, 111210, Note_off_c, 10, 45, 64
21, 111343, Note_on_c, 10, 38, 82
21, 111647, Note_off_c, 10, 38, 64
21, 131036, Note_on_c, 10, 45, 85
21, 131142, Note_off_c, 10, 45, 64
21, 131288, Note_on_c, 10, 49, 76
21, 131401, Note_off_c, 10, 49, 64
21, 131525, Note_on_c, 10, 50, 85
21, 131647, Note_off_c, 10, 50, 64
21, 131761, Note_on_c, 10, 49, 60
21, 131887, Note_off_c, 10, 49, 64
21, 131991, Note_on_c, 10, 47, 72
21, 132090, Note_off_c, 10, 47, 64
21, 132237, Note_on_c, 10, 50, 80
21, 132328, Note_off_c, 10, 50, 64
21, 132483, Note_on_c, 10, 52, 91
21, 132596, Note_off_c, 10, 52, 64
21, 132717, Note_on_c, 10, 50, 68
21, 132837, Note_off_c, 10, 50, 64
21, 132962, Note_on_c, 10, 52, 78
21, 133080, Note_off_c, 10, 52, 64
21, 133206, Note_on_c, 10, 54, 64
21, 133327, Note_off_c, 10, 54, 64
21, 133449, Note_on_c, 10, 55, 87
21, 133568, Note_off_c, 10, 55, 64
21, 133664, Note_on_c, 10, 54, 70
21, 133782, Note_off_c, 10, 54, 64
21, 133919, Note_on_c, 10, 55, 74
21, 134009, Note_off_c, 10, 55, 64
21, 134141, Note_on_c, 10, 52, 78
21, 134241, Note_off_c, 10, 52, 64
21, 134382, Note_on_c, 10, 54, 89
21, 134558, Note_off_c, 10, 54, 64
21, 134621, Note_on_c, 10, 56, 82
21, 134688, Note_off_c, 10, 56, 64
21, 134730, Note_on_c, 10, 58, 93
21, 134816, Note_off_c, 10, 58, 64
21, 134861, Note_on_c, 10, 59, 100
21, 134979, Note_off_c, 10, 59, 64
21, 135105, Note_on_c, 10, 57, 85
21, 135204, Note_off_c, 10, 57, 64
21, 135347, Note_on_c, 10, 56, 74
21, 135478, Note_off_c, 10, 56, 64
21, 135582, Note_on_c, 10, 61, 68
21, 135710, Note_off_c, 10, 61, 64
21, 135825, Note_on_c, 10, 58, 85
21, 135948, Note_off_c, 10, 58, 64
21, 136076, Note_on_c, 10, 54, 72
21, 136191, Note_off_c, 10, 54, 64
21, 136322, Note_on_c, 10, 59, 87
21, 136441, Note_off_c, 10, 59, 64
21, 136569, Note_on_c, 10, 55, 87
21, 136680, Note_off_c, 10, 55, 64
21, 136805, Note_on_c, 10, 52, 82
21, 136949, Note_off_c, 10, 52, 64
21, 137030, Note_on_c, 10, 50, 76
21, 137112, Note_off_c, 10, 50, 64
21, 137130, Note_on_c, 10, 49, 85
21, 137211, Note_off_c, 10, 49, 64
21, 137264, Note_on_c, 10, 50, 93
21, 137397, Note_off_c, 10, 50, 64
21, 137492, Note_on_c, 10, 52, 87
21, 137597, Note_off_c, 10, 52, 64
21, 137733, Note_on_c, 10, 54, 91
21, 137832, Note_off_c, 10, 54, 64
21, 137971, Note_on_c, 10, 42, 76
21, 138048, Note_off_c, 10, 42, 64
21, 138210, Note_on_c, 10, 47, 85
21, 138385, Note_off_c, 10, 47, 64
21, 138448, Note_on_c, 10, 57, 82
21, 138516, Note_off_c, 10, 57, 64
21, 138553, Note_on_c, 10, 54, 85
21, 138635, Note_off_c, 10, 54, 64
21, 138687, Note_on_c, 10, 55, 82
21, 139343, Note_off_c, 10, 55, 64
21, 139415, Note_on_c, 10, 54, 87
21, 139492, Note_off_c, 10, 54, 64
21, 139520, Note_on_c, 10, 52, 85
21, 139596, Note_off_c, 10, 52, 64
21, 139650, Note_on_c, 10, 51, 87
21, 139782, Note_off_c, 10, 51, 64
21, 139915, Note_on_c, 10, 47, 85
21, 139994, Note_off_c, 10, 47, 64
21, 140154, Note_on_c, 10, 52, 85
21, 140334, Note_off_c, 10, 52, 64
21, 140387, Note_on_c, 10, 54, 66
21, 140482, Note_off_c, 10, 54, 64
21, 140484, Note_on_c, 10, 55, 80
21, 140570, Note_off_c, 10, 55, 64
21, 140621, Note_on_c, 10, 57, 100
21, 140723, Note_off_c, 10, 57, 64
21, 140873, Note_on_c, 10, 49, 102
21, 140973, Note_off_c, 10, 49, 64
21, 141108, Note_on_c, 10, 50, 89
21, 141227, Note_off_c, 10, 50, 64
21, 141342, Note_on_c, 10, 47, 102
21, 141453, Note_off_c, 10, 47, 64
21, 141587, Note_on_c, 10, 43, 100
21, 141706, Note_off_c, 10, 43, 64
21, 141821, Note_on_c, 10, 44, 105
21, 141922, Note_off_c, 10, 44, 64
21, 142064, Note_on_c, 10, 45, 100
21, 142241, Note_off_c, 10, 45, 64
21, 142295, Note_on_c, 10, 47, 87
21, 142374, Note_off_c, 10, 47, 64
21, 142399, Note_on_c, 10, 49, 100
21, 142467, Note_off_c, 10, 49, 64
21, 142505, Note_on_c, 10, 50, 89
21, 142602, Note_off_c, 10, 50, 64
21, 142628, Note_on_c, 10, 52, 91
21, 142709, Note_off_c, 10, 52, 64
21, 142750, Note_on_c, 10, 54, 95
21, 143196, Note_off_c, 10, 54, 64
21, 143263, Note_on_c, 10, 52, 85
21, 143349, Note_off_c, 10, 52, 64
21, 143366, Note_on_c, 10, 50, 82
21, 143439, Note_off_c, 10, 50, 64
21, 143479, Note_on_c, 10, 52, 89
21, 143560, Note_off_c, 10, 52, 64
21, 143589, Note_on_c, 10, 54, 102
21, 143681, Note_off_c, 10, 54, 64
21, 143722, Note_on_c, 10, 55, 95
21, 144143, Note_off_c, 10, 55, 64
21, 144215, Note_on_c, 10, 52, 89
21, 144321, Note_off_c, 10, 52, 64
21, 144449, Note_on_c, 10, 49, 78
21, 144563, Note_off_c, 10, 49, 64
21, 144685, Note_on_c, 10, 45, 85
21, 144815, Note_off_c, 10, 45, 64
21, 144933, Note_on_c, 10, 50, 87
21, 145052, Note_off_c, 10, 50, 64
21, 145175, Note_on_c, 10, 55, 87
21, 145288, Note_off_c, 10, 55, 64
21, 145412, Note_on_c, 10, 57, 89
21, 145513, Note_off_c, 10, 57, 64
21, 145652, Note_on_c, 10, 45, 82
21, 145736, Note_off_c, 10, 45, 64
21, 145907, Note_on_c, 10, 50, 85
21, 146224, Note_off_c, 10, 50, 64
21, 146384, Note_on_c, 10, 45, 85
21, 146489, Note_off_c, 10, 45, 64
21, 146622, Note_on_c, 10, 49, 76
21, 146732, Note_off_c, 10, 49, 64
21, 146863, Note_on_c, 10, 50, 80
21, 146985, Note_off_c, 10, 50, 64
21, 147104, Note_on_c, 10, 49, 58
21, 147216, Note_off_c, 10, 49, 64
21, 147347, Note_on_c, 10, 47, 72
21, 147455, Note_off_c, 10, 47, 64
21, 147603, Note_on_c, 10, 50, 82
21, 147713, Note_off_c, 10, 50, 64
21, 147831, Note_on_c, 10, 52, 82
21, 147954, Note_off_c, 10, 52, 64
21, 148056, Note_on_c, 10, 50, 66
21, 148175, Note_off_c, 10, 50, 64
21, 148299, Note_on_c, 10, 52, 66
21, 148413, Note_off_c, 10, 52, 64
21, 148537, Note_on_c, 10, 54, 66
21, 148668, Note_off_c, 10, 54, 64
21, 148778, Note_on_c, 10, 55, 89
21, 148893, Note_off_c, 10, 55, 64
21, 149003, Note_on_c, 10, 54, 63
21, 149122, Note_off_c, 10, 54, 64
21, 149253, Note_on_c, 10, 55, 74
21, 149361, Note_off_c, 10, 55, 64
21, 149486, Note_on_c, 10, 52, 85
21, 149588, Note_off_c, 10, 52, 64
21, 149741, Note_on_c, 10, 54, 85
21, 149939, Note_off_c, 10, 54, 64
21, 149981, Note_on_c, 10, 56, 91
21, 150049, Note_off_c, 10, 56, 64
21, 150083, Note_on_c, 10, 58, 85
21, 150173, Note_off_c, 10, 58, 64
21, 150221, Note_on_c, 10, 59, 100
21, 150342, Note_off_c, 10, 59, 64
21, 150458, Note_on_c, 10, 57, 78
21, 150566, Note_off_c, 10, 57, 64
21, 150692, Note_on_c, 10, 56, 76
21, 150816, Note_off_c, 10, 56, 64
21, 150938, Note_on_c, 10, 61, 76
21, 151062, Note_off_c, 10, 61, 64
21, 151183, Note_on_c, 10, 58, 78
21, 151302, Note_off_c, 10, 58, 64
21, 151433, Note_on_c, 10, 54, 72
21, 151543, Note_off_c, 10, 54, 64
21, 151669, Note_on_c, 10, 59, 85
21, 151775, Note_off_c, 10, 59, 64
21, 151912, Note_on_c, 10, 55, 87
21, 152006, Note_off_c, 10, 55, 64
21, 152148, Note_on_c, 10, 52, 87
21, 152322, Note_off_c, 10, 52, 64
21, 152376, Note_on_c, 10, 50, 80
21, 152466, Note_off_c, 10, 50, 64
21, 152490, Note_on_c, 10, 49, 93
21, 152580, Note_off_c, 10, 49, 64
21, 152627, Note_on_c, 10, 50, 98
21, 152756, Note_off_c, 10, 50, 64
21, 152855, Note_on_c, 10, 52, 82
21, 152960, Note_off_c, 10, 52, 64
21, 153095, Note_on_c, 10, 54, 87
21, 153190, Note_off_c, 10, 54, 64
21, 153329, Note_on_c, 10, 42, 70
21, 153408, Note_off_c, 10, 42, 64
21, 153570, Note_on_c, 10, 47, 89
21, 153719, Note_off_c, 10, 47, 64
21, 153815, Note_on_c, 10, 57, 76
21, 153874, Note_off_c, 10, 57, 64
21, 153919, Note_on_c, 10, 54, 93
21, 153982, Note_off_c, 10, 54, 64
21, 154056, Note_on_c, 10, 55, 85
21, 154743, Note_off_c, 10, 55, 64
21, 154797, Note_on_c, 10, 54, 80
21, 154862, Note_off_c, 10, 54, 64
21, 154897, Note_on_c, 10, 52, 82
21, 154968, Note_off_c, 10, 52, 64
21, 155040, Note_on_c, 10, 51, 80
21, 155159, Note_off_c, 10, 51, 64
21, 155276, Note_on_c, 10, 47, 87
21, 155359, Note_off_c, 10, 47, 64
21, 155503, Note_on_c, 10, 52, 87
21, 155712, Note_off_c, 10, 52, 64
21, 155755, Note_on_c, 10, 54, 98
21, 155827, Note_off_c, 10, 54, 64
21, 155858, Note_on_c, 10, 55, 91
21, 155939, Note_off_c, 10, 55, 64
21, 155985, Note_on_c, 10, 57, 95
21, 156101, Note_off_c, 10, 57, 64
21, 156223, Note_on_c, 10, 49, 85
21, 156340, Note_off_c, 10, 49, 64
21, 156473, Note_on_c, 10, 50, 89
21, 156588, Note_off_c, 10, 50, 64
21, 156707, Note_on_c, 10, 47, 82
21, 156831, Note_off_c, 10, 47, 64
21, 156947, Note_on_c, 10, 43, 87
21, 157069, Note_off_c, 10, 43, 64
21, 157176, Note_on_c, 10, 44, 78
21, 157262, Note_off_c, 10, 44, 64
21, 157413, Note_on_c, 10, 45, 89
21, 157616, Note_off_c, 10, 45, 64
21, 157656, Note_on_c, 10, 47, 76
21, 157748, Note_off_c, 10, 47, 64
21, 157764, Note_on_c, 10, 49, 98
21, 157836, Note_off_c, 10, 49, 64
21, 157881, Note_on_c, 10, 50, 68
21, 157976, Note_off_c, 10, 50, 64
21, 158005, Note_on_c, 10, 52, 87
21, 158079, Note_off_c, 10, 52, 64
21, 158133, Note_on_c, 10, 54, 100
21, 158554, Note_off_c, 10, 54, 64
21, 158619, Note_on_c, 10, 52, 85
21, 158702, Note_off_c, 10, 52, 64
21, 158718, Note_on_c, 10, 50, 85
21, 158795, Note_off_c, 10, 50, 64
21, 158831, Note_on_c, 10, 52, 87
21, 158923, Note_off_c, 10, 52, 64
21, 158946, Note_on_c, 10, 54, 95
21, 159042, Note_off_c, 10, 54, 64
21, 159083, Note_on_c, 10, 55, 98
21, 159490, Note_off_c, 10, 55, 64
21, 159569, Note_on_c, 10, 52, 85
21, 159697, Note_off_c, 10, 52, 64
21, 159816, Note_on_c, 10, 49, 82
21, 159940, Note_off_c, 10, 49, 64
21, 160050, Note_on_c, 10, 45, 82
21, 160181, Note_off_c, 10, 45, 64
21, 160295, Note_on_c, 10, 50, 87
21, 160410, Note_off_c, 10, 50, 64
21, 160539, Note_on_c, 10, 55, 87
21, 160646, Note_off_c, 10, 55, 64
21, 160784, Note_on_c, 10, 57, 91
21, 160883, Note_off_c, 10, 57, 64
21, 161013, Note_on_c, 10, 45, 91
21, 161096, Note_off_c, 10, 45, 64
21, 161263, Note_on_c, 10, 50, 89
21, 161544, Note_off_c, 10, 50, 64
21, 161544, End_track
0, 0, End_of_file
