0, 0, Header, 1, 21, 240
1, 0, Start_track
1, 0, Time_signature, 4, 2, 24, 8
1, 0, Tempo, 297030
1, 60660, Tempo, 307692
1, 60888, Tempo, 319149
1, 61140, Tempo, 329670
1, 61296, Tempo, 348837
1, 61356, Tempo, 392157
1, 61440, Tempo, 297030
1, 61440, End_track
2, 0, Start_track
2, 0, Title_t, "Trumpet"
2, 0, Program_c, 0, 56
2, 0, Control_c, 0, 7, 127
2, 1190, Note_on_c, 0, 69, 91
2, 1294, Note_off_c, 0, 69, 64
2, 1433, Note_on_c, 0, 74, 87
2, 1573, Note_off_c, 0, 74, 64
2, 2157, Note_on_c, 0, 69, 89
2, 2248, Note_off_c, 0, 69, 64
2, 2394, Note_on_c, 0, 74, 87
2, 2555, Note_off_c, 0, 74, 64
2, 3127, Note_on_c, 0, 78, 105
2, 3205, Note_off_c, 0, 78, 64
2, 3235, Note_on_c, 0, 76, 98
2, 3317, Note_off_c, 0, 76, 64
2, 3354, Note_on_c, 0, 78, 98
2, 3459, Note_off_c, 0, 78, 64
2, 3588, Note_on_c, 0, 80, 89
2, 3704, Note_off_c, 0, 80, 64
2, 3832, Note_on_c, 0, 81, 100
2, 3915, Note_off_c, 0, 81, 64
2, 3935, Note_on_c, 0, 80, 95
2, 4005, Note_off_c, 0, 80, 64
2, 4045, Note_on_c, 0, 81, 82
2, 4122, Note_off_c, 0, 81, 64
2, 4165, Note_on_c, 0, 83, 93
2, 4227, Note_off_c, 0, 83, 64
2, 4295, Note_on_c, 0, 81, 102
2, 4521, Note_off_c, 0, 81, 64
2, 5032, Note_on_c, 0, 78, 87
2, 5110, Note_off_c, 0, 78, 64
2, 5262, Note_on_c, 0, 83, 87
2, 5451, Note_off_c, 0, 83, 64
2, 5998, Note_on_c, 0, 76, 91
2, 6080, Note_off_c, 0, 76, 64
2, 6241, Note_on_c, 0, 83, 95
2, 6453, Note_off_c, 0, 83, 64
2, 6965, Note_on_c, 0, 81, 91
2, 7064, Note_off_c, 0, 81, 64
2, 7206, Note_on_c, 0, 85, 98
2, 7261, Note_off_c, 0, 85, 64
2, 7304, Note_on_c, 0, 83, 95
2, 7355, Note_off_c, 0, 83, 64
2, 7405, Note_on_c, 0, 81, 82
2, 7465, Note_off_c, 0, 81, 64
2, 7514, Note_on_c, 0, 80, 100
2, 7578, Note_off_c, 0, 80, 64
2, 7644, Note_on_c, 0, 81, 100
2, 8120, Note_off_c, 0, 81, 64
2, 8869, Note_on_c, 0, 69, 85
2, 8962, Note_off_c, 0, 69, 64
2, 9119, Note_on_c, 0, 74, 91
2, 9287, Note_off_c, 0, 74, 64
2, 9843, Note_on_c, 0, 69, 87
2, 9952, Note_off_c, 0, 69, 64
2, 10090, Note_on_c, 0, 74, 98
2, 10296, Note_off_c, 0, 74, 64
2, 10799, Note_on_c, 0, 78, 100
2, 10876, Note_off_c, 0, 78, 64
2, 10909, Note_on_c, 0, 76, 82
2, 10996, Note_off_c, 0, 76, 64
2, 11034, Note_on_c, 0, 78, 98
2, 11118, Note_off_c, 0, 78, 64
2, 11259, Note_on_c, 0, 80, 93
2, 11356, Note_off_c, 0, 80, 64
2, 11516, Note_on_c, 0, 81, 100
2, 11587, Note_off_c, 0, 81, 64
2, 11620, Note_on_c, 0, 80, 100
2, 11695, Note_off_c, 0, 80, 64
2, 11739, Note_on_c, 0, 81, 87
2, 11817, Note_off_c, 0, 81, 64
2, 11856, Note_on_c, 0, 83, 95
2, 11915, Note_off_c, 0, 83, 64
2, 11985, Note_on_c, 0, 81, 102
2, 12190, Note_off_c, 0, 81, 64
2, 12703, Note_on_c, 0, 78, 87
2, 12782, Note_off_c, 0, 78, 64
2, 12952, Note_on_c, 0, 83, 95
2, 13143, Note_off_c, 0, 83, 64
2, 13681, Note_on_c, 0, 76, 98
2, 13772, Note_off_c, 0, 76, 64
2, 13931, Note_on_c, 0, 83, 95
2, 14141, Note_off_c, 0, 83, 64
2, 14646, Note_on_c, 0, 81, 89
2, 14735, Note_off_c, 0, 81, 64
2, 14887, Note_on_c, 0, 85, 89
2, 14948, Note_off_c, 0, 85, 64
2, 14993, Note_on_c, 0, 83, 95
2, 15051, Note_off_c, 0, 83, 64
2, 15093, Note_on_c, 0, 81, 87
2, 15159, Note_off_c, 0, 81, 64
2, 15204, Note_on_c, 0, 80, 100
2, 15259, Note_off_c, 0, 80, 64
2, 15332, Note_on_c, 0, 81, 100
2, 15824, Note_off_c, 0, 81, 64
2, 39561, Note_on_c, 0, 76, 85
2, 39663, Note_off_c, 0, 76, 64
2, 39803, Note_on_c, 0, 81, 89
2, 39960, Note_off_c, 0, 81, 64
2, 40562, Note_on_c, 0, 76, 89
2, 40662, Note_off_c, 0, 76, 64
2, 40797, Note_on_c, 0, 81, 91
2, 40945, Note_off_c, 0, 81, 64
2, 41527, Note_on_c, 0, 74, 89
2, 41616, Note_off_c, 0, 74, 64
2, 41759, Note_on_c, 0, 79, 93
2, 41924, Note_off_c, 0, 79, 64
2, 41987, Note_on_c, 0, 78, 76
2, 42050, Note_off_c, 0, 78, 64
2, 42100, Note_on_c, 0, 76, 85
2, 42173, Note_off_c, 0, 76, 64
2, 42225, Note_on_c, 0, 78, 98
2, 42304, Note_off_c, 0, 78, 64
2, 42329, Note_on_c, 0, 79, 82
2, 42402, Note_off_c, 0, 79, 64
2, 42453, Note_on_c, 0, 78, 82
2, 42521, Note_off_c, 0, 78, 64
2, 42570, Note_on_c, 0, 76, 98
2, 42647, Note_off_c, 0, 76, 64
2, 42696, Note_on_c, 0, 74, 87
2, 42917, Note_off_c, 0, 74, 64
2, 51119, Note_on_c, 0, 69, 87
2, 51212, Note_off_c, 0, 69, 64
2, 51358, Note_on_c, 0, 74, 89
2, 51573, Note_off_c, 0, 74, 64
2, 52081, Note_on_c, 0, 69, 89
2, 52163, Note_off_c, 0, 69, 64
2, 52318, Note_on_c, 0, 74, 93
2, 52568, Note_off_c, 0, 74, 64
2, 53044, Note_on_c, 0, 78, 89
2, 53128, Note_off_c, 0, 78, 64
2, 53148, Note_on_c, 0, 79, 82
2, 53235, Note_off_c, 0, 79, 64
2, 53272, Note_on_c, 0, 81, 91
2, 53348, Note_off_c, 0, 81, 64
2, 53380, Note_on_c, 0, 83, 85
2, 53449, Note_off_c, 0, 83, 64
2, 53503, Note_on_c, 0, 81, 91
2, 53578, Note_off_c, 0, 81, 64
2, 53616, Note_on_c, 0, 83, 85
2, 53680, Note_off_c, 0, 83, 64
2, 53731, Note_on_c, 0, 79, 89
2, 53802, Note_off_c, 0, 79, 64
2, 53843, Note_on_c, 0, 81, 98
2, 53910, Note_off_c, 0, 81, 64
2, 53963, Note_on_c, 0, 83, 95
2, 54023, Note_off_c, 0, 83, 64
2, 54078, Note_on_c, 0, 81, 98
2, 54134, Note_off_c, 0, 81, 64
2, 54209, Note_on_c, 0, 79, 100
2, 54475, Note_off_c, 0, 79, 64
2, 58800, Note_on_c, 0, 78, 87
2, 58886, Note_off_c, 0, 78, 64
2, 59026, Note_on_c, 0, 83, 89
2, 59262, Note_off_c, 0, 83, 64
2, 59747, Note_on_c, 0, 83, 87
2, 59818, Note_off_c, 0, 83, 64
2, 59982, Note_on_c, 0, 86, 91
2, 60258, Note_off_c, 0, 86, 64
2, 60706, Note_on_c, 0, 81, 89
2, 60778, Note_off_c, 0, 81, 64
2, 60814, Note_on_c, 0, 79, 95
2, 60887, Note_off_c, 0, 79, 64
2, 60931, Note_on_c, 0, 78, 91
2, 61005, Note_off_c, 0, 78, 64
2, 61042, Note_on_c, 0, 79, 91
2, 61106, Note_off_c, 0, 79, 64
2, 61166, Note_on_c, 0, 81, 87
2, 61222, Note_off_c, 0, 81, 64
2, 61277, Note_on_c, 0, 79, 105
2, 61345, Note_off_c, 0, 79, 64
2, 61427, Note_on_c, 0, 78, 105
2, 61921, Note_off_c, 0, 78, 64
2, 61921, End_track
3, 0, Start_track
3, 0, Title_t, "Trumpet"
3, 0, Program_c, 1, 56
3, 0, Control_c, 1, 7, 127
3, 1192, Note_on_c, 1, 66, 91
3, 1299, Note_off_c, 1, 66, 64
3, 1427, Note_on_c, 1, 69, 100
3, 1597, Note_off_c, 1, 69, 64
3, 2159, Note_on_c, 1, 66, 87
3, 2261, Note_off_c, 1, 66, 64
3, 2400, Note_on_c, 1, 69, 89
3, 2571, Note_off_c, 1, 69, 64
3, 3137, Note_on_c, 1, 74, 89
3, 3200, Note_off_c, 1, 74, 64
3, 3231, Note_on_c, 1, 73, 87
3, 3308, Note_off_c, 1, 73, 64
3, 3354, Note_on_c, 1, 74, 89
3, 3459, Note_off_c, 1, 74, 64
3, 3596, Note_on_c, 1, 74, 100
3, 3700, Note_off_c, 1, 74, 64
3, 3832, Note_on_c, 1, 76, 89
3, 3952, Note_off_c, 1, 76, 64
3, 4074, Note_on_c, 1, 69, 107
3, 4123, Note_off_c, 1, 69, 64
3, 4178, Note_on_c, 1, 69, 95
3, 4233, Note_off_c, 1, 69, 64
3, 4298, Note_on_c, 1, 69, 105
3, 4470, Note_off_c, 1, 69, 64
3, 5032, Note_on_c, 1, 74, 91
3, 5127, Note_off_c, 1, 74, 64
3, 5267, Note_on_c, 1, 78, 105
3, 5440, Note_off_c, 1, 78, 64
3, 6011, Note_on_c, 1, 76, 105
3, 6093, Note_off_c, 1, 76, 64
3, 6252, Note_on_c, 1, 76, 110
3, 6449, Note_off_c, 1, 76, 64
3, 6963, Note_on_c, 1, 76, 98
3, 7073, Note_off_c, 1, 76, 64
3, 7194, Note_on_c, 1, 78, 89
3, 7286, Note_off_c, 1, 78, 64
3, 7425, Note_on_c, 1, 76, 100
3, 7498, Note_off_c, 1, 76, 64
3, 7658, Note_on_c, 1, 76, 102
3, 8128, Note_off_c, 1, 76, 64
3, 8864, Note_on_c, 1, 66, 105
3, 8962, Note_off_c, 1, 66, 64
3, 9108, Note_on_c, 1, 69, 100
3, 9263, Note_off_c, 1, 69, 64
3, 9836, Note_on_c, 1, 66, 93
3, 9936, Note_off_c, 1, 66, 64
3, 10086, Note_on_c, 1, 69, 91
3, 10270, Note_off_c, 1, 69, 64
3, 10821, Note_on_c, 1, 74, 100
3, 10912, Note_off_c, 1, 74, 64
3, 10912, Note_on_c, 1, 73, 100
3, 10987, Note_off_c, 1, 73, 64
3, 11027, Note_on_c, 1, 74, 93
3, 11137, Note_off_c, 1, 74, 64
3, 11257, Note_on_c, 1, 74, 87
3, 11361, Note_off_c, 1, 74, 64
3, 11512, Note_on_c, 1, 76, 93
3, 11627, Note_off_c, 1, 76, 64
3, 11753, Note_on_c, 1, 69, 93
3, 11802, Note_off_c, 1, 69, 64
3, 11841, Note_on_c, 1, 69, 85
3, 11912, Note_off_c, 1, 69, 64
3, 11981, Note_on_c, 1, 69, 100
3, 12083, Note_off_c, 1, 69, 64
3, 12711, Note_on_c, 1, 74, 93
3, 12787, Note_off_c, 1, 74, 64
3, 12946, Note_on_c, 1, 78, 100
3, 13127, Note_off_c, 1, 78, 64
3, 13690, Note_on_c, 1, 76, 89
3, 13763, Note_off_c, 1, 76, 64
3, 13931, Note_on_c, 1, 76, 107
3, 14133, Note_off_c, 1, 76, 64
3, 14626, Note_on_c, 1, 76, 89
3, 14712, Note_off_c, 1, 76, 64
3, 14859, Note_on_c, 1, 78, 85
3, 14973, Note_off_c, 1, 78, 64
3, 15097, Note_on_c, 1, 76, 105
3, 15174, Note_off_c, 1, 76, 64
3, 15346, Note_on_c, 1, 76, 113
3, 15838, Note_off_c, 1, 76, 64
3, 39564, Note_on_c, 1, 69, 98
3, 39652, Note_off_c, 1, 69, 64
3, 39809, Note_on_c, 1, 76, 100
3, 40051, Note_off_c, 1, 76, 64
3, 40556, Note_on_c, 1, 69, 98
3, 40646, Note_off_c, 1, 69, 64
3, 40797, Note_on_c, 1, 76, 102
3, 41084, Note_off_c, 1, 76, 64
3, 41518, Note_on_c, 1, 78, 87
3, 41617, Note_off_c, 1, 78, 64
3, 41746, Note_on_c, 1, 76, 85
3, 41855, Note_off_c, 1, 76, 64
3, 41981, Note_on_c, 1, 76, 85
3, 42076, Note_off_c, 1, 76, 64
3, 42218, Note_on_c, 1, 74, 95
3, 42379, Note_off_c, 1, 74, 64
3, 42461, Note_on_c, 1, 74, 100
3, 42508, Note_off_c, 1, 74, 64
3, 42557, Note_on_c, 1, 74, 93
3, 42608, Note_off_c, 1, 74, 64
3, 42678, Note_on_c, 1, 69, 98
3, 42953, Note_off_c, 1, 69, 64
3, 51128, Note_on_c, 1, 66, 102
3, 51216, Note_off_c, 1, 66, 64
3, 51363, Note_on_c, 1, 62, 89
3, 51615, Note_off_c, 1, 62, 64
3, 52090, Note_on_c, 1, 66, 89
3, 52162, Note_off_c, 1, 66, 64
3, 52326, Note_on_c, 1, 69, 85
3, 52574, Note_off_c, 1, 69, 64
3, 53061, Note_on_c, 1, 74, 91
3, 53138, Note_off_c, 1, 74, 64
3, 53165, Note_on_c, 1, 76, 87
3, 53235, Note_off_c, 1, 76, 64
3, 53277, Note_on_c, 1, 78, 87
3, 53348, Note_off_c, 1, 78, 64
3, 53384, Note_on_c, 1, 79, 95
3, 53452, Note_off_c, 1, 79, 64
3, 53503, Note_on_c, 1, 78, 95
3, 53569, Note_off_c, 1, 78, 64
3, 53614, Note_on_c, 1, 76, 102
3, 53678, Note_off_c, 1, 76, 64
3, 53742, Note_on_c, 1, 74, 102
3, 53981, Note_off_c, 1, 74, 64
3, 58799, Note_on_c, 1, 74, 98
3, 58872, Note_off_c, 1, 74, 64
3, 59031, Note_on_c, 1, 78, 91
3, 59290, Note_off_c, 1, 78, 64
3, 59749, Note_on_c, 1, 76, 95
3, 59820, Note_off_c, 1, 76, 64
3, 59984, Note_on_c, 1, 83, 98
3, 60276, Note_off_c, 1, 83, 64
3, 60705, Note_on_c, 1, 78, 100
3, 60765, Note_off_c, 1, 78, 64
3, 60809, Note_on_c, 1, 76, 100
3, 60880, Note_off_c, 1, 76, 64
3, 60929, Note_on_c, 1, 74, 100
3, 61019, Note_off_c, 1, 74, 64
3, 61163, Note_on_c, 1, 76, 98
3, 61221, Note_off_c, 1, 76, 64
3, 61398, Note_on_c, 1, 74, 110
3, 61923, Note_off_c, 1, 74, 64
3, 61923, End_track
4, 0, Start_track
4, 0, Title_t, "Trumpet"
4, 0, Program_c, 2, 56
4, 0, Control_c, 2, 7, 127
4, 1187, Note_on_c, 2, 62, 91
4, 1292, Note_off_c, 2, 62, 64
4, 1435, Note_on_c, 2, 66, 100
4, 1614, Note_off_c, 2, 66, 64
4, 2166, Note_on_c, 2, 62, 98
4, 2267, Note_off_c, 2, 62, 64
4, 2401, Note_on_c, 2, 66, 98
4, 2569, Note_off_c, 2, 66, 64
4, 3124, Note_on_c, 2, 66, 87
4, 3233, Note_off_c, 2, 66, 64
4, 3361, Note_on_c, 2, 62, 89
4, 3461, Note_off_c, 2, 62, 64
4, 3587, Note_on_c, 2, 62, 98
4, 3678, Note_off_c, 2, 62, 64
4, 3832, Note_on_c, 2, 69, 98
4, 3970, Note_off_c, 2, 69, 64
4, 4069, Note_on_c, 2, 69, 98
4, 4122, Note_off_c, 2, 69, 64
4, 4169, Note_on_c, 2, 69, 95
4, 4231, Note_off_c, 2, 69, 64
4, 4291, Note_on_c, 2, 69, 98
4, 4472, Note_off_c, 2, 69, 64
4, 5028, Note_on_c, 2, 66, 93
4, 5145, Note_off_c, 2, 66, 64
4, 5274, Note_on_c, 2, 74, 102
4, 5440, Note_off_c, 2, 74, 64
4, 5998, Note_on_c, 2, 74, 100
4, 6101, Note_off_c, 2, 74, 64
4, 6237, Note_on_c, 2, 74, 102
4, 6427, Note_off_c, 2, 74, 64
4, 6961, Note_on_c, 2, 69, 85
4, 7056, Note_off_c, 2, 69, 64
4, 7191, Note_on_c, 2, 74, 87
4, 7306, Note_off_c, 2, 74, 64
4, 7436, Note_on_c, 2, 74, 100
4, 7512, Note_off_c, 2, 74, 64
4, 7667, Note_on_c, 2, 69, 105
4, 8136, Note_off_c, 2, 69, 64
4, 8876, Note_on_c, 2, 62, 89
4, 8951, Note_off_c, 2, 62, 64
4, 9108, Note_on_c, 2, 66, 100
4, 9316, Note_off_c, 2, 66, 64
4, 9854, Note_on_c, 2, 62, 91
4, 9931, Note_off_c, 2, 62, 64
4, 10082, Note_on_c, 2, 66, 107
4, 10305, Note_off_c, 2, 66, 64
4, 10799, Note_on_c, 2, 66, 85
4, 10898, Note_off_c, 2, 66, 64
4, 11040, Note_on_c, 2, 62, 87
4, 11146, Note_off_c, 2, 62, 64
4, 11275, Note_on_c, 2, 62, 91
4, 11352, Note_off_c, 2, 62, 64
4, 11503, Note_on_c, 2, 69, 93
4, 11653, Note_off_c, 2, 69, 64
4, 11740, Note_on_c, 2, 69, 89
4, 11795, Note_off_c, 2, 69, 64
4, 11850, Note_on_c, 2, 69, 100
4, 11903, Note_off_c, 2, 69, 64
4, 11974, Note_on_c, 2, 69, 100
4, 12198, Note_off_c, 2, 69, 64
4, 12724, Note_on_c, 2, 66, 87
4, 12796, Note_off_c, 2, 66, 64
4, 12962, Note_on_c, 2, 74, 98
4, 13156, Note_off_c, 2, 74, 64
4, 13694, Note_on_c, 2, 74, 85
4, 13758, Note_off_c, 2, 74, 64
4, 13933, Note_on_c, 2, 74, 102
4, 14161, Note_off_c, 2, 74, 64
4, 14642, Note_on_c, 2, 69, 87
4, 14734, Note_off_c, 2, 69, 64
4, 14876, Note_on_c, 2, 74, 91
4, 14949, Note_off_c, 2, 74, 64
4, 15104, Note_on_c, 2, 74, 95
4, 15164, Note_off_c, 2, 74, 64
4, 15341, Note_on_c, 2, 69, 113
4, 15841, Note_off_c, 2, 69, 64
4, 39566, Note_on_c, 2, 69, 100
4, 39608, Note_off_c, 2, 69, 64
4, 39670, Note_on_c, 2, 69, 89
4, 39710, Note_off_c, 2, 69, 64
4, 39803, Note_on_c, 2, 69, 110
4, 40104, Note_off_c, 2, 69, 64
4, 40555, Note_on_c, 2, 69, 107
4, 40604, Note_off_c, 2, 69, 64
4, 40662, Note_on_c, 2, 69, 91
4, 40712, Note_off_c, 2, 69, 64
4, 40800, Note_on_c, 2, 69, 110
4, 41091, Note_off_c, 2, 69, 64
4, 41529, Note_on_c, 2, 74, 98
4, 41625, Note_off_c, 2, 74, 64
4, 41751, Note_on_c, 2, 74, 85
4, 41862, Note_off_c, 2, 74, 64
4, 41983, Note_on_c, 2, 69, 87
4, 42087, Note_off_c, 2, 69, 64
4, 42224, Note_on_c, 2, 69, 95
4, 42355, Note_off_c, 2, 69, 64
4, 42452, Note_on_c, 2, 69, 87
4, 42497, Note_off_c, 2, 69, 64
4, 42561, Note_on_c, 2, 69, 82
4, 42603, Note_off_c, 2, 69, 64
4, 42691, Note_on_c, 2, 66, 105
4, 42962, Note_off_c, 2, 66, 64
4, 51115, Note_on_c, 2, 62, 100
4, 51185, Note_off_c, 2, 62, 64
4, 51353, Note_on_c, 2, 69, 91
4, 51619, Note_off_c, 2, 69, 64
4, 52078, Note_on_c, 2, 62, 105
4, 52144, Note_off_c, 2, 62, 64
4, 52328, Note_on_c, 2, 62, 107
4, 52580, Note_off_c, 2, 62, 64
4, 53049, Note_on_c, 2, 69, 91
4, 53142, Note_off_c, 2, 69, 64
4, 53277, Note_on_c, 2, 74, 95
4, 53359, Note_off_c, 2, 74, 64
4, 53500, Note_on_c, 2, 62, 98
4, 53569, Note_off_c, 2, 62, 64
4, 53749, Note_on_c, 2, 62, 105
4, 53981, Note_off_c, 2, 62, 64
4, 58801, Note_on_c, 2, 66, 102
4, 58859, Note_off_c, 2, 66, 64
4, 59040, Note_on_c, 2, 62, 105
4, 59315, Note_off_c, 2, 62, 64
4, 59761, Note_on_c, 2, 74, 105
4, 59818, Note_off_c, 2, 74, 64
4, 59984, Note_on_c, 2, 76, 105
4, 60306, Note_off_c, 2, 76, 64
4, 60707, Note_on_c, 2, 69, 110
4, 60760, Note_off_c, 2, 69, 64
4, 60813, Note_on_c, 2, 69, 93
4, 60871, Note_off_c, 2, 69, 64
4, 60931, Note_on_c, 2, 69, 105
4, 61020, Note_off_c, 2, 69, 64
4, 61163, Note_on_c, 2, 69, 110
4, 61234, Note_off_c, 2, 69, 64
4, 61418, Note_on_c, 2, 69, 116
4, 61903, Note_off_c, 2, 69, 64
4, 61903, End_track
5, 0, Start_track
5, 0, Title_t, "Timpaniit"
5, 0, Program_c, 3, 47
5, 0, Control_c, 3, 7, 100
5, 1207, Note_on_c, 3, 50, 102
5, 1261, Note_off_c, 3, 50, 64
5, 1313, Note_on_c, 3, 50, 102
5, 1371, Note_off_c, 3, 50, 64
5, 1435, Note_on_c, 3, 50, 107
5, 1553, Note_off_c, 3, 50, 64
5, 2179, Note_on_c, 3, 50, 110
5, 2243, Note_off_c, 3, 50, 64
5, 2285, Note_on_c, 3, 50, 87
5, 2345, Note_off_c, 3, 50, 64
5, 2420, Note_on_c, 3, 50, 107
5, 2531, Note_off_c, 3, 50, 64
5, 3122, Note_on_c, 3, 50, 102
5, 3177, Note_off_c, 3, 50, 64
5, 3230, Note_on_c, 3, 50, 95
5, 3292, Note_off_c, 3, 50, 64
5, 3354, Note_on_c, 3, 50, 102
5, 3430, Note_off_c, 3, 50, 64
5, 3587, Note_on_c, 3, 50, 100
5, 3658, Note_off_c, 3, 50, 64
5, 3841, Note_on_c, 3, 45, 107
5, 3928, Note_off_c, 3, 45, 64
5, 4078, Note_on_c, 3, 45, 105
5, 4129, Note_off_c, 3, 45, 64
5, 4184, Note_on_c, 3, 45, 105
5, 4240, Note_off_c, 3, 45, 64
5, 4308, Note_on_c, 3, 45, 119
5, 4421, Note_off_c, 3, 45, 64
5, 5041, Note_on_c, 3, 50, 105
5, 5094, Note_off_c, 3, 50, 64
5, 5145, Note_on_c, 3, 50, 91
5, 5203, Note_off_c, 3, 50, 64
5, 5265, Note_on_c, 3, 50, 102
5, 5345, Note_off_c, 3, 50, 64
5, 6013, Note_on_c, 3, 50, 110
5, 6070, Note_off_c, 3, 50, 64
5, 6120, Note_on_c, 3, 50, 98
5, 6177, Note_off_c, 3, 50, 64
5, 6241, Note_on_c, 3, 50, 105
5, 6327, Note_off_c, 3, 50, 64
5, 6963, Note_on_c, 3, 45, 102
5, 7049, Note_off_c, 3, 45, 64
5, 7189, Note_on_c, 3, 50, 119
5, 7284, Note_off_c, 3, 50, 64
5, 7656, Note_on_c, 3, 45, 122
5, 7779, Note_off_c, 3, 45, 64
5, 8877, Note_on_c, 3, 50, 113
5, 8928, Note_off_c, 3, 50, 64
5, 8977, Note_on_c, 3, 50, 100
5, 9034, Note_off_c, 3, 50, 64
5, 9094, Note_on_c, 3, 50, 107
5, 9183, Note_off_c, 3, 50, 64
5, 9847, Note_on_c, 3, 50, 107
5, 9896, Note_off_c, 3, 50, 64
5, 9951, Note_on_c, 3, 50, 98
5, 10002, Note_off_c, 3, 50, 64
5, 10071, Note_on_c, 3, 50, 105
5, 10153, Note_off_c, 3, 50, 64
5, 10810, Note_on_c, 3, 50, 107
5, 10863, Note_off_c, 3, 50, 64
5, 10910, Note_on_c, 3, 50, 98
5, 10967, Note_off_c, 3, 50, 64
5, 11025, Note_on_c, 3, 50, 107
5, 11096, Note_off_c, 3, 50, 64
5, 11257, Note_on_c, 3, 50, 107
5, 11327, Note_off_c, 3, 50, 64
5, 11507, Note_on_c, 3, 45, 122
5, 11596, Note_off_c, 3, 45, 64
5, 11751, Note_on_c, 3, 45, 119
5, 11801, Note_off_c, 3, 45, 64
5, 11863, Note_on_c, 3, 45, 107
5, 11917, Note_off_c, 3, 45, 64
5, 11987, Note_on_c, 3, 45, 119
5, 12091, Note_off_c, 3, 45, 64
5, 12722, Note_on_c, 3, 50, 102
5, 12775, Note_off_c, 3, 50, 64
5, 12827, Note_on_c, 3, 50, 102
5, 12882, Note_off_c, 3, 50, 64
5, 12955, Note_on_c, 3, 50, 107
5, 13052, Note_off_c, 3, 50, 64
5, 13681, Note_on_c, 3, 50, 107
5, 13741, Note_off_c, 3, 50, 64
5, 13792, Note_on_c, 3, 50, 102
5, 13856, Note_off_c, 3, 50, 64
5, 13915, Note_on_c, 3, 50, 105
5, 14006, Note_off_c, 3, 50, 64
5, 14662, Note_on_c, 3, 45, 102
5, 14739, Note_off_c, 3, 45, 64
5, 14883, Note_on_c, 3, 50, 116
5, 14954, Note_off_c, 3, 50, 64
5, 15352, Note_on_c, 3, 45, 116
5, 15476, Note_off_c, 3, 45, 64
5, 39572, Note_on_c, 3, 45, 105
5, 39623, Note_off_c, 3, 45, 64
5, 39682, Note_on_c, 3, 45, 87
5, 39734, Note_off_c, 3, 45, 64
5, 39807, Note_on_c, 3, 45, 107
5, 39913, Note_off_c, 3, 45, 64
5, 40556, Note_on_c, 3, 45, 105
5, 40609, Note_off_c, 3, 45, 64
5, 40666, Note_on_c, 3, 45, 102
5, 40732, Note_off_c, 3, 45, 64
5, 40794, Note_on_c, 3, 45, 105
5, 40898, Note_off_c, 3, 45, 64
5, 41515, Note_on_c, 3, 50, 100
5, 41586, Note_off_c, 3, 50, 64
5, 41737, Note_on_c, 3, 50, 102
5, 41815, Note_off_c, 3, 50, 64
5, 41990, Note_on_c, 3, 45, 105
5, 42058, Note_off_c, 3, 45, 64
5, 42221, Note_on_c, 3, 50, 107
5, 42304, Note_off_c, 3, 50, 64
5, 42464, Note_on_c, 3, 50, 107
5, 42515, Note_off_c, 3, 50, 64
5, 42568, Note_on_c, 3, 50, 100
5, 42619, Note_off_c, 3, 50, 64
5, 42685, Note_on_c, 3, 50, 110
5, 42760, Note_off_c, 3, 50, 64
5, 51132, Note_on_c, 3, 50, 107
5, 51188, Note_off_c, 3, 50, 64
5, 51245, Note_on_c, 3, 50, 102
5, 51301, Note_off_c, 3, 50, 64
5, 51365, Note_on_c, 3, 50, 110
5, 51476, Note_off_c, 3, 50, 64
5, 52098, Note_on_c, 3, 50, 110
5, 52159, Note_off_c, 3, 50, 64
5, 52215, Note_on_c, 3, 50, 107
5, 52274, Note_off_c, 3, 50, 64
5, 52332, Note_on_c, 3, 50, 113
5, 52441, Note_off_c, 3, 50, 64
5, 53058, Note_on_c, 3, 50, 113
5, 53109, Note_off_c, 3, 50, 64
5, 53165, Note_on_c, 3, 50, 102
5, 53229, Note_off_c, 3, 50, 64
5, 53295, Note_on_c, 3, 50, 110
5, 53370, Note_off_c, 3, 50, 64
5, 53519, Note_on_c, 3, 50, 122
5, 53589, Note_off_c, 3, 50, 64
5, 53742, Note_on_c, 3, 50, 122
5, 53837, Note_off_c, 3, 50, 64
5, 58784, Note_on_c, 3, 50, 110
5, 58837, Note_off_c, 3, 50, 64
5, 58892, Note_on_c, 3, 50, 100
5, 58945, Note_off_c, 3, 50, 64
5, 59021, Note_on_c, 3, 50, 113
5, 59111, Note_off_c, 3, 50, 64
5, 59758, Note_on_c, 3, 50, 116
5, 59813, Note_off_c, 3, 50, 64
5, 59866, Note_on_c, 3, 50, 100
5, 59919, Note_off_c, 3, 50, 64
5, 59986, Note_on_c, 3, 50, 110
5, 60067, Note_off_c, 3, 50, 64
5, 60715, Note_on_c, 3, 50, 110
5, 60765, Note_off_c, 3, 50, 64
5, 60820, Note_on_c, 3, 50, 100
5, 60882, Note_off_c, 3, 50, 64
5, 60942, Note_on_c, 3, 45, 110
5, 61028, Note_off_c, 3, 45, 64
5, 61176, Note_on_c, 3, 45, 116
5, 61243, Note_off_c, 3, 45, 64
5, 61427, Note_on_c, 3, 50, 127
5, 61537, Note_off_c, 3, 50, 64
5, 61537, End_track
6, 0, Start_track
6, 0, Title_t, "Oboe"
6, 0, Program_c, 4, 68
6, 0, Control_c, 4, 7, 100
6, 723, Note_on_c, 4, 66, 91
6, 800, Note_off_c, 4, 66, 64
6, 819, Note_on_c, 4, 67, 74
6, 919, Note_off_c, 4, 67, 64
6, 950, Note_on_c, 4, 69, 91
6, 1021, Note_off_c, 4, 69, 64
6, 1179, Note_on_c, 4, 74, 87
6, 1245, Note_off_c, 4, 74, 64
6, 1426, Note_on_c, 4, 69, 87
6, 1666, Note_on_c, 4, 67, 72
6, 1676, Note_off_c, 4, 69, 64
6, 1889, Note_off_c, 4, 67, 64
6, 1907, Note_on_c, 4, 66, 61
6, 2006, Note_off_c, 4, 66, 64
6, 2161, Note_on_c, 4, 74, 91
6, 2228, Note_off_c, 4, 74, 64
6, 2403, Note_on_c, 4, 66, 95
6, 2640, Note_off_c, 4, 66, 64
6, 2640, Note_on_c, 4, 64, 59
6, 2868, Note_off_c, 4, 64, 64
6, 2894, Note_on_c, 4, 62, 62
6, 3013, Note_off_c, 4, 62, 64
6, 3133, Note_on_c, 4, 66, 76
6, 3217, Note_off_c, 4, 66, 64
6, 3225, Note_on_c, 4, 64, 68
6, 3323, Note_off_c, 4, 64, 64
6, 3354, Note_on_c, 4, 66, 78
6, 3470, Note_off_c, 4, 66, 64
6, 3576, Note_on_c, 4, 68, 72
6, 3688, Note_off_c, 4, 68, 64
6, 3832, Note_on_c, 4, 69, 89
6, 3937, Note_on_c, 4, 68, 82
6, 3948, Note_off_c, 4, 69, 64
6, 4041, Note_off_c, 4, 68, 64
6, 4060, Note_on_c, 4, 69, 85
6, 4153, Note_off_c, 4, 69, 64
6, 4167, Note_on_c, 4, 71, 85
6, 4244, Note_off_c, 4, 71, 64
6, 4291, Note_on_c, 4, 69, 85
6, 4399, Note_off_c, 4, 69, 64
6, 4404, Note_on_c, 4, 67, 70
6, 4490, Note_off_c, 4, 67, 64
6, 4523, Note_on_c, 4, 66, 64
6, 4616, Note_off_c, 4, 66, 64
6, 4636, Note_on_c, 4, 64, 68
6, 4740, Note_off_c, 4, 64, 64
6, 4780, Note_on_c, 4, 66, 89
6, 4853, Note_off_c, 4, 66, 64
6, 5021, Note_on_c, 4, 78, 80
6, 5110, Note_off_c, 4, 78, 64
6, 5271, Note_on_c, 4, 71, 93
6, 5508, Note_on_c, 4, 69, 63
6, 5515, Note_off_c, 4, 71, 64
6, 5712, Note_off_c, 4, 69, 64
6, 5754, Note_on_c, 4, 68, 66
6, 5838, Note_off_c, 4, 68, 64
6, 6020, Note_on_c, 4, 83, 89
6, 6128, Note_off_c, 4, 83, 64
6, 6250, Note_on_c, 4, 76, 95
6, 6482, Note_on_c, 4, 74, 64
6, 6495, Note_off_c, 4, 76, 64
6, 6642, Note_off_c, 4, 74, 64
6, 6730, Note_on_c, 4, 73, 72
6, 6834, Note_on_c, 4, 71, 68
6, 6847, Note_off_c, 4, 73, 64
6, 6912, Note_off_c, 4, 71, 64
6, 6949, Note_on_c, 4, 73, 72
6, 7040, Note_off_c, 4, 73, 64
6, 7062, Note_on_c, 4, 74, 82
6, 7160, Note_off_c, 4, 74, 64
6, 7191, Note_on_c, 4, 73, 98
6, 7275, Note_off_c, 4, 73, 64
6, 7295, Note_on_c, 4, 71, 78
6, 7377, Note_off_c, 4, 71, 64
6, 7419, Note_on_c, 4, 69, 85
6, 7501, Note_off_c, 4, 69, 64
6, 7521, Note_on_c, 4, 68, 76
6, 7593, Note_off_c, 4, 68, 64
6, 7662, Note_on_c, 4, 69, 85
6, 8171, Note_off_c, 4, 69, 64
6, 8399, Note_on_c, 4, 66, 87
6, 8494, Note_on_c, 4, 67, 87
6, 8495, Note_off_c, 4, 66, 64
6, 8596, Note_off_c, 4, 67, 64
6, 8630, Note_on_c, 4, 69, 89
6, 8707, Note_off_c, 4, 69, 64
6, 8869, Note_on_c, 4, 74, 98
6, 8942, Note_off_c, 4, 74, 64
6, 9114, Note_on_c, 4, 69, 80
6, 9355, Note_on_c, 4, 67, 64
6, 9364, Note_off_c, 4, 69, 64
6, 9572, Note_off_c, 4, 67, 64
6, 9579, Note_on_c, 4, 66, 64
6, 9679, Note_off_c, 4, 66, 64
6, 9823, Note_on_c, 4, 74, 95
6, 9902, Note_off_c, 4, 74, 64
6, 10057, Note_on_c, 4, 66, 78
6, 10309, Note_on_c, 4, 64, 66
6, 10325, Note_off_c, 4, 66, 64
6, 10544, Note_off_c, 4, 64, 64
6, 10553, Note_on_c, 4, 62, 72
6, 10664, Note_off_c, 4, 62, 64
6, 10805, Note_on_c, 4, 66, 85
6, 10896, Note_off_c, 4, 66, 64
6, 10903, Note_on_c, 4, 64, 78
6, 11000, Note_off_c, 4, 64, 64
6, 11027, Note_on_c, 4, 66, 76
6, 11140, Note_off_c, 4, 66, 64
6, 11261, Note_on_c, 4, 68, 74
6, 11370, Note_off_c, 4, 68, 64
6, 11518, Note_on_c, 4, 69, 93
6, 11620, Note_off_c, 4, 69, 64
6, 11622, Note_on_c, 4, 68, 80
6, 11718, Note_off_c, 4, 68, 64
6, 11739, Note_on_c, 4, 69, 78
6, 11828, Note_off_c, 4, 69, 64
6, 11853, Note_on_c, 4, 71, 80
6, 11942, Note_off_c, 4, 71, 64
6, 11978, Note_on_c, 4, 69, 80
6, 12083, Note_off_c, 4, 69, 64
6, 12091, Note_on_c, 4, 67, 70
6, 12178, Note_off_c, 4, 67, 64
6, 12208, Note_on_c, 4, 66, 66
6, 12295, Note_off_c, 4, 66, 64
6, 12328, Note_on_c, 4, 64, 82
6, 12426, Note_off_c, 4, 64, 64
6, 12464, Note_on_c, 4, 66, 82
6, 12545, Note_off_c, 4, 66, 64
6, 12716, Note_on_c, 4, 78, 82
6, 12796, Note_off_c, 4, 78, 64
6, 12959, Note_on_c, 4, 71, 89
6, 13189, Note_on_c, 4, 69, 60
6, 13207, Note_off_c, 4, 71, 64
6, 13404, Note_off_c, 4, 69, 64
6, 13439, Note_on_c, 4, 68, 63
6, 13497, Note_off_c, 4, 68, 64
6, 13694, Note_on_c, 4, 83, 89
6, 13789, Note_off_c, 4, 83, 64
6, 13926, Note_on_c, 4, 76, 93
6, 14164, Note_on_c, 4, 74, 61
6, 14175, Note_off_c, 4, 76, 64
6, 14360, Note_off_c, 4, 74, 64
6, 14407, Note_on_c, 4, 73, 63
6, 14507, Note_on_c, 4, 71, 66
6, 14509, Note_off_c, 4, 73, 64
6, 14602, Note_off_c, 4, 71, 64
6, 14631, Note_on_c, 4, 73, 63
6, 14723, Note_off_c, 4, 73, 64
6, 14739, Note_on_c, 4, 74, 76
6, 14830, Note_off_c, 4, 74, 64
6, 14869, Note_on_c, 4, 73, 80
6, 14956, Note_off_c, 4, 73, 64
6, 14974, Note_on_c, 4, 71, 78
6, 15066, Note_off_c, 4, 71, 64
6, 15104, Note_on_c, 4, 69, 82
6, 15200, Note_off_c, 4, 69, 64
6, 15204, Note_on_c, 4, 68, 68
6, 15279, Note_off_c, 4, 68, 64
6, 15350, Note_on_c, 4, 69, 82
6, 15815, Note_off_c, 4, 69, 64
6, 39117, Note_on_c, 4, 73, 82
6, 39212, Note_on_c, 4, 74, 89
6, 39215, Note_off_c, 4, 73, 64
6, 39323, Note_off_c, 4, 74, 64
6, 39336, Note_on_c, 4, 76, 82
6, 39409, Note_off_c, 4, 76, 64
6, 39564, Note_on_c, 4, 81, 82
6, 39634, Note_off_c, 4, 81, 64
6, 39818, Note_on_c, 4, 76, 89
6, 40049, Note_on_c, 4, 74, 68
6, 40057, Note_off_c, 4, 76, 64
6, 40292, Note_off_c, 4, 74, 64
6, 40294, Note_on_c, 4, 73, 53
6, 40376, Note_off_c, 4, 73, 64
6, 40538, Note_on_c, 4, 81, 82
6, 40604, Note_off_c, 4, 81, 64
6, 40797, Note_on_c, 4, 73, 91
6, 41018, Note_on_c, 4, 71, 68
6, 41038, Note_off_c, 4, 73, 64
6, 41226, Note_off_c, 4, 71, 64
6, 41272, Note_on_c, 4, 69, 66
6, 41350, Note_off_c, 4, 69, 64
6, 41512, Note_on_c, 4, 74, 85
6, 41593, Note_off_c, 4, 74, 64
6, 41755, Note_on_c, 4, 79, 95
6, 41950, Note_off_c, 4, 79, 64
6, 41987, Note_on_c, 4, 78, 63
6, 42067, Note_off_c, 4, 78, 64
6, 42094, Note_on_c, 4, 76, 68
6, 42182, Note_off_c, 4, 76, 64
6, 42227, Note_on_c, 4, 78, 85
6, 42320, Note_off_c, 4, 78, 64
6, 42339, Note_on_c, 4, 79, 74
6, 42424, Note_off_c, 4, 79, 64
6, 42455, Note_on_c, 4, 78, 76
6, 42532, Note_off_c, 4, 78, 64
6, 42563, Note_on_c, 4, 76, 74
6, 42649, Note_off_c, 4, 76, 64
6, 42689, Note_on_c, 4, 74, 80
6, 42776, Note_off_c, 4, 74, 64
6, 42800, Note_on_c, 4, 76, 68
6, 42878, Note_off_c, 4, 76, 64
6, 42911, Note_on_c, 4, 78, 64
6, 42986, Note_off_c, 4, 78, 64
6, 43028, Note_on_c, 4, 74, 80
6, 43090, Note_off_c, 4, 74, 64
6, 43170, Note_on_c, 4, 71, 91
6, 43263, Note_on_c, 4, 78, 76
6, 43283, Note_off_c, 4, 71, 64
6, 43380, Note_off_c, 4, 78, 64
6, 43384, Note_on_c, 4, 79, 87
6, 43754, Note_off_c, 4, 79, 64
6, 43886, Note_on_c, 4, 78, 57
6, 43975, Note_off_c, 4, 78, 64
6, 44139, Note_on_c, 4, 67, 64
6, 44248, Note_on_c, 4, 75, 70
6, 44252, Note_off_c, 4, 67, 64
6, 44369, Note_off_c, 4, 75, 64
6, 44370, Note_on_c, 4, 76, 87
6, 44741, Note_off_c, 4, 76, 64
6, 44876, Note_on_c, 4, 78, 61
6, 44980, Note_off_c, 4, 78, 64
6, 45127, Note_on_c, 4, 71, 72
6, 45228, Note_on_c, 4, 78, 80
6, 45246, Note_off_c, 4, 71, 64
6, 45332, Note_off_c, 4, 78, 64
6, 45344, Note_on_c, 4, 79, 82
6, 45746, Note_off_c, 4, 79, 64
6, 45842, Note_on_c, 4, 78, 66
6, 45921, Note_off_c, 4, 78, 64
6, 46085, Note_on_c, 4, 64, 68
6, 46178, Note_on_c, 4, 75, 74
6, 46200, Note_off_c, 4, 64, 64
6, 46275, Note_off_c, 4, 75, 64
6, 46300, Note_on_c, 4, 76, 93
6, 46623, Note_off_c, 4, 76, 64
6, 46793, Note_on_c, 4, 70, 70
6, 46893, Note_off_c, 4, 70, 64
6, 46893, Note_on_c, 4, 71, 70
6, 47010, Note_off_c, 4, 71, 64
6, 47037, Note_on_c, 4, 73, 70
6, 47143, Note_off_c, 4, 73, 64
6, 47267, Note_on_c, 4, 76, 76
6, 47340, Note_off_c, 4, 76, 64
6, 47517, Note_on_c, 4, 79, 95
6, 47741, Note_on_c, 4, 78, 60
6, 47774, Note_off_c, 4, 79, 64
6, 47865, Note_off_c, 4, 78, 64
6, 47993, Note_on_c, 4, 66, 59
6, 48084, Note_off_c, 4, 66, 64
6, 48236, Note_on_c, 4, 73, 72
6, 48314, Note_off_c, 4, 73, 64
6, 48478, Note_on_c, 4, 76, 85
6, 48708, Note_on_c, 4, 74, 62
6, 48710, Note_off_c, 4, 76, 64
6, 48797, Note_off_c, 4, 74, 64
6, 48952, Note_on_c, 4, 83, 87
6, 49124, Note_off_c, 4, 83, 64
6, 49188, Note_on_c, 4, 78, 66
6, 49261, Note_off_c, 4, 78, 64
6, 49286, Note_on_c, 4, 76, 70
6, 49417, Note_off_c, 4, 76, 64
6, 49430, Note_on_c, 4, 74, 82
6, 49538, Note_off_c, 4, 74, 64
6, 49660, Note_on_c, 4, 73, 78
6, 49732, Note_off_c, 4, 73, 64
6, 49910, Note_on_c, 4, 71, 80
6, 50439, Note_off_c, 4, 71, 64
6, 50641, Note_on_c, 4, 66, 66
6, 50744, Note_off_c, 4, 66, 64
6, 50747, Note_on_c, 4, 67, 80
6, 50877, Note_on_c, 4, 69, 82
6, 50882, Note_off_c, 4, 67, 64
6, 50944, Note_off_c, 4, 69, 64
6, 51110, Note_on_c, 4, 74, 91
6, 51181, Note_off_c, 4, 74, 64
6, 51360, Note_on_c, 4, 66, 82
6, 51601, Note_on_c, 4, 64, 72
6, 51621, Note_off_c, 4, 66, 64
6, 51820, Note_off_c, 4, 64, 64
6, 51842, Note_on_c, 4, 62, 66
6, 51898, Note_off_c, 4, 62, 64
6, 52071, Note_on_c, 4, 81, 85
6, 52153, Note_off_c, 4, 81, 64
6, 52314, Note_on_c, 4, 72, 85
6, 52546, Note_on_c, 4, 71, 66
6, 52551, Note_off_c, 4, 72, 64
6, 52724, Note_off_c, 4, 71, 64
6, 52796, Note_on_c, 4, 72, 64
6, 52910, Note_off_c, 4, 72, 64
6, 53053, Note_on_c, 4, 78, 98
6, 53139, Note_off_c, 4, 78, 64
6, 53146, Note_on_c, 4, 79, 87
6, 53237, Note_off_c, 4, 79, 64
6, 53268, Note_on_c, 4, 81, 89
6, 53370, Note_off_c, 4, 81, 64
6, 53500, Note_on_c, 4, 72, 85
6, 53578, Note_off_c, 4, 72, 64
6, 53748, Note_on_c, 4, 71, 89
6, 53864, Note_on_c, 4, 69, 72
6, 53888, Note_off_c, 4, 71, 64
6, 53983, Note_off_c, 4, 69, 64
6, 53990, Note_on_c, 4, 67, 68
6, 54098, Note_off_c, 4, 67, 64
6, 54103, Note_on_c, 4, 69, 80
6, 54191, Note_off_c, 4, 69, 64
6, 54226, Note_on_c, 4, 71, 82
6, 54308, Note_off_c, 4, 71, 64
6, 54317, Note_on_c, 4, 74, 62
6, 54412, Note_off_c, 4, 74, 64
6, 54450, Note_on_c, 4, 73, 80
6, 54534, Note_off_c, 4, 73, 64
6, 54558, Note_on_c, 4, 76, 76
6, 54630, Note_off_c, 4, 76, 64
6, 54689, Note_on_c, 4, 74, 95
6, 54806, Note_on_c, 4, 73, 66
6, 54834, Note_off_c, 4, 74, 64
6, 54920, Note_on_c, 4, 71, 70
6, 54948, Note_off_c, 4, 73, 64
6, 55041, Note_on_c, 4, 73, 68
6, 55066, Note_off_c, 4, 71, 64
6, 55132, Note_off_c, 4, 73, 64
6, 55170, Note_on_c, 4, 74, 80
6, 55260, Note_off_c, 4, 74, 64
6, 55280, Note_on_c, 4, 78, 53
6, 55349, Note_off_c, 4, 78, 64
6, 55406, Note_on_c, 4, 76, 70
6, 55508, Note_off_c, 4, 76, 64
6, 55521, Note_on_c, 4, 79, 80
6, 55584, Note_off_c, 4, 79, 64
6, 55641, Note_on_c, 4, 78, 95
6, 55758, Note_on_c, 4, 76, 78
6, 55774, Note_off_c, 4, 78, 64
6, 55874, Note_off_c, 4, 76, 64
6, 55881, Note_on_c, 4, 74, 66
6, 55997, Note_off_c, 4, 74, 64
6, 55997, Note_on_c, 4, 76, 68
6, 56086, Note_off_c, 4, 76, 64
6, 56121, Note_on_c, 4, 78, 68
6, 56219, Note_off_c, 4, 78, 64
6, 56237, Note_on_c, 4, 81, 66
6, 56321, Note_off_c, 4, 81, 64
6, 56372, Note_on_c, 4, 79, 72
6, 56467, Note_off_c, 4, 79, 64
6, 56487, Note_on_c, 4, 83, 68
6, 56557, Note_off_c, 4, 83, 64
6, 56610, Note_on_c, 4, 81, 95
6, 56794, Note_off_c, 4, 81, 64
6, 56848, Note_on_c, 4, 80, 85
6, 56952, Note_on_c, 4, 81, 74
6, 56985, Note_off_c, 4, 80, 64
6, 57076, Note_off_c, 4, 81, 64
6, 57086, Note_on_c, 4, 83, 80
6, 57168, Note_off_c, 4, 83, 64
6, 57321, Note_on_c, 4, 74, 82
6, 57401, Note_off_c, 4, 74, 64
6, 57591, Note_on_c, 4, 73, 105
6, 57699, Note_on_c, 4, 74, 78
6, 57735, Note_off_c, 4, 73, 64
6, 57824, Note_off_c, 4, 74, 64
6, 57826, Note_on_c, 4, 73, 60
6, 57937, Note_on_c, 4, 71, 70
6, 57957, Note_off_c, 4, 73, 64
6, 58040, Note_off_c, 4, 71, 64
6, 58072, Note_on_c, 4, 69, 66
6, 58175, Note_on_c, 4, 71, 70
6, 58204, Note_off_c, 4, 69, 64
6, 58279, Note_off_c, 4, 71, 64
6, 58317, Note_on_c, 4, 73, 50
6, 58410, Note_on_c, 4, 69, 66
6, 58428, Note_off_c, 4, 73, 64
6, 58461, Note_off_c, 4, 69, 64
6, 58550, Note_on_c, 4, 66, 85
6, 58647, Note_on_c, 4, 73, 64
6, 58656, Note_off_c, 4, 66, 64
6, 58762, Note_off_c, 4, 73, 64
6, 58767, Note_on_c, 4, 74, 89
6, 59074, Note_off_c, 4, 74, 64
6, 59265, Note_on_c, 4, 78, 72
6, 59342, Note_off_c, 4, 78, 64
6, 59510, Note_on_c, 4, 83, 87
6, 59608, Note_on_c, 4, 73, 57
6, 59625, Note_off_c, 4, 83, 64
6, 59716, Note_off_c, 4, 73, 64
6, 59736, Note_on_c, 4, 74, 87
6, 60044, Note_off_c, 4, 74, 64
6, 60243, Note_on_c, 4, 73, 80
6, 60334, Note_off_c, 4, 73, 64
6, 60340, Note_on_c, 4, 71, 72
6, 60427, Note_off_c, 4, 71, 64
6, 60464, Note_on_c, 4, 73, 85
6, 60520, Note_off_c, 4, 73, 64
6, 60562, Note_on_c, 4, 69, 62
6, 60633, Note_off_c, 4, 69, 64
6, 60697, Note_on_c, 4, 81, 87
6, 60814, Note_off_c, 4, 81, 64
6, 60936, Note_on_c, 4, 74, 91
6, 61040, Note_off_c, 4, 74, 64
6, 61179, Note_on_c, 4, 76, 82
6, 61239, Note_off_c, 4, 76, 64
6, 61281, Note_on_c, 4, 73, 89
6, 61341, Note_off_c, 4, 73, 64
6, 61421, Note_on_c, 4, 74, 102
6, 61906, Note_off_c, 4, 74, 64
6, 61906, End_track
7, 0, Start_track
7, 0, Title_t, "Oboe"
7, 0, Program_c, 5, 68
7, 0, Control_c, 5, 7, 100
7, 722, Note_on_c, 5, 66, 91
7, 802, Note_off_c, 5, 66, 64
7, 816, Note_on_c, 5, 67, 80
7, 919, Note_off_c, 5, 67, 64
7, 942, Note_on_c, 5, 69, 85
7, 1017, Note_off_c, 5, 69, 64
7, 1185, Note_on_c, 5, 74, 91
7, 1267, Note_off_c, 5, 74, 64
7, 1427, Note_on_c, 5, 69, 87
7, 1672, Note_on_c, 5, 67, 66
7, 1683, Note_off_c, 5, 69, 64
7, 1900, Note_off_c, 5, 67, 64
7, 1913, Note_on_c, 5, 66, 64
7, 2013, Note_off_c, 5, 66, 64
7, 2150, Note_on_c, 5, 74, 85
7, 2225, Note_off_c, 5, 74, 64
7, 2391, Note_on_c, 5, 66, 76
7, 2628, Note_on_c, 5, 64, 64
7, 2629, Note_off_c, 5, 66, 64
7, 2854, Note_off_c, 5, 64, 64
7, 2881, Note_on_c, 5, 62, 60
7, 3009, Note_off_c, 5, 62, 64
7, 3115, Note_on_c, 5, 66, 76
7, 3180, Note_off_c, 5, 66, 64
7, 3215, Note_on_c, 5, 64, 78
7, 3308, Note_off_c, 5, 64, 64
7, 3354, Note_on_c, 5, 66, 72
7, 3481, Note_off_c, 5, 66, 64
7, 3582, Note_on_c, 5, 68, 68
7, 3702, Note_off_c, 5, 68, 64
7, 3837, Note_on_c, 5, 69, 87
7, 3945, Note_on_c, 5, 68, 70
7, 3950, Note_off_c, 5, 69, 64
7, 4049, Note_off_c, 5, 68, 64
7, 4061, Note_on_c, 5, 69, 66
7, 4143, Note_off_c, 5, 69, 64
7, 4173, Note_on_c, 5, 71, 78
7, 4277, Note_off_c, 5, 71, 64
7, 4294, Note_on_c, 5, 69, 70
7, 4388, Note_off_c, 5, 69, 64
7, 4406, Note_on_c, 5, 67, 70
7, 4492, Note_off_c, 5, 67, 64
7, 4523, Note_on_c, 5, 66, 66
7, 4623, Note_off_c, 5, 66, 64
7, 4638, Note_on_c, 5, 64, 78
7, 4756, Note_off_c, 5, 64, 64
7, 4775, Note_on_c, 5, 66, 72
7, 4857, Note_off_c, 5, 66, 64
7, 5021, Note_on_c, 5, 78, 91
7, 5106, Note_off_c, 5, 78, 64
7, 5276, Note_on_c, 5, 71, 87
7, 5515, Note_off_c, 5, 71, 64
7, 5515, Note_on_c, 5, 69, 63
7, 5734, Note_off_c, 5, 69, 64
7, 5767, Note_on_c, 5, 68, 59
7, 5845, Note_off_c, 5, 68, 64
7, 6008, Note_on_c, 5, 83, 87
7, 6104, Note_off_c, 5, 83, 64
7, 6243, Note_on_c, 5, 76, 91
7, 6478, Note_on_c, 5, 74, 64
7, 6482, Note_off_c, 5, 76, 64
7, 6675, Note_off_c, 5, 74, 64
7, 6723, Note_on_c, 5, 73, 64
7, 6834, Note_on_c, 5, 71, 66
7, 6837, Note_off_c, 5, 73, 64
7, 6917, Note_off_c, 5, 71, 64
7, 6956, Note_on_c, 5, 73, 66
7, 7045, Note_off_c, 5, 73, 64
7, 7068, Note_on_c, 5, 74, 72
7, 7151, Note_off_c, 5, 74, 64
7, 7188, Note_on_c, 5, 73, 78
7, 7259, Note_off_c, 5, 73, 64
7, 7288, Note_on_c, 5, 71, 85
7, 7376, Note_off_c, 5, 71, 64
7, 7416, Note_on_c, 5, 69, 66
7, 7512, Note_off_c, 5, 69, 64
7, 7516, Note_on_c, 5, 68, 74
7, 7591, Note_off_c, 5, 68, 64
7, 7669, Note_on_c, 5, 69, 82
7, 8171, Note_off_c, 5, 69, 64
7, 8392, Note_on_c, 5, 66, 85
7, 8483, Note_off_c, 5, 66, 64
7, 8492, Note_on_c, 5, 67, 82
7, 8596, Note_off_c, 5, 67, 64
7, 8625, Note_on_c, 5, 69, 85
7, 8705, Note_off_c, 5, 69, 64
7, 8869, Note_on_c, 5, 74, 82
7, 8948, Note_off_c, 5, 74, 64
7, 9108, Note_on_c, 5, 69, 89
7, 9335, Note_on_c, 5, 67, 60
7, 9349, Note_off_c, 5, 69, 64
7, 9588, Note_on_c, 5, 66, 53
7, 9592, Note_off_c, 5, 67, 64
7, 9692, Note_off_c, 5, 66, 64
7, 9840, Note_on_c, 5, 74, 85
7, 9925, Note_off_c, 5, 74, 64
7, 10073, Note_on_c, 5, 66, 91
7, 10309, Note_on_c, 5, 64, 64
7, 10325, Note_off_c, 5, 66, 64
7, 10500, Note_off_c, 5, 64, 64
7, 10553, Note_on_c, 5, 62, 64
7, 10681, Note_off_c, 5, 62, 64
7, 10799, Note_on_c, 5, 66, 80
7, 10876, Note_off_c, 5, 66, 64
7, 10895, Note_on_c, 5, 64, 80
7, 10994, Note_off_c, 5, 64, 64
7, 11033, Note_on_c, 5, 66, 82
7, 11157, Note_off_c, 5, 66, 64
7, 11259, Note_on_c, 5, 68, 76
7, 11381, Note_off_c, 5, 68, 64
7, 11516, Note_on_c, 5, 69, 85
7, 11625, Note_off_c, 5, 69, 64
7, 11625, Note_on_c, 5, 68, 74
7, 11724, Note_off_c, 5, 68, 64
7, 11744, Note_on_c, 5, 69, 76
7, 11844, Note_off_c, 5, 69, 64
7, 11857, Note_on_c, 5, 71, 76
7, 11945, Note_off_c, 5, 71, 64
7, 11974, Note_on_c, 5, 69, 76
7, 12063, Note_off_c, 5, 69, 64
7, 12085, Note_on_c, 5, 67, 70
7, 12165, Note_off_c, 5, 67, 64
7, 12211, Note_on_c, 5, 66, 80
7, 12288, Note_off_c, 5, 66, 64
7, 12319, Note_on_c, 5, 64, 78
7, 12412, Note_off_c, 5, 64, 64
7, 12457, Note_on_c, 5, 66, 85
7, 12544, Note_off_c, 5, 66, 64
7, 12705, Note_on_c, 5, 78, 70
7, 12793, Note_off_c, 5, 78, 64
7, 12952, Note_on_c, 5, 71, 89
7, 13196, Note_off_c, 5, 71, 64
7, 13196, Note_on_c, 5, 69, 58
7, 13440, Note_off_c, 5, 69, 64
7, 13441, Note_on_c, 5, 68, 64
7, 13515, Note_off_c, 5, 68, 64
7, 13701, Note_on_c, 5, 83, 89
7, 13796, Note_off_c, 5, 83, 64
7, 13926, Note_on_c, 5, 76, 85
7, 14166, Note_on_c, 5, 74, 58
7, 14190, Note_off_c, 5, 76, 64
7, 14327, Note_off_c, 5, 74, 64
7, 14407, Note_on_c, 5, 73, 78
7, 14509, Note_on_c, 5, 71, 64
7, 14522, Note_off_c, 5, 73, 64
7, 14602, Note_off_c, 5, 71, 64
7, 14633, Note_on_c, 5, 73, 64
7, 14728, Note_off_c, 5, 73, 64
7, 14744, Note_on_c, 5, 74, 74
7, 14838, Note_off_c, 5, 74, 64
7, 14870, Note_on_c, 5, 73, 64
7, 14958, Note_off_c, 5, 73, 64
7, 14974, Note_on_c, 5, 71, 66
7, 15083, Note_off_c, 5, 71, 64
7, 15104, Note_on_c, 5, 69, 70
7, 15193, Note_off_c, 5, 69, 64
7, 15217, Note_on_c, 5, 68, 61
7, 15294, Note_off_c, 5, 68, 64
7, 15349, Note_on_c, 5, 69, 80
7, 15810, Note_off_c, 5, 69, 64
7, 39083, Note_on_c, 5, 73, 82
7, 39181, Note_on_c, 5, 74, 82
7, 39190, Note_off_c, 5, 73, 64
7, 39311, Note_off_c, 5, 74, 64
7, 39313, Note_on_c, 5, 76, 80
7, 39400, Note_off_c, 5, 76, 64
7, 39557, Note_on_c, 5, 81, 82
7, 39624, Note_off_c, 5, 81, 64
7, 39809, Note_on_c, 5, 76, 89
7, 40035, Note_on_c, 5, 74, 68
7, 40051, Note_off_c, 5, 76, 64
7, 40272, Note_off_c, 5, 74, 64
7, 40281, Note_on_c, 5, 73, 60
7, 40365, Note_off_c, 5, 73, 64
7, 40536, Note_on_c, 5, 81, 89
7, 40609, Note_off_c, 5, 81, 64
7, 40786, Note_on_c, 5, 73, 82
7, 41036, Note_on_c, 5, 71, 64
7, 41054, Note_off_c, 5, 73, 64
7, 41231, Note_off_c, 5, 71, 64
7, 41282, Note_on_c, 5, 69, 60
7, 41401, Note_off_c, 5, 69, 64
7, 41514, Note_on_c, 5, 74, 76
7, 41603, Note_off_c, 5, 74, 64
7, 41748, Note_on_c, 5, 79, 87
7, 41941, Note_off_c, 5, 79, 64
7, 41996, Note_on_c, 5, 78, 57
7, 42078, Note_off_c, 5, 78, 64
7, 42107, Note_on_c, 5, 76, 61
7, 42187, Note_off_c, 5, 76, 64
7, 42235, Note_on_c, 5, 78, 93
7, 42339, Note_off_c, 5, 78, 64
7, 42344, Note_on_c, 5, 79, 70
7, 42424, Note_off_c, 5, 79, 64
7, 42455, Note_on_c, 5, 78, 54
7, 42541, Note_off_c, 5, 78, 64
7, 42570, Note_on_c, 5, 76, 64
7, 42663, Note_off_c, 5, 76, 64
7, 42698, Note_on_c, 5, 74, 76
7, 42809, Note_on_c, 5, 76, 66
7, 42816, Note_off_c, 5, 74, 64
7, 42882, Note_off_c, 5, 76, 64
7, 42928, Note_on_c, 5, 78, 66
7, 42997, Note_off_c, 5, 78, 64
7, 43041, Note_on_c, 5, 74, 68
7, 43106, Note_off_c, 5, 74, 64
7, 43170, Note_on_c, 5, 71, 85
7, 43265, Note_on_c, 5, 78, 74
7, 43289, Note_off_c, 5, 71, 64
7, 43382, Note_off_c, 5, 78, 64
7, 43389, Note_on_c, 5, 79, 87
7, 43774, Note_off_c, 5, 79, 64
7, 43887, Note_on_c, 5, 78, 60
7, 43986, Note_off_c, 5, 78, 64
7, 44144, Note_on_c, 5, 67, 68
7, 44248, Note_on_c, 5, 75, 62
7, 44259, Note_off_c, 5, 67, 64
7, 44365, Note_off_c, 5, 75, 64
7, 44374, Note_on_c, 5, 76, 80
7, 44733, Note_off_c, 5, 76, 64
7, 44885, Note_on_c, 5, 78, 60
7, 44972, Note_off_c, 5, 78, 64
7, 45116, Note_on_c, 5, 71, 74
7, 45224, Note_on_c, 5, 78, 68
7, 45241, Note_off_c, 5, 71, 64
7, 45346, Note_off_c, 5, 78, 64
7, 45346, Note_on_c, 5, 79, 87
7, 45722, Note_off_c, 5, 79, 64
7, 45835, Note_on_c, 5, 78, 66
7, 45917, Note_off_c, 5, 78, 64
7, 46091, Note_on_c, 5, 64, 63
7, 46187, Note_on_c, 5, 75, 70
7, 46200, Note_off_c, 5, 64, 64
7, 46293, Note_off_c, 5, 75, 64
7, 46311, Note_on_c, 5, 76, 85
7, 46640, Note_off_c, 5, 76, 64
7, 46806, Note_on_c, 5, 70, 68
7, 46897, Note_off_c, 5, 70, 64
7, 46904, Note_on_c, 5, 71, 66
7, 47006, Note_off_c, 5, 71, 64
7, 47050, Note_on_c, 5, 73, 72
7, 47156, Note_off_c, 5, 73, 64
7, 47285, Note_on_c, 5, 76, 82
7, 47358, Note_off_c, 5, 76, 64
7, 47519, Note_on_c, 5, 79, 93
7, 47763, Note_on_c, 5, 78, 63
7, 47767, Note_off_c, 5, 79, 64
7, 47863, Note_off_c, 5, 78, 64
7, 47986, Note_on_c, 5, 66, 60
7, 48077, Note_off_c, 5, 66, 64
7, 48232, Note_on_c, 5, 73, 66
7, 48316, Note_off_c, 5, 73, 64
7, 48476, Note_on_c, 5, 76, 91
7, 48717, Note_on_c, 5, 74, 78
7, 48724, Note_off_c, 5, 76, 64
7, 48792, Note_off_c, 5, 74, 64
7, 48954, Note_on_c, 5, 83, 80
7, 49065, Note_off_c, 5, 83, 64
7, 49195, Note_on_c, 5, 78, 66
7, 49273, Note_off_c, 5, 78, 64
7, 49299, Note_on_c, 5, 76, 70
7, 49392, Note_off_c, 5, 76, 64
7, 49428, Note_on_c, 5, 74, 78
7, 49538, Note_off_c, 5, 74, 64
7, 49669, Note_on_c, 5, 73, 74
7, 49744, Note_off_c, 5, 73, 64
7, 49917, Note_on_c, 5, 71, 80
7, 50410, Note_off_c, 5, 71, 64
7, 50640, Note_on_c, 5, 66, 66
7, 50745, Note_on_c, 5, 67, 78
7, 50751, Note_off_c, 5, 66, 64
7, 50857, Note_off_c, 5, 67, 64
7, 50882, Note_on_c, 5, 69, 87
7, 50962, Note_off_c, 5, 69, 64
7, 51121, Note_on_c, 5, 74, 82
7, 51192, Note_off_c, 5, 74, 64
7, 51349, Note_on_c, 5, 66, 95
7, 51594, Note_on_c, 5, 64, 68
7, 51601, Note_off_c, 5, 66, 64
7, 51792, Note_off_c, 5, 64, 64
7, 51829, Note_on_c, 5, 62, 60
7, 51898, Note_off_c, 5, 62, 64
7, 52101, Note_on_c, 5, 81, 57
7, 52197, Note_off_c, 5, 81, 64
7, 52318, Note_on_c, 5, 72, 64
7, 52544, Note_on_c, 5, 71, 66
7, 52553, Note_off_c, 5, 72, 64
7, 52752, Note_off_c, 5, 71, 64
7, 52792, Note_on_c, 5, 72, 59
7, 52909, Note_off_c, 5, 72, 64
7, 53036, Note_on_c, 5, 78, 98
7, 53120, Note_off_c, 5, 78, 64
7, 53133, Note_on_c, 5, 79, 76
7, 53225, Note_off_c, 5, 79, 64
7, 53262, Note_on_c, 5, 81, 87
7, 53357, Note_off_c, 5, 81, 64
7, 53490, Note_on_c, 5, 72, 80
7, 53569, Note_off_c, 5, 72, 64
7, 53742, Note_on_c, 5, 71, 85
7, 53859, Note_on_c, 5, 69, 78
7, 53870, Note_off_c, 5, 71, 64
7, 53956, Note_off_c, 5, 69, 64
7, 53987, Note_on_c, 5, 67, 57
7, 54098, Note_on_c, 5, 69, 72
7, 54103, Note_off_c, 5, 67, 64
7, 54193, Note_off_c, 5, 69, 64
7, 54226, Note_on_c, 5, 71, 68
7, 54317, Note_off_c, 5, 71, 64
7, 54331, Note_on_c, 5, 74, 60
7, 54406, Note_off_c, 5, 74, 64
7, 54452, Note_on_c, 5, 73, 64
7, 54554, Note_on_c, 5, 76, 68
7, 54567, Note_off_c, 5, 73, 64
7, 54620, Note_off_c, 5, 76, 64
7, 54693, Note_on_c, 5, 74, 102
7, 54807, Note_on_c, 5, 73, 66
7, 54827, Note_off_c, 5, 74, 64
7, 54917, Note_off_c, 5, 73, 64
7, 54918, Note_on_c, 5, 71, 68
7, 55010, Note_off_c, 5, 71, 64
7, 55039, Note_on_c, 5, 73, 51
7, 55116, Note_off_c, 5, 73, 64
7, 55169, Note_on_c, 5, 74, 70
7, 55256, Note_off_c, 5, 74, 64
7, 55278, Note_on_c, 5, 78, 47
7, 55342, Note_off_c, 5, 78, 64
7, 55400, Note_on_c, 5, 76, 62
7, 55493, Note_off_c, 5, 76, 64
7, 55511, Note_on_c, 5, 79, 82
7, 55575, Note_off_c, 5, 79, 64
7, 55643, Note_on_c, 5, 78, 105
7, 55760, Note_on_c, 5, 76, 63
7, 55783, Note_off_c, 5, 78, 64
7, 55867, Note_off_c, 5, 76, 64
7, 55878, Note_on_c, 5, 74, 57
7, 55973, Note_off_c, 5, 74, 64
7, 55995, Note_on_c, 5, 76, 59
7, 56073, Note_off_c, 5, 76, 64
7, 56130, Note_on_c, 5, 78, 66
7, 56243, Note_on_c, 5, 81, 60
7, 56245, Note_off_c, 5, 78, 64
7, 56305, Note_off_c, 5, 81, 64
7, 56376, Note_on_c, 5, 79, 70
7, 56475, Note_off_c, 5, 79, 64
7, 56482, Note_on_c, 5, 83, 66
7, 56549, Note_off_c, 5, 83, 64
7, 56608, Note_on_c, 5, 81, 87
7, 56750, Note_off_c, 5, 81, 64
7, 56856, Note_on_c, 5, 80, 82
7, 56942, Note_on_c, 5, 81, 80
7, 56971, Note_off_c, 5, 80, 64
7, 57069, Note_off_c, 5, 81, 64
7, 57086, Note_on_c, 5, 83, 80
7, 57169, Note_off_c, 5, 83, 64
7, 57332, Note_on_c, 5, 74, 76
7, 57405, Note_off_c, 5, 74, 64
7, 57590, Note_on_c, 5, 73, 102
7, 57697, Note_on_c, 5, 74, 76
7, 57730, Note_off_c, 5, 73, 64
7, 57801, Note_off_c, 5, 74, 64
7, 57832, Note_on_c, 5, 73, 52
7, 57934, Note_on_c, 5, 71, 62
7, 57952, Note_off_c, 5, 73, 64
7, 58032, Note_off_c, 5, 71, 64
7, 58080, Note_on_c, 5, 69, 68
7, 58185, Note_on_c, 5, 71, 66
7, 58195, Note_off_c, 5, 69, 64
7, 58269, Note_off_c, 5, 71, 64
7, 58306, Note_on_c, 5, 73, 68
7, 58408, Note_off_c, 5, 73, 64
7, 58412, Note_on_c, 5, 69, 72
7, 58474, Note_off_c, 5, 69, 64
7, 58556, Note_on_c, 5, 66, 74
7, 58651, Note_on_c, 5, 73, 66
7, 58665, Note_off_c, 5, 66, 64
7, 58775, Note_on_c, 5, 74, 82
7, 58780, Note_off_c, 5, 73, 64
7, 59065, Note_off_c, 5, 74, 64
7, 59273, Note_on_c, 5, 78, 63
7, 59346, Note_off_c, 5, 78, 64
7, 59516, Note_on_c, 5, 83, 85
7, 59619, Note_on_c, 5, 73, 64
7, 59628, Note_off_c, 5, 83, 64
7, 59721, Note_off_c, 5, 73, 64
7, 59734, Note_on_c, 5, 74, 85
7, 60051, Note_off_c, 5, 74, 64
7, 60241, Note_on_c, 5, 73, 61
7, 60340, Note_on_c, 5, 71, 70
7, 60347, Note_off_c, 5, 73, 64
7, 60424, Note_off_c, 5, 71, 64
7, 60471, Note_on_c, 5, 73, 87
7, 60529, Note_off_c, 5, 73, 64
7, 60560, Note_on_c, 5, 69, 72
7, 60635, Note_off_c, 5, 69, 64
7, 60704, Note_on_c, 5, 81, 89
7, 60803, Note_off_c, 5, 81, 64
7, 60945, Note_on_c, 5, 74, 87
7, 61042, Note_off_c, 5, 74, 64
7, 61191, Note_on_c, 5, 76, 85
7, 61259, Note_off_c, 5, 76, 64
7, 61292, Note_on_c, 5, 73, 87
7, 61346, Note_off_c, 5, 73, 64
7, 61419, Note_on_c, 5, 74, 95
7, 61921, Note_off_c, 5, 74, 64
7, 61921, End_track
8, 0, Start_track
8, 0, Title_t, "Violin"
8, 0, Program_c, 6, 40
8, 0, Control_c, 6, 7, 100
8, 689, Note_on_c, 6, 66, 80
8, 784, Note_off_c, 6, 66, 64
8, 789, Note_on_c, 6, 67, 82
8, 882, Note_off_c, 6, 67, 64
8, 919, Note_on_c, 6, 69, 89
8, 1002, Note_off_c, 6, 69, 64
8, 1170, Note_on_c, 6, 74, 85
8, 1249, Note_off_c, 6, 74, 64
8, 1420, Note_on_c, 6, 69, 89
8, 1628, Note_on_c, 6, 67, 66
8, 1648, Note_off_c, 6, 69, 64
8, 1832, Note_off_c, 6, 67, 64
8, 1885, Note_on_c, 6, 66, 60
8, 1971, Note_off_c, 6, 66, 64
8, 2139, Note_on_c, 6, 74, 87
8, 2215, Note_off_c, 6, 74, 64
8, 2394, Note_on_c, 6, 66, 78
8, 2626, Note_on_c, 6, 64, 57
8, 2650, Note_off_c, 6, 66, 64
8, 2834, Note_off_c, 6, 64, 64
8, 2859, Note_on_c, 6, 62, 57
8, 2989, Note_off_c, 6, 62, 64
8, 3111, Note_on_c, 6, 66, 74
8, 3204, Note_off_c, 6, 66, 64
8, 3215, Note_on_c, 6, 64, 78
8, 3308, Note_off_c, 6, 64, 64
8, 3335, Note_on_c, 6, 66, 76
8, 3439, Note_off_c, 6, 66, 64
8, 3560, Note_on_c, 6, 68, 82
8, 3673, Note_off_c, 6, 68, 64
8, 3820, Note_on_c, 6, 69, 95
8, 3914, Note_off_c, 6, 69, 64
8, 3921, Note_on_c, 6, 68, 82
8, 4019, Note_off_c, 6, 68, 64
8, 4039, Note_on_c, 6, 69, 85
8, 4116, Note_off_c, 6, 69, 64
8, 4149, Note_on_c, 6, 71, 95
8, 4229, Note_off_c, 6, 71, 64
8, 4277, Note_on_c, 6, 69, 82
8, 4388, Note_on_c, 6, 67, 72
8, 4406, Note_off_c, 6, 69, 64
8, 4459, Note_off_c, 6, 67, 64
8, 4506, Note_on_c, 6, 66, 72
8, 4596, Note_off_c, 6, 66, 64
8, 4627, Note_on_c, 6, 64, 76
8, 4722, Note_off_c, 6, 64, 64
8, 4769, Note_on_c, 6, 66, 95
8, 4844, Note_off_c, 6, 66, 64
8, 5023, Note_on_c, 6, 78, 87
8, 5110, Note_off_c, 6, 78, 64
8, 5263, Note_on_c, 6, 71, 93
8, 5493, Note_on_c, 6, 69, 68
8, 5510, Note_off_c, 6, 71, 64
8, 5716, Note_off_c, 6, 69, 64
8, 5743, Note_on_c, 6, 68, 68
8, 5815, Note_off_c, 6, 68, 64
8, 6002, Note_on_c, 6, 83, 95
8, 6090, Note_off_c, 6, 83, 64
8, 6228, Note_on_c, 6, 76, 93
8, 6458, Note_on_c, 6, 74, 64
8, 6473, Note_off_c, 6, 76, 64
8, 6671, Note_off_c, 6, 74, 64
8, 6697, Note_on_c, 6, 73, 72
8, 6801, Note_on_c, 6, 71, 66
8, 6810, Note_off_c, 6, 73, 64
8, 6885, Note_off_c, 6, 71, 64
8, 6920, Note_on_c, 6, 73, 80
8, 7009, Note_off_c, 6, 73, 64
8, 7034, Note_on_c, 6, 74, 78
8, 7115, Note_off_c, 6, 74, 64
8, 7155, Note_on_c, 6, 73, 87
8, 7220, Note_off_c, 6, 73, 64
8, 7259, Note_on_c, 6, 71, 76
8, 7346, Note_off_c, 6, 71, 64
8, 7386, Note_on_c, 6, 69, 89
8, 7467, Note_off_c, 6, 69, 64
8, 7490, Note_on_c, 6, 68, 87
8, 7565, Note_off_c, 6, 68, 64
8, 7640, Note_on_c, 6, 69, 87
8, 8054, Note_off_c, 6, 69, 64
8, 8379, Note_on_c, 6, 66, 100
8, 8464, Note_off_c, 6, 66, 64
8, 8485, Note_on_c, 6, 67, 82
8, 8583, Note_off_c, 6, 67, 64
8, 8618, Note_on_c, 6, 69, 87
8, 8689, Note_off_c, 6, 69, 64
8, 8857, Note_on_c, 6, 74, 91
8, 8931, Note_off_c, 6, 74, 64
8, 9108, Note_on_c, 6, 69, 95
8, 9329, Note_on_c, 6, 67, 60
8, 9349, Note_off_c, 6, 69, 64
8, 9550, Note_off_c, 6, 67, 64
8, 9572, Note_on_c, 6, 66, 64
8, 9661, Note_off_c, 6, 66, 64
8, 9825, Note_on_c, 6, 74, 85
8, 9896, Note_off_c, 6, 74, 64
8, 10060, Note_on_c, 6, 66, 80
8, 10296, Note_on_c, 6, 64, 66
8, 10318, Note_off_c, 6, 66, 64
8, 10522, Note_on_c, 6, 62, 60
8, 10542, Note_off_c, 6, 64, 64
8, 10666, Note_off_c, 6, 62, 64
8, 10790, Note_on_c, 6, 66, 82
8, 10856, Note_off_c, 6, 66, 64
8, 10881, Note_on_c, 6, 64, 74
8, 10985, Note_off_c, 6, 64, 64
8, 11020, Note_on_c, 6, 66, 85
8, 11129, Note_off_c, 6, 66, 64
8, 11252, Note_on_c, 6, 68, 80
8, 11348, Note_off_c, 6, 68, 64
8, 11500, Note_on_c, 6, 69, 91
8, 11600, Note_off_c, 6, 69, 64
8, 11609, Note_on_c, 6, 68, 72
8, 11710, Note_off_c, 6, 68, 64
8, 11731, Note_on_c, 6, 69, 80
8, 11817, Note_off_c, 6, 69, 64
8, 11839, Note_on_c, 6, 71, 78
8, 11928, Note_off_c, 6, 71, 64
8, 11965, Note_on_c, 6, 69, 80
8, 12072, Note_on_c, 6, 67, 76
8, 12089, Note_off_c, 6, 69, 64
8, 12154, Note_off_c, 6, 67, 64
8, 12193, Note_on_c, 6, 66, 62
8, 12286, Note_off_c, 6, 66, 64
8, 12311, Note_on_c, 6, 64, 78
8, 12417, Note_off_c, 6, 64, 64
8, 12452, Note_on_c, 6, 66, 85
8, 12534, Note_off_c, 6, 66, 64
8, 12711, Note_on_c, 6, 78, 76
8, 12791, Note_off_c, 6, 78, 64
8, 12957, Note_on_c, 6, 71, 89
8, 13189, Note_on_c, 6, 69, 64
8, 13194, Note_off_c, 6, 71, 64
8, 13422, Note_off_c, 6, 69, 64
8, 13435, Note_on_c, 6, 68, 72
8, 13517, Note_off_c, 6, 68, 64
8, 13688, Note_on_c, 6, 83, 91
8, 13776, Note_off_c, 6, 83, 64
8, 13913, Note_on_c, 6, 76, 82
8, 14144, Note_on_c, 6, 74, 64
8, 14160, Note_off_c, 6, 76, 64
8, 14334, Note_off_c, 6, 74, 64
8, 14380, Note_on_c, 6, 73, 70
8, 14471, Note_off_c, 6, 73, 64
8, 14475, Note_on_c, 6, 71, 62
8, 14560, Note_off_c, 6, 71, 64
8, 14598, Note_on_c, 6, 73, 74
8, 14693, Note_off_c, 6, 73, 64
8, 14715, Note_on_c, 6, 74, 76
8, 14792, Note_off_c, 6, 74, 64
8, 14839, Note_on_c, 6, 73, 87
8, 14910, Note_off_c, 6, 73, 64
8, 14943, Note_on_c, 6, 71, 89
8, 15035, Note_off_c, 6, 71, 64
8, 15073, Note_on_c, 6, 69, 80
8, 15155, Note_off_c, 6, 69, 64
8, 15180, Note_on_c, 6, 68, 72
8, 15255, Note_off_c, 6, 68, 64
8, 15332, Note_on_c, 6, 69, 87
8, 15753, Note_off_c, 6, 69, 64
8, 39079, Note_on_c, 6, 73, 80
8, 39165, Note_off_c, 6, 73, 64
8, 39176, Note_on_c, 6, 74, 87
8, 39280, Note_off_c, 6, 74, 64
8, 39314, Note_on_c, 6, 76, 89
8, 39389, Note_off_c, 6, 76, 64
8, 39566, Note_on_c, 6, 81, 93
8, 39648, Note_off_c, 6, 81, 64
8, 39810, Note_on_c, 6, 76, 82
8, 40037, Note_on_c, 6, 74, 61
8, 40051, Note_off_c, 6, 76, 64
8, 40268, Note_off_c, 6, 74, 64
8, 40281, Note_on_c, 6, 73, 58
8, 40385, Note_off_c, 6, 73, 64
8, 40535, Note_on_c, 6, 81, 91
8, 40613, Note_off_c, 6, 81, 64
8, 40774, Note_on_c, 6, 73, 87
8, 41005, Note_on_c, 6, 71, 68
8, 41040, Note_off_c, 6, 73, 64
8, 41120, Note_off_c, 6, 71, 64
8, 41250, Note_on_c, 6, 69, 66
8, 41370, Note_off_c, 6, 69, 64
8, 41496, Note_on_c, 6, 74, 85
8, 41582, Note_off_c, 6, 74, 64
8, 41737, Note_on_c, 6, 79, 91
8, 41937, Note_off_c, 6, 79, 64
8, 41983, Note_on_c, 6, 78, 66
8, 42052, Note_off_c, 6, 78, 64
8, 42087, Note_on_c, 6, 76, 87
8, 42167, Note_off_c, 6, 76, 64
8, 42212, Note_on_c, 6, 78, 87
8, 42293, Note_off_c, 6, 78, 64
8, 42324, Note_on_c, 6, 79, 89
8, 42430, Note_off_c, 6, 79, 64
8, 42443, Note_on_c, 6, 78, 78
8, 42515, Note_off_c, 6, 78, 64
8, 42546, Note_on_c, 6, 76, 80
8, 42640, Note_off_c, 6, 76, 64
8, 42670, Note_on_c, 6, 74, 87
8, 42754, Note_off_c, 6, 74, 64
8, 42785, Note_on_c, 6, 76, 87
8, 42862, Note_off_c, 6, 76, 64
8, 42897, Note_on_c, 6, 78, 74
8, 42976, Note_off_c, 6, 78, 64
8, 43015, Note_on_c, 6, 74, 66
8, 43094, Note_off_c, 6, 74, 64
8, 43165, Note_on_c, 6, 71, 87
8, 43274, Note_on_c, 6, 78, 74
8, 43291, Note_off_c, 6, 71, 64
8, 43393, Note_off_c, 6, 78, 64
8, 43398, Note_on_c, 6, 79, 85
8, 43800, Note_off_c, 6, 79, 64
8, 43869, Note_on_c, 6, 78, 63
8, 43973, Note_off_c, 6, 78, 64
8, 44128, Note_on_c, 6, 67, 74
8, 44234, Note_on_c, 6, 75, 63
8, 44246, Note_off_c, 6, 67, 64
8, 44358, Note_off_c, 6, 75, 64
8, 44361, Note_on_c, 6, 76, 89
8, 44743, Note_off_c, 6, 76, 64
8, 44826, Note_on_c, 6, 78, 50
8, 44936, Note_off_c, 6, 78, 64
8, 45095, Note_on_c, 6, 71, 82
8, 45204, Note_on_c, 6, 78, 72
8, 45228, Note_off_c, 6, 71, 64
8, 45324, Note_off_c, 6, 78, 64
8, 45326, Note_on_c, 6, 79, 89
8, 45710, Note_off_c, 6, 79, 64
8, 45806, Note_on_c, 6, 78, 60
8, 45901, Note_off_c, 6, 78, 64
8, 46072, Note_on_c, 6, 64, 78
8, 46163, Note_on_c, 6, 75, 78
8, 46189, Note_off_c, 6, 64, 64
8, 46275, Note_off_c, 6, 75, 64
8, 46280, Note_on_c, 6, 76, 87
8, 46599, Note_off_c, 6, 76, 64
8, 46775, Note_on_c, 6, 70, 70
8, 46871, Note_on_c, 6, 71, 82
8, 46877, Note_off_c, 6, 70, 64
8, 46981, Note_off_c, 6, 71, 64
8, 47021, Note_on_c, 6, 73, 82
8, 47128, Note_off_c, 6, 73, 64
8, 47262, Note_on_c, 6, 76, 80
8, 47340, Note_off_c, 6, 76, 64
8, 47504, Note_on_c, 6, 79, 100
8, 47727, Note_on_c, 6, 78, 57
8, 47747, Note_off_c, 6, 79, 64
8, 47845, Note_off_c, 6, 78, 64
8, 47978, Note_on_c, 6, 66, 61
8, 48071, Note_off_c, 6, 66, 64
8, 48217, Note_on_c, 6, 73, 78
8, 48338, Note_off_c, 6, 73, 64
8, 48469, Note_on_c, 6, 76, 95
8, 48697, Note_off_c, 6, 76, 64
8, 48699, Note_on_c, 6, 74, 70
8, 48806, Note_off_c, 6, 74, 64
8, 48945, Note_on_c, 6, 83, 85
8, 49084, Note_off_c, 6, 83, 64
8, 49179, Note_on_c, 6, 78, 82
8, 49266, Note_off_c, 6, 78, 64
8, 49273, Note_on_c, 6, 76, 87
8, 49376, Note_off_c, 6, 76, 64
8, 49397, Note_on_c, 6, 74, 85
8, 49534, Note_off_c, 6, 74, 64
8, 49651, Note_on_c, 6, 73, 91
8, 49749, Note_off_c, 6, 73, 64
8, 49903, Note_on_c, 6, 71, 87
8, 50404, Note_off_c, 6, 71, 64
8, 50629, Note_on_c, 6, 66, 80
8, 50713, Note_off_c, 6, 66, 64
8, 50714, Note_on_c, 6, 67, 85
8, 50827, Note_off_c, 6, 67, 64
8, 50851, Note_on_c, 6, 69, 89
8, 50931, Note_off_c, 6, 69, 64
8, 51099, Note_on_c, 6, 74, 91
8, 51181, Note_off_c, 6, 74, 64
8, 51353, Note_on_c, 6, 66, 89
8, 51588, Note_on_c, 6, 64, 82
8, 51606, Note_off_c, 6, 66, 64
8, 51778, Note_off_c, 6, 64, 64
8, 51823, Note_on_c, 6, 62, 72
8, 51893, Note_off_c, 6, 62, 64
8, 52071, Note_on_c, 6, 81, 91
8, 52166, Note_off_c, 6, 81, 64
8, 52312, Note_on_c, 6, 72, 95
8, 52542, Note_on_c, 6, 71, 70
8, 52557, Note_off_c, 6, 72, 64
8, 52734, Note_off_c, 6, 71, 64
8, 52777, Note_on_c, 6, 72, 60
8, 52905, Note_off_c, 6, 72, 64
8, 53020, Note_on_c, 6, 78, 91
8, 53091, Note_off_c, 6, 78, 64
8, 53118, Note_on_c, 6, 79, 89
8, 53204, Note_off_c, 6, 79, 64
8, 53252, Note_on_c, 6, 81, 98
8, 53359, Note_off_c, 6, 81, 64
8, 53489, Note_on_c, 6, 72, 85
8, 53573, Note_off_c, 6, 72, 64
8, 53742, Note_on_c, 6, 71, 93
8, 53848, Note_on_c, 6, 69, 74
8, 53853, Note_off_c, 6, 71, 64
8, 53946, Note_off_c, 6, 69, 64
8, 53970, Note_on_c, 6, 67, 70
8, 54080, Note_on_c, 6, 69, 68
8, 54083, Note_off_c, 6, 67, 64
8, 54173, Note_off_c, 6, 69, 64
8, 54209, Note_on_c, 6, 71, 80
8, 54308, Note_off_c, 6, 71, 64
8, 54315, Note_on_c, 6, 74, 68
8, 54401, Note_off_c, 6, 74, 64
8, 54441, Note_on_c, 6, 73, 89
8, 54528, Note_off_c, 6, 73, 64
8, 54545, Note_on_c, 6, 76, 82
8, 54610, Note_off_c, 6, 76, 64
8, 54671, Note_on_c, 6, 74, 102
8, 54786, Note_on_c, 6, 73, 68
8, 54811, Note_off_c, 6, 74, 64
8, 54880, Note_off_c, 6, 73, 64
8, 54903, Note_on_c, 6, 71, 59
8, 54993, Note_off_c, 6, 71, 64
8, 55030, Note_on_c, 6, 73, 57
8, 55100, Note_off_c, 6, 73, 64
8, 55154, Note_on_c, 6, 74, 68
8, 55249, Note_off_c, 6, 74, 64
8, 55269, Note_on_c, 6, 78, 59
8, 55340, Note_off_c, 6, 78, 64
8, 55393, Note_on_c, 6, 76, 82
8, 55482, Note_off_c, 6, 76, 64
8, 55510, Note_on_c, 6, 79, 78
8, 55572, Note_off_c, 6, 79, 64
8, 55643, Note_on_c, 6, 78, 102
8, 55763, Note_on_c, 6, 76, 78
8, 55794, Note_off_c, 6, 78, 64
8, 55865, Note_off_c, 6, 76, 64
8, 55882, Note_on_c, 6, 74, 70
8, 55986, Note_off_c, 6, 74, 64
8, 56005, Note_on_c, 6, 76, 64
8, 56077, Note_off_c, 6, 76, 64
8, 56128, Note_on_c, 6, 78, 87
8, 56236, Note_on_c, 6, 81, 78
8, 56248, Note_off_c, 6, 78, 64
8, 56303, Note_off_c, 6, 81, 64
8, 56360, Note_on_c, 6, 79, 80
8, 56453, Note_off_c, 6, 79, 64
8, 56465, Note_on_c, 6, 83, 72
8, 56538, Note_off_c, 6, 83, 64
8, 56600, Note_on_c, 6, 81, 100
8, 56776, Note_off_c, 6, 81, 64
8, 56847, Note_on_c, 6, 80, 98
8, 56943, Note_on_c, 6, 81, 87
8, 56967, Note_off_c, 6, 80, 64
8, 57053, Note_off_c, 6, 81, 64
8, 57075, Note_on_c, 6, 83, 85
8, 57164, Note_off_c, 6, 83, 64
8, 57328, Note_on_c, 6, 74, 93
8, 57418, Note_off_c, 6, 74, 64
8, 57591, Note_on_c, 6, 73, 102
8, 57686, Note_on_c, 6, 74, 82
8, 57705, Note_off_c, 6, 73, 64
8, 57797, Note_off_c, 6, 74, 64
8, 57815, Note_on_c, 6, 73, 64
8, 57906, Note_off_c, 6, 73, 64
8, 57914, Note_on_c, 6, 71, 70
8, 58018, Note_off_c, 6, 71, 64
8, 58054, Note_on_c, 6, 69, 72
8, 58158, Note_off_c, 6, 69, 64
8, 58165, Note_on_c, 6, 71, 66
8, 58255, Note_off_c, 6, 71, 64
8, 58295, Note_on_c, 6, 73, 62
8, 58384, Note_off_c, 6, 73, 64
8, 58399, Note_on_c, 6, 69, 74
8, 58475, Note_off_c, 6, 69, 64
8, 58528, Note_on_c, 6, 66, 89
8, 58636, Note_off_c, 6, 66, 64
8, 58637, Note_on_c, 6, 73, 64
8, 58724, Note_off_c, 6, 73, 64
8, 58765, Note_on_c, 6, 74, 87
8, 59066, Note_off_c, 6, 74, 64
8, 59242, Note_on_c, 6, 78, 85
8, 59349, Note_off_c, 6, 78, 64
8, 59499, Note_on_c, 6, 83, 85
8, 59586, Note_off_c, 6, 83, 64
8, 59606, Note_on_c, 6, 73, 64
8, 59679, Note_off_c, 6, 73, 64
8, 59723, Note_on_c, 6, 74, 93
8, 59999, Note_off_c, 6, 74, 64
8, 60216, Note_on_c, 6, 73, 63
8, 60316, Note_on_c, 6, 71, 82
8, 60325, Note_off_c, 6, 73, 64
8, 60398, Note_off_c, 6, 71, 64
8, 60444, Note_on_c, 6, 73, 91
8, 60527, Note_off_c, 6, 73, 64
8, 60551, Note_on_c, 6, 69, 66
8, 60628, Note_off_c, 6, 69, 64
8, 60690, Note_on_c, 6, 81, 91
8, 60832, Note_off_c, 6, 81, 64
8, 60916, Note_on_c, 6, 74, 82
8, 61022, Note_off_c, 6, 74, 64
8, 61171, Note_on_c, 6, 76, 80
8, 61235, Note_off_c, 6, 76, 64
8, 61270, Note_on_c, 6, 73, 93
8, 61336, Note_off_c, 6, 73, 64
8, 61414, Note_on_c, 6, 74, 102
8, 61892, Note_off_c, 6, 74, 64
8, 61892, End_track
9, 0, Start_track
9, 0, Title_t, "Violin"
9, 0, Program_c, 7, 40
9, 0, Control_c, 7, 7, 100
9, 696, Note_on_c, 7, 62, 95
9, 774, Note_off_c, 7, 62, 64
9, 795, Note_on_c, 7, 64, 87
9, 880, Note_off_c, 7, 64, 64
9, 919, Note_on_c, 7, 66, 98
9, 1008, Note_off_c, 7, 66, 64
9, 1172, Note_on_c, 7, 69, 91
9, 1251, Note_off_c, 7, 69, 64
9, 1413, Note_on_c, 7, 66, 80
9, 1519, Note_off_c, 7, 66, 64
9, 1655, Note_on_c, 7, 61, 70
9, 1743, Note_off_c, 7, 61, 64
9, 1893, Note_on_c, 7, 62, 87
9, 1989, Note_off_c, 7, 62, 64
9, 2130, Note_on_c, 7, 66, 64
9, 2225, Note_off_c, 7, 66, 64
9, 2374, Note_on_c, 7, 62, 80
9, 2467, Note_off_c, 7, 62, 64
9, 2629, Note_on_c, 7, 58, 70
9, 2739, Note_off_c, 7, 58, 64
9, 2874, Note_on_c, 7, 59, 82
9, 2994, Note_off_c, 7, 59, 64
9, 3115, Note_on_c, 7, 62, 85
9, 3186, Note_off_c, 7, 62, 64
9, 3208, Note_on_c, 7, 61, 91
9, 3292, Note_off_c, 7, 61, 64
9, 3341, Note_on_c, 7, 59, 87
9, 3443, Note_off_c, 7, 59, 64
9, 3574, Note_on_c, 7, 64, 85
9, 3651, Note_off_c, 7, 64, 64
9, 3811, Note_on_c, 7, 64, 85
9, 3912, Note_off_c, 7, 64, 64
9, 4053, Note_on_c, 7, 61, 70
9, 4140, Note_off_c, 7, 61, 64
9, 4282, Note_on_c, 7, 57, 85
9, 4371, Note_off_c, 7, 57, 64
9, 4525, Note_on_c, 7, 61, 82
9, 4605, Note_off_c, 7, 61, 64
9, 4764, Note_on_c, 7, 62, 82
9, 4855, Note_off_c, 7, 62, 64
9, 5015, Note_on_c, 7, 71, 85
9, 5090, Note_off_c, 7, 71, 64
9, 5125, Note_on_c, 7, 69, 85
9, 5192, Note_off_c, 7, 69, 64
9, 5243, Note_on_c, 7, 71, 91
9, 5316, Note_off_c, 7, 71, 64
9, 5499, Note_on_c, 7, 62, 89
9, 5581, Note_off_c, 7, 62, 64
9, 5754, Note_on_c, 7, 64, 89
9, 5851, Note_off_c, 7, 64, 64
9, 5993, Note_on_c, 7, 76, 93
9, 6075, Note_off_c, 7, 76, 64
9, 6099, Note_on_c, 7, 74, 91
9, 6166, Note_off_c, 7, 74, 64
9, 6212, Note_on_c, 7, 76, 91
9, 6296, Note_off_c, 7, 76, 64
9, 6453, Note_on_c, 7, 68, 76
9, 6551, Note_off_c, 7, 68, 64
9, 6704, Note_on_c, 7, 64, 85
9, 6810, Note_off_c, 7, 64, 64
9, 6940, Note_on_c, 7, 69, 91
9, 7018, Note_off_c, 7, 69, 64
9, 7168, Note_on_c, 7, 66, 78
9, 7259, Note_off_c, 7, 66, 64
9, 7397, Note_on_c, 7, 64, 85
9, 7470, Note_off_c, 7, 64, 64
9, 7636, Note_on_c, 7, 64, 95
9, 8018, Note_off_c, 7, 64, 64
9, 8370, Note_on_c, 7, 62, 89
9, 8454, Note_off_c, 7, 62, 64
9, 8464, Note_on_c, 7, 64, 89
9, 8550, Note_off_c, 7, 64, 64
9, 8590, Note_on_c, 7, 66, 98
9, 8683, Note_off_c, 7, 66, 64
9, 8857, Note_on_c, 7, 69, 91
9, 8930, Note_off_c, 7, 69, 64
9, 9097, Note_on_c, 7, 66, 78
9, 9201, Note_off_c, 7, 66, 64
9, 9335, Note_on_c, 7, 61, 74
9, 9426, Note_off_c, 7, 61, 64
9, 9576, Note_on_c, 7, 62, 82
9, 9674, Note_off_c, 7, 62, 64
9, 9818, Note_on_c, 7, 66, 74
9, 9915, Note_off_c, 7, 66, 64
9, 10068, Note_on_c, 7, 62, 78
9, 10186, Note_off_c, 7, 62, 64
9, 10309, Note_on_c, 7, 58, 66
9, 10422, Note_off_c, 7, 58, 64
9, 10546, Note_on_c, 7, 59, 80
9, 10670, Note_off_c, 7, 59, 64
9, 10783, Note_on_c, 7, 62, 89
9, 10858, Note_off_c, 7, 62, 64
9, 10881, Note_on_c, 7, 61, 89
9, 10967, Note_off_c, 7, 61, 64
9, 11014, Note_on_c, 7, 59, 93
9, 11117, Note_off_c, 7, 59, 64
9, 11257, Note_on_c, 7, 64, 82
9, 11357, Note_off_c, 7, 64, 64
9, 11505, Note_on_c, 7, 64, 87
9, 11624, Note_off_c, 7, 64, 64
9, 11729, Note_on_c, 7, 61, 74
9, 11848, Note_off_c, 7, 61, 64
9, 11974, Note_on_c, 7, 57, 82
9, 12078, Note_off_c, 7, 57, 64
9, 12204, Note_on_c, 7, 61, 78
9, 12308, Note_off_c, 7, 61, 64
9, 12457, Note_on_c, 7, 62, 85
9, 12587, Note_off_c, 7, 62, 64
9, 12707, Note_on_c, 7, 71, 80
9, 12796, Note_off_c, 7, 71, 64
9, 12813, Note_on_c, 7, 69, 80
9, 12904, Note_off_c, 7, 69, 64
9, 12933, Note_on_c, 7, 71, 85
9, 13021, Note_off_c, 7, 71, 64
9, 13189, Note_on_c, 7, 62, 82
9, 13271, Note_off_c, 7, 62, 64
9, 13431, Note_on_c, 7, 64, 87
9, 13537, Note_off_c, 7, 64, 64
9, 13672, Note_on_c, 7, 76, 89
9, 13749, Note_off_c, 7, 76, 64
9, 13781, Note_on_c, 7, 74, 95
9, 13860, Note_off_c, 7, 74, 64
9, 13909, Note_on_c, 7, 76, 91
9, 14024, Note_off_c, 7, 76, 64
9, 14139, Note_on_c, 7, 68, 80
9, 14250, Note_off_c, 7, 68, 64
9, 14380, Note_on_c, 7, 64, 85
9, 14486, Note_off_c, 7, 64, 64
9, 14620, Note_on_c, 7, 69, 91
9, 14721, Note_off_c, 7, 69, 64
9, 14848, Note_on_c, 7, 66, 80
9, 14951, Note_off_c, 7, 66, 64
9, 15073, Note_on_c, 7, 64, 87
9, 15159, Note_off_c, 7, 64, 64
9, 15332, Note_on_c, 7, 64, 100
9, 15810, Note_off_c, 7, 64, 64
9, 39075, Note_on_c, 7, 69, 87
9, 39167, Note_on_c, 7, 71, 82
9, 39190, Note_off_c, 7, 69, 64
9, 39278, Note_off_c, 7, 71, 64
9, 39289, Note_on_c, 7, 73, 82
9, 39371, Note_off_c, 7, 73, 64
9, 39553, Note_on_c, 7, 76, 85
9, 39639, Note_off_c, 7, 76, 64
9, 39805, Note_on_c, 7, 73, 72
9, 39935, Note_off_c, 7, 73, 64
9, 40042, Note_on_c, 7, 68, 78
9, 40142, Note_off_c, 7, 68, 64
9, 40294, Note_on_c, 7, 69, 87
9, 40412, Note_off_c, 7, 69, 64
9, 40540, Note_on_c, 7, 73, 66
9, 40640, Note_off_c, 7, 73, 64
9, 40781, Note_on_c, 7, 69, 85
9, 40878, Note_off_c, 7, 69, 64
9, 41020, Note_on_c, 7, 64, 68
9, 41113, Note_off_c, 7, 64, 64
9, 41251, Note_on_c, 7, 66, 63
9, 41368, Note_off_c, 7, 66, 64
9, 41494, Note_on_c, 7, 69, 78
9, 41598, Note_off_c, 7, 69, 64
9, 41742, Note_on_c, 7, 71, 78
9, 41835, Note_off_c, 7, 71, 64
9, 41977, Note_on_c, 7, 69, 72
9, 42052, Note_off_c, 7, 69, 64
9, 42228, Note_on_c, 7, 69, 68
9, 42607, Note_off_c, 7, 69, 64
9, 42694, Note_on_c, 7, 69, 78
9, 42793, Note_off_c, 7, 69, 64
9, 42925, Note_on_c, 7, 69, 74
9, 42999, Note_off_c, 7, 69, 64
9, 43170, Note_on_c, 7, 71, 82
9, 43256, Note_on_c, 7, 75, 66
9, 43296, Note_off_c, 7, 71, 64
9, 43365, Note_off_c, 7, 75, 64
9, 43376, Note_on_c, 7, 76, 87
9, 43710, Note_off_c, 7, 76, 64
9, 43889, Note_on_c, 7, 71, 66
9, 43982, Note_off_c, 7, 71, 64
9, 44157, Note_on_c, 7, 69, 76
9, 44263, Note_on_c, 7, 66, 63
9, 44270, Note_off_c, 7, 69, 64
9, 44370, Note_off_c, 7, 66, 64
9, 44391, Note_on_c, 7, 67, 85
9, 44761, Note_off_c, 7, 67, 64
9, 44859, Note_on_c, 7, 63, 76
9, 44941, Note_off_c, 7, 63, 64
9, 45109, Note_on_c, 7, 64, 70
9, 45204, Note_on_c, 7, 75, 78
9, 45220, Note_off_c, 7, 64, 64
9, 45310, Note_off_c, 7, 75, 64
9, 45328, Note_on_c, 7, 76, 85
9, 45707, Note_off_c, 7, 76, 64
9, 45815, Note_on_c, 7, 75, 64
9, 45894, Note_off_c, 7, 75, 64
9, 46072, Note_on_c, 7, 76, 82
9, 46176, Note_off_c, 7, 76, 64
9, 46306, Note_on_c, 7, 70, 78
9, 46406, Note_on_c, 7, 71, 78
9, 46415, Note_off_c, 7, 70, 64
9, 46519, Note_off_c, 7, 71, 64
9, 46537, Note_on_c, 7, 70, 78
9, 46630, Note_off_c, 7, 70, 64
9, 46775, Note_on_c, 7, 73, 68
9, 46853, Note_off_c, 7, 73, 64
9, 47017, Note_on_c, 7, 66, 66
9, 47119, Note_off_c, 7, 66, 64
9, 47256, Note_on_c, 7, 73, 62
9, 47344, Note_off_c, 7, 73, 64
9, 47502, Note_on_c, 7, 76, 95
9, 47637, Note_off_c, 7, 76, 64
9, 47741, Note_on_c, 7, 66, 64
9, 47840, Note_on_c, 7, 68, 80
9, 47852, Note_off_c, 7, 66, 64
9, 47935, Note_off_c, 7, 68, 64
9, 47975, Note_on_c, 7, 70, 85
9, 48086, Note_off_c, 7, 70, 64
9, 48219, Note_on_c, 7, 66, 68
9, 48321, Note_off_c, 7, 66, 64
9, 48462, Note_on_c, 7, 73, 72
9, 48570, Note_off_c, 7, 73, 64
9, 48697, Note_on_c, 7, 71, 80
9, 48786, Note_off_c, 7, 71, 64
9, 48940, Note_on_c, 7, 71, 72
9, 49066, Note_off_c, 7, 71, 64
9, 49188, Note_on_c, 7, 74, 87
9, 49286, Note_off_c, 7, 74, 64
9, 49290, Note_on_c, 7, 73, 95
9, 49383, Note_off_c, 7, 73, 64
9, 49408, Note_on_c, 7, 71, 85
9, 49532, Note_off_c, 7, 71, 64
9, 49647, Note_on_c, 7, 70, 70
9, 49739, Note_off_c, 7, 70, 64
9, 49894, Note_on_c, 7, 66, 72
9, 50407, Note_off_c, 7, 66, 64
9, 50625, Note_on_c, 7, 62, 68
9, 50705, Note_on_c, 7, 64, 82
9, 50727, Note_off_c, 7, 62, 64
9, 50815, Note_off_c, 7, 64, 64
9, 50840, Note_on_c, 7, 66, 87
9, 50911, Note_off_c, 7, 66, 64
9, 51090, Note_on_c, 7, 62, 76
9, 51161, Note_off_c, 7, 62, 64
9, 51335, Note_on_c, 7, 69, 82
9, 51566, Note_on_c, 7, 71, 80
9, 51601, Note_off_c, 7, 69, 64
9, 51798, Note_off_c, 7, 71, 64
9, 51807, Note_on_c, 7, 72, 61
9, 51904, Note_off_c, 7, 72, 64
9, 52055, Note_on_c, 7, 62, 66
9, 52132, Note_off_c, 7, 62, 64
9, 52299, Note_on_c, 7, 69, 91
9, 52524, Note_on_c, 7, 67, 63
9, 52546, Note_off_c, 7, 69, 64
9, 52770, Note_off_c, 7, 67, 64
9, 52770, Note_on_c, 7, 66, 56
9, 52889, Note_off_c, 7, 66, 64
9, 53018, Note_on_c, 7, 72, 87
9, 53129, Note_on_c, 7, 71, 80
9, 53135, Note_off_c, 7, 72, 64
9, 53206, Note_off_c, 7, 71, 64
9, 53248, Note_on_c, 7, 69, 82
9, 53354, Note_off_c, 7, 69, 64
9, 53486, Note_on_c, 7, 66, 66
9, 53587, Note_off_c, 7, 66, 64
9, 53726, Note_on_c, 7, 67, 78
9, 53839, Note_off_c, 7, 67, 64
9, 53963, Note_on_c, 7, 62, 78
9, 54060, Note_off_c, 7, 62, 64
9, 54202, Note_on_c, 7, 67, 78
9, 54311, Note_off_c, 7, 67, 64
9, 54443, Note_on_c, 7, 67, 70
9, 54543, Note_off_c, 7, 67, 64
9, 54674, Note_on_c, 7, 66, 80
9, 54809, Note_off_c, 7, 66, 64
9, 54926, Note_on_c, 7, 62, 70
9, 55021, Note_off_c, 7, 62, 64
9, 55159, Note_on_c, 7, 74, 87
9, 55271, Note_off_c, 7, 74, 64
9, 55398, Note_on_c, 7, 69, 80
9, 55497, Note_off_c, 7, 69, 64
9, 55643, Note_on_c, 7, 69, 95
9, 55763, Note_off_c, 7, 69, 64
9, 55873, Note_on_c, 7, 66, 68
9, 55984, Note_off_c, 7, 66, 64
9, 56110, Note_on_c, 7, 69, 82
9, 56210, Note_off_c, 7, 69, 64
9, 56356, Note_on_c, 7, 73, 76
9, 56464, Note_off_c, 7, 73, 64
9, 56617, Note_on_c, 7, 74, 93
9, 56724, Note_off_c, 7, 74, 64
9, 56724, Note_on_c, 7, 76, 93
9, 56810, Note_off_c, 7, 76, 64
9, 56839, Note_on_c, 7, 74, 82
9, 56931, Note_off_c, 7, 74, 64
9, 56946, Note_on_c, 7, 73, 63
9, 57035, Note_off_c, 7, 73, 64
9, 57078, Note_on_c, 7, 71, 74
9, 57191, Note_off_c, 7, 71, 64
9, 57320, Note_on_c, 7, 68, 70
9, 57427, Note_off_c, 7, 68, 64
9, 57574, Note_on_c, 7, 69, 89
9, 57697, Note_off_c, 7, 69, 64
9, 57819, Note_on_c, 7, 64, 80
9, 57943, Note_off_c, 7, 64, 64
9, 58050, Note_on_c, 7, 66, 70
9, 58175, Note_off_c, 7, 66, 64
9, 58300, Note_on_c, 7, 67, 74
9, 58386, Note_off_c, 7, 67, 64
9, 58563, Note_on_c, 7, 69, 95
9, 58641, Note_on_c, 7, 64, 68
9, 58678, Note_off_c, 7, 69, 64
9, 58749, Note_off_c, 7, 64, 64
9, 58755, Note_on_c, 7, 66, 66
9, 59092, Note_off_c, 7, 66, 64
9, 59271, Note_on_c, 7, 71, 78
9, 59373, Note_on_c, 7, 69, 80
9, 59393, Note_off_c, 7, 71, 64
9, 59462, Note_off_c, 7, 69, 64
9, 59494, Note_on_c, 7, 68, 87
9, 59592, Note_on_c, 7, 69, 89
9, 59610, Note_off_c, 7, 68, 64
9, 59710, Note_on_c, 7, 71, 87
9, 59719, Note_off_c, 7, 69, 64
9, 60013, Note_off_c, 7, 71, 64
9, 60205, Note_on_c, 7, 68, 60
9, 60361, Note_off_c, 7, 68, 64
9, 60434, Note_on_c, 7, 69, 63
9, 60557, Note_off_c, 7, 69, 64
9, 60664, Note_on_c, 7, 69, 68
9, 60766, Note_off_c, 7, 69, 64
9, 60916, Note_on_c, 7, 69, 74
9, 61016, Note_off_c, 7, 69, 64
9, 61159, Note_on_c, 7, 69, 80
9, 61242, Note_off_c, 7, 69, 64
9, 61408, Note_on_c, 7, 69, 82
9, 61912, Note_off_c, 7, 69, 64
9, 61912, End_track
10, 0, Start_track
10, 0, Title_t, "Viola"
10, 0, Program_c, 8, 41
10, 0, Control_c, 8, 7, 100
10, 1178, Note_on_c, 8, 66, 80
10, 1285, Note_off_c, 8, 66, 64
10, 1287, Note_on_c, 8, 64, 82
10, 1380, Note_off_c, 8, 64, 64
10, 1411, Note_on_c, 8, 66, 82
10, 1530, Note_off_c, 8, 66, 64
10, 2150, Note_on_c, 8, 69, 98
10, 2254, Note_off_c, 8, 69, 64
10, 2256, Note_on_c, 8, 67, 91
10, 2347, Note_off_c, 8, 67, 64
10, 2370, Note_on_c, 8, 69, 68
10, 2482, Note_off_c, 8, 69, 64
10, 3115, Note_on_c, 8, 62, 98
10, 3189, Note_off_c, 8, 62, 64
10, 3213, Note_on_c, 8, 64, 87
10, 3286, Note_off_c, 8, 64, 64
10, 3341, Note_on_c, 8, 62, 102
10, 3416, Note_off_c, 8, 62, 64
10, 3591, Note_on_c, 8, 62, 82
10, 3680, Note_off_c, 8, 62, 64
10, 3821, Note_on_c, 8, 61, 80
10, 3914, Note_off_c, 8, 61, 64
10, 4060, Note_on_c, 8, 64, 85
10, 4154, Note_off_c, 8, 64, 64
10, 4288, Note_on_c, 8, 62, 85
10, 4393, Note_off_c, 8, 62, 64
10, 4525, Note_on_c, 8, 57, 80
10, 4630, Note_off_c, 8, 57, 64
10, 4775, Note_on_c, 8, 57, 89
10, 4884, Note_off_c, 8, 57, 64
10, 5035, Note_on_c, 8, 66, 93
10, 5110, Note_off_c, 8, 66, 64
10, 5125, Note_on_c, 8, 64, 98
10, 5218, Note_off_c, 8, 64, 64
10, 5252, Note_on_c, 8, 66, 82
10, 5367, Note_off_c, 8, 66, 64
10, 6011, Note_on_c, 8, 71, 95
10, 6095, Note_on_c, 8, 69, 85
10, 6103, Note_off_c, 8, 71, 64
10, 6190, Note_off_c, 8, 69, 64
10, 6217, Note_on_c, 8, 71, 82
10, 6312, Note_off_c, 8, 71, 64
10, 6462, Note_on_c, 8, 59, 74
10, 6548, Note_off_c, 8, 59, 64
10, 6710, Note_on_c, 8, 57, 82
10, 6821, Note_off_c, 8, 57, 64
10, 6943, Note_on_c, 8, 61, 80
10, 7049, Note_off_c, 8, 61, 64
10, 7180, Note_on_c, 8, 62, 87
10, 7268, Note_off_c, 8, 62, 64
10, 7403, Note_on_c, 8, 59, 82
10, 7478, Note_off_c, 8, 59, 64
10, 7651, Note_on_c, 8, 61, 87
10, 8080, Note_off_c, 8, 61, 64
10, 8864, Note_on_c, 8, 66, 87
10, 8962, Note_off_c, 8, 66, 64
10, 8962, Note_on_c, 8, 64, 89
10, 9063, Note_off_c, 8, 64, 64
10, 9085, Note_on_c, 8, 66, 87
10, 9234, Note_off_c, 8, 66, 64
10, 9845, Note_on_c, 8, 69, 93
10, 9938, Note_on_c, 8, 67, 91
10, 9940, Note_off_c, 8, 69, 64
10, 10035, Note_off_c, 8, 67, 64
10, 10050, Note_on_c, 8, 69, 72
10, 10195, Note_off_c, 8, 69, 64
10, 10794, Note_on_c, 8, 62, 87
10, 10898, Note_on_c, 8, 64, 87
10, 10900, Note_off_c, 8, 62, 64
10, 10985, Note_off_c, 8, 64, 64
10, 11016, Note_on_c, 8, 62, 91
10, 11124, Note_off_c, 8, 62, 64
10, 11255, Note_on_c, 8, 62, 82
10, 11354, Note_off_c, 8, 62, 64
10, 11506, Note_on_c, 8, 61, 85
10, 11616, Note_off_c, 8, 61, 64
10, 11756, Note_on_c, 8, 64, 89
10, 11861, Note_off_c, 8, 64, 64
10, 11981, Note_on_c, 8, 62, 82
10, 12085, Note_off_c, 8, 62, 64
10, 12216, Note_on_c, 8, 57, 85
10, 12317, Note_off_c, 8, 57, 64
10, 12464, Note_on_c, 8, 57, 93
10, 12568, Note_off_c, 8, 57, 64
10, 12722, Note_on_c, 8, 66, 98
10, 12807, Note_off_c, 8, 66, 64
10, 12809, Note_on_c, 8, 64, 102
10, 12900, Note_off_c, 8, 64, 64
10, 12926, Note_on_c, 8, 66, 80
10, 13065, Note_off_c, 8, 66, 64
10, 13694, Note_on_c, 8, 71, 102
10, 13781, Note_off_c, 8, 71, 64
10, 13781, Note_on_c, 8, 69, 93
10, 13873, Note_off_c, 8, 69, 64
10, 13905, Note_on_c, 8, 71, 82
10, 14002, Note_off_c, 8, 71, 64
10, 14141, Note_on_c, 8, 59, 64
10, 14227, Note_off_c, 8, 59, 64
10, 14391, Note_on_c, 8, 57, 80
10, 14504, Note_off_c, 8, 57, 64
10, 14627, Note_on_c, 8, 61, 82
10, 14730, Note_off_c, 8, 61, 64
10, 14856, Note_on_c, 8, 62, 80
10, 14951, Note_off_c, 8, 62, 64
10, 15080, Note_on_c, 8, 59, 85
10, 15162, Note_off_c, 8, 59, 64
10, 15329, Note_on_c, 8, 61, 87
10, 15837, Note_off_c, 8, 61, 64
10, 39559, Note_on_c, 8, 73, 78
10, 39657, Note_on_c, 8, 71, 72
10, 39672, Note_off_c, 8, 73, 64
10, 39785, Note_off_c, 8, 71, 64
10, 39785, Note_on_c, 8, 73, 74
10, 39942, Note_off_c, 8, 73, 64
10, 40551, Note_on_c, 8, 64, 82
10, 40650, Note_on_c, 8, 62, 80
10, 40666, Note_off_c, 8, 64, 64
10, 40770, Note_on_c, 8, 64, 74
10, 40771, Note_off_c, 8, 62, 64
10, 40916, Note_off_c, 8, 64, 64
10, 41501, Note_on_c, 8, 62, 68
10, 41642, Note_off_c, 8, 62, 64
10, 41739, Note_on_c, 8, 62, 78
10, 41857, Note_off_c, 8, 62, 64
10, 41976, Note_on_c, 8, 61, 70
10, 42091, Note_off_c, 8, 61, 64
10, 42231, Note_on_c, 8, 62, 82
10, 42335, Note_off_c, 8, 62, 64
10, 42474, Note_on_c, 8, 62, 85
10, 42556, Note_on_c, 8, 64, 87
10, 42576, Note_off_c, 8, 62, 64
10, 42674, Note_off_c, 8, 64, 64
10, 42687, Note_on_c, 8, 66, 82
10, 42845, Note_off_c, 8, 66, 64
10, 43413, Note_on_c, 8, 64, 78
10, 43519, Note_on_c, 8, 63, 66
10, 43547, Note_off_c, 8, 64, 64
10, 43639, Note_on_c, 8, 64, 72
10, 43648, Note_off_c, 8, 63, 64
10, 43792, Note_off_c, 8, 64, 64
10, 44381, Note_on_c, 8, 64, 74
10, 44489, Note_on_c, 8, 63, 64
10, 44509, Note_off_c, 8, 64, 64
10, 44606, Note_on_c, 8, 64, 85
10, 44615, Note_off_c, 8, 63, 64
10, 44772, Note_off_c, 8, 64, 64
10, 45341, Note_on_c, 8, 64, 82
10, 45443, Note_on_c, 8, 63, 64
10, 45472, Note_off_c, 8, 64, 64
10, 45565, Note_on_c, 8, 64, 78
10, 45572, Note_off_c, 8, 63, 64
10, 45698, Note_off_c, 8, 64, 64
10, 45817, Note_on_c, 8, 66, 78
10, 45926, Note_off_c, 8, 66, 64
10, 46058, Note_on_c, 8, 59, 66
10, 46169, Note_off_c, 8, 59, 64
10, 46317, Note_on_c, 8, 64, 89
10, 46412, Note_on_c, 8, 63, 68
10, 46441, Note_off_c, 8, 64, 64
10, 46532, Note_on_c, 8, 64, 78
10, 46536, Note_off_c, 8, 63, 64
10, 46692, Note_off_c, 8, 64, 64
10, 47280, Note_on_c, 8, 61, 85
10, 47376, Note_on_c, 8, 59, 64
10, 47396, Note_off_c, 8, 61, 64
10, 47491, Note_on_c, 8, 61, 74
10, 47493, Note_off_c, 8, 59, 64
10, 47661, Note_off_c, 8, 61, 64
10, 48226, Note_on_c, 8, 70, 89
10, 48321, Note_on_c, 8, 68, 61
10, 48349, Note_off_c, 8, 70, 64
10, 48449, Note_on_c, 8, 70, 76
10, 48474, Note_off_c, 8, 68, 64
10, 48582, Note_off_c, 8, 70, 64
10, 48694, Note_on_c, 8, 71, 82
10, 48801, Note_off_c, 8, 71, 64
10, 48943, Note_on_c, 8, 66, 85
10, 49069, Note_off_c, 8, 66, 64
10, 49184, Note_on_c, 8, 71, 82
10, 49299, Note_off_c, 8, 71, 64
10, 49419, Note_on_c, 8, 66, 85
10, 49540, Note_off_c, 8, 66, 64
10, 49658, Note_on_c, 8, 64, 78
10, 49766, Note_off_c, 8, 64, 64
10, 49910, Note_on_c, 8, 62, 78
10, 50010, Note_off_c, 8, 62, 64
10, 50154, Note_on_c, 8, 62, 85
10, 50247, Note_on_c, 8, 61, 60
10, 50271, Note_off_c, 8, 62, 64
10, 50371, Note_on_c, 8, 62, 60
10, 50377, Note_off_c, 8, 61, 64
10, 50550, Note_off_c, 8, 62, 64
10, 51103, Note_on_c, 8, 57, 85
10, 51201, Note_on_c, 8, 59, 70
10, 51229, Note_off_c, 8, 57, 64
10, 51327, Note_on_c, 8, 60, 59
10, 51345, Note_off_c, 8, 59, 64
10, 51521, Note_off_c, 8, 60, 64
10, 52070, Note_on_c, 8, 66, 80
10, 52163, Note_on_c, 8, 67, 78
10, 52194, Note_off_c, 8, 66, 64
10, 52290, Note_on_c, 8, 69, 80
10, 52298, Note_off_c, 8, 67, 64
10, 52464, Note_off_c, 8, 69, 64
10, 53031, Note_on_c, 8, 69, 82
10, 53162, Note_off_c, 8, 69, 64
10, 53264, Note_on_c, 8, 62, 80
10, 53370, Note_off_c, 8, 62, 64
10, 53503, Note_on_c, 8, 62, 80
10, 53607, Note_off_c, 8, 62, 64
10, 53742, Note_on_c, 8, 62, 85
10, 53852, Note_off_c, 8, 62, 64
10, 53972, Note_on_c, 8, 59, 70
10, 54100, Note_off_c, 8, 59, 64
10, 54207, Note_on_c, 8, 64, 80
10, 54342, Note_off_c, 8, 64, 64
10, 54433, Note_on_c, 8, 64, 72
10, 54558, Note_off_c, 8, 64, 64
10, 54669, Note_on_c, 8, 62, 78
10, 54800, Note_off_c, 8, 62, 64
10, 54899, Note_on_c, 8, 66, 78
10, 55035, Note_off_c, 8, 66, 64
10, 55150, Note_on_c, 8, 66, 80
10, 55282, Note_off_c, 8, 66, 64
10, 55398, Note_on_c, 8, 69, 87
10, 55520, Note_off_c, 8, 69, 64
10, 55636, Note_on_c, 8, 62, 87
10, 55755, Note_off_c, 8, 62, 64
10, 55878, Note_on_c, 8, 57, 72
10, 55984, Note_off_c, 8, 57, 64
10, 56130, Note_on_c, 8, 62, 87
10, 56252, Note_off_c, 8, 62, 64
10, 56360, Note_on_c, 8, 67, 85
10, 56487, Note_off_c, 8, 67, 64
10, 56602, Note_on_c, 8, 66, 91
10, 56723, Note_off_c, 8, 66, 64
10, 56839, Note_on_c, 8, 62, 78
10, 56962, Note_off_c, 8, 62, 64
10, 57078, Note_on_c, 8, 62, 74
10, 57200, Note_off_c, 8, 62, 64
10, 57323, Note_on_c, 8, 64, 82
10, 57447, Note_off_c, 8, 64, 64
10, 57569, Note_on_c, 8, 64, 87
10, 57708, Note_off_c, 8, 64, 64
10, 57817, Note_on_c, 8, 57, 68
10, 57937, Note_off_c, 8, 57, 64
10, 58060, Note_on_c, 8, 62, 82
10, 58177, Note_off_c, 8, 62, 64
10, 58289, Note_on_c, 8, 64, 78
10, 58428, Note_off_c, 8, 64, 64
10, 58543, Note_on_c, 8, 66, 82
10, 58640, Note_off_c, 8, 66, 64
10, 58795, Note_on_c, 8, 62, 89
10, 58893, Note_on_c, 8, 61, 82
10, 58908, Note_off_c, 8, 62, 64
10, 59010, Note_off_c, 8, 61, 64
10, 59023, Note_on_c, 8, 62, 62
10, 59178, Note_off_c, 8, 62, 64
10, 59745, Note_on_c, 8, 64, 98
10, 59847, Note_on_c, 8, 62, 78
10, 59870, Note_off_c, 8, 64, 64
10, 59977, Note_on_c, 8, 64, 60
10, 59989, Note_off_c, 8, 62, 64
10, 60115, Note_off_c, 8, 64, 64
10, 60206, Note_on_c, 8, 64, 68
10, 60316, Note_off_c, 8, 64, 64
10, 60458, Note_on_c, 8, 64, 68
10, 60580, Note_off_c, 8, 64, 64
10, 60690, Note_on_c, 8, 62, 72
10, 60792, Note_on_c, 8, 64, 76
10, 60819, Note_off_c, 8, 62, 64
10, 60914, Note_off_c, 8, 64, 64
10, 60914, Note_on_c, 8, 66, 89
10, 61035, Note_off_c, 8, 66, 64
10, 61164, Note_on_c, 8, 64, 87
10, 61242, Note_off_c, 8, 64, 64
10, 61412, Note_on_c, 8, 66, 87
10, 61914, Note_off_c, 8, 66, 64
10, 61914, End_track
11, 0, Start_track
11, 0, Title_t, "Cello"
11, 0, Program_c, 10, 42
11, 0, Control_c, 10, 7, 100
11, 1199, Note_on_c, 10, 62, 100
11, 1291, Note_on_c, 10, 61, 82
11, 1299, Note_off_c, 10, 62, 64
11, 1382, Note_off_c, 10, 61, 64
11, 1402, Note_on_c, 10, 62, 66
11, 1557, Note_off_c, 10, 62, 64
11, 2166, Note_on_c, 10, 61, 102
11, 2259, Note_on_c, 10, 59, 89
11, 2263, Note_off_c, 10, 61, 64
11, 2358, Note_off_c, 10, 59, 64
11, 2370, Note_on_c, 10, 61, 60
11, 2504, Note_off_c, 10, 61, 64
11, 3113, Note_on_c, 10, 59, 100
11, 3208, Note_on_c, 10, 61, 82
11, 3210, Note_off_c, 10, 59, 64
11, 3301, Note_off_c, 10, 61, 64
11, 3335, Note_on_c, 10, 62, 95
11, 3443, Note_off_c, 10, 62, 64
11, 3580, Note_on_c, 10, 59, 80
11, 3675, Note_off_c, 10, 59, 64
11, 3819, Note_on_c, 10, 61, 80
11, 3925, Note_off_c, 10, 61, 64
11, 4052, Note_on_c, 10, 57, 82
11, 4149, Note_off_c, 10, 57, 64
11, 4300, Note_on_c, 10, 54, 80
11, 4381, Note_off_c, 10, 54, 64
11, 4530, Note_on_c, 10, 57, 85
11, 4629, Note_off_c, 10, 57, 64
11, 4775, Note_on_c, 10, 50, 85
11, 4868, Note_off_c, 10, 50, 64
11, 5034, Note_on_c, 10, 62, 98
11, 5123, Note_on_c, 10, 61, 95
11, 5136, Note_off_c, 10, 62, 64
11, 5216, Note_off_c, 10, 61, 64
11, 5243, Note_on_c, 10, 62, 93
11, 5355, Note_off_c, 10, 62, 64
11, 6006, Note_on_c, 10, 56, 105
11, 6090, Note_off_c, 10, 56, 64
11, 6095, Note_on_c, 10, 54, 100
11, 6201, Note_off_c, 10, 54, 64
11, 6215, Note_on_c, 10, 56, 87
11, 6325, Note_off_c, 10, 56, 64
11, 6456, Note_on_c, 10, 52, 78
11, 6568, Note_off_c, 10, 52, 64
11, 6708, Note_on_c, 10, 57, 87
11, 6808, Note_off_c, 10, 57, 64
11, 6938, Note_on_c, 10, 54, 78
11, 7045, Note_off_c, 10, 54, 64
11, 7173, Note_on_c, 10, 50, 85
11, 7264, Note_off_c, 10, 50, 64
11, 7405, Note_on_c, 10, 52, 87
11, 7481, Note_off_c, 10, 52, 64
11, 7658, Note_on_c, 10, 45, 85
11, 8155, Note_off_c, 10, 45, 64
11, 8864, Note_on_c, 10, 62, 85
11, 8970, Note_off_c, 10, 62, 64
11, 8973, Note_on_c, 10, 61, 100
11, 9065, Note_off_c, 10, 61, 64
11, 9083, Note_on_c, 10, 62, 82
11, 9203, Note_off_c, 10, 62, 64
11, 9840, Note_on_c, 10, 61, 102
11, 9924, Note_off_c, 10, 61, 64
11, 9938, Note_on_c, 10, 59, 87
11, 10033, Note_off_c, 10, 59, 64
11, 10055, Note_on_c, 10, 61, 82
11, 10201, Note_off_c, 10, 61, 64
11, 10794, Note_on_c, 10, 59, 89
11, 10887, Note_off_c, 10, 59, 64
11, 10887, Note_on_c, 10, 61, 74
11, 10982, Note_off_c, 10, 61, 64
11, 11005, Note_on_c, 10, 62, 89
11, 11115, Note_off_c, 10, 62, 64
11, 11246, Note_on_c, 10, 59, 85
11, 11352, Note_off_c, 10, 59, 64
11, 11498, Note_on_c, 10, 61, 85
11, 11606, Note_off_c, 10, 61, 64
11, 11735, Note_on_c, 10, 57, 82
11, 11833, Note_off_c, 10, 57, 64
11, 11965, Note_on_c, 10, 54, 72
11, 12060, Note_off_c, 10, 54, 64
11, 12210, Note_on_c, 10, 57, 85
11, 12317, Note_off_c, 10, 57, 64
11, 12457, Note_on_c, 10, 50, 82
11, 12565, Note_off_c, 10, 50, 64
11, 12711, Note_on_c, 10, 62, 95
11, 12804, Note_off_c, 10, 62, 64
11, 12807, Note_on_c, 10, 61, 102
11, 12895, Note_off_c, 10, 61, 64
11, 12930, Note_on_c, 10, 62, 91
11, 13050, Note_off_c, 10, 62, 64
11, 13685, Note_on_c, 10, 56, 100
11, 13772, Note_off_c, 10, 56, 64
11, 13781, Note_on_c, 10, 54, 98
11, 13880, Note_off_c, 10, 54, 64
11, 13902, Note_on_c, 10, 56, 93
11, 14010, Note_off_c, 10, 56, 64
11, 14141, Note_on_c, 10, 52, 78
11, 14254, Note_off_c, 10, 52, 64
11, 14380, Note_on_c, 10, 57, 89
11, 14491, Note_off_c, 10, 57, 64
11, 14613, Note_on_c, 10, 54, 82
11, 14715, Note_off_c, 10, 54, 64
11, 14845, Note_on_c, 10, 50, 82
11, 14932, Note_off_c, 10, 50, 64
11, 15083, Note_on_c, 10, 52, 85
11, 15153, Note_off_c, 10, 52, 64
11, 15334, Note_on_c, 10, 45, 85
11, 15832, Note_off_c, 10, 45, 64
11, 39562, Note_on_c, 10, 57, 85
11, 39668, Note_on_c, 10, 56, 63
11, 39694, Note_off_c, 10, 57, 64
11, 39781, Note_off_c, 10, 56, 64
11, 39785, Note_on_c, 10, 57, 62
11, 39931, Note_off_c, 10, 57, 64
11, 40562, Note_on_c, 10, 55, 91
11, 40661, Note_on_c, 10, 54, 76
11, 40679, Note_off_c, 10, 55, 64
11, 40770, Note_off_c, 10, 54, 64
11, 40772, Note_on_c, 10, 55, 68
11, 40932, Note_off_c, 10, 55, 64
11, 41496, Note_on_c, 10, 54, 66
11, 41611, Note_off_c, 10, 54, 64
11, 41731, Note_on_c, 10, 52, 78
11, 41837, Note_off_c, 10, 52, 64
11, 41976, Note_on_c, 10, 57, 87
11, 42081, Note_off_c, 10, 57, 64
11, 42229, Note_on_c, 10, 50, 85
11, 42313, Note_off_c, 10, 50, 64
11, 42474, Note_on_c, 10, 62, 89
11, 42568, Note_on_c, 10, 61, 72
11, 42601, Note_off_c, 10, 62, 64
11, 42691, Note_on_c, 10, 62, 85
11, 42722, Note_off_c, 10, 61, 64
11, 42785, Note_off_c, 10, 62, 64
11, 42922, Note_on_c, 10, 50, 64
11, 43019, Note_off_c, 10, 50, 64
11, 43168, Note_on_c, 10, 55, 78
11, 43274, Note_off_c, 10, 55, 64
11, 43413, Note_on_c, 10, 59, 70
11, 43499, Note_off_c, 10, 59, 64
11, 43660, Note_on_c, 10, 52, 85
11, 43894, Note_on_c, 10, 50, 66
11, 43913, Note_off_c, 10, 52, 64
11, 44093, Note_off_c, 10, 50, 64
11, 44146, Note_on_c, 10, 48, 63
11, 44269, Note_off_c, 10, 48, 64
11, 44389, Note_on_c, 10, 60, 82
11, 44491, Note_off_c, 10, 60, 64
11, 44637, Note_on_c, 10, 55, 95
11, 44861, Note_off_c, 10, 55, 64
11, 44861, Note_on_c, 10, 54, 60
11, 45060, Note_off_c, 10, 54, 64
11, 45096, Note_on_c, 10, 52, 63
11, 45195, Note_off_c, 10, 52, 64
11, 45332, Note_on_c, 10, 64, 68
11, 45412, Note_off_c, 10, 64, 64
11, 45582, Note_on_c, 10, 59, 89
11, 45811, Note_on_c, 10, 57, 61
11, 45815, Note_off_c, 10, 59, 64
11, 46021, Note_off_c, 10, 57, 64
11, 46041, Note_on_c, 10, 55, 59
11, 46131, Note_off_c, 10, 55, 64
11, 46302, Note_on_c, 10, 49, 76
11, 46408, Note_on_c, 10, 47, 78
11, 46413, Note_off_c, 10, 49, 64
11, 46523, Note_off_c, 10, 47, 64
11, 46537, Note_on_c, 10, 49, 85
11, 46674, Note_off_c, 10, 49, 64
11, 47262, Note_on_c, 10, 58, 76
11, 47360, Note_on_c, 10, 56, 59
11, 47378, Note_off_c, 10, 58, 64
11, 47486, Note_on_c, 10, 58, 68
11, 47499, Note_off_c, 10, 56, 64
11, 47617, Note_off_c, 10, 58, 64
11, 48210, Note_on_c, 10, 54, 82
11, 48316, Note_on_c, 10, 52, 78
11, 48336, Note_off_c, 10, 54, 64
11, 48451, Note_on_c, 10, 54, 80
11, 48456, Note_off_c, 10, 52, 64
11, 48575, Note_off_c, 10, 54, 64
11, 48695, Note_on_c, 10, 55, 82
11, 48792, Note_off_c, 10, 55, 64
11, 48944, Note_on_c, 10, 50, 87
11, 49067, Note_on_c, 10, 49, 85
11, 49080, Note_off_c, 10, 50, 64
11, 49166, Note_off_c, 10, 49, 64
11, 49188, Note_on_c, 10, 50, 87
11, 49297, Note_off_c, 10, 50, 64
11, 49327, Note_on_c, 10, 52, 82
11, 49439, Note_on_c, 10, 54, 89
11, 49443, Note_off_c, 10, 52, 64
11, 49530, Note_off_c, 10, 54, 64
11, 49664, Note_on_c, 10, 42, 64
11, 49740, Note_off_c, 10, 42, 64
11, 49908, Note_on_c, 10, 47, 80
11, 50018, Note_off_c, 10, 47, 64
11, 50153, Note_on_c, 10, 59, 82
11, 50235, Note_on_c, 10, 58, 66
11, 50262, Note_off_c, 10, 59, 64
11, 50364, Note_on_c, 10, 59, 76
11, 50371, Note_off_c, 10, 58, 64
11, 50534, Note_off_c, 10, 59, 64
11, 51105, Note_on_c, 10, 54, 66
11, 51200, Note_on_c, 10, 55, 72
11, 51221, Note_off_c, 10, 54, 64
11, 51329, Note_off_c, 10, 55, 64
11, 51329, Note_on_c, 10, 57, 80
11, 51484, Note_off_c, 10, 57, 64
11, 52081, Note_on_c, 10, 50, 68
11, 52170, Note_on_c, 10, 52, 76
11, 52190, Note_off_c, 10, 50, 64
11, 52296, Note_off_c, 10, 52, 64
11, 52300, Note_on_c, 10, 54, 78
11, 52462, Note_off_c, 10, 54, 64
11, 53027, Note_on_c, 10, 57, 80
11, 53115, Note_on_c, 10, 55, 82
11, 53148, Note_off_c, 10, 57, 64
11, 53211, Note_off_c, 10, 55, 64
11, 53241, Note_on_c, 10, 54, 91
11, 53359, Note_off_c, 10, 54, 64
11, 53486, Note_on_c, 10, 50, 82
11, 53574, Note_off_c, 10, 50, 64
11, 53731, Note_on_c, 10, 43, 78
11, 53848, Note_off_c, 10, 43, 64
11, 53992, Note_on_c, 10, 55, 85
11, 54080, Note_on_c, 10, 54, 82
11, 54100, Note_off_c, 10, 55, 64
11, 54202, Note_off_c, 10, 54, 64
11, 54211, Note_on_c, 10, 55, 85
11, 54317, Note_off_c, 10, 55, 64
11, 54450, Note_on_c, 10, 45, 80
11, 54541, Note_off_c, 10, 45, 64
11, 54687, Note_on_c, 10, 47, 85
11, 54817, Note_off_c, 10, 47, 64
11, 54930, Note_on_c, 10, 59, 80
11, 55021, Note_on_c, 10, 57, 80
11, 55041, Note_off_c, 10, 59, 64
11, 55114, Note_off_c, 10, 57, 64
11, 55145, Note_on_c, 10, 59, 85
11, 55263, Note_off_c, 10, 59, 64
11, 55391, Note_on_c, 10, 49, 63
11, 55510, Note_off_c, 10, 49, 64
11, 55641, Note_on_c, 10, 50, 80
11, 55769, Note_off_c, 10, 50, 64
11, 55902, Note_on_c, 10, 62, 89
11, 55995, Note_on_c, 10, 61, 85
11, 56013, Note_off_c, 10, 62, 64
11, 56115, Note_on_c, 10, 62, 91
11, 56130, Note_off_c, 10, 61, 64
11, 56217, Note_off_c, 10, 62, 64
11, 56356, Note_on_c, 10, 52, 80
11, 56462, Note_off_c, 10, 52, 64
11, 56597, Note_on_c, 10, 54, 72
11, 56717, Note_off_c, 10, 54, 64
11, 56841, Note_on_c, 10, 59, 80
11, 56960, Note_off_c, 10, 59, 64
11, 57078, Note_on_c, 10, 57, 82
11, 57184, Note_on_c, 10, 56, 98
11, 57200, Note_off_c, 10, 57, 64
11, 57259, Note_off_c, 10, 56, 64
11, 57310, Note_on_c, 10, 54, 89
11, 57414, Note_on_c, 10, 52, 72
11, 57434, Note_off_c, 10, 54, 64
11, 57507, Note_off_c, 10, 52, 64
11, 57557, Note_on_c, 10, 57, 87
11, 57678, Note_off_c, 10, 57, 64
11, 57806, Note_on_c, 10, 55, 70
11, 57925, Note_off_c, 10, 55, 64
11, 58043, Note_on_c, 10, 54, 68
11, 58171, Note_off_c, 10, 54, 64
11, 58280, Note_on_c, 10, 52, 72
11, 58390, Note_off_c, 10, 52, 64
11, 58536, Note_on_c, 10, 50, 80
11, 58652, Note_off_c, 10, 50, 64
11, 58793, Note_on_c, 10, 59, 95
11, 58881, Note_on_c, 10, 57, 85
11, 58910, Note_off_c, 10, 59, 64
11, 58992, Note_on_c, 10, 59, 80
11, 59001, Note_off_c, 10, 57, 64
11, 59149, Note_off_c, 10, 59, 64
11, 59745, Note_on_c, 10, 56, 87
11, 59829, Note_on_c, 10, 54, 76
11, 59853, Note_off_c, 10, 56, 64
11, 59960, Note_on_c, 10, 56, 93
11, 59978, Note_off_c, 10, 54, 64
11, 60061, Note_off_c, 10, 56, 64
11, 60216, Note_on_c, 10, 52, 76
11, 60303, Note_off_c, 10, 52, 64
11, 60456, Note_on_c, 10, 57, 89
11, 60560, Note_on_c, 10, 55, 82
11, 60584, Note_off_c, 10, 57, 64
11, 60659, Note_off_c, 10, 55, 64
11, 60673, Note_on_c, 10, 54, 64
11, 60772, Note_on_c, 10, 55, 80
11, 60779, Note_off_c, 10, 54, 64
11, 60870, Note_off_c, 10, 55, 64
11, 60909, Note_on_c, 10, 57, 89
11, 61014, Note_off_c, 10, 57, 64
11, 61157, Note_on_c, 10, 45, 80
11, 61239, Note_off_c, 10, 45, 64
11, 61414, Note_on_c, 10, 50, 100
11, 61917, Note_off_c, 10, 50, 64
11, 61917, End_track
12, 0, Start_track
12, 0, Title_t, "Trumpet"
12, 0, Program_c, 0, 56
12, 0, Control_c, 0, 7, 127
12, 16521, Note_on_c, 0, 76, 85
12, 16623, Note_off_c, 0, 76, 64
12, 16763, Note_on_c, 0, 81, 89
12, 16920, Note_off_c, 0, 81, 64
12, 17522, Note_on_c, 0, 76, 89
12, 17622, Note_off_c, 0, 76, 64
12, 17757, Note_on_c, 0, 81, 91
12, 17905, Note_off_c, 0, 81, 64
12, 18487, Note_on_c, 0, 74, 89
12, 18576, Note_off_c, 0, 74, 64
12, 18719, Note_on_c, 0, 79, 93
12, 18884, Note_off_c, 0, 79, 64
12, 18947, Note_on_c, 0, 78, 76
12, 19010, Note_off_c, 0, 78, 64
12, 19060, Note_on_c, 0, 76, 85
12, 19133, Note_off_c, 0, 76, 64
12, 19185, Note_on_c, 0, 78, 98
12, 19264, Note_off_c, 0, 78, 64
12, 19289, Note_on_c, 0, 79, 82
12, 19362, Note_off_c, 0, 79, 64
12, 19413, Note_on_c, 0, 78, 82
12, 19481, Note_off_c, 0, 78, 64
12, 19530, Note_on_c, 0, 76, 98
12, 19607, Note_off_c, 0, 76, 64
12, 19656, Note_on_c, 0, 74, 87
12, 19877, Note_off_c, 0, 74, 64
12, 28079, Note_on_c, 0, 69, 87
12, 28172, Note_off_c, 0, 69, 64
12, 28318, Note_on_c, 0, 74, 89
12, 28533, Note_off_c, 0, 74, 64
12, 29041, Note_on_c, 0, 69, 89
12, 29123, Note_off_c, 0, 69, 64
12, 29278, Note_on_c, 0, 74, 93
12, 29528, Note_off_c, 0, 74, 64
12, 30004, Note_on_c, 0, 78, 89
12, 30088, Note_off_c, 0, 78, 64
12, 30108, Note_on_c, 0, 79, 82
12, 30195, Note_off_c, 0, 79, 64
12, 30232, Note_on_c, 0, 81, 91
12, 30308, Note_off_c, 0, 81, 64
12, 30340, Note_on_c, 0, 83, 85
12, 30409, Note_off_c, 0, 83, 64
12, 30463, Note_on_c, 0, 81, 91
12, 30538, Note_off_c, 0, 81, 64
12, 30576, Note_on_c, 0, 83, 85
12, 30640, Note_off_c, 0, 83, 64
12, 30691, Note_on_c, 0, 79, 89
12, 30762, Note_off_c, 0, 79, 64
12, 30803, Note_on_c, 0, 81, 98
12, 30870, Note_off_c, 0, 81, 64
12, 30923, Note_on_c, 0, 83, 95
12, 30983, Note_off_c, 0, 83, 64
12, 31038, Note_on_c, 0, 81, 98
12, 31094, Note_off_c, 0, 81, 64
12, 31169, Note_on_c, 0, 79, 100
12, 31435, Note_off_c, 0, 79, 64
12, 35760, Note_on_c, 0, 78, 87
12, 35846, Note_off_c, 0, 78, 64
12, 35986, Note_on_c, 0, 83, 89
12, 36222, Note_off_c, 0, 83, 64
12, 36707, Note_on_c, 0, 83, 87
12, 36778, Note_off_c, 0, 83, 64
12, 36942, Note_on_c, 0, 86, 91
12, 37218, Note_off_c, 0, 86, 64
12, 37666, Note_on_c, 0, 81, 89
12, 37738, Note_off_c, 0, 81, 64
12, 37774, Note_on_c, 0, 79, 95
12, 37847, Note_off_c, 0, 79, 64
12, 37891, Note_on_c, 0, 78, 91
12, 37965, Note_off_c, 0, 78, 64
12, 38002, Note_on_c, 0, 79, 91
12, 38066, Note_off_c, 0, 79, 64
12, 38126, Note_on_c, 0, 81, 87
12, 38182, Note_off_c, 0, 81, 64
12, 38237, Note_on_c, 0, 79, 105
12, 38305, Note_off_c, 0, 79, 64
12, 38387, Note_on_c, 0, 78, 105
12, 38881, Note_off_c, 0, 78, 64
12, 38881, End_track
13, 0, Start_track
13, 0, Title_t, "Trumpet"
13, 0, Program_c, 1, 56
13, 0, Control_c, 1, 7, 127
13, 16524, Note_on_c, 1, 69, 98
13, 16612, Note_off_c, 1, 69, 64
13, 16769, Note_on_c, 1, 76, 100
13, 17011, Note_off_c, 1, 76, 64
13, 17516, Note_on_c, 1, 69, 98
13, 17606, Note_off_c, 1, 69, 64
13, 17757, Note_on_c, 1, 76, 102
13, 18044, Note_off_c, 1, 76, 64
13, 18478, Note_on_c, 1, 78, 87
13, 18577, Note_off_c, 1, 78, 64
13, 18706, Note_on_c, 1, 76, 85
13, 18815, Note_off_c, 1, 76, 64
13, 18941, Note_on_c, 1, 76, 85
13, 19036, Note_off_c, 1, 76, 64
13, 19178, Note_on_c, 1, 74, 95
13, 19339, Note_off_c, 1, 74, 64
13, 19421, Note_on_c, 1, 74, 100
13, 19468, Note_off_c, 1, 74, 64
13, 19517, Note_on_c, 1, 74, 93
13, 19568, Note_off_c, 1, 74, 64
13, 19638, Note_on_c, 1, 69, 98
13, 19913, Note_off_c, 1, 69, 64
13, 28088, Note_on_c, 1, 66, 102
13, 28176, Note_off_c, 1, 66, 64
13, 28323, Note_on_c, 1, 62, 89
13, 28575, Note_off_c, 1, 62, 64
13, 29050, Note_on_c, 1, 66, 89
13, 29122, Note_off_c, 1, 66, 64
13, 29286, Note_on_c, 1, 69, 85
13, 29534, Note_off_c, 1, 69, 64
13, 30021, Note_on_c, 1, 74, 91
13, 30098, Note_off_c, 1, 74, 64
13, 30125, Note_on_c, 1, 76, 87
13, 30195, Note_off_c, 1, 76, 64
13, 30237, Note_on_c, 1, 78, 87
13, 30308, Note_off_c, 1, 78, 64
13, 30344, Note_on_c, 1, 79, 95
13, 30412, Note_off_c, 1, 79, 64
13, 30463, Note_on_c, 1, 78, 95
13, 30529, Note_off_c, 1, 78, 64
13, 30574, Note_on_c, 1, 76, 102
13, 30638, Note_off_c, 1, 76, 64
13, 30702, Note_on_c, 1, 74, 102
13, 30941, Note_off_c, 1, 74, 64
13, 35759, Note_on_c, 1, 74, 98
13, 35832, Note_off_c, 1, 74, 64
13, 35991, Note_on_c, 1, 78, 91
13, 36250, Note_off_c, 1, 78, 64
13, 36709, Note_on_c, 1, 76, 95
13, 36780, Note_off_c, 1, 76, 64
13, 36944, Note_on_c, 1, 83, 98
13, 37236, Note_off_c, 1, 83, 64
13, 37665, Note_on_c, 1, 78, 100
13, 37725, Note_off_c, 1, 78, 64
13, 37769, Note_on_c, 1, 76, 100
13, 37840, Note_off_c, 1, 76, 64
13, 37889, Note_on_c, 1, 74, 100
13, 37979, Note_off_c, 1, 74, 64
13, 38123, Note_on_c, 1, 76, 98
13, 38181, Note_off_c, 1, 76, 64
13, 38358, Note_on_c, 1, 74, 110
13, 38883, Note_off_c, 1, 74, 64
13, 38883, End_track
14, 0, Start_track
14, 0, Title_t, "Trumpet"
14, 0, Program_c, 2, 56
14, 0, Control_c, 2, 7, 127
14, 16526, Note_on_c, 2, 69, 100
14, 16568, Note_off_c, 2, 69, 64
14, 16630, Note_on_c, 2, 69, 89
14, 16670, Note_off_c, 2, 69, 64
14, 16763, Note_on_c, 2, 69, 110
14, 17064, Note_off_c, 2, 69, 64
14, 17515, Note_on_c, 2, 69, 107
14, 17564, Note_off_c, 2, 69, 64
14, 17622, Note_on_c, 2, 69, 91
14, 17672, Note_off_c, 2, 69, 64
14, 17760, Note_on_c, 2, 69, 110
14, 18051, Note_off_c, 2, 69, 64
14, 18489, Note_on_c, 2, 74, 98
14, 18585, Note_off_c, 2, 74, 64
14, 18711, Note_on_c, 2, 74, 85
14, 18822, Note_off_c, 2, 74, 64
14, 18943, Note_on_c, 2, 69, 87
14, 19047, Note_off_c, 2, 69, 64
14, 19184, Note_on_c, 2, 69, 95
14, 19315, Note_off_c, 2, 69, 64
14, 19412, Note_on_c, 2, 69, 87
14, 19457, Note_off_c, 2, 69, 64
14, 19521, Note_on_c, 2, 69, 82
14, 19563, Note_off_c, 2, 69, 64
14, 19651, Note_on_c, 2, 66, 105
14, 19922, Note_off_c, 2, 66, 64
14, 28075, Note_on_c, 2, 62, 100
14, 28145, Note_off_c, 2, 62, 64
14, 28313, Note_on_c, 2, 69, 91
14, 28579, Note_off_c, 2, 69, 64
14, 29038, Note_on_c, 2, 62, 105
14, 29104, Note_off_c, 2, 62, 64
14, 29288, Note_on_c, 2, 62, 107
14, 29540, Note_off_c, 2, 62, 64
14, 30009, Note_on_c, 2, 69, 91
14, 30102, Note_off_c, 2, 69, 64
14, 30237, Note_on_c, 2, 74, 95
14, 30319, Note_off_c, 2, 74, 64
14, 30460, Note_on_c, 2, 62, 98
14, 30529, Note_off_c, 2, 62, 64
14, 30709, Note_on_c, 2, 62, 105
14, 30941, Note_off_c, 2, 62, 64
14, 35761, Note_on_c, 2, 66, 102
14, 35819, Note_off_c, 2, 66, 64
14, 36000, Note_on_c, 2, 62, 105
14, 36275, Note_off_c, 2, 62, 64
14, 36721, Note_on_c, 2, 74, 105
14, 36778, Note_off_c, 2, 74, 64
14, 36944, Note_on_c, 2, 76, 105
14, 37266, Note_off_c, 2, 76, 64
14, 37667, Note_on_c, 2, 69, 110
14, 37720, Note_off_c, 2, 69, 64
14, 37773, Note_on_c, 2, 69, 93
14, 37831, Note_off_c, 2, 69, 64
14, 37891, Note_on_c, 2, 69, 105
14, 37980, Note_off_c, 2, 69, 64
14, 38123, Note_on_c, 2, 69, 110
14, 38194, Note_off_c, 2, 69, 64
14, 38378, Note_on_c, 2, 69, 116
14, 38863, Note_off_c, 2, 69, 64
14, 38863, End_track
15, 0, Start_track
15, 0, Title_t, "Timpaniit"
15, 0, Program_c, 3, 47
15, 0, Control_c, 3, 7, 100
15, 16532, Note_on_c, 3, 45, 105
15, 16583, Note_off_c, 3, 45, 64
15, 16642, Note_on_c, 3, 45, 87
15, 16694, Note_off_c, 3, 45, 64
15, 16767, Note_on_c, 3, 45, 107
15, 16873, Note_off_c, 3, 45, 64
15, 17516, Note_on_c, 3, 45, 105
15, 17569, Note_off_c, 3, 45, 64
15, 17626, Note_on_c, 3, 45, 102
15, 17692, Note_off_c, 3, 45, 64
15, 17754, Note_on_c, 3, 45, 105
15, 17858, Note_off_c, 3, 45, 64
15, 18475, Note_on_c, 3, 50, 100
15, 18546, Note_off_c, 3, 50, 64
15, 18697, Note_on_c, 3, 50, 102
15, 18775, Note_off_c, 3, 50, 64
15, 18950, Note_on_c, 3, 45, 105
15, 19018, Note_off_c, 3, 45, 64
15, 19181, Note_on_c, 3, 50, 107
15, 19264, Note_off_c, 3, 50, 64
15, 19424, Note_on_c, 3, 50, 107
15, 19475, Note_off_c, 3, 50, 64
15, 19528, Note_on_c, 3, 50, 100
15, 19579, Note_off_c, 3, 50, 64
15, 19645, Note_on_c, 3, 50, 110
15, 19720, Note_off_c, 3, 50, 64
15, 28092, Note_on_c, 3, 50, 107
15, 28148, Note_off_c, 3, 50, 64
15, 28205, Note_on_c, 3, 50, 102
15, 28261, Note_off_c, 3, 50, 64
15, 28325, Note_on_c, 3, 50, 110
15, 28436, Note_off_c, 3, 50, 64
15, 29058, Note_on_c, 3, 50, 110
15, 29119, Note_off_c, 3, 50, 64
15, 29175, Note_on_c, 3, 50, 107
15, 29234, Note_off_c, 3, 50, 64
15, 29292, Note_on_c, 3, 50, 113
15, 29401, Note_off_c, 3, 50, 64
15, 30018, Note_on_c, 3, 50, 113
15, 30069, Note_off_c, 3, 50, 64
15, 30125, Note_on_c, 3, 50, 102
15, 30189, Note_off_c, 3, 50, 64
15, 30255, Note_on_c, 3, 50, 110
15, 30330, Note_off_c, 3, 50, 64
15, 30479, Note_on_c, 3, 50, 122
15, 30549, Note_off_c, 3, 50, 64
15, 30702, Note_on_c, 3, 50, 122
15, 30797, Note_off_c, 3, 50, 64
15, 35744, Note_on_c, 3, 50, 110
15, 35797, Note_off_c, 3, 50, 64
15, 35852, Note_on_c, 3, 50, 100
15, 35905, Note_off_c, 3, 50, 64
15, 35981, Note_on_c, 3, 50, 113
15, 36071, Note_off_c, 3, 50, 64
15, 36718, Note_on_c, 3, 50, 116
15, 36773, Note_off_c, 3, 50, 64
15, 36826, Note_on_c, 3, 50, 100
15, 36879, Note_off_c, 3, 50, 64
15, 36946, Note_on_c, 3, 50, 110
15, 37027, Note_off_c, 3, 50, 64
15, 37675, Note_on_c, 3, 50, 110
15, 37725, Note_off_c, 3, 50, 64
15, 37780, Note_on_c, 3, 50, 100
15, 37842, Note_off_c, 3, 50, 64
15, 37902, Note_on_c, 3, 45, 110
15, 37988, Note_off_c, 3, 45, 64
15, 38136, Note_on_c, 3, 45, 116
15, 38203, Note_off_c, 3, 45, 64
15, 38387, Note_on_c, 3, 50, 127
15, 38497, Note_off_c, 3, 50, 64
15, 38497, End_track
16, 0, Start_track
16, 0, Title_t, "Oboe"
16, 0, Program_c, 4, 68
16, 0, Control_c, 4, 7, 100
16, 16077, Note_on_c, 4, 73, 82
16, 16172, Note_on_c, 4, 74, 89
16, 16175, Note_off_c, 4, 73, 64
16, 16283, Note_off_c, 4, 74, 64
16, 16296, Note_on_c, 4, 76, 82
16, 16369, Note_off_c, 4, 76, 64
16, 16524, Note_on_c, 4, 81, 82
16, 16594, Note_off_c, 4, 81, 64
16, 16778, Note_on_c, 4, 76, 89
16, 17009, Note_on_c, 4, 74, 68
16, 17017, Note_off_c, 4, 76, 64
16, 17252, Note_off_c, 4, 74, 64
16, 17254, Note_on_c, 4, 73, 53
16, 17336, Note_off_c, 4, 73, 64
16, 17498, Note_on_c, 4, 81, 82
16, 17564, Note_off_c, 4, 81, 64
16, 17757, Note_on_c, 4, 73, 91
16, 17978, Note_on_c, 4, 71, 68
16, 17998, Note_off_c, 4, 73, 64
16, 18186, Note_off_c, 4, 71, 64
16, 18232, Note_on_c, 4, 69, 66
16, 18310, Note_off_c, 4, 69, 64
16, 18472, Note_on_c, 4, 74, 85
16, 18553, Note_off_c, 4, 74, 64
16, 18715, Note_on_c, 4, 79, 95
16, 18910, Note_off_c, 4, 79, 64
16, 18947, Note_on_c, 4, 78, 63
16, 19027, Note_off_c, 4, 78, 64
16, 19054, Note_on_c, 4, 76, 68
16, 19142, Note_off_c, 4, 76, 64
16, 19187, Note_on_c, 4, 78, 85
16, 19280, Note_off_c, 4, 78, 64
16, 19299, Note_on_c, 4, 79, 74
16, 19384, Note_off_c, 4, 79, 64
16, 19415, Note_on_c, 4, 78, 76
16, 19492, Note_off_c, 4, 78, 64
16, 19523, Note_on_c, 4, 76, 74
16, 19609, Note_off_c, 4, 76, 64
16, 19649, Note_on_c, 4, 74, 80
16, 19736, Note_off_c, 4, 74, 64
16, 19760, Note_on_c, 4, 76, 68
16, 19838, Note_off_c, 4, 76, 64
16, 19871, Note_on_c, 4, 78, 64
16, 19946, Note_off_c, 4, 78, 64
16, 19988, Note_on_c, 4, 74, 80
16, 20050, Note_off_c, 4, 74, 64
16, 20130, Note_on_c, 4, 71, 91
16, 20223, Note_on_c, 4, 78, 76
16, 20243, Note_off_c, 4, 71, 64
16, 20340, Note_off_c, 4, 78, 64
16, 20344, Note_on_c, 4, 79, 87
16, 20714, Note_off_c, 4, 79, 64
16, 20846, Note_on_c, 4, 78, 57
16, 20935, Note_off_c, 4, 78, 64
16, 21099, Note_on_c, 4, 67, 64
16, 21208, Note_on_c, 4, 75, 70
16, 21212, Note_off_c, 4, 67, 64
16, 21329, Note_off_c, 4, 75, 64
16, 21330, Note_on_c, 4, 76, 87
16, 21701, Note_off_c, 4, 76, 64
16, 21836, Note_on_c, 4, 78, 61
16, 21940, Note_off_c, 4, 78, 64
16, 22087, Note_on_c, 4, 71, 72
16, 22188, Note_on_c, 4, 78, 80
16, 22206, Note_off_c, 4, 71, 64
16, 22292, Note_off_c, 4, 78, 64
16, 22304, Note_on_c, 4, 79, 82
16, 22706, Note_off_c, 4, 79, 64
16, 22802, Note_on_c, 4, 78, 66
16, 22881, Note_off_c, 4, 78, 64
16, 23045, Note_on_c, 4, 64, 68
16, 23138, Note_on_c, 4, 75, 74
16, 23160, Note_off_c, 4, 64, 64
16, 23235, Note_off_c, 4, 75, 64
16, 23260, Note_on_c, 4, 76, 93
16, 23583, Note_off_c, 4, 76, 64
16, 23753, Note_on_c, 4, 70, 70
16, 23853, Note_off_c, 4, 70, 64
16, 23853, Note_on_c, 4, 71, 70
16, 23970, Note_off_c, 4, 71, 64
16, 23997, Note_on_c, 4, 73, 70
16, 24103, Note_off_c, 4, 73, 64
16, 24227, Note_on_c, 4, 76, 76
16, 24300, Note_off_c, 4, 76, 64
16, 24477, Note_on_c, 4, 79, 95
16, 24701, Note_on_c, 4, 78, 60
16, 24734, Note_off_c, 4, 79, 64
16, 24825, Note_off_c, 4, 78, 64
16, 24953, Note_on_c, 4, 66, 59
16, 25044, Note_off_c, 4, 66, 64
16, 25196, Note_on_c, 4, 73, 72
16, 25274, Note_off_c, 4, 73, 64
16, 25438, Note_on_c, 4, 76, 85
16, 25668, Note_on_c, 4, 74, 62
16, 25670, Note_off_c, 4, 76, 64
16, 25757, Note_off_c, 4, 74, 64
16, 25912, Note_on_c, 4, 83, 87
16, 26084, Note_off_c, 4, 83, 64
16, 26148, Note_on_c, 4, 78, 66
16, 26221, Note_off_c, 4, 78, 64
16, 26246, Note_on_c, 4, 76, 70
16, 26377, Note_off_c, 4, 76, 64
16, 26390, Note_on_c, 4, 74, 82
16, 26498, Note_off_c, 4, 74, 64
16, 26620, Note_on_c, 4, 73, 78
16, 26692, Note_off_c, 4, 73, 64
16, 26870, Note_on_c, 4, 71, 80
16, 27399, Note_off_c, 4, 71, 64
16, 27601, Note_on_c, 4, 66, 66
16, 27704, Note_off_c, 4, 66, 64
16, 27707, Note_on_c, 4, 67, 80
16, 27837, Note_on_c, 4, 69, 82
16, 27842, Note_off_c, 4, 67, 64
16, 27904, Note_off_c, 4, 69, 64
16, 28070, Note_on_c, 4, 74, 91
16, 28141, Note_off_c, 4, 74, 64
16, 28320, Note_on_c, 4, 66, 82
16, 28561, Note_on_c, 4, 64, 72
16, 28581, Note_off_c, 4, 66, 64
16, 28780, Note_off_c, 4, 64, 64
16, 28802, Note_on_c, 4, 62, 66
16, 28858, Note_off_c, 4, 62, 64
16, 29031, Note_on_c, 4, 81, 85
16, 29113, Note_off_c, 4, 81, 64
16, 29274, Note_on_c, 4, 72, 85
16, 29506, Note_on_c, 4, 71, 66
16, 29511, Note_off_c, 4, 72, 64
16, 29684, Note_off_c, 4, 71, 64
16, 29756, Note_on_c, 4, 72, 64
16, 29870, Note_off_c, 4, 72, 64
16, 30013, Note_on_c, 4, 78, 98
16, 30099, Note_off_c, 4, 78, 64
16, 30106, Note_on_c, 4, 79, 87
16, 30197, Note_off_c, 4, 79, 64
16, 30228, Note_on_c, 4, 81, 89
16, 30330, Note_off_c, 4, 81, 64
16, 30460, Note_on_c, 4, 72, 85
16, 30538, Note_off_c, 4, 72, 64
16, 30708, Note_on_c, 4, 71, 89
16, 30824, Note_on_c, 4, 69, 72
16, 30848, Note_off_c, 4, 71, 64
16, 30943, Note_off_c, 4, 69, 64
16, 30950, Note_on_c, 4, 67, 68
16, 31058, Note_off_c, 4, 67, 64
16, 31063, Note_on_c, 4, 69, 80
16, 31151, Note_off_c, 4, 69, 64
16, 31186, Note_on_c, 4, 71, 82
16, 31268, Note_off_c, 4, 71, 64
16, 31277, Note_on_c, 4, 74, 62
16, 31372, Note_off_c, 4, 74, 64
16, 31410, Note_on_c, 4, 73, 80
16, 31494, Note_off_c, 4, 73, 64
16, 31518, Note_on_c, 4, 76, 76
16, 31590, Note_off_c, 4, 76, 64
16, 31649, Note_on_c, 4, 74, 95
16, 31766, Note_on_c, 4, 73, 66
16, 31794, Note_off_c, 4, 74, 64
16, 31880, Note_on_c, 4, 71, 70
16, 31908, Note_off_c, 4, 73, 64
16, 32001, Note_on_c, 4, 73, 68
16, 32026, Note_off_c, 4, 71, 64
16, 32092, Note_off_c, 4, 73, 64
16, 32130, Note_on_c, 4, 74, 80
16, 32220, Note_off_c, 4, 74, 64
16, 32240, Note_on_c, 4, 78, 53
16, 32309, Note_off_c, 4, 78, 64
16, 32366, Note_on_c, 4, 76, 70
16, 32468, Note_off_c, 4, 76, 64
16, 32481, Note_on_c, 4, 79, 80
16, 32544, Note_off_c, 4, 79, 64
16, 32601, Note_on_c, 4, 78, 95
16, 32718, Note_on_c, 4, 76, 78
16, 32734, Note_off_c, 4, 78, 64
16, 32834, Note_off_c, 4, 76, 64
16, 32841, Note_on_c, 4, 74, 66
16, 32957, Note_off_c, 4, 74, 64
16, 32957, Note_on_c, 4, 76, 68
16, 33046, Note_off_c, 4, 76, 64
16, 33081, Note_on_c, 4, 78, 68
16, 33179, Note_off_c, 4, 78, 64
16, 33197, Note_on_c, 4, 81, 66
16, 33281, Note_off_c, 4, 81, 64
16, 33332, Note_on_c, 4, 79, 72
16, 33427, Note_off_c, 4, 79, 64
16, 33447, Note_on_c, 4, 83, 68
16, 33517, Note_off_c, 4, 83, 64
16, 33570, Note_on_c, 4, 81, 95
16, 33754, Note_off_c, 4, 81, 64
16, 33808, Note_on_c, 4, 80, 85
16, 33912, Note_on_c, 4, 81, 74
16, 33945, Note_off_c, 4, 80, 64
16, 34036, Note_off_c, 4, 81, 64
16, 34046, Note_on_c, 4, 83, 80
16, 34128, Note_off_c, 4, 83, 64
16, 34281, Note_on_c, 4, 74, 82
16, 34361, Note_off_c, 4, 74, 64
16, 34551, Note_on_c, 4, 73, 105
16, 34659, Note_on_c, 4, 74, 78
16, 34695, Note_off_c, 4, 73, 64
16, 34784, Note_off_c, 4, 74, 64
16, 34786, Note_on_c, 4, 73, 60
16, 34897, Note_on_c, 4, 71, 70
16, 34917, Note_off_c, 4, 73, 64
16, 35000, Note_off_c, 4, 71, 64
16, 35032, Note_on_c, 4, 69, 66
16, 35135, Note_on_c, 4, 71, 70
16, 35164, Note_off_c, 4, 69, 64
16, 35239, Note_off_c, 4, 71, 64
16, 35277, Note_on_c, 4, 73, 50
16, 35370, Note_on_c, 4, 69, 66
16, 35388, Note_off_c, 4, 73, 64
16, 35421, Note_off_c, 4, 69, 64
16, 35510, Note_on_c, 4, 66, 85
16, 35607, Note_on_c, 4, 73, 64
16, 35616, Note_off_c, 4, 66, 64
16, 35722, Note_off_c, 4, 73, 64
16, 35727, Note_on_c, 4, 74, 89
16, 36034, Note_off_c, 4, 74, 64
16, 36225, Note_on_c, 4, 78, 72
16, 36302, Note_off_c, 4, 78, 64
16, 36470, Note_on_c, 4, 83, 87
16, 36568, Note_on_c, 4, 73, 57
16, 36585, Note_off_c, 4, 83, 64
16, 36676, Note_off_c, 4, 73, 64
16, 36696, Note_on_c, 4, 74, 87
16, 37004, Note_off_c, 4, 74, 64
16, 37203, Note_on_c, 4, 73, 80
16, 37294, Note_off_c, 4, 73, 64
16, 37300, Note_on_c, 4, 71, 72
16, 37387, Note_off_c, 4, 71, 64
16, 37424, Note_on_c, 4, 73, 85
16, 37480, Note_off_c, 4, 73, 64
16, 37522, Note_on_c, 4, 69, 62
16, 37593, Note_off_c, 4, 69, 64
16, 37657, Note_on_c, 4, 81, 87
16, 37774, Note_off_c, 4, 81, 64
16, 37896, Note_on_c, 4, 74, 91
16, 38000, Note_off_c, 4, 74, 64
16, 38139, Note_on_c, 4, 76, 82
16, 38199, Note_off_c, 4, 76, 64
16, 38241, Note_on_c, 4, 73, 89
16, 38301, Note_off_c, 4, 73, 64
16, 38381, Note_on_c, 4, 74, 102
16, 38866, Note_off_c, 4, 74, 64
16, 38866, End_track
17, 0, Start_track
17, 0, Title_t, "Oboe"
17, 0, Program_c, 5, 68
17, 0, Control_c, 5, 7, 100
17, 16043, Note_on_c, 5, 73, 82
17, 16141, Note_on_c, 5, 74, 82
17, 16150, Note_off_c, 5, 73, 64
17, 16271, Note_off_c, 5, 74, 64
17, 16273, Note_on_c, 5, 76, 80
17, 16360, Note_off_c, 5, 76, 64
17, 16517, Note_on_c, 5, 81, 82
17, 16584, Note_off_c, 5, 81, 64
17, 16769, Note_on_c, 5, 76, 89
17, 16995, Note_on_c, 5, 74, 68
17, 17011, Note_off_c, 5, 76, 64
17, 17232, Note_off_c, 5, 74, 64
17, 17241, Note_on_c, 5, 73, 60
17, 17325, Note_off_c, 5, 73, 64
17, 17496, Note_on_c, 5, 81, 89
17, 17569, Note_off_c, 5, 81, 64
17, 17746, Note_on_c, 5, 73, 82
17, 17996, Note_on_c, 5, 71, 64
17, 18014, Note_off_c, 5, 73, 64
17, 18191, Note_off_c, 5, 71, 64
17, 18242, Note_on_c, 5, 69, 60
17, 18361, Note_off_c, 5, 69, 64
17, 18474, Note_on_c, 5, 74, 76
17, 18563, Note_off_c, 5, 74, 64
17, 18708, Note_on_c, 5, 79, 87
17, 18901, Note_off_c, 5, 79, 64
17, 18956, Note_on_c, 5, 78, 57
17, 19038, Note_off_c, 5, 78, 64
17, 19067, Note_on_c, 5, 76, 61
17, 19147, Note_off_c, 5, 76, 64
17, 19195, Note_on_c, 5, 78, 93
17, 19299, Note_off_c, 5, 78, 64
17, 19304, Note_on_c, 5, 79, 70
17, 19384, Note_off_c, 5, 79, 64
17, 19415, Note_on_c, 5, 78, 54
17, 19501, Note_off_c, 5, 78, 64
17, 19530, Note_on_c, 5, 76, 64
17, 19623, Note_off_c, 5, 76, 64
17, 19658, Note_on_c, 5, 74, 76
17, 19769, Note_on_c, 5, 76, 66
17, 19776, Note_off_c, 5, 74, 64
17, 19842, Note_off_c, 5, 76, 64
17, 19888, Note_on_c, 5, 78, 66
17, 19957, Note_off_c, 5, 78, 64
17, 20001, Note_on_c, 5, 74, 68
17, 20066, Note_off_c, 5, 74, 64
17, 20130, Note_on_c, 5, 71, 85
17, 20225, Note_on_c, 5, 78, 74
17, 20249, Note_off_c, 5, 71, 64
17, 20342, Note_off_c, 5, 78, 64
17, 20349, Note_on_c, 5, 79, 87
17, 20734, Note_off_c, 5, 79, 64
17, 20847, Note_on_c, 5, 78, 60
17, 20946, Note_off_c, 5, 78, 64
17, 21104, Note_on_c, 5, 67, 68
17, 21208, Note_on_c, 5, 75, 62
17, 21219, Note_off_c, 5, 67, 64
17, 21325, Note_off_c, 5, 75, 64
17, 21334, Note_on_c, 5, 76, 80
17, 21693, Note_off_c, 5, 76, 64
17, 21845, Note_on_c, 5, 78, 60
17, 21932, Note_off_c, 5, 78, 64
17, 22076, Note_on_c, 5, 71, 74
17, 22184, Note_on_c, 5, 78, 68
17, 22201, Note_off_c, 5, 71, 64
17, 22306, Note_off_c, 5, 78, 64
17, 22306, Note_on_c, 5, 79, 87
17, 22682, Note_off_c, 5, 79, 64
17, 22795, Note_on_c, 5, 78, 66
17, 22877, Note_off_c, 5, 78, 64
17, 23051, Note_on_c, 5, 64, 63
17, 23147, Note_on_c, 5, 75, 70
17, 23160, Note_off_c, 5, 64, 64
17, 23253, Note_off_c, 5, 75, 64
17, 23271, Note_on_c, 5, 76, 85
17, 23600, Note_off_c, 5, 76, 64
17, 23766, Note_on_c, 5, 70, 68
17, 23857, Note_off_c, 5, 70, 64
17, 23864, Note_on_c, 5, 71, 66
17, 23966, Note_off_c, 5, 71, 64
17, 24010, Note_on_c, 5, 73, 72
17, 24116, Note_off_c, 5, 73, 64
17, 24245, Note_on_c, 5, 76, 82
17, 24318, Note_off_c, 5, 76, 64
17, 24479, Note_on_c, 5, 79, 93
17, 24723, Note_on_c, 5, 78, 63
17, 24727, Note_off_c, 5, 79, 64
17, 24823, Note_off_c, 5, 78, 64
17, 24946, Note_on_c, 5, 66, 60
17, 25037, Note_off_c, 5, 66, 64
17, 25192, Note_on_c, 5, 73, 66
17, 25276, Note_off_c, 5, 73, 64
17, 25436, Note_on_c, 5, 76, 91
17, 25677, Note_on_c, 5, 74, 78
17, 25684, Note_off_c, 5, 76, 64
17, 25752, Note_off_c, 5, 74, 64
17, 25914, Note_on_c, 5, 83, 80
17, 26025, Note_off_c, 5, 83, 64
17, 26155, Note_on_c, 5, 78, 66
17, 26233, Note_off_c, 5, 78, 64
17, 26259, Note_on_c, 5, 76, 70
17, 26352, Note_off_c, 5, 76, 64
17, 26388, Note_on_c, 5, 74, 78
17, 26498, Note_off_c, 5, 74, 64
17, 26629, Note_on_c, 5, 73, 74
17, 26704, Note_off_c, 5, 73, 64
17, 26877, Note_on_c, 5, 71, 80
17, 27370, Note_off_c, 5, 71, 64
17, 27600, Note_on_c, 5, 66, 66
17, 27705, Note_on_c, 5, 67, 78
17, 27711, Note_off_c, 5, 66, 64
17, 27817, Note_off_c, 5, 67, 64
17, 27842, Note_on_c, 5, 69, 87
17, 27922, Note_off_c, 5, 69, 64
17, 28081, Note_on_c, 5, 74, 82
17, 28152, Note_off_c, 5, 74, 64
17, 28309, Note_on_c, 5, 66, 95
17, 28554, Note_on_c, 5, 64, 68
17, 28561, Note_off_c, 5, 66, 64
17, 28752, Note_off_c, 5, 64, 64
17, 28789, Note_on_c, 5, 62, 60
17, 28858, Note_off_c, 5, 62, 64
17, 29061, Note_on_c, 5, 81, 57
17, 29157, Note_off_c, 5, 81, 64
17, 29278, Note_on_c, 5, 72, 64
17, 29504, Note_on_c, 5, 71, 66
17, 29513, Note_off_c, 5, 72, 64
17, 29712, Note_off_c, 5, 71, 64
17, 29752, Note_on_c, 5, 72, 59
17, 29869, Note_off_c, 5, 72, 64
17, 29996, Note_on_c, 5, 78, 98
17, 30080, Note_off_c, 5, 78, 64
17, 30093, Note_on_c, 5, 79, 76
17, 30185, Note_off_c, 5, 79, 64
17, 30222, Note_on_c, 5, 81, 87
17, 30317, Note_off_c, 5, 81, 64
17, 30450, Note_on_c, 5, 72, 80
17, 30529, Note_off_c, 5, 72, 64
17, 30702, Note_on_c, 5, 71, 85
17, 30819, Note_on_c, 5, 69, 78
17, 30830, Note_off_c, 5, 71, 64
17, 30916, Note_off_c, 5, 69, 64
17, 30947, Note_on_c, 5, 67, 57
17, 31058, Note_on_c, 5, 69, 72
17, 31063, Note_off_c, 5, 67, 64
17, 31153, Note_off_c, 5, 69, 64
17, 31186, Note_on_c, 5, 71, 68
17, 31277, Note_off_c, 5, 71, 64
17, 31291, Note_on_c, 5, 74, 60
17, 31366, Note_off_c, 5, 74, 64
17, 31412, Note_on_c, 5, 73, 64
17, 31514, Note_on_c, 5, 76, 68
17, 31527, Note_off_c, 5, 73, 64
17, 31580, Note_off_c, 5, 76, 64
17, 31653, Note_on_c, 5, 74, 102
17, 31767, Note_on_c, 5, 73, 66
17, 31787, Note_off_c, 5, 74, 64
17, 31877, Note_off_c, 5, 73, 64
17, 31878, Note_on_c, 5, 71, 68
17, 31970, Note_off_c, 5, 71, 64
17, 31999, Note_on_c, 5, 73, 51
17, 32076, Note_off_c, 5, 73, 64
17, 32129, Note_on_c, 5, 74, 70
17, 32216, Note_off_c, 5, 74, 64
17, 32238, Note_on_c, 5, 78, 47
17, 32302, Note_off_c, 5, 78, 64
17, 32360, Note_on_c, 5, 76, 62
17, 32453, Note_off_c, 5, 76, 64
17, 32471, Note_on_c, 5, 79, 82
17, 32535, Note_off_c, 5, 79, 64
17, 32603, Note_on_c, 5, 78, 105
17, 32720, Note_on_c, 5, 76, 63
17, 32743, Note_off_c, 5, 78, 64
17, 32827, Note_off_c, 5, 76, 64
17, 32838, Note_on_c, 5, 74, 57
17, 32933, Note_off_c, 5, 74, 64
17, 32955, Note_on_c, 5, 76, 59
17, 33033, Note_off_c, 5, 76, 64
17, 33090, Note_on_c, 5, 78, 66
17, 33203, Note_on_c, 5, 81, 60
17, 33205, Note_off_c, 5, 78, 64
17, 33265, Note_off_c, 5, 81, 64
17, 33336, Note_on_c, 5, 79, 70
17, 33435, Note_off_c, 5, 79, 64
17, 33442, Note_on_c, 5, 83, 66
17, 33509, Note_off_c, 5, 83, 64
17, 33568, Note_on_c, 5, 81, 87
17, 33710, Note_off_c, 5, 81, 64
17, 33816, Note_on_c, 5, 80, 82
17, 33902, Note_on_c, 5, 81, 80
17, 33931, Note_off_c, 5, 80, 64
17, 34029, Note_off_c, 5, 81, 64
17, 34046, Note_on_c, 5, 83, 80
17, 34129, Note_off_c, 5, 83, 64
17, 34292, Note_on_c, 5, 74, 76
17, 34365, Note_off_c, 5, 74, 64
17, 34550, Note_on_c, 5, 73, 102
17, 34657, Note_on_c, 5, 74, 76
17, 34690, Note_off_c, 5, 73, 64
17, 34761, Note_off_c, 5, 74, 64
17, 34792, Note_on_c, 5, 73, 52
17, 34894, Note_on_c, 5, 71, 62
17, 34912, Note_off_c, 5, 73, 64
17, 34992, Note_off_c, 5, 71, 64
17, 35040, Note_on_c, 5, 69, 68
17, 35145, Note_on_c, 5, 71, 66
17, 35155, Note_off_c, 5, 69, 64
17, 35229, Note_off_c, 5, 71, 64
17, 35266, Note_on_c, 5, 73, 68
17, 35368, Note_off_c, 5, 73, 64
17, 35372, Note_on_c, 5, 69, 72
17, 35434, Note_off_c, 5, 69, 64
17, 35516, Note_on_c, 5, 66, 74
17, 35611, Note_on_c, 5, 73, 66
17, 35625, Note_off_c, 5, 66, 64
17, 35735, Note_on_c, 5, 74, 82
17, 35740, Note_off_c, 5, 73, 64
17, 36025, Note_off_c, 5, 74, 64
17, 36233, Note_on_c, 5, 78, 63
17, 36306, Note_off_c, 5, 78, 64
17, 36476, Note_on_c, 5, 83, 85
17, 36579, Note_on_c, 5, 73, 64
17, 36588, Note_off_c, 5, 83, 64
17, 36681, Note_off_c, 5, 73, 64
17, 36694, Note_on_c, 5, 74, 85
17, 37011, Note_off_c, 5, 74, 64
17, 37201, Note_on_c, 5, 73, 61
17, 37300, Note_on_c, 5, 71, 70
17, 37307, Note_off_c, 5, 73, 64
17, 37384, Note_off_c, 5, 71, 64
17, 37431, Note_on_c, 5, 73, 87
17, 37489, Note_off_c, 5, 73, 64
17, 37520, Note_on_c, 5, 69, 72
17, 37595, Note_off_c, 5, 69, 64
17, 37664, Note_on_c, 5, 81, 89
17, 37763, Note_off_c, 5, 81, 64
17, 37905, Note_on_c, 5, 74, 87
17, 38002, Note_off_c, 5, 74, 64
17, 38151, Note_on_c, 5, 76, 85
17, 38219, Note_off_c, 5, 76, 64
17, 38252, Note_on_c, 5, 73, 87
17, 38306, Note_off_c, 5, 73, 64
17, 38379, Note_on_c, 5, 74, 95
17, 38881, Note_off_c, 5, 74, 64
17, 38881, End_track
18, 0, Start_track
18, 0, Title_t, "Violin"
18, 0, Program_c, 6, 40
18, 0, Control_c, 6, 7, 100
18, 16039, Note_on_c, 6, 73, 80
18, 16125, Note_off_c, 6, 73, 64
18, 16136, Note_on_c, 6, 74, 87
18, 16240, Note_off_c, 6, 74, 64
18, 16274, Note_on_c, 6, 76, 89
18, 16349, Note_off_c, 6, 76, 64
18, 16526, Note_on_c, 6, 81, 93
18, 16608, Note_off_c, 6, 81, 64
18, 16770, Note_on_c, 6, 76, 82
18, 16997, Note_on_c, 6, 74, 61
18, 17011, Note_off_c, 6, 76, 64
18, 17228, Note_off_c, 6, 74, 64
18, 17241, Note_on_c, 6, 73, 58
18, 17345, Note_off_c, 6, 73, 64
18, 17495, Note_on_c, 6, 81, 91
18, 17573, Note_off_c, 6, 81, 64
18, 17734, Note_on_c, 6, 73, 87
18, 17965, Note_on_c, 6, 71, 68
18, 18000, Note_off_c, 6, 73, 64
18, 18080, Note_off_c, 6, 71, 64
18, 18210, Note_on_c, 6, 69, 66
18, 18330, Note_off_c, 6, 69, 64
18, 18456, Note_on_c, 6, 74, 85
18, 18542, Note_off_c, 6, 74, 64
18, 18697, Note_on_c, 6, 79, 91
18, 18897, Note_off_c, 6, 79, 64
18, 18943, Note_on_c, 6, 78, 66
18, 19012, Note_off_c, 6, 78, 64
18, 19047, Note_on_c, 6, 76, 87
18, 19127, Note_off_c, 6, 76, 64
18, 19172, Note_on_c, 6, 78, 87
18, 19253, Note_off_c, 6, 78, 64
18, 19284, Note_on_c, 6, 79, 89
18, 19390, Note_off_c, 6, 79, 64
18, 19403, Note_on_c, 6, 78, 78
18, 19475, Note_off_c, 6, 78, 64
18, 19506, Note_on_c, 6, 76, 80
18, 19600, Note_off_c, 6, 76, 64
18, 19630, Note_on_c, 6, 74, 87
18, 19714, Note_off_c, 6, 74, 64
18, 19745, Note_on_c, 6, 76, 87
18, 19822, Note_off_c, 6, 76, 64
18, 19857, Note_on_c, 6, 78, 74
18, 19936, Note_off_c, 6, 78, 64
18, 19975, Note_on_c, 6, 74, 66
18, 20054, Note_off_c, 6, 74, 64
18, 20125, Note_on_c, 6, 71, 87
18, 20234, Note_on_c, 6, 78, 74
18, 20251, Note_off_c, 6, 71, 64
18, 20353, Note_off_c, 6, 78, 64
18, 20358, Note_on_c, 6, 79, 85
18, 20760, Note_off_c, 6, 79, 64
18, 20829, Note_on_c, 6, 78, 63
18, 20933, Note_off_c, 6, 78, 64
18, 21088, Note_on_c, 6, 67, 74
18, 21194, Note_on_c, 6, 75, 63
18, 21206, Note_off_c, 6, 67, 64
18, 21318, Note_off_c, 6, 75, 64
18, 21321, Note_on_c, 6, 76, 89
18, 21703, Note_off_c, 6, 76, 64
18, 21786, Note_on_c, 6, 78, 50
18, 21896, Note_off_c, 6, 78, 64
18, 22055, Note_on_c, 6, 71, 82
18, 22164, Note_on_c, 6, 78, 72
18, 22188, Note_off_c, 6, 71, 64
18, 22284, Note_off_c, 6, 78, 64
18, 22286, Note_on_c, 6, 79, 89
18, 22670, Note_off_c, 6, 79, 64
18, 22766, Note_on_c, 6, 78, 60
18, 22861, Note_off_c, 6, 78, 64
18, 23032, Note_on_c, 6, 64, 78
18, 23123, Note_on_c, 6, 75, 78
18, 23149, Note_off_c, 6, 64, 64
18, 23235, Note_off_c, 6, 75, 64
18, 23240, Note_on_c, 6, 76, 87
18, 23559, Note_off_c, 6, 76, 64
18, 23735, Note_on_c, 6, 70, 70
18, 23831, Note_on_c, 6, 71, 82
18, 23837, Note_off_c, 6, 70, 64
18, 23941, Note_off_c, 6, 71, 64
18, 23981, Note_on_c, 6, 73, 82
18, 24088, Note_off_c, 6, 73, 64
18, 24222, Note_on_c, 6, 76, 80
18, 24300, Note_off_c, 6, 76, 64
18, 24464, Note_on_c, 6, 79, 100
18, 24687, Note_on_c, 6, 78, 57
18, 24707, Note_off_c, 6, 79, 64
18, 24805, Note_off_c, 6, 78, 64
18, 24938, Note_on_c, 6, 66, 61
18, 25031, Note_off_c, 6, 66, 64
18, 25177, Note_on_c, 6, 73, 78
18, 25298, Note_off_c, 6, 73, 64
18, 25429, Note_on_c, 6, 76, 95
18, 25657, Note_off_c, 6, 76, 64
18, 25659, Note_on_c, 6, 74, 70
18, 25766, Note_off_c, 6, 74, 64
18, 25905, Note_on_c, 6, 83, 85
18, 26044, Note_off_c, 6, 83, 64
18, 26139, Note_on_c, 6, 78, 82
18, 26226, Note_off_c, 6, 78, 64
18, 26233, Note_on_c, 6, 76, 87
18, 26336, Note_off_c, 6, 76, 64
18, 26357, Note_on_c, 6, 74, 85
18, 26494, Note_off_c, 6, 74, 64
18, 26611, Note_on_c, 6, 73, 91
18, 26709, Note_off_c, 6, 73, 64
18, 26863, Note_on_c, 6, 71, 87
18, 27364, Note_off_c, 6, 71, 64
18, 27589, Note_on_c, 6, 66, 80
18, 27673, Note_off_c, 6, 66, 64
18, 27674, Note_on_c, 6, 67, 85
18, 27787, Note_off_c, 6, 67, 64
18, 27811, Note_on_c, 6, 69, 89
18, 27891, Note_off_c, 6, 69, 64
18, 28059, Note_on_c, 6, 74, 91
18, 28141, Note_off_c, 6, 74, 64
18, 28313, Note_on_c, 6, 66, 89
18, 28548, Note_on_c, 6, 64, 82
18, 28566, Note_off_c, 6, 66, 64
18, 28738, Note_off_c, 6, 64, 64
18, 28783, Note_on_c, 6, 62, 72
18, 28853, Note_off_c, 6, 62, 64
18, 29031, Note_on_c, 6, 81, 91
18, 29126, Note_off_c, 6, 81, 64
18, 29272, Note_on_c, 6, 72, 95
18, 29502, Note_on_c, 6, 71, 70
18, 29517, Note_off_c, 6, 72, 64
18, 29694, Note_off_c, 6, 71, 64
18, 29737, Note_on_c, 6, 72, 60
18, 29865, Note_off_c, 6, 72, 64
18, 29980, Note_on_c, 6, 78, 91
18, 30051, Note_off_c, 6, 78, 64
18, 30078, Note_on_c, 6, 79, 89
18, 30164, Note_off_c, 6, 79, 64
18, 30212, Note_on_c, 6, 81, 98
18, 30319, Note_off_c, 6, 81, 64
18, 30449, Note_on_c, 6, 72, 85
18, 30533, Note_off_c, 6, 72, 64
18, 30702, Note_on_c, 6, 71, 93
18, 30808, Note_on_c, 6, 69, 74
18, 30813, Note_off_c, 6, 71, 64
18, 30906, Note_off_c, 6, 69, 64
18, 30930, Note_on_c, 6, 67, 70
18, 31040, Note_on_c, 6, 69, 68
18, 31043, Note_off_c, 6, 67, 64
18, 31133, Note_off_c, 6, 69, 64
18, 31169, Note_on_c, 6, 71, 80
18, 31268, Note_off_c, 6, 71, 64
18, 31275, Note_on_c, 6, 74, 68
18, 31361, Note_off_c, 6, 74, 64
18, 31401, Note_on_c, 6, 73, 89
18, 31488, Note_off_c, 6, 73, 64
18, 31505, Note_on_c, 6, 76, 82
18, 31570, Note_off_c, 6, 76, 64
18, 31631, Note_on_c, 6, 74, 102
18, 31746, Note_on_c, 6, 73, 68
18, 31771, Note_off_c, 6, 74, 64
18, 31840, Note_off_c, 6, 73, 64
18, 31863, Note_on_c, 6, 71, 59
18, 31953, Note_off_c, 6, 71, 64
18, 31990, Note_on_c, 6, 73, 57
18, 32060, Note_off_c, 6, 73, 64
18, 32114, Note_on_c, 6, 74, 68
18, 32209, Note_off_c, 6, 74, 64
18, 32229, Note_on_c, 6, 78, 59
18, 32300, Note_off_c, 6, 78, 64
18, 32353, Note_on_c, 6, 76, 82
18, 32442, Note_off_c, 6, 76, 64
18, 32470, Note_on_c, 6, 79, 78
18, 32532, Note_off_c, 6, 79, 64
18, 32603, Note_on_c, 6, 78, 102
18, 32723, Note_on_c, 6, 76, 78
18, 32754, Note_off_c, 6, 78, 64
18, 32825, Note_off_c, 6, 76, 64
18, 32842, Note_on_c, 6, 74, 70
18, 32946, Note_off_c, 6, 74, 64
18, 32965, Note_on_c, 6, 76, 64
18, 33037, Note_off_c, 6, 76, 64
18, 33088, Note_on_c, 6, 78, 87
18, 33196, Note_on_c, 6, 81, 78
18, 33208, Note_off_c, 6, 78, 64
18, 33263, Note_off_c, 6, 81, 64
18, 33320, Note_on_c, 6, 79, 80
18, 33413, Note_off_c, 6, 79, 64
18, 33425, Note_on_c, 6, 83, 72
18, 33498, Note_off_c, 6, 83, 64
18, 33560, Note_on_c, 6, 81, 100
18, 33736, Note_off_c, 6, 81, 64
18, 33807, Note_on_c, 6, 80, 98
18, 33903, Note_on_c, 6, 81, 87
18, 33927, Note_off_c, 6, 80, 64
18, 34013, Note_off_c, 6, 81, 64
18, 34035, Note_on_c, 6, 83, 85
18, 34124, Note_off_c, 6, 83, 64
18, 34288, Note_on_c, 6, 74, 93
18, 34378, Note_off_c, 6, 74, 64
18, 34551, Note_on_c, 6, 73, 102
18, 34646, Note_on_c, 6, 74, 82
18, 34665, Note_off_c, 6, 73, 64
18, 34757, Note_off_c, 6, 74, 64
18, 34775, Note_on_c, 6, 73, 64
18, 34866, Note_off_c, 6, 73, 64
18, 34874, Note_on_c, 6, 71, 70
18, 34978, Note_off_c, 6, 71, 64
18, 35014, Note_on_c, 6, 69, 72
18, 35118, Note_off_c, 6, 69, 64
18, 35125, Note_on_c, 6, 71, 66
18, 35215, Note_off_c, 6, 71, 64
18, 35255, Note_on_c, 6, 73, 62
18, 35344, Note_off_c, 6, 73, 64
18, 35359, Note_on_c, 6, 69, 74
18, 35435, Note_off_c, 6, 69, 64
18, 35488, Note_on_c, 6, 66, 89
18, 35596, Note_off_c, 6, 66, 64
18, 35597, Note_on_c, 6, 73, 64
18, 35684, Note_off_c, 6, 73, 64
18, 35725, Note_on_c, 6, 74, 87
18, 36026, Note_off_c, 6, 74, 64
18, 36202, Note_on_c, 6, 78, 85
18, 36309, Note_off_c, 6, 78, 64
18, 36459, Note_on_c, 6, 83, 85
18, 36546, Note_off_c, 6, 83, 64
18, 36566, Note_on_c, 6, 73, 64
18, 36639, Note_off_c, 6, 73, 64
18, 36683, Note_on_c, 6, 74, 93
18, 36959, Note_off_c, 6, 74, 64
18, 37176, Note_on_c, 6, 73, 63
18, 37276, Note_on_c, 6, 71, 82
18, 37285, Note_off_c, 6, 73, 64
18, 37358, Note_off_c, 6, 71, 64
18, 37404, Note_on_c, 6, 73, 91
18, 37487, Note_off_c, 6, 73, 64
18, 37511, Note_on_c, 6, 69, 66
18, 37588, Note_off_c, 6, 69, 64
18, 37650, Note_on_c, 6, 81, 91
18, 37792, Note_off_c, 6, 81, 64
18, 37876, Note_on_c, 6, 74, 82
18, 37982, Note_off_c, 6, 74, 64
18, 38131, Note_on_c, 6, 76, 80
18, 38195, Note_off_c, 6, 76, 64
18, 38230, Note_on_c, 6, 73, 93
18, 38296, Note_off_c, 6, 73, 64
18, 38374, Note_on_c, 6, 74, 102
18, 38852, Note_off_c, 6, 74, 64
18, 38852, End_track
19, 0, Start_track
19, 0, Title_t, "Violin"
19, 0, Program_c, 7, 40
19, 0, Control_c, 7, 7, 100
19, 16035, Note_on_c, 7, 69, 87
19, 16127, Note_on_c, 7, 71, 82
19, 16150, Note_off_c, 7, 69, 64
19, 16238, Note_off_c, 7, 71, 64
19, 16249, Note_on_c, 7, 73, 82
19, 16331, Note_off_c, 7, 73, 64
19, 16513, Note_on_c, 7, 76, 85
19, 16599, Note_off_c, 7, 76, 64
19, 16765, Note_on_c, 7, 73, 72
19, 16895, Note_off_c, 7, 73, 64
19, 17002, Note_on_c, 7, 68, 78
19, 17102, Note_off_c, 7, 68, 64
19, 17254, Note_on_c, 7, 69, 87
19, 17372, Note_off_c, 7, 69, 64
19, 17500, Note_on_c, 7, 73, 66
19, 17600, Note_off_c, 7, 73, 64
19, 17741, Note_on_c, 7, 69, 85
19, 17838, Note_off_c, 7, 69, 64
19, 17980, Note_on_c, 7, 64, 68
19, 18073, Note_off_c, 7, 64, 64
19, 18211, Note_on_c, 7, 66, 63
19, 18328, Note_off_c, 7, 66, 64
19, 18454, Note_on_c, 7, 69, 78
19, 18558, Note_off_c, 7, 69, 64
19, 18702, Note_on_c, 7, 71, 78
19, 18795, Note_off_c, 7, 71, 64
19, 18937, Note_on_c, 7, 69, 72
19, 19012, Note_off_c, 7, 69, 64
19, 19188, Note_on_c, 7, 69, 68
19, 19567, Note_off_c, 7, 69, 64
19, 19654, Note_on_c, 7, 69, 78
19, 19753, Note_off_c, 7, 69, 64
19, 19885, Note_on_c, 7, 69, 74
19, 19959, Note_off_c, 7, 69, 64
19, 20130, Note_on_c, 7, 71, 82
19, 20216, Note_on_c, 7, 75, 66
19, 20256, Note_off_c, 7, 71, 64
19, 20325, Note_off_c, 7, 75, 64
19, 20336, Note_on_c, 7, 76, 87
19, 20670, Note_off_c, 7, 76, 64
19, 20849, Note_on_c, 7, 71, 66
19, 20942, Note_off_c, 7, 71, 64
19, 21117, Note_on_c, 7, 69, 76
19, 21223, Note_on_c, 7, 66, 63
19, 21230, Note_off_c, 7, 69, 64
19, 21330, Note_off_c, 7, 66, 64
19, 21351, Note_on_c, 7, 67, 85
19, 21721, Note_off_c, 7, 67, 64
19, 21819, Note_on_c, 7, 63, 76
19, 21901, Note_off_c, 7, 63, 64
19, 22069, Note_on_c, 7, 64, 70
19, 22164, Note_on_c, 7, 75, 78
19, 22180, Note_off_c, 7, 64, 64
19, 22270, Note_off_c, 7, 75, 64
19, 22288, Note_on_c, 7, 76, 85
19, 22667, Note_off_c, 7, 76, 64
19, 22775, Note_on_c, 7, 75, 64
19, 22854, Note_off_c, 7, 75, 64
19, 23032, Note_on_c, 7, 76, 82
19, 23136, Note_off_c, 7, 76, 64
19, 23266, Note_on_c, 7, 70, 78
19, 23366, Note_on_c, 7, 71, 78
19, 23375, Note_off_c, 7, 70, 64
19, 23479, Note_off_c, 7, 71, 64
19, 23497, Note_on_c, 7, 70, 78
19, 23590, Note_off_c, 7, 70, 64
19, 23735, Note_on_c, 7, 73, 68
19, 23813, Note_off_c, 7, 73, 64
19, 23977, Note_on_c, 7, 66, 66
19, 24079, Note_off_c, 7, 66, 64
19, 24216, Note_on_c, 7, 73, 62
19, 24304, Note_off_c, 7, 73, 64
19, 24462, Note_on_c, 7, 76, 95
19, 24597, Note_off_c, 7, 76, 64
19, 24701, Note_on_c, 7, 66, 64
19, 24800, Note_on_c, 7, 68, 80
19, 24812, Note_off_c, 7, 66, 64
19, 24895, Note_off_c, 7, 68, 64
19, 24935, Note_on_c, 7, 70, 85
19, 25046, Note_off_c, 7, 70, 64
19, 25179, Note_on_c, 7, 66, 68
19, 25281, Note_off_c, 7, 66, 64
19, 25422, Note_on_c, 7, 73, 72
19, 25530, Note_off_c, 7, 73, 64
19, 25657, Note_on_c, 7, 71, 80
19, 25746, Note_off_c, 7, 71, 64
19, 25900, Note_on_c, 7, 71, 72
19, 26026, Note_off_c, 7, 71, 64
19, 26148, Note_on_c, 7, 74, 87
19, 26246, Note_off_c, 7, 74, 64
19, 26250, Note_on_c, 7, 73, 95
19, 26343, Note_off_c, 7, 73, 64
19, 26368, Note_on_c, 7, 71, 85
19, 26492, Note_off_c, 7, 71, 64
19, 26607, Note_on_c, 7, 70, 70
19, 26699, Note_off_c, 7, 70, 64
19, 26854, Note_on_c, 7, 66, 72
19, 27367, Note_off_c, 7, 66, 64
19, 27585, Note_on_c, 7, 62, 68
19, 27665, Note_on_c, 7, 64, 82
19, 27687, Note_off_c, 7, 62, 64
19, 27775, Note_off_c, 7, 64, 64
19, 27800, Note_on_c, 7, 66, 87
19, 27871, Note_off_c, 7, 66, 64
19, 28050, Note_on_c, 7, 62, 76
19, 28121, Note_off_c, 7, 62, 64
19, 28295, Note_on_c, 7, 69, 82
19, 28526, Note_on_c, 7, 71, 80
19, 28561, Note_off_c, 7, 69, 64
19, 28758, Note_off_c, 7, 71, 64
19, 28767, Note_on_c, 7, 72, 61
19, 28864, Note_off_c, 7, 72, 64
19, 29015, Note_on_c, 7, 62, 66
19, 29092, Note_off_c, 7, 62, 64
19, 29259, Note_on_c, 7, 69, 91
19, 29484, Note_on_c, 7, 67, 63
19, 29506, Note_off_c, 7, 69, 64
19, 29730, Note_off_c, 7, 67, 64
19, 29730, Note_on_c, 7, 66, 56
19, 29849, Note_off_c, 7, 66, 64
19, 29978, Note_on_c, 7, 72, 87
19, 30089, Note_on_c, 7, 71, 80
19, 30095, Note_off_c, 7, 72, 64
19, 30166, Note_off_c, 7, 71, 64
19, 30208, Note_on_c, 7, 69, 82
19, 30314, Note_off_c, 7, 69, 64
19, 30446, Note_on_c, 7, 66, 66
19, 30547, Note_off_c, 7, 66, 64
19, 30686, Note_on_c, 7, 67, 78
19, 30799, Note_off_c, 7, 67, 64
19, 30923, Note_on_c, 7, 62, 78
19, 31020, Note_off_c, 7, 62, 64
19, 31162, Note_on_c, 7, 67, 78
19, 31271, Note_off_c, 7, 67, 64
19, 31403, Note_on_c, 7, 67, 70
19, 31503, Note_off_c, 7, 67, 64
19, 31634, Note_on_c, 7, 66, 80
19, 31769, Note_off_c, 7, 66, 64
19, 31886, Note_on_c, 7, 62, 70
19, 31981, Note_off_c, 7, 62, 64
19, 32119, Note_on_c, 7, 74, 87
19, 32231, Note_off_c, 7, 74, 64
19, 32358, Note_on_c, 7, 69, 80
19, 32457, Note_off_c, 7, 69, 64
19, 32603, Note_on_c, 7, 69, 95
19, 32723, Note_off_c, 7, 69, 64
19, 32833, Note_on_c, 7, 66, 68
19, 32944, Note_off_c, 7, 66, 64
19, 33070, Note_on_c, 7, 69, 82
19, 33170, Note_off_c, 7, 69, 64
19, 33316, Note_on_c, 7, 73, 76
19, 33424, Note_off_c, 7, 73, 64
19, 33577, Note_on_c, 7, 74, 93
19, 33684, Note_off_c, 7, 74, 64
19, 33684, Note_on_c, 7, 76, 93
19, 33770, Note_off_c, 7, 76, 64
19, 33799, Note_on_c, 7, 74, 82
19, 33891, Note_off_c, 7, 74, 64
19, 33906, Note_on_c, 7, 73, 63
19, 33995, Note_off_c, 7, 73, 64
19, 34038, Note_on_c, 7, 71, 74
19, 34151, Note_off_c, 7, 71, 64
19, 34280, Note_on_c, 7, 68, 70
19, 34387, Note_off_c, 7, 68, 64
19, 34534, Note_on_c, 7, 69, 89
19, 34657, Note_off_c, 7, 69, 64
19, 34779, Note_on_c, 7, 64, 80
19, 34903, Note_off_c, 7, 64, 64
19, 35010, Note_on_c, 7, 66, 70
19, 35135, Note_off_c, 7, 66, 64
19, 35260, Note_on_c, 7, 67, 74
19, 35346, Note_off_c, 7, 67, 64
19, 35523, Note_on_c, 7, 69, 95
19, 35601, Note_on_c, 7, 64, 68
19, 35638, Note_off_c, 7, 69, 64
19, 35709, Note_off_c, 7, 64, 64
19, 35715, Note_on_c, 7, 66, 66
19, 36052, Note_off_c, 7, 66, 64
19, 36231, Note_on_c, 7, 71, 78
19, 36333, Note_on_c, 7, 69, 80
19, 36353, Note_off_c, 7, 71, 64
19, 36422, Note_off_c, 7, 69, 64
19, 36454, Note_on_c, 7, 68, 87
19, 36552, Note_on_c, 7, 69, 89
19, 36570, Note_off_c, 7, 68, 64
19, 36670, Note_on_c, 7, 71, 87
19, 36679, Note_off_c, 7, 69, 64
19, 36973, Note_off_c, 7, 71, 64
19, 37165, Note_on_c, 7, 68, 60
19, 37321, Note_off_c, 7, 68, 64
19, 37394, Note_on_c, 7, 69, 63
19, 37517, Note_off_c, 7, 69, 64
19, 37624, Note_on_c, 7, 69, 68
19, 37726, Note_off_c, 7, 69, 64
19, 37876, Note_on_c, 7, 69, 74
19, 37976, Note_off_c, 7, 69, 64
19, 38119, Note_on_c, 7, 69, 80
19, 38202, Note_off_c, 7, 69, 64
19, 38368, Note_on_c, 7, 69, 82
19, 38872, Note_off_c, 7, 69, 64
19, 38872, End_track
20, 0, Start_track
20, 0, Title_t, "Viola"
20, 0, Program_c, 8, 41
20, 0, Control_c, 8, 7, 100
20, 16519, Note_on_c, 8, 73, 78
20, 16617, Note_on_c, 8, 71, 72
20, 16632, Note_off_c, 8, 73, 64
20, 16745, Note_off_c, 8, 71, 64
20, 16745, Note_on_c, 8, 73, 74
20, 16902, Note_off_c, 8, 73, 64
20, 17511, Note_on_c, 8, 64, 82
20, 17610, Note_on_c, 8, 62, 80
20, 17626, Note_off_c, 8, 64, 64
20, 17730, Note_on_c, 8, 64, 74
20, 17731, Note_off_c, 8, 62, 64
20, 17876, Note_off_c, 8, 64, 64
20, 18461, Note_on_c, 8, 62, 68
20, 18602, Note_off_c, 8, 62, 64
20, 18699, Note_on_c, 8, 62, 78
20, 18817, Note_off_c, 8, 62, 64
20, 18936, Note_on_c, 8, 61, 70
20, 19051, Note_off_c, 8, 61, 64
20, 19191, Note_on_c, 8, 62, 82
20, 19295, Note_off_c, 8, 62, 64
20, 19434, Note_on_c, 8, 62, 85
20, 19516, Note_on_c, 8, 64, 87
20, 19536, Note_off_c, 8, 62, 64
20, 19634, Note_off_c, 8, 64, 64
20, 19647, Note_on_c, 8, 66, 82
20, 19805, Note_off_c, 8, 66, 64
20, 20373, Note_on_c, 8, 64, 78
20, 20479, Note_on_c, 8, 63, 66
20, 20507, Note_off_c, 8, 64, 64
20, 20599, Note_on_c, 8, 64, 72
20, 20608, Note_off_c, 8, 63, 64
20, 20752, Note_off_c, 8, 64, 64
20, 21341, Note_on_c, 8, 64, 74
20, 21449, Note_on_c, 8, 63, 64
20, 21469, Note_off_c, 8, 64, 64
20, 21566, Note_on_c, 8, 64, 85
20, 21575, Note_off_c, 8, 63, 64
20, 21732, Note_off_c, 8, 64, 64
20, 22301, Note_on_c, 8, 64, 82
20, 22403, Note_on_c, 8, 63, 64
20, 22432, Note_off_c, 8, 64, 64
20, 22525, Note_on_c, 8, 64, 78
20, 22532, Note_off_c, 8, 63, 64
20, 22658, Note_off_c, 8, 64, 64
20, 22777, Note_on_c, 8, 66, 78
20, 22886, Note_off_c, 8, 66, 64
20, 23018, Note_on_c, 8, 59, 66
20, 23129, Note_off_c, 8, 59, 64
20, 23277, Note_on_c, 8, 64, 89
20, 23372, Note_on_c, 8, 63, 68
20, 23401, Note_off_c, 8, 64, 64
20, 23492, Note_on_c, 8, 64, 78
20, 23496, Note_off_c, 8, 63, 64
20, 23652, Note_off_c, 8, 64, 64
20, 24240, Note_on_c, 8, 61, 85
20, 24336, Note_on_c, 8, 59, 64
20, 24356, Note_off_c, 8, 61, 64
20, 24451, Note_on_c, 8, 61, 74
20, 24453, Note_off_c, 8, 59, 64
20, 24621, Note_off_c, 8, 61, 64
20, 25186, Note_on_c, 8, 70, 89
20, 25281, Note_on_c, 8, 68, 61
20, 25309, Note_off_c, 8, 70, 64
20, 25409, Note_on_c, 8, 70, 76
20, 25434, Note_off_c, 8, 68, 64
20, 25542, Note_off_c, 8, 70, 64
20, 25654, Note_on_c, 8, 71, 82
20, 25761, Note_off_c, 8, 71, 64
20, 25903, Note_on_c, 8, 66, 85
20, 26029, Note_off_c, 8, 66, 64
20, 26144, Note_on_c, 8, 71, 82
20, 26259, Note_off_c, 8, 71, 64
20, 26379, Note_on_c, 8, 66, 85
20, 26500, Note_off_c, 8, 66, 64
20, 26618, Note_on_c, 8, 64, 78
20, 26726, Note_off_c, 8, 64, 64
20, 26870, Note_on_c, 8, 62, 78
20, 26970, Note_off_c, 8, 62, 64
20, 27114, Note_on_c, 8, 62, 85
20, 27207, Note_on_c, 8, 61, 60
20, 27231, Note_off_c, 8, 62, 64
20, 27331, Note_on_c, 8, 62, 60
20, 27337, Note_off_c, 8, 61, 64
20, 27510, Note_off_c, 8, 62, 64
20, 28063, Note_on_c, 8, 57, 85
20, 28161, Note_on_c, 8, 59, 70
20, 28189, Note_off_c, 8, 57, 64
20, 28287, Note_on_c, 8, 60, 59
20, 28305, Note_off_c, 8, 59, 64
20, 28481, Note_off_c, 8, 60, 64
20, 29030, Note_on_c, 8, 66, 80
20, 29123, Note_on_c, 8, 67, 78
20, 29154, Note_off_c, 8, 66, 64
20, 29250, Note_on_c, 8, 69, 80
20, 29258, Note_off_c, 8, 67, 64
20, 29424, Note_off_c, 8, 69, 64
20, 29991, Note_on_c, 8, 69, 82
20, 30122, Note_off_c, 8, 69, 64
20, 30224, Note_on_c, 8, 62, 80
20, 30330, Note_off_c, 8, 62, 64
20, 30463, Note_on_c, 8, 62, 80
20, 30567, Note_off_c, 8, 62, 64
20, 30702, Note_on_c, 8, 62, 85
20, 30812, Note_off_c, 8, 62, 64
20, 30932, Note_on_c, 8, 59, 70
20, 31060, Note_off_c, 8, 59, 64
20, 31167, Note_on_c, 8, 64, 80
20, 31302, Note_off_c, 8, 64, 64
20, 31393, Note_on_c, 8, 64, 72
20, 31518, Note_off_c, 8, 64, 64
20, 31629, Note_on_c, 8, 62, 78
20, 31760, Note_off_c, 8, 62, 64
20, 31859, Note_on_c, 8, 66, 78
20, 31995, Note_off_c, 8, 66, 64
20, 32110, Note_on_c, 8, 66, 80
20, 32242, Note_off_c, 8, 66, 64
20, 32358, Note_on_c, 8, 69, 87
20, 32480, Note_off_c, 8, 69, 64
20, 32596, Note_on_c, 8, 62, 87
20, 32715, Note_off_c, 8, 62, 64
20, 32838, Note_on_c, 8, 57, 72
20, 32944, Note_off_c, 8, 57, 64
20, 33090, Note_on_c, 8, 62, 87
20, 33212, Note_off_c, 8, 62, 64
20, 33320, Note_on_c, 8, 67, 85
20, 33447, Note_off_c, 8, 67, 64
20, 33562, Note_on_c, 8, 66, 91
20, 33683, Note_off_c, 8, 66, 64
20, 33799, Note_on_c, 8, 62, 78
20, 33922, Note_off_c, 8, 62, 64
20, 34038, Note_on_c, 8, 62, 74
20, 34160, Note_off_c, 8, 62, 64
20, 34283, Note_on_c, 8, 64, 82
20, 34407, Note_off_c, 8, 64, 64
20, 34529, Note_on_c, 8, 64, 87
20, 34668, Note_off_c, 8, 64, 64
20, 34777, Note_on_c, 8, 57, 68
20, 34897, Note_off_c, 8, 57, 64
20, 35020, Note_on_c, 8, 62, 82
20, 35137, Note_off_c, 8, 62, 64
20, 35249, Note_on_c, 8, 64, 78
20, 35388, Note_off_c, 8, 64, 64
20, 35503, Note_on_c, 8, 66, 82
20, 35600, Note_off_c, 8, 66, 64
20, 35755, Note_on_c, 8, 62, 89
20, 35853, Note_on_c, 8, 61, 82
20, 35868, Note_off_c, 8, 62, 64
20, 35970, Note_off_c, 8, 61, 64
20, 35983, Note_on_c, 8, 62, 62
20, 36138, Note_off_c, 8, 62, 64
20, 36705, Note_on_c, 8, 64, 98
20, 36807, Note_on_c, 8, 62, 78
20, 36830, Note_off_c, 8, 64, 64
20, 36937, Note_on_c, 8, 64, 60
20, 36949, Note_off_c, 8, 62, 64
20, 37075, Note_off_c, 8, 64, 64
20, 37166, Note_on_c, 8, 64, 68
20, 37276, Note_off_c, 8, 64, 64
20, 37418, Note_on_c, 8, 64, 68
20, 37540, Note_off_c, 8, 64, 64
20, 37650, Note_on_c, 8, 62, 72
20, 37752, Note_on_c, 8, 64, 76
20, 37779, Note_off_c, 8, 62, 64
20, 37874, Note_off_c, 8, 64, 64
20, 37874, Note_on_c, 8, 66, 89
20, 37995, Note_off_c, 8, 66, 64
20, 38124, Note_on_c, 8, 64, 87
20, 38202, Note_off_c, 8, 64, 64
20, 38372, Note_on_c, 8, 66, 87
20, 38874, Note_off_c, 8, 66, 64
20, 38874, End_track
21, 0, Start_track
21, 0, Title_t, "Cello"
21, 0, Program_c, 10, 42
21, 0, Control_c, 10, 7, 100
21, 16522, Note_on_c, 10, 57, 85
21, 16628, Note_on_c, 10, 56, 63
21, 16654, Note_off_c, 10, 57, 64
21, 16741, Note_off_c, 10, 56, 64
21, 16745, Note_on_c, 10, 57, 62
21, 16891, Note_off_c, 10, 57, 64
21, 17522, Note_on_c, 10, 55, 91
21, 17621, Note_on_c, 10, 54, 76
21, 17639, Note_off_c, 10, 55, 64
21, 17730, Note_off_c, 10, 54, 64
21, 17732, Note_on_c, 10, 55, 68
21, 17892, Note_off_c, 10, 55, 64
21, 18456, Note_on_c, 10, 54, 66
21, 18571, Note_off_c, 10, 54, 64
21, 18691, Note_on_c, 10, 52, 78
21, 18797, Note_off_c, 10, 52, 64
21, 18936, Note_on_c, 10, 57, 87
21, 19041, Note_off_c, 10, 57, 64
21, 19189, Note_on_c, 10, 50, 85
21, 19273, Note_off_c, 10, 50, 64
21, 19434, Note_on_c, 10, 62, 89
21, 19528, Note_on_c, 10, 61, 72
21, 19561, Note_off_c, 10, 62, 64
21, 19651, Note_on_c, 10, 62, 85
21, 19682, Note_off_c, 10, 61, 64
21, 19745, Note_off_c, 10, 62, 64
21, 19882, Note_on_c, 10, 50, 64
21, 19979, Note_off_c, 10, 50, 64
21, 20128, Note_on_c, 10, 55, 78
21, 20234, Note_off_c, 10, 55, 64
21, 20373, Note_on_c, 10, 59, 70
21, 20459, Note_off_c, 10, 59, 64
21, 20620, Note_on_c, 10, 52, 85
21, 20854, Note_on_c, 10, 50, 66
21, 20873, Note_off_c, 10, 52, 64
21, 21053, Note_off_c, 10, 50, 64
21, 21106, Note_on_c, 10, 48, 63
21, 21229, Note_off_c, 10, 48, 64
21, 21349, Note_on_c, 10, 60, 82
21, 21451, Note_off_c, 10, 60, 64
21, 21597, Note_on_c, 10, 55, 95
21, 21821, Note_off_c, 10, 55, 64
21, 21821, Note_on_c, 10, 54, 60
21, 22020, Note_off_c, 10, 54, 64
21, 22056, Note_on_c, 10, 52, 63
21, 22155, Note_off_c, 10, 52, 64
21, 22292, Note_on_c, 10, 64, 68
21, 22372, Note_off_c, 10, 64, 64
21, 22542, Note_on_c, 10, 59, 89
21, 22771, Note_on_c, 10, 57, 61
21, 22775, Note_off_c, 10, 59, 64
21, 22981, Note_off_c, 10, 57, 64
21, 23001, Note_on_c, 10, 55, 59
21, 23091, Note_off_c, 10, 55, 64
21, 23262, Note_on_c, 10, 49, 76
21, 23368, Note_on_c, 10, 47, 78
21, 23373, Note_off_c, 10, 49, 64
21, 23483, Note_off_c, 10, 47, 64
21, 23497, Note_on_c, 10, 49, 85
21, 23634, Note_off_c, 10, 49, 64
21, 24222, Note_on_c, 10, 58, 76
21, 24320, Note_on_c, 10, 56, 59
21, 24338, Note_off_c, 10, 58, 64
21, 24446, Note_on_c, 10, 58, 68
21, 24459, Note_off_c, 10, 56, 64
21, 24577, Note_off_c, 10, 58, 64
21, 25170, Note_on_c, 10, 54, 82
21, 25276, Note_on_c, 10, 52, 78
21, 25296, Note_off_c, 10, 54, 64
21, 25411, Note_on_c, 10, 54, 80
21, 25416, Note_off_c, 10, 52, 64
21, 25535, Note_off_c, 10, 54, 64
21, 25655, Note_on_c, 10, 55, 82
21, 25752, Note_off_c, 10, 55, 64
21, 25904, Note_on_c, 10, 50, 87
21, 26027, Note_on_c, 10, 49, 85
21, 26040, Note_off_c, 10, 50, 64
21, 26126, Note_off_c, 10, 49, 64
21, 26148, Note_on_c, 10, 50, 87
21, 26257, Note_off_c, 10, 50, 64
21, 26287, Note_on_c, 10, 52, 82
21, 26399, Note_on_c, 10, 54, 89
21, 26403, Note_off_c, 10, 52, 64
21, 26490, Note_off_c, 10, 54, 64
21, 26624, Note_on_c, 10, 42, 64
21, 26700, Note_off_c, 10, 42, 64
21, 26868, Note_on_c, 10, 47, 80
21, 26978, Note_off_c, 10, 47, 64
21, 27113, Note_on_c, 10, 59, 82
21, 27195, Note_on_c, 10, 58, 66
21, 27222, Note_off_c, 10, 59, 64
21, 27324, Note_on_c, 10, 59, 76
21, 27331, Note_off_c, 10, 58, 64
21, 27494, Note_off_c, 10, 59, 64
21, 28065, Note_on_c, 10, 54, 66
21, 28160, Note_on_c, 10, 55, 72
21, 28181, Note_off_c, 10, 54, 64
21, 28289, Note_off_c, 10, 55, 64
21, 28289, Note_on_c, 10, 57, 80
21, 28444, Note_off_c, 10, 57, 64
21, 29041, Note_on_c, 10, 50, 68
21, 29130, Note_on_c, 10, 52, 76
21, 29150, Note_off_c, 10, 50, 64
21, 29256, Note_off_c, 10, 52, 64
21, 29260, Note_on_c, 10, 54, 78
21, 29422, Note_off_c, 10, 54, 64
21, 29987, Note_on_c, 10, 57, 80
21, 30075, Note_on_c, 10, 55, 82
21, 30108, Note_off_c, 10, 57, 64
21, 30171, Note_off_c, 10, 55, 64
21, 30201, Note_on_c, 10, 54, 91
21, 30319, Note_off_c, 10, 54, 64
21, 30446, Note_on_c, 10, 50, 82
21, 30534, Note_off_c, 10, 50, 64
21, 30691, Note_on_c, 10, 43, 78
21, 30808, Note_off_c, 10, 43, 64
21, 30952, Note_on_c, 10, 55, 85
21, 31040, Note_on_c, 10, 54, 82
21, 31060, Note_off_c, 10, 55, 64
21, 31162, Note_off_c, 10, 54, 64
21, 31171, Note_on_c, 10, 55, 85
21, 31277, Note_off_c, 10, 55, 64
21, 31410, Note_on_c, 10, 45, 80
21, 31501, Note_off_c, 10, 45, 64
21, 31647, Note_on_c, 10, 47, 85
21, 31777, Note_off_c, 10, 47, 64
21, 31890, Note_on_c, 10, 59, 80
21, 31981, Note_on_c, 10, 57, 80
21, 32001, Note_off_c, 10, 59, 64
21, 32074, Note_off_c, 10, 57, 64
21, 32105, Note_on_c, 10, 59, 85
21, 32223, Note_off_c, 10, 59, 64
21, 32351, Note_on_c, 10, 49, 63
21, 32470, Note_off_c, 10, 49, 64
21, 32601, Note_on_c, 10, 50, 80
21, 32729, Note_off_c, 10, 50, 64
21, 32862, Note_on_c, 10, 62, 89
21, 32955, Note_on_c, 10, 61, 85
21, 32973, Note_off_c, 10, 62, 64
21, 33075, Note_on_c, 10, 62, 91
21, 33090, Note_off_c, 10, 61, 64
21, 33177, Note_off_c, 10, 62, 64
21, 33316, Note_on_c, 10, 52, 80
21, 33422, Note_off_c, 10, 52, 64
21, 33557, Note_on_c, 10, 54, 72
21, 33677, Note_off_c, 10, 54, 64
21, 33801, Note_on_c, 10, 59, 80
21, 33920, Note_off_c, 10, 59, 64
21, 34038, Note_on_c, 10, 57, 82
21, 34144, Note_on_c, 10, 56, 98
21, 34160, Note_off_c, 10, 57, 64
21, 34219, Note_off_c, 10, 56, 64
21, 34270, Note_on_c, 10, 54, 89
21, 34374, Note_on_c, 10, 52, 72
21, 34394, Note_off_c, 10, 54, 64
21, 34467, Note_off_c, 10, 52, 64
21, 34517, Note_on_c, 10, 57, 87
21, 34638, Note_off_c, 10, 57, 64
21, 34766, Note_on_c, 10, 55, 70
21, 34885, Note_off_c, 10, 55, 64
21, 35003, Note_on_c, 10, 54, 68
21, 35131, Note_off_c, 10, 54, 64
21, 35240, Note_on_c, 10, 52, 72
21, 35350, Note_off_c, 10, 52, 64
21, 35496, Note_on_c, 10, 50, 80
21, 35612, Note_off_c, 10, 50, 64
21, 35753, Note_on_c, 10, 59, 95
21, 35841, Note_on_c, 10, 57, 85
21, 35870, Note_off_c, 10, 59, 64
21, 35952, Note_on_c, 10, 59, 80
21, 35961, Note_off_c, 10, 57, 64
21, 36109, Note_off_c, 10, 59, 64
21, 36705, Note_on_c, 10, 56, 87
21, 36789, Note_on_c, 10, 54, 76
21, 36813, Note_off_c, 10, 56, 64
21, 36920, Note_on_c, 10, 56, 93
21, 36938, Note_off_c, 10, 54, 64
21, 37021, Note_off_c, 10, 56, 64
21, 37176, Note_on_c, 10, 52, 76
21, 37263, Note_off_c, 10, 52, 64
21, 37416, Note_on_c, 10, 57, 89
21, 37520, Note_on_c, 10, 55, 82
21, 37544, Note_off_c, 10, 57, 64
21, 37619, Note_off_c, 10, 55, 64
21, 37633, Note_on_c, 10, 54, 64
21, 37732, Note_on_c, 10, 55, 80
21, 37739, Note_off_c, 10, 54, 64
21, 37830, Note_off_c, 10, 55, 64
21, 37869, Note_on_c, 10, 57, 89
21, 37974, Note_off_c, 10, 57, 64
21, 38117, Note_on_c, 10, 45, 80
21, 38199, Note_off_c, 10, 45, 64
21, 38374, Note_on_c, 10, 50, 100
21, 38877, Note_off_c, 10, 50, 64
21, 38877, End_track
0, 0, End_of_file
