0, 0, Header, 1, 17, 120
1, 0, Start_track
1, 0, Title_t, "untitled"
1, 0, SMPTE_offset, 96, 0, 3, 0, 0
1, 0, Time_signature, 3, 3, 12, 8
1, 0, Key_signature, -3, "major"
1, 0, Tempo, 600000
1, 17100, Tempo, 7500000
1, 17100, End_track
2, 0, Start_track
2, 0, MIDI_port, 0
2, 0, Title_t, "Solo Lute"
2, 0, Program_c, 0, 24
2, 0, Control_c, 0, 7, 100
2, 0, Control_c, 0, 10, 64
2, 30, Note_on_c, 0, 63, 100
2, 60, Note_on_c, 0, 63, 0
2, 60, Note_on_c, 0, 62, 100
2, 90, Note_on_c, 0, 62, 0
2, 90, Note_on_c, 0, 60, 100
2, 120, Note_on_c, 0, 60, 0
2, 120, Note_on_c, 0, 58, 100
2, 150, Note_on_c, 0, 58, 0
2, 150, Note_on_c, 0, 56, 100
2, 180, Note_on_c, 0, 56, 0
2, 180, Note_on_c, 0, 55, 100
2, 210, Note_on_c, 0, 55, 0
2, 210, Note_on_c, 0, 60, 100
2, 240, Note_on_c, 0, 60, 0
2, 240, Note_on_c, 0, 58, 100
2, 270, Note_on_c, 0, 58, 0
2, 270, Note_on_c, 0, 56, 100
2, 300, Note_on_c, 0, 56, 0
2, 300, Note_on_c, 0, 55, 100
2, 330, Note_on_c, 0, 55, 0
2, 330, Note_on_c, 0, 53, 100
2, 360, Note_on_c, 0, 53, 0
2, 360, Note_on_c, 0, 51, 100
2, 390, Note_on_c, 0, 51, 0
2, 390, Note_on_c, 0, 50, 100
2, 420, Note_on_c, 0, 50, 0
2, 420, Note_on_c, 0, 51, 100
2, 450, Note_on_c, 0, 51, 0
2, 450, Note_on_c, 0, 53, 100
2, 480, Note_on_c, 0, 53, 0
2, 480, Note_on_c, 0, 55, 100
2, 510, Note_on_c, 0, 55, 0
2, 510, Note_on_c, 0, 51, 100
2, 540, Note_on_c, 0, 51, 0
2, 540, Note_on_c, 0, 53, 100
2, 570, Note_on_c, 0, 53, 0
2, 570, Note_on_c, 0, 55, 100
2, 600, Note_on_c, 0, 55, 0
2, 600, Note_on_c, 0, 56, 100
2, 630, Note_on_c, 0, 56, 0
2, 630, Note_on_c, 0, 51, 100
2, 660, Note_on_c, 0, 51, 0
2, 660, Note_on_c, 0, 50, 100
2, 690, Note_on_c, 0, 50, 0
2, 690, Note_on_c, 0, 56, 100
2, 720, Note_on_c, 0, 56, 0
2, 720, Note_on_c, 0, 55, 100
2, 750, Note_on_c, 0, 55, 0
2, 750, Note_on_c, 0, 58, 100
2, 780, Note_on_c, 0, 58, 0
2, 780, Note_on_c, 0, 63, 100
2, 810, Note_on_c, 0, 63, 0
2, 810, Note_on_c, 0, 62, 100
2, 840, Note_on_c, 0, 62, 0
2, 840, Note_on_c, 0, 63, 100
2, 870, Note_on_c, 0, 63, 0
2, 870, Note_on_c, 0, 58, 100
2, 900, Note_on_c, 0, 58, 0
2, 900, Note_on_c, 0, 60, 100
2, 930, Note_on_c, 0, 60, 0
2, 930, Note_on_c, 0, 63, 100
2, 960, Note_on_c, 0, 63, 0
2, 960, Note_on_c, 0, 62, 100
2, 990, Note_on_c, 0, 62, 0
2, 990, Note_on_c, 0, 60, 100
2, 1020, Note_on_c, 0, 60, 0
2, 1020, Note_on_c, 0, 58, 100
2, 1050, Note_on_c, 0, 58, 0
2, 1050, Note_on_c, 0, 56, 100
2, 1080, Note_on_c, 0, 56, 0
2, 1080, Note_on_c, 0, 55, 100
2, 1110, Note_on_c, 0, 55, 0
2, 1110, Note_on_c, 0, 56, 100
2, 1140, Note_on_c, 0, 56, 0
2, 1140, Note_on_c, 0, 58, 100
2, 1170, Note_on_c, 0, 58, 0
2, 1170, Note_on_c, 0, 55, 100
2, 1200, Note_on_c, 0, 55, 0
2, 1200, Note_on_c, 0, 53, 100
2, 1230, Note_on_c, 0, 53, 0
2, 1230, Note_on_c, 0, 58, 100
2, 1260, Note_on_c, 0, 58, 0
2, 1260, Note_on_c, 0, 51, 100
2, 1290, Note_on_c, 0, 51, 0
2, 1290, Note_on_c, 0, 55, 100
2, 1320, Note_on_c, 0, 55, 0
2, 1320, Note_on_c, 0, 60, 100
2, 1350, Note_on_c, 0, 60, 0
2, 1350, Note_on_c, 0, 62, 100
2, 1380, Note_on_c, 0, 62, 0
2, 1380, Note_on_c, 0, 63, 100
2, 1410, Note_on_c, 0, 63, 0
2, 1410, Note_on_c, 0, 58, 100
2, 1440, Note_on_c, 0, 58, 0
2, 1440, Note_on_c, 0, 57, 100
2, 1470, Note_on_c, 0, 57, 0
2, 1470, Note_on_c, 0, 58, 100
2, 1500, Note_on_c, 0, 58, 0
2, 1500, Note_on_c, 0, 60, 100
2, 1530, Note_on_c, 0, 60, 0
2, 1530, Note_on_c, 0, 57, 100
2, 1560, Note_on_c, 0, 57, 0
2, 1560, Note_on_c, 0, 55, 100
2, 1590, Note_on_c, 0, 55, 0
2, 1590, Note_on_c, 0, 60, 100
2, 1620, Note_on_c, 0, 60, 0
2, 1620, Note_on_c, 0, 53, 100
2, 1650, Note_on_c, 0, 53, 0
2, 1650, Note_on_c, 0, 57, 100
2, 1680, Note_on_c, 0, 57, 0
2, 1680, Note_on_c, 0, 62, 100
2, 1710, Note_on_c, 0, 62, 0
2, 1710, Note_on_c, 0, 63, 100
2, 1740, Note_on_c, 0, 63, 0
2, 1740, Note_on_c, 0, 65, 100
2, 1770, Note_on_c, 0, 65, 0
2, 1770, Note_on_c, 0, 60, 100
2, 1800, Note_on_c, 0, 60, 0
2, 1800, Note_on_c, 0, 58, 100
2, 1830, Note_on_c, 0, 58, 0
2, 1830, Note_on_c, 0, 60, 100
2, 1860, Note_on_c, 0, 60, 0
2, 1860, Note_on_c, 0, 62, 100
2, 1890, Note_on_c, 0, 62, 0
2, 1890, Note_on_c, 0, 58, 100
2, 1920, Note_on_c, 0, 58, 0
2, 1920, Note_on_c, 0, 56, 100
2, 1950, Note_on_c, 0, 56, 0
2, 1950, Note_on_c, 0, 62, 100
2, 1980, Note_on_c, 0, 62, 0
2, 1980, Note_on_c, 0, 55, 100
2, 2010, Note_on_c, 0, 55, 0
2, 2010, Note_on_c, 0, 58, 100
2, 2040, Note_on_c, 0, 58, 0
2, 2040, Note_on_c, 0, 63, 100
2, 2070, Note_on_c, 0, 63, 0
2, 2070, Note_on_c, 0, 65, 100
2, 2100, Note_on_c, 0, 65, 0
2, 2100, Note_on_c, 0, 67, 100
2, 2130, Note_on_c, 0, 67, 0
2, 2130, Note_on_c, 0, 63, 100
2, 2160, Note_on_c, 0, 63, 0
2, 2160, Note_on_c, 0, 60, 100
2, 2190, Note_on_c, 0, 60, 0
2, 2190, Note_on_c, 0, 62, 100
2, 2220, Note_on_c, 0, 62, 0
2, 2220, Note_on_c, 0, 63, 100
2, 2250, Note_on_c, 0, 63, 0
2, 2250, Note_on_c, 0, 65, 100
2, 2280, Note_on_c, 0, 65, 0
2, 2280, Note_on_c, 0, 67, 100
2, 2310, Note_on_c, 0, 67, 0
2, 2310, Note_on_c, 0, 58, 100
2, 2340, Note_on_c, 0, 58, 0
2, 2340, Note_on_c, 0, 57, 100
2, 2370, Note_on_c, 0, 57, 0
2, 2370, Note_on_c, 0, 60, 100
2, 2400, Note_on_c, 0, 60, 0
2, 2400, Note_on_c, 0, 63, 100
2, 2430, Note_on_c, 0, 63, 0
2, 2430, Note_on_c, 0, 65, 100
2, 2460, Note_on_c, 0, 65, 0
2, 2460, Note_on_c, 0, 67, 100
2, 2490, Note_on_c, 0, 67, 0
2, 2490, Note_on_c, 0, 57, 100
2, 2520, Note_on_c, 0, 57, 0
2, 2520, Note_on_c, 0, 58, 100
2, 2550, Note_on_c, 0, 58, 0
2, 2550, Note_on_c, 0, 60, 100
2, 2580, Note_on_c, 0, 60, 0
2, 2580, Note_on_c, 0, 62, 100
2, 2610, Note_on_c, 0, 62, 0
2, 2610, Note_on_c, 0, 63, 100
2, 2640, Note_on_c, 0, 63, 0
2, 2640, Note_on_c, 0, 65, 100
2, 2670, Note_on_c, 0, 65, 0
2, 2670, Note_on_c, 0, 56, 100
2, 2700, Note_on_c, 0, 56, 0
2, 2700, Note_on_c, 0, 55, 100
2, 2730, Note_on_c, 0, 55, 0
2, 2730, Note_on_c, 0, 58, 100
2, 2760, Note_on_c, 0, 58, 0
2, 2760, Note_on_c, 0, 62, 100
2, 2790, Note_on_c, 0, 62, 0
2, 2790, Note_on_c, 0, 63, 100
2, 2820, Note_on_c, 0, 63, 0
2, 2820, Note_on_c, 0, 65, 100
2, 2850, Note_on_c, 0, 65, 0
2, 2850, Note_on_c, 0, 55, 100
2, 2880, Note_on_c, 0, 55, 0
2, 2880, Note_on_c, 0, 57, 100
2, 2910, Note_on_c, 0, 57, 0
2, 2910, Note_on_c, 0, 58, 100
2, 2940, Note_on_c, 0, 58, 0
2, 2940, Note_on_c, 0, 60, 100
2, 2970, Note_on_c, 0, 60, 0
2, 2970, Note_on_c, 0, 62, 100
2, 3000, Note_on_c, 0, 62, 0
2, 3000, Note_on_c, 0, 63, 100
2, 3030, Note_on_c, 0, 63, 0
2, 3030, Note_on_c, 0, 55, 100
2, 3060, Note_on_c, 0, 55, 0
2, 3060, Note_on_c, 0, 53, 100
2, 3090, Note_on_c, 0, 53, 0
2, 3090, Note_on_c, 0, 57, 100
2, 3120, Note_on_c, 0, 57, 0
2, 3120, Note_on_c, 0, 60, 100
2, 3150, Note_on_c, 0, 60, 0
2, 3150, Note_on_c, 0, 62, 100
2, 3180, Note_on_c, 0, 62, 0
2, 3180, Note_on_c, 0, 63, 100
2, 3210, Note_on_c, 0, 63, 0
2, 3210, Note_on_c, 0, 60, 100
2, 3240, Note_on_c, 0, 60, 0
2, 3240, Note_on_c, 0, 62, 100
2, 3270, Note_on_c, 0, 62, 0
2, 3270, Note_on_c, 0, 70, 100
2, 3300, Note_on_c, 0, 70, 0
2, 3300, Note_on_c, 0, 69, 100
2, 3330, Note_on_c, 0, 69, 0
2, 3330, Note_on_c, 0, 67, 100
2, 3360, Note_on_c, 0, 67, 0
2, 3360, Note_on_c, 0, 65, 100
2, 3390, Note_on_c, 0, 65, 0
2, 3390, Note_on_c, 0, 63, 100
2, 3420, Note_on_c, 0, 63, 0
2, 3420, Note_on_c, 0, 62, 100
2, 3450, Note_on_c, 0, 62, 0
2, 3450, Note_on_c, 0, 67, 100
2, 3480, Note_on_c, 0, 67, 0
2, 3480, Note_on_c, 0, 65, 100
2, 3510, Note_on_c, 0, 65, 0
2, 3510, Note_on_c, 0, 63, 100
2, 3540, Note_on_c, 0, 63, 0
2, 3540, Note_on_c, 0, 62, 100
2, 3570, Note_on_c, 0, 62, 0
2, 3570, Note_on_c, 0, 60, 100
2, 3600, Note_on_c, 0, 60, 0
2, 3600, Note_on_c, 0, 58, 100
2, 3630, Note_on_c, 0, 58, 0
2, 3630, Note_on_c, 0, 57, 100
2, 3660, Note_on_c, 0, 57, 0
2, 3660, Note_on_c, 0, 58, 100
2, 3690, Note_on_c, 0, 58, 0
2, 3690, Note_on_c, 0, 60, 100
2, 3720, Note_on_c, 0, 60, 0
2, 3720, Note_on_c, 0, 62, 100
2, 3750, Note_on_c, 0, 62, 0
2, 3750, Note_on_c, 0, 58, 100
2, 3780, Note_on_c, 0, 58, 0
2, 3780, Note_on_c, 0, 60, 100
2, 3810, Note_on_c, 0, 60, 0
2, 3810, Note_on_c, 0, 62, 100
2, 3840, Note_on_c, 0, 62, 0
2, 3840, Note_on_c, 0, 63, 100
2, 3870, Note_on_c, 0, 63, 0
2, 3870, Note_on_c, 0, 58, 100
2, 3900, Note_on_c, 0, 58, 0
2, 3900, Note_on_c, 0, 57, 100
2, 3930, Note_on_c, 0, 57, 0
2, 3930, Note_on_c, 0, 63, 100
2, 3960, Note_on_c, 0, 63, 0
2, 3960, Note_on_c, 0, 62, 100
2, 3990, Note_on_c, 0, 62, 0
2, 3990, Note_on_c, 0, 58, 100
2, 4020, Note_on_c, 0, 58, 0
2, 4020, Note_on_c, 0, 60, 100
2, 4050, Note_on_c, 0, 60, 0
2, 4050, Note_on_c, 0, 62, 100
2, 4080, Note_on_c, 0, 62, 0
2, 4080, Note_on_c, 0, 63, 100
2, 4110, Note_on_c, 0, 63, 0
2, 4110, Note_on_c, 0, 65, 100
2, 4140, Note_on_c, 0, 65, 0
2, 4140, Note_on_c, 0, 67, 100
2, 4170, Note_on_c, 0, 67, 0
2, 4170, Note_on_c, 0, 63, 100
2, 4200, Note_on_c, 0, 63, 0
2, 4200, Note_on_c, 0, 65, 100
2, 4230, Note_on_c, 0, 65, 0
2, 4230, Note_on_c, 0, 67, 100
2, 4260, Note_on_c, 0, 67, 0
2, 4260, Note_on_c, 0, 69, 100
2, 4290, Note_on_c, 0, 69, 0
2, 4290, Note_on_c, 0, 70, 100
2, 4320, Note_on_c, 0, 70, 0
2, 4320, Note_on_c, 0, 72, 100
2, 4350, Note_on_c, 0, 72, 0
2, 4350, Note_on_c, 0, 70, 100
2, 4380, Note_on_c, 0, 70, 0
2, 4380, Note_on_c, 0, 69, 100
2, 4410, Note_on_c, 0, 69, 0
2, 4410, Note_on_c, 0, 67, 100
2, 4440, Note_on_c, 0, 67, 0
2, 4440, Note_on_c, 0, 65, 100
2, 4470, Note_on_c, 0, 65, 0
2, 4470, Note_on_c, 0, 63, 100
2, 4500, Note_on_c, 0, 63, 0
2, 4500, Note_on_c, 0, 62, 100
2, 4560, Note_on_c, 0, 62, 0
2, 4560, Note_on_c, 0, 63, 100
2, 4620, Note_on_c, 0, 63, 0
2, 4620, Note_on_c, 0, 60, 100
2, 4680, Note_on_c, 0, 60, 0
2, 4710, Note_on_c, 0, 58, 100
2, 4740, Note_on_c, 0, 58, 0
2, 4740, Note_on_c, 0, 57, 100
2, 4770, Note_on_c, 0, 57, 0
2, 4770, Note_on_c, 0, 58, 100
2, 4800, Note_on_c, 0, 58, 0
2, 4800, Note_on_c, 0, 60, 100
2, 4830, Note_on_c, 0, 60, 0
2, 4830, Note_on_c, 0, 58, 100
2, 4860, Note_on_c, 0, 58, 0
2, 4860, Note_on_c, 0, 62, 100
2, 4890, Note_on_c, 0, 62, 0
2, 4890, Note_on_c, 0, 58, 100
2, 4920, Note_on_c, 0, 58, 0
2, 4920, Note_on_c, 0, 57, 100
2, 4950, Note_on_c, 0, 57, 0
2, 4950, Note_on_c, 0, 58, 100
2, 4980, Note_on_c, 0, 58, 0
2, 4980, Note_on_c, 0, 63, 100
2, 5010, Note_on_c, 0, 63, 0
2, 5010, Note_on_c, 0, 58, 100
2, 5040, Note_on_c, 0, 58, 0
2, 5040, Note_on_c, 0, 65, 100
2, 5070, Note_on_c, 0, 65, 0
2, 5070, Note_on_c, 0, 58, 100
2, 5100, Note_on_c, 0, 58, 0
2, 5100, Note_on_c, 0, 57, 100
2, 5130, Note_on_c, 0, 57, 0
2, 5130, Note_on_c, 0, 58, 100
2, 5160, Note_on_c, 0, 58, 0
2, 5160, Note_on_c, 0, 70, 100
2, 5190, Note_on_c, 0, 70, 0
2, 5190, Note_on_c, 0, 58, 100
2, 5220, Note_on_c, 0, 58, 0
2, 5220, Note_on_c, 0, 68, 100
2, 5250, Note_on_c, 0, 68, 0
2, 5250, Note_on_c, 0, 65, 100
2, 5280, Note_on_c, 0, 65, 0
2, 5280, Note_on_c, 0, 63, 100
2, 5310, Note_on_c, 0, 63, 0
2, 5310, Note_on_c, 0, 62, 100
2, 5340, Note_on_c, 0, 62, 0
2, 5340, Note_on_c, 0, 60, 100
2, 5370, Note_on_c, 0, 60, 0
2, 5370, Note_on_c, 0, 58, 100
2, 5400, Note_on_c, 0, 58, 0
2, 5400, Note_on_c, 0, 67, 100
2, 5430, Note_on_c, 0, 67, 0
2, 5430, Note_on_c, 0, 68, 100
2, 5460, Note_on_c, 0, 68, 0
2, 5460, Pitch_bend_c, 0, 16383
2, 5460, Note_on_c, 0, 68, 100
2, 5470, Pitch_bend_c, 0, 8192
2, 5480, Pitch_bend_c, 0, 16383
2, 5490, Pitch_bend_c, 0, 8192
2, 5550, Note_on_c, 0, 68, 0
2, 5550, Note_on_c, 0, 70, 100
2, 5580, Note_on_c, 0, 70, 0
2, 5580, Note_on_c, 0, 70, 100
2, 5760, Note_on_c, 0, 70, 0
2, 5790, Note_on_c, 0, 65, 100
2, 5820, Note_on_c, 0, 65, 0
2, 5820, Note_on_c, 0, 63, 100
2, 5850, Note_on_c, 0, 63, 0
2, 5850, Note_on_c, 0, 65, 100
2, 5880, Note_on_c, 0, 65, 0
2, 5880, Note_on_c, 0, 67, 100
2, 5910, Note_on_c, 0, 67, 0
2, 5910, Note_on_c, 0, 63, 100
2, 5940, Note_on_c, 0, 63, 0
2, 5940, Note_on_c, 0, 65, 100
2, 5970, Note_on_c, 0, 65, 0
2, 5970, Note_on_c, 0, 62, 100
2, 6000, Note_on_c, 0, 62, 0
2, 6000, Note_on_c, 0, 58, 100
2, 6030, Note_on_c, 0, 58, 0
2, 6030, Note_on_c, 0, 62, 100
2, 6060, Note_on_c, 0, 62, 0
2, 6060, Note_on_c, 0, 65, 100
2, 6090, Note_on_c, 0, 65, 0
2, 6090, Note_on_c, 0, 67, 100
2, 6120, Note_on_c, 0, 67, 0
2, 6120, Note_on_c, 0, 68, 100
2, 6150, Note_on_c, 0, 68, 0
2, 6150, Note_on_c, 0, 63, 100
2, 6180, Note_on_c, 0, 63, 0
2, 6180, Note_on_c, 0, 65, 100
2, 6210, Note_on_c, 0, 65, 0
2, 6210, Note_on_c, 0, 68, 100
2, 6240, Note_on_c, 0, 68, 0
2, 6240, Note_on_c, 0, 62, 100
2, 6270, Note_on_c, 0, 62, 0
2, 6270, Note_on_c, 0, 68, 100
2, 6300, Note_on_c, 0, 68, 0
2, 6300, Note_on_c, 0, 67, 100
2, 6330, Note_on_c, 0, 67, 0
2, 6330, Note_on_c, 0, 68, 100
2, 6360, Note_on_c, 0, 68, 0
2, 6360, Note_on_c, 0, 70, 100
2, 6390, Note_on_c, 0, 70, 0
2, 6390, Note_on_c, 0, 67, 100
2, 6420, Note_on_c, 0, 67, 0
2, 6420, Note_on_c, 0, 63, 100
2, 6480, Note_on_c, 0, 63, 0
2, 6510, Note_on_c, 0, 58, 100
2, 6540, Note_on_c, 0, 58, 0
2, 6540, Note_on_c, 0, 56, 100
2, 6570, Note_on_c, 0, 56, 0
2, 6570, Note_on_c, 0, 58, 100
2, 6600, Note_on_c, 0, 58, 0
2, 6600, Note_on_c, 0, 60, 100
2, 6630, Note_on_c, 0, 60, 0
2, 6630, Note_on_c, 0, 56, 100
2, 6660, Note_on_c, 0, 56, 0
2, 6660, Note_on_c, 0, 58, 100
2, 6690, Note_on_c, 0, 58, 0
2, 6690, Note_on_c, 0, 55, 100
2, 6720, Note_on_c, 0, 55, 0
2, 6720, Note_on_c, 0, 51, 100
2, 6750, Note_on_c, 0, 51, 0
2, 6750, Note_on_c, 0, 55, 100
2, 6780, Note_on_c, 0, 55, 0
2, 6780, Note_on_c, 0, 58, 100
2, 6810, Note_on_c, 0, 58, 0
2, 6810, Note_on_c, 0, 60, 100
2, 6840, Note_on_c, 0, 60, 0
2, 6840, Note_on_c, 0, 61, 100
2, 6870, Note_on_c, 0, 61, 0
2, 6870, Note_on_c, 0, 56, 100
2, 6900, Note_on_c, 0, 56, 0
2, 6900, Note_on_c, 0, 58, 100
2, 6930, Note_on_c, 0, 58, 0
2, 6930, Note_on_c, 0, 61, 100
2, 6960, Note_on_c, 0, 61, 0
2, 6960, Note_on_c, 0, 55, 100
2, 6990, Note_on_c, 0, 55, 0
2, 6990, Note_on_c, 0, 61, 100
2, 7020, Note_on_c, 0, 61, 0
2, 7020, Note_on_c, 0, 60, 100
2, 7050, Note_on_c, 0, 60, 0
2, 7050, Note_on_c, 0, 61, 100
2, 7080, Note_on_c, 0, 61, 0
2, 7080, Note_on_c, 0, 63, 100
2, 7110, Note_on_c, 0, 63, 0
2, 7110, Note_on_c, 0, 60, 100
2, 7140, Note_on_c, 0, 60, 0
2, 7140, Note_on_c, 0, 56, 100
2, 7170, Note_on_c, 0, 56, 0
2, 7170, Note_on_c, 0, 55, 100
2, 7200, Note_on_c, 0, 55, 0
2, 7230, Note_on_c, 0, 72, 100
2, 7260, Note_on_c, 0, 72, 0
2, 7260, Note_on_c, 0, 73, 100
2, 7290, Note_on_c, 0, 73, 0
2, 7290, Note_on_c, 0, 72, 100
2, 7320, Note_on_c, 0, 72, 0
2, 7320, Note_on_c, 0, 70, 100
2, 7350, Note_on_c, 0, 70, 0
2, 7350, Note_on_c, 0, 68, 100
2, 7380, Note_on_c, 0, 68, 0
2, 7380, Note_on_c, 0, 67, 100
2, 7410, Note_on_c, 0, 67, 0
2, 7410, Note_on_c, 0, 72, 100
2, 7440, Note_on_c, 0, 72, 0
2, 7440, Note_on_c, 0, 73, 100
2, 7470, Note_on_c, 0, 73, 0
2, 7470, Note_on_c, 0, 72, 100
2, 7500, Note_on_c, 0, 72, 0
2, 7500, Note_on_c, 0, 68, 100
2, 7530, Note_on_c, 0, 68, 0
2, 7530, Note_on_c, 0, 67, 100
2, 7560, Note_on_c, 0, 67, 0
2, 7560, Note_on_c, 0, 65, 100
2, 7590, Note_on_c, 0, 65, 0
2, 7590, Note_on_c, 0, 72, 100
2, 7620, Note_on_c, 0, 72, 0
2, 7620, Note_on_c, 0, 73, 100
2, 7650, Note_on_c, 0, 73, 0
2, 7650, Note_on_c, 0, 72, 100
2, 7680, Note_on_c, 0, 72, 0
2, 7680, Note_on_c, 0, 67, 100
2, 7710, Note_on_c, 0, 67, 0
2, 7710, Note_on_c, 0, 65, 100
2, 7740, Note_on_c, 0, 65, 0
2, 7740, Note_on_c, 0, 63, 100
2, 7770, Note_on_c, 0, 63, 0
2, 7770, Note_on_c, 0, 65, 100
2, 7800, Note_on_c, 0, 65, 0
2, 7800, Note_on_c, 0, 67, 100
2, 7860, Note_on_c, 0, 67, 0
2, 7950, Note_on_c, 0, 60, 75
2, 7980, Note_on_c, 0, 60, 0
2, 7980, Note_on_c, 0, 61, 75
2, 8010, Note_on_c, 0, 61, 0
2, 8010, Note_on_c, 0, 60, 75
2, 8040, Note_on_c, 0, 60, 0
2, 8040, Note_on_c, 0, 58, 75
2, 8070, Note_on_c, 0, 58, 0
2, 8070, Note_on_c, 0, 56, 75
2, 8100, Note_on_c, 0, 56, 0
2, 8100, Note_on_c, 0, 55, 75
2, 8130, Note_on_c, 0, 55, 0
2, 8130, Note_on_c, 0, 60, 75
2, 8160, Note_on_c, 0, 60, 0
2, 8160, Note_on_c, 0, 61, 75
2, 8190, Note_on_c, 0, 61, 0
2, 8190, Note_on_c, 0, 60, 75
2, 8220, Note_on_c, 0, 60, 0
2, 8220, Note_on_c, 0, 56, 75
2, 8250, Note_on_c, 0, 56, 0
2, 8250, Note_on_c, 0, 55, 75
2, 8280, Note_on_c, 0, 55, 0
2, 8280, Note_on_c, 0, 53, 75
2, 8310, Note_on_c, 0, 53, 0
2, 8310, Note_on_c, 0, 60, 75
2, 8340, Note_on_c, 0, 60, 0
2, 8340, Note_on_c, 0, 61, 75
2, 8370, Note_on_c, 0, 61, 0
2, 8370, Note_on_c, 0, 60, 75
2, 8400, Note_on_c, 0, 60, 0
2, 8400, Note_on_c, 0, 55, 75
2, 8430, Note_on_c, 0, 55, 0
2, 8430, Note_on_c, 0, 53, 75
2, 8460, Note_on_c, 0, 53, 0
2, 8460, Note_on_c, 0, 52, 75
2, 8490, Note_on_c, 0, 52, 0
2, 8490, Note_on_c, 0, 53, 75
2, 8520, Note_on_c, 0, 53, 0
2, 8520, Note_on_c, 0, 55, 75
2, 8580, Note_on_c, 0, 55, 0
2, 8670, Note_on_c, 0, 68, 100
2, 8700, Note_on_c, 0, 68, 0
2, 8700, Note_on_c, 0, 70, 100
2, 8730, Note_on_c, 0, 70, 0
2, 8730, Note_on_c, 0, 68, 100
2, 8760, Note_on_c, 0, 68, 0
2, 8760, Note_on_c, 0, 61, 100
2, 8790, Note_on_c, 0, 61, 0
2, 8790, Note_on_c, 0, 60, 100
2, 8820, Note_on_c, 0, 60, 0
2, 8820, Note_on_c, 0, 58, 100
2, 8850, Note_on_c, 0, 58, 0
2, 8850, Note_on_c, 0, 67, 100
2, 8880, Note_on_c, 0, 67, 0
2, 8880, Note_on_c, 0, 68, 100
2, 8910, Note_on_c, 0, 68, 0
2, 8910, Note_on_c, 0, 67, 100
2, 8940, Note_on_c, 0, 67, 0
2, 8940, Note_on_c, 0, 60, 100
2, 8970, Note_on_c, 0, 60, 0
2, 8970, Note_on_c, 0, 58, 100
2, 9000, Note_on_c, 0, 58, 0
2, 9000, Note_on_c, 0, 56, 100
2, 9030, Note_on_c, 0, 56, 0
2, 9030, Note_on_c, 0, 65, 100
2, 9060, Note_on_c, 0, 65, 0
2, 9060, Note_on_c, 0, 67, 100
2, 9090, Note_on_c, 0, 67, 0
2, 9090, Note_on_c, 0, 65, 100
2, 9120, Note_on_c, 0, 65, 0
2, 9120, Note_on_c, 0, 58, 100
2, 9150, Note_on_c, 0, 58, 0
2, 9150, Note_on_c, 0, 56, 100
2, 9180, Note_on_c, 0, 56, 0
2, 9180, Note_on_c, 0, 55, 100
2, 9210, Note_on_c, 0, 55, 0
2, 9210, Note_on_c, 0, 65, 100
2, 9240, Note_on_c, 0, 65, 0
2, 9240, Note_on_c, 0, 64, 100
2, 9270, Note_on_c, 0, 64, 0
2, 9270, Note_on_c, 0, 60, 100
2, 9300, Note_on_c, 0, 60, 0
2, 9300, Note_on_c, 0, 62, 100
2, 9330, Note_on_c, 0, 62, 0
2, 9330, Note_on_c, 0, 64, 100
2, 9360, Note_on_c, 0, 64, 0
2, 9360, Note_on_c, 0, 65, 100
2, 9390, Note_on_c, 0, 65, 0
2, 9390, Note_on_c, 0, 60, 100
2, 9420, Note_on_c, 0, 60, 0
2, 9420, Note_on_c, 0, 58, 100
2, 9450, Note_on_c, 0, 58, 0
2, 9450, Note_on_c, 0, 60, 100
2, 9480, Note_on_c, 0, 60, 0
2, 9480, Note_on_c, 0, 64, 100
2, 9510, Note_on_c, 0, 64, 0
2, 9510, Note_on_c, 0, 65, 100
2, 9540, Note_on_c, 0, 65, 0
2, 9540, Note_on_c, 0, 67, 100
2, 9570, Note_on_c, 0, 67, 0
2, 9570, Note_on_c, 0, 65, 100
2, 9600, Note_on_c, 0, 65, 0
2, 9600, Note_on_c, 0, 64, 100
2, 9630, Note_on_c, 0, 64, 0
2, 9630, Note_on_c, 0, 65, 100
2, 9660, Note_on_c, 0, 65, 0
2, 9660, Note_on_c, 0, 67, 100
2, 9690, Note_on_c, 0, 67, 0
2, 9690, Note_on_c, 0, 70, 100
2, 9720, Note_on_c, 0, 70, 0
2, 9720, Note_on_c, 0, 68, 100
2, 9735, Note_on_c, 0, 68, 0
2, 9735, Note_on_c, 0, 67, 100
2, 9750, Note_on_c, 0, 67, 0
2, 9750, Note_on_c, 0, 65, 100
2, 9780, Note_on_c, 0, 65, 0
2, 9780, Note_on_c, 0, 67, 100
2, 9780, Note_on_c, 0, 58, 100
2, 9840, Note_on_c, 0, 58, 0
2, 9840, Note_on_c, 0, 67, 0
2, 9840, Note_on_c, 0, 64, 100
2, 9840, Note_on_c, 0, 55, 100
2, 9900, Note_on_c, 0, 55, 0
2, 9900, Note_on_c, 0, 64, 0
2, 9900, Note_on_c, 0, 65, 100
2, 9900, Note_on_c, 0, 56, 100
2, 10020, Note_on_c, 0, 56, 0
2, 10020, Note_on_c, 0, 65, 0
2, 10110, Note_on_c, 0, 53, 100
2, 10140, Note_on_c, 0, 53, 0
2, 10140, Note_on_c, 0, 52, 100
2, 10170, Note_on_c, 0, 52, 0
2, 10170, Note_on_c, 0, 53, 100
2, 10200, Note_on_c, 0, 53, 0
2, 10200, Note_on_c, 0, 55, 100
2, 10230, Note_on_c, 0, 55, 0
2, 10230, Note_on_c, 0, 57, 100
2, 10260, Note_on_c, 0, 57, 0
2, 10260, Note_on_c, 0, 58, 100
2, 10290, Note_on_c, 0, 58, 0
2, 10290, Note_on_c, 0, 53, 100
2, 10320, Note_on_c, 0, 53, 0
2, 10320, Note_on_c, 0, 52, 100
2, 10350, Note_on_c, 0, 52, 0
2, 10350, Note_on_c, 0, 53, 100
2, 10380, Note_on_c, 0, 53, 0
2, 10380, Note_on_c, 0, 57, 100
2, 10410, Note_on_c, 0, 57, 0
2, 10410, Note_on_c, 0, 58, 100
2, 10440, Note_on_c, 0, 58, 0
2, 10440, Note_on_c, 0, 60, 100
2, 10470, Note_on_c, 0, 60, 0
2, 10470, Note_on_c, 0, 53, 100
2, 10500, Note_on_c, 0, 53, 0
2, 10500, Note_on_c, 0, 52, 100
2, 10530, Note_on_c, 0, 52, 0
2, 10530, Note_on_c, 0, 53, 100
2, 10560, Note_on_c, 0, 53, 0
2, 10560, Note_on_c, 0, 58, 100
2, 10590, Note_on_c, 0, 58, 0
2, 10590, Note_on_c, 0, 60, 100
2, 10620, Note_on_c, 0, 60, 0
2, 10620, Note_on_c, 0, 62, 100
2, 10650, Note_on_c, 0, 62, 0
2, 10650, Note_on_c, 0, 63, 100
2, 10680, Note_on_c, 0, 63, 0
2, 10680, Note_on_c, 0, 65, 100
2, 10710, Note_on_c, 0, 65, 0
2, 10710, Note_on_c, 0, 58, 100
2, 10740, Note_on_c, 0, 58, 0
2, 10740, Note_on_c, 0, 57, 100
2, 10770, Note_on_c, 0, 57, 0
2, 10770, Note_on_c, 0, 63, 100
2, 10800, Note_on_c, 0, 63, 0
2, 10800, Note_on_c, 0, 62, 100
2, 10830, Note_on_c, 0, 62, 0
2, 10830, Note_on_c, 0, 58, 100
2, 10860, Note_on_c, 0, 58, 0
2, 10860, Note_on_c, 0, 57, 100
2, 10890, Note_on_c, 0, 57, 0
2, 10890, Note_on_c, 0, 58, 100
2, 10920, Note_on_c, 0, 58, 0
2, 10920, Note_on_c, 0, 60, 100
2, 10950, Note_on_c, 0, 60, 0
2, 10950, Note_on_c, 0, 62, 100
2, 10980, Note_on_c, 0, 62, 0
2, 10980, Note_on_c, 0, 63, 100
2, 11010, Note_on_c, 0, 63, 0
2, 11010, Note_on_c, 0, 58, 100
2, 11040, Note_on_c, 0, 58, 0
2, 11040, Note_on_c, 0, 57, 100
2, 11070, Note_on_c, 0, 57, 0
2, 11070, Note_on_c, 0, 58, 100
2, 11100, Note_on_c, 0, 58, 0
2, 11100, Note_on_c, 0, 62, 100
2, 11130, Note_on_c, 0, 62, 0
2, 11130, Note_on_c, 0, 63, 100
2, 11160, Note_on_c, 0, 63, 0
2, 11160, Note_on_c, 0, 65, 100
2, 11190, Note_on_c, 0, 65, 0
2, 11190, Note_on_c, 0, 58, 100
2, 11220, Note_on_c, 0, 58, 0
2, 11220, Note_on_c, 0, 57, 100
2, 11250, Note_on_c, 0, 57, 0
2, 11250, Note_on_c, 0, 58, 100
2, 11280, Note_on_c, 0, 58, 0
2, 11280, Note_on_c, 0, 63, 100
2, 11310, Note_on_c, 0, 63, 0
2, 11310, Note_on_c, 0, 65, 100
2, 11340, Note_on_c, 0, 65, 0
2, 11340, Note_on_c, 0, 67, 100
2, 11370, Note_on_c, 0, 67, 0
2, 11370, Note_on_c, 0, 68, 100
2, 11400, Note_on_c, 0, 68, 0
2, 11400, Note_on_c, 0, 70, 100
2, 11430, Note_on_c, 0, 70, 0
2, 11430, Note_on_c, 0, 63, 100
2, 11460, Note_on_c, 0, 63, 0
2, 11460, Note_on_c, 0, 62, 100
2, 11490, Note_on_c, 0, 62, 0
2, 11490, Note_on_c, 0, 68, 100
2, 11520, Note_on_c, 0, 68, 0
2, 11520, Note_on_c, 0, 67, 100
2, 11550, Note_on_c, 0, 67, 0
2, 11550, Note_on_c, 0, 70, 100
2, 11580, Note_on_c, 0, 70, 0
2, 11580, Note_on_c, 0, 72, 100
2, 11610, Note_on_c, 0, 72, 0
2, 11610, Note_on_c, 0, 70, 100
2, 11640, Note_on_c, 0, 70, 0
2, 11640, Note_on_c, 0, 68, 100
2, 11670, Note_on_c, 0, 68, 0
2, 11670, Note_on_c, 0, 67, 100
2, 11700, Note_on_c, 0, 67, 0
2, 11700, Note_on_c, 0, 65, 100
2, 11730, Note_on_c, 0, 65, 0
2, 11730, Note_on_c, 0, 70, 100
2, 11760, Note_on_c, 0, 70, 0
2, 11760, Note_on_c, 0, 72, 100
2, 11790, Note_on_c, 0, 72, 0
2, 11790, Note_on_c, 0, 70, 100
2, 11820, Note_on_c, 0, 70, 0
2, 11820, Note_on_c, 0, 67, 100
2, 11850, Note_on_c, 0, 67, 0
2, 11850, Note_on_c, 0, 65, 100
2, 11880, Note_on_c, 0, 65, 0
2, 11880, Note_on_c, 0, 63, 100
2, 11910, Note_on_c, 0, 63, 0
2, 11910, Note_on_c, 0, 70, 100
2, 11940, Note_on_c, 0, 70, 0
2, 11940, Note_on_c, 0, 72, 100
2, 11970, Note_on_c, 0, 72, 0
2, 11970, Note_on_c, 0, 70, 100
2, 12000, Note_on_c, 0, 70, 0
2, 12000, Note_on_c, 0, 65, 100
2, 12030, Note_on_c, 0, 65, 0
2, 12030, Note_on_c, 0, 63, 100
2, 12060, Note_on_c, 0, 63, 0
2, 12060, Note_on_c, 0, 62, 100
2, 12090, Note_on_c, 0, 62, 0
2, 12090, Note_on_c, 0, 63, 100
2, 12120, Note_on_c, 0, 63, 0
2, 12120, Note_on_c, 0, 65, 100
2, 12180, Note_on_c, 0, 65, 0
2, 12270, Note_on_c, 0, 58, 75
2, 12300, Note_on_c, 0, 58, 0
2, 12300, Note_on_c, 0, 60, 75
2, 12330, Note_on_c, 0, 60, 0
2, 12330, Note_on_c, 0, 58, 75
2, 12360, Note_on_c, 0, 58, 0
2, 12360, Note_on_c, 0, 56, 75
2, 12390, Note_on_c, 0, 56, 0
2, 12390, Note_on_c, 0, 55, 75
2, 12420, Note_on_c, 0, 55, 0
2, 12420, Note_on_c, 0, 53, 75
2, 12450, Note_on_c, 0, 53, 0
2, 12450, Note_on_c, 0, 58, 75
2, 12480, Note_on_c, 0, 58, 0
2, 12480, Note_on_c, 0, 60, 75
2, 12510, Note_on_c, 0, 60, 0
2, 12510, Note_on_c, 0, 58, 75
2, 12540, Note_on_c, 0, 58, 0
2, 12540, Note_on_c, 0, 55, 75
2, 12570, Note_on_c, 0, 55, 0
2, 12570, Note_on_c, 0, 53, 75
2, 12600, Note_on_c, 0, 53, 0
2, 12600, Note_on_c, 0, 51, 75
2, 12630, Note_on_c, 0, 51, 0
2, 12630, Note_on_c, 0, 58, 75
2, 12660, Note_on_c, 0, 58, 0
2, 12660, Note_on_c, 0, 60, 75
2, 12690, Note_on_c, 0, 60, 0
2, 12690, Note_on_c, 0, 58, 75
2, 12720, Note_on_c, 0, 58, 0
2, 12720, Note_on_c, 0, 53, 75
2, 12750, Note_on_c, 0, 53, 0
2, 12750, Note_on_c, 0, 51, 75
2, 12780, Note_on_c, 0, 51, 0
2, 12780, Note_on_c, 0, 50, 75
2, 12810, Note_on_c, 0, 50, 0
2, 12810, Note_on_c, 0, 51, 75
2, 12840, Note_on_c, 0, 51, 0
2, 12840, Note_on_c, 0, 53, 75
2, 12900, Note_on_c, 0, 53, 0
2, 12990, Note_on_c, 0, 65, 100
2, 13020, Note_on_c, 0, 65, 0
2, 13020, Note_on_c, 0, 63, 100
2, 13050, Note_on_c, 0, 63, 0
2, 13050, Note_on_c, 0, 67, 100
2, 13080, Note_on_c, 0, 67, 0
2, 13080, Note_on_c, 0, 61, 100
2, 13110, Note_on_c, 0, 61, 0
2, 13110, Note_on_c, 0, 67, 100
2, 13140, Note_on_c, 0, 67, 0
2, 13140, Note_on_c, 0, 60, 100
2, 13170, Note_on_c, 0, 60, 0
2, 13170, Note_on_c, 0, 64, 100
2, 13200, Note_on_c, 0, 64, 0
2, 13200, Note_on_c, 0, 65, 100
2, 13230, Note_on_c, 0, 65, 0
2, 13230, Note_on_c, 0, 60, 100
2, 13260, Note_on_c, 0, 60, 0
2, 13260, Note_on_c, 0, 67, 100
2, 13290, Note_on_c, 0, 67, 0
2, 13290, Note_on_c, 0, 58, 100
2, 13320, Note_on_c, 0, 58, 0
2, 13320, Note_on_c, 0, 56, 100
2, 13350, Note_on_c, 0, 56, 0
2, 13350, Note_on_c, 0, 67, 100
2, 13380, Note_on_c, 0, 67, 0
2, 13380, Note_on_c, 0, 65, 100
2, 13410, Note_on_c, 0, 65, 0
2, 13410, Note_on_c, 0, 68, 100
2, 13440, Note_on_c, 0, 68, 0
2, 13440, Note_on_c, 0, 63, 100
2, 13470, Note_on_c, 0, 63, 0
2, 13470, Note_on_c, 0, 68, 100
2, 13500, Note_on_c, 0, 68, 0
2, 13500, Note_on_c, 0, 62, 100
2, 13530, Note_on_c, 0, 62, 0
2, 13530, Note_on_c, 0, 65, 100
2, 13560, Note_on_c, 0, 65, 0
2, 13560, Note_on_c, 0, 67, 100
2, 13590, Note_on_c, 0, 67, 0
2, 13590, Note_on_c, 0, 62, 100
2, 13620, Note_on_c, 0, 62, 0
2, 13620, Note_on_c, 0, 68, 100
2, 13650, Note_on_c, 0, 68, 0
2, 13650, Note_on_c, 0, 60, 100
2, 13680, Note_on_c, 0, 60, 0
2, 13680, Note_on_c, 0, 58, 100
2, 13710, Note_on_c, 0, 58, 0
2, 13710, Note_on_c, 0, 68, 100
2, 13740, Note_on_c, 0, 68, 0
2, 13740, Note_on_c, 0, 67, 100
2, 13770, Note_on_c, 0, 67, 0
2, 13770, Note_on_c, 0, 70, 100
2, 13800, Note_on_c, 0, 70, 0
2, 13800, Note_on_c, 0, 65, 100
2, 13830, Note_on_c, 0, 65, 0
2, 13830, Note_on_c, 0, 70, 100
2, 13860, Note_on_c, 0, 70, 0
2, 13860, Note_on_c, 0, 63, 100
2, 13890, Note_on_c, 0, 63, 0
2, 13890, Note_on_c, 0, 67, 100
2, 13920, Note_on_c, 0, 67, 0
2, 13920, Note_on_c, 0, 68, 100
2, 13950, Note_on_c, 0, 68, 0
2, 13950, Note_on_c, 0, 63, 100
2, 13980, Note_on_c, 0, 63, 0
2, 13980, Note_on_c, 0, 70, 100
2, 14010, Note_on_c, 0, 70, 0
2, 14010, Note_on_c, 0, 63, 100
2, 14040, Note_on_c, 0, 63, 0
2, 14040, Note_on_c, 0, 72, 100
2, 14070, Note_on_c, 0, 72, 0
2, 14070, Note_on_c, 0, 70, 100
2, 14100, Note_on_c, 0, 70, 0
2, 14100, Note_on_c, 0, 68, 100
2, 14130, Note_on_c, 0, 68, 0
2, 14130, Note_on_c, 0, 74, 100
2, 14160, Note_on_c, 0, 74, 0
2, 14160, Note_on_c, 0, 67, 100
2, 14190, Note_on_c, 0, 67, 0
2, 14190, Note_on_c, 0, 75, 100
2, 14220, Note_on_c, 0, 75, 0
2, 14220, Note_on_c, 0, 65, 100
2, 14250, Note_on_c, 0, 65, 0
2, 14250, Note_on_c, 0, 75, 100
2, 14280, Note_on_c, 0, 75, 0
2, 14280, Note_on_c, 0, 74, 100
2, 14310, Note_on_c, 0, 74, 0
2, 14310, Note_on_c, 0, 72, 100
2, 14340, Note_on_c, 0, 72, 0
2, 14340, Note_on_c, 0, 70, 100
2, 14370, Note_on_c, 0, 70, 0
2, 14370, Note_on_c, 0, 68, 100
2, 14400, Note_on_c, 0, 68, 0
2, 14400, Note_on_c, 0, 67, 100
2, 14430, Note_on_c, 0, 67, 0
2, 14430, Note_on_c, 0, 70, 100
2, 14460, Note_on_c, 0, 70, 0
2, 14460, Note_on_c, 0, 72, 100
2, 14490, Note_on_c, 0, 72, 0
2, 14490, Note_on_c, 0, 70, 100
2, 14520, Note_on_c, 0, 70, 0
2, 14520, Note_on_c, 0, 68, 100
2, 14550, Note_on_c, 0, 68, 0
2, 14550, Note_on_c, 0, 67, 100
2, 14580, Note_on_c, 0, 67, 0
2, 14580, Note_on_c, 0, 65, 100
2, 14610, Note_on_c, 0, 65, 0
2, 14610, Note_on_c, 0, 70, 100
2, 14640, Note_on_c, 0, 70, 0
2, 14640, Note_on_c, 0, 72, 100
2, 14670, Note_on_c, 0, 72, 0
2, 14670, Note_on_c, 0, 70, 100
2, 14700, Note_on_c, 0, 70, 0
2, 14700, Note_on_c, 0, 67, 100
2, 14730, Note_on_c, 0, 67, 0
2, 14730, Note_on_c, 0, 65, 100
2, 14760, Note_on_c, 0, 65, 0
2, 14760, Note_on_c, 0, 63, 100
2, 14790, Note_on_c, 0, 63, 0
2, 14790, Note_on_c, 0, 70, 100
2, 14820, Note_on_c, 0, 70, 0
2, 14820, Note_on_c, 0, 72, 100
2, 14850, Note_on_c, 0, 72, 0
2, 14850, Note_on_c, 0, 70, 100
2, 14880, Note_on_c, 0, 70, 0
2, 14880, Note_on_c, 0, 65, 100
2, 14910, Note_on_c, 0, 65, 0
2, 14910, Note_on_c, 0, 63, 100
2, 14940, Note_on_c, 0, 63, 0
2, 14940, Note_on_c, 0, 62, 100
2, 14970, Note_on_c, 0, 62, 0
2, 14970, Note_on_c, 0, 70, 100
2, 15000, Note_on_c, 0, 70, 0
2, 15000, Note_on_c, 0, 72, 100
2, 15030, Note_on_c, 0, 72, 0
2, 15030, Note_on_c, 0, 70, 100
2, 15060, Note_on_c, 0, 70, 0
2, 15060, Note_on_c, 0, 63, 100
2, 15090, Note_on_c, 0, 63, 0
2, 15090, Note_on_c, 0, 61, 100
2, 15120, Note_on_c, 0, 61, 0
2, 15120, Note_on_c, 0, 60, 100
2, 15150, Note_on_c, 0, 60, 0
2, 15150, Note_on_c, 0, 67, 100
2, 15180, Note_on_c, 0, 67, 0
2, 15180, Note_on_c, 0, 65, 100
2, 15210, Note_on_c, 0, 65, 0
2, 15210, Note_on_c, 0, 67, 100
2, 15240, Note_on_c, 0, 67, 0
2, 15240, Note_on_c, 0, 68, 100
2, 15270, Note_on_c, 0, 68, 0
2, 15270, Note_on_c, 0, 67, 100
2, 15300, Note_on_c, 0, 67, 0
2, 15300, Note_on_c, 0, 65, 100
2, 15330, Note_on_c, 0, 65, 0
2, 15330, Note_on_c, 0, 72, 100
2, 15360, Note_on_c, 0, 72, 0
2, 15360, Note_on_c, 0, 63, 100
2, 15390, Note_on_c, 0, 63, 0
2, 15390, Note_on_c, 0, 62, 100
2, 15420, Note_on_c, 0, 62, 0
2, 15420, Note_on_c, 0, 63, 100
2, 15450, Note_on_c, 0, 63, 0
2, 15450, Note_on_c, 0, 60, 100
2, 15480, Note_on_c, 0, 60, 0
2, 15480, Note_on_c, 0, 62, 100
2, 15510, Note_on_c, 0, 62, 0
2, 15510, Note_on_c, 0, 58, 100
2, 15540, Note_on_c, 0, 58, 0
2, 15540, Note_on_c, 0, 57, 100
2, 15570, Note_on_c, 0, 57, 0
2, 15570, Note_on_c, 0, 58, 100
2, 15600, Note_on_c, 0, 58, 0
2, 15600, Note_on_c, 0, 60, 100
2, 15630, Note_on_c, 0, 60, 0
2, 15630, Note_on_c, 0, 58, 100
2, 15660, Note_on_c, 0, 58, 0
2, 15660, Note_on_c, 0, 56, 100
2, 15690, Note_on_c, 0, 56, 0
2, 15690, Note_on_c, 0, 65, 100
2, 15720, Note_on_c, 0, 65, 0
2, 15720, Note_on_c, 0, 56, 100
2, 15750, Note_on_c, 0, 56, 0
2, 15750, Note_on_c, 0, 55, 100
2, 15780, Note_on_c, 0, 55, 0
2, 15780, Note_on_c, 0, 56, 100
2, 15810, Note_on_c, 0, 56, 0
2, 15810, Note_on_c, 0, 65, 100
2, 15840, Note_on_c, 0, 65, 0
2, 15840, Note_on_c, 0, 55, 100
2, 15870, Note_on_c, 0, 55, 0
2, 15870, Note_on_c, 0, 63, 100
2, 15900, Note_on_c, 0, 63, 0
2, 15900, Note_on_c, 0, 62, 100
2, 15930, Note_on_c, 0, 62, 0
2, 15930, Note_on_c, 0, 60, 100
2, 15960, Note_on_c, 0, 60, 0
2, 15960, Note_on_c, 0, 58, 100
2, 15990, Note_on_c, 0, 58, 0
2, 15990, Note_on_c, 0, 56, 100
2, 16020, Note_on_c, 0, 56, 0
2, 16020, Note_on_c, 0, 55, 100
2, 16080, Note_on_c, 0, 55, 0
2, 16080, Note_on_c, 0, 56, 100
2, 16140, Note_on_c, 0, 56, 0
2, 16140, Note_on_c, 0, 53, 100
2, 16200, Note_on_c, 0, 53, 0
2, 16230, Note_on_c, 0, 51, 100
2, 16260, Note_on_c, 0, 51, 0
2, 16260, Note_on_c, 0, 50, 100
2, 16290, Note_on_c, 0, 50, 0
2, 16290, Note_on_c, 0, 51, 100
2, 16320, Note_on_c, 0, 51, 0
2, 16320, Note_on_c, 0, 53, 100
2, 16350, Note_on_c, 0, 53, 0
2, 16350, Note_on_c, 0, 51, 100
2, 16380, Note_on_c, 0, 51, 0
2, 16380, Note_on_c, 0, 55, 100
2, 16410, Note_on_c, 0, 55, 0
2, 16410, Note_on_c, 0, 51, 100
2, 16440, Note_on_c, 0, 51, 0
2, 16440, Note_on_c, 0, 50, 100
2, 16470, Note_on_c, 0, 50, 0
2, 16470, Note_on_c, 0, 51, 100
2, 16500, Note_on_c, 0, 51, 0
2, 16500, Note_on_c, 0, 56, 100
2, 16530, Note_on_c, 0, 56, 0
2, 16530, Note_on_c, 0, 51, 100
2, 16560, Note_on_c, 0, 51, 0
2, 16560, Note_on_c, 0, 58, 100
2, 16590, Note_on_c, 0, 58, 0
2, 16590, Note_on_c, 0, 51, 100
2, 16620, Note_on_c, 0, 51, 0
2, 16620, Note_on_c, 0, 50, 100
2, 16650, Note_on_c, 0, 50, 0
2, 16650, Note_on_c, 0, 51, 100
2, 16680, Note_on_c, 0, 51, 0
2, 16680, Note_on_c, 0, 60, 100
2, 16710, Note_on_c, 0, 60, 0
2, 16710, Note_on_c, 0, 51, 100
2, 16740, Note_on_c, 0, 51, 0
2, 16740, Note_on_c, 0, 61, 100
2, 16770, Note_on_c, 0, 61, 0
2, 16770, Note_on_c, 0, 58, 100
2, 16800, Note_on_c, 0, 58, 0
2, 16800, Note_on_c, 0, 56, 100
2, 16830, Note_on_c, 0, 56, 0
2, 16830, Note_on_c, 0, 55, 100
2, 16860, Note_on_c, 0, 55, 0
2, 16860, Note_on_c, 0, 53, 100
2, 16890, Note_on_c, 0, 53, 0
2, 16890, Note_on_c, 0, 51, 100
2, 16920, Note_on_c, 0, 51, 0
2, 16920, Note_on_c, 0, 60, 100
2, 16980, Note_on_c, 0, 60, 0
2, 16980, Note_on_c, 0, 65, 100
2, 17040, Note_on_c, 0, 65, 0
2, 17040, Note_on_c, 0, 62, 100
2, 17100, Note_on_c, 0, 62, 0
2, 17100, Note_on_c, 0, 63, 100
2, 17220, Note_on_c, 0, 63, 0
2, 17220, End_track
3, 0, Start_track
3, 0, MIDI_port, 0
3, 0, Title_t, "--------------------------------------"
3, 0, Program_c, 1, 24
3, 0, Control_c, 1, 7, 100
3, 0, Control_c, 1, 10, 84
3, 0, Note_on_c, 1, 39, 100
3, 120, Note_on_c, 1, 39, 0
3, 180, Note_on_c, 1, 51, 100
3, 300, Note_on_c, 1, 51, 0
3, 300, Note_on_c, 1, 50, 100
3, 360, Note_on_c, 1, 50, 0
3, 360, Note_on_c, 1, 48, 100
3, 480, Note_on_c, 1, 48, 0
3, 480, Note_on_c, 1, 46, 100
3, 540, Note_on_c, 1, 46, 0
3, 540, Note_on_c, 1, 44, 100
3, 600, Note_on_c, 1, 44, 0
3, 600, Note_on_c, 1, 41, 100
3, 660, Note_on_c, 1, 41, 0
3, 660, Note_on_c, 1, 46, 100
3, 720, Note_on_c, 1, 46, 0
3, 720, Note_on_c, 1, 39, 100
3, 780, Note_on_c, 1, 39, 0
3, 780, Note_on_c, 1, 41, 100
3, 840, Note_on_c, 1, 41, 0
3, 840, Note_on_c, 1, 43, 100
3, 900, Note_on_c, 1, 43, 0
3, 900, Note_on_c, 1, 44, 100
3, 960, Note_on_c, 1, 44, 0
3, 960, Note_on_c, 1, 46, 100
3, 1020, Note_on_c, 1, 46, 0
3, 1020, Note_on_c, 1, 34, 100
3, 1080, Note_on_c, 1, 34, 0
3, 1080, Note_on_c, 1, 39, 100
3, 1200, Note_on_c, 1, 39, 0
3, 1200, Note_on_c, 1, 38, 100
3, 1260, Note_on_c, 1, 38, 0
3, 1260, Note_on_c, 1, 36, 100
3, 1320, Note_on_c, 1, 36, 0
3, 1320, Note_on_c, 1, 39, 100
3, 1380, Note_on_c, 1, 39, 0
3, 1380, Note_on_c, 1, 36, 100
3, 1440, Note_on_c, 1, 36, 0
3, 1440, Note_on_c, 1, 41, 100
3, 1560, Note_on_c, 1, 41, 0
3, 1560, Note_on_c, 1, 39, 100
3, 1620, Note_on_c, 1, 39, 0
3, 1620, Note_on_c, 1, 38, 100
3, 1680, Note_on_c, 1, 38, 0
3, 1680, Note_on_c, 1, 41, 100
3, 1740, Note_on_c, 1, 41, 0
3, 1740, Note_on_c, 1, 38, 100
3, 1800, Note_on_c, 1, 38, 0
3, 1800, Note_on_c, 1, 43, 100
3, 1920, Note_on_c, 1, 43, 0
3, 1920, Note_on_c, 1, 41, 100
3, 1980, Note_on_c, 1, 41, 0
3, 1980, Note_on_c, 1, 39, 100
3, 2100, Note_on_c, 1, 39, 0
3, 2160, Note_on_c, 1, 51, 100
3, 2220, Note_on_c, 1, 51, 0
3, 2220, Note_on_c, 1, 51, 100
3, 2280, Note_on_c, 1, 51, 0
3, 2280, Note_on_c, 1, 51, 100
3, 2340, Note_on_c, 1, 51, 0
3, 2340, Note_on_c, 1, 48, 100
3, 2400, Note_on_c, 1, 48, 0
3, 2400, Note_on_c, 1, 48, 100
3, 2460, Note_on_c, 1, 48, 0
3, 2460, Note_on_c, 1, 48, 100
3, 2520, Note_on_c, 1, 48, 0
3, 2520, Note_on_c, 1, 50, 100
3, 2580, Note_on_c, 1, 50, 0
3, 2580, Note_on_c, 1, 50, 100
3, 2640, Note_on_c, 1, 50, 0
3, 2640, Note_on_c, 1, 50, 100
3, 2700, Note_on_c, 1, 50, 0
3, 2700, Note_on_c, 1, 46, 100
3, 2760, Note_on_c, 1, 46, 0
3, 2760, Note_on_c, 1, 46, 100
3, 2820, Note_on_c, 1, 46, 0
3, 2820, Note_on_c, 1, 46, 100
3, 2880, Note_on_c, 1, 46, 0
3, 2880, Note_on_c, 1, 48, 100
3, 2940, Note_on_c, 1, 48, 0
3, 2940, Note_on_c, 1, 48, 100
3, 3000, Note_on_c, 1, 48, 0
3, 3000, Note_on_c, 1, 48, 100
3, 3060, Note_on_c, 1, 48, 0
3, 3060, Note_on_c, 1, 45, 100
3, 3120, Note_on_c, 1, 45, 0
3, 3120, Note_on_c, 1, 45, 100
3, 3180, Note_on_c, 1, 45, 0
3, 3180, Note_on_c, 1, 45, 100
3, 3240, Note_on_c, 1, 45, 0
3, 3240, Note_on_c, 1, 46, 100
3, 3300, Note_on_c, 1, 46, 0
3, 3300, Note_on_c, 1, 50, 100
3, 3360, Note_on_c, 1, 50, 0
3, 3360, Note_on_c, 1, 53, 100
3, 3420, Note_on_c, 1, 53, 0
3, 3420, Note_on_c, 1, 58, 100
3, 3540, Note_on_c, 1, 58, 0
3, 3540, Note_on_c, 1, 57, 100
3, 3600, Note_on_c, 1, 57, 0
3, 3600, Note_on_c, 1, 55, 100
3, 3720, Note_on_c, 1, 55, 0
3, 3720, Note_on_c, 1, 53, 100
3, 3780, Note_on_c, 1, 53, 0
3, 3780, Note_on_c, 1, 51, 100
3, 3840, Note_on_c, 1, 51, 0
3, 3840, Note_on_c, 1, 48, 100
3, 3900, Note_on_c, 1, 48, 0
3, 3900, Note_on_c, 1, 53, 100
3, 3960, Note_on_c, 1, 53, 0
3, 3960, Note_on_c, 1, 46, 100
3, 4080, Note_on_c, 1, 46, 0
3, 4140, Note_on_c, 1, 51, 100
3, 4260, Note_on_c, 1, 51, 0
3, 4320, Note_on_c, 1, 45, 100
3, 4440, Note_on_c, 1, 45, 0
3, 4500, Note_on_c, 1, 46, 100
3, 4560, Note_on_c, 1, 46, 0
3, 4560, Note_on_c, 1, 39, 100
3, 4620, Note_on_c, 1, 39, 0
3, 4620, Note_on_c, 1, 41, 100
3, 4680, Note_on_c, 1, 41, 0
3, 4680, Note_on_c, 1, 34, 100
3, 4800, Note_on_c, 1, 34, 0
3, 4920, Note_on_c, 1, 46, 100
3, 4980, Note_on_c, 1, 46, 0
3, 4980, Note_on_c, 1, 48, 100
3, 5040, Note_on_c, 1, 48, 0
3, 5040, Note_on_c, 1, 50, 100
3, 5160, Note_on_c, 1, 50, 0
3, 5280, Note_on_c, 1, 46, 100
3, 5340, Note_on_c, 1, 46, 0
3, 5340, Note_on_c, 1, 50, 100
3, 5400, Note_on_c, 1, 50, 0
3, 5400, Note_on_c, 1, 51, 100
3, 5460, Note_on_c, 1, 51, 0
3, 5460, Note_on_c, 1, 48, 100
3, 5520, Note_on_c, 1, 48, 0
3, 5520, Note_on_c, 1, 53, 100
3, 5580, Note_on_c, 1, 53, 0
3, 5580, Note_on_c, 1, 46, 100
3, 5760, Note_on_c, 1, 46, 0
3, 5760, Note_on_c, 1, 34, 100
3, 5880, Note_on_c, 1, 34, 0
3, 6000, Note_on_c, 1, 38, 100
3, 6060, Note_on_c, 1, 38, 0
3, 6060, Note_on_c, 1, 34, 100
3, 6120, Note_on_c, 1, 34, 0
3, 6120, Note_on_c, 1, 36, 100
3, 6180, Note_on_c, 1, 36, 0
3, 6180, Note_on_c, 1, 38, 100
3, 6240, Note_on_c, 1, 38, 0
3, 6240, Note_on_c, 1, 34, 100
3, 6300, Note_on_c, 1, 34, 0
3, 6300, Note_on_c, 1, 39, 100
3, 6420, Note_on_c, 1, 39, 0
3, 6450, Note_on_c, 1, 41, 100
3, 6480, Note_on_c, 1, 41, 0
3, 6480, Note_on_c, 1, 43, 100
3, 6600, Note_on_c, 1, 43, 0
3, 6600, Note_on_c, 1, 44, 100
3, 6660, Note_on_c, 1, 44, 0
3, 6660, Note_on_c, 1, 39, 100
3, 6720, Note_on_c, 1, 39, 0
3, 6720, Note_on_c, 1, 43, 100
3, 6780, Note_on_c, 1, 43, 0
3, 6780, Note_on_c, 1, 39, 100
3, 6840, Note_on_c, 1, 39, 0
3, 6840, Note_on_c, 1, 41, 100
3, 6900, Note_on_c, 1, 41, 0
3, 6900, Note_on_c, 1, 43, 100
3, 6960, Note_on_c, 1, 43, 0
3, 6960, Note_on_c, 1, 39, 100
3, 7020, Note_on_c, 1, 39, 0
3, 7020, Note_on_c, 1, 44, 100
3, 7140, Note_on_c, 1, 44, 0
3, 7200, Note_on_c, 1, 53, 100
3, 7320, Note_on_c, 1, 53, 0
3, 7380, Note_on_c, 1, 51, 100
3, 7500, Note_on_c, 1, 51, 0
3, 7560, Note_on_c, 1, 49, 100
3, 7680, Note_on_c, 1, 49, 0
3, 7740, Note_on_c, 1, 48, 100
3, 7830, Note_on_c, 1, 48, 0
3, 7830, Note_on_c, 1, 46, 100
3, 7860, Note_on_c, 1, 46, 0
3, 7860, Note_on_c, 1, 44, 100
3, 7890, Note_on_c, 1, 44, 0
3, 7890, Note_on_c, 1, 43, 100
3, 7920, Note_on_c, 1, 43, 0
3, 7920, Note_on_c, 1, 41, 75
3, 7980, Note_on_c, 1, 41, 0
3, 8040, Note_on_c, 1, 53, 75
3, 8100, Note_on_c, 1, 53, 0
3, 8100, Note_on_c, 1, 51, 75
3, 8160, Note_on_c, 1, 51, 0
3, 8220, Note_on_c, 1, 39, 75
3, 8280, Note_on_c, 1, 39, 0
3, 8280, Note_on_c, 1, 37, 75
3, 8340, Note_on_c, 1, 37, 0
3, 8400, Note_on_c, 1, 49, 75
3, 8460, Note_on_c, 1, 49, 0
3, 8460, Note_on_c, 1, 48, 75
3, 8550, Note_on_c, 1, 48, 0
3, 8550, Note_on_c, 1, 46, 75
3, 8580, Note_on_c, 1, 46, 0
3, 8580, Note_on_c, 1, 44, 75
3, 8610, Note_on_c, 1, 44, 0
3, 8610, Note_on_c, 1, 43, 75
3, 8640, Note_on_c, 1, 43, 0
3, 8640, Note_on_c, 1, 41, 100
3, 8700, Note_on_c, 1, 41, 0
3, 8760, Note_on_c, 1, 53, 100
3, 8820, Note_on_c, 1, 53, 0
3, 8820, Note_on_c, 1, 49, 100
3, 8880, Note_on_c, 1, 49, 0
3, 8940, Note_on_c, 1, 51, 100
3, 9000, Note_on_c, 1, 51, 0
3, 9000, Note_on_c, 1, 48, 100
3, 9060, Note_on_c, 1, 48, 0
3, 9120, Note_on_c, 1, 49, 100
3, 9180, Note_on_c, 1, 49, 0
3, 9180, Note_on_c, 1, 46, 100
3, 9240, Note_on_c, 1, 46, 0
3, 9240, Note_on_c, 1, 48, 100
3, 9300, Note_on_c, 1, 48, 0
3, 9300, Note_on_c, 1, 46, 100
3, 9360, Note_on_c, 1, 46, 0
3, 9360, Note_on_c, 1, 44, 100
3, 9420, Note_on_c, 1, 44, 0
3, 9420, Note_on_c, 1, 43, 100
3, 9480, Note_on_c, 1, 43, 0
3, 9480, Note_on_c, 1, 41, 100
3, 9540, Note_on_c, 1, 41, 0
3, 9540, Note_on_c, 1, 49, 100
3, 9600, Note_on_c, 1, 49, 0
3, 9600, Note_on_c, 1, 48, 100
3, 9660, Note_on_c, 1, 48, 0
3, 9660, Note_on_c, 1, 46, 100
3, 9720, Note_on_c, 1, 46, 0
3, 9720, Note_on_c, 1, 48, 100
3, 9780, Note_on_c, 1, 48, 0
3, 9780, Note_on_c, 1, 46, 100
3, 9840, Note_on_c, 1, 46, 0
3, 9840, Note_on_c, 1, 48, 100
3, 9900, Note_on_c, 1, 48, 0
3, 9900, Note_on_c, 1, 41, 100
3, 9960, Note_on_c, 1, 41, 0
3, 9960, Note_on_c, 1, 44, 100
3, 10020, Note_on_c, 1, 44, 0
3, 10020, Note_on_c, 1, 48, 100
3, 10080, Note_on_c, 1, 48, 0
3, 10080, Note_on_c, 1, 41, 100
3, 10140, Note_on_c, 1, 41, 0
3, 10260, Note_on_c, 1, 43, 100
3, 10320, Note_on_c, 1, 43, 0
3, 10440, Note_on_c, 1, 45, 100
3, 10500, Note_on_c, 1, 45, 0
3, 10620, Note_on_c, 1, 46, 100
3, 10680, Note_on_c, 1, 46, 0
3, 10680, Note_on_c, 1, 38, 100
3, 10740, Note_on_c, 1, 38, 0
3, 10740, Note_on_c, 1, 41, 100
3, 10800, Note_on_c, 1, 41, 0
3, 10800, Note_on_c, 1, 34, 100
3, 10920, Note_on_c, 1, 34, 0
3, 10980, Note_on_c, 1, 36, 100
3, 11100, Note_on_c, 1, 36, 0
3, 11160, Note_on_c, 1, 38, 100
3, 11280, Note_on_c, 1, 38, 0
3, 11340, Note_on_c, 1, 39, 100
3, 11400, Note_on_c, 1, 39, 0
3, 11400, Note_on_c, 1, 43, 100
3, 11460, Note_on_c, 1, 43, 0
3, 11460, Note_on_c, 1, 46, 100
3, 11520, Note_on_c, 1, 46, 0
3, 11520, Note_on_c, 1, 51, 100
3, 11640, Note_on_c, 1, 51, 0
3, 11700, Note_on_c, 1, 50, 100
3, 11820, Note_on_c, 1, 50, 0
3, 11880, Note_on_c, 1, 48, 100
3, 12000, Note_on_c, 1, 48, 0
3, 12060, Note_on_c, 1, 46, 100
3, 12150, Note_on_c, 1, 46, 0
3, 12150, Note_on_c, 1, 44, 100
3, 12180, Note_on_c, 1, 44, 0
3, 12180, Note_on_c, 1, 43, 100
3, 12210, Note_on_c, 1, 43, 0
3, 12210, Note_on_c, 1, 41, 100
3, 12240, Note_on_c, 1, 41, 0
3, 12240, Note_on_c, 1, 39, 75
3, 12300, Note_on_c, 1, 39, 0
3, 12360, Note_on_c, 1, 51, 75
3, 12420, Note_on_c, 1, 51, 0
3, 12420, Note_on_c, 1, 50, 75
3, 12480, Note_on_c, 1, 50, 0
3, 12540, Note_on_c, 1, 38, 75
3, 12600, Note_on_c, 1, 38, 0
3, 12600, Note_on_c, 1, 36, 75
3, 12660, Note_on_c, 1, 36, 0
3, 12720, Note_on_c, 1, 48, 75
3, 12780, Note_on_c, 1, 48, 0
3, 12780, Note_on_c, 1, 46, 75
3, 12870, Note_on_c, 1, 46, 0
3, 12870, Note_on_c, 1, 48, 75
3, 12900, Note_on_c, 1, 48, 0
3, 12900, Note_on_c, 1, 46, 75
3, 12930, Note_on_c, 1, 46, 0
3, 12930, Note_on_c, 1, 44, 75
3, 12960, Note_on_c, 1, 44, 0
3, 12960, Note_on_c, 1, 43, 80
3, 13020, Note_on_c, 1, 43, 0
3, 13080, Note_on_c, 1, 39, 100
3, 13140, Note_on_c, 1, 39, 0
3, 13140, Note_on_c, 1, 44, 100
3, 13200, Note_on_c, 1, 44, 0
3, 13260, Note_on_c, 1, 48, 100
3, 13320, Note_on_c, 1, 48, 0
3, 13320, Note_on_c, 1, 41, 100
3, 13380, Note_on_c, 1, 41, 0
3, 13440, Note_on_c, 1, 53, 100
3, 13500, Note_on_c, 1, 53, 0
3, 13500, Note_on_c, 1, 58, 100
3, 13560, Note_on_c, 1, 58, 0
3, 13620, Note_on_c, 1, 53, 100
3, 13680, Note_on_c, 1, 53, 0
3, 13680, Note_on_c, 1, 55, 100
3, 13740, Note_on_c, 1, 55, 0
3, 13800, Note_on_c, 1, 46, 100
3, 13860, Note_on_c, 1, 46, 0
3, 13860, Note_on_c, 1, 48, 100
3, 13920, Note_on_c, 1, 48, 0
3, 13980, Note_on_c, 1, 43, 100
3, 14040, Note_on_c, 1, 43, 0
3, 14040, Note_on_c, 1, 44, 100
3, 14100, Note_on_c, 1, 44, 0
3, 14100, Note_on_c, 1, 41, 100
3, 14160, Note_on_c, 1, 41, 0
3, 14160, Note_on_c, 1, 39, 100
3, 14220, Note_on_c, 1, 39, 0
3, 14220, Note_on_c, 1, 46, 100
3, 14280, Note_on_c, 1, 46, 0
3, 14280, Note_on_c, 1, 48, 100
3, 14340, Note_on_c, 1, 48, 0
3, 14340, Note_on_c, 1, 50, 100
3, 14400, Note_on_c, 1, 50, 0
3, 14400, Note_on_c, 1, 51, 100
3, 14460, Note_on_c, 1, 51, 0
3, 14460, Note_on_c, 1, 50, 100
3, 14520, Note_on_c, 1, 50, 0
3, 14520, Note_on_c, 1, 48, 100
3, 14580, Note_on_c, 1, 48, 0
3, 14580, Note_on_c, 1, 50, 100
3, 14640, Note_on_c, 1, 50, 0
3, 14640, Note_on_c, 1, 48, 100
3, 14700, Note_on_c, 1, 48, 0
3, 14700, Note_on_c, 1, 46, 100
3, 14760, Note_on_c, 1, 46, 0
3, 14760, Note_on_c, 1, 48, 100
3, 14820, Note_on_c, 1, 48, 0
3, 14820, Note_on_c, 1, 46, 100
3, 14880, Note_on_c, 1, 46, 0
3, 14880, Note_on_c, 1, 44, 100
3, 14940, Note_on_c, 1, 44, 0
3, 14940, Note_on_c, 1, 46, 100
3, 15000, Note_on_c, 1, 46, 0
3, 15000, Note_on_c, 1, 44, 100
3, 15060, Note_on_c, 1, 44, 0
3, 15060, Note_on_c, 1, 43, 100
3, 15120, Note_on_c, 1, 43, 0
3, 15120, Note_on_c, 1, 44, 100
3, 15180, Note_on_c, 1, 44, 0
3, 15180, Note_on_c, 1, 44, 100
3, 15240, Note_on_c, 1, 44, 0
3, 15240, Note_on_c, 1, 44, 100
3, 15300, Note_on_c, 1, 44, 0
3, 15300, Note_on_c, 1, 45, 100
3, 15360, Note_on_c, 1, 45, 0
3, 15360, Note_on_c, 1, 45, 100
3, 15420, Note_on_c, 1, 45, 0
3, 15420, Note_on_c, 1, 45, 100
3, 15480, Note_on_c, 1, 45, 0
3, 15480, Note_on_c, 1, 46, 100
3, 15540, Note_on_c, 1, 46, 0
3, 15540, Note_on_c, 1, 46, 100
3, 15600, Note_on_c, 1, 46, 0
3, 15600, Note_on_c, 1, 46, 100
3, 15660, Note_on_c, 1, 46, 0
3, 15660, Note_on_c, 1, 50, 100
3, 15720, Note_on_c, 1, 50, 0
3, 15720, Note_on_c, 1, 50, 100
3, 15780, Note_on_c, 1, 50, 0
3, 15780, Note_on_c, 1, 50, 100
3, 15840, Note_on_c, 1, 50, 0
3, 15840, Note_on_c, 1, 51, 100
3, 15900, Note_on_c, 1, 51, 0
3, 15900, Note_on_c, 1, 43, 100
3, 15960, Note_on_c, 1, 43, 0
3, 15960, Note_on_c, 1, 44, 100
3, 16020, Note_on_c, 1, 44, 0
3, 16020, Note_on_c, 1, 46, 100
3, 16080, Note_on_c, 1, 46, 0
3, 16080, Note_on_c, 1, 44, 100
3, 16140, Note_on_c, 1, 44, 0
3, 16140, Note_on_c, 1, 46, 100
3, 16200, Note_on_c, 1, 46, 0
3, 16200, Note_on_c, 1, 39, 100
3, 16380, Note_on_c, 1, 39, 0
3, 16440, Note_on_c, 1, 39, 100
3, 16500, Note_on_c, 1, 39, 0
3, 16500, Note_on_c, 1, 41, 100
3, 16560, Note_on_c, 1, 41, 0
3, 16560, Note_on_c, 1, 43, 100
3, 16680, Note_on_c, 1, 43, 0
3, 16800, Note_on_c, 1, 39, 100
3, 16860, Note_on_c, 1, 39, 0
3, 16860, Note_on_c, 1, 43, 100
3, 16920, Note_on_c, 1, 43, 0
3, 16920, Note_on_c, 1, 44, 100
3, 16980, Note_on_c, 1, 44, 0
3, 16980, Note_on_c, 1, 41, 100
3, 17040, Note_on_c, 1, 41, 0
3, 17040, Note_on_c, 1, 46, 100
3, 17100, Note_on_c, 1, 46, 0
3, 17100, Note_on_c, 1, 39, 100
3, 17220, Note_on_c, 1, 39, 0
3, 17220, End_track
4, 0, Start_track
4, 0, MIDI_port, 0
4, 0, Title_t, "Johann Sebastian Bach   (1685-1750)"
4, 0, Program_c, 2, 24
4, 0, Control_c, 2, 7, 100
4, 0, Control_c, 2, 10, 44
4, 4560, Note_on_c, 2, 60, 100
4, 4620, Note_on_c, 2, 60, 0
4, 4620, Note_on_c, 2, 57, 100
4, 4680, Note_on_c, 2, 57, 0
4, 5580, Note_on_c, 2, 65, 100
4, 5580, Note_on_c, 2, 62, 100
4, 5760, Note_on_c, 2, 62, 0
4, 5760, Note_on_c, 2, 65, 0
4, 16980, Note_on_c, 2, 56, 100
4, 17040, Note_on_c, 2, 56, 0
4, 17040, Note_on_c, 2, 53, 100
4, 17100, Note_on_c, 2, 53, 0
4, 17100, Note_on_c, 2, 55, 100
4, 17220, Note_on_c, 2, 55, 0
4, 17220, End_track
5, 0, Start_track
5, 0, MIDI_port, 0
5, 0, Title_t, "Prelude, Fugue, and Allegro - BWV 998"
5, 0, End_track
6, 0, Start_track
6, 0, MIDI_port, 0
6, 0, Title_t, "3. Allegro"
6, 0, End_track
7, 0, Start_track
7, 0, MIDI_port, 0
7, 0, Title_t, "--------------------------------------"
7, 0, End_track
8, 0, Start_track
8, 0, MIDI_port, 0
8, 0, Title_t, "Sequenced with Cakewalk Pro Audio by"
8, 0, End_track
9, 0, Start_track
9, 0, MIDI_port, 0
9, 0, Title_t, "David J. Grossman"
9, 0, End_track
10, 0, Start_track
10, 0, MIDI_port, 0
10, 0, Title_t, "( freely distributable )"
10, 0, End_track
11, 0, Start_track
11, 0, MIDI_port, 0
11, 0, Title_t, "--------------------------------------"
11, 0, End_track
12, 0, Start_track
12, 0, MIDI_port, 0
12, 0, Title_t, "e-mail: dave@unpronounceable.com"
12, 0, End_track
13, 0, Start_track
13, 0, MIDI_port, 0
13, 0, Title_t, "visit Dave's J.S. Bach Page at:"
13, 0, End_track
14, 0, Start_track
14, 0, MIDI_port, 0
14, 0, Title_t, "http://www.unpronounceable.com/bach"
14, 0, End_track
15, 0, Start_track
15, 0, MIDI_port, 0
15, 0, Title_t, "--------------------------------------"
15, 0, End_track
16, 0, Start_track
16, 0, MIDI_port, 0
16, 0, Title_t, "Original Filename: pfa-3alg.mid"
16, 0, End_track
17, 0, Start_track
17, 0, MIDI_port, 0
17, 0, Title_t, "Last Modified: 12-9-96"
17, 0, End_track
0, 0, End_of_file
