0, 0, Header, 1, 5, 480
1, 0, Start_track
1, 0, Text_t, "N¡ 7 Canon a 4"
1, 0, SMPTE_offset, 32, 0, 0, 0, 0
1, 0, Time_signature, 4, 2, 24, 8
1, 0, Tempo, 441176
1, 0, End_track
2, 0, Start_track
2, 0, Text_t, "Voce 1a "
2, 480, Note_on_c, 0, 67, 64
2, 720, Note_off_c, 0, 67, 64
2, 720, Note_on_c, 0, 69, 64
2, 960, Note_off_c, 0, 69, 64
2, 960, Note_on_c, 0, 70, 64
2, 1200, Note_off_c, 0, 70, 64
2, 1200, Note_on_c, 0, 72, 64
2, 1440, Note_off_c, 0, 72, 64
2, 1440, Note_on_c, 0, 74, 64
2, 1680, Note_off_c, 0, 74, 64
2, 1680, Note_on_c, 0, 75, 64
2, 1920, Note_off_c, 0, 75, 64
2, 1920, Note_on_c, 0, 66, 64
2, 2400, Note_off_c, 0, 66, 64
2, 3360, Note_on_c, 0, 74, 64
2, 4080, Note_off_c, 0, 74, 64
2, 4080, Note_on_c, 0, 73, 64
2, 4320, Note_off_c, 0, 73, 64
2, 4320, Note_on_c, 0, 69, 64
2, 4560, Note_off_c, 0, 69, 64
2, 4560, Note_on_c, 0, 71, 64
2, 4800, Note_off_c, 0, 71, 64
2, 4800, Note_on_c, 0, 72, 64
2, 6000, Note_off_c, 0, 72, 64
2, 6000, Note_on_c, 0, 71, 64
2, 6240, Note_off_c, 0, 71, 64
2, 6240, Note_on_c, 0, 67, 64
2, 6480, Note_off_c, 0, 67, 64
2, 6480, Note_on_c, 0, 69, 64
2, 6720, Note_off_c, 0, 69, 64
2, 6720, Note_on_c, 0, 70, 64
2, 7920, Note_off_c, 0, 70, 64
2, 7920, Note_on_c, 0, 69, 64
2, 8160, Note_off_c, 0, 69, 64
2, 8160, Note_on_c, 0, 68, 64
2, 8400, Note_off_c, 0, 68, 64
2, 8400, Note_on_c, 0, 69, 64
2, 8640, Note_off_c, 0, 69, 64
2, 8640, Note_on_c, 0, 68, 64
2, 8880, Note_off_c, 0, 68, 64
2, 8880, Note_on_c, 0, 67, 64
2, 9120, Note_off_c, 0, 67, 64
2, 9120, Note_on_c, 0, 66, 64
2, 9360, Note_off_c, 0, 66, 64
2, 9360, Note_on_c, 0, 67, 64
2, 9600, Note_off_c, 0, 67, 64
2, 9600, Note_on_c, 0, 66, 64
2, 9840, Note_off_c, 0, 66, 64
2, 9840, Note_on_c, 0, 64, 64
2, 10080, Note_off_c, 0, 64, 64
2, 10080, Note_on_c, 0, 62, 64
2, 10320, Note_off_c, 0, 62, 64
2, 10320, Note_on_c, 0, 63, 64
2, 10560, Note_off_c, 0, 63, 64
2, 10560, Note_on_c, 0, 62, 64
2, 10800, Note_off_c, 0, 62, 64
2, 10800, Note_on_c, 0, 66, 64
2, 11040, Note_off_c, 0, 66, 64
2, 11040, Note_on_c, 0, 69, 64
2, 11280, Note_off_c, 0, 69, 64
2, 11280, Note_on_c, 0, 72, 64
2, 11520, Note_off_c, 0, 72, 64
2, 11520, Note_on_c, 0, 70, 64
2, 11760, Note_off_c, 0, 70, 64
2, 11760, Note_on_c, 0, 74, 64
2, 12000, Note_off_c, 0, 74, 64
2, 12000, Note_on_c, 0, 78, 64
2, 12240, Note_off_c, 0, 78, 64
2, 12240, Note_on_c, 0, 79, 64
2, 12480, Note_off_c, 0, 79, 64
2, 12480, Note_on_c, 0, 69, 64
2, 12720, Note_off_c, 0, 69, 64
2, 12720, Note_on_c, 0, 75, 64
2, 12960, Note_off_c, 0, 75, 64
2, 12960, Note_on_c, 0, 74, 64
2, 13200, Note_off_c, 0, 74, 64
2, 13200, Note_on_c, 0, 72, 64
2, 13440, Note_off_c, 0, 72, 64
2, 13440, Note_on_c, 0, 70, 64
2, 13560, Note_off_c, 0, 70, 64
2, 13560, Note_on_c, 0, 69, 64
2, 13680, Note_off_c, 0, 69, 64
2, 13680, Note_on_c, 0, 67, 64
2, 13800, Note_off_c, 0, 67, 64
2, 13800, Note_on_c, 0, 66, 64
2, 13920, Note_off_c, 0, 66, 64
2, 13920, Note_on_c, 0, 67, 64
2, 14040, Note_off_c, 0, 67, 64
2, 14040, Note_on_c, 0, 79, 64
2, 14160, Note_off_c, 0, 79, 64
2, 14160, Note_on_c, 0, 77, 64
2, 14280, Note_off_c, 0, 77, 64
2, 14280, Note_on_c, 0, 75, 64
2, 14400, Note_off_c, 0, 75, 64
2, 14400, Note_on_c, 0, 74, 64
2, 14520, Note_off_c, 0, 74, 64
2, 14520, Note_on_c, 0, 72, 64
2, 14640, Note_off_c, 0, 72, 64
2, 14640, Note_on_c, 0, 70, 64
2, 14760, Note_off_c, 0, 70, 64
2, 14760, Note_on_c, 0, 69, 64
2, 14880, Note_off_c, 0, 69, 64
2, 14880, Note_on_c, 0, 67, 64
2, 15360, Note_off_c, 0, 67, 64
2, 15600, Note_on_c, 0, 69, 64
2, 15840, Note_off_c, 0, 69, 64
2, 15840, Note_on_c, 0, 70, 64
2, 16080, Note_off_c, 0, 70, 64
2, 16080, Note_on_c, 0, 72, 64
2, 16320, Note_off_c, 0, 72, 64
2, 16320, Note_on_c, 0, 74, 64
2, 16560, Note_off_c, 0, 74, 64
2, 16560, Note_on_c, 0, 77, 64
2, 16800, Note_off_c, 0, 77, 64
2, 16800, Note_on_c, 0, 76, 64
2, 17040, Note_off_c, 0, 76, 64
2, 17040, Note_on_c, 0, 79, 64
2, 17280, Note_off_c, 0, 79, 64
2, 17280, Note_on_c, 0, 77, 64
2, 17520, Note_off_c, 0, 77, 64
2, 17520, Note_on_c, 0, 76, 64
2, 17640, Note_off_c, 0, 76, 64
2, 17640, Note_on_c, 0, 74, 64
2, 17760, Note_off_c, 0, 74, 64
2, 17760, Note_on_c, 0, 73, 64
2, 18240, Note_off_c, 0, 73, 64
2, 18480, Note_on_c, 0, 75, 64
2, 18720, Note_off_c, 0, 75, 64
2, 18720, Note_on_c, 0, 74, 64
2, 18960, Note_off_c, 0, 74, 64
2, 18960, Note_on_c, 0, 77, 64
2, 19200, Note_off_c, 0, 77, 64
2, 19200, Note_on_c, 0, 75, 64
2, 19440, Note_off_c, 0, 75, 64
2, 19440, Note_on_c, 0, 74, 64
2, 19560, Note_off_c, 0, 74, 64
2, 19560, Note_on_c, 0, 72, 64
2, 19680, Note_off_c, 0, 72, 64
2, 19680, Note_on_c, 0, 71, 64
2, 20160, Note_off_c, 0, 71, 64
2, 20400, Note_on_c, 0, 74, 64
2, 20640, Note_off_c, 0, 74, 64
2, 20640, Note_on_c, 0, 73, 64
2, 20880, Note_off_c, 0, 73, 64
2, 20880, Note_on_c, 0, 76, 64
2, 21120, Note_off_c, 0, 76, 64
2, 21120, Note_on_c, 0, 74, 64
2, 21360, Note_off_c, 0, 74, 64
2, 21360, Note_on_c, 0, 72, 64
2, 21600, Note_off_c, 0, 72, 64
2, 21600, Note_on_c, 0, 71, 64
2, 21840, Note_off_c, 0, 71, 64
2, 21840, Note_on_c, 0, 74, 64
2, 22080, Note_off_c, 0, 74, 64
2, 22080, Note_on_c, 0, 72, 64
2, 22320, Note_off_c, 0, 72, 64
2, 22320, Note_on_c, 0, 71, 64
2, 22560, Note_off_c, 0, 71, 64
2, 22560, Note_on_c, 0, 72, 64
2, 23280, Note_off_c, 0, 72, 64
2, 23280, Note_on_c, 0, 67, 64
2, 23520, Note_off_c, 0, 67, 64
2, 23520, Note_on_c, 0, 66, 64
2, 23760, Note_off_c, 0, 66, 64
2, 23760, Note_on_c, 0, 67, 64
2, 24000, Note_off_c, 0, 67, 64
2, 24000, Note_on_c, 0, 69, 64
2, 24240, Note_off_c, 0, 69, 64
2, 24240, Note_on_c, 0, 62, 64
2, 24480, Note_off_c, 0, 62, 64
2, 24480, Note_on_c, 0, 74, 64
2, 25440, Note_off_c, 0, 74, 64
2, 25440, Note_on_c, 0, 72, 64
2, 25680, Note_off_c, 0, 72, 64
2, 25680, Note_on_c, 0, 70, 64
2, 25920, Note_off_c, 0, 70, 64
2, 25920, Note_on_c, 0, 72, 64
2, 26400, Note_off_c, 0, 72, 64
2, 26400, Note_on_c, 0, 70, 64
2, 26640, Note_off_c, 0, 70, 64
2, 26640, Note_on_c, 0, 69, 64
2, 26880, Note_off_c, 0, 69, 64
2, 26880, Note_on_c, 0, 70, 64
2, 27000, Note_off_c, 0, 70, 64
2, 27000, Note_on_c, 0, 72, 64
2, 27120, Note_off_c, 0, 72, 64
2, 27120, Note_on_c, 0, 70, 64
2, 27240, Note_off_c, 0, 70, 64
2, 27240, Note_on_c, 0, 69, 64
2, 27360, Note_off_c, 0, 69, 64
2, 27360, Note_on_c, 0, 67, 64
2, 28080, Note_off_c, 0, 67, 64
2, 28080, Note_on_c, 0, 69, 64
2, 28320, Note_off_c, 0, 69, 64
2, 28320, Note_on_c, 0, 70, 64
2, 28560, Note_off_c, 0, 70, 64
2, 28560, Note_on_c, 0, 72, 64
2, 28800, Note_off_c, 0, 72, 64
2, 28800, Note_on_c, 0, 74, 64
2, 29040, Note_off_c, 0, 74, 64
2, 29040, Note_on_c, 0, 75, 64
2, 29280, Note_off_c, 0, 75, 64
2, 29280, Note_on_c, 0, 74, 64
2, 29520, Note_off_c, 0, 74, 64
2, 29520, Note_on_c, 0, 72, 64
2, 29760, Note_off_c, 0, 72, 64
2, 29760, Note_on_c, 0, 70, 64
2, 30000, Note_off_c, 0, 70, 64
2, 30000, Note_on_c, 0, 69, 64
2, 30240, Note_off_c, 0, 69, 64
2, 30240, Note_on_c, 0, 67, 64
2, 30480, Note_off_c, 0, 67, 64
2, 30480, Note_on_c, 0, 70, 64
2, 30720, Note_off_c, 0, 70, 64
2, 30720, Note_on_c, 0, 69, 64
2, 31920, Note_off_c, 0, 69, 64
2, 31920, Note_on_c, 0, 67, 64
2, 32160, Note_off_c, 0, 67, 64
2, 32160, Note_on_c, 0, 66, 64
2, 32400, Note_off_c, 0, 66, 64
2, 32400, Note_on_c, 0, 69, 64
2, 32640, Note_off_c, 0, 69, 64
2, 32640, Note_on_c, 0, 67, 64
2, 33840, Note_off_c, 0, 67, 64
2, 33840, Note_on_c, 0, 65, 64
2, 34080, Note_off_c, 0, 65, 64
2, 34080, Note_on_c, 0, 64, 64
2, 34320, Note_off_c, 0, 64, 64
2, 34320, Note_on_c, 0, 67, 64
2, 34560, Note_off_c, 0, 67, 64
2, 34560, Note_on_c, 0, 65, 64
2, 35040, Note_off_c, 0, 65, 64
2, 35280, Note_on_c, 0, 65, 64
2, 35520, Note_off_c, 0, 65, 64
2, 35520, Note_on_c, 0, 72, 64
2, 36000, Note_off_c, 0, 72, 64
2, 36240, Note_on_c, 0, 75, 64
2, 36480, Note_off_c, 0, 75, 64
2, 36480, Note_on_c, 0, 74, 64
2, 36960, Note_off_c, 0, 74, 64
2, 37200, Note_on_c, 0, 67, 64
2, 37440, Note_off_c, 0, 67, 64
2, 37440, Note_on_c, 0, 66, 64
2, 37920, Note_off_c, 0, 66, 64
2, 38160, Note_on_c, 0, 62, 64
2, 38400, Note_off_c, 0, 62, 64
2, 38400, Note_on_c, 0, 67, 64
2, 38880, Note_off_c, 0, 67, 64
2, 38880, Note_on_c, 0, 63, 64
2, 39360, Note_off_c, 0, 63, 64
2, 39360, Note_on_c, 0, 60, 64
2, 39840, Note_off_c, 0, 60, 64
2, 39840, Note_on_c, 0, 62, 64
2, 40320, Note_off_c, 0, 62, 64
2, 40320, Note_on_c, 0, 67, 64
2, 40560, Note_off_c, 0, 67, 64
2, 40560, Note_on_c, 0, 79, 64
2, 40680, Note_off_c, 0, 79, 64
2, 40680, Note_on_c, 0, 81, 64
2, 40800, Note_off_c, 0, 81, 64
2, 40800, Note_on_c, 0, 82, 64
2, 41040, Note_off_c, 0, 82, 64
2, 41040, Note_on_c, 0, 84, 64
2, 41280, Note_off_c, 0, 84, 64
2, 41280, Note_on_c, 0, 86, 64
2, 42000, Note_off_c, 0, 86, 64
2, 42000, Note_on_c, 0, 84, 64
2, 42120, Note_off_c, 0, 84, 64
2, 42120, Note_on_c, 0, 82, 64
2, 42240, Note_off_c, 0, 82, 64
2, 42240, Note_on_c, 0, 81, 64
2, 42480, Note_off_c, 0, 81, 64
2, 42480, Note_on_c, 0, 78, 64
2, 42720, Note_off_c, 0, 78, 64
2, 42720, Note_on_c, 0, 79, 64
2, 42960, Note_off_c, 0, 79, 64
2, 42960, Note_on_c, 0, 81, 64
2, 43200, Note_off_c, 0, 81, 64
2, 43200, Note_on_c, 0, 74, 64
2, 43680, Note_off_c, 0, 74, 64
2, 44400, Note_on_c, 0, 76, 64
2, 44640, Note_off_c, 0, 76, 64
2, 44640, Note_on_c, 0, 77, 64
2, 44880, Note_off_c, 0, 77, 64
2, 44880, Note_on_c, 0, 79, 64
2, 45120, Note_off_c, 0, 79, 64
2, 45120, Note_on_c, 0, 81, 64
2, 46080, Note_off_c, 0, 81, 64
2, 46320, Note_on_c, 0, 74, 64
2, 46560, Note_off_c, 0, 74, 64
2, 46560, Note_on_c, 0, 76, 64
2, 46800, Note_off_c, 0, 76, 64
2, 46800, Note_on_c, 0, 78, 64
2, 47040, Note_off_c, 0, 78, 64
2, 47040, Note_on_c, 0, 79, 64
2, 48000, Note_off_c, 0, 79, 64
2, 48480, Note_on_c, 0, 74, 64
2, 48960, Note_off_c, 0, 74, 64
2, 48960, Note_on_c, 0, 75, 64
2, 49440, Note_off_c, 0, 75, 64
2, 49440, Note_on_c, 0, 69, 64
2, 49920, Note_off_c, 0, 69, 64
2, 49920, Note_on_c, 0, 81, 64
2, 50040, Note_off_c, 0, 81, 64
2, 50040, Note_on_c, 0, 82, 64
2, 50160, Note_off_c, 0, 82, 64
2, 50160, Note_on_c, 0, 84, 64
2, 50640, Note_off_c, 0, 84, 64
2, 50640, Note_on_c, 0, 82, 64
2, 50880, Note_off_c, 0, 82, 64
2, 50880, Note_on_c, 0, 84, 64
2, 51120, Note_off_c, 0, 84, 64
2, 51120, Note_on_c, 0, 81, 64
2, 51360, Note_off_c, 0, 81, 64
2, 51360, Note_on_c, 0, 78, 64
2, 51840, Note_off_c, 0, 78, 64
2, 51840, Note_on_c, 0, 79, 64
2, 52320, Note_off_c, 0, 79, 64
2, 52560, Note_on_c, 0, 70, 64
2, 52800, Note_off_c, 0, 70, 64
2, 52800, Note_on_c, 0, 75, 64
2, 53280, Note_off_c, 0, 75, 64
2, 53520, Note_on_c, 0, 66, 64
2, 53760, Note_off_c, 0, 66, 64
2, 53760, Note_on_c, 0, 67, 64
2, 54240, Note_off_c, 0, 67, 64
2, 54240, Note_on_c, 0, 67, 64
2, 54480, Note_off_c, 0, 67, 64
2, 54480, Note_on_c, 0, 69, 64
2, 54720, Note_off_c, 0, 69, 64
2, 54720, Note_on_c, 0, 70, 64
2, 54960, Note_off_c, 0, 70, 64
2, 54960, Note_on_c, 0, 72, 64
2, 55200, Note_off_c, 0, 72, 64
2, 55200, Note_on_c, 0, 74, 64
2, 55440, Note_off_c, 0, 74, 64
2, 55440, Note_on_c, 0, 75, 64
2, 55680, Note_off_c, 0, 75, 64
2, 55680, Note_on_c, 0, 66, 64
2, 56160, Note_off_c, 0, 66, 64
2, 57120, Note_on_c, 0, 74, 64
2, 57840, Note_off_c, 0, 74, 64
2, 57840, Note_on_c, 0, 73, 64
2, 58080, Note_off_c, 0, 73, 64
2, 58080, Note_on_c, 0, 69, 64
2, 58320, Note_off_c, 0, 69, 64
2, 58320, Note_on_c, 0, 71, 64
2, 58560, Note_off_c, 0, 71, 64
2, 58560, Note_on_c, 0, 72, 64
2, 59760, Note_off_c, 0, 72, 64
2, 59760, Note_on_c, 0, 71, 64
2, 60000, Note_off_c, 0, 71, 64
2, 60000, Note_on_c, 0, 67, 64
2, 60240, Note_off_c, 0, 67, 64
2, 60240, Note_on_c, 0, 69, 64
2, 60480, Note_off_c, 0, 69, 64
2, 60480, Note_on_c, 0, 70, 64
2, 61680, Note_off_c, 0, 70, 64
2, 61680, Note_on_c, 0, 69, 64
2, 61920, Note_off_c, 0, 69, 64
2, 61920, Note_on_c, 0, 68, 64
2, 62160, Note_off_c, 0, 68, 64
2, 62160, Note_on_c, 0, 69, 64
2, 62400, Note_off_c, 0, 69, 64
2, 62400, Note_on_c, 0, 68, 64
2, 62640, Note_off_c, 0, 68, 64
2, 62640, Note_on_c, 0, 67, 64
2, 62880, Note_off_c, 0, 67, 64
2, 62880, Note_on_c, 0, 66, 64
2, 63120, Note_off_c, 0, 66, 64
2, 63120, Note_on_c, 0, 67, 64
2, 63360, Note_off_c, 0, 67, 64
2, 63360, Note_on_c, 0, 66, 64
2, 63600, Note_off_c, 0, 66, 64
2, 63600, Note_on_c, 0, 64, 64
2, 63840, Note_off_c, 0, 64, 64
2, 63840, Note_on_c, 0, 62, 64
2, 64080, Note_off_c, 0, 62, 64
2, 64080, Note_on_c, 0, 63, 64
2, 64320, Note_off_c, 0, 63, 64
2, 64320, Note_on_c, 0, 62, 64
2, 64560, Note_off_c, 0, 62, 64
2, 64560, Note_on_c, 0, 66, 64
2, 64800, Note_off_c, 0, 66, 64
2, 64800, Note_on_c, 0, 69, 64
2, 65040, Note_off_c, 0, 69, 64
2, 65040, Note_on_c, 0, 72, 64
2, 65280, Note_off_c, 0, 72, 64
2, 65280, Note_on_c, 0, 70, 64
2, 65520, Note_off_c, 0, 70, 64
2, 65520, Note_on_c, 0, 74, 64
2, 65760, Note_off_c, 0, 74, 64
2, 65760, Note_on_c, 0, 78, 64
2, 66000, Note_off_c, 0, 78, 64
2, 66000, Note_on_c, 0, 79, 64
2, 66240, Note_off_c, 0, 79, 64
2, 66240, Note_on_c, 0, 69, 64
2, 66480, Note_off_c, 0, 69, 64
2, 66480, Note_on_c, 0, 75, 64
2, 66720, Note_off_c, 0, 75, 64
2, 66720, Note_on_c, 0, 74, 64
2, 66960, Note_off_c, 0, 74, 64
2, 66960, Note_on_c, 0, 72, 64
2, 67200, Note_off_c, 0, 72, 64
2, 67200, Note_on_c, 0, 70, 64
2, 67320, Note_off_c, 0, 70, 64
2, 67320, Note_on_c, 0, 69, 64
2, 67440, Note_off_c, 0, 69, 64
2, 67440, Note_on_c, 0, 67, 64
2, 67560, Note_off_c, 0, 67, 64
2, 67560, Note_on_c, 0, 66, 64
2, 67680, Note_off_c, 0, 66, 64
2, 67680, Note_on_c, 0, 67, 64
2, 67800, Note_off_c, 0, 67, 64
2, 67800, Note_on_c, 0, 79, 64
2, 67920, Note_off_c, 0, 79, 64
2, 67920, Note_on_c, 0, 77, 64
2, 68040, Note_off_c, 0, 77, 64
2, 68040, Note_on_c, 0, 75, 64
2, 68160, Note_off_c, 0, 75, 64
2, 68160, Note_on_c, 0, 74, 64
2, 68280, Note_off_c, 0, 74, 64
2, 68280, Note_on_c, 0, 72, 64
2, 68400, Note_off_c, 0, 72, 64
2, 68400, Note_on_c, 0, 70, 64
2, 68520, Note_off_c, 0, 70, 64
2, 68520, Note_on_c, 0, 69, 64
2, 68640, Note_off_c, 0, 69, 64
2, 68640, Note_on_c, 0, 67, 64
2, 69120, Note_off_c, 0, 67, 64
2, 69360, Note_on_c, 0, 69, 64
2, 69600, Note_off_c, 0, 69, 64
2, 69600, Note_on_c, 0, 70, 64
2, 69840, Note_off_c, 0, 70, 64
2, 69840, Note_on_c, 0, 72, 64
2, 70080, Note_off_c, 0, 72, 64
2, 70080, Note_on_c, 0, 74, 64
2, 70320, Note_off_c, 0, 74, 64
2, 70320, Note_on_c, 0, 77, 64
2, 70560, Note_off_c, 0, 77, 64
2, 70560, Note_on_c, 0, 76, 64
2, 70800, Note_off_c, 0, 76, 64
2, 70800, Note_on_c, 0, 79, 64
2, 71040, Note_off_c, 0, 79, 64
2, 71040, Note_on_c, 0, 77, 64
2, 71280, Note_off_c, 0, 77, 64
2, 71280, Note_on_c, 0, 76, 64
2, 71400, Note_off_c, 0, 76, 64
2, 71400, Note_on_c, 0, 74, 64
2, 71520, Note_off_c, 0, 74, 64
2, 71520, Note_on_c, 0, 73, 64
2, 72000, Note_off_c, 0, 73, 64
2, 72240, Note_on_c, 0, 75, 64
2, 72480, Note_off_c, 0, 75, 64
2, 72480, Note_on_c, 0, 74, 64
2, 72720, Note_off_c, 0, 74, 64
2, 72720, Note_on_c, 0, 77, 64
2, 72960, Note_off_c, 0, 77, 64
2, 72960, Note_on_c, 0, 75, 64
2, 73200, Note_off_c, 0, 75, 64
2, 73200, Note_on_c, 0, 74, 64
2, 73320, Note_off_c, 0, 74, 64
2, 73320, Note_on_c, 0, 72, 64
2, 73440, Note_off_c, 0, 72, 64
2, 73440, Note_on_c, 0, 71, 64
2, 73920, Note_off_c, 0, 71, 64
2, 74160, Note_on_c, 0, 74, 64
2, 74400, Note_off_c, 0, 74, 64
2, 74400, Note_on_c, 0, 73, 64
2, 74640, Note_off_c, 0, 73, 64
2, 74640, Note_on_c, 0, 76, 64
2, 74880, Note_off_c, 0, 76, 64
2, 74880, Note_on_c, 0, 74, 64
2, 75120, Note_off_c, 0, 74, 64
2, 75120, Note_on_c, 0, 72, 64
2, 75360, Note_off_c, 0, 72, 64
2, 75360, Note_on_c, 0, 71, 64
2, 75600, Note_off_c, 0, 71, 64
2, 75600, Note_on_c, 0, 74, 64
2, 75840, Note_off_c, 0, 74, 64
2, 75840, Note_on_c, 0, 72, 64
2, 76080, Note_off_c, 0, 72, 64
2, 76080, Note_on_c, 0, 71, 64
2, 76320, Note_off_c, 0, 71, 64
2, 76320, Note_on_c, 0, 72, 64
2, 77040, Note_off_c, 0, 72, 64
2, 77040, Note_on_c, 0, 67, 64
2, 77280, Note_off_c, 0, 67, 64
2, 77280, Note_on_c, 0, 66, 64
2, 77520, Note_off_c, 0, 66, 64
2, 77520, Note_on_c, 0, 67, 64
2, 77760, Note_off_c, 0, 67, 64
2, 77760, Note_on_c, 0, 69, 64
2, 78000, Note_off_c, 0, 69, 64
2, 78000, Note_on_c, 0, 62, 64
2, 78240, Note_off_c, 0, 62, 64
2, 78240, Note_on_c, 0, 74, 64
2, 79200, Note_off_c, 0, 74, 64
2, 79200, Note_on_c, 0, 72, 64
2, 79440, Note_off_c, 0, 72, 64
2, 79440, Note_on_c, 0, 70, 64
2, 79680, Note_off_c, 0, 70, 64
2, 79680, Note_on_c, 0, 72, 64
2, 80160, Note_off_c, 0, 72, 64
2, 80160, Note_on_c, 0, 70, 64
2, 80400, Note_off_c, 0, 70, 64
2, 80400, Note_on_c, 0, 69, 64
2, 80640, Note_off_c, 0, 69, 64
2, 80640, Note_on_c, 0, 70, 64
2, 80760, Note_off_c, 0, 70, 64
2, 80760, Note_on_c, 0, 72, 64
2, 80880, Note_off_c, 0, 72, 64
2, 80880, Note_on_c, 0, 70, 64
2, 81000, Note_off_c, 0, 70, 64
2, 81000, Note_on_c, 0, 69, 64
2, 81120, Note_off_c, 0, 69, 64
2, 81120, Note_on_c, 0, 67, 64
2, 81840, Note_off_c, 0, 67, 64
2, 81840, Note_on_c, 0, 69, 64
2, 82080, Note_off_c, 0, 69, 64
2, 82080, Note_on_c, 0, 70, 64
2, 82320, Note_off_c, 0, 70, 64
2, 82320, Note_on_c, 0, 72, 64
2, 82560, Note_off_c, 0, 72, 64
2, 82560, Note_on_c, 0, 74, 64
2, 82800, Note_off_c, 0, 74, 64
2, 82800, Note_on_c, 0, 75, 64
2, 83040, Note_off_c, 0, 75, 64
2, 83040, Note_on_c, 0, 74, 64
2, 83280, Note_off_c, 0, 74, 64
2, 83280, Note_on_c, 0, 72, 64
2, 83520, Note_off_c, 0, 72, 64
2, 83520, Note_on_c, 0, 70, 64
2, 83760, Note_off_c, 0, 70, 64
2, 83760, Note_on_c, 0, 69, 64
2, 84000, Note_off_c, 0, 69, 64
2, 84000, Note_on_c, 0, 67, 64
2, 84240, Note_off_c, 0, 67, 64
2, 84240, Note_on_c, 0, 70, 64
2, 84480, Note_off_c, 0, 70, 64
2, 84480, Note_on_c, 0, 69, 64
2, 85680, Note_off_c, 0, 69, 64
2, 85680, Note_on_c, 0, 67, 64
2, 85920, Note_off_c, 0, 67, 64
2, 85920, Note_on_c, 0, 66, 64
2, 86160, Note_off_c, 0, 66, 64
2, 86160, Note_on_c, 0, 69, 64
2, 86400, Note_off_c, 0, 69, 64
2, 86400, Note_on_c, 0, 67, 64
2, 87600, Note_off_c, 0, 67, 64
2, 87600, Note_on_c, 0, 65, 64
2, 87840, Note_off_c, 0, 65, 64
2, 87840, Note_on_c, 0, 64, 64
2, 88080, Note_off_c, 0, 64, 64
2, 88080, Note_on_c, 0, 67, 64
2, 88320, Note_off_c, 0, 67, 64
2, 88320, Note_on_c, 0, 65, 64
2, 88800, Note_off_c, 0, 65, 64
2, 89040, Note_on_c, 0, 65, 64
2, 89280, Note_off_c, 0, 65, 64
2, 89280, Note_on_c, 0, 72, 64
2, 89760, Note_off_c, 0, 72, 64
2, 90000, Note_on_c, 0, 75, 64
2, 90240, Note_off_c, 0, 75, 64
2, 90240, Note_on_c, 0, 74, 64
2, 90720, Note_off_c, 0, 74, 64
2, 90960, Note_on_c, 0, 67, 64
2, 91200, Note_off_c, 0, 67, 64
2, 91200, Note_on_c, 0, 66, 64
2, 91680, Note_off_c, 0, 66, 64
2, 91920, Note_on_c, 0, 62, 64
2, 92160, Note_off_c, 0, 62, 64
2, 92160, Note_on_c, 0, 67, 64
2, 92640, Note_off_c, 0, 67, 64
2, 92640, Note_on_c, 0, 63, 64
2, 93120, Note_off_c, 0, 63, 64
2, 93120, Note_on_c, 0, 60, 64
2, 93600, Note_off_c, 0, 60, 64
2, 93600, Note_on_c, 0, 62, 64
2, 94080, Note_off_c, 0, 62, 64
2, 94080, Note_on_c, 0, 67, 64
2, 94320, Note_off_c, 0, 67, 64
2, 94320, Note_on_c, 0, 79, 64
2, 94440, Note_off_c, 0, 79, 64
2, 94440, Note_on_c, 0, 81, 64
2, 94560, Note_off_c, 0, 81, 64
2, 94560, Note_on_c, 0, 82, 64
2, 94800, Note_off_c, 0, 82, 64
2, 94800, Note_on_c, 0, 84, 64
2, 95040, Note_off_c, 0, 84, 64
2, 95040, Note_on_c, 0, 86, 64
2, 95760, Note_off_c, 0, 86, 64
2, 95760, Note_on_c, 0, 84, 64
2, 95880, Note_off_c, 0, 84, 64
2, 95880, Note_on_c, 0, 82, 64
2, 96000, Note_off_c, 0, 82, 64
2, 96000, Note_on_c, 0, 81, 64
2, 96240, Note_off_c, 0, 81, 64
2, 96240, Note_on_c, 0, 78, 64
2, 96480, Note_off_c, 0, 78, 64
2, 96480, Note_on_c, 0, 79, 64
2, 96720, Note_off_c, 0, 79, 64
2, 96720, Note_on_c, 0, 81, 64
2, 96960, Note_off_c, 0, 81, 64
2, 96960, Note_on_c, 0, 74, 64
2, 97440, Note_off_c, 0, 74, 64
2, 98160, Note_on_c, 0, 76, 64
2, 98400, Note_off_c, 0, 76, 64
2, 98400, Note_on_c, 0, 77, 64
2, 98640, Note_off_c, 0, 77, 64
2, 98640, Note_on_c, 0, 79, 64
2, 98880, Note_off_c, 0, 79, 64
2, 98880, Note_on_c, 0, 81, 64
2, 99840, Note_off_c, 0, 81, 64
2, 100080, Note_on_c, 0, 74, 64
2, 100320, Note_off_c, 0, 74, 64
2, 100320, Note_on_c, 0, 76, 64
2, 100560, Note_off_c, 0, 76, 64
2, 100560, Note_on_c, 0, 78, 64
2, 100800, Note_off_c, 0, 78, 64
2, 100800, Note_on_c, 0, 79, 64
2, 101760, Note_off_c, 0, 79, 64
2, 102240, Note_on_c, 0, 74, 64
2, 102720, Note_off_c, 0, 74, 64
2, 102720, Note_on_c, 0, 75, 64
2, 103200, Note_off_c, 0, 75, 64
2, 103200, Note_on_c, 0, 69, 64
2, 103680, Note_off_c, 0, 69, 64
2, 103680, Note_on_c, 0, 81, 64
2, 103800, Note_off_c, 0, 81, 64
2, 103800, Note_on_c, 0, 82, 64
2, 103920, Note_off_c, 0, 82, 64
2, 103920, Note_on_c, 0, 84, 64
2, 104400, Note_off_c, 0, 84, 64
2, 104400, Note_on_c, 0, 82, 64
2, 104640, Note_off_c, 0, 82, 64
2, 104640, Note_on_c, 0, 84, 64
2, 104880, Note_off_c, 0, 84, 64
2, 104880, Note_on_c, 0, 81, 64
2, 105120, Note_off_c, 0, 81, 64
2, 105120, Note_on_c, 0, 78, 64
2, 105600, Note_off_c, 0, 78, 64
2, 105600, Note_on_c, 0, 79, 64
2, 106080, Note_off_c, 0, 79, 64
2, 106320, Note_on_c, 0, 70, 64
2, 106560, Note_off_c, 0, 70, 64
2, 106560, Note_on_c, 0, 75, 64
2, 107040, Note_off_c, 0, 75, 64
2, 107280, Note_on_c, 0, 66, 64
2, 107520, Note_off_c, 0, 66, 64
2, 107520, Note_on_c, 0, 67, 64
2, 108000, Note_off_c, 0, 67, 64
2, 108000, Note_on_c, 0, 67, 64
2, 108240, Note_off_c, 0, 67, 64
2, 108240, Note_on_c, 0, 69, 64
2, 108480, Note_off_c, 0, 69, 64
2, 108480, Note_on_c, 0, 70, 64
2, 108720, Note_off_c, 0, 70, 64
2, 108720, Note_on_c, 0, 72, 64
2, 108960, Note_off_c, 0, 72, 64
2, 108960, Note_on_c, 0, 74, 64
2, 109200, Note_off_c, 0, 74, 64
2, 109200, Note_on_c, 0, 75, 64
2, 109440, Note_off_c, 0, 75, 64
2, 109440, Note_on_c, 0, 66, 64
2, 109920, Note_off_c, 0, 66, 64
2, 110880, Note_on_c, 0, 74, 64
2, 111600, Note_off_c, 0, 74, 64
2, 111600, Note_on_c, 0, 73, 64
2, 111840, Note_off_c, 0, 73, 64
2, 111840, Note_on_c, 0, 69, 64
2, 112080, Note_off_c, 0, 69, 64
2, 112080, Note_on_c, 0, 71, 64
2, 112320, Note_off_c, 0, 71, 64
2, 112320, Note_on_c, 0, 72, 64
2, 113520, Note_off_c, 0, 72, 64
2, 113520, Note_on_c, 0, 71, 64
2, 113760, Note_off_c, 0, 71, 64
2, 113760, Note_on_c, 0, 67, 64
2, 114000, Note_off_c, 0, 67, 64
2, 114000, Note_on_c, 0, 69, 64
2, 114240, Note_off_c, 0, 69, 64
2, 114240, Note_on_c, 0, 70, 64
2, 115440, Note_off_c, 0, 70, 64
2, 115440, Note_on_c, 0, 69, 64
2, 115680, Note_off_c, 0, 69, 64
2, 115680, Note_on_c, 0, 68, 64
2, 115920, Note_off_c, 0, 68, 64
2, 115920, Note_on_c, 0, 69, 64
2, 116160, Note_off_c, 0, 69, 64
2, 116160, Note_on_c, 0, 68, 64
2, 116400, Note_off_c, 0, 68, 64
2, 116400, Note_on_c, 0, 67, 64
2, 116640, Note_off_c, 0, 67, 64
2, 116640, Note_on_c, 0, 66, 64
2, 116880, Note_off_c, 0, 66, 64
2, 116880, Note_on_c, 0, 67, 64
2, 117120, Note_off_c, 0, 67, 64
2, 117120, Note_on_c, 0, 66, 64
2, 117360, Note_off_c, 0, 66, 64
2, 117360, Note_on_c, 0, 64, 64
2, 117600, Note_off_c, 0, 64, 64
2, 117600, Note_on_c, 0, 62, 64
2, 117840, Note_off_c, 0, 62, 64
2, 117840, Note_on_c, 0, 63, 64
2, 118080, Note_off_c, 0, 63, 64
2, 118080, Note_on_c, 0, 62, 64
2, 118320, Note_off_c, 0, 62, 64
2, 118320, Note_on_c, 0, 66, 64
2, 118560, Note_off_c, 0, 66, 64
2, 118560, Note_on_c, 0, 69, 64
2, 118800, Note_off_c, 0, 69, 64
2, 118800, Note_on_c, 0, 72, 64
2, 119040, Note_off_c, 0, 72, 64
2, 119040, Note_on_c, 0, 70, 64
2, 119280, Note_off_c, 0, 70, 64
2, 119280, Note_on_c, 0, 74, 64
2, 119520, Note_off_c, 0, 74, 64
2, 119520, Note_on_c, 0, 78, 64
2, 119760, Note_off_c, 0, 78, 64
2, 119760, Note_on_c, 0, 79, 64
2, 120000, Note_off_c, 0, 79, 64
2, 120000, Note_on_c, 0, 69, 64
2, 120240, Note_off_c, 0, 69, 64
2, 120240, Note_on_c, 0, 75, 64
2, 120480, Note_off_c, 0, 75, 64
2, 120480, Note_on_c, 0, 74, 64
2, 120720, Note_off_c, 0, 74, 64
2, 120720, Note_on_c, 0, 72, 64
2, 120960, Note_off_c, 0, 72, 64
2, 120960, Note_on_c, 0, 70, 64
2, 121080, Note_off_c, 0, 70, 64
2, 121080, Note_on_c, 0, 69, 64
2, 121200, Note_off_c, 0, 69, 64
2, 121200, Note_on_c, 0, 67, 64
2, 121320, Note_off_c, 0, 67, 64
2, 121320, Note_on_c, 0, 66, 64
2, 121440, Note_off_c, 0, 66, 64
2, 121440, Note_on_c, 0, 67, 64
2, 121560, Note_off_c, 0, 67, 64
2, 121560, Note_on_c, 0, 79, 64
2, 121680, Note_off_c, 0, 79, 64
2, 121680, Note_on_c, 0, 77, 64
2, 121800, Note_off_c, 0, 77, 64
2, 121800, Note_on_c, 0, 75, 64
2, 121920, Note_off_c, 0, 75, 64
2, 121920, Note_on_c, 0, 74, 64
2, 122040, Note_off_c, 0, 74, 64
2, 122040, Note_on_c, 0, 72, 64
2, 122160, Note_off_c, 0, 72, 64
2, 122160, Note_on_c, 0, 70, 64
2, 122280, Note_off_c, 0, 70, 64
2, 122280, Note_on_c, 0, 69, 64
2, 122400, Note_off_c, 0, 69, 64
2, 122400, Note_on_c, 0, 67, 64
2, 122880, Note_off_c, 0, 67, 64
2, 123120, Note_on_c, 0, 69, 64
2, 123360, Note_off_c, 0, 69, 64
2, 123360, Note_on_c, 0, 70, 64
2, 123600, Note_off_c, 0, 70, 64
2, 123600, Note_on_c, 0, 72, 64
2, 123840, Note_off_c, 0, 72, 64
2, 123840, Note_on_c, 0, 74, 64
2, 124080, Note_off_c, 0, 74, 64
2, 124080, Note_on_c, 0, 77, 64
2, 124320, Note_off_c, 0, 77, 64
2, 124320, Note_on_c, 0, 76, 64
2, 124560, Note_off_c, 0, 76, 64
2, 124560, Note_on_c, 0, 79, 64
2, 124800, Note_off_c, 0, 79, 64
2, 124800, Note_on_c, 0, 77, 64
2, 125040, Note_off_c, 0, 77, 64
2, 125040, Note_on_c, 0, 76, 64
2, 125160, Note_off_c, 0, 76, 64
2, 125160, Note_on_c, 0, 74, 64
2, 125280, Note_off_c, 0, 74, 64
2, 125280, Note_on_c, 0, 73, 64
2, 125760, Note_off_c, 0, 73, 64
2, 126000, Note_on_c, 0, 75, 64
2, 126240, Note_off_c, 0, 75, 64
2, 126240, Note_on_c, 0, 74, 64
2, 126480, Note_off_c, 0, 74, 64
2, 126480, Note_on_c, 0, 77, 64
2, 126720, Note_off_c, 0, 77, 64
2, 126720, Note_on_c, 0, 75, 64
2, 126960, Note_off_c, 0, 75, 64
2, 126960, Note_on_c, 0, 74, 64
2, 127080, Note_off_c, 0, 74, 64
2, 127080, Note_on_c, 0, 72, 64
2, 127200, Note_off_c, 0, 72, 64
2, 127200, Note_on_c, 0, 71, 64
2, 127680, Note_off_c, 0, 71, 64
2, 127920, Note_on_c, 0, 74, 64
2, 128160, Note_off_c, 0, 74, 64
2, 128160, Note_on_c, 0, 73, 64
2, 128400, Note_off_c, 0, 73, 64
2, 128400, Note_on_c, 0, 76, 64
2, 128640, Note_off_c, 0, 76, 64
2, 128640, Note_on_c, 0, 74, 64
2, 128880, Note_off_c, 0, 74, 64
2, 128880, Note_on_c, 0, 72, 64
2, 129120, Note_off_c, 0, 72, 64
2, 129120, Note_on_c, 0, 71, 64
2, 129360, Note_off_c, 0, 71, 64
2, 129360, Note_on_c, 0, 74, 64
2, 129600, Note_off_c, 0, 74, 64
2, 129600, Note_on_c, 0, 72, 64
2, 129840, Note_off_c, 0, 72, 64
2, 129840, Note_on_c, 0, 71, 64
2, 130080, Note_off_c, 0, 71, 64
2, 130080, Note_on_c, 0, 72, 64
2, 130800, Note_off_c, 0, 72, 64
2, 130800, Note_on_c, 0, 67, 64
2, 131040, Note_off_c, 0, 67, 64
2, 131040, Note_on_c, 0, 66, 64
2, 131280, Note_off_c, 0, 66, 64
2, 131280, Note_on_c, 0, 67, 64
2, 131520, Note_off_c, 0, 67, 64
2, 131520, Note_on_c, 0, 69, 64
2, 131760, Note_off_c, 0, 69, 64
2, 131760, Note_on_c, 0, 62, 64
2, 132000, Note_off_c, 0, 62, 64
2, 132000, Note_on_c, 0, 74, 64
2, 132960, Note_off_c, 0, 74, 64
2, 132960, Note_on_c, 0, 72, 64
2, 133200, Note_off_c, 0, 72, 64
2, 133200, Note_on_c, 0, 70, 64
2, 133440, Note_off_c, 0, 70, 64
2, 133440, Note_on_c, 0, 72, 64
2, 133920, Note_off_c, 0, 72, 64
2, 133920, Note_on_c, 0, 70, 64
2, 134160, Note_off_c, 0, 70, 64
2, 134160, Note_on_c, 0, 69, 64
2, 134400, Note_off_c, 0, 69, 64
2, 134400, Note_on_c, 0, 70, 64
2, 134520, Note_off_c, 0, 70, 64
2, 134520, Note_on_c, 0, 72, 64
2, 134640, Note_off_c, 0, 72, 64
2, 134640, Note_on_c, 0, 70, 64
2, 134760, Note_off_c, 0, 70, 64
2, 134760, Note_on_c, 0, 69, 64
2, 134880, Note_off_c, 0, 69, 64
2, 134880, Note_on_c, 0, 67, 64
2, 135600, Note_off_c, 0, 67, 64
2, 135600, Note_on_c, 0, 69, 64
2, 135840, Note_off_c, 0, 69, 64
2, 135840, Note_on_c, 0, 70, 64
2, 136080, Note_off_c, 0, 70, 64
2, 136080, Note_on_c, 0, 72, 64
2, 136320, Note_off_c, 0, 72, 64
2, 136320, Note_on_c, 0, 74, 64
2, 136560, Note_off_c, 0, 74, 64
2, 136560, Note_on_c, 0, 75, 64
2, 136800, Note_off_c, 0, 75, 64
2, 136800, Note_on_c, 0, 74, 64
2, 137040, Note_off_c, 0, 74, 64
2, 137040, Note_on_c, 0, 72, 64
2, 137280, Note_off_c, 0, 72, 64
2, 137280, Note_on_c, 0, 70, 64
2, 137520, Note_off_c, 0, 70, 64
2, 137520, Note_on_c, 0, 69, 64
2, 137760, Note_off_c, 0, 69, 64
2, 137760, Note_on_c, 0, 67, 64
2, 138000, Note_off_c, 0, 67, 64
2, 138000, Note_on_c, 0, 70, 64
2, 138240, Note_off_c, 0, 70, 64
2, 138240, Note_on_c, 0, 69, 64
2, 139440, Note_off_c, 0, 69, 64
2, 139440, Note_on_c, 0, 67, 64
2, 139680, Note_off_c, 0, 67, 64
2, 139680, Note_on_c, 0, 66, 64
2, 139920, Note_off_c, 0, 66, 64
2, 139920, Note_on_c, 0, 69, 64
2, 140160, Note_off_c, 0, 69, 64
2, 140160, Note_on_c, 0, 67, 64
2, 141360, Note_off_c, 0, 67, 64
2, 141360, Note_on_c, 0, 65, 64
2, 141600, Note_off_c, 0, 65, 64
2, 141600, Note_on_c, 0, 64, 64
2, 141840, Note_off_c, 0, 64, 64
2, 141840, Note_on_c, 0, 67, 64
2, 142080, Note_off_c, 0, 67, 64
2, 142080, Note_on_c, 0, 65, 64
2, 142560, Note_off_c, 0, 65, 64
2, 142800, Note_on_c, 0, 65, 64
2, 143040, Note_off_c, 0, 65, 64
2, 143040, Note_on_c, 0, 72, 64
2, 143520, Note_off_c, 0, 72, 64
2, 143760, Note_on_c, 0, 75, 64
2, 144000, Note_off_c, 0, 75, 64
2, 144000, Note_on_c, 0, 74, 64
2, 144480, Note_off_c, 0, 74, 64
2, 144720, Note_on_c, 0, 67, 64
2, 144960, Note_off_c, 0, 67, 64
2, 144960, Note_on_c, 0, 66, 64
2, 145440, Note_off_c, 0, 66, 64
2, 145680, Note_on_c, 0, 62, 64
2, 145920, Note_off_c, 0, 62, 64
2, 145920, Note_on_c, 0, 67, 64
2, 146400, Note_off_c, 0, 67, 64
2, 146400, Note_on_c, 0, 63, 64
2, 146880, Note_off_c, 0, 63, 64
2, 146880, Note_on_c, 0, 60, 64
2, 147360, Note_off_c, 0, 60, 64
2, 147360, Note_on_c, 0, 62, 64
2, 147840, Note_off_c, 0, 62, 64
2, 147840, Note_on_c, 0, 67, 64
2, 148080, Note_off_c, 0, 67, 64
2, 148080, Note_on_c, 0, 79, 64
2, 148200, Note_off_c, 0, 79, 64
2, 148200, Note_on_c, 0, 81, 64
2, 148320, Note_off_c, 0, 81, 64
2, 148320, Note_on_c, 0, 82, 64
2, 148560, Note_off_c, 0, 82, 64
2, 148560, Note_on_c, 0, 84, 64
2, 148800, Note_off_c, 0, 84, 64
2, 148800, Note_on_c, 0, 86, 64
2, 149520, Note_off_c, 0, 86, 64
2, 149520, Note_on_c, 0, 84, 64
2, 149640, Note_off_c, 0, 84, 64
2, 149640, Note_on_c, 0, 82, 64
2, 149760, Note_off_c, 0, 82, 64
2, 149760, Note_on_c, 0, 81, 64
2, 150000, Note_off_c, 0, 81, 64
2, 150000, Note_on_c, 0, 78, 64
2, 150240, Note_off_c, 0, 78, 64
2, 150240, Note_on_c, 0, 79, 64
2, 150480, Note_off_c, 0, 79, 64
2, 150480, Note_on_c, 0, 81, 64
2, 150720, Note_off_c, 0, 81, 64
2, 150720, Note_on_c, 0, 74, 64
2, 151200, Note_off_c, 0, 74, 64
2, 151920, Note_on_c, 0, 76, 64
2, 152160, Note_off_c, 0, 76, 64
2, 152160, Note_on_c, 0, 77, 64
2, 152400, Note_off_c, 0, 77, 64
2, 152400, Note_on_c, 0, 79, 64
2, 152640, Note_off_c, 0, 79, 64
2, 152640, Note_on_c, 0, 81, 64
2, 153600, Note_off_c, 0, 81, 64
2, 153840, Note_on_c, 0, 74, 64
2, 154080, Note_off_c, 0, 74, 64
2, 154080, Note_on_c, 0, 76, 64
2, 154320, Note_off_c, 0, 76, 64
2, 154320, Note_on_c, 0, 78, 64
2, 154560, Note_off_c, 0, 78, 64
2, 154560, Note_on_c, 0, 79, 64
2, 155520, Note_off_c, 0, 79, 64
2, 156000, Note_on_c, 0, 74, 64
2, 156480, Note_off_c, 0, 74, 64
2, 156480, Note_on_c, 0, 75, 64
2, 156960, Note_off_c, 0, 75, 64
2, 156960, Note_on_c, 0, 69, 64
2, 157440, Note_off_c, 0, 69, 64
2, 157440, Note_on_c, 0, 81, 64
2, 157560, Note_off_c, 0, 81, 64
2, 157560, Note_on_c, 0, 82, 64
2, 157680, Note_off_c, 0, 82, 64
2, 157680, Note_on_c, 0, 84, 64
2, 158160, Note_off_c, 0, 84, 64
2, 158160, Note_on_c, 0, 82, 64
2, 158400, Note_off_c, 0, 82, 64
2, 158400, Note_on_c, 0, 84, 64
2, 158640, Note_off_c, 0, 84, 64
2, 158640, Note_on_c, 0, 81, 64
2, 158880, Note_off_c, 0, 81, 64
2, 158880, Note_on_c, 0, 78, 64
2, 159360, Note_off_c, 0, 78, 64
2, 159360, Note_on_c, 0, 79, 64
2, 159840, Note_off_c, 0, 79, 64
2, 160080, Note_on_c, 0, 70, 64
2, 160320, Note_off_c, 0, 70, 64
2, 160320, Note_on_c, 0, 75, 64
2, 160800, Note_off_c, 0, 75, 64
2, 161040, Note_on_c, 0, 66, 64
2, 161280, Note_off_c, 0, 66, 64
2, 161280, Note_on_c, 0, 67, 64
2, 162240, Note_off_c, 0, 67, 64
2, 162240, End_track
3, 0, Start_track
3, 0, Text_t, "Voce 20-"
3, 27360, Note_on_c, 0, 67, 57
3, 27600, Note_off_c, 0, 67, 64
3, 27600, Note_on_c, 0, 69, 64
3, 27840, Note_off_c, 0, 69, 64
3, 27840, Note_on_c, 0, 70, 64
3, 28080, Note_off_c, 0, 70, 64
3, 28080, Note_on_c, 0, 72, 64
3, 28320, Note_off_c, 0, 72, 64
3, 28320, Note_on_c, 0, 74, 64
3, 28560, Note_off_c, 0, 74, 64
3, 28560, Note_on_c, 0, 75, 64
3, 28800, Note_off_c, 0, 75, 64
3, 28800, Note_on_c, 0, 66, 64
3, 29280, Note_off_c, 0, 66, 64
3, 30240, Note_on_c, 0, 74, 64
3, 30960, Note_off_c, 0, 74, 64
3, 30960, Note_on_c, 0, 73, 64
3, 31200, Note_off_c, 0, 73, 64
3, 31200, Note_on_c, 0, 69, 64
3, 31440, Note_off_c, 0, 69, 64
3, 31440, Note_on_c, 0, 71, 64
3, 31680, Note_off_c, 0, 71, 64
3, 31680, Note_on_c, 0, 72, 64
3, 32880, Note_off_c, 0, 72, 64
3, 32880, Note_on_c, 0, 71, 64
3, 33120, Note_off_c, 0, 71, 64
3, 33120, Note_on_c, 0, 67, 64
3, 33360, Note_off_c, 0, 67, 64
3, 33360, Note_on_c, 0, 69, 64
3, 33600, Note_off_c, 0, 69, 64
3, 33600, Note_on_c, 0, 70, 64
3, 34800, Note_off_c, 0, 70, 64
3, 34800, Note_on_c, 0, 69, 64
3, 35040, Note_off_c, 0, 69, 64
3, 35040, Note_on_c, 0, 68, 64
3, 35280, Note_off_c, 0, 68, 64
3, 35280, Note_on_c, 0, 69, 64
3, 35520, Note_off_c, 0, 69, 64
3, 35520, Note_on_c, 0, 68, 64
3, 35760, Note_off_c, 0, 68, 64
3, 35760, Note_on_c, 0, 67, 64
3, 36000, Note_off_c, 0, 67, 64
3, 36000, Note_on_c, 0, 66, 64
3, 36240, Note_off_c, 0, 66, 64
3, 36240, Note_on_c, 0, 67, 64
3, 36480, Note_off_c, 0, 67, 64
3, 36480, Note_on_c, 0, 66, 64
3, 36720, Note_off_c, 0, 66, 64
3, 36720, Note_on_c, 0, 64, 64
3, 36960, Note_off_c, 0, 64, 64
3, 36960, Note_on_c, 0, 62, 64
3, 37200, Note_off_c, 0, 62, 64
3, 37200, Note_on_c, 0, 63, 64
3, 37440, Note_off_c, 0, 63, 64
3, 37440, Note_on_c, 0, 62, 64
3, 37680, Note_off_c, 0, 62, 64
3, 37680, Note_on_c, 0, 66, 64
3, 37920, Note_off_c, 0, 66, 64
3, 37920, Note_on_c, 0, 69, 64
3, 38160, Note_off_c, 0, 69, 64
3, 38160, Note_on_c, 0, 72, 64
3, 38400, Note_off_c, 0, 72, 64
3, 38400, Note_on_c, 0, 70, 64
3, 38640, Note_off_c, 0, 70, 64
3, 38640, Note_on_c, 0, 74, 64
3, 38880, Note_off_c, 0, 74, 64
3, 38880, Note_on_c, 0, 78, 64
3, 39120, Note_off_c, 0, 78, 64
3, 39120, Note_on_c, 0, 79, 64
3, 39360, Note_off_c, 0, 79, 64
3, 39360, Note_on_c, 0, 69, 64
3, 39600, Note_off_c, 0, 69, 64
3, 39600, Note_on_c, 0, 75, 64
3, 39840, Note_off_c, 0, 75, 64
3, 39840, Note_on_c, 0, 74, 64
3, 40080, Note_off_c, 0, 74, 64
3, 40080, Note_on_c, 0, 72, 64
3, 40320, Note_off_c, 0, 72, 64
3, 40320, Note_on_c, 0, 70, 64
3, 40440, Note_off_c, 0, 70, 64
3, 40440, Note_on_c, 0, 69, 64
3, 40560, Note_off_c, 0, 69, 64
3, 40560, Note_on_c, 0, 67, 64
3, 40680, Note_off_c, 0, 67, 64
3, 40680, Note_on_c, 0, 66, 64
3, 40800, Note_off_c, 0, 66, 64
3, 40800, Note_on_c, 0, 67, 64
3, 40920, Note_off_c, 0, 67, 64
3, 40920, Note_on_c, 0, 79, 64
3, 41040, Note_off_c, 0, 79, 64
3, 41040, Note_on_c, 0, 77, 64
3, 41160, Note_off_c, 0, 77, 64
3, 41160, Note_on_c, 0, 75, 64
3, 41280, Note_off_c, 0, 75, 64
3, 41280, Note_on_c, 0, 74, 64
3, 41400, Note_off_c, 0, 74, 64
3, 41400, Note_on_c, 0, 72, 64
3, 41520, Note_off_c, 0, 72, 64
3, 41520, Note_on_c, 0, 70, 64
3, 41640, Note_off_c, 0, 70, 64
3, 41640, Note_on_c, 0, 69, 64
3, 41760, Note_off_c, 0, 69, 64
3, 41760, Note_on_c, 0, 67, 64
3, 42240, Note_off_c, 0, 67, 64
3, 42480, Note_on_c, 0, 69, 64
3, 42720, Note_off_c, 0, 69, 64
3, 42720, Note_on_c, 0, 70, 64
3, 42960, Note_off_c, 0, 70, 64
3, 42960, Note_on_c, 0, 72, 64
3, 43200, Note_off_c, 0, 72, 64
3, 43200, Note_on_c, 0, 74, 64
3, 43440, Note_off_c, 0, 74, 64
3, 43440, Note_on_c, 0, 77, 64
3, 43680, Note_off_c, 0, 77, 64
3, 43680, Note_on_c, 0, 76, 64
3, 43920, Note_off_c, 0, 76, 64
3, 43920, Note_on_c, 0, 79, 64
3, 44160, Note_off_c, 0, 79, 64
3, 44160, Note_on_c, 0, 77, 64
3, 44400, Note_off_c, 0, 77, 64
3, 44400, Note_on_c, 0, 76, 64
3, 44520, Note_off_c, 0, 76, 64
3, 44520, Note_on_c, 0, 74, 64
3, 44640, Note_off_c, 0, 74, 64
3, 44640, Note_on_c, 0, 73, 64
3, 45120, Note_off_c, 0, 73, 64
3, 45360, Note_on_c, 0, 75, 64
3, 45600, Note_off_c, 0, 75, 64
3, 45600, Note_on_c, 0, 74, 64
3, 45840, Note_off_c, 0, 74, 64
3, 45840, Note_on_c, 0, 77, 64
3, 46080, Note_off_c, 0, 77, 64
3, 46080, Note_on_c, 0, 75, 64
3, 46320, Note_off_c, 0, 75, 64
3, 46320, Note_on_c, 0, 74, 64
3, 46440, Note_off_c, 0, 74, 64
3, 46440, Note_on_c, 0, 72, 64
3, 46560, Note_off_c, 0, 72, 64
3, 46560, Note_on_c, 0, 71, 64
3, 47040, Note_off_c, 0, 71, 64
3, 47280, Note_on_c, 0, 74, 64
3, 47520, Note_off_c, 0, 74, 64
3, 47520, Note_on_c, 0, 73, 64
3, 47760, Note_off_c, 0, 73, 64
3, 47760, Note_on_c, 0, 76, 64
3, 48000, Note_off_c, 0, 76, 64
3, 48000, Note_on_c, 0, 74, 64
3, 48240, Note_off_c, 0, 74, 64
3, 48240, Note_on_c, 0, 72, 64
3, 48480, Note_off_c, 0, 72, 64
3, 48480, Note_on_c, 0, 71, 64
3, 48720, Note_off_c, 0, 71, 64
3, 48720, Note_on_c, 0, 74, 64
3, 48960, Note_off_c, 0, 74, 64
3, 48960, Note_on_c, 0, 72, 64
3, 49200, Note_off_c, 0, 72, 64
3, 49200, Note_on_c, 0, 71, 64
3, 49440, Note_off_c, 0, 71, 64
3, 49440, Note_on_c, 0, 72, 64
3, 50160, Note_off_c, 0, 72, 64
3, 50160, Note_on_c, 0, 67, 64
3, 50400, Note_off_c, 0, 67, 64
3, 50400, Note_on_c, 0, 66, 64
3, 50640, Note_off_c, 0, 66, 64
3, 50640, Note_on_c, 0, 67, 64
3, 50880, Note_off_c, 0, 67, 64
3, 50880, Note_on_c, 0, 69, 64
3, 51120, Note_off_c, 0, 69, 64
3, 51120, Note_on_c, 0, 62, 64
3, 51360, Note_off_c, 0, 62, 64
3, 51360, Note_on_c, 0, 74, 64
3, 52320, Note_off_c, 0, 74, 64
3, 52320, Note_on_c, 0, 72, 64
3, 52560, Note_off_c, 0, 72, 64
3, 52560, Note_on_c, 0, 70, 64
3, 52800, Note_off_c, 0, 70, 64
3, 52800, Note_on_c, 0, 72, 64
3, 53280, Note_off_c, 0, 72, 64
3, 53280, Note_on_c, 0, 70, 64
3, 53520, Note_off_c, 0, 70, 64
3, 53520, Note_on_c, 0, 69, 64
3, 53760, Note_off_c, 0, 69, 64
3, 53760, Note_on_c, 0, 70, 64
3, 53880, Note_off_c, 0, 70, 64
3, 53880, Note_on_c, 0, 72, 64
3, 54000, Note_off_c, 0, 72, 64
3, 54000, Note_on_c, 0, 70, 64
3, 54120, Note_off_c, 0, 70, 64
3, 54120, Note_on_c, 0, 69, 64
3, 54240, Note_off_c, 0, 69, 64
3, 54240, Note_on_c, 0, 67, 64
3, 54960, Note_off_c, 0, 67, 64
3, 54960, Note_on_c, 0, 69, 64
3, 55200, Note_off_c, 0, 69, 64
3, 55200, Note_on_c, 0, 70, 64
3, 55440, Note_off_c, 0, 70, 64
3, 55440, Note_on_c, 0, 72, 64
3, 55680, Note_off_c, 0, 72, 64
3, 55680, Note_on_c, 0, 74, 64
3, 55920, Note_off_c, 0, 74, 64
3, 55920, Note_on_c, 0, 75, 64
3, 56160, Note_off_c, 0, 75, 64
3, 56160, Note_on_c, 0, 74, 64
3, 56400, Note_off_c, 0, 74, 64
3, 56400, Note_on_c, 0, 72, 64
3, 56640, Note_off_c, 0, 72, 64
3, 56640, Note_on_c, 0, 70, 64
3, 56880, Note_off_c, 0, 70, 64
3, 56880, Note_on_c, 0, 69, 64
3, 57120, Note_off_c, 0, 69, 64
3, 57120, Note_on_c, 0, 67, 64
3, 57360, Note_off_c, 0, 67, 64
3, 57360, Note_on_c, 0, 70, 64
3, 57600, Note_off_c, 0, 70, 64
3, 57600, Note_on_c, 0, 69, 64
3, 58800, Note_off_c, 0, 69, 64
3, 58800, Note_on_c, 0, 67, 64
3, 59040, Note_off_c, 0, 67, 64
3, 59040, Note_on_c, 0, 66, 64
3, 59280, Note_off_c, 0, 66, 64
3, 59280, Note_on_c, 0, 69, 64
3, 59520, Note_off_c, 0, 69, 64
3, 59520, Note_on_c, 0, 67, 64
3, 60720, Note_off_c, 0, 67, 64
3, 60720, Note_on_c, 0, 65, 64
3, 60960, Note_off_c, 0, 65, 64
3, 60960, Note_on_c, 0, 64, 64
3, 61200, Note_off_c, 0, 64, 64
3, 61200, Note_on_c, 0, 67, 64
3, 61440, Note_off_c, 0, 67, 64
3, 61440, Note_on_c, 0, 65, 64
3, 61920, Note_off_c, 0, 65, 64
3, 62160, Note_on_c, 0, 65, 64
3, 62400, Note_off_c, 0, 65, 64
3, 62400, Note_on_c, 0, 72, 64
3, 62880, Note_off_c, 0, 72, 64
3, 63120, Note_on_c, 0, 75, 64
3, 63360, Note_off_c, 0, 75, 64
3, 63360, Note_on_c, 0, 74, 64
3, 63840, Note_off_c, 0, 74, 64
3, 64080, Note_on_c, 0, 67, 64
3, 64320, Note_off_c, 0, 67, 64
3, 64320, Note_on_c, 0, 66, 64
3, 64800, Note_off_c, 0, 66, 64
3, 65040, Note_on_c, 0, 62, 64
3, 65280, Note_off_c, 0, 62, 64
3, 65280, Note_on_c, 0, 67, 64
3, 65760, Note_off_c, 0, 67, 64
3, 65760, Note_on_c, 0, 63, 64
3, 66240, Note_off_c, 0, 63, 64
3, 66240, Note_on_c, 0, 60, 64
3, 66720, Note_off_c, 0, 60, 64
3, 66720, Note_on_c, 0, 62, 64
3, 67200, Note_off_c, 0, 62, 64
3, 67200, Note_on_c, 0, 67, 64
3, 67440, Note_off_c, 0, 67, 64
3, 67440, Note_on_c, 0, 79, 64
3, 67560, Note_off_c, 0, 79, 64
3, 67560, Note_on_c, 0, 81, 64
3, 67680, Note_off_c, 0, 81, 64
3, 67680, Note_on_c, 0, 82, 64
3, 67920, Note_off_c, 0, 82, 64
3, 67920, Note_on_c, 0, 84, 64
3, 68160, Note_off_c, 0, 84, 64
3, 68160, Note_on_c, 0, 86, 64
3, 68880, Note_off_c, 0, 86, 64
3, 68880, Note_on_c, 0, 84, 64
3, 69000, Note_off_c, 0, 84, 64
3, 69000, Note_on_c, 0, 82, 64
3, 69120, Note_off_c, 0, 82, 64
3, 69120, Note_on_c, 0, 81, 64
3, 69360, Note_off_c, 0, 81, 64
3, 69360, Note_on_c, 0, 78, 64
3, 69600, Note_off_c, 0, 78, 64
3, 69600, Note_on_c, 0, 79, 64
3, 69840, Note_off_c, 0, 79, 64
3, 69840, Note_on_c, 0, 81, 64
3, 70080, Note_off_c, 0, 81, 64
3, 70080, Note_on_c, 0, 74, 64
3, 70560, Note_off_c, 0, 74, 64
3, 71280, Note_on_c, 0, 76, 64
3, 71520, Note_off_c, 0, 76, 64
3, 71520, Note_on_c, 0, 77, 64
3, 71760, Note_off_c, 0, 77, 64
3, 71760, Note_on_c, 0, 79, 64
3, 72000, Note_off_c, 0, 79, 64
3, 72000, Note_on_c, 0, 81, 64
3, 72960, Note_off_c, 0, 81, 64
3, 73200, Note_on_c, 0, 74, 64
3, 73440, Note_off_c, 0, 74, 64
3, 73440, Note_on_c, 0, 76, 64
3, 73680, Note_off_c, 0, 76, 64
3, 73680, Note_on_c, 0, 78, 64
3, 73920, Note_off_c, 0, 78, 64
3, 73920, Note_on_c, 0, 79, 64
3, 74880, Note_off_c, 0, 79, 64
3, 75360, Note_on_c, 0, 74, 64
3, 75840, Note_off_c, 0, 74, 64
3, 75840, Note_on_c, 0, 75, 64
3, 76320, Note_off_c, 0, 75, 64
3, 76320, Note_on_c, 0, 69, 64
3, 76800, Note_off_c, 0, 69, 64
3, 76800, Note_on_c, 0, 81, 64
3, 76920, Note_off_c, 0, 81, 64
3, 76920, Note_on_c, 0, 82, 64
3, 77040, Note_off_c, 0, 82, 64
3, 77040, Note_on_c, 0, 84, 64
3, 77520, Note_off_c, 0, 84, 64
3, 77520, Note_on_c, 0, 82, 64
3, 77760, Note_off_c, 0, 82, 64
3, 77760, Note_on_c, 0, 84, 64
3, 78000, Note_off_c, 0, 84, 64
3, 78000, Note_on_c, 0, 81, 64
3, 78240, Note_off_c, 0, 81, 64
3, 78240, Note_on_c, 0, 78, 64
3, 78720, Note_off_c, 0, 78, 64
3, 78720, Note_on_c, 0, 79, 64
3, 79200, Note_off_c, 0, 79, 64
3, 79440, Note_on_c, 0, 70, 64
3, 79680, Note_off_c, 0, 70, 64
3, 79680, Note_on_c, 0, 75, 64
3, 80160, Note_off_c, 0, 75, 64
3, 80400, Note_on_c, 0, 66, 64
3, 80640, Note_off_c, 0, 66, 64
3, 80640, Note_on_c, 0, 67, 64
3, 81120, Note_off_c, 0, 67, 64
3, 81120, Note_on_c, 0, 67, 64
3, 81360, Note_off_c, 0, 67, 64
3, 81360, Note_on_c, 0, 69, 64
3, 81600, Note_off_c, 0, 69, 64
3, 81600, Note_on_c, 0, 70, 64
3, 81840, Note_off_c, 0, 70, 64
3, 81840, Note_on_c, 0, 72, 64
3, 82080, Note_off_c, 0, 72, 64
3, 82080, Note_on_c, 0, 74, 64
3, 82320, Note_off_c, 0, 74, 64
3, 82320, Note_on_c, 0, 75, 64
3, 82560, Note_off_c, 0, 75, 64
3, 82560, Note_on_c, 0, 66, 64
3, 83040, Note_off_c, 0, 66, 64
3, 84000, Note_on_c, 0, 74, 64
3, 84720, Note_off_c, 0, 74, 64
3, 84720, Note_on_c, 0, 73, 64
3, 84960, Note_off_c, 0, 73, 64
3, 84960, Note_on_c, 0, 69, 64
3, 85200, Note_off_c, 0, 69, 64
3, 85200, Note_on_c, 0, 71, 64
3, 85440, Note_off_c, 0, 71, 64
3, 85440, Note_on_c, 0, 72, 64
3, 86640, Note_off_c, 0, 72, 64
3, 86640, Note_on_c, 0, 71, 64
3, 86880, Note_off_c, 0, 71, 64
3, 86880, Note_on_c, 0, 67, 64
3, 87120, Note_off_c, 0, 67, 64
3, 87120, Note_on_c, 0, 69, 64
3, 87360, Note_off_c, 0, 69, 64
3, 87360, Note_on_c, 0, 70, 64
3, 88560, Note_off_c, 0, 70, 64
3, 88560, Note_on_c, 0, 69, 64
3, 88800, Note_off_c, 0, 69, 64
3, 88800, Note_on_c, 0, 68, 64
3, 89040, Note_off_c, 0, 68, 64
3, 89040, Note_on_c, 0, 69, 64
3, 89280, Note_off_c, 0, 69, 64
3, 89280, Note_on_c, 0, 68, 64
3, 89520, Note_off_c, 0, 68, 64
3, 89520, Note_on_c, 0, 67, 64
3, 89760, Note_off_c, 0, 67, 64
3, 89760, Note_on_c, 0, 66, 64
3, 90000, Note_off_c, 0, 66, 64
3, 90000, Note_on_c, 0, 67, 64
3, 90240, Note_off_c, 0, 67, 64
3, 90240, Note_on_c, 0, 66, 64
3, 90480, Note_off_c, 0, 66, 64
3, 90480, Note_on_c, 0, 64, 64
3, 90720, Note_off_c, 0, 64, 64
3, 90720, Note_on_c, 0, 62, 64
3, 90960, Note_off_c, 0, 62, 64
3, 90960, Note_on_c, 0, 63, 64
3, 91200, Note_off_c, 0, 63, 64
3, 91200, Note_on_c, 0, 62, 64
3, 91440, Note_off_c, 0, 62, 64
3, 91440, Note_on_c, 0, 66, 64
3, 91680, Note_off_c, 0, 66, 64
3, 91680, Note_on_c, 0, 69, 64
3, 91920, Note_off_c, 0, 69, 64
3, 91920, Note_on_c, 0, 72, 64
3, 92160, Note_off_c, 0, 72, 64
3, 92160, Note_on_c, 0, 70, 64
3, 92400, Note_off_c, 0, 70, 64
3, 92400, Note_on_c, 0, 74, 64
3, 92640, Note_off_c, 0, 74, 64
3, 92640, Note_on_c, 0, 78, 64
3, 92880, Note_off_c, 0, 78, 64
3, 92880, Note_on_c, 0, 79, 64
3, 93120, Note_off_c, 0, 79, 64
3, 93120, Note_on_c, 0, 69, 64
3, 93360, Note_off_c, 0, 69, 64
3, 93360, Note_on_c, 0, 75, 64
3, 93600, Note_off_c, 0, 75, 64
3, 93600, Note_on_c, 0, 74, 64
3, 93840, Note_off_c, 0, 74, 64
3, 93840, Note_on_c, 0, 72, 64
3, 94080, Note_off_c, 0, 72, 64
3, 94080, Note_on_c, 0, 70, 64
3, 94200, Note_off_c, 0, 70, 64
3, 94200, Note_on_c, 0, 69, 64
3, 94320, Note_off_c, 0, 69, 64
3, 94320, Note_on_c, 0, 67, 64
3, 94440, Note_off_c, 0, 67, 64
3, 94440, Note_on_c, 0, 66, 64
3, 94560, Note_off_c, 0, 66, 64
3, 94560, Note_on_c, 0, 67, 64
3, 94680, Note_off_c, 0, 67, 64
3, 94680, Note_on_c, 0, 79, 64
3, 94800, Note_off_c, 0, 79, 64
3, 94800, Note_on_c, 0, 77, 64
3, 94920, Note_off_c, 0, 77, 64
3, 94920, Note_on_c, 0, 75, 64
3, 95040, Note_off_c, 0, 75, 64
3, 95040, Note_on_c, 0, 74, 64
3, 95160, Note_off_c, 0, 74, 64
3, 95160, Note_on_c, 0, 72, 64
3, 95280, Note_off_c, 0, 72, 64
3, 95280, Note_on_c, 0, 70, 64
3, 95400, Note_off_c, 0, 70, 64
3, 95400, Note_on_c, 0, 69, 64
3, 95520, Note_off_c, 0, 69, 64
3, 95520, Note_on_c, 0, 67, 64
3, 96000, Note_off_c, 0, 67, 64
3, 96240, Note_on_c, 0, 69, 64
3, 96480, Note_off_c, 0, 69, 64
3, 96480, Note_on_c, 0, 70, 64
3, 96720, Note_off_c, 0, 70, 64
3, 96720, Note_on_c, 0, 72, 64
3, 96960, Note_off_c, 0, 72, 64
3, 96960, Note_on_c, 0, 74, 64
3, 97200, Note_off_c, 0, 74, 64
3, 97200, Note_on_c, 0, 77, 64
3, 97440, Note_off_c, 0, 77, 64
3, 97440, Note_on_c, 0, 76, 64
3, 97680, Note_off_c, 0, 76, 64
3, 97680, Note_on_c, 0, 79, 64
3, 97920, Note_off_c, 0, 79, 64
3, 97920, Note_on_c, 0, 77, 64
3, 98160, Note_off_c, 0, 77, 64
3, 98160, Note_on_c, 0, 76, 64
3, 98280, Note_off_c, 0, 76, 64
3, 98280, Note_on_c, 0, 74, 64
3, 98400, Note_off_c, 0, 74, 64
3, 98400, Note_on_c, 0, 73, 64
3, 98880, Note_off_c, 0, 73, 64
3, 99120, Note_on_c, 0, 75, 64
3, 99360, Note_off_c, 0, 75, 64
3, 99360, Note_on_c, 0, 74, 64
3, 99600, Note_off_c, 0, 74, 64
3, 99600, Note_on_c, 0, 77, 64
3, 99840, Note_off_c, 0, 77, 64
3, 99840, Note_on_c, 0, 75, 64
3, 100080, Note_off_c, 0, 75, 64
3, 100080, Note_on_c, 0, 74, 64
3, 100200, Note_off_c, 0, 74, 64
3, 100200, Note_on_c, 0, 72, 64
3, 100320, Note_off_c, 0, 72, 64
3, 100320, Note_on_c, 0, 71, 64
3, 100800, Note_off_c, 0, 71, 64
3, 101040, Note_on_c, 0, 74, 64
3, 101280, Note_off_c, 0, 74, 64
3, 101280, Note_on_c, 0, 73, 64
3, 101520, Note_off_c, 0, 73, 64
3, 101520, Note_on_c, 0, 76, 64
3, 101760, Note_off_c, 0, 76, 64
3, 101760, Note_on_c, 0, 74, 64
3, 102000, Note_off_c, 0, 74, 64
3, 102000, Note_on_c, 0, 72, 64
3, 102240, Note_off_c, 0, 72, 64
3, 102240, Note_on_c, 0, 71, 64
3, 102480, Note_off_c, 0, 71, 64
3, 102480, Note_on_c, 0, 74, 64
3, 102720, Note_off_c, 0, 74, 64
3, 102720, Note_on_c, 0, 72, 64
3, 102960, Note_off_c, 0, 72, 64
3, 102960, Note_on_c, 0, 71, 64
3, 103200, Note_off_c, 0, 71, 64
3, 103200, Note_on_c, 0, 72, 64
3, 103920, Note_off_c, 0, 72, 64
3, 103920, Note_on_c, 0, 67, 64
3, 104160, Note_off_c, 0, 67, 64
3, 104160, Note_on_c, 0, 66, 64
3, 104400, Note_off_c, 0, 66, 64
3, 104400, Note_on_c, 0, 67, 64
3, 104640, Note_off_c, 0, 67, 64
3, 104640, Note_on_c, 0, 69, 64
3, 104880, Note_off_c, 0, 69, 64
3, 104880, Note_on_c, 0, 62, 64
3, 105120, Note_off_c, 0, 62, 64
3, 105120, Note_on_c, 0, 74, 64
3, 106080, Note_off_c, 0, 74, 64
3, 106080, Note_on_c, 0, 72, 64
3, 106320, Note_off_c, 0, 72, 64
3, 106320, Note_on_c, 0, 70, 64
3, 106560, Note_off_c, 0, 70, 64
3, 106560, Note_on_c, 0, 72, 64
3, 107040, Note_off_c, 0, 72, 64
3, 107040, Note_on_c, 0, 70, 64
3, 107280, Note_off_c, 0, 70, 64
3, 107280, Note_on_c, 0, 69, 64
3, 107520, Note_off_c, 0, 69, 64
3, 107520, Note_on_c, 0, 70, 64
3, 107640, Note_off_c, 0, 70, 64
3, 107640, Note_on_c, 0, 72, 64
3, 107760, Note_off_c, 0, 72, 64
3, 107760, Note_on_c, 0, 70, 64
3, 107880, Note_off_c, 0, 70, 64
3, 107880, Note_on_c, 0, 69, 64
3, 108000, Note_off_c, 0, 69, 64
3, 108000, Note_on_c, 0, 67, 64
3, 108720, Note_off_c, 0, 67, 64
3, 108720, Note_on_c, 0, 69, 64
3, 108960, Note_off_c, 0, 69, 64
3, 108960, Note_on_c, 0, 70, 64
3, 109200, Note_off_c, 0, 70, 64
3, 109200, Note_on_c, 0, 72, 64
3, 109440, Note_off_c, 0, 72, 64
3, 109440, Note_on_c, 0, 74, 64
3, 109680, Note_off_c, 0, 74, 64
3, 109680, Note_on_c, 0, 75, 64
3, 109920, Note_off_c, 0, 75, 64
3, 109920, Note_on_c, 0, 74, 64
3, 110160, Note_off_c, 0, 74, 64
3, 110160, Note_on_c, 0, 72, 64
3, 110400, Note_off_c, 0, 72, 64
3, 110400, Note_on_c, 0, 70, 64
3, 110640, Note_off_c, 0, 70, 64
3, 110640, Note_on_c, 0, 69, 64
3, 110880, Note_off_c, 0, 69, 64
3, 110880, Note_on_c, 0, 67, 64
3, 111120, Note_off_c, 0, 67, 64
3, 111120, Note_on_c, 0, 70, 64
3, 111360, Note_off_c, 0, 70, 64
3, 111360, Note_on_c, 0, 69, 64
3, 112560, Note_off_c, 0, 69, 64
3, 112560, Note_on_c, 0, 67, 64
3, 112800, Note_off_c, 0, 67, 64
3, 112800, Note_on_c, 0, 66, 64
3, 113040, Note_off_c, 0, 66, 64
3, 113040, Note_on_c, 0, 69, 64
3, 113280, Note_off_c, 0, 69, 64
3, 113280, Note_on_c, 0, 67, 64
3, 114480, Note_off_c, 0, 67, 64
3, 114480, Note_on_c, 0, 65, 64
3, 114720, Note_off_c, 0, 65, 64
3, 114720, Note_on_c, 0, 64, 64
3, 114960, Note_off_c, 0, 64, 64
3, 114960, Note_on_c, 0, 67, 64
3, 115200, Note_off_c, 0, 67, 64
3, 115200, Note_on_c, 0, 65, 64
3, 115680, Note_off_c, 0, 65, 64
3, 115920, Note_on_c, 0, 65, 64
3, 116160, Note_off_c, 0, 65, 64
3, 116160, Note_on_c, 0, 72, 64
3, 116640, Note_off_c, 0, 72, 64
3, 116880, Note_on_c, 0, 75, 64
3, 117120, Note_off_c, 0, 75, 64
3, 117120, Note_on_c, 0, 74, 64
3, 117600, Note_off_c, 0, 74, 64
3, 117840, Note_on_c, 0, 67, 64
3, 118080, Note_off_c, 0, 67, 64
3, 118080, Note_on_c, 0, 66, 64
3, 118560, Note_off_c, 0, 66, 64
3, 118800, Note_on_c, 0, 62, 64
3, 119040, Note_off_c, 0, 62, 64
3, 119040, Note_on_c, 0, 67, 64
3, 119520, Note_off_c, 0, 67, 64
3, 119520, Note_on_c, 0, 63, 64
3, 120000, Note_off_c, 0, 63, 64
3, 120000, Note_on_c, 0, 60, 64
3, 120480, Note_off_c, 0, 60, 64
3, 120480, Note_on_c, 0, 62, 64
3, 120960, Note_off_c, 0, 62, 64
3, 120960, Note_on_c, 0, 67, 64
3, 121200, Note_off_c, 0, 67, 64
3, 121200, Note_on_c, 0, 79, 64
3, 121320, Note_off_c, 0, 79, 64
3, 121320, Note_on_c, 0, 81, 64
3, 121440, Note_off_c, 0, 81, 64
3, 121440, Note_on_c, 0, 82, 64
3, 121680, Note_off_c, 0, 82, 64
3, 121680, Note_on_c, 0, 84, 64
3, 121920, Note_off_c, 0, 84, 64
3, 121920, Note_on_c, 0, 86, 64
3, 122640, Note_off_c, 0, 86, 64
3, 122640, Note_on_c, 0, 84, 64
3, 122760, Note_off_c, 0, 84, 64
3, 122760, Note_on_c, 0, 82, 64
3, 122880, Note_off_c, 0, 82, 64
3, 122880, Note_on_c, 0, 81, 64
3, 123120, Note_off_c, 0, 81, 64
3, 123120, Note_on_c, 0, 78, 64
3, 123360, Note_off_c, 0, 78, 64
3, 123360, Note_on_c, 0, 79, 64
3, 123600, Note_off_c, 0, 79, 64
3, 123600, Note_on_c, 0, 81, 64
3, 123840, Note_off_c, 0, 81, 64
3, 123840, Note_on_c, 0, 74, 64
3, 124320, Note_off_c, 0, 74, 64
3, 125040, Note_on_c, 0, 76, 64
3, 125280, Note_off_c, 0, 76, 64
3, 125280, Note_on_c, 0, 77, 64
3, 125520, Note_off_c, 0, 77, 64
3, 125520, Note_on_c, 0, 79, 64
3, 125760, Note_off_c, 0, 79, 64
3, 125760, Note_on_c, 0, 81, 64
3, 126720, Note_off_c, 0, 81, 64
3, 126960, Note_on_c, 0, 74, 64
3, 127200, Note_off_c, 0, 74, 64
3, 127200, Note_on_c, 0, 76, 64
3, 127440, Note_off_c, 0, 76, 64
3, 127440, Note_on_c, 0, 78, 64
3, 127680, Note_off_c, 0, 78, 64
3, 127680, Note_on_c, 0, 79, 64
3, 128640, Note_off_c, 0, 79, 64
3, 129120, Note_on_c, 0, 74, 64
3, 129600, Note_off_c, 0, 74, 64
3, 129600, Note_on_c, 0, 75, 64
3, 130080, Note_off_c, 0, 75, 64
3, 130080, Note_on_c, 0, 69, 64
3, 130560, Note_off_c, 0, 69, 64
3, 130560, Note_on_c, 0, 81, 64
3, 130680, Note_off_c, 0, 81, 64
3, 130680, Note_on_c, 0, 82, 64
3, 130800, Note_off_c, 0, 82, 64
3, 130800, Note_on_c, 0, 84, 64
3, 131280, Note_off_c, 0, 84, 64
3, 131280, Note_on_c, 0, 82, 64
3, 131520, Note_off_c, 0, 82, 64
3, 131520, Note_on_c, 0, 84, 64
3, 131760, Note_off_c, 0, 84, 64
3, 131760, Note_on_c, 0, 81, 64
3, 132000, Note_off_c, 0, 81, 64
3, 132000, Note_on_c, 0, 78, 64
3, 132480, Note_off_c, 0, 78, 64
3, 132480, Note_on_c, 0, 79, 64
3, 132960, Note_off_c, 0, 79, 64
3, 133200, Note_on_c, 0, 70, 64
3, 133440, Note_off_c, 0, 70, 64
3, 133440, Note_on_c, 0, 75, 64
3, 133920, Note_off_c, 0, 75, 64
3, 134160, Note_on_c, 0, 66, 64
3, 134400, Note_off_c, 0, 66, 64
3, 134400, Note_on_c, 0, 67, 64
3, 134880, Note_off_c, 0, 67, 64
3, 134880, Note_on_c, 0, 67, 64
3, 135120, Note_off_c, 0, 67, 64
3, 135120, Note_on_c, 0, 69, 64
3, 135360, Note_off_c, 0, 69, 64
3, 135360, Note_on_c, 0, 70, 64
3, 135600, Note_off_c, 0, 70, 64
3, 135600, Note_on_c, 0, 72, 64
3, 135840, Note_off_c, 0, 72, 64
3, 135840, Note_on_c, 0, 74, 64
3, 136080, Note_off_c, 0, 74, 64
3, 136080, Note_on_c, 0, 75, 64
3, 136320, Note_off_c, 0, 75, 64
3, 136320, Note_on_c, 0, 66, 64
3, 136800, Note_off_c, 0, 66, 64
3, 137760, Note_on_c, 0, 74, 64
3, 138480, Note_off_c, 0, 74, 64
3, 138480, Note_on_c, 0, 73, 64
3, 138720, Note_off_c, 0, 73, 64
3, 138720, Note_on_c, 0, 69, 64
3, 138960, Note_off_c, 0, 69, 64
3, 138960, Note_on_c, 0, 71, 64
3, 139200, Note_off_c, 0, 71, 64
3, 139200, Note_on_c, 0, 72, 64
3, 140400, Note_off_c, 0, 72, 64
3, 140400, Note_on_c, 0, 71, 64
3, 140640, Note_off_c, 0, 71, 64
3, 140640, Note_on_c, 0, 67, 64
3, 140880, Note_off_c, 0, 67, 64
3, 140880, Note_on_c, 0, 69, 64
3, 141120, Note_off_c, 0, 69, 64
3, 141120, Note_on_c, 0, 70, 64
3, 142320, Note_off_c, 0, 70, 64
3, 142320, Note_on_c, 0, 69, 64
3, 142560, Note_off_c, 0, 69, 64
3, 142560, Note_on_c, 0, 68, 64
3, 142800, Note_off_c, 0, 68, 64
3, 142800, Note_on_c, 0, 69, 64
3, 143040, Note_off_c, 0, 69, 64
3, 143040, Note_on_c, 0, 68, 64
3, 143280, Note_off_c, 0, 68, 64
3, 143280, Note_on_c, 0, 67, 64
3, 143520, Note_off_c, 0, 67, 64
3, 143520, Note_on_c, 0, 66, 64
3, 143760, Note_off_c, 0, 66, 64
3, 143760, Note_on_c, 0, 67, 64
3, 144000, Note_off_c, 0, 67, 64
3, 144000, Note_on_c, 0, 66, 64
3, 144240, Note_off_c, 0, 66, 64
3, 144240, Note_on_c, 0, 64, 64
3, 144480, Note_off_c, 0, 64, 64
3, 144480, Note_on_c, 0, 62, 64
3, 144720, Note_off_c, 0, 62, 64
3, 144720, Note_on_c, 0, 63, 64
3, 144960, Note_off_c, 0, 63, 64
3, 144960, Note_on_c, 0, 62, 64
3, 145200, Note_off_c, 0, 62, 64
3, 145200, Note_on_c, 0, 66, 64
3, 145440, Note_off_c, 0, 66, 64
3, 145440, Note_on_c, 0, 69, 64
3, 145680, Note_off_c, 0, 69, 64
3, 145680, Note_on_c, 0, 72, 64
3, 145920, Note_off_c, 0, 72, 64
3, 145920, Note_on_c, 0, 70, 64
3, 146160, Note_off_c, 0, 70, 64
3, 146160, Note_on_c, 0, 74, 64
3, 146400, Note_off_c, 0, 74, 64
3, 146400, Note_on_c, 0, 78, 64
3, 146640, Note_off_c, 0, 78, 64
3, 146640, Note_on_c, 0, 79, 64
3, 146880, Note_off_c, 0, 79, 64
3, 146880, Note_on_c, 0, 69, 64
3, 147120, Note_off_c, 0, 69, 64
3, 147120, Note_on_c, 0, 75, 64
3, 147360, Note_off_c, 0, 75, 64
3, 147360, Note_on_c, 0, 74, 64
3, 147600, Note_off_c, 0, 74, 64
3, 147600, Note_on_c, 0, 72, 64
3, 147840, Note_off_c, 0, 72, 64
3, 147840, Note_on_c, 0, 70, 64
3, 147960, Note_off_c, 0, 70, 64
3, 147960, Note_on_c, 0, 69, 64
3, 148080, Note_off_c, 0, 69, 64
3, 148080, Note_on_c, 0, 67, 64
3, 148200, Note_off_c, 0, 67, 64
3, 148200, Note_on_c, 0, 66, 64
3, 148320, Note_off_c, 0, 66, 64
3, 148320, Note_on_c, 0, 67, 64
3, 148440, Note_off_c, 0, 67, 64
3, 148440, Note_on_c, 0, 79, 64
3, 148560, Note_off_c, 0, 79, 64
3, 148560, Note_on_c, 0, 77, 64
3, 148680, Note_off_c, 0, 77, 64
3, 148680, Note_on_c, 0, 75, 64
3, 148800, Note_off_c, 0, 75, 64
3, 148800, Note_on_c, 0, 74, 64
3, 148920, Note_off_c, 0, 74, 64
3, 148920, Note_on_c, 0, 72, 64
3, 149040, Note_off_c, 0, 72, 64
3, 149040, Note_on_c, 0, 70, 64
3, 149160, Note_off_c, 0, 70, 64
3, 149160, Note_on_c, 0, 69, 64
3, 149280, Note_off_c, 0, 69, 64
3, 149280, Note_on_c, 0, 67, 64
3, 149760, Note_off_c, 0, 67, 64
3, 150000, Note_on_c, 0, 69, 64
3, 150240, Note_off_c, 0, 69, 64
3, 150240, Note_on_c, 0, 70, 64
3, 150480, Note_off_c, 0, 70, 64
3, 150480, Note_on_c, 0, 72, 64
3, 150720, Note_off_c, 0, 72, 64
3, 150720, Note_on_c, 0, 74, 64
3, 150960, Note_off_c, 0, 74, 64
3, 150960, Note_on_c, 0, 77, 64
3, 151200, Note_off_c, 0, 77, 64
3, 151200, Note_on_c, 0, 76, 64
3, 151440, Note_off_c, 0, 76, 64
3, 151440, Note_on_c, 0, 79, 64
3, 151680, Note_off_c, 0, 79, 64
3, 151680, Note_on_c, 0, 77, 64
3, 151920, Note_off_c, 0, 77, 64
3, 151920, Note_on_c, 0, 76, 64
3, 152040, Note_off_c, 0, 76, 64
3, 152040, Note_on_c, 0, 74, 64
3, 152160, Note_off_c, 0, 74, 64
3, 152160, Note_on_c, 0, 73, 64
3, 152640, Note_off_c, 0, 73, 64
3, 152880, Note_on_c, 0, 75, 64
3, 153120, Note_off_c, 0, 75, 64
3, 153120, Note_on_c, 0, 74, 64
3, 153360, Note_off_c, 0, 74, 64
3, 153360, Note_on_c, 0, 77, 64
3, 153600, Note_off_c, 0, 77, 64
3, 153600, Note_on_c, 0, 75, 64
3, 153840, Note_off_c, 0, 75, 64
3, 153840, Note_on_c, 0, 74, 64
3, 153960, Note_off_c, 0, 74, 64
3, 153960, Note_on_c, 0, 72, 64
3, 154080, Note_off_c, 0, 72, 64
3, 154080, Note_on_c, 0, 71, 64
3, 154560, Note_off_c, 0, 71, 64
3, 154800, Note_on_c, 0, 74, 64
3, 155040, Note_off_c, 0, 74, 64
3, 155040, Note_on_c, 0, 73, 64
3, 155280, Note_off_c, 0, 73, 64
3, 155280, Note_on_c, 0, 76, 64
3, 155520, Note_off_c, 0, 76, 64
3, 155520, Note_on_c, 0, 74, 64
3, 155760, Note_off_c, 0, 74, 64
3, 155760, Note_on_c, 0, 72, 64
3, 156000, Note_off_c, 0, 72, 64
3, 156000, Note_on_c, 0, 71, 64
3, 156240, Note_off_c, 0, 71, 64
3, 156240, Note_on_c, 0, 74, 64
3, 156480, Note_off_c, 0, 74, 64
3, 156480, Note_on_c, 0, 72, 64
3, 156720, Note_off_c, 0, 72, 64
3, 156720, Note_on_c, 0, 71, 64
3, 156960, Note_off_c, 0, 71, 64
3, 156960, Note_on_c, 0, 72, 64
3, 157680, Note_off_c, 0, 72, 64
3, 157680, Note_on_c, 0, 67, 64
3, 157920, Note_off_c, 0, 67, 64
3, 157920, Note_on_c, 0, 66, 64
3, 158160, Note_off_c, 0, 66, 64
3, 158160, Note_on_c, 0, 67, 64
3, 158400, Note_off_c, 0, 67, 64
3, 158400, Note_on_c, 0, 69, 64
3, 158640, Note_off_c, 0, 69, 64
3, 158640, Note_on_c, 0, 62, 64
3, 158880, Note_off_c, 0, 62, 64
3, 158880, Note_on_c, 0, 74, 64
3, 159840, Note_off_c, 0, 74, 64
3, 159840, Note_on_c, 0, 72, 64
3, 160080, Note_off_c, 0, 72, 64
3, 160080, Note_on_c, 0, 70, 64
3, 160320, Note_off_c, 0, 70, 64
3, 160320, Note_on_c, 0, 72, 64
3, 160800, Note_off_c, 0, 72, 64
3, 160800, Note_on_c, 0, 70, 64
3, 161040, Note_off_c, 0, 70, 64
3, 161040, Note_on_c, 0, 69, 64
3, 161280, Note_off_c, 0, 69, 64
3, 161280, Note_on_c, 0, 70, 64
3, 162240, Note_off_c, 0, 70, 64
3, 162240, End_track
4, 0, Start_track
4, 0, Text_t, "Voce 30-"
4, 13920, Note_on_c, 0, 43, 64
4, 14160, Note_off_c, 0, 43, 64
4, 14160, Note_on_c, 0, 45, 64
4, 14400, Note_off_c, 0, 45, 64
4, 14400, Note_on_c, 0, 46, 64
4, 14640, Note_off_c, 0, 46, 64
4, 14640, Note_on_c, 0, 48, 64
4, 14880, Note_off_c, 0, 48, 64
4, 14880, Note_on_c, 0, 50, 64
4, 15120, Note_off_c, 0, 50, 64
4, 15120, Note_on_c, 0, 51, 64
4, 15360, Note_off_c, 0, 51, 64
4, 15360, Note_on_c, 0, 42, 64
4, 15840, Note_off_c, 0, 42, 64
4, 16800, Note_on_c, 0, 50, 64
4, 17520, Note_off_c, 0, 50, 64
4, 17520, Note_on_c, 0, 49, 64
4, 17760, Note_off_c, 0, 49, 64
4, 17760, Note_on_c, 0, 45, 64
4, 18000, Note_off_c, 0, 45, 64
4, 18000, Note_on_c, 0, 47, 64
4, 18240, Note_off_c, 0, 47, 64
4, 18240, Note_on_c, 0, 48, 64
4, 19440, Note_off_c, 0, 48, 64
4, 19440, Note_on_c, 0, 47, 64
4, 19680, Note_off_c, 0, 47, 64
4, 19680, Note_on_c, 0, 43, 64
4, 19920, Note_off_c, 0, 43, 64
4, 19920, Note_on_c, 0, 45, 64
4, 20160, Note_off_c, 0, 45, 64
4, 20160, Note_on_c, 0, 46, 64
4, 21360, Note_off_c, 0, 46, 64
4, 21360, Note_on_c, 0, 45, 64
4, 21600, Note_off_c, 0, 45, 64
4, 21600, Note_on_c, 0, 44, 64
4, 21840, Note_off_c, 0, 44, 64
4, 21840, Note_on_c, 0, 45, 64
4, 22080, Note_off_c, 0, 45, 64
4, 22080, Note_on_c, 0, 44, 64
4, 22320, Note_off_c, 0, 44, 64
4, 22320, Note_on_c, 0, 43, 64
4, 22560, Note_off_c, 0, 43, 64
4, 22560, Note_on_c, 0, 42, 64
4, 22800, Note_off_c, 0, 42, 64
4, 22800, Note_on_c, 0, 43, 64
4, 23040, Note_off_c, 0, 43, 64
4, 23040, Note_on_c, 0, 42, 64
4, 23280, Note_off_c, 0, 42, 64
4, 23280, Note_on_c, 0, 40, 64
4, 23520, Note_off_c, 0, 40, 64
4, 23520, Note_on_c, 0, 38, 64
4, 23760, Note_off_c, 0, 38, 64
4, 23760, Note_on_c, 0, 39, 64
4, 24000, Note_off_c, 0, 39, 64
4, 24000, Note_on_c, 0, 38, 64
4, 24240, Note_off_c, 0, 38, 64
4, 24240, Note_on_c, 0, 42, 64
4, 24480, Note_off_c, 0, 42, 64
4, 24480, Note_on_c, 0, 45, 64
4, 24720, Note_off_c, 0, 45, 64
4, 24720, Note_on_c, 0, 48, 64
4, 24960, Note_off_c, 0, 48, 64
4, 24960, Note_on_c, 0, 46, 64
4, 25200, Note_off_c, 0, 46, 64
4, 25200, Note_on_c, 0, 50, 64
4, 25440, Note_off_c, 0, 50, 64
4, 25440, Note_on_c, 0, 54, 64
4, 25680, Note_off_c, 0, 54, 64
4, 25680, Note_on_c, 0, 55, 64
4, 25920, Note_off_c, 0, 55, 64
4, 25920, Note_on_c, 0, 45, 64
4, 26160, Note_off_c, 0, 45, 64
4, 26160, Note_on_c, 0, 51, 64
4, 26400, Note_off_c, 0, 51, 64
4, 26400, Note_on_c, 0, 50, 64
4, 26640, Note_off_c, 0, 50, 64
4, 26640, Note_on_c, 0, 48, 64
4, 26880, Note_off_c, 0, 48, 64
4, 26880, Note_on_c, 0, 46, 64
4, 27000, Note_off_c, 0, 46, 64
4, 27000, Note_on_c, 0, 45, 64
4, 27120, Note_off_c, 0, 45, 64
4, 27120, Note_on_c, 0, 43, 64
4, 27240, Note_off_c, 0, 43, 64
4, 27240, Note_on_c, 0, 42, 64
4, 27360, Note_off_c, 0, 42, 64
4, 27360, Note_on_c, 0, 43, 64
4, 27480, Note_off_c, 0, 43, 64
4, 27480, Note_on_c, 0, 55, 64
4, 27600, Note_off_c, 0, 55, 64
4, 27600, Note_on_c, 0, 53, 64
4, 27720, Note_off_c, 0, 53, 64
4, 27720, Note_on_c, 0, 51, 64
4, 27840, Note_off_c, 0, 51, 64
4, 27840, Note_on_c, 0, 50, 64
4, 27960, Note_off_c, 0, 50, 64
4, 27960, Note_on_c, 0, 48, 64
4, 28080, Note_off_c, 0, 48, 64
4, 28080, Note_on_c, 0, 46, 64
4, 28200, Note_off_c, 0, 46, 64
4, 28200, Note_on_c, 0, 45, 64
4, 28320, Note_off_c, 0, 45, 64
4, 28320, Note_on_c, 0, 43, 64
4, 28800, Note_off_c, 0, 43, 64
4, 29040, Note_on_c, 0, 45, 64
4, 29280, Note_off_c, 0, 45, 64
4, 29280, Note_on_c, 0, 46, 64
4, 29520, Note_off_c, 0, 46, 64
4, 29520, Note_on_c, 0, 48, 64
4, 29760, Note_off_c, 0, 48, 64
4, 29760, Note_on_c, 0, 50, 64
4, 30000, Note_off_c, 0, 50, 64
4, 30000, Note_on_c, 0, 53, 64
4, 30240, Note_off_c, 0, 53, 64
4, 30240, Note_on_c, 0, 52, 64
4, 30480, Note_off_c, 0, 52, 64
4, 30480, Note_on_c, 0, 55, 64
4, 30720, Note_off_c, 0, 55, 64
4, 30720, Note_on_c, 0, 53, 64
4, 30960, Note_off_c, 0, 53, 64
4, 30960, Note_on_c, 0, 52, 64
4, 31080, Note_off_c, 0, 52, 64
4, 31080, Note_on_c, 0, 50, 64
4, 31200, Note_off_c, 0, 50, 64
4, 31200, Note_on_c, 0, 49, 64
4, 31680, Note_off_c, 0, 49, 64
4, 31920, Note_on_c, 0, 51, 64
4, 32160, Note_off_c, 0, 51, 64
4, 32160, Note_on_c, 0, 50, 64
4, 32400, Note_off_c, 0, 50, 64
4, 32400, Note_on_c, 0, 53, 64
4, 32640, Note_off_c, 0, 53, 64
4, 32640, Note_on_c, 0, 51, 64
4, 32880, Note_off_c, 0, 51, 64
4, 32880, Note_on_c, 0, 50, 64
4, 33000, Note_off_c, 0, 50, 64
4, 33000, Note_on_c, 0, 48, 64
4, 33120, Note_off_c, 0, 48, 64
4, 33120, Note_on_c, 0, 47, 64
4, 33600, Note_off_c, 0, 47, 64
4, 33840, Note_on_c, 0, 50, 64
4, 34080, Note_off_c, 0, 50, 64
4, 34080, Note_on_c, 0, 49, 64
4, 34320, Note_off_c, 0, 49, 64
4, 34320, Note_on_c, 0, 52, 64
4, 34560, Note_off_c, 0, 52, 64
4, 34560, Note_on_c, 0, 50, 64
4, 34800, Note_off_c, 0, 50, 64
4, 34800, Note_on_c, 0, 48, 64
4, 35040, Note_off_c, 0, 48, 64
4, 35040, Note_on_c, 0, 47, 64
4, 35280, Note_off_c, 0, 47, 64
4, 35280, Note_on_c, 0, 50, 64
4, 35520, Note_off_c, 0, 50, 64
4, 35520, Note_on_c, 0, 48, 64
4, 35760, Note_off_c, 0, 48, 64
4, 35760, Note_on_c, 0, 47, 64
4, 36000, Note_off_c, 0, 47, 64
4, 36000, Note_on_c, 0, 48, 64
4, 36720, Note_off_c, 0, 48, 64
4, 36720, Note_on_c, 0, 43, 64
4, 36960, Note_off_c, 0, 43, 64
4, 36960, Note_on_c, 0, 42, 64
4, 37200, Note_off_c, 0, 42, 64
4, 37200, Note_on_c, 0, 43, 64
4, 37440, Note_off_c, 0, 43, 64
4, 37440, Note_on_c, 0, 45, 64
4, 37680, Note_off_c, 0, 45, 64
4, 37680, Note_on_c, 0, 38, 64
4, 37920, Note_off_c, 0, 38, 64
4, 37920, Note_on_c, 0, 50, 64
4, 38880, Note_off_c, 0, 50, 64
4, 38880, Note_on_c, 0, 48, 64
4, 39120, Note_off_c, 0, 48, 64
4, 39120, Note_on_c, 0, 46, 64
4, 39360, Note_off_c, 0, 46, 64
4, 39360, Note_on_c, 0, 48, 64
4, 39840, Note_off_c, 0, 48, 64
4, 39840, Note_on_c, 0, 46, 64
4, 40080, Note_off_c, 0, 46, 64
4, 40080, Note_on_c, 0, 45, 64
4, 40320, Note_off_c, 0, 45, 64
4, 40320, Note_on_c, 0, 46, 64
4, 40440, Note_off_c, 0, 46, 64
4, 40440, Note_on_c, 0, 48, 64
4, 40560, Note_off_c, 0, 48, 64
4, 40560, Note_on_c, 0, 46, 64
4, 40680, Note_off_c, 0, 46, 64
4, 40680, Note_on_c, 0, 45, 64
4, 40800, Note_off_c, 0, 45, 64
4, 40800, Note_on_c, 0, 43, 64
4, 41520, Note_off_c, 0, 43, 64
4, 41520, Note_on_c, 0, 45, 64
4, 41760, Note_off_c, 0, 45, 64
4, 41760, Note_on_c, 0, 46, 64
4, 42000, Note_off_c, 0, 46, 64
4, 42000, Note_on_c, 0, 48, 64
4, 42240, Note_off_c, 0, 48, 64
4, 42240, Note_on_c, 0, 50, 64
4, 42480, Note_off_c, 0, 50, 64
4, 42480, Note_on_c, 0, 51, 64
4, 42720, Note_off_c, 0, 51, 64
4, 42720, Note_on_c, 0, 50, 64
4, 42960, Note_off_c, 0, 50, 64
4, 42960, Note_on_c, 0, 48, 64
4, 43200, Note_off_c, 0, 48, 64
4, 43200, Note_on_c, 0, 46, 64
4, 43440, Note_off_c, 0, 46, 64
4, 43440, Note_on_c, 0, 45, 64
4, 43680, Note_off_c, 0, 45, 64
4, 43680, Note_on_c, 0, 43, 64
4, 43920, Note_off_c, 0, 43, 64
4, 43920, Note_on_c, 0, 46, 64
4, 44160, Note_off_c, 0, 46, 64
4, 44160, Note_on_c, 0, 45, 64
4, 45360, Note_off_c, 0, 45, 64
4, 45360, Note_on_c, 0, 43, 64
4, 45600, Note_off_c, 0, 43, 64
4, 45600, Note_on_c, 0, 42, 64
4, 45840, Note_off_c, 0, 42, 64
4, 45840, Note_on_c, 0, 45, 64
4, 46080, Note_off_c, 0, 45, 64
4, 46080, Note_on_c, 0, 43, 64
4, 47280, Note_off_c, 0, 43, 64
4, 47280, Note_on_c, 0, 41, 64
4, 47520, Note_off_c, 0, 41, 64
4, 47520, Note_on_c, 0, 40, 64
4, 47760, Note_off_c, 0, 40, 64
4, 47760, Note_on_c, 0, 43, 64
4, 48000, Note_off_c, 0, 43, 64
4, 48000, Note_on_c, 0, 41, 64
4, 48480, Note_off_c, 0, 41, 64
4, 48720, Note_on_c, 0, 41, 64
4, 48960, Note_off_c, 0, 41, 64
4, 48960, Note_on_c, 0, 48, 64
4, 49440, Note_off_c, 0, 48, 64
4, 49680, Note_on_c, 0, 51, 64
4, 49920, Note_off_c, 0, 51, 64
4, 49920, Note_on_c, 0, 50, 64
4, 50400, Note_off_c, 0, 50, 64
4, 50640, Note_on_c, 0, 43, 64
4, 50880, Note_off_c, 0, 43, 64
4, 50880, Note_on_c, 0, 42, 64
4, 51360, Note_off_c, 0, 42, 64
4, 51600, Note_on_c, 0, 38, 64
4, 51840, Note_off_c, 0, 38, 64
4, 51840, Note_on_c, 0, 43, 64
4, 52320, Note_off_c, 0, 43, 64
4, 52320, Note_on_c, 0, 39, 64
4, 52800, Note_off_c, 0, 39, 64
4, 52800, Note_on_c, 0, 36, 64
4, 53280, Note_off_c, 0, 36, 64
4, 53280, Note_on_c, 0, 38, 64
4, 53760, Note_off_c, 0, 38, 64
4, 53760, Note_on_c, 0, 43, 64
4, 54000, Note_off_c, 0, 43, 64
4, 54000, Note_on_c, 0, 55, 64
4, 54120, Note_off_c, 0, 55, 64
4, 54120, Note_on_c, 0, 57, 64
4, 54240, Note_off_c, 0, 57, 64
4, 54240, Note_on_c, 0, 58, 64
4, 54480, Note_off_c, 0, 58, 64
4, 54480, Note_on_c, 0, 60, 64
4, 54720, Note_off_c, 0, 60, 64
4, 54720, Note_on_c, 0, 62, 64
4, 55440, Note_off_c, 0, 62, 64
4, 55440, Note_on_c, 0, 60, 64
4, 55560, Note_off_c, 0, 60, 64
4, 55560, Note_on_c, 0, 58, 64
4, 55680, Note_off_c, 0, 58, 64
4, 55680, Note_on_c, 0, 57, 64
4, 55920, Note_off_c, 0, 57, 64
4, 55920, Note_on_c, 0, 54, 64
4, 56160, Note_off_c, 0, 54, 64
4, 56160, Note_on_c, 0, 55, 64
4, 56400, Note_off_c, 0, 55, 64
4, 56400, Note_on_c, 0, 57, 64
4, 56640, Note_off_c, 0, 57, 64
4, 56640, Note_on_c, 0, 50, 64
4, 57120, Note_off_c, 0, 50, 64
4, 57840, Note_on_c, 0, 52, 64
4, 58080, Note_off_c, 0, 52, 64
4, 58080, Note_on_c, 0, 53, 64
4, 58320, Note_off_c, 0, 53, 64
4, 58320, Note_on_c, 0, 55, 64
4, 58560, Note_off_c, 0, 55, 64
4, 58560, Note_on_c, 0, 57, 64
4, 59520, Note_off_c, 0, 57, 64
4, 59760, Note_on_c, 0, 50, 64
4, 60000, Note_off_c, 0, 50, 64
4, 60000, Note_on_c, 0, 52, 64
4, 60240, Note_off_c, 0, 52, 64
4, 60240, Note_on_c, 0, 54, 64
4, 60480, Note_off_c, 0, 54, 64
4, 60480, Note_on_c, 0, 55, 64
4, 61440, Note_off_c, 0, 55, 64
4, 61920, Note_on_c, 0, 50, 64
4, 62400, Note_off_c, 0, 50, 64
4, 62400, Note_on_c, 0, 51, 64
4, 62880, Note_off_c, 0, 51, 64
4, 62880, Note_on_c, 0, 45, 64
4, 63360, Note_off_c, 0, 45, 64
4, 63360, Note_on_c, 0, 57, 64
4, 63480, Note_off_c, 0, 57, 64
4, 63480, Note_on_c, 0, 58, 64
4, 63600, Note_off_c, 0, 58, 64
4, 63600, Note_on_c, 0, 60, 64
4, 64080, Note_off_c, 0, 60, 64
4, 64080, Note_on_c, 0, 58, 64
4, 64320, Note_off_c, 0, 58, 64
4, 64320, Note_on_c, 0, 60, 64
4, 64560, Note_off_c, 0, 60, 64
4, 64560, Note_on_c, 0, 57, 64
4, 64800, Note_off_c, 0, 57, 64
4, 64800, Note_on_c, 0, 54, 64
4, 65280, Note_off_c, 0, 54, 64
4, 65280, Note_on_c, 0, 55, 64
4, 65760, Note_off_c, 0, 55, 64
4, 66000, Note_on_c, 0, 46, 64
4, 66240, Note_off_c, 0, 46, 64
4, 66240, Note_on_c, 0, 51, 64
4, 66720, Note_off_c, 0, 51, 64
4, 66960, Note_on_c, 0, 42, 64
4, 67200, Note_off_c, 0, 42, 64
4, 67200, Note_on_c, 0, 43, 64
4, 67680, Note_off_c, 0, 43, 64
4, 67680, Note_on_c, 0, 43, 64
4, 67920, Note_off_c, 0, 43, 64
4, 67920, Note_on_c, 0, 45, 64
4, 68160, Note_off_c, 0, 45, 64
4, 68160, Note_on_c, 0, 46, 64
4, 68400, Note_off_c, 0, 46, 64
4, 68400, Note_on_c, 0, 48, 64
4, 68640, Note_off_c, 0, 48, 64
4, 68640, Note_on_c, 0, 50, 64
4, 68880, Note_off_c, 0, 50, 64
4, 68880, Note_on_c, 0, 51, 64
4, 69120, Note_off_c, 0, 51, 64
4, 69120, Note_on_c, 0, 42, 64
4, 69600, Note_off_c, 0, 42, 64
4, 70560, Note_on_c, 0, 50, 64
4, 71280, Note_off_c, 0, 50, 64
4, 71280, Note_on_c, 0, 49, 64
4, 71520, Note_off_c, 0, 49, 64
4, 71520, Note_on_c, 0, 45, 64
4, 71760, Note_off_c, 0, 45, 64
4, 71760, Note_on_c, 0, 47, 64
4, 72000, Note_off_c, 0, 47, 64
4, 72000, Note_on_c, 0, 48, 64
4, 73200, Note_off_c, 0, 48, 64
4, 73200, Note_on_c, 0, 47, 64
4, 73440, Note_off_c, 0, 47, 64
4, 73440, Note_on_c, 0, 43, 64
4, 73680, Note_off_c, 0, 43, 64
4, 73680, Note_on_c, 0, 45, 64
4, 73920, Note_off_c, 0, 45, 64
4, 73920, Note_on_c, 0, 46, 64
4, 75120, Note_off_c, 0, 46, 64
4, 75120, Note_on_c, 0, 45, 64
4, 75360, Note_off_c, 0, 45, 64
4, 75360, Note_on_c, 0, 44, 64
4, 75600, Note_off_c, 0, 44, 64
4, 75600, Note_on_c, 0, 45, 64
4, 75840, Note_off_c, 0, 45, 64
4, 75840, Note_on_c, 0, 44, 64
4, 76080, Note_off_c, 0, 44, 64
4, 76080, Note_on_c, 0, 43, 64
4, 76320, Note_off_c, 0, 43, 64
4, 76320, Note_on_c, 0, 42, 64
4, 76560, Note_off_c, 0, 42, 64
4, 76560, Note_on_c, 0, 43, 64
4, 76800, Note_off_c, 0, 43, 64
4, 76800, Note_on_c, 0, 42, 64
4, 77040, Note_off_c, 0, 42, 64
4, 77040, Note_on_c, 0, 40, 64
4, 77280, Note_off_c, 0, 40, 64
4, 77280, Note_on_c, 0, 38, 64
4, 77520, Note_off_c, 0, 38, 64
4, 77520, Note_on_c, 0, 39, 64
4, 77760, Note_off_c, 0, 39, 64
4, 77760, Note_on_c, 0, 38, 64
4, 78000, Note_off_c, 0, 38, 64
4, 78000, Note_on_c, 0, 42, 64
4, 78240, Note_off_c, 0, 42, 64
4, 78240, Note_on_c, 0, 45, 64
4, 78480, Note_off_c, 0, 45, 64
4, 78480, Note_on_c, 0, 48, 64
4, 78720, Note_off_c, 0, 48, 64
4, 78720, Note_on_c, 0, 46, 64
4, 78960, Note_off_c, 0, 46, 64
4, 78960, Note_on_c, 0, 50, 64
4, 79200, Note_off_c, 0, 50, 64
4, 79200, Note_on_c, 0, 54, 64
4, 79440, Note_off_c, 0, 54, 64
4, 79440, Note_on_c, 0, 55, 64
4, 79680, Note_off_c, 0, 55, 64
4, 79680, Note_on_c, 0, 45, 64
4, 79920, Note_off_c, 0, 45, 64
4, 79920, Note_on_c, 0, 51, 64
4, 80160, Note_off_c, 0, 51, 64
4, 80160, Note_on_c, 0, 50, 64
4, 80400, Note_off_c, 0, 50, 64
4, 80400, Note_on_c, 0, 48, 64
4, 80640, Note_off_c, 0, 48, 64
4, 80640, Note_on_c, 0, 46, 64
4, 80760, Note_off_c, 0, 46, 64
4, 80760, Note_on_c, 0, 45, 64
4, 80880, Note_off_c, 0, 45, 64
4, 80880, Note_on_c, 0, 43, 64
4, 81000, Note_off_c, 0, 43, 64
4, 81000, Note_on_c, 0, 42, 64
4, 81120, Note_off_c, 0, 42, 64
4, 81120, Note_on_c, 0, 43, 64
4, 81240, Note_off_c, 0, 43, 64
4, 81240, Note_on_c, 0, 55, 64
4, 81360, Note_off_c, 0, 55, 64
4, 81360, Note_on_c, 0, 53, 64
4, 81480, Note_off_c, 0, 53, 64
4, 81480, Note_on_c, 0, 51, 64
4, 81600, Note_off_c, 0, 51, 64
4, 81600, Note_on_c, 0, 50, 64
4, 81720, Note_off_c, 0, 50, 64
4, 81720, Note_on_c, 0, 48, 64
4, 81840, Note_off_c, 0, 48, 64
4, 81840, Note_on_c, 0, 46, 64
4, 81960, Note_off_c, 0, 46, 64
4, 81960, Note_on_c, 0, 45, 64
4, 82080, Note_off_c, 0, 45, 64
4, 82080, Note_on_c, 0, 43, 64
4, 82560, Note_off_c, 0, 43, 64
4, 82800, Note_on_c, 0, 45, 64
4, 83040, Note_off_c, 0, 45, 64
4, 83040, Note_on_c, 0, 46, 64
4, 83280, Note_off_c, 0, 46, 64
4, 83280, Note_on_c, 0, 48, 64
4, 83520, Note_off_c, 0, 48, 64
4, 83520, Note_on_c, 0, 50, 64
4, 83760, Note_off_c, 0, 50, 64
4, 83760, Note_on_c, 0, 53, 64
4, 84000, Note_off_c, 0, 53, 64
4, 84000, Note_on_c, 0, 52, 64
4, 84240, Note_off_c, 0, 52, 64
4, 84240, Note_on_c, 0, 55, 64
4, 84480, Note_off_c, 0, 55, 64
4, 84480, Note_on_c, 0, 53, 64
4, 84720, Note_off_c, 0, 53, 64
4, 84720, Note_on_c, 0, 52, 64
4, 84840, Note_off_c, 0, 52, 64
4, 84840, Note_on_c, 0, 50, 64
4, 84960, Note_off_c, 0, 50, 64
4, 84960, Note_on_c, 0, 49, 64
4, 85440, Note_off_c, 0, 49, 64
4, 85680, Note_on_c, 0, 51, 64
4, 85920, Note_off_c, 0, 51, 64
4, 85920, Note_on_c, 0, 50, 64
4, 86160, Note_off_c, 0, 50, 64
4, 86160, Note_on_c, 0, 53, 64
4, 86400, Note_off_c, 0, 53, 64
4, 86400, Note_on_c, 0, 51, 64
4, 86640, Note_off_c, 0, 51, 64
4, 86640, Note_on_c, 0, 50, 64
4, 86760, Note_off_c, 0, 50, 64
4, 86760, Note_on_c, 0, 48, 64
4, 86880, Note_off_c, 0, 48, 64
4, 86880, Note_on_c, 0, 47, 64
4, 87360, Note_off_c, 0, 47, 64
4, 87600, Note_on_c, 0, 50, 64
4, 87840, Note_off_c, 0, 50, 64
4, 87840, Note_on_c, 0, 49, 64
4, 88080, Note_off_c, 0, 49, 64
4, 88080, Note_on_c, 0, 52, 64
4, 88320, Note_off_c, 0, 52, 64
4, 88320, Note_on_c, 0, 50, 64
4, 88560, Note_off_c, 0, 50, 64
4, 88560, Note_on_c, 0, 48, 64
4, 88800, Note_off_c, 0, 48, 64
4, 88800, Note_on_c, 0, 47, 64
4, 89040, Note_off_c, 0, 47, 64
4, 89040, Note_on_c, 0, 50, 64
4, 89280, Note_off_c, 0, 50, 64
4, 89280, Note_on_c, 0, 48, 64
4, 89520, Note_off_c, 0, 48, 64
4, 89520, Note_on_c, 0, 47, 64
4, 89760, Note_off_c, 0, 47, 64
4, 89760, Note_on_c, 0, 48, 64
4, 90480, Note_off_c, 0, 48, 64
4, 90480, Note_on_c, 0, 43, 64
4, 90720, Note_off_c, 0, 43, 64
4, 90720, Note_on_c, 0, 42, 64
4, 90960, Note_off_c, 0, 42, 64
4, 90960, Note_on_c, 0, 43, 64
4, 91200, Note_off_c, 0, 43, 64
4, 91200, Note_on_c, 0, 45, 64
4, 91440, Note_off_c, 0, 45, 64
4, 91440, Note_on_c, 0, 38, 64
4, 91680, Note_off_c, 0, 38, 64
4, 91680, Note_on_c, 0, 50, 64
4, 92640, Note_off_c, 0, 50, 64
4, 92640, Note_on_c, 0, 48, 64
4, 92880, Note_off_c, 0, 48, 64
4, 92880, Note_on_c, 0, 46, 64
4, 93120, Note_off_c, 0, 46, 64
4, 93120, Note_on_c, 0, 48, 64
4, 93600, Note_off_c, 0, 48, 64
4, 93600, Note_on_c, 0, 46, 64
4, 93840, Note_off_c, 0, 46, 64
4, 93840, Note_on_c, 0, 45, 64
4, 94080, Note_off_c, 0, 45, 64
4, 94080, Note_on_c, 0, 46, 64
4, 94200, Note_off_c, 0, 46, 64
4, 94200, Note_on_c, 0, 48, 64
4, 94320, Note_off_c, 0, 48, 64
4, 94320, Note_on_c, 0, 46, 64
4, 94440, Note_off_c, 0, 46, 64
4, 94440, Note_on_c, 0, 45, 64
4, 94560, Note_off_c, 0, 45, 64
4, 94560, Note_on_c, 0, 43, 64
4, 95280, Note_off_c, 0, 43, 64
4, 95280, Note_on_c, 0, 45, 64
4, 95520, Note_off_c, 0, 45, 64
4, 95520, Note_on_c, 0, 46, 64
4, 95760, Note_off_c, 0, 46, 64
4, 95760, Note_on_c, 0, 48, 64
4, 96000, Note_off_c, 0, 48, 64
4, 96000, Note_on_c, 0, 50, 64
4, 96240, Note_off_c, 0, 50, 64
4, 96240, Note_on_c, 0, 51, 64
4, 96480, Note_off_c, 0, 51, 64
4, 96480, Note_on_c, 0, 50, 64
4, 96720, Note_off_c, 0, 50, 64
4, 96720, Note_on_c, 0, 48, 64
4, 96960, Note_off_c, 0, 48, 64
4, 96960, Note_on_c, 0, 46, 64
4, 97200, Note_off_c, 0, 46, 64
4, 97200, Note_on_c, 0, 45, 64
4, 97440, Note_off_c, 0, 45, 64
4, 97440, Note_on_c, 0, 43, 64
4, 97680, Note_off_c, 0, 43, 64
4, 97680, Note_on_c, 0, 46, 64
4, 97920, Note_off_c, 0, 46, 64
4, 97920, Note_on_c, 0, 45, 64
4, 99120, Note_off_c, 0, 45, 64
4, 99120, Note_on_c, 0, 43, 64
4, 99360, Note_off_c, 0, 43, 64
4, 99360, Note_on_c, 0, 42, 64
4, 99600, Note_off_c, 0, 42, 64
4, 99600, Note_on_c, 0, 45, 64
4, 99840, Note_off_c, 0, 45, 64
4, 99840, Note_on_c, 0, 43, 64
4, 101040, Note_off_c, 0, 43, 64
4, 101040, Note_on_c, 0, 41, 64
4, 101280, Note_off_c, 0, 41, 64
4, 101280, Note_on_c, 0, 40, 64
4, 101520, Note_off_c, 0, 40, 64
4, 101520, Note_on_c, 0, 43, 64
4, 101760, Note_off_c, 0, 43, 64
4, 101760, Note_on_c, 0, 41, 64
4, 102240, Note_off_c, 0, 41, 64
4, 102480, Note_on_c, 0, 41, 64
4, 102720, Note_off_c, 0, 41, 64
4, 102720, Note_on_c, 0, 48, 64
4, 103200, Note_off_c, 0, 48, 64
4, 103440, Note_on_c, 0, 51, 64
4, 103680, Note_off_c, 0, 51, 64
4, 103680, Note_on_c, 0, 50, 64
4, 104160, Note_off_c, 0, 50, 64
4, 104400, Note_on_c, 0, 43, 64
4, 104640, Note_off_c, 0, 43, 64
4, 104640, Note_on_c, 0, 42, 64
4, 105120, Note_off_c, 0, 42, 64
4, 105360, Note_on_c, 0, 38, 64
4, 105600, Note_off_c, 0, 38, 64
4, 105600, Note_on_c, 0, 43, 64
4, 106080, Note_off_c, 0, 43, 64
4, 106080, Note_on_c, 0, 39, 64
4, 106560, Note_off_c, 0, 39, 64
4, 106560, Note_on_c, 0, 36, 64
4, 107040, Note_off_c, 0, 36, 64
4, 107040, Note_on_c, 0, 38, 64
4, 107520, Note_off_c, 0, 38, 64
4, 107520, Note_on_c, 0, 43, 64
4, 107760, Note_off_c, 0, 43, 64
4, 107760, Note_on_c, 0, 55, 64
4, 107880, Note_off_c, 0, 55, 64
4, 107880, Note_on_c, 0, 57, 64
4, 108000, Note_off_c, 0, 57, 64
4, 108000, Note_on_c, 0, 58, 64
4, 108240, Note_off_c, 0, 58, 64
4, 108240, Note_on_c, 0, 60, 64
4, 108480, Note_off_c, 0, 60, 64
4, 108480, Note_on_c, 0, 62, 64
4, 109200, Note_off_c, 0, 62, 64
4, 109200, Note_on_c, 0, 60, 64
4, 109320, Note_off_c, 0, 60, 64
4, 109320, Note_on_c, 0, 58, 64
4, 109440, Note_off_c, 0, 58, 64
4, 109440, Note_on_c, 0, 57, 64
4, 109680, Note_off_c, 0, 57, 64
4, 109680, Note_on_c, 0, 54, 64
4, 109920, Note_off_c, 0, 54, 64
4, 109920, Note_on_c, 0, 55, 64
4, 110160, Note_off_c, 0, 55, 64
4, 110160, Note_on_c, 0, 57, 64
4, 110400, Note_off_c, 0, 57, 64
4, 110400, Note_on_c, 0, 50, 64
4, 110880, Note_off_c, 0, 50, 64
4, 111600, Note_on_c, 0, 52, 64
4, 111840, Note_off_c, 0, 52, 64
4, 111840, Note_on_c, 0, 53, 64
4, 112080, Note_off_c, 0, 53, 64
4, 112080, Note_on_c, 0, 55, 64
4, 112320, Note_off_c, 0, 55, 64
4, 112320, Note_on_c, 0, 57, 64
4, 113280, Note_off_c, 0, 57, 64
4, 113520, Note_on_c, 0, 50, 64
4, 113760, Note_off_c, 0, 50, 64
4, 113760, Note_on_c, 0, 52, 64
4, 114000, Note_off_c, 0, 52, 64
4, 114000, Note_on_c, 0, 54, 64
4, 114240, Note_off_c, 0, 54, 64
4, 114240, Note_on_c, 0, 55, 64
4, 115200, Note_off_c, 0, 55, 64
4, 115680, Note_on_c, 0, 50, 64
4, 116160, Note_off_c, 0, 50, 64
4, 116160, Note_on_c, 0, 51, 64
4, 116640, Note_off_c, 0, 51, 64
4, 116640, Note_on_c, 0, 45, 64
4, 117120, Note_off_c, 0, 45, 64
4, 117120, Note_on_c, 0, 57, 64
4, 117240, Note_off_c, 0, 57, 64
4, 117240, Note_on_c, 0, 58, 64
4, 117360, Note_off_c, 0, 58, 64
4, 117360, Note_on_c, 0, 60, 64
4, 117840, Note_off_c, 0, 60, 64
4, 117840, Note_on_c, 0, 58, 64
4, 118080, Note_off_c, 0, 58, 64
4, 118080, Note_on_c, 0, 60, 64
4, 118320, Note_off_c, 0, 60, 64
4, 118320, Note_on_c, 0, 57, 64
4, 118560, Note_off_c, 0, 57, 64
4, 118560, Note_on_c, 0, 54, 64
4, 119040, Note_off_c, 0, 54, 64
4, 119040, Note_on_c, 0, 55, 64
4, 119520, Note_off_c, 0, 55, 64
4, 119760, Note_on_c, 0, 46, 64
4, 120000, Note_off_c, 0, 46, 64
4, 120000, Note_on_c, 0, 51, 64
4, 120480, Note_off_c, 0, 51, 64
4, 120720, Note_on_c, 0, 42, 64
4, 120960, Note_off_c, 0, 42, 64
4, 120960, Note_on_c, 0, 43, 64
4, 121440, Note_off_c, 0, 43, 64
4, 121440, Note_on_c, 0, 43, 64
4, 121680, Note_off_c, 0, 43, 64
4, 121680, Note_on_c, 0, 45, 64
4, 121920, Note_off_c, 0, 45, 64
4, 121920, Note_on_c, 0, 46, 64
4, 122160, Note_off_c, 0, 46, 64
4, 122160, Note_on_c, 0, 48, 64
4, 122400, Note_off_c, 0, 48, 64
4, 122400, Note_on_c, 0, 50, 64
4, 122640, Note_off_c, 0, 50, 64
4, 122640, Note_on_c, 0, 51, 64
4, 122880, Note_off_c, 0, 51, 64
4, 122880, Note_on_c, 0, 42, 64
4, 123360, Note_off_c, 0, 42, 64
4, 124320, Note_on_c, 0, 50, 64
4, 125040, Note_off_c, 0, 50, 64
4, 125040, Note_on_c, 0, 49, 64
4, 125280, Note_off_c, 0, 49, 64
4, 125280, Note_on_c, 0, 45, 64
4, 125520, Note_off_c, 0, 45, 64
4, 125520, Note_on_c, 0, 47, 64
4, 125760, Note_off_c, 0, 47, 64
4, 125760, Note_on_c, 0, 48, 64
4, 126960, Note_off_c, 0, 48, 64
4, 126960, Note_on_c, 0, 47, 64
4, 127200, Note_off_c, 0, 47, 64
4, 127200, Note_on_c, 0, 43, 64
4, 127440, Note_off_c, 0, 43, 64
4, 127440, Note_on_c, 0, 45, 64
4, 127680, Note_off_c, 0, 45, 64
4, 127680, Note_on_c, 0, 46, 64
4, 128880, Note_off_c, 0, 46, 64
4, 128880, Note_on_c, 0, 45, 64
4, 129120, Note_off_c, 0, 45, 64
4, 129120, Note_on_c, 0, 44, 64
4, 129360, Note_off_c, 0, 44, 64
4, 129360, Note_on_c, 0, 45, 64
4, 129600, Note_off_c, 0, 45, 64
4, 129600, Note_on_c, 0, 44, 64
4, 129840, Note_off_c, 0, 44, 64
4, 129840, Note_on_c, 0, 43, 64
4, 130080, Note_off_c, 0, 43, 64
4, 130080, Note_on_c, 0, 42, 64
4, 130320, Note_off_c, 0, 42, 64
4, 130320, Note_on_c, 0, 43, 64
4, 130560, Note_off_c, 0, 43, 64
4, 130560, Note_on_c, 0, 42, 64
4, 130800, Note_off_c, 0, 42, 64
4, 130800, Note_on_c, 0, 40, 64
4, 131040, Note_off_c, 0, 40, 64
4, 131040, Note_on_c, 0, 38, 64
4, 131280, Note_off_c, 0, 38, 64
4, 131280, Note_on_c, 0, 39, 64
4, 131520, Note_off_c, 0, 39, 64
4, 131520, Note_on_c, 0, 38, 64
4, 131760, Note_off_c, 0, 38, 64
4, 131760, Note_on_c, 0, 42, 64
4, 132000, Note_off_c, 0, 42, 64
4, 132000, Note_on_c, 0, 45, 64
4, 132240, Note_off_c, 0, 45, 64
4, 132240, Note_on_c, 0, 48, 64
4, 132480, Note_off_c, 0, 48, 64
4, 132480, Note_on_c, 0, 46, 64
4, 132720, Note_off_c, 0, 46, 64
4, 132720, Note_on_c, 0, 50, 64
4, 132960, Note_off_c, 0, 50, 64
4, 132960, Note_on_c, 0, 54, 64
4, 133200, Note_off_c, 0, 54, 64
4, 133200, Note_on_c, 0, 55, 64
4, 133440, Note_off_c, 0, 55, 64
4, 133440, Note_on_c, 0, 45, 64
4, 133680, Note_off_c, 0, 45, 64
4, 133680, Note_on_c, 0, 51, 64
4, 133920, Note_off_c, 0, 51, 64
4, 133920, Note_on_c, 0, 50, 64
4, 134160, Note_off_c, 0, 50, 64
4, 134160, Note_on_c, 0, 48, 64
4, 134400, Note_off_c, 0, 48, 64
4, 134400, Note_on_c, 0, 46, 64
4, 134520, Note_off_c, 0, 46, 64
4, 134520, Note_on_c, 0, 45, 64
4, 134640, Note_off_c, 0, 45, 64
4, 134640, Note_on_c, 0, 43, 64
4, 134760, Note_off_c, 0, 43, 64
4, 134760, Note_on_c, 0, 42, 64
4, 134880, Note_off_c, 0, 42, 64
4, 134880, Note_on_c, 0, 43, 64
4, 135000, Note_off_c, 0, 43, 64
4, 135000, Note_on_c, 0, 55, 64
4, 135120, Note_off_c, 0, 55, 64
4, 135120, Note_on_c, 0, 53, 64
4, 135240, Note_off_c, 0, 53, 64
4, 135240, Note_on_c, 0, 51, 64
4, 135360, Note_off_c, 0, 51, 64
4, 135360, Note_on_c, 0, 50, 64
4, 135480, Note_off_c, 0, 50, 64
4, 135480, Note_on_c, 0, 48, 64
4, 135600, Note_off_c, 0, 48, 64
4, 135600, Note_on_c, 0, 46, 64
4, 135720, Note_off_c, 0, 46, 64
4, 135720, Note_on_c, 0, 45, 64
4, 135840, Note_off_c, 0, 45, 64
4, 135840, Note_on_c, 0, 43, 64
4, 136320, Note_off_c, 0, 43, 64
4, 136560, Note_on_c, 0, 45, 64
4, 136800, Note_off_c, 0, 45, 64
4, 136800, Note_on_c, 0, 46, 64
4, 137040, Note_off_c, 0, 46, 64
4, 137040, Note_on_c, 0, 48, 64
4, 137280, Note_off_c, 0, 48, 64
4, 137280, Note_on_c, 0, 50, 64
4, 137520, Note_off_c, 0, 50, 64
4, 137520, Note_on_c, 0, 53, 64
4, 137760, Note_off_c, 0, 53, 64
4, 137760, Note_on_c, 0, 52, 64
4, 138000, Note_off_c, 0, 52, 64
4, 138000, Note_on_c, 0, 55, 64
4, 138240, Note_off_c, 0, 55, 64
4, 138240, Note_on_c, 0, 53, 64
4, 138480, Note_off_c, 0, 53, 64
4, 138480, Note_on_c, 0, 52, 64
4, 138600, Note_off_c, 0, 52, 64
4, 138600, Note_on_c, 0, 50, 64
4, 138720, Note_off_c, 0, 50, 64
4, 138720, Note_on_c, 0, 49, 64
4, 139200, Note_off_c, 0, 49, 64
4, 139440, Note_on_c, 0, 51, 64
4, 139680, Note_off_c, 0, 51, 64
4, 139680, Note_on_c, 0, 50, 64
4, 139920, Note_off_c, 0, 50, 64
4, 139920, Note_on_c, 0, 53, 64
4, 140160, Note_off_c, 0, 53, 64
4, 140160, Note_on_c, 0, 51, 64
4, 140400, Note_off_c, 0, 51, 64
4, 140400, Note_on_c, 0, 50, 64
4, 140520, Note_off_c, 0, 50, 64
4, 140520, Note_on_c, 0, 48, 64
4, 140640, Note_off_c, 0, 48, 64
4, 140640, Note_on_c, 0, 47, 64
4, 141120, Note_off_c, 0, 47, 64
4, 141360, Note_on_c, 0, 50, 64
4, 141600, Note_off_c, 0, 50, 64
4, 141600, Note_on_c, 0, 49, 64
4, 141840, Note_off_c, 0, 49, 64
4, 141840, Note_on_c, 0, 52, 64
4, 142080, Note_off_c, 0, 52, 64
4, 142080, Note_on_c, 0, 50, 64
4, 142320, Note_off_c, 0, 50, 64
4, 142320, Note_on_c, 0, 48, 64
4, 142560, Note_off_c, 0, 48, 64
4, 142560, Note_on_c, 0, 47, 64
4, 142800, Note_off_c, 0, 47, 64
4, 142800, Note_on_c, 0, 50, 64
4, 143040, Note_off_c, 0, 50, 64
4, 143040, Note_on_c, 0, 48, 64
4, 143280, Note_off_c, 0, 48, 64
4, 143280, Note_on_c, 0, 47, 64
4, 143520, Note_off_c, 0, 47, 64
4, 143520, Note_on_c, 0, 48, 64
4, 144240, Note_off_c, 0, 48, 64
4, 144240, Note_on_c, 0, 43, 64
4, 144480, Note_off_c, 0, 43, 64
4, 144480, Note_on_c, 0, 42, 64
4, 144720, Note_off_c, 0, 42, 64
4, 144720, Note_on_c, 0, 43, 64
4, 144960, Note_off_c, 0, 43, 64
4, 144960, Note_on_c, 0, 45, 64
4, 145200, Note_off_c, 0, 45, 64
4, 145200, Note_on_c, 0, 38, 64
4, 145440, Note_off_c, 0, 38, 64
4, 145440, Note_on_c, 0, 50, 64
4, 146400, Note_off_c, 0, 50, 64
4, 146400, Note_on_c, 0, 48, 64
4, 146640, Note_off_c, 0, 48, 64
4, 146640, Note_on_c, 0, 46, 64
4, 146880, Note_off_c, 0, 46, 64
4, 146880, Note_on_c, 0, 48, 64
4, 147360, Note_off_c, 0, 48, 64
4, 147360, Note_on_c, 0, 46, 64
4, 147600, Note_off_c, 0, 46, 64
4, 147600, Note_on_c, 0, 45, 64
4, 147840, Note_off_c, 0, 45, 64
4, 147840, Note_on_c, 0, 46, 64
4, 147960, Note_off_c, 0, 46, 64
4, 147960, Note_on_c, 0, 48, 64
4, 148080, Note_off_c, 0, 48, 64
4, 148080, Note_on_c, 0, 46, 64
4, 148200, Note_off_c, 0, 46, 64
4, 148200, Note_on_c, 0, 45, 64
4, 148320, Note_off_c, 0, 45, 64
4, 148320, Note_on_c, 0, 43, 64
4, 149040, Note_off_c, 0, 43, 64
4, 149040, Note_on_c, 0, 45, 64
4, 149280, Note_off_c, 0, 45, 64
4, 149280, Note_on_c, 0, 46, 64
4, 149520, Note_off_c, 0, 46, 64
4, 149520, Note_on_c, 0, 48, 64
4, 149760, Note_off_c, 0, 48, 64
4, 149760, Note_on_c, 0, 50, 64
4, 150000, Note_off_c, 0, 50, 64
4, 150000, Note_on_c, 0, 51, 64
4, 150240, Note_off_c, 0, 51, 64
4, 150240, Note_on_c, 0, 50, 64
4, 150480, Note_off_c, 0, 50, 64
4, 150480, Note_on_c, 0, 48, 64
4, 150720, Note_off_c, 0, 48, 64
4, 150720, Note_on_c, 0, 46, 64
4, 150960, Note_off_c, 0, 46, 64
4, 150960, Note_on_c, 0, 45, 64
4, 151200, Note_off_c, 0, 45, 64
4, 151200, Note_on_c, 0, 43, 64
4, 151440, Note_off_c, 0, 43, 64
4, 151440, Note_on_c, 0, 46, 64
4, 151680, Note_off_c, 0, 46, 64
4, 151680, Note_on_c, 0, 45, 64
4, 152880, Note_off_c, 0, 45, 64
4, 152880, Note_on_c, 0, 43, 64
4, 153120, Note_off_c, 0, 43, 64
4, 153120, Note_on_c, 0, 42, 64
4, 153360, Note_off_c, 0, 42, 64
4, 153360, Note_on_c, 0, 45, 64
4, 153600, Note_off_c, 0, 45, 64
4, 153600, Note_on_c, 0, 43, 64
4, 154800, Note_off_c, 0, 43, 64
4, 154800, Note_on_c, 0, 41, 64
4, 155040, Note_off_c, 0, 41, 64
4, 155040, Note_on_c, 0, 40, 64
4, 155280, Note_off_c, 0, 40, 64
4, 155280, Note_on_c, 0, 43, 64
4, 155520, Note_off_c, 0, 43, 64
4, 155520, Note_on_c, 0, 41, 64
4, 156000, Note_off_c, 0, 41, 64
4, 156240, Note_on_c, 0, 41, 64
4, 156480, Note_off_c, 0, 41, 64
4, 156480, Note_on_c, 0, 48, 64
4, 156960, Note_off_c, 0, 48, 64
4, 157200, Note_on_c, 0, 51, 64
4, 157440, Note_off_c, 0, 51, 64
4, 157440, Note_on_c, 0, 50, 64
4, 157920, Note_off_c, 0, 50, 64
4, 158160, Note_on_c, 0, 43, 64
4, 158400, Note_off_c, 0, 43, 64
4, 158400, Note_on_c, 0, 42, 64
4, 158880, Note_off_c, 0, 42, 64
4, 159120, Note_on_c, 0, 38, 64
4, 159360, Note_off_c, 0, 38, 64
4, 159360, Note_on_c, 0, 43, 64
4, 159840, Note_off_c, 0, 43, 64
4, 159840, Note_on_c, 0, 39, 64
4, 160320, Note_off_c, 0, 39, 64
4, 160320, Note_on_c, 0, 36, 64
4, 160800, Note_off_c, 0, 36, 64
4, 160800, Note_on_c, 0, 38, 64
4, 161280, Note_off_c, 0, 38, 64
4, 161280, Note_on_c, 0, 43, 64
4, 162240, Note_off_c, 0, 43, 64
4, 162240, End_track
5, 0, Start_track
5, 0, Text_t, "Voce 40-"
5, 40800, Note_on_c, 0, 43, 64
5, 41040, Note_off_c, 0, 43, 64
5, 41040, Note_on_c, 0, 45, 64
5, 41280, Note_off_c, 0, 45, 64
5, 41280, Note_on_c, 0, 46, 64
5, 41520, Note_off_c, 0, 46, 64
5, 41520, Note_on_c, 0, 48, 64
5, 41760, Note_off_c, 0, 48, 64
5, 41760, Note_on_c, 0, 50, 64
5, 42000, Note_off_c, 0, 50, 64
5, 42000, Note_on_c, 0, 51, 64
5, 42240, Note_off_c, 0, 51, 64
5, 42240, Note_on_c, 0, 42, 64
5, 42720, Note_off_c, 0, 42, 64
5, 43680, Note_on_c, 0, 50, 64
5, 44400, Note_off_c, 0, 50, 64
5, 44400, Note_on_c, 0, 49, 64
5, 44640, Note_off_c, 0, 49, 64
5, 44640, Note_on_c, 0, 45, 64
5, 44880, Note_off_c, 0, 45, 64
5, 44880, Note_on_c, 0, 47, 64
5, 45120, Note_off_c, 0, 47, 64
5, 45120, Note_on_c, 0, 48, 64
5, 46320, Note_off_c, 0, 48, 64
5, 46320, Note_on_c, 0, 47, 64
5, 46560, Note_off_c, 0, 47, 64
5, 46560, Note_on_c, 0, 43, 64
5, 46800, Note_off_c, 0, 43, 64
5, 46800, Note_on_c, 0, 45, 64
5, 47040, Note_off_c, 0, 45, 64
5, 47040, Note_on_c, 0, 46, 64
5, 48240, Note_off_c, 0, 46, 64
5, 48240, Note_on_c, 0, 45, 64
5, 48480, Note_off_c, 0, 45, 64
5, 48480, Note_on_c, 0, 44, 64
5, 48720, Note_off_c, 0, 44, 64
5, 48720, Note_on_c, 0, 45, 64
5, 48960, Note_off_c, 0, 45, 64
5, 48960, Note_on_c, 0, 44, 64
5, 49200, Note_off_c, 0, 44, 64
5, 49200, Note_on_c, 0, 43, 64
5, 49440, Note_off_c, 0, 43, 64
5, 49440, Note_on_c, 0, 42, 64
5, 49680, Note_off_c, 0, 42, 64
5, 49680, Note_on_c, 0, 43, 64
5, 49920, Note_off_c, 0, 43, 64
5, 49920, Note_on_c, 0, 42, 64
5, 50160, Note_off_c, 0, 42, 64
5, 50160, Note_on_c, 0, 40, 64
5, 50400, Note_off_c, 0, 40, 64
5, 50400, Note_on_c, 0, 38, 64
5, 50640, Note_off_c, 0, 38, 64
5, 50640, Note_on_c, 0, 39, 64
5, 50880, Note_off_c, 0, 39, 64
5, 50880, Note_on_c, 0, 38, 64
5, 51120, Note_off_c, 0, 38, 64
5, 51120, Note_on_c, 0, 42, 64
5, 51360, Note_off_c, 0, 42, 64
5, 51360, Note_on_c, 0, 45, 64
5, 51600, Note_off_c, 0, 45, 64
5, 51600, Note_on_c, 0, 48, 64
5, 51840, Note_off_c, 0, 48, 64
5, 51840, Note_on_c, 0, 46, 64
5, 52080, Note_off_c, 0, 46, 64
5, 52080, Note_on_c, 0, 50, 64
5, 52320, Note_off_c, 0, 50, 64
5, 52320, Note_on_c, 0, 54, 64
5, 52560, Note_off_c, 0, 54, 64
5, 52560, Note_on_c, 0, 55, 64
5, 52800, Note_off_c, 0, 55, 64
5, 52800, Note_on_c, 0, 45, 64
5, 53040, Note_off_c, 0, 45, 64
5, 53040, Note_on_c, 0, 51, 64
5, 53280, Note_off_c, 0, 51, 64
5, 53280, Note_on_c, 0, 50, 64
5, 53520, Note_off_c, 0, 50, 64
5, 53520, Note_on_c, 0, 48, 64
5, 53760, Note_off_c, 0, 48, 64
5, 53760, Note_on_c, 0, 46, 64
5, 53880, Note_off_c, 0, 46, 64
5, 53880, Note_on_c, 0, 45, 64
5, 54000, Note_off_c, 0, 45, 64
5, 54000, Note_on_c, 0, 43, 64
5, 54120, Note_off_c, 0, 43, 64
5, 54120, Note_on_c, 0, 42, 64
5, 54240, Note_off_c, 0, 42, 64
5, 54240, Note_on_c, 0, 43, 64
5, 54360, Note_off_c, 0, 43, 64
5, 54360, Note_on_c, 0, 55, 64
5, 54480, Note_off_c, 0, 55, 64
5, 54480, Note_on_c, 0, 53, 64
5, 54600, Note_off_c, 0, 53, 64
5, 54600, Note_on_c, 0, 51, 64
5, 54720, Note_off_c, 0, 51, 64
5, 54720, Note_on_c, 0, 50, 64
5, 54840, Note_off_c, 0, 50, 64
5, 54840, Note_on_c, 0, 48, 64
5, 54960, Note_off_c, 0, 48, 64
5, 54960, Note_on_c, 0, 46, 64
5, 55080, Note_off_c, 0, 46, 64
5, 55080, Note_on_c, 0, 45, 64
5, 55200, Note_off_c, 0, 45, 64
5, 55200, Note_on_c, 0, 43, 64
5, 55680, Note_off_c, 0, 43, 64
5, 55920, Note_on_c, 0, 45, 64
5, 56160, Note_off_c, 0, 45, 64
5, 56160, Note_on_c, 0, 46, 64
5, 56400, Note_off_c, 0, 46, 64
5, 56400, Note_on_c, 0, 48, 64
5, 56640, Note_off_c, 0, 48, 64
5, 56640, Note_on_c, 0, 50, 64
5, 56880, Note_off_c, 0, 50, 64
5, 56880, Note_on_c, 0, 53, 64
5, 57120, Note_off_c, 0, 53, 64
5, 57120, Note_on_c, 0, 52, 64
5, 57360, Note_off_c, 0, 52, 64
5, 57360, Note_on_c, 0, 55, 64
5, 57600, Note_off_c, 0, 55, 64
5, 57600, Note_on_c, 0, 53, 64
5, 57840, Note_off_c, 0, 53, 64
5, 57840, Note_on_c, 0, 52, 64
5, 57960, Note_off_c, 0, 52, 64
5, 57960, Note_on_c, 0, 50, 64
5, 58080, Note_off_c, 0, 50, 64
5, 58080, Note_on_c, 0, 49, 64
5, 58560, Note_off_c, 0, 49, 64
5, 58800, Note_on_c, 0, 51, 64
5, 59040, Note_off_c, 0, 51, 64
5, 59040, Note_on_c, 0, 50, 64
5, 59280, Note_off_c, 0, 50, 64
5, 59280, Note_on_c, 0, 53, 64
5, 59520, Note_off_c, 0, 53, 64
5, 59520, Note_on_c, 0, 51, 64
5, 59760, Note_off_c, 0, 51, 64
5, 59760, Note_on_c, 0, 50, 64
5, 59880, Note_off_c, 0, 50, 64
5, 59880, Note_on_c, 0, 48, 64
5, 60000, Note_off_c, 0, 48, 64
5, 60000, Note_on_c, 0, 47, 64
5, 60480, Note_off_c, 0, 47, 64
5, 60720, Note_on_c, 0, 50, 64
5, 60960, Note_off_c, 0, 50, 64
5, 60960, Note_on_c, 0, 49, 64
5, 61200, Note_off_c, 0, 49, 64
5, 61200, Note_on_c, 0, 52, 64
5, 61440, Note_off_c, 0, 52, 64
5, 61440, Note_on_c, 0, 50, 64
5, 61680, Note_off_c, 0, 50, 64
5, 61680, Note_on_c, 0, 48, 64
5, 61920, Note_off_c, 0, 48, 64
5, 61920, Note_on_c, 0, 47, 64
5, 62160, Note_off_c, 0, 47, 64
5, 62160, Note_on_c, 0, 50, 64
5, 62400, Note_off_c, 0, 50, 64
5, 62400, Note_on_c, 0, 48, 64
5, 62640, Note_off_c, 0, 48, 64
5, 62640, Note_on_c, 0, 47, 64
5, 62880, Note_off_c, 0, 47, 64
5, 62880, Note_on_c, 0, 48, 64
5, 63600, Note_off_c, 0, 48, 64
5, 63600, Note_on_c, 0, 43, 64
5, 63840, Note_off_c, 0, 43, 64
5, 63840, Note_on_c, 0, 42, 64
5, 64080, Note_off_c, 0, 42, 64
5, 64080, Note_on_c, 0, 43, 64
5, 64320, Note_off_c, 0, 43, 64
5, 64320, Note_on_c, 0, 45, 64
5, 64560, Note_off_c, 0, 45, 64
5, 64560, Note_on_c, 0, 38, 64
5, 64800, Note_off_c, 0, 38, 64
5, 64800, Note_on_c, 0, 50, 64
5, 65760, Note_off_c, 0, 50, 64
5, 65760, Note_on_c, 0, 48, 64
5, 66000, Note_off_c, 0, 48, 64
5, 66000, Note_on_c, 0, 46, 64
5, 66240, Note_off_c, 0, 46, 64
5, 66240, Note_on_c, 0, 48, 64
5, 66720, Note_off_c, 0, 48, 64
5, 66720, Note_on_c, 0, 46, 64
5, 66960, Note_off_c, 0, 46, 64
5, 66960, Note_on_c, 0, 45, 64
5, 67200, Note_off_c, 0, 45, 64
5, 67200, Note_on_c, 0, 46, 64
5, 67320, Note_off_c, 0, 46, 64
5, 67320, Note_on_c, 0, 48, 64
5, 67440, Note_off_c, 0, 48, 64
5, 67440, Note_on_c, 0, 46, 64
5, 67560, Note_off_c, 0, 46, 64
5, 67560, Note_on_c, 0, 45, 64
5, 67680, Note_off_c, 0, 45, 64
5, 67680, Note_on_c, 0, 43, 64
5, 68400, Note_off_c, 0, 43, 64
5, 68400, Note_on_c, 0, 45, 64
5, 68640, Note_off_c, 0, 45, 64
5, 68640, Note_on_c, 0, 46, 64
5, 68880, Note_off_c, 0, 46, 64
5, 68880, Note_on_c, 0, 48, 64
5, 69120, Note_off_c, 0, 48, 64
5, 69120, Note_on_c, 0, 50, 64
5, 69360, Note_off_c, 0, 50, 64
5, 69360, Note_on_c, 0, 51, 64
5, 69600, Note_off_c, 0, 51, 64
5, 69600, Note_on_c, 0, 50, 64
5, 69840, Note_off_c, 0, 50, 64
5, 69840, Note_on_c, 0, 48, 64
5, 70080, Note_off_c, 0, 48, 64
5, 70080, Note_on_c, 0, 46, 64
5, 70320, Note_off_c, 0, 46, 64
5, 70320, Note_on_c, 0, 45, 64
5, 70560, Note_off_c, 0, 45, 64
5, 70560, Note_on_c, 0, 43, 64
5, 70800, Note_off_c, 0, 43, 64
5, 70800, Note_on_c, 0, 46, 64
5, 71040, Note_off_c, 0, 46, 64
5, 71040, Note_on_c, 0, 45, 64
5, 72240, Note_off_c, 0, 45, 64
5, 72240, Note_on_c, 0, 43, 64
5, 72480, Note_off_c, 0, 43, 64
5, 72480, Note_on_c, 0, 42, 64
5, 72720, Note_off_c, 0, 42, 64
5, 72720, Note_on_c, 0, 45, 64
5, 72960, Note_off_c, 0, 45, 64
5, 72960, Note_on_c, 0, 43, 64
5, 74160, Note_off_c, 0, 43, 64
5, 74160, Note_on_c, 0, 41, 64
5, 74400, Note_off_c, 0, 41, 64
5, 74400, Note_on_c, 0, 40, 64
5, 74640, Note_off_c, 0, 40, 64
5, 74640, Note_on_c, 0, 43, 64
5, 74880, Note_off_c, 0, 43, 64
5, 74880, Note_on_c, 0, 41, 64
5, 75360, Note_off_c, 0, 41, 64
5, 75600, Note_on_c, 0, 41, 64
5, 75840, Note_off_c, 0, 41, 64
5, 75840, Note_on_c, 0, 48, 64
5, 76320, Note_off_c, 0, 48, 64
5, 76560, Note_on_c, 0, 51, 64
5, 76800, Note_off_c, 0, 51, 64
5, 76800, Note_on_c, 0, 50, 64
5, 77280, Note_off_c, 0, 50, 64
5, 77520, Note_on_c, 0, 43, 64
5, 77760, Note_off_c, 0, 43, 64
5, 77760, Note_on_c, 0, 42, 64
5, 78240, Note_off_c, 0, 42, 64
5, 78480, Note_on_c, 0, 38, 64
5, 78720, Note_off_c, 0, 38, 64
5, 78720, Note_on_c, 0, 43, 64
5, 79200, Note_off_c, 0, 43, 64
5, 79200, Note_on_c, 0, 39, 64
5, 79680, Note_off_c, 0, 39, 64
5, 79680, Note_on_c, 0, 36, 64
5, 80160, Note_off_c, 0, 36, 64
5, 80160, Note_on_c, 0, 38, 64
5, 80640, Note_off_c, 0, 38, 64
5, 80640, Note_on_c, 0, 43, 64
5, 80880, Note_off_c, 0, 43, 64
5, 80880, Note_on_c, 0, 55, 64
5, 81000, Note_off_c, 0, 55, 64
5, 81000, Note_on_c, 0, 57, 64
5, 81120, Note_off_c, 0, 57, 64
5, 81120, Note_on_c, 0, 58, 64
5, 81360, Note_off_c, 0, 58, 64
5, 81360, Note_on_c, 0, 60, 64
5, 81600, Note_off_c, 0, 60, 64
5, 81600, Note_on_c, 0, 62, 64
5, 82320, Note_off_c, 0, 62, 64
5, 82320, Note_on_c, 0, 60, 64
5, 82440, Note_off_c, 0, 60, 64
5, 82440, Note_on_c, 0, 58, 64
5, 82560, Note_off_c, 0, 58, 64
5, 82560, Note_on_c, 0, 57, 64
5, 82800, Note_off_c, 0, 57, 64
5, 82800, Note_on_c, 0, 54, 64
5, 83040, Note_off_c, 0, 54, 64
5, 83040, Note_on_c, 0, 55, 64
5, 83280, Note_off_c, 0, 55, 64
5, 83280, Note_on_c, 0, 57, 64
5, 83520, Note_off_c, 0, 57, 64
5, 83520, Note_on_c, 0, 50, 64
5, 84000, Note_off_c, 0, 50, 64
5, 84720, Note_on_c, 0, 52, 64
5, 84960, Note_off_c, 0, 52, 64
5, 84960, Note_on_c, 0, 53, 64
5, 85200, Note_off_c, 0, 53, 64
5, 85200, Note_on_c, 0, 55, 64
5, 85440, Note_off_c, 0, 55, 64
5, 85440, Note_on_c, 0, 57, 64
5, 86400, Note_off_c, 0, 57, 64
5, 86640, Note_on_c, 0, 50, 64
5, 86880, Note_off_c, 0, 50, 64
5, 86880, Note_on_c, 0, 52, 64
5, 87120, Note_off_c, 0, 52, 64
5, 87120, Note_on_c, 0, 54, 64
5, 87360, Note_off_c, 0, 54, 64
5, 87360, Note_on_c, 0, 55, 64
5, 88320, Note_off_c, 0, 55, 64
5, 88800, Note_on_c, 0, 50, 64
5, 89280, Note_off_c, 0, 50, 64
5, 89280, Note_on_c, 0, 51, 64
5, 89760, Note_off_c, 0, 51, 64
5, 89760, Note_on_c, 0, 45, 64
5, 90240, Note_off_c, 0, 45, 64
5, 90240, Note_on_c, 0, 57, 64
5, 90360, Note_off_c, 0, 57, 64
5, 90360, Note_on_c, 0, 58, 64
5, 90480, Note_off_c, 0, 58, 64
5, 90480, Note_on_c, 0, 60, 64
5, 90960, Note_off_c, 0, 60, 64
5, 90960, Note_on_c, 0, 58, 64
5, 91200, Note_off_c, 0, 58, 64
5, 91200, Note_on_c, 0, 60, 64
5, 91440, Note_off_c, 0, 60, 64
5, 91440, Note_on_c, 0, 57, 64
5, 91680, Note_off_c, 0, 57, 64
5, 91680, Note_on_c, 0, 54, 64
5, 92160, Note_off_c, 0, 54, 64
5, 92160, Note_on_c, 0, 55, 64
5, 92640, Note_off_c, 0, 55, 64
5, 92880, Note_on_c, 0, 46, 64
5, 93120, Note_off_c, 0, 46, 64
5, 93120, Note_on_c, 0, 51, 64
5, 93600, Note_off_c, 0, 51, 64
5, 93840, Note_on_c, 0, 42, 64
5, 94080, Note_off_c, 0, 42, 64
5, 94080, Note_on_c, 0, 43, 64
5, 94560, Note_off_c, 0, 43, 64
5, 94560, Note_on_c, 0, 43, 64
5, 94800, Note_off_c, 0, 43, 64
5, 94800, Note_on_c, 0, 45, 64
5, 95040, Note_off_c, 0, 45, 64
5, 95040, Note_on_c, 0, 46, 64
5, 95280, Note_off_c, 0, 46, 64
5, 95280, Note_on_c, 0, 48, 64
5, 95520, Note_off_c, 0, 48, 64
5, 95520, Note_on_c, 0, 50, 64
5, 95760, Note_off_c, 0, 50, 64
5, 95760, Note_on_c, 0, 51, 64
5, 96000, Note_off_c, 0, 51, 64
5, 96000, Note_on_c, 0, 42, 64
5, 96480, Note_off_c, 0, 42, 64
5, 97440, Note_on_c, 0, 50, 64
5, 98160, Note_off_c, 0, 50, 64
5, 98160, Note_on_c, 0, 49, 64
5, 98400, Note_off_c, 0, 49, 64
5, 98400, Note_on_c, 0, 45, 64
5, 98640, Note_off_c, 0, 45, 64
5, 98640, Note_on_c, 0, 47, 64
5, 98880, Note_off_c, 0, 47, 64
5, 98880, Note_on_c, 0, 48, 64
5, 100080, Note_off_c, 0, 48, 64
5, 100080, Note_on_c, 0, 47, 64
5, 100320, Note_off_c, 0, 47, 64
5, 100320, Note_on_c, 0, 43, 64
5, 100560, Note_off_c, 0, 43, 64
5, 100560, Note_on_c, 0, 45, 64
5, 100800, Note_off_c, 0, 45, 64
5, 100800, Note_on_c, 0, 46, 64
5, 102000, Note_off_c, 0, 46, 64
5, 102000, Note_on_c, 0, 45, 64
5, 102240, Note_off_c, 0, 45, 64
5, 102240, Note_on_c, 0, 44, 64
5, 102480, Note_off_c, 0, 44, 64
5, 102480, Note_on_c, 0, 45, 64
5, 102720, Note_off_c, 0, 45, 64
5, 102720, Note_on_c, 0, 44, 64
5, 102960, Note_off_c, 0, 44, 64
5, 102960, Note_on_c, 0, 43, 64
5, 103200, Note_off_c, 0, 43, 64
5, 103200, Note_on_c, 0, 42, 64
5, 103440, Note_off_c, 0, 42, 64
5, 103440, Note_on_c, 0, 43, 64
5, 103680, Note_off_c, 0, 43, 64
5, 103680, Note_on_c, 0, 42, 64
5, 103920, Note_off_c, 0, 42, 64
5, 103920, Note_on_c, 0, 40, 64
5, 104160, Note_off_c, 0, 40, 64
5, 104160, Note_on_c, 0, 38, 64
5, 104400, Note_off_c, 0, 38, 64
5, 104400, Note_on_c, 0, 39, 64
5, 104640, Note_off_c, 0, 39, 64
5, 104640, Note_on_c, 0, 38, 64
5, 104880, Note_off_c, 0, 38, 64
5, 104880, Note_on_c, 0, 42, 64
5, 105120, Note_off_c, 0, 42, 64
5, 105120, Note_on_c, 0, 45, 64
5, 105360, Note_off_c, 0, 45, 64
5, 105360, Note_on_c, 0, 48, 64
5, 105600, Note_off_c, 0, 48, 64
5, 105600, Note_on_c, 0, 46, 64
5, 105840, Note_off_c, 0, 46, 64
5, 105840, Note_on_c, 0, 50, 64
5, 106080, Note_off_c, 0, 50, 64
5, 106080, Note_on_c, 0, 54, 64
5, 106320, Note_off_c, 0, 54, 64
5, 106320, Note_on_c, 0, 55, 64
5, 106560, Note_off_c, 0, 55, 64
5, 106560, Note_on_c, 0, 45, 64
5, 106800, Note_off_c, 0, 45, 64
5, 106800, Note_on_c, 0, 51, 64
5, 107040, Note_off_c, 0, 51, 64
5, 107040, Note_on_c, 0, 50, 64
5, 107280, Note_off_c, 0, 50, 64
5, 107280, Note_on_c, 0, 48, 64
5, 107520, Note_off_c, 0, 48, 64
5, 107520, Note_on_c, 0, 46, 64
5, 107640, Note_off_c, 0, 46, 64
5, 107640, Note_on_c, 0, 45, 64
5, 107760, Note_off_c, 0, 45, 64
5, 107760, Note_on_c, 0, 43, 64
5, 107880, Note_off_c, 0, 43, 64
5, 107880, Note_on_c, 0, 42, 64
5, 108000, Note_off_c, 0, 42, 64
5, 108000, Note_on_c, 0, 43, 64
5, 108120, Note_off_c, 0, 43, 64
5, 108120, Note_on_c, 0, 55, 64
5, 108240, Note_off_c, 0, 55, 64
5, 108240, Note_on_c, 0, 53, 64
5, 108360, Note_off_c, 0, 53, 64
5, 108360, Note_on_c, 0, 51, 64
5, 108480, Note_off_c, 0, 51, 64
5, 108480, Note_on_c, 0, 50, 64
5, 108600, Note_off_c, 0, 50, 64
5, 108600, Note_on_c, 0, 48, 64
5, 108720, Note_off_c, 0, 48, 64
5, 108720, Note_on_c, 0, 46, 64
5, 108840, Note_off_c, 0, 46, 64
5, 108840, Note_on_c, 0, 45, 64
5, 108960, Note_off_c, 0, 45, 64
5, 108960, Note_on_c, 0, 43, 64
5, 109440, Note_off_c, 0, 43, 64
5, 109680, Note_on_c, 0, 45, 64
5, 109920, Note_off_c, 0, 45, 64
5, 109920, Note_on_c, 0, 46, 64
5, 110160, Note_off_c, 0, 46, 64
5, 110160, Note_on_c, 0, 48, 64
5, 110400, Note_off_c, 0, 48, 64
5, 110400, Note_on_c, 0, 50, 64
5, 110640, Note_off_c, 0, 50, 64
5, 110640, Note_on_c, 0, 53, 64
5, 110880, Note_off_c, 0, 53, 64
5, 110880, Note_on_c, 0, 52, 64
5, 111120, Note_off_c, 0, 52, 64
5, 111120, Note_on_c, 0, 55, 64
5, 111360, Note_off_c, 0, 55, 64
5, 111360, Note_on_c, 0, 53, 64
5, 111600, Note_off_c, 0, 53, 64
5, 111600, Note_on_c, 0, 52, 64
5, 111720, Note_off_c, 0, 52, 64
5, 111720, Note_on_c, 0, 50, 64
5, 111840, Note_off_c, 0, 50, 64
5, 111840, Note_on_c, 0, 49, 64
5, 112320, Note_off_c, 0, 49, 64
5, 112560, Note_on_c, 0, 51, 64
5, 112800, Note_off_c, 0, 51, 64
5, 112800, Note_on_c, 0, 50, 64
5, 113040, Note_off_c, 0, 50, 64
5, 113040, Note_on_c, 0, 53, 64
5, 113280, Note_off_c, 0, 53, 64
5, 113280, Note_on_c, 0, 51, 64
5, 113520, Note_off_c, 0, 51, 64
5, 113520, Note_on_c, 0, 50, 64
5, 113640, Note_off_c, 0, 50, 64
5, 113640, Note_on_c, 0, 48, 64
5, 113760, Note_off_c, 0, 48, 64
5, 113760, Note_on_c, 0, 47, 64
5, 114240, Note_off_c, 0, 47, 64
5, 114480, Note_on_c, 0, 50, 64
5, 114720, Note_off_c, 0, 50, 64
5, 114720, Note_on_c, 0, 49, 64
5, 114960, Note_off_c, 0, 49, 64
5, 114960, Note_on_c, 0, 52, 64
5, 115200, Note_off_c, 0, 52, 64
5, 115200, Note_on_c, 0, 50, 64
5, 115440, Note_off_c, 0, 50, 64
5, 115440, Note_on_c, 0, 48, 64
5, 115680, Note_off_c, 0, 48, 64
5, 115680, Note_on_c, 0, 47, 64
5, 115920, Note_off_c, 0, 47, 64
5, 115920, Note_on_c, 0, 50, 64
5, 116160, Note_off_c, 0, 50, 64
5, 116160, Note_on_c, 0, 48, 64
5, 116400, Note_off_c, 0, 48, 64
5, 116400, Note_on_c, 0, 47, 64
5, 116640, Note_off_c, 0, 47, 64
5, 116640, Note_on_c, 0, 48, 64
5, 117360, Note_off_c, 0, 48, 64
5, 117360, Note_on_c, 0, 43, 64
5, 117600, Note_off_c, 0, 43, 64
5, 117600, Note_on_c, 0, 42, 64
5, 117840, Note_off_c, 0, 42, 64
5, 117840, Note_on_c, 0, 43, 64
5, 118080, Note_off_c, 0, 43, 64
5, 118080, Note_on_c, 0, 45, 64
5, 118320, Note_off_c, 0, 45, 64
5, 118320, Note_on_c, 0, 38, 64
5, 118560, Note_off_c, 0, 38, 64
5, 118560, Note_on_c, 0, 50, 64
5, 119520, Note_off_c, 0, 50, 64
5, 119520, Note_on_c, 0, 48, 64
5, 119760, Note_off_c, 0, 48, 64
5, 119760, Note_on_c, 0, 46, 64
5, 120000, Note_off_c, 0, 46, 64
5, 120000, Note_on_c, 0, 48, 64
5, 120480, Note_off_c, 0, 48, 64
5, 120480, Note_on_c, 0, 46, 64
5, 120720, Note_off_c, 0, 46, 64
5, 120720, Note_on_c, 0, 45, 64
5, 120960, Note_off_c, 0, 45, 64
5, 120960, Note_on_c, 0, 46, 64
5, 121080, Note_off_c, 0, 46, 64
5, 121080, Note_on_c, 0, 48, 64
5, 121200, Note_off_c, 0, 48, 64
5, 121200, Note_on_c, 0, 46, 64
5, 121320, Note_off_c, 0, 46, 64
5, 121320, Note_on_c, 0, 45, 64
5, 121440, Note_off_c, 0, 45, 64
5, 121440, Note_on_c, 0, 43, 64
5, 122160, Note_off_c, 0, 43, 64
5, 122160, Note_on_c, 0, 45, 64
5, 122400, Note_off_c, 0, 45, 64
5, 122400, Note_on_c, 0, 46, 64
5, 122640, Note_off_c, 0, 46, 64
5, 122640, Note_on_c, 0, 48, 64
5, 122880, Note_off_c, 0, 48, 64
5, 122880, Note_on_c, 0, 50, 64
5, 123120, Note_off_c, 0, 50, 64
5, 123120, Note_on_c, 0, 51, 64
5, 123360, Note_off_c, 0, 51, 64
5, 123360, Note_on_c, 0, 50, 64
5, 123600, Note_off_c, 0, 50, 64
5, 123600, Note_on_c, 0, 48, 64
5, 123840, Note_off_c, 0, 48, 64
5, 123840, Note_on_c, 0, 46, 64
5, 124080, Note_off_c, 0, 46, 64
5, 124080, Note_on_c, 0, 45, 64
5, 124320, Note_off_c, 0, 45, 64
5, 124320, Note_on_c, 0, 43, 64
5, 124560, Note_off_c, 0, 43, 64
5, 124560, Note_on_c, 0, 46, 64
5, 124800, Note_off_c, 0, 46, 64
5, 124800, Note_on_c, 0, 45, 64
5, 126000, Note_off_c, 0, 45, 64
5, 126000, Note_on_c, 0, 43, 64
5, 126240, Note_off_c, 0, 43, 64
5, 126240, Note_on_c, 0, 42, 64
5, 126480, Note_off_c, 0, 42, 64
5, 126480, Note_on_c, 0, 45, 64
5, 126720, Note_off_c, 0, 45, 64
5, 126720, Note_on_c, 0, 43, 64
5, 127920, Note_off_c, 0, 43, 64
5, 127920, Note_on_c, 0, 41, 64
5, 128160, Note_off_c, 0, 41, 64
5, 128160, Note_on_c, 0, 40, 64
5, 128400, Note_off_c, 0, 40, 64
5, 128400, Note_on_c, 0, 43, 64
5, 128640, Note_off_c, 0, 43, 64
5, 128640, Note_on_c, 0, 41, 64
5, 129120, Note_off_c, 0, 41, 64
5, 129360, Note_on_c, 0, 41, 64
5, 129600, Note_off_c, 0, 41, 64
5, 129600, Note_on_c, 0, 48, 64
5, 130080, Note_off_c, 0, 48, 64
5, 130320, Note_on_c, 0, 51, 64
5, 130560, Note_off_c, 0, 51, 64
5, 130560, Note_on_c, 0, 50, 64
5, 131040, Note_off_c, 0, 50, 64
5, 131280, Note_on_c, 0, 43, 64
5, 131520, Note_off_c, 0, 43, 64
5, 131520, Note_on_c, 0, 42, 64
5, 132000, Note_off_c, 0, 42, 64
5, 132240, Note_on_c, 0, 38, 64
5, 132480, Note_off_c, 0, 38, 64
5, 132480, Note_on_c, 0, 43, 64
5, 132960, Note_off_c, 0, 43, 64
5, 132960, Note_on_c, 0, 39, 64
5, 133440, Note_off_c, 0, 39, 64
5, 133440, Note_on_c, 0, 36, 64
5, 133920, Note_off_c, 0, 36, 64
5, 133920, Note_on_c, 0, 38, 64
5, 134400, Note_off_c, 0, 38, 64
5, 134400, Note_on_c, 0, 43, 64
5, 134640, Note_off_c, 0, 43, 64
5, 134640, Note_on_c, 0, 55, 64
5, 134760, Note_off_c, 0, 55, 64
5, 134760, Note_on_c, 0, 57, 64
5, 134880, Note_off_c, 0, 57, 64
5, 134880, Note_on_c, 0, 58, 64
5, 135120, Note_off_c, 0, 58, 64
5, 135120, Note_on_c, 0, 60, 64
5, 135360, Note_off_c, 0, 60, 64
5, 135360, Note_on_c, 0, 62, 64
5, 136080, Note_off_c, 0, 62, 64
5, 136080, Note_on_c, 0, 60, 64
5, 136200, Note_off_c, 0, 60, 64
5, 136200, Note_on_c, 0, 58, 64
5, 136320, Note_off_c, 0, 58, 64
5, 136320, Note_on_c, 0, 57, 64
5, 136560, Note_off_c, 0, 57, 64
5, 136560, Note_on_c, 0, 54, 64
5, 136800, Note_off_c, 0, 54, 64
5, 136800, Note_on_c, 0, 55, 64
5, 137040, Note_off_c, 0, 55, 64
5, 137040, Note_on_c, 0, 57, 64
5, 137280, Note_off_c, 0, 57, 64
5, 137280, Note_on_c, 0, 50, 64
5, 137760, Note_off_c, 0, 50, 64
5, 138480, Note_on_c, 0, 52, 64
5, 138720, Note_off_c, 0, 52, 64
5, 138720, Note_on_c, 0, 53, 64
5, 138960, Note_off_c, 0, 53, 64
5, 138960, Note_on_c, 0, 55, 64
5, 139200, Note_off_c, 0, 55, 64
5, 139200, Note_on_c, 0, 57, 64
5, 140160, Note_off_c, 0, 57, 64
5, 140400, Note_on_c, 0, 50, 64
5, 140640, Note_off_c, 0, 50, 64
5, 140640, Note_on_c, 0, 52, 64
5, 140880, Note_off_c, 0, 52, 64
5, 140880, Note_on_c, 0, 54, 64
5, 141120, Note_off_c, 0, 54, 64
5, 141120, Note_on_c, 0, 55, 64
5, 142080, Note_off_c, 0, 55, 64
5, 142560, Note_on_c, 0, 50, 64
5, 143040, Note_off_c, 0, 50, 64
5, 143040, Note_on_c, 0, 51, 64
5, 143520, Note_off_c, 0, 51, 64
5, 143520, Note_on_c, 0, 45, 64
5, 144000, Note_off_c, 0, 45, 64
5, 144000, Note_on_c, 0, 57, 64
5, 144120, Note_off_c, 0, 57, 64
5, 144120, Note_on_c, 0, 58, 64
5, 144240, Note_off_c, 0, 58, 64
5, 144240, Note_on_c, 0, 60, 64
5, 144720, Note_off_c, 0, 60, 64
5, 144720, Note_on_c, 0, 58, 64
5, 144960, Note_off_c, 0, 58, 64
5, 144960, Note_on_c, 0, 60, 64
5, 145200, Note_off_c, 0, 60, 64
5, 145200, Note_on_c, 0, 57, 64
5, 145440, Note_off_c, 0, 57, 64
5, 145440, Note_on_c, 0, 54, 64
5, 145920, Note_off_c, 0, 54, 64
5, 145920, Note_on_c, 0, 55, 64
5, 146400, Note_off_c, 0, 55, 64
5, 146640, Note_on_c, 0, 46, 64
5, 146880, Note_off_c, 0, 46, 64
5, 146880, Note_on_c, 0, 51, 64
5, 147360, Note_off_c, 0, 51, 64
5, 147600, Note_on_c, 0, 42, 64
5, 147840, Note_off_c, 0, 42, 64
5, 147840, Note_on_c, 0, 43, 64
5, 148320, Note_off_c, 0, 43, 64
5, 148320, Note_on_c, 0, 43, 64
5, 148560, Note_off_c, 0, 43, 64
5, 148560, Note_on_c, 0, 45, 64
5, 148800, Note_off_c, 0, 45, 64
5, 148800, Note_on_c, 0, 46, 64
5, 149040, Note_off_c, 0, 46, 64
5, 149040, Note_on_c, 0, 48, 64
5, 149280, Note_off_c, 0, 48, 64
5, 149280, Note_on_c, 0, 50, 64
5, 149520, Note_off_c, 0, 50, 64
5, 149520, Note_on_c, 0, 51, 64
5, 149760, Note_off_c, 0, 51, 64
5, 149760, Note_on_c, 0, 42, 64
5, 150240, Note_off_c, 0, 42, 64
5, 151200, Note_on_c, 0, 50, 64
5, 151920, Note_off_c, 0, 50, 64
5, 151920, Note_on_c, 0, 49, 64
5, 152160, Note_off_c, 0, 49, 64
5, 152160, Note_on_c, 0, 45, 64
5, 152400, Note_off_c, 0, 45, 64
5, 152400, Note_on_c, 0, 47, 64
5, 152640, Note_off_c, 0, 47, 64
5, 152640, Note_on_c, 0, 48, 64
5, 153840, Note_off_c, 0, 48, 64
5, 153840, Note_on_c, 0, 47, 64
5, 154080, Note_off_c, 0, 47, 64
5, 154080, Note_on_c, 0, 43, 64
5, 154320, Note_off_c, 0, 43, 64
5, 154320, Note_on_c, 0, 45, 64
5, 154560, Note_off_c, 0, 45, 64
5, 154560, Note_on_c, 0, 46, 64
5, 155760, Note_off_c, 0, 46, 64
5, 155760, Note_on_c, 0, 45, 64
5, 156000, Note_off_c, 0, 45, 64
5, 156000, Note_on_c, 0, 44, 64
5, 156240, Note_off_c, 0, 44, 64
5, 156240, Note_on_c, 0, 45, 64
5, 156480, Note_off_c, 0, 45, 64
5, 156480, Note_on_c, 0, 44, 64
5, 156720, Note_off_c, 0, 44, 64
5, 156720, Note_on_c, 0, 43, 64
5, 156960, Note_off_c, 0, 43, 64
5, 156960, Note_on_c, 0, 42, 64
5, 157200, Note_off_c, 0, 42, 64
5, 157200, Note_on_c, 0, 43, 64
5, 157440, Note_off_c, 0, 43, 64
5, 157440, Note_on_c, 0, 42, 64
5, 157680, Note_off_c, 0, 42, 64
5, 157680, Note_on_c, 0, 40, 64
5, 157920, Note_off_c, 0, 40, 64
5, 157920, Note_on_c, 0, 38, 64
5, 158160, Note_off_c, 0, 38, 64
5, 158160, Note_on_c, 0, 39, 64
5, 158400, Note_off_c, 0, 39, 64
5, 158400, Note_on_c, 0, 38, 64
5, 158640, Note_off_c, 0, 38, 64
5, 158640, Note_on_c, 0, 42, 64
5, 158880, Note_off_c, 0, 42, 64
5, 158880, Note_on_c, 0, 45, 64
5, 159120, Note_off_c, 0, 45, 64
5, 159120, Note_on_c, 0, 48, 64
5, 159360, Note_off_c, 0, 48, 64
5, 159360, Note_on_c, 0, 46, 64
5, 159600, Note_off_c, 0, 46, 64
5, 159600, Note_on_c, 0, 50, 64
5, 159840, Note_off_c, 0, 50, 64
5, 159840, Note_on_c, 0, 54, 64
5, 160080, Note_off_c, 0, 54, 64
5, 160080, Note_on_c, 0, 55, 64
5, 160320, Note_off_c, 0, 55, 64
5, 160320, Note_on_c, 0, 45, 64
5, 160560, Note_off_c, 0, 45, 64
5, 160560, Note_on_c, 0, 51, 64
5, 160800, Note_off_c, 0, 51, 64
5, 160800, Note_on_c, 0, 50, 64
5, 161040, Note_off_c, 0, 50, 64
5, 161040, Note_on_c, 0, 48, 64
5, 161280, Note_off_c, 0, 48, 64
5, 161280, Note_on_c, 0, 46, 64
5, 162240, Note_off_c, 0, 46, 64
5, 162240, End_track
0, 0, End_of_file
