0, 0, Header, 1, 20, 1024
1, 0, Start_track
1, 0, Title_t, "Bach's B minor Mass: 20. Osanna"
1, 0, Copyright_t, "seq. by David Siu   dss@po.cwru.edu"
1, 0, Time_signature, 3, 3, 36, 8
1, 0, Key_signature, 2, "major"
1, 0, Tempo, 625000
1, 176614, Tempo, 625000
1, 176737, Tempo, 631578
1, 176860, Tempo, 638297
1, 176983, Tempo, 645161
1, 177106, Tempo, 659340
1, 177229, Tempo, 666666
1, 177352, Tempo, 674157
1, 177475, Tempo, 681818
1, 177598, Tempo, 697674
1, 177721, Tempo, 705882
1, 177844, Tempo, 714285
1, 177967, Tempo, 731707
1, 178090, Tempo, 740740
1, 178985, Tempo, 3000000
1, 179177, Tempo, 625000
1, 226336, Tempo, 600000
1, 226460, Tempo, 674157
1, 226584, Tempo, 769230
1, 226800, Tempo, 800000
1, 226848, Tempo, 845070
1, 226972, Tempo, 967741
1, 227096, Tempo, 1132075
1, 227220, Tempo, 1395348
1, 227360, Tempo, 1034482
1, 230400, End_track
2, 0, Start_track
2, 0, Title_t, "Trumpet II and III"
2, 0, Program_c, 1, 56
2, 0, Control_c, 1, 121, 127
2, 0, Control_c, 1, 91, 127
2, 0, Control_c, 1, 1, 5
2, 0, Control_c, 1, 10, 90
2, 8192, Note_on_c, 1, 78, 82
2, 8192, Note_on_c, 1, 62, 82
2, 8397, Note_on_c, 1, 78, 0
2, 8448, Note_on_c, 1, 74, 83
2, 8448, Note_on_c, 1, 62, 0
2, 8653, Note_on_c, 1, 74, 0
2, 8704, Note_on_c, 1, 76, 83
2, 8704, Note_on_c, 1, 69, 83
2, 8909, Note_on_c, 1, 76, 0
2, 8960, Note_on_c, 1, 73, 84
2, 8960, Note_on_c, 1, 69, 0
2, 9165, Note_on_c, 1, 73, 0
2, 9216, Note_on_c, 1, 74, 84
2, 9216, Note_on_c, 1, 69, 84
2, 9472, Note_on_c, 1, 74, 0
2, 9472, Note_on_c, 1, 69, 0
2, 9728, Note_on_c, 1, 81, 85
2, 9728, Note_on_c, 1, 74, 85
2, 9984, Note_on_c, 1, 81, 0
2, 9984, Note_on_c, 1, 74, 0
2, 10240, Note_on_c, 1, 78, 86
2, 10240, Note_on_c, 1, 69, 86
2, 10496, Note_on_c, 1, 78, 0
2, 10496, Note_on_c, 1, 69, 0
2, 10752, Note_on_c, 1, 76, 86
2, 10752, Note_on_c, 1, 69, 86
2, 10957, Note_on_c, 1, 76, 0
2, 11008, Note_on_c, 1, 74, 87
2, 11008, Note_on_c, 1, 69, 0
2, 11213, Note_on_c, 1, 74, 0
2, 11264, Note_on_c, 1, 76, 89
2, 11264, Note_on_c, 1, 76, 89
2, 11469, Note_on_c, 1, 76, 0
2, 11520, Note_on_c, 1, 78, 90
2, 11520, Note_on_c, 1, 76, 0
2, 11725, Note_on_c, 1, 78, 0
2, 11776, Note_on_c, 1, 76, 91
2, 11776, Note_on_c, 1, 69, 91
2, 11981, Note_on_c, 1, 76, 0
2, 12032, Note_on_c, 1, 79, 92
2, 12032, Note_on_c, 1, 69, 0
2, 12237, Note_on_c, 1, 79, 0
2, 12288, Note_on_c, 1, 78, 93
2, 12288, Note_on_c, 1, 69, 93
2, 12493, Note_on_c, 1, 78, 0
2, 12544, Note_on_c, 1, 74, 94
2, 12544, Note_on_c, 1, 69, 0
2, 12749, Note_on_c, 1, 74, 0
2, 12800, Note_on_c, 1, 76, 96
2, 12800, Note_on_c, 1, 69, 96
2, 13005, Note_on_c, 1, 76, 0
2, 13056, Note_on_c, 1, 78, 97
2, 13056, Note_on_c, 1, 69, 0
2, 13261, Note_on_c, 1, 78, 0
2, 13312, Note_on_c, 1, 76, 98
2, 13312, Note_on_c, 1, 76, 98
2, 13517, Note_on_c, 1, 76, 0
2, 13568, Note_on_c, 1, 79, 99
2, 13568, Note_on_c, 1, 76, 0
2, 13773, Note_on_c, 1, 79, 0
2, 13824, Note_on_c, 1, 78, 100
2, 13824, Note_on_c, 1, 74, 100
2, 14080, Note_on_c, 1, 78, 0
2, 14080, Note_on_c, 1, 74, 0
2, 14336, Note_on_c, 1, 74, 103
2, 14336, Note_on_c, 1, 79, 103
2, 14592, Note_on_c, 1, 74, 0
2, 14592, Note_on_c, 1, 79, 0
2, 14848, Note_on_c, 1, 81, 105
2, 14848, Note_on_c, 1, 76, 105
2, 15104, Note_on_c, 1, 81, 0
2, 15104, Note_on_c, 1, 76, 0
2, 15360, Note_on_c, 1, 81, 107
2, 15360, Note_on_c, 1, 78, 107
2, 15565, Note_on_c, 1, 81, 0
2, 15565, Note_on_c, 1, 78, 0
2, 15616, Note_on_c, 1, 79, 101
2, 15616, Note_on_c, 1, 76, 101
2, 15821, Note_on_c, 1, 79, 0
2, 15821, Note_on_c, 1, 76, 0
2, 15872, Note_on_c, 1, 81, 93
2, 15872, Note_on_c, 1, 78, 93
2, 16128, Note_on_c, 1, 81, 0
2, 16128, Note_on_c, 1, 78, 0
2, 19456, Note_on_c, 1, 76, 90
2, 19456, Note_on_c, 1, 69, 90
2, 19712, Note_on_c, 1, 76, 0
2, 19712, Note_on_c, 1, 69, 0
2, 19968, Note_on_c, 1, 74, 91
2, 19968, Note_on_c, 1, 66, 91
2, 20224, Note_on_c, 1, 74, 0
2, 20224, Note_on_c, 1, 66, 0
2, 20480, Note_on_c, 1, 76, 93
2, 20480, Note_on_c, 1, 69, 93
2, 20736, Note_on_c, 1, 76, 0
2, 20736, Note_on_c, 1, 69, 0
2, 20992, Note_on_c, 1, 78, 94
2, 20992, Note_on_c, 1, 62, 94
2, 21248, Note_on_c, 1, 78, 0
2, 21248, Note_on_c, 1, 62, 0
2, 21504, Note_on_c, 1, 76, 95
2, 21504, Note_on_c, 1, 69, 95
2, 21760, Note_on_c, 1, 76, 0
2, 21760, Note_on_c, 1, 69, 0
2, 22016, Note_on_c, 1, 69, 89
2, 22016, Note_on_c, 1, 69, 89
2, 22272, Note_on_c, 1, 69, 0
2, 22272, Note_on_c, 1, 69, 0
2, 40960, Note_on_c, 1, 62, 101
2, 40960, Note_on_c, 1, 62, 101
2, 41216, Note_on_c, 1, 62, 0
2, 41216, Note_on_c, 1, 62, 0
2, 41472, Note_on_c, 1, 69, 103
2, 41472, Note_on_c, 1, 69, 103
2, 41728, Note_on_c, 1, 69, 0
2, 41728, Note_on_c, 1, 69, 0
2, 41984, Note_on_c, 1, 69, 104
2, 41984, Note_on_c, 1, 69, 104
2, 42189, Note_on_c, 1, 69, 0
2, 42189, Note_on_c, 1, 69, 0
2, 42240, Note_on_c, 1, 69, 104
2, 42240, Note_on_c, 1, 69, 104
2, 42445, Note_on_c, 1, 69, 0
2, 42445, Note_on_c, 1, 69, 0
2, 42496, Note_on_c, 1, 69, 105
2, 42496, Note_on_c, 1, 69, 105
2, 42701, Note_on_c, 1, 69, 0
2, 42701, Note_on_c, 1, 69, 0
2, 42752, Note_on_c, 1, 69, 106
2, 42752, Note_on_c, 1, 69, 106
2, 42957, Note_on_c, 1, 69, 0
2, 42957, Note_on_c, 1, 69, 0
2, 43008, Note_on_c, 1, 74, 106
2, 43008, Note_on_c, 1, 74, 106
2, 43264, Note_on_c, 1, 74, 0
2, 43264, Note_on_c, 1, 74, 0
2, 43520, Note_on_c, 1, 69, 86
2, 43520, Note_on_c, 1, 69, 86
2, 43776, Note_on_c, 1, 69, 0
2, 43776, Note_on_c, 1, 69, 0
2, 90112, Note_on_c, 1, 62, 104
2, 90112, Note_on_c, 1, 62, 104
2, 90368, Note_on_c, 1, 62, 0
2, 90368, Note_on_c, 1, 62, 0
2, 90624, Note_on_c, 1, 69, 107
2, 90624, Note_on_c, 1, 69, 107
2, 90880, Note_on_c, 1, 69, 0
2, 90880, Note_on_c, 1, 69, 0
2, 91136, Note_on_c, 1, 69, 109
2, 91136, Note_on_c, 1, 69, 109
2, 91341, Note_on_c, 1, 69, 0
2, 91341, Note_on_c, 1, 69, 0
2, 91392, Note_on_c, 1, 69, 110
2, 91392, Note_on_c, 1, 69, 110
2, 91597, Note_on_c, 1, 69, 0
2, 91597, Note_on_c, 1, 69, 0
2, 91648, Note_on_c, 1, 69, 111
2, 91648, Note_on_c, 1, 69, 111
2, 91853, Note_on_c, 1, 69, 0
2, 91853, Note_on_c, 1, 69, 0
2, 91904, Note_on_c, 1, 69, 112
2, 91904, Note_on_c, 1, 69, 112
2, 92109, Note_on_c, 1, 69, 0
2, 92109, Note_on_c, 1, 69, 0
2, 92160, Note_on_c, 1, 74, 113
2, 92160, Note_on_c, 1, 74, 113
2, 92416, Note_on_c, 1, 74, 0
2, 92416, Note_on_c, 1, 74, 0
2, 92672, Note_on_c, 1, 69, 96
2, 92672, Note_on_c, 1, 69, 96
2, 92928, Note_on_c, 1, 69, 0
2, 92928, Note_on_c, 1, 69, 0
2, 123904, Note_on_c, 1, 69, 98
2, 124160, Note_on_c, 1, 69, 0
2, 124416, Note_on_c, 1, 74, 97
2, 124672, Note_on_c, 1, 74, 0
2, 124928, Note_on_c, 1, 66, 102
2, 125184, Note_on_c, 1, 66, 0
2, 125440, Note_on_c, 1, 69, 106
2, 125696, Note_on_c, 1, 69, 0
2, 125952, Note_on_c, 1, 74, 111
2, 126157, Note_on_c, 1, 74, 0
2, 126208, Note_on_c, 1, 73, 110
2, 126413, Note_on_c, 1, 73, 0
2, 126464, Note_on_c, 1, 74, 108
2, 126669, Note_on_c, 1, 74, 0
2, 126720, Note_on_c, 1, 76, 106
2, 126925, Note_on_c, 1, 76, 0
2, 126976, Note_on_c, 1, 73, 103
2, 127181, Note_on_c, 1, 73, 0
2, 127232, Note_on_c, 1, 74, 101
2, 127437, Note_on_c, 1, 74, 0
2, 127488, Note_on_c, 1, 76, 98
2, 127744, Note_on_c, 1, 76, 0
2, 128000, Note_on_c, 1, 69, 103
2, 128256, Note_on_c, 1, 69, 0
2, 128512, Note_on_c, 1, 74, 108
2, 128768, Note_on_c, 1, 74, 0
2, 129024, Note_on_c, 1, 76, 113
2, 129229, Note_on_c, 1, 76, 0
2, 129280, Note_on_c, 1, 74, 114
2, 129485, Note_on_c, 1, 74, 0
2, 129536, Note_on_c, 1, 76, 111
2, 129741, Note_on_c, 1, 76, 0
2, 129792, Note_on_c, 1, 78, 108
2, 129997, Note_on_c, 1, 78, 0
2, 130048, Note_on_c, 1, 74, 105
2, 130048, Note_on_c, 1, 69, 105
2, 130253, Note_on_c, 1, 74, 0
2, 130304, Note_on_c, 1, 76, 102
2, 130304, Note_on_c, 1, 69, 0
2, 130509, Note_on_c, 1, 76, 0
2, 130560, Note_on_c, 1, 78, 99
2, 130560, Note_on_c, 1, 62, 99
2, 130816, Note_on_c, 1, 62, 0
2, 131072, Note_on_c, 1, 66, 99
2, 131328, Note_on_c, 1, 66, 0
2, 131584, Note_on_c, 1, 69, 101
2, 131840, Note_on_c, 1, 69, 0
2, 132096, Note_on_c, 1, 62, 102
2, 132352, Note_on_c, 1, 62, 0
2, 136704, Note_on_c, 1, 78, 0
2, 136704, Note_on_c, 1, 78, 93
2, 136832, Note_on_c, 1, 78, 0
2, 136832, Note_on_c, 1, 76, 93
2, 136960, Note_on_c, 1, 76, 0
2, 136960, Note_on_c, 1, 78, 94
2, 137088, Note_on_c, 1, 78, 0
2, 137088, Note_on_c, 1, 76, 94
2, 137216, Note_on_c, 1, 76, 0
2, 137216, Note_on_c, 1, 78, 94
2, 137344, Note_on_c, 1, 78, 0
2, 137344, Note_on_c, 1, 76, 95
2, 137472, Note_on_c, 1, 76, 0
2, 137472, Note_on_c, 1, 78, 95
2, 137600, Note_on_c, 1, 78, 0
2, 137600, Note_on_c, 1, 76, 95
2, 137728, Note_on_c, 1, 76, 0
2, 137728, Note_on_c, 1, 78, 96
2, 137856, Note_on_c, 1, 78, 0
2, 137856, Note_on_c, 1, 76, 96
2, 137984, Note_on_c, 1, 76, 0
2, 137984, Note_on_c, 1, 78, 96
2, 138112, Note_on_c, 1, 78, 0
2, 138112, Note_on_c, 1, 76, 97
2, 138240, Note_on_c, 1, 76, 0
2, 138240, Note_on_c, 1, 78, 97
2, 138368, Note_on_c, 1, 78, 0
2, 138368, Note_on_c, 1, 76, 98
2, 138496, Note_on_c, 1, 76, 0
2, 138496, Note_on_c, 1, 78, 98
2, 138624, Note_on_c, 1, 78, 0
2, 138624, Note_on_c, 1, 76, 98
2, 138752, Note_on_c, 1, 76, 0
2, 138752, Note_on_c, 1, 78, 99
2, 138880, Note_on_c, 1, 78, 0
2, 138880, Note_on_c, 1, 76, 99
2, 139008, Note_on_c, 1, 76, 0
2, 139008, Note_on_c, 1, 78, 99
2, 139136, Note_on_c, 1, 78, 0
2, 139136, Note_on_c, 1, 76, 100
2, 139264, Note_on_c, 1, 76, 0
2, 139264, Note_on_c, 1, 78, 100
2, 139392, Note_on_c, 1, 78, 0
2, 139392, Note_on_c, 1, 76, 100
2, 139520, Note_on_c, 1, 76, 0
2, 139520, Note_on_c, 1, 78, 101
2, 139648, Note_on_c, 1, 78, 0
2, 139648, Note_on_c, 1, 76, 101
2, 139776, Note_on_c, 1, 76, 0
2, 139776, Note_on_c, 1, 78, 102
2, 139776, Note_on_c, 1, 69, 102
2, 139904, Note_on_c, 1, 78, 0
2, 139904, Note_on_c, 1, 76, 102
2, 140032, Note_on_c, 1, 76, 0
2, 140032, Note_on_c, 1, 78, 102
2, 140032, Note_on_c, 1, 69, 0
2, 140160, Note_on_c, 1, 78, 0
2, 140160, Note_on_c, 1, 76, 103
2, 140288, Note_on_c, 1, 76, 0
2, 140288, Note_on_c, 1, 78, 103
2, 140288, Note_on_c, 1, 69, 103
2, 140416, Note_on_c, 1, 78, 0
2, 140416, Note_on_c, 1, 76, 103
2, 140493, Note_on_c, 1, 69, 0
2, 140544, Note_on_c, 1, 76, 0
2, 140544, Note_on_c, 1, 78, 104
2, 140544, Note_on_c, 1, 69, 104
2, 140672, Note_on_c, 1, 78, 0
2, 140672, Note_on_c, 1, 76, 104
2, 140749, Note_on_c, 1, 69, 0
2, 140800, Note_on_c, 1, 76, 0
2, 140800, Note_on_c, 1, 78, 104
2, 140800, Note_on_c, 1, 69, 104
2, 140928, Note_on_c, 1, 78, 0
2, 140928, Note_on_c, 1, 76, 105
2, 141005, Note_on_c, 1, 69, 0
2, 141056, Note_on_c, 1, 76, 0
2, 141056, Note_on_c, 1, 78, 105
2, 141056, Note_on_c, 1, 69, 105
2, 141184, Note_on_c, 1, 78, 0
2, 141184, Note_on_c, 1, 76, 106
2, 141261, Note_on_c, 1, 69, 0
2, 141312, Note_on_c, 1, 76, 0
2, 141312, Note_on_c, 1, 78, 106
2, 141312, Note_on_c, 1, 69, 106
2, 141440, Note_on_c, 1, 78, 0
2, 141440, Note_on_c, 1, 76, 106
2, 141568, Note_on_c, 1, 76, 0
2, 141568, Note_on_c, 1, 78, 107
2, 141568, Note_on_c, 1, 69, 0
2, 141696, Note_on_c, 1, 78, 0
2, 141696, Note_on_c, 1, 76, 107
2, 141824, Note_on_c, 1, 76, 0
2, 141824, Note_on_c, 1, 78, 107
2, 141952, Note_on_c, 1, 78, 0
2, 141952, Note_on_c, 1, 76, 108
2, 142080, Note_on_c, 1, 76, 0
2, 142080, Note_on_c, 1, 78, 108
2, 142208, Note_on_c, 1, 78, 0
2, 142208, Note_on_c, 1, 76, 108
2, 142336, Note_on_c, 1, 76, 0
2, 142336, Note_on_c, 1, 78, 109
2, 142464, Note_on_c, 1, 78, 0
2, 142464, Note_on_c, 1, 76, 109
2, 142592, Note_on_c, 1, 76, 0
2, 142592, Note_on_c, 1, 78, 110
2, 142720, Note_on_c, 1, 78, 0
2, 142720, Note_on_c, 1, 76, 110
2, 142848, Note_on_c, 1, 76, 0
2, 142848, Note_on_c, 1, 74, 110
2, 143104, Note_on_c, 1, 74, 0
2, 143360, Note_on_c, 1, 74, 111
2, 143360, Note_on_c, 1, 69, 111
2, 143565, Note_on_c, 1, 74, 0
2, 143616, Note_on_c, 1, 73, 110
2, 143616, Note_on_c, 1, 69, 0
2, 143821, Note_on_c, 1, 73, 0
2, 143872, Note_on_c, 1, 74, 109
2, 143872, Note_on_c, 1, 69, 109
2, 144128, Note_on_c, 1, 74, 0
2, 144128, Note_on_c, 1, 69, 0
2, 144384, Note_on_c, 1, 74, 106
2, 144384, Note_on_c, 1, 69, 106
2, 144640, Note_on_c, 1, 74, 0
2, 144640, Note_on_c, 1, 69, 0
2, 149504, Note_on_c, 1, 76, 107
2, 149504, Note_on_c, 1, 69, 107
2, 149709, Note_on_c, 1, 76, 0
2, 149760, Note_on_c, 1, 74, 105
2, 149760, Note_on_c, 1, 69, 0
2, 149965, Note_on_c, 1, 74, 0
2, 150016, Note_on_c, 1, 76, 103
2, 150016, Note_on_c, 1, 69, 103
2, 150272, Note_on_c, 1, 76, 0
2, 150272, Note_on_c, 1, 69, 0
2, 150528, Note_on_c, 1, 76, 96
2, 150528, Note_on_c, 1, 69, 96
2, 150784, Note_on_c, 1, 76, 0
2, 150784, Note_on_c, 1, 69, 0
2, 154624, Note_on_c, 1, 74, 94
2, 154624, Note_on_c, 1, 69, 94
2, 154880, Note_on_c, 1, 74, 0
2, 154880, Note_on_c, 1, 69, 0
2, 155136, Note_on_c, 1, 74, 96
2, 155136, Note_on_c, 1, 62, 96
2, 155392, Note_on_c, 1, 74, 0
2, 155392, Note_on_c, 1, 62, 0
2, 156160, Note_on_c, 1, 76, 102
2, 156416, Note_on_c, 1, 76, 0
2, 156672, Note_on_c, 1, 76, 105
2, 156928, Note_on_c, 1, 76, 0
2, 157696, Note_on_c, 1, 78, 110
2, 157696, Note_on_c, 1, 66, 110
2, 157952, Note_on_c, 1, 78, 0
2, 157952, Note_on_c, 1, 66, 0
2, 158208, Note_on_c, 1, 74, 113
2, 158208, Note_on_c, 1, 66, 113
2, 158464, Note_on_c, 1, 74, 0
2, 158464, Note_on_c, 1, 66, 0
2, 158720, Note_on_c, 1, 76, 116
2, 158720, Note_on_c, 1, 74, 116
2, 158925, Note_on_c, 1, 76, 0
2, 158976, Note_on_c, 1, 78, 117
2, 158976, Note_on_c, 1, 74, 0
2, 159181, Note_on_c, 1, 78, 0
2, 159232, Note_on_c, 1, 79, 118
2, 159232, Note_on_c, 1, 69, 118
2, 159437, Note_on_c, 1, 79, 0
2, 159488, Note_on_c, 1, 81, 120
2, 159488, Note_on_c, 1, 69, 0
2, 159693, Note_on_c, 1, 81, 0
2, 159744, Note_on_c, 1, 78, 121
2, 159744, Note_on_c, 1, 69, 121
2, 160000, Note_on_c, 1, 78, 0
2, 160768, Note_on_c, 1, 69, 0
2, 166912, Note_on_c, 1, 78, 100
2, 166912, Note_on_c, 1, 69, 100
2, 167168, Note_on_c, 1, 78, 0
2, 167168, Note_on_c, 1, 69, 0
2, 167424, Note_on_c, 1, 76, 102
2, 167424, Note_on_c, 1, 69, 102
2, 167629, Note_on_c, 1, 76, 0
2, 167680, Note_on_c, 1, 74, 103
2, 167680, Note_on_c, 1, 69, 0
2, 167885, Note_on_c, 1, 74, 0
2, 167936, Note_on_c, 1, 76, 104
2, 167936, Note_on_c, 1, 76, 104
2, 168141, Note_on_c, 1, 76, 0
2, 168192, Note_on_c, 1, 78, 104
2, 168192, Note_on_c, 1, 76, 0
2, 168397, Note_on_c, 1, 78, 0
2, 168448, Note_on_c, 1, 76, 105
2, 168448, Note_on_c, 1, 69, 105
2, 168653, Note_on_c, 1, 76, 0
2, 168704, Note_on_c, 1, 79, 106
2, 168704, Note_on_c, 1, 69, 0
2, 168909, Note_on_c, 1, 79, 0
2, 168960, Note_on_c, 1, 78, 107
2, 168960, Note_on_c, 1, 69, 107
2, 169165, Note_on_c, 1, 78, 0
2, 169216, Note_on_c, 1, 74, 108
2, 169216, Note_on_c, 1, 69, 0
2, 169421, Note_on_c, 1, 74, 0
2, 169472, Note_on_c, 1, 76, 109
2, 169472, Note_on_c, 1, 69, 109
2, 169677, Note_on_c, 1, 76, 0
2, 169728, Note_on_c, 1, 78, 110
2, 169728, Note_on_c, 1, 69, 0
2, 169933, Note_on_c, 1, 78, 0
2, 169984, Note_on_c, 1, 76, 111
2, 169984, Note_on_c, 1, 76, 111
2, 170189, Note_on_c, 1, 76, 0
2, 170240, Note_on_c, 1, 79, 112
2, 170240, Note_on_c, 1, 76, 0
2, 170445, Note_on_c, 1, 79, 0
2, 170496, Note_on_c, 1, 78, 113
2, 170496, Note_on_c, 1, 74, 113
2, 170752, Note_on_c, 1, 78, 0
2, 170752, Note_on_c, 1, 74, 0
2, 171008, Note_on_c, 1, 74, 114
2, 171008, Note_on_c, 1, 79, 114
2, 171264, Note_on_c, 1, 74, 0
2, 171264, Note_on_c, 1, 79, 0
2, 171520, Note_on_c, 1, 81, 116
2, 171520, Note_on_c, 1, 76, 116
2, 171776, Note_on_c, 1, 81, 0
2, 171776, Note_on_c, 1, 76, 0
2, 172032, Note_on_c, 1, 81, 118
2, 172032, Note_on_c, 1, 78, 118
2, 172237, Note_on_c, 1, 81, 0
2, 172237, Note_on_c, 1, 78, 0
2, 172288, Note_on_c, 1, 79, 100
2, 172288, Note_on_c, 1, 76, 100
2, 172493, Note_on_c, 1, 79, 0
2, 172493, Note_on_c, 1, 76, 0
2, 172544, Note_on_c, 1, 81, 84
2, 172544, Note_on_c, 1, 78, 84
2, 172800, Note_on_c, 1, 81, 0
2, 172800, Note_on_c, 1, 78, 0
2, 176128, Note_on_c, 1, 76, 101
2, 176128, Note_on_c, 1, 69, 101
2, 176384, Note_on_c, 1, 76, 0
2, 176384, Note_on_c, 1, 69, 0
2, 176640, Note_on_c, 1, 78, 109
2, 176640, Note_on_c, 1, 66, 109
2, 176896, Note_on_c, 1, 78, 0
2, 176896, Note_on_c, 1, 66, 0
2, 177152, Note_on_c, 1, 79, 113
2, 177152, Note_on_c, 1, 62, 113
2, 177357, Note_on_c, 1, 79, 0
2, 177357, Note_on_c, 1, 62, 0
2, 177408, Note_on_c, 1, 78, 115
2, 177408, Note_on_c, 1, 66, 115
2, 177613, Note_on_c, 1, 78, 0
2, 177613, Note_on_c, 1, 66, 0
2, 177664, Note_on_c, 1, 76, 117
2, 177664, Note_on_c, 1, 69, 117
2, 177869, Note_on_c, 1, 76, 0
2, 177920, Note_on_c, 1, 78, 119
2, 177920, Note_on_c, 1, 69, 0
2, 178125, Note_on_c, 1, 78, 0
2, 178176, Note_on_c, 1, 74, 121
2, 178176, Note_on_c, 1, 69, 121
2, 179115, Note_on_c, 1, 74, 0
2, 179116, Note_on_c, 1, 69, 0
2, 185344, Note_on_c, 1, 76, 96
2, 185344, Note_on_c, 1, 69, 96
2, 185600, Note_on_c, 1, 76, 0
2, 185600, Note_on_c, 1, 69, 0
2, 185856, Note_on_c, 1, 74, 96
2, 185856, Note_on_c, 1, 69, 96
2, 186112, Note_on_c, 1, 74, 0
2, 186112, Note_on_c, 1, 69, 0
2, 186368, Note_on_c, 1, 69, 97
2, 186368, Note_on_c, 1, 66, 97
2, 186624, Note_on_c, 1, 69, 0
2, 186624, Note_on_c, 1, 66, 0
2, 186880, Note_on_c, 1, 74, 98
2, 186880, Note_on_c, 1, 69, 98
2, 187136, Note_on_c, 1, 74, 0
2, 187136, Note_on_c, 1, 69, 0
2, 187392, Note_on_c, 1, 78, 99
2, 187392, Note_on_c, 1, 74, 99
2, 187648, Note_on_c, 1, 78, 0
2, 187648, Note_on_c, 1, 74, 0
2, 187904, Note_on_c, 1, 79, 99
2, 187904, Note_on_c, 1, 76, 99
2, 188160, Note_on_c, 1, 79, 0
2, 188160, Note_on_c, 1, 76, 0
2, 188416, Note_on_c, 1, 78, 100
2, 188416, Note_on_c, 1, 74, 100
2, 188672, Note_on_c, 1, 78, 0
2, 188672, Note_on_c, 1, 74, 0
2, 188928, Note_on_c, 1, 74, 101
2, 188928, Note_on_c, 1, 66, 101
2, 189133, Note_on_c, 1, 74, 0
2, 189184, Note_on_c, 1, 78, 101
2, 189184, Note_on_c, 1, 66, 0
2, 189389, Note_on_c, 1, 78, 0
2, 189440, Note_on_c, 1, 76, 102
2, 189440, Note_on_c, 1, 69, 102
2, 189645, Note_on_c, 1, 76, 0
2, 189696, Note_on_c, 1, 79, 102
2, 189696, Note_on_c, 1, 69, 0
2, 189901, Note_on_c, 1, 79, 0
2, 189952, Note_on_c, 1, 78, 103
2, 189952, Note_on_c, 1, 69, 103
2, 190157, Note_on_c, 1, 78, 0
2, 190208, Note_on_c, 1, 81, 103
2, 190208, Note_on_c, 1, 69, 0
2, 190413, Note_on_c, 1, 81, 0
2, 190464, Note_on_c, 1, 85, 103
2, 190464, Note_on_c, 1, 69, 103
2, 190669, Note_on_c, 1, 85, 0
2, 190720, Note_on_c, 1, 81, 102
2, 190925, Note_on_c, 1, 81, 0
2, 190976, Note_on_c, 1, 76, 93
2, 191232, Note_on_c, 1, 76, 0
2, 191488, Note_on_c, 1, 69, 76
2, 191488, Note_on_c, 1, 69, 0
2, 191744, Note_on_c, 1, 69, 0
2, 192000, Note_on_c, 1, 74, 79
2, 192256, Note_on_c, 1, 74, 0
2, 192512, Note_on_c, 1, 66, 81
2, 192768, Note_on_c, 1, 66, 0
2, 193024, Note_on_c, 1, 69, 84
2, 193280, Note_on_c, 1, 69, 0
2, 193536, Note_on_c, 1, 74, 86
2, 193741, Note_on_c, 1, 74, 0
2, 193792, Note_on_c, 1, 73, 87
2, 193997, Note_on_c, 1, 73, 0
2, 194048, Note_on_c, 1, 74, 88
2, 194253, Note_on_c, 1, 74, 0
2, 194304, Note_on_c, 1, 76, 90
2, 194509, Note_on_c, 1, 76, 0
2, 194560, Note_on_c, 1, 69, 91
2, 194765, Note_on_c, 1, 69, 0
2, 194816, Note_on_c, 1, 74, 92
2, 195021, Note_on_c, 1, 74, 0
2, 195072, Note_on_c, 1, 76, 93
2, 195328, Note_on_c, 1, 76, 0
2, 195584, Note_on_c, 1, 69, 96
2, 195840, Note_on_c, 1, 69, 0
2, 196096, Note_on_c, 1, 74, 98
2, 196352, Note_on_c, 1, 74, 0
2, 196608, Note_on_c, 1, 76, 101
2, 196813, Note_on_c, 1, 76, 0
2, 196864, Note_on_c, 1, 74, 102
2, 197069, Note_on_c, 1, 74, 0
2, 197120, Note_on_c, 1, 76, 103
2, 197325, Note_on_c, 1, 76, 0
2, 197376, Note_on_c, 1, 78, 104
2, 197581, Note_on_c, 1, 78, 0
2, 197632, Note_on_c, 1, 74, 105
2, 197632, Note_on_c, 1, 69, 105
2, 197837, Note_on_c, 1, 74, 0
2, 197888, Note_on_c, 1, 76, 107
2, 197888, Note_on_c, 1, 69, 0
2, 198093, Note_on_c, 1, 76, 0
2, 198144, Note_on_c, 1, 78, 108
2, 198144, Note_on_c, 1, 74, 108
2, 198272, Note_on_c, 1, 78, 0
2, 198272, Note_on_c, 1, 79, 108
2, 198400, Note_on_c, 1, 79, 0
2, 198400, Note_on_c, 1, 78, 108
2, 198400, Note_on_c, 1, 74, 0
2, 198528, Note_on_c, 1, 78, 0
2, 198528, Note_on_c, 1, 79, 108
2, 198656, Note_on_c, 1, 79, 0
2, 198656, Note_on_c, 1, 78, 108
2, 198656, Note_on_c, 1, 66, 108
2, 198784, Note_on_c, 1, 78, 0
2, 198784, Note_on_c, 1, 79, 108
2, 198912, Note_on_c, 1, 79, 0
2, 198912, Note_on_c, 1, 78, 109
2, 198912, Note_on_c, 1, 66, 0
2, 199040, Note_on_c, 1, 78, 0
2, 199040, Note_on_c, 1, 79, 109
2, 199168, Note_on_c, 1, 79, 0
2, 199168, Note_on_c, 1, 78, 109
2, 199168, Note_on_c, 1, 69, 109
2, 199296, Note_on_c, 1, 78, 0
2, 199296, Note_on_c, 1, 79, 109
2, 199424, Note_on_c, 1, 79, 0
2, 199424, Note_on_c, 1, 78, 110
2, 199424, Note_on_c, 1, 69, 0
2, 199552, Note_on_c, 1, 78, 0
2, 199552, Note_on_c, 1, 79, 110
2, 199680, Note_on_c, 1, 79, 0
2, 199680, Note_on_c, 1, 78, 110
2, 199680, Note_on_c, 1, 62, 110
2, 199808, Note_on_c, 1, 78, 0
2, 199808, Note_on_c, 1, 79, 110
2, 199936, Note_on_c, 1, 79, 0
2, 199936, Note_on_c, 1, 78, 110
2, 199936, Note_on_c, 1, 62, 0
2, 200064, Note_on_c, 1, 78, 0
2, 200064, Note_on_c, 1, 79, 111
2, 200192, Note_on_c, 1, 79, 0
2, 200192, Note_on_c, 1, 78, 111
2, 200320, Note_on_c, 1, 78, 0
2, 200320, Note_on_c, 1, 79, 111
2, 200448, Note_on_c, 1, 79, 0
2, 200448, Note_on_c, 1, 78, 111
2, 200576, Note_on_c, 1, 78, 0
2, 200576, Note_on_c, 1, 79, 111
2, 200704, Note_on_c, 1, 79, 0
2, 200704, Note_on_c, 1, 78, 112
2, 200832, Note_on_c, 1, 78, 0
2, 200832, Note_on_c, 1, 79, 112
2, 200960, Note_on_c, 1, 79, 0
2, 200960, Note_on_c, 1, 78, 112
2, 201088, Note_on_c, 1, 78, 0
2, 201088, Note_on_c, 1, 79, 112
2, 201216, Note_on_c, 1, 79, 0
2, 201216, Note_on_c, 1, 78, 112
2, 201344, Note_on_c, 1, 78, 0
2, 201344, Note_on_c, 1, 79, 113
2, 201472, Note_on_c, 1, 79, 0
2, 201472, Note_on_c, 1, 78, 113
2, 201600, Note_on_c, 1, 78, 0
2, 201600, Note_on_c, 1, 79, 113
2, 201728, Note_on_c, 1, 79, 0
2, 201728, Note_on_c, 1, 78, 113
2, 201856, Note_on_c, 1, 78, 0
2, 201856, Note_on_c, 1, 79, 113
2, 201984, Note_on_c, 1, 79, 0
2, 201984, Note_on_c, 1, 78, 114
2, 202112, Note_on_c, 1, 78, 0
2, 202112, Note_on_c, 1, 79, 114
2, 202240, Note_on_c, 1, 79, 0
2, 202240, Note_on_c, 1, 78, 114
2, 202368, Note_on_c, 1, 78, 0
2, 202368, Note_on_c, 1, 79, 114
2, 202496, Note_on_c, 1, 79, 0
2, 202496, Note_on_c, 1, 78, 114
2, 202624, Note_on_c, 1, 78, 0
2, 202624, Note_on_c, 1, 79, 115
2, 202752, Note_on_c, 1, 79, 0
2, 202752, Note_on_c, 1, 78, 115
2, 202880, Note_on_c, 1, 78, 0
2, 202880, Note_on_c, 1, 79, 115
2, 203008, Note_on_c, 1, 79, 0
2, 203008, Note_on_c, 1, 78, 115
2, 203136, Note_on_c, 1, 78, 0
2, 203136, Note_on_c, 1, 79, 116
2, 203264, Note_on_c, 1, 79, 0
2, 203264, Note_on_c, 1, 78, 116
2, 203392, Note_on_c, 1, 78, 0
2, 203392, Note_on_c, 1, 79, 116
2, 203520, Note_on_c, 1, 79, 0
2, 203520, Note_on_c, 1, 78, 116
2, 203648, Note_on_c, 1, 78, 0
2, 203648, Note_on_c, 1, 79, 116
2, 203776, Note_on_c, 1, 79, 0
2, 203776, Note_on_c, 1, 78, 117
2, 203904, Note_on_c, 1, 78, 0
2, 203904, Note_on_c, 1, 79, 117
2, 204032, Note_on_c, 1, 79, 0
2, 204032, Note_on_c, 1, 78, 117
2, 204160, Note_on_c, 1, 78, 0
2, 204160, Note_on_c, 1, 79, 117
2, 204288, Note_on_c, 1, 79, 0
2, 204288, Note_on_c, 1, 76, 117
2, 204416, Note_on_c, 1, 76, 0
2, 204416, Note_on_c, 1, 78, 118
2, 204544, Note_on_c, 1, 78, 0
2, 204544, Note_on_c, 1, 76, 118
2, 204672, Note_on_c, 1, 76, 0
2, 204672, Note_on_c, 1, 78, 117
2, 204800, Note_on_c, 1, 78, 0
2, 204800, Note_on_c, 1, 76, 117
2, 204928, Note_on_c, 1, 76, 0
2, 204928, Note_on_c, 1, 78, 116
2, 205056, Note_on_c, 1, 78, 0
2, 205056, Note_on_c, 1, 76, 116
2, 205184, Note_on_c, 1, 76, 0
2, 205184, Note_on_c, 1, 78, 115
2, 205312, Note_on_c, 1, 78, 0
2, 205312, Note_on_c, 1, 76, 115
2, 205440, Note_on_c, 1, 76, 0
2, 205440, Note_on_c, 1, 78, 115
2, 205568, Note_on_c, 1, 78, 0
2, 205568, Note_on_c, 1, 76, 114
2, 205696, Note_on_c, 1, 76, 0
2, 205696, Note_on_c, 1, 78, 114
2, 205824, Note_on_c, 1, 78, 0
2, 205824, Note_on_c, 1, 76, 113
2, 205952, Note_on_c, 1, 76, 0
2, 205952, Note_on_c, 1, 78, 113
2, 206080, Note_on_c, 1, 78, 0
2, 206080, Note_on_c, 1, 76, 112
2, 206208, Note_on_c, 1, 76, 0
2, 206208, Note_on_c, 1, 78, 112
2, 206336, Note_on_c, 1, 78, 0
2, 206336, Note_on_c, 1, 76, 111
2, 206464, Note_on_c, 1, 76, 0
2, 206464, Note_on_c, 1, 78, 111
2, 206592, Note_on_c, 1, 78, 0
2, 206592, Note_on_c, 1, 76, 110
2, 206720, Note_on_c, 1, 76, 0
2, 206720, Note_on_c, 1, 78, 110
2, 206848, Note_on_c, 1, 78, 0
2, 206848, Note_on_c, 1, 76, 109
2, 206976, Note_on_c, 1, 76, 0
2, 206976, Note_on_c, 1, 78, 109
2, 207104, Note_on_c, 1, 78, 0
2, 207104, Note_on_c, 1, 76, 108
2, 207232, Note_on_c, 1, 76, 0
2, 207232, Note_on_c, 1, 78, 108
2, 207360, Note_on_c, 1, 78, 0
2, 207360, Note_on_c, 1, 76, 107
2, 207360, Note_on_c, 1, 69, 107
2, 207488, Note_on_c, 1, 76, 0
2, 207488, Note_on_c, 1, 78, 107
2, 207616, Note_on_c, 1, 78, 0
2, 207616, Note_on_c, 1, 76, 106
2, 207616, Note_on_c, 1, 69, 0
2, 207744, Note_on_c, 1, 76, 0
2, 207744, Note_on_c, 1, 78, 106
2, 207872, Note_on_c, 1, 78, 0
2, 207872, Note_on_c, 1, 76, 105
2, 207872, Note_on_c, 1, 69, 105
2, 208000, Note_on_c, 1, 76, 0
2, 208000, Note_on_c, 1, 78, 105
2, 208077, Note_on_c, 1, 69, 0
2, 208128, Note_on_c, 1, 78, 0
2, 208128, Note_on_c, 1, 76, 104
2, 208128, Note_on_c, 1, 69, 104
2, 208256, Note_on_c, 1, 76, 0
2, 208256, Note_on_c, 1, 78, 104
2, 208333, Note_on_c, 1, 69, 0
2, 208384, Note_on_c, 1, 78, 0
2, 208384, Note_on_c, 1, 76, 103
2, 208384, Note_on_c, 1, 69, 103
2, 208512, Note_on_c, 1, 76, 0
2, 208512, Note_on_c, 1, 78, 103
2, 208589, Note_on_c, 1, 69, 0
2, 208640, Note_on_c, 1, 78, 0
2, 208640, Note_on_c, 1, 76, 103
2, 208640, Note_on_c, 1, 69, 103
2, 208768, Note_on_c, 1, 76, 0
2, 208768, Note_on_c, 1, 78, 102
2, 208845, Note_on_c, 1, 69, 0
2, 208896, Note_on_c, 1, 78, 0
2, 208896, Note_on_c, 1, 76, 102
2, 208896, Note_on_c, 1, 69, 102
2, 209024, Note_on_c, 1, 76, 0
2, 209024, Note_on_c, 1, 78, 101
2, 209152, Note_on_c, 1, 78, 0
2, 209152, Note_on_c, 1, 76, 101
2, 209152, Note_on_c, 1, 69, 0
2, 209280, Note_on_c, 1, 76, 0
2, 209280, Note_on_c, 1, 78, 100
2, 209408, Note_on_c, 1, 78, 0
2, 209408, Note_on_c, 1, 76, 100
2, 209536, Note_on_c, 1, 76, 0
2, 209536, Note_on_c, 1, 78, 99
2, 209664, Note_on_c, 1, 78, 0
2, 209664, Note_on_c, 1, 76, 99
2, 209792, Note_on_c, 1, 76, 0
2, 209792, Note_on_c, 1, 78, 98
2, 209920, Note_on_c, 1, 78, 0
2, 209920, Note_on_c, 1, 76, 98
2, 210048, Note_on_c, 1, 76, 0
2, 210048, Note_on_c, 1, 78, 97
2, 210176, Note_on_c, 1, 78, 0
2, 210176, Note_on_c, 1, 76, 97
2, 210304, Note_on_c, 1, 76, 0
2, 210304, Note_on_c, 1, 78, 96
2, 210432, Note_on_c, 1, 78, 0
2, 210432, Note_on_c, 1, 74, 96
2, 210688, Note_on_c, 1, 74, 0
2, 210944, Note_on_c, 1, 74, 96
2, 210944, Note_on_c, 1, 69, 96
2, 211149, Note_on_c, 1, 74, 0
2, 211200, Note_on_c, 1, 73, 96
2, 211200, Note_on_c, 1, 69, 0
2, 211405, Note_on_c, 1, 73, 0
2, 211456, Note_on_c, 1, 74, 96
2, 211456, Note_on_c, 1, 69, 96
2, 211712, Note_on_c, 1, 74, 0
2, 211712, Note_on_c, 1, 69, 0
2, 211968, Note_on_c, 1, 74, 96
2, 211968, Note_on_c, 1, 69, 96
2, 212224, Note_on_c, 1, 74, 0
2, 212224, Note_on_c, 1, 69, 0
2, 217088, Note_on_c, 1, 76, 96
2, 217088, Note_on_c, 1, 69, 96
2, 217293, Note_on_c, 1, 76, 0
2, 217344, Note_on_c, 1, 74, 96
2, 217344, Note_on_c, 1, 69, 0
2, 217549, Note_on_c, 1, 74, 0
2, 217600, Note_on_c, 1, 76, 96
2, 217600, Note_on_c, 1, 69, 96
2, 217856, Note_on_c, 1, 76, 0
2, 217856, Note_on_c, 1, 69, 0
2, 218112, Note_on_c, 1, 76, 96
2, 218112, Note_on_c, 1, 69, 96
2, 218368, Note_on_c, 1, 76, 0
2, 218368, Note_on_c, 1, 69, 0
2, 222208, Note_on_c, 1, 74, 80
2, 222208, Note_on_c, 1, 69, 80
2, 222464, Note_on_c, 1, 74, 0
2, 222464, Note_on_c, 1, 69, 0
2, 222720, Note_on_c, 1, 74, 86
2, 222720, Note_on_c, 1, 62, 86
2, 222976, Note_on_c, 1, 74, 0
2, 222976, Note_on_c, 1, 62, 0
2, 223744, Note_on_c, 1, 76, 96
2, 224000, Note_on_c, 1, 76, 0
2, 224256, Note_on_c, 1, 76, 102
2, 224512, Note_on_c, 1, 76, 0
2, 225280, Note_on_c, 1, 78, 112
2, 225280, Note_on_c, 1, 66, 112
2, 225536, Note_on_c, 1, 78, 0
2, 225536, Note_on_c, 1, 66, 0
2, 225792, Note_on_c, 1, 74, 118
2, 225792, Note_on_c, 1, 66, 118
2, 226048, Note_on_c, 1, 74, 0
2, 226048, Note_on_c, 1, 66, 0
2, 226304, Note_on_c, 1, 76, 120
2, 226304, Note_on_c, 1, 74, 120
2, 226509, Note_on_c, 1, 76, 0
2, 226560, Note_on_c, 1, 78, 120
2, 226560, Note_on_c, 1, 74, 0
2, 226765, Note_on_c, 1, 78, 0
2, 226816, Note_on_c, 1, 79, 121
2, 226816, Note_on_c, 1, 69, 121
2, 227021, Note_on_c, 1, 79, 0
2, 227072, Note_on_c, 1, 81, 122
2, 227072, Note_on_c, 1, 69, 0
2, 227277, Note_on_c, 1, 81, 0
2, 227328, Note_on_c, 1, 78, 122
2, 227328, Note_on_c, 1, 69, 122
2, 228864, Note_on_c, 1, 78, 0
2, 228864, Note_on_c, 1, 69, 0
2, 230400, Control_c, 1, 121, 127
2, 230400, End_track
3, 0, Start_track
3, 0, Title_t, "Trumpet I"
3, 0, Program_c, 0, 56
3, 0, Control_c, 0, 121, 127
3, 0, Control_c, 0, 91, 127
3, 0, Control_c, 0, 1, 5
3, 0, Control_c, 0, 10, 100
3, 8192, Note_on_c, 0, 81, 82
3, 8397, Note_on_c, 0, 81, 0
3, 8448, Note_on_c, 0, 78, 83
3, 8653, Note_on_c, 0, 78, 0
3, 8704, Note_on_c, 0, 79, 83
3, 8909, Note_on_c, 0, 79, 0
3, 8960, Note_on_c, 0, 76, 84
3, 9165, Note_on_c, 0, 76, 0
3, 9216, Note_on_c, 0, 78, 84
3, 9472, Note_on_c, 0, 78, 0
3, 9728, Note_on_c, 0, 74, 85
3, 9984, Note_on_c, 0, 74, 0
3, 10240, Note_on_c, 0, 81, 86
3, 10496, Note_on_c, 0, 81, 0
3, 10752, Note_on_c, 0, 81, 86
3, 14080, Note_on_c, 0, 81, 0
3, 14336, Note_on_c, 0, 83, 103
3, 14592, Note_on_c, 0, 83, 0
3, 14848, Note_on_c, 0, 85, 105
3, 15104, Note_on_c, 0, 85, 0
3, 15360, Note_on_c, 0, 86, 107
3, 15565, Note_on_c, 0, 86, 0
3, 15616, Note_on_c, 0, 85, 101
3, 15821, Note_on_c, 0, 85, 0
3, 15872, Note_on_c, 0, 86, 93
3, 16128, Note_on_c, 0, 86, 0
3, 19456, Note_on_c, 0, 81, 90
3, 19712, Note_on_c, 0, 81, 0
3, 19968, Note_on_c, 0, 81, 91
3, 20224, Note_on_c, 0, 81, 0
3, 20480, Note_on_c, 0, 81, 93
3, 20685, Note_on_c, 0, 81, 0
3, 20736, Note_on_c, 0, 79, 93
3, 20941, Note_on_c, 0, 79, 0
3, 20992, Note_on_c, 0, 81, 94
3, 21197, Note_on_c, 0, 81, 0
3, 21248, Note_on_c, 0, 83, 95
3, 21453, Note_on_c, 0, 83, 0
3, 21504, Note_on_c, 0, 85, 95
3, 21760, Note_on_c, 0, 85, 0
3, 22016, Note_on_c, 0, 69, 89
3, 22272, Note_on_c, 0, 69, 0
3, 40960, Note_on_c, 0, 62, 101
3, 41216, Note_on_c, 0, 62, 0
3, 41472, Note_on_c, 0, 69, 103
3, 41728, Note_on_c, 0, 69, 0
3, 41984, Note_on_c, 0, 69, 104
3, 42189, Note_on_c, 0, 69, 0
3, 42240, Note_on_c, 0, 69, 104
3, 42445, Note_on_c, 0, 69, 0
3, 42496, Note_on_c, 0, 69, 105
3, 42701, Note_on_c, 0, 69, 0
3, 42752, Note_on_c, 0, 69, 106
3, 42957, Note_on_c, 0, 69, 0
3, 43008, Note_on_c, 0, 74, 106
3, 43264, Note_on_c, 0, 74, 0
3, 43520, Note_on_c, 0, 69, 86
3, 43776, Note_on_c, 0, 69, 0
3, 77824, Note_on_c, 0, 69, 99
3, 78080, Note_on_c, 0, 69, 0
3, 78336, Note_on_c, 0, 76, 100
3, 78592, Note_on_c, 0, 76, 0
3, 78848, Note_on_c, 0, 76, 100
3, 79053, Note_on_c, 0, 76, 0
3, 79104, Note_on_c, 0, 76, 100
3, 79309, Note_on_c, 0, 76, 0
3, 79360, Note_on_c, 0, 76, 100
3, 79565, Note_on_c, 0, 76, 0
3, 79616, Note_on_c, 0, 76, 100
3, 79821, Note_on_c, 0, 76, 0
3, 79872, Note_on_c, 0, 81, 100
3, 80128, Note_on_c, 0, 81, 0
3, 80384, Note_on_c, 0, 76, 90
3, 80640, Note_on_c, 0, 76, 0
3, 90112, Note_on_c, 0, 62, 104
3, 90368, Note_on_c, 0, 62, 0
3, 90624, Note_on_c, 0, 69, 107
3, 90880, Note_on_c, 0, 69, 0
3, 91136, Note_on_c, 0, 69, 109
3, 91341, Note_on_c, 0, 69, 0
3, 91392, Note_on_c, 0, 69, 110
3, 91597, Note_on_c, 0, 69, 0
3, 91648, Note_on_c, 0, 69, 111
3, 91853, Note_on_c, 0, 69, 0
3, 91904, Note_on_c, 0, 69, 112
3, 92109, Note_on_c, 0, 69, 0
3, 92160, Note_on_c, 0, 74, 113
3, 92416, Note_on_c, 0, 74, 0
3, 92672, Note_on_c, 0, 69, 96
3, 92928, Note_on_c, 0, 69, 0
3, 123904, Note_on_c, 0, 81, 98
3, 124160, Note_on_c, 0, 81, 0
3, 124416, Note_on_c, 0, 78, 97
3, 124621, Note_on_c, 0, 78, 0
3, 124672, Note_on_c, 0, 76, 99
3, 124877, Note_on_c, 0, 76, 0
3, 124928, Note_on_c, 0, 74, 102
3, 125133, Note_on_c, 0, 74, 0
3, 125184, Note_on_c, 0, 78, 104
3, 125389, Note_on_c, 0, 78, 0
3, 125440, Note_on_c, 0, 76, 106
3, 125645, Note_on_c, 0, 76, 0
3, 125696, Note_on_c, 0, 79, 108
3, 125901, Note_on_c, 0, 79, 0
3, 125952, Note_on_c, 0, 78, 111
3, 126157, Note_on_c, 0, 78, 0
3, 126208, Note_on_c, 0, 76, 110
3, 126413, Note_on_c, 0, 76, 0
3, 126464, Note_on_c, 0, 78, 108
3, 126669, Note_on_c, 0, 78, 0
3, 126720, Note_on_c, 0, 79, 106
3, 126925, Note_on_c, 0, 79, 0
3, 126976, Note_on_c, 0, 76, 103
3, 127181, Note_on_c, 0, 76, 0
3, 127232, Note_on_c, 0, 78, 101
3, 127437, Note_on_c, 0, 78, 0
3, 127488, Note_on_c, 0, 79, 98
3, 127693, Note_on_c, 0, 79, 0
3, 127744, Note_on_c, 0, 78, 100
3, 127949, Note_on_c, 0, 78, 0
3, 128000, Note_on_c, 0, 76, 103
3, 128205, Note_on_c, 0, 76, 0
3, 128256, Note_on_c, 0, 79, 105
3, 128461, Note_on_c, 0, 79, 0
3, 128512, Note_on_c, 0, 78, 108
3, 128717, Note_on_c, 0, 78, 0
3, 128768, Note_on_c, 0, 81, 111
3, 128973, Note_on_c, 0, 81, 0
3, 129024, Note_on_c, 0, 79, 113
3, 129229, Note_on_c, 0, 79, 0
3, 129280, Note_on_c, 0, 78, 114
3, 129485, Note_on_c, 0, 78, 0
3, 129536, Note_on_c, 0, 79, 111
3, 129741, Note_on_c, 0, 79, 0
3, 129792, Note_on_c, 0, 81, 108
3, 129997, Note_on_c, 0, 81, 0
3, 130048, Note_on_c, 0, 78, 105
3, 130253, Note_on_c, 0, 78, 0
3, 130304, Note_on_c, 0, 79, 102
3, 130509, Note_on_c, 0, 79, 0
3, 130560, Note_on_c, 0, 81, 99
3, 136704, Note_on_c, 0, 81, 0
3, 136704, Note_on_c, 0, 81, 93
3, 136832, Note_on_c, 0, 81, 0
3, 136832, Note_on_c, 0, 79, 93
3, 136960, Note_on_c, 0, 79, 0
3, 136960, Note_on_c, 0, 81, 94
3, 137088, Note_on_c, 0, 81, 0
3, 137088, Note_on_c, 0, 79, 94
3, 137216, Note_on_c, 0, 79, 0
3, 137216, Note_on_c, 0, 81, 94
3, 137344, Note_on_c, 0, 81, 0
3, 137344, Note_on_c, 0, 79, 95
3, 137472, Note_on_c, 0, 79, 0
3, 137472, Note_on_c, 0, 81, 95
3, 137600, Note_on_c, 0, 81, 0
3, 137600, Note_on_c, 0, 79, 95
3, 137728, Note_on_c, 0, 79, 0
3, 137728, Note_on_c, 0, 81, 96
3, 137856, Note_on_c, 0, 81, 0
3, 137856, Note_on_c, 0, 79, 96
3, 137984, Note_on_c, 0, 79, 0
3, 137984, Note_on_c, 0, 81, 96
3, 138112, Note_on_c, 0, 81, 0
3, 138112, Note_on_c, 0, 79, 97
3, 138240, Note_on_c, 0, 79, 0
3, 138240, Note_on_c, 0, 81, 97
3, 138368, Note_on_c, 0, 81, 0
3, 138368, Note_on_c, 0, 79, 98
3, 138496, Note_on_c, 0, 79, 0
3, 138496, Note_on_c, 0, 81, 98
3, 138624, Note_on_c, 0, 81, 0
3, 138624, Note_on_c, 0, 79, 98
3, 138752, Note_on_c, 0, 79, 0
3, 138752, Note_on_c, 0, 81, 99
3, 138880, Note_on_c, 0, 81, 0
3, 138880, Note_on_c, 0, 79, 99
3, 139008, Note_on_c, 0, 79, 0
3, 139008, Note_on_c, 0, 81, 99
3, 139136, Note_on_c, 0, 81, 0
3, 139136, Note_on_c, 0, 79, 100
3, 139264, Note_on_c, 0, 79, 0
3, 139264, Note_on_c, 0, 81, 100
3, 139392, Note_on_c, 0, 81, 0
3, 139392, Note_on_c, 0, 79, 100
3, 139520, Note_on_c, 0, 79, 0
3, 139520, Note_on_c, 0, 81, 101
3, 139648, Note_on_c, 0, 81, 0
3, 139648, Note_on_c, 0, 79, 101
3, 139776, Note_on_c, 0, 79, 0
3, 139776, Note_on_c, 0, 81, 102
3, 139904, Note_on_c, 0, 81, 0
3, 139904, Note_on_c, 0, 79, 102
3, 140032, Note_on_c, 0, 79, 0
3, 140032, Note_on_c, 0, 81, 102
3, 140160, Note_on_c, 0, 81, 0
3, 140160, Note_on_c, 0, 79, 103
3, 140288, Note_on_c, 0, 79, 0
3, 140288, Note_on_c, 0, 81, 103
3, 140416, Note_on_c, 0, 81, 0
3, 140416, Note_on_c, 0, 79, 103
3, 140544, Note_on_c, 0, 79, 0
3, 140544, Note_on_c, 0, 81, 104
3, 140672, Note_on_c, 0, 81, 0
3, 140672, Note_on_c, 0, 79, 104
3, 140800, Note_on_c, 0, 79, 0
3, 140800, Note_on_c, 0, 81, 104
3, 140928, Note_on_c, 0, 81, 0
3, 140928, Note_on_c, 0, 79, 105
3, 141056, Note_on_c, 0, 79, 0
3, 141056, Note_on_c, 0, 81, 105
3, 141184, Note_on_c, 0, 81, 0
3, 141184, Note_on_c, 0, 79, 106
3, 141312, Note_on_c, 0, 79, 0
3, 141312, Note_on_c, 0, 81, 106
3, 141440, Note_on_c, 0, 81, 0
3, 141440, Note_on_c, 0, 79, 106
3, 141568, Note_on_c, 0, 79, 0
3, 141568, Note_on_c, 0, 81, 107
3, 141696, Note_on_c, 0, 81, 0
3, 141696, Note_on_c, 0, 79, 107
3, 141824, Note_on_c, 0, 79, 0
3, 141824, Note_on_c, 0, 81, 107
3, 141952, Note_on_c, 0, 81, 0
3, 141952, Note_on_c, 0, 79, 108
3, 142080, Note_on_c, 0, 79, 0
3, 142080, Note_on_c, 0, 81, 108
3, 142208, Note_on_c, 0, 81, 0
3, 142208, Note_on_c, 0, 79, 108
3, 142336, Note_on_c, 0, 79, 0
3, 142336, Note_on_c, 0, 81, 109
3, 142464, Note_on_c, 0, 81, 0
3, 142464, Note_on_c, 0, 79, 109
3, 142592, Note_on_c, 0, 79, 0
3, 142592, Note_on_c, 0, 81, 110
3, 142720, Note_on_c, 0, 81, 0
3, 142720, Note_on_c, 0, 79, 110
3, 142848, Note_on_c, 0, 79, 0
3, 142848, Note_on_c, 0, 78, 110
3, 143104, Note_on_c, 0, 78, 0
3, 143360, Note_on_c, 0, 78, 111
3, 143565, Note_on_c, 0, 78, 0
3, 143616, Note_on_c, 0, 76, 110
3, 143821, Note_on_c, 0, 76, 0
3, 143872, Note_on_c, 0, 78, 109
3, 144128, Note_on_c, 0, 78, 0
3, 144384, Note_on_c, 0, 78, 106
3, 144589, Note_on_c, 0, 78, 0
3, 149504, Note_on_c, 0, 79, 107
3, 149709, Note_on_c, 0, 79, 0
3, 149760, Note_on_c, 0, 78, 105
3, 149965, Note_on_c, 0, 78, 0
3, 150016, Note_on_c, 0, 79, 103
3, 150272, Note_on_c, 0, 79, 0
3, 150528, Note_on_c, 0, 79, 96
3, 150784, Note_on_c, 0, 79, 0
3, 154624, Note_on_c, 0, 78, 94
3, 155392, Note_on_c, 0, 78, 0
3, 155648, Note_on_c, 0, 76, 99
3, 155904, Note_on_c, 0, 76, 0
3, 156160, Note_on_c, 0, 79, 102
3, 156928, Note_on_c, 0, 79, 0
3, 157184, Note_on_c, 0, 78, 107
3, 157440, Note_on_c, 0, 78, 0
3, 157696, Note_on_c, 0, 81, 110
3, 157952, Note_on_c, 0, 81, 0
3, 158208, Note_on_c, 0, 78, 113
3, 158464, Note_on_c, 0, 78, 0
3, 158720, Note_on_c, 0, 79, 116
3, 158925, Note_on_c, 0, 79, 0
3, 158976, Note_on_c, 0, 78, 117
3, 159181, Note_on_c, 0, 78, 0
3, 159232, Note_on_c, 0, 76, 118
3, 159437, Note_on_c, 0, 76, 0
3, 159488, Note_on_c, 0, 78, 120
3, 159693, Note_on_c, 0, 78, 0
3, 159744, Note_on_c, 0, 74, 121
3, 160768, Note_on_c, 0, 74, 0
3, 166912, Note_on_c, 0, 81, 100
3, 167168, Note_on_c, 0, 81, 0
3, 167424, Note_on_c, 0, 81, 102
3, 167552, Note_on_c, 0, 81, 0
3, 167552, Note_on_c, 0, 83, 102
3, 167680, Note_on_c, 0, 83, 0
3, 167680, Note_on_c, 0, 81, 103
3, 167808, Note_on_c, 0, 81, 0
3, 167808, Note_on_c, 0, 83, 103
3, 167936, Note_on_c, 0, 83, 0
3, 167936, Note_on_c, 0, 81, 104
3, 168064, Note_on_c, 0, 81, 0
3, 168064, Note_on_c, 0, 83, 104
3, 168192, Note_on_c, 0, 83, 0
3, 168192, Note_on_c, 0, 81, 104
3, 168320, Note_on_c, 0, 81, 0
3, 168320, Note_on_c, 0, 83, 105
3, 168448, Note_on_c, 0, 83, 0
3, 168448, Note_on_c, 0, 81, 105
3, 168576, Note_on_c, 0, 81, 0
3, 168576, Note_on_c, 0, 83, 106
3, 168704, Note_on_c, 0, 83, 0
3, 168704, Note_on_c, 0, 81, 106
3, 168832, Note_on_c, 0, 81, 0
3, 168832, Note_on_c, 0, 83, 107
3, 168960, Note_on_c, 0, 83, 0
3, 168960, Note_on_c, 0, 81, 107
3, 169088, Note_on_c, 0, 81, 0
3, 169088, Note_on_c, 0, 83, 108
3, 169216, Note_on_c, 0, 83, 0
3, 169216, Note_on_c, 0, 81, 108
3, 169344, Note_on_c, 0, 81, 0
3, 169344, Note_on_c, 0, 83, 108
3, 169472, Note_on_c, 0, 83, 0
3, 169472, Note_on_c, 0, 81, 109
3, 169600, Note_on_c, 0, 81, 0
3, 169600, Note_on_c, 0, 83, 109
3, 169728, Note_on_c, 0, 83, 0
3, 169728, Note_on_c, 0, 81, 110
3, 169856, Note_on_c, 0, 81, 0
3, 169856, Note_on_c, 0, 83, 110
3, 169984, Note_on_c, 0, 83, 0
3, 169984, Note_on_c, 0, 81, 111
3, 170112, Note_on_c, 0, 81, 0
3, 170112, Note_on_c, 0, 83, 111
3, 170240, Note_on_c, 0, 83, 0
3, 170240, Note_on_c, 0, 81, 112
3, 170368, Note_on_c, 0, 81, 0
3, 170368, Note_on_c, 0, 83, 112
3, 170496, Note_on_c, 0, 83, 0
3, 170496, Note_on_c, 0, 81, 113
3, 170752, Note_on_c, 0, 81, 0
3, 171008, Note_on_c, 0, 83, 114
3, 171264, Note_on_c, 0, 83, 0
3, 171520, Note_on_c, 0, 85, 116
3, 171776, Note_on_c, 0, 85, 0
3, 172032, Note_on_c, 0, 86, 118
3, 172237, Note_on_c, 0, 86, 0
3, 172288, Note_on_c, 0, 85, 100
3, 172493, Note_on_c, 0, 85, 0
3, 172544, Note_on_c, 0, 86, 84
3, 172800, Note_on_c, 0, 86, 0
3, 176128, Note_on_c, 0, 81, 101
3, 176384, Note_on_c, 0, 81, 0
3, 176640, Note_on_c, 0, 81, 109
3, 176896, Note_on_c, 0, 81, 0
3, 177152, Note_on_c, 0, 83, 113
3, 177357, Note_on_c, 0, 83, 0
3, 177408, Note_on_c, 0, 81, 115
3, 177613, Note_on_c, 0, 81, 0
3, 177664, Note_on_c, 0, 79, 117
3, 177869, Note_on_c, 0, 79, 0
3, 177920, Note_on_c, 0, 81, 119
3, 178125, Note_on_c, 0, 81, 0
3, 178176, Note_on_c, 0, 78, 121
3, 179115, Note_on_c, 0, 78, 0
3, 185344, Note_on_c, 0, 81, 96
3, 185600, Note_on_c, 0, 81, 0
3, 185856, Note_on_c, 0, 78, 96
3, 186112, Note_on_c, 0, 78, 0
3, 186368, Note_on_c, 0, 74, 97
3, 186573, Note_on_c, 0, 74, 0
3, 186624, Note_on_c, 0, 76, 98
3, 186829, Note_on_c, 0, 76, 0
3, 186880, Note_on_c, 0, 78, 98
3, 187085, Note_on_c, 0, 78, 0
3, 187136, Note_on_c, 0, 79, 98
3, 187341, Note_on_c, 0, 79, 0
3, 187392, Note_on_c, 0, 81, 99
3, 189184, Note_on_c, 0, 81, 0
3, 189440, Note_on_c, 0, 85, 102
3, 189696, Note_on_c, 0, 85, 0
3, 189952, Note_on_c, 0, 86, 103
3, 190208, Note_on_c, 0, 86, 0
3, 190464, Note_on_c, 0, 88, 103
3, 190720, Note_on_c, 0, 88, 0
3, 190976, Note_on_c, 0, 81, 93
3, 191232, Note_on_c, 0, 81, 0
3, 191488, Note_on_c, 0, 76, 76
3, 191744, Note_on_c, 0, 76, 0
3, 192000, Note_on_c, 0, 78, 79
3, 192205, Note_on_c, 0, 78, 0
3, 192256, Note_on_c, 0, 76, 80
3, 192461, Note_on_c, 0, 76, 0
3, 192512, Note_on_c, 0, 74, 81
3, 192717, Note_on_c, 0, 74, 0
3, 192768, Note_on_c, 0, 78, 82
3, 192973, Note_on_c, 0, 78, 0
3, 193024, Note_on_c, 0, 76, 84
3, 193229, Note_on_c, 0, 76, 0
3, 193280, Note_on_c, 0, 79, 85
3, 193485, Note_on_c, 0, 79, 0
3, 193536, Note_on_c, 0, 78, 86
3, 193741, Note_on_c, 0, 78, 0
3, 193792, Note_on_c, 0, 76, 87
3, 193997, Note_on_c, 0, 76, 0
3, 194048, Note_on_c, 0, 78, 88
3, 194253, Note_on_c, 0, 78, 0
3, 194304, Note_on_c, 0, 79, 90
3, 194509, Note_on_c, 0, 79, 0
3, 194560, Note_on_c, 0, 76, 91
3, 194765, Note_on_c, 0, 76, 0
3, 194816, Note_on_c, 0, 78, 92
3, 195021, Note_on_c, 0, 78, 0
3, 195072, Note_on_c, 0, 79, 93
3, 195277, Note_on_c, 0, 79, 0
3, 195328, Note_on_c, 0, 78, 95
3, 195533, Note_on_c, 0, 78, 0
3, 195584, Note_on_c, 0, 76, 96
3, 195789, Note_on_c, 0, 76, 0
3, 195840, Note_on_c, 0, 79, 97
3, 196045, Note_on_c, 0, 79, 0
3, 196096, Note_on_c, 0, 78, 98
3, 196301, Note_on_c, 0, 78, 0
3, 196352, Note_on_c, 0, 81, 99
3, 196557, Note_on_c, 0, 81, 0
3, 196608, Note_on_c, 0, 79, 101
3, 196813, Note_on_c, 0, 79, 0
3, 196864, Note_on_c, 0, 78, 102
3, 197069, Note_on_c, 0, 78, 0
3, 197120, Note_on_c, 0, 79, 103
3, 197325, Note_on_c, 0, 79, 0
3, 197376, Note_on_c, 0, 81, 104
3, 197581, Note_on_c, 0, 81, 0
3, 197632, Note_on_c, 0, 78, 105
3, 197837, Note_on_c, 0, 78, 0
3, 197888, Note_on_c, 0, 79, 107
3, 198093, Note_on_c, 0, 79, 0
3, 198144, Note_on_c, 0, 81, 108
3, 198272, Note_on_c, 0, 81, 0
3, 198272, Note_on_c, 0, 83, 108
3, 198400, Note_on_c, 0, 83, 0
3, 198400, Note_on_c, 0, 81, 108
3, 198528, Note_on_c, 0, 81, 0
3, 198528, Note_on_c, 0, 83, 108
3, 198656, Note_on_c, 0, 83, 0
3, 198656, Note_on_c, 0, 81, 108
3, 198784, Note_on_c, 0, 81, 0
3, 198784, Note_on_c, 0, 83, 108
3, 198912, Note_on_c, 0, 83, 0
3, 198912, Note_on_c, 0, 81, 109
3, 199040, Note_on_c, 0, 81, 0
3, 199040, Note_on_c, 0, 83, 109
3, 199168, Note_on_c, 0, 83, 0
3, 199168, Note_on_c, 0, 81, 109
3, 199296, Note_on_c, 0, 81, 0
3, 199296, Note_on_c, 0, 83, 109
3, 199424, Note_on_c, 0, 83, 0
3, 199424, Note_on_c, 0, 81, 110
3, 199552, Note_on_c, 0, 81, 0
3, 199552, Note_on_c, 0, 83, 110
3, 199680, Note_on_c, 0, 83, 0
3, 199680, Note_on_c, 0, 81, 110
3, 199808, Note_on_c, 0, 81, 0
3, 199808, Note_on_c, 0, 83, 110
3, 199936, Note_on_c, 0, 83, 0
3, 199936, Note_on_c, 0, 81, 110
3, 200064, Note_on_c, 0, 81, 0
3, 200064, Note_on_c, 0, 83, 111
3, 200192, Note_on_c, 0, 83, 0
3, 200192, Note_on_c, 0, 81, 111
3, 200320, Note_on_c, 0, 81, 0
3, 200320, Note_on_c, 0, 83, 111
3, 200448, Note_on_c, 0, 83, 0
3, 200448, Note_on_c, 0, 81, 111
3, 200576, Note_on_c, 0, 81, 0
3, 200576, Note_on_c, 0, 83, 111
3, 200704, Note_on_c, 0, 83, 0
3, 200704, Note_on_c, 0, 81, 112
3, 200832, Note_on_c, 0, 81, 0
3, 200832, Note_on_c, 0, 83, 112
3, 200960, Note_on_c, 0, 83, 0
3, 200960, Note_on_c, 0, 81, 112
3, 201088, Note_on_c, 0, 81, 0
3, 201088, Note_on_c, 0, 83, 112
3, 201216, Note_on_c, 0, 83, 0
3, 201216, Note_on_c, 0, 81, 112
3, 201344, Note_on_c, 0, 81, 0
3, 201344, Note_on_c, 0, 83, 113
3, 201472, Note_on_c, 0, 83, 0
3, 201472, Note_on_c, 0, 81, 113
3, 201600, Note_on_c, 0, 81, 0
3, 201600, Note_on_c, 0, 83, 113
3, 201728, Note_on_c, 0, 83, 0
3, 201728, Note_on_c, 0, 81, 113
3, 201856, Note_on_c, 0, 81, 0
3, 201856, Note_on_c, 0, 83, 113
3, 201984, Note_on_c, 0, 83, 0
3, 201984, Note_on_c, 0, 81, 114
3, 202112, Note_on_c, 0, 81, 0
3, 202112, Note_on_c, 0, 83, 114
3, 202240, Note_on_c, 0, 83, 0
3, 202240, Note_on_c, 0, 81, 114
3, 202368, Note_on_c, 0, 81, 0
3, 202368, Note_on_c, 0, 83, 114
3, 202496, Note_on_c, 0, 83, 0
3, 202496, Note_on_c, 0, 81, 114
3, 202624, Note_on_c, 0, 81, 0
3, 202624, Note_on_c, 0, 83, 115
3, 202752, Note_on_c, 0, 83, 0
3, 202752, Note_on_c, 0, 81, 115
3, 202880, Note_on_c, 0, 81, 0
3, 202880, Note_on_c, 0, 83, 115
3, 203008, Note_on_c, 0, 83, 0
3, 203008, Note_on_c, 0, 81, 115
3, 203136, Note_on_c, 0, 81, 0
3, 203136, Note_on_c, 0, 83, 116
3, 203264, Note_on_c, 0, 83, 0
3, 203264, Note_on_c, 0, 81, 116
3, 203392, Note_on_c, 0, 81, 0
3, 203392, Note_on_c, 0, 83, 116
3, 203520, Note_on_c, 0, 83, 0
3, 203520, Note_on_c, 0, 81, 116
3, 203648, Note_on_c, 0, 81, 0
3, 203648, Note_on_c, 0, 83, 116
3, 203776, Note_on_c, 0, 83, 0
3, 203776, Note_on_c, 0, 81, 117
3, 203904, Note_on_c, 0, 81, 0
3, 203904, Note_on_c, 0, 83, 117
3, 204032, Note_on_c, 0, 83, 0
3, 204032, Note_on_c, 0, 81, 117
3, 204160, Note_on_c, 0, 81, 0
3, 204160, Note_on_c, 0, 83, 117
3, 204288, Note_on_c, 0, 83, 0
3, 204288, Note_on_c, 0, 79, 117
3, 204416, Note_on_c, 0, 79, 0
3, 204416, Note_on_c, 0, 81, 118
3, 204544, Note_on_c, 0, 81, 0
3, 204544, Note_on_c, 0, 79, 118
3, 204672, Note_on_c, 0, 79, 0
3, 204672, Note_on_c, 0, 81, 117
3, 204800, Note_on_c, 0, 81, 0
3, 204800, Note_on_c, 0, 79, 117
3, 204928, Note_on_c, 0, 79, 0
3, 204928, Note_on_c, 0, 81, 116
3, 205056, Note_on_c, 0, 81, 0
3, 205056, Note_on_c, 0, 79, 116
3, 205184, Note_on_c, 0, 79, 0
3, 205184, Note_on_c, 0, 81, 115
3, 205312, Note_on_c, 0, 81, 0
3, 205312, Note_on_c, 0, 79, 115
3, 205440, Note_on_c, 0, 79, 0
3, 205440, Note_on_c, 0, 81, 115
3, 205568, Note_on_c, 0, 81, 0
3, 205568, Note_on_c, 0, 79, 114
3, 205696, Note_on_c, 0, 79, 0
3, 205696, Note_on_c, 0, 81, 114
3, 205824, Note_on_c, 0, 81, 0
3, 205824, Note_on_c, 0, 79, 113
3, 205952, Note_on_c, 0, 79, 0
3, 205952, Note_on_c, 0, 81, 113
3, 206080, Note_on_c, 0, 81, 0
3, 206080, Note_on_c, 0, 79, 112
3, 206208, Note_on_c, 0, 79, 0
3, 206208, Note_on_c, 0, 81, 112
3, 206336, Note_on_c, 0, 81, 0
3, 206336, Note_on_c, 0, 79, 111
3, 206464, Note_on_c, 0, 79, 0
3, 206464, Note_on_c, 0, 81, 111
3, 206592, Note_on_c, 0, 81, 0
3, 206592, Note_on_c, 0, 79, 110
3, 206720, Note_on_c, 0, 79, 0
3, 206720, Note_on_c, 0, 81, 110
3, 206848, Note_on_c, 0, 81, 0
3, 206848, Note_on_c, 0, 79, 109
3, 206976, Note_on_c, 0, 79, 0
3, 206976, Note_on_c, 0, 81, 109
3, 207104, Note_on_c, 0, 81, 0
3, 207104, Note_on_c, 0, 79, 108
3, 207232, Note_on_c, 0, 79, 0
3, 207232, Note_on_c, 0, 81, 108
3, 207360, Note_on_c, 0, 81, 0
3, 207360, Note_on_c, 0, 79, 107
3, 207488, Note_on_c, 0, 79, 0
3, 207488, Note_on_c, 0, 81, 107
3, 207616, Note_on_c, 0, 81, 0
3, 207616, Note_on_c, 0, 79, 106
3, 207744, Note_on_c, 0, 79, 0
3, 207744, Note_on_c, 0, 81, 106
3, 207872, Note_on_c, 0, 81, 0
3, 207872, Note_on_c, 0, 79, 105
3, 208000, Note_on_c, 0, 79, 0
3, 208000, Note_on_c, 0, 81, 105
3, 208128, Note_on_c, 0, 81, 0
3, 208128, Note_on_c, 0, 79, 104
3, 208256, Note_on_c, 0, 79, 0
3, 208256, Note_on_c, 0, 81, 104
3, 208384, Note_on_c, 0, 81, 0
3, 208384, Note_on_c, 0, 79, 103
3, 208512, Note_on_c, 0, 79, 0
3, 208512, Note_on_c, 0, 81, 103
3, 208640, Note_on_c, 0, 81, 0
3, 208640, Note_on_c, 0, 79, 103
3, 208768, Note_on_c, 0, 79, 0
3, 208768, Note_on_c, 0, 81, 102
3, 208896, Note_on_c, 0, 81, 0
3, 208896, Note_on_c, 0, 79, 102
3, 209024, Note_on_c, 0, 79, 0
3, 209024, Note_on_c, 0, 81, 101
3, 209152, Note_on_c, 0, 81, 0
3, 209152, Note_on_c, 0, 79, 101
3, 209280, Note_on_c, 0, 79, 0
3, 209280, Note_on_c, 0, 81, 100
3, 209408, Note_on_c, 0, 81, 0
3, 209408, Note_on_c, 0, 79, 100
3, 209536, Note_on_c, 0, 79, 0
3, 209536, Note_on_c, 0, 81, 99
3, 209664, Note_on_c, 0, 81, 0
3, 209664, Note_on_c, 0, 79, 99
3, 209792, Note_on_c, 0, 79, 0
3, 209792, Note_on_c, 0, 81, 98
3, 209920, Note_on_c, 0, 81, 0
3, 209920, Note_on_c, 0, 79, 98
3, 210048, Note_on_c, 0, 79, 0
3, 210048, Note_on_c, 0, 81, 97
3, 210176, Note_on_c, 0, 81, 0
3, 210176, Note_on_c, 0, 79, 97
3, 210304, Note_on_c, 0, 79, 0
3, 210304, Note_on_c, 0, 81, 96
3, 210432, Note_on_c, 0, 81, 0
3, 210432, Note_on_c, 0, 78, 96
3, 210688, Note_on_c, 0, 78, 0
3, 210944, Note_on_c, 0, 78, 96
3, 211149, Note_on_c, 0, 78, 0
3, 211200, Note_on_c, 0, 76, 96
3, 211405, Note_on_c, 0, 76, 0
3, 211456, Note_on_c, 0, 78, 96
3, 211712, Note_on_c, 0, 78, 0
3, 211968, Note_on_c, 0, 78, 96
3, 212224, Note_on_c, 0, 78, 0
3, 217088, Note_on_c, 0, 79, 96
3, 217293, Note_on_c, 0, 79, 0
3, 217344, Note_on_c, 0, 78, 96
3, 217549, Note_on_c, 0, 78, 0
3, 217600, Note_on_c, 0, 79, 96
3, 217856, Note_on_c, 0, 79, 0
3, 218112, Note_on_c, 0, 79, 96
3, 218368, Note_on_c, 0, 79, 0
3, 222208, Note_on_c, 0, 78, 80
3, 222976, Note_on_c, 0, 78, 0
3, 223232, Note_on_c, 0, 76, 91
3, 223488, Note_on_c, 0, 76, 0
3, 223744, Note_on_c, 0, 79, 96
3, 224512, Note_on_c, 0, 79, 0
3, 224768, Note_on_c, 0, 78, 107
3, 225024, Note_on_c, 0, 78, 0
3, 225280, Note_on_c, 0, 81, 112
3, 225536, Note_on_c, 0, 81, 0
3, 225792, Note_on_c, 0, 78, 118
3, 226048, Note_on_c, 0, 78, 0
3, 226304, Note_on_c, 0, 79, 120
3, 226509, Note_on_c, 0, 79, 0
3, 226560, Note_on_c, 0, 78, 120
3, 226765, Note_on_c, 0, 78, 0
3, 226816, Note_on_c, 0, 76, 121
3, 227021, Note_on_c, 0, 76, 0
3, 227072, Note_on_c, 0, 78, 122
3, 227277, Note_on_c, 0, 78, 0
3, 227328, Note_on_c, 0, 74, 122
3, 228864, Note_on_c, 0, 74, 0
3, 230400, Control_c, 0, 121, 127
3, 230400, End_track
4, 0, Start_track
4, 0, Title_t, "Timpani"
4, 0, Program_c, 15, 47
4, 0, Control_c, 15, 121, 127
4, 0, Control_c, 15, 91, 127
4, 0, Control_c, 15, 10, 110
4, 8192, Note_on_c, 15, 50, 82
4, 8448, Note_on_c, 15, 50, 0
4, 8704, Note_on_c, 15, 45, 83
4, 8960, Note_on_c, 15, 45, 0
4, 9216, Note_on_c, 15, 50, 84
4, 9472, Note_on_c, 15, 50, 0
4, 9728, Note_on_c, 15, 50, 85
4, 9933, Note_on_c, 15, 50, 0
4, 9984, Note_on_c, 15, 50, 85
4, 10189, Note_on_c, 15, 50, 0
4, 10240, Note_on_c, 15, 50, 86
4, 10445, Note_on_c, 15, 50, 0
4, 10496, Note_on_c, 15, 50, 86
4, 10701, Note_on_c, 15, 50, 0
4, 10752, Note_on_c, 15, 45, 86
4, 11008, Note_on_c, 15, 45, 0
4, 11264, Note_on_c, 15, 45, 89
4, 11520, Note_on_c, 15, 45, 0
4, 11776, Note_on_c, 15, 45, 91
4, 12032, Note_on_c, 15, 45, 0
4, 12288, Note_on_c, 15, 50, 93
4, 12544, Note_on_c, 15, 50, 0
4, 12800, Note_on_c, 15, 45, 96
4, 13005, Note_on_c, 15, 45, 0
4, 13056, Note_on_c, 15, 45, 97
4, 13261, Note_on_c, 15, 45, 0
4, 13312, Note_on_c, 15, 45, 98
4, 13517, Note_on_c, 15, 45, 0
4, 13568, Note_on_c, 15, 45, 99
4, 13773, Note_on_c, 15, 45, 0
4, 13824, Note_on_c, 15, 50, 100
4, 14080, Note_on_c, 15, 50, 0
4, 14336, Note_on_c, 15, 50, 103
4, 14592, Note_on_c, 15, 50, 0
4, 14848, Note_on_c, 15, 45, 105
4, 15104, Note_on_c, 15, 45, 0
4, 15360, Note_on_c, 15, 50, 107
4, 15616, Note_on_c, 15, 50, 0
4, 15872, Note_on_c, 15, 50, 93
4, 16128, Note_on_c, 15, 50, 0
4, 19456, Note_on_c, 15, 45, 90
4, 19712, Note_on_c, 15, 45, 0
4, 19968, Note_on_c, 15, 50, 91
4, 20224, Note_on_c, 15, 50, 0
4, 20480, Note_on_c, 15, 45, 93
4, 20736, Note_on_c, 15, 45, 0
4, 20992, Note_on_c, 15, 50, 94
4, 21248, Note_on_c, 15, 50, 0
4, 21504, Note_on_c, 15, 45, 95
4, 21760, Note_on_c, 15, 45, 0
4, 22016, Note_on_c, 15, 45, 89
4, 22272, Note_on_c, 15, 45, 0
4, 40960, Note_on_c, 15, 50, 101
4, 41216, Note_on_c, 15, 50, 0
4, 41472, Note_on_c, 15, 45, 103
4, 41728, Note_on_c, 15, 45, 0
4, 41984, Note_on_c, 15, 45, 104
4, 42189, Note_on_c, 15, 45, 0
4, 42240, Note_on_c, 15, 45, 104
4, 42445, Note_on_c, 15, 45, 0
4, 42496, Note_on_c, 15, 45, 105
4, 42701, Note_on_c, 15, 45, 0
4, 42752, Note_on_c, 15, 45, 106
4, 42957, Note_on_c, 15, 45, 0
4, 43008, Note_on_c, 15, 50, 106
4, 43264, Note_on_c, 15, 50, 0
4, 43520, Note_on_c, 15, 45, 86
4, 43776, Note_on_c, 15, 45, 0
4, 90112, Note_on_c, 15, 50, 104
4, 90368, Note_on_c, 15, 50, 0
4, 90624, Note_on_c, 15, 45, 107
4, 90880, Note_on_c, 15, 45, 0
4, 91136, Note_on_c, 15, 45, 109
4, 91341, Note_on_c, 15, 45, 0
4, 91392, Note_on_c, 15, 45, 110
4, 91597, Note_on_c, 15, 45, 0
4, 91648, Note_on_c, 15, 45, 111
4, 91853, Note_on_c, 15, 45, 0
4, 91904, Note_on_c, 15, 45, 112
4, 92109, Note_on_c, 15, 45, 0
4, 92160, Note_on_c, 15, 50, 113
4, 92416, Note_on_c, 15, 50, 0
4, 92672, Note_on_c, 15, 45, 96
4, 92928, Note_on_c, 15, 45, 0
4, 130048, Note_on_c, 15, 45, 105
4, 130304, Note_on_c, 15, 45, 0
4, 130560, Note_on_c, 15, 50, 99
4, 130816, Note_on_c, 15, 50, 0
4, 131072, Note_on_c, 15, 50, 99
4, 131277, Note_on_c, 15, 50, 0
4, 131328, Note_on_c, 15, 50, 100
4, 131533, Note_on_c, 15, 50, 0
4, 131584, Note_on_c, 15, 50, 101
4, 131789, Note_on_c, 15, 50, 0
4, 131840, Note_on_c, 15, 50, 101
4, 132045, Note_on_c, 15, 50, 0
4, 132096, Note_on_c, 15, 50, 102
4, 132352, Note_on_c, 15, 50, 0
4, 139776, Note_on_c, 15, 45, 102
4, 140032, Note_on_c, 15, 45, 0
4, 140288, Note_on_c, 15, 45, 103
4, 140493, Note_on_c, 15, 45, 0
4, 140544, Note_on_c, 15, 45, 104
4, 140749, Note_on_c, 15, 45, 0
4, 140800, Note_on_c, 15, 45, 104
4, 141005, Note_on_c, 15, 45, 0
4, 141056, Note_on_c, 15, 45, 105
4, 141261, Note_on_c, 15, 45, 0
4, 141312, Note_on_c, 15, 45, 106
4, 141568, Note_on_c, 15, 45, 0
4, 143360, Note_on_c, 15, 50, 111
4, 143616, Note_on_c, 15, 50, 0
4, 143872, Note_on_c, 15, 45, 109
4, 144128, Note_on_c, 15, 45, 0
4, 144384, Note_on_c, 15, 50, 106
4, 144640, Note_on_c, 15, 50, 0
4, 149504, Note_on_c, 15, 45, 107
4, 149760, Note_on_c, 15, 45, 0
4, 150016, Note_on_c, 15, 45, 103
4, 150272, Note_on_c, 15, 45, 0
4, 150528, Note_on_c, 15, 45, 96
4, 150784, Note_on_c, 15, 45, 0
4, 154624, Note_on_c, 15, 50, 94
4, 154880, Note_on_c, 15, 50, 0
4, 155136, Note_on_c, 15, 50, 96
4, 155392, Note_on_c, 15, 50, 0
4, 157696, Note_on_c, 15, 45, 110
4, 157952, Note_on_c, 15, 45, 0
4, 158208, Note_on_c, 15, 50, 113
4, 158464, Note_on_c, 15, 50, 0
4, 158720, Note_on_c, 15, 50, 116
4, 158976, Note_on_c, 15, 50, 0
4, 159232, Note_on_c, 15, 45, 118
4, 159488, Note_on_c, 15, 45, 0
4, 159744, Note_on_c, 15, 50, 121
4, 160768, Note_on_c, 15, 50, 0
4, 166912, Note_on_c, 15, 50, 100
4, 167168, Note_on_c, 15, 50, 0
4, 167424, Note_on_c, 15, 45, 102
4, 167680, Note_on_c, 15, 45, 0
4, 167936, Note_on_c, 15, 45, 104
4, 168192, Note_on_c, 15, 45, 0
4, 168448, Note_on_c, 15, 45, 105
4, 168704, Note_on_c, 15, 45, 0
4, 168960, Note_on_c, 15, 50, 107
4, 169216, Note_on_c, 15, 50, 0
4, 169472, Note_on_c, 15, 45, 109
4, 169677, Note_on_c, 15, 45, 0
4, 169728, Note_on_c, 15, 45, 110
4, 169933, Note_on_c, 15, 45, 0
4, 169984, Note_on_c, 15, 45, 111
4, 170189, Note_on_c, 15, 45, 0
4, 170240, Note_on_c, 15, 45, 112
4, 170445, Note_on_c, 15, 45, 0
4, 170496, Note_on_c, 15, 50, 113
4, 170752, Note_on_c, 15, 50, 0
4, 171008, Note_on_c, 15, 50, 114
4, 171264, Note_on_c, 15, 50, 0
4, 171520, Note_on_c, 15, 45, 116
4, 171776, Note_on_c, 15, 45, 0
4, 172032, Note_on_c, 15, 50, 118
4, 172288, Note_on_c, 15, 50, 0
4, 172544, Note_on_c, 15, 50, 84
4, 172800, Note_on_c, 15, 50, 0
4, 176128, Note_on_c, 15, 45, 101
4, 176384, Note_on_c, 15, 45, 0
4, 176640, Note_on_c, 15, 50, 109
4, 176896, Note_on_c, 15, 50, 0
4, 177152, Note_on_c, 15, 50, 113
4, 177408, Note_on_c, 15, 50, 0
4, 177664, Note_on_c, 15, 45, 117
4, 177920, Note_on_c, 15, 45, 0
4, 178176, Note_on_c, 15, 50, 121
4, 179115, Note_on_c, 15, 50, 0
4, 185344, Note_on_c, 15, 45, 96
4, 185600, Note_on_c, 15, 45, 0
4, 185856, Note_on_c, 15, 50, 96
4, 186112, Note_on_c, 15, 50, 0
4, 186368, Note_on_c, 15, 50, 97
4, 186573, Note_on_c, 15, 50, 0
4, 186624, Note_on_c, 15, 50, 98
4, 186829, Note_on_c, 15, 50, 0
4, 186880, Note_on_c, 15, 50, 98
4, 187085, Note_on_c, 15, 50, 0
4, 187136, Note_on_c, 15, 50, 98
4, 187341, Note_on_c, 15, 50, 0
4, 187392, Note_on_c, 15, 50, 99
4, 187648, Note_on_c, 15, 50, 0
4, 187904, Note_on_c, 15, 45, 99
4, 188160, Note_on_c, 15, 45, 0
4, 188416, Note_on_c, 15, 50, 100
4, 188672, Note_on_c, 15, 50, 0
4, 188928, Note_on_c, 15, 50, 101
4, 189184, Note_on_c, 15, 50, 0
4, 189440, Note_on_c, 15, 45, 102
4, 189696, Note_on_c, 15, 45, 0
4, 189952, Note_on_c, 15, 50, 103
4, 190208, Note_on_c, 15, 50, 0
4, 190464, Note_on_c, 15, 45, 103
4, 191488, Note_on_c, 15, 45, 0
4, 197632, Note_on_c, 15, 50, 105
4, 197888, Note_on_c, 15, 50, 0
4, 198144, Note_on_c, 15, 50, 108
4, 198400, Note_on_c, 15, 50, 0
4, 198656, Note_on_c, 15, 50, 108
4, 198861, Note_on_c, 15, 50, 0
4, 198912, Note_on_c, 15, 50, 109
4, 199117, Note_on_c, 15, 50, 0
4, 199168, Note_on_c, 15, 50, 109
4, 199373, Note_on_c, 15, 50, 0
4, 199424, Note_on_c, 15, 50, 110
4, 199629, Note_on_c, 15, 50, 0
4, 199680, Note_on_c, 15, 50, 110
4, 199936, Note_on_c, 15, 50, 0
4, 207360, Note_on_c, 15, 45, 107
4, 207616, Note_on_c, 15, 45, 0
4, 207872, Note_on_c, 15, 45, 105
4, 208077, Note_on_c, 15, 45, 0
4, 208128, Note_on_c, 15, 45, 104
4, 208333, Note_on_c, 15, 45, 0
4, 208384, Note_on_c, 15, 45, 103
4, 208589, Note_on_c, 15, 45, 0
4, 208640, Note_on_c, 15, 45, 103
4, 208845, Note_on_c, 15, 45, 0
4, 208896, Note_on_c, 15, 45, 102
4, 209152, Note_on_c, 15, 45, 0
4, 210944, Note_on_c, 15, 50, 96
4, 211200, Note_on_c, 15, 50, 0
4, 211456, Note_on_c, 15, 45, 96
4, 211712, Note_on_c, 15, 45, 0
4, 211968, Note_on_c, 15, 50, 96
4, 212224, Note_on_c, 15, 50, 0
4, 217088, Note_on_c, 15, 45, 96
4, 217344, Note_on_c, 15, 45, 0
4, 217600, Note_on_c, 15, 45, 96
4, 217856, Note_on_c, 15, 45, 0
4, 218112, Note_on_c, 15, 45, 96
4, 218368, Note_on_c, 15, 45, 0
4, 222208, Note_on_c, 15, 50, 80
4, 222464, Note_on_c, 15, 50, 0
4, 222720, Note_on_c, 15, 50, 86
4, 222976, Note_on_c, 15, 50, 0
4, 225280, Note_on_c, 15, 45, 112
4, 225536, Note_on_c, 15, 45, 0
4, 225792, Note_on_c, 15, 50, 118
4, 226048, Note_on_c, 15, 50, 0
4, 226304, Note_on_c, 15, 50, 120
4, 226560, Note_on_c, 15, 50, 0
4, 226816, Note_on_c, 15, 45, 121
4, 227072, Note_on_c, 15, 45, 0
4, 227328, Note_on_c, 15, 50, 122
4, 228864, Note_on_c, 15, 50, 0
4, 230400, Control_c, 15, 121, 127
4, 230400, End_track
5, 0, Start_track
5, 0, Title_t, "Flute"
5, 0, Program_c, 2, 73
5, 0, Control_c, 2, 121, 127
5, 0, Control_c, 2, 91, 127
5, 0, Control_c, 2, 1, 5
5, 0, Control_c, 2, 10, 20
5, 0, Control_c, 2, 11, 80
5, 3584, Note_on_c, 2, 81, 88
5, 3584, Note_on_c, 2, 78, 88
5, 3789, Note_on_c, 2, 81, 0
5, 3789, Note_on_c, 2, 78, 0
5, 3840, Note_on_c, 2, 78, 76
5, 3840, Note_on_c, 2, 74, 76
5, 4045, Note_on_c, 2, 78, 0
5, 4045, Note_on_c, 2, 74, 0
5, 4096, Note_on_c, 2, 79, 76
5, 4096, Note_on_c, 2, 76, 76
5, 4301, Note_on_c, 2, 79, 0
5, 4301, Note_on_c, 2, 76, 0
5, 4352, Note_on_c, 2, 76, 76
5, 4352, Note_on_c, 2, 73, 76
5, 4557, Note_on_c, 2, 76, 0
5, 4557, Note_on_c, 2, 73, 0
5, 4608, Note_on_c, 2, 78, 77
5, 4608, Note_on_c, 2, 74, 77
5, 4813, Note_on_c, 2, 78, 0
5, 4864, Note_on_c, 2, 76, 77
5, 4864, Note_on_c, 2, 74, 0
5, 5069, Note_on_c, 2, 76, 0
5, 5120, Note_on_c, 2, 74, 78
5, 5120, Note_on_c, 2, 69, 78
5, 5325, Note_on_c, 2, 74, 0
5, 5325, Note_on_c, 2, 69, 0
5, 5376, Note_on_c, 2, 78, 78
5, 5376, Note_on_c, 2, 74, 78
5, 5581, Note_on_c, 2, 78, 0
5, 5581, Note_on_c, 2, 74, 0
5, 5632, Note_on_c, 2, 76, 78
5, 5632, Note_on_c, 2, 73, 78
5, 5837, Note_on_c, 2, 76, 0
5, 5837, Note_on_c, 2, 73, 0
5, 5888, Note_on_c, 2, 79, 79
5, 5888, Note_on_c, 2, 76, 79
5, 6093, Note_on_c, 2, 79, 0
5, 6093, Note_on_c, 2, 76, 0
5, 6144, Note_on_c, 2, 78, 79
5, 6144, Note_on_c, 2, 74, 79
5, 6349, Note_on_c, 2, 78, 0
5, 6349, Note_on_c, 2, 74, 0
5, 6400, Note_on_c, 2, 79, 80
5, 6400, Note_on_c, 2, 76, 80
5, 6605, Note_on_c, 2, 79, 0
5, 6605, Note_on_c, 2, 76, 0
5, 6656, Note_on_c, 2, 81, 80
5, 6656, Note_on_c, 2, 78, 80
5, 6912, Note_on_c, 2, 81, 0
5, 6912, Note_on_c, 2, 78, 0
5, 7168, Note_on_c, 2, 78, 81
5, 7168, Note_on_c, 2, 73, 81
5, 7296, Note_on_c, 2, 78, 0
5, 7296, Note_on_c, 2, 76, 81
5, 7424, Note_on_c, 2, 76, 0
5, 7424, Note_on_c, 2, 78, 81
5, 7424, Note_on_c, 2, 73, 0
5, 7552, Note_on_c, 2, 78, 0
5, 7552, Note_on_c, 2, 76, 81
5, 7680, Note_on_c, 2, 76, 0
5, 7680, Note_on_c, 2, 74, 82
5, 7680, Note_on_c, 2, 69, 82
5, 7936, Note_on_c, 2, 74, 0
5, 7936, Note_on_c, 2, 69, 0
5, 8192, Note_on_c, 2, 86, 82
5, 8192, Note_on_c, 2, 66, 82
5, 8448, Note_on_c, 2, 86, 0
5, 8448, Note_on_c, 2, 66, 0
5, 8704, Note_on_c, 2, 81, 83
5, 8704, Note_on_c, 2, 73, 83
5, 8960, Note_on_c, 2, 81, 0
5, 8960, Note_on_c, 2, 73, 0
5, 9216, Note_on_c, 2, 81, 84
5, 9216, Note_on_c, 2, 69, 84
5, 9421, Note_on_c, 2, 81, 0
5, 9421, Note_on_c, 2, 69, 0
5, 9472, Note_on_c, 2, 79, 84
5, 9472, Note_on_c, 2, 79, 84
5, 9677, Note_on_c, 2, 79, 0
5, 9677, Note_on_c, 2, 79, 0
5, 9728, Note_on_c, 2, 78, 85
5, 9728, Note_on_c, 2, 78, 85
5, 9933, Note_on_c, 2, 78, 0
5, 9933, Note_on_c, 2, 78, 0
5, 9984, Note_on_c, 2, 76, 85
5, 9984, Note_on_c, 2, 76, 85
5, 10189, Note_on_c, 2, 76, 0
5, 10189, Note_on_c, 2, 76, 0
5, 10240, Note_on_c, 2, 74, 86
5, 10240, Note_on_c, 2, 74, 86
5, 10445, Note_on_c, 2, 74, 0
5, 10445, Note_on_c, 2, 74, 0
5, 10496, Note_on_c, 2, 78, 86
5, 10496, Note_on_c, 2, 78, 86
5, 10701, Note_on_c, 2, 78, 0
5, 10701, Note_on_c, 2, 78, 0
5, 10752, Note_on_c, 2, 76, 86
5, 10752, Note_on_c, 2, 76, 86
5, 10957, Note_on_c, 2, 76, 0
5, 10957, Note_on_c, 2, 76, 0
5, 11008, Note_on_c, 2, 74, 87
5, 11008, Note_on_c, 2, 74, 87
5, 11213, Note_on_c, 2, 74, 0
5, 11213, Note_on_c, 2, 74, 0
5, 11264, Note_on_c, 2, 73, 89
5, 11264, Note_on_c, 2, 73, 89
5, 11469, Note_on_c, 2, 73, 0
5, 11469, Note_on_c, 2, 73, 0
5, 11520, Note_on_c, 2, 71, 90
5, 11520, Note_on_c, 2, 71, 90
5, 11725, Note_on_c, 2, 71, 0
5, 11725, Note_on_c, 2, 71, 0
5, 11776, Note_on_c, 2, 73, 91
5, 11776, Note_on_c, 2, 73, 91
5, 11981, Note_on_c, 2, 73, 0
5, 11981, Note_on_c, 2, 73, 0
5, 12032, Note_on_c, 2, 69, 92
5, 12032, Note_on_c, 2, 69, 92
5, 12237, Note_on_c, 2, 69, 0
5, 12237, Note_on_c, 2, 69, 0
5, 12288, Note_on_c, 2, 78, 93
5, 12288, Note_on_c, 2, 78, 93
5, 12493, Note_on_c, 2, 78, 0
5, 12493, Note_on_c, 2, 78, 0
5, 12544, Note_on_c, 2, 79, 94
5, 12544, Note_on_c, 2, 79, 94
5, 12749, Note_on_c, 2, 79, 0
5, 12749, Note_on_c, 2, 79, 0
5, 12800, Note_on_c, 2, 81, 96
5, 12800, Note_on_c, 2, 81, 96
5, 13056, Note_on_c, 2, 81, 0
5, 13056, Note_on_c, 2, 81, 0
5, 13312, Note_on_c, 2, 73, 98
5, 13312, Note_on_c, 2, 73, 98
5, 13568, Note_on_c, 2, 73, 0
5, 13568, Note_on_c, 2, 73, 0
5, 13824, Note_on_c, 2, 74, 100
5, 13824, Note_on_c, 2, 74, 100
5, 14080, Note_on_c, 2, 74, 0
5, 14080, Note_on_c, 2, 74, 0
5, 14336, Note_on_c, 2, 73, 103
5, 14336, Note_on_c, 2, 73, 103
5, 14541, Note_on_c, 2, 73, 0
5, 14541, Note_on_c, 2, 73, 0
5, 14592, Note_on_c, 2, 71, 104
5, 14592, Note_on_c, 2, 71, 104
5, 14797, Note_on_c, 2, 71, 0
5, 14797, Note_on_c, 2, 71, 0
5, 14848, Note_on_c, 2, 69, 105
5, 14848, Note_on_c, 2, 69, 105
5, 15053, Note_on_c, 2, 69, 0
5, 15053, Note_on_c, 2, 69, 0
5, 15104, Note_on_c, 2, 67, 106
5, 15104, Note_on_c, 2, 67, 106
5, 15309, Note_on_c, 2, 67, 0
5, 15309, Note_on_c, 2, 67, 0
5, 15360, Note_on_c, 2, 66, 107
5, 15360, Note_on_c, 2, 66, 107
5, 15616, Note_on_c, 2, 66, 0
5, 15616, Note_on_c, 2, 66, 0
5, 15872, Note_on_c, 2, 62, 93
5, 15872, Note_on_c, 2, 62, 93
5, 16128, Note_on_c, 2, 62, 0
5, 16128, Note_on_c, 2, 62, 0
5, 19456, Note_on_c, 2, 69, 90
5, 19456, Note_on_c, 2, 69, 90
5, 19712, Note_on_c, 2, 69, 0
5, 19712, Note_on_c, 2, 69, 0
5, 19968, Note_on_c, 2, 81, 91
5, 19968, Note_on_c, 2, 81, 91
5, 20224, Note_on_c, 2, 81, 0
5, 20224, Note_on_c, 2, 81, 0
5, 20480, Note_on_c, 2, 79, 93
5, 20480, Note_on_c, 2, 79, 93
5, 20736, Note_on_c, 2, 79, 0
5, 20736, Note_on_c, 2, 79, 0
5, 20992, Note_on_c, 2, 78, 94
5, 20992, Note_on_c, 2, 78, 94
5, 21248, Note_on_c, 2, 78, 0
5, 21248, Note_on_c, 2, 78, 0
5, 21504, Note_on_c, 2, 76, 95
5, 21504, Note_on_c, 2, 76, 95
5, 21760, Note_on_c, 2, 76, 0
5, 21760, Note_on_c, 2, 76, 0
5, 22016, Note_on_c, 2, 81, 89
5, 22016, Note_on_c, 2, 81, 89
5, 22272, Note_on_c, 2, 81, 0
5, 22272, Note_on_c, 2, 81, 0
5, 23552, Note_on_c, 2, 86, 37
5, 23552, Note_on_c, 2, 81, 37
5, 23808, Note_on_c, 2, 86, 0
5, 23808, Note_on_c, 2, 81, 0
5, 24064, Note_on_c, 2, 85, 39
5, 24064, Note_on_c, 2, 81, 39
5, 24320, Note_on_c, 2, 85, 0
5, 24320, Note_on_c, 2, 81, 0
5, 24576, Note_on_c, 2, 86, 41
5, 24576, Note_on_c, 2, 81, 41
5, 24832, Note_on_c, 2, 86, 0
5, 24832, Note_on_c, 2, 81, 0
5, 28160, Note_on_c, 2, 88, 55
5, 28160, Note_on_c, 2, 79, 55
5, 28416, Note_on_c, 2, 88, 0
5, 28416, Note_on_c, 2, 79, 0
5, 28672, Note_on_c, 2, 86, 57
5, 28672, Note_on_c, 2, 83, 57
5, 28928, Note_on_c, 2, 86, 0
5, 28928, Note_on_c, 2, 83, 0
5, 29184, Note_on_c, 2, 85, 59
5, 29184, Note_on_c, 2, 81, 59
5, 29440, Note_on_c, 2, 85, 0
5, 29440, Note_on_c, 2, 81, 0
5, 32768, Note_on_c, 2, 78, 73
5, 32768, Note_on_c, 2, 74, 73
5, 33024, Note_on_c, 2, 78, 0
5, 33024, Note_on_c, 2, 74, 0
5, 33280, Note_on_c, 2, 76, 75
5, 33280, Note_on_c, 2, 70, 75
5, 33536, Note_on_c, 2, 76, 0
5, 33536, Note_on_c, 2, 70, 0
5, 33792, Note_on_c, 2, 74, 77
5, 33792, Note_on_c, 2, 66, 77
5, 34048, Note_on_c, 2, 74, 0
5, 34048, Note_on_c, 2, 66, 0
5, 36352, Note_on_c, 2, 74, 90
5, 36352, Note_on_c, 2, 74, 90
5, 36608, Note_on_c, 2, 74, 0
5, 36608, Note_on_c, 2, 74, 0
5, 36864, Note_on_c, 2, 81, 91
5, 36864, Note_on_c, 2, 81, 91
5, 37120, Note_on_c, 2, 81, 0
5, 37120, Note_on_c, 2, 81, 0
5, 37376, Note_on_c, 2, 81, 92
5, 37376, Note_on_c, 2, 81, 92
5, 37632, Note_on_c, 2, 81, 0
5, 37632, Note_on_c, 2, 81, 0
5, 37888, Note_on_c, 2, 81, 93
5, 37888, Note_on_c, 2, 81, 93
5, 38144, Note_on_c, 2, 81, 0
5, 38144, Note_on_c, 2, 81, 0
5, 38400, Note_on_c, 2, 86, 95
5, 38400, Note_on_c, 2, 86, 95
5, 38656, Note_on_c, 2, 86, 0
5, 38656, Note_on_c, 2, 86, 0
5, 38912, Note_on_c, 2, 81, 96
5, 38912, Note_on_c, 2, 81, 96
5, 39117, Note_on_c, 2, 81, 0
5, 39117, Note_on_c, 2, 81, 0
5, 39168, Note_on_c, 2, 78, 97
5, 39168, Note_on_c, 2, 78, 97
5, 39373, Note_on_c, 2, 78, 0
5, 39373, Note_on_c, 2, 78, 0
5, 39424, Note_on_c, 2, 79, 97
5, 39424, Note_on_c, 2, 79, 97
5, 39629, Note_on_c, 2, 79, 0
5, 39629, Note_on_c, 2, 79, 0
5, 39680, Note_on_c, 2, 76, 98
5, 39680, Note_on_c, 2, 76, 98
5, 39885, Note_on_c, 2, 76, 0
5, 39885, Note_on_c, 2, 76, 0
5, 39936, Note_on_c, 2, 78, 99
5, 39936, Note_on_c, 2, 78, 99
5, 40141, Note_on_c, 2, 78, 0
5, 40141, Note_on_c, 2, 78, 0
5, 40192, Note_on_c, 2, 76, 99
5, 40192, Note_on_c, 2, 76, 99
5, 40397, Note_on_c, 2, 76, 0
5, 40397, Note_on_c, 2, 76, 0
5, 40448, Note_on_c, 2, 78, 100
5, 40448, Note_on_c, 2, 78, 100
5, 40653, Note_on_c, 2, 78, 0
5, 40653, Note_on_c, 2, 78, 0
5, 40704, Note_on_c, 2, 79, 101
5, 40704, Note_on_c, 2, 79, 101
5, 40909, Note_on_c, 2, 79, 0
5, 40909, Note_on_c, 2, 79, 0
5, 40960, Note_on_c, 2, 81, 101
5, 40960, Note_on_c, 2, 81, 101
5, 41677, Note_on_c, 2, 81, 0
5, 41677, Note_on_c, 2, 81, 0
5, 41728, Note_on_c, 2, 83, 103
5, 41728, Note_on_c, 2, 83, 103
5, 41933, Note_on_c, 2, 83, 0
5, 41933, Note_on_c, 2, 83, 0
5, 41984, Note_on_c, 2, 81, 104
5, 41984, Note_on_c, 2, 81, 104
5, 42189, Note_on_c, 2, 81, 0
5, 42189, Note_on_c, 2, 81, 0
5, 42240, Note_on_c, 2, 79, 104
5, 42240, Note_on_c, 2, 79, 104
5, 42445, Note_on_c, 2, 79, 0
5, 42445, Note_on_c, 2, 79, 0
5, 42496, Note_on_c, 2, 81, 105
5, 42496, Note_on_c, 2, 81, 105
5, 42701, Note_on_c, 2, 81, 0
5, 42701, Note_on_c, 2, 81, 0
5, 42752, Note_on_c, 2, 76, 106
5, 42752, Note_on_c, 2, 76, 106
5, 42957, Note_on_c, 2, 76, 0
5, 42957, Note_on_c, 2, 76, 0
5, 43008, Note_on_c, 2, 78, 106
5, 43008, Note_on_c, 2, 78, 106
5, 43213, Note_on_c, 2, 78, 0
5, 43213, Note_on_c, 2, 78, 0
5, 43264, Note_on_c, 2, 79, 91
5, 43264, Note_on_c, 2, 79, 91
5, 43469, Note_on_c, 2, 79, 0
5, 43469, Note_on_c, 2, 79, 0
5, 43520, Note_on_c, 2, 81, 86
5, 43520, Note_on_c, 2, 81, 86
5, 43725, Note_on_c, 2, 81, 0
5, 43725, Note_on_c, 2, 81, 0
5, 43776, Note_on_c, 2, 79, 62
5, 43776, Note_on_c, 2, 79, 62
5, 43981, Note_on_c, 2, 79, 0
5, 43981, Note_on_c, 2, 79, 0
5, 44032, Note_on_c, 2, 78, 48
5, 44032, Note_on_c, 2, 78, 48
5, 44237, Note_on_c, 2, 78, 0
5, 44237, Note_on_c, 2, 78, 0
5, 44288, Note_on_c, 2, 76, 48
5, 44288, Note_on_c, 2, 76, 48
5, 44493, Note_on_c, 2, 76, 0
5, 44493, Note_on_c, 2, 76, 0
5, 44544, Note_on_c, 2, 74, 48
5, 44544, Note_on_c, 2, 74, 48
5, 44749, Note_on_c, 2, 74, 0
5, 44749, Note_on_c, 2, 74, 0
5, 44800, Note_on_c, 2, 76, 48
5, 44800, Note_on_c, 2, 76, 48
5, 45005, Note_on_c, 2, 76, 0
5, 45005, Note_on_c, 2, 76, 0
5, 45056, Note_on_c, 2, 73, 48
5, 45056, Note_on_c, 2, 73, 48
5, 45261, Note_on_c, 2, 73, 0
5, 45261, Note_on_c, 2, 73, 0
5, 45312, Note_on_c, 2, 74, 48
5, 45312, Note_on_c, 2, 74, 48
5, 45517, Note_on_c, 2, 74, 0
5, 45517, Note_on_c, 2, 74, 0
5, 45568, Note_on_c, 2, 76, 48
5, 45568, Note_on_c, 2, 76, 48
5, 45773, Note_on_c, 2, 76, 0
5, 45773, Note_on_c, 2, 76, 0
5, 45824, Note_on_c, 2, 73, 48
5, 45824, Note_on_c, 2, 73, 48
5, 46029, Note_on_c, 2, 73, 0
5, 46029, Note_on_c, 2, 73, 0
5, 46080, Note_on_c, 2, 74, 44
5, 46080, Note_on_c, 2, 74, 44
5, 46285, Note_on_c, 2, 74, 0
5, 46285, Note_on_c, 2, 74, 0
5, 46336, Note_on_c, 2, 73, 45
5, 46336, Note_on_c, 2, 73, 45
5, 46541, Note_on_c, 2, 73, 0
5, 46541, Note_on_c, 2, 73, 0
5, 46592, Note_on_c, 2, 74, 61
5, 46592, Note_on_c, 2, 74, 61
5, 46797, Note_on_c, 2, 74, 0
5, 46797, Note_on_c, 2, 74, 0
5, 46848, Note_on_c, 2, 76, 77
5, 46848, Note_on_c, 2, 76, 77
5, 47053, Note_on_c, 2, 76, 0
5, 47053, Note_on_c, 2, 76, 0
5, 47104, Note_on_c, 2, 78, 94
5, 47104, Note_on_c, 2, 78, 94
5, 47821, Note_on_c, 2, 78, 0
5, 47821, Note_on_c, 2, 78, 0
5, 47872, Note_on_c, 2, 79, 106
5, 47872, Note_on_c, 2, 79, 106
5, 48077, Note_on_c, 2, 79, 0
5, 48077, Note_on_c, 2, 79, 0
5, 48128, Note_on_c, 2, 78, 106
5, 48128, Note_on_c, 2, 78, 106
5, 48333, Note_on_c, 2, 78, 0
5, 48333, Note_on_c, 2, 78, 0
5, 48384, Note_on_c, 2, 76, 106
5, 48384, Note_on_c, 2, 76, 106
5, 48589, Note_on_c, 2, 76, 0
5, 48589, Note_on_c, 2, 76, 0
5, 48640, Note_on_c, 2, 78, 105
5, 48640, Note_on_c, 2, 78, 105
5, 48845, Note_on_c, 2, 78, 0
5, 48845, Note_on_c, 2, 78, 0
5, 48896, Note_on_c, 2, 73, 105
5, 48896, Note_on_c, 2, 73, 105
5, 49101, Note_on_c, 2, 73, 0
5, 49101, Note_on_c, 2, 73, 0
5, 49152, Note_on_c, 2, 74, 105
5, 49152, Note_on_c, 2, 74, 105
5, 49357, Note_on_c, 2, 74, 0
5, 49357, Note_on_c, 2, 74, 0
5, 49408, Note_on_c, 2, 73, 97
5, 49408, Note_on_c, 2, 73, 97
5, 49613, Note_on_c, 2, 73, 0
5, 49613, Note_on_c, 2, 73, 0
5, 49664, Note_on_c, 2, 71, 75
5, 49664, Note_on_c, 2, 71, 75
5, 49869, Note_on_c, 2, 71, 0
5, 49869, Note_on_c, 2, 71, 0
5, 49920, Note_on_c, 2, 73, 46
5, 49920, Note_on_c, 2, 73, 46
5, 50125, Note_on_c, 2, 73, 0
5, 50125, Note_on_c, 2, 73, 0
5, 50176, Note_on_c, 2, 74, 46
5, 50176, Note_on_c, 2, 74, 46
5, 50381, Note_on_c, 2, 74, 0
5, 50381, Note_on_c, 2, 74, 0
5, 50432, Note_on_c, 2, 78, 46
5, 50432, Note_on_c, 2, 78, 46
5, 50637, Note_on_c, 2, 78, 0
5, 50637, Note_on_c, 2, 78, 0
5, 50688, Note_on_c, 2, 76, 46
5, 50688, Note_on_c, 2, 76, 46
5, 50893, Note_on_c, 2, 76, 0
5, 50893, Note_on_c, 2, 76, 0
5, 50944, Note_on_c, 2, 79, 46
5, 50944, Note_on_c, 2, 79, 46
5, 51149, Note_on_c, 2, 79, 0
5, 51149, Note_on_c, 2, 79, 0
5, 51200, Note_on_c, 2, 78, 46
5, 51200, Note_on_c, 2, 78, 46
5, 51405, Note_on_c, 2, 78, 0
5, 51405, Note_on_c, 2, 78, 0
5, 51456, Note_on_c, 2, 76, 46
5, 51456, Note_on_c, 2, 76, 46
5, 51661, Note_on_c, 2, 76, 0
5, 51661, Note_on_c, 2, 76, 0
5, 51712, Note_on_c, 2, 78, 47
5, 51712, Note_on_c, 2, 78, 47
5, 51917, Note_on_c, 2, 78, 0
5, 51917, Note_on_c, 2, 78, 0
5, 51968, Note_on_c, 2, 81, 47
5, 51968, Note_on_c, 2, 81, 47
5, 52173, Note_on_c, 2, 81, 0
5, 52173, Note_on_c, 2, 81, 0
5, 52224, Note_on_c, 2, 79, 47
5, 52224, Note_on_c, 2, 79, 47
5, 52429, Note_on_c, 2, 79, 0
5, 52429, Note_on_c, 2, 79, 0
5, 52480, Note_on_c, 2, 81, 53
5, 52480, Note_on_c, 2, 81, 53
5, 52685, Note_on_c, 2, 81, 0
5, 52685, Note_on_c, 2, 81, 0
5, 52736, Note_on_c, 2, 83, 61
5, 52736, Note_on_c, 2, 83, 61
5, 52941, Note_on_c, 2, 83, 0
5, 52941, Note_on_c, 2, 83, 0
5, 52992, Note_on_c, 2, 84, 69
5, 52992, Note_on_c, 2, 84, 69
5, 53197, Note_on_c, 2, 84, 0
5, 53197, Note_on_c, 2, 84, 0
5, 53248, Note_on_c, 2, 86, 77
5, 53248, Note_on_c, 2, 86, 77
5, 54016, Note_on_c, 2, 86, 0
5, 54016, Note_on_c, 2, 86, 0
5, 54272, Note_on_c, 2, 74, 90
5, 54272, Note_on_c, 2, 74, 90
5, 54477, Note_on_c, 2, 74, 0
5, 54477, Note_on_c, 2, 74, 0
5, 54528, Note_on_c, 2, 72, 90
5, 54528, Note_on_c, 2, 72, 90
5, 54733, Note_on_c, 2, 72, 0
5, 54733, Note_on_c, 2, 72, 0
5, 54784, Note_on_c, 2, 74, 90
5, 54784, Note_on_c, 2, 74, 90
5, 55501, Note_on_c, 2, 74, 0
5, 55501, Note_on_c, 2, 74, 0
5, 55552, Note_on_c, 2, 76, 85
5, 55552, Note_on_c, 2, 76, 85
5, 55757, Note_on_c, 2, 76, 0
5, 55757, Note_on_c, 2, 76, 0
5, 55808, Note_on_c, 2, 78, 78
5, 55808, Note_on_c, 2, 78, 78
5, 56013, Note_on_c, 2, 78, 0
5, 56013, Note_on_c, 2, 78, 0
5, 56064, Note_on_c, 2, 79, 56
5, 56064, Note_on_c, 2, 79, 56
5, 56269, Note_on_c, 2, 79, 0
5, 56269, Note_on_c, 2, 79, 0
5, 56320, Note_on_c, 2, 81, 40
5, 56320, Note_on_c, 2, 81, 40
5, 56525, Note_on_c, 2, 81, 0
5, 56525, Note_on_c, 2, 81, 0
5, 56576, Note_on_c, 2, 78, 40
5, 56576, Note_on_c, 2, 78, 40
5, 56781, Note_on_c, 2, 78, 0
5, 56781, Note_on_c, 2, 78, 0
5, 56832, Note_on_c, 2, 79, 40
5, 56832, Note_on_c, 2, 79, 40
5, 57037, Note_on_c, 2, 79, 0
5, 57037, Note_on_c, 2, 79, 0
5, 57088, Note_on_c, 2, 76, 40
5, 57088, Note_on_c, 2, 76, 40
5, 57293, Note_on_c, 2, 76, 0
5, 57293, Note_on_c, 2, 76, 0
5, 57344, Note_on_c, 2, 84, 40
5, 57344, Note_on_c, 2, 84, 40
5, 57600, Note_on_c, 2, 84, 0
5, 57600, Note_on_c, 2, 84, 0
5, 57856, Note_on_c, 2, 75, 40
5, 57856, Note_on_c, 2, 75, 40
5, 58112, Note_on_c, 2, 75, 0
5, 58112, Note_on_c, 2, 75, 0
5, 58368, Note_on_c, 2, 76, 40
5, 58368, Note_on_c, 2, 76, 40
5, 58573, Note_on_c, 2, 76, 0
5, 58573, Note_on_c, 2, 76, 0
5, 58624, Note_on_c, 2, 74, 40
5, 58624, Note_on_c, 2, 74, 40
5, 58829, Note_on_c, 2, 74, 0
5, 58829, Note_on_c, 2, 74, 0
5, 58880, Note_on_c, 2, 76, 40
5, 58880, Note_on_c, 2, 76, 40
5, 59085, Note_on_c, 2, 76, 0
5, 59085, Note_on_c, 2, 76, 0
5, 59136, Note_on_c, 2, 78, 40
5, 59136, Note_on_c, 2, 78, 40
5, 59341, Note_on_c, 2, 78, 0
5, 59341, Note_on_c, 2, 78, 0
5, 59392, Note_on_c, 2, 79, 40
5, 59392, Note_on_c, 2, 79, 40
5, 59597, Note_on_c, 2, 79, 0
5, 59597, Note_on_c, 2, 79, 0
5, 59648, Note_on_c, 2, 76, 40
5, 59648, Note_on_c, 2, 76, 40
5, 59853, Note_on_c, 2, 76, 0
5, 59853, Note_on_c, 2, 76, 0
5, 59904, Note_on_c, 2, 81, 40
5, 59904, Note_on_c, 2, 81, 40
5, 60160, Note_on_c, 2, 81, 0
5, 60160, Note_on_c, 2, 81, 0
5, 60416, Note_on_c, 2, 79, 40
5, 60416, Note_on_c, 2, 76, 40
5, 60672, Note_on_c, 2, 79, 0
5, 60672, Note_on_c, 2, 76, 0
5, 60928, Note_on_c, 2, 79, 40
5, 60928, Note_on_c, 2, 76, 40
5, 61184, Note_on_c, 2, 79, 0
5, 61184, Note_on_c, 2, 76, 0
5, 61440, Note_on_c, 2, 79, 40
5, 61440, Note_on_c, 2, 76, 40
5, 61696, Note_on_c, 2, 79, 0
5, 61696, Note_on_c, 2, 76, 0
5, 65024, Note_on_c, 2, 78, 40
5, 65024, Note_on_c, 2, 74, 40
5, 65280, Note_on_c, 2, 78, 0
5, 65280, Note_on_c, 2, 74, 0
5, 65536, Note_on_c, 2, 83, 43
5, 65536, Note_on_c, 2, 78, 43
5, 65792, Note_on_c, 2, 83, 0
5, 65792, Note_on_c, 2, 78, 0
5, 66048, Note_on_c, 2, 80, 45
5, 66048, Note_on_c, 2, 76, 45
5, 66304, Note_on_c, 2, 80, 0
5, 66304, Note_on_c, 2, 76, 0
5, 69632, Note_on_c, 2, 85, 61
5, 69632, Note_on_c, 2, 81, 61
5, 69888, Note_on_c, 2, 85, 0
5, 69888, Note_on_c, 2, 81, 0
5, 70144, Note_on_c, 2, 83, 64
5, 70144, Note_on_c, 2, 77, 64
5, 70400, Note_on_c, 2, 83, 0
5, 70400, Note_on_c, 2, 77, 0
5, 70656, Note_on_c, 2, 81, 66
5, 70656, Note_on_c, 2, 73, 66
5, 70912, Note_on_c, 2, 81, 0
5, 70912, Note_on_c, 2, 73, 0
5, 73216, Note_on_c, 2, 69, 78
5, 73216, Note_on_c, 2, 69, 78
5, 73472, Note_on_c, 2, 69, 0
5, 73472, Note_on_c, 2, 69, 0
5, 73728, Note_on_c, 2, 76, 80
5, 73728, Note_on_c, 2, 76, 80
5, 73984, Note_on_c, 2, 76, 0
5, 73984, Note_on_c, 2, 76, 0
5, 74240, Note_on_c, 2, 76, 82
5, 74240, Note_on_c, 2, 76, 82
5, 74445, Note_on_c, 2, 76, 0
5, 74445, Note_on_c, 2, 76, 0
5, 74496, Note_on_c, 2, 76, 83
5, 74496, Note_on_c, 2, 76, 83
5, 74701, Note_on_c, 2, 76, 0
5, 74701, Note_on_c, 2, 76, 0
5, 74752, Note_on_c, 2, 76, 85
5, 74752, Note_on_c, 2, 76, 85
5, 74957, Note_on_c, 2, 76, 0
5, 74957, Note_on_c, 2, 76, 0
5, 75008, Note_on_c, 2, 76, 86
5, 75008, Note_on_c, 2, 76, 86
5, 75213, Note_on_c, 2, 76, 0
5, 75213, Note_on_c, 2, 76, 0
5, 75264, Note_on_c, 2, 81, 87
5, 75264, Note_on_c, 2, 81, 87
5, 75520, Note_on_c, 2, 81, 0
5, 75520, Note_on_c, 2, 81, 0
5, 75776, Note_on_c, 2, 76, 89
5, 75776, Note_on_c, 2, 76, 89
5, 75981, Note_on_c, 2, 76, 0
5, 75981, Note_on_c, 2, 76, 0
5, 76032, Note_on_c, 2, 73, 90
5, 76032, Note_on_c, 2, 73, 90
5, 76237, Note_on_c, 2, 73, 0
5, 76237, Note_on_c, 2, 73, 0
5, 76288, Note_on_c, 2, 74, 92
5, 76288, Note_on_c, 2, 74, 92
5, 76493, Note_on_c, 2, 74, 0
5, 76493, Note_on_c, 2, 74, 0
5, 76544, Note_on_c, 2, 71, 93
5, 76544, Note_on_c, 2, 71, 93
5, 76749, Note_on_c, 2, 71, 0
5, 76749, Note_on_c, 2, 71, 0
5, 76800, Note_on_c, 2, 73, 94
5, 76800, Note_on_c, 2, 73, 94
5, 77005, Note_on_c, 2, 73, 0
5, 77005, Note_on_c, 2, 73, 0
5, 77056, Note_on_c, 2, 71, 95
5, 77056, Note_on_c, 2, 71, 95
5, 77261, Note_on_c, 2, 71, 0
5, 77261, Note_on_c, 2, 71, 0
5, 77312, Note_on_c, 2, 73, 96
5, 77312, Note_on_c, 2, 73, 96
5, 77517, Note_on_c, 2, 73, 0
5, 77517, Note_on_c, 2, 73, 0
5, 77568, Note_on_c, 2, 74, 97
5, 77568, Note_on_c, 2, 74, 97
5, 77773, Note_on_c, 2, 74, 0
5, 77773, Note_on_c, 2, 74, 0
5, 77824, Note_on_c, 2, 76, 99
5, 77824, Note_on_c, 2, 76, 99
5, 78541, Note_on_c, 2, 76, 0
5, 78541, Note_on_c, 2, 76, 0
5, 78592, Note_on_c, 2, 78, 100
5, 78592, Note_on_c, 2, 78, 100
5, 78797, Note_on_c, 2, 78, 0
5, 78797, Note_on_c, 2, 78, 0
5, 78848, Note_on_c, 2, 76, 100
5, 78848, Note_on_c, 2, 76, 100
5, 79053, Note_on_c, 2, 76, 0
5, 79053, Note_on_c, 2, 76, 0
5, 79104, Note_on_c, 2, 74, 100
5, 79104, Note_on_c, 2, 74, 100
5, 79309, Note_on_c, 2, 74, 0
5, 79309, Note_on_c, 2, 74, 0
5, 79360, Note_on_c, 2, 76, 100
5, 79360, Note_on_c, 2, 76, 100
5, 79565, Note_on_c, 2, 76, 0
5, 79565, Note_on_c, 2, 76, 0
5, 79616, Note_on_c, 2, 71, 100
5, 79616, Note_on_c, 2, 71, 100
5, 79821, Note_on_c, 2, 71, 0
5, 79821, Note_on_c, 2, 71, 0
5, 79872, Note_on_c, 2, 73, 100
5, 79872, Note_on_c, 2, 73, 100
5, 80077, Note_on_c, 2, 73, 0
5, 80077, Note_on_c, 2, 73, 0
5, 80128, Note_on_c, 2, 74, 97
5, 80128, Note_on_c, 2, 74, 97
5, 80333, Note_on_c, 2, 74, 0
5, 80333, Note_on_c, 2, 74, 0
5, 80384, Note_on_c, 2, 76, 90
5, 80384, Note_on_c, 2, 76, 90
5, 80589, Note_on_c, 2, 76, 0
5, 80589, Note_on_c, 2, 76, 0
5, 80640, Note_on_c, 2, 74, 63
5, 80640, Note_on_c, 2, 74, 63
5, 80845, Note_on_c, 2, 74, 0
5, 80845, Note_on_c, 2, 74, 0
5, 80896, Note_on_c, 2, 73, 44
5, 80896, Note_on_c, 2, 73, 44
5, 81101, Note_on_c, 2, 73, 0
5, 81101, Note_on_c, 2, 73, 0
5, 81152, Note_on_c, 2, 71, 44
5, 81152, Note_on_c, 2, 71, 44
5, 81357, Note_on_c, 2, 71, 0
5, 81357, Note_on_c, 2, 71, 0
5, 81408, Note_on_c, 2, 69, 44
5, 81408, Note_on_c, 2, 69, 44
5, 81613, Note_on_c, 2, 69, 0
5, 81613, Note_on_c, 2, 69, 0
5, 81664, Note_on_c, 2, 71, 45
5, 81664, Note_on_c, 2, 71, 45
5, 81869, Note_on_c, 2, 71, 0
5, 81869, Note_on_c, 2, 71, 0
5, 81920, Note_on_c, 2, 68, 45
5, 81920, Note_on_c, 2, 68, 45
5, 82125, Note_on_c, 2, 68, 0
5, 82125, Note_on_c, 2, 68, 0
5, 82176, Note_on_c, 2, 69, 45
5, 82176, Note_on_c, 2, 69, 45
5, 82381, Note_on_c, 2, 69, 0
5, 82381, Note_on_c, 2, 69, 0
5, 82432, Note_on_c, 2, 71, 46
5, 82432, Note_on_c, 2, 71, 46
5, 82637, Note_on_c, 2, 71, 0
5, 82637, Note_on_c, 2, 71, 0
5, 82688, Note_on_c, 2, 68, 46
5, 82688, Note_on_c, 2, 68, 46
5, 82893, Note_on_c, 2, 68, 0
5, 82893, Note_on_c, 2, 68, 0
5, 82944, Note_on_c, 2, 69, 47
5, 82944, Note_on_c, 2, 69, 47
5, 83149, Note_on_c, 2, 69, 0
5, 83149, Note_on_c, 2, 69, 0
5, 83200, Note_on_c, 2, 68, 60
5, 83200, Note_on_c, 2, 68, 60
5, 83405, Note_on_c, 2, 68, 0
5, 83405, Note_on_c, 2, 68, 0
5, 83456, Note_on_c, 2, 69, 74
5, 83456, Note_on_c, 2, 69, 74
5, 83661, Note_on_c, 2, 69, 0
5, 83661, Note_on_c, 2, 69, 0
5, 83712, Note_on_c, 2, 71, 88
5, 83712, Note_on_c, 2, 71, 88
5, 83917, Note_on_c, 2, 71, 0
5, 83917, Note_on_c, 2, 71, 0
5, 83968, Note_on_c, 2, 73, 101
5, 83968, Note_on_c, 2, 73, 101
5, 84685, Note_on_c, 2, 73, 0
5, 84685, Note_on_c, 2, 73, 0
5, 84736, Note_on_c, 2, 74, 103
5, 84736, Note_on_c, 2, 74, 103
5, 84941, Note_on_c, 2, 74, 0
5, 84941, Note_on_c, 2, 74, 0
5, 84992, Note_on_c, 2, 73, 104
5, 84992, Note_on_c, 2, 73, 104
5, 85197, Note_on_c, 2, 73, 0
5, 85197, Note_on_c, 2, 73, 0
5, 85248, Note_on_c, 2, 71, 105
5, 85248, Note_on_c, 2, 71, 105
5, 85453, Note_on_c, 2, 71, 0
5, 85453, Note_on_c, 2, 71, 0
5, 85504, Note_on_c, 2, 73, 107
5, 85504, Note_on_c, 2, 73, 107
5, 85709, Note_on_c, 2, 73, 0
5, 85709, Note_on_c, 2, 73, 0
5, 85760, Note_on_c, 2, 68, 108
5, 85760, Note_on_c, 2, 68, 108
5, 85965, Note_on_c, 2, 68, 0
5, 85965, Note_on_c, 2, 68, 0
5, 86016, Note_on_c, 2, 69, 103
5, 86016, Note_on_c, 2, 69, 103
5, 86221, Note_on_c, 2, 69, 0
5, 86221, Note_on_c, 2, 69, 0
5, 86272, Note_on_c, 2, 68, 97
5, 86272, Note_on_c, 2, 68, 97
5, 86477, Note_on_c, 2, 68, 0
5, 86477, Note_on_c, 2, 68, 0
5, 86528, Note_on_c, 2, 66, 82
5, 86528, Note_on_c, 2, 66, 82
5, 86733, Note_on_c, 2, 66, 0
5, 86733, Note_on_c, 2, 66, 0
5, 86784, Note_on_c, 2, 68, 61
5, 86784, Note_on_c, 2, 68, 61
5, 86989, Note_on_c, 2, 68, 0
5, 86989, Note_on_c, 2, 68, 0
5, 87040, Note_on_c, 2, 69, 45
5, 87040, Note_on_c, 2, 69, 45
5, 87245, Note_on_c, 2, 69, 0
5, 87245, Note_on_c, 2, 69, 0
5, 87296, Note_on_c, 2, 73, 46
5, 87296, Note_on_c, 2, 73, 46
5, 87501, Note_on_c, 2, 73, 0
5, 87501, Note_on_c, 2, 73, 0
5, 87552, Note_on_c, 2, 71, 48
5, 87552, Note_on_c, 2, 71, 48
5, 87757, Note_on_c, 2, 71, 0
5, 87757, Note_on_c, 2, 71, 0
5, 87808, Note_on_c, 2, 74, 51
5, 87808, Note_on_c, 2, 74, 51
5, 88013, Note_on_c, 2, 74, 0
5, 88013, Note_on_c, 2, 74, 0
5, 88064, Note_on_c, 2, 73, 54
5, 88064, Note_on_c, 2, 73, 54
5, 88269, Note_on_c, 2, 73, 0
5, 88269, Note_on_c, 2, 73, 0
5, 88320, Note_on_c, 2, 71, 57
5, 88320, Note_on_c, 2, 71, 57
5, 88525, Note_on_c, 2, 71, 0
5, 88525, Note_on_c, 2, 71, 0
5, 88576, Note_on_c, 2, 73, 60
5, 88576, Note_on_c, 2, 73, 60
5, 88781, Note_on_c, 2, 73, 0
5, 88781, Note_on_c, 2, 73, 0
5, 88832, Note_on_c, 2, 76, 63
5, 88832, Note_on_c, 2, 76, 63
5, 89037, Note_on_c, 2, 76, 0
5, 89037, Note_on_c, 2, 76, 0
5, 89088, Note_on_c, 2, 74, 66
5, 89088, Note_on_c, 2, 74, 66
5, 89293, Note_on_c, 2, 74, 0
5, 89293, Note_on_c, 2, 74, 0
5, 89344, Note_on_c, 2, 76, 75
5, 89344, Note_on_c, 2, 76, 75
5, 89549, Note_on_c, 2, 76, 0
5, 89549, Note_on_c, 2, 76, 0
5, 89600, Note_on_c, 2, 78, 85
5, 89600, Note_on_c, 2, 78, 85
5, 89805, Note_on_c, 2, 78, 0
5, 89805, Note_on_c, 2, 78, 0
5, 89856, Note_on_c, 2, 79, 94
5, 89856, Note_on_c, 2, 79, 94
5, 90061, Note_on_c, 2, 79, 0
5, 90061, Note_on_c, 2, 79, 0
5, 90112, Note_on_c, 2, 81, 104
5, 90112, Note_on_c, 2, 81, 104
5, 90880, Note_on_c, 2, 81, 0
5, 90880, Note_on_c, 2, 81, 0
5, 91136, Note_on_c, 2, 69, 109
5, 91136, Note_on_c, 2, 69, 109
5, 91341, Note_on_c, 2, 69, 0
5, 91341, Note_on_c, 2, 69, 0
5, 91392, Note_on_c, 2, 68, 110
5, 91392, Note_on_c, 2, 68, 110
5, 91597, Note_on_c, 2, 68, 0
5, 91597, Note_on_c, 2, 68, 0
5, 91648, Note_on_c, 2, 69, 111
5, 91648, Note_on_c, 2, 69, 111
5, 92365, Note_on_c, 2, 69, 0
5, 92365, Note_on_c, 2, 69, 0
5, 92416, Note_on_c, 2, 71, 105
5, 92416, Note_on_c, 2, 71, 105
5, 92621, Note_on_c, 2, 71, 0
5, 92621, Note_on_c, 2, 71, 0
5, 92672, Note_on_c, 2, 73, 96
5, 92672, Note_on_c, 2, 73, 96
5, 92877, Note_on_c, 2, 73, 0
5, 92877, Note_on_c, 2, 73, 0
5, 92928, Note_on_c, 2, 74, 67
5, 92928, Note_on_c, 2, 74, 67
5, 93133, Note_on_c, 2, 74, 0
5, 93133, Note_on_c, 2, 74, 0
5, 93184, Note_on_c, 2, 76, 49
5, 93184, Note_on_c, 2, 76, 49
5, 93389, Note_on_c, 2, 76, 0
5, 93389, Note_on_c, 2, 76, 0
5, 93440, Note_on_c, 2, 73, 41
5, 93440, Note_on_c, 2, 73, 41
5, 93645, Note_on_c, 2, 73, 0
5, 93645, Note_on_c, 2, 73, 0
5, 93696, Note_on_c, 2, 74, 41
5, 93696, Note_on_c, 2, 74, 41
5, 93901, Note_on_c, 2, 74, 0
5, 93901, Note_on_c, 2, 74, 0
5, 93952, Note_on_c, 2, 71, 41
5, 93952, Note_on_c, 2, 71, 41
5, 94157, Note_on_c, 2, 71, 0
5, 94157, Note_on_c, 2, 71, 0
5, 94208, Note_on_c, 2, 79, 41
5, 94208, Note_on_c, 2, 79, 41
5, 94464, Note_on_c, 2, 79, 0
5, 94464, Note_on_c, 2, 79, 0
5, 94720, Note_on_c, 2, 73, 41
5, 94720, Note_on_c, 2, 73, 41
5, 94976, Note_on_c, 2, 73, 0
5, 94976, Note_on_c, 2, 73, 0
5, 95232, Note_on_c, 2, 71, 41
5, 95232, Note_on_c, 2, 71, 41
5, 95488, Note_on_c, 2, 71, 0
5, 95488, Note_on_c, 2, 71, 0
5, 95744, Note_on_c, 2, 66, 41
5, 95744, Note_on_c, 2, 66, 41
5, 96000, Note_on_c, 2, 66, 0
5, 96000, Note_on_c, 2, 66, 0
5, 97280, Note_on_c, 2, 79, 41
5, 97280, Note_on_c, 2, 71, 41
5, 97485, Note_on_c, 2, 79, 0
5, 97485, Note_on_c, 2, 71, 0
5, 97536, Note_on_c, 2, 76, 41
5, 97536, Note_on_c, 2, 67, 41
5, 97741, Note_on_c, 2, 76, 0
5, 97741, Note_on_c, 2, 67, 0
5, 97792, Note_on_c, 2, 78, 41
5, 97792, Note_on_c, 2, 69, 41
5, 97997, Note_on_c, 2, 78, 0
5, 97997, Note_on_c, 2, 69, 0
5, 98048, Note_on_c, 2, 75, 41
5, 98048, Note_on_c, 2, 66, 41
5, 98253, Note_on_c, 2, 75, 0
5, 98253, Note_on_c, 2, 66, 0
5, 98304, Note_on_c, 2, 76, 41
5, 98304, Note_on_c, 2, 67, 41
5, 98560, Note_on_c, 2, 76, 0
5, 98560, Note_on_c, 2, 67, 0
5, 100352, Note_on_c, 2, 85, 41
5, 100352, Note_on_c, 2, 76, 41
5, 100557, Note_on_c, 2, 85, 0
5, 100557, Note_on_c, 2, 76, 0
5, 100608, Note_on_c, 2, 81, 41
5, 100608, Note_on_c, 2, 73, 41
5, 100813, Note_on_c, 2, 81, 0
5, 100813, Note_on_c, 2, 73, 0
5, 100864, Note_on_c, 2, 83, 41
5, 100864, Note_on_c, 2, 74, 41
5, 101069, Note_on_c, 2, 83, 0
5, 101069, Note_on_c, 2, 74, 0
5, 101120, Note_on_c, 2, 80, 41
5, 101120, Note_on_c, 2, 71, 41
5, 101325, Note_on_c, 2, 80, 0
5, 101325, Note_on_c, 2, 71, 0
5, 101376, Note_on_c, 2, 81, 41
5, 101376, Note_on_c, 2, 73, 41
5, 101632, Note_on_c, 2, 81, 0
5, 101632, Note_on_c, 2, 73, 0
5, 103424, Note_on_c, 2, 78, 41
5, 103424, Note_on_c, 2, 69, 41
5, 103629, Note_on_c, 2, 78, 0
5, 103629, Note_on_c, 2, 69, 0
5, 103680, Note_on_c, 2, 74, 41
5, 103680, Note_on_c, 2, 66, 41
5, 103885, Note_on_c, 2, 74, 0
5, 103885, Note_on_c, 2, 66, 0
5, 103936, Note_on_c, 2, 76, 41
5, 103936, Note_on_c, 2, 67, 41
5, 104141, Note_on_c, 2, 76, 0
5, 104141, Note_on_c, 2, 67, 0
5, 104192, Note_on_c, 2, 73, 41
5, 104192, Note_on_c, 2, 64, 41
5, 104397, Note_on_c, 2, 73, 0
5, 104397, Note_on_c, 2, 64, 0
5, 104448, Note_on_c, 2, 74, 41
5, 104448, Note_on_c, 2, 66, 41
5, 104704, Note_on_c, 2, 74, 0
5, 104704, Note_on_c, 2, 66, 0
5, 106496, Note_on_c, 2, 83, 41
5, 106496, Note_on_c, 2, 74, 41
5, 106701, Note_on_c, 2, 83, 0
5, 106701, Note_on_c, 2, 74, 0
5, 106752, Note_on_c, 2, 79, 41
5, 106752, Note_on_c, 2, 71, 41
5, 106957, Note_on_c, 2, 79, 0
5, 106957, Note_on_c, 2, 71, 0
5, 107008, Note_on_c, 2, 81, 41
5, 107008, Note_on_c, 2, 72, 41
5, 107213, Note_on_c, 2, 81, 0
5, 107213, Note_on_c, 2, 72, 0
5, 107264, Note_on_c, 2, 78, 41
5, 107264, Note_on_c, 2, 69, 41
5, 107469, Note_on_c, 2, 78, 0
5, 107469, Note_on_c, 2, 69, 0
5, 107520, Note_on_c, 2, 79, 41
5, 107520, Note_on_c, 2, 71, 41
5, 107776, Note_on_c, 2, 79, 0
5, 107776, Note_on_c, 2, 71, 0
5, 109568, Note_on_c, 2, 76, 41
5, 109568, Note_on_c, 2, 67, 41
5, 109773, Note_on_c, 2, 76, 0
5, 109773, Note_on_c, 2, 67, 0
5, 109824, Note_on_c, 2, 73, 41
5, 109824, Note_on_c, 2, 64, 41
5, 110029, Note_on_c, 2, 73, 0
5, 110029, Note_on_c, 2, 64, 0
5, 110080, Note_on_c, 2, 74, 41
5, 110080, Note_on_c, 2, 66, 41
5, 110285, Note_on_c, 2, 74, 0
5, 110285, Note_on_c, 2, 66, 0
5, 110336, Note_on_c, 2, 71, 41
5, 110336, Note_on_c, 2, 62, 41
5, 110541, Note_on_c, 2, 71, 0
5, 110541, Note_on_c, 2, 62, 0
5, 110592, Note_on_c, 2, 73, 41
5, 110592, Note_on_c, 2, 64, 41
5, 110848, Note_on_c, 2, 73, 0
5, 110848, Note_on_c, 2, 64, 0
5, 112640, Note_on_c, 2, 82, 41
5, 112640, Note_on_c, 2, 73, 41
5, 112845, Note_on_c, 2, 82, 0
5, 112845, Note_on_c, 2, 73, 0
5, 112896, Note_on_c, 2, 78, 41
5, 112896, Note_on_c, 2, 70, 41
5, 113101, Note_on_c, 2, 78, 0
5, 113101, Note_on_c, 2, 70, 0
5, 113152, Note_on_c, 2, 80, 41
5, 113152, Note_on_c, 2, 71, 41
5, 113357, Note_on_c, 2, 80, 0
5, 113357, Note_on_c, 2, 71, 0
5, 113408, Note_on_c, 2, 77, 41
5, 113408, Note_on_c, 2, 68, 41
5, 113613, Note_on_c, 2, 77, 0
5, 113613, Note_on_c, 2, 68, 0
5, 113664, Note_on_c, 2, 78, 41
5, 113664, Note_on_c, 2, 70, 41
5, 113920, Note_on_c, 2, 78, 0
5, 113920, Note_on_c, 2, 70, 0
5, 115712, Note_on_c, 2, 86, 48
5, 115712, Note_on_c, 2, 78, 48
5, 115917, Note_on_c, 2, 86, 0
5, 115917, Note_on_c, 2, 78, 0
5, 115968, Note_on_c, 2, 83, 49
5, 115968, Note_on_c, 2, 74, 49
5, 116173, Note_on_c, 2, 83, 0
5, 116173, Note_on_c, 2, 74, 0
5, 116224, Note_on_c, 2, 85, 51
5, 116224, Note_on_c, 2, 76, 51
5, 116429, Note_on_c, 2, 85, 0
5, 116429, Note_on_c, 2, 76, 0
5, 116480, Note_on_c, 2, 82, 53
5, 116480, Note_on_c, 2, 73, 53
5, 116685, Note_on_c, 2, 82, 0
5, 116685, Note_on_c, 2, 73, 0
5, 116736, Note_on_c, 2, 83, 54
5, 116736, Note_on_c, 2, 74, 54
5, 116992, Note_on_c, 2, 83, 0
5, 116992, Note_on_c, 2, 74, 0
5, 118784, Note_on_c, 2, 80, 68
5, 118784, Note_on_c, 2, 71, 68
5, 118989, Note_on_c, 2, 80, 0
5, 118989, Note_on_c, 2, 71, 0
5, 119040, Note_on_c, 2, 76, 70
5, 119040, Note_on_c, 2, 68, 70
5, 119245, Note_on_c, 2, 76, 0
5, 119245, Note_on_c, 2, 68, 0
5, 119296, Note_on_c, 2, 78, 72
5, 119296, Note_on_c, 2, 69, 72
5, 119501, Note_on_c, 2, 78, 0
5, 119501, Note_on_c, 2, 69, 0
5, 119552, Note_on_c, 2, 75, 73
5, 119552, Note_on_c, 2, 66, 73
5, 119757, Note_on_c, 2, 75, 0
5, 119757, Note_on_c, 2, 66, 0
5, 119808, Note_on_c, 2, 76, 75
5, 119808, Note_on_c, 2, 68, 75
5, 120064, Note_on_c, 2, 76, 0
5, 120064, Note_on_c, 2, 68, 0
5, 120832, Note_on_c, 2, 76, 82
5, 120832, Note_on_c, 2, 76, 82
5, 121088, Note_on_c, 2, 76, 0
5, 121088, Note_on_c, 2, 76, 0
5, 121344, Note_on_c, 2, 73, 85
5, 121344, Note_on_c, 2, 73, 85
5, 121549, Note_on_c, 2, 73, 0
5, 121549, Note_on_c, 2, 73, 0
5, 121600, Note_on_c, 2, 71, 87
5, 121600, Note_on_c, 2, 71, 87
5, 121805, Note_on_c, 2, 71, 0
5, 121805, Note_on_c, 2, 71, 0
5, 121856, Note_on_c, 2, 69, 89
5, 121856, Note_on_c, 2, 69, 89
5, 122061, Note_on_c, 2, 69, 0
5, 122061, Note_on_c, 2, 69, 0
5, 122112, Note_on_c, 2, 73, 90
5, 122112, Note_on_c, 2, 73, 90
5, 122317, Note_on_c, 2, 73, 0
5, 122317, Note_on_c, 2, 73, 0
5, 122368, Note_on_c, 2, 71, 92
5, 122368, Note_on_c, 2, 71, 92
5, 122573, Note_on_c, 2, 71, 0
5, 122573, Note_on_c, 2, 71, 0
5, 122624, Note_on_c, 2, 74, 94
5, 122624, Note_on_c, 2, 74, 94
5, 122829, Note_on_c, 2, 74, 0
5, 122829, Note_on_c, 2, 74, 0
5, 122880, Note_on_c, 2, 73, 96
5, 122880, Note_on_c, 2, 73, 96
5, 123085, Note_on_c, 2, 73, 0
5, 123085, Note_on_c, 2, 73, 0
5, 123136, Note_on_c, 2, 71, 97
5, 123136, Note_on_c, 2, 71, 97
5, 123341, Note_on_c, 2, 71, 0
5, 123341, Note_on_c, 2, 71, 0
5, 123392, Note_on_c, 2, 73, 99
5, 123392, Note_on_c, 2, 73, 99
5, 123597, Note_on_c, 2, 73, 0
5, 123597, Note_on_c, 2, 73, 0
5, 123648, Note_on_c, 2, 74, 101
5, 123648, Note_on_c, 2, 74, 101
5, 123853, Note_on_c, 2, 74, 0
5, 123853, Note_on_c, 2, 74, 0
5, 123904, Note_on_c, 2, 71, 98
5, 123904, Note_on_c, 2, 71, 98
5, 124109, Note_on_c, 2, 71, 0
5, 124109, Note_on_c, 2, 71, 0
5, 124160, Note_on_c, 2, 73, 99
5, 124160, Note_on_c, 2, 73, 99
5, 124365, Note_on_c, 2, 73, 0
5, 124365, Note_on_c, 2, 73, 0
5, 124416, Note_on_c, 2, 74, 97
5, 124416, Note_on_c, 2, 74, 97
5, 124672, Note_on_c, 2, 74, 0
5, 124672, Note_on_c, 2, 74, 0
5, 124928, Note_on_c, 2, 69, 102
5, 124928, Note_on_c, 2, 69, 102
5, 125133, Note_on_c, 2, 69, 0
5, 125133, Note_on_c, 2, 69, 0
5, 125184, Note_on_c, 2, 74, 104
5, 125184, Note_on_c, 2, 74, 104
5, 125389, Note_on_c, 2, 74, 0
5, 125389, Note_on_c, 2, 74, 0
5, 125440, Note_on_c, 2, 73, 106
5, 125440, Note_on_c, 2, 73, 106
5, 125645, Note_on_c, 2, 73, 0
5, 125645, Note_on_c, 2, 73, 0
5, 125696, Note_on_c, 2, 76, 108
5, 125696, Note_on_c, 2, 76, 108
5, 125901, Note_on_c, 2, 76, 0
5, 125901, Note_on_c, 2, 76, 0
5, 125952, Note_on_c, 2, 74, 111
5, 125952, Note_on_c, 2, 74, 111
5, 126208, Note_on_c, 2, 74, 0
5, 126208, Note_on_c, 2, 74, 0
5, 126976, Note_on_c, 2, 81, 103
5, 126976, Note_on_c, 2, 69, 103
5, 127232, Note_on_c, 2, 81, 0
5, 127232, Note_on_c, 2, 69, 0
5, 127488, Note_on_c, 2, 79, 98
5, 127488, Note_on_c, 2, 76, 98
5, 127744, Note_on_c, 2, 79, 0
5, 127744, Note_on_c, 2, 76, 0
5, 128512, Note_on_c, 2, 78, 108
5, 128512, Note_on_c, 2, 74, 108
5, 128768, Note_on_c, 2, 78, 0
5, 128768, Note_on_c, 2, 74, 0
5, 129024, Note_on_c, 2, 76, 113
5, 129024, Note_on_c, 2, 73, 113
5, 129280, Note_on_c, 2, 76, 0
5, 129280, Note_on_c, 2, 73, 0
5, 130048, Note_on_c, 2, 81, 105
5, 130048, Note_on_c, 2, 81, 105
5, 130304, Note_on_c, 2, 81, 0
5, 130304, Note_on_c, 2, 81, 0
5, 130560, Note_on_c, 2, 81, 99
5, 130560, Note_on_c, 2, 81, 99
5, 130816, Note_on_c, 2, 81, 0
5, 130816, Note_on_c, 2, 81, 0
5, 131072, Note_on_c, 2, 81, 99
5, 131072, Note_on_c, 2, 81, 99
5, 131328, Note_on_c, 2, 81, 0
5, 131328, Note_on_c, 2, 81, 0
5, 131584, Note_on_c, 2, 81, 101
5, 131584, Note_on_c, 2, 81, 101
5, 131840, Note_on_c, 2, 81, 0
5, 131840, Note_on_c, 2, 81, 0
5, 132096, Note_on_c, 2, 86, 102
5, 132096, Note_on_c, 2, 86, 102
5, 132352, Note_on_c, 2, 86, 0
5, 132352, Note_on_c, 2, 86, 0
5, 132608, Note_on_c, 2, 81, 104
5, 132608, Note_on_c, 2, 81, 104
5, 132813, Note_on_c, 2, 81, 0
5, 132813, Note_on_c, 2, 81, 0
5, 132864, Note_on_c, 2, 78, 104
5, 132864, Note_on_c, 2, 78, 104
5, 133069, Note_on_c, 2, 78, 0
5, 133069, Note_on_c, 2, 78, 0
5, 133120, Note_on_c, 2, 79, 105
5, 133120, Note_on_c, 2, 79, 105
5, 133325, Note_on_c, 2, 79, 0
5, 133325, Note_on_c, 2, 79, 0
5, 133376, Note_on_c, 2, 76, 106
5, 133376, Note_on_c, 2, 76, 106
5, 133581, Note_on_c, 2, 76, 0
5, 133581, Note_on_c, 2, 76, 0
5, 133632, Note_on_c, 2, 78, 107
5, 133632, Note_on_c, 2, 78, 107
5, 133888, Note_on_c, 2, 78, 0
5, 133888, Note_on_c, 2, 78, 0
5, 134144, Note_on_c, 2, 78, 108
5, 134144, Note_on_c, 2, 78, 108
5, 134400, Note_on_c, 2, 78, 0
5, 134400, Note_on_c, 2, 78, 0
5, 134656, Note_on_c, 2, 78, 110
5, 134656, Note_on_c, 2, 78, 110
5, 134912, Note_on_c, 2, 78, 0
5, 134912, Note_on_c, 2, 78, 0
5, 135168, Note_on_c, 2, 84, 111
5, 135168, Note_on_c, 2, 84, 111
5, 135424, Note_on_c, 2, 84, 0
5, 135424, Note_on_c, 2, 84, 0
5, 135680, Note_on_c, 2, 83, 108
5, 135680, Note_on_c, 2, 83, 108
5, 135885, Note_on_c, 2, 83, 0
5, 135885, Note_on_c, 2, 83, 0
5, 135936, Note_on_c, 2, 79, 105
5, 135936, Note_on_c, 2, 79, 105
5, 136141, Note_on_c, 2, 79, 0
5, 136141, Note_on_c, 2, 79, 0
5, 136192, Note_on_c, 2, 81, 103
5, 136192, Note_on_c, 2, 81, 103
5, 136397, Note_on_c, 2, 81, 0
5, 136397, Note_on_c, 2, 81, 0
5, 136448, Note_on_c, 2, 78, 100
5, 136448, Note_on_c, 2, 78, 100
5, 136653, Note_on_c, 2, 78, 0
5, 136653, Note_on_c, 2, 78, 0
5, 136704, Note_on_c, 2, 79, 93
5, 136704, Note_on_c, 2, 79, 93
5, 136960, Note_on_c, 2, 79, 0
5, 136960, Note_on_c, 2, 79, 0
5, 137216, Note_on_c, 2, 76, 94
5, 137216, Note_on_c, 2, 76, 94
5, 137472, Note_on_c, 2, 76, 0
5, 137472, Note_on_c, 2, 76, 0
5, 137728, Note_on_c, 2, 76, 96
5, 137728, Note_on_c, 2, 76, 96
5, 137984, Note_on_c, 2, 76, 0
5, 137984, Note_on_c, 2, 76, 0
5, 138240, Note_on_c, 2, 88, 97
5, 138240, Note_on_c, 2, 88, 97
5, 138496, Note_on_c, 2, 88, 0
5, 138496, Note_on_c, 2, 88, 0
5, 138752, Note_on_c, 2, 86, 99
5, 138752, Note_on_c, 2, 86, 99
5, 138957, Note_on_c, 2, 86, 0
5, 138957, Note_on_c, 2, 86, 0
5, 139008, Note_on_c, 2, 85, 99
5, 139008, Note_on_c, 2, 85, 99
5, 139213, Note_on_c, 2, 85, 0
5, 139213, Note_on_c, 2, 85, 0
5, 139264, Note_on_c, 2, 86, 100
5, 139264, Note_on_c, 2, 86, 100
5, 139469, Note_on_c, 2, 86, 0
5, 139469, Note_on_c, 2, 86, 0
5, 139520, Note_on_c, 2, 83, 101
5, 139520, Note_on_c, 2, 83, 101
5, 139725, Note_on_c, 2, 83, 0
5, 139725, Note_on_c, 2, 83, 0
5, 139776, Note_on_c, 2, 85, 102
5, 139776, Note_on_c, 2, 85, 102
5, 140032, Note_on_c, 2, 85, 0
5, 140032, Note_on_c, 2, 85, 0
5, 140288, Note_on_c, 2, 69, 103
5, 140288, Note_on_c, 2, 69, 103
5, 140544, Note_on_c, 2, 69, 0
5, 140544, Note_on_c, 2, 69, 0
5, 140800, Note_on_c, 2, 69, 104
5, 140800, Note_on_c, 2, 69, 104
5, 141056, Note_on_c, 2, 69, 0
5, 141056, Note_on_c, 2, 69, 0
5, 141312, Note_on_c, 2, 81, 106
5, 141312, Note_on_c, 2, 81, 106
5, 141568, Note_on_c, 2, 81, 0
5, 141568, Note_on_c, 2, 81, 0
5, 141824, Note_on_c, 2, 79, 107
5, 141824, Note_on_c, 2, 79, 107
5, 142029, Note_on_c, 2, 79, 0
5, 142029, Note_on_c, 2, 79, 0
5, 142080, Note_on_c, 2, 78, 108
5, 142080, Note_on_c, 2, 78, 108
5, 142285, Note_on_c, 2, 78, 0
5, 142285, Note_on_c, 2, 78, 0
5, 142336, Note_on_c, 2, 79, 109
5, 142336, Note_on_c, 2, 79, 109
5, 142541, Note_on_c, 2, 79, 0
5, 142541, Note_on_c, 2, 79, 0
5, 142592, Note_on_c, 2, 76, 110
5, 142592, Note_on_c, 2, 76, 110
5, 142797, Note_on_c, 2, 76, 0
5, 142797, Note_on_c, 2, 76, 0
5, 142848, Note_on_c, 2, 78, 110
5, 142848, Note_on_c, 2, 78, 110
5, 143053, Note_on_c, 2, 78, 0
5, 143053, Note_on_c, 2, 78, 0
5, 143104, Note_on_c, 2, 76, 112
5, 143104, Note_on_c, 2, 76, 112
5, 143309, Note_on_c, 2, 76, 0
5, 143309, Note_on_c, 2, 76, 0
5, 143360, Note_on_c, 2, 78, 111
5, 143360, Note_on_c, 2, 78, 111
5, 143565, Note_on_c, 2, 78, 0
5, 143565, Note_on_c, 2, 78, 0
5, 143616, Note_on_c, 2, 79, 110
5, 143616, Note_on_c, 2, 79, 110
5, 143821, Note_on_c, 2, 79, 0
5, 143821, Note_on_c, 2, 79, 0
5, 143872, Note_on_c, 2, 81, 109
5, 143872, Note_on_c, 2, 81, 109
5, 144077, Note_on_c, 2, 81, 0
5, 144077, Note_on_c, 2, 81, 0
5, 144128, Note_on_c, 2, 78, 107
5, 144128, Note_on_c, 2, 78, 107
5, 144333, Note_on_c, 2, 78, 0
5, 144333, Note_on_c, 2, 78, 0
5, 144384, Note_on_c, 2, 74, 106
5, 144384, Note_on_c, 2, 74, 106
5, 144589, Note_on_c, 2, 74, 0
5, 144589, Note_on_c, 2, 74, 0
5, 144640, Note_on_c, 2, 73, 105
5, 144640, Note_on_c, 2, 73, 105
5, 144845, Note_on_c, 2, 73, 0
5, 144845, Note_on_c, 2, 73, 0
5, 144896, Note_on_c, 2, 74, 103
5, 144896, Note_on_c, 2, 74, 103
5, 145101, Note_on_c, 2, 74, 0
5, 145101, Note_on_c, 2, 74, 0
5, 145152, Note_on_c, 2, 76, 104
5, 145152, Note_on_c, 2, 76, 104
5, 145357, Note_on_c, 2, 76, 0
5, 145357, Note_on_c, 2, 76, 0
5, 145408, Note_on_c, 2, 78, 106
5, 145408, Note_on_c, 2, 78, 106
5, 145613, Note_on_c, 2, 78, 0
5, 145613, Note_on_c, 2, 78, 0
5, 145664, Note_on_c, 2, 74, 107
5, 145664, Note_on_c, 2, 74, 107
5, 145869, Note_on_c, 2, 74, 0
5, 145869, Note_on_c, 2, 74, 0
5, 145920, Note_on_c, 2, 71, 109
5, 145920, Note_on_c, 2, 71, 109
5, 146176, Note_on_c, 2, 71, 0
5, 146176, Note_on_c, 2, 71, 0
5, 146432, Note_on_c, 2, 83, 111
5, 146432, Note_on_c, 2, 83, 111
5, 146688, Note_on_c, 2, 83, 0
5, 146688, Note_on_c, 2, 83, 0
5, 146944, Note_on_c, 2, 81, 114
5, 146944, Note_on_c, 2, 81, 114
5, 147200, Note_on_c, 2, 81, 0
5, 147200, Note_on_c, 2, 81, 0
5, 147456, Note_on_c, 2, 79, 117
5, 147456, Note_on_c, 2, 79, 117
5, 147661, Note_on_c, 2, 79, 0
5, 147661, Note_on_c, 2, 79, 0
5, 147712, Note_on_c, 2, 78, 118
5, 147712, Note_on_c, 2, 78, 118
5, 147917, Note_on_c, 2, 78, 0
5, 147917, Note_on_c, 2, 78, 0
5, 147968, Note_on_c, 2, 76, 117
5, 147968, Note_on_c, 2, 76, 117
5, 149197, Note_on_c, 2, 76, 0
5, 149197, Note_on_c, 2, 76, 0
5, 149248, Note_on_c, 2, 74, 108
5, 149248, Note_on_c, 2, 74, 108
5, 149453, Note_on_c, 2, 74, 0
5, 149453, Note_on_c, 2, 74, 0
5, 149504, Note_on_c, 2, 76, 107
5, 149504, Note_on_c, 2, 76, 107
5, 149709, Note_on_c, 2, 76, 0
5, 149709, Note_on_c, 2, 76, 0
5, 149760, Note_on_c, 2, 78, 105
5, 149760, Note_on_c, 2, 78, 105
5, 149965, Note_on_c, 2, 78, 0
5, 149965, Note_on_c, 2, 78, 0
5, 150016, Note_on_c, 2, 79, 103
5, 150016, Note_on_c, 2, 79, 103
5, 150221, Note_on_c, 2, 79, 0
5, 150221, Note_on_c, 2, 79, 0
5, 150272, Note_on_c, 2, 76, 102
5, 150272, Note_on_c, 2, 76, 102
5, 150477, Note_on_c, 2, 76, 0
5, 150477, Note_on_c, 2, 76, 0
5, 150528, Note_on_c, 2, 73, 96
5, 150528, Note_on_c, 2, 73, 96
5, 150733, Note_on_c, 2, 73, 0
5, 150733, Note_on_c, 2, 73, 0
5, 150784, Note_on_c, 2, 71, 97
5, 150784, Note_on_c, 2, 71, 97
5, 150989, Note_on_c, 2, 71, 0
5, 150989, Note_on_c, 2, 71, 0
5, 151040, Note_on_c, 2, 73, 99
5, 151040, Note_on_c, 2, 73, 99
5, 151245, Note_on_c, 2, 73, 0
5, 151245, Note_on_c, 2, 73, 0
5, 151296, Note_on_c, 2, 74, 100
5, 151296, Note_on_c, 2, 74, 100
5, 151501, Note_on_c, 2, 74, 0
5, 151501, Note_on_c, 2, 74, 0
5, 151552, Note_on_c, 2, 76, 101
5, 151552, Note_on_c, 2, 76, 101
5, 151757, Note_on_c, 2, 76, 0
5, 151757, Note_on_c, 2, 76, 0
5, 151808, Note_on_c, 2, 73, 102
5, 151808, Note_on_c, 2, 73, 102
5, 152013, Note_on_c, 2, 73, 0
5, 152013, Note_on_c, 2, 73, 0
5, 152064, Note_on_c, 2, 69, 103
5, 152064, Note_on_c, 2, 69, 103
5, 152320, Note_on_c, 2, 69, 0
5, 152320, Note_on_c, 2, 69, 0
5, 152576, Note_on_c, 2, 81, 106
5, 152576, Note_on_c, 2, 81, 106
5, 152832, Note_on_c, 2, 81, 0
5, 152832, Note_on_c, 2, 81, 0
5, 153088, Note_on_c, 2, 79, 108
5, 153088, Note_on_c, 2, 79, 108
5, 153344, Note_on_c, 2, 79, 0
5, 153344, Note_on_c, 2, 79, 0
5, 153600, Note_on_c, 2, 78, 111
5, 153600, Note_on_c, 2, 78, 111
5, 153805, Note_on_c, 2, 78, 0
5, 153805, Note_on_c, 2, 78, 0
5, 153856, Note_on_c, 2, 76, 107
5, 153856, Note_on_c, 2, 76, 107
5, 154061, Note_on_c, 2, 76, 0
5, 154061, Note_on_c, 2, 76, 0
5, 154112, Note_on_c, 2, 74, 103
5, 154112, Note_on_c, 2, 74, 103
5, 154368, Note_on_c, 2, 74, 0
5, 154368, Note_on_c, 2, 74, 0
5, 154624, Note_on_c, 2, 72, 94
5, 154624, Note_on_c, 2, 72, 94
5, 155341, Note_on_c, 2, 72, 0
5, 155341, Note_on_c, 2, 72, 0
5, 155392, Note_on_c, 2, 71, 98
5, 155392, Note_on_c, 2, 71, 98
5, 155597, Note_on_c, 2, 71, 0
5, 155597, Note_on_c, 2, 71, 0
5, 155648, Note_on_c, 2, 76, 99
5, 155648, Note_on_c, 2, 76, 99
5, 155853, Note_on_c, 2, 76, 0
5, 155853, Note_on_c, 2, 76, 0
5, 155904, Note_on_c, 2, 73, 101
5, 155904, Note_on_c, 2, 73, 101
5, 156109, Note_on_c, 2, 73, 0
5, 156109, Note_on_c, 2, 73, 0
5, 156160, Note_on_c, 2, 74, 102
5, 156160, Note_on_c, 2, 74, 102
5, 156365, Note_on_c, 2, 74, 0
5, 156365, Note_on_c, 2, 74, 0
5, 156416, Note_on_c, 2, 71, 103
5, 156416, Note_on_c, 2, 71, 103
5, 156621, Note_on_c, 2, 71, 0
5, 156621, Note_on_c, 2, 71, 0
5, 156672, Note_on_c, 2, 73, 105
5, 156672, Note_on_c, 2, 73, 105
5, 156877, Note_on_c, 2, 73, 0
5, 156877, Note_on_c, 2, 73, 0
5, 156928, Note_on_c, 2, 69, 106
5, 156928, Note_on_c, 2, 69, 106
5, 157133, Note_on_c, 2, 69, 0
5, 157133, Note_on_c, 2, 69, 0
5, 157184, Note_on_c, 2, 78, 107
5, 157184, Note_on_c, 2, 78, 107
5, 157389, Note_on_c, 2, 78, 0
5, 157389, Note_on_c, 2, 78, 0
5, 157440, Note_on_c, 2, 74, 109
5, 157440, Note_on_c, 2, 74, 109
5, 157645, Note_on_c, 2, 74, 0
5, 157645, Note_on_c, 2, 74, 0
5, 157696, Note_on_c, 2, 76, 110
5, 157696, Note_on_c, 2, 76, 110
5, 157901, Note_on_c, 2, 76, 0
5, 157901, Note_on_c, 2, 76, 0
5, 157952, Note_on_c, 2, 73, 111
5, 157952, Note_on_c, 2, 73, 111
5, 158157, Note_on_c, 2, 73, 0
5, 158157, Note_on_c, 2, 73, 0
5, 158208, Note_on_c, 2, 74, 113
5, 158208, Note_on_c, 2, 74, 113
5, 158464, Note_on_c, 2, 74, 0
5, 158464, Note_on_c, 2, 74, 0
5, 158720, Note_on_c, 2, 76, 116
5, 158720, Note_on_c, 2, 76, 116
5, 158976, Note_on_c, 2, 76, 0
5, 158976, Note_on_c, 2, 76, 0
5, 159232, Note_on_c, 2, 73, 118
5, 159232, Note_on_c, 2, 73, 118
5, 159488, Note_on_c, 2, 73, 0
5, 159488, Note_on_c, 2, 73, 0
5, 159744, Note_on_c, 2, 74, 121
5, 159744, Note_on_c, 2, 74, 121
5, 160768, Note_on_c, 2, 74, 0
5, 160768, Note_on_c, 2, 74, 0
5, 166912, Note_on_c, 2, 74, 100
5, 166912, Note_on_c, 2, 74, 100
5, 167168, Note_on_c, 2, 74, 0
5, 167168, Note_on_c, 2, 74, 0
5, 167424, Note_on_c, 2, 76, 102
5, 167424, Note_on_c, 2, 76, 102
5, 167629, Note_on_c, 2, 76, 0
5, 167629, Note_on_c, 2, 76, 0
5, 167680, Note_on_c, 2, 74, 103
5, 167680, Note_on_c, 2, 74, 103
5, 167885, Note_on_c, 2, 74, 0
5, 167885, Note_on_c, 2, 74, 0
5, 167936, Note_on_c, 2, 73, 104
5, 167936, Note_on_c, 2, 73, 104
5, 168141, Note_on_c, 2, 73, 0
5, 168141, Note_on_c, 2, 73, 0
5, 168192, Note_on_c, 2, 71, 104
5, 168192, Note_on_c, 2, 71, 104
5, 168397, Note_on_c, 2, 71, 0
5, 168397, Note_on_c, 2, 71, 0
5, 168448, Note_on_c, 2, 73, 105
5, 168448, Note_on_c, 2, 73, 105
5, 168653, Note_on_c, 2, 73, 0
5, 168653, Note_on_c, 2, 73, 0
5, 168704, Note_on_c, 2, 69, 106
5, 168704, Note_on_c, 2, 69, 106
5, 168909, Note_on_c, 2, 69, 0
5, 168909, Note_on_c, 2, 69, 0
5, 168960, Note_on_c, 2, 78, 107
5, 168960, Note_on_c, 2, 78, 107
5, 169165, Note_on_c, 2, 78, 0
5, 169165, Note_on_c, 2, 78, 0
5, 169216, Note_on_c, 2, 79, 108
5, 169216, Note_on_c, 2, 79, 108
5, 169421, Note_on_c, 2, 79, 0
5, 169421, Note_on_c, 2, 79, 0
5, 169472, Note_on_c, 2, 81, 109
5, 169472, Note_on_c, 2, 81, 109
5, 169728, Note_on_c, 2, 81, 0
5, 169728, Note_on_c, 2, 81, 0
5, 169984, Note_on_c, 2, 73, 111
5, 169984, Note_on_c, 2, 73, 111
5, 170240, Note_on_c, 2, 73, 0
5, 170240, Note_on_c, 2, 73, 0
5, 170496, Note_on_c, 2, 74, 113
5, 170496, Note_on_c, 2, 74, 113
5, 170752, Note_on_c, 2, 74, 0
5, 170752, Note_on_c, 2, 74, 0
5, 171008, Note_on_c, 2, 73, 114
5, 171008, Note_on_c, 2, 73, 114
5, 171213, Note_on_c, 2, 73, 0
5, 171213, Note_on_c, 2, 73, 0
5, 171264, Note_on_c, 2, 71, 115
5, 171264, Note_on_c, 2, 71, 115
5, 171469, Note_on_c, 2, 71, 0
5, 171469, Note_on_c, 2, 71, 0
5, 171520, Note_on_c, 2, 69, 116
5, 171520, Note_on_c, 2, 69, 116
5, 171725, Note_on_c, 2, 69, 0
5, 171725, Note_on_c, 2, 69, 0
5, 171776, Note_on_c, 2, 67, 117
5, 171776, Note_on_c, 2, 67, 117
5, 171981, Note_on_c, 2, 67, 0
5, 171981, Note_on_c, 2, 67, 0
5, 172032, Note_on_c, 2, 66, 118
5, 172032, Note_on_c, 2, 66, 118
5, 172288, Note_on_c, 2, 66, 0
5, 172288, Note_on_c, 2, 66, 0
5, 172544, Note_on_c, 2, 62, 84
5, 172544, Note_on_c, 2, 62, 84
5, 172800, Note_on_c, 2, 62, 0
5, 172800, Note_on_c, 2, 62, 0
5, 176128, Note_on_c, 2, 81, 101
5, 176128, Note_on_c, 2, 81, 101
5, 176384, Note_on_c, 2, 81, 0
5, 176384, Note_on_c, 2, 81, 0
5, 176640, Note_on_c, 2, 78, 109
5, 176640, Note_on_c, 2, 78, 109
5, 176896, Note_on_c, 2, 78, 0
5, 176896, Note_on_c, 2, 78, 0
5, 177152, Note_on_c, 2, 74, 113
5, 177152, Note_on_c, 2, 74, 113
5, 177408, Note_on_c, 2, 74, 0
5, 177408, Note_on_c, 2, 74, 0
5, 177664, Note_on_c, 2, 73, 117
5, 177664, Note_on_c, 2, 73, 117
5, 177920, Note_on_c, 2, 73, 0
5, 177920, Note_on_c, 2, 73, 0
5, 178176, Note_on_c, 2, 74, 121
5, 178176, Note_on_c, 2, 74, 121
5, 179115, Note_on_c, 2, 74, 0
5, 179116, Note_on_c, 2, 74, 0
5, 179200, Note_on_c, 2, 74, 96
5, 179200, Note_on_c, 2, 74, 96
5, 179456, Note_on_c, 2, 74, 0
5, 179456, Note_on_c, 2, 74, 0
5, 179712, Note_on_c, 2, 81, 103
5, 179712, Note_on_c, 2, 81, 103
5, 179968, Note_on_c, 2, 81, 0
5, 179968, Note_on_c, 2, 81, 0
5, 180224, Note_on_c, 2, 81, 94
5, 180224, Note_on_c, 2, 81, 94
5, 180480, Note_on_c, 2, 81, 0
5, 180480, Note_on_c, 2, 81, 0
5, 180736, Note_on_c, 2, 81, 99
5, 180736, Note_on_c, 2, 81, 99
5, 180992, Note_on_c, 2, 81, 0
5, 180992, Note_on_c, 2, 81, 0
5, 181248, Note_on_c, 2, 86, 103
5, 181248, Note_on_c, 2, 86, 103
5, 181504, Note_on_c, 2, 86, 0
5, 181504, Note_on_c, 2, 86, 0
5, 181760, Note_on_c, 2, 81, 93
5, 181760, Note_on_c, 2, 81, 93
5, 181965, Note_on_c, 2, 81, 0
5, 181965, Note_on_c, 2, 81, 0
5, 182016, Note_on_c, 2, 78, 93
5, 182016, Note_on_c, 2, 78, 93
5, 182221, Note_on_c, 2, 78, 0
5, 182221, Note_on_c, 2, 78, 0
5, 182272, Note_on_c, 2, 79, 94
5, 182272, Note_on_c, 2, 79, 94
5, 182477, Note_on_c, 2, 79, 0
5, 182477, Note_on_c, 2, 79, 0
5, 182528, Note_on_c, 2, 76, 94
5, 182528, Note_on_c, 2, 76, 94
5, 182733, Note_on_c, 2, 76, 0
5, 182733, Note_on_c, 2, 76, 0
5, 182784, Note_on_c, 2, 78, 107
5, 182784, Note_on_c, 2, 78, 107
5, 183040, Note_on_c, 2, 78, 0
5, 183040, Note_on_c, 2, 78, 0
5, 183296, Note_on_c, 2, 78, 93
5, 183296, Note_on_c, 2, 78, 93
5, 183552, Note_on_c, 2, 78, 0
5, 183552, Note_on_c, 2, 78, 0
5, 183808, Note_on_c, 2, 78, 98
5, 183808, Note_on_c, 2, 78, 98
5, 184064, Note_on_c, 2, 78, 0
5, 184064, Note_on_c, 2, 78, 0
5, 184320, Note_on_c, 2, 81, 104
5, 184320, Note_on_c, 2, 81, 104
5, 184576, Note_on_c, 2, 81, 0
5, 184576, Note_on_c, 2, 81, 0
5, 184832, Note_on_c, 2, 78, 95
5, 184832, Note_on_c, 2, 78, 95
5, 185037, Note_on_c, 2, 78, 0
5, 185037, Note_on_c, 2, 78, 0
5, 185088, Note_on_c, 2, 74, 95
5, 185088, Note_on_c, 2, 74, 95
5, 185293, Note_on_c, 2, 74, 0
5, 185293, Note_on_c, 2, 74, 0
5, 185344, Note_on_c, 2, 76, 96
5, 185344, Note_on_c, 2, 76, 96
5, 185549, Note_on_c, 2, 76, 0
5, 185549, Note_on_c, 2, 76, 0
5, 185600, Note_on_c, 2, 73, 96
5, 185600, Note_on_c, 2, 73, 96
5, 185805, Note_on_c, 2, 73, 0
5, 185805, Note_on_c, 2, 73, 0
5, 185856, Note_on_c, 2, 74, 96
5, 185856, Note_on_c, 2, 74, 96
5, 186112, Note_on_c, 2, 74, 0
5, 186112, Note_on_c, 2, 74, 0
5, 186368, Note_on_c, 2, 74, 97
5, 186368, Note_on_c, 2, 74, 97
5, 186624, Note_on_c, 2, 74, 0
5, 186624, Note_on_c, 2, 74, 0
5, 186880, Note_on_c, 2, 74, 98
5, 186880, Note_on_c, 2, 74, 98
5, 187136, Note_on_c, 2, 74, 0
5, 187136, Note_on_c, 2, 74, 0
5, 187392, Note_on_c, 2, 74, 99
5, 187392, Note_on_c, 2, 74, 99
5, 187597, Note_on_c, 2, 74, 0
5, 187597, Note_on_c, 2, 74, 0
5, 187648, Note_on_c, 2, 78, 99
5, 187648, Note_on_c, 2, 78, 99
5, 187853, Note_on_c, 2, 78, 0
5, 187853, Note_on_c, 2, 78, 0
5, 187904, Note_on_c, 2, 76, 99
5, 187904, Note_on_c, 2, 76, 99
5, 188109, Note_on_c, 2, 76, 0
5, 188109, Note_on_c, 2, 76, 0
5, 188160, Note_on_c, 2, 73, 100
5, 188160, Note_on_c, 2, 73, 100
5, 188365, Note_on_c, 2, 73, 0
5, 188365, Note_on_c, 2, 73, 0
5, 188416, Note_on_c, 2, 74, 100
5, 188416, Note_on_c, 2, 74, 100
5, 188621, Note_on_c, 2, 74, 0
5, 188621, Note_on_c, 2, 74, 0
5, 188672, Note_on_c, 2, 76, 101
5, 188672, Note_on_c, 2, 76, 101
5, 188877, Note_on_c, 2, 76, 0
5, 188877, Note_on_c, 2, 76, 0
5, 188928, Note_on_c, 2, 78, 101
5, 188928, Note_on_c, 2, 78, 101
5, 189133, Note_on_c, 2, 78, 0
5, 189133, Note_on_c, 2, 78, 0
5, 189184, Note_on_c, 2, 81, 101
5, 189184, Note_on_c, 2, 81, 101
5, 189389, Note_on_c, 2, 81, 0
5, 189389, Note_on_c, 2, 81, 0
5, 189440, Note_on_c, 2, 79, 102
5, 189440, Note_on_c, 2, 79, 102
5, 189645, Note_on_c, 2, 79, 0
5, 189645, Note_on_c, 2, 79, 0
5, 189696, Note_on_c, 2, 76, 102
5, 189696, Note_on_c, 2, 76, 102
5, 189901, Note_on_c, 2, 76, 0
5, 189901, Note_on_c, 2, 76, 0
5, 189952, Note_on_c, 2, 78, 103
5, 189952, Note_on_c, 2, 78, 103
5, 190157, Note_on_c, 2, 78, 0
5, 190157, Note_on_c, 2, 78, 0
5, 190208, Note_on_c, 2, 74, 103
5, 190208, Note_on_c, 2, 74, 103
5, 190413, Note_on_c, 2, 74, 0
5, 190413, Note_on_c, 2, 74, 0
5, 190464, Note_on_c, 2, 69, 103
5, 190464, Note_on_c, 2, 69, 103
5, 190720, Note_on_c, 2, 69, 0
5, 190720, Note_on_c, 2, 69, 0
5, 191488, Note_on_c, 2, 79, 76
5, 191488, Note_on_c, 2, 76, 76
5, 191744, Note_on_c, 2, 79, 0
5, 191744, Note_on_c, 2, 76, 0
5, 192000, Note_on_c, 2, 78, 79
5, 192000, Note_on_c, 2, 74, 79
5, 192256, Note_on_c, 2, 78, 0
5, 192256, Note_on_c, 2, 74, 0
5, 193024, Note_on_c, 2, 76, 84
5, 193024, Note_on_c, 2, 73, 84
5, 193280, Note_on_c, 2, 76, 0
5, 193280, Note_on_c, 2, 73, 0
5, 193536, Note_on_c, 2, 74, 86
5, 193536, Note_on_c, 2, 74, 86
5, 193792, Note_on_c, 2, 74, 0
5, 193792, Note_on_c, 2, 74, 0
5, 194560, Note_on_c, 2, 81, 91
5, 194560, Note_on_c, 2, 69, 91
5, 194816, Note_on_c, 2, 81, 0
5, 194816, Note_on_c, 2, 69, 0
5, 195072, Note_on_c, 2, 79, 93
5, 195072, Note_on_c, 2, 76, 93
5, 195328, Note_on_c, 2, 79, 0
5, 195328, Note_on_c, 2, 76, 0
5, 196096, Note_on_c, 2, 78, 98
5, 196096, Note_on_c, 2, 74, 98
5, 196352, Note_on_c, 2, 78, 0
5, 196352, Note_on_c, 2, 74, 0
5, 196608, Note_on_c, 2, 76, 101
5, 196608, Note_on_c, 2, 73, 101
5, 196864, Note_on_c, 2, 76, 0
5, 196864, Note_on_c, 2, 73, 0
5, 197632, Note_on_c, 2, 74, 105
5, 197632, Note_on_c, 2, 74, 105
5, 197888, Note_on_c, 2, 74, 0
5, 197888, Note_on_c, 2, 74, 0
5, 198144, Note_on_c, 2, 81, 108
5, 198144, Note_on_c, 2, 81, 108
5, 198400, Note_on_c, 2, 81, 0
5, 198400, Note_on_c, 2, 81, 0
5, 198656, Note_on_c, 2, 81, 108
5, 198656, Note_on_c, 2, 81, 108
5, 198912, Note_on_c, 2, 81, 0
5, 198912, Note_on_c, 2, 81, 0
5, 199168, Note_on_c, 2, 81, 109
5, 199168, Note_on_c, 2, 81, 109
5, 199424, Note_on_c, 2, 81, 0
5, 199424, Note_on_c, 2, 81, 0
5, 199680, Note_on_c, 2, 86, 110
5, 199680, Note_on_c, 2, 86, 110
5, 199936, Note_on_c, 2, 86, 0
5, 199936, Note_on_c, 2, 86, 0
5, 200192, Note_on_c, 2, 81, 111
5, 200192, Note_on_c, 2, 81, 111
5, 200397, Note_on_c, 2, 81, 0
5, 200397, Note_on_c, 2, 81, 0
5, 200448, Note_on_c, 2, 78, 111
5, 200448, Note_on_c, 2, 78, 111
5, 200653, Note_on_c, 2, 78, 0
5, 200653, Note_on_c, 2, 78, 0
5, 200704, Note_on_c, 2, 79, 112
5, 200704, Note_on_c, 2, 79, 112
5, 200909, Note_on_c, 2, 79, 0
5, 200909, Note_on_c, 2, 79, 0
5, 200960, Note_on_c, 2, 76, 112
5, 200960, Note_on_c, 2, 76, 112
5, 201165, Note_on_c, 2, 76, 0
5, 201165, Note_on_c, 2, 76, 0
5, 201216, Note_on_c, 2, 78, 112
5, 201216, Note_on_c, 2, 78, 112
5, 201472, Note_on_c, 2, 78, 0
5, 201472, Note_on_c, 2, 78, 0
5, 201728, Note_on_c, 2, 78, 113
5, 201728, Note_on_c, 2, 78, 113
5, 201984, Note_on_c, 2, 78, 0
5, 201984, Note_on_c, 2, 78, 0
5, 202240, Note_on_c, 2, 78, 114
5, 202240, Note_on_c, 2, 78, 114
5, 202496, Note_on_c, 2, 78, 0
5, 202496, Note_on_c, 2, 78, 0
5, 202752, Note_on_c, 2, 84, 115
5, 202752, Note_on_c, 2, 84, 115
5, 203008, Note_on_c, 2, 84, 0
5, 203008, Note_on_c, 2, 84, 0
5, 203264, Note_on_c, 2, 83, 116
5, 203264, Note_on_c, 2, 83, 116
5, 203469, Note_on_c, 2, 83, 0
5, 203469, Note_on_c, 2, 83, 0
5, 203520, Note_on_c, 2, 79, 116
5, 203520, Note_on_c, 2, 79, 116
5, 203725, Note_on_c, 2, 79, 0
5, 203725, Note_on_c, 2, 79, 0
5, 203776, Note_on_c, 2, 81, 117
5, 203776, Note_on_c, 2, 81, 117
5, 203981, Note_on_c, 2, 81, 0
5, 203981, Note_on_c, 2, 81, 0
5, 204032, Note_on_c, 2, 78, 117
5, 204032, Note_on_c, 2, 78, 117
5, 204237, Note_on_c, 2, 78, 0
5, 204237, Note_on_c, 2, 78, 0
5, 204288, Note_on_c, 2, 79, 117
5, 204288, Note_on_c, 2, 79, 117
5, 204544, Note_on_c, 2, 79, 0
5, 204544, Note_on_c, 2, 79, 0
5, 204800, Note_on_c, 2, 76, 117
5, 204800, Note_on_c, 2, 76, 117
5, 205056, Note_on_c, 2, 76, 0
5, 205056, Note_on_c, 2, 76, 0
5, 205312, Note_on_c, 2, 76, 115
5, 205312, Note_on_c, 2, 76, 115
5, 205568, Note_on_c, 2, 76, 0
5, 205568, Note_on_c, 2, 76, 0
5, 205824, Note_on_c, 2, 88, 113
5, 205824, Note_on_c, 2, 88, 113
5, 206080, Note_on_c, 2, 88, 0
5, 206080, Note_on_c, 2, 88, 0
5, 206336, Note_on_c, 2, 86, 111
5, 206336, Note_on_c, 2, 86, 111
5, 206541, Note_on_c, 2, 86, 0
5, 206541, Note_on_c, 2, 86, 0
5, 206592, Note_on_c, 2, 85, 110
5, 206592, Note_on_c, 2, 85, 110
5, 206797, Note_on_c, 2, 85, 0
5, 206797, Note_on_c, 2, 85, 0
5, 206848, Note_on_c, 2, 86, 109
5, 206848, Note_on_c, 2, 86, 109
5, 207053, Note_on_c, 2, 86, 0
5, 207053, Note_on_c, 2, 86, 0
5, 207104, Note_on_c, 2, 83, 108
5, 207104, Note_on_c, 2, 83, 108
5, 207309, Note_on_c, 2, 83, 0
5, 207309, Note_on_c, 2, 83, 0
5, 207360, Note_on_c, 2, 85, 107
5, 207360, Note_on_c, 2, 85, 107
5, 207616, Note_on_c, 2, 85, 0
5, 207616, Note_on_c, 2, 85, 0
5, 207872, Note_on_c, 2, 69, 105
5, 207872, Note_on_c, 2, 69, 105
5, 208128, Note_on_c, 2, 69, 0
5, 208128, Note_on_c, 2, 69, 0
5, 208384, Note_on_c, 2, 69, 103
5, 208384, Note_on_c, 2, 69, 103
5, 208640, Note_on_c, 2, 69, 0
5, 208640, Note_on_c, 2, 69, 0
5, 208896, Note_on_c, 2, 81, 102
5, 208896, Note_on_c, 2, 81, 102
5, 209152, Note_on_c, 2, 81, 0
5, 209152, Note_on_c, 2, 81, 0
5, 209408, Note_on_c, 2, 79, 100
5, 209408, Note_on_c, 2, 79, 100
5, 209613, Note_on_c, 2, 79, 0
5, 209613, Note_on_c, 2, 79, 0
5, 209664, Note_on_c, 2, 78, 99
5, 209664, Note_on_c, 2, 78, 99
5, 209869, Note_on_c, 2, 78, 0
5, 209869, Note_on_c, 2, 78, 0
5, 209920, Note_on_c, 2, 79, 98
5, 209920, Note_on_c, 2, 79, 98
5, 210125, Note_on_c, 2, 79, 0
5, 210125, Note_on_c, 2, 79, 0
5, 210176, Note_on_c, 2, 76, 97
5, 210176, Note_on_c, 2, 76, 97
5, 210381, Note_on_c, 2, 76, 0
5, 210381, Note_on_c, 2, 76, 0
5, 210432, Note_on_c, 2, 78, 96
5, 210432, Note_on_c, 2, 78, 96
5, 210637, Note_on_c, 2, 78, 0
5, 210637, Note_on_c, 2, 78, 0
5, 210688, Note_on_c, 2, 76, 96
5, 210688, Note_on_c, 2, 76, 96
5, 210893, Note_on_c, 2, 76, 0
5, 210893, Note_on_c, 2, 76, 0
5, 210944, Note_on_c, 2, 78, 96
5, 210944, Note_on_c, 2, 78, 96
5, 211149, Note_on_c, 2, 78, 0
5, 211149, Note_on_c, 2, 78, 0
5, 211200, Note_on_c, 2, 79, 96
5, 211200, Note_on_c, 2, 79, 96
5, 211405, Note_on_c, 2, 79, 0
5, 211405, Note_on_c, 2, 79, 0
5, 211456, Note_on_c, 2, 81, 96
5, 211456, Note_on_c, 2, 81, 96
5, 211661, Note_on_c, 2, 81, 0
5, 211661, Note_on_c, 2, 81, 0
5, 211712, Note_on_c, 2, 78, 96
5, 211712, Note_on_c, 2, 78, 96
5, 211917, Note_on_c, 2, 78, 0
5, 211917, Note_on_c, 2, 78, 0
5, 211968, Note_on_c, 2, 74, 96
5, 211968, Note_on_c, 2, 74, 96
5, 212173, Note_on_c, 2, 74, 0
5, 212173, Note_on_c, 2, 74, 0
5, 212224, Note_on_c, 2, 73, 96
5, 212224, Note_on_c, 2, 73, 96
5, 212429, Note_on_c, 2, 73, 0
5, 212429, Note_on_c, 2, 73, 0
5, 212480, Note_on_c, 2, 74, 96
5, 212480, Note_on_c, 2, 74, 96
5, 212685, Note_on_c, 2, 74, 0
5, 212685, Note_on_c, 2, 74, 0
5, 212736, Note_on_c, 2, 76, 96
5, 212736, Note_on_c, 2, 76, 96
5, 212941, Note_on_c, 2, 76, 0
5, 212941, Note_on_c, 2, 76, 0
5, 212992, Note_on_c, 2, 78, 96
5, 212992, Note_on_c, 2, 78, 96
5, 213197, Note_on_c, 2, 78, 0
5, 213197, Note_on_c, 2, 78, 0
5, 213248, Note_on_c, 2, 74, 96
5, 213248, Note_on_c, 2, 74, 96
5, 213453, Note_on_c, 2, 74, 0
5, 213453, Note_on_c, 2, 74, 0
5, 213504, Note_on_c, 2, 71, 96
5, 213504, Note_on_c, 2, 71, 96
5, 213760, Note_on_c, 2, 71, 0
5, 213760, Note_on_c, 2, 71, 0
5, 214016, Note_on_c, 2, 83, 96
5, 214016, Note_on_c, 2, 83, 96
5, 214272, Note_on_c, 2, 83, 0
5, 214272, Note_on_c, 2, 83, 0
5, 214528, Note_on_c, 2, 81, 96
5, 214528, Note_on_c, 2, 81, 96
5, 214784, Note_on_c, 2, 81, 0
5, 214784, Note_on_c, 2, 81, 0
5, 215040, Note_on_c, 2, 79, 96
5, 215040, Note_on_c, 2, 79, 96
5, 215245, Note_on_c, 2, 79, 0
5, 215245, Note_on_c, 2, 79, 0
5, 215296, Note_on_c, 2, 78, 96
5, 215296, Note_on_c, 2, 78, 96
5, 215501, Note_on_c, 2, 78, 0
5, 215501, Note_on_c, 2, 78, 0
5, 215552, Note_on_c, 2, 76, 96
5, 215552, Note_on_c, 2, 76, 96
5, 216781, Note_on_c, 2, 76, 0
5, 216781, Note_on_c, 2, 76, 0
5, 216832, Note_on_c, 2, 74, 96
5, 216832, Note_on_c, 2, 74, 96
5, 217037, Note_on_c, 2, 74, 0
5, 217037, Note_on_c, 2, 74, 0
5, 217088, Note_on_c, 2, 76, 96
5, 217088, Note_on_c, 2, 76, 96
5, 217293, Note_on_c, 2, 76, 0
5, 217293, Note_on_c, 2, 76, 0
5, 217344, Note_on_c, 2, 78, 96
5, 217344, Note_on_c, 2, 78, 96
5, 217549, Note_on_c, 2, 78, 0
5, 217549, Note_on_c, 2, 78, 0
5, 217600, Note_on_c, 2, 79, 96
5, 217600, Note_on_c, 2, 79, 96
5, 217805, Note_on_c, 2, 79, 0
5, 217805, Note_on_c, 2, 79, 0
5, 217856, Note_on_c, 2, 76, 96
5, 217856, Note_on_c, 2, 76, 96
5, 218061, Note_on_c, 2, 76, 0
5, 218061, Note_on_c, 2, 76, 0
5, 218112, Note_on_c, 2, 73, 96
5, 218112, Note_on_c, 2, 73, 96
5, 218317, Note_on_c, 2, 73, 0
5, 218317, Note_on_c, 2, 73, 0
5, 218368, Note_on_c, 2, 71, 96
5, 218368, Note_on_c, 2, 71, 96
5, 218573, Note_on_c, 2, 71, 0
5, 218573, Note_on_c, 2, 71, 0
5, 218624, Note_on_c, 2, 73, 96
5, 218624, Note_on_c, 2, 73, 96
5, 218829, Note_on_c, 2, 73, 0
5, 218829, Note_on_c, 2, 73, 0
5, 218880, Note_on_c, 2, 74, 96
5, 218880, Note_on_c, 2, 74, 96
5, 219085, Note_on_c, 2, 74, 0
5, 219085, Note_on_c, 2, 74, 0
5, 219136, Note_on_c, 2, 76, 96
5, 219136, Note_on_c, 2, 76, 96
5, 219341, Note_on_c, 2, 76, 0
5, 219341, Note_on_c, 2, 76, 0
5, 219392, Note_on_c, 2, 73, 96
5, 219392, Note_on_c, 2, 73, 96
5, 219597, Note_on_c, 2, 73, 0
5, 219597, Note_on_c, 2, 73, 0
5, 219648, Note_on_c, 2, 69, 96
5, 219648, Note_on_c, 2, 69, 96
5, 219904, Note_on_c, 2, 69, 0
5, 219904, Note_on_c, 2, 69, 0
5, 220160, Note_on_c, 2, 81, 96
5, 220160, Note_on_c, 2, 81, 96
5, 220416, Note_on_c, 2, 81, 0
5, 220416, Note_on_c, 2, 81, 0
5, 220672, Note_on_c, 2, 79, 96
5, 220672, Note_on_c, 2, 79, 96
5, 220928, Note_on_c, 2, 79, 0
5, 220928, Note_on_c, 2, 79, 0
5, 221184, Note_on_c, 2, 78, 97
5, 221184, Note_on_c, 2, 78, 97
5, 221389, Note_on_c, 2, 78, 0
5, 221389, Note_on_c, 2, 78, 0
5, 221440, Note_on_c, 2, 76, 91
5, 221440, Note_on_c, 2, 76, 91
5, 221645, Note_on_c, 2, 76, 0
5, 221645, Note_on_c, 2, 76, 0
5, 221696, Note_on_c, 2, 74, 85
5, 221696, Note_on_c, 2, 74, 85
5, 221952, Note_on_c, 2, 74, 0
5, 221952, Note_on_c, 2, 74, 0
5, 222208, Note_on_c, 2, 72, 80
5, 222208, Note_on_c, 2, 72, 80
5, 222925, Note_on_c, 2, 72, 0
5, 222925, Note_on_c, 2, 72, 0
5, 222976, Note_on_c, 2, 71, 88
5, 222976, Note_on_c, 2, 71, 88
5, 223181, Note_on_c, 2, 71, 0
5, 223181, Note_on_c, 2, 71, 0
5, 223232, Note_on_c, 2, 76, 91
5, 223232, Note_on_c, 2, 76, 91
5, 223437, Note_on_c, 2, 76, 0
5, 223437, Note_on_c, 2, 76, 0
5, 223488, Note_on_c, 2, 73, 94
5, 223488, Note_on_c, 2, 73, 94
5, 223693, Note_on_c, 2, 73, 0
5, 223693, Note_on_c, 2, 73, 0
5, 223744, Note_on_c, 2, 74, 96
5, 223744, Note_on_c, 2, 74, 96
5, 223949, Note_on_c, 2, 74, 0
5, 223949, Note_on_c, 2, 74, 0
5, 224000, Note_on_c, 2, 71, 99
5, 224000, Note_on_c, 2, 71, 99
5, 224205, Note_on_c, 2, 71, 0
5, 224205, Note_on_c, 2, 71, 0
5, 224256, Note_on_c, 2, 73, 102
5, 224256, Note_on_c, 2, 73, 102
5, 224461, Note_on_c, 2, 73, 0
5, 224461, Note_on_c, 2, 73, 0
5, 224512, Note_on_c, 2, 69, 104
5, 224512, Note_on_c, 2, 69, 104
5, 224717, Note_on_c, 2, 69, 0
5, 224717, Note_on_c, 2, 69, 0
5, 224768, Note_on_c, 2, 78, 107
5, 224768, Note_on_c, 2, 78, 107
5, 224973, Note_on_c, 2, 78, 0
5, 224973, Note_on_c, 2, 78, 0
5, 225024, Note_on_c, 2, 74, 110
5, 225024, Note_on_c, 2, 74, 110
5, 225229, Note_on_c, 2, 74, 0
5, 225229, Note_on_c, 2, 74, 0
5, 225280, Note_on_c, 2, 76, 112
5, 225280, Note_on_c, 2, 76, 112
5, 225485, Note_on_c, 2, 76, 0
5, 225485, Note_on_c, 2, 76, 0
5, 225536, Note_on_c, 2, 73, 115
5, 225536, Note_on_c, 2, 73, 115
5, 225741, Note_on_c, 2, 73, 0
5, 225741, Note_on_c, 2, 73, 0
5, 225792, Note_on_c, 2, 74, 118
5, 225792, Note_on_c, 2, 74, 118
5, 226048, Note_on_c, 2, 74, 0
5, 226048, Note_on_c, 2, 74, 0
5, 226304, Note_on_c, 2, 76, 120
5, 226304, Note_on_c, 2, 76, 120
5, 226560, Note_on_c, 2, 76, 0
5, 226560, Note_on_c, 2, 76, 0
5, 226816, Note_on_c, 2, 73, 121
5, 226816, Note_on_c, 2, 73, 121
5, 227072, Note_on_c, 2, 73, 0
5, 227072, Note_on_c, 2, 73, 0
5, 227328, Note_on_c, 2, 74, 122
5, 227328, Note_on_c, 2, 74, 122
5, 228864, Note_on_c, 2, 74, 0
5, 228864, Note_on_c, 2, 74, 0
5, 230400, Control_c, 2, 121, 127
5, 230400, End_track
6, 0, Start_track
6, 0, Title_t, "Bassoon"
6, 0, Program_c, 14, 70
6, 0, Control_c, 14, 121, 127
6, 0, Control_c, 14, 91, 127
6, 0, Control_c, 14, 1, 5
6, 0, Control_c, 14, 10, 90
6, 0, Control_c, 14, 11, 90
6, 2048, Note_on_c, 14, 57, 88
6, 2253, Note_on_c, 14, 57, 0
6, 2304, Note_on_c, 14, 54, 88
6, 2509, Note_on_c, 14, 54, 0
6, 2560, Note_on_c, 14, 55, 88
6, 2765, Note_on_c, 14, 55, 0
6, 2816, Note_on_c, 14, 52, 88
6, 3021, Note_on_c, 14, 52, 0
6, 3072, Note_on_c, 14, 54, 88
6, 3328, Note_on_c, 14, 54, 0
6, 3584, Note_on_c, 14, 50, 88
6, 3840, Note_on_c, 14, 50, 0
6, 4096, Note_on_c, 14, 57, 76
6, 4352, Note_on_c, 14, 57, 0
6, 4608, Note_on_c, 14, 62, 77
6, 4864, Note_on_c, 14, 62, 0
6, 5120, Note_on_c, 14, 54, 78
6, 5376, Note_on_c, 14, 54, 0
6, 5632, Note_on_c, 14, 57, 78
6, 5888, Note_on_c, 14, 57, 0
6, 6144, Note_on_c, 14, 50, 79
6, 6400, Note_on_c, 14, 50, 0
6, 6656, Note_on_c, 14, 42, 80
6, 6912, Note_on_c, 14, 42, 0
6, 7168, Note_on_c, 14, 45, 81
6, 7424, Note_on_c, 14, 45, 0
6, 7680, Note_on_c, 14, 50, 82
6, 7936, Note_on_c, 14, 50, 0
6, 8192, Note_on_c, 14, 42, 82
6, 8448, Note_on_c, 14, 42, 0
6, 8704, Note_on_c, 14, 45, 83
6, 8960, Note_on_c, 14, 45, 0
6, 9216, Note_on_c, 14, 38, 84
6, 9472, Note_on_c, 14, 38, 0
6, 9728, Note_on_c, 14, 50, 85
6, 9933, Note_on_c, 14, 50, 0
6, 9984, Note_on_c, 14, 52, 85
6, 10189, Note_on_c, 14, 52, 0
6, 10240, Note_on_c, 14, 54, 86
6, 10445, Note_on_c, 14, 54, 0
6, 10496, Note_on_c, 14, 50, 86
6, 10701, Note_on_c, 14, 50, 0
6, 10752, Note_on_c, 14, 57, 86
6, 11008, Note_on_c, 14, 57, 0
6, 11264, Note_on_c, 14, 57, 89
6, 11520, Note_on_c, 14, 57, 0
6, 11776, Note_on_c, 14, 57, 91
6, 12032, Note_on_c, 14, 57, 0
6, 12288, Note_on_c, 14, 62, 93
6, 12544, Note_on_c, 14, 62, 0
6, 12800, Note_on_c, 14, 57, 96
6, 13005, Note_on_c, 14, 57, 0
6, 13056, Note_on_c, 14, 54, 97
6, 13261, Note_on_c, 14, 54, 0
6, 13312, Note_on_c, 14, 55, 98
6, 13517, Note_on_c, 14, 55, 0
6, 13568, Note_on_c, 14, 52, 99
6, 13773, Note_on_c, 14, 52, 0
6, 13824, Note_on_c, 14, 54, 100
6, 14080, Note_on_c, 14, 54, 0
6, 14336, Note_on_c, 14, 55, 103
6, 14592, Note_on_c, 14, 55, 0
6, 14848, Note_on_c, 14, 57, 105
6, 15104, Note_on_c, 14, 57, 0
6, 15360, Note_on_c, 14, 50, 107
6, 15616, Note_on_c, 14, 50, 0
6, 15872, Note_on_c, 14, 38, 93
6, 16077, Note_on_c, 14, 38, 0
6, 16128, Note_on_c, 14, 40, 76
6, 16333, Note_on_c, 14, 40, 0
6, 16384, Note_on_c, 14, 42, 46
6, 16589, Note_on_c, 14, 42, 0
6, 16640, Note_on_c, 14, 38, 46
6, 16845, Note_on_c, 14, 38, 0
6, 16896, Note_on_c, 14, 43, 46
6, 17152, Note_on_c, 14, 43, 0
6, 17408, Note_on_c, 14, 55, 46
6, 17613, Note_on_c, 14, 55, 0
6, 17664, Note_on_c, 14, 54, 46
6, 17869, Note_on_c, 14, 54, 0
6, 17920, Note_on_c, 14, 56, 46
6, 18125, Note_on_c, 14, 56, 0
6, 18176, Note_on_c, 14, 52, 46
6, 18381, Note_on_c, 14, 52, 0
6, 18432, Note_on_c, 14, 57, 46
6, 18688, Note_on_c, 14, 57, 0
6, 18944, Note_on_c, 14, 45, 46
6, 19149, Note_on_c, 14, 45, 0
6, 19200, Note_on_c, 14, 42, 46
6, 19405, Note_on_c, 14, 42, 0
6, 19456, Note_on_c, 14, 43, 90
6, 19661, Note_on_c, 14, 43, 0
6, 19712, Note_on_c, 14, 40, 91
6, 19917, Note_on_c, 14, 40, 0
6, 19968, Note_on_c, 14, 42, 91
6, 20224, Note_on_c, 14, 42, 0
6, 20480, Note_on_c, 14, 40, 93
6, 20736, Note_on_c, 14, 40, 0
6, 20992, Note_on_c, 14, 38, 94
6, 21248, Note_on_c, 14, 38, 0
6, 21504, Note_on_c, 14, 45, 95
6, 21760, Note_on_c, 14, 45, 0
6, 22016, Note_on_c, 14, 57, 89
6, 22221, Note_on_c, 14, 57, 0
6, 22272, Note_on_c, 14, 59, 57
6, 22477, Note_on_c, 14, 59, 0
6, 22528, Note_on_c, 14, 61, 34
6, 22733, Note_on_c, 14, 61, 0
6, 22784, Note_on_c, 14, 57, 34
6, 22989, Note_on_c, 14, 57, 0
6, 23040, Note_on_c, 14, 62, 35
6, 23296, Note_on_c, 14, 62, 0
6, 23552, Note_on_c, 14, 54, 37
6, 23808, Note_on_c, 14, 54, 0
6, 24064, Note_on_c, 14, 57, 39
6, 24320, Note_on_c, 14, 57, 0
6, 24576, Note_on_c, 14, 50, 41
6, 24832, Note_on_c, 14, 50, 0
6, 25088, Note_on_c, 14, 62, 43
6, 25344, Note_on_c, 14, 62, 0
6, 25600, Note_on_c, 14, 60, 45
6, 25856, Note_on_c, 14, 60, 0
6, 26112, Note_on_c, 14, 59, 47
6, 26368, Note_on_c, 14, 59, 0
6, 26624, Note_on_c, 14, 47, 49
6, 26880, Note_on_c, 14, 47, 0
6, 27136, Note_on_c, 14, 50, 51
6, 27392, Note_on_c, 14, 50, 0
6, 27648, Note_on_c, 14, 43, 53
6, 27904, Note_on_c, 14, 43, 0
6, 28160, Note_on_c, 14, 55, 55
6, 28416, Note_on_c, 14, 55, 0
6, 28672, Note_on_c, 14, 52, 57
6, 28928, Note_on_c, 14, 52, 0
6, 29184, Note_on_c, 14, 57, 59
6, 29440, Note_on_c, 14, 57, 0
6, 29696, Note_on_c, 14, 57, 61
6, 29952, Note_on_c, 14, 57, 0
6, 30208, Note_on_c, 14, 57, 63
6, 30464, Note_on_c, 14, 57, 0
6, 30720, Note_on_c, 14, 57, 65
6, 30976, Note_on_c, 14, 57, 0
6, 31232, Note_on_c, 14, 55, 67
6, 31488, Note_on_c, 14, 55, 0
6, 31744, Note_on_c, 14, 54, 69
6, 32000, Note_on_c, 14, 54, 0
6, 32256, Note_on_c, 14, 59, 71
6, 32512, Note_on_c, 14, 59, 0
6, 32768, Note_on_c, 14, 50, 73
6, 33024, Note_on_c, 14, 50, 0
6, 33280, Note_on_c, 14, 54, 75
6, 33536, Note_on_c, 14, 54, 0
6, 33792, Note_on_c, 14, 47, 77
6, 33997, Note_on_c, 14, 47, 0
6, 34048, Note_on_c, 14, 45, 78
6, 34253, Note_on_c, 14, 45, 0
6, 34304, Note_on_c, 14, 47, 79
6, 34509, Note_on_c, 14, 47, 0
6, 34560, Note_on_c, 14, 49, 80
6, 34765, Note_on_c, 14, 49, 0
6, 34816, Note_on_c, 14, 45, 81
6, 35021, Note_on_c, 14, 45, 0
6, 35072, Note_on_c, 14, 47, 82
6, 35277, Note_on_c, 14, 47, 0
6, 35328, Note_on_c, 14, 49, 83
6, 35533, Note_on_c, 14, 49, 0
6, 35584, Note_on_c, 14, 47, 84
6, 35789, Note_on_c, 14, 47, 0
6, 35840, Note_on_c, 14, 45, 85
6, 36045, Note_on_c, 14, 45, 0
6, 36096, Note_on_c, 14, 49, 86
6, 36301, Note_on_c, 14, 49, 0
6, 36352, Note_on_c, 14, 47, 90
6, 36557, Note_on_c, 14, 47, 0
6, 36608, Note_on_c, 14, 50, 90
6, 36813, Note_on_c, 14, 50, 0
6, 36864, Note_on_c, 14, 49, 91
6, 37069, Note_on_c, 14, 49, 0
6, 37120, Note_on_c, 14, 47, 91
6, 37325, Note_on_c, 14, 47, 0
6, 37376, Note_on_c, 14, 49, 92
6, 37581, Note_on_c, 14, 49, 0
6, 37632, Note_on_c, 14, 50, 93
6, 37837, Note_on_c, 14, 50, 0
6, 37888, Note_on_c, 14, 47, 93
6, 38093, Note_on_c, 14, 47, 0
6, 38144, Note_on_c, 14, 49, 94
6, 38349, Note_on_c, 14, 49, 0
6, 38400, Note_on_c, 14, 50, 95
6, 38656, Note_on_c, 14, 50, 0
6, 38912, Note_on_c, 14, 42, 96
6, 39168, Note_on_c, 14, 42, 0
6, 39424, Note_on_c, 14, 45, 97
6, 39680, Note_on_c, 14, 45, 0
6, 39936, Note_on_c, 14, 38, 99
6, 40141, Note_on_c, 14, 38, 0
6, 40192, Note_on_c, 14, 37, 99
6, 40397, Note_on_c, 14, 37, 0
6, 40448, Note_on_c, 14, 38, 100
6, 40653, Note_on_c, 14, 38, 0
6, 40704, Note_on_c, 14, 40, 101
6, 40909, Note_on_c, 14, 40, 0
6, 40960, Note_on_c, 14, 42, 101
6, 41165, Note_on_c, 14, 42, 0
6, 41216, Note_on_c, 14, 43, 102
6, 41421, Note_on_c, 14, 43, 0
6, 41472, Note_on_c, 14, 45, 103
6, 41677, Note_on_c, 14, 45, 0
6, 41728, Note_on_c, 14, 43, 103
6, 41933, Note_on_c, 14, 43, 0
6, 41984, Note_on_c, 14, 45, 104
6, 42189, Note_on_c, 14, 45, 0
6, 42240, Note_on_c, 14, 47, 104
6, 42445, Note_on_c, 14, 47, 0
6, 42496, Note_on_c, 14, 49, 105
6, 42701, Note_on_c, 14, 49, 0
6, 42752, Note_on_c, 14, 45, 106
6, 42957, Note_on_c, 14, 45, 0
6, 43008, Note_on_c, 14, 50, 106
6, 43264, Note_on_c, 14, 50, 0
6, 43520, Note_on_c, 14, 45, 86
6, 43776, Note_on_c, 14, 45, 0
6, 44032, Note_on_c, 14, 46, 48
6, 44288, Note_on_c, 14, 46, 0
6, 44544, Note_on_c, 14, 47, 48
6, 44800, Note_on_c, 14, 47, 0
6, 45056, Note_on_c, 14, 40, 48
6, 45312, Note_on_c, 14, 40, 0
6, 45568, Note_on_c, 14, 42, 48
6, 45824, Note_on_c, 14, 42, 0
6, 46080, Note_on_c, 14, 47, 44
6, 46285, Note_on_c, 14, 47, 0
6, 46336, Note_on_c, 14, 46, 45
6, 46541, Note_on_c, 14, 46, 0
6, 46592, Note_on_c, 14, 47, 61
6, 46797, Note_on_c, 14, 47, 0
6, 46848, Note_on_c, 14, 49, 77
6, 47053, Note_on_c, 14, 49, 0
6, 47104, Note_on_c, 14, 50, 94
6, 47309, Note_on_c, 14, 50, 0
6, 47360, Note_on_c, 14, 52, 101
6, 47565, Note_on_c, 14, 52, 0
6, 47616, Note_on_c, 14, 54, 106
6, 47821, Note_on_c, 14, 54, 0
6, 47872, Note_on_c, 14, 52, 106
6, 48077, Note_on_c, 14, 52, 0
6, 48128, Note_on_c, 14, 54, 106
6, 48333, Note_on_c, 14, 54, 0
6, 48384, Note_on_c, 14, 56, 106
6, 48589, Note_on_c, 14, 56, 0
6, 48640, Note_on_c, 14, 58, 105
6, 48845, Note_on_c, 14, 58, 0
6, 48896, Note_on_c, 14, 54, 105
6, 49101, Note_on_c, 14, 54, 0
6, 49152, Note_on_c, 14, 59, 105
6, 49408, Note_on_c, 14, 59, 0
6, 49664, Note_on_c, 14, 47, 75
6, 49920, Note_on_c, 14, 47, 0
6, 50176, Note_on_c, 14, 47, 46
6, 50432, Note_on_c, 14, 47, 0
6, 50688, Note_on_c, 14, 47, 46
6, 50944, Note_on_c, 14, 47, 0
6, 51200, Note_on_c, 14, 45, 46
6, 51456, Note_on_c, 14, 45, 0
6, 51712, Note_on_c, 14, 38, 47
6, 51968, Note_on_c, 14, 38, 0
6, 52224, Note_on_c, 14, 43, 47
6, 52429, Note_on_c, 14, 43, 0
6, 52480, Note_on_c, 14, 42, 53
6, 52685, Note_on_c, 14, 42, 0
6, 52736, Note_on_c, 14, 43, 61
6, 52941, Note_on_c, 14, 43, 0
6, 52992, Note_on_c, 14, 45, 69
6, 53197, Note_on_c, 14, 45, 0
6, 53248, Note_on_c, 14, 47, 77
6, 53453, Note_on_c, 14, 47, 0
6, 53504, Note_on_c, 14, 48, 83
6, 53709, Note_on_c, 14, 48, 0
6, 53760, Note_on_c, 14, 50, 88
6, 53965, Note_on_c, 14, 50, 0
6, 54016, Note_on_c, 14, 48, 90
6, 54221, Note_on_c, 14, 48, 0
6, 54272, Note_on_c, 14, 50, 90
6, 54477, Note_on_c, 14, 50, 0
6, 54528, Note_on_c, 14, 52, 90
6, 54733, Note_on_c, 14, 52, 0
6, 54784, Note_on_c, 14, 54, 90
6, 54989, Note_on_c, 14, 54, 0
6, 55040, Note_on_c, 14, 50, 90
6, 55245, Note_on_c, 14, 50, 0
6, 55296, Note_on_c, 14, 55, 90
6, 55552, Note_on_c, 14, 55, 0
6, 55808, Note_on_c, 14, 50, 78
6, 56064, Note_on_c, 14, 50, 0
6, 56320, Note_on_c, 14, 51, 40
6, 56576, Note_on_c, 14, 51, 0
6, 56832, Note_on_c, 14, 52, 40
6, 57088, Note_on_c, 14, 52, 0
6, 57344, Note_on_c, 14, 45, 40
6, 57600, Note_on_c, 14, 45, 0
6, 57856, Note_on_c, 14, 47, 40
6, 58112, Note_on_c, 14, 47, 0
6, 58368, Note_on_c, 14, 52, 40
6, 58573, Note_on_c, 14, 52, 0
6, 58624, Note_on_c, 14, 54, 40
6, 58829, Note_on_c, 14, 54, 0
6, 58880, Note_on_c, 14, 52, 40
6, 59085, Note_on_c, 14, 52, 0
6, 59136, Note_on_c, 14, 50, 40
6, 59341, Note_on_c, 14, 50, 0
6, 59392, Note_on_c, 14, 49, 40
6, 59597, Note_on_c, 14, 49, 0
6, 59648, Note_on_c, 14, 47, 40
6, 59853, Note_on_c, 14, 47, 0
6, 59904, Note_on_c, 14, 45, 40
6, 60160, Note_on_c, 14, 45, 0
6, 60416, Note_on_c, 14, 49, 40
6, 60672, Note_on_c, 14, 49, 0
6, 60928, Note_on_c, 14, 52, 40
6, 61184, Note_on_c, 14, 52, 0
6, 61440, Note_on_c, 14, 57, 40
6, 61696, Note_on_c, 14, 57, 0
6, 61952, Note_on_c, 14, 45, 40
6, 62208, Note_on_c, 14, 45, 0
6, 62464, Note_on_c, 14, 43, 40
6, 62720, Note_on_c, 14, 43, 0
6, 62976, Note_on_c, 14, 42, 40
6, 63232, Note_on_c, 14, 42, 0
6, 63488, Note_on_c, 14, 54, 40
6, 63744, Note_on_c, 14, 54, 0
6, 64000, Note_on_c, 14, 57, 40
6, 64256, Note_on_c, 14, 57, 0
6, 64512, Note_on_c, 14, 62, 40
6, 64768, Note_on_c, 14, 62, 0
6, 65024, Note_on_c, 14, 50, 40
6, 65280, Note_on_c, 14, 50, 0
6, 65536, Note_on_c, 14, 47, 43
6, 65792, Note_on_c, 14, 47, 0
6, 66048, Note_on_c, 14, 52, 45
6, 66304, Note_on_c, 14, 52, 0
6, 66560, Note_on_c, 14, 52, 47
6, 66816, Note_on_c, 14, 52, 0
6, 67072, Note_on_c, 14, 52, 50
6, 67328, Note_on_c, 14, 52, 0
6, 67584, Note_on_c, 14, 52, 52
6, 67840, Note_on_c, 14, 52, 0
6, 68096, Note_on_c, 14, 50, 54
6, 68352, Note_on_c, 14, 50, 0
6, 68608, Note_on_c, 14, 49, 57
6, 68864, Note_on_c, 14, 49, 0
6, 69120, Note_on_c, 14, 54, 59
6, 69376, Note_on_c, 14, 54, 0
6, 69632, Note_on_c, 14, 45, 61
6, 69888, Note_on_c, 14, 45, 0
6, 70144, Note_on_c, 14, 49, 64
6, 70400, Note_on_c, 14, 49, 0
6, 70656, Note_on_c, 14, 54, 66
6, 70861, Note_on_c, 14, 54, 0
6, 70912, Note_on_c, 14, 52, 67
6, 71117, Note_on_c, 14, 52, 0
6, 71168, Note_on_c, 14, 54, 68
6, 71373, Note_on_c, 14, 54, 0
6, 71424, Note_on_c, 14, 56, 69
6, 71629, Note_on_c, 14, 56, 0
6, 71680, Note_on_c, 14, 52, 71
6, 71885, Note_on_c, 14, 52, 0
6, 71936, Note_on_c, 14, 54, 72
6, 72141, Note_on_c, 14, 54, 0
6, 72192, Note_on_c, 14, 56, 73
6, 72397, Note_on_c, 14, 56, 0
6, 72448, Note_on_c, 14, 54, 74
6, 72653, Note_on_c, 14, 54, 0
6, 72704, Note_on_c, 14, 52, 75
6, 72909, Note_on_c, 14, 52, 0
6, 72960, Note_on_c, 14, 56, 76
6, 73165, Note_on_c, 14, 56, 0
6, 73216, Note_on_c, 14, 54, 78
6, 73421, Note_on_c, 14, 54, 0
6, 73472, Note_on_c, 14, 57, 79
6, 73677, Note_on_c, 14, 57, 0
6, 73728, Note_on_c, 14, 56, 80
6, 73933, Note_on_c, 14, 56, 0
6, 73984, Note_on_c, 14, 54, 81
6, 74189, Note_on_c, 14, 54, 0
6, 74240, Note_on_c, 14, 56, 82
6, 74445, Note_on_c, 14, 56, 0
6, 74496, Note_on_c, 14, 57, 83
6, 74701, Note_on_c, 14, 57, 0
6, 74752, Note_on_c, 14, 54, 85
6, 74957, Note_on_c, 14, 54, 0
6, 75008, Note_on_c, 14, 56, 86
6, 75213, Note_on_c, 14, 56, 0
6, 75264, Note_on_c, 14, 57, 87
6, 75520, Note_on_c, 14, 57, 0
6, 75776, Note_on_c, 14, 49, 89
6, 76032, Note_on_c, 14, 49, 0
6, 76288, Note_on_c, 14, 52, 92
6, 76544, Note_on_c, 14, 52, 0
6, 76800, Note_on_c, 14, 45, 94
6, 77005, Note_on_c, 14, 45, 0
6, 77056, Note_on_c, 14, 44, 95
6, 77261, Note_on_c, 14, 44, 0
6, 77312, Note_on_c, 14, 45, 96
6, 77517, Note_on_c, 14, 45, 0
6, 77568, Note_on_c, 14, 47, 97
6, 77773, Note_on_c, 14, 47, 0
6, 77824, Note_on_c, 14, 49, 99
6, 78029, Note_on_c, 14, 49, 0
6, 78080, Note_on_c, 14, 50, 100
6, 78285, Note_on_c, 14, 50, 0
6, 78336, Note_on_c, 14, 52, 100
6, 78541, Note_on_c, 14, 52, 0
6, 78592, Note_on_c, 14, 50, 100
6, 78797, Note_on_c, 14, 50, 0
6, 78848, Note_on_c, 14, 52, 100
6, 79053, Note_on_c, 14, 52, 0
6, 79104, Note_on_c, 14, 54, 100
6, 79309, Note_on_c, 14, 54, 0
6, 79360, Note_on_c, 14, 56, 100
6, 79565, Note_on_c, 14, 56, 0
6, 79616, Note_on_c, 14, 52, 100
6, 79821, Note_on_c, 14, 52, 0
6, 79872, Note_on_c, 14, 57, 100
6, 80128, Note_on_c, 14, 57, 0
6, 80384, Note_on_c, 14, 52, 90
6, 80640, Note_on_c, 14, 52, 0
6, 80896, Note_on_c, 14, 53, 44
6, 81152, Note_on_c, 14, 53, 0
6, 81408, Note_on_c, 14, 54, 44
6, 81664, Note_on_c, 14, 54, 0
6, 81920, Note_on_c, 14, 47, 45
6, 82176, Note_on_c, 14, 47, 0
6, 82432, Note_on_c, 14, 49, 46
6, 82688, Note_on_c, 14, 49, 0
6, 82944, Note_on_c, 14, 42, 47
6, 83149, Note_on_c, 14, 42, 0
6, 83200, Note_on_c, 14, 41, 60
6, 83405, Note_on_c, 14, 41, 0
6, 83456, Note_on_c, 14, 42, 74
6, 83661, Note_on_c, 14, 42, 0
6, 83712, Note_on_c, 14, 44, 88
6, 83917, Note_on_c, 14, 44, 0
6, 83968, Note_on_c, 14, 45, 101
6, 84173, Note_on_c, 14, 45, 0
6, 84224, Note_on_c, 14, 47, 108
6, 84429, Note_on_c, 14, 47, 0
6, 84480, Note_on_c, 14, 49, 109
6, 84685, Note_on_c, 14, 49, 0
6, 84736, Note_on_c, 14, 47, 103
6, 84941, Note_on_c, 14, 47, 0
6, 84992, Note_on_c, 14, 49, 104
6, 85197, Note_on_c, 14, 49, 0
6, 85248, Note_on_c, 14, 51, 105
6, 85453, Note_on_c, 14, 51, 0
6, 85504, Note_on_c, 14, 53, 107
6, 85709, Note_on_c, 14, 53, 0
6, 85760, Note_on_c, 14, 49, 108
6, 85965, Note_on_c, 14, 49, 0
6, 86016, Note_on_c, 14, 54, 103
6, 86272, Note_on_c, 14, 54, 0
6, 86528, Note_on_c, 14, 42, 82
6, 86784, Note_on_c, 14, 42, 0
6, 87040, Note_on_c, 14, 54, 45
6, 87808, Note_on_c, 14, 54, 0
6, 88064, Note_on_c, 14, 52, 54
6, 88320, Note_on_c, 14, 52, 0
6, 88576, Note_on_c, 14, 45, 60
6, 88832, Note_on_c, 14, 45, 0
6, 89088, Note_on_c, 14, 50, 66
6, 89293, Note_on_c, 14, 50, 0
6, 89344, Note_on_c, 14, 49, 75
6, 89549, Note_on_c, 14, 49, 0
6, 89600, Note_on_c, 14, 50, 85
6, 89805, Note_on_c, 14, 50, 0
6, 89856, Note_on_c, 14, 52, 94
6, 90061, Note_on_c, 14, 52, 0
6, 90112, Note_on_c, 14, 54, 104
6, 90317, Note_on_c, 14, 54, 0
6, 90368, Note_on_c, 14, 55, 106
6, 90573, Note_on_c, 14, 55, 0
6, 90624, Note_on_c, 14, 57, 107
6, 90829, Note_on_c, 14, 57, 0
6, 90880, Note_on_c, 14, 55, 108
6, 91085, Note_on_c, 14, 55, 0
6, 91136, Note_on_c, 14, 57, 109
6, 91341, Note_on_c, 14, 57, 0
6, 91392, Note_on_c, 14, 59, 110
6, 91597, Note_on_c, 14, 59, 0
6, 91648, Note_on_c, 14, 61, 111
6, 91853, Note_on_c, 14, 61, 0
6, 91904, Note_on_c, 14, 57, 112
6, 92109, Note_on_c, 14, 57, 0
6, 92160, Note_on_c, 14, 62, 113
6, 92416, Note_on_c, 14, 62, 0
6, 92672, Note_on_c, 14, 57, 96
6, 92928, Note_on_c, 14, 57, 0
6, 93184, Note_on_c, 14, 58, 49
6, 93440, Note_on_c, 14, 58, 0
6, 93696, Note_on_c, 14, 59, 41
6, 93952, Note_on_c, 14, 59, 0
6, 94208, Note_on_c, 14, 52, 41
6, 94464, Note_on_c, 14, 52, 0
6, 94720, Note_on_c, 14, 54, 41
6, 94976, Note_on_c, 14, 54, 0
6, 95232, Note_on_c, 14, 47, 41
6, 95437, Note_on_c, 14, 47, 0
6, 95488, Note_on_c, 14, 46, 41
6, 95693, Note_on_c, 14, 46, 0
6, 95744, Note_on_c, 14, 47, 41
6, 95949, Note_on_c, 14, 47, 0
6, 96000, Note_on_c, 14, 49, 41
6, 96205, Note_on_c, 14, 49, 0
6, 96256, Note_on_c, 14, 50, 41
6, 96461, Note_on_c, 14, 50, 0
6, 96512, Note_on_c, 14, 47, 41
6, 96717, Note_on_c, 14, 47, 0
6, 96768, Note_on_c, 14, 52, 41
6, 97024, Note_on_c, 14, 52, 0
6, 97280, Note_on_c, 14, 55, 41
6, 97536, Note_on_c, 14, 55, 0
6, 97792, Note_on_c, 14, 59, 41
6, 98048, Note_on_c, 14, 59, 0
6, 98304, Note_on_c, 14, 52, 41
6, 98560, Note_on_c, 14, 52, 0
6, 98816, Note_on_c, 14, 55, 41
6, 99072, Note_on_c, 14, 55, 0
6, 99328, Note_on_c, 14, 52, 41
6, 99584, Note_on_c, 14, 52, 0
6, 99840, Note_on_c, 14, 57, 41
6, 100096, Note_on_c, 14, 57, 0
6, 100352, Note_on_c, 14, 49, 41
6, 100608, Note_on_c, 14, 49, 0
6, 100864, Note_on_c, 14, 52, 41
6, 101120, Note_on_c, 14, 52, 0
6, 101376, Note_on_c, 14, 45, 41
6, 101632, Note_on_c, 14, 45, 0
6, 101888, Note_on_c, 14, 49, 41
6, 102144, Note_on_c, 14, 49, 0
6, 102400, Note_on_c, 14, 45, 41
6, 102656, Note_on_c, 14, 45, 0
6, 102912, Note_on_c, 14, 50, 41
6, 103168, Note_on_c, 14, 50, 0
6, 103424, Note_on_c, 14, 54, 41
6, 103680, Note_on_c, 14, 54, 0
6, 103936, Note_on_c, 14, 57, 41
6, 104192, Note_on_c, 14, 57, 0
6, 104448, Note_on_c, 14, 50, 41
6, 104704, Note_on_c, 14, 50, 0
6, 104960, Note_on_c, 14, 54, 41
6, 105216, Note_on_c, 14, 54, 0
6, 105472, Note_on_c, 14, 50, 41
6, 105728, Note_on_c, 14, 50, 0
6, 105984, Note_on_c, 14, 55, 41
6, 106240, Note_on_c, 14, 55, 0
6, 106496, Note_on_c, 14, 47, 41
6, 106752, Note_on_c, 14, 47, 0
6, 107008, Note_on_c, 14, 50, 41
6, 107264, Note_on_c, 14, 50, 0
6, 107520, Note_on_c, 14, 43, 41
6, 107776, Note_on_c, 14, 43, 0
6, 108032, Note_on_c, 14, 47, 41
6, 108288, Note_on_c, 14, 47, 0
6, 108544, Note_on_c, 14, 43, 41
6, 108800, Note_on_c, 14, 43, 0
6, 109056, Note_on_c, 14, 49, 41
6, 109312, Note_on_c, 14, 49, 0
6, 109568, Note_on_c, 14, 52, 41
6, 109824, Note_on_c, 14, 52, 0
6, 110080, Note_on_c, 14, 55, 41
6, 110336, Note_on_c, 14, 55, 0
6, 110592, Note_on_c, 14, 49, 41
6, 110848, Note_on_c, 14, 49, 0
6, 111104, Note_on_c, 14, 52, 41
6, 111360, Note_on_c, 14, 52, 0
6, 111616, Note_on_c, 14, 49, 41
6, 111872, Note_on_c, 14, 49, 0
6, 112128, Note_on_c, 14, 42, 41
6, 112384, Note_on_c, 14, 42, 0
6, 112640, Note_on_c, 14, 46, 41
6, 112896, Note_on_c, 14, 46, 0
6, 113152, Note_on_c, 14, 49, 41
6, 113408, Note_on_c, 14, 49, 0
6, 113664, Note_on_c, 14, 42, 41
6, 113920, Note_on_c, 14, 42, 0
6, 114176, Note_on_c, 14, 46, 41
6, 114432, Note_on_c, 14, 46, 0
6, 114688, Note_on_c, 14, 42, 41
6, 114944, Note_on_c, 14, 42, 0
6, 115200, Note_on_c, 14, 47, 44
6, 115456, Note_on_c, 14, 47, 0
6, 115712, Note_on_c, 14, 50, 48
6, 115968, Note_on_c, 14, 50, 0
6, 116224, Note_on_c, 14, 54, 51
6, 116480, Note_on_c, 14, 54, 0
6, 116736, Note_on_c, 14, 47, 54
6, 116992, Note_on_c, 14, 47, 0
6, 117248, Note_on_c, 14, 50, 58
6, 117504, Note_on_c, 14, 50, 0
6, 117760, Note_on_c, 14, 47, 61
6, 118016, Note_on_c, 14, 47, 0
6, 118272, Note_on_c, 14, 52, 65
6, 118528, Note_on_c, 14, 52, 0
6, 118784, Note_on_c, 14, 44, 68
6, 119040, Note_on_c, 14, 44, 0
6, 119296, Note_on_c, 14, 47, 72
6, 119552, Note_on_c, 14, 47, 0
6, 119808, Note_on_c, 14, 40, 75
6, 120064, Note_on_c, 14, 40, 0
6, 120320, Note_on_c, 14, 44, 78
6, 120576, Note_on_c, 14, 44, 0
6, 120832, Note_on_c, 14, 40, 82
6, 121088, Note_on_c, 14, 40, 0
6, 121344, Note_on_c, 14, 45, 85
6, 123136, Note_on_c, 14, 45, 0
6, 123392, Note_on_c, 14, 57, 99
6, 123597, Note_on_c, 14, 57, 0
6, 123648, Note_on_c, 14, 55, 101
6, 123853, Note_on_c, 14, 55, 0
6, 123904, Note_on_c, 14, 54, 98
6, 124109, Note_on_c, 14, 54, 0
6, 124160, Note_on_c, 14, 52, 99
6, 124365, Note_on_c, 14, 52, 0
6, 124416, Note_on_c, 14, 50, 97
6, 126208, Note_on_c, 14, 50, 0
6, 126464, Note_on_c, 14, 54, 108
6, 126720, Note_on_c, 14, 54, 0
6, 126976, Note_on_c, 14, 57, 103
6, 127232, Note_on_c, 14, 57, 0
6, 127488, Note_on_c, 14, 49, 98
6, 128512, Note_on_c, 14, 49, 0
6, 128512, Note_on_c, 14, 50, 108
6, 129280, Note_on_c, 14, 50, 0
6, 129536, Note_on_c, 14, 49, 111
6, 129792, Note_on_c, 14, 49, 0
6, 130048, Note_on_c, 14, 57, 105
6, 130304, Note_on_c, 14, 57, 0
6, 130560, Note_on_c, 14, 62, 99
6, 130816, Note_on_c, 14, 62, 0
6, 131072, Note_on_c, 14, 57, 99
6, 131277, Note_on_c, 14, 57, 0
6, 131328, Note_on_c, 14, 54, 100
6, 131533, Note_on_c, 14, 54, 0
6, 131584, Note_on_c, 14, 55, 101
6, 131789, Note_on_c, 14, 55, 0
6, 131840, Note_on_c, 14, 52, 101
6, 132045, Note_on_c, 14, 52, 0
6, 132096, Note_on_c, 14, 54, 102
6, 132352, Note_on_c, 14, 54, 0
6, 132608, Note_on_c, 14, 50, 104
6, 132864, Note_on_c, 14, 50, 0
6, 133120, Note_on_c, 14, 57, 105
6, 133376, Note_on_c, 14, 57, 0
6, 133632, Note_on_c, 14, 60, 107
6, 133888, Note_on_c, 14, 60, 0
6, 134144, Note_on_c, 14, 54, 108
6, 134349, Note_on_c, 14, 54, 0
6, 134400, Note_on_c, 14, 51, 109
6, 134605, Note_on_c, 14, 51, 0
6, 134656, Note_on_c, 14, 52, 110
6, 134861, Note_on_c, 14, 52, 0
6, 134912, Note_on_c, 14, 49, 110
6, 135117, Note_on_c, 14, 49, 0
6, 135168, Note_on_c, 14, 51, 111
6, 135424, Note_on_c, 14, 51, 0
6, 135680, Note_on_c, 14, 63, 108
6, 135936, Note_on_c, 14, 63, 0
6, 136192, Note_on_c, 14, 59, 103
6, 136448, Note_on_c, 14, 59, 0
6, 136704, Note_on_c, 14, 64, 93
6, 136960, Note_on_c, 14, 64, 0
6, 137216, Note_on_c, 14, 59, 94
6, 137421, Note_on_c, 14, 59, 0
6, 137472, Note_on_c, 14, 55, 95
6, 137677, Note_on_c, 14, 55, 0
6, 137728, Note_on_c, 14, 57, 96
6, 137933, Note_on_c, 14, 57, 0
6, 137984, Note_on_c, 14, 54, 96
6, 138189, Note_on_c, 14, 54, 0
6, 138240, Note_on_c, 14, 55, 97
6, 138496, Note_on_c, 14, 55, 0
6, 138752, Note_on_c, 14, 52, 99
6, 139008, Note_on_c, 14, 52, 0
6, 139264, Note_on_c, 14, 55, 100
6, 139520, Note_on_c, 14, 55, 0
6, 139776, Note_on_c, 14, 57, 102
6, 140032, Note_on_c, 14, 57, 0
6, 140288, Note_on_c, 14, 52, 103
6, 140493, Note_on_c, 14, 52, 0
6, 140544, Note_on_c, 14, 49, 104
6, 140749, Note_on_c, 14, 49, 0
6, 140800, Note_on_c, 14, 50, 104
6, 141005, Note_on_c, 14, 50, 0
6, 141056, Note_on_c, 14, 47, 105
6, 141261, Note_on_c, 14, 47, 0
6, 141312, Note_on_c, 14, 49, 106
6, 141568, Note_on_c, 14, 49, 0
6, 141824, Note_on_c, 14, 45, 107
6, 142080, Note_on_c, 14, 45, 0
6, 142336, Note_on_c, 14, 49, 109
6, 142592, Note_on_c, 14, 49, 0
6, 142848, Note_on_c, 14, 50, 110
6, 143104, Note_on_c, 14, 50, 0
6, 143360, Note_on_c, 14, 62, 111
6, 143616, Note_on_c, 14, 62, 0
6, 143872, Note_on_c, 14, 61, 109
6, 144128, Note_on_c, 14, 61, 0
6, 144384, Note_on_c, 14, 59, 106
6, 144640, Note_on_c, 14, 59, 0
6, 144896, Note_on_c, 14, 47, 103
6, 145152, Note_on_c, 14, 47, 0
6, 145408, Note_on_c, 14, 45, 106
6, 145664, Note_on_c, 14, 45, 0
6, 145920, Note_on_c, 14, 43, 109
6, 146176, Note_on_c, 14, 43, 0
6, 146432, Note_on_c, 14, 55, 111
6, 146688, Note_on_c, 14, 55, 0
6, 146944, Note_on_c, 14, 54, 114
6, 147200, Note_on_c, 14, 54, 0
6, 147456, Note_on_c, 14, 52, 117
6, 147712, Note_on_c, 14, 52, 0
6, 147968, Note_on_c, 14, 40, 117
6, 148224, Note_on_c, 14, 40, 0
6, 148480, Note_on_c, 14, 38, 114
6, 148736, Note_on_c, 14, 38, 0
6, 148992, Note_on_c, 14, 37, 110
6, 149248, Note_on_c, 14, 37, 0
6, 149504, Note_on_c, 14, 49, 107
6, 149760, Note_on_c, 14, 49, 0
6, 150016, Note_on_c, 14, 47, 103
6, 150272, Note_on_c, 14, 47, 0
6, 150528, Note_on_c, 14, 45, 96
6, 150784, Note_on_c, 14, 45, 0
6, 151040, Note_on_c, 14, 57, 99
6, 151296, Note_on_c, 14, 57, 0
6, 151552, Note_on_c, 14, 55, 101
6, 151808, Note_on_c, 14, 55, 0
6, 152064, Note_on_c, 14, 54, 103
6, 152320, Note_on_c, 14, 54, 0
6, 152576, Note_on_c, 14, 42, 106
6, 152832, Note_on_c, 14, 42, 0
6, 153088, Note_on_c, 14, 40, 108
6, 153344, Note_on_c, 14, 40, 0
6, 153600, Note_on_c, 14, 38, 111
6, 153856, Note_on_c, 14, 38, 0
6, 154112, Note_on_c, 14, 54, 103
6, 154368, Note_on_c, 14, 54, 0
6, 154624, Note_on_c, 14, 50, 94
6, 154880, Note_on_c, 14, 50, 0
6, 155136, Note_on_c, 14, 43, 96
6, 155392, Note_on_c, 14, 43, 0
6, 155648, Note_on_c, 14, 55, 99
6, 155904, Note_on_c, 14, 55, 0
6, 156160, Note_on_c, 14, 52, 102
6, 156416, Note_on_c, 14, 52, 0
6, 156672, Note_on_c, 14, 45, 105
6, 156928, Note_on_c, 14, 45, 0
6, 157184, Note_on_c, 14, 57, 107
6, 157440, Note_on_c, 14, 57, 0
6, 157696, Note_on_c, 14, 54, 110
6, 157952, Note_on_c, 14, 54, 0
6, 158208, Note_on_c, 14, 47, 113
6, 158464, Note_on_c, 14, 47, 0
6, 158720, Note_on_c, 14, 43, 116
6, 158976, Note_on_c, 14, 43, 0
6, 159232, Note_on_c, 14, 45, 118
6, 159488, Note_on_c, 14, 45, 0
6, 159744, Note_on_c, 14, 38, 121
6, 160000, Note_on_c, 14, 38, 0
6, 160256, Note_on_c, 14, 50, 89
6, 160461, Note_on_c, 14, 50, 0
6, 160512, Note_on_c, 14, 52, 62
6, 160717, Note_on_c, 14, 52, 0
6, 160768, Note_on_c, 14, 54, 45
6, 160973, Note_on_c, 14, 54, 0
6, 161024, Note_on_c, 14, 50, 45
6, 161229, Note_on_c, 14, 50, 0
6, 161280, Note_on_c, 14, 57, 46
6, 161536, Note_on_c, 14, 57, 0
6, 162304, Note_on_c, 14, 45, 48
6, 162560, Note_on_c, 14, 45, 0
6, 162816, Note_on_c, 14, 47, 50
6, 163072, Note_on_c, 14, 47, 0
6, 163840, Note_on_c, 14, 59, 52
6, 164096, Note_on_c, 14, 59, 0
6, 164352, Note_on_c, 14, 55, 54
6, 164608, Note_on_c, 14, 55, 0
6, 165376, Note_on_c, 14, 52, 56
6, 165632, Note_on_c, 14, 52, 0
6, 165888, Note_on_c, 14, 49, 57
6, 166144, Note_on_c, 14, 49, 0
6, 166400, Note_on_c, 14, 45, 79
6, 166656, Note_on_c, 14, 45, 0
6, 166912, Note_on_c, 14, 50, 100
6, 167168, Note_on_c, 14, 50, 0
6, 167424, Note_on_c, 14, 57, 102
6, 167680, Note_on_c, 14, 57, 0
6, 167936, Note_on_c, 14, 57, 104
6, 168192, Note_on_c, 14, 57, 0
6, 168448, Note_on_c, 14, 57, 105
6, 168704, Note_on_c, 14, 57, 0
6, 168960, Note_on_c, 14, 62, 107
6, 169216, Note_on_c, 14, 62, 0
6, 169472, Note_on_c, 14, 57, 109
6, 169677, Note_on_c, 14, 57, 0
6, 169728, Note_on_c, 14, 54, 110
6, 169933, Note_on_c, 14, 54, 0
6, 169984, Note_on_c, 14, 55, 111
6, 170189, Note_on_c, 14, 55, 0
6, 170240, Note_on_c, 14, 52, 112
6, 170445, Note_on_c, 14, 52, 0
6, 170496, Note_on_c, 14, 54, 113
6, 170752, Note_on_c, 14, 54, 0
6, 171008, Note_on_c, 14, 55, 114
6, 171264, Note_on_c, 14, 55, 0
6, 171520, Note_on_c, 14, 57, 116
6, 171776, Note_on_c, 14, 57, 0
6, 172032, Note_on_c, 14, 50, 118
6, 172288, Note_on_c, 14, 50, 0
6, 172544, Note_on_c, 14, 38, 84
6, 172749, Note_on_c, 14, 38, 0
6, 172800, Note_on_c, 14, 40, 51
6, 173005, Note_on_c, 14, 40, 0
6, 173056, Note_on_c, 14, 42, 52
6, 173261, Note_on_c, 14, 42, 0
6, 173312, Note_on_c, 14, 38, 54
6, 173517, Note_on_c, 14, 38, 0
6, 173568, Note_on_c, 14, 43, 56
6, 173824, Note_on_c, 14, 43, 0
6, 174080, Note_on_c, 14, 55, 59
6, 174285, Note_on_c, 14, 55, 0
6, 174336, Note_on_c, 14, 54, 61
6, 174541, Note_on_c, 14, 54, 0
6, 174592, Note_on_c, 14, 56, 63
6, 174797, Note_on_c, 14, 56, 0
6, 174848, Note_on_c, 14, 52, 64
6, 175053, Note_on_c, 14, 52, 0
6, 175104, Note_on_c, 14, 57, 66
6, 175360, Note_on_c, 14, 57, 0
6, 175616, Note_on_c, 14, 45, 70
6, 175821, Note_on_c, 14, 45, 0
6, 175872, Note_on_c, 14, 47, 98
6, 176077, Note_on_c, 14, 47, 0
6, 176128, Note_on_c, 14, 49, 101
6, 176333, Note_on_c, 14, 49, 0
6, 176384, Note_on_c, 14, 45, 104
6, 176589, Note_on_c, 14, 45, 0
6, 176640, Note_on_c, 14, 50, 109
6, 176896, Note_on_c, 14, 50, 0
6, 177152, Note_on_c, 14, 42, 113
6, 177408, Note_on_c, 14, 42, 0
6, 177664, Note_on_c, 14, 45, 117
6, 177920, Note_on_c, 14, 45, 0
6, 178176, Note_on_c, 14, 38, 121
6, 179115, Note_on_c, 14, 38, 0
6, 179200, Note_on_c, 14, 50, 96
6, 179456, Note_on_c, 14, 50, 0
6, 179712, Note_on_c, 14, 57, 103
6, 179968, Note_on_c, 14, 57, 0
6, 180224, Note_on_c, 14, 57, 94
6, 180480, Note_on_c, 14, 57, 0
6, 180736, Note_on_c, 14, 57, 99
6, 180992, Note_on_c, 14, 57, 0
6, 181248, Note_on_c, 14, 62, 103
6, 181504, Note_on_c, 14, 62, 0
6, 181760, Note_on_c, 14, 57, 93
6, 181965, Note_on_c, 14, 57, 0
6, 182016, Note_on_c, 14, 54, 93
6, 182221, Note_on_c, 14, 54, 0
6, 182272, Note_on_c, 14, 55, 94
6, 182477, Note_on_c, 14, 55, 0
6, 182528, Note_on_c, 14, 52, 94
6, 182733, Note_on_c, 14, 52, 0
6, 182784, Note_on_c, 14, 54, 107
6, 183040, Note_on_c, 14, 54, 0
6, 183296, Note_on_c, 14, 54, 93
6, 183552, Note_on_c, 14, 54, 0
6, 183808, Note_on_c, 14, 54, 98
6, 184064, Note_on_c, 14, 54, 0
6, 184320, Note_on_c, 14, 57, 104
6, 184576, Note_on_c, 14, 57, 0
6, 184832, Note_on_c, 14, 54, 95
6, 185037, Note_on_c, 14, 54, 0
6, 185088, Note_on_c, 14, 50, 95
6, 185293, Note_on_c, 14, 50, 0
6, 185344, Note_on_c, 14, 52, 96
6, 185549, Note_on_c, 14, 52, 0
6, 185600, Note_on_c, 14, 49, 96
6, 185805, Note_on_c, 14, 49, 0
6, 185856, Note_on_c, 14, 50, 96
6, 186112, Note_on_c, 14, 50, 0
6, 186368, Note_on_c, 14, 50, 97
6, 186624, Note_on_c, 14, 50, 0
6, 186880, Note_on_c, 14, 50, 98
6, 187136, Note_on_c, 14, 50, 0
6, 187392, Note_on_c, 14, 50, 99
6, 187597, Note_on_c, 14, 50, 0
6, 187648, Note_on_c, 14, 54, 99
6, 187853, Note_on_c, 14, 54, 0
6, 187904, Note_on_c, 14, 52, 99
6, 188109, Note_on_c, 14, 52, 0
6, 188160, Note_on_c, 14, 49, 100
6, 188365, Note_on_c, 14, 49, 0
6, 188416, Note_on_c, 14, 50, 100
6, 188621, Note_on_c, 14, 50, 0
6, 188672, Note_on_c, 14, 52, 101
6, 188877, Note_on_c, 14, 52, 0
6, 188928, Note_on_c, 14, 54, 101
6, 189133, Note_on_c, 14, 54, 0
6, 189184, Note_on_c, 14, 57, 101
6, 189389, Note_on_c, 14, 57, 0
6, 189440, Note_on_c, 14, 55, 102
6, 189645, Note_on_c, 14, 55, 0
6, 189696, Note_on_c, 14, 52, 102
6, 189901, Note_on_c, 14, 52, 0
6, 189952, Note_on_c, 14, 54, 103
6, 190157, Note_on_c, 14, 54, 0
6, 190208, Note_on_c, 14, 50, 103
6, 190413, Note_on_c, 14, 50, 0
6, 190464, Note_on_c, 14, 45, 103
6, 190720, Note_on_c, 14, 45, 0
6, 197632, Note_on_c, 14, 50, 105
6, 197888, Note_on_c, 14, 50, 0
6, 198144, Note_on_c, 14, 62, 108
6, 198400, Note_on_c, 14, 62, 0
6, 198656, Note_on_c, 14, 57, 108
6, 198861, Note_on_c, 14, 57, 0
6, 198912, Note_on_c, 14, 54, 109
6, 199117, Note_on_c, 14, 54, 0
6, 199168, Note_on_c, 14, 55, 109
6, 199373, Note_on_c, 14, 55, 0
6, 199424, Note_on_c, 14, 52, 110
6, 199629, Note_on_c, 14, 52, 0
6, 199680, Note_on_c, 14, 54, 110
6, 199936, Note_on_c, 14, 54, 0
6, 200192, Note_on_c, 14, 50, 111
6, 200448, Note_on_c, 14, 50, 0
6, 200704, Note_on_c, 14, 57, 112
6, 200960, Note_on_c, 14, 57, 0
6, 201216, Note_on_c, 14, 60, 112
6, 201472, Note_on_c, 14, 60, 0
6, 201728, Note_on_c, 14, 54, 113
6, 201933, Note_on_c, 14, 54, 0
6, 201984, Note_on_c, 14, 51, 114
6, 202189, Note_on_c, 14, 51, 0
6, 202240, Note_on_c, 14, 52, 114
6, 202445, Note_on_c, 14, 52, 0
6, 202496, Note_on_c, 14, 49, 114
6, 202701, Note_on_c, 14, 49, 0
6, 202752, Note_on_c, 14, 51, 115
6, 203008, Note_on_c, 14, 51, 0
6, 203264, Note_on_c, 14, 63, 116
6, 203520, Note_on_c, 14, 63, 0
6, 203776, Note_on_c, 14, 59, 117
6, 204032, Note_on_c, 14, 59, 0
6, 204288, Note_on_c, 14, 64, 117
6, 204544, Note_on_c, 14, 64, 0
6, 204800, Note_on_c, 14, 59, 117
6, 205005, Note_on_c, 14, 59, 0
6, 205056, Note_on_c, 14, 55, 116
6, 205261, Note_on_c, 14, 55, 0
6, 205312, Note_on_c, 14, 57, 115
6, 205517, Note_on_c, 14, 57, 0
6, 205568, Note_on_c, 14, 54, 114
6, 205773, Note_on_c, 14, 54, 0
6, 205824, Note_on_c, 14, 55, 113
6, 206080, Note_on_c, 14, 55, 0
6, 206336, Note_on_c, 14, 52, 111
6, 206592, Note_on_c, 14, 52, 0
6, 206848, Note_on_c, 14, 55, 109
6, 207104, Note_on_c, 14, 55, 0
6, 207360, Note_on_c, 14, 57, 107
6, 207616, Note_on_c, 14, 57, 0
6, 207872, Note_on_c, 14, 52, 105
6, 208077, Note_on_c, 14, 52, 0
6, 208128, Note_on_c, 14, 49, 104
6, 208333, Note_on_c, 14, 49, 0
6, 208384, Note_on_c, 14, 50, 103
6, 208589, Note_on_c, 14, 50, 0
6, 208640, Note_on_c, 14, 47, 103
6, 208845, Note_on_c, 14, 47, 0
6, 208896, Note_on_c, 14, 49, 102
6, 209152, Note_on_c, 14, 49, 0
6, 209408, Note_on_c, 14, 45, 100
6, 209664, Note_on_c, 14, 45, 0
6, 209920, Note_on_c, 14, 49, 98
6, 210176, Note_on_c, 14, 49, 0
6, 210432, Note_on_c, 14, 50, 96
6, 210688, Note_on_c, 14, 50, 0
6, 210944, Note_on_c, 14, 62, 96
6, 211200, Note_on_c, 14, 62, 0
6, 211456, Note_on_c, 14, 61, 96
6, 211712, Note_on_c, 14, 61, 0
6, 211968, Note_on_c, 14, 59, 96
6, 212224, Note_on_c, 14, 59, 0
6, 212480, Note_on_c, 14, 47, 96
6, 212736, Note_on_c, 14, 47, 0
6, 212992, Note_on_c, 14, 45, 96
6, 213248, Note_on_c, 14, 45, 0
6, 213504, Note_on_c, 14, 43, 96
6, 213760, Note_on_c, 14, 43, 0
6, 214016, Note_on_c, 14, 55, 96
6, 214272, Note_on_c, 14, 55, 0
6, 214528, Note_on_c, 14, 54, 96
6, 214784, Note_on_c, 14, 54, 0
6, 215040, Note_on_c, 14, 52, 96
6, 215296, Note_on_c, 14, 52, 0
6, 215552, Note_on_c, 14, 40, 96
6, 215808, Note_on_c, 14, 40, 0
6, 216064, Note_on_c, 14, 38, 96
6, 216320, Note_on_c, 14, 38, 0
6, 216576, Note_on_c, 14, 37, 96
6, 216832, Note_on_c, 14, 37, 0
6, 217088, Note_on_c, 14, 49, 96
6, 217344, Note_on_c, 14, 49, 0
6, 217600, Note_on_c, 14, 47, 96
6, 217856, Note_on_c, 14, 47, 0
6, 218112, Note_on_c, 14, 45, 96
6, 218368, Note_on_c, 14, 45, 0
6, 218624, Note_on_c, 14, 57, 96
6, 218880, Note_on_c, 14, 57, 0
6, 219136, Note_on_c, 14, 55, 96
6, 219392, Note_on_c, 14, 55, 0
6, 219648, Note_on_c, 14, 54, 96
6, 219904, Note_on_c, 14, 54, 0
6, 220160, Note_on_c, 14, 42, 96
6, 220416, Note_on_c, 14, 42, 0
6, 220672, Note_on_c, 14, 40, 96
6, 220928, Note_on_c, 14, 40, 0
6, 221184, Note_on_c, 14, 38, 97
6, 221440, Note_on_c, 14, 38, 0
6, 221696, Note_on_c, 14, 42, 85
6, 221952, Note_on_c, 14, 42, 0
6, 222208, Note_on_c, 14, 38, 80
6, 222464, Note_on_c, 14, 38, 0
6, 222720, Note_on_c, 14, 43, 86
6, 222976, Note_on_c, 14, 43, 0
6, 223232, Note_on_c, 14, 55, 91
6, 223488, Note_on_c, 14, 55, 0
6, 223744, Note_on_c, 14, 52, 96
6, 224000, Note_on_c, 14, 52, 0
6, 224256, Note_on_c, 14, 45, 102
6, 224512, Note_on_c, 14, 45, 0
6, 224768, Note_on_c, 14, 57, 107
6, 225024, Note_on_c, 14, 57, 0
6, 225280, Note_on_c, 14, 54, 112
6, 225536, Note_on_c, 14, 54, 0
6, 225792, Note_on_c, 14, 47, 118
6, 226048, Note_on_c, 14, 47, 0
6, 226304, Note_on_c, 14, 43, 120
6, 226560, Note_on_c, 14, 43, 0
6, 226816, Note_on_c, 14, 45, 121
6, 227072, Note_on_c, 14, 45, 0
6, 227328, Note_on_c, 14, 38, 122
6, 228864, Note_on_c, 14, 38, 0
6, 230400, Control_c, 14, 121, 127
6, 230400, End_track
7, 0, Start_track
7, 0, Title_t, "Violin I"
7, 0, Program_c, 4, 48
7, 0, Control_c, 4, 121, 127
7, 0, Control_c, 4, 91, 127
7, 0, Control_c, 4, 1, 5
7, 0, Control_c, 4, 10, 20
7, 0, Control_c, 4, 11, 90
7, 6656, Note_on_c, 4, 81, 80
7, 6861, Note_on_c, 4, 81, 0
7, 6912, Note_on_c, 4, 78, 80
7, 7117, Note_on_c, 4, 78, 0
7, 7168, Note_on_c, 4, 79, 81
7, 7373, Note_on_c, 4, 79, 0
7, 7424, Note_on_c, 4, 76, 81
7, 7629, Note_on_c, 4, 76, 0
7, 7680, Note_on_c, 4, 78, 82
7, 7885, Note_on_c, 4, 78, 0
7, 7936, Note_on_c, 4, 76, 82
7, 8141, Note_on_c, 4, 76, 0
7, 8192, Note_on_c, 4, 74, 82
7, 8397, Note_on_c, 4, 74, 0
7, 8448, Note_on_c, 4, 78, 83
7, 8653, Note_on_c, 4, 78, 0
7, 8704, Note_on_c, 4, 76, 83
7, 8909, Note_on_c, 4, 76, 0
7, 8960, Note_on_c, 4, 79, 84
7, 9165, Note_on_c, 4, 79, 0
7, 9216, Note_on_c, 4, 78, 84
7, 9421, Note_on_c, 4, 78, 0
7, 9472, Note_on_c, 4, 79, 84
7, 9677, Note_on_c, 4, 79, 0
7, 9728, Note_on_c, 4, 81, 85
7, 9984, Note_on_c, 4, 81, 0
7, 10240, Note_on_c, 4, 74, 86
7, 10496, Note_on_c, 4, 74, 0
7, 10752, Note_on_c, 4, 73, 86
7, 11008, Note_on_c, 4, 73, 0
7, 11264, Note_on_c, 4, 76, 89
7, 11469, Note_on_c, 4, 76, 0
7, 11520, Note_on_c, 4, 74, 90
7, 11725, Note_on_c, 4, 74, 0
7, 11776, Note_on_c, 4, 76, 91
7, 11981, Note_on_c, 4, 76, 0
7, 12032, Note_on_c, 4, 73, 92
7, 12237, Note_on_c, 4, 73, 0
7, 12288, Note_on_c, 4, 74, 93
7, 12544, Note_on_c, 4, 74, 0
7, 12800, Note_on_c, 4, 73, 96
7, 13005, Note_on_c, 4, 73, 0
7, 13056, Note_on_c, 4, 74, 97
7, 13261, Note_on_c, 4, 74, 0
7, 13312, Note_on_c, 4, 76, 98
7, 13517, Note_on_c, 4, 76, 0
7, 13568, Note_on_c, 4, 73, 99
7, 13773, Note_on_c, 4, 73, 0
7, 13824, Note_on_c, 4, 74, 100
7, 14080, Note_on_c, 4, 74, 0
7, 14336, Note_on_c, 4, 73, 103
7, 14541, Note_on_c, 4, 73, 0
7, 14592, Note_on_c, 4, 71, 104
7, 14797, Note_on_c, 4, 71, 0
7, 14848, Note_on_c, 4, 69, 105
7, 15053, Note_on_c, 4, 69, 0
7, 15104, Note_on_c, 4, 67, 106
7, 15309, Note_on_c, 4, 67, 0
7, 15360, Note_on_c, 4, 66, 107
7, 15616, Note_on_c, 4, 66, 0
7, 15872, Note_on_c, 4, 62, 93
7, 16128, Note_on_c, 4, 62, 0
7, 19456, Note_on_c, 4, 69, 90
7, 19712, Note_on_c, 4, 69, 0
7, 19968, Note_on_c, 4, 81, 91
7, 20224, Note_on_c, 4, 81, 0
7, 20480, Note_on_c, 4, 79, 93
7, 20736, Note_on_c, 4, 79, 0
7, 20992, Note_on_c, 4, 78, 94
7, 21248, Note_on_c, 4, 78, 0
7, 21504, Note_on_c, 4, 76, 95
7, 21760, Note_on_c, 4, 76, 0
7, 22016, Note_on_c, 4, 73, 89
7, 22272, Note_on_c, 4, 73, 0
7, 26624, Note_on_c, 4, 74, 49
7, 26880, Note_on_c, 4, 74, 0
7, 27136, Note_on_c, 4, 72, 51
7, 27392, Note_on_c, 4, 72, 0
7, 27648, Note_on_c, 4, 71, 53
7, 27904, Note_on_c, 4, 71, 0
7, 31232, Note_on_c, 4, 76, 67
7, 31488, Note_on_c, 4, 76, 0
7, 31744, Note_on_c, 4, 78, 69
7, 32000, Note_on_c, 4, 78, 0
7, 32256, Note_on_c, 4, 74, 71
7, 32512, Note_on_c, 4, 74, 0
7, 35840, Note_on_c, 4, 69, 85
7, 36096, Note_on_c, 4, 69, 0
7, 36352, Note_on_c, 4, 74, 90
7, 36608, Note_on_c, 4, 74, 0
7, 36864, Note_on_c, 4, 81, 91
7, 37120, Note_on_c, 4, 81, 0
7, 37376, Note_on_c, 4, 81, 92
7, 37632, Note_on_c, 4, 81, 0
7, 37888, Note_on_c, 4, 81, 93
7, 38144, Note_on_c, 4, 81, 0
7, 38400, Note_on_c, 4, 86, 95
7, 38656, Note_on_c, 4, 86, 0
7, 38912, Note_on_c, 4, 81, 96
7, 39117, Note_on_c, 4, 81, 0
7, 39168, Note_on_c, 4, 78, 97
7, 39373, Note_on_c, 4, 78, 0
7, 39424, Note_on_c, 4, 79, 97
7, 39629, Note_on_c, 4, 79, 0
7, 39680, Note_on_c, 4, 76, 98
7, 39885, Note_on_c, 4, 76, 0
7, 39936, Note_on_c, 4, 78, 99
7, 40141, Note_on_c, 4, 78, 0
7, 40192, Note_on_c, 4, 79, 99
7, 40397, Note_on_c, 4, 79, 0
7, 40448, Note_on_c, 4, 78, 100
7, 40653, Note_on_c, 4, 78, 0
7, 40704, Note_on_c, 4, 76, 101
7, 40909, Note_on_c, 4, 76, 0
7, 40960, Note_on_c, 4, 74, 101
7, 41165, Note_on_c, 4, 74, 0
7, 41216, Note_on_c, 4, 76, 102
7, 41421, Note_on_c, 4, 76, 0
7, 41472, Note_on_c, 4, 78, 103
7, 41677, Note_on_c, 4, 78, 0
7, 41728, Note_on_c, 4, 83, 103
7, 41933, Note_on_c, 4, 83, 0
7, 41984, Note_on_c, 4, 81, 104
7, 42189, Note_on_c, 4, 81, 0
7, 42240, Note_on_c, 4, 79, 104
7, 42445, Note_on_c, 4, 79, 0
7, 42496, Note_on_c, 4, 81, 105
7, 42701, Note_on_c, 4, 81, 0
7, 42752, Note_on_c, 4, 76, 106
7, 42957, Note_on_c, 4, 76, 0
7, 43008, Note_on_c, 4, 78, 106
7, 43213, Note_on_c, 4, 78, 0
7, 43264, Note_on_c, 4, 74, 91
7, 43469, Note_on_c, 4, 74, 0
7, 43520, Note_on_c, 4, 76, 86
7, 43776, Note_on_c, 4, 76, 0
7, 44032, Note_on_c, 4, 78, 48
7, 44288, Note_on_c, 4, 78, 0
7, 44544, Note_on_c, 4, 74, 48
7, 44800, Note_on_c, 4, 74, 0
7, 45056, Note_on_c, 4, 76, 48
7, 45261, Note_on_c, 4, 76, 0
7, 45312, Note_on_c, 4, 74, 48
7, 45517, Note_on_c, 4, 74, 0
7, 45568, Note_on_c, 4, 76, 48
7, 45773, Note_on_c, 4, 76, 0
7, 45824, Note_on_c, 4, 73, 48
7, 46029, Note_on_c, 4, 73, 0
7, 46080, Note_on_c, 4, 74, 44
7, 46336, Note_on_c, 4, 74, 0
7, 46592, Note_on_c, 4, 71, 61
7, 46848, Note_on_c, 4, 71, 0
7, 50176, Note_on_c, 4, 74, 46
7, 50432, Note_on_c, 4, 74, 0
7, 50688, Note_on_c, 4, 76, 46
7, 50944, Note_on_c, 4, 76, 0
7, 51200, Note_on_c, 4, 79, 46
7, 51328, Note_on_c, 4, 79, 0
7, 51328, Note_on_c, 4, 78, 46
7, 51456, Note_on_c, 4, 78, 0
7, 51456, Note_on_c, 4, 79, 46
7, 51584, Note_on_c, 4, 79, 0
7, 51584, Note_on_c, 4, 78, 47
7, 51712, Note_on_c, 4, 78, 0
7, 51712, Note_on_c, 4, 79, 47
7, 51840, Note_on_c, 4, 79, 0
7, 51840, Note_on_c, 4, 78, 47
7, 51968, Note_on_c, 4, 78, 0
7, 51968, Note_on_c, 4, 76, 47
7, 52096, Note_on_c, 4, 76, 0
7, 52096, Note_on_c, 4, 78, 47
7, 52224, Note_on_c, 4, 78, 0
7, 52224, Note_on_c, 4, 79, 47
7, 53248, Note_on_c, 4, 79, 0
7, 56320, Note_on_c, 4, 71, 40
7, 56576, Note_on_c, 4, 71, 0
7, 56832, Note_on_c, 4, 67, 40
7, 57088, Note_on_c, 4, 67, 0
7, 57344, Note_on_c, 4, 66, 40
7, 57549, Note_on_c, 4, 66, 0
7, 57600, Note_on_c, 4, 67, 40
7, 57805, Note_on_c, 4, 67, 0
7, 57856, Note_on_c, 4, 69, 40
7, 58061, Note_on_c, 4, 69, 0
7, 58112, Note_on_c, 4, 66, 40
7, 58317, Note_on_c, 4, 66, 0
7, 58368, Note_on_c, 4, 67, 40
7, 61696, Note_on_c, 4, 67, 0
7, 61952, Note_on_c, 4, 64, 40
7, 62208, Note_on_c, 4, 64, 0
7, 62464, Note_on_c, 4, 69, 40
7, 62720, Note_on_c, 4, 69, 0
7, 62976, Note_on_c, 4, 74, 40
7, 63232, Note_on_c, 4, 74, 0
7, 63488, Note_on_c, 4, 69, 40
7, 63744, Note_on_c, 4, 69, 0
7, 64000, Note_on_c, 4, 67, 40
7, 64256, Note_on_c, 4, 67, 0
7, 64512, Note_on_c, 4, 66, 40
7, 64768, Note_on_c, 4, 66, 0
7, 68096, Note_on_c, 4, 71, 54
7, 68352, Note_on_c, 4, 71, 0
7, 68608, Note_on_c, 4, 73, 57
7, 68864, Note_on_c, 4, 73, 0
7, 69120, Note_on_c, 4, 69, 59
7, 69376, Note_on_c, 4, 69, 0
7, 72704, Note_on_c, 4, 64, 75
7, 72960, Note_on_c, 4, 64, 0
7, 73216, Note_on_c, 4, 69, 78
7, 73472, Note_on_c, 4, 69, 0
7, 73728, Note_on_c, 4, 76, 80
7, 73984, Note_on_c, 4, 76, 0
7, 74240, Note_on_c, 4, 76, 82
7, 74445, Note_on_c, 4, 76, 0
7, 74496, Note_on_c, 4, 76, 83
7, 74701, Note_on_c, 4, 76, 0
7, 74752, Note_on_c, 4, 76, 85
7, 74957, Note_on_c, 4, 76, 0
7, 75008, Note_on_c, 4, 76, 86
7, 75213, Note_on_c, 4, 76, 0
7, 75264, Note_on_c, 4, 81, 87
7, 75520, Note_on_c, 4, 81, 0
7, 75776, Note_on_c, 4, 76, 89
7, 75981, Note_on_c, 4, 76, 0
7, 76032, Note_on_c, 4, 73, 90
7, 76237, Note_on_c, 4, 73, 0
7, 76288, Note_on_c, 4, 74, 92
7, 76493, Note_on_c, 4, 74, 0
7, 76544, Note_on_c, 4, 71, 93
7, 76749, Note_on_c, 4, 71, 0
7, 76800, Note_on_c, 4, 73, 94
7, 77056, Note_on_c, 4, 73, 0
7, 77312, Note_on_c, 4, 76, 96
7, 77568, Note_on_c, 4, 76, 0
7, 77824, Note_on_c, 4, 73, 99
7, 78592, Note_on_c, 4, 73, 0
7, 78848, Note_on_c, 4, 71, 100
7, 79104, Note_on_c, 4, 71, 0
7, 79360, Note_on_c, 4, 76, 100
7, 79616, Note_on_c, 4, 76, 0
7, 79872, Note_on_c, 4, 74, 100
7, 80000, Note_on_c, 4, 74, 0
7, 80000, Note_on_c, 4, 73, 101
7, 80128, Note_on_c, 4, 73, 0
7, 80128, Note_on_c, 4, 74, 97
7, 80256, Note_on_c, 4, 74, 0
7, 80256, Note_on_c, 4, 73, 94
7, 80384, Note_on_c, 4, 73, 0
7, 80384, Note_on_c, 4, 71, 90
7, 80640, Note_on_c, 4, 71, 0
7, 80896, Note_on_c, 4, 73, 44
7, 81152, Note_on_c, 4, 73, 0
7, 81408, Note_on_c, 4, 69, 44
7, 81664, Note_on_c, 4, 69, 0
7, 81920, Note_on_c, 4, 71, 45
7, 82176, Note_on_c, 4, 71, 0
7, 82432, Note_on_c, 4, 68, 46
7, 82688, Note_on_c, 4, 68, 0
7, 82944, Note_on_c, 4, 69, 47
7, 84736, Note_on_c, 4, 69, 0
7, 84992, Note_on_c, 4, 68, 104
7, 85248, Note_on_c, 4, 68, 0
7, 85504, Note_on_c, 4, 73, 107
7, 85760, Note_on_c, 4, 73, 0
7, 86016, Note_on_c, 4, 69, 103
7, 86272, Note_on_c, 4, 69, 0
7, 86528, Note_on_c, 4, 66, 82
7, 86784, Note_on_c, 4, 66, 0
7, 90112, Note_on_c, 4, 74, 104
7, 90880, Note_on_c, 4, 74, 0
7, 91136, Note_on_c, 4, 73, 109
7, 91341, Note_on_c, 4, 73, 0
7, 91392, Note_on_c, 4, 74, 110
7, 91597, Note_on_c, 4, 74, 0
7, 91648, Note_on_c, 4, 76, 111
7, 91853, Note_on_c, 4, 76, 0
7, 91904, Note_on_c, 4, 73, 112
7, 92109, Note_on_c, 4, 73, 0
7, 92160, Note_on_c, 4, 74, 113
7, 92416, Note_on_c, 4, 74, 0
7, 92672, Note_on_c, 4, 73, 96
7, 92928, Note_on_c, 4, 73, 0
7, 95744, Note_on_c, 4, 74, 41
7, 95949, Note_on_c, 4, 74, 0
7, 96000, Note_on_c, 4, 76, 41
7, 96205, Note_on_c, 4, 76, 0
7, 96256, Note_on_c, 4, 78, 41
7, 96461, Note_on_c, 4, 78, 0
7, 96512, Note_on_c, 4, 74, 41
7, 96717, Note_on_c, 4, 74, 0
7, 96768, Note_on_c, 4, 79, 41
7, 97024, Note_on_c, 4, 79, 0
7, 98304, Note_on_c, 4, 83, 41
7, 98560, Note_on_c, 4, 83, 0
7, 99840, Note_on_c, 4, 81, 41
7, 100096, Note_on_c, 4, 81, 0
7, 101376, Note_on_c, 4, 76, 41
7, 101632, Note_on_c, 4, 76, 0
7, 102912, Note_on_c, 4, 78, 41
7, 103168, Note_on_c, 4, 78, 0
7, 104448, Note_on_c, 4, 81, 41
7, 104704, Note_on_c, 4, 81, 0
7, 105984, Note_on_c, 4, 79, 41
7, 106240, Note_on_c, 4, 79, 0
7, 107520, Note_on_c, 4, 74, 41
7, 107776, Note_on_c, 4, 74, 0
7, 109056, Note_on_c, 4, 76, 41
7, 109312, Note_on_c, 4, 76, 0
7, 110592, Note_on_c, 4, 79, 41
7, 110848, Note_on_c, 4, 79, 0
7, 112128, Note_on_c, 4, 78, 41
7, 112384, Note_on_c, 4, 78, 0
7, 113664, Note_on_c, 4, 73, 41
7, 113920, Note_on_c, 4, 73, 0
7, 115200, Note_on_c, 4, 74, 44
7, 115456, Note_on_c, 4, 74, 0
7, 116736, Note_on_c, 4, 78, 54
7, 116992, Note_on_c, 4, 78, 0
7, 118272, Note_on_c, 4, 76, 65
7, 118528, Note_on_c, 4, 76, 0
7, 119808, Note_on_c, 4, 71, 75
7, 120064, Note_on_c, 4, 71, 0
7, 121344, Note_on_c, 4, 73, 85
7, 121549, Note_on_c, 4, 73, 0
7, 121600, Note_on_c, 4, 71, 87
7, 121805, Note_on_c, 4, 71, 0
7, 121856, Note_on_c, 4, 69, 89
7, 122061, Note_on_c, 4, 69, 0
7, 122112, Note_on_c, 4, 73, 90
7, 122317, Note_on_c, 4, 73, 0
7, 122368, Note_on_c, 4, 71, 92
7, 122573, Note_on_c, 4, 71, 0
7, 122624, Note_on_c, 4, 74, 94
7, 122829, Note_on_c, 4, 74, 0
7, 122880, Note_on_c, 4, 73, 96
7, 123085, Note_on_c, 4, 73, 0
7, 123136, Note_on_c, 4, 71, 97
7, 123341, Note_on_c, 4, 71, 0
7, 123392, Note_on_c, 4, 73, 99
7, 123597, Note_on_c, 4, 73, 0
7, 123648, Note_on_c, 4, 74, 101
7, 123853, Note_on_c, 4, 74, 0
7, 123904, Note_on_c, 4, 71, 98
7, 124109, Note_on_c, 4, 71, 0
7, 124160, Note_on_c, 4, 73, 99
7, 124365, Note_on_c, 4, 73, 0
7, 124416, Note_on_c, 4, 74, 97
7, 124672, Note_on_c, 4, 74, 0
7, 124928, Note_on_c, 4, 62, 102
7, 125184, Note_on_c, 4, 62, 0
7, 126976, Note_on_c, 4, 62, 103
7, 127232, Note_on_c, 4, 62, 0
7, 127488, Note_on_c, 4, 61, 98
7, 127744, Note_on_c, 4, 61, 0
7, 128000, Note_on_c, 4, 69, 103
7, 128256, Note_on_c, 4, 69, 0
7, 130048, Note_on_c, 4, 69, 105
7, 130304, Note_on_c, 4, 69, 0
7, 130560, Note_on_c, 4, 81, 99
7, 130816, Note_on_c, 4, 81, 0
7, 131072, Note_on_c, 4, 81, 99
7, 131328, Note_on_c, 4, 81, 0
7, 131584, Note_on_c, 4, 81, 101
7, 131840, Note_on_c, 4, 81, 0
7, 132096, Note_on_c, 4, 86, 102
7, 132352, Note_on_c, 4, 86, 0
7, 132608, Note_on_c, 4, 81, 104
7, 132813, Note_on_c, 4, 81, 0
7, 132864, Note_on_c, 4, 78, 104
7, 133069, Note_on_c, 4, 78, 0
7, 133120, Note_on_c, 4, 79, 105
7, 133325, Note_on_c, 4, 79, 0
7, 133376, Note_on_c, 4, 76, 106
7, 133581, Note_on_c, 4, 76, 0
7, 133632, Note_on_c, 4, 78, 107
7, 133888, Note_on_c, 4, 78, 0
7, 134144, Note_on_c, 4, 78, 108
7, 134400, Note_on_c, 4, 78, 0
7, 134656, Note_on_c, 4, 78, 110
7, 134912, Note_on_c, 4, 78, 0
7, 135168, Note_on_c, 4, 84, 111
7, 135424, Note_on_c, 4, 84, 0
7, 135680, Note_on_c, 4, 83, 108
7, 135885, Note_on_c, 4, 83, 0
7, 135936, Note_on_c, 4, 79, 105
7, 136141, Note_on_c, 4, 79, 0
7, 136192, Note_on_c, 4, 81, 103
7, 136397, Note_on_c, 4, 81, 0
7, 136448, Note_on_c, 4, 78, 100
7, 136653, Note_on_c, 4, 78, 0
7, 136704, Note_on_c, 4, 79, 93
7, 136960, Note_on_c, 4, 79, 0
7, 137216, Note_on_c, 4, 76, 94
7, 137472, Note_on_c, 4, 76, 0
7, 137728, Note_on_c, 4, 76, 96
7, 137984, Note_on_c, 4, 76, 0
7, 138240, Note_on_c, 4, 88, 97
7, 138496, Note_on_c, 4, 88, 0
7, 138752, Note_on_c, 4, 86, 99
7, 138957, Note_on_c, 4, 86, 0
7, 139008, Note_on_c, 4, 85, 99
7, 139213, Note_on_c, 4, 85, 0
7, 139264, Note_on_c, 4, 86, 100
7, 139469, Note_on_c, 4, 86, 0
7, 139520, Note_on_c, 4, 83, 101
7, 139725, Note_on_c, 4, 83, 0
7, 139776, Note_on_c, 4, 85, 102
7, 140032, Note_on_c, 4, 85, 0
7, 140288, Note_on_c, 4, 69, 103
7, 140544, Note_on_c, 4, 69, 0
7, 140800, Note_on_c, 4, 69, 104
7, 141056, Note_on_c, 4, 69, 0
7, 141312, Note_on_c, 4, 81, 106
7, 141568, Note_on_c, 4, 81, 0
7, 141824, Note_on_c, 4, 79, 107
7, 142029, Note_on_c, 4, 79, 0
7, 142080, Note_on_c, 4, 78, 108
7, 142285, Note_on_c, 4, 78, 0
7, 142336, Note_on_c, 4, 79, 109
7, 142541, Note_on_c, 4, 79, 0
7, 142592, Note_on_c, 4, 76, 110
7, 142797, Note_on_c, 4, 76, 0
7, 142848, Note_on_c, 4, 78, 110
7, 143053, Note_on_c, 4, 78, 0
7, 143104, Note_on_c, 4, 76, 112
7, 143309, Note_on_c, 4, 76, 0
7, 143360, Note_on_c, 4, 78, 111
7, 143565, Note_on_c, 4, 78, 0
7, 143616, Note_on_c, 4, 79, 110
7, 143821, Note_on_c, 4, 79, 0
7, 143872, Note_on_c, 4, 81, 109
7, 144077, Note_on_c, 4, 81, 0
7, 144128, Note_on_c, 4, 78, 107
7, 144333, Note_on_c, 4, 78, 0
7, 144384, Note_on_c, 4, 74, 106
7, 144589, Note_on_c, 4, 74, 0
7, 144640, Note_on_c, 4, 73, 105
7, 144845, Note_on_c, 4, 73, 0
7, 144896, Note_on_c, 4, 74, 103
7, 145101, Note_on_c, 4, 74, 0
7, 145152, Note_on_c, 4, 76, 104
7, 145357, Note_on_c, 4, 76, 0
7, 145408, Note_on_c, 4, 78, 106
7, 145613, Note_on_c, 4, 78, 0
7, 145664, Note_on_c, 4, 74, 107
7, 145869, Note_on_c, 4, 74, 0
7, 145920, Note_on_c, 4, 71, 109
7, 146176, Note_on_c, 4, 71, 0
7, 146432, Note_on_c, 4, 83, 111
7, 146688, Note_on_c, 4, 83, 0
7, 146944, Note_on_c, 4, 81, 114
7, 147200, Note_on_c, 4, 81, 0
7, 147456, Note_on_c, 4, 79, 117
7, 147661, Note_on_c, 4, 79, 0
7, 147712, Note_on_c, 4, 78, 118
7, 147917, Note_on_c, 4, 78, 0
7, 147968, Note_on_c, 4, 76, 117
7, 149197, Note_on_c, 4, 76, 0
7, 149248, Note_on_c, 4, 74, 108
7, 149453, Note_on_c, 4, 74, 0
7, 149504, Note_on_c, 4, 76, 107
7, 149709, Note_on_c, 4, 76, 0
7, 149760, Note_on_c, 4, 78, 105
7, 149965, Note_on_c, 4, 78, 0
7, 150016, Note_on_c, 4, 79, 103
7, 150221, Note_on_c, 4, 79, 0
7, 150272, Note_on_c, 4, 76, 102
7, 150477, Note_on_c, 4, 76, 0
7, 150528, Note_on_c, 4, 73, 96
7, 150733, Note_on_c, 4, 73, 0
7, 150784, Note_on_c, 4, 71, 97
7, 150989, Note_on_c, 4, 71, 0
7, 151040, Note_on_c, 4, 73, 99
7, 151245, Note_on_c, 4, 73, 0
7, 151296, Note_on_c, 4, 74, 100
7, 151501, Note_on_c, 4, 74, 0
7, 151552, Note_on_c, 4, 76, 101
7, 151757, Note_on_c, 4, 76, 0
7, 151808, Note_on_c, 4, 73, 102
7, 152013, Note_on_c, 4, 73, 0
7, 152064, Note_on_c, 4, 69, 103
7, 152320, Note_on_c, 4, 69, 0
7, 152576, Note_on_c, 4, 81, 106
7, 152832, Note_on_c, 4, 81, 0
7, 153088, Note_on_c, 4, 79, 108
7, 153344, Note_on_c, 4, 79, 0
7, 153600, Note_on_c, 4, 78, 111
7, 153805, Note_on_c, 4, 78, 0
7, 153856, Note_on_c, 4, 76, 107
7, 154061, Note_on_c, 4, 76, 0
7, 154112, Note_on_c, 4, 74, 103
7, 154368, Note_on_c, 4, 74, 0
7, 154624, Note_on_c, 4, 72, 94
7, 155341, Note_on_c, 4, 72, 0
7, 155392, Note_on_c, 4, 71, 98
7, 155597, Note_on_c, 4, 71, 0
7, 155648, Note_on_c, 4, 76, 99
7, 155853, Note_on_c, 4, 76, 0
7, 155904, Note_on_c, 4, 73, 101
7, 156109, Note_on_c, 4, 73, 0
7, 156160, Note_on_c, 4, 74, 102
7, 156365, Note_on_c, 4, 74, 0
7, 156416, Note_on_c, 4, 71, 103
7, 156621, Note_on_c, 4, 71, 0
7, 156672, Note_on_c, 4, 73, 105
7, 156877, Note_on_c, 4, 73, 0
7, 156928, Note_on_c, 4, 69, 106
7, 157133, Note_on_c, 4, 69, 0
7, 157184, Note_on_c, 4, 78, 107
7, 157389, Note_on_c, 4, 78, 0
7, 157440, Note_on_c, 4, 74, 109
7, 157645, Note_on_c, 4, 74, 0
7, 157696, Note_on_c, 4, 76, 110
7, 157901, Note_on_c, 4, 76, 0
7, 157952, Note_on_c, 4, 73, 111
7, 158157, Note_on_c, 4, 73, 0
7, 158208, Note_on_c, 4, 74, 113
7, 158464, Note_on_c, 4, 74, 0
7, 158720, Note_on_c, 4, 76, 116
7, 158976, Note_on_c, 4, 76, 0
7, 159232, Note_on_c, 4, 73, 118
7, 159488, Note_on_c, 4, 73, 0
7, 159744, Note_on_c, 4, 74, 121
7, 160768, Note_on_c, 4, 74, 0
7, 166912, Note_on_c, 4, 74, 100
7, 167168, Note_on_c, 4, 74, 0
7, 167424, Note_on_c, 4, 73, 102
7, 167680, Note_on_c, 4, 73, 0
7, 167936, Note_on_c, 4, 76, 104
7, 168141, Note_on_c, 4, 76, 0
7, 168192, Note_on_c, 4, 74, 104
7, 168397, Note_on_c, 4, 74, 0
7, 168448, Note_on_c, 4, 76, 105
7, 168653, Note_on_c, 4, 76, 0
7, 168704, Note_on_c, 4, 73, 106
7, 168909, Note_on_c, 4, 73, 0
7, 168960, Note_on_c, 4, 74, 107
7, 169216, Note_on_c, 4, 74, 0
7, 169472, Note_on_c, 4, 73, 109
7, 169677, Note_on_c, 4, 73, 0
7, 169728, Note_on_c, 4, 74, 110
7, 169933, Note_on_c, 4, 74, 0
7, 169984, Note_on_c, 4, 76, 111
7, 170189, Note_on_c, 4, 76, 0
7, 170240, Note_on_c, 4, 73, 112
7, 170445, Note_on_c, 4, 73, 0
7, 170496, Note_on_c, 4, 74, 113
7, 170752, Note_on_c, 4, 74, 0
7, 171008, Note_on_c, 4, 73, 114
7, 171213, Note_on_c, 4, 73, 0
7, 171264, Note_on_c, 4, 71, 115
7, 171469, Note_on_c, 4, 71, 0
7, 171520, Note_on_c, 4, 69, 116
7, 171725, Note_on_c, 4, 69, 0
7, 171776, Note_on_c, 4, 67, 117
7, 171981, Note_on_c, 4, 67, 0
7, 172032, Note_on_c, 4, 66, 118
7, 172288, Note_on_c, 4, 66, 0
7, 172544, Note_on_c, 4, 62, 84
7, 172800, Note_on_c, 4, 62, 0
7, 176128, Note_on_c, 4, 81, 101
7, 176384, Note_on_c, 4, 81, 0
7, 176640, Note_on_c, 4, 78, 109
7, 176896, Note_on_c, 4, 78, 0
7, 177152, Note_on_c, 4, 74, 113
7, 177408, Note_on_c, 4, 74, 0
7, 177664, Note_on_c, 4, 73, 117
7, 177920, Note_on_c, 4, 73, 0
7, 178176, Note_on_c, 4, 74, 121
7, 179115, Note_on_c, 4, 74, 0
7, 179200, Note_on_c, 4, 62, 96
7, 179456, Note_on_c, 4, 62, 0
7, 179712, Note_on_c, 4, 69, 103
7, 179968, Note_on_c, 4, 69, 0
7, 180224, Note_on_c, 4, 69, 94
7, 180480, Note_on_c, 4, 69, 0
7, 180736, Note_on_c, 4, 69, 99
7, 180992, Note_on_c, 4, 69, 0
7, 181248, Note_on_c, 4, 74, 103
7, 181504, Note_on_c, 4, 74, 0
7, 181760, Note_on_c, 4, 69, 93
7, 181965, Note_on_c, 4, 69, 0
7, 182016, Note_on_c, 4, 66, 93
7, 182221, Note_on_c, 4, 66, 0
7, 182272, Note_on_c, 4, 67, 94
7, 182477, Note_on_c, 4, 67, 0
7, 182528, Note_on_c, 4, 64, 94
7, 182733, Note_on_c, 4, 64, 0
7, 182784, Note_on_c, 4, 66, 107
7, 183040, Note_on_c, 4, 66, 0
7, 183296, Note_on_c, 4, 66, 93
7, 183552, Note_on_c, 4, 66, 0
7, 183808, Note_on_c, 4, 66, 98
7, 184064, Note_on_c, 4, 66, 0
7, 184320, Note_on_c, 4, 69, 104
7, 184576, Note_on_c, 4, 69, 0
7, 184832, Note_on_c, 4, 66, 95
7, 185037, Note_on_c, 4, 66, 0
7, 185088, Note_on_c, 4, 62, 95
7, 185293, Note_on_c, 4, 62, 0
7, 185344, Note_on_c, 4, 64, 96
7, 185549, Note_on_c, 4, 64, 0
7, 185600, Note_on_c, 4, 61, 96
7, 185805, Note_on_c, 4, 61, 0
7, 185856, Note_on_c, 4, 62, 96
7, 186112, Note_on_c, 4, 62, 0
7, 186368, Note_on_c, 4, 62, 97
7, 186624, Note_on_c, 4, 62, 0
7, 186880, Note_on_c, 4, 62, 98
7, 187136, Note_on_c, 4, 62, 0
7, 187392, Note_on_c, 4, 62, 99
7, 187597, Note_on_c, 4, 62, 0
7, 187648, Note_on_c, 4, 66, 99
7, 187853, Note_on_c, 4, 66, 0
7, 187904, Note_on_c, 4, 64, 99
7, 188109, Note_on_c, 4, 64, 0
7, 188160, Note_on_c, 4, 61, 100
7, 188365, Note_on_c, 4, 61, 0
7, 188416, Note_on_c, 4, 62, 100
7, 188621, Note_on_c, 4, 62, 0
7, 188672, Note_on_c, 4, 64, 101
7, 188877, Note_on_c, 4, 64, 0
7, 188928, Note_on_c, 4, 66, 101
7, 189133, Note_on_c, 4, 66, 0
7, 189184, Note_on_c, 4, 69, 101
7, 189389, Note_on_c, 4, 69, 0
7, 189440, Note_on_c, 4, 67, 102
7, 189645, Note_on_c, 4, 67, 0
7, 189696, Note_on_c, 4, 64, 102
7, 189901, Note_on_c, 4, 64, 0
7, 189952, Note_on_c, 4, 66, 103
7, 190157, Note_on_c, 4, 66, 0
7, 190208, Note_on_c, 4, 62, 103
7, 190413, Note_on_c, 4, 62, 0
7, 190464, Note_on_c, 4, 57, 103
7, 190720, Note_on_c, 4, 57, 0
7, 191488, Note_on_c, 4, 61, 76
7, 191744, Note_on_c, 4, 61, 0
7, 192000, Note_on_c, 4, 62, 79
7, 192256, Note_on_c, 4, 62, 0
7, 192512, Note_on_c, 4, 57, 81
7, 192768, Note_on_c, 4, 57, 0
7, 194560, Note_on_c, 4, 62, 91
7, 194816, Note_on_c, 4, 62, 0
7, 195072, Note_on_c, 4, 61, 93
7, 195328, Note_on_c, 4, 61, 0
7, 195584, Note_on_c, 4, 69, 96
7, 195840, Note_on_c, 4, 69, 0
7, 197632, Note_on_c, 4, 74, 105
7, 197888, Note_on_c, 4, 74, 0
7, 198144, Note_on_c, 4, 81, 108
7, 198400, Note_on_c, 4, 81, 0
7, 198656, Note_on_c, 4, 81, 108
7, 198912, Note_on_c, 4, 81, 0
7, 199168, Note_on_c, 4, 81, 109
7, 199424, Note_on_c, 4, 81, 0
7, 199680, Note_on_c, 4, 86, 110
7, 199936, Note_on_c, 4, 86, 0
7, 200192, Note_on_c, 4, 81, 111
7, 200397, Note_on_c, 4, 81, 0
7, 200448, Note_on_c, 4, 78, 111
7, 200653, Note_on_c, 4, 78, 0
7, 200704, Note_on_c, 4, 79, 112
7, 200909, Note_on_c, 4, 79, 0
7, 200960, Note_on_c, 4, 76, 112
7, 201165, Note_on_c, 4, 76, 0
7, 201216, Note_on_c, 4, 78, 112
7, 201472, Note_on_c, 4, 78, 0
7, 201728, Note_on_c, 4, 78, 113
7, 201984, Note_on_c, 4, 78, 0
7, 202240, Note_on_c, 4, 78, 114
7, 202496, Note_on_c, 4, 78, 0
7, 202752, Note_on_c, 4, 84, 115
7, 203008, Note_on_c, 4, 84, 0
7, 203264, Note_on_c, 4, 83, 116
7, 203469, Note_on_c, 4, 83, 0
7, 203520, Note_on_c, 4, 79, 116
7, 203725, Note_on_c, 4, 79, 0
7, 203776, Note_on_c, 4, 81, 117
7, 203981, Note_on_c, 4, 81, 0
7, 204032, Note_on_c, 4, 78, 117
7, 204237, Note_on_c, 4, 78, 0
7, 204288, Note_on_c, 4, 79, 117
7, 204544, Note_on_c, 4, 79, 0
7, 204800, Note_on_c, 4, 76, 117
7, 205056, Note_on_c, 4, 76, 0
7, 205312, Note_on_c, 4, 76, 115
7, 205568, Note_on_c, 4, 76, 0
7, 205824, Note_on_c, 4, 88, 113
7, 206080, Note_on_c, 4, 88, 0
7, 206336, Note_on_c, 4, 86, 111
7, 206541, Note_on_c, 4, 86, 0
7, 206592, Note_on_c, 4, 85, 110
7, 206797, Note_on_c, 4, 85, 0
7, 206848, Note_on_c, 4, 86, 109
7, 207053, Note_on_c, 4, 86, 0
7, 207104, Note_on_c, 4, 83, 108
7, 207309, Note_on_c, 4, 83, 0
7, 207360, Note_on_c, 4, 85, 107
7, 207616, Note_on_c, 4, 85, 0
7, 207872, Note_on_c, 4, 69, 105
7, 208128, Note_on_c, 4, 69, 0
7, 208384, Note_on_c, 4, 69, 103
7, 208640, Note_on_c, 4, 69, 0
7, 208896, Note_on_c, 4, 81, 102
7, 209152, Note_on_c, 4, 81, 0
7, 209408, Note_on_c, 4, 79, 100
7, 209613, Note_on_c, 4, 79, 0
7, 209664, Note_on_c, 4, 78, 99
7, 209869, Note_on_c, 4, 78, 0
7, 209920, Note_on_c, 4, 79, 98
7, 210125, Note_on_c, 4, 79, 0
7, 210176, Note_on_c, 4, 76, 97
7, 210381, Note_on_c, 4, 76, 0
7, 210432, Note_on_c, 4, 78, 96
7, 210637, Note_on_c, 4, 78, 0
7, 210688, Note_on_c, 4, 76, 96
7, 210893, Note_on_c, 4, 76, 0
7, 210944, Note_on_c, 4, 78, 96
7, 211149, Note_on_c, 4, 78, 0
7, 211200, Note_on_c, 4, 79, 96
7, 211405, Note_on_c, 4, 79, 0
7, 211456, Note_on_c, 4, 81, 96
7, 211661, Note_on_c, 4, 81, 0
7, 211712, Note_on_c, 4, 78, 96
7, 211917, Note_on_c, 4, 78, 0
7, 211968, Note_on_c, 4, 74, 96
7, 212173, Note_on_c, 4, 74, 0
7, 212224, Note_on_c, 4, 73, 96
7, 212429, Note_on_c, 4, 73, 0
7, 212480, Note_on_c, 4, 74, 96
7, 212685, Note_on_c, 4, 74, 0
7, 212736, Note_on_c, 4, 76, 96
7, 212941, Note_on_c, 4, 76, 0
7, 212992, Note_on_c, 4, 78, 96
7, 213197, Note_on_c, 4, 78, 0
7, 213248, Note_on_c, 4, 74, 96
7, 213453, Note_on_c, 4, 74, 0
7, 213504, Note_on_c, 4, 71, 96
7, 213760, Note_on_c, 4, 71, 0
7, 214016, Note_on_c, 4, 83, 96
7, 214272, Note_on_c, 4, 83, 0
7, 214528, Note_on_c, 4, 81, 96
7, 214784, Note_on_c, 4, 81, 0
7, 215040, Note_on_c, 4, 79, 96
7, 215245, Note_on_c, 4, 79, 0
7, 215296, Note_on_c, 4, 78, 96
7, 215501, Note_on_c, 4, 78, 0
7, 215552, Note_on_c, 4, 76, 96
7, 216781, Note_on_c, 4, 76, 0
7, 216832, Note_on_c, 4, 74, 96
7, 217037, Note_on_c, 4, 74, 0
7, 217088, Note_on_c, 4, 76, 96
7, 217293, Note_on_c, 4, 76, 0
7, 217344, Note_on_c, 4, 78, 96
7, 217549, Note_on_c, 4, 78, 0
7, 217600, Note_on_c, 4, 79, 96
7, 217805, Note_on_c, 4, 79, 0
7, 217856, Note_on_c, 4, 76, 96
7, 218061, Note_on_c, 4, 76, 0
7, 218112, Note_on_c, 4, 73, 96
7, 218317, Note_on_c, 4, 73, 0
7, 218368, Note_on_c, 4, 71, 96
7, 218573, Note_on_c, 4, 71, 0
7, 218624, Note_on_c, 4, 73, 96
7, 218829, Note_on_c, 4, 73, 0
7, 218880, Note_on_c, 4, 74, 96
7, 219085, Note_on_c, 4, 74, 0
7, 219136, Note_on_c, 4, 76, 96
7, 219341, Note_on_c, 4, 76, 0
7, 219392, Note_on_c, 4, 73, 96
7, 219597, Note_on_c, 4, 73, 0
7, 219648, Note_on_c, 4, 69, 96
7, 219904, Note_on_c, 4, 69, 0
7, 220160, Note_on_c, 4, 81, 96
7, 220416, Note_on_c, 4, 81, 0
7, 220672, Note_on_c, 4, 79, 96
7, 220928, Note_on_c, 4, 79, 0
7, 221184, Note_on_c, 4, 78, 97
7, 221389, Note_on_c, 4, 78, 0
7, 221440, Note_on_c, 4, 76, 91
7, 221645, Note_on_c, 4, 76, 0
7, 221696, Note_on_c, 4, 74, 85
7, 221952, Note_on_c, 4, 74, 0
7, 222208, Note_on_c, 4, 72, 80
7, 222925, Note_on_c, 4, 72, 0
7, 222976, Note_on_c, 4, 71, 88
7, 223181, Note_on_c, 4, 71, 0
7, 223232, Note_on_c, 4, 76, 91
7, 223437, Note_on_c, 4, 76, 0
7, 223488, Note_on_c, 4, 73, 94
7, 223693, Note_on_c, 4, 73, 0
7, 223744, Note_on_c, 4, 74, 96
7, 223949, Note_on_c, 4, 74, 0
7, 224000, Note_on_c, 4, 71, 99
7, 224205, Note_on_c, 4, 71, 0
7, 224256, Note_on_c, 4, 73, 102
7, 224461, Note_on_c, 4, 73, 0
7, 224512, Note_on_c, 4, 69, 104
7, 224717, Note_on_c, 4, 69, 0
7, 224768, Note_on_c, 4, 78, 107
7, 224973, Note_on_c, 4, 78, 0
7, 225024, Note_on_c, 4, 74, 110
7, 225229, Note_on_c, 4, 74, 0
7, 225280, Note_on_c, 4, 76, 112
7, 225485, Note_on_c, 4, 76, 0
7, 225536, Note_on_c, 4, 73, 115
7, 225741, Note_on_c, 4, 73, 0
7, 225792, Note_on_c, 4, 74, 118
7, 226048, Note_on_c, 4, 74, 0
7, 226304, Note_on_c, 4, 76, 120
7, 226560, Note_on_c, 4, 76, 0
7, 226816, Note_on_c, 4, 73, 121
7, 227072, Note_on_c, 4, 73, 0
7, 227328, Note_on_c, 4, 74, 122
7, 228864, Note_on_c, 4, 74, 0
7, 230400, Control_c, 4, 121, 127
7, 230400, End_track
8, 0, Start_track
8, 0, Title_t, "Violin II"
8, 0, Program_c, 5, 48
8, 0, Control_c, 5, 121, 127
8, 0, Control_c, 5, 91, 127
8, 0, Control_c, 5, 1, 5
8, 0, Control_c, 5, 10, 50
8, 0, Control_c, 5, 11, 90
8, 6656, Note_on_c, 5, 78, 80
8, 6861, Note_on_c, 5, 78, 0
8, 6912, Note_on_c, 5, 74, 80
8, 7117, Note_on_c, 5, 74, 0
8, 7168, Note_on_c, 5, 76, 81
8, 7373, Note_on_c, 5, 76, 0
8, 7424, Note_on_c, 5, 73, 81
8, 7629, Note_on_c, 5, 73, 0
8, 7680, Note_on_c, 5, 74, 82
8, 7936, Note_on_c, 5, 74, 0
8, 8192, Note_on_c, 5, 69, 82
8, 8397, Note_on_c, 5, 69, 0
8, 8448, Note_on_c, 5, 74, 83
8, 8653, Note_on_c, 5, 74, 0
8, 8704, Note_on_c, 5, 73, 83
8, 8909, Note_on_c, 5, 73, 0
8, 8960, Note_on_c, 5, 76, 84
8, 9165, Note_on_c, 5, 76, 0
8, 9216, Note_on_c, 5, 74, 84
8, 9421, Note_on_c, 5, 74, 0
8, 9472, Note_on_c, 5, 76, 84
8, 9677, Note_on_c, 5, 76, 0
8, 9728, Note_on_c, 5, 78, 85
8, 9933, Note_on_c, 5, 78, 0
8, 9984, Note_on_c, 5, 79, 85
8, 10189, Note_on_c, 5, 79, 0
8, 10240, Note_on_c, 5, 81, 86
8, 10496, Note_on_c, 5, 81, 0
8, 10752, Note_on_c, 5, 69, 86
8, 11008, Note_on_c, 5, 69, 0
8, 11264, Note_on_c, 5, 69, 89
8, 11520, Note_on_c, 5, 69, 0
8, 11776, Note_on_c, 5, 69, 91
8, 12032, Note_on_c, 5, 69, 0
8, 12288, Note_on_c, 5, 69, 93
8, 12544, Note_on_c, 5, 69, 0
8, 12800, Note_on_c, 5, 69, 96
8, 13056, Note_on_c, 5, 69, 0
8, 13312, Note_on_c, 5, 69, 98
8, 13568, Note_on_c, 5, 69, 0
8, 13824, Note_on_c, 5, 69, 100
8, 14080, Note_on_c, 5, 69, 0
8, 14336, Note_on_c, 5, 67, 103
8, 14592, Note_on_c, 5, 67, 0
8, 14848, Note_on_c, 5, 64, 105
8, 15104, Note_on_c, 5, 64, 0
8, 15360, Note_on_c, 5, 62, 107
8, 15616, Note_on_c, 5, 62, 0
8, 15872, Note_on_c, 5, 57, 93
8, 16128, Note_on_c, 5, 57, 0
8, 19456, Note_on_c, 5, 76, 90
8, 19712, Note_on_c, 5, 76, 0
8, 19968, Note_on_c, 5, 74, 91
8, 20224, Note_on_c, 5, 74, 0
8, 20480, Note_on_c, 5, 73, 93
8, 20736, Note_on_c, 5, 73, 0
8, 20992, Note_on_c, 5, 74, 94
8, 21248, Note_on_c, 5, 74, 0
8, 21504, Note_on_c, 5, 73, 95
8, 21760, Note_on_c, 5, 73, 0
8, 22016, Note_on_c, 5, 69, 89
8, 22272, Note_on_c, 5, 69, 0
8, 26624, Note_on_c, 5, 71, 49
8, 26880, Note_on_c, 5, 71, 0
8, 27136, Note_on_c, 5, 69, 51
8, 27392, Note_on_c, 5, 69, 0
8, 27648, Note_on_c, 5, 67, 53
8, 27904, Note_on_c, 5, 67, 0
8, 31232, Note_on_c, 5, 73, 67
8, 31488, Note_on_c, 5, 73, 0
8, 31744, Note_on_c, 5, 70, 69
8, 32000, Note_on_c, 5, 70, 0
8, 32256, Note_on_c, 5, 66, 71
8, 32512, Note_on_c, 5, 66, 0
8, 35840, Note_on_c, 5, 64, 85
8, 36096, Note_on_c, 5, 64, 0
8, 36352, Note_on_c, 5, 62, 90
8, 36608, Note_on_c, 5, 62, 0
8, 36864, Note_on_c, 5, 69, 91
8, 37120, Note_on_c, 5, 69, 0
8, 37376, Note_on_c, 5, 69, 92
8, 37632, Note_on_c, 5, 69, 0
8, 37888, Note_on_c, 5, 69, 93
8, 38144, Note_on_c, 5, 69, 0
8, 38400, Note_on_c, 5, 74, 95
8, 38656, Note_on_c, 5, 74, 0
8, 38912, Note_on_c, 5, 69, 96
8, 39117, Note_on_c, 5, 69, 0
8, 39168, Note_on_c, 5, 66, 97
8, 39373, Note_on_c, 5, 66, 0
8, 39424, Note_on_c, 5, 67, 97
8, 39629, Note_on_c, 5, 67, 0
8, 39680, Note_on_c, 5, 64, 98
8, 39885, Note_on_c, 5, 64, 0
8, 39936, Note_on_c, 5, 66, 99
8, 40192, Note_on_c, 5, 66, 0
8, 40448, Note_on_c, 5, 62, 100
8, 40704, Note_on_c, 5, 62, 0
8, 40960, Note_on_c, 5, 74, 101
8, 41728, Note_on_c, 5, 74, 0
8, 41984, Note_on_c, 5, 73, 104
8, 42189, Note_on_c, 5, 73, 0
8, 42240, Note_on_c, 5, 74, 104
8, 42445, Note_on_c, 5, 74, 0
8, 42496, Note_on_c, 5, 76, 105
8, 42701, Note_on_c, 5, 76, 0
8, 42752, Note_on_c, 5, 73, 106
8, 42957, Note_on_c, 5, 73, 0
8, 43008, Note_on_c, 5, 69, 106
8, 43213, Note_on_c, 5, 69, 0
8, 43264, Note_on_c, 5, 71, 91
8, 43469, Note_on_c, 5, 71, 0
8, 43520, Note_on_c, 5, 73, 86
8, 43776, Note_on_c, 5, 73, 0
8, 44032, Note_on_c, 5, 73, 48
8, 44288, Note_on_c, 5, 73, 0
8, 44544, Note_on_c, 5, 71, 48
8, 44800, Note_on_c, 5, 71, 0
8, 45056, Note_on_c, 5, 73, 48
8, 45312, Note_on_c, 5, 73, 0
8, 45568, Note_on_c, 5, 70, 48
8, 45824, Note_on_c, 5, 70, 0
8, 46080, Note_on_c, 5, 71, 44
8, 46336, Note_on_c, 5, 71, 0
8, 46592, Note_on_c, 5, 66, 61
8, 46848, Note_on_c, 5, 66, 0
8, 50176, Note_on_c, 5, 66, 46
8, 50432, Note_on_c, 5, 66, 0
8, 50688, Note_on_c, 5, 67, 46
8, 50944, Note_on_c, 5, 67, 0
8, 51200, Note_on_c, 5, 71, 46
8, 51328, Note_on_c, 5, 71, 0
8, 51328, Note_on_c, 5, 69, 46
8, 51456, Note_on_c, 5, 69, 0
8, 51456, Note_on_c, 5, 71, 46
8, 51584, Note_on_c, 5, 71, 0
8, 51584, Note_on_c, 5, 69, 47
8, 51712, Note_on_c, 5, 69, 0
8, 51712, Note_on_c, 5, 71, 47
8, 51840, Note_on_c, 5, 71, 0
8, 51840, Note_on_c, 5, 69, 47
8, 51968, Note_on_c, 5, 69, 0
8, 51968, Note_on_c, 5, 67, 47
8, 52096, Note_on_c, 5, 67, 0
8, 52096, Note_on_c, 5, 69, 47
8, 52224, Note_on_c, 5, 69, 0
8, 52224, Note_on_c, 5, 71, 47
8, 53248, Note_on_c, 5, 71, 0
8, 56320, Note_on_c, 5, 66, 40
8, 56576, Note_on_c, 5, 66, 0
8, 56832, Note_on_c, 5, 64, 40
8, 57088, Note_on_c, 5, 64, 0
8, 57344, Note_on_c, 5, 64, 40
8, 57600, Note_on_c, 5, 64, 0
8, 57856, Note_on_c, 5, 59, 40
8, 58112, Note_on_c, 5, 59, 0
8, 58368, Note_on_c, 5, 59, 40
8, 58624, Note_on_c, 5, 59, 0
8, 58880, Note_on_c, 5, 61, 40
8, 59136, Note_on_c, 5, 61, 0
8, 59392, Note_on_c, 5, 62, 40
8, 59648, Note_on_c, 5, 62, 0
8, 59904, Note_on_c, 5, 64, 40
8, 61696, Note_on_c, 5, 64, 0
8, 61952, Note_on_c, 5, 61, 40
8, 62208, Note_on_c, 5, 61, 0
8, 62464, Note_on_c, 5, 64, 40
8, 62720, Note_on_c, 5, 64, 0
8, 62976, Note_on_c, 5, 69, 40
8, 63232, Note_on_c, 5, 69, 0
8, 63488, Note_on_c, 5, 66, 40
8, 63744, Note_on_c, 5, 66, 0
8, 64000, Note_on_c, 5, 64, 40
8, 64256, Note_on_c, 5, 64, 0
8, 64512, Note_on_c, 5, 62, 40
8, 64768, Note_on_c, 5, 62, 0
8, 68096, Note_on_c, 5, 68, 54
8, 68352, Note_on_c, 5, 68, 0
8, 68608, Note_on_c, 5, 65, 57
8, 68864, Note_on_c, 5, 65, 0
8, 69120, Note_on_c, 5, 61, 59
8, 69376, Note_on_c, 5, 61, 0
8, 72704, Note_on_c, 5, 71, 75
8, 72960, Note_on_c, 5, 71, 0
8, 73216, Note_on_c, 5, 69, 78
8, 73472, Note_on_c, 5, 69, 0
8, 73728, Note_on_c, 5, 76, 80
8, 73984, Note_on_c, 5, 76, 0
8, 74240, Note_on_c, 5, 76, 82
8, 74445, Note_on_c, 5, 76, 0
8, 74496, Note_on_c, 5, 76, 83
8, 74701, Note_on_c, 5, 76, 0
8, 74752, Note_on_c, 5, 76, 85
8, 74957, Note_on_c, 5, 76, 0
8, 75008, Note_on_c, 5, 76, 86
8, 75213, Note_on_c, 5, 76, 0
8, 75264, Note_on_c, 5, 81, 87
8, 75520, Note_on_c, 5, 81, 0
8, 75776, Note_on_c, 5, 76, 89
8, 75981, Note_on_c, 5, 76, 0
8, 76032, Note_on_c, 5, 73, 90
8, 76237, Note_on_c, 5, 73, 0
8, 76288, Note_on_c, 5, 74, 92
8, 76493, Note_on_c, 5, 74, 0
8, 76544, Note_on_c, 5, 71, 93
8, 76749, Note_on_c, 5, 71, 0
8, 76800, Note_on_c, 5, 73, 94
8, 77005, Note_on_c, 5, 73, 0
8, 77056, Note_on_c, 5, 74, 95
8, 77261, Note_on_c, 5, 74, 0
8, 77312, Note_on_c, 5, 73, 96
8, 77517, Note_on_c, 5, 73, 0
8, 77568, Note_on_c, 5, 71, 97
8, 77773, Note_on_c, 5, 71, 0
8, 77824, Note_on_c, 5, 69, 99
8, 78592, Note_on_c, 5, 69, 0
8, 78848, Note_on_c, 5, 68, 100
8, 79053, Note_on_c, 5, 68, 0
8, 79104, Note_on_c, 5, 69, 100
8, 79309, Note_on_c, 5, 69, 0
8, 79360, Note_on_c, 5, 71, 100
8, 79565, Note_on_c, 5, 71, 0
8, 79616, Note_on_c, 5, 68, 100
8, 79821, Note_on_c, 5, 68, 0
8, 79872, Note_on_c, 5, 69, 100
8, 80128, Note_on_c, 5, 69, 0
8, 80384, Note_on_c, 5, 68, 90
8, 80589, Note_on_c, 5, 68, 0
8, 80640, Note_on_c, 5, 66, 63
8, 80845, Note_on_c, 5, 66, 0
8, 80896, Note_on_c, 5, 68, 44
8, 81152, Note_on_c, 5, 68, 0
8, 81408, Note_on_c, 5, 66, 44
8, 81664, Note_on_c, 5, 66, 0
8, 81920, Note_on_c, 5, 68, 45
8, 82176, Note_on_c, 5, 68, 0
8, 82432, Note_on_c, 5, 65, 46
8, 82688, Note_on_c, 5, 65, 0
8, 82944, Note_on_c, 5, 66, 47
8, 84736, Note_on_c, 5, 66, 0
8, 84992, Note_on_c, 5, 65, 104
8, 85248, Note_on_c, 5, 65, 0
8, 85504, Note_on_c, 5, 68, 107
8, 85760, Note_on_c, 5, 68, 0
8, 86016, Note_on_c, 5, 66, 103
8, 86272, Note_on_c, 5, 66, 0
8, 86528, Note_on_c, 5, 61, 82
8, 86784, Note_on_c, 5, 61, 0
8, 90112, Note_on_c, 5, 66, 104
8, 90880, Note_on_c, 5, 66, 0
8, 91136, Note_on_c, 5, 64, 109
8, 91392, Note_on_c, 5, 64, 0
8, 91648, Note_on_c, 5, 69, 111
8, 91904, Note_on_c, 5, 69, 0
8, 92160, Note_on_c, 5, 66, 113
8, 92416, Note_on_c, 5, 66, 0
8, 92672, Note_on_c, 5, 64, 96
8, 92928, Note_on_c, 5, 64, 0
8, 95744, Note_on_c, 5, 61, 41
8, 96000, Note_on_c, 5, 61, 0
8, 96256, Note_on_c, 5, 61, 41
8, 96512, Note_on_c, 5, 61, 0
8, 96768, Note_on_c, 5, 61, 41
8, 97024, Note_on_c, 5, 61, 0
8, 98304, Note_on_c, 5, 66, 41
8, 98560, Note_on_c, 5, 66, 0
8, 99840, Note_on_c, 5, 73, 41
8, 100096, Note_on_c, 5, 73, 0
8, 101376, Note_on_c, 5, 69, 41
8, 101632, Note_on_c, 5, 69, 0
8, 102912, Note_on_c, 5, 69, 41
8, 103168, Note_on_c, 5, 69, 0
8, 104448, Note_on_c, 5, 74, 41
8, 104704, Note_on_c, 5, 74, 0
8, 105984, Note_on_c, 5, 71, 41
8, 106240, Note_on_c, 5, 71, 0
8, 107520, Note_on_c, 5, 67, 41
8, 107776, Note_on_c, 5, 67, 0
8, 109056, Note_on_c, 5, 67, 41
8, 109312, Note_on_c, 5, 67, 0
8, 110592, Note_on_c, 5, 76, 41
8, 110848, Note_on_c, 5, 76, 0
8, 112128, Note_on_c, 5, 73, 41
8, 112384, Note_on_c, 5, 73, 0
8, 113664, Note_on_c, 5, 70, 41
8, 113920, Note_on_c, 5, 70, 0
8, 115200, Note_on_c, 5, 71, 44
8, 115456, Note_on_c, 5, 71, 0
8, 116736, Note_on_c, 5, 74, 54
8, 116992, Note_on_c, 5, 74, 0
8, 118272, Note_on_c, 5, 71, 65
8, 118528, Note_on_c, 5, 71, 0
8, 119808, Note_on_c, 5, 68, 75
8, 120064, Note_on_c, 5, 68, 0
8, 121344, Note_on_c, 5, 64, 85
8, 121549, Note_on_c, 5, 64, 0
8, 121600, Note_on_c, 5, 62, 87
8, 121805, Note_on_c, 5, 62, 0
8, 121856, Note_on_c, 5, 61, 89
8, 122061, Note_on_c, 5, 61, 0
8, 122112, Note_on_c, 5, 64, 90
8, 122317, Note_on_c, 5, 64, 0
8, 122368, Note_on_c, 5, 62, 92
8, 122573, Note_on_c, 5, 62, 0
8, 122624, Note_on_c, 5, 66, 94
8, 122829, Note_on_c, 5, 66, 0
8, 122880, Note_on_c, 5, 64, 96
8, 123085, Note_on_c, 5, 64, 0
8, 123136, Note_on_c, 5, 62, 97
8, 123341, Note_on_c, 5, 62, 0
8, 123392, Note_on_c, 5, 64, 99
8, 123597, Note_on_c, 5, 64, 0
8, 123648, Note_on_c, 5, 66, 101
8, 123853, Note_on_c, 5, 66, 0
8, 123904, Note_on_c, 5, 62, 98
8, 124109, Note_on_c, 5, 62, 0
8, 124160, Note_on_c, 5, 64, 99
8, 124365, Note_on_c, 5, 64, 0
8, 124416, Note_on_c, 5, 66, 97
8, 124672, Note_on_c, 5, 66, 0
8, 124928, Note_on_c, 5, 62, 102
8, 125184, Note_on_c, 5, 62, 0
8, 126976, Note_on_c, 5, 62, 103
8, 127232, Note_on_c, 5, 62, 0
8, 127488, Note_on_c, 5, 61, 98
8, 127744, Note_on_c, 5, 61, 0
8, 128000, Note_on_c, 5, 69, 103
8, 128256, Note_on_c, 5, 69, 0
8, 130048, Note_on_c, 5, 69, 105
8, 130304, Note_on_c, 5, 69, 0
8, 130560, Note_on_c, 5, 69, 99
8, 130765, Note_on_c, 5, 69, 0
8, 130816, Note_on_c, 5, 74, 98
8, 131021, Note_on_c, 5, 74, 0
8, 131072, Note_on_c, 5, 78, 99
8, 131277, Note_on_c, 5, 78, 0
8, 131328, Note_on_c, 5, 74, 100
8, 131533, Note_on_c, 5, 74, 0
8, 131584, Note_on_c, 5, 76, 101
8, 131789, Note_on_c, 5, 76, 0
8, 131840, Note_on_c, 5, 73, 101
8, 132045, Note_on_c, 5, 73, 0
8, 132096, Note_on_c, 5, 81, 102
8, 132352, Note_on_c, 5, 81, 0
8, 133632, Note_on_c, 5, 69, 107
8, 133837, Note_on_c, 5, 69, 0
8, 133888, Note_on_c, 5, 71, 107
8, 134093, Note_on_c, 5, 71, 0
8, 134144, Note_on_c, 5, 72, 108
8, 134349, Note_on_c, 5, 72, 0
8, 134400, Note_on_c, 5, 71, 109
8, 134605, Note_on_c, 5, 71, 0
8, 134656, Note_on_c, 5, 72, 110
8, 134861, Note_on_c, 5, 72, 0
8, 134912, Note_on_c, 5, 69, 110
8, 135117, Note_on_c, 5, 69, 0
8, 135168, Note_on_c, 5, 66, 111
8, 135424, Note_on_c, 5, 66, 0
8, 136704, Note_on_c, 5, 71, 93
8, 136909, Note_on_c, 5, 71, 0
8, 136960, Note_on_c, 5, 69, 94
8, 137165, Note_on_c, 5, 69, 0
8, 137216, Note_on_c, 5, 67, 94
8, 137421, Note_on_c, 5, 67, 0
8, 137472, Note_on_c, 5, 71, 95
8, 137677, Note_on_c, 5, 71, 0
8, 137728, Note_on_c, 5, 69, 96
8, 137933, Note_on_c, 5, 69, 0
8, 137984, Note_on_c, 5, 72, 96
8, 138189, Note_on_c, 5, 72, 0
8, 138240, Note_on_c, 5, 71, 97
8, 138496, Note_on_c, 5, 71, 0
8, 139776, Note_on_c, 5, 69, 102
8, 139981, Note_on_c, 5, 69, 0
8, 140032, Note_on_c, 5, 71, 102
8, 140237, Note_on_c, 5, 71, 0
8, 140288, Note_on_c, 5, 73, 103
8, 140493, Note_on_c, 5, 73, 0
8, 140544, Note_on_c, 5, 76, 104
8, 140749, Note_on_c, 5, 76, 0
8, 140800, Note_on_c, 5, 74, 104
8, 141005, Note_on_c, 5, 74, 0
8, 141056, Note_on_c, 5, 78, 105
8, 141261, Note_on_c, 5, 78, 0
8, 141312, Note_on_c, 5, 76, 106
8, 141568, Note_on_c, 5, 76, 0
8, 143360, Note_on_c, 5, 62, 111
8, 143616, Note_on_c, 5, 62, 0
8, 143872, Note_on_c, 5, 66, 109
8, 144128, Note_on_c, 5, 66, 0
8, 144384, Note_on_c, 5, 71, 106
8, 146125, Note_on_c, 5, 71, 0
8, 146176, Note_on_c, 5, 69, 110
8, 146381, Note_on_c, 5, 69, 0
8, 146432, Note_on_c, 5, 71, 111
8, 146637, Note_on_c, 5, 71, 0
8, 146688, Note_on_c, 5, 73, 113
8, 146893, Note_on_c, 5, 73, 0
8, 146944, Note_on_c, 5, 75, 114
8, 147149, Note_on_c, 5, 75, 0
8, 147200, Note_on_c, 5, 71, 115
8, 147405, Note_on_c, 5, 71, 0
8, 147456, Note_on_c, 5, 76, 117
8, 147661, Note_on_c, 5, 76, 0
8, 147712, Note_on_c, 5, 75, 118
8, 147917, Note_on_c, 5, 75, 0
8, 147968, Note_on_c, 5, 76, 117
8, 148173, Note_on_c, 5, 76, 0
8, 148224, Note_on_c, 5, 78, 115
8, 148429, Note_on_c, 5, 78, 0
8, 148480, Note_on_c, 5, 79, 114
8, 148685, Note_on_c, 5, 79, 0
8, 148736, Note_on_c, 5, 76, 112
8, 148941, Note_on_c, 5, 76, 0
8, 148992, Note_on_c, 5, 81, 110
8, 149248, Note_on_c, 5, 81, 0
8, 149504, Note_on_c, 5, 69, 107
8, 149760, Note_on_c, 5, 69, 0
8, 150016, Note_on_c, 5, 71, 103
8, 150272, Note_on_c, 5, 71, 0
8, 150528, Note_on_c, 5, 73, 96
8, 150733, Note_on_c, 5, 73, 0
8, 150784, Note_on_c, 5, 74, 97
8, 150989, Note_on_c, 5, 74, 0
8, 151040, Note_on_c, 5, 76, 99
8, 152269, Note_on_c, 5, 76, 0
8, 152320, Note_on_c, 5, 73, 105
8, 152525, Note_on_c, 5, 73, 0
8, 152576, Note_on_c, 5, 69, 106
8, 152781, Note_on_c, 5, 69, 0
8, 152832, Note_on_c, 5, 71, 107
8, 153037, Note_on_c, 5, 71, 0
8, 153088, Note_on_c, 5, 73, 108
8, 153293, Note_on_c, 5, 73, 0
8, 153344, Note_on_c, 5, 69, 110
8, 153549, Note_on_c, 5, 69, 0
8, 153600, Note_on_c, 5, 74, 111
8, 153856, Note_on_c, 5, 74, 0
8, 154112, Note_on_c, 5, 69, 103
8, 154317, Note_on_c, 5, 69, 0
8, 154368, Note_on_c, 5, 67, 99
8, 154573, Note_on_c, 5, 67, 0
8, 154624, Note_on_c, 5, 69, 94
8, 154829, Note_on_c, 5, 69, 0
8, 154880, Note_on_c, 5, 66, 95
8, 155085, Note_on_c, 5, 66, 0
8, 155136, Note_on_c, 5, 62, 96
8, 155392, Note_on_c, 5, 62, 0
8, 155648, Note_on_c, 5, 71, 99
8, 155904, Note_on_c, 5, 71, 0
8, 156160, Note_on_c, 5, 67, 102
8, 156416, Note_on_c, 5, 67, 0
8, 156672, Note_on_c, 5, 64, 105
8, 156928, Note_on_c, 5, 64, 0
8, 157184, Note_on_c, 5, 73, 107
8, 157440, Note_on_c, 5, 73, 0
8, 157696, Note_on_c, 5, 69, 110
8, 157952, Note_on_c, 5, 69, 0
8, 158208, Note_on_c, 5, 66, 113
8, 158464, Note_on_c, 5, 66, 0
8, 158720, Note_on_c, 5, 71, 116
8, 158976, Note_on_c, 5, 71, 0
8, 159232, Note_on_c, 5, 64, 118
8, 159488, Note_on_c, 5, 64, 0
8, 159744, Note_on_c, 5, 66, 121
8, 160768, Note_on_c, 5, 66, 0
8, 166912, Note_on_c, 5, 69, 100
8, 167168, Note_on_c, 5, 69, 0
8, 167424, Note_on_c, 5, 69, 102
8, 167680, Note_on_c, 5, 69, 0
8, 167936, Note_on_c, 5, 69, 104
8, 168192, Note_on_c, 5, 69, 0
8, 168448, Note_on_c, 5, 69, 105
8, 168704, Note_on_c, 5, 69, 0
8, 168960, Note_on_c, 5, 69, 107
8, 169216, Note_on_c, 5, 69, 0
8, 169472, Note_on_c, 5, 69, 109
8, 169728, Note_on_c, 5, 69, 0
8, 169984, Note_on_c, 5, 69, 111
8, 170240, Note_on_c, 5, 69, 0
8, 170496, Note_on_c, 5, 69, 113
8, 170752, Note_on_c, 5, 69, 0
8, 171008, Note_on_c, 5, 67, 114
8, 171264, Note_on_c, 5, 67, 0
8, 171520, Note_on_c, 5, 64, 116
8, 171776, Note_on_c, 5, 64, 0
8, 172032, Note_on_c, 5, 62, 118
8, 172288, Note_on_c, 5, 62, 0
8, 172544, Note_on_c, 5, 57, 84
8, 172800, Note_on_c, 5, 57, 0
8, 176128, Note_on_c, 5, 76, 101
8, 176384, Note_on_c, 5, 76, 0
8, 176640, Note_on_c, 5, 69, 109
8, 176896, Note_on_c, 5, 69, 0
8, 177152, Note_on_c, 5, 69, 113
8, 177408, Note_on_c, 5, 69, 0
8, 177664, Note_on_c, 5, 69, 117
8, 177920, Note_on_c, 5, 69, 0
8, 178176, Note_on_c, 5, 69, 121
8, 179115, Note_on_c, 5, 69, 0
8, 179200, Note_on_c, 5, 62, 96
8, 179456, Note_on_c, 5, 62, 0
8, 179712, Note_on_c, 5, 69, 103
8, 179968, Note_on_c, 5, 69, 0
8, 180224, Note_on_c, 5, 69, 94
8, 180480, Note_on_c, 5, 69, 0
8, 180736, Note_on_c, 5, 69, 99
8, 180992, Note_on_c, 5, 69, 0
8, 181248, Note_on_c, 5, 74, 103
8, 181504, Note_on_c, 5, 74, 0
8, 181760, Note_on_c, 5, 69, 93
8, 181965, Note_on_c, 5, 69, 0
8, 182016, Note_on_c, 5, 66, 93
8, 182221, Note_on_c, 5, 66, 0
8, 182272, Note_on_c, 5, 67, 94
8, 182477, Note_on_c, 5, 67, 0
8, 182528, Note_on_c, 5, 64, 94
8, 182733, Note_on_c, 5, 64, 0
8, 182784, Note_on_c, 5, 66, 107
8, 183040, Note_on_c, 5, 66, 0
8, 183296, Note_on_c, 5, 66, 93
8, 183552, Note_on_c, 5, 66, 0
8, 183808, Note_on_c, 5, 66, 98
8, 184064, Note_on_c, 5, 66, 0
8, 184320, Note_on_c, 5, 69, 104
8, 184576, Note_on_c, 5, 69, 0
8, 184832, Note_on_c, 5, 66, 95
8, 185037, Note_on_c, 5, 66, 0
8, 185088, Note_on_c, 5, 62, 95
8, 185293, Note_on_c, 5, 62, 0
8, 185344, Note_on_c, 5, 64, 96
8, 185549, Note_on_c, 5, 64, 0
8, 185600, Note_on_c, 5, 61, 96
8, 185805, Note_on_c, 5, 61, 0
8, 185856, Note_on_c, 5, 62, 96
8, 186112, Note_on_c, 5, 62, 0
8, 186368, Note_on_c, 5, 62, 97
8, 186624, Note_on_c, 5, 62, 0
8, 186880, Note_on_c, 5, 62, 98
8, 187136, Note_on_c, 5, 62, 0
8, 187392, Note_on_c, 5, 62, 99
8, 187597, Note_on_c, 5, 62, 0
8, 187648, Note_on_c, 5, 66, 99
8, 187853, Note_on_c, 5, 66, 0
8, 187904, Note_on_c, 5, 64, 99
8, 188109, Note_on_c, 5, 64, 0
8, 188160, Note_on_c, 5, 61, 100
8, 188365, Note_on_c, 5, 61, 0
8, 188416, Note_on_c, 5, 62, 100
8, 188621, Note_on_c, 5, 62, 0
8, 188672, Note_on_c, 5, 64, 101
8, 188877, Note_on_c, 5, 64, 0
8, 188928, Note_on_c, 5, 66, 101
8, 189133, Note_on_c, 5, 66, 0
8, 189184, Note_on_c, 5, 69, 101
8, 189389, Note_on_c, 5, 69, 0
8, 189440, Note_on_c, 5, 67, 102
8, 189645, Note_on_c, 5, 67, 0
8, 189696, Note_on_c, 5, 64, 102
8, 189901, Note_on_c, 5, 64, 0
8, 189952, Note_on_c, 5, 66, 103
8, 190157, Note_on_c, 5, 66, 0
8, 190208, Note_on_c, 5, 62, 103
8, 190413, Note_on_c, 5, 62, 0
8, 190464, Note_on_c, 5, 57, 103
8, 190720, Note_on_c, 5, 57, 0
8, 191488, Note_on_c, 5, 61, 76
8, 191744, Note_on_c, 5, 61, 0
8, 192000, Note_on_c, 5, 62, 79
8, 192256, Note_on_c, 5, 62, 0
8, 192512, Note_on_c, 5, 57, 81
8, 192768, Note_on_c, 5, 57, 0
8, 194560, Note_on_c, 5, 62, 91
8, 194816, Note_on_c, 5, 62, 0
8, 195072, Note_on_c, 5, 61, 93
8, 195328, Note_on_c, 5, 61, 0
8, 195584, Note_on_c, 5, 69, 96
8, 195840, Note_on_c, 5, 69, 0
8, 197632, Note_on_c, 5, 69, 105
8, 197888, Note_on_c, 5, 69, 0
8, 198144, Note_on_c, 5, 74, 108
8, 198349, Note_on_c, 5, 74, 0
8, 198400, Note_on_c, 5, 76, 108
8, 198605, Note_on_c, 5, 76, 0
8, 198656, Note_on_c, 5, 78, 108
8, 198861, Note_on_c, 5, 78, 0
8, 198912, Note_on_c, 5, 74, 109
8, 199117, Note_on_c, 5, 74, 0
8, 199168, Note_on_c, 5, 76, 109
8, 199373, Note_on_c, 5, 76, 0
8, 199424, Note_on_c, 5, 73, 110
8, 199629, Note_on_c, 5, 73, 0
8, 199680, Note_on_c, 5, 81, 110
8, 199936, Note_on_c, 5, 81, 0
8, 201216, Note_on_c, 5, 69, 112
8, 201421, Note_on_c, 5, 69, 0
8, 201472, Note_on_c, 5, 71, 113
8, 201677, Note_on_c, 5, 71, 0
8, 201728, Note_on_c, 5, 72, 113
8, 201933, Note_on_c, 5, 72, 0
8, 201984, Note_on_c, 5, 71, 114
8, 202189, Note_on_c, 5, 71, 0
8, 202240, Note_on_c, 5, 72, 114
8, 202445, Note_on_c, 5, 72, 0
8, 202496, Note_on_c, 5, 69, 114
8, 202701, Note_on_c, 5, 69, 0
8, 202752, Note_on_c, 5, 66, 115
8, 203008, Note_on_c, 5, 66, 0
8, 204288, Note_on_c, 5, 71, 117
8, 204493, Note_on_c, 5, 71, 0
8, 204544, Note_on_c, 5, 69, 118
8, 204749, Note_on_c, 5, 69, 0
8, 204800, Note_on_c, 5, 67, 117
8, 205005, Note_on_c, 5, 67, 0
8, 205056, Note_on_c, 5, 71, 116
8, 205261, Note_on_c, 5, 71, 0
8, 205312, Note_on_c, 5, 69, 115
8, 205517, Note_on_c, 5, 69, 0
8, 205568, Note_on_c, 5, 72, 114
8, 205773, Note_on_c, 5, 72, 0
8, 205824, Note_on_c, 5, 71, 113
8, 206080, Note_on_c, 5, 71, 0
8, 207360, Note_on_c, 5, 69, 107
8, 207565, Note_on_c, 5, 69, 0
8, 207616, Note_on_c, 5, 71, 106
8, 207821, Note_on_c, 5, 71, 0
8, 207872, Note_on_c, 5, 73, 105
8, 208077, Note_on_c, 5, 73, 0
8, 208128, Note_on_c, 5, 76, 104
8, 208333, Note_on_c, 5, 76, 0
8, 208384, Note_on_c, 5, 74, 103
8, 208589, Note_on_c, 5, 74, 0
8, 208640, Note_on_c, 5, 78, 103
8, 208845, Note_on_c, 5, 78, 0
8, 208896, Note_on_c, 5, 76, 102
8, 209152, Note_on_c, 5, 76, 0
8, 210944, Note_on_c, 5, 62, 96
8, 211200, Note_on_c, 5, 62, 0
8, 211456, Note_on_c, 5, 66, 96
8, 211712, Note_on_c, 5, 66, 0
8, 211968, Note_on_c, 5, 71, 96
8, 213709, Note_on_c, 5, 71, 0
8, 213760, Note_on_c, 5, 69, 96
8, 213965, Note_on_c, 5, 69, 0
8, 214016, Note_on_c, 5, 71, 96
8, 214221, Note_on_c, 5, 71, 0
8, 214272, Note_on_c, 5, 73, 96
8, 214477, Note_on_c, 5, 73, 0
8, 214528, Note_on_c, 5, 75, 96
8, 214733, Note_on_c, 5, 75, 0
8, 214784, Note_on_c, 5, 71, 96
8, 214989, Note_on_c, 5, 71, 0
8, 215040, Note_on_c, 5, 76, 96
8, 215245, Note_on_c, 5, 76, 0
8, 215296, Note_on_c, 5, 75, 96
8, 215501, Note_on_c, 5, 75, 0
8, 215552, Note_on_c, 5, 76, 96
8, 215757, Note_on_c, 5, 76, 0
8, 215808, Note_on_c, 5, 78, 96
8, 216013, Note_on_c, 5, 78, 0
8, 216064, Note_on_c, 5, 79, 96
8, 216269, Note_on_c, 5, 79, 0
8, 216320, Note_on_c, 5, 76, 96
8, 216525, Note_on_c, 5, 76, 0
8, 216576, Note_on_c, 5, 81, 96
8, 216832, Note_on_c, 5, 81, 0
8, 217088, Note_on_c, 5, 69, 96
8, 217344, Note_on_c, 5, 69, 0
8, 217600, Note_on_c, 5, 71, 96
8, 217856, Note_on_c, 5, 71, 0
8, 218112, Note_on_c, 5, 73, 96
8, 218317, Note_on_c, 5, 73, 0
8, 218368, Note_on_c, 5, 74, 96
8, 218573, Note_on_c, 5, 74, 0
8, 218624, Note_on_c, 5, 76, 96
8, 219853, Note_on_c, 5, 76, 0
8, 219904, Note_on_c, 5, 73, 96
8, 220109, Note_on_c, 5, 73, 0
8, 220160, Note_on_c, 5, 69, 96
8, 220365, Note_on_c, 5, 69, 0
8, 220416, Note_on_c, 5, 71, 96
8, 220621, Note_on_c, 5, 71, 0
8, 220672, Note_on_c, 5, 73, 96
8, 220877, Note_on_c, 5, 73, 0
8, 220928, Note_on_c, 5, 69, 96
8, 221133, Note_on_c, 5, 69, 0
8, 221184, Note_on_c, 5, 74, 97
8, 221440, Note_on_c, 5, 74, 0
8, 221696, Note_on_c, 5, 69, 85
8, 221901, Note_on_c, 5, 69, 0
8, 221952, Note_on_c, 5, 67, 79
8, 222157, Note_on_c, 5, 67, 0
8, 222208, Note_on_c, 5, 69, 80
8, 222413, Note_on_c, 5, 69, 0
8, 222464, Note_on_c, 5, 66, 83
8, 222669, Note_on_c, 5, 66, 0
8, 222720, Note_on_c, 5, 62, 86
8, 222976, Note_on_c, 5, 62, 0
8, 223232, Note_on_c, 5, 71, 91
8, 223488, Note_on_c, 5, 71, 0
8, 223744, Note_on_c, 5, 67, 96
8, 224000, Note_on_c, 5, 67, 0
8, 224256, Note_on_c, 5, 64, 102
8, 224512, Note_on_c, 5, 64, 0
8, 224768, Note_on_c, 5, 73, 107
8, 225024, Note_on_c, 5, 73, 0
8, 225280, Note_on_c, 5, 69, 112
8, 225536, Note_on_c, 5, 69, 0
8, 225792, Note_on_c, 5, 66, 118
8, 226048, Note_on_c, 5, 66, 0
8, 226304, Note_on_c, 5, 71, 120
8, 226560, Note_on_c, 5, 71, 0
8, 226816, Note_on_c, 5, 64, 121
8, 227072, Note_on_c, 5, 64, 0
8, 227328, Note_on_c, 5, 66, 122
8, 228864, Note_on_c, 5, 66, 0
8, 230400, Control_c, 5, 121, 127
8, 230400, End_track
9, 0, Start_track
9, 0, Title_t, "Viola"
9, 0, Program_c, 6, 48
9, 0, Control_c, 6, 121, 127
9, 0, Control_c, 6, 91, 127
9, 0, Control_c, 6, 1, 5
9, 0, Control_c, 6, 10, 80
9, 0, Control_c, 6, 11, 90
9, 8192, Note_on_c, 6, 57, 82
9, 8448, Note_on_c, 6, 57, 0
9, 8704, Note_on_c, 6, 57, 83
9, 8960, Note_on_c, 6, 57, 0
9, 9216, Note_on_c, 6, 57, 84
9, 9472, Note_on_c, 6, 57, 0
9, 9728, Note_on_c, 6, 62, 85
9, 9984, Note_on_c, 6, 62, 0
9, 10240, Note_on_c, 6, 62, 86
9, 10496, Note_on_c, 6, 62, 0
9, 10752, Note_on_c, 6, 64, 86
9, 11008, Note_on_c, 6, 64, 0
9, 11264, Note_on_c, 6, 64, 89
9, 11520, Note_on_c, 6, 64, 0
9, 11776, Note_on_c, 6, 61, 91
9, 12032, Note_on_c, 6, 61, 0
9, 12288, Note_on_c, 6, 57, 93
9, 12544, Note_on_c, 6, 57, 0
9, 12800, Note_on_c, 6, 57, 96
9, 13056, Note_on_c, 6, 57, 0
9, 13312, Note_on_c, 6, 57, 98
9, 13568, Note_on_c, 6, 57, 0
9, 13824, Note_on_c, 6, 57, 100
9, 14080, Note_on_c, 6, 57, 0
9, 14336, Note_on_c, 6, 62, 103
9, 14592, Note_on_c, 6, 62, 0
9, 14848, Note_on_c, 6, 61, 105
9, 15104, Note_on_c, 6, 61, 0
9, 15360, Note_on_c, 6, 57, 107
9, 15616, Note_on_c, 6, 57, 0
9, 15872, Note_on_c, 6, 54, 93
9, 16128, Note_on_c, 6, 54, 0
9, 19456, Note_on_c, 6, 61, 90
9, 19712, Note_on_c, 6, 61, 0
9, 19968, Note_on_c, 6, 57, 91
9, 20224, Note_on_c, 6, 57, 0
9, 20480, Note_on_c, 6, 64, 93
9, 20736, Note_on_c, 6, 64, 0
9, 20992, Note_on_c, 6, 69, 94
9, 21248, Note_on_c, 6, 69, 0
9, 21504, Note_on_c, 6, 69, 95
9, 21760, Note_on_c, 6, 69, 0
9, 22016, Note_on_c, 6, 64, 89
9, 22272, Note_on_c, 6, 64, 0
9, 26624, Note_on_c, 6, 67, 49
9, 26880, Note_on_c, 6, 67, 0
9, 27136, Note_on_c, 6, 66, 51
9, 27392, Note_on_c, 6, 66, 0
9, 27648, Note_on_c, 6, 62, 53
9, 27904, Note_on_c, 6, 62, 0
9, 31232, Note_on_c, 6, 69, 67
9, 31488, Note_on_c, 6, 69, 0
9, 31744, Note_on_c, 6, 73, 69
9, 32000, Note_on_c, 6, 73, 0
9, 32256, Note_on_c, 6, 71, 71
9, 32512, Note_on_c, 6, 71, 0
9, 35840, Note_on_c, 6, 61, 85
9, 36096, Note_on_c, 6, 61, 0
9, 36352, Note_on_c, 6, 62, 90
9, 36608, Note_on_c, 6, 62, 0
9, 36864, Note_on_c, 6, 69, 91
9, 37120, Note_on_c, 6, 69, 0
9, 37376, Note_on_c, 6, 69, 92
9, 37632, Note_on_c, 6, 69, 0
9, 37888, Note_on_c, 6, 69, 93
9, 38144, Note_on_c, 6, 69, 0
9, 38400, Note_on_c, 6, 74, 95
9, 38656, Note_on_c, 6, 74, 0
9, 38912, Note_on_c, 6, 69, 96
9, 39117, Note_on_c, 6, 69, 0
9, 39168, Note_on_c, 6, 66, 97
9, 39373, Note_on_c, 6, 66, 0
9, 39424, Note_on_c, 6, 67, 97
9, 39629, Note_on_c, 6, 67, 0
9, 39680, Note_on_c, 6, 64, 98
9, 39885, Note_on_c, 6, 64, 0
9, 39936, Note_on_c, 6, 66, 99
9, 40192, Note_on_c, 6, 66, 0
9, 40448, Note_on_c, 6, 57, 100
9, 40704, Note_on_c, 6, 57, 0
9, 40960, Note_on_c, 6, 69, 101
9, 41728, Note_on_c, 6, 69, 0
9, 41984, Note_on_c, 6, 64, 104
9, 42240, Note_on_c, 6, 64, 0
9, 42496, Note_on_c, 6, 69, 105
9, 42752, Note_on_c, 6, 69, 0
9, 43008, Note_on_c, 6, 69, 106
9, 43264, Note_on_c, 6, 69, 0
9, 43520, Note_on_c, 6, 69, 86
9, 43776, Note_on_c, 6, 69, 0
9, 44032, Note_on_c, 6, 61, 48
9, 44288, Note_on_c, 6, 61, 0
9, 44544, Note_on_c, 6, 66, 48
9, 44800, Note_on_c, 6, 66, 0
9, 45056, Note_on_c, 6, 67, 48
9, 45312, Note_on_c, 6, 67, 0
9, 45568, Note_on_c, 6, 66, 48
9, 45824, Note_on_c, 6, 66, 0
9, 46080, Note_on_c, 6, 66, 44
9, 46336, Note_on_c, 6, 66, 0
9, 46592, Note_on_c, 6, 62, 61
9, 46848, Note_on_c, 6, 62, 0
9, 50176, Note_on_c, 6, 62, 46
9, 50432, Note_on_c, 6, 62, 0
9, 50688, Note_on_c, 6, 60, 46
9, 50893, Note_on_c, 6, 60, 0
9, 50944, Note_on_c, 6, 59, 46
9, 51149, Note_on_c, 6, 59, 0
9, 51200, Note_on_c, 6, 60, 46
9, 51405, Note_on_c, 6, 60, 0
9, 51456, Note_on_c, 6, 64, 46
9, 51661, Note_on_c, 6, 64, 0
9, 51712, Note_on_c, 6, 62, 47
9, 51968, Note_on_c, 6, 62, 0
9, 52224, Note_on_c, 6, 62, 47
9, 53248, Note_on_c, 6, 62, 0
9, 56320, Note_on_c, 6, 59, 40
9, 56576, Note_on_c, 6, 59, 0
9, 56832, Note_on_c, 6, 71, 40
9, 57088, Note_on_c, 6, 71, 0
9, 57344, Note_on_c, 6, 69, 40
9, 57600, Note_on_c, 6, 69, 0
9, 57856, Note_on_c, 6, 66, 40
9, 58112, Note_on_c, 6, 66, 0
9, 58368, Note_on_c, 6, 64, 40
9, 59392, Note_on_c, 6, 64, 0
9, 59392, Note_on_c, 6, 62, 40
9, 59648, Note_on_c, 6, 62, 0
9, 59904, Note_on_c, 6, 61, 40
9, 60109, Note_on_c, 6, 61, 0
9, 60160, Note_on_c, 6, 62, 40
9, 60365, Note_on_c, 6, 62, 0
9, 60416, Note_on_c, 6, 64, 40
9, 60621, Note_on_c, 6, 64, 0
9, 60672, Note_on_c, 6, 61, 40
9, 60877, Note_on_c, 6, 61, 0
9, 60928, Note_on_c, 6, 62, 40
9, 61133, Note_on_c, 6, 62, 0
9, 61184, Note_on_c, 6, 59, 40
9, 61389, Note_on_c, 6, 59, 0
9, 61440, Note_on_c, 6, 61, 40
9, 61696, Note_on_c, 6, 61, 0
9, 61952, Note_on_c, 6, 64, 40
9, 62208, Note_on_c, 6, 64, 0
9, 62464, Note_on_c, 6, 61, 40
9, 62720, Note_on_c, 6, 61, 0
9, 62976, Note_on_c, 6, 57, 40
9, 63232, Note_on_c, 6, 57, 0
9, 63488, Note_on_c, 6, 62, 40
9, 63744, Note_on_c, 6, 62, 0
9, 64000, Note_on_c, 6, 61, 40
9, 64256, Note_on_c, 6, 61, 0
9, 64512, Note_on_c, 6, 57, 40
9, 64768, Note_on_c, 6, 57, 0
9, 68096, Note_on_c, 6, 64, 54
9, 68352, Note_on_c, 6, 64, 0
9, 68608, Note_on_c, 6, 68, 57
9, 68864, Note_on_c, 6, 68, 0
9, 69120, Note_on_c, 6, 66, 59
9, 69376, Note_on_c, 6, 66, 0
9, 72704, Note_on_c, 6, 68, 75
9, 72960, Note_on_c, 6, 68, 0
9, 73216, Note_on_c, 6, 69, 78
9, 73472, Note_on_c, 6, 69, 0
9, 73728, Note_on_c, 6, 76, 80
9, 73984, Note_on_c, 6, 76, 0
9, 74240, Note_on_c, 6, 76, 82
9, 74445, Note_on_c, 6, 76, 0
9, 74496, Note_on_c, 6, 76, 83
9, 74701, Note_on_c, 6, 76, 0
9, 74752, Note_on_c, 6, 76, 85
9, 74957, Note_on_c, 6, 76, 0
9, 75008, Note_on_c, 6, 76, 86
9, 75213, Note_on_c, 6, 76, 0
9, 75264, Note_on_c, 6, 69, 87
9, 75520, Note_on_c, 6, 69, 0
9, 75776, Note_on_c, 6, 76, 89
9, 75981, Note_on_c, 6, 76, 0
9, 76032, Note_on_c, 6, 73, 90
9, 76237, Note_on_c, 6, 73, 0
9, 76288, Note_on_c, 6, 74, 92
9, 76493, Note_on_c, 6, 74, 0
9, 76544, Note_on_c, 6, 71, 93
9, 76749, Note_on_c, 6, 71, 0
9, 76800, Note_on_c, 6, 73, 94
9, 77056, Note_on_c, 6, 73, 0
9, 77312, Note_on_c, 6, 69, 96
9, 77568, Note_on_c, 6, 69, 0
9, 77824, Note_on_c, 6, 64, 99
9, 78592, Note_on_c, 6, 64, 0
9, 78848, Note_on_c, 6, 64, 100
9, 79104, Note_on_c, 6, 64, 0
9, 79360, Note_on_c, 6, 64, 100
9, 79616, Note_on_c, 6, 64, 0
9, 79872, Note_on_c, 6, 64, 100
9, 80128, Note_on_c, 6, 64, 0
9, 80384, Note_on_c, 6, 64, 90
9, 80640, Note_on_c, 6, 64, 0
9, 80896, Note_on_c, 6, 68, 44
9, 81152, Note_on_c, 6, 68, 0
9, 81408, Note_on_c, 6, 61, 44
9, 81664, Note_on_c, 6, 61, 0
9, 81920, Note_on_c, 6, 62, 45
9, 82176, Note_on_c, 6, 62, 0
9, 82432, Note_on_c, 6, 61, 46
9, 82688, Note_on_c, 6, 61, 0
9, 82944, Note_on_c, 6, 61, 47
9, 84736, Note_on_c, 6, 61, 0
9, 84992, Note_on_c, 6, 61, 104
9, 85248, Note_on_c, 6, 61, 0
9, 85504, Note_on_c, 6, 61, 107
9, 85760, Note_on_c, 6, 61, 0
9, 86016, Note_on_c, 6, 61, 103
9, 86272, Note_on_c, 6, 61, 0
9, 86528, Note_on_c, 6, 66, 82
9, 86784, Note_on_c, 6, 66, 0
9, 90112, Note_on_c, 6, 57, 104
9, 90368, Note_on_c, 6, 57, 0
9, 90624, Note_on_c, 6, 69, 107
9, 90880, Note_on_c, 6, 69, 0
9, 91136, Note_on_c, 6, 69, 109
9, 91392, Note_on_c, 6, 69, 0
9, 91648, Note_on_c, 6, 57, 111
9, 91904, Note_on_c, 6, 57, 0
9, 92160, Note_on_c, 6, 57, 113
9, 92416, Note_on_c, 6, 57, 0
9, 92672, Note_on_c, 6, 69, 96
9, 92928, Note_on_c, 6, 69, 0
9, 95744, Note_on_c, 6, 66, 41
9, 96000, Note_on_c, 6, 66, 0
9, 96256, Note_on_c, 6, 66, 41
9, 96512, Note_on_c, 6, 66, 0
9, 96768, Note_on_c, 6, 64, 41
9, 97024, Note_on_c, 6, 64, 0
9, 98304, Note_on_c, 6, 67, 41
9, 98560, Note_on_c, 6, 67, 0
9, 99840, Note_on_c, 6, 64, 41
9, 100096, Note_on_c, 6, 64, 0
9, 101376, Note_on_c, 6, 61, 41
9, 101632, Note_on_c, 6, 61, 0
9, 102912, Note_on_c, 6, 62, 41
9, 103168, Note_on_c, 6, 62, 0
9, 104448, Note_on_c, 6, 66, 41
9, 104704, Note_on_c, 6, 66, 0
9, 105984, Note_on_c, 6, 62, 41
9, 106240, Note_on_c, 6, 62, 0
9, 107520, Note_on_c, 6, 59, 41
9, 107776, Note_on_c, 6, 59, 0
9, 109056, Note_on_c, 6, 61, 41
9, 109312, Note_on_c, 6, 61, 0
9, 110592, Note_on_c, 6, 61, 41
9, 110848, Note_on_c, 6, 61, 0
9, 112128, Note_on_c, 6, 70, 41
9, 112384, Note_on_c, 6, 70, 0
9, 113664, Note_on_c, 6, 66, 41
9, 113920, Note_on_c, 6, 66, 0
9, 115200, Note_on_c, 6, 66, 44
9, 115456, Note_on_c, 6, 66, 0
9, 116736, Note_on_c, 6, 71, 54
9, 116992, Note_on_c, 6, 71, 0
9, 118272, Note_on_c, 6, 68, 65
9, 118528, Note_on_c, 6, 68, 0
9, 119808, Note_on_c, 6, 64, 75
9, 120064, Note_on_c, 6, 64, 0
9, 121344, Note_on_c, 6, 64, 85
9, 121549, Note_on_c, 6, 64, 0
9, 121600, Note_on_c, 6, 62, 87
9, 121805, Note_on_c, 6, 62, 0
9, 121856, Note_on_c, 6, 61, 89
9, 122061, Note_on_c, 6, 61, 0
9, 122112, Note_on_c, 6, 64, 90
9, 122317, Note_on_c, 6, 64, 0
9, 122368, Note_on_c, 6, 62, 92
9, 122573, Note_on_c, 6, 62, 0
9, 122624, Note_on_c, 6, 66, 94
9, 122829, Note_on_c, 6, 66, 0
9, 122880, Note_on_c, 6, 64, 96
9, 123085, Note_on_c, 6, 64, 0
9, 123136, Note_on_c, 6, 62, 97
9, 123341, Note_on_c, 6, 62, 0
9, 123392, Note_on_c, 6, 64, 99
9, 123597, Note_on_c, 6, 64, 0
9, 123648, Note_on_c, 6, 66, 101
9, 123853, Note_on_c, 6, 66, 0
9, 123904, Note_on_c, 6, 62, 98
9, 124109, Note_on_c, 6, 62, 0
9, 124160, Note_on_c, 6, 64, 99
9, 124365, Note_on_c, 6, 64, 0
9, 124416, Note_on_c, 6, 66, 97
9, 124672, Note_on_c, 6, 66, 0
9, 124928, Note_on_c, 6, 62, 102
9, 125184, Note_on_c, 6, 62, 0
9, 126976, Note_on_c, 6, 62, 103
9, 127232, Note_on_c, 6, 62, 0
9, 127488, Note_on_c, 6, 61, 98
9, 127744, Note_on_c, 6, 61, 0
9, 128000, Note_on_c, 6, 69, 103
9, 128256, Note_on_c, 6, 69, 0
9, 130048, Note_on_c, 6, 69, 105
9, 130304, Note_on_c, 6, 69, 0
9, 130560, Note_on_c, 6, 57, 99
9, 130816, Note_on_c, 6, 57, 0
9, 131072, Note_on_c, 6, 62, 99
9, 131328, Note_on_c, 6, 62, 0
9, 131584, Note_on_c, 6, 69, 101
9, 131840, Note_on_c, 6, 69, 0
9, 132096, Note_on_c, 6, 62, 102
9, 132352, Note_on_c, 6, 62, 0
9, 133632, Note_on_c, 6, 62, 107
9, 133888, Note_on_c, 6, 62, 0
9, 134144, Note_on_c, 6, 57, 108
9, 134400, Note_on_c, 6, 57, 0
9, 134656, Note_on_c, 6, 57, 110
9, 134912, Note_on_c, 6, 57, 0
9, 135168, Note_on_c, 6, 69, 111
9, 135424, Note_on_c, 6, 69, 0
9, 136704, Note_on_c, 6, 64, 93
9, 136960, Note_on_c, 6, 64, 0
9, 137216, Note_on_c, 6, 71, 94
9, 137472, Note_on_c, 6, 71, 0
9, 137728, Note_on_c, 6, 71, 96
9, 137984, Note_on_c, 6, 71, 0
9, 138240, Note_on_c, 6, 64, 97
9, 138496, Note_on_c, 6, 64, 0
9, 138752, Note_on_c, 6, 71, 99
9, 139008, Note_on_c, 6, 71, 0
9, 139264, Note_on_c, 6, 71, 100
9, 139520, Note_on_c, 6, 71, 0
9, 139776, Note_on_c, 6, 64, 102
9, 140032, Note_on_c, 6, 64, 0
9, 140288, Note_on_c, 6, 64, 103
9, 140544, Note_on_c, 6, 64, 0
9, 140800, Note_on_c, 6, 69, 104
9, 141056, Note_on_c, 6, 69, 0
9, 141312, Note_on_c, 6, 69, 106
9, 141568, Note_on_c, 6, 69, 0
9, 143360, Note_on_c, 6, 57, 111
9, 143616, Note_on_c, 6, 57, 0
9, 143872, Note_on_c, 6, 62, 109
9, 144128, Note_on_c, 6, 62, 0
9, 144384, Note_on_c, 6, 66, 106
9, 144589, Note_on_c, 6, 66, 0
9, 144640, Note_on_c, 6, 64, 105
9, 144845, Note_on_c, 6, 64, 0
9, 144896, Note_on_c, 6, 66, 103
9, 145101, Note_on_c, 6, 66, 0
9, 145152, Note_on_c, 6, 67, 104
9, 145357, Note_on_c, 6, 67, 0
9, 145408, Note_on_c, 6, 69, 106
9, 145613, Note_on_c, 6, 69, 0
9, 145664, Note_on_c, 6, 66, 107
9, 145869, Note_on_c, 6, 66, 0
9, 145920, Note_on_c, 6, 62, 109
9, 146176, Note_on_c, 6, 62, 0
9, 146432, Note_on_c, 6, 67, 111
9, 146688, Note_on_c, 6, 67, 0
9, 146944, Note_on_c, 6, 69, 114
9, 147200, Note_on_c, 6, 69, 0
9, 147456, Note_on_c, 6, 71, 117
9, 147661, Note_on_c, 6, 71, 0
9, 147712, Note_on_c, 6, 69, 118
9, 147917, Note_on_c, 6, 69, 0
9, 147968, Note_on_c, 6, 67, 117
9, 148173, Note_on_c, 6, 67, 0
9, 148224, Note_on_c, 6, 69, 115
9, 148429, Note_on_c, 6, 69, 0
9, 148480, Note_on_c, 6, 71, 114
9, 148685, Note_on_c, 6, 71, 0
9, 148736, Note_on_c, 6, 67, 112
9, 148941, Note_on_c, 6, 67, 0
9, 148992, Note_on_c, 6, 64, 110
9, 149248, Note_on_c, 6, 64, 0
9, 149504, Note_on_c, 6, 61, 107
9, 149760, Note_on_c, 6, 61, 0
9, 150016, Note_on_c, 6, 64, 103
9, 150784, Note_on_c, 6, 64, 0
9, 151040, Note_on_c, 6, 57, 99
9, 151245, Note_on_c, 6, 57, 0
9, 151296, Note_on_c, 6, 59, 100
9, 151501, Note_on_c, 6, 59, 0
9, 151552, Note_on_c, 6, 61, 101
9, 152320, Note_on_c, 6, 61, 0
9, 152576, Note_on_c, 6, 62, 106
9, 152832, Note_on_c, 6, 62, 0
9, 153088, Note_on_c, 6, 64, 108
9, 153344, Note_on_c, 6, 64, 0
9, 153600, Note_on_c, 6, 57, 111
9, 153856, Note_on_c, 6, 57, 0
9, 154112, Note_on_c, 6, 62, 103
9, 154368, Note_on_c, 6, 62, 0
9, 154624, Note_on_c, 6, 66, 94
9, 154880, Note_on_c, 6, 66, 0
9, 155136, Note_on_c, 6, 67, 96
9, 155392, Note_on_c, 6, 67, 0
9, 155648, Note_on_c, 6, 67, 99
9, 155904, Note_on_c, 6, 67, 0
9, 156160, Note_on_c, 6, 71, 102
9, 156416, Note_on_c, 6, 71, 0
9, 156672, Note_on_c, 6, 69, 105
9, 156928, Note_on_c, 6, 69, 0
9, 157184, Note_on_c, 6, 69, 107
9, 157440, Note_on_c, 6, 69, 0
9, 157696, Note_on_c, 6, 73, 110
9, 157952, Note_on_c, 6, 73, 0
9, 158208, Note_on_c, 6, 71, 113
9, 158464, Note_on_c, 6, 71, 0
9, 158720, Note_on_c, 6, 64, 116
9, 158976, Note_on_c, 6, 64, 0
9, 159232, Note_on_c, 6, 69, 118
9, 159488, Note_on_c, 6, 69, 0
9, 159744, Note_on_c, 6, 69, 121
9, 160768, Note_on_c, 6, 69, 0
9, 166912, Note_on_c, 6, 62, 100
9, 167168, Note_on_c, 6, 62, 0
9, 167424, Note_on_c, 6, 64, 102
9, 167680, Note_on_c, 6, 64, 0
9, 167936, Note_on_c, 6, 64, 104
9, 168192, Note_on_c, 6, 64, 0
9, 168448, Note_on_c, 6, 61, 105
9, 168704, Note_on_c, 6, 61, 0
9, 168960, Note_on_c, 6, 57, 107
9, 169216, Note_on_c, 6, 57, 0
9, 169472, Note_on_c, 6, 57, 109
9, 169728, Note_on_c, 6, 57, 0
9, 169984, Note_on_c, 6, 57, 111
9, 170240, Note_on_c, 6, 57, 0
9, 170496, Note_on_c, 6, 57, 113
9, 170752, Note_on_c, 6, 57, 0
9, 171008, Note_on_c, 6, 62, 114
9, 171264, Note_on_c, 6, 62, 0
9, 171520, Note_on_c, 6, 61, 116
9, 171776, Note_on_c, 6, 61, 0
9, 172032, Note_on_c, 6, 57, 118
9, 172288, Note_on_c, 6, 57, 0
9, 172544, Note_on_c, 6, 54, 84
9, 172800, Note_on_c, 6, 54, 0
9, 176128, Note_on_c, 6, 57, 101
9, 176384, Note_on_c, 6, 57, 0
9, 176640, Note_on_c, 6, 57, 109
9, 176896, Note_on_c, 6, 57, 0
9, 177152, Note_on_c, 6, 62, 113
9, 177408, Note_on_c, 6, 62, 0
9, 177664, Note_on_c, 6, 64, 117
9, 177920, Note_on_c, 6, 64, 0
9, 178176, Note_on_c, 6, 66, 121
9, 179115, Note_on_c, 6, 66, 0
9, 179200, Note_on_c, 6, 62, 96
9, 179456, Note_on_c, 6, 62, 0
9, 179712, Note_on_c, 6, 69, 103
9, 179968, Note_on_c, 6, 69, 0
9, 180224, Note_on_c, 6, 69, 94
9, 180480, Note_on_c, 6, 69, 0
9, 180736, Note_on_c, 6, 69, 99
9, 180992, Note_on_c, 6, 69, 0
9, 181248, Note_on_c, 6, 74, 103
9, 181504, Note_on_c, 6, 74, 0
9, 181760, Note_on_c, 6, 69, 93
9, 181965, Note_on_c, 6, 69, 0
9, 182016, Note_on_c, 6, 66, 93
9, 182221, Note_on_c, 6, 66, 0
9, 182272, Note_on_c, 6, 67, 94
9, 182477, Note_on_c, 6, 67, 0
9, 182528, Note_on_c, 6, 64, 94
9, 182733, Note_on_c, 6, 64, 0
9, 182784, Note_on_c, 6, 66, 107
9, 183040, Note_on_c, 6, 66, 0
9, 183296, Note_on_c, 6, 66, 93
9, 183552, Note_on_c, 6, 66, 0
9, 183808, Note_on_c, 6, 66, 98
9, 184064, Note_on_c, 6, 66, 0
9, 184320, Note_on_c, 6, 69, 104
9, 184576, Note_on_c, 6, 69, 0
9, 184832, Note_on_c, 6, 66, 95
9, 185037, Note_on_c, 6, 66, 0
9, 185088, Note_on_c, 6, 62, 95
9, 185293, Note_on_c, 6, 62, 0
9, 185344, Note_on_c, 6, 64, 96
9, 185549, Note_on_c, 6, 64, 0
9, 185600, Note_on_c, 6, 61, 96
9, 185805, Note_on_c, 6, 61, 0
9, 185856, Note_on_c, 6, 62, 96
9, 186112, Note_on_c, 6, 62, 0
9, 186368, Note_on_c, 6, 62, 97
9, 186624, Note_on_c, 6, 62, 0
9, 186880, Note_on_c, 6, 62, 98
9, 187136, Note_on_c, 6, 62, 0
9, 187392, Note_on_c, 6, 62, 99
9, 187597, Note_on_c, 6, 62, 0
9, 187648, Note_on_c, 6, 66, 99
9, 187853, Note_on_c, 6, 66, 0
9, 187904, Note_on_c, 6, 64, 99
9, 188109, Note_on_c, 6, 64, 0
9, 188160, Note_on_c, 6, 61, 100
9, 188365, Note_on_c, 6, 61, 0
9, 188416, Note_on_c, 6, 62, 100
9, 188621, Note_on_c, 6, 62, 0
9, 188672, Note_on_c, 6, 64, 101
9, 188877, Note_on_c, 6, 64, 0
9, 188928, Note_on_c, 6, 66, 101
9, 189133, Note_on_c, 6, 66, 0
9, 189184, Note_on_c, 6, 69, 101
9, 189389, Note_on_c, 6, 69, 0
9, 189440, Note_on_c, 6, 67, 102
9, 189645, Note_on_c, 6, 67, 0
9, 189696, Note_on_c, 6, 64, 102
9, 189901, Note_on_c, 6, 64, 0
9, 189952, Note_on_c, 6, 66, 103
9, 190157, Note_on_c, 6, 66, 0
9, 190208, Note_on_c, 6, 62, 103
9, 190413, Note_on_c, 6, 62, 0
9, 190464, Note_on_c, 6, 57, 103
9, 190720, Note_on_c, 6, 57, 0
9, 191488, Note_on_c, 6, 61, 76
9, 191744, Note_on_c, 6, 61, 0
9, 192000, Note_on_c, 6, 62, 79
9, 192256, Note_on_c, 6, 62, 0
9, 192512, Note_on_c, 6, 57, 81
9, 192768, Note_on_c, 6, 57, 0
9, 194560, Note_on_c, 6, 62, 91
9, 194816, Note_on_c, 6, 62, 0
9, 195072, Note_on_c, 6, 61, 93
9, 195328, Note_on_c, 6, 61, 0
9, 195584, Note_on_c, 6, 69, 96
9, 195840, Note_on_c, 6, 69, 0
9, 197632, Note_on_c, 6, 66, 105
9, 197888, Note_on_c, 6, 66, 0
9, 198144, Note_on_c, 6, 66, 108
9, 198400, Note_on_c, 6, 66, 0
9, 198656, Note_on_c, 6, 69, 108
9, 198912, Note_on_c, 6, 69, 0
9, 199168, Note_on_c, 6, 69, 109
9, 199424, Note_on_c, 6, 69, 0
9, 199680, Note_on_c, 6, 62, 110
9, 199936, Note_on_c, 6, 62, 0
9, 201216, Note_on_c, 6, 62, 112
9, 201472, Note_on_c, 6, 62, 0
9, 201728, Note_on_c, 6, 57, 113
9, 201984, Note_on_c, 6, 57, 0
9, 202240, Note_on_c, 6, 57, 114
9, 202496, Note_on_c, 6, 57, 0
9, 202752, Note_on_c, 6, 69, 115
9, 203008, Note_on_c, 6, 69, 0
9, 204288, Note_on_c, 6, 64, 117
9, 204544, Note_on_c, 6, 64, 0
9, 204800, Note_on_c, 6, 71, 117
9, 205056, Note_on_c, 6, 71, 0
9, 205312, Note_on_c, 6, 71, 115
9, 205568, Note_on_c, 6, 71, 0
9, 205824, Note_on_c, 6, 64, 113
9, 206080, Note_on_c, 6, 64, 0
9, 207360, Note_on_c, 6, 64, 107
9, 207616, Note_on_c, 6, 64, 0
9, 207872, Note_on_c, 6, 64, 105
9, 208128, Note_on_c, 6, 64, 0
9, 208384, Note_on_c, 6, 69, 103
9, 208640, Note_on_c, 6, 69, 0
9, 208896, Note_on_c, 6, 69, 102
9, 209152, Note_on_c, 6, 69, 0
9, 210944, Note_on_c, 6, 57, 96
9, 211200, Note_on_c, 6, 57, 0
9, 211456, Note_on_c, 6, 62, 96
9, 211712, Note_on_c, 6, 62, 0
9, 211968, Note_on_c, 6, 66, 96
9, 212173, Note_on_c, 6, 66, 0
9, 212224, Note_on_c, 6, 64, 96
9, 212429, Note_on_c, 6, 64, 0
9, 212480, Note_on_c, 6, 66, 96
9, 212685, Note_on_c, 6, 66, 0
9, 212736, Note_on_c, 6, 67, 96
9, 212941, Note_on_c, 6, 67, 0
9, 212992, Note_on_c, 6, 69, 96
9, 213197, Note_on_c, 6, 69, 0
9, 213248, Note_on_c, 6, 66, 96
9, 213453, Note_on_c, 6, 66, 0
9, 213504, Note_on_c, 6, 62, 96
9, 213760, Note_on_c, 6, 62, 0
9, 214016, Note_on_c, 6, 67, 96
9, 214272, Note_on_c, 6, 67, 0
9, 214528, Note_on_c, 6, 69, 96
9, 214784, Note_on_c, 6, 69, 0
9, 215040, Note_on_c, 6, 71, 96
9, 215245, Note_on_c, 6, 71, 0
9, 215296, Note_on_c, 6, 69, 96
9, 215501, Note_on_c, 6, 69, 0
9, 215552, Note_on_c, 6, 67, 96
9, 215757, Note_on_c, 6, 67, 0
9, 215808, Note_on_c, 6, 69, 96
9, 216013, Note_on_c, 6, 69, 0
9, 216064, Note_on_c, 6, 71, 96
9, 216269, Note_on_c, 6, 71, 0
9, 216320, Note_on_c, 6, 67, 96
9, 216525, Note_on_c, 6, 67, 0
9, 216576, Note_on_c, 6, 64, 96
9, 216832, Note_on_c, 6, 64, 0
9, 217088, Note_on_c, 6, 61, 96
9, 217344, Note_on_c, 6, 61, 0
9, 217600, Note_on_c, 6, 64, 96
9, 218368, Note_on_c, 6, 64, 0
9, 218624, Note_on_c, 6, 57, 96
9, 218829, Note_on_c, 6, 57, 0
9, 218880, Note_on_c, 6, 59, 96
9, 219085, Note_on_c, 6, 59, 0
9, 219136, Note_on_c, 6, 61, 96
9, 219904, Note_on_c, 6, 61, 0
9, 220160, Note_on_c, 6, 62, 96
9, 220416, Note_on_c, 6, 62, 0
9, 220672, Note_on_c, 6, 64, 96
9, 220928, Note_on_c, 6, 64, 0
9, 221184, Note_on_c, 6, 57, 97
9, 221440, Note_on_c, 6, 57, 0
9, 221696, Note_on_c, 6, 62, 85
9, 221952, Note_on_c, 6, 62, 0
9, 222208, Note_on_c, 6, 66, 80
9, 222464, Note_on_c, 6, 66, 0
9, 222720, Note_on_c, 6, 67, 86
9, 222976, Note_on_c, 6, 67, 0
9, 223232, Note_on_c, 6, 67, 91
9, 223488, Note_on_c, 6, 67, 0
9, 223744, Note_on_c, 6, 71, 96
9, 224000, Note_on_c, 6, 71, 0
9, 224256, Note_on_c, 6, 69, 102
9, 224512, Note_on_c, 6, 69, 0
9, 224768, Note_on_c, 6, 69, 107
9, 225024, Note_on_c, 6, 69, 0
9, 225280, Note_on_c, 6, 73, 112
9, 225536, Note_on_c, 6, 73, 0
9, 225792, Note_on_c, 6, 71, 118
9, 226048, Note_on_c, 6, 71, 0
9, 226304, Note_on_c, 6, 64, 120
9, 226560, Note_on_c, 6, 64, 0
9, 226816, Note_on_c, 6, 69, 121
9, 227072, Note_on_c, 6, 69, 0
9, 227328, Note_on_c, 6, 69, 122
9, 228864, Note_on_c, 6, 69, 0
9, 230400, Control_c, 6, 121, 127
9, 230400, End_track
10, 0, Start_track
10, 0, Title_t, "Cello"
10, 0, Program_c, 7, 48
10, 0, Control_c, 7, 121, 127
10, 0, Control_c, 7, 91, 127
10, 0, Control_c, 7, 1, 5
10, 0, Control_c, 7, 10, 110
10, 0, Control_c, 7, 11, 90
10, 2048, Note_on_c, 7, 57, 88
10, 2253, Note_on_c, 7, 57, 0
10, 2304, Note_on_c, 7, 54, 88
10, 2509, Note_on_c, 7, 54, 0
10, 2560, Note_on_c, 7, 55, 88
10, 2765, Note_on_c, 7, 55, 0
10, 2816, Note_on_c, 7, 52, 88
10, 3021, Note_on_c, 7, 52, 0
10, 3072, Note_on_c, 7, 54, 88
10, 3328, Note_on_c, 7, 54, 0
10, 3584, Note_on_c, 7, 50, 88
10, 3840, Note_on_c, 7, 50, 0
10, 4096, Note_on_c, 7, 57, 76
10, 4352, Note_on_c, 7, 57, 0
10, 4608, Note_on_c, 7, 62, 77
10, 4864, Note_on_c, 7, 62, 0
10, 5120, Note_on_c, 7, 54, 78
10, 5376, Note_on_c, 7, 54, 0
10, 5632, Note_on_c, 7, 57, 78
10, 5888, Note_on_c, 7, 57, 0
10, 6144, Note_on_c, 7, 50, 79
10, 6400, Note_on_c, 7, 50, 0
10, 6656, Note_on_c, 7, 42, 80
10, 6912, Note_on_c, 7, 42, 0
10, 7168, Note_on_c, 7, 45, 81
10, 7424, Note_on_c, 7, 45, 0
10, 7680, Note_on_c, 7, 50, 82
10, 7936, Note_on_c, 7, 50, 0
10, 8192, Note_on_c, 7, 42, 82
10, 8448, Note_on_c, 7, 42, 0
10, 8704, Note_on_c, 7, 45, 83
10, 8960, Note_on_c, 7, 45, 0
10, 9216, Note_on_c, 7, 38, 84
10, 9472, Note_on_c, 7, 38, 0
10, 9728, Note_on_c, 7, 50, 85
10, 9933, Note_on_c, 7, 50, 0
10, 9984, Note_on_c, 7, 52, 85
10, 10189, Note_on_c, 7, 52, 0
10, 10240, Note_on_c, 7, 54, 86
10, 10445, Note_on_c, 7, 54, 0
10, 10496, Note_on_c, 7, 50, 86
10, 10701, Note_on_c, 7, 50, 0
10, 10752, Note_on_c, 7, 57, 86
10, 11008, Note_on_c, 7, 57, 0
10, 11264, Note_on_c, 7, 57, 89
10, 11520, Note_on_c, 7, 57, 0
10, 11776, Note_on_c, 7, 57, 91
10, 12032, Note_on_c, 7, 57, 0
10, 12288, Note_on_c, 7, 62, 93
10, 12544, Note_on_c, 7, 62, 0
10, 12800, Note_on_c, 7, 57, 96
10, 13005, Note_on_c, 7, 57, 0
10, 13056, Note_on_c, 7, 54, 97
10, 13261, Note_on_c, 7, 54, 0
10, 13312, Note_on_c, 7, 55, 98
10, 13517, Note_on_c, 7, 55, 0
10, 13568, Note_on_c, 7, 52, 99
10, 13773, Note_on_c, 7, 52, 0
10, 13824, Note_on_c, 7, 54, 100
10, 14080, Note_on_c, 7, 54, 0
10, 14336, Note_on_c, 7, 55, 103
10, 14592, Note_on_c, 7, 55, 0
10, 14848, Note_on_c, 7, 57, 105
10, 15104, Note_on_c, 7, 57, 0
10, 15360, Note_on_c, 7, 50, 107
10, 15616, Note_on_c, 7, 50, 0
10, 15872, Note_on_c, 7, 38, 93
10, 16077, Note_on_c, 7, 38, 0
10, 16128, Note_on_c, 7, 40, 76
10, 16333, Note_on_c, 7, 40, 0
10, 16384, Note_on_c, 7, 42, 46
10, 16589, Note_on_c, 7, 42, 0
10, 16640, Note_on_c, 7, 38, 46
10, 16845, Note_on_c, 7, 38, 0
10, 16896, Note_on_c, 7, 43, 46
10, 17152, Note_on_c, 7, 43, 0
10, 17408, Note_on_c, 7, 55, 46
10, 17613, Note_on_c, 7, 55, 0
10, 17664, Note_on_c, 7, 54, 46
10, 17869, Note_on_c, 7, 54, 0
10, 17920, Note_on_c, 7, 56, 46
10, 18125, Note_on_c, 7, 56, 0
10, 18176, Note_on_c, 7, 52, 46
10, 18381, Note_on_c, 7, 52, 0
10, 18432, Note_on_c, 7, 57, 46
10, 18688, Note_on_c, 7, 57, 0
10, 18944, Note_on_c, 7, 45, 46
10, 19149, Note_on_c, 7, 45, 0
10, 19200, Note_on_c, 7, 42, 46
10, 19405, Note_on_c, 7, 42, 0
10, 19456, Note_on_c, 7, 43, 90
10, 19661, Note_on_c, 7, 43, 0
10, 19712, Note_on_c, 7, 40, 91
10, 19917, Note_on_c, 7, 40, 0
10, 19968, Note_on_c, 7, 42, 91
10, 20224, Note_on_c, 7, 42, 0
10, 20480, Note_on_c, 7, 40, 93
10, 20736, Note_on_c, 7, 40, 0
10, 20992, Note_on_c, 7, 38, 94
10, 21248, Note_on_c, 7, 38, 0
10, 21504, Note_on_c, 7, 45, 95
10, 21760, Note_on_c, 7, 45, 0
10, 22016, Note_on_c, 7, 57, 89
10, 22221, Note_on_c, 7, 57, 0
10, 22272, Note_on_c, 7, 59, 57
10, 22477, Note_on_c, 7, 59, 0
10, 22528, Note_on_c, 7, 61, 34
10, 22733, Note_on_c, 7, 61, 0
10, 22784, Note_on_c, 7, 57, 34
10, 22989, Note_on_c, 7, 57, 0
10, 23040, Note_on_c, 7, 62, 35
10, 23296, Note_on_c, 7, 62, 0
10, 23552, Note_on_c, 7, 54, 37
10, 23808, Note_on_c, 7, 54, 0
10, 24064, Note_on_c, 7, 57, 39
10, 24320, Note_on_c, 7, 57, 0
10, 24576, Note_on_c, 7, 50, 41
10, 24832, Note_on_c, 7, 50, 0
10, 25088, Note_on_c, 7, 62, 43
10, 25344, Note_on_c, 7, 62, 0
10, 25600, Note_on_c, 7, 60, 45
10, 25856, Note_on_c, 7, 60, 0
10, 26112, Note_on_c, 7, 59, 47
10, 26368, Note_on_c, 7, 59, 0
10, 26624, Note_on_c, 7, 47, 49
10, 26880, Note_on_c, 7, 47, 0
10, 27136, Note_on_c, 7, 50, 51
10, 27392, Note_on_c, 7, 50, 0
10, 27648, Note_on_c, 7, 43, 53
10, 27904, Note_on_c, 7, 43, 0
10, 28160, Note_on_c, 7, 55, 55
10, 28416, Note_on_c, 7, 55, 0
10, 28672, Note_on_c, 7, 52, 57
10, 28928, Note_on_c, 7, 52, 0
10, 29184, Note_on_c, 7, 57, 59
10, 29440, Note_on_c, 7, 57, 0
10, 29696, Note_on_c, 7, 57, 61
10, 29952, Note_on_c, 7, 57, 0
10, 30208, Note_on_c, 7, 57, 63
10, 30464, Note_on_c, 7, 57, 0
10, 30720, Note_on_c, 7, 57, 65
10, 30976, Note_on_c, 7, 57, 0
10, 31232, Note_on_c, 7, 55, 67
10, 31488, Note_on_c, 7, 55, 0
10, 31744, Note_on_c, 7, 54, 69
10, 32000, Note_on_c, 7, 54, 0
10, 32256, Note_on_c, 7, 59, 71
10, 32512, Note_on_c, 7, 59, 0
10, 32768, Note_on_c, 7, 50, 73
10, 33024, Note_on_c, 7, 50, 0
10, 33280, Note_on_c, 7, 54, 75
10, 33536, Note_on_c, 7, 54, 0
10, 33792, Note_on_c, 7, 47, 77
10, 33997, Note_on_c, 7, 47, 0
10, 34048, Note_on_c, 7, 45, 78
10, 34253, Note_on_c, 7, 45, 0
10, 34304, Note_on_c, 7, 47, 79
10, 34509, Note_on_c, 7, 47, 0
10, 34560, Note_on_c, 7, 49, 80
10, 34765, Note_on_c, 7, 49, 0
10, 34816, Note_on_c, 7, 45, 81
10, 35021, Note_on_c, 7, 45, 0
10, 35072, Note_on_c, 7, 47, 82
10, 35277, Note_on_c, 7, 47, 0
10, 35328, Note_on_c, 7, 49, 83
10, 35533, Note_on_c, 7, 49, 0
10, 35584, Note_on_c, 7, 47, 84
10, 35789, Note_on_c, 7, 47, 0
10, 35840, Note_on_c, 7, 45, 85
10, 36045, Note_on_c, 7, 45, 0
10, 36096, Note_on_c, 7, 49, 86
10, 36301, Note_on_c, 7, 49, 0
10, 36352, Note_on_c, 7, 47, 90
10, 36557, Note_on_c, 7, 47, 0
10, 36608, Note_on_c, 7, 50, 90
10, 36813, Note_on_c, 7, 50, 0
10, 36864, Note_on_c, 7, 49, 91
10, 37069, Note_on_c, 7, 49, 0
10, 37120, Note_on_c, 7, 47, 91
10, 37325, Note_on_c, 7, 47, 0
10, 37376, Note_on_c, 7, 49, 92
10, 37581, Note_on_c, 7, 49, 0
10, 37632, Note_on_c, 7, 50, 93
10, 37837, Note_on_c, 7, 50, 0
10, 37888, Note_on_c, 7, 47, 93
10, 38093, Note_on_c, 7, 47, 0
10, 38144, Note_on_c, 7, 49, 94
10, 38349, Note_on_c, 7, 49, 0
10, 38400, Note_on_c, 7, 50, 95
10, 38656, Note_on_c, 7, 50, 0
10, 38912, Note_on_c, 7, 42, 96
10, 39168, Note_on_c, 7, 42, 0
10, 39424, Note_on_c, 7, 45, 97
10, 39680, Note_on_c, 7, 45, 0
10, 39936, Note_on_c, 7, 38, 99
10, 40141, Note_on_c, 7, 38, 0
10, 40192, Note_on_c, 7, 37, 99
10, 40397, Note_on_c, 7, 37, 0
10, 40448, Note_on_c, 7, 38, 100
10, 40653, Note_on_c, 7, 38, 0
10, 40704, Note_on_c, 7, 40, 101
10, 40909, Note_on_c, 7, 40, 0
10, 40960, Note_on_c, 7, 42, 101
10, 41165, Note_on_c, 7, 42, 0
10, 41216, Note_on_c, 7, 43, 102
10, 41421, Note_on_c, 7, 43, 0
10, 41472, Note_on_c, 7, 45, 103
10, 41677, Note_on_c, 7, 45, 0
10, 41728, Note_on_c, 7, 43, 103
10, 41933, Note_on_c, 7, 43, 0
10, 41984, Note_on_c, 7, 45, 104
10, 42189, Note_on_c, 7, 45, 0
10, 42240, Note_on_c, 7, 47, 104
10, 42445, Note_on_c, 7, 47, 0
10, 42496, Note_on_c, 7, 49, 105
10, 42701, Note_on_c, 7, 49, 0
10, 42752, Note_on_c, 7, 45, 106
10, 42957, Note_on_c, 7, 45, 0
10, 43008, Note_on_c, 7, 50, 106
10, 43264, Note_on_c, 7, 50, 0
10, 43520, Note_on_c, 7, 45, 86
10, 43776, Note_on_c, 7, 45, 0
10, 44032, Note_on_c, 7, 46, 48
10, 44288, Note_on_c, 7, 46, 0
10, 44544, Note_on_c, 7, 47, 48
10, 44800, Note_on_c, 7, 47, 0
10, 45056, Note_on_c, 7, 40, 48
10, 45312, Note_on_c, 7, 40, 0
10, 45568, Note_on_c, 7, 42, 48
10, 45824, Note_on_c, 7, 42, 0
10, 46080, Note_on_c, 7, 47, 44
10, 46285, Note_on_c, 7, 47, 0
10, 46336, Note_on_c, 7, 46, 45
10, 46541, Note_on_c, 7, 46, 0
10, 46592, Note_on_c, 7, 47, 61
10, 46797, Note_on_c, 7, 47, 0
10, 46848, Note_on_c, 7, 49, 77
10, 47053, Note_on_c, 7, 49, 0
10, 47104, Note_on_c, 7, 50, 94
10, 47309, Note_on_c, 7, 50, 0
10, 47360, Note_on_c, 7, 52, 101
10, 47565, Note_on_c, 7, 52, 0
10, 47616, Note_on_c, 7, 54, 106
10, 47821, Note_on_c, 7, 54, 0
10, 47872, Note_on_c, 7, 52, 106
10, 48077, Note_on_c, 7, 52, 0
10, 48128, Note_on_c, 7, 54, 106
10, 48333, Note_on_c, 7, 54, 0
10, 48384, Note_on_c, 7, 56, 106
10, 48589, Note_on_c, 7, 56, 0
10, 48640, Note_on_c, 7, 58, 105
10, 48845, Note_on_c, 7, 58, 0
10, 48896, Note_on_c, 7, 54, 105
10, 49101, Note_on_c, 7, 54, 0
10, 49152, Note_on_c, 7, 59, 105
10, 49408, Note_on_c, 7, 59, 0
10, 49664, Note_on_c, 7, 47, 75
10, 49920, Note_on_c, 7, 47, 0
10, 50176, Note_on_c, 7, 47, 46
10, 50432, Note_on_c, 7, 47, 0
10, 50688, Note_on_c, 7, 47, 46
10, 50944, Note_on_c, 7, 47, 0
10, 51200, Note_on_c, 7, 45, 46
10, 51456, Note_on_c, 7, 45, 0
10, 51712, Note_on_c, 7, 38, 47
10, 51968, Note_on_c, 7, 38, 0
10, 52224, Note_on_c, 7, 43, 47
10, 52429, Note_on_c, 7, 43, 0
10, 52480, Note_on_c, 7, 42, 53
10, 52685, Note_on_c, 7, 42, 0
10, 52736, Note_on_c, 7, 43, 61
10, 52941, Note_on_c, 7, 43, 0
10, 52992, Note_on_c, 7, 45, 69
10, 53197, Note_on_c, 7, 45, 0
10, 53248, Note_on_c, 7, 47, 77
10, 53453, Note_on_c, 7, 47, 0
10, 53504, Note_on_c, 7, 48, 83
10, 53709, Note_on_c, 7, 48, 0
10, 53760, Note_on_c, 7, 50, 88
10, 53965, Note_on_c, 7, 50, 0
10, 54016, Note_on_c, 7, 48, 90
10, 54221, Note_on_c, 7, 48, 0
10, 54272, Note_on_c, 7, 50, 90
10, 54477, Note_on_c, 7, 50, 0
10, 54528, Note_on_c, 7, 52, 90
10, 54733, Note_on_c, 7, 52, 0
10, 54784, Note_on_c, 7, 54, 90
10, 54989, Note_on_c, 7, 54, 0
10, 55040, Note_on_c, 7, 50, 90
10, 55245, Note_on_c, 7, 50, 0
10, 55296, Note_on_c, 7, 55, 90
10, 55552, Note_on_c, 7, 55, 0
10, 55808, Note_on_c, 7, 50, 78
10, 56064, Note_on_c, 7, 50, 0
10, 56320, Note_on_c, 7, 51, 40
10, 56576, Note_on_c, 7, 51, 0
10, 56832, Note_on_c, 7, 52, 40
10, 57088, Note_on_c, 7, 52, 0
10, 57344, Note_on_c, 7, 45, 40
10, 57600, Note_on_c, 7, 45, 0
10, 57856, Note_on_c, 7, 47, 40
10, 58112, Note_on_c, 7, 47, 0
10, 58368, Note_on_c, 7, 52, 40
10, 58573, Note_on_c, 7, 52, 0
10, 58624, Note_on_c, 7, 54, 40
10, 58829, Note_on_c, 7, 54, 0
10, 58880, Note_on_c, 7, 52, 40
10, 59085, Note_on_c, 7, 52, 0
10, 59136, Note_on_c, 7, 50, 40
10, 59341, Note_on_c, 7, 50, 0
10, 59392, Note_on_c, 7, 49, 40
10, 59597, Note_on_c, 7, 49, 0
10, 59648, Note_on_c, 7, 47, 40
10, 59853, Note_on_c, 7, 47, 0
10, 59904, Note_on_c, 7, 45, 40
10, 60160, Note_on_c, 7, 45, 0
10, 60416, Note_on_c, 7, 49, 40
10, 60672, Note_on_c, 7, 49, 0
10, 60928, Note_on_c, 7, 52, 40
10, 61184, Note_on_c, 7, 52, 0
10, 61440, Note_on_c, 7, 57, 40
10, 61696, Note_on_c, 7, 57, 0
10, 61952, Note_on_c, 7, 45, 40
10, 62208, Note_on_c, 7, 45, 0
10, 62464, Note_on_c, 7, 43, 40
10, 62720, Note_on_c, 7, 43, 0
10, 62976, Note_on_c, 7, 42, 40
10, 63232, Note_on_c, 7, 42, 0
10, 63488, Note_on_c, 7, 54, 40
10, 63744, Note_on_c, 7, 54, 0
10, 64000, Note_on_c, 7, 57, 40
10, 64256, Note_on_c, 7, 57, 0
10, 64512, Note_on_c, 7, 62, 40
10, 64768, Note_on_c, 7, 62, 0
10, 65024, Note_on_c, 7, 50, 40
10, 65280, Note_on_c, 7, 50, 0
10, 65536, Note_on_c, 7, 47, 43
10, 65792, Note_on_c, 7, 47, 0
10, 66048, Note_on_c, 7, 52, 45
10, 66304, Note_on_c, 7, 52, 0
10, 66560, Note_on_c, 7, 52, 47
10, 66816, Note_on_c, 7, 52, 0
10, 67072, Note_on_c, 7, 52, 50
10, 67328, Note_on_c, 7, 52, 0
10, 67584, Note_on_c, 7, 52, 52
10, 67840, Note_on_c, 7, 52, 0
10, 68096, Note_on_c, 7, 50, 54
10, 68352, Note_on_c, 7, 50, 0
10, 68608, Note_on_c, 7, 49, 57
10, 68864, Note_on_c, 7, 49, 0
10, 69120, Note_on_c, 7, 54, 59
10, 69376, Note_on_c, 7, 54, 0
10, 69632, Note_on_c, 7, 45, 61
10, 69888, Note_on_c, 7, 45, 0
10, 70144, Note_on_c, 7, 49, 64
10, 70400, Note_on_c, 7, 49, 0
10, 70656, Note_on_c, 7, 54, 66
10, 70861, Note_on_c, 7, 54, 0
10, 70912, Note_on_c, 7, 52, 67
10, 71117, Note_on_c, 7, 52, 0
10, 71168, Note_on_c, 7, 54, 68
10, 71373, Note_on_c, 7, 54, 0
10, 71424, Note_on_c, 7, 56, 69
10, 71629, Note_on_c, 7, 56, 0
10, 71680, Note_on_c, 7, 52, 71
10, 71885, Note_on_c, 7, 52, 0
10, 71936, Note_on_c, 7, 54, 72
10, 72141, Note_on_c, 7, 54, 0
10, 72192, Note_on_c, 7, 56, 73
10, 72397, Note_on_c, 7, 56, 0
10, 72448, Note_on_c, 7, 54, 74
10, 72653, Note_on_c, 7, 54, 0
10, 72704, Note_on_c, 7, 52, 75
10, 72909, Note_on_c, 7, 52, 0
10, 72960, Note_on_c, 7, 56, 76
10, 73165, Note_on_c, 7, 56, 0
10, 73216, Note_on_c, 7, 54, 78
10, 73421, Note_on_c, 7, 54, 0
10, 73472, Note_on_c, 7, 57, 79
10, 73677, Note_on_c, 7, 57, 0
10, 73728, Note_on_c, 7, 56, 80
10, 73933, Note_on_c, 7, 56, 0
10, 73984, Note_on_c, 7, 54, 81
10, 74189, Note_on_c, 7, 54, 0
10, 74240, Note_on_c, 7, 56, 82
10, 74445, Note_on_c, 7, 56, 0
10, 74496, Note_on_c, 7, 57, 83
10, 74701, Note_on_c, 7, 57, 0
10, 74752, Note_on_c, 7, 54, 85
10, 74957, Note_on_c, 7, 54, 0
10, 75008, Note_on_c, 7, 56, 86
10, 75213, Note_on_c, 7, 56, 0
10, 75264, Note_on_c, 7, 57, 87
10, 75520, Note_on_c, 7, 57, 0
10, 75776, Note_on_c, 7, 49, 89
10, 76032, Note_on_c, 7, 49, 0
10, 76288, Note_on_c, 7, 52, 92
10, 76544, Note_on_c, 7, 52, 0
10, 76800, Note_on_c, 7, 45, 94
10, 77005, Note_on_c, 7, 45, 0
10, 77056, Note_on_c, 7, 44, 95
10, 77261, Note_on_c, 7, 44, 0
10, 77312, Note_on_c, 7, 45, 96
10, 77517, Note_on_c, 7, 45, 0
10, 77568, Note_on_c, 7, 47, 97
10, 77773, Note_on_c, 7, 47, 0
10, 77824, Note_on_c, 7, 49, 99
10, 78029, Note_on_c, 7, 49, 0
10, 78080, Note_on_c, 7, 50, 100
10, 78285, Note_on_c, 7, 50, 0
10, 78336, Note_on_c, 7, 52, 100
10, 78541, Note_on_c, 7, 52, 0
10, 78592, Note_on_c, 7, 50, 100
10, 78797, Note_on_c, 7, 50, 0
10, 78848, Note_on_c, 7, 52, 100
10, 79053, Note_on_c, 7, 52, 0
10, 79104, Note_on_c, 7, 54, 100
10, 79309, Note_on_c, 7, 54, 0
10, 79360, Note_on_c, 7, 56, 100
10, 79565, Note_on_c, 7, 56, 0
10, 79616, Note_on_c, 7, 52, 100
10, 79821, Note_on_c, 7, 52, 0
10, 79872, Note_on_c, 7, 57, 100
10, 80128, Note_on_c, 7, 57, 0
10, 80384, Note_on_c, 7, 52, 90
10, 80640, Note_on_c, 7, 52, 0
10, 80896, Note_on_c, 7, 53, 44
10, 81152, Note_on_c, 7, 53, 0
10, 81408, Note_on_c, 7, 54, 44
10, 81664, Note_on_c, 7, 54, 0
10, 81920, Note_on_c, 7, 47, 45
10, 82176, Note_on_c, 7, 47, 0
10, 82432, Note_on_c, 7, 49, 46
10, 82688, Note_on_c, 7, 49, 0
10, 82944, Note_on_c, 7, 42, 47
10, 83149, Note_on_c, 7, 42, 0
10, 83200, Note_on_c, 7, 41, 60
10, 83405, Note_on_c, 7, 41, 0
10, 83456, Note_on_c, 7, 42, 74
10, 83661, Note_on_c, 7, 42, 0
10, 83712, Note_on_c, 7, 44, 88
10, 83917, Note_on_c, 7, 44, 0
10, 83968, Note_on_c, 7, 45, 101
10, 84173, Note_on_c, 7, 45, 0
10, 84224, Note_on_c, 7, 47, 108
10, 84429, Note_on_c, 7, 47, 0
10, 84480, Note_on_c, 7, 49, 109
10, 84685, Note_on_c, 7, 49, 0
10, 84736, Note_on_c, 7, 47, 103
10, 84941, Note_on_c, 7, 47, 0
10, 84992, Note_on_c, 7, 49, 104
10, 85197, Note_on_c, 7, 49, 0
10, 85248, Note_on_c, 7, 51, 105
10, 85453, Note_on_c, 7, 51, 0
10, 85504, Note_on_c, 7, 53, 107
10, 85709, Note_on_c, 7, 53, 0
10, 85760, Note_on_c, 7, 49, 108
10, 85965, Note_on_c, 7, 49, 0
10, 86016, Note_on_c, 7, 54, 103
10, 86272, Note_on_c, 7, 54, 0
10, 86528, Note_on_c, 7, 42, 82
10, 86784, Note_on_c, 7, 42, 0
10, 87040, Note_on_c, 7, 54, 45
10, 87808, Note_on_c, 7, 54, 0
10, 88064, Note_on_c, 7, 52, 54
10, 88320, Note_on_c, 7, 52, 0
10, 88576, Note_on_c, 7, 45, 60
10, 88832, Note_on_c, 7, 45, 0
10, 89088, Note_on_c, 7, 50, 66
10, 89293, Note_on_c, 7, 50, 0
10, 89344, Note_on_c, 7, 49, 75
10, 89549, Note_on_c, 7, 49, 0
10, 89600, Note_on_c, 7, 50, 85
10, 89805, Note_on_c, 7, 50, 0
10, 89856, Note_on_c, 7, 52, 94
10, 90061, Note_on_c, 7, 52, 0
10, 90112, Note_on_c, 7, 54, 104
10, 90317, Note_on_c, 7, 54, 0
10, 90368, Note_on_c, 7, 55, 106
10, 90573, Note_on_c, 7, 55, 0
10, 90624, Note_on_c, 7, 57, 107
10, 90829, Note_on_c, 7, 57, 0
10, 90880, Note_on_c, 7, 55, 108
10, 91085, Note_on_c, 7, 55, 0
10, 91136, Note_on_c, 7, 57, 109
10, 91341, Note_on_c, 7, 57, 0
10, 91392, Note_on_c, 7, 59, 110
10, 91597, Note_on_c, 7, 59, 0
10, 91648, Note_on_c, 7, 61, 111
10, 91853, Note_on_c, 7, 61, 0
10, 91904, Note_on_c, 7, 57, 112
10, 92109, Note_on_c, 7, 57, 0
10, 92160, Note_on_c, 7, 62, 113
10, 92416, Note_on_c, 7, 62, 0
10, 92672, Note_on_c, 7, 57, 96
10, 92928, Note_on_c, 7, 57, 0
10, 93184, Note_on_c, 7, 58, 49
10, 93440, Note_on_c, 7, 58, 0
10, 93696, Note_on_c, 7, 59, 41
10, 93952, Note_on_c, 7, 59, 0
10, 94208, Note_on_c, 7, 52, 41
10, 94464, Note_on_c, 7, 52, 0
10, 94720, Note_on_c, 7, 54, 41
10, 94976, Note_on_c, 7, 54, 0
10, 95232, Note_on_c, 7, 47, 41
10, 95437, Note_on_c, 7, 47, 0
10, 95488, Note_on_c, 7, 46, 41
10, 95693, Note_on_c, 7, 46, 0
10, 95744, Note_on_c, 7, 47, 41
10, 95949, Note_on_c, 7, 47, 0
10, 96000, Note_on_c, 7, 49, 41
10, 96205, Note_on_c, 7, 49, 0
10, 96256, Note_on_c, 7, 50, 41
10, 96461, Note_on_c, 7, 50, 0
10, 96512, Note_on_c, 7, 47, 41
10, 96717, Note_on_c, 7, 47, 0
10, 96768, Note_on_c, 7, 52, 41
10, 97024, Note_on_c, 7, 52, 0
10, 97280, Note_on_c, 7, 55, 41
10, 97536, Note_on_c, 7, 55, 0
10, 97792, Note_on_c, 7, 59, 41
10, 98048, Note_on_c, 7, 59, 0
10, 98304, Note_on_c, 7, 52, 41
10, 98560, Note_on_c, 7, 52, 0
10, 98816, Note_on_c, 7, 55, 41
10, 99072, Note_on_c, 7, 55, 0
10, 99328, Note_on_c, 7, 52, 41
10, 99584, Note_on_c, 7, 52, 0
10, 99840, Note_on_c, 7, 57, 41
10, 100096, Note_on_c, 7, 57, 0
10, 100352, Note_on_c, 7, 49, 41
10, 100608, Note_on_c, 7, 49, 0
10, 100864, Note_on_c, 7, 52, 41
10, 101120, Note_on_c, 7, 52, 0
10, 101376, Note_on_c, 7, 45, 41
10, 101632, Note_on_c, 7, 45, 0
10, 101888, Note_on_c, 7, 49, 41
10, 102144, Note_on_c, 7, 49, 0
10, 102400, Note_on_c, 7, 45, 41
10, 102656, Note_on_c, 7, 45, 0
10, 102912, Note_on_c, 7, 50, 41
10, 103168, Note_on_c, 7, 50, 0
10, 103424, Note_on_c, 7, 54, 41
10, 103680, Note_on_c, 7, 54, 0
10, 103936, Note_on_c, 7, 57, 41
10, 104192, Note_on_c, 7, 57, 0
10, 104448, Note_on_c, 7, 50, 41
10, 104704, Note_on_c, 7, 50, 0
10, 104960, Note_on_c, 7, 54, 41
10, 105216, Note_on_c, 7, 54, 0
10, 105472, Note_on_c, 7, 50, 41
10, 105728, Note_on_c, 7, 50, 0
10, 105984, Note_on_c, 7, 55, 41
10, 106240, Note_on_c, 7, 55, 0
10, 106496, Note_on_c, 7, 47, 41
10, 106752, Note_on_c, 7, 47, 0
10, 107008, Note_on_c, 7, 50, 41
10, 107264, Note_on_c, 7, 50, 0
10, 107520, Note_on_c, 7, 43, 41
10, 107776, Note_on_c, 7, 43, 0
10, 108032, Note_on_c, 7, 47, 41
10, 108288, Note_on_c, 7, 47, 0
10, 108544, Note_on_c, 7, 43, 41
10, 108800, Note_on_c, 7, 43, 0
10, 109056, Note_on_c, 7, 49, 41
10, 109312, Note_on_c, 7, 49, 0
10, 109568, Note_on_c, 7, 52, 41
10, 109824, Note_on_c, 7, 52, 0
10, 110080, Note_on_c, 7, 55, 41
10, 110336, Note_on_c, 7, 55, 0
10, 110592, Note_on_c, 7, 49, 41
10, 110848, Note_on_c, 7, 49, 0
10, 111104, Note_on_c, 7, 52, 41
10, 111360, Note_on_c, 7, 52, 0
10, 111616, Note_on_c, 7, 49, 41
10, 111872, Note_on_c, 7, 49, 0
10, 112128, Note_on_c, 7, 42, 41
10, 112384, Note_on_c, 7, 42, 0
10, 112640, Note_on_c, 7, 46, 41
10, 112896, Note_on_c, 7, 46, 0
10, 113152, Note_on_c, 7, 49, 41
10, 113408, Note_on_c, 7, 49, 0
10, 113664, Note_on_c, 7, 42, 41
10, 113920, Note_on_c, 7, 42, 0
10, 114176, Note_on_c, 7, 46, 41
10, 114432, Note_on_c, 7, 46, 0
10, 114688, Note_on_c, 7, 42, 41
10, 114944, Note_on_c, 7, 42, 0
10, 115200, Note_on_c, 7, 47, 44
10, 115456, Note_on_c, 7, 47, 0
10, 115712, Note_on_c, 7, 50, 48
10, 115968, Note_on_c, 7, 50, 0
10, 116224, Note_on_c, 7, 54, 51
10, 116480, Note_on_c, 7, 54, 0
10, 116736, Note_on_c, 7, 47, 54
10, 116992, Note_on_c, 7, 47, 0
10, 117248, Note_on_c, 7, 50, 58
10, 117504, Note_on_c, 7, 50, 0
10, 117760, Note_on_c, 7, 47, 61
10, 118016, Note_on_c, 7, 47, 0
10, 118272, Note_on_c, 7, 52, 65
10, 118528, Note_on_c, 7, 52, 0
10, 118784, Note_on_c, 7, 44, 68
10, 119040, Note_on_c, 7, 44, 0
10, 119296, Note_on_c, 7, 47, 72
10, 119552, Note_on_c, 7, 47, 0
10, 119808, Note_on_c, 7, 40, 75
10, 120064, Note_on_c, 7, 40, 0
10, 120320, Note_on_c, 7, 44, 78
10, 120576, Note_on_c, 7, 44, 0
10, 120832, Note_on_c, 7, 40, 82
10, 121088, Note_on_c, 7, 40, 0
10, 121344, Note_on_c, 7, 45, 85
10, 123136, Note_on_c, 7, 45, 0
10, 123392, Note_on_c, 7, 57, 99
10, 123597, Note_on_c, 7, 57, 0
10, 123648, Note_on_c, 7, 55, 101
10, 123853, Note_on_c, 7, 55, 0
10, 123904, Note_on_c, 7, 54, 98
10, 124109, Note_on_c, 7, 54, 0
10, 124160, Note_on_c, 7, 52, 99
10, 124365, Note_on_c, 7, 52, 0
10, 124416, Note_on_c, 7, 50, 97
10, 126208, Note_on_c, 7, 50, 0
10, 126464, Note_on_c, 7, 54, 108
10, 126720, Note_on_c, 7, 54, 0
10, 126976, Note_on_c, 7, 57, 103
10, 127232, Note_on_c, 7, 57, 0
10, 127488, Note_on_c, 7, 49, 98
10, 128512, Note_on_c, 7, 49, 0
10, 128512, Note_on_c, 7, 50, 108
10, 129280, Note_on_c, 7, 50, 0
10, 129536, Note_on_c, 7, 49, 111
10, 129792, Note_on_c, 7, 49, 0
10, 130048, Note_on_c, 7, 57, 105
10, 130304, Note_on_c, 7, 57, 0
10, 130560, Note_on_c, 7, 62, 99
10, 130816, Note_on_c, 7, 62, 0
10, 131072, Note_on_c, 7, 57, 99
10, 131277, Note_on_c, 7, 57, 0
10, 131328, Note_on_c, 7, 54, 100
10, 131533, Note_on_c, 7, 54, 0
10, 131584, Note_on_c, 7, 55, 101
10, 131789, Note_on_c, 7, 55, 0
10, 131840, Note_on_c, 7, 52, 101
10, 132045, Note_on_c, 7, 52, 0
10, 132096, Note_on_c, 7, 54, 102
10, 132352, Note_on_c, 7, 54, 0
10, 132608, Note_on_c, 7, 50, 104
10, 132864, Note_on_c, 7, 50, 0
10, 133120, Note_on_c, 7, 57, 105
10, 133376, Note_on_c, 7, 57, 0
10, 133632, Note_on_c, 7, 60, 107
10, 133888, Note_on_c, 7, 60, 0
10, 134144, Note_on_c, 7, 54, 108
10, 134349, Note_on_c, 7, 54, 0
10, 134400, Note_on_c, 7, 51, 109
10, 134605, Note_on_c, 7, 51, 0
10, 134656, Note_on_c, 7, 52, 110
10, 134861, Note_on_c, 7, 52, 0
10, 134912, Note_on_c, 7, 49, 110
10, 135117, Note_on_c, 7, 49, 0
10, 135168, Note_on_c, 7, 51, 111
10, 135424, Note_on_c, 7, 51, 0
10, 135680, Note_on_c, 7, 63, 108
10, 135936, Note_on_c, 7, 63, 0
10, 136192, Note_on_c, 7, 59, 103
10, 136448, Note_on_c, 7, 59, 0
10, 136704, Note_on_c, 7, 64, 93
10, 136960, Note_on_c, 7, 64, 0
10, 137216, Note_on_c, 7, 59, 94
10, 137421, Note_on_c, 7, 59, 0
10, 137472, Note_on_c, 7, 55, 95
10, 137677, Note_on_c, 7, 55, 0
10, 137728, Note_on_c, 7, 57, 96
10, 137933, Note_on_c, 7, 57, 0
10, 137984, Note_on_c, 7, 54, 96
10, 138189, Note_on_c, 7, 54, 0
10, 138240, Note_on_c, 7, 55, 97
10, 138496, Note_on_c, 7, 55, 0
10, 138752, Note_on_c, 7, 52, 99
10, 139008, Note_on_c, 7, 52, 0
10, 139264, Note_on_c, 7, 55, 100
10, 139520, Note_on_c, 7, 55, 0
10, 139776, Note_on_c, 7, 57, 102
10, 140032, Note_on_c, 7, 57, 0
10, 140288, Note_on_c, 7, 52, 103
10, 140493, Note_on_c, 7, 52, 0
10, 140544, Note_on_c, 7, 49, 104
10, 140749, Note_on_c, 7, 49, 0
10, 140800, Note_on_c, 7, 50, 104
10, 141005, Note_on_c, 7, 50, 0
10, 141056, Note_on_c, 7, 47, 105
10, 141261, Note_on_c, 7, 47, 0
10, 141312, Note_on_c, 7, 49, 106
10, 141568, Note_on_c, 7, 49, 0
10, 141824, Note_on_c, 7, 45, 107
10, 142080, Note_on_c, 7, 45, 0
10, 142336, Note_on_c, 7, 49, 109
10, 142592, Note_on_c, 7, 49, 0
10, 142848, Note_on_c, 7, 50, 110
10, 143104, Note_on_c, 7, 50, 0
10, 143360, Note_on_c, 7, 62, 111
10, 143616, Note_on_c, 7, 62, 0
10, 143872, Note_on_c, 7, 61, 109
10, 144128, Note_on_c, 7, 61, 0
10, 144384, Note_on_c, 7, 59, 106
10, 144640, Note_on_c, 7, 59, 0
10, 144896, Note_on_c, 7, 47, 103
10, 145152, Note_on_c, 7, 47, 0
10, 145408, Note_on_c, 7, 45, 106
10, 145664, Note_on_c, 7, 45, 0
10, 145920, Note_on_c, 7, 43, 109
10, 146176, Note_on_c, 7, 43, 0
10, 146432, Note_on_c, 7, 55, 111
10, 146688, Note_on_c, 7, 55, 0
10, 146944, Note_on_c, 7, 54, 114
10, 147200, Note_on_c, 7, 54, 0
10, 147456, Note_on_c, 7, 52, 117
10, 147712, Note_on_c, 7, 52, 0
10, 147968, Note_on_c, 7, 40, 117
10, 148224, Note_on_c, 7, 40, 0
10, 148480, Note_on_c, 7, 38, 114
10, 148736, Note_on_c, 7, 38, 0
10, 148992, Note_on_c, 7, 37, 110
10, 149248, Note_on_c, 7, 37, 0
10, 149504, Note_on_c, 7, 49, 107
10, 149760, Note_on_c, 7, 49, 0
10, 150016, Note_on_c, 7, 47, 103
10, 150272, Note_on_c, 7, 47, 0
10, 150528, Note_on_c, 7, 45, 96
10, 150784, Note_on_c, 7, 45, 0
10, 151040, Note_on_c, 7, 57, 99
10, 151296, Note_on_c, 7, 57, 0
10, 151552, Note_on_c, 7, 55, 101
10, 151808, Note_on_c, 7, 55, 0
10, 152064, Note_on_c, 7, 54, 103
10, 152320, Note_on_c, 7, 54, 0
10, 152576, Note_on_c, 7, 42, 106
10, 152832, Note_on_c, 7, 42, 0
10, 153088, Note_on_c, 7, 40, 108
10, 153344, Note_on_c, 7, 40, 0
10, 153600, Note_on_c, 7, 38, 111
10, 153856, Note_on_c, 7, 38, 0
10, 154112, Note_on_c, 7, 54, 103
10, 154368, Note_on_c, 7, 54, 0
10, 154624, Note_on_c, 7, 50, 94
10, 154880, Note_on_c, 7, 50, 0
10, 155136, Note_on_c, 7, 43, 96
10, 155392, Note_on_c, 7, 43, 0
10, 155648, Note_on_c, 7, 55, 99
10, 155904, Note_on_c, 7, 55, 0
10, 156160, Note_on_c, 7, 52, 102
10, 156416, Note_on_c, 7, 52, 0
10, 156672, Note_on_c, 7, 45, 105
10, 156928, Note_on_c, 7, 45, 0
10, 157184, Note_on_c, 7, 57, 107
10, 157440, Note_on_c, 7, 57, 0
10, 157696, Note_on_c, 7, 54, 110
10, 157952, Note_on_c, 7, 54, 0
10, 158208, Note_on_c, 7, 47, 113
10, 158464, Note_on_c, 7, 47, 0
10, 158720, Note_on_c, 7, 43, 116
10, 158976, Note_on_c, 7, 43, 0
10, 159232, Note_on_c, 7, 45, 118
10, 159488, Note_on_c, 7, 45, 0
10, 159744, Note_on_c, 7, 38, 121
10, 160000, Note_on_c, 7, 38, 0
10, 160256, Note_on_c, 7, 50, 89
10, 160461, Note_on_c, 7, 50, 0
10, 160512, Note_on_c, 7, 52, 62
10, 160717, Note_on_c, 7, 52, 0
10, 160768, Note_on_c, 7, 54, 45
10, 160973, Note_on_c, 7, 54, 0
10, 161024, Note_on_c, 7, 50, 45
10, 161229, Note_on_c, 7, 50, 0
10, 161280, Note_on_c, 7, 57, 46
10, 161536, Note_on_c, 7, 57, 0
10, 162304, Note_on_c, 7, 45, 48
10, 162560, Note_on_c, 7, 45, 0
10, 162816, Note_on_c, 7, 47, 50
10, 163072, Note_on_c, 7, 47, 0
10, 163840, Note_on_c, 7, 59, 52
10, 164096, Note_on_c, 7, 59, 0
10, 164352, Note_on_c, 7, 55, 54
10, 164608, Note_on_c, 7, 55, 0
10, 165376, Note_on_c, 7, 52, 56
10, 165632, Note_on_c, 7, 52, 0
10, 165888, Note_on_c, 7, 49, 57
10, 166144, Note_on_c, 7, 49, 0
10, 166400, Note_on_c, 7, 45, 79
10, 166656, Note_on_c, 7, 45, 0
10, 166912, Note_on_c, 7, 50, 100
10, 167168, Note_on_c, 7, 50, 0
10, 167424, Note_on_c, 7, 57, 102
10, 167680, Note_on_c, 7, 57, 0
10, 167936, Note_on_c, 7, 57, 104
10, 168192, Note_on_c, 7, 57, 0
10, 168448, Note_on_c, 7, 57, 105
10, 168704, Note_on_c, 7, 57, 0
10, 168960, Note_on_c, 7, 62, 107
10, 169216, Note_on_c, 7, 62, 0
10, 169472, Note_on_c, 7, 57, 109
10, 169677, Note_on_c, 7, 57, 0
10, 169728, Note_on_c, 7, 54, 110
10, 169933, Note_on_c, 7, 54, 0
10, 169984, Note_on_c, 7, 55, 111
10, 170189, Note_on_c, 7, 55, 0
10, 170240, Note_on_c, 7, 52, 112
10, 170445, Note_on_c, 7, 52, 0
10, 170496, Note_on_c, 7, 54, 113
10, 170752, Note_on_c, 7, 54, 0
10, 171008, Note_on_c, 7, 55, 114
10, 171264, Note_on_c, 7, 55, 0
10, 171520, Note_on_c, 7, 57, 116
10, 171776, Note_on_c, 7, 57, 0
10, 172032, Note_on_c, 7, 50, 118
10, 172288, Note_on_c, 7, 50, 0
10, 172544, Note_on_c, 7, 38, 84
10, 172749, Note_on_c, 7, 38, 0
10, 172800, Note_on_c, 7, 40, 51
10, 173005, Note_on_c, 7, 40, 0
10, 173056, Note_on_c, 7, 42, 52
10, 173261, Note_on_c, 7, 42, 0
10, 173312, Note_on_c, 7, 38, 54
10, 173517, Note_on_c, 7, 38, 0
10, 173568, Note_on_c, 7, 43, 56
10, 173824, Note_on_c, 7, 43, 0
10, 174080, Note_on_c, 7, 55, 59
10, 174285, Note_on_c, 7, 55, 0
10, 174336, Note_on_c, 7, 54, 61
10, 174541, Note_on_c, 7, 54, 0
10, 174592, Note_on_c, 7, 56, 63
10, 174797, Note_on_c, 7, 56, 0
10, 174848, Note_on_c, 7, 52, 64
10, 175053, Note_on_c, 7, 52, 0
10, 175104, Note_on_c, 7, 57, 66
10, 175360, Note_on_c, 7, 57, 0
10, 175616, Note_on_c, 7, 45, 70
10, 175821, Note_on_c, 7, 45, 0
10, 175872, Note_on_c, 7, 47, 98
10, 176077, Note_on_c, 7, 47, 0
10, 176128, Note_on_c, 7, 49, 101
10, 176333, Note_on_c, 7, 49, 0
10, 176384, Note_on_c, 7, 45, 104
10, 176589, Note_on_c, 7, 45, 0
10, 176640, Note_on_c, 7, 50, 109
10, 176896, Note_on_c, 7, 50, 0
10, 177152, Note_on_c, 7, 42, 113
10, 177408, Note_on_c, 7, 42, 0
10, 177664, Note_on_c, 7, 45, 117
10, 177920, Note_on_c, 7, 45, 0
10, 178176, Note_on_c, 7, 38, 121
10, 179115, Note_on_c, 7, 38, 0
10, 179200, Note_on_c, 7, 50, 96
10, 179456, Note_on_c, 7, 50, 0
10, 179712, Note_on_c, 7, 57, 103
10, 179968, Note_on_c, 7, 57, 0
10, 180224, Note_on_c, 7, 57, 94
10, 180480, Note_on_c, 7, 57, 0
10, 180736, Note_on_c, 7, 57, 99
10, 180992, Note_on_c, 7, 57, 0
10, 181248, Note_on_c, 7, 62, 103
10, 181504, Note_on_c, 7, 62, 0
10, 181760, Note_on_c, 7, 57, 93
10, 181965, Note_on_c, 7, 57, 0
10, 182016, Note_on_c, 7, 54, 93
10, 182221, Note_on_c, 7, 54, 0
10, 182272, Note_on_c, 7, 55, 94
10, 182477, Note_on_c, 7, 55, 0
10, 182528, Note_on_c, 7, 52, 94
10, 182733, Note_on_c, 7, 52, 0
10, 182784, Note_on_c, 7, 54, 107
10, 183040, Note_on_c, 7, 54, 0
10, 183296, Note_on_c, 7, 54, 93
10, 183552, Note_on_c, 7, 54, 0
10, 183808, Note_on_c, 7, 54, 98
10, 184064, Note_on_c, 7, 54, 0
10, 184320, Note_on_c, 7, 57, 104
10, 184576, Note_on_c, 7, 57, 0
10, 184832, Note_on_c, 7, 54, 95
10, 185037, Note_on_c, 7, 54, 0
10, 185088, Note_on_c, 7, 50, 95
10, 185293, Note_on_c, 7, 50, 0
10, 185344, Note_on_c, 7, 52, 96
10, 185549, Note_on_c, 7, 52, 0
10, 185600, Note_on_c, 7, 49, 96
10, 185805, Note_on_c, 7, 49, 0
10, 185856, Note_on_c, 7, 50, 96
10, 186112, Note_on_c, 7, 50, 0
10, 186368, Note_on_c, 7, 50, 97
10, 186624, Note_on_c, 7, 50, 0
10, 186880, Note_on_c, 7, 50, 98
10, 187136, Note_on_c, 7, 50, 0
10, 187392, Note_on_c, 7, 50, 99
10, 187597, Note_on_c, 7, 50, 0
10, 187648, Note_on_c, 7, 54, 99
10, 187853, Note_on_c, 7, 54, 0
10, 187904, Note_on_c, 7, 52, 99
10, 188109, Note_on_c, 7, 52, 0
10, 188160, Note_on_c, 7, 49, 100
10, 188365, Note_on_c, 7, 49, 0
10, 188416, Note_on_c, 7, 50, 100
10, 188621, Note_on_c, 7, 50, 0
10, 188672, Note_on_c, 7, 52, 101
10, 188877, Note_on_c, 7, 52, 0
10, 188928, Note_on_c, 7, 54, 101
10, 189133, Note_on_c, 7, 54, 0
10, 189184, Note_on_c, 7, 57, 101
10, 189389, Note_on_c, 7, 57, 0
10, 189440, Note_on_c, 7, 55, 102
10, 189645, Note_on_c, 7, 55, 0
10, 189696, Note_on_c, 7, 52, 102
10, 189901, Note_on_c, 7, 52, 0
10, 189952, Note_on_c, 7, 54, 103
10, 190157, Note_on_c, 7, 54, 0
10, 190208, Note_on_c, 7, 50, 103
10, 190413, Note_on_c, 7, 50, 0
10, 190464, Note_on_c, 7, 45, 103
10, 190720, Note_on_c, 7, 45, 0
10, 197632, Note_on_c, 7, 50, 105
10, 197888, Note_on_c, 7, 50, 0
10, 198144, Note_on_c, 7, 62, 108
10, 198400, Note_on_c, 7, 62, 0
10, 198656, Note_on_c, 7, 57, 108
10, 198861, Note_on_c, 7, 57, 0
10, 198912, Note_on_c, 7, 54, 109
10, 199117, Note_on_c, 7, 54, 0
10, 199168, Note_on_c, 7, 55, 109
10, 199373, Note_on_c, 7, 55, 0
10, 199424, Note_on_c, 7, 52, 110
10, 199629, Note_on_c, 7, 52, 0
10, 199680, Note_on_c, 7, 54, 110
10, 199936, Note_on_c, 7, 54, 0
10, 200192, Note_on_c, 7, 50, 111
10, 200448, Note_on_c, 7, 50, 0
10, 200704, Note_on_c, 7, 57, 112
10, 200960, Note_on_c, 7, 57, 0
10, 201216, Note_on_c, 7, 60, 112
10, 201472, Note_on_c, 7, 60, 0
10, 201728, Note_on_c, 7, 54, 113
10, 201933, Note_on_c, 7, 54, 0
10, 201984, Note_on_c, 7, 51, 114
10, 202189, Note_on_c, 7, 51, 0
10, 202240, Note_on_c, 7, 52, 114
10, 202445, Note_on_c, 7, 52, 0
10, 202496, Note_on_c, 7, 49, 114
10, 202701, Note_on_c, 7, 49, 0
10, 202752, Note_on_c, 7, 51, 115
10, 203008, Note_on_c, 7, 51, 0
10, 203264, Note_on_c, 7, 63, 116
10, 203520, Note_on_c, 7, 63, 0
10, 203776, Note_on_c, 7, 59, 117
10, 204032, Note_on_c, 7, 59, 0
10, 204288, Note_on_c, 7, 64, 117
10, 204544, Note_on_c, 7, 64, 0
10, 204800, Note_on_c, 7, 59, 117
10, 205005, Note_on_c, 7, 59, 0
10, 205056, Note_on_c, 7, 55, 116
10, 205261, Note_on_c, 7, 55, 0
10, 205312, Note_on_c, 7, 57, 115
10, 205517, Note_on_c, 7, 57, 0
10, 205568, Note_on_c, 7, 54, 114
10, 205773, Note_on_c, 7, 54, 0
10, 205824, Note_on_c, 7, 55, 113
10, 206080, Note_on_c, 7, 55, 0
10, 206336, Note_on_c, 7, 52, 111
10, 206592, Note_on_c, 7, 52, 0
10, 206848, Note_on_c, 7, 55, 109
10, 207104, Note_on_c, 7, 55, 0
10, 207360, Note_on_c, 7, 57, 107
10, 207616, Note_on_c, 7, 57, 0
10, 207872, Note_on_c, 7, 52, 105
10, 208077, Note_on_c, 7, 52, 0
10, 208128, Note_on_c, 7, 49, 104
10, 208333, Note_on_c, 7, 49, 0
10, 208384, Note_on_c, 7, 50, 103
10, 208589, Note_on_c, 7, 50, 0
10, 208640, Note_on_c, 7, 47, 103
10, 208845, Note_on_c, 7, 47, 0
10, 208896, Note_on_c, 7, 49, 102
10, 209152, Note_on_c, 7, 49, 0
10, 209408, Note_on_c, 7, 45, 100
10, 209664, Note_on_c, 7, 45, 0
10, 209920, Note_on_c, 7, 49, 98
10, 210176, Note_on_c, 7, 49, 0
10, 210432, Note_on_c, 7, 50, 96
10, 210688, Note_on_c, 7, 50, 0
10, 210944, Note_on_c, 7, 62, 96
10, 211200, Note_on_c, 7, 62, 0
10, 211456, Note_on_c, 7, 61, 96
10, 211712, Note_on_c, 7, 61, 0
10, 211968, Note_on_c, 7, 59, 96
10, 212224, Note_on_c, 7, 59, 0
10, 212480, Note_on_c, 7, 47, 96
10, 212736, Note_on_c, 7, 47, 0
10, 212992, Note_on_c, 7, 45, 96
10, 213248, Note_on_c, 7, 45, 0
10, 213504, Note_on_c, 7, 43, 96
10, 213760, Note_on_c, 7, 43, 0
10, 214016, Note_on_c, 7, 55, 96
10, 214272, Note_on_c, 7, 55, 0
10, 214528, Note_on_c, 7, 54, 96
10, 214784, Note_on_c, 7, 54, 0
10, 215040, Note_on_c, 7, 52, 96
10, 215296, Note_on_c, 7, 52, 0
10, 215552, Note_on_c, 7, 40, 96
10, 215808, Note_on_c, 7, 40, 0
10, 216064, Note_on_c, 7, 38, 96
10, 216320, Note_on_c, 7, 38, 0
10, 216576, Note_on_c, 7, 37, 96
10, 216832, Note_on_c, 7, 37, 0
10, 217088, Note_on_c, 7, 49, 96
10, 217344, Note_on_c, 7, 49, 0
10, 217600, Note_on_c, 7, 47, 96
10, 217856, Note_on_c, 7, 47, 0
10, 218112, Note_on_c, 7, 45, 96
10, 218368, Note_on_c, 7, 45, 0
10, 218624, Note_on_c, 7, 57, 96
10, 218880, Note_on_c, 7, 57, 0
10, 219136, Note_on_c, 7, 55, 96
10, 219392, Note_on_c, 7, 55, 0
10, 219648, Note_on_c, 7, 54, 96
10, 219904, Note_on_c, 7, 54, 0
10, 220160, Note_on_c, 7, 42, 96
10, 220416, Note_on_c, 7, 42, 0
10, 220672, Note_on_c, 7, 40, 96
10, 220928, Note_on_c, 7, 40, 0
10, 221184, Note_on_c, 7, 38, 97
10, 221440, Note_on_c, 7, 38, 0
10, 221696, Note_on_c, 7, 42, 85
10, 221952, Note_on_c, 7, 42, 0
10, 222208, Note_on_c, 7, 38, 80
10, 222464, Note_on_c, 7, 38, 0
10, 222720, Note_on_c, 7, 43, 86
10, 222976, Note_on_c, 7, 43, 0
10, 223232, Note_on_c, 7, 55, 91
10, 223488, Note_on_c, 7, 55, 0
10, 223744, Note_on_c, 7, 52, 96
10, 224000, Note_on_c, 7, 52, 0
10, 224256, Note_on_c, 7, 45, 102
10, 224512, Note_on_c, 7, 45, 0
10, 224768, Note_on_c, 7, 57, 107
10, 225024, Note_on_c, 7, 57, 0
10, 225280, Note_on_c, 7, 54, 112
10, 225536, Note_on_c, 7, 54, 0
10, 225792, Note_on_c, 7, 47, 118
10, 226048, Note_on_c, 7, 47, 0
10, 226304, Note_on_c, 7, 43, 120
10, 226560, Note_on_c, 7, 43, 0
10, 226816, Note_on_c, 7, 45, 121
10, 227072, Note_on_c, 7, 45, 0
10, 227328, Note_on_c, 7, 38, 122
10, 228864, Note_on_c, 7, 38, 0
10, 230400, Control_c, 7, 121, 127
10, 230400, End_track
11, 0, Start_track
11, 0, Title_t, "Soprano I"
11, 0, Program_c, 10, 52
11, 0, Control_c, 10, 121, 127
11, 0, Control_c, 10, 91, 127
11, 0, Control_c, 10, 93, 127
11, 0, Control_c, 10, 1, 5
11, 0, Control_c, 10, 10, 20
11, 1024, Note_on_c, 10, 62, 88
11, 1280, Note_on_c, 10, 62, 0
11, 1536, Note_on_c, 10, 69, 88
11, 1792, Note_on_c, 10, 69, 0
11, 2048, Note_on_c, 10, 69, 88
11, 2304, Note_on_c, 10, 69, 0
11, 2560, Note_on_c, 10, 69, 88
11, 2816, Note_on_c, 10, 69, 0
11, 3072, Note_on_c, 10, 74, 88
11, 3328, Note_on_c, 10, 74, 0
11, 3584, Note_on_c, 10, 69, 88
11, 3840, Note_on_c, 10, 69, 0
11, 10240, Note_on_c, 10, 74, 86
11, 10496, Note_on_c, 10, 74, 0
11, 10752, Note_on_c, 10, 73, 86
11, 11008, Note_on_c, 10, 73, 0
11, 11264, Note_on_c, 10, 76, 89
11, 11469, Note_on_c, 10, 76, 0
11, 11520, Note_on_c, 10, 74, 90
11, 11725, Note_on_c, 10, 74, 0
11, 11776, Note_on_c, 10, 76, 91
11, 11981, Note_on_c, 10, 76, 0
11, 12032, Note_on_c, 10, 73, 92
11, 12237, Note_on_c, 10, 73, 0
11, 12288, Note_on_c, 10, 74, 93
11, 12544, Note_on_c, 10, 74, 0
11, 12800, Note_on_c, 10, 73, 96
11, 13005, Note_on_c, 10, 73, 0
11, 13056, Note_on_c, 10, 74, 97
11, 13261, Note_on_c, 10, 74, 0
11, 13312, Note_on_c, 10, 76, 98
11, 13517, Note_on_c, 10, 76, 0
11, 13568, Note_on_c, 10, 73, 99
11, 13773, Note_on_c, 10, 73, 0
11, 13824, Note_on_c, 10, 74, 100
11, 14080, Note_on_c, 10, 74, 0
11, 14336, Note_on_c, 10, 73, 103
11, 14541, Note_on_c, 10, 73, 0
11, 14592, Note_on_c, 10, 71, 104
11, 14797, Note_on_c, 10, 71, 0
11, 14848, Note_on_c, 10, 69, 105
11, 15053, Note_on_c, 10, 69, 0
11, 15104, Note_on_c, 10, 67, 106
11, 15309, Note_on_c, 10, 67, 0
11, 15360, Note_on_c, 10, 66, 107
11, 15616, Note_on_c, 10, 66, 0
11, 15872, Note_on_c, 10, 62, 93
11, 16128, Note_on_c, 10, 62, 0
11, 16384, Note_on_c, 10, 74, 46
11, 16640, Note_on_c, 10, 74, 0
11, 16896, Note_on_c, 10, 72, 46
11, 17101, Note_on_c, 10, 72, 0
11, 17152, Note_on_c, 10, 71, 46
11, 17357, Note_on_c, 10, 71, 0
11, 17408, Note_on_c, 10, 69, 46
11, 17613, Note_on_c, 10, 69, 0
11, 17664, Note_on_c, 10, 67, 46
11, 17869, Note_on_c, 10, 67, 0
11, 19456, Note_on_c, 10, 69, 90
11, 19712, Note_on_c, 10, 69, 0
11, 19968, Note_on_c, 10, 81, 91
11, 20224, Note_on_c, 10, 81, 0
11, 20480, Note_on_c, 10, 79, 93
11, 20736, Note_on_c, 10, 79, 0
11, 20992, Note_on_c, 10, 78, 94
11, 21248, Note_on_c, 10, 78, 0
11, 21504, Note_on_c, 10, 76, 95
11, 21760, Note_on_c, 10, 76, 0
11, 22016, Note_on_c, 10, 69, 89
11, 22272, Note_on_c, 10, 69, 0
11, 25600, Note_on_c, 10, 69, 45
11, 25856, Note_on_c, 10, 69, 0
11, 26112, Note_on_c, 10, 71, 47
11, 26317, Note_on_c, 10, 71, 0
11, 26368, Note_on_c, 10, 69, 48
11, 26573, Note_on_c, 10, 69, 0
11, 26624, Note_on_c, 10, 67, 49
11, 26829, Note_on_c, 10, 67, 0
11, 26880, Note_on_c, 10, 71, 50
11, 27085, Note_on_c, 10, 71, 0
11, 27136, Note_on_c, 10, 69, 51
11, 27341, Note_on_c, 10, 69, 0
11, 27392, Note_on_c, 10, 72, 52
11, 27597, Note_on_c, 10, 72, 0
11, 27648, Note_on_c, 10, 71, 53
11, 27853, Note_on_c, 10, 71, 0
11, 27904, Note_on_c, 10, 69, 54
11, 28109, Note_on_c, 10, 69, 0
11, 28160, Note_on_c, 10, 71, 55
11, 28365, Note_on_c, 10, 71, 0
11, 28416, Note_on_c, 10, 73, 56
11, 28621, Note_on_c, 10, 73, 0
11, 28672, Note_on_c, 10, 69, 57
11, 28877, Note_on_c, 10, 69, 0
11, 28928, Note_on_c, 10, 71, 58
11, 29133, Note_on_c, 10, 71, 0
11, 29184, Note_on_c, 10, 73, 59
11, 29389, Note_on_c, 10, 73, 0
11, 29440, Note_on_c, 10, 76, 60
11, 29645, Note_on_c, 10, 76, 0
11, 29696, Note_on_c, 10, 74, 61
11, 29901, Note_on_c, 10, 74, 0
11, 29952, Note_on_c, 10, 78, 62
11, 30157, Note_on_c, 10, 78, 0
11, 30208, Note_on_c, 10, 76, 63
11, 30413, Note_on_c, 10, 76, 0
11, 30464, Note_on_c, 10, 74, 64
11, 30669, Note_on_c, 10, 74, 0
11, 30720, Note_on_c, 10, 73, 65
11, 30925, Note_on_c, 10, 73, 0
11, 30976, Note_on_c, 10, 71, 66
11, 31181, Note_on_c, 10, 71, 0
11, 31232, Note_on_c, 10, 73, 67
11, 31437, Note_on_c, 10, 73, 0
11, 31488, Note_on_c, 10, 74, 68
11, 31693, Note_on_c, 10, 74, 0
11, 31744, Note_on_c, 10, 76, 69
11, 31949, Note_on_c, 10, 76, 0
11, 32000, Note_on_c, 10, 78, 70
11, 32205, Note_on_c, 10, 78, 0
11, 32256, Note_on_c, 10, 74, 71
11, 32461, Note_on_c, 10, 74, 0
11, 32512, Note_on_c, 10, 76, 72
11, 32717, Note_on_c, 10, 76, 0
11, 32768, Note_on_c, 10, 78, 73
11, 32973, Note_on_c, 10, 78, 0
11, 33024, Note_on_c, 10, 74, 74
11, 33229, Note_on_c, 10, 74, 0
11, 33280, Note_on_c, 10, 76, 75
11, 33485, Note_on_c, 10, 76, 0
11, 33536, Note_on_c, 10, 73, 76
11, 33741, Note_on_c, 10, 73, 0
11, 33792, Note_on_c, 10, 74, 77
11, 34048, Note_on_c, 10, 74, 0
11, 34304, Note_on_c, 10, 71, 79
11, 34560, Note_on_c, 10, 71, 0
11, 34816, Note_on_c, 10, 78, 81
11, 35072, Note_on_c, 10, 78, 0
11, 35328, Note_on_c, 10, 76, 83
11, 35584, Note_on_c, 10, 76, 0
11, 35840, Note_on_c, 10, 64, 85
11, 36096, Note_on_c, 10, 64, 0
11, 36352, Note_on_c, 10, 67, 90
11, 36608, Note_on_c, 10, 67, 0
11, 36864, Note_on_c, 10, 67, 91
11, 37120, Note_on_c, 10, 67, 0
11, 37376, Note_on_c, 10, 69, 92
11, 37581, Note_on_c, 10, 69, 0
11, 37632, Note_on_c, 10, 66, 93
11, 37837, Note_on_c, 10, 66, 0
11, 37888, Note_on_c, 10, 67, 93
11, 38144, Note_on_c, 10, 67, 0
11, 38400, Note_on_c, 10, 66, 95
11, 38656, Note_on_c, 10, 66, 0
11, 38912, Note_on_c, 10, 69, 96
11, 39168, Note_on_c, 10, 69, 0
11, 39424, Note_on_c, 10, 73, 97
11, 39680, Note_on_c, 10, 73, 0
11, 39936, Note_on_c, 10, 74, 99
11, 41728, Note_on_c, 10, 74, 0
11, 41984, Note_on_c, 10, 73, 104
11, 42189, Note_on_c, 10, 73, 0
11, 42240, Note_on_c, 10, 74, 104
11, 42445, Note_on_c, 10, 74, 0
11, 42496, Note_on_c, 10, 76, 105
11, 42701, Note_on_c, 10, 76, 0
11, 42752, Note_on_c, 10, 73, 106
11, 42957, Note_on_c, 10, 73, 0
11, 43008, Note_on_c, 10, 78, 106
11, 43264, Note_on_c, 10, 78, 0
11, 43520, Note_on_c, 10, 76, 86
11, 43776, Note_on_c, 10, 76, 0
11, 44032, Note_on_c, 10, 78, 48
11, 44288, Note_on_c, 10, 78, 0
11, 44544, Note_on_c, 10, 74, 48
11, 44800, Note_on_c, 10, 74, 0
11, 45056, Note_on_c, 10, 76, 48
11, 45261, Note_on_c, 10, 76, 0
11, 45312, Note_on_c, 10, 74, 48
11, 45517, Note_on_c, 10, 74, 0
11, 45568, Note_on_c, 10, 76, 48
11, 45773, Note_on_c, 10, 76, 0
11, 45824, Note_on_c, 10, 73, 48
11, 46029, Note_on_c, 10, 73, 0
11, 46080, Note_on_c, 10, 74, 44
11, 47872, Note_on_c, 10, 74, 0
11, 48128, Note_on_c, 10, 73, 106
11, 48384, Note_on_c, 10, 73, 0
11, 48640, Note_on_c, 10, 78, 105
11, 48896, Note_on_c, 10, 78, 0
11, 49152, Note_on_c, 10, 74, 105
11, 49357, Note_on_c, 10, 74, 0
11, 49408, Note_on_c, 10, 73, 97
11, 49613, Note_on_c, 10, 73, 0
11, 49664, Note_on_c, 10, 71, 75
11, 49869, Note_on_c, 10, 71, 0
11, 49920, Note_on_c, 10, 73, 46
11, 50125, Note_on_c, 10, 73, 0
11, 50176, Note_on_c, 10, 74, 46
11, 50381, Note_on_c, 10, 74, 0
11, 50432, Note_on_c, 10, 71, 46
11, 50637, Note_on_c, 10, 71, 0
11, 50688, Note_on_c, 10, 76, 46
11, 50944, Note_on_c, 10, 76, 0
11, 51200, Note_on_c, 10, 78, 46
11, 51405, Note_on_c, 10, 78, 0
11, 51456, Note_on_c, 10, 76, 46
11, 51661, Note_on_c, 10, 76, 0
11, 51712, Note_on_c, 10, 78, 47
11, 51968, Note_on_c, 10, 78, 0
11, 52224, Note_on_c, 10, 79, 47
11, 54016, Note_on_c, 10, 79, 0
11, 54272, Note_on_c, 10, 78, 90
11, 54477, Note_on_c, 10, 78, 0
11, 54528, Note_on_c, 10, 76, 90
11, 54733, Note_on_c, 10, 76, 0
11, 54784, Note_on_c, 10, 74, 90
11, 54989, Note_on_c, 10, 74, 0
11, 55040, Note_on_c, 10, 72, 90
11, 55245, Note_on_c, 10, 72, 0
11, 55296, Note_on_c, 10, 71, 90
11, 55552, Note_on_c, 10, 71, 0
11, 55808, Note_on_c, 10, 69, 78
11, 56064, Note_on_c, 10, 69, 0
11, 56320, Note_on_c, 10, 71, 40
11, 56576, Note_on_c, 10, 71, 0
11, 56832, Note_on_c, 10, 67, 40
11, 57088, Note_on_c, 10, 67, 0
11, 57344, Note_on_c, 10, 66, 40
11, 57549, Note_on_c, 10, 66, 0
11, 57600, Note_on_c, 10, 67, 40
11, 57805, Note_on_c, 10, 67, 0
11, 57856, Note_on_c, 10, 69, 40
11, 58061, Note_on_c, 10, 69, 0
11, 58112, Note_on_c, 10, 66, 40
11, 58317, Note_on_c, 10, 66, 0
11, 58368, Note_on_c, 10, 67, 40
11, 61696, Note_on_c, 10, 67, 0
11, 61952, Note_on_c, 10, 64, 40
11, 62208, Note_on_c, 10, 64, 0
11, 62464, Note_on_c, 10, 69, 40
11, 62720, Note_on_c, 10, 69, 0
11, 62976, Note_on_c, 10, 74, 40
11, 63232, Note_on_c, 10, 74, 0
11, 63488, Note_on_c, 10, 78, 40
11, 63693, Note_on_c, 10, 78, 0
11, 63744, Note_on_c, 10, 74, 40
11, 63949, Note_on_c, 10, 74, 0
11, 64000, Note_on_c, 10, 76, 40
11, 64205, Note_on_c, 10, 76, 0
11, 64256, Note_on_c, 10, 73, 40
11, 64461, Note_on_c, 10, 73, 0
11, 64512, Note_on_c, 10, 74, 40
11, 64768, Note_on_c, 10, 74, 0
11, 65024, Note_on_c, 10, 62, 40
11, 65280, Note_on_c, 10, 62, 0
11, 77824, Note_on_c, 10, 69, 99
11, 78080, Note_on_c, 10, 69, 0
11, 78336, Note_on_c, 10, 76, 100
11, 78592, Note_on_c, 10, 76, 0
11, 78848, Note_on_c, 10, 76, 100
11, 79104, Note_on_c, 10, 76, 0
11, 79360, Note_on_c, 10, 76, 100
11, 79616, Note_on_c, 10, 76, 0
11, 79872, Note_on_c, 10, 81, 100
11, 80128, Note_on_c, 10, 81, 0
11, 80384, Note_on_c, 10, 76, 90
11, 80640, Note_on_c, 10, 76, 0
11, 83968, Note_on_c, 10, 66, 101
11, 84224, Note_on_c, 10, 66, 0
11, 84480, Note_on_c, 10, 73, 109
11, 84736, Note_on_c, 10, 73, 0
11, 84992, Note_on_c, 10, 73, 104
11, 85248, Note_on_c, 10, 73, 0
11, 85504, Note_on_c, 10, 73, 107
11, 85760, Note_on_c, 10, 73, 0
11, 86016, Note_on_c, 10, 78, 103
11, 86272, Note_on_c, 10, 78, 0
11, 86528, Note_on_c, 10, 73, 82
11, 86784, Note_on_c, 10, 73, 0
11, 90112, Note_on_c, 10, 62, 104
11, 90368, Note_on_c, 10, 62, 0
11, 90624, Note_on_c, 10, 69, 107
11, 90880, Note_on_c, 10, 69, 0
11, 91136, Note_on_c, 10, 69, 109
11, 91392, Note_on_c, 10, 69, 0
11, 91648, Note_on_c, 10, 69, 111
11, 91904, Note_on_c, 10, 69, 0
11, 92160, Note_on_c, 10, 74, 113
11, 92416, Note_on_c, 10, 74, 0
11, 92672, Note_on_c, 10, 69, 96
11, 92928, Note_on_c, 10, 69, 0
11, 105472, Note_on_c, 10, 74, 41
11, 105728, Note_on_c, 10, 74, 0
11, 105984, Note_on_c, 10, 71, 41
11, 106189, Note_on_c, 10, 71, 0
11, 106240, Note_on_c, 10, 69, 41
11, 106445, Note_on_c, 10, 69, 0
11, 106496, Note_on_c, 10, 67, 41
11, 106701, Note_on_c, 10, 67, 0
11, 106752, Note_on_c, 10, 71, 41
11, 106957, Note_on_c, 10, 71, 0
11, 107008, Note_on_c, 10, 69, 41
11, 107213, Note_on_c, 10, 69, 0
11, 107264, Note_on_c, 10, 72, 41
11, 107469, Note_on_c, 10, 72, 0
11, 107520, Note_on_c, 10, 71, 41
11, 107725, Note_on_c, 10, 71, 0
11, 107776, Note_on_c, 10, 69, 41
11, 107981, Note_on_c, 10, 69, 0
11, 108032, Note_on_c, 10, 71, 41
11, 108237, Note_on_c, 10, 71, 0
11, 108288, Note_on_c, 10, 73, 41
11, 108493, Note_on_c, 10, 73, 0
11, 108544, Note_on_c, 10, 70, 41
11, 108749, Note_on_c, 10, 70, 0
11, 108800, Note_on_c, 10, 71, 41
11, 109005, Note_on_c, 10, 71, 0
11, 109056, Note_on_c, 10, 73, 41
11, 109261, Note_on_c, 10, 73, 0
11, 109312, Note_on_c, 10, 71, 41
11, 109517, Note_on_c, 10, 71, 0
11, 109568, Note_on_c, 10, 70, 41
11, 109773, Note_on_c, 10, 70, 0
11, 109824, Note_on_c, 10, 73, 41
11, 110029, Note_on_c, 10, 73, 0
11, 110080, Note_on_c, 10, 71, 41
11, 110285, Note_on_c, 10, 71, 0
11, 110336, Note_on_c, 10, 74, 41
11, 110541, Note_on_c, 10, 74, 0
11, 110592, Note_on_c, 10, 73, 41
11, 113920, Note_on_c, 10, 73, 0
11, 114176, Note_on_c, 10, 73, 41
11, 114432, Note_on_c, 10, 73, 0
11, 114688, Note_on_c, 10, 73, 41
11, 114944, Note_on_c, 10, 73, 0
11, 115200, Note_on_c, 10, 71, 44
11, 115456, Note_on_c, 10, 71, 0
11, 115712, Note_on_c, 10, 74, 48
11, 115968, Note_on_c, 10, 74, 0
11, 116224, Note_on_c, 10, 78, 51
11, 116480, Note_on_c, 10, 78, 0
11, 116736, Note_on_c, 10, 71, 54
11, 116992, Note_on_c, 10, 71, 0
11, 117248, Note_on_c, 10, 71, 58
11, 117504, Note_on_c, 10, 71, 0
11, 119296, Note_on_c, 10, 71, 72
11, 119552, Note_on_c, 10, 71, 0
11, 119808, Note_on_c, 10, 71, 75
11, 120064, Note_on_c, 10, 71, 0
11, 120320, Note_on_c, 10, 64, 78
11, 120576, Note_on_c, 10, 64, 0
11, 120832, Note_on_c, 10, 76, 82
11, 121088, Note_on_c, 10, 76, 0
11, 121344, Note_on_c, 10, 73, 85
11, 121600, Note_on_c, 10, 73, 0
11, 121856, Note_on_c, 10, 69, 89
11, 122112, Note_on_c, 10, 69, 0
11, 123904, Note_on_c, 10, 69, 98
11, 124160, Note_on_c, 10, 69, 0
11, 124416, Note_on_c, 10, 69, 97
11, 124672, Note_on_c, 10, 69, 0
11, 124928, Note_on_c, 10, 69, 102
11, 125184, Note_on_c, 10, 69, 0
11, 125440, Note_on_c, 10, 69, 106
11, 125696, Note_on_c, 10, 69, 0
11, 125952, Note_on_c, 10, 74, 111
11, 126208, Note_on_c, 10, 74, 0
11, 126464, Note_on_c, 10, 69, 108
11, 126720, Note_on_c, 10, 69, 0
11, 130048, Note_on_c, 10, 81, 105
11, 130304, Note_on_c, 10, 81, 0
11, 130560, Note_on_c, 10, 78, 99
11, 130816, Note_on_c, 10, 78, 0
11, 131072, Note_on_c, 10, 74, 99
11, 131328, Note_on_c, 10, 74, 0
11, 133120, Note_on_c, 10, 76, 105
11, 133376, Note_on_c, 10, 76, 0
11, 133632, Note_on_c, 10, 78, 107
11, 135424, Note_on_c, 10, 78, 0
11, 135680, Note_on_c, 10, 71, 108
11, 135936, Note_on_c, 10, 71, 0
11, 137728, Note_on_c, 10, 71, 96
11, 137984, Note_on_c, 10, 71, 0
11, 138240, Note_on_c, 10, 76, 97
11, 138496, Note_on_c, 10, 76, 0
11, 138752, Note_on_c, 10, 79, 99
11, 139008, Note_on_c, 10, 79, 0
11, 139264, Note_on_c, 10, 76, 100
11, 139520, Note_on_c, 10, 76, 0
11, 139776, Note_on_c, 10, 69, 102
11, 140032, Note_on_c, 10, 69, 0
11, 140288, Note_on_c, 10, 73, 103
11, 140493, Note_on_c, 10, 73, 0
11, 140544, Note_on_c, 10, 76, 104
11, 140749, Note_on_c, 10, 76, 0
11, 140800, Note_on_c, 10, 79, 104
11, 141568, Note_on_c, 10, 79, 0
11, 141824, Note_on_c, 10, 76, 107
11, 142080, Note_on_c, 10, 76, 0
11, 142336, Note_on_c, 10, 81, 109
11, 142592, Note_on_c, 10, 81, 0
11, 142848, Note_on_c, 10, 78, 110
11, 143053, Note_on_c, 10, 78, 0
11, 143104, Note_on_c, 10, 76, 112
11, 143309, Note_on_c, 10, 76, 0
11, 143360, Note_on_c, 10, 78, 111
11, 143565, Note_on_c, 10, 78, 0
11, 143616, Note_on_c, 10, 79, 110
11, 143821, Note_on_c, 10, 79, 0
11, 143872, Note_on_c, 10, 81, 109
11, 144077, Note_on_c, 10, 81, 0
11, 144128, Note_on_c, 10, 78, 107
11, 144333, Note_on_c, 10, 78, 0
11, 144384, Note_on_c, 10, 74, 106
11, 144589, Note_on_c, 10, 74, 0
11, 144640, Note_on_c, 10, 73, 105
11, 144845, Note_on_c, 10, 73, 0
11, 144896, Note_on_c, 10, 74, 103
11, 145101, Note_on_c, 10, 74, 0
11, 145152, Note_on_c, 10, 76, 104
11, 145357, Note_on_c, 10, 76, 0
11, 145408, Note_on_c, 10, 78, 106
11, 145613, Note_on_c, 10, 78, 0
11, 145664, Note_on_c, 10, 74, 107
11, 145869, Note_on_c, 10, 74, 0
11, 145920, Note_on_c, 10, 71, 109
11, 146176, Note_on_c, 10, 71, 0
11, 146432, Note_on_c, 10, 76, 111
11, 146688, Note_on_c, 10, 76, 0
11, 146944, Note_on_c, 10, 75, 114
11, 147200, Note_on_c, 10, 75, 0
11, 147456, Note_on_c, 10, 76, 117
11, 147661, Note_on_c, 10, 76, 0
11, 147712, Note_on_c, 10, 78, 118
11, 147917, Note_on_c, 10, 78, 0
11, 147968, Note_on_c, 10, 79, 117
11, 148224, Note_on_c, 10, 79, 0
11, 148480, Note_on_c, 10, 71, 114
11, 148736, Note_on_c, 10, 71, 0
11, 148992, Note_on_c, 10, 76, 110
11, 149197, Note_on_c, 10, 76, 0
11, 149248, Note_on_c, 10, 74, 108
11, 149453, Note_on_c, 10, 74, 0
11, 149504, Note_on_c, 10, 76, 107
11, 149709, Note_on_c, 10, 76, 0
11, 149760, Note_on_c, 10, 78, 105
11, 149965, Note_on_c, 10, 78, 0
11, 150016, Note_on_c, 10, 79, 103
11, 150221, Note_on_c, 10, 79, 0
11, 150272, Note_on_c, 10, 76, 102
11, 150477, Note_on_c, 10, 76, 0
11, 150528, Note_on_c, 10, 73, 96
11, 150733, Note_on_c, 10, 73, 0
11, 150784, Note_on_c, 10, 71, 97
11, 150989, Note_on_c, 10, 71, 0
11, 151040, Note_on_c, 10, 73, 99
11, 151245, Note_on_c, 10, 73, 0
11, 151296, Note_on_c, 10, 74, 100
11, 151501, Note_on_c, 10, 74, 0
11, 151552, Note_on_c, 10, 76, 101
11, 151757, Note_on_c, 10, 76, 0
11, 151808, Note_on_c, 10, 73, 102
11, 152013, Note_on_c, 10, 73, 0
11, 152064, Note_on_c, 10, 69, 103
11, 152320, Note_on_c, 10, 69, 0
11, 152576, Note_on_c, 10, 74, 106
11, 152832, Note_on_c, 10, 74, 0
11, 153088, Note_on_c, 10, 73, 108
11, 153344, Note_on_c, 10, 73, 0
11, 153600, Note_on_c, 10, 74, 111
11, 153856, Note_on_c, 10, 74, 0
11, 154112, Note_on_c, 10, 69, 103
11, 154368, Note_on_c, 10, 69, 0
11, 154624, Note_on_c, 10, 74, 94
11, 154880, Note_on_c, 10, 74, 0
11, 155136, Note_on_c, 10, 74, 96
11, 155392, Note_on_c, 10, 74, 0
11, 155648, Note_on_c, 10, 71, 99
11, 155904, Note_on_c, 10, 71, 0
11, 157696, Note_on_c, 10, 78, 110
11, 157952, Note_on_c, 10, 78, 0
11, 158208, Note_on_c, 10, 74, 113
11, 158464, Note_on_c, 10, 74, 0
11, 158720, Note_on_c, 10, 76, 116
11, 158976, Note_on_c, 10, 76, 0
11, 159232, Note_on_c, 10, 73, 118
11, 159488, Note_on_c, 10, 73, 0
11, 159744, Note_on_c, 10, 74, 121
11, 160000, Note_on_c, 10, 74, 0
11, 160256, Note_on_c, 10, 69, 89
11, 160512, Note_on_c, 10, 69, 0
11, 160768, Note_on_c, 10, 74, 45
11, 161024, Note_on_c, 10, 74, 0
11, 161280, Note_on_c, 10, 74, 46
11, 161536, Note_on_c, 10, 74, 0
11, 161792, Note_on_c, 10, 73, 47
11, 162048, Note_on_c, 10, 73, 0
11, 163328, Note_on_c, 10, 74, 51
11, 163584, Note_on_c, 10, 74, 0
11, 163840, Note_on_c, 10, 78, 52
11, 164096, Note_on_c, 10, 78, 0
11, 164352, Note_on_c, 10, 78, 54
11, 164608, Note_on_c, 10, 78, 0
11, 164864, Note_on_c, 10, 76, 55
11, 165120, Note_on_c, 10, 76, 0
11, 166912, Note_on_c, 10, 74, 100
11, 167168, Note_on_c, 10, 74, 0
11, 167424, Note_on_c, 10, 73, 102
11, 167680, Note_on_c, 10, 73, 0
11, 167936, Note_on_c, 10, 76, 104
11, 168141, Note_on_c, 10, 76, 0
11, 168192, Note_on_c, 10, 74, 104
11, 168397, Note_on_c, 10, 74, 0
11, 168448, Note_on_c, 10, 76, 105
11, 168653, Note_on_c, 10, 76, 0
11, 168704, Note_on_c, 10, 73, 106
11, 168909, Note_on_c, 10, 73, 0
11, 168960, Note_on_c, 10, 74, 107
11, 169216, Note_on_c, 10, 74, 0
11, 169472, Note_on_c, 10, 73, 109
11, 169677, Note_on_c, 10, 73, 0
11, 169728, Note_on_c, 10, 74, 110
11, 169933, Note_on_c, 10, 74, 0
11, 169984, Note_on_c, 10, 76, 111
11, 170189, Note_on_c, 10, 76, 0
11, 170240, Note_on_c, 10, 73, 112
11, 170445, Note_on_c, 10, 73, 0
11, 170496, Note_on_c, 10, 74, 113
11, 170752, Note_on_c, 10, 74, 0
11, 171008, Note_on_c, 10, 73, 114
11, 171213, Note_on_c, 10, 73, 0
11, 171264, Note_on_c, 10, 71, 115
11, 171469, Note_on_c, 10, 71, 0
11, 171520, Note_on_c, 10, 69, 116
11, 171725, Note_on_c, 10, 69, 0
11, 171776, Note_on_c, 10, 67, 117
11, 171981, Note_on_c, 10, 67, 0
11, 172032, Note_on_c, 10, 66, 118
11, 172288, Note_on_c, 10, 66, 0
11, 172544, Note_on_c, 10, 62, 84
11, 172800, Note_on_c, 10, 62, 0
11, 173056, Note_on_c, 10, 72, 52
11, 173312, Note_on_c, 10, 72, 0
11, 173568, Note_on_c, 10, 72, 56
11, 173773, Note_on_c, 10, 72, 0
11, 173824, Note_on_c, 10, 71, 58
11, 174029, Note_on_c, 10, 71, 0
11, 174080, Note_on_c, 10, 71, 59
11, 174336, Note_on_c, 10, 71, 0
11, 175616, Note_on_c, 10, 76, 70
11, 175872, Note_on_c, 10, 76, 0
11, 176128, Note_on_c, 10, 81, 101
11, 176384, Note_on_c, 10, 81, 0
11, 176640, Note_on_c, 10, 78, 109
11, 176896, Note_on_c, 10, 78, 0
11, 177152, Note_on_c, 10, 74, 113
11, 177408, Note_on_c, 10, 74, 0
11, 177664, Note_on_c, 10, 73, 117
11, 177920, Note_on_c, 10, 73, 0
11, 178176, Note_on_c, 10, 74, 121
11, 179115, Note_on_c, 10, 74, 0
11, 230400, Control_c, 10, 121, 127
11, 230400, End_track
12, 0, Start_track
12, 0, Title_t, "Soprano II"
12, 0, Program_c, 10, 52
12, 1024, Note_on_c, 10, 62, 88
12, 1280, Note_on_c, 10, 62, 0
12, 1536, Note_on_c, 10, 69, 88
12, 1792, Note_on_c, 10, 69, 0
12, 2048, Note_on_c, 10, 69, 88
12, 2304, Note_on_c, 10, 69, 0
12, 2560, Note_on_c, 10, 69, 88
12, 2816, Note_on_c, 10, 69, 0
12, 3072, Note_on_c, 10, 74, 88
12, 3328, Note_on_c, 10, 74, 0
12, 3584, Note_on_c, 10, 69, 88
12, 3840, Note_on_c, 10, 69, 0
12, 10240, Note_on_c, 10, 74, 86
12, 10496, Note_on_c, 10, 74, 0
12, 10752, Note_on_c, 10, 76, 86
12, 11008, Note_on_c, 10, 76, 0
12, 11264, Note_on_c, 10, 73, 89
12, 11469, Note_on_c, 10, 73, 0
12, 11520, Note_on_c, 10, 71, 90
12, 11725, Note_on_c, 10, 71, 0
12, 11776, Note_on_c, 10, 73, 91
12, 11981, Note_on_c, 10, 73, 0
12, 12032, Note_on_c, 10, 69, 92
12, 12237, Note_on_c, 10, 69, 0
12, 12288, Note_on_c, 10, 78, 93
12, 12493, Note_on_c, 10, 78, 0
12, 12544, Note_on_c, 10, 79, 94
12, 12749, Note_on_c, 10, 79, 0
12, 12800, Note_on_c, 10, 81, 96
12, 13056, Note_on_c, 10, 81, 0
12, 13312, Note_on_c, 10, 73, 98
12, 13568, Note_on_c, 10, 73, 0
12, 13824, Note_on_c, 10, 74, 100
12, 14080, Note_on_c, 10, 74, 0
12, 14336, Note_on_c, 10, 73, 103
12, 14541, Note_on_c, 10, 73, 0
12, 14592, Note_on_c, 10, 71, 104
12, 14797, Note_on_c, 10, 71, 0
12, 14848, Note_on_c, 10, 69, 105
12, 15053, Note_on_c, 10, 69, 0
12, 15104, Note_on_c, 10, 67, 106
12, 15309, Note_on_c, 10, 67, 0
12, 15360, Note_on_c, 10, 66, 107
12, 15616, Note_on_c, 10, 66, 0
12, 15872, Note_on_c, 10, 62, 93
12, 16128, Note_on_c, 10, 62, 0
12, 17920, Note_on_c, 10, 76, 46
12, 18176, Note_on_c, 10, 76, 0
12, 18432, Note_on_c, 10, 74, 46
12, 18637, Note_on_c, 10, 74, 0
12, 18688, Note_on_c, 10, 73, 46
12, 18893, Note_on_c, 10, 73, 0
12, 18944, Note_on_c, 10, 71, 46
12, 19149, Note_on_c, 10, 71, 0
12, 19200, Note_on_c, 10, 69, 46
12, 19405, Note_on_c, 10, 69, 0
12, 19456, Note_on_c, 10, 76, 90
12, 19712, Note_on_c, 10, 76, 0
12, 19968, Note_on_c, 10, 78, 91
12, 20224, Note_on_c, 10, 78, 0
12, 20480, Note_on_c, 10, 73, 93
12, 20736, Note_on_c, 10, 73, 0
12, 20992, Note_on_c, 10, 74, 94
12, 21248, Note_on_c, 10, 74, 0
12, 21504, Note_on_c, 10, 73, 95
12, 21709, Note_on_c, 10, 73, 0
12, 21760, Note_on_c, 10, 74, 93
12, 21965, Note_on_c, 10, 74, 0
12, 22016, Note_on_c, 10, 76, 89
12, 22272, Note_on_c, 10, 76, 0
12, 40960, Note_on_c, 10, 62, 101
12, 41216, Note_on_c, 10, 62, 0
12, 41472, Note_on_c, 10, 69, 103
12, 41728, Note_on_c, 10, 69, 0
12, 41984, Note_on_c, 10, 69, 104
12, 42240, Note_on_c, 10, 69, 0
12, 42496, Note_on_c, 10, 69, 105
12, 42752, Note_on_c, 10, 69, 0
12, 43008, Note_on_c, 10, 74, 106
12, 43264, Note_on_c, 10, 74, 0
12, 43520, Note_on_c, 10, 69, 86
12, 43776, Note_on_c, 10, 69, 0
12, 47104, Note_on_c, 10, 59, 94
12, 47360, Note_on_c, 10, 59, 0
12, 47616, Note_on_c, 10, 66, 106
12, 47872, Note_on_c, 10, 66, 0
12, 48128, Note_on_c, 10, 66, 106
12, 48384, Note_on_c, 10, 66, 0
12, 48640, Note_on_c, 10, 66, 105
12, 48896, Note_on_c, 10, 66, 0
12, 49152, Note_on_c, 10, 71, 105
12, 49408, Note_on_c, 10, 71, 0
12, 49664, Note_on_c, 10, 66, 75
12, 49920, Note_on_c, 10, 66, 0
12, 53248, Note_on_c, 10, 67, 77
12, 53504, Note_on_c, 10, 67, 0
12, 53760, Note_on_c, 10, 74, 88
12, 54016, Note_on_c, 10, 74, 0
12, 54272, Note_on_c, 10, 74, 90
12, 54528, Note_on_c, 10, 74, 0
12, 54784, Note_on_c, 10, 74, 90
12, 55040, Note_on_c, 10, 74, 0
12, 55296, Note_on_c, 10, 79, 90
12, 55552, Note_on_c, 10, 79, 0
12, 55808, Note_on_c, 10, 74, 78
12, 56064, Note_on_c, 10, 74, 0
12, 68608, Note_on_c, 10, 68, 57
12, 68864, Note_on_c, 10, 68, 0
12, 69120, Note_on_c, 10, 69, 59
12, 69325, Note_on_c, 10, 69, 0
12, 69376, Note_on_c, 10, 68, 60
12, 69581, Note_on_c, 10, 68, 0
12, 69632, Note_on_c, 10, 66, 61
12, 69837, Note_on_c, 10, 66, 0
12, 69888, Note_on_c, 10, 69, 62
12, 70093, Note_on_c, 10, 69, 0
12, 70144, Note_on_c, 10, 68, 64
12, 70349, Note_on_c, 10, 68, 0
12, 70400, Note_on_c, 10, 71, 65
12, 70605, Note_on_c, 10, 71, 0
12, 70656, Note_on_c, 10, 69, 66
12, 70861, Note_on_c, 10, 69, 0
12, 70912, Note_on_c, 10, 68, 67
12, 71117, Note_on_c, 10, 68, 0
12, 71168, Note_on_c, 10, 69, 68
12, 71373, Note_on_c, 10, 69, 0
12, 71424, Note_on_c, 10, 71, 69
12, 71629, Note_on_c, 10, 71, 0
12, 71680, Note_on_c, 10, 68, 71
12, 71885, Note_on_c, 10, 68, 0
12, 71936, Note_on_c, 10, 69, 72
12, 72141, Note_on_c, 10, 69, 0
12, 72192, Note_on_c, 10, 71, 73
12, 72397, Note_on_c, 10, 71, 0
12, 72448, Note_on_c, 10, 69, 74
12, 72653, Note_on_c, 10, 69, 0
12, 72704, Note_on_c, 10, 68, 75
12, 72909, Note_on_c, 10, 68, 0
12, 72960, Note_on_c, 10, 71, 76
12, 73165, Note_on_c, 10, 71, 0
12, 73216, Note_on_c, 10, 69, 78
12, 73421, Note_on_c, 10, 69, 0
12, 73472, Note_on_c, 10, 73, 79
12, 73677, Note_on_c, 10, 73, 0
12, 73728, Note_on_c, 10, 71, 80
12, 73933, Note_on_c, 10, 71, 0
12, 73984, Note_on_c, 10, 69, 81
12, 74189, Note_on_c, 10, 69, 0
12, 74240, Note_on_c, 10, 71, 82
12, 74445, Note_on_c, 10, 71, 0
12, 74496, Note_on_c, 10, 73, 83
12, 74701, Note_on_c, 10, 73, 0
12, 74752, Note_on_c, 10, 69, 85
12, 74957, Note_on_c, 10, 69, 0
12, 75008, Note_on_c, 10, 71, 86
12, 75213, Note_on_c, 10, 71, 0
12, 75264, Note_on_c, 10, 73, 87
12, 75469, Note_on_c, 10, 73, 0
12, 75520, Note_on_c, 10, 71, 88
12, 75725, Note_on_c, 10, 71, 0
12, 75776, Note_on_c, 10, 69, 89
12, 75981, Note_on_c, 10, 69, 0
12, 76032, Note_on_c, 10, 73, 90
12, 76237, Note_on_c, 10, 73, 0
12, 76288, Note_on_c, 10, 71, 92
12, 76493, Note_on_c, 10, 71, 0
12, 76544, Note_on_c, 10, 74, 93
12, 76749, Note_on_c, 10, 74, 0
12, 76800, Note_on_c, 10, 73, 94
12, 78592, Note_on_c, 10, 73, 0
12, 78848, Note_on_c, 10, 71, 100
12, 79104, Note_on_c, 10, 71, 0
12, 79360, Note_on_c, 10, 76, 100
12, 79616, Note_on_c, 10, 76, 0
12, 79872, Note_on_c, 10, 73, 100
12, 80128, Note_on_c, 10, 73, 0
12, 80384, Note_on_c, 10, 71, 90
12, 80640, Note_on_c, 10, 71, 0
12, 80896, Note_on_c, 10, 73, 44
12, 81152, Note_on_c, 10, 73, 0
12, 81408, Note_on_c, 10, 69, 44
12, 81664, Note_on_c, 10, 69, 0
12, 81920, Note_on_c, 10, 71, 45
12, 82125, Note_on_c, 10, 71, 0
12, 82176, Note_on_c, 10, 69, 45
12, 82381, Note_on_c, 10, 69, 0
12, 82432, Note_on_c, 10, 71, 46
12, 82637, Note_on_c, 10, 71, 0
12, 82688, Note_on_c, 10, 68, 46
12, 82893, Note_on_c, 10, 68, 0
12, 82944, Note_on_c, 10, 69, 47
12, 84736, Note_on_c, 10, 69, 0
12, 84992, Note_on_c, 10, 68, 104
12, 85248, Note_on_c, 10, 68, 0
12, 85504, Note_on_c, 10, 73, 107
12, 85760, Note_on_c, 10, 73, 0
12, 86016, Note_on_c, 10, 69, 103
12, 86221, Note_on_c, 10, 69, 0
12, 86272, Note_on_c, 10, 68, 97
12, 86477, Note_on_c, 10, 68, 0
12, 86528, Note_on_c, 10, 66, 82
12, 86733, Note_on_c, 10, 66, 0
12, 86784, Note_on_c, 10, 68, 61
12, 86989, Note_on_c, 10, 68, 0
12, 87040, Note_on_c, 10, 69, 45
12, 87245, Note_on_c, 10, 69, 0
12, 87296, Note_on_c, 10, 66, 46
12, 87501, Note_on_c, 10, 66, 0
12, 87552, Note_on_c, 10, 71, 48
12, 87808, Note_on_c, 10, 71, 0
12, 88064, Note_on_c, 10, 73, 54
12, 88269, Note_on_c, 10, 73, 0
12, 88320, Note_on_c, 10, 71, 57
12, 88525, Note_on_c, 10, 71, 0
12, 88576, Note_on_c, 10, 73, 60
12, 88832, Note_on_c, 10, 73, 0
12, 89088, Note_on_c, 10, 74, 66
12, 90880, Note_on_c, 10, 74, 0
12, 91136, Note_on_c, 10, 73, 109
12, 91341, Note_on_c, 10, 73, 0
12, 91392, Note_on_c, 10, 74, 110
12, 91597, Note_on_c, 10, 74, 0
12, 91648, Note_on_c, 10, 76, 111
12, 91853, Note_on_c, 10, 76, 0
12, 91904, Note_on_c, 10, 73, 112
12, 92109, Note_on_c, 10, 73, 0
12, 92160, Note_on_c, 10, 74, 113
12, 92416, Note_on_c, 10, 74, 0
12, 92672, Note_on_c, 10, 73, 96
12, 92928, Note_on_c, 10, 73, 0
12, 93184, Note_on_c, 10, 73, 49
12, 93440, Note_on_c, 10, 73, 0
12, 93696, Note_on_c, 10, 71, 41
12, 93952, Note_on_c, 10, 71, 0
12, 94208, Note_on_c, 10, 71, 41
12, 94464, Note_on_c, 10, 71, 0
12, 94720, Note_on_c, 10, 70, 41
12, 94976, Note_on_c, 10, 70, 0
12, 95232, Note_on_c, 10, 71, 41
12, 95488, Note_on_c, 10, 71, 0
12, 95744, Note_on_c, 10, 71, 41
12, 96000, Note_on_c, 10, 71, 0
12, 97792, Note_on_c, 10, 75, 41
12, 98048, Note_on_c, 10, 75, 0
12, 98304, Note_on_c, 10, 76, 41
12, 98560, Note_on_c, 10, 76, 0
12, 98816, Note_on_c, 10, 71, 41
12, 99072, Note_on_c, 10, 71, 0
12, 100864, Note_on_c, 10, 76, 41
12, 101120, Note_on_c, 10, 76, 0
12, 101376, Note_on_c, 10, 76, 41
12, 101632, Note_on_c, 10, 76, 0
12, 101888, Note_on_c, 10, 73, 41
12, 102144, Note_on_c, 10, 73, 0
12, 103936, Note_on_c, 10, 73, 41
12, 104192, Note_on_c, 10, 73, 0
12, 104448, Note_on_c, 10, 74, 41
12, 104704, Note_on_c, 10, 74, 0
12, 104960, Note_on_c, 10, 69, 41
12, 105216, Note_on_c, 10, 69, 0
12, 107008, Note_on_c, 10, 74, 41
12, 107264, Note_on_c, 10, 74, 0
12, 107520, Note_on_c, 10, 74, 41
12, 107776, Note_on_c, 10, 74, 0
12, 108032, Note_on_c, 10, 71, 41
12, 108288, Note_on_c, 10, 71, 0
12, 108544, Note_on_c, 10, 79, 41
12, 108800, Note_on_c, 10, 79, 0
12, 109056, Note_on_c, 10, 76, 41
12, 109261, Note_on_c, 10, 76, 0
12, 109312, Note_on_c, 10, 74, 41
12, 109517, Note_on_c, 10, 74, 0
12, 109568, Note_on_c, 10, 73, 41
12, 109773, Note_on_c, 10, 73, 0
12, 109824, Note_on_c, 10, 76, 41
12, 110029, Note_on_c, 10, 76, 0
12, 110080, Note_on_c, 10, 74, 41
12, 110285, Note_on_c, 10, 74, 0
12, 110336, Note_on_c, 10, 78, 41
12, 110541, Note_on_c, 10, 78, 0
12, 110592, Note_on_c, 10, 76, 41
12, 110797, Note_on_c, 10, 76, 0
12, 110848, Note_on_c, 10, 74, 41
12, 111053, Note_on_c, 10, 74, 0
12, 111104, Note_on_c, 10, 76, 41
12, 111309, Note_on_c, 10, 76, 0
12, 111360, Note_on_c, 10, 78, 41
12, 111565, Note_on_c, 10, 78, 0
12, 111616, Note_on_c, 10, 74, 41
12, 111821, Note_on_c, 10, 74, 0
12, 111872, Note_on_c, 10, 76, 41
12, 112077, Note_on_c, 10, 76, 0
12, 112128, Note_on_c, 10, 73, 41
12, 112333, Note_on_c, 10, 73, 0
12, 112384, Note_on_c, 10, 71, 41
12, 112589, Note_on_c, 10, 71, 0
12, 112640, Note_on_c, 10, 73, 41
12, 112845, Note_on_c, 10, 73, 0
12, 112896, Note_on_c, 10, 78, 41
12, 113101, Note_on_c, 10, 78, 0
12, 113152, Note_on_c, 10, 77, 41
12, 113357, Note_on_c, 10, 77, 0
12, 113408, Note_on_c, 10, 80, 41
12, 113613, Note_on_c, 10, 80, 0
12, 113664, Note_on_c, 10, 78, 41
12, 116992, Note_on_c, 10, 78, 0
12, 117248, Note_on_c, 10, 78, 58
12, 117504, Note_on_c, 10, 78, 0
12, 117760, Note_on_c, 10, 78, 61
12, 118016, Note_on_c, 10, 78, 0
12, 118272, Note_on_c, 10, 76, 65
12, 118528, Note_on_c, 10, 76, 0
12, 118784, Note_on_c, 10, 68, 68
12, 119040, Note_on_c, 10, 68, 0
12, 119296, Note_on_c, 10, 71, 72
12, 119552, Note_on_c, 10, 71, 0
12, 119808, Note_on_c, 10, 64, 75
12, 120064, Note_on_c, 10, 64, 0
12, 120320, Note_on_c, 10, 64, 78
12, 120576, Note_on_c, 10, 64, 0
12, 120832, Note_on_c, 10, 71, 82
12, 121088, Note_on_c, 10, 71, 0
12, 121344, Note_on_c, 10, 73, 85
12, 121600, Note_on_c, 10, 73, 0
12, 121856, Note_on_c, 10, 76, 89
12, 122061, Note_on_c, 10, 76, 0
12, 122112, Note_on_c, 10, 73, 90
12, 122317, Note_on_c, 10, 73, 0
12, 122368, Note_on_c, 10, 74, 92
12, 122573, Note_on_c, 10, 74, 0
12, 122624, Note_on_c, 10, 71, 94
12, 122829, Note_on_c, 10, 71, 0
12, 122880, Note_on_c, 10, 73, 96
12, 123136, Note_on_c, 10, 73, 0
12, 123392, Note_on_c, 10, 69, 99
12, 123648, Note_on_c, 10, 69, 0
12, 126976, Note_on_c, 10, 69, 103
12, 127232, Note_on_c, 10, 69, 0
12, 127488, Note_on_c, 10, 69, 98
12, 127744, Note_on_c, 10, 69, 0
12, 128000, Note_on_c, 10, 69, 103
12, 128256, Note_on_c, 10, 69, 0
12, 128512, Note_on_c, 10, 69, 108
12, 128768, Note_on_c, 10, 69, 0
12, 129024, Note_on_c, 10, 76, 113
12, 129280, Note_on_c, 10, 76, 0
12, 129536, Note_on_c, 10, 69, 111
12, 129792, Note_on_c, 10, 69, 0
12, 131584, Note_on_c, 10, 73, 101
12, 131840, Note_on_c, 10, 73, 0
12, 132096, Note_on_c, 10, 74, 102
12, 132352, Note_on_c, 10, 74, 0
12, 132608, Note_on_c, 10, 78, 104
12, 132864, Note_on_c, 10, 78, 0
12, 133120, Note_on_c, 10, 76, 105
12, 133376, Note_on_c, 10, 76, 0
12, 133632, Note_on_c, 10, 78, 107
12, 135373, Note_on_c, 10, 78, 0
12, 135424, Note_on_c, 10, 76, 110
12, 135629, Note_on_c, 10, 76, 0
12, 135680, Note_on_c, 10, 78, 108
12, 135885, Note_on_c, 10, 78, 0
12, 135936, Note_on_c, 10, 79, 105
12, 136141, Note_on_c, 10, 79, 0
12, 136192, Note_on_c, 10, 78, 103
12, 136397, Note_on_c, 10, 78, 0
12, 136448, Note_on_c, 10, 81, 100
12, 136653, Note_on_c, 10, 81, 0
12, 136704, Note_on_c, 10, 79, 93
12, 136960, Note_on_c, 10, 79, 0
12, 137216, Note_on_c, 10, 76, 94
12, 137472, Note_on_c, 10, 76, 0
12, 139264, Note_on_c, 10, 71, 100
12, 139520, Note_on_c, 10, 71, 0
12, 139776, Note_on_c, 10, 73, 102
12, 140032, Note_on_c, 10, 73, 0
12, 140288, Note_on_c, 10, 76, 103
12, 140544, Note_on_c, 10, 76, 0
12, 140800, Note_on_c, 10, 76, 104
12, 141056, Note_on_c, 10, 76, 0
12, 141312, Note_on_c, 10, 81, 106
12, 141568, Note_on_c, 10, 81, 0
12, 141824, Note_on_c, 10, 73, 107
12, 142080, Note_on_c, 10, 73, 0
12, 143872, Note_on_c, 10, 69, 109
12, 144128, Note_on_c, 10, 69, 0
12, 144384, Note_on_c, 10, 71, 106
12, 144589, Note_on_c, 10, 71, 0
12, 144640, Note_on_c, 10, 69, 105
12, 144845, Note_on_c, 10, 69, 0
12, 144896, Note_on_c, 10, 71, 103
12, 145101, Note_on_c, 10, 71, 0
12, 145152, Note_on_c, 10, 73, 104
12, 145357, Note_on_c, 10, 73, 0
12, 145408, Note_on_c, 10, 74, 106
12, 146176, Note_on_c, 10, 74, 0
12, 146432, Note_on_c, 10, 76, 111
12, 146688, Note_on_c, 10, 76, 0
12, 146944, Note_on_c, 10, 78, 114
12, 147200, Note_on_c, 10, 78, 0
12, 147456, Note_on_c, 10, 79, 117
12, 147661, Note_on_c, 10, 79, 0
12, 147712, Note_on_c, 10, 78, 118
12, 147917, Note_on_c, 10, 78, 0
12, 147968, Note_on_c, 10, 76, 117
12, 148224, Note_on_c, 10, 76, 0
12, 150016, Note_on_c, 10, 67, 103
12, 150272, Note_on_c, 10, 67, 0
12, 150528, Note_on_c, 10, 69, 96
12, 150733, Note_on_c, 10, 69, 0
12, 150784, Note_on_c, 10, 67, 97
12, 150989, Note_on_c, 10, 67, 0
12, 151040, Note_on_c, 10, 69, 99
12, 151245, Note_on_c, 10, 69, 0
12, 151296, Note_on_c, 10, 71, 100
12, 151501, Note_on_c, 10, 71, 0
12, 151552, Note_on_c, 10, 73, 101
12, 152320, Note_on_c, 10, 73, 0
12, 152576, Note_on_c, 10, 74, 106
12, 152832, Note_on_c, 10, 74, 0
12, 153088, Note_on_c, 10, 76, 108
12, 153344, Note_on_c, 10, 76, 0
12, 153600, Note_on_c, 10, 78, 111
12, 153805, Note_on_c, 10, 78, 0
12, 153856, Note_on_c, 10, 76, 107
12, 154061, Note_on_c, 10, 76, 0
12, 154112, Note_on_c, 10, 74, 103
12, 154368, Note_on_c, 10, 74, 0
12, 156160, Note_on_c, 10, 76, 102
12, 156416, Note_on_c, 10, 76, 0
12, 156672, Note_on_c, 10, 76, 105
12, 156928, Note_on_c, 10, 76, 0
12, 157184, Note_on_c, 10, 73, 107
12, 157440, Note_on_c, 10, 73, 0
12, 157696, Note_on_c, 10, 69, 110
12, 157952, Note_on_c, 10, 69, 0
12, 158208, Note_on_c, 10, 78, 113
12, 158464, Note_on_c, 10, 78, 0
12, 158720, Note_on_c, 10, 79, 116
12, 158976, Note_on_c, 10, 79, 0
12, 159232, Note_on_c, 10, 76, 118
12, 159488, Note_on_c, 10, 76, 0
12, 159744, Note_on_c, 10, 74, 121
12, 159949, Note_on_c, 10, 74, 0
12, 160000, Note_on_c, 10, 76, 111
12, 160205, Note_on_c, 10, 76, 0
12, 160256, Note_on_c, 10, 78, 89
12, 160512, Note_on_c, 10, 78, 0
12, 162304, Note_on_c, 10, 76, 48
12, 162560, Note_on_c, 10, 76, 0
12, 162816, Note_on_c, 10, 76, 50
12, 163072, Note_on_c, 10, 76, 0
12, 163328, Note_on_c, 10, 74, 51
12, 163584, Note_on_c, 10, 74, 0
12, 164864, Note_on_c, 10, 76, 55
12, 165120, Note_on_c, 10, 76, 0
12, 165376, Note_on_c, 10, 79, 56
12, 165632, Note_on_c, 10, 79, 0
12, 165888, Note_on_c, 10, 79, 57
12, 166144, Note_on_c, 10, 79, 0
12, 166400, Note_on_c, 10, 78, 79
12, 166605, Note_on_c, 10, 78, 0
12, 166656, Note_on_c, 10, 76, 89
12, 166861, Note_on_c, 10, 76, 0
12, 166912, Note_on_c, 10, 78, 100
12, 167117, Note_on_c, 10, 78, 0
12, 167168, Note_on_c, 10, 74, 101
12, 167373, Note_on_c, 10, 74, 0
12, 167424, Note_on_c, 10, 76, 102
12, 167629, Note_on_c, 10, 76, 0
12, 167680, Note_on_c, 10, 74, 103
12, 167885, Note_on_c, 10, 74, 0
12, 167936, Note_on_c, 10, 73, 104
12, 168141, Note_on_c, 10, 73, 0
12, 168192, Note_on_c, 10, 71, 104
12, 168397, Note_on_c, 10, 71, 0
12, 168448, Note_on_c, 10, 73, 105
12, 168653, Note_on_c, 10, 73, 0
12, 168704, Note_on_c, 10, 69, 106
12, 168909, Note_on_c, 10, 69, 0
12, 168960, Note_on_c, 10, 78, 107
12, 169165, Note_on_c, 10, 78, 0
12, 169216, Note_on_c, 10, 79, 108
12, 169421, Note_on_c, 10, 79, 0
12, 169472, Note_on_c, 10, 81, 109
12, 169728, Note_on_c, 10, 81, 0
12, 169984, Note_on_c, 10, 73, 111
12, 170240, Note_on_c, 10, 73, 0
12, 170496, Note_on_c, 10, 74, 113
12, 170752, Note_on_c, 10, 74, 0
12, 171008, Note_on_c, 10, 73, 114
12, 171213, Note_on_c, 10, 73, 0
12, 171264, Note_on_c, 10, 71, 115
12, 171469, Note_on_c, 10, 71, 0
12, 171520, Note_on_c, 10, 69, 116
12, 171725, Note_on_c, 10, 69, 0
12, 171776, Note_on_c, 10, 67, 117
12, 171981, Note_on_c, 10, 67, 0
12, 172032, Note_on_c, 10, 66, 118
12, 172288, Note_on_c, 10, 66, 0
12, 172544, Note_on_c, 10, 62, 84
12, 172800, Note_on_c, 10, 62, 0
12, 174592, Note_on_c, 10, 74, 63
12, 174848, Note_on_c, 10, 74, 0
12, 175104, Note_on_c, 10, 74, 66
12, 175309, Note_on_c, 10, 74, 0
12, 175360, Note_on_c, 10, 73, 68
12, 175565, Note_on_c, 10, 73, 0
12, 175616, Note_on_c, 10, 73, 70
12, 175872, Note_on_c, 10, 73, 0
12, 176128, Note_on_c, 10, 76, 101
12, 176384, Note_on_c, 10, 76, 0
12, 176640, Note_on_c, 10, 78, 109
12, 176896, Note_on_c, 10, 78, 0
12, 177152, Note_on_c, 10, 79, 113
12, 177357, Note_on_c, 10, 79, 0
12, 177408, Note_on_c, 10, 78, 115
12, 177613, Note_on_c, 10, 78, 0
12, 177664, Note_on_c, 10, 76, 117
12, 177869, Note_on_c, 10, 76, 0
12, 177920, Note_on_c, 10, 78, 119
12, 178125, Note_on_c, 10, 78, 0
12, 178176, Note_on_c, 10, 74, 121
12, 179115, Note_on_c, 10, 74, 0
12, 230400, End_track
13, 0, Start_track
13, 0, Title_t, "Alto I"
13, 0, Program_c, 11, 52
13, 0, Control_c, 11, 121, 127
13, 0, Control_c, 11, 91, 127
13, 0, Control_c, 11, 93, 127
13, 0, Control_c, 11, 1, 5
13, 0, Control_c, 11, 10, 50
13, 1024, Note_on_c, 11, 62, 88
13, 1280, Note_on_c, 11, 62, 0
13, 1536, Note_on_c, 11, 69, 88
13, 1792, Note_on_c, 11, 69, 0
13, 2048, Note_on_c, 11, 69, 88
13, 2304, Note_on_c, 11, 69, 0
13, 2560, Note_on_c, 11, 69, 88
13, 2816, Note_on_c, 11, 69, 0
13, 3072, Note_on_c, 11, 74, 88
13, 3328, Note_on_c, 11, 74, 0
13, 3584, Note_on_c, 11, 69, 88
13, 3840, Note_on_c, 11, 69, 0
13, 10240, Note_on_c, 11, 69, 86
13, 10496, Note_on_c, 11, 69, 0
13, 10752, Note_on_c, 11, 69, 86
13, 12544, Note_on_c, 11, 69, 0
13, 12800, Note_on_c, 11, 69, 96
13, 13056, Note_on_c, 11, 69, 0
13, 13312, Note_on_c, 11, 69, 98
13, 13568, Note_on_c, 11, 69, 0
13, 13824, Note_on_c, 11, 69, 100
13, 14080, Note_on_c, 11, 69, 0
13, 14336, Note_on_c, 11, 67, 103
13, 14592, Note_on_c, 11, 67, 0
13, 14848, Note_on_c, 11, 64, 105
13, 15104, Note_on_c, 11, 64, 0
13, 15360, Note_on_c, 11, 62, 107
13, 15616, Note_on_c, 11, 62, 0
13, 15872, Note_on_c, 11, 66, 93
13, 16128, Note_on_c, 11, 66, 0
13, 16384, Note_on_c, 11, 69, 46
13, 16640, Note_on_c, 11, 69, 0
13, 16896, Note_on_c, 11, 67, 46
13, 17152, Note_on_c, 11, 67, 0
13, 17408, Note_on_c, 11, 62, 46
13, 17664, Note_on_c, 11, 62, 0
13, 19456, Note_on_c, 11, 69, 90
13, 19712, Note_on_c, 11, 69, 0
13, 19968, Note_on_c, 11, 69, 91
13, 20224, Note_on_c, 11, 69, 0
13, 20480, Note_on_c, 11, 73, 93
13, 20736, Note_on_c, 11, 73, 0
13, 20992, Note_on_c, 11, 66, 94
13, 21248, Note_on_c, 11, 66, 0
13, 21504, Note_on_c, 11, 69, 95
13, 21760, Note_on_c, 11, 69, 0
13, 22016, Note_on_c, 11, 64, 89
13, 22272, Note_on_c, 11, 64, 0
13, 22528, Note_on_c, 11, 64, 34
13, 22784, Note_on_c, 11, 64, 0
13, 23040, Note_on_c, 11, 66, 35
13, 23245, Note_on_c, 11, 66, 0
13, 23296, Note_on_c, 11, 64, 36
13, 23501, Note_on_c, 11, 64, 0
13, 23552, Note_on_c, 11, 62, 37
13, 23757, Note_on_c, 11, 62, 0
13, 23808, Note_on_c, 11, 66, 38
13, 24013, Note_on_c, 11, 66, 0
13, 24064, Note_on_c, 11, 64, 39
13, 24269, Note_on_c, 11, 64, 0
13, 24320, Note_on_c, 11, 67, 40
13, 24525, Note_on_c, 11, 67, 0
13, 24576, Note_on_c, 11, 66, 41
13, 24781, Note_on_c, 11, 66, 0
13, 24832, Note_on_c, 11, 64, 42
13, 25037, Note_on_c, 11, 64, 0
13, 25088, Note_on_c, 11, 66, 43
13, 25293, Note_on_c, 11, 66, 0
13, 25344, Note_on_c, 11, 67, 44
13, 25549, Note_on_c, 11, 67, 0
13, 25600, Note_on_c, 11, 64, 45
13, 25805, Note_on_c, 11, 64, 0
13, 25856, Note_on_c, 11, 66, 46
13, 26061, Note_on_c, 11, 66, 0
13, 26112, Note_on_c, 11, 67, 47
13, 26368, Note_on_c, 11, 67, 0
13, 26624, Note_on_c, 11, 62, 49
13, 26829, Note_on_c, 11, 62, 0
13, 26880, Note_on_c, 11, 67, 50
13, 27085, Note_on_c, 11, 67, 0
13, 27136, Note_on_c, 11, 66, 51
13, 27341, Note_on_c, 11, 66, 0
13, 27392, Note_on_c, 11, 69, 52
13, 27597, Note_on_c, 11, 69, 0
13, 27648, Note_on_c, 11, 67, 53
13, 27853, Note_on_c, 11, 67, 0
13, 27904, Note_on_c, 11, 66, 54
13, 28109, Note_on_c, 11, 66, 0
13, 28160, Note_on_c, 11, 67, 55
13, 28365, Note_on_c, 11, 67, 0
13, 28416, Note_on_c, 11, 69, 56
13, 28621, Note_on_c, 11, 69, 0
13, 28672, Note_on_c, 11, 66, 57
13, 28877, Note_on_c, 11, 66, 0
13, 28928, Note_on_c, 11, 67, 58
13, 29133, Note_on_c, 11, 67, 0
13, 29184, Note_on_c, 11, 64, 59
13, 29440, Note_on_c, 11, 64, 0
13, 29696, Note_on_c, 11, 69, 61
13, 29952, Note_on_c, 11, 69, 0
13, 30208, Note_on_c, 11, 71, 63
13, 30464, Note_on_c, 11, 71, 0
13, 30720, Note_on_c, 11, 64, 65
13, 30976, Note_on_c, 11, 64, 0
13, 31232, Note_on_c, 11, 69, 67
13, 31488, Note_on_c, 11, 69, 0
13, 31744, Note_on_c, 11, 73, 69
13, 32000, Note_on_c, 11, 73, 0
13, 32256, Note_on_c, 11, 66, 71
13, 34048, Note_on_c, 11, 66, 0
13, 34304, Note_on_c, 11, 66, 79
13, 34509, Note_on_c, 11, 66, 0
13, 34560, Note_on_c, 11, 64, 80
13, 34765, Note_on_c, 11, 64, 0
13, 34816, Note_on_c, 11, 66, 81
13, 35021, Note_on_c, 11, 66, 0
13, 35072, Note_on_c, 11, 68, 82
13, 35277, Note_on_c, 11, 68, 0
13, 35328, Note_on_c, 11, 69, 83
13, 38656, Note_on_c, 11, 69, 0
13, 38912, Note_on_c, 11, 74, 96
13, 39168, Note_on_c, 11, 74, 0
13, 39424, Note_on_c, 11, 69, 97
13, 39680, Note_on_c, 11, 69, 0
13, 39936, Note_on_c, 11, 69, 99
13, 41728, Note_on_c, 11, 69, 0
13, 41984, Note_on_c, 11, 69, 104
13, 42240, Note_on_c, 11, 69, 0
13, 42496, Note_on_c, 11, 69, 105
13, 42752, Note_on_c, 11, 69, 0
13, 43008, Note_on_c, 11, 69, 106
13, 43264, Note_on_c, 11, 69, 0
13, 43520, Note_on_c, 11, 69, 86
13, 43776, Note_on_c, 11, 69, 0
13, 44032, Note_on_c, 11, 73, 48
13, 44288, Note_on_c, 11, 73, 0
13, 44544, Note_on_c, 11, 71, 48
13, 44800, Note_on_c, 11, 71, 0
13, 45056, Note_on_c, 11, 73, 48
13, 45312, Note_on_c, 11, 73, 0
13, 45568, Note_on_c, 11, 70, 48
13, 45824, Note_on_c, 11, 70, 0
13, 46080, Note_on_c, 11, 71, 44
13, 47872, Note_on_c, 11, 71, 0
13, 48128, Note_on_c, 11, 70, 106
13, 48384, Note_on_c, 11, 70, 0
13, 48640, Note_on_c, 11, 73, 105
13, 48896, Note_on_c, 11, 73, 0
13, 49152, Note_on_c, 11, 71, 105
13, 49408, Note_on_c, 11, 71, 0
13, 49664, Note_on_c, 11, 66, 75
13, 49869, Note_on_c, 11, 66, 0
13, 49920, Note_on_c, 11, 64, 46
13, 50125, Note_on_c, 11, 64, 0
13, 50176, Note_on_c, 11, 66, 46
13, 50381, Note_on_c, 11, 66, 0
13, 50432, Note_on_c, 11, 62, 46
13, 50637, Note_on_c, 11, 62, 0
13, 50688, Note_on_c, 11, 67, 46
13, 50944, Note_on_c, 11, 67, 0
13, 51200, Note_on_c, 11, 69, 46
13, 51405, Note_on_c, 11, 69, 0
13, 51456, Note_on_c, 11, 67, 46
13, 51661, Note_on_c, 11, 67, 0
13, 51712, Note_on_c, 11, 69, 47
13, 51968, Note_on_c, 11, 69, 0
13, 52224, Note_on_c, 11, 71, 47
13, 54016, Note_on_c, 11, 71, 0
13, 54272, Note_on_c, 11, 69, 90
13, 54477, Note_on_c, 11, 69, 0
13, 54528, Note_on_c, 11, 67, 90
13, 54733, Note_on_c, 11, 67, 0
13, 54784, Note_on_c, 11, 69, 90
13, 54989, Note_on_c, 11, 69, 0
13, 55040, Note_on_c, 11, 66, 90
13, 55245, Note_on_c, 11, 66, 0
13, 55296, Note_on_c, 11, 67, 90
13, 55552, Note_on_c, 11, 67, 0
13, 55808, Note_on_c, 11, 66, 78
13, 56064, Note_on_c, 11, 66, 0
13, 56320, Note_on_c, 11, 66, 40
13, 56576, Note_on_c, 11, 66, 0
13, 56832, Note_on_c, 11, 64, 40
13, 57088, Note_on_c, 11, 64, 0
13, 57344, Note_on_c, 11, 64, 40
13, 57600, Note_on_c, 11, 64, 0
13, 57856, Note_on_c, 11, 63, 40
13, 58112, Note_on_c, 11, 63, 0
13, 58368, Note_on_c, 11, 64, 40
13, 61696, Note_on_c, 11, 64, 0
13, 61952, Note_on_c, 11, 61, 40
13, 62208, Note_on_c, 11, 61, 0
13, 62464, Note_on_c, 11, 64, 40
13, 62720, Note_on_c, 11, 64, 0
13, 62976, Note_on_c, 11, 69, 40
13, 63232, Note_on_c, 11, 69, 0
13, 63488, Note_on_c, 11, 69, 40
13, 63693, Note_on_c, 11, 69, 0
13, 63744, Note_on_c, 11, 66, 40
13, 63949, Note_on_c, 11, 66, 0
13, 64000, Note_on_c, 11, 67, 40
13, 64205, Note_on_c, 11, 67, 0
13, 64256, Note_on_c, 11, 64, 40
13, 64461, Note_on_c, 11, 64, 0
13, 64512, Note_on_c, 11, 66, 40
13, 64768, Note_on_c, 11, 66, 0
13, 65024, Note_on_c, 11, 66, 40
13, 65280, Note_on_c, 11, 66, 0
13, 77824, Note_on_c, 11, 57, 99
13, 78080, Note_on_c, 11, 57, 0
13, 78336, Note_on_c, 11, 64, 100
13, 78592, Note_on_c, 11, 64, 0
13, 78848, Note_on_c, 11, 64, 100
13, 79104, Note_on_c, 11, 64, 0
13, 79360, Note_on_c, 11, 64, 100
13, 79616, Note_on_c, 11, 64, 0
13, 79872, Note_on_c, 11, 69, 100
13, 80128, Note_on_c, 11, 69, 0
13, 80384, Note_on_c, 11, 64, 90
13, 80640, Note_on_c, 11, 64, 0
13, 83968, Note_on_c, 11, 66, 101
13, 84224, Note_on_c, 11, 66, 0
13, 84480, Note_on_c, 11, 73, 109
13, 84736, Note_on_c, 11, 73, 0
13, 84992, Note_on_c, 11, 61, 104
13, 85248, Note_on_c, 11, 61, 0
13, 85504, Note_on_c, 11, 61, 107
13, 85760, Note_on_c, 11, 61, 0
13, 86016, Note_on_c, 11, 66, 103
13, 86272, Note_on_c, 11, 66, 0
13, 86528, Note_on_c, 11, 61, 82
13, 86784, Note_on_c, 11, 61, 0
13, 90112, Note_on_c, 11, 62, 104
13, 90368, Note_on_c, 11, 62, 0
13, 90624, Note_on_c, 11, 69, 107
13, 90880, Note_on_c, 11, 69, 0
13, 91136, Note_on_c, 11, 69, 109
13, 91392, Note_on_c, 11, 69, 0
13, 91648, Note_on_c, 11, 69, 111
13, 91904, Note_on_c, 11, 69, 0
13, 92160, Note_on_c, 11, 74, 113
13, 92416, Note_on_c, 11, 74, 0
13, 92672, Note_on_c, 11, 69, 96
13, 92928, Note_on_c, 11, 69, 0
13, 102400, Note_on_c, 11, 69, 41
13, 102656, Note_on_c, 11, 69, 0
13, 102912, Note_on_c, 11, 66, 41
13, 103117, Note_on_c, 11, 66, 0
13, 103168, Note_on_c, 11, 64, 41
13, 103373, Note_on_c, 11, 64, 0
13, 103424, Note_on_c, 11, 62, 41
13, 103629, Note_on_c, 11, 62, 0
13, 103680, Note_on_c, 11, 66, 41
13, 103885, Note_on_c, 11, 66, 0
13, 103936, Note_on_c, 11, 64, 41
13, 104141, Note_on_c, 11, 64, 0
13, 104192, Note_on_c, 11, 67, 41
13, 104397, Note_on_c, 11, 67, 0
13, 104448, Note_on_c, 11, 66, 41
13, 104653, Note_on_c, 11, 66, 0
13, 104704, Note_on_c, 11, 64, 41
13, 104909, Note_on_c, 11, 64, 0
13, 104960, Note_on_c, 11, 66, 41
13, 105165, Note_on_c, 11, 66, 0
13, 105216, Note_on_c, 11, 67, 41
13, 105421, Note_on_c, 11, 67, 0
13, 105472, Note_on_c, 11, 64, 41
13, 105677, Note_on_c, 11, 64, 0
13, 105728, Note_on_c, 11, 66, 41
13, 105933, Note_on_c, 11, 66, 0
13, 105984, Note_on_c, 11, 67, 41
13, 106240, Note_on_c, 11, 67, 0
13, 106496, Note_on_c, 11, 62, 41
13, 106701, Note_on_c, 11, 62, 0
13, 106752, Note_on_c, 11, 67, 41
13, 106957, Note_on_c, 11, 67, 0
13, 107008, Note_on_c, 11, 66, 41
13, 107213, Note_on_c, 11, 66, 0
13, 107264, Note_on_c, 11, 69, 41
13, 107469, Note_on_c, 11, 69, 0
13, 107520, Note_on_c, 11, 67, 41
13, 110848, Note_on_c, 11, 67, 0
13, 111104, Note_on_c, 11, 67, 41
13, 111360, Note_on_c, 11, 67, 0
13, 111616, Note_on_c, 11, 68, 41
13, 111872, Note_on_c, 11, 68, 0
13, 112128, Note_on_c, 11, 66, 41
13, 112384, Note_on_c, 11, 66, 0
13, 112640, Note_on_c, 11, 58, 41
13, 112896, Note_on_c, 11, 58, 0
13, 113152, Note_on_c, 11, 61, 41
13, 113408, Note_on_c, 11, 61, 0
13, 113664, Note_on_c, 11, 66, 41
13, 113920, Note_on_c, 11, 66, 0
13, 114176, Note_on_c, 11, 66, 41
13, 114432, Note_on_c, 11, 66, 0
13, 116224, Note_on_c, 11, 66, 51
13, 116480, Note_on_c, 11, 66, 0
13, 116736, Note_on_c, 11, 62, 54
13, 116992, Note_on_c, 11, 62, 0
13, 117248, Note_on_c, 11, 59, 58
13, 117504, Note_on_c, 11, 59, 0
13, 117760, Note_on_c, 11, 62, 61
13, 118016, Note_on_c, 11, 62, 0
13, 118272, Note_on_c, 11, 64, 65
13, 118528, Note_on_c, 11, 64, 0
13, 118784, Note_on_c, 11, 64, 68
13, 119040, Note_on_c, 11, 64, 0
13, 119296, Note_on_c, 11, 63, 72
13, 119552, Note_on_c, 11, 63, 0
13, 119808, Note_on_c, 11, 68, 75
13, 120064, Note_on_c, 11, 68, 0
13, 120320, Note_on_c, 11, 71, 78
13, 120576, Note_on_c, 11, 71, 0
13, 120832, Note_on_c, 11, 68, 82
13, 121088, Note_on_c, 11, 68, 0
13, 121344, Note_on_c, 11, 64, 85
13, 121600, Note_on_c, 11, 64, 0
13, 121856, Note_on_c, 11, 61, 89
13, 122112, Note_on_c, 11, 61, 0
13, 123904, Note_on_c, 11, 69, 98
13, 124160, Note_on_c, 11, 69, 0
13, 124416, Note_on_c, 11, 69, 97
13, 124672, Note_on_c, 11, 69, 0
13, 124928, Note_on_c, 11, 69, 102
13, 125184, Note_on_c, 11, 69, 0
13, 125440, Note_on_c, 11, 69, 106
13, 125696, Note_on_c, 11, 69, 0
13, 125952, Note_on_c, 11, 74, 111
13, 126208, Note_on_c, 11, 74, 0
13, 126464, Note_on_c, 11, 69, 108
13, 126720, Note_on_c, 11, 69, 0
13, 130048, Note_on_c, 11, 69, 105
13, 130304, Note_on_c, 11, 69, 0
13, 130560, Note_on_c, 11, 69, 99
13, 130816, Note_on_c, 11, 69, 0
13, 131072, Note_on_c, 11, 66, 99
13, 131328, Note_on_c, 11, 66, 0
13, 133120, Note_on_c, 11, 69, 105
13, 133376, Note_on_c, 11, 69, 0
13, 133632, Note_on_c, 11, 69, 107
13, 135424, Note_on_c, 11, 69, 0
13, 135680, Note_on_c, 11, 66, 108
13, 135936, Note_on_c, 11, 66, 0
13, 137728, Note_on_c, 11, 71, 96
13, 137984, Note_on_c, 11, 71, 0
13, 138240, Note_on_c, 11, 71, 97
13, 138496, Note_on_c, 11, 71, 0
13, 138752, Note_on_c, 11, 71, 99
13, 139008, Note_on_c, 11, 71, 0
13, 139264, Note_on_c, 11, 71, 100
13, 139520, Note_on_c, 11, 71, 0
13, 139776, Note_on_c, 11, 64, 102
13, 140032, Note_on_c, 11, 64, 0
13, 140288, Note_on_c, 11, 69, 103
13, 140493, Note_on_c, 11, 69, 0
13, 140544, Note_on_c, 11, 67, 104
13, 140749, Note_on_c, 11, 67, 0
13, 140800, Note_on_c, 11, 69, 104
13, 141568, Note_on_c, 11, 69, 0
13, 141824, Note_on_c, 11, 69, 107
13, 142080, Note_on_c, 11, 69, 0
13, 145408, Note_on_c, 11, 66, 106
13, 145664, Note_on_c, 11, 66, 0
13, 145920, Note_on_c, 11, 67, 109
13, 146176, Note_on_c, 11, 67, 0
13, 146432, Note_on_c, 11, 67, 111
13, 146688, Note_on_c, 11, 67, 0
13, 146944, Note_on_c, 11, 69, 114
13, 147200, Note_on_c, 11, 69, 0
13, 147456, Note_on_c, 11, 71, 117
13, 147712, Note_on_c, 11, 71, 0
13, 147968, Note_on_c, 11, 71, 117
13, 148224, Note_on_c, 11, 71, 0
13, 151552, Note_on_c, 11, 64, 101
13, 151808, Note_on_c, 11, 64, 0
13, 152064, Note_on_c, 11, 66, 103
13, 152320, Note_on_c, 11, 66, 0
13, 152576, Note_on_c, 11, 66, 106
13, 152832, Note_on_c, 11, 66, 0
13, 153088, Note_on_c, 11, 67, 108
13, 153344, Note_on_c, 11, 67, 0
13, 153600, Note_on_c, 11, 69, 111
13, 153856, Note_on_c, 11, 69, 0
13, 154112, Note_on_c, 11, 69, 103
13, 154368, Note_on_c, 11, 69, 0
13, 154624, Note_on_c, 11, 69, 94
13, 154880, Note_on_c, 11, 69, 0
13, 155136, Note_on_c, 11, 67, 96
13, 155392, Note_on_c, 11, 67, 0
13, 155648, Note_on_c, 11, 67, 99
13, 155904, Note_on_c, 11, 67, 0
13, 157696, Note_on_c, 11, 73, 110
13, 157952, Note_on_c, 11, 73, 0
13, 158208, Note_on_c, 11, 71, 113
13, 158464, Note_on_c, 11, 71, 0
13, 158720, Note_on_c, 11, 71, 116
13, 158976, Note_on_c, 11, 71, 0
13, 159232, Note_on_c, 11, 69, 118
13, 159488, Note_on_c, 11, 69, 0
13, 159744, Note_on_c, 11, 69, 121
13, 160000, Note_on_c, 11, 69, 0
13, 160256, Note_on_c, 11, 66, 89
13, 160512, Note_on_c, 11, 66, 0
13, 160768, Note_on_c, 11, 66, 45
13, 161024, Note_on_c, 11, 66, 0
13, 161280, Note_on_c, 11, 66, 46
13, 161536, Note_on_c, 11, 66, 0
13, 161792, Note_on_c, 11, 64, 47
13, 162048, Note_on_c, 11, 64, 0
13, 163328, Note_on_c, 11, 66, 51
13, 163584, Note_on_c, 11, 66, 0
13, 163840, Note_on_c, 11, 69, 52
13, 164096, Note_on_c, 11, 69, 0
13, 164352, Note_on_c, 11, 69, 54
13, 164608, Note_on_c, 11, 69, 0
13, 164864, Note_on_c, 11, 67, 55
13, 165120, Note_on_c, 11, 67, 0
13, 166912, Note_on_c, 11, 69, 100
13, 167168, Note_on_c, 11, 69, 0
13, 167424, Note_on_c, 11, 69, 102
13, 170752, Note_on_c, 11, 69, 0
13, 171008, Note_on_c, 11, 67, 114
13, 171264, Note_on_c, 11, 67, 0
13, 171520, Note_on_c, 11, 64, 116
13, 171776, Note_on_c, 11, 64, 0
13, 172032, Note_on_c, 11, 62, 118
13, 172288, Note_on_c, 11, 62, 0
13, 172544, Note_on_c, 11, 66, 84
13, 172800, Note_on_c, 11, 66, 0
13, 173056, Note_on_c, 11, 69, 52
13, 173312, Note_on_c, 11, 69, 0
13, 173568, Note_on_c, 11, 69, 56
13, 173773, Note_on_c, 11, 69, 0
13, 173824, Note_on_c, 11, 67, 58
13, 174029, Note_on_c, 11, 67, 0
13, 174080, Note_on_c, 11, 67, 59
13, 174336, Note_on_c, 11, 67, 0
13, 175616, Note_on_c, 11, 69, 70
13, 175872, Note_on_c, 11, 69, 0
13, 176128, Note_on_c, 11, 69, 101
13, 176384, Note_on_c, 11, 69, 0
13, 176640, Note_on_c, 11, 69, 109
13, 178176, Note_on_c, 11, 69, 0
13, 178176, Note_on_c, 11, 69, 121
13, 179115, Note_on_c, 11, 69, 0
13, 230400, Control_c, 11, 121, 127
13, 230400, End_track
14, 0, Start_track
14, 0, Title_t, "Tenor I"
14, 0, Program_c, 12, 52
14, 0, Control_c, 12, 121, 127
14, 0, Control_c, 12, 91, 127
14, 0, Control_c, 12, 93, 127
14, 0, Control_c, 12, 1, 5
14, 0, Control_c, 12, 10, 80
14, 1024, Note_on_c, 12, 50, 88
14, 1280, Note_on_c, 12, 50, 0
14, 1536, Note_on_c, 12, 57, 88
14, 1792, Note_on_c, 12, 57, 0
14, 2048, Note_on_c, 12, 57, 88
14, 2304, Note_on_c, 12, 57, 0
14, 2560, Note_on_c, 12, 57, 88
14, 2816, Note_on_c, 12, 57, 0
14, 3072, Note_on_c, 12, 62, 88
14, 3328, Note_on_c, 12, 62, 0
14, 3584, Note_on_c, 12, 57, 88
14, 3840, Note_on_c, 12, 57, 0
14, 10240, Note_on_c, 12, 66, 86
14, 10496, Note_on_c, 12, 66, 0
14, 10752, Note_on_c, 12, 64, 86
14, 11008, Note_on_c, 12, 64, 0
14, 11264, Note_on_c, 12, 67, 89
14, 11469, Note_on_c, 12, 67, 0
14, 11520, Note_on_c, 12, 66, 90
14, 11725, Note_on_c, 12, 66, 0
14, 11776, Note_on_c, 12, 67, 91
14, 11981, Note_on_c, 12, 67, 0
14, 12032, Note_on_c, 12, 64, 92
14, 12237, Note_on_c, 12, 64, 0
14, 12288, Note_on_c, 12, 66, 93
14, 12544, Note_on_c, 12, 66, 0
14, 12800, Note_on_c, 12, 64, 96
14, 13056, Note_on_c, 12, 64, 0
14, 13312, Note_on_c, 12, 64, 98
14, 13568, Note_on_c, 12, 64, 0
14, 13824, Note_on_c, 12, 62, 100
14, 14080, Note_on_c, 12, 62, 0
14, 14336, Note_on_c, 12, 62, 103
14, 14592, Note_on_c, 12, 62, 0
14, 14848, Note_on_c, 12, 61, 105
14, 15104, Note_on_c, 12, 61, 0
14, 15360, Note_on_c, 12, 57, 107
14, 15616, Note_on_c, 12, 57, 0
14, 15872, Note_on_c, 12, 57, 93
14, 16128, Note_on_c, 12, 57, 0
14, 16384, Note_on_c, 12, 62, 46
14, 16640, Note_on_c, 12, 62, 0
14, 16896, Note_on_c, 12, 62, 46
14, 17152, Note_on_c, 12, 62, 0
14, 17408, Note_on_c, 12, 59, 46
14, 17664, Note_on_c, 12, 59, 0
14, 19456, Note_on_c, 12, 61, 90
14, 19712, Note_on_c, 12, 61, 0
14, 19968, Note_on_c, 12, 62, 91
14, 20224, Note_on_c, 12, 62, 0
14, 20480, Note_on_c, 12, 64, 93
14, 20736, Note_on_c, 12, 64, 0
14, 20992, Note_on_c, 12, 57, 94
14, 21248, Note_on_c, 12, 57, 0
14, 21504, Note_on_c, 12, 61, 95
14, 21760, Note_on_c, 12, 61, 0
14, 22016, Note_on_c, 12, 61, 89
14, 22272, Note_on_c, 12, 61, 0
14, 31744, Note_on_c, 12, 61, 69
14, 32000, Note_on_c, 12, 61, 0
14, 32256, Note_on_c, 12, 62, 71
14, 32461, Note_on_c, 12, 62, 0
14, 32512, Note_on_c, 12, 61, 72
14, 32717, Note_on_c, 12, 61, 0
14, 32768, Note_on_c, 12, 59, 73
14, 32973, Note_on_c, 12, 59, 0
14, 33024, Note_on_c, 12, 62, 74
14, 33229, Note_on_c, 12, 62, 0
14, 33280, Note_on_c, 12, 61, 75
14, 33485, Note_on_c, 12, 61, 0
14, 33536, Note_on_c, 12, 64, 76
14, 33741, Note_on_c, 12, 64, 0
14, 33792, Note_on_c, 12, 62, 77
14, 33997, Note_on_c, 12, 62, 0
14, 34048, Note_on_c, 12, 61, 78
14, 34253, Note_on_c, 12, 61, 0
14, 34304, Note_on_c, 12, 62, 79
14, 34509, Note_on_c, 12, 62, 0
14, 34560, Note_on_c, 12, 64, 80
14, 34765, Note_on_c, 12, 64, 0
14, 34816, Note_on_c, 12, 61, 81
14, 35021, Note_on_c, 12, 61, 0
14, 35072, Note_on_c, 12, 62, 82
14, 35277, Note_on_c, 12, 62, 0
14, 35328, Note_on_c, 12, 64, 83
14, 35533, Note_on_c, 12, 64, 0
14, 35584, Note_on_c, 12, 62, 84
14, 35789, Note_on_c, 12, 62, 0
14, 35840, Note_on_c, 12, 61, 85
14, 36045, Note_on_c, 12, 61, 0
14, 36096, Note_on_c, 12, 64, 86
14, 36301, Note_on_c, 12, 64, 0
14, 36352, Note_on_c, 12, 62, 90
14, 36557, Note_on_c, 12, 62, 0
14, 36608, Note_on_c, 12, 66, 90
14, 36813, Note_on_c, 12, 66, 0
14, 36864, Note_on_c, 12, 64, 91
14, 37069, Note_on_c, 12, 64, 0
14, 37120, Note_on_c, 12, 62, 91
14, 37325, Note_on_c, 12, 62, 0
14, 37376, Note_on_c, 12, 64, 92
14, 37581, Note_on_c, 12, 64, 0
14, 37632, Note_on_c, 12, 66, 93
14, 37837, Note_on_c, 12, 66, 0
14, 37888, Note_on_c, 12, 62, 93
14, 38093, Note_on_c, 12, 62, 0
14, 38144, Note_on_c, 12, 64, 94
14, 38349, Note_on_c, 12, 64, 0
14, 38400, Note_on_c, 12, 66, 95
14, 38605, Note_on_c, 12, 66, 0
14, 38656, Note_on_c, 12, 64, 95
14, 38861, Note_on_c, 12, 64, 0
14, 38912, Note_on_c, 12, 62, 96
14, 39117, Note_on_c, 12, 62, 0
14, 39168, Note_on_c, 12, 66, 97
14, 39373, Note_on_c, 12, 66, 0
14, 39424, Note_on_c, 12, 64, 97
14, 39629, Note_on_c, 12, 64, 0
14, 39680, Note_on_c, 12, 67, 98
14, 39885, Note_on_c, 12, 67, 0
14, 39936, Note_on_c, 12, 66, 99
14, 41728, Note_on_c, 12, 66, 0
14, 41984, Note_on_c, 12, 64, 104
14, 42240, Note_on_c, 12, 64, 0
14, 42496, Note_on_c, 12, 64, 105
14, 42752, Note_on_c, 12, 64, 0
14, 43008, Note_on_c, 12, 62, 106
14, 43264, Note_on_c, 12, 62, 0
14, 43520, Note_on_c, 12, 61, 86
14, 43776, Note_on_c, 12, 61, 0
14, 44032, Note_on_c, 12, 66, 48
14, 44288, Note_on_c, 12, 66, 0
14, 44544, Note_on_c, 12, 66, 48
14, 44800, Note_on_c, 12, 66, 0
14, 45056, Note_on_c, 12, 67, 48
14, 45312, Note_on_c, 12, 67, 0
14, 45568, Note_on_c, 12, 66, 48
14, 45824, Note_on_c, 12, 66, 0
14, 46080, Note_on_c, 12, 66, 44
14, 47872, Note_on_c, 12, 66, 0
14, 48128, Note_on_c, 12, 66, 106
14, 48384, Note_on_c, 12, 66, 0
14, 48640, Note_on_c, 12, 66, 105
14, 48896, Note_on_c, 12, 66, 0
14, 49152, Note_on_c, 12, 66, 105
14, 49357, Note_on_c, 12, 66, 0
14, 49408, Note_on_c, 12, 64, 97
14, 49613, Note_on_c, 12, 64, 0
14, 49664, Note_on_c, 12, 62, 75
14, 49869, Note_on_c, 12, 62, 0
14, 49920, Note_on_c, 12, 61, 46
14, 50125, Note_on_c, 12, 61, 0
14, 50176, Note_on_c, 12, 59, 46
14, 50381, Note_on_c, 12, 59, 0
14, 50432, Note_on_c, 12, 62, 46
14, 50637, Note_on_c, 12, 62, 0
14, 50688, Note_on_c, 12, 60, 46
14, 50893, Note_on_c, 12, 60, 0
14, 50944, Note_on_c, 12, 59, 46
14, 51149, Note_on_c, 12, 59, 0
14, 51200, Note_on_c, 12, 60, 46
14, 51405, Note_on_c, 12, 60, 0
14, 51456, Note_on_c, 12, 64, 46
14, 51661, Note_on_c, 12, 64, 0
14, 51712, Note_on_c, 12, 62, 47
14, 51968, Note_on_c, 12, 62, 0
14, 52224, Note_on_c, 12, 62, 47
14, 55552, Note_on_c, 12, 62, 0
14, 55808, Note_on_c, 12, 62, 78
14, 56064, Note_on_c, 12, 62, 0
14, 56320, Note_on_c, 12, 59, 40
14, 56576, Note_on_c, 12, 59, 0
14, 56832, Note_on_c, 12, 59, 40
14, 57088, Note_on_c, 12, 59, 0
14, 57344, Note_on_c, 12, 60, 40
14, 57600, Note_on_c, 12, 60, 0
14, 57856, Note_on_c, 12, 59, 40
14, 58112, Note_on_c, 12, 59, 0
14, 58368, Note_on_c, 12, 59, 40
14, 58624, Note_on_c, 12, 59, 0
14, 58880, Note_on_c, 12, 61, 40
14, 59136, Note_on_c, 12, 61, 0
14, 59392, Note_on_c, 12, 62, 40
14, 59648, Note_on_c, 12, 62, 0
14, 59904, Note_on_c, 12, 61, 40
14, 60109, Note_on_c, 12, 61, 0
14, 60160, Note_on_c, 12, 62, 40
14, 60365, Note_on_c, 12, 62, 0
14, 60416, Note_on_c, 12, 64, 40
14, 60621, Note_on_c, 12, 64, 0
14, 60672, Note_on_c, 12, 61, 40
14, 60877, Note_on_c, 12, 61, 0
14, 60928, Note_on_c, 12, 62, 40
14, 61133, Note_on_c, 12, 62, 0
14, 61184, Note_on_c, 12, 59, 40
14, 61389, Note_on_c, 12, 59, 0
14, 61440, Note_on_c, 12, 61, 40
14, 61696, Note_on_c, 12, 61, 0
14, 61952, Note_on_c, 12, 64, 40
14, 62208, Note_on_c, 12, 64, 0
14, 62464, Note_on_c, 12, 61, 40
14, 62720, Note_on_c, 12, 61, 0
14, 62976, Note_on_c, 12, 57, 40
14, 63232, Note_on_c, 12, 57, 0
14, 63488, Note_on_c, 12, 57, 40
14, 63744, Note_on_c, 12, 57, 0
14, 64000, Note_on_c, 12, 57, 40
14, 64256, Note_on_c, 12, 57, 0
14, 64512, Note_on_c, 12, 57, 40
14, 64768, Note_on_c, 12, 57, 0
14, 65024, Note_on_c, 12, 57, 40
14, 65280, Note_on_c, 12, 57, 0
14, 77824, Note_on_c, 12, 57, 99
14, 78080, Note_on_c, 12, 57, 0
14, 78336, Note_on_c, 12, 64, 100
14, 78592, Note_on_c, 12, 64, 0
14, 78848, Note_on_c, 12, 64, 100
14, 79104, Note_on_c, 12, 64, 0
14, 79360, Note_on_c, 12, 64, 100
14, 79616, Note_on_c, 12, 64, 0
14, 79872, Note_on_c, 12, 69, 100
14, 80128, Note_on_c, 12, 69, 0
14, 80384, Note_on_c, 12, 64, 90
14, 80640, Note_on_c, 12, 64, 0
14, 83968, Note_on_c, 12, 54, 101
14, 84224, Note_on_c, 12, 54, 0
14, 84480, Note_on_c, 12, 61, 109
14, 84736, Note_on_c, 12, 61, 0
14, 84992, Note_on_c, 12, 61, 104
14, 85248, Note_on_c, 12, 61, 0
14, 85504, Note_on_c, 12, 61, 107
14, 85760, Note_on_c, 12, 61, 0
14, 86016, Note_on_c, 12, 66, 103
14, 86272, Note_on_c, 12, 66, 0
14, 86528, Note_on_c, 12, 61, 82
14, 86784, Note_on_c, 12, 61, 0
14, 90112, Note_on_c, 12, 50, 104
14, 90368, Note_on_c, 12, 50, 0
14, 90624, Note_on_c, 12, 57, 107
14, 90880, Note_on_c, 12, 57, 0
14, 91136, Note_on_c, 12, 57, 109
14, 91392, Note_on_c, 12, 57, 0
14, 91648, Note_on_c, 12, 57, 111
14, 91904, Note_on_c, 12, 57, 0
14, 92160, Note_on_c, 12, 62, 113
14, 92416, Note_on_c, 12, 62, 0
14, 92672, Note_on_c, 12, 57, 96
14, 92928, Note_on_c, 12, 57, 0
14, 99328, Note_on_c, 12, 64, 41
14, 99584, Note_on_c, 12, 64, 0
14, 99840, Note_on_c, 12, 61, 41
14, 100045, Note_on_c, 12, 61, 0
14, 100096, Note_on_c, 12, 59, 41
14, 100301, Note_on_c, 12, 59, 0
14, 100352, Note_on_c, 12, 57, 41
14, 100557, Note_on_c, 12, 57, 0
14, 100608, Note_on_c, 12, 61, 41
14, 100813, Note_on_c, 12, 61, 0
14, 100864, Note_on_c, 12, 59, 41
14, 101069, Note_on_c, 12, 59, 0
14, 101120, Note_on_c, 12, 62, 41
14, 101325, Note_on_c, 12, 62, 0
14, 101376, Note_on_c, 12, 61, 41
14, 101581, Note_on_c, 12, 61, 0
14, 101632, Note_on_c, 12, 59, 41
14, 101837, Note_on_c, 12, 59, 0
14, 101888, Note_on_c, 12, 61, 41
14, 102093, Note_on_c, 12, 61, 0
14, 102144, Note_on_c, 12, 62, 41
14, 102349, Note_on_c, 12, 62, 0
14, 102400, Note_on_c, 12, 59, 41
14, 102605, Note_on_c, 12, 59, 0
14, 102656, Note_on_c, 12, 61, 41
14, 102861, Note_on_c, 12, 61, 0
14, 102912, Note_on_c, 12, 62, 41
14, 103168, Note_on_c, 12, 62, 0
14, 103424, Note_on_c, 12, 57, 41
14, 103629, Note_on_c, 12, 57, 0
14, 103680, Note_on_c, 12, 62, 41
14, 103885, Note_on_c, 12, 62, 0
14, 103936, Note_on_c, 12, 61, 41
14, 104141, Note_on_c, 12, 61, 0
14, 104192, Note_on_c, 12, 64, 41
14, 104397, Note_on_c, 12, 64, 0
14, 104448, Note_on_c, 12, 62, 41
14, 107776, Note_on_c, 12, 62, 0
14, 108032, Note_on_c, 12, 62, 41
14, 108288, Note_on_c, 12, 62, 0
14, 108544, Note_on_c, 12, 62, 41
14, 108800, Note_on_c, 12, 62, 0
14, 109056, Note_on_c, 12, 61, 41
14, 109312, Note_on_c, 12, 61, 0
14, 109568, Note_on_c, 12, 64, 41
14, 109824, Note_on_c, 12, 64, 0
14, 110080, Note_on_c, 12, 67, 41
14, 110336, Note_on_c, 12, 67, 0
14, 110592, Note_on_c, 12, 61, 41
14, 110848, Note_on_c, 12, 61, 0
14, 111104, Note_on_c, 12, 61, 41
14, 111360, Note_on_c, 12, 61, 0
14, 113152, Note_on_c, 12, 61, 41
14, 113408, Note_on_c, 12, 61, 0
14, 113664, Note_on_c, 12, 58, 41
14, 113920, Note_on_c, 12, 58, 0
14, 114176, Note_on_c, 12, 54, 41
14, 114432, Note_on_c, 12, 54, 0
14, 114688, Note_on_c, 12, 58, 41
14, 114944, Note_on_c, 12, 58, 0
14, 115200, Note_on_c, 12, 59, 44
14, 115456, Note_on_c, 12, 59, 0
14, 115712, Note_on_c, 12, 59, 48
14, 115968, Note_on_c, 12, 59, 0
14, 119296, Note_on_c, 12, 59, 72
14, 119552, Note_on_c, 12, 59, 0
14, 119808, Note_on_c, 12, 59, 75
14, 120064, Note_on_c, 12, 59, 0
14, 120320, Note_on_c, 12, 64, 78
14, 120576, Note_on_c, 12, 64, 0
14, 120832, Note_on_c, 12, 64, 82
14, 121088, Note_on_c, 12, 64, 0
14, 121344, Note_on_c, 12, 64, 85
14, 121600, Note_on_c, 12, 64, 0
14, 121856, Note_on_c, 12, 69, 89
14, 122112, Note_on_c, 12, 69, 0
14, 123904, Note_on_c, 12, 57, 98
14, 124160, Note_on_c, 12, 57, 0
14, 124416, Note_on_c, 12, 57, 97
14, 124672, Note_on_c, 12, 57, 0
14, 124928, Note_on_c, 12, 57, 102
14, 125184, Note_on_c, 12, 57, 0
14, 125440, Note_on_c, 12, 57, 106
14, 125696, Note_on_c, 12, 57, 0
14, 125952, Note_on_c, 12, 62, 111
14, 126208, Note_on_c, 12, 62, 0
14, 126464, Note_on_c, 12, 57, 108
14, 126720, Note_on_c, 12, 57, 0
14, 130048, Note_on_c, 12, 64, 105
14, 130304, Note_on_c, 12, 64, 0
14, 130560, Note_on_c, 12, 62, 99
14, 130816, Note_on_c, 12, 62, 0
14, 131072, Note_on_c, 12, 69, 99
14, 131328, Note_on_c, 12, 69, 0
14, 133120, Note_on_c, 12, 61, 105
14, 133376, Note_on_c, 12, 61, 0
14, 133632, Note_on_c, 12, 62, 107
14, 133888, Note_on_c, 12, 62, 0
14, 134144, Note_on_c, 12, 60, 108
14, 134400, Note_on_c, 12, 60, 0
14, 134656, Note_on_c, 12, 57, 110
14, 134912, Note_on_c, 12, 57, 0
14, 135168, Note_on_c, 12, 54, 111
14, 135424, Note_on_c, 12, 54, 0
14, 135680, Note_on_c, 12, 59, 108
14, 135936, Note_on_c, 12, 59, 0
14, 137728, Note_on_c, 12, 64, 96
14, 137984, Note_on_c, 12, 64, 0
14, 138240, Note_on_c, 12, 64, 97
14, 138496, Note_on_c, 12, 64, 0
14, 138752, Note_on_c, 12, 59, 99
14, 139008, Note_on_c, 12, 59, 0
14, 139264, Note_on_c, 12, 64, 100
14, 139520, Note_on_c, 12, 64, 0
14, 139776, Note_on_c, 12, 61, 102
14, 140032, Note_on_c, 12, 61, 0
14, 140288, Note_on_c, 12, 57, 103
14, 140493, Note_on_c, 12, 57, 0
14, 140544, Note_on_c, 12, 61, 104
14, 140749, Note_on_c, 12, 61, 0
14, 140800, Note_on_c, 12, 64, 104
14, 141568, Note_on_c, 12, 64, 0
14, 141824, Note_on_c, 12, 64, 107
14, 142080, Note_on_c, 12, 64, 0
14, 145408, Note_on_c, 12, 62, 106
14, 145664, Note_on_c, 12, 62, 0
14, 145920, Note_on_c, 12, 62, 109
14, 146176, Note_on_c, 12, 62, 0
14, 146432, Note_on_c, 12, 59, 111
14, 146688, Note_on_c, 12, 59, 0
14, 146944, Note_on_c, 12, 57, 114
14, 147200, Note_on_c, 12, 57, 0
14, 147456, Note_on_c, 12, 64, 117
14, 147712, Note_on_c, 12, 64, 0
14, 147968, Note_on_c, 12, 64, 117
14, 148224, Note_on_c, 12, 64, 0
14, 151552, Note_on_c, 12, 61, 101
14, 151808, Note_on_c, 12, 61, 0
14, 152064, Note_on_c, 12, 61, 103
14, 152320, Note_on_c, 12, 61, 0
14, 152576, Note_on_c, 12, 57, 106
14, 152832, Note_on_c, 12, 57, 0
14, 153088, Note_on_c, 12, 55, 108
14, 153344, Note_on_c, 12, 55, 0
14, 153600, Note_on_c, 12, 62, 111
14, 153856, Note_on_c, 12, 62, 0
14, 154112, Note_on_c, 12, 62, 103
14, 154368, Note_on_c, 12, 62, 0
14, 154624, Note_on_c, 12, 66, 94
14, 154880, Note_on_c, 12, 66, 0
14, 155136, Note_on_c, 12, 62, 96
14, 155392, Note_on_c, 12, 62, 0
14, 155648, Note_on_c, 12, 62, 99
14, 155904, Note_on_c, 12, 62, 0
14, 157696, Note_on_c, 12, 66, 110
14, 157952, Note_on_c, 12, 66, 0
14, 158208, Note_on_c, 12, 66, 113
14, 158464, Note_on_c, 12, 66, 0
14, 158720, Note_on_c, 12, 64, 116
14, 158976, Note_on_c, 12, 64, 0
14, 159232, Note_on_c, 12, 64, 118
14, 159488, Note_on_c, 12, 64, 0
14, 159744, Note_on_c, 12, 66, 121
14, 160000, Note_on_c, 12, 66, 0
14, 160256, Note_on_c, 12, 62, 89
14, 160512, Note_on_c, 12, 62, 0
14, 160768, Note_on_c, 12, 50, 45
14, 161024, Note_on_c, 12, 50, 0
14, 161280, Note_on_c, 12, 57, 46
14, 161485, Note_on_c, 12, 57, 0
14, 161536, Note_on_c, 12, 55, 47
14, 161741, Note_on_c, 12, 55, 0
14, 161792, Note_on_c, 12, 57, 47
14, 161997, Note_on_c, 12, 57, 0
14, 162048, Note_on_c, 12, 59, 48
14, 162253, Note_on_c, 12, 59, 0
14, 162304, Note_on_c, 12, 61, 48
14, 162509, Note_on_c, 12, 61, 0
14, 162560, Note_on_c, 12, 57, 49
14, 162765, Note_on_c, 12, 57, 0
14, 162816, Note_on_c, 12, 62, 50
14, 163021, Note_on_c, 12, 62, 0
14, 163072, Note_on_c, 12, 61, 50
14, 163277, Note_on_c, 12, 61, 0
14, 163328, Note_on_c, 12, 62, 51
14, 163533, Note_on_c, 12, 62, 0
14, 163584, Note_on_c, 12, 64, 52
14, 163789, Note_on_c, 12, 64, 0
14, 163840, Note_on_c, 12, 62, 52
14, 164045, Note_on_c, 12, 62, 0
14, 164096, Note_on_c, 12, 61, 53
14, 164301, Note_on_c, 12, 61, 0
14, 164352, Note_on_c, 12, 59, 54
14, 164557, Note_on_c, 12, 59, 0
14, 164608, Note_on_c, 12, 60, 54
14, 164813, Note_on_c, 12, 60, 0
14, 164864, Note_on_c, 12, 59, 55
14, 165069, Note_on_c, 12, 59, 0
14, 165120, Note_on_c, 12, 57, 56
14, 165325, Note_on_c, 12, 57, 0
14, 165376, Note_on_c, 12, 55, 56
14, 165581, Note_on_c, 12, 55, 0
14, 165632, Note_on_c, 12, 54, 57
14, 165837, Note_on_c, 12, 54, 0
14, 165888, Note_on_c, 12, 52, 57
14, 166144, Note_on_c, 12, 52, 0
14, 166400, Note_on_c, 12, 64, 79
14, 166656, Note_on_c, 12, 64, 0
14, 166912, Note_on_c, 12, 66, 100
14, 167168, Note_on_c, 12, 66, 0
14, 167424, Note_on_c, 12, 64, 102
14, 167680, Note_on_c, 12, 64, 0
14, 167936, Note_on_c, 12, 67, 104
14, 168141, Note_on_c, 12, 67, 0
14, 168192, Note_on_c, 12, 66, 104
14, 168397, Note_on_c, 12, 66, 0
14, 168448, Note_on_c, 12, 67, 105
14, 168653, Note_on_c, 12, 67, 0
14, 168704, Note_on_c, 12, 64, 106
14, 168909, Note_on_c, 12, 64, 0
14, 168960, Note_on_c, 12, 66, 107
14, 169216, Note_on_c, 12, 66, 0
14, 169472, Note_on_c, 12, 64, 109
14, 169728, Note_on_c, 12, 64, 0
14, 169984, Note_on_c, 12, 64, 111
14, 170240, Note_on_c, 12, 64, 0
14, 170496, Note_on_c, 12, 62, 113
14, 170752, Note_on_c, 12, 62, 0
14, 171008, Note_on_c, 12, 62, 114
14, 171264, Note_on_c, 12, 62, 0
14, 171520, Note_on_c, 12, 61, 116
14, 171776, Note_on_c, 12, 61, 0
14, 172032, Note_on_c, 12, 57, 118
14, 172288, Note_on_c, 12, 57, 0
14, 172544, Note_on_c, 12, 57, 84
14, 172800, Note_on_c, 12, 57, 0
14, 173056, Note_on_c, 12, 62, 52
14, 173312, Note_on_c, 12, 62, 0
14, 173568, Note_on_c, 12, 62, 56
14, 173824, Note_on_c, 12, 62, 0
14, 174080, Note_on_c, 12, 62, 59
14, 174336, Note_on_c, 12, 62, 0
14, 175616, Note_on_c, 12, 64, 70
14, 175872, Note_on_c, 12, 64, 0
14, 176128, Note_on_c, 12, 64, 101
14, 176384, Note_on_c, 12, 64, 0
14, 176640, Note_on_c, 12, 62, 109
14, 177664, Note_on_c, 12, 62, 0
14, 177664, Note_on_c, 12, 64, 117
14, 177920, Note_on_c, 12, 64, 0
14, 178176, Note_on_c, 12, 66, 121
14, 179115, Note_on_c, 12, 66, 0
14, 230400, Control_c, 12, 121, 127
14, 230400, End_track
15, 0, Start_track
15, 0, Title_t, "Bass I"
15, 0, Program_c, 13, 52
15, 0, Control_c, 13, 121, 127
15, 0, Control_c, 13, 91, 127
15, 0, Control_c, 13, 93, 127
15, 0, Control_c, 13, 1, 5
15, 0, Control_c, 13, 10, 110
15, 1024, Note_on_c, 13, 50, 88
15, 1280, Note_on_c, 13, 50, 0
15, 1536, Note_on_c, 13, 57, 88
15, 1792, Note_on_c, 13, 57, 0
15, 2048, Note_on_c, 13, 57, 88
15, 2304, Note_on_c, 13, 57, 0
15, 2560, Note_on_c, 13, 57, 88
15, 2816, Note_on_c, 13, 57, 0
15, 3072, Note_on_c, 13, 62, 88
15, 3328, Note_on_c, 13, 62, 0
15, 3584, Note_on_c, 13, 57, 88
15, 3840, Note_on_c, 13, 57, 0
15, 10240, Note_on_c, 13, 50, 86
15, 10496, Note_on_c, 13, 50, 0
15, 10752, Note_on_c, 13, 57, 86
15, 11008, Note_on_c, 13, 57, 0
15, 11264, Note_on_c, 13, 57, 89
15, 11520, Note_on_c, 13, 57, 0
15, 11776, Note_on_c, 13, 57, 91
15, 12032, Note_on_c, 13, 57, 0
15, 12288, Note_on_c, 13, 62, 93
15, 12544, Note_on_c, 13, 62, 0
15, 12800, Note_on_c, 13, 57, 96
15, 13005, Note_on_c, 13, 57, 0
15, 13056, Note_on_c, 13, 54, 97
15, 13261, Note_on_c, 13, 54, 0
15, 13312, Note_on_c, 13, 55, 98
15, 13517, Note_on_c, 13, 55, 0
15, 13568, Note_on_c, 13, 52, 99
15, 13773, Note_on_c, 13, 52, 0
15, 13824, Note_on_c, 13, 54, 100
15, 14080, Note_on_c, 13, 54, 0
15, 14336, Note_on_c, 13, 55, 103
15, 14592, Note_on_c, 13, 55, 0
15, 14848, Note_on_c, 13, 57, 105
15, 15104, Note_on_c, 13, 57, 0
15, 15360, Note_on_c, 13, 50, 107
15, 15616, Note_on_c, 13, 50, 0
15, 15872, Note_on_c, 13, 50, 93
15, 16128, Note_on_c, 13, 50, 0
15, 16384, Note_on_c, 13, 54, 46
15, 16640, Note_on_c, 13, 54, 0
15, 16896, Note_on_c, 13, 55, 46
15, 17152, Note_on_c, 13, 55, 0
15, 17408, Note_on_c, 13, 43, 46
15, 17664, Note_on_c, 13, 43, 0
15, 19456, Note_on_c, 13, 55, 90
15, 19712, Note_on_c, 13, 55, 0
15, 19968, Note_on_c, 13, 54, 91
15, 20224, Note_on_c, 13, 54, 0
15, 20480, Note_on_c, 13, 52, 93
15, 20736, Note_on_c, 13, 52, 0
15, 20992, Note_on_c, 13, 50, 94
15, 21248, Note_on_c, 13, 50, 0
15, 21504, Note_on_c, 13, 57, 95
15, 21760, Note_on_c, 13, 57, 0
15, 22016, Note_on_c, 13, 57, 89
15, 22272, Note_on_c, 13, 57, 0
15, 28672, Note_on_c, 13, 55, 57
15, 28928, Note_on_c, 13, 55, 0
15, 29184, Note_on_c, 13, 57, 59
15, 29389, Note_on_c, 13, 57, 0
15, 29440, Note_on_c, 13, 55, 60
15, 29645, Note_on_c, 13, 55, 0
15, 29696, Note_on_c, 13, 54, 61
15, 29901, Note_on_c, 13, 54, 0
15, 29952, Note_on_c, 13, 57, 62
15, 30157, Note_on_c, 13, 57, 0
15, 30208, Note_on_c, 13, 56, 63
15, 30413, Note_on_c, 13, 56, 0
15, 30464, Note_on_c, 13, 59, 64
15, 30669, Note_on_c, 13, 59, 0
15, 30720, Note_on_c, 13, 57, 65
15, 30925, Note_on_c, 13, 57, 0
15, 30976, Note_on_c, 13, 56, 66
15, 31181, Note_on_c, 13, 56, 0
15, 31232, Note_on_c, 13, 57, 67
15, 31437, Note_on_c, 13, 57, 0
15, 31488, Note_on_c, 13, 59, 68
15, 31693, Note_on_c, 13, 59, 0
15, 31744, Note_on_c, 13, 56, 69
15, 31949, Note_on_c, 13, 56, 0
15, 32000, Note_on_c, 13, 58, 70
15, 32205, Note_on_c, 13, 58, 0
15, 32256, Note_on_c, 13, 59, 71
15, 32512, Note_on_c, 13, 59, 0
15, 32768, Note_on_c, 13, 54, 73
15, 32973, Note_on_c, 13, 54, 0
15, 33024, Note_on_c, 13, 59, 74
15, 33229, Note_on_c, 13, 59, 0
15, 33280, Note_on_c, 13, 58, 75
15, 33485, Note_on_c, 13, 58, 0
15, 33536, Note_on_c, 13, 61, 76
15, 33741, Note_on_c, 13, 61, 0
15, 33792, Note_on_c, 13, 59, 77
15, 33997, Note_on_c, 13, 59, 0
15, 34048, Note_on_c, 13, 57, 78
15, 34253, Note_on_c, 13, 57, 0
15, 34304, Note_on_c, 13, 59, 79
15, 34509, Note_on_c, 13, 59, 0
15, 34560, Note_on_c, 13, 61, 80
15, 34765, Note_on_c, 13, 61, 0
15, 34816, Note_on_c, 13, 57, 81
15, 35021, Note_on_c, 13, 57, 0
15, 35072, Note_on_c, 13, 59, 82
15, 35277, Note_on_c, 13, 59, 0
15, 35328, Note_on_c, 13, 61, 83
15, 35533, Note_on_c, 13, 61, 0
15, 35584, Note_on_c, 13, 59, 84
15, 35789, Note_on_c, 13, 59, 0
15, 35840, Note_on_c, 13, 57, 85
15, 36045, Note_on_c, 13, 57, 0
15, 36096, Note_on_c, 13, 61, 86
15, 36301, Note_on_c, 13, 61, 0
15, 36352, Note_on_c, 13, 59, 90
15, 36557, Note_on_c, 13, 59, 0
15, 36608, Note_on_c, 13, 62, 90
15, 36813, Note_on_c, 13, 62, 0
15, 36864, Note_on_c, 13, 61, 91
15, 37069, Note_on_c, 13, 61, 0
15, 37120, Note_on_c, 13, 59, 91
15, 37325, Note_on_c, 13, 59, 0
15, 37376, Note_on_c, 13, 61, 92
15, 37581, Note_on_c, 13, 61, 0
15, 37632, Note_on_c, 13, 62, 93
15, 37837, Note_on_c, 13, 62, 0
15, 37888, Note_on_c, 13, 59, 93
15, 38093, Note_on_c, 13, 59, 0
15, 38144, Note_on_c, 13, 61, 94
15, 38349, Note_on_c, 13, 61, 0
15, 38400, Note_on_c, 13, 62, 95
15, 38656, Note_on_c, 13, 62, 0
15, 38912, Note_on_c, 13, 54, 96
15, 39168, Note_on_c, 13, 54, 0
15, 39424, Note_on_c, 13, 57, 97
15, 39680, Note_on_c, 13, 57, 0
15, 39936, Note_on_c, 13, 50, 99
15, 40141, Note_on_c, 13, 50, 0
15, 40192, Note_on_c, 13, 49, 99
15, 40397, Note_on_c, 13, 49, 0
15, 40448, Note_on_c, 13, 50, 100
15, 40653, Note_on_c, 13, 50, 0
15, 40704, Note_on_c, 13, 52, 101
15, 40909, Note_on_c, 13, 52, 0
15, 40960, Note_on_c, 13, 54, 101
15, 41165, Note_on_c, 13, 54, 0
15, 41216, Note_on_c, 13, 55, 102
15, 41421, Note_on_c, 13, 55, 0
15, 41472, Note_on_c, 13, 57, 103
15, 41677, Note_on_c, 13, 57, 0
15, 41728, Note_on_c, 13, 55, 103
15, 41933, Note_on_c, 13, 55, 0
15, 41984, Note_on_c, 13, 57, 104
15, 42189, Note_on_c, 13, 57, 0
15, 42240, Note_on_c, 13, 59, 104
15, 42445, Note_on_c, 13, 59, 0
15, 42496, Note_on_c, 13, 61, 105
15, 42701, Note_on_c, 13, 61, 0
15, 42752, Note_on_c, 13, 57, 106
15, 42957, Note_on_c, 13, 57, 0
15, 43008, Note_on_c, 13, 62, 106
15, 43264, Note_on_c, 13, 62, 0
15, 43520, Note_on_c, 13, 57, 86
15, 43776, Note_on_c, 13, 57, 0
15, 44032, Note_on_c, 13, 58, 48
15, 44288, Note_on_c, 13, 58, 0
15, 44544, Note_on_c, 13, 59, 48
15, 44800, Note_on_c, 13, 59, 0
15, 45056, Note_on_c, 13, 52, 48
15, 45312, Note_on_c, 13, 52, 0
15, 45568, Note_on_c, 13, 54, 48
15, 45824, Note_on_c, 13, 54, 0
15, 46080, Note_on_c, 13, 47, 44
15, 46285, Note_on_c, 13, 47, 0
15, 46336, Note_on_c, 13, 46, 45
15, 46541, Note_on_c, 13, 46, 0
15, 46592, Note_on_c, 13, 47, 61
15, 46797, Note_on_c, 13, 47, 0
15, 46848, Note_on_c, 13, 49, 77
15, 47053, Note_on_c, 13, 49, 0
15, 47104, Note_on_c, 13, 50, 94
15, 47309, Note_on_c, 13, 50, 0
15, 47360, Note_on_c, 13, 52, 101
15, 47565, Note_on_c, 13, 52, 0
15, 47616, Note_on_c, 13, 54, 106
15, 47821, Note_on_c, 13, 54, 0
15, 47872, Note_on_c, 13, 52, 106
15, 48077, Note_on_c, 13, 52, 0
15, 48128, Note_on_c, 13, 54, 106
15, 48333, Note_on_c, 13, 54, 0
15, 48384, Note_on_c, 13, 56, 106
15, 48589, Note_on_c, 13, 56, 0
15, 48640, Note_on_c, 13, 58, 105
15, 48845, Note_on_c, 13, 58, 0
15, 48896, Note_on_c, 13, 54, 105
15, 49101, Note_on_c, 13, 54, 0
15, 49152, Note_on_c, 13, 59, 105
15, 49408, Note_on_c, 13, 59, 0
15, 49664, Note_on_c, 13, 47, 75
15, 49920, Note_on_c, 13, 47, 0
15, 50176, Note_on_c, 13, 59, 46
15, 50432, Note_on_c, 13, 59, 0
15, 50688, Note_on_c, 13, 59, 46
15, 50944, Note_on_c, 13, 59, 0
15, 51200, Note_on_c, 13, 57, 46
15, 51456, Note_on_c, 13, 57, 0
15, 51712, Note_on_c, 13, 50, 47
15, 51968, Note_on_c, 13, 50, 0
15, 52224, Note_on_c, 13, 43, 47
15, 52429, Note_on_c, 13, 43, 0
15, 52480, Note_on_c, 13, 42, 53
15, 52685, Note_on_c, 13, 42, 0
15, 52736, Note_on_c, 13, 43, 61
15, 52941, Note_on_c, 13, 43, 0
15, 52992, Note_on_c, 13, 45, 69
15, 53197, Note_on_c, 13, 45, 0
15, 53248, Note_on_c, 13, 47, 77
15, 53453, Note_on_c, 13, 47, 0
15, 53504, Note_on_c, 13, 48, 83
15, 53709, Note_on_c, 13, 48, 0
15, 53760, Note_on_c, 13, 50, 88
15, 53965, Note_on_c, 13, 50, 0
15, 54016, Note_on_c, 13, 48, 90
15, 54221, Note_on_c, 13, 48, 0
15, 54272, Note_on_c, 13, 50, 90
15, 54477, Note_on_c, 13, 50, 0
15, 54528, Note_on_c, 13, 52, 90
15, 54733, Note_on_c, 13, 52, 0
15, 54784, Note_on_c, 13, 54, 90
15, 54989, Note_on_c, 13, 54, 0
15, 55040, Note_on_c, 13, 50, 90
15, 55245, Note_on_c, 13, 50, 0
15, 55296, Note_on_c, 13, 55, 90
15, 55552, Note_on_c, 13, 55, 0
15, 55808, Note_on_c, 13, 50, 78
15, 56064, Note_on_c, 13, 50, 0
15, 56320, Note_on_c, 13, 51, 40
15, 56576, Note_on_c, 13, 51, 0
15, 56832, Note_on_c, 13, 52, 40
15, 57088, Note_on_c, 13, 52, 0
15, 57344, Note_on_c, 13, 45, 40
15, 57600, Note_on_c, 13, 45, 0
15, 57856, Note_on_c, 13, 47, 40
15, 58112, Note_on_c, 13, 47, 0
15, 58368, Note_on_c, 13, 52, 40
15, 58573, Note_on_c, 13, 52, 0
15, 58624, Note_on_c, 13, 54, 40
15, 58829, Note_on_c, 13, 54, 0
15, 58880, Note_on_c, 13, 52, 40
15, 59085, Note_on_c, 13, 52, 0
15, 59136, Note_on_c, 13, 50, 40
15, 59341, Note_on_c, 13, 50, 0
15, 59392, Note_on_c, 13, 49, 40
15, 59597, Note_on_c, 13, 49, 0
15, 59648, Note_on_c, 13, 47, 40
15, 59853, Note_on_c, 13, 47, 0
15, 59904, Note_on_c, 13, 45, 40
15, 60160, Note_on_c, 13, 45, 0
15, 60416, Note_on_c, 13, 49, 40
15, 60672, Note_on_c, 13, 49, 0
15, 60928, Note_on_c, 13, 52, 40
15, 61184, Note_on_c, 13, 52, 0
15, 61440, Note_on_c, 13, 57, 40
15, 61696, Note_on_c, 13, 57, 0
15, 61952, Note_on_c, 13, 45, 40
15, 62208, Note_on_c, 13, 45, 0
15, 62464, Note_on_c, 13, 55, 40
15, 62720, Note_on_c, 13, 55, 0
15, 62976, Note_on_c, 13, 54, 40
15, 63181, Note_on_c, 13, 54, 0
15, 63232, Note_on_c, 13, 55, 40
15, 63437, Note_on_c, 13, 55, 0
15, 63488, Note_on_c, 13, 57, 40
15, 63744, Note_on_c, 13, 57, 0
15, 64000, Note_on_c, 13, 45, 40
15, 64256, Note_on_c, 13, 45, 0
15, 64512, Note_on_c, 13, 50, 40
15, 64768, Note_on_c, 13, 50, 0
15, 65024, Note_on_c, 13, 50, 40
15, 65280, Note_on_c, 13, 50, 0
15, 77824, Note_on_c, 13, 45, 99
15, 78080, Note_on_c, 13, 45, 0
15, 78336, Note_on_c, 13, 52, 100
15, 78592, Note_on_c, 13, 52, 0
15, 78848, Note_on_c, 13, 52, 100
15, 79104, Note_on_c, 13, 52, 0
15, 79360, Note_on_c, 13, 52, 100
15, 79616, Note_on_c, 13, 52, 0
15, 79872, Note_on_c, 13, 57, 100
15, 80128, Note_on_c, 13, 57, 0
15, 80384, Note_on_c, 13, 52, 90
15, 80640, Note_on_c, 13, 52, 0
15, 83968, Note_on_c, 13, 42, 101
15, 84224, Note_on_c, 13, 42, 0
15, 84480, Note_on_c, 13, 49, 109
15, 84736, Note_on_c, 13, 49, 0
15, 84992, Note_on_c, 13, 49, 104
15, 85248, Note_on_c, 13, 49, 0
15, 85504, Note_on_c, 13, 49, 107
15, 85760, Note_on_c, 13, 49, 0
15, 86016, Note_on_c, 13, 54, 103
15, 86272, Note_on_c, 13, 54, 0
15, 86528, Note_on_c, 13, 49, 82
15, 86784, Note_on_c, 13, 49, 0
15, 90112, Note_on_c, 13, 50, 104
15, 90368, Note_on_c, 13, 50, 0
15, 90624, Note_on_c, 13, 57, 107
15, 90880, Note_on_c, 13, 57, 0
15, 91136, Note_on_c, 13, 57, 109
15, 91392, Note_on_c, 13, 57, 0
15, 91648, Note_on_c, 13, 57, 111
15, 91904, Note_on_c, 13, 57, 0
15, 92160, Note_on_c, 13, 62, 113
15, 92416, Note_on_c, 13, 62, 0
15, 92672, Note_on_c, 13, 57, 96
15, 92928, Note_on_c, 13, 57, 0
15, 96256, Note_on_c, 13, 59, 41
15, 96512, Note_on_c, 13, 59, 0
15, 96768, Note_on_c, 13, 55, 41
15, 96973, Note_on_c, 13, 55, 0
15, 97024, Note_on_c, 13, 54, 41
15, 97229, Note_on_c, 13, 54, 0
15, 97280, Note_on_c, 13, 52, 41
15, 97485, Note_on_c, 13, 52, 0
15, 97536, Note_on_c, 13, 55, 41
15, 97741, Note_on_c, 13, 55, 0
15, 97792, Note_on_c, 13, 54, 41
15, 97997, Note_on_c, 13, 54, 0
15, 98048, Note_on_c, 13, 57, 41
15, 98253, Note_on_c, 13, 57, 0
15, 98304, Note_on_c, 13, 55, 41
15, 98509, Note_on_c, 13, 55, 0
15, 98560, Note_on_c, 13, 54, 41
15, 98765, Note_on_c, 13, 54, 0
15, 98816, Note_on_c, 13, 55, 41
15, 99021, Note_on_c, 13, 55, 0
15, 99072, Note_on_c, 13, 57, 41
15, 99277, Note_on_c, 13, 57, 0
15, 99328, Note_on_c, 13, 54, 41
15, 99533, Note_on_c, 13, 54, 0
15, 99584, Note_on_c, 13, 56, 41
15, 99789, Note_on_c, 13, 56, 0
15, 99840, Note_on_c, 13, 57, 41
15, 100096, Note_on_c, 13, 57, 0
15, 100352, Note_on_c, 13, 52, 41
15, 100557, Note_on_c, 13, 52, 0
15, 100608, Note_on_c, 13, 57, 41
15, 100813, Note_on_c, 13, 57, 0
15, 100864, Note_on_c, 13, 56, 41
15, 101069, Note_on_c, 13, 56, 0
15, 101120, Note_on_c, 13, 59, 41
15, 101325, Note_on_c, 13, 59, 0
15, 101376, Note_on_c, 13, 57, 41
15, 104704, Note_on_c, 13, 57, 0
15, 104960, Note_on_c, 13, 57, 41
15, 105216, Note_on_c, 13, 57, 0
15, 105472, Note_on_c, 13, 57, 41
15, 105728, Note_on_c, 13, 57, 0
15, 105984, Note_on_c, 13, 55, 41
15, 106240, Note_on_c, 13, 55, 0
15, 106496, Note_on_c, 13, 59, 41
15, 106752, Note_on_c, 13, 59, 0
15, 107008, Note_on_c, 13, 62, 41
15, 107264, Note_on_c, 13, 62, 0
15, 107520, Note_on_c, 13, 55, 41
15, 107776, Note_on_c, 13, 55, 0
15, 108032, Note_on_c, 13, 55, 41
15, 108288, Note_on_c, 13, 55, 0
15, 110080, Note_on_c, 13, 55, 41
15, 110336, Note_on_c, 13, 55, 0
15, 110592, Note_on_c, 13, 52, 41
15, 110848, Note_on_c, 13, 52, 0
15, 111104, Note_on_c, 13, 49, 41
15, 111360, Note_on_c, 13, 49, 0
15, 111616, Note_on_c, 13, 52, 41
15, 111872, Note_on_c, 13, 52, 0
15, 112128, Note_on_c, 13, 54, 41
15, 112384, Note_on_c, 13, 54, 0
15, 112640, Note_on_c, 13, 54, 41
15, 112896, Note_on_c, 13, 54, 0
15, 119296, Note_on_c, 13, 47, 72
15, 119552, Note_on_c, 13, 47, 0
15, 119808, Note_on_c, 13, 52, 75
15, 120064, Note_on_c, 13, 52, 0
15, 120320, Note_on_c, 13, 56, 78
15, 120576, Note_on_c, 13, 56, 0
15, 120832, Note_on_c, 13, 52, 82
15, 121088, Note_on_c, 13, 52, 0
15, 121344, Note_on_c, 13, 57, 85
15, 121600, Note_on_c, 13, 57, 0
15, 121856, Note_on_c, 13, 45, 89
15, 122112, Note_on_c, 13, 45, 0
15, 123904, Note_on_c, 13, 57, 98
15, 124160, Note_on_c, 13, 57, 0
15, 124416, Note_on_c, 13, 57, 97
15, 124672, Note_on_c, 13, 57, 0
15, 124928, Note_on_c, 13, 57, 102
15, 125184, Note_on_c, 13, 57, 0
15, 125440, Note_on_c, 13, 57, 106
15, 125696, Note_on_c, 13, 57, 0
15, 125952, Note_on_c, 13, 62, 111
15, 126208, Note_on_c, 13, 62, 0
15, 126464, Note_on_c, 13, 57, 108
15, 126720, Note_on_c, 13, 57, 0
15, 130048, Note_on_c, 13, 57, 105
15, 130304, Note_on_c, 13, 57, 0
15, 130560, Note_on_c, 13, 62, 99
15, 130816, Note_on_c, 13, 62, 0
15, 131072, Note_on_c, 13, 50, 99
15, 131328, Note_on_c, 13, 50, 0
15, 133120, Note_on_c, 13, 57, 105
15, 133376, Note_on_c, 13, 57, 0
15, 133632, Note_on_c, 13, 60, 107
15, 133888, Note_on_c, 13, 60, 0
15, 134144, Note_on_c, 13, 57, 108
15, 134400, Note_on_c, 13, 57, 0
15, 134656, Note_on_c, 13, 54, 110
15, 134912, Note_on_c, 13, 54, 0
15, 135168, Note_on_c, 13, 51, 111
15, 135424, Note_on_c, 13, 51, 0
15, 135680, Note_on_c, 13, 51, 108
15, 135936, Note_on_c, 13, 51, 0
15, 137728, Note_on_c, 13, 59, 96
15, 137984, Note_on_c, 13, 59, 0
15, 138240, Note_on_c, 13, 55, 97
15, 138496, Note_on_c, 13, 55, 0
15, 138752, Note_on_c, 13, 52, 99
15, 139008, Note_on_c, 13, 52, 0
15, 139264, Note_on_c, 13, 55, 100
15, 139520, Note_on_c, 13, 55, 0
15, 139776, Note_on_c, 13, 57, 102
15, 141568, Note_on_c, 13, 57, 0
15, 141824, Note_on_c, 13, 45, 107
15, 142080, Note_on_c, 13, 45, 0
15, 145408, Note_on_c, 13, 57, 106
15, 145664, Note_on_c, 13, 57, 0
15, 145920, Note_on_c, 13, 55, 109
15, 146176, Note_on_c, 13, 55, 0
15, 146432, Note_on_c, 13, 55, 111
15, 146688, Note_on_c, 13, 55, 0
15, 146944, Note_on_c, 13, 54, 114
15, 147200, Note_on_c, 13, 54, 0
15, 147456, Note_on_c, 13, 52, 117
15, 147712, Note_on_c, 13, 52, 0
15, 147968, Note_on_c, 13, 52, 117
15, 148224, Note_on_c, 13, 52, 0
15, 151552, Note_on_c, 13, 55, 101
15, 151808, Note_on_c, 13, 55, 0
15, 152064, Note_on_c, 13, 54, 103
15, 152320, Note_on_c, 13, 54, 0
15, 152576, Note_on_c, 13, 54, 106
15, 152832, Note_on_c, 13, 54, 0
15, 153088, Note_on_c, 13, 52, 108
15, 153344, Note_on_c, 13, 52, 0
15, 153600, Note_on_c, 13, 50, 111
15, 153856, Note_on_c, 13, 50, 0
15, 154112, Note_on_c, 13, 54, 103
15, 154368, Note_on_c, 13, 54, 0
15, 154624, Note_on_c, 13, 50, 94
15, 154880, Note_on_c, 13, 50, 0
15, 155136, Note_on_c, 13, 55, 96
15, 155392, Note_on_c, 13, 55, 0
15, 155648, Note_on_c, 13, 43, 99
15, 155904, Note_on_c, 13, 43, 0
15, 157696, Note_on_c, 13, 54, 110
15, 157952, Note_on_c, 13, 54, 0
15, 158208, Note_on_c, 13, 59, 113
15, 158464, Note_on_c, 13, 59, 0
15, 158720, Note_on_c, 13, 55, 116
15, 158976, Note_on_c, 13, 55, 0
15, 159232, Note_on_c, 13, 57, 118
15, 159488, Note_on_c, 13, 57, 0
15, 159744, Note_on_c, 13, 62, 121
15, 160000, Note_on_c, 13, 62, 0
15, 160256, Note_on_c, 13, 50, 89
15, 160512, Note_on_c, 13, 50, 0
15, 166912, Note_on_c, 13, 50, 100
15, 167168, Note_on_c, 13, 50, 0
15, 167424, Note_on_c, 13, 57, 102
15, 167680, Note_on_c, 13, 57, 0
15, 167936, Note_on_c, 13, 57, 104
15, 168192, Note_on_c, 13, 57, 0
15, 168448, Note_on_c, 13, 57, 105
15, 168704, Note_on_c, 13, 57, 0
15, 168960, Note_on_c, 13, 62, 107
15, 169216, Note_on_c, 13, 62, 0
15, 169472, Note_on_c, 13, 57, 109
15, 169728, Note_on_c, 13, 57, 0
15, 169984, Note_on_c, 13, 55, 111
15, 170240, Note_on_c, 13, 55, 0
15, 170496, Note_on_c, 13, 54, 113
15, 170752, Note_on_c, 13, 54, 0
15, 171008, Note_on_c, 13, 55, 114
15, 171264, Note_on_c, 13, 55, 0
15, 171520, Note_on_c, 13, 57, 116
15, 171776, Note_on_c, 13, 57, 0
15, 172032, Note_on_c, 13, 50, 118
15, 172288, Note_on_c, 13, 50, 0
15, 172544, Note_on_c, 13, 50, 84
15, 172800, Note_on_c, 13, 50, 0
15, 173056, Note_on_c, 13, 54, 52
15, 173312, Note_on_c, 13, 54, 0
15, 173568, Note_on_c, 13, 55, 56
15, 173824, Note_on_c, 13, 55, 0
15, 174080, Note_on_c, 13, 43, 59
15, 174336, Note_on_c, 13, 43, 0
15, 175616, Note_on_c, 13, 57, 70
15, 175872, Note_on_c, 13, 57, 0
15, 176128, Note_on_c, 13, 61, 101
15, 176384, Note_on_c, 13, 61, 0
15, 176640, Note_on_c, 13, 62, 109
15, 176896, Note_on_c, 13, 62, 0
15, 177152, Note_on_c, 13, 54, 113
15, 177408, Note_on_c, 13, 54, 0
15, 177664, Note_on_c, 13, 57, 117
15, 177920, Note_on_c, 13, 57, 0
15, 178176, Note_on_c, 13, 50, 121
15, 179115, Note_on_c, 13, 50, 0
15, 230400, Control_c, 13, 121, 127
15, 230400, End_track
16, 0, Start_track
16, 0, Title_t, "Organ"
16, 0, Program_c, 8, 20
16, 0, Control_c, 8, 121, 127
16, 0, Control_c, 8, 91, 127
16, 0, Control_c, 8, 1, 5
16, 0, Control_c, 8, 10, 100
16, 0, Control_c, 8, 11, 90
16, 2048, Note_on_c, 8, 57, 88
16, 2253, Note_on_c, 8, 57, 0
16, 2304, Note_on_c, 8, 54, 88
16, 2509, Note_on_c, 8, 54, 0
16, 2560, Note_on_c, 8, 55, 88
16, 2765, Note_on_c, 8, 55, 0
16, 2816, Note_on_c, 8, 52, 88
16, 3021, Note_on_c, 8, 52, 0
16, 3072, Note_on_c, 8, 54, 88
16, 3328, Note_on_c, 8, 54, 0
16, 3584, Note_on_c, 8, 50, 88
16, 3840, Note_on_c, 8, 50, 0
16, 4096, Note_on_c, 8, 57, 76
16, 4352, Note_on_c, 8, 57, 0
16, 4608, Note_on_c, 8, 62, 77
16, 4864, Note_on_c, 8, 62, 0
16, 5120, Note_on_c, 8, 54, 78
16, 5376, Note_on_c, 8, 54, 0
16, 5632, Note_on_c, 8, 57, 78
16, 5888, Note_on_c, 8, 57, 0
16, 6144, Note_on_c, 8, 50, 79
16, 6400, Note_on_c, 8, 50, 0
16, 6656, Note_on_c, 8, 42, 80
16, 6912, Note_on_c, 8, 42, 0
16, 7168, Note_on_c, 8, 45, 81
16, 7424, Note_on_c, 8, 45, 0
16, 7680, Note_on_c, 8, 50, 82
16, 7936, Note_on_c, 8, 50, 0
16, 8192, Note_on_c, 8, 42, 82
16, 8448, Note_on_c, 8, 42, 0
16, 8704, Note_on_c, 8, 45, 83
16, 8960, Note_on_c, 8, 45, 0
16, 9216, Note_on_c, 8, 38, 84
16, 9472, Note_on_c, 8, 38, 0
16, 9728, Note_on_c, 8, 50, 85
16, 9933, Note_on_c, 8, 50, 0
16, 9984, Note_on_c, 8, 52, 85
16, 10189, Note_on_c, 8, 52, 0
16, 10240, Note_on_c, 8, 54, 86
16, 10445, Note_on_c, 8, 54, 0
16, 10496, Note_on_c, 8, 50, 86
16, 10701, Note_on_c, 8, 50, 0
16, 10752, Note_on_c, 8, 57, 86
16, 11008, Note_on_c, 8, 57, 0
16, 11264, Note_on_c, 8, 57, 89
16, 11520, Note_on_c, 8, 57, 0
16, 11776, Note_on_c, 8, 57, 91
16, 12032, Note_on_c, 8, 57, 0
16, 12288, Note_on_c, 8, 62, 93
16, 12544, Note_on_c, 8, 62, 0
16, 12800, Note_on_c, 8, 57, 96
16, 13005, Note_on_c, 8, 57, 0
16, 13056, Note_on_c, 8, 54, 97
16, 13261, Note_on_c, 8, 54, 0
16, 13312, Note_on_c, 8, 55, 98
16, 13517, Note_on_c, 8, 55, 0
16, 13568, Note_on_c, 8, 52, 99
16, 13773, Note_on_c, 8, 52, 0
16, 13824, Note_on_c, 8, 54, 100
16, 14080, Note_on_c, 8, 54, 0
16, 14336, Note_on_c, 8, 55, 103
16, 14592, Note_on_c, 8, 55, 0
16, 14848, Note_on_c, 8, 57, 105
16, 15104, Note_on_c, 8, 57, 0
16, 15360, Note_on_c, 8, 50, 107
16, 15616, Note_on_c, 8, 50, 0
16, 15872, Note_on_c, 8, 38, 93
16, 16077, Note_on_c, 8, 38, 0
16, 16128, Note_on_c, 8, 40, 76
16, 16333, Note_on_c, 8, 40, 0
16, 16384, Note_on_c, 8, 42, 46
16, 16589, Note_on_c, 8, 42, 0
16, 16640, Note_on_c, 8, 38, 46
16, 16845, Note_on_c, 8, 38, 0
16, 16896, Note_on_c, 8, 43, 46
16, 17152, Note_on_c, 8, 43, 0
16, 17408, Note_on_c, 8, 55, 46
16, 17613, Note_on_c, 8, 55, 0
16, 17664, Note_on_c, 8, 54, 46
16, 17869, Note_on_c, 8, 54, 0
16, 17920, Note_on_c, 8, 56, 46
16, 18125, Note_on_c, 8, 56, 0
16, 18176, Note_on_c, 8, 52, 46
16, 18381, Note_on_c, 8, 52, 0
16, 18432, Note_on_c, 8, 57, 46
16, 18688, Note_on_c, 8, 57, 0
16, 18944, Note_on_c, 8, 45, 46
16, 19149, Note_on_c, 8, 45, 0
16, 19200, Note_on_c, 8, 42, 46
16, 19405, Note_on_c, 8, 42, 0
16, 19456, Note_on_c, 8, 43, 90
16, 19661, Note_on_c, 8, 43, 0
16, 19712, Note_on_c, 8, 40, 91
16, 19917, Note_on_c, 8, 40, 0
16, 19968, Note_on_c, 8, 42, 91
16, 20224, Note_on_c, 8, 42, 0
16, 20480, Note_on_c, 8, 40, 93
16, 20736, Note_on_c, 8, 40, 0
16, 20992, Note_on_c, 8, 38, 94
16, 21248, Note_on_c, 8, 38, 0
16, 21504, Note_on_c, 8, 45, 95
16, 21760, Note_on_c, 8, 45, 0
16, 22016, Note_on_c, 8, 57, 89
16, 22221, Note_on_c, 8, 57, 0
16, 22272, Note_on_c, 8, 59, 57
16, 22477, Note_on_c, 8, 59, 0
16, 22528, Note_on_c, 8, 61, 34
16, 22733, Note_on_c, 8, 61, 0
16, 22784, Note_on_c, 8, 57, 34
16, 22989, Note_on_c, 8, 57, 0
16, 23040, Note_on_c, 8, 62, 35
16, 23296, Note_on_c, 8, 62, 0
16, 23552, Note_on_c, 8, 54, 37
16, 23808, Note_on_c, 8, 54, 0
16, 24064, Note_on_c, 8, 57, 39
16, 24320, Note_on_c, 8, 57, 0
16, 24576, Note_on_c, 8, 50, 41
16, 24832, Note_on_c, 8, 50, 0
16, 25088, Note_on_c, 8, 62, 43
16, 25344, Note_on_c, 8, 62, 0
16, 25600, Note_on_c, 8, 60, 45
16, 25856, Note_on_c, 8, 60, 0
16, 26112, Note_on_c, 8, 59, 47
16, 26368, Note_on_c, 8, 59, 0
16, 26624, Note_on_c, 8, 47, 49
16, 26880, Note_on_c, 8, 47, 0
16, 27136, Note_on_c, 8, 50, 51
16, 27392, Note_on_c, 8, 50, 0
16, 27648, Note_on_c, 8, 43, 53
16, 27904, Note_on_c, 8, 43, 0
16, 28160, Note_on_c, 8, 55, 55
16, 28416, Note_on_c, 8, 55, 0
16, 28672, Note_on_c, 8, 52, 57
16, 28928, Note_on_c, 8, 52, 0
16, 29184, Note_on_c, 8, 57, 59
16, 29440, Note_on_c, 8, 57, 0
16, 29696, Note_on_c, 8, 57, 61
16, 29952, Note_on_c, 8, 57, 0
16, 30208, Note_on_c, 8, 57, 63
16, 30464, Note_on_c, 8, 57, 0
16, 30720, Note_on_c, 8, 57, 65
16, 30976, Note_on_c, 8, 57, 0
16, 31232, Note_on_c, 8, 55, 67
16, 31488, Note_on_c, 8, 55, 0
16, 31744, Note_on_c, 8, 54, 69
16, 32000, Note_on_c, 8, 54, 0
16, 32256, Note_on_c, 8, 59, 71
16, 32512, Note_on_c, 8, 59, 0
16, 32768, Note_on_c, 8, 50, 73
16, 33024, Note_on_c, 8, 50, 0
16, 33280, Note_on_c, 8, 54, 75
16, 33536, Note_on_c, 8, 54, 0
16, 33792, Note_on_c, 8, 47, 77
16, 33997, Note_on_c, 8, 47, 0
16, 34048, Note_on_c, 8, 45, 78
16, 34253, Note_on_c, 8, 45, 0
16, 34304, Note_on_c, 8, 47, 79
16, 34509, Note_on_c, 8, 47, 0
16, 34560, Note_on_c, 8, 49, 80
16, 34765, Note_on_c, 8, 49, 0
16, 34816, Note_on_c, 8, 45, 81
16, 35021, Note_on_c, 8, 45, 0
16, 35072, Note_on_c, 8, 47, 82
16, 35277, Note_on_c, 8, 47, 0
16, 35328, Note_on_c, 8, 49, 83
16, 35533, Note_on_c, 8, 49, 0
16, 35584, Note_on_c, 8, 47, 84
16, 35789, Note_on_c, 8, 47, 0
16, 35840, Note_on_c, 8, 45, 85
16, 36045, Note_on_c, 8, 45, 0
16, 36096, Note_on_c, 8, 49, 86
16, 36301, Note_on_c, 8, 49, 0
16, 36352, Note_on_c, 8, 47, 90
16, 36557, Note_on_c, 8, 47, 0
16, 36608, Note_on_c, 8, 50, 90
16, 36813, Note_on_c, 8, 50, 0
16, 36864, Note_on_c, 8, 49, 91
16, 37069, Note_on_c, 8, 49, 0
16, 37120, Note_on_c, 8, 47, 91
16, 37325, Note_on_c, 8, 47, 0
16, 37376, Note_on_c, 8, 49, 92
16, 37581, Note_on_c, 8, 49, 0
16, 37632, Note_on_c, 8, 50, 93
16, 37837, Note_on_c, 8, 50, 0
16, 37888, Note_on_c, 8, 47, 93
16, 38093, Note_on_c, 8, 47, 0
16, 38144, Note_on_c, 8, 49, 94
16, 38349, Note_on_c, 8, 49, 0
16, 38400, Note_on_c, 8, 50, 95
16, 38656, Note_on_c, 8, 50, 0
16, 38912, Note_on_c, 8, 42, 96
16, 39168, Note_on_c, 8, 42, 0
16, 39424, Note_on_c, 8, 45, 97
16, 39680, Note_on_c, 8, 45, 0
16, 39936, Note_on_c, 8, 38, 99
16, 40141, Note_on_c, 8, 38, 0
16, 40192, Note_on_c, 8, 37, 99
16, 40397, Note_on_c, 8, 37, 0
16, 40448, Note_on_c, 8, 38, 100
16, 40653, Note_on_c, 8, 38, 0
16, 40704, Note_on_c, 8, 40, 101
16, 40909, Note_on_c, 8, 40, 0
16, 40960, Note_on_c, 8, 42, 101
16, 41165, Note_on_c, 8, 42, 0
16, 41216, Note_on_c, 8, 43, 102
16, 41421, Note_on_c, 8, 43, 0
16, 41472, Note_on_c, 8, 45, 103
16, 41677, Note_on_c, 8, 45, 0
16, 41728, Note_on_c, 8, 43, 103
16, 41933, Note_on_c, 8, 43, 0
16, 41984, Note_on_c, 8, 45, 104
16, 42189, Note_on_c, 8, 45, 0
16, 42240, Note_on_c, 8, 47, 104
16, 42445, Note_on_c, 8, 47, 0
16, 42496, Note_on_c, 8, 49, 105
16, 42701, Note_on_c, 8, 49, 0
16, 42752, Note_on_c, 8, 45, 106
16, 42957, Note_on_c, 8, 45, 0
16, 43008, Note_on_c, 8, 50, 106
16, 43264, Note_on_c, 8, 50, 0
16, 43520, Note_on_c, 8, 45, 86
16, 43776, Note_on_c, 8, 45, 0
16, 44032, Note_on_c, 8, 46, 48
16, 44288, Note_on_c, 8, 46, 0
16, 44544, Note_on_c, 8, 47, 48
16, 44800, Note_on_c, 8, 47, 0
16, 45056, Note_on_c, 8, 40, 48
16, 45312, Note_on_c, 8, 40, 0
16, 45568, Note_on_c, 8, 42, 48
16, 45824, Note_on_c, 8, 42, 0
16, 46080, Note_on_c, 8, 47, 44
16, 46285, Note_on_c, 8, 47, 0
16, 46336, Note_on_c, 8, 46, 45
16, 46541, Note_on_c, 8, 46, 0
16, 46592, Note_on_c, 8, 47, 61
16, 46797, Note_on_c, 8, 47, 0
16, 46848, Note_on_c, 8, 49, 77
16, 47053, Note_on_c, 8, 49, 0
16, 47104, Note_on_c, 8, 50, 94
16, 47309, Note_on_c, 8, 50, 0
16, 47360, Note_on_c, 8, 52, 101
16, 47565, Note_on_c, 8, 52, 0
16, 47616, Note_on_c, 8, 54, 106
16, 47821, Note_on_c, 8, 54, 0
16, 47872, Note_on_c, 8, 52, 106
16, 48077, Note_on_c, 8, 52, 0
16, 48128, Note_on_c, 8, 54, 106
16, 48333, Note_on_c, 8, 54, 0
16, 48384, Note_on_c, 8, 56, 106
16, 48589, Note_on_c, 8, 56, 0
16, 48640, Note_on_c, 8, 58, 105
16, 48845, Note_on_c, 8, 58, 0
16, 48896, Note_on_c, 8, 54, 105
16, 49101, Note_on_c, 8, 54, 0
16, 49152, Note_on_c, 8, 59, 105
16, 49408, Note_on_c, 8, 59, 0
16, 49664, Note_on_c, 8, 47, 75
16, 49920, Note_on_c, 8, 47, 0
16, 50176, Note_on_c, 8, 47, 46
16, 50432, Note_on_c, 8, 47, 0
16, 50688, Note_on_c, 8, 47, 46
16, 50944, Note_on_c, 8, 47, 0
16, 51200, Note_on_c, 8, 45, 46
16, 51456, Note_on_c, 8, 45, 0
16, 51712, Note_on_c, 8, 38, 47
16, 51968, Note_on_c, 8, 38, 0
16, 52224, Note_on_c, 8, 43, 47
16, 52429, Note_on_c, 8, 43, 0
16, 52480, Note_on_c, 8, 42, 53
16, 52685, Note_on_c, 8, 42, 0
16, 52736, Note_on_c, 8, 43, 61
16, 52941, Note_on_c, 8, 43, 0
16, 52992, Note_on_c, 8, 45, 69
16, 53197, Note_on_c, 8, 45, 0
16, 53248, Note_on_c, 8, 47, 77
16, 53453, Note_on_c, 8, 47, 0
16, 53504, Note_on_c, 8, 48, 83
16, 53709, Note_on_c, 8, 48, 0
16, 53760, Note_on_c, 8, 50, 88
16, 53965, Note_on_c, 8, 50, 0
16, 54016, Note_on_c, 8, 48, 90
16, 54221, Note_on_c, 8, 48, 0
16, 54272, Note_on_c, 8, 50, 90
16, 54477, Note_on_c, 8, 50, 0
16, 54528, Note_on_c, 8, 52, 90
16, 54733, Note_on_c, 8, 52, 0
16, 54784, Note_on_c, 8, 54, 90
16, 54989, Note_on_c, 8, 54, 0
16, 55040, Note_on_c, 8, 50, 90
16, 55245, Note_on_c, 8, 50, 0
16, 55296, Note_on_c, 8, 55, 90
16, 55552, Note_on_c, 8, 55, 0
16, 55808, Note_on_c, 8, 50, 78
16, 56064, Note_on_c, 8, 50, 0
16, 56320, Note_on_c, 8, 51, 40
16, 56576, Note_on_c, 8, 51, 0
16, 56832, Note_on_c, 8, 52, 40
16, 57088, Note_on_c, 8, 52, 0
16, 57344, Note_on_c, 8, 45, 40
16, 57600, Note_on_c, 8, 45, 0
16, 57856, Note_on_c, 8, 47, 40
16, 58112, Note_on_c, 8, 47, 0
16, 58368, Note_on_c, 8, 52, 40
16, 58573, Note_on_c, 8, 52, 0
16, 58624, Note_on_c, 8, 54, 40
16, 58829, Note_on_c, 8, 54, 0
16, 58880, Note_on_c, 8, 52, 40
16, 59085, Note_on_c, 8, 52, 0
16, 59136, Note_on_c, 8, 50, 40
16, 59341, Note_on_c, 8, 50, 0
16, 59392, Note_on_c, 8, 49, 40
16, 59597, Note_on_c, 8, 49, 0
16, 59648, Note_on_c, 8, 47, 40
16, 59853, Note_on_c, 8, 47, 0
16, 59904, Note_on_c, 8, 45, 40
16, 60160, Note_on_c, 8, 45, 0
16, 60416, Note_on_c, 8, 49, 40
16, 60672, Note_on_c, 8, 49, 0
16, 60928, Note_on_c, 8, 52, 40
16, 61184, Note_on_c, 8, 52, 0
16, 61440, Note_on_c, 8, 57, 40
16, 61696, Note_on_c, 8, 57, 0
16, 61952, Note_on_c, 8, 45, 40
16, 62208, Note_on_c, 8, 45, 0
16, 62464, Note_on_c, 8, 43, 40
16, 62720, Note_on_c, 8, 43, 0
16, 62976, Note_on_c, 8, 42, 40
16, 63232, Note_on_c, 8, 42, 0
16, 63488, Note_on_c, 8, 54, 40
16, 63744, Note_on_c, 8, 54, 0
16, 64000, Note_on_c, 8, 57, 40
16, 64256, Note_on_c, 8, 57, 0
16, 64512, Note_on_c, 8, 62, 40
16, 64768, Note_on_c, 8, 62, 0
16, 65024, Note_on_c, 8, 50, 40
16, 65280, Note_on_c, 8, 50, 0
16, 65536, Note_on_c, 8, 47, 43
16, 65792, Note_on_c, 8, 47, 0
16, 66048, Note_on_c, 8, 52, 45
16, 66304, Note_on_c, 8, 52, 0
16, 66560, Note_on_c, 8, 52, 47
16, 66816, Note_on_c, 8, 52, 0
16, 67072, Note_on_c, 8, 52, 50
16, 67328, Note_on_c, 8, 52, 0
16, 67584, Note_on_c, 8, 52, 52
16, 67840, Note_on_c, 8, 52, 0
16, 68096, Note_on_c, 8, 50, 54
16, 68352, Note_on_c, 8, 50, 0
16, 68608, Note_on_c, 8, 49, 57
16, 68864, Note_on_c, 8, 49, 0
16, 69120, Note_on_c, 8, 54, 59
16, 69376, Note_on_c, 8, 54, 0
16, 69632, Note_on_c, 8, 45, 61
16, 69888, Note_on_c, 8, 45, 0
16, 70144, Note_on_c, 8, 49, 64
16, 70400, Note_on_c, 8, 49, 0
16, 70656, Note_on_c, 8, 54, 66
16, 70861, Note_on_c, 8, 54, 0
16, 70912, Note_on_c, 8, 52, 67
16, 71117, Note_on_c, 8, 52, 0
16, 71168, Note_on_c, 8, 54, 68
16, 71373, Note_on_c, 8, 54, 0
16, 71424, Note_on_c, 8, 56, 69
16, 71629, Note_on_c, 8, 56, 0
16, 71680, Note_on_c, 8, 52, 71
16, 71885, Note_on_c, 8, 52, 0
16, 71936, Note_on_c, 8, 54, 72
16, 72141, Note_on_c, 8, 54, 0
16, 72192, Note_on_c, 8, 56, 73
16, 72397, Note_on_c, 8, 56, 0
16, 72448, Note_on_c, 8, 54, 74
16, 72653, Note_on_c, 8, 54, 0
16, 72704, Note_on_c, 8, 52, 75
16, 72909, Note_on_c, 8, 52, 0
16, 72960, Note_on_c, 8, 56, 76
16, 73165, Note_on_c, 8, 56, 0
16, 73216, Note_on_c, 8, 54, 78
16, 73421, Note_on_c, 8, 54, 0
16, 73472, Note_on_c, 8, 57, 79
16, 73677, Note_on_c, 8, 57, 0
16, 73728, Note_on_c, 8, 56, 80
16, 73933, Note_on_c, 8, 56, 0
16, 73984, Note_on_c, 8, 54, 81
16, 74189, Note_on_c, 8, 54, 0
16, 74240, Note_on_c, 8, 56, 82
16, 74445, Note_on_c, 8, 56, 0
16, 74496, Note_on_c, 8, 57, 83
16, 74701, Note_on_c, 8, 57, 0
16, 74752, Note_on_c, 8, 54, 85
16, 74957, Note_on_c, 8, 54, 0
16, 75008, Note_on_c, 8, 56, 86
16, 75213, Note_on_c, 8, 56, 0
16, 75264, Note_on_c, 8, 57, 87
16, 75520, Note_on_c, 8, 57, 0
16, 75776, Note_on_c, 8, 49, 89
16, 76032, Note_on_c, 8, 49, 0
16, 76288, Note_on_c, 8, 52, 92
16, 76544, Note_on_c, 8, 52, 0
16, 76800, Note_on_c, 8, 45, 94
16, 77005, Note_on_c, 8, 45, 0
16, 77056, Note_on_c, 8, 44, 95
16, 77261, Note_on_c, 8, 44, 0
16, 77312, Note_on_c, 8, 45, 96
16, 77517, Note_on_c, 8, 45, 0
16, 77568, Note_on_c, 8, 47, 97
16, 77773, Note_on_c, 8, 47, 0
16, 77824, Note_on_c, 8, 49, 99
16, 78029, Note_on_c, 8, 49, 0
16, 78080, Note_on_c, 8, 50, 100
16, 78285, Note_on_c, 8, 50, 0
16, 78336, Note_on_c, 8, 52, 100
16, 78541, Note_on_c, 8, 52, 0
16, 78592, Note_on_c, 8, 50, 100
16, 78797, Note_on_c, 8, 50, 0
16, 78848, Note_on_c, 8, 52, 100
16, 79053, Note_on_c, 8, 52, 0
16, 79104, Note_on_c, 8, 54, 100
16, 79309, Note_on_c, 8, 54, 0
16, 79360, Note_on_c, 8, 56, 100
16, 79565, Note_on_c, 8, 56, 0
16, 79616, Note_on_c, 8, 52, 100
16, 79821, Note_on_c, 8, 52, 0
16, 79872, Note_on_c, 8, 57, 100
16, 80128, Note_on_c, 8, 57, 0
16, 80384, Note_on_c, 8, 52, 90
16, 80640, Note_on_c, 8, 52, 0
16, 80896, Note_on_c, 8, 53, 44
16, 81152, Note_on_c, 8, 53, 0
16, 81408, Note_on_c, 8, 54, 44
16, 81664, Note_on_c, 8, 54, 0
16, 81920, Note_on_c, 8, 47, 45
16, 82176, Note_on_c, 8, 47, 0
16, 82432, Note_on_c, 8, 49, 46
16, 82688, Note_on_c, 8, 49, 0
16, 82944, Note_on_c, 8, 42, 47
16, 83149, Note_on_c, 8, 42, 0
16, 83200, Note_on_c, 8, 41, 60
16, 83405, Note_on_c, 8, 41, 0
16, 83456, Note_on_c, 8, 42, 74
16, 83661, Note_on_c, 8, 42, 0
16, 83712, Note_on_c, 8, 44, 88
16, 83917, Note_on_c, 8, 44, 0
16, 83968, Note_on_c, 8, 45, 101
16, 84173, Note_on_c, 8, 45, 0
16, 84224, Note_on_c, 8, 47, 108
16, 84429, Note_on_c, 8, 47, 0
16, 84480, Note_on_c, 8, 49, 109
16, 84685, Note_on_c, 8, 49, 0
16, 84736, Note_on_c, 8, 47, 103
16, 84941, Note_on_c, 8, 47, 0
16, 84992, Note_on_c, 8, 49, 104
16, 85197, Note_on_c, 8, 49, 0
16, 85248, Note_on_c, 8, 51, 105
16, 85453, Note_on_c, 8, 51, 0
16, 85504, Note_on_c, 8, 53, 107
16, 85709, Note_on_c, 8, 53, 0
16, 85760, Note_on_c, 8, 49, 108
16, 85965, Note_on_c, 8, 49, 0
16, 86016, Note_on_c, 8, 54, 103
16, 86272, Note_on_c, 8, 54, 0
16, 86528, Note_on_c, 8, 42, 82
16, 86784, Note_on_c, 8, 42, 0
16, 87040, Note_on_c, 8, 54, 45
16, 87808, Note_on_c, 8, 54, 0
16, 88064, Note_on_c, 8, 52, 54
16, 88320, Note_on_c, 8, 52, 0
16, 88576, Note_on_c, 8, 45, 60
16, 88832, Note_on_c, 8, 45, 0
16, 89088, Note_on_c, 8, 50, 66
16, 89293, Note_on_c, 8, 50, 0
16, 89344, Note_on_c, 8, 49, 75
16, 89549, Note_on_c, 8, 49, 0
16, 89600, Note_on_c, 8, 50, 85
16, 89805, Note_on_c, 8, 50, 0
16, 89856, Note_on_c, 8, 52, 94
16, 90061, Note_on_c, 8, 52, 0
16, 90112, Note_on_c, 8, 54, 104
16, 90317, Note_on_c, 8, 54, 0
16, 90368, Note_on_c, 8, 55, 106
16, 90573, Note_on_c, 8, 55, 0
16, 90624, Note_on_c, 8, 57, 107
16, 90829, Note_on_c, 8, 57, 0
16, 90880, Note_on_c, 8, 55, 108
16, 91085, Note_on_c, 8, 55, 0
16, 91136, Note_on_c, 8, 57, 109
16, 91341, Note_on_c, 8, 57, 0
16, 91392, Note_on_c, 8, 59, 110
16, 91597, Note_on_c, 8, 59, 0
16, 91648, Note_on_c, 8, 61, 111
16, 91853, Note_on_c, 8, 61, 0
16, 91904, Note_on_c, 8, 57, 112
16, 92109, Note_on_c, 8, 57, 0
16, 92160, Note_on_c, 8, 62, 113
16, 92416, Note_on_c, 8, 62, 0
16, 92672, Note_on_c, 8, 57, 96
16, 92928, Note_on_c, 8, 57, 0
16, 93184, Note_on_c, 8, 58, 49
16, 93440, Note_on_c, 8, 58, 0
16, 93696, Note_on_c, 8, 59, 41
16, 93952, Note_on_c, 8, 59, 0
16, 94208, Note_on_c, 8, 52, 41
16, 94464, Note_on_c, 8, 52, 0
16, 94720, Note_on_c, 8, 54, 41
16, 94976, Note_on_c, 8, 54, 0
16, 95232, Note_on_c, 8, 47, 41
16, 95437, Note_on_c, 8, 47, 0
16, 95488, Note_on_c, 8, 46, 41
16, 95693, Note_on_c, 8, 46, 0
16, 95744, Note_on_c, 8, 47, 41
16, 95949, Note_on_c, 8, 47, 0
16, 96000, Note_on_c, 8, 49, 41
16, 96205, Note_on_c, 8, 49, 0
16, 96256, Note_on_c, 8, 50, 41
16, 96461, Note_on_c, 8, 50, 0
16, 96512, Note_on_c, 8, 47, 41
16, 96717, Note_on_c, 8, 47, 0
16, 96768, Note_on_c, 8, 52, 41
16, 97024, Note_on_c, 8, 52, 0
16, 97280, Note_on_c, 8, 55, 41
16, 97536, Note_on_c, 8, 55, 0
16, 97792, Note_on_c, 8, 59, 41
16, 98048, Note_on_c, 8, 59, 0
16, 98304, Note_on_c, 8, 52, 41
16, 98560, Note_on_c, 8, 52, 0
16, 98816, Note_on_c, 8, 55, 41
16, 99072, Note_on_c, 8, 55, 0
16, 99328, Note_on_c, 8, 52, 41
16, 99584, Note_on_c, 8, 52, 0
16, 99840, Note_on_c, 8, 57, 41
16, 100096, Note_on_c, 8, 57, 0
16, 100352, Note_on_c, 8, 49, 41
16, 100608, Note_on_c, 8, 49, 0
16, 100864, Note_on_c, 8, 52, 41
16, 101120, Note_on_c, 8, 52, 0
16, 101376, Note_on_c, 8, 45, 41
16, 101632, Note_on_c, 8, 45, 0
16, 101888, Note_on_c, 8, 49, 41
16, 102144, Note_on_c, 8, 49, 0
16, 102400, Note_on_c, 8, 45, 41
16, 102656, Note_on_c, 8, 45, 0
16, 102912, Note_on_c, 8, 50, 41
16, 103168, Note_on_c, 8, 50, 0
16, 103424, Note_on_c, 8, 54, 41
16, 103680, Note_on_c, 8, 54, 0
16, 103936, Note_on_c, 8, 57, 41
16, 104192, Note_on_c, 8, 57, 0
16, 104448, Note_on_c, 8, 50, 41
16, 104704, Note_on_c, 8, 50, 0
16, 104960, Note_on_c, 8, 54, 41
16, 105216, Note_on_c, 8, 54, 0
16, 105472, Note_on_c, 8, 50, 41
16, 105728, Note_on_c, 8, 50, 0
16, 105984, Note_on_c, 8, 55, 41
16, 106240, Note_on_c, 8, 55, 0
16, 106496, Note_on_c, 8, 47, 41
16, 106752, Note_on_c, 8, 47, 0
16, 107008, Note_on_c, 8, 50, 41
16, 107264, Note_on_c, 8, 50, 0
16, 107520, Note_on_c, 8, 43, 41
16, 107776, Note_on_c, 8, 43, 0
16, 108032, Note_on_c, 8, 47, 41
16, 108288, Note_on_c, 8, 47, 0
16, 108544, Note_on_c, 8, 43, 41
16, 108800, Note_on_c, 8, 43, 0
16, 109056, Note_on_c, 8, 49, 41
16, 109312, Note_on_c, 8, 49, 0
16, 109568, Note_on_c, 8, 52, 41
16, 109824, Note_on_c, 8, 52, 0
16, 110080, Note_on_c, 8, 55, 41
16, 110336, Note_on_c, 8, 55, 0
16, 110592, Note_on_c, 8, 49, 41
16, 110848, Note_on_c, 8, 49, 0
16, 111104, Note_on_c, 8, 52, 41
16, 111360, Note_on_c, 8, 52, 0
16, 111616, Note_on_c, 8, 49, 41
16, 111872, Note_on_c, 8, 49, 0
16, 112128, Note_on_c, 8, 42, 41
16, 112384, Note_on_c, 8, 42, 0
16, 112640, Note_on_c, 8, 46, 41
16, 112896, Note_on_c, 8, 46, 0
16, 113152, Note_on_c, 8, 49, 41
16, 113408, Note_on_c, 8, 49, 0
16, 113664, Note_on_c, 8, 42, 41
16, 113920, Note_on_c, 8, 42, 0
16, 114176, Note_on_c, 8, 46, 41
16, 114432, Note_on_c, 8, 46, 0
16, 114688, Note_on_c, 8, 42, 41
16, 114944, Note_on_c, 8, 42, 0
16, 115200, Note_on_c, 8, 47, 44
16, 115456, Note_on_c, 8, 47, 0
16, 115712, Note_on_c, 8, 50, 48
16, 115968, Note_on_c, 8, 50, 0
16, 116224, Note_on_c, 8, 54, 51
16, 116480, Note_on_c, 8, 54, 0
16, 116736, Note_on_c, 8, 47, 54
16, 116992, Note_on_c, 8, 47, 0
16, 117248, Note_on_c, 8, 50, 58
16, 117504, Note_on_c, 8, 50, 0
16, 117760, Note_on_c, 8, 47, 61
16, 118016, Note_on_c, 8, 47, 0
16, 118272, Note_on_c, 8, 52, 65
16, 118528, Note_on_c, 8, 52, 0
16, 118784, Note_on_c, 8, 44, 68
16, 119040, Note_on_c, 8, 44, 0
16, 119296, Note_on_c, 8, 47, 72
16, 119552, Note_on_c, 8, 47, 0
16, 119808, Note_on_c, 8, 40, 75
16, 120064, Note_on_c, 8, 40, 0
16, 120320, Note_on_c, 8, 44, 78
16, 120576, Note_on_c, 8, 44, 0
16, 120832, Note_on_c, 8, 40, 82
16, 121088, Note_on_c, 8, 40, 0
16, 121344, Note_on_c, 8, 45, 85
16, 123136, Note_on_c, 8, 45, 0
16, 123392, Note_on_c, 8, 57, 99
16, 123597, Note_on_c, 8, 57, 0
16, 123648, Note_on_c, 8, 55, 101
16, 123853, Note_on_c, 8, 55, 0
16, 123904, Note_on_c, 8, 54, 98
16, 124109, Note_on_c, 8, 54, 0
16, 124160, Note_on_c, 8, 52, 99
16, 124365, Note_on_c, 8, 52, 0
16, 124416, Note_on_c, 8, 50, 97
16, 126208, Note_on_c, 8, 50, 0
16, 126464, Note_on_c, 8, 54, 108
16, 126720, Note_on_c, 8, 54, 0
16, 126976, Note_on_c, 8, 57, 103
16, 127232, Note_on_c, 8, 57, 0
16, 127488, Note_on_c, 8, 49, 98
16, 128512, Note_on_c, 8, 49, 0
16, 128512, Note_on_c, 8, 50, 108
16, 129280, Note_on_c, 8, 50, 0
16, 129536, Note_on_c, 8, 49, 111
16, 129792, Note_on_c, 8, 49, 0
16, 130048, Note_on_c, 8, 57, 105
16, 130304, Note_on_c, 8, 57, 0
16, 130560, Note_on_c, 8, 62, 99
16, 130816, Note_on_c, 8, 62, 0
16, 131072, Note_on_c, 8, 57, 99
16, 131277, Note_on_c, 8, 57, 0
16, 131328, Note_on_c, 8, 54, 100
16, 131533, Note_on_c, 8, 54, 0
16, 131584, Note_on_c, 8, 55, 101
16, 131789, Note_on_c, 8, 55, 0
16, 131840, Note_on_c, 8, 52, 101
16, 132045, Note_on_c, 8, 52, 0
16, 132096, Note_on_c, 8, 54, 102
16, 132352, Note_on_c, 8, 54, 0
16, 132608, Note_on_c, 8, 50, 104
16, 132864, Note_on_c, 8, 50, 0
16, 133120, Note_on_c, 8, 57, 105
16, 133376, Note_on_c, 8, 57, 0
16, 133632, Note_on_c, 8, 60, 107
16, 133888, Note_on_c, 8, 60, 0
16, 134144, Note_on_c, 8, 54, 108
16, 134349, Note_on_c, 8, 54, 0
16, 134400, Note_on_c, 8, 51, 109
16, 134605, Note_on_c, 8, 51, 0
16, 134656, Note_on_c, 8, 52, 110
16, 134861, Note_on_c, 8, 52, 0
16, 134912, Note_on_c, 8, 49, 110
16, 135117, Note_on_c, 8, 49, 0
16, 135168, Note_on_c, 8, 51, 111
16, 135424, Note_on_c, 8, 51, 0
16, 135680, Note_on_c, 8, 63, 108
16, 135936, Note_on_c, 8, 63, 0
16, 136192, Note_on_c, 8, 59, 103
16, 136448, Note_on_c, 8, 59, 0
16, 136704, Note_on_c, 8, 64, 93
16, 136960, Note_on_c, 8, 64, 0
16, 137216, Note_on_c, 8, 59, 94
16, 137421, Note_on_c, 8, 59, 0
16, 137472, Note_on_c, 8, 55, 95
16, 137677, Note_on_c, 8, 55, 0
16, 137728, Note_on_c, 8, 57, 96
16, 137933, Note_on_c, 8, 57, 0
16, 137984, Note_on_c, 8, 54, 96
16, 138189, Note_on_c, 8, 54, 0
16, 138240, Note_on_c, 8, 55, 97
16, 138496, Note_on_c, 8, 55, 0
16, 138752, Note_on_c, 8, 52, 99
16, 139008, Note_on_c, 8, 52, 0
16, 139264, Note_on_c, 8, 55, 100
16, 139520, Note_on_c, 8, 55, 0
16, 139776, Note_on_c, 8, 57, 102
16, 140032, Note_on_c, 8, 57, 0
16, 140288, Note_on_c, 8, 52, 103
16, 140493, Note_on_c, 8, 52, 0
16, 140544, Note_on_c, 8, 49, 104
16, 140749, Note_on_c, 8, 49, 0
16, 140800, Note_on_c, 8, 50, 104
16, 141005, Note_on_c, 8, 50, 0
16, 141056, Note_on_c, 8, 47, 105
16, 141261, Note_on_c, 8, 47, 0
16, 141312, Note_on_c, 8, 49, 106
16, 141568, Note_on_c, 8, 49, 0
16, 141824, Note_on_c, 8, 45, 107
16, 142080, Note_on_c, 8, 45, 0
16, 142336, Note_on_c, 8, 49, 109
16, 142592, Note_on_c, 8, 49, 0
16, 142848, Note_on_c, 8, 50, 110
16, 143104, Note_on_c, 8, 50, 0
16, 143360, Note_on_c, 8, 62, 111
16, 143616, Note_on_c, 8, 62, 0
16, 143872, Note_on_c, 8, 61, 109
16, 144128, Note_on_c, 8, 61, 0
16, 144384, Note_on_c, 8, 59, 106
16, 144640, Note_on_c, 8, 59, 0
16, 144896, Note_on_c, 8, 47, 103
16, 145152, Note_on_c, 8, 47, 0
16, 145408, Note_on_c, 8, 45, 106
16, 145664, Note_on_c, 8, 45, 0
16, 145920, Note_on_c, 8, 43, 109
16, 146176, Note_on_c, 8, 43, 0
16, 146432, Note_on_c, 8, 55, 111
16, 146688, Note_on_c, 8, 55, 0
16, 146944, Note_on_c, 8, 54, 114
16, 147200, Note_on_c, 8, 54, 0
16, 147456, Note_on_c, 8, 52, 117
16, 147712, Note_on_c, 8, 52, 0
16, 147968, Note_on_c, 8, 40, 117
16, 148224, Note_on_c, 8, 40, 0
16, 148480, Note_on_c, 8, 38, 114
16, 148736, Note_on_c, 8, 38, 0
16, 148992, Note_on_c, 8, 37, 110
16, 149248, Note_on_c, 8, 37, 0
16, 149504, Note_on_c, 8, 49, 107
16, 149760, Note_on_c, 8, 49, 0
16, 150016, Note_on_c, 8, 47, 103
16, 150272, Note_on_c, 8, 47, 0
16, 150528, Note_on_c, 8, 45, 96
16, 150784, Note_on_c, 8, 45, 0
16, 151040, Note_on_c, 8, 57, 99
16, 151296, Note_on_c, 8, 57, 0
16, 151552, Note_on_c, 8, 55, 101
16, 151808, Note_on_c, 8, 55, 0
16, 152064, Note_on_c, 8, 54, 103
16, 152320, Note_on_c, 8, 54, 0
16, 152576, Note_on_c, 8, 42, 106
16, 152832, Note_on_c, 8, 42, 0
16, 153088, Note_on_c, 8, 40, 108
16, 153344, Note_on_c, 8, 40, 0
16, 153600, Note_on_c, 8, 38, 111
16, 153856, Note_on_c, 8, 38, 0
16, 154112, Note_on_c, 8, 54, 103
16, 154368, Note_on_c, 8, 54, 0
16, 154624, Note_on_c, 8, 50, 94
16, 154880, Note_on_c, 8, 50, 0
16, 155136, Note_on_c, 8, 43, 96
16, 155392, Note_on_c, 8, 43, 0
16, 155648, Note_on_c, 8, 55, 99
16, 155904, Note_on_c, 8, 55, 0
16, 156160, Note_on_c, 8, 52, 102
16, 156416, Note_on_c, 8, 52, 0
16, 156672, Note_on_c, 8, 45, 105
16, 156928, Note_on_c, 8, 45, 0
16, 157184, Note_on_c, 8, 57, 107
16, 157440, Note_on_c, 8, 57, 0
16, 157696, Note_on_c, 8, 54, 110
16, 157952, Note_on_c, 8, 54, 0
16, 158208, Note_on_c, 8, 47, 113
16, 158464, Note_on_c, 8, 47, 0
16, 158720, Note_on_c, 8, 43, 116
16, 158976, Note_on_c, 8, 43, 0
16, 159232, Note_on_c, 8, 45, 118
16, 159488, Note_on_c, 8, 45, 0
16, 159744, Note_on_c, 8, 38, 121
16, 160000, Note_on_c, 8, 38, 0
16, 160256, Note_on_c, 8, 50, 89
16, 160461, Note_on_c, 8, 50, 0
16, 160512, Note_on_c, 8, 52, 62
16, 160717, Note_on_c, 8, 52, 0
16, 160768, Note_on_c, 8, 54, 45
16, 160973, Note_on_c, 8, 54, 0
16, 161024, Note_on_c, 8, 50, 45
16, 161229, Note_on_c, 8, 50, 0
16, 161280, Note_on_c, 8, 57, 46
16, 161536, Note_on_c, 8, 57, 0
16, 162304, Note_on_c, 8, 45, 48
16, 162560, Note_on_c, 8, 45, 0
16, 162816, Note_on_c, 8, 47, 50
16, 163072, Note_on_c, 8, 47, 0
16, 163840, Note_on_c, 8, 59, 52
16, 164096, Note_on_c, 8, 59, 0
16, 164352, Note_on_c, 8, 55, 54
16, 164608, Note_on_c, 8, 55, 0
16, 165376, Note_on_c, 8, 52, 56
16, 165632, Note_on_c, 8, 52, 0
16, 165888, Note_on_c, 8, 49, 57
16, 166144, Note_on_c, 8, 49, 0
16, 166400, Note_on_c, 8, 45, 79
16, 166656, Note_on_c, 8, 45, 0
16, 166912, Note_on_c, 8, 50, 100
16, 167168, Note_on_c, 8, 50, 0
16, 167424, Note_on_c, 8, 57, 102
16, 167680, Note_on_c, 8, 57, 0
16, 167936, Note_on_c, 8, 57, 104
16, 168192, Note_on_c, 8, 57, 0
16, 168448, Note_on_c, 8, 57, 105
16, 168704, Note_on_c, 8, 57, 0
16, 168960, Note_on_c, 8, 62, 107
16, 169216, Note_on_c, 8, 62, 0
16, 169472, Note_on_c, 8, 57, 109
16, 169677, Note_on_c, 8, 57, 0
16, 169728, Note_on_c, 8, 54, 110
16, 169933, Note_on_c, 8, 54, 0
16, 169984, Note_on_c, 8, 55, 111
16, 170189, Note_on_c, 8, 55, 0
16, 170240, Note_on_c, 8, 52, 112
16, 170445, Note_on_c, 8, 52, 0
16, 170496, Note_on_c, 8, 54, 113
16, 170752, Note_on_c, 8, 54, 0
16, 171008, Note_on_c, 8, 55, 114
16, 171264, Note_on_c, 8, 55, 0
16, 171520, Note_on_c, 8, 57, 116
16, 171776, Note_on_c, 8, 57, 0
16, 172032, Note_on_c, 8, 50, 118
16, 172288, Note_on_c, 8, 50, 0
16, 172544, Note_on_c, 8, 38, 84
16, 172749, Note_on_c, 8, 38, 0
16, 172800, Note_on_c, 8, 40, 51
16, 173005, Note_on_c, 8, 40, 0
16, 173056, Note_on_c, 8, 42, 52
16, 173261, Note_on_c, 8, 42, 0
16, 173312, Note_on_c, 8, 38, 54
16, 173517, Note_on_c, 8, 38, 0
16, 173568, Note_on_c, 8, 43, 56
16, 173824, Note_on_c, 8, 43, 0
16, 174080, Note_on_c, 8, 55, 59
16, 174285, Note_on_c, 8, 55, 0
16, 174336, Note_on_c, 8, 54, 61
16, 174541, Note_on_c, 8, 54, 0
16, 174592, Note_on_c, 8, 56, 63
16, 174797, Note_on_c, 8, 56, 0
16, 174848, Note_on_c, 8, 52, 64
16, 175053, Note_on_c, 8, 52, 0
16, 175104, Note_on_c, 8, 57, 66
16, 175360, Note_on_c, 8, 57, 0
16, 175616, Note_on_c, 8, 45, 70
16, 175821, Note_on_c, 8, 45, 0
16, 175872, Note_on_c, 8, 47, 98
16, 176077, Note_on_c, 8, 47, 0
16, 176128, Note_on_c, 8, 49, 101
16, 176333, Note_on_c, 8, 49, 0
16, 176384, Note_on_c, 8, 45, 104
16, 176589, Note_on_c, 8, 45, 0
16, 176640, Note_on_c, 8, 50, 109
16, 176896, Note_on_c, 8, 50, 0
16, 177152, Note_on_c, 8, 42, 113
16, 177408, Note_on_c, 8, 42, 0
16, 177664, Note_on_c, 8, 45, 117
16, 177920, Note_on_c, 8, 45, 0
16, 178176, Note_on_c, 8, 38, 121
16, 179115, Note_on_c, 8, 38, 0
16, 179200, Note_on_c, 8, 50, 96
16, 179456, Note_on_c, 8, 50, 0
16, 179712, Note_on_c, 8, 57, 103
16, 179968, Note_on_c, 8, 57, 0
16, 180224, Note_on_c, 8, 57, 94
16, 180480, Note_on_c, 8, 57, 0
16, 180736, Note_on_c, 8, 57, 99
16, 180992, Note_on_c, 8, 57, 0
16, 181248, Note_on_c, 8, 62, 103
16, 181504, Note_on_c, 8, 62, 0
16, 181760, Note_on_c, 8, 57, 93
16, 181965, Note_on_c, 8, 57, 0
16, 182016, Note_on_c, 8, 54, 93
16, 182221, Note_on_c, 8, 54, 0
16, 182272, Note_on_c, 8, 55, 94
16, 182477, Note_on_c, 8, 55, 0
16, 182528, Note_on_c, 8, 52, 94
16, 182733, Note_on_c, 8, 52, 0
16, 182784, Note_on_c, 8, 54, 107
16, 183040, Note_on_c, 8, 54, 0
16, 183296, Note_on_c, 8, 54, 93
16, 183552, Note_on_c, 8, 54, 0
16, 183808, Note_on_c, 8, 54, 98
16, 184064, Note_on_c, 8, 54, 0
16, 184320, Note_on_c, 8, 57, 104
16, 184576, Note_on_c, 8, 57, 0
16, 184832, Note_on_c, 8, 54, 95
16, 185037, Note_on_c, 8, 54, 0
16, 185088, Note_on_c, 8, 50, 95
16, 185293, Note_on_c, 8, 50, 0
16, 185344, Note_on_c, 8, 52, 96
16, 185549, Note_on_c, 8, 52, 0
16, 185600, Note_on_c, 8, 49, 96
16, 185805, Note_on_c, 8, 49, 0
16, 185856, Note_on_c, 8, 50, 96
16, 186112, Note_on_c, 8, 50, 0
16, 186368, Note_on_c, 8, 50, 97
16, 186624, Note_on_c, 8, 50, 0
16, 186880, Note_on_c, 8, 50, 98
16, 187136, Note_on_c, 8, 50, 0
16, 187392, Note_on_c, 8, 50, 99
16, 187597, Note_on_c, 8, 50, 0
16, 187648, Note_on_c, 8, 54, 99
16, 187853, Note_on_c, 8, 54, 0
16, 187904, Note_on_c, 8, 52, 99
16, 188109, Note_on_c, 8, 52, 0
16, 188160, Note_on_c, 8, 49, 100
16, 188365, Note_on_c, 8, 49, 0
16, 188416, Note_on_c, 8, 50, 100
16, 188621, Note_on_c, 8, 50, 0
16, 188672, Note_on_c, 8, 52, 101
16, 188877, Note_on_c, 8, 52, 0
16, 188928, Note_on_c, 8, 54, 101
16, 189133, Note_on_c, 8, 54, 0
16, 189184, Note_on_c, 8, 57, 101
16, 189389, Note_on_c, 8, 57, 0
16, 189440, Note_on_c, 8, 55, 102
16, 189645, Note_on_c, 8, 55, 0
16, 189696, Note_on_c, 8, 52, 102
16, 189901, Note_on_c, 8, 52, 0
16, 189952, Note_on_c, 8, 54, 103
16, 190157, Note_on_c, 8, 54, 0
16, 190208, Note_on_c, 8, 50, 103
16, 190413, Note_on_c, 8, 50, 0
16, 190464, Note_on_c, 8, 45, 103
16, 190720, Note_on_c, 8, 45, 0
16, 197632, Note_on_c, 8, 50, 105
16, 197888, Note_on_c, 8, 50, 0
16, 198144, Note_on_c, 8, 62, 108
16, 198400, Note_on_c, 8, 62, 0
16, 198656, Note_on_c, 8, 57, 108
16, 198861, Note_on_c, 8, 57, 0
16, 198912, Note_on_c, 8, 54, 109
16, 199117, Note_on_c, 8, 54, 0
16, 199168, Note_on_c, 8, 55, 109
16, 199373, Note_on_c, 8, 55, 0
16, 199424, Note_on_c, 8, 52, 110
16, 199629, Note_on_c, 8, 52, 0
16, 199680, Note_on_c, 8, 54, 110
16, 199936, Note_on_c, 8, 54, 0
16, 200192, Note_on_c, 8, 50, 111
16, 200448, Note_on_c, 8, 50, 0
16, 200704, Note_on_c, 8, 57, 112
16, 200960, Note_on_c, 8, 57, 0
16, 201216, Note_on_c, 8, 60, 112
16, 201472, Note_on_c, 8, 60, 0
16, 201728, Note_on_c, 8, 54, 113
16, 201933, Note_on_c, 8, 54, 0
16, 201984, Note_on_c, 8, 51, 114
16, 202189, Note_on_c, 8, 51, 0
16, 202240, Note_on_c, 8, 52, 114
16, 202445, Note_on_c, 8, 52, 0
16, 202496, Note_on_c, 8, 49, 114
16, 202701, Note_on_c, 8, 49, 0
16, 202752, Note_on_c, 8, 51, 115
16, 203008, Note_on_c, 8, 51, 0
16, 203264, Note_on_c, 8, 63, 116
16, 203520, Note_on_c, 8, 63, 0
16, 203776, Note_on_c, 8, 59, 117
16, 204032, Note_on_c, 8, 59, 0
16, 204288, Note_on_c, 8, 64, 117
16, 204544, Note_on_c, 8, 64, 0
16, 204800, Note_on_c, 8, 59, 117
16, 205005, Note_on_c, 8, 59, 0
16, 205056, Note_on_c, 8, 55, 116
16, 205261, Note_on_c, 8, 55, 0
16, 205312, Note_on_c, 8, 57, 115
16, 205517, Note_on_c, 8, 57, 0
16, 205568, Note_on_c, 8, 54, 114
16, 205773, Note_on_c, 8, 54, 0
16, 205824, Note_on_c, 8, 55, 113
16, 206080, Note_on_c, 8, 55, 0
16, 206336, Note_on_c, 8, 52, 111
16, 206592, Note_on_c, 8, 52, 0
16, 206848, Note_on_c, 8, 55, 109
16, 207104, Note_on_c, 8, 55, 0
16, 207360, Note_on_c, 8, 57, 107
16, 207616, Note_on_c, 8, 57, 0
16, 207872, Note_on_c, 8, 52, 105
16, 208077, Note_on_c, 8, 52, 0
16, 208128, Note_on_c, 8, 49, 104
16, 208333, Note_on_c, 8, 49, 0
16, 208384, Note_on_c, 8, 50, 103
16, 208589, Note_on_c, 8, 50, 0
16, 208640, Note_on_c, 8, 47, 103
16, 208845, Note_on_c, 8, 47, 0
16, 208896, Note_on_c, 8, 49, 102
16, 209152, Note_on_c, 8, 49, 0
16, 209408, Note_on_c, 8, 45, 100
16, 209664, Note_on_c, 8, 45, 0
16, 209920, Note_on_c, 8, 49, 98
16, 210176, Note_on_c, 8, 49, 0
16, 210432, Note_on_c, 8, 50, 96
16, 210688, Note_on_c, 8, 50, 0
16, 210944, Note_on_c, 8, 62, 96
16, 211200, Note_on_c, 8, 62, 0
16, 211456, Note_on_c, 8, 61, 96
16, 211712, Note_on_c, 8, 61, 0
16, 211968, Note_on_c, 8, 59, 96
16, 212224, Note_on_c, 8, 59, 0
16, 212480, Note_on_c, 8, 47, 96
16, 212736, Note_on_c, 8, 47, 0
16, 212992, Note_on_c, 8, 45, 96
16, 213248, Note_on_c, 8, 45, 0
16, 213504, Note_on_c, 8, 43, 96
16, 213760, Note_on_c, 8, 43, 0
16, 214016, Note_on_c, 8, 55, 96
16, 214272, Note_on_c, 8, 55, 0
16, 214528, Note_on_c, 8, 54, 96
16, 214784, Note_on_c, 8, 54, 0
16, 215040, Note_on_c, 8, 52, 96
16, 215296, Note_on_c, 8, 52, 0
16, 215552, Note_on_c, 8, 40, 96
16, 215808, Note_on_c, 8, 40, 0
16, 216064, Note_on_c, 8, 38, 96
16, 216320, Note_on_c, 8, 38, 0
16, 216576, Note_on_c, 8, 37, 96
16, 216832, Note_on_c, 8, 37, 0
16, 217088, Note_on_c, 8, 49, 96
16, 217344, Note_on_c, 8, 49, 0
16, 217600, Note_on_c, 8, 47, 96
16, 217856, Note_on_c, 8, 47, 0
16, 218112, Note_on_c, 8, 45, 96
16, 218368, Note_on_c, 8, 45, 0
16, 218624, Note_on_c, 8, 57, 96
16, 218880, Note_on_c, 8, 57, 0
16, 219136, Note_on_c, 8, 55, 96
16, 219392, Note_on_c, 8, 55, 0
16, 219648, Note_on_c, 8, 54, 96
16, 219904, Note_on_c, 8, 54, 0
16, 220160, Note_on_c, 8, 42, 96
16, 220416, Note_on_c, 8, 42, 0
16, 220672, Note_on_c, 8, 40, 96
16, 220928, Note_on_c, 8, 40, 0
16, 221184, Note_on_c, 8, 38, 97
16, 221440, Note_on_c, 8, 38, 0
16, 221696, Note_on_c, 8, 42, 85
16, 221952, Note_on_c, 8, 42, 0
16, 222208, Note_on_c, 8, 38, 80
16, 222464, Note_on_c, 8, 38, 0
16, 222720, Note_on_c, 8, 43, 86
16, 222976, Note_on_c, 8, 43, 0
16, 223232, Note_on_c, 8, 55, 91
16, 223488, Note_on_c, 8, 55, 0
16, 223744, Note_on_c, 8, 52, 96
16, 224000, Note_on_c, 8, 52, 0
16, 224256, Note_on_c, 8, 45, 102
16, 224512, Note_on_c, 8, 45, 0
16, 224768, Note_on_c, 8, 57, 107
16, 225024, Note_on_c, 8, 57, 0
16, 225280, Note_on_c, 8, 54, 112
16, 225536, Note_on_c, 8, 54, 0
16, 225792, Note_on_c, 8, 47, 118
16, 226048, Note_on_c, 8, 47, 0
16, 226304, Note_on_c, 8, 43, 120
16, 226560, Note_on_c, 8, 43, 0
16, 226816, Note_on_c, 8, 45, 121
16, 227072, Note_on_c, 8, 45, 0
16, 227328, Note_on_c, 8, 38, 122
16, 228864, Note_on_c, 8, 38, 0
16, 230400, Control_c, 8, 121, 127
16, 230400, End_track
17, 0, Start_track
17, 0, Title_t, "Oboe"
17, 0, Program_c, 3, 68
17, 0, Control_c, 3, 121, 127
17, 0, Control_c, 3, 91, 127
17, 0, Control_c, 3, 1, 5
17, 0, Control_c, 3, 10, 50
17, 0, Control_c, 3, 11, 80
17, 5120, Note_on_c, 3, 81, 78
17, 5120, Note_on_c, 3, 78, 78
17, 5325, Note_on_c, 3, 81, 0
17, 5325, Note_on_c, 3, 78, 0
17, 5376, Note_on_c, 3, 78, 78
17, 5376, Note_on_c, 3, 74, 78
17, 5581, Note_on_c, 3, 78, 0
17, 5581, Note_on_c, 3, 74, 0
17, 5632, Note_on_c, 3, 79, 78
17, 5632, Note_on_c, 3, 76, 78
17, 5837, Note_on_c, 3, 79, 0
17, 5837, Note_on_c, 3, 76, 0
17, 5888, Note_on_c, 3, 76, 79
17, 5888, Note_on_c, 3, 73, 79
17, 6093, Note_on_c, 3, 76, 0
17, 6093, Note_on_c, 3, 73, 0
17, 6144, Note_on_c, 3, 78, 79
17, 6144, Note_on_c, 3, 74, 79
17, 6349, Note_on_c, 3, 78, 0
17, 6400, Note_on_c, 3, 76, 80
17, 6400, Note_on_c, 3, 74, 0
17, 6605, Note_on_c, 3, 76, 0
17, 6656, Note_on_c, 3, 74, 80
17, 6656, Note_on_c, 3, 69, 80
17, 6861, Note_on_c, 3, 74, 0
17, 6861, Note_on_c, 3, 69, 0
17, 6912, Note_on_c, 3, 78, 80
17, 6912, Note_on_c, 3, 74, 80
17, 7117, Note_on_c, 3, 78, 0
17, 7117, Note_on_c, 3, 74, 0
17, 7168, Note_on_c, 3, 76, 81
17, 7168, Note_on_c, 3, 73, 81
17, 7373, Note_on_c, 3, 76, 0
17, 7373, Note_on_c, 3, 73, 0
17, 7424, Note_on_c, 3, 79, 81
17, 7424, Note_on_c, 3, 76, 81
17, 7629, Note_on_c, 3, 79, 0
17, 7629, Note_on_c, 3, 76, 0
17, 7680, Note_on_c, 3, 78, 82
17, 7680, Note_on_c, 3, 74, 82
17, 7885, Note_on_c, 3, 78, 0
17, 7885, Note_on_c, 3, 74, 0
17, 7936, Note_on_c, 3, 79, 82
17, 7936, Note_on_c, 3, 76, 82
17, 8141, Note_on_c, 3, 79, 0
17, 8141, Note_on_c, 3, 76, 0
17, 8192, Note_on_c, 3, 81, 82
17, 8192, Note_on_c, 3, 78, 82
17, 8448, Note_on_c, 3, 81, 0
17, 8448, Note_on_c, 3, 78, 0
17, 8704, Note_on_c, 3, 78, 83
17, 8704, Note_on_c, 3, 69, 83
17, 8832, Note_on_c, 3, 78, 0
17, 8832, Note_on_c, 3, 76, 83
17, 8960, Note_on_c, 3, 76, 0
17, 8960, Note_on_c, 3, 78, 84
17, 8960, Note_on_c, 3, 69, 0
17, 9088, Note_on_c, 3, 78, 0
17, 9088, Note_on_c, 3, 76, 84
17, 9216, Note_on_c, 3, 76, 0
17, 9216, Note_on_c, 3, 74, 84
17, 9216, Note_on_c, 3, 69, 84
17, 9472, Note_on_c, 3, 74, 0
17, 9472, Note_on_c, 3, 69, 0
17, 9728, Note_on_c, 3, 69, 85
17, 9728, Note_on_c, 3, 66, 85
17, 9984, Note_on_c, 3, 69, 0
17, 9984, Note_on_c, 3, 66, 0
17, 10240, Note_on_c, 3, 74, 86
17, 10240, Note_on_c, 3, 69, 86
17, 10496, Note_on_c, 3, 74, 0
17, 10496, Note_on_c, 3, 69, 0
17, 10752, Note_on_c, 3, 73, 86
17, 10752, Note_on_c, 3, 69, 86
17, 11008, Note_on_c, 3, 73, 0
17, 11008, Note_on_c, 3, 69, 0
17, 11264, Note_on_c, 3, 76, 89
17, 11264, Note_on_c, 3, 67, 89
17, 11469, Note_on_c, 3, 76, 0
17, 11469, Note_on_c, 3, 67, 0
17, 11520, Note_on_c, 3, 74, 90
17, 11520, Note_on_c, 3, 66, 90
17, 11725, Note_on_c, 3, 74, 0
17, 11725, Note_on_c, 3, 66, 0
17, 11776, Note_on_c, 3, 76, 91
17, 11776, Note_on_c, 3, 67, 91
17, 11981, Note_on_c, 3, 76, 0
17, 11981, Note_on_c, 3, 67, 0
17, 12032, Note_on_c, 3, 73, 92
17, 12032, Note_on_c, 3, 64, 92
17, 12237, Note_on_c, 3, 73, 0
17, 12237, Note_on_c, 3, 64, 0
17, 12288, Note_on_c, 3, 74, 93
17, 12288, Note_on_c, 3, 66, 93
17, 12544, Note_on_c, 3, 74, 0
17, 12544, Note_on_c, 3, 66, 0
17, 12800, Note_on_c, 3, 73, 96
17, 12800, Note_on_c, 3, 76, 96
17, 13005, Note_on_c, 3, 73, 0
17, 13056, Note_on_c, 3, 74, 97
17, 13056, Note_on_c, 3, 76, 0
17, 13261, Note_on_c, 3, 74, 0
17, 13312, Note_on_c, 3, 76, 98
17, 13312, Note_on_c, 3, 73, 98
17, 13517, Note_on_c, 3, 76, 0
17, 13568, Note_on_c, 3, 73, 99
17, 13568, Note_on_c, 3, 73, 0
17, 13773, Note_on_c, 3, 73, 0
17, 13824, Note_on_c, 3, 74, 100
17, 13824, Note_on_c, 3, 69, 100
17, 14080, Note_on_c, 3, 74, 0
17, 14080, Note_on_c, 3, 69, 0
17, 14336, Note_on_c, 3, 73, 103
17, 14336, Note_on_c, 3, 67, 103
17, 14541, Note_on_c, 3, 73, 0
17, 14592, Note_on_c, 3, 71, 104
17, 14592, Note_on_c, 3, 67, 0
17, 14797, Note_on_c, 3, 71, 0
17, 14848, Note_on_c, 3, 69, 105
17, 14848, Note_on_c, 3, 64, 105
17, 15053, Note_on_c, 3, 69, 0
17, 15104, Note_on_c, 3, 67, 106
17, 15104, Note_on_c, 3, 64, 0
17, 15309, Note_on_c, 3, 67, 0
17, 15360, Note_on_c, 3, 66, 107
17, 15360, Note_on_c, 3, 62, 107
17, 15616, Note_on_c, 3, 66, 0
17, 15616, Note_on_c, 3, 62, 0
17, 15872, Note_on_c, 3, 62, 93
17, 15872, Note_on_c, 3, 62, 93
17, 16128, Note_on_c, 3, 62, 0
17, 16128, Note_on_c, 3, 62, 0
17, 19456, Note_on_c, 3, 76, 90
17, 19456, Note_on_c, 3, 73, 90
17, 19712, Note_on_c, 3, 76, 0
17, 19712, Note_on_c, 3, 73, 0
17, 19968, Note_on_c, 3, 69, 91
17, 19968, Note_on_c, 3, 74, 91
17, 20224, Note_on_c, 3, 69, 0
17, 20224, Note_on_c, 3, 74, 0
17, 20480, Note_on_c, 3, 73, 93
17, 20480, Note_on_c, 3, 76, 93
17, 20736, Note_on_c, 3, 73, 0
17, 20736, Note_on_c, 3, 76, 0
17, 20992, Note_on_c, 3, 74, 94
17, 20992, Note_on_c, 3, 69, 94
17, 21248, Note_on_c, 3, 74, 0
17, 21248, Note_on_c, 3, 69, 0
17, 21504, Note_on_c, 3, 73, 95
17, 21504, Note_on_c, 3, 69, 95
17, 21709, Note_on_c, 3, 73, 0
17, 21709, Note_on_c, 3, 69, 0
17, 21760, Note_on_c, 3, 74, 93
17, 21760, Note_on_c, 3, 71, 93
17, 21965, Note_on_c, 3, 74, 0
17, 21965, Note_on_c, 3, 71, 0
17, 22016, Note_on_c, 3, 76, 89
17, 22016, Note_on_c, 3, 73, 89
17, 22272, Note_on_c, 3, 76, 0
17, 22272, Note_on_c, 3, 73, 0
17, 25088, Note_on_c, 3, 69, 43
17, 25088, Note_on_c, 3, 66, 43
17, 25344, Note_on_c, 3, 69, 0
17, 25344, Note_on_c, 3, 66, 0
17, 25600, Note_on_c, 3, 74, 45
17, 25600, Note_on_c, 3, 69, 45
17, 25856, Note_on_c, 3, 74, 0
17, 25856, Note_on_c, 3, 69, 0
17, 26112, Note_on_c, 3, 62, 47
17, 26112, Note_on_c, 3, 67, 47
17, 26368, Note_on_c, 3, 62, 0
17, 26368, Note_on_c, 3, 67, 0
17, 29696, Note_on_c, 3, 74, 61
17, 29696, Note_on_c, 3, 69, 61
17, 29952, Note_on_c, 3, 74, 0
17, 29952, Note_on_c, 3, 69, 0
17, 30208, Note_on_c, 3, 71, 63
17, 30208, Note_on_c, 3, 62, 63
17, 30464, Note_on_c, 3, 71, 0
17, 30464, Note_on_c, 3, 62, 0
17, 30720, Note_on_c, 3, 73, 65
17, 30720, Note_on_c, 3, 64, 65
17, 30976, Note_on_c, 3, 73, 0
17, 30976, Note_on_c, 3, 64, 0
17, 34304, Note_on_c, 3, 74, 79
17, 34304, Note_on_c, 3, 71, 79
17, 34560, Note_on_c, 3, 74, 0
17, 34560, Note_on_c, 3, 71, 0
17, 34816, Note_on_c, 3, 71, 81
17, 34816, Note_on_c, 3, 78, 81
17, 35072, Note_on_c, 3, 71, 0
17, 35072, Note_on_c, 3, 78, 0
17, 35328, Note_on_c, 3, 81, 83
17, 35328, Note_on_c, 3, 76, 83
17, 35584, Note_on_c, 3, 81, 0
17, 35584, Note_on_c, 3, 76, 0
17, 36352, Note_on_c, 3, 62, 90
17, 36352, Note_on_c, 3, 62, 90
17, 36608, Note_on_c, 3, 62, 0
17, 36608, Note_on_c, 3, 62, 0
17, 36864, Note_on_c, 3, 69, 91
17, 36864, Note_on_c, 3, 69, 91
17, 37120, Note_on_c, 3, 69, 0
17, 37120, Note_on_c, 3, 69, 0
17, 37376, Note_on_c, 3, 69, 92
17, 37376, Note_on_c, 3, 69, 92
17, 37632, Note_on_c, 3, 69, 0
17, 37632, Note_on_c, 3, 69, 0
17, 37888, Note_on_c, 3, 69, 93
17, 37888, Note_on_c, 3, 69, 93
17, 38144, Note_on_c, 3, 69, 0
17, 38144, Note_on_c, 3, 69, 0
17, 38400, Note_on_c, 3, 74, 95
17, 38400, Note_on_c, 3, 74, 95
17, 38656, Note_on_c, 3, 74, 0
17, 38656, Note_on_c, 3, 74, 0
17, 38912, Note_on_c, 3, 69, 96
17, 38912, Note_on_c, 3, 69, 96
17, 39117, Note_on_c, 3, 69, 0
17, 39117, Note_on_c, 3, 69, 0
17, 39168, Note_on_c, 3, 66, 97
17, 39168, Note_on_c, 3, 66, 97
17, 39373, Note_on_c, 3, 66, 0
17, 39373, Note_on_c, 3, 66, 0
17, 39424, Note_on_c, 3, 67, 97
17, 39424, Note_on_c, 3, 67, 97
17, 39629, Note_on_c, 3, 67, 0
17, 39629, Note_on_c, 3, 67, 0
17, 39680, Note_on_c, 3, 64, 98
17, 39680, Note_on_c, 3, 64, 98
17, 39885, Note_on_c, 3, 64, 0
17, 39885, Note_on_c, 3, 64, 0
17, 39936, Note_on_c, 3, 66, 99
17, 39936, Note_on_c, 3, 66, 99
17, 40192, Note_on_c, 3, 66, 0
17, 40192, Note_on_c, 3, 66, 0
17, 40448, Note_on_c, 3, 69, 100
17, 40448, Note_on_c, 3, 74, 100
17, 40704, Note_on_c, 3, 69, 0
17, 40704, Note_on_c, 3, 74, 0
17, 40960, Note_on_c, 3, 74, 101
17, 40960, Note_on_c, 3, 66, 101
17, 41728, Note_on_c, 3, 74, 0
17, 41728, Note_on_c, 3, 66, 0
17, 41984, Note_on_c, 3, 73, 104
17, 41984, Note_on_c, 3, 64, 104
17, 42189, Note_on_c, 3, 73, 0
17, 42240, Note_on_c, 3, 74, 104
17, 42240, Note_on_c, 3, 64, 0
17, 42445, Note_on_c, 3, 74, 0
17, 42496, Note_on_c, 3, 76, 105
17, 42496, Note_on_c, 3, 69, 105
17, 42701, Note_on_c, 3, 76, 0
17, 42752, Note_on_c, 3, 73, 106
17, 42957, Note_on_c, 3, 73, 0
17, 43008, Note_on_c, 3, 78, 106
17, 43213, Note_on_c, 3, 69, 0
17, 43264, Note_on_c, 3, 78, 0
17, 43264, Note_on_c, 3, 71, 91
17, 43469, Note_on_c, 3, 71, 0
17, 43520, Note_on_c, 3, 76, 86
17, 43520, Note_on_c, 3, 73, 86
17, 43776, Note_on_c, 3, 76, 0
17, 43776, Note_on_c, 3, 73, 0
17, 47104, Note_on_c, 3, 74, 94
17, 47104, Note_on_c, 3, 71, 94
17, 47872, Note_on_c, 3, 74, 0
17, 47872, Note_on_c, 3, 71, 0
17, 48128, Note_on_c, 3, 73, 106
17, 48128, Note_on_c, 3, 70, 106
17, 48384, Note_on_c, 3, 73, 0
17, 48384, Note_on_c, 3, 70, 0
17, 48640, Note_on_c, 3, 78, 105
17, 48640, Note_on_c, 3, 73, 105
17, 48896, Note_on_c, 3, 78, 0
17, 48896, Note_on_c, 3, 73, 0
17, 49152, Note_on_c, 3, 74, 105
17, 49152, Note_on_c, 3, 71, 105
17, 49408, Note_on_c, 3, 74, 0
17, 49408, Note_on_c, 3, 71, 0
17, 49664, Note_on_c, 3, 71, 75
17, 49664, Note_on_c, 3, 66, 75
17, 49920, Note_on_c, 3, 71, 0
17, 49920, Note_on_c, 3, 66, 0
17, 53248, Note_on_c, 3, 79, 77
17, 53248, Note_on_c, 3, 71, 77
17, 54016, Note_on_c, 3, 79, 0
17, 54016, Note_on_c, 3, 71, 0
17, 54272, Note_on_c, 3, 78, 90
17, 54272, Note_on_c, 3, 69, 90
17, 54477, Note_on_c, 3, 78, 0
17, 54477, Note_on_c, 3, 69, 0
17, 54528, Note_on_c, 3, 76, 90
17, 54528, Note_on_c, 3, 67, 90
17, 54733, Note_on_c, 3, 76, 0
17, 54733, Note_on_c, 3, 67, 0
17, 54784, Note_on_c, 3, 74, 90
17, 54784, Note_on_c, 3, 69, 90
17, 54989, Note_on_c, 3, 74, 0
17, 54989, Note_on_c, 3, 69, 0
17, 55040, Note_on_c, 3, 72, 90
17, 55040, Note_on_c, 3, 66, 90
17, 55245, Note_on_c, 3, 72, 0
17, 55245, Note_on_c, 3, 66, 0
17, 55296, Note_on_c, 3, 71, 90
17, 55296, Note_on_c, 3, 67, 90
17, 55552, Note_on_c, 3, 71, 0
17, 55552, Note_on_c, 3, 67, 0
17, 55808, Note_on_c, 3, 69, 78
17, 55808, Note_on_c, 3, 66, 78
17, 56064, Note_on_c, 3, 69, 0
17, 56064, Note_on_c, 3, 66, 0
17, 61952, Note_on_c, 3, 76, 40
17, 61952, Note_on_c, 3, 73, 40
17, 62208, Note_on_c, 3, 76, 0
17, 62208, Note_on_c, 3, 73, 0
17, 62464, Note_on_c, 3, 69, 40
17, 62464, Note_on_c, 3, 64, 40
17, 62720, Note_on_c, 3, 69, 0
17, 62720, Note_on_c, 3, 64, 0
17, 62976, Note_on_c, 3, 74, 40
17, 62976, Note_on_c, 3, 69, 40
17, 63232, Note_on_c, 3, 74, 0
17, 63232, Note_on_c, 3, 69, 0
17, 66560, Note_on_c, 3, 81, 47
17, 66560, Note_on_c, 3, 76, 47
17, 66816, Note_on_c, 3, 81, 0
17, 66816, Note_on_c, 3, 76, 0
17, 67072, Note_on_c, 3, 78, 50
17, 67072, Note_on_c, 3, 69, 50
17, 67328, Note_on_c, 3, 78, 0
17, 67328, Note_on_c, 3, 69, 0
17, 67584, Note_on_c, 3, 76, 52
17, 67584, Note_on_c, 3, 71, 52
17, 67840, Note_on_c, 3, 76, 0
17, 67840, Note_on_c, 3, 71, 0
17, 71168, Note_on_c, 3, 69, 68
17, 71168, Note_on_c, 3, 66, 68
17, 71424, Note_on_c, 3, 69, 0
17, 71424, Note_on_c, 3, 66, 0
17, 71680, Note_on_c, 3, 78, 71
17, 71680, Note_on_c, 3, 73, 71
17, 71936, Note_on_c, 3, 78, 0
17, 71936, Note_on_c, 3, 73, 0
17, 72192, Note_on_c, 3, 76, 73
17, 72192, Note_on_c, 3, 71, 73
17, 72448, Note_on_c, 3, 76, 0
17, 72448, Note_on_c, 3, 71, 0
17, 73216, Note_on_c, 3, 69, 78
17, 73216, Note_on_c, 3, 69, 78
17, 73472, Note_on_c, 3, 69, 0
17, 73472, Note_on_c, 3, 69, 0
17, 73728, Note_on_c, 3, 76, 80
17, 73728, Note_on_c, 3, 76, 80
17, 73984, Note_on_c, 3, 76, 0
17, 73984, Note_on_c, 3, 76, 0
17, 74240, Note_on_c, 3, 76, 82
17, 74240, Note_on_c, 3, 76, 82
17, 74445, Note_on_c, 3, 76, 0
17, 74445, Note_on_c, 3, 76, 0
17, 74496, Note_on_c, 3, 76, 83
17, 74496, Note_on_c, 3, 76, 83
17, 74701, Note_on_c, 3, 76, 0
17, 74701, Note_on_c, 3, 76, 0
17, 74752, Note_on_c, 3, 76, 85
17, 74752, Note_on_c, 3, 76, 85
17, 74957, Note_on_c, 3, 76, 0
17, 74957, Note_on_c, 3, 76, 0
17, 75008, Note_on_c, 3, 76, 86
17, 75008, Note_on_c, 3, 76, 86
17, 75213, Note_on_c, 3, 76, 0
17, 75213, Note_on_c, 3, 76, 0
17, 75264, Note_on_c, 3, 81, 87
17, 75264, Note_on_c, 3, 81, 87
17, 75520, Note_on_c, 3, 81, 0
17, 75520, Note_on_c, 3, 81, 0
17, 75776, Note_on_c, 3, 76, 89
17, 75776, Note_on_c, 3, 76, 89
17, 75981, Note_on_c, 3, 76, 0
17, 75981, Note_on_c, 3, 76, 0
17, 76032, Note_on_c, 3, 73, 90
17, 76032, Note_on_c, 3, 73, 90
17, 76237, Note_on_c, 3, 73, 0
17, 76237, Note_on_c, 3, 73, 0
17, 76288, Note_on_c, 3, 74, 92
17, 76288, Note_on_c, 3, 74, 92
17, 76493, Note_on_c, 3, 74, 0
17, 76493, Note_on_c, 3, 74, 0
17, 76544, Note_on_c, 3, 71, 93
17, 76544, Note_on_c, 3, 71, 93
17, 76749, Note_on_c, 3, 71, 0
17, 76749, Note_on_c, 3, 71, 0
17, 76800, Note_on_c, 3, 73, 94
17, 76800, Note_on_c, 3, 73, 94
17, 77056, Note_on_c, 3, 73, 0
17, 77312, Note_on_c, 3, 64, 96
17, 77568, Note_on_c, 3, 64, 0
17, 77824, Note_on_c, 3, 69, 99
17, 78592, Note_on_c, 3, 73, 0
17, 78592, Note_on_c, 3, 69, 0
17, 78848, Note_on_c, 3, 71, 100
17, 78848, Note_on_c, 3, 68, 100
17, 79053, Note_on_c, 3, 68, 0
17, 79104, Note_on_c, 3, 71, 0
17, 79104, Note_on_c, 3, 69, 100
17, 79309, Note_on_c, 3, 69, 0
17, 79360, Note_on_c, 3, 76, 100
17, 79360, Note_on_c, 3, 71, 100
17, 79565, Note_on_c, 3, 71, 0
17, 79616, Note_on_c, 3, 76, 0
17, 79616, Note_on_c, 3, 68, 100
17, 79821, Note_on_c, 3, 68, 0
17, 79872, Note_on_c, 3, 74, 100
17, 79872, Note_on_c, 3, 69, 100
17, 80000, Note_on_c, 3, 74, 0
17, 80000, Note_on_c, 3, 73, 101
17, 80128, Note_on_c, 3, 73, 0
17, 80128, Note_on_c, 3, 74, 97
17, 80128, Note_on_c, 3, 69, 0
17, 80256, Note_on_c, 3, 74, 0
17, 80256, Note_on_c, 3, 73, 94
17, 80384, Note_on_c, 3, 73, 0
17, 80384, Note_on_c, 3, 71, 90
17, 80384, Note_on_c, 3, 68, 90
17, 80589, Note_on_c, 3, 68, 0
17, 80640, Note_on_c, 3, 71, 0
17, 80640, Note_on_c, 3, 66, 63
17, 80845, Note_on_c, 3, 66, 0
17, 80896, Note_on_c, 3, 73, 44
17, 80896, Note_on_c, 3, 68, 44
17, 81152, Note_on_c, 3, 73, 0
17, 81152, Note_on_c, 3, 68, 0
17, 81408, Note_on_c, 3, 69, 44
17, 81408, Note_on_c, 3, 66, 44
17, 81664, Note_on_c, 3, 69, 0
17, 81664, Note_on_c, 3, 66, 0
17, 81920, Note_on_c, 3, 71, 45
17, 81920, Note_on_c, 3, 68, 45
17, 82176, Note_on_c, 3, 71, 0
17, 82176, Note_on_c, 3, 68, 0
17, 82432, Note_on_c, 3, 68, 46
17, 82432, Note_on_c, 3, 65, 46
17, 82688, Note_on_c, 3, 68, 0
17, 82688, Note_on_c, 3, 65, 0
17, 82944, Note_on_c, 3, 69, 47
17, 82944, Note_on_c, 3, 66, 47
17, 83200, Note_on_c, 3, 69, 0
17, 83200, Note_on_c, 3, 66, 0
17, 83456, Note_on_c, 3, 66, 74
17, 83456, Note_on_c, 3, 66, 74
17, 83712, Note_on_c, 3, 66, 0
17, 83712, Note_on_c, 3, 66, 0
17, 87040, Note_on_c, 3, 69, 45
17, 87040, Note_on_c, 3, 66, 45
17, 87296, Note_on_c, 3, 69, 0
17, 87296, Note_on_c, 3, 66, 0
17, 87552, Note_on_c, 3, 71, 48
17, 87552, Note_on_c, 3, 62, 48
17, 87808, Note_on_c, 3, 71, 0
17, 87808, Note_on_c, 3, 62, 0
17, 88064, Note_on_c, 3, 74, 54
17, 88064, Note_on_c, 3, 66, 54
17, 88192, Note_on_c, 3, 74, 0
17, 88192, Note_on_c, 3, 73, 55
17, 88192, Note_on_c, 3, 66, 0
17, 88192, Note_on_c, 3, 64, 55
17, 88320, Note_on_c, 3, 73, 0
17, 88320, Note_on_c, 3, 74, 57
17, 88320, Note_on_c, 3, 64, 0
17, 88320, Note_on_c, 3, 66, 57
17, 88448, Note_on_c, 3, 74, 0
17, 88448, Note_on_c, 3, 73, 58
17, 88448, Note_on_c, 3, 66, 0
17, 88448, Note_on_c, 3, 64, 58
17, 88576, Note_on_c, 3, 73, 0
17, 88576, Note_on_c, 3, 74, 60
17, 88576, Note_on_c, 3, 64, 0
17, 88576, Note_on_c, 3, 66, 60
17, 88704, Note_on_c, 3, 74, 0
17, 88704, Note_on_c, 3, 73, 61
17, 88704, Note_on_c, 3, 66, 0
17, 88704, Note_on_c, 3, 64, 61
17, 88832, Note_on_c, 3, 73, 0
17, 88832, Note_on_c, 3, 71, 63
17, 88832, Note_on_c, 3, 64, 0
17, 88832, Note_on_c, 3, 62, 63
17, 88960, Note_on_c, 3, 71, 0
17, 88960, Note_on_c, 3, 73, 64
17, 88960, Note_on_c, 3, 62, 0
17, 88960, Note_on_c, 3, 64, 64
17, 89088, Note_on_c, 3, 73, 0
17, 89088, Note_on_c, 3, 64, 0
17, 89088, Note_on_c, 3, 74, 66
17, 89088, Note_on_c, 3, 66, 66
17, 90112, Note_on_c, 3, 74, 0
17, 90112, Note_on_c, 3, 66, 0
17, 93184, Note_on_c, 3, 73, 49
17, 93184, Note_on_c, 3, 66, 49
17, 93440, Note_on_c, 3, 73, 0
17, 93440, Note_on_c, 3, 66, 0
17, 93696, Note_on_c, 3, 71, 41
17, 93696, Note_on_c, 3, 66, 41
17, 93952, Note_on_c, 3, 71, 0
17, 93952, Note_on_c, 3, 66, 0
17, 94208, Note_on_c, 3, 71, 41
17, 94208, Note_on_c, 3, 64, 41
17, 94413, Note_on_c, 3, 64, 0
17, 94464, Note_on_c, 3, 71, 0
17, 94464, Note_on_c, 3, 62, 41
17, 94669, Note_on_c, 3, 62, 0
17, 94720, Note_on_c, 3, 70, 41
17, 94720, Note_on_c, 3, 64, 41
17, 94976, Note_on_c, 3, 70, 0
17, 94976, Note_on_c, 3, 64, 0
17, 95232, Note_on_c, 3, 71, 41
17, 95232, Note_on_c, 3, 62, 41
17, 95437, Note_on_c, 3, 71, 0
17, 95488, Note_on_c, 3, 73, 41
17, 95488, Note_on_c, 3, 62, 0
17, 95693, Note_on_c, 3, 73, 0
17, 95744, Note_on_c, 3, 74, 41
17, 95744, Note_on_c, 3, 71, 41
17, 96000, Note_on_c, 3, 74, 0
17, 96000, Note_on_c, 3, 71, 0
17, 98816, Note_on_c, 3, 76, 41
17, 98816, Note_on_c, 3, 71, 41
17, 99072, Note_on_c, 3, 76, 0
17, 99072, Note_on_c, 3, 71, 0
17, 99328, Note_on_c, 3, 71, 41
17, 99328, Note_on_c, 3, 68, 41
17, 99584, Note_on_c, 3, 71, 0
17, 99584, Note_on_c, 3, 68, 0
17, 99840, Note_on_c, 3, 73, 41
17, 99840, Note_on_c, 3, 64, 41
17, 100096, Note_on_c, 3, 73, 0
17, 100096, Note_on_c, 3, 64, 0
17, 101888, Note_on_c, 3, 81, 41
17, 101888, Note_on_c, 3, 76, 41
17, 102144, Note_on_c, 3, 81, 0
17, 102144, Note_on_c, 3, 76, 0
17, 102400, Note_on_c, 3, 76, 41
17, 102400, Note_on_c, 3, 73, 41
17, 102656, Note_on_c, 3, 76, 0
17, 102656, Note_on_c, 3, 73, 0
17, 102912, Note_on_c, 3, 78, 41
17, 102912, Note_on_c, 3, 69, 41
17, 103168, Note_on_c, 3, 78, 0
17, 103168, Note_on_c, 3, 69, 0
17, 104960, Note_on_c, 3, 74, 41
17, 104960, Note_on_c, 3, 69, 41
17, 105216, Note_on_c, 3, 74, 0
17, 105216, Note_on_c, 3, 69, 0
17, 105472, Note_on_c, 3, 69, 41
17, 105472, Note_on_c, 3, 66, 41
17, 105728, Note_on_c, 3, 69, 0
17, 105728, Note_on_c, 3, 66, 0
17, 105984, Note_on_c, 3, 71, 41
17, 105984, Note_on_c, 3, 62, 41
17, 106240, Note_on_c, 3, 71, 0
17, 106240, Note_on_c, 3, 62, 0
17, 108032, Note_on_c, 3, 79, 41
17, 108032, Note_on_c, 3, 74, 41
17, 108288, Note_on_c, 3, 79, 0
17, 108288, Note_on_c, 3, 74, 0
17, 108544, Note_on_c, 3, 74, 41
17, 108544, Note_on_c, 3, 71, 41
17, 108800, Note_on_c, 3, 74, 0
17, 108800, Note_on_c, 3, 71, 0
17, 109056, Note_on_c, 3, 76, 41
17, 109056, Note_on_c, 3, 71, 41
17, 109312, Note_on_c, 3, 76, 0
17, 109312, Note_on_c, 3, 71, 0
17, 111104, Note_on_c, 3, 73, 41
17, 111104, Note_on_c, 3, 64, 41
17, 111360, Note_on_c, 3, 73, 0
17, 111360, Note_on_c, 3, 64, 0
17, 111616, Note_on_c, 3, 68, 41
17, 111616, Note_on_c, 3, 76, 41
17, 111872, Note_on_c, 3, 68, 0
17, 111872, Note_on_c, 3, 76, 0
17, 112128, Note_on_c, 3, 70, 41
17, 112128, Note_on_c, 3, 73, 41
17, 112384, Note_on_c, 3, 70, 0
17, 112384, Note_on_c, 3, 73, 0
17, 114176, Note_on_c, 3, 78, 41
17, 114176, Note_on_c, 3, 73, 41
17, 114432, Note_on_c, 3, 78, 0
17, 114432, Note_on_c, 3, 73, 0
17, 114688, Note_on_c, 3, 73, 41
17, 114688, Note_on_c, 3, 70, 41
17, 114944, Note_on_c, 3, 73, 0
17, 114944, Note_on_c, 3, 70, 0
17, 115200, Note_on_c, 3, 74, 44
17, 115200, Note_on_c, 3, 66, 44
17, 115456, Note_on_c, 3, 74, 0
17, 115456, Note_on_c, 3, 66, 0
17, 117248, Note_on_c, 3, 71, 58
17, 117248, Note_on_c, 3, 62, 58
17, 117504, Note_on_c, 3, 71, 0
17, 117504, Note_on_c, 3, 62, 0
17, 117760, Note_on_c, 3, 66, 61
17, 117760, Note_on_c, 3, 74, 61
17, 118016, Note_on_c, 3, 66, 0
17, 118016, Note_on_c, 3, 74, 0
17, 118272, Note_on_c, 3, 68, 65
17, 118272, Note_on_c, 3, 71, 65
17, 118528, Note_on_c, 3, 68, 0
17, 118528, Note_on_c, 3, 71, 0
17, 120320, Note_on_c, 3, 76, 78
17, 120320, Note_on_c, 3, 71, 78
17, 120576, Note_on_c, 3, 76, 0
17, 120576, Note_on_c, 3, 71, 0
17, 120832, Note_on_c, 3, 71, 82
17, 120832, Note_on_c, 3, 68, 82
17, 121088, Note_on_c, 3, 71, 0
17, 121088, Note_on_c, 3, 68, 0
17, 121344, Note_on_c, 3, 73, 85
17, 121344, Note_on_c, 3, 64, 85
17, 121549, Note_on_c, 3, 73, 0
17, 121549, Note_on_c, 3, 64, 0
17, 121600, Note_on_c, 3, 71, 87
17, 121600, Note_on_c, 3, 62, 87
17, 121805, Note_on_c, 3, 71, 0
17, 121805, Note_on_c, 3, 62, 0
17, 121856, Note_on_c, 3, 69, 89
17, 121856, Note_on_c, 3, 64, 89
17, 122061, Note_on_c, 3, 69, 0
17, 122061, Note_on_c, 3, 64, 0
17, 122112, Note_on_c, 3, 73, 90
17, 122112, Note_on_c, 3, 69, 90
17, 122317, Note_on_c, 3, 73, 0
17, 122317, Note_on_c, 3, 69, 0
17, 122368, Note_on_c, 3, 71, 92
17, 122368, Note_on_c, 3, 62, 92
17, 122573, Note_on_c, 3, 71, 0
17, 122573, Note_on_c, 3, 62, 0
17, 122624, Note_on_c, 3, 74, 94
17, 122624, Note_on_c, 3, 66, 94
17, 122829, Note_on_c, 3, 74, 0
17, 122829, Note_on_c, 3, 66, 0
17, 122880, Note_on_c, 3, 73, 96
17, 122880, Note_on_c, 3, 64, 96
17, 123085, Note_on_c, 3, 73, 0
17, 123085, Note_on_c, 3, 64, 0
17, 123136, Note_on_c, 3, 71, 97
17, 123136, Note_on_c, 3, 62, 97
17, 123341, Note_on_c, 3, 71, 0
17, 123341, Note_on_c, 3, 62, 0
17, 123392, Note_on_c, 3, 73, 99
17, 123392, Note_on_c, 3, 64, 99
17, 123597, Note_on_c, 3, 73, 0
17, 123597, Note_on_c, 3, 64, 0
17, 123648, Note_on_c, 3, 74, 101
17, 123648, Note_on_c, 3, 66, 101
17, 123853, Note_on_c, 3, 74, 0
17, 123853, Note_on_c, 3, 66, 0
17, 123904, Note_on_c, 3, 71, 98
17, 123904, Note_on_c, 3, 62, 98
17, 124109, Note_on_c, 3, 71, 0
17, 124109, Note_on_c, 3, 62, 0
17, 124160, Note_on_c, 3, 73, 99
17, 124160, Note_on_c, 3, 64, 99
17, 124365, Note_on_c, 3, 73, 0
17, 124365, Note_on_c, 3, 64, 0
17, 124416, Note_on_c, 3, 74, 97
17, 124416, Note_on_c, 3, 66, 97
17, 124621, Note_on_c, 3, 74, 0
17, 124621, Note_on_c, 3, 66, 0
17, 124672, Note_on_c, 3, 76, 99
17, 124672, Note_on_c, 3, 67, 99
17, 124877, Note_on_c, 3, 76, 0
17, 124877, Note_on_c, 3, 67, 0
17, 124928, Note_on_c, 3, 78, 102
17, 124928, Note_on_c, 3, 69, 102
17, 125133, Note_on_c, 3, 78, 0
17, 125133, Note_on_c, 3, 69, 0
17, 125184, Note_on_c, 3, 74, 104
17, 125184, Note_on_c, 3, 66, 104
17, 125389, Note_on_c, 3, 74, 0
17, 125389, Note_on_c, 3, 66, 0
17, 125440, Note_on_c, 3, 76, 106
17, 125440, Note_on_c, 3, 67, 106
17, 125645, Note_on_c, 3, 76, 0
17, 125645, Note_on_c, 3, 67, 0
17, 125696, Note_on_c, 3, 73, 108
17, 125696, Note_on_c, 3, 64, 108
17, 125901, Note_on_c, 3, 73, 0
17, 125901, Note_on_c, 3, 64, 0
17, 125952, Note_on_c, 3, 74, 111
17, 125952, Note_on_c, 3, 66, 111
17, 126208, Note_on_c, 3, 74, 0
17, 126208, Note_on_c, 3, 66, 0
17, 126464, Note_on_c, 3, 69, 108
17, 126464, Note_on_c, 3, 62, 108
17, 126720, Note_on_c, 3, 69, 0
17, 126720, Note_on_c, 3, 62, 0
17, 126976, Note_on_c, 3, 66, 103
17, 126976, Note_on_c, 3, 69, 103
17, 127232, Note_on_c, 3, 66, 0
17, 127232, Note_on_c, 3, 69, 0
17, 128000, Note_on_c, 3, 76, 103
17, 128000, Note_on_c, 3, 69, 103
17, 128256, Note_on_c, 3, 76, 0
17, 128256, Note_on_c, 3, 69, 0
17, 128512, Note_on_c, 3, 69, 108
17, 128512, Note_on_c, 3, 74, 108
17, 128768, Note_on_c, 3, 69, 0
17, 128768, Note_on_c, 3, 74, 0
17, 129536, Note_on_c, 3, 73, 111
17, 129536, Note_on_c, 3, 76, 111
17, 129792, Note_on_c, 3, 73, 0
17, 129792, Note_on_c, 3, 76, 0
17, 130048, Note_on_c, 3, 69, 105
17, 130048, Note_on_c, 3, 73, 105
17, 130304, Note_on_c, 3, 69, 0
17, 130304, Note_on_c, 3, 73, 0
17, 130560, Note_on_c, 3, 81, 99
17, 130560, Note_on_c, 3, 69, 99
17, 130765, Note_on_c, 3, 69, 0
17, 130816, Note_on_c, 3, 81, 0
17, 130816, Note_on_c, 3, 74, 98
17, 131021, Note_on_c, 3, 74, 0
17, 131072, Note_on_c, 3, 81, 99
17, 131072, Note_on_c, 3, 78, 99
17, 131277, Note_on_c, 3, 78, 0
17, 131328, Note_on_c, 3, 81, 0
17, 131328, Note_on_c, 3, 74, 100
17, 131533, Note_on_c, 3, 74, 0
17, 131584, Note_on_c, 3, 81, 101
17, 131584, Note_on_c, 3, 76, 101
17, 131789, Note_on_c, 3, 76, 0
17, 131840, Note_on_c, 3, 81, 0
17, 131840, Note_on_c, 3, 73, 101
17, 132045, Note_on_c, 3, 73, 0
17, 132096, Note_on_c, 3, 86, 102
17, 132096, Note_on_c, 3, 81, 102
17, 132352, Note_on_c, 3, 86, 0
17, 132352, Note_on_c, 3, 81, 0
17, 132608, Note_on_c, 3, 81, 104
17, 132813, Note_on_c, 3, 81, 0
17, 132864, Note_on_c, 3, 78, 104
17, 133069, Note_on_c, 3, 78, 0
17, 133120, Note_on_c, 3, 79, 105
17, 133325, Note_on_c, 3, 79, 0
17, 133376, Note_on_c, 3, 76, 106
17, 133581, Note_on_c, 3, 76, 0
17, 133632, Note_on_c, 3, 78, 107
17, 133632, Note_on_c, 3, 69, 107
17, 133837, Note_on_c, 3, 69, 0
17, 133888, Note_on_c, 3, 78, 0
17, 133888, Note_on_c, 3, 71, 107
17, 134093, Note_on_c, 3, 71, 0
17, 134144, Note_on_c, 3, 78, 108
17, 134144, Note_on_c, 3, 72, 108
17, 134349, Note_on_c, 3, 72, 0
17, 134400, Note_on_c, 3, 78, 0
17, 134400, Note_on_c, 3, 71, 109
17, 134605, Note_on_c, 3, 71, 0
17, 134656, Note_on_c, 3, 78, 110
17, 134656, Note_on_c, 3, 72, 110
17, 134861, Note_on_c, 3, 72, 0
17, 134912, Note_on_c, 3, 78, 0
17, 134912, Note_on_c, 3, 69, 110
17, 135117, Note_on_c, 3, 69, 0
17, 135168, Note_on_c, 3, 84, 111
17, 135168, Note_on_c, 3, 66, 111
17, 135424, Note_on_c, 3, 84, 0
17, 135424, Note_on_c, 3, 66, 0
17, 135680, Note_on_c, 3, 83, 108
17, 135885, Note_on_c, 3, 83, 0
17, 135936, Note_on_c, 3, 79, 105
17, 136141, Note_on_c, 3, 79, 0
17, 136192, Note_on_c, 3, 81, 103
17, 136397, Note_on_c, 3, 81, 0
17, 136448, Note_on_c, 3, 78, 100
17, 136653, Note_on_c, 3, 78, 0
17, 136704, Note_on_c, 3, 79, 93
17, 136704, Note_on_c, 3, 71, 93
17, 136909, Note_on_c, 3, 71, 0
17, 136960, Note_on_c, 3, 79, 0
17, 136960, Note_on_c, 3, 69, 94
17, 137165, Note_on_c, 3, 69, 0
17, 137216, Note_on_c, 3, 76, 94
17, 137216, Note_on_c, 3, 67, 94
17, 137421, Note_on_c, 3, 67, 0
17, 137472, Note_on_c, 3, 76, 0
17, 137472, Note_on_c, 3, 71, 95
17, 137677, Note_on_c, 3, 71, 0
17, 137728, Note_on_c, 3, 76, 96
17, 137728, Note_on_c, 3, 69, 96
17, 137933, Note_on_c, 3, 69, 0
17, 137984, Note_on_c, 3, 76, 0
17, 137984, Note_on_c, 3, 72, 96
17, 138189, Note_on_c, 3, 72, 0
17, 138240, Note_on_c, 3, 88, 97
17, 138240, Note_on_c, 3, 71, 97
17, 138496, Note_on_c, 3, 88, 0
17, 138496, Note_on_c, 3, 71, 0
17, 138752, Note_on_c, 3, 86, 99
17, 138957, Note_on_c, 3, 86, 0
17, 139008, Note_on_c, 3, 85, 99
17, 139213, Note_on_c, 3, 85, 0
17, 139264, Note_on_c, 3, 86, 100
17, 139469, Note_on_c, 3, 86, 0
17, 139520, Note_on_c, 3, 83, 101
17, 139725, Note_on_c, 3, 83, 0
17, 139776, Note_on_c, 3, 85, 102
17, 139776, Note_on_c, 3, 69, 102
17, 139981, Note_on_c, 3, 69, 0
17, 140032, Note_on_c, 3, 85, 0
17, 140032, Note_on_c, 3, 71, 102
17, 140237, Note_on_c, 3, 71, 0
17, 140288, Note_on_c, 3, 69, 103
17, 140288, Note_on_c, 3, 73, 103
17, 140493, Note_on_c, 3, 73, 0
17, 140544, Note_on_c, 3, 69, 0
17, 140544, Note_on_c, 3, 76, 104
17, 140749, Note_on_c, 3, 76, 0
17, 140800, Note_on_c, 3, 69, 104
17, 140800, Note_on_c, 3, 74, 104
17, 141005, Note_on_c, 3, 74, 0
17, 141056, Note_on_c, 3, 69, 0
17, 141056, Note_on_c, 3, 78, 105
17, 141261, Note_on_c, 3, 78, 0
17, 141312, Note_on_c, 3, 81, 106
17, 141312, Note_on_c, 3, 76, 106
17, 141568, Note_on_c, 3, 81, 0
17, 141568, Note_on_c, 3, 76, 0
17, 141824, Note_on_c, 3, 79, 107
17, 142029, Note_on_c, 3, 79, 0
17, 142080, Note_on_c, 3, 78, 108
17, 142285, Note_on_c, 3, 78, 0
17, 142336, Note_on_c, 3, 79, 109
17, 142541, Note_on_c, 3, 79, 0
17, 142592, Note_on_c, 3, 76, 110
17, 142797, Note_on_c, 3, 76, 0
17, 142848, Note_on_c, 3, 78, 110
17, 143053, Note_on_c, 3, 78, 0
17, 143104, Note_on_c, 3, 76, 112
17, 143309, Note_on_c, 3, 76, 0
17, 143360, Note_on_c, 3, 78, 111
17, 143360, Note_on_c, 3, 62, 111
17, 143565, Note_on_c, 3, 78, 0
17, 143616, Note_on_c, 3, 79, 110
17, 143616, Note_on_c, 3, 62, 0
17, 143821, Note_on_c, 3, 79, 0
17, 143872, Note_on_c, 3, 81, 109
17, 143872, Note_on_c, 3, 66, 109
17, 144077, Note_on_c, 3, 81, 0
17, 144128, Note_on_c, 3, 78, 107
17, 144128, Note_on_c, 3, 66, 0
17, 144333, Note_on_c, 3, 78, 0
17, 144384, Note_on_c, 3, 74, 106
17, 144384, Note_on_c, 3, 71, 106
17, 144589, Note_on_c, 3, 74, 0
17, 144640, Note_on_c, 3, 73, 105
17, 144845, Note_on_c, 3, 73, 0
17, 144896, Note_on_c, 3, 74, 103
17, 145101, Note_on_c, 3, 74, 0
17, 145152, Note_on_c, 3, 76, 104
17, 145357, Note_on_c, 3, 76, 0
17, 145408, Note_on_c, 3, 78, 106
17, 145613, Note_on_c, 3, 78, 0
17, 145664, Note_on_c, 3, 74, 107
17, 145869, Note_on_c, 3, 74, 0
17, 145920, Note_on_c, 3, 71, 109
17, 146125, Note_on_c, 3, 71, 0
17, 146176, Note_on_c, 3, 71, 0
17, 146176, Note_on_c, 3, 69, 110
17, 146381, Note_on_c, 3, 69, 0
17, 146432, Note_on_c, 3, 83, 111
17, 146432, Note_on_c, 3, 71, 111
17, 146637, Note_on_c, 3, 71, 0
17, 146688, Note_on_c, 3, 83, 0
17, 146688, Note_on_c, 3, 73, 113
17, 146893, Note_on_c, 3, 73, 0
17, 146944, Note_on_c, 3, 81, 114
17, 146944, Note_on_c, 3, 75, 114
17, 147149, Note_on_c, 3, 75, 0
17, 147200, Note_on_c, 3, 81, 0
17, 147200, Note_on_c, 3, 71, 115
17, 147405, Note_on_c, 3, 71, 0
17, 147456, Note_on_c, 3, 79, 117
17, 147456, Note_on_c, 3, 76, 117
17, 147661, Note_on_c, 3, 79, 0
17, 147661, Note_on_c, 3, 76, 0
17, 147712, Note_on_c, 3, 78, 118
17, 147712, Note_on_c, 3, 75, 118
17, 147917, Note_on_c, 3, 78, 0
17, 147917, Note_on_c, 3, 75, 0
17, 147968, Note_on_c, 3, 76, 117
17, 147968, Note_on_c, 3, 76, 117
17, 148173, Note_on_c, 3, 76, 0
17, 148224, Note_on_c, 3, 78, 115
17, 148429, Note_on_c, 3, 78, 0
17, 148480, Note_on_c, 3, 79, 114
17, 148685, Note_on_c, 3, 79, 0
17, 148736, Note_on_c, 3, 76, 112
17, 148941, Note_on_c, 3, 76, 0
17, 148992, Note_on_c, 3, 81, 110
17, 149197, Note_on_c, 3, 76, 0
17, 149248, Note_on_c, 3, 74, 108
17, 149248, Note_on_c, 3, 81, 0
17, 149453, Note_on_c, 3, 74, 0
17, 149504, Note_on_c, 3, 76, 107
17, 149504, Note_on_c, 3, 69, 107
17, 149709, Note_on_c, 3, 76, 0
17, 149760, Note_on_c, 3, 78, 105
17, 149760, Note_on_c, 3, 69, 0
17, 149965, Note_on_c, 3, 78, 0
17, 150016, Note_on_c, 3, 79, 103
17, 150016, Note_on_c, 3, 71, 103
17, 150221, Note_on_c, 3, 79, 0
17, 150272, Note_on_c, 3, 76, 102
17, 150272, Note_on_c, 3, 71, 0
17, 150477, Note_on_c, 3, 76, 0
17, 150528, Note_on_c, 3, 73, 96
17, 150528, Note_on_c, 3, 73, 96
17, 150733, Note_on_c, 3, 73, 0
17, 150733, Note_on_c, 3, 73, 0
17, 150784, Note_on_c, 3, 71, 97
17, 150784, Note_on_c, 3, 74, 97
17, 150989, Note_on_c, 3, 71, 0
17, 150989, Note_on_c, 3, 74, 0
17, 151040, Note_on_c, 3, 73, 99
17, 151040, Note_on_c, 3, 76, 99
17, 151245, Note_on_c, 3, 73, 0
17, 151296, Note_on_c, 3, 74, 100
17, 151501, Note_on_c, 3, 74, 0
17, 151552, Note_on_c, 3, 76, 101
17, 151757, Note_on_c, 3, 76, 0
17, 151808, Note_on_c, 3, 73, 102
17, 152013, Note_on_c, 3, 73, 0
17, 152064, Note_on_c, 3, 69, 103
17, 152269, Note_on_c, 3, 76, 0
17, 152320, Note_on_c, 3, 69, 0
17, 152320, Note_on_c, 3, 73, 105
17, 152525, Note_on_c, 3, 73, 0
17, 152576, Note_on_c, 3, 81, 106
17, 152576, Note_on_c, 3, 69, 106
17, 152781, Note_on_c, 3, 69, 0
17, 152832, Note_on_c, 3, 81, 0
17, 152832, Note_on_c, 3, 71, 107
17, 153037, Note_on_c, 3, 71, 0
17, 153088, Note_on_c, 3, 79, 108
17, 153088, Note_on_c, 3, 73, 108
17, 153293, Note_on_c, 3, 73, 0
17, 153344, Note_on_c, 3, 79, 0
17, 153344, Note_on_c, 3, 69, 110
17, 153549, Note_on_c, 3, 69, 0
17, 153600, Note_on_c, 3, 78, 111
17, 153600, Note_on_c, 3, 74, 111
17, 153805, Note_on_c, 3, 78, 0
17, 153856, Note_on_c, 3, 76, 107
17, 153856, Note_on_c, 3, 74, 0
17, 154061, Note_on_c, 3, 76, 0
17, 154112, Note_on_c, 3, 74, 103
17, 154112, Note_on_c, 3, 69, 103
17, 154317, Note_on_c, 3, 69, 0
17, 154368, Note_on_c, 3, 74, 0
17, 154368, Note_on_c, 3, 67, 99
17, 154573, Note_on_c, 3, 67, 0
17, 154624, Note_on_c, 3, 72, 94
17, 154624, Note_on_c, 3, 69, 94
17, 154829, Note_on_c, 3, 69, 0
17, 154880, Note_on_c, 3, 66, 95
17, 155085, Note_on_c, 3, 66, 0
17, 155136, Note_on_c, 3, 62, 96
17, 155341, Note_on_c, 3, 72, 0
17, 155392, Note_on_c, 3, 71, 98
17, 155392, Note_on_c, 3, 62, 0
17, 155597, Note_on_c, 3, 71, 0
17, 155648, Note_on_c, 3, 76, 99
17, 155648, Note_on_c, 3, 71, 99
17, 155853, Note_on_c, 3, 76, 0
17, 155904, Note_on_c, 3, 73, 101
17, 155904, Note_on_c, 3, 71, 0
17, 156109, Note_on_c, 3, 73, 0
17, 156160, Note_on_c, 3, 74, 102
17, 156160, Note_on_c, 3, 67, 102
17, 156365, Note_on_c, 3, 74, 0
17, 156416, Note_on_c, 3, 71, 103
17, 156416, Note_on_c, 3, 67, 0
17, 156621, Note_on_c, 3, 71, 0
17, 156672, Note_on_c, 3, 73, 105
17, 156672, Note_on_c, 3, 64, 105
17, 156877, Note_on_c, 3, 73, 0
17, 156928, Note_on_c, 3, 69, 106
17, 156928, Note_on_c, 3, 64, 0
17, 157133, Note_on_c, 3, 69, 0
17, 157184, Note_on_c, 3, 78, 107
17, 157184, Note_on_c, 3, 73, 107
17, 157389, Note_on_c, 3, 78, 0
17, 157440, Note_on_c, 3, 74, 109
17, 157440, Note_on_c, 3, 73, 0
17, 157645, Note_on_c, 3, 74, 0
17, 157696, Note_on_c, 3, 76, 110
17, 157696, Note_on_c, 3, 69, 110
17, 157901, Note_on_c, 3, 76, 0
17, 157952, Note_on_c, 3, 73, 111
17, 157952, Note_on_c, 3, 69, 0
17, 158157, Note_on_c, 3, 73, 0
17, 158208, Note_on_c, 3, 74, 113
17, 158208, Note_on_c, 3, 66, 113
17, 158464, Note_on_c, 3, 74, 0
17, 158464, Note_on_c, 3, 66, 0
17, 158720, Note_on_c, 3, 76, 116
17, 158720, Note_on_c, 3, 71, 116
17, 158976, Note_on_c, 3, 76, 0
17, 158976, Note_on_c, 3, 71, 0
17, 159232, Note_on_c, 3, 73, 118
17, 159232, Note_on_c, 3, 64, 118
17, 159488, Note_on_c, 3, 73, 0
17, 159488, Note_on_c, 3, 64, 0
17, 159744, Note_on_c, 3, 74, 121
17, 159744, Note_on_c, 3, 66, 121
17, 160768, Note_on_c, 3, 74, 0
17, 160768, Note_on_c, 3, 66, 0
17, 166912, Note_on_c, 3, 74, 100
17, 166912, Note_on_c, 3, 69, 100
17, 167168, Note_on_c, 3, 74, 0
17, 167168, Note_on_c, 3, 69, 0
17, 167424, Note_on_c, 3, 73, 102
17, 167424, Note_on_c, 3, 69, 102
17, 167680, Note_on_c, 3, 73, 0
17, 167680, Note_on_c, 3, 69, 0
17, 167936, Note_on_c, 3, 76, 104
17, 167936, Note_on_c, 3, 67, 104
17, 168141, Note_on_c, 3, 76, 0
17, 168141, Note_on_c, 3, 67, 0
17, 168192, Note_on_c, 3, 74, 104
17, 168192, Note_on_c, 3, 66, 104
17, 168397, Note_on_c, 3, 74, 0
17, 168397, Note_on_c, 3, 66, 0
17, 168448, Note_on_c, 3, 76, 105
17, 168448, Note_on_c, 3, 67, 105
17, 168653, Note_on_c, 3, 76, 0
17, 168653, Note_on_c, 3, 67, 0
17, 168704, Note_on_c, 3, 73, 106
17, 168704, Note_on_c, 3, 64, 106
17, 168909, Note_on_c, 3, 73, 0
17, 168909, Note_on_c, 3, 64, 0
17, 168960, Note_on_c, 3, 74, 107
17, 168960, Note_on_c, 3, 66, 107
17, 169216, Note_on_c, 3, 74, 0
17, 169216, Note_on_c, 3, 66, 0
17, 169472, Note_on_c, 3, 73, 109
17, 169472, Note_on_c, 3, 76, 109
17, 169677, Note_on_c, 3, 73, 0
17, 169728, Note_on_c, 3, 74, 110
17, 169728, Note_on_c, 3, 76, 0
17, 169933, Note_on_c, 3, 74, 0
17, 169984, Note_on_c, 3, 76, 111
17, 169984, Note_on_c, 3, 73, 111
17, 170189, Note_on_c, 3, 76, 0
17, 170240, Note_on_c, 3, 73, 112
17, 170240, Note_on_c, 3, 73, 0
17, 170445, Note_on_c, 3, 73, 0
17, 170496, Note_on_c, 3, 74, 113
17, 170496, Note_on_c, 3, 69, 113
17, 170752, Note_on_c, 3, 74, 0
17, 170752, Note_on_c, 3, 69, 0
17, 171008, Note_on_c, 3, 73, 114
17, 171008, Note_on_c, 3, 67, 114
17, 171213, Note_on_c, 3, 73, 0
17, 171264, Note_on_c, 3, 71, 115
17, 171264, Note_on_c, 3, 67, 0
17, 171469, Note_on_c, 3, 71, 0
17, 171520, Note_on_c, 3, 69, 116
17, 171520, Note_on_c, 3, 64, 116
17, 171725, Note_on_c, 3, 69, 0
17, 171776, Note_on_c, 3, 67, 117
17, 171776, Note_on_c, 3, 64, 0
17, 171981, Note_on_c, 3, 67, 0
17, 172032, Note_on_c, 3, 66, 118
17, 172032, Note_on_c, 3, 62, 118
17, 172288, Note_on_c, 3, 66, 0
17, 172288, Note_on_c, 3, 62, 0
17, 172544, Note_on_c, 3, 62, 84
17, 172544, Note_on_c, 3, 62, 84
17, 172800, Note_on_c, 3, 62, 0
17, 172800, Note_on_c, 3, 62, 0
17, 176128, Note_on_c, 3, 76, 101
17, 176128, Note_on_c, 3, 69, 101
17, 176384, Note_on_c, 3, 76, 0
17, 176384, Note_on_c, 3, 69, 0
17, 176640, Note_on_c, 3, 78, 109
17, 176640, Note_on_c, 3, 69, 109
17, 176896, Note_on_c, 3, 78, 0
17, 176896, Note_on_c, 3, 69, 0
17, 177152, Note_on_c, 3, 79, 113
17, 177152, Note_on_c, 3, 74, 113
17, 177357, Note_on_c, 3, 79, 0
17, 177408, Note_on_c, 3, 78, 115
17, 177408, Note_on_c, 3, 74, 0
17, 177613, Note_on_c, 3, 78, 0
17, 177664, Note_on_c, 3, 76, 117
17, 177664, Note_on_c, 3, 73, 117
17, 177869, Note_on_c, 3, 76, 0
17, 177920, Note_on_c, 3, 78, 119
17, 177920, Note_on_c, 3, 73, 0
17, 178125, Note_on_c, 3, 78, 0
17, 178176, Note_on_c, 3, 74, 121
17, 178176, Note_on_c, 3, 74, 121
17, 179115, Note_on_c, 3, 74, 0
17, 179115, Note_on_c, 3, 74, 0
17, 179200, Note_on_c, 3, 62, 96
17, 179200, Note_on_c, 3, 62, 96
17, 179456, Note_on_c, 3, 62, 0
17, 179456, Note_on_c, 3, 62, 0
17, 179712, Note_on_c, 3, 69, 103
17, 179712, Note_on_c, 3, 69, 103
17, 179968, Note_on_c, 3, 69, 0
17, 179968, Note_on_c, 3, 69, 0
17, 180224, Note_on_c, 3, 69, 94
17, 180224, Note_on_c, 3, 69, 94
17, 180480, Note_on_c, 3, 69, 0
17, 180480, Note_on_c, 3, 69, 0
17, 180736, Note_on_c, 3, 69, 99
17, 180736, Note_on_c, 3, 69, 99
17, 180992, Note_on_c, 3, 69, 0
17, 180992, Note_on_c, 3, 69, 0
17, 181248, Note_on_c, 3, 74, 103
17, 181248, Note_on_c, 3, 74, 103
17, 181504, Note_on_c, 3, 74, 0
17, 181504, Note_on_c, 3, 74, 0
17, 181760, Note_on_c, 3, 69, 93
17, 181760, Note_on_c, 3, 69, 93
17, 181965, Note_on_c, 3, 69, 0
17, 181965, Note_on_c, 3, 69, 0
17, 182016, Note_on_c, 3, 66, 93
17, 182016, Note_on_c, 3, 66, 93
17, 182221, Note_on_c, 3, 66, 0
17, 182221, Note_on_c, 3, 66, 0
17, 182272, Note_on_c, 3, 67, 94
17, 182272, Note_on_c, 3, 67, 94
17, 182477, Note_on_c, 3, 67, 0
17, 182477, Note_on_c, 3, 67, 0
17, 182528, Note_on_c, 3, 64, 94
17, 182528, Note_on_c, 3, 64, 94
17, 182733, Note_on_c, 3, 64, 0
17, 182733, Note_on_c, 3, 64, 0
17, 182784, Note_on_c, 3, 66, 107
17, 182784, Note_on_c, 3, 66, 107
17, 183040, Note_on_c, 3, 66, 0
17, 183040, Note_on_c, 3, 66, 0
17, 183296, Note_on_c, 3, 66, 93
17, 183296, Note_on_c, 3, 66, 93
17, 183552, Note_on_c, 3, 66, 0
17, 183552, Note_on_c, 3, 66, 0
17, 183808, Note_on_c, 3, 66, 98
17, 183808, Note_on_c, 3, 66, 98
17, 184064, Note_on_c, 3, 66, 0
17, 184064, Note_on_c, 3, 66, 0
17, 184320, Note_on_c, 3, 69, 104
17, 184320, Note_on_c, 3, 69, 104
17, 184576, Note_on_c, 3, 69, 0
17, 184576, Note_on_c, 3, 69, 0
17, 184832, Note_on_c, 3, 66, 95
17, 184832, Note_on_c, 3, 66, 95
17, 185037, Note_on_c, 3, 66, 0
17, 185037, Note_on_c, 3, 66, 0
17, 185088, Note_on_c, 3, 62, 95
17, 185088, Note_on_c, 3, 62, 95
17, 185293, Note_on_c, 3, 62, 0
17, 185293, Note_on_c, 3, 62, 0
17, 185344, Note_on_c, 3, 64, 96
17, 185344, Note_on_c, 3, 64, 96
17, 185549, Note_on_c, 3, 64, 0
17, 185549, Note_on_c, 3, 64, 0
17, 185600, Note_on_c, 3, 61, 96
17, 185600, Note_on_c, 3, 61, 96
17, 185805, Note_on_c, 3, 61, 0
17, 185805, Note_on_c, 3, 61, 0
17, 185856, Note_on_c, 3, 62, 96
17, 185856, Note_on_c, 3, 62, 96
17, 186112, Note_on_c, 3, 62, 0
17, 186112, Note_on_c, 3, 62, 0
17, 186368, Note_on_c, 3, 62, 97
17, 186368, Note_on_c, 3, 62, 97
17, 186624, Note_on_c, 3, 62, 0
17, 186624, Note_on_c, 3, 62, 0
17, 186880, Note_on_c, 3, 62, 98
17, 186880, Note_on_c, 3, 62, 98
17, 187136, Note_on_c, 3, 62, 0
17, 187136, Note_on_c, 3, 62, 0
17, 187392, Note_on_c, 3, 62, 99
17, 187392, Note_on_c, 3, 62, 99
17, 187597, Note_on_c, 3, 62, 0
17, 187597, Note_on_c, 3, 62, 0
17, 187648, Note_on_c, 3, 66, 99
17, 187648, Note_on_c, 3, 66, 99
17, 187853, Note_on_c, 3, 66, 0
17, 187853, Note_on_c, 3, 66, 0
17, 187904, Note_on_c, 3, 64, 99
17, 187904, Note_on_c, 3, 64, 99
17, 188109, Note_on_c, 3, 64, 0
17, 188109, Note_on_c, 3, 64, 0
17, 188160, Note_on_c, 3, 61, 100
17, 188160, Note_on_c, 3, 61, 100
17, 188365, Note_on_c, 3, 61, 0
17, 188365, Note_on_c, 3, 61, 0
17, 188416, Note_on_c, 3, 62, 100
17, 188416, Note_on_c, 3, 62, 100
17, 188621, Note_on_c, 3, 62, 0
17, 188621, Note_on_c, 3, 62, 0
17, 188672, Note_on_c, 3, 64, 101
17, 188672, Note_on_c, 3, 64, 101
17, 188877, Note_on_c, 3, 64, 0
17, 188877, Note_on_c, 3, 64, 0
17, 188928, Note_on_c, 3, 66, 101
17, 188928, Note_on_c, 3, 66, 101
17, 189133, Note_on_c, 3, 66, 0
17, 189133, Note_on_c, 3, 66, 0
17, 189184, Note_on_c, 3, 69, 101
17, 189184, Note_on_c, 3, 69, 101
17, 189389, Note_on_c, 3, 69, 0
17, 189389, Note_on_c, 3, 69, 0
17, 189440, Note_on_c, 3, 67, 102
17, 189440, Note_on_c, 3, 67, 102
17, 189645, Note_on_c, 3, 67, 0
17, 189645, Note_on_c, 3, 67, 0
17, 189696, Note_on_c, 3, 64, 102
17, 189696, Note_on_c, 3, 64, 102
17, 189901, Note_on_c, 3, 64, 0
17, 189901, Note_on_c, 3, 64, 0
17, 189952, Note_on_c, 3, 66, 103
17, 189952, Note_on_c, 3, 66, 103
17, 190157, Note_on_c, 3, 66, 0
17, 190157, Note_on_c, 3, 66, 0
17, 190208, Note_on_c, 3, 62, 103
17, 190208, Note_on_c, 3, 62, 103
17, 190413, Note_on_c, 3, 62, 0
17, 190413, Note_on_c, 3, 62, 0
17, 190464, Note_on_c, 3, 69, 103
17, 190464, Note_on_c, 3, 69, 103
17, 197632, Note_on_c, 3, 69, 0
17, 197632, Note_on_c, 3, 74, 105
17, 197632, Note_on_c, 3, 69, 0
17, 197632, Note_on_c, 3, 69, 105
17, 197888, Note_on_c, 3, 74, 0
17, 197888, Note_on_c, 3, 69, 0
17, 198144, Note_on_c, 3, 81, 108
17, 198144, Note_on_c, 3, 74, 108
17, 198349, Note_on_c, 3, 74, 0
17, 198400, Note_on_c, 3, 81, 0
17, 198400, Note_on_c, 3, 76, 108
17, 198605, Note_on_c, 3, 76, 0
17, 198656, Note_on_c, 3, 81, 108
17, 198656, Note_on_c, 3, 78, 108
17, 198861, Note_on_c, 3, 78, 0
17, 198912, Note_on_c, 3, 81, 0
17, 198912, Note_on_c, 3, 74, 109
17, 199117, Note_on_c, 3, 74, 0
17, 199168, Note_on_c, 3, 81, 109
17, 199168, Note_on_c, 3, 76, 109
17, 199373, Note_on_c, 3, 76, 0
17, 199424, Note_on_c, 3, 81, 0
17, 199424, Note_on_c, 3, 73, 110
17, 199629, Note_on_c, 3, 73, 0
17, 199680, Note_on_c, 3, 86, 110
17, 199680, Note_on_c, 3, 81, 110
17, 199936, Note_on_c, 3, 86, 0
17, 199936, Note_on_c, 3, 81, 0
17, 200192, Note_on_c, 3, 81, 111
17, 200397, Note_on_c, 3, 81, 0
17, 200448, Note_on_c, 3, 78, 111
17, 200653, Note_on_c, 3, 78, 0
17, 200704, Note_on_c, 3, 79, 112
17, 200909, Note_on_c, 3, 79, 0
17, 200960, Note_on_c, 3, 76, 112
17, 201165, Note_on_c, 3, 76, 0
17, 201216, Note_on_c, 3, 78, 112
17, 201216, Note_on_c, 3, 69, 112
17, 201421, Note_on_c, 3, 69, 0
17, 201472, Note_on_c, 3, 78, 0
17, 201472, Note_on_c, 3, 71, 113
17, 201677, Note_on_c, 3, 71, 0
17, 201728, Note_on_c, 3, 78, 113
17, 201728, Note_on_c, 3, 72, 113
17, 201933, Note_on_c, 3, 72, 0
17, 201984, Note_on_c, 3, 78, 0
17, 201984, Note_on_c, 3, 71, 114
17, 202189, Note_on_c, 3, 71, 0
17, 202240, Note_on_c, 3, 78, 114
17, 202240, Note_on_c, 3, 72, 114
17, 202445, Note_on_c, 3, 72, 0
17, 202496, Note_on_c, 3, 78, 0
17, 202496, Note_on_c, 3, 69, 114
17, 202701, Note_on_c, 3, 69, 0
17, 202752, Note_on_c, 3, 84, 115
17, 202752, Note_on_c, 3, 66, 115
17, 203008, Note_on_c, 3, 84, 0
17, 203008, Note_on_c, 3, 66, 0
17, 203264, Note_on_c, 3, 83, 116
17, 203469, Note_on_c, 3, 83, 0
17, 203520, Note_on_c, 3, 79, 116
17, 203725, Note_on_c, 3, 79, 0
17, 203776, Note_on_c, 3, 81, 117
17, 203981, Note_on_c, 3, 81, 0
17, 204032, Note_on_c, 3, 78, 117
17, 204237, Note_on_c, 3, 78, 0
17, 204288, Note_on_c, 3, 79, 117
17, 204288, Note_on_c, 3, 71, 117
17, 204493, Note_on_c, 3, 71, 0
17, 204544, Note_on_c, 3, 79, 0
17, 204544, Note_on_c, 3, 69, 118
17, 204749, Note_on_c, 3, 69, 0
17, 204800, Note_on_c, 3, 76, 117
17, 204800, Note_on_c, 3, 67, 117
17, 205005, Note_on_c, 3, 67, 0
17, 205056, Note_on_c, 3, 76, 0
17, 205056, Note_on_c, 3, 71, 116
17, 205261, Note_on_c, 3, 71, 0
17, 205312, Note_on_c, 3, 76, 115
17, 205312, Note_on_c, 3, 69, 115
17, 205517, Note_on_c, 3, 69, 0
17, 205568, Note_on_c, 3, 76, 0
17, 205568, Note_on_c, 3, 72, 114
17, 205773, Note_on_c, 3, 72, 0
17, 205824, Note_on_c, 3, 88, 113
17, 205824, Note_on_c, 3, 71, 113
17, 206080, Note_on_c, 3, 88, 0
17, 206080, Note_on_c, 3, 71, 0
17, 206336, Note_on_c, 3, 86, 111
17, 206541, Note_on_c, 3, 86, 0
17, 206592, Note_on_c, 3, 85, 110
17, 206797, Note_on_c, 3, 85, 0
17, 206848, Note_on_c, 3, 86, 109
17, 207053, Note_on_c, 3, 86, 0
17, 207104, Note_on_c, 3, 83, 108
17, 207309, Note_on_c, 3, 83, 0
17, 207360, Note_on_c, 3, 85, 107
17, 207360, Note_on_c, 3, 69, 107
17, 207565, Note_on_c, 3, 69, 0
17, 207616, Note_on_c, 3, 85, 0
17, 207616, Note_on_c, 3, 71, 106
17, 207821, Note_on_c, 3, 71, 0
17, 207872, Note_on_c, 3, 69, 105
17, 207872, Note_on_c, 3, 73, 105
17, 208077, Note_on_c, 3, 73, 0
17, 208128, Note_on_c, 3, 69, 0
17, 208128, Note_on_c, 3, 76, 104
17, 208333, Note_on_c, 3, 76, 0
17, 208384, Note_on_c, 3, 69, 103
17, 208384, Note_on_c, 3, 74, 103
17, 208589, Note_on_c, 3, 74, 0
17, 208640, Note_on_c, 3, 69, 0
17, 208640, Note_on_c, 3, 78, 103
17, 208845, Note_on_c, 3, 78, 0
17, 208896, Note_on_c, 3, 81, 102
17, 208896, Note_on_c, 3, 76, 102
17, 209152, Note_on_c, 3, 81, 0
17, 209152, Note_on_c, 3, 76, 0
17, 209408, Note_on_c, 3, 79, 100
17, 209613, Note_on_c, 3, 79, 0
17, 209664, Note_on_c, 3, 78, 99
17, 209869, Note_on_c, 3, 78, 0
17, 209920, Note_on_c, 3, 79, 98
17, 210125, Note_on_c, 3, 79, 0
17, 210176, Note_on_c, 3, 76, 97
17, 210381, Note_on_c, 3, 76, 0
17, 210432, Note_on_c, 3, 78, 96
17, 210637, Note_on_c, 3, 78, 0
17, 210688, Note_on_c, 3, 76, 96
17, 210893, Note_on_c, 3, 76, 0
17, 210944, Note_on_c, 3, 78, 96
17, 210944, Note_on_c, 3, 62, 96
17, 211149, Note_on_c, 3, 78, 0
17, 211200, Note_on_c, 3, 79, 96
17, 211200, Note_on_c, 3, 62, 0
17, 211405, Note_on_c, 3, 79, 0
17, 211456, Note_on_c, 3, 81, 96
17, 211456, Note_on_c, 3, 66, 96
17, 211661, Note_on_c, 3, 81, 0
17, 211712, Note_on_c, 3, 78, 96
17, 211712, Note_on_c, 3, 66, 0
17, 211917, Note_on_c, 3, 78, 0
17, 211968, Note_on_c, 3, 74, 96
17, 211968, Note_on_c, 3, 71, 96
17, 212173, Note_on_c, 3, 74, 0
17, 212224, Note_on_c, 3, 73, 96
17, 212429, Note_on_c, 3, 73, 0
17, 212480, Note_on_c, 3, 74, 96
17, 212685, Note_on_c, 3, 74, 0
17, 212736, Note_on_c, 3, 76, 96
17, 212941, Note_on_c, 3, 76, 0
17, 212992, Note_on_c, 3, 78, 96
17, 213197, Note_on_c, 3, 78, 0
17, 213248, Note_on_c, 3, 74, 96
17, 213453, Note_on_c, 3, 74, 0
17, 213504, Note_on_c, 3, 71, 96
17, 213709, Note_on_c, 3, 71, 0
17, 213760, Note_on_c, 3, 71, 0
17, 213760, Note_on_c, 3, 69, 96
17, 213965, Note_on_c, 3, 69, 0
17, 214016, Note_on_c, 3, 83, 96
17, 214016, Note_on_c, 3, 71, 96
17, 214221, Note_on_c, 3, 71, 0
17, 214272, Note_on_c, 3, 83, 0
17, 214272, Note_on_c, 3, 73, 96
17, 214477, Note_on_c, 3, 73, 0
17, 214528, Note_on_c, 3, 81, 96
17, 214528, Note_on_c, 3, 75, 96
17, 214733, Note_on_c, 3, 75, 0
17, 214784, Note_on_c, 3, 81, 0
17, 214784, Note_on_c, 3, 71, 96
17, 214989, Note_on_c, 3, 71, 0
17, 215040, Note_on_c, 3, 79, 96
17, 215040, Note_on_c, 3, 76, 96
17, 215245, Note_on_c, 3, 79, 0
17, 215245, Note_on_c, 3, 76, 0
17, 215296, Note_on_c, 3, 78, 96
17, 215296, Note_on_c, 3, 75, 96
17, 215501, Note_on_c, 3, 78, 0
17, 215501, Note_on_c, 3, 75, 0
17, 215552, Note_on_c, 3, 76, 96
17, 215552, Note_on_c, 3, 76, 96
17, 215757, Note_on_c, 3, 76, 0
17, 215808, Note_on_c, 3, 78, 96
17, 216013, Note_on_c, 3, 78, 0
17, 216064, Note_on_c, 3, 79, 96
17, 216269, Note_on_c, 3, 79, 0
17, 216320, Note_on_c, 3, 76, 96
17, 216525, Note_on_c, 3, 76, 0
17, 216576, Note_on_c, 3, 81, 96
17, 216781, Note_on_c, 3, 76, 0
17, 216832, Note_on_c, 3, 74, 96
17, 216832, Note_on_c, 3, 81, 0
17, 217037, Note_on_c, 3, 74, 0
17, 217088, Note_on_c, 3, 76, 96
17, 217088, Note_on_c, 3, 69, 96
17, 217293, Note_on_c, 3, 76, 0
17, 217344, Note_on_c, 3, 78, 96
17, 217344, Note_on_c, 3, 69, 0
17, 217549, Note_on_c, 3, 78, 0
17, 217600, Note_on_c, 3, 79, 96
17, 217600, Note_on_c, 3, 71, 96
17, 217805, Note_on_c, 3, 79, 0
17, 217856, Note_on_c, 3, 76, 96
17, 217856, Note_on_c, 3, 71, 0
17, 218061, Note_on_c, 3, 76, 0
17, 218112, Note_on_c, 3, 73, 96
17, 218112, Note_on_c, 3, 73, 96
17, 218317, Note_on_c, 3, 73, 0
17, 218317, Note_on_c, 3, 73, 0
17, 218368, Note_on_c, 3, 71, 96
17, 218368, Note_on_c, 3, 74, 96
17, 218573, Note_on_c, 3, 71, 0
17, 218573, Note_on_c, 3, 74, 0
17, 218624, Note_on_c, 3, 73, 96
17, 218624, Note_on_c, 3, 76, 96
17, 218829, Note_on_c, 3, 73, 0
17, 218880, Note_on_c, 3, 74, 96
17, 219085, Note_on_c, 3, 74, 0
17, 219136, Note_on_c, 3, 76, 96
17, 219341, Note_on_c, 3, 76, 0
17, 219392, Note_on_c, 3, 73, 96
17, 219597, Note_on_c, 3, 73, 0
17, 219648, Note_on_c, 3, 69, 96
17, 219853, Note_on_c, 3, 76, 0
17, 219904, Note_on_c, 3, 69, 0
17, 219904, Note_on_c, 3, 73, 96
17, 220109, Note_on_c, 3, 73, 0
17, 220160, Note_on_c, 3, 81, 96
17, 220160, Note_on_c, 3, 69, 96
17, 220365, Note_on_c, 3, 69, 0
17, 220416, Note_on_c, 3, 81, 0
17, 220416, Note_on_c, 3, 71, 96
17, 220621, Note_on_c, 3, 71, 0
17, 220672, Note_on_c, 3, 79, 96
17, 220672, Note_on_c, 3, 73, 96
17, 220877, Note_on_c, 3, 73, 0
17, 220928, Note_on_c, 3, 79, 0
17, 220928, Note_on_c, 3, 69, 96
17, 221133, Note_on_c, 3, 69, 0
17, 221184, Note_on_c, 3, 78, 97
17, 221184, Note_on_c, 3, 74, 97
17, 221389, Note_on_c, 3, 78, 0
17, 221440, Note_on_c, 3, 76, 91
17, 221440, Note_on_c, 3, 74, 0
17, 221645, Note_on_c, 3, 76, 0
17, 221696, Note_on_c, 3, 74, 85
17, 221696, Note_on_c, 3, 69, 85
17, 221901, Note_on_c, 3, 69, 0
17, 221952, Note_on_c, 3, 74, 0
17, 221952, Note_on_c, 3, 67, 79
17, 222157, Note_on_c, 3, 67, 0
17, 222208, Note_on_c, 3, 72, 80
17, 222208, Note_on_c, 3, 69, 80
17, 222413, Note_on_c, 3, 69, 0
17, 222464, Note_on_c, 3, 66, 83
17, 222669, Note_on_c, 3, 66, 0
17, 222720, Note_on_c, 3, 62, 86
17, 222925, Note_on_c, 3, 72, 0
17, 222976, Note_on_c, 3, 71, 88
17, 222976, Note_on_c, 3, 62, 0
17, 223181, Note_on_c, 3, 71, 0
17, 223232, Note_on_c, 3, 76, 91
17, 223232, Note_on_c, 3, 71, 91
17, 223437, Note_on_c, 3, 76, 0
17, 223488, Note_on_c, 3, 73, 94
17, 223488, Note_on_c, 3, 71, 0
17, 223693, Note_on_c, 3, 73, 0
17, 223744, Note_on_c, 3, 74, 96
17, 223744, Note_on_c, 3, 67, 96
17, 223949, Note_on_c, 3, 74, 0
17, 224000, Note_on_c, 3, 71, 99
17, 224000, Note_on_c, 3, 67, 0
17, 224205, Note_on_c, 3, 71, 0
17, 224256, Note_on_c, 3, 73, 102
17, 224256, Note_on_c, 3, 64, 102
17, 224461, Note_on_c, 3, 73, 0
17, 224512, Note_on_c, 3, 69, 104
17, 224512, Note_on_c, 3, 64, 0
17, 224717, Note_on_c, 3, 69, 0
17, 224768, Note_on_c, 3, 78, 107
17, 224768, Note_on_c, 3, 73, 107
17, 224973, Note_on_c, 3, 78, 0
17, 225024, Note_on_c, 3, 74, 110
17, 225024, Note_on_c, 3, 73, 0
17, 225229, Note_on_c, 3, 74, 0
17, 225280, Note_on_c, 3, 76, 112
17, 225280, Note_on_c, 3, 69, 112
17, 225485, Note_on_c, 3, 76, 0
17, 225536, Note_on_c, 3, 73, 115
17, 225536, Note_on_c, 3, 69, 0
17, 225741, Note_on_c, 3, 73, 0
17, 225792, Note_on_c, 3, 74, 118
17, 225792, Note_on_c, 3, 66, 118
17, 226048, Note_on_c, 3, 74, 0
17, 226048, Note_on_c, 3, 66, 0
17, 226304, Note_on_c, 3, 76, 120
17, 226304, Note_on_c, 3, 71, 120
17, 226560, Note_on_c, 3, 76, 0
17, 226560, Note_on_c, 3, 71, 0
17, 226816, Note_on_c, 3, 73, 121
17, 226816, Note_on_c, 3, 64, 121
17, 227072, Note_on_c, 3, 73, 0
17, 227072, Note_on_c, 3, 64, 0
17, 227328, Note_on_c, 3, 74, 122
17, 227328, Note_on_c, 3, 66, 122
17, 228864, Note_on_c, 3, 74, 0
17, 228864, Note_on_c, 3, 66, 0
17, 230400, Control_c, 3, 121, 127
17, 230400, End_track
18, 0, Start_track
18, 0, Title_t, "Tenor II"
18, 0, Program_c, 12, 52
18, 1024, Note_on_c, 12, 50, 88
18, 1280, Note_on_c, 12, 50, 0
18, 1536, Note_on_c, 12, 57, 88
18, 1792, Note_on_c, 12, 57, 0
18, 2048, Note_on_c, 12, 57, 88
18, 2304, Note_on_c, 12, 57, 0
18, 2560, Note_on_c, 12, 57, 88
18, 2816, Note_on_c, 12, 57, 0
18, 3072, Note_on_c, 12, 62, 88
18, 3328, Note_on_c, 12, 62, 0
18, 3584, Note_on_c, 12, 57, 88
18, 3840, Note_on_c, 12, 57, 0
18, 10240, Note_on_c, 12, 54, 86
18, 10496, Note_on_c, 12, 54, 0
18, 10752, Note_on_c, 12, 61, 86
18, 11008, Note_on_c, 12, 61, 0
18, 11264, Note_on_c, 12, 57, 89
18, 11520, Note_on_c, 12, 57, 0
18, 11776, Note_on_c, 12, 64, 91
18, 12032, Note_on_c, 12, 64, 0
18, 12288, Note_on_c, 12, 62, 93
18, 12544, Note_on_c, 12, 62, 0
18, 12800, Note_on_c, 12, 64, 96
18, 13056, Note_on_c, 12, 64, 0
18, 13312, Note_on_c, 12, 69, 98
18, 13568, Note_on_c, 12, 69, 0
18, 13824, Note_on_c, 12, 62, 100
18, 14080, Note_on_c, 12, 62, 0
18, 14336, Note_on_c, 12, 62, 103
18, 14592, Note_on_c, 12, 62, 0
18, 14848, Note_on_c, 12, 61, 105
18, 15104, Note_on_c, 12, 61, 0
18, 15360, Note_on_c, 12, 57, 107
18, 15616, Note_on_c, 12, 57, 0
18, 15872, Note_on_c, 12, 54, 93
18, 16128, Note_on_c, 12, 54, 0
18, 17920, Note_on_c, 12, 64, 46
18, 18176, Note_on_c, 12, 64, 0
18, 18432, Note_on_c, 12, 64, 46
18, 18688, Note_on_c, 12, 64, 0
18, 18944, Note_on_c, 12, 61, 46
18, 19200, Note_on_c, 12, 61, 0
18, 19456, Note_on_c, 12, 64, 90
18, 19712, Note_on_c, 12, 64, 0
18, 19968, Note_on_c, 12, 62, 91
18, 20224, Note_on_c, 12, 62, 0
18, 20480, Note_on_c, 12, 55, 93
18, 20736, Note_on_c, 12, 55, 0
18, 20992, Note_on_c, 12, 62, 94
18, 21248, Note_on_c, 12, 62, 0
18, 21504, Note_on_c, 12, 64, 95
18, 21760, Note_on_c, 12, 64, 0
18, 22016, Note_on_c, 12, 64, 89
18, 22272, Note_on_c, 12, 64, 0
18, 40960, Note_on_c, 12, 50, 101
18, 41216, Note_on_c, 12, 50, 0
18, 41472, Note_on_c, 12, 57, 103
18, 41728, Note_on_c, 12, 57, 0
18, 41984, Note_on_c, 12, 57, 104
18, 42240, Note_on_c, 12, 57, 0
18, 42496, Note_on_c, 12, 57, 105
18, 42752, Note_on_c, 12, 57, 0
18, 43008, Note_on_c, 12, 62, 106
18, 43264, Note_on_c, 12, 62, 0
18, 43520, Note_on_c, 12, 57, 86
18, 43776, Note_on_c, 12, 57, 0
18, 47104, Note_on_c, 12, 59, 94
18, 47360, Note_on_c, 12, 59, 0
18, 47616, Note_on_c, 12, 66, 106
18, 47872, Note_on_c, 12, 66, 0
18, 48128, Note_on_c, 12, 54, 106
18, 48384, Note_on_c, 12, 54, 0
18, 48640, Note_on_c, 12, 54, 105
18, 48896, Note_on_c, 12, 54, 0
18, 49152, Note_on_c, 12, 59, 105
18, 49408, Note_on_c, 12, 59, 0
18, 49664, Note_on_c, 12, 54, 75
18, 49920, Note_on_c, 12, 54, 0
18, 53248, Note_on_c, 12, 55, 77
18, 53504, Note_on_c, 12, 55, 0
18, 53760, Note_on_c, 12, 62, 88
18, 54016, Note_on_c, 12, 62, 0
18, 54272, Note_on_c, 12, 62, 90
18, 54528, Note_on_c, 12, 62, 0
18, 54784, Note_on_c, 12, 62, 90
18, 55040, Note_on_c, 12, 62, 0
18, 55296, Note_on_c, 12, 67, 90
18, 55552, Note_on_c, 12, 67, 0
18, 55808, Note_on_c, 12, 62, 78
18, 56064, Note_on_c, 12, 62, 0
18, 59392, Note_on_c, 12, 59, 40
18, 59648, Note_on_c, 12, 59, 0
18, 59904, Note_on_c, 12, 61, 40
18, 60109, Note_on_c, 12, 61, 0
18, 60160, Note_on_c, 12, 59, 40
18, 60365, Note_on_c, 12, 59, 0
18, 60416, Note_on_c, 12, 57, 40
18, 60621, Note_on_c, 12, 57, 0
18, 60672, Note_on_c, 12, 61, 40
18, 60877, Note_on_c, 12, 61, 0
18, 60928, Note_on_c, 12, 59, 40
18, 61133, Note_on_c, 12, 59, 0
18, 61184, Note_on_c, 12, 62, 40
18, 61389, Note_on_c, 12, 62, 0
18, 61440, Note_on_c, 12, 61, 40
18, 61645, Note_on_c, 12, 61, 0
18, 61696, Note_on_c, 12, 59, 40
18, 61901, Note_on_c, 12, 59, 0
18, 61952, Note_on_c, 12, 61, 40
18, 62157, Note_on_c, 12, 61, 0
18, 62208, Note_on_c, 12, 62, 40
18, 62413, Note_on_c, 12, 62, 0
18, 62464, Note_on_c, 12, 59, 40
18, 62669, Note_on_c, 12, 59, 0
18, 62720, Note_on_c, 12, 61, 40
18, 62925, Note_on_c, 12, 61, 0
18, 62976, Note_on_c, 12, 62, 40
18, 63232, Note_on_c, 12, 62, 0
18, 63488, Note_on_c, 12, 57, 40
18, 63693, Note_on_c, 12, 57, 0
18, 63744, Note_on_c, 12, 62, 40
18, 63949, Note_on_c, 12, 62, 0
18, 64000, Note_on_c, 12, 61, 40
18, 64205, Note_on_c, 12, 61, 0
18, 64256, Note_on_c, 12, 64, 40
18, 64461, Note_on_c, 12, 64, 0
18, 64512, Note_on_c, 12, 62, 40
18, 64717, Note_on_c, 12, 62, 0
18, 64768, Note_on_c, 12, 61, 40
18, 64973, Note_on_c, 12, 61, 0
18, 65024, Note_on_c, 12, 62, 40
18, 65229, Note_on_c, 12, 62, 0
18, 65280, Note_on_c, 12, 64, 41
18, 65485, Note_on_c, 12, 64, 0
18, 65536, Note_on_c, 12, 61, 43
18, 65741, Note_on_c, 12, 61, 0
18, 65792, Note_on_c, 12, 62, 44
18, 65997, Note_on_c, 12, 62, 0
18, 66048, Note_on_c, 12, 59, 45
18, 66304, Note_on_c, 12, 59, 0
18, 66560, Note_on_c, 12, 64, 47
18, 66816, Note_on_c, 12, 64, 0
18, 67072, Note_on_c, 12, 66, 50
18, 67328, Note_on_c, 12, 66, 0
18, 67584, Note_on_c, 12, 59, 52
18, 67840, Note_on_c, 12, 59, 0
18, 68096, Note_on_c, 12, 64, 54
18, 68352, Note_on_c, 12, 64, 0
18, 68608, Note_on_c, 12, 68, 57
18, 68864, Note_on_c, 12, 68, 0
18, 69120, Note_on_c, 12, 61, 59
18, 70912, Note_on_c, 12, 61, 0
18, 71168, Note_on_c, 12, 61, 68
18, 71373, Note_on_c, 12, 61, 0
18, 71424, Note_on_c, 12, 59, 69
18, 71629, Note_on_c, 12, 59, 0
18, 71680, Note_on_c, 12, 61, 71
18, 71885, Note_on_c, 12, 61, 0
18, 71936, Note_on_c, 12, 57, 72
18, 72141, Note_on_c, 12, 57, 0
18, 72192, Note_on_c, 12, 64, 73
18, 75520, Note_on_c, 12, 64, 0
18, 75776, Note_on_c, 12, 69, 89
18, 76032, Note_on_c, 12, 69, 0
18, 76288, Note_on_c, 12, 64, 92
18, 76544, Note_on_c, 12, 64, 0
18, 76800, Note_on_c, 12, 64, 94
18, 78592, Note_on_c, 12, 64, 0
18, 78848, Note_on_c, 12, 64, 100
18, 79104, Note_on_c, 12, 64, 0
18, 79360, Note_on_c, 12, 64, 100
18, 79616, Note_on_c, 12, 64, 0
18, 79872, Note_on_c, 12, 64, 100
18, 80128, Note_on_c, 12, 64, 0
18, 80384, Note_on_c, 12, 64, 90
18, 80640, Note_on_c, 12, 64, 0
18, 80896, Note_on_c, 12, 61, 44
18, 81152, Note_on_c, 12, 61, 0
18, 81408, Note_on_c, 12, 61, 44
18, 81664, Note_on_c, 12, 61, 0
18, 81920, Note_on_c, 12, 62, 45
18, 82176, Note_on_c, 12, 62, 0
18, 82432, Note_on_c, 12, 61, 46
18, 82688, Note_on_c, 12, 61, 0
18, 82944, Note_on_c, 12, 61, 47
18, 84736, Note_on_c, 12, 61, 0
18, 84992, Note_on_c, 12, 61, 104
18, 85248, Note_on_c, 12, 61, 0
18, 85504, Note_on_c, 12, 61, 107
18, 85760, Note_on_c, 12, 61, 0
18, 86016, Note_on_c, 12, 61, 103
18, 86221, Note_on_c, 12, 61, 0
18, 86272, Note_on_c, 12, 62, 97
18, 86477, Note_on_c, 12, 62, 0
18, 86528, Note_on_c, 12, 61, 82
18, 86733, Note_on_c, 12, 61, 0
18, 86784, Note_on_c, 12, 59, 61
18, 86989, Note_on_c, 12, 59, 0
18, 87040, Note_on_c, 12, 61, 45
18, 87245, Note_on_c, 12, 61, 0
18, 87296, Note_on_c, 12, 57, 46
18, 87501, Note_on_c, 12, 57, 0
18, 87552, Note_on_c, 12, 62, 48
18, 87808, Note_on_c, 12, 62, 0
18, 88064, Note_on_c, 12, 64, 54
18, 88269, Note_on_c, 12, 64, 0
18, 88320, Note_on_c, 12, 62, 57
18, 88525, Note_on_c, 12, 62, 0
18, 88576, Note_on_c, 12, 64, 60
18, 88832, Note_on_c, 12, 64, 0
18, 89088, Note_on_c, 12, 66, 66
18, 90880, Note_on_c, 12, 66, 0
18, 91136, Note_on_c, 12, 64, 109
18, 91392, Note_on_c, 12, 64, 0
18, 91648, Note_on_c, 12, 64, 111
18, 91904, Note_on_c, 12, 64, 0
18, 92160, Note_on_c, 12, 66, 113
18, 92416, Note_on_c, 12, 66, 0
18, 92672, Note_on_c, 12, 64, 96
18, 92928, Note_on_c, 12, 64, 0
18, 93184, Note_on_c, 12, 66, 49
18, 93440, Note_on_c, 12, 66, 0
18, 93696, Note_on_c, 12, 62, 41
18, 93952, Note_on_c, 12, 62, 0
18, 94208, Note_on_c, 12, 61, 41
18, 94413, Note_on_c, 12, 61, 0
18, 94464, Note_on_c, 12, 62, 41
18, 94669, Note_on_c, 12, 62, 0
18, 94720, Note_on_c, 12, 64, 41
18, 94925, Note_on_c, 12, 64, 0
18, 94976, Note_on_c, 12, 61, 41
18, 95181, Note_on_c, 12, 61, 0
18, 95232, Note_on_c, 12, 62, 41
18, 95488, Note_on_c, 12, 62, 0
18, 95744, Note_on_c, 12, 62, 41
18, 96000, Note_on_c, 12, 62, 0
18, 97792, Note_on_c, 12, 54, 41
18, 98048, Note_on_c, 12, 54, 0
18, 98304, Note_on_c, 12, 64, 41
18, 98560, Note_on_c, 12, 64, 0
18, 98816, Note_on_c, 12, 64, 41
18, 99072, Note_on_c, 12, 64, 0
18, 100864, Note_on_c, 12, 59, 41
18, 101120, Note_on_c, 12, 59, 0
18, 101376, Note_on_c, 12, 61, 41
18, 101632, Note_on_c, 12, 61, 0
18, 101888, Note_on_c, 12, 57, 41
18, 102144, Note_on_c, 12, 57, 0
18, 103936, Note_on_c, 12, 64, 41
18, 104192, Note_on_c, 12, 64, 0
18, 104448, Note_on_c, 12, 66, 41
18, 104704, Note_on_c, 12, 66, 0
18, 104960, Note_on_c, 12, 62, 41
18, 105216, Note_on_c, 12, 62, 0
18, 107008, Note_on_c, 12, 57, 41
18, 107264, Note_on_c, 12, 57, 0
18, 107520, Note_on_c, 12, 59, 41
18, 107776, Note_on_c, 12, 59, 0
18, 108032, Note_on_c, 12, 55, 41
18, 108288, Note_on_c, 12, 55, 0
18, 114688, Note_on_c, 12, 66, 41
18, 114944, Note_on_c, 12, 66, 0
18, 115200, Note_on_c, 12, 62, 44
18, 115405, Note_on_c, 12, 62, 0
18, 115456, Note_on_c, 12, 61, 46
18, 115661, Note_on_c, 12, 61, 0
18, 115712, Note_on_c, 12, 59, 48
18, 115917, Note_on_c, 12, 59, 0
18, 115968, Note_on_c, 12, 62, 49
18, 116173, Note_on_c, 12, 62, 0
18, 116224, Note_on_c, 12, 61, 51
18, 116429, Note_on_c, 12, 61, 0
18, 116480, Note_on_c, 12, 64, 53
18, 116685, Note_on_c, 12, 64, 0
18, 116736, Note_on_c, 12, 62, 54
18, 116941, Note_on_c, 12, 62, 0
18, 116992, Note_on_c, 12, 61, 56
18, 117197, Note_on_c, 12, 61, 0
18, 117248, Note_on_c, 12, 62, 58
18, 117453, Note_on_c, 12, 62, 0
18, 117504, Note_on_c, 12, 64, 60
18, 117709, Note_on_c, 12, 64, 0
18, 117760, Note_on_c, 12, 61, 61
18, 117965, Note_on_c, 12, 61, 0
18, 118016, Note_on_c, 12, 62, 63
18, 118221, Note_on_c, 12, 62, 0
18, 118272, Note_on_c, 12, 59, 65
18, 118477, Note_on_c, 12, 59, 0
18, 118528, Note_on_c, 12, 57, 66
18, 118733, Note_on_c, 12, 57, 0
18, 118784, Note_on_c, 12, 59, 68
18, 118989, Note_on_c, 12, 59, 0
18, 119040, Note_on_c, 12, 64, 70
18, 119245, Note_on_c, 12, 64, 0
18, 119296, Note_on_c, 12, 63, 72
18, 119501, Note_on_c, 12, 63, 0
18, 119552, Note_on_c, 12, 66, 73
18, 119757, Note_on_c, 12, 66, 0
18, 119808, Note_on_c, 12, 64, 75
18, 121600, Note_on_c, 12, 64, 0
18, 121856, Note_on_c, 12, 64, 89
18, 122112, Note_on_c, 12, 64, 0
18, 122368, Note_on_c, 12, 64, 92
18, 122624, Note_on_c, 12, 64, 0
18, 122880, Note_on_c, 12, 64, 96
18, 123136, Note_on_c, 12, 64, 0
18, 123392, Note_on_c, 12, 61, 99
18, 123648, Note_on_c, 12, 61, 0
18, 126976, Note_on_c, 12, 57, 103
18, 127232, Note_on_c, 12, 57, 0
18, 127488, Note_on_c, 12, 57, 98
18, 127744, Note_on_c, 12, 57, 0
18, 128000, Note_on_c, 12, 57, 103
18, 128256, Note_on_c, 12, 57, 0
18, 128512, Note_on_c, 12, 57, 108
18, 128768, Note_on_c, 12, 57, 0
18, 129024, Note_on_c, 12, 64, 113
18, 129280, Note_on_c, 12, 64, 0
18, 129536, Note_on_c, 12, 57, 111
18, 129792, Note_on_c, 12, 57, 0
18, 131584, Note_on_c, 12, 64, 101
18, 131840, Note_on_c, 12, 64, 0
18, 132096, Note_on_c, 12, 57, 102
18, 132352, Note_on_c, 12, 57, 0
18, 132608, Note_on_c, 12, 62, 104
18, 132864, Note_on_c, 12, 62, 0
18, 133120, Note_on_c, 12, 61, 105
18, 133376, Note_on_c, 12, 61, 0
18, 133632, Note_on_c, 12, 62, 107
18, 133888, Note_on_c, 12, 62, 0
18, 134144, Note_on_c, 12, 57, 108
18, 134400, Note_on_c, 12, 57, 0
18, 134656, Note_on_c, 12, 54, 110
18, 134912, Note_on_c, 12, 54, 0
18, 135168, Note_on_c, 12, 66, 111
18, 135424, Note_on_c, 12, 66, 0
18, 135680, Note_on_c, 12, 63, 108
18, 135936, Note_on_c, 12, 63, 0
18, 136192, Note_on_c, 12, 66, 103
18, 136448, Note_on_c, 12, 66, 0
18, 136704, Note_on_c, 12, 64, 93
18, 136960, Note_on_c, 12, 64, 0
18, 137216, Note_on_c, 12, 59, 94
18, 137472, Note_on_c, 12, 59, 0
18, 139264, Note_on_c, 12, 64, 100
18, 139520, Note_on_c, 12, 64, 0
18, 139776, Note_on_c, 12, 64, 102
18, 140032, Note_on_c, 12, 64, 0
18, 140288, Note_on_c, 12, 61, 103
18, 140544, Note_on_c, 12, 61, 0
18, 140800, Note_on_c, 12, 61, 104
18, 141056, Note_on_c, 12, 61, 0
18, 141312, Note_on_c, 12, 61, 106
18, 141568, Note_on_c, 12, 61, 0
18, 141824, Note_on_c, 12, 64, 107
18, 142080, Note_on_c, 12, 64, 0
18, 142336, Note_on_c, 12, 64, 109
18, 142592, Note_on_c, 12, 64, 0
18, 142848, Note_on_c, 12, 62, 110
18, 143104, Note_on_c, 12, 62, 0
18, 143360, Note_on_c, 12, 57, 111
18, 143616, Note_on_c, 12, 57, 0
18, 143872, Note_on_c, 12, 57, 109
18, 144128, Note_on_c, 12, 57, 0
18, 144384, Note_on_c, 12, 62, 106
18, 144640, Note_on_c, 12, 62, 0
18, 144896, Note_on_c, 12, 59, 103
18, 145152, Note_on_c, 12, 59, 0
18, 148480, Note_on_c, 12, 64, 114
18, 148736, Note_on_c, 12, 64, 0
18, 148992, Note_on_c, 12, 64, 110
18, 149248, Note_on_c, 12, 64, 0
18, 149504, Note_on_c, 12, 57, 107
18, 149760, Note_on_c, 12, 57, 0
18, 150016, Note_on_c, 12, 59, 103
18, 150272, Note_on_c, 12, 59, 0
18, 150528, Note_on_c, 12, 61, 96
18, 150784, Note_on_c, 12, 61, 0
18, 151040, Note_on_c, 12, 61, 99
18, 151296, Note_on_c, 12, 61, 0
18, 156160, Note_on_c, 12, 67, 102
18, 156416, Note_on_c, 12, 67, 0
18, 156672, Note_on_c, 12, 64, 105
18, 156928, Note_on_c, 12, 64, 0
18, 157184, Note_on_c, 12, 64, 107
18, 157440, Note_on_c, 12, 64, 0
18, 157696, Note_on_c, 12, 66, 110
18, 157952, Note_on_c, 12, 66, 0
18, 158208, Note_on_c, 12, 66, 113
18, 158464, Note_on_c, 12, 66, 0
18, 158720, Note_on_c, 12, 59, 116
18, 158976, Note_on_c, 12, 59, 0
18, 159232, Note_on_c, 12, 61, 118
18, 159488, Note_on_c, 12, 61, 0
18, 159744, Note_on_c, 12, 57, 121
18, 160000, Note_on_c, 12, 57, 0
18, 160256, Note_on_c, 12, 62, 89
18, 160512, Note_on_c, 12, 62, 0
18, 163840, Note_on_c, 12, 50, 52
18, 164096, Note_on_c, 12, 50, 0
18, 164352, Note_on_c, 12, 55, 54
18, 164557, Note_on_c, 12, 55, 0
18, 164608, Note_on_c, 12, 54, 54
18, 164813, Note_on_c, 12, 54, 0
18, 164864, Note_on_c, 12, 55, 55
18, 165069, Note_on_c, 12, 55, 0
18, 165120, Note_on_c, 12, 57, 56
18, 165325, Note_on_c, 12, 57, 0
18, 165376, Note_on_c, 12, 59, 56
18, 165581, Note_on_c, 12, 59, 0
18, 165632, Note_on_c, 12, 55, 57
18, 165837, Note_on_c, 12, 55, 0
18, 165888, Note_on_c, 12, 61, 57
18, 166093, Note_on_c, 12, 61, 0
18, 166144, Note_on_c, 12, 62, 68
18, 166349, Note_on_c, 12, 62, 0
18, 166400, Note_on_c, 12, 61, 79
18, 166605, Note_on_c, 12, 61, 0
18, 166656, Note_on_c, 12, 59, 89
18, 166861, Note_on_c, 12, 59, 0
18, 166912, Note_on_c, 12, 57, 100
18, 167117, Note_on_c, 12, 57, 0
18, 167168, Note_on_c, 12, 59, 101
18, 167373, Note_on_c, 12, 59, 0
18, 167424, Note_on_c, 12, 61, 102
18, 167680, Note_on_c, 12, 61, 0
18, 167936, Note_on_c, 12, 57, 104
18, 168192, Note_on_c, 12, 57, 0
18, 168448, Note_on_c, 12, 64, 105
18, 168704, Note_on_c, 12, 64, 0
18, 168960, Note_on_c, 12, 62, 107
18, 169216, Note_on_c, 12, 62, 0
18, 169472, Note_on_c, 12, 64, 109
18, 169728, Note_on_c, 12, 64, 0
18, 169984, Note_on_c, 12, 69, 111
18, 170240, Note_on_c, 12, 69, 0
18, 170496, Note_on_c, 12, 62, 113
18, 170752, Note_on_c, 12, 62, 0
18, 171008, Note_on_c, 12, 62, 114
18, 171264, Note_on_c, 12, 62, 0
18, 171520, Note_on_c, 12, 61, 116
18, 171776, Note_on_c, 12, 61, 0
18, 172032, Note_on_c, 12, 57, 118
18, 172288, Note_on_c, 12, 57, 0
18, 172544, Note_on_c, 12, 54, 84
18, 172800, Note_on_c, 12, 54, 0
18, 174592, Note_on_c, 12, 64, 63
18, 174848, Note_on_c, 12, 64, 0
18, 175104, Note_on_c, 12, 64, 66
18, 175360, Note_on_c, 12, 64, 0
18, 175616, Note_on_c, 12, 64, 70
18, 175872, Note_on_c, 12, 64, 0
18, 176128, Note_on_c, 12, 61, 101
18, 176384, Note_on_c, 12, 61, 0
18, 176640, Note_on_c, 12, 57, 109
18, 178176, Note_on_c, 12, 57, 0
18, 178176, Note_on_c, 12, 57, 121
18, 179115, Note_on_c, 12, 57, 0
18, 230400, End_track
19, 0, Start_track
19, 0, Title_t, "Alto II"
19, 0, Program_c, 11, 52
19, 1024, Note_on_c, 11, 62, 88
19, 1280, Note_on_c, 11, 62, 0
19, 1536, Note_on_c, 11, 69, 88
19, 1792, Note_on_c, 11, 69, 0
19, 2048, Note_on_c, 11, 69, 88
19, 2304, Note_on_c, 11, 69, 0
19, 2560, Note_on_c, 11, 69, 88
19, 2816, Note_on_c, 11, 69, 0
19, 3072, Note_on_c, 11, 74, 88
19, 3328, Note_on_c, 11, 74, 0
19, 3584, Note_on_c, 11, 69, 88
19, 3840, Note_on_c, 11, 69, 0
19, 10240, Note_on_c, 11, 74, 86
19, 10496, Note_on_c, 11, 74, 0
19, 10752, Note_on_c, 11, 69, 86
19, 11008, Note_on_c, 11, 69, 0
19, 11264, Note_on_c, 11, 64, 89
19, 11520, Note_on_c, 11, 64, 0
19, 11776, Note_on_c, 11, 69, 91
19, 12032, Note_on_c, 11, 69, 0
19, 12288, Note_on_c, 11, 69, 93
19, 12493, Note_on_c, 11, 69, 0
19, 12544, Note_on_c, 11, 71, 94
19, 12749, Note_on_c, 11, 71, 0
19, 12800, Note_on_c, 11, 73, 96
19, 13056, Note_on_c, 11, 73, 0
19, 13312, Note_on_c, 11, 64, 98
19, 13568, Note_on_c, 11, 64, 0
19, 13824, Note_on_c, 11, 69, 100
19, 14080, Note_on_c, 11, 69, 0
19, 14336, Note_on_c, 11, 67, 103
19, 14592, Note_on_c, 11, 67, 0
19, 14848, Note_on_c, 11, 64, 105
19, 15104, Note_on_c, 11, 64, 0
19, 15360, Note_on_c, 11, 62, 107
19, 15616, Note_on_c, 11, 62, 0
19, 15872, Note_on_c, 11, 57, 93
19, 16128, Note_on_c, 11, 57, 0
19, 17920, Note_on_c, 11, 71, 46
19, 18176, Note_on_c, 11, 71, 0
19, 18432, Note_on_c, 11, 69, 46
19, 18688, Note_on_c, 11, 69, 0
19, 18944, Note_on_c, 11, 64, 46
19, 19200, Note_on_c, 11, 64, 0
19, 19456, Note_on_c, 11, 61, 90
19, 19712, Note_on_c, 11, 61, 0
19, 19968, Note_on_c, 11, 57, 91
19, 20224, Note_on_c, 11, 57, 0
19, 20480, Note_on_c, 11, 64, 93
19, 20736, Note_on_c, 11, 64, 0
19, 20992, Note_on_c, 11, 69, 94
19, 21248, Note_on_c, 11, 69, 0
19, 21504, Note_on_c, 11, 69, 95
19, 21709, Note_on_c, 11, 69, 0
19, 21760, Note_on_c, 11, 71, 93
19, 21965, Note_on_c, 11, 71, 0
19, 22016, Note_on_c, 11, 73, 89
19, 22272, Note_on_c, 11, 73, 0
19, 40960, Note_on_c, 11, 62, 101
19, 41216, Note_on_c, 11, 62, 0
19, 41472, Note_on_c, 11, 69, 103
19, 41728, Note_on_c, 11, 69, 0
19, 41984, Note_on_c, 11, 69, 104
19, 42240, Note_on_c, 11, 69, 0
19, 42496, Note_on_c, 11, 69, 105
19, 42752, Note_on_c, 11, 69, 0
19, 43008, Note_on_c, 11, 74, 106
19, 43264, Note_on_c, 11, 74, 0
19, 43520, Note_on_c, 11, 69, 86
19, 43776, Note_on_c, 11, 69, 0
19, 47104, Note_on_c, 11, 59, 94
19, 47360, Note_on_c, 11, 59, 0
19, 47616, Note_on_c, 11, 66, 106
19, 47872, Note_on_c, 11, 66, 0
19, 48128, Note_on_c, 11, 66, 106
19, 48384, Note_on_c, 11, 66, 0
19, 48640, Note_on_c, 11, 66, 105
19, 48896, Note_on_c, 11, 66, 0
19, 49152, Note_on_c, 11, 71, 105
19, 49408, Note_on_c, 11, 71, 0
19, 49664, Note_on_c, 11, 66, 75
19, 49920, Note_on_c, 11, 66, 0
19, 53248, Note_on_c, 11, 67, 77
19, 53504, Note_on_c, 11, 67, 0
19, 53760, Note_on_c, 11, 74, 88
19, 54016, Note_on_c, 11, 74, 0
19, 54272, Note_on_c, 11, 62, 90
19, 54528, Note_on_c, 11, 62, 0
19, 54784, Note_on_c, 11, 62, 90
19, 55040, Note_on_c, 11, 62, 0
19, 55296, Note_on_c, 11, 67, 90
19, 55552, Note_on_c, 11, 67, 0
19, 55808, Note_on_c, 11, 62, 78
19, 56064, Note_on_c, 11, 62, 0
19, 62464, Note_on_c, 11, 64, 40
19, 62720, Note_on_c, 11, 64, 0
19, 62976, Note_on_c, 11, 66, 40
19, 63181, Note_on_c, 11, 66, 0
19, 63232, Note_on_c, 11, 64, 40
19, 63437, Note_on_c, 11, 64, 0
19, 63488, Note_on_c, 11, 62, 40
19, 63693, Note_on_c, 11, 62, 0
19, 63744, Note_on_c, 11, 66, 40
19, 63949, Note_on_c, 11, 66, 0
19, 64000, Note_on_c, 11, 64, 40
19, 64205, Note_on_c, 11, 64, 0
19, 64256, Note_on_c, 11, 67, 40
19, 64461, Note_on_c, 11, 67, 0
19, 64512, Note_on_c, 11, 66, 40
19, 64717, Note_on_c, 11, 66, 0
19, 64768, Note_on_c, 11, 64, 40
19, 64973, Note_on_c, 11, 64, 0
19, 65024, Note_on_c, 11, 66, 40
19, 65229, Note_on_c, 11, 66, 0
19, 65280, Note_on_c, 11, 68, 41
19, 65485, Note_on_c, 11, 68, 0
19, 65536, Note_on_c, 11, 64, 43
19, 65741, Note_on_c, 11, 64, 0
19, 65792, Note_on_c, 11, 66, 44
19, 65997, Note_on_c, 11, 66, 0
19, 66048, Note_on_c, 11, 68, 45
19, 66253, Note_on_c, 11, 68, 0
19, 66304, Note_on_c, 11, 71, 46
19, 66509, Note_on_c, 11, 71, 0
19, 66560, Note_on_c, 11, 69, 47
19, 66765, Note_on_c, 11, 69, 0
19, 66816, Note_on_c, 11, 73, 48
19, 67021, Note_on_c, 11, 73, 0
19, 67072, Note_on_c, 11, 71, 50
19, 67277, Note_on_c, 11, 71, 0
19, 67328, Note_on_c, 11, 69, 51
19, 67533, Note_on_c, 11, 69, 0
19, 67584, Note_on_c, 11, 68, 52
19, 67789, Note_on_c, 11, 68, 0
19, 67840, Note_on_c, 11, 66, 53
19, 68045, Note_on_c, 11, 66, 0
19, 68096, Note_on_c, 11, 68, 54
19, 68301, Note_on_c, 11, 68, 0
19, 68352, Note_on_c, 11, 69, 55
19, 68557, Note_on_c, 11, 69, 0
19, 68608, Note_on_c, 11, 71, 57
19, 68813, Note_on_c, 11, 71, 0
19, 68864, Note_on_c, 11, 73, 58
19, 69069, Note_on_c, 11, 73, 0
19, 69120, Note_on_c, 11, 69, 59
19, 69325, Note_on_c, 11, 69, 0
19, 69376, Note_on_c, 11, 71, 60
19, 69581, Note_on_c, 11, 71, 0
19, 69632, Note_on_c, 11, 73, 61
19, 69837, Note_on_c, 11, 73, 0
19, 69888, Note_on_c, 11, 69, 62
19, 70093, Note_on_c, 11, 69, 0
19, 70144, Note_on_c, 11, 71, 64
19, 70349, Note_on_c, 11, 71, 0
19, 70400, Note_on_c, 11, 68, 65
19, 70605, Note_on_c, 11, 68, 0
19, 70656, Note_on_c, 11, 69, 66
19, 70912, Note_on_c, 11, 69, 0
19, 71168, Note_on_c, 11, 66, 68
19, 71424, Note_on_c, 11, 66, 0
19, 71680, Note_on_c, 11, 73, 71
19, 71936, Note_on_c, 11, 73, 0
19, 72192, Note_on_c, 11, 71, 73
19, 72448, Note_on_c, 11, 71, 0
19, 72704, Note_on_c, 11, 59, 75
19, 72960, Note_on_c, 11, 59, 0
19, 73216, Note_on_c, 11, 62, 78
19, 73472, Note_on_c, 11, 62, 0
19, 73728, Note_on_c, 11, 62, 80
19, 73984, Note_on_c, 11, 62, 0
19, 74240, Note_on_c, 11, 64, 82
19, 74445, Note_on_c, 11, 64, 0
19, 74496, Note_on_c, 11, 61, 83
19, 74701, Note_on_c, 11, 61, 0
19, 74752, Note_on_c, 11, 62, 85
19, 75008, Note_on_c, 11, 62, 0
19, 75264, Note_on_c, 11, 61, 87
19, 75520, Note_on_c, 11, 61, 0
19, 75776, Note_on_c, 11, 64, 89
19, 76032, Note_on_c, 11, 64, 0
19, 76288, Note_on_c, 11, 68, 92
19, 76544, Note_on_c, 11, 68, 0
19, 76800, Note_on_c, 11, 69, 94
19, 78592, Note_on_c, 11, 69, 0
19, 78848, Note_on_c, 11, 68, 100
19, 79053, Note_on_c, 11, 68, 0
19, 79104, Note_on_c, 11, 69, 100
19, 79309, Note_on_c, 11, 69, 0
19, 79360, Note_on_c, 11, 71, 100
19, 79565, Note_on_c, 11, 71, 0
19, 79616, Note_on_c, 11, 68, 100
19, 79821, Note_on_c, 11, 68, 0
19, 79872, Note_on_c, 11, 69, 100
19, 80128, Note_on_c, 11, 69, 0
19, 80384, Note_on_c, 11, 68, 90
19, 80640, Note_on_c, 11, 68, 0
19, 80896, Note_on_c, 11, 68, 44
19, 81152, Note_on_c, 11, 68, 0
19, 81408, Note_on_c, 11, 66, 44
19, 81664, Note_on_c, 11, 66, 0
19, 81920, Note_on_c, 11, 68, 45
19, 82176, Note_on_c, 11, 68, 0
19, 82432, Note_on_c, 11, 65, 46
19, 82688, Note_on_c, 11, 65, 0
19, 82944, Note_on_c, 11, 66, 47
19, 84736, Note_on_c, 11, 66, 0
19, 84992, Note_on_c, 11, 65, 104
19, 85248, Note_on_c, 11, 65, 0
19, 85504, Note_on_c, 11, 61, 107
19, 85760, Note_on_c, 11, 61, 0
19, 86016, Note_on_c, 11, 73, 103
19, 86221, Note_on_c, 11, 73, 0
19, 86272, Note_on_c, 11, 71, 97
19, 86477, Note_on_c, 11, 71, 0
19, 86528, Note_on_c, 11, 69, 82
19, 86733, Note_on_c, 11, 69, 0
19, 86784, Note_on_c, 11, 68, 61
19, 86989, Note_on_c, 11, 68, 0
19, 87040, Note_on_c, 11, 66, 45
19, 87245, Note_on_c, 11, 66, 0
19, 87296, Note_on_c, 11, 69, 46
19, 87501, Note_on_c, 11, 69, 0
19, 87552, Note_on_c, 11, 67, 48
19, 87757, Note_on_c, 11, 67, 0
19, 87808, Note_on_c, 11, 66, 51
19, 88013, Note_on_c, 11, 66, 0
19, 88064, Note_on_c, 11, 67, 54
19, 88269, Note_on_c, 11, 67, 0
19, 88320, Note_on_c, 11, 71, 57
19, 88525, Note_on_c, 11, 71, 0
19, 88576, Note_on_c, 11, 69, 60
19, 88832, Note_on_c, 11, 69, 0
19, 89088, Note_on_c, 11, 69, 66
19, 92416, Note_on_c, 11, 69, 0
19, 92672, Note_on_c, 11, 69, 96
19, 92928, Note_on_c, 11, 69, 0
19, 93184, Note_on_c, 11, 66, 49
19, 93440, Note_on_c, 11, 66, 0
19, 93696, Note_on_c, 11, 66, 41
19, 93952, Note_on_c, 11, 66, 0
19, 94208, Note_on_c, 11, 67, 41
19, 94464, Note_on_c, 11, 67, 0
19, 94720, Note_on_c, 11, 66, 41
19, 94976, Note_on_c, 11, 66, 0
19, 95232, Note_on_c, 11, 66, 41
19, 95488, Note_on_c, 11, 66, 0
19, 95744, Note_on_c, 11, 66, 41
19, 96000, Note_on_c, 11, 66, 0
19, 97792, Note_on_c, 11, 71, 41
19, 98048, Note_on_c, 11, 71, 0
19, 98304, Note_on_c, 11, 71, 41
19, 98560, Note_on_c, 11, 71, 0
19, 98816, Note_on_c, 11, 67, 41
19, 99072, Note_on_c, 11, 67, 0
19, 100864, Note_on_c, 11, 68, 41
19, 101120, Note_on_c, 11, 68, 0
19, 101376, Note_on_c, 11, 64, 41
19, 101632, Note_on_c, 11, 64, 0
19, 101888, Note_on_c, 11, 64, 41
19, 102144, Note_on_c, 11, 64, 0
19, 103936, Note_on_c, 11, 69, 41
19, 104192, Note_on_c, 11, 69, 0
19, 104448, Note_on_c, 11, 69, 41
19, 104704, Note_on_c, 11, 69, 0
19, 104960, Note_on_c, 11, 66, 41
19, 105216, Note_on_c, 11, 66, 0
19, 107008, Note_on_c, 11, 66, 41
19, 107264, Note_on_c, 11, 66, 0
19, 107520, Note_on_c, 11, 62, 41
19, 107776, Note_on_c, 11, 62, 0
19, 108032, Note_on_c, 11, 62, 41
19, 108288, Note_on_c, 11, 62, 0
19, 111616, Note_on_c, 11, 73, 41
19, 111872, Note_on_c, 11, 73, 0
19, 112128, Note_on_c, 11, 70, 41
19, 112333, Note_on_c, 11, 70, 0
19, 112384, Note_on_c, 11, 68, 41
19, 112589, Note_on_c, 11, 68, 0
19, 112640, Note_on_c, 11, 66, 41
19, 112845, Note_on_c, 11, 66, 0
19, 112896, Note_on_c, 11, 70, 41
19, 113101, Note_on_c, 11, 70, 0
19, 113152, Note_on_c, 11, 68, 41
19, 113357, Note_on_c, 11, 68, 0
19, 113408, Note_on_c, 11, 71, 41
19, 113613, Note_on_c, 11, 71, 0
19, 113664, Note_on_c, 11, 70, 41
19, 113869, Note_on_c, 11, 70, 0
19, 113920, Note_on_c, 11, 68, 41
19, 114125, Note_on_c, 11, 68, 0
19, 114176, Note_on_c, 11, 70, 41
19, 114381, Note_on_c, 11, 70, 0
19, 114432, Note_on_c, 11, 71, 41
19, 114637, Note_on_c, 11, 71, 0
19, 114688, Note_on_c, 11, 68, 41
19, 114893, Note_on_c, 11, 68, 0
19, 114944, Note_on_c, 11, 70, 41
19, 115149, Note_on_c, 11, 70, 0
19, 115200, Note_on_c, 11, 66, 44
19, 115405, Note_on_c, 11, 66, 0
19, 115456, Note_on_c, 11, 64, 46
19, 115661, Note_on_c, 11, 64, 0
19, 115712, Note_on_c, 11, 66, 48
19, 115917, Note_on_c, 11, 66, 0
19, 115968, Note_on_c, 11, 71, 49
19, 116173, Note_on_c, 11, 71, 0
19, 116224, Note_on_c, 11, 70, 51
19, 116429, Note_on_c, 11, 70, 0
19, 116480, Note_on_c, 11, 73, 53
19, 116685, Note_on_c, 11, 73, 0
19, 116736, Note_on_c, 11, 71, 54
19, 120064, Note_on_c, 11, 71, 0
19, 120320, Note_on_c, 11, 71, 78
19, 120576, Note_on_c, 11, 71, 0
19, 120832, Note_on_c, 11, 71, 82
19, 121088, Note_on_c, 11, 71, 0
19, 121344, Note_on_c, 11, 69, 85
19, 121600, Note_on_c, 11, 69, 0
19, 121856, Note_on_c, 11, 73, 89
19, 122061, Note_on_c, 11, 73, 0
19, 122112, Note_on_c, 11, 69, 90
19, 122317, Note_on_c, 11, 69, 0
19, 122368, Note_on_c, 11, 71, 92
19, 122573, Note_on_c, 11, 71, 0
19, 122624, Note_on_c, 11, 68, 94
19, 122829, Note_on_c, 11, 68, 0
19, 122880, Note_on_c, 11, 69, 96
19, 123136, Note_on_c, 11, 69, 0
19, 123392, Note_on_c, 11, 64, 99
19, 123648, Note_on_c, 11, 64, 0
19, 126976, Note_on_c, 11, 69, 103
19, 127232, Note_on_c, 11, 69, 0
19, 127488, Note_on_c, 11, 69, 98
19, 127744, Note_on_c, 11, 69, 0
19, 128000, Note_on_c, 11, 69, 103
19, 128256, Note_on_c, 11, 69, 0
19, 128512, Note_on_c, 11, 69, 108
19, 128768, Note_on_c, 11, 69, 0
19, 129024, Note_on_c, 11, 76, 113
19, 129280, Note_on_c, 11, 76, 0
19, 129536, Note_on_c, 11, 69, 111
19, 129792, Note_on_c, 11, 69, 0
19, 131584, Note_on_c, 11, 69, 101
19, 131840, Note_on_c, 11, 69, 0
19, 132096, Note_on_c, 11, 69, 102
19, 132352, Note_on_c, 11, 69, 0
19, 132608, Note_on_c, 11, 69, 104
19, 132864, Note_on_c, 11, 69, 0
19, 133120, Note_on_c, 11, 69, 105
19, 133376, Note_on_c, 11, 69, 0
19, 133632, Note_on_c, 11, 69, 107
19, 135424, Note_on_c, 11, 69, 0
19, 135680, Note_on_c, 11, 66, 108
19, 135936, Note_on_c, 11, 66, 0
19, 136192, Note_on_c, 11, 71, 103
19, 136960, Note_on_c, 11, 71, 0
19, 137216, Note_on_c, 11, 67, 94
19, 137472, Note_on_c, 11, 67, 0
19, 139264, Note_on_c, 11, 67, 100
19, 139520, Note_on_c, 11, 67, 0
19, 139776, Note_on_c, 11, 67, 102
19, 140032, Note_on_c, 11, 67, 0
19, 140288, Note_on_c, 11, 67, 103
19, 140544, Note_on_c, 11, 67, 0
19, 140800, Note_on_c, 11, 64, 104
19, 141056, Note_on_c, 11, 64, 0
19, 141312, Note_on_c, 11, 64, 106
19, 141568, Note_on_c, 11, 64, 0
19, 141824, Note_on_c, 11, 69, 107
19, 142080, Note_on_c, 11, 69, 0
19, 142336, Note_on_c, 11, 69, 109
19, 142592, Note_on_c, 11, 69, 0
19, 142848, Note_on_c, 11, 69, 110
19, 143104, Note_on_c, 11, 69, 0
19, 143360, Note_on_c, 11, 66, 111
19, 143616, Note_on_c, 11, 66, 0
19, 143872, Note_on_c, 11, 66, 109
19, 144128, Note_on_c, 11, 66, 0
19, 144384, Note_on_c, 11, 66, 106
19, 144640, Note_on_c, 11, 66, 0
19, 144896, Note_on_c, 11, 62, 103
19, 145152, Note_on_c, 11, 62, 0
19, 148480, Note_on_c, 11, 67, 114
19, 148736, Note_on_c, 11, 67, 0
19, 148992, Note_on_c, 11, 67, 110
19, 149248, Note_on_c, 11, 67, 0
19, 149504, Note_on_c, 11, 64, 107
19, 149760, Note_on_c, 11, 64, 0
19, 150016, Note_on_c, 11, 64, 103
19, 150272, Note_on_c, 11, 64, 0
19, 150528, Note_on_c, 11, 64, 96
19, 150784, Note_on_c, 11, 64, 0
19, 151040, Note_on_c, 11, 61, 99
19, 151296, Note_on_c, 11, 61, 0
19, 156160, Note_on_c, 11, 71, 102
19, 156416, Note_on_c, 11, 71, 0
19, 156672, Note_on_c, 11, 69, 105
19, 156928, Note_on_c, 11, 69, 0
19, 157184, Note_on_c, 11, 69, 107
19, 157440, Note_on_c, 11, 69, 0
19, 157696, Note_on_c, 11, 61, 110
19, 157952, Note_on_c, 11, 61, 0
19, 158208, Note_on_c, 11, 62, 113
19, 158464, Note_on_c, 11, 62, 0
19, 158720, Note_on_c, 11, 67, 116
19, 158976, Note_on_c, 11, 67, 0
19, 159232, Note_on_c, 11, 67, 118
19, 159488, Note_on_c, 11, 67, 0
19, 159744, Note_on_c, 11, 66, 121
19, 159949, Note_on_c, 11, 66, 0
19, 160000, Note_on_c, 11, 67, 111
19, 160205, Note_on_c, 11, 67, 0
19, 160256, Note_on_c, 11, 69, 89
19, 160512, Note_on_c, 11, 69, 0
19, 162304, Note_on_c, 11, 67, 48
19, 162560, Note_on_c, 11, 67, 0
19, 162816, Note_on_c, 11, 67, 50
19, 163072, Note_on_c, 11, 67, 0
19, 163328, Note_on_c, 11, 66, 51
19, 163584, Note_on_c, 11, 66, 0
19, 164864, Note_on_c, 11, 71, 55
19, 165120, Note_on_c, 11, 71, 0
19, 165376, Note_on_c, 11, 71, 56
19, 165632, Note_on_c, 11, 71, 0
19, 165888, Note_on_c, 11, 71, 57
19, 166144, Note_on_c, 11, 71, 0
19, 166400, Note_on_c, 11, 69, 79
19, 166605, Note_on_c, 11, 69, 0
19, 166656, Note_on_c, 11, 67, 89
19, 166861, Note_on_c, 11, 67, 0
19, 166912, Note_on_c, 11, 69, 100
19, 167680, Note_on_c, 11, 69, 0
19, 167936, Note_on_c, 11, 64, 104
19, 168192, Note_on_c, 11, 64, 0
19, 168448, Note_on_c, 11, 69, 105
19, 168704, Note_on_c, 11, 69, 0
19, 168960, Note_on_c, 11, 69, 107
19, 169165, Note_on_c, 11, 69, 0
19, 169216, Note_on_c, 11, 71, 108
19, 169421, Note_on_c, 11, 71, 0
19, 169472, Note_on_c, 11, 73, 109
19, 169728, Note_on_c, 11, 73, 0
19, 169984, Note_on_c, 11, 64, 111
19, 170240, Note_on_c, 11, 64, 0
19, 170496, Note_on_c, 11, 69, 113
19, 170752, Note_on_c, 11, 69, 0
19, 171008, Note_on_c, 11, 67, 114
19, 171264, Note_on_c, 11, 67, 0
19, 171520, Note_on_c, 11, 64, 116
19, 171776, Note_on_c, 11, 64, 0
19, 172032, Note_on_c, 11, 62, 118
19, 172288, Note_on_c, 11, 62, 0
19, 172544, Note_on_c, 11, 57, 84
19, 172800, Note_on_c, 11, 57, 0
19, 174592, Note_on_c, 11, 71, 63
19, 174848, Note_on_c, 11, 71, 0
19, 175104, Note_on_c, 11, 71, 66
19, 175309, Note_on_c, 11, 71, 0
19, 175360, Note_on_c, 11, 69, 68
19, 175565, Note_on_c, 11, 69, 0
19, 175616, Note_on_c, 11, 69, 70
19, 175872, Note_on_c, 11, 69, 0
19, 176128, Note_on_c, 11, 69, 101
19, 176384, Note_on_c, 11, 69, 0
19, 176640, Note_on_c, 11, 69, 109
19, 176896, Note_on_c, 11, 69, 0
19, 177152, Note_on_c, 11, 71, 113
19, 177357, Note_on_c, 11, 71, 0
19, 177408, Note_on_c, 11, 69, 115
19, 177613, Note_on_c, 11, 69, 0
19, 177664, Note_on_c, 11, 67, 117
19, 177869, Note_on_c, 11, 67, 0
19, 177920, Note_on_c, 11, 69, 119
19, 178125, Note_on_c, 11, 69, 0
19, 178176, Note_on_c, 11, 66, 121
19, 179115, Note_on_c, 11, 66, 0
19, 230400, End_track
20, 0, Start_track
20, 0, Title_t, "Bass II"
20, 0, Program_c, 13, 52
20, 1024, Note_on_c, 13, 50, 88
20, 1280, Note_on_c, 13, 50, 0
20, 1536, Note_on_c, 13, 57, 88
20, 1792, Note_on_c, 13, 57, 0
20, 2048, Note_on_c, 13, 57, 88
20, 2304, Note_on_c, 13, 57, 0
20, 2560, Note_on_c, 13, 57, 88
20, 2816, Note_on_c, 13, 57, 0
20, 3072, Note_on_c, 13, 62, 88
20, 3328, Note_on_c, 13, 62, 0
20, 3584, Note_on_c, 13, 57, 88
20, 3840, Note_on_c, 13, 57, 0
20, 10240, Note_on_c, 13, 50, 86
20, 10496, Note_on_c, 13, 50, 0
20, 10752, Note_on_c, 13, 57, 86
20, 11008, Note_on_c, 13, 57, 0
20, 11264, Note_on_c, 13, 57, 89
20, 11520, Note_on_c, 13, 57, 0
20, 11776, Note_on_c, 13, 57, 91
20, 12032, Note_on_c, 13, 57, 0
20, 12288, Note_on_c, 13, 62, 93
20, 12544, Note_on_c, 13, 62, 0
20, 12800, Note_on_c, 13, 57, 96
20, 13005, Note_on_c, 13, 57, 0
20, 13056, Note_on_c, 13, 54, 97
20, 13261, Note_on_c, 13, 54, 0
20, 13312, Note_on_c, 13, 55, 98
20, 13517, Note_on_c, 13, 55, 0
20, 13568, Note_on_c, 13, 52, 99
20, 13773, Note_on_c, 13, 52, 0
20, 13824, Note_on_c, 13, 54, 100
20, 14080, Note_on_c, 13, 54, 0
20, 14336, Note_on_c, 13, 55, 103
20, 14592, Note_on_c, 13, 55, 0
20, 14848, Note_on_c, 13, 57, 105
20, 15104, Note_on_c, 13, 57, 0
20, 15360, Note_on_c, 13, 50, 107
20, 15616, Note_on_c, 13, 50, 0
20, 15872, Note_on_c, 13, 50, 93
20, 16128, Note_on_c, 13, 50, 0
20, 17920, Note_on_c, 13, 56, 46
20, 18176, Note_on_c, 13, 56, 0
20, 18432, Note_on_c, 13, 57, 46
20, 18688, Note_on_c, 13, 57, 0
20, 18944, Note_on_c, 13, 45, 46
20, 19200, Note_on_c, 13, 45, 0
20, 19456, Note_on_c, 13, 55, 90
20, 19712, Note_on_c, 13, 55, 0
20, 19968, Note_on_c, 13, 54, 91
20, 20224, Note_on_c, 13, 54, 0
20, 20480, Note_on_c, 13, 52, 93
20, 20736, Note_on_c, 13, 52, 0
20, 20992, Note_on_c, 13, 50, 94
20, 21248, Note_on_c, 13, 50, 0
20, 21504, Note_on_c, 13, 57, 95
20, 21760, Note_on_c, 13, 57, 0
20, 22016, Note_on_c, 13, 45, 89
20, 22272, Note_on_c, 13, 45, 0
20, 40960, Note_on_c, 13, 50, 101
20, 41216, Note_on_c, 13, 50, 0
20, 41472, Note_on_c, 13, 57, 103
20, 41728, Note_on_c, 13, 57, 0
20, 41984, Note_on_c, 13, 57, 104
20, 42240, Note_on_c, 13, 57, 0
20, 42496, Note_on_c, 13, 57, 105
20, 42752, Note_on_c, 13, 57, 0
20, 43008, Note_on_c, 13, 62, 106
20, 43264, Note_on_c, 13, 62, 0
20, 43520, Note_on_c, 13, 57, 86
20, 43776, Note_on_c, 13, 57, 0
20, 47104, Note_on_c, 13, 47, 94
20, 47360, Note_on_c, 13, 47, 0
20, 47616, Note_on_c, 13, 54, 106
20, 47872, Note_on_c, 13, 54, 0
20, 48128, Note_on_c, 13, 54, 106
20, 48384, Note_on_c, 13, 54, 0
20, 48640, Note_on_c, 13, 54, 105
20, 48896, Note_on_c, 13, 54, 0
20, 49152, Note_on_c, 13, 59, 105
20, 49408, Note_on_c, 13, 59, 0
20, 49664, Note_on_c, 13, 54, 75
20, 49920, Note_on_c, 13, 54, 0
20, 53248, Note_on_c, 13, 43, 77
20, 53504, Note_on_c, 13, 43, 0
20, 53760, Note_on_c, 13, 50, 88
20, 54016, Note_on_c, 13, 50, 0
20, 54272, Note_on_c, 13, 50, 90
20, 54528, Note_on_c, 13, 50, 0
20, 54784, Note_on_c, 13, 50, 90
20, 55040, Note_on_c, 13, 50, 0
20, 55296, Note_on_c, 13, 55, 90
20, 55552, Note_on_c, 13, 55, 0
20, 55808, Note_on_c, 13, 50, 78
20, 56064, Note_on_c, 13, 50, 0
20, 65536, Note_on_c, 13, 50, 43
20, 65792, Note_on_c, 13, 50, 0
20, 66048, Note_on_c, 13, 52, 45
20, 66253, Note_on_c, 13, 52, 0
20, 66304, Note_on_c, 13, 50, 46
20, 66509, Note_on_c, 13, 50, 0
20, 66560, Note_on_c, 13, 49, 47
20, 66765, Note_on_c, 13, 49, 0
20, 66816, Note_on_c, 13, 52, 48
20, 67021, Note_on_c, 13, 52, 0
20, 67072, Note_on_c, 13, 51, 50
20, 67277, Note_on_c, 13, 51, 0
20, 67328, Note_on_c, 13, 54, 51
20, 67533, Note_on_c, 13, 54, 0
20, 67584, Note_on_c, 13, 52, 52
20, 67789, Note_on_c, 13, 52, 0
20, 67840, Note_on_c, 13, 51, 53
20, 68045, Note_on_c, 13, 51, 0
20, 68096, Note_on_c, 13, 52, 54
20, 68301, Note_on_c, 13, 52, 0
20, 68352, Note_on_c, 13, 54, 55
20, 68557, Note_on_c, 13, 54, 0
20, 68608, Note_on_c, 13, 51, 57
20, 68813, Note_on_c, 13, 51, 0
20, 68864, Note_on_c, 13, 53, 58
20, 69069, Note_on_c, 13, 53, 0
20, 69120, Note_on_c, 13, 54, 59
20, 69376, Note_on_c, 13, 54, 0
20, 69632, Note_on_c, 13, 49, 61
20, 69837, Note_on_c, 13, 49, 0
20, 69888, Note_on_c, 13, 54, 62
20, 70093, Note_on_c, 13, 54, 0
20, 70144, Note_on_c, 13, 53, 64
20, 70349, Note_on_c, 13, 53, 0
20, 70400, Note_on_c, 13, 56, 65
20, 70605, Note_on_c, 13, 56, 0
20, 70656, Note_on_c, 13, 54, 66
20, 70861, Note_on_c, 13, 54, 0
20, 70912, Note_on_c, 13, 52, 67
20, 71117, Note_on_c, 13, 52, 0
20, 71168, Note_on_c, 13, 54, 68
20, 71373, Note_on_c, 13, 54, 0
20, 71424, Note_on_c, 13, 56, 69
20, 71629, Note_on_c, 13, 56, 0
20, 71680, Note_on_c, 13, 52, 71
20, 71885, Note_on_c, 13, 52, 0
20, 71936, Note_on_c, 13, 54, 72
20, 72141, Note_on_c, 13, 54, 0
20, 72192, Note_on_c, 13, 56, 73
20, 72397, Note_on_c, 13, 56, 0
20, 72448, Note_on_c, 13, 54, 74
20, 72653, Note_on_c, 13, 54, 0
20, 72704, Note_on_c, 13, 52, 75
20, 72909, Note_on_c, 13, 52, 0
20, 72960, Note_on_c, 13, 56, 76
20, 73165, Note_on_c, 13, 56, 0
20, 73216, Note_on_c, 13, 54, 78
20, 73421, Note_on_c, 13, 54, 0
20, 73472, Note_on_c, 13, 57, 79
20, 73677, Note_on_c, 13, 57, 0
20, 73728, Note_on_c, 13, 56, 80
20, 73933, Note_on_c, 13, 56, 0
20, 73984, Note_on_c, 13, 54, 81
20, 74189, Note_on_c, 13, 54, 0
20, 74240, Note_on_c, 13, 56, 82
20, 74445, Note_on_c, 13, 56, 0
20, 74496, Note_on_c, 13, 57, 83
20, 74701, Note_on_c, 13, 57, 0
20, 74752, Note_on_c, 13, 54, 85
20, 74957, Note_on_c, 13, 54, 0
20, 75008, Note_on_c, 13, 56, 86
20, 75213, Note_on_c, 13, 56, 0
20, 75264, Note_on_c, 13, 57, 87
20, 75520, Note_on_c, 13, 57, 0
20, 75776, Note_on_c, 13, 49, 89
20, 76032, Note_on_c, 13, 49, 0
20, 76288, Note_on_c, 13, 52, 92
20, 76544, Note_on_c, 13, 52, 0
20, 76800, Note_on_c, 13, 45, 94
20, 77005, Note_on_c, 13, 45, 0
20, 77056, Note_on_c, 13, 44, 95
20, 77261, Note_on_c, 13, 44, 0
20, 77312, Note_on_c, 13, 45, 96
20, 77517, Note_on_c, 13, 45, 0
20, 77568, Note_on_c, 13, 47, 97
20, 77773, Note_on_c, 13, 47, 0
20, 77824, Note_on_c, 13, 49, 99
20, 78029, Note_on_c, 13, 49, 0
20, 78080, Note_on_c, 13, 50, 100
20, 78285, Note_on_c, 13, 50, 0
20, 78336, Note_on_c, 13, 52, 100
20, 78541, Note_on_c, 13, 52, 0
20, 78592, Note_on_c, 13, 50, 100
20, 78797, Note_on_c, 13, 50, 0
20, 78848, Note_on_c, 13, 52, 100
20, 79053, Note_on_c, 13, 52, 0
20, 79104, Note_on_c, 13, 54, 100
20, 79309, Note_on_c, 13, 54, 0
20, 79360, Note_on_c, 13, 56, 100
20, 79565, Note_on_c, 13, 56, 0
20, 79616, Note_on_c, 13, 52, 100
20, 79821, Note_on_c, 13, 52, 0
20, 79872, Note_on_c, 13, 57, 100
20, 80128, Note_on_c, 13, 57, 0
20, 80384, Note_on_c, 13, 52, 90
20, 80640, Note_on_c, 13, 52, 0
20, 80896, Note_on_c, 13, 53, 44
20, 81152, Note_on_c, 13, 53, 0
20, 81408, Note_on_c, 13, 54, 44
20, 81664, Note_on_c, 13, 54, 0
20, 81920, Note_on_c, 13, 47, 45
20, 82176, Note_on_c, 13, 47, 0
20, 82432, Note_on_c, 13, 49, 46
20, 82688, Note_on_c, 13, 49, 0
20, 82944, Note_on_c, 13, 54, 47
20, 83149, Note_on_c, 13, 54, 0
20, 83200, Note_on_c, 13, 53, 60
20, 83405, Note_on_c, 13, 53, 0
20, 83456, Note_on_c, 13, 54, 74
20, 83661, Note_on_c, 13, 54, 0
20, 83712, Note_on_c, 13, 56, 88
20, 83917, Note_on_c, 13, 56, 0
20, 83968, Note_on_c, 13, 57, 101
20, 84173, Note_on_c, 13, 57, 0
20, 84224, Note_on_c, 13, 59, 108
20, 84429, Note_on_c, 13, 59, 0
20, 84480, Note_on_c, 13, 61, 109
20, 84736, Note_on_c, 13, 61, 0
20, 84992, Note_on_c, 13, 49, 104
20, 85197, Note_on_c, 13, 49, 0
20, 85248, Note_on_c, 13, 51, 105
20, 85453, Note_on_c, 13, 51, 0
20, 85504, Note_on_c, 13, 53, 107
20, 85709, Note_on_c, 13, 53, 0
20, 85760, Note_on_c, 13, 49, 108
20, 85965, Note_on_c, 13, 49, 0
20, 86016, Note_on_c, 13, 54, 103
20, 87808, Note_on_c, 13, 54, 0
20, 88064, Note_on_c, 13, 52, 54
20, 88320, Note_on_c, 13, 52, 0
20, 88576, Note_on_c, 13, 45, 60
20, 88832, Note_on_c, 13, 45, 0
20, 89088, Note_on_c, 13, 50, 66
20, 89293, Note_on_c, 13, 50, 0
20, 89344, Note_on_c, 13, 49, 75
20, 89549, Note_on_c, 13, 49, 0
20, 89600, Note_on_c, 13, 50, 85
20, 89805, Note_on_c, 13, 50, 0
20, 89856, Note_on_c, 13, 52, 94
20, 90061, Note_on_c, 13, 52, 0
20, 90112, Note_on_c, 13, 54, 104
20, 90317, Note_on_c, 13, 54, 0
20, 90368, Note_on_c, 13, 55, 106
20, 90573, Note_on_c, 13, 55, 0
20, 90624, Note_on_c, 13, 57, 107
20, 90829, Note_on_c, 13, 57, 0
20, 90880, Note_on_c, 13, 55, 108
20, 91085, Note_on_c, 13, 55, 0
20, 91136, Note_on_c, 13, 57, 109
20, 91341, Note_on_c, 13, 57, 0
20, 91392, Note_on_c, 13, 59, 110
20, 91597, Note_on_c, 13, 59, 0
20, 91648, Note_on_c, 13, 61, 111
20, 91853, Note_on_c, 13, 61, 0
20, 91904, Note_on_c, 13, 57, 112
20, 92109, Note_on_c, 13, 57, 0
20, 92160, Note_on_c, 13, 62, 113
20, 92416, Note_on_c, 13, 62, 0
20, 92672, Note_on_c, 13, 57, 96
20, 92928, Note_on_c, 13, 57, 0
20, 93184, Note_on_c, 13, 58, 49
20, 93440, Note_on_c, 13, 58, 0
20, 93696, Note_on_c, 13, 59, 41
20, 93952, Note_on_c, 13, 59, 0
20, 94208, Note_on_c, 13, 52, 41
20, 94464, Note_on_c, 13, 52, 0
20, 94720, Note_on_c, 13, 54, 41
20, 94976, Note_on_c, 13, 54, 0
20, 95232, Note_on_c, 13, 59, 41
20, 95488, Note_on_c, 13, 59, 0
20, 95744, Note_on_c, 13, 47, 41
20, 96000, Note_on_c, 13, 47, 0
20, 97792, Note_on_c, 13, 59, 41
20, 98048, Note_on_c, 13, 59, 0
20, 98304, Note_on_c, 13, 64, 41
20, 98560, Note_on_c, 13, 64, 0
20, 98816, Note_on_c, 13, 52, 41
20, 99072, Note_on_c, 13, 52, 0
20, 100864, Note_on_c, 13, 52, 41
20, 101120, Note_on_c, 13, 52, 0
20, 101376, Note_on_c, 13, 57, 41
20, 101632, Note_on_c, 13, 57, 0
20, 101888, Note_on_c, 13, 45, 41
20, 102144, Note_on_c, 13, 45, 0
20, 103936, Note_on_c, 13, 57, 41
20, 104192, Note_on_c, 13, 57, 0
20, 104448, Note_on_c, 13, 62, 41
20, 104704, Note_on_c, 13, 62, 0
20, 104960, Note_on_c, 13, 50, 41
20, 105216, Note_on_c, 13, 50, 0
20, 107008, Note_on_c, 13, 50, 41
20, 107264, Note_on_c, 13, 50, 0
20, 107520, Note_on_c, 13, 55, 41
20, 107776, Note_on_c, 13, 55, 0
20, 108032, Note_on_c, 13, 43, 41
20, 108288, Note_on_c, 13, 43, 0
20, 117760, Note_on_c, 13, 59, 61
20, 118016, Note_on_c, 13, 59, 0
20, 118272, Note_on_c, 13, 56, 65
20, 118477, Note_on_c, 13, 56, 0
20, 118528, Note_on_c, 13, 54, 66
20, 118733, Note_on_c, 13, 54, 0
20, 118784, Note_on_c, 13, 52, 68
20, 118989, Note_on_c, 13, 52, 0
20, 119040, Note_on_c, 13, 56, 70
20, 119245, Note_on_c, 13, 56, 0
20, 119296, Note_on_c, 13, 54, 72
20, 119501, Note_on_c, 13, 54, 0
20, 119552, Note_on_c, 13, 57, 73
20, 119757, Note_on_c, 13, 57, 0
20, 119808, Note_on_c, 13, 56, 75
20, 120013, Note_on_c, 13, 56, 0
20, 120064, Note_on_c, 13, 54, 77
20, 120269, Note_on_c, 13, 54, 0
20, 120320, Note_on_c, 13, 56, 78
20, 120525, Note_on_c, 13, 56, 0
20, 120576, Note_on_c, 13, 57, 80
20, 120781, Note_on_c, 13, 57, 0
20, 120832, Note_on_c, 13, 54, 82
20, 121037, Note_on_c, 13, 54, 0
20, 121088, Note_on_c, 13, 56, 84
20, 121293, Note_on_c, 13, 56, 0
20, 121344, Note_on_c, 13, 57, 85
20, 121600, Note_on_c, 13, 57, 0
20, 121856, Note_on_c, 13, 52, 89
20, 122061, Note_on_c, 13, 52, 0
20, 122112, Note_on_c, 13, 57, 90
20, 122317, Note_on_c, 13, 57, 0
20, 122368, Note_on_c, 13, 56, 92
20, 122573, Note_on_c, 13, 56, 0
20, 122624, Note_on_c, 13, 59, 94
20, 122829, Note_on_c, 13, 59, 0
20, 122880, Note_on_c, 13, 57, 96
20, 123136, Note_on_c, 13, 57, 0
20, 123392, Note_on_c, 13, 57, 99
20, 123648, Note_on_c, 13, 57, 0
20, 123904, Note_on_c, 13, 57, 98
20, 124160, Note_on_c, 13, 57, 0
20, 124416, Note_on_c, 13, 57, 97
20, 127744, Note_on_c, 13, 57, 0
20, 128000, Note_on_c, 13, 57, 103
20, 128256, Note_on_c, 13, 57, 0
20, 128512, Note_on_c, 13, 57, 108
20, 128768, Note_on_c, 13, 57, 0
20, 129024, Note_on_c, 13, 64, 113
20, 129280, Note_on_c, 13, 64, 0
20, 129536, Note_on_c, 13, 57, 111
20, 129792, Note_on_c, 13, 57, 0
20, 131584, Note_on_c, 13, 55, 101
20, 131840, Note_on_c, 13, 55, 0
20, 132096, Note_on_c, 13, 54, 102
20, 132352, Note_on_c, 13, 54, 0
20, 132608, Note_on_c, 13, 50, 104
20, 132864, Note_on_c, 13, 50, 0
20, 133120, Note_on_c, 13, 57, 105
20, 133376, Note_on_c, 13, 57, 0
20, 133632, Note_on_c, 13, 60, 107
20, 133888, Note_on_c, 13, 60, 0
20, 134144, Note_on_c, 13, 54, 108
20, 134400, Note_on_c, 13, 54, 0
20, 134656, Note_on_c, 13, 57, 110
20, 134912, Note_on_c, 13, 57, 0
20, 135168, Note_on_c, 13, 63, 111
20, 135373, Note_on_c, 13, 63, 0
20, 135424, Note_on_c, 13, 61, 110
20, 135629, Note_on_c, 13, 61, 0
20, 135680, Note_on_c, 13, 63, 108
20, 135885, Note_on_c, 13, 63, 0
20, 135936, Note_on_c, 13, 64, 105
20, 136141, Note_on_c, 13, 64, 0
20, 136192, Note_on_c, 13, 61, 103
20, 136397, Note_on_c, 13, 61, 0
20, 136448, Note_on_c, 13, 63, 100
20, 136653, Note_on_c, 13, 63, 0
20, 136704, Note_on_c, 13, 64, 93
20, 136960, Note_on_c, 13, 64, 0
20, 137216, Note_on_c, 13, 52, 94
20, 137472, Note_on_c, 13, 52, 0
20, 139264, Note_on_c, 13, 52, 100
20, 139520, Note_on_c, 13, 52, 0
20, 139776, Note_on_c, 13, 57, 102
20, 140032, Note_on_c, 13, 57, 0
20, 140288, Note_on_c, 13, 45, 103
20, 140544, Note_on_c, 13, 45, 0
20, 140800, Note_on_c, 13, 45, 104
20, 141056, Note_on_c, 13, 45, 0
20, 141312, Note_on_c, 13, 57, 106
20, 141568, Note_on_c, 13, 57, 0
20, 141824, Note_on_c, 13, 57, 107
20, 142080, Note_on_c, 13, 57, 0
20, 142336, Note_on_c, 13, 61, 109
20, 142592, Note_on_c, 13, 61, 0
20, 142848, Note_on_c, 13, 62, 110
20, 143104, Note_on_c, 13, 62, 0
20, 143360, Note_on_c, 13, 50, 111
20, 143616, Note_on_c, 13, 50, 0
20, 143872, Note_on_c, 13, 49, 109
20, 144128, Note_on_c, 13, 49, 0
20, 144384, Note_on_c, 13, 47, 106
20, 144640, Note_on_c, 13, 47, 0
20, 144896, Note_on_c, 13, 59, 103
20, 145152, Note_on_c, 13, 59, 0
20, 148480, Note_on_c, 13, 62, 114
20, 148736, Note_on_c, 13, 62, 0
20, 148992, Note_on_c, 13, 61, 110
20, 149248, Note_on_c, 13, 61, 0
20, 149504, Note_on_c, 13, 49, 107
20, 149760, Note_on_c, 13, 49, 0
20, 150016, Note_on_c, 13, 47, 103
20, 150272, Note_on_c, 13, 47, 0
20, 150528, Note_on_c, 13, 45, 96
20, 150784, Note_on_c, 13, 45, 0
20, 151040, Note_on_c, 13, 57, 99
20, 151296, Note_on_c, 13, 57, 0
20, 156160, Note_on_c, 13, 52, 102
20, 156416, Note_on_c, 13, 52, 0
20, 156672, Note_on_c, 13, 57, 105
20, 156928, Note_on_c, 13, 57, 0
20, 157184, Note_on_c, 13, 45, 107
20, 157440, Note_on_c, 13, 45, 0
20, 157696, Note_on_c, 13, 54, 110
20, 157952, Note_on_c, 13, 54, 0
20, 158208, Note_on_c, 13, 59, 113
20, 158464, Note_on_c, 13, 59, 0
20, 158720, Note_on_c, 13, 55, 116
20, 158976, Note_on_c, 13, 55, 0
20, 159232, Note_on_c, 13, 57, 118
20, 159488, Note_on_c, 13, 57, 0
20, 159744, Note_on_c, 13, 54, 121
20, 160000, Note_on_c, 13, 54, 0
20, 160256, Note_on_c, 13, 62, 89
20, 160512, Note_on_c, 13, 62, 0
20, 166912, Note_on_c, 13, 50, 100
20, 167168, Note_on_c, 13, 50, 0
20, 167424, Note_on_c, 13, 57, 102
20, 167680, Note_on_c, 13, 57, 0
20, 167936, Note_on_c, 13, 57, 104
20, 168192, Note_on_c, 13, 57, 0
20, 168448, Note_on_c, 13, 57, 105
20, 168704, Note_on_c, 13, 57, 0
20, 168960, Note_on_c, 13, 62, 107
20, 169216, Note_on_c, 13, 62, 0
20, 169472, Note_on_c, 13, 57, 109
20, 169728, Note_on_c, 13, 57, 0
20, 169984, Note_on_c, 13, 55, 111
20, 170240, Note_on_c, 13, 55, 0
20, 170496, Note_on_c, 13, 54, 113
20, 170752, Note_on_c, 13, 54, 0
20, 171008, Note_on_c, 13, 55, 114
20, 171264, Note_on_c, 13, 55, 0
20, 171520, Note_on_c, 13, 57, 116
20, 171776, Note_on_c, 13, 57, 0
20, 172032, Note_on_c, 13, 50, 118
20, 172288, Note_on_c, 13, 50, 0
20, 172544, Note_on_c, 13, 50, 84
20, 172800, Note_on_c, 13, 50, 0
20, 174592, Note_on_c, 13, 56, 63
20, 174848, Note_on_c, 13, 56, 0
20, 175104, Note_on_c, 13, 57, 66
20, 175360, Note_on_c, 13, 57, 0
20, 175616, Note_on_c, 13, 45, 70
20, 175872, Note_on_c, 13, 45, 0
20, 176128, Note_on_c, 13, 49, 101
20, 176384, Note_on_c, 13, 49, 0
20, 176640, Note_on_c, 13, 50, 109
20, 176896, Note_on_c, 13, 50, 0
20, 177152, Note_on_c, 13, 54, 113
20, 177408, Note_on_c, 13, 54, 0
20, 177664, Note_on_c, 13, 57, 117
20, 177920, Note_on_c, 13, 57, 0
20, 178176, Note_on_c, 13, 50, 121
20, 179115, Note_on_c, 13, 50, 0
20, 230400, End_track
0, 0, End_of_file
