0, 0, Header, 1, 9, 1024
1, 0, Start_track
1, 0, Time_signature, 3, 2, 24, 8
1, 0, Key_signature, 0, "major"
1, 0, Tempo, 750000
1, 325632, End_track
2, 0, Start_track
2, 0, Title_t, "Instrument 1"
2, 67584, Note_on_c, 0, 72, 96
2, 68608, Note_off_c, 0, 72, 0
2, 68608, Note_on_c, 0, 72, 96
2, 69632, Note_off_c, 0, 72, 0
2, 69632, Note_on_c, 0, 79, 96
2, 70656, Note_off_c, 0, 79, 0
2, 70656, Note_on_c, 0, 76, 96
2, 72192, Note_off_c, 0, 76, 0
2, 72192, Note_on_c, 0, 74, 96
2, 72704, Note_off_c, 0, 74, 0
2, 72704, Note_on_c, 0, 72, 96
2, 73728, Note_off_c, 0, 72, 0
2, 73728, Note_on_c, 0, 71, 96
2, 75264, Note_off_c, 0, 71, 0
2, 75264, Note_on_c, 0, 69, 96
2, 75776, Note_off_c, 0, 69, 0
2, 75776, Note_on_c, 0, 67, 96
2, 76800, Note_off_c, 0, 67, 0
2, 76800, Note_on_c, 0, 72, 96
2, 77824, Note_off_c, 0, 72, 0
2, 77824, Note_on_c, 0, 74, 96
2, 78848, Note_off_c, 0, 74, 0
2, 78848, Note_on_c, 0, 76, 96
2, 79360, Note_off_c, 0, 76, 0
2, 79360, Note_on_c, 0, 77, 96
2, 79872, Note_off_c, 0, 77, 0
2, 79872, Note_on_c, 0, 74, 96
2, 82944, Note_off_c, 0, 74, 0
2, 82944, Note_on_c, 0, 72, 96
2, 83968, Note_off_c, 0, 72, 0
2, 150528, Note_on_c, 0, 72, 96
2, 151552, Note_off_c, 0, 72, 0
2, 151552, Note_on_c, 0, 72, 96
2, 152576, Note_off_c, 0, 72, 0
2, 152576, Note_on_c, 0, 79, 96
2, 153600, Note_off_c, 0, 79, 0
2, 153600, Note_on_c, 0, 76, 96
2, 155136, Note_off_c, 0, 76, 0
2, 155136, Note_on_c, 0, 74, 96
2, 155648, Note_off_c, 0, 74, 0
2, 155648, Note_on_c, 0, 72, 96
2, 156672, Note_off_c, 0, 72, 0
2, 156672, Note_on_c, 0, 71, 96
2, 158208, Note_off_c, 0, 71, 0
2, 158208, Note_on_c, 0, 69, 96
2, 158720, Note_off_c, 0, 69, 0
2, 158720, Note_on_c, 0, 67, 96
2, 159744, Note_off_c, 0, 67, 0
2, 159744, Note_on_c, 0, 72, 96
2, 160768, Note_off_c, 0, 72, 0
2, 160768, Note_on_c, 0, 74, 96
2, 161792, Note_off_c, 0, 74, 0
2, 161792, Note_on_c, 0, 76, 96
2, 162304, Note_off_c, 0, 76, 0
2, 162304, Note_on_c, 0, 77, 96
2, 162816, Note_off_c, 0, 77, 0
2, 162816, Note_on_c, 0, 74, 96
2, 165888, Note_off_c, 0, 74, 0
2, 165888, Note_on_c, 0, 72, 96
2, 166912, Note_off_c, 0, 72, 0
2, 184320, Note_on_c, 0, 76, 96
2, 185856, Note_off_c, 0, 76, 0
2, 185856, Note_on_c, 0, 74, 96
2, 186368, Note_off_c, 0, 74, 0
2, 186368, Note_on_c, 0, 76, 96
2, 187392, Note_off_c, 0, 76, 0
2, 187392, Note_on_c, 0, 77, 96
2, 189440, Note_off_c, 0, 77, 0
2, 193536, Note_on_c, 0, 76, 96
2, 195072, Note_off_c, 0, 76, 0
2, 195072, Note_on_c, 0, 77, 96
2, 195584, Note_off_c, 0, 77, 0
2, 195584, Note_on_c, 0, 79, 96
2, 196608, Note_off_c, 0, 79, 0
2, 196608, Note_on_c, 0, 79, 96
2, 198144, Note_off_c, 0, 79, 0
2, 198144, Note_on_c, 0, 77, 96
2, 198656, Note_off_c, 0, 77, 0
2, 198656, Note_on_c, 0, 76, 96
2, 199680, Note_off_c, 0, 76, 0
2, 199680, Note_on_c, 0, 74, 96
2, 201728, Note_off_c, 0, 74, 0
2, 264192, Note_on_c, 0, 67, 96
2, 265216, Note_off_c, 0, 67, 0
2, 265216, Note_on_c, 0, 69, 96
2, 266240, Note_off_c, 0, 69, 0
2, 266240, Note_on_c, 0, 71, 96
2, 267264, Note_off_c, 0, 71, 0
2, 267264, Note_on_c, 0, 72, 96
2, 268800, Note_off_c, 0, 72, 0
2, 268800, Note_on_c, 0, 74, 96
2, 269312, Note_off_c, 0, 74, 0
2, 269312, Note_on_c, 0, 76, 96
2, 270336, Note_off_c, 0, 76, 0
2, 270336, Note_on_c, 0, 74, 96
2, 273408, Note_off_c, 0, 74, 0
2, 273408, Note_on_c, 0, 72, 96
2, 275456, Note_off_c, 0, 72, 0
2, 325632, End_track
3, 0, Start_track
3, 0, Title_t, "Instrument 2"
3, 49664, Note_on_c, 1, 67, 96
3, 49920, Note_off_c, 1, 67, 0
3, 49920, Note_on_c, 1, 65, 96
3, 50176, Note_off_c, 1, 65, 0
3, 50176, Note_on_c, 1, 64, 96
3, 50688, Note_off_c, 1, 64, 0
3, 50688, Note_on_c, 1, 69, 96
3, 51712, Note_off_c, 1, 69, 0
3, 51712, Note_on_c, 1, 67, 96
3, 52224, Note_off_c, 1, 67, 0
3, 52224, Note_on_c, 1, 65, 96
3, 52480, Note_off_c, 1, 65, 0
3, 52480, Note_on_c, 1, 64, 96
3, 52736, Note_off_c, 1, 64, 0
3, 52736, Note_on_c, 1, 65, 96
3, 52992, Note_off_c, 1, 65, 0
3, 52992, Note_on_c, 1, 64, 96
3, 53248, Note_off_c, 1, 64, 0
3, 53248, Note_on_c, 1, 65, 96
3, 53760, Note_off_c, 1, 65, 0
3, 53760, Note_on_c, 1, 74, 96
3, 54784, Note_off_c, 1, 74, 0
3, 54784, Note_on_c, 1, 65, 96
3, 55040, Note_off_c, 1, 65, 0
3, 55040, Note_on_c, 1, 65, 96
3, 55296, Note_off_c, 1, 65, 0
3, 55296, Note_on_c, 1, 64, 96
3, 55808, Note_off_c, 1, 64, 0
3, 55808, Note_on_c, 1, 64, 96
3, 56064, Note_off_c, 1, 64, 0
3, 56064, Note_on_c, 1, 66, 96
3, 56320, Note_off_c, 1, 66, 0
3, 56320, Note_on_c, 1, 67, 96
3, 56832, Note_off_c, 1, 67, 0
3, 56832, Note_on_c, 1, 69, 96
3, 57088, Note_off_c, 1, 69, 0
3, 57088, Note_on_c, 1, 71, 96
3, 57344, Note_off_c, 1, 71, 0
3, 57344, Note_on_c, 1, 72, 96
3, 57856, Note_off_c, 1, 72, 0
3, 57856, Note_on_c, 1, 71, 96
3, 58112, Note_off_c, 1, 71, 0
3, 58112, Note_on_c, 1, 72, 96
3, 58368, Note_off_c, 1, 72, 0
3, 58368, Note_on_c, 1, 69, 96
3, 61440, Note_off_c, 1, 69, 0
3, 61440, Note_on_c, 1, 67, 96
3, 62464, Note_off_c, 1, 67, 0
3, 62720, Note_on_c, 1, 64, 96
3, 62976, Note_off_c, 1, 64, 0
3, 62976, Note_on_c, 1, 65, 96
3, 63232, Note_off_c, 1, 65, 0
3, 63232, Note_on_c, 1, 67, 96
3, 63488, Note_off_c, 1, 67, 0
3, 63488, Note_on_c, 1, 69, 96
3, 63744, Note_off_c, 1, 69, 0
3, 63744, Note_on_c, 1, 71, 96
3, 64000, Note_off_c, 1, 71, 0
3, 64000, Note_on_c, 1, 72, 96
3, 64256, Note_off_c, 1, 72, 0
3, 64256, Note_on_c, 1, 69, 96
3, 64512, Note_off_c, 1, 69, 0
3, 64512, Note_on_c, 1, 74, 96
3, 65024, Note_off_c, 1, 74, 0
3, 65024, Note_on_c, 1, 62, 96
3, 65536, Note_off_c, 1, 62, 0
3, 66048, Note_on_c, 1, 67, 96
3, 66304, Note_off_c, 1, 67, 0
3, 66304, Note_on_c, 1, 69, 96
3, 66560, Note_off_c, 1, 69, 0
3, 66560, Note_on_c, 1, 71, 96
3, 66816, Note_off_c, 1, 71, 0
3, 66816, Note_on_c, 1, 72, 96
3, 67072, Note_off_c, 1, 72, 0
3, 67072, Note_on_c, 1, 74, 96
3, 67328, Note_off_c, 1, 74, 0
3, 67328, Note_on_c, 1, 71, 96
3, 67584, Note_off_c, 1, 71, 0
3, 67584, Note_on_c, 1, 76, 96
3, 68096, Note_off_c, 1, 76, 0
3, 68096, Note_on_c, 1, 67, 96
3, 68608, Note_off_c, 1, 67, 0
3, 68864, Note_on_c, 1, 67, 96
3, 69120, Note_off_c, 1, 67, 0
3, 69120, Note_on_c, 1, 65, 96
3, 69376, Note_off_c, 1, 65, 0
3, 69376, Note_on_c, 1, 64, 96
3, 69632, Note_off_c, 1, 64, 0
3, 69632, Note_on_c, 1, 62, 96
3, 70144, Note_off_c, 1, 62, 0
3, 70144, Note_on_c, 1, 60, 96
3, 70400, Note_off_c, 1, 60, 0
3, 70400, Note_on_c, 1, 62, 96
3, 70656, Note_off_c, 1, 62, 0
3, 70656, Note_on_c, 1, 64, 96
3, 71168, Note_off_c, 1, 64, 0
3, 71168, Note_on_c, 1, 60, 96
3, 71680, Note_off_c, 1, 60, 0
3, 72192, Note_on_c, 1, 64, 96
3, 72704, Note_off_c, 1, 64, 0
3, 72704, Note_on_c, 1, 66, 96
3, 73216, Note_off_c, 1, 66, 0
3, 73216, Note_on_c, 1, 64, 96
3, 73472, Note_off_c, 1, 64, 0
3, 73472, Note_on_c, 1, 66, 96
3, 73728, Note_off_c, 1, 66, 0
3, 73728, Note_on_c, 1, 67, 96
3, 74240, Note_off_c, 1, 67, 0
3, 74240, Note_on_c, 1, 59, 96
3, 74496, Note_off_c, 1, 59, 0
3, 74496, Note_on_c, 1, 60, 96
3, 74752, Note_off_c, 1, 60, 0
3, 74752, Note_on_c, 1, 62, 96
3, 75264, Note_off_c, 1, 62, 0
3, 75264, Note_on_c, 1, 64, 96
3, 75520, Note_off_c, 1, 64, 0
3, 75520, Note_on_c, 1, 65, 96
3, 75776, Note_off_c, 1, 65, 0
3, 75776, Note_on_c, 1, 67, 96
3, 77056, Note_off_c, 1, 67, 0
3, 77056, Note_on_c, 1, 71, 96
3, 77312, Note_off_c, 1, 71, 0
3, 77312, Note_on_c, 1, 69, 96
3, 77568, Note_off_c, 1, 69, 0
3, 77568, Note_on_c, 1, 67, 96
3, 77824, Note_off_c, 1, 67, 0
3, 77824, Note_on_c, 1, 65, 96
3, 78080, Note_off_c, 1, 65, 0
3, 78080, Note_on_c, 1, 69, 96
3, 78336, Note_off_c, 1, 69, 0
3, 78336, Note_on_c, 1, 67, 96
3, 78592, Note_off_c, 1, 67, 0
3, 78592, Note_on_c, 1, 65, 96
3, 78848, Note_off_c, 1, 65, 0
3, 78848, Note_on_c, 1, 64, 96
3, 79360, Note_off_c, 1, 64, 0
3, 79360, Note_on_c, 1, 62, 96
3, 79616, Note_off_c, 1, 62, 0
3, 79616, Note_on_c, 1, 60, 96
3, 79872, Note_off_c, 1, 60, 0
3, 79872, Note_on_c, 1, 69, 96
3, 80384, Note_off_c, 1, 69, 0
3, 80384, Note_on_c, 1, 67, 96
3, 80640, Note_off_c, 1, 67, 0
3, 80640, Note_on_c, 1, 65, 96
3, 80896, Note_off_c, 1, 65, 0
3, 80896, Note_on_c, 1, 67, 96
3, 82944, Note_off_c, 1, 67, 0
3, 82944, Note_on_c, 1, 64, 96
3, 83968, Note_off_c, 1, 64, 0
3, 132608, Note_on_c, 1, 67, 96
3, 132864, Note_off_c, 1, 67, 0
3, 132864, Note_on_c, 1, 65, 96
3, 133120, Note_off_c, 1, 65, 0
3, 133120, Note_on_c, 1, 64, 96
3, 133632, Note_off_c, 1, 64, 0
3, 133632, Note_on_c, 1, 69, 96
3, 134656, Note_off_c, 1, 69, 0
3, 134656, Note_on_c, 1, 67, 96
3, 134912, Note_off_c, 1, 67, 0
3, 134912, Note_on_c, 1, 69, 96
3, 135168, Note_off_c, 1, 69, 0
3, 135168, Note_on_c, 1, 65, 96
3, 135424, Note_off_c, 1, 65, 0
3, 135424, Note_on_c, 1, 64, 96
3, 135680, Note_off_c, 1, 64, 0
3, 135680, Note_on_c, 1, 65, 96
3, 135936, Note_off_c, 1, 65, 0
3, 135936, Note_on_c, 1, 64, 96
3, 136192, Note_off_c, 1, 64, 0
3, 136192, Note_on_c, 1, 65, 96
3, 136704, Note_off_c, 1, 65, 0
3, 136704, Note_on_c, 1, 74, 96
3, 137728, Note_off_c, 1, 74, 0
3, 137728, Note_on_c, 1, 65, 96
3, 137984, Note_off_c, 1, 65, 0
3, 137984, Note_on_c, 1, 67, 96
3, 138240, Note_off_c, 1, 67, 0
3, 138240, Note_on_c, 1, 64, 96
3, 138752, Note_off_c, 1, 64, 0
3, 138752, Note_on_c, 1, 64, 96
3, 139008, Note_off_c, 1, 64, 0
3, 139008, Note_on_c, 1, 66, 96
3, 139264, Note_off_c, 1, 66, 0
3, 139264, Note_on_c, 1, 67, 96
3, 139776, Note_off_c, 1, 67, 0
3, 139776, Note_on_c, 1, 69, 96
3, 140032, Note_off_c, 1, 69, 0
3, 140032, Note_on_c, 1, 71, 96
3, 140288, Note_off_c, 1, 71, 0
3, 140288, Note_on_c, 1, 72, 96
3, 140800, Note_off_c, 1, 72, 0
3, 140800, Note_on_c, 1, 71, 96
3, 141056, Note_off_c, 1, 71, 0
3, 141056, Note_on_c, 1, 72, 96
3, 141312, Note_off_c, 1, 72, 0
3, 141312, Note_on_c, 1, 69, 96
3, 144384, Note_off_c, 1, 69, 0
3, 144384, Note_on_c, 1, 67, 96
3, 145408, Note_off_c, 1, 67, 0
3, 145664, Note_on_c, 1, 64, 96
3, 145920, Note_off_c, 1, 64, 0
3, 145920, Note_on_c, 1, 65, 96
3, 146176, Note_off_c, 1, 65, 0
3, 146176, Note_on_c, 1, 67, 96
3, 146432, Note_off_c, 1, 67, 0
3, 146432, Note_on_c, 1, 69, 96
3, 146688, Note_off_c, 1, 69, 0
3, 146688, Note_on_c, 1, 71, 96
3, 146944, Note_off_c, 1, 71, 0
3, 146944, Note_on_c, 1, 72, 96
3, 147200, Note_off_c, 1, 72, 0
3, 147200, Note_on_c, 1, 69, 96
3, 147456, Note_off_c, 1, 69, 0
3, 147456, Note_on_c, 1, 74, 96
3, 147968, Note_off_c, 1, 74, 0
3, 147968, Note_on_c, 1, 62, 96
3, 148480, Note_off_c, 1, 62, 0
3, 148992, Note_on_c, 1, 67, 96
3, 149248, Note_off_c, 1, 67, 0
3, 149248, Note_on_c, 1, 69, 96
3, 149504, Note_off_c, 1, 69, 0
3, 149504, Note_on_c, 1, 71, 96
3, 149760, Note_off_c, 1, 71, 0
3, 149760, Note_on_c, 1, 72, 96
3, 150016, Note_off_c, 1, 72, 0
3, 150016, Note_on_c, 1, 74, 96
3, 150272, Note_off_c, 1, 74, 0
3, 150272, Note_on_c, 1, 71, 96
3, 150528, Note_off_c, 1, 71, 0
3, 150528, Note_on_c, 1, 76, 96
3, 151040, Note_off_c, 1, 76, 0
3, 151040, Note_on_c, 1, 67, 96
3, 151552, Note_off_c, 1, 67, 0
3, 151808, Note_on_c, 1, 67, 96
3, 152064, Note_off_c, 1, 67, 0
3, 152064, Note_on_c, 1, 65, 96
3, 152320, Note_off_c, 1, 65, 0
3, 152320, Note_on_c, 1, 64, 96
3, 152576, Note_off_c, 1, 64, 0
3, 152576, Note_on_c, 1, 62, 96
3, 152832, Note_off_c, 1, 62, 0
3, 152832, Note_on_c, 1, 64, 96
3, 153088, Note_off_c, 1, 64, 0
3, 153088, Note_on_c, 1, 60, 96
3, 153344, Note_off_c, 1, 60, 0
3, 153344, Note_on_c, 1, 62, 96
3, 153600, Note_off_c, 1, 62, 0
3, 153600, Note_on_c, 1, 64, 96
3, 154112, Note_off_c, 1, 64, 0
3, 154112, Note_on_c, 1, 60, 96
3, 154624, Note_off_c, 1, 60, 0
3, 155136, Note_on_c, 1, 64, 96
3, 155648, Note_off_c, 1, 64, 0
3, 155648, Note_on_c, 1, 66, 96
3, 156160, Note_off_c, 1, 66, 0
3, 156160, Note_on_c, 1, 64, 96
3, 156416, Note_off_c, 1, 64, 0
3, 156416, Note_on_c, 1, 66, 96
3, 156672, Note_off_c, 1, 66, 0
3, 156672, Note_on_c, 1, 67, 96
3, 157184, Note_off_c, 1, 67, 0
3, 157184, Note_on_c, 1, 59, 96
3, 157440, Note_off_c, 1, 59, 0
3, 157440, Note_on_c, 1, 60, 96
3, 157696, Note_off_c, 1, 60, 0
3, 157696, Note_on_c, 1, 62, 96
3, 158208, Note_off_c, 1, 62, 0
3, 158208, Note_on_c, 1, 64, 96
3, 158464, Note_off_c, 1, 64, 0
3, 158464, Note_on_c, 1, 65, 96
3, 158720, Note_off_c, 1, 65, 0
3, 158720, Note_on_c, 1, 67, 96
3, 160000, Note_off_c, 1, 67, 0
3, 160000, Note_on_c, 1, 71, 96
3, 160256, Note_off_c, 1, 71, 0
3, 160256, Note_on_c, 1, 69, 96
3, 160512, Note_off_c, 1, 69, 0
3, 160512, Note_on_c, 1, 67, 96
3, 160768, Note_off_c, 1, 67, 0
3, 160768, Note_on_c, 1, 65, 96
3, 161024, Note_off_c, 1, 65, 0
3, 161024, Note_on_c, 1, 69, 96
3, 161280, Note_off_c, 1, 69, 0
3, 161280, Note_on_c, 1, 67, 96
3, 161536, Note_off_c, 1, 67, 0
3, 161536, Note_on_c, 1, 65, 96
3, 161792, Note_off_c, 1, 65, 0
3, 161792, Note_on_c, 1, 64, 96
3, 162304, Note_off_c, 1, 64, 0
3, 162304, Note_on_c, 1, 62, 96
3, 162560, Note_off_c, 1, 62, 0
3, 162560, Note_on_c, 1, 60, 96
3, 162816, Note_off_c, 1, 60, 0
3, 162816, Note_on_c, 1, 69, 96
3, 163328, Note_off_c, 1, 69, 0
3, 163328, Note_on_c, 1, 67, 96
3, 163584, Note_off_c, 1, 67, 0
3, 163584, Note_on_c, 1, 65, 96
3, 163840, Note_off_c, 1, 65, 0
3, 163840, Note_on_c, 1, 67, 96
3, 165888, Note_off_c, 1, 67, 0
3, 165888, Note_on_c, 1, 64, 96
3, 166912, Note_off_c, 1, 64, 0
3, 184320, Note_on_c, 1, 72, 96
3, 185856, Note_off_c, 1, 72, 0
3, 185856, Note_on_c, 1, 71, 96
3, 186368, Note_off_c, 1, 71, 0
3, 186368, Note_on_c, 1, 72, 96
3, 187392, Note_off_c, 1, 72, 0
3, 187392, Note_on_c, 1, 69, 96
3, 189440, Note_off_c, 1, 69, 0
3, 193536, Note_on_c, 1, 72, 96
3, 195072, Note_off_c, 1, 72, 0
3, 195072, Note_on_c, 1, 60, 96
3, 195584, Note_off_c, 1, 60, 0
3, 195584, Note_on_c, 1, 72, 96
3, 196608, Note_off_c, 1, 72, 0
3, 196608, Note_on_c, 1, 72, 96
3, 198144, Note_off_c, 1, 72, 0
3, 198144, Note_on_c, 1, 72, 96
3, 198656, Note_off_c, 1, 72, 0
3, 198656, Note_on_c, 1, 72, 96
3, 199680, Note_off_c, 1, 72, 0
3, 199680, Note_on_c, 1, 71, 96
3, 201728, Note_off_c, 1, 71, 0
3, 252416, Note_on_c, 1, 67, 96
3, 252672, Note_off_c, 1, 67, 0
3, 252672, Note_on_c, 1, 65, 96
3, 252928, Note_off_c, 1, 65, 0
3, 252928, Note_on_c, 1, 64, 96
3, 253440, Note_off_c, 1, 64, 0
3, 253440, Note_on_c, 1, 69, 96
3, 254464, Note_off_c, 1, 69, 0
3, 254464, Note_on_c, 1, 67, 96
3, 254976, Note_off_c, 1, 67, 0
3, 254976, Note_on_c, 1, 65, 96
3, 255488, Note_off_c, 1, 65, 0
3, 255488, Note_on_c, 1, 65, 96
3, 255744, Note_off_c, 1, 65, 0
3, 255744, Note_on_c, 1, 64, 96
3, 256000, Note_off_c, 1, 64, 0
3, 256000, Note_on_c, 1, 65, 96
3, 256512, Note_off_c, 1, 65, 0
3, 256512, Note_on_c, 1, 74, 96
3, 257536, Note_off_c, 1, 74, 0
3, 257536, Note_on_c, 1, 65, 96
3, 258048, Note_off_c, 1, 65, 0
3, 258048, Note_on_c, 1, 64, 96
3, 258560, Note_off_c, 1, 64, 0
3, 258560, Note_on_c, 1, 64, 96
3, 258816, Note_off_c, 1, 64, 0
3, 258816, Note_on_c, 1, 62, 96
3, 259072, Note_off_c, 1, 62, 0
3, 259072, Note_on_c, 1, 60, 96
3, 259584, Note_off_c, 1, 60, 0
3, 259584, Note_on_c, 1, 62, 96
3, 259840, Note_off_c, 1, 62, 0
3, 259840, Note_on_c, 1, 64, 96
3, 260096, Note_off_c, 1, 64, 0
3, 260096, Note_on_c, 1, 65, 96
3, 260608, Note_off_c, 1, 65, 0
3, 260608, Note_on_c, 1, 64, 96
3, 260864, Note_off_c, 1, 64, 0
3, 260864, Note_on_c, 1, 65, 96
3, 261120, Note_off_c, 1, 65, 0
3, 261120, Note_on_c, 1, 62, 96
3, 264192, Note_off_c, 1, 62, 0
3, 264192, Note_on_c, 1, 60, 96
3, 264704, Note_off_c, 1, 60, 0
3, 264704, Note_on_c, 1, 60, 96
3, 265728, Note_off_c, 1, 60, 0
3, 265728, Note_on_c, 1, 62, 96
3, 265984, Note_off_c, 1, 62, 0
3, 265984, Note_on_c, 1, 64, 96
3, 266240, Note_off_c, 1, 64, 0
3, 266240, Note_on_c, 1, 65, 96
3, 266752, Note_off_c, 1, 65, 0
3, 266752, Note_on_c, 1, 67, 96
3, 267008, Note_off_c, 1, 67, 0
3, 267008, Note_on_c, 1, 65, 96
3, 267264, Note_off_c, 1, 65, 0
3, 267264, Note_on_c, 1, 64, 96
3, 268544, Note_off_c, 1, 64, 0
3, 268544, Note_on_c, 1, 65, 96
3, 268800, Note_off_c, 1, 65, 0
3, 268800, Note_on_c, 1, 64, 96
3, 269056, Note_off_c, 1, 64, 0
3, 269056, Note_on_c, 1, 62, 96
3, 269312, Note_off_c, 1, 62, 0
3, 269312, Note_on_c, 1, 60, 96
3, 269568, Note_off_c, 1, 60, 0
3, 269568, Note_on_c, 1, 62, 96
3, 269824, Note_off_c, 1, 62, 0
3, 269824, Note_on_c, 1, 64, 96
3, 270080, Note_off_c, 1, 64, 0
3, 270080, Note_on_c, 1, 60, 96
3, 270336, Note_off_c, 1, 60, 0
3, 270336, Note_on_c, 1, 69, 96
3, 270592, Note_off_c, 1, 69, 0
3, 270592, Note_on_c, 1, 71, 96
3, 270848, Note_off_c, 1, 71, 0
3, 270848, Note_on_c, 1, 72, 96
3, 271104, Note_off_c, 1, 72, 0
3, 271104, Note_on_c, 1, 69, 96
3, 271360, Note_off_c, 1, 69, 0
3, 271360, Note_on_c, 1, 71, 96
3, 271616, Note_off_c, 1, 71, 0
3, 271616, Note_on_c, 1, 72, 96
3, 271872, Note_off_c, 1, 72, 0
3, 271872, Note_on_c, 1, 71, 96
3, 272128, Note_off_c, 1, 71, 0
3, 272128, Note_on_c, 1, 69, 96
3, 272384, Note_off_c, 1, 69, 0
3, 272384, Note_on_c, 1, 67, 96
3, 272896, Note_off_c, 1, 67, 0
3, 272896, Note_on_c, 1, 62, 96
3, 273408, Note_off_c, 1, 62, 0
3, 273408, Note_on_c, 1, 64, 96
3, 275456, Note_off_c, 1, 64, 0
3, 325632, End_track
4, 0, Start_track
4, 0, Title_t, "Instrument 3"
4, 55808, Note_on_c, 2, 60, 96
4, 56320, Note_off_c, 2, 60, 0
4, 56320, Note_on_c, 2, 59, 96
4, 56832, Note_off_c, 2, 59, 0
4, 56832, Note_on_c, 2, 64, 96
4, 57856, Note_off_c, 2, 64, 0
4, 57856, Note_on_c, 2, 62, 96
4, 58368, Note_off_c, 2, 62, 0
4, 58368, Note_on_c, 2, 60, 96
4, 58624, Note_off_c, 2, 60, 0
4, 58624, Note_on_c, 2, 59, 96
4, 58880, Note_off_c, 2, 59, 0
4, 58880, Note_on_c, 2, 60, 96
4, 59136, Note_off_c, 2, 60, 0
4, 59136, Note_on_c, 2, 59, 96
4, 59392, Note_off_c, 2, 59, 0
4, 59392, Note_on_c, 2, 60, 96
4, 59904, Note_off_c, 2, 60, 0
4, 59904, Note_on_c, 2, 69, 96
4, 60928, Note_off_c, 2, 69, 0
4, 60928, Note_on_c, 2, 60, 96
4, 61184, Note_off_c, 2, 60, 0
4, 61184, Note_on_c, 2, 60, 96
4, 61440, Note_off_c, 2, 60, 0
4, 61440, Note_on_c, 2, 59, 96
4, 61952, Note_off_c, 2, 59, 0
4, 61952, Note_on_c, 2, 57, 96
4, 62208, Note_off_c, 2, 57, 0
4, 62208, Note_on_c, 2, 59, 96
4, 62464, Note_off_c, 2, 59, 0
4, 62464, Note_on_c, 2, 60, 96
4, 62976, Note_off_c, 2, 60, 0
4, 62976, Note_on_c, 2, 62, 96
4, 63232, Note_off_c, 2, 62, 0
4, 63232, Note_on_c, 2, 64, 96
4, 63488, Note_off_c, 2, 64, 0
4, 63488, Note_on_c, 2, 65, 96
4, 64000, Note_off_c, 2, 65, 0
4, 64000, Note_on_c, 2, 64, 96
4, 64256, Note_off_c, 2, 64, 0
4, 64256, Note_on_c, 2, 65, 96
4, 64512, Note_off_c, 2, 65, 0
4, 64512, Note_on_c, 2, 62, 96
4, 67584, Note_off_c, 2, 62, 0
4, 67584, Note_on_c, 2, 60, 96
4, 68608, Note_off_c, 2, 60, 0
4, 69120, Note_on_c, 2, 59, 96
4, 69376, Note_off_c, 2, 59, 0
4, 69376, Note_on_c, 2, 60, 96
4, 69632, Note_off_c, 2, 60, 0
4, 69632, Note_on_c, 2, 62, 96
4, 70144, Note_off_c, 2, 62, 0
4, 70144, Note_on_c, 2, 55, 96
4, 70400, Note_off_c, 2, 55, 0
4, 70400, Note_on_c, 2, 55, 96
4, 70656, Note_off_c, 2, 55, 0
4, 70656, Note_on_c, 2, 67, 96
4, 71168, Note_off_c, 2, 67, 0
4, 71168, Note_on_c, 2, 64, 96
4, 71680, Note_off_c, 2, 64, 0
4, 72192, Note_on_c, 2, 55, 96
4, 72704, Note_off_c, 2, 55, 0
4, 72704, Note_on_c, 2, 57, 96
4, 73216, Note_off_c, 2, 57, 0
4, 73216, Note_on_c, 2, 55, 96
4, 73472, Note_off_c, 2, 55, 0
4, 73472, Note_on_c, 2, 57, 96
4, 73728, Note_off_c, 2, 57, 0
4, 73728, Note_on_c, 2, 59, 96
4, 74240, Note_off_c, 2, 59, 0
4, 74240, Note_on_c, 2, 55, 96
4, 74496, Note_off_c, 2, 55, 0
4, 74496, Note_on_c, 2, 57, 96
4, 74752, Note_off_c, 2, 57, 0
4, 74752, Note_on_c, 2, 59, 96
4, 75264, Note_off_c, 2, 59, 0
4, 75264, Note_on_c, 2, 60, 96
4, 75520, Note_off_c, 2, 60, 0
4, 75520, Note_on_c, 2, 62, 96
4, 75776, Note_off_c, 2, 62, 0
4, 75776, Note_on_c, 2, 64, 96
4, 77056, Note_off_c, 2, 64, 0
4, 77056, Note_on_c, 2, 67, 96
4, 77312, Note_off_c, 2, 67, 0
4, 77312, Note_on_c, 2, 65, 96
4, 77568, Note_off_c, 2, 65, 0
4, 77568, Note_on_c, 2, 64, 96
4, 77824, Note_off_c, 2, 64, 0
4, 77824, Note_on_c, 2, 62, 96
4, 78080, Note_off_c, 2, 62, 0
4, 78080, Note_on_c, 2, 65, 96
4, 78336, Note_off_c, 2, 65, 0
4, 78336, Note_on_c, 2, 64, 96
4, 78592, Note_off_c, 2, 64, 0
4, 78592, Note_on_c, 2, 62, 96
4, 78848, Note_off_c, 2, 62, 0
4, 78848, Note_on_c, 2, 60, 96
4, 79360, Note_off_c, 2, 60, 0
4, 79360, Note_on_c, 2, 62, 96
4, 79616, Note_off_c, 2, 62, 0
4, 79616, Note_on_c, 2, 64, 96
4, 79872, Note_off_c, 2, 64, 0
4, 79872, Note_on_c, 2, 65, 96
4, 80384, Note_off_c, 2, 65, 0
4, 80384, Note_on_c, 2, 57, 96
4, 80640, Note_off_c, 2, 57, 0
4, 80640, Note_on_c, 2, 60, 96
4, 80896, Note_off_c, 2, 60, 0
4, 80896, Note_on_c, 2, 59, 96
4, 82944, Note_off_c, 2, 59, 0
4, 82944, Note_on_c, 2, 55, 96
4, 83968, Note_off_c, 2, 55, 0
4, 138752, Note_on_c, 2, 60, 96
4, 139264, Note_off_c, 2, 60, 0
4, 139264, Note_on_c, 2, 59, 96
4, 139776, Note_off_c, 2, 59, 0
4, 139776, Note_on_c, 2, 64, 96
4, 140800, Note_off_c, 2, 64, 0
4, 140800, Note_on_c, 2, 62, 96
4, 141056, Note_off_c, 2, 62, 0
4, 141056, Note_on_c, 2, 64, 96
4, 141312, Note_off_c, 2, 64, 0
4, 141312, Note_on_c, 2, 60, 96
4, 141568, Note_off_c, 2, 60, 0
4, 141568, Note_on_c, 2, 59, 96
4, 141824, Note_off_c, 2, 59, 0
4, 141824, Note_on_c, 2, 60, 96
4, 142080, Note_off_c, 2, 60, 0
4, 142080, Note_on_c, 2, 59, 96
4, 142336, Note_off_c, 2, 59, 0
4, 142336, Note_on_c, 2, 60, 96
4, 142848, Note_off_c, 2, 60, 0
4, 142848, Note_on_c, 2, 69, 96
4, 143872, Note_off_c, 2, 69, 0
4, 143872, Note_on_c, 2, 60, 96
4, 144128, Note_off_c, 2, 60, 0
4, 144128, Note_on_c, 2, 62, 96
4, 144384, Note_off_c, 2, 62, 0
4, 144384, Note_on_c, 2, 59, 96
4, 144896, Note_off_c, 2, 59, 0
4, 144896, Note_on_c, 2, 57, 96
4, 145152, Note_off_c, 2, 57, 0
4, 145152, Note_on_c, 2, 59, 96
4, 145408, Note_off_c, 2, 59, 0
4, 145408, Note_on_c, 2, 60, 96
4, 145920, Note_off_c, 2, 60, 0
4, 145920, Note_on_c, 2, 62, 96
4, 146176, Note_off_c, 2, 62, 0
4, 146176, Note_on_c, 2, 64, 96
4, 146432, Note_off_c, 2, 64, 0
4, 146432, Note_on_c, 2, 65, 96
4, 146944, Note_off_c, 2, 65, 0
4, 146944, Note_on_c, 2, 64, 96
4, 147200, Note_off_c, 2, 64, 0
4, 147200, Note_on_c, 2, 65, 96
4, 147456, Note_off_c, 2, 65, 0
4, 147456, Note_on_c, 2, 62, 96
4, 150528, Note_off_c, 2, 62, 0
4, 150528, Note_on_c, 2, 60, 96
4, 151552, Note_off_c, 2, 60, 0
4, 152064, Note_on_c, 2, 59, 96
4, 152320, Note_off_c, 2, 59, 0
4, 152320, Note_on_c, 2, 60, 96
4, 152576, Note_off_c, 2, 60, 0
4, 152576, Note_on_c, 2, 62, 96
4, 153088, Note_off_c, 2, 62, 0
4, 153088, Note_on_c, 2, 55, 96
4, 153344, Note_off_c, 2, 55, 0
4, 153344, Note_on_c, 2, 55, 96
4, 153600, Note_off_c, 2, 55, 0
4, 153600, Note_on_c, 2, 67, 96
4, 154112, Note_off_c, 2, 67, 0
4, 154112, Note_on_c, 2, 64, 96
4, 154624, Note_off_c, 2, 64, 0
4, 155136, Note_on_c, 2, 55, 96
4, 155648, Note_off_c, 2, 55, 0
4, 155648, Note_on_c, 2, 57, 96
4, 156160, Note_off_c, 2, 57, 0
4, 156160, Note_on_c, 2, 55, 96
4, 156416, Note_off_c, 2, 55, 0
4, 156416, Note_on_c, 2, 57, 96
4, 156672, Note_off_c, 2, 57, 0
4, 156672, Note_on_c, 2, 59, 96
4, 157184, Note_off_c, 2, 59, 0
4, 157184, Note_on_c, 2, 55, 96
4, 157440, Note_off_c, 2, 55, 0
4, 157440, Note_on_c, 2, 57, 96
4, 157696, Note_off_c, 2, 57, 0
4, 157696, Note_on_c, 2, 59, 96
4, 158208, Note_off_c, 2, 59, 0
4, 158208, Note_on_c, 2, 60, 96
4, 158464, Note_off_c, 2, 60, 0
4, 158464, Note_on_c, 2, 62, 96
4, 158720, Note_off_c, 2, 62, 0
4, 158720, Note_on_c, 2, 64, 96
4, 160000, Note_off_c, 2, 64, 0
4, 160000, Note_on_c, 2, 67, 96
4, 160256, Note_off_c, 2, 67, 0
4, 160256, Note_on_c, 2, 65, 96
4, 160512, Note_off_c, 2, 65, 0
4, 160512, Note_on_c, 2, 64, 96
4, 160768, Note_off_c, 2, 64, 0
4, 160768, Note_on_c, 2, 62, 96
4, 161024, Note_off_c, 2, 62, 0
4, 161024, Note_on_c, 2, 65, 96
4, 161280, Note_off_c, 2, 65, 0
4, 161280, Note_on_c, 2, 64, 96
4, 161536, Note_off_c, 2, 64, 0
4, 161536, Note_on_c, 2, 62, 96
4, 161792, Note_off_c, 2, 62, 0
4, 161792, Note_on_c, 2, 60, 96
4, 162304, Note_off_c, 2, 60, 0
4, 162304, Note_on_c, 2, 62, 96
4, 162560, Note_off_c, 2, 62, 0
4, 162560, Note_on_c, 2, 64, 96
4, 162816, Note_off_c, 2, 64, 0
4, 162816, Note_on_c, 2, 65, 96
4, 163328, Note_off_c, 2, 65, 0
4, 163328, Note_on_c, 2, 57, 96
4, 163584, Note_off_c, 2, 57, 0
4, 163584, Note_on_c, 2, 60, 96
4, 163840, Note_off_c, 2, 60, 0
4, 163840, Note_on_c, 2, 59, 96
4, 165888, Note_off_c, 2, 59, 0
4, 165888, Note_on_c, 2, 55, 96
4, 166912, Note_off_c, 2, 55, 0
4, 184320, Note_on_c, 2, 69, 96
4, 185344, Note_off_c, 2, 69, 0
4, 185344, Note_on_c, 2, 64, 96
4, 186368, Note_off_c, 2, 64, 0
4, 186368, Note_on_c, 2, 69, 96
4, 187392, Note_off_c, 2, 69, 0
4, 187392, Note_on_c, 2, 65, 96
4, 189440, Note_off_c, 2, 65, 0
4, 193536, Note_on_c, 2, 67, 96
4, 195072, Note_off_c, 2, 67, 0
4, 195072, Note_on_c, 2, 67, 96
4, 195584, Note_off_c, 2, 67, 0
4, 195584, Note_on_c, 2, 67, 96
4, 196608, Note_off_c, 2, 67, 0
4, 196608, Note_on_c, 2, 60, 96
4, 198144, Note_off_c, 2, 60, 0
4, 198144, Note_on_c, 2, 55, 96
4, 198656, Note_off_c, 2, 55, 0
4, 198656, Note_on_c, 2, 55, 96
4, 199680, Note_off_c, 2, 55, 0
4, 199680, Note_on_c, 2, 67, 96
4, 201728, Note_off_c, 2, 67, 0
4, 246272, Note_on_c, 2, 62, 96
4, 246528, Note_off_c, 2, 62, 0
4, 246528, Note_on_c, 2, 60, 96
4, 246784, Note_off_c, 2, 60, 0
4, 246784, Note_on_c, 2, 59, 96
4, 247296, Note_off_c, 2, 59, 0
4, 247296, Note_on_c, 2, 64, 96
4, 248320, Note_off_c, 2, 64, 0
4, 248320, Note_on_c, 2, 62, 96
4, 248832, Note_off_c, 2, 62, 0
4, 248832, Note_on_c, 2, 60, 96
4, 249344, Note_off_c, 2, 60, 0
4, 249344, Note_on_c, 2, 60, 96
4, 249600, Note_off_c, 2, 60, 0
4, 249600, Note_on_c, 2, 59, 96
4, 249856, Note_off_c, 2, 59, 0
4, 249856, Note_on_c, 2, 60, 96
4, 250368, Note_off_c, 2, 60, 0
4, 250368, Note_on_c, 2, 69, 96
4, 251392, Note_off_c, 2, 69, 0
4, 251392, Note_on_c, 2, 60, 96
4, 251904, Note_off_c, 2, 60, 0
4, 251904, Note_on_c, 2, 59, 96
4, 252416, Note_off_c, 2, 59, 0
4, 252416, Note_on_c, 2, 55, 96
4, 252928, Note_off_c, 2, 55, 0
4, 252928, Note_on_c, 2, 60, 96
4, 253440, Note_off_c, 2, 60, 0
4, 253440, Note_on_c, 2, 62, 96
4, 253696, Note_off_c, 2, 62, 0
4, 253696, Note_on_c, 2, 64, 96
4, 253952, Note_off_c, 2, 64, 0
4, 253952, Note_on_c, 2, 65, 96
4, 254464, Note_off_c, 2, 65, 0
4, 254464, Note_on_c, 2, 64, 96
4, 254720, Note_off_c, 2, 64, 0
4, 254720, Note_on_c, 2, 65, 96
4, 254976, Note_off_c, 2, 65, 0
4, 254976, Note_on_c, 2, 62, 96
4, 258048, Note_off_c, 2, 62, 0
4, 258048, Note_on_c, 2, 60, 96
4, 258560, Note_off_c, 2, 60, 0
4, 258560, Note_on_c, 2, 64, 96
4, 258816, Note_off_c, 2, 64, 0
4, 258816, Note_on_c, 2, 65, 96
4, 259072, Note_off_c, 2, 65, 0
4, 259072, Note_on_c, 2, 67, 96
4, 259584, Note_off_c, 2, 67, 0
4, 259584, Note_on_c, 2, 65, 96
4, 259840, Note_off_c, 2, 65, 0
4, 259840, Note_on_c, 2, 64, 96
4, 260096, Note_off_c, 2, 64, 0
4, 260096, Note_on_c, 2, 62, 96
4, 260608, Note_off_c, 2, 62, 0
4, 260608, Note_on_c, 2, 64, 96
4, 260864, Note_off_c, 2, 64, 0
4, 260864, Note_on_c, 2, 60, 96
4, 261120, Note_off_c, 2, 60, 0
4, 261120, Note_on_c, 2, 69, 96
4, 261632, Note_off_c, 2, 69, 0
4, 261632, Note_on_c, 2, 57, 96
4, 262144, Note_off_c, 2, 57, 0
4, 262144, Note_on_c, 2, 55, 96
4, 262656, Note_off_c, 2, 55, 0
4, 262656, Note_on_c, 2, 59, 96
4, 263168, Note_off_c, 2, 59, 0
4, 263168, Note_on_c, 2, 62, 96
4, 263680, Note_off_c, 2, 62, 0
4, 263680, Note_on_c, 2, 60, 96
4, 263936, Note_off_c, 2, 60, 0
4, 263936, Note_on_c, 2, 62, 96
4, 264192, Note_off_c, 2, 62, 0
4, 264192, Note_on_c, 2, 64, 96
4, 264704, Note_off_c, 2, 64, 0
4, 264704, Note_on_c, 2, 60, 96
4, 265216, Note_off_c, 2, 60, 0
4, 265216, Note_on_c, 2, 57, 96
4, 265728, Note_off_c, 2, 57, 0
4, 265728, Note_on_c, 2, 59, 96
4, 265984, Note_off_c, 2, 59, 0
4, 265984, Note_on_c, 2, 60, 96
4, 266240, Note_off_c, 2, 60, 0
4, 266240, Note_on_c, 2, 62, 96
4, 266752, Note_off_c, 2, 62, 0
4, 266752, Note_on_c, 2, 64, 96
4, 267008, Note_off_c, 2, 64, 0
4, 267008, Note_on_c, 2, 62, 96
4, 267264, Note_off_c, 2, 62, 0
4, 267264, Note_on_c, 2, 60, 96
4, 268544, Note_off_c, 2, 60, 0
4, 268544, Note_on_c, 2, 59, 96
4, 268800, Note_off_c, 2, 59, 0
4, 268800, Note_on_c, 2, 60, 96
4, 269056, Note_off_c, 2, 60, 0
4, 269056, Note_on_c, 2, 62, 96
4, 269312, Note_off_c, 2, 62, 0
4, 269312, Note_on_c, 2, 55, 96
4, 269824, Note_off_c, 2, 55, 0
4, 269824, Note_on_c, 2, 67, 96
4, 270336, Note_off_c, 2, 67, 0
4, 270336, Note_on_c, 2, 62, 96
4, 270848, Note_off_c, 2, 62, 0
4, 270848, Note_on_c, 2, 62, 96
4, 271104, Note_off_c, 2, 62, 0
4, 271104, Note_on_c, 2, 60, 96
4, 271360, Note_off_c, 2, 60, 0
4, 271360, Note_on_c, 2, 62, 96
4, 271616, Note_off_c, 2, 62, 0
4, 271616, Note_on_c, 2, 64, 96
4, 271872, Note_off_c, 2, 64, 0
4, 271872, Note_on_c, 2, 62, 96
4, 272128, Note_off_c, 2, 62, 0
4, 272128, Note_on_c, 2, 60, 96
4, 272384, Note_off_c, 2, 60, 0
4, 272384, Note_on_c, 2, 59, 96
4, 273408, Note_off_c, 2, 59, 0
4, 273408, Note_on_c, 2, 55, 96
4, 275456, Note_off_c, 2, 55, 0
4, 325632, End_track
5, 0, Start_track
5, 0, Title_t, "Instrument 4"
5, 61952, Note_on_c, 3, 55, 96
5, 62208, Note_off_c, 3, 55, 0
5, 62208, Note_on_c, 3, 53, 96
5, 62464, Note_off_c, 3, 53, 0
5, 62464, Note_on_c, 3, 52, 96
5, 62976, Note_off_c, 3, 52, 0
5, 62976, Note_on_c, 3, 57, 96
5, 64000, Note_off_c, 3, 57, 0
5, 64000, Note_on_c, 3, 55, 96
5, 64512, Note_off_c, 3, 55, 0
5, 64512, Note_on_c, 3, 53, 96
5, 64768, Note_off_c, 3, 53, 0
5, 64768, Note_on_c, 3, 52, 96
5, 65024, Note_off_c, 3, 52, 0
5, 65024, Note_on_c, 3, 53, 96
5, 65280, Note_off_c, 3, 53, 0
5, 65280, Note_on_c, 3, 52, 96
5, 65536, Note_off_c, 3, 52, 0
5, 65536, Note_on_c, 3, 53, 96
5, 66048, Note_off_c, 3, 53, 0
5, 66048, Note_on_c, 3, 62, 96
5, 67072, Note_off_c, 3, 62, 0
5, 67072, Note_on_c, 3, 53, 96
5, 67328, Note_off_c, 3, 53, 0
5, 67328, Note_on_c, 3, 53, 96
5, 67584, Note_off_c, 3, 53, 0
5, 67584, Note_on_c, 3, 52, 96
5, 68096, Note_off_c, 3, 52, 0
5, 68096, Note_on_c, 3, 52, 96
5, 68352, Note_off_c, 3, 52, 0
5, 68352, Note_on_c, 3, 53, 96
5, 68608, Note_off_c, 3, 53, 0
5, 68608, Note_on_c, 3, 55, 96
5, 69120, Note_off_c, 3, 55, 0
5, 69120, Note_on_c, 3, 55, 96
5, 69376, Note_off_c, 3, 55, 0
5, 69376, Note_on_c, 3, 57, 96
5, 69632, Note_off_c, 3, 57, 0
5, 69632, Note_on_c, 3, 59, 96
5, 70144, Note_off_c, 3, 59, 0
5, 70144, Note_on_c, 3, 57, 96
5, 70400, Note_off_c, 3, 57, 0
5, 70400, Note_on_c, 3, 59, 96
5, 70656, Note_off_c, 3, 59, 0
5, 70656, Note_on_c, 3, 60, 96
5, 71168, Note_off_c, 3, 60, 0
5, 71168, Note_on_c, 3, 48, 96
5, 71680, Note_off_c, 3, 48, 0
5, 71680, Note_on_c, 3, 60, 96
5, 71936, Note_off_c, 3, 60, 0
5, 71936, Note_on_c, 3, 59, 96
5, 72192, Note_off_c, 3, 59, 0
5, 72192, Note_on_c, 3, 60, 96
5, 72448, Note_off_c, 3, 60, 0
5, 72448, Note_on_c, 3, 59, 96
5, 72704, Note_off_c, 3, 59, 0
5, 72704, Note_on_c, 3, 57, 96
5, 73216, Note_off_c, 3, 57, 0
5, 73216, Note_on_c, 3, 50, 96
5, 73472, Note_off_c, 3, 50, 0
5, 73472, Note_on_c, 3, 50, 96
5, 73728, Note_off_c, 3, 50, 0
5, 73728, Note_on_c, 3, 55, 96
5, 74240, Note_off_c, 3, 55, 0
5, 74240, Note_on_c, 3, 43, 96
5, 74752, Note_off_c, 3, 43, 0
5, 75264, Note_on_c, 3, 53, 96
5, 75776, Note_off_c, 3, 53, 0
5, 75776, Note_on_c, 3, 52, 96
5, 76288, Note_off_c, 3, 52, 0
5, 76288, Note_on_c, 3, 53, 96
5, 76544, Note_off_c, 3, 53, 0
5, 76544, Note_on_c, 3, 55, 96
5, 76800, Note_off_c, 3, 55, 0
5, 76800, Note_on_c, 3, 57, 96
5, 77312, Note_off_c, 3, 57, 0
5, 77312, Note_on_c, 3, 55, 96
5, 77568, Note_off_c, 3, 55, 0
5, 77568, Note_on_c, 3, 57, 96
5, 77824, Note_off_c, 3, 57, 0
5, 77824, Note_on_c, 3, 59, 96
5, 78336, Note_off_c, 3, 59, 0
5, 78336, Note_on_c, 3, 57, 96
5, 78592, Note_off_c, 3, 57, 0
5, 78592, Note_on_c, 3, 59, 96
5, 78848, Note_off_c, 3, 59, 0
5, 78848, Note_on_c, 3, 60, 96
5, 79360, Note_off_c, 3, 60, 0
5, 79360, Note_on_c, 3, 57, 96
5, 79872, Note_off_c, 3, 57, 0
5, 79872, Note_on_c, 3, 53, 96
5, 80384, Note_off_c, 3, 53, 0
5, 80384, Note_on_c, 3, 52, 96
5, 80640, Note_off_c, 3, 52, 0
5, 80640, Note_on_c, 3, 50, 96
5, 80896, Note_off_c, 3, 50, 0
5, 80896, Note_on_c, 3, 55, 96
5, 81408, Note_off_c, 3, 55, 0
5, 81408, Note_on_c, 3, 53, 96
5, 81920, Note_off_c, 3, 53, 0
5, 81920, Note_on_c, 3, 55, 96
5, 82944, Note_off_c, 3, 55, 0
5, 82944, Note_on_c, 3, 48, 96
5, 83968, Note_off_c, 3, 48, 0
5, 144896, Note_on_c, 3, 55, 96
5, 145152, Note_off_c, 3, 55, 0
5, 145152, Note_on_c, 3, 53, 96
5, 145408, Note_off_c, 3, 53, 0
5, 145408, Note_on_c, 3, 52, 96
5, 145920, Note_off_c, 3, 52, 0
5, 145920, Note_on_c, 3, 57, 96
5, 146944, Note_off_c, 3, 57, 0
5, 146944, Note_on_c, 3, 55, 96
5, 147200, Note_off_c, 3, 55, 0
5, 147200, Note_on_c, 3, 57, 96
5, 147456, Note_off_c, 3, 57, 0
5, 147456, Note_on_c, 3, 53, 96
5, 147712, Note_off_c, 3, 53, 0
5, 147712, Note_on_c, 3, 52, 96
5, 147968, Note_off_c, 3, 52, 0
5, 147968, Note_on_c, 3, 53, 96
5, 148224, Note_off_c, 3, 53, 0
5, 148224, Note_on_c, 3, 52, 96
5, 148480, Note_off_c, 3, 52, 0
5, 148480, Note_on_c, 3, 53, 96
5, 148992, Note_off_c, 3, 53, 0
5, 148992, Note_on_c, 3, 62, 96
5, 150016, Note_off_c, 3, 62, 0
5, 150016, Note_on_c, 3, 53, 96
5, 150272, Note_off_c, 3, 53, 0
5, 150272, Note_on_c, 3, 55, 96
5, 150528, Note_off_c, 3, 55, 0
5, 150528, Note_on_c, 3, 52, 96
5, 151040, Note_off_c, 3, 52, 0
5, 151040, Note_on_c, 3, 52, 96
5, 151296, Note_off_c, 3, 52, 0
5, 151296, Note_on_c, 3, 53, 96
5, 151552, Note_off_c, 3, 53, 0
5, 151552, Note_on_c, 3, 55, 96
5, 152064, Note_off_c, 3, 55, 0
5, 152064, Note_on_c, 3, 55, 96
5, 152320, Note_off_c, 3, 55, 0
5, 152320, Note_on_c, 3, 57, 96
5, 152576, Note_off_c, 3, 57, 0
5, 152576, Note_on_c, 3, 59, 96
5, 153088, Note_off_c, 3, 59, 0
5, 153088, Note_on_c, 3, 57, 96
5, 153344, Note_off_c, 3, 57, 0
5, 153344, Note_on_c, 3, 59, 96
5, 153600, Note_off_c, 3, 59, 0
5, 153600, Note_on_c, 3, 60, 96
5, 154112, Note_off_c, 3, 60, 0
5, 154112, Note_on_c, 3, 48, 96
5, 154624, Note_off_c, 3, 48, 0
5, 154624, Note_on_c, 3, 60, 96
5, 154880, Note_off_c, 3, 60, 0
5, 154880, Note_on_c, 3, 59, 96
5, 155136, Note_off_c, 3, 59, 0
5, 155136, Note_on_c, 3, 60, 96
5, 155392, Note_off_c, 3, 60, 0
5, 155392, Note_on_c, 3, 59, 96
5, 155648, Note_off_c, 3, 59, 0
5, 155648, Note_on_c, 3, 57, 96
5, 156160, Note_off_c, 3, 57, 0
5, 156160, Note_on_c, 3, 50, 96
5, 156416, Note_off_c, 3, 50, 0
5, 156416, Note_on_c, 3, 50, 96
5, 156672, Note_off_c, 3, 50, 0
5, 156672, Note_on_c, 3, 55, 96
5, 157184, Note_off_c, 3, 55, 0
5, 157184, Note_on_c, 3, 43, 96
5, 157696, Note_off_c, 3, 43, 0
5, 158208, Note_on_c, 3, 53, 96
5, 158720, Note_off_c, 3, 53, 0
5, 158720, Note_on_c, 3, 52, 96
5, 159232, Note_off_c, 3, 52, 0
5, 159232, Note_on_c, 3, 53, 96
5, 159488, Note_off_c, 3, 53, 0
5, 159488, Note_on_c, 3, 55, 96
5, 159744, Note_off_c, 3, 55, 0
5, 159744, Note_on_c, 3, 57, 96
5, 160256, Note_off_c, 3, 57, 0
5, 160256, Note_on_c, 3, 55, 96
5, 160512, Note_off_c, 3, 55, 0
5, 160512, Note_on_c, 3, 57, 96
5, 160768, Note_off_c, 3, 57, 0
5, 160768, Note_on_c, 3, 59, 96
5, 161280, Note_off_c, 3, 59, 0
5, 161280, Note_on_c, 3, 57, 96
5, 161536, Note_off_c, 3, 57, 0
5, 161536, Note_on_c, 3, 59, 96
5, 161792, Note_off_c, 3, 59, 0
5, 161792, Note_on_c, 3, 60, 96
5, 162304, Note_off_c, 3, 60, 0
5, 162304, Note_on_c, 3, 57, 96
5, 162816, Note_off_c, 3, 57, 0
5, 162816, Note_on_c, 3, 53, 96
5, 163328, Note_off_c, 3, 53, 0
5, 163328, Note_on_c, 3, 52, 96
5, 163584, Note_off_c, 3, 52, 0
5, 163584, Note_on_c, 3, 50, 96
5, 163840, Note_off_c, 3, 50, 0
5, 163840, Note_on_c, 3, 55, 96
5, 164352, Note_off_c, 3, 55, 0
5, 164352, Note_on_c, 3, 53, 96
5, 164864, Note_off_c, 3, 53, 0
5, 164864, Note_on_c, 3, 55, 96
5, 165888, Note_off_c, 3, 55, 0
5, 165888, Note_on_c, 3, 48, 96
5, 166912, Note_off_c, 3, 48, 0
5, 184320, Note_on_c, 3, 57, 96
5, 185344, Note_off_c, 3, 57, 0
5, 185344, Note_on_c, 3, 60, 96
5, 186368, Note_off_c, 3, 60, 0
5, 186368, Note_on_c, 3, 57, 96
5, 187392, Note_off_c, 3, 57, 0
5, 187392, Note_on_c, 3, 62, 96
5, 189440, Note_off_c, 3, 62, 0
5, 193536, Note_on_c, 3, 48, 96
5, 195072, Note_off_c, 3, 48, 0
5, 195072, Note_on_c, 3, 50, 96
5, 195584, Note_off_c, 3, 50, 0
5, 195584, Note_on_c, 3, 52, 96
5, 196096, Note_off_c, 3, 52, 0
5, 196096, Note_on_c, 3, 53, 96
5, 196608, Note_off_c, 3, 53, 0
5, 196608, Note_on_c, 3, 52, 96
5, 198144, Note_off_c, 3, 52, 0
5, 198144, Note_on_c, 3, 50, 96
5, 198656, Note_off_c, 3, 50, 0
5, 198656, Note_on_c, 3, 48, 96
5, 199680, Note_off_c, 3, 48, 0
5, 199680, Note_on_c, 3, 55, 96
5, 201728, Note_off_c, 3, 55, 0
5, 258560, Note_on_c, 3, 55, 96
5, 258816, Note_off_c, 3, 55, 0
5, 258816, Note_on_c, 3, 53, 96
5, 259072, Note_off_c, 3, 53, 0
5, 259072, Note_on_c, 3, 52, 96
5, 259584, Note_off_c, 3, 52, 0
5, 259584, Note_on_c, 3, 57, 96
5, 260608, Note_off_c, 3, 57, 0
5, 260608, Note_on_c, 3, 55, 96
5, 261120, Note_off_c, 3, 55, 0
5, 261120, Note_on_c, 3, 53, 96
5, 261632, Note_off_c, 3, 53, 0
5, 261632, Note_on_c, 3, 53, 96
5, 261888, Note_off_c, 3, 53, 0
5, 261888, Note_on_c, 3, 52, 96
5, 262144, Note_off_c, 3, 52, 0
5, 262144, Note_on_c, 3, 53, 96
5, 262656, Note_off_c, 3, 53, 0
5, 262656, Note_on_c, 3, 62, 96
5, 263680, Note_off_c, 3, 62, 0
5, 263680, Note_on_c, 3, 53, 96
5, 264192, Note_off_c, 3, 53, 0
5, 264192, Note_on_c, 3, 52, 96
5, 264704, Note_off_c, 3, 52, 0
5, 264704, Note_on_c, 3, 50, 96
5, 264960, Note_off_c, 3, 50, 0
5, 264960, Note_on_c, 3, 52, 96
5, 265216, Note_off_c, 3, 52, 0
5, 265216, Note_on_c, 3, 53, 96
5, 265728, Note_off_c, 3, 53, 0
5, 265728, Note_on_c, 3, 53, 96
5, 265984, Note_off_c, 3, 53, 0
5, 265984, Note_on_c, 3, 52, 96
5, 266240, Note_off_c, 3, 52, 0
5, 266240, Note_on_c, 3, 50, 96
5, 266752, Note_off_c, 3, 50, 0
5, 266752, Note_on_c, 3, 48, 96
5, 267008, Note_off_c, 3, 48, 0
5, 267008, Note_on_c, 3, 50, 96
5, 267264, Note_off_c, 3, 50, 0
5, 267264, Note_on_c, 3, 52, 96
5, 267776, Note_off_c, 3, 52, 0
5, 267776, Note_on_c, 3, 53, 96
5, 268032, Note_off_c, 3, 53, 0
5, 268032, Note_on_c, 3, 55, 96
5, 268288, Note_off_c, 3, 55, 0
5, 268288, Note_on_c, 3, 57, 96
5, 268544, Note_off_c, 3, 57, 0
5, 268544, Note_on_c, 3, 55, 96
5, 268800, Note_off_c, 3, 55, 0
5, 268800, Note_on_c, 3, 57, 96
5, 269056, Note_off_c, 3, 57, 0
5, 269056, Note_on_c, 3, 59, 96
5, 269312, Note_off_c, 3, 59, 0
5, 269312, Note_on_c, 3, 60, 96
5, 269568, Note_off_c, 3, 60, 0
5, 269568, Note_on_c, 3, 59, 96
5, 269824, Note_off_c, 3, 59, 0
5, 269824, Note_on_c, 3, 60, 96
5, 270080, Note_off_c, 3, 60, 0
5, 270080, Note_on_c, 3, 55, 96
5, 270336, Note_off_c, 3, 55, 0
5, 270336, Note_on_c, 3, 57, 96
5, 270592, Note_off_c, 3, 57, 0
5, 270592, Note_on_c, 3, 55, 96
5, 270848, Note_off_c, 3, 55, 0
5, 270848, Note_on_c, 3, 57, 96
5, 271104, Note_off_c, 3, 57, 0
5, 271104, Note_on_c, 3, 53, 96
5, 271360, Note_off_c, 3, 53, 0
5, 271360, Note_on_c, 3, 55, 96
5, 272384, Note_off_c, 3, 55, 0
5, 272384, Note_on_c, 3, 43, 96
5, 273408, Note_off_c, 3, 43, 0
5, 273408, Note_on_c, 3, 48, 96
5, 275456, Note_off_c, 3, 48, 0
5, 325632, End_track
6, 0, Start_track
6, 0, Title_t, "Instrument 5"
6, 0, Note_on_c, 4, 48, 96
6, 0, Note_on_c, 4, 48, 96
6, 1024, Note_off_c, 4, 48, 0
6, 1024, Note_off_c, 4, 48, 0
6, 3072, Note_on_c, 4, 43, 96
6, 3072, Note_on_c, 4, 43, 96
6, 4096, Note_off_c, 4, 43, 0
6, 4096, Note_off_c, 4, 43, 0
6, 6144, Note_on_c, 4, 48, 96
6, 6656, Note_on_c, 4, 48, 96
6, 6656, Note_off_c, 4, 48, 0
6, 6656, Note_on_c, 4, 55, 96
6, 6912, Note_off_c, 4, 48, 0
6, 6912, Note_on_c, 4, 48, 96
6, 7168, Note_off_c, 4, 48, 0
6, 7168, Note_on_c, 4, 48, 96
6, 7168, Note_off_c, 4, 55, 0
6, 7168, Note_on_c, 4, 60, 96
6, 7680, Note_off_c, 4, 48, 0
6, 7680, Note_on_c, 4, 48, 96
6, 7680, Note_off_c, 4, 60, 0
6, 7680, Note_on_c, 4, 59, 96
6, 8192, Note_off_c, 4, 48, 0
6, 8192, Note_on_c, 4, 48, 96
6, 8192, Note_off_c, 4, 59, 0
6, 8192, Note_on_c, 4, 57, 96
6, 8704, Note_off_c, 4, 48, 0
6, 8704, Note_on_c, 4, 48, 96
6, 8704, Note_off_c, 4, 57, 0
6, 8704, Note_on_c, 4, 50, 96
6, 8960, Note_off_c, 4, 48, 0
6, 8960, Note_on_c, 4, 48, 96
6, 9216, Note_off_c, 4, 48, 0
6, 9216, Note_off_c, 4, 50, 0
6, 9216, Note_on_c, 4, 43, 96
6, 9216, Note_on_c, 4, 55, 96
6, 10240, Note_off_c, 4, 43, 0
6, 10240, Note_off_c, 4, 55, 0
6, 12288, Note_on_c, 4, 50, 96
6, 13312, Note_off_c, 4, 50, 0
6, 15360, Note_on_c, 4, 43, 96
6, 15360, Note_on_c, 4, 43, 96
6, 15872, Note_off_c, 4, 43, 0
6, 15872, Note_on_c, 4, 50, 96
6, 16384, Note_off_c, 4, 43, 0
6, 16384, Note_off_c, 4, 50, 0
6, 16384, Note_on_c, 4, 55, 96
6, 16896, Note_off_c, 4, 55, 0
6, 16896, Note_on_c, 4, 53, 96
6, 17408, Note_off_c, 4, 53, 0
6, 17408, Note_on_c, 4, 52, 96
6, 17920, Note_off_c, 4, 52, 0
6, 17920, Note_on_c, 4, 45, 96
6, 18432, Note_off_c, 4, 45, 0
6, 18432, Note_on_c, 4, 50, 96
6, 18944, Note_off_c, 4, 50, 0
6, 18944, Note_on_c, 4, 57, 96
6, 19456, Note_off_c, 4, 57, 0
6, 19456, Note_on_c, 4, 62, 96
6, 19968, Note_off_c, 4, 62, 0
6, 19968, Note_on_c, 4, 60, 96
6, 20480, Note_off_c, 4, 60, 0
6, 20480, Note_on_c, 4, 59, 96
6, 20992, Note_off_c, 4, 59, 0
6, 20992, Note_on_c, 4, 52, 96
6, 21504, Note_off_c, 4, 52, 0
6, 21504, Note_on_c, 4, 57, 96
6, 22016, Note_off_c, 4, 57, 0
6, 22016, Note_on_c, 4, 52, 96
6, 22528, Note_off_c, 4, 52, 0
6, 22528, Note_on_c, 4, 57, 96
6, 23040, Note_off_c, 4, 57, 0
6, 23040, Note_on_c, 4, 55, 96
6, 23552, Note_off_c, 4, 55, 0
6, 23552, Note_on_c, 4, 54, 96
6, 24064, Note_off_c, 4, 54, 0
6, 24064, Note_on_c, 4, 47, 96
6, 24576, Note_off_c, 4, 47, 0
6, 24576, Note_on_c, 4, 52, 96
6, 25600, Note_off_c, 4, 52, 0
6, 27648, Note_on_c, 4, 45, 96
6, 28672, Note_off_c, 4, 45, 0
6, 30720, Note_on_c, 4, 50, 96
6, 31744, Note_off_c, 4, 50, 0
6, 33792, Note_on_c, 4, 43, 96
6, 34816, Note_off_c, 4, 43, 0
6, 36864, Note_on_c, 4, 48, 96
6, 36864, Note_on_c, 4, 48, 96
6, 37888, Note_off_c, 4, 48, 0
6, 37888, Note_off_c, 4, 48, 0
6, 37888, Note_on_c, 4, 60, 96
6, 38912, Note_off_c, 4, 60, 0
6, 38912, Note_on_c, 4, 60, 96
6, 39936, Note_off_c, 4, 60, 0
6, 39936, Note_on_c, 4, 43, 96
6, 39936, Note_on_c, 4, 60, 96
6, 40960, Note_off_c, 4, 43, 0
6, 40960, Note_off_c, 4, 60, 0
6, 40960, Note_on_c, 4, 59, 96
6, 41984, Note_off_c, 4, 59, 0
6, 41984, Note_on_c, 4, 59, 96
6, 43008, Note_off_c, 4, 59, 0
6, 43008, Note_on_c, 4, 48, 96
6, 43008, Note_on_c, 4, 60, 96
6, 43520, Note_off_c, 4, 48, 0
6, 43520, Note_on_c, 4, 48, 96
6, 43520, Note_off_c, 4, 60, 0
6, 43520, Note_on_c, 4, 55, 96
6, 43776, Note_off_c, 4, 48, 0
6, 43776, Note_on_c, 4, 48, 96
6, 44032, Note_off_c, 4, 48, 0
6, 44032, Note_on_c, 4, 48, 96
6, 44032, Note_off_c, 4, 55, 0
6, 44032, Note_on_c, 4, 52, 96
6, 44544, Note_off_c, 4, 48, 0
6, 44544, Note_on_c, 4, 48, 96
6, 44544, Note_off_c, 4, 52, 0
6, 44544, Note_on_c, 4, 55, 96
6, 45056, Note_off_c, 4, 48, 0
6, 45056, Note_on_c, 4, 48, 96
6, 45056, Note_off_c, 4, 55, 0
6, 45056, Note_on_c, 4, 52, 96
6, 45568, Note_off_c, 4, 48, 0
6, 45568, Note_on_c, 4, 48, 96
6, 45568, Note_off_c, 4, 52, 0
6, 45568, Note_on_c, 4, 48, 96
6, 46080, Note_off_c, 4, 48, 0
6, 46080, Note_off_c, 4, 48, 0
6, 46080, Note_on_c, 4, 48, 96
6, 46080, Note_on_c, 4, 53, 96
6, 46592, Note_off_c, 4, 48, 0
6, 46592, Note_on_c, 4, 43, 96
6, 46592, Note_off_c, 4, 53, 0
6, 46592, Note_on_c, 4, 47, 96
6, 47104, Note_off_c, 4, 43, 0
6, 47104, Note_on_c, 4, 48, 96
6, 47104, Note_off_c, 4, 47, 0
6, 47104, Note_on_c, 4, 48, 96
6, 47616, Note_off_c, 4, 48, 0
6, 47616, Note_on_c, 4, 48, 96
6, 47616, Note_off_c, 4, 48, 0
6, 47616, Note_on_c, 4, 52, 96
6, 48128, Note_off_c, 4, 48, 0
6, 48128, Note_on_c, 4, 43, 96
6, 48128, Note_off_c, 4, 52, 0
6, 48128, Note_on_c, 4, 55, 96
6, 48640, Note_off_c, 4, 43, 0
6, 48640, Note_on_c, 4, 43, 96
6, 48640, Note_off_c, 4, 55, 0
6, 48640, Note_on_c, 4, 43, 96
6, 48896, Note_off_c, 4, 43, 0
6, 48896, Note_on_c, 4, 43, 96
6, 49152, Note_off_c, 4, 43, 0
6, 49152, Note_off_c, 4, 43, 0
6, 49152, Note_on_c, 4, 48, 96
6, 49152, Note_on_c, 4, 48, 96
6, 50176, Note_off_c, 4, 48, 0
6, 50176, Note_off_c, 4, 48, 0
6, 51200, Note_on_c, 4, 45, 96
6, 52224, Note_off_c, 4, 45, 0
6, 52224, Note_on_c, 4, 50, 96
6, 53248, Note_off_c, 4, 50, 0
6, 54272, Note_on_c, 4, 41, 96
6, 55296, Note_off_c, 4, 41, 0
6, 55296, Note_on_c, 4, 48, 96
6, 55808, Note_off_c, 4, 48, 0
6, 55808, Note_on_c, 4, 50, 96
6, 56320, Note_off_c, 4, 50, 0
6, 56320, Note_on_c, 4, 52, 96
6, 56832, Note_off_c, 4, 52, 0
6, 56832, Note_on_c, 4, 48, 96
6, 57344, Note_off_c, 4, 48, 0
6, 57344, Note_on_c, 4, 45, 96
6, 57856, Note_off_c, 4, 45, 0
6, 57856, Note_on_c, 4, 47, 96
6, 58368, Note_off_c, 4, 47, 0
6, 58368, Note_on_c, 4, 48, 96
6, 58880, Note_off_c, 4, 48, 0
6, 58880, Note_on_c, 4, 45, 96
6, 59392, Note_off_c, 4, 45, 0
6, 59392, Note_on_c, 4, 50, 96
6, 59904, Note_off_c, 4, 50, 0
6, 59904, Note_on_c, 4, 48, 96
6, 60416, Note_off_c, 4, 48, 0
6, 60416, Note_on_c, 4, 50, 96
6, 60928, Note_off_c, 4, 50, 0
6, 60928, Note_on_c, 4, 38, 96
6, 61440, Note_off_c, 4, 38, 0
6, 61440, Note_on_c, 4, 43, 96
6, 62464, Note_off_c, 4, 43, 0
6, 62464, Note_on_c, 4, 48, 96
6, 63488, Note_off_c, 4, 48, 0
6, 63488, Note_on_c, 4, 48, 96
6, 64512, Note_off_c, 4, 48, 0
6, 64512, Note_on_c, 4, 48, 96
6, 65536, Note_off_c, 4, 48, 0
6, 65536, Note_on_c, 4, 47, 96
6, 66560, Note_off_c, 4, 47, 0
6, 66560, Note_on_c, 4, 47, 96
6, 67584, Note_off_c, 4, 47, 0
6, 67584, Note_on_c, 4, 48, 96
6, 68096, Note_on_c, 4, 48, 96
6, 68096, Note_off_c, 4, 48, 0
6, 68096, Note_on_c, 4, 48, 96
6, 68352, Note_off_c, 4, 48, 0
6, 68352, Note_on_c, 4, 48, 96
6, 68352, Note_off_c, 4, 48, 0
6, 68352, Note_on_c, 4, 50, 96
6, 68608, Note_off_c, 4, 48, 0
6, 68608, Note_on_c, 4, 48, 96
6, 68608, Note_off_c, 4, 50, 0
6, 68608, Note_on_c, 4, 52, 96
6, 69120, Note_off_c, 4, 48, 0
6, 69120, Note_on_c, 4, 48, 96
6, 69120, Note_off_c, 4, 52, 0
6, 69120, Note_on_c, 4, 50, 96
6, 69376, Note_off_c, 4, 50, 0
6, 69376, Note_on_c, 4, 48, 96
6, 69632, Note_off_c, 4, 48, 0
6, 69632, Note_on_c, 4, 43, 96
6, 69632, Note_off_c, 4, 48, 0
6, 69632, Note_on_c, 4, 47, 96
6, 70144, Note_off_c, 4, 43, 0
6, 70144, Note_on_c, 4, 43, 96
6, 70144, Note_off_c, 4, 47, 0
6, 70144, Note_on_c, 4, 45, 96
6, 70400, Note_off_c, 4, 45, 0
6, 70400, Note_on_c, 4, 47, 96
6, 70656, Note_off_c, 4, 43, 0
6, 70656, Note_off_c, 4, 47, 0
6, 70656, Note_on_c, 4, 48, 96
6, 70656, Note_on_c, 4, 48, 96
6, 71168, Note_off_c, 4, 48, 0
6, 71168, Note_on_c, 4, 55, 96
6, 71680, Note_off_c, 4, 48, 0
6, 71680, Note_off_c, 4, 55, 0
6, 71680, Note_on_c, 4, 60, 96
6, 72192, Note_on_c, 4, 48, 96
6, 72192, Note_off_c, 4, 60, 0
6, 72192, Note_on_c, 4, 59, 96
6, 72448, Note_off_c, 4, 48, 0
6, 72448, Note_on_c, 4, 48, 96
6, 72704, Note_off_c, 4, 48, 0
6, 72704, Note_on_c, 4, 48, 96
6, 72704, Note_off_c, 4, 59, 0
6, 72704, Note_on_c, 4, 57, 96
6, 73216, Note_off_c, 4, 48, 0
6, 73216, Note_on_c, 4, 48, 96
6, 73216, Note_off_c, 4, 57, 0
6, 73216, Note_on_c, 4, 50, 96
6, 73728, Note_off_c, 4, 48, 0
6, 73728, Note_off_c, 4, 50, 0
6, 73728, Note_on_c, 4, 43, 96
6, 73728, Note_on_c, 4, 43, 96
6, 74240, Note_off_c, 4, 43, 0
6, 74240, Note_on_c, 4, 50, 96
6, 74752, Note_off_c, 4, 43, 0
6, 74752, Note_off_c, 4, 50, 0
6, 74752, Note_on_c, 4, 55, 96
6, 75264, Note_off_c, 4, 55, 0
6, 75264, Note_on_c, 4, 53, 96
6, 75776, Note_off_c, 4, 53, 0
6, 75776, Note_on_c, 4, 52, 96
6, 76288, Note_off_c, 4, 52, 0
6, 76288, Note_on_c, 4, 53, 96
6, 76544, Note_off_c, 4, 53, 0
6, 76544, Note_on_c, 4, 55, 96
6, 76800, Note_off_c, 4, 55, 0
6, 76800, Note_on_c, 4, 57, 96
6, 77312, Note_off_c, 4, 57, 0
6, 77312, Note_on_c, 4, 55, 96
6, 77568, Note_off_c, 4, 55, 0
6, 77568, Note_on_c, 4, 57, 96
6, 77824, Note_off_c, 4, 57, 0
6, 77824, Note_on_c, 4, 59, 96
6, 78336, Note_off_c, 4, 59, 0
6, 78336, Note_on_c, 4, 57, 96
6, 78592, Note_off_c, 4, 57, 0
6, 78592, Note_on_c, 4, 59, 96
6, 78848, Note_off_c, 4, 59, 0
6, 78848, Note_on_c, 4, 60, 96
6, 79360, Note_off_c, 4, 60, 0
6, 79360, Note_on_c, 4, 57, 96
6, 79872, Note_off_c, 4, 57, 0
6, 79872, Note_on_c, 4, 53, 96
6, 80384, Note_on_c, 4, 43, 96
6, 80384, Note_off_c, 4, 53, 0
6, 80384, Note_on_c, 4, 52, 96
6, 80640, Note_off_c, 4, 43, 0
6, 80640, Note_on_c, 4, 43, 96
6, 80640, Note_off_c, 4, 52, 0
6, 80640, Note_on_c, 4, 50, 96
6, 80896, Note_off_c, 4, 43, 0
6, 80896, Note_on_c, 4, 43, 96
6, 80896, Note_off_c, 4, 50, 0
6, 80896, Note_on_c, 4, 55, 96
6, 81408, Note_off_c, 4, 43, 0
6, 81408, Note_on_c, 4, 43, 96
6, 81408, Note_off_c, 4, 55, 0
6, 81408, Note_on_c, 4, 53, 96
6, 81920, Note_off_c, 4, 43, 0
6, 81920, Note_on_c, 4, 43, 96
6, 81920, Note_off_c, 4, 53, 0
6, 81920, Note_on_c, 4, 55, 96
6, 82432, Note_off_c, 4, 43, 0
6, 82432, Note_on_c, 4, 43, 96
6, 82432, Note_off_c, 4, 55, 0
6, 82432, Note_on_c, 4, 43, 96
6, 82944, Note_off_c, 4, 43, 0
6, 82944, Note_off_c, 4, 43, 0
6, 82944, Note_on_c, 4, 48, 96
6, 82944, Note_on_c, 4, 48, 96
6, 83968, Note_off_c, 4, 48, 0
6, 83968, Note_off_c, 4, 48, 0
6, 86016, Note_on_c, 4, 43, 96
6, 86016, Note_on_c, 4, 43, 96
6, 87040, Note_off_c, 4, 43, 0
6, 87040, Note_off_c, 4, 43, 0
6, 89088, Note_on_c, 4, 48, 96
6, 89600, Note_on_c, 4, 48, 96
6, 89600, Note_off_c, 4, 48, 0
6, 89600, Note_on_c, 4, 55, 96
6, 89856, Note_off_c, 4, 48, 0
6, 89856, Note_on_c, 4, 48, 96
6, 90112, Note_off_c, 4, 48, 0
6, 90112, Note_on_c, 4, 48, 96
6, 90112, Note_off_c, 4, 55, 0
6, 90112, Note_on_c, 4, 60, 96
6, 90624, Note_off_c, 4, 48, 0
6, 90624, Note_on_c, 4, 48, 96
6, 90624, Note_off_c, 4, 60, 0
6, 90624, Note_on_c, 4, 59, 96
6, 91136, Note_off_c, 4, 48, 0
6, 91136, Note_on_c, 4, 48, 96
6, 91136, Note_off_c, 4, 59, 0
6, 91136, Note_on_c, 4, 57, 96
6, 91648, Note_off_c, 4, 48, 0
6, 91648, Note_on_c, 4, 48, 96
6, 91648, Note_off_c, 4, 57, 0
6, 91648, Note_on_c, 4, 50, 96
6, 91904, Note_off_c, 4, 48, 0
6, 91904, Note_on_c, 4, 48, 96
6, 92160, Note_off_c, 4, 48, 0
6, 92160, Note_off_c, 4, 50, 0
6, 92160, Note_on_c, 4, 43, 96
6, 92160, Note_on_c, 4, 55, 96
6, 93184, Note_off_c, 4, 43, 0
6, 93184, Note_off_c, 4, 55, 0
6, 95232, Note_on_c, 4, 50, 96
6, 96256, Note_off_c, 4, 50, 0
6, 98304, Note_on_c, 4, 43, 96
6, 98304, Note_on_c, 4, 43, 96
6, 98816, Note_off_c, 4, 43, 0
6, 98816, Note_on_c, 4, 50, 96
6, 99328, Note_off_c, 4, 43, 0
6, 99328, Note_off_c, 4, 50, 0
6, 99328, Note_on_c, 4, 55, 96
6, 99840, Note_off_c, 4, 55, 0
6, 99840, Note_on_c, 4, 53, 96
6, 100352, Note_off_c, 4, 53, 0
6, 100352, Note_on_c, 4, 52, 96
6, 100864, Note_off_c, 4, 52, 0
6, 100864, Note_on_c, 4, 45, 96
6, 101376, Note_off_c, 4, 45, 0
6, 101376, Note_on_c, 4, 50, 96
6, 101888, Note_off_c, 4, 50, 0
6, 101888, Note_on_c, 4, 57, 96
6, 102400, Note_off_c, 4, 57, 0
6, 102400, Note_on_c, 4, 62, 96
6, 102912, Note_off_c, 4, 62, 0
6, 102912, Note_on_c, 4, 60, 96
6, 103424, Note_off_c, 4, 60, 0
6, 103424, Note_on_c, 4, 59, 96
6, 103936, Note_off_c, 4, 59, 0
6, 103936, Note_on_c, 4, 52, 96
6, 104448, Note_off_c, 4, 52, 0
6, 104448, Note_on_c, 4, 45, 96
6, 104960, Note_off_c, 4, 45, 0
6, 104960, Note_on_c, 4, 52, 96
6, 105472, Note_off_c, 4, 52, 0
6, 105472, Note_on_c, 4, 57, 96
6, 105984, Note_off_c, 4, 57, 0
6, 105984, Note_on_c, 4, 55, 96
6, 106496, Note_off_c, 4, 55, 0
6, 106496, Note_on_c, 4, 54, 96
6, 107008, Note_off_c, 4, 54, 0
6, 107008, Note_on_c, 4, 47, 96
6, 107520, Note_off_c, 4, 47, 0
6, 107520, Note_on_c, 4, 52, 96
6, 108544, Note_off_c, 4, 52, 0
6, 110592, Note_on_c, 4, 45, 96
6, 111616, Note_off_c, 4, 45, 0
6, 113664, Note_on_c, 4, 50, 96
6, 114688, Note_off_c, 4, 50, 0
6, 116736, Note_on_c, 4, 43, 96
6, 117760, Note_off_c, 4, 43, 0
6, 119808, Note_on_c, 4, 48, 96
6, 119808, Note_on_c, 4, 48, 96
6, 120832, Note_off_c, 4, 48, 0
6, 120832, Note_off_c, 4, 48, 0
6, 120832, Note_on_c, 4, 60, 96
6, 121856, Note_off_c, 4, 60, 0
6, 121856, Note_on_c, 4, 60, 96
6, 122880, Note_off_c, 4, 60, 0
6, 122880, Note_on_c, 4, 43, 96
6, 122880, Note_on_c, 4, 60, 96
6, 123904, Note_off_c, 4, 43, 0
6, 123904, Note_off_c, 4, 60, 0
6, 123904, Note_on_c, 4, 59, 96
6, 124928, Note_off_c, 4, 59, 0
6, 124928, Note_on_c, 4, 59, 96
6, 125952, Note_off_c, 4, 59, 0
6, 125952, Note_on_c, 4, 48, 96
6, 125952, Note_on_c, 4, 60, 96
6, 126464, Note_off_c, 4, 48, 0
6, 126464, Note_on_c, 4, 48, 96
6, 126464, Note_off_c, 4, 60, 0
6, 126464, Note_on_c, 4, 55, 96
6, 126720, Note_off_c, 4, 48, 0
6, 126720, Note_on_c, 4, 48, 96
6, 126976, Note_off_c, 4, 48, 0
6, 126976, Note_on_c, 4, 48, 96
6, 126976, Note_off_c, 4, 55, 0
6, 126976, Note_on_c, 4, 52, 96
6, 127488, Note_off_c, 4, 48, 0
6, 127488, Note_on_c, 4, 48, 96
6, 127488, Note_off_c, 4, 52, 0
6, 127488, Note_on_c, 4, 55, 96
6, 128000, Note_off_c, 4, 48, 0
6, 128000, Note_on_c, 4, 48, 96
6, 128000, Note_off_c, 4, 55, 0
6, 128000, Note_on_c, 4, 52, 96
6, 128512, Note_off_c, 4, 48, 0
6, 128512, Note_on_c, 4, 48, 96
6, 128512, Note_off_c, 4, 52, 0
6, 128512, Note_on_c, 4, 48, 96
6, 129024, Note_off_c, 4, 48, 0
6, 129024, Note_off_c, 4, 48, 0
6, 129024, Note_on_c, 4, 48, 96
6, 129024, Note_on_c, 4, 53, 96
6, 129536, Note_off_c, 4, 48, 0
6, 129536, Note_on_c, 4, 43, 96
6, 129536, Note_off_c, 4, 53, 0
6, 129536, Note_on_c, 4, 47, 96
6, 130048, Note_off_c, 4, 43, 0
6, 130048, Note_on_c, 4, 48, 96
6, 130048, Note_off_c, 4, 47, 0
6, 130048, Note_on_c, 4, 48, 96
6, 130560, Note_off_c, 4, 48, 0
6, 130560, Note_on_c, 4, 48, 96
6, 130560, Note_off_c, 4, 48, 0
6, 130560, Note_on_c, 4, 52, 96
6, 131072, Note_off_c, 4, 48, 0
6, 131072, Note_on_c, 4, 43, 96
6, 131072, Note_off_c, 4, 52, 0
6, 131072, Note_on_c, 4, 55, 96
6, 131584, Note_off_c, 4, 43, 0
6, 131584, Note_on_c, 4, 43, 96
6, 131584, Note_off_c, 4, 55, 0
6, 131584, Note_on_c, 4, 43, 96
6, 131840, Note_off_c, 4, 43, 0
6, 131840, Note_on_c, 4, 43, 96
6, 132096, Note_off_c, 4, 43, 0
6, 132096, Note_off_c, 4, 43, 0
6, 132096, Note_on_c, 4, 48, 96
6, 132096, Note_on_c, 4, 48, 96
6, 133120, Note_off_c, 4, 48, 0
6, 133120, Note_off_c, 4, 48, 0
6, 134144, Note_on_c, 4, 45, 96
6, 135168, Note_off_c, 4, 45, 0
6, 135168, Note_on_c, 4, 50, 96
6, 136192, Note_off_c, 4, 50, 0
6, 137216, Note_on_c, 4, 43, 96
6, 138240, Note_off_c, 4, 43, 0
6, 138240, Note_on_c, 4, 48, 96
6, 138752, Note_off_c, 4, 48, 0
6, 138752, Note_on_c, 4, 50, 96
6, 139264, Note_off_c, 4, 50, 0
6, 139264, Note_on_c, 4, 52, 96
6, 139776, Note_off_c, 4, 52, 0
6, 139776, Note_on_c, 4, 48, 96
6, 140288, Note_off_c, 4, 48, 0
6, 140288, Note_on_c, 4, 45, 96
6, 140800, Note_off_c, 4, 45, 0
6, 140800, Note_on_c, 4, 47, 96
6, 141312, Note_off_c, 4, 47, 0
6, 141312, Note_on_c, 4, 48, 96
6, 141824, Note_off_c, 4, 48, 0
6, 141824, Note_on_c, 4, 45, 96
6, 142336, Note_off_c, 4, 45, 0
6, 142336, Note_on_c, 4, 50, 96
6, 142848, Note_off_c, 4, 50, 0
6, 142848, Note_on_c, 4, 48, 96
6, 143360, Note_off_c, 4, 48, 0
6, 143360, Note_on_c, 4, 50, 96
6, 143872, Note_off_c, 4, 50, 0
6, 143872, Note_on_c, 4, 38, 96
6, 144384, Note_off_c, 4, 38, 0
6, 144384, Note_on_c, 4, 43, 96
6, 145408, Note_off_c, 4, 43, 0
6, 145408, Note_on_c, 4, 48, 96
6, 146432, Note_off_c, 4, 48, 0
6, 146432, Note_on_c, 4, 48, 96
6, 147456, Note_off_c, 4, 48, 0
6, 147456, Note_on_c, 4, 48, 96
6, 148480, Note_off_c, 4, 48, 0
6, 148480, Note_on_c, 4, 47, 96
6, 149504, Note_off_c, 4, 47, 0
6, 149504, Note_on_c, 4, 47, 96
6, 150528, Note_off_c, 4, 47, 0
6, 150528, Note_on_c, 4, 48, 96
6, 151040, Note_on_c, 4, 48, 96
6, 151040, Note_off_c, 4, 48, 0
6, 151040, Note_on_c, 4, 48, 96
6, 151296, Note_off_c, 4, 48, 0
6, 151296, Note_on_c, 4, 48, 96
6, 151296, Note_off_c, 4, 48, 0
6, 151296, Note_on_c, 4, 50, 96
6, 151552, Note_off_c, 4, 48, 0
6, 151552, Note_on_c, 4, 48, 96
6, 151552, Note_off_c, 4, 50, 0
6, 151552, Note_on_c, 4, 52, 96
6, 152064, Note_off_c, 4, 48, 0
6, 152064, Note_on_c, 4, 48, 96
6, 152064, Note_off_c, 4, 52, 0
6, 152064, Note_on_c, 4, 50, 96
6, 152320, Note_off_c, 4, 50, 0
6, 152320, Note_on_c, 4, 48, 96
6, 152576, Note_off_c, 4, 48, 0
6, 152576, Note_on_c, 4, 43, 96
6, 152576, Note_off_c, 4, 48, 0
6, 152576, Note_on_c, 4, 47, 96
6, 153088, Note_off_c, 4, 43, 0
6, 153088, Note_on_c, 4, 43, 96
6, 153088, Note_off_c, 4, 47, 0
6, 153088, Note_on_c, 4, 45, 96
6, 153344, Note_off_c, 4, 45, 0
6, 153344, Note_on_c, 4, 47, 96
6, 153600, Note_off_c, 4, 43, 0
6, 153600, Note_off_c, 4, 47, 0
6, 153600, Note_on_c, 4, 48, 96
6, 153600, Note_on_c, 4, 48, 96
6, 154112, Note_off_c, 4, 48, 0
6, 154112, Note_on_c, 4, 55, 96
6, 154624, Note_off_c, 4, 48, 0
6, 154624, Note_off_c, 4, 55, 0
6, 154624, Note_on_c, 4, 60, 96
6, 155136, Note_on_c, 4, 48, 96
6, 155136, Note_off_c, 4, 60, 0
6, 155136, Note_on_c, 4, 59, 96
6, 155392, Note_off_c, 4, 48, 0
6, 155392, Note_on_c, 4, 48, 96
6, 155648, Note_off_c, 4, 48, 0
6, 155648, Note_on_c, 4, 48, 96
6, 155648, Note_off_c, 4, 59, 0
6, 155648, Note_on_c, 4, 57, 96
6, 156160, Note_off_c, 4, 48, 0
6, 156160, Note_on_c, 4, 48, 96
6, 156160, Note_off_c, 4, 57, 0
6, 156160, Note_on_c, 4, 50, 96
6, 156672, Note_off_c, 4, 48, 0
6, 156672, Note_off_c, 4, 50, 0
6, 156672, Note_on_c, 4, 43, 96
6, 156672, Note_on_c, 4, 43, 96
6, 157184, Note_off_c, 4, 43, 0
6, 157184, Note_on_c, 4, 50, 96
6, 157696, Note_off_c, 4, 43, 0
6, 157696, Note_off_c, 4, 50, 0
6, 157696, Note_on_c, 4, 55, 96
6, 158208, Note_off_c, 4, 55, 0
6, 158208, Note_on_c, 4, 53, 96
6, 158720, Note_off_c, 4, 53, 0
6, 158720, Note_on_c, 4, 52, 96
6, 159232, Note_off_c, 4, 52, 0
6, 159232, Note_on_c, 4, 53, 96
6, 159488, Note_off_c, 4, 53, 0
6, 159488, Note_on_c, 4, 55, 96
6, 159744, Note_off_c, 4, 55, 0
6, 159744, Note_on_c, 4, 57, 96
6, 160256, Note_off_c, 4, 57, 0
6, 160256, Note_on_c, 4, 55, 96
6, 160512, Note_off_c, 4, 55, 0
6, 160512, Note_on_c, 4, 57, 96
6, 160768, Note_off_c, 4, 57, 0
6, 160768, Note_on_c, 4, 59, 96
6, 161280, Note_off_c, 4, 59, 0
6, 161280, Note_on_c, 4, 57, 96
6, 161536, Note_off_c, 4, 57, 0
6, 161536, Note_on_c, 4, 59, 96
6, 161792, Note_off_c, 4, 59, 0
6, 161792, Note_on_c, 4, 60, 96
6, 162304, Note_off_c, 4, 60, 0
6, 162304, Note_on_c, 4, 57, 96
6, 162816, Note_off_c, 4, 57, 0
6, 162816, Note_on_c, 4, 53, 96
6, 163328, Note_on_c, 4, 43, 96
6, 163328, Note_off_c, 4, 53, 0
6, 163328, Note_on_c, 4, 52, 96
6, 163584, Note_off_c, 4, 43, 0
6, 163584, Note_on_c, 4, 43, 96
6, 163584, Note_off_c, 4, 52, 0
6, 163584, Note_on_c, 4, 50, 96
6, 163840, Note_off_c, 4, 43, 0
6, 163840, Note_on_c, 4, 43, 96
6, 163840, Note_off_c, 4, 50, 0
6, 163840, Note_on_c, 4, 55, 96
6, 164352, Note_off_c, 4, 43, 0
6, 164352, Note_on_c, 4, 43, 96
6, 164352, Note_off_c, 4, 55, 0
6, 164352, Note_on_c, 4, 53, 96
6, 164864, Note_off_c, 4, 43, 0
6, 164864, Note_on_c, 4, 43, 96
6, 164864, Note_off_c, 4, 53, 0
6, 164864, Note_on_c, 4, 55, 96
6, 165376, Note_off_c, 4, 43, 0
6, 165376, Note_on_c, 4, 43, 96
6, 165376, Note_off_c, 4, 55, 0
6, 165376, Note_on_c, 4, 43, 96
6, 165888, Note_off_c, 4, 43, 0
6, 165888, Note_off_c, 4, 43, 0
6, 165888, Note_on_c, 4, 48, 96
6, 165888, Note_on_c, 4, 48, 96
6, 166912, Note_off_c, 4, 48, 0
6, 166912, Note_off_c, 4, 48, 0
6, 168960, Note_on_c, 4, 43, 96
6, 168960, Note_on_c, 4, 43, 96
6, 169984, Note_off_c, 4, 43, 0
6, 169984, Note_off_c, 4, 43, 0
6, 172032, Note_on_c, 4, 48, 96
6, 172032, Note_on_c, 4, 48, 96
6, 173056, Note_off_c, 4, 48, 0
6, 173056, Note_off_c, 4, 48, 0
6, 175104, Note_on_c, 4, 53, 96
6, 176128, Note_off_c, 4, 53, 0
6, 178176, Note_on_c, 4, 47, 96
6, 179200, Note_off_c, 4, 47, 0
6, 181248, Note_on_c, 4, 52, 96
6, 182272, Note_off_c, 4, 52, 0
6, 184320, Note_on_c, 4, 45, 96
6, 185344, Note_off_c, 4, 45, 0
6, 187392, Note_on_c, 4, 50, 96
6, 188416, Note_off_c, 4, 50, 0
6, 190464, Note_on_c, 4, 43, 96
6, 190976, Note_on_c, 4, 43, 96
6, 191232, Note_off_c, 4, 43, 0
6, 191232, Note_on_c, 4, 43, 96
6, 191488, Note_off_c, 4, 43, 0
6, 191488, Note_on_c, 4, 43, 96
6, 191488, Note_off_c, 4, 43, 0
6, 192000, Note_off_c, 4, 43, 0
6, 192000, Note_on_c, 4, 43, 96
6, 192512, Note_off_c, 4, 43, 0
6, 192512, Note_on_c, 4, 43, 96
6, 193024, Note_off_c, 4, 43, 0
6, 193024, Note_on_c, 4, 43, 96
6, 193536, Note_off_c, 4, 43, 0
6, 193536, Note_on_c, 4, 48, 96
6, 193536, Note_on_c, 4, 48, 96
6, 194048, Note_off_c, 4, 48, 0
6, 194048, Note_on_c, 4, 36, 96
6, 194560, Note_off_c, 4, 48, 0
6, 194560, Note_off_c, 4, 36, 0
6, 194560, Note_on_c, 4, 48, 96
6, 195072, Note_off_c, 4, 48, 0
6, 195072, Note_on_c, 4, 50, 96
6, 195584, Note_off_c, 4, 50, 0
6, 195584, Note_on_c, 4, 52, 96
6, 196096, Note_off_c, 4, 52, 0
6, 196096, Note_on_c, 4, 53, 96
6, 196608, Note_off_c, 4, 53, 0
6, 196608, Note_on_c, 4, 48, 96
6, 196608, Note_on_c, 4, 52, 96
6, 197120, Note_off_c, 4, 52, 0
6, 197120, Note_on_c, 4, 50, 96
6, 197632, Note_off_c, 4, 48, 0
6, 197632, Note_off_c, 4, 50, 0
6, 197632, Note_on_c, 4, 48, 96
6, 198144, Note_on_c, 4, 48, 96
6, 198144, Note_off_c, 4, 48, 0
6, 198144, Note_on_c, 4, 50, 96
6, 198400, Note_off_c, 4, 48, 0
6, 198400, Note_on_c, 4, 48, 96
6, 198656, Note_off_c, 4, 48, 0
6, 198656, Note_on_c, 4, 48, 96
6, 198656, Note_off_c, 4, 50, 0
6, 198656, Note_on_c, 4, 52, 96
6, 198912, Note_off_c, 4, 48, 0
6, 198912, Note_on_c, 4, 48, 96
6, 199168, Note_off_c, 4, 48, 0
6, 199168, Note_on_c, 4, 48, 96
6, 199168, Note_off_c, 4, 52, 0
6, 199168, Note_on_c, 4, 48, 96
6, 199424, Note_off_c, 4, 48, 0
6, 199424, Note_on_c, 4, 48, 96
6, 199680, Note_off_c, 4, 48, 0
6, 199680, Note_off_c, 4, 48, 0
6, 199680, Note_on_c, 4, 43, 96
6, 199680, Note_on_c, 4, 55, 96
6, 200704, Note_off_c, 4, 43, 0
6, 200704, Note_off_c, 4, 55, 0
6, 202752, Note_on_c, 4, 50, 96
6, 203776, Note_off_c, 4, 50, 0
6, 205824, Note_on_c, 4, 43, 96
6, 205824, Note_on_c, 4, 55, 96
6, 206080, Note_off_c, 4, 55, 0
6, 206080, Note_on_c, 4, 54, 96
6, 206336, Note_off_c, 4, 54, 0
6, 206336, Note_on_c, 4, 55, 96
6, 206592, Note_off_c, 4, 55, 0
6, 206592, Note_on_c, 4, 52, 96
6, 206848, Note_off_c, 4, 43, 0
6, 206848, Note_off_c, 4, 52, 0
6, 206848, Note_on_c, 4, 60, 96
6, 207104, Note_off_c, 4, 60, 0
6, 207104, Note_on_c, 4, 59, 96
6, 207360, Note_off_c, 4, 59, 0
6, 207360, Note_on_c, 4, 60, 96
6, 207616, Note_off_c, 4, 60, 0
6, 207616, Note_on_c, 4, 57, 96
6, 207872, Note_off_c, 4, 57, 0
6, 207872, Note_on_c, 4, 57, 96
6, 208128, Note_off_c, 4, 57, 0
6, 208128, Note_on_c, 4, 55, 96
6, 208384, Note_off_c, 4, 55, 0
6, 208384, Note_on_c, 4, 57, 96
6, 208640, Note_off_c, 4, 57, 0
6, 208640, Note_on_c, 4, 54, 96
6, 208896, Note_off_c, 4, 54, 0
6, 208896, Note_on_c, 4, 59, 96
6, 209408, Note_off_c, 4, 59, 0
6, 209408, Note_on_c, 4, 47, 96
6, 209920, Note_off_c, 4, 47, 0
6, 209920, Note_on_c, 4, 59, 96
6, 210432, Note_off_c, 4, 59, 0
6, 210432, Note_on_c, 4, 57, 96
6, 210688, Note_off_c, 4, 57, 0
6, 210688, Note_on_c, 4, 55, 96
6, 210944, Note_off_c, 4, 55, 0
6, 210944, Note_on_c, 4, 57, 96
6, 211456, Note_off_c, 4, 57, 0
6, 211456, Note_on_c, 4, 59, 96
6, 211968, Note_off_c, 4, 59, 0
6, 211968, Note_on_c, 4, 52, 96
6, 212480, Note_off_c, 4, 52, 0
6, 212480, Note_on_c, 4, 52, 96
6, 212736, Note_off_c, 4, 52, 0
6, 212736, Note_on_c, 4, 54, 96
6, 212992, Note_off_c, 4, 54, 0
6, 212992, Note_on_c, 4, 55, 96
6, 213504, Note_off_c, 4, 55, 0
6, 213504, Note_on_c, 4, 57, 96
6, 213760, Note_off_c, 4, 57, 0
6, 213760, Note_on_c, 4, 54, 96
6, 214016, Note_off_c, 4, 54, 0
6, 214016, Note_on_c, 4, 55, 96
6, 214528, Note_off_c, 4, 55, 0
6, 214528, Note_on_c, 4, 55, 96
6, 214784, Note_off_c, 4, 55, 0
6, 214784, Note_on_c, 4, 57, 96
6, 215040, Note_off_c, 4, 57, 0
6, 215040, Note_on_c, 4, 59, 96
6, 215552, Note_off_c, 4, 59, 0
6, 215552, Note_on_c, 4, 59, 96
6, 215808, Note_off_c, 4, 59, 0
6, 215808, Note_on_c, 4, 61, 96
6, 216064, Note_off_c, 4, 61, 0
6, 216064, Note_on_c, 4, 63, 96
6, 216576, Note_off_c, 4, 63, 0
6, 216576, Note_on_c, 4, 64, 96
6, 216832, Note_off_c, 4, 64, 0
6, 216832, Note_on_c, 4, 61, 96
6, 217088, Note_off_c, 4, 61, 0
6, 217088, Note_on_c, 4, 63, 96
6, 217600, Note_off_c, 4, 63, 0
6, 217600, Note_on_c, 4, 61, 96
6, 217856, Note_off_c, 4, 61, 0
6, 217856, Note_on_c, 4, 63, 96
6, 218112, Note_off_c, 4, 63, 0
6, 218112, Note_on_c, 4, 64, 96
6, 218624, Note_off_c, 4, 64, 0
6, 218624, Note_on_c, 4, 62, 96
6, 219136, Note_off_c, 4, 62, 0
6, 219136, Note_on_c, 4, 60, 96
6, 219648, Note_off_c, 4, 60, 0
6, 219648, Note_on_c, 4, 59, 96
6, 220160, Note_off_c, 4, 59, 0
6, 220160, Note_on_c, 4, 60, 96
6, 220672, Note_off_c, 4, 60, 0
6, 220672, Note_on_c, 4, 57, 96
6, 221184, Note_off_c, 4, 57, 0
6, 221184, Note_on_c, 4, 59, 96
6, 222208, Note_off_c, 4, 59, 0
6, 224256, Note_on_c, 4, 52, 96
6, 225280, Note_off_c, 4, 52, 0
6, 227328, Note_on_c, 4, 57, 96
6, 228352, Note_off_c, 4, 57, 0
6, 230400, Note_on_c, 4, 50, 96
6, 231424, Note_off_c, 4, 50, 0
6, 233472, Note_on_c, 4, 43, 96
6, 233472, Note_on_c, 4, 43, 96
6, 234496, Note_off_c, 4, 43, 0
6, 234496, Note_off_c, 4, 43, 0
6, 234496, Note_on_c, 4, 55, 96
6, 235520, Note_off_c, 4, 55, 0
6, 235520, Note_on_c, 4, 55, 96
6, 236544, Note_off_c, 4, 55, 0
6, 236544, Note_on_c, 4, 55, 96
6, 237568, Note_off_c, 4, 55, 0
6, 237568, Note_on_c, 4, 54, 96
6, 238592, Note_off_c, 4, 54, 0
6, 238592, Note_on_c, 4, 54, 96
6, 239616, Note_off_c, 4, 54, 0
6, 239616, Note_on_c, 4, 55, 96
6, 240128, Note_on_c, 4, 43, 96
6, 240128, Note_off_c, 4, 55, 0
6, 240128, Note_on_c, 4, 50, 96
6, 240384, Note_off_c, 4, 43, 0
6, 240384, Note_on_c, 4, 43, 96
6, 240640, Note_off_c, 4, 43, 0
6, 240640, Note_on_c, 4, 43, 96
6, 240640, Note_off_c, 4, 50, 0
6, 240640, Note_on_c, 4, 47, 96
6, 241152, Note_off_c, 4, 43, 0
6, 241152, Note_on_c, 4, 43, 96
6, 241152, Note_off_c, 4, 47, 0
6, 241152, Note_on_c, 4, 50, 96
6, 241664, Note_off_c, 4, 43, 0
6, 241664, Note_on_c, 4, 43, 96
6, 241664, Note_off_c, 4, 50, 0
6, 241664, Note_on_c, 4, 47, 96
6, 242176, Note_off_c, 4, 43, 0
6, 242176, Note_on_c, 4, 43, 96
6, 242176, Note_off_c, 4, 47, 0
6, 242176, Note_on_c, 4, 43, 96
6, 242688, Note_off_c, 4, 43, 0
6, 242688, Note_off_c, 4, 43, 0
6, 242688, Note_on_c, 4, 48, 96
6, 242688, Note_on_c, 4, 48, 96
6, 243200, Note_off_c, 4, 48, 0
6, 243200, Note_off_c, 4, 48, 0
6, 243200, Note_on_c, 4, 42, 96
6, 243712, Note_on_c, 4, 43, 96
6, 243712, Note_off_c, 4, 42, 0
6, 243712, Note_on_c, 4, 43, 96
6, 244224, Note_off_c, 4, 43, 0
6, 244224, Note_off_c, 4, 43, 0
6, 244224, Note_on_c, 4, 47, 96
6, 244736, Note_on_c, 4, 48, 96
6, 244736, Note_off_c, 4, 47, 0
6, 244736, Note_on_c, 4, 50, 96
6, 245248, Note_off_c, 4, 48, 0
6, 245248, Note_off_c, 4, 50, 0
6, 245248, Note_on_c, 4, 38, 96
6, 245760, Note_off_c, 4, 38, 0
6, 245760, Note_on_c, 4, 43, 96
6, 245760, Note_on_c, 4, 43, 96
6, 246784, Note_off_c, 4, 43, 0
6, 246784, Note_off_c, 4, 43, 0
6, 247808, Note_on_c, 4, 40, 96
6, 248832, Note_off_c, 4, 40, 0
6, 248832, Note_on_c, 4, 45, 96
6, 249856, Note_off_c, 4, 45, 0
6, 250880, Note_on_c, 4, 38, 96
6, 251904, Note_off_c, 4, 38, 0
6, 251904, Note_on_c, 4, 43, 96
6, 252416, Note_off_c, 4, 43, 0
6, 252416, Note_on_c, 4, 52, 96
6, 252928, Note_off_c, 4, 52, 0
6, 252928, Note_on_c, 4, 57, 96
6, 253440, Note_off_c, 4, 57, 0
6, 253440, Note_on_c, 4, 53, 96
6, 253952, Note_off_c, 4, 53, 0
6, 253952, Note_on_c, 4, 50, 96
6, 254464, Note_off_c, 4, 50, 0
6, 254464, Note_on_c, 4, 52, 96
6, 254976, Note_off_c, 4, 52, 0
6, 254976, Note_on_c, 4, 53, 96
6, 255488, Note_off_c, 4, 53, 0
6, 255488, Note_on_c, 4, 50, 96
6, 256000, Note_off_c, 4, 50, 0
6, 256000, Note_on_c, 4, 55, 96
6, 256512, Note_off_c, 4, 55, 0
6, 256512, Note_on_c, 4, 53, 96
6, 257024, Note_off_c, 4, 53, 0
6, 257024, Note_on_c, 4, 55, 96
6, 257536, Note_off_c, 4, 55, 0
6, 257536, Note_on_c, 4, 43, 96
6, 258048, Note_off_c, 4, 43, 0
6, 258048, Note_on_c, 4, 36, 96
6, 259072, Note_off_c, 4, 36, 0
6, 259072, Note_on_c, 4, 48, 96
6, 260096, Note_off_c, 4, 48, 0
6, 260096, Note_on_c, 4, 48, 96
6, 261120, Note_off_c, 4, 48, 0
6, 261120, Note_on_c, 4, 48, 96
6, 262144, Note_off_c, 4, 48, 0
6, 262144, Note_on_c, 4, 47, 96
6, 263168, Note_off_c, 4, 47, 0
6, 263168, Note_on_c, 4, 47, 96
6, 264192, Note_off_c, 4, 47, 0
6, 264192, Note_on_c, 4, 48, 96
6, 264704, Note_off_c, 4, 48, 0
6, 264704, Note_on_c, 4, 50, 96
6, 264960, Note_off_c, 4, 50, 0
6, 264960, Note_on_c, 4, 52, 96
6, 265216, Note_off_c, 4, 52, 0
6, 265216, Note_on_c, 4, 53, 96
6, 265728, Note_off_c, 4, 53, 0
6, 265728, Note_on_c, 4, 53, 96
6, 265984, Note_off_c, 4, 53, 0
6, 265984, Note_on_c, 4, 52, 96
6, 266240, Note_off_c, 4, 52, 0
6, 266240, Note_on_c, 4, 50, 96
6, 266752, Note_off_c, 4, 50, 0
6, 266752, Note_on_c, 4, 48, 96
6, 267008, Note_off_c, 4, 48, 0
6, 267008, Note_on_c, 4, 50, 96
6, 267264, Note_off_c, 4, 50, 0
6, 267264, Note_on_c, 4, 52, 96
6, 267776, Note_off_c, 4, 52, 0
6, 267776, Note_on_c, 4, 53, 96
6, 268032, Note_off_c, 4, 53, 0
6, 268032, Note_on_c, 4, 55, 96
6, 268288, Note_off_c, 4, 55, 0
6, 268288, Note_on_c, 4, 57, 96
6, 268800, Note_off_c, 4, 57, 0
6, 268800, Note_on_c, 4, 57, 96
6, 269056, Note_off_c, 4, 57, 0
6, 269056, Note_on_c, 4, 59, 96
6, 269312, Note_off_c, 4, 59, 0
6, 269312, Note_on_c, 4, 60, 96
6, 269824, Note_off_c, 4, 60, 0
6, 269824, Note_on_c, 4, 52, 96
6, 270336, Note_off_c, 4, 52, 0
6, 270336, Note_on_c, 4, 53, 96
6, 270848, Note_off_c, 4, 53, 0
6, 270848, Note_on_c, 4, 50, 96
6, 271360, Note_off_c, 4, 50, 0
6, 271360, Note_on_c, 4, 55, 96
6, 271872, Note_off_c, 4, 55, 0
6, 271872, Note_on_c, 4, 53, 96
6, 272384, Note_off_c, 4, 53, 0
6, 272384, Note_on_c, 4, 55, 96
6, 272896, Note_off_c, 4, 55, 0
6, 272896, Note_on_c, 4, 43, 96
6, 273408, Note_off_c, 4, 43, 0
6, 273408, Note_on_c, 4, 48, 96
6, 273408, Note_on_c, 4, 48, 96
6, 274432, Note_off_c, 4, 48, 0
6, 274432, Note_off_c, 4, 48, 0
6, 276480, Note_on_c, 4, 43, 96
6, 276480, Note_on_c, 4, 43, 96
6, 277504, Note_off_c, 4, 43, 0
6, 277504, Note_off_c, 4, 43, 0
6, 279552, Note_on_c, 4, 48, 96
6, 280064, Note_on_c, 4, 48, 96
6, 280064, Note_off_c, 4, 48, 0
6, 280064, Note_on_c, 4, 55, 96
6, 280320, Note_off_c, 4, 48, 0
6, 280320, Note_on_c, 4, 48, 96
6, 280576, Note_off_c, 4, 48, 0
6, 280576, Note_on_c, 4, 48, 96
6, 280576, Note_off_c, 4, 55, 0
6, 280576, Note_on_c, 4, 60, 96
6, 281088, Note_off_c, 4, 48, 0
6, 281088, Note_on_c, 4, 48, 96
6, 281088, Note_off_c, 4, 60, 0
6, 281088, Note_on_c, 4, 59, 96
6, 281600, Note_off_c, 4, 48, 0
6, 281600, Note_on_c, 4, 48, 96
6, 281600, Note_off_c, 4, 59, 0
6, 281600, Note_on_c, 4, 57, 96
6, 282112, Note_off_c, 4, 48, 0
6, 282112, Note_on_c, 4, 48, 96
6, 282112, Note_off_c, 4, 57, 0
6, 282112, Note_on_c, 4, 50, 96
6, 282368, Note_off_c, 4, 48, 0
6, 282368, Note_on_c, 4, 48, 96
6, 282624, Note_off_c, 4, 48, 0
6, 282624, Note_off_c, 4, 50, 0
6, 282624, Note_on_c, 4, 43, 96
6, 282624, Note_on_c, 4, 55, 96
6, 283648, Note_off_c, 4, 43, 0
6, 283648, Note_off_c, 4, 55, 0
6, 285696, Note_on_c, 4, 50, 96
6, 286720, Note_off_c, 4, 50, 0
6, 288768, Note_on_c, 4, 43, 96
6, 288768, Note_on_c, 4, 41, 96
6, 289280, Note_off_c, 4, 41, 0
6, 289280, Note_on_c, 4, 50, 96
6, 289792, Note_off_c, 4, 43, 0
6, 289792, Note_off_c, 4, 50, 0
6, 289792, Note_on_c, 4, 55, 96
6, 290304, Note_off_c, 4, 55, 0
6, 290304, Note_on_c, 4, 53, 96
6, 290816, Note_off_c, 4, 53, 0
6, 290816, Note_on_c, 4, 52, 96
6, 291328, Note_off_c, 4, 52, 0
6, 291328, Note_on_c, 4, 45, 96
6, 291840, Note_off_c, 4, 45, 0
6, 291840, Note_on_c, 4, 50, 96
6, 292352, Note_off_c, 4, 50, 0
6, 292352, Note_on_c, 4, 57, 96
6, 292864, Note_off_c, 4, 57, 0
6, 292864, Note_on_c, 4, 62, 96
6, 293376, Note_off_c, 4, 62, 0
6, 293376, Note_on_c, 4, 60, 96
6, 293888, Note_off_c, 4, 60, 0
6, 293888, Note_on_c, 4, 59, 96
6, 294400, Note_off_c, 4, 59, 0
6, 294400, Note_on_c, 4, 52, 96
6, 294912, Note_off_c, 4, 52, 0
6, 294912, Note_on_c, 4, 57, 96
6, 295424, Note_off_c, 4, 57, 0
6, 295424, Note_on_c, 4, 52, 96
6, 295936, Note_off_c, 4, 52, 0
6, 295936, Note_on_c, 4, 57, 96
6, 296448, Note_off_c, 4, 57, 0
6, 296448, Note_on_c, 4, 55, 96
6, 296960, Note_off_c, 4, 55, 0
6, 296960, Note_on_c, 4, 54, 96
6, 297472, Note_off_c, 4, 54, 0
6, 297472, Note_on_c, 4, 47, 96
6, 297984, Note_off_c, 4, 47, 0
6, 297984, Note_on_c, 4, 52, 96
6, 299008, Note_off_c, 4, 52, 0
6, 301056, Note_on_c, 4, 45, 96
6, 302080, Note_off_c, 4, 45, 0
6, 304128, Note_on_c, 4, 50, 96
6, 305152, Note_off_c, 4, 50, 0
6, 307200, Note_on_c, 4, 43, 96
6, 308224, Note_off_c, 4, 43, 0
6, 310272, Note_on_c, 4, 48, 96
6, 310272, Note_on_c, 4, 48, 96
6, 311296, Note_off_c, 4, 48, 0
6, 311296, Note_off_c, 4, 48, 0
6, 311296, Note_on_c, 4, 60, 96
6, 312320, Note_off_c, 4, 60, 0
6, 312320, Note_on_c, 4, 60, 96
6, 313344, Note_off_c, 4, 60, 0
6, 313344, Note_on_c, 4, 43, 96
6, 313344, Note_on_c, 4, 60, 96
6, 314368, Note_off_c, 4, 43, 0
6, 314368, Note_off_c, 4, 60, 0
6, 314368, Note_on_c, 4, 59, 96
6, 315392, Note_off_c, 4, 59, 0
6, 315392, Note_on_c, 4, 59, 96
6, 316416, Note_off_c, 4, 59, 0
6, 316416, Note_on_c, 4, 48, 96
6, 316416, Note_on_c, 4, 60, 96
6, 316928, Note_off_c, 4, 48, 0
6, 316928, Note_on_c, 4, 48, 96
6, 316928, Note_off_c, 4, 60, 0
6, 316928, Note_on_c, 4, 55, 96
6, 317184, Note_off_c, 4, 48, 0
6, 317184, Note_on_c, 4, 48, 96
6, 317440, Note_off_c, 4, 48, 0
6, 317440, Note_on_c, 4, 48, 96
6, 317440, Note_off_c, 4, 55, 0
6, 317440, Note_on_c, 4, 52, 96
6, 317952, Note_off_c, 4, 48, 0
6, 317952, Note_on_c, 4, 48, 96
6, 317952, Note_off_c, 4, 52, 0
6, 317952, Note_on_c, 4, 55, 96
6, 318464, Note_off_c, 4, 48, 0
6, 318464, Note_on_c, 4, 48, 96
6, 318464, Note_off_c, 4, 55, 0
6, 318464, Note_on_c, 4, 52, 96
6, 318976, Note_off_c, 4, 48, 0
6, 318976, Note_on_c, 4, 48, 96
6, 318976, Note_off_c, 4, 52, 0
6, 318976, Note_on_c, 4, 48, 96
6, 319488, Note_off_c, 4, 48, 0
6, 319488, Note_off_c, 4, 48, 0
6, 319488, Note_on_c, 4, 48, 96
6, 319488, Note_on_c, 4, 53, 96
6, 320000, Note_off_c, 4, 48, 0
6, 320000, Note_on_c, 4, 43, 96
6, 320000, Note_off_c, 4, 53, 0
6, 320000, Note_on_c, 4, 47, 96
6, 320512, Note_off_c, 4, 43, 0
6, 320512, Note_on_c, 4, 48, 96
6, 320512, Note_off_c, 4, 47, 0
6, 320512, Note_on_c, 4, 48, 96
6, 321024, Note_off_c, 4, 48, 0
6, 321024, Note_on_c, 4, 48, 96
6, 321024, Note_off_c, 4, 48, 0
6, 321024, Note_on_c, 4, 52, 96
6, 321536, Note_off_c, 4, 48, 0
6, 321536, Note_on_c, 4, 43, 96
6, 321536, Note_off_c, 4, 52, 0
6, 321536, Note_on_c, 4, 55, 96
6, 322048, Note_off_c, 4, 43, 0
6, 322048, Note_on_c, 4, 43, 96
6, 322048, Note_off_c, 4, 55, 0
6, 322048, Note_on_c, 4, 43, 96
6, 322304, Note_off_c, 4, 43, 0
6, 322304, Note_on_c, 4, 43, 96
6, 322560, Note_off_c, 4, 43, 0
6, 322560, Note_off_c, 4, 43, 0
6, 322560, Note_on_c, 4, 48, 96
6, 322560, Note_on_c, 4, 48, 96
6, 324608, Note_off_c, 4, 48, 0
6, 325632, Note_off_c, 4, 48, 0
6, 325632, End_track
7, 0, Start_track
7, 0, Title_t, "Instrument 6"
7, 0, Note_on_c, 5, 76, 96
7, 0, Note_on_c, 5, 72, 96
7, 0, Note_on_c, 5, 67, 96
7, 1024, Note_off_c, 5, 76, 0
7, 1024, Note_off_c, 5, 72, 0
7, 1024, Note_off_c, 5, 67, 0
7, 3072, Note_on_c, 5, 79, 96
7, 3072, Note_on_c, 5, 74, 96
7, 3072, Note_on_c, 5, 67, 96
7, 4096, Note_off_c, 5, 79, 0
7, 4096, Note_off_c, 5, 74, 0
7, 4096, Note_off_c, 5, 67, 0
7, 6656, Note_on_c, 5, 72, 96
7, 6656, Note_on_c, 5, 67, 96
7, 6656, Note_on_c, 5, 64, 96
7, 6912, Note_off_c, 5, 72, 0
7, 6912, Note_on_c, 5, 74, 96
7, 7168, Note_off_c, 5, 74, 0
7, 7168, Note_on_c, 5, 76, 96
7, 7168, Note_off_c, 5, 67, 0
7, 7168, Note_on_c, 5, 67, 96
7, 7168, Note_off_c, 5, 64, 0
7, 7168, Note_on_c, 5, 60, 96
7, 7680, Note_off_c, 5, 76, 0
7, 7680, Note_on_c, 5, 76, 96
7, 7680, Note_off_c, 5, 67, 0
7, 7680, Note_on_c, 5, 67, 96
7, 7680, Note_off_c, 5, 60, 0
7, 7680, Note_on_c, 5, 64, 96
7, 7936, Note_off_c, 5, 76, 0
7, 7936, Note_on_c, 5, 74, 96
7, 8192, Note_off_c, 5, 74, 0
7, 8192, Note_on_c, 5, 76, 96
7, 8192, Note_off_c, 5, 67, 0
7, 8192, Note_on_c, 5, 72, 96
7, 8192, Note_off_c, 5, 64, 0
7, 8192, Note_on_c, 5, 67, 96
7, 8704, Note_off_c, 5, 76, 0
7, 8704, Note_on_c, 5, 79, 96
7, 8704, Note_off_c, 5, 72, 0
7, 8704, Note_on_c, 5, 74, 96
7, 8704, Note_off_c, 5, 67, 0
7, 8704, Note_on_c, 5, 72, 96
7, 8960, Note_off_c, 5, 79, 0
7, 8960, Note_on_c, 5, 78, 96
7, 9216, Note_off_c, 5, 78, 0
7, 9216, Note_off_c, 5, 74, 0
7, 9216, Note_off_c, 5, 72, 0
7, 9216, Note_on_c, 5, 79, 96
7, 9216, Note_on_c, 5, 76, 96
7, 9216, Note_on_c, 5, 67, 96
7, 10240, Note_off_c, 5, 79, 0
7, 10240, Note_off_c, 5, 76, 0
7, 10240, Note_off_c, 5, 67, 0
7, 12288, Note_on_c, 5, 81, 96
7, 12288, Note_on_c, 5, 74, 96
7, 13312, Note_off_c, 5, 81, 0
7, 13312, Note_off_c, 5, 74, 0
7, 15360, Note_on_c, 5, 83, 96
7, 15360, Note_on_c, 5, 74, 96
7, 15360, Note_on_c, 5, 67, 96
7, 16384, Note_off_c, 5, 83, 0
7, 16384, Note_off_c, 5, 74, 0
7, 16384, Note_off_c, 5, 67, 0
7, 25088, Note_on_c, 5, 79, 96
7, 25088, Note_on_c, 5, 76, 96
7, 25600, Note_off_c, 5, 79, 0
7, 25600, Note_on_c, 5, 79, 96
7, 25600, Note_off_c, 5, 76, 0
7, 25600, Note_on_c, 5, 76, 96
7, 26112, Note_off_c, 5, 79, 0
7, 26112, Note_on_c, 5, 79, 96
7, 26112, Note_off_c, 5, 76, 0
7, 26112, Note_on_c, 5, 76, 96
7, 26624, Note_off_c, 5, 79, 0
7, 26624, Note_on_c, 5, 79, 96
7, 26624, Note_off_c, 5, 76, 0
7, 26624, Note_on_c, 5, 76, 96
7, 27136, Note_off_c, 5, 79, 0
7, 27136, Note_on_c, 5, 79, 96
7, 27136, Note_off_c, 5, 76, 0
7, 27136, Note_on_c, 5, 76, 96
7, 27648, Note_off_c, 5, 79, 0
7, 27648, Note_off_c, 5, 76, 0
7, 28160, Note_on_c, 5, 79, 96
7, 28160, Note_on_c, 5, 76, 96
7, 28672, Note_off_c, 5, 79, 0
7, 28672, Note_on_c, 5, 79, 96
7, 28672, Note_off_c, 5, 76, 0
7, 28672, Note_on_c, 5, 76, 96
7, 29184, Note_off_c, 5, 79, 0
7, 29184, Note_on_c, 5, 79, 96
7, 29184, Note_off_c, 5, 76, 0
7, 29184, Note_on_c, 5, 76, 96
7, 29696, Note_off_c, 5, 79, 0
7, 29696, Note_on_c, 5, 79, 96
7, 29696, Note_off_c, 5, 76, 0
7, 29696, Note_on_c, 5, 76, 96
7, 30208, Note_off_c, 5, 79, 0
7, 30208, Note_on_c, 5, 79, 96
7, 30208, Note_off_c, 5, 76, 0
7, 30208, Note_on_c, 5, 76, 96
7, 30720, Note_off_c, 5, 79, 0
7, 30720, Note_off_c, 5, 76, 0
7, 31232, Note_on_c, 5, 77, 96
7, 31232, Note_on_c, 5, 74, 96
7, 31744, Note_off_c, 5, 77, 0
7, 31744, Note_on_c, 5, 77, 96
7, 31744, Note_off_c, 5, 74, 0
7, 31744, Note_on_c, 5, 74, 96
7, 32256, Note_off_c, 5, 77, 0
7, 32256, Note_on_c, 5, 77, 96
7, 32256, Note_off_c, 5, 74, 0
7, 32256, Note_on_c, 5, 74, 96
7, 32768, Note_off_c, 5, 77, 0
7, 32768, Note_on_c, 5, 77, 96
7, 32768, Note_off_c, 5, 74, 0
7, 32768, Note_on_c, 5, 74, 96
7, 33280, Note_off_c, 5, 77, 0
7, 33280, Note_on_c, 5, 77, 96
7, 33280, Note_off_c, 5, 74, 0
7, 33280, Note_on_c, 5, 74, 96
7, 33792, Note_off_c, 5, 77, 0
7, 33792, Note_off_c, 5, 74, 0
7, 34304, Note_on_c, 5, 77, 96
7, 34304, Note_on_c, 5, 74, 96
7, 34816, Note_off_c, 5, 77, 0
7, 34816, Note_on_c, 5, 77, 96
7, 34816, Note_off_c, 5, 74, 0
7, 34816, Note_on_c, 5, 74, 96
7, 35328, Note_off_c, 5, 77, 0
7, 35328, Note_on_c, 5, 77, 96
7, 35328, Note_off_c, 5, 74, 0
7, 35328, Note_on_c, 5, 74, 96
7, 35840, Note_off_c, 5, 77, 0
7, 35840, Note_on_c, 5, 77, 96
7, 35840, Note_off_c, 5, 74, 0
7, 35840, Note_on_c, 5, 74, 96
7, 36352, Note_off_c, 5, 77, 0
7, 36352, Note_on_c, 5, 77, 96
7, 36352, Note_off_c, 5, 74, 0
7, 36352, Note_on_c, 5, 74, 96
7, 36864, Note_off_c, 5, 77, 0
7, 36864, Note_off_c, 5, 74, 0
7, 36864, Note_on_c, 5, 76, 96
7, 36864, Note_on_c, 5, 72, 96
7, 36864, Note_on_c, 5, 67, 96
7, 37376, Note_off_c, 5, 76, 0
7, 37376, Note_on_c, 5, 79, 96
7, 37376, Note_off_c, 5, 72, 0
7, 37376, Note_on_c, 5, 76, 96
7, 37888, Note_off_c, 5, 79, 0
7, 37888, Note_on_c, 5, 76, 96
7, 37888, Note_off_c, 5, 76, 0
7, 37888, Note_on_c, 5, 72, 96
7, 37888, Note_off_c, 5, 67, 0
7, 38400, Note_off_c, 5, 76, 0
7, 38400, Note_on_c, 5, 81, 96
7, 38400, Note_off_c, 5, 72, 0
7, 38400, Note_on_c, 5, 77, 96
7, 39424, Note_off_c, 5, 81, 0
7, 39424, Note_on_c, 5, 79, 96
7, 39424, Note_off_c, 5, 77, 0
7, 39424, Note_on_c, 5, 76, 96
7, 39936, Note_off_c, 5, 79, 0
7, 39936, Note_off_c, 5, 76, 0
7, 39936, Note_on_c, 5, 77, 96
7, 39936, Note_on_c, 5, 74, 96
7, 39936, Note_on_c, 5, 67, 96
7, 40448, Note_off_c, 5, 77, 0
7, 40448, Note_on_c, 5, 77, 96
7, 40448, Note_off_c, 5, 74, 0
7, 40448, Note_on_c, 5, 74, 96
7, 40704, Note_off_c, 5, 77, 0
7, 40704, Note_on_c, 5, 76, 96
7, 40704, Note_off_c, 5, 74, 0
7, 40704, Note_on_c, 5, 72, 96
7, 40960, Note_off_c, 5, 76, 0
7, 40960, Note_on_c, 5, 77, 96
7, 40960, Note_off_c, 5, 72, 0
7, 40960, Note_on_c, 5, 74, 96
7, 40960, Note_off_c, 5, 67, 0
7, 41472, Note_off_c, 5, 77, 0
7, 41472, Note_on_c, 5, 86, 96
7, 41472, Note_off_c, 5, 74, 0
7, 41472, Note_on_c, 5, 77, 96
7, 42496, Note_off_c, 5, 86, 0
7, 42496, Note_on_c, 5, 77, 96
7, 42496, Note_off_c, 5, 77, 0
7, 42496, Note_on_c, 5, 74, 96
7, 43008, Note_off_c, 5, 77, 0
7, 43008, Note_off_c, 5, 74, 0
7, 43008, Note_on_c, 5, 76, 96
7, 43008, Note_on_c, 5, 72, 96
7, 43008, Note_on_c, 5, 67, 96
7, 43520, Note_off_c, 5, 76, 0
7, 43520, Note_on_c, 5, 76, 96
7, 43520, Note_off_c, 5, 72, 0
7, 43520, Note_on_c, 5, 72, 96
7, 43520, Note_off_c, 5, 67, 0
7, 43520, Note_on_c, 5, 67, 96
7, 43776, Note_off_c, 5, 76, 0
7, 43776, Note_on_c, 5, 77, 96
7, 43776, Note_off_c, 5, 72, 0
7, 43776, Note_on_c, 5, 74, 96
7, 43776, Note_off_c, 5, 67, 0
7, 43776, Note_on_c, 5, 67, 96
7, 44032, Note_off_c, 5, 77, 0
7, 44032, Note_on_c, 5, 79, 96
7, 44032, Note_off_c, 5, 74, 0
7, 44032, Note_on_c, 5, 76, 96
7, 44032, Note_off_c, 5, 67, 0
7, 44032, Note_on_c, 5, 72, 96
7, 44544, Note_off_c, 5, 79, 0
7, 44544, Note_on_c, 5, 79, 96
7, 44544, Note_off_c, 5, 76, 0
7, 44544, Note_on_c, 5, 76, 96
7, 44544, Note_off_c, 5, 72, 0
7, 44544, Note_on_c, 5, 72, 96
7, 44800, Note_off_c, 5, 79, 0
7, 44800, Note_on_c, 5, 81, 96
7, 44800, Note_off_c, 5, 76, 0
7, 44800, Note_on_c, 5, 77, 96
7, 45056, Note_off_c, 5, 81, 0
7, 45056, Note_on_c, 5, 82, 96
7, 45056, Note_off_c, 5, 77, 0
7, 45056, Note_on_c, 5, 79, 96
7, 45056, Note_off_c, 5, 72, 0
7, 45056, Note_on_c, 5, 72, 96
7, 45568, Note_off_c, 5, 82, 0
7, 45568, Note_on_c, 5, 81, 96
7, 45568, Note_off_c, 5, 79, 0
7, 45568, Note_on_c, 5, 77, 96
7, 45568, Note_off_c, 5, 72, 0
7, 45568, Note_on_c, 5, 72, 96
7, 45824, Note_off_c, 5, 81, 0
7, 45824, Note_on_c, 5, 79, 96
7, 45824, Note_off_c, 5, 77, 0
7, 45824, Note_on_c, 5, 76, 96
7, 46080, Note_off_c, 5, 79, 0
7, 46080, Note_off_c, 5, 76, 0
7, 46080, Note_off_c, 5, 72, 0
7, 46080, Note_on_c, 5, 81, 96
7, 46080, Note_on_c, 5, 77, 96
7, 46080, Note_on_c, 5, 72, 96
7, 46592, Note_off_c, 5, 81, 0
7, 46592, Note_on_c, 5, 79, 96
7, 46592, Note_off_c, 5, 77, 0
7, 46592, Note_on_c, 5, 74, 96
7, 46592, Note_off_c, 5, 72, 0
7, 46592, Note_on_c, 5, 74, 96
7, 46848, Note_off_c, 5, 79, 0
7, 46848, Note_on_c, 5, 77, 96
7, 47104, Note_off_c, 5, 77, 0
7, 47104, Note_on_c, 5, 76, 96
7, 47104, Note_off_c, 5, 74, 0
7, 47104, Note_on_c, 5, 72, 96
7, 47104, Note_off_c, 5, 74, 0
7, 47104, Note_on_c, 5, 67, 96
7, 47616, Note_off_c, 5, 76, 0
7, 47616, Note_on_c, 5, 79, 96
7, 47616, Note_off_c, 5, 72, 0
7, 47616, Note_on_c, 5, 72, 96
7, 47616, Note_off_c, 5, 67, 0
7, 47616, Note_on_c, 5, 67, 96
7, 48128, Note_off_c, 5, 79, 0
7, 48128, Note_on_c, 5, 77, 96
7, 48128, Note_off_c, 5, 72, 0
7, 48128, Note_on_c, 5, 72, 96
7, 48128, Note_off_c, 5, 67, 0
7, 48128, Note_on_c, 5, 67, 96
7, 48384, Note_off_c, 5, 77, 0
7, 48384, Note_on_c, 5, 76, 96
7, 48640, Note_off_c, 5, 76, 0
7, 48640, Note_on_c, 5, 74, 96
7, 48640, Note_off_c, 5, 72, 0
7, 48640, Note_on_c, 5, 67, 96
7, 48640, Note_off_c, 5, 67, 0
7, 48640, Note_on_c, 5, 67, 96
7, 48896, Note_off_c, 5, 74, 0
7, 48896, Note_on_c, 5, 76, 96
7, 49152, Note_off_c, 5, 76, 0
7, 49152, Note_off_c, 5, 67, 0
7, 49152, Note_off_c, 5, 67, 0
7, 49152, Note_on_c, 5, 72, 96
7, 49152, Note_on_c, 5, 67, 96
7, 49152, Note_on_c, 5, 64, 96
7, 50176, Note_off_c, 5, 72, 0
7, 50176, Note_off_c, 5, 67, 0
7, 50176, Note_off_c, 5, 64, 0
7, 68096, Note_on_c, 5, 79, 96
7, 68096, Note_on_c, 5, 76, 96
7, 68096, Note_on_c, 5, 72, 96
7, 68352, Note_off_c, 5, 79, 0
7, 68352, Note_on_c, 5, 77, 96
7, 68352, Note_off_c, 5, 76, 0
7, 68352, Note_on_c, 5, 74, 96
7, 68352, Note_off_c, 5, 72, 0
7, 68352, Note_on_c, 5, 67, 96
7, 68608, Note_off_c, 5, 77, 0
7, 68608, Note_on_c, 5, 76, 96
7, 68608, Note_off_c, 5, 74, 0
7, 68608, Note_on_c, 5, 72, 96
7, 68608, Note_off_c, 5, 67, 0
7, 68608, Note_on_c, 5, 67, 96
7, 68864, Note_off_c, 5, 76, 0
7, 68864, Note_on_c, 5, 79, 96
7, 69120, Note_off_c, 5, 79, 0
7, 69120, Note_on_c, 5, 77, 96
7, 69120, Note_off_c, 5, 72, 0
7, 69120, Note_on_c, 5, 67, 96
7, 69120, Note_off_c, 5, 67, 0
7, 69120, Note_on_c, 5, 67, 96
7, 69376, Note_off_c, 5, 77, 0
7, 69376, Note_on_c, 5, 76, 96
7, 69632, Note_off_c, 5, 76, 0
7, 69632, Note_on_c, 5, 74, 96
7, 69632, Note_off_c, 5, 67, 0
7, 69632, Note_on_c, 5, 67, 96
7, 69632, Note_off_c, 5, 67, 0
7, 69632, Note_on_c, 5, 67, 96
7, 69888, Note_off_c, 5, 74, 0
7, 69888, Note_on_c, 5, 76, 96
7, 70144, Note_off_c, 5, 76, 0
7, 70144, Note_on_c, 5, 72, 96
7, 70144, Note_off_c, 5, 67, 0
7, 70144, Note_on_c, 5, 67, 96
7, 70144, Note_off_c, 5, 67, 0
7, 70144, Note_on_c, 5, 67, 96
7, 70400, Note_off_c, 5, 72, 0
7, 70400, Note_on_c, 5, 74, 96
7, 70656, Note_off_c, 5, 74, 0
7, 70656, Note_off_c, 5, 67, 0
7, 70656, Note_off_c, 5, 67, 0
7, 70656, Note_on_c, 5, 76, 96
7, 70656, Note_on_c, 5, 67, 96
7, 70656, Note_on_c, 5, 60, 96
7, 70912, Note_off_c, 5, 76, 0
7, 70912, Note_on_c, 5, 74, 96
7, 71168, Note_off_c, 5, 74, 0
7, 71168, Note_on_c, 5, 76, 96
7, 71424, Note_off_c, 5, 76, 0
7, 71424, Note_on_c, 5, 72, 96
7, 71680, Note_off_c, 5, 72, 0
7, 71680, Note_on_c, 5, 76, 96
7, 71680, Note_off_c, 5, 67, 0
7, 71680, Note_off_c, 5, 60, 0
7, 71936, Note_off_c, 5, 76, 0
7, 71936, Note_on_c, 5, 74, 96
7, 72192, Note_off_c, 5, 74, 0
7, 72192, Note_on_c, 5, 76, 96
7, 72192, Note_on_c, 5, 67, 96
7, 72192, Note_on_c, 5, 60, 96
7, 72448, Note_off_c, 5, 76, 0
7, 72448, Note_on_c, 5, 72, 96
7, 72448, Note_off_c, 5, 67, 0
7, 72448, Note_on_c, 5, 67, 96
7, 72448, Note_off_c, 5, 60, 0
7, 72448, Note_on_c, 5, 60, 96
7, 72704, Note_off_c, 5, 72, 0
7, 72704, Note_on_c, 5, 78, 96
7, 72704, Note_off_c, 5, 67, 0
7, 72704, Note_on_c, 5, 72, 96
7, 72704, Note_off_c, 5, 60, 0
7, 72704, Note_on_c, 5, 60, 96
7, 72960, Note_off_c, 5, 78, 0
7, 72960, Note_on_c, 5, 76, 96
7, 73216, Note_off_c, 5, 76, 0
7, 73216, Note_on_c, 5, 78, 96
7, 73216, Note_off_c, 5, 72, 0
7, 73216, Note_on_c, 5, 72, 96
7, 73216, Note_off_c, 5, 60, 0
7, 73216, Note_on_c, 5, 60, 96
7, 73472, Note_off_c, 5, 78, 0
7, 73472, Note_on_c, 5, 74, 96
7, 73728, Note_off_c, 5, 74, 0
7, 73728, Note_off_c, 5, 72, 0
7, 73728, Note_off_c, 5, 60, 0
7, 73728, Note_on_c, 5, 79, 96
7, 73728, Note_on_c, 5, 74, 96
7, 73728, Note_on_c, 5, 67, 96
7, 74752, Note_off_c, 5, 79, 0
7, 74752, Note_off_c, 5, 74, 0
7, 74752, Note_off_c, 5, 67, 0
7, 80128, Note_on_c, 5, 74, 96
7, 80384, Note_off_c, 5, 74, 0
7, 80384, Note_on_c, 5, 76, 96
7, 80384, Note_on_c, 5, 72, 96
7, 80384, Note_on_c, 5, 67, 96
7, 80640, Note_off_c, 5, 76, 0
7, 80640, Note_on_c, 5, 77, 96
7, 80640, Note_off_c, 5, 67, 0
7, 80640, Note_on_c, 5, 67, 96
7, 80896, Note_off_c, 5, 77, 0
7, 80896, Note_on_c, 5, 79, 96
7, 80896, Note_off_c, 5, 72, 0
7, 80896, Note_on_c, 5, 74, 96
7, 80896, Note_off_c, 5, 67, 0
7, 80896, Note_on_c, 5, 67, 96
7, 81152, Note_off_c, 5, 79, 0
7, 81152, Note_on_c, 5, 81, 96
7, 81408, Note_off_c, 5, 81, 0
7, 81408, Note_on_c, 5, 79, 96
7, 81408, Note_off_c, 5, 74, 0
7, 81408, Note_on_c, 5, 74, 96
7, 81408, Note_off_c, 5, 67, 0
7, 81408, Note_on_c, 5, 67, 96
7, 81664, Note_off_c, 5, 79, 0
7, 81664, Note_on_c, 5, 81, 96
7, 81920, Note_off_c, 5, 81, 0
7, 81920, Note_on_c, 5, 83, 96
7, 81920, Note_off_c, 5, 74, 0
7, 81920, Note_on_c, 5, 74, 96
7, 81920, Note_off_c, 5, 67, 0
7, 81920, Note_on_c, 5, 67, 96
7, 82176, Note_off_c, 5, 83, 0
7, 82176, Note_on_c, 5, 84, 96
7, 82432, Note_off_c, 5, 84, 0
7, 82432, Note_on_c, 5, 81, 96
7, 82432, Note_off_c, 5, 74, 0
7, 82432, Note_on_c, 5, 74, 96
7, 82432, Note_off_c, 5, 67, 0
7, 82432, Note_on_c, 5, 67, 96
7, 82688, Note_off_c, 5, 81, 0
7, 82688, Note_on_c, 5, 83, 96
7, 82944, Note_off_c, 5, 83, 0
7, 82944, Note_off_c, 5, 74, 0
7, 82944, Note_off_c, 5, 67, 0
7, 82944, Note_on_c, 5, 84, 96
7, 82944, Note_on_c, 5, 76, 96
7, 82944, Note_on_c, 5, 67, 96
7, 83968, Note_off_c, 5, 84, 0
7, 83968, Note_off_c, 5, 76, 0
7, 83968, Note_off_c, 5, 67, 0
7, 86016, Note_on_c, 5, 74, 96
7, 86016, Note_on_c, 5, 79, 96
7, 86016, Note_on_c, 5, 67, 96
7, 87040, Note_off_c, 5, 74, 0
7, 87040, Note_off_c, 5, 79, 0
7, 87040, Note_off_c, 5, 67, 0
7, 89600, Note_on_c, 5, 72, 96
7, 89600, Note_on_c, 5, 67, 96
7, 89600, Note_on_c, 5, 64, 96
7, 89856, Note_off_c, 5, 72, 0
7, 89856, Note_on_c, 5, 74, 96
7, 90112, Note_off_c, 5, 74, 0
7, 90112, Note_on_c, 5, 76, 96
7, 90112, Note_off_c, 5, 67, 0
7, 90112, Note_on_c, 5, 67, 96
7, 90112, Note_off_c, 5, 64, 0
7, 90112, Note_on_c, 5, 60, 96
7, 90624, Note_off_c, 5, 76, 0
7, 90624, Note_on_c, 5, 76, 96
7, 90624, Note_off_c, 5, 67, 0
7, 90624, Note_on_c, 5, 67, 96
7, 90624, Note_off_c, 5, 60, 0
7, 90624, Note_on_c, 5, 64, 96
7, 90880, Note_off_c, 5, 76, 0
7, 90880, Note_on_c, 5, 74, 96
7, 91136, Note_off_c, 5, 74, 0
7, 91136, Note_on_c, 5, 76, 96
7, 91136, Note_off_c, 5, 67, 0
7, 91136, Note_on_c, 5, 72, 96
7, 91136, Note_off_c, 5, 64, 0
7, 91136, Note_on_c, 5, 67, 96
7, 91648, Note_off_c, 5, 76, 0
7, 91648, Note_on_c, 5, 79, 96
7, 91648, Note_off_c, 5, 72, 0
7, 91648, Note_on_c, 5, 74, 96
7, 91648, Note_off_c, 5, 67, 0
7, 91648, Note_on_c, 5, 72, 96
7, 91904, Note_off_c, 5, 79, 0
7, 91904, Note_on_c, 5, 78, 96
7, 92160, Note_off_c, 5, 78, 0
7, 92160, Note_off_c, 5, 74, 0
7, 92160, Note_off_c, 5, 72, 0
7, 92160, Note_on_c, 5, 79, 96
7, 92160, Note_on_c, 5, 74, 96
7, 92160, Note_on_c, 5, 67, 96
7, 93184, Note_off_c, 5, 79, 0
7, 93184, Note_off_c, 5, 74, 0
7, 93184, Note_off_c, 5, 67, 0
7, 95232, Note_on_c, 5, 81, 96
7, 95232, Note_on_c, 5, 74, 96
7, 96256, Note_off_c, 5, 81, 0
7, 96256, Note_off_c, 5, 74, 0
7, 98304, Note_on_c, 5, 83, 96
7, 98304, Note_on_c, 5, 74, 96
7, 98304, Note_on_c, 5, 67, 96
7, 99328, Note_off_c, 5, 83, 0
7, 99328, Note_off_c, 5, 74, 0
7, 99328, Note_off_c, 5, 67, 0
7, 108032, Note_on_c, 5, 79, 96
7, 108032, Note_on_c, 5, 76, 96
7, 108544, Note_off_c, 5, 79, 0
7, 108544, Note_on_c, 5, 79, 96
7, 108544, Note_off_c, 5, 76, 0
7, 108544, Note_on_c, 5, 76, 96
7, 109056, Note_off_c, 5, 79, 0
7, 109056, Note_on_c, 5, 79, 96
7, 109056, Note_off_c, 5, 76, 0
7, 109056, Note_on_c, 5, 76, 96
7, 109568, Note_off_c, 5, 79, 0
7, 109568, Note_on_c, 5, 79, 96
7, 109568, Note_off_c, 5, 76, 0
7, 109568, Note_on_c, 5, 76, 96
7, 110080, Note_off_c, 5, 79, 0
7, 110080, Note_on_c, 5, 79, 96
7, 110080, Note_off_c, 5, 76, 0
7, 110080, Note_on_c, 5, 76, 96
7, 110592, Note_off_c, 5, 79, 0
7, 110592, Note_off_c, 5, 76, 0
7, 111104, Note_on_c, 5, 79, 96
7, 111104, Note_on_c, 5, 76, 96
7, 111616, Note_off_c, 5, 79, 0
7, 111616, Note_on_c, 5, 79, 96
7, 111616, Note_off_c, 5, 76, 0
7, 111616, Note_on_c, 5, 76, 96
7, 112128, Note_off_c, 5, 79, 0
7, 112128, Note_on_c, 5, 79, 96
7, 112128, Note_off_c, 5, 76, 0
7, 112128, Note_on_c, 5, 76, 96
7, 112640, Note_off_c, 5, 79, 0
7, 112640, Note_on_c, 5, 79, 96
7, 112640, Note_off_c, 5, 76, 0
7, 112640, Note_on_c, 5, 76, 96
7, 113152, Note_off_c, 5, 79, 0
7, 113152, Note_on_c, 5, 79, 96
7, 113152, Note_off_c, 5, 76, 0
7, 113152, Note_on_c, 5, 76, 96
7, 113664, Note_off_c, 5, 79, 0
7, 113664, Note_off_c, 5, 76, 0
7, 114176, Note_on_c, 5, 77, 96
7, 114176, Note_on_c, 5, 74, 96
7, 114688, Note_off_c, 5, 77, 0
7, 114688, Note_on_c, 5, 77, 96
7, 114688, Note_off_c, 5, 74, 0
7, 114688, Note_on_c, 5, 74, 96
7, 115200, Note_off_c, 5, 77, 0
7, 115200, Note_on_c, 5, 77, 96
7, 115200, Note_off_c, 5, 74, 0
7, 115200, Note_on_c, 5, 74, 96
7, 115712, Note_off_c, 5, 77, 0
7, 115712, Note_on_c, 5, 77, 96
7, 115712, Note_off_c, 5, 74, 0
7, 115712, Note_on_c, 5, 74, 96
7, 116224, Note_off_c, 5, 77, 0
7, 116224, Note_on_c, 5, 77, 96
7, 116224, Note_off_c, 5, 74, 0
7, 116224, Note_on_c, 5, 74, 96
7, 116736, Note_off_c, 5, 77, 0
7, 116736, Note_off_c, 5, 74, 0
7, 117248, Note_on_c, 5, 77, 96
7, 117248, Note_on_c, 5, 74, 96
7, 117760, Note_off_c, 5, 77, 0
7, 117760, Note_on_c, 5, 77, 96
7, 117760, Note_off_c, 5, 74, 0
7, 117760, Note_on_c, 5, 74, 96
7, 118272, Note_off_c, 5, 77, 0
7, 118272, Note_on_c, 5, 77, 96
7, 118272, Note_off_c, 5, 74, 0
7, 118272, Note_on_c, 5, 74, 96
7, 118784, Note_off_c, 5, 77, 0
7, 118784, Note_on_c, 5, 77, 96
7, 118784, Note_off_c, 5, 74, 0
7, 118784, Note_on_c, 5, 74, 96
7, 119296, Note_off_c, 5, 77, 0
7, 119296, Note_on_c, 5, 77, 96
7, 119296, Note_off_c, 5, 74, 0
7, 119296, Note_on_c, 5, 74, 96
7, 119808, Note_off_c, 5, 77, 0
7, 119808, Note_off_c, 5, 74, 0
7, 119808, Note_on_c, 5, 76, 96
7, 119808, Note_on_c, 5, 72, 96
7, 119808, Note_on_c, 5, 67, 96
7, 120320, Note_off_c, 5, 76, 0
7, 120320, Note_on_c, 5, 79, 96
7, 120320, Note_off_c, 5, 72, 0
7, 120320, Note_on_c, 5, 76, 96
7, 120832, Note_off_c, 5, 79, 0
7, 120832, Note_on_c, 5, 76, 96
7, 120832, Note_off_c, 5, 76, 0
7, 120832, Note_on_c, 5, 72, 96
7, 120832, Note_off_c, 5, 67, 0
7, 121344, Note_off_c, 5, 76, 0
7, 121344, Note_on_c, 5, 81, 96
7, 121344, Note_off_c, 5, 72, 0
7, 121344, Note_on_c, 5, 77, 96
7, 122368, Note_off_c, 5, 81, 0
7, 122368, Note_on_c, 5, 79, 96
7, 122368, Note_off_c, 5, 77, 0
7, 122368, Note_on_c, 5, 76, 96
7, 122880, Note_off_c, 5, 79, 0
7, 122880, Note_off_c, 5, 76, 0
7, 122880, Note_on_c, 5, 77, 96
7, 122880, Note_on_c, 5, 74, 96
7, 122880, Note_on_c, 5, 67, 96
7, 123392, Note_off_c, 5, 77, 0
7, 123392, Note_on_c, 5, 77, 96
7, 123392, Note_off_c, 5, 74, 0
7, 123392, Note_on_c, 5, 74, 96
7, 123648, Note_off_c, 5, 77, 0
7, 123648, Note_on_c, 5, 76, 96
7, 123648, Note_off_c, 5, 74, 0
7, 123648, Note_on_c, 5, 72, 96
7, 123904, Note_off_c, 5, 76, 0
7, 123904, Note_on_c, 5, 77, 96
7, 123904, Note_off_c, 5, 72, 0
7, 123904, Note_on_c, 5, 74, 96
7, 123904, Note_off_c, 5, 67, 0
7, 124416, Note_off_c, 5, 77, 0
7, 124416, Note_on_c, 5, 86, 96
7, 124416, Note_off_c, 5, 74, 0
7, 124416, Note_on_c, 5, 77, 96
7, 125440, Note_off_c, 5, 86, 0
7, 125440, Note_on_c, 5, 77, 96
7, 125440, Note_off_c, 5, 77, 0
7, 125440, Note_on_c, 5, 74, 96
7, 125952, Note_off_c, 5, 77, 0
7, 125952, Note_off_c, 5, 74, 0
7, 125952, Note_on_c, 5, 76, 96
7, 125952, Note_on_c, 5, 72, 96
7, 125952, Note_on_c, 5, 67, 96
7, 126464, Note_off_c, 5, 76, 0
7, 126464, Note_on_c, 5, 76, 96
7, 126464, Note_off_c, 5, 72, 0
7, 126464, Note_on_c, 5, 72, 96
7, 126464, Note_off_c, 5, 67, 0
7, 126464, Note_on_c, 5, 67, 96
7, 126720, Note_off_c, 5, 76, 0
7, 126720, Note_on_c, 5, 77, 96
7, 126720, Note_off_c, 5, 72, 0
7, 126720, Note_on_c, 5, 74, 96
7, 126720, Note_off_c, 5, 67, 0
7, 126720, Note_on_c, 5, 67, 96
7, 126976, Note_off_c, 5, 77, 0
7, 126976, Note_on_c, 5, 79, 96
7, 126976, Note_off_c, 5, 74, 0
7, 126976, Note_on_c, 5, 76, 96
7, 126976, Note_off_c, 5, 67, 0
7, 126976, Note_on_c, 5, 72, 96
7, 127488, Note_off_c, 5, 79, 0
7, 127488, Note_on_c, 5, 79, 96
7, 127488, Note_off_c, 5, 76, 0
7, 127488, Note_on_c, 5, 76, 96
7, 127488, Note_off_c, 5, 72, 0
7, 127488, Note_on_c, 5, 72, 96
7, 127744, Note_off_c, 5, 79, 0
7, 127744, Note_on_c, 5, 81, 96
7, 127744, Note_off_c, 5, 76, 0
7, 127744, Note_on_c, 5, 77, 96
7, 128000, Note_off_c, 5, 81, 0
7, 128000, Note_on_c, 5, 82, 96
7, 128000, Note_off_c, 5, 77, 0
7, 128000, Note_on_c, 5, 79, 96
7, 128000, Note_off_c, 5, 72, 0
7, 128000, Note_on_c, 5, 72, 96
7, 128512, Note_off_c, 5, 82, 0
7, 128512, Note_on_c, 5, 81, 96
7, 128512, Note_off_c, 5, 79, 0
7, 128512, Note_on_c, 5, 77, 96
7, 128512, Note_off_c, 5, 72, 0
7, 128512, Note_on_c, 5, 72, 96
7, 128768, Note_off_c, 5, 81, 0
7, 128768, Note_on_c, 5, 79, 96
7, 128768, Note_off_c, 5, 77, 0
7, 128768, Note_on_c, 5, 76, 96
7, 129024, Note_off_c, 5, 79, 0
7, 129024, Note_off_c, 5, 76, 0
7, 129024, Note_off_c, 5, 72, 0
7, 129024, Note_on_c, 5, 81, 96
7, 129024, Note_on_c, 5, 77, 96
7, 129024, Note_on_c, 5, 72, 96
7, 129536, Note_off_c, 5, 81, 0
7, 129536, Note_on_c, 5, 79, 96
7, 129536, Note_off_c, 5, 77, 0
7, 129536, Note_on_c, 5, 74, 96
7, 129536, Note_off_c, 5, 72, 0
7, 129536, Note_on_c, 5, 74, 96
7, 129792, Note_off_c, 5, 79, 0
7, 129792, Note_on_c, 5, 77, 96
7, 130048, Note_off_c, 5, 77, 0
7, 130048, Note_on_c, 5, 76, 96
7, 130048, Note_off_c, 5, 74, 0
7, 130048, Note_on_c, 5, 72, 96
7, 130048, Note_off_c, 5, 74, 0
7, 130048, Note_on_c, 5, 67, 96
7, 130560, Note_off_c, 5, 76, 0
7, 130560, Note_on_c, 5, 79, 96
7, 130560, Note_off_c, 5, 72, 0
7, 130560, Note_on_c, 5, 72, 96
7, 130560, Note_off_c, 5, 67, 0
7, 130560, Note_on_c, 5, 67, 96
7, 131072, Note_off_c, 5, 79, 0
7, 131072, Note_on_c, 5, 77, 96
7, 131072, Note_off_c, 5, 72, 0
7, 131072, Note_on_c, 5, 72, 96
7, 131072, Note_off_c, 5, 67, 0
7, 131072, Note_on_c, 5, 67, 96
7, 131328, Note_off_c, 5, 77, 0
7, 131328, Note_on_c, 5, 76, 96
7, 131584, Note_off_c, 5, 76, 0
7, 131584, Note_on_c, 5, 74, 96
7, 131584, Note_off_c, 5, 72, 0
7, 131584, Note_on_c, 5, 67, 96
7, 131584, Note_off_c, 5, 67, 0
7, 131584, Note_on_c, 5, 67, 96
7, 131840, Note_off_c, 5, 74, 0
7, 131840, Note_on_c, 5, 76, 96
7, 132096, Note_off_c, 5, 76, 0
7, 132096, Note_off_c, 5, 67, 0
7, 132096, Note_off_c, 5, 67, 0
7, 132096, Note_on_c, 5, 72, 96
7, 132096, Note_on_c, 5, 67, 96
7, 132096, Note_on_c, 5, 64, 96
7, 133120, Note_off_c, 5, 72, 0
7, 133120, Note_off_c, 5, 67, 0
7, 133120, Note_off_c, 5, 64, 0
7, 151040, Note_on_c, 5, 79, 96
7, 151040, Note_on_c, 5, 76, 96
7, 151040, Note_on_c, 5, 72, 96
7, 151296, Note_off_c, 5, 79, 0
7, 151296, Note_on_c, 5, 77, 96
7, 151296, Note_off_c, 5, 76, 0
7, 151296, Note_on_c, 5, 74, 96
7, 151296, Note_off_c, 5, 72, 0
7, 151296, Note_on_c, 5, 67, 96
7, 151552, Note_off_c, 5, 77, 0
7, 151552, Note_on_c, 5, 76, 96
7, 151552, Note_off_c, 5, 74, 0
7, 151552, Note_on_c, 5, 72, 96
7, 151552, Note_off_c, 5, 67, 0
7, 151552, Note_on_c, 5, 67, 96
7, 151808, Note_off_c, 5, 76, 0
7, 151808, Note_on_c, 5, 79, 96
7, 152064, Note_off_c, 5, 79, 0
7, 152064, Note_on_c, 5, 77, 96
7, 152064, Note_off_c, 5, 72, 0
7, 152064, Note_on_c, 5, 67, 96
7, 152064, Note_off_c, 5, 67, 0
7, 152064, Note_on_c, 5, 67, 96
7, 152320, Note_off_c, 5, 77, 0
7, 152320, Note_on_c, 5, 76, 96
7, 152576, Note_off_c, 5, 76, 0
7, 152576, Note_on_c, 5, 74, 96
7, 152576, Note_off_c, 5, 67, 0
7, 152576, Note_on_c, 5, 67, 96
7, 152576, Note_off_c, 5, 67, 0
7, 152576, Note_on_c, 5, 67, 96
7, 152832, Note_off_c, 5, 74, 0
7, 152832, Note_on_c, 5, 76, 96
7, 153088, Note_off_c, 5, 76, 0
7, 153088, Note_on_c, 5, 72, 96
7, 153088, Note_off_c, 5, 67, 0
7, 153088, Note_on_c, 5, 67, 96
7, 153088, Note_off_c, 5, 67, 0
7, 153088, Note_on_c, 5, 67, 96
7, 153344, Note_off_c, 5, 72, 0
7, 153344, Note_on_c, 5, 74, 96
7, 153600, Note_off_c, 5, 74, 0
7, 153600, Note_off_c, 5, 67, 0
7, 153600, Note_off_c, 5, 67, 0
7, 153600, Note_on_c, 5, 76, 96
7, 153600, Note_on_c, 5, 67, 96
7, 153600, Note_on_c, 5, 60, 96
7, 153856, Note_off_c, 5, 76, 0
7, 153856, Note_on_c, 5, 74, 96
7, 154112, Note_off_c, 5, 74, 0
7, 154112, Note_on_c, 5, 76, 96
7, 154368, Note_off_c, 5, 76, 0
7, 154368, Note_on_c, 5, 72, 96
7, 154624, Note_off_c, 5, 72, 0
7, 154624, Note_on_c, 5, 76, 96
7, 154624, Note_off_c, 5, 67, 0
7, 154624, Note_off_c, 5, 60, 0
7, 154880, Note_off_c, 5, 76, 0
7, 154880, Note_on_c, 5, 74, 96
7, 155136, Note_off_c, 5, 74, 0
7, 155136, Note_on_c, 5, 76, 96
7, 155136, Note_on_c, 5, 67, 96
7, 155136, Note_on_c, 5, 60, 96
7, 155392, Note_off_c, 5, 76, 0
7, 155392, Note_on_c, 5, 72, 96
7, 155392, Note_off_c, 5, 67, 0
7, 155392, Note_on_c, 5, 67, 96
7, 155392, Note_off_c, 5, 60, 0
7, 155392, Note_on_c, 5, 60, 96
7, 155648, Note_off_c, 5, 72, 0
7, 155648, Note_on_c, 5, 78, 96
7, 155648, Note_off_c, 5, 67, 0
7, 155648, Note_on_c, 5, 72, 96
7, 155648, Note_off_c, 5, 60, 0
7, 155648, Note_on_c, 5, 60, 96
7, 155904, Note_off_c, 5, 78, 0
7, 155904, Note_on_c, 5, 76, 96
7, 156160, Note_off_c, 5, 76, 0
7, 156160, Note_on_c, 5, 78, 96
7, 156160, Note_off_c, 5, 72, 0
7, 156160, Note_on_c, 5, 72, 96
7, 156160, Note_off_c, 5, 60, 0
7, 156160, Note_on_c, 5, 60, 96
7, 156416, Note_off_c, 5, 78, 0
7, 156416, Note_on_c, 5, 74, 96
7, 156672, Note_off_c, 5, 74, 0
7, 156672, Note_off_c, 5, 72, 0
7, 156672, Note_off_c, 5, 60, 0
7, 156672, Note_on_c, 5, 79, 96
7, 156672, Note_on_c, 5, 74, 96
7, 156672, Note_on_c, 5, 67, 96
7, 157696, Note_off_c, 5, 79, 0
7, 157696, Note_off_c, 5, 74, 0
7, 157696, Note_off_c, 5, 67, 0
7, 163072, Note_on_c, 5, 74, 96
7, 163328, Note_off_c, 5, 74, 0
7, 163328, Note_on_c, 5, 76, 96
7, 163328, Note_on_c, 5, 72, 96
7, 163328, Note_on_c, 5, 67, 96
7, 163584, Note_off_c, 5, 76, 0
7, 163584, Note_on_c, 5, 77, 96
7, 163584, Note_off_c, 5, 67, 0
7, 163584, Note_on_c, 5, 67, 96
7, 163840, Note_off_c, 5, 77, 0
7, 163840, Note_on_c, 5, 79, 96
7, 163840, Note_off_c, 5, 72, 0
7, 163840, Note_on_c, 5, 74, 96
7, 163840, Note_off_c, 5, 67, 0
7, 163840, Note_on_c, 5, 67, 96
7, 164096, Note_off_c, 5, 79, 0
7, 164096, Note_on_c, 5, 81, 96
7, 164352, Note_off_c, 5, 81, 0
7, 164352, Note_on_c, 5, 79, 96
7, 164352, Note_off_c, 5, 74, 0
7, 164352, Note_on_c, 5, 74, 96
7, 164352, Note_off_c, 5, 67, 0
7, 164352, Note_on_c, 5, 67, 96
7, 164608, Note_off_c, 5, 79, 0
7, 164608, Note_on_c, 5, 81, 96
7, 164864, Note_off_c, 5, 81, 0
7, 164864, Note_on_c, 5, 83, 96
7, 164864, Note_off_c, 5, 74, 0
7, 164864, Note_on_c, 5, 74, 96
7, 164864, Note_off_c, 5, 67, 0
7, 164864, Note_on_c, 5, 67, 96
7, 165120, Note_off_c, 5, 83, 0
7, 165120, Note_on_c, 5, 84, 96
7, 165376, Note_off_c, 5, 84, 0
7, 165376, Note_on_c, 5, 81, 96
7, 165376, Note_off_c, 5, 74, 0
7, 165376, Note_on_c, 5, 74, 96
7, 165376, Note_off_c, 5, 67, 0
7, 165376, Note_on_c, 5, 67, 96
7, 165632, Note_off_c, 5, 81, 0
7, 165632, Note_on_c, 5, 83, 96
7, 165888, Note_off_c, 5, 83, 0
7, 165888, Note_off_c, 5, 74, 0
7, 165888, Note_off_c, 5, 67, 0
7, 165888, Note_on_c, 5, 84, 96
7, 165888, Note_on_c, 5, 76, 96
7, 165888, Note_on_c, 5, 67, 96
7, 166400, Note_off_c, 5, 84, 0
7, 166400, Note_on_c, 5, 79, 96
7, 166400, Note_off_c, 5, 76, 0
7, 166400, Note_on_c, 5, 76, 96
7, 166912, Note_off_c, 5, 79, 0
7, 166912, Note_on_c, 5, 76, 96
7, 166912, Note_off_c, 5, 76, 0
7, 166912, Note_on_c, 5, 72, 96
7, 166912, Note_off_c, 5, 67, 0
7, 167424, Note_off_c, 5, 76, 0
7, 167424, Note_on_c, 5, 81, 96
7, 167424, Note_off_c, 5, 72, 0
7, 167424, Note_on_c, 5, 77, 96
7, 168448, Note_off_c, 5, 81, 0
7, 168448, Note_on_c, 5, 79, 96
7, 168448, Note_off_c, 5, 77, 0
7, 168448, Note_on_c, 5, 76, 96
7, 168960, Note_off_c, 5, 79, 0
7, 168960, Note_off_c, 5, 76, 0
7, 168960, Note_on_c, 5, 77, 96
7, 168960, Note_on_c, 5, 74, 96
7, 168960, Note_on_c, 5, 67, 96
7, 169472, Note_off_c, 5, 77, 0
7, 169472, Note_on_c, 5, 77, 96
7, 169472, Note_off_c, 5, 74, 0
7, 169472, Note_on_c, 5, 74, 96
7, 169728, Note_off_c, 5, 77, 0
7, 169728, Note_on_c, 5, 76, 96
7, 169728, Note_off_c, 5, 74, 0
7, 169728, Note_on_c, 5, 72, 96
7, 169984, Note_off_c, 5, 76, 0
7, 169984, Note_on_c, 5, 77, 96
7, 169984, Note_off_c, 5, 72, 0
7, 169984, Note_on_c, 5, 74, 96
7, 169984, Note_off_c, 5, 67, 0
7, 170496, Note_off_c, 5, 77, 0
7, 170496, Note_on_c, 5, 86, 96
7, 170496, Note_off_c, 5, 74, 0
7, 170496, Note_on_c, 5, 77, 96
7, 171520, Note_off_c, 5, 86, 0
7, 171520, Note_on_c, 5, 77, 96
7, 171520, Note_off_c, 5, 77, 0
7, 171520, Note_on_c, 5, 74, 96
7, 172032, Note_off_c, 5, 77, 0
7, 172032, Note_off_c, 5, 74, 0
7, 172032, Note_on_c, 5, 76, 96
7, 172032, Note_on_c, 5, 72, 96
7, 172032, Note_on_c, 5, 67, 96
7, 172544, Note_off_c, 5, 76, 0
7, 172544, Note_on_c, 5, 84, 96
7, 172544, Note_off_c, 5, 72, 0
7, 172544, Note_on_c, 5, 76, 96
7, 173056, Note_off_c, 5, 84, 0
7, 173056, Note_on_c, 5, 84, 96
7, 173056, Note_off_c, 5, 76, 0
7, 173056, Note_on_c, 5, 76, 96
7, 173056, Note_off_c, 5, 67, 0
7, 173568, Note_off_c, 5, 84, 0
7, 173568, Note_on_c, 5, 84, 96
7, 173568, Note_off_c, 5, 76, 0
7, 173568, Note_on_c, 5, 76, 96
7, 174080, Note_off_c, 5, 84, 0
7, 174080, Note_on_c, 5, 84, 96
7, 174080, Note_off_c, 5, 76, 0
7, 174080, Note_on_c, 5, 76, 96
7, 174592, Note_off_c, 5, 84, 0
7, 174592, Note_on_c, 5, 84, 96
7, 174592, Note_off_c, 5, 76, 0
7, 174592, Note_on_c, 5, 76, 96
7, 175104, Note_off_c, 5, 84, 0
7, 175104, Note_off_c, 5, 76, 0
7, 175616, Note_on_c, 5, 84, 96
7, 175616, Note_on_c, 5, 76, 96
7, 176128, Note_off_c, 5, 84, 0
7, 176128, Note_on_c, 5, 84, 96
7, 176128, Note_off_c, 5, 76, 0
7, 176128, Note_on_c, 5, 76, 96
7, 176640, Note_off_c, 5, 84, 0
7, 176640, Note_on_c, 5, 84, 96
7, 176640, Note_off_c, 5, 76, 0
7, 176640, Note_on_c, 5, 76, 96
7, 177152, Note_off_c, 5, 84, 0
7, 177152, Note_on_c, 5, 84, 96
7, 177152, Note_off_c, 5, 76, 0
7, 177152, Note_on_c, 5, 76, 96
7, 177664, Note_off_c, 5, 84, 0
7, 177664, Note_on_c, 5, 84, 96
7, 177664, Note_off_c, 5, 76, 0
7, 177664, Note_on_c, 5, 76, 96
7, 178176, Note_off_c, 5, 84, 0
7, 178176, Note_off_c, 5, 76, 0
7, 178688, Note_on_c, 5, 83, 96
7, 178688, Note_on_c, 5, 74, 96
7, 179200, Note_off_c, 5, 83, 0
7, 179200, Note_on_c, 5, 83, 96
7, 179200, Note_off_c, 5, 74, 0
7, 179200, Note_on_c, 5, 74, 96
7, 179712, Note_off_c, 5, 83, 0
7, 179712, Note_on_c, 5, 83, 96
7, 179712, Note_off_c, 5, 74, 0
7, 179712, Note_on_c, 5, 74, 96
7, 180224, Note_off_c, 5, 83, 0
7, 180224, Note_on_c, 5, 83, 96
7, 180224, Note_off_c, 5, 74, 0
7, 180224, Note_on_c, 5, 74, 96
7, 180736, Note_off_c, 5, 83, 0
7, 180736, Note_on_c, 5, 83, 96
7, 180736, Note_off_c, 5, 74, 0
7, 180736, Note_on_c, 5, 74, 96
7, 181248, Note_off_c, 5, 83, 0
7, 181248, Note_off_c, 5, 74, 0
7, 181760, Note_on_c, 5, 83, 96
7, 181760, Note_on_c, 5, 74, 96
7, 182272, Note_off_c, 5, 83, 0
7, 182272, Note_on_c, 5, 83, 96
7, 182272, Note_off_c, 5, 74, 0
7, 182272, Note_on_c, 5, 74, 96
7, 182784, Note_off_c, 5, 83, 0
7, 182784, Note_on_c, 5, 83, 96
7, 182784, Note_off_c, 5, 74, 0
7, 182784, Note_on_c, 5, 74, 96
7, 183296, Note_off_c, 5, 83, 0
7, 183296, Note_on_c, 5, 83, 96
7, 183296, Note_off_c, 5, 74, 0
7, 183296, Note_on_c, 5, 74, 96
7, 183808, Note_off_c, 5, 83, 0
7, 183808, Note_on_c, 5, 83, 96
7, 183808, Note_off_c, 5, 74, 0
7, 183808, Note_on_c, 5, 74, 96
7, 184320, Note_off_c, 5, 83, 0
7, 184320, Note_off_c, 5, 74, 0
7, 184832, Note_on_c, 5, 81, 96
7, 184832, Note_on_c, 5, 72, 96
7, 184832, Note_on_c, 5, 76, 96
7, 185344, Note_off_c, 5, 81, 0
7, 185344, Note_on_c, 5, 81, 96
7, 185344, Note_off_c, 5, 72, 0
7, 185344, Note_on_c, 5, 72, 96
7, 185344, Note_off_c, 5, 76, 0
7, 185344, Note_on_c, 5, 76, 96
7, 185856, Note_off_c, 5, 81, 0
7, 185856, Note_on_c, 5, 81, 96
7, 185856, Note_off_c, 5, 72, 0
7, 185856, Note_on_c, 5, 72, 96
7, 185856, Note_off_c, 5, 76, 0
7, 185856, Note_on_c, 5, 76, 96
7, 186368, Note_off_c, 5, 81, 0
7, 186368, Note_on_c, 5, 81, 96
7, 186368, Note_off_c, 5, 72, 0
7, 186368, Note_on_c, 5, 72, 96
7, 186368, Note_off_c, 5, 76, 0
7, 186368, Note_on_c, 5, 76, 96
7, 186880, Note_off_c, 5, 81, 0
7, 186880, Note_on_c, 5, 81, 96
7, 186880, Note_off_c, 5, 72, 0
7, 186880, Note_on_c, 5, 72, 96
7, 186880, Note_off_c, 5, 76, 0
7, 186880, Note_on_c, 5, 76, 96
7, 187392, Note_off_c, 5, 81, 0
7, 187392, Note_off_c, 5, 72, 0
7, 187392, Note_off_c, 5, 76, 0
7, 187904, Note_on_c, 5, 81, 96
7, 187904, Note_on_c, 5, 77, 96
7, 187904, Note_on_c, 5, 74, 96
7, 188416, Note_off_c, 5, 81, 0
7, 188416, Note_on_c, 5, 81, 96
7, 188416, Note_off_c, 5, 77, 0
7, 188416, Note_on_c, 5, 77, 96
7, 188416, Note_off_c, 5, 74, 0
7, 188416, Note_on_c, 5, 74, 96
7, 188928, Note_off_c, 5, 81, 0
7, 188928, Note_on_c, 5, 81, 96
7, 188928, Note_off_c, 5, 77, 0
7, 188928, Note_on_c, 5, 77, 96
7, 188928, Note_off_c, 5, 74, 0
7, 188928, Note_on_c, 5, 74, 96
7, 189440, Note_off_c, 5, 81, 0
7, 189440, Note_on_c, 5, 81, 96
7, 189440, Note_off_c, 5, 77, 0
7, 189440, Note_on_c, 5, 77, 96
7, 189440, Note_off_c, 5, 74, 0
7, 189440, Note_on_c, 5, 74, 96
7, 189952, Note_off_c, 5, 81, 0
7, 189952, Note_on_c, 5, 81, 96
7, 189952, Note_off_c, 5, 77, 0
7, 189952, Note_on_c, 5, 77, 96
7, 189952, Note_off_c, 5, 74, 0
7, 189952, Note_on_c, 5, 74, 96
7, 190464, Note_off_c, 5, 81, 0
7, 190464, Note_off_c, 5, 77, 0
7, 190464, Note_off_c, 5, 74, 0
7, 190976, Note_on_c, 5, 83, 96
7, 190976, Note_on_c, 5, 79, 96
7, 190976, Note_on_c, 5, 74, 96
7, 191488, Note_off_c, 5, 83, 0
7, 191488, Note_on_c, 5, 83, 96
7, 191488, Note_off_c, 5, 79, 0
7, 191488, Note_on_c, 5, 79, 96
7, 191488, Note_off_c, 5, 74, 0
7, 191488, Note_on_c, 5, 74, 96
7, 192000, Note_off_c, 5, 83, 0
7, 192000, Note_on_c, 5, 83, 96
7, 192000, Note_off_c, 5, 79, 0
7, 192000, Note_on_c, 5, 79, 96
7, 192000, Note_off_c, 5, 74, 0
7, 192000, Note_on_c, 5, 74, 96
7, 192512, Note_off_c, 5, 83, 0
7, 192512, Note_on_c, 5, 83, 96
7, 192512, Note_off_c, 5, 79, 0
7, 192512, Note_on_c, 5, 79, 96
7, 192512, Note_off_c, 5, 74, 0
7, 192512, Note_on_c, 5, 74, 96
7, 193024, Note_off_c, 5, 83, 0
7, 193024, Note_on_c, 5, 83, 96
7, 193024, Note_off_c, 5, 79, 0
7, 193024, Note_on_c, 5, 79, 96
7, 193024, Note_off_c, 5, 74, 0
7, 193024, Note_on_c, 5, 74, 96
7, 193536, Note_off_c, 5, 83, 0
7, 193536, Note_off_c, 5, 79, 0
7, 193536, Note_off_c, 5, 74, 0
7, 193536, Note_on_c, 5, 84, 96
7, 193536, Note_on_c, 5, 79, 96
7, 193536, Note_on_c, 5, 76, 96
7, 193792, Note_off_c, 5, 84, 0
7, 193792, Note_on_c, 5, 83, 96
7, 193792, Note_off_c, 5, 79, 0
7, 193792, Note_on_c, 5, 77, 96
7, 193792, Note_off_c, 5, 76, 0
7, 193792, Note_on_c, 5, 74, 96
7, 194048, Note_off_c, 5, 83, 0
7, 194048, Note_on_c, 5, 84, 96
7, 194048, Note_off_c, 5, 77, 0
7, 194048, Note_on_c, 5, 79, 96
7, 194048, Note_off_c, 5, 74, 0
7, 194048, Note_on_c, 5, 76, 96
7, 194304, Note_off_c, 5, 84, 0
7, 194304, Note_on_c, 5, 79, 96
7, 194304, Note_off_c, 5, 79, 0
7, 194304, Note_on_c, 5, 76, 96
7, 194304, Note_off_c, 5, 76, 0
7, 194304, Note_on_c, 5, 72, 96
7, 194560, Note_off_c, 5, 79, 0
7, 194560, Note_on_c, 5, 79, 96
7, 194560, Note_off_c, 5, 76, 0
7, 194560, Note_on_c, 5, 76, 96
7, 194560, Note_off_c, 5, 72, 0
7, 194560, Note_on_c, 5, 72, 96
7, 194816, Note_off_c, 5, 79, 0
7, 194816, Note_on_c, 5, 77, 96
7, 194816, Note_off_c, 5, 76, 0
7, 194816, Note_on_c, 5, 74, 96
7, 194816, Note_off_c, 5, 72, 0
7, 194816, Note_on_c, 5, 71, 96
7, 195072, Note_off_c, 5, 77, 0
7, 195072, Note_on_c, 5, 79, 96
7, 195072, Note_off_c, 5, 74, 0
7, 195072, Note_on_c, 5, 76, 96
7, 195072, Note_off_c, 5, 71, 0
7, 195072, Note_on_c, 5, 72, 96
7, 195328, Note_off_c, 5, 79, 0
7, 195328, Note_on_c, 5, 76, 96
7, 195328, Note_off_c, 5, 76, 0
7, 195328, Note_on_c, 5, 72, 96
7, 195328, Note_off_c, 5, 72, 0
7, 195328, Note_on_c, 5, 67, 96
7, 195584, Note_off_c, 5, 76, 0
7, 195584, Note_on_c, 5, 72, 96
7, 195584, Note_off_c, 5, 72, 0
7, 195584, Note_on_c, 5, 67, 96
7, 195584, Note_off_c, 5, 67, 0
7, 195584, Note_on_c, 5, 64, 96
7, 196096, Note_off_c, 5, 72, 0
7, 196096, Note_off_c, 5, 67, 0
7, 196096, Note_off_c, 5, 64, 0
7, 196608, Note_on_c, 5, 84, 96
7, 196608, Note_on_c, 5, 79, 96
7, 196608, Note_on_c, 5, 76, 96
7, 196864, Note_off_c, 5, 84, 0
7, 196864, Note_on_c, 5, 83, 96
7, 196864, Note_off_c, 5, 79, 0
7, 196864, Note_on_c, 5, 77, 96
7, 196864, Note_off_c, 5, 76, 0
7, 196864, Note_on_c, 5, 74, 96
7, 197120, Note_off_c, 5, 83, 0
7, 197120, Note_on_c, 5, 84, 96
7, 197120, Note_off_c, 5, 77, 0
7, 197120, Note_on_c, 5, 79, 96
7, 197120, Note_off_c, 5, 74, 0
7, 197120, Note_on_c, 5, 76, 96
7, 197376, Note_off_c, 5, 84, 0
7, 197376, Note_on_c, 5, 79, 96
7, 197376, Note_off_c, 5, 79, 0
7, 197376, Note_on_c, 5, 76, 96
7, 197376, Note_off_c, 5, 76, 0
7, 197376, Note_on_c, 5, 72, 96
7, 197632, Note_off_c, 5, 79, 0
7, 197632, Note_on_c, 5, 79, 96
7, 197632, Note_off_c, 5, 76, 0
7, 197632, Note_on_c, 5, 76, 96
7, 197632, Note_off_c, 5, 72, 0
7, 197632, Note_on_c, 5, 72, 96
7, 197888, Note_off_c, 5, 79, 0
7, 197888, Note_on_c, 5, 77, 96
7, 197888, Note_off_c, 5, 76, 0
7, 197888, Note_on_c, 5, 74, 96
7, 197888, Note_off_c, 5, 72, 0
7, 197888, Note_on_c, 5, 71, 96
7, 198144, Note_off_c, 5, 77, 0
7, 198144, Note_on_c, 5, 79, 96
7, 198144, Note_off_c, 5, 74, 0
7, 198144, Note_on_c, 5, 76, 96
7, 198144, Note_off_c, 5, 71, 0
7, 198144, Note_on_c, 5, 72, 96
7, 198400, Note_off_c, 5, 79, 0
7, 198400, Note_on_c, 5, 76, 96
7, 198400, Note_off_c, 5, 76, 0
7, 198400, Note_on_c, 5, 72, 96
7, 198400, Note_off_c, 5, 72, 0
7, 198400, Note_on_c, 5, 67, 96
7, 198656, Note_off_c, 5, 76, 0
7, 198656, Note_on_c, 5, 72, 96
7, 198656, Note_off_c, 5, 72, 0
7, 198656, Note_on_c, 5, 67, 96
7, 198656, Note_off_c, 5, 67, 0
7, 198656, Note_on_c, 5, 64, 96
7, 199168, Note_off_c, 5, 72, 0
7, 199168, Note_off_c, 5, 67, 0
7, 199168, Note_off_c, 5, 64, 0
7, 199680, Note_on_c, 5, 79, 96
7, 199680, Note_on_c, 5, 74, 96
7, 199680, Note_on_c, 5, 67, 96
7, 200704, Note_off_c, 5, 79, 0
7, 200704, Note_off_c, 5, 74, 0
7, 200704, Note_off_c, 5, 67, 0
7, 202752, Note_on_c, 5, 81, 96
7, 202752, Note_on_c, 5, 74, 96
7, 203776, Note_off_c, 5, 81, 0
7, 203776, Note_off_c, 5, 74, 0
7, 205824, Note_on_c, 5, 83, 96
7, 205824, Note_on_c, 5, 74, 96
7, 205824, Note_on_c, 5, 67, 96
7, 206848, Note_off_c, 5, 83, 0
7, 206848, Note_off_c, 5, 74, 0
7, 206848, Note_off_c, 5, 67, 0
7, 221696, Note_on_c, 5, 83, 96
7, 221696, Note_on_c, 5, 74, 96
7, 222208, Note_off_c, 5, 83, 0
7, 222208, Note_on_c, 5, 83, 96
7, 222208, Note_off_c, 5, 74, 0
7, 222208, Note_on_c, 5, 74, 96
7, 222720, Note_off_c, 5, 83, 0
7, 222720, Note_on_c, 5, 83, 96
7, 222720, Note_off_c, 5, 74, 0
7, 222720, Note_on_c, 5, 74, 96
7, 223232, Note_off_c, 5, 83, 0
7, 223232, Note_on_c, 5, 83, 96
7, 223232, Note_off_c, 5, 74, 0
7, 223232, Note_on_c, 5, 74, 96
7, 223744, Note_off_c, 5, 83, 0
7, 223744, Note_on_c, 5, 83, 96
7, 223744, Note_off_c, 5, 74, 0
7, 223744, Note_on_c, 5, 74, 96
7, 224256, Note_off_c, 5, 83, 0
7, 224256, Note_off_c, 5, 74, 0
7, 224768, Note_on_c, 5, 83, 96
7, 224768, Note_on_c, 5, 74, 96
7, 225280, Note_off_c, 5, 83, 0
7, 225280, Note_on_c, 5, 83, 96
7, 225280, Note_off_c, 5, 74, 0
7, 225280, Note_on_c, 5, 74, 96
7, 225792, Note_off_c, 5, 83, 0
7, 225792, Note_on_c, 5, 83, 96
7, 225792, Note_off_c, 5, 74, 0
7, 225792, Note_on_c, 5, 74, 96
7, 226304, Note_off_c, 5, 83, 0
7, 226304, Note_on_c, 5, 83, 96
7, 226304, Note_off_c, 5, 74, 0
7, 226304, Note_on_c, 5, 74, 96
7, 226816, Note_off_c, 5, 83, 0
7, 226816, Note_on_c, 5, 83, 96
7, 226816, Note_off_c, 5, 74, 0
7, 226816, Note_on_c, 5, 74, 96
7, 227328, Note_off_c, 5, 83, 0
7, 227328, Note_off_c, 5, 74, 0
7, 227840, Note_on_c, 5, 81, 96
7, 227840, Note_on_c, 5, 72, 96
7, 228352, Note_off_c, 5, 81, 0
7, 228352, Note_on_c, 5, 81, 96
7, 228352, Note_off_c, 5, 72, 0
7, 228352, Note_on_c, 5, 72, 96
7, 228864, Note_off_c, 5, 81, 0
7, 228864, Note_on_c, 5, 81, 96
7, 228864, Note_off_c, 5, 72, 0
7, 228864, Note_on_c, 5, 72, 96
7, 229376, Note_off_c, 5, 81, 0
7, 229376, Note_on_c, 5, 81, 96
7, 229376, Note_off_c, 5, 72, 0
7, 229376, Note_on_c, 5, 72, 96
7, 229888, Note_off_c, 5, 81, 0
7, 229888, Note_on_c, 5, 81, 96
7, 229888, Note_off_c, 5, 72, 0
7, 229888, Note_on_c, 5, 72, 96
7, 230400, Note_off_c, 5, 81, 0
7, 230400, Note_off_c, 5, 72, 0
7, 230912, Note_on_c, 5, 81, 96
7, 230912, Note_on_c, 5, 72, 96
7, 231424, Note_off_c, 5, 81, 0
7, 231424, Note_on_c, 5, 81, 96
7, 231424, Note_off_c, 5, 72, 0
7, 231424, Note_on_c, 5, 72, 96
7, 231936, Note_off_c, 5, 81, 0
7, 231936, Note_on_c, 5, 81, 96
7, 231936, Note_off_c, 5, 72, 0
7, 231936, Note_on_c, 5, 72, 96
7, 232448, Note_off_c, 5, 81, 0
7, 232448, Note_on_c, 5, 81, 96
7, 232448, Note_off_c, 5, 72, 0
7, 232448, Note_on_c, 5, 72, 96
7, 232960, Note_off_c, 5, 81, 0
7, 232960, Note_on_c, 5, 81, 96
7, 232960, Note_off_c, 5, 72, 0
7, 232960, Note_on_c, 5, 72, 96
7, 233472, Note_off_c, 5, 81, 0
7, 233472, Note_off_c, 5, 72, 0
7, 233472, Note_on_c, 5, 79, 96
7, 233472, Note_on_c, 5, 67, 96
7, 233472, Note_on_c, 5, 67, 96
7, 233984, Note_off_c, 5, 79, 0
7, 233984, Note_on_c, 5, 83, 96
7, 233984, Note_off_c, 5, 67, 0
7, 233984, Note_on_c, 5, 79, 96
7, 234496, Note_off_c, 5, 83, 0
7, 234496, Note_on_c, 5, 79, 96
7, 234496, Note_off_c, 5, 79, 0
7, 234496, Note_on_c, 5, 74, 96
7, 234496, Note_off_c, 5, 67, 0
7, 235008, Note_off_c, 5, 79, 0
7, 235008, Note_on_c, 5, 84, 96
7, 235008, Note_off_c, 5, 74, 0
7, 235008, Note_on_c, 5, 76, 96
7, 236032, Note_off_c, 5, 84, 0
7, 236032, Note_on_c, 5, 83, 96
7, 236032, Note_off_c, 5, 76, 0
7, 236032, Note_on_c, 5, 74, 96
7, 236544, Note_off_c, 5, 83, 0
7, 236544, Note_off_c, 5, 74, 0
7, 236544, Note_on_c, 5, 81, 96
7, 236544, Note_on_c, 5, 72, 96
7, 237056, Note_off_c, 5, 81, 0
7, 237056, Note_on_c, 5, 81, 96
7, 237056, Note_off_c, 5, 72, 0
7, 237056, Note_on_c, 5, 72, 96
7, 237312, Note_off_c, 5, 81, 0
7, 237312, Note_on_c, 5, 79, 96
7, 237312, Note_off_c, 5, 72, 0
7, 237312, Note_on_c, 5, 71, 96
7, 237568, Note_off_c, 5, 79, 0
7, 237568, Note_on_c, 5, 81, 96
7, 237568, Note_off_c, 5, 71, 0
7, 237568, Note_on_c, 5, 72, 96
7, 238080, Note_off_c, 5, 81, 0
7, 238080, Note_on_c, 5, 84, 96
7, 238080, Note_off_c, 5, 72, 0
7, 238080, Note_on_c, 5, 81, 96
7, 239104, Note_off_c, 5, 84, 0
7, 239104, Note_on_c, 5, 81, 96
7, 239104, Note_off_c, 5, 81, 0
7, 239104, Note_on_c, 5, 74, 96
7, 239616, Note_off_c, 5, 81, 0
7, 239616, Note_off_c, 5, 74, 0
7, 239616, Note_on_c, 5, 83, 96
7, 239616, Note_on_c, 5, 74, 96
7, 240128, Note_off_c, 5, 83, 0
7, 240128, Note_on_c, 5, 83, 96
7, 240128, Note_off_c, 5, 74, 0
7, 240128, Note_on_c, 5, 79, 96
7, 240128, Note_on_c, 5, 74, 96
7, 240640, Note_off_c, 5, 83, 0
7, 240640, Note_on_c, 5, 83, 96
7, 240640, Note_off_c, 5, 79, 0
7, 240640, Note_on_c, 5, 79, 96
7, 240640, Note_off_c, 5, 74, 0
7, 240640, Note_on_c, 5, 74, 96
7, 241152, Note_off_c, 5, 83, 0
7, 241152, Note_on_c, 5, 83, 96
7, 241152, Note_off_c, 5, 79, 0
7, 241152, Note_on_c, 5, 79, 96
7, 241152, Note_off_c, 5, 74, 0
7, 241152, Note_on_c, 5, 74, 96
7, 241664, Note_off_c, 5, 83, 0
7, 241664, Note_on_c, 5, 83, 96
7, 241664, Note_off_c, 5, 79, 0
7, 241664, Note_on_c, 5, 79, 96
7, 241664, Note_off_c, 5, 74, 0
7, 241664, Note_on_c, 5, 74, 96
7, 242176, Note_off_c, 5, 83, 0
7, 242176, Note_on_c, 5, 83, 96
7, 242176, Note_off_c, 5, 79, 0
7, 242176, Note_on_c, 5, 79, 96
7, 242176, Note_off_c, 5, 74, 0
7, 242176, Note_on_c, 5, 74, 96
7, 242688, Note_off_c, 5, 83, 0
7, 242688, Note_off_c, 5, 79, 0
7, 242688, Note_off_c, 5, 74, 0
7, 242688, Note_on_c, 5, 79, 96
7, 242688, Note_on_c, 5, 76, 96
7, 242688, Note_on_c, 5, 72, 96
7, 243200, Note_off_c, 5, 79, 0
7, 243200, Note_on_c, 5, 81, 96
7, 243200, Note_off_c, 5, 76, 0
7, 243200, Note_on_c, 5, 74, 96
7, 243200, Note_off_c, 5, 72, 0
7, 243712, Note_off_c, 5, 81, 0
7, 243712, Note_on_c, 5, 81, 96
7, 243712, Note_off_c, 5, 74, 0
7, 243712, Note_on_c, 5, 74, 96
7, 243712, Note_on_c, 5, 67, 96
7, 244224, Note_off_c, 5, 81, 0
7, 244224, Note_on_c, 5, 79, 96
7, 244224, Note_off_c, 5, 74, 0
7, 244224, Note_on_c, 5, 74, 96
7, 244224, Note_off_c, 5, 67, 0
7, 244736, Note_off_c, 5, 79, 0
7, 244736, Note_on_c, 5, 79, 96
7, 244736, Note_off_c, 5, 74, 0
7, 244736, Note_on_c, 5, 74, 96
7, 244736, Note_on_c, 5, 60, 96
7, 245248, Note_off_c, 5, 79, 0
7, 245248, Note_on_c, 5, 78, 96
7, 245248, Note_off_c, 5, 74, 0
7, 245248, Note_on_c, 5, 74, 96
7, 245248, Note_off_c, 5, 60, 0
7, 245760, Note_off_c, 5, 78, 0
7, 245760, Note_off_c, 5, 74, 0
7, 245760, Note_on_c, 5, 79, 96
7, 245760, Note_on_c, 5, 74, 96
7, 245760, Note_on_c, 5, 67, 96
7, 246784, Note_off_c, 5, 79, 0
7, 246784, Note_off_c, 5, 74, 0
7, 246784, Note_off_c, 5, 67, 0
7, 267776, Note_on_c, 5, 79, 96
7, 268288, Note_off_c, 5, 79, 0
7, 268288, Note_on_c, 5, 76, 96
7, 268800, Note_off_c, 5, 76, 0
7, 268800, Note_on_c, 5, 81, 96
7, 269824, Note_off_c, 5, 81, 0
7, 269824, Note_on_c, 5, 79, 96
7, 270336, Note_off_c, 5, 79, 0
7, 270336, Note_on_c, 5, 77, 96
7, 270848, Note_off_c, 5, 77, 0
7, 270848, Note_on_c, 5, 77, 96
7, 271104, Note_off_c, 5, 77, 0
7, 271104, Note_on_c, 5, 76, 96
7, 271360, Note_off_c, 5, 76, 0
7, 271360, Note_on_c, 5, 77, 96
7, 271872, Note_off_c, 5, 77, 0
7, 271872, Note_on_c, 5, 86, 96
7, 272896, Note_off_c, 5, 86, 0
7, 272896, Note_on_c, 5, 77, 96
7, 273408, Note_off_c, 5, 77, 0
7, 273408, Note_on_c, 5, 76, 96
7, 273408, Note_on_c, 5, 72, 96
7, 273408, Note_on_c, 5, 67, 96
7, 274432, Note_off_c, 5, 76, 0
7, 274432, Note_off_c, 5, 72, 0
7, 274432, Note_off_c, 5, 67, 0
7, 276480, Note_on_c, 5, 79, 96
7, 276480, Note_on_c, 5, 74, 96
7, 276480, Note_on_c, 5, 67, 96
7, 277504, Note_off_c, 5, 79, 0
7, 277504, Note_off_c, 5, 74, 0
7, 277504, Note_off_c, 5, 67, 0
7, 280064, Note_on_c, 5, 72, 96
7, 280064, Note_on_c, 5, 67, 96
7, 280064, Note_on_c, 5, 64, 96
7, 280320, Note_off_c, 5, 72, 0
7, 280320, Note_on_c, 5, 74, 96
7, 280576, Note_off_c, 5, 74, 0
7, 280576, Note_on_c, 5, 76, 96
7, 280576, Note_off_c, 5, 67, 0
7, 280576, Note_on_c, 5, 67, 96
7, 280576, Note_off_c, 5, 64, 0
7, 280576, Note_on_c, 5, 60, 96
7, 281088, Note_off_c, 5, 76, 0
7, 281088, Note_on_c, 5, 76, 96
7, 281088, Note_off_c, 5, 67, 0
7, 281088, Note_on_c, 5, 67, 96
7, 281088, Note_off_c, 5, 60, 0
7, 281088, Note_on_c, 5, 64, 96
7, 281344, Note_off_c, 5, 76, 0
7, 281344, Note_on_c, 5, 74, 96
7, 281600, Note_off_c, 5, 74, 0
7, 281600, Note_on_c, 5, 76, 96
7, 281600, Note_off_c, 5, 67, 0
7, 281600, Note_on_c, 5, 72, 96
7, 281600, Note_off_c, 5, 64, 0
7, 281600, Note_on_c, 5, 67, 96
7, 282112, Note_off_c, 5, 76, 0
7, 282112, Note_on_c, 5, 79, 96
7, 282112, Note_off_c, 5, 72, 0
7, 282112, Note_on_c, 5, 74, 96
7, 282112, Note_off_c, 5, 67, 0
7, 282112, Note_on_c, 5, 72, 96
7, 282368, Note_off_c, 5, 79, 0
7, 282368, Note_on_c, 5, 78, 96
7, 282624, Note_off_c, 5, 78, 0
7, 282624, Note_off_c, 5, 74, 0
7, 282624, Note_off_c, 5, 72, 0
7, 282624, Note_on_c, 5, 79, 96
7, 282624, Note_on_c, 5, 74, 96
7, 282624, Note_on_c, 5, 67, 96
7, 283648, Note_off_c, 5, 79, 0
7, 283648, Note_off_c, 5, 74, 0
7, 283648, Note_off_c, 5, 67, 0
7, 285696, Note_on_c, 5, 81, 96
7, 285696, Note_on_c, 5, 74, 96
7, 286720, Note_off_c, 5, 81, 0
7, 286720, Note_off_c, 5, 74, 0
7, 288768, Note_on_c, 5, 83, 96
7, 288768, Note_on_c, 5, 74, 96
7, 288768, Note_on_c, 5, 67, 96
7, 289792, Note_off_c, 5, 83, 0
7, 289792, Note_off_c, 5, 74, 0
7, 289792, Note_off_c, 5, 67, 0
7, 298496, Note_on_c, 5, 79, 96
7, 298496, Note_on_c, 5, 76, 96
7, 299008, Note_off_c, 5, 79, 0
7, 299008, Note_on_c, 5, 79, 96
7, 299008, Note_off_c, 5, 76, 0
7, 299008, Note_on_c, 5, 76, 96
7, 299520, Note_off_c, 5, 79, 0
7, 299520, Note_on_c, 5, 79, 96
7, 299520, Note_off_c, 5, 76, 0
7, 299520, Note_on_c, 5, 76, 96
7, 300032, Note_off_c, 5, 79, 0
7, 300032, Note_on_c, 5, 79, 96
7, 300032, Note_off_c, 5, 76, 0
7, 300032, Note_on_c, 5, 76, 96
7, 300544, Note_off_c, 5, 79, 0
7, 300544, Note_on_c, 5, 79, 96
7, 300544, Note_off_c, 5, 76, 0
7, 300544, Note_on_c, 5, 76, 96
7, 301056, Note_off_c, 5, 79, 0
7, 301056, Note_off_c, 5, 76, 0
7, 301568, Note_on_c, 5, 79, 96
7, 301568, Note_on_c, 5, 76, 96
7, 302080, Note_off_c, 5, 79, 0
7, 302080, Note_on_c, 5, 79, 96
7, 302080, Note_off_c, 5, 76, 0
7, 302080, Note_on_c, 5, 76, 96
7, 302592, Note_off_c, 5, 79, 0
7, 302592, Note_on_c, 5, 79, 96
7, 302592, Note_off_c, 5, 76, 0
7, 302592, Note_on_c, 5, 76, 96
7, 303104, Note_off_c, 5, 79, 0
7, 303104, Note_on_c, 5, 79, 96
7, 303104, Note_off_c, 5, 76, 0
7, 303104, Note_on_c, 5, 76, 96
7, 303616, Note_off_c, 5, 79, 0
7, 303616, Note_on_c, 5, 79, 96
7, 303616, Note_off_c, 5, 76, 0
7, 303616, Note_on_c, 5, 76, 96
7, 304128, Note_off_c, 5, 79, 0
7, 304128, Note_off_c, 5, 76, 0
7, 304640, Note_on_c, 5, 77, 96
7, 304640, Note_on_c, 5, 74, 96
7, 305152, Note_off_c, 5, 77, 0
7, 305152, Note_on_c, 5, 77, 96
7, 305152, Note_off_c, 5, 74, 0
7, 305152, Note_on_c, 5, 74, 96
7, 305664, Note_off_c, 5, 77, 0
7, 305664, Note_on_c, 5, 77, 96
7, 305664, Note_off_c, 5, 74, 0
7, 305664, Note_on_c, 5, 74, 96
7, 306176, Note_off_c, 5, 77, 0
7, 306176, Note_on_c, 5, 77, 96
7, 306176, Note_off_c, 5, 74, 0
7, 306176, Note_on_c, 5, 74, 96
7, 306688, Note_off_c, 5, 77, 0
7, 306688, Note_on_c, 5, 77, 96
7, 306688, Note_off_c, 5, 74, 0
7, 306688, Note_on_c, 5, 74, 96
7, 307200, Note_off_c, 5, 77, 0
7, 307200, Note_off_c, 5, 74, 0
7, 307712, Note_on_c, 5, 77, 96
7, 307712, Note_on_c, 5, 74, 96
7, 308224, Note_off_c, 5, 77, 0
7, 308224, Note_on_c, 5, 77, 96
7, 308224, Note_off_c, 5, 74, 0
7, 308224, Note_on_c, 5, 74, 96
7, 308736, Note_off_c, 5, 77, 0
7, 308736, Note_on_c, 5, 77, 96
7, 308736, Note_off_c, 5, 74, 0
7, 308736, Note_on_c, 5, 74, 96
7, 309248, Note_off_c, 5, 77, 0
7, 309248, Note_on_c, 5, 77, 96
7, 309248, Note_off_c, 5, 74, 0
7, 309248, Note_on_c, 5, 74, 96
7, 309760, Note_off_c, 5, 77, 0
7, 309760, Note_on_c, 5, 77, 96
7, 309760, Note_off_c, 5, 74, 0
7, 309760, Note_on_c, 5, 74, 96
7, 310272, Note_off_c, 5, 77, 0
7, 310272, Note_off_c, 5, 74, 0
7, 310272, Note_on_c, 5, 76, 96
7, 310272, Note_on_c, 5, 72, 96
7, 310272, Note_on_c, 5, 67, 96
7, 310784, Note_off_c, 5, 76, 0
7, 310784, Note_on_c, 5, 79, 96
7, 310784, Note_off_c, 5, 72, 0
7, 310784, Note_on_c, 5, 76, 96
7, 311296, Note_off_c, 5, 79, 0
7, 311296, Note_on_c, 5, 76, 96
7, 311296, Note_off_c, 5, 76, 0
7, 311296, Note_on_c, 5, 72, 96
7, 311296, Note_off_c, 5, 67, 0
7, 311808, Note_off_c, 5, 76, 0
7, 311808, Note_on_c, 5, 81, 96
7, 311808, Note_off_c, 5, 72, 0
7, 311808, Note_on_c, 5, 77, 96
7, 312832, Note_off_c, 5, 81, 0
7, 312832, Note_on_c, 5, 79, 96
7, 312832, Note_off_c, 5, 77, 0
7, 312832, Note_on_c, 5, 76, 96
7, 313344, Note_off_c, 5, 79, 0
7, 313344, Note_off_c, 5, 76, 0
7, 313344, Note_on_c, 5, 77, 96
7, 313344, Note_on_c, 5, 74, 96
7, 313344, Note_on_c, 5, 67, 96
7, 313856, Note_off_c, 5, 77, 0
7, 313856, Note_on_c, 5, 77, 96
7, 313856, Note_off_c, 5, 74, 0
7, 313856, Note_on_c, 5, 74, 96
7, 314112, Note_off_c, 5, 77, 0
7, 314112, Note_on_c, 5, 76, 96
7, 314112, Note_off_c, 5, 74, 0
7, 314112, Note_on_c, 5, 72, 96
7, 314368, Note_off_c, 5, 76, 0
7, 314368, Note_on_c, 5, 77, 96
7, 314368, Note_off_c, 5, 72, 0
7, 314368, Note_on_c, 5, 74, 96
7, 314368, Note_off_c, 5, 67, 0
7, 314880, Note_off_c, 5, 77, 0
7, 314880, Note_on_c, 5, 86, 96
7, 314880, Note_off_c, 5, 74, 0
7, 314880, Note_on_c, 5, 77, 96
7, 315904, Note_off_c, 5, 86, 0
7, 315904, Note_on_c, 5, 77, 96
7, 315904, Note_off_c, 5, 77, 0
7, 315904, Note_on_c, 5, 74, 96
7, 316416, Note_off_c, 5, 77, 0
7, 316416, Note_off_c, 5, 74, 0
7, 316416, Note_on_c, 5, 76, 96
7, 316416, Note_on_c, 5, 72, 96
7, 316416, Note_on_c, 5, 67, 96
7, 316928, Note_off_c, 5, 76, 0
7, 316928, Note_on_c, 5, 76, 96
7, 316928, Note_off_c, 5, 72, 0
7, 316928, Note_on_c, 5, 72, 96
7, 316928, Note_off_c, 5, 67, 0
7, 316928, Note_on_c, 5, 67, 96
7, 317184, Note_off_c, 5, 76, 0
7, 317184, Note_on_c, 5, 77, 96
7, 317184, Note_off_c, 5, 72, 0
7, 317184, Note_on_c, 5, 74, 96
7, 317184, Note_off_c, 5, 67, 0
7, 317184, Note_on_c, 5, 67, 96
7, 317440, Note_off_c, 5, 77, 0
7, 317440, Note_on_c, 5, 79, 96
7, 317440, Note_off_c, 5, 74, 0
7, 317440, Note_on_c, 5, 76, 96
7, 317440, Note_off_c, 5, 67, 0
7, 317440, Note_on_c, 5, 72, 96
7, 317952, Note_off_c, 5, 79, 0
7, 317952, Note_on_c, 5, 79, 96
7, 317952, Note_off_c, 5, 76, 0
7, 317952, Note_on_c, 5, 76, 96
7, 317952, Note_off_c, 5, 72, 0
7, 317952, Note_on_c, 5, 72, 96
7, 318208, Note_off_c, 5, 79, 0
7, 318208, Note_on_c, 5, 81, 96
7, 318208, Note_off_c, 5, 76, 0
7, 318208, Note_on_c, 5, 77, 96
7, 318464, Note_off_c, 5, 81, 0
7, 318464, Note_on_c, 5, 82, 96
7, 318464, Note_off_c, 5, 77, 0
7, 318464, Note_on_c, 5, 79, 96
7, 318464, Note_off_c, 5, 72, 0
7, 318464, Note_on_c, 5, 72, 96
7, 318976, Note_off_c, 5, 82, 0
7, 318976, Note_on_c, 5, 81, 96
7, 318976, Note_off_c, 5, 79, 0
7, 318976, Note_on_c, 5, 77, 96
7, 318976, Note_off_c, 5, 72, 0
7, 318976, Note_on_c, 5, 72, 96
7, 319232, Note_off_c, 5, 81, 0
7, 319232, Note_on_c, 5, 79, 96
7, 319232, Note_off_c, 5, 77, 0
7, 319232, Note_on_c, 5, 76, 96
7, 319488, Note_off_c, 5, 79, 0
7, 319488, Note_off_c, 5, 76, 0
7, 319488, Note_off_c, 5, 72, 0
7, 319488, Note_on_c, 5, 81, 96
7, 319488, Note_on_c, 5, 77, 96
7, 319488, Note_on_c, 5, 72, 96
7, 320000, Note_off_c, 5, 81, 0
7, 320000, Note_on_c, 5, 79, 96
7, 320000, Note_off_c, 5, 77, 0
7, 320000, Note_on_c, 5, 74, 96
7, 320000, Note_off_c, 5, 72, 0
7, 320000, Note_on_c, 5, 74, 96
7, 320256, Note_off_c, 5, 79, 0
7, 320256, Note_on_c, 5, 77, 96
7, 320512, Note_off_c, 5, 77, 0
7, 320512, Note_on_c, 5, 76, 96
7, 320512, Note_off_c, 5, 74, 0
7, 320512, Note_on_c, 5, 72, 96
7, 320512, Note_off_c, 5, 74, 0
7, 320512, Note_on_c, 5, 67, 96
7, 321024, Note_off_c, 5, 76, 0
7, 321024, Note_on_c, 5, 79, 96
7, 321024, Note_off_c, 5, 72, 0
7, 321024, Note_on_c, 5, 72, 96
7, 321024, Note_off_c, 5, 67, 0
7, 321024, Note_on_c, 5, 67, 96
7, 321536, Note_off_c, 5, 79, 0
7, 321536, Note_on_c, 5, 77, 96
7, 321536, Note_off_c, 5, 72, 0
7, 321536, Note_on_c, 5, 72, 96
7, 321536, Note_off_c, 5, 67, 0
7, 321536, Note_on_c, 5, 67, 96
7, 321792, Note_off_c, 5, 77, 0
7, 321792, Note_on_c, 5, 76, 96
7, 322048, Note_off_c, 5, 76, 0
7, 322048, Note_on_c, 5, 74, 96
7, 322048, Note_off_c, 5, 72, 0
7, 322048, Note_on_c, 5, 67, 96
7, 322048, Note_off_c, 5, 67, 0
7, 322048, Note_on_c, 5, 67, 96
7, 322304, Note_off_c, 5, 74, 0
7, 322304, Note_on_c, 5, 76, 96
7, 322560, Note_off_c, 5, 76, 0
7, 322560, Note_off_c, 5, 67, 0
7, 322560, Note_off_c, 5, 67, 0
7, 322560, Note_on_c, 5, 72, 96
7, 322560, Note_on_c, 5, 67, 96
7, 322560, Note_on_c, 5, 64, 96
7, 325632, Note_off_c, 5, 72, 0
7, 325632, Note_off_c, 5, 67, 0
7, 325632, Note_off_c, 5, 64, 0
7, 325632, End_track
8, 0, Start_track
8, 0, Title_t, "Instrument 7"
8, 512, Note_on_c, 6, 67, 96
8, 512, Note_on_c, 6, 64, 96
8, 1024, Note_off_c, 6, 67, 0
8, 1024, Note_on_c, 6, 64, 96
8, 1024, Note_off_c, 6, 64, 0
8, 1024, Note_on_c, 6, 60, 96
8, 1536, Note_off_c, 6, 64, 0
8, 1536, Note_on_c, 6, 69, 96
8, 1536, Note_off_c, 6, 60, 0
8, 1536, Note_on_c, 6, 65, 96
8, 2560, Note_off_c, 6, 69, 0
8, 2560, Note_on_c, 6, 67, 96
8, 2560, Note_off_c, 6, 65, 0
8, 2560, Note_on_c, 6, 64, 96
8, 3072, Note_off_c, 6, 67, 0
8, 3072, Note_off_c, 6, 64, 0
8, 3072, Note_on_c, 6, 65, 96
8, 3072, Note_on_c, 6, 62, 96
8, 3584, Note_off_c, 6, 65, 0
8, 3584, Note_on_c, 6, 65, 96
8, 3584, Note_off_c, 6, 62, 0
8, 3584, Note_on_c, 6, 62, 96
8, 3840, Note_off_c, 6, 65, 0
8, 3840, Note_on_c, 6, 64, 96
8, 3840, Note_off_c, 6, 62, 0
8, 3840, Note_on_c, 6, 60, 96
8, 4096, Note_off_c, 6, 64, 0
8, 4096, Note_on_c, 6, 65, 96
8, 4096, Note_off_c, 6, 60, 0
8, 4096, Note_on_c, 6, 62, 96
8, 4608, Note_off_c, 6, 65, 0
8, 4608, Note_on_c, 6, 74, 96
8, 4608, Note_off_c, 6, 62, 0
8, 4608, Note_on_c, 6, 65, 96
8, 5632, Note_off_c, 6, 74, 0
8, 5632, Note_on_c, 6, 65, 96
8, 5632, Note_off_c, 6, 65, 0
8, 5632, Note_on_c, 6, 62, 96
8, 6144, Note_off_c, 6, 65, 0
8, 6144, Note_off_c, 6, 62, 0
8, 6144, Note_on_c, 6, 64, 96
8, 6144, Note_on_c, 6, 60, 96
8, 6656, Note_off_c, 6, 64, 0
8, 6656, Note_on_c, 6, 64, 96
8, 6656, Note_off_c, 6, 60, 0
8, 6656, Note_on_c, 6, 64, 96
8, 6912, Note_off_c, 6, 64, 0
8, 6912, Note_on_c, 6, 65, 96
8, 6912, Note_off_c, 6, 64, 0
8, 6912, Note_on_c, 6, 65, 96
8, 7168, Note_off_c, 6, 65, 0
8, 7168, Note_on_c, 6, 67, 96
8, 7168, Note_off_c, 6, 65, 0
8, 7168, Note_on_c, 6, 67, 96
8, 7680, Note_off_c, 6, 67, 0
8, 7680, Note_on_c, 6, 69, 96
8, 7680, Note_off_c, 6, 67, 0
8, 7680, Note_on_c, 6, 69, 96
8, 7936, Note_off_c, 6, 69, 0
8, 7936, Note_on_c, 6, 71, 96
8, 7936, Note_off_c, 6, 69, 0
8, 7936, Note_on_c, 6, 71, 96
8, 8192, Note_off_c, 6, 71, 0
8, 8192, Note_on_c, 6, 72, 96
8, 8192, Note_off_c, 6, 71, 0
8, 8192, Note_on_c, 6, 72, 96
8, 8704, Note_off_c, 6, 72, 0
8, 8704, Note_on_c, 6, 71, 96
8, 8704, Note_off_c, 6, 72, 0
8, 8704, Note_on_c, 6, 71, 96
8, 8960, Note_off_c, 6, 71, 0
8, 8960, Note_on_c, 6, 69, 96
8, 8960, Note_off_c, 6, 71, 0
8, 8960, Note_on_c, 6, 69, 96
8, 9216, Note_off_c, 6, 69, 0
8, 9216, Note_off_c, 6, 69, 0
8, 9216, Note_on_c, 6, 71, 96
8, 9216, Note_on_c, 6, 71, 96
8, 10240, Note_off_c, 6, 71, 0
8, 10240, Note_on_c, 6, 67, 96
8, 10240, Note_off_c, 6, 71, 0
8, 10240, Note_on_c, 6, 67, 96
8, 11264, Note_off_c, 6, 67, 0
8, 11264, Note_on_c, 6, 67, 96
8, 11264, Note_off_c, 6, 67, 0
8, 11264, Note_on_c, 6, 67, 96
8, 12288, Note_off_c, 6, 67, 0
8, 12288, Note_off_c, 6, 67, 0
8, 12288, Note_on_c, 6, 67, 96
8, 12288, Note_on_c, 6, 67, 96
8, 13312, Note_off_c, 6, 67, 0
8, 13312, Note_on_c, 6, 66, 96
8, 13312, Note_off_c, 6, 67, 0
8, 13312, Note_on_c, 6, 66, 96
8, 14336, Note_off_c, 6, 66, 0
8, 14336, Note_on_c, 6, 66, 96
8, 14336, Note_off_c, 6, 66, 0
8, 14336, Note_on_c, 6, 66, 96
8, 15360, Note_off_c, 6, 66, 0
8, 15360, Note_off_c, 6, 66, 0
8, 15360, Note_on_c, 6, 67, 96
8, 15360, Note_on_c, 6, 67, 96
8, 16384, Note_off_c, 6, 67, 0
8, 16384, Note_off_c, 6, 67, 0
8, 18944, Note_on_c, 6, 74, 96
8, 18944, Note_on_c, 6, 65, 96
8, 19200, Note_off_c, 6, 74, 0
8, 19200, Note_on_c, 6, 76, 96
8, 19200, Note_off_c, 6, 65, 0
8, 19200, Note_on_c, 6, 67, 96
8, 19456, Note_off_c, 6, 76, 0
8, 19456, Note_on_c, 6, 77, 96
8, 19456, Note_off_c, 6, 67, 0
8, 19456, Note_on_c, 6, 69, 96
8, 19968, Note_off_c, 6, 77, 0
8, 19968, Note_on_c, 6, 77, 96
8, 19968, Note_off_c, 6, 69, 0
8, 19968, Note_on_c, 6, 71, 96
8, 20224, Note_off_c, 6, 77, 0
8, 20224, Note_on_c, 6, 76, 96
8, 20224, Note_off_c, 6, 71, 0
8, 20224, Note_on_c, 6, 72, 96
8, 20480, Note_off_c, 6, 76, 0
8, 20480, Note_on_c, 6, 78, 96
8, 20480, Note_off_c, 6, 72, 0
8, 20480, Note_on_c, 6, 74, 96
8, 20992, Note_off_c, 6, 78, 0
8, 20992, Note_on_c, 6, 81, 96
8, 20992, Note_off_c, 6, 74, 0
8, 20992, Note_on_c, 6, 72, 96
8, 21248, Note_off_c, 6, 81, 0
8, 21248, Note_on_c, 6, 80, 96
8, 21248, Note_off_c, 6, 72, 0
8, 21248, Note_on_c, 6, 71, 96
8, 21504, Note_off_c, 6, 80, 0
8, 21504, Note_off_c, 6, 71, 0
8, 21504, Note_on_c, 6, 81, 96
8, 21504, Note_on_c, 6, 72, 96
8, 22016, Note_off_c, 6, 81, 0
8, 22016, Note_on_c, 6, 72, 96
8, 22016, Note_off_c, 6, 72, 0
8, 22016, Note_on_c, 6, 69, 96
8, 22272, Note_off_c, 6, 72, 0
8, 22272, Note_on_c, 6, 74, 96
8, 22272, Note_off_c, 6, 69, 0
8, 22272, Note_on_c, 6, 71, 96
8, 22528, Note_off_c, 6, 74, 0
8, 22528, Note_on_c, 6, 76, 96
8, 22528, Note_off_c, 6, 71, 0
8, 22528, Note_on_c, 6, 72, 96
8, 23040, Note_off_c, 6, 76, 0
8, 23040, Note_on_c, 6, 78, 96
8, 23040, Note_off_c, 6, 72, 0
8, 23040, Note_on_c, 6, 72, 96
8, 23296, Note_off_c, 6, 78, 0
8, 23296, Note_on_c, 6, 79, 96
8, 23296, Note_off_c, 6, 72, 0
8, 23296, Note_on_c, 6, 71, 96
8, 23552, Note_off_c, 6, 79, 0
8, 23552, Note_on_c, 6, 81, 96
8, 23552, Note_off_c, 6, 71, 0
8, 23552, Note_on_c, 6, 73, 96
8, 24064, Note_off_c, 6, 81, 0
8, 24064, Note_on_c, 6, 79, 96
8, 24064, Note_off_c, 6, 73, 0
8, 24064, Note_on_c, 6, 76, 96
8, 24320, Note_off_c, 6, 79, 0
8, 24320, Note_on_c, 6, 78, 96
8, 24320, Note_off_c, 6, 76, 0
8, 24320, Note_on_c, 6, 75, 96
8, 24576, Note_off_c, 6, 78, 0
8, 24576, Note_off_c, 6, 75, 0
8, 24576, Note_on_c, 6, 79, 96
8, 24576, Note_on_c, 6, 76, 96
8, 24832, Note_off_c, 6, 76, 0
8, 24832, Note_on_c, 6, 75, 96
8, 25088, Note_off_c, 6, 79, 0
8, 25088, Note_on_c, 6, 79, 96
8, 25088, Note_off_c, 6, 75, 0
8, 25088, Note_on_c, 6, 76, 96
8, 25344, Note_off_c, 6, 76, 0
8, 25344, Note_on_c, 6, 71, 96
8, 25600, Note_off_c, 6, 79, 0
8, 25600, Note_on_c, 6, 79, 96
8, 25600, Note_off_c, 6, 71, 0
8, 25600, Note_on_c, 6, 71, 96
8, 25856, Note_off_c, 6, 71, 0
8, 25856, Note_on_c, 6, 69, 96
8, 26112, Note_off_c, 6, 79, 0
8, 26112, Note_on_c, 6, 79, 96
8, 26112, Note_off_c, 6, 69, 0
8, 26112, Note_on_c, 6, 71, 96
8, 26368, Note_off_c, 6, 71, 0
8, 26368, Note_on_c, 6, 67, 96
8, 26624, Note_off_c, 6, 79, 0
8, 26624, Note_on_c, 6, 79, 96
8, 26624, Note_off_c, 6, 67, 0
8, 26624, Note_on_c, 6, 67, 96
8, 26880, Note_off_c, 6, 67, 0
8, 26880, Note_on_c, 6, 66, 96
8, 27136, Note_off_c, 6, 79, 0
8, 27136, Note_on_c, 6, 79, 96
8, 27136, Note_off_c, 6, 66, 0
8, 27136, Note_on_c, 6, 67, 96
8, 27392, Note_off_c, 6, 67, 0
8, 27392, Note_on_c, 6, 64, 96
8, 27648, Note_off_c, 6, 79, 0
8, 27648, Note_off_c, 6, 64, 0
8, 27648, Note_on_c, 6, 79, 96
8, 27648, Note_on_c, 6, 73, 96
8, 27904, Note_off_c, 6, 79, 0
8, 27904, Note_on_c, 6, 77, 96
8, 28160, Note_off_c, 6, 77, 0
8, 28160, Note_on_c, 6, 79, 96
8, 28160, Note_off_c, 6, 73, 0
8, 28160, Note_on_c, 6, 73, 96
8, 28416, Note_off_c, 6, 79, 0
8, 28416, Note_on_c, 6, 76, 96
8, 28672, Note_off_c, 6, 76, 0
8, 28672, Note_on_c, 6, 76, 96
8, 28672, Note_off_c, 6, 73, 0
8, 28672, Note_on_c, 6, 73, 96
8, 28928, Note_off_c, 6, 76, 0
8, 28928, Note_on_c, 6, 74, 96
8, 29184, Note_off_c, 6, 74, 0
8, 29184, Note_on_c, 6, 76, 96
8, 29184, Note_off_c, 6, 73, 0
8, 29184, Note_on_c, 6, 73, 96
8, 29440, Note_off_c, 6, 76, 0
8, 29440, Note_on_c, 6, 73, 96
8, 29696, Note_off_c, 6, 73, 0
8, 29696, Note_on_c, 6, 73, 96
8, 29696, Note_off_c, 6, 73, 0
8, 29696, Note_on_c, 6, 73, 96
8, 29952, Note_off_c, 6, 73, 0
8, 29952, Note_on_c, 6, 71, 96
8, 30208, Note_off_c, 6, 71, 0
8, 30208, Note_on_c, 6, 73, 96
8, 30208, Note_off_c, 6, 73, 0
8, 30208, Note_on_c, 6, 73, 96
8, 30464, Note_off_c, 6, 73, 0
8, 30464, Note_on_c, 6, 69, 96
8, 30720, Note_off_c, 6, 69, 0
8, 30720, Note_off_c, 6, 73, 0
8, 30720, Note_on_c, 6, 77, 96
8, 30720, Note_on_c, 6, 74, 96
8, 30976, Note_off_c, 6, 74, 0
8, 30976, Note_on_c, 6, 73, 96
8, 31232, Note_off_c, 6, 77, 0
8, 31232, Note_on_c, 6, 77, 96
8, 31232, Note_off_c, 6, 73, 0
8, 31232, Note_on_c, 6, 74, 96
8, 31488, Note_off_c, 6, 74, 0
8, 31488, Note_on_c, 6, 69, 96
8, 31744, Note_off_c, 6, 77, 0
8, 31744, Note_on_c, 6, 77, 96
8, 31744, Note_off_c, 6, 69, 0
8, 31744, Note_on_c, 6, 69, 96
8, 32000, Note_off_c, 6, 69, 0
8, 32000, Note_on_c, 6, 67, 96
8, 32256, Note_off_c, 6, 77, 0
8, 32256, Note_on_c, 6, 77, 96
8, 32256, Note_off_c, 6, 67, 0
8, 32256, Note_on_c, 6, 69, 96
8, 32512, Note_off_c, 6, 69, 0
8, 32512, Note_on_c, 6, 65, 96
8, 32768, Note_off_c, 6, 77, 0
8, 32768, Note_on_c, 6, 77, 96
8, 32768, Note_off_c, 6, 65, 0
8, 32768, Note_on_c, 6, 65, 96
8, 33024, Note_off_c, 6, 65, 0
8, 33024, Note_on_c, 6, 64, 96
8, 33280, Note_off_c, 6, 77, 0
8, 33280, Note_on_c, 6, 77, 96
8, 33280, Note_off_c, 6, 64, 0
8, 33280, Note_on_c, 6, 65, 96
8, 33536, Note_off_c, 6, 65, 0
8, 33536, Note_on_c, 6, 62, 96
8, 33792, Note_off_c, 6, 77, 0
8, 33792, Note_off_c, 6, 62, 0
8, 33792, Note_on_c, 6, 77, 96
8, 33792, Note_on_c, 6, 71, 96
8, 34048, Note_off_c, 6, 77, 0
8, 34048, Note_on_c, 6, 76, 96
8, 34304, Note_off_c, 6, 76, 0
8, 34304, Note_on_c, 6, 77, 96
8, 34304, Note_off_c, 6, 71, 0
8, 34304, Note_on_c, 6, 71, 96
8, 34560, Note_off_c, 6, 77, 0
8, 34560, Note_on_c, 6, 74, 96
8, 34816, Note_off_c, 6, 74, 0
8, 34816, Note_on_c, 6, 74, 96
8, 34816, Note_off_c, 6, 71, 0
8, 34816, Note_on_c, 6, 71, 96
8, 35072, Note_off_c, 6, 74, 0
8, 35072, Note_on_c, 6, 72, 96
8, 35328, Note_off_c, 6, 72, 0
8, 35328, Note_on_c, 6, 74, 96
8, 35328, Note_off_c, 6, 71, 0
8, 35328, Note_on_c, 6, 71, 96
8, 35584, Note_off_c, 6, 74, 0
8, 35584, Note_on_c, 6, 71, 96
8, 35840, Note_off_c, 6, 71, 0
8, 35840, Note_on_c, 6, 71, 96
8, 35840, Note_off_c, 6, 71, 0
8, 35840, Note_on_c, 6, 71, 96
8, 36096, Note_off_c, 6, 71, 0
8, 36096, Note_on_c, 6, 69, 96
8, 36352, Note_off_c, 6, 69, 0
8, 36352, Note_on_c, 6, 71, 96
8, 36352, Note_off_c, 6, 71, 0
8, 36352, Note_on_c, 6, 71, 96
8, 36608, Note_off_c, 6, 71, 0
8, 36608, Note_on_c, 6, 67, 96
8, 36864, Note_off_c, 6, 67, 0
8, 36864, Note_off_c, 6, 71, 0
8, 36864, Note_on_c, 6, 76, 96
8, 36864, Note_on_c, 6, 72, 96
8, 37888, Note_off_c, 6, 76, 0
8, 37888, Note_off_c, 6, 72, 0
8, 38400, Note_on_c, 6, 72, 96
8, 38400, Note_on_c, 6, 69, 96
8, 38656, Note_off_c, 6, 72, 0
8, 38656, Note_on_c, 6, 74, 96
8, 38656, Note_off_c, 6, 69, 0
8, 38656, Note_on_c, 6, 71, 96
8, 38912, Note_off_c, 6, 74, 0
8, 38912, Note_on_c, 6, 76, 96
8, 38912, Note_off_c, 6, 71, 0
8, 38912, Note_on_c, 6, 72, 96
8, 39424, Note_off_c, 6, 76, 0
8, 39424, Note_on_c, 6, 77, 96
8, 39424, Note_off_c, 6, 72, 0
8, 39424, Note_on_c, 6, 74, 96
8, 39680, Note_off_c, 6, 77, 0
8, 39680, Note_on_c, 6, 79, 96
8, 39680, Note_off_c, 6, 74, 0
8, 39680, Note_on_c, 6, 76, 96
8, 39936, Note_off_c, 6, 79, 0
8, 39936, Note_off_c, 6, 76, 0
8, 39936, Note_on_c, 6, 81, 96
8, 39936, Note_on_c, 6, 77, 96
8, 40448, Note_off_c, 6, 81, 0
8, 40448, Note_off_c, 6, 77, 0
8, 41472, Note_on_c, 6, 74, 96
8, 41472, Note_on_c, 6, 74, 96
8, 41728, Note_off_c, 6, 74, 0
8, 41728, Note_on_c, 6, 76, 96
8, 41728, Note_off_c, 6, 74, 0
8, 41728, Note_on_c, 6, 76, 96
8, 41984, Note_off_c, 6, 76, 0
8, 41984, Note_on_c, 6, 74, 96
8, 41984, Note_off_c, 6, 76, 0
8, 41984, Note_on_c, 6, 74, 96
8, 42240, Note_off_c, 6, 74, 0
8, 42240, Note_on_c, 6, 72, 96
8, 42240, Note_off_c, 6, 74, 0
8, 42240, Note_on_c, 6, 72, 96
8, 42496, Note_off_c, 6, 72, 0
8, 42496, Note_on_c, 6, 71, 96
8, 42496, Note_off_c, 6, 72, 0
8, 42496, Note_on_c, 6, 71, 96
8, 42752, Note_off_c, 6, 71, 0
8, 42752, Note_on_c, 6, 69, 96
8, 42752, Note_off_c, 6, 71, 0
8, 42752, Note_on_c, 6, 69, 96
8, 43008, Note_off_c, 6, 69, 0
8, 43008, Note_off_c, 6, 69, 0
8, 43008, Note_on_c, 6, 67, 96
8, 43008, Note_on_c, 6, 67, 96
8, 43520, Note_off_c, 6, 67, 0
8, 43520, Note_on_c, 6, 76, 96
8, 43520, Note_off_c, 6, 67, 0
8, 43520, Note_on_c, 6, 72, 96
8, 43776, Note_off_c, 6, 76, 0
8, 43776, Note_on_c, 6, 77, 96
8, 43776, Note_off_c, 6, 72, 0
8, 43776, Note_on_c, 6, 74, 96
8, 44032, Note_off_c, 6, 77, 0
8, 44032, Note_on_c, 6, 79, 96
8, 44032, Note_off_c, 6, 74, 0
8, 44032, Note_on_c, 6, 76, 96
8, 44544, Note_off_c, 6, 79, 0
8, 44544, Note_on_c, 6, 79, 96
8, 44544, Note_off_c, 6, 76, 0
8, 44544, Note_on_c, 6, 76, 96
8, 44800, Note_off_c, 6, 79, 0
8, 44800, Note_on_c, 6, 81, 96
8, 44800, Note_off_c, 6, 76, 0
8, 44800, Note_on_c, 6, 77, 96
8, 45056, Note_off_c, 6, 81, 0
8, 45056, Note_on_c, 6, 82, 96
8, 45056, Note_off_c, 6, 77, 0
8, 45056, Note_on_c, 6, 79, 96
8, 45568, Note_off_c, 6, 82, 0
8, 45568, Note_on_c, 6, 81, 96
8, 45568, Note_off_c, 6, 79, 0
8, 45568, Note_on_c, 6, 77, 96
8, 45824, Note_off_c, 6, 81, 0
8, 45824, Note_on_c, 6, 79, 96
8, 45824, Note_off_c, 6, 77, 0
8, 45824, Note_on_c, 6, 76, 96
8, 46080, Note_off_c, 6, 79, 0
8, 46080, Note_off_c, 6, 76, 0
8, 46080, Note_on_c, 6, 81, 96
8, 46080, Note_on_c, 6, 77, 96
8, 46592, Note_off_c, 6, 81, 0
8, 46592, Note_on_c, 6, 79, 96
8, 46592, Note_off_c, 6, 77, 0
8, 46592, Note_on_c, 6, 74, 96
8, 46848, Note_off_c, 6, 79, 0
8, 46848, Note_on_c, 6, 77, 96
8, 47104, Note_off_c, 6, 77, 0
8, 47104, Note_on_c, 6, 76, 96
8, 47104, Note_off_c, 6, 74, 0
8, 47104, Note_on_c, 6, 67, 96
8, 47616, Note_off_c, 6, 76, 0
8, 47616, Note_on_c, 6, 79, 96
8, 47616, Note_off_c, 6, 67, 0
8, 47616, Note_on_c, 6, 72, 96
8, 48128, Note_off_c, 6, 79, 0
8, 48128, Note_on_c, 6, 77, 96
8, 48128, Note_off_c, 6, 72, 0
8, 48128, Note_on_c, 6, 72, 96
8, 48384, Note_off_c, 6, 77, 0
8, 48384, Note_on_c, 6, 76, 96
8, 48640, Note_off_c, 6, 76, 0
8, 48640, Note_on_c, 6, 74, 96
8, 48640, Note_off_c, 6, 72, 0
8, 48640, Note_on_c, 6, 71, 96
8, 48896, Note_off_c, 6, 74, 0
8, 48896, Note_on_c, 6, 76, 96
8, 49152, Note_off_c, 6, 76, 0
8, 49152, Note_off_c, 6, 71, 0
8, 49152, Note_on_c, 6, 72, 96
8, 49152, Note_on_c, 6, 72, 96
8, 49408, Note_off_c, 6, 72, 0
8, 49408, Note_on_c, 6, 71, 96
8, 49664, Note_off_c, 6, 72, 0
8, 49664, Note_on_c, 6, 76, 96
8, 49664, Note_off_c, 6, 71, 0
8, 49664, Note_on_c, 6, 72, 96
8, 49920, Note_off_c, 6, 76, 0
8, 49920, Note_on_c, 6, 74, 96
8, 49920, Note_off_c, 6, 72, 0
8, 49920, Note_on_c, 6, 67, 96
8, 50176, Note_off_c, 6, 74, 0
8, 50176, Note_on_c, 6, 72, 96
8, 50176, Note_off_c, 6, 67, 0
8, 50176, Note_on_c, 6, 72, 96
8, 50432, Note_off_c, 6, 72, 0
8, 50432, Note_on_c, 6, 71, 96
8, 50688, Note_off_c, 6, 72, 0
8, 50688, Note_on_c, 6, 77, 96
8, 50688, Note_off_c, 6, 71, 0
8, 50688, Note_on_c, 6, 72, 96
8, 50944, Note_off_c, 6, 72, 0
8, 50944, Note_on_c, 6, 69, 96
8, 51200, Note_off_c, 6, 69, 0
8, 51200, Note_on_c, 6, 72, 96
8, 51456, Note_off_c, 6, 72, 0
8, 51456, Note_on_c, 6, 71, 96
8, 51712, Note_off_c, 6, 77, 0
8, 51712, Note_on_c, 6, 76, 96
8, 51712, Note_off_c, 6, 71, 0
8, 51712, Note_on_c, 6, 72, 96
8, 51968, Note_off_c, 6, 72, 0
8, 51968, Note_on_c, 6, 69, 96
8, 52224, Note_off_c, 6, 76, 0
8, 52224, Note_off_c, 6, 69, 0
8, 52224, Note_on_c, 6, 74, 96
8, 52224, Note_on_c, 6, 69, 96
8, 52480, Note_off_c, 6, 69, 0
8, 52480, Note_on_c, 6, 67, 96
8, 52736, Note_off_c, 6, 74, 0
8, 52736, Note_on_c, 6, 74, 96
8, 52736, Note_off_c, 6, 67, 0
8, 52736, Note_on_c, 6, 69, 96
8, 52992, Note_off_c, 6, 74, 0
8, 52992, Note_on_c, 6, 72, 96
8, 52992, Note_off_c, 6, 69, 0
8, 52992, Note_on_c, 6, 65, 96
8, 53248, Note_off_c, 6, 72, 0
8, 53248, Note_on_c, 6, 74, 96
8, 53248, Note_off_c, 6, 65, 0
8, 53248, Note_on_c, 6, 71, 96
8, 53504, Note_off_c, 6, 71, 0
8, 53504, Note_on_c, 6, 69, 96
8, 53760, Note_off_c, 6, 74, 0
8, 53760, Note_on_c, 6, 77, 96
8, 53760, Note_off_c, 6, 69, 0
8, 53760, Note_on_c, 6, 71, 96
8, 54016, Note_off_c, 6, 71, 0
8, 54016, Note_on_c, 6, 67, 96
8, 54272, Note_off_c, 6, 67, 0
8, 54272, Note_on_c, 6, 74, 96
8, 54528, Note_off_c, 6, 74, 0
8, 54528, Note_on_c, 6, 72, 96
8, 54784, Note_off_c, 6, 77, 0
8, 54784, Note_on_c, 6, 74, 96
8, 54784, Note_off_c, 6, 72, 0
8, 54784, Note_on_c, 6, 74, 96
8, 55040, Note_off_c, 6, 74, 0
8, 55040, Note_on_c, 6, 71, 96
8, 55296, Note_off_c, 6, 74, 0
8, 55296, Note_off_c, 6, 71, 0
8, 55296, Note_on_c, 6, 72, 96
8, 55296, Note_on_c, 6, 76, 96
8, 55808, Note_off_c, 6, 72, 0
8, 55808, Note_on_c, 6, 71, 96
8, 55808, Note_off_c, 6, 76, 0
8, 56064, Note_off_c, 6, 71, 0
8, 56064, Note_on_c, 6, 69, 96
8, 56320, Note_off_c, 6, 69, 0
8, 56320, Note_on_c, 6, 67, 96
8, 56320, Note_on_c, 6, 67, 96
8, 57344, Note_off_c, 6, 67, 0
8, 57344, Note_on_c, 6, 67, 96
8, 57344, Note_off_c, 6, 67, 0
8, 57344, Note_on_c, 6, 67, 96
8, 58368, Note_off_c, 6, 67, 0
8, 58368, Note_off_c, 6, 67, 0
8, 58368, Note_on_c, 6, 67, 96
8, 58368, Note_on_c, 6, 67, 96
8, 59392, Note_off_c, 6, 67, 0
8, 59392, Note_on_c, 6, 66, 96
8, 59392, Note_off_c, 6, 67, 0
8, 59392, Note_on_c, 6, 66, 96
8, 60416, Note_off_c, 6, 66, 0
8, 60416, Note_on_c, 6, 66, 96
8, 60416, Note_off_c, 6, 66, 0
8, 60416, Note_on_c, 6, 66, 96
8, 61440, Note_off_c, 6, 66, 0
8, 61440, Note_off_c, 6, 66, 0
8, 61440, Note_on_c, 6, 67, 96
8, 61440, Note_on_c, 6, 67, 96
8, 62464, Note_off_c, 6, 67, 0
8, 62464, Note_off_c, 6, 67, 0
8, 67584, Note_on_c, 6, 72, 96
8, 67584, Note_on_c, 6, 72, 96
8, 68608, Note_off_c, 6, 72, 0
8, 68608, Note_on_c, 6, 72, 96
8, 68608, Note_off_c, 6, 72, 0
8, 68608, Note_on_c, 6, 72, 96
8, 69632, Note_off_c, 6, 72, 0
8, 69632, Note_on_c, 6, 79, 96
8, 69632, Note_off_c, 6, 72, 0
8, 69632, Note_on_c, 6, 79, 96
8, 70656, Note_off_c, 6, 79, 0
8, 70656, Note_off_c, 6, 79, 0
8, 70656, Note_on_c, 6, 76, 96
8, 70656, Note_on_c, 6, 76, 96
8, 72192, Note_off_c, 6, 76, 0
8, 72192, Note_on_c, 6, 74, 96
8, 72192, Note_off_c, 6, 76, 0
8, 72192, Note_on_c, 6, 74, 96
8, 72704, Note_off_c, 6, 74, 0
8, 72704, Note_on_c, 6, 72, 96
8, 72704, Note_off_c, 6, 74, 0
8, 72704, Note_on_c, 6, 72, 96
8, 73728, Note_off_c, 6, 72, 0
8, 73728, Note_off_c, 6, 72, 0
8, 73728, Note_on_c, 6, 71, 96
8, 73728, Note_on_c, 6, 71, 96
8, 75264, Note_off_c, 6, 71, 0
8, 75264, Note_on_c, 6, 69, 96
8, 75264, Note_off_c, 6, 71, 0
8, 75264, Note_on_c, 6, 69, 96
8, 75776, Note_off_c, 6, 69, 0
8, 75776, Note_on_c, 6, 67, 96
8, 75776, Note_off_c, 6, 69, 0
8, 75776, Note_on_c, 6, 67, 96
8, 76800, Note_off_c, 6, 67, 0
8, 76800, Note_off_c, 6, 67, 0
8, 76800, Note_on_c, 6, 72, 96
8, 76800, Note_on_c, 6, 72, 96
8, 77824, Note_off_c, 6, 72, 0
8, 77824, Note_on_c, 6, 74, 96
8, 77824, Note_off_c, 6, 72, 0
8, 77824, Note_on_c, 6, 74, 96
8, 78848, Note_off_c, 6, 74, 0
8, 78848, Note_on_c, 6, 76, 96
8, 78848, Note_off_c, 6, 74, 0
8, 78848, Note_on_c, 6, 76, 96
8, 79360, Note_off_c, 6, 76, 0
8, 79360, Note_on_c, 6, 77, 96
8, 79360, Note_off_c, 6, 76, 0
8, 79360, Note_on_c, 6, 77, 96
8, 79872, Note_off_c, 6, 77, 0
8, 79872, Note_off_c, 6, 77, 0
8, 79872, Note_on_c, 6, 74, 96
8, 79872, Note_on_c, 6, 74, 96
8, 82944, Note_off_c, 6, 74, 0
8, 82944, Note_off_c, 6, 74, 0
8, 82944, Note_on_c, 6, 72, 96
8, 82944, Note_on_c, 6, 72, 96
8, 83456, Note_off_c, 6, 72, 0
8, 83456, Note_on_c, 6, 67, 96
8, 83456, Note_off_c, 6, 72, 0
8, 83456, Note_on_c, 6, 64, 96
8, 83968, Note_off_c, 6, 67, 0
8, 83968, Note_on_c, 6, 64, 96
8, 83968, Note_off_c, 6, 64, 0
8, 83968, Note_on_c, 6, 60, 96
8, 84480, Note_off_c, 6, 64, 0
8, 84480, Note_on_c, 6, 69, 96
8, 84480, Note_off_c, 6, 60, 0
8, 84480, Note_on_c, 6, 65, 96
8, 85504, Note_off_c, 6, 69, 0
8, 85504, Note_on_c, 6, 67, 96
8, 85504, Note_off_c, 6, 65, 0
8, 85504, Note_on_c, 6, 64, 96
8, 86016, Note_off_c, 6, 67, 0
8, 86016, Note_off_c, 6, 64, 0
8, 86016, Note_on_c, 6, 65, 96
8, 86016, Note_on_c, 6, 62, 96
8, 86528, Note_off_c, 6, 65, 0
8, 86528, Note_on_c, 6, 65, 96
8, 86528, Note_off_c, 6, 62, 0
8, 86528, Note_on_c, 6, 62, 96
8, 86784, Note_off_c, 6, 65, 0
8, 86784, Note_on_c, 6, 64, 96
8, 86784, Note_off_c, 6, 62, 0
8, 86784, Note_on_c, 6, 60, 96
8, 87040, Note_off_c, 6, 64, 0
8, 87040, Note_on_c, 6, 65, 96
8, 87040, Note_off_c, 6, 60, 0
8, 87040, Note_on_c, 6, 62, 96
8, 87552, Note_off_c, 6, 65, 0
8, 87552, Note_on_c, 6, 74, 96
8, 87552, Note_off_c, 6, 62, 0
8, 87552, Note_on_c, 6, 65, 96
8, 88576, Note_off_c, 6, 74, 0
8, 88576, Note_on_c, 6, 65, 96
8, 88576, Note_off_c, 6, 65, 0
8, 88576, Note_on_c, 6, 62, 96
8, 89088, Note_off_c, 6, 65, 0
8, 89088, Note_off_c, 6, 62, 0
8, 89088, Note_on_c, 6, 64, 96
8, 89088, Note_on_c, 6, 60, 96
8, 89600, Note_off_c, 6, 64, 0
8, 89600, Note_on_c, 6, 64, 96
8, 89600, Note_off_c, 6, 60, 0
8, 89600, Note_on_c, 6, 64, 96
8, 89856, Note_off_c, 6, 64, 0
8, 89856, Note_on_c, 6, 65, 96
8, 89856, Note_off_c, 6, 64, 0
8, 89856, Note_on_c, 6, 65, 96
8, 90112, Note_off_c, 6, 65, 0
8, 90112, Note_on_c, 6, 67, 96
8, 90112, Note_off_c, 6, 65, 0
8, 90112, Note_on_c, 6, 67, 96
8, 90624, Note_off_c, 6, 67, 0
8, 90624, Note_on_c, 6, 69, 96
8, 90624, Note_off_c, 6, 67, 0
8, 90624, Note_on_c, 6, 69, 96
8, 90880, Note_off_c, 6, 69, 0
8, 90880, Note_on_c, 6, 71, 96
8, 90880, Note_off_c, 6, 69, 0
8, 90880, Note_on_c, 6, 71, 96
8, 91136, Note_off_c, 6, 71, 0
8, 91136, Note_on_c, 6, 72, 96
8, 91136, Note_off_c, 6, 71, 0
8, 91136, Note_on_c, 6, 72, 96
8, 91648, Note_off_c, 6, 72, 0
8, 91648, Note_on_c, 6, 71, 96
8, 91648, Note_off_c, 6, 72, 0
8, 91648, Note_on_c, 6, 71, 96
8, 91904, Note_off_c, 6, 71, 0
8, 91904, Note_on_c, 6, 69, 96
8, 91904, Note_off_c, 6, 71, 0
8, 91904, Note_on_c, 6, 69, 96
8, 92160, Note_off_c, 6, 69, 0
8, 92160, Note_off_c, 6, 69, 0
8, 92160, Note_on_c, 6, 71, 96
8, 92160, Note_on_c, 6, 71, 96
8, 93184, Note_off_c, 6, 71, 0
8, 93184, Note_on_c, 6, 67, 96
8, 93184, Note_off_c, 6, 71, 0
8, 93184, Note_on_c, 6, 67, 96
8, 94208, Note_off_c, 6, 67, 0
8, 94208, Note_on_c, 6, 67, 96
8, 94208, Note_off_c, 6, 67, 0
8, 94208, Note_on_c, 6, 67, 96
8, 95232, Note_off_c, 6, 67, 0
8, 95232, Note_off_c, 6, 67, 0
8, 95232, Note_on_c, 6, 67, 96
8, 95232, Note_on_c, 6, 67, 96
8, 96256, Note_off_c, 6, 67, 0
8, 96256, Note_on_c, 6, 66, 96
8, 96256, Note_off_c, 6, 67, 0
8, 96256, Note_on_c, 6, 66, 96
8, 97280, Note_off_c, 6, 66, 0
8, 97280, Note_on_c, 6, 66, 96
8, 97280, Note_off_c, 6, 66, 0
8, 97280, Note_on_c, 6, 66, 96
8, 98304, Note_off_c, 6, 66, 0
8, 98304, Note_off_c, 6, 66, 0
8, 98304, Note_on_c, 6, 67, 96
8, 98304, Note_on_c, 6, 67, 96
8, 99328, Note_off_c, 6, 67, 0
8, 99328, Note_off_c, 6, 67, 0
8, 101888, Note_on_c, 6, 74, 96
8, 101888, Note_on_c, 6, 65, 96
8, 102144, Note_off_c, 6, 74, 0
8, 102144, Note_on_c, 6, 76, 96
8, 102144, Note_off_c, 6, 65, 0
8, 102144, Note_on_c, 6, 67, 96
8, 102400, Note_off_c, 6, 76, 0
8, 102400, Note_on_c, 6, 77, 96
8, 102400, Note_off_c, 6, 67, 0
8, 102400, Note_on_c, 6, 69, 96
8, 102912, Note_off_c, 6, 77, 0
8, 102912, Note_on_c, 6, 77, 96
8, 102912, Note_off_c, 6, 69, 0
8, 102912, Note_on_c, 6, 71, 96
8, 103168, Note_off_c, 6, 77, 0
8, 103168, Note_on_c, 6, 76, 96
8, 103168, Note_off_c, 6, 71, 0
8, 103168, Note_on_c, 6, 72, 96
8, 103424, Note_off_c, 6, 76, 0
8, 103424, Note_on_c, 6, 78, 96
8, 103424, Note_off_c, 6, 72, 0
8, 103424, Note_on_c, 6, 74, 96
8, 103936, Note_off_c, 6, 78, 0
8, 103936, Note_on_c, 6, 81, 96
8, 103936, Note_off_c, 6, 74, 0
8, 103936, Note_on_c, 6, 72, 96
8, 104192, Note_off_c, 6, 81, 0
8, 104192, Note_on_c, 6, 80, 96
8, 104192, Note_off_c, 6, 72, 0
8, 104192, Note_on_c, 6, 71, 96
8, 104448, Note_off_c, 6, 80, 0
8, 104448, Note_off_c, 6, 71, 0
8, 104448, Note_on_c, 6, 81, 96
8, 104448, Note_on_c, 6, 72, 96
8, 104960, Note_off_c, 6, 81, 0
8, 104960, Note_on_c, 6, 72, 96
8, 104960, Note_off_c, 6, 72, 0
8, 104960, Note_on_c, 6, 69, 96
8, 105216, Note_off_c, 6, 72, 0
8, 105216, Note_on_c, 6, 74, 96
8, 105216, Note_off_c, 6, 69, 0
8, 105216, Note_on_c, 6, 71, 96
8, 105472, Note_off_c, 6, 74, 0
8, 105472, Note_on_c, 6, 76, 96
8, 105472, Note_off_c, 6, 71, 0
8, 105472, Note_on_c, 6, 72, 96
8, 105984, Note_off_c, 6, 76, 0
8, 105984, Note_on_c, 6, 78, 96
8, 105984, Note_off_c, 6, 72, 0
8, 105984, Note_on_c, 6, 72, 96
8, 106240, Note_off_c, 6, 78, 0
8, 106240, Note_on_c, 6, 79, 96
8, 106240, Note_off_c, 6, 72, 0
8, 106240, Note_on_c, 6, 71, 96
8, 106496, Note_off_c, 6, 79, 0
8, 106496, Note_on_c, 6, 81, 96
8, 106496, Note_off_c, 6, 71, 0
8, 106496, Note_on_c, 6, 73, 96
8, 107008, Note_off_c, 6, 81, 0
8, 107008, Note_on_c, 6, 79, 96
8, 107008, Note_off_c, 6, 73, 0
8, 107008, Note_on_c, 6, 76, 96
8, 107264, Note_off_c, 6, 79, 0
8, 107264, Note_on_c, 6, 78, 96
8, 107264, Note_off_c, 6, 76, 0
8, 107264, Note_on_c, 6, 75, 96
8, 107520, Note_off_c, 6, 78, 0
8, 107520, Note_off_c, 6, 75, 0
8, 107520, Note_on_c, 6, 79, 96
8, 107520, Note_on_c, 6, 76, 96
8, 107776, Note_off_c, 6, 76, 0
8, 107776, Note_on_c, 6, 75, 96
8, 108032, Note_off_c, 6, 79, 0
8, 108032, Note_on_c, 6, 79, 96
8, 108032, Note_off_c, 6, 75, 0
8, 108032, Note_on_c, 6, 76, 96
8, 108288, Note_off_c, 6, 76, 0
8, 108288, Note_on_c, 6, 71, 96
8, 108544, Note_off_c, 6, 79, 0
8, 108544, Note_on_c, 6, 79, 96
8, 108544, Note_off_c, 6, 71, 0
8, 108544, Note_on_c, 6, 71, 96
8, 108800, Note_off_c, 6, 71, 0
8, 108800, Note_on_c, 6, 69, 96
8, 109056, Note_off_c, 6, 79, 0
8, 109056, Note_on_c, 6, 79, 96
8, 109056, Note_off_c, 6, 69, 0
8, 109056, Note_on_c, 6, 71, 96
8, 109312, Note_off_c, 6, 71, 0
8, 109312, Note_on_c, 6, 67, 96
8, 109568, Note_off_c, 6, 79, 0
8, 109568, Note_on_c, 6, 79, 96
8, 109568, Note_off_c, 6, 67, 0
8, 109568, Note_on_c, 6, 67, 96
8, 109824, Note_off_c, 6, 67, 0
8, 109824, Note_on_c, 6, 66, 96
8, 110080, Note_off_c, 6, 79, 0
8, 110080, Note_on_c, 6, 79, 96
8, 110080, Note_off_c, 6, 66, 0
8, 110080, Note_on_c, 6, 67, 96
8, 110336, Note_off_c, 6, 67, 0
8, 110336, Note_on_c, 6, 64, 96
8, 110592, Note_off_c, 6, 79, 0
8, 110592, Note_off_c, 6, 64, 0
8, 110592, Note_on_c, 6, 79, 96
8, 110592, Note_on_c, 6, 73, 96
8, 110848, Note_off_c, 6, 79, 0
8, 110848, Note_on_c, 6, 77, 96
8, 111104, Note_off_c, 6, 77, 0
8, 111104, Note_on_c, 6, 79, 96
8, 111104, Note_off_c, 6, 73, 0
8, 111104, Note_on_c, 6, 73, 96
8, 111360, Note_off_c, 6, 79, 0
8, 111360, Note_on_c, 6, 76, 96
8, 111616, Note_off_c, 6, 76, 0
8, 111616, Note_on_c, 6, 76, 96
8, 111616, Note_off_c, 6, 73, 0
8, 111616, Note_on_c, 6, 73, 96
8, 111872, Note_off_c, 6, 76, 0
8, 111872, Note_on_c, 6, 74, 96
8, 112128, Note_off_c, 6, 74, 0
8, 112128, Note_on_c, 6, 76, 96
8, 112128, Note_off_c, 6, 73, 0
8, 112128, Note_on_c, 6, 73, 96
8, 112384, Note_off_c, 6, 76, 0
8, 112384, Note_on_c, 6, 73, 96
8, 112640, Note_off_c, 6, 73, 0
8, 112640, Note_on_c, 6, 73, 96
8, 112640, Note_off_c, 6, 73, 0
8, 112640, Note_on_c, 6, 73, 96
8, 112896, Note_off_c, 6, 73, 0
8, 112896, Note_on_c, 6, 71, 96
8, 113152, Note_off_c, 6, 71, 0
8, 113152, Note_on_c, 6, 73, 96
8, 113152, Note_off_c, 6, 73, 0
8, 113152, Note_on_c, 6, 73, 96
8, 113408, Note_off_c, 6, 73, 0
8, 113408, Note_on_c, 6, 69, 96
8, 113664, Note_off_c, 6, 69, 0
8, 113664, Note_off_c, 6, 73, 0
8, 113664, Note_on_c, 6, 77, 96
8, 113664, Note_on_c, 6, 74, 96
8, 113920, Note_off_c, 6, 74, 0
8, 113920, Note_on_c, 6, 73, 96
8, 114176, Note_off_c, 6, 77, 0
8, 114176, Note_on_c, 6, 77, 96
8, 114176, Note_off_c, 6, 73, 0
8, 114176, Note_on_c, 6, 74, 96
8, 114432, Note_off_c, 6, 74, 0
8, 114432, Note_on_c, 6, 69, 96
8, 114688, Note_off_c, 6, 77, 0
8, 114688, Note_on_c, 6, 77, 96
8, 114688, Note_off_c, 6, 69, 0
8, 114688, Note_on_c, 6, 69, 96
8, 114944, Note_off_c, 6, 69, 0
8, 114944, Note_on_c, 6, 67, 96
8, 115200, Note_off_c, 6, 77, 0
8, 115200, Note_on_c, 6, 77, 96
8, 115200, Note_off_c, 6, 67, 0
8, 115200, Note_on_c, 6, 69, 96
8, 115456, Note_off_c, 6, 69, 0
8, 115456, Note_on_c, 6, 65, 96
8, 115712, Note_off_c, 6, 77, 0
8, 115712, Note_on_c, 6, 77, 96
8, 115712, Note_off_c, 6, 65, 0
8, 115712, Note_on_c, 6, 65, 96
8, 115968, Note_off_c, 6, 65, 0
8, 115968, Note_on_c, 6, 64, 96
8, 116224, Note_off_c, 6, 77, 0
8, 116224, Note_on_c, 6, 77, 96
8, 116224, Note_off_c, 6, 64, 0
8, 116224, Note_on_c, 6, 65, 96
8, 116480, Note_off_c, 6, 65, 0
8, 116480, Note_on_c, 6, 62, 96
8, 116736, Note_off_c, 6, 77, 0
8, 116736, Note_off_c, 6, 62, 0
8, 116736, Note_on_c, 6, 77, 96
8, 116736, Note_on_c, 6, 71, 96
8, 116992, Note_off_c, 6, 77, 0
8, 116992, Note_on_c, 6, 76, 96
8, 117248, Note_off_c, 6, 76, 0
8, 117248, Note_on_c, 6, 77, 96
8, 117248, Note_off_c, 6, 71, 0
8, 117248, Note_on_c, 6, 71, 96
8, 117504, Note_off_c, 6, 77, 0
8, 117504, Note_on_c, 6, 74, 96
8, 117760, Note_off_c, 6, 74, 0
8, 117760, Note_on_c, 6, 74, 96
8, 117760, Note_off_c, 6, 71, 0
8, 117760, Note_on_c, 6, 71, 96
8, 118016, Note_off_c, 6, 74, 0
8, 118016, Note_on_c, 6, 72, 96
8, 118272, Note_off_c, 6, 72, 0
8, 118272, Note_on_c, 6, 74, 96
8, 118272, Note_off_c, 6, 71, 0
8, 118272, Note_on_c, 6, 71, 96
8, 118528, Note_off_c, 6, 74, 0
8, 118528, Note_on_c, 6, 71, 96
8, 118784, Note_off_c, 6, 71, 0
8, 118784, Note_on_c, 6, 71, 96
8, 118784, Note_off_c, 6, 71, 0
8, 118784, Note_on_c, 6, 71, 96
8, 119040, Note_off_c, 6, 71, 0
8, 119040, Note_on_c, 6, 69, 96
8, 119296, Note_off_c, 6, 69, 0
8, 119296, Note_on_c, 6, 71, 96
8, 119296, Note_off_c, 6, 71, 0
8, 119296, Note_on_c, 6, 71, 96
8, 119552, Note_off_c, 6, 71, 0
8, 119552, Note_on_c, 6, 67, 96
8, 119808, Note_off_c, 6, 67, 0
8, 119808, Note_off_c, 6, 71, 0
8, 119808, Note_on_c, 6, 76, 96
8, 119808, Note_on_c, 6, 72, 96
8, 120832, Note_off_c, 6, 76, 0
8, 120832, Note_off_c, 6, 72, 0
8, 121344, Note_on_c, 6, 72, 96
8, 121344, Note_on_c, 6, 69, 96
8, 121600, Note_off_c, 6, 72, 0
8, 121600, Note_on_c, 6, 74, 96
8, 121600, Note_off_c, 6, 69, 0
8, 121600, Note_on_c, 6, 71, 96
8, 121856, Note_off_c, 6, 74, 0
8, 121856, Note_on_c, 6, 76, 96
8, 121856, Note_off_c, 6, 71, 0
8, 121856, Note_on_c, 6, 72, 96
8, 122368, Note_off_c, 6, 76, 0
8, 122368, Note_on_c, 6, 77, 96
8, 122368, Note_off_c, 6, 72, 0
8, 122368, Note_on_c, 6, 74, 96
8, 122624, Note_off_c, 6, 77, 0
8, 122624, Note_on_c, 6, 79, 96
8, 122624, Note_off_c, 6, 74, 0
8, 122624, Note_on_c, 6, 76, 96
8, 122880, Note_off_c, 6, 79, 0
8, 122880, Note_off_c, 6, 76, 0
8, 122880, Note_on_c, 6, 81, 96
8, 122880, Note_on_c, 6, 77, 96
8, 123392, Note_off_c, 6, 81, 0
8, 123392, Note_off_c, 6, 77, 0
8, 124416, Note_on_c, 6, 74, 96
8, 124416, Note_on_c, 6, 74, 96
8, 124672, Note_off_c, 6, 74, 0
8, 124672, Note_on_c, 6, 76, 96
8, 124672, Note_off_c, 6, 74, 0
8, 124672, Note_on_c, 6, 76, 96
8, 124928, Note_off_c, 6, 76, 0
8, 124928, Note_on_c, 6, 74, 96
8, 124928, Note_off_c, 6, 76, 0
8, 124928, Note_on_c, 6, 74, 96
8, 125184, Note_off_c, 6, 74, 0
8, 125184, Note_on_c, 6, 72, 96
8, 125184, Note_off_c, 6, 74, 0
8, 125184, Note_on_c, 6, 72, 96
8, 125440, Note_off_c, 6, 72, 0
8, 125440, Note_on_c, 6, 71, 96
8, 125440, Note_off_c, 6, 72, 0
8, 125440, Note_on_c, 6, 71, 96
8, 125696, Note_off_c, 6, 71, 0
8, 125696, Note_on_c, 6, 69, 96
8, 125696, Note_off_c, 6, 71, 0
8, 125696, Note_on_c, 6, 69, 96
8, 125952, Note_off_c, 6, 69, 0
8, 125952, Note_off_c, 6, 69, 0
8, 125952, Note_on_c, 6, 67, 96
8, 125952, Note_on_c, 6, 67, 96
8, 126464, Note_off_c, 6, 67, 0
8, 126464, Note_on_c, 6, 76, 96
8, 126464, Note_off_c, 6, 67, 0
8, 126464, Note_on_c, 6, 72, 96
8, 126720, Note_off_c, 6, 76, 0
8, 126720, Note_on_c, 6, 77, 96
8, 126720, Note_off_c, 6, 72, 0
8, 126720, Note_on_c, 6, 74, 96
8, 126976, Note_off_c, 6, 77, 0
8, 126976, Note_on_c, 6, 79, 96
8, 126976, Note_off_c, 6, 74, 0
8, 126976, Note_on_c, 6, 76, 96
8, 127488, Note_off_c, 6, 79, 0
8, 127488, Note_on_c, 6, 79, 96
8, 127488, Note_off_c, 6, 76, 0
8, 127488, Note_on_c, 6, 76, 96
8, 127744, Note_off_c, 6, 79, 0
8, 127744, Note_on_c, 6, 81, 96
8, 127744, Note_off_c, 6, 76, 0
8, 127744, Note_on_c, 6, 77, 96
8, 128000, Note_off_c, 6, 81, 0
8, 128000, Note_on_c, 6, 82, 96
8, 128000, Note_off_c, 6, 77, 0
8, 128000, Note_on_c, 6, 79, 96
8, 128512, Note_off_c, 6, 82, 0
8, 128512, Note_on_c, 6, 81, 96
8, 128512, Note_off_c, 6, 79, 0
8, 128512, Note_on_c, 6, 77, 96
8, 128768, Note_off_c, 6, 81, 0
8, 128768, Note_on_c, 6, 79, 96
8, 128768, Note_off_c, 6, 77, 0
8, 128768, Note_on_c, 6, 76, 96
8, 129024, Note_off_c, 6, 79, 0
8, 129024, Note_off_c, 6, 76, 0
8, 129024, Note_on_c, 6, 81, 96
8, 129024, Note_on_c, 6, 77, 96
8, 129536, Note_off_c, 6, 81, 0
8, 129536, Note_on_c, 6, 79, 96
8, 129536, Note_off_c, 6, 77, 0
8, 129536, Note_on_c, 6, 74, 96
8, 129792, Note_off_c, 6, 79, 0
8, 129792, Note_on_c, 6, 77, 96
8, 130048, Note_off_c, 6, 77, 0
8, 130048, Note_on_c, 6, 76, 96
8, 130048, Note_off_c, 6, 74, 0
8, 130048, Note_on_c, 6, 67, 96
8, 130560, Note_off_c, 6, 76, 0
8, 130560, Note_on_c, 6, 79, 96
8, 130560, Note_off_c, 6, 67, 0
8, 130560, Note_on_c, 6, 72, 96
8, 131072, Note_off_c, 6, 79, 0
8, 131072, Note_on_c, 6, 77, 96
8, 131072, Note_off_c, 6, 72, 0
8, 131072, Note_on_c, 6, 72, 96
8, 131328, Note_off_c, 6, 77, 0
8, 131328, Note_on_c, 6, 76, 96
8, 131584, Note_off_c, 6, 76, 0
8, 131584, Note_on_c, 6, 74, 96
8, 131584, Note_off_c, 6, 72, 0
8, 131584, Note_on_c, 6, 71, 96
8, 131840, Note_off_c, 6, 74, 0
8, 131840, Note_on_c, 6, 76, 96
8, 132096, Note_off_c, 6, 76, 0
8, 132096, Note_off_c, 6, 71, 0
8, 132096, Note_on_c, 6, 72, 96
8, 132096, Note_on_c, 6, 72, 96
8, 132352, Note_off_c, 6, 72, 0
8, 132352, Note_on_c, 6, 71, 96
8, 132608, Note_off_c, 6, 72, 0
8, 132608, Note_on_c, 6, 76, 96
8, 132608, Note_off_c, 6, 71, 0
8, 132608, Note_on_c, 6, 72, 96
8, 132864, Note_off_c, 6, 76, 0
8, 132864, Note_on_c, 6, 74, 96
8, 132864, Note_off_c, 6, 72, 0
8, 132864, Note_on_c, 6, 67, 96
8, 133120, Note_off_c, 6, 74, 0
8, 133120, Note_on_c, 6, 72, 96
8, 133120, Note_off_c, 6, 67, 0
8, 133120, Note_on_c, 6, 72, 96
8, 133376, Note_off_c, 6, 72, 0
8, 133376, Note_on_c, 6, 71, 96
8, 133632, Note_off_c, 6, 72, 0
8, 133632, Note_on_c, 6, 77, 96
8, 133632, Note_off_c, 6, 71, 0
8, 133632, Note_on_c, 6, 72, 96
8, 133888, Note_off_c, 6, 72, 0
8, 133888, Note_on_c, 6, 69, 96
8, 134144, Note_off_c, 6, 69, 0
8, 134144, Note_on_c, 6, 72, 96
8, 134400, Note_off_c, 6, 72, 0
8, 134400, Note_on_c, 6, 71, 96
8, 134656, Note_off_c, 6, 77, 0
8, 134656, Note_on_c, 6, 76, 96
8, 134656, Note_off_c, 6, 71, 0
8, 134656, Note_on_c, 6, 72, 96
8, 134912, Note_off_c, 6, 72, 0
8, 134912, Note_on_c, 6, 69, 96
8, 135168, Note_off_c, 6, 76, 0
8, 135168, Note_off_c, 6, 69, 0
8, 135168, Note_on_c, 6, 74, 96
8, 135168, Note_on_c, 6, 69, 96
8, 135424, Note_off_c, 6, 69, 0
8, 135424, Note_on_c, 6, 67, 96
8, 135680, Note_off_c, 6, 74, 0
8, 135680, Note_on_c, 6, 74, 96
8, 135680, Note_off_c, 6, 67, 0
8, 135680, Note_on_c, 6, 69, 96
8, 135936, Note_off_c, 6, 74, 0
8, 135936, Note_on_c, 6, 72, 96
8, 135936, Note_off_c, 6, 69, 0
8, 135936, Note_on_c, 6, 65, 96
8, 136192, Note_off_c, 6, 72, 0
8, 136192, Note_on_c, 6, 74, 96
8, 136192, Note_off_c, 6, 65, 0
8, 136192, Note_on_c, 6, 71, 96
8, 136448, Note_off_c, 6, 71, 0
8, 136448, Note_on_c, 6, 69, 96
8, 136704, Note_off_c, 6, 74, 0
8, 136704, Note_on_c, 6, 77, 96
8, 136704, Note_off_c, 6, 69, 0
8, 136704, Note_on_c, 6, 71, 96
8, 136960, Note_off_c, 6, 71, 0
8, 136960, Note_on_c, 6, 67, 96
8, 137216, Note_off_c, 6, 67, 0
8, 137216, Note_on_c, 6, 74, 96
8, 137472, Note_off_c, 6, 74, 0
8, 137472, Note_on_c, 6, 72, 96
8, 137728, Note_off_c, 6, 77, 0
8, 137728, Note_on_c, 6, 74, 96
8, 137728, Note_off_c, 6, 72, 0
8, 137728, Note_on_c, 6, 74, 96
8, 137984, Note_off_c, 6, 74, 0
8, 137984, Note_on_c, 6, 71, 96
8, 138240, Note_off_c, 6, 74, 0
8, 138240, Note_off_c, 6, 71, 0
8, 138240, Note_on_c, 6, 72, 96
8, 138240, Note_on_c, 6, 76, 96
8, 138752, Note_off_c, 6, 72, 0
8, 138752, Note_on_c, 6, 71, 96
8, 138752, Note_off_c, 6, 76, 0
8, 139008, Note_off_c, 6, 71, 0
8, 139008, Note_on_c, 6, 69, 96
8, 139264, Note_off_c, 6, 69, 0
8, 139264, Note_on_c, 6, 67, 96
8, 139264, Note_on_c, 6, 67, 96
8, 140288, Note_off_c, 6, 67, 0
8, 140288, Note_on_c, 6, 67, 96
8, 140288, Note_off_c, 6, 67, 0
8, 140288, Note_on_c, 6, 67, 96
8, 141312, Note_off_c, 6, 67, 0
8, 141312, Note_off_c, 6, 67, 0
8, 141312, Note_on_c, 6, 67, 96
8, 141312, Note_on_c, 6, 67, 96
8, 142336, Note_off_c, 6, 67, 0
8, 142336, Note_on_c, 6, 66, 96
8, 142336, Note_off_c, 6, 67, 0
8, 142336, Note_on_c, 6, 66, 96
8, 143360, Note_off_c, 6, 66, 0
8, 143360, Note_on_c, 6, 66, 96
8, 143360, Note_off_c, 6, 66, 0
8, 143360, Note_on_c, 6, 66, 96
8, 144384, Note_off_c, 6, 66, 0
8, 144384, Note_off_c, 6, 66, 0
8, 144384, Note_on_c, 6, 67, 96
8, 144384, Note_on_c, 6, 67, 96
8, 145408, Note_off_c, 6, 67, 0
8, 145408, Note_off_c, 6, 67, 0
8, 150528, Note_on_c, 6, 72, 96
8, 150528, Note_on_c, 6, 72, 96
8, 151552, Note_off_c, 6, 72, 0
8, 151552, Note_on_c, 6, 72, 96
8, 151552, Note_off_c, 6, 72, 0
8, 151552, Note_on_c, 6, 72, 96
8, 152576, Note_off_c, 6, 72, 0
8, 152576, Note_on_c, 6, 79, 96
8, 152576, Note_off_c, 6, 72, 0
8, 152576, Note_on_c, 6, 79, 96
8, 153600, Note_off_c, 6, 79, 0
8, 153600, Note_off_c, 6, 79, 0
8, 153600, Note_on_c, 6, 76, 96
8, 153600, Note_on_c, 6, 76, 96
8, 155136, Note_off_c, 6, 76, 0
8, 155136, Note_on_c, 6, 74, 96
8, 155136, Note_off_c, 6, 76, 0
8, 155136, Note_on_c, 6, 74, 96
8, 155648, Note_off_c, 6, 74, 0
8, 155648, Note_on_c, 6, 72, 96
8, 155648, Note_off_c, 6, 74, 0
8, 155648, Note_on_c, 6, 72, 96
8, 156672, Note_off_c, 6, 72, 0
8, 156672, Note_off_c, 6, 72, 0
8, 156672, Note_on_c, 6, 71, 96
8, 156672, Note_on_c, 6, 71, 96
8, 158208, Note_off_c, 6, 71, 0
8, 158208, Note_on_c, 6, 69, 96
8, 158208, Note_off_c, 6, 71, 0
8, 158208, Note_on_c, 6, 69, 96
8, 158720, Note_off_c, 6, 69, 0
8, 158720, Note_on_c, 6, 67, 96
8, 158720, Note_off_c, 6, 69, 0
8, 158720, Note_on_c, 6, 67, 96
8, 159744, Note_off_c, 6, 67, 0
8, 159744, Note_off_c, 6, 67, 0
8, 159744, Note_on_c, 6, 72, 96
8, 159744, Note_on_c, 6, 72, 96
8, 160768, Note_off_c, 6, 72, 0
8, 160768, Note_on_c, 6, 74, 96
8, 160768, Note_off_c, 6, 72, 0
8, 160768, Note_on_c, 6, 74, 96
8, 161792, Note_off_c, 6, 74, 0
8, 161792, Note_on_c, 6, 76, 96
8, 161792, Note_off_c, 6, 74, 0
8, 161792, Note_on_c, 6, 76, 96
8, 162304, Note_off_c, 6, 76, 0
8, 162304, Note_on_c, 6, 77, 96
8, 162304, Note_off_c, 6, 76, 0
8, 162304, Note_on_c, 6, 77, 96
8, 162816, Note_off_c, 6, 77, 0
8, 162816, Note_off_c, 6, 77, 0
8, 162816, Note_on_c, 6, 74, 96
8, 162816, Note_on_c, 6, 74, 96
8, 165888, Note_off_c, 6, 74, 0
8, 165888, Note_off_c, 6, 74, 0
8, 165888, Note_on_c, 6, 72, 96
8, 165888, Note_on_c, 6, 72, 96
8, 166400, Note_off_c, 6, 72, 0
8, 166400, Note_on_c, 6, 76, 96
8, 166656, Note_off_c, 6, 76, 0
8, 166656, Note_on_c, 6, 77, 96
8, 166912, Note_off_c, 6, 77, 0
8, 166912, Note_on_c, 6, 79, 96
8, 166912, Note_off_c, 6, 72, 0
8, 167424, Note_off_c, 6, 79, 0
8, 167424, Note_on_c, 6, 81, 96
8, 167424, Note_on_c, 6, 65, 96
8, 167680, Note_off_c, 6, 81, 0
8, 167680, Note_on_c, 6, 83, 96
8, 167680, Note_off_c, 6, 65, 0
8, 167680, Note_on_c, 6, 67, 96
8, 167936, Note_off_c, 6, 83, 0
8, 167936, Note_on_c, 6, 84, 96
8, 167936, Note_off_c, 6, 67, 0
8, 167936, Note_on_c, 6, 69, 96
8, 168448, Note_off_c, 6, 84, 0
8, 168448, Note_off_c, 6, 69, 0
8, 168448, Note_on_c, 6, 71, 96
8, 168704, Note_off_c, 6, 71, 0
8, 168704, Note_on_c, 6, 72, 96
8, 168960, Note_off_c, 6, 72, 0
8, 168960, Note_on_c, 6, 74, 96
8, 169472, Note_on_c, 6, 83, 96
8, 169472, Note_off_c, 6, 74, 0
8, 169728, Note_off_c, 6, 83, 0
8, 169728, Note_on_c, 6, 81, 96
8, 169984, Note_off_c, 6, 81, 0
8, 169984, Note_on_c, 6, 79, 96
8, 170496, Note_off_c, 6, 79, 0
8, 170496, Note_on_c, 6, 77, 96
8, 170496, Note_on_c, 6, 74, 96
8, 170752, Note_off_c, 6, 77, 0
8, 170752, Note_on_c, 6, 76, 96
8, 170752, Note_off_c, 6, 74, 0
8, 170752, Note_on_c, 6, 72, 96
8, 171008, Note_off_c, 6, 76, 0
8, 171008, Note_on_c, 6, 74, 96
8, 171008, Note_off_c, 6, 72, 0
8, 171008, Note_on_c, 6, 71, 96
8, 171520, Note_off_c, 6, 74, 0
8, 171520, Note_on_c, 6, 72, 96
8, 171520, Note_off_c, 6, 71, 0
8, 171520, Note_on_c, 6, 69, 96
8, 171776, Note_off_c, 6, 72, 0
8, 171776, Note_on_c, 6, 71, 96
8, 171776, Note_off_c, 6, 69, 0
8, 171776, Note_on_c, 6, 67, 96
8, 172032, Note_off_c, 6, 71, 0
8, 172032, Note_off_c, 6, 67, 0
8, 172032, Note_on_c, 6, 76, 96
8, 172032, Note_on_c, 6, 79, 96
8, 172544, Note_off_c, 6, 76, 0
8, 172544, Note_on_c, 6, 79, 96
8, 172544, Note_off_c, 6, 79, 0
8, 172544, Note_on_c, 6, 64, 96
8, 172800, Note_off_c, 6, 64, 0
8, 172800, Note_on_c, 6, 65, 96
8, 173056, Note_off_c, 6, 65, 0
8, 173056, Note_on_c, 6, 67, 96
8, 173568, Note_off_c, 6, 79, 0
8, 173568, Note_on_c, 6, 76, 96
8, 173568, Note_off_c, 6, 67, 0
8, 173568, Note_on_c, 6, 67, 96
8, 173824, Note_off_c, 6, 67, 0
8, 173824, Note_on_c, 6, 69, 96
8, 174080, Note_off_c, 6, 69, 0
8, 174080, Note_on_c, 6, 71, 96
8, 174592, Note_off_c, 6, 76, 0
8, 174592, Note_on_c, 6, 72, 96
8, 174592, Note_off_c, 6, 71, 0
8, 174592, Note_on_c, 6, 72, 96
8, 174848, Note_off_c, 6, 72, 0
8, 174848, Note_on_c, 6, 71, 96
8, 175104, Note_off_c, 6, 71, 0
8, 175104, Note_on_c, 6, 69, 96
8, 175616, Note_off_c, 6, 72, 0
8, 175616, Note_on_c, 6, 69, 96
8, 175616, Note_off_c, 6, 69, 0
8, 175616, Note_on_c, 6, 72, 96
8, 175872, Note_off_c, 6, 69, 0
8, 175872, Note_on_c, 6, 71, 96
8, 176128, Note_off_c, 6, 71, 0
8, 176128, Note_on_c, 6, 72, 96
8, 176640, Note_off_c, 6, 72, 0
8, 176640, Note_on_c, 6, 72, 96
8, 176640, Note_off_c, 6, 72, 0
8, 176640, Note_on_c, 6, 69, 96
8, 176896, Note_off_c, 6, 72, 0
8, 176896, Note_on_c, 6, 74, 96
8, 177152, Note_off_c, 6, 74, 0
8, 177152, Note_on_c, 6, 76, 96
8, 177664, Note_off_c, 6, 76, 0
8, 177664, Note_on_c, 6, 77, 96
8, 177664, Note_off_c, 6, 69, 0
8, 177664, Note_on_c, 6, 65, 96
8, 177920, Note_off_c, 6, 77, 0
8, 177920, Note_on_c, 6, 76, 96
8, 178176, Note_off_c, 6, 76, 0
8, 178176, Note_on_c, 6, 74, 96
8, 178688, Note_off_c, 6, 74, 0
8, 178688, Note_on_c, 6, 77, 96
8, 178688, Note_off_c, 6, 65, 0
8, 178688, Note_on_c, 6, 62, 96
8, 178944, Note_off_c, 6, 62, 0
8, 178944, Note_on_c, 6, 64, 96
8, 179200, Note_off_c, 6, 64, 0
8, 179200, Note_on_c, 6, 65, 96
8, 179712, Note_off_c, 6, 77, 0
8, 179712, Note_on_c, 6, 74, 96
8, 179712, Note_off_c, 6, 65, 0
8, 179712, Note_on_c, 6, 65, 96
8, 179968, Note_off_c, 6, 65, 0
8, 179968, Note_on_c, 6, 67, 96
8, 180224, Note_off_c, 6, 67, 0
8, 180224, Note_on_c, 6, 69, 96
8, 180736, Note_off_c, 6, 74, 0
8, 180736, Note_on_c, 6, 71, 96
8, 180736, Note_off_c, 6, 69, 0
8, 180736, Note_on_c, 6, 71, 96
8, 180992, Note_off_c, 6, 71, 0
8, 180992, Note_on_c, 6, 69, 96
8, 181248, Note_off_c, 6, 69, 0
8, 181248, Note_on_c, 6, 68, 96
8, 181760, Note_off_c, 6, 71, 0
8, 181760, Note_on_c, 6, 68, 96
8, 181760, Note_off_c, 6, 68, 0
8, 181760, Note_on_c, 6, 71, 96
8, 182016, Note_off_c, 6, 68, 0
8, 182016, Note_on_c, 6, 69, 96
8, 182272, Note_off_c, 6, 69, 0
8, 182272, Note_on_c, 6, 71, 96
8, 182784, Note_off_c, 6, 71, 0
8, 182784, Note_on_c, 6, 71, 96
8, 182784, Note_off_c, 6, 71, 0
8, 182784, Note_on_c, 6, 68, 96
8, 183040, Note_off_c, 6, 71, 0
8, 183040, Note_on_c, 6, 72, 96
8, 183296, Note_off_c, 6, 72, 0
8, 183296, Note_on_c, 6, 74, 96
8, 183808, Note_off_c, 6, 74, 0
8, 183808, Note_on_c, 6, 76, 96
8, 183808, Note_off_c, 6, 68, 0
8, 183808, Note_on_c, 6, 64, 96
8, 184064, Note_off_c, 6, 76, 0
8, 184064, Note_on_c, 6, 74, 96
8, 184320, Note_off_c, 6, 74, 0
8, 184320, Note_on_c, 6, 72, 96
8, 184832, Note_off_c, 6, 72, 0
8, 184832, Note_on_c, 6, 84, 96
8, 184832, Note_off_c, 6, 64, 0
8, 184832, Note_on_c, 6, 81, 96
8, 185088, Note_off_c, 6, 81, 0
8, 185088, Note_on_c, 6, 76, 96
8, 185344, Note_off_c, 6, 84, 0
8, 185344, Note_on_c, 6, 84, 96
8, 185344, Note_off_c, 6, 76, 0
8, 185344, Note_on_c, 6, 76, 96
8, 185600, Note_off_c, 6, 76, 0
8, 185600, Note_on_c, 6, 74, 96
8, 185856, Note_off_c, 6, 84, 0
8, 185856, Note_on_c, 6, 84, 96
8, 185856, Note_off_c, 6, 74, 0
8, 185856, Note_on_c, 6, 76, 96
8, 186112, Note_off_c, 6, 76, 0
8, 186112, Note_on_c, 6, 72, 96
8, 186368, Note_off_c, 6, 84, 0
8, 186368, Note_on_c, 6, 84, 96
8, 186368, Note_off_c, 6, 72, 0
8, 186368, Note_on_c, 6, 72, 96
8, 186624, Note_off_c, 6, 72, 0
8, 186624, Note_on_c, 6, 71, 96
8, 186880, Note_off_c, 6, 84, 0
8, 186880, Note_on_c, 6, 84, 96
8, 186880, Note_off_c, 6, 71, 0
8, 186880, Note_on_c, 6, 72, 96
8, 187136, Note_off_c, 6, 72, 0
8, 187136, Note_on_c, 6, 69, 96
8, 187392, Note_off_c, 6, 84, 0
8, 187392, Note_off_c, 6, 69, 0
8, 187392, Note_on_c, 6, 84, 96
8, 187392, Note_on_c, 6, 77, 96
8, 187648, Note_off_c, 6, 84, 0
8, 187648, Note_on_c, 6, 83, 96
8, 187904, Note_off_c, 6, 83, 0
8, 187904, Note_on_c, 6, 84, 96
8, 187904, Note_off_c, 6, 77, 0
8, 187904, Note_on_c, 6, 77, 96
8, 188160, Note_off_c, 6, 84, 0
8, 188160, Note_on_c, 6, 81, 96
8, 188416, Note_off_c, 6, 81, 0
8, 188416, Note_on_c, 6, 81, 96
8, 188416, Note_off_c, 6, 77, 0
8, 188416, Note_on_c, 6, 77, 96
8, 188672, Note_off_c, 6, 81, 0
8, 188672, Note_on_c, 6, 79, 96
8, 188928, Note_off_c, 6, 79, 0
8, 188928, Note_on_c, 6, 81, 96
8, 188928, Note_off_c, 6, 77, 0
8, 188928, Note_on_c, 6, 77, 96
8, 189184, Note_off_c, 6, 81, 0
8, 189184, Note_on_c, 6, 77, 96
8, 189440, Note_off_c, 6, 77, 0
8, 189440, Note_on_c, 6, 77, 96
8, 189440, Note_off_c, 6, 77, 0
8, 189440, Note_on_c, 6, 77, 96
8, 189696, Note_off_c, 6, 77, 0
8, 189696, Note_on_c, 6, 76, 96
8, 189952, Note_off_c, 6, 76, 0
8, 189952, Note_on_c, 6, 77, 96
8, 189952, Note_off_c, 6, 77, 0
8, 189952, Note_on_c, 6, 77, 96
8, 190208, Note_off_c, 6, 77, 0
8, 190208, Note_on_c, 6, 74, 96
8, 190464, Note_off_c, 6, 74, 0
8, 190464, Note_off_c, 6, 77, 0
8, 190464, Note_on_c, 6, 83, 96
8, 190464, Note_on_c, 6, 77, 96
8, 190720, Note_off_c, 6, 77, 0
8, 190720, Note_on_c, 6, 76, 96
8, 190976, Note_off_c, 6, 83, 0
8, 190976, Note_on_c, 6, 83, 96
8, 190976, Note_off_c, 6, 76, 0
8, 190976, Note_on_c, 6, 77, 96
8, 191232, Note_off_c, 6, 77, 0
8, 191232, Note_on_c, 6, 74, 96
8, 191488, Note_off_c, 6, 83, 0
8, 191488, Note_on_c, 6, 83, 96
8, 191488, Note_off_c, 6, 74, 0
8, 191488, Note_on_c, 6, 74, 96
8, 191744, Note_off_c, 6, 74, 0
8, 191744, Note_on_c, 6, 72, 96
8, 192000, Note_off_c, 6, 83, 0
8, 192000, Note_on_c, 6, 83, 96
8, 192000, Note_off_c, 6, 72, 0
8, 192000, Note_on_c, 6, 74, 96
8, 192256, Note_off_c, 6, 74, 0
8, 192256, Note_on_c, 6, 71, 96
8, 192512, Note_off_c, 6, 83, 0
8, 192512, Note_on_c, 6, 83, 96
8, 192512, Note_off_c, 6, 71, 0
8, 192512, Note_on_c, 6, 71, 96
8, 192768, Note_off_c, 6, 71, 0
8, 192768, Note_on_c, 6, 69, 96
8, 193024, Note_off_c, 6, 83, 0
8, 193024, Note_on_c, 6, 83, 96
8, 193024, Note_off_c, 6, 69, 0
8, 193024, Note_on_c, 6, 71, 96
8, 193280, Note_off_c, 6, 71, 0
8, 193280, Note_on_c, 6, 67, 96
8, 193536, Note_off_c, 6, 83, 0
8, 193536, Note_off_c, 6, 67, 0
8, 193536, Note_on_c, 6, 84, 96
8, 193536, Note_on_c, 6, 76, 96
8, 194048, Note_off_c, 6, 84, 0
8, 194048, Note_on_c, 6, 79, 96
8, 194048, Note_off_c, 6, 76, 0
8, 194048, Note_on_c, 6, 76, 96
8, 194560, Note_off_c, 6, 79, 0
8, 194560, Note_on_c, 6, 76, 96
8, 194560, Note_off_c, 6, 76, 0
8, 194560, Note_on_c, 6, 72, 96
8, 195072, Note_off_c, 6, 76, 0
8, 195072, Note_on_c, 6, 72, 96
8, 195072, Note_off_c, 6, 72, 0
8, 195072, Note_on_c, 6, 67, 96
8, 195584, Note_off_c, 6, 72, 0
8, 195584, Note_off_c, 6, 67, 0
8, 195840, Note_on_c, 6, 83, 96
8, 195840, Note_on_c, 6, 74, 96
8, 196096, Note_off_c, 6, 83, 0
8, 196096, Note_on_c, 6, 81, 96
8, 196096, Note_off_c, 6, 74, 0
8, 196096, Note_on_c, 6, 72, 96
8, 196352, Note_off_c, 6, 81, 0
8, 196352, Note_on_c, 6, 83, 96
8, 196352, Note_off_c, 6, 72, 0
8, 196352, Note_on_c, 6, 74, 96
8, 196608, Note_off_c, 6, 83, 0
8, 196608, Note_off_c, 6, 74, 0
8, 196608, Note_on_c, 6, 84, 96
8, 196608, Note_on_c, 6, 76, 96
8, 197120, Note_off_c, 6, 84, 0
8, 197120, Note_on_c, 6, 79, 96
8, 197120, Note_off_c, 6, 76, 0
8, 197120, Note_on_c, 6, 76, 96
8, 197632, Note_off_c, 6, 79, 0
8, 197632, Note_on_c, 6, 76, 96
8, 197632, Note_off_c, 6, 76, 0
8, 197632, Note_on_c, 6, 72, 96
8, 198144, Note_off_c, 6, 76, 0
8, 198144, Note_on_c, 6, 72, 96
8, 198144, Note_off_c, 6, 72, 0
8, 198144, Note_on_c, 6, 67, 96
8, 198656, Note_off_c, 6, 72, 0
8, 198656, Note_off_c, 6, 67, 0
8, 198912, Note_on_c, 6, 74, 96
8, 198912, Note_on_c, 6, 71, 96
8, 199168, Note_off_c, 6, 74, 0
8, 199168, Note_on_c, 6, 76, 96
8, 199168, Note_off_c, 6, 71, 0
8, 199168, Note_on_c, 6, 72, 96
8, 199424, Note_off_c, 6, 76, 0
8, 199424, Note_on_c, 6, 78, 96
8, 199424, Note_off_c, 6, 72, 0
8, 199424, Note_on_c, 6, 69, 96
8, 199680, Note_off_c, 6, 78, 0
8, 199680, Note_off_c, 6, 69, 0
8, 199680, Note_on_c, 6, 79, 96
8, 199680, Note_on_c, 6, 71, 96
8, 200192, Note_off_c, 6, 79, 0
8, 200192, Note_on_c, 6, 74, 96
8, 200192, Note_off_c, 6, 71, 0
8, 200192, Note_on_c, 6, 71, 96
8, 200704, Note_off_c, 6, 74, 0
8, 200704, Note_on_c, 6, 71, 96
8, 200704, Note_off_c, 6, 71, 0
8, 200704, Note_on_c, 6, 67, 96
8, 201216, Note_off_c, 6, 71, 0
8, 201216, Note_on_c, 6, 76, 96
8, 201216, Note_off_c, 6, 67, 0
8, 201216, Note_on_c, 6, 72, 96
8, 202240, Note_off_c, 6, 76, 0
8, 202240, Note_on_c, 6, 74, 96
8, 202240, Note_off_c, 6, 72, 0
8, 202240, Note_on_c, 6, 71, 96
8, 202752, Note_off_c, 6, 74, 0
8, 202752, Note_off_c, 6, 71, 0
8, 202752, Note_on_c, 6, 72, 96
8, 202752, Note_on_c, 6, 69, 96
8, 203264, Note_off_c, 6, 72, 0
8, 203264, Note_on_c, 6, 72, 96
8, 203264, Note_off_c, 6, 69, 0
8, 203264, Note_on_c, 6, 69, 96
8, 203520, Note_off_c, 6, 72, 0
8, 203520, Note_on_c, 6, 71, 96
8, 203520, Note_off_c, 6, 69, 0
8, 203520, Note_on_c, 6, 67, 96
8, 203776, Note_off_c, 6, 71, 0
8, 203776, Note_on_c, 6, 72, 96
8, 203776, Note_off_c, 6, 67, 0
8, 203776, Note_on_c, 6, 69, 96
8, 204288, Note_off_c, 6, 72, 0
8, 204288, Note_on_c, 6, 81, 96
8, 204288, Note_off_c, 6, 69, 0
8, 204288, Note_on_c, 6, 72, 96
8, 205312, Note_off_c, 6, 81, 0
8, 205312, Note_on_c, 6, 72, 96
8, 205312, Note_off_c, 6, 72, 0
8, 205312, Note_on_c, 6, 69, 96
8, 205824, Note_off_c, 6, 72, 0
8, 205824, Note_off_c, 6, 69, 0
8, 205824, Note_on_c, 6, 71, 96
8, 205824, Note_on_c, 6, 67, 96
8, 206848, Note_off_c, 6, 71, 0
8, 206848, Note_on_c, 6, 76, 96
8, 206848, Note_off_c, 6, 67, 0
8, 206848, Note_on_c, 6, 76, 96
8, 207872, Note_off_c, 6, 76, 0
8, 207872, Note_on_c, 6, 76, 96
8, 207872, Note_off_c, 6, 76, 0
8, 207872, Note_on_c, 6, 76, 96
8, 208896, Note_off_c, 6, 76, 0
8, 208896, Note_off_c, 6, 76, 0
8, 208896, Note_on_c, 6, 76, 96
8, 208896, Note_on_c, 6, 76, 96
8, 209920, Note_off_c, 6, 76, 0
8, 209920, Note_on_c, 6, 75, 96
8, 209920, Note_off_c, 6, 76, 0
8, 209920, Note_on_c, 6, 75, 96
8, 210944, Note_off_c, 6, 75, 0
8, 210944, Note_on_c, 6, 75, 96
8, 210944, Note_off_c, 6, 75, 0
8, 210944, Note_on_c, 6, 75, 96
8, 211968, Note_off_c, 6, 75, 0
8, 211968, Note_off_c, 6, 75, 0
8, 211968, Note_on_c, 6, 76, 96
8, 211968, Note_on_c, 6, 76, 96
8, 212480, Note_off_c, 6, 76, 0
8, 212480, Note_on_c, 6, 67, 96
8, 212480, Note_off_c, 6, 76, 0
8, 212480, Note_on_c, 6, 64, 96
8, 212736, Note_off_c, 6, 67, 0
8, 212736, Note_on_c, 6, 69, 96
8, 212736, Note_off_c, 6, 64, 0
8, 212736, Note_on_c, 6, 63, 96
8, 212992, Note_off_c, 6, 69, 0
8, 212992, Note_on_c, 6, 71, 96
8, 212992, Note_off_c, 6, 63, 0
8, 212992, Note_on_c, 6, 64, 96
8, 213504, Note_off_c, 6, 71, 0
8, 213504, Note_on_c, 6, 73, 96
8, 213504, Note_off_c, 6, 64, 0
8, 213504, Note_on_c, 6, 64, 96
8, 213760, Note_off_c, 6, 73, 0
8, 213760, Note_on_c, 6, 75, 96
8, 213760, Note_off_c, 6, 64, 0
8, 213760, Note_on_c, 6, 69, 96
8, 214016, Note_off_c, 6, 75, 0
8, 214016, Note_on_c, 6, 76, 96
8, 214016, Note_off_c, 6, 69, 0
8, 214016, Note_on_c, 6, 71, 96
8, 214528, Note_off_c, 6, 76, 0
8, 214528, Note_on_c, 6, 78, 96
8, 214528, Note_off_c, 6, 71, 0
8, 214528, Note_on_c, 6, 69, 96
8, 214784, Note_off_c, 6, 78, 0
8, 214784, Note_on_c, 6, 76, 96
8, 214784, Note_off_c, 6, 69, 0
8, 214784, Note_on_c, 6, 67, 96
8, 215040, Note_off_c, 6, 76, 0
8, 215040, Note_off_c, 6, 67, 0
8, 215040, Note_on_c, 6, 75, 96
8, 215040, Note_on_c, 6, 66, 96
8, 215552, Note_off_c, 6, 75, 0
8, 215552, Note_off_c, 6, 66, 0
8, 218624, Note_on_c, 6, 76, 96
8, 218624, Note_on_c, 6, 71, 96
8, 218880, Note_off_c, 6, 76, 0
8, 218880, Note_on_c, 6, 78, 96
8, 219136, Note_off_c, 6, 78, 0
8, 219136, Note_on_c, 6, 79, 96
8, 219136, Note_off_c, 6, 71, 0
8, 219136, Note_on_c, 6, 76, 96
8, 219648, Note_off_c, 6, 79, 0
8, 219648, Note_on_c, 6, 81, 96
8, 219648, Note_off_c, 6, 76, 0
8, 219648, Note_on_c, 6, 76, 96
8, 219904, Note_off_c, 6, 81, 0
8, 219904, Note_on_c, 6, 79, 96
8, 220160, Note_off_c, 6, 79, 0
8, 220160, Note_on_c, 6, 78, 96
8, 220160, Note_off_c, 6, 76, 0
8, 220160, Note_on_c, 6, 81, 96
8, 220416, Note_off_c, 6, 78, 0
8, 220416, Note_on_c, 6, 76, 96
8, 220672, Note_off_c, 6, 76, 0
8, 220672, Note_on_c, 6, 75, 96
8, 220672, Note_off_c, 6, 81, 0
8, 220672, Note_on_c, 6, 81, 96
8, 220928, Note_off_c, 6, 75, 0
8, 220928, Note_on_c, 6, 76, 96
8, 221184, Note_off_c, 6, 76, 0
8, 221184, Note_off_c, 6, 81, 0
8, 221184, Note_on_c, 6, 71, 96
8, 221184, Note_on_c, 6, 78, 96
8, 221696, Note_off_c, 6, 71, 0
8, 221696, Note_on_c, 6, 78, 96
8, 221696, Note_off_c, 6, 78, 0
8, 221696, Note_on_c, 6, 62, 96
8, 221952, Note_off_c, 6, 62, 0
8, 221952, Note_on_c, 6, 64, 96
8, 222208, Note_off_c, 6, 64, 0
8, 222208, Note_on_c, 6, 66, 96
8, 222720, Note_off_c, 6, 78, 0
8, 222720, Note_on_c, 6, 74, 96
8, 222720, Note_off_c, 6, 66, 0
8, 222720, Note_on_c, 6, 66, 96
8, 222976, Note_off_c, 6, 66, 0
8, 222976, Note_on_c, 6, 68, 96
8, 223232, Note_off_c, 6, 68, 0
8, 223232, Note_on_c, 6, 69, 96
8, 223744, Note_off_c, 6, 74, 0
8, 223744, Note_on_c, 6, 71, 96
8, 223744, Note_off_c, 6, 69, 0
8, 223744, Note_on_c, 6, 71, 96
8, 224000, Note_off_c, 6, 71, 0
8, 224000, Note_on_c, 6, 69, 96
8, 224256, Note_off_c, 6, 69, 0
8, 224256, Note_on_c, 6, 68, 96
8, 224768, Note_off_c, 6, 71, 0
8, 224768, Note_on_c, 6, 68, 96
8, 224768, Note_off_c, 6, 68, 0
8, 224768, Note_on_c, 6, 71, 96
8, 225024, Note_off_c, 6, 68, 0
8, 225024, Note_on_c, 6, 69, 96
8, 225280, Note_off_c, 6, 69, 0
8, 225280, Note_on_c, 6, 71, 96
8, 225792, Note_off_c, 6, 71, 0
8, 225792, Note_on_c, 6, 71, 96
8, 225792, Note_off_c, 6, 71, 0
8, 225792, Note_on_c, 6, 68, 96
8, 226048, Note_off_c, 6, 71, 0
8, 226048, Note_on_c, 6, 72, 96
8, 226304, Note_off_c, 6, 72, 0
8, 226304, Note_on_c, 6, 74, 96
8, 226816, Note_off_c, 6, 74, 0
8, 226816, Note_on_c, 6, 76, 96
8, 226816, Note_off_c, 6, 68, 0
8, 226816, Note_on_c, 6, 64, 96
8, 227072, Note_off_c, 6, 76, 0
8, 227072, Note_on_c, 6, 74, 96
8, 227328, Note_off_c, 6, 74, 0
8, 227328, Note_on_c, 6, 72, 96
8, 227840, Note_off_c, 6, 72, 0
8, 227840, Note_on_c, 6, 76, 96
8, 227840, Note_off_c, 6, 64, 0
8, 227840, Note_on_c, 6, 60, 96
8, 228096, Note_off_c, 6, 60, 0
8, 228096, Note_on_c, 6, 62, 96
8, 228352, Note_off_c, 6, 62, 0
8, 228352, Note_on_c, 6, 64, 96
8, 228864, Note_off_c, 6, 76, 0
8, 228864, Note_on_c, 6, 72, 96
8, 228864, Note_off_c, 6, 64, 0
8, 228864, Note_on_c, 6, 64, 96
8, 229120, Note_off_c, 6, 64, 0
8, 229120, Note_on_c, 6, 66, 96
8, 229376, Note_off_c, 6, 66, 0
8, 229376, Note_on_c, 6, 67, 96
8, 229888, Note_off_c, 6, 72, 0
8, 229888, Note_on_c, 6, 69, 96
8, 229888, Note_off_c, 6, 67, 0
8, 229888, Note_on_c, 6, 69, 96
8, 230144, Note_off_c, 6, 69, 0
8, 230144, Note_on_c, 6, 67, 96
8, 230400, Note_off_c, 6, 67, 0
8, 230400, Note_on_c, 6, 66, 96
8, 230912, Note_off_c, 6, 69, 0
8, 230912, Note_on_c, 6, 66, 96
8, 230912, Note_off_c, 6, 66, 0
8, 230912, Note_on_c, 6, 69, 96
8, 231168, Note_off_c, 6, 66, 0
8, 231168, Note_on_c, 6, 67, 96
8, 231424, Note_off_c, 6, 67, 0
8, 231424, Note_on_c, 6, 69, 96
8, 231936, Note_off_c, 6, 69, 0
8, 231936, Note_on_c, 6, 69, 96
8, 231936, Note_off_c, 6, 69, 0
8, 231936, Note_on_c, 6, 66, 96
8, 232192, Note_off_c, 6, 69, 0
8, 232192, Note_on_c, 6, 71, 96
8, 232448, Note_off_c, 6, 71, 0
8, 232448, Note_on_c, 6, 72, 96
8, 232960, Note_off_c, 6, 72, 0
8, 232960, Note_on_c, 6, 74, 96
8, 232960, Note_off_c, 6, 66, 0
8, 232960, Note_on_c, 6, 62, 96
8, 233216, Note_off_c, 6, 74, 0
8, 233216, Note_on_c, 6, 72, 96
8, 233472, Note_off_c, 6, 72, 0
8, 233472, Note_on_c, 6, 71, 96
8, 233984, Note_off_c, 6, 71, 0
8, 233984, Note_on_c, 6, 67, 96
8, 233984, Note_off_c, 6, 62, 0
8, 233984, Note_on_c, 6, 62, 96
8, 234240, Note_off_c, 6, 67, 0
8, 234240, Note_on_c, 6, 69, 96
8, 234240, Note_off_c, 6, 62, 0
8, 234240, Note_on_c, 6, 60, 96
8, 234496, Note_off_c, 6, 69, 0
8, 234496, Note_on_c, 6, 71, 96
8, 234496, Note_off_c, 6, 60, 0
8, 234496, Note_on_c, 6, 62, 96
8, 235008, Note_off_c, 6, 71, 0
8, 235008, Note_on_c, 6, 72, 96
8, 235008, Note_off_c, 6, 62, 0
8, 235008, Note_on_c, 6, 64, 96
8, 235264, Note_off_c, 6, 72, 0
8, 235264, Note_on_c, 6, 74, 96
8, 235264, Note_off_c, 6, 64, 0
8, 235264, Note_on_c, 6, 66, 96
8, 235520, Note_off_c, 6, 74, 0
8, 235520, Note_on_c, 6, 76, 96
8, 235520, Note_off_c, 6, 66, 0
8, 235520, Note_on_c, 6, 67, 96
8, 236032, Note_off_c, 6, 76, 0
8, 236032, Note_off_c, 6, 67, 0
8, 237056, Note_on_c, 6, 69, 96
8, 237056, Note_on_c, 6, 69, 96
8, 237312, Note_off_c, 6, 69, 0
8, 237312, Note_on_c, 6, 71, 96
8, 237312, Note_off_c, 6, 69, 0
8, 237312, Note_on_c, 6, 71, 96
8, 237568, Note_off_c, 6, 71, 0
8, 237568, Note_on_c, 6, 69, 96
8, 237568, Note_off_c, 6, 71, 0
8, 237568, Note_on_c, 6, 69, 96
8, 237824, Note_off_c, 6, 69, 0
8, 237824, Note_on_c, 6, 67, 96
8, 237824, Note_off_c, 6, 69, 0
8, 237824, Note_on_c, 6, 67, 96
8, 238080, Note_off_c, 6, 67, 0
8, 238080, Note_on_c, 6, 66, 96
8, 238080, Note_off_c, 6, 67, 0
8, 238080, Note_on_c, 6, 66, 96
8, 238336, Note_off_c, 6, 66, 0
8, 238336, Note_on_c, 6, 67, 96
8, 238336, Note_off_c, 6, 66, 0
8, 238336, Note_on_c, 6, 67, 96
8, 238592, Note_off_c, 6, 67, 0
8, 238592, Note_on_c, 6, 69, 96
8, 238592, Note_off_c, 6, 67, 0
8, 238592, Note_on_c, 6, 69, 96
8, 239104, Note_off_c, 6, 69, 0
8, 239104, Note_off_c, 6, 69, 0
8, 240128, Note_on_c, 6, 71, 96
8, 240128, Note_on_c, 6, 67, 96
8, 240384, Note_off_c, 6, 71, 0
8, 240384, Note_on_c, 6, 72, 96
8, 240384, Note_off_c, 6, 67, 0
8, 240384, Note_on_c, 6, 69, 96
8, 240640, Note_off_c, 6, 72, 0
8, 240640, Note_on_c, 6, 74, 96
8, 240640, Note_off_c, 6, 69, 0
8, 240640, Note_on_c, 6, 71, 96
8, 241152, Note_off_c, 6, 74, 0
8, 241152, Note_on_c, 6, 74, 96
8, 241152, Note_off_c, 6, 71, 0
8, 241152, Note_on_c, 6, 71, 96
8, 241408, Note_off_c, 6, 74, 0
8, 241408, Note_on_c, 6, 76, 96
8, 241408, Note_off_c, 6, 71, 0
8, 241408, Note_on_c, 6, 72, 96
8, 241664, Note_off_c, 6, 76, 0
8, 241664, Note_on_c, 6, 77, 96
8, 241664, Note_off_c, 6, 72, 0
8, 241664, Note_on_c, 6, 74, 96
8, 242176, Note_off_c, 6, 77, 0
8, 242176, Note_on_c, 6, 76, 96
8, 242176, Note_off_c, 6, 74, 0
8, 242176, Note_on_c, 6, 72, 96
8, 242432, Note_off_c, 6, 76, 0
8, 242432, Note_on_c, 6, 74, 96
8, 242432, Note_off_c, 6, 72, 0
8, 242432, Note_on_c, 6, 71, 96
8, 242688, Note_off_c, 6, 74, 0
8, 242688, Note_off_c, 6, 71, 0
8, 242688, Note_on_c, 6, 76, 96
8, 242688, Note_on_c, 6, 72, 96
8, 243200, Note_off_c, 6, 76, 0
8, 243200, Note_on_c, 6, 74, 96
8, 243200, Note_off_c, 6, 72, 0
8, 243200, Note_on_c, 6, 69, 96
8, 243456, Note_off_c, 6, 74, 0
8, 243456, Note_on_c, 6, 72, 96
8, 243712, Note_off_c, 6, 72, 0
8, 243712, Note_on_c, 6, 71, 96
8, 243712, Note_off_c, 6, 69, 0
8, 243712, Note_on_c, 6, 62, 96
8, 244224, Note_off_c, 6, 71, 0
8, 244224, Note_on_c, 6, 74, 96
8, 244224, Note_off_c, 6, 62, 0
8, 244224, Note_on_c, 6, 67, 96
8, 244736, Note_off_c, 6, 74, 0
8, 244736, Note_on_c, 6, 72, 96
8, 244736, Note_off_c, 6, 67, 0
8, 244736, Note_on_c, 6, 69, 96
8, 244992, Note_off_c, 6, 72, 0
8, 244992, Note_on_c, 6, 71, 96
8, 245248, Note_off_c, 6, 71, 0
8, 245248, Note_on_c, 6, 69, 96
8, 245248, Note_off_c, 6, 69, 0
8, 245248, Note_on_c, 6, 72, 96
8, 245504, Note_off_c, 6, 69, 0
8, 245504, Note_on_c, 6, 71, 96
8, 245760, Note_off_c, 6, 71, 0
8, 245760, Note_off_c, 6, 72, 0
8, 245760, Note_on_c, 6, 67, 96
8, 245760, Note_on_c, 6, 71, 96
8, 246784, Note_off_c, 6, 67, 0
8, 246784, Note_on_c, 6, 67, 96
8, 246784, Note_off_c, 6, 71, 0
8, 246784, Note_on_c, 6, 67, 96
8, 247808, Note_off_c, 6, 67, 0
8, 247808, Note_on_c, 6, 67, 96
8, 247808, Note_off_c, 6, 67, 0
8, 247808, Note_on_c, 6, 67, 96
8, 248832, Note_off_c, 6, 67, 0
8, 248832, Note_off_c, 6, 67, 0
8, 248832, Note_on_c, 6, 67, 96
8, 248832, Note_on_c, 6, 67, 96
8, 249856, Note_off_c, 6, 67, 0
8, 249856, Note_on_c, 6, 66, 96
8, 249856, Note_off_c, 6, 67, 0
8, 249856, Note_on_c, 6, 66, 96
8, 250880, Note_off_c, 6, 66, 0
8, 250880, Note_on_c, 6, 66, 96
8, 250880, Note_off_c, 6, 66, 0
8, 250880, Note_on_c, 6, 66, 96
8, 251904, Note_off_c, 6, 66, 0
8, 251904, Note_off_c, 6, 66, 0
8, 251904, Note_on_c, 6, 67, 96
8, 251904, Note_on_c, 6, 67, 96
8, 252928, Note_off_c, 6, 67, 0
8, 252928, Note_off_c, 6, 67, 0
8, 253440, Note_on_c, 6, 69, 96
8, 253440, Note_on_c, 6, 69, 96
8, 253696, Note_off_c, 6, 69, 0
8, 253696, Note_on_c, 6, 67, 96
8, 253696, Note_off_c, 6, 69, 0
8, 253696, Note_on_c, 6, 67, 96
8, 253952, Note_off_c, 6, 67, 0
8, 253952, Note_on_c, 6, 65, 96
8, 253952, Note_off_c, 6, 67, 0
8, 253952, Note_on_c, 6, 65, 96
8, 254208, Note_off_c, 6, 65, 0
8, 254208, Note_on_c, 6, 69, 96
8, 254208, Note_off_c, 6, 65, 0
8, 254208, Note_on_c, 6, 69, 96
8, 254464, Note_off_c, 6, 69, 0
8, 254464, Note_on_c, 6, 67, 96
8, 254464, Note_off_c, 6, 69, 0
8, 254464, Note_on_c, 6, 67, 96
8, 254720, Note_off_c, 6, 67, 0
8, 254720, Note_on_c, 6, 70, 96
8, 254720, Note_off_c, 6, 67, 0
8, 254720, Note_on_c, 6, 70, 96
8, 254976, Note_off_c, 6, 70, 0
8, 254976, Note_off_c, 6, 70, 0
8, 254976, Note_on_c, 6, 69, 96
8, 254976, Note_on_c, 6, 69, 96
8, 255232, Note_off_c, 6, 69, 0
8, 255232, Note_on_c, 6, 67, 96
8, 255232, Note_off_c, 6, 69, 0
8, 255232, Note_on_c, 6, 67, 96
8, 255488, Note_off_c, 6, 67, 0
8, 255488, Note_on_c, 6, 69, 96
8, 255488, Note_off_c, 6, 67, 0
8, 255488, Note_on_c, 6, 69, 96
8, 255744, Note_off_c, 6, 69, 0
8, 255744, Note_on_c, 6, 65, 96
8, 255744, Note_off_c, 6, 69, 0
8, 255744, Note_on_c, 6, 65, 96
8, 256000, Note_off_c, 6, 65, 0
8, 256000, Note_on_c, 6, 71, 96
8, 256000, Note_off_c, 6, 65, 0
8, 256000, Note_on_c, 6, 71, 96
8, 256256, Note_off_c, 6, 71, 0
8, 256256, Note_on_c, 6, 69, 96
8, 256256, Note_off_c, 6, 71, 0
8, 256256, Note_on_c, 6, 69, 96
8, 256512, Note_off_c, 6, 69, 0
8, 256512, Note_on_c, 6, 71, 96
8, 256512, Note_off_c, 6, 69, 0
8, 256512, Note_on_c, 6, 71, 96
8, 256768, Note_off_c, 6, 71, 0
8, 256768, Note_on_c, 6, 67, 96
8, 256768, Note_off_c, 6, 71, 0
8, 256768, Note_on_c, 6, 67, 96
8, 257024, Note_off_c, 6, 67, 0
8, 257024, Note_on_c, 6, 74, 96
8, 257024, Note_off_c, 6, 67, 0
8, 257024, Note_on_c, 6, 74, 96
8, 257280, Note_off_c, 6, 74, 0
8, 257280, Note_on_c, 6, 72, 96
8, 257280, Note_off_c, 6, 74, 0
8, 257280, Note_on_c, 6, 72, 96
8, 257536, Note_off_c, 6, 72, 0
8, 257536, Note_on_c, 6, 74, 96
8, 257536, Note_off_c, 6, 72, 0
8, 257536, Note_on_c, 6, 74, 96
8, 257792, Note_off_c, 6, 74, 0
8, 257792, Note_on_c, 6, 71, 96
8, 257792, Note_off_c, 6, 74, 0
8, 257792, Note_on_c, 6, 71, 96
8, 258048, Note_off_c, 6, 71, 0
8, 258048, Note_off_c, 6, 71, 0
8, 258048, Note_on_c, 6, 76, 96
8, 258048, Note_on_c, 6, 76, 96
8, 259072, Note_off_c, 6, 76, 0
8, 259072, Note_off_c, 6, 76, 0
8, 264192, Note_on_c, 6, 67, 96
8, 264192, Note_on_c, 6, 67, 96
8, 265216, Note_off_c, 6, 67, 0
8, 265216, Note_on_c, 6, 69, 96
8, 265216, Note_off_c, 6, 67, 0
8, 265216, Note_on_c, 6, 69, 96
8, 266240, Note_off_c, 6, 69, 0
8, 266240, Note_on_c, 6, 71, 96
8, 266240, Note_off_c, 6, 69, 0
8, 266240, Note_on_c, 6, 71, 96
8, 267264, Note_off_c, 6, 71, 0
8, 267264, Note_off_c, 6, 71, 0
8, 267264, Note_on_c, 6, 72, 96
8, 267264, Note_on_c, 6, 72, 96
8, 268800, Note_off_c, 6, 72, 0
8, 268800, Note_on_c, 6, 74, 96
8, 268800, Note_off_c, 6, 72, 0
8, 268800, Note_on_c, 6, 74, 96
8, 269312, Note_off_c, 6, 74, 0
8, 269312, Note_on_c, 6, 76, 96
8, 269312, Note_off_c, 6, 74, 0
8, 269312, Note_on_c, 6, 76, 96
8, 270336, Note_off_c, 6, 76, 0
8, 270336, Note_off_c, 6, 76, 0
8, 270336, Note_on_c, 6, 74, 96
8, 270336, Note_on_c, 6, 74, 96
8, 273408, Note_off_c, 6, 74, 0
8, 273408, Note_off_c, 6, 74, 0
8, 273408, Note_on_c, 6, 72, 96
8, 273408, Note_on_c, 6, 72, 96
8, 273920, Note_off_c, 6, 72, 0
8, 273920, Note_on_c, 6, 67, 96
8, 273920, Note_off_c, 6, 72, 0
8, 273920, Note_on_c, 6, 64, 96
8, 274432, Note_off_c, 6, 67, 0
8, 274432, Note_on_c, 6, 64, 96
8, 274432, Note_off_c, 6, 64, 0
8, 274432, Note_on_c, 6, 60, 96
8, 274944, Note_off_c, 6, 64, 0
8, 274944, Note_on_c, 6, 69, 96
8, 274944, Note_off_c, 6, 60, 0
8, 274944, Note_on_c, 6, 65, 96
8, 275968, Note_off_c, 6, 69, 0
8, 275968, Note_on_c, 6, 67, 96
8, 275968, Note_off_c, 6, 65, 0
8, 275968, Note_on_c, 6, 64, 96
8, 276480, Note_off_c, 6, 67, 0
8, 276480, Note_off_c, 6, 64, 0
8, 276480, Note_on_c, 6, 65, 96
8, 276480, Note_on_c, 6, 62, 96
8, 276992, Note_off_c, 6, 65, 0
8, 276992, Note_on_c, 6, 65, 96
8, 276992, Note_off_c, 6, 62, 0
8, 276992, Note_on_c, 6, 62, 96
8, 277248, Note_off_c, 6, 65, 0
8, 277248, Note_on_c, 6, 64, 96
8, 277248, Note_off_c, 6, 62, 0
8, 277248, Note_on_c, 6, 60, 96
8, 277504, Note_off_c, 6, 64, 0
8, 277504, Note_on_c, 6, 65, 96
8, 277504, Note_off_c, 6, 60, 0
8, 277504, Note_on_c, 6, 62, 96
8, 278016, Note_off_c, 6, 65, 0
8, 278016, Note_on_c, 6, 74, 96
8, 278016, Note_off_c, 6, 62, 0
8, 278016, Note_on_c, 6, 65, 96
8, 279040, Note_off_c, 6, 74, 0
8, 279040, Note_on_c, 6, 65, 96
8, 279040, Note_off_c, 6, 65, 0
8, 279040, Note_on_c, 6, 62, 96
8, 279552, Note_off_c, 6, 65, 0
8, 279552, Note_off_c, 6, 62, 0
8, 279552, Note_on_c, 6, 64, 96
8, 279552, Note_on_c, 6, 60, 96
8, 280064, Note_off_c, 6, 64, 0
8, 280064, Note_on_c, 6, 64, 96
8, 280064, Note_off_c, 6, 60, 0
8, 280064, Note_on_c, 6, 64, 96
8, 280320, Note_off_c, 6, 64, 0
8, 280320, Note_on_c, 6, 65, 96
8, 280320, Note_off_c, 6, 64, 0
8, 280320, Note_on_c, 6, 65, 96
8, 280576, Note_off_c, 6, 65, 0
8, 280576, Note_on_c, 6, 67, 96
8, 280576, Note_off_c, 6, 65, 0
8, 280576, Note_on_c, 6, 67, 96
8, 281088, Note_off_c, 6, 67, 0
8, 281088, Note_on_c, 6, 69, 96
8, 281088, Note_off_c, 6, 67, 0
8, 281088, Note_on_c, 6, 69, 96
8, 281344, Note_off_c, 6, 69, 0
8, 281344, Note_on_c, 6, 71, 96
8, 281344, Note_off_c, 6, 69, 0
8, 281344, Note_on_c, 6, 71, 96
8, 281600, Note_off_c, 6, 71, 0
8, 281600, Note_on_c, 6, 72, 96
8, 281600, Note_off_c, 6, 71, 0
8, 281600, Note_on_c, 6, 72, 96
8, 282112, Note_off_c, 6, 72, 0
8, 282112, Note_on_c, 6, 71, 96
8, 282112, Note_off_c, 6, 72, 0
8, 282112, Note_on_c, 6, 71, 96
8, 282368, Note_off_c, 6, 71, 0
8, 282368, Note_on_c, 6, 69, 96
8, 282368, Note_off_c, 6, 71, 0
8, 282368, Note_on_c, 6, 69, 96
8, 282624, Note_off_c, 6, 69, 0
8, 282624, Note_off_c, 6, 69, 0
8, 282624, Note_on_c, 6, 71, 96
8, 282624, Note_on_c, 6, 71, 96
8, 283648, Note_off_c, 6, 71, 0
8, 283648, Note_on_c, 6, 67, 96
8, 283648, Note_off_c, 6, 71, 0
8, 283648, Note_on_c, 6, 67, 96
8, 284672, Note_off_c, 6, 67, 0
8, 284672, Note_on_c, 6, 67, 96
8, 284672, Note_off_c, 6, 67, 0
8, 284672, Note_on_c, 6, 67, 96
8, 285696, Note_off_c, 6, 67, 0
8, 285696, Note_off_c, 6, 67, 0
8, 285696, Note_on_c, 6, 67, 96
8, 285696, Note_on_c, 6, 67, 96
8, 286720, Note_off_c, 6, 67, 0
8, 286720, Note_on_c, 6, 66, 96
8, 286720, Note_off_c, 6, 67, 0
8, 286720, Note_on_c, 6, 66, 96
8, 287744, Note_off_c, 6, 66, 0
8, 287744, Note_on_c, 6, 66, 96
8, 287744, Note_off_c, 6, 66, 0
8, 287744, Note_on_c, 6, 66, 96
8, 288768, Note_off_c, 6, 66, 0
8, 288768, Note_off_c, 6, 66, 0
8, 288768, Note_on_c, 6, 67, 96
8, 288768, Note_on_c, 6, 67, 96
8, 289792, Note_off_c, 6, 67, 0
8, 289792, Note_off_c, 6, 67, 0
8, 292352, Note_on_c, 6, 74, 96
8, 292352, Note_on_c, 6, 65, 96
8, 292608, Note_off_c, 6, 74, 0
8, 292608, Note_on_c, 6, 76, 96
8, 292608, Note_off_c, 6, 65, 0
8, 292608, Note_on_c, 6, 67, 96
8, 292864, Note_off_c, 6, 76, 0
8, 292864, Note_on_c, 6, 77, 96
8, 292864, Note_off_c, 6, 67, 0
8, 292864, Note_on_c, 6, 69, 96
8, 293376, Note_off_c, 6, 77, 0
8, 293376, Note_on_c, 6, 77, 96
8, 293376, Note_off_c, 6, 69, 0
8, 293376, Note_on_c, 6, 71, 96
8, 293632, Note_off_c, 6, 77, 0
8, 293632, Note_on_c, 6, 76, 96
8, 293632, Note_off_c, 6, 71, 0
8, 293632, Note_on_c, 6, 72, 96
8, 293888, Note_off_c, 6, 76, 0
8, 293888, Note_on_c, 6, 78, 96
8, 293888, Note_off_c, 6, 72, 0
8, 293888, Note_on_c, 6, 74, 96
8, 294400, Note_off_c, 6, 78, 0
8, 294400, Note_on_c, 6, 81, 96
8, 294400, Note_off_c, 6, 74, 0
8, 294400, Note_on_c, 6, 72, 96
8, 294656, Note_off_c, 6, 81, 0
8, 294656, Note_on_c, 6, 80, 96
8, 294656, Note_off_c, 6, 72, 0
8, 294656, Note_on_c, 6, 71, 96
8, 294912, Note_off_c, 6, 80, 0
8, 294912, Note_off_c, 6, 71, 0
8, 294912, Note_on_c, 6, 81, 96
8, 294912, Note_on_c, 6, 72, 96
8, 295424, Note_off_c, 6, 81, 0
8, 295424, Note_on_c, 6, 72, 96
8, 295424, Note_off_c, 6, 72, 0
8, 295424, Note_on_c, 6, 69, 96
8, 295680, Note_off_c, 6, 72, 0
8, 295680, Note_on_c, 6, 74, 96
8, 295680, Note_off_c, 6, 69, 0
8, 295680, Note_on_c, 6, 71, 96
8, 295936, Note_off_c, 6, 74, 0
8, 295936, Note_on_c, 6, 76, 96
8, 295936, Note_off_c, 6, 71, 0
8, 295936, Note_on_c, 6, 72, 96
8, 296448, Note_off_c, 6, 76, 0
8, 296448, Note_on_c, 6, 78, 96
8, 296448, Note_off_c, 6, 72, 0
8, 296448, Note_on_c, 6, 72, 96
8, 296704, Note_off_c, 6, 78, 0
8, 296704, Note_on_c, 6, 79, 96
8, 296704, Note_off_c, 6, 72, 0
8, 296704, Note_on_c, 6, 71, 96
8, 296960, Note_off_c, 6, 79, 0
8, 296960, Note_on_c, 6, 81, 96
8, 296960, Note_off_c, 6, 71, 0
8, 296960, Note_on_c, 6, 73, 96
8, 297472, Note_off_c, 6, 81, 0
8, 297472, Note_on_c, 6, 79, 96
8, 297472, Note_off_c, 6, 73, 0
8, 297472, Note_on_c, 6, 76, 96
8, 297728, Note_off_c, 6, 79, 0
8, 297728, Note_on_c, 6, 78, 96
8, 297728, Note_off_c, 6, 76, 0
8, 297728, Note_on_c, 6, 75, 96
8, 297984, Note_off_c, 6, 78, 0
8, 297984, Note_off_c, 6, 75, 0
8, 297984, Note_on_c, 6, 79, 96
8, 297984, Note_on_c, 6, 76, 96
8, 298240, Note_off_c, 6, 76, 0
8, 298240, Note_on_c, 6, 75, 96
8, 298496, Note_off_c, 6, 79, 0
8, 298496, Note_on_c, 6, 79, 96
8, 298496, Note_off_c, 6, 75, 0
8, 298496, Note_on_c, 6, 76, 96
8, 298752, Note_off_c, 6, 76, 0
8, 298752, Note_on_c, 6, 71, 96
8, 299008, Note_off_c, 6, 79, 0
8, 299008, Note_on_c, 6, 79, 96
8, 299008, Note_off_c, 6, 71, 0
8, 299008, Note_on_c, 6, 71, 96
8, 299264, Note_off_c, 6, 71, 0
8, 299264, Note_on_c, 6, 69, 96
8, 299520, Note_off_c, 6, 79, 0
8, 299520, Note_on_c, 6, 79, 96
8, 299520, Note_off_c, 6, 69, 0
8, 299520, Note_on_c, 6, 71, 96
8, 299776, Note_off_c, 6, 71, 0
8, 299776, Note_on_c, 6, 67, 96
8, 300032, Note_off_c, 6, 79, 0
8, 300032, Note_on_c, 6, 79, 96
8, 300032, Note_off_c, 6, 67, 0
8, 300032, Note_on_c, 6, 67, 96
8, 300288, Note_off_c, 6, 67, 0
8, 300288, Note_on_c, 6, 66, 96
8, 300544, Note_off_c, 6, 79, 0
8, 300544, Note_on_c, 6, 79, 96
8, 300544, Note_off_c, 6, 66, 0
8, 300544, Note_on_c, 6, 67, 96
8, 300800, Note_off_c, 6, 67, 0
8, 300800, Note_on_c, 6, 64, 96
8, 301056, Note_off_c, 6, 79, 0
8, 301056, Note_off_c, 6, 64, 0
8, 301056, Note_on_c, 6, 79, 96
8, 301056, Note_on_c, 6, 73, 96
8, 301312, Note_off_c, 6, 79, 0
8, 301312, Note_on_c, 6, 77, 96
8, 301568, Note_off_c, 6, 77, 0
8, 301568, Note_on_c, 6, 79, 96
8, 301568, Note_off_c, 6, 73, 0
8, 301568, Note_on_c, 6, 73, 96
8, 301824, Note_off_c, 6, 79, 0
8, 301824, Note_on_c, 6, 76, 96
8, 302080, Note_off_c, 6, 76, 0
8, 302080, Note_on_c, 6, 76, 96
8, 302080, Note_off_c, 6, 73, 0
8, 302080, Note_on_c, 6, 73, 96
8, 302336, Note_off_c, 6, 76, 0
8, 302336, Note_on_c, 6, 74, 96
8, 302592, Note_off_c, 6, 74, 0
8, 302592, Note_on_c, 6, 76, 96
8, 302592, Note_off_c, 6, 73, 0
8, 302592, Note_on_c, 6, 73, 96
8, 302848, Note_off_c, 6, 76, 0
8, 302848, Note_on_c, 6, 73, 96
8, 303104, Note_off_c, 6, 73, 0
8, 303104, Note_on_c, 6, 73, 96
8, 303104, Note_off_c, 6, 73, 0
8, 303104, Note_on_c, 6, 73, 96
8, 303360, Note_off_c, 6, 73, 0
8, 303360, Note_on_c, 6, 71, 96
8, 303616, Note_off_c, 6, 71, 0
8, 303616, Note_on_c, 6, 73, 96
8, 303616, Note_off_c, 6, 73, 0
8, 303616, Note_on_c, 6, 73, 96
8, 303872, Note_off_c, 6, 73, 0
8, 303872, Note_on_c, 6, 69, 96
8, 304128, Note_off_c, 6, 69, 0
8, 304128, Note_off_c, 6, 73, 0
8, 304128, Note_on_c, 6, 77, 96
8, 304128, Note_on_c, 6, 74, 96
8, 304384, Note_off_c, 6, 74, 0
8, 304384, Note_on_c, 6, 73, 96
8, 304640, Note_off_c, 6, 77, 0
8, 304640, Note_on_c, 6, 77, 96
8, 304640, Note_off_c, 6, 73, 0
8, 304640, Note_on_c, 6, 74, 96
8, 304896, Note_off_c, 6, 74, 0
8, 304896, Note_on_c, 6, 69, 96
8, 305152, Note_off_c, 6, 77, 0
8, 305152, Note_on_c, 6, 77, 96
8, 305152, Note_off_c, 6, 69, 0
8, 305152, Note_on_c, 6, 69, 96
8, 305408, Note_off_c, 6, 69, 0
8, 305408, Note_on_c, 6, 67, 96
8, 305664, Note_off_c, 6, 77, 0
8, 305664, Note_on_c, 6, 77, 96
8, 305664, Note_off_c, 6, 67, 0
8, 305664, Note_on_c, 6, 69, 96
8, 305920, Note_off_c, 6, 69, 0
8, 305920, Note_on_c, 6, 65, 96
8, 306176, Note_off_c, 6, 77, 0
8, 306176, Note_on_c, 6, 77, 96
8, 306176, Note_off_c, 6, 65, 0
8, 306176, Note_on_c, 6, 65, 96
8, 306432, Note_off_c, 6, 65, 0
8, 306432, Note_on_c, 6, 64, 96
8, 306688, Note_off_c, 6, 77, 0
8, 306688, Note_on_c, 6, 77, 96
8, 306688, Note_off_c, 6, 64, 0
8, 306688, Note_on_c, 6, 65, 96
8, 306944, Note_off_c, 6, 65, 0
8, 306944, Note_on_c, 6, 62, 96
8, 307200, Note_off_c, 6, 77, 0
8, 307200, Note_off_c, 6, 62, 0
8, 307200, Note_on_c, 6, 77, 96
8, 307200, Note_on_c, 6, 71, 96
8, 307456, Note_off_c, 6, 77, 0
8, 307456, Note_on_c, 6, 76, 96
8, 307712, Note_off_c, 6, 76, 0
8, 307712, Note_on_c, 6, 77, 96
8, 307712, Note_off_c, 6, 71, 0
8, 307712, Note_on_c, 6, 71, 96
8, 307968, Note_off_c, 6, 77, 0
8, 307968, Note_on_c, 6, 74, 96
8, 308224, Note_off_c, 6, 74, 0
8, 308224, Note_on_c, 6, 74, 96
8, 308224, Note_off_c, 6, 71, 0
8, 308224, Note_on_c, 6, 71, 96
8, 308480, Note_off_c, 6, 74, 0
8, 308480, Note_on_c, 6, 72, 96
8, 308736, Note_off_c, 6, 72, 0
8, 308736, Note_on_c, 6, 74, 96
8, 308736, Note_off_c, 6, 71, 0
8, 308736, Note_on_c, 6, 71, 96
8, 308992, Note_off_c, 6, 74, 0
8, 308992, Note_on_c, 6, 71, 96
8, 309248, Note_off_c, 6, 71, 0
8, 309248, Note_on_c, 6, 71, 96
8, 309248, Note_off_c, 6, 71, 0
8, 309248, Note_on_c, 6, 71, 96
8, 309504, Note_off_c, 6, 71, 0
8, 309504, Note_on_c, 6, 69, 96
8, 309760, Note_off_c, 6, 69, 0
8, 309760, Note_on_c, 6, 71, 96
8, 309760, Note_off_c, 6, 71, 0
8, 309760, Note_on_c, 6, 71, 96
8, 310016, Note_off_c, 6, 71, 0
8, 310016, Note_on_c, 6, 67, 96
8, 310272, Note_off_c, 6, 67, 0
8, 310272, Note_off_c, 6, 71, 0
8, 310272, Note_on_c, 6, 76, 96
8, 310272, Note_on_c, 6, 72, 96
8, 311296, Note_off_c, 6, 76, 0
8, 311296, Note_off_c, 6, 72, 0
8, 311808, Note_on_c, 6, 72, 96
8, 311808, Note_on_c, 6, 69, 96
8, 312064, Note_off_c, 6, 72, 0
8, 312064, Note_on_c, 6, 74, 96
8, 312064, Note_off_c, 6, 69, 0
8, 312064, Note_on_c, 6, 71, 96
8, 312320, Note_off_c, 6, 74, 0
8, 312320, Note_on_c, 6, 76, 96
8, 312320, Note_off_c, 6, 71, 0
8, 312320, Note_on_c, 6, 72, 96
8, 312832, Note_off_c, 6, 76, 0
8, 312832, Note_on_c, 6, 77, 96
8, 312832, Note_off_c, 6, 72, 0
8, 312832, Note_on_c, 6, 74, 96
8, 313088, Note_off_c, 6, 77, 0
8, 313088, Note_on_c, 6, 79, 96
8, 313088, Note_off_c, 6, 74, 0
8, 313088, Note_on_c, 6, 76, 96
8, 313344, Note_off_c, 6, 79, 0
8, 313344, Note_off_c, 6, 76, 0
8, 313344, Note_on_c, 6, 81, 96
8, 313344, Note_on_c, 6, 77, 96
8, 313856, Note_off_c, 6, 81, 0
8, 313856, Note_off_c, 6, 77, 0
8, 314880, Note_on_c, 6, 74, 96
8, 314880, Note_on_c, 6, 74, 96
8, 315136, Note_off_c, 6, 74, 0
8, 315136, Note_on_c, 6, 76, 96
8, 315136, Note_off_c, 6, 74, 0
8, 315136, Note_on_c, 6, 76, 96
8, 315392, Note_off_c, 6, 76, 0
8, 315392, Note_on_c, 6, 74, 96
8, 315392, Note_off_c, 6, 76, 0
8, 315392, Note_on_c, 6, 74, 96
8, 315648, Note_off_c, 6, 74, 0
8, 315648, Note_on_c, 6, 72, 96
8, 315648, Note_off_c, 6, 74, 0
8, 315648, Note_on_c, 6, 72, 96
8, 315904, Note_off_c, 6, 72, 0
8, 315904, Note_on_c, 6, 71, 96
8, 315904, Note_off_c, 6, 72, 0
8, 315904, Note_on_c, 6, 71, 96
8, 316160, Note_off_c, 6, 71, 0
8, 316160, Note_on_c, 6, 69, 96
8, 316160, Note_off_c, 6, 71, 0
8, 316160, Note_on_c, 6, 69, 96
8, 316416, Note_off_c, 6, 69, 0
8, 316416, Note_off_c, 6, 69, 0
8, 316416, Note_on_c, 6, 67, 96
8, 316416, Note_on_c, 6, 67, 96
8, 316928, Note_off_c, 6, 67, 0
8, 316928, Note_on_c, 6, 76, 96
8, 316928, Note_off_c, 6, 67, 0
8, 316928, Note_on_c, 6, 72, 96
8, 317184, Note_off_c, 6, 76, 0
8, 317184, Note_on_c, 6, 77, 96
8, 317184, Note_off_c, 6, 72, 0
8, 317184, Note_on_c, 6, 74, 96
8, 317440, Note_off_c, 6, 77, 0
8, 317440, Note_on_c, 6, 79, 96
8, 317440, Note_off_c, 6, 74, 0
8, 317440, Note_on_c, 6, 76, 96
8, 317952, Note_off_c, 6, 79, 0
8, 317952, Note_on_c, 6, 79, 96
8, 317952, Note_off_c, 6, 76, 0
8, 317952, Note_on_c, 6, 76, 96
8, 318208, Note_off_c, 6, 79, 0
8, 318208, Note_on_c, 6, 81, 96
8, 318208, Note_off_c, 6, 76, 0
8, 318208, Note_on_c, 6, 77, 96
8, 318464, Note_off_c, 6, 81, 0
8, 318464, Note_on_c, 6, 82, 96
8, 318464, Note_off_c, 6, 77, 0
8, 318464, Note_on_c, 6, 79, 96
8, 318976, Note_off_c, 6, 82, 0
8, 318976, Note_on_c, 6, 81, 96
8, 318976, Note_off_c, 6, 79, 0
8, 318976, Note_on_c, 6, 77, 96
8, 319232, Note_off_c, 6, 81, 0
8, 319232, Note_on_c, 6, 79, 96
8, 319232, Note_off_c, 6, 77, 0
8, 319232, Note_on_c, 6, 76, 96
8, 319488, Note_off_c, 6, 79, 0
8, 319488, Note_off_c, 6, 76, 0
8, 319488, Note_on_c, 6, 81, 96
8, 319488, Note_on_c, 6, 77, 96
8, 320000, Note_off_c, 6, 81, 0
8, 320000, Note_on_c, 6, 79, 96
8, 320000, Note_off_c, 6, 77, 0
8, 320000, Note_on_c, 6, 74, 96
8, 320256, Note_off_c, 6, 79, 0
8, 320256, Note_on_c, 6, 77, 96
8, 320512, Note_off_c, 6, 77, 0
8, 320512, Note_on_c, 6, 76, 96
8, 320512, Note_off_c, 6, 74, 0
8, 320512, Note_on_c, 6, 67, 96
8, 321024, Note_off_c, 6, 76, 0
8, 321024, Note_on_c, 6, 79, 96
8, 321024, Note_off_c, 6, 67, 0
8, 321024, Note_on_c, 6, 72, 96
8, 321536, Note_off_c, 6, 79, 0
8, 321536, Note_on_c, 6, 77, 96
8, 321536, Note_off_c, 6, 72, 0
8, 321536, Note_on_c, 6, 72, 96
8, 321792, Note_off_c, 6, 77, 0
8, 321792, Note_on_c, 6, 76, 96
8, 322048, Note_off_c, 6, 76, 0
8, 322048, Note_on_c, 6, 74, 96
8, 322048, Note_off_c, 6, 72, 0
8, 322048, Note_on_c, 6, 71, 96
8, 322304, Note_off_c, 6, 74, 0
8, 322304, Note_on_c, 6, 76, 96
8, 322560, Note_off_c, 6, 76, 0
8, 322560, Note_off_c, 6, 71, 0
8, 322560, Note_on_c, 6, 72, 96
8, 322560, Note_on_c, 6, 72, 96
8, 325632, Note_off_c, 6, 72, 0
8, 325632, Note_off_c, 6, 72, 0
8, 325632, End_track
9, 0, Start_track
9, 0, Title_t, "Instrument 8"
9, 1024, Note_on_c, 7, 60, 96
9, 1024, Note_on_c, 7, 60, 96
9, 1024, Note_on_c, 7, 60, 96
9, 2048, Note_off_c, 7, 60, 0
9, 2048, Note_on_c, 7, 60, 96
9, 2048, Note_off_c, 7, 60, 0
9, 2048, Note_on_c, 7, 60, 96
9, 2048, Note_off_c, 7, 60, 0
9, 2048, Note_on_c, 7, 60, 96
9, 3072, Note_off_c, 7, 60, 0
9, 3072, Note_off_c, 7, 60, 0
9, 3072, Note_off_c, 7, 60, 0
9, 3072, Note_on_c, 7, 60, 96
9, 3072, Note_on_c, 7, 60, 96
9, 3072, Note_on_c, 7, 60, 96
9, 4096, Note_off_c, 7, 60, 0
9, 4096, Note_on_c, 7, 59, 96
9, 4096, Note_off_c, 7, 60, 0
9, 4096, Note_on_c, 7, 59, 96
9, 4096, Note_off_c, 7, 60, 0
9, 4096, Note_on_c, 7, 59, 96
9, 5120, Note_off_c, 7, 59, 0
9, 5120, Note_on_c, 7, 59, 96
9, 5120, Note_off_c, 7, 59, 0
9, 5120, Note_on_c, 7, 59, 96
9, 5120, Note_off_c, 7, 59, 0
9, 5120, Note_on_c, 7, 59, 96
9, 6144, Note_off_c, 7, 59, 0
9, 6144, Note_off_c, 7, 59, 0
9, 6144, Note_off_c, 7, 59, 0
9, 6144, Note_on_c, 7, 60, 96
9, 6144, Note_on_c, 7, 60, 96
9, 6144, Note_on_c, 7, 60, 96
9, 6656, Note_off_c, 7, 60, 0
9, 6656, Note_on_c, 7, 64, 96
9, 6656, Note_off_c, 7, 60, 0
9, 6656, Note_on_c, 7, 64, 96
9, 6656, Note_off_c, 7, 60, 0
9, 6656, Note_on_c, 7, 60, 96
9, 6912, Note_off_c, 7, 64, 0
9, 6912, Note_on_c, 7, 65, 96
9, 6912, Note_off_c, 7, 64, 0
9, 6912, Note_on_c, 7, 65, 96
9, 6912, Note_off_c, 7, 60, 0
9, 6912, Note_on_c, 7, 59, 96
9, 7168, Note_off_c, 7, 65, 0
9, 7168, Note_on_c, 7, 67, 96
9, 7168, Note_off_c, 7, 65, 0
9, 7168, Note_on_c, 7, 67, 96
9, 7168, Note_off_c, 7, 59, 0
9, 7168, Note_on_c, 7, 60, 96
9, 7680, Note_off_c, 7, 67, 0
9, 7680, Note_on_c, 7, 69, 96
9, 7680, Note_off_c, 7, 67, 0
9, 7680, Note_on_c, 7, 69, 96
9, 7680, Note_off_c, 7, 60, 0
9, 7680, Note_on_c, 7, 64, 96
9, 7936, Note_off_c, 7, 69, 0
9, 7936, Note_on_c, 7, 71, 96
9, 7936, Note_off_c, 7, 69, 0
9, 7936, Note_on_c, 7, 71, 96
9, 8192, Note_off_c, 7, 71, 0
9, 8192, Note_on_c, 7, 72, 96
9, 8192, Note_off_c, 7, 71, 0
9, 8192, Note_on_c, 7, 72, 96
9, 8192, Note_off_c, 7, 64, 0
9, 8192, Note_on_c, 7, 64, 96
9, 8704, Note_off_c, 7, 72, 0
9, 8704, Note_on_c, 7, 71, 96
9, 8704, Note_off_c, 7, 72, 0
9, 8704, Note_on_c, 7, 71, 96
9, 8704, Note_off_c, 7, 64, 0
9, 8704, Note_on_c, 7, 62, 96
9, 8960, Note_off_c, 7, 71, 0
9, 8960, Note_on_c, 7, 69, 96
9, 8960, Note_off_c, 7, 71, 0
9, 8960, Note_on_c, 7, 69, 96
9, 9216, Note_off_c, 7, 69, 0
9, 9216, Note_off_c, 7, 69, 0
9, 9216, Note_off_c, 7, 62, 0
9, 9216, Note_on_c, 7, 71, 96
9, 9216, Note_on_c, 7, 71, 96
9, 9216, Note_on_c, 7, 62, 96
9, 9728, Note_off_c, 7, 71, 0
9, 9728, Note_on_c, 7, 74, 96
9, 9728, Note_off_c, 7, 71, 0
9, 9728, Note_on_c, 7, 71, 96
9, 10240, Note_off_c, 7, 74, 0
9, 10240, Note_on_c, 7, 71, 96
9, 10240, Note_off_c, 7, 71, 0
9, 10240, Note_on_c, 7, 67, 96
9, 10240, Note_off_c, 7, 62, 0
9, 10752, Note_off_c, 7, 71, 0
9, 10752, Note_on_c, 7, 76, 96
9, 10752, Note_off_c, 7, 67, 0
9, 10752, Note_on_c, 7, 72, 96
9, 11776, Note_off_c, 7, 76, 0
9, 11776, Note_on_c, 7, 74, 96
9, 11776, Note_off_c, 7, 72, 0
9, 11776, Note_on_c, 7, 71, 96
9, 12288, Note_off_c, 7, 74, 0
9, 12288, Note_off_c, 7, 71, 0
9, 12288, Note_on_c, 7, 72, 96
9, 12288, Note_on_c, 7, 69, 96
9, 12288, Note_on_c, 7, 62, 96
9, 12800, Note_off_c, 7, 72, 0
9, 12800, Note_on_c, 7, 72, 96
9, 12800, Note_off_c, 7, 69, 0
9, 12800, Note_on_c, 7, 69, 96
9, 13056, Note_off_c, 7, 72, 0
9, 13056, Note_on_c, 7, 71, 96
9, 13056, Note_off_c, 7, 69, 0
9, 13056, Note_on_c, 7, 67, 96
9, 13312, Note_off_c, 7, 71, 0
9, 13312, Note_on_c, 7, 72, 96
9, 13312, Note_off_c, 7, 67, 0
9, 13312, Note_on_c, 7, 69, 96
9, 13312, Note_off_c, 7, 62, 0
9, 13824, Note_off_c, 7, 72, 0
9, 13824, Note_on_c, 7, 81, 96
9, 13824, Note_off_c, 7, 69, 0
9, 13824, Note_on_c, 7, 72, 96
9, 14848, Note_off_c, 7, 81, 0
9, 14848, Note_on_c, 7, 72, 96
9, 14848, Note_off_c, 7, 72, 0
9, 14848, Note_on_c, 7, 69, 96
9, 15360, Note_off_c, 7, 72, 0
9, 15360, Note_off_c, 7, 69, 0
9, 15360, Note_on_c, 7, 71, 96
9, 15360, Note_on_c, 7, 67, 96
9, 15360, Note_on_c, 7, 62, 96
9, 15872, Note_off_c, 7, 71, 0
9, 15872, Note_on_c, 7, 71, 96
9, 15872, Note_off_c, 7, 67, 0
9, 15872, Note_on_c, 7, 67, 96
9, 15872, Note_off_c, 7, 62, 0
9, 15872, Note_on_c, 7, 62, 96
9, 16128, Note_off_c, 7, 71, 0
9, 16128, Note_on_c, 7, 72, 96
9, 16128, Note_off_c, 7, 67, 0
9, 16128, Note_on_c, 7, 69, 96
9, 16128, Note_off_c, 7, 62, 0
9, 16128, Note_on_c, 7, 60, 96
9, 16384, Note_off_c, 7, 72, 0
9, 16384, Note_on_c, 7, 74, 96
9, 16384, Note_off_c, 7, 69, 0
9, 16384, Note_on_c, 7, 71, 96
9, 16384, Note_off_c, 7, 60, 0
9, 16384, Note_on_c, 7, 59, 96
9, 16896, Note_off_c, 7, 74, 0
9, 16896, Note_on_c, 7, 76, 96
9, 16896, Note_off_c, 7, 71, 0
9, 16896, Note_on_c, 7, 71, 96
9, 16896, Note_off_c, 7, 59, 0
9, 16896, Note_on_c, 7, 55, 96
9, 17152, Note_off_c, 7, 76, 0
9, 17152, Note_on_c, 7, 77, 96
9, 17152, Note_off_c, 7, 71, 0
9, 17152, Note_on_c, 7, 69, 96
9, 17408, Note_off_c, 7, 77, 0
9, 17408, Note_on_c, 7, 79, 96
9, 17408, Note_off_c, 7, 69, 0
9, 17408, Note_on_c, 7, 71, 96
9, 17408, Note_off_c, 7, 55, 0
9, 17408, Note_on_c, 7, 55, 96
9, 17920, Note_off_c, 7, 79, 0
9, 17920, Note_on_c, 7, 77, 96
9, 17920, Note_off_c, 7, 71, 0
9, 17920, Note_on_c, 7, 74, 96
9, 17920, Note_off_c, 7, 55, 0
9, 17920, Note_on_c, 7, 57, 96
9, 18176, Note_off_c, 7, 77, 0
9, 18176, Note_on_c, 7, 76, 96
9, 18176, Note_off_c, 7, 74, 0
9, 18176, Note_on_c, 7, 73, 96
9, 18432, Note_off_c, 7, 76, 0
9, 18432, Note_off_c, 7, 73, 0
9, 18432, Note_off_c, 7, 57, 0
9, 18432, Note_on_c, 7, 77, 96
9, 18432, Note_on_c, 7, 74, 96
9, 18432, Note_on_c, 7, 57, 96
9, 18944, Note_off_c, 7, 57, 0
9, 18944, Note_on_c, 7, 69, 96
9, 19200, Note_off_c, 7, 69, 0
9, 19200, Note_on_c, 7, 67, 96
9, 19456, Note_off_c, 7, 77, 0
9, 19456, Note_off_c, 7, 74, 0
9, 19456, Note_off_c, 7, 67, 0
9, 19456, Note_on_c, 7, 65, 96
9, 19968, Note_off_c, 7, 65, 0
9, 19968, Note_on_c, 7, 62, 96
9, 20480, Note_off_c, 7, 62, 0
9, 20480, Note_on_c, 7, 62, 96
9, 20992, Note_off_c, 7, 62, 0
9, 20992, Note_on_c, 7, 64, 96
9, 21504, Note_off_c, 7, 64, 0
9, 21504, Note_on_c, 7, 64, 96
9, 22016, Note_on_c, 7, 72, 96
9, 22016, Note_on_c, 7, 69, 96
9, 22016, Note_off_c, 7, 64, 0
9, 22016, Note_on_c, 7, 64, 96
9, 22272, Note_off_c, 7, 72, 0
9, 22272, Note_on_c, 7, 74, 96
9, 22272, Note_off_c, 7, 69, 0
9, 22272, Note_on_c, 7, 71, 96
9, 22272, Note_off_c, 7, 64, 0
9, 22272, Note_on_c, 7, 62, 96
9, 22528, Note_off_c, 7, 74, 0
9, 22528, Note_on_c, 7, 76, 96
9, 22528, Note_off_c, 7, 71, 0
9, 22528, Note_on_c, 7, 72, 96
9, 22528, Note_off_c, 7, 62, 0
9, 22528, Note_on_c, 7, 60, 96
9, 23040, Note_off_c, 7, 76, 0
9, 23040, Note_on_c, 7, 78, 96
9, 23040, Note_off_c, 7, 72, 0
9, 23040, Note_on_c, 7, 72, 96
9, 23040, Note_off_c, 7, 60, 0
9, 23040, Note_on_c, 7, 57, 96
9, 23296, Note_off_c, 7, 78, 0
9, 23296, Note_on_c, 7, 79, 96
9, 23296, Note_off_c, 7, 72, 0
9, 23296, Note_on_c, 7, 71, 96
9, 23552, Note_off_c, 7, 79, 0
9, 23552, Note_on_c, 7, 81, 96
9, 23552, Note_off_c, 7, 71, 0
9, 23552, Note_on_c, 7, 73, 96
9, 23552, Note_off_c, 7, 57, 0
9, 23552, Note_on_c, 7, 57, 96
9, 24064, Note_off_c, 7, 81, 0
9, 24064, Note_on_c, 7, 79, 96
9, 24064, Note_off_c, 7, 73, 0
9, 24064, Note_on_c, 7, 76, 96
9, 24064, Note_off_c, 7, 57, 0
9, 24064, Note_on_c, 7, 59, 96
9, 24320, Note_off_c, 7, 79, 0
9, 24320, Note_on_c, 7, 78, 96
9, 24320, Note_off_c, 7, 76, 0
9, 24320, Note_on_c, 7, 75, 96
9, 24576, Note_off_c, 7, 78, 0
9, 24576, Note_off_c, 7, 75, 0
9, 24576, Note_off_c, 7, 59, 0
9, 24576, Note_on_c, 7, 79, 96
9, 24576, Note_on_c, 7, 76, 96
9, 24576, Note_on_c, 7, 59, 96
9, 25088, Note_off_c, 7, 79, 0
9, 25088, Note_on_c, 7, 83, 96
9, 25088, Note_off_c, 7, 76, 0
9, 25088, Note_on_c, 7, 67, 96
9, 25088, Note_off_c, 7, 59, 0
9, 25088, Note_on_c, 7, 71, 96
9, 25344, Note_off_c, 7, 67, 0
9, 25344, Note_on_c, 7, 69, 96
9, 25600, Note_off_c, 7, 69, 0
9, 25600, Note_on_c, 7, 71, 96
9, 25600, Note_off_c, 7, 71, 0
9, 25600, Note_on_c, 7, 71, 96
9, 26112, Note_off_c, 7, 83, 0
9, 26112, Note_on_c, 7, 79, 96
9, 26112, Note_off_c, 7, 71, 0
9, 26112, Note_on_c, 7, 71, 96
9, 26112, Note_off_c, 7, 71, 0
9, 26112, Note_on_c, 7, 71, 96
9, 26368, Note_off_c, 7, 71, 0
9, 26368, Note_on_c, 7, 73, 96
9, 26624, Note_off_c, 7, 73, 0
9, 26624, Note_on_c, 7, 74, 96
9, 26624, Note_off_c, 7, 71, 0
9, 26624, Note_on_c, 7, 71, 96
9, 27136, Note_off_c, 7, 79, 0
9, 27136, Note_on_c, 7, 76, 96
9, 27136, Note_off_c, 7, 74, 0
9, 27136, Note_on_c, 7, 76, 96
9, 27136, Note_off_c, 7, 71, 0
9, 27136, Note_on_c, 7, 71, 96
9, 27392, Note_off_c, 7, 76, 0
9, 27392, Note_on_c, 7, 74, 96
9, 27648, Note_off_c, 7, 74, 0
9, 27648, Note_off_c, 7, 71, 0
9, 27648, Note_on_c, 7, 73, 96
9, 27648, Note_on_c, 7, 69, 96
9, 28160, Note_off_c, 7, 76, 0
9, 28160, Note_on_c, 7, 73, 96
9, 28160, Note_off_c, 7, 73, 0
9, 28160, Note_on_c, 7, 76, 96
9, 28160, Note_off_c, 7, 69, 0
9, 28160, Note_on_c, 7, 69, 96
9, 28416, Note_off_c, 7, 73, 0
9, 28416, Note_on_c, 7, 74, 96
9, 28672, Note_off_c, 7, 74, 0
9, 28672, Note_on_c, 7, 76, 96
9, 28672, Note_off_c, 7, 69, 0
9, 28672, Note_on_c, 7, 69, 96
9, 29184, Note_off_c, 7, 76, 0
9, 29184, Note_on_c, 7, 76, 96
9, 29184, Note_off_c, 7, 76, 0
9, 29184, Note_on_c, 7, 73, 96
9, 29184, Note_off_c, 7, 69, 0
9, 29184, Note_on_c, 7, 69, 96
9, 29440, Note_off_c, 7, 76, 0
9, 29440, Note_on_c, 7, 77, 96
9, 29696, Note_off_c, 7, 77, 0
9, 29696, Note_on_c, 7, 79, 96
9, 29696, Note_off_c, 7, 69, 0
9, 29696, Note_on_c, 7, 69, 96
9, 30208, Note_off_c, 7, 79, 0
9, 30208, Note_on_c, 7, 81, 96
9, 30208, Note_off_c, 7, 73, 0
9, 30208, Note_on_c, 7, 69, 96
9, 30208, Note_off_c, 7, 69, 0
9, 30208, Note_on_c, 7, 69, 96
9, 30464, Note_off_c, 7, 81, 0
9, 30464, Note_on_c, 7, 79, 96
9, 30720, Note_off_c, 7, 79, 0
9, 30720, Note_off_c, 7, 69, 0
9, 30720, Note_on_c, 7, 77, 96
9, 30720, Note_on_c, 7, 69, 96
9, 31232, Note_off_c, 7, 77, 0
9, 31232, Note_on_c, 7, 81, 96
9, 31232, Note_off_c, 7, 69, 0
9, 31232, Note_on_c, 7, 65, 96
9, 31232, Note_off_c, 7, 69, 0
9, 31232, Note_on_c, 7, 69, 96
9, 31488, Note_off_c, 7, 65, 0
9, 31488, Note_on_c, 7, 67, 96
9, 31744, Note_off_c, 7, 67, 0
9, 31744, Note_on_c, 7, 69, 96
9, 31744, Note_off_c, 7, 69, 0
9, 31744, Note_on_c, 7, 69, 96
9, 32256, Note_off_c, 7, 81, 0
9, 32256, Note_on_c, 7, 77, 96
9, 32256, Note_off_c, 7, 69, 0
9, 32256, Note_on_c, 7, 69, 96
9, 32256, Note_off_c, 7, 69, 0
9, 32256, Note_on_c, 7, 69, 96
9, 32512, Note_off_c, 7, 69, 0
9, 32512, Note_on_c, 7, 71, 96
9, 32768, Note_off_c, 7, 71, 0
9, 32768, Note_on_c, 7, 72, 96
9, 32768, Note_off_c, 7, 69, 0
9, 32768, Note_on_c, 7, 69, 96
9, 33280, Note_off_c, 7, 77, 0
9, 33280, Note_on_c, 7, 74, 96
9, 33280, Note_off_c, 7, 72, 0
9, 33280, Note_on_c, 7, 74, 96
9, 33280, Note_off_c, 7, 69, 0
9, 33280, Note_on_c, 7, 69, 96
9, 33536, Note_off_c, 7, 74, 0
9, 33536, Note_on_c, 7, 72, 96
9, 33792, Note_off_c, 7, 72, 0
9, 33792, Note_off_c, 7, 69, 0
9, 33792, Note_on_c, 7, 71, 96
9, 33792, Note_on_c, 7, 67, 96
9, 34304, Note_off_c, 7, 74, 0
9, 34304, Note_on_c, 7, 71, 96
9, 34304, Note_off_c, 7, 71, 0
9, 34304, Note_on_c, 7, 74, 96
9, 34304, Note_off_c, 7, 67, 0
9, 34304, Note_on_c, 7, 67, 96
9, 34560, Note_off_c, 7, 71, 0
9, 34560, Note_on_c, 7, 72, 96
9, 34816, Note_off_c, 7, 72, 0
9, 34816, Note_on_c, 7, 74, 96
9, 34816, Note_off_c, 7, 67, 0
9, 34816, Note_on_c, 7, 67, 96
9, 35328, Note_off_c, 7, 74, 0
9, 35328, Note_on_c, 7, 74, 96
9, 35328, Note_off_c, 7, 74, 0
9, 35328, Note_on_c, 7, 71, 96
9, 35328, Note_off_c, 7, 67, 0
9, 35328, Note_on_c, 7, 67, 96
9, 35584, Note_off_c, 7, 74, 0
9, 35584, Note_on_c, 7, 76, 96
9, 35840, Note_off_c, 7, 76, 0
9, 35840, Note_on_c, 7, 77, 96
9, 35840, Note_off_c, 7, 67, 0
9, 35840, Note_on_c, 7, 67, 96
9, 36352, Note_off_c, 7, 77, 0
9, 36352, Note_on_c, 7, 79, 96
9, 36352, Note_off_c, 7, 71, 0
9, 36352, Note_on_c, 7, 67, 96
9, 36352, Note_off_c, 7, 67, 0
9, 36352, Note_on_c, 7, 67, 96
9, 36608, Note_off_c, 7, 79, 0
9, 36608, Note_on_c, 7, 77, 96
9, 36864, Note_off_c, 7, 77, 0
9, 36864, Note_off_c, 7, 67, 0
9, 36864, Note_on_c, 7, 76, 96
9, 36864, Note_on_c, 7, 67, 96
9, 37376, Note_off_c, 7, 76, 0
9, 37376, Note_on_c, 7, 72, 96
9, 37376, Note_off_c, 7, 67, 0
9, 37376, Note_on_c, 7, 64, 96
9, 37632, Note_off_c, 7, 72, 0
9, 37632, Note_on_c, 7, 74, 96
9, 37632, Note_off_c, 7, 64, 0
9, 37632, Note_on_c, 7, 65, 96
9, 37888, Note_off_c, 7, 74, 0
9, 37888, Note_on_c, 7, 76, 96
9, 37888, Note_off_c, 7, 65, 0
9, 37888, Note_on_c, 7, 67, 96
9, 37888, Note_off_c, 7, 67, 0
9, 37888, Note_on_c, 7, 60, 96
9, 38400, Note_off_c, 7, 76, 0
9, 38400, Note_on_c, 7, 77, 96
9, 38400, Note_off_c, 7, 67, 0
9, 38400, Note_on_c, 7, 69, 96
9, 38656, Note_off_c, 7, 77, 0
9, 38656, Note_on_c, 7, 79, 96
9, 38656, Note_off_c, 7, 69, 0
9, 38656, Note_on_c, 7, 71, 96
9, 38912, Note_off_c, 7, 79, 0
9, 38912, Note_on_c, 7, 81, 96
9, 38912, Note_off_c, 7, 71, 0
9, 38912, Note_on_c, 7, 72, 96
9, 38912, Note_off_c, 7, 60, 0
9, 38912, Note_on_c, 7, 60, 96
9, 39424, Note_off_c, 7, 81, 0
9, 39424, Note_off_c, 7, 72, 0
9, 39936, Note_off_c, 7, 60, 0
9, 39936, Note_on_c, 7, 60, 96
9, 40448, Note_on_c, 7, 74, 96
9, 40448, Note_on_c, 7, 74, 96
9, 40704, Note_off_c, 7, 74, 0
9, 40704, Note_on_c, 7, 76, 96
9, 40704, Note_off_c, 7, 74, 0
9, 40704, Note_on_c, 7, 76, 96
9, 40960, Note_off_c, 7, 76, 0
9, 40960, Note_on_c, 7, 74, 96
9, 40960, Note_off_c, 7, 76, 0
9, 40960, Note_on_c, 7, 74, 96
9, 40960, Note_off_c, 7, 60, 0
9, 40960, Note_on_c, 7, 59, 96
9, 41216, Note_off_c, 7, 74, 0
9, 41216, Note_on_c, 7, 72, 96
9, 41216, Note_off_c, 7, 74, 0
9, 41216, Note_on_c, 7, 72, 96
9, 41472, Note_off_c, 7, 72, 0
9, 41472, Note_on_c, 7, 71, 96
9, 41472, Note_off_c, 7, 72, 0
9, 41472, Note_on_c, 7, 71, 96
9, 41728, Note_off_c, 7, 71, 0
9, 41728, Note_on_c, 7, 72, 96
9, 41728, Note_off_c, 7, 71, 0
9, 41728, Note_on_c, 7, 72, 96
9, 41984, Note_off_c, 7, 72, 0
9, 41984, Note_on_c, 7, 74, 96
9, 41984, Note_off_c, 7, 72, 0
9, 41984, Note_on_c, 7, 74, 96
9, 41984, Note_off_c, 7, 59, 0
9, 41984, Note_on_c, 7, 59, 96
9, 42496, Note_off_c, 7, 74, 0
9, 42496, Note_off_c, 7, 74, 0
9, 43008, Note_off_c, 7, 59, 0
9, 43008, Note_on_c, 7, 60, 96
9, 43520, Note_on_c, 7, 76, 96
9, 43520, Note_on_c, 7, 72, 96
9, 43520, Note_off_c, 7, 60, 0
9, 43520, Note_on_c, 7, 72, 96
9, 43776, Note_off_c, 7, 76, 0
9, 43776, Note_on_c, 7, 77, 96
9, 43776, Note_off_c, 7, 72, 0
9, 43776, Note_on_c, 7, 74, 96
9, 44032, Note_off_c, 7, 77, 0
9, 44032, Note_on_c, 7, 79, 96
9, 44032, Note_off_c, 7, 74, 0
9, 44032, Note_on_c, 7, 76, 96
9, 44032, Note_off_c, 7, 72, 0
9, 44032, Note_on_c, 7, 72, 96
9, 44544, Note_off_c, 7, 79, 0
9, 44544, Note_on_c, 7, 79, 96
9, 44544, Note_off_c, 7, 76, 0
9, 44544, Note_on_c, 7, 76, 96
9, 44544, Note_off_c, 7, 72, 0
9, 44544, Note_on_c, 7, 72, 96
9, 44800, Note_off_c, 7, 79, 0
9, 44800, Note_on_c, 7, 81, 96
9, 44800, Note_off_c, 7, 76, 0
9, 44800, Note_on_c, 7, 77, 96
9, 45056, Note_off_c, 7, 81, 0
9, 45056, Note_on_c, 7, 82, 96
9, 45056, Note_off_c, 7, 77, 0
9, 45056, Note_on_c, 7, 79, 96
9, 45056, Note_off_c, 7, 72, 0
9, 45056, Note_on_c, 7, 72, 96
9, 45568, Note_off_c, 7, 82, 0
9, 45568, Note_on_c, 7, 81, 96
9, 45568, Note_off_c, 7, 79, 0
9, 45568, Note_on_c, 7, 77, 96
9, 45568, Note_off_c, 7, 72, 0
9, 45568, Note_on_c, 7, 72, 96
9, 45824, Note_off_c, 7, 81, 0
9, 45824, Note_on_c, 7, 79, 96
9, 45824, Note_off_c, 7, 77, 0
9, 45824, Note_on_c, 7, 76, 96
9, 46080, Note_off_c, 7, 79, 0
9, 46080, Note_off_c, 7, 76, 0
9, 46080, Note_off_c, 7, 72, 0
9, 46080, Note_on_c, 7, 81, 96
9, 46080, Note_on_c, 7, 77, 96
9, 46080, Note_on_c, 7, 72, 96
9, 46592, Note_off_c, 7, 81, 0
9, 46592, Note_on_c, 7, 79, 96
9, 46592, Note_off_c, 7, 77, 0
9, 46592, Note_on_c, 7, 74, 96
9, 46592, Note_off_c, 7, 72, 0
9, 46592, Note_on_c, 7, 74, 96
9, 46848, Note_off_c, 7, 79, 0
9, 46848, Note_on_c, 7, 77, 96
9, 47104, Note_off_c, 7, 77, 0
9, 47104, Note_on_c, 7, 76, 96
9, 47104, Note_off_c, 7, 74, 0
9, 47104, Note_on_c, 7, 67, 96
9, 47104, Note_off_c, 7, 74, 0
9, 47104, Note_on_c, 7, 72, 96
9, 47616, Note_off_c, 7, 76, 0
9, 47616, Note_on_c, 7, 79, 96
9, 47616, Note_off_c, 7, 67, 0
9, 47616, Note_on_c, 7, 72, 96
9, 47616, Note_off_c, 7, 72, 0
9, 47616, Note_on_c, 7, 67, 96
9, 48128, Note_off_c, 7, 79, 0
9, 48128, Note_on_c, 7, 77, 96
9, 48128, Note_off_c, 7, 72, 0
9, 48128, Note_on_c, 7, 72, 96
9, 48128, Note_off_c, 7, 67, 0
9, 48128, Note_on_c, 7, 67, 96
9, 48384, Note_off_c, 7, 77, 0
9, 48384, Note_on_c, 7, 76, 96
9, 48640, Note_off_c, 7, 76, 0
9, 48640, Note_on_c, 7, 74, 96
9, 48640, Note_off_c, 7, 72, 0
9, 48640, Note_on_c, 7, 71, 96
9, 48640, Note_off_c, 7, 67, 0
9, 48640, Note_on_c, 7, 67, 96
9, 48896, Note_off_c, 7, 74, 0
9, 48896, Note_on_c, 7, 76, 96
9, 49152, Note_off_c, 7, 76, 0
9, 49152, Note_off_c, 7, 71, 0
9, 49152, Note_off_c, 7, 67, 0
9, 49152, Note_on_c, 7, 72, 96
9, 49152, Note_on_c, 7, 67, 96
9, 49152, Note_on_c, 7, 64, 96
9, 50176, Note_off_c, 7, 72, 0
9, 50176, Note_on_c, 7, 60, 96
9, 50176, Note_off_c, 7, 67, 0
9, 50176, Note_on_c, 7, 60, 96
9, 50176, Note_off_c, 7, 64, 0
9, 50176, Note_on_c, 7, 60, 96
9, 51200, Note_off_c, 7, 60, 0
9, 51200, Note_on_c, 7, 60, 96
9, 51200, Note_off_c, 7, 60, 0
9, 51200, Note_on_c, 7, 60, 96
9, 51200, Note_off_c, 7, 60, 0
9, 51200, Note_on_c, 7, 60, 96
9, 52224, Note_off_c, 7, 60, 0
9, 52224, Note_off_c, 7, 60, 0
9, 52224, Note_off_c, 7, 60, 0
9, 52224, Note_on_c, 7, 60, 96
9, 52224, Note_on_c, 7, 60, 96
9, 52224, Note_on_c, 7, 60, 96
9, 53248, Note_off_c, 7, 60, 0
9, 53248, Note_on_c, 7, 59, 96
9, 53248, Note_off_c, 7, 60, 0
9, 53248, Note_on_c, 7, 59, 96
9, 53248, Note_off_c, 7, 60, 0
9, 53248, Note_on_c, 7, 59, 96
9, 54272, Note_off_c, 7, 59, 0
9, 54272, Note_on_c, 7, 59, 96
9, 54272, Note_off_c, 7, 59, 0
9, 54272, Note_on_c, 7, 59, 96
9, 54272, Note_off_c, 7, 59, 0
9, 54272, Note_on_c, 7, 59, 96
9, 55296, Note_off_c, 7, 59, 0
9, 55296, Note_off_c, 7, 59, 0
9, 55296, Note_off_c, 7, 59, 0
9, 55296, Note_on_c, 7, 60, 96
9, 55296, Note_on_c, 7, 60, 96
9, 55296, Note_on_c, 7, 60, 96
9, 56320, Note_off_c, 7, 60, 0
9, 56320, Note_off_c, 7, 60, 0
9, 56320, Note_off_c, 7, 60, 0
9, 56832, Note_on_c, 7, 64, 96
9, 56832, Note_on_c, 7, 64, 96
9, 56832, Note_on_c, 7, 64, 96
9, 57088, Note_off_c, 7, 64, 0
9, 57088, Note_on_c, 7, 62, 96
9, 57088, Note_off_c, 7, 64, 0
9, 57088, Note_on_c, 7, 62, 96
9, 57088, Note_off_c, 7, 64, 0
9, 57088, Note_on_c, 7, 62, 96
9, 57344, Note_off_c, 7, 62, 0
9, 57344, Note_on_c, 7, 60, 96
9, 57344, Note_off_c, 7, 62, 0
9, 57344, Note_on_c, 7, 60, 96
9, 57344, Note_off_c, 7, 62, 0
9, 57344, Note_on_c, 7, 60, 96
9, 57600, Note_off_c, 7, 60, 0
9, 57600, Note_on_c, 7, 64, 96
9, 57600, Note_off_c, 7, 60, 0
9, 57600, Note_on_c, 7, 64, 96
9, 57600, Note_off_c, 7, 60, 0
9, 57600, Note_on_c, 7, 64, 96
9, 57856, Note_off_c, 7, 64, 0
9, 57856, Note_on_c, 7, 62, 96
9, 57856, Note_off_c, 7, 64, 0
9, 57856, Note_on_c, 7, 62, 96
9, 57856, Note_off_c, 7, 64, 0
9, 57856, Note_on_c, 7, 62, 96
9, 58112, Note_off_c, 7, 62, 0
9, 58112, Note_on_c, 7, 65, 96
9, 58112, Note_off_c, 7, 62, 0
9, 58112, Note_on_c, 7, 65, 96
9, 58112, Note_off_c, 7, 62, 0
9, 58112, Note_on_c, 7, 65, 96
9, 58368, Note_off_c, 7, 65, 0
9, 58368, Note_off_c, 7, 65, 0
9, 58368, Note_off_c, 7, 65, 0
9, 58368, Note_on_c, 7, 64, 96
9, 58368, Note_on_c, 7, 64, 96
9, 58368, Note_on_c, 7, 64, 96
9, 58624, Note_off_c, 7, 64, 0
9, 58624, Note_on_c, 7, 62, 96
9, 58624, Note_off_c, 7, 64, 0
9, 58624, Note_on_c, 7, 62, 96
9, 58624, Note_off_c, 7, 64, 0
9, 58624, Note_on_c, 7, 62, 96
9, 58880, Note_off_c, 7, 62, 0
9, 58880, Note_on_c, 7, 64, 96
9, 58880, Note_off_c, 7, 62, 0
9, 58880, Note_on_c, 7, 64, 96
9, 58880, Note_off_c, 7, 62, 0
9, 58880, Note_on_c, 7, 64, 96
9, 59136, Note_off_c, 7, 64, 0
9, 59136, Note_on_c, 7, 60, 96
9, 59136, Note_off_c, 7, 64, 0
9, 59136, Note_on_c, 7, 60, 96
9, 59136, Note_off_c, 7, 64, 0
9, 59136, Note_on_c, 7, 60, 96
9, 59392, Note_off_c, 7, 60, 0
9, 59392, Note_on_c, 7, 66, 96
9, 59392, Note_off_c, 7, 60, 0
9, 59392, Note_on_c, 7, 66, 96
9, 59392, Note_off_c, 7, 60, 0
9, 59392, Note_on_c, 7, 66, 96
9, 59648, Note_off_c, 7, 66, 0
9, 59648, Note_on_c, 7, 64, 96
9, 59648, Note_off_c, 7, 66, 0
9, 59648, Note_on_c, 7, 64, 96
9, 59648, Note_off_c, 7, 66, 0
9, 59648, Note_on_c, 7, 64, 96
9, 59904, Note_off_c, 7, 64, 0
9, 59904, Note_on_c, 7, 66, 96
9, 59904, Note_off_c, 7, 64, 0
9, 59904, Note_on_c, 7, 66, 96
9, 59904, Note_off_c, 7, 64, 0
9, 59904, Note_on_c, 7, 66, 96
9, 60160, Note_off_c, 7, 66, 0
9, 60160, Note_on_c, 7, 62, 96
9, 60160, Note_off_c, 7, 66, 0
9, 60160, Note_on_c, 7, 62, 96
9, 60160, Note_off_c, 7, 66, 0
9, 60160, Note_on_c, 7, 62, 96
9, 60416, Note_off_c, 7, 62, 0
9, 60416, Note_on_c, 7, 69, 96
9, 60416, Note_off_c, 7, 62, 0
9, 60416, Note_on_c, 7, 69, 96
9, 60416, Note_off_c, 7, 62, 0
9, 60416, Note_on_c, 7, 69, 96
9, 60672, Note_off_c, 7, 69, 0
9, 60672, Note_on_c, 7, 67, 96
9, 60672, Note_off_c, 7, 69, 0
9, 60672, Note_on_c, 7, 67, 96
9, 60672, Note_off_c, 7, 69, 0
9, 60672, Note_on_c, 7, 67, 96
9, 60928, Note_off_c, 7, 67, 0
9, 60928, Note_on_c, 7, 69, 96
9, 60928, Note_off_c, 7, 67, 0
9, 60928, Note_on_c, 7, 69, 96
9, 60928, Note_off_c, 7, 67, 0
9, 60928, Note_on_c, 7, 69, 96
9, 61184, Note_off_c, 7, 69, 0
9, 61184, Note_on_c, 7, 66, 96
9, 61184, Note_off_c, 7, 69, 0
9, 61184, Note_on_c, 7, 66, 96
9, 61184, Note_off_c, 7, 69, 0
9, 61184, Note_on_c, 7, 66, 96
9, 61440, Note_off_c, 7, 66, 0
9, 61440, Note_off_c, 7, 66, 0
9, 61440, Note_off_c, 7, 66, 0
9, 61440, Note_on_c, 7, 71, 96
9, 61440, Note_on_c, 7, 71, 96
9, 61440, Note_on_c, 7, 62, 96
9, 61952, Note_off_c, 7, 71, 0
9, 61952, Note_on_c, 7, 72, 96
9, 61952, Note_off_c, 7, 71, 0
9, 61952, Note_on_c, 7, 67, 96
9, 61952, Note_off_c, 7, 62, 0
9, 61952, Note_on_c, 7, 57, 96
9, 62208, Note_off_c, 7, 72, 0
9, 62208, Note_on_c, 7, 74, 96
9, 62208, Note_off_c, 7, 57, 0
9, 62208, Note_on_c, 7, 59, 96
9, 62464, Note_off_c, 7, 74, 0
9, 62464, Note_on_c, 7, 76, 96
9, 62464, Note_off_c, 7, 67, 0
9, 62464, Note_off_c, 7, 59, 0
9, 62464, Note_on_c, 7, 60, 96
9, 62720, Note_on_c, 7, 64, 96
9, 62976, Note_off_c, 7, 76, 0
9, 62976, Note_on_c, 7, 72, 96
9, 62976, Note_off_c, 7, 64, 0
9, 62976, Note_on_c, 7, 65, 96
9, 62976, Note_off_c, 7, 60, 0
9, 62976, Note_on_c, 7, 62, 96
9, 63232, Note_off_c, 7, 65, 0
9, 63232, Note_on_c, 7, 67, 96
9, 63232, Note_off_c, 7, 62, 0
9, 63232, Note_on_c, 7, 64, 96
9, 63488, Note_off_c, 7, 67, 0
9, 63488, Note_on_c, 7, 69, 96
9, 63488, Note_off_c, 7, 64, 0
9, 63488, Note_on_c, 7, 65, 96
9, 63744, Note_off_c, 7, 72, 0
9, 63744, Note_on_c, 7, 74, 96
9, 63744, Note_off_c, 7, 69, 0
9, 63744, Note_on_c, 7, 71, 96
9, 64000, Note_off_c, 7, 74, 0
9, 64000, Note_on_c, 7, 76, 96
9, 64000, Note_off_c, 7, 71, 0
9, 64000, Note_on_c, 7, 72, 96
9, 64000, Note_off_c, 7, 65, 0
9, 64000, Note_on_c, 7, 64, 96
9, 64256, Note_off_c, 7, 76, 0
9, 64256, Note_on_c, 7, 72, 96
9, 64256, Note_off_c, 7, 72, 0
9, 64256, Note_on_c, 7, 69, 96
9, 64256, Note_off_c, 7, 64, 0
9, 64256, Note_on_c, 7, 65, 96
9, 64512, Note_off_c, 7, 72, 0
9, 64512, Note_off_c, 7, 69, 0
9, 64512, Note_off_c, 7, 65, 0
9, 64512, Note_on_c, 7, 77, 96
9, 64512, Note_on_c, 7, 74, 96
9, 64512, Note_on_c, 7, 62, 96
9, 65024, Note_off_c, 7, 77, 0
9, 65024, Note_on_c, 7, 74, 96
9, 65024, Note_off_c, 7, 74, 0
9, 65024, Note_on_c, 7, 62, 96
9, 65536, Note_off_c, 7, 62, 0
9, 65792, Note_off_c, 7, 74, 0
9, 65792, Note_on_c, 7, 72, 96
9, 65792, Note_on_c, 7, 62, 96
9, 66048, Note_off_c, 7, 72, 0
9, 66048, Note_on_c, 7, 74, 96
9, 66048, Note_off_c, 7, 62, 0
9, 66048, Note_on_c, 7, 67, 96
9, 66304, Note_off_c, 7, 74, 0
9, 66304, Note_on_c, 7, 71, 96
9, 66304, Note_off_c, 7, 67, 0
9, 66304, Note_on_c, 7, 69, 96
9, 66560, Note_off_c, 7, 71, 0
9, 66560, Note_on_c, 7, 79, 96
9, 66560, Note_off_c, 7, 69, 0
9, 66560, Note_on_c, 7, 71, 96
9, 66816, Note_off_c, 7, 79, 0
9, 66816, Note_on_c, 7, 77, 96
9, 66816, Note_off_c, 7, 71, 0
9, 66816, Note_on_c, 7, 72, 96
9, 67072, Note_off_c, 7, 77, 0
9, 67072, Note_on_c, 7, 79, 96
9, 67072, Note_off_c, 7, 72, 0
9, 67072, Note_on_c, 7, 74, 96
9, 67328, Note_off_c, 7, 79, 0
9, 67328, Note_on_c, 7, 74, 96
9, 67328, Note_off_c, 7, 74, 0
9, 67328, Note_on_c, 7, 71, 96
9, 67584, Note_off_c, 7, 74, 0
9, 67584, Note_off_c, 7, 71, 0
9, 67584, Note_off_c, 7, 62, 0
9, 67584, Note_on_c, 7, 76, 96
9, 67584, Note_on_c, 7, 76, 96
9, 67584, Note_on_c, 7, 60, 96
9, 68096, Note_off_c, 7, 76, 0
9, 68096, Note_on_c, 7, 79, 96
9, 68096, Note_off_c, 7, 76, 0
9, 68096, Note_on_c, 7, 67, 96
9, 68608, Note_off_c, 7, 79, 0
9, 68608, Note_on_c, 7, 84, 96
9, 68608, Note_off_c, 7, 67, 0
9, 68608, Note_off_c, 7, 60, 0
9, 68864, Note_on_c, 7, 79, 96
9, 69120, Note_off_c, 7, 84, 0
9, 69120, Note_on_c, 7, 83, 96
9, 69120, Note_off_c, 7, 79, 0
9, 69120, Note_on_c, 7, 77, 96
9, 69120, Note_on_c, 7, 59, 96
9, 69376, Note_off_c, 7, 83, 0
9, 69376, Note_on_c, 7, 81, 96
9, 69376, Note_off_c, 7, 77, 0
9, 69376, Note_on_c, 7, 76, 96
9, 69376, Note_off_c, 7, 59, 0
9, 69376, Note_on_c, 7, 60, 96
9, 69632, Note_off_c, 7, 81, 0
9, 69632, Note_on_c, 7, 79, 96
9, 69632, Note_off_c, 7, 76, 0
9, 69632, Note_on_c, 7, 74, 96
9, 69632, Note_off_c, 7, 60, 0
9, 69632, Note_on_c, 7, 62, 96
9, 69888, Note_off_c, 7, 79, 0
9, 69888, Note_on_c, 7, 81, 96
9, 69888, Note_off_c, 7, 74, 0
9, 69888, Note_on_c, 7, 76, 96
9, 70144, Note_off_c, 7, 81, 0
9, 70144, Note_on_c, 7, 77, 96
9, 70144, Note_off_c, 7, 76, 0
9, 70144, Note_on_c, 7, 72, 96
9, 70144, Note_off_c, 7, 62, 0
9, 70144, Note_on_c, 7, 55, 96
9, 70400, Note_off_c, 7, 77, 0
9, 70400, Note_on_c, 7, 79, 96
9, 70400, Note_off_c, 7, 72, 0
9, 70400, Note_on_c, 7, 74, 96
9, 70656, Note_off_c, 7, 79, 0
9, 70656, Note_off_c, 7, 74, 0
9, 70656, Note_off_c, 7, 55, 0
9, 70656, Note_on_c, 7, 76, 96
9, 70656, Note_on_c, 7, 76, 96
9, 70656, Note_on_c, 7, 67, 96
9, 70912, Note_off_c, 7, 76, 0
9, 70912, Note_on_c, 7, 77, 96
9, 70912, Note_off_c, 7, 76, 0
9, 70912, Note_on_c, 7, 74, 96
9, 71168, Note_off_c, 7, 77, 0
9, 71168, Note_on_c, 7, 76, 96
9, 71168, Note_off_c, 7, 74, 0
9, 71168, Note_on_c, 7, 76, 96
9, 71168, Note_off_c, 7, 67, 0
9, 71168, Note_on_c, 7, 64, 96
9, 71424, Note_off_c, 7, 76, 0
9, 71424, Note_on_c, 7, 77, 96
9, 71424, Note_off_c, 7, 76, 0
9, 71424, Note_on_c, 7, 72, 96
9, 71680, Note_off_c, 7, 77, 0
9, 71680, Note_on_c, 7, 79, 96
9, 71680, Note_off_c, 7, 72, 0
9, 71680, Note_on_c, 7, 76, 96
9, 71680, Note_off_c, 7, 64, 0
9, 71936, Note_off_c, 7, 79, 0
9, 71936, Note_on_c, 7, 78, 96
9, 71936, Note_off_c, 7, 76, 0
9, 71936, Note_on_c, 7, 74, 96
9, 72192, Note_off_c, 7, 78, 0
9, 72192, Note_on_c, 7, 79, 96
9, 72192, Note_off_c, 7, 74, 0
9, 72192, Note_on_c, 7, 76, 96
9, 72192, Note_on_c, 7, 55, 96
9, 72448, Note_off_c, 7, 79, 0
9, 72448, Note_on_c, 7, 76, 96
9, 72448, Note_off_c, 7, 76, 0
9, 72448, Note_on_c, 7, 72, 96
9, 72704, Note_off_c, 7, 76, 0
9, 72704, Note_on_c, 7, 81, 96
9, 72704, Note_off_c, 7, 72, 0
9, 72704, Note_on_c, 7, 78, 96
9, 72704, Note_off_c, 7, 55, 0
9, 72704, Note_on_c, 7, 57, 96
9, 72960, Note_off_c, 7, 81, 0
9, 72960, Note_on_c, 7, 79, 96
9, 72960, Note_off_c, 7, 78, 0
9, 72960, Note_on_c, 7, 76, 96
9, 73216, Note_off_c, 7, 79, 0
9, 73216, Note_on_c, 7, 81, 96
9, 73216, Note_off_c, 7, 76, 0
9, 73216, Note_on_c, 7, 78, 96
9, 73216, Note_off_c, 7, 57, 0
9, 73216, Note_on_c, 7, 55, 96
9, 73472, Note_off_c, 7, 81, 0
9, 73472, Note_on_c, 7, 78, 96
9, 73472, Note_off_c, 7, 78, 0
9, 73472, Note_on_c, 7, 74, 96
9, 73472, Note_off_c, 7, 55, 0
9, 73472, Note_on_c, 7, 57, 96
9, 73728, Note_off_c, 7, 78, 0
9, 73728, Note_off_c, 7, 74, 0
9, 73728, Note_off_c, 7, 57, 0
9, 73728, Note_on_c, 7, 83, 96
9, 73728, Note_on_c, 7, 74, 96
9, 73728, Note_on_c, 7, 55, 96
9, 73984, Note_off_c, 7, 83, 0
9, 73984, Note_on_c, 7, 81, 96
9, 73984, Note_off_c, 7, 74, 0
9, 73984, Note_on_c, 7, 72, 96
9, 74240, Note_off_c, 7, 81, 0
9, 74240, Note_on_c, 7, 83, 96
9, 74240, Note_off_c, 7, 72, 0
9, 74240, Note_on_c, 7, 74, 96
9, 74240, Note_off_c, 7, 55, 0
9, 74240, Note_on_c, 7, 55, 96
9, 74496, Note_off_c, 7, 83, 0
9, 74496, Note_on_c, 7, 79, 96
9, 74496, Note_off_c, 7, 74, 0
9, 74496, Note_on_c, 7, 71, 96
9, 74496, Note_off_c, 7, 55, 0
9, 74496, Note_on_c, 7, 57, 96
9, 74752, Note_off_c, 7, 79, 0
9, 74752, Note_on_c, 7, 74, 96
9, 74752, Note_off_c, 7, 71, 0
9, 74752, Note_on_c, 7, 71, 96
9, 74752, Note_off_c, 7, 57, 0
9, 74752, Note_on_c, 7, 59, 96
9, 75008, Note_off_c, 7, 74, 0
9, 75008, Note_on_c, 7, 72, 96
9, 75008, Note_off_c, 7, 71, 0
9, 75008, Note_on_c, 7, 69, 96
9, 75264, Note_off_c, 7, 72, 0
9, 75264, Note_on_c, 7, 74, 96
9, 75264, Note_off_c, 7, 69, 0
9, 75264, Note_on_c, 7, 71, 96
9, 75264, Note_off_c, 7, 59, 0
9, 75264, Note_on_c, 7, 55, 96
9, 75520, Note_off_c, 7, 74, 0
9, 75520, Note_on_c, 7, 71, 96
9, 75520, Note_off_c, 7, 71, 0
9, 75520, Note_on_c, 7, 67, 96
9, 75776, Note_off_c, 7, 71, 0
9, 75776, Note_on_c, 7, 79, 96
9, 75776, Note_off_c, 7, 67, 0
9, 75776, Note_on_c, 7, 67, 96
9, 75776, Note_off_c, 7, 55, 0
9, 75776, Note_on_c, 7, 64, 96
9, 76032, Note_off_c, 7, 79, 0
9, 76032, Note_on_c, 7, 77, 96
9, 76288, Note_off_c, 7, 77, 0
9, 76288, Note_on_c, 7, 79, 96
9, 76544, Note_off_c, 7, 79, 0
9, 76544, Note_on_c, 7, 76, 96
9, 76800, Note_off_c, 7, 76, 0
9, 76800, Note_on_c, 7, 72, 96
9, 77056, Note_off_c, 7, 72, 0
9, 77056, Note_on_c, 7, 71, 96
9, 77056, Note_off_c, 7, 67, 0
9, 77056, Note_on_c, 7, 71, 96
9, 77056, Note_off_c, 7, 64, 0
9, 77056, Note_on_c, 7, 67, 96
9, 77312, Note_off_c, 7, 71, 0
9, 77312, Note_on_c, 7, 72, 96
9, 77312, Note_off_c, 7, 71, 0
9, 77312, Note_on_c, 7, 69, 96
9, 77312, Note_off_c, 7, 67, 0
9, 77312, Note_on_c, 7, 65, 96
9, 77568, Note_off_c, 7, 72, 0
9, 77568, Note_on_c, 7, 69, 96
9, 77568, Note_off_c, 7, 69, 0
9, 77568, Note_on_c, 7, 67, 96
9, 77568, Note_off_c, 7, 65, 0
9, 77568, Note_on_c, 7, 64, 96
9, 77824, Note_off_c, 7, 69, 0
9, 77824, Note_on_c, 7, 74, 96
9, 77824, Note_off_c, 7, 67, 0
9, 77824, Note_on_c, 7, 65, 96
9, 77824, Note_off_c, 7, 64, 0
9, 77824, Note_on_c, 7, 62, 96
9, 78080, Note_off_c, 7, 74, 0
9, 78080, Note_on_c, 7, 72, 96
9, 78080, Note_off_c, 7, 65, 0
9, 78080, Note_on_c, 7, 69, 96
9, 78080, Note_off_c, 7, 62, 0
9, 78080, Note_on_c, 7, 65, 96
9, 78336, Note_off_c, 7, 72, 0
9, 78336, Note_on_c, 7, 74, 96
9, 78336, Note_off_c, 7, 69, 0
9, 78336, Note_on_c, 7, 67, 96
9, 78336, Note_off_c, 7, 65, 0
9, 78336, Note_on_c, 7, 64, 96
9, 78592, Note_off_c, 7, 74, 0
9, 78592, Note_on_c, 7, 71, 96
9, 78592, Note_off_c, 7, 67, 0
9, 78592, Note_on_c, 7, 65, 96
9, 78592, Note_off_c, 7, 64, 0
9, 78592, Note_on_c, 7, 62, 96
9, 78848, Note_off_c, 7, 71, 0
9, 78848, Note_on_c, 7, 76, 96
9, 78848, Note_off_c, 7, 65, 0
9, 78848, Note_on_c, 7, 64, 96
9, 78848, Note_off_c, 7, 62, 0
9, 78848, Note_on_c, 7, 60, 96
9, 79104, Note_off_c, 7, 76, 0
9, 79104, Note_on_c, 7, 79, 96
9, 79360, Note_off_c, 7, 79, 0
9, 79360, Note_on_c, 7, 77, 96
9, 79360, Note_off_c, 7, 64, 0
9, 79360, Note_on_c, 7, 62, 96
9, 79360, Note_off_c, 7, 60, 0
9, 79360, Note_on_c, 7, 62, 96
9, 79616, Note_off_c, 7, 77, 0
9, 79616, Note_on_c, 7, 76, 96
9, 79616, Note_off_c, 7, 62, 0
9, 79616, Note_on_c, 7, 60, 96
9, 79616, Note_off_c, 7, 62, 0
9, 79616, Note_on_c, 7, 64, 96
9, 79872, Note_off_c, 7, 76, 0
9, 79872, Note_off_c, 7, 60, 0
9, 79872, Note_off_c, 7, 64, 0
9, 79872, Note_on_c, 7, 81, 96
9, 79872, Note_on_c, 7, 69, 96
9, 79872, Note_on_c, 7, 65, 96
9, 80128, Note_off_c, 7, 81, 0
9, 80128, Note_on_c, 7, 79, 96
9, 80384, Note_off_c, 7, 79, 0
9, 80384, Note_on_c, 7, 81, 96
9, 80384, Note_off_c, 7, 69, 0
9, 80384, Note_on_c, 7, 67, 96
9, 80384, Note_off_c, 7, 65, 0
9, 80384, Note_on_c, 7, 57, 96
9, 80640, Note_off_c, 7, 81, 0
9, 80640, Note_on_c, 7, 74, 96
9, 80640, Note_off_c, 7, 67, 0
9, 80640, Note_on_c, 7, 65, 96
9, 80640, Note_off_c, 7, 57, 0
9, 80640, Note_on_c, 7, 60, 96
9, 80896, Note_off_c, 7, 74, 0
9, 80896, Note_on_c, 7, 74, 96
9, 80896, Note_off_c, 7, 65, 0
9, 80896, Note_on_c, 7, 67, 96
9, 80896, Note_off_c, 7, 60, 0
9, 80896, Note_on_c, 7, 59, 96
9, 81152, Note_off_c, 7, 74, 0
9, 81152, Note_on_c, 7, 72, 96
9, 81408, Note_off_c, 7, 72, 0
9, 81408, Note_on_c, 7, 74, 96
9, 81664, Note_off_c, 7, 74, 0
9, 81664, Note_on_c, 7, 71, 96
9, 81920, Note_off_c, 7, 71, 0
9, 81920, Note_on_c, 7, 67, 96
9, 82176, Note_off_c, 7, 67, 0
9, 82176, Note_on_c, 7, 65, 96
9, 82432, Note_off_c, 7, 65, 0
9, 82432, Note_on_c, 7, 67, 96
9, 82688, Note_off_c, 7, 67, 0
9, 82688, Note_on_c, 7, 62, 96
9, 82944, Note_off_c, 7, 62, 0
9, 82944, Note_off_c, 7, 67, 0
9, 82944, Note_off_c, 7, 59, 0
9, 82944, Note_on_c, 7, 64, 96
9, 82944, Note_on_c, 7, 67, 96
9, 82944, Note_on_c, 7, 64, 96
9, 83968, Note_off_c, 7, 64, 0
9, 83968, Note_on_c, 7, 60, 96
9, 83968, Note_off_c, 7, 67, 0
9, 83968, Note_on_c, 7, 60, 96
9, 83968, Note_off_c, 7, 64, 0
9, 83968, Note_on_c, 7, 60, 96
9, 84992, Note_off_c, 7, 60, 0
9, 84992, Note_on_c, 7, 60, 96
9, 84992, Note_off_c, 7, 60, 0
9, 84992, Note_on_c, 7, 60, 96
9, 84992, Note_off_c, 7, 60, 0
9, 84992, Note_on_c, 7, 60, 96
9, 86016, Note_off_c, 7, 60, 0
9, 86016, Note_off_c, 7, 60, 0
9, 86016, Note_off_c, 7, 60, 0
9, 86016, Note_on_c, 7, 60, 96
9, 86016, Note_on_c, 7, 60, 96
9, 86016, Note_on_c, 7, 60, 96
9, 87040, Note_off_c, 7, 60, 0
9, 87040, Note_on_c, 7, 59, 96
9, 87040, Note_off_c, 7, 60, 0
9, 87040, Note_on_c, 7, 59, 96
9, 87040, Note_off_c, 7, 60, 0
9, 87040, Note_on_c, 7, 59, 96
9, 88064, Note_off_c, 7, 59, 0
9, 88064, Note_on_c, 7, 59, 96
9, 88064, Note_off_c, 7, 59, 0
9, 88064, Note_on_c, 7, 59, 96
9, 88064, Note_off_c, 7, 59, 0
9, 88064, Note_on_c, 7, 59, 96
9, 89088, Note_off_c, 7, 59, 0
9, 89088, Note_off_c, 7, 59, 0
9, 89088, Note_off_c, 7, 59, 0
9, 89088, Note_on_c, 7, 60, 96
9, 89088, Note_on_c, 7, 60, 96
9, 89088, Note_on_c, 7, 60, 96
9, 89600, Note_off_c, 7, 60, 0
9, 89600, Note_on_c, 7, 64, 96
9, 89600, Note_off_c, 7, 60, 0
9, 89600, Note_on_c, 7, 64, 96
9, 89600, Note_off_c, 7, 60, 0
9, 89600, Note_on_c, 7, 60, 96
9, 89856, Note_off_c, 7, 64, 0
9, 89856, Note_on_c, 7, 65, 96
9, 89856, Note_off_c, 7, 64, 0
9, 89856, Note_on_c, 7, 65, 96
9, 89856, Note_off_c, 7, 60, 0
9, 89856, Note_on_c, 7, 59, 96
9, 90112, Note_off_c, 7, 65, 0
9, 90112, Note_on_c, 7, 67, 96
9, 90112, Note_off_c, 7, 65, 0
9, 90112, Note_on_c, 7, 67, 96
9, 90112, Note_off_c, 7, 59, 0
9, 90112, Note_on_c, 7, 60, 96
9, 90624, Note_off_c, 7, 67, 0
9, 90624, Note_on_c, 7, 69, 96
9, 90624, Note_off_c, 7, 67, 0
9, 90624, Note_on_c, 7, 69, 96
9, 90624, Note_off_c, 7, 60, 0
9, 90624, Note_on_c, 7, 64, 96
9, 90880, Note_off_c, 7, 69, 0
9, 90880, Note_on_c, 7, 71, 96
9, 90880, Note_off_c, 7, 69, 0
9, 90880, Note_on_c, 7, 71, 96
9, 91136, Note_off_c, 7, 71, 0
9, 91136, Note_on_c, 7, 72, 96
9, 91136, Note_off_c, 7, 71, 0
9, 91136, Note_on_c, 7, 72, 96
9, 91136, Note_off_c, 7, 64, 0
9, 91136, Note_on_c, 7, 64, 96
9, 91648, Note_off_c, 7, 72, 0
9, 91648, Note_on_c, 7, 71, 96
9, 91648, Note_off_c, 7, 72, 0
9, 91648, Note_on_c, 7, 71, 96
9, 91648, Note_off_c, 7, 64, 0
9, 91648, Note_on_c, 7, 62, 96
9, 91904, Note_off_c, 7, 71, 0
9, 91904, Note_on_c, 7, 69, 96
9, 91904, Note_off_c, 7, 71, 0
9, 91904, Note_on_c, 7, 69, 96
9, 92160, Note_off_c, 7, 69, 0
9, 92160, Note_off_c, 7, 69, 0
9, 92160, Note_off_c, 7, 62, 0
9, 92160, Note_on_c, 7, 71, 96
9, 92160, Note_on_c, 7, 71, 96
9, 92160, Note_on_c, 7, 62, 96
9, 92672, Note_off_c, 7, 71, 0
9, 92672, Note_on_c, 7, 74, 96
9, 92672, Note_off_c, 7, 71, 0
9, 92672, Note_on_c, 7, 71, 96
9, 93184, Note_off_c, 7, 74, 0
9, 93184, Note_on_c, 7, 71, 96
9, 93184, Note_off_c, 7, 71, 0
9, 93184, Note_on_c, 7, 67, 96
9, 93184, Note_off_c, 7, 62, 0
9, 93696, Note_off_c, 7, 71, 0
9, 93696, Note_on_c, 7, 76, 96
9, 93696, Note_off_c, 7, 67, 0
9, 93696, Note_on_c, 7, 72, 96
9, 94720, Note_off_c, 7, 76, 0
9, 94720, Note_on_c, 7, 74, 96
9, 94720, Note_off_c, 7, 72, 0
9, 94720, Note_on_c, 7, 71, 96
9, 95232, Note_off_c, 7, 74, 0
9, 95232, Note_off_c, 7, 71, 0
9, 95232, Note_on_c, 7, 72, 96
9, 95232, Note_on_c, 7, 69, 96
9, 95232, Note_on_c, 7, 62, 96
9, 95744, Note_off_c, 7, 72, 0
9, 95744, Note_on_c, 7, 72, 96
9, 95744, Note_off_c, 7, 69, 0
9, 95744, Note_on_c, 7, 69, 96
9, 96000, Note_off_c, 7, 72, 0
9, 96000, Note_on_c, 7, 71, 96
9, 96000, Note_off_c, 7, 69, 0
9, 96000, Note_on_c, 7, 67, 96
9, 96256, Note_off_c, 7, 71, 0
9, 96256, Note_on_c, 7, 72, 96
9, 96256, Note_off_c, 7, 67, 0
9, 96256, Note_on_c, 7, 69, 96
9, 96256, Note_off_c, 7, 62, 0
9, 96768, Note_off_c, 7, 72, 0
9, 96768, Note_on_c, 7, 81, 96
9, 96768, Note_off_c, 7, 69, 0
9, 96768, Note_on_c, 7, 72, 96
9, 97792, Note_off_c, 7, 81, 0
9, 97792, Note_on_c, 7, 72, 96
9, 97792, Note_off_c, 7, 72, 0
9, 97792, Note_on_c, 7, 69, 96
9, 98304, Note_off_c, 7, 72, 0
9, 98304, Note_off_c, 7, 69, 0
9, 98304, Note_on_c, 7, 71, 96
9, 98304, Note_on_c, 7, 67, 96
9, 98304, Note_on_c, 7, 62, 96
9, 98816, Note_off_c, 7, 71, 0
9, 98816, Note_on_c, 7, 71, 96
9, 98816, Note_off_c, 7, 67, 0
9, 98816, Note_on_c, 7, 67, 96
9, 98816, Note_off_c, 7, 62, 0
9, 98816, Note_on_c, 7, 62, 96
9, 99072, Note_off_c, 7, 71, 0
9, 99072, Note_on_c, 7, 72, 96
9, 99072, Note_off_c, 7, 67, 0
9, 99072, Note_on_c, 7, 69, 96
9, 99072, Note_off_c, 7, 62, 0
9, 99072, Note_on_c, 7, 60, 96
9, 99328, Note_off_c, 7, 72, 0
9, 99328, Note_on_c, 7, 74, 96
9, 99328, Note_off_c, 7, 69, 0
9, 99328, Note_on_c, 7, 71, 96
9, 99328, Note_off_c, 7, 60, 0
9, 99328, Note_on_c, 7, 59, 96
9, 99840, Note_off_c, 7, 74, 0
9, 99840, Note_on_c, 7, 76, 96
9, 99840, Note_off_c, 7, 71, 0
9, 99840, Note_on_c, 7, 71, 96
9, 99840, Note_off_c, 7, 59, 0
9, 99840, Note_on_c, 7, 55, 96
9, 100096, Note_off_c, 7, 76, 0
9, 100096, Note_on_c, 7, 77, 96
9, 100096, Note_off_c, 7, 71, 0
9, 100096, Note_on_c, 7, 69, 96
9, 100352, Note_off_c, 7, 77, 0
9, 100352, Note_on_c, 7, 79, 96
9, 100352, Note_off_c, 7, 69, 0
9, 100352, Note_on_c, 7, 71, 96
9, 100352, Note_off_c, 7, 55, 0
9, 100352, Note_on_c, 7, 55, 96
9, 100864, Note_off_c, 7, 79, 0
9, 100864, Note_on_c, 7, 77, 96
9, 100864, Note_off_c, 7, 71, 0
9, 100864, Note_on_c, 7, 74, 96
9, 100864, Note_off_c, 7, 55, 0
9, 100864, Note_on_c, 7, 57, 96
9, 101120, Note_off_c, 7, 77, 0
9, 101120, Note_on_c, 7, 76, 96
9, 101120, Note_off_c, 7, 74, 0
9, 101120, Note_on_c, 7, 73, 96
9, 101376, Note_off_c, 7, 76, 0
9, 101376, Note_off_c, 7, 73, 0
9, 101376, Note_off_c, 7, 57, 0
9, 101376, Note_on_c, 7, 77, 96
9, 101376, Note_on_c, 7, 74, 96
9, 101376, Note_on_c, 7, 57, 96
9, 101888, Note_off_c, 7, 57, 0
9, 101888, Note_on_c, 7, 69, 96
9, 102144, Note_off_c, 7, 69, 0
9, 102144, Note_on_c, 7, 67, 96
9, 102400, Note_off_c, 7, 77, 0
9, 102400, Note_off_c, 7, 74, 0
9, 102400, Note_off_c, 7, 67, 0
9, 102400, Note_on_c, 7, 65, 96
9, 102912, Note_off_c, 7, 65, 0
9, 102912, Note_on_c, 7, 62, 96
9, 103424, Note_off_c, 7, 62, 0
9, 103424, Note_on_c, 7, 62, 96
9, 103936, Note_off_c, 7, 62, 0
9, 103936, Note_on_c, 7, 64, 96
9, 104448, Note_off_c, 7, 64, 0
9, 104448, Note_on_c, 7, 64, 96
9, 104960, Note_on_c, 7, 72, 96
9, 104960, Note_on_c, 7, 69, 96
9, 104960, Note_off_c, 7, 64, 0
9, 104960, Note_on_c, 7, 64, 96
9, 105216, Note_off_c, 7, 72, 0
9, 105216, Note_on_c, 7, 74, 96
9, 105216, Note_off_c, 7, 69, 0
9, 105216, Note_on_c, 7, 71, 96
9, 105216, Note_off_c, 7, 64, 0
9, 105216, Note_on_c, 7, 62, 96
9, 105472, Note_off_c, 7, 74, 0
9, 105472, Note_on_c, 7, 76, 96
9, 105472, Note_off_c, 7, 71, 0
9, 105472, Note_on_c, 7, 72, 96
9, 105472, Note_off_c, 7, 62, 0
9, 105472, Note_on_c, 7, 60, 96
9, 105984, Note_off_c, 7, 76, 0
9, 105984, Note_on_c, 7, 78, 96
9, 105984, Note_off_c, 7, 72, 0
9, 105984, Note_on_c, 7, 72, 96
9, 105984, Note_off_c, 7, 60, 0
9, 105984, Note_on_c, 7, 57, 96
9, 106240, Note_off_c, 7, 78, 0
9, 106240, Note_on_c, 7, 79, 96
9, 106240, Note_off_c, 7, 72, 0
9, 106240, Note_on_c, 7, 71, 96
9, 106496, Note_off_c, 7, 79, 0
9, 106496, Note_on_c, 7, 81, 96
9, 106496, Note_off_c, 7, 71, 0
9, 106496, Note_on_c, 7, 73, 96
9, 106496, Note_off_c, 7, 57, 0
9, 106496, Note_on_c, 7, 57, 96
9, 107008, Note_off_c, 7, 81, 0
9, 107008, Note_on_c, 7, 79, 96
9, 107008, Note_off_c, 7, 73, 0
9, 107008, Note_on_c, 7, 76, 96
9, 107008, Note_off_c, 7, 57, 0
9, 107008, Note_on_c, 7, 59, 96
9, 107264, Note_off_c, 7, 79, 0
9, 107264, Note_on_c, 7, 78, 96
9, 107264, Note_off_c, 7, 76, 0
9, 107264, Note_on_c, 7, 75, 96
9, 107520, Note_off_c, 7, 78, 0
9, 107520, Note_off_c, 7, 75, 0
9, 107520, Note_off_c, 7, 59, 0
9, 107520, Note_on_c, 7, 79, 96
9, 107520, Note_on_c, 7, 76, 96
9, 107520, Note_on_c, 7, 59, 96
9, 108032, Note_off_c, 7, 79, 0
9, 108032, Note_on_c, 7, 83, 96
9, 108032, Note_off_c, 7, 76, 0
9, 108032, Note_on_c, 7, 67, 96
9, 108032, Note_off_c, 7, 59, 0
9, 108032, Note_on_c, 7, 71, 96
9, 108288, Note_off_c, 7, 67, 0
9, 108288, Note_on_c, 7, 69, 96
9, 108544, Note_off_c, 7, 69, 0
9, 108544, Note_on_c, 7, 71, 96
9, 108544, Note_off_c, 7, 71, 0
9, 108544, Note_on_c, 7, 71, 96
9, 109056, Note_off_c, 7, 83, 0
9, 109056, Note_on_c, 7, 79, 96
9, 109056, Note_off_c, 7, 71, 0
9, 109056, Note_on_c, 7, 71, 96
9, 109056, Note_off_c, 7, 71, 0
9, 109056, Note_on_c, 7, 71, 96
9, 109312, Note_off_c, 7, 71, 0
9, 109312, Note_on_c, 7, 73, 96
9, 109568, Note_off_c, 7, 73, 0
9, 109568, Note_on_c, 7, 74, 96
9, 109568, Note_off_c, 7, 71, 0
9, 109568, Note_on_c, 7, 71, 96
9, 110080, Note_off_c, 7, 79, 0
9, 110080, Note_on_c, 7, 76, 96
9, 110080, Note_off_c, 7, 74, 0
9, 110080, Note_on_c, 7, 76, 96
9, 110080, Note_off_c, 7, 71, 0
9, 110080, Note_on_c, 7, 71, 96
9, 110336, Note_off_c, 7, 76, 0
9, 110336, Note_on_c, 7, 74, 96
9, 110592, Note_off_c, 7, 74, 0
9, 110592, Note_off_c, 7, 71, 0
9, 110592, Note_on_c, 7, 73, 96
9, 110592, Note_on_c, 7, 69, 96
9, 111104, Note_off_c, 7, 76, 0
9, 111104, Note_on_c, 7, 73, 96
9, 111104, Note_off_c, 7, 73, 0
9, 111104, Note_on_c, 7, 76, 96
9, 111104, Note_off_c, 7, 69, 0
9, 111104, Note_on_c, 7, 69, 96
9, 111360, Note_off_c, 7, 73, 0
9, 111360, Note_on_c, 7, 74, 96
9, 111616, Note_off_c, 7, 74, 0
9, 111616, Note_on_c, 7, 76, 96
9, 111616, Note_off_c, 7, 69, 0
9, 111616, Note_on_c, 7, 69, 96
9, 112128, Note_off_c, 7, 76, 0
9, 112128, Note_on_c, 7, 76, 96
9, 112128, Note_off_c, 7, 76, 0
9, 112128, Note_on_c, 7, 73, 96
9, 112128, Note_off_c, 7, 69, 0
9, 112128, Note_on_c, 7, 69, 96
9, 112384, Note_off_c, 7, 76, 0
9, 112384, Note_on_c, 7, 77, 96
9, 112640, Note_off_c, 7, 77, 0
9, 112640, Note_on_c, 7, 79, 96
9, 112640, Note_off_c, 7, 69, 0
9, 112640, Note_on_c, 7, 69, 96
9, 113152, Note_off_c, 7, 79, 0
9, 113152, Note_on_c, 7, 81, 96
9, 113152, Note_off_c, 7, 73, 0
9, 113152, Note_on_c, 7, 69, 96
9, 113152, Note_off_c, 7, 69, 0
9, 113152, Note_on_c, 7, 69, 96
9, 113408, Note_off_c, 7, 81, 0
9, 113408, Note_on_c, 7, 79, 96
9, 113664, Note_off_c, 7, 79, 0
9, 113664, Note_off_c, 7, 69, 0
9, 113664, Note_on_c, 7, 77, 96
9, 113664, Note_on_c, 7, 69, 96
9, 114176, Note_off_c, 7, 77, 0
9, 114176, Note_on_c, 7, 81, 96
9, 114176, Note_off_c, 7, 69, 0
9, 114176, Note_on_c, 7, 65, 96
9, 114176, Note_off_c, 7, 69, 0
9, 114176, Note_on_c, 7, 69, 96
9, 114432, Note_off_c, 7, 65, 0
9, 114432, Note_on_c, 7, 67, 96
9, 114688, Note_off_c, 7, 67, 0
9, 114688, Note_on_c, 7, 69, 96
9, 114688, Note_off_c, 7, 69, 0
9, 114688, Note_on_c, 7, 69, 96
9, 115200, Note_off_c, 7, 81, 0
9, 115200, Note_on_c, 7, 77, 96
9, 115200, Note_off_c, 7, 69, 0
9, 115200, Note_on_c, 7, 69, 96
9, 115200, Note_off_c, 7, 69, 0
9, 115200, Note_on_c, 7, 69, 96
9, 115456, Note_off_c, 7, 69, 0
9, 115456, Note_on_c, 7, 71, 96
9, 115712, Note_off_c, 7, 71, 0
9, 115712, Note_on_c, 7, 72, 96
9, 115712, Note_off_c, 7, 69, 0
9, 115712, Note_on_c, 7, 69, 96
9, 116224, Note_off_c, 7, 77, 0
9, 116224, Note_on_c, 7, 74, 96
9, 116224, Note_off_c, 7, 72, 0
9, 116224, Note_on_c, 7, 74, 96
9, 116224, Note_off_c, 7, 69, 0
9, 116224, Note_on_c, 7, 69, 96
9, 116480, Note_off_c, 7, 74, 0
9, 116480, Note_on_c, 7, 72, 96
9, 116736, Note_off_c, 7, 72, 0
9, 116736, Note_off_c, 7, 69, 0
9, 116736, Note_on_c, 7, 71, 96
9, 116736, Note_on_c, 7, 67, 96
9, 117248, Note_off_c, 7, 74, 0
9, 117248, Note_on_c, 7, 71, 96
9, 117248, Note_off_c, 7, 71, 0
9, 117248, Note_on_c, 7, 74, 96
9, 117248, Note_off_c, 7, 67, 0
9, 117248, Note_on_c, 7, 67, 96
9, 117504, Note_off_c, 7, 71, 0
9, 117504, Note_on_c, 7, 72, 96
9, 117760, Note_off_c, 7, 72, 0
9, 117760, Note_on_c, 7, 74, 96
9, 117760, Note_off_c, 7, 67, 0
9, 117760, Note_on_c, 7, 67, 96
9, 118272, Note_off_c, 7, 74, 0
9, 118272, Note_on_c, 7, 74, 96
9, 118272, Note_off_c, 7, 74, 0
9, 118272, Note_on_c, 7, 71, 96
9, 118272, Note_off_c, 7, 67, 0
9, 118272, Note_on_c, 7, 67, 96
9, 118528, Note_off_c, 7, 74, 0
9, 118528, Note_on_c, 7, 76, 96
9, 118784, Note_off_c, 7, 76, 0
9, 118784, Note_on_c, 7, 77, 96
9, 118784, Note_off_c, 7, 67, 0
9, 118784, Note_on_c, 7, 67, 96
9, 119296, Note_off_c, 7, 77, 0
9, 119296, Note_on_c, 7, 79, 96
9, 119296, Note_off_c, 7, 71, 0
9, 119296, Note_on_c, 7, 67, 96
9, 119296, Note_off_c, 7, 67, 0
9, 119296, Note_on_c, 7, 67, 96
9, 119552, Note_off_c, 7, 79, 0
9, 119552, Note_on_c, 7, 77, 96
9, 119808, Note_off_c, 7, 77, 0
9, 119808, Note_off_c, 7, 67, 0
9, 119808, Note_on_c, 7, 76, 96
9, 119808, Note_on_c, 7, 67, 96
9, 120320, Note_off_c, 7, 76, 0
9, 120320, Note_on_c, 7, 72, 96
9, 120320, Note_off_c, 7, 67, 0
9, 120320, Note_on_c, 7, 64, 96
9, 120576, Note_off_c, 7, 72, 0
9, 120576, Note_on_c, 7, 74, 96
9, 120576, Note_off_c, 7, 64, 0
9, 120576, Note_on_c, 7, 65, 96
9, 120832, Note_off_c, 7, 74, 0
9, 120832, Note_on_c, 7, 76, 96
9, 120832, Note_off_c, 7, 65, 0
9, 120832, Note_on_c, 7, 67, 96
9, 120832, Note_off_c, 7, 67, 0
9, 120832, Note_on_c, 7, 60, 96
9, 121344, Note_off_c, 7, 76, 0
9, 121344, Note_on_c, 7, 77, 96
9, 121344, Note_off_c, 7, 67, 0
9, 121344, Note_on_c, 7, 69, 96
9, 121600, Note_off_c, 7, 77, 0
9, 121600, Note_on_c, 7, 79, 96
9, 121600, Note_off_c, 7, 69, 0
9, 121600, Note_on_c, 7, 71, 96
9, 121856, Note_off_c, 7, 79, 0
9, 121856, Note_on_c, 7, 81, 96
9, 121856, Note_off_c, 7, 71, 0
9, 121856, Note_on_c, 7, 72, 96
9, 121856, Note_off_c, 7, 60, 0
9, 121856, Note_on_c, 7, 60, 96
9, 122368, Note_off_c, 7, 81, 0
9, 122368, Note_off_c, 7, 72, 0
9, 122880, Note_off_c, 7, 60, 0
9, 122880, Note_on_c, 7, 60, 96
9, 123392, Note_on_c, 7, 74, 96
9, 123392, Note_on_c, 7, 74, 96
9, 123648, Note_off_c, 7, 74, 0
9, 123648, Note_on_c, 7, 76, 96
9, 123648, Note_off_c, 7, 74, 0
9, 123648, Note_on_c, 7, 76, 96
9, 123904, Note_off_c, 7, 76, 0
9, 123904, Note_on_c, 7, 74, 96
9, 123904, Note_off_c, 7, 76, 0
9, 123904, Note_on_c, 7, 74, 96
9, 123904, Note_off_c, 7, 60, 0
9, 123904, Note_on_c, 7, 59, 96
9, 124160, Note_off_c, 7, 74, 0
9, 124160, Note_on_c, 7, 72, 96
9, 124160, Note_off_c, 7, 74, 0
9, 124160, Note_on_c, 7, 72, 96
9, 124416, Note_off_c, 7, 72, 0
9, 124416, Note_on_c, 7, 71, 96
9, 124416, Note_off_c, 7, 72, 0
9, 124416, Note_on_c, 7, 71, 96
9, 124672, Note_off_c, 7, 71, 0
9, 124672, Note_on_c, 7, 72, 96
9, 124672, Note_off_c, 7, 71, 0
9, 124672, Note_on_c, 7, 72, 96
9, 124928, Note_off_c, 7, 72, 0
9, 124928, Note_on_c, 7, 74, 96
9, 124928, Note_off_c, 7, 72, 0
9, 124928, Note_on_c, 7, 74, 96
9, 124928, Note_off_c, 7, 59, 0
9, 124928, Note_on_c, 7, 59, 96
9, 125440, Note_off_c, 7, 74, 0
9, 125440, Note_off_c, 7, 74, 0
9, 125952, Note_off_c, 7, 59, 0
9, 125952, Note_on_c, 7, 60, 96
9, 126464, Note_on_c, 7, 76, 96
9, 126464, Note_on_c, 7, 72, 96
9, 126464, Note_off_c, 7, 60, 0
9, 126464, Note_on_c, 7, 72, 96
9, 126720, Note_off_c, 7, 76, 0
9, 126720, Note_on_c, 7, 77, 96
9, 126720, Note_off_c, 7, 72, 0
9, 126720, Note_on_c, 7, 74, 96
9, 126976, Note_off_c, 7, 77, 0
9, 126976, Note_on_c, 7, 79, 96
9, 126976, Note_off_c, 7, 74, 0
9, 126976, Note_on_c, 7, 76, 96
9, 126976, Note_off_c, 7, 72, 0
9, 126976, Note_on_c, 7, 72, 96
9, 127488, Note_off_c, 7, 79, 0
9, 127488, Note_on_c, 7, 79, 96
9, 127488, Note_off_c, 7, 76, 0
9, 127488, Note_on_c, 7, 76, 96
9, 127488, Note_off_c, 7, 72, 0
9, 127488, Note_on_c, 7, 72, 96
9, 127744, Note_off_c, 7, 79, 0
9, 127744, Note_on_c, 7, 81, 96
9, 127744, Note_off_c, 7, 76, 0
9, 127744, Note_on_c, 7, 77, 96
9, 128000, Note_off_c, 7, 81, 0
9, 128000, Note_on_c, 7, 82, 96
9, 128000, Note_off_c, 7, 77, 0
9, 128000, Note_on_c, 7, 79, 96
9, 128000, Note_off_c, 7, 72, 0
9, 128000, Note_on_c, 7, 72, 96
9, 128512, Note_off_c, 7, 82, 0
9, 128512, Note_on_c, 7, 81, 96
9, 128512, Note_off_c, 7, 79, 0
9, 128512, Note_on_c, 7, 77, 96
9, 128512, Note_off_c, 7, 72, 0
9, 128512, Note_on_c, 7, 72, 96
9, 128768, Note_off_c, 7, 81, 0
9, 128768, Note_on_c, 7, 79, 96
9, 128768, Note_off_c, 7, 77, 0
9, 128768, Note_on_c, 7, 76, 96
9, 129024, Note_off_c, 7, 79, 0
9, 129024, Note_off_c, 7, 76, 0
9, 129024, Note_off_c, 7, 72, 0
9, 129024, Note_on_c, 7, 81, 96
9, 129024, Note_on_c, 7, 77, 96
9, 129024, Note_on_c, 7, 72, 96
9, 129536, Note_off_c, 7, 81, 0
9, 129536, Note_on_c, 7, 79, 96
9, 129536, Note_off_c, 7, 77, 0
9, 129536, Note_on_c, 7, 74, 96
9, 129536, Note_off_c, 7, 72, 0
9, 129536, Note_on_c, 7, 74, 96
9, 129792, Note_off_c, 7, 79, 0
9, 129792, Note_on_c, 7, 77, 96
9, 130048, Note_off_c, 7, 77, 0
9, 130048, Note_on_c, 7, 76, 96
9, 130048, Note_off_c, 7, 74, 0
9, 130048, Note_on_c, 7, 67, 96
9, 130048, Note_off_c, 7, 74, 0
9, 130048, Note_on_c, 7, 72, 96
9, 130560, Note_off_c, 7, 76, 0
9, 130560, Note_on_c, 7, 79, 96
9, 130560, Note_off_c, 7, 67, 0
9, 130560, Note_on_c, 7, 72, 96
9, 130560, Note_off_c, 7, 72, 0
9, 130560, Note_on_c, 7, 67, 96
9, 131072, Note_off_c, 7, 79, 0
9, 131072, Note_on_c, 7, 77, 96
9, 131072, Note_off_c, 7, 72, 0
9, 131072, Note_on_c, 7, 72, 96
9, 131072, Note_off_c, 7, 67, 0
9, 131072, Note_on_c, 7, 67, 96
9, 131328, Note_off_c, 7, 77, 0
9, 131328, Note_on_c, 7, 76, 96
9, 131584, Note_off_c, 7, 76, 0
9, 131584, Note_on_c, 7, 74, 96
9, 131584, Note_off_c, 7, 72, 0
9, 131584, Note_on_c, 7, 71, 96
9, 131584, Note_off_c, 7, 67, 0
9, 131584, Note_on_c, 7, 65, 96
9, 131840, Note_off_c, 7, 74, 0
9, 131840, Note_on_c, 7, 76, 96
9, 132096, Note_off_c, 7, 76, 0
9, 132096, Note_off_c, 7, 71, 0
9, 132096, Note_off_c, 7, 65, 0
9, 132096, Note_on_c, 7, 72, 96
9, 132096, Note_on_c, 7, 67, 96
9, 132096, Note_on_c, 7, 64, 96
9, 133120, Note_off_c, 7, 72, 0
9, 133120, Note_on_c, 7, 60, 96
9, 133120, Note_off_c, 7, 67, 0
9, 133120, Note_on_c, 7, 60, 96
9, 133120, Note_off_c, 7, 64, 0
9, 133120, Note_on_c, 7, 60, 96
9, 134144, Note_off_c, 7, 60, 0
9, 134144, Note_on_c, 7, 60, 96
9, 134144, Note_off_c, 7, 60, 0
9, 134144, Note_on_c, 7, 60, 96
9, 134144, Note_off_c, 7, 60, 0
9, 134144, Note_on_c, 7, 60, 96
9, 135168, Note_off_c, 7, 60, 0
9, 135168, Note_off_c, 7, 60, 0
9, 135168, Note_off_c, 7, 60, 0
9, 135168, Note_on_c, 7, 60, 96
9, 135168, Note_on_c, 7, 60, 96
9, 135168, Note_on_c, 7, 60, 96
9, 136192, Note_off_c, 7, 60, 0
9, 136192, Note_on_c, 7, 59, 96
9, 136192, Note_off_c, 7, 60, 0
9, 136192, Note_on_c, 7, 59, 96
9, 136192, Note_off_c, 7, 60, 0
9, 136192, Note_on_c, 7, 59, 96
9, 137216, Note_off_c, 7, 59, 0
9, 137216, Note_on_c, 7, 59, 96
9, 137216, Note_off_c, 7, 59, 0
9, 137216, Note_on_c, 7, 59, 96
9, 137216, Note_off_c, 7, 59, 0
9, 137216, Note_on_c, 7, 59, 96
9, 138240, Note_off_c, 7, 59, 0
9, 138240, Note_off_c, 7, 59, 0
9, 138240, Note_off_c, 7, 59, 0
9, 138240, Note_on_c, 7, 60, 96
9, 138240, Note_on_c, 7, 60, 96
9, 138240, Note_on_c, 7, 60, 96
9, 139264, Note_off_c, 7, 60, 0
9, 139264, Note_off_c, 7, 60, 0
9, 139264, Note_off_c, 7, 60, 0
9, 139776, Note_on_c, 7, 64, 96
9, 139776, Note_on_c, 7, 64, 96
9, 139776, Note_on_c, 7, 64, 96
9, 140032, Note_off_c, 7, 64, 0
9, 140032, Note_on_c, 7, 62, 96
9, 140032, Note_off_c, 7, 64, 0
9, 140032, Note_on_c, 7, 62, 96
9, 140032, Note_off_c, 7, 64, 0
9, 140032, Note_on_c, 7, 62, 96
9, 140288, Note_off_c, 7, 62, 0
9, 140288, Note_on_c, 7, 60, 96
9, 140288, Note_off_c, 7, 62, 0
9, 140288, Note_on_c, 7, 60, 96
9, 140288, Note_off_c, 7, 62, 0
9, 140288, Note_on_c, 7, 60, 96
9, 140544, Note_off_c, 7, 60, 0
9, 140544, Note_on_c, 7, 64, 96
9, 140544, Note_off_c, 7, 60, 0
9, 140544, Note_on_c, 7, 64, 96
9, 140544, Note_off_c, 7, 60, 0
9, 140544, Note_on_c, 7, 64, 96
9, 140800, Note_off_c, 7, 64, 0
9, 140800, Note_on_c, 7, 62, 96
9, 140800, Note_off_c, 7, 64, 0
9, 140800, Note_on_c, 7, 62, 96
9, 140800, Note_off_c, 7, 64, 0
9, 140800, Note_on_c, 7, 62, 96
9, 141056, Note_off_c, 7, 62, 0
9, 141056, Note_on_c, 7, 65, 96
9, 141056, Note_off_c, 7, 62, 0
9, 141056, Note_on_c, 7, 65, 96
9, 141056, Note_off_c, 7, 62, 0
9, 141056, Note_on_c, 7, 65, 96
9, 141312, Note_off_c, 7, 65, 0
9, 141312, Note_off_c, 7, 65, 0
9, 141312, Note_off_c, 7, 65, 0
9, 141312, Note_on_c, 7, 64, 96
9, 141312, Note_on_c, 7, 64, 96
9, 141312, Note_on_c, 7, 64, 96
9, 141568, Note_off_c, 7, 64, 0
9, 141568, Note_on_c, 7, 62, 96
9, 141568, Note_off_c, 7, 64, 0
9, 141568, Note_on_c, 7, 62, 96
9, 141568, Note_off_c, 7, 64, 0
9, 141568, Note_on_c, 7, 62, 96
9, 141824, Note_off_c, 7, 62, 0
9, 141824, Note_on_c, 7, 64, 96
9, 141824, Note_off_c, 7, 62, 0
9, 141824, Note_on_c, 7, 64, 96
9, 141824, Note_off_c, 7, 62, 0
9, 141824, Note_on_c, 7, 64, 96
9, 142080, Note_off_c, 7, 64, 0
9, 142080, Note_on_c, 7, 60, 96
9, 142080, Note_off_c, 7, 64, 0
9, 142080, Note_on_c, 7, 60, 96
9, 142080, Note_off_c, 7, 64, 0
9, 142080, Note_on_c, 7, 60, 96
9, 142336, Note_off_c, 7, 60, 0
9, 142336, Note_on_c, 7, 66, 96
9, 142336, Note_off_c, 7, 60, 0
9, 142336, Note_on_c, 7, 66, 96
9, 142336, Note_off_c, 7, 60, 0
9, 142336, Note_on_c, 7, 66, 96
9, 142592, Note_off_c, 7, 66, 0
9, 142592, Note_on_c, 7, 64, 96
9, 142592, Note_off_c, 7, 66, 0
9, 142592, Note_on_c, 7, 64, 96
9, 142592, Note_off_c, 7, 66, 0
9, 142592, Note_on_c, 7, 64, 96
9, 142848, Note_off_c, 7, 64, 0
9, 142848, Note_on_c, 7, 66, 96
9, 142848, Note_off_c, 7, 64, 0
9, 142848, Note_on_c, 7, 66, 96
9, 142848, Note_off_c, 7, 64, 0
9, 142848, Note_on_c, 7, 66, 96
9, 143104, Note_off_c, 7, 66, 0
9, 143104, Note_on_c, 7, 62, 96
9, 143104, Note_off_c, 7, 66, 0
9, 143104, Note_on_c, 7, 62, 96
9, 143104, Note_off_c, 7, 66, 0
9, 143104, Note_on_c, 7, 62, 96
9, 143360, Note_off_c, 7, 62, 0
9, 143360, Note_on_c, 7, 69, 96
9, 143360, Note_off_c, 7, 62, 0
9, 143360, Note_on_c, 7, 69, 96
9, 143360, Note_off_c, 7, 62, 0
9, 143360, Note_on_c, 7, 69, 96
9, 143616, Note_off_c, 7, 69, 0
9, 143616, Note_on_c, 7, 67, 96
9, 143616, Note_off_c, 7, 69, 0
9, 143616, Note_on_c, 7, 67, 96
9, 143616, Note_off_c, 7, 69, 0
9, 143616, Note_on_c, 7, 67, 96
9, 143872, Note_off_c, 7, 67, 0
9, 143872, Note_on_c, 7, 69, 96
9, 143872, Note_off_c, 7, 67, 0
9, 143872, Note_on_c, 7, 69, 96
9, 143872, Note_off_c, 7, 67, 0
9, 143872, Note_on_c, 7, 69, 96
9, 144128, Note_off_c, 7, 69, 0
9, 144128, Note_on_c, 7, 66, 96
9, 144128, Note_off_c, 7, 69, 0
9, 144128, Note_on_c, 7, 66, 96
9, 144128, Note_off_c, 7, 69, 0
9, 144128, Note_on_c, 7, 66, 96
9, 144384, Note_off_c, 7, 66, 0
9, 144384, Note_off_c, 7, 66, 0
9, 144384, Note_off_c, 7, 66, 0
9, 144384, Note_on_c, 7, 71, 96
9, 144384, Note_on_c, 7, 71, 96
9, 144384, Note_on_c, 7, 62, 96
9, 144896, Note_off_c, 7, 71, 0
9, 144896, Note_on_c, 7, 72, 96
9, 144896, Note_off_c, 7, 71, 0
9, 144896, Note_on_c, 7, 67, 96
9, 144896, Note_off_c, 7, 62, 0
9, 144896, Note_on_c, 7, 57, 96
9, 145152, Note_off_c, 7, 72, 0
9, 145152, Note_on_c, 7, 74, 96
9, 145152, Note_off_c, 7, 57, 0
9, 145152, Note_on_c, 7, 59, 96
9, 145408, Note_off_c, 7, 74, 0
9, 145408, Note_on_c, 7, 76, 96
9, 145408, Note_off_c, 7, 67, 0
9, 145408, Note_off_c, 7, 59, 0
9, 145408, Note_on_c, 7, 60, 96
9, 145664, Note_on_c, 7, 64, 96
9, 145920, Note_off_c, 7, 76, 0
9, 145920, Note_on_c, 7, 72, 96
9, 145920, Note_off_c, 7, 64, 0
9, 145920, Note_on_c, 7, 65, 96
9, 145920, Note_off_c, 7, 60, 0
9, 145920, Note_on_c, 7, 62, 96
9, 146176, Note_off_c, 7, 65, 0
9, 146176, Note_on_c, 7, 67, 96
9, 146176, Note_off_c, 7, 62, 0
9, 146176, Note_on_c, 7, 64, 96
9, 146432, Note_off_c, 7, 67, 0
9, 146432, Note_on_c, 7, 69, 96
9, 146432, Note_off_c, 7, 64, 0
9, 146432, Note_on_c, 7, 65, 96
9, 146688, Note_off_c, 7, 72, 0
9, 146688, Note_on_c, 7, 74, 96
9, 146688, Note_off_c, 7, 69, 0
9, 146688, Note_on_c, 7, 71, 96
9, 146944, Note_off_c, 7, 74, 0
9, 146944, Note_on_c, 7, 76, 96
9, 146944, Note_off_c, 7, 71, 0
9, 146944, Note_on_c, 7, 72, 96
9, 146944, Note_off_c, 7, 65, 0
9, 146944, Note_on_c, 7, 64, 96
9, 147200, Note_off_c, 7, 76, 0
9, 147200, Note_on_c, 7, 72, 96
9, 147200, Note_off_c, 7, 72, 0
9, 147200, Note_on_c, 7, 69, 96
9, 147200, Note_off_c, 7, 64, 0
9, 147200, Note_on_c, 7, 65, 96
9, 147456, Note_off_c, 7, 72, 0
9, 147456, Note_off_c, 7, 69, 0
9, 147456, Note_off_c, 7, 65, 0
9, 147456, Note_on_c, 7, 77, 96
9, 147456, Note_on_c, 7, 74, 96
9, 147456, Note_on_c, 7, 62, 96
9, 147968, Note_off_c, 7, 77, 0
9, 147968, Note_on_c, 7, 74, 96
9, 147968, Note_off_c, 7, 74, 0
9, 147968, Note_on_c, 7, 62, 96
9, 148480, Note_off_c, 7, 62, 0
9, 148736, Note_off_c, 7, 74, 0
9, 148736, Note_on_c, 7, 72, 96
9, 148736, Note_on_c, 7, 62, 96
9, 148992, Note_off_c, 7, 72, 0
9, 148992, Note_on_c, 7, 74, 96
9, 148992, Note_off_c, 7, 62, 0
9, 148992, Note_on_c, 7, 67, 96
9, 149248, Note_off_c, 7, 74, 0
9, 149248, Note_on_c, 7, 71, 96
9, 149248, Note_off_c, 7, 67, 0
9, 149248, Note_on_c, 7, 69, 96
9, 149504, Note_off_c, 7, 71, 0
9, 149504, Note_on_c, 7, 79, 96
9, 149504, Note_off_c, 7, 69, 0
9, 149504, Note_on_c, 7, 71, 96
9, 149760, Note_off_c, 7, 79, 0
9, 149760, Note_on_c, 7, 77, 96
9, 149760, Note_off_c, 7, 71, 0
9, 149760, Note_on_c, 7, 72, 96
9, 150016, Note_off_c, 7, 77, 0
9, 150016, Note_on_c, 7, 79, 96
9, 150016, Note_off_c, 7, 72, 0
9, 150016, Note_on_c, 7, 74, 96
9, 150272, Note_off_c, 7, 79, 0
9, 150272, Note_on_c, 7, 74, 96
9, 150272, Note_off_c, 7, 74, 0
9, 150272, Note_on_c, 7, 71, 96
9, 150528, Note_off_c, 7, 74, 0
9, 150528, Note_off_c, 7, 71, 0
9, 150528, Note_off_c, 7, 62, 0
9, 150528, Note_on_c, 7, 76, 96
9, 150528, Note_on_c, 7, 76, 96
9, 150528, Note_on_c, 7, 60, 96
9, 151040, Note_off_c, 7, 76, 0
9, 151040, Note_on_c, 7, 79, 96
9, 151040, Note_off_c, 7, 76, 0
9, 151040, Note_on_c, 7, 67, 96
9, 151552, Note_off_c, 7, 79, 0
9, 151552, Note_on_c, 7, 84, 96
9, 151552, Note_off_c, 7, 67, 0
9, 151552, Note_off_c, 7, 60, 0
9, 151808, Note_on_c, 7, 79, 96
9, 152064, Note_off_c, 7, 84, 0
9, 152064, Note_on_c, 7, 83, 96
9, 152064, Note_off_c, 7, 79, 0
9, 152064, Note_on_c, 7, 77, 96
9, 152064, Note_on_c, 7, 59, 96
9, 152320, Note_off_c, 7, 83, 0
9, 152320, Note_on_c, 7, 81, 96
9, 152320, Note_off_c, 7, 77, 0
9, 152320, Note_on_c, 7, 76, 96
9, 152320, Note_off_c, 7, 59, 0
9, 152320, Note_on_c, 7, 60, 96
9, 152576, Note_off_c, 7, 81, 0
9, 152576, Note_on_c, 7, 79, 96
9, 152576, Note_off_c, 7, 76, 0
9, 152576, Note_on_c, 7, 74, 96
9, 152576, Note_off_c, 7, 60, 0
9, 152576, Note_on_c, 7, 62, 96
9, 152832, Note_off_c, 7, 79, 0
9, 152832, Note_on_c, 7, 81, 96
9, 152832, Note_off_c, 7, 74, 0
9, 152832, Note_on_c, 7, 76, 96
9, 153088, Note_off_c, 7, 81, 0
9, 153088, Note_on_c, 7, 77, 96
9, 153088, Note_off_c, 7, 76, 0
9, 153088, Note_on_c, 7, 72, 96
9, 153088, Note_off_c, 7, 62, 0
9, 153088, Note_on_c, 7, 55, 96
9, 153344, Note_off_c, 7, 77, 0
9, 153344, Note_on_c, 7, 79, 96
9, 153344, Note_off_c, 7, 72, 0
9, 153344, Note_on_c, 7, 74, 96
9, 153600, Note_off_c, 7, 79, 0
9, 153600, Note_off_c, 7, 74, 0
9, 153600, Note_off_c, 7, 55, 0
9, 153600, Note_on_c, 7, 76, 96
9, 153600, Note_on_c, 7, 76, 96
9, 153600, Note_on_c, 7, 67, 96
9, 153856, Note_off_c, 7, 76, 0
9, 153856, Note_on_c, 7, 77, 96
9, 153856, Note_off_c, 7, 76, 0
9, 153856, Note_on_c, 7, 74, 96
9, 154112, Note_off_c, 7, 77, 0
9, 154112, Note_on_c, 7, 76, 96
9, 154112, Note_off_c, 7, 74, 0
9, 154112, Note_on_c, 7, 76, 96
9, 154112, Note_off_c, 7, 67, 0
9, 154112, Note_on_c, 7, 64, 96
9, 154368, Note_off_c, 7, 76, 0
9, 154368, Note_on_c, 7, 77, 96
9, 154368, Note_off_c, 7, 76, 0
9, 154368, Note_on_c, 7, 72, 96
9, 154624, Note_off_c, 7, 77, 0
9, 154624, Note_on_c, 7, 79, 96
9, 154624, Note_off_c, 7, 72, 0
9, 154624, Note_on_c, 7, 76, 96
9, 154624, Note_off_c, 7, 64, 0
9, 154880, Note_off_c, 7, 79, 0
9, 154880, Note_on_c, 7, 78, 96
9, 154880, Note_off_c, 7, 76, 0
9, 154880, Note_on_c, 7, 74, 96
9, 155136, Note_off_c, 7, 78, 0
9, 155136, Note_on_c, 7, 79, 96
9, 155136, Note_off_c, 7, 74, 0
9, 155136, Note_on_c, 7, 76, 96
9, 155136, Note_on_c, 7, 55, 96
9, 155392, Note_off_c, 7, 79, 0
9, 155392, Note_on_c, 7, 76, 96
9, 155392, Note_off_c, 7, 76, 0
9, 155392, Note_on_c, 7, 72, 96
9, 155648, Note_off_c, 7, 76, 0
9, 155648, Note_on_c, 7, 81, 96
9, 155648, Note_off_c, 7, 72, 0
9, 155648, Note_on_c, 7, 78, 96
9, 155648, Note_off_c, 7, 55, 0
9, 155648, Note_on_c, 7, 57, 96
9, 155904, Note_off_c, 7, 81, 0
9, 155904, Note_on_c, 7, 79, 96
9, 155904, Note_off_c, 7, 78, 0
9, 155904, Note_on_c, 7, 76, 96
9, 156160, Note_off_c, 7, 79, 0
9, 156160, Note_on_c, 7, 81, 96
9, 156160, Note_off_c, 7, 76, 0
9, 156160, Note_on_c, 7, 78, 96
9, 156160, Note_off_c, 7, 57, 0
9, 156160, Note_on_c, 7, 55, 96
9, 156416, Note_off_c, 7, 81, 0
9, 156416, Note_on_c, 7, 78, 96
9, 156416, Note_off_c, 7, 78, 0
9, 156416, Note_on_c, 7, 74, 96
9, 156416, Note_off_c, 7, 55, 0
9, 156416, Note_on_c, 7, 57, 96
9, 156672, Note_off_c, 7, 78, 0
9, 156672, Note_off_c, 7, 74, 0
9, 156672, Note_off_c, 7, 57, 0
9, 156672, Note_on_c, 7, 83, 96
9, 156672, Note_on_c, 7, 74, 96
9, 156672, Note_on_c, 7, 55, 96
9, 156928, Note_off_c, 7, 83, 0
9, 156928, Note_on_c, 7, 81, 96
9, 156928, Note_off_c, 7, 74, 0
9, 156928, Note_on_c, 7, 72, 96
9, 157184, Note_off_c, 7, 81, 0
9, 157184, Note_on_c, 7, 83, 96
9, 157184, Note_off_c, 7, 72, 0
9, 157184, Note_on_c, 7, 74, 96
9, 157184, Note_off_c, 7, 55, 0
9, 157184, Note_on_c, 7, 55, 96
9, 157440, Note_off_c, 7, 83, 0
9, 157440, Note_on_c, 7, 79, 96
9, 157440, Note_off_c, 7, 74, 0
9, 157440, Note_on_c, 7, 71, 96
9, 157440, Note_off_c, 7, 55, 0
9, 157440, Note_on_c, 7, 57, 96
9, 157696, Note_off_c, 7, 79, 0
9, 157696, Note_on_c, 7, 74, 96
9, 157696, Note_off_c, 7, 71, 0
9, 157696, Note_on_c, 7, 71, 96
9, 157696, Note_off_c, 7, 57, 0
9, 157696, Note_on_c, 7, 59, 96
9, 157952, Note_off_c, 7, 74, 0
9, 157952, Note_on_c, 7, 72, 96
9, 157952, Note_off_c, 7, 71, 0
9, 157952, Note_on_c, 7, 69, 96
9, 158208, Note_off_c, 7, 72, 0
9, 158208, Note_on_c, 7, 74, 96
9, 158208, Note_off_c, 7, 69, 0
9, 158208, Note_on_c, 7, 71, 96
9, 158208, Note_off_c, 7, 59, 0
9, 158208, Note_on_c, 7, 55, 96
9, 158464, Note_off_c, 7, 74, 0
9, 158464, Note_on_c, 7, 71, 96
9, 158464, Note_off_c, 7, 71, 0
9, 158464, Note_on_c, 7, 67, 96
9, 158720, Note_off_c, 7, 71, 0
9, 158720, Note_on_c, 7, 79, 96
9, 158720, Note_off_c, 7, 67, 0
9, 158720, Note_on_c, 7, 67, 96
9, 158720, Note_off_c, 7, 55, 0
9, 158720, Note_on_c, 7, 64, 96
9, 158976, Note_off_c, 7, 79, 0
9, 158976, Note_on_c, 7, 77, 96
9, 159232, Note_off_c, 7, 77, 0
9, 159232, Note_on_c, 7, 79, 96
9, 159488, Note_off_c, 7, 79, 0
9, 159488, Note_on_c, 7, 76, 96
9, 159744, Note_off_c, 7, 76, 0
9, 159744, Note_on_c, 7, 72, 96
9, 160000, Note_off_c, 7, 72, 0
9, 160000, Note_on_c, 7, 71, 96
9, 160000, Note_off_c, 7, 67, 0
9, 160000, Note_on_c, 7, 71, 96
9, 160000, Note_off_c, 7, 64, 0
9, 160000, Note_on_c, 7, 67, 96
9, 160256, Note_off_c, 7, 71, 0
9, 160256, Note_on_c, 7, 72, 96
9, 160256, Note_off_c, 7, 71, 0
9, 160256, Note_on_c, 7, 69, 96
9, 160256, Note_off_c, 7, 67, 0
9, 160256, Note_on_c, 7, 65, 96
9, 160512, Note_off_c, 7, 72, 0
9, 160512, Note_on_c, 7, 69, 96
9, 160512, Note_off_c, 7, 69, 0
9, 160512, Note_on_c, 7, 67, 96
9, 160512, Note_off_c, 7, 65, 0
9, 160512, Note_on_c, 7, 64, 96
9, 160768, Note_off_c, 7, 69, 0
9, 160768, Note_on_c, 7, 74, 96
9, 160768, Note_off_c, 7, 67, 0
9, 160768, Note_on_c, 7, 65, 96
9, 160768, Note_off_c, 7, 64, 0
9, 160768, Note_on_c, 7, 62, 96
9, 161024, Note_off_c, 7, 74, 0
9, 161024, Note_on_c, 7, 72, 96
9, 161024, Note_off_c, 7, 65, 0
9, 161024, Note_on_c, 7, 69, 96
9, 161024, Note_off_c, 7, 62, 0
9, 161024, Note_on_c, 7, 65, 96
9, 161280, Note_off_c, 7, 72, 0
9, 161280, Note_on_c, 7, 74, 96
9, 161280, Note_off_c, 7, 69, 0
9, 161280, Note_on_c, 7, 67, 96
9, 161280, Note_off_c, 7, 65, 0
9, 161280, Note_on_c, 7, 64, 96
9, 161536, Note_off_c, 7, 74, 0
9, 161536, Note_on_c, 7, 71, 96
9, 161536, Note_off_c, 7, 67, 0
9, 161536, Note_on_c, 7, 65, 96
9, 161536, Note_off_c, 7, 64, 0
9, 161536, Note_on_c, 7, 62, 96
9, 161792, Note_off_c, 7, 71, 0
9, 161792, Note_on_c, 7, 76, 96
9, 161792, Note_off_c, 7, 65, 0
9, 161792, Note_on_c, 7, 64, 96
9, 161792, Note_off_c, 7, 62, 0
9, 161792, Note_on_c, 7, 60, 96
9, 162048, Note_off_c, 7, 76, 0
9, 162048, Note_on_c, 7, 79, 96
9, 162304, Note_off_c, 7, 79, 0
9, 162304, Note_on_c, 7, 77, 96
9, 162304, Note_off_c, 7, 64, 0
9, 162304, Note_on_c, 7, 62, 96
9, 162304, Note_off_c, 7, 60, 0
9, 162304, Note_on_c, 7, 62, 96
9, 162560, Note_off_c, 7, 77, 0
9, 162560, Note_on_c, 7, 76, 96
9, 162560, Note_off_c, 7, 62, 0
9, 162560, Note_on_c, 7, 60, 96
9, 162560, Note_off_c, 7, 62, 0
9, 162560, Note_on_c, 7, 64, 96
9, 162816, Note_off_c, 7, 76, 0
9, 162816, Note_off_c, 7, 60, 0
9, 162816, Note_off_c, 7, 64, 0
9, 162816, Note_on_c, 7, 81, 96
9, 162816, Note_on_c, 7, 69, 96
9, 162816, Note_on_c, 7, 65, 96
9, 163072, Note_off_c, 7, 81, 0
9, 163072, Note_on_c, 7, 79, 96
9, 163328, Note_off_c, 7, 79, 0
9, 163328, Note_on_c, 7, 81, 96
9, 163328, Note_off_c, 7, 69, 0
9, 163328, Note_on_c, 7, 67, 96
9, 163328, Note_off_c, 7, 65, 0
9, 163328, Note_on_c, 7, 57, 96
9, 163584, Note_off_c, 7, 81, 0
9, 163584, Note_on_c, 7, 74, 96
9, 163584, Note_off_c, 7, 67, 0
9, 163584, Note_on_c, 7, 65, 96
9, 163584, Note_off_c, 7, 57, 0
9, 163584, Note_on_c, 7, 60, 96
9, 163840, Note_off_c, 7, 74, 0
9, 163840, Note_on_c, 7, 74, 96
9, 163840, Note_off_c, 7, 65, 0
9, 163840, Note_on_c, 7, 67, 96
9, 163840, Note_off_c, 7, 60, 0
9, 163840, Note_on_c, 7, 59, 96
9, 164096, Note_off_c, 7, 74, 0
9, 164096, Note_on_c, 7, 72, 96
9, 164352, Note_off_c, 7, 72, 0
9, 164352, Note_on_c, 7, 74, 96
9, 164608, Note_off_c, 7, 74, 0
9, 164608, Note_on_c, 7, 71, 96
9, 164864, Note_off_c, 7, 71, 0
9, 164864, Note_on_c, 7, 67, 96
9, 165120, Note_off_c, 7, 67, 0
9, 165120, Note_on_c, 7, 65, 96
9, 165376, Note_off_c, 7, 65, 0
9, 165376, Note_on_c, 7, 67, 96
9, 165632, Note_off_c, 7, 67, 0
9, 165632, Note_on_c, 7, 62, 96
9, 165888, Note_off_c, 7, 62, 0
9, 165888, Note_off_c, 7, 67, 0
9, 165888, Note_off_c, 7, 59, 0
9, 165888, Note_on_c, 7, 64, 96
9, 165888, Note_on_c, 7, 67, 96
9, 165888, Note_on_c, 7, 64, 96
9, 166400, Note_off_c, 7, 64, 0
9, 166400, Note_on_c, 7, 60, 96
9, 166400, Note_off_c, 7, 67, 0
9, 166400, Note_on_c, 7, 60, 96
9, 166400, Note_off_c, 7, 64, 0
9, 166400, Note_on_c, 7, 60, 96
9, 166912, Note_off_c, 7, 60, 0
9, 166912, Note_on_c, 7, 60, 96
9, 166912, Note_off_c, 7, 60, 0
9, 166912, Note_on_c, 7, 60, 96
9, 166912, Note_off_c, 7, 60, 0
9, 166912, Note_on_c, 7, 60, 96
9, 167424, Note_off_c, 7, 60, 0
9, 167424, Note_on_c, 7, 60, 96
9, 167424, Note_off_c, 7, 60, 0
9, 167424, Note_on_c, 7, 60, 96
9, 167424, Note_off_c, 7, 60, 0
9, 167424, Note_on_c, 7, 60, 96
9, 167936, Note_off_c, 7, 60, 0
9, 167936, Note_on_c, 7, 60, 96
9, 167936, Note_off_c, 7, 60, 0
9, 167936, Note_on_c, 7, 60, 96
9, 167936, Note_off_c, 7, 60, 0
9, 167936, Note_on_c, 7, 60, 96
9, 168448, Note_off_c, 7, 60, 0
9, 168448, Note_on_c, 7, 60, 96
9, 168448, Note_off_c, 7, 60, 0
9, 168448, Note_on_c, 7, 60, 96
9, 168448, Note_off_c, 7, 60, 0
9, 168448, Note_on_c, 7, 60, 96
9, 168960, Note_off_c, 7, 60, 0
9, 168960, Note_off_c, 7, 60, 0
9, 168960, Note_off_c, 7, 60, 0
9, 168960, Note_on_c, 7, 60, 96
9, 168960, Note_on_c, 7, 60, 96
9, 168960, Note_on_c, 7, 60, 96
9, 169472, Note_off_c, 7, 60, 0
9, 169472, Note_on_c, 7, 59, 96
9, 169472, Note_off_c, 7, 60, 0
9, 169472, Note_on_c, 7, 59, 96
9, 169472, Note_off_c, 7, 60, 0
9, 169472, Note_on_c, 7, 59, 96
9, 169984, Note_off_c, 7, 59, 0
9, 169984, Note_on_c, 7, 59, 96
9, 169984, Note_off_c, 7, 59, 0
9, 169984, Note_on_c, 7, 59, 96
9, 169984, Note_off_c, 7, 59, 0
9, 169984, Note_on_c, 7, 59, 96
9, 170496, Note_off_c, 7, 59, 0
9, 170496, Note_on_c, 7, 59, 96
9, 170496, Note_off_c, 7, 59, 0
9, 170496, Note_on_c, 7, 59, 96
9, 170496, Note_off_c, 7, 59, 0
9, 170496, Note_on_c, 7, 59, 96
9, 171008, Note_off_c, 7, 59, 0
9, 171008, Note_on_c, 7, 59, 96
9, 171008, Note_off_c, 7, 59, 0
9, 171008, Note_on_c, 7, 59, 96
9, 171008, Note_off_c, 7, 59, 0
9, 171008, Note_on_c, 7, 59, 96
9, 171520, Note_off_c, 7, 59, 0
9, 171520, Note_on_c, 7, 59, 96
9, 171520, Note_off_c, 7, 59, 0
9, 171520, Note_on_c, 7, 59, 96
9, 171520, Note_off_c, 7, 59, 0
9, 171520, Note_on_c, 7, 59, 96
9, 172032, Note_off_c, 7, 59, 0
9, 172032, Note_off_c, 7, 59, 0
9, 172032, Note_off_c, 7, 59, 0
9, 172032, Note_on_c, 7, 60, 96
9, 172032, Note_on_c, 7, 72, 96
9, 172032, Note_on_c, 7, 55, 96
9, 172288, Note_off_c, 7, 72, 0
9, 172288, Note_on_c, 7, 71, 96
9, 172544, Note_off_c, 7, 60, 0
9, 172544, Note_on_c, 7, 76, 96
9, 172544, Note_off_c, 7, 71, 0
9, 172544, Note_on_c, 7, 72, 96
9, 172544, Note_off_c, 7, 55, 0
9, 172544, Note_on_c, 7, 67, 96
9, 172800, Note_off_c, 7, 72, 0
9, 172800, Note_on_c, 7, 67, 96
9, 173056, Note_off_c, 7, 76, 0
9, 173056, Note_on_c, 7, 76, 96
9, 173056, Note_off_c, 7, 67, 0
9, 173056, Note_on_c, 7, 67, 96
9, 173056, Note_off_c, 7, 67, 0
9, 173056, Note_on_c, 7, 67, 96
9, 173312, Note_off_c, 7, 67, 0
9, 173312, Note_on_c, 7, 65, 96
9, 173568, Note_off_c, 7, 76, 0
9, 173568, Note_on_c, 7, 76, 96
9, 173568, Note_off_c, 7, 65, 0
9, 173568, Note_on_c, 7, 67, 96
9, 173568, Note_off_c, 7, 67, 0
9, 173568, Note_on_c, 7, 67, 96
9, 173824, Note_off_c, 7, 67, 0
9, 173824, Note_on_c, 7, 64, 96
9, 174080, Note_off_c, 7, 76, 0
9, 174080, Note_on_c, 7, 76, 96
9, 174080, Note_off_c, 7, 64, 0
9, 174080, Note_on_c, 7, 64, 96
9, 174080, Note_off_c, 7, 67, 0
9, 174080, Note_on_c, 7, 67, 96
9, 174336, Note_off_c, 7, 64, 0
9, 174336, Note_on_c, 7, 62, 96
9, 174592, Note_off_c, 7, 76, 0
9, 174592, Note_on_c, 7, 76, 96
9, 174592, Note_off_c, 7, 62, 0
9, 174592, Note_on_c, 7, 64, 96
9, 174592, Note_off_c, 7, 67, 0
9, 174592, Note_on_c, 7, 67, 96
9, 174848, Note_off_c, 7, 64, 0
9, 174848, Note_on_c, 7, 60, 96
9, 175104, Note_off_c, 7, 76, 0
9, 175104, Note_off_c, 7, 60, 0
9, 175104, Note_off_c, 7, 67, 0
9, 175104, Note_on_c, 7, 76, 96
9, 175104, Note_on_c, 7, 69, 96
9, 175104, Note_on_c, 7, 65, 96
9, 175360, Note_off_c, 7, 76, 0
9, 175360, Note_on_c, 7, 74, 96
9, 175616, Note_off_c, 7, 74, 0
9, 175616, Note_on_c, 7, 76, 96
9, 175616, Note_off_c, 7, 69, 0
9, 175616, Note_on_c, 7, 69, 96
9, 175616, Note_off_c, 7, 65, 0
9, 175616, Note_on_c, 7, 65, 96
9, 175872, Note_off_c, 7, 76, 0
9, 175872, Note_on_c, 7, 72, 96
9, 176128, Note_off_c, 7, 72, 0
9, 176128, Note_on_c, 7, 72, 96
9, 176128, Note_off_c, 7, 69, 0
9, 176128, Note_on_c, 7, 69, 96
9, 176128, Note_off_c, 7, 65, 0
9, 176128, Note_on_c, 7, 65, 96
9, 176384, Note_off_c, 7, 72, 0
9, 176384, Note_on_c, 7, 71, 96
9, 176640, Note_off_c, 7, 71, 0
9, 176640, Note_on_c, 7, 72, 96
9, 176640, Note_off_c, 7, 69, 0
9, 176640, Note_on_c, 7, 69, 96
9, 176640, Note_off_c, 7, 65, 0
9, 176640, Note_on_c, 7, 65, 96
9, 176896, Note_off_c, 7, 72, 0
9, 176896, Note_on_c, 7, 69, 96
9, 177152, Note_off_c, 7, 69, 0
9, 177152, Note_on_c, 7, 69, 96
9, 177152, Note_off_c, 7, 69, 0
9, 177152, Note_on_c, 7, 69, 96
9, 177152, Note_off_c, 7, 65, 0
9, 177152, Note_on_c, 7, 65, 96
9, 177408, Note_off_c, 7, 69, 0
9, 177408, Note_on_c, 7, 67, 96
9, 177664, Note_off_c, 7, 67, 0
9, 177664, Note_on_c, 7, 69, 96
9, 177664, Note_off_c, 7, 69, 0
9, 177664, Note_on_c, 7, 69, 96
9, 177664, Note_off_c, 7, 65, 0
9, 177664, Note_on_c, 7, 65, 96
9, 177920, Note_off_c, 7, 69, 0
9, 177920, Note_on_c, 7, 65, 96
9, 178176, Note_off_c, 7, 65, 0
9, 178176, Note_off_c, 7, 69, 0
9, 178176, Note_off_c, 7, 65, 0
9, 178176, Note_on_c, 7, 74, 96
9, 178176, Note_on_c, 7, 69, 96
9, 178176, Note_on_c, 7, 65, 96
9, 178432, Note_off_c, 7, 69, 0
9, 178432, Note_on_c, 7, 67, 96
9, 178688, Note_off_c, 7, 74, 0
9, 178688, Note_on_c, 7, 74, 96
9, 178688, Note_off_c, 7, 67, 0
9, 178688, Note_on_c, 7, 69, 96
9, 178688, Note_off_c, 7, 65, 0
9, 178688, Note_on_c, 7, 65, 96
9, 178944, Note_off_c, 7, 69, 0
9, 178944, Note_on_c, 7, 65, 96
9, 179200, Note_off_c, 7, 74, 0
9, 179200, Note_on_c, 7, 74, 96
9, 179200, Note_off_c, 7, 65, 0
9, 179200, Note_on_c, 7, 65, 96
9, 179200, Note_off_c, 7, 65, 0
9, 179200, Note_on_c, 7, 65, 96
9, 179456, Note_off_c, 7, 65, 0
9, 179456, Note_on_c, 7, 64, 96
9, 179712, Note_off_c, 7, 74, 0
9, 179712, Note_on_c, 7, 74, 96
9, 179712, Note_off_c, 7, 64, 0
9, 179712, Note_on_c, 7, 65, 96
9, 179712, Note_off_c, 7, 65, 0
9, 179712, Note_on_c, 7, 65, 96
9, 179968, Note_off_c, 7, 65, 0
9, 179968, Note_on_c, 7, 62, 96
9, 180224, Note_off_c, 7, 74, 0
9, 180224, Note_on_c, 7, 74, 96
9, 180224, Note_off_c, 7, 62, 0
9, 180224, Note_on_c, 7, 62, 96
9, 180224, Note_off_c, 7, 65, 0
9, 180224, Note_on_c, 7, 65, 96
9, 180480, Note_off_c, 7, 62, 0
9, 180480, Note_on_c, 7, 60, 96
9, 180736, Note_off_c, 7, 74, 0
9, 180736, Note_on_c, 7, 74, 96
9, 180736, Note_off_c, 7, 60, 0
9, 180736, Note_on_c, 7, 62, 96
9, 180736, Note_off_c, 7, 65, 0
9, 180736, Note_on_c, 7, 65, 96
9, 180992, Note_off_c, 7, 62, 0
9, 180992, Note_on_c, 7, 59, 96
9, 181248, Note_off_c, 7, 74, 0
9, 181248, Note_off_c, 7, 59, 0
9, 181248, Note_off_c, 7, 65, 0
9, 181248, Note_on_c, 7, 74, 96
9, 181248, Note_on_c, 7, 68, 96
9, 181248, Note_on_c, 7, 64, 96
9, 181504, Note_off_c, 7, 74, 0
9, 181504, Note_on_c, 7, 72, 96
9, 181760, Note_off_c, 7, 72, 0
9, 181760, Note_on_c, 7, 74, 96
9, 181760, Note_off_c, 7, 68, 0
9, 181760, Note_on_c, 7, 68, 96
9, 181760, Note_off_c, 7, 64, 0
9, 181760, Note_on_c, 7, 64, 96
9, 182016, Note_off_c, 7, 74, 0
9, 182016, Note_on_c, 7, 71, 96
9, 182272, Note_off_c, 7, 71, 0
9, 182272, Note_on_c, 7, 71, 96
9, 182272, Note_off_c, 7, 68, 0
9, 182272, Note_on_c, 7, 68, 96
9, 182272, Note_off_c, 7, 64, 0
9, 182272, Note_on_c, 7, 64, 96
9, 182528, Note_off_c, 7, 71, 0
9, 182528, Note_on_c, 7, 69, 96
9, 182784, Note_off_c, 7, 69, 0
9, 182784, Note_on_c, 7, 71, 96
9, 182784, Note_off_c, 7, 68, 0
9, 182784, Note_on_c, 7, 68, 96
9, 182784, Note_off_c, 7, 64, 0
9, 182784, Note_on_c, 7, 64, 96
9, 183040, Note_off_c, 7, 71, 0
9, 183040, Note_on_c, 7, 68, 96
9, 183296, Note_off_c, 7, 68, 0
9, 183296, Note_on_c, 7, 68, 96
9, 183296, Note_off_c, 7, 68, 0
9, 183296, Note_on_c, 7, 68, 96
9, 183296, Note_off_c, 7, 64, 0
9, 183296, Note_on_c, 7, 64, 96
9, 183552, Note_off_c, 7, 68, 0
9, 183552, Note_on_c, 7, 66, 96
9, 183808, Note_off_c, 7, 66, 0
9, 183808, Note_on_c, 7, 68, 96
9, 183808, Note_off_c, 7, 68, 0
9, 183808, Note_on_c, 7, 68, 96
9, 183808, Note_off_c, 7, 64, 0
9, 183808, Note_on_c, 7, 64, 96
9, 184064, Note_off_c, 7, 68, 0
9, 184064, Note_on_c, 7, 64, 96
9, 184320, Note_off_c, 7, 64, 0
9, 184320, Note_off_c, 7, 68, 0
9, 184320, Note_off_c, 7, 64, 0
9, 184320, Note_on_c, 7, 72, 96
9, 184320, Note_on_c, 7, 69, 96
9, 184320, Note_on_c, 7, 64, 96
9, 184832, Note_off_c, 7, 72, 0
9, 184832, Note_on_c, 7, 72, 96
9, 184832, Note_off_c, 7, 69, 0
9, 184832, Note_on_c, 7, 76, 96
9, 184832, Note_off_c, 7, 64, 0
9, 184832, Note_on_c, 7, 64, 96
9, 185088, Note_off_c, 7, 72, 0
9, 185088, Note_on_c, 7, 74, 96
9, 185344, Note_off_c, 7, 74, 0
9, 185344, Note_on_c, 7, 76, 96
9, 185344, Note_off_c, 7, 64, 0
9, 185344, Note_on_c, 7, 64, 96
9, 185856, Note_off_c, 7, 76, 0
9, 185856, Note_on_c, 7, 76, 96
9, 185856, Note_off_c, 7, 76, 0
9, 185856, Note_on_c, 7, 72, 96
9, 185856, Note_off_c, 7, 64, 0
9, 185856, Note_on_c, 7, 64, 96
9, 186112, Note_off_c, 7, 76, 0
9, 186112, Note_on_c, 7, 77, 96
9, 186368, Note_off_c, 7, 77, 0
9, 186368, Note_on_c, 7, 79, 96
9, 186368, Note_off_c, 7, 64, 0
9, 186368, Note_on_c, 7, 64, 96
9, 186880, Note_off_c, 7, 79, 0
9, 186880, Note_on_c, 7, 81, 96
9, 186880, Note_off_c, 7, 72, 0
9, 186880, Note_on_c, 7, 69, 96
9, 186880, Note_off_c, 7, 64, 0
9, 186880, Note_on_c, 7, 64, 96
9, 187136, Note_off_c, 7, 81, 0
9, 187136, Note_on_c, 7, 79, 96
9, 187392, Note_off_c, 7, 79, 0
9, 187392, Note_off_c, 7, 64, 0
9, 187392, Note_on_c, 7, 77, 96
9, 187392, Note_on_c, 7, 62, 96
9, 187904, Note_off_c, 7, 77, 0
9, 187904, Note_on_c, 7, 81, 96
9, 187904, Note_off_c, 7, 69, 0
9, 187904, Note_on_c, 7, 65, 96
9, 187904, Note_off_c, 7, 62, 0
9, 187904, Note_on_c, 7, 62, 96
9, 188160, Note_off_c, 7, 65, 0
9, 188160, Note_on_c, 7, 67, 96
9, 188416, Note_off_c, 7, 67, 0
9, 188416, Note_on_c, 7, 69, 96
9, 188416, Note_off_c, 7, 62, 0
9, 188416, Note_on_c, 7, 62, 96
9, 188928, Note_off_c, 7, 81, 0
9, 188928, Note_on_c, 7, 77, 96
9, 188928, Note_off_c, 7, 69, 0
9, 188928, Note_on_c, 7, 69, 96
9, 188928, Note_off_c, 7, 62, 0
9, 188928, Note_on_c, 7, 62, 96
9, 189184, Note_off_c, 7, 69, 0
9, 189184, Note_on_c, 7, 71, 96
9, 189440, Note_off_c, 7, 71, 0
9, 189440, Note_on_c, 7, 72, 96
9, 189440, Note_off_c, 7, 62, 0
9, 189440, Note_on_c, 7, 62, 96
9, 189952, Note_off_c, 7, 77, 0
9, 189952, Note_on_c, 7, 74, 96
9, 189952, Note_off_c, 7, 72, 0
9, 189952, Note_on_c, 7, 74, 96
9, 189952, Note_off_c, 7, 62, 0
9, 189952, Note_on_c, 7, 62, 96
9, 190208, Note_off_c, 7, 74, 0
9, 190208, Note_on_c, 7, 72, 96
9, 190464, Note_off_c, 7, 72, 0
9, 190464, Note_off_c, 7, 62, 0
9, 190464, Note_on_c, 7, 71, 96
9, 190464, Note_on_c, 7, 62, 96
9, 190976, Note_off_c, 7, 74, 0
9, 190976, Note_on_c, 7, 71, 96
9, 190976, Note_off_c, 7, 71, 0
9, 190976, Note_on_c, 7, 74, 96
9, 190976, Note_off_c, 7, 62, 0
9, 190976, Note_on_c, 7, 62, 96
9, 191232, Note_off_c, 7, 71, 0
9, 191232, Note_on_c, 7, 72, 96
9, 191488, Note_off_c, 7, 72, 0
9, 191488, Note_on_c, 7, 74, 96
9, 191488, Note_off_c, 7, 62, 0
9, 191488, Note_on_c, 7, 62, 96
9, 192000, Note_off_c, 7, 74, 0
9, 192000, Note_on_c, 7, 74, 96
9, 192000, Note_off_c, 7, 74, 0
9, 192000, Note_on_c, 7, 71, 96
9, 192000, Note_off_c, 7, 62, 0
9, 192000, Note_on_c, 7, 62, 96
9, 192256, Note_off_c, 7, 74, 0
9, 192256, Note_on_c, 7, 76, 96
9, 192512, Note_off_c, 7, 76, 0
9, 192512, Note_on_c, 7, 77, 96
9, 192512, Note_off_c, 7, 62, 0
9, 192512, Note_on_c, 7, 62, 96
9, 193024, Note_off_c, 7, 77, 0
9, 193024, Note_on_c, 7, 79, 96
9, 193024, Note_off_c, 7, 71, 0
9, 193024, Note_on_c, 7, 67, 96
9, 193024, Note_off_c, 7, 62, 0
9, 193024, Note_on_c, 7, 62, 96
9, 193280, Note_off_c, 7, 79, 0
9, 193280, Note_on_c, 7, 77, 96
9, 193536, Note_off_c, 7, 77, 0
9, 193536, Note_off_c, 7, 62, 0
9, 193536, Note_on_c, 7, 76, 96
9, 193536, Note_on_c, 7, 60, 96
9, 194048, Note_off_c, 7, 76, 0
9, 194048, Note_on_c, 7, 72, 96
9, 194048, Note_off_c, 7, 67, 0
9, 194048, Note_on_c, 7, 64, 96
9, 194048, Note_off_c, 7, 60, 0
9, 194048, Note_on_c, 7, 72, 96
9, 194560, Note_off_c, 7, 72, 0
9, 194560, Note_on_c, 7, 76, 96
9, 194560, Note_off_c, 7, 64, 0
9, 194560, Note_on_c, 7, 67, 96
9, 194560, Note_off_c, 7, 72, 0
9, 194560, Note_on_c, 7, 67, 96
9, 195072, Note_off_c, 7, 76, 0
9, 195072, Note_on_c, 7, 79, 96
9, 195072, Note_off_c, 7, 67, 0
9, 195072, Note_on_c, 7, 72, 96
9, 195072, Note_off_c, 7, 67, 0
9, 195072, Note_on_c, 7, 64, 96
9, 195584, Note_off_c, 7, 79, 0
9, 195584, Note_on_c, 7, 84, 96
9, 195584, Note_off_c, 7, 72, 0
9, 195584, Note_on_c, 7, 79, 96
9, 195584, Note_off_c, 7, 64, 0
9, 195584, Note_on_c, 7, 60, 96
9, 196096, Note_off_c, 7, 84, 0
9, 196096, Note_on_c, 7, 79, 96
9, 196096, Note_off_c, 7, 79, 0
9, 196096, Note_on_c, 7, 71, 96
9, 196096, Note_off_c, 7, 60, 0
9, 196096, Note_on_c, 7, 62, 96
9, 196608, Note_off_c, 7, 79, 0
9, 196608, Note_off_c, 7, 71, 0
9, 196608, Note_off_c, 7, 62, 0
9, 196608, Note_on_c, 7, 55, 96
9, 197120, Note_on_c, 7, 72, 96
9, 197120, Note_on_c, 7, 64, 96
9, 197120, Note_off_c, 7, 55, 0
9, 197120, Note_on_c, 7, 72, 96
9, 197632, Note_off_c, 7, 72, 0
9, 197632, Note_on_c, 7, 76, 96
9, 197632, Note_off_c, 7, 64, 0
9, 197632, Note_on_c, 7, 67, 96
9, 197632, Note_off_c, 7, 72, 0
9, 197632, Note_on_c, 7, 67, 96
9, 198144, Note_off_c, 7, 76, 0
9, 198144, Note_on_c, 7, 79, 96
9, 198144, Note_off_c, 7, 67, 0
9, 198144, Note_on_c, 7, 72, 96
9, 198144, Note_off_c, 7, 67, 0
9, 198144, Note_on_c, 7, 64, 96
9, 198656, Note_off_c, 7, 79, 0
9, 198656, Note_on_c, 7, 84, 96
9, 198656, Note_off_c, 7, 72, 0
9, 198656, Note_on_c, 7, 79, 96
9, 198656, Note_off_c, 7, 64, 0
9, 198656, Note_on_c, 7, 60, 96
9, 199168, Note_off_c, 7, 84, 0
9, 199168, Note_on_c, 7, 79, 96
9, 199168, Note_off_c, 7, 79, 0
9, 199168, Note_on_c, 7, 76, 96
9, 199168, Note_off_c, 7, 60, 0
9, 199168, Note_on_c, 7, 67, 96
9, 199680, Note_off_c, 7, 79, 0
9, 199680, Note_off_c, 7, 76, 0
9, 199680, Note_off_c, 7, 67, 0
9, 199680, Note_on_c, 7, 67, 96
9, 200704, Note_on_c, 7, 67, 96
9, 200704, Note_on_c, 7, 67, 96
9, 200704, Note_off_c, 7, 67, 0
9, 200704, Note_on_c, 7, 67, 96
9, 201728, Note_off_c, 7, 67, 0
9, 201728, Note_on_c, 7, 67, 96
9, 201728, Note_off_c, 7, 67, 0
9, 201728, Note_on_c, 7, 67, 96
9, 201728, Note_off_c, 7, 67, 0
9, 201728, Note_on_c, 7, 67, 96
9, 202752, Note_off_c, 7, 67, 0
9, 202752, Note_off_c, 7, 67, 0
9, 202752, Note_off_c, 7, 67, 0
9, 202752, Note_on_c, 7, 67, 96
9, 202752, Note_on_c, 7, 67, 96
9, 202752, Note_on_c, 7, 67, 96
9, 203776, Note_off_c, 7, 67, 0
9, 203776, Note_on_c, 7, 66, 96
9, 203776, Note_off_c, 7, 67, 0
9, 203776, Note_on_c, 7, 66, 96
9, 203776, Note_off_c, 7, 67, 0
9, 203776, Note_on_c, 7, 66, 96
9, 204800, Note_off_c, 7, 66, 0
9, 204800, Note_on_c, 7, 66, 96
9, 204800, Note_off_c, 7, 66, 0
9, 204800, Note_on_c, 7, 66, 96
9, 204800, Note_off_c, 7, 66, 0
9, 204800, Note_on_c, 7, 66, 96
9, 205824, Note_off_c, 7, 66, 0
9, 205824, Note_off_c, 7, 66, 0
9, 205824, Note_off_c, 7, 66, 0
9, 205824, Note_on_c, 7, 67, 96
9, 205824, Note_on_c, 7, 67, 96
9, 205824, Note_on_c, 7, 67, 96
9, 206336, Note_off_c, 7, 67, 0
9, 206336, Note_on_c, 7, 71, 96
9, 206336, Note_off_c, 7, 67, 0
9, 206336, Note_on_c, 7, 67, 96
9, 206336, Note_off_c, 7, 67, 0
9, 206336, Note_on_c, 7, 62, 96
9, 206848, Note_off_c, 7, 71, 0
9, 206848, Note_on_c, 7, 67, 96
9, 206848, Note_off_c, 7, 67, 0
9, 206848, Note_on_c, 7, 64, 96
9, 206848, Note_off_c, 7, 62, 0
9, 206848, Note_on_c, 7, 64, 96
9, 207104, Note_off_c, 7, 64, 0
9, 207104, Note_on_c, 7, 62, 96
9, 207360, Note_off_c, 7, 67, 0
9, 207360, Note_on_c, 7, 72, 96
9, 207360, Note_off_c, 7, 64, 0
9, 207360, Note_on_c, 7, 69, 96
9, 207360, Note_off_c, 7, 62, 0
9, 207360, Note_on_c, 7, 64, 96
9, 207616, Note_off_c, 7, 64, 0
9, 207616, Note_on_c, 7, 60, 96
9, 207872, Note_off_c, 7, 60, 0
9, 207872, Note_on_c, 7, 60, 96
9, 208128, Note_off_c, 7, 60, 0
9, 208128, Note_on_c, 7, 59, 96
9, 208384, Note_off_c, 7, 72, 0
9, 208384, Note_on_c, 7, 71, 96
9, 208384, Note_off_c, 7, 69, 0
9, 208384, Note_on_c, 7, 67, 96
9, 208384, Note_off_c, 7, 59, 0
9, 208384, Note_on_c, 7, 60, 96
9, 208640, Note_off_c, 7, 60, 0
9, 208640, Note_on_c, 7, 57, 96
9, 208896, Note_off_c, 7, 71, 0
9, 208896, Note_off_c, 7, 67, 0
9, 208896, Note_off_c, 7, 57, 0
9, 208896, Note_on_c, 7, 69, 96
9, 208896, Note_on_c, 7, 66, 96
9, 208896, Note_on_c, 7, 59, 96
9, 209408, Note_off_c, 7, 69, 0
9, 209408, Note_on_c, 7, 69, 96
9, 209408, Note_off_c, 7, 66, 0
9, 209408, Note_on_c, 7, 66, 96
9, 209408, Note_off_c, 7, 59, 0
9, 209408, Note_on_c, 7, 59, 96
9, 209664, Note_off_c, 7, 69, 0
9, 209664, Note_on_c, 7, 67, 96
9, 209664, Note_off_c, 7, 66, 0
9, 209664, Note_on_c, 7, 64, 96
9, 209920, Note_off_c, 7, 67, 0
9, 209920, Note_on_c, 7, 69, 96
9, 209920, Note_off_c, 7, 64, 0
9, 209920, Note_on_c, 7, 66, 96
9, 209920, Note_off_c, 7, 59, 0
9, 209920, Note_on_c, 7, 59, 96
9, 210432, Note_off_c, 7, 69, 0
9, 210432, Note_on_c, 7, 78, 96
9, 210432, Note_off_c, 7, 66, 0
9, 210432, Note_on_c, 7, 69, 96
9, 210432, Note_off_c, 7, 59, 0
9, 210432, Note_on_c, 7, 60, 96
9, 210944, Note_off_c, 7, 60, 0
9, 210944, Note_on_c, 7, 60, 96
9, 211456, Note_off_c, 7, 78, 0
9, 211456, Note_on_c, 7, 69, 96
9, 211456, Note_off_c, 7, 69, 0
9, 211456, Note_on_c, 7, 66, 96
9, 211456, Note_off_c, 7, 60, 0
9, 211456, Note_on_c, 7, 59, 96
9, 211968, Note_off_c, 7, 69, 0
9, 211968, Note_off_c, 7, 66, 0
9, 211968, Note_off_c, 7, 59, 0
9, 211968, Note_on_c, 7, 67, 96
9, 211968, Note_on_c, 7, 64, 96
9, 211968, Note_on_c, 7, 59, 96
9, 212480, Note_off_c, 7, 67, 0
9, 212480, Note_off_c, 7, 64, 0
9, 212480, Note_off_c, 7, 59, 0
9, 215552, Note_on_c, 7, 75, 96
9, 215552, Note_on_c, 7, 71, 96
9, 215552, Note_on_c, 7, 66, 96
9, 215808, Note_off_c, 7, 75, 0
9, 215808, Note_on_c, 7, 76, 96
9, 216064, Note_off_c, 7, 76, 0
9, 216064, Note_on_c, 7, 78, 96
9, 216064, Note_off_c, 7, 71, 0
9, 216064, Note_on_c, 7, 71, 96
9, 216064, Note_off_c, 7, 66, 0
9, 216064, Note_on_c, 7, 66, 96
9, 216576, Note_off_c, 7, 78, 0
9, 216576, Note_on_c, 7, 78, 96
9, 216576, Note_off_c, 7, 71, 0
9, 216576, Note_on_c, 7, 69, 96
9, 216576, Note_off_c, 7, 66, 0
9, 216576, Note_on_c, 7, 66, 96
9, 216832, Note_off_c, 7, 78, 0
9, 216832, Note_on_c, 7, 79, 96
9, 216832, Note_off_c, 7, 69, 0
9, 216832, Note_on_c, 7, 67, 96
9, 216832, Note_off_c, 7, 66, 0
9, 216832, Note_on_c, 7, 64, 96
9, 217088, Note_off_c, 7, 79, 0
9, 217088, Note_on_c, 7, 81, 96
9, 217088, Note_off_c, 7, 67, 0
9, 217088, Note_on_c, 7, 66, 96
9, 217088, Note_off_c, 7, 64, 0
9, 217088, Note_on_c, 7, 71, 96
9, 217600, Note_off_c, 7, 81, 0
9, 217600, Note_on_c, 7, 83, 96
9, 217600, Note_off_c, 7, 66, 0
9, 217600, Note_on_c, 7, 71, 96
9, 217600, Note_off_c, 7, 71, 0
9, 217600, Note_on_c, 7, 66, 96
9, 217856, Note_off_c, 7, 83, 0
9, 217856, Note_on_c, 7, 81, 96
9, 218112, Note_off_c, 7, 81, 0
9, 218112, Note_off_c, 7, 71, 0
9, 218112, Note_off_c, 7, 66, 0
9, 218112, Note_on_c, 7, 79, 96
9, 218112, Note_on_c, 7, 71, 96
9, 218112, Note_on_c, 7, 64, 96
9, 218368, Note_off_c, 7, 79, 0
9, 218368, Note_on_c, 7, 78, 96
9, 218624, Note_off_c, 7, 78, 0
9, 218624, Note_on_c, 7, 79, 96
9, 218624, Note_off_c, 7, 71, 0
9, 218624, Note_on_c, 7, 71, 96
9, 218624, Note_off_c, 7, 64, 0
9, 218624, Note_on_c, 7, 64, 96
9, 218880, Note_off_c, 7, 79, 0
9, 218880, Note_on_c, 7, 76, 96
9, 219136, Note_off_c, 7, 76, 0
9, 219136, Note_on_c, 7, 76, 96
9, 219136, Note_off_c, 7, 71, 0
9, 219136, Note_on_c, 7, 71, 96
9, 219136, Note_off_c, 7, 64, 0
9, 219136, Note_on_c, 7, 64, 96
9, 219392, Note_off_c, 7, 76, 0
9, 219392, Note_on_c, 7, 74, 96
9, 219648, Note_off_c, 7, 74, 0
9, 219648, Note_on_c, 7, 76, 96
9, 219648, Note_off_c, 7, 71, 0
9, 219648, Note_on_c, 7, 71, 96
9, 219648, Note_off_c, 7, 64, 0
9, 219648, Note_on_c, 7, 64, 96
9, 219904, Note_off_c, 7, 76, 0
9, 219904, Note_on_c, 7, 72, 96
9, 220160, Note_off_c, 7, 72, 0
9, 220160, Note_on_c, 7, 69, 96
9, 220160, Note_off_c, 7, 71, 0
9, 220160, Note_on_c, 7, 69, 96
9, 220160, Note_off_c, 7, 64, 0
9, 220160, Note_on_c, 7, 60, 96
9, 220416, Note_off_c, 7, 69, 0
9, 220416, Note_on_c, 7, 79, 96
9, 220672, Note_off_c, 7, 79, 0
9, 220672, Note_on_c, 7, 78, 96
9, 220672, Note_off_c, 7, 69, 0
9, 220672, Note_on_c, 7, 72, 96
9, 220672, Note_off_c, 7, 60, 0
9, 220672, Note_on_c, 7, 72, 96
9, 220928, Note_off_c, 7, 78, 0
9, 220928, Note_on_c, 7, 76, 96
9, 221184, Note_off_c, 7, 76, 0
9, 221184, Note_off_c, 7, 72, 0
9, 221184, Note_off_c, 7, 72, 0
9, 221184, Note_on_c, 7, 75, 96
9, 221184, Note_on_c, 7, 71, 96
9, 221184, Note_on_c, 7, 66, 96
9, 221440, Note_off_c, 7, 71, 0
9, 221440, Note_on_c, 7, 69, 96
9, 221696, Note_off_c, 7, 75, 0
9, 221696, Note_on_c, 7, 74, 96
9, 221696, Note_off_c, 7, 69, 0
9, 221696, Note_on_c, 7, 71, 96
9, 221696, Note_off_c, 7, 66, 0
9, 221696, Note_on_c, 7, 66, 96
9, 221952, Note_off_c, 7, 71, 0
9, 221952, Note_on_c, 7, 66, 96
9, 222208, Note_off_c, 7, 74, 0
9, 222208, Note_on_c, 7, 74, 96
9, 222208, Note_off_c, 7, 66, 0
9, 222208, Note_on_c, 7, 66, 96
9, 222208, Note_off_c, 7, 66, 0
9, 222208, Note_on_c, 7, 66, 96
9, 222464, Note_off_c, 7, 66, 0
9, 222464, Note_on_c, 7, 64, 96
9, 222720, Note_off_c, 7, 74, 0
9, 222720, Note_on_c, 7, 74, 96
9, 222720, Note_off_c, 7, 64, 0
9, 222720, Note_on_c, 7, 66, 96
9, 222720, Note_off_c, 7, 66, 0
9, 222720, Note_on_c, 7, 66, 96
9, 222976, Note_off_c, 7, 66, 0
9, 222976, Note_on_c, 7, 62, 96
9, 223232, Note_off_c, 7, 74, 0
9, 223232, Note_on_c, 7, 74, 96
9, 223232, Note_off_c, 7, 62, 0
9, 223232, Note_on_c, 7, 62, 96
9, 223232, Note_off_c, 7, 66, 0
9, 223232, Note_on_c, 7, 66, 96
9, 223488, Note_off_c, 7, 62, 0
9, 223488, Note_on_c, 7, 60, 96
9, 223744, Note_off_c, 7, 74, 0
9, 223744, Note_on_c, 7, 74, 96
9, 223744, Note_off_c, 7, 60, 0
9, 223744, Note_on_c, 7, 62, 96
9, 223744, Note_off_c, 7, 66, 0
9, 223744, Note_on_c, 7, 66, 96
9, 224000, Note_off_c, 7, 62, 0
9, 224000, Note_on_c, 7, 59, 96
9, 224256, Note_off_c, 7, 74, 0
9, 224256, Note_off_c, 7, 59, 0
9, 224256, Note_off_c, 7, 66, 0
9, 224256, Note_on_c, 7, 74, 96
9, 224256, Note_on_c, 7, 68, 96
9, 224256, Note_on_c, 7, 64, 96
9, 224512, Note_off_c, 7, 74, 0
9, 224512, Note_on_c, 7, 72, 96
9, 224768, Note_off_c, 7, 72, 0
9, 224768, Note_on_c, 7, 74, 96
9, 224768, Note_off_c, 7, 68, 0
9, 224768, Note_on_c, 7, 68, 96
9, 224768, Note_off_c, 7, 64, 0
9, 224768, Note_on_c, 7, 64, 96
9, 225024, Note_off_c, 7, 74, 0
9, 225024, Note_on_c, 7, 71, 96
9, 225280, Note_off_c, 7, 71, 0
9, 225280, Note_on_c, 7, 71, 96
9, 225280, Note_off_c, 7, 68, 0
9, 225280, Note_on_c, 7, 68, 96
9, 225280, Note_off_c, 7, 64, 0
9, 225280, Note_on_c, 7, 64, 96
9, 225536, Note_off_c, 7, 71, 0
9, 225536, Note_on_c, 7, 69, 96
9, 225792, Note_off_c, 7, 69, 0
9, 225792, Note_on_c, 7, 71, 96
9, 225792, Note_off_c, 7, 68, 0
9, 225792, Note_on_c, 7, 68, 96
9, 225792, Note_off_c, 7, 64, 0
9, 225792, Note_on_c, 7, 64, 96
9, 226048, Note_off_c, 7, 71, 0
9, 226048, Note_on_c, 7, 68, 96
9, 226304, Note_off_c, 7, 68, 0
9, 226304, Note_on_c, 7, 68, 96
9, 226304, Note_off_c, 7, 68, 0
9, 226304, Note_on_c, 7, 68, 96
9, 226304, Note_off_c, 7, 64, 0
9, 226304, Note_on_c, 7, 64, 96
9, 226560, Note_off_c, 7, 68, 0
9, 226560, Note_on_c, 7, 66, 96
9, 226816, Note_off_c, 7, 66, 0
9, 226816, Note_on_c, 7, 68, 96
9, 226816, Note_off_c, 7, 68, 0
9, 226816, Note_on_c, 7, 68, 96
9, 226816, Note_off_c, 7, 64, 0
9, 226816, Note_on_c, 7, 64, 96
9, 227072, Note_off_c, 7, 68, 0
9, 227072, Note_on_c, 7, 64, 96
9, 227328, Note_off_c, 7, 64, 0
9, 227328, Note_off_c, 7, 68, 0
9, 227328, Note_off_c, 7, 64, 0
9, 227328, Note_on_c, 7, 72, 96
9, 227328, Note_on_c, 7, 69, 96
9, 227328, Note_on_c, 7, 64, 96
9, 227584, Note_off_c, 7, 69, 0
9, 227584, Note_on_c, 7, 68, 96
9, 227840, Note_off_c, 7, 72, 0
9, 227840, Note_on_c, 7, 72, 96
9, 227840, Note_off_c, 7, 68, 0
9, 227840, Note_on_c, 7, 69, 96
9, 227840, Note_off_c, 7, 64, 0
9, 227840, Note_on_c, 7, 64, 96
9, 228096, Note_off_c, 7, 69, 0
9, 228096, Note_on_c, 7, 64, 96
9, 228352, Note_off_c, 7, 72, 0
9, 228352, Note_on_c, 7, 72, 96
9, 228352, Note_off_c, 7, 64, 0
9, 228352, Note_on_c, 7, 64, 96
9, 228352, Note_off_c, 7, 64, 0
9, 228352, Note_on_c, 7, 64, 96
9, 228608, Note_off_c, 7, 64, 0
9, 228608, Note_on_c, 7, 62, 96
9, 228864, Note_off_c, 7, 72, 0
9, 228864, Note_on_c, 7, 72, 96
9, 228864, Note_off_c, 7, 62, 0
9, 228864, Note_on_c, 7, 64, 96
9, 228864, Note_off_c, 7, 64, 0
9, 228864, Note_on_c, 7, 64, 96
9, 229120, Note_off_c, 7, 64, 0
9, 229120, Note_on_c, 7, 60, 96
9, 229376, Note_off_c, 7, 72, 0
9, 229376, Note_on_c, 7, 72, 96
9, 229376, Note_off_c, 7, 60, 0
9, 229376, Note_on_c, 7, 60, 96
9, 229376, Note_off_c, 7, 64, 0
9, 229376, Note_on_c, 7, 64, 96
9, 229632, Note_off_c, 7, 60, 0
9, 229632, Note_on_c, 7, 59, 96
9, 229888, Note_off_c, 7, 72, 0
9, 229888, Note_on_c, 7, 72, 96
9, 229888, Note_off_c, 7, 59, 0
9, 229888, Note_on_c, 7, 60, 96
9, 229888, Note_off_c, 7, 64, 0
9, 229888, Note_on_c, 7, 64, 96
9, 230144, Note_off_c, 7, 60, 0
9, 230144, Note_on_c, 7, 57, 96
9, 230400, Note_off_c, 7, 72, 0
9, 230400, Note_off_c, 7, 57, 0
9, 230400, Note_off_c, 7, 64, 0
9, 230400, Note_on_c, 7, 72, 96
9, 230400, Note_on_c, 7, 66, 96
9, 230400, Note_on_c, 7, 62, 96
9, 230656, Note_off_c, 7, 72, 0
9, 230656, Note_on_c, 7, 71, 96
9, 230912, Note_off_c, 7, 71, 0
9, 230912, Note_on_c, 7, 72, 96
9, 230912, Note_off_c, 7, 66, 0
9, 230912, Note_on_c, 7, 66, 96
9, 230912, Note_off_c, 7, 62, 0
9, 230912, Note_on_c, 7, 62, 96
9, 231168, Note_off_c, 7, 72, 0
9, 231168, Note_on_c, 7, 69, 96
9, 231424, Note_off_c, 7, 69, 0
9, 231424, Note_on_c, 7, 69, 96
9, 231424, Note_off_c, 7, 66, 0
9, 231424, Note_on_c, 7, 66, 96
9, 231424, Note_off_c, 7, 62, 0
9, 231424, Note_on_c, 7, 62, 96
9, 231680, Note_off_c, 7, 69, 0
9, 231680, Note_on_c, 7, 67, 96
9, 231936, Note_off_c, 7, 67, 0
9, 231936, Note_on_c, 7, 69, 96
9, 231936, Note_off_c, 7, 66, 0
9, 231936, Note_on_c, 7, 66, 96
9, 231936, Note_off_c, 7, 62, 0
9, 231936, Note_on_c, 7, 62, 96
9, 232192, Note_off_c, 7, 69, 0
9, 232192, Note_on_c, 7, 66, 96
9, 232448, Note_off_c, 7, 66, 0
9, 232448, Note_on_c, 7, 66, 96
9, 232448, Note_off_c, 7, 66, 0
9, 232448, Note_on_c, 7, 66, 96
9, 232448, Note_off_c, 7, 62, 0
9, 232448, Note_on_c, 7, 62, 96
9, 232704, Note_off_c, 7, 66, 0
9, 232704, Note_on_c, 7, 64, 96
9, 232960, Note_off_c, 7, 64, 0
9, 232960, Note_on_c, 7, 66, 96
9, 232960, Note_off_c, 7, 66, 0
9, 232960, Note_on_c, 7, 66, 96
9, 232960, Note_off_c, 7, 62, 0
9, 232960, Note_on_c, 7, 62, 96
9, 233216, Note_off_c, 7, 66, 0
9, 233216, Note_on_c, 7, 62, 96
9, 233472, Note_off_c, 7, 62, 0
9, 233472, Note_off_c, 7, 66, 0
9, 233472, Note_off_c, 7, 62, 0
9, 233472, Note_on_c, 7, 71, 96
9, 233472, Note_on_c, 7, 67, 96
9, 233472, Note_on_c, 7, 62, 96
9, 234496, Note_off_c, 7, 71, 0
9, 234496, Note_off_c, 7, 67, 0
9, 234496, Note_off_c, 7, 62, 0
9, 234496, Note_on_c, 7, 67, 96
9, 235008, Note_on_c, 7, 67, 96
9, 235008, Note_on_c, 7, 64, 96
9, 235264, Note_off_c, 7, 67, 0
9, 235264, Note_on_c, 7, 69, 96
9, 235264, Note_off_c, 7, 64, 0
9, 235264, Note_on_c, 7, 66, 96
9, 235520, Note_off_c, 7, 69, 0
9, 235520, Note_on_c, 7, 71, 96
9, 235520, Note_off_c, 7, 66, 0
9, 235520, Note_on_c, 7, 67, 96
9, 235520, Note_off_c, 7, 67, 0
9, 235520, Note_on_c, 7, 67, 96
9, 236032, Note_off_c, 7, 71, 0
9, 236032, Note_on_c, 7, 72, 96
9, 236032, Note_off_c, 7, 67, 0
9, 236032, Note_on_c, 7, 70, 96
9, 236288, Note_off_c, 7, 72, 0
9, 236288, Note_on_c, 7, 74, 96
9, 236288, Note_off_c, 7, 70, 0
9, 236288, Note_on_c, 7, 71, 96
9, 236544, Note_off_c, 7, 74, 0
9, 236544, Note_off_c, 7, 71, 0
9, 236544, Note_off_c, 7, 67, 0
9, 236544, Note_on_c, 7, 76, 96
9, 236544, Note_on_c, 7, 72, 96
9, 236544, Note_on_c, 7, 67, 96
9, 237056, Note_off_c, 7, 76, 0
9, 237056, Note_off_c, 7, 72, 0
9, 237568, Note_off_c, 7, 67, 0
9, 237568, Note_on_c, 7, 66, 96
9, 238080, Note_on_c, 7, 69, 96
9, 238080, Note_on_c, 7, 69, 96
9, 238336, Note_off_c, 7, 69, 0
9, 238336, Note_on_c, 7, 71, 96
9, 238336, Note_off_c, 7, 69, 0
9, 238336, Note_on_c, 7, 71, 96
9, 238592, Note_off_c, 7, 71, 0
9, 238592, Note_on_c, 7, 69, 96
9, 238592, Note_off_c, 7, 71, 0
9, 238592, Note_on_c, 7, 69, 96
9, 238592, Note_off_c, 7, 66, 0
9, 238592, Note_on_c, 7, 66, 96
9, 238848, Note_off_c, 7, 69, 0
9, 238848, Note_on_c, 7, 67, 96
9, 238848, Note_off_c, 7, 69, 0
9, 238848, Note_on_c, 7, 67, 96
9, 239104, Note_off_c, 7, 67, 0
9, 239104, Note_on_c, 7, 66, 96
9, 239104, Note_off_c, 7, 67, 0
9, 239104, Note_on_c, 7, 66, 96
9, 239360, Note_off_c, 7, 66, 0
9, 239360, Note_on_c, 7, 64, 96
9, 239360, Note_off_c, 7, 66, 0
9, 239360, Note_on_c, 7, 64, 96
9, 239616, Note_off_c, 7, 64, 0
9, 239616, Note_off_c, 7, 64, 0
9, 239616, Note_off_c, 7, 66, 0
9, 239616, Note_on_c, 7, 62, 96
9, 239616, Note_on_c, 7, 62, 96
9, 239616, Note_on_c, 7, 67, 96
9, 240128, Note_off_c, 7, 62, 0
9, 240128, Note_on_c, 7, 71, 96
9, 240128, Note_off_c, 7, 62, 0
9, 240128, Note_on_c, 7, 67, 96
9, 240128, Note_off_c, 7, 67, 0
9, 240128, Note_on_c, 7, 67, 96
9, 240384, Note_off_c, 7, 71, 0
9, 240384, Note_on_c, 7, 72, 96
9, 240384, Note_off_c, 7, 67, 0
9, 240384, Note_on_c, 7, 69, 96
9, 240640, Note_off_c, 7, 72, 0
9, 240640, Note_on_c, 7, 74, 96
9, 240640, Note_off_c, 7, 69, 0
9, 240640, Note_on_c, 7, 71, 96
9, 240640, Note_off_c, 7, 67, 0
9, 240640, Note_on_c, 7, 67, 96
9, 241152, Note_off_c, 7, 74, 0
9, 241152, Note_on_c, 7, 74, 96
9, 241152, Note_off_c, 7, 71, 0
9, 241152, Note_on_c, 7, 71, 96
9, 241152, Note_off_c, 7, 67, 0
9, 241152, Note_on_c, 7, 67, 96
9, 241408, Note_off_c, 7, 74, 0
9, 241408, Note_on_c, 7, 76, 96
9, 241408, Note_off_c, 7, 71, 0
9, 241408, Note_on_c, 7, 72, 96
9, 241664, Note_off_c, 7, 76, 0
9, 241664, Note_on_c, 7, 77, 96
9, 241664, Note_off_c, 7, 72, 0
9, 241664, Note_on_c, 7, 74, 96
9, 241664, Note_off_c, 7, 67, 0
9, 241664, Note_on_c, 7, 67, 96
9, 242176, Note_off_c, 7, 77, 0
9, 242176, Note_on_c, 7, 76, 96
9, 242176, Note_off_c, 7, 74, 0
9, 242176, Note_on_c, 7, 72, 96
9, 242176, Note_off_c, 7, 67, 0
9, 242176, Note_on_c, 7, 67, 96
9, 242432, Note_off_c, 7, 76, 0
9, 242432, Note_on_c, 7, 74, 96
9, 242432, Note_off_c, 7, 72, 0
9, 242432, Note_on_c, 7, 71, 96
9, 242688, Note_off_c, 7, 74, 0
9, 242688, Note_off_c, 7, 71, 0
9, 242688, Note_off_c, 7, 67, 0
9, 242688, Note_on_c, 7, 76, 96
9, 242688, Note_on_c, 7, 72, 96
9, 242688, Note_on_c, 7, 67, 96
9, 243200, Note_off_c, 7, 76, 0
9, 243200, Note_on_c, 7, 74, 96
9, 243200, Note_off_c, 7, 72, 0
9, 243200, Note_on_c, 7, 69, 96
9, 243200, Note_off_c, 7, 67, 0
9, 243200, Note_on_c, 7, 62, 96
9, 243456, Note_off_c, 7, 74, 0
9, 243456, Note_on_c, 7, 72, 96
9, 243712, Note_off_c, 7, 72, 0
9, 243712, Note_on_c, 7, 71, 96
9, 243712, Note_off_c, 7, 69, 0
9, 243712, Note_on_c, 7, 62, 96
9, 243712, Note_off_c, 7, 62, 0
9, 243712, Note_on_c, 7, 62, 96
9, 244224, Note_off_c, 7, 71, 0
9, 244224, Note_on_c, 7, 74, 96
9, 244224, Note_off_c, 7, 62, 0
9, 244224, Note_on_c, 7, 67, 96
9, 244224, Note_off_c, 7, 62, 0
9, 244224, Note_on_c, 7, 62, 96
9, 244736, Note_off_c, 7, 74, 0
9, 244736, Note_on_c, 7, 72, 96
9, 244736, Note_off_c, 7, 67, 0
9, 244736, Note_on_c, 7, 69, 96
9, 244736, Note_off_c, 7, 62, 0
9, 244736, Note_on_c, 7, 62, 96
9, 244992, Note_off_c, 7, 72, 0
9, 244992, Note_on_c, 7, 71, 96
9, 245248, Note_off_c, 7, 71, 0
9, 245248, Note_on_c, 7, 69, 96
9, 245248, Note_off_c, 7, 69, 0
9, 245248, Note_on_c, 7, 72, 96
9, 245248, Note_off_c, 7, 62, 0
9, 245248, Note_on_c, 7, 62, 96
9, 245504, Note_off_c, 7, 69, 0
9, 245504, Note_on_c, 7, 71, 96
9, 245760, Note_off_c, 7, 71, 0
9, 245760, Note_off_c, 7, 72, 0
9, 245760, Note_off_c, 7, 62, 0
9, 245760, Note_on_c, 7, 67, 96
9, 245760, Note_on_c, 7, 71, 96
9, 245760, Note_on_c, 7, 62, 96
9, 246016, Note_off_c, 7, 71, 0
9, 246016, Note_on_c, 7, 69, 96
9, 246272, Note_off_c, 7, 67, 0
9, 246272, Note_on_c, 7, 71, 96
9, 246272, Note_off_c, 7, 69, 0
9, 246272, Note_on_c, 7, 67, 96
9, 246528, Note_off_c, 7, 71, 0
9, 246528, Note_on_c, 7, 69, 96
9, 246528, Note_off_c, 7, 67, 0
9, 246528, Note_on_c, 7, 66, 96
9, 246784, Note_off_c, 7, 69, 0
9, 246784, Note_on_c, 7, 67, 96
9, 246784, Note_off_c, 7, 66, 0
9, 246784, Note_on_c, 7, 67, 96
9, 246784, Note_off_c, 7, 62, 0
9, 247040, Note_off_c, 7, 67, 0
9, 247040, Note_on_c, 7, 66, 96
9, 247296, Note_off_c, 7, 67, 0
9, 247296, Note_on_c, 7, 72, 96
9, 247296, Note_off_c, 7, 66, 0
9, 247296, Note_on_c, 7, 67, 96
9, 247552, Note_off_c, 7, 67, 0
9, 247552, Note_on_c, 7, 64, 96
9, 247808, Note_off_c, 7, 64, 0
9, 247808, Note_on_c, 7, 67, 96
9, 248064, Note_off_c, 7, 67, 0
9, 248064, Note_on_c, 7, 66, 96
9, 248320, Note_off_c, 7, 72, 0
9, 248320, Note_on_c, 7, 71, 96
9, 248320, Note_off_c, 7, 66, 0
9, 248320, Note_on_c, 7, 67, 96
9, 248576, Note_off_c, 7, 67, 0
9, 248576, Note_on_c, 7, 64, 96
9, 248832, Note_off_c, 7, 71, 0
9, 248832, Note_off_c, 7, 64, 0
9, 248832, Note_on_c, 7, 69, 96
9, 248832, Note_on_c, 7, 64, 96
9, 249088, Note_off_c, 7, 64, 0
9, 249088, Note_on_c, 7, 62, 96
9, 249344, Note_off_c, 7, 69, 0
9, 249344, Note_on_c, 7, 69, 96
9, 249344, Note_off_c, 7, 62, 0
9, 249344, Note_on_c, 7, 64, 96
9, 249600, Note_off_c, 7, 69, 0
9, 249600, Note_on_c, 7, 67, 96
9, 249600, Note_off_c, 7, 64, 0
9, 249600, Note_on_c, 7, 60, 96
9, 249856, Note_off_c, 7, 67, 0
9, 249856, Note_on_c, 7, 69, 96
9, 249856, Note_off_c, 7, 60, 0
9, 249856, Note_on_c, 7, 66, 96
9, 250112, Note_off_c, 7, 66, 0
9, 250112, Note_on_c, 7, 64, 96
9, 250368, Note_off_c, 7, 69, 0
9, 250368, Note_on_c, 7, 72, 96
9, 250368, Note_off_c, 7, 64, 0
9, 250368, Note_on_c, 7, 66, 96
9, 250624, Note_off_c, 7, 66, 0
9, 250624, Note_on_c, 7, 62, 96
9, 250880, Note_off_c, 7, 62, 0
9, 250880, Note_on_c, 7, 69, 96
9, 251136, Note_off_c, 7, 69, 0
9, 251136, Note_on_c, 7, 67, 96
9, 251392, Note_off_c, 7, 72, 0
9, 251392, Note_on_c, 7, 69, 96
9, 251392, Note_off_c, 7, 67, 0
9, 251392, Note_on_c, 7, 69, 96
9, 251648, Note_off_c, 7, 69, 0
9, 251648, Note_on_c, 7, 66, 96
9, 251904, Note_off_c, 7, 69, 0
9, 251904, Note_off_c, 7, 66, 0
9, 251904, Note_on_c, 7, 67, 96
9, 251904, Note_on_c, 7, 71, 96
9, 252160, Note_off_c, 7, 67, 0
9, 252160, Note_on_c, 7, 65, 96
9, 252416, Note_off_c, 7, 65, 0
9, 252416, Note_on_c, 7, 64, 96
9, 252416, Note_off_c, 7, 71, 0
9, 252672, Note_off_c, 7, 64, 0
9, 252672, Note_on_c, 7, 62, 96
9, 252928, Note_off_c, 7, 62, 0
9, 252928, Note_on_c, 7, 60, 96
9, 252928, Note_on_c, 7, 60, 96
9, 252928, Note_on_c, 7, 60, 96
9, 253952, Note_off_c, 7, 60, 0
9, 253952, Note_on_c, 7, 60, 96
9, 253952, Note_off_c, 7, 60, 0
9, 253952, Note_on_c, 7, 60, 96
9, 253952, Note_off_c, 7, 60, 0
9, 253952, Note_on_c, 7, 60, 96
9, 254976, Note_off_c, 7, 60, 0
9, 254976, Note_off_c, 7, 60, 0
9, 254976, Note_off_c, 7, 60, 0
9, 254976, Note_on_c, 7, 60, 96
9, 254976, Note_on_c, 7, 60, 96
9, 254976, Note_on_c, 7, 60, 96
9, 256000, Note_off_c, 7, 60, 0
9, 256000, Note_on_c, 7, 59, 96
9, 256000, Note_off_c, 7, 60, 0
9, 256000, Note_on_c, 7, 59, 96
9, 256000, Note_off_c, 7, 60, 0
9, 256000, Note_on_c, 7, 59, 96
9, 257024, Note_off_c, 7, 59, 0
9, 257024, Note_on_c, 7, 59, 96
9, 257024, Note_off_c, 7, 59, 0
9, 257024, Note_on_c, 7, 59, 96
9, 257024, Note_off_c, 7, 59, 0
9, 257024, Note_on_c, 7, 59, 96
9, 258048, Note_off_c, 7, 59, 0
9, 258048, Note_off_c, 7, 59, 0
9, 258048, Note_off_c, 7, 59, 0
9, 258048, Note_on_c, 7, 60, 96
9, 258048, Note_on_c, 7, 60, 96
9, 258048, Note_on_c, 7, 60, 96
9, 258560, Note_off_c, 7, 60, 0
9, 258560, Note_on_c, 7, 72, 96
9, 258560, Note_off_c, 7, 60, 0
9, 258560, Note_on_c, 7, 55, 96
9, 258816, Note_off_c, 7, 72, 0
9, 258816, Note_on_c, 7, 74, 96
9, 259072, Note_off_c, 7, 74, 0
9, 259072, Note_on_c, 7, 76, 96
9, 259072, Note_off_c, 7, 60, 0
9, 259072, Note_off_c, 7, 55, 0
9, 259072, Note_on_c, 7, 60, 96
9, 259328, Note_on_c, 7, 64, 96
9, 259584, Note_off_c, 7, 76, 0
9, 259584, Note_on_c, 7, 72, 96
9, 259584, Note_off_c, 7, 64, 0
9, 259584, Note_on_c, 7, 65, 96
9, 259584, Note_off_c, 7, 60, 0
9, 259584, Note_on_c, 7, 62, 96
9, 259840, Note_off_c, 7, 65, 0
9, 259840, Note_on_c, 7, 67, 96
9, 259840, Note_off_c, 7, 62, 0
9, 259840, Note_on_c, 7, 64, 96
9, 260096, Note_off_c, 7, 67, 0
9, 260096, Note_on_c, 7, 69, 96
9, 260096, Note_off_c, 7, 64, 0
9, 260096, Note_on_c, 7, 65, 96
9, 260352, Note_off_c, 7, 72, 0
9, 260352, Note_on_c, 7, 74, 96
9, 260352, Note_off_c, 7, 69, 0
9, 260352, Note_on_c, 7, 71, 96
9, 260608, Note_off_c, 7, 74, 0
9, 260608, Note_on_c, 7, 76, 96
9, 260608, Note_off_c, 7, 71, 0
9, 260608, Note_on_c, 7, 72, 96
9, 260608, Note_off_c, 7, 65, 0
9, 260608, Note_on_c, 7, 67, 96
9, 260864, Note_off_c, 7, 76, 0
9, 260864, Note_on_c, 7, 72, 96
9, 260864, Note_off_c, 7, 72, 0
9, 260864, Note_on_c, 7, 69, 96
9, 260864, Note_off_c, 7, 67, 0
9, 260864, Note_on_c, 7, 64, 96
9, 261120, Note_off_c, 7, 72, 0
9, 261120, Note_off_c, 7, 69, 0
9, 261120, Note_off_c, 7, 64, 0
9, 261120, Note_on_c, 7, 77, 96
9, 261120, Note_on_c, 7, 74, 96
9, 261120, Note_on_c, 7, 69, 96
9, 261632, Note_off_c, 7, 77, 0
9, 261632, Note_on_c, 7, 74, 96
9, 261632, Note_off_c, 7, 74, 0
9, 261632, Note_on_c, 7, 62, 96
9, 261632, Note_off_c, 7, 69, 0
9, 261632, Note_on_c, 7, 65, 96
9, 262144, Note_off_c, 7, 62, 0
9, 262144, Note_off_c, 7, 65, 0
9, 262144, Note_on_c, 7, 62, 96
9, 262400, Note_off_c, 7, 74, 0
9, 262400, Note_on_c, 7, 72, 96
9, 262400, Note_on_c, 7, 62, 96
9, 262656, Note_off_c, 7, 72, 0
9, 262656, Note_on_c, 7, 74, 96
9, 262656, Note_off_c, 7, 62, 0
9, 262656, Note_on_c, 7, 67, 96
9, 262656, Note_off_c, 7, 62, 0
9, 262656, Note_on_c, 7, 59, 96
9, 262912, Note_off_c, 7, 74, 0
9, 262912, Note_on_c, 7, 71, 96
9, 262912, Note_off_c, 7, 67, 0
9, 262912, Note_on_c, 7, 69, 96
9, 263168, Note_off_c, 7, 71, 0
9, 263168, Note_on_c, 7, 79, 96
9, 263168, Note_off_c, 7, 69, 0
9, 263168, Note_on_c, 7, 71, 96
9, 263168, Note_off_c, 7, 59, 0
9, 263168, Note_on_c, 7, 62, 96
9, 263424, Note_off_c, 7, 79, 0
9, 263424, Note_on_c, 7, 77, 96
9, 263424, Note_off_c, 7, 71, 0
9, 263424, Note_on_c, 7, 72, 96
9, 263680, Note_off_c, 7, 77, 0
9, 263680, Note_on_c, 7, 79, 96
9, 263680, Note_off_c, 7, 72, 0
9, 263680, Note_on_c, 7, 74, 96
9, 263680, Note_off_c, 7, 62, 0
9, 263680, Note_on_c, 7, 62, 96
9, 263936, Note_off_c, 7, 79, 0
9, 263936, Note_on_c, 7, 74, 96
9, 263936, Note_off_c, 7, 74, 0
9, 263936, Note_on_c, 7, 71, 96
9, 264192, Note_off_c, 7, 74, 0
9, 264192, Note_off_c, 7, 71, 0
9, 264192, Note_off_c, 7, 62, 0
9, 264192, Note_on_c, 7, 76, 96
9, 264192, Note_on_c, 7, 76, 96
9, 264192, Note_on_c, 7, 60, 96
9, 264448, Note_off_c, 7, 76, 0
9, 264448, Note_on_c, 7, 77, 96
9, 264704, Note_off_c, 7, 77, 0
9, 264704, Note_on_c, 7, 79, 96
9, 264704, Note_off_c, 7, 76, 0
9, 264704, Note_on_c, 7, 67, 96
9, 264704, Note_off_c, 7, 60, 0
9, 264704, Note_on_c, 7, 60, 96
9, 264960, Note_off_c, 7, 79, 0
9, 264960, Note_on_c, 7, 76, 96
9, 265216, Note_off_c, 7, 76, 0
9, 265216, Note_on_c, 7, 72, 96
9, 265216, Note_off_c, 7, 60, 0
9, 265216, Note_on_c, 7, 57, 96
9, 265472, Note_off_c, 7, 72, 0
9, 265472, Note_on_c, 7, 71, 96
9, 265472, Note_off_c, 7, 67, 0
9, 265472, Note_on_c, 7, 60, 96
9, 265728, Note_off_c, 7, 71, 0
9, 265728, Note_on_c, 7, 69, 96
9, 265728, Note_off_c, 7, 60, 0
9, 265728, Note_on_c, 7, 62, 96
9, 265728, Note_off_c, 7, 57, 0
9, 265728, Note_on_c, 7, 59, 96
9, 265984, Note_off_c, 7, 69, 0
9, 265984, Note_on_c, 7, 67, 96
9, 265984, Note_off_c, 7, 62, 0
9, 265984, Note_on_c, 7, 64, 96
9, 265984, Note_off_c, 7, 59, 0
9, 265984, Note_on_c, 7, 60, 96
9, 266240, Note_off_c, 7, 67, 0
9, 266240, Note_on_c, 7, 65, 96
9, 266240, Note_off_c, 7, 64, 0
9, 266240, Note_on_c, 7, 65, 96
9, 266240, Note_off_c, 7, 60, 0
9, 266240, Note_on_c, 7, 62, 96
9, 266496, Note_off_c, 7, 65, 0
9, 266496, Note_on_c, 7, 67, 96
9, 266752, Note_off_c, 7, 67, 0
9, 266752, Note_on_c, 7, 64, 96
9, 266752, Note_off_c, 7, 65, 0
9, 266752, Note_on_c, 7, 67, 96
9, 266752, Note_off_c, 7, 62, 0
9, 266752, Note_on_c, 7, 64, 96
9, 267008, Note_off_c, 7, 64, 0
9, 267008, Note_on_c, 7, 65, 96
9, 267008, Note_off_c, 7, 67, 0
9, 267008, Note_on_c, 7, 65, 96
9, 267008, Note_off_c, 7, 64, 0
9, 267008, Note_on_c, 7, 62, 96
9, 267264, Note_off_c, 7, 65, 0
9, 267264, Note_off_c, 7, 65, 0
9, 267264, Note_off_c, 7, 62, 0
9, 267264, Note_on_c, 7, 67, 96
9, 267264, Note_on_c, 7, 64, 96
9, 267264, Note_on_c, 7, 60, 96
9, 267520, Note_off_c, 7, 67, 0
9, 267520, Note_on_c, 7, 65, 96
9, 267776, Note_off_c, 7, 65, 0
9, 267776, Note_on_c, 7, 64, 96
9, 268032, Note_off_c, 7, 64, 0
9, 268032, Note_on_c, 7, 62, 96
9, 268288, Note_off_c, 7, 62, 0
9, 268288, Note_on_c, 7, 60, 96
9, 268544, Note_off_c, 7, 60, 0
9, 268544, Note_on_c, 7, 81, 96
9, 268544, Note_off_c, 7, 64, 0
9, 268544, Note_on_c, 7, 65, 96
9, 268544, Note_off_c, 7, 60, 0
9, 268544, Note_on_c, 7, 59, 96
9, 268800, Note_off_c, 7, 81, 0
9, 268800, Note_on_c, 7, 79, 96
9, 268800, Note_off_c, 7, 65, 0
9, 268800, Note_on_c, 7, 64, 96
9, 268800, Note_off_c, 7, 59, 0
9, 268800, Note_on_c, 7, 60, 96
9, 269056, Note_off_c, 7, 79, 0
9, 269056, Note_on_c, 7, 77, 96
9, 269056, Note_off_c, 7, 64, 0
9, 269056, Note_on_c, 7, 62, 96
9, 269056, Note_off_c, 7, 60, 0
9, 269056, Note_on_c, 7, 62, 96
9, 269312, Note_off_c, 7, 77, 0
9, 269312, Note_on_c, 7, 76, 96
9, 269312, Note_off_c, 7, 62, 0
9, 269312, Note_on_c, 7, 60, 96
9, 269312, Note_off_c, 7, 62, 0
9, 269312, Note_on_c, 7, 55, 96
9, 269568, Note_off_c, 7, 60, 0
9, 269568, Note_on_c, 7, 62, 96
9, 269824, Note_off_c, 7, 76, 0
9, 269824, Note_on_c, 7, 84, 96
9, 269824, Note_off_c, 7, 62, 0
9, 269824, Note_on_c, 7, 64, 96
9, 269824, Note_off_c, 7, 55, 0
9, 269824, Note_on_c, 7, 67, 96
9, 270080, Note_off_c, 7, 64, 0
9, 270080, Note_on_c, 7, 60, 96
9, 270336, Note_off_c, 7, 60, 0
9, 270336, Note_off_c, 7, 67, 0
9, 270336, Note_on_c, 7, 69, 96
9, 270336, Note_on_c, 7, 62, 96
9, 270592, Note_off_c, 7, 69, 0
9, 270592, Note_on_c, 7, 71, 96
9, 270848, Note_off_c, 7, 84, 0
9, 270848, Note_on_c, 7, 77, 96
9, 270848, Note_off_c, 7, 71, 0
9, 270848, Note_on_c, 7, 72, 96
9, 270848, Note_off_c, 7, 62, 0
9, 270848, Note_on_c, 7, 62, 96
9, 271104, Note_off_c, 7, 77, 0
9, 271104, Note_on_c, 7, 76, 96
9, 271104, Note_off_c, 7, 72, 0
9, 271104, Note_on_c, 7, 69, 96
9, 271104, Note_off_c, 7, 62, 0
9, 271104, Note_on_c, 7, 60, 96
9, 271360, Note_off_c, 7, 76, 0
9, 271360, Note_on_c, 7, 74, 96
9, 271360, Note_off_c, 7, 69, 0
9, 271360, Note_on_c, 7, 71, 96
9, 271360, Note_off_c, 7, 60, 0
9, 271360, Note_on_c, 7, 62, 96
9, 271616, Note_off_c, 7, 74, 0
9, 271616, Note_on_c, 7, 72, 96
9, 271616, Note_off_c, 7, 71, 0
9, 271616, Note_on_c, 7, 72, 96
9, 271616, Note_off_c, 7, 62, 0
9, 271616, Note_on_c, 7, 64, 96
9, 271872, Note_off_c, 7, 72, 0
9, 271872, Note_on_c, 7, 74, 96
9, 271872, Note_off_c, 7, 72, 0
9, 271872, Note_on_c, 7, 71, 96
9, 271872, Note_off_c, 7, 64, 0
9, 271872, Note_on_c, 7, 62, 96
9, 272128, Note_off_c, 7, 74, 0
9, 272128, Note_on_c, 7, 76, 96
9, 272128, Note_off_c, 7, 71, 0
9, 272128, Note_on_c, 7, 69, 96
9, 272128, Note_off_c, 7, 62, 0
9, 272128, Note_on_c, 7, 60, 96
9, 272384, Note_off_c, 7, 76, 0
9, 272384, Note_on_c, 7, 77, 96
9, 272384, Note_off_c, 7, 69, 0
9, 272384, Note_on_c, 7, 67, 96
9, 272384, Note_off_c, 7, 60, 0
9, 272384, Note_on_c, 7, 59, 96
9, 272896, Note_off_c, 7, 77, 0
9, 272896, Note_on_c, 7, 71, 96
9, 272896, Note_off_c, 7, 67, 0
9, 272896, Note_on_c, 7, 62, 96
9, 273408, Note_off_c, 7, 71, 0
9, 273408, Note_off_c, 7, 62, 0
9, 273408, Note_off_c, 7, 59, 0
9, 273408, Note_on_c, 7, 72, 96
9, 273408, Note_on_c, 7, 67, 96
9, 273408, Note_on_c, 7, 55, 96
9, 274432, Note_off_c, 7, 72, 0
9, 274432, Note_on_c, 7, 60, 96
9, 274432, Note_off_c, 7, 67, 0
9, 274432, Note_on_c, 7, 60, 96
9, 274432, Note_off_c, 7, 55, 0
9, 274432, Note_on_c, 7, 60, 96
9, 275456, Note_off_c, 7, 60, 0
9, 275456, Note_on_c, 7, 60, 96
9, 275456, Note_off_c, 7, 60, 0
9, 275456, Note_on_c, 7, 60, 96
9, 275456, Note_off_c, 7, 60, 0
9, 275456, Note_on_c, 7, 60, 96
9, 276480, Note_off_c, 7, 60, 0
9, 276480, Note_off_c, 7, 60, 0
9, 276480, Note_off_c, 7, 60, 0
9, 276480, Note_on_c, 7, 60, 96
9, 276480, Note_on_c, 7, 60, 96
9, 276480, Note_on_c, 7, 60, 96
9, 277504, Note_off_c, 7, 60, 0
9, 277504, Note_on_c, 7, 59, 96
9, 277504, Note_off_c, 7, 60, 0
9, 277504, Note_on_c, 7, 59, 96
9, 277504, Note_off_c, 7, 60, 0
9, 277504, Note_on_c, 7, 59, 96
9, 278528, Note_off_c, 7, 59, 0
9, 278528, Note_on_c, 7, 59, 96
9, 278528, Note_off_c, 7, 59, 0
9, 278528, Note_on_c, 7, 59, 96
9, 278528, Note_off_c, 7, 59, 0
9, 278528, Note_on_c, 7, 59, 96
9, 279552, Note_off_c, 7, 59, 0
9, 279552, Note_off_c, 7, 59, 0
9, 279552, Note_off_c, 7, 59, 0
9, 279552, Note_on_c, 7, 60, 96
9, 279552, Note_on_c, 7, 60, 96
9, 279552, Note_on_c, 7, 60, 96
9, 280064, Note_off_c, 7, 60, 0
9, 280064, Note_on_c, 7, 64, 96
9, 280064, Note_off_c, 7, 60, 0
9, 280064, Note_on_c, 7, 64, 96
9, 280064, Note_off_c, 7, 60, 0
9, 280064, Note_on_c, 7, 60, 96
9, 280320, Note_off_c, 7, 64, 0
9, 280320, Note_on_c, 7, 65, 96
9, 280320, Note_off_c, 7, 64, 0
9, 280320, Note_on_c, 7, 65, 96
9, 280320, Note_off_c, 7, 60, 0
9, 280320, Note_on_c, 7, 59, 96
9, 280576, Note_off_c, 7, 65, 0
9, 280576, Note_on_c, 7, 67, 96
9, 280576, Note_off_c, 7, 65, 0
9, 280576, Note_on_c, 7, 67, 96
9, 280576, Note_off_c, 7, 59, 0
9, 280576, Note_on_c, 7, 60, 96
9, 281088, Note_off_c, 7, 67, 0
9, 281088, Note_on_c, 7, 69, 96
9, 281088, Note_off_c, 7, 67, 0
9, 281088, Note_on_c, 7, 69, 96
9, 281088, Note_off_c, 7, 60, 0
9, 281088, Note_on_c, 7, 64, 96
9, 281344, Note_off_c, 7, 69, 0
9, 281344, Note_on_c, 7, 71, 96
9, 281344, Note_off_c, 7, 69, 0
9, 281344, Note_on_c, 7, 71, 96
9, 281600, Note_off_c, 7, 71, 0
9, 281600, Note_on_c, 7, 72, 96
9, 281600, Note_off_c, 7, 71, 0
9, 281600, Note_on_c, 7, 72, 96
9, 281600, Note_off_c, 7, 64, 0
9, 281600, Note_on_c, 7, 64, 96
9, 282112, Note_off_c, 7, 72, 0
9, 282112, Note_on_c, 7, 71, 96
9, 282112, Note_off_c, 7, 72, 0
9, 282112, Note_on_c, 7, 71, 96
9, 282112, Note_off_c, 7, 64, 0
9, 282112, Note_on_c, 7, 62, 96
9, 282368, Note_off_c, 7, 71, 0
9, 282368, Note_on_c, 7, 69, 96
9, 282368, Note_off_c, 7, 71, 0
9, 282368, Note_on_c, 7, 69, 96
9, 282624, Note_off_c, 7, 69, 0
9, 282624, Note_off_c, 7, 69, 0
9, 282624, Note_off_c, 7, 62, 0
9, 282624, Note_on_c, 7, 71, 96
9, 282624, Note_on_c, 7, 71, 96
9, 282624, Note_on_c, 7, 62, 96
9, 283136, Note_off_c, 7, 71, 0
9, 283136, Note_on_c, 7, 74, 96
9, 283136, Note_off_c, 7, 71, 0
9, 283136, Note_on_c, 7, 71, 96
9, 283648, Note_off_c, 7, 74, 0
9, 283648, Note_on_c, 7, 71, 96
9, 283648, Note_off_c, 7, 71, 0
9, 283648, Note_on_c, 7, 67, 96
9, 283648, Note_off_c, 7, 62, 0
9, 284160, Note_off_c, 7, 71, 0
9, 284160, Note_on_c, 7, 76, 96
9, 284160, Note_off_c, 7, 67, 0
9, 284160, Note_on_c, 7, 72, 96
9, 285184, Note_off_c, 7, 76, 0
9, 285184, Note_on_c, 7, 74, 96
9, 285184, Note_off_c, 7, 72, 0
9, 285184, Note_on_c, 7, 71, 96
9, 285696, Note_off_c, 7, 74, 0
9, 285696, Note_off_c, 7, 71, 0
9, 285696, Note_on_c, 7, 72, 96
9, 285696, Note_on_c, 7, 69, 96
9, 285696, Note_on_c, 7, 62, 96
9, 286208, Note_off_c, 7, 72, 0
9, 286208, Note_on_c, 7, 72, 96
9, 286208, Note_off_c, 7, 69, 0
9, 286208, Note_on_c, 7, 69, 96
9, 286464, Note_off_c, 7, 72, 0
9, 286464, Note_on_c, 7, 71, 96
9, 286464, Note_off_c, 7, 69, 0
9, 286464, Note_on_c, 7, 67, 96
9, 286720, Note_off_c, 7, 71, 0
9, 286720, Note_on_c, 7, 72, 96
9, 286720, Note_off_c, 7, 67, 0
9, 286720, Note_on_c, 7, 69, 96
9, 286720, Note_off_c, 7, 62, 0
9, 287232, Note_off_c, 7, 72, 0
9, 287232, Note_on_c, 7, 81, 96
9, 287232, Note_off_c, 7, 69, 0
9, 287232, Note_on_c, 7, 72, 96
9, 288256, Note_off_c, 7, 81, 0
9, 288256, Note_on_c, 7, 72, 96
9, 288256, Note_off_c, 7, 72, 0
9, 288256, Note_on_c, 7, 69, 96
9, 288768, Note_off_c, 7, 72, 0
9, 288768, Note_off_c, 7, 69, 0
9, 288768, Note_on_c, 7, 71, 96
9, 288768, Note_on_c, 7, 67, 96
9, 288768, Note_on_c, 7, 62, 96
9, 289280, Note_off_c, 7, 71, 0
9, 289280, Note_on_c, 7, 71, 96
9, 289280, Note_off_c, 7, 67, 0
9, 289280, Note_on_c, 7, 67, 96
9, 289280, Note_off_c, 7, 62, 0
9, 289280, Note_on_c, 7, 62, 96
9, 289536, Note_off_c, 7, 71, 0
9, 289536, Note_on_c, 7, 72, 96
9, 289536, Note_off_c, 7, 67, 0
9, 289536, Note_on_c, 7, 69, 96
9, 289536, Note_off_c, 7, 62, 0
9, 289536, Note_on_c, 7, 60, 96
9, 289792, Note_off_c, 7, 72, 0
9, 289792, Note_on_c, 7, 74, 96
9, 289792, Note_off_c, 7, 69, 0
9, 289792, Note_on_c, 7, 71, 96
9, 289792, Note_off_c, 7, 60, 0
9, 289792, Note_on_c, 7, 59, 96
9, 290304, Note_off_c, 7, 74, 0
9, 290304, Note_on_c, 7, 76, 96
9, 290304, Note_off_c, 7, 71, 0
9, 290304, Note_on_c, 7, 71, 96
9, 290304, Note_off_c, 7, 59, 0
9, 290304, Note_on_c, 7, 55, 96
9, 290560, Note_off_c, 7, 76, 0
9, 290560, Note_on_c, 7, 77, 96
9, 290560, Note_off_c, 7, 71, 0
9, 290560, Note_on_c, 7, 69, 96
9, 290816, Note_off_c, 7, 77, 0
9, 290816, Note_on_c, 7, 79, 96
9, 290816, Note_off_c, 7, 69, 0
9, 290816, Note_on_c, 7, 71, 96
9, 290816, Note_off_c, 7, 55, 0
9, 290816, Note_on_c, 7, 55, 96
9, 291328, Note_off_c, 7, 79, 0
9, 291328, Note_on_c, 7, 77, 96
9, 291328, Note_off_c, 7, 71, 0
9, 291328, Note_on_c, 7, 74, 96
9, 291328, Note_off_c, 7, 55, 0
9, 291328, Note_on_c, 7, 57, 96
9, 291584, Note_off_c, 7, 77, 0
9, 291584, Note_on_c, 7, 76, 96
9, 291584, Note_off_c, 7, 74, 0
9, 291584, Note_on_c, 7, 73, 96
9, 291840, Note_off_c, 7, 76, 0
9, 291840, Note_off_c, 7, 73, 0
9, 291840, Note_off_c, 7, 57, 0
9, 291840, Note_on_c, 7, 77, 96
9, 291840, Note_on_c, 7, 74, 96
9, 291840, Note_on_c, 7, 57, 96
9, 292352, Note_off_c, 7, 57, 0
9, 292352, Note_on_c, 7, 69, 96
9, 292608, Note_off_c, 7, 69, 0
9, 292608, Note_on_c, 7, 67, 96
9, 292864, Note_off_c, 7, 77, 0
9, 292864, Note_off_c, 7, 74, 0
9, 292864, Note_off_c, 7, 67, 0
9, 292864, Note_on_c, 7, 65, 96
9, 293376, Note_off_c, 7, 65, 0
9, 293376, Note_on_c, 7, 62, 96
9, 293888, Note_off_c, 7, 62, 0
9, 293888, Note_on_c, 7, 62, 96
9, 294400, Note_off_c, 7, 62, 0
9, 294400, Note_on_c, 7, 64, 96
9, 294912, Note_off_c, 7, 64, 0
9, 294912, Note_on_c, 7, 64, 96
9, 295424, Note_on_c, 7, 72, 96
9, 295424, Note_on_c, 7, 69, 96
9, 295424, Note_off_c, 7, 64, 0
9, 295424, Note_on_c, 7, 64, 96
9, 295680, Note_off_c, 7, 72, 0
9, 295680, Note_on_c, 7, 74, 96
9, 295680, Note_off_c, 7, 69, 0
9, 295680, Note_on_c, 7, 71, 96
9, 295680, Note_off_c, 7, 64, 0
9, 295680, Note_on_c, 7, 62, 96
9, 295936, Note_off_c, 7, 74, 0
9, 295936, Note_on_c, 7, 76, 96
9, 295936, Note_off_c, 7, 71, 0
9, 295936, Note_on_c, 7, 72, 96
9, 295936, Note_off_c, 7, 62, 0
9, 295936, Note_on_c, 7, 60, 96
9, 296448, Note_off_c, 7, 76, 0
9, 296448, Note_on_c, 7, 78, 96
9, 296448, Note_off_c, 7, 72, 0
9, 296448, Note_on_c, 7, 72, 96
9, 296448, Note_off_c, 7, 60, 0
9, 296448, Note_on_c, 7, 57, 96
9, 296704, Note_off_c, 7, 78, 0
9, 296704, Note_on_c, 7, 79, 96
9, 296704, Note_off_c, 7, 72, 0
9, 296704, Note_on_c, 7, 71, 96
9, 296960, Note_off_c, 7, 79, 0
9, 296960, Note_on_c, 7, 81, 96
9, 296960, Note_off_c, 7, 71, 0
9, 296960, Note_on_c, 7, 73, 96
9, 296960, Note_off_c, 7, 57, 0
9, 296960, Note_on_c, 7, 57, 96
9, 297472, Note_off_c, 7, 81, 0
9, 297472, Note_on_c, 7, 79, 96
9, 297472, Note_off_c, 7, 73, 0
9, 297472, Note_on_c, 7, 76, 96
9, 297472, Note_off_c, 7, 57, 0
9, 297472, Note_on_c, 7, 59, 96
9, 297728, Note_off_c, 7, 79, 0
9, 297728, Note_on_c, 7, 78, 96
9, 297728, Note_off_c, 7, 76, 0
9, 297728, Note_on_c, 7, 75, 96
9, 297984, Note_off_c, 7, 78, 0
9, 297984, Note_off_c, 7, 75, 0
9, 297984, Note_off_c, 7, 59, 0
9, 297984, Note_on_c, 7, 79, 96
9, 297984, Note_on_c, 7, 76, 96
9, 297984, Note_on_c, 7, 59, 96
9, 298496, Note_off_c, 7, 79, 0
9, 298496, Note_on_c, 7, 83, 96
9, 298496, Note_off_c, 7, 76, 0
9, 298496, Note_on_c, 7, 67, 96
9, 298496, Note_off_c, 7, 59, 0
9, 298496, Note_on_c, 7, 71, 96
9, 298752, Note_off_c, 7, 67, 0
9, 298752, Note_on_c, 7, 69, 96
9, 299008, Note_off_c, 7, 69, 0
9, 299008, Note_on_c, 7, 71, 96
9, 299008, Note_off_c, 7, 71, 0
9, 299008, Note_on_c, 7, 71, 96
9, 299520, Note_off_c, 7, 83, 0
9, 299520, Note_on_c, 7, 79, 96
9, 299520, Note_off_c, 7, 71, 0
9, 299520, Note_on_c, 7, 71, 96
9, 299520, Note_off_c, 7, 71, 0
9, 299520, Note_on_c, 7, 71, 96
9, 299776, Note_off_c, 7, 71, 0
9, 299776, Note_on_c, 7, 73, 96
9, 300032, Note_off_c, 7, 73, 0
9, 300032, Note_on_c, 7, 74, 96
9, 300032, Note_off_c, 7, 71, 0
9, 300032, Note_on_c, 7, 71, 96
9, 300544, Note_off_c, 7, 79, 0
9, 300544, Note_on_c, 7, 76, 96
9, 300544, Note_off_c, 7, 74, 0
9, 300544, Note_on_c, 7, 76, 96
9, 300544, Note_off_c, 7, 71, 0
9, 300544, Note_on_c, 7, 71, 96
9, 300800, Note_off_c, 7, 76, 0
9, 300800, Note_on_c, 7, 74, 96
9, 301056, Note_off_c, 7, 74, 0
9, 301056, Note_off_c, 7, 71, 0
9, 301056, Note_on_c, 7, 73, 96
9, 301056, Note_on_c, 7, 69, 96
9, 301568, Note_off_c, 7, 76, 0
9, 301568, Note_on_c, 7, 73, 96
9, 301568, Note_off_c, 7, 73, 0
9, 301568, Note_on_c, 7, 76, 96
9, 301568, Note_off_c, 7, 69, 0
9, 301568, Note_on_c, 7, 69, 96
9, 301824, Note_off_c, 7, 73, 0
9, 301824, Note_on_c, 7, 74, 96
9, 302080, Note_off_c, 7, 74, 0
9, 302080, Note_on_c, 7, 76, 96
9, 302080, Note_off_c, 7, 69, 0
9, 302080, Note_on_c, 7, 69, 96
9, 302592, Note_off_c, 7, 76, 0
9, 302592, Note_on_c, 7, 76, 96
9, 302592, Note_off_c, 7, 76, 0
9, 302592, Note_on_c, 7, 73, 96
9, 302592, Note_off_c, 7, 69, 0
9, 302592, Note_on_c, 7, 69, 96
9, 302848, Note_off_c, 7, 76, 0
9, 302848, Note_on_c, 7, 77, 96
9, 303104, Note_off_c, 7, 77, 0
9, 303104, Note_on_c, 7, 79, 96
9, 303104, Note_off_c, 7, 69, 0
9, 303104, Note_on_c, 7, 69, 96
9, 303616, Note_off_c, 7, 79, 0
9, 303616, Note_on_c, 7, 81, 96
9, 303616, Note_off_c, 7, 73, 0
9, 303616, Note_on_c, 7, 69, 96
9, 303616, Note_off_c, 7, 69, 0
9, 303616, Note_on_c, 7, 69, 96
9, 303872, Note_off_c, 7, 81, 0
9, 303872, Note_on_c, 7, 79, 96
9, 304128, Note_off_c, 7, 79, 0
9, 304128, Note_off_c, 7, 69, 0
9, 304128, Note_on_c, 7, 77, 96
9, 304128, Note_on_c, 7, 69, 96
9, 304640, Note_off_c, 7, 77, 0
9, 304640, Note_on_c, 7, 81, 96
9, 304640, Note_off_c, 7, 69, 0
9, 304640, Note_on_c, 7, 65, 96
9, 304640, Note_off_c, 7, 69, 0
9, 304640, Note_on_c, 7, 69, 96
9, 304896, Note_off_c, 7, 65, 0
9, 304896, Note_on_c, 7, 67, 96
9, 305152, Note_off_c, 7, 67, 0
9, 305152, Note_on_c, 7, 69, 96
9, 305152, Note_off_c, 7, 69, 0
9, 305152, Note_on_c, 7, 69, 96
9, 305664, Note_off_c, 7, 81, 0
9, 305664, Note_on_c, 7, 77, 96
9, 305664, Note_off_c, 7, 69, 0
9, 305664, Note_on_c, 7, 69, 96
9, 305664, Note_off_c, 7, 69, 0
9, 305664, Note_on_c, 7, 69, 96
9, 305920, Note_off_c, 7, 69, 0
9, 305920, Note_on_c, 7, 71, 96
9, 306176, Note_off_c, 7, 71, 0
9, 306176, Note_on_c, 7, 72, 96
9, 306176, Note_off_c, 7, 69, 0
9, 306176, Note_on_c, 7, 69, 96
9, 306688, Note_off_c, 7, 77, 0
9, 306688, Note_on_c, 7, 74, 96
9, 306688, Note_off_c, 7, 72, 0
9, 306688, Note_on_c, 7, 74, 96
9, 306688, Note_off_c, 7, 69, 0
9, 306688, Note_on_c, 7, 69, 96
9, 306944, Note_off_c, 7, 74, 0
9, 306944, Note_on_c, 7, 72, 96
9, 307200, Note_off_c, 7, 72, 0
9, 307200, Note_off_c, 7, 69, 0
9, 307200, Note_on_c, 7, 71, 96
9, 307200, Note_on_c, 7, 67, 96
9, 307712, Note_off_c, 7, 74, 0
9, 307712, Note_on_c, 7, 71, 96
9, 307712, Note_off_c, 7, 71, 0
9, 307712, Note_on_c, 7, 74, 96
9, 307712, Note_off_c, 7, 67, 0
9, 307712, Note_on_c, 7, 67, 96
9, 307968, Note_off_c, 7, 71, 0
9, 307968, Note_on_c, 7, 72, 96
9, 308224, Note_off_c, 7, 72, 0
9, 308224, Note_on_c, 7, 74, 96
9, 308224, Note_off_c, 7, 67, 0
9, 308224, Note_on_c, 7, 67, 96
9, 308736, Note_off_c, 7, 74, 0
9, 308736, Note_on_c, 7, 74, 96
9, 308736, Note_off_c, 7, 74, 0
9, 308736, Note_on_c, 7, 71, 96
9, 308736, Note_off_c, 7, 67, 0
9, 308736, Note_on_c, 7, 67, 96
9, 308992, Note_off_c, 7, 74, 0
9, 308992, Note_on_c, 7, 76, 96
9, 309248, Note_off_c, 7, 76, 0
9, 309248, Note_on_c, 7, 77, 96
9, 309248, Note_off_c, 7, 67, 0
9, 309248, Note_on_c, 7, 67, 96
9, 309760, Note_off_c, 7, 77, 0
9, 309760, Note_on_c, 7, 79, 96
9, 309760, Note_off_c, 7, 71, 0
9, 309760, Note_on_c, 7, 67, 96
9, 309760, Note_off_c, 7, 67, 0
9, 309760, Note_on_c, 7, 67, 96
9, 310016, Note_off_c, 7, 79, 0
9, 310016, Note_on_c, 7, 77, 96
9, 310272, Note_off_c, 7, 77, 0
9, 310272, Note_off_c, 7, 67, 0
9, 310272, Note_on_c, 7, 76, 96
9, 310272, Note_on_c, 7, 67, 96
9, 310784, Note_off_c, 7, 76, 0
9, 310784, Note_on_c, 7, 72, 96
9, 310784, Note_off_c, 7, 67, 0
9, 310784, Note_on_c, 7, 64, 96
9, 311040, Note_off_c, 7, 72, 0
9, 311040, Note_on_c, 7, 74, 96
9, 311040, Note_off_c, 7, 64, 0
9, 311040, Note_on_c, 7, 65, 96
9, 311296, Note_off_c, 7, 74, 0
9, 311296, Note_on_c, 7, 76, 96
9, 311296, Note_off_c, 7, 65, 0
9, 311296, Note_on_c, 7, 67, 96
9, 311296, Note_off_c, 7, 67, 0
9, 311296, Note_on_c, 7, 60, 96
9, 311808, Note_off_c, 7, 76, 0
9, 311808, Note_on_c, 7, 77, 96
9, 311808, Note_off_c, 7, 67, 0
9, 311808, Note_on_c, 7, 69, 96
9, 312064, Note_off_c, 7, 77, 0
9, 312064, Note_on_c, 7, 79, 96
9, 312064, Note_off_c, 7, 69, 0
9, 312064, Note_on_c, 7, 71, 96
9, 312320, Note_off_c, 7, 79, 0
9, 312320, Note_on_c, 7, 81, 96
9, 312320, Note_off_c, 7, 71, 0
9, 312320, Note_on_c, 7, 72, 96
9, 312320, Note_off_c, 7, 60, 0
9, 312320, Note_on_c, 7, 60, 96
9, 312832, Note_off_c, 7, 81, 0
9, 312832, Note_off_c, 7, 72, 0
9, 313344, Note_off_c, 7, 60, 0
9, 313344, Note_on_c, 7, 60, 96
9, 313856, Note_on_c, 7, 74, 96
9, 313856, Note_on_c, 7, 74, 96
9, 314112, Note_off_c, 7, 74, 0
9, 314112, Note_on_c, 7, 76, 96
9, 314112, Note_off_c, 7, 74, 0
9, 314112, Note_on_c, 7, 76, 96
9, 314368, Note_off_c, 7, 76, 0
9, 314368, Note_on_c, 7, 74, 96
9, 314368, Note_off_c, 7, 76, 0
9, 314368, Note_on_c, 7, 74, 96
9, 314368, Note_off_c, 7, 60, 0
9, 314368, Note_on_c, 7, 59, 96
9, 314624, Note_off_c, 7, 74, 0
9, 314624, Note_on_c, 7, 72, 96
9, 314624, Note_off_c, 7, 74, 0
9, 314624, Note_on_c, 7, 72, 96
9, 314880, Note_off_c, 7, 72, 0
9, 314880, Note_on_c, 7, 71, 96
9, 314880, Note_off_c, 7, 72, 0
9, 314880, Note_on_c, 7, 71, 96
9, 315136, Note_off_c, 7, 71, 0
9, 315136, Note_on_c, 7, 72, 96
9, 315136, Note_off_c, 7, 71, 0
9, 315136, Note_on_c, 7, 72, 96
9, 315392, Note_off_c, 7, 72, 0
9, 315392, Note_on_c, 7, 74, 96
9, 315392, Note_off_c, 7, 72, 0
9, 315392, Note_on_c, 7, 74, 96
9, 315392, Note_off_c, 7, 59, 0
9, 315392, Note_on_c, 7, 59, 96
9, 315904, Note_off_c, 7, 74, 0
9, 315904, Note_off_c, 7, 74, 0
9, 316416, Note_off_c, 7, 59, 0
9, 316416, Note_on_c, 7, 60, 96
9, 316928, Note_on_c, 7, 76, 96
9, 316928, Note_on_c, 7, 72, 96
9, 316928, Note_off_c, 7, 60, 0
9, 316928, Note_on_c, 7, 72, 96
9, 317184, Note_off_c, 7, 76, 0
9, 317184, Note_on_c, 7, 77, 96
9, 317184, Note_off_c, 7, 72, 0
9, 317184, Note_on_c, 7, 74, 96
9, 317440, Note_off_c, 7, 77, 0
9, 317440, Note_on_c, 7, 79, 96
9, 317440, Note_off_c, 7, 74, 0
9, 317440, Note_on_c, 7, 76, 96
9, 317440, Note_off_c, 7, 72, 0
9, 317440, Note_on_c, 7, 72, 96
9, 317952, Note_off_c, 7, 79, 0
9, 317952, Note_on_c, 7, 79, 96
9, 317952, Note_off_c, 7, 76, 0
9, 317952, Note_on_c, 7, 76, 96
9, 317952, Note_off_c, 7, 72, 0
9, 317952, Note_on_c, 7, 72, 96
9, 318208, Note_off_c, 7, 79, 0
9, 318208, Note_on_c, 7, 81, 96
9, 318208, Note_off_c, 7, 76, 0
9, 318208, Note_on_c, 7, 77, 96
9, 318464, Note_off_c, 7, 81, 0
9, 318464, Note_on_c, 7, 82, 96
9, 318464, Note_off_c, 7, 77, 0
9, 318464, Note_on_c, 7, 79, 96
9, 318464, Note_off_c, 7, 72, 0
9, 318464, Note_on_c, 7, 72, 96
9, 318976, Note_off_c, 7, 82, 0
9, 318976, Note_on_c, 7, 81, 96
9, 318976, Note_off_c, 7, 79, 0
9, 318976, Note_on_c, 7, 77, 96
9, 318976, Note_off_c, 7, 72, 0
9, 318976, Note_on_c, 7, 72, 96
9, 319232, Note_off_c, 7, 81, 0
9, 319232, Note_on_c, 7, 79, 96
9, 319232, Note_off_c, 7, 77, 0
9, 319232, Note_on_c, 7, 76, 96
9, 319488, Note_off_c, 7, 79, 0
9, 319488, Note_off_c, 7, 76, 0
9, 319488, Note_off_c, 7, 72, 0
9, 319488, Note_on_c, 7, 81, 96
9, 319488, Note_on_c, 7, 77, 96
9, 319488, Note_on_c, 7, 72, 96
9, 320000, Note_off_c, 7, 81, 0
9, 320000, Note_on_c, 7, 79, 96
9, 320000, Note_off_c, 7, 77, 0
9, 320000, Note_on_c, 7, 74, 96
9, 320000, Note_off_c, 7, 72, 0
9, 320000, Note_on_c, 7, 74, 96
9, 320256, Note_off_c, 7, 79, 0
9, 320256, Note_on_c, 7, 77, 96
9, 320512, Note_off_c, 7, 77, 0
9, 320512, Note_on_c, 7, 76, 96
9, 320512, Note_off_c, 7, 74, 0
9, 320512, Note_on_c, 7, 67, 96
9, 320512, Note_off_c, 7, 74, 0
9, 320512, Note_on_c, 7, 72, 96
9, 321024, Note_off_c, 7, 76, 0
9, 321024, Note_on_c, 7, 79, 96
9, 321024, Note_off_c, 7, 67, 0
9, 321024, Note_on_c, 7, 72, 96
9, 321024, Note_off_c, 7, 72, 0
9, 321024, Note_on_c, 7, 67, 96
9, 321536, Note_off_c, 7, 79, 0
9, 321536, Note_on_c, 7, 77, 96
9, 321536, Note_off_c, 7, 72, 0
9, 321536, Note_on_c, 7, 72, 96
9, 321536, Note_off_c, 7, 67, 0
9, 321536, Note_on_c, 7, 67, 96
9, 321792, Note_off_c, 7, 77, 0
9, 321792, Note_on_c, 7, 76, 96
9, 322048, Note_off_c, 7, 76, 0
9, 322048, Note_on_c, 7, 74, 96
9, 322048, Note_off_c, 7, 72, 0
9, 322048, Note_on_c, 7, 71, 96
9, 322048, Note_off_c, 7, 67, 0
9, 322048, Note_on_c, 7, 67, 96
9, 322304, Note_off_c, 7, 74, 0
9, 322304, Note_on_c, 7, 76, 96
9, 322560, Note_off_c, 7, 76, 0
9, 322560, Note_off_c, 7, 71, 0
9, 322560, Note_off_c, 7, 67, 0
9, 322560, Note_on_c, 7, 72, 96
9, 322560, Note_on_c, 7, 67, 96
9, 322560, Note_on_c, 7, 64, 96
9, 325632, Note_off_c, 7, 72, 0
9, 325632, Note_off_c, 7, 67, 0
9, 325632, Note_off_c, 7, 64, 0
9, 325632, End_track
0, 0, End_of_file
