0, 0, Header, 1, 6, 240
1, 0, Start_track
1, 0, Time_signature, 2, 1, 48, 8
1, 0, Key_signature, 0, "major"
1, 0, Tempo, 419580
1, 107760, Tempo, 428571
1, 108000, Tempo, 437956
1, 108240, Tempo, 454545
1, 108480, Tempo, 468750
1, 108720, Tempo, 487804
1, 108960, Tempo, 517241
1, 109200, Tempo, 576923
1, 109440, Tempo, 638297
1, 109440, End_track
2, 0, Start_track
2, 0, MIDI_port, 0
2, 0, Title_t, "RH H"
2, 0, Program_c, 0, 6
2, 12960, Note_on_c, 0, 73, 64
2, 13440, Note_on_c, 0, 73, 0
2, 13440, Note_on_c, 0, 72, 64
2, 13920, Note_on_c, 0, 72, 0
2, 13920, Note_on_c, 0, 76, 64
2, 14400, Note_on_c, 0, 76, 0
2, 14400, Note_on_c, 0, 75, 64
2, 15360, Note_on_c, 0, 75, 0
2, 15360, Note_on_c, 0, 73, 64
2, 16080, Note_on_c, 0, 73, 0
2, 16080, Note_on_c, 0, 75, 64
2, 16320, Note_on_c, 0, 75, 0
2, 16320, Note_on_c, 0, 76, 64
2, 16560, Note_on_c, 0, 76, 0
2, 16560, Note_on_c, 0, 75, 64
2, 16800, Note_on_c, 0, 75, 0
2, 16800, Note_on_c, 0, 73, 64
2, 17280, Note_on_c, 0, 73, 0
2, 17280, Note_on_c, 0, 71, 64
2, 17760, Note_on_c, 0, 71, 0
2, 17760, Note_on_c, 0, 73, 64
2, 18240, Note_on_c, 0, 73, 0
2, 18240, Note_on_c, 0, 75, 64
2, 18720, Note_on_c, 0, 75, 0
2, 19440, Note_on_c, 0, 76, 64
2, 19680, Note_on_c, 0, 76, 0
2, 19680, Note_on_c, 0, 75, 64
2, 19920, Note_on_c, 0, 75, 0
2, 19920, Note_on_c, 0, 73, 64
2, 20160, Note_on_c, 0, 73, 0
2, 20160, Note_on_c, 0, 71, 64
2, 20400, Note_on_c, 0, 71, 0
2, 20400, Note_on_c, 0, 75, 64
2, 20640, Note_on_c, 0, 75, 0
2, 20640, Note_on_c, 0, 80, 64
2, 21360, Note_on_c, 0, 80, 0
2, 21360, Note_on_c, 0, 78, 64
2, 21600, Note_on_c, 0, 78, 0
2, 21600, Note_on_c, 0, 80, 64
2, 21840, Note_on_c, 0, 80, 0
2, 21840, Note_on_c, 0, 81, 64
2, 22080, Note_on_c, 0, 81, 0
2, 22080, Note_on_c, 0, 83, 64
2, 23280, Note_on_c, 0, 83, 0
2, 23280, Note_on_c, 0, 81, 64
2, 23520, Note_on_c, 0, 81, 0
2, 23520, Note_on_c, 0, 80, 64
2, 23760, Note_on_c, 0, 80, 0
2, 23760, Note_on_c, 0, 78, 64
2, 24000, Note_on_c, 0, 78, 0
2, 24000, Note_on_c, 0, 80, 64
2, 24120, Note_on_c, 0, 80, 0
2, 24120, Note_on_c, 0, 78, 64
2, 24240, Note_on_c, 0, 78, 0
2, 24240, Note_on_c, 0, 76, 64
2, 24360, Note_on_c, 0, 76, 0
2, 24360, Note_on_c, 0, 75, 64
2, 24480, Note_on_c, 0, 75, 0
2, 24480, Note_on_c, 0, 73, 64
2, 25440, Note_on_c, 0, 73, 0
2, 25440, Note_on_c, 0, 71, 64
2, 26160, Note_on_c, 0, 71, 0
2, 26160, Note_on_c, 0, 73, 64
2, 26400, Note_on_c, 0, 73, 0
2, 26400, Note_on_c, 0, 71, 64
2, 26640, Note_on_c, 0, 71, 0
2, 26640, Note_on_c, 0, 69, 64
2, 26880, Note_on_c, 0, 69, 0
2, 26880, Note_on_c, 0, 68, 64
2, 27360, Note_on_c, 0, 68, 0
2, 27360, Note_on_c, 0, 70, 64
2, 27600, Note_on_c, 0, 70, 0
2, 27600, Note_on_c, 0, 71, 64
2, 27840, Note_on_c, 0, 71, 0
2, 27840, Note_on_c, 0, 73, 64
2, 28320, Note_on_c, 0, 73, 0
2, 28320, Note_on_c, 0, 71, 64
2, 29280, Note_on_c, 0, 71, 0
2, 29280, Note_on_c, 0, 70, 64
2, 29760, Note_on_c, 0, 70, 0
2, 29760, Note_on_c, 0, 71, 64
2, 30960, Note_on_c, 0, 71, 0
2, 30960, Note_on_c, 0, 73, 64
2, 31200, Note_on_c, 0, 73, 0
2, 31200, Note_on_c, 0, 75, 64
2, 31440, Note_on_c, 0, 75, 0
2, 31440, Note_on_c, 0, 76, 64
2, 32160, Note_on_c, 0, 76, 0
2, 32160, Note_on_c, 0, 75, 64
2, 32640, Note_on_c, 0, 75, 0
2, 32640, Note_on_c, 0, 76, 64
2, 32880, Note_on_c, 0, 76, 0
2, 32880, Note_on_c, 0, 75, 64
2, 33120, Note_on_c, 0, 75, 0
2, 33120, Note_on_c, 0, 76, 64
2, 33360, Note_on_c, 0, 76, 0
2, 33360, Note_on_c, 0, 78, 64
2, 33600, Note_on_c, 0, 78, 0
2, 33600, Note_on_c, 0, 80, 64
2, 33720, Note_on_c, 0, 80, 0
2, 33720, Note_on_c, 0, 78, 64
2, 33840, Note_on_c, 0, 78, 0
2, 33840, Note_on_c, 0, 80, 64
2, 33960, Note_on_c, 0, 80, 0
2, 33960, Note_on_c, 0, 81, 64
2, 34080, Note_on_c, 0, 81, 0
2, 34080, Note_on_c, 0, 80, 64
2, 34200, Note_on_c, 0, 80, 0
2, 34200, Note_on_c, 0, 78, 64
2, 34320, Note_on_c, 0, 78, 0
2, 34320, Note_on_c, 0, 76, 64
2, 34440, Note_on_c, 0, 76, 0
2, 34440, Note_on_c, 0, 80, 64
2, 34560, Note_on_c, 0, 80, 0
2, 34560, Note_on_c, 0, 78, 64
2, 34680, Note_on_c, 0, 78, 0
2, 34680, Note_on_c, 0, 76, 64
2, 34800, Note_on_c, 0, 76, 0
2, 34800, Note_on_c, 0, 78, 64
2, 34920, Note_on_c, 0, 78, 0
2, 34920, Note_on_c, 0, 80, 64
2, 35040, Note_on_c, 0, 80, 0
2, 35040, Note_on_c, 0, 78, 64
2, 35160, Note_on_c, 0, 78, 0
2, 35160, Note_on_c, 0, 76, 64
2, 35280, Note_on_c, 0, 76, 0
2, 35280, Note_on_c, 0, 75, 64
2, 35400, Note_on_c, 0, 75, 0
2, 35400, Note_on_c, 0, 78, 64
2, 35520, Note_on_c, 0, 78, 0
2, 35520, Note_on_c, 0, 76, 64
2, 35640, Note_on_c, 0, 76, 0
2, 35640, Note_on_c, 0, 75, 64
2, 35760, Note_on_c, 0, 75, 0
2, 35760, Note_on_c, 0, 76, 64
2, 35880, Note_on_c, 0, 76, 0
2, 35880, Note_on_c, 0, 78, 64
2, 36000, Note_on_c, 0, 78, 0
2, 36000, Note_on_c, 0, 76, 64
2, 36120, Note_on_c, 0, 76, 0
2, 36120, Note_on_c, 0, 75, 64
2, 36240, Note_on_c, 0, 75, 0
2, 36240, Note_on_c, 0, 73, 64
2, 36360, Note_on_c, 0, 73, 0
2, 36360, Note_on_c, 0, 76, 64
2, 36480, Note_on_c, 0, 76, 0
2, 36480, Note_on_c, 0, 75, 64
2, 36600, Note_on_c, 0, 75, 0
2, 36600, Note_on_c, 0, 73, 64
2, 36720, Note_on_c, 0, 73, 0
2, 36720, Note_on_c, 0, 75, 64
2, 36840, Note_on_c, 0, 75, 0
2, 36840, Note_on_c, 0, 76, 64
2, 36960, Note_on_c, 0, 76, 0
2, 36960, Note_on_c, 0, 75, 64
2, 37080, Note_on_c, 0, 75, 0
2, 37080, Note_on_c, 0, 73, 64
2, 37200, Note_on_c, 0, 73, 0
2, 37200, Note_on_c, 0, 71, 64
2, 37320, Note_on_c, 0, 71, 0
2, 37320, Note_on_c, 0, 75, 64
2, 37440, Note_on_c, 0, 75, 0
2, 37440, Note_on_c, 0, 73, 64
2, 37560, Note_on_c, 0, 73, 0
2, 37560, Note_on_c, 0, 71, 64
2, 37680, Note_on_c, 0, 71, 0
2, 37680, Note_on_c, 0, 73, 64
2, 37800, Note_on_c, 0, 73, 0
2, 37800, Note_on_c, 0, 75, 64
2, 37920, Note_on_c, 0, 75, 0
2, 37920, Note_on_c, 0, 73, 64
2, 38040, Note_on_c, 0, 73, 0
2, 38040, Note_on_c, 0, 71, 64
2, 38160, Note_on_c, 0, 71, 0
2, 38160, Note_on_c, 0, 70, 64
2, 38280, Note_on_c, 0, 70, 0
2, 38280, Note_on_c, 0, 73, 64
2, 38400, Note_on_c, 0, 73, 0
2, 38400, Note_on_c, 0, 71, 64
2, 39000, Note_on_c, 0, 71, 0
2, 39000, Note_on_c, 0, 73, 64
2, 39120, Note_on_c, 0, 73, 0
2, 39120, Note_on_c, 0, 75, 64
2, 39240, Note_on_c, 0, 75, 0
2, 39240, Note_on_c, 0, 71, 64
2, 39360, Note_on_c, 0, 71, 0
2, 39360, Note_on_c, 0, 73, 64
2, 40080, Note_on_c, 0, 73, 0
2, 40080, Note_on_c, 0, 76, 64
2, 40320, Note_on_c, 0, 76, 0
2, 40320, Note_on_c, 0, 75, 64
2, 41040, Note_on_c, 0, 75, 0
2, 41040, Note_on_c, 0, 78, 64
2, 41280, Note_on_c, 0, 78, 0
2, 41280, Note_on_c, 0, 76, 64
2, 42480, Note_on_c, 0, 76, 0
2, 42480, Note_on_c, 0, 75, 64
2, 42960, Note_on_c, 0, 75, 0
2, 42960, Note_on_c, 0, 73, 64
2, 43440, Note_on_c, 0, 73, 0
2, 43440, Note_on_c, 0, 72, 64
2, 43560, Note_on_c, 0, 72, 0
2, 43560, Note_on_c, 0, 70, 64
2, 43680, Note_on_c, 0, 70, 0
2, 43680, Note_on_c, 0, 72, 64
2, 43920, Note_on_c, 0, 72, 0
2, 43920, Note_on_c, 0, 75, 64
2, 44160, Note_on_c, 0, 75, 0
2, 44160, Note_on_c, 0, 80, 64
2, 44280, Note_on_c, 0, 80, 0
2, 44280, Note_on_c, 0, 78, 64
2, 44400, Note_on_c, 0, 78, 0
2, 44400, Note_on_c, 0, 80, 64
2, 44520, Note_on_c, 0, 80, 0
2, 44520, Note_on_c, 0, 81, 64
2, 44640, Note_on_c, 0, 81, 0
2, 44640, Note_on_c, 0, 80, 64
2, 44760, Note_on_c, 0, 80, 0
2, 44760, Note_on_c, 0, 78, 64
2, 44880, Note_on_c, 0, 78, 0
2, 44880, Note_on_c, 0, 76, 64
2, 45000, Note_on_c, 0, 76, 0
2, 45000, Note_on_c, 0, 80, 64
2, 45120, Note_on_c, 0, 80, 0
2, 45120, Note_on_c, 0, 78, 64
2, 45240, Note_on_c, 0, 78, 0
2, 45240, Note_on_c, 0, 76, 64
2, 45360, Note_on_c, 0, 76, 0
2, 45360, Note_on_c, 0, 78, 64
2, 45480, Note_on_c, 0, 78, 0
2, 45480, Note_on_c, 0, 80, 64
2, 45600, Note_on_c, 0, 80, 0
2, 45600, Note_on_c, 0, 78, 64
2, 45720, Note_on_c, 0, 78, 0
2, 45720, Note_on_c, 0, 76, 64
2, 45840, Note_on_c, 0, 76, 0
2, 45840, Note_on_c, 0, 75, 64
2, 45960, Note_on_c, 0, 75, 0
2, 45960, Note_on_c, 0, 78, 64
2, 46080, Note_on_c, 0, 78, 0
2, 46080, Note_on_c, 0, 77, 64
2, 46560, Note_on_c, 0, 77, 0
2, 46560, Note_on_c, 0, 81, 64
2, 47040, Note_on_c, 0, 81, 0
2, 47040, Note_on_c, 0, 80, 64
2, 48240, Note_on_c, 0, 80, 0
2, 48240, Note_on_c, 0, 78, 64
2, 48360, Note_on_c, 0, 78, 0
2, 48360, Note_on_c, 0, 76, 64
2, 48480, Note_on_c, 0, 76, 0
2, 48480, Note_on_c, 0, 74, 64
2, 48960, Note_on_c, 0, 74, 0
2, 49200, Note_on_c, 0, 73, 64
2, 49440, Note_on_c, 0, 73, 0
2, 49440, Note_on_c, 0, 78, 64
2, 49670, Note_on_c, 0, 78, 0
2, 49680, Note_on_c, 0, 78, 64
2, 49910, Note_on_c, 0, 78, 0
2, 49920, Note_on_c, 0, 78, 64
2, 50160, Note_on_c, 0, 78, 0
2, 50160, Note_on_c, 0, 76, 64
2, 50280, Note_on_c, 0, 76, 0
2, 50280, Note_on_c, 0, 74, 64
2, 50400, Note_on_c, 0, 74, 0
2, 50400, Note_on_c, 0, 76, 64
2, 51120, Note_on_c, 0, 76, 0
2, 51120, Note_on_c, 0, 74, 64
2, 51240, Note_on_c, 0, 74, 0
2, 51240, Note_on_c, 0, 73, 64
2, 51360, Note_on_c, 0, 73, 0
2, 51360, Note_on_c, 0, 74, 64
2, 52320, Note_on_c, 0, 74, 0
2, 52320, Note_on_c, 0, 73, 64
2, 52800, Note_on_c, 0, 73, 0
2, 52800, Note_on_c, 0, 78, 64
2, 53280, Note_on_c, 0, 78, 0
2, 53280, Note_on_c, 0, 76, 64
2, 54120, Note_on_c, 0, 76, 0
2, 54120, Note_on_c, 0, 78, 64
2, 54240, Note_on_c, 0, 78, 0
2, 54240, Note_on_c, 0, 76, 64
2, 54360, Note_on_c, 0, 76, 0
2, 54360, Note_on_c, 0, 74, 64
2, 54480, Note_on_c, 0, 74, 0
2, 54480, Note_on_c, 0, 73, 64
2, 54600, Note_on_c, 0, 73, 0
2, 54600, Note_on_c, 0, 76, 64
2, 54720, Note_on_c, 0, 76, 0
2, 54720, Note_on_c, 0, 74, 64
2, 54840, Note_on_c, 0, 74, 0
2, 54840, Note_on_c, 0, 73, 64
2, 54960, Note_on_c, 0, 73, 0
2, 54960, Note_on_c, 0, 74, 64
2, 55080, Note_on_c, 0, 74, 0
2, 55080, Note_on_c, 0, 76, 64
2, 55200, Note_on_c, 0, 76, 0
2, 55200, Note_on_c, 0, 74, 64
2, 55320, Note_on_c, 0, 74, 0
2, 55320, Note_on_c, 0, 73, 64
2, 55440, Note_on_c, 0, 73, 0
2, 55440, Note_on_c, 0, 71, 64
2, 55560, Note_on_c, 0, 71, 0
2, 55560, Note_on_c, 0, 74, 64
2, 55680, Note_on_c, 0, 74, 0
2, 55680, Note_on_c, 0, 73, 64
2, 56640, Note_on_c, 0, 73, 0
2, 56640, Note_on_c, 0, 72, 64
2, 57120, Note_on_c, 0, 72, 0
2, 57120, Note_on_c, 0, 76, 64
2, 57600, Note_on_c, 0, 76, 0
2, 57600, Note_on_c, 0, 75, 64
2, 58800, Note_on_c, 0, 75, 0
2, 58800, Note_on_c, 0, 68, 64
2, 59040, Note_on_c, 0, 68, 0
2, 59040, Note_on_c, 0, 73, 64
2, 59280, Note_on_c, 0, 73, 0
2, 59280, Note_on_c, 0, 73, 64
2, 59520, Note_on_c, 0, 73, 0
2, 59520, Note_on_c, 0, 73, 64
2, 59760, Note_on_c, 0, 73, 0
2, 59760, Note_on_c, 0, 71, 64
2, 59880, Note_on_c, 0, 71, 0
2, 59880, Note_on_c, 0, 69, 64
2, 60000, Note_on_c, 0, 69, 0
2, 60000, Note_on_c, 0, 71, 64
2, 60960, Note_on_c, 0, 71, 0
2, 60960, Note_on_c, 0, 69, 64
2, 61440, Note_on_c, 0, 69, 0
2, 61440, Note_on_c, 0, 68, 64
2, 61920, Note_on_c, 0, 68, 0
2, 62400, Note_on_c, 0, 75, 64
2, 63360, Note_on_c, 0, 75, 0
2, 63360, Note_on_c, 0, 74, 64
2, 63840, Note_on_c, 0, 74, 0
2, 63840, Note_on_c, 0, 78, 64
2, 64320, Note_on_c, 0, 78, 0
2, 64320, Note_on_c, 0, 77, 64
2, 64800, Note_on_c, 0, 77, 0
2, 64800, Note_on_c, 0, 76, 64
2, 65280, Note_on_c, 0, 76, 0
2, 65280, Note_on_c, 0, 75, 64
2, 65400, Note_on_c, 0, 75, 0
2, 65400, Note_on_c, 0, 73, 64
2, 65520, Note_on_c, 0, 73, 0
2, 65520, Note_on_c, 0, 75, 64
2, 65640, Note_on_c, 0, 75, 0
2, 65640, Note_on_c, 0, 76, 64
2, 65760, Note_on_c, 0, 76, 0
2, 65760, Note_on_c, 0, 75, 64
2, 65880, Note_on_c, 0, 75, 0
2, 65880, Note_on_c, 0, 73, 64
2, 66000, Note_on_c, 0, 73, 0
2, 66000, Note_on_c, 0, 71, 64
2, 66120, Note_on_c, 0, 71, 0
2, 66120, Note_on_c, 0, 75, 64
2, 66240, Note_on_c, 0, 75, 0
2, 66240, Note_on_c, 0, 73, 64
2, 66360, Note_on_c, 0, 73, 0
2, 66360, Note_on_c, 0, 71, 64
2, 66480, Note_on_c, 0, 71, 0
2, 66480, Note_on_c, 0, 73, 64
2, 66600, Note_on_c, 0, 73, 0
2, 66600, Note_on_c, 0, 75, 64
2, 66720, Note_on_c, 0, 75, 0
2, 66720, Note_on_c, 0, 73, 64
2, 66840, Note_on_c, 0, 73, 0
2, 66840, Note_on_c, 0, 76, 64
2, 66960, Note_on_c, 0, 76, 0
2, 66960, Note_on_c, 0, 75, 64
2, 67080, Note_on_c, 0, 75, 0
2, 67080, Note_on_c, 0, 73, 64
2, 67200, Note_on_c, 0, 73, 0
2, 67200, Note_on_c, 0, 72, 64
2, 67680, Note_on_c, 0, 72, 0
2, 67680, Note_on_c, 0, 71, 64
2, 68160, Note_on_c, 0, 71, 0
2, 68160, Note_on_c, 0, 70, 64
2, 68640, Note_on_c, 0, 70, 0
2, 68640, Note_on_c, 0, 69, 64
2, 69120, Note_on_c, 0, 69, 0
2, 69120, Note_on_c, 0, 68, 64
2, 69600, Note_on_c, 0, 68, 0
2, 72000, Note_on_c, 0, 73, 64
2, 72960, Note_on_c, 0, 73, 0
2, 72960, Note_on_c, 0, 72, 64
2, 73440, Note_on_c, 0, 72, 0
2, 73440, Note_on_c, 0, 76, 64
2, 73920, Note_on_c, 0, 76, 0
2, 73920, Note_on_c, 0, 75, 64
2, 75360, Note_on_c, 0, 75, 0
2, 75360, Note_on_c, 0, 73, 64
2, 76320, Note_on_c, 0, 73, 0
2, 76320, Note_on_c, 0, 72, 64
2, 76800, Note_on_c, 0, 72, 0
2, 77040, Note_on_c, 0, 73, 64
2, 77160, Note_on_c, 0, 73, 0
2, 77160, Note_on_c, 0, 75, 64
2, 77280, Note_on_c, 0, 75, 0
2, 77280, Note_on_c, 0, 76, 64
2, 77520, Note_on_c, 0, 76, 0
2, 77520, Note_on_c, 0, 78, 64
2, 77760, Note_on_c, 0, 78, 0
2, 77760, Note_on_c, 0, 80, 64
2, 77880, Note_on_c, 0, 80, 0
2, 77880, Note_on_c, 0, 78, 64
2, 78000, Note_on_c, 0, 78, 0
2, 78000, Note_on_c, 0, 80, 64
2, 78120, Note_on_c, 0, 80, 0
2, 78120, Note_on_c, 0, 81, 64
2, 78240, Note_on_c, 0, 81, 0
2, 78240, Note_on_c, 0, 80, 64
2, 78360, Note_on_c, 0, 80, 0
2, 78360, Note_on_c, 0, 78, 64
2, 78480, Note_on_c, 0, 78, 0
2, 78480, Note_on_c, 0, 76, 64
2, 78600, Note_on_c, 0, 76, 0
2, 78600, Note_on_c, 0, 80, 64
2, 78720, Note_on_c, 0, 80, 0
2, 78720, Note_on_c, 0, 78, 64
2, 78840, Note_on_c, 0, 78, 0
2, 78840, Note_on_c, 0, 76, 64
2, 78960, Note_on_c, 0, 76, 0
2, 78960, Note_on_c, 0, 78, 64
2, 79080, Note_on_c, 0, 78, 0
2, 79080, Note_on_c, 0, 80, 64
2, 79200, Note_on_c, 0, 80, 0
2, 79200, Note_on_c, 0, 78, 64
2, 79320, Note_on_c, 0, 78, 0
2, 79320, Note_on_c, 0, 76, 64
2, 79440, Note_on_c, 0, 76, 0
2, 79440, Note_on_c, 0, 75, 64
2, 79560, Note_on_c, 0, 75, 0
2, 79560, Note_on_c, 0, 78, 64
2, 79680, Note_on_c, 0, 78, 0
2, 79680, Note_on_c, 0, 76, 64
2, 79800, Note_on_c, 0, 76, 0
2, 79800, Note_on_c, 0, 75, 64
2, 79920, Note_on_c, 0, 75, 0
2, 79920, Note_on_c, 0, 76, 64
2, 80040, Note_on_c, 0, 76, 0
2, 80040, Note_on_c, 0, 78, 64
2, 80160, Note_on_c, 0, 78, 0
2, 80160, Note_on_c, 0, 76, 64
2, 80280, Note_on_c, 0, 76, 0
2, 80280, Note_on_c, 0, 74, 64
2, 80400, Note_on_c, 0, 74, 0
2, 80400, Note_on_c, 0, 73, 64
2, 80520, Note_on_c, 0, 73, 0
2, 80520, Note_on_c, 0, 76, 64
2, 80640, Note_on_c, 0, 76, 0
2, 80640, Note_on_c, 0, 74, 64
2, 80760, Note_on_c, 0, 74, 0
2, 80760, Note_on_c, 0, 73, 64
2, 80880, Note_on_c, 0, 73, 0
2, 80880, Note_on_c, 0, 74, 64
2, 81000, Note_on_c, 0, 74, 0
2, 81000, Note_on_c, 0, 76, 64
2, 81120, Note_on_c, 0, 76, 0
2, 81120, Note_on_c, 0, 74, 64
2, 81240, Note_on_c, 0, 74, 0
2, 81240, Note_on_c, 0, 73, 64
2, 81360, Note_on_c, 0, 73, 0
2, 81360, Note_on_c, 0, 71, 64
2, 81480, Note_on_c, 0, 71, 0
2, 81480, Note_on_c, 0, 74, 64
2, 81600, Note_on_c, 0, 74, 0
2, 81600, Note_on_c, 0, 73, 64
2, 81720, Note_on_c, 0, 73, 0
2, 81720, Note_on_c, 0, 71, 64
2, 81840, Note_on_c, 0, 71, 0
2, 81840, Note_on_c, 0, 73, 64
2, 81960, Note_on_c, 0, 73, 0
2, 81960, Note_on_c, 0, 74, 64
2, 82080, Note_on_c, 0, 74, 0
2, 82080, Note_on_c, 0, 73, 64
2, 82200, Note_on_c, 0, 73, 0
2, 82200, Note_on_c, 0, 71, 64
2, 82320, Note_on_c, 0, 71, 0
2, 82320, Note_on_c, 0, 69, 64
2, 82440, Note_on_c, 0, 69, 0
2, 82440, Note_on_c, 0, 73, 64
2, 82560, Note_on_c, 0, 73, 0
2, 82560, Note_on_c, 0, 71, 64
2, 82680, Note_on_c, 0, 71, 0
2, 82680, Note_on_c, 0, 69, 64
2, 82800, Note_on_c, 0, 69, 0
2, 82800, Note_on_c, 0, 71, 64
2, 82920, Note_on_c, 0, 71, 0
2, 82920, Note_on_c, 0, 73, 64
2, 83040, Note_on_c, 0, 73, 0
2, 83040, Note_on_c, 0, 71, 64
2, 83160, Note_on_c, 0, 71, 0
2, 83160, Note_on_c, 0, 69, 64
2, 83280, Note_on_c, 0, 69, 0
2, 83280, Note_on_c, 0, 68, 64
2, 83400, Note_on_c, 0, 68, 0
2, 83400, Note_on_c, 0, 71, 64
2, 83520, Note_on_c, 0, 71, 0
2, 83520, Note_on_c, 0, 69, 64
2, 84000, Note_on_c, 0, 69, 0
2, 84480, Note_on_c, 0, 73, 64
2, 85440, Note_on_c, 0, 73, 0
2, 85440, Note_on_c, 0, 72, 64
2, 85920, Note_on_c, 0, 72, 0
2, 85920, Note_on_c, 0, 76, 64
2, 86400, Note_on_c, 0, 76, 0
2, 86400, Note_on_c, 0, 75, 64
2, 87600, Note_on_c, 0, 75, 0
2, 87600, Note_on_c, 0, 73, 64
2, 87840, Note_on_c, 0, 73, 0
2, 87840, Note_on_c, 0, 80, 64
2, 88070, Note_on_c, 0, 80, 0
2, 88080, Note_on_c, 0, 80, 64
2, 88310, Note_on_c, 0, 80, 0
2, 88320, Note_on_c, 0, 80, 64
2, 88560, Note_on_c, 0, 80, 0
2, 88560, Note_on_c, 0, 78, 64
2, 88680, Note_on_c, 0, 78, 0
2, 88680, Note_on_c, 0, 76, 64
2, 88800, Note_on_c, 0, 76, 0
2, 88800, Note_on_c, 0, 78, 64
2, 89280, Note_on_c, 0, 78, 0
2, 89280, Note_on_c, 0, 76, 64
2, 90240, Note_on_c, 0, 76, 0
2, 90240, Note_on_c, 0, 75, 64
2, 90720, Note_on_c, 0, 75, 0
2, 90720, Note_on_c, 0, 79, 64
2, 91200, Note_on_c, 0, 79, 0
2, 91200, Note_on_c, 0, 78, 64
2, 91680, Note_on_c, 0, 78, 0
2, 91680, Note_on_c, 0, 66, 64
2, 92160, Note_on_c, 0, 66, 0
2, 92160, Note_on_c, 0, 65, 64
2, 92640, Note_on_c, 0, 65, 0
2, 94320, Note_on_c, 0, 72, 64
2, 94560, Note_on_c, 0, 72, 0
2, 94560, Note_on_c, 0, 78, 64
2, 94790, Note_on_c, 0, 78, 0
2, 94800, Note_on_c, 0, 78, 64
2, 95030, Note_on_c, 0, 78, 0
2, 95040, Note_on_c, 0, 78, 64
2, 95280, Note_on_c, 0, 78, 0
2, 95280, Note_on_c, 0, 76, 64
2, 95400, Note_on_c, 0, 76, 0
2, 95400, Note_on_c, 0, 75, 64
2, 95520, Note_on_c, 0, 75, 0
2, 95520, Note_on_c, 0, 76, 64
2, 95760, Note_on_c, 0, 76, 0
2, 95760, Note_on_c, 0, 75, 64
2, 95880, Note_on_c, 0, 75, 0
2, 95880, Note_on_c, 0, 73, 64
2, 96000, Note_on_c, 0, 73, 0
2, 96000, Note_on_c, 0, 75, 64
2, 96240, Note_on_c, 0, 75, 0
2, 96240, Note_on_c, 0, 72, 64
2, 96480, Note_on_c, 0, 72, 0
2, 96480, Note_on_c, 0, 73, 64
2, 97920, Note_on_c, 0, 73, 0
2, 97920, Note_on_c, 0, 72, 64
2, 98400, Note_on_c, 0, 72, 0
2, 98400, Note_on_c, 0, 71, 64
2, 98880, Note_on_c, 0, 71, 0
2, 98880, Note_on_c, 0, 70, 64
2, 99360, Note_on_c, 0, 70, 0
2, 99360, Note_on_c, 0, 69, 64
2, 99840, Note_on_c, 0, 69, 0
2, 99840, Note_on_c, 0, 68, 64
2, 100800, Note_on_c, 0, 68, 0
2, 100800, Note_on_c, 0, 70, 64
2, 101280, Note_on_c, 0, 70, 0
2, 101280, Note_on_c, 0, 72, 64
2, 101760, Note_on_c, 0, 72, 0
2, 101760, Note_on_c, 0, 73, 64
2, 102720, Note_on_c, 0, 73, 0
2, 102720, Note_on_c, 0, 72, 64
2, 103200, Note_on_c, 0, 72, 0
2, 103200, Note_on_c, 0, 76, 64
2, 104160, Note_on_c, 0, 76, 0
2, 104160, Note_on_c, 0, 75, 64
2, 104400, Note_on_c, 0, 75, 0
2, 104400, Note_on_c, 0, 73, 64
2, 104640, Note_on_c, 0, 73, 0
2, 104640, Note_on_c, 0, 72, 64
2, 105120, Note_on_c, 0, 72, 0
2, 105120, Note_on_c, 0, 73, 64
2, 106080, Note_on_c, 0, 73, 0
2, 106080, Note_on_c, 0, 72, 64
2, 106560, Note_on_c, 0, 72, 0
2, 106560, Note_on_c, 0, 73, 64
2, 110400, Note_on_c, 0, 73, 0
2, 110400, End_track
3, 0, Start_track
3, 0, MIDI_port, 0
3, 0, Title_t, "RH M"
3, 0, Program_c, 1, 6
3, 11040, Note_on_c, 1, 68, 64
3, 11520, Note_on_c, 1, 68, 0
3, 11520, Note_on_c, 1, 65, 64
3, 12000, Note_on_c, 1, 65, 0
3, 12000, Note_on_c, 1, 69, 64
3, 12480, Note_on_c, 1, 69, 0
3, 12480, Note_on_c, 1, 68, 64
3, 12960, Note_on_c, 1, 68, 0
3, 12960, Note_on_c, 1, 66, 64
3, 13920, Note_on_c, 1, 66, 0
3, 13920, Note_on_c, 1, 73, 64
3, 14880, Note_on_c, 1, 73, 0
3, 14880, Note_on_c, 1, 71, 64
3, 15840, Note_on_c, 1, 71, 0
3, 15840, Note_on_c, 1, 69, 64
3, 16320, Note_on_c, 1, 69, 0
3, 16320, Note_on_c, 1, 68, 64
3, 16800, Note_on_c, 1, 68, 0
3, 16800, Note_on_c, 1, 69, 64
3, 17520, Note_on_c, 1, 69, 0
3, 17520, Note_on_c, 1, 68, 64
3, 17750, Note_on_c, 1, 68, 0
3, 17760, Note_on_c, 1, 68, 64
3, 18240, Note_on_c, 1, 68, 0
3, 18240, Note_on_c, 1, 70, 64
3, 18720, Note_on_c, 1, 70, 0
3, 18720, Note_on_c, 1, 68, 64
3, 19680, Note_on_c, 1, 68, 0
3, 19680, Note_on_c, 1, 67, 64
3, 20160, Note_on_c, 1, 67, 0
3, 20160, Note_on_c, 1, 68, 64
3, 20640, Note_on_c, 1, 68, 0
3, 20640, Note_on_c, 1, 59, 64
3, 21120, Note_on_c, 1, 59, 0
3, 21120, Note_on_c, 1, 61, 64
3, 21830, Note_on_c, 1, 61, 0
3, 21840, Note_on_c, 1, 61, 64
3, 22080, Note_on_c, 1, 61, 0
3, 22080, Note_on_c, 1, 63, 64
3, 22320, Note_on_c, 1, 63, 0
3, 22320, Note_on_c, 1, 61, 64
3, 22560, Note_on_c, 1, 61, 0
3, 22560, Note_on_c, 1, 63, 64
3, 22800, Note_on_c, 1, 63, 0
3, 22800, Note_on_c, 1, 65, 64
3, 23040, Note_on_c, 1, 65, 0
3, 23040, Note_on_c, 1, 66, 64
3, 23520, Note_on_c, 1, 69, 64
3, 23579, Note_on_c, 1, 66, 0
3, 24000, Note_on_c, 1, 69, 0
3, 24000, Note_on_c, 1, 68, 64
3, 24473, Note_on_c, 1, 68, 0
3, 24600, Note_on_c, 1, 71, 64
3, 24720, Note_on_c, 1, 71, 0
3, 24720, Note_on_c, 1, 69, 64
3, 24840, Note_on_c, 1, 69, 0
3, 24840, Note_on_c, 1, 68, 64
3, 24960, Note_on_c, 1, 68, 0
3, 24960, Note_on_c, 1, 66, 64
3, 25200, Note_on_c, 1, 66, 0
3, 25200, Note_on_c, 1, 69, 64
3, 25440, Note_on_c, 1, 69, 0
3, 25440, Note_on_c, 1, 68, 64
3, 25680, Note_on_c, 1, 68, 0
3, 25680, Note_on_c, 1, 66, 64
3, 25920, Note_on_c, 1, 66, 0
3, 25920, Note_on_c, 1, 65, 64
3, 26400, Note_on_c, 1, 65, 0
3, 26400, Note_on_c, 1, 66, 64
3, 27120, Note_on_c, 1, 66, 0
3, 27120, Note_on_c, 1, 64, 64
3, 28320, Note_on_c, 1, 64, 0
3, 28320, Note_on_c, 1, 63, 64
3, 28800, Note_on_c, 1, 63, 0
3, 28800, Note_on_c, 1, 64, 64
3, 30000, Note_on_c, 1, 64, 0
3, 30000, Note_on_c, 1, 63, 64
3, 30240, Note_on_c, 1, 63, 0
3, 30480, Note_on_c, 1, 66, 64
3, 30600, Note_on_c, 1, 66, 0
3, 30600, Note_on_c, 1, 68, 64
3, 30720, Note_on_c, 1, 68, 0
3, 30720, Note_on_c, 1, 66, 64
3, 31200, Note_on_c, 1, 66, 0
3, 31200, Note_on_c, 1, 71, 64
3, 31920, Note_on_c, 1, 71, 0
3, 31920, Note_on_c, 1, 73, 64
3, 32160, Note_on_c, 1, 73, 0
3, 32160, Note_on_c, 1, 71, 64
3, 32400, Note_on_c, 1, 71, 0
3, 32400, Note_on_c, 1, 69, 64
3, 32640, Note_on_c, 1, 69, 0
3, 32640, Note_on_c, 1, 68, 64
3, 33120, Note_on_c, 1, 68, 0
3, 41760, Note_on_c, 1, 73, 64
3, 42240, Note_on_c, 1, 73, 0
3, 42240, Note_on_c, 1, 72, 64
3, 42720, Note_on_c, 1, 72, 0
3, 42720, Note_on_c, 1, 76, 64
3, 43200, Note_on_c, 1, 76, 0
3, 43200, Note_on_c, 1, 75, 64
3, 44640, Note_on_c, 1, 75, 0
3, 44640, Note_on_c, 1, 73, 64
3, 45600, Note_on_c, 1, 73, 0
3, 45600, Note_on_c, 1, 72, 64
3, 45840, Note_on_c, 1, 72, 0
3, 45840, Note_on_c, 1, 71, 64
3, 46190, Note_on_c, 1, 71, 0
3, 46200, Note_on_c, 1, 71, 64
3, 46320, Note_on_c, 1, 71, 0
3, 46320, Note_on_c, 1, 73, 64
3, 46440, Note_on_c, 1, 73, 0
3, 46440, Note_on_c, 1, 74, 64
3, 46560, Note_on_c, 1, 74, 0
3, 46560, Note_on_c, 1, 73, 64
3, 46680, Note_on_c, 1, 73, 0
3, 46680, Note_on_c, 1, 71, 64
3, 46800, Note_on_c, 1, 71, 0
3, 46800, Note_on_c, 1, 69, 64
3, 46920, Note_on_c, 1, 69, 0
3, 46920, Note_on_c, 1, 73, 64
3, 47040, Note_on_c, 1, 73, 0
3, 47040, Note_on_c, 1, 71, 64
3, 47160, Note_on_c, 1, 71, 0
3, 47160, Note_on_c, 1, 69, 64
3, 47280, Note_on_c, 1, 69, 0
3, 47280, Note_on_c, 1, 71, 64
3, 47400, Note_on_c, 1, 71, 0
3, 47400, Note_on_c, 1, 73, 64
3, 47520, Note_on_c, 1, 73, 0
3, 47520, Note_on_c, 1, 71, 64
3, 47640, Note_on_c, 1, 71, 0
3, 47640, Note_on_c, 1, 69, 64
3, 47760, Note_on_c, 1, 69, 0
3, 47760, Note_on_c, 1, 68, 64
3, 47880, Note_on_c, 1, 68, 0
3, 47880, Note_on_c, 1, 71, 64
3, 48000, Note_on_c, 1, 71, 0
3, 48000, Note_on_c, 1, 69, 64
3, 48600, Note_on_c, 1, 69, 0
3, 48600, Note_on_c, 1, 73, 64
3, 48720, Note_on_c, 1, 73, 0
3, 48720, Note_on_c, 1, 71, 64
3, 48840, Note_on_c, 1, 71, 0
3, 48840, Note_on_c, 1, 69, 64
3, 48960, Note_on_c, 1, 69, 0
3, 48960, Note_on_c, 1, 68, 64
3, 49440, Note_on_c, 1, 68, 0
3, 51360, Note_on_c, 1, 69, 64
3, 51840, Note_on_c, 1, 69, 0
3, 51840, Note_on_c, 1, 68, 64
3, 52320, Note_on_c, 1, 68, 0
3, 52800, Note_on_c, 1, 71, 64
3, 54000, Note_on_c, 1, 71, 0
3, 54000, Note_on_c, 1, 64, 64
3, 54240, Note_on_c, 1, 64, 0
3, 54240, Note_on_c, 1, 69, 64
3, 54470, Note_on_c, 1, 69, 0
3, 54480, Note_on_c, 1, 69, 64
3, 54710, Note_on_c, 1, 69, 0
3, 54720, Note_on_c, 1, 69, 64
3, 54960, Note_on_c, 1, 69, 0
3, 54960, Note_on_c, 1, 68, 64
3, 55080, Note_on_c, 1, 68, 0
3, 55080, Note_on_c, 1, 66, 64
3, 55200, Note_on_c, 1, 66, 0
3, 55200, Note_on_c, 1, 68, 64
3, 55920, Note_on_c, 1, 68, 0
3, 55920, Note_on_c, 1, 61, 64
3, 56040, Note_on_c, 1, 61, 0
3, 56040, Note_on_c, 1, 63, 64
3, 56160, Note_on_c, 1, 63, 0
3, 56160, Note_on_c, 1, 64, 64
3, 56400, Note_on_c, 1, 64, 0
3, 56400, Note_on_c, 1, 66, 64
3, 56640, Note_on_c, 1, 66, 0
3, 56640, Note_on_c, 1, 68, 64
3, 56760, Note_on_c, 1, 68, 0
3, 56760, Note_on_c, 1, 66, 64
3, 56880, Note_on_c, 1, 66, 0
3, 56880, Note_on_c, 1, 68, 64
3, 57000, Note_on_c, 1, 68, 0
3, 57000, Note_on_c, 1, 69, 64
3, 57120, Note_on_c, 1, 69, 0
3, 57120, Note_on_c, 1, 68, 64
3, 57240, Note_on_c, 1, 68, 0
3, 57240, Note_on_c, 1, 66, 64
3, 57360, Note_on_c, 1, 66, 0
3, 57360, Note_on_c, 1, 64, 64
3, 57480, Note_on_c, 1, 64, 0
3, 57480, Note_on_c, 1, 68, 64
3, 57600, Note_on_c, 1, 68, 0
3, 57600, Note_on_c, 1, 66, 64
3, 57720, Note_on_c, 1, 66, 0
3, 57720, Note_on_c, 1, 64, 64
3, 57840, Note_on_c, 1, 64, 0
3, 57840, Note_on_c, 1, 66, 64
3, 57960, Note_on_c, 1, 66, 0
3, 57960, Note_on_c, 1, 68, 64
3, 58080, Note_on_c, 1, 68, 0
3, 58080, Note_on_c, 1, 66, 64
3, 58200, Note_on_c, 1, 66, 0
3, 58200, Note_on_c, 1, 64, 64
3, 58320, Note_on_c, 1, 64, 0
3, 58320, Note_on_c, 1, 63, 64
3, 58440, Note_on_c, 1, 63, 0
3, 58440, Note_on_c, 1, 66, 64
3, 58560, Note_on_c, 1, 66, 0
3, 58560, Note_on_c, 1, 64, 64
3, 58680, Note_on_c, 1, 64, 0
3, 58680, Note_on_c, 1, 63, 64
3, 58800, Note_on_c, 1, 63, 0
3, 58800, Note_on_c, 1, 64, 64
3, 58920, Note_on_c, 1, 64, 0
3, 58920, Note_on_c, 1, 66, 64
3, 59040, Note_on_c, 1, 66, 0
3, 59040, Note_on_c, 1, 64, 64
3, 59160, Note_on_c, 1, 64, 0
3, 59160, Note_on_c, 1, 63, 64
3, 59280, Note_on_c, 1, 63, 0
3, 59280, Note_on_c, 1, 61, 64
3, 59400, Note_on_c, 1, 61, 0
3, 59400, Note_on_c, 1, 64, 64
3, 59520, Note_on_c, 1, 64, 0
3, 59520, Note_on_c, 1, 75, 64
3, 59640, Note_on_c, 1, 75, 0
3, 59640, Note_on_c, 1, 73, 64
3, 59760, Note_on_c, 1, 73, 0
3, 59760, Note_on_c, 1, 75, 64
3, 59880, Note_on_c, 1, 75, 0
3, 59880, Note_on_c, 1, 76, 64
3, 60000, Note_on_c, 1, 76, 0
3, 60000, Note_on_c, 1, 74, 64
3, 60120, Note_on_c, 1, 74, 0
3, 60120, Note_on_c, 1, 73, 64
3, 60240, Note_on_c, 1, 73, 0
3, 60240, Note_on_c, 1, 71, 64
3, 60360, Note_on_c, 1, 71, 0
3, 60360, Note_on_c, 1, 74, 64
3, 60480, Note_on_c, 1, 74, 0
3, 60480, Note_on_c, 1, 73, 64
3, 60600, Note_on_c, 1, 73, 0
3, 60600, Note_on_c, 1, 71, 64
3, 60720, Note_on_c, 1, 71, 0
3, 60720, Note_on_c, 1, 73, 64
3, 60840, Note_on_c, 1, 73, 0
3, 60840, Note_on_c, 1, 74, 64
3, 60960, Note_on_c, 1, 74, 0
3, 60960, Note_on_c, 1, 73, 64
3, 61080, Note_on_c, 1, 73, 0
3, 61080, Note_on_c, 1, 76, 64
3, 61200, Note_on_c, 1, 76, 0
3, 61200, Note_on_c, 1, 75, 64
3, 61320, Note_on_c, 1, 75, 0
3, 61320, Note_on_c, 1, 73, 64
3, 61440, Note_on_c, 1, 73, 0
3, 61440, Note_on_c, 1, 72, 64
3, 61920, Note_on_c, 1, 72, 0
3, 61920, Note_on_c, 1, 73, 64
3, 62400, Note_on_c, 1, 73, 0
3, 62400, Note_on_c, 1, 63, 64
3, 62630, Note_on_c, 1, 63, 0
3, 62640, Note_on_c, 1, 63, 64
3, 62880, Note_on_c, 1, 63, 0
3, 62880, Note_on_c, 1, 68, 64
3, 63000, Note_on_c, 1, 68, 0
3, 63000, Note_on_c, 1, 70, 64
3, 63120, Note_on_c, 1, 70, 0
3, 63120, Note_on_c, 1, 71, 64
3, 63600, Note_on_c, 1, 71, 0
3, 63600, Note_on_c, 1, 70, 64
3, 63840, Note_on_c, 1, 70, 0
3, 63840, Note_on_c, 1, 75, 64
3, 64070, Note_on_c, 1, 75, 0
3, 64080, Note_on_c, 1, 75, 64
3, 64310, Note_on_c, 1, 75, 0
3, 64320, Note_on_c, 1, 75, 64
3, 64560, Note_on_c, 1, 75, 0
3, 64560, Note_on_c, 1, 73, 64
3, 64680, Note_on_c, 1, 73, 0
3, 64680, Note_on_c, 1, 72, 64
3, 64800, Note_on_c, 1, 72, 0
3, 64800, Note_on_c, 1, 73, 64
3, 65760, Note_on_c, 1, 73, 0
3, 65760, Note_on_c, 1, 71, 64
3, 66240, Note_on_c, 1, 71, 0
3, 66240, Note_on_c, 1, 70, 64
3, 66720, Note_on_c, 1, 70, 0
3, 66720, Note_on_c, 1, 69, 64
3, 67440, Note_on_c, 1, 69, 0
3, 67440, Note_on_c, 1, 63, 64
3, 67680, Note_on_c, 1, 63, 0
3, 67680, Note_on_c, 1, 68, 64
3, 67910, Note_on_c, 1, 68, 0
3, 67920, Note_on_c, 1, 68, 64
3, 68400, Note_on_c, 1, 68, 0
3, 68400, Note_on_c, 1, 66, 64
3, 68520, Note_on_c, 1, 66, 0
3, 68520, Note_on_c, 1, 65, 64
3, 68640, Note_on_c, 1, 65, 0
3, 68640, Note_on_c, 1, 66, 64
3, 69600, Note_on_c, 1, 66, 0
3, 69600, Note_on_c, 1, 64, 64
3, 70080, Note_on_c, 1, 64, 0
3, 70080, Note_on_c, 1, 63, 64
3, 70560, Note_on_c, 1, 63, 0
3, 70560, Note_on_c, 1, 61, 64
3, 71040, Note_on_c, 1, 61, 0
3, 71040, Note_on_c, 1, 63, 64
3, 72000, Note_on_c, 1, 63, 0
3, 73200, Note_on_c, 1, 68, 64
3, 73440, Note_on_c, 1, 68, 0
3, 73440, Note_on_c, 1, 73, 64
3, 73670, Note_on_c, 1, 73, 0
3, 73680, Note_on_c, 1, 73, 64
3, 73910, Note_on_c, 1, 73, 0
3, 73920, Note_on_c, 1, 73, 64
3, 74160, Note_on_c, 1, 73, 0
3, 74160, Note_on_c, 1, 72, 64
3, 74280, Note_on_c, 1, 72, 0
3, 74280, Note_on_c, 1, 70, 64
3, 74400, Note_on_c, 1, 70, 0
3, 74400, Note_on_c, 1, 72, 64
3, 74520, Note_on_c, 1, 72, 0
3, 74520, Note_on_c, 1, 73, 64
3, 74640, Note_on_c, 1, 73, 0
3, 74640, Note_on_c, 1, 75, 64
3, 74760, Note_on_c, 1, 75, 0
3, 74760, Note_on_c, 1, 72, 64
3, 74880, Note_on_c, 1, 72, 0
3, 74880, Note_on_c, 1, 68, 64
3, 75000, Note_on_c, 1, 68, 0
3, 75000, Note_on_c, 1, 66, 64
3, 75120, Note_on_c, 1, 66, 0
3, 75120, Note_on_c, 1, 68, 64
3, 75240, Note_on_c, 1, 68, 0
3, 75240, Note_on_c, 1, 69, 64
3, 75360, Note_on_c, 1, 69, 0
3, 75360, Note_on_c, 1, 68, 64
3, 75480, Note_on_c, 1, 68, 0
3, 75480, Note_on_c, 1, 66, 64
3, 75600, Note_on_c, 1, 66, 0
3, 75600, Note_on_c, 1, 64, 64
3, 75720, Note_on_c, 1, 64, 0
3, 75720, Note_on_c, 1, 68, 64
3, 75840, Note_on_c, 1, 68, 0
3, 75840, Note_on_c, 1, 66, 64
3, 75960, Note_on_c, 1, 66, 0
3, 75960, Note_on_c, 1, 64, 64
3, 76080, Note_on_c, 1, 64, 0
3, 76080, Note_on_c, 1, 66, 64
3, 76200, Note_on_c, 1, 66, 0
3, 76200, Note_on_c, 1, 68, 64
3, 76320, Note_on_c, 1, 68, 0
3, 76320, Note_on_c, 1, 66, 64
3, 76440, Note_on_c, 1, 66, 0
3, 76440, Note_on_c, 1, 64, 64
3, 76560, Note_on_c, 1, 64, 0
3, 76560, Note_on_c, 1, 63, 64
3, 76680, Note_on_c, 1, 63, 0
3, 76680, Note_on_c, 1, 66, 64
3, 76800, Note_on_c, 1, 66, 0
3, 76800, Note_on_c, 1, 64, 64
3, 76920, Note_on_c, 1, 64, 0
3, 76920, Note_on_c, 1, 68, 64
3, 77040, Note_on_c, 1, 68, 0
3, 77040, Note_on_c, 1, 69, 64
3, 77160, Note_on_c, 1, 69, 0
3, 77160, Note_on_c, 1, 71, 64
3, 77280, Note_on_c, 1, 71, 0
3, 77280, Note_on_c, 1, 73, 64
3, 77400, Note_on_c, 1, 73, 0
3, 77400, Note_on_c, 1, 75, 64
3, 77520, Note_on_c, 1, 75, 0
3, 77520, Note_on_c, 1, 72, 64
3, 77640, Note_on_c, 1, 72, 0
3, 77640, Note_on_c, 1, 73, 64
3, 77760, Note_on_c, 1, 73, 0
3, 77760, Note_on_c, 1, 75, 64
3, 78000, Note_on_c, 1, 75, 0
3, 80880, Note_on_c, 1, 66, 64
3, 81120, Note_on_c, 1, 66, 0
3, 81120, Note_on_c, 1, 71, 64
3, 81350, Note_on_c, 1, 71, 0
3, 81360, Note_on_c, 1, 71, 64
3, 81590, Note_on_c, 1, 71, 0
3, 81600, Note_on_c, 1, 71, 64
3, 81840, Note_on_c, 1, 71, 0
3, 81840, Note_on_c, 1, 69, 64
3, 81960, Note_on_c, 1, 69, 0
3, 81960, Note_on_c, 1, 68, 64
3, 82080, Note_on_c, 1, 68, 0
3, 82080, Note_on_c, 1, 69, 64
3, 82560, Note_on_c, 1, 69, 0
3, 82560, Note_on_c, 1, 68, 64
3, 83630, Note_on_c, 1, 68, 0
3, 83640, Note_on_c, 1, 68, 64
3, 83760, Note_on_c, 1, 68, 0
3, 83760, Note_on_c, 1, 66, 64
3, 83880, Note_on_c, 1, 66, 0
3, 83880, Note_on_c, 1, 65, 64
3, 84000, Note_on_c, 1, 65, 0
3, 84000, Note_on_c, 1, 66, 64
3, 84480, Note_on_c, 1, 66, 0
3, 84480, Note_on_c, 1, 68, 64
3, 85070, Note_on_c, 1, 68, 0
3, 85080, Note_on_c, 1, 68, 64
3, 85200, Note_on_c, 1, 68, 0
3, 85200, Note_on_c, 1, 66, 64
3, 85320, Note_on_c, 1, 66, 0
3, 85320, Note_on_c, 1, 64, 64
3, 85440, Note_on_c, 1, 64, 0
3, 85440, Note_on_c, 1, 63, 64
3, 85560, Note_on_c, 1, 63, 0
3, 85560, Note_on_c, 1, 69, 64
3, 85680, Note_on_c, 1, 69, 0
3, 85680, Note_on_c, 1, 68, 64
3, 85800, Note_on_c, 1, 68, 0
3, 85800, Note_on_c, 1, 66, 64
3, 85920, Note_on_c, 1, 66, 0
3, 85920, Note_on_c, 1, 64, 64
3, 86040, Note_on_c, 1, 64, 0
3, 86040, Note_on_c, 1, 68, 64
3, 86160, Note_on_c, 1, 68, 0
3, 86160, Note_on_c, 1, 73, 64
3, 86280, Note_on_c, 1, 73, 0
3, 86280, Note_on_c, 1, 71, 64
3, 86400, Note_on_c, 1, 71, 0
3, 86400, Note_on_c, 1, 69, 64
3, 86520, Note_on_c, 1, 69, 0
3, 86520, Note_on_c, 1, 68, 64
3, 86640, Note_on_c, 1, 68, 0
3, 86640, Note_on_c, 1, 69, 64
3, 86760, Note_on_c, 1, 69, 0
3, 86760, Note_on_c, 1, 66, 64
3, 86880, Note_on_c, 1, 66, 0
3, 86880, Note_on_c, 1, 68, 64
3, 87600, Note_on_c, 1, 68, 0
3, 87720, Note_on_c, 1, 72, 64
3, 87840, Note_on_c, 1, 72, 0
3, 87840, Note_on_c, 1, 73, 64
3, 88560, Note_on_c, 1, 73, 0
3, 88560, Note_on_c, 1, 70, 64
3, 88800, Note_on_c, 1, 70, 0
3, 88800, Note_on_c, 1, 75, 64
3, 89030, Note_on_c, 1, 75, 0
3, 89040, Note_on_c, 1, 75, 64
3, 89270, Note_on_c, 1, 75, 0
3, 89280, Note_on_c, 1, 75, 64
3, 89520, Note_on_c, 1, 75, 0
3, 89520, Note_on_c, 1, 73, 64
3, 89640, Note_on_c, 1, 73, 0
3, 89640, Note_on_c, 1, 71, 64
3, 89760, Note_on_c, 1, 71, 0
3, 89760, Note_on_c, 1, 73, 64
3, 90240, Note_on_c, 1, 73, 0
3, 90240, Note_on_c, 1, 71, 64
3, 90710, Note_on_c, 1, 71, 0
3, 90720, Note_on_c, 1, 71, 64
3, 91200, Note_on_c, 1, 71, 0
3, 91200, Note_on_c, 1, 70, 64
3, 91680, Note_on_c, 1, 70, 0
3, 91680, Note_on_c, 1, 74, 64
3, 92160, Note_on_c, 1, 74, 0
3, 92160, Note_on_c, 1, 73, 64
3, 93120, Note_on_c, 1, 73, 0
3, 93120, Note_on_c, 1, 68, 64
3, 93350, Note_on_c, 1, 68, 0
3, 93360, Note_on_c, 1, 68, 64
3, 93600, Note_on_c, 1, 68, 0
3, 93600, Note_on_c, 1, 73, 64
3, 93830, Note_on_c, 1, 73, 0
3, 93840, Note_on_c, 1, 73, 64
3, 94070, Note_on_c, 1, 73, 0
3, 94080, Note_on_c, 1, 73, 64
3, 94320, Note_on_c, 1, 73, 0
3, 94320, Note_on_c, 1, 72, 64
3, 94440, Note_on_c, 1, 72, 0
3, 94440, Note_on_c, 1, 70, 64
3, 94560, Note_on_c, 1, 70, 0
3, 94560, Note_on_c, 1, 72, 64
3, 94680, Note_on_c, 1, 72, 0
3, 94680, Note_on_c, 1, 73, 64
3, 94800, Note_on_c, 1, 73, 0
3, 94800, Note_on_c, 1, 75, 64
3, 95280, Note_on_c, 1, 75, 0
3, 95280, Note_on_c, 1, 73, 64
3, 95400, Note_on_c, 1, 73, 0
3, 95400, Note_on_c, 1, 72, 64
3, 95520, Note_on_c, 1, 72, 0
3, 95520, Note_on_c, 1, 73, 64
3, 96000, Note_on_c, 1, 73, 0
3, 96000, Note_on_c, 1, 66, 64
3, 96480, Note_on_c, 1, 66, 0
3, 96480, Note_on_c, 1, 68, 64
3, 97440, Note_on_c, 1, 68, 0
3, 97440, Note_on_c, 1, 66, 64
3, 98160, Note_on_c, 1, 66, 0
3, 99120, Note_on_c, 1, 61, 64
3, 99360, Note_on_c, 1, 61, 0
3, 99360, Note_on_c, 1, 66, 64
3, 99590, Note_on_c, 1, 66, 0
3, 99600, Note_on_c, 1, 66, 64
3, 99830, Note_on_c, 1, 66, 0
3, 99840, Note_on_c, 1, 66, 64
3, 100080, Note_on_c, 1, 66, 0
3, 100080, Note_on_c, 1, 64, 64
3, 100200, Note_on_c, 1, 64, 0
3, 100200, Note_on_c, 1, 63, 64
3, 100320, Note_on_c, 1, 63, 0
3, 100320, Note_on_c, 1, 64, 64
3, 101013, Note_on_c, 1, 64, 0
3, 101040, Note_on_c, 1, 66, 64
3, 101160, Note_on_c, 1, 66, 0
3, 101160, Note_on_c, 1, 68, 64
3, 101280, Note_on_c, 1, 68, 0
3, 101280, Note_on_c, 1, 69, 64
3, 101490, Note_on_c, 1, 69, 0
3, 101520, Note_on_c, 1, 68, 64
3, 102000, Note_on_c, 1, 64, 64
3, 102021, Note_on_c, 1, 68, 0
3, 102240, Note_on_c, 1, 64, 0
3, 102240, Note_on_c, 1, 69, 64
3, 102470, Note_on_c, 1, 69, 0
3, 102480, Note_on_c, 1, 69, 64
3, 102710, Note_on_c, 1, 69, 0
3, 102720, Note_on_c, 1, 69, 64
3, 102960, Note_on_c, 1, 69, 0
3, 102960, Note_on_c, 1, 68, 64
3, 103080, Note_on_c, 1, 68, 0
3, 103080, Note_on_c, 1, 66, 64
3, 103200, Note_on_c, 1, 66, 0
3, 103200, Note_on_c, 1, 68, 64
3, 103440, Note_on_c, 1, 68, 0
3, 103440, Note_on_c, 1, 70, 64
3, 103560, Note_on_c, 1, 70, 0
3, 103560, Note_on_c, 1, 72, 64
3, 103680, Note_on_c, 1, 72, 0
3, 103680, Note_on_c, 1, 73, 64
3, 104160, Note_on_c, 1, 73, 0
3, 104160, Note_on_c, 1, 70, 64
3, 104640, Note_on_c, 1, 70, 0
3, 104640, Note_on_c, 1, 68, 64
3, 105110, Note_on_c, 1, 68, 0
3, 105120, Note_on_c, 1, 68, 64
3, 107040, Note_on_c, 1, 68, 0
3, 107040, Note_on_c, 1, 66, 64
3, 107520, Note_on_c, 1, 66, 0
3, 107520, Note_on_c, 1, 65, 64
3, 108000, Note_on_c, 1, 65, 0
3, 108000, Note_on_c, 1, 69, 64
3, 108480, Note_on_c, 1, 69, 0
3, 108480, Note_on_c, 1, 68, 64
3, 110400, Note_on_c, 1, 68, 0
3, 110400, End_track
4, 0, Start_track
4, 0, MIDI_port, 0
4, 0, Title_t, "LH H/RH L"
4, 0, Program_c, 2, 6
4, 6240, Note_on_c, 2, 61, 64
4, 6720, Note_on_c, 2, 61, 0
4, 6720, Note_on_c, 2, 60, 64
4, 7200, Note_on_c, 2, 60, 0
4, 7200, Note_on_c, 2, 64, 64
4, 7680, Note_on_c, 2, 64, 0
4, 7680, Note_on_c, 2, 63, 64
4, 8640, Note_on_c, 2, 63, 0
4, 8640, Note_on_c, 2, 61, 64
4, 9120, Note_on_c, 2, 61, 0
4, 9120, Note_on_c, 2, 66, 64
4, 9840, Note_on_c, 2, 66, 0
4, 9840, Note_on_c, 2, 64, 64
4, 10080, Note_on_c, 2, 64, 0
4, 10080, Note_on_c, 2, 63, 64
4, 10320, Note_on_c, 2, 63, 0
4, 10320, Note_on_c, 2, 61, 64
4, 10550, Note_on_c, 2, 61, 0
4, 10560, Note_on_c, 2, 61, 64
4, 11040, Note_on_c, 2, 61, 0
4, 11040, Note_on_c, 2, 59, 64
4, 11520, Note_on_c, 2, 59, 0
4, 11520, Note_on_c, 2, 61, 64
4, 12000, Note_on_c, 2, 61, 0
4, 12000, Note_on_c, 2, 66, 64
4, 12720, Note_on_c, 2, 66, 0
4, 12720, Note_on_c, 2, 64, 64
4, 12960, Note_on_c, 2, 64, 0
4, 12960, Note_on_c, 2, 63, 64
4, 13200, Note_on_c, 2, 63, 0
4, 13200, Note_on_c, 2, 61, 64
4, 13440, Note_on_c, 2, 61, 0
4, 13440, Note_on_c, 2, 63, 64
4, 13920, Note_on_c, 2, 63, 0
4, 13920, Note_on_c, 2, 68, 64
4, 14400, Note_on_c, 2, 68, 0
4, 14640, Note_on_c, 2, 69, 64
4, 14880, Note_on_c, 2, 69, 0
4, 14880, Note_on_c, 2, 68, 64
4, 15120, Note_on_c, 2, 68, 0
4, 15120, Note_on_c, 2, 66, 64
4, 15360, Note_on_c, 2, 66, 0
4, 15360, Note_on_c, 2, 65, 64
4, 15600, Note_on_c, 2, 65, 0
4, 15600, Note_on_c, 2, 61, 64
4, 15840, Note_on_c, 2, 61, 0
4, 15840, Note_on_c, 2, 66, 64
4, 16320, Note_on_c, 2, 66, 0
4, 16320, Note_on_c, 2, 64, 64
4, 17760, Note_on_c, 2, 64, 0
4, 17760, Note_on_c, 2, 66, 64
4, 18000, Note_on_c, 2, 66, 0
4, 18000, Note_on_c, 2, 64, 64
4, 18240, Note_on_c, 2, 64, 0
4, 18240, Note_on_c, 2, 63, 64
4, 18720, Note_on_c, 2, 63, 0
4, 23520, Note_on_c, 2, 61, 64
4, 24000, Note_on_c, 2, 61, 0
4, 24000, Note_on_c, 2, 60, 64
4, 24480, Note_on_c, 2, 60, 0
4, 24480, Note_on_c, 2, 64, 64
4, 24960, Note_on_c, 2, 64, 0
4, 24960, Note_on_c, 2, 63, 64
4, 25920, Note_on_c, 2, 63, 0
4, 25920, Note_on_c, 2, 61, 64
4, 27840, Note_on_c, 2, 61, 0
4, 27840, Note_on_c, 2, 54, 64
4, 28080, Note_on_c, 2, 54, 0
4, 28080, Note_on_c, 2, 56, 64
4, 28320, Note_on_c, 2, 56, 0
4, 28320, Note_on_c, 2, 58, 64
4, 28560, Note_on_c, 2, 58, 0
4, 28560, Note_on_c, 2, 59, 64
4, 28800, Note_on_c, 2, 59, 0
4, 28800, Note_on_c, 2, 61, 64
4, 29760, Note_on_c, 2, 61, 0
4, 30240, Note_on_c, 2, 64, 64
4, 30720, Note_on_c, 2, 64, 0
4, 30720, Note_on_c, 2, 63, 64
4, 31200, Note_on_c, 2, 63, 0
4, 31200, Note_on_c, 2, 68, 64
4, 31680, Note_on_c, 2, 68, 0
4, 31680, Note_on_c, 2, 66, 64
4, 32640, Note_on_c, 2, 66, 0
4, 32640, Note_on_c, 2, 64, 64
4, 33120, Note_on_c, 2, 64, 0
4, 36000, Note_on_c, 2, 68, 64
4, 36480, Note_on_c, 2, 68, 0
4, 36480, Note_on_c, 2, 67, 64
4, 36960, Note_on_c, 2, 67, 0
4, 36960, Note_on_c, 2, 71, 64
4, 37440, Note_on_c, 2, 71, 0
4, 37440, Note_on_c, 2, 70, 64
4, 38640, Note_on_c, 2, 70, 0
4, 38640, Note_on_c, 2, 63, 64
4, 38880, Note_on_c, 2, 63, 0
4, 38880, Note_on_c, 2, 68, 64
4, 39600, Note_on_c, 2, 68, 0
4, 39600, Note_on_c, 2, 66, 64
4, 39720, Note_on_c, 2, 66, 0
4, 39720, Note_on_c, 2, 64, 64
4, 39840, Note_on_c, 2, 64, 0
4, 39840, Note_on_c, 2, 66, 64
4, 40560, Note_on_c, 2, 66, 0
4, 40560, Note_on_c, 2, 64, 64
4, 40680, Note_on_c, 2, 64, 0
4, 40680, Note_on_c, 2, 66, 64
4, 40800, Note_on_c, 2, 66, 0
4, 40800, Note_on_c, 2, 68, 64
4, 43200, Note_on_c, 2, 68, 0
4, 46320, Note_on_c, 2, 61, 64
4, 46560, Note_on_c, 2, 61, 0
4, 46560, Note_on_c, 2, 66, 64
4, 46790, Note_on_c, 2, 66, 0
4, 46800, Note_on_c, 2, 66, 64
4, 47030, Note_on_c, 2, 66, 0
4, 47040, Note_on_c, 2, 66, 64
4, 47280, Note_on_c, 2, 66, 0
4, 47280, Note_on_c, 2, 65, 64
4, 47400, Note_on_c, 2, 65, 0
4, 47400, Note_on_c, 2, 63, 64
4, 47520, Note_on_c, 2, 63, 0
4, 47520, Note_on_c, 2, 65, 64
4, 48000, Note_on_c, 2, 65, 0
4, 48000, Note_on_c, 2, 66, 64
4, 48235, Note_on_c, 2, 66, 0
4, 48240, Note_on_c, 2, 54, 64
4, 48360, Note_on_c, 2, 54, 0
4, 48360, Note_on_c, 2, 56, 64
4, 48480, Note_on_c, 2, 56, 0
4, 48480, Note_on_c, 2, 57, 64
4, 48720, Note_on_c, 2, 57, 0
4, 48720, Note_on_c, 2, 59, 64
4, 48960, Note_on_c, 2, 59, 0
4, 48960, Note_on_c, 2, 61, 64
4, 49080, Note_on_c, 2, 61, 0
4, 49080, Note_on_c, 2, 59, 64
4, 49200, Note_on_c, 2, 59, 0
4, 49200, Note_on_c, 2, 61, 64
4, 49320, Note_on_c, 2, 61, 0
4, 49320, Note_on_c, 2, 62, 64
4, 49440, Note_on_c, 2, 62, 0
4, 49440, Note_on_c, 2, 61, 64
4, 49560, Note_on_c, 2, 61, 0
4, 49560, Note_on_c, 2, 59, 64
4, 49680, Note_on_c, 2, 59, 0
4, 49680, Note_on_c, 2, 57, 64
4, 49800, Note_on_c, 2, 57, 0
4, 49800, Note_on_c, 2, 61, 64
4, 49920, Note_on_c, 2, 61, 0
4, 49920, Note_on_c, 2, 59, 64
4, 50040, Note_on_c, 2, 59, 0
4, 50040, Note_on_c, 2, 57, 64
4, 50160, Note_on_c, 2, 57, 0
4, 50160, Note_on_c, 2, 59, 64
4, 50280, Note_on_c, 2, 59, 0
4, 50280, Note_on_c, 2, 61, 64
4, 50400, Note_on_c, 2, 61, 0
4, 50400, Note_on_c, 2, 59, 64
4, 50520, Note_on_c, 2, 59, 0
4, 50520, Note_on_c, 2, 57, 64
4, 50640, Note_on_c, 2, 57, 0
4, 50640, Note_on_c, 2, 56, 64
4, 50760, Note_on_c, 2, 56, 0
4, 50760, Note_on_c, 2, 59, 64
4, 50880, Note_on_c, 2, 59, 0
4, 50880, Note_on_c, 2, 57, 64
4, 51000, Note_on_c, 2, 57, 0
4, 51000, Note_on_c, 2, 56, 64
4, 51120, Note_on_c, 2, 56, 0
4, 51120, Note_on_c, 2, 57, 64
4, 51240, Note_on_c, 2, 57, 0
4, 51240, Note_on_c, 2, 59, 64
4, 51360, Note_on_c, 2, 59, 0
4, 51360, Note_on_c, 2, 57, 64
4, 51480, Note_on_c, 2, 57, 0
4, 51480, Note_on_c, 2, 59, 64
4, 51600, Note_on_c, 2, 59, 0
4, 51600, Note_on_c, 2, 61, 64
4, 51720, Note_on_c, 2, 61, 0
4, 51720, Note_on_c, 2, 62, 64
4, 51840, Note_on_c, 2, 62, 0
4, 51840, Note_on_c, 2, 64, 64
4, 51960, Note_on_c, 2, 64, 0
4, 51960, Note_on_c, 2, 62, 64
4, 52080, Note_on_c, 2, 62, 0
4, 52080, Note_on_c, 2, 64, 64
4, 52200, Note_on_c, 2, 64, 0
4, 52200, Note_on_c, 2, 66, 64
4, 52320, Note_on_c, 2, 66, 0
4, 52320, Note_on_c, 2, 64, 64
4, 52440, Note_on_c, 2, 64, 0
4, 52440, Note_on_c, 2, 62, 64
4, 52560, Note_on_c, 2, 62, 0
4, 52560, Note_on_c, 2, 61, 64
4, 52680, Note_on_c, 2, 61, 0
4, 52680, Note_on_c, 2, 64, 64
4, 52800, Note_on_c, 2, 64, 0
4, 52800, Note_on_c, 2, 62, 64
4, 52920, Note_on_c, 2, 62, 0
4, 52920, Note_on_c, 2, 61, 64
4, 53040, Note_on_c, 2, 61, 0
4, 53040, Note_on_c, 2, 62, 64
4, 53160, Note_on_c, 2, 62, 0
4, 53160, Note_on_c, 2, 64, 64
4, 53280, Note_on_c, 2, 64, 0
4, 53280, Note_on_c, 2, 62, 64
4, 53400, Note_on_c, 2, 62, 0
4, 53400, Note_on_c, 2, 61, 64
4, 53520, Note_on_c, 2, 61, 0
4, 53520, Note_on_c, 2, 59, 64
4, 53640, Note_on_c, 2, 59, 0
4, 53640, Note_on_c, 2, 62, 64
4, 53760, Note_on_c, 2, 62, 0
4, 53760, Note_on_c, 2, 61, 64
4, 53880, Note_on_c, 2, 61, 0
4, 53880, Note_on_c, 2, 59, 64
4, 54000, Note_on_c, 2, 59, 0
4, 54000, Note_on_c, 2, 61, 64
4, 54120, Note_on_c, 2, 61, 0
4, 54120, Note_on_c, 2, 62, 64
4, 54240, Note_on_c, 2, 62, 0
4, 54240, Note_on_c, 2, 61, 64
4, 54360, Note_on_c, 2, 61, 0
4, 54360, Note_on_c, 2, 59, 64
4, 54480, Note_on_c, 2, 59, 0
4, 54480, Note_on_c, 2, 57, 64
4, 54600, Note_on_c, 2, 57, 0
4, 54600, Note_on_c, 2, 61, 64
4, 54720, Note_on_c, 2, 61, 0
4, 54720, Note_on_c, 2, 59, 64
4, 55680, Note_on_c, 2, 59, 0
4, 55680, Note_on_c, 2, 57, 64
4, 55800, Note_on_c, 2, 57, 0
4, 55800, Note_on_c, 2, 56, 64
4, 55920, Note_on_c, 2, 56, 0
4, 55920, Note_on_c, 2, 54, 64
4, 56040, Note_on_c, 2, 54, 0
4, 56040, Note_on_c, 2, 52, 64
4, 56160, Note_on_c, 2, 52, 0
4, 56160, Note_on_c, 2, 51, 64
4, 56280, Note_on_c, 2, 51, 0
4, 56280, Note_on_c, 2, 49, 64
4, 56400, Note_on_c, 2, 49, 0
4, 56400, Note_on_c, 2, 48, 64
4, 56520, Note_on_c, 2, 48, 0
4, 56520, Note_on_c, 2, 49, 64
4, 56640, Note_on_c, 2, 49, 0
4, 56640, Note_on_c, 2, 51, 64
4, 57120, Note_on_c, 2, 51, 0
4, 60720, Note_on_c, 2, 49, 64
4, 60960, Note_on_c, 2, 49, 0
4, 60960, Note_on_c, 2, 54, 64
4, 61190, Note_on_c, 2, 54, 0
4, 61200, Note_on_c, 2, 54, 64
4, 61430, Note_on_c, 2, 54, 0
4, 61440, Note_on_c, 2, 56, 64
4, 62400, Note_on_c, 2, 56, 0
4, 62400, Note_on_c, 2, 55, 64
4, 62880, Note_on_c, 2, 55, 0
4, 62880, Note_on_c, 2, 56, 64
4, 63360, Note_on_c, 2, 56, 0
4, 63360, Note_on_c, 2, 53, 64
4, 63600, Note_on_c, 2, 53, 0
4, 69720, Note_on_c, 2, 63, 64
4, 69840, Note_on_c, 2, 63, 0
4, 69840, Note_on_c, 2, 64, 64
4, 69960, Note_on_c, 2, 64, 0
4, 69960, Note_on_c, 2, 66, 64
4, 70080, Note_on_c, 2, 66, 0
4, 70080, Note_on_c, 2, 68, 64
4, 70200, Note_on_c, 2, 68, 0
4, 70200, Note_on_c, 2, 66, 64
4, 70320, Note_on_c, 2, 66, 0
4, 70320, Note_on_c, 2, 68, 64
4, 70440, Note_on_c, 2, 68, 0
4, 70440, Note_on_c, 2, 69, 64
4, 70560, Note_on_c, 2, 69, 0
4, 70560, Note_on_c, 2, 68, 64
4, 70680, Note_on_c, 2, 68, 0
4, 70680, Note_on_c, 2, 66, 64
4, 70800, Note_on_c, 2, 66, 0
4, 70800, Note_on_c, 2, 64, 64
4, 70920, Note_on_c, 2, 64, 0
4, 70920, Note_on_c, 2, 68, 64
4, 71040, Note_on_c, 2, 68, 0
4, 71040, Note_on_c, 2, 66, 64
4, 71160, Note_on_c, 2, 66, 0
4, 71160, Note_on_c, 2, 64, 64
4, 71280, Note_on_c, 2, 64, 0
4, 71280, Note_on_c, 2, 66, 64
4, 71400, Note_on_c, 2, 66, 0
4, 71400, Note_on_c, 2, 68, 64
4, 71520, Note_on_c, 2, 68, 0
4, 71520, Note_on_c, 2, 66, 64
4, 71640, Note_on_c, 2, 66, 0
4, 71640, Note_on_c, 2, 64, 64
4, 71760, Note_on_c, 2, 64, 0
4, 71760, Note_on_c, 2, 63, 64
4, 71880, Note_on_c, 2, 63, 0
4, 71880, Note_on_c, 2, 66, 64
4, 72000, Note_on_c, 2, 66, 0
4, 72000, Note_on_c, 2, 64, 64
4, 72120, Note_on_c, 2, 64, 0
4, 72120, Note_on_c, 2, 63, 64
4, 72240, Note_on_c, 2, 63, 0
4, 72240, Note_on_c, 2, 64, 64
4, 72360, Note_on_c, 2, 64, 0
4, 72360, Note_on_c, 2, 66, 64
4, 72480, Note_on_c, 2, 66, 0
4, 72480, Note_on_c, 2, 64, 64
4, 72600, Note_on_c, 2, 64, 0
4, 72600, Note_on_c, 2, 63, 64
4, 72720, Note_on_c, 2, 63, 0
4, 72720, Note_on_c, 2, 61, 64
4, 72840, Note_on_c, 2, 61, 0
4, 72840, Note_on_c, 2, 64, 64
4, 72960, Note_on_c, 2, 64, 0
4, 72960, Note_on_c, 2, 63, 64
4, 73200, Note_on_c, 2, 63, 0
4, 78000, Note_on_c, 2, 56, 64
4, 78240, Note_on_c, 2, 56, 0
4, 78240, Note_on_c, 2, 61, 64
4, 78470, Note_on_c, 2, 61, 0
4, 78480, Note_on_c, 2, 61, 64
4, 78710, Note_on_c, 2, 61, 0
4, 78720, Note_on_c, 2, 61, 64
4, 78960, Note_on_c, 2, 61, 0
4, 78960, Note_on_c, 2, 60, 64
4, 79080, Note_on_c, 2, 60, 0
4, 79080, Note_on_c, 2, 58, 64
4, 79200, Note_on_c, 2, 58, 0
4, 79200, Note_on_c, 2, 60, 64
4, 79680, Note_on_c, 2, 60, 0
4, 79680, Note_on_c, 2, 61, 64
4, 80640, Note_on_c, 2, 61, 0
4, 80640, Note_on_c, 2, 59, 64
4, 81360, Note_on_c, 2, 59, 0
4, 81360, Note_on_c, 2, 66, 64
4, 81600, Note_on_c, 2, 66, 0
4, 81600, Note_on_c, 2, 65, 64
4, 82080, Note_on_c, 2, 65, 0
4, 82080, Note_on_c, 2, 66, 64
4, 82560, Note_on_c, 2, 66, 0
4, 82560, Note_on_c, 2, 59, 64
4, 83040, Note_on_c, 2, 59, 0
4, 83040, Note_on_c, 2, 61, 64
4, 84110, Note_on_c, 2, 61, 0
4, 84120, Note_on_c, 2, 61, 64
4, 84240, Note_on_c, 2, 61, 0
4, 84240, Note_on_c, 2, 59, 64
4, 84360, Note_on_c, 2, 59, 0
4, 84360, Note_on_c, 2, 57, 64
4, 84480, Note_on_c, 2, 57, 0
4, 84480, Note_on_c, 2, 56, 64
4, 85440, Note_on_c, 2, 56, 0
4, 90480, Note_on_c, 2, 59, 64
4, 90720, Note_on_c, 2, 59, 0
4, 90720, Note_on_c, 2, 64, 64
4, 90950, Note_on_c, 2, 64, 0
4, 90960, Note_on_c, 2, 64, 64
4, 91190, Note_on_c, 2, 64, 0
4, 91200, Note_on_c, 2, 64, 64
4, 91440, Note_on_c, 2, 64, 0
4, 91440, Note_on_c, 2, 62, 64
4, 91560, Note_on_c, 2, 62, 0
4, 91560, Note_on_c, 2, 61, 64
4, 91680, Note_on_c, 2, 61, 0
4, 91680, Note_on_c, 2, 59, 64
4, 91920, Note_on_c, 2, 59, 0
4, 92400, Note_on_c, 2, 61, 64
4, 92640, Note_on_c, 2, 61, 0
4, 92640, Note_on_c, 2, 66, 64
4, 92870, Note_on_c, 2, 66, 0
4, 92880, Note_on_c, 2, 66, 64
4, 93110, Note_on_c, 2, 66, 0
4, 93120, Note_on_c, 2, 66, 64
4, 93360, Note_on_c, 2, 66, 0
4, 93360, Note_on_c, 2, 64, 64
4, 93480, Note_on_c, 2, 64, 0
4, 93480, Note_on_c, 2, 63, 64
4, 93600, Note_on_c, 2, 63, 0
4, 93600, Note_on_c, 2, 64, 64
4, 94080, Note_on_c, 2, 64, 0
4, 94080, Note_on_c, 2, 66, 64
4, 94790, Note_on_c, 2, 66, 0
4, 94800, Note_on_c, 2, 66, 64
4, 94920, Note_on_c, 2, 66, 0
4, 94920, Note_on_c, 2, 68, 64
4, 95040, Note_on_c, 2, 68, 0
4, 95040, Note_on_c, 2, 69, 64
4, 95280, Note_on_c, 2, 69, 0
4, 95280, Note_on_c, 2, 68, 64
4, 95400, Note_on_c, 2, 68, 0
4, 95400, Note_on_c, 2, 66, 64
4, 95520, Note_on_c, 2, 66, 0
4, 95520, Note_on_c, 2, 68, 64
4, 95760, Note_on_c, 2, 68, 0
4, 95760, Note_on_c, 2, 66, 64
4, 95880, Note_on_c, 2, 66, 0
4, 95880, Note_on_c, 2, 64, 64
4, 96000, Note_on_c, 2, 64, 0
4, 96000, Note_on_c, 2, 63, 64
4, 96480, Note_on_c, 2, 63, 0
4, 96480, Note_on_c, 2, 64, 64
4, 97440, Note_on_c, 2, 64, 0
4, 97440, Note_on_c, 2, 63, 64
4, 97680, Note_on_c, 2, 63, 0
4, 97680, Note_on_c, 2, 61, 64
4, 97920, Note_on_c, 2, 61, 0
4, 97920, Note_on_c, 2, 63, 64
4, 98160, Note_on_c, 2, 63, 0
4, 98160, Note_on_c, 2, 65, 64
4, 98280, Note_on_c, 2, 65, 0
4, 98280, Note_on_c, 2, 66, 64
4, 98400, Note_on_c, 2, 66, 0
4, 98400, Note_on_c, 2, 68, 64
4, 98640, Note_on_c, 2, 68, 0
4, 98640, Note_on_c, 2, 68, 64
4, 98880, Note_on_c, 2, 68, 0
4, 98880, Note_on_c, 2, 68, 64
4, 99120, Note_on_c, 2, 68, 0
4, 99120, Note_on_c, 2, 66, 64
4, 99240, Note_on_c, 2, 66, 0
4, 99240, Note_on_c, 2, 64, 64
4, 99360, Note_on_c, 2, 64, 0
4, 99360, Note_on_c, 2, 63, 64
4, 99600, Note_on_c, 2, 63, 0
4, 99600, Note_on_c, 2, 61, 64
4, 99840, Note_on_c, 2, 61, 0
4, 99840, Note_on_c, 2, 60, 64
4, 100320, Note_on_c, 2, 60, 0
4, 100320, Note_on_c, 2, 61, 64
4, 101280, Note_on_c, 2, 61, 0
4, 101280, Note_on_c, 2, 63, 64
4, 101760, Note_on_c, 2, 63, 0
4, 101760, Note_on_c, 2, 61, 64
4, 101990, Note_on_c, 2, 61, 0
4, 102000, Note_on_c, 2, 61, 64
4, 102240, Note_on_c, 2, 61, 0
4, 102240, Note_on_c, 2, 66, 64
4, 102470, Note_on_c, 2, 66, 0
4, 102480, Note_on_c, 2, 66, 64
4, 102710, Note_on_c, 2, 66, 0
4, 102720, Note_on_c, 2, 66, 64
4, 102960, Note_on_c, 2, 66, 0
4, 102960, Note_on_c, 2, 64, 64
4, 103080, Note_on_c, 2, 64, 0
4, 103080, Note_on_c, 2, 63, 64
4, 103200, Note_on_c, 2, 63, 0
4, 103200, Note_on_c, 2, 64, 64
4, 103440, Note_on_c, 2, 64, 0
4, 103440, Note_on_c, 2, 66, 64
4, 103560, Note_on_c, 2, 66, 0
4, 103560, Note_on_c, 2, 68, 64
4, 103680, Note_on_c, 2, 68, 0
4, 103680, Note_on_c, 2, 70, 64
4, 104123, Note_on_c, 2, 70, 0
4, 104160, Note_on_c, 2, 63, 64
4, 105120, Note_on_c, 2, 63, 0
4, 105120, Note_on_c, 2, 64, 64
4, 105600, Note_on_c, 2, 64, 0
4, 105600, Note_on_c, 2, 63, 64
4, 106320, Note_on_c, 2, 63, 0
4, 106320, Note_on_c, 2, 64, 64
4, 106440, Note_on_c, 2, 64, 0
4, 106440, Note_on_c, 2, 66, 64
4, 106560, Note_on_c, 2, 66, 0
4, 106560, Note_on_c, 2, 65, 64
4, 106800, Note_on_c, 2, 65, 0
4, 106800, Note_on_c, 2, 61, 64
4, 107750, Note_on_c, 2, 61, 0
4, 107760, Note_on_c, 2, 61, 64
4, 108000, Note_on_c, 2, 61, 0
4, 108000, Note_on_c, 2, 66, 64
4, 108230, Note_on_c, 2, 66, 0
4, 108240, Note_on_c, 2, 66, 64
4, 108470, Note_on_c, 2, 66, 0
4, 108480, Note_on_c, 2, 66, 64
4, 108925, Note_on_c, 2, 66, 0
4, 108960, Note_on_c, 2, 65, 64
4, 109200, Note_on_c, 2, 65, 0
4, 109200, Note_on_c, 2, 63, 64
4, 109440, Note_on_c, 2, 63, 0
4, 109440, Note_on_c, 2, 65, 64
4, 110400, Note_on_c, 2, 65, 0
4, 110400, End_track
5, 0, Start_track
5, 0, MIDI_port, 0
5, 0, Title_t, "LH M"
5, 0, Program_c, 3, 6
5, 2880, Note_on_c, 3, 56, 64
5, 3840, Note_on_c, 3, 56, 0
5, 3840, Note_on_c, 3, 55, 64
5, 4320, Note_on_c, 3, 55, 0
5, 4320, Note_on_c, 3, 59, 64
5, 4800, Note_on_c, 3, 59, 0
5, 4800, Note_on_c, 3, 58, 64
5, 5760, Note_on_c, 3, 58, 0
5, 5760, Note_on_c, 3, 56, 64
5, 6240, Note_on_c, 3, 56, 0
5, 6240, Note_on_c, 3, 57, 64
5, 6960, Note_on_c, 3, 57, 0
5, 6960, Note_on_c, 3, 56, 64
5, 7080, Note_on_c, 3, 56, 0
5, 7080, Note_on_c, 3, 54, 64
5, 7200, Note_on_c, 3, 54, 0
5, 7200, Note_on_c, 3, 56, 64
5, 7440, Note_on_c, 3, 56, 0
5, 7440, Note_on_c, 3, 61, 64
5, 7680, Note_on_c, 3, 61, 0
5, 7680, Note_on_c, 3, 54, 64
5, 7920, Note_on_c, 3, 54, 0
5, 7920, Note_on_c, 3, 56, 64
5, 8040, Note_on_c, 3, 56, 0
5, 8040, Note_on_c, 3, 57, 64
5, 8160, Note_on_c, 3, 57, 0
5, 8160, Note_on_c, 3, 59, 64
5, 8880, Note_on_c, 3, 59, 0
5, 8880, Note_on_c, 3, 57, 64
5, 9120, Note_on_c, 3, 57, 0
5, 9120, Note_on_c, 3, 56, 64
5, 9360, Note_on_c, 3, 56, 0
5, 9360, Note_on_c, 3, 54, 64
5, 9600, Note_on_c, 3, 54, 0
5, 9600, Note_on_c, 3, 56, 64
5, 10080, Note_on_c, 3, 56, 0
5, 10080, Note_on_c, 3, 54, 64
5, 10320, Note_on_c, 3, 54, 0
5, 10320, Note_on_c, 3, 52, 64
5, 10560, Note_on_c, 3, 52, 0
5, 10560, Note_on_c, 3, 51, 64
5, 11280, Note_on_c, 3, 51, 0
5, 11280, Note_on_c, 3, 50, 64
5, 11520, Note_on_c, 3, 50, 0
5, 11520, Note_on_c, 3, 49, 64
5, 13440, Note_on_c, 3, 49, 0
5, 17760, Note_on_c, 3, 56, 64
5, 18240, Note_on_c, 3, 56, 0
5, 18240, Note_on_c, 3, 55, 64
5, 18720, Note_on_c, 3, 55, 0
5, 18720, Note_on_c, 3, 59, 64
5, 19200, Note_on_c, 3, 59, 0
5, 19200, Note_on_c, 3, 58, 64
5, 20160, Note_on_c, 3, 58, 0
5, 20160, Note_on_c, 3, 56, 64
5, 20400, Note_on_c, 3, 56, 0
5, 20400, Note_on_c, 3, 57, 64
5, 20640, Note_on_c, 3, 57, 0
5, 20640, Note_on_c, 3, 56, 64
5, 20880, Note_on_c, 3, 56, 0
5, 20880, Note_on_c, 3, 54, 64
5, 21120, Note_on_c, 3, 54, 0
5, 21120, Note_on_c, 3, 53, 64
5, 21600, Note_on_c, 3, 53, 0
5, 21600, Note_on_c, 3, 57, 64
5, 22080, Note_on_c, 3, 57, 0
5, 22080, Note_on_c, 3, 56, 64
5, 23040, Note_on_c, 3, 56, 0
5, 23040, Note_on_c, 3, 54, 64
5, 24240, Note_on_c, 3, 54, 0
5, 24240, Note_on_c, 3, 56, 64
5, 24360, Note_on_c, 3, 56, 0
5, 24360, Note_on_c, 3, 54, 64
5, 24480, Note_on_c, 3, 54, 0
5, 24480, Note_on_c, 3, 52, 64
5, 24720, Note_on_c, 3, 52, 0
5, 24720, Note_on_c, 3, 54, 64
5, 24840, Note_on_c, 3, 54, 0
5, 24840, Note_on_c, 3, 56, 64
5, 24960, Note_on_c, 3, 56, 0
5, 24960, Note_on_c, 3, 57, 64
5, 25200, Note_on_c, 3, 57, 0
5, 25200, Note_on_c, 3, 54, 64
5, 25440, Note_on_c, 3, 54, 0
5, 25440, Note_on_c, 3, 56, 64
5, 25920, Note_on_c, 3, 56, 0
5, 25920, Note_on_c, 3, 49, 64
5, 28320, Note_on_c, 3, 49, 0
5, 28320, Note_on_c, 3, 54, 64
5, 28800, Note_on_c, 3, 54, 0
5, 28800, Note_on_c, 3, 52, 64
5, 29040, Note_on_c, 3, 52, 0
5, 29040, Note_on_c, 3, 51, 64
5, 29280, Note_on_c, 3, 51, 0
5, 29280, Note_on_c, 3, 52, 64
5, 29520, Note_on_c, 3, 52, 0
5, 29520, Note_on_c, 3, 54, 64
5, 29760, Note_on_c, 3, 54, 0
5, 29760, Note_on_c, 3, 56, 64
5, 30000, Note_on_c, 3, 56, 0
5, 30000, Note_on_c, 3, 54, 64
5, 30240, Note_on_c, 3, 54, 0
5, 30240, Note_on_c, 3, 56, 64
5, 30480, Note_on_c, 3, 56, 0
5, 30480, Note_on_c, 3, 57, 64
5, 30720, Note_on_c, 3, 57, 0
5, 30720, Note_on_c, 3, 59, 64
5, 33120, Note_on_c, 3, 59, 0
5, 33120, Note_on_c, 3, 61, 64
5, 33600, Note_on_c, 3, 61, 0
5, 33600, Note_on_c, 3, 60, 64
5, 34080, Note_on_c, 3, 60, 0
5, 34080, Note_on_c, 3, 64, 64
5, 34560, Note_on_c, 3, 64, 0
5, 34560, Note_on_c, 3, 63, 64
5, 35520, Note_on_c, 3, 63, 0
5, 35520, Note_on_c, 3, 61, 64
5, 36720, Note_on_c, 3, 61, 0
5, 36720, Note_on_c, 3, 59, 64
5, 36960, Note_on_c, 3, 59, 0
5, 36960, Note_on_c, 3, 58, 64
5, 37200, Note_on_c, 3, 58, 0
5, 37200, Note_on_c, 3, 56, 64
5, 37680, Note_on_c, 3, 56, 0
5, 37680, Note_on_c, 3, 55, 64
5, 37800, Note_on_c, 3, 55, 0
5, 37800, Note_on_c, 3, 53, 64
5, 37920, Note_on_c, 3, 53, 0
5, 37920, Note_on_c, 3, 55, 64
5, 38400, Note_on_c, 3, 55, 0
5, 38400, Note_on_c, 3, 56, 64
5, 38520, Note_on_c, 3, 56, 0
5, 38520, Note_on_c, 3, 58, 64
5, 38640, Note_on_c, 3, 58, 0
5, 38640, Note_on_c, 3, 56, 64
5, 38760, Note_on_c, 3, 56, 0
5, 38760, Note_on_c, 3, 55, 64
5, 38880, Note_on_c, 3, 55, 0
5, 38880, Note_on_c, 3, 56, 64
5, 39000, Note_on_c, 3, 56, 0
5, 39000, Note_on_c, 3, 58, 64
5, 39120, Note_on_c, 3, 58, 0
5, 39120, Note_on_c, 3, 59, 64
5, 39240, Note_on_c, 3, 59, 0
5, 39240, Note_on_c, 3, 56, 64
5, 39360, Note_on_c, 3, 56, 0
5, 39360, Note_on_c, 3, 57, 64
5, 39480, Note_on_c, 3, 57, 0
5, 39480, Note_on_c, 3, 59, 64
5, 39600, Note_on_c, 3, 59, 0
5, 39600, Note_on_c, 3, 57, 64
5, 39720, Note_on_c, 3, 57, 0
5, 39720, Note_on_c, 3, 56, 64
5, 39840, Note_on_c, 3, 56, 0
5, 39840, Note_on_c, 3, 58, 64
5, 39960, Note_on_c, 3, 58, 0
5, 39960, Note_on_c, 3, 59, 64
5, 40080, Note_on_c, 3, 59, 0
5, 40080, Note_on_c, 3, 61, 64
5, 40200, Note_on_c, 3, 61, 0
5, 40200, Note_on_c, 3, 58, 64
5, 40320, Note_on_c, 3, 58, 0
5, 40320, Note_on_c, 3, 59, 64
5, 40440, Note_on_c, 3, 59, 0
5, 40440, Note_on_c, 3, 61, 64
5, 40560, Note_on_c, 3, 61, 0
5, 40560, Note_on_c, 3, 59, 64
5, 40680, Note_on_c, 3, 59, 0
5, 40680, Note_on_c, 3, 58, 64
5, 40800, Note_on_c, 3, 58, 0
5, 40800, Note_on_c, 3, 60, 64
5, 40920, Note_on_c, 3, 60, 0
5, 40920, Note_on_c, 3, 61, 64
5, 41040, Note_on_c, 3, 61, 0
5, 41040, Note_on_c, 3, 63, 64
5, 41160, Note_on_c, 3, 63, 0
5, 41160, Note_on_c, 3, 60, 64
5, 41280, Note_on_c, 3, 60, 0
5, 41280, Note_on_c, 3, 61, 64
5, 42240, Note_on_c, 3, 61, 0
5, 48480, Note_on_c, 3, 54, 64
5, 48960, Note_on_c, 3, 54, 0
5, 48960, Note_on_c, 3, 53, 64
5, 49440, Note_on_c, 3, 53, 0
5, 49440, Note_on_c, 3, 57, 64
5, 49920, Note_on_c, 3, 57, 0
5, 49920, Note_on_c, 3, 56, 64
5, 50880, Note_on_c, 3, 56, 0
5, 50880, Note_on_c, 3, 54, 64
5, 51840, Note_on_c, 3, 54, 0
5, 56880, Note_on_c, 3, 56, 64
5, 57120, Note_on_c, 3, 56, 0
5, 57120, Note_on_c, 3, 61, 64
5, 57350, Note_on_c, 3, 61, 0
5, 57360, Note_on_c, 3, 61, 64
5, 57590, Note_on_c, 3, 61, 0
5, 57600, Note_on_c, 3, 61, 64
5, 57840, Note_on_c, 3, 61, 0
5, 57840, Note_on_c, 3, 60, 64
5, 57960, Note_on_c, 3, 60, 0
5, 57960, Note_on_c, 3, 58, 64
5, 58080, Note_on_c, 3, 58, 0
5, 58080, Note_on_c, 3, 60, 64
5, 58560, Note_on_c, 3, 60, 0
5, 58560, Note_on_c, 3, 61, 64
5, 59040, Note_on_c, 3, 61, 0
5, 59040, Note_on_c, 3, 57, 64
5, 59520, Note_on_c, 3, 57, 0
5, 59520, Note_on_c, 3, 54, 64
5, 60000, Note_on_c, 3, 54, 0
5, 60000, Note_on_c, 3, 56, 64
5, 60480, Note_on_c, 3, 56, 0
5, 60480, Note_on_c, 3, 53, 64
5, 60960, Note_on_c, 3, 53, 0
5, 60960, Note_on_c, 3, 54, 64
5, 61430, Note_on_c, 3, 54, 0
5, 61440, Note_on_c, 3, 54, 64
5, 61680, Note_on_c, 3, 54, 0
5, 61680, Note_on_c, 3, 52, 64
5, 61800, Note_on_c, 3, 52, 0
5, 61800, Note_on_c, 3, 50, 64
5, 61920, Note_on_c, 3, 50, 0
5, 61920, Note_on_c, 3, 52, 64
5, 62400, Note_on_c, 3, 52, 0
5, 62400, Note_on_c, 3, 51, 64
5, 63360, Note_on_c, 3, 51, 0
5, 65520, Note_on_c, 3, 51, 64
5, 65760, Note_on_c, 3, 51, 0
5, 65760, Note_on_c, 3, 56, 64
5, 65990, Note_on_c, 3, 56, 0
5, 66000, Note_on_c, 3, 56, 64
5, 66230, Note_on_c, 3, 56, 0
5, 66240, Note_on_c, 3, 56, 64
5, 66480, Note_on_c, 3, 56, 0
5, 66480, Note_on_c, 3, 54, 64
5, 66600, Note_on_c, 3, 54, 0
5, 66600, Note_on_c, 3, 52, 64
5, 66720, Note_on_c, 3, 52, 0
5, 66720, Note_on_c, 3, 54, 64
5, 67320, Note_on_c, 3, 54, 0
5, 67320, Note_on_c, 3, 57, 64
5, 67440, Note_on_c, 3, 57, 0
5, 67440, Note_on_c, 3, 56, 64
5, 67560, Note_on_c, 3, 56, 0
5, 67560, Note_on_c, 3, 54, 64
5, 67680, Note_on_c, 3, 54, 0
5, 67680, Note_on_c, 3, 53, 64
5, 67800, Note_on_c, 3, 53, 0
5, 67800, Note_on_c, 3, 51, 64
5, 67920, Note_on_c, 3, 51, 0
5, 67920, Note_on_c, 3, 53, 64
5, 68040, Note_on_c, 3, 53, 0
5, 68040, Note_on_c, 3, 49, 64
5, 68160, Note_on_c, 3, 49, 0
5, 68160, Note_on_c, 3, 54, 64
5, 68280, Note_on_c, 3, 54, 0
5, 68280, Note_on_c, 3, 53, 64
5, 68400, Note_on_c, 3, 53, 0
5, 68400, Note_on_c, 3, 54, 64
5, 68520, Note_on_c, 3, 54, 0
5, 68520, Note_on_c, 3, 56, 64
5, 68640, Note_on_c, 3, 56, 0
5, 68640, Note_on_c, 3, 57, 64
5, 68760, Note_on_c, 3, 57, 0
5, 68760, Note_on_c, 3, 56, 64
5, 68880, Note_on_c, 3, 56, 0
5, 68880, Note_on_c, 3, 57, 64
5, 69000, Note_on_c, 3, 57, 0
5, 69000, Note_on_c, 3, 59, 64
5, 69120, Note_on_c, 3, 59, 0
5, 69120, Note_on_c, 3, 61, 64
5, 69240, Note_on_c, 3, 61, 0
5, 69240, Note_on_c, 3, 60, 64
5, 69360, Note_on_c, 3, 60, 0
5, 69360, Note_on_c, 3, 61, 64
5, 69480, Note_on_c, 3, 61, 0
5, 69480, Note_on_c, 3, 63, 64
5, 69600, Note_on_c, 3, 63, 0
5, 70320, Note_on_c, 3, 44, 64
5, 70560, Note_on_c, 3, 44, 0
5, 70560, Note_on_c, 3, 49, 64
5, 70790, Note_on_c, 3, 49, 0
5, 70800, Note_on_c, 3, 49, 64
5, 71030, Note_on_c, 3, 49, 0
5, 71040, Note_on_c, 3, 49, 64
5, 71280, Note_on_c, 3, 49, 0
5, 71280, Note_on_c, 3, 48, 64
5, 71400, Note_on_c, 3, 48, 0
5, 71400, Note_on_c, 3, 46, 64
5, 71520, Note_on_c, 3, 46, 0
5, 71520, Note_on_c, 3, 48, 64
5, 72000, Note_on_c, 3, 48, 0
5, 72000, Note_on_c, 3, 49, 64
5, 72480, Note_on_c, 3, 49, 0
5, 76800, Note_on_c, 3, 49, 64
5, 77760, Note_on_c, 3, 49, 0
5, 77760, Note_on_c, 3, 48, 64
5, 78240, Note_on_c, 3, 48, 0
5, 78240, Note_on_c, 3, 52, 64
5, 78720, Note_on_c, 3, 52, 0
5, 78720, Note_on_c, 3, 51, 64
5, 79680, Note_on_c, 3, 51, 0
5, 79680, Note_on_c, 3, 49, 64
5, 79920, Note_on_c, 3, 49, 0
5, 79920, Note_on_c, 3, 52, 64
5, 80160, Note_on_c, 3, 52, 0
5, 80160, Note_on_c, 3, 57, 64
5, 80390, Note_on_c, 3, 57, 0
5, 80400, Note_on_c, 3, 57, 64
5, 80630, Note_on_c, 3, 57, 0
5, 80640, Note_on_c, 3, 57, 64
5, 80880, Note_on_c, 3, 57, 0
5, 80880, Note_on_c, 3, 56, 64
5, 81000, Note_on_c, 3, 56, 0
5, 81000, Note_on_c, 3, 54, 64
5, 81120, Note_on_c, 3, 54, 0
5, 81120, Note_on_c, 3, 56, 64
5, 82080, Note_on_c, 3, 56, 0
5, 82080, Note_on_c, 3, 54, 64
5, 82560, Note_on_c, 3, 54, 0
5, 82560, Note_on_c, 3, 56, 64
5, 83520, Note_on_c, 3, 56, 0
5, 83520, Note_on_c, 3, 57, 64
5, 84000, Note_on_c, 3, 57, 0
5, 84000, Note_on_c, 3, 54, 64
5, 84590, Note_on_c, 3, 54, 0
5, 84600, Note_on_c, 3, 54, 64
5, 84720, Note_on_c, 3, 54, 0
5, 84720, Note_on_c, 3, 52, 64
5, 84840, Note_on_c, 3, 52, 0
5, 84840, Note_on_c, 3, 51, 64
5, 84960, Note_on_c, 3, 51, 0
5, 84960, Note_on_c, 3, 52, 64
5, 85200, Note_on_c, 3, 52, 0
5, 85200, Note_on_c, 3, 49, 64
5, 85440, Note_on_c, 3, 49, 0
5, 85440, Note_on_c, 3, 56, 64
5, 86400, Note_on_c, 3, 56, 0
5, 86400, Note_on_c, 3, 54, 64
5, 86880, Note_on_c, 3, 54, 0
5, 86880, Note_on_c, 3, 51, 64
5, 87360, Note_on_c, 3, 51, 0
5, 87360, Note_on_c, 3, 52, 64
5, 87480, Note_on_c, 3, 52, 0
5, 87480, Note_on_c, 3, 51, 64
5, 87600, Note_on_c, 3, 51, 0
5, 87600, Note_on_c, 3, 52, 64
5, 87720, Note_on_c, 3, 52, 0
5, 87720, Note_on_c, 3, 54, 64
5, 87840, Note_on_c, 3, 54, 0
5, 87840, Note_on_c, 3, 52, 64
5, 87960, Note_on_c, 3, 52, 0
5, 87960, Note_on_c, 3, 51, 64
5, 88080, Note_on_c, 3, 51, 0
5, 88080, Note_on_c, 3, 49, 64
5, 88200, Note_on_c, 3, 49, 0
5, 88200, Note_on_c, 3, 52, 64
5, 88320, Note_on_c, 3, 52, 0
5, 88320, Note_on_c, 3, 51, 64
5, 88440, Note_on_c, 3, 51, 0
5, 88440, Note_on_c, 3, 49, 64
5, 88560, Note_on_c, 3, 49, 0
5, 88560, Note_on_c, 3, 51, 64
5, 88680, Note_on_c, 3, 51, 0
5, 88680, Note_on_c, 3, 52, 64
5, 88800, Note_on_c, 3, 52, 0
5, 88800, Note_on_c, 3, 51, 64
5, 88920, Note_on_c, 3, 51, 0
5, 88920, Note_on_c, 3, 49, 64
5, 89040, Note_on_c, 3, 49, 0
5, 89040, Note_on_c, 3, 48, 64
5, 89160, Note_on_c, 3, 48, 0
5, 89160, Note_on_c, 3, 51, 64
5, 89280, Note_on_c, 3, 51, 0
5, 89280, Note_on_c, 3, 49, 64
5, 89520, Note_on_c, 3, 49, 0
5, 91440, Note_on_c, 3, 54, 64
5, 91680, Note_on_c, 3, 54, 0
5, 91680, Note_on_c, 3, 59, 64
5, 91910, Note_on_c, 3, 59, 0
5, 91920, Note_on_c, 3, 59, 64
5, 92150, Note_on_c, 3, 59, 0
5, 92160, Note_on_c, 3, 59, 64
5, 92400, Note_on_c, 3, 59, 0
5, 92400, Note_on_c, 3, 57, 64
5, 92520, Note_on_c, 3, 57, 0
5, 92520, Note_on_c, 3, 56, 64
5, 92640, Note_on_c, 3, 56, 0
5, 92640, Note_on_c, 3, 57, 64
5, 92760, Note_on_c, 3, 57, 0
5, 92760, Note_on_c, 3, 56, 64
5, 92880, Note_on_c, 3, 56, 0
5, 92880, Note_on_c, 3, 54, 64
5, 93000, Note_on_c, 3, 54, 0
5, 93000, Note_on_c, 3, 52, 64
5, 93120, Note_on_c, 3, 52, 0
5, 93120, Note_on_c, 3, 51, 64
5, 93600, Note_on_c, 3, 51, 0
5, 93840, Note_on_c, 3, 56, 64
5, 94080, Note_on_c, 3, 56, 0
5, 94080, Note_on_c, 3, 63, 64
5, 94310, Note_on_c, 3, 63, 0
5, 94320, Note_on_c, 3, 63, 64
5, 94550, Note_on_c, 3, 63, 0
5, 94560, Note_on_c, 3, 63, 64
5, 94800, Note_on_c, 3, 63, 0
5, 94800, Note_on_c, 3, 61, 64
5, 94920, Note_on_c, 3, 61, 0
5, 94920, Note_on_c, 3, 60, 64
5, 95040, Note_on_c, 3, 60, 0
5, 95040, Note_on_c, 3, 61, 64
5, 96000, Note_on_c, 3, 61, 0
5, 96000, Note_on_c, 3, 60, 64
5, 96480, Note_on_c, 3, 60, 0
5, 96480, Note_on_c, 3, 64, 64
5, 97200, Note_on_c, 3, 64, 0
5, 97200, Note_on_c, 3, 49, 64
5, 97440, Note_on_c, 3, 49, 0
5, 97440, Note_on_c, 3, 54, 64
5, 97670, Note_on_c, 3, 54, 0
5, 97680, Note_on_c, 3, 54, 64
5, 97910, Note_on_c, 3, 54, 0
5, 97920, Note_on_c, 3, 54, 64
5, 98160, Note_on_c, 3, 54, 0
5, 98160, Note_on_c, 3, 53, 64
5, 98280, Note_on_c, 3, 53, 0
5, 98280, Note_on_c, 3, 51, 64
5, 98400, Note_on_c, 3, 51, 0
5, 98400, Note_on_c, 3, 49, 64
5, 99360, Note_on_c, 3, 51, 64
5, 99372, Note_on_c, 3, 49, 0
5, 100039, Note_on_c, 3, 51, 0
5, 100080, Note_on_c, 3, 51, 64
5, 100320, Note_on_c, 3, 51, 0
5, 100320, Note_on_c, 3, 56, 64
5, 100550, Note_on_c, 3, 56, 0
5, 100560, Note_on_c, 3, 56, 64
5, 100790, Note_on_c, 3, 56, 0
5, 100800, Note_on_c, 3, 56, 64
5, 101040, Note_on_c, 3, 56, 0
5, 101040, Note_on_c, 3, 54, 64
5, 101160, Note_on_c, 3, 54, 0
5, 101160, Note_on_c, 3, 52, 64
5, 101280, Note_on_c, 3, 52, 0
5, 101280, Note_on_c, 3, 54, 64
5, 101510, Note_on_c, 3, 54, 0
5, 101520, Note_on_c, 3, 54, 64
5, 101750, Note_on_c, 3, 54, 0
5, 101760, Note_on_c, 3, 54, 64
5, 102000, Note_on_c, 3, 54, 0
5, 102000, Note_on_c, 3, 52, 64
5, 102120, Note_on_c, 3, 52, 0
5, 102120, Note_on_c, 3, 51, 64
5, 102240, Note_on_c, 3, 51, 0
5, 102240, Note_on_c, 3, 52, 64
5, 102480, Note_on_c, 3, 52, 0
5, 102480, Note_on_c, 3, 51, 64
5, 102600, Note_on_c, 3, 51, 0
5, 102600, Note_on_c, 3, 49, 64
5, 102720, Note_on_c, 3, 49, 0
5, 102720, Note_on_c, 3, 51, 64
5, 102960, Note_on_c, 3, 51, 0
5, 102960, Note_on_c, 3, 44, 64
5, 103200, Note_on_c, 3, 44, 0
5, 103200, Note_on_c, 3, 49, 64
5, 103430, Note_on_c, 3, 49, 0
5, 103440, Note_on_c, 3, 49, 64
5, 103670, Note_on_c, 3, 49, 0
5, 103680, Note_on_c, 3, 49, 64
5, 103920, Note_on_c, 3, 49, 0
5, 103920, Note_on_c, 3, 47, 64
5, 104040, Note_on_c, 3, 47, 0
5, 104040, Note_on_c, 3, 46, 64
5, 104160, Note_on_c, 3, 46, 0
5, 104160, Note_on_c, 3, 49, 64
5, 104760, Note_on_c, 3, 49, 0
5, 104760, Note_on_c, 3, 52, 64
5, 104880, Note_on_c, 3, 52, 0
5, 104880, Note_on_c, 3, 54, 64
5, 105240, Note_on_c, 3, 54, 0
5, 105240, Note_on_c, 3, 52, 64
5, 105360, Note_on_c, 3, 52, 0
5, 105360, Note_on_c, 3, 51, 64
5, 105480, Note_on_c, 3, 51, 0
5, 105480, Note_on_c, 3, 49, 64
5, 105600, Note_on_c, 3, 49, 0
5, 105600, Note_on_c, 3, 56, 64
5, 106560, Note_on_c, 3, 56, 0
5, 106560, Note_on_c, 3, 57, 64
5, 107280, Note_on_c, 3, 57, 0
5, 107280, Note_on_c, 3, 56, 64
5, 107400, Note_on_c, 3, 56, 0
5, 107400, Note_on_c, 3, 57, 64
5, 107520, Note_on_c, 3, 57, 0
5, 107520, Note_on_c, 3, 59, 64
5, 107760, Note_on_c, 3, 59, 0
5, 107760, Note_on_c, 3, 57, 64
5, 108000, Note_on_c, 3, 57, 0
5, 108000, Note_on_c, 3, 56, 64
5, 108240, Note_on_c, 3, 56, 0
5, 108240, Note_on_c, 3, 54, 64
5, 108480, Note_on_c, 3, 54, 0
5, 108480, Note_on_c, 3, 61, 64
5, 108720, Note_on_c, 3, 61, 0
5, 108720, Note_on_c, 3, 59, 64
5, 108840, Note_on_c, 3, 59, 0
5, 108840, Note_on_c, 3, 57, 64
5, 108960, Note_on_c, 3, 57, 0
5, 108960, Note_on_c, 3, 56, 64
5, 109200, Note_on_c, 3, 56, 0
5, 109200, Note_on_c, 3, 54, 64
5, 109440, Note_on_c, 3, 54, 0
5, 109440, Note_on_c, 3, 56, 64
5, 110400, Note_on_c, 3, 56, 0
5, 110400, End_track
6, 0, Start_track
6, 0, MIDI_port, 0
6, 0, Title_t, "LH L"
6, 0, Program_c, 3, 6
6, 0, Note_on_c, 3, 49, 64
6, 960, Note_on_c, 3, 49, 0
6, 960, Note_on_c, 3, 48, 64
6, 1440, Note_on_c, 3, 48, 0
6, 1440, Note_on_c, 3, 52, 64
6, 1920, Note_on_c, 3, 52, 0
6, 1920, Note_on_c, 3, 51, 64
6, 2880, Note_on_c, 3, 51, 0
6, 2880, Note_on_c, 3, 49, 64
6, 3120, Note_on_c, 3, 49, 0
6, 3120, Note_on_c, 3, 51, 64
6, 3360, Note_on_c, 3, 51, 0
6, 3360, Note_on_c, 3, 52, 64
6, 4080, Note_on_c, 3, 52, 0
6, 4080, Note_on_c, 3, 51, 64
6, 4200, Note_on_c, 3, 51, 0
6, 4200, Note_on_c, 3, 49, 64
6, 4320, Note_on_c, 3, 49, 0
6, 4320, Note_on_c, 3, 51, 64
6, 4560, Note_on_c, 3, 51, 0
6, 4560, Note_on_c, 3, 56, 64
6, 4800, Note_on_c, 3, 56, 0
6, 4800, Note_on_c, 3, 49, 64
6, 5040, Note_on_c, 3, 49, 0
6, 5040, Note_on_c, 3, 51, 64
6, 5160, Note_on_c, 3, 51, 0
6, 5160, Note_on_c, 3, 52, 64
6, 5280, Note_on_c, 3, 52, 0
6, 5280, Note_on_c, 3, 54, 64
6, 6000, Note_on_c, 3, 54, 0
6, 6000, Note_on_c, 3, 52, 64
6, 6240, Note_on_c, 3, 52, 0
6, 6240, Note_on_c, 3, 51, 64
6, 6480, Note_on_c, 3, 51, 0
6, 6480, Note_on_c, 3, 49, 64
6, 6720, Note_on_c, 3, 49, 0
6, 6720, Note_on_c, 3, 51, 64
6, 7200, Note_on_c, 3, 51, 0
6, 7200, Note_on_c, 3, 49, 64
6, 7920, Note_on_c, 3, 49, 0
6, 7920, Note_on_c, 3, 47, 64
6, 8160, Note_on_c, 3, 47, 0
6, 8160, Note_on_c, 3, 45, 64
6, 8400, Note_on_c, 3, 45, 0
6, 8400, Note_on_c, 3, 44, 64
6, 8640, Note_on_c, 3, 44, 0
6, 8640, Note_on_c, 3, 45, 64
6, 9120, Note_on_c, 3, 45, 0
6, 9120, Note_on_c, 3, 46, 64
6, 9600, Note_on_c, 3, 46, 0
6, 9600, Note_on_c, 3, 48, 64
6, 10080, Note_on_c, 3, 48, 0
6, 10080, Note_on_c, 3, 49, 64
6, 10560, Note_on_c, 3, 49, 0
6, 10560, Note_on_c, 3, 44, 64
6, 10800, Note_on_c, 3, 44, 0
6, 10800, Note_on_c, 3, 45, 64
6, 11040, Note_on_c, 3, 45, 0
6, 11040, Note_on_c, 3, 47, 64
6, 11760, Note_on_c, 3, 47, 0
6, 11760, Note_on_c, 3, 45, 64
6, 12000, Note_on_c, 3, 45, 0
6, 12000, Note_on_c, 3, 44, 64
6, 12240, Note_on_c, 3, 44, 0
6, 12240, Note_on_c, 3, 42, 64
6, 12480, Note_on_c, 3, 42, 0
6, 12480, Note_on_c, 3, 49, 64
6, 12960, Note_on_c, 3, 49, 0
6, 12960, Note_on_c, 3, 45, 64
6, 13680, Note_on_c, 3, 45, 0
6, 13680, Note_on_c, 3, 44, 64
6, 13920, Note_on_c, 3, 44, 0
6, 13920, Note_on_c, 3, 42, 64
6, 14160, Note_on_c, 3, 42, 0
6, 14160, Note_on_c, 3, 40, 64
6, 14400, Note_on_c, 3, 40, 0
6, 14400, Note_on_c, 3, 42, 64
6, 14880, Note_on_c, 3, 42, 0
6, 14880, Note_on_c, 3, 44, 64
6, 15360, Note_on_c, 3, 44, 0
6, 15360, Note_on_c, 3, 45, 64
6, 15600, Note_on_c, 3, 45, 0
6, 15600, Note_on_c, 3, 44, 64
6, 15840, Note_on_c, 3, 44, 0
6, 15840, Note_on_c, 3, 45, 64
6, 16080, Note_on_c, 3, 45, 0
6, 16080, Note_on_c, 3, 47, 64
6, 16320, Note_on_c, 3, 47, 0
6, 16320, Note_on_c, 3, 49, 64
6, 16560, Note_on_c, 3, 49, 0
6, 16560, Note_on_c, 3, 47, 64
6, 16800, Note_on_c, 3, 47, 0
6, 16800, Note_on_c, 3, 49, 64
6, 17040, Note_on_c, 3, 49, 0
6, 17040, Note_on_c, 3, 51, 64
6, 17280, Note_on_c, 3, 51, 0
6, 17280, Note_on_c, 3, 52, 64
6, 17760, Note_on_c, 3, 52, 0
6, 17760, Note_on_c, 3, 49, 64
6, 18480, Note_on_c, 3, 49, 0
6, 18480, Note_on_c, 3, 47, 64
6, 18720, Note_on_c, 3, 47, 0
6, 18720, Note_on_c, 3, 46, 64
6, 18960, Note_on_c, 3, 46, 0
6, 18960, Note_on_c, 3, 44, 64
6, 19200, Note_on_c, 3, 44, 0
6, 19200, Note_on_c, 3, 49, 64
6, 19680, Note_on_c, 3, 49, 0
6, 19680, Note_on_c, 3, 51, 64
6, 20160, Note_on_c, 3, 51, 0
6, 20160, Note_on_c, 3, 44, 64
6, 20640, Note_on_c, 3, 44, 0
6, 27360, Note_on_c, 3, 47, 64
6, 27840, Note_on_c, 3, 47, 0
6, 27840, Note_on_c, 3, 46, 64
6, 28320, Note_on_c, 3, 46, 0
6, 28320, Note_on_c, 3, 51, 64
6, 28800, Note_on_c, 3, 51, 0
6, 28800, Note_on_c, 3, 49, 64
6, 29760, Note_on_c, 3, 49, 0
6, 29760, Note_on_c, 3, 47, 64
6, 30960, Note_on_c, 3, 47, 0
6, 30960, Note_on_c, 3, 56, 64
6, 31200, Note_on_c, 3, 56, 0
6, 31200, Note_on_c, 3, 54, 64
6, 31440, Note_on_c, 3, 54, 0
6, 31440, Note_on_c, 3, 52, 64
6, 31680, Note_on_c, 3, 52, 0
6, 31680, Note_on_c, 3, 59, 64
6, 32160, Note_on_c, 3, 59, 0
6, 32160, Note_on_c, 3, 47, 64
6, 32640, Note_on_c, 3, 47, 0
6, 32640, Note_on_c, 3, 52, 64
6, 33120, Note_on_c, 3, 52, 0
6, 33120, Note_on_c, 3, 57, 64
6, 33600, Note_on_c, 3, 57, 0
6, 33600, Note_on_c, 3, 56, 64
6, 34080, Note_on_c, 3, 56, 0
6, 34080, Note_on_c, 3, 61, 64
6, 35040, Note_on_c, 3, 61, 0
6, 35040, Note_on_c, 3, 60, 64
6, 35520, Note_on_c, 3, 60, 0
6, 41520, Note_on_c, 3, 49, 64
6, 41640, Note_on_c, 3, 49, 0
6, 41640, Note_on_c, 3, 51, 64
6, 41760, Note_on_c, 3, 51, 0
6, 41760, Note_on_c, 3, 52, 64
6, 42000, Note_on_c, 3, 52, 0
6, 42000, Note_on_c, 3, 54, 64
6, 42240, Note_on_c, 3, 54, 0
6, 42240, Note_on_c, 3, 56, 64
6, 42360, Note_on_c, 3, 56, 0
6, 42360, Note_on_c, 3, 54, 64
6, 42480, Note_on_c, 3, 54, 0
6, 42480, Note_on_c, 3, 56, 64
6, 42600, Note_on_c, 3, 56, 0
6, 42600, Note_on_c, 3, 57, 64
6, 42720, Note_on_c, 3, 57, 0
6, 42720, Note_on_c, 3, 56, 64
6, 42840, Note_on_c, 3, 56, 0
6, 42840, Note_on_c, 3, 54, 64
6, 42960, Note_on_c, 3, 54, 0
6, 42960, Note_on_c, 3, 52, 64
6, 43080, Note_on_c, 3, 52, 0
6, 43080, Note_on_c, 3, 56, 64
6, 43200, Note_on_c, 3, 56, 0
6, 43200, Note_on_c, 3, 54, 64
6, 43320, Note_on_c, 3, 54, 0
6, 43320, Note_on_c, 3, 52, 64
6, 43440, Note_on_c, 3, 52, 0
6, 43440, Note_on_c, 3, 54, 64
6, 43560, Note_on_c, 3, 54, 0
6, 43560, Note_on_c, 3, 56, 64
6, 43680, Note_on_c, 3, 56, 0
6, 43680, Note_on_c, 3, 54, 64
6, 43800, Note_on_c, 3, 54, 0
6, 43800, Note_on_c, 3, 52, 64
6, 43920, Note_on_c, 3, 52, 0
6, 43920, Note_on_c, 3, 51, 64
6, 44040, Note_on_c, 3, 51, 0
6, 44040, Note_on_c, 3, 54, 64
6, 44160, Note_on_c, 3, 54, 0
6, 44160, Note_on_c, 3, 52, 64
6, 44280, Note_on_c, 3, 52, 0
6, 44280, Note_on_c, 3, 51, 64
6, 44400, Note_on_c, 3, 51, 0
6, 44400, Note_on_c, 3, 52, 64
6, 44520, Note_on_c, 3, 52, 0
6, 44520, Note_on_c, 3, 54, 64
6, 44640, Note_on_c, 3, 54, 0
6, 44640, Note_on_c, 3, 52, 64
6, 44760, Note_on_c, 3, 52, 0
6, 44760, Note_on_c, 3, 57, 64
6, 44880, Note_on_c, 3, 57, 0
6, 44880, Note_on_c, 3, 56, 64
6, 45000, Note_on_c, 3, 56, 0
6, 45000, Note_on_c, 3, 57, 64
6, 45120, Note_on_c, 3, 57, 0
6, 45120, Note_on_c, 3, 51, 64
6, 45240, Note_on_c, 3, 51, 0
6, 45240, Note_on_c, 3, 49, 64
6, 45360, Note_on_c, 3, 49, 0
6, 45360, Note_on_c, 3, 51, 64
6, 45480, Note_on_c, 3, 51, 0
6, 45480, Note_on_c, 3, 52, 64
6, 45600, Note_on_c, 3, 52, 0
6, 45600, Note_on_c, 3, 51, 64
6, 45720, Note_on_c, 3, 51, 0
6, 45720, Note_on_c, 3, 56, 64
6, 45840, Note_on_c, 3, 56, 0
6, 45840, Note_on_c, 3, 54, 64
6, 45960, Note_on_c, 3, 54, 0
6, 45960, Note_on_c, 3, 56, 64
6, 46080, Note_on_c, 3, 56, 0
6, 46080, Note_on_c, 3, 49, 64
6, 46560, Note_on_c, 3, 49, 0
6, 52080, Note_on_c, 3, 52, 64
6, 52320, Note_on_c, 3, 52, 0
6, 52320, Note_on_c, 3, 57, 64
6, 52550, Note_on_c, 3, 57, 0
6, 52560, Note_on_c, 3, 57, 64
6, 52790, Note_on_c, 3, 57, 0
6, 52800, Note_on_c, 3, 57, 64
6, 53040, Note_on_c, 3, 57, 0
6, 53040, Note_on_c, 3, 56, 64
6, 53160, Note_on_c, 3, 56, 0
6, 53160, Note_on_c, 3, 54, 64
6, 53280, Note_on_c, 3, 54, 0
6, 53280, Note_on_c, 3, 56, 64
6, 53760, Note_on_c, 3, 56, 0
6, 53760, Note_on_c, 3, 57, 64
6, 54240, Note_on_c, 3, 57, 0
6, 54240, Note_on_c, 3, 54, 64
6, 54720, Note_on_c, 3, 54, 0
6, 54720, Note_on_c, 3, 47, 64
6, 55200, Note_on_c, 3, 47, 0
6, 55200, Note_on_c, 3, 52, 64
6, 55680, Note_on_c, 3, 52, 0
6, 55680, Note_on_c, 3, 45, 64
6, 56640, Note_on_c, 3, 45, 0
6, 56640, Note_on_c, 3, 44, 64
6, 57120, Note_on_c, 3, 44, 0
6, 61680, Note_on_c, 3, 44, 64
6, 61920, Note_on_c, 3, 44, 0
6, 61920, Note_on_c, 3, 49, 64
6, 62150, Note_on_c, 3, 49, 0
6, 62160, Note_on_c, 3, 49, 64
6, 62390, Note_on_c, 3, 49, 0
6, 62400, Note_on_c, 3, 49, 89
6, 62640, Note_on_c, 3, 49, 0
6, 62640, Note_on_c, 3, 47, 66
6, 62760, Note_on_c, 3, 47, 0
6, 62760, Note_on_c, 3, 46, 68
6, 62880, Note_on_c, 3, 46, 0
6, 62880, Note_on_c, 3, 47, 72
6, 63000, Note_on_c, 3, 47, 0
6, 63000, Note_on_c, 3, 46, 70
6, 63120, Note_on_c, 3, 46, 0
6, 63120, Note_on_c, 3, 44, 70
6, 63240, Note_on_c, 3, 44, 0
6, 63240, Note_on_c, 3, 47, 50
6, 63360, Note_on_c, 3, 47, 0
6, 63360, Note_on_c, 3, 46, 66
6, 63480, Note_on_c, 3, 46, 0
6, 63480, Note_on_c, 3, 44, 51
6, 63600, Note_on_c, 3, 44, 0
6, 63600, Note_on_c, 3, 46, 53
6, 63720, Note_on_c, 3, 46, 0
6, 63720, Note_on_c, 3, 47, 37
6, 63840, Note_on_c, 3, 47, 0
6, 63840, Note_on_c, 3, 46, 52
6, 63960, Note_on_c, 3, 46, 0
6, 63960, Note_on_c, 3, 44, 52
6, 64080, Note_on_c, 3, 44, 0
6, 64080, Note_on_c, 3, 42, 62
6, 64200, Note_on_c, 3, 42, 0
6, 64200, Note_on_c, 3, 46, 57
6, 64320, Note_on_c, 3, 46, 0
6, 64320, Note_on_c, 3, 44, 61
6, 64440, Note_on_c, 3, 44, 0
6, 64440, Note_on_c, 3, 42, 55
6, 64560, Note_on_c, 3, 42, 0
6, 64560, Note_on_c, 3, 44, 57
6, 64680, Note_on_c, 3, 44, 0
6, 64680, Note_on_c, 3, 46, 59
6, 64800, Note_on_c, 3, 46, 0
6, 64800, Note_on_c, 3, 44, 65
6, 64920, Note_on_c, 3, 44, 0
6, 64920, Note_on_c, 3, 47, 54
6, 65040, Note_on_c, 3, 47, 0
6, 65040, Note_on_c, 3, 46, 58
6, 65160, Note_on_c, 3, 46, 0
6, 65160, Note_on_c, 3, 44, 61
6, 65280, Note_on_c, 3, 44, 0
6, 65280, Note_on_c, 3, 43, 69
6, 65760, Note_on_c, 3, 43, 0
6, 65760, Note_on_c, 3, 44, 74
6, 66240, Note_on_c, 3, 44, 0
6, 66240, Note_on_c, 3, 46, 66
6, 66720, Note_on_c, 3, 46, 0
6, 66720, Note_on_c, 3, 51, 62
6, 67200, Note_on_c, 3, 51, 0
6, 67200, Note_on_c, 3, 44, 77
6, 67680, Note_on_c, 3, 44, 0
6, 69120, Note_on_c, 3, 37, 59
6, 70080, Note_on_c, 3, 37, 0
6, 70080, Note_on_c, 3, 36, 72
6, 70560, Note_on_c, 3, 36, 0
6, 70560, Note_on_c, 3, 40, 80
6, 71040, Note_on_c, 3, 40, 0
6, 71040, Note_on_c, 3, 39, 76
6, 72000, Note_on_c, 3, 39, 0
6, 72000, Note_on_c, 3, 37, 74
6, 72230, Note_on_c, 3, 37, 0
6, 72240, Note_on_c, 3, 37, 74
6, 72360, Note_on_c, 3, 37, 0
6, 72360, Note_on_c, 3, 39, 61
6, 72480, Note_on_c, 3, 39, 0
6, 72480, Note_on_c, 3, 40, 76
6, 72720, Note_on_c, 3, 40, 0
6, 72720, Note_on_c, 3, 42, 69
6, 72960, Note_on_c, 3, 42, 0
6, 72960, Note_on_c, 3, 44, 69
6, 73080, Note_on_c, 3, 44, 0
6, 73080, Note_on_c, 3, 42, 70
6, 73200, Note_on_c, 3, 42, 0
6, 73200, Note_on_c, 3, 44, 66
6, 73320, Note_on_c, 3, 44, 0
6, 73320, Note_on_c, 3, 45, 62
6, 73440, Note_on_c, 3, 45, 0
6, 73440, Note_on_c, 3, 44, 73
6, 73560, Note_on_c, 3, 44, 0
6, 73560, Note_on_c, 3, 42, 57
6, 73680, Note_on_c, 3, 42, 0
6, 73680, Note_on_c, 3, 40, 74
6, 73800, Note_on_c, 3, 40, 0
6, 73800, Note_on_c, 3, 44, 73
6, 73920, Note_on_c, 3, 44, 0
6, 73920, Note_on_c, 3, 42, 68
6, 74040, Note_on_c, 3, 42, 0
6, 74040, Note_on_c, 3, 40, 63
6, 74160, Note_on_c, 3, 40, 0
6, 74160, Note_on_c, 3, 42, 73
6, 74280, Note_on_c, 3, 42, 0
6, 74280, Note_on_c, 3, 44, 62
6, 74400, Note_on_c, 3, 44, 0
6, 74400, Note_on_c, 3, 42, 74
6, 74520, Note_on_c, 3, 42, 0
6, 74520, Note_on_c, 3, 40, 61
6, 74640, Note_on_c, 3, 40, 0
6, 74640, Note_on_c, 3, 39, 61
6, 74760, Note_on_c, 3, 39, 0
6, 74760, Note_on_c, 3, 42, 63
6, 74880, Note_on_c, 3, 42, 0
6, 74880, Note_on_c, 3, 40, 83
6, 75120, Note_on_c, 3, 40, 0
6, 75120, Note_on_c, 3, 52, 74
6, 75360, Note_on_c, 3, 52, 0
6, 75360, Note_on_c, 3, 57, 88
6, 75590, Note_on_c, 3, 57, 0
6, 75600, Note_on_c, 3, 57, 79
6, 75830, Note_on_c, 3, 57, 0
6, 75840, Note_on_c, 3, 57, 77
6, 76080, Note_on_c, 3, 57, 0
6, 76080, Note_on_c, 3, 56, 68
6, 76200, Note_on_c, 3, 56, 0
6, 76200, Note_on_c, 3, 54, 63
6, 76320, Note_on_c, 3, 54, 0
6, 76320, Note_on_c, 3, 56, 61
6, 76560, Note_on_c, 3, 56, 0
6, 76560, Note_on_c, 3, 44, 73
6, 76800, Note_on_c, 3, 44, 0
6, 77040, Note_on_c, 3, 47, 70
6, 77280, Note_on_c, 3, 47, 0
6, 77280, Note_on_c, 3, 45, 77
6, 77760, Note_on_c, 3, 45, 0
6, 77760, Note_on_c, 3, 44, 82
6, 78000, Note_on_c, 3, 44, 0
6, 81840, Note_on_c, 3, 49, 88
6, 82080, Note_on_c, 3, 49, 0
6, 82080, Note_on_c, 3, 54, 70
6, 82310, Note_on_c, 3, 54, 0
6, 82320, Note_on_c, 3, 54, 77
6, 82550, Note_on_c, 3, 54, 0
6, 82560, Note_on_c, 3, 54, 79
6, 82800, Note_on_c, 3, 54, 0
6, 82800, Note_on_c, 3, 53, 69
6, 82920, Note_on_c, 3, 53, 0
6, 82920, Note_on_c, 3, 51, 66
6, 83040, Note_on_c, 3, 51, 0
6, 83040, Note_on_c, 3, 53, 74
6, 83520, Note_on_c, 3, 53, 0
6, 83520, Note_on_c, 3, 54, 80
6, 84000, Note_on_c, 3, 54, 0
6, 85680, Note_on_c, 3, 44, 76
6, 85920, Note_on_c, 3, 44, 0
6, 85920, Note_on_c, 3, 49, 83
6, 86150, Note_on_c, 3, 49, 0
6, 86160, Note_on_c, 3, 49, 80
6, 86390, Note_on_c, 3, 49, 0
6, 86400, Note_on_c, 3, 49, 80
6, 86640, Note_on_c, 3, 49, 0
6, 86640, Note_on_c, 3, 47, 68
6, 86760, Note_on_c, 3, 47, 0
6, 86760, Note_on_c, 3, 46, 58
6, 86880, Note_on_c, 3, 46, 0
6, 86880, Note_on_c, 3, 47, 68
6, 87000, Note_on_c, 3, 47, 0
6, 87000, Note_on_c, 3, 49, 73
6, 87120, Note_on_c, 3, 49, 0
6, 87120, Note_on_c, 3, 51, 57
6, 87240, Note_on_c, 3, 51, 0
6, 87240, Note_on_c, 3, 47, 66
6, 87360, Note_on_c, 3, 47, 0
6, 87360, Note_on_c, 3, 40, 79
6, 87840, Note_on_c, 3, 40, 0
6, 88080, Note_on_c, 3, 45, 82
6, 88320, Note_on_c, 3, 45, 0
6, 88320, Note_on_c, 3, 39, 79
6, 88800, Note_on_c, 3, 39, 0
6, 89040, Note_on_c, 3, 44, 76
6, 89280, Note_on_c, 3, 44, 0
6, 89280, Note_on_c, 3, 37, 76
6, 89520, Note_on_c, 3, 37, 0
6, 89520, Note_on_c, 3, 52, 68
6, 89760, Note_on_c, 3, 52, 0
6, 89760, Note_on_c, 3, 57, 76
6, 89990, Note_on_c, 3, 57, 0
6, 90000, Note_on_c, 3, 57, 82
6, 90230, Note_on_c, 3, 57, 0
6, 90240, Note_on_c, 3, 57, 73
6, 90480, Note_on_c, 3, 57, 0
6, 90480, Note_on_c, 3, 55, 66
6, 90600, Note_on_c, 3, 55, 0
6, 90600, Note_on_c, 3, 54, 65
6, 90720, Note_on_c, 3, 54, 0
6, 90720, Note_on_c, 3, 52, 82
6, 91200, Note_on_c, 3, 52, 0
6, 92640, Note_on_c, 3, 49, 96
6, 93120, Note_on_c, 3, 49, 0
6, 93120, Note_on_c, 3, 48, 80
6, 93600, Note_on_c, 3, 48, 0
6, 93600, Note_on_c, 3, 52, 83
6, 94080, Note_on_c, 3, 52, 0
6, 94080, Note_on_c, 3, 51, 73
6, 95040, Note_on_c, 3, 51, 0
6, 95040, Note_on_c, 3, 49, 80
6, 95280, Note_on_c, 3, 49, 0
6, 95280, Note_on_c, 3, 52, 76
6, 95520, Note_on_c, 3, 52, 0
6, 95520, Note_on_c, 3, 57, 79
6, 95750, Note_on_c, 3, 57, 0
6, 95760, Note_on_c, 3, 57, 74
6, 95990, Note_on_c, 3, 57, 0
6, 96000, Note_on_c, 3, 57, 72
6, 96240, Note_on_c, 3, 57, 0
6, 96240, Note_on_c, 3, 56, 73
6, 96360, Note_on_c, 3, 56, 0
6, 96360, Note_on_c, 3, 54, 66
6, 96480, Note_on_c, 3, 54, 0
6, 96480, Note_on_c, 3, 52, 72
6, 96600, Note_on_c, 3, 52, 0
6, 96600, Note_on_c, 3, 50, 63
6, 96720, Note_on_c, 3, 50, 0
6, 96720, Note_on_c, 3, 49, 76
6, 96840, Note_on_c, 3, 49, 0
6, 96840, Note_on_c, 3, 47, 65
6, 96960, Note_on_c, 3, 47, 0
6, 96960, Note_on_c, 3, 46, 79
6, 97440, Note_on_c, 3, 46, 0
6, 97440, Note_on_c, 3, 45, 80
6, 98160, Note_on_c, 3, 45, 0
6, 98160, Note_on_c, 3, 44, 72
6, 98280, Note_on_c, 3, 44, 0
6, 98280, Note_on_c, 3, 42, 72
6, 98400, Note_on_c, 3, 42, 0
6, 98400, Note_on_c, 3, 41, 82
6, 98880, Note_on_c, 3, 41, 0
6, 98880, Note_on_c, 3, 42, 91
6, 99840, Note_on_c, 3, 42, 0
6, 99840, Note_on_c, 3, 44, 89
6, 103680, Note_on_c, 3, 44, 0
6, 103680, Note_on_c, 3, 43, 72
6, 104640, Note_on_c, 3, 43, 0
6, 104640, Note_on_c, 3, 44, 82
6, 106560, Note_on_c, 3, 44, 0
6, 106560, Note_on_c, 3, 49, 88
6, 110400, Note_on_c, 3, 49, 0
6, 110400, End_track
0, 0, End_of_file
