0, 0, Header, 1, 12, 240
1, 0, Start_track
1, 0, Title_t, "(Ohne Titel)"
1, 0, Time_signature, 4, 2, 24, 8
1, 0, Key_signature, 0, "major"
1, 0, Tempo, 1875000
1, 0, End_track
2, 0, Start_track
2, 0, Sequence_number, 255
2, 0, MIDI_port, 0
2, 0, Title_t, "Cembalo I"
2, 0, Control_c, 0, 0, 0
2, 0, Control_c, 0, 32, 0
2, 0, Program_c, 0, 6
2, 0, Control_c, 0, 7, 80
2, 0, Control_c, 0, 10, 49
2, 3120, Note_on_c, 0, 76, 100
2, 3336, Note_on_c, 0, 76, 0
2, 3360, Note_on_c, 0, 81, 100
2, 3654, Note_on_c, 0, 81, 0
2, 3660, Note_on_c, 0, 84, 100
2, 3714, Note_on_c, 0, 84, 0
2, 3720, Note_on_c, 0, 83, 100
2, 3774, Note_on_c, 0, 83, 0
2, 3780, Note_on_c, 0, 81, 100
2, 3834, Note_on_c, 0, 81, 0
2, 3840, Note_on_c, 0, 80, 100
2, 3894, Note_on_c, 0, 80, 0
2, 3900, Note_on_c, 0, 81, 100
2, 3927, Note_on_c, 0, 81, 0
2, 3930, Note_on_c, 0, 83, 100
2, 3957, Note_on_c, 0, 83, 0
2, 3960, Note_on_c, 0, 76, 100
2, 4134, Note_on_c, 0, 76, 0
2, 4140, Note_on_c, 0, 73, 100
2, 4194, Note_on_c, 0, 73, 0
2, 4200, Note_on_c, 0, 74, 100
2, 4254, Note_on_c, 0, 74, 0
2, 4260, Note_on_c, 0, 76, 100
2, 4314, Note_on_c, 0, 76, 0
2, 4320, Note_on_c, 0, 69, 100
2, 4614, Note_on_c, 0, 69, 0
2, 4620, Note_on_c, 0, 69, 100
2, 4674, Note_on_c, 0, 69, 0
2, 4680, Note_on_c, 0, 74, 100
2, 4734, Note_on_c, 0, 74, 0
2, 4740, Note_on_c, 0, 73, 100
2, 4794, Note_on_c, 0, 73, 0
2, 4800, Note_on_c, 0, 74, 100
2, 4854, Note_on_c, 0, 74, 0
2, 4860, Note_on_c, 0, 76, 100
2, 4914, Note_on_c, 0, 76, 0
2, 4920, Note_on_c, 0, 77, 100
2, 4974, Note_on_c, 0, 77, 0
2, 4980, Note_on_c, 0, 74, 100
2, 5034, Note_on_c, 0, 74, 0
2, 5040, Note_on_c, 0, 71, 100
2, 5094, Note_on_c, 0, 71, 0
2, 5100, Note_on_c, 0, 72, 100
2, 5154, Note_on_c, 0, 72, 0
2, 5160, Note_on_c, 0, 72, 100
2, 5214, Note_on_c, 0, 72, 0
2, 5220, Note_on_c, 0, 71, 100
2, 5247, Note_on_c, 0, 71, 0
2, 5250, Note_on_c, 0, 72, 100
2, 5277, Note_on_c, 0, 72, 0
2, 5280, Note_on_c, 0, 74, 100
2, 5388, Note_on_c, 0, 74, 0
2, 5400, Note_on_c, 0, 67, 100
2, 5508, Note_on_c, 0, 67, 0
2, 5520, Note_on_c, 0, 79, 100
2, 5814, Note_on_c, 0, 79, 0
2, 5820, Note_on_c, 0, 77, 100
2, 5874, Note_on_c, 0, 77, 0
2, 5880, Note_on_c, 0, 76, 100
2, 5934, Note_on_c, 0, 76, 0
2, 5940, Note_on_c, 0, 77, 100
2, 5994, Note_on_c, 0, 77, 0
2, 6000, Note_on_c, 0, 79, 100
2, 6054, Note_on_c, 0, 79, 0
2, 6060, Note_on_c, 0, 76, 100
2, 6114, Note_on_c, 0, 76, 0
2, 6120, Note_on_c, 0, 77, 100
2, 6174, Note_on_c, 0, 77, 0
2, 6180, Note_on_c, 0, 79, 100
2, 6234, Note_on_c, 0, 79, 0
2, 6240, Note_on_c, 0, 81, 100
2, 6294, Note_on_c, 0, 81, 0
2, 6300, Note_on_c, 0, 82, 100
2, 6354, Note_on_c, 0, 82, 0
2, 6360, Note_on_c, 0, 81, 100
2, 6414, Note_on_c, 0, 81, 0
2, 6420, Note_on_c, 0, 79, 100
2, 6474, Note_on_c, 0, 79, 0
2, 6480, Note_on_c, 0, 77, 100
2, 6534, Note_on_c, 0, 77, 0
2, 6540, Note_on_c, 0, 76, 100
2, 6594, Note_on_c, 0, 76, 0
2, 6600, Note_on_c, 0, 74, 100
2, 6654, Note_on_c, 0, 74, 0
2, 6660, Note_on_c, 0, 72, 100
2, 6714, Note_on_c, 0, 72, 0
2, 6720, Note_on_c, 0, 71, 100
2, 6828, Note_on_c, 0, 71, 0
2, 6840, Note_on_c, 0, 69, 100
2, 6894, Note_on_c, 0, 69, 0
2, 6900, Note_on_c, 0, 67, 100
2, 6954, Note_on_c, 0, 67, 0
2, 6960, Note_on_c, 0, 79, 100
2, 7254, Note_on_c, 0, 79, 0
2, 7260, Note_on_c, 0, 81, 100
2, 7287, Note_on_c, 0, 81, 0
2, 7290, Note_on_c, 0, 79, 100
2, 7317, Note_on_c, 0, 79, 0
2, 7320, Note_on_c, 0, 77, 100
2, 7347, Note_on_c, 0, 77, 0
2, 7350, Note_on_c, 0, 79, 100
2, 7377, Note_on_c, 0, 79, 0
2, 7380, Note_on_c, 0, 81, 100
2, 7434, Note_on_c, 0, 81, 0
2, 7440, Note_on_c, 0, 74, 100
2, 7602, Note_on_c, 0, 74, 0
2, 7620, Note_on_c, 0, 72, 100
2, 7674, Note_on_c, 0, 72, 0
2, 7680, Note_on_c, 0, 72, 100
2, 7896, Note_on_c, 0, 72, 0
2, 12540, Note_on_c, 0, 73, 100
2, 12594, Note_on_c, 0, 73, 0
2, 12600, Note_on_c, 0, 74, 100
2, 12654, Note_on_c, 0, 74, 0
2, 12660, Note_on_c, 0, 77, 100
2, 12687, Note_on_c, 0, 77, 0
2, 12690, Note_on_c, 0, 76, 100
2, 12717, Note_on_c, 0, 76, 0
2, 12720, Note_on_c, 0, 77, 100
2, 12774, Note_on_c, 0, 77, 0
2, 12780, Note_on_c, 0, 81, 100
2, 12807, Note_on_c, 0, 81, 0
2, 12810, Note_on_c, 0, 79, 100
2, 12837, Note_on_c, 0, 79, 0
2, 12840, Note_on_c, 0, 81, 100
2, 12894, Note_on_c, 0, 81, 0
2, 12900, Note_on_c, 0, 69, 100
2, 12954, Note_on_c, 0, 69, 0
2, 12960, Note_on_c, 0, 74, 100
2, 13014, Note_on_c, 0, 74, 0
2, 13020, Note_on_c, 0, 73, 100
2, 13074, Note_on_c, 0, 73, 0
2, 13080, Note_on_c, 0, 74, 100
2, 13254, Note_on_c, 0, 74, 0
2, 13260, Note_on_c, 0, 77, 100
2, 13314, Note_on_c, 0, 77, 0
2, 13320, Note_on_c, 0, 76, 100
2, 13347, Note_on_c, 0, 76, 0
2, 13350, Note_on_c, 0, 77, 100
2, 13377, Note_on_c, 0, 77, 0
2, 13380, Note_on_c, 0, 74, 100
2, 13434, Note_on_c, 0, 74, 0
2, 13440, Note_on_c, 0, 72, 100
2, 13494, Note_on_c, 0, 72, 0
2, 13500, Note_on_c, 0, 71, 100
2, 13554, Note_on_c, 0, 71, 0
2, 13560, Note_on_c, 0, 72, 100
2, 13614, Note_on_c, 0, 72, 0
2, 13620, Note_on_c, 0, 74, 100
2, 13674, Note_on_c, 0, 74, 0
2, 13680, Note_on_c, 0, 76, 100
2, 13734, Note_on_c, 0, 76, 0
2, 13740, Note_on_c, 0, 78, 100
2, 13794, Note_on_c, 0, 78, 0
2, 13800, Note_on_c, 0, 80, 100
2, 13854, Note_on_c, 0, 80, 0
2, 13860, Note_on_c, 0, 76, 100
2, 13914, Note_on_c, 0, 76, 0
2, 13920, Note_on_c, 0, 81, 100
2, 13974, Note_on_c, 0, 81, 0
2, 13980, Note_on_c, 0, 80, 100
2, 14034, Note_on_c, 0, 80, 0
2, 14040, Note_on_c, 0, 81, 100
2, 14214, Note_on_c, 0, 81, 0
2, 14220, Note_on_c, 0, 84, 100
2, 14274, Note_on_c, 0, 84, 0
2, 14280, Note_on_c, 0, 83, 100
2, 14307, Note_on_c, 0, 83, 0
2, 14310, Note_on_c, 0, 84, 100
2, 14337, Note_on_c, 0, 84, 0
2, 14340, Note_on_c, 0, 81, 100
2, 14394, Note_on_c, 0, 81, 0
2, 14400, Note_on_c, 0, 80, 100
2, 14454, Note_on_c, 0, 80, 0
2, 14460, Note_on_c, 0, 81, 100
2, 14487, Note_on_c, 0, 81, 0
2, 14490, Note_on_c, 0, 83, 100
2, 14517, Note_on_c, 0, 83, 0
2, 14520, Note_on_c, 0, 76, 100
2, 14694, Note_on_c, 0, 76, 0
2, 14700, Note_on_c, 0, 81, 100
2, 14754, Note_on_c, 0, 81, 0
2, 14760, Note_on_c, 0, 83, 100
2, 14814, Note_on_c, 0, 83, 0
2, 14820, Note_on_c, 0, 84, 100
2, 14874, Note_on_c, 0, 84, 0
2, 14880, Note_on_c, 0, 77, 100
2, 14988, Note_on_c, 0, 77, 0
2, 15000, Note_on_c, 0, 76, 100
2, 15108, Note_on_c, 0, 76, 0
2, 15120, Note_on_c, 0, 74, 100
2, 15174, Note_on_c, 0, 74, 0
2, 15180, Note_on_c, 0, 80, 100
2, 15234, Note_on_c, 0, 80, 0
2, 15240, Note_on_c, 0, 81, 100
2, 15294, Note_on_c, 0, 81, 0
2, 15300, Note_on_c, 0, 83, 100
2, 15354, Note_on_c, 0, 83, 0
2, 15360, Note_on_c, 0, 76, 100
2, 15468, Note_on_c, 0, 76, 0
2, 15480, Note_on_c, 0, 74, 100
2, 15588, Note_on_c, 0, 74, 0
2, 15600, Note_on_c, 0, 72, 100
2, 15654, Note_on_c, 0, 72, 0
2, 15660, Note_on_c, 0, 78, 100
2, 15714, Note_on_c, 0, 78, 0
2, 15720, Note_on_c, 0, 80, 100
2, 15774, Note_on_c, 0, 80, 0
2, 15780, Note_on_c, 0, 81, 100
2, 15834, Note_on_c, 0, 81, 0
2, 15840, Note_on_c, 0, 74, 100
2, 15894, Note_on_c, 0, 74, 0
2, 15900, Note_on_c, 0, 76, 100
2, 15927, Note_on_c, 0, 76, 0
2, 15930, Note_on_c, 0, 77, 100
2, 15957, Note_on_c, 0, 77, 0
2, 15960, Note_on_c, 0, 76, 100
2, 15987, Note_on_c, 0, 76, 0
2, 15990, Note_on_c, 0, 77, 100
2, 16017, Note_on_c, 0, 77, 0
2, 16020, Note_on_c, 0, 74, 100
2, 16074, Note_on_c, 0, 74, 0
2, 16080, Note_on_c, 0, 72, 100
2, 16188, Note_on_c, 0, 72, 0
2, 16200, Note_on_c, 0, 71, 100
2, 16254, Note_on_c, 0, 71, 0
2, 16260, Note_on_c, 0, 69, 100
2, 16314, Note_on_c, 0, 69, 0
2, 16320, Note_on_c, 0, 69, 100
2, 16536, Note_on_c, 0, 69, 0
2, 16800, Note_on_c, 0, 81, 100
2, 17094, Note_on_c, 0, 81, 0
2, 17100, Note_on_c, 0, 83, 100
2, 17127, Note_on_c, 0, 83, 0
2, 17130, Note_on_c, 0, 81, 100
2, 17157, Note_on_c, 0, 81, 0
2, 17160, Note_on_c, 0, 79, 100
2, 17187, Note_on_c, 0, 79, 0
2, 17190, Note_on_c, 0, 81, 100
2, 17217, Note_on_c, 0, 81, 0
2, 17220, Note_on_c, 0, 78, 100
2, 17274, Note_on_c, 0, 78, 0
2, 17280, Note_on_c, 0, 79, 100
2, 17496, Note_on_c, 0, 79, 0
2, 17760, Note_on_c, 0, 79, 100
2, 18054, Note_on_c, 0, 79, 0
2, 18060, Note_on_c, 0, 81, 100
2, 18087, Note_on_c, 0, 81, 0
2, 18090, Note_on_c, 0, 79, 100
2, 18117, Note_on_c, 0, 79, 0
2, 18120, Note_on_c, 0, 78, 100
2, 18147, Note_on_c, 0, 78, 0
2, 18150, Note_on_c, 0, 79, 100
2, 18177, Note_on_c, 0, 79, 0
2, 18180, Note_on_c, 0, 76, 100
2, 18234, Note_on_c, 0, 76, 0
2, 18240, Note_on_c, 0, 78, 100
2, 18456, Note_on_c, 0, 78, 0
2, 18720, Note_on_c, 0, 78, 100
2, 19254, Note_on_c, 0, 78, 0
2, 19260, Note_on_c, 0, 79, 100
2, 19287, Note_on_c, 0, 79, 0
2, 19290, Note_on_c, 0, 78, 100
2, 19317, Note_on_c, 0, 78, 0
2, 19320, Note_on_c, 0, 76, 100
2, 19347, Note_on_c, 0, 76, 0
2, 19350, Note_on_c, 0, 78, 100
2, 19377, Note_on_c, 0, 78, 0
2, 19380, Note_on_c, 0, 75, 100
2, 19434, Note_on_c, 0, 75, 0
2, 19440, Note_on_c, 0, 76, 100
2, 19656, Note_on_c, 0, 76, 0
2, 20640, Note_on_c, 0, 75, 100
2, 20748, Note_on_c, 0, 75, 0
2, 20760, Note_on_c, 0, 76, 100
2, 20868, Note_on_c, 0, 76, 0
2, 20880, Note_on_c, 0, 78, 100
2, 20988, Note_on_c, 0, 78, 0
2, 21120, Note_on_c, 0, 71, 100
2, 21228, Note_on_c, 0, 71, 0
2, 21240, Note_on_c, 0, 75, 100
2, 21348, Note_on_c, 0, 75, 0
2, 21360, Note_on_c, 0, 76, 100
2, 21468, Note_on_c, 0, 76, 0
2, 21600, Note_on_c, 0, 72, 100
2, 21654, Note_on_c, 0, 72, 0
2, 21660, Note_on_c, 0, 71, 100
2, 21687, Note_on_c, 0, 71, 0
2, 21690, Note_on_c, 0, 69, 100
2, 21717, Note_on_c, 0, 69, 0
2, 21720, Note_on_c, 0, 79, 100
2, 21747, Note_on_c, 0, 79, 0
2, 21750, Note_on_c, 0, 78, 100
2, 21777, Note_on_c, 0, 78, 0
2, 21780, Note_on_c, 0, 76, 100
2, 21834, Note_on_c, 0, 76, 0
2, 21840, Note_on_c, 0, 75, 100
2, 22002, Note_on_c, 0, 75, 0
2, 22020, Note_on_c, 0, 76, 100
2, 22074, Note_on_c, 0, 76, 0
2, 22080, Note_on_c, 0, 76, 100
2, 22296, Note_on_c, 0, 76, 0
2, 25020, Note_on_c, 0, 76, 100
2, 25047, Note_on_c, 0, 76, 0
2, 25050, Note_on_c, 0, 78, 100
2, 25077, Note_on_c, 0, 78, 0
2, 25080, Note_on_c, 0, 78, 100
2, 25161, Note_on_c, 0, 78, 0
2, 25170, Note_on_c, 0, 76, 100
2, 25183, Note_on_c, 0, 76, 0
2, 25185, Note_on_c, 0, 78, 100
2, 25198, Note_on_c, 0, 78, 0
2, 25200, Note_on_c, 0, 79, 100
2, 25254, Note_on_c, 0, 79, 0
2, 25260, Note_on_c, 0, 77, 100
2, 25314, Note_on_c, 0, 77, 0
2, 25320, Note_on_c, 0, 79, 100
2, 25374, Note_on_c, 0, 79, 0
2, 25380, Note_on_c, 0, 77, 100
2, 25434, Note_on_c, 0, 77, 0
2, 25440, Note_on_c, 0, 76, 100
2, 25494, Note_on_c, 0, 76, 0
2, 25500, Note_on_c, 0, 74, 100
2, 25554, Note_on_c, 0, 74, 0
2, 25560, Note_on_c, 0, 76, 100
2, 25614, Note_on_c, 0, 76, 0
2, 25620, Note_on_c, 0, 74, 100
2, 25674, Note_on_c, 0, 74, 0
2, 25680, Note_on_c, 0, 73, 100
2, 25734, Note_on_c, 0, 73, 0
2, 25740, Note_on_c, 0, 74, 100
2, 25794, Note_on_c, 0, 74, 0
2, 25800, Note_on_c, 0, 73, 100
2, 25854, Note_on_c, 0, 73, 0
2, 25860, Note_on_c, 0, 74, 100
2, 25914, Note_on_c, 0, 74, 0
2, 25920, Note_on_c, 0, 76, 100
2, 25974, Note_on_c, 0, 76, 0
2, 25980, Note_on_c, 0, 77, 100
2, 26034, Note_on_c, 0, 77, 0
2, 26040, Note_on_c, 0, 79, 100
2, 26148, Note_on_c, 0, 79, 0
2, 26160, Note_on_c, 0, 78, 100
2, 26214, Note_on_c, 0, 78, 0
2, 26220, Note_on_c, 0, 79, 100
2, 26274, Note_on_c, 0, 79, 0
2, 26280, Note_on_c, 0, 78, 100
2, 26334, Note_on_c, 0, 78, 0
2, 26340, Note_on_c, 0, 79, 100
2, 26394, Note_on_c, 0, 79, 0
2, 26400, Note_on_c, 0, 78, 100
2, 26454, Note_on_c, 0, 78, 0
2, 26460, Note_on_c, 0, 79, 100
2, 26514, Note_on_c, 0, 79, 0
2, 26520, Note_on_c, 0, 78, 100
2, 26574, Note_on_c, 0, 78, 0
2, 26580, Note_on_c, 0, 79, 100
2, 26634, Note_on_c, 0, 79, 0
2, 26640, Note_on_c, 0, 81, 100
2, 26694, Note_on_c, 0, 81, 0
2, 26700, Note_on_c, 0, 82, 100
2, 26754, Note_on_c, 0, 82, 0
2, 26760, Note_on_c, 0, 81, 100
2, 26814, Note_on_c, 0, 81, 0
2, 26820, Note_on_c, 0, 83, 100
2, 26874, Note_on_c, 0, 83, 0
2, 26880, Note_on_c, 0, 84, 100
2, 26934, Note_on_c, 0, 84, 0
2, 26940, Note_on_c, 0, 83, 100
2, 26994, Note_on_c, 0, 83, 0
2, 27000, Note_on_c, 0, 84, 100
2, 27174, Note_on_c, 0, 84, 0
2, 27180, Note_on_c, 0, 83, 100
2, 27234, Note_on_c, 0, 83, 0
2, 27240, Note_on_c, 0, 84, 100
2, 27294, Note_on_c, 0, 84, 0
2, 27300, Note_on_c, 0, 83, 100
2, 27354, Note_on_c, 0, 83, 0
2, 27360, Note_on_c, 0, 84, 100
2, 27468, Note_on_c, 0, 84, 0
2, 27480, Note_on_c, 0, 83, 100
2, 27588, Note_on_c, 0, 83, 0
2, 27600, Note_on_c, 0, 81, 100
2, 27654, Note_on_c, 0, 81, 0
2, 27660, Note_on_c, 0, 79, 100
2, 27714, Note_on_c, 0, 79, 0
2, 27720, Note_on_c, 0, 81, 100
2, 27774, Note_on_c, 0, 81, 0
2, 27780, Note_on_c, 0, 79, 100
2, 27834, Note_on_c, 0, 79, 0
2, 27840, Note_on_c, 0, 78, 100
2, 27948, Note_on_c, 0, 78, 0
2, 27960, Note_on_c, 0, 71, 100
2, 28014, Note_on_c, 0, 71, 0
2, 28020, Note_on_c, 0, 72, 100
2, 28074, Note_on_c, 0, 72, 0
2, 28080, Note_on_c, 0, 74, 100
2, 28134, Note_on_c, 0, 74, 0
2, 28140, Note_on_c, 0, 72, 100
2, 28194, Note_on_c, 0, 72, 0
2, 28200, Note_on_c, 0, 74, 100
2, 28254, Note_on_c, 0, 74, 0
2, 28260, Note_on_c, 0, 72, 100
2, 28314, Note_on_c, 0, 72, 0
2, 28320, Note_on_c, 0, 71, 100
2, 28374, Note_on_c, 0, 71, 0
2, 28380, Note_on_c, 0, 69, 100
2, 28434, Note_on_c, 0, 69, 0
2, 28440, Note_on_c, 0, 71, 100
2, 28494, Note_on_c, 0, 71, 0
2, 28500, Note_on_c, 0, 74, 100
2, 28554, Note_on_c, 0, 74, 0
2, 28560, Note_on_c, 0, 68, 100
2, 28614, Note_on_c, 0, 68, 0
2, 28620, Note_on_c, 0, 69, 100
2, 28674, Note_on_c, 0, 69, 0
2, 28680, Note_on_c, 0, 68, 100
2, 28734, Note_on_c, 0, 68, 0
2, 28740, Note_on_c, 0, 69, 100
2, 28794, Note_on_c, 0, 69, 0
2, 28800, Note_on_c, 0, 71, 100
2, 28908, Note_on_c, 0, 71, 0
2, 28920, Note_on_c, 0, 76, 100
2, 28974, Note_on_c, 0, 76, 0
2, 28980, Note_on_c, 0, 74, 100
2, 29034, Note_on_c, 0, 74, 0
2, 29040, Note_on_c, 0, 72, 100
2, 29094, Note_on_c, 0, 72, 0
2, 29100, Note_on_c, 0, 74, 100
2, 29127, Note_on_c, 0, 74, 0
2, 29130, Note_on_c, 0, 71, 100
2, 29157, Note_on_c, 0, 71, 0
2, 29160, Note_on_c, 0, 69, 100
2, 29187, Note_on_c, 0, 69, 0
2, 29190, Note_on_c, 0, 71, 100
2, 29217, Note_on_c, 0, 71, 0
2, 29220, Note_on_c, 0, 68, 100
2, 29274, Note_on_c, 0, 68, 0
2, 29280, Note_on_c, 0, 69, 100
2, 29496, Note_on_c, 0, 69, 0
2, 29520, Note_on_c, 0, 81, 100
2, 29814, Note_on_c, 0, 81, 0
2, 29820, Note_on_c, 0, 83, 100
2, 29847, Note_on_c, 0, 83, 0
2, 29850, Note_on_c, 0, 81, 100
2, 29877, Note_on_c, 0, 81, 0
2, 29880, Note_on_c, 0, 79, 100
2, 29907, Note_on_c, 0, 79, 0
2, 29910, Note_on_c, 0, 81, 100
2, 29937, Note_on_c, 0, 81, 0
2, 29940, Note_on_c, 0, 78, 100
2, 29994, Note_on_c, 0, 78, 0
2, 30000, Note_on_c, 0, 79, 100
2, 30216, Note_on_c, 0, 79, 0
2, 30480, Note_on_c, 0, 79, 100
2, 30774, Note_on_c, 0, 79, 0
2, 30780, Note_on_c, 0, 81, 100
2, 30807, Note_on_c, 0, 81, 0
2, 30810, Note_on_c, 0, 79, 100
2, 30837, Note_on_c, 0, 79, 0
2, 30840, Note_on_c, 0, 77, 100
2, 30867, Note_on_c, 0, 77, 0
2, 30870, Note_on_c, 0, 79, 100
2, 30897, Note_on_c, 0, 79, 0
2, 30900, Note_on_c, 0, 76, 100
2, 30954, Note_on_c, 0, 76, 0
2, 30960, Note_on_c, 0, 77, 100
2, 31176, Note_on_c, 0, 77, 0
2, 31440, Note_on_c, 0, 77, 100
2, 31734, Note_on_c, 0, 77, 0
2, 31740, Note_on_c, 0, 79, 100
2, 31767, Note_on_c, 0, 79, 0
2, 31770, Note_on_c, 0, 77, 100
2, 31797, Note_on_c, 0, 77, 0
2, 31800, Note_on_c, 0, 76, 100
2, 31827, Note_on_c, 0, 76, 0
2, 31830, Note_on_c, 0, 77, 100
2, 31857, Note_on_c, 0, 77, 0
2, 31860, Note_on_c, 0, 74, 100
2, 31914, Note_on_c, 0, 74, 0
2, 31920, Note_on_c, 0, 72, 100
2, 31974, Note_on_c, 0, 72, 0
2, 31980, Note_on_c, 0, 74, 100
2, 32007, Note_on_c, 0, 74, 0
2, 32010, Note_on_c, 0, 72, 100
2, 32037, Note_on_c, 0, 72, 0
2, 32040, Note_on_c, 0, 71, 100
2, 32067, Note_on_c, 0, 71, 0
2, 32070, Note_on_c, 0, 72, 100
2, 32097, Note_on_c, 0, 72, 0
2, 32100, Note_on_c, 0, 69, 100
2, 32154, Note_on_c, 0, 69, 0
2, 32160, Note_on_c, 0, 68, 100
2, 32268, Note_on_c, 0, 68, 0
2, 32280, Note_on_c, 0, 69, 100
2, 32388, Note_on_c, 0, 69, 0
2, 32400, Note_on_c, 0, 71, 100
2, 32508, Note_on_c, 0, 71, 0
2, 32640, Note_on_c, 0, 64, 100
2, 32748, Note_on_c, 0, 64, 0
2, 32760, Note_on_c, 0, 68, 100
2, 32868, Note_on_c, 0, 68, 0
2, 32880, Note_on_c, 0, 69, 100
2, 32988, Note_on_c, 0, 69, 0
2, 33120, Note_on_c, 0, 77, 100
2, 33174, Note_on_c, 0, 77, 0
2, 33180, Note_on_c, 0, 76, 100
2, 33207, Note_on_c, 0, 76, 0
2, 33210, Note_on_c, 0, 74, 100
2, 33237, Note_on_c, 0, 74, 0
2, 33240, Note_on_c, 0, 72, 100
2, 33267, Note_on_c, 0, 72, 0
2, 33270, Note_on_c, 0, 74, 100
2, 33297, Note_on_c, 0, 74, 0
2, 33300, Note_on_c, 0, 71, 100
2, 33354, Note_on_c, 0, 71, 0
2, 33360, Note_on_c, 0, 69, 100
2, 33468, Note_on_c, 0, 69, 0
2, 33480, Note_on_c, 0, 68, 100
2, 33561, Note_on_c, 0, 68, 0
2, 33570, Note_on_c, 0, 69, 100
2, 33597, Note_on_c, 0, 69, 0
2, 33600, Note_on_c, 0, 69, 100
2, 33708, Note_on_c, 0, 69, 0
2, 33720, Note_on_c, 0, 69, 100
2, 33747, Note_on_c, 0, 69, 0
2, 33750, Note_on_c, 0, 71, 100
2, 33777, Note_on_c, 0, 71, 0
2, 33780, Note_on_c, 0, 71, 100
2, 33807, Note_on_c, 0, 71, 0
2, 33810, Note_on_c, 0, 69, 100
2, 33823, Note_on_c, 0, 69, 0
2, 33825, Note_on_c, 0, 71, 100
2, 33838, Note_on_c, 0, 71, 0
2, 33840, Note_on_c, 0, 72, 100
2, 34134, Note_on_c, 0, 72, 0
2, 34140, Note_on_c, 0, 69, 100
2, 34194, Note_on_c, 0, 69, 0
2, 34200, Note_on_c, 0, 71, 100
2, 34254, Note_on_c, 0, 71, 0
2, 34260, Note_on_c, 0, 76, 100
2, 34314, Note_on_c, 0, 76, 0
2, 34320, Note_on_c, 0, 75, 100
2, 34374, Note_on_c, 0, 75, 0
2, 34380, Note_on_c, 0, 76, 100
2, 34434, Note_on_c, 0, 76, 0
2, 34440, Note_on_c, 0, 81, 100
2, 34494, Note_on_c, 0, 81, 0
2, 34500, Note_on_c, 0, 84, 100
2, 34527, Note_on_c, 0, 84, 0
2, 34530, Note_on_c, 0, 83, 100
2, 34557, Note_on_c, 0, 83, 0
2, 34560, Note_on_c, 0, 84, 100
2, 34854, Note_on_c, 0, 84, 0
2, 34860, Note_on_c, 0, 83, 100
2, 34914, Note_on_c, 0, 83, 0
2, 34920, Note_on_c, 0, 81, 100
2, 34974, Note_on_c, 0, 81, 0
2, 34980, Note_on_c, 0, 79, 100
2, 35034, Note_on_c, 0, 79, 0
2, 35040, Note_on_c, 0, 78, 100
2, 35094, Note_on_c, 0, 78, 0
2, 35100, Note_on_c, 0, 76, 100
2, 35154, Note_on_c, 0, 76, 0
2, 35160, Note_on_c, 0, 75, 100
2, 35214, Note_on_c, 0, 75, 0
2, 35220, Note_on_c, 0, 76, 100
2, 35274, Note_on_c, 0, 76, 0
2, 35280, Note_on_c, 0, 82, 100
2, 35334, Note_on_c, 0, 82, 0
2, 35340, Note_on_c, 0, 81, 100
2, 35394, Note_on_c, 0, 81, 0
2, 35400, Note_on_c, 0, 80, 100
2, 35454, Note_on_c, 0, 80, 0
2, 35460, Note_on_c, 0, 81, 100
2, 35514, Note_on_c, 0, 81, 0
2, 35520, Note_on_c, 0, 74, 100
2, 35574, Note_on_c, 0, 74, 0
2, 35580, Note_on_c, 0, 73, 100
2, 35634, Note_on_c, 0, 73, 0
2, 35640, Note_on_c, 0, 74, 100
2, 35748, Note_on_c, 0, 74, 0
2, 35760, Note_on_c, 0, 83, 100
2, 36534, Note_on_c, 0, 83, 0
2, 36540, Note_on_c, 0, 84, 100
2, 36567, Note_on_c, 0, 84, 0
2, 36570, Note_on_c, 0, 83, 100
2, 36597, Note_on_c, 0, 83, 0
2, 36600, Note_on_c, 0, 81, 100
2, 36627, Note_on_c, 0, 81, 0
2, 36630, Note_on_c, 0, 83, 100
2, 36657, Note_on_c, 0, 83, 0
2, 36660, Note_on_c, 0, 80, 100
2, 36714, Note_on_c, 0, 80, 0
2, 36720, Note_on_c, 0, 81, 100
2, 37494, Note_on_c, 0, 81, 0
2, 37500, Note_on_c, 0, 83, 100
2, 37527, Note_on_c, 0, 83, 0
2, 37530, Note_on_c, 0, 81, 100
2, 37557, Note_on_c, 0, 81, 0
2, 37560, Note_on_c, 0, 80, 100
2, 37587, Note_on_c, 0, 80, 0
2, 37590, Note_on_c, 0, 81, 100
2, 37617, Note_on_c, 0, 81, 0
2, 37620, Note_on_c, 0, 78, 100
2, 37674, Note_on_c, 0, 78, 0
2, 37680, Note_on_c, 0, 80, 100
2, 37734, Note_on_c, 0, 80, 0
2, 37740, Note_on_c, 0, 81, 100
2, 37794, Note_on_c, 0, 81, 0
2, 37800, Note_on_c, 0, 80, 100
2, 37854, Note_on_c, 0, 80, 0
2, 37860, Note_on_c, 0, 81, 100
2, 37887, Note_on_c, 0, 81, 0
2, 37890, Note_on_c, 0, 83, 100
2, 37917, Note_on_c, 0, 83, 0
2, 37920, Note_on_c, 0, 77, 100
2, 38187, Note_on_c, 0, 77, 0
2, 38190, Note_on_c, 0, 79, 100
2, 38217, Note_on_c, 0, 79, 0
2, 38220, Note_on_c, 0, 77, 100
2, 38247, Note_on_c, 0, 77, 0
2, 38250, Note_on_c, 0, 76, 100
2, 38277, Note_on_c, 0, 76, 0
2, 38280, Note_on_c, 0, 74, 100
2, 38307, Note_on_c, 0, 74, 0
2, 38310, Note_on_c, 0, 76, 100
2, 38337, Note_on_c, 0, 76, 0
2, 38340, Note_on_c, 0, 73, 100
2, 38394, Note_on_c, 0, 73, 0
2, 38400, Note_on_c, 0, 74, 100
2, 38427, Note_on_c, 0, 74, 0
2, 38430, Note_on_c, 0, 83, 100
2, 38457, Note_on_c, 0, 83, 0
2, 38460, Note_on_c, 0, 80, 100
2, 38487, Note_on_c, 0, 80, 0
2, 38490, Note_on_c, 0, 77, 100
2, 38517, Note_on_c, 0, 77, 0
2, 38520, Note_on_c, 0, 76, 100
2, 38547, Note_on_c, 0, 76, 0
2, 38550, Note_on_c, 0, 74, 100
2, 38577, Note_on_c, 0, 74, 0
2, 38580, Note_on_c, 0, 72, 100
2, 38607, Note_on_c, 0, 72, 0
2, 38610, Note_on_c, 0, 71, 100
2, 38637, Note_on_c, 0, 71, 0
2, 38640, Note_on_c, 0, 72, 100
2, 38694, Note_on_c, 0, 72, 0
2, 38700, Note_on_c, 0, 76, 100
2, 38754, Note_on_c, 0, 76, 0
2, 38760, Note_on_c, 0, 81, 100
2, 38814, Note_on_c, 0, 81, 0
2, 38820, Note_on_c, 0, 80, 100
2, 38874, Note_on_c, 0, 80, 0
2, 38880, Note_on_c, 0, 81, 100
2, 39174, Note_on_c, 0, 81, 0
2, 39180, Note_on_c, 0, 83, 100
2, 39207, Note_on_c, 0, 83, 0
2, 39210, Note_on_c, 0, 84, 100
2, 39237, Note_on_c, 0, 84, 0
2, 39240, Note_on_c, 0, 83, 100
2, 39267, Note_on_c, 0, 83, 0
2, 39270, Note_on_c, 0, 84, 100
2, 39297, Note_on_c, 0, 84, 0
2, 39300, Note_on_c, 0, 81, 100
2, 39354, Note_on_c, 0, 81, 0
2, 39360, Note_on_c, 0, 80, 100
2, 39414, Note_on_c, 0, 80, 0
2, 39420, Note_on_c, 0, 81, 100
2, 39447, Note_on_c, 0, 81, 0
2, 39450, Note_on_c, 0, 83, 100
2, 39477, Note_on_c, 0, 83, 0
2, 39480, Note_on_c, 0, 76, 100
2, 39654, Note_on_c, 0, 76, 0
2, 39660, Note_on_c, 0, 81, 100
2, 39714, Note_on_c, 0, 81, 0
2, 39720, Note_on_c, 0, 83, 100
2, 39774, Note_on_c, 0, 83, 0
2, 39780, Note_on_c, 0, 84, 100
2, 39834, Note_on_c, 0, 84, 0
2, 39840, Note_on_c, 0, 77, 100
2, 39948, Note_on_c, 0, 77, 0
2, 39960, Note_on_c, 0, 76, 100
2, 40068, Note_on_c, 0, 76, 0
2, 40080, Note_on_c, 0, 74, 100
2, 40134, Note_on_c, 0, 74, 0
2, 40140, Note_on_c, 0, 80, 100
2, 40194, Note_on_c, 0, 80, 0
2, 40200, Note_on_c, 0, 81, 100
2, 40254, Note_on_c, 0, 81, 0
2, 40260, Note_on_c, 0, 83, 100
2, 40314, Note_on_c, 0, 83, 0
2, 40320, Note_on_c, 0, 76, 100
2, 40428, Note_on_c, 0, 76, 0
2, 40440, Note_on_c, 0, 74, 100
2, 40548, Note_on_c, 0, 74, 0
2, 40560, Note_on_c, 0, 72, 100
2, 40614, Note_on_c, 0, 72, 0
2, 40620, Note_on_c, 0, 78, 100
2, 40674, Note_on_c, 0, 78, 0
2, 40680, Note_on_c, 0, 80, 100
2, 40734, Note_on_c, 0, 80, 0
2, 40740, Note_on_c, 0, 81, 100
2, 40794, Note_on_c, 0, 81, 0
2, 40800, Note_on_c, 0, 74, 100
2, 40854, Note_on_c, 0, 74, 0
2, 40860, Note_on_c, 0, 76, 100
2, 40887, Note_on_c, 0, 76, 0
2, 40890, Note_on_c, 0, 77, 100
2, 40917, Note_on_c, 0, 77, 0
2, 40920, Note_on_c, 0, 76, 100
2, 40947, Note_on_c, 0, 76, 0
2, 40950, Note_on_c, 0, 77, 100
2, 40977, Note_on_c, 0, 77, 0
2, 40980, Note_on_c, 0, 74, 100
2, 41034, Note_on_c, 0, 74, 0
2, 41040, Note_on_c, 0, 72, 100
2, 41148, Note_on_c, 0, 72, 0
2, 41160, Note_on_c, 0, 71, 100
2, 41214, Note_on_c, 0, 71, 0
2, 41220, Note_on_c, 0, 69, 100
2, 41274, Note_on_c, 0, 69, 0
2, 41280, Note_on_c, 0, 69, 100
2, 41496, Note_on_c, 0, 69, 0
2, 41496, End_track
3, 0, Start_track
3, 0, Sequence_number, 255
3, 0, MIDI_port, 0
3, 0, Title_t, "~"
3, 0, Control_c, 1, 0, 0
3, 0, Control_c, 1, 32, 0
3, 0, Program_c, 1, 6
3, 0, Control_c, 1, 7, 80
3, 0, Control_c, 1, 10, 49
3, 2880, Note_on_c, 1, 45, 100
3, 3096, Note_on_c, 1, 45, 0
3, 3120, Note_on_c, 1, 57, 100
3, 3228, Note_on_c, 1, 57, 0
3, 3240, Note_on_c, 1, 59, 100
3, 3348, Note_on_c, 1, 59, 0
3, 3360, Note_on_c, 1, 60, 100
3, 3468, Note_on_c, 1, 60, 0
3, 3480, Note_on_c, 1, 59, 100
3, 3534, Note_on_c, 1, 59, 0
3, 3540, Note_on_c, 1, 57, 100
3, 3594, Note_on_c, 1, 57, 0
3, 3600, Note_on_c, 1, 64, 100
3, 3708, Note_on_c, 1, 64, 0
3, 3720, Note_on_c, 1, 64, 100
3, 3828, Note_on_c, 1, 64, 0
3, 3840, Note_on_c, 1, 64, 100
3, 4056, Note_on_c, 1, 64, 0
3, 4080, Note_on_c, 1, 57, 100
3, 4188, Note_on_c, 1, 57, 0
3, 4200, Note_on_c, 1, 59, 100
3, 4308, Note_on_c, 1, 59, 0
3, 4320, Note_on_c, 1, 61, 100
3, 4428, Note_on_c, 1, 61, 0
3, 4440, Note_on_c, 1, 59, 100
3, 4494, Note_on_c, 1, 59, 0
3, 4500, Note_on_c, 1, 57, 100
3, 4554, Note_on_c, 1, 57, 0
3, 4560, Note_on_c, 1, 62, 100
3, 4668, Note_on_c, 1, 62, 0
3, 4680, Note_on_c, 1, 62, 100
3, 4788, Note_on_c, 1, 62, 0
3, 4800, Note_on_c, 1, 62, 100
3, 5016, Note_on_c, 1, 62, 0
3, 5040, Note_on_c, 1, 55, 100
3, 5148, Note_on_c, 1, 55, 0
3, 5160, Note_on_c, 1, 57, 100
3, 5268, Note_on_c, 1, 57, 0
3, 5280, Note_on_c, 1, 59, 100
3, 5388, Note_on_c, 1, 59, 0
3, 5400, Note_on_c, 1, 57, 100
3, 5454, Note_on_c, 1, 57, 0
3, 5460, Note_on_c, 1, 55, 100
3, 5514, Note_on_c, 1, 55, 0
3, 5520, Note_on_c, 1, 60, 100
3, 5628, Note_on_c, 1, 60, 0
3, 5640, Note_on_c, 1, 60, 100
3, 5748, Note_on_c, 1, 60, 0
3, 5760, Note_on_c, 1, 60, 100
3, 5868, Note_on_c, 1, 60, 0
3, 5880, Note_on_c, 1, 58, 100
3, 5988, Note_on_c, 1, 58, 0
3, 6000, Note_on_c, 1, 57, 100
3, 6108, Note_on_c, 1, 57, 0
3, 6120, Note_on_c, 1, 55, 100
3, 6228, Note_on_c, 1, 55, 0
3, 6240, Note_on_c, 1, 53, 100
3, 6348, Note_on_c, 1, 53, 0
3, 6360, Note_on_c, 1, 55, 100
3, 6468, Note_on_c, 1, 55, 0
3, 6480, Note_on_c, 1, 57, 100
3, 6588, Note_on_c, 1, 57, 0
3, 6600, Note_on_c, 1, 53, 100
3, 6708, Note_on_c, 1, 53, 0
3, 6720, Note_on_c, 1, 55, 100
3, 6828, Note_on_c, 1, 55, 0
3, 6840, Note_on_c, 1, 57, 100
3, 6948, Note_on_c, 1, 57, 0
3, 6960, Note_on_c, 1, 59, 100
3, 7068, Note_on_c, 1, 59, 0
3, 7080, Note_on_c, 1, 57, 100
3, 7134, Note_on_c, 1, 57, 0
3, 7140, Note_on_c, 1, 55, 100
3, 7194, Note_on_c, 1, 55, 0
3, 7200, Note_on_c, 1, 60, 100
3, 7308, Note_on_c, 1, 60, 0
3, 7320, Note_on_c, 1, 53, 100
3, 7428, Note_on_c, 1, 53, 0
3, 7440, Note_on_c, 1, 55, 100
3, 7548, Note_on_c, 1, 55, 0
3, 7560, Note_on_c, 1, 43, 100
3, 7668, Note_on_c, 1, 43, 0
3, 7680, Note_on_c, 1, 36, 100
3, 7896, Note_on_c, 1, 36, 0
3, 10800, Note_on_c, 1, 48, 100
3, 10908, Note_on_c, 1, 48, 0
3, 10920, Note_on_c, 1, 50, 100
3, 11028, Note_on_c, 1, 50, 0
3, 11040, Note_on_c, 1, 52, 100
3, 11148, Note_on_c, 1, 52, 0
3, 11160, Note_on_c, 1, 50, 100
3, 11214, Note_on_c, 1, 50, 0
3, 11220, Note_on_c, 1, 48, 100
3, 11274, Note_on_c, 1, 48, 0
3, 11280, Note_on_c, 1, 55, 100
3, 11388, Note_on_c, 1, 55, 0
3, 11400, Note_on_c, 1, 55, 100
3, 11508, Note_on_c, 1, 55, 0
3, 11520, Note_on_c, 1, 55, 100
3, 11736, Note_on_c, 1, 55, 0
3, 11760, Note_on_c, 1, 43, 100
3, 11868, Note_on_c, 1, 43, 0
3, 11880, Note_on_c, 1, 45, 100
3, 11988, Note_on_c, 1, 45, 0
3, 12000, Note_on_c, 1, 47, 100
3, 12108, Note_on_c, 1, 47, 0
3, 12120, Note_on_c, 1, 45, 100
3, 12174, Note_on_c, 1, 45, 0
3, 12180, Note_on_c, 1, 43, 100
3, 12234, Note_on_c, 1, 43, 0
3, 12240, Note_on_c, 1, 50, 100
3, 12348, Note_on_c, 1, 50, 0
3, 12360, Note_on_c, 1, 50, 100
3, 12468, Note_on_c, 1, 50, 0
3, 12480, Note_on_c, 1, 50, 100
3, 12696, Note_on_c, 1, 50, 0
3, 12720, Note_on_c, 1, 50, 100
3, 12828, Note_on_c, 1, 50, 0
3, 12840, Note_on_c, 1, 52, 100
3, 12948, Note_on_c, 1, 52, 0
3, 12960, Note_on_c, 1, 53, 100
3, 13068, Note_on_c, 1, 53, 0
3, 13080, Note_on_c, 1, 52, 100
3, 13134, Note_on_c, 1, 52, 0
3, 13140, Note_on_c, 1, 50, 100
3, 13194, Note_on_c, 1, 50, 0
3, 13200, Note_on_c, 1, 57, 100
3, 13308, Note_on_c, 1, 57, 0
3, 13320, Note_on_c, 1, 57, 100
3, 13428, Note_on_c, 1, 57, 0
3, 13440, Note_on_c, 1, 57, 100
3, 13656, Note_on_c, 1, 57, 0
3, 13680, Note_on_c, 1, 57, 100
3, 13788, Note_on_c, 1, 57, 0
3, 13800, Note_on_c, 1, 59, 100
3, 13908, Note_on_c, 1, 59, 0
3, 13920, Note_on_c, 1, 60, 100
3, 14028, Note_on_c, 1, 60, 0
3, 14040, Note_on_c, 1, 59, 100
3, 14094, Note_on_c, 1, 59, 0
3, 14100, Note_on_c, 1, 57, 100
3, 14154, Note_on_c, 1, 57, 0
3, 14160, Note_on_c, 1, 64, 100
3, 14268, Note_on_c, 1, 64, 0
3, 14280, Note_on_c, 1, 64, 100
3, 14388, Note_on_c, 1, 64, 0
3, 14400, Note_on_c, 1, 64, 100
3, 14616, Note_on_c, 1, 64, 0
3, 14640, Note_on_c, 1, 52, 100
3, 14694, Note_on_c, 1, 52, 0
3, 14700, Note_on_c, 1, 64, 100
3, 14754, Note_on_c, 1, 64, 0
3, 14760, Note_on_c, 1, 62, 100
3, 14814, Note_on_c, 1, 62, 0
3, 14820, Note_on_c, 1, 60, 100
3, 14874, Note_on_c, 1, 60, 0
3, 14880, Note_on_c, 1, 62, 100
3, 14934, Note_on_c, 1, 62, 0
3, 14940, Note_on_c, 1, 59, 100
3, 14994, Note_on_c, 1, 59, 0
3, 15000, Note_on_c, 1, 60, 100
3, 15054, Note_on_c, 1, 60, 0
3, 15060, Note_on_c, 1, 57, 100
3, 15114, Note_on_c, 1, 57, 0
3, 15120, Note_on_c, 1, 52, 100
3, 15174, Note_on_c, 1, 52, 0
3, 15180, Note_on_c, 1, 62, 100
3, 15234, Note_on_c, 1, 62, 0
3, 15240, Note_on_c, 1, 60, 100
3, 15294, Note_on_c, 1, 60, 0
3, 15300, Note_on_c, 1, 59, 100
3, 15354, Note_on_c, 1, 59, 0
3, 15360, Note_on_c, 1, 60, 100
3, 15414, Note_on_c, 1, 60, 0
3, 15420, Note_on_c, 1, 57, 100
3, 15474, Note_on_c, 1, 57, 0
3, 15480, Note_on_c, 1, 59, 100
3, 15534, Note_on_c, 1, 59, 0
3, 15540, Note_on_c, 1, 56, 100
3, 15594, Note_on_c, 1, 56, 0
3, 15600, Note_on_c, 1, 52, 100
3, 15654, Note_on_c, 1, 52, 0
3, 15660, Note_on_c, 1, 60, 100
3, 15714, Note_on_c, 1, 60, 0
3, 15720, Note_on_c, 1, 59, 100
3, 15774, Note_on_c, 1, 59, 0
3, 15780, Note_on_c, 1, 57, 100
3, 15834, Note_on_c, 1, 57, 0
3, 15840, Note_on_c, 1, 59, 100
3, 15894, Note_on_c, 1, 59, 0
3, 15900, Note_on_c, 1, 56, 100
3, 15954, Note_on_c, 1, 56, 0
3, 15960, Note_on_c, 1, 57, 100
3, 16014, Note_on_c, 1, 57, 0
3, 16020, Note_on_c, 1, 50, 100
3, 16074, Note_on_c, 1, 50, 0
3, 16080, Note_on_c, 1, 52, 100
3, 16188, Note_on_c, 1, 52, 0
3, 16200, Note_on_c, 1, 40, 100
3, 16308, Note_on_c, 1, 40, 0
3, 16320, Note_on_c, 1, 45, 100
3, 16536, Note_on_c, 1, 45, 0
3, 16560, Note_on_c, 1, 57, 100
3, 16668, Note_on_c, 1, 57, 0
3, 16680, Note_on_c, 1, 55, 100
3, 16788, Note_on_c, 1, 55, 0
3, 16800, Note_on_c, 1, 54, 100
3, 16908, Note_on_c, 1, 54, 0
3, 16920, Note_on_c, 1, 55, 100
3, 16974, Note_on_c, 1, 55, 0
3, 16980, Note_on_c, 1, 57, 100
3, 17034, Note_on_c, 1, 57, 0
3, 17040, Note_on_c, 1, 47, 100
3, 17148, Note_on_c, 1, 47, 0
3, 17160, Note_on_c, 1, 47, 100
3, 17268, Note_on_c, 1, 47, 0
3, 17280, Note_on_c, 1, 47, 100
3, 17496, Note_on_c, 1, 47, 0
3, 17520, Note_on_c, 1, 55, 100
3, 17628, Note_on_c, 1, 55, 0
3, 17640, Note_on_c, 1, 54, 100
3, 17748, Note_on_c, 1, 54, 0
3, 17760, Note_on_c, 1, 52, 100
3, 17868, Note_on_c, 1, 52, 0
3, 17880, Note_on_c, 1, 54, 100
3, 17934, Note_on_c, 1, 54, 0
3, 17940, Note_on_c, 1, 55, 100
3, 17994, Note_on_c, 1, 55, 0
3, 18000, Note_on_c, 1, 45, 100
3, 18108, Note_on_c, 1, 45, 0
3, 18120, Note_on_c, 1, 45, 100
3, 18228, Note_on_c, 1, 45, 0
3, 18240, Note_on_c, 1, 45, 100
3, 18456, Note_on_c, 1, 45, 0
3, 18480, Note_on_c, 1, 54, 100
3, 18588, Note_on_c, 1, 54, 0
3, 18600, Note_on_c, 1, 52, 100
3, 18708, Note_on_c, 1, 52, 0
3, 18720, Note_on_c, 1, 51, 100
3, 18828, Note_on_c, 1, 51, 0
3, 18840, Note_on_c, 1, 52, 100
3, 18894, Note_on_c, 1, 52, 0
3, 18900, Note_on_c, 1, 54, 100
3, 18954, Note_on_c, 1, 54, 0
3, 18960, Note_on_c, 1, 43, 100
3, 19068, Note_on_c, 1, 43, 0
3, 19080, Note_on_c, 1, 43, 100
3, 19188, Note_on_c, 1, 43, 0
3, 19200, Note_on_c, 1, 43, 100
3, 19416, Note_on_c, 1, 43, 0
3, 19440, Note_on_c, 1, 52, 100
3, 19548, Note_on_c, 1, 52, 0
3, 19560, Note_on_c, 1, 54, 100
3, 19668, Note_on_c, 1, 54, 0
3, 19680, Note_on_c, 1, 55, 100
3, 19788, Note_on_c, 1, 55, 0
3, 19800, Note_on_c, 1, 54, 100
3, 19854, Note_on_c, 1, 54, 0
3, 19860, Note_on_c, 1, 52, 100
3, 19914, Note_on_c, 1, 52, 0
3, 19920, Note_on_c, 1, 59, 100
3, 20028, Note_on_c, 1, 59, 0
3, 20040, Note_on_c, 1, 59, 100
3, 20148, Note_on_c, 1, 59, 0
3, 20160, Note_on_c, 1, 59, 100
3, 20376, Note_on_c, 1, 59, 0
3, 20400, Note_on_c, 1, 47, 100
3, 20454, Note_on_c, 1, 47, 0
3, 20460, Note_on_c, 1, 59, 100
3, 20514, Note_on_c, 1, 59, 0
3, 20520, Note_on_c, 1, 57, 100
3, 20574, Note_on_c, 1, 57, 0
3, 20580, Note_on_c, 1, 55, 100
3, 20634, Note_on_c, 1, 55, 0
3, 20640, Note_on_c, 1, 57, 100
3, 20694, Note_on_c, 1, 57, 0
3, 20700, Note_on_c, 1, 54, 100
3, 20754, Note_on_c, 1, 54, 0
3, 20760, Note_on_c, 1, 55, 100
3, 20814, Note_on_c, 1, 55, 0
3, 20820, Note_on_c, 1, 52, 100
3, 20874, Note_on_c, 1, 52, 0
3, 20880, Note_on_c, 1, 47, 100
3, 20934, Note_on_c, 1, 47, 0
3, 20940, Note_on_c, 1, 57, 100
3, 20994, Note_on_c, 1, 57, 0
3, 21000, Note_on_c, 1, 55, 100
3, 21054, Note_on_c, 1, 55, 0
3, 21060, Note_on_c, 1, 54, 100
3, 21114, Note_on_c, 1, 54, 0
3, 21120, Note_on_c, 1, 55, 100
3, 21174, Note_on_c, 1, 55, 0
3, 21180, Note_on_c, 1, 52, 100
3, 21234, Note_on_c, 1, 52, 0
3, 21240, Note_on_c, 1, 54, 100
3, 21294, Note_on_c, 1, 54, 0
3, 21300, Note_on_c, 1, 51, 100
3, 21354, Note_on_c, 1, 51, 0
3, 21360, Note_on_c, 1, 47, 100
3, 21414, Note_on_c, 1, 47, 0
3, 21420, Note_on_c, 1, 55, 100
3, 21474, Note_on_c, 1, 55, 0
3, 21480, Note_on_c, 1, 54, 100
3, 21534, Note_on_c, 1, 54, 0
3, 21540, Note_on_c, 1, 52, 100
3, 21594, Note_on_c, 1, 52, 0
3, 21600, Note_on_c, 1, 54, 100
3, 21654, Note_on_c, 1, 54, 0
3, 21660, Note_on_c, 1, 51, 100
3, 21714, Note_on_c, 1, 51, 0
3, 21720, Note_on_c, 1, 52, 100
3, 21774, Note_on_c, 1, 52, 0
3, 21780, Note_on_c, 1, 57, 100
3, 21834, Note_on_c, 1, 57, 0
3, 21840, Note_on_c, 1, 59, 100
3, 21948, Note_on_c, 1, 59, 0
3, 21960, Note_on_c, 1, 47, 100
3, 22068, Note_on_c, 1, 47, 0
3, 22080, Note_on_c, 1, 40, 100
3, 22296, Note_on_c, 1, 40, 0
3, 24960, Note_on_c, 1, 40, 100
3, 25176, Note_on_c, 1, 40, 0
3, 25200, Note_on_c, 1, 52, 100
3, 25308, Note_on_c, 1, 52, 0
3, 25320, Note_on_c, 1, 53, 100
3, 25428, Note_on_c, 1, 53, 0
3, 25440, Note_on_c, 1, 55, 100
3, 25548, Note_on_c, 1, 55, 0
3, 25560, Note_on_c, 1, 53, 100
3, 25614, Note_on_c, 1, 53, 0
3, 25620, Note_on_c, 1, 52, 100
3, 25674, Note_on_c, 1, 52, 0
3, 25680, Note_on_c, 1, 58, 100
3, 25788, Note_on_c, 1, 58, 0
3, 25800, Note_on_c, 1, 58, 100
3, 25908, Note_on_c, 1, 58, 0
3, 25920, Note_on_c, 1, 49, 100
3, 26136, Note_on_c, 1, 49, 0
3, 26160, Note_on_c, 1, 45, 100
3, 26268, Note_on_c, 1, 45, 0
3, 26280, Note_on_c, 1, 46, 100
3, 26388, Note_on_c, 1, 46, 0
3, 26400, Note_on_c, 1, 48, 100
3, 26508, Note_on_c, 1, 48, 0
3, 26520, Note_on_c, 1, 46, 100
3, 26574, Note_on_c, 1, 46, 0
3, 26580, Note_on_c, 1, 45, 100
3, 26634, Note_on_c, 1, 45, 0
3, 26640, Note_on_c, 1, 51, 100
3, 26748, Note_on_c, 1, 51, 0
3, 26760, Note_on_c, 1, 51, 100
3, 26868, Note_on_c, 1, 51, 0
3, 26880, Note_on_c, 1, 42, 100
3, 27096, Note_on_c, 1, 42, 0
3, 27120, Note_on_c, 1, 54, 100
3, 27228, Note_on_c, 1, 54, 0
3, 27240, Note_on_c, 1, 55, 100
3, 27348, Note_on_c, 1, 55, 0
3, 27360, Note_on_c, 1, 57, 100
3, 27468, Note_on_c, 1, 57, 0
3, 27480, Note_on_c, 1, 55, 100
3, 27534, Note_on_c, 1, 55, 0
3, 27540, Note_on_c, 1, 54, 100
3, 27594, Note_on_c, 1, 54, 0
3, 27600, Note_on_c, 1, 60, 100
3, 27708, Note_on_c, 1, 60, 0
3, 27720, Note_on_c, 1, 60, 100
3, 27828, Note_on_c, 1, 60, 0
3, 27840, Note_on_c, 1, 51, 100
3, 28056, Note_on_c, 1, 51, 0
3, 28080, Note_on_c, 1, 47, 100
3, 28188, Note_on_c, 1, 47, 0
3, 28200, Note_on_c, 1, 48, 100
3, 28308, Note_on_c, 1, 48, 0
3, 28320, Note_on_c, 1, 50, 100
3, 28428, Note_on_c, 1, 50, 0
3, 28440, Note_on_c, 1, 48, 100
3, 28494, Note_on_c, 1, 48, 0
3, 28500, Note_on_c, 1, 47, 100
3, 28554, Note_on_c, 1, 47, 0
3, 28560, Note_on_c, 1, 53, 100
3, 28668, Note_on_c, 1, 53, 0
3, 28680, Note_on_c, 1, 53, 100
3, 28788, Note_on_c, 1, 53, 0
3, 28800, Note_on_c, 1, 44, 100
3, 29016, Note_on_c, 1, 44, 0
3, 29040, Note_on_c, 1, 57, 100
3, 29148, Note_on_c, 1, 57, 0
3, 29160, Note_on_c, 1, 59, 100
3, 29268, Note_on_c, 1, 59, 0
3, 29280, Note_on_c, 1, 60, 100
3, 29388, Note_on_c, 1, 60, 0
3, 29400, Note_on_c, 1, 59, 100
3, 29454, Note_on_c, 1, 59, 0
3, 29460, Note_on_c, 1, 57, 100
3, 29514, Note_on_c, 1, 57, 0
3, 29520, Note_on_c, 1, 66, 100
3, 29628, Note_on_c, 1, 66, 0
3, 29640, Note_on_c, 1, 66, 100
3, 29748, Note_on_c, 1, 66, 0
3, 29760, Note_on_c, 1, 55, 100
3, 29976, Note_on_c, 1, 55, 0
3, 30000, Note_on_c, 1, 55, 100
3, 30108, Note_on_c, 1, 55, 0
3, 30120, Note_on_c, 1, 57, 100
3, 30228, Note_on_c, 1, 57, 0
3, 30240, Note_on_c, 1, 58, 100
3, 30348, Note_on_c, 1, 58, 0
3, 30360, Note_on_c, 1, 57, 100
3, 30414, Note_on_c, 1, 57, 0
3, 30420, Note_on_c, 1, 55, 100
3, 30474, Note_on_c, 1, 55, 0
3, 30480, Note_on_c, 1, 64, 100
3, 30588, Note_on_c, 1, 64, 0
3, 30600, Note_on_c, 1, 64, 100
3, 30708, Note_on_c, 1, 64, 0
3, 30720, Note_on_c, 1, 53, 100
3, 30936, Note_on_c, 1, 53, 0
3, 30960, Note_on_c, 1, 53, 100
3, 31068, Note_on_c, 1, 53, 0
3, 31080, Note_on_c, 1, 55, 100
3, 31188, Note_on_c, 1, 55, 0
3, 31200, Note_on_c, 1, 57, 100
3, 31308, Note_on_c, 1, 57, 0
3, 31320, Note_on_c, 1, 55, 100
3, 31374, Note_on_c, 1, 55, 0
3, 31380, Note_on_c, 1, 53, 100
3, 31434, Note_on_c, 1, 53, 0
3, 31440, Note_on_c, 1, 62, 100
3, 31548, Note_on_c, 1, 62, 0
3, 31560, Note_on_c, 1, 62, 100
3, 31668, Note_on_c, 1, 62, 0
3, 31680, Note_on_c, 1, 52, 100
3, 31974, Note_on_c, 1, 52, 0
3, 31980, Note_on_c, 1, 52, 100
3, 32034, Note_on_c, 1, 52, 0
3, 32040, Note_on_c, 1, 50, 100
3, 32094, Note_on_c, 1, 50, 0
3, 32100, Note_on_c, 1, 48, 100
3, 32154, Note_on_c, 1, 48, 0
3, 32160, Note_on_c, 1, 50, 100
3, 32214, Note_on_c, 1, 50, 0
3, 32220, Note_on_c, 1, 47, 100
3, 32274, Note_on_c, 1, 47, 0
3, 32280, Note_on_c, 1, 48, 100
3, 32334, Note_on_c, 1, 48, 0
3, 32340, Note_on_c, 1, 45, 100
3, 32394, Note_on_c, 1, 45, 0
3, 32400, Note_on_c, 1, 40, 100
3, 32454, Note_on_c, 1, 40, 0
3, 32460, Note_on_c, 1, 50, 100
3, 32514, Note_on_c, 1, 50, 0
3, 32520, Note_on_c, 1, 48, 100
3, 32574, Note_on_c, 1, 48, 0
3, 32580, Note_on_c, 1, 47, 100
3, 32634, Note_on_c, 1, 47, 0
3, 32640, Note_on_c, 1, 48, 100
3, 32694, Note_on_c, 1, 48, 0
3, 32700, Note_on_c, 1, 45, 100
3, 32754, Note_on_c, 1, 45, 0
3, 32760, Note_on_c, 1, 47, 100
3, 32814, Note_on_c, 1, 47, 0
3, 32820, Note_on_c, 1, 44, 100
3, 32874, Note_on_c, 1, 44, 0
3, 32880, Note_on_c, 1, 40, 100
3, 32934, Note_on_c, 1, 40, 0
3, 32940, Note_on_c, 1, 48, 100
3, 32994, Note_on_c, 1, 48, 0
3, 33000, Note_on_c, 1, 47, 100
3, 33054, Note_on_c, 1, 47, 0
3, 33060, Note_on_c, 1, 45, 100
3, 33114, Note_on_c, 1, 45, 0
3, 33120, Note_on_c, 1, 47, 100
3, 33174, Note_on_c, 1, 47, 0
3, 33180, Note_on_c, 1, 44, 100
3, 33234, Note_on_c, 1, 44, 0
3, 33240, Note_on_c, 1, 45, 100
3, 33294, Note_on_c, 1, 45, 0
3, 33300, Note_on_c, 1, 50, 100
3, 33354, Note_on_c, 1, 50, 0
3, 33360, Note_on_c, 1, 52, 100
3, 33468, Note_on_c, 1, 52, 0
3, 33480, Note_on_c, 1, 40, 100
3, 33588, Note_on_c, 1, 40, 0
3, 33600, Note_on_c, 1, 42, 100
3, 33816, Note_on_c, 1, 42, 0
3, 33840, Note_on_c, 1, 54, 100
3, 33948, Note_on_c, 1, 54, 0
3, 33960, Note_on_c, 1, 55, 100
3, 34068, Note_on_c, 1, 55, 0
3, 34080, Note_on_c, 1, 57, 100
3, 34188, Note_on_c, 1, 57, 0
3, 34200, Note_on_c, 1, 55, 100
3, 34254, Note_on_c, 1, 55, 0
3, 34260, Note_on_c, 1, 54, 100
3, 34314, Note_on_c, 1, 54, 0
3, 34320, Note_on_c, 1, 60, 100
3, 34428, Note_on_c, 1, 60, 0
3, 34440, Note_on_c, 1, 60, 100
3, 34548, Note_on_c, 1, 60, 0
3, 34560, Note_on_c, 1, 39, 100
3, 34776, Note_on_c, 1, 39, 0
3, 34800, Note_on_c, 1, 57, 100
3, 34908, Note_on_c, 1, 57, 0
3, 34920, Note_on_c, 1, 59, 100
3, 35028, Note_on_c, 1, 59, 0
3, 35040, Note_on_c, 1, 60, 100
3, 35148, Note_on_c, 1, 60, 0
3, 35160, Note_on_c, 1, 59, 100
3, 35214, Note_on_c, 1, 59, 0
3, 35220, Note_on_c, 1, 57, 100
3, 35274, Note_on_c, 1, 57, 0
3, 35280, Note_on_c, 1, 65, 100
3, 35388, Note_on_c, 1, 65, 0
3, 35400, Note_on_c, 1, 65, 100
3, 35508, Note_on_c, 1, 65, 0
3, 35520, Note_on_c, 1, 44, 100
3, 35736, Note_on_c, 1, 44, 0
3, 35760, Note_on_c, 1, 59, 100
3, 35868, Note_on_c, 1, 59, 0
3, 35880, Note_on_c, 1, 57, 100
3, 35988, Note_on_c, 1, 57, 0
3, 36000, Note_on_c, 1, 56, 100
3, 36108, Note_on_c, 1, 56, 0
3, 36120, Note_on_c, 1, 57, 100
3, 36174, Note_on_c, 1, 57, 0
3, 36180, Note_on_c, 1, 59, 100
3, 36234, Note_on_c, 1, 59, 0
3, 36240, Note_on_c, 1, 48, 100
3, 36348, Note_on_c, 1, 48, 0
3, 36360, Note_on_c, 1, 48, 100
3, 36468, Note_on_c, 1, 48, 0
3, 36480, Note_on_c, 1, 48, 100
3, 36696, Note_on_c, 1, 48, 0
3, 36720, Note_on_c, 1, 57, 100
3, 36828, Note_on_c, 1, 57, 0
3, 36840, Note_on_c, 1, 55, 100
3, 36948, Note_on_c, 1, 55, 0
3, 36960, Note_on_c, 1, 53, 100
3, 37068, Note_on_c, 1, 53, 0
3, 37080, Note_on_c, 1, 55, 100
3, 37134, Note_on_c, 1, 55, 0
3, 37140, Note_on_c, 1, 57, 100
3, 37194, Note_on_c, 1, 57, 0
3, 37200, Note_on_c, 1, 47, 100
3, 37308, Note_on_c, 1, 47, 0
3, 37320, Note_on_c, 1, 47, 100
3, 37428, Note_on_c, 1, 47, 0
3, 37440, Note_on_c, 1, 47, 100
3, 37656, Note_on_c, 1, 47, 0
3, 37680, Note_on_c, 1, 50, 100
3, 37788, Note_on_c, 1, 50, 0
3, 37800, Note_on_c, 1, 48, 100
3, 37908, Note_on_c, 1, 48, 0
3, 37920, Note_on_c, 1, 47, 100
3, 38028, Note_on_c, 1, 47, 0
3, 38040, Note_on_c, 1, 48, 100
3, 38094, Note_on_c, 1, 48, 0
3, 38100, Note_on_c, 1, 50, 100
3, 38154, Note_on_c, 1, 50, 0
3, 38160, Note_on_c, 1, 40, 100
3, 38268, Note_on_c, 1, 40, 0
3, 38280, Note_on_c, 1, 40, 100
3, 38388, Note_on_c, 1, 40, 0
3, 38400, Note_on_c, 1, 40, 100
3, 38616, Note_on_c, 1, 40, 0
3, 38640, Note_on_c, 1, 57, 100
3, 38748, Note_on_c, 1, 57, 0
3, 38760, Note_on_c, 1, 59, 100
3, 38868, Note_on_c, 1, 59, 0
3, 38880, Note_on_c, 1, 60, 100
3, 38988, Note_on_c, 1, 60, 0
3, 39000, Note_on_c, 1, 59, 100
3, 39054, Note_on_c, 1, 59, 0
3, 39060, Note_on_c, 1, 57, 100
3, 39114, Note_on_c, 1, 57, 0
3, 39120, Note_on_c, 1, 64, 100
3, 39228, Note_on_c, 1, 64, 0
3, 39240, Note_on_c, 1, 64, 100
3, 39348, Note_on_c, 1, 64, 0
3, 39360, Note_on_c, 1, 64, 100
3, 39576, Note_on_c, 1, 64, 0
3, 39600, Note_on_c, 1, 52, 100
3, 39654, Note_on_c, 1, 52, 0
3, 39660, Note_on_c, 1, 64, 100
3, 39714, Note_on_c, 1, 64, 0
3, 39720, Note_on_c, 1, 62, 100
3, 39774, Note_on_c, 1, 62, 0
3, 39780, Note_on_c, 1, 60, 100
3, 39834, Note_on_c, 1, 60, 0
3, 39840, Note_on_c, 1, 62, 100
3, 39894, Note_on_c, 1, 62, 0
3, 39900, Note_on_c, 1, 59, 100
3, 39954, Note_on_c, 1, 59, 0
3, 39960, Note_on_c, 1, 60, 100
3, 40014, Note_on_c, 1, 60, 0
3, 40020, Note_on_c, 1, 57, 100
3, 40074, Note_on_c, 1, 57, 0
3, 40080, Note_on_c, 1, 52, 100
3, 40134, Note_on_c, 1, 52, 0
3, 40140, Note_on_c, 1, 62, 100
3, 40194, Note_on_c, 1, 62, 0
3, 40200, Note_on_c, 1, 60, 100
3, 40254, Note_on_c, 1, 60, 0
3, 40260, Note_on_c, 1, 59, 100
3, 40314, Note_on_c, 1, 59, 0
3, 40320, Note_on_c, 1, 60, 100
3, 40374, Note_on_c, 1, 60, 0
3, 40380, Note_on_c, 1, 57, 100
3, 40434, Note_on_c, 1, 57, 0
3, 40440, Note_on_c, 1, 59, 100
3, 40494, Note_on_c, 1, 59, 0
3, 40500, Note_on_c, 1, 56, 100
3, 40554, Note_on_c, 1, 56, 0
3, 40560, Note_on_c, 1, 52, 100
3, 40614, Note_on_c, 1, 52, 0
3, 40620, Note_on_c, 1, 60, 100
3, 40674, Note_on_c, 1, 60, 0
3, 40680, Note_on_c, 1, 59, 100
3, 40734, Note_on_c, 1, 59, 0
3, 40740, Note_on_c, 1, 57, 100
3, 40794, Note_on_c, 1, 57, 0
3, 40800, Note_on_c, 1, 59, 100
3, 40854, Note_on_c, 1, 59, 0
3, 40860, Note_on_c, 1, 56, 100
3, 40914, Note_on_c, 1, 56, 0
3, 40920, Note_on_c, 1, 57, 100
3, 40974, Note_on_c, 1, 57, 0
3, 40980, Note_on_c, 1, 50, 100
3, 41034, Note_on_c, 1, 50, 0
3, 41040, Note_on_c, 1, 52, 100
3, 41148, Note_on_c, 1, 52, 0
3, 41160, Note_on_c, 1, 40, 100
3, 41268, Note_on_c, 1, 40, 0
3, 41280, Note_on_c, 1, 45, 100
3, 41496, Note_on_c, 1, 45, 0
3, 41496, End_track
4, 0, Start_track
4, 0, Sequence_number, 255
4, 0, MIDI_port, 0
4, 0, Title_t, "Cembalo II"
4, 0, Control_c, 2, 0, 0
4, 0, Control_c, 2, 32, 0
4, 0, Program_c, 2, 6
4, 0, Control_c, 2, 7, 80
4, 0, Control_c, 2, 10, 64
4, 4080, Note_on_c, 2, 76, 100
4, 4107, Note_on_c, 2, 76, 0
4, 4110, Note_on_c, 2, 77, 100
4, 4137, Note_on_c, 2, 77, 0
4, 4140, Note_on_c, 2, 76, 100
4, 4167, Note_on_c, 2, 76, 0
4, 4170, Note_on_c, 2, 77, 100
4, 4197, Note_on_c, 2, 77, 0
4, 4200, Note_on_c, 2, 77, 100
4, 4254, Note_on_c, 2, 77, 0
4, 4260, Note_on_c, 2, 76, 100
4, 4287, Note_on_c, 2, 76, 0
4, 4290, Note_on_c, 2, 77, 100
4, 4317, Note_on_c, 2, 77, 0
4, 4320, Note_on_c, 2, 79, 100
4, 4614, Note_on_c, 2, 79, 0
4, 4620, Note_on_c, 2, 81, 100
4, 4647, Note_on_c, 2, 81, 0
4, 4650, Note_on_c, 2, 82, 100
4, 4677, Note_on_c, 2, 82, 0
4, 4680, Note_on_c, 2, 81, 100
4, 4707, Note_on_c, 2, 81, 0
4, 4710, Note_on_c, 2, 82, 100
4, 4737, Note_on_c, 2, 82, 0
4, 4740, Note_on_c, 2, 79, 100
4, 4794, Note_on_c, 2, 79, 0
4, 4800, Note_on_c, 2, 77, 100
4, 4854, Note_on_c, 2, 77, 0
4, 4860, Note_on_c, 2, 79, 100
4, 4887, Note_on_c, 2, 79, 0
4, 4890, Note_on_c, 2, 81, 100
4, 4917, Note_on_c, 2, 81, 0
4, 4920, Note_on_c, 2, 74, 100
4, 5094, Note_on_c, 2, 74, 0
4, 5100, Note_on_c, 2, 72, 100
4, 5154, Note_on_c, 2, 72, 0
4, 5160, Note_on_c, 2, 71, 100
4, 5214, Note_on_c, 2, 71, 0
4, 5220, Note_on_c, 2, 69, 100
4, 5274, Note_on_c, 2, 69, 0
4, 5280, Note_on_c, 2, 67, 100
4, 5574, Note_on_c, 2, 67, 0
4, 5580, Note_on_c, 2, 67, 100
4, 5634, Note_on_c, 2, 67, 0
4, 5640, Note_on_c, 2, 72, 100
4, 5694, Note_on_c, 2, 72, 0
4, 5700, Note_on_c, 2, 71, 100
4, 5754, Note_on_c, 2, 71, 0
4, 5760, Note_on_c, 2, 72, 100
4, 5868, Note_on_c, 2, 72, 0
4, 5880, Note_on_c, 2, 79, 100
4, 5988, Note_on_c, 2, 79, 0
4, 6000, Note_on_c, 2, 84, 100
4, 6348, Note_on_c, 2, 84, 0
4, 6360, Note_on_c, 2, 72, 100
4, 6468, Note_on_c, 2, 72, 0
4, 6480, Note_on_c, 2, 77, 100
4, 6774, Note_on_c, 2, 77, 0
4, 6780, Note_on_c, 2, 76, 100
4, 6834, Note_on_c, 2, 76, 0
4, 6840, Note_on_c, 2, 74, 100
4, 6894, Note_on_c, 2, 74, 0
4, 6900, Note_on_c, 2, 76, 100
4, 6954, Note_on_c, 2, 76, 0
4, 6960, Note_on_c, 2, 77, 100
4, 7014, Note_on_c, 2, 77, 0
4, 7020, Note_on_c, 2, 76, 100
4, 7074, Note_on_c, 2, 76, 0
4, 7080, Note_on_c, 2, 77, 100
4, 7134, Note_on_c, 2, 77, 0
4, 7140, Note_on_c, 2, 79, 100
4, 7194, Note_on_c, 2, 79, 0
4, 7200, Note_on_c, 2, 76, 100
4, 7254, Note_on_c, 2, 76, 0
4, 7260, Note_on_c, 2, 74, 100
4, 7314, Note_on_c, 2, 74, 0
4, 7320, Note_on_c, 2, 72, 100
4, 7374, Note_on_c, 2, 72, 0
4, 7380, Note_on_c, 2, 74, 100
4, 7434, Note_on_c, 2, 74, 0
4, 7440, Note_on_c, 2, 71, 100
4, 7602, Note_on_c, 2, 71, 0
4, 7620, Note_on_c, 2, 72, 100
4, 7674, Note_on_c, 2, 72, 0
4, 7680, Note_on_c, 2, 72, 100
4, 7896, Note_on_c, 2, 72, 0
4, 11640, Note_on_c, 2, 71, 100
4, 11694, Note_on_c, 2, 71, 0
4, 11700, Note_on_c, 2, 72, 100
4, 11754, Note_on_c, 2, 72, 0
4, 11760, Note_on_c, 2, 74, 100
4, 11814, Note_on_c, 2, 74, 0
4, 11820, Note_on_c, 2, 76, 100
4, 11874, Note_on_c, 2, 76, 0
4, 11880, Note_on_c, 2, 78, 100
4, 11934, Note_on_c, 2, 78, 0
4, 11940, Note_on_c, 2, 74, 100
4, 11994, Note_on_c, 2, 74, 0
4, 12000, Note_on_c, 2, 79, 100
4, 12054, Note_on_c, 2, 79, 0
4, 12060, Note_on_c, 2, 78, 100
4, 12114, Note_on_c, 2, 78, 0
4, 12120, Note_on_c, 2, 79, 100
4, 12294, Note_on_c, 2, 79, 0
4, 12300, Note_on_c, 2, 81, 100
4, 12327, Note_on_c, 2, 81, 0
4, 12330, Note_on_c, 2, 82, 100
4, 12357, Note_on_c, 2, 82, 0
4, 12360, Note_on_c, 2, 81, 100
4, 12387, Note_on_c, 2, 81, 0
4, 12390, Note_on_c, 2, 82, 100
4, 12417, Note_on_c, 2, 82, 0
4, 12420, Note_on_c, 2, 79, 100
4, 12474, Note_on_c, 2, 79, 0
4, 12480, Note_on_c, 2, 77, 100
4, 12534, Note_on_c, 2, 77, 0
4, 12540, Note_on_c, 2, 79, 100
4, 12567, Note_on_c, 2, 79, 0
4, 12570, Note_on_c, 2, 81, 100
4, 12597, Note_on_c, 2, 81, 0
4, 12600, Note_on_c, 2, 74, 100
4, 12708, Note_on_c, 2, 74, 0
4, 13020, Note_on_c, 2, 69, 100
4, 13074, Note_on_c, 2, 69, 0
4, 13080, Note_on_c, 2, 74, 100
4, 13134, Note_on_c, 2, 74, 0
4, 13140, Note_on_c, 2, 76, 100
4, 13194, Note_on_c, 2, 76, 0
4, 13200, Note_on_c, 2, 77, 100
4, 13254, Note_on_c, 2, 77, 0
4, 13260, Note_on_c, 2, 74, 100
4, 13314, Note_on_c, 2, 74, 0
4, 13320, Note_on_c, 2, 71, 100
4, 13374, Note_on_c, 2, 71, 0
4, 13380, Note_on_c, 2, 80, 100
4, 13434, Note_on_c, 2, 80, 0
4, 13440, Note_on_c, 2, 81, 100
4, 13494, Note_on_c, 2, 81, 0
4, 13500, Note_on_c, 2, 76, 100
4, 13554, Note_on_c, 2, 76, 0
4, 13560, Note_on_c, 2, 69, 100
4, 13614, Note_on_c, 2, 69, 0
4, 13620, Note_on_c, 2, 71, 100
4, 13674, Note_on_c, 2, 71, 0
4, 13680, Note_on_c, 2, 72, 100
4, 13734, Note_on_c, 2, 72, 0
4, 13740, Note_on_c, 2, 74, 100
4, 13794, Note_on_c, 2, 74, 0
4, 13800, Note_on_c, 2, 74, 100
4, 13854, Note_on_c, 2, 74, 0
4, 13860, Note_on_c, 2, 72, 100
4, 13887, Note_on_c, 2, 72, 0
4, 13890, Note_on_c, 2, 74, 100
4, 13917, Note_on_c, 2, 74, 0
4, 13920, Note_on_c, 2, 76, 100
4, 13974, Note_on_c, 2, 76, 0
4, 13980, Note_on_c, 2, 74, 100
4, 14034, Note_on_c, 2, 74, 0
4, 14040, Note_on_c, 2, 72, 100
4, 14094, Note_on_c, 2, 72, 0
4, 14100, Note_on_c, 2, 74, 100
4, 14154, Note_on_c, 2, 74, 0
4, 14160, Note_on_c, 2, 76, 100
4, 14214, Note_on_c, 2, 76, 0
4, 14220, Note_on_c, 2, 75, 100
4, 14274, Note_on_c, 2, 75, 0
4, 14280, Note_on_c, 2, 76, 100
4, 14334, Note_on_c, 2, 76, 0
4, 14340, Note_on_c, 2, 78, 100
4, 14394, Note_on_c, 2, 78, 0
4, 14400, Note_on_c, 2, 71, 100
4, 14454, Note_on_c, 2, 71, 0
4, 14460, Note_on_c, 2, 76, 100
4, 14514, Note_on_c, 2, 76, 0
4, 14520, Note_on_c, 2, 71, 100
4, 14574, Note_on_c, 2, 71, 0
4, 14580, Note_on_c, 2, 68, 100
4, 14634, Note_on_c, 2, 68, 0
4, 14640, Note_on_c, 2, 64, 100
4, 14748, Note_on_c, 2, 64, 0
4, 14880, Note_on_c, 2, 80, 100
4, 14988, Note_on_c, 2, 80, 0
4, 15000, Note_on_c, 2, 81, 100
4, 15108, Note_on_c, 2, 81, 0
4, 15120, Note_on_c, 2, 83, 100
4, 15228, Note_on_c, 2, 83, 0
4, 15360, Note_on_c, 2, 76, 100
4, 15468, Note_on_c, 2, 76, 0
4, 15480, Note_on_c, 2, 80, 100
4, 15588, Note_on_c, 2, 80, 0
4, 15600, Note_on_c, 2, 81, 100
4, 15708, Note_on_c, 2, 81, 0
4, 15840, Note_on_c, 2, 77, 100
4, 15894, Note_on_c, 2, 77, 0
4, 15900, Note_on_c, 2, 76, 100
4, 15927, Note_on_c, 2, 76, 0
4, 15930, Note_on_c, 2, 74, 100
4, 15957, Note_on_c, 2, 74, 0
4, 15960, Note_on_c, 2, 72, 100
4, 15987, Note_on_c, 2, 72, 0
4, 15990, Note_on_c, 2, 74, 100
4, 16017, Note_on_c, 2, 74, 0
4, 16020, Note_on_c, 2, 71, 100
4, 16074, Note_on_c, 2, 71, 0
4, 16080, Note_on_c, 2, 69, 100
4, 16188, Note_on_c, 2, 69, 0
4, 16200, Note_on_c, 2, 68, 100
4, 16281, Note_on_c, 2, 68, 0
4, 16290, Note_on_c, 2, 69, 100
4, 16317, Note_on_c, 2, 69, 0
4, 16320, Note_on_c, 2, 69, 100
4, 16536, Note_on_c, 2, 69, 0
4, 17040, Note_on_c, 2, 78, 100
4, 17334, Note_on_c, 2, 78, 0
4, 17340, Note_on_c, 2, 79, 100
4, 17367, Note_on_c, 2, 79, 0
4, 17370, Note_on_c, 2, 78, 100
4, 17397, Note_on_c, 2, 78, 0
4, 17400, Note_on_c, 2, 76, 100
4, 17427, Note_on_c, 2, 76, 0
4, 17430, Note_on_c, 2, 78, 100
4, 17457, Note_on_c, 2, 78, 0
4, 17460, Note_on_c, 2, 75, 100
4, 17514, Note_on_c, 2, 75, 0
4, 17520, Note_on_c, 2, 76, 100
4, 17736, Note_on_c, 2, 76, 0
4, 18000, Note_on_c, 2, 76, 100
4, 18294, Note_on_c, 2, 76, 0
4, 18300, Note_on_c, 2, 78, 100
4, 18327, Note_on_c, 2, 78, 0
4, 18330, Note_on_c, 2, 79, 100
4, 18357, Note_on_c, 2, 79, 0
4, 18360, Note_on_c, 2, 81, 100
4, 18387, Note_on_c, 2, 81, 0
4, 18390, Note_on_c, 2, 75, 100
4, 18417, Note_on_c, 2, 75, 0
4, 18420, Note_on_c, 2, 76, 100
4, 18474, Note_on_c, 2, 76, 0
4, 18480, Note_on_c, 2, 75, 100
4, 18696, Note_on_c, 2, 75, 0
4, 18960, Note_on_c, 2, 72, 100
4, 19254, Note_on_c, 2, 72, 0
4, 19260, Note_on_c, 2, 63, 100
4, 19314, Note_on_c, 2, 63, 0
4, 19320, Note_on_c, 2, 71, 100
4, 19347, Note_on_c, 2, 71, 0
4, 19350, Note_on_c, 2, 72, 100
4, 19377, Note_on_c, 2, 72, 0
4, 19380, Note_on_c, 2, 69, 100
4, 19434, Note_on_c, 2, 69, 0
4, 19440, Note_on_c, 2, 71, 100
4, 19494, Note_on_c, 2, 71, 0
4, 19500, Note_on_c, 2, 69, 100
4, 19554, Note_on_c, 2, 69, 0
4, 19560, Note_on_c, 2, 67, 100
4, 19614, Note_on_c, 2, 67, 0
4, 19620, Note_on_c, 2, 69, 100
4, 19674, Note_on_c, 2, 69, 0
4, 19680, Note_on_c, 2, 71, 100
4, 19734, Note_on_c, 2, 71, 0
4, 19740, Note_on_c, 2, 66, 100
4, 19794, Note_on_c, 2, 66, 0
4, 19800, Note_on_c, 2, 67, 100
4, 19974, Note_on_c, 2, 67, 0
4, 19980, Note_on_c, 2, 69, 100
4, 20007, Note_on_c, 2, 69, 0
4, 20010, Note_on_c, 2, 71, 100
4, 20037, Note_on_c, 2, 71, 0
4, 20040, Note_on_c, 2, 69, 100
4, 20067, Note_on_c, 2, 69, 0
4, 20070, Note_on_c, 2, 71, 100
4, 20097, Note_on_c, 2, 71, 0
4, 20100, Note_on_c, 2, 67, 100
4, 20154, Note_on_c, 2, 67, 0
4, 20160, Note_on_c, 2, 66, 100
4, 20376, Note_on_c, 2, 66, 0
4, 20640, Note_on_c, 2, 78, 100
4, 20748, Note_on_c, 2, 78, 0
4, 20760, Note_on_c, 2, 76, 100
4, 20868, Note_on_c, 2, 76, 0
4, 20880, Note_on_c, 2, 75, 100
4, 20988, Note_on_c, 2, 75, 0
4, 21120, Note_on_c, 2, 76, 100
4, 21174, Note_on_c, 2, 76, 0
4, 21180, Note_on_c, 2, 67, 100
4, 21234, Note_on_c, 2, 67, 0
4, 21240, Note_on_c, 2, 72, 100
4, 21294, Note_on_c, 2, 72, 0
4, 21300, Note_on_c, 2, 71, 100
4, 21354, Note_on_c, 2, 71, 0
4, 21360, Note_on_c, 2, 71, 100
4, 21654, Note_on_c, 2, 71, 0
4, 21660, Note_on_c, 2, 66, 100
4, 21714, Note_on_c, 2, 66, 0
4, 21720, Note_on_c, 2, 67, 100
4, 21774, Note_on_c, 2, 67, 0
4, 21780, Note_on_c, 2, 72, 100
4, 21894, Note_on_c, 2, 72, 0
4, 21900, Note_on_c, 2, 71, 100
4, 21927, Note_on_c, 2, 71, 0
4, 21930, Note_on_c, 2, 69, 100
4, 21957, Note_on_c, 2, 69, 0
4, 21960, Note_on_c, 2, 72, 100
4, 21987, Note_on_c, 2, 72, 0
4, 21990, Note_on_c, 2, 71, 100
4, 22071, Note_on_c, 2, 71, 0
4, 22080, Note_on_c, 2, 69, 100
4, 22134, Note_on_c, 2, 69, 0
4, 22140, Note_on_c, 2, 67, 100
4, 22167, Note_on_c, 2, 67, 0
4, 22170, Note_on_c, 2, 66, 100
4, 22197, Note_on_c, 2, 66, 0
4, 22200, Note_on_c, 2, 67, 100
4, 22308, Note_on_c, 2, 67, 0
4, 25020, Note_on_c, 2, 67, 100
4, 25047, Note_on_c, 2, 67, 0
4, 25050, Note_on_c, 2, 69, 100
4, 25077, Note_on_c, 2, 69, 0
4, 25080, Note_on_c, 2, 69, 100
4, 25161, Note_on_c, 2, 69, 0
4, 25170, Note_on_c, 2, 67, 100
4, 25183, Note_on_c, 2, 67, 0
4, 25185, Note_on_c, 2, 69, 100
4, 25198, Note_on_c, 2, 69, 0
4, 25200, Note_on_c, 2, 70, 100
4, 25254, Note_on_c, 2, 70, 0
4, 25260, Note_on_c, 2, 69, 100
4, 25314, Note_on_c, 2, 69, 0
4, 25320, Note_on_c, 2, 70, 100
4, 25374, Note_on_c, 2, 70, 0
4, 25380, Note_on_c, 2, 69, 100
4, 25434, Note_on_c, 2, 69, 0
4, 25440, Note_on_c, 2, 70, 100
4, 25548, Note_on_c, 2, 70, 0
4, 25560, Note_on_c, 2, 69, 100
4, 25668, Note_on_c, 2, 69, 0
4, 25680, Note_on_c, 2, 67, 100
4, 25734, Note_on_c, 2, 67, 0
4, 25740, Note_on_c, 2, 65, 100
4, 25794, Note_on_c, 2, 65, 0
4, 25800, Note_on_c, 2, 67, 100
4, 25854, Note_on_c, 2, 67, 0
4, 25860, Note_on_c, 2, 65, 100
4, 25914, Note_on_c, 2, 65, 0
4, 25920, Note_on_c, 2, 64, 100
4, 26028, Note_on_c, 2, 64, 0
4, 26040, Note_on_c, 2, 81, 100
4, 26094, Note_on_c, 2, 81, 0
4, 26100, Note_on_c, 2, 82, 100
4, 26154, Note_on_c, 2, 82, 0
4, 26160, Note_on_c, 2, 84, 100
4, 26214, Note_on_c, 2, 84, 0
4, 26220, Note_on_c, 2, 82, 100
4, 26274, Note_on_c, 2, 82, 0
4, 26280, Note_on_c, 2, 84, 100
4, 26334, Note_on_c, 2, 84, 0
4, 26340, Note_on_c, 2, 82, 100
4, 26394, Note_on_c, 2, 82, 0
4, 26400, Note_on_c, 2, 81, 100
4, 26454, Note_on_c, 2, 81, 0
4, 26460, Note_on_c, 2, 79, 100
4, 26514, Note_on_c, 2, 79, 0
4, 26520, Note_on_c, 2, 81, 100
4, 26574, Note_on_c, 2, 81, 0
4, 26580, Note_on_c, 2, 84, 100
4, 26634, Note_on_c, 2, 84, 0
4, 26640, Note_on_c, 2, 78, 100
4, 26694, Note_on_c, 2, 78, 0
4, 26700, Note_on_c, 2, 79, 100
4, 26754, Note_on_c, 2, 79, 0
4, 26760, Note_on_c, 2, 78, 100
4, 26814, Note_on_c, 2, 78, 0
4, 26820, Note_on_c, 2, 79, 100
4, 26874, Note_on_c, 2, 79, 0
4, 26880, Note_on_c, 2, 81, 100
4, 26988, Note_on_c, 2, 81, 0
4, 27000, Note_on_c, 2, 75, 100
4, 27174, Note_on_c, 2, 75, 0
4, 27180, Note_on_c, 2, 76, 100
4, 27234, Note_on_c, 2, 76, 0
4, 27240, Note_on_c, 2, 75, 100
4, 27294, Note_on_c, 2, 75, 0
4, 27300, Note_on_c, 2, 76, 100
4, 27354, Note_on_c, 2, 76, 0
4, 27360, Note_on_c, 2, 75, 100
4, 27414, Note_on_c, 2, 75, 0
4, 27420, Note_on_c, 2, 76, 100
4, 27474, Note_on_c, 2, 76, 0
4, 27480, Note_on_c, 2, 75, 100
4, 27534, Note_on_c, 2, 75, 0
4, 27540, Note_on_c, 2, 76, 100
4, 27594, Note_on_c, 2, 76, 0
4, 27600, Note_on_c, 2, 78, 100
4, 27654, Note_on_c, 2, 78, 0
4, 27660, Note_on_c, 2, 79, 100
4, 27714, Note_on_c, 2, 79, 0
4, 27720, Note_on_c, 2, 78, 100
4, 27774, Note_on_c, 2, 78, 0
4, 27780, Note_on_c, 2, 79, 100
4, 27834, Note_on_c, 2, 79, 0
4, 27840, Note_on_c, 2, 81, 100
4, 27948, Note_on_c, 2, 81, 0
4, 27960, Note_on_c, 2, 79, 100
4, 28014, Note_on_c, 2, 79, 0
4, 28020, Note_on_c, 2, 78, 100
4, 28074, Note_on_c, 2, 78, 0
4, 28080, Note_on_c, 2, 77, 100
4, 28134, Note_on_c, 2, 77, 0
4, 28140, Note_on_c, 2, 76, 100
4, 28194, Note_on_c, 2, 76, 0
4, 28200, Note_on_c, 2, 77, 100
4, 28254, Note_on_c, 2, 77, 0
4, 28260, Note_on_c, 2, 76, 100
4, 28314, Note_on_c, 2, 76, 0
4, 28320, Note_on_c, 2, 77, 100
4, 28428, Note_on_c, 2, 77, 0
4, 28440, Note_on_c, 2, 76, 100
4, 28548, Note_on_c, 2, 76, 0
4, 28560, Note_on_c, 2, 74, 100
4, 28614, Note_on_c, 2, 74, 0
4, 28620, Note_on_c, 2, 72, 100
4, 28674, Note_on_c, 2, 72, 0
4, 28680, Note_on_c, 2, 74, 100
4, 28734, Note_on_c, 2, 74, 0
4, 28740, Note_on_c, 2, 72, 100
4, 28794, Note_on_c, 2, 72, 0
4, 28800, Note_on_c, 2, 71, 100
4, 29016, Note_on_c, 2, 71, 0
4, 29520, Note_on_c, 2, 72, 100
4, 29814, Note_on_c, 2, 72, 0
4, 29820, Note_on_c, 2, 74, 100
4, 29847, Note_on_c, 2, 74, 0
4, 29850, Note_on_c, 2, 72, 100
4, 29877, Note_on_c, 2, 72, 0
4, 29880, Note_on_c, 2, 71, 100
4, 29907, Note_on_c, 2, 71, 0
4, 29910, Note_on_c, 2, 72, 100
4, 29937, Note_on_c, 2, 72, 0
4, 29940, Note_on_c, 2, 69, 100
4, 29994, Note_on_c, 2, 69, 0
4, 30000, Note_on_c, 2, 71, 100
4, 30216, Note_on_c, 2, 71, 0
4, 30480, Note_on_c, 2, 70, 100
4, 30588, Note_on_c, 2, 70, 0
4, 30600, Note_on_c, 2, 70, 100
4, 30774, Note_on_c, 2, 70, 0
4, 30780, Note_on_c, 2, 72, 100
4, 30807, Note_on_c, 2, 72, 0
4, 30810, Note_on_c, 2, 70, 100
4, 30837, Note_on_c, 2, 70, 0
4, 30840, Note_on_c, 2, 69, 100
4, 30867, Note_on_c, 2, 69, 0
4, 30870, Note_on_c, 2, 70, 100
4, 30897, Note_on_c, 2, 70, 0
4, 30900, Note_on_c, 2, 67, 100
4, 30954, Note_on_c, 2, 67, 0
4, 30960, Note_on_c, 2, 69, 100
4, 31176, Note_on_c, 2, 69, 0
4, 31440, Note_on_c, 2, 74, 100
4, 31494, Note_on_c, 2, 74, 0
4, 31500, Note_on_c, 2, 76, 100
4, 31527, Note_on_c, 2, 76, 0
4, 31530, Note_on_c, 2, 72, 100
4, 31557, Note_on_c, 2, 72, 0
4, 31560, Note_on_c, 2, 70, 100
4, 31587, Note_on_c, 2, 70, 0
4, 31590, Note_on_c, 2, 72, 100
4, 31617, Note_on_c, 2, 72, 0
4, 31620, Note_on_c, 2, 69, 100
4, 31674, Note_on_c, 2, 69, 0
4, 31680, Note_on_c, 2, 68, 100
4, 31896, Note_on_c, 2, 68, 0
4, 31980, Note_on_c, 2, 69, 100
4, 32034, Note_on_c, 2, 69, 0
4, 32040, Note_on_c, 2, 71, 100
4, 32094, Note_on_c, 2, 71, 0
4, 32100, Note_on_c, 2, 72, 100
4, 32154, Note_on_c, 2, 72, 0
4, 32160, Note_on_c, 2, 65, 100
4, 32268, Note_on_c, 2, 65, 0
4, 32280, Note_on_c, 2, 64, 100
4, 32388, Note_on_c, 2, 64, 0
4, 32400, Note_on_c, 2, 62, 100
4, 32454, Note_on_c, 2, 62, 0
4, 32460, Note_on_c, 2, 68, 100
4, 32514, Note_on_c, 2, 68, 0
4, 32520, Note_on_c, 2, 69, 100
4, 32574, Note_on_c, 2, 69, 0
4, 32580, Note_on_c, 2, 71, 100
4, 32634, Note_on_c, 2, 71, 0
4, 32640, Note_on_c, 2, 64, 100
4, 32748, Note_on_c, 2, 64, 0
4, 32760, Note_on_c, 2, 62, 100
4, 32868, Note_on_c, 2, 62, 0
4, 32880, Note_on_c, 2, 60, 100
4, 32934, Note_on_c, 2, 60, 0
4, 32940, Note_on_c, 2, 66, 100
4, 32994, Note_on_c, 2, 66, 0
4, 33000, Note_on_c, 2, 68, 100
4, 33054, Note_on_c, 2, 68, 0
4, 33060, Note_on_c, 2, 69, 100
4, 33114, Note_on_c, 2, 69, 0
4, 33120, Note_on_c, 2, 62, 100
4, 33174, Note_on_c, 2, 62, 0
4, 33180, Note_on_c, 2, 64, 100
4, 33207, Note_on_c, 2, 64, 0
4, 33210, Note_on_c, 2, 65, 100
4, 33237, Note_on_c, 2, 65, 0
4, 33240, Note_on_c, 2, 64, 100
4, 33267, Note_on_c, 2, 64, 0
4, 33270, Note_on_c, 2, 65, 100
4, 33297, Note_on_c, 2, 65, 0
4, 33300, Note_on_c, 2, 62, 100
4, 33354, Note_on_c, 2, 62, 0
4, 33360, Note_on_c, 2, 60, 100
4, 33468, Note_on_c, 2, 60, 0
4, 33480, Note_on_c, 2, 59, 100
4, 33534, Note_on_c, 2, 59, 0
4, 33540, Note_on_c, 2, 57, 100
4, 33594, Note_on_c, 2, 57, 0
4, 33600, Note_on_c, 2, 57, 100
4, 33816, Note_on_c, 2, 57, 0
4, 33840, Note_on_c, 2, 69, 100
4, 33894, Note_on_c, 2, 69, 0
4, 33900, Note_on_c, 2, 67, 100
4, 33954, Note_on_c, 2, 67, 0
4, 33960, Note_on_c, 2, 66, 100
4, 34014, Note_on_c, 2, 66, 0
4, 34020, Note_on_c, 2, 64, 100
4, 34074, Note_on_c, 2, 64, 0
4, 34080, Note_on_c, 2, 63, 100
4, 34134, Note_on_c, 2, 63, 0
4, 34140, Note_on_c, 2, 64, 100
4, 34194, Note_on_c, 2, 64, 0
4, 34200, Note_on_c, 2, 63, 100
4, 34254, Note_on_c, 2, 63, 0
4, 34260, Note_on_c, 2, 64, 100
4, 34314, Note_on_c, 2, 64, 0
4, 34320, Note_on_c, 2, 66, 100
4, 34374, Note_on_c, 2, 66, 0
4, 34380, Note_on_c, 2, 64, 100
4, 34434, Note_on_c, 2, 64, 0
4, 34440, Note_on_c, 2, 63, 100
4, 34494, Note_on_c, 2, 63, 0
4, 34500, Note_on_c, 2, 64, 100
4, 34554, Note_on_c, 2, 64, 0
4, 34560, Note_on_c, 2, 66, 100
4, 34776, Note_on_c, 2, 66, 0
4, 34800, Note_on_c, 2, 66, 100
4, 34854, Note_on_c, 2, 66, 0
4, 34860, Note_on_c, 2, 67, 100
4, 34914, Note_on_c, 2, 67, 0
4, 34920, Note_on_c, 2, 66, 100
4, 34974, Note_on_c, 2, 66, 0
4, 34980, Note_on_c, 2, 67, 100
4, 35034, Note_on_c, 2, 67, 0
4, 35040, Note_on_c, 2, 69, 100
4, 35094, Note_on_c, 2, 69, 0
4, 35100, Note_on_c, 2, 66, 100
4, 35154, Note_on_c, 2, 66, 0
4, 35160, Note_on_c, 2, 67, 100
4, 35214, Note_on_c, 2, 67, 0
4, 35220, Note_on_c, 2, 71, 100
4, 35274, Note_on_c, 2, 71, 0
4, 35280, Note_on_c, 2, 74, 100
4, 35334, Note_on_c, 2, 74, 0
4, 35340, Note_on_c, 2, 72, 100
4, 35394, Note_on_c, 2, 72, 0
4, 35400, Note_on_c, 2, 74, 100
4, 35427, Note_on_c, 2, 74, 0
4, 35430, Note_on_c, 2, 77, 100
4, 35457, Note_on_c, 2, 77, 0
4, 35460, Note_on_c, 2, 76, 100
4, 35514, Note_on_c, 2, 76, 0
4, 35520, Note_on_c, 2, 77, 100
4, 36054, Note_on_c, 2, 77, 0
4, 36060, Note_on_c, 2, 79, 100
4, 36087, Note_on_c, 2, 79, 0
4, 36090, Note_on_c, 2, 77, 100
4, 36117, Note_on_c, 2, 77, 0
4, 36120, Note_on_c, 2, 76, 100
4, 36147, Note_on_c, 2, 76, 0
4, 36150, Note_on_c, 2, 77, 100
4, 36177, Note_on_c, 2, 77, 0
4, 36180, Note_on_c, 2, 74, 100
4, 36234, Note_on_c, 2, 74, 0
4, 36240, Note_on_c, 2, 76, 100
4, 36534, Note_on_c, 2, 76, 0
4, 36540, Note_on_c, 2, 68, 100
4, 36594, Note_on_c, 2, 68, 0
4, 36600, Note_on_c, 2, 69, 100
4, 36654, Note_on_c, 2, 69, 0
4, 36660, Note_on_c, 2, 71, 100
4, 36714, Note_on_c, 2, 71, 0
4, 36720, Note_on_c, 2, 64, 100
4, 36828, Note_on_c, 2, 64, 0
4, 36840, Note_on_c, 2, 76, 100
4, 37014, Note_on_c, 2, 76, 0
4, 37020, Note_on_c, 2, 77, 100
4, 37047, Note_on_c, 2, 77, 0
4, 37050, Note_on_c, 2, 76, 100
4, 37077, Note_on_c, 2, 76, 0
4, 37080, Note_on_c, 2, 74, 100
4, 37107, Note_on_c, 2, 74, 0
4, 37110, Note_on_c, 2, 76, 100
4, 37137, Note_on_c, 2, 76, 0
4, 37140, Note_on_c, 2, 72, 100
4, 37194, Note_on_c, 2, 72, 0
4, 37200, Note_on_c, 2, 74, 100
4, 37467, Note_on_c, 2, 74, 0
4, 37470, Note_on_c, 2, 76, 100
4, 37497, Note_on_c, 2, 76, 0
4, 37500, Note_on_c, 2, 74, 100
4, 37527, Note_on_c, 2, 74, 0
4, 37530, Note_on_c, 2, 72, 100
4, 37557, Note_on_c, 2, 72, 0
4, 37560, Note_on_c, 2, 71, 100
4, 37587, Note_on_c, 2, 71, 0
4, 37590, Note_on_c, 2, 72, 100
4, 37617, Note_on_c, 2, 72, 0
4, 37620, Note_on_c, 2, 69, 100
4, 37674, Note_on_c, 2, 69, 0
4, 37680, Note_on_c, 2, 71, 100
4, 37788, Note_on_c, 2, 71, 0
4, 37800, Note_on_c, 2, 76, 100
4, 37854, Note_on_c, 2, 76, 0
4, 37860, Note_on_c, 2, 74, 100
4, 37914, Note_on_c, 2, 74, 0
4, 37920, Note_on_c, 2, 74, 100
4, 37974, Note_on_c, 2, 74, 0
4, 37980, Note_on_c, 2, 77, 100
4, 38007, Note_on_c, 2, 77, 0
4, 38010, Note_on_c, 2, 76, 100
4, 38037, Note_on_c, 2, 76, 0
4, 38040, Note_on_c, 2, 74, 100
4, 38067, Note_on_c, 2, 74, 0
4, 38070, Note_on_c, 2, 72, 100
4, 38097, Note_on_c, 2, 72, 0
4, 38100, Note_on_c, 2, 71, 100
4, 38127, Note_on_c, 2, 71, 0
4, 38130, Note_on_c, 2, 69, 100
4, 38157, Note_on_c, 2, 69, 0
4, 38160, Note_on_c, 2, 68, 100
4, 38214, Note_on_c, 2, 68, 0
4, 38220, Note_on_c, 2, 69, 100
4, 38274, Note_on_c, 2, 69, 0
4, 38280, Note_on_c, 2, 68, 100
4, 38334, Note_on_c, 2, 68, 0
4, 38340, Note_on_c, 2, 69, 100
4, 38394, Note_on_c, 2, 69, 0
4, 38400, Note_on_c, 2, 71, 100
4, 38616, Note_on_c, 2, 71, 0
4, 38700, Note_on_c, 2, 72, 100
4, 38727, Note_on_c, 2, 72, 0
4, 38730, Note_on_c, 2, 74, 100
4, 38757, Note_on_c, 2, 74, 0
4, 38760, Note_on_c, 2, 74, 100
4, 38814, Note_on_c, 2, 74, 0
4, 38820, Note_on_c, 2, 72, 100
4, 38847, Note_on_c, 2, 72, 0
4, 38850, Note_on_c, 2, 74, 100
4, 38877, Note_on_c, 2, 74, 0
4, 38880, Note_on_c, 2, 76, 100
4, 38907, Note_on_c, 2, 76, 0
4, 38910, Note_on_c, 2, 77, 100
4, 38937, Note_on_c, 2, 77, 0
4, 38940, Note_on_c, 2, 76, 100
4, 38967, Note_on_c, 2, 76, 0
4, 38970, Note_on_c, 2, 74, 100
4, 38997, Note_on_c, 2, 74, 0
4, 39000, Note_on_c, 2, 76, 100
4, 39228, Note_on_c, 2, 76, 0
4, 39240, Note_on_c, 2, 75, 100
4, 39294, Note_on_c, 2, 75, 0
4, 39300, Note_on_c, 2, 78, 100
4, 39354, Note_on_c, 2, 78, 0
4, 39360, Note_on_c, 2, 71, 100
4, 39414, Note_on_c, 2, 71, 0
4, 39420, Note_on_c, 2, 76, 100
4, 39474, Note_on_c, 2, 76, 0
4, 39480, Note_on_c, 2, 71, 100
4, 39534, Note_on_c, 2, 71, 0
4, 39540, Note_on_c, 2, 68, 100
4, 39594, Note_on_c, 2, 68, 0
4, 39600, Note_on_c, 2, 64, 100
4, 39708, Note_on_c, 2, 64, 0
4, 39840, Note_on_c, 2, 83, 100
4, 39948, Note_on_c, 2, 83, 0
4, 39960, Note_on_c, 2, 81, 100
4, 40068, Note_on_c, 2, 81, 0
4, 40080, Note_on_c, 2, 80, 100
4, 40188, Note_on_c, 2, 80, 0
4, 40320, Note_on_c, 2, 81, 100
4, 40374, Note_on_c, 2, 81, 0
4, 40380, Note_on_c, 2, 72, 100
4, 40434, Note_on_c, 2, 72, 0
4, 40440, Note_on_c, 2, 77, 100
4, 40494, Note_on_c, 2, 77, 0
4, 40500, Note_on_c, 2, 76, 100
4, 40554, Note_on_c, 2, 76, 0
4, 40560, Note_on_c, 2, 76, 100
4, 40668, Note_on_c, 2, 76, 0
4, 40800, Note_on_c, 2, 77, 100
4, 40854, Note_on_c, 2, 77, 0
4, 40860, Note_on_c, 2, 76, 100
4, 40887, Note_on_c, 2, 76, 0
4, 40890, Note_on_c, 2, 74, 100
4, 40917, Note_on_c, 2, 74, 0
4, 40920, Note_on_c, 2, 72, 100
4, 40947, Note_on_c, 2, 72, 0
4, 40950, Note_on_c, 2, 74, 100
4, 40977, Note_on_c, 2, 74, 0
4, 40980, Note_on_c, 2, 71, 100
4, 41034, Note_on_c, 2, 71, 0
4, 41040, Note_on_c, 2, 69, 100
4, 41148, Note_on_c, 2, 69, 0
4, 41160, Note_on_c, 2, 68, 100
4, 41241, Note_on_c, 2, 68, 0
4, 41250, Note_on_c, 2, 69, 100
4, 41277, Note_on_c, 2, 69, 0
4, 41280, Note_on_c, 2, 69, 100
4, 41496, Note_on_c, 2, 69, 0
4, 41496, End_track
5, 0, Start_track
5, 0, Sequence_number, 255
5, 0, MIDI_port, 0
5, 0, Title_t, "~"
5, 0, Control_c, 3, 0, 0
5, 0, Control_c, 3, 32, 0
5, 0, Program_c, 3, 6
5, 0, Control_c, 3, 7, 80
5, 0, Control_c, 3, 10, 64
5, 4080, Note_on_c, 3, 57, 100
5, 4188, Note_on_c, 3, 57, 0
5, 4200, Note_on_c, 3, 59, 100
5, 4308, Note_on_c, 3, 59, 0
5, 4320, Note_on_c, 3, 61, 100
5, 4428, Note_on_c, 3, 61, 0
5, 4440, Note_on_c, 3, 59, 100
5, 4494, Note_on_c, 3, 59, 0
5, 4500, Note_on_c, 3, 57, 100
5, 4554, Note_on_c, 3, 57, 0
5, 4560, Note_on_c, 3, 62, 100
5, 4668, Note_on_c, 3, 62, 0
5, 4680, Note_on_c, 3, 62, 100
5, 4788, Note_on_c, 3, 62, 0
5, 4800, Note_on_c, 3, 62, 100
5, 5016, Note_on_c, 3, 62, 0
5, 5040, Note_on_c, 3, 55, 100
5, 5148, Note_on_c, 3, 55, 0
5, 5160, Note_on_c, 3, 57, 100
5, 5268, Note_on_c, 3, 57, 0
5, 5280, Note_on_c, 3, 59, 100
5, 5388, Note_on_c, 3, 59, 0
5, 5400, Note_on_c, 3, 57, 100
5, 5454, Note_on_c, 3, 57, 0
5, 5460, Note_on_c, 3, 55, 100
5, 5514, Note_on_c, 3, 55, 0
5, 5520, Note_on_c, 3, 60, 100
5, 5628, Note_on_c, 3, 60, 0
5, 5640, Note_on_c, 3, 60, 100
5, 5748, Note_on_c, 3, 60, 0
5, 5760, Note_on_c, 3, 60, 100
5, 5868, Note_on_c, 3, 60, 0
5, 5880, Note_on_c, 3, 58, 100
5, 5988, Note_on_c, 3, 58, 0
5, 6000, Note_on_c, 3, 57, 100
5, 6108, Note_on_c, 3, 57, 0
5, 6120, Note_on_c, 3, 55, 100
5, 6228, Note_on_c, 3, 55, 0
5, 6240, Note_on_c, 3, 53, 100
5, 6348, Note_on_c, 3, 53, 0
5, 6360, Note_on_c, 3, 55, 100
5, 6468, Note_on_c, 3, 55, 0
5, 6480, Note_on_c, 3, 57, 100
5, 6588, Note_on_c, 3, 57, 0
5, 6600, Note_on_c, 3, 53, 100
5, 6708, Note_on_c, 3, 53, 0
5, 6720, Note_on_c, 3, 55, 100
5, 6828, Note_on_c, 3, 55, 0
5, 6840, Note_on_c, 3, 57, 100
5, 6948, Note_on_c, 3, 57, 0
5, 6960, Note_on_c, 3, 59, 100
5, 7068, Note_on_c, 3, 59, 0
5, 7080, Note_on_c, 3, 57, 100
5, 7134, Note_on_c, 3, 57, 0
5, 7140, Note_on_c, 3, 55, 100
5, 7194, Note_on_c, 3, 55, 0
5, 7200, Note_on_c, 3, 60, 100
5, 7308, Note_on_c, 3, 60, 0
5, 7320, Note_on_c, 3, 53, 100
5, 7428, Note_on_c, 3, 53, 0
5, 7440, Note_on_c, 3, 55, 100
5, 7548, Note_on_c, 3, 55, 0
5, 7560, Note_on_c, 3, 43, 100
5, 7668, Note_on_c, 3, 43, 0
5, 7680, Note_on_c, 3, 36, 100
5, 7896, Note_on_c, 3, 36, 0
5, 10800, Note_on_c, 3, 48, 100
5, 10908, Note_on_c, 3, 48, 0
5, 10920, Note_on_c, 3, 50, 100
5, 11028, Note_on_c, 3, 50, 0
5, 11040, Note_on_c, 3, 52, 100
5, 11148, Note_on_c, 3, 52, 0
5, 11160, Note_on_c, 3, 50, 100
5, 11214, Note_on_c, 3, 50, 0
5, 11220, Note_on_c, 3, 48, 100
5, 11274, Note_on_c, 3, 48, 0
5, 11280, Note_on_c, 3, 55, 100
5, 11388, Note_on_c, 3, 55, 0
5, 11400, Note_on_c, 3, 55, 100
5, 11508, Note_on_c, 3, 55, 0
5, 11520, Note_on_c, 3, 55, 100
5, 11736, Note_on_c, 3, 55, 0
5, 11760, Note_on_c, 3, 43, 100
5, 11868, Note_on_c, 3, 43, 0
5, 11880, Note_on_c, 3, 45, 100
5, 11988, Note_on_c, 3, 45, 0
5, 12000, Note_on_c, 3, 47, 100
5, 12108, Note_on_c, 3, 47, 0
5, 12120, Note_on_c, 3, 45, 100
5, 12174, Note_on_c, 3, 45, 0
5, 12180, Note_on_c, 3, 43, 100
5, 12234, Note_on_c, 3, 43, 0
5, 12240, Note_on_c, 3, 50, 100
5, 12348, Note_on_c, 3, 50, 0
5, 12360, Note_on_c, 3, 50, 100
5, 12468, Note_on_c, 3, 50, 0
5, 12480, Note_on_c, 3, 50, 100
5, 12696, Note_on_c, 3, 50, 0
5, 12720, Note_on_c, 3, 50, 100
5, 12828, Note_on_c, 3, 50, 0
5, 12840, Note_on_c, 3, 52, 100
5, 12948, Note_on_c, 3, 52, 0
5, 12960, Note_on_c, 3, 53, 100
5, 13068, Note_on_c, 3, 53, 0
5, 13080, Note_on_c, 3, 52, 100
5, 13134, Note_on_c, 3, 52, 0
5, 13140, Note_on_c, 3, 50, 100
5, 13194, Note_on_c, 3, 50, 0
5, 13200, Note_on_c, 3, 57, 100
5, 13308, Note_on_c, 3, 57, 0
5, 13320, Note_on_c, 3, 57, 100
5, 13428, Note_on_c, 3, 57, 0
5, 13440, Note_on_c, 3, 57, 100
5, 13656, Note_on_c, 3, 57, 0
5, 13680, Note_on_c, 3, 57, 100
5, 13788, Note_on_c, 3, 57, 0
5, 13800, Note_on_c, 3, 59, 100
5, 13908, Note_on_c, 3, 59, 0
5, 13920, Note_on_c, 3, 60, 100
5, 14028, Note_on_c, 3, 60, 0
5, 14040, Note_on_c, 3, 59, 100
5, 14094, Note_on_c, 3, 59, 0
5, 14100, Note_on_c, 3, 57, 100
5, 14154, Note_on_c, 3, 57, 0
5, 14160, Note_on_c, 3, 64, 100
5, 14268, Note_on_c, 3, 64, 0
5, 14280, Note_on_c, 3, 64, 100
5, 14388, Note_on_c, 3, 64, 0
5, 14400, Note_on_c, 3, 64, 100
5, 14616, Note_on_c, 3, 64, 0
5, 14640, Note_on_c, 3, 52, 100
5, 14694, Note_on_c, 3, 52, 0
5, 14700, Note_on_c, 3, 64, 100
5, 14754, Note_on_c, 3, 64, 0
5, 14760, Note_on_c, 3, 62, 100
5, 14814, Note_on_c, 3, 62, 0
5, 14820, Note_on_c, 3, 60, 100
5, 14874, Note_on_c, 3, 60, 0
5, 14880, Note_on_c, 3, 62, 100
5, 14934, Note_on_c, 3, 62, 0
5, 14940, Note_on_c, 3, 59, 100
5, 14994, Note_on_c, 3, 59, 0
5, 15000, Note_on_c, 3, 60, 100
5, 15054, Note_on_c, 3, 60, 0
5, 15060, Note_on_c, 3, 57, 100
5, 15114, Note_on_c, 3, 57, 0
5, 15120, Note_on_c, 3, 52, 100
5, 15174, Note_on_c, 3, 52, 0
5, 15180, Note_on_c, 3, 62, 100
5, 15234, Note_on_c, 3, 62, 0
5, 15240, Note_on_c, 3, 60, 100
5, 15294, Note_on_c, 3, 60, 0
5, 15300, Note_on_c, 3, 59, 100
5, 15354, Note_on_c, 3, 59, 0
5, 15360, Note_on_c, 3, 60, 100
5, 15414, Note_on_c, 3, 60, 0
5, 15420, Note_on_c, 3, 57, 100
5, 15474, Note_on_c, 3, 57, 0
5, 15480, Note_on_c, 3, 59, 100
5, 15534, Note_on_c, 3, 59, 0
5, 15540, Note_on_c, 3, 56, 100
5, 15594, Note_on_c, 3, 56, 0
5, 15600, Note_on_c, 3, 52, 100
5, 15654, Note_on_c, 3, 52, 0
5, 15660, Note_on_c, 3, 60, 100
5, 15714, Note_on_c, 3, 60, 0
5, 15720, Note_on_c, 3, 59, 100
5, 15774, Note_on_c, 3, 59, 0
5, 15780, Note_on_c, 3, 57, 100
5, 15834, Note_on_c, 3, 57, 0
5, 15840, Note_on_c, 3, 59, 100
5, 15894, Note_on_c, 3, 59, 0
5, 15900, Note_on_c, 3, 56, 100
5, 15954, Note_on_c, 3, 56, 0
5, 15960, Note_on_c, 3, 57, 100
5, 16014, Note_on_c, 3, 57, 0
5, 16020, Note_on_c, 3, 50, 100
5, 16074, Note_on_c, 3, 50, 0
5, 16080, Note_on_c, 3, 52, 100
5, 16188, Note_on_c, 3, 52, 0
5, 16200, Note_on_c, 3, 40, 100
5, 16308, Note_on_c, 3, 40, 0
5, 16320, Note_on_c, 3, 45, 100
5, 16536, Note_on_c, 3, 45, 0
5, 16560, Note_on_c, 3, 57, 100
5, 16668, Note_on_c, 3, 57, 0
5, 16680, Note_on_c, 3, 55, 100
5, 16788, Note_on_c, 3, 55, 0
5, 16800, Note_on_c, 3, 54, 100
5, 16908, Note_on_c, 3, 54, 0
5, 16920, Note_on_c, 3, 55, 100
5, 16974, Note_on_c, 3, 55, 0
5, 16980, Note_on_c, 3, 57, 100
5, 17034, Note_on_c, 3, 57, 0
5, 17040, Note_on_c, 3, 47, 100
5, 17148, Note_on_c, 3, 47, 0
5, 17160, Note_on_c, 3, 47, 100
5, 17268, Note_on_c, 3, 47, 0
5, 17280, Note_on_c, 3, 47, 100
5, 17496, Note_on_c, 3, 47, 0
5, 17520, Note_on_c, 3, 55, 100
5, 17628, Note_on_c, 3, 55, 0
5, 17640, Note_on_c, 3, 54, 100
5, 17748, Note_on_c, 3, 54, 0
5, 17760, Note_on_c, 3, 52, 100
5, 17868, Note_on_c, 3, 52, 0
5, 17880, Note_on_c, 3, 54, 100
5, 17934, Note_on_c, 3, 54, 0
5, 17940, Note_on_c, 3, 55, 100
5, 17994, Note_on_c, 3, 55, 0
5, 18000, Note_on_c, 3, 45, 100
5, 18108, Note_on_c, 3, 45, 0
5, 18120, Note_on_c, 3, 45, 100
5, 18228, Note_on_c, 3, 45, 0
5, 18240, Note_on_c, 3, 45, 100
5, 18456, Note_on_c, 3, 45, 0
5, 18480, Note_on_c, 3, 54, 100
5, 18588, Note_on_c, 3, 54, 0
5, 18600, Note_on_c, 3, 52, 100
5, 18708, Note_on_c, 3, 52, 0
5, 18720, Note_on_c, 3, 51, 100
5, 18828, Note_on_c, 3, 51, 0
5, 18840, Note_on_c, 3, 52, 100
5, 18894, Note_on_c, 3, 52, 0
5, 18900, Note_on_c, 3, 54, 100
5, 18954, Note_on_c, 3, 54, 0
5, 18960, Note_on_c, 3, 43, 100
5, 19068, Note_on_c, 3, 43, 0
5, 19080, Note_on_c, 3, 43, 100
5, 19188, Note_on_c, 3, 43, 0
5, 19200, Note_on_c, 3, 43, 100
5, 19416, Note_on_c, 3, 43, 0
5, 19440, Note_on_c, 3, 52, 100
5, 19548, Note_on_c, 3, 52, 0
5, 19560, Note_on_c, 3, 54, 100
5, 19668, Note_on_c, 3, 54, 0
5, 19680, Note_on_c, 3, 55, 100
5, 19788, Note_on_c, 3, 55, 0
5, 19800, Note_on_c, 3, 54, 100
5, 19854, Note_on_c, 3, 54, 0
5, 19860, Note_on_c, 3, 52, 100
5, 19914, Note_on_c, 3, 52, 0
5, 19920, Note_on_c, 3, 59, 100
5, 20028, Note_on_c, 3, 59, 0
5, 20040, Note_on_c, 3, 59, 100
5, 20148, Note_on_c, 3, 59, 0
5, 20160, Note_on_c, 3, 59, 100
5, 20376, Note_on_c, 3, 59, 0
5, 20400, Note_on_c, 3, 47, 100
5, 20454, Note_on_c, 3, 47, 0
5, 20460, Note_on_c, 3, 59, 100
5, 20514, Note_on_c, 3, 59, 0
5, 20520, Note_on_c, 3, 57, 100
5, 20574, Note_on_c, 3, 57, 0
5, 20580, Note_on_c, 3, 55, 100
5, 20634, Note_on_c, 3, 55, 0
5, 20640, Note_on_c, 3, 57, 100
5, 20694, Note_on_c, 3, 57, 0
5, 20700, Note_on_c, 3, 54, 100
5, 20754, Note_on_c, 3, 54, 0
5, 20760, Note_on_c, 3, 55, 100
5, 20814, Note_on_c, 3, 55, 0
5, 20820, Note_on_c, 3, 52, 100
5, 20874, Note_on_c, 3, 52, 0
5, 20880, Note_on_c, 3, 47, 100
5, 20934, Note_on_c, 3, 47, 0
5, 20940, Note_on_c, 3, 57, 100
5, 20994, Note_on_c, 3, 57, 0
5, 21000, Note_on_c, 3, 55, 100
5, 21054, Note_on_c, 3, 55, 0
5, 21060, Note_on_c, 3, 54, 100
5, 21114, Note_on_c, 3, 54, 0
5, 21120, Note_on_c, 3, 55, 100
5, 21174, Note_on_c, 3, 55, 0
5, 21180, Note_on_c, 3, 52, 100
5, 21234, Note_on_c, 3, 52, 0
5, 21240, Note_on_c, 3, 54, 100
5, 21294, Note_on_c, 3, 54, 0
5, 21300, Note_on_c, 3, 51, 100
5, 21354, Note_on_c, 3, 51, 0
5, 21360, Note_on_c, 3, 47, 100
5, 21414, Note_on_c, 3, 47, 0
5, 21420, Note_on_c, 3, 55, 100
5, 21474, Note_on_c, 3, 55, 0
5, 21480, Note_on_c, 3, 54, 100
5, 21534, Note_on_c, 3, 54, 0
5, 21540, Note_on_c, 3, 52, 100
5, 21594, Note_on_c, 3, 52, 0
5, 21600, Note_on_c, 3, 54, 100
5, 21654, Note_on_c, 3, 54, 0
5, 21660, Note_on_c, 3, 51, 100
5, 21714, Note_on_c, 3, 51, 0
5, 21720, Note_on_c, 3, 52, 100
5, 21774, Note_on_c, 3, 52, 0
5, 21780, Note_on_c, 3, 45, 100
5, 21834, Note_on_c, 3, 45, 0
5, 21840, Note_on_c, 3, 47, 100
5, 21948, Note_on_c, 3, 47, 0
5, 21960, Note_on_c, 3, 47, 100
5, 22068, Note_on_c, 3, 47, 0
5, 22080, Note_on_c, 3, 40, 100
5, 22296, Note_on_c, 3, 40, 0
5, 24960, Note_on_c, 3, 40, 100
5, 25176, Note_on_c, 3, 40, 0
5, 25200, Note_on_c, 3, 52, 100
5, 25308, Note_on_c, 3, 52, 0
5, 25320, Note_on_c, 3, 53, 100
5, 25428, Note_on_c, 3, 53, 0
5, 25440, Note_on_c, 3, 55, 100
5, 25548, Note_on_c, 3, 55, 0
5, 25560, Note_on_c, 3, 53, 100
5, 25614, Note_on_c, 3, 53, 0
5, 25620, Note_on_c, 3, 52, 100
5, 25674, Note_on_c, 3, 52, 0
5, 25680, Note_on_c, 3, 58, 100
5, 25788, Note_on_c, 3, 58, 0
5, 25800, Note_on_c, 3, 58, 100
5, 25908, Note_on_c, 3, 58, 0
5, 25920, Note_on_c, 3, 49, 100
5, 26136, Note_on_c, 3, 49, 0
5, 26160, Note_on_c, 3, 45, 100
5, 26268, Note_on_c, 3, 45, 0
5, 26280, Note_on_c, 3, 46, 100
5, 26388, Note_on_c, 3, 46, 0
5, 26400, Note_on_c, 3, 48, 100
5, 26508, Note_on_c, 3, 48, 0
5, 26520, Note_on_c, 3, 46, 100
5, 26574, Note_on_c, 3, 46, 0
5, 26580, Note_on_c, 3, 45, 100
5, 26634, Note_on_c, 3, 45, 0
5, 26640, Note_on_c, 3, 51, 100
5, 26748, Note_on_c, 3, 51, 0
5, 26760, Note_on_c, 3, 51, 100
5, 26868, Note_on_c, 3, 51, 0
5, 26880, Note_on_c, 3, 42, 100
5, 27096, Note_on_c, 3, 42, 0
5, 27120, Note_on_c, 3, 54, 100
5, 27228, Note_on_c, 3, 54, 0
5, 27240, Note_on_c, 3, 55, 100
5, 27348, Note_on_c, 3, 55, 0
5, 27360, Note_on_c, 3, 57, 100
5, 27468, Note_on_c, 3, 57, 0
5, 27480, Note_on_c, 3, 55, 100
5, 27534, Note_on_c, 3, 55, 0
5, 27540, Note_on_c, 3, 54, 100
5, 27594, Note_on_c, 3, 54, 0
5, 27600, Note_on_c, 3, 60, 100
5, 27708, Note_on_c, 3, 60, 0
5, 27720, Note_on_c, 3, 60, 100
5, 27828, Note_on_c, 3, 60, 0
5, 27840, Note_on_c, 3, 51, 100
5, 28056, Note_on_c, 3, 51, 0
5, 28080, Note_on_c, 3, 47, 100
5, 28188, Note_on_c, 3, 47, 0
5, 28200, Note_on_c, 3, 48, 100
5, 28308, Note_on_c, 3, 48, 0
5, 28320, Note_on_c, 3, 50, 100
5, 28428, Note_on_c, 3, 50, 0
5, 28440, Note_on_c, 3, 48, 100
5, 28494, Note_on_c, 3, 48, 0
5, 28500, Note_on_c, 3, 47, 100
5, 28554, Note_on_c, 3, 47, 0
5, 28560, Note_on_c, 3, 53, 100
5, 28668, Note_on_c, 3, 53, 0
5, 28680, Note_on_c, 3, 53, 100
5, 28788, Note_on_c, 3, 53, 0
5, 28800, Note_on_c, 3, 44, 100
5, 29016, Note_on_c, 3, 44, 0
5, 29040, Note_on_c, 3, 57, 100
5, 29148, Note_on_c, 3, 57, 0
5, 29160, Note_on_c, 3, 59, 100
5, 29268, Note_on_c, 3, 59, 0
5, 29280, Note_on_c, 3, 60, 100
5, 29388, Note_on_c, 3, 60, 0
5, 29400, Note_on_c, 3, 59, 100
5, 29454, Note_on_c, 3, 59, 0
5, 29460, Note_on_c, 3, 57, 100
5, 29514, Note_on_c, 3, 57, 0
5, 29520, Note_on_c, 3, 66, 100
5, 29628, Note_on_c, 3, 66, 0
5, 29640, Note_on_c, 3, 66, 100
5, 29748, Note_on_c, 3, 66, 0
5, 29760, Note_on_c, 3, 55, 100
5, 29976, Note_on_c, 3, 55, 0
5, 30000, Note_on_c, 3, 55, 100
5, 30108, Note_on_c, 3, 55, 0
5, 30120, Note_on_c, 3, 57, 100
5, 30228, Note_on_c, 3, 57, 0
5, 30240, Note_on_c, 3, 58, 100
5, 30348, Note_on_c, 3, 58, 0
5, 30360, Note_on_c, 3, 57, 100
5, 30414, Note_on_c, 3, 57, 0
5, 30420, Note_on_c, 3, 55, 100
5, 30474, Note_on_c, 3, 55, 0
5, 30480, Note_on_c, 3, 64, 100
5, 30588, Note_on_c, 3, 64, 0
5, 30600, Note_on_c, 3, 64, 100
5, 30708, Note_on_c, 3, 64, 0
5, 30720, Note_on_c, 3, 53, 100
5, 30936, Note_on_c, 3, 53, 0
5, 30960, Note_on_c, 3, 53, 100
5, 31068, Note_on_c, 3, 53, 0
5, 31080, Note_on_c, 3, 55, 100
5, 31188, Note_on_c, 3, 55, 0
5, 31200, Note_on_c, 3, 57, 100
5, 31308, Note_on_c, 3, 57, 0
5, 31320, Note_on_c, 3, 55, 100
5, 31374, Note_on_c, 3, 55, 0
5, 31380, Note_on_c, 3, 53, 100
5, 31434, Note_on_c, 3, 53, 0
5, 31440, Note_on_c, 3, 62, 100
5, 31548, Note_on_c, 3, 62, 0
5, 31560, Note_on_c, 3, 62, 100
5, 31668, Note_on_c, 3, 62, 0
5, 31680, Note_on_c, 3, 52, 100
5, 31974, Note_on_c, 3, 52, 0
5, 31980, Note_on_c, 3, 52, 100
5, 32034, Note_on_c, 3, 52, 0
5, 32040, Note_on_c, 3, 50, 100
5, 32094, Note_on_c, 3, 50, 0
5, 32100, Note_on_c, 3, 48, 100
5, 32154, Note_on_c, 3, 48, 0
5, 32160, Note_on_c, 3, 50, 100
5, 32214, Note_on_c, 3, 50, 0
5, 32220, Note_on_c, 3, 47, 100
5, 32274, Note_on_c, 3, 47, 0
5, 32280, Note_on_c, 3, 48, 100
5, 32334, Note_on_c, 3, 48, 0
5, 32340, Note_on_c, 3, 45, 100
5, 32394, Note_on_c, 3, 45, 0
5, 32400, Note_on_c, 3, 40, 100
5, 32454, Note_on_c, 3, 40, 0
5, 32460, Note_on_c, 3, 50, 100
5, 32514, Note_on_c, 3, 50, 0
5, 32520, Note_on_c, 3, 48, 100
5, 32574, Note_on_c, 3, 48, 0
5, 32580, Note_on_c, 3, 47, 100
5, 32634, Note_on_c, 3, 47, 0
5, 32640, Note_on_c, 3, 48, 100
5, 32694, Note_on_c, 3, 48, 0
5, 32700, Note_on_c, 3, 45, 100
5, 32754, Note_on_c, 3, 45, 0
5, 32760, Note_on_c, 3, 47, 100
5, 32814, Note_on_c, 3, 47, 0
5, 32820, Note_on_c, 3, 44, 100
5, 32874, Note_on_c, 3, 44, 0
5, 32880, Note_on_c, 3, 40, 100
5, 32934, Note_on_c, 3, 40, 0
5, 32940, Note_on_c, 3, 48, 100
5, 32994, Note_on_c, 3, 48, 0
5, 33000, Note_on_c, 3, 47, 100
5, 33054, Note_on_c, 3, 47, 0
5, 33060, Note_on_c, 3, 45, 100
5, 33114, Note_on_c, 3, 45, 0
5, 33120, Note_on_c, 3, 47, 100
5, 33174, Note_on_c, 3, 47, 0
5, 33180, Note_on_c, 3, 44, 100
5, 33234, Note_on_c, 3, 44, 0
5, 33240, Note_on_c, 3, 45, 100
5, 33294, Note_on_c, 3, 45, 0
5, 33300, Note_on_c, 3, 50, 100
5, 33354, Note_on_c, 3, 50, 0
5, 33360, Note_on_c, 3, 52, 100
5, 33468, Note_on_c, 3, 52, 0
5, 33480, Note_on_c, 3, 40, 100
5, 33588, Note_on_c, 3, 40, 0
5, 33600, Note_on_c, 3, 42, 100
5, 33816, Note_on_c, 3, 42, 0
5, 33840, Note_on_c, 3, 54, 100
5, 33948, Note_on_c, 3, 54, 0
5, 33960, Note_on_c, 3, 55, 100
5, 34068, Note_on_c, 3, 55, 0
5, 34080, Note_on_c, 3, 57, 100
5, 34188, Note_on_c, 3, 57, 0
5, 34200, Note_on_c, 3, 55, 100
5, 34254, Note_on_c, 3, 55, 0
5, 34260, Note_on_c, 3, 54, 100
5, 34314, Note_on_c, 3, 54, 0
5, 34320, Note_on_c, 3, 60, 100
5, 34428, Note_on_c, 3, 60, 0
5, 34440, Note_on_c, 3, 60, 100
5, 34548, Note_on_c, 3, 60, 0
5, 34560, Note_on_c, 3, 39, 100
5, 34776, Note_on_c, 3, 39, 0
5, 34800, Note_on_c, 3, 57, 100
5, 34908, Note_on_c, 3, 57, 0
5, 34920, Note_on_c, 3, 59, 100
5, 35028, Note_on_c, 3, 59, 0
5, 35040, Note_on_c, 3, 60, 100
5, 35148, Note_on_c, 3, 60, 0
5, 35160, Note_on_c, 3, 59, 100
5, 35214, Note_on_c, 3, 59, 0
5, 35220, Note_on_c, 3, 57, 100
5, 35274, Note_on_c, 3, 57, 0
5, 35280, Note_on_c, 3, 65, 100
5, 35388, Note_on_c, 3, 65, 0
5, 35400, Note_on_c, 3, 65, 100
5, 35508, Note_on_c, 3, 65, 0
5, 35520, Note_on_c, 3, 44, 100
5, 35736, Note_on_c, 3, 44, 0
5, 35760, Note_on_c, 3, 59, 100
5, 35868, Note_on_c, 3, 59, 0
5, 35880, Note_on_c, 3, 57, 100
5, 35988, Note_on_c, 3, 57, 0
5, 36000, Note_on_c, 3, 56, 100
5, 36108, Note_on_c, 3, 56, 0
5, 36120, Note_on_c, 3, 57, 100
5, 36174, Note_on_c, 3, 57, 0
5, 36180, Note_on_c, 3, 59, 100
5, 36234, Note_on_c, 3, 59, 0
5, 36240, Note_on_c, 3, 48, 100
5, 36348, Note_on_c, 3, 48, 0
5, 36360, Note_on_c, 3, 48, 100
5, 36468, Note_on_c, 3, 48, 0
5, 36480, Note_on_c, 3, 48, 100
5, 36696, Note_on_c, 3, 48, 0
5, 36720, Note_on_c, 3, 57, 100
5, 36828, Note_on_c, 3, 57, 0
5, 36840, Note_on_c, 3, 55, 100
5, 36948, Note_on_c, 3, 55, 0
5, 36960, Note_on_c, 3, 53, 100
5, 37068, Note_on_c, 3, 53, 0
5, 37080, Note_on_c, 3, 55, 100
5, 37134, Note_on_c, 3, 55, 0
5, 37140, Note_on_c, 3, 57, 100
5, 37194, Note_on_c, 3, 57, 0
5, 37200, Note_on_c, 3, 47, 100
5, 37308, Note_on_c, 3, 47, 0
5, 37320, Note_on_c, 3, 47, 100
5, 37428, Note_on_c, 3, 47, 0
5, 37440, Note_on_c, 3, 47, 100
5, 37656, Note_on_c, 3, 47, 0
5, 37680, Note_on_c, 3, 50, 100
5, 37788, Note_on_c, 3, 50, 0
5, 37800, Note_on_c, 3, 48, 100
5, 37908, Note_on_c, 3, 48, 0
5, 37920, Note_on_c, 3, 47, 100
5, 38028, Note_on_c, 3, 47, 0
5, 38040, Note_on_c, 3, 48, 100
5, 38094, Note_on_c, 3, 48, 0
5, 38100, Note_on_c, 3, 50, 100
5, 38154, Note_on_c, 3, 50, 0
5, 38160, Note_on_c, 3, 40, 100
5, 38268, Note_on_c, 3, 40, 0
5, 38280, Note_on_c, 3, 40, 100
5, 38388, Note_on_c, 3, 40, 0
5, 38400, Note_on_c, 3, 40, 100
5, 38616, Note_on_c, 3, 40, 0
5, 38640, Note_on_c, 3, 57, 100
5, 38748, Note_on_c, 3, 57, 0
5, 38760, Note_on_c, 3, 59, 100
5, 38868, Note_on_c, 3, 59, 0
5, 38880, Note_on_c, 3, 60, 100
5, 38988, Note_on_c, 3, 60, 0
5, 39000, Note_on_c, 3, 59, 100
5, 39054, Note_on_c, 3, 59, 0
5, 39060, Note_on_c, 3, 57, 100
5, 39114, Note_on_c, 3, 57, 0
5, 39120, Note_on_c, 3, 64, 100
5, 39228, Note_on_c, 3, 64, 0
5, 39240, Note_on_c, 3, 64, 100
5, 39348, Note_on_c, 3, 64, 0
5, 39360, Note_on_c, 3, 64, 100
5, 39576, Note_on_c, 3, 64, 0
5, 39600, Note_on_c, 3, 52, 100
5, 39654, Note_on_c, 3, 52, 0
5, 39660, Note_on_c, 3, 64, 100
5, 39714, Note_on_c, 3, 64, 0
5, 39720, Note_on_c, 3, 62, 100
5, 39774, Note_on_c, 3, 62, 0
5, 39780, Note_on_c, 3, 60, 100
5, 39834, Note_on_c, 3, 60, 0
5, 39840, Note_on_c, 3, 62, 100
5, 39894, Note_on_c, 3, 62, 0
5, 39900, Note_on_c, 3, 59, 100
5, 39954, Note_on_c, 3, 59, 0
5, 39960, Note_on_c, 3, 60, 100
5, 40014, Note_on_c, 3, 60, 0
5, 40020, Note_on_c, 3, 57, 100
5, 40074, Note_on_c, 3, 57, 0
5, 40080, Note_on_c, 3, 52, 100
5, 40134, Note_on_c, 3, 52, 0
5, 40140, Note_on_c, 3, 62, 100
5, 40194, Note_on_c, 3, 62, 0
5, 40200, Note_on_c, 3, 60, 100
5, 40254, Note_on_c, 3, 60, 0
5, 40260, Note_on_c, 3, 59, 100
5, 40314, Note_on_c, 3, 59, 0
5, 40320, Note_on_c, 3, 60, 100
5, 40374, Note_on_c, 3, 60, 0
5, 40380, Note_on_c, 3, 57, 100
5, 40434, Note_on_c, 3, 57, 0
5, 40440, Note_on_c, 3, 59, 100
5, 40494, Note_on_c, 3, 59, 0
5, 40500, Note_on_c, 3, 56, 100
5, 40554, Note_on_c, 3, 56, 0
5, 40560, Note_on_c, 3, 52, 100
5, 40614, Note_on_c, 3, 52, 0
5, 40620, Note_on_c, 3, 60, 100
5, 40674, Note_on_c, 3, 60, 0
5, 40680, Note_on_c, 3, 59, 100
5, 40734, Note_on_c, 3, 59, 0
5, 40740, Note_on_c, 3, 57, 100
5, 40794, Note_on_c, 3, 57, 0
5, 40800, Note_on_c, 3, 59, 100
5, 40854, Note_on_c, 3, 59, 0
5, 40860, Note_on_c, 3, 56, 100
5, 40914, Note_on_c, 3, 56, 0
5, 40920, Note_on_c, 3, 57, 100
5, 40974, Note_on_c, 3, 57, 0
5, 40980, Note_on_c, 3, 50, 100
5, 41034, Note_on_c, 3, 50, 0
5, 41040, Note_on_c, 3, 52, 100
5, 41148, Note_on_c, 3, 52, 0
5, 41160, Note_on_c, 3, 40, 100
5, 41268, Note_on_c, 3, 40, 0
5, 41280, Note_on_c, 3, 45, 100
5, 41496, Note_on_c, 3, 45, 0
5, 41496, End_track
6, 0, Start_track
6, 0, Sequence_number, 255
6, 0, MIDI_port, 0
6, 0, Title_t, "Cembalo III"
6, 0, Control_c, 4, 0, 0
6, 0, Control_c, 4, 32, 0
6, 0, Program_c, 4, 6
6, 0, Control_c, 4, 7, 80
6, 0, Control_c, 4, 10, 79
6, 0, Note_on_c, 4, 60, 100
6, 0, Note_on_c, 4, 64, 100
6, 0, Note_on_c, 4, 69, 100
6, 216, Note_on_c, 4, 60, 0
6, 216, Note_on_c, 4, 64, 0
6, 216, Note_on_c, 4, 69, 0
6, 240, Note_on_c, 4, 69, 100
6, 240, Note_on_c, 4, 72, 100
6, 240, Note_on_c, 4, 64, 100
6, 348, Note_on_c, 4, 69, 0
6, 348, Note_on_c, 4, 72, 0
6, 360, Note_on_c, 4, 68, 100
6, 360, Note_on_c, 4, 74, 100
6, 456, Note_on_c, 4, 64, 0
6, 468, Note_on_c, 4, 68, 0
6, 468, Note_on_c, 4, 74, 0
6, 480, Note_on_c, 4, 76, 100
6, 480, Note_on_c, 4, 64, 100
6, 480, Note_on_c, 4, 69, 100
6, 588, Note_on_c, 4, 64, 0
6, 588, Note_on_c, 4, 69, 0
6, 600, Note_on_c, 4, 69, 100
6, 600, Note_on_c, 4, 72, 100
6, 828, Note_on_c, 4, 76, 0
6, 828, Note_on_c, 4, 69, 0
6, 828, Note_on_c, 4, 72, 0
6, 840, Note_on_c, 4, 75, 100
6, 840, Note_on_c, 4, 69, 100
6, 840, Note_on_c, 4, 71, 100
6, 948, Note_on_c, 4, 75, 0
6, 948, Note_on_c, 4, 69, 0
6, 948, Note_on_c, 4, 71, 0
6, 960, Note_on_c, 4, 68, 100
6, 960, Note_on_c, 4, 71, 100
6, 960, Note_on_c, 4, 76, 100
6, 1176, Note_on_c, 4, 68, 0
6, 1176, Note_on_c, 4, 71, 0
6, 1176, Note_on_c, 4, 76, 0
6, 1200, Note_on_c, 4, 69, 100
6, 1200, Note_on_c, 4, 72, 100
6, 1200, Note_on_c, 4, 64, 100
6, 1308, Note_on_c, 4, 69, 0
6, 1308, Note_on_c, 4, 72, 0
6, 1320, Note_on_c, 4, 71, 100
6, 1374, Note_on_c, 4, 71, 0
6, 1380, Note_on_c, 4, 69, 100
6, 1416, Note_on_c, 4, 64, 0
6, 1434, Note_on_c, 4, 69, 0
6, 1440, Note_on_c, 4, 64, 100
6, 1440, Note_on_c, 4, 68, 100
6, 1548, Note_on_c, 4, 64, 0
6, 1548, Note_on_c, 4, 68, 0
6, 1560, Note_on_c, 4, 64, 100
6, 1560, Note_on_c, 4, 69, 100
6, 1668, Note_on_c, 4, 64, 0
6, 1668, Note_on_c, 4, 69, 0
6, 1680, Note_on_c, 4, 71, 100
6, 1680, Note_on_c, 4, 65, 100
6, 1680, Note_on_c, 4, 68, 100
6, 1788, Note_on_c, 4, 71, 0
6, 1788, Note_on_c, 4, 65, 0
6, 1788, Note_on_c, 4, 68, 0
6, 1800, Note_on_c, 4, 72, 100
6, 1800, Note_on_c, 4, 64, 100
6, 1800, Note_on_c, 4, 69, 100
6, 1854, Note_on_c, 4, 72, 0
6, 1860, Note_on_c, 4, 74, 100
6, 1908, Note_on_c, 4, 64, 0
6, 1908, Note_on_c, 4, 69, 0
6, 1914, Note_on_c, 4, 74, 0
6, 1920, Note_on_c, 4, 76, 100
6, 1920, Note_on_c, 4, 64, 100
6, 1920, Note_on_c, 4, 69, 100
6, 2028, Note_on_c, 4, 76, 0
6, 2028, Note_on_c, 4, 64, 0
6, 2028, Note_on_c, 4, 69, 0
6, 2040, Note_on_c, 4, 68, 100
6, 2040, Note_on_c, 4, 62, 100
6, 2040, Note_on_c, 4, 64, 100
6, 2094, Note_on_c, 4, 68, 0
6, 2100, Note_on_c, 4, 71, 100
6, 2148, Note_on_c, 4, 62, 0
6, 2148, Note_on_c, 4, 64, 0
6, 2154, Note_on_c, 4, 71, 0
6, 2160, Note_on_c, 4, 64, 100
6, 2160, Note_on_c, 4, 69, 100
6, 2160, Note_on_c, 4, 60, 100
6, 2268, Note_on_c, 4, 64, 0
6, 2268, Note_on_c, 4, 69, 0
6, 2268, Note_on_c, 4, 60, 0
6, 2280, Note_on_c, 4, 68, 100
6, 2280, Note_on_c, 4, 71, 100
6, 2280, Note_on_c, 4, 65, 100
6, 2388, Note_on_c, 4, 65, 0
6, 2400, Note_on_c, 4, 64, 100
6, 2454, Note_on_c, 4, 68, 0
6, 2454, Note_on_c, 4, 71, 0
6, 2454, Note_on_c, 4, 64, 0
6, 2460, Note_on_c, 4, 71, 100
6, 2460, Note_on_c, 4, 74, 100
6, 2460, Note_on_c, 4, 65, 100
6, 2514, Note_on_c, 4, 71, 0
6, 2514, Note_on_c, 4, 74, 0
6, 2514, Note_on_c, 4, 65, 0
6, 2520, Note_on_c, 4, 69, 100
6, 2520, Note_on_c, 4, 72, 100
6, 2520, Note_on_c, 4, 64, 100
6, 2574, Note_on_c, 4, 69, 0
6, 2574, Note_on_c, 4, 72, 0
6, 2574, Note_on_c, 4, 64, 0
6, 2580, Note_on_c, 4, 65, 100
6, 2580, Note_on_c, 4, 69, 100
6, 2580, Note_on_c, 4, 62, 100
6, 2634, Note_on_c, 4, 65, 0
6, 2634, Note_on_c, 4, 69, 0
6, 2634, Note_on_c, 4, 62, 0
6, 2640, Note_on_c, 4, 60, 100
6, 2640, Note_on_c, 4, 64, 100
6, 2640, Note_on_c, 4, 69, 100
6, 2748, Note_on_c, 4, 60, 0
6, 2748, Note_on_c, 4, 64, 0
6, 2748, Note_on_c, 4, 69, 0
6, 2760, Note_on_c, 4, 59, 100
6, 2760, Note_on_c, 4, 64, 100
6, 2760, Note_on_c, 4, 68, 100
6, 2868, Note_on_c, 4, 59, 0
6, 2868, Note_on_c, 4, 64, 0
6, 2868, Note_on_c, 4, 68, 0
6, 2880, Note_on_c, 4, 60, 100
6, 2880, Note_on_c, 4, 64, 100
6, 2880, Note_on_c, 4, 69, 100
6, 3096, Note_on_c, 4, 60, 0
6, 3096, Note_on_c, 4, 64, 0
6, 3096, Note_on_c, 4, 69, 0
6, 5040, Note_on_c, 4, 74, 100
6, 5067, Note_on_c, 4, 74, 0
6, 5070, Note_on_c, 4, 72, 100
6, 5097, Note_on_c, 4, 72, 0
6, 5100, Note_on_c, 4, 71, 100
6, 5127, Note_on_c, 4, 71, 0
6, 5130, Note_on_c, 4, 72, 100
6, 5157, Note_on_c, 4, 72, 0
6, 5160, Note_on_c, 4, 74, 100
6, 5187, Note_on_c, 4, 74, 0
6, 5190, Note_on_c, 4, 72, 100
6, 5217, Note_on_c, 4, 72, 0
6, 5220, Note_on_c, 4, 74, 100
6, 5247, Note_on_c, 4, 74, 0
6, 5250, Note_on_c, 4, 76, 100
6, 5277, Note_on_c, 4, 76, 0
6, 5280, Note_on_c, 4, 77, 100
6, 5574, Note_on_c, 4, 77, 0
6, 5580, Note_on_c, 4, 79, 100
6, 5607, Note_on_c, 4, 79, 0
6, 5610, Note_on_c, 4, 81, 100
6, 5637, Note_on_c, 4, 81, 0
6, 5640, Note_on_c, 4, 79, 100
6, 5667, Note_on_c, 4, 79, 0
6, 5670, Note_on_c, 4, 81, 100
6, 5697, Note_on_c, 4, 81, 0
6, 5700, Note_on_c, 4, 77, 100
6, 5754, Note_on_c, 4, 77, 0
6, 5760, Note_on_c, 4, 76, 100
6, 5814, Note_on_c, 4, 76, 0
6, 5820, Note_on_c, 4, 74, 100
6, 5874, Note_on_c, 4, 74, 0
6, 5880, Note_on_c, 4, 72, 100
6, 5934, Note_on_c, 4, 72, 0
6, 5940, Note_on_c, 4, 74, 100
6, 5994, Note_on_c, 4, 74, 0
6, 6000, Note_on_c, 4, 76, 100
6, 6054, Note_on_c, 4, 76, 0
6, 6060, Note_on_c, 4, 72, 100
6, 6114, Note_on_c, 4, 72, 0
6, 6120, Note_on_c, 4, 74, 100
6, 6174, Note_on_c, 4, 74, 0
6, 6180, Note_on_c, 4, 76, 100
6, 6234, Note_on_c, 4, 76, 0
6, 6240, Note_on_c, 4, 77, 100
6, 6294, Note_on_c, 4, 77, 0
6, 6300, Note_on_c, 4, 76, 100
6, 6354, Note_on_c, 4, 76, 0
6, 6360, Note_on_c, 4, 77, 100
6, 6534, Note_on_c, 4, 77, 0
6, 6540, Note_on_c, 4, 79, 100
6, 6594, Note_on_c, 4, 79, 0
6, 6600, Note_on_c, 4, 77, 100
6, 6654, Note_on_c, 4, 77, 0
6, 6660, Note_on_c, 4, 76, 100
6, 6714, Note_on_c, 4, 76, 0
6, 6720, Note_on_c, 4, 74, 100
6, 6774, Note_on_c, 4, 74, 0
6, 6780, Note_on_c, 4, 72, 100
6, 6834, Note_on_c, 4, 72, 0
6, 6840, Note_on_c, 4, 71, 100
6, 6894, Note_on_c, 4, 71, 0
6, 6900, Note_on_c, 4, 72, 100
6, 6954, Note_on_c, 4, 72, 0
6, 6960, Note_on_c, 4, 74, 100
6, 7068, Note_on_c, 4, 74, 0
6, 7080, Note_on_c, 4, 83, 100
6, 7188, Note_on_c, 4, 83, 0
6, 7200, Note_on_c, 4, 84, 100
6, 7254, Note_on_c, 4, 84, 0
6, 7260, Note_on_c, 4, 83, 100
6, 7314, Note_on_c, 4, 83, 0
6, 7320, Note_on_c, 4, 84, 100
6, 7374, Note_on_c, 4, 84, 0
6, 7380, Note_on_c, 4, 81, 100
6, 7434, Note_on_c, 4, 81, 0
6, 7440, Note_on_c, 4, 79, 100
6, 7494, Note_on_c, 4, 79, 0
6, 7500, Note_on_c, 4, 77, 100
6, 7554, Note_on_c, 4, 77, 0
6, 7560, Note_on_c, 4, 76, 100
6, 7614, Note_on_c, 4, 76, 0
6, 7620, Note_on_c, 4, 77, 100
6, 7674, Note_on_c, 4, 77, 0
6, 7680, Note_on_c, 4, 76, 100
6, 7734, Note_on_c, 4, 76, 0
6, 7740, Note_on_c, 4, 74, 100
6, 7794, Note_on_c, 4, 74, 0
6, 7800, Note_on_c, 4, 72, 100
6, 7908, Note_on_c, 4, 72, 0
6, 7920, Note_on_c, 4, 64, 100
6, 7920, Note_on_c, 4, 67, 100
6, 7920, Note_on_c, 4, 72, 100
6, 8028, Note_on_c, 4, 64, 0
6, 8028, Note_on_c, 4, 67, 0
6, 8028, Note_on_c, 4, 72, 0
6, 8040, Note_on_c, 4, 65, 100
6, 8040, Note_on_c, 4, 67, 100
6, 8040, Note_on_c, 4, 71, 100
6, 8148, Note_on_c, 4, 65, 0
6, 8148, Note_on_c, 4, 67, 0
6, 8148, Note_on_c, 4, 71, 0
6, 8160, Note_on_c, 4, 72, 100
6, 8160, Note_on_c, 4, 64, 100
6, 8160, Note_on_c, 4, 67, 100
6, 8268, Note_on_c, 4, 64, 0
6, 8268, Note_on_c, 4, 67, 0
6, 8280, Note_on_c, 4, 65, 100
6, 8334, Note_on_c, 4, 65, 0
6, 8340, Note_on_c, 4, 64, 100
6, 8376, Note_on_c, 4, 72, 0
6, 8394, Note_on_c, 4, 64, 0
6, 8400, Note_on_c, 4, 62, 100
6, 8400, Note_on_c, 4, 67, 100
6, 8400, Note_on_c, 4, 71, 100
6, 8508, Note_on_c, 4, 62, 0
6, 8508, Note_on_c, 4, 67, 0
6, 8508, Note_on_c, 4, 71, 0
6, 8520, Note_on_c, 4, 60, 100
6, 8520, Note_on_c, 4, 66, 100
6, 8520, Note_on_c, 4, 69, 100
6, 8628, Note_on_c, 4, 60, 0
6, 8628, Note_on_c, 4, 66, 0
6, 8628, Note_on_c, 4, 69, 0
6, 8640, Note_on_c, 4, 62, 100
6, 8640, Note_on_c, 4, 67, 100
6, 8640, Note_on_c, 4, 71, 100
6, 8856, Note_on_c, 4, 62, 0
6, 8856, Note_on_c, 4, 67, 0
6, 8856, Note_on_c, 4, 71, 0
6, 8880, Note_on_c, 4, 67, 100
6, 8880, Note_on_c, 4, 60, 100
6, 8880, Note_on_c, 4, 64, 100
6, 8988, Note_on_c, 4, 60, 0
6, 8988, Note_on_c, 4, 64, 0
6, 9000, Note_on_c, 4, 59, 100
6, 9000, Note_on_c, 4, 62, 100
6, 9096, Note_on_c, 4, 67, 0
6, 9108, Note_on_c, 4, 59, 0
6, 9108, Note_on_c, 4, 62, 0
6, 9120, Note_on_c, 4, 67, 100
6, 9120, Note_on_c, 4, 71, 100
6, 9120, Note_on_c, 4, 62, 100
6, 9228, Note_on_c, 4, 67, 0
6, 9228, Note_on_c, 4, 71, 0
6, 9228, Note_on_c, 4, 62, 0
6, 9240, Note_on_c, 4, 67, 100
6, 9240, Note_on_c, 4, 72, 100
6, 9240, Note_on_c, 4, 60, 100
6, 9294, Note_on_c, 4, 60, 0
6, 9300, Note_on_c, 4, 64, 100
6, 9348, Note_on_c, 4, 67, 0
6, 9348, Note_on_c, 4, 72, 0
6, 9354, Note_on_c, 4, 64, 0
6, 9360, Note_on_c, 4, 71, 100
6, 9360, Note_on_c, 4, 74, 100
6, 9360, Note_on_c, 4, 65, 100
6, 9468, Note_on_c, 4, 71, 0
6, 9468, Note_on_c, 4, 74, 0
6, 9468, Note_on_c, 4, 65, 0
6, 9480, Note_on_c, 4, 67, 100
6, 9480, Note_on_c, 4, 72, 100
6, 9480, Note_on_c, 4, 67, 100
6, 9534, Note_on_c, 4, 67, 0
6, 9534, Note_on_c, 4, 72, 0
6, 9534, Note_on_c, 4, 67, 0
6, 9540, Note_on_c, 4, 65, 100
6, 9540, Note_on_c, 4, 71, 100
6, 9594, Note_on_c, 4, 65, 0
6, 9594, Note_on_c, 4, 71, 0
6, 9600, Note_on_c, 4, 64, 100
6, 9600, Note_on_c, 4, 67, 100
6, 9600, Note_on_c, 4, 72, 100
6, 9708, Note_on_c, 4, 64, 0
6, 9708, Note_on_c, 4, 67, 0
6, 9708, Note_on_c, 4, 72, 0
6, 9720, Note_on_c, 4, 59, 100
6, 9720, Note_on_c, 4, 65, 100
6, 9720, Note_on_c, 4, 67, 100
6, 9828, Note_on_c, 4, 59, 0
6, 9828, Note_on_c, 4, 65, 0
6, 9828, Note_on_c, 4, 67, 0
6, 9840, Note_on_c, 4, 64, 100
6, 9840, Note_on_c, 4, 67, 100
6, 9840, Note_on_c, 4, 60, 100
6, 9948, Note_on_c, 4, 64, 0
6, 9948, Note_on_c, 4, 67, 0
6, 9948, Note_on_c, 4, 60, 0
6, 9960, Note_on_c, 4, 71, 100
6, 9960, Note_on_c, 4, 65, 100
6, 10014, Note_on_c, 4, 71, 0
6, 10020, Note_on_c, 4, 69, 100
6, 10068, Note_on_c, 4, 65, 0
6, 10074, Note_on_c, 4, 69, 0
6, 10080, Note_on_c, 4, 71, 100
6, 10080, Note_on_c, 4, 65, 100
6, 10080, Note_on_c, 4, 67, 100
6, 10134, Note_on_c, 4, 71, 0
6, 10140, Note_on_c, 4, 74, 100
6, 10188, Note_on_c, 4, 65, 0
6, 10188, Note_on_c, 4, 67, 0
6, 10194, Note_on_c, 4, 74, 0
6, 10200, Note_on_c, 4, 76, 100
6, 10200, Note_on_c, 4, 64, 100
6, 10200, Note_on_c, 4, 67, 100
6, 10254, Note_on_c, 4, 76, 0
6, 10254, Note_on_c, 4, 64, 0
6, 10254, Note_on_c, 4, 67, 0
6, 10260, Note_on_c, 4, 72, 100
6, 10260, Note_on_c, 4, 62, 100
6, 10260, Note_on_c, 4, 69, 100
6, 10314, Note_on_c, 4, 72, 0
6, 10314, Note_on_c, 4, 62, 0
6, 10314, Note_on_c, 4, 69, 0
6, 10320, Note_on_c, 4, 64, 100
6, 10320, Note_on_c, 4, 72, 100
6, 10320, Note_on_c, 4, 67, 100
6, 10428, Note_on_c, 4, 64, 0
6, 10428, Note_on_c, 4, 72, 0
6, 10440, Note_on_c, 4, 62, 100
6, 10440, Note_on_c, 4, 71, 100
6, 10536, Note_on_c, 4, 67, 0
6, 10548, Note_on_c, 4, 62, 0
6, 10548, Note_on_c, 4, 71, 0
6, 10560, Note_on_c, 4, 64, 100
6, 10560, Note_on_c, 4, 67, 100
6, 10560, Note_on_c, 4, 72, 100
6, 10668, Note_on_c, 4, 64, 0
6, 10668, Note_on_c, 4, 67, 0
6, 10668, Note_on_c, 4, 72, 0
6, 10680, Note_on_c, 4, 72, 100
6, 10734, Note_on_c, 4, 72, 0
6, 10740, Note_on_c, 4, 74, 100
6, 10794, Note_on_c, 4, 74, 0
6, 10800, Note_on_c, 4, 76, 100
6, 10854, Note_on_c, 4, 76, 0
6, 10860, Note_on_c, 4, 77, 100
6, 10914, Note_on_c, 4, 77, 0
6, 10920, Note_on_c, 4, 79, 100
6, 10974, Note_on_c, 4, 79, 0
6, 10980, Note_on_c, 4, 67, 100
6, 11034, Note_on_c, 4, 67, 0
6, 11040, Note_on_c, 4, 72, 100
6, 11094, Note_on_c, 4, 72, 0
6, 11100, Note_on_c, 4, 71, 100
6, 11154, Note_on_c, 4, 71, 0
6, 11160, Note_on_c, 4, 72, 100
6, 11334, Note_on_c, 4, 72, 0
6, 11340, Note_on_c, 4, 76, 100
6, 11394, Note_on_c, 4, 76, 0
6, 11400, Note_on_c, 4, 74, 100
6, 11454, Note_on_c, 4, 74, 0
6, 11460, Note_on_c, 4, 72, 100
6, 11514, Note_on_c, 4, 72, 0
6, 11520, Note_on_c, 4, 71, 100
6, 11574, Note_on_c, 4, 71, 0
6, 11580, Note_on_c, 4, 72, 100
6, 11607, Note_on_c, 4, 72, 0
6, 11610, Note_on_c, 4, 74, 100
6, 11637, Note_on_c, 4, 74, 0
6, 11640, Note_on_c, 4, 67, 100
6, 11748, Note_on_c, 4, 67, 0
6, 12060, Note_on_c, 4, 62, 100
6, 12114, Note_on_c, 4, 62, 0
6, 12120, Note_on_c, 4, 67, 100
6, 12174, Note_on_c, 4, 67, 0
6, 12180, Note_on_c, 4, 69, 100
6, 12234, Note_on_c, 4, 69, 0
6, 12240, Note_on_c, 4, 71, 100
6, 12294, Note_on_c, 4, 71, 0
6, 12300, Note_on_c, 4, 67, 100
6, 12354, Note_on_c, 4, 67, 0
6, 12360, Note_on_c, 4, 64, 100
6, 12414, Note_on_c, 4, 64, 0
6, 12420, Note_on_c, 4, 73, 100
6, 12474, Note_on_c, 4, 73, 0
6, 12480, Note_on_c, 4, 74, 100
6, 12534, Note_on_c, 4, 74, 0
6, 12540, Note_on_c, 4, 69, 100
6, 12594, Note_on_c, 4, 69, 0
6, 12600, Note_on_c, 4, 65, 100
6, 12654, Note_on_c, 4, 65, 0
6, 12660, Note_on_c, 4, 69, 100
6, 12714, Note_on_c, 4, 69, 0
6, 12720, Note_on_c, 4, 74, 100
6, 12774, Note_on_c, 4, 74, 0
6, 12780, Note_on_c, 4, 77, 100
6, 12807, Note_on_c, 4, 77, 0
6, 12810, Note_on_c, 4, 76, 100
6, 12837, Note_on_c, 4, 76, 0
6, 12840, Note_on_c, 4, 77, 100
6, 12894, Note_on_c, 4, 77, 0
6, 12900, Note_on_c, 4, 79, 100
6, 12954, Note_on_c, 4, 79, 0
6, 12960, Note_on_c, 4, 81, 100
6, 13014, Note_on_c, 4, 81, 0
6, 13020, Note_on_c, 4, 69, 100
6, 13074, Note_on_c, 4, 69, 0
6, 13080, Note_on_c, 4, 71, 100
6, 13134, Note_on_c, 4, 71, 0
6, 13140, Note_on_c, 4, 74, 100
6, 13167, Note_on_c, 4, 74, 0
6, 13170, Note_on_c, 4, 73, 100
6, 13197, Note_on_c, 4, 73, 0
6, 13200, Note_on_c, 4, 74, 100
6, 13254, Note_on_c, 4, 74, 0
6, 13260, Note_on_c, 4, 71, 100
6, 13314, Note_on_c, 4, 71, 0
6, 13320, Note_on_c, 4, 68, 100
6, 13347, Note_on_c, 4, 68, 0
6, 13350, Note_on_c, 4, 69, 100
6, 13377, Note_on_c, 4, 69, 0
6, 13380, Note_on_c, 4, 71, 100
6, 13434, Note_on_c, 4, 71, 0
6, 13440, Note_on_c, 4, 64, 100
6, 13656, Note_on_c, 4, 64, 0
6, 13980, Note_on_c, 4, 64, 100
6, 14034, Note_on_c, 4, 64, 0
6, 14040, Note_on_c, 4, 69, 100
6, 14094, Note_on_c, 4, 69, 0
6, 14100, Note_on_c, 4, 71, 100
6, 14154, Note_on_c, 4, 71, 0
6, 14160, Note_on_c, 4, 72, 100
6, 14214, Note_on_c, 4, 72, 0
6, 14220, Note_on_c, 4, 69, 100
6, 14274, Note_on_c, 4, 69, 0
6, 14280, Note_on_c, 4, 66, 100
6, 14334, Note_on_c, 4, 66, 0
6, 14340, Note_on_c, 4, 75, 100
6, 14394, Note_on_c, 4, 75, 0
6, 14400, Note_on_c, 4, 76, 100
6, 14454, Note_on_c, 4, 76, 0
6, 14460, Note_on_c, 4, 71, 100
6, 14514, Note_on_c, 4, 71, 0
6, 14520, Note_on_c, 4, 68, 100
6, 14574, Note_on_c, 4, 68, 0
6, 14580, Note_on_c, 4, 64, 100
6, 14634, Note_on_c, 4, 64, 0
6, 14880, Note_on_c, 4, 83, 100
6, 14988, Note_on_c, 4, 83, 0
6, 15000, Note_on_c, 4, 81, 100
6, 15108, Note_on_c, 4, 81, 0
6, 15120, Note_on_c, 4, 80, 100
6, 15228, Note_on_c, 4, 80, 0
6, 15360, Note_on_c, 4, 81, 100
6, 15414, Note_on_c, 4, 81, 0
6, 15420, Note_on_c, 4, 72, 100
6, 15474, Note_on_c, 4, 72, 0
6, 15480, Note_on_c, 4, 77, 100
6, 15534, Note_on_c, 4, 77, 0
6, 15540, Note_on_c, 4, 76, 100
6, 15594, Note_on_c, 4, 76, 0
6, 15600, Note_on_c, 4, 76, 100
6, 15894, Note_on_c, 4, 76, 0
6, 15900, Note_on_c, 4, 71, 100
6, 15954, Note_on_c, 4, 71, 0
6, 15960, Note_on_c, 4, 72, 100
6, 16014, Note_on_c, 4, 72, 0
6, 16020, Note_on_c, 4, 77, 100
6, 16107, Note_on_c, 4, 77, 0
6, 16110, Note_on_c, 4, 76, 100
6, 16137, Note_on_c, 4, 76, 0
6, 16140, Note_on_c, 4, 74, 100
6, 16227, Note_on_c, 4, 74, 0
6, 16230, Note_on_c, 4, 77, 100
6, 16257, Note_on_c, 4, 77, 0
6, 16260, Note_on_c, 4, 76, 100
6, 16314, Note_on_c, 4, 76, 0
6, 16320, Note_on_c, 4, 72, 100
6, 16374, Note_on_c, 4, 72, 0
6, 16380, Note_on_c, 4, 71, 100
6, 16434, Note_on_c, 4, 71, 0
6, 16440, Note_on_c, 4, 69, 100
6, 16494, Note_on_c, 4, 69, 0
6, 16500, Note_on_c, 4, 71, 100
6, 16554, Note_on_c, 4, 71, 0
6, 16560, Note_on_c, 4, 72, 100
6, 16854, Note_on_c, 4, 72, 0
6, 16860, Note_on_c, 4, 74, 100
6, 16887, Note_on_c, 4, 74, 0
6, 16890, Note_on_c, 4, 72, 100
6, 16917, Note_on_c, 4, 72, 0
6, 16920, Note_on_c, 4, 71, 100
6, 16947, Note_on_c, 4, 71, 0
6, 16950, Note_on_c, 4, 72, 100
6, 16977, Note_on_c, 4, 72, 0
6, 16980, Note_on_c, 4, 69, 100
6, 17034, Note_on_c, 4, 69, 0
6, 17040, Note_on_c, 4, 75, 100
6, 17256, Note_on_c, 4, 75, 0
6, 17520, Note_on_c, 4, 71, 100
6, 17814, Note_on_c, 4, 71, 0
6, 17820, Note_on_c, 4, 72, 100
6, 17847, Note_on_c, 4, 72, 0
6, 17850, Note_on_c, 4, 71, 100
6, 17877, Note_on_c, 4, 71, 0
6, 17880, Note_on_c, 4, 69, 100
6, 17907, Note_on_c, 4, 69, 0
6, 17910, Note_on_c, 4, 71, 100
6, 17937, Note_on_c, 4, 71, 0
6, 17940, Note_on_c, 4, 67, 100
6, 17994, Note_on_c, 4, 67, 0
6, 18000, Note_on_c, 4, 72, 100
6, 18216, Note_on_c, 4, 72, 0
6, 18480, Note_on_c, 4, 69, 100
6, 18774, Note_on_c, 4, 69, 0
6, 18780, Note_on_c, 4, 71, 100
6, 18807, Note_on_c, 4, 71, 0
6, 18810, Note_on_c, 4, 72, 100
6, 18837, Note_on_c, 4, 72, 0
6, 18840, Note_on_c, 4, 71, 100
6, 18867, Note_on_c, 4, 71, 0
6, 18870, Note_on_c, 4, 72, 100
6, 18897, Note_on_c, 4, 72, 0
6, 18900, Note_on_c, 4, 69, 100
6, 18954, Note_on_c, 4, 69, 0
6, 18960, Note_on_c, 4, 75, 100
6, 19014, Note_on_c, 4, 75, 0
6, 19020, Note_on_c, 4, 66, 100
6, 19074, Note_on_c, 4, 66, 0
6, 19080, Note_on_c, 4, 69, 100
6, 19134, Note_on_c, 4, 69, 0
6, 19140, Note_on_c, 4, 64, 100
6, 19194, Note_on_c, 4, 64, 0
6, 19200, Note_on_c, 4, 63, 100
6, 19227, Note_on_c, 4, 63, 0
6, 19230, Note_on_c, 4, 72, 100
6, 19257, Note_on_c, 4, 72, 0
6, 19260, Note_on_c, 4, 71, 100
6, 19287, Note_on_c, 4, 71, 0
6, 19290, Note_on_c, 4, 69, 100
6, 19317, Note_on_c, 4, 69, 0
6, 19320, Note_on_c, 4, 67, 100
6, 19347, Note_on_c, 4, 67, 0
6, 19350, Note_on_c, 4, 69, 100
6, 19377, Note_on_c, 4, 69, 0
6, 19380, Note_on_c, 4, 66, 100
6, 19434, Note_on_c, 4, 66, 0
6, 19440, Note_on_c, 4, 67, 100
6, 19548, Note_on_c, 4, 67, 0
6, 19560, Note_on_c, 4, 71, 100
6, 19668, Note_on_c, 4, 71, 0
6, 19680, Note_on_c, 4, 76, 100
6, 19734, Note_on_c, 4, 76, 0
6, 19740, Note_on_c, 4, 75, 100
6, 19794, Note_on_c, 4, 75, 0
6, 19800, Note_on_c, 4, 76, 100
6, 19974, Note_on_c, 4, 76, 0
6, 19980, Note_on_c, 4, 78, 100
6, 20007, Note_on_c, 4, 78, 0
6, 20010, Note_on_c, 4, 79, 100
6, 20037, Note_on_c, 4, 79, 0
6, 20040, Note_on_c, 4, 78, 100
6, 20067, Note_on_c, 4, 78, 0
6, 20070, Note_on_c, 4, 79, 100
6, 20097, Note_on_c, 4, 79, 0
6, 20100, Note_on_c, 4, 76, 100
6, 20154, Note_on_c, 4, 76, 0
6, 20160, Note_on_c, 4, 75, 100
6, 20214, Note_on_c, 4, 75, 0
6, 20220, Note_on_c, 4, 76, 100
6, 20247, Note_on_c, 4, 76, 0
6, 20250, Note_on_c, 4, 78, 100
6, 20277, Note_on_c, 4, 78, 0
6, 20280, Note_on_c, 4, 71, 100
6, 20454, Note_on_c, 4, 71, 0
6, 20460, Note_on_c, 4, 76, 100
6, 20514, Note_on_c, 4, 76, 0
6, 20520, Note_on_c, 4, 78, 100
6, 20574, Note_on_c, 4, 78, 0
6, 20580, Note_on_c, 4, 79, 100
6, 20634, Note_on_c, 4, 79, 0
6, 20640, Note_on_c, 4, 72, 100
6, 20748, Note_on_c, 4, 72, 0
6, 20760, Note_on_c, 4, 71, 100
6, 20868, Note_on_c, 4, 71, 0
6, 20880, Note_on_c, 4, 69, 100
6, 20934, Note_on_c, 4, 69, 0
6, 20940, Note_on_c, 4, 75, 100
6, 20994, Note_on_c, 4, 75, 0
6, 21000, Note_on_c, 4, 76, 100
6, 21054, Note_on_c, 4, 76, 0
6, 21060, Note_on_c, 4, 78, 100
6, 21114, Note_on_c, 4, 78, 0
6, 21120, Note_on_c, 4, 71, 100
6, 21228, Note_on_c, 4, 71, 0
6, 21240, Note_on_c, 4, 69, 100
6, 21348, Note_on_c, 4, 69, 0
6, 21360, Note_on_c, 4, 67, 100
6, 21414, Note_on_c, 4, 67, 0
6, 21420, Note_on_c, 4, 73, 100
6, 21474, Note_on_c, 4, 73, 0
6, 21480, Note_on_c, 4, 75, 100
6, 21534, Note_on_c, 4, 75, 0
6, 21540, Note_on_c, 4, 76, 100
6, 21594, Note_on_c, 4, 76, 0
6, 21600, Note_on_c, 4, 69, 100
6, 21654, Note_on_c, 4, 69, 0
6, 21660, Note_on_c, 4, 71, 100
6, 21687, Note_on_c, 4, 71, 0
6, 21690, Note_on_c, 4, 72, 100
6, 21717, Note_on_c, 4, 72, 0
6, 21720, Note_on_c, 4, 71, 100
6, 21747, Note_on_c, 4, 71, 0
6, 21750, Note_on_c, 4, 72, 100
6, 21777, Note_on_c, 4, 72, 0
6, 21780, Note_on_c, 4, 69, 100
6, 21834, Note_on_c, 4, 69, 0
6, 21840, Note_on_c, 4, 67, 100
6, 21948, Note_on_c, 4, 67, 0
6, 21960, Note_on_c, 4, 66, 100
6, 22041, Note_on_c, 4, 66, 0
6, 22050, Note_on_c, 4, 64, 100
6, 22077, Note_on_c, 4, 64, 0
6, 22080, Note_on_c, 4, 64, 100
6, 22296, Note_on_c, 4, 64, 0
6, 22320, Note_on_c, 4, 67, 100
6, 22320, Note_on_c, 4, 71, 100
6, 22320, Note_on_c, 4, 76, 100
6, 22428, Note_on_c, 4, 67, 0
6, 22428, Note_on_c, 4, 71, 0
6, 22428, Note_on_c, 4, 76, 0
6, 22440, Note_on_c, 4, 69, 100
6, 22440, Note_on_c, 4, 71, 100
6, 22440, Note_on_c, 4, 75, 100
6, 22548, Note_on_c, 4, 69, 0
6, 22548, Note_on_c, 4, 71, 0
6, 22548, Note_on_c, 4, 75, 0
6, 22560, Note_on_c, 4, 76, 100
6, 22560, Note_on_c, 4, 67, 100
6, 22560, Note_on_c, 4, 71, 100
6, 22668, Note_on_c, 4, 67, 0
6, 22668, Note_on_c, 4, 71, 0
6, 22680, Note_on_c, 4, 69, 100
6, 22734, Note_on_c, 4, 69, 0
6, 22740, Note_on_c, 4, 67, 100
6, 22776, Note_on_c, 4, 76, 0
6, 22794, Note_on_c, 4, 67, 0
6, 22800, Note_on_c, 4, 71, 100
6, 22800, Note_on_c, 4, 75, 100
6, 22800, Note_on_c, 4, 66, 100
6, 23016, Note_on_c, 4, 71, 0
6, 23016, Note_on_c, 4, 75, 0
6, 23016, Note_on_c, 4, 66, 0
6, 23040, Note_on_c, 4, 66, 100
6, 23040, Note_on_c, 4, 71, 100
6, 23040, Note_on_c, 4, 63, 100
6, 23040, Note_on_c, 4, 66, 100
6, 23256, Note_on_c, 4, 66, 0
6, 23256, Note_on_c, 4, 71, 0
6, 23256, Note_on_c, 4, 63, 0
6, 23256, Note_on_c, 4, 66, 0
6, 23280, Note_on_c, 4, 71, 100
6, 23280, Note_on_c, 4, 64, 100
6, 23280, Note_on_c, 4, 67, 100
6, 23388, Note_on_c, 4, 64, 0
6, 23388, Note_on_c, 4, 67, 0
6, 23400, Note_on_c, 4, 63, 100
6, 23400, Note_on_c, 4, 66, 100
6, 23628, Note_on_c, 4, 71, 0
6, 23628, Note_on_c, 4, 63, 0
6, 23628, Note_on_c, 4, 66, 0
6, 23640, Note_on_c, 4, 71, 100
6, 23640, Note_on_c, 4, 76, 100
6, 23640, Note_on_c, 4, 64, 100
6, 23748, Note_on_c, 4, 71, 0
6, 23748, Note_on_c, 4, 76, 0
6, 23748, Note_on_c, 4, 64, 0
6, 23760, Note_on_c, 4, 66, 100
6, 23760, Note_on_c, 4, 72, 100
6, 23760, Note_on_c, 4, 75, 100
6, 23868, Note_on_c, 4, 66, 0
6, 23868, Note_on_c, 4, 72, 0
6, 23868, Note_on_c, 4, 75, 0
6, 23880, Note_on_c, 4, 64, 100
6, 23880, Note_on_c, 4, 76, 100
6, 23880, Note_on_c, 4, 71, 100
6, 23934, Note_on_c, 4, 71, 0
6, 23940, Note_on_c, 4, 69, 100
6, 23988, Note_on_c, 4, 64, 0
6, 23988, Note_on_c, 4, 76, 0
6, 23994, Note_on_c, 4, 69, 0
6, 24000, Note_on_c, 4, 71, 100
6, 24000, Note_on_c, 4, 76, 100
6, 24000, Note_on_c, 4, 64, 100
6, 24054, Note_on_c, 4, 64, 0
6, 24060, Note_on_c, 4, 67, 100
6, 24108, Note_on_c, 4, 71, 0
6, 24108, Note_on_c, 4, 76, 0
6, 24114, Note_on_c, 4, 67, 0
6, 24120, Note_on_c, 4, 69, 100
6, 24120, Note_on_c, 4, 71, 100
6, 24120, Note_on_c, 4, 63, 100
6, 24174, Note_on_c, 4, 63, 0
6, 24180, Note_on_c, 4, 66, 100
6, 24228, Note_on_c, 4, 69, 0
6, 24228, Note_on_c, 4, 71, 0
6, 24234, Note_on_c, 4, 66, 0
6, 24240, Note_on_c, 4, 71, 100
6, 24240, Note_on_c, 4, 64, 100
6, 24240, Note_on_c, 4, 67, 100
6, 24348, Note_on_c, 4, 71, 0
6, 24348, Note_on_c, 4, 64, 0
6, 24348, Note_on_c, 4, 67, 0
6, 24360, Note_on_c, 4, 69, 100
6, 24360, Note_on_c, 4, 59, 100
6, 24360, Note_on_c, 4, 63, 100
6, 24414, Note_on_c, 4, 69, 0
6, 24420, Note_on_c, 4, 67, 100
6, 24468, Note_on_c, 4, 59, 0
6, 24468, Note_on_c, 4, 63, 0
6, 24474, Note_on_c, 4, 67, 0
6, 24480, Note_on_c, 4, 69, 100
6, 24480, Note_on_c, 4, 59, 100
6, 24480, Note_on_c, 4, 63, 100
6, 24534, Note_on_c, 4, 59, 0
6, 24534, Note_on_c, 4, 63, 0
6, 24540, Note_on_c, 4, 60, 100
6, 24540, Note_on_c, 4, 66, 100
6, 24588, Note_on_c, 4, 69, 0
6, 24594, Note_on_c, 4, 60, 0
6, 24594, Note_on_c, 4, 66, 0
6, 24600, Note_on_c, 4, 67, 100
6, 24600, Note_on_c, 4, 59, 100
6, 24600, Note_on_c, 4, 64, 100
6, 24654, Note_on_c, 4, 67, 0
6, 24654, Note_on_c, 4, 59, 0
6, 24654, Note_on_c, 4, 64, 0
6, 24660, Note_on_c, 4, 69, 100
6, 24660, Note_on_c, 4, 60, 100
6, 24660, Note_on_c, 4, 64, 100
6, 24714, Note_on_c, 4, 69, 0
6, 24714, Note_on_c, 4, 60, 0
6, 24714, Note_on_c, 4, 64, 0
6, 24720, Note_on_c, 4, 64, 100
6, 24720, Note_on_c, 4, 67, 100
6, 24720, Note_on_c, 4, 59, 100
6, 24828, Note_on_c, 4, 64, 0
6, 24828, Note_on_c, 4, 67, 0
6, 24840, Note_on_c, 4, 63, 100
6, 24840, Note_on_c, 4, 66, 100
6, 24936, Note_on_c, 4, 59, 0
6, 24948, Note_on_c, 4, 63, 0
6, 24948, Note_on_c, 4, 66, 0
6, 24960, Note_on_c, 4, 55, 100
6, 24960, Note_on_c, 4, 59, 100
6, 24960, Note_on_c, 4, 64, 100
6, 25014, Note_on_c, 4, 55, 0
6, 25014, Note_on_c, 4, 59, 0
6, 25014, Note_on_c, 4, 64, 0
6, 25020, Note_on_c, 4, 76, 100
6, 25047, Note_on_c, 4, 76, 0
6, 25050, Note_on_c, 4, 74, 100
6, 25077, Note_on_c, 4, 74, 0
6, 25080, Note_on_c, 4, 73, 100
6, 25107, Note_on_c, 4, 73, 0
6, 25110, Note_on_c, 4, 74, 100
6, 25137, Note_on_c, 4, 74, 0
6, 25140, Note_on_c, 4, 74, 100
6, 25167, Note_on_c, 4, 74, 0
6, 25170, Note_on_c, 4, 73, 100
6, 25183, Note_on_c, 4, 73, 0
6, 25185, Note_on_c, 4, 74, 100
6, 25198, Note_on_c, 4, 74, 0
6, 25200, Note_on_c, 4, 73, 100
6, 25254, Note_on_c, 4, 73, 0
6, 25260, Note_on_c, 4, 74, 100
6, 25314, Note_on_c, 4, 74, 0
6, 25320, Note_on_c, 4, 73, 100
6, 25374, Note_on_c, 4, 73, 0
6, 25380, Note_on_c, 4, 74, 100
6, 25434, Note_on_c, 4, 74, 0
6, 25440, Note_on_c, 4, 73, 100
6, 25494, Note_on_c, 4, 73, 0
6, 25500, Note_on_c, 4, 74, 100
6, 25554, Note_on_c, 4, 74, 0
6, 25560, Note_on_c, 4, 73, 100
6, 25614, Note_on_c, 4, 73, 0
6, 25620, Note_on_c, 4, 74, 100
6, 25674, Note_on_c, 4, 74, 0
6, 25680, Note_on_c, 4, 76, 100
6, 25734, Note_on_c, 4, 76, 0
6, 25740, Note_on_c, 4, 77, 100
6, 25794, Note_on_c, 4, 77, 0
6, 25800, Note_on_c, 4, 76, 100
6, 25854, Note_on_c, 4, 76, 0
6, 25860, Note_on_c, 4, 77, 100
6, 25914, Note_on_c, 4, 77, 0
6, 25920, Note_on_c, 4, 79, 100
6, 25974, Note_on_c, 4, 79, 0
6, 25980, Note_on_c, 4, 77, 100
6, 26034, Note_on_c, 4, 77, 0
6, 26040, Note_on_c, 4, 76, 100
6, 26148, Note_on_c, 4, 76, 0
6, 26160, Note_on_c, 4, 75, 100
6, 26214, Note_on_c, 4, 75, 0
6, 26220, Note_on_c, 4, 74, 100
6, 26274, Note_on_c, 4, 74, 0
6, 26280, Note_on_c, 4, 75, 100
6, 26334, Note_on_c, 4, 75, 0
6, 26340, Note_on_c, 4, 74, 100
6, 26394, Note_on_c, 4, 74, 0
6, 26400, Note_on_c, 4, 75, 100
6, 26508, Note_on_c, 4, 75, 0
6, 26520, Note_on_c, 4, 74, 100
6, 26628, Note_on_c, 4, 74, 0
6, 26640, Note_on_c, 4, 72, 100
6, 26694, Note_on_c, 4, 72, 0
6, 26700, Note_on_c, 4, 70, 100
6, 26754, Note_on_c, 4, 70, 0
6, 26760, Note_on_c, 4, 72, 100
6, 26814, Note_on_c, 4, 72, 0
6, 26820, Note_on_c, 4, 71, 100
6, 26874, Note_on_c, 4, 71, 0
6, 26880, Note_on_c, 4, 69, 100
6, 26988, Note_on_c, 4, 69, 0
6, 27000, Note_on_c, 4, 78, 100
6, 27054, Note_on_c, 4, 78, 0
6, 27060, Note_on_c, 4, 79, 100
6, 27114, Note_on_c, 4, 79, 0
6, 27120, Note_on_c, 4, 81, 100
6, 27174, Note_on_c, 4, 81, 0
6, 27180, Note_on_c, 4, 79, 100
6, 27234, Note_on_c, 4, 79, 0
6, 27240, Note_on_c, 4, 81, 100
6, 27294, Note_on_c, 4, 81, 0
6, 27300, Note_on_c, 4, 79, 100
6, 27354, Note_on_c, 4, 79, 0
6, 27360, Note_on_c, 4, 78, 100
6, 27414, Note_on_c, 4, 78, 0
6, 27420, Note_on_c, 4, 76, 100
6, 27474, Note_on_c, 4, 76, 0
6, 27480, Note_on_c, 4, 78, 100
6, 27534, Note_on_c, 4, 78, 0
6, 27540, Note_on_c, 4, 81, 100
6, 27594, Note_on_c, 4, 81, 0
6, 27600, Note_on_c, 4, 75, 100
6, 27654, Note_on_c, 4, 75, 0
6, 27660, Note_on_c, 4, 76, 100
6, 27714, Note_on_c, 4, 76, 0
6, 27720, Note_on_c, 4, 75, 100
6, 27774, Note_on_c, 4, 75, 0
6, 27780, Note_on_c, 4, 76, 100
6, 27834, Note_on_c, 4, 76, 0
6, 27840, Note_on_c, 4, 78, 100
6, 27894, Note_on_c, 4, 78, 0
6, 27900, Note_on_c, 4, 79, 100
6, 27954, Note_on_c, 4, 79, 0
6, 27960, Note_on_c, 4, 81, 100
6, 28068, Note_on_c, 4, 81, 0
6, 28080, Note_on_c, 4, 80, 100
6, 28134, Note_on_c, 4, 80, 0
6, 28140, Note_on_c, 4, 81, 100
6, 28194, Note_on_c, 4, 81, 0
6, 28200, Note_on_c, 4, 80, 100
6, 28254, Note_on_c, 4, 80, 0
6, 28260, Note_on_c, 4, 81, 100
6, 28314, Note_on_c, 4, 81, 0
6, 28320, Note_on_c, 4, 80, 100
6, 28374, Note_on_c, 4, 80, 0
6, 28380, Note_on_c, 4, 81, 100
6, 28434, Note_on_c, 4, 81, 0
6, 28440, Note_on_c, 4, 80, 100
6, 28494, Note_on_c, 4, 80, 0
6, 28500, Note_on_c, 4, 81, 100
6, 28554, Note_on_c, 4, 81, 0
6, 28560, Note_on_c, 4, 71, 100
6, 28614, Note_on_c, 4, 71, 0
6, 28620, Note_on_c, 4, 72, 100
6, 28674, Note_on_c, 4, 72, 0
6, 28680, Note_on_c, 4, 71, 100
6, 28734, Note_on_c, 4, 71, 0
6, 28740, Note_on_c, 4, 72, 100
6, 28794, Note_on_c, 4, 72, 0
6, 28800, Note_on_c, 4, 74, 100
6, 28854, Note_on_c, 4, 74, 0
6, 28860, Note_on_c, 4, 72, 100
6, 28914, Note_on_c, 4, 72, 0
6, 28920, Note_on_c, 4, 71, 100
6, 29028, Note_on_c, 4, 71, 0
6, 29160, Note_on_c, 4, 76, 100
6, 29334, Note_on_c, 4, 76, 0
6, 29340, Note_on_c, 4, 77, 100
6, 29367, Note_on_c, 4, 77, 0
6, 29370, Note_on_c, 4, 76, 100
6, 29397, Note_on_c, 4, 76, 0
6, 29400, Note_on_c, 4, 74, 100
6, 29427, Note_on_c, 4, 74, 0
6, 29430, Note_on_c, 4, 76, 100
6, 29457, Note_on_c, 4, 76, 0
6, 29460, Note_on_c, 4, 72, 100
6, 29514, Note_on_c, 4, 72, 0
6, 29520, Note_on_c, 4, 74, 100
6, 29736, Note_on_c, 4, 74, 0
6, 30000, Note_on_c, 4, 74, 100
6, 30294, Note_on_c, 4, 74, 0
6, 30300, Note_on_c, 4, 76, 100
6, 30327, Note_on_c, 4, 76, 0
6, 30330, Note_on_c, 4, 74, 100
6, 30357, Note_on_c, 4, 74, 0
6, 30360, Note_on_c, 4, 72, 100
6, 30387, Note_on_c, 4, 72, 0
6, 30390, Note_on_c, 4, 74, 100
6, 30417, Note_on_c, 4, 74, 0
6, 30420, Note_on_c, 4, 70, 100
6, 30474, Note_on_c, 4, 70, 0
6, 30480, Note_on_c, 4, 72, 100
6, 30696, Note_on_c, 4, 72, 0
6, 30960, Note_on_c, 4, 72, 100
6, 31254, Note_on_c, 4, 72, 0
6, 31260, Note_on_c, 4, 74, 100
6, 31287, Note_on_c, 4, 74, 0
6, 31290, Note_on_c, 4, 72, 100
6, 31317, Note_on_c, 4, 72, 0
6, 31320, Note_on_c, 4, 70, 100
6, 31347, Note_on_c, 4, 70, 0
6, 31350, Note_on_c, 4, 72, 100
6, 31377, Note_on_c, 4, 72, 0
6, 31380, Note_on_c, 4, 69, 100
6, 31434, Note_on_c, 4, 69, 0
6, 31440, Note_on_c, 4, 70, 100
6, 31494, Note_on_c, 4, 70, 0
6, 31500, Note_on_c, 4, 72, 100
6, 31554, Note_on_c, 4, 72, 0
6, 31560, Note_on_c, 4, 74, 100
6, 31734, Note_on_c, 4, 74, 0
6, 31740, Note_on_c, 4, 76, 100
6, 31767, Note_on_c, 4, 76, 0
6, 31770, Note_on_c, 4, 74, 100
6, 31797, Note_on_c, 4, 74, 0
6, 31800, Note_on_c, 4, 72, 100
6, 31827, Note_on_c, 4, 72, 0
6, 31830, Note_on_c, 4, 74, 100
6, 31857, Note_on_c, 4, 74, 0
6, 31860, Note_on_c, 4, 71, 100
6, 31914, Note_on_c, 4, 71, 0
6, 31920, Note_on_c, 4, 69, 100
6, 32028, Note_on_c, 4, 69, 0
6, 32160, Note_on_c, 4, 71, 100
6, 32268, Note_on_c, 4, 71, 0
6, 32280, Note_on_c, 4, 69, 100
6, 32388, Note_on_c, 4, 69, 0
6, 32400, Note_on_c, 4, 68, 100
6, 32508, Note_on_c, 4, 68, 0
6, 32640, Note_on_c, 4, 69, 100
6, 32694, Note_on_c, 4, 69, 0
6, 32700, Note_on_c, 4, 60, 100
6, 32754, Note_on_c, 4, 60, 0
6, 32760, Note_on_c, 4, 65, 100
6, 32814, Note_on_c, 4, 65, 0
6, 32820, Note_on_c, 4, 64, 100
6, 32874, Note_on_c, 4, 64, 0
6, 32880, Note_on_c, 4, 64, 100
6, 32988, Note_on_c, 4, 64, 0
6, 33180, Note_on_c, 4, 59, 100
6, 33234, Note_on_c, 4, 59, 0
6, 33240, Note_on_c, 4, 60, 100
6, 33294, Note_on_c, 4, 60, 0
6, 33300, Note_on_c, 4, 65, 100
6, 33354, Note_on_c, 4, 65, 0
6, 33360, Note_on_c, 4, 64, 100
6, 33414, Note_on_c, 4, 64, 0
6, 33420, Note_on_c, 4, 69, 100
6, 33474, Note_on_c, 4, 69, 0
6, 33480, Note_on_c, 4, 71, 100
6, 33534, Note_on_c, 4, 71, 0
6, 33540, Note_on_c, 4, 76, 100
6, 33594, Note_on_c, 4, 76, 0
6, 33600, Note_on_c, 4, 75, 100
6, 33816, Note_on_c, 4, 75, 0
6, 33840, Note_on_c, 4, 75, 100
6, 33894, Note_on_c, 4, 75, 0
6, 33900, Note_on_c, 4, 76, 100
6, 33954, Note_on_c, 4, 76, 0
6, 33960, Note_on_c, 4, 75, 100
6, 34014, Note_on_c, 4, 75, 0
6, 34020, Note_on_c, 4, 76, 100
6, 34074, Note_on_c, 4, 76, 0
6, 34080, Note_on_c, 4, 78, 100
6, 34134, Note_on_c, 4, 78, 0
6, 34140, Note_on_c, 4, 79, 100
6, 34194, Note_on_c, 4, 79, 0
6, 34200, Note_on_c, 4, 78, 100
6, 34254, Note_on_c, 4, 78, 0
6, 34260, Note_on_c, 4, 79, 100
6, 34314, Note_on_c, 4, 79, 0
6, 34320, Note_on_c, 4, 81, 100
6, 34374, Note_on_c, 4, 81, 0
6, 34380, Note_on_c, 4, 80, 100
6, 34434, Note_on_c, 4, 80, 0
6, 34440, Note_on_c, 4, 81, 100
6, 34494, Note_on_c, 4, 81, 0
6, 34500, Note_on_c, 4, 80, 100
6, 34554, Note_on_c, 4, 80, 0
6, 34560, Note_on_c, 4, 81, 100
6, 34668, Note_on_c, 4, 81, 0
6, 34680, Note_on_c, 4, 79, 100
6, 34707, Note_on_c, 4, 79, 0
6, 34710, Note_on_c, 4, 78, 100
6, 34737, Note_on_c, 4, 78, 0
6, 34740, Note_on_c, 4, 76, 100
6, 34767, Note_on_c, 4, 76, 0
6, 34770, Note_on_c, 4, 75, 100
6, 34783, Note_on_c, 4, 75, 0
6, 34785, Note_on_c, 4, 76, 100
6, 34798, Note_on_c, 4, 76, 0
6, 34800, Note_on_c, 4, 75, 100
6, 34854, Note_on_c, 4, 75, 0
6, 34860, Note_on_c, 4, 76, 100
6, 34914, Note_on_c, 4, 76, 0
6, 34920, Note_on_c, 4, 75, 100
6, 34974, Note_on_c, 4, 75, 0
6, 34980, Note_on_c, 4, 76, 100
6, 35034, Note_on_c, 4, 76, 0
6, 35040, Note_on_c, 4, 75, 100
6, 35067, Note_on_c, 4, 75, 0
6, 35070, Note_on_c, 4, 76, 100
6, 35097, Note_on_c, 4, 76, 0
6, 35100, Note_on_c, 4, 78, 100
6, 35208, Note_on_c, 4, 78, 0
6, 35220, Note_on_c, 4, 84, 100
6, 35274, Note_on_c, 4, 84, 0
6, 35280, Note_on_c, 4, 74, 100
6, 35307, Note_on_c, 4, 74, 0
6, 35310, Note_on_c, 4, 76, 100
6, 35337, Note_on_c, 4, 76, 0
6, 35340, Note_on_c, 4, 77, 100
6, 35448, Note_on_c, 4, 77, 0
6, 35460, Note_on_c, 4, 84, 100
6, 35514, Note_on_c, 4, 84, 0
6, 35520, Note_on_c, 4, 83, 100
6, 35736, Note_on_c, 4, 83, 0
6, 35760, Note_on_c, 4, 74, 100
6, 36294, Note_on_c, 4, 74, 0
6, 36300, Note_on_c, 4, 76, 100
6, 36327, Note_on_c, 4, 76, 0
6, 36330, Note_on_c, 4, 74, 100
6, 36357, Note_on_c, 4, 74, 0
6, 36360, Note_on_c, 4, 72, 100
6, 36387, Note_on_c, 4, 72, 0
6, 36390, Note_on_c, 4, 74, 100
6, 36417, Note_on_c, 4, 74, 0
6, 36420, Note_on_c, 4, 71, 100
6, 36474, Note_on_c, 4, 71, 0
6, 36480, Note_on_c, 4, 72, 100
6, 36534, Note_on_c, 4, 72, 0
6, 36540, Note_on_c, 4, 65, 100
6, 36594, Note_on_c, 4, 65, 0
6, 36600, Note_on_c, 4, 64, 100
6, 36654, Note_on_c, 4, 64, 0
6, 36660, Note_on_c, 4, 62, 100
6, 36714, Note_on_c, 4, 62, 0
6, 36720, Note_on_c, 4, 60, 100
6, 36774, Note_on_c, 4, 60, 0
6, 36780, Note_on_c, 4, 64, 100
6, 36834, Note_on_c, 4, 64, 0
6, 36840, Note_on_c, 4, 69, 100
6, 36894, Note_on_c, 4, 69, 0
6, 36900, Note_on_c, 4, 72, 100
6, 36927, Note_on_c, 4, 72, 0
6, 36930, Note_on_c, 4, 71, 100
6, 36957, Note_on_c, 4, 71, 0
6, 36960, Note_on_c, 4, 72, 100
6, 37254, Note_on_c, 4, 72, 0
6, 37260, Note_on_c, 4, 74, 100
6, 37287, Note_on_c, 4, 74, 0
6, 37290, Note_on_c, 4, 72, 100
6, 37317, Note_on_c, 4, 72, 0
6, 37320, Note_on_c, 4, 71, 100
6, 37347, Note_on_c, 4, 71, 0
6, 37350, Note_on_c, 4, 72, 100
6, 37377, Note_on_c, 4, 72, 0
6, 37380, Note_on_c, 4, 69, 100
6, 37434, Note_on_c, 4, 69, 0
6, 37440, Note_on_c, 4, 71, 100
6, 37494, Note_on_c, 4, 71, 0
6, 37500, Note_on_c, 4, 68, 100
6, 37554, Note_on_c, 4, 68, 0
6, 37560, Note_on_c, 4, 74, 100
6, 37668, Note_on_c, 4, 74, 0
6, 37680, Note_on_c, 4, 64, 100
6, 37734, Note_on_c, 4, 64, 0
6, 37740, Note_on_c, 4, 66, 100
6, 37794, Note_on_c, 4, 66, 0
6, 37800, Note_on_c, 4, 64, 100
6, 37854, Note_on_c, 4, 64, 0
6, 37860, Note_on_c, 4, 66, 100
6, 37914, Note_on_c, 4, 66, 0
6, 37920, Note_on_c, 4, 68, 100
6, 37974, Note_on_c, 4, 68, 0
6, 37980, Note_on_c, 4, 69, 100
6, 38007, Note_on_c, 4, 69, 0
6, 38010, Note_on_c, 4, 71, 100
6, 38037, Note_on_c, 4, 71, 0
6, 38040, Note_on_c, 4, 69, 100
6, 38094, Note_on_c, 4, 69, 0
6, 38100, Note_on_c, 4, 71, 100
6, 38127, Note_on_c, 4, 71, 0
6, 38130, Note_on_c, 4, 72, 100
6, 38157, Note_on_c, 4, 72, 0
6, 38160, Note_on_c, 4, 71, 100
6, 38214, Note_on_c, 4, 71, 0
6, 38220, Note_on_c, 4, 74, 100
6, 38247, Note_on_c, 4, 74, 0
6, 38250, Note_on_c, 4, 72, 100
6, 38277, Note_on_c, 4, 72, 0
6, 38280, Note_on_c, 4, 71, 100
6, 38307, Note_on_c, 4, 71, 0
6, 38310, Note_on_c, 4, 72, 100
6, 38337, Note_on_c, 4, 72, 0
6, 38340, Note_on_c, 4, 69, 100
6, 38394, Note_on_c, 4, 69, 0
6, 38400, Note_on_c, 4, 68, 100
6, 38616, Note_on_c, 4, 68, 0
6, 38940, Note_on_c, 4, 69, 100
6, 38967, Note_on_c, 4, 69, 0
6, 38970, Note_on_c, 4, 71, 100
6, 38997, Note_on_c, 4, 71, 0
6, 39000, Note_on_c, 4, 71, 100
6, 39054, Note_on_c, 4, 71, 0
6, 39060, Note_on_c, 4, 69, 100
6, 39087, Note_on_c, 4, 69, 0
6, 39090, Note_on_c, 4, 71, 100
6, 39117, Note_on_c, 4, 71, 0
6, 39120, Note_on_c, 4, 72, 100
6, 39174, Note_on_c, 4, 72, 0
6, 39180, Note_on_c, 4, 69, 100
6, 39234, Note_on_c, 4, 69, 0
6, 39240, Note_on_c, 4, 66, 100
6, 39294, Note_on_c, 4, 66, 0
6, 39300, Note_on_c, 4, 75, 100
6, 39354, Note_on_c, 4, 75, 0
6, 39360, Note_on_c, 4, 76, 100
6, 39414, Note_on_c, 4, 76, 0
6, 39420, Note_on_c, 4, 71, 100
6, 39474, Note_on_c, 4, 71, 0
6, 39480, Note_on_c, 4, 68, 100
6, 39534, Note_on_c, 4, 68, 0
6, 39540, Note_on_c, 4, 64, 100
6, 39594, Note_on_c, 4, 64, 0
6, 39840, Note_on_c, 4, 68, 100
6, 39948, Note_on_c, 4, 68, 0
6, 39960, Note_on_c, 4, 69, 100
6, 40068, Note_on_c, 4, 69, 0
6, 40080, Note_on_c, 4, 71, 100
6, 40188, Note_on_c, 4, 71, 0
6, 40320, Note_on_c, 4, 64, 100
6, 40428, Note_on_c, 4, 64, 0
6, 40440, Note_on_c, 4, 68, 100
6, 40548, Note_on_c, 4, 68, 0
6, 40560, Note_on_c, 4, 69, 100
6, 40668, Note_on_c, 4, 69, 0
6, 40800, Note_on_c, 4, 68, 100
6, 40854, Note_on_c, 4, 68, 0
6, 40860, Note_on_c, 4, 59, 100
6, 40914, Note_on_c, 4, 59, 0
6, 40920, Note_on_c, 4, 60, 100
6, 40974, Note_on_c, 4, 60, 0
6, 40980, Note_on_c, 4, 65, 100
6, 41034, Note_on_c, 4, 65, 0
6, 41040, Note_on_c, 4, 64, 100
6, 41094, Note_on_c, 4, 64, 0
6, 41100, Note_on_c, 4, 62, 100
6, 41127, Note_on_c, 4, 62, 0
6, 41130, Note_on_c, 4, 60, 100
6, 41157, Note_on_c, 4, 60, 0
6, 41160, Note_on_c, 4, 62, 100
6, 41187, Note_on_c, 4, 62, 0
6, 41190, Note_on_c, 4, 65, 100
6, 41217, Note_on_c, 4, 65, 0
6, 41220, Note_on_c, 4, 62, 100
6, 41274, Note_on_c, 4, 62, 0
6, 41280, Note_on_c, 4, 64, 100
6, 41496, Note_on_c, 4, 64, 0
6, 41520, Note_on_c, 4, 69, 100
6, 41520, Note_on_c, 4, 72, 100
6, 41520, Note_on_c, 4, 64, 100
6, 41628, Note_on_c, 4, 69, 0
6, 41628, Note_on_c, 4, 72, 0
6, 41640, Note_on_c, 4, 68, 100
6, 41640, Note_on_c, 4, 74, 100
6, 41736, Note_on_c, 4, 64, 0
6, 41748, Note_on_c, 4, 68, 0
6, 41748, Note_on_c, 4, 74, 0
6, 41760, Note_on_c, 4, 76, 100
6, 41760, Note_on_c, 4, 64, 100
6, 41760, Note_on_c, 4, 69, 100
6, 41868, Note_on_c, 4, 64, 0
6, 41868, Note_on_c, 4, 69, 0
6, 41880, Note_on_c, 4, 69, 100
6, 41880, Note_on_c, 4, 72, 100
6, 42108, Note_on_c, 4, 76, 0
6, 42108, Note_on_c, 4, 69, 0
6, 42108, Note_on_c, 4, 72, 0
6, 42120, Note_on_c, 4, 75, 100
6, 42120, Note_on_c, 4, 69, 100
6, 42120, Note_on_c, 4, 71, 100
6, 42228, Note_on_c, 4, 75, 0
6, 42228, Note_on_c, 4, 69, 0
6, 42228, Note_on_c, 4, 71, 0
6, 42240, Note_on_c, 4, 68, 100
6, 42240, Note_on_c, 4, 71, 100
6, 42240, Note_on_c, 4, 76, 100
6, 42456, Note_on_c, 4, 68, 0
6, 42456, Note_on_c, 4, 71, 0
6, 42456, Note_on_c, 4, 76, 0
6, 42480, Note_on_c, 4, 69, 100
6, 42480, Note_on_c, 4, 72, 100
6, 42480, Note_on_c, 4, 64, 100
6, 42588, Note_on_c, 4, 69, 0
6, 42588, Note_on_c, 4, 72, 0
6, 42600, Note_on_c, 4, 71, 100
6, 42654, Note_on_c, 4, 71, 0
6, 42660, Note_on_c, 4, 69, 100
6, 42696, Note_on_c, 4, 64, 0
6, 42714, Note_on_c, 4, 69, 0
6, 42720, Note_on_c, 4, 64, 100
6, 42720, Note_on_c, 4, 68, 100
6, 42828, Note_on_c, 4, 64, 0
6, 42828, Note_on_c, 4, 68, 0
6, 42840, Note_on_c, 4, 64, 100
6, 42840, Note_on_c, 4, 69, 100
6, 42948, Note_on_c, 4, 64, 0
6, 42948, Note_on_c, 4, 69, 0
6, 42960, Note_on_c, 4, 71, 100
6, 42960, Note_on_c, 4, 65, 100
6, 42960, Note_on_c, 4, 68, 100
6, 43068, Note_on_c, 4, 71, 0
6, 43068, Note_on_c, 4, 65, 0
6, 43068, Note_on_c, 4, 68, 0
6, 43080, Note_on_c, 4, 72, 100
6, 43080, Note_on_c, 4, 64, 100
6, 43080, Note_on_c, 4, 69, 100
6, 43134, Note_on_c, 4, 72, 0
6, 43140, Note_on_c, 4, 74, 100
6, 43188, Note_on_c, 4, 64, 0
6, 43188, Note_on_c, 4, 69, 0
6, 43194, Note_on_c, 4, 74, 0
6, 43200, Note_on_c, 4, 76, 100
6, 43200, Note_on_c, 4, 64, 100
6, 43200, Note_on_c, 4, 69, 100
6, 43308, Note_on_c, 4, 76, 0
6, 43308, Note_on_c, 4, 64, 0
6, 43308, Note_on_c, 4, 69, 0
6, 43320, Note_on_c, 4, 68, 100
6, 43320, Note_on_c, 4, 62, 100
6, 43320, Note_on_c, 4, 64, 100
6, 43374, Note_on_c, 4, 68, 0
6, 43380, Note_on_c, 4, 71, 100
6, 43428, Note_on_c, 4, 62, 0
6, 43428, Note_on_c, 4, 64, 0
6, 43434, Note_on_c, 4, 71, 0
6, 43440, Note_on_c, 4, 64, 100
6, 43440, Note_on_c, 4, 69, 100
6, 43440, Note_on_c, 4, 60, 100
6, 43548, Note_on_c, 4, 64, 0
6, 43548, Note_on_c, 4, 69, 0
6, 43548, Note_on_c, 4, 60, 0
6, 43560, Note_on_c, 4, 68, 100
6, 43560, Note_on_c, 4, 71, 100
6, 43560, Note_on_c, 4, 65, 100
6, 43668, Note_on_c, 4, 65, 0
6, 43680, Note_on_c, 4, 64, 100
6, 43734, Note_on_c, 4, 68, 0
6, 43734, Note_on_c, 4, 71, 0
6, 43734, Note_on_c, 4, 64, 0
6, 43740, Note_on_c, 4, 71, 100
6, 43740, Note_on_c, 4, 74, 100
6, 43740, Note_on_c, 4, 65, 100
6, 43794, Note_on_c, 4, 71, 0
6, 43794, Note_on_c, 4, 74, 0
6, 43794, Note_on_c, 4, 65, 0
6, 43800, Note_on_c, 4, 69, 100
6, 43800, Note_on_c, 4, 72, 100
6, 43800, Note_on_c, 4, 64, 100
6, 43854, Note_on_c, 4, 69, 0
6, 43854, Note_on_c, 4, 72, 0
6, 43854, Note_on_c, 4, 64, 0
6, 43860, Note_on_c, 4, 65, 100
6, 43860, Note_on_c, 4, 69, 100
6, 43860, Note_on_c, 4, 62, 100
6, 43914, Note_on_c, 4, 65, 0
6, 43914, Note_on_c, 4, 69, 0
6, 43914, Note_on_c, 4, 62, 0
6, 43920, Note_on_c, 4, 60, 100
6, 43920, Note_on_c, 4, 64, 100
6, 43920, Note_on_c, 4, 69, 100
6, 44028, Note_on_c, 4, 60, 0
6, 44028, Note_on_c, 4, 64, 0
6, 44028, Note_on_c, 4, 69, 0
6, 44040, Note_on_c, 4, 59, 100
6, 44040, Note_on_c, 4, 64, 100
6, 44040, Note_on_c, 4, 68, 100
6, 44148, Note_on_c, 4, 59, 0
6, 44148, Note_on_c, 4, 64, 0
6, 44148, Note_on_c, 4, 68, 0
6, 44160, Note_on_c, 4, 60, 100
6, 44160, Note_on_c, 4, 64, 100
6, 44160, Note_on_c, 4, 69, 100
6, 44376, Note_on_c, 4, 60, 0
6, 44376, Note_on_c, 4, 64, 0
6, 44376, Note_on_c, 4, 69, 0
6, 44376, End_track
7, 0, Start_track
7, 0, Sequence_number, 255
7, 0, MIDI_port, 0
7, 0, Title_t, "~"
7, 0, Control_c, 5, 0, 0
7, 0, Control_c, 5, 32, 0
7, 0, Program_c, 5, 6
7, 0, Control_c, 5, 7, 80
7, 0, Control_c, 5, 10, 79
7, 0, Note_on_c, 5, 45, 100
7, 216, Note_on_c, 5, 45, 0
7, 240, Note_on_c, 5, 57, 100
7, 348, Note_on_c, 5, 57, 0
7, 360, Note_on_c, 5, 59, 100
7, 468, Note_on_c, 5, 59, 0
7, 480, Note_on_c, 5, 60, 100
7, 588, Note_on_c, 5, 60, 0
7, 600, Note_on_c, 5, 59, 100
7, 654, Note_on_c, 5, 59, 0
7, 660, Note_on_c, 5, 57, 100
7, 714, Note_on_c, 5, 57, 0
7, 720, Note_on_c, 5, 64, 100
7, 828, Note_on_c, 5, 64, 0
7, 840, Note_on_c, 5, 64, 100
7, 948, Note_on_c, 5, 64, 0
7, 960, Note_on_c, 5, 64, 100
7, 1176, Note_on_c, 5, 64, 0
7, 1200, Note_on_c, 5, 52, 100
7, 1254, Note_on_c, 5, 52, 0
7, 1260, Note_on_c, 5, 64, 100
7, 1314, Note_on_c, 5, 64, 0
7, 1320, Note_on_c, 5, 62, 100
7, 1374, Note_on_c, 5, 62, 0
7, 1380, Note_on_c, 5, 60, 100
7, 1434, Note_on_c, 5, 60, 0
7, 1440, Note_on_c, 5, 62, 100
7, 1494, Note_on_c, 5, 62, 0
7, 1500, Note_on_c, 5, 59, 100
7, 1554, Note_on_c, 5, 59, 0
7, 1560, Note_on_c, 5, 60, 100
7, 1614, Note_on_c, 5, 60, 0
7, 1620, Note_on_c, 5, 57, 100
7, 1674, Note_on_c, 5, 57, 0
7, 1680, Note_on_c, 5, 52, 100
7, 1734, Note_on_c, 5, 52, 0
7, 1740, Note_on_c, 5, 62, 100
7, 1794, Note_on_c, 5, 62, 0
7, 1800, Note_on_c, 5, 60, 100
7, 1854, Note_on_c, 5, 60, 0
7, 1860, Note_on_c, 5, 59, 100
7, 1914, Note_on_c, 5, 59, 0
7, 1920, Note_on_c, 5, 60, 100
7, 1974, Note_on_c, 5, 60, 0
7, 1980, Note_on_c, 5, 57, 100
7, 2034, Note_on_c, 5, 57, 0
7, 2040, Note_on_c, 5, 59, 100
7, 2094, Note_on_c, 5, 59, 0
7, 2100, Note_on_c, 5, 56, 100
7, 2154, Note_on_c, 5, 56, 0
7, 2160, Note_on_c, 5, 52, 100
7, 2214, Note_on_c, 5, 52, 0
7, 2220, Note_on_c, 5, 60, 100
7, 2274, Note_on_c, 5, 60, 0
7, 2280, Note_on_c, 5, 59, 100
7, 2334, Note_on_c, 5, 59, 0
7, 2340, Note_on_c, 5, 57, 100
7, 2394, Note_on_c, 5, 57, 0
7, 2400, Note_on_c, 5, 59, 100
7, 2454, Note_on_c, 5, 59, 0
7, 2460, Note_on_c, 5, 56, 100
7, 2514, Note_on_c, 5, 56, 0
7, 2520, Note_on_c, 5, 57, 100
7, 2574, Note_on_c, 5, 57, 0
7, 2580, Note_on_c, 5, 50, 100
7, 2634, Note_on_c, 5, 50, 0
7, 2640, Note_on_c, 5, 52, 100
7, 2748, Note_on_c, 5, 52, 0
7, 2760, Note_on_c, 5, 40, 100
7, 2868, Note_on_c, 5, 40, 0
7, 2880, Note_on_c, 5, 45, 100
7, 3096, Note_on_c, 5, 45, 0
7, 5040, Note_on_c, 5, 55, 100
7, 5148, Note_on_c, 5, 55, 0
7, 5160, Note_on_c, 5, 57, 100
7, 5268, Note_on_c, 5, 57, 0
7, 5280, Note_on_c, 5, 59, 100
7, 5388, Note_on_c, 5, 59, 0
7, 5400, Note_on_c, 5, 57, 100
7, 5454, Note_on_c, 5, 57, 0
7, 5460, Note_on_c, 5, 55, 100
7, 5514, Note_on_c, 5, 55, 0
7, 5520, Note_on_c, 5, 60, 100
7, 5628, Note_on_c, 5, 60, 0
7, 5640, Note_on_c, 5, 60, 100
7, 5748, Note_on_c, 5, 60, 0
7, 5760, Note_on_c, 5, 60, 100
7, 5868, Note_on_c, 5, 60, 0
7, 5880, Note_on_c, 5, 58, 100
7, 5988, Note_on_c, 5, 58, 0
7, 6000, Note_on_c, 5, 57, 100
7, 6108, Note_on_c, 5, 57, 0
7, 6120, Note_on_c, 5, 55, 100
7, 6228, Note_on_c, 5, 55, 0
7, 6240, Note_on_c, 5, 53, 100
7, 6348, Note_on_c, 5, 53, 0
7, 6360, Note_on_c, 5, 55, 100
7, 6468, Note_on_c, 5, 55, 0
7, 6480, Note_on_c, 5, 57, 100
7, 6588, Note_on_c, 5, 57, 0
7, 6600, Note_on_c, 5, 53, 100
7, 6708, Note_on_c, 5, 53, 0
7, 6720, Note_on_c, 5, 55, 100
7, 6828, Note_on_c, 5, 55, 0
7, 6840, Note_on_c, 5, 57, 100
7, 6948, Note_on_c, 5, 57, 0
7, 6960, Note_on_c, 5, 59, 100
7, 7068, Note_on_c, 5, 59, 0
7, 7080, Note_on_c, 5, 57, 100
7, 7134, Note_on_c, 5, 57, 0
7, 7140, Note_on_c, 5, 55, 100
7, 7194, Note_on_c, 5, 55, 0
7, 7200, Note_on_c, 5, 60, 100
7, 7308, Note_on_c, 5, 60, 0
7, 7320, Note_on_c, 5, 53, 100
7, 7428, Note_on_c, 5, 53, 0
7, 7440, Note_on_c, 5, 55, 100
7, 7548, Note_on_c, 5, 55, 0
7, 7560, Note_on_c, 5, 43, 100
7, 7668, Note_on_c, 5, 43, 0
7, 7680, Note_on_c, 5, 36, 100
7, 7896, Note_on_c, 5, 36, 0
7, 7920, Note_on_c, 5, 48, 100
7, 8028, Note_on_c, 5, 48, 0
7, 8040, Note_on_c, 5, 50, 100
7, 8148, Note_on_c, 5, 50, 0
7, 8160, Note_on_c, 5, 52, 100
7, 8268, Note_on_c, 5, 52, 0
7, 8280, Note_on_c, 5, 50, 100
7, 8334, Note_on_c, 5, 50, 0
7, 8340, Note_on_c, 5, 48, 100
7, 8394, Note_on_c, 5, 48, 0
7, 8400, Note_on_c, 5, 55, 100
7, 8508, Note_on_c, 5, 55, 0
7, 8520, Note_on_c, 5, 55, 100
7, 8628, Note_on_c, 5, 55, 0
7, 8640, Note_on_c, 5, 55, 100
7, 8856, Note_on_c, 5, 55, 0
7, 8880, Note_on_c, 5, 43, 100
7, 8934, Note_on_c, 5, 43, 0
7, 8940, Note_on_c, 5, 55, 100
7, 8994, Note_on_c, 5, 55, 0
7, 9000, Note_on_c, 5, 53, 100
7, 9054, Note_on_c, 5, 53, 0
7, 9060, Note_on_c, 5, 52, 100
7, 9114, Note_on_c, 5, 52, 0
7, 9120, Note_on_c, 5, 53, 100
7, 9174, Note_on_c, 5, 53, 0
7, 9180, Note_on_c, 5, 50, 100
7, 9234, Note_on_c, 5, 50, 0
7, 9240, Note_on_c, 5, 52, 100
7, 9294, Note_on_c, 5, 52, 0
7, 9300, Note_on_c, 5, 48, 100
7, 9354, Note_on_c, 5, 48, 0
7, 9360, Note_on_c, 5, 43, 100
7, 9414, Note_on_c, 5, 43, 0
7, 9420, Note_on_c, 5, 53, 100
7, 9474, Note_on_c, 5, 53, 0
7, 9480, Note_on_c, 5, 52, 100
7, 9534, Note_on_c, 5, 52, 0
7, 9540, Note_on_c, 5, 50, 100
7, 9594, Note_on_c, 5, 50, 0
7, 9600, Note_on_c, 5, 52, 100
7, 9654, Note_on_c, 5, 52, 0
7, 9660, Note_on_c, 5, 48, 100
7, 9714, Note_on_c, 5, 48, 0
7, 9720, Note_on_c, 5, 50, 100
7, 9774, Note_on_c, 5, 50, 0
7, 9780, Note_on_c, 5, 47, 100
7, 9834, Note_on_c, 5, 47, 0
7, 9840, Note_on_c, 5, 43, 100
7, 9894, Note_on_c, 5, 43, 0
7, 9900, Note_on_c, 5, 52, 100
7, 9954, Note_on_c, 5, 52, 0
7, 9960, Note_on_c, 5, 50, 100
7, 10014, Note_on_c, 5, 50, 0
7, 10020, Note_on_c, 5, 48, 100
7, 10074, Note_on_c, 5, 48, 0
7, 10080, Note_on_c, 5, 50, 100
7, 10134, Note_on_c, 5, 50, 0
7, 10140, Note_on_c, 5, 47, 100
7, 10194, Note_on_c, 5, 47, 0
7, 10200, Note_on_c, 5, 48, 100
7, 10254, Note_on_c, 5, 48, 0
7, 10260, Note_on_c, 5, 53, 100
7, 10314, Note_on_c, 5, 53, 0
7, 10320, Note_on_c, 5, 55, 100
7, 10428, Note_on_c, 5, 55, 0
7, 10440, Note_on_c, 5, 43, 100
7, 10548, Note_on_c, 5, 43, 0
7, 10560, Note_on_c, 5, 36, 100
7, 10776, Note_on_c, 5, 36, 0
7, 10800, Note_on_c, 5, 48, 100
7, 10908, Note_on_c, 5, 48, 0
7, 10920, Note_on_c, 5, 50, 100
7, 11028, Note_on_c, 5, 50, 0
7, 11040, Note_on_c, 5, 52, 100
7, 11148, Note_on_c, 5, 52, 0
7, 11160, Note_on_c, 5, 50, 100
7, 11214, Note_on_c, 5, 50, 0
7, 11220, Note_on_c, 5, 48, 100
7, 11274, Note_on_c, 5, 48, 0
7, 11280, Note_on_c, 5, 55, 100
7, 11388, Note_on_c, 5, 55, 0
7, 11400, Note_on_c, 5, 55, 100
7, 11508, Note_on_c, 5, 55, 0
7, 11520, Note_on_c, 5, 55, 100
7, 11736, Note_on_c, 5, 55, 0
7, 11760, Note_on_c, 5, 43, 100
7, 11868, Note_on_c, 5, 43, 0
7, 11880, Note_on_c, 5, 45, 100
7, 11988, Note_on_c, 5, 45, 0
7, 12000, Note_on_c, 5, 47, 100
7, 12108, Note_on_c, 5, 47, 0
7, 12120, Note_on_c, 5, 45, 100
7, 12174, Note_on_c, 5, 45, 0
7, 12180, Note_on_c, 5, 43, 100
7, 12234, Note_on_c, 5, 43, 0
7, 12240, Note_on_c, 5, 50, 100
7, 12348, Note_on_c, 5, 50, 0
7, 12360, Note_on_c, 5, 50, 100
7, 12468, Note_on_c, 5, 50, 0
7, 12480, Note_on_c, 5, 50, 100
7, 12696, Note_on_c, 5, 50, 0
7, 12720, Note_on_c, 5, 50, 100
7, 12828, Note_on_c, 5, 50, 0
7, 12840, Note_on_c, 5, 52, 100
7, 12948, Note_on_c, 5, 52, 0
7, 12960, Note_on_c, 5, 53, 100
7, 13068, Note_on_c, 5, 53, 0
7, 13080, Note_on_c, 5, 52, 100
7, 13134, Note_on_c, 5, 52, 0
7, 13140, Note_on_c, 5, 50, 100
7, 13194, Note_on_c, 5, 50, 0
7, 13200, Note_on_c, 5, 57, 100
7, 13308, Note_on_c, 5, 57, 0
7, 13320, Note_on_c, 5, 57, 100
7, 13428, Note_on_c, 5, 57, 0
7, 13440, Note_on_c, 5, 57, 100
7, 13656, Note_on_c, 5, 57, 0
7, 13680, Note_on_c, 5, 57, 100
7, 13788, Note_on_c, 5, 57, 0
7, 13800, Note_on_c, 5, 59, 100
7, 13908, Note_on_c, 5, 59, 0
7, 13920, Note_on_c, 5, 60, 100
7, 14028, Note_on_c, 5, 60, 0
7, 14040, Note_on_c, 5, 59, 100
7, 14094, Note_on_c, 5, 59, 0
7, 14100, Note_on_c, 5, 57, 100
7, 14154, Note_on_c, 5, 57, 0
7, 14160, Note_on_c, 5, 64, 100
7, 14268, Note_on_c, 5, 64, 0
7, 14280, Note_on_c, 5, 64, 100
7, 14388, Note_on_c, 5, 64, 0
7, 14400, Note_on_c, 5, 64, 100
7, 14616, Note_on_c, 5, 64, 0
7, 14640, Note_on_c, 5, 52, 100
7, 14694, Note_on_c, 5, 52, 0
7, 14700, Note_on_c, 5, 64, 100
7, 14754, Note_on_c, 5, 64, 0
7, 14760, Note_on_c, 5, 62, 100
7, 14814, Note_on_c, 5, 62, 0
7, 14820, Note_on_c, 5, 60, 100
7, 14874, Note_on_c, 5, 60, 0
7, 14880, Note_on_c, 5, 62, 100
7, 14934, Note_on_c, 5, 62, 0
7, 14940, Note_on_c, 5, 59, 100
7, 14994, Note_on_c, 5, 59, 0
7, 15000, Note_on_c, 5, 60, 100
7, 15054, Note_on_c, 5, 60, 0
7, 15060, Note_on_c, 5, 57, 100
7, 15114, Note_on_c, 5, 57, 0
7, 15120, Note_on_c, 5, 52, 100
7, 15174, Note_on_c, 5, 52, 0
7, 15180, Note_on_c, 5, 62, 100
7, 15234, Note_on_c, 5, 62, 0
7, 15240, Note_on_c, 5, 60, 100
7, 15294, Note_on_c, 5, 60, 0
7, 15300, Note_on_c, 5, 59, 100
7, 15354, Note_on_c, 5, 59, 0
7, 15360, Note_on_c, 5, 60, 100
7, 15414, Note_on_c, 5, 60, 0
7, 15420, Note_on_c, 5, 57, 100
7, 15474, Note_on_c, 5, 57, 0
7, 15480, Note_on_c, 5, 59, 100
7, 15534, Note_on_c, 5, 59, 0
7, 15540, Note_on_c, 5, 56, 100
7, 15594, Note_on_c, 5, 56, 0
7, 15600, Note_on_c, 5, 52, 100
7, 15654, Note_on_c, 5, 52, 0
7, 15660, Note_on_c, 5, 60, 100
7, 15714, Note_on_c, 5, 60, 0
7, 15720, Note_on_c, 5, 59, 100
7, 15774, Note_on_c, 5, 59, 0
7, 15780, Note_on_c, 5, 57, 100
7, 15834, Note_on_c, 5, 57, 0
7, 15840, Note_on_c, 5, 59, 100
7, 15894, Note_on_c, 5, 59, 0
7, 15900, Note_on_c, 5, 56, 100
7, 15954, Note_on_c, 5, 56, 0
7, 15960, Note_on_c, 5, 57, 100
7, 16014, Note_on_c, 5, 57, 0
7, 16020, Note_on_c, 5, 50, 100
7, 16074, Note_on_c, 5, 50, 0
7, 16080, Note_on_c, 5, 52, 100
7, 16188, Note_on_c, 5, 52, 0
7, 16200, Note_on_c, 5, 40, 100
7, 16308, Note_on_c, 5, 40, 0
7, 16320, Note_on_c, 5, 45, 100
7, 16536, Note_on_c, 5, 45, 0
7, 16560, Note_on_c, 5, 57, 100
7, 16668, Note_on_c, 5, 57, 0
7, 16680, Note_on_c, 5, 55, 100
7, 16788, Note_on_c, 5, 55, 0
7, 16800, Note_on_c, 5, 54, 100
7, 16908, Note_on_c, 5, 54, 0
7, 16920, Note_on_c, 5, 55, 100
7, 16974, Note_on_c, 5, 55, 0
7, 16980, Note_on_c, 5, 57, 100
7, 17034, Note_on_c, 5, 57, 0
7, 17040, Note_on_c, 5, 47, 100
7, 17148, Note_on_c, 5, 47, 0
7, 17160, Note_on_c, 5, 47, 100
7, 17268, Note_on_c, 5, 47, 0
7, 17280, Note_on_c, 5, 47, 100
7, 17496, Note_on_c, 5, 47, 0
7, 17520, Note_on_c, 5, 55, 100
7, 17628, Note_on_c, 5, 55, 0
7, 17640, Note_on_c, 5, 54, 100
7, 17748, Note_on_c, 5, 54, 0
7, 17760, Note_on_c, 5, 52, 100
7, 17868, Note_on_c, 5, 52, 0
7, 17880, Note_on_c, 5, 54, 100
7, 17934, Note_on_c, 5, 54, 0
7, 17940, Note_on_c, 5, 55, 100
7, 17994, Note_on_c, 5, 55, 0
7, 18000, Note_on_c, 5, 45, 100
7, 18108, Note_on_c, 5, 45, 0
7, 18120, Note_on_c, 5, 45, 100
7, 18228, Note_on_c, 5, 45, 0
7, 18240, Note_on_c, 5, 45, 100
7, 18456, Note_on_c, 5, 45, 0
7, 18480, Note_on_c, 5, 54, 100
7, 18588, Note_on_c, 5, 54, 0
7, 18600, Note_on_c, 5, 52, 100
7, 18708, Note_on_c, 5, 52, 0
7, 18720, Note_on_c, 5, 51, 100
7, 18828, Note_on_c, 5, 51, 0
7, 18840, Note_on_c, 5, 52, 100
7, 18894, Note_on_c, 5, 52, 0
7, 18900, Note_on_c, 5, 54, 100
7, 18954, Note_on_c, 5, 54, 0
7, 18960, Note_on_c, 5, 43, 100
7, 19068, Note_on_c, 5, 43, 0
7, 19080, Note_on_c, 5, 43, 100
7, 19188, Note_on_c, 5, 43, 0
7, 19200, Note_on_c, 5, 43, 100
7, 19416, Note_on_c, 5, 43, 0
7, 19440, Note_on_c, 5, 52, 100
7, 19548, Note_on_c, 5, 52, 0
7, 19560, Note_on_c, 5, 54, 100
7, 19668, Note_on_c, 5, 54, 0
7, 19680, Note_on_c, 5, 55, 100
7, 19788, Note_on_c, 5, 55, 0
7, 19800, Note_on_c, 5, 54, 100
7, 19854, Note_on_c, 5, 54, 0
7, 19860, Note_on_c, 5, 52, 100
7, 19914, Note_on_c, 5, 52, 0
7, 19920, Note_on_c, 5, 59, 100
7, 20028, Note_on_c, 5, 59, 0
7, 20040, Note_on_c, 5, 59, 100
7, 20148, Note_on_c, 5, 59, 0
7, 20160, Note_on_c, 5, 59, 100
7, 20376, Note_on_c, 5, 59, 0
7, 20400, Note_on_c, 5, 47, 100
7, 20454, Note_on_c, 5, 47, 0
7, 20460, Note_on_c, 5, 59, 100
7, 20514, Note_on_c, 5, 59, 0
7, 20520, Note_on_c, 5, 57, 100
7, 20574, Note_on_c, 5, 57, 0
7, 20580, Note_on_c, 5, 55, 100
7, 20634, Note_on_c, 5, 55, 0
7, 20640, Note_on_c, 5, 57, 100
7, 20694, Note_on_c, 5, 57, 0
7, 20700, Note_on_c, 5, 54, 100
7, 20754, Note_on_c, 5, 54, 0
7, 20760, Note_on_c, 5, 55, 100
7, 20814, Note_on_c, 5, 55, 0
7, 20820, Note_on_c, 5, 52, 100
7, 20874, Note_on_c, 5, 52, 0
7, 20880, Note_on_c, 5, 47, 100
7, 20934, Note_on_c, 5, 47, 0
7, 20940, Note_on_c, 5, 57, 100
7, 20994, Note_on_c, 5, 57, 0
7, 21000, Note_on_c, 5, 55, 100
7, 21054, Note_on_c, 5, 55, 0
7, 21060, Note_on_c, 5, 54, 100
7, 21114, Note_on_c, 5, 54, 0
7, 21120, Note_on_c, 5, 55, 100
7, 21174, Note_on_c, 5, 55, 0
7, 21180, Note_on_c, 5, 52, 100
7, 21234, Note_on_c, 5, 52, 0
7, 21240, Note_on_c, 5, 54, 100
7, 21294, Note_on_c, 5, 54, 0
7, 21300, Note_on_c, 5, 51, 100
7, 21354, Note_on_c, 5, 51, 0
7, 21360, Note_on_c, 5, 47, 100
7, 21414, Note_on_c, 5, 47, 0
7, 21420, Note_on_c, 5, 55, 100
7, 21474, Note_on_c, 5, 55, 0
7, 21480, Note_on_c, 5, 54, 100
7, 21534, Note_on_c, 5, 54, 0
7, 21540, Note_on_c, 5, 52, 100
7, 21594, Note_on_c, 5, 52, 0
7, 21600, Note_on_c, 5, 54, 100
7, 21654, Note_on_c, 5, 54, 0
7, 21660, Note_on_c, 5, 51, 100
7, 21714, Note_on_c, 5, 51, 0
7, 21720, Note_on_c, 5, 52, 100
7, 21774, Note_on_c, 5, 52, 0
7, 21780, Note_on_c, 5, 45, 100
7, 21834, Note_on_c, 5, 45, 0
7, 21840, Note_on_c, 5, 47, 100
7, 21948, Note_on_c, 5, 47, 0
7, 21960, Note_on_c, 5, 47, 100
7, 22068, Note_on_c, 5, 47, 0
7, 22080, Note_on_c, 5, 40, 100
7, 22296, Note_on_c, 5, 40, 0
7, 22320, Note_on_c, 5, 52, 100
7, 22428, Note_on_c, 5, 52, 0
7, 22440, Note_on_c, 5, 54, 100
7, 22548, Note_on_c, 5, 54, 0
7, 22560, Note_on_c, 5, 55, 100
7, 22668, Note_on_c, 5, 55, 0
7, 22680, Note_on_c, 5, 54, 100
7, 22734, Note_on_c, 5, 54, 0
7, 22740, Note_on_c, 5, 52, 100
7, 22794, Note_on_c, 5, 52, 0
7, 22800, Note_on_c, 5, 59, 100
7, 22908, Note_on_c, 5, 59, 0
7, 22920, Note_on_c, 5, 59, 100
7, 23028, Note_on_c, 5, 59, 0
7, 23040, Note_on_c, 5, 59, 100
7, 23256, Note_on_c, 5, 59, 0
7, 23280, Note_on_c, 5, 47, 100
7, 23334, Note_on_c, 5, 47, 0
7, 23340, Note_on_c, 5, 59, 100
7, 23394, Note_on_c, 5, 59, 0
7, 23400, Note_on_c, 5, 57, 100
7, 23454, Note_on_c, 5, 57, 0
7, 23460, Note_on_c, 5, 55, 100
7, 23514, Note_on_c, 5, 55, 0
7, 23520, Note_on_c, 5, 57, 100
7, 23574, Note_on_c, 5, 57, 0
7, 23580, Note_on_c, 5, 54, 100
7, 23634, Note_on_c, 5, 54, 0
7, 23640, Note_on_c, 5, 55, 100
7, 23694, Note_on_c, 5, 55, 0
7, 23700, Note_on_c, 5, 52, 100
7, 23754, Note_on_c, 5, 52, 0
7, 23760, Note_on_c, 5, 47, 100
7, 23814, Note_on_c, 5, 47, 0
7, 23820, Note_on_c, 5, 57, 100
7, 23874, Note_on_c, 5, 57, 0
7, 23880, Note_on_c, 5, 55, 100
7, 23934, Note_on_c, 5, 55, 0
7, 23940, Note_on_c, 5, 54, 100
7, 23994, Note_on_c, 5, 54, 0
7, 24000, Note_on_c, 5, 55, 100
7, 24054, Note_on_c, 5, 55, 0
7, 24060, Note_on_c, 5, 52, 100
7, 24114, Note_on_c, 5, 52, 0
7, 24120, Note_on_c, 5, 54, 100
7, 24174, Note_on_c, 5, 54, 0
7, 24180, Note_on_c, 5, 51, 100
7, 24234, Note_on_c, 5, 51, 0
7, 24240, Note_on_c, 5, 47, 100
7, 24294, Note_on_c, 5, 47, 0
7, 24300, Note_on_c, 5, 55, 100
7, 24354, Note_on_c, 5, 55, 0
7, 24360, Note_on_c, 5, 54, 100
7, 24414, Note_on_c, 5, 54, 0
7, 24420, Note_on_c, 5, 52, 100
7, 24474, Note_on_c, 5, 52, 0
7, 24480, Note_on_c, 5, 54, 100
7, 24534, Note_on_c, 5, 54, 0
7, 24540, Note_on_c, 5, 51, 100
7, 24594, Note_on_c, 5, 51, 0
7, 24600, Note_on_c, 5, 52, 100
7, 24654, Note_on_c, 5, 52, 0
7, 24660, Note_on_c, 5, 57, 100
7, 24714, Note_on_c, 5, 57, 0
7, 24720, Note_on_c, 5, 59, 100
7, 24828, Note_on_c, 5, 59, 0
7, 24840, Note_on_c, 5, 47, 100
7, 24948, Note_on_c, 5, 47, 0
7, 24960, Note_on_c, 5, 40, 100
7, 25176, Note_on_c, 5, 40, 0
7, 25200, Note_on_c, 5, 52, 100
7, 25308, Note_on_c, 5, 52, 0
7, 25320, Note_on_c, 5, 53, 100
7, 25428, Note_on_c, 5, 53, 0
7, 25440, Note_on_c, 5, 55, 100
7, 25548, Note_on_c, 5, 55, 0
7, 25560, Note_on_c, 5, 53, 100
7, 25614, Note_on_c, 5, 53, 0
7, 25620, Note_on_c, 5, 52, 100
7, 25674, Note_on_c, 5, 52, 0
7, 25680, Note_on_c, 5, 58, 100
7, 25788, Note_on_c, 5, 58, 0
7, 25800, Note_on_c, 5, 58, 100
7, 25908, Note_on_c, 5, 58, 0
7, 25920, Note_on_c, 5, 49, 100
7, 26136, Note_on_c, 5, 49, 0
7, 26160, Note_on_c, 5, 45, 100
7, 26268, Note_on_c, 5, 45, 0
7, 26280, Note_on_c, 5, 46, 100
7, 26388, Note_on_c, 5, 46, 0
7, 26400, Note_on_c, 5, 48, 100
7, 26508, Note_on_c, 5, 48, 0
7, 26520, Note_on_c, 5, 46, 100
7, 26574, Note_on_c, 5, 46, 0
7, 26580, Note_on_c, 5, 45, 100
7, 26634, Note_on_c, 5, 45, 0
7, 26640, Note_on_c, 5, 51, 100
7, 26748, Note_on_c, 5, 51, 0
7, 26760, Note_on_c, 5, 51, 100
7, 26868, Note_on_c, 5, 51, 0
7, 26880, Note_on_c, 5, 42, 100
7, 27096, Note_on_c, 5, 42, 0
7, 27120, Note_on_c, 5, 54, 100
7, 27228, Note_on_c, 5, 54, 0
7, 27240, Note_on_c, 5, 55, 100
7, 27348, Note_on_c, 5, 55, 0
7, 27360, Note_on_c, 5, 57, 100
7, 27468, Note_on_c, 5, 57, 0
7, 27480, Note_on_c, 5, 55, 100
7, 27534, Note_on_c, 5, 55, 0
7, 27540, Note_on_c, 5, 54, 100
7, 27594, Note_on_c, 5, 54, 0
7, 27600, Note_on_c, 5, 60, 100
7, 27708, Note_on_c, 5, 60, 0
7, 27720, Note_on_c, 5, 60, 100
7, 27828, Note_on_c, 5, 60, 0
7, 27840, Note_on_c, 5, 51, 100
7, 28056, Note_on_c, 5, 51, 0
7, 28080, Note_on_c, 5, 47, 100
7, 28188, Note_on_c, 5, 47, 0
7, 28200, Note_on_c, 5, 48, 100
7, 28308, Note_on_c, 5, 48, 0
7, 28320, Note_on_c, 5, 50, 100
7, 28428, Note_on_c, 5, 50, 0
7, 28440, Note_on_c, 5, 48, 100
7, 28494, Note_on_c, 5, 48, 0
7, 28500, Note_on_c, 5, 47, 100
7, 28554, Note_on_c, 5, 47, 0
7, 28560, Note_on_c, 5, 53, 100
7, 28668, Note_on_c, 5, 53, 0
7, 28680, Note_on_c, 5, 53, 100
7, 28788, Note_on_c, 5, 53, 0
7, 28800, Note_on_c, 5, 44, 100
7, 29016, Note_on_c, 5, 44, 0
7, 29040, Note_on_c, 5, 57, 100
7, 29148, Note_on_c, 5, 57, 0
7, 29160, Note_on_c, 5, 59, 100
7, 29268, Note_on_c, 5, 59, 0
7, 29280, Note_on_c, 5, 60, 100
7, 29388, Note_on_c, 5, 60, 0
7, 29400, Note_on_c, 5, 59, 100
7, 29454, Note_on_c, 5, 59, 0
7, 29460, Note_on_c, 5, 57, 100
7, 29514, Note_on_c, 5, 57, 0
7, 29520, Note_on_c, 5, 66, 100
7, 29628, Note_on_c, 5, 66, 0
7, 29640, Note_on_c, 5, 66, 100
7, 29748, Note_on_c, 5, 66, 0
7, 29760, Note_on_c, 5, 55, 100
7, 29976, Note_on_c, 5, 55, 0
7, 30000, Note_on_c, 5, 55, 100
7, 30108, Note_on_c, 5, 55, 0
7, 30120, Note_on_c, 5, 57, 100
7, 30228, Note_on_c, 5, 57, 0
7, 30240, Note_on_c, 5, 58, 100
7, 30348, Note_on_c, 5, 58, 0
7, 30360, Note_on_c, 5, 57, 100
7, 30414, Note_on_c, 5, 57, 0
7, 30420, Note_on_c, 5, 55, 100
7, 30474, Note_on_c, 5, 55, 0
7, 30480, Note_on_c, 5, 64, 100
7, 30588, Note_on_c, 5, 64, 0
7, 30600, Note_on_c, 5, 64, 100
7, 30708, Note_on_c, 5, 64, 0
7, 30720, Note_on_c, 5, 53, 100
7, 30936, Note_on_c, 5, 53, 0
7, 30960, Note_on_c, 5, 53, 100
7, 31068, Note_on_c, 5, 53, 0
7, 31080, Note_on_c, 5, 55, 100
7, 31188, Note_on_c, 5, 55, 0
7, 31200, Note_on_c, 5, 57, 100
7, 31308, Note_on_c, 5, 57, 0
7, 31320, Note_on_c, 5, 55, 100
7, 31374, Note_on_c, 5, 55, 0
7, 31380, Note_on_c, 5, 53, 100
7, 31434, Note_on_c, 5, 53, 0
7, 31440, Note_on_c, 5, 62, 100
7, 31548, Note_on_c, 5, 62, 0
7, 31560, Note_on_c, 5, 62, 100
7, 31668, Note_on_c, 5, 62, 0
7, 31680, Note_on_c, 5, 52, 100
7, 31974, Note_on_c, 5, 52, 0
7, 31980, Note_on_c, 5, 52, 100
7, 32034, Note_on_c, 5, 52, 0
7, 32040, Note_on_c, 5, 50, 100
7, 32094, Note_on_c, 5, 50, 0
7, 32100, Note_on_c, 5, 48, 100
7, 32154, Note_on_c, 5, 48, 0
7, 32160, Note_on_c, 5, 50, 100
7, 32214, Note_on_c, 5, 50, 0
7, 32220, Note_on_c, 5, 47, 100
7, 32274, Note_on_c, 5, 47, 0
7, 32280, Note_on_c, 5, 48, 100
7, 32334, Note_on_c, 5, 48, 0
7, 32340, Note_on_c, 5, 45, 100
7, 32394, Note_on_c, 5, 45, 0
7, 32400, Note_on_c, 5, 40, 100
7, 32454, Note_on_c, 5, 40, 0
7, 32460, Note_on_c, 5, 50, 100
7, 32514, Note_on_c, 5, 50, 0
7, 32520, Note_on_c, 5, 48, 100
7, 32574, Note_on_c, 5, 48, 0
7, 32580, Note_on_c, 5, 47, 100
7, 32634, Note_on_c, 5, 47, 0
7, 32640, Note_on_c, 5, 48, 100
7, 32694, Note_on_c, 5, 48, 0
7, 32700, Note_on_c, 5, 45, 100
7, 32754, Note_on_c, 5, 45, 0
7, 32760, Note_on_c, 5, 47, 100
7, 32814, Note_on_c, 5, 47, 0
7, 32820, Note_on_c, 5, 44, 100
7, 32874, Note_on_c, 5, 44, 0
7, 32880, Note_on_c, 5, 40, 100
7, 32934, Note_on_c, 5, 40, 0
7, 32940, Note_on_c, 5, 48, 100
7, 32994, Note_on_c, 5, 48, 0
7, 33000, Note_on_c, 5, 47, 100
7, 33054, Note_on_c, 5, 47, 0
7, 33060, Note_on_c, 5, 45, 100
7, 33114, Note_on_c, 5, 45, 0
7, 33120, Note_on_c, 5, 47, 100
7, 33174, Note_on_c, 5, 47, 0
7, 33180, Note_on_c, 5, 44, 100
7, 33234, Note_on_c, 5, 44, 0
7, 33240, Note_on_c, 5, 45, 100
7, 33294, Note_on_c, 5, 45, 0
7, 33300, Note_on_c, 5, 50, 100
7, 33354, Note_on_c, 5, 50, 0
7, 33360, Note_on_c, 5, 52, 100
7, 33468, Note_on_c, 5, 52, 0
7, 33480, Note_on_c, 5, 40, 100
7, 33588, Note_on_c, 5, 40, 0
7, 33600, Note_on_c, 5, 42, 100
7, 33816, Note_on_c, 5, 42, 0
7, 33840, Note_on_c, 5, 54, 100
7, 33948, Note_on_c, 5, 54, 0
7, 33960, Note_on_c, 5, 55, 100
7, 34068, Note_on_c, 5, 55, 0
7, 34080, Note_on_c, 5, 57, 100
7, 34188, Note_on_c, 5, 57, 0
7, 34200, Note_on_c, 5, 55, 100
7, 34254, Note_on_c, 5, 55, 0
7, 34260, Note_on_c, 5, 54, 100
7, 34314, Note_on_c, 5, 54, 0
7, 34320, Note_on_c, 5, 60, 100
7, 34428, Note_on_c, 5, 60, 0
7, 34440, Note_on_c, 5, 60, 100
7, 34548, Note_on_c, 5, 60, 0
7, 34560, Note_on_c, 5, 39, 100
7, 34776, Note_on_c, 5, 39, 0
7, 34800, Note_on_c, 5, 57, 100
7, 34908, Note_on_c, 5, 57, 0
7, 34920, Note_on_c, 5, 59, 100
7, 35028, Note_on_c, 5, 59, 0
7, 35040, Note_on_c, 5, 60, 100
7, 35148, Note_on_c, 5, 60, 0
7, 35160, Note_on_c, 5, 59, 100
7, 35214, Note_on_c, 5, 59, 0
7, 35220, Note_on_c, 5, 57, 100
7, 35274, Note_on_c, 5, 57, 0
7, 35280, Note_on_c, 5, 65, 100
7, 35388, Note_on_c, 5, 65, 0
7, 35400, Note_on_c, 5, 65, 100
7, 35508, Note_on_c, 5, 65, 0
7, 35520, Note_on_c, 5, 44, 100
7, 35736, Note_on_c, 5, 44, 0
7, 35760, Note_on_c, 5, 59, 100
7, 35868, Note_on_c, 5, 59, 0
7, 35880, Note_on_c, 5, 57, 100
7, 35988, Note_on_c, 5, 57, 0
7, 36000, Note_on_c, 5, 56, 100
7, 36108, Note_on_c, 5, 56, 0
7, 36120, Note_on_c, 5, 57, 100
7, 36174, Note_on_c, 5, 57, 0
7, 36180, Note_on_c, 5, 59, 100
7, 36234, Note_on_c, 5, 59, 0
7, 36240, Note_on_c, 5, 48, 100
7, 36348, Note_on_c, 5, 48, 0
7, 36360, Note_on_c, 5, 48, 100
7, 36468, Note_on_c, 5, 48, 0
7, 36480, Note_on_c, 5, 48, 100
7, 36696, Note_on_c, 5, 48, 0
7, 36720, Note_on_c, 5, 57, 100
7, 36828, Note_on_c, 5, 57, 0
7, 36840, Note_on_c, 5, 55, 100
7, 36948, Note_on_c, 5, 55, 0
7, 36960, Note_on_c, 5, 53, 100
7, 37068, Note_on_c, 5, 53, 0
7, 37080, Note_on_c, 5, 55, 100
7, 37134, Note_on_c, 5, 55, 0
7, 37140, Note_on_c, 5, 57, 100
7, 37194, Note_on_c, 5, 57, 0
7, 37200, Note_on_c, 5, 47, 100
7, 37308, Note_on_c, 5, 47, 0
7, 37320, Note_on_c, 5, 47, 100
7, 37428, Note_on_c, 5, 47, 0
7, 37440, Note_on_c, 5, 47, 100
7, 37656, Note_on_c, 5, 47, 0
7, 37680, Note_on_c, 5, 50, 100
7, 37788, Note_on_c, 5, 50, 0
7, 37800, Note_on_c, 5, 48, 100
7, 37908, Note_on_c, 5, 48, 0
7, 37920, Note_on_c, 5, 47, 100
7, 38028, Note_on_c, 5, 47, 0
7, 38040, Note_on_c, 5, 48, 100
7, 38094, Note_on_c, 5, 48, 0
7, 38100, Note_on_c, 5, 50, 100
7, 38154, Note_on_c, 5, 50, 0
7, 38160, Note_on_c, 5, 40, 100
7, 38268, Note_on_c, 5, 40, 0
7, 38280, Note_on_c, 5, 40, 100
7, 38388, Note_on_c, 5, 40, 0
7, 38400, Note_on_c, 5, 40, 100
7, 38616, Note_on_c, 5, 40, 0
7, 38640, Note_on_c, 5, 57, 100
7, 38748, Note_on_c, 5, 57, 0
7, 38760, Note_on_c, 5, 59, 100
7, 38868, Note_on_c, 5, 59, 0
7, 38880, Note_on_c, 5, 60, 100
7, 38988, Note_on_c, 5, 60, 0
7, 39000, Note_on_c, 5, 59, 100
7, 39054, Note_on_c, 5, 59, 0
7, 39060, Note_on_c, 5, 57, 100
7, 39114, Note_on_c, 5, 57, 0
7, 39120, Note_on_c, 5, 64, 100
7, 39228, Note_on_c, 5, 64, 0
7, 39240, Note_on_c, 5, 64, 100
7, 39348, Note_on_c, 5, 64, 0
7, 39360, Note_on_c, 5, 64, 100
7, 39576, Note_on_c, 5, 64, 0
7, 39600, Note_on_c, 5, 52, 100
7, 39654, Note_on_c, 5, 52, 0
7, 39660, Note_on_c, 5, 64, 100
7, 39714, Note_on_c, 5, 64, 0
7, 39720, Note_on_c, 5, 62, 100
7, 39774, Note_on_c, 5, 62, 0
7, 39780, Note_on_c, 5, 60, 100
7, 39834, Note_on_c, 5, 60, 0
7, 39840, Note_on_c, 5, 62, 100
7, 39894, Note_on_c, 5, 62, 0
7, 39900, Note_on_c, 5, 59, 100
7, 39954, Note_on_c, 5, 59, 0
7, 39960, Note_on_c, 5, 60, 100
7, 40014, Note_on_c, 5, 60, 0
7, 40020, Note_on_c, 5, 57, 100
7, 40074, Note_on_c, 5, 57, 0
7, 40080, Note_on_c, 5, 52, 100
7, 40134, Note_on_c, 5, 52, 0
7, 40140, Note_on_c, 5, 62, 100
7, 40194, Note_on_c, 5, 62, 0
7, 40200, Note_on_c, 5, 60, 100
7, 40254, Note_on_c, 5, 60, 0
7, 40260, Note_on_c, 5, 59, 100
7, 40314, Note_on_c, 5, 59, 0
7, 40320, Note_on_c, 5, 60, 100
7, 40374, Note_on_c, 5, 60, 0
7, 40380, Note_on_c, 5, 57, 100
7, 40434, Note_on_c, 5, 57, 0
7, 40440, Note_on_c, 5, 59, 100
7, 40494, Note_on_c, 5, 59, 0
7, 40500, Note_on_c, 5, 56, 100
7, 40554, Note_on_c, 5, 56, 0
7, 40560, Note_on_c, 5, 52, 100
7, 40614, Note_on_c, 5, 52, 0
7, 40620, Note_on_c, 5, 60, 100
7, 40674, Note_on_c, 5, 60, 0
7, 40680, Note_on_c, 5, 59, 100
7, 40734, Note_on_c, 5, 59, 0
7, 40740, Note_on_c, 5, 57, 100
7, 40794, Note_on_c, 5, 57, 0
7, 40800, Note_on_c, 5, 59, 100
7, 40854, Note_on_c, 5, 59, 0
7, 40860, Note_on_c, 5, 56, 100
7, 40914, Note_on_c, 5, 56, 0
7, 40920, Note_on_c, 5, 57, 100
7, 40974, Note_on_c, 5, 57, 0
7, 40980, Note_on_c, 5, 50, 100
7, 41034, Note_on_c, 5, 50, 0
7, 41040, Note_on_c, 5, 52, 100
7, 41148, Note_on_c, 5, 52, 0
7, 41160, Note_on_c, 5, 40, 100
7, 41268, Note_on_c, 5, 40, 0
7, 41280, Note_on_c, 5, 45, 100
7, 41496, Note_on_c, 5, 45, 0
7, 41520, Note_on_c, 5, 57, 100
7, 41628, Note_on_c, 5, 57, 0
7, 41640, Note_on_c, 5, 59, 100
7, 41748, Note_on_c, 5, 59, 0
7, 41760, Note_on_c, 5, 60, 100
7, 41868, Note_on_c, 5, 60, 0
7, 41880, Note_on_c, 5, 59, 100
7, 41934, Note_on_c, 5, 59, 0
7, 41940, Note_on_c, 5, 57, 100
7, 41994, Note_on_c, 5, 57, 0
7, 42000, Note_on_c, 5, 64, 100
7, 42108, Note_on_c, 5, 64, 0
7, 42120, Note_on_c, 5, 64, 100
7, 42228, Note_on_c, 5, 64, 0
7, 42240, Note_on_c, 5, 64, 100
7, 42456, Note_on_c, 5, 64, 0
7, 42480, Note_on_c, 5, 52, 100
7, 42534, Note_on_c, 5, 52, 0
7, 42540, Note_on_c, 5, 64, 100
7, 42594, Note_on_c, 5, 64, 0
7, 42600, Note_on_c, 5, 62, 100
7, 42654, Note_on_c, 5, 62, 0
7, 42660, Note_on_c, 5, 60, 100
7, 42714, Note_on_c, 5, 60, 0
7, 42720, Note_on_c, 5, 62, 100
7, 42774, Note_on_c, 5, 62, 0
7, 42780, Note_on_c, 5, 59, 100
7, 42834, Note_on_c, 5, 59, 0
7, 42840, Note_on_c, 5, 60, 100
7, 42894, Note_on_c, 5, 60, 0
7, 42900, Note_on_c, 5, 57, 100
7, 42954, Note_on_c, 5, 57, 0
7, 42960, Note_on_c, 5, 52, 100
7, 43014, Note_on_c, 5, 52, 0
7, 43020, Note_on_c, 5, 62, 100
7, 43074, Note_on_c, 5, 62, 0
7, 43080, Note_on_c, 5, 60, 100
7, 43134, Note_on_c, 5, 60, 0
7, 43140, Note_on_c, 5, 59, 100
7, 43194, Note_on_c, 5, 59, 0
7, 43200, Note_on_c, 5, 60, 100
7, 43254, Note_on_c, 5, 60, 0
7, 43260, Note_on_c, 5, 57, 100
7, 43314, Note_on_c, 5, 57, 0
7, 43320, Note_on_c, 5, 59, 100
7, 43374, Note_on_c, 5, 59, 0
7, 43380, Note_on_c, 5, 56, 100
7, 43434, Note_on_c, 5, 56, 0
7, 43440, Note_on_c, 5, 52, 100
7, 43494, Note_on_c, 5, 52, 0
7, 43500, Note_on_c, 5, 60, 100
7, 43554, Note_on_c, 5, 60, 0
7, 43560, Note_on_c, 5, 59, 100
7, 43614, Note_on_c, 5, 59, 0
7, 43620, Note_on_c, 5, 57, 100
7, 43674, Note_on_c, 5, 57, 0
7, 43680, Note_on_c, 5, 59, 100
7, 43734, Note_on_c, 5, 59, 0
7, 43740, Note_on_c, 5, 56, 100
7, 43794, Note_on_c, 5, 56, 0
7, 43800, Note_on_c, 5, 57, 100
7, 43854, Note_on_c, 5, 57, 0
7, 43860, Note_on_c, 5, 50, 100
7, 43914, Note_on_c, 5, 50, 0
7, 43920, Note_on_c, 5, 52, 100
7, 44028, Note_on_c, 5, 52, 0
7, 44040, Note_on_c, 5, 40, 100
7, 44148, Note_on_c, 5, 40, 0
7, 44160, Note_on_c, 5, 45, 100
7, 44376, Note_on_c, 5, 45, 0
7, 44376, End_track
8, 0, Start_track
8, 0, Sequence_number, 255
8, 0, MIDI_port, 0
8, 0, Title_t, "I "
8, 0, Control_c, 6, 0, 0
8, 0, Control_c, 6, 32, 0
8, 0, Program_c, 6, 48
8, 0, Control_c, 6, 7, 100
8, 0, Control_c, 6, 10, 14
8, 600, Note_on_c, 6, 76, 100
8, 654, Note_on_c, 6, 76, 0
8, 660, Note_on_c, 6, 78, 100
8, 714, Note_on_c, 6, 78, 0
8, 720, Note_on_c, 6, 80, 100
8, 774, Note_on_c, 6, 80, 0
8, 780, Note_on_c, 6, 81, 100
8, 834, Note_on_c, 6, 81, 0
8, 840, Note_on_c, 6, 83, 100
8, 894, Note_on_c, 6, 83, 0
8, 900, Note_on_c, 6, 84, 100
8, 954, Note_on_c, 6, 84, 0
8, 960, Note_on_c, 6, 83, 100
8, 1068, Note_on_c, 6, 83, 0
8, 1080, Note_on_c, 6, 71, 100
8, 1188, Note_on_c, 6, 71, 0
8, 1200, Note_on_c, 6, 72, 100
8, 1308, Note_on_c, 6, 72, 0
8, 1320, Note_on_c, 6, 71, 100
8, 1428, Note_on_c, 6, 71, 0
8, 1560, Note_on_c, 6, 76, 100
8, 1668, Note_on_c, 6, 76, 0
8, 1680, Note_on_c, 6, 77, 100
8, 1788, Note_on_c, 6, 77, 0
8, 1800, Note_on_c, 6, 76, 100
8, 1908, Note_on_c, 6, 76, 0
8, 2040, Note_on_c, 6, 80, 100
8, 2148, Note_on_c, 6, 80, 0
8, 2160, Note_on_c, 6, 81, 100
8, 2268, Note_on_c, 6, 81, 0
8, 2280, Note_on_c, 6, 74, 100
8, 2454, Note_on_c, 6, 74, 0
8, 2460, Note_on_c, 6, 76, 100
8, 2487, Note_on_c, 6, 76, 0
8, 2490, Note_on_c, 6, 77, 100
8, 2517, Note_on_c, 6, 77, 0
8, 2520, Note_on_c, 6, 76, 100
8, 2574, Note_on_c, 6, 76, 0
8, 2580, Note_on_c, 6, 74, 100
8, 2634, Note_on_c, 6, 74, 0
8, 2640, Note_on_c, 6, 72, 100
8, 2748, Note_on_c, 6, 72, 0
8, 2760, Note_on_c, 6, 71, 100
8, 2814, Note_on_c, 6, 71, 0
8, 2820, Note_on_c, 6, 69, 100
8, 2874, Note_on_c, 6, 69, 0
8, 2880, Note_on_c, 6, 69, 100
8, 3096, Note_on_c, 6, 69, 0
8, 8280, Note_on_c, 6, 67, 100
8, 8334, Note_on_c, 6, 67, 0
8, 8340, Note_on_c, 6, 69, 100
8, 8394, Note_on_c, 6, 69, 0
8, 8400, Note_on_c, 6, 71, 100
8, 8454, Note_on_c, 6, 71, 0
8, 8460, Note_on_c, 6, 72, 100
8, 8514, Note_on_c, 6, 72, 0
8, 8520, Note_on_c, 6, 74, 100
8, 8574, Note_on_c, 6, 74, 0
8, 8580, Note_on_c, 6, 76, 100
8, 8634, Note_on_c, 6, 76, 0
8, 8640, Note_on_c, 6, 74, 100
8, 8748, Note_on_c, 6, 74, 0
8, 8760, Note_on_c, 6, 71, 100
8, 8868, Note_on_c, 6, 71, 0
8, 8880, Note_on_c, 6, 72, 100
8, 8988, Note_on_c, 6, 72, 0
8, 9000, Note_on_c, 6, 71, 100
8, 9108, Note_on_c, 6, 71, 0
8, 9240, Note_on_c, 6, 76, 100
8, 9348, Note_on_c, 6, 76, 0
8, 9360, Note_on_c, 6, 74, 100
8, 9468, Note_on_c, 6, 74, 0
8, 9480, Note_on_c, 6, 76, 100
8, 9588, Note_on_c, 6, 76, 0
8, 9720, Note_on_c, 6, 77, 100
8, 9828, Note_on_c, 6, 77, 0
8, 9840, Note_on_c, 6, 76, 100
8, 9894, Note_on_c, 6, 76, 0
8, 9900, Note_on_c, 6, 74, 100
8, 9927, Note_on_c, 6, 74, 0
8, 9930, Note_on_c, 6, 72, 100
8, 9957, Note_on_c, 6, 72, 0
8, 9960, Note_on_c, 6, 71, 100
8, 10014, Note_on_c, 6, 71, 0
8, 10020, Note_on_c, 6, 69, 100
8, 10074, Note_on_c, 6, 69, 0
8, 10080, Note_on_c, 6, 71, 100
8, 10134, Note_on_c, 6, 71, 0
8, 10140, Note_on_c, 6, 67, 100
8, 10194, Note_on_c, 6, 67, 0
8, 10200, Note_on_c, 6, 76, 100
8, 10254, Note_on_c, 6, 76, 0
8, 10260, Note_on_c, 6, 74, 100
8, 10314, Note_on_c, 6, 74, 0
8, 10320, Note_on_c, 6, 72, 100
8, 10428, Note_on_c, 6, 72, 0
8, 10440, Note_on_c, 6, 71, 100
8, 10548, Note_on_c, 6, 71, 0
8, 10560, Note_on_c, 6, 72, 100
8, 10776, Note_on_c, 6, 72, 0
8, 13680, Note_on_c, 6, 76, 100
8, 13788, Note_on_c, 6, 76, 0
8, 13800, Note_on_c, 6, 74, 100
8, 13908, Note_on_c, 6, 74, 0
8, 13920, Note_on_c, 6, 72, 100
8, 14352, Note_on_c, 6, 72, 0
8, 14400, Note_on_c, 6, 71, 100
8, 14616, Note_on_c, 6, 71, 0
8, 14880, Note_on_c, 6, 77, 100
8, 14988, Note_on_c, 6, 77, 0
8, 15000, Note_on_c, 6, 76, 100
8, 15108, Note_on_c, 6, 76, 0
8, 15120, Note_on_c, 6, 74, 100
8, 15228, Note_on_c, 6, 74, 0
8, 15360, Note_on_c, 6, 76, 100
8, 15468, Note_on_c, 6, 76, 0
8, 15480, Note_on_c, 6, 74, 100
8, 15588, Note_on_c, 6, 74, 0
8, 15600, Note_on_c, 6, 72, 100
8, 15708, Note_on_c, 6, 72, 0
8, 15900, Note_on_c, 6, 77, 100
8, 15954, Note_on_c, 6, 77, 0
8, 15960, Note_on_c, 6, 76, 100
8, 16014, Note_on_c, 6, 76, 0
8, 16020, Note_on_c, 6, 74, 100
8, 16074, Note_on_c, 6, 74, 0
8, 16080, Note_on_c, 6, 72, 100
8, 16188, Note_on_c, 6, 72, 0
8, 16200, Note_on_c, 6, 71, 100
8, 16254, Note_on_c, 6, 71, 0
8, 16260, Note_on_c, 6, 69, 100
8, 16314, Note_on_c, 6, 69, 0
8, 16320, Note_on_c, 6, 69, 100
8, 16536, Note_on_c, 6, 69, 0
8, 17040, Note_on_c, 6, 81, 100
8, 17148, Note_on_c, 6, 81, 0
8, 17160, Note_on_c, 6, 81, 100
8, 17268, Note_on_c, 6, 81, 0
8, 17280, Note_on_c, 6, 79, 100
8, 17496, Note_on_c, 6, 79, 0
8, 18000, Note_on_c, 6, 79, 100
8, 18108, Note_on_c, 6, 79, 0
8, 18120, Note_on_c, 6, 79, 100
8, 18228, Note_on_c, 6, 79, 0
8, 18240, Note_on_c, 6, 78, 100
8, 18456, Note_on_c, 6, 78, 0
8, 18960, Note_on_c, 6, 78, 100
8, 19068, Note_on_c, 6, 78, 0
8, 19080, Note_on_c, 6, 78, 100
8, 19188, Note_on_c, 6, 78, 0
8, 19200, Note_on_c, 6, 78, 100
8, 19308, Note_on_c, 6, 78, 0
8, 19320, Note_on_c, 6, 76, 100
8, 19428, Note_on_c, 6, 76, 0
8, 19920, Note_on_c, 6, 76, 100
8, 20136, Note_on_c, 6, 76, 0
8, 20160, Note_on_c, 6, 75, 100
8, 20376, Note_on_c, 6, 75, 0
8, 20640, Note_on_c, 6, 75, 100
8, 20748, Note_on_c, 6, 75, 0
8, 20760, Note_on_c, 6, 76, 100
8, 20868, Note_on_c, 6, 76, 0
8, 20880, Note_on_c, 6, 78, 100
8, 20988, Note_on_c, 6, 78, 0
8, 21120, Note_on_c, 6, 71, 100
8, 21228, Note_on_c, 6, 71, 0
8, 21240, Note_on_c, 6, 75, 100
8, 21348, Note_on_c, 6, 75, 0
8, 21360, Note_on_c, 6, 76, 100
8, 21468, Note_on_c, 6, 76, 0
8, 21660, Note_on_c, 6, 81, 100
8, 21714, Note_on_c, 6, 81, 0
8, 21720, Note_on_c, 6, 79, 100
8, 21774, Note_on_c, 6, 79, 0
8, 21780, Note_on_c, 6, 81, 100
8, 21834, Note_on_c, 6, 81, 0
8, 21840, Note_on_c, 6, 75, 100
8, 22002, Note_on_c, 6, 75, 0
8, 22020, Note_on_c, 6, 76, 100
8, 22074, Note_on_c, 6, 76, 0
8, 22080, Note_on_c, 6, 76, 100
8, 22188, Note_on_c, 6, 76, 0
8, 22200, Note_on_c, 6, 83, 100
8, 22254, Note_on_c, 6, 83, 0
8, 22260, Note_on_c, 6, 81, 100
8, 22314, Note_on_c, 6, 81, 0
8, 22320, Note_on_c, 6, 79, 100
8, 22374, Note_on_c, 6, 79, 0
8, 22380, Note_on_c, 6, 78, 100
8, 22434, Note_on_c, 6, 78, 0
8, 22440, Note_on_c, 6, 76, 100
8, 22494, Note_on_c, 6, 76, 0
8, 22500, Note_on_c, 6, 75, 100
8, 22554, Note_on_c, 6, 75, 0
8, 22560, Note_on_c, 6, 76, 100
8, 22614, Note_on_c, 6, 76, 0
8, 22620, Note_on_c, 6, 78, 100
8, 22674, Note_on_c, 6, 78, 0
8, 22680, Note_on_c, 6, 79, 100
8, 22734, Note_on_c, 6, 79, 0
8, 22740, Note_on_c, 6, 76, 100
8, 22794, Note_on_c, 6, 76, 0
8, 22800, Note_on_c, 6, 78, 100
8, 22854, Note_on_c, 6, 78, 0
8, 22860, Note_on_c, 6, 79, 100
8, 22914, Note_on_c, 6, 79, 0
8, 22920, Note_on_c, 6, 81, 100
8, 23028, Note_on_c, 6, 81, 0
8, 23040, Note_on_c, 6, 75, 100
8, 23148, Note_on_c, 6, 75, 0
8, 23160, Note_on_c, 6, 66, 100
8, 23268, Note_on_c, 6, 66, 0
8, 23280, Note_on_c, 6, 67, 100
8, 23388, Note_on_c, 6, 67, 0
8, 23400, Note_on_c, 6, 66, 100
8, 23508, Note_on_c, 6, 66, 0
8, 23640, Note_on_c, 6, 71, 100
8, 23748, Note_on_c, 6, 71, 0
8, 23760, Note_on_c, 6, 72, 100
8, 23868, Note_on_c, 6, 72, 0
8, 23880, Note_on_c, 6, 71, 100
8, 23988, Note_on_c, 6, 71, 0
8, 24120, Note_on_c, 6, 81, 100
8, 24228, Note_on_c, 6, 81, 0
8, 24240, Note_on_c, 6, 79, 100
8, 24294, Note_on_c, 6, 79, 0
8, 24300, Note_on_c, 6, 76, 100
8, 24354, Note_on_c, 6, 76, 0
8, 24360, Note_on_c, 6, 75, 100
8, 24414, Note_on_c, 6, 75, 0
8, 24420, Note_on_c, 6, 76, 100
8, 24474, Note_on_c, 6, 76, 0
8, 24480, Note_on_c, 6, 69, 100
8, 24534, Note_on_c, 6, 69, 0
8, 24540, Note_on_c, 6, 71, 100
8, 24567, Note_on_c, 6, 71, 0
8, 24570, Note_on_c, 6, 72, 100
8, 24597, Note_on_c, 6, 72, 0
8, 24600, Note_on_c, 6, 71, 100
8, 24654, Note_on_c, 6, 71, 0
8, 24660, Note_on_c, 6, 69, 100
8, 24714, Note_on_c, 6, 69, 0
8, 24720, Note_on_c, 6, 67, 100
8, 24828, Note_on_c, 6, 67, 0
8, 24840, Note_on_c, 6, 66, 100
8, 24894, Note_on_c, 6, 66, 0
8, 24900, Note_on_c, 6, 64, 100
8, 24954, Note_on_c, 6, 64, 0
8, 24960, Note_on_c, 6, 64, 100
8, 25176, Note_on_c, 6, 64, 0
8, 25920, Note_on_c, 6, 76, 100
8, 26136, Note_on_c, 6, 76, 0
8, 26880, Note_on_c, 6, 76, 100
8, 26988, Note_on_c, 6, 76, 0
8, 27000, Note_on_c, 6, 75, 100
8, 27108, Note_on_c, 6, 75, 0
8, 27840, Note_on_c, 6, 78, 100
8, 28056, Note_on_c, 6, 78, 0
8, 28800, Note_on_c, 6, 77, 100
8, 28908, Note_on_c, 6, 77, 0
8, 28920, Note_on_c, 6, 76, 100
8, 29028, Note_on_c, 6, 76, 0
8, 29040, Note_on_c, 6, 57, 100
8, 29148, Note_on_c, 6, 57, 0
8, 29160, Note_on_c, 6, 59, 100
8, 29268, Note_on_c, 6, 59, 0
8, 29280, Note_on_c, 6, 60, 100
8, 29388, Note_on_c, 6, 60, 0
8, 29400, Note_on_c, 6, 59, 100
8, 29454, Note_on_c, 6, 59, 0
8, 29460, Note_on_c, 6, 57, 100
8, 29514, Note_on_c, 6, 57, 0
8, 29520, Note_on_c, 6, 66, 100
8, 29628, Note_on_c, 6, 66, 0
8, 29640, Note_on_c, 6, 81, 100
8, 29868, Note_on_c, 6, 81, 0
8, 29880, Note_on_c, 6, 79, 100
8, 29988, Note_on_c, 6, 79, 0
8, 30000, Note_on_c, 6, 55, 100
8, 30108, Note_on_c, 6, 55, 0
8, 30120, Note_on_c, 6, 57, 100
8, 30228, Note_on_c, 6, 57, 0
8, 30240, Note_on_c, 6, 58, 100
8, 30348, Note_on_c, 6, 58, 0
8, 30360, Note_on_c, 6, 57, 100
8, 30414, Note_on_c, 6, 57, 0
8, 30420, Note_on_c, 6, 55, 100
8, 30474, Note_on_c, 6, 55, 0
8, 30480, Note_on_c, 6, 64, 100
8, 30588, Note_on_c, 6, 64, 0
8, 30600, Note_on_c, 6, 79, 100
8, 30828, Note_on_c, 6, 79, 0
8, 30840, Note_on_c, 6, 77, 100
8, 30948, Note_on_c, 6, 77, 0
8, 30960, Note_on_c, 6, 57, 100
8, 31068, Note_on_c, 6, 57, 0
8, 31080, Note_on_c, 6, 55, 100
8, 31188, Note_on_c, 6, 55, 0
8, 31200, Note_on_c, 6, 57, 100
8, 31308, Note_on_c, 6, 57, 0
8, 31320, Note_on_c, 6, 55, 100
8, 31374, Note_on_c, 6, 55, 0
8, 31380, Note_on_c, 6, 57, 100
8, 31434, Note_on_c, 6, 57, 0
8, 31440, Note_on_c, 6, 62, 100
8, 31548, Note_on_c, 6, 62, 0
8, 31560, Note_on_c, 6, 77, 100
8, 31788, Note_on_c, 6, 77, 0
8, 31800, Note_on_c, 6, 76, 100
8, 31908, Note_on_c, 6, 76, 0
8, 31920, Note_on_c, 6, 72, 100
8, 32028, Note_on_c, 6, 72, 0
8, 32160, Note_on_c, 6, 71, 100
8, 32268, Note_on_c, 6, 71, 0
8, 32400, Note_on_c, 6, 74, 100
8, 32508, Note_on_c, 6, 74, 0
8, 32640, Note_on_c, 6, 72, 100
8, 32748, Note_on_c, 6, 72, 0
8, 32880, Note_on_c, 6, 76, 100
8, 32988, Note_on_c, 6, 76, 0
8, 33180, Note_on_c, 6, 74, 100
8, 33234, Note_on_c, 6, 74, 0
8, 33240, Note_on_c, 6, 72, 100
8, 33294, Note_on_c, 6, 72, 0
8, 33300, Note_on_c, 6, 71, 100
8, 33354, Note_on_c, 6, 71, 0
8, 33360, Note_on_c, 6, 69, 100
8, 33468, Note_on_c, 6, 69, 0
8, 33480, Note_on_c, 6, 68, 100
8, 33561, Note_on_c, 6, 68, 0
8, 33570, Note_on_c, 6, 69, 100
8, 33597, Note_on_c, 6, 69, 0
8, 33600, Note_on_c, 6, 69, 100
8, 33816, Note_on_c, 6, 69, 0
8, 34560, Note_on_c, 6, 69, 100
8, 34776, Note_on_c, 6, 69, 0
8, 35520, Note_on_c, 6, 71, 100
8, 35736, Note_on_c, 6, 71, 0
8, 36240, Note_on_c, 6, 83, 100
8, 36348, Note_on_c, 6, 83, 0
8, 36360, Note_on_c, 6, 83, 100
8, 36468, Note_on_c, 6, 83, 0
8, 36480, Note_on_c, 6, 83, 100
8, 36588, Note_on_c, 6, 83, 0
8, 36600, Note_on_c, 6, 81, 100
8, 36708, Note_on_c, 6, 81, 0
8, 37200, Note_on_c, 6, 81, 100
8, 37308, Note_on_c, 6, 81, 0
8, 37320, Note_on_c, 6, 81, 100
8, 37428, Note_on_c, 6, 81, 0
8, 37440, Note_on_c, 6, 81, 100
8, 37548, Note_on_c, 6, 81, 0
8, 37560, Note_on_c, 6, 80, 100
8, 37668, Note_on_c, 6, 80, 0
8, 38160, Note_on_c, 6, 74, 100
8, 38268, Note_on_c, 6, 74, 0
8, 38280, Note_on_c, 6, 74, 100
8, 38388, Note_on_c, 6, 74, 0
8, 38400, Note_on_c, 6, 74, 100
8, 38616, Note_on_c, 6, 74, 0
8, 39120, Note_on_c, 6, 72, 100
8, 39228, Note_on_c, 6, 72, 0
8, 39240, Note_on_c, 6, 72, 100
8, 39348, Note_on_c, 6, 72, 0
8, 39360, Note_on_c, 6, 71, 100
8, 39576, Note_on_c, 6, 71, 0
8, 39840, Note_on_c, 6, 83, 100
8, 39948, Note_on_c, 6, 83, 0
8, 39960, Note_on_c, 6, 81, 100
8, 40068, Note_on_c, 6, 81, 0
8, 40080, Note_on_c, 6, 80, 100
8, 40188, Note_on_c, 6, 80, 0
8, 40320, Note_on_c, 6, 81, 100
8, 40428, Note_on_c, 6, 81, 0
8, 40440, Note_on_c, 6, 74, 100
8, 40548, Note_on_c, 6, 74, 0
8, 40560, Note_on_c, 6, 72, 100
8, 40668, Note_on_c, 6, 72, 0
8, 40860, Note_on_c, 6, 77, 100
8, 40914, Note_on_c, 6, 77, 0
8, 40920, Note_on_c, 6, 76, 100
8, 40974, Note_on_c, 6, 76, 0
8, 40980, Note_on_c, 6, 74, 100
8, 41034, Note_on_c, 6, 74, 0
8, 41040, Note_on_c, 6, 72, 100
8, 41148, Note_on_c, 6, 72, 0
8, 41160, Note_on_c, 6, 71, 100
8, 41214, Note_on_c, 6, 71, 0
8, 41220, Note_on_c, 6, 69, 100
8, 41274, Note_on_c, 6, 69, 0
8, 41280, Note_on_c, 6, 69, 100
8, 41496, Note_on_c, 6, 69, 0
8, 41880, Note_on_c, 6, 76, 100
8, 41934, Note_on_c, 6, 76, 0
8, 41940, Note_on_c, 6, 78, 100
8, 41994, Note_on_c, 6, 78, 0
8, 42000, Note_on_c, 6, 80, 100
8, 42054, Note_on_c, 6, 80, 0
8, 42060, Note_on_c, 6, 81, 100
8, 42114, Note_on_c, 6, 81, 0
8, 42120, Note_on_c, 6, 83, 100
8, 42174, Note_on_c, 6, 83, 0
8, 42180, Note_on_c, 6, 84, 100
8, 42234, Note_on_c, 6, 84, 0
8, 42240, Note_on_c, 6, 83, 100
8, 42348, Note_on_c, 6, 83, 0
8, 42360, Note_on_c, 6, 71, 100
8, 42468, Note_on_c, 6, 71, 0
8, 42480, Note_on_c, 6, 72, 100
8, 42588, Note_on_c, 6, 72, 0
8, 42600, Note_on_c, 6, 71, 100
8, 42708, Note_on_c, 6, 71, 0
8, 42840, Note_on_c, 6, 76, 100
8, 42948, Note_on_c, 6, 76, 0
8, 42960, Note_on_c, 6, 77, 100
8, 43068, Note_on_c, 6, 77, 0
8, 43080, Note_on_c, 6, 76, 100
8, 43188, Note_on_c, 6, 76, 0
8, 43320, Note_on_c, 6, 80, 100
8, 43428, Note_on_c, 6, 80, 0
8, 43440, Note_on_c, 6, 81, 100
8, 43548, Note_on_c, 6, 81, 0
8, 43560, Note_on_c, 6, 74, 100
8, 43734, Note_on_c, 6, 74, 0
8, 43740, Note_on_c, 6, 76, 100
8, 43767, Note_on_c, 6, 76, 0
8, 43770, Note_on_c, 6, 77, 100
8, 43797, Note_on_c, 6, 77, 0
8, 43800, Note_on_c, 6, 76, 100
8, 43854, Note_on_c, 6, 76, 0
8, 43860, Note_on_c, 6, 74, 100
8, 43914, Note_on_c, 6, 74, 0
8, 43920, Note_on_c, 6, 72, 100
8, 44028, Note_on_c, 6, 72, 0
8, 44040, Note_on_c, 6, 71, 100
8, 44094, Note_on_c, 6, 71, 0
8, 44100, Note_on_c, 6, 69, 100
8, 44154, Note_on_c, 6, 69, 0
8, 44160, Note_on_c, 6, 69, 100
8, 44376, Note_on_c, 6, 69, 0
8, 44376, End_track
9, 0, Start_track
9, 0, Sequence_number, 255
9, 0, MIDI_port, 0
9, 0, Title_t, "II"
9, 0, Control_c, 7, 0, 0
9, 0, Control_c, 7, 32, 0
9, 0, Program_c, 7, 48
9, 0, Control_c, 7, 7, 100
9, 0, Control_c, 7, 10, 114
9, 120, Note_on_c, 7, 76, 100
9, 174, Note_on_c, 7, 76, 0
9, 180, Note_on_c, 7, 74, 100
9, 234, Note_on_c, 7, 74, 0
9, 240, Note_on_c, 7, 72, 100
9, 294, Note_on_c, 7, 72, 0
9, 300, Note_on_c, 7, 71, 100
9, 354, Note_on_c, 7, 71, 0
9, 360, Note_on_c, 7, 69, 100
9, 414, Note_on_c, 7, 69, 0
9, 420, Note_on_c, 7, 68, 100
9, 474, Note_on_c, 7, 68, 0
9, 480, Note_on_c, 7, 69, 100
9, 534, Note_on_c, 7, 69, 0
9, 540, Note_on_c, 7, 71, 100
9, 594, Note_on_c, 7, 71, 0
9, 600, Note_on_c, 7, 72, 100
9, 708, Note_on_c, 7, 72, 0
9, 720, Note_on_c, 7, 71, 100
9, 828, Note_on_c, 7, 71, 0
9, 840, Note_on_c, 7, 69, 100
9, 948, Note_on_c, 7, 69, 0
9, 960, Note_on_c, 7, 68, 100
9, 1068, Note_on_c, 7, 68, 0
9, 1080, Note_on_c, 7, 68, 100
9, 1188, Note_on_c, 7, 68, 0
9, 1200, Note_on_c, 7, 69, 100
9, 1308, Note_on_c, 7, 69, 0
9, 1320, Note_on_c, 7, 68, 100
9, 1428, Note_on_c, 7, 68, 0
9, 1560, Note_on_c, 7, 72, 100
9, 1668, Note_on_c, 7, 72, 0
9, 1680, Note_on_c, 7, 71, 100
9, 1788, Note_on_c, 7, 71, 0
9, 1800, Note_on_c, 7, 72, 100
9, 1908, Note_on_c, 7, 72, 0
9, 2040, Note_on_c, 7, 74, 100
9, 2148, Note_on_c, 7, 74, 0
9, 2160, Note_on_c, 7, 72, 100
9, 2268, Note_on_c, 7, 72, 0
9, 2280, Note_on_c, 7, 68, 100
9, 2334, Note_on_c, 7, 68, 0
9, 2340, Note_on_c, 7, 69, 100
9, 2394, Note_on_c, 7, 69, 0
9, 2400, Note_on_c, 7, 68, 100
9, 2454, Note_on_c, 7, 68, 0
9, 2460, Note_on_c, 7, 71, 100
9, 2514, Note_on_c, 7, 71, 0
9, 2520, Note_on_c, 7, 72, 100
9, 2574, Note_on_c, 7, 72, 0
9, 2580, Note_on_c, 7, 69, 100
9, 2634, Note_on_c, 7, 69, 0
9, 2640, Note_on_c, 7, 69, 100
9, 2748, Note_on_c, 7, 69, 0
9, 2760, Note_on_c, 7, 68, 100
9, 2868, Note_on_c, 7, 68, 0
9, 2880, Note_on_c, 7, 64, 100
9, 3096, Note_on_c, 7, 64, 0
9, 7800, Note_on_c, 7, 67, 100
9, 7854, Note_on_c, 7, 67, 0
9, 7860, Note_on_c, 7, 65, 100
9, 7914, Note_on_c, 7, 65, 0
9, 7920, Note_on_c, 7, 64, 100
9, 7974, Note_on_c, 7, 64, 0
9, 7980, Note_on_c, 7, 62, 100
9, 8034, Note_on_c, 7, 62, 0
9, 8040, Note_on_c, 7, 60, 100
9, 8094, Note_on_c, 7, 60, 0
9, 8100, Note_on_c, 7, 59, 100
9, 8154, Note_on_c, 7, 59, 0
9, 8160, Note_on_c, 7, 60, 100
9, 8214, Note_on_c, 7, 60, 0
9, 8220, Note_on_c, 7, 62, 100
9, 8274, Note_on_c, 7, 62, 0
9, 8280, Note_on_c, 7, 64, 100
9, 8388, Note_on_c, 7, 64, 0
9, 8400, Note_on_c, 7, 62, 100
9, 8508, Note_on_c, 7, 62, 0
9, 8520, Note_on_c, 7, 60, 100
9, 8628, Note_on_c, 7, 60, 0
9, 8640, Note_on_c, 7, 59, 100
9, 8748, Note_on_c, 7, 59, 0
9, 8760, Note_on_c, 7, 62, 100
9, 8868, Note_on_c, 7, 62, 0
9, 8880, Note_on_c, 7, 64, 100
9, 8988, Note_on_c, 7, 64, 0
9, 9000, Note_on_c, 7, 62, 100
9, 9108, Note_on_c, 7, 62, 0
9, 9240, Note_on_c, 7, 72, 100
9, 9348, Note_on_c, 7, 72, 0
9, 9360, Note_on_c, 7, 71, 100
9, 9468, Note_on_c, 7, 71, 0
9, 9480, Note_on_c, 7, 72, 100
9, 9588, Note_on_c, 7, 72, 0
9, 9720, Note_on_c, 7, 71, 100
9, 9828, Note_on_c, 7, 71, 0
9, 9840, Note_on_c, 7, 72, 100
9, 9948, Note_on_c, 7, 72, 0
9, 9960, Note_on_c, 7, 65, 100
9, 10068, Note_on_c, 7, 65, 0
9, 10080, Note_on_c, 7, 65, 100
9, 10134, Note_on_c, 7, 65, 0
9, 10140, Note_on_c, 7, 67, 100
9, 10167, Note_on_c, 7, 67, 0
9, 10170, Note_on_c, 7, 69, 100
9, 10197, Note_on_c, 7, 69, 0
9, 10200, Note_on_c, 7, 67, 100
9, 10254, Note_on_c, 7, 67, 0
9, 10260, Note_on_c, 7, 65, 100
9, 10314, Note_on_c, 7, 65, 0
9, 10320, Note_on_c, 7, 64, 100
9, 10428, Note_on_c, 7, 64, 0
9, 10440, Note_on_c, 7, 62, 100
9, 10494, Note_on_c, 7, 62, 0
9, 10500, Note_on_c, 7, 60, 100
9, 10554, Note_on_c, 7, 60, 0
9, 10560, Note_on_c, 7, 60, 100
9, 10776, Note_on_c, 7, 60, 0
9, 13680, Note_on_c, 7, 72, 100
9, 13788, Note_on_c, 7, 72, 0
9, 13800, Note_on_c, 7, 71, 100
9, 13908, Note_on_c, 7, 71, 0
9, 13920, Note_on_c, 7, 69, 100
9, 14352, Note_on_c, 7, 69, 0
9, 14400, Note_on_c, 7, 64, 100
9, 14616, Note_on_c, 7, 64, 0
9, 14880, Note_on_c, 7, 80, 100
9, 14988, Note_on_c, 7, 80, 0
9, 15000, Note_on_c, 7, 81, 100
9, 15108, Note_on_c, 7, 81, 0
9, 15120, Note_on_c, 7, 83, 100
9, 15228, Note_on_c, 7, 83, 0
9, 15360, Note_on_c, 7, 76, 100
9, 15468, Note_on_c, 7, 76, 0
9, 15480, Note_on_c, 7, 80, 100
9, 15588, Note_on_c, 7, 80, 0
9, 15600, Note_on_c, 7, 81, 100
9, 15708, Note_on_c, 7, 81, 0
9, 15900, Note_on_c, 7, 71, 100
9, 15954, Note_on_c, 7, 71, 0
9, 15960, Note_on_c, 7, 72, 100
9, 16014, Note_on_c, 7, 72, 0
9, 16020, Note_on_c, 7, 69, 100
9, 16074, Note_on_c, 7, 69, 0
9, 16080, Note_on_c, 7, 69, 100
9, 16188, Note_on_c, 7, 69, 0
9, 16200, Note_on_c, 7, 68, 100
9, 16308, Note_on_c, 7, 68, 0
9, 16320, Note_on_c, 7, 64, 100
9, 16536, Note_on_c, 7, 64, 0
9, 17040, Note_on_c, 7, 75, 100
9, 17148, Note_on_c, 7, 75, 0
9, 17160, Note_on_c, 7, 78, 100
9, 17268, Note_on_c, 7, 78, 0
9, 17280, Note_on_c, 7, 78, 100
9, 17388, Note_on_c, 7, 78, 0
9, 17400, Note_on_c, 7, 76, 100
9, 17508, Note_on_c, 7, 76, 0
9, 18000, Note_on_c, 7, 76, 100
9, 18108, Note_on_c, 7, 76, 0
9, 18120, Note_on_c, 7, 76, 100
9, 18228, Note_on_c, 7, 76, 0
9, 18240, Note_on_c, 7, 76, 100
9, 18348, Note_on_c, 7, 76, 0
9, 18360, Note_on_c, 7, 75, 100
9, 18468, Note_on_c, 7, 75, 0
9, 18960, Note_on_c, 7, 75, 100
9, 19068, Note_on_c, 7, 75, 0
9, 19080, Note_on_c, 7, 75, 100
9, 19188, Note_on_c, 7, 75, 0
9, 19200, Note_on_c, 7, 75, 100
9, 19308, Note_on_c, 7, 75, 0
9, 19320, Note_on_c, 7, 76, 100
9, 19428, Note_on_c, 7, 76, 0
9, 19920, Note_on_c, 7, 71, 100
9, 20028, Note_on_c, 7, 71, 0
9, 20040, Note_on_c, 7, 71, 100
9, 20148, Note_on_c, 7, 71, 0
9, 20160, Note_on_c, 7, 71, 100
9, 20376, Note_on_c, 7, 71, 0
9, 20640, Note_on_c, 7, 78, 100
9, 20748, Note_on_c, 7, 78, 0
9, 20760, Note_on_c, 7, 76, 100
9, 20868, Note_on_c, 7, 76, 0
9, 20880, Note_on_c, 7, 75, 100
9, 20988, Note_on_c, 7, 75, 0
9, 21120, Note_on_c, 7, 76, 100
9, 21228, Note_on_c, 7, 76, 0
9, 21240, Note_on_c, 7, 69, 100
9, 21348, Note_on_c, 7, 69, 0
9, 21360, Note_on_c, 7, 67, 100
9, 21468, Note_on_c, 7, 67, 0
9, 21660, Note_on_c, 7, 78, 100
9, 21714, Note_on_c, 7, 78, 0
9, 21720, Note_on_c, 7, 76, 100
9, 21774, Note_on_c, 7, 76, 0
9, 21780, Note_on_c, 7, 72, 100
9, 21834, Note_on_c, 7, 72, 0
9, 21840, Note_on_c, 7, 67, 100
9, 21948, Note_on_c, 7, 67, 0
9, 21960, Note_on_c, 7, 66, 100
9, 22041, Note_on_c, 7, 66, 0
9, 22050, Note_on_c, 7, 64, 100
9, 22077, Note_on_c, 7, 64, 0
9, 22080, Note_on_c, 7, 64, 100
9, 22296, Note_on_c, 7, 64, 0
9, 22680, Note_on_c, 7, 71, 100
9, 22734, Note_on_c, 7, 71, 0
9, 22740, Note_on_c, 7, 73, 100
9, 22794, Note_on_c, 7, 73, 0
9, 22800, Note_on_c, 7, 75, 100
9, 22854, Note_on_c, 7, 75, 0
9, 22860, Note_on_c, 7, 76, 100
9, 22914, Note_on_c, 7, 76, 0
9, 22920, Note_on_c, 7, 78, 100
9, 22974, Note_on_c, 7, 78, 0
9, 22980, Note_on_c, 7, 79, 100
9, 23034, Note_on_c, 7, 79, 0
9, 23040, Note_on_c, 7, 78, 100
9, 23148, Note_on_c, 7, 78, 0
9, 23160, Note_on_c, 7, 63, 100
9, 23268, Note_on_c, 7, 63, 0
9, 23280, Note_on_c, 7, 64, 100
9, 23388, Note_on_c, 7, 64, 0
9, 23400, Note_on_c, 7, 63, 100
9, 23508, Note_on_c, 7, 63, 0
9, 23640, Note_on_c, 7, 76, 100
9, 23748, Note_on_c, 7, 76, 0
9, 23760, Note_on_c, 7, 75, 100
9, 23868, Note_on_c, 7, 75, 0
9, 23880, Note_on_c, 7, 76, 100
9, 23988, Note_on_c, 7, 76, 0
9, 24120, Note_on_c, 7, 75, 100
9, 24228, Note_on_c, 7, 75, 0
9, 24240, Note_on_c, 7, 76, 100
9, 24294, Note_on_c, 7, 76, 0
9, 24300, Note_on_c, 7, 71, 100
9, 24354, Note_on_c, 7, 71, 0
9, 24360, Note_on_c, 7, 69, 100
9, 24414, Note_on_c, 7, 69, 0
9, 24420, Note_on_c, 7, 67, 100
9, 24474, Note_on_c, 7, 67, 0
9, 24480, Note_on_c, 7, 69, 100
9, 24534, Note_on_c, 7, 69, 0
9, 24540, Note_on_c, 7, 66, 100
9, 24594, Note_on_c, 7, 66, 0
9, 24600, Note_on_c, 7, 67, 100
9, 24654, Note_on_c, 7, 67, 0
9, 24660, Note_on_c, 7, 64, 100
9, 24714, Note_on_c, 7, 64, 0
9, 24720, Note_on_c, 7, 64, 100
9, 24828, Note_on_c, 7, 64, 0
9, 24840, Note_on_c, 7, 63, 100
9, 24948, Note_on_c, 7, 63, 0
9, 24960, Note_on_c, 7, 59, 100
9, 25176, Note_on_c, 7, 59, 0
9, 25920, Note_on_c, 7, 70, 100
9, 26028, Note_on_c, 7, 70, 0
9, 26040, Note_on_c, 7, 69, 100
9, 26148, Note_on_c, 7, 69, 0
9, 26880, Note_on_c, 7, 69, 100
9, 27096, Note_on_c, 7, 69, 0
9, 27840, Note_on_c, 7, 72, 100
9, 27948, Note_on_c, 7, 72, 0
9, 27960, Note_on_c, 7, 71, 100
9, 28068, Note_on_c, 7, 71, 0
9, 28800, Note_on_c, 7, 74, 100
9, 29016, Note_on_c, 7, 74, 0
9, 29040, Note_on_c, 7, 57, 100
9, 29148, Note_on_c, 7, 57, 0
9, 29160, Note_on_c, 7, 59, 100
9, 29268, Note_on_c, 7, 59, 0
9, 29280, Note_on_c, 7, 60, 100
9, 29388, Note_on_c, 7, 60, 0
9, 29400, Note_on_c, 7, 59, 100
9, 29454, Note_on_c, 7, 59, 0
9, 29460, Note_on_c, 7, 57, 100
9, 29514, Note_on_c, 7, 57, 0
9, 29520, Note_on_c, 7, 66, 100
9, 29628, Note_on_c, 7, 66, 0
9, 29640, Note_on_c, 7, 72, 100
9, 29868, Note_on_c, 7, 72, 0
9, 29880, Note_on_c, 7, 71, 100
9, 29988, Note_on_c, 7, 71, 0
9, 30000, Note_on_c, 7, 55, 100
9, 30108, Note_on_c, 7, 55, 0
9, 30120, Note_on_c, 7, 57, 100
9, 30228, Note_on_c, 7, 57, 0
9, 30240, Note_on_c, 7, 58, 100
9, 30348, Note_on_c, 7, 58, 0
9, 30360, Note_on_c, 7, 57, 100
9, 30414, Note_on_c, 7, 57, 0
9, 30420, Note_on_c, 7, 55, 100
9, 30474, Note_on_c, 7, 55, 0
9, 30480, Note_on_c, 7, 64, 100
9, 30588, Note_on_c, 7, 64, 0
9, 30600, Note_on_c, 7, 70, 100
9, 30828, Note_on_c, 7, 70, 0
9, 30840, Note_on_c, 7, 69, 100
9, 30948, Note_on_c, 7, 69, 0
9, 30960, Note_on_c, 7, 57, 100
9, 31068, Note_on_c, 7, 57, 0
9, 31080, Note_on_c, 7, 55, 100
9, 31188, Note_on_c, 7, 55, 0
9, 31200, Note_on_c, 7, 57, 100
9, 31308, Note_on_c, 7, 57, 0
9, 31320, Note_on_c, 7, 55, 100
9, 31374, Note_on_c, 7, 55, 0
9, 31380, Note_on_c, 7, 57, 100
9, 31434, Note_on_c, 7, 57, 0
9, 31440, Note_on_c, 7, 62, 100
9, 31548, Note_on_c, 7, 62, 0
9, 31560, Note_on_c, 7, 70, 100
9, 31668, Note_on_c, 7, 70, 0
9, 31680, Note_on_c, 7, 68, 100
9, 31896, Note_on_c, 7, 68, 0
9, 31920, Note_on_c, 7, 69, 100
9, 32028, Note_on_c, 7, 69, 0
9, 32160, Note_on_c, 7, 68, 100
9, 32268, Note_on_c, 7, 68, 0
9, 32400, Note_on_c, 7, 68, 100
9, 32508, Note_on_c, 7, 68, 0
9, 32640, Note_on_c, 7, 69, 100
9, 32748, Note_on_c, 7, 69, 0
9, 32880, Note_on_c, 7, 72, 100
9, 32988, Note_on_c, 7, 72, 0
9, 33180, Note_on_c, 7, 71, 100
9, 33234, Note_on_c, 7, 71, 0
9, 33240, Note_on_c, 7, 69, 100
9, 33294, Note_on_c, 7, 69, 0
9, 33300, Note_on_c, 7, 65, 100
9, 33354, Note_on_c, 7, 65, 0
9, 33360, Note_on_c, 7, 64, 100
9, 33468, Note_on_c, 7, 64, 0
9, 33480, Note_on_c, 7, 62, 100
9, 33588, Note_on_c, 7, 62, 0
9, 33600, Note_on_c, 7, 60, 100
9, 33816, Note_on_c, 7, 60, 0
9, 34560, Note_on_c, 7, 66, 100
9, 34776, Note_on_c, 7, 66, 0
9, 35520, Note_on_c, 7, 65, 100
9, 35736, Note_on_c, 7, 65, 0
9, 36240, Note_on_c, 7, 74, 100
9, 36348, Note_on_c, 7, 74, 0
9, 36360, Note_on_c, 7, 74, 100
9, 36468, Note_on_c, 7, 74, 0
9, 36480, Note_on_c, 7, 72, 100
9, 36696, Note_on_c, 7, 72, 0
9, 37200, Note_on_c, 7, 74, 100
9, 37308, Note_on_c, 7, 74, 0
9, 37320, Note_on_c, 7, 74, 100
9, 37428, Note_on_c, 7, 74, 0
9, 37440, Note_on_c, 7, 74, 100
9, 37656, Note_on_c, 7, 74, 0
9, 38160, Note_on_c, 7, 71, 100
9, 38268, Note_on_c, 7, 71, 0
9, 38280, Note_on_c, 7, 71, 100
9, 38388, Note_on_c, 7, 71, 0
9, 38400, Note_on_c, 7, 71, 100
9, 38616, Note_on_c, 7, 71, 0
9, 39120, Note_on_c, 7, 69, 100
9, 39228, Note_on_c, 7, 69, 0
9, 39240, Note_on_c, 7, 69, 100
9, 39348, Note_on_c, 7, 69, 0
9, 39360, Note_on_c, 7, 64, 100
9, 39576, Note_on_c, 7, 64, 0
9, 39840, Note_on_c, 7, 77, 100
9, 39948, Note_on_c, 7, 77, 0
9, 39960, Note_on_c, 7, 76, 100
9, 40068, Note_on_c, 7, 76, 0
9, 40080, Note_on_c, 7, 74, 100
9, 40188, Note_on_c, 7, 74, 0
9, 40320, Note_on_c, 7, 72, 100
9, 40428, Note_on_c, 7, 72, 0
9, 40440, Note_on_c, 7, 68, 100
9, 40548, Note_on_c, 7, 68, 0
9, 40560, Note_on_c, 7, 69, 100
9, 40668, Note_on_c, 7, 69, 0
9, 40860, Note_on_c, 7, 74, 100
9, 40914, Note_on_c, 7, 74, 0
9, 40920, Note_on_c, 7, 72, 100
9, 40974, Note_on_c, 7, 72, 0
9, 40980, Note_on_c, 7, 71, 100
9, 41034, Note_on_c, 7, 71, 0
9, 41040, Note_on_c, 7, 69, 100
9, 41148, Note_on_c, 7, 69, 0
9, 41160, Note_on_c, 7, 68, 100
9, 41268, Note_on_c, 7, 68, 0
9, 41280, Note_on_c, 7, 64, 100
9, 41388, Note_on_c, 7, 64, 0
9, 41400, Note_on_c, 7, 76, 100
9, 41454, Note_on_c, 7, 76, 0
9, 41460, Note_on_c, 7, 74, 100
9, 41514, Note_on_c, 7, 74, 0
9, 41520, Note_on_c, 7, 72, 100
9, 41574, Note_on_c, 7, 72, 0
9, 41580, Note_on_c, 7, 71, 100
9, 41634, Note_on_c, 7, 71, 0
9, 41640, Note_on_c, 7, 69, 100
9, 41694, Note_on_c, 7, 69, 0
9, 41700, Note_on_c, 7, 68, 100
9, 41754, Note_on_c, 7, 68, 0
9, 41760, Note_on_c, 7, 69, 100
9, 41814, Note_on_c, 7, 69, 0
9, 41820, Note_on_c, 7, 71, 100
9, 41874, Note_on_c, 7, 71, 0
9, 41880, Note_on_c, 7, 72, 100
9, 41988, Note_on_c, 7, 72, 0
9, 42000, Note_on_c, 7, 71, 100
9, 42108, Note_on_c, 7, 71, 0
9, 42120, Note_on_c, 7, 69, 100
9, 42228, Note_on_c, 7, 69, 0
9, 42240, Note_on_c, 7, 68, 100
9, 42348, Note_on_c, 7, 68, 0
9, 42360, Note_on_c, 7, 68, 100
9, 42468, Note_on_c, 7, 68, 0
9, 42480, Note_on_c, 7, 69, 100
9, 42588, Note_on_c, 7, 69, 0
9, 42600, Note_on_c, 7, 68, 100
9, 42708, Note_on_c, 7, 68, 0
9, 42840, Note_on_c, 7, 72, 100
9, 42948, Note_on_c, 7, 72, 0
9, 42960, Note_on_c, 7, 71, 100
9, 43068, Note_on_c, 7, 71, 0
9, 43080, Note_on_c, 7, 72, 100
9, 43188, Note_on_c, 7, 72, 0
9, 43320, Note_on_c, 7, 74, 100
9, 43428, Note_on_c, 7, 74, 0
9, 43440, Note_on_c, 7, 72, 100
9, 43548, Note_on_c, 7, 72, 0
9, 43560, Note_on_c, 7, 68, 100
9, 43614, Note_on_c, 7, 68, 0
9, 43620, Note_on_c, 7, 69, 100
9, 43674, Note_on_c, 7, 69, 0
9, 43680, Note_on_c, 7, 68, 100
9, 43734, Note_on_c, 7, 68, 0
9, 43740, Note_on_c, 7, 71, 100
9, 43794, Note_on_c, 7, 71, 0
9, 43800, Note_on_c, 7, 72, 100
9, 43854, Note_on_c, 7, 72, 0
9, 43860, Note_on_c, 7, 69, 100
9, 43914, Note_on_c, 7, 69, 0
9, 43920, Note_on_c, 7, 69, 100
9, 44028, Note_on_c, 7, 69, 0
9, 44040, Note_on_c, 7, 68, 100
9, 44148, Note_on_c, 7, 68, 0
9, 44160, Note_on_c, 7, 64, 100
9, 44376, Note_on_c, 7, 64, 0
9, 44376, End_track
10, 0, Start_track
10, 0, Sequence_number, 255
10, 0, MIDI_port, 0
10, 0, Title_t, "Viola"
10, 0, Control_c, 8, 0, 0
10, 0, Control_c, 8, 32, 0
10, 0, Program_c, 8, 48
10, 0, Control_c, 8, 7, 100
10, 0, Control_c, 8, 10, 34
10, 240, Note_on_c, 8, 60, 100
10, 348, Note_on_c, 8, 60, 0
10, 360, Note_on_c, 8, 62, 100
10, 468, Note_on_c, 8, 62, 0
10, 480, Note_on_c, 8, 64, 100
10, 588, Note_on_c, 8, 64, 0
10, 600, Note_on_c, 8, 69, 100
10, 708, Note_on_c, 8, 69, 0
10, 840, Note_on_c, 8, 63, 100
10, 948, Note_on_c, 8, 63, 0
10, 960, Note_on_c, 8, 64, 100
10, 1014, Note_on_c, 8, 64, 0
10, 1020, Note_on_c, 8, 65, 100
10, 1074, Note_on_c, 8, 65, 0
10, 1080, Note_on_c, 8, 64, 100
10, 1134, Note_on_c, 8, 64, 0
10, 1140, Note_on_c, 8, 62, 100
10, 1194, Note_on_c, 8, 62, 0
10, 1200, Note_on_c, 8, 60, 100
10, 1254, Note_on_c, 8, 60, 0
10, 1260, Note_on_c, 8, 57, 100
10, 1314, Note_on_c, 8, 57, 0
10, 1320, Note_on_c, 8, 64, 100
10, 1428, Note_on_c, 8, 64, 0
10, 1560, Note_on_c, 8, 57, 100
10, 1668, Note_on_c, 8, 57, 0
10, 1680, Note_on_c, 8, 56, 100
10, 1788, Note_on_c, 8, 56, 0
10, 1800, Note_on_c, 8, 57, 100
10, 1908, Note_on_c, 8, 57, 0
10, 2040, Note_on_c, 8, 64, 100
10, 2148, Note_on_c, 8, 64, 0
10, 2160, Note_on_c, 8, 64, 100
10, 2268, Note_on_c, 8, 64, 0
10, 2280, Note_on_c, 8, 65, 100
10, 2388, Note_on_c, 8, 65, 0
10, 2400, Note_on_c, 8, 62, 100
10, 2508, Note_on_c, 8, 62, 0
10, 2520, Note_on_c, 8, 60, 100
10, 2574, Note_on_c, 8, 60, 0
10, 2580, Note_on_c, 8, 65, 100
10, 2634, Note_on_c, 8, 65, 0
10, 2640, Note_on_c, 8, 64, 100
10, 2748, Note_on_c, 8, 64, 0
10, 2760, Note_on_c, 8, 62, 100
10, 2868, Note_on_c, 8, 62, 0
10, 2880, Note_on_c, 8, 60, 100
10, 3096, Note_on_c, 8, 60, 0
10, 7920, Note_on_c, 8, 52, 100
10, 8028, Note_on_c, 8, 52, 0
10, 8040, Note_on_c, 8, 53, 100
10, 8148, Note_on_c, 8, 53, 0
10, 8160, Note_on_c, 8, 55, 100
10, 8268, Note_on_c, 8, 55, 0
10, 8280, Note_on_c, 8, 60, 100
10, 8388, Note_on_c, 8, 60, 0
10, 8520, Note_on_c, 8, 54, 100
10, 8628, Note_on_c, 8, 54, 0
10, 8640, Note_on_c, 8, 55, 100
10, 8694, Note_on_c, 8, 55, 0
10, 8700, Note_on_c, 8, 57, 100
10, 8754, Note_on_c, 8, 57, 0
10, 8760, Note_on_c, 8, 55, 100
10, 8814, Note_on_c, 8, 55, 0
10, 8820, Note_on_c, 8, 53, 100
10, 8874, Note_on_c, 8, 53, 0
10, 8880, Note_on_c, 8, 52, 100
10, 8934, Note_on_c, 8, 52, 0
10, 8940, Note_on_c, 8, 48, 100
10, 8994, Note_on_c, 8, 48, 0
10, 9000, Note_on_c, 8, 55, 100
10, 9108, Note_on_c, 8, 55, 0
10, 9240, Note_on_c, 8, 67, 100
10, 9348, Note_on_c, 8, 67, 0
10, 9360, Note_on_c, 8, 67, 100
10, 9468, Note_on_c, 8, 67, 0
10, 9480, Note_on_c, 8, 67, 100
10, 9588, Note_on_c, 8, 67, 0
10, 9720, Note_on_c, 8, 67, 100
10, 9828, Note_on_c, 8, 67, 0
10, 9840, Note_on_c, 8, 60, 100
10, 9948, Note_on_c, 8, 60, 0
10, 9960, Note_on_c, 8, 62, 100
10, 10068, Note_on_c, 8, 62, 0
10, 10080, Note_on_c, 8, 55, 100
10, 10188, Note_on_c, 8, 55, 0
10, 10200, Note_on_c, 8, 60, 100
10, 10254, Note_on_c, 8, 60, 0
10, 10260, Note_on_c, 8, 69, 100
10, 10314, Note_on_c, 8, 69, 0
10, 10320, Note_on_c, 8, 67, 100
10, 10428, Note_on_c, 8, 67, 0
10, 10440, Note_on_c, 8, 67, 100
10, 10548, Note_on_c, 8, 67, 0
10, 10560, Note_on_c, 8, 67, 100
10, 10776, Note_on_c, 8, 67, 0
10, 13680, Note_on_c, 8, 69, 100
10, 13788, Note_on_c, 8, 69, 0
10, 13800, Note_on_c, 8, 68, 100
10, 13908, Note_on_c, 8, 68, 0
10, 13920, Note_on_c, 8, 64, 100
10, 14352, Note_on_c, 8, 64, 0
10, 14400, Note_on_c, 8, 68, 100
10, 14616, Note_on_c, 8, 68, 0
10, 14880, Note_on_c, 8, 59, 100
10, 14988, Note_on_c, 8, 59, 0
10, 15000, Note_on_c, 8, 64, 100
10, 15108, Note_on_c, 8, 64, 0
10, 15120, Note_on_c, 8, 68, 100
10, 15228, Note_on_c, 8, 68, 0
10, 15360, Note_on_c, 8, 60, 100
10, 15468, Note_on_c, 8, 60, 0
10, 15480, Note_on_c, 8, 64, 100
10, 15588, Note_on_c, 8, 64, 0
10, 15600, Note_on_c, 8, 69, 100
10, 15708, Note_on_c, 8, 69, 0
10, 15900, Note_on_c, 8, 62, 100
10, 15954, Note_on_c, 8, 62, 0
10, 15960, Note_on_c, 8, 69, 100
10, 16014, Note_on_c, 8, 69, 0
10, 16020, Note_on_c, 8, 65, 100
10, 16074, Note_on_c, 8, 65, 0
10, 16080, Note_on_c, 8, 60, 100
10, 16134, Note_on_c, 8, 60, 0
10, 16140, Note_on_c, 8, 62, 100
10, 16194, Note_on_c, 8, 62, 0
10, 16200, Note_on_c, 8, 64, 100
10, 16254, Note_on_c, 8, 64, 0
10, 16260, Note_on_c, 8, 59, 100
10, 16314, Note_on_c, 8, 59, 0
10, 16320, Note_on_c, 8, 60, 100
10, 16536, Note_on_c, 8, 60, 0
10, 17040, Note_on_c, 8, 71, 100
10, 17148, Note_on_c, 8, 71, 0
10, 17160, Note_on_c, 8, 75, 100
10, 17268, Note_on_c, 8, 75, 0
10, 17280, Note_on_c, 8, 71, 100
10, 17496, Note_on_c, 8, 71, 0
10, 18000, Note_on_c, 8, 72, 100
10, 18108, Note_on_c, 8, 72, 0
10, 18120, Note_on_c, 8, 72, 100
10, 18228, Note_on_c, 8, 72, 0
10, 18240, Note_on_c, 8, 72, 100
10, 18456, Note_on_c, 8, 72, 0
10, 18960, Note_on_c, 8, 72, 100
10, 19068, Note_on_c, 8, 72, 0
10, 19080, Note_on_c, 8, 72, 100
10, 19188, Note_on_c, 8, 72, 0
10, 19200, Note_on_c, 8, 72, 100
10, 19308, Note_on_c, 8, 72, 0
10, 19320, Note_on_c, 8, 71, 100
10, 19428, Note_on_c, 8, 71, 0
10, 19920, Note_on_c, 8, 67, 100
10, 20028, Note_on_c, 8, 67, 0
10, 20040, Note_on_c, 8, 67, 100
10, 20148, Note_on_c, 8, 67, 0
10, 20160, Note_on_c, 8, 66, 100
10, 20376, Note_on_c, 8, 66, 0
10, 20640, Note_on_c, 8, 72, 100
10, 20748, Note_on_c, 8, 72, 0
10, 20760, Note_on_c, 8, 71, 100
10, 20868, Note_on_c, 8, 71, 0
10, 20880, Note_on_c, 8, 69, 100
10, 20988, Note_on_c, 8, 69, 0
10, 21120, Note_on_c, 8, 67, 100
10, 21228, Note_on_c, 8, 67, 0
10, 21240, Note_on_c, 8, 69, 100
10, 21348, Note_on_c, 8, 69, 0
10, 21360, Note_on_c, 8, 71, 100
10, 21468, Note_on_c, 8, 71, 0
10, 21660, Note_on_c, 8, 59, 100
10, 21714, Note_on_c, 8, 59, 0
10, 21720, Note_on_c, 8, 71, 100
10, 21774, Note_on_c, 8, 71, 0
10, 21780, Note_on_c, 8, 64, 100
10, 21834, Note_on_c, 8, 64, 0
10, 21840, Note_on_c, 8, 59, 100
10, 21948, Note_on_c, 8, 59, 0
10, 21960, Note_on_c, 8, 59, 100
10, 22068, Note_on_c, 8, 59, 0
10, 22080, Note_on_c, 8, 59, 100
10, 22296, Note_on_c, 8, 59, 0
10, 22320, Note_on_c, 8, 67, 100
10, 22428, Note_on_c, 8, 67, 0
10, 22440, Note_on_c, 8, 69, 100
10, 22548, Note_on_c, 8, 69, 0
10, 22560, Note_on_c, 8, 71, 100
10, 22668, Note_on_c, 8, 71, 0
10, 22680, Note_on_c, 8, 59, 100
10, 22788, Note_on_c, 8, 59, 0
10, 22920, Note_on_c, 8, 63, 100
10, 22974, Note_on_c, 8, 63, 0
10, 22980, Note_on_c, 8, 64, 100
10, 23034, Note_on_c, 8, 64, 0
10, 23040, Note_on_c, 8, 66, 100
10, 23148, Note_on_c, 8, 66, 0
10, 23160, Note_on_c, 8, 59, 100
10, 23214, Note_on_c, 8, 59, 0
10, 23220, Note_on_c, 8, 57, 100
10, 23274, Note_on_c, 8, 57, 0
10, 23280, Note_on_c, 8, 55, 100
10, 23334, Note_on_c, 8, 55, 0
10, 23340, Note_on_c, 8, 52, 100
10, 23394, Note_on_c, 8, 52, 0
10, 23400, Note_on_c, 8, 59, 100
10, 23508, Note_on_c, 8, 59, 0
10, 23640, Note_on_c, 8, 67, 100
10, 23748, Note_on_c, 8, 67, 0
10, 23760, Note_on_c, 8, 66, 100
10, 23868, Note_on_c, 8, 66, 0
10, 23880, Note_on_c, 8, 67, 100
10, 23988, Note_on_c, 8, 67, 0
10, 24120, Note_on_c, 8, 60, 100
10, 24228, Note_on_c, 8, 60, 0
10, 24240, Note_on_c, 8, 59, 100
10, 24348, Note_on_c, 8, 59, 0
10, 24360, Note_on_c, 8, 59, 100
10, 24468, Note_on_c, 8, 59, 0
10, 24480, Note_on_c, 8, 63, 100
10, 24534, Note_on_c, 8, 63, 0
10, 24540, Note_on_c, 8, 69, 100
10, 24594, Note_on_c, 8, 69, 0
10, 24600, Note_on_c, 8, 67, 100
10, 24654, Note_on_c, 8, 67, 0
10, 24660, Note_on_c, 8, 60, 100
10, 24714, Note_on_c, 8, 60, 0
10, 24720, Note_on_c, 8, 59, 100
10, 24828, Note_on_c, 8, 59, 0
10, 24840, Note_on_c, 8, 57, 100
10, 24948, Note_on_c, 8, 57, 0
10, 24960, Note_on_c, 8, 55, 100
10, 25176, Note_on_c, 8, 55, 0
10, 25920, Note_on_c, 8, 67, 100
10, 26136, Note_on_c, 8, 67, 0
10, 26880, Note_on_c, 8, 66, 100
10, 27096, Note_on_c, 8, 66, 0
10, 27840, Note_on_c, 8, 69, 100
10, 28056, Note_on_c, 8, 69, 0
10, 28800, Note_on_c, 8, 71, 100
10, 29016, Note_on_c, 8, 71, 0
10, 29040, Note_on_c, 8, 57, 100
10, 29148, Note_on_c, 8, 57, 0
10, 29160, Note_on_c, 8, 59, 100
10, 29268, Note_on_c, 8, 59, 0
10, 29280, Note_on_c, 8, 60, 100
10, 29388, Note_on_c, 8, 60, 0
10, 29400, Note_on_c, 8, 59, 100
10, 29454, Note_on_c, 8, 59, 0
10, 29460, Note_on_c, 8, 57, 100
10, 29514, Note_on_c, 8, 57, 0
10, 29520, Note_on_c, 8, 66, 100
10, 29628, Note_on_c, 8, 66, 0
10, 29640, Note_on_c, 8, 66, 100
10, 29748, Note_on_c, 8, 66, 0
10, 29760, Note_on_c, 8, 62, 100
10, 29976, Note_on_c, 8, 62, 0
10, 30000, Note_on_c, 8, 55, 100
10, 30108, Note_on_c, 8, 55, 0
10, 30120, Note_on_c, 8, 57, 100
10, 30228, Note_on_c, 8, 57, 0
10, 30240, Note_on_c, 8, 58, 100
10, 30348, Note_on_c, 8, 58, 0
10, 30360, Note_on_c, 8, 57, 100
10, 30414, Note_on_c, 8, 57, 0
10, 30420, Note_on_c, 8, 55, 100
10, 30474, Note_on_c, 8, 55, 0
10, 30480, Note_on_c, 8, 64, 100
10, 30588, Note_on_c, 8, 64, 0
10, 30600, Note_on_c, 8, 64, 100
10, 30708, Note_on_c, 8, 64, 0
10, 30720, Note_on_c, 8, 60, 100
10, 30936, Note_on_c, 8, 60, 0
10, 30960, Note_on_c, 8, 57, 100
10, 31068, Note_on_c, 8, 57, 0
10, 31080, Note_on_c, 8, 55, 100
10, 31188, Note_on_c, 8, 55, 0
10, 31200, Note_on_c, 8, 57, 100
10, 31308, Note_on_c, 8, 57, 0
10, 31320, Note_on_c, 8, 55, 100
10, 31374, Note_on_c, 8, 55, 0
10, 31380, Note_on_c, 8, 57, 100
10, 31434, Note_on_c, 8, 57, 0
10, 31440, Note_on_c, 8, 62, 100
10, 31548, Note_on_c, 8, 62, 0
10, 31560, Note_on_c, 8, 62, 100
10, 31668, Note_on_c, 8, 62, 0
10, 31680, Note_on_c, 8, 59, 100
10, 31896, Note_on_c, 8, 59, 0
10, 31920, Note_on_c, 8, 64, 100
10, 32028, Note_on_c, 8, 64, 0
10, 32160, Note_on_c, 8, 64, 100
10, 32268, Note_on_c, 8, 64, 0
10, 32400, Note_on_c, 8, 59, 100
10, 32508, Note_on_c, 8, 59, 0
10, 32640, Note_on_c, 8, 64, 100
10, 32748, Note_on_c, 8, 64, 0
10, 32880, Note_on_c, 8, 69, 100
10, 32988, Note_on_c, 8, 69, 0
10, 33180, Note_on_c, 8, 64, 100
10, 33234, Note_on_c, 8, 64, 0
10, 33240, Note_on_c, 8, 64, 100
10, 33294, Note_on_c, 8, 64, 0
10, 33300, Note_on_c, 8, 62, 100
10, 33354, Note_on_c, 8, 62, 0
10, 33360, Note_on_c, 8, 60, 100
10, 33468, Note_on_c, 8, 60, 0
10, 33480, Note_on_c, 8, 59, 100
10, 33588, Note_on_c, 8, 59, 0
10, 33600, Note_on_c, 8, 57, 100
10, 33816, Note_on_c, 8, 57, 0
10, 34560, Note_on_c, 8, 60, 100
10, 34776, Note_on_c, 8, 60, 0
10, 35520, Note_on_c, 8, 62, 100
10, 35736, Note_on_c, 8, 62, 0
10, 36240, Note_on_c, 8, 68, 100
10, 36348, Note_on_c, 8, 68, 0
10, 36360, Note_on_c, 8, 68, 100
10, 36468, Note_on_c, 8, 68, 0
10, 36480, Note_on_c, 8, 64, 100
10, 36696, Note_on_c, 8, 64, 0
10, 37200, Note_on_c, 8, 62, 100
10, 37308, Note_on_c, 8, 62, 0
10, 37320, Note_on_c, 8, 65, 100
10, 37428, Note_on_c, 8, 65, 0
10, 37440, Note_on_c, 8, 65, 100
10, 37656, Note_on_c, 8, 65, 0
10, 38160, Note_on_c, 8, 68, 100
10, 38268, Note_on_c, 8, 68, 0
10, 38280, Note_on_c, 8, 68, 100
10, 38388, Note_on_c, 8, 68, 0
10, 38400, Note_on_c, 8, 68, 100
10, 38616, Note_on_c, 8, 68, 0
10, 39120, Note_on_c, 8, 64, 100
10, 39228, Note_on_c, 8, 64, 0
10, 39240, Note_on_c, 8, 66, 100
10, 39348, Note_on_c, 8, 66, 0
10, 39360, Note_on_c, 8, 68, 100
10, 39576, Note_on_c, 8, 68, 0
10, 39840, Note_on_c, 8, 68, 100
10, 39948, Note_on_c, 8, 68, 0
10, 39960, Note_on_c, 8, 69, 100
10, 40068, Note_on_c, 8, 69, 0
10, 40080, Note_on_c, 8, 71, 100
10, 40188, Note_on_c, 8, 71, 0
10, 40320, Note_on_c, 8, 64, 100
10, 40428, Note_on_c, 8, 64, 0
10, 40440, Note_on_c, 8, 62, 100
10, 40548, Note_on_c, 8, 62, 0
10, 40560, Note_on_c, 8, 64, 100
10, 40668, Note_on_c, 8, 64, 0
10, 40860, Note_on_c, 8, 59, 100
10, 40914, Note_on_c, 8, 59, 0
10, 40920, Note_on_c, 8, 60, 100
10, 40974, Note_on_c, 8, 60, 0
10, 40980, Note_on_c, 8, 65, 100
10, 41034, Note_on_c, 8, 65, 0
10, 41040, Note_on_c, 8, 64, 100
10, 41148, Note_on_c, 8, 64, 0
10, 41160, Note_on_c, 8, 62, 100
10, 41268, Note_on_c, 8, 62, 0
10, 41280, Note_on_c, 8, 60, 100
10, 41496, Note_on_c, 8, 60, 0
10, 41520, Note_on_c, 8, 60, 100
10, 41628, Note_on_c, 8, 60, 0
10, 41640, Note_on_c, 8, 62, 100
10, 41748, Note_on_c, 8, 62, 0
10, 41760, Note_on_c, 8, 64, 100
10, 41868, Note_on_c, 8, 64, 0
10, 41880, Note_on_c, 8, 69, 100
10, 41988, Note_on_c, 8, 69, 0
10, 42120, Note_on_c, 8, 63, 100
10, 42228, Note_on_c, 8, 63, 0
10, 42240, Note_on_c, 8, 64, 100
10, 42294, Note_on_c, 8, 64, 0
10, 42300, Note_on_c, 8, 65, 100
10, 42354, Note_on_c, 8, 65, 0
10, 42360, Note_on_c, 8, 64, 100
10, 42414, Note_on_c, 8, 64, 0
10, 42420, Note_on_c, 8, 62, 100
10, 42474, Note_on_c, 8, 62, 0
10, 42480, Note_on_c, 8, 60, 100
10, 42534, Note_on_c, 8, 60, 0
10, 42540, Note_on_c, 8, 57, 100
10, 42594, Note_on_c, 8, 57, 0
10, 42600, Note_on_c, 8, 64, 100
10, 42708, Note_on_c, 8, 64, 0
10, 42840, Note_on_c, 8, 57, 100
10, 42948, Note_on_c, 8, 57, 0
10, 42960, Note_on_c, 8, 56, 100
10, 43068, Note_on_c, 8, 56, 0
10, 43080, Note_on_c, 8, 57, 100
10, 43188, Note_on_c, 8, 57, 0
10, 43320, Note_on_c, 8, 64, 100
10, 43428, Note_on_c, 8, 64, 0
10, 43440, Note_on_c, 8, 64, 100
10, 43548, Note_on_c, 8, 64, 0
10, 43560, Note_on_c, 8, 65, 100
10, 43668, Note_on_c, 8, 65, 0
10, 43680, Note_on_c, 8, 62, 100
10, 43788, Note_on_c, 8, 62, 0
10, 43800, Note_on_c, 8, 60, 100
10, 43854, Note_on_c, 8, 60, 0
10, 43860, Note_on_c, 8, 65, 100
10, 43914, Note_on_c, 8, 65, 0
10, 43920, Note_on_c, 8, 64, 100
10, 44028, Note_on_c, 8, 64, 0
10, 44040, Note_on_c, 8, 62, 100
10, 44148, Note_on_c, 8, 62, 0
10, 44160, Note_on_c, 8, 60, 100
10, 44376, Note_on_c, 8, 60, 0
10, 44376, End_track
11, 0, Start_track
11, 0, Sequence_number, 255
11, 0, MIDI_port, 0
11, 0, Title_t, "Basso Continuo"
11, 0, Control_c, 10, 0, 0
11, 0, Control_c, 10, 32, 0
11, 0, Program_c, 10, 48
11, 0, Control_c, 10, 7, 100
11, 0, Control_c, 10, 10, 94
11, 0, Note_on_c, 10, 45, 100
11, 216, Note_on_c, 10, 45, 0
11, 240, Note_on_c, 10, 57, 100
11, 348, Note_on_c, 10, 57, 0
11, 360, Note_on_c, 10, 59, 100
11, 468, Note_on_c, 10, 59, 0
11, 480, Note_on_c, 10, 60, 100
11, 588, Note_on_c, 10, 60, 0
11, 600, Note_on_c, 10, 59, 100
11, 654, Note_on_c, 10, 59, 0
11, 660, Note_on_c, 10, 57, 100
11, 714, Note_on_c, 10, 57, 0
11, 720, Note_on_c, 10, 64, 100
11, 828, Note_on_c, 10, 64, 0
11, 840, Note_on_c, 10, 64, 100
11, 948, Note_on_c, 10, 64, 0
11, 960, Note_on_c, 10, 64, 100
11, 1176, Note_on_c, 10, 64, 0
11, 1200, Note_on_c, 10, 52, 100
11, 1254, Note_on_c, 10, 52, 0
11, 1260, Note_on_c, 10, 64, 100
11, 1314, Note_on_c, 10, 64, 0
11, 1320, Note_on_c, 10, 62, 100
11, 1374, Note_on_c, 10, 62, 0
11, 1380, Note_on_c, 10, 60, 100
11, 1434, Note_on_c, 10, 60, 0
11, 1440, Note_on_c, 10, 62, 100
11, 1494, Note_on_c, 10, 62, 0
11, 1500, Note_on_c, 10, 59, 100
11, 1554, Note_on_c, 10, 59, 0
11, 1560, Note_on_c, 10, 60, 100
11, 1614, Note_on_c, 10, 60, 0
11, 1620, Note_on_c, 10, 57, 100
11, 1674, Note_on_c, 10, 57, 0
11, 1680, Note_on_c, 10, 52, 100
11, 1734, Note_on_c, 10, 52, 0
11, 1740, Note_on_c, 10, 62, 100
11, 1794, Note_on_c, 10, 62, 0
11, 1800, Note_on_c, 10, 60, 100
11, 1854, Note_on_c, 10, 60, 0
11, 1860, Note_on_c, 10, 59, 100
11, 1914, Note_on_c, 10, 59, 0
11, 1920, Note_on_c, 10, 60, 100
11, 1974, Note_on_c, 10, 60, 0
11, 1980, Note_on_c, 10, 57, 100
11, 2034, Note_on_c, 10, 57, 0
11, 2040, Note_on_c, 10, 59, 100
11, 2094, Note_on_c, 10, 59, 0
11, 2100, Note_on_c, 10, 56, 100
11, 2154, Note_on_c, 10, 56, 0
11, 2160, Note_on_c, 10, 52, 100
11, 2214, Note_on_c, 10, 52, 0
11, 2220, Note_on_c, 10, 60, 100
11, 2274, Note_on_c, 10, 60, 0
11, 2280, Note_on_c, 10, 59, 100
11, 2334, Note_on_c, 10, 59, 0
11, 2340, Note_on_c, 10, 57, 100
11, 2394, Note_on_c, 10, 57, 0
11, 2400, Note_on_c, 10, 59, 100
11, 2454, Note_on_c, 10, 59, 0
11, 2460, Note_on_c, 10, 56, 100
11, 2514, Note_on_c, 10, 56, 0
11, 2520, Note_on_c, 10, 57, 100
11, 2574, Note_on_c, 10, 57, 0
11, 2580, Note_on_c, 10, 50, 100
11, 2634, Note_on_c, 10, 50, 0
11, 2640, Note_on_c, 10, 52, 100
11, 2748, Note_on_c, 10, 52, 0
11, 2760, Note_on_c, 10, 40, 100
11, 2868, Note_on_c, 10, 40, 0
11, 2880, Note_on_c, 10, 45, 100
11, 3096, Note_on_c, 10, 45, 0
11, 7920, Note_on_c, 10, 48, 100
11, 8028, Note_on_c, 10, 48, 0
11, 8040, Note_on_c, 10, 50, 100
11, 8148, Note_on_c, 10, 50, 0
11, 8160, Note_on_c, 10, 52, 100
11, 8268, Note_on_c, 10, 52, 0
11, 8280, Note_on_c, 10, 50, 100
11, 8334, Note_on_c, 10, 50, 0
11, 8340, Note_on_c, 10, 48, 100
11, 8394, Note_on_c, 10, 48, 0
11, 8400, Note_on_c, 10, 55, 100
11, 8508, Note_on_c, 10, 55, 0
11, 8520, Note_on_c, 10, 55, 100
11, 8628, Note_on_c, 10, 55, 0
11, 8640, Note_on_c, 10, 55, 100
11, 8856, Note_on_c, 10, 55, 0
11, 8880, Note_on_c, 10, 43, 100
11, 8934, Note_on_c, 10, 43, 0
11, 8940, Note_on_c, 10, 55, 100
11, 8994, Note_on_c, 10, 55, 0
11, 9000, Note_on_c, 10, 53, 100
11, 9054, Note_on_c, 10, 53, 0
11, 9060, Note_on_c, 10, 52, 100
11, 9114, Note_on_c, 10, 52, 0
11, 9120, Note_on_c, 10, 53, 100
11, 9174, Note_on_c, 10, 53, 0
11, 9180, Note_on_c, 10, 50, 100
11, 9234, Note_on_c, 10, 50, 0
11, 9240, Note_on_c, 10, 52, 100
11, 9294, Note_on_c, 10, 52, 0
11, 9300, Note_on_c, 10, 48, 100
11, 9354, Note_on_c, 10, 48, 0
11, 9360, Note_on_c, 10, 43, 100
11, 9414, Note_on_c, 10, 43, 0
11, 9420, Note_on_c, 10, 53, 100
11, 9474, Note_on_c, 10, 53, 0
11, 9480, Note_on_c, 10, 52, 100
11, 9534, Note_on_c, 10, 52, 0
11, 9540, Note_on_c, 10, 50, 100
11, 9594, Note_on_c, 10, 50, 0
11, 9600, Note_on_c, 10, 52, 100
11, 9654, Note_on_c, 10, 52, 0
11, 9660, Note_on_c, 10, 48, 100
11, 9714, Note_on_c, 10, 48, 0
11, 9720, Note_on_c, 10, 50, 100
11, 9774, Note_on_c, 10, 50, 0
11, 9780, Note_on_c, 10, 47, 100
11, 9834, Note_on_c, 10, 47, 0
11, 9840, Note_on_c, 10, 43, 100
11, 9894, Note_on_c, 10, 43, 0
11, 9900, Note_on_c, 10, 52, 100
11, 9954, Note_on_c, 10, 52, 0
11, 9960, Note_on_c, 10, 50, 100
11, 10014, Note_on_c, 10, 50, 0
11, 10020, Note_on_c, 10, 48, 100
11, 10074, Note_on_c, 10, 48, 0
11, 10080, Note_on_c, 10, 50, 100
11, 10134, Note_on_c, 10, 50, 0
11, 10140, Note_on_c, 10, 47, 100
11, 10194, Note_on_c, 10, 47, 0
11, 10200, Note_on_c, 10, 48, 100
11, 10254, Note_on_c, 10, 48, 0
11, 10260, Note_on_c, 10, 53, 100
11, 10314, Note_on_c, 10, 53, 0
11, 10320, Note_on_c, 10, 55, 100
11, 10428, Note_on_c, 10, 55, 0
11, 10440, Note_on_c, 10, 43, 100
11, 10548, Note_on_c, 10, 43, 0
11, 10560, Note_on_c, 10, 36, 100
11, 10776, Note_on_c, 10, 36, 0
11, 13680, Note_on_c, 10, 57, 100
11, 13788, Note_on_c, 10, 57, 0
11, 13800, Note_on_c, 10, 59, 100
11, 13908, Note_on_c, 10, 59, 0
11, 13920, Note_on_c, 10, 60, 100
11, 14028, Note_on_c, 10, 60, 0
11, 14040, Note_on_c, 10, 59, 100
11, 14094, Note_on_c, 10, 59, 0
11, 14100, Note_on_c, 10, 57, 100
11, 14154, Note_on_c, 10, 57, 0
11, 14160, Note_on_c, 10, 64, 100
11, 14268, Note_on_c, 10, 64, 0
11, 14280, Note_on_c, 10, 64, 100
11, 14388, Note_on_c, 10, 64, 0
11, 14400, Note_on_c, 10, 64, 100
11, 14616, Note_on_c, 10, 64, 0
11, 14640, Note_on_c, 10, 52, 100
11, 14694, Note_on_c, 10, 52, 0
11, 14700, Note_on_c, 10, 64, 100
11, 14754, Note_on_c, 10, 64, 0
11, 14760, Note_on_c, 10, 62, 100
11, 14814, Note_on_c, 10, 62, 0
11, 14820, Note_on_c, 10, 60, 100
11, 14874, Note_on_c, 10, 60, 0
11, 14880, Note_on_c, 10, 62, 100
11, 14934, Note_on_c, 10, 62, 0
11, 14940, Note_on_c, 10, 59, 100
11, 14994, Note_on_c, 10, 59, 0
11, 15000, Note_on_c, 10, 60, 100
11, 15054, Note_on_c, 10, 60, 0
11, 15060, Note_on_c, 10, 57, 100
11, 15114, Note_on_c, 10, 57, 0
11, 15120, Note_on_c, 10, 52, 100
11, 15174, Note_on_c, 10, 52, 0
11, 15180, Note_on_c, 10, 62, 100
11, 15234, Note_on_c, 10, 62, 0
11, 15240, Note_on_c, 10, 60, 100
11, 15294, Note_on_c, 10, 60, 0
11, 15300, Note_on_c, 10, 59, 100
11, 15354, Note_on_c, 10, 59, 0
11, 15360, Note_on_c, 10, 60, 100
11, 15414, Note_on_c, 10, 60, 0
11, 15420, Note_on_c, 10, 57, 100
11, 15474, Note_on_c, 10, 57, 0
11, 15480, Note_on_c, 10, 59, 100
11, 15534, Note_on_c, 10, 59, 0
11, 15540, Note_on_c, 10, 56, 100
11, 15594, Note_on_c, 10, 56, 0
11, 15600, Note_on_c, 10, 52, 100
11, 15654, Note_on_c, 10, 52, 0
11, 15660, Note_on_c, 10, 60, 100
11, 15714, Note_on_c, 10, 60, 0
11, 15720, Note_on_c, 10, 59, 100
11, 15774, Note_on_c, 10, 59, 0
11, 15780, Note_on_c, 10, 57, 100
11, 15834, Note_on_c, 10, 57, 0
11, 15840, Note_on_c, 10, 59, 100
11, 15894, Note_on_c, 10, 59, 0
11, 15900, Note_on_c, 10, 56, 100
11, 15954, Note_on_c, 10, 56, 0
11, 15960, Note_on_c, 10, 57, 100
11, 16014, Note_on_c, 10, 57, 0
11, 16020, Note_on_c, 10, 50, 100
11, 16074, Note_on_c, 10, 50, 0
11, 16080, Note_on_c, 10, 52, 100
11, 16188, Note_on_c, 10, 52, 0
11, 16200, Note_on_c, 10, 40, 100
11, 16308, Note_on_c, 10, 40, 0
11, 16320, Note_on_c, 10, 45, 100
11, 16536, Note_on_c, 10, 45, 0
11, 17040, Note_on_c, 10, 47, 100
11, 17148, Note_on_c, 10, 47, 0
11, 17160, Note_on_c, 10, 47, 100
11, 17268, Note_on_c, 10, 47, 0
11, 17280, Note_on_c, 10, 47, 100
11, 17496, Note_on_c, 10, 47, 0
11, 18000, Note_on_c, 10, 45, 100
11, 18108, Note_on_c, 10, 45, 0
11, 18120, Note_on_c, 10, 45, 100
11, 18228, Note_on_c, 10, 45, 0
11, 18240, Note_on_c, 10, 45, 100
11, 18456, Note_on_c, 10, 45, 0
11, 18960, Note_on_c, 10, 43, 100
11, 19068, Note_on_c, 10, 43, 0
11, 19080, Note_on_c, 10, 43, 100
11, 19188, Note_on_c, 10, 43, 0
11, 19200, Note_on_c, 10, 43, 100
11, 19416, Note_on_c, 10, 43, 0
11, 19440, Note_on_c, 10, 52, 100
11, 19548, Note_on_c, 10, 52, 0
11, 19560, Note_on_c, 10, 54, 100
11, 19668, Note_on_c, 10, 54, 0
11, 19680, Note_on_c, 10, 55, 100
11, 19788, Note_on_c, 10, 55, 0
11, 19800, Note_on_c, 10, 54, 100
11, 19854, Note_on_c, 10, 54, 0
11, 19860, Note_on_c, 10, 52, 100
11, 19914, Note_on_c, 10, 52, 0
11, 19920, Note_on_c, 10, 59, 100
11, 20028, Note_on_c, 10, 59, 0
11, 20040, Note_on_c, 10, 59, 100
11, 20148, Note_on_c, 10, 59, 0
11, 20160, Note_on_c, 10, 59, 100
11, 20376, Note_on_c, 10, 59, 0
11, 20400, Note_on_c, 10, 47, 100
11, 20454, Note_on_c, 10, 47, 0
11, 20460, Note_on_c, 10, 59, 100
11, 20514, Note_on_c, 10, 59, 0
11, 20520, Note_on_c, 10, 57, 100
11, 20574, Note_on_c, 10, 57, 0
11, 20580, Note_on_c, 10, 55, 100
11, 20634, Note_on_c, 10, 55, 0
11, 20640, Note_on_c, 10, 57, 100
11, 20694, Note_on_c, 10, 57, 0
11, 20700, Note_on_c, 10, 54, 100
11, 20754, Note_on_c, 10, 54, 0
11, 20760, Note_on_c, 10, 55, 100
11, 20814, Note_on_c, 10, 55, 0
11, 20820, Note_on_c, 10, 52, 100
11, 20874, Note_on_c, 10, 52, 0
11, 20880, Note_on_c, 10, 47, 100
11, 20934, Note_on_c, 10, 47, 0
11, 20940, Note_on_c, 10, 57, 100
11, 20994, Note_on_c, 10, 57, 0
11, 21000, Note_on_c, 10, 55, 100
11, 21054, Note_on_c, 10, 55, 0
11, 21060, Note_on_c, 10, 54, 100
11, 21114, Note_on_c, 10, 54, 0
11, 21120, Note_on_c, 10, 55, 100
11, 21174, Note_on_c, 10, 55, 0
11, 21180, Note_on_c, 10, 52, 100
11, 21234, Note_on_c, 10, 52, 0
11, 21240, Note_on_c, 10, 54, 100
11, 21294, Note_on_c, 10, 54, 0
11, 21300, Note_on_c, 10, 51, 100
11, 21354, Note_on_c, 10, 51, 0
11, 21360, Note_on_c, 10, 47, 100
11, 21414, Note_on_c, 10, 47, 0
11, 21420, Note_on_c, 10, 55, 100
11, 21474, Note_on_c, 10, 55, 0
11, 21480, Note_on_c, 10, 54, 100
11, 21534, Note_on_c, 10, 54, 0
11, 21540, Note_on_c, 10, 52, 100
11, 21594, Note_on_c, 10, 52, 0
11, 21600, Note_on_c, 10, 54, 100
11, 21654, Note_on_c, 10, 54, 0
11, 21660, Note_on_c, 10, 51, 100
11, 21714, Note_on_c, 10, 51, 0
11, 21720, Note_on_c, 10, 52, 100
11, 21774, Note_on_c, 10, 52, 0
11, 21780, Note_on_c, 10, 57, 100
11, 21834, Note_on_c, 10, 57, 0
11, 21840, Note_on_c, 10, 59, 100
11, 21948, Note_on_c, 10, 59, 0
11, 21960, Note_on_c, 10, 47, 100
11, 22068, Note_on_c, 10, 47, 0
11, 22080, Note_on_c, 10, 40, 100
11, 22296, Note_on_c, 10, 40, 0
11, 22320, Note_on_c, 10, 52, 100
11, 22428, Note_on_c, 10, 52, 0
11, 22440, Note_on_c, 10, 54, 100
11, 22548, Note_on_c, 10, 54, 0
11, 22560, Note_on_c, 10, 55, 100
11, 22668, Note_on_c, 10, 55, 0
11, 22680, Note_on_c, 10, 54, 100
11, 22734, Note_on_c, 10, 54, 0
11, 22740, Note_on_c, 10, 52, 100
11, 22794, Note_on_c, 10, 52, 0
11, 22800, Note_on_c, 10, 59, 100
11, 22908, Note_on_c, 10, 59, 0
11, 22920, Note_on_c, 10, 59, 100
11, 23028, Note_on_c, 10, 59, 0
11, 23040, Note_on_c, 10, 59, 100
11, 23256, Note_on_c, 10, 59, 0
11, 23280, Note_on_c, 10, 47, 100
11, 23334, Note_on_c, 10, 47, 0
11, 23340, Note_on_c, 10, 59, 100
11, 23394, Note_on_c, 10, 59, 0
11, 23400, Note_on_c, 10, 57, 100
11, 23454, Note_on_c, 10, 57, 0
11, 23460, Note_on_c, 10, 55, 100
11, 23514, Note_on_c, 10, 55, 0
11, 23520, Note_on_c, 10, 57, 100
11, 23574, Note_on_c, 10, 57, 0
11, 23580, Note_on_c, 10, 54, 100
11, 23634, Note_on_c, 10, 54, 0
11, 23640, Note_on_c, 10, 55, 100
11, 23694, Note_on_c, 10, 55, 0
11, 23700, Note_on_c, 10, 52, 100
11, 23754, Note_on_c, 10, 52, 0
11, 23760, Note_on_c, 10, 47, 100
11, 23814, Note_on_c, 10, 47, 0
11, 23820, Note_on_c, 10, 57, 100
11, 23874, Note_on_c, 10, 57, 0
11, 23880, Note_on_c, 10, 55, 100
11, 23934, Note_on_c, 10, 55, 0
11, 23940, Note_on_c, 10, 54, 100
11, 23994, Note_on_c, 10, 54, 0
11, 24000, Note_on_c, 10, 55, 100
11, 24054, Note_on_c, 10, 55, 0
11, 24060, Note_on_c, 10, 52, 100
11, 24114, Note_on_c, 10, 52, 0
11, 24120, Note_on_c, 10, 54, 100
11, 24174, Note_on_c, 10, 54, 0
11, 24180, Note_on_c, 10, 51, 100
11, 24234, Note_on_c, 10, 51, 0
11, 24240, Note_on_c, 10, 47, 100
11, 24294, Note_on_c, 10, 47, 0
11, 24300, Note_on_c, 10, 55, 100
11, 24354, Note_on_c, 10, 55, 0
11, 24360, Note_on_c, 10, 54, 100
11, 24414, Note_on_c, 10, 54, 0
11, 24420, Note_on_c, 10, 52, 100
11, 24474, Note_on_c, 10, 52, 0
11, 24480, Note_on_c, 10, 54, 100
11, 24534, Note_on_c, 10, 54, 0
11, 24540, Note_on_c, 10, 51, 100
11, 24594, Note_on_c, 10, 51, 0
11, 24600, Note_on_c, 10, 52, 100
11, 24654, Note_on_c, 10, 52, 0
11, 24660, Note_on_c, 10, 57, 100
11, 24714, Note_on_c, 10, 57, 0
11, 24720, Note_on_c, 10, 59, 100
11, 24828, Note_on_c, 10, 59, 0
11, 24840, Note_on_c, 10, 47, 100
11, 24948, Note_on_c, 10, 47, 0
11, 24960, Note_on_c, 10, 40, 100
11, 25176, Note_on_c, 10, 40, 0
11, 25920, Note_on_c, 10, 49, 100
11, 26136, Note_on_c, 10, 49, 0
11, 26880, Note_on_c, 10, 42, 100
11, 27096, Note_on_c, 10, 42, 0
11, 27840, Note_on_c, 10, 51, 100
11, 28056, Note_on_c, 10, 51, 0
11, 28800, Note_on_c, 10, 44, 100
11, 29016, Note_on_c, 10, 44, 0
11, 29640, Note_on_c, 10, 50, 100
11, 29748, Note_on_c, 10, 50, 0
11, 29760, Note_on_c, 10, 55, 100
11, 29868, Note_on_c, 10, 55, 0
11, 29880, Note_on_c, 10, 43, 100
11, 29988, Note_on_c, 10, 43, 0
11, 30600, Note_on_c, 10, 48, 100
11, 30708, Note_on_c, 10, 48, 0
11, 30720, Note_on_c, 10, 53, 100
11, 30828, Note_on_c, 10, 53, 0
11, 30840, Note_on_c, 10, 41, 100
11, 30948, Note_on_c, 10, 41, 0
11, 31560, Note_on_c, 10, 50, 100
11, 31668, Note_on_c, 10, 50, 0
11, 31680, Note_on_c, 10, 52, 100
11, 31788, Note_on_c, 10, 52, 0
11, 31800, Note_on_c, 10, 40, 100
11, 31974, Note_on_c, 10, 40, 0
11, 31980, Note_on_c, 10, 52, 100
11, 32034, Note_on_c, 10, 52, 0
11, 32040, Note_on_c, 10, 50, 100
11, 32094, Note_on_c, 10, 50, 0
11, 32100, Note_on_c, 10, 48, 100
11, 32154, Note_on_c, 10, 48, 0
11, 32160, Note_on_c, 10, 50, 100
11, 32214, Note_on_c, 10, 50, 0
11, 32220, Note_on_c, 10, 47, 100
11, 32274, Note_on_c, 10, 47, 0
11, 32280, Note_on_c, 10, 48, 100
11, 32334, Note_on_c, 10, 48, 0
11, 32340, Note_on_c, 10, 45, 100
11, 32394, Note_on_c, 10, 45, 0
11, 32400, Note_on_c, 10, 40, 100
11, 32454, Note_on_c, 10, 40, 0
11, 32460, Note_on_c, 10, 50, 100
11, 32514, Note_on_c, 10, 50, 0
11, 32520, Note_on_c, 10, 48, 100
11, 32574, Note_on_c, 10, 48, 0
11, 32580, Note_on_c, 10, 47, 100
11, 32634, Note_on_c, 10, 47, 0
11, 32640, Note_on_c, 10, 48, 100
11, 32694, Note_on_c, 10, 48, 0
11, 32700, Note_on_c, 10, 45, 100
11, 32754, Note_on_c, 10, 45, 0
11, 32760, Note_on_c, 10, 47, 100
11, 32814, Note_on_c, 10, 47, 0
11, 32820, Note_on_c, 10, 44, 100
11, 32874, Note_on_c, 10, 44, 0
11, 32880, Note_on_c, 10, 40, 100
11, 32934, Note_on_c, 10, 40, 0
11, 32940, Note_on_c, 10, 48, 100
11, 32994, Note_on_c, 10, 48, 0
11, 33000, Note_on_c, 10, 47, 100
11, 33054, Note_on_c, 10, 47, 0
11, 33060, Note_on_c, 10, 45, 100
11, 33114, Note_on_c, 10, 45, 0
11, 33120, Note_on_c, 10, 47, 100
11, 33174, Note_on_c, 10, 47, 0
11, 33180, Note_on_c, 10, 44, 100
11, 33234, Note_on_c, 10, 44, 0
11, 33240, Note_on_c, 10, 45, 100
11, 33294, Note_on_c, 10, 45, 0
11, 33300, Note_on_c, 10, 50, 100
11, 33354, Note_on_c, 10, 50, 0
11, 33360, Note_on_c, 10, 52, 100
11, 33468, Note_on_c, 10, 52, 0
11, 33480, Note_on_c, 10, 40, 100
11, 33588, Note_on_c, 10, 40, 0
11, 33600, Note_on_c, 10, 42, 100
11, 33816, Note_on_c, 10, 42, 0
11, 34560, Note_on_c, 10, 39, 100
11, 34776, Note_on_c, 10, 39, 0
11, 35520, Note_on_c, 10, 44, 100
11, 35736, Note_on_c, 10, 44, 0
11, 36240, Note_on_c, 10, 48, 100
11, 36348, Note_on_c, 10, 48, 0
11, 36360, Note_on_c, 10, 48, 100
11, 36468, Note_on_c, 10, 48, 0
11, 36480, Note_on_c, 10, 48, 100
11, 36696, Note_on_c, 10, 48, 0
11, 37200, Note_on_c, 10, 47, 100
11, 37308, Note_on_c, 10, 47, 0
11, 37320, Note_on_c, 10, 47, 100
11, 37428, Note_on_c, 10, 47, 0
11, 37440, Note_on_c, 10, 47, 100
11, 37656, Note_on_c, 10, 47, 0
11, 38160, Note_on_c, 10, 40, 100
11, 38268, Note_on_c, 10, 40, 0
11, 38280, Note_on_c, 10, 40, 100
11, 38388, Note_on_c, 10, 40, 0
11, 38400, Note_on_c, 10, 40, 100
11, 38616, Note_on_c, 10, 40, 0
11, 38640, Note_on_c, 10, 45, 100
11, 38748, Note_on_c, 10, 45, 0
11, 38760, Note_on_c, 10, 47, 100
11, 38868, Note_on_c, 10, 47, 0
11, 38880, Note_on_c, 10, 48, 100
11, 38988, Note_on_c, 10, 48, 0
11, 39000, Note_on_c, 10, 47, 100
11, 39054, Note_on_c, 10, 47, 0
11, 39060, Note_on_c, 10, 45, 100
11, 39114, Note_on_c, 10, 45, 0
11, 39120, Note_on_c, 10, 52, 100
11, 39228, Note_on_c, 10, 52, 0
11, 39240, Note_on_c, 10, 52, 100
11, 39348, Note_on_c, 10, 52, 0
11, 39360, Note_on_c, 10, 52, 100
11, 39576, Note_on_c, 10, 52, 0
11, 39600, Note_on_c, 10, 40, 100
11, 39654, Note_on_c, 10, 40, 0
11, 39660, Note_on_c, 10, 52, 100
11, 39714, Note_on_c, 10, 52, 0
11, 39720, Note_on_c, 10, 50, 100
11, 39774, Note_on_c, 10, 50, 0
11, 39780, Note_on_c, 10, 48, 100
11, 39834, Note_on_c, 10, 48, 0
11, 39840, Note_on_c, 10, 50, 100
11, 39894, Note_on_c, 10, 50, 0
11, 39900, Note_on_c, 10, 47, 100
11, 39954, Note_on_c, 10, 47, 0
11, 39960, Note_on_c, 10, 48, 100
11, 40014, Note_on_c, 10, 48, 0
11, 40020, Note_on_c, 10, 45, 100
11, 40074, Note_on_c, 10, 45, 0
11, 40080, Note_on_c, 10, 40, 100
11, 40134, Note_on_c, 10, 40, 0
11, 40140, Note_on_c, 10, 50, 100
11, 40194, Note_on_c, 10, 50, 0
11, 40200, Note_on_c, 10, 48, 100
11, 40254, Note_on_c, 10, 48, 0
11, 40260, Note_on_c, 10, 47, 100
11, 40314, Note_on_c, 10, 47, 0
11, 40320, Note_on_c, 10, 48, 100
11, 40374, Note_on_c, 10, 48, 0
11, 40380, Note_on_c, 10, 45, 100
11, 40434, Note_on_c, 10, 45, 0
11, 40440, Note_on_c, 10, 47, 100
11, 40494, Note_on_c, 10, 47, 0
11, 40500, Note_on_c, 10, 44, 100
11, 40554, Note_on_c, 10, 44, 0
11, 40560, Note_on_c, 10, 40, 100
11, 40614, Note_on_c, 10, 40, 0
11, 40620, Note_on_c, 10, 48, 100
11, 40674, Note_on_c, 10, 48, 0
11, 40680, Note_on_c, 10, 47, 100
11, 40734, Note_on_c, 10, 47, 0
11, 40740, Note_on_c, 10, 45, 100
11, 40794, Note_on_c, 10, 45, 0
11, 40800, Note_on_c, 10, 47, 100
11, 40854, Note_on_c, 10, 47, 0
11, 40860, Note_on_c, 10, 44, 100
11, 40914, Note_on_c, 10, 44, 0
11, 40920, Note_on_c, 10, 45, 100
11, 40974, Note_on_c, 10, 45, 0
11, 40980, Note_on_c, 10, 38, 100
11, 41034, Note_on_c, 10, 38, 0
11, 41040, Note_on_c, 10, 40, 100
11, 41148, Note_on_c, 10, 40, 0
11, 41160, Note_on_c, 10, 40, 100
11, 41268, Note_on_c, 10, 40, 0
11, 41280, Note_on_c, 10, 45, 100
11, 41496, Note_on_c, 10, 45, 0
11, 41520, Note_on_c, 10, 57, 100
11, 41628, Note_on_c, 10, 57, 0
11, 41640, Note_on_c, 10, 59, 100
11, 41748, Note_on_c, 10, 59, 0
11, 41760, Note_on_c, 10, 60, 100
11, 41868, Note_on_c, 10, 60, 0
11, 41880, Note_on_c, 10, 59, 100
11, 41934, Note_on_c, 10, 59, 0
11, 41940, Note_on_c, 10, 57, 100
11, 41994, Note_on_c, 10, 57, 0
11, 42000, Note_on_c, 10, 64, 100
11, 42108, Note_on_c, 10, 64, 0
11, 42120, Note_on_c, 10, 64, 100
11, 42228, Note_on_c, 10, 64, 0
11, 42240, Note_on_c, 10, 64, 100
11, 42456, Note_on_c, 10, 64, 0
11, 42480, Note_on_c, 10, 52, 100
11, 42534, Note_on_c, 10, 52, 0
11, 42540, Note_on_c, 10, 64, 100
11, 42594, Note_on_c, 10, 64, 0
11, 42600, Note_on_c, 10, 62, 100
11, 42654, Note_on_c, 10, 62, 0
11, 42660, Note_on_c, 10, 60, 100
11, 42714, Note_on_c, 10, 60, 0
11, 42720, Note_on_c, 10, 62, 100
11, 42774, Note_on_c, 10, 62, 0
11, 42780, Note_on_c, 10, 59, 100
11, 42834, Note_on_c, 10, 59, 0
11, 42840, Note_on_c, 10, 60, 100
11, 42894, Note_on_c, 10, 60, 0
11, 42900, Note_on_c, 10, 57, 100
11, 42954, Note_on_c, 10, 57, 0
11, 42960, Note_on_c, 10, 52, 100
11, 43014, Note_on_c, 10, 52, 0
11, 43020, Note_on_c, 10, 62, 100
11, 43074, Note_on_c, 10, 62, 0
11, 43080, Note_on_c, 10, 60, 100
11, 43134, Note_on_c, 10, 60, 0
11, 43140, Note_on_c, 10, 59, 100
11, 43194, Note_on_c, 10, 59, 0
11, 43200, Note_on_c, 10, 60, 100
11, 43254, Note_on_c, 10, 60, 0
11, 43260, Note_on_c, 10, 57, 100
11, 43314, Note_on_c, 10, 57, 0
11, 43320, Note_on_c, 10, 59, 100
11, 43374, Note_on_c, 10, 59, 0
11, 43380, Note_on_c, 10, 56, 100
11, 43434, Note_on_c, 10, 56, 0
11, 43440, Note_on_c, 10, 52, 100
11, 43494, Note_on_c, 10, 52, 0
11, 43500, Note_on_c, 10, 60, 100
11, 43554, Note_on_c, 10, 60, 0
11, 43560, Note_on_c, 10, 59, 100
11, 43614, Note_on_c, 10, 59, 0
11, 43620, Note_on_c, 10, 57, 100
11, 43674, Note_on_c, 10, 57, 0
11, 43680, Note_on_c, 10, 59, 100
11, 43734, Note_on_c, 10, 59, 0
11, 43740, Note_on_c, 10, 56, 100
11, 43794, Note_on_c, 10, 56, 0
11, 43800, Note_on_c, 10, 57, 100
11, 43854, Note_on_c, 10, 57, 0
11, 43860, Note_on_c, 10, 50, 100
11, 43914, Note_on_c, 10, 50, 0
11, 43920, Note_on_c, 10, 52, 100
11, 44028, Note_on_c, 10, 52, 0
11, 44040, Note_on_c, 10, 40, 100
11, 44148, Note_on_c, 10, 40, 0
11, 44160, Note_on_c, 10, 45, 100
11, 44376, Note_on_c, 10, 45, 0
11, 44376, End_track
12, 0, Start_track
12, 0, Sequence_number, 0
12, 0, SMPTE_offset, 0, 0, 0, 0, 0
12, 0, MIDI_port, 0
12, 0, Control_c, 10, 0, 0
12, 0, Control_c, 10, 32, 0
12, 0, Control_c, 10, 7, 100
12, 0, Program_c, 10, 48
12, 0, Control_c, 10, 10, 104
12, 0, Note_on_c, 10, 33, 100
12, 216, Note_on_c, 10, 33, 0
12, 240, Note_on_c, 10, 45, 100
12, 348, Note_on_c, 10, 45, 0
12, 360, Note_on_c, 10, 47, 100
12, 468, Note_on_c, 10, 47, 0
12, 480, Note_on_c, 10, 48, 100
12, 588, Note_on_c, 10, 48, 0
12, 600, Note_on_c, 10, 47, 100
12, 654, Note_on_c, 10, 47, 0
12, 660, Note_on_c, 10, 45, 100
12, 714, Note_on_c, 10, 45, 0
12, 720, Note_on_c, 10, 52, 100
12, 828, Note_on_c, 10, 52, 0
12, 840, Note_on_c, 10, 52, 100
12, 948, Note_on_c, 10, 52, 0
12, 960, Note_on_c, 10, 52, 100
12, 1176, Note_on_c, 10, 52, 0
12, 1200, Note_on_c, 10, 40, 100
12, 1254, Note_on_c, 10, 40, 0
12, 1260, Note_on_c, 10, 52, 100
12, 1314, Note_on_c, 10, 52, 0
12, 1320, Note_on_c, 10, 50, 100
12, 1374, Note_on_c, 10, 50, 0
12, 1380, Note_on_c, 10, 48, 100
12, 1434, Note_on_c, 10, 48, 0
12, 1440, Note_on_c, 10, 50, 100
12, 1494, Note_on_c, 10, 50, 0
12, 1500, Note_on_c, 10, 47, 100
12, 1554, Note_on_c, 10, 47, 0
12, 1560, Note_on_c, 10, 48, 100
12, 1614, Note_on_c, 10, 48, 0
12, 1620, Note_on_c, 10, 45, 100
12, 1674, Note_on_c, 10, 45, 0
12, 1680, Note_on_c, 10, 40, 100
12, 1734, Note_on_c, 10, 40, 0
12, 1740, Note_on_c, 10, 50, 100
12, 1794, Note_on_c, 10, 50, 0
12, 1800, Note_on_c, 10, 48, 100
12, 1854, Note_on_c, 10, 48, 0
12, 1860, Note_on_c, 10, 47, 100
12, 1914, Note_on_c, 10, 47, 0
12, 1920, Note_on_c, 10, 48, 100
12, 1974, Note_on_c, 10, 48, 0
12, 1980, Note_on_c, 10, 45, 100
12, 2034, Note_on_c, 10, 45, 0
12, 2040, Note_on_c, 10, 47, 100
12, 2094, Note_on_c, 10, 47, 0
12, 2100, Note_on_c, 10, 44, 100
12, 2154, Note_on_c, 10, 44, 0
12, 2160, Note_on_c, 10, 40, 100
12, 2214, Note_on_c, 10, 40, 0
12, 2220, Note_on_c, 10, 48, 100
12, 2274, Note_on_c, 10, 48, 0
12, 2280, Note_on_c, 10, 47, 100
12, 2334, Note_on_c, 10, 47, 0
12, 2340, Note_on_c, 10, 45, 100
12, 2394, Note_on_c, 10, 45, 0
12, 2400, Note_on_c, 10, 47, 100
12, 2454, Note_on_c, 10, 47, 0
12, 2460, Note_on_c, 10, 44, 100
12, 2514, Note_on_c, 10, 44, 0
12, 2520, Note_on_c, 10, 45, 100
12, 2574, Note_on_c, 10, 45, 0
12, 2580, Note_on_c, 10, 38, 100
12, 2634, Note_on_c, 10, 38, 0
12, 2640, Note_on_c, 10, 40, 100
12, 2748, Note_on_c, 10, 40, 0
12, 2760, Note_on_c, 10, 28, 100
12, 2868, Note_on_c, 10, 28, 0
12, 2880, Note_on_c, 10, 33, 100
12, 3096, Note_on_c, 10, 33, 0
12, 7920, Note_on_c, 10, 36, 100
12, 8028, Note_on_c, 10, 36, 0
12, 8040, Note_on_c, 10, 38, 100
12, 8148, Note_on_c, 10, 38, 0
12, 8160, Note_on_c, 10, 40, 100
12, 8268, Note_on_c, 10, 40, 0
12, 8280, Note_on_c, 10, 38, 100
12, 8334, Note_on_c, 10, 38, 0
12, 8340, Note_on_c, 10, 36, 100
12, 8394, Note_on_c, 10, 36, 0
12, 8400, Note_on_c, 10, 43, 100
12, 8508, Note_on_c, 10, 43, 0
12, 8520, Note_on_c, 10, 43, 100
12, 8628, Note_on_c, 10, 43, 0
12, 8640, Note_on_c, 10, 43, 100
12, 8856, Note_on_c, 10, 43, 0
12, 8880, Note_on_c, 10, 31, 100
12, 8934, Note_on_c, 10, 31, 0
12, 8940, Note_on_c, 10, 43, 100
12, 8994, Note_on_c, 10, 43, 0
12, 9000, Note_on_c, 10, 41, 100
12, 9054, Note_on_c, 10, 41, 0
12, 9060, Note_on_c, 10, 40, 100
12, 9114, Note_on_c, 10, 40, 0
12, 9120, Note_on_c, 10, 41, 100
12, 9174, Note_on_c, 10, 41, 0
12, 9180, Note_on_c, 10, 38, 100
12, 9234, Note_on_c, 10, 38, 0
12, 9240, Note_on_c, 10, 40, 100
12, 9294, Note_on_c, 10, 40, 0
12, 9300, Note_on_c, 10, 36, 100
12, 9354, Note_on_c, 10, 36, 0
12, 9360, Note_on_c, 10, 31, 100
12, 9414, Note_on_c, 10, 31, 0
12, 9420, Note_on_c, 10, 41, 100
12, 9474, Note_on_c, 10, 41, 0
12, 9480, Note_on_c, 10, 40, 100
12, 9534, Note_on_c, 10, 40, 0
12, 9540, Note_on_c, 10, 38, 100
12, 9594, Note_on_c, 10, 38, 0
12, 9600, Note_on_c, 10, 40, 100
12, 9654, Note_on_c, 10, 40, 0
12, 9660, Note_on_c, 10, 36, 100
12, 9714, Note_on_c, 10, 36, 0
12, 9720, Note_on_c, 10, 38, 100
12, 9774, Note_on_c, 10, 38, 0
12, 9780, Note_on_c, 10, 35, 100
12, 9834, Note_on_c, 10, 35, 0
12, 9840, Note_on_c, 10, 31, 100
12, 9894, Note_on_c, 10, 31, 0
12, 9900, Note_on_c, 10, 40, 100
12, 9954, Note_on_c, 10, 40, 0
12, 9960, Note_on_c, 10, 38, 100
12, 10014, Note_on_c, 10, 38, 0
12, 10020, Note_on_c, 10, 36, 100
12, 10074, Note_on_c, 10, 36, 0
12, 10080, Note_on_c, 10, 38, 100
12, 10134, Note_on_c, 10, 38, 0
12, 10140, Note_on_c, 10, 35, 100
12, 10194, Note_on_c, 10, 35, 0
12, 10200, Note_on_c, 10, 36, 100
12, 10254, Note_on_c, 10, 36, 0
12, 10260, Note_on_c, 10, 41, 100
12, 10314, Note_on_c, 10, 41, 0
12, 10320, Note_on_c, 10, 43, 100
12, 10428, Note_on_c, 10, 43, 0
12, 10440, Note_on_c, 10, 31, 100
12, 10548, Note_on_c, 10, 31, 0
12, 10560, Note_on_c, 10, 24, 100
12, 10776, Note_on_c, 10, 24, 0
12, 13680, Note_on_c, 10, 45, 100
12, 13788, Note_on_c, 10, 45, 0
12, 13800, Note_on_c, 10, 47, 100
12, 13908, Note_on_c, 10, 47, 0
12, 13920, Note_on_c, 10, 48, 100
12, 14028, Note_on_c, 10, 48, 0
12, 14040, Note_on_c, 10, 47, 100
12, 14094, Note_on_c, 10, 47, 0
12, 14100, Note_on_c, 10, 45, 100
12, 14154, Note_on_c, 10, 45, 0
12, 14160, Note_on_c, 10, 52, 100
12, 14268, Note_on_c, 10, 52, 0
12, 14280, Note_on_c, 10, 52, 100
12, 14388, Note_on_c, 10, 52, 0
12, 14400, Note_on_c, 10, 52, 100
12, 14616, Note_on_c, 10, 52, 0
12, 14640, Note_on_c, 10, 40, 100
12, 14694, Note_on_c, 10, 40, 0
12, 14700, Note_on_c, 10, 52, 100
12, 14754, Note_on_c, 10, 52, 0
12, 14760, Note_on_c, 10, 50, 100
12, 14814, Note_on_c, 10, 50, 0
12, 14820, Note_on_c, 10, 48, 100
12, 14874, Note_on_c, 10, 48, 0
12, 14880, Note_on_c, 10, 50, 100
12, 14934, Note_on_c, 10, 50, 0
12, 14940, Note_on_c, 10, 47, 100
12, 14994, Note_on_c, 10, 47, 0
12, 15000, Note_on_c, 10, 48, 100
12, 15054, Note_on_c, 10, 48, 0
12, 15060, Note_on_c, 10, 45, 100
12, 15114, Note_on_c, 10, 45, 0
12, 15120, Note_on_c, 10, 40, 100
12, 15174, Note_on_c, 10, 40, 0
12, 15180, Note_on_c, 10, 50, 100
12, 15234, Note_on_c, 10, 50, 0
12, 15240, Note_on_c, 10, 48, 100
12, 15294, Note_on_c, 10, 48, 0
12, 15300, Note_on_c, 10, 47, 100
12, 15354, Note_on_c, 10, 47, 0
12, 15360, Note_on_c, 10, 48, 100
12, 15414, Note_on_c, 10, 48, 0
12, 15420, Note_on_c, 10, 45, 100
12, 15474, Note_on_c, 10, 45, 0
12, 15480, Note_on_c, 10, 47, 100
12, 15534, Note_on_c, 10, 47, 0
12, 15540, Note_on_c, 10, 44, 100
12, 15594, Note_on_c, 10, 44, 0
12, 15600, Note_on_c, 10, 40, 100
12, 15654, Note_on_c, 10, 40, 0
12, 15660, Note_on_c, 10, 48, 100
12, 15714, Note_on_c, 10, 48, 0
12, 15720, Note_on_c, 10, 47, 100
12, 15774, Note_on_c, 10, 47, 0
12, 15780, Note_on_c, 10, 45, 100
12, 15834, Note_on_c, 10, 45, 0
12, 15840, Note_on_c, 10, 47, 100
12, 15894, Note_on_c, 10, 47, 0
12, 15900, Note_on_c, 10, 44, 100
12, 15954, Note_on_c, 10, 44, 0
12, 15960, Note_on_c, 10, 45, 100
12, 16014, Note_on_c, 10, 45, 0
12, 16020, Note_on_c, 10, 38, 100
12, 16074, Note_on_c, 10, 38, 0
12, 16080, Note_on_c, 10, 40, 100
12, 16188, Note_on_c, 10, 40, 0
12, 16200, Note_on_c, 10, 28, 100
12, 16308, Note_on_c, 10, 28, 0
12, 16320, Note_on_c, 10, 33, 100
12, 16536, Note_on_c, 10, 33, 0
12, 17040, Note_on_c, 10, 35, 100
12, 17148, Note_on_c, 10, 35, 0
12, 17160, Note_on_c, 10, 35, 100
12, 17268, Note_on_c, 10, 35, 0
12, 17280, Note_on_c, 10, 35, 100
12, 17496, Note_on_c, 10, 35, 0
12, 18000, Note_on_c, 10, 33, 100
12, 18108, Note_on_c, 10, 33, 0
12, 18120, Note_on_c, 10, 33, 100
12, 18228, Note_on_c, 10, 33, 0
12, 18240, Note_on_c, 10, 33, 100
12, 18456, Note_on_c, 10, 33, 0
12, 18960, Note_on_c, 10, 31, 100
12, 19068, Note_on_c, 10, 31, 0
12, 19080, Note_on_c, 10, 31, 100
12, 19188, Note_on_c, 10, 31, 0
12, 19200, Note_on_c, 10, 31, 100
12, 19416, Note_on_c, 10, 31, 0
12, 19440, Note_on_c, 10, 40, 100
12, 19548, Note_on_c, 10, 40, 0
12, 19560, Note_on_c, 10, 42, 100
12, 19668, Note_on_c, 10, 42, 0
12, 19680, Note_on_c, 10, 43, 100
12, 19788, Note_on_c, 10, 43, 0
12, 19800, Note_on_c, 10, 42, 100
12, 19854, Note_on_c, 10, 42, 0
12, 19860, Note_on_c, 10, 40, 100
12, 19914, Note_on_c, 10, 40, 0
12, 19920, Note_on_c, 10, 47, 100
12, 20028, Note_on_c, 10, 47, 0
12, 20040, Note_on_c, 10, 47, 100
12, 20148, Note_on_c, 10, 47, 0
12, 20160, Note_on_c, 10, 47, 100
12, 20376, Note_on_c, 10, 47, 0
12, 20400, Note_on_c, 10, 35, 100
12, 20454, Note_on_c, 10, 35, 0
12, 20460, Note_on_c, 10, 47, 100
12, 20514, Note_on_c, 10, 47, 0
12, 20520, Note_on_c, 10, 45, 100
12, 20574, Note_on_c, 10, 45, 0
12, 20580, Note_on_c, 10, 43, 100
12, 20634, Note_on_c, 10, 43, 0
12, 20640, Note_on_c, 10, 45, 100
12, 20694, Note_on_c, 10, 45, 0
12, 20700, Note_on_c, 10, 42, 100
12, 20754, Note_on_c, 10, 42, 0
12, 20760, Note_on_c, 10, 43, 100
12, 20814, Note_on_c, 10, 43, 0
12, 20820, Note_on_c, 10, 40, 100
12, 20874, Note_on_c, 10, 40, 0
12, 20880, Note_on_c, 10, 35, 100
12, 20934, Note_on_c, 10, 35, 0
12, 20940, Note_on_c, 10, 45, 100
12, 20994, Note_on_c, 10, 45, 0
12, 21000, Note_on_c, 10, 43, 100
12, 21054, Note_on_c, 10, 43, 0
12, 21060, Note_on_c, 10, 42, 100
12, 21114, Note_on_c, 10, 42, 0
12, 21120, Note_on_c, 10, 43, 100
12, 21174, Note_on_c, 10, 43, 0
12, 21180, Note_on_c, 10, 40, 100
12, 21234, Note_on_c, 10, 40, 0
12, 21240, Note_on_c, 10, 42, 100
12, 21294, Note_on_c, 10, 42, 0
12, 21300, Note_on_c, 10, 39, 100
12, 21354, Note_on_c, 10, 39, 0
12, 21360, Note_on_c, 10, 35, 100
12, 21414, Note_on_c, 10, 35, 0
12, 21420, Note_on_c, 10, 43, 100
12, 21474, Note_on_c, 10, 43, 0
12, 21480, Note_on_c, 10, 42, 100
12, 21534, Note_on_c, 10, 42, 0
12, 21540, Note_on_c, 10, 40, 100
12, 21594, Note_on_c, 10, 40, 0
12, 21600, Note_on_c, 10, 42, 100
12, 21654, Note_on_c, 10, 42, 0
12, 21660, Note_on_c, 10, 39, 100
12, 21714, Note_on_c, 10, 39, 0
12, 21720, Note_on_c, 10, 40, 100
12, 21774, Note_on_c, 10, 40, 0
12, 21780, Note_on_c, 10, 45, 100
12, 21834, Note_on_c, 10, 45, 0
12, 21840, Note_on_c, 10, 47, 100
12, 21948, Note_on_c, 10, 47, 0
12, 21960, Note_on_c, 10, 35, 100
12, 22068, Note_on_c, 10, 35, 0
12, 22080, Note_on_c, 10, 28, 100
12, 22296, Note_on_c, 10, 28, 0
12, 22320, Note_on_c, 10, 40, 100
12, 22428, Note_on_c, 10, 40, 0
12, 22440, Note_on_c, 10, 42, 100
12, 22548, Note_on_c, 10, 42, 0
12, 22560, Note_on_c, 10, 43, 100
12, 22668, Note_on_c, 10, 43, 0
12, 22680, Note_on_c, 10, 42, 100
12, 22734, Note_on_c, 10, 42, 0
12, 22740, Note_on_c, 10, 40, 100
12, 22794, Note_on_c, 10, 40, 0
12, 22800, Note_on_c, 10, 47, 100
12, 22908, Note_on_c, 10, 47, 0
12, 22920, Note_on_c, 10, 47, 100
12, 23028, Note_on_c, 10, 47, 0
12, 23040, Note_on_c, 10, 47, 100
12, 23256, Note_on_c, 10, 47, 0
12, 23280, Note_on_c, 10, 35, 100
12, 23334, Note_on_c, 10, 35, 0
12, 23340, Note_on_c, 10, 47, 100
12, 23394, Note_on_c, 10, 47, 0
12, 23400, Note_on_c, 10, 45, 100
12, 23454, Note_on_c, 10, 45, 0
12, 23460, Note_on_c, 10, 43, 100
12, 23514, Note_on_c, 10, 43, 0
12, 23520, Note_on_c, 10, 45, 100
12, 23574, Note_on_c, 10, 45, 0
12, 23580, Note_on_c, 10, 42, 100
12, 23634, Note_on_c, 10, 42, 0
12, 23640, Note_on_c, 10, 43, 100
12, 23694, Note_on_c, 10, 43, 0
12, 23700, Note_on_c, 10, 40, 100
12, 23754, Note_on_c, 10, 40, 0
12, 23760, Note_on_c, 10, 35, 100
12, 23814, Note_on_c, 10, 35, 0
12, 23820, Note_on_c, 10, 45, 100
12, 23874, Note_on_c, 10, 45, 0
12, 23880, Note_on_c, 10, 43, 100
12, 23934, Note_on_c, 10, 43, 0
12, 23940, Note_on_c, 10, 42, 100
12, 23994, Note_on_c, 10, 42, 0
12, 24000, Note_on_c, 10, 43, 100
12, 24054, Note_on_c, 10, 43, 0
12, 24060, Note_on_c, 10, 40, 100
12, 24114, Note_on_c, 10, 40, 0
12, 24120, Note_on_c, 10, 42, 100
12, 24174, Note_on_c, 10, 42, 0
12, 24180, Note_on_c, 10, 39, 100
12, 24234, Note_on_c, 10, 39, 0
12, 24240, Note_on_c, 10, 35, 100
12, 24294, Note_on_c, 10, 35, 0
12, 24300, Note_on_c, 10, 43, 100
12, 24354, Note_on_c, 10, 43, 0
12, 24360, Note_on_c, 10, 42, 100
12, 24414, Note_on_c, 10, 42, 0
12, 24420, Note_on_c, 10, 40, 100
12, 24474, Note_on_c, 10, 40, 0
12, 24480, Note_on_c, 10, 42, 100
12, 24534, Note_on_c, 10, 42, 0
12, 24540, Note_on_c, 10, 39, 100
12, 24594, Note_on_c, 10, 39, 0
12, 24600, Note_on_c, 10, 40, 100
12, 24654, Note_on_c, 10, 40, 0
12, 24660, Note_on_c, 10, 45, 100
12, 24714, Note_on_c, 10, 45, 0
12, 24720, Note_on_c, 10, 47, 100
12, 24828, Note_on_c, 10, 47, 0
12, 24840, Note_on_c, 10, 35, 100
12, 24948, Note_on_c, 10, 35, 0
12, 24960, Note_on_c, 10, 28, 100
12, 25176, Note_on_c, 10, 28, 0
12, 25920, Note_on_c, 10, 37, 100
12, 26136, Note_on_c, 10, 37, 0
12, 26880, Note_on_c, 10, 30, 100
12, 27096, Note_on_c, 10, 30, 0
12, 27840, Note_on_c, 10, 39, 100
12, 28056, Note_on_c, 10, 39, 0
12, 28800, Note_on_c, 10, 32, 100
12, 29016, Note_on_c, 10, 32, 0
12, 29640, Note_on_c, 10, 38, 100
12, 29748, Note_on_c, 10, 38, 0
12, 29760, Note_on_c, 10, 43, 100
12, 29868, Note_on_c, 10, 43, 0
12, 29880, Note_on_c, 10, 31, 100
12, 29988, Note_on_c, 10, 31, 0
12, 30600, Note_on_c, 10, 36, 100
12, 30708, Note_on_c, 10, 36, 0
12, 30720, Note_on_c, 10, 41, 100
12, 30828, Note_on_c, 10, 41, 0
12, 30840, Note_on_c, 10, 29, 100
12, 30948, Note_on_c, 10, 29, 0
12, 31560, Note_on_c, 10, 38, 100
12, 31668, Note_on_c, 10, 38, 0
12, 31680, Note_on_c, 10, 40, 100
12, 31788, Note_on_c, 10, 40, 0
12, 31800, Note_on_c, 10, 28, 100
12, 31974, Note_on_c, 10, 28, 0
12, 31980, Note_on_c, 10, 40, 100
12, 32034, Note_on_c, 10, 40, 0
12, 32040, Note_on_c, 10, 38, 100
12, 32094, Note_on_c, 10, 38, 0
12, 32100, Note_on_c, 10, 36, 100
12, 32154, Note_on_c, 10, 36, 0
12, 32160, Note_on_c, 10, 38, 100
12, 32214, Note_on_c, 10, 38, 0
12, 32220, Note_on_c, 10, 35, 100
12, 32274, Note_on_c, 10, 35, 0
12, 32280, Note_on_c, 10, 36, 100
12, 32334, Note_on_c, 10, 36, 0
12, 32340, Note_on_c, 10, 33, 100
12, 32394, Note_on_c, 10, 33, 0
12, 32400, Note_on_c, 10, 28, 100
12, 32454, Note_on_c, 10, 28, 0
12, 32460, Note_on_c, 10, 38, 100
12, 32514, Note_on_c, 10, 38, 0
12, 32520, Note_on_c, 10, 36, 100
12, 32574, Note_on_c, 10, 36, 0
12, 32580, Note_on_c, 10, 35, 100
12, 32634, Note_on_c, 10, 35, 0
12, 32640, Note_on_c, 10, 36, 100
12, 32694, Note_on_c, 10, 36, 0
12, 32700, Note_on_c, 10, 33, 100
12, 32754, Note_on_c, 10, 33, 0
12, 32760, Note_on_c, 10, 35, 100
12, 32814, Note_on_c, 10, 35, 0
12, 32820, Note_on_c, 10, 32, 100
12, 32874, Note_on_c, 10, 32, 0
12, 32880, Note_on_c, 10, 28, 100
12, 32934, Note_on_c, 10, 28, 0
12, 32940, Note_on_c, 10, 36, 100
12, 32994, Note_on_c, 10, 36, 0
12, 33000, Note_on_c, 10, 35, 100
12, 33054, Note_on_c, 10, 35, 0
12, 33060, Note_on_c, 10, 33, 100
12, 33114, Note_on_c, 10, 33, 0
12, 33120, Note_on_c, 10, 35, 100
12, 33174, Note_on_c, 10, 35, 0
12, 33180, Note_on_c, 10, 32, 100
12, 33234, Note_on_c, 10, 32, 0
12, 33240, Note_on_c, 10, 33, 100
12, 33294, Note_on_c, 10, 33, 0
12, 33300, Note_on_c, 10, 38, 100
12, 33354, Note_on_c, 10, 38, 0
12, 33360, Note_on_c, 10, 40, 100
12, 33468, Note_on_c, 10, 40, 0
12, 33480, Note_on_c, 10, 28, 100
12, 33588, Note_on_c, 10, 28, 0
12, 33600, Note_on_c, 10, 30, 100
12, 33816, Note_on_c, 10, 30, 0
12, 34560, Note_on_c, 10, 27, 100
12, 34776, Note_on_c, 10, 27, 0
12, 35520, Note_on_c, 10, 32, 100
12, 35736, Note_on_c, 10, 32, 0
12, 36240, Note_on_c, 10, 36, 100
12, 36348, Note_on_c, 10, 36, 0
12, 36360, Note_on_c, 10, 36, 100
12, 36468, Note_on_c, 10, 36, 0
12, 36480, Note_on_c, 10, 36, 100
12, 36696, Note_on_c, 10, 36, 0
12, 37200, Note_on_c, 10, 35, 100
12, 37308, Note_on_c, 10, 35, 0
12, 37320, Note_on_c, 10, 35, 100
12, 37428, Note_on_c, 10, 35, 0
12, 37440, Note_on_c, 10, 35, 100
12, 37656, Note_on_c, 10, 35, 0
12, 38160, Note_on_c, 10, 28, 100
12, 38268, Note_on_c, 10, 28, 0
12, 38280, Note_on_c, 10, 28, 100
12, 38388, Note_on_c, 10, 28, 0
12, 38400, Note_on_c, 10, 28, 100
12, 38616, Note_on_c, 10, 28, 0
12, 38640, Note_on_c, 10, 33, 100
12, 38748, Note_on_c, 10, 33, 0
12, 38760, Note_on_c, 10, 35, 100
12, 38868, Note_on_c, 10, 35, 0
12, 38880, Note_on_c, 10, 36, 100
12, 38988, Note_on_c, 10, 36, 0
12, 39000, Note_on_c, 10, 35, 100
12, 39054, Note_on_c, 10, 35, 0
12, 39060, Note_on_c, 10, 33, 100
12, 39114, Note_on_c, 10, 33, 0
12, 39120, Note_on_c, 10, 40, 100
12, 39228, Note_on_c, 10, 40, 0
12, 39240, Note_on_c, 10, 40, 100
12, 39348, Note_on_c, 10, 40, 0
12, 39360, Note_on_c, 10, 40, 100
12, 39576, Note_on_c, 10, 40, 0
12, 39600, Note_on_c, 10, 28, 100
12, 39654, Note_on_c, 10, 28, 0
12, 39660, Note_on_c, 10, 40, 100
12, 39714, Note_on_c, 10, 40, 0
12, 39720, Note_on_c, 10, 38, 100
12, 39774, Note_on_c, 10, 38, 0
12, 39780, Note_on_c, 10, 36, 100
12, 39834, Note_on_c, 10, 36, 0
12, 39840, Note_on_c, 10, 38, 100
12, 39894, Note_on_c, 10, 38, 0
12, 39900, Note_on_c, 10, 35, 100
12, 39954, Note_on_c, 10, 35, 0
12, 39960, Note_on_c, 10, 36, 100
12, 40014, Note_on_c, 10, 36, 0
12, 40020, Note_on_c, 10, 33, 100
12, 40074, Note_on_c, 10, 33, 0
12, 40080, Note_on_c, 10, 28, 100
12, 40134, Note_on_c, 10, 28, 0
12, 40140, Note_on_c, 10, 38, 100
12, 40194, Note_on_c, 10, 38, 0
12, 40200, Note_on_c, 10, 36, 100
12, 40254, Note_on_c, 10, 36, 0
12, 40260, Note_on_c, 10, 35, 100
12, 40314, Note_on_c, 10, 35, 0
12, 40320, Note_on_c, 10, 36, 100
12, 40374, Note_on_c, 10, 36, 0
12, 40380, Note_on_c, 10, 33, 100
12, 40434, Note_on_c, 10, 33, 0
12, 40440, Note_on_c, 10, 35, 100
12, 40494, Note_on_c, 10, 35, 0
12, 40500, Note_on_c, 10, 32, 100
12, 40554, Note_on_c, 10, 32, 0
12, 40560, Note_on_c, 10, 28, 100
12, 40614, Note_on_c, 10, 28, 0
12, 40620, Note_on_c, 10, 36, 100
12, 40674, Note_on_c, 10, 36, 0
12, 40680, Note_on_c, 10, 35, 100
12, 40734, Note_on_c, 10, 35, 0
12, 40740, Note_on_c, 10, 33, 100
12, 40794, Note_on_c, 10, 33, 0
12, 40800, Note_on_c, 10, 35, 100
12, 40854, Note_on_c, 10, 35, 0
12, 40860, Note_on_c, 10, 32, 100
12, 40914, Note_on_c, 10, 32, 0
12, 40920, Note_on_c, 10, 33, 100
12, 40974, Note_on_c, 10, 33, 0
12, 40980, Note_on_c, 10, 26, 100
12, 41034, Note_on_c, 10, 26, 0
12, 41040, Note_on_c, 10, 28, 100
12, 41148, Note_on_c, 10, 28, 0
12, 41160, Note_on_c, 10, 28, 100
12, 41268, Note_on_c, 10, 28, 0
12, 41280, Note_on_c, 10, 33, 100
12, 41496, Note_on_c, 10, 33, 0
12, 41520, Note_on_c, 10, 45, 100
12, 41628, Note_on_c, 10, 45, 0
12, 41640, Note_on_c, 10, 47, 100
12, 41748, Note_on_c, 10, 47, 0
12, 41760, Note_on_c, 10, 48, 100
12, 41868, Note_on_c, 10, 48, 0
12, 41880, Note_on_c, 10, 47, 100
12, 41934, Note_on_c, 10, 47, 0
12, 41940, Note_on_c, 10, 45, 100
12, 41994, Note_on_c, 10, 45, 0
12, 42000, Note_on_c, 10, 52, 100
12, 42108, Note_on_c, 10, 52, 0
12, 42120, Note_on_c, 10, 52, 100
12, 42228, Note_on_c, 10, 52, 0
12, 42240, Note_on_c, 10, 52, 100
12, 42456, Note_on_c, 10, 52, 0
12, 42480, Note_on_c, 10, 40, 100
12, 42534, Note_on_c, 10, 40, 0
12, 42540, Note_on_c, 10, 52, 100
12, 42594, Note_on_c, 10, 52, 0
12, 42600, Note_on_c, 10, 50, 100
12, 42654, Note_on_c, 10, 50, 0
12, 42660, Note_on_c, 10, 48, 100
12, 42714, Note_on_c, 10, 48, 0
12, 42720, Note_on_c, 10, 50, 100
12, 42774, Note_on_c, 10, 50, 0
12, 42780, Note_on_c, 10, 47, 100
12, 42834, Note_on_c, 10, 47, 0
12, 42840, Note_on_c, 10, 48, 100
12, 42894, Note_on_c, 10, 48, 0
12, 42900, Note_on_c, 10, 45, 100
12, 42954, Note_on_c, 10, 45, 0
12, 42960, Note_on_c, 10, 40, 100
12, 43014, Note_on_c, 10, 40, 0
12, 43020, Note_on_c, 10, 50, 100
12, 43074, Note_on_c, 10, 50, 0
12, 43080, Note_on_c, 10, 48, 100
12, 43134, Note_on_c, 10, 48, 0
12, 43140, Note_on_c, 10, 47, 100
12, 43194, Note_on_c, 10, 47, 0
12, 43200, Note_on_c, 10, 48, 100
12, 43254, Note_on_c, 10, 48, 0
12, 43260, Note_on_c, 10, 45, 100
12, 43314, Note_on_c, 10, 45, 0
12, 43320, Note_on_c, 10, 47, 100
12, 43374, Note_on_c, 10, 47, 0
12, 43380, Note_on_c, 10, 44, 100
12, 43434, Note_on_c, 10, 44, 0
12, 43440, Note_on_c, 10, 40, 100
12, 43494, Note_on_c, 10, 40, 0
12, 43500, Note_on_c, 10, 48, 100
12, 43554, Note_on_c, 10, 48, 0
12, 43560, Note_on_c, 10, 47, 100
12, 43614, Note_on_c, 10, 47, 0
12, 43620, Note_on_c, 10, 45, 100
12, 43674, Note_on_c, 10, 45, 0
12, 43680, Note_on_c, 10, 47, 100
12, 43734, Note_on_c, 10, 47, 0
12, 43740, Note_on_c, 10, 44, 100
12, 43794, Note_on_c, 10, 44, 0
12, 43800, Note_on_c, 10, 45, 100
12, 43854, Note_on_c, 10, 45, 0
12, 43860, Note_on_c, 10, 38, 100
12, 43914, Note_on_c, 10, 38, 0
12, 43920, Note_on_c, 10, 40, 100
12, 44028, Note_on_c, 10, 40, 0
12, 44040, Note_on_c, 10, 28, 100
12, 44148, Note_on_c, 10, 28, 0
12, 44160, Note_on_c, 10, 33, 100
12, 44376, Note_on_c, 10, 33, 0
12, 44376, End_track
0, 0, End_of_file
