0, 0, Header, 1, 8, 1024
1, 0, Start_track
1, 0, Time_signature, 4, 2, 24, 8
1, 0, Key_signature, -1, "major"
1, 0, Tempo, 750000
1, 434176, End_track
2, 0, Start_track
2, 0, Title_t, "Instrument 1"
2, 12544, Note_on_c, 0, 65, 96
2, 12800, Note_off_c, 0, 65, 0
2, 12800, Note_on_c, 0, 69, 96
2, 13056, Note_off_c, 0, 69, 0
2, 13056, Note_on_c, 0, 72, 96
2, 13312, Note_off_c, 0, 72, 0
2, 13312, Note_on_c, 0, 77, 96
2, 13568, Note_off_c, 0, 77, 0
2, 13568, Note_on_c, 0, 69, 96
2, 13824, Note_off_c, 0, 69, 0
2, 13824, Note_on_c, 0, 72, 96
2, 14080, Note_off_c, 0, 72, 0
2, 14080, Note_on_c, 0, 77, 96
2, 14336, Note_off_c, 0, 77, 0
2, 14336, Note_on_c, 0, 81, 96
2, 14592, Note_off_c, 0, 81, 0
2, 14592, Note_on_c, 0, 77, 96
2, 14848, Note_off_c, 0, 77, 0
2, 14848, Note_on_c, 0, 74, 96
2, 15104, Note_off_c, 0, 74, 0
2, 15104, Note_on_c, 0, 77, 96
2, 15360, Note_off_c, 0, 77, 0
2, 15360, Note_on_c, 0, 70, 96
2, 15616, Note_off_c, 0, 70, 0
2, 15616, Note_on_c, 0, 81, 96
2, 15872, Note_off_c, 0, 81, 0
2, 15872, Note_on_c, 0, 79, 96
2, 16128, Note_off_c, 0, 79, 0
2, 16128, Note_on_c, 0, 77, 96
2, 16384, Note_off_c, 0, 77, 0
2, 16384, Note_on_c, 0, 76, 96
2, 16896, Note_off_c, 0, 76, 0
2, 16896, Note_on_c, 0, 82, 96
2, 17920, Note_off_c, 0, 82, 0
2, 17920, Note_on_c, 0, 81, 96
2, 18176, Note_off_c, 0, 81, 0
2, 18176, Note_on_c, 0, 79, 96
2, 18432, Note_off_c, 0, 79, 0
2, 18432, Note_on_c, 0, 77, 96
2, 18688, Note_off_c, 0, 77, 0
2, 18688, Note_on_c, 0, 79, 96
2, 18944, Note_off_c, 0, 79, 0
2, 18944, Note_on_c, 0, 76, 96
2, 19200, Note_off_c, 0, 76, 0
2, 19200, Note_on_c, 0, 77, 96
2, 19456, Note_off_c, 0, 77, 0
2, 19456, Note_on_c, 0, 79, 96
2, 19712, Note_off_c, 0, 79, 0
2, 19712, Note_on_c, 0, 77, 96
2, 19968, Note_off_c, 0, 77, 0
2, 19968, Note_on_c, 0, 76, 96
2, 20224, Note_off_c, 0, 76, 0
2, 20224, Note_on_c, 0, 74, 96
2, 20480, Note_off_c, 0, 74, 0
2, 20480, Note_on_c, 0, 72, 96
2, 20736, Note_off_c, 0, 72, 0
2, 20736, Note_on_c, 0, 74, 96
2, 20992, Note_off_c, 0, 74, 0
2, 20992, Note_on_c, 0, 75, 96
2, 22016, Note_off_c, 0, 75, 0
2, 22016, Note_on_c, 0, 74, 96
2, 22272, Note_off_c, 0, 74, 0
2, 22272, Note_on_c, 0, 72, 96
2, 22528, Note_off_c, 0, 72, 0
2, 22528, Note_on_c, 0, 70, 96
2, 22784, Note_off_c, 0, 70, 0
2, 22784, Note_on_c, 0, 72, 96
2, 23040, Note_off_c, 0, 72, 0
2, 23040, Note_on_c, 0, 69, 96
2, 23296, Note_off_c, 0, 69, 0
2, 23296, Note_on_c, 0, 70, 96
2, 23552, Note_off_c, 0, 70, 0
2, 23552, Note_on_c, 0, 72, 96
2, 23808, Note_off_c, 0, 72, 0
2, 23808, Note_on_c, 0, 70, 96
2, 24064, Note_off_c, 0, 70, 0
2, 24064, Note_on_c, 0, 69, 96
2, 24320, Note_off_c, 0, 69, 0
2, 24320, Note_on_c, 0, 67, 96
2, 24576, Note_off_c, 0, 67, 0
2, 24576, Note_on_c, 0, 65, 96
2, 28416, Note_off_c, 0, 65, 0
2, 28416, Note_on_c, 0, 70, 96
2, 28928, Note_off_c, 0, 70, 0
2, 28928, Note_on_c, 0, 70, 96
2, 29440, Note_off_c, 0, 70, 0
2, 29440, Note_on_c, 0, 70, 96
2, 29696, Note_off_c, 0, 70, 0
2, 29696, Note_on_c, 0, 69, 96
2, 31232, Note_off_c, 0, 69, 0
2, 31232, Note_on_c, 0, 74, 96
2, 31744, Note_off_c, 0, 74, 0
2, 31744, Note_on_c, 0, 67, 96
2, 32256, Note_off_c, 0, 67, 0
2, 32256, Note_on_c, 0, 72, 96
2, 33024, Note_off_c, 0, 72, 0
2, 33024, Note_on_c, 0, 72, 96
2, 33280, Note_off_c, 0, 72, 0
2, 33280, Note_on_c, 0, 71, 96
2, 33536, Note_off_c, 0, 71, 0
2, 33536, Note_on_c, 0, 69, 96
2, 33792, Note_off_c, 0, 69, 0
2, 33792, Note_on_c, 0, 71, 96
2, 34048, Note_off_c, 0, 71, 0
2, 34048, Note_on_c, 0, 72, 96
2, 34304, Note_off_c, 0, 72, 0
2, 34304, Note_on_c, 0, 69, 96
2, 34560, Note_off_c, 0, 69, 0
2, 34560, Note_on_c, 0, 71, 96
2, 34816, Note_off_c, 0, 71, 0
2, 34816, Note_on_c, 0, 72, 96
2, 35072, Note_off_c, 0, 72, 0
2, 35072, Note_on_c, 0, 67, 96
2, 35328, Note_off_c, 0, 67, 0
2, 35328, Note_on_c, 0, 72, 96
2, 35584, Note_off_c, 0, 72, 0
2, 35584, Note_on_c, 0, 76, 96
2, 35840, Note_off_c, 0, 76, 0
2, 35840, Note_on_c, 0, 79, 96
2, 36096, Note_off_c, 0, 79, 0
2, 36096, Note_on_c, 0, 72, 96
2, 36352, Note_off_c, 0, 72, 0
2, 36352, Note_on_c, 0, 76, 96
2, 36608, Note_off_c, 0, 76, 0
2, 36608, Note_on_c, 0, 79, 96
2, 36864, Note_off_c, 0, 79, 0
2, 36864, Note_on_c, 0, 81, 96
2, 37120, Note_off_c, 0, 81, 0
2, 37120, Note_on_c, 0, 77, 96
2, 37376, Note_off_c, 0, 77, 0
2, 37376, Note_on_c, 0, 72, 96
2, 37632, Note_off_c, 0, 72, 0
2, 37632, Note_on_c, 0, 77, 96
2, 37888, Note_off_c, 0, 77, 0
2, 37888, Note_on_c, 0, 70, 96
2, 38144, Note_off_c, 0, 70, 0
2, 38144, Note_on_c, 0, 81, 96
2, 38400, Note_off_c, 0, 81, 0
2, 38400, Note_on_c, 0, 79, 96
2, 38656, Note_off_c, 0, 79, 0
2, 38656, Note_on_c, 0, 77, 96
2, 38912, Note_off_c, 0, 77, 0
2, 38912, Note_on_c, 0, 76, 96
2, 39424, Note_off_c, 0, 76, 0
2, 39424, Note_on_c, 0, 72, 96
2, 39936, Note_off_c, 0, 72, 0
2, 39936, Note_on_c, 0, 77, 96
2, 40448, Note_off_c, 0, 77, 0
2, 40448, Note_on_c, 0, 75, 96
2, 41216, Note_off_c, 0, 75, 0
2, 41216, Note_on_c, 0, 75, 96
2, 41472, Note_off_c, 0, 75, 0
2, 41472, Note_on_c, 0, 74, 96
2, 41728, Note_off_c, 0, 74, 0
2, 41728, Note_on_c, 0, 72, 96
2, 41984, Note_off_c, 0, 72, 0
2, 41984, Note_on_c, 0, 74, 96
2, 43520, Note_off_c, 0, 74, 0
2, 43520, Note_on_c, 0, 72, 96
2, 44288, Note_off_c, 0, 72, 0
2, 44288, Note_on_c, 0, 72, 96
2, 44544, Note_off_c, 0, 72, 0
2, 44544, Note_on_c, 0, 71, 96
2, 45056, Note_off_c, 0, 71, 0
2, 45056, Note_on_c, 0, 72, 96
2, 45568, Note_off_c, 0, 72, 0
2, 45568, Note_on_c, 0, 70, 96
2, 46080, Note_off_c, 0, 70, 0
2, 46080, Note_on_c, 0, 69, 96
2, 47104, Note_off_c, 0, 69, 0
2, 47104, Note_on_c, 0, 67, 96
2, 50176, Note_off_c, 0, 67, 0
2, 59648, Note_on_c, 0, 67, 96
2, 59904, Note_off_c, 0, 67, 0
2, 59904, Note_on_c, 0, 72, 96
2, 60160, Note_off_c, 0, 72, 0
2, 60160, Note_on_c, 0, 76, 96
2, 60416, Note_off_c, 0, 76, 0
2, 60416, Note_on_c, 0, 79, 96
2, 60672, Note_off_c, 0, 79, 0
2, 60672, Note_on_c, 0, 72, 96
2, 60928, Note_off_c, 0, 72, 0
2, 60928, Note_on_c, 0, 76, 96
2, 61184, Note_off_c, 0, 76, 0
2, 61184, Note_on_c, 0, 79, 96
2, 61440, Note_off_c, 0, 79, 0
2, 61440, Note_on_c, 0, 81, 96
2, 61696, Note_off_c, 0, 81, 0
2, 61696, Note_on_c, 0, 77, 96
2, 61952, Note_off_c, 0, 77, 0
2, 61952, Note_on_c, 0, 74, 96
2, 62208, Note_off_c, 0, 74, 0
2, 62208, Note_on_c, 0, 77, 96
2, 62464, Note_off_c, 0, 77, 0
2, 62464, Note_on_c, 0, 71, 96
2, 62720, Note_off_c, 0, 71, 0
2, 62720, Note_on_c, 0, 81, 96
2, 62976, Note_off_c, 0, 81, 0
2, 62976, Note_on_c, 0, 79, 96
2, 63232, Note_off_c, 0, 79, 0
2, 63232, Note_on_c, 0, 77, 96
2, 63488, Note_off_c, 0, 77, 0
2, 63488, Note_on_c, 0, 76, 96
2, 64000, Note_off_c, 0, 76, 0
2, 64000, Note_on_c, 0, 72, 96
2, 64256, Note_off_c, 0, 72, 0
2, 64256, Note_on_c, 0, 76, 96
2, 64512, Note_off_c, 0, 76, 0
2, 64512, Note_on_c, 0, 81, 96
2, 66048, Note_off_c, 0, 81, 0
2, 66048, Note_on_c, 0, 79, 96
2, 66304, Note_off_c, 0, 79, 0
2, 66304, Note_on_c, 0, 77, 96
2, 66560, Note_off_c, 0, 77, 0
2, 66560, Note_on_c, 0, 83, 96
2, 67584, Note_off_c, 0, 83, 0
2, 67584, Note_on_c, 0, 84, 96
2, 68096, Note_off_c, 0, 84, 0
2, 68096, Note_on_c, 0, 79, 96
2, 68608, Note_off_c, 0, 79, 0
2, 68608, Note_on_c, 0, 82, 96
2, 69120, Note_off_c, 0, 82, 0
2, 69120, Note_on_c, 0, 81, 96
2, 70144, Note_off_c, 0, 81, 0
2, 70144, Note_on_c, 0, 79, 96
2, 71168, Note_off_c, 0, 79, 0
2, 71168, Note_on_c, 0, 77, 96
2, 71424, Note_off_c, 0, 77, 0
2, 71424, Note_on_c, 0, 75, 96
2, 71680, Note_off_c, 0, 75, 0
2, 71680, Note_on_c, 0, 74, 96
2, 71936, Note_off_c, 0, 74, 0
2, 71936, Note_on_c, 0, 69, 96
2, 72192, Note_off_c, 0, 69, 0
2, 72192, Note_on_c, 0, 70, 96
2, 72448, Note_off_c, 0, 70, 0
2, 72448, Note_on_c, 0, 74, 96
2, 72704, Note_off_c, 0, 74, 0
2, 72704, Note_on_c, 0, 79, 96
2, 73984, Note_off_c, 0, 79, 0
2, 73984, Note_on_c, 0, 67, 96
2, 74240, Note_off_c, 0, 67, 0
2, 74240, Note_on_c, 0, 69, 96
2, 74496, Note_off_c, 0, 69, 0
2, 74496, Note_on_c, 0, 72, 96
2, 74752, Note_off_c, 0, 72, 0
2, 74752, Note_on_c, 0, 77, 96
2, 76288, Note_off_c, 0, 77, 0
2, 76288, Note_on_c, 0, 75, 96
2, 76544, Note_off_c, 0, 75, 0
2, 76544, Note_on_c, 0, 74, 96
2, 76800, Note_off_c, 0, 74, 0
2, 76800, Note_on_c, 0, 75, 96
2, 78336, Note_off_c, 0, 75, 0
2, 78336, Note_on_c, 0, 74, 96
2, 78592, Note_off_c, 0, 74, 0
2, 78592, Note_on_c, 0, 72, 96
2, 78848, Note_off_c, 0, 72, 0
2, 78848, Note_on_c, 0, 74, 96
2, 79872, Note_off_c, 0, 74, 0
2, 79872, Note_on_c, 0, 72, 96
2, 81408, Note_off_c, 0, 72, 0
2, 81408, Note_on_c, 0, 70, 96
2, 82432, Note_off_c, 0, 70, 0
2, 82432, Note_on_c, 0, 69, 96
2, 82688, Note_off_c, 0, 69, 0
2, 82688, Note_on_c, 0, 67, 96
2, 82944, Note_off_c, 0, 67, 0
2, 82944, Note_on_c, 0, 69, 96
2, 83456, Note_off_c, 0, 69, 0
2, 83456, Note_on_c, 0, 72, 96
2, 84480, Note_off_c, 0, 72, 0
2, 84480, Note_on_c, 0, 70, 96
2, 84736, Note_off_c, 0, 70, 0
2, 84736, Note_on_c, 0, 69, 96
2, 84992, Note_off_c, 0, 69, 0
2, 84992, Note_on_c, 0, 67, 96
2, 85248, Note_off_c, 0, 67, 0
2, 85248, Note_on_c, 0, 69, 96
2, 85504, Note_off_c, 0, 69, 0
2, 85504, Note_on_c, 0, 70, 96
2, 86528, Note_off_c, 0, 70, 0
2, 86528, Note_on_c, 0, 69, 96
2, 87040, Note_off_c, 0, 69, 0
2, 87040, Note_on_c, 0, 67, 96
2, 87808, Note_off_c, 0, 67, 0
2, 87808, Note_on_c, 0, 69, 96
2, 88064, Note_off_c, 0, 69, 0
2, 88064, Note_on_c, 0, 65, 96
2, 89344, Note_off_c, 0, 65, 0
2, 89344, Note_on_c, 0, 69, 96
2, 89600, Note_off_c, 0, 69, 0
2, 89600, Note_on_c, 0, 67, 96
2, 89856, Note_off_c, 0, 67, 0
2, 89856, Note_on_c, 0, 65, 96
2, 90112, Note_off_c, 0, 65, 0
2, 90112, Note_on_c, 0, 64, 96
2, 90368, Note_off_c, 0, 64, 0
2, 90368, Note_on_c, 0, 67, 96
2, 90624, Note_off_c, 0, 67, 0
2, 90624, Note_on_c, 0, 72, 96
2, 90880, Note_off_c, 0, 72, 0
2, 90880, Note_on_c, 0, 76, 96
2, 91136, Note_off_c, 0, 76, 0
2, 91136, Note_on_c, 0, 79, 96
2, 91392, Note_off_c, 0, 79, 0
2, 91392, Note_on_c, 0, 72, 96
2, 91648, Note_off_c, 0, 72, 0
2, 91648, Note_on_c, 0, 76, 96
2, 91904, Note_off_c, 0, 76, 0
2, 91904, Note_on_c, 0, 79, 96
2, 92160, Note_off_c, 0, 79, 0
2, 92160, Note_on_c, 0, 81, 96
2, 92416, Note_off_c, 0, 81, 0
2, 92416, Note_on_c, 0, 77, 96
2, 92672, Note_off_c, 0, 77, 0
2, 92672, Note_on_c, 0, 74, 96
2, 92928, Note_off_c, 0, 74, 0
2, 92928, Note_on_c, 0, 77, 96
2, 93184, Note_off_c, 0, 77, 0
2, 93184, Note_on_c, 0, 71, 96
2, 93440, Note_off_c, 0, 71, 0
2, 93440, Note_on_c, 0, 81, 96
2, 93696, Note_off_c, 0, 81, 0
2, 93696, Note_on_c, 0, 79, 96
2, 93952, Note_off_c, 0, 79, 0
2, 93952, Note_on_c, 0, 77, 96
2, 94208, Note_off_c, 0, 77, 0
2, 94208, Note_on_c, 0, 76, 96
2, 94720, Note_off_c, 0, 76, 0
2, 94720, Note_on_c, 0, 78, 96
2, 95232, Note_off_c, 0, 78, 0
2, 95232, Note_on_c, 0, 79, 96
2, 96768, Note_off_c, 0, 79, 0
2, 96768, Note_on_c, 0, 78, 96
2, 97024, Note_off_c, 0, 78, 0
2, 97024, Note_on_c, 0, 79, 96
2, 97280, Note_off_c, 0, 79, 0
2, 97280, Note_on_c, 0, 81, 96
2, 98816, Note_off_c, 0, 81, 0
2, 98816, Note_on_c, 0, 79, 96
2, 99840, Note_off_c, 0, 79, 0
2, 99840, Note_on_c, 0, 77, 96
2, 100352, Note_off_c, 0, 77, 0
2, 100352, Note_on_c, 0, 76, 96
2, 100608, Note_off_c, 0, 76, 0
2, 100608, Note_on_c, 0, 77, 96
2, 100864, Note_off_c, 0, 77, 0
2, 100864, Note_on_c, 0, 79, 96
2, 102912, Note_off_c, 0, 79, 0
2, 102912, Note_on_c, 0, 77, 96
2, 103424, Note_off_c, 0, 77, 0
2, 103936, Note_on_c, 0, 77, 96
2, 104448, Note_off_c, 0, 77, 0
2, 104448, Note_on_c, 0, 77, 96
2, 104960, Note_off_c, 0, 77, 0
2, 104960, Note_on_c, 0, 76, 96
2, 105472, Note_off_c, 0, 76, 0
2, 105984, Note_on_c, 0, 76, 96
2, 106496, Note_off_c, 0, 76, 0
2, 106496, Note_on_c, 0, 76, 96
2, 107008, Note_off_c, 0, 76, 0
2, 107008, Note_on_c, 0, 74, 96
2, 107520, Note_off_c, 0, 74, 0
2, 108032, Note_on_c, 0, 74, 96
2, 108544, Note_off_c, 0, 74, 0
2, 108544, Note_on_c, 0, 74, 96
2, 109056, Note_off_c, 0, 74, 0
2, 109056, Note_on_c, 0, 72, 96
2, 109824, Note_off_c, 0, 72, 0
2, 109824, Note_on_c, 0, 74, 96
2, 110080, Note_off_c, 0, 74, 0
2, 110080, Note_on_c, 0, 77, 96
2, 110336, Note_off_c, 0, 77, 0
2, 110336, Note_on_c, 0, 81, 96
2, 110592, Note_off_c, 0, 81, 0
2, 110592, Note_on_c, 0, 71, 96
2, 110848, Note_off_c, 0, 71, 0
2, 110848, Note_on_c, 0, 74, 96
2, 111104, Note_off_c, 0, 74, 0
2, 111104, Note_on_c, 0, 79, 96
2, 111872, Note_off_c, 0, 79, 0
2, 111872, Note_on_c, 0, 76, 96
2, 112128, Note_off_c, 0, 76, 0
2, 112128, Note_on_c, 0, 72, 96
2, 112384, Note_off_c, 0, 72, 0
2, 112384, Note_on_c, 0, 76, 96
2, 112640, Note_off_c, 0, 76, 0
2, 112640, Note_on_c, 0, 69, 96
2, 112896, Note_off_c, 0, 69, 0
2, 112896, Note_on_c, 0, 79, 96
2, 113152, Note_off_c, 0, 79, 0
2, 113152, Note_on_c, 0, 77, 96
2, 113408, Note_off_c, 0, 77, 0
2, 113408, Note_on_c, 0, 76, 96
2, 113664, Note_off_c, 0, 76, 0
2, 113664, Note_on_c, 0, 77, 96
2, 113920, Note_off_c, 0, 77, 0
2, 113920, Note_on_c, 0, 72, 96
2, 114176, Note_off_c, 0, 72, 0
2, 114176, Note_on_c, 0, 71, 96
2, 114432, Note_off_c, 0, 71, 0
2, 114432, Note_on_c, 0, 77, 96
2, 114688, Note_off_c, 0, 77, 0
2, 114688, Note_on_c, 0, 76, 96
2, 114944, Note_off_c, 0, 76, 0
2, 114944, Note_on_c, 0, 79, 96
2, 115200, Note_off_c, 0, 79, 0
2, 115200, Note_on_c, 0, 76, 96
2, 115456, Note_off_c, 0, 76, 0
2, 115456, Note_on_c, 0, 72, 96
2, 115712, Note_off_c, 0, 72, 0
2, 115712, Note_on_c, 0, 69, 96
2, 115968, Note_off_c, 0, 69, 0
2, 115968, Note_on_c, 0, 76, 96
2, 116224, Note_off_c, 0, 76, 0
2, 116224, Note_on_c, 0, 72, 96
2, 116480, Note_off_c, 0, 72, 0
2, 116480, Note_on_c, 0, 69, 96
2, 116736, Note_off_c, 0, 69, 0
2, 116736, Note_on_c, 0, 65, 96
2, 116992, Note_off_c, 0, 65, 0
2, 116992, Note_on_c, 0, 69, 96
2, 117248, Note_off_c, 0, 69, 0
2, 117248, Note_on_c, 0, 74, 96
2, 117504, Note_off_c, 0, 74, 0
2, 117504, Note_on_c, 0, 72, 96
2, 117760, Note_off_c, 0, 72, 0
2, 117760, Note_on_c, 0, 74, 96
2, 118016, Note_off_c, 0, 74, 0
2, 118016, Note_on_c, 0, 70, 96
2, 118272, Note_off_c, 0, 70, 0
2, 118272, Note_on_c, 0, 67, 96
2, 118528, Note_off_c, 0, 67, 0
2, 118528, Note_on_c, 0, 70, 96
2, 118784, Note_off_c, 0, 70, 0
2, 118784, Note_on_c, 0, 64, 96
2, 119296, Note_off_c, 0, 64, 0
2, 120320, Note_on_c, 0, 77, 96
2, 120832, Note_off_c, 0, 77, 0
2, 120832, Note_on_c, 0, 74, 96
2, 121344, Note_off_c, 0, 74, 0
2, 121344, Note_on_c, 0, 82, 96
2, 122368, Note_off_c, 0, 82, 0
2, 122368, Note_on_c, 0, 81, 96
2, 122624, Note_off_c, 0, 81, 0
2, 122624, Note_on_c, 0, 79, 96
2, 122880, Note_off_c, 0, 79, 0
2, 122880, Note_on_c, 0, 77, 96
2, 123136, Note_off_c, 0, 77, 0
2, 123136, Note_on_c, 0, 79, 96
2, 123392, Note_off_c, 0, 79, 0
2, 123392, Note_on_c, 0, 76, 96
2, 123648, Note_off_c, 0, 76, 0
2, 123648, Note_on_c, 0, 77, 96
2, 123904, Note_off_c, 0, 77, 0
2, 123904, Note_on_c, 0, 79, 96
2, 124160, Note_off_c, 0, 79, 0
2, 124160, Note_on_c, 0, 77, 96
2, 124416, Note_off_c, 0, 77, 0
2, 124416, Note_on_c, 0, 76, 96
2, 124672, Note_off_c, 0, 76, 0
2, 124672, Note_on_c, 0, 74, 96
2, 124928, Note_off_c, 0, 74, 0
2, 124928, Note_on_c, 0, 72, 96
2, 125184, Note_off_c, 0, 72, 0
2, 125184, Note_on_c, 0, 74, 96
2, 125440, Note_off_c, 0, 74, 0
2, 125440, Note_on_c, 0, 75, 96
2, 126464, Note_off_c, 0, 75, 0
2, 126464, Note_on_c, 0, 74, 96
2, 126720, Note_off_c, 0, 74, 0
2, 126720, Note_on_c, 0, 72, 96
2, 126976, Note_off_c, 0, 72, 0
2, 126976, Note_on_c, 0, 70, 96
2, 127232, Note_off_c, 0, 70, 0
2, 127232, Note_on_c, 0, 72, 96
2, 127488, Note_off_c, 0, 72, 0
2, 127488, Note_on_c, 0, 69, 96
2, 127744, Note_off_c, 0, 69, 0
2, 127744, Note_on_c, 0, 70, 96
2, 128000, Note_off_c, 0, 70, 0
2, 128000, Note_on_c, 0, 72, 96
2, 128256, Note_off_c, 0, 72, 0
2, 128256, Note_on_c, 0, 70, 96
2, 128512, Note_off_c, 0, 70, 0
2, 128512, Note_on_c, 0, 69, 96
2, 128768, Note_off_c, 0, 69, 0
2, 128768, Note_on_c, 0, 67, 96
2, 129024, Note_off_c, 0, 67, 0
2, 129024, Note_on_c, 0, 65, 96
2, 129536, Note_off_c, 0, 65, 0
2, 129536, Note_on_c, 0, 70, 96
2, 130048, Note_off_c, 0, 70, 0
2, 130048, Note_on_c, 0, 64, 96
2, 130560, Note_off_c, 0, 64, 0
2, 130560, Note_on_c, 0, 67, 96
2, 131072, Note_off_c, 0, 67, 0
2, 131072, Note_on_c, 0, 65, 96
2, 131584, Note_off_c, 0, 65, 0
2, 131584, Note_on_c, 0, 69, 96
2, 132608, Note_off_c, 0, 69, 0
2, 132608, Note_on_c, 0, 67, 96
2, 132864, Note_off_c, 0, 67, 0
2, 132864, Note_on_c, 0, 65, 96
2, 133120, Note_off_c, 0, 65, 0
2, 133120, Note_on_c, 0, 64, 96
2, 133376, Note_off_c, 0, 64, 0
2, 133376, Note_on_c, 0, 60, 96
2, 133632, Note_off_c, 0, 60, 0
2, 133632, Note_on_c, 0, 64, 96
2, 133888, Note_off_c, 0, 64, 0
2, 133888, Note_on_c, 0, 67, 96
2, 134144, Note_off_c, 0, 67, 0
2, 134144, Note_on_c, 0, 72, 96
2, 134400, Note_off_c, 0, 72, 0
2, 134400, Note_on_c, 0, 67, 96
2, 134656, Note_off_c, 0, 67, 0
2, 134656, Note_on_c, 0, 72, 96
2, 134912, Note_off_c, 0, 72, 0
2, 134912, Note_on_c, 0, 74, 96
2, 135168, Note_off_c, 0, 74, 0
2, 135168, Note_on_c, 0, 75, 96
2, 135424, Note_off_c, 0, 75, 0
2, 135424, Note_on_c, 0, 72, 96
2, 135680, Note_off_c, 0, 72, 0
2, 135680, Note_on_c, 0, 69, 96
2, 135936, Note_off_c, 0, 69, 0
2, 135936, Note_on_c, 0, 72, 96
2, 136192, Note_off_c, 0, 72, 0
2, 136192, Note_on_c, 0, 66, 96
2, 136448, Note_off_c, 0, 66, 0
2, 136448, Note_on_c, 0, 75, 96
2, 136704, Note_off_c, 0, 75, 0
2, 136704, Note_on_c, 0, 74, 96
2, 136960, Note_off_c, 0, 74, 0
2, 136960, Note_on_c, 0, 72, 96
2, 137216, Note_off_c, 0, 72, 0
2, 137216, Note_on_c, 0, 71, 96
2, 137472, Note_off_c, 0, 71, 0
2, 137472, Note_on_c, 0, 67, 96
2, 137728, Note_off_c, 0, 67, 0
2, 137728, Note_on_c, 0, 71, 96
2, 137984, Note_off_c, 0, 71, 0
2, 137984, Note_on_c, 0, 74, 96
2, 138240, Note_off_c, 0, 74, 0
2, 138240, Note_on_c, 0, 76, 96
2, 139776, Note_off_c, 0, 76, 0
2, 139776, Note_on_c, 0, 74, 96
2, 140800, Note_off_c, 0, 74, 0
2, 140800, Note_on_c, 0, 72, 96
2, 141568, Note_off_c, 0, 72, 0
2, 141568, Note_on_c, 0, 69, 96
2, 141824, Note_off_c, 0, 69, 0
2, 141824, Note_on_c, 0, 71, 96
2, 142080, Note_off_c, 0, 71, 0
2, 142080, Note_on_c, 0, 74, 96
2, 142336, Note_off_c, 0, 74, 0
2, 142336, Note_on_c, 0, 77, 96
2, 142848, Note_off_c, 0, 77, 0
2, 142848, Note_on_c, 0, 71, 96
2, 143360, Note_off_c, 0, 71, 0
2, 143360, Note_on_c, 0, 72, 96
2, 144384, Note_off_c, 0, 72, 0
2, 144384, Note_on_c, 0, 74, 96
2, 145408, Note_off_c, 0, 74, 0
2, 145408, Note_on_c, 0, 76, 96
2, 145664, Note_off_c, 0, 76, 0
2, 145664, Note_on_c, 0, 72, 96
2, 145920, Note_off_c, 0, 72, 0
2, 145920, Note_on_c, 0, 69, 96
2, 146176, Note_off_c, 0, 69, 0
2, 146176, Note_on_c, 0, 72, 96
2, 146432, Note_off_c, 0, 72, 0
2, 146432, Note_on_c, 0, 65, 96
2, 146688, Note_off_c, 0, 65, 0
2, 146688, Note_on_c, 0, 76, 96
2, 146944, Note_off_c, 0, 76, 0
2, 146944, Note_on_c, 0, 74, 96
2, 147200, Note_off_c, 0, 74, 0
2, 147200, Note_on_c, 0, 72, 96
2, 147456, Note_off_c, 0, 72, 0
2, 147456, Note_on_c, 0, 71, 96
2, 147712, Note_off_c, 0, 71, 0
2, 147712, Note_on_c, 0, 72, 96
2, 147968, Note_off_c, 0, 72, 0
2, 147968, Note_on_c, 0, 69, 96
2, 148224, Note_off_c, 0, 69, 0
2, 148224, Note_on_c, 0, 71, 96
2, 148480, Note_off_c, 0, 71, 0
2, 148480, Note_on_c, 0, 72, 96
2, 148736, Note_off_c, 0, 72, 0
2, 148736, Note_on_c, 0, 69, 96
2, 148992, Note_off_c, 0, 69, 0
2, 148992, Note_on_c, 0, 67, 96
2, 149248, Note_off_c, 0, 67, 0
2, 149248, Note_on_c, 0, 65, 96
2, 149504, Note_off_c, 0, 65, 0
2, 149504, Note_on_c, 0, 64, 96
2, 150016, Note_off_c, 0, 64, 0
2, 150016, Note_on_c, 0, 72, 96
2, 151040, Note_off_c, 0, 72, 0
2, 151040, Note_on_c, 0, 71, 96
2, 151296, Note_off_c, 0, 71, 0
2, 151296, Note_on_c, 0, 69, 96
2, 151552, Note_off_c, 0, 69, 0
2, 151552, Note_on_c, 0, 67, 96
2, 151808, Note_off_c, 0, 67, 0
2, 151808, Note_on_c, 0, 69, 96
2, 152064, Note_off_c, 0, 69, 0
2, 152064, Note_on_c, 0, 65, 96
2, 152320, Note_off_c, 0, 65, 0
2, 152320, Note_on_c, 0, 67, 96
2, 152576, Note_off_c, 0, 67, 0
2, 152576, Note_on_c, 0, 69, 96
2, 152832, Note_off_c, 0, 69, 0
2, 152832, Note_on_c, 0, 67, 96
2, 153088, Note_off_c, 0, 67, 0
2, 153088, Note_on_c, 0, 65, 96
2, 153344, Note_off_c, 0, 65, 0
2, 153344, Note_on_c, 0, 64, 96
2, 153600, Note_off_c, 0, 64, 0
2, 153600, Note_on_c, 0, 62, 96
2, 153856, Note_off_c, 0, 62, 0
2, 153856, Note_on_c, 0, 64, 96
2, 154112, Note_off_c, 0, 64, 0
2, 154112, Note_on_c, 0, 65, 96
2, 155136, Note_off_c, 0, 65, 0
2, 155136, Note_on_c, 0, 64, 96
2, 155392, Note_off_c, 0, 64, 0
2, 155392, Note_on_c, 0, 62, 96
2, 155648, Note_off_c, 0, 62, 0
2, 155648, Note_on_c, 0, 64, 96
2, 155904, Note_off_c, 0, 64, 0
2, 155904, Note_on_c, 0, 60, 96
2, 156160, Note_off_c, 0, 60, 0
2, 156160, Note_on_c, 0, 64, 96
2, 156416, Note_off_c, 0, 64, 0
2, 156416, Note_on_c, 0, 67, 96
2, 156672, Note_off_c, 0, 67, 0
2, 156672, Note_on_c, 0, 72, 96
2, 156928, Note_off_c, 0, 72, 0
2, 156928, Note_on_c, 0, 65, 96
2, 157184, Note_off_c, 0, 65, 0
2, 157184, Note_on_c, 0, 69, 96
2, 157440, Note_off_c, 0, 69, 0
2, 157440, Note_on_c, 0, 72, 96
2, 157696, Note_off_c, 0, 72, 0
2, 157696, Note_on_c, 0, 74, 96
2, 157952, Note_off_c, 0, 74, 0
2, 157952, Note_on_c, 0, 70, 96
2, 158208, Note_off_c, 0, 70, 0
2, 158208, Note_on_c, 0, 67, 96
2, 158464, Note_off_c, 0, 67, 0
2, 158464, Note_on_c, 0, 70, 96
2, 158720, Note_off_c, 0, 70, 0
2, 158720, Note_on_c, 0, 64, 96
2, 158976, Note_off_c, 0, 64, 0
2, 158976, Note_on_c, 0, 74, 96
2, 159232, Note_off_c, 0, 74, 0
2, 159232, Note_on_c, 0, 72, 96
2, 159488, Note_off_c, 0, 72, 0
2, 159488, Note_on_c, 0, 70, 96
2, 159744, Note_off_c, 0, 70, 0
2, 159744, Note_on_c, 0, 69, 96
2, 160256, Note_off_c, 0, 69, 0
2, 160768, Note_on_c, 0, 74, 96
2, 162816, Note_off_c, 0, 74, 0
2, 162816, Note_on_c, 0, 76, 96
2, 163840, Note_off_c, 0, 76, 0
2, 163840, Note_on_c, 0, 77, 96
2, 164352, Note_off_c, 0, 77, 0
2, 166400, Note_on_c, 0, 79, 96
2, 167424, Note_off_c, 0, 79, 0
2, 167424, Note_on_c, 0, 77, 96
2, 167936, Note_off_c, 0, 77, 0
2, 167936, Note_on_c, 0, 76, 96
2, 168192, Note_off_c, 0, 76, 0
2, 168192, Note_on_c, 0, 77, 96
2, 168448, Note_off_c, 0, 77, 0
2, 168448, Note_on_c, 0, 74, 96
2, 168704, Note_off_c, 0, 74, 0
2, 168704, Note_on_c, 0, 76, 96
2, 168960, Note_off_c, 0, 76, 0
2, 168960, Note_on_c, 0, 77, 96
2, 169216, Note_off_c, 0, 77, 0
2, 169216, Note_on_c, 0, 75, 96
2, 169472, Note_off_c, 0, 75, 0
2, 169472, Note_on_c, 0, 74, 96
2, 169728, Note_off_c, 0, 74, 0
2, 169728, Note_on_c, 0, 72, 96
2, 169984, Note_off_c, 0, 72, 0
2, 169984, Note_on_c, 0, 74, 96
2, 171008, Note_off_c, 0, 74, 0
2, 173568, Note_on_c, 0, 78, 96
2, 174080, Note_off_c, 0, 78, 0
2, 174080, Note_on_c, 0, 79, 96
2, 174336, Note_off_c, 0, 79, 0
2, 174336, Note_on_c, 0, 81, 96
2, 174592, Note_off_c, 0, 81, 0
2, 174592, Note_on_c, 0, 82, 96
2, 174848, Note_off_c, 0, 82, 0
2, 174848, Note_on_c, 0, 81, 96
2, 175104, Note_off_c, 0, 81, 0
2, 175104, Note_on_c, 0, 79, 96
2, 175360, Note_off_c, 0, 79, 0
2, 175360, Note_on_c, 0, 78, 96
2, 175616, Note_off_c, 0, 78, 0
2, 175616, Note_on_c, 0, 76, 96
2, 175872, Note_off_c, 0, 76, 0
2, 175872, Note_on_c, 0, 74, 96
2, 176128, Note_off_c, 0, 74, 0
2, 176128, Note_on_c, 0, 73, 96
2, 176640, Note_off_c, 0, 73, 0
2, 176640, Note_on_c, 0, 74, 96
2, 177152, Note_off_c, 0, 74, 0
2, 177152, Note_on_c, 0, 76, 96
2, 178432, Note_off_c, 0, 76, 0
2, 178432, Note_on_c, 0, 69, 96
2, 178688, Note_off_c, 0, 69, 0
2, 178688, Note_on_c, 0, 74, 96
2, 178944, Note_off_c, 0, 74, 0
2, 178944, Note_on_c, 0, 77, 96
2, 179200, Note_off_c, 0, 77, 0
2, 179200, Note_on_c, 0, 81, 96
2, 179456, Note_off_c, 0, 81, 0
2, 179456, Note_on_c, 0, 74, 96
2, 179712, Note_off_c, 0, 74, 0
2, 179712, Note_on_c, 0, 77, 96
2, 179968, Note_off_c, 0, 77, 0
2, 179968, Note_on_c, 0, 81, 96
2, 180224, Note_off_c, 0, 81, 0
2, 180224, Note_on_c, 0, 82, 96
2, 180480, Note_off_c, 0, 82, 0
2, 180480, Note_on_c, 0, 79, 96
2, 180736, Note_off_c, 0, 79, 0
2, 180736, Note_on_c, 0, 76, 96
2, 180992, Note_off_c, 0, 76, 0
2, 180992, Note_on_c, 0, 79, 96
2, 181248, Note_off_c, 0, 79, 0
2, 181248, Note_on_c, 0, 73, 96
2, 181504, Note_off_c, 0, 73, 0
2, 181504, Note_on_c, 0, 82, 96
2, 181760, Note_off_c, 0, 82, 0
2, 181760, Note_on_c, 0, 81, 96
2, 182016, Note_off_c, 0, 81, 0
2, 182016, Note_on_c, 0, 79, 96
2, 182272, Note_off_c, 0, 79, 0
2, 182272, Note_on_c, 0, 77, 96
2, 182528, Note_off_c, 0, 77, 0
2, 182528, Note_on_c, 0, 74, 96
2, 182784, Note_off_c, 0, 74, 0
2, 182784, Note_on_c, 0, 70, 96
2, 183040, Note_off_c, 0, 70, 0
2, 183040, Note_on_c, 0, 74, 96
2, 183296, Note_off_c, 0, 74, 0
2, 183296, Note_on_c, 0, 68, 96
2, 183552, Note_off_c, 0, 68, 0
2, 183552, Note_on_c, 0, 77, 96
2, 183808, Note_off_c, 0, 77, 0
2, 183808, Note_on_c, 0, 76, 96
2, 184064, Note_off_c, 0, 76, 0
2, 184064, Note_on_c, 0, 74, 96
2, 184320, Note_off_c, 0, 74, 0
2, 184320, Note_on_c, 0, 73, 96
2, 185344, Note_off_c, 0, 73, 0
2, 185600, Note_on_c, 0, 75, 96
2, 185856, Note_off_c, 0, 75, 0
2, 185856, Note_on_c, 0, 74, 96
2, 186112, Note_off_c, 0, 74, 0
2, 186112, Note_on_c, 0, 72, 96
2, 186368, Note_off_c, 0, 72, 0
2, 186368, Note_on_c, 0, 71, 96
2, 187392, Note_off_c, 0, 71, 0
2, 187648, Note_on_c, 0, 74, 96
2, 187904, Note_off_c, 0, 74, 0
2, 187904, Note_on_c, 0, 72, 96
2, 188160, Note_off_c, 0, 72, 0
2, 188160, Note_on_c, 0, 70, 96
2, 188416, Note_off_c, 0, 70, 0
2, 188416, Note_on_c, 0, 69, 96
2, 189440, Note_off_c, 0, 69, 0
2, 190464, Note_on_c, 0, 75, 96
2, 191488, Note_off_c, 0, 75, 0
2, 192512, Note_on_c, 0, 76, 96
2, 193024, Note_off_c, 0, 76, 0
2, 193024, Note_on_c, 0, 74, 96
2, 193536, Note_off_c, 0, 74, 0
2, 193536, Note_on_c, 0, 72, 96
2, 194560, Note_off_c, 0, 72, 0
2, 194560, Note_on_c, 0, 71, 96
2, 194816, Note_off_c, 0, 71, 0
2, 194816, Note_on_c, 0, 72, 96
2, 195072, Note_off_c, 0, 72, 0
2, 195072, Note_on_c, 0, 74, 96
2, 196608, Note_off_c, 0, 74, 0
2, 196608, Note_on_c, 0, 74, 96
2, 197120, Note_off_c, 0, 74, 0
2, 197120, Note_on_c, 0, 72, 96
2, 197632, Note_off_c, 0, 72, 0
2, 198144, Note_on_c, 0, 72, 96
2, 198656, Note_off_c, 0, 72, 0
2, 198656, Note_on_c, 0, 72, 96
2, 199168, Note_off_c, 0, 72, 0
2, 199168, Note_on_c, 0, 70, 96
2, 199680, Note_off_c, 0, 70, 0
2, 200192, Note_on_c, 0, 79, 96
2, 200704, Note_off_c, 0, 79, 0
2, 200704, Note_on_c, 0, 79, 96
2, 201216, Note_off_c, 0, 79, 0
2, 201216, Note_on_c, 0, 77, 96
2, 201728, Note_off_c, 0, 77, 0
2, 202240, Note_on_c, 0, 77, 96
2, 202752, Note_off_c, 0, 77, 0
2, 202752, Note_on_c, 0, 77, 96
2, 203264, Note_off_c, 0, 77, 0
2, 203264, Note_on_c, 0, 76, 96
2, 203776, Note_off_c, 0, 76, 0
2, 204288, Note_on_c, 0, 67, 96
2, 204800, Note_off_c, 0, 67, 0
2, 204800, Note_on_c, 0, 67, 96
2, 205312, Note_off_c, 0, 67, 0
2, 205312, Note_on_c, 0, 65, 96
2, 205824, Note_off_c, 0, 65, 0
2, 206336, Note_on_c, 0, 74, 96
2, 206848, Note_off_c, 0, 74, 0
2, 206848, Note_on_c, 0, 74, 96
2, 207360, Note_off_c, 0, 74, 0
2, 207360, Note_on_c, 0, 72, 96
2, 209408, Note_off_c, 0, 72, 0
2, 209408, Note_on_c, 0, 74, 96
2, 209664, Note_off_c, 0, 74, 0
2, 209664, Note_on_c, 0, 72, 96
2, 209920, Note_off_c, 0, 72, 0
2, 209920, Note_on_c, 0, 70, 96
2, 211456, Note_off_c, 0, 70, 0
2, 211456, Note_on_c, 0, 72, 96
2, 211712, Note_off_c, 0, 72, 0
2, 211712, Note_on_c, 0, 70, 96
2, 211968, Note_off_c, 0, 70, 0
2, 211968, Note_on_c, 0, 69, 96
2, 212480, Note_off_c, 0, 69, 0
2, 212480, Note_on_c, 0, 74, 96
2, 214016, Note_off_c, 0, 74, 0
2, 214016, Note_on_c, 0, 72, 96
2, 215040, Note_off_c, 0, 72, 0
2, 215296, Note_on_c, 0, 77, 96
2, 215552, Note_off_c, 0, 77, 0
2, 215552, Note_on_c, 0, 76, 96
2, 215808, Note_off_c, 0, 76, 0
2, 215808, Note_on_c, 0, 77, 96
2, 216064, Note_off_c, 0, 77, 0
2, 216064, Note_on_c, 0, 79, 96
2, 216320, Note_off_c, 0, 79, 0
2, 216320, Note_on_c, 0, 77, 96
2, 216576, Note_off_c, 0, 77, 0
2, 216576, Note_on_c, 0, 76, 96
2, 216832, Note_off_c, 0, 76, 0
2, 216832, Note_on_c, 0, 74, 96
2, 217088, Note_off_c, 0, 74, 0
2, 217088, Note_on_c, 0, 76, 96
2, 217600, Note_off_c, 0, 76, 0
2, 217600, Note_on_c, 0, 74, 96
2, 218112, Note_off_c, 0, 74, 0
2, 218112, Note_on_c, 0, 72, 96
2, 220160, Note_off_c, 0, 72, 0
2, 220160, Note_on_c, 0, 71, 96
2, 221184, Note_off_c, 0, 71, 0
2, 221184, Note_on_c, 0, 72, 96
2, 221696, Note_off_c, 0, 72, 0
2, 221696, Note_on_c, 0, 70, 96
2, 222208, Note_off_c, 0, 70, 0
2, 222208, Note_on_c, 0, 69, 96
2, 223232, Note_off_c, 0, 69, 0
2, 223232, Note_on_c, 0, 67, 96
2, 226304, Note_off_c, 0, 67, 0
2, 235776, Note_on_c, 0, 67, 96
2, 236032, Note_off_c, 0, 67, 0
2, 236032, Note_on_c, 0, 72, 96
2, 236288, Note_off_c, 0, 72, 0
2, 236288, Note_on_c, 0, 76, 96
2, 236544, Note_off_c, 0, 76, 0
2, 236544, Note_on_c, 0, 79, 96
2, 236800, Note_off_c, 0, 79, 0
2, 236800, Note_on_c, 0, 72, 96
2, 237056, Note_off_c, 0, 72, 0
2, 237056, Note_on_c, 0, 76, 96
2, 237312, Note_off_c, 0, 76, 0
2, 237312, Note_on_c, 0, 79, 96
2, 237568, Note_off_c, 0, 79, 0
2, 237568, Note_on_c, 0, 81, 96
2, 237824, Note_off_c, 0, 81, 0
2, 237824, Note_on_c, 0, 77, 96
2, 238080, Note_off_c, 0, 77, 0
2, 238080, Note_on_c, 0, 74, 96
2, 238336, Note_off_c, 0, 74, 0
2, 238336, Note_on_c, 0, 77, 96
2, 238592, Note_off_c, 0, 77, 0
2, 238592, Note_on_c, 0, 71, 96
2, 238848, Note_off_c, 0, 71, 0
2, 238848, Note_on_c, 0, 81, 96
2, 239104, Note_off_c, 0, 81, 0
2, 239104, Note_on_c, 0, 79, 96
2, 239360, Note_off_c, 0, 79, 0
2, 239360, Note_on_c, 0, 77, 96
2, 239616, Note_off_c, 0, 77, 0
2, 239616, Note_on_c, 0, 76, 96
2, 240128, Note_off_c, 0, 76, 0
2, 240128, Note_on_c, 0, 72, 96
2, 240384, Note_off_c, 0, 72, 0
2, 240384, Note_on_c, 0, 76, 96
2, 240640, Note_off_c, 0, 76, 0
2, 240640, Note_on_c, 0, 81, 96
2, 242176, Note_off_c, 0, 81, 0
2, 242176, Note_on_c, 0, 79, 96
2, 242432, Note_off_c, 0, 79, 0
2, 242432, Note_on_c, 0, 77, 96
2, 242688, Note_off_c, 0, 77, 0
2, 242688, Note_on_c, 0, 83, 96
2, 243712, Note_off_c, 0, 83, 0
2, 243712, Note_on_c, 0, 84, 96
2, 244224, Note_off_c, 0, 84, 0
2, 244224, Note_on_c, 0, 79, 96
2, 244736, Note_off_c, 0, 79, 0
2, 244736, Note_on_c, 0, 82, 96
2, 245248, Note_off_c, 0, 82, 0
2, 245248, Note_on_c, 0, 81, 96
2, 246272, Note_off_c, 0, 81, 0
2, 246272, Note_on_c, 0, 79, 96
2, 247296, Note_off_c, 0, 79, 0
2, 247296, Note_on_c, 0, 77, 96
2, 247552, Note_off_c, 0, 77, 0
2, 247552, Note_on_c, 0, 75, 96
2, 247808, Note_off_c, 0, 75, 0
2, 247808, Note_on_c, 0, 74, 96
2, 248064, Note_off_c, 0, 74, 0
2, 248064, Note_on_c, 0, 69, 96
2, 248320, Note_off_c, 0, 69, 0
2, 248320, Note_on_c, 0, 70, 96
2, 248576, Note_off_c, 0, 70, 0
2, 248576, Note_on_c, 0, 74, 96
2, 248832, Note_off_c, 0, 74, 0
2, 248832, Note_on_c, 0, 79, 96
2, 250112, Note_off_c, 0, 79, 0
2, 250112, Note_on_c, 0, 67, 96
2, 250368, Note_off_c, 0, 67, 0
2, 250368, Note_on_c, 0, 69, 96
2, 250624, Note_off_c, 0, 69, 0
2, 250624, Note_on_c, 0, 72, 96
2, 250880, Note_off_c, 0, 72, 0
2, 250880, Note_on_c, 0, 77, 96
2, 252416, Note_off_c, 0, 77, 0
2, 252416, Note_on_c, 0, 75, 96
2, 252672, Note_off_c, 0, 75, 0
2, 252672, Note_on_c, 0, 74, 96
2, 252928, Note_off_c, 0, 74, 0
2, 252928, Note_on_c, 0, 75, 96
2, 254464, Note_off_c, 0, 75, 0
2, 254464, Note_on_c, 0, 74, 96
2, 254720, Note_off_c, 0, 74, 0
2, 254720, Note_on_c, 0, 72, 96
2, 254976, Note_off_c, 0, 72, 0
2, 254976, Note_on_c, 0, 74, 96
2, 256000, Note_off_c, 0, 74, 0
2, 256000, Note_on_c, 0, 72, 96
2, 257536, Note_off_c, 0, 72, 0
2, 257536, Note_on_c, 0, 70, 96
2, 258560, Note_off_c, 0, 70, 0
2, 258560, Note_on_c, 0, 69, 96
2, 258816, Note_off_c, 0, 69, 0
2, 258816, Note_on_c, 0, 67, 96
2, 259072, Note_off_c, 0, 67, 0
2, 259072, Note_on_c, 0, 69, 96
2, 259584, Note_off_c, 0, 69, 0
2, 259584, Note_on_c, 0, 72, 96
2, 260608, Note_off_c, 0, 72, 0
2, 260608, Note_on_c, 0, 70, 96
2, 260864, Note_off_c, 0, 70, 0
2, 260864, Note_on_c, 0, 69, 96
2, 261120, Note_off_c, 0, 69, 0
2, 261120, Note_on_c, 0, 67, 96
2, 261376, Note_off_c, 0, 67, 0
2, 261376, Note_on_c, 0, 69, 96
2, 261632, Note_off_c, 0, 69, 0
2, 261632, Note_on_c, 0, 70, 96
2, 262656, Note_off_c, 0, 70, 0
2, 262656, Note_on_c, 0, 69, 96
2, 263168, Note_off_c, 0, 69, 0
2, 263168, Note_on_c, 0, 67, 96
2, 263936, Note_off_c, 0, 67, 0
2, 263936, Note_on_c, 0, 69, 96
2, 264192, Note_off_c, 0, 69, 0
2, 264192, Note_on_c, 0, 65, 96
2, 265472, Note_off_c, 0, 65, 0
2, 265472, Note_on_c, 0, 69, 96
2, 265728, Note_off_c, 0, 69, 0
2, 265728, Note_on_c, 0, 67, 96
2, 265984, Note_off_c, 0, 67, 0
2, 265984, Note_on_c, 0, 65, 96
2, 266240, Note_off_c, 0, 65, 0
2, 266240, Note_on_c, 0, 64, 96
2, 266496, Note_off_c, 0, 64, 0
2, 266496, Note_on_c, 0, 67, 96
2, 266752, Note_off_c, 0, 67, 0
2, 266752, Note_on_c, 0, 72, 96
2, 267008, Note_off_c, 0, 72, 0
2, 267008, Note_on_c, 0, 76, 96
2, 267264, Note_off_c, 0, 76, 0
2, 267264, Note_on_c, 0, 79, 96
2, 267520, Note_off_c, 0, 79, 0
2, 267520, Note_on_c, 0, 72, 96
2, 267776, Note_off_c, 0, 72, 0
2, 267776, Note_on_c, 0, 76, 96
2, 268032, Note_off_c, 0, 76, 0
2, 268032, Note_on_c, 0, 79, 96
2, 268288, Note_off_c, 0, 79, 0
2, 268288, Note_on_c, 0, 81, 96
2, 268544, Note_off_c, 0, 81, 0
2, 268544, Note_on_c, 0, 77, 96
2, 268800, Note_off_c, 0, 77, 0
2, 268800, Note_on_c, 0, 74, 96
2, 269056, Note_off_c, 0, 74, 0
2, 269056, Note_on_c, 0, 77, 96
2, 269312, Note_off_c, 0, 77, 0
2, 269312, Note_on_c, 0, 71, 96
2, 269568, Note_off_c, 0, 71, 0
2, 269568, Note_on_c, 0, 81, 96
2, 269824, Note_off_c, 0, 81, 0
2, 269824, Note_on_c, 0, 79, 96
2, 270080, Note_off_c, 0, 79, 0
2, 270080, Note_on_c, 0, 77, 96
2, 270336, Note_off_c, 0, 77, 0
2, 270336, Note_on_c, 0, 76, 96
2, 270848, Note_off_c, 0, 76, 0
2, 270848, Note_on_c, 0, 78, 96
2, 271360, Note_off_c, 0, 78, 0
2, 271360, Note_on_c, 0, 79, 96
2, 272896, Note_off_c, 0, 79, 0
2, 272896, Note_on_c, 0, 78, 96
2, 273152, Note_off_c, 0, 78, 0
2, 273152, Note_on_c, 0, 79, 96
2, 273408, Note_off_c, 0, 79, 0
2, 273408, Note_on_c, 0, 81, 96
2, 274944, Note_off_c, 0, 81, 0
2, 274944, Note_on_c, 0, 79, 96
2, 275968, Note_off_c, 0, 79, 0
2, 275968, Note_on_c, 0, 77, 96
2, 276480, Note_off_c, 0, 77, 0
2, 276480, Note_on_c, 0, 76, 96
2, 276736, Note_off_c, 0, 76, 0
2, 276736, Note_on_c, 0, 77, 96
2, 276992, Note_off_c, 0, 77, 0
2, 276992, Note_on_c, 0, 79, 96
2, 279040, Note_off_c, 0, 79, 0
2, 279040, Note_on_c, 0, 77, 96
2, 279552, Note_off_c, 0, 77, 0
2, 280064, Note_on_c, 0, 77, 96
2, 280576, Note_off_c, 0, 77, 0
2, 280576, Note_on_c, 0, 77, 96
2, 281088, Note_off_c, 0, 77, 0
2, 281088, Note_on_c, 0, 76, 96
2, 281600, Note_off_c, 0, 76, 0
2, 282112, Note_on_c, 0, 76, 96
2, 282624, Note_off_c, 0, 76, 0
2, 282624, Note_on_c, 0, 76, 96
2, 283136, Note_off_c, 0, 76, 0
2, 283136, Note_on_c, 0, 74, 96
2, 283648, Note_off_c, 0, 74, 0
2, 284160, Note_on_c, 0, 74, 96
2, 284672, Note_off_c, 0, 74, 0
2, 284672, Note_on_c, 0, 74, 96
2, 285184, Note_off_c, 0, 74, 0
2, 285184, Note_on_c, 0, 72, 96
2, 285952, Note_off_c, 0, 72, 0
2, 285952, Note_on_c, 0, 74, 96
2, 286208, Note_off_c, 0, 74, 0
2, 286208, Note_on_c, 0, 77, 96
2, 286464, Note_off_c, 0, 77, 0
2, 286464, Note_on_c, 0, 81, 96
2, 286720, Note_off_c, 0, 81, 0
2, 286720, Note_on_c, 0, 71, 96
2, 286976, Note_off_c, 0, 71, 0
2, 286976, Note_on_c, 0, 74, 96
2, 287232, Note_off_c, 0, 74, 0
2, 287232, Note_on_c, 0, 79, 96
2, 288000, Note_off_c, 0, 79, 0
2, 288000, Note_on_c, 0, 76, 96
2, 288256, Note_off_c, 0, 76, 0
2, 288256, Note_on_c, 0, 72, 96
2, 288512, Note_off_c, 0, 72, 0
2, 288512, Note_on_c, 0, 76, 96
2, 288768, Note_off_c, 0, 76, 0
2, 288768, Note_on_c, 0, 69, 96
2, 289024, Note_off_c, 0, 69, 0
2, 289024, Note_on_c, 0, 79, 96
2, 289280, Note_off_c, 0, 79, 0
2, 289280, Note_on_c, 0, 77, 96
2, 289536, Note_off_c, 0, 77, 0
2, 289536, Note_on_c, 0, 76, 96
2, 289792, Note_off_c, 0, 76, 0
2, 289792, Note_on_c, 0, 77, 96
2, 290048, Note_off_c, 0, 77, 0
2, 290048, Note_on_c, 0, 72, 96
2, 290304, Note_off_c, 0, 72, 0
2, 290304, Note_on_c, 0, 70, 96
2, 290560, Note_off_c, 0, 70, 0
2, 290560, Note_on_c, 0, 77, 96
2, 290816, Note_off_c, 0, 77, 0
2, 290816, Note_on_c, 0, 76, 96
2, 291072, Note_off_c, 0, 76, 0
2, 291072, Note_on_c, 0, 79, 96
2, 291328, Note_off_c, 0, 79, 0
2, 291328, Note_on_c, 0, 76, 96
2, 291584, Note_off_c, 0, 76, 0
2, 291584, Note_on_c, 0, 72, 96
2, 291840, Note_off_c, 0, 72, 0
2, 291840, Note_on_c, 0, 69, 96
2, 292096, Note_off_c, 0, 69, 0
2, 292096, Note_on_c, 0, 76, 96
2, 292352, Note_off_c, 0, 76, 0
2, 292352, Note_on_c, 0, 72, 96
2, 292608, Note_off_c, 0, 72, 0
2, 292608, Note_on_c, 0, 69, 96
2, 292864, Note_off_c, 0, 69, 0
2, 292864, Note_on_c, 0, 65, 96
2, 293120, Note_off_c, 0, 65, 0
2, 293120, Note_on_c, 0, 69, 96
2, 293376, Note_off_c, 0, 69, 0
2, 293376, Note_on_c, 0, 74, 96
2, 293632, Note_off_c, 0, 74, 0
2, 293632, Note_on_c, 0, 72, 96
2, 293888, Note_off_c, 0, 72, 0
2, 293888, Note_on_c, 0, 74, 96
2, 294144, Note_off_c, 0, 74, 0
2, 294144, Note_on_c, 0, 70, 96
2, 294400, Note_off_c, 0, 70, 0
2, 294400, Note_on_c, 0, 67, 96
2, 294656, Note_off_c, 0, 67, 0
2, 294656, Note_on_c, 0, 70, 96
2, 294912, Note_off_c, 0, 70, 0
2, 294912, Note_on_c, 0, 64, 96
2, 295424, Note_off_c, 0, 64, 0
2, 296448, Note_on_c, 0, 77, 96
2, 296960, Note_off_c, 0, 77, 0
2, 296960, Note_on_c, 0, 74, 96
2, 297472, Note_off_c, 0, 74, 0
2, 297472, Note_on_c, 0, 82, 96
2, 298496, Note_off_c, 0, 82, 0
2, 298496, Note_on_c, 0, 81, 96
2, 298752, Note_off_c, 0, 81, 0
2, 298752, Note_on_c, 0, 79, 96
2, 299008, Note_off_c, 0, 79, 0
2, 299008, Note_on_c, 0, 77, 96
2, 299264, Note_off_c, 0, 77, 0
2, 299264, Note_on_c, 0, 79, 96
2, 299520, Note_off_c, 0, 79, 0
2, 299520, Note_on_c, 0, 76, 96
2, 299776, Note_off_c, 0, 76, 0
2, 299776, Note_on_c, 0, 77, 96
2, 300032, Note_off_c, 0, 77, 0
2, 300032, Note_on_c, 0, 79, 96
2, 300288, Note_off_c, 0, 79, 0
2, 300288, Note_on_c, 0, 77, 96
2, 300544, Note_off_c, 0, 77, 0
2, 300544, Note_on_c, 0, 76, 96
2, 300800, Note_off_c, 0, 76, 0
2, 300800, Note_on_c, 0, 74, 96
2, 301056, Note_off_c, 0, 74, 0
2, 301056, Note_on_c, 0, 72, 96
2, 301312, Note_off_c, 0, 72, 0
2, 301312, Note_on_c, 0, 74, 96
2, 301568, Note_off_c, 0, 74, 0
2, 301568, Note_on_c, 0, 75, 96
2, 302592, Note_off_c, 0, 75, 0
2, 302592, Note_on_c, 0, 74, 96
2, 302848, Note_off_c, 0, 74, 0
2, 302848, Note_on_c, 0, 72, 96
2, 303104, Note_off_c, 0, 72, 0
2, 303104, Note_on_c, 0, 70, 96
2, 303360, Note_off_c, 0, 70, 0
2, 303360, Note_on_c, 0, 72, 96
2, 303616, Note_off_c, 0, 72, 0
2, 303616, Note_on_c, 0, 69, 96
2, 303872, Note_off_c, 0, 69, 0
2, 303872, Note_on_c, 0, 70, 96
2, 304128, Note_off_c, 0, 70, 0
2, 304128, Note_on_c, 0, 72, 96
2, 304384, Note_off_c, 0, 72, 0
2, 304384, Note_on_c, 0, 70, 96
2, 304640, Note_off_c, 0, 70, 0
2, 304640, Note_on_c, 0, 69, 96
2, 304896, Note_off_c, 0, 69, 0
2, 304896, Note_on_c, 0, 67, 96
2, 305152, Note_off_c, 0, 67, 0
2, 305152, Note_on_c, 0, 65, 96
2, 305664, Note_off_c, 0, 65, 0
2, 305664, Note_on_c, 0, 70, 96
2, 306176, Note_off_c, 0, 70, 0
2, 306176, Note_on_c, 0, 64, 96
2, 306688, Note_off_c, 0, 64, 0
2, 306688, Note_on_c, 0, 67, 96
2, 307200, Note_off_c, 0, 67, 0
2, 307200, Note_on_c, 0, 65, 96
2, 307712, Note_off_c, 0, 65, 0
2, 307712, Note_on_c, 0, 69, 96
2, 308736, Note_off_c, 0, 69, 0
2, 308736, Note_on_c, 0, 67, 96
2, 308992, Note_off_c, 0, 67, 0
2, 308992, Note_on_c, 0, 65, 96
2, 309248, Note_off_c, 0, 65, 0
2, 309248, Note_on_c, 0, 64, 96
2, 309504, Note_off_c, 0, 64, 0
2, 309504, Note_on_c, 0, 60, 96
2, 309760, Note_off_c, 0, 60, 0
2, 309760, Note_on_c, 0, 64, 96
2, 310016, Note_off_c, 0, 64, 0
2, 310016, Note_on_c, 0, 67, 96
2, 310272, Note_off_c, 0, 67, 0
2, 310272, Note_on_c, 0, 72, 96
2, 310528, Note_off_c, 0, 72, 0
2, 310528, Note_on_c, 0, 67, 96
2, 310784, Note_off_c, 0, 67, 0
2, 310784, Note_on_c, 0, 72, 96
2, 311040, Note_off_c, 0, 72, 0
2, 311040, Note_on_c, 0, 74, 96
2, 311296, Note_off_c, 0, 74, 0
2, 311296, Note_on_c, 0, 75, 96
2, 311552, Note_off_c, 0, 75, 0
2, 311552, Note_on_c, 0, 72, 96
2, 311808, Note_off_c, 0, 72, 0
2, 311808, Note_on_c, 0, 69, 96
2, 312064, Note_off_c, 0, 69, 0
2, 312064, Note_on_c, 0, 72, 96
2, 312320, Note_off_c, 0, 72, 0
2, 312320, Note_on_c, 0, 66, 96
2, 312576, Note_off_c, 0, 66, 0
2, 312576, Note_on_c, 0, 75, 96
2, 312832, Note_off_c, 0, 75, 0
2, 312832, Note_on_c, 0, 74, 96
2, 313088, Note_off_c, 0, 74, 0
2, 313088, Note_on_c, 0, 72, 96
2, 313344, Note_off_c, 0, 72, 0
2, 313344, Note_on_c, 0, 71, 96
2, 313600, Note_off_c, 0, 71, 0
2, 313600, Note_on_c, 0, 67, 96
2, 313856, Note_off_c, 0, 67, 0
2, 313856, Note_on_c, 0, 71, 96
2, 314112, Note_off_c, 0, 71, 0
2, 314112, Note_on_c, 0, 74, 96
2, 314368, Note_off_c, 0, 74, 0
2, 314368, Note_on_c, 0, 76, 96
2, 315904, Note_off_c, 0, 76, 0
2, 315904, Note_on_c, 0, 74, 96
2, 316928, Note_off_c, 0, 74, 0
2, 316928, Note_on_c, 0, 72, 96
2, 317696, Note_off_c, 0, 72, 0
2, 317696, Note_on_c, 0, 69, 96
2, 317952, Note_off_c, 0, 69, 0
2, 317952, Note_on_c, 0, 71, 96
2, 318208, Note_off_c, 0, 71, 0
2, 318208, Note_on_c, 0, 74, 96
2, 318464, Note_off_c, 0, 74, 0
2, 318464, Note_on_c, 0, 77, 96
2, 318976, Note_off_c, 0, 77, 0
2, 318976, Note_on_c, 0, 71, 96
2, 319488, Note_off_c, 0, 71, 0
2, 319488, Note_on_c, 0, 72, 96
2, 320512, Note_off_c, 0, 72, 0
2, 320512, Note_on_c, 0, 74, 96
2, 321536, Note_off_c, 0, 74, 0
2, 321536, Note_on_c, 0, 76, 96
2, 321792, Note_off_c, 0, 76, 0
2, 321792, Note_on_c, 0, 72, 96
2, 322048, Note_off_c, 0, 72, 0
2, 322048, Note_on_c, 0, 69, 96
2, 322304, Note_off_c, 0, 69, 0
2, 322304, Note_on_c, 0, 72, 96
2, 322560, Note_off_c, 0, 72, 0
2, 322560, Note_on_c, 0, 65, 96
2, 322816, Note_off_c, 0, 65, 0
2, 322816, Note_on_c, 0, 76, 96
2, 323072, Note_off_c, 0, 76, 0
2, 323072, Note_on_c, 0, 74, 96
2, 323328, Note_off_c, 0, 74, 0
2, 323328, Note_on_c, 0, 72, 96
2, 323584, Note_off_c, 0, 72, 0
2, 323584, Note_on_c, 0, 71, 96
2, 323840, Note_off_c, 0, 71, 0
2, 323840, Note_on_c, 0, 72, 96
2, 324096, Note_off_c, 0, 72, 0
2, 324096, Note_on_c, 0, 69, 96
2, 324352, Note_off_c, 0, 69, 0
2, 324352, Note_on_c, 0, 71, 96
2, 324608, Note_off_c, 0, 71, 0
2, 324608, Note_on_c, 0, 72, 96
2, 324864, Note_off_c, 0, 72, 0
2, 324864, Note_on_c, 0, 69, 96
2, 325120, Note_off_c, 0, 69, 0
2, 325120, Note_on_c, 0, 67, 96
2, 325376, Note_off_c, 0, 67, 0
2, 325376, Note_on_c, 0, 65, 96
2, 325632, Note_off_c, 0, 65, 0
2, 325632, Note_on_c, 0, 64, 96
2, 326144, Note_off_c, 0, 64, 0
2, 326144, Note_on_c, 0, 72, 96
2, 327168, Note_off_c, 0, 72, 0
2, 327168, Note_on_c, 0, 71, 96
2, 327424, Note_off_c, 0, 71, 0
2, 327424, Note_on_c, 0, 69, 96
2, 327680, Note_off_c, 0, 69, 0
2, 327680, Note_on_c, 0, 67, 96
2, 327936, Note_off_c, 0, 67, 0
2, 327936, Note_on_c, 0, 69, 96
2, 328192, Note_off_c, 0, 69, 0
2, 328192, Note_on_c, 0, 65, 96
2, 328448, Note_off_c, 0, 65, 0
2, 328448, Note_on_c, 0, 67, 96
2, 328704, Note_off_c, 0, 67, 0
2, 328704, Note_on_c, 0, 69, 96
2, 328960, Note_off_c, 0, 69, 0
2, 328960, Note_on_c, 0, 67, 96
2, 329216, Note_off_c, 0, 67, 0
2, 329216, Note_on_c, 0, 65, 96
2, 329472, Note_off_c, 0, 65, 0
2, 329472, Note_on_c, 0, 64, 96
2, 329728, Note_off_c, 0, 64, 0
2, 329728, Note_on_c, 0, 62, 96
2, 329984, Note_off_c, 0, 62, 0
2, 329984, Note_on_c, 0, 64, 96
2, 330240, Note_off_c, 0, 64, 0
2, 330240, Note_on_c, 0, 65, 96
2, 331264, Note_off_c, 0, 65, 0
2, 331264, Note_on_c, 0, 64, 96
2, 331520, Note_off_c, 0, 64, 0
2, 331520, Note_on_c, 0, 62, 96
2, 331776, Note_off_c, 0, 62, 0
2, 331776, Note_on_c, 0, 64, 96
2, 332032, Note_off_c, 0, 64, 0
2, 332032, Note_on_c, 0, 60, 96
2, 332288, Note_off_c, 0, 60, 0
2, 332288, Note_on_c, 0, 64, 96
2, 332544, Note_off_c, 0, 64, 0
2, 332544, Note_on_c, 0, 67, 96
2, 332800, Note_off_c, 0, 67, 0
2, 332800, Note_on_c, 0, 72, 96
2, 333056, Note_off_c, 0, 72, 0
2, 333056, Note_on_c, 0, 65, 96
2, 333312, Note_off_c, 0, 65, 0
2, 333312, Note_on_c, 0, 69, 96
2, 333568, Note_off_c, 0, 69, 0
2, 333568, Note_on_c, 0, 72, 96
2, 333824, Note_off_c, 0, 72, 0
2, 333824, Note_on_c, 0, 74, 96
2, 334080, Note_off_c, 0, 74, 0
2, 334080, Note_on_c, 0, 70, 96
2, 334336, Note_off_c, 0, 70, 0
2, 334336, Note_on_c, 0, 67, 96
2, 334592, Note_off_c, 0, 67, 0
2, 334592, Note_on_c, 0, 70, 96
2, 334848, Note_off_c, 0, 70, 0
2, 334848, Note_on_c, 0, 64, 96
2, 335104, Note_off_c, 0, 64, 0
2, 335104, Note_on_c, 0, 74, 96
2, 335360, Note_off_c, 0, 74, 0
2, 335360, Note_on_c, 0, 72, 96
2, 335616, Note_off_c, 0, 72, 0
2, 335616, Note_on_c, 0, 70, 96
2, 335872, Note_off_c, 0, 70, 0
2, 335872, Note_on_c, 0, 69, 96
2, 336384, Note_off_c, 0, 69, 0
2, 336896, Note_on_c, 0, 74, 96
2, 338944, Note_off_c, 0, 74, 0
2, 338944, Note_on_c, 0, 76, 96
2, 339968, Note_off_c, 0, 76, 0
2, 339968, Note_on_c, 0, 77, 96
2, 340480, Note_off_c, 0, 77, 0
2, 342528, Note_on_c, 0, 79, 96
2, 343552, Note_off_c, 0, 79, 0
2, 343552, Note_on_c, 0, 77, 96
2, 344064, Note_off_c, 0, 77, 0
2, 344064, Note_on_c, 0, 76, 96
2, 344320, Note_off_c, 0, 76, 0
2, 344320, Note_on_c, 0, 77, 96
2, 344576, Note_off_c, 0, 77, 0
2, 344576, Note_on_c, 0, 74, 96
2, 344832, Note_off_c, 0, 74, 0
2, 344832, Note_on_c, 0, 76, 96
2, 345088, Note_off_c, 0, 76, 0
2, 345088, Note_on_c, 0, 77, 96
2, 345344, Note_off_c, 0, 77, 0
2, 345344, Note_on_c, 0, 75, 96
2, 345600, Note_off_c, 0, 75, 0
2, 345600, Note_on_c, 0, 74, 96
2, 345856, Note_off_c, 0, 74, 0
2, 345856, Note_on_c, 0, 72, 96
2, 346112, Note_off_c, 0, 72, 0
2, 346112, Note_on_c, 0, 74, 96
2, 347136, Note_off_c, 0, 74, 0
2, 349696, Note_on_c, 0, 78, 96
2, 350208, Note_off_c, 0, 78, 0
2, 350208, Note_on_c, 0, 79, 96
2, 350720, Note_off_c, 0, 79, 0
2, 350720, Note_on_c, 0, 82, 96
2, 351744, Note_off_c, 0, 82, 0
2, 351744, Note_on_c, 0, 81, 96
2, 352000, Note_off_c, 0, 81, 0
2, 352000, Note_on_c, 0, 79, 96
2, 352256, Note_off_c, 0, 79, 0
2, 352256, Note_on_c, 0, 77, 96
2, 352512, Note_off_c, 0, 77, 0
2, 352512, Note_on_c, 0, 79, 96
2, 352768, Note_off_c, 0, 79, 0
2, 352768, Note_on_c, 0, 76, 96
2, 353024, Note_off_c, 0, 76, 0
2, 353024, Note_on_c, 0, 77, 96
2, 353280, Note_off_c, 0, 77, 0
2, 353280, Note_on_c, 0, 79, 96
2, 353536, Note_off_c, 0, 79, 0
2, 353536, Note_on_c, 0, 77, 96
2, 353792, Note_off_c, 0, 77, 0
2, 353792, Note_on_c, 0, 76, 96
2, 354048, Note_off_c, 0, 76, 0
2, 354048, Note_on_c, 0, 74, 96
2, 354304, Note_off_c, 0, 74, 0
2, 354304, Note_on_c, 0, 72, 96
2, 356608, Note_off_c, 0, 72, 0
2, 356608, Note_on_c, 0, 74, 96
2, 356864, Note_off_c, 0, 74, 0
2, 356864, Note_on_c, 0, 70, 96
2, 357120, Note_off_c, 0, 70, 0
2, 357120, Note_on_c, 0, 72, 96
2, 357376, Note_off_c, 0, 72, 0
2, 357376, Note_on_c, 0, 74, 96
2, 357632, Note_off_c, 0, 74, 0
2, 357632, Note_on_c, 0, 72, 96
2, 357888, Note_off_c, 0, 72, 0
2, 357888, Note_on_c, 0, 70, 96
2, 358144, Note_off_c, 0, 70, 0
2, 358144, Note_on_c, 0, 69, 96
2, 358400, Note_off_c, 0, 69, 0
2, 358400, Note_on_c, 0, 67, 96
2, 358656, Note_off_c, 0, 67, 0
2, 358656, Note_on_c, 0, 69, 96
2, 358912, Note_off_c, 0, 69, 0
2, 358912, Note_on_c, 0, 70, 96
2, 359936, Note_off_c, 0, 70, 0
2, 359936, Note_on_c, 0, 69, 96
2, 360192, Note_off_c, 0, 69, 0
2, 360192, Note_on_c, 0, 67, 96
2, 360448, Note_off_c, 0, 67, 0
2, 360448, Note_on_c, 0, 69, 96
2, 361472, Note_off_c, 0, 69, 0
2, 364800, Note_on_c, 0, 65, 96
2, 365056, Note_off_c, 0, 65, 0
2, 365056, Note_on_c, 0, 64, 96
2, 365312, Note_off_c, 0, 64, 0
2, 365312, Note_on_c, 0, 65, 96
2, 365568, Note_off_c, 0, 65, 0
2, 365568, Note_on_c, 0, 67, 96
2, 365824, Note_off_c, 0, 67, 0
2, 365824, Note_on_c, 0, 65, 96
2, 366080, Note_off_c, 0, 65, 0
2, 366080, Note_on_c, 0, 64, 96
2, 366336, Note_off_c, 0, 64, 0
2, 366336, Note_on_c, 0, 62, 96
2, 366592, Note_off_c, 0, 62, 0
2, 366592, Note_on_c, 0, 60, 96
2, 366848, Note_off_c, 0, 60, 0
2, 366848, Note_on_c, 0, 72, 96
2, 367104, Note_off_c, 0, 72, 0
2, 367104, Note_on_c, 0, 70, 96
2, 367360, Note_off_c, 0, 70, 0
2, 367360, Note_on_c, 0, 72, 96
2, 367616, Note_off_c, 0, 72, 0
2, 367616, Note_on_c, 0, 74, 96
2, 367872, Note_off_c, 0, 74, 0
2, 367872, Note_on_c, 0, 72, 96
2, 368128, Note_off_c, 0, 72, 0
2, 368128, Note_on_c, 0, 70, 96
2, 368384, Note_off_c, 0, 70, 0
2, 368384, Note_on_c, 0, 69, 96
2, 368640, Note_off_c, 0, 69, 0
2, 368640, Note_on_c, 0, 67, 96
2, 368896, Note_off_c, 0, 67, 0
2, 368896, Note_on_c, 0, 79, 96
2, 369152, Note_off_c, 0, 79, 0
2, 369152, Note_on_c, 0, 77, 96
2, 369408, Note_off_c, 0, 77, 0
2, 369408, Note_on_c, 0, 79, 96
2, 369664, Note_off_c, 0, 79, 0
2, 369664, Note_on_c, 0, 81, 96
2, 369920, Note_off_c, 0, 81, 0
2, 369920, Note_on_c, 0, 79, 96
2, 370176, Note_off_c, 0, 79, 0
2, 370176, Note_on_c, 0, 77, 96
2, 370432, Note_off_c, 0, 77, 0
2, 370432, Note_on_c, 0, 76, 96
2, 370688, Note_off_c, 0, 76, 0
2, 370688, Note_on_c, 0, 74, 96
2, 371456, Note_off_c, 0, 74, 0
2, 371456, Note_on_c, 0, 76, 96
2, 371712, Note_off_c, 0, 76, 0
2, 371712, Note_on_c, 0, 77, 96
2, 371776, Note_off_c, 0, 77, 0
2, 371776, Note_on_c, 0, 76, 96
2, 371840, Note_off_c, 0, 76, 0
2, 371840, Note_on_c, 0, 77, 96
2, 371904, Note_off_c, 0, 77, 0
2, 371904, Note_on_c, 0, 76, 96
2, 371968, Note_off_c, 0, 76, 0
2, 371968, Note_on_c, 0, 77, 96
2, 372032, Note_off_c, 0, 77, 0
2, 372032, Note_on_c, 0, 76, 96
2, 372480, Note_off_c, 0, 76, 0
2, 372480, Note_on_c, 0, 77, 96
2, 372736, Note_off_c, 0, 77, 0
2, 372736, Note_on_c, 0, 77, 96
2, 374784, Note_off_c, 0, 77, 0
2, 374784, Note_on_c, 0, 76, 96
2, 377088, Note_off_c, 0, 76, 0
2, 377088, Note_on_c, 0, 74, 96
2, 377344, Note_off_c, 0, 74, 0
2, 377344, Note_on_c, 0, 73, 96
2, 377600, Note_off_c, 0, 73, 0
2, 377600, Note_on_c, 0, 74, 96
2, 377856, Note_off_c, 0, 74, 0
2, 377856, Note_on_c, 0, 76, 96
2, 378112, Note_off_c, 0, 76, 0
2, 378112, Note_on_c, 0, 74, 96
2, 378368, Note_off_c, 0, 74, 0
2, 378368, Note_on_c, 0, 73, 96
2, 378624, Note_off_c, 0, 73, 0
2, 378624, Note_on_c, 0, 74, 96
2, 378880, Note_off_c, 0, 74, 0
2, 378880, Note_on_c, 0, 73, 96
2, 379648, Note_off_c, 0, 73, 0
2, 379648, Note_on_c, 0, 69, 96
2, 379904, Note_off_c, 0, 69, 0
2, 379904, Note_on_c, 0, 74, 96
2, 381696, Note_off_c, 0, 74, 0
2, 381696, Note_on_c, 0, 76, 96
2, 381952, Note_off_c, 0, 76, 0
2, 381952, Note_on_c, 0, 72, 96
2, 384000, Note_off_c, 0, 72, 0
2, 384000, Note_on_c, 0, 70, 96
2, 384768, Note_off_c, 0, 70, 0
2, 384768, Note_on_c, 0, 75, 96
2, 385024, Note_off_c, 0, 75, 0
2, 385024, Note_on_c, 0, 69, 96
2, 385280, Note_off_c, 0, 69, 0
2, 385280, Note_on_c, 0, 72, 96
2, 385536, Note_off_c, 0, 72, 0
2, 385536, Note_on_c, 0, 70, 96
2, 385792, Note_off_c, 0, 70, 0
2, 385792, Note_on_c, 0, 72, 96
2, 386048, Note_off_c, 0, 72, 0
2, 386048, Note_on_c, 0, 74, 96
2, 386304, Note_off_c, 0, 74, 0
2, 386304, Note_on_c, 0, 72, 96
2, 386560, Note_off_c, 0, 72, 0
2, 386560, Note_on_c, 0, 70, 96
2, 386816, Note_off_c, 0, 70, 0
2, 386816, Note_on_c, 0, 69, 96
2, 387072, Note_off_c, 0, 69, 0
2, 387072, Note_on_c, 0, 70, 96
2, 387328, Note_off_c, 0, 70, 0
2, 387328, Note_on_c, 0, 77, 96
2, 387584, Note_off_c, 0, 77, 0
2, 387584, Note_on_c, 0, 76, 96
2, 387840, Note_off_c, 0, 76, 0
2, 387840, Note_on_c, 0, 77, 96
2, 388096, Note_off_c, 0, 77, 0
2, 388096, Note_on_c, 0, 79, 96
2, 388352, Note_off_c, 0, 79, 0
2, 388352, Note_on_c, 0, 77, 96
2, 388608, Note_off_c, 0, 77, 0
2, 388608, Note_on_c, 0, 76, 96
2, 388864, Note_off_c, 0, 76, 0
2, 388864, Note_on_c, 0, 74, 96
2, 389120, Note_off_c, 0, 74, 0
2, 389120, Note_on_c, 0, 73, 96
2, 389632, Note_off_c, 0, 73, 0
2, 391424, Note_on_c, 0, 69, 96
2, 391680, Note_off_c, 0, 69, 0
2, 391680, Note_on_c, 0, 70, 96
2, 391936, Note_off_c, 0, 70, 0
2, 391936, Note_on_c, 0, 69, 96
2, 392192, Note_off_c, 0, 69, 0
2, 392192, Note_on_c, 0, 67, 96
2, 392448, Note_off_c, 0, 67, 0
2, 392448, Note_on_c, 0, 69, 96
2, 392704, Note_off_c, 0, 69, 0
2, 392704, Note_on_c, 0, 71, 96
2, 392960, Note_off_c, 0, 71, 0
2, 392960, Note_on_c, 0, 73, 96
2, 393216, Note_off_c, 0, 73, 0
2, 393216, Note_on_c, 0, 74, 96
2, 395776, Note_off_c, 0, 74, 0
2, 395776, Note_on_c, 0, 79, 96
2, 396288, Note_off_c, 0, 79, 0
2, 396288, Note_on_c, 0, 78, 96
2, 396800, Note_off_c, 0, 78, 0
2, 396800, Note_on_c, 0, 81, 96
2, 397312, Note_off_c, 0, 81, 0
2, 397312, Note_on_c, 0, 74, 96
2, 397824, Note_off_c, 0, 74, 0
2, 397824, Note_on_c, 0, 73, 96
2, 398336, Note_off_c, 0, 73, 0
2, 398848, Note_on_c, 0, 76, 96
2, 399360, Note_off_c, 0, 76, 0
2, 399360, Note_on_c, 0, 76, 96
2, 399872, Note_off_c, 0, 76, 0
2, 399872, Note_on_c, 0, 74, 96
2, 400384, Note_off_c, 0, 74, 0
2, 400896, Note_on_c, 0, 81, 96
2, 401408, Note_off_c, 0, 81, 0
2, 401408, Note_on_c, 0, 81, 96
2, 401920, Note_off_c, 0, 81, 0
2, 401920, Note_on_c, 0, 79, 96
2, 402432, Note_off_c, 0, 79, 0
2, 402944, Note_on_c, 0, 79, 96
2, 403456, Note_off_c, 0, 79, 0
2, 403456, Note_on_c, 0, 79, 96
2, 403968, Note_off_c, 0, 79, 0
2, 403968, Note_on_c, 0, 77, 96
2, 404224, Note_off_c, 0, 77, 0
2, 404224, Note_on_c, 0, 76, 96
2, 404480, Note_off_c, 0, 76, 0
2, 404480, Note_on_c, 0, 77, 96
2, 405504, Note_off_c, 0, 77, 0
2, 405504, Note_on_c, 0, 76, 96
2, 407552, Note_off_c, 0, 76, 0
2, 407808, Note_on_c, 0, 81, 96
2, 408064, Note_off_c, 0, 81, 0
2, 408064, Note_on_c, 0, 79, 96
2, 408320, Note_off_c, 0, 79, 0
2, 408320, Note_on_c, 0, 81, 96
2, 408576, Note_off_c, 0, 81, 0
2, 408576, Note_on_c, 0, 82, 96
2, 408832, Note_off_c, 0, 82, 0
2, 408832, Note_on_c, 0, 81, 96
2, 409088, Note_off_c, 0, 81, 0
2, 409088, Note_on_c, 0, 79, 96
2, 409344, Note_off_c, 0, 79, 0
2, 409344, Note_on_c, 0, 77, 96
2, 409600, Note_off_c, 0, 77, 0
2, 409600, Note_on_c, 0, 76, 96
2, 410624, Note_off_c, 0, 76, 0
2, 410624, Note_on_c, 0, 77, 96
2, 412160, Note_off_c, 0, 77, 0
2, 412160, Note_on_c, 0, 76, 96
2, 412416, Note_off_c, 0, 76, 0
2, 412416, Note_on_c, 0, 74, 96
2, 412672, Note_off_c, 0, 74, 0
2, 412672, Note_on_c, 0, 76, 96
2, 413696, Note_off_c, 0, 76, 0
2, 413696, Note_on_c, 0, 77, 96
2, 414720, Note_off_c, 0, 77, 0
2, 416000, Note_on_c, 0, 79, 96
2, 416256, Note_off_c, 0, 79, 0
2, 416256, Note_on_c, 0, 76, 96
2, 416512, Note_off_c, 0, 76, 0
2, 416512, Note_on_c, 0, 77, 96
2, 416768, Note_off_c, 0, 77, 0
2, 416768, Note_on_c, 0, 79, 96
2, 417024, Note_off_c, 0, 79, 0
2, 417024, Note_on_c, 0, 77, 96
2, 417280, Note_off_c, 0, 77, 0
2, 417280, Note_on_c, 0, 76, 96
2, 417536, Note_off_c, 0, 76, 0
2, 417536, Note_on_c, 0, 74, 96
2, 417792, Note_off_c, 0, 74, 0
2, 417792, Note_on_c, 0, 72, 96
2, 420096, Note_off_c, 0, 72, 0
2, 420096, Note_on_c, 0, 69, 96
2, 420352, Note_off_c, 0, 69, 0
2, 420352, Note_on_c, 0, 70, 96
2, 420608, Note_off_c, 0, 70, 0
2, 420608, Note_on_c, 0, 74, 96
2, 420864, Note_off_c, 0, 74, 0
2, 420864, Note_on_c, 0, 72, 96
2, 421120, Note_off_c, 0, 72, 0
2, 421120, Note_on_c, 0, 70, 96
2, 421376, Note_off_c, 0, 70, 0
2, 421376, Note_on_c, 0, 69, 96
2, 421632, Note_off_c, 0, 69, 0
2, 421632, Note_on_c, 0, 67, 96
2, 421888, Note_off_c, 0, 67, 0
2, 421888, Note_on_c, 0, 69, 96
2, 422144, Note_off_c, 0, 69, 0
2, 422144, Note_on_c, 0, 65, 96
2, 422400, Note_off_c, 0, 65, 0
2, 422400, Note_on_c, 0, 69, 96
2, 422656, Note_off_c, 0, 69, 0
2, 422656, Note_on_c, 0, 72, 96
2, 422912, Note_off_c, 0, 72, 0
2, 422912, Note_on_c, 0, 77, 96
2, 423168, Note_off_c, 0, 77, 0
2, 423168, Note_on_c, 0, 72, 96
2, 423424, Note_off_c, 0, 72, 0
2, 423424, Note_on_c, 0, 77, 96
2, 423680, Note_off_c, 0, 77, 0
2, 423680, Note_on_c, 0, 79, 96
2, 423936, Note_off_c, 0, 79, 0
2, 423936, Note_on_c, 0, 80, 96
2, 424192, Note_off_c, 0, 80, 0
2, 424192, Note_on_c, 0, 77, 96
2, 424448, Note_off_c, 0, 77, 0
2, 424448, Note_on_c, 0, 74, 96
2, 424704, Note_off_c, 0, 74, 0
2, 424704, Note_on_c, 0, 77, 96
2, 424960, Note_off_c, 0, 77, 0
2, 424960, Note_on_c, 0, 71, 96
2, 425216, Note_off_c, 0, 71, 0
2, 425216, Note_on_c, 0, 80, 96
2, 425472, Note_off_c, 0, 80, 0
2, 425472, Note_on_c, 0, 79, 96
2, 425728, Note_off_c, 0, 79, 0
2, 425728, Note_on_c, 0, 77, 96
2, 425984, Note_off_c, 0, 77, 0
2, 425984, Note_on_c, 0, 76, 96
2, 427264, Note_off_c, 0, 76, 0
2, 427264, Note_on_c, 0, 72, 96
2, 427520, Note_off_c, 0, 72, 0
2, 427520, Note_on_c, 0, 77, 96
2, 428288, Note_off_c, 0, 77, 0
2, 428288, Note_on_c, 0, 77, 96
2, 428544, Note_off_c, 0, 77, 0
2, 428544, Note_on_c, 0, 76, 96
2, 428800, Note_off_c, 0, 76, 0
2, 428800, Note_on_c, 0, 74, 96
2, 429056, Note_off_c, 0, 74, 0
2, 429056, Note_on_c, 0, 76, 96
2, 429824, Note_off_c, 0, 76, 0
2, 429824, Note_on_c, 0, 76, 96
2, 430080, Note_off_c, 0, 76, 0
2, 430080, Note_on_c, 0, 77, 96
2, 434176, Note_off_c, 0, 77, 0
2, 434176, End_track
3, 0, Start_track
3, 0, Title_t, "Instrument 2"
3, 256, Note_on_c, 1, 60, 96
3, 512, Note_off_c, 1, 60, 0
3, 512, Note_on_c, 1, 65, 96
3, 768, Note_off_c, 1, 65, 0
3, 768, Note_on_c, 1, 69, 96
3, 1024, Note_off_c, 1, 69, 0
3, 1024, Note_on_c, 1, 72, 96
3, 1280, Note_off_c, 1, 72, 0
3, 1280, Note_on_c, 1, 65, 96
3, 1536, Note_off_c, 1, 65, 0
3, 1536, Note_on_c, 1, 69, 96
3, 1792, Note_off_c, 1, 69, 0
3, 1792, Note_on_c, 1, 72, 96
3, 2048, Note_off_c, 1, 72, 0
3, 2048, Note_on_c, 1, 74, 96
3, 2304, Note_off_c, 1, 74, 0
3, 2304, Note_on_c, 1, 70, 96
3, 2560, Note_off_c, 1, 70, 0
3, 2560, Note_on_c, 1, 67, 96
3, 2816, Note_off_c, 1, 67, 0
3, 2816, Note_on_c, 1, 70, 96
3, 3072, Note_off_c, 1, 70, 0
3, 3072, Note_on_c, 1, 64, 96
3, 3328, Note_off_c, 1, 64, 0
3, 3328, Note_on_c, 1, 74, 96
3, 3584, Note_off_c, 1, 74, 0
3, 3584, Note_on_c, 1, 72, 96
3, 3840, Note_off_c, 1, 72, 0
3, 3840, Note_on_c, 1, 70, 96
3, 4096, Note_off_c, 1, 70, 0
3, 4096, Note_on_c, 1, 69, 96
3, 4608, Note_off_c, 1, 69, 0
3, 4608, Note_on_c, 1, 77, 96
3, 5632, Note_off_c, 1, 77, 0
3, 5632, Note_on_c, 1, 76, 96
3, 5888, Note_off_c, 1, 76, 0
3, 5888, Note_on_c, 1, 74, 96
3, 6144, Note_off_c, 1, 74, 0
3, 6144, Note_on_c, 1, 72, 96
3, 6400, Note_off_c, 1, 72, 0
3, 6400, Note_on_c, 1, 74, 96
3, 6656, Note_off_c, 1, 74, 0
3, 6656, Note_on_c, 1, 70, 96
3, 6912, Note_off_c, 1, 70, 0
3, 6912, Note_on_c, 1, 72, 96
3, 7168, Note_off_c, 1, 72, 0
3, 7168, Note_on_c, 1, 74, 96
3, 7424, Note_off_c, 1, 74, 0
3, 7424, Note_on_c, 1, 72, 96
3, 7680, Note_off_c, 1, 72, 0
3, 7680, Note_on_c, 1, 70, 96
3, 7936, Note_off_c, 1, 70, 0
3, 7936, Note_on_c, 1, 69, 96
3, 8192, Note_off_c, 1, 69, 0
3, 8192, Note_on_c, 1, 67, 96
3, 8448, Note_off_c, 1, 67, 0
3, 8448, Note_on_c, 1, 69, 96
3, 8704, Note_off_c, 1, 69, 0
3, 8704, Note_on_c, 1, 70, 96
3, 9728, Note_off_c, 1, 70, 0
3, 9728, Note_on_c, 1, 69, 96
3, 9984, Note_off_c, 1, 69, 0
3, 9984, Note_on_c, 1, 67, 96
3, 10240, Note_off_c, 1, 67, 0
3, 10240, Note_on_c, 1, 65, 96
3, 10496, Note_off_c, 1, 65, 0
3, 10496, Note_on_c, 1, 67, 96
3, 10752, Note_off_c, 1, 67, 0
3, 10752, Note_on_c, 1, 64, 96
3, 11008, Note_off_c, 1, 64, 0
3, 11008, Note_on_c, 1, 65, 96
3, 11264, Note_off_c, 1, 65, 0
3, 11264, Note_on_c, 1, 67, 96
3, 11520, Note_off_c, 1, 67, 0
3, 11520, Note_on_c, 1, 65, 96
3, 11776, Note_off_c, 1, 65, 0
3, 11776, Note_on_c, 1, 64, 96
3, 12032, Note_off_c, 1, 64, 0
3, 12032, Note_on_c, 1, 62, 96
3, 12288, Note_off_c, 1, 62, 0
3, 12288, Note_on_c, 1, 60, 96
3, 13824, Note_off_c, 1, 60, 0
3, 13824, Note_on_c, 1, 57, 96
3, 14336, Note_off_c, 1, 57, 0
3, 14336, Note_on_c, 1, 53, 96
3, 14848, Note_off_c, 1, 53, 0
3, 14848, Note_on_c, 1, 57, 96
3, 15360, Note_off_c, 1, 57, 0
3, 15360, Note_on_c, 1, 62, 96
3, 15616, Note_off_c, 1, 62, 0
3, 15616, Note_on_c, 1, 60, 96
3, 15872, Note_off_c, 1, 60, 0
3, 15872, Note_on_c, 1, 58, 96
3, 16128, Note_off_c, 1, 58, 0
3, 16128, Note_on_c, 1, 57, 96
3, 16384, Note_off_c, 1, 57, 0
3, 16384, Note_on_c, 1, 58, 96
3, 16640, Note_off_c, 1, 58, 0
3, 16640, Note_on_c, 1, 60, 96
3, 16896, Note_off_c, 1, 60, 0
3, 16896, Note_on_c, 1, 62, 96
3, 17664, Note_off_c, 1, 62, 0
3, 17664, Note_on_c, 1, 62, 96
3, 17920, Note_off_c, 1, 62, 0
3, 17920, Note_on_c, 1, 60, 96
3, 18176, Note_off_c, 1, 60, 0
3, 18176, Note_on_c, 1, 58, 96
3, 18432, Note_off_c, 1, 58, 0
3, 18432, Note_on_c, 1, 57, 96
3, 18944, Note_off_c, 1, 57, 0
3, 18944, Note_on_c, 1, 60, 96
3, 19456, Note_off_c, 1, 60, 0
3, 19456, Note_on_c, 1, 62, 96
3, 19968, Note_off_c, 1, 62, 0
3, 19968, Note_on_c, 1, 58, 96
3, 20480, Note_off_c, 1, 58, 0
3, 20480, Note_on_c, 1, 60, 96
3, 20992, Note_off_c, 1, 60, 0
3, 21248, Note_on_c, 1, 70, 96
3, 21504, Note_off_c, 1, 70, 0
3, 21504, Note_on_c, 1, 69, 96
3, 21760, Note_off_c, 1, 69, 0
3, 21760, Note_on_c, 1, 67, 96
3, 22016, Note_off_c, 1, 67, 0
3, 22016, Note_on_c, 1, 65, 96
3, 22272, Note_off_c, 1, 65, 0
3, 22272, Note_on_c, 1, 63, 96
3, 22528, Note_off_c, 1, 63, 0
3, 22528, Note_on_c, 1, 62, 96
3, 22784, Note_off_c, 1, 62, 0
3, 22784, Note_on_c, 1, 63, 96
3, 23040, Note_off_c, 1, 63, 0
3, 23040, Note_on_c, 1, 60, 96
3, 23296, Note_off_c, 1, 60, 0
3, 23296, Note_on_c, 1, 62, 96
3, 23552, Note_off_c, 1, 62, 0
3, 23552, Note_on_c, 1, 63, 96
3, 25088, Note_off_c, 1, 63, 0
3, 25088, Note_on_c, 1, 62, 96
3, 25344, Note_off_c, 1, 62, 0
3, 25344, Note_on_c, 1, 60, 96
3, 25600, Note_off_c, 1, 60, 0
3, 25600, Note_on_c, 1, 62, 96
3, 26368, Note_off_c, 1, 62, 0
3, 26368, Note_on_c, 1, 62, 96
3, 26624, Note_off_c, 1, 62, 0
3, 26624, Note_on_c, 1, 60, 96
3, 28160, Note_off_c, 1, 60, 0
3, 28160, Note_on_c, 1, 62, 96
3, 28672, Note_off_c, 1, 62, 0
3, 28672, Note_on_c, 1, 64, 96
3, 29184, Note_off_c, 1, 64, 0
3, 29184, Note_on_c, 1, 67, 96
3, 30208, Note_off_c, 1, 67, 0
3, 30208, Note_on_c, 1, 65, 96
3, 30464, Note_off_c, 1, 65, 0
3, 30464, Note_on_c, 1, 64, 96
3, 30720, Note_off_c, 1, 64, 0
3, 30720, Note_on_c, 1, 65, 96
3, 32256, Note_off_c, 1, 65, 0
3, 32256, Note_on_c, 1, 64, 96
3, 32768, Note_off_c, 1, 64, 0
3, 32768, Note_on_c, 1, 65, 96
3, 35328, Note_off_c, 1, 65, 0
3, 35328, Note_on_c, 1, 64, 96
3, 35584, Note_off_c, 1, 64, 0
3, 35584, Note_on_c, 1, 62, 96
3, 35840, Note_off_c, 1, 62, 0
3, 35840, Note_on_c, 1, 64, 96
3, 36864, Note_off_c, 1, 64, 0
3, 36864, Note_on_c, 1, 65, 96
3, 37376, Note_off_c, 1, 65, 0
3, 37376, Note_on_c, 1, 63, 96
3, 37888, Note_off_c, 1, 63, 0
3, 37888, Note_on_c, 1, 62, 96
3, 38912, Note_off_c, 1, 62, 0
3, 38912, Note_on_c, 1, 60, 96
3, 40192, Note_off_c, 1, 60, 0
3, 40192, Note_on_c, 1, 60, 96
3, 40448, Note_off_c, 1, 60, 0
3, 40448, Note_on_c, 1, 67, 96
3, 40704, Note_off_c, 1, 67, 0
3, 40704, Note_on_c, 1, 66, 96
3, 40960, Note_off_c, 1, 66, 0
3, 40960, Note_on_c, 1, 67, 96
3, 43264, Note_off_c, 1, 67, 0
3, 43264, Note_on_c, 1, 67, 96
3, 43776, Note_off_c, 1, 67, 0
3, 43776, Note_on_c, 1, 66, 96
3, 44032, Note_off_c, 1, 66, 0
3, 44032, Note_on_c, 1, 67, 96
3, 44800, Note_off_c, 1, 67, 0
3, 44800, Note_on_c, 1, 65, 96
3, 45056, Note_off_c, 1, 65, 0
3, 45056, Note_on_c, 1, 64, 96
3, 45568, Note_off_c, 1, 64, 0
3, 45568, Note_on_c, 1, 67, 96
3, 46080, Note_off_c, 1, 67, 0
3, 46080, Note_on_c, 1, 65, 96
3, 48384, Note_off_c, 1, 65, 0
3, 48384, Note_on_c, 1, 65, 96
3, 48640, Note_off_c, 1, 65, 0
3, 48640, Note_on_c, 1, 64, 96
3, 48896, Note_off_c, 1, 64, 0
3, 48896, Note_on_c, 1, 62, 96
3, 49152, Note_off_c, 1, 62, 0
3, 49152, Note_on_c, 1, 64, 96
3, 49408, Note_off_c, 1, 64, 0
3, 49408, Note_on_c, 1, 55, 96
3, 49664, Note_off_c, 1, 55, 0
3, 49664, Note_on_c, 1, 60, 96
3, 49920, Note_off_c, 1, 60, 0
3, 49920, Note_on_c, 1, 64, 96
3, 50176, Note_off_c, 1, 64, 0
3, 50176, Note_on_c, 1, 67, 96
3, 50432, Note_off_c, 1, 67, 0
3, 50432, Note_on_c, 1, 60, 96
3, 50688, Note_off_c, 1, 60, 0
3, 50688, Note_on_c, 1, 64, 96
3, 50944, Note_off_c, 1, 64, 0
3, 50944, Note_on_c, 1, 67, 96
3, 51200, Note_off_c, 1, 67, 0
3, 51200, Note_on_c, 1, 69, 96
3, 51456, Note_off_c, 1, 69, 0
3, 51456, Note_on_c, 1, 65, 96
3, 51712, Note_off_c, 1, 65, 0
3, 51712, Note_on_c, 1, 62, 96
3, 51968, Note_off_c, 1, 62, 0
3, 51968, Note_on_c, 1, 65, 96
3, 52224, Note_off_c, 1, 65, 0
3, 52224, Note_on_c, 1, 59, 96
3, 52480, Note_off_c, 1, 59, 0
3, 52480, Note_on_c, 1, 69, 96
3, 52736, Note_off_c, 1, 69, 0
3, 52736, Note_on_c, 1, 67, 96
3, 52992, Note_off_c, 1, 67, 0
3, 52992, Note_on_c, 1, 65, 96
3, 53248, Note_off_c, 1, 65, 0
3, 53248, Note_on_c, 1, 64, 96
3, 53760, Note_off_c, 1, 64, 0
3, 53760, Note_on_c, 1, 72, 96
3, 54784, Note_off_c, 1, 72, 0
3, 54784, Note_on_c, 1, 71, 96
3, 55040, Note_off_c, 1, 71, 0
3, 55040, Note_on_c, 1, 69, 96
3, 55296, Note_off_c, 1, 69, 0
3, 55296, Note_on_c, 1, 67, 96
3, 55552, Note_off_c, 1, 67, 0
3, 55552, Note_on_c, 1, 69, 96
3, 55808, Note_off_c, 1, 69, 0
3, 55808, Note_on_c, 1, 65, 96
3, 56064, Note_off_c, 1, 65, 0
3, 56064, Note_on_c, 1, 67, 96
3, 56320, Note_off_c, 1, 67, 0
3, 56320, Note_on_c, 1, 69, 96
3, 56576, Note_off_c, 1, 69, 0
3, 56576, Note_on_c, 1, 67, 96
3, 56832, Note_off_c, 1, 67, 0
3, 56832, Note_on_c, 1, 65, 96
3, 57088, Note_off_c, 1, 65, 0
3, 57088, Note_on_c, 1, 64, 96
3, 57344, Note_off_c, 1, 64, 0
3, 57344, Note_on_c, 1, 62, 96
3, 57600, Note_off_c, 1, 62, 0
3, 57600, Note_on_c, 1, 64, 96
3, 57856, Note_off_c, 1, 64, 0
3, 57856, Note_on_c, 1, 65, 96
3, 58880, Note_off_c, 1, 65, 0
3, 58880, Note_on_c, 1, 64, 96
3, 59136, Note_off_c, 1, 64, 0
3, 59136, Note_on_c, 1, 62, 96
3, 59392, Note_off_c, 1, 62, 0
3, 59392, Note_on_c, 1, 60, 96
3, 59904, Note_off_c, 1, 60, 0
3, 59904, Note_on_c, 1, 55, 96
3, 60416, Note_off_c, 1, 55, 0
3, 60416, Note_on_c, 1, 60, 96
3, 61952, Note_off_c, 1, 60, 0
3, 61952, Note_on_c, 1, 57, 96
3, 62464, Note_off_c, 1, 57, 0
3, 62464, Note_on_c, 1, 62, 96
3, 63744, Note_off_c, 1, 62, 0
3, 63744, Note_on_c, 1, 60, 96
3, 64000, Note_off_c, 1, 60, 0
3, 64000, Note_on_c, 1, 64, 96
3, 64256, Note_off_c, 1, 64, 0
3, 64256, Note_on_c, 1, 67, 96
3, 64512, Note_off_c, 1, 67, 0
3, 64512, Note_on_c, 1, 72, 96
3, 64768, Note_off_c, 1, 72, 0
3, 64768, Note_on_c, 1, 69, 96
3, 65024, Note_off_c, 1, 69, 0
3, 65024, Note_on_c, 1, 72, 96
3, 65280, Note_off_c, 1, 72, 0
3, 65280, Note_on_c, 1, 76, 96
3, 65536, Note_off_c, 1, 76, 0
3, 65536, Note_on_c, 1, 77, 96
3, 65792, Note_off_c, 1, 77, 0
3, 65792, Note_on_c, 1, 74, 96
3, 66048, Note_off_c, 1, 74, 0
3, 66048, Note_on_c, 1, 71, 96
3, 66304, Note_off_c, 1, 71, 0
3, 66304, Note_on_c, 1, 74, 96
3, 66560, Note_off_c, 1, 74, 0
3, 66560, Note_on_c, 1, 65, 96
3, 66816, Note_off_c, 1, 65, 0
3, 66816, Note_on_c, 1, 81, 96
3, 67072, Note_off_c, 1, 81, 0
3, 67072, Note_on_c, 1, 79, 96
3, 67328, Note_off_c, 1, 79, 0
3, 67328, Note_on_c, 1, 77, 96
3, 67584, Note_off_c, 1, 77, 0
3, 67584, Note_on_c, 1, 76, 96
3, 68608, Note_off_c, 1, 76, 0
3, 69120, Note_on_c, 1, 75, 96
3, 69632, Note_off_c, 1, 75, 0
3, 69632, Note_on_c, 1, 74, 96
3, 70144, Note_off_c, 1, 74, 0
3, 70144, Note_on_c, 1, 76, 96
3, 70912, Note_off_c, 1, 76, 0
3, 70912, Note_on_c, 1, 72, 96
3, 71168, Note_off_c, 1, 72, 0
3, 71168, Note_on_c, 1, 69, 96
3, 71424, Note_off_c, 1, 69, 0
3, 71424, Note_on_c, 1, 72, 96
3, 71680, Note_off_c, 1, 72, 0
3, 71680, Note_on_c, 1, 65, 96
3, 72704, Note_off_c, 1, 65, 0
3, 72960, Note_on_c, 1, 62, 96
3, 73216, Note_off_c, 1, 62, 0
3, 73216, Note_on_c, 1, 67, 96
3, 73472, Note_off_c, 1, 67, 0
3, 73472, Note_on_c, 1, 70, 96
3, 73728, Note_off_c, 1, 70, 0
3, 73728, Note_on_c, 1, 72, 96
3, 75776, Note_off_c, 1, 72, 0
3, 75776, Note_on_c, 1, 70, 96
3, 77824, Note_off_c, 1, 70, 0
3, 77824, Note_on_c, 1, 72, 96
3, 79360, Note_off_c, 1, 72, 0
3, 79360, Note_on_c, 1, 70, 96
3, 80128, Note_off_c, 1, 70, 0
3, 80128, Note_on_c, 1, 67, 96
3, 80384, Note_off_c, 1, 67, 0
3, 80384, Note_on_c, 1, 69, 96
3, 81152, Note_off_c, 1, 69, 0
3, 81152, Note_on_c, 1, 65, 96
3, 81664, Note_off_c, 1, 65, 0
3, 81664, Note_on_c, 1, 64, 96
3, 81920, Note_off_c, 1, 64, 0
3, 81920, Note_on_c, 1, 65, 96
3, 84480, Note_off_c, 1, 65, 0
3, 85504, Note_on_c, 1, 67, 96
3, 86528, Note_off_c, 1, 67, 0
3, 86528, Note_on_c, 1, 65, 96
3, 87552, Note_off_c, 1, 65, 0
3, 87552, Note_on_c, 1, 64, 96
3, 88064, Note_off_c, 1, 64, 0
3, 88064, Note_on_c, 1, 62, 96
3, 90112, Note_off_c, 1, 62, 0
3, 90112, Note_on_c, 1, 60, 96
3, 91136, Note_off_c, 1, 60, 0
3, 91648, Note_on_c, 1, 67, 96
3, 92160, Note_off_c, 1, 67, 0
3, 92160, Note_on_c, 1, 65, 96
3, 93184, Note_off_c, 1, 65, 0
3, 93696, Note_on_c, 1, 59, 96
3, 94208, Note_off_c, 1, 59, 0
3, 94208, Note_on_c, 1, 60, 96
3, 94464, Note_off_c, 1, 60, 0
3, 94464, Note_on_c, 1, 64, 96
3, 94720, Note_off_c, 1, 64, 0
3, 94720, Note_on_c, 1, 69, 96
3, 94976, Note_off_c, 1, 69, 0
3, 94976, Note_on_c, 1, 72, 96
3, 95232, Note_off_c, 1, 72, 0
3, 95232, Note_on_c, 1, 74, 96
3, 95488, Note_off_c, 1, 74, 0
3, 95488, Note_on_c, 1, 67, 96
3, 95744, Note_off_c, 1, 67, 0
3, 95744, Note_on_c, 1, 70, 96
3, 96000, Note_off_c, 1, 70, 0
3, 96000, Note_on_c, 1, 74, 96
3, 96256, Note_off_c, 1, 74, 0
3, 96256, Note_on_c, 1, 75, 96
3, 96512, Note_off_c, 1, 75, 0
3, 96512, Note_on_c, 1, 72, 96
3, 96768, Note_off_c, 1, 72, 0
3, 96768, Note_on_c, 1, 69, 96
3, 97024, Note_off_c, 1, 69, 0
3, 97024, Note_on_c, 1, 72, 96
3, 97280, Note_off_c, 1, 72, 0
3, 97280, Note_on_c, 1, 66, 96
3, 97536, Note_off_c, 1, 66, 0
3, 97536, Note_on_c, 1, 75, 96
3, 97792, Note_off_c, 1, 75, 0
3, 97792, Note_on_c, 1, 74, 96
3, 98048, Note_off_c, 1, 74, 0
3, 98048, Note_on_c, 1, 72, 96
3, 98304, Note_off_c, 1, 72, 0
3, 98304, Note_on_c, 1, 70, 96
3, 99328, Note_off_c, 1, 70, 0
3, 99328, Note_on_c, 1, 69, 96
3, 99840, Note_off_c, 1, 69, 0
3, 99840, Note_on_c, 1, 74, 96
3, 100864, Note_off_c, 1, 74, 0
3, 100864, Note_on_c, 1, 73, 96
3, 101120, Note_off_c, 1, 73, 0
3, 101120, Note_on_c, 1, 74, 96
3, 101376, Note_off_c, 1, 74, 0
3, 101376, Note_on_c, 1, 76, 96
3, 102912, Note_off_c, 1, 76, 0
3, 102912, Note_on_c, 1, 74, 96
3, 103424, Note_off_c, 1, 74, 0
3, 103936, Note_on_c, 1, 74, 96
3, 104448, Note_off_c, 1, 74, 0
3, 104448, Note_on_c, 1, 74, 96
3, 104960, Note_off_c, 1, 74, 0
3, 104960, Note_on_c, 1, 72, 96
3, 105472, Note_off_c, 1, 72, 0
3, 105984, Note_on_c, 1, 72, 96
3, 106496, Note_off_c, 1, 72, 0
3, 106496, Note_on_c, 1, 72, 96
3, 107008, Note_off_c, 1, 72, 0
3, 107008, Note_on_c, 1, 71, 96
3, 107520, Note_off_c, 1, 71, 0
3, 108032, Note_on_c, 1, 71, 96
3, 108544, Note_off_c, 1, 71, 0
3, 108544, Note_on_c, 1, 71, 96
3, 109056, Note_off_c, 1, 71, 0
3, 109056, Note_on_c, 1, 69, 96
3, 109568, Note_off_c, 1, 69, 0
3, 110080, Note_on_c, 1, 69, 96
3, 110592, Note_off_c, 1, 69, 0
3, 110592, Note_on_c, 1, 67, 96
3, 111616, Note_off_c, 1, 67, 0
3, 112128, Note_on_c, 1, 67, 96
3, 112640, Note_off_c, 1, 67, 0
3, 112640, Note_on_c, 1, 65, 96
3, 113664, Note_off_c, 1, 65, 0
3, 119040, Note_on_c, 1, 60, 96
3, 119296, Note_off_c, 1, 60, 0
3, 119296, Note_on_c, 1, 64, 96
3, 119552, Note_off_c, 1, 64, 0
3, 119552, Note_on_c, 1, 67, 96
3, 119808, Note_off_c, 1, 67, 0
3, 119808, Note_on_c, 1, 72, 96
3, 120064, Note_off_c, 1, 72, 0
3, 120064, Note_on_c, 1, 65, 96
3, 120320, Note_off_c, 1, 65, 0
3, 120320, Note_on_c, 1, 69, 96
3, 120576, Note_off_c, 1, 69, 0
3, 120576, Note_on_c, 1, 72, 96
3, 120832, Note_off_c, 1, 72, 0
3, 120832, Note_on_c, 1, 74, 96
3, 121088, Note_off_c, 1, 74, 0
3, 121088, Note_on_c, 1, 70, 96
3, 121344, Note_off_c, 1, 70, 0
3, 121344, Note_on_c, 1, 67, 96
3, 121600, Note_off_c, 1, 67, 0
3, 121600, Note_on_c, 1, 70, 96
3, 121856, Note_off_c, 1, 70, 0
3, 121856, Note_on_c, 1, 64, 96
3, 122112, Note_off_c, 1, 64, 0
3, 122112, Note_on_c, 1, 74, 96
3, 122368, Note_off_c, 1, 74, 0
3, 122368, Note_on_c, 1, 72, 96
3, 122624, Note_off_c, 1, 72, 0
3, 122624, Note_on_c, 1, 70, 96
3, 122880, Note_off_c, 1, 70, 0
3, 122880, Note_on_c, 1, 69, 96
3, 123392, Note_off_c, 1, 69, 0
3, 123392, Note_on_c, 1, 67, 96
3, 123648, Note_off_c, 1, 67, 0
3, 123648, Note_on_c, 1, 65, 96
3, 123904, Note_off_c, 1, 65, 0
3, 123904, Note_on_c, 1, 64, 96
3, 124416, Note_off_c, 1, 64, 0
3, 124416, Note_on_c, 1, 60, 96
3, 124928, Note_off_c, 1, 60, 0
3, 124928, Note_on_c, 1, 65, 96
3, 126208, Note_off_c, 1, 65, 0
3, 126208, Note_on_c, 1, 67, 96
3, 126464, Note_off_c, 1, 67, 0
3, 126464, Note_on_c, 1, 65, 96
3, 126720, Note_off_c, 1, 65, 0
3, 126720, Note_on_c, 1, 63, 96
3, 126976, Note_off_c, 1, 63, 0
3, 126976, Note_on_c, 1, 62, 96
3, 127488, Note_off_c, 1, 62, 0
3, 127488, Note_on_c, 1, 63, 96
3, 128512, Note_off_c, 1, 63, 0
3, 128512, Note_on_c, 1, 65, 96
3, 128768, Note_off_c, 1, 65, 0
3, 128768, Note_on_c, 1, 63, 96
3, 129024, Note_off_c, 1, 63, 0
3, 129024, Note_on_c, 1, 62, 96
3, 129536, Note_off_c, 1, 62, 0
3, 129536, Note_on_c, 1, 67, 96
3, 130048, Note_off_c, 1, 67, 0
3, 130048, Note_on_c, 1, 60, 96
3, 131328, Note_off_c, 1, 60, 0
3, 131328, Note_on_c, 1, 62, 96
3, 131584, Note_off_c, 1, 62, 0
3, 131584, Note_on_c, 1, 58, 96
3, 131840, Note_off_c, 1, 58, 0
3, 131840, Note_on_c, 1, 60, 96
3, 132096, Note_off_c, 1, 60, 0
3, 132096, Note_on_c, 1, 62, 96
3, 132352, Note_off_c, 1, 62, 0
3, 132352, Note_on_c, 1, 60, 96
3, 132608, Note_off_c, 1, 60, 0
3, 132608, Note_on_c, 1, 58, 96
3, 132864, Note_off_c, 1, 58, 0
3, 132864, Note_on_c, 1, 57, 96
3, 133120, Note_off_c, 1, 57, 0
3, 133120, Note_on_c, 1, 55, 96
3, 134144, Note_off_c, 1, 55, 0
3, 135680, Note_on_c, 1, 63, 96
3, 136192, Note_off_c, 1, 63, 0
3, 136192, Note_on_c, 1, 60, 96
3, 136704, Note_off_c, 1, 60, 0
3, 136704, Note_on_c, 1, 57, 96
3, 137216, Note_off_c, 1, 57, 0
3, 137216, Note_on_c, 1, 62, 96
3, 137728, Note_off_c, 1, 62, 0
3, 137728, Note_on_c, 1, 67, 96
3, 138752, Note_off_c, 1, 67, 0
3, 139520, Note_on_c, 1, 57, 96
3, 139776, Note_off_c, 1, 57, 0
3, 139776, Note_on_c, 1, 62, 96
3, 140032, Note_off_c, 1, 62, 0
3, 140032, Note_on_c, 1, 65, 96
3, 140288, Note_off_c, 1, 65, 0
3, 140288, Note_on_c, 1, 67, 96
3, 140544, Note_off_c, 1, 67, 0
3, 140544, Note_on_c, 1, 60, 96
3, 140800, Note_off_c, 1, 60, 0
3, 140800, Note_on_c, 1, 64, 96
3, 141056, Note_off_c, 1, 64, 0
3, 141056, Note_on_c, 1, 67, 96
3, 141312, Note_off_c, 1, 67, 0
3, 141312, Note_on_c, 1, 69, 96
3, 141568, Note_off_c, 1, 69, 0
3, 141568, Note_on_c, 1, 65, 96
3, 141824, Note_off_c, 1, 65, 0
3, 141824, Note_on_c, 1, 62, 96
3, 142080, Note_off_c, 1, 62, 0
3, 142080, Note_on_c, 1, 65, 96
3, 142336, Note_off_c, 1, 65, 0
3, 142336, Note_on_c, 1, 59, 96
3, 142592, Note_off_c, 1, 59, 0
3, 142592, Note_on_c, 1, 69, 96
3, 142848, Note_off_c, 1, 69, 0
3, 142848, Note_on_c, 1, 67, 96
3, 143104, Note_off_c, 1, 67, 0
3, 143104, Note_on_c, 1, 65, 96
3, 143360, Note_off_c, 1, 65, 0
3, 143360, Note_on_c, 1, 64, 96
3, 143616, Note_off_c, 1, 64, 0
3, 143616, Note_on_c, 1, 65, 96
3, 143872, Note_off_c, 1, 65, 0
3, 143872, Note_on_c, 1, 62, 96
3, 144128, Note_off_c, 1, 62, 0
3, 144128, Note_on_c, 1, 64, 96
3, 144384, Note_off_c, 1, 64, 0
3, 144384, Note_on_c, 1, 65, 96
3, 144640, Note_off_c, 1, 65, 0
3, 144640, Note_on_c, 1, 67, 96
3, 144896, Note_off_c, 1, 67, 0
3, 144896, Note_on_c, 1, 64, 96
3, 145152, Note_off_c, 1, 64, 0
3, 145152, Note_on_c, 1, 65, 96
3, 145408, Note_off_c, 1, 65, 0
3, 145408, Note_on_c, 1, 67, 96
3, 145920, Note_off_c, 1, 67, 0
3, 149760, Note_on_c, 1, 67, 96
3, 150016, Note_off_c, 1, 67, 0
3, 150016, Note_on_c, 1, 64, 96
3, 150272, Note_off_c, 1, 64, 0
3, 150272, Note_on_c, 1, 60, 96
3, 150528, Note_off_c, 1, 60, 0
3, 150528, Note_on_c, 1, 62, 96
3, 150784, Note_off_c, 1, 62, 0
3, 150784, Note_on_c, 1, 64, 96
3, 151040, Note_off_c, 1, 64, 0
3, 151040, Note_on_c, 1, 65, 96
3, 151552, Note_off_c, 1, 65, 0
3, 151552, Note_on_c, 1, 64, 96
3, 151808, Note_off_c, 1, 64, 0
3, 151808, Note_on_c, 1, 60, 96
3, 152064, Note_off_c, 1, 60, 0
3, 152064, Note_on_c, 1, 57, 96
3, 152320, Note_off_c, 1, 57, 0
3, 152320, Note_on_c, 1, 60, 96
3, 152576, Note_off_c, 1, 60, 0
3, 152576, Note_on_c, 1, 53, 96
3, 152832, Note_off_c, 1, 53, 0
3, 152832, Note_on_c, 1, 64, 96
3, 153088, Note_off_c, 1, 64, 0
3, 153088, Note_on_c, 1, 62, 96
3, 153344, Note_off_c, 1, 62, 0
3, 153344, Note_on_c, 1, 60, 96
3, 153600, Note_off_c, 1, 60, 0
3, 153600, Note_on_c, 1, 59, 96
3, 153856, Note_off_c, 1, 59, 0
3, 153856, Note_on_c, 1, 60, 96
3, 154112, Note_off_c, 1, 60, 0
3, 154112, Note_on_c, 1, 57, 96
3, 154368, Note_off_c, 1, 57, 0
3, 154368, Note_on_c, 1, 59, 96
3, 154624, Note_off_c, 1, 59, 0
3, 154624, Note_on_c, 1, 60, 96
3, 154880, Note_off_c, 1, 60, 0
3, 154880, Note_on_c, 1, 57, 96
3, 155136, Note_off_c, 1, 57, 0
3, 155136, Note_on_c, 1, 55, 96
3, 155392, Note_off_c, 1, 55, 0
3, 155392, Note_on_c, 1, 53, 96
3, 155648, Note_off_c, 1, 53, 0
3, 155648, Note_on_c, 1, 55, 96
3, 156672, Note_off_c, 1, 55, 0
3, 157184, Note_on_c, 1, 60, 96
3, 157696, Note_off_c, 1, 60, 0
3, 157696, Note_on_c, 1, 58, 96
3, 158208, Note_off_c, 1, 58, 0
3, 158208, Note_on_c, 1, 62, 96
3, 158720, Note_off_c, 1, 62, 0
3, 158720, Note_on_c, 1, 64, 96
3, 159744, Note_off_c, 1, 64, 0
3, 160000, Note_on_c, 1, 57, 96
3, 160256, Note_off_c, 1, 57, 0
3, 160256, Note_on_c, 1, 60, 96
3, 160512, Note_off_c, 1, 60, 0
3, 160512, Note_on_c, 1, 65, 96
3, 160768, Note_off_c, 1, 65, 0
3, 160768, Note_on_c, 1, 69, 96
3, 161024, Note_off_c, 1, 69, 0
3, 161024, Note_on_c, 1, 62, 96
3, 161280, Note_off_c, 1, 62, 0
3, 161280, Note_on_c, 1, 65, 96
3, 161536, Note_off_c, 1, 65, 0
3, 161536, Note_on_c, 1, 69, 96
3, 161792, Note_off_c, 1, 69, 0
3, 161792, Note_on_c, 1, 70, 96
3, 162048, Note_off_c, 1, 70, 0
3, 162048, Note_on_c, 1, 67, 96
3, 162304, Note_off_c, 1, 67, 0
3, 162304, Note_on_c, 1, 64, 96
3, 162560, Note_off_c, 1, 64, 0
3, 162560, Note_on_c, 1, 67, 96
3, 162816, Note_off_c, 1, 67, 0
3, 162816, Note_on_c, 1, 60, 96
3, 163072, Note_off_c, 1, 60, 0
3, 163072, Note_on_c, 1, 70, 96
3, 163328, Note_off_c, 1, 70, 0
3, 163328, Note_on_c, 1, 69, 96
3, 163584, Note_off_c, 1, 69, 0
3, 163584, Note_on_c, 1, 67, 96
3, 163840, Note_off_c, 1, 67, 0
3, 163840, Note_on_c, 1, 72, 96
3, 164096, Note_off_c, 1, 72, 0
3, 164096, Note_on_c, 1, 69, 96
3, 164352, Note_off_c, 1, 69, 0
3, 164352, Note_on_c, 1, 65, 96
3, 164608, Note_off_c, 1, 65, 0
3, 164608, Note_on_c, 1, 69, 96
3, 164864, Note_off_c, 1, 69, 0
3, 164864, Note_on_c, 1, 62, 96
3, 165120, Note_off_c, 1, 62, 0
3, 165120, Note_on_c, 1, 72, 96
3, 165376, Note_off_c, 1, 72, 0
3, 165376, Note_on_c, 1, 70, 96
3, 165632, Note_off_c, 1, 70, 0
3, 165632, Note_on_c, 1, 69, 96
3, 165888, Note_off_c, 1, 69, 0
3, 165888, Note_on_c, 1, 67, 96
3, 166912, Note_off_c, 1, 67, 0
3, 166912, Note_on_c, 1, 69, 96
3, 167424, Note_off_c, 1, 69, 0
3, 167424, Note_on_c, 1, 71, 96
3, 167936, Note_off_c, 1, 71, 0
3, 167936, Note_on_c, 1, 72, 96
3, 168448, Note_off_c, 1, 72, 0
3, 170240, Note_on_c, 1, 62, 96
3, 170496, Note_off_c, 1, 62, 0
3, 170496, Note_on_c, 1, 67, 96
3, 170752, Note_off_c, 1, 67, 0
3, 170752, Note_on_c, 1, 70, 96
3, 171008, Note_off_c, 1, 70, 0
3, 171008, Note_on_c, 1, 74, 96
3, 171264, Note_off_c, 1, 74, 0
3, 171264, Note_on_c, 1, 67, 96
3, 171520, Note_off_c, 1, 67, 0
3, 171520, Note_on_c, 1, 70, 96
3, 171776, Note_off_c, 1, 70, 0
3, 171776, Note_on_c, 1, 74, 96
3, 172032, Note_off_c, 1, 74, 0
3, 172032, Note_on_c, 1, 75, 96
3, 172288, Note_off_c, 1, 75, 0
3, 172288, Note_on_c, 1, 72, 96
3, 172544, Note_off_c, 1, 72, 0
3, 172544, Note_on_c, 1, 69, 96
3, 172800, Note_off_c, 1, 69, 0
3, 172800, Note_on_c, 1, 72, 96
3, 173056, Note_off_c, 1, 72, 0
3, 173056, Note_on_c, 1, 66, 96
3, 173312, Note_off_c, 1, 66, 0
3, 173312, Note_on_c, 1, 75, 96
3, 173568, Note_off_c, 1, 75, 0
3, 173568, Note_on_c, 1, 74, 96
3, 173824, Note_off_c, 1, 74, 0
3, 173824, Note_on_c, 1, 72, 96
3, 174080, Note_off_c, 1, 72, 0
3, 174080, Note_on_c, 1, 70, 96
3, 174592, Note_off_c, 1, 70, 0
3, 174592, Note_on_c, 1, 62, 96
3, 175104, Note_off_c, 1, 62, 0
3, 175104, Note_on_c, 1, 64, 96
3, 175616, Note_off_c, 1, 64, 0
3, 175616, Note_on_c, 1, 67, 96
3, 176384, Note_off_c, 1, 67, 0
3, 176384, Note_on_c, 1, 65, 96
3, 176640, Note_off_c, 1, 65, 0
3, 176640, Note_on_c, 1, 64, 96
3, 176896, Note_off_c, 1, 64, 0
3, 176896, Note_on_c, 1, 62, 96
3, 177152, Note_off_c, 1, 62, 0
3, 177152, Note_on_c, 1, 61, 96
3, 178688, Note_off_c, 1, 61, 0
3, 178688, Note_on_c, 1, 57, 96
3, 179200, Note_off_c, 1, 57, 0
3, 179200, Note_on_c, 1, 62, 96
3, 180736, Note_off_c, 1, 62, 0
3, 180736, Note_on_c, 1, 61, 96
3, 180992, Note_off_c, 1, 61, 0
3, 180992, Note_on_c, 1, 62, 96
3, 181248, Note_off_c, 1, 62, 0
3, 181248, Note_on_c, 1, 64, 96
3, 181760, Note_off_c, 1, 64, 0
3, 181760, Note_on_c, 1, 61, 96
3, 182272, Note_off_c, 1, 61, 0
3, 182272, Note_on_c, 1, 62, 96
3, 182784, Note_off_c, 1, 62, 0
3, 182784, Note_on_c, 1, 65, 96
3, 183296, Note_off_c, 1, 65, 0
3, 183296, Note_on_c, 1, 62, 96
3, 183808, Note_off_c, 1, 62, 0
3, 183808, Note_on_c, 1, 59, 96
3, 184320, Note_off_c, 1, 59, 0
3, 184576, Note_on_c, 1, 69, 96
3, 184832, Note_off_c, 1, 69, 0
3, 184832, Note_on_c, 1, 64, 96
3, 185088, Note_off_c, 1, 64, 0
3, 185088, Note_on_c, 1, 67, 96
3, 185344, Note_off_c, 1, 67, 0
3, 185344, Note_on_c, 1, 66, 96
3, 186368, Note_off_c, 1, 66, 0
3, 186624, Note_on_c, 1, 67, 96
3, 186880, Note_off_c, 1, 67, 0
3, 186880, Note_on_c, 1, 62, 96
3, 187136, Note_off_c, 1, 62, 0
3, 187136, Note_on_c, 1, 65, 96
3, 187392, Note_off_c, 1, 65, 0
3, 187392, Note_on_c, 1, 64, 96
3, 188672, Note_off_c, 1, 64, 0
3, 188672, Note_on_c, 1, 57, 96
3, 188928, Note_off_c, 1, 57, 0
3, 188928, Note_on_c, 1, 62, 96
3, 189184, Note_off_c, 1, 62, 0
3, 189184, Note_on_c, 1, 65, 96
3, 189440, Note_off_c, 1, 65, 0
3, 189440, Note_on_c, 1, 69, 96
3, 189696, Note_off_c, 1, 69, 0
3, 189696, Note_on_c, 1, 62, 96
3, 189952, Note_off_c, 1, 62, 0
3, 189952, Note_on_c, 1, 65, 96
3, 190208, Note_off_c, 1, 65, 0
3, 190208, Note_on_c, 1, 69, 96
3, 190464, Note_off_c, 1, 69, 0
3, 190464, Note_on_c, 1, 72, 96
3, 190720, Note_off_c, 1, 72, 0
3, 190720, Note_on_c, 1, 69, 96
3, 190976, Note_off_c, 1, 69, 0
3, 190976, Note_on_c, 1, 66, 96
3, 191232, Note_off_c, 1, 66, 0
3, 191232, Note_on_c, 1, 69, 96
3, 191488, Note_off_c, 1, 69, 0
3, 191488, Note_on_c, 1, 63, 96
3, 191744, Note_off_c, 1, 63, 0
3, 191744, Note_on_c, 1, 72, 96
3, 192000, Note_off_c, 1, 72, 0
3, 192000, Note_on_c, 1, 71, 96
3, 192256, Note_off_c, 1, 71, 0
3, 192256, Note_on_c, 1, 69, 96
3, 192512, Note_off_c, 1, 69, 0
3, 192512, Note_on_c, 1, 68, 96
3, 193024, Note_off_c, 1, 68, 0
3, 193024, Note_on_c, 1, 71, 96
3, 194048, Note_off_c, 1, 71, 0
3, 194048, Note_on_c, 1, 69, 96
3, 195072, Note_off_c, 1, 69, 0
3, 195072, Note_on_c, 1, 67, 96
3, 195328, Note_off_c, 1, 67, 0
3, 195328, Note_on_c, 1, 69, 96
3, 195584, Note_off_c, 1, 69, 0
3, 195584, Note_on_c, 1, 70, 96
3, 197120, Note_off_c, 1, 70, 0
3, 197120, Note_on_c, 1, 69, 96
3, 197632, Note_off_c, 1, 69, 0
3, 198144, Note_on_c, 1, 69, 96
3, 198656, Note_off_c, 1, 69, 0
3, 198656, Note_on_c, 1, 69, 96
3, 199168, Note_off_c, 1, 69, 0
3, 199168, Note_on_c, 1, 67, 96
3, 199680, Note_off_c, 1, 67, 0
3, 200192, Note_on_c, 1, 70, 96
3, 200704, Note_off_c, 1, 70, 0
3, 200704, Note_on_c, 1, 70, 96
3, 201216, Note_off_c, 1, 70, 0
3, 201216, Note_on_c, 1, 69, 96
3, 201728, Note_off_c, 1, 69, 0
3, 202240, Note_on_c, 1, 74, 96
3, 202752, Note_off_c, 1, 74, 0
3, 202752, Note_on_c, 1, 74, 96
3, 203264, Note_off_c, 1, 74, 0
3, 203264, Note_on_c, 1, 73, 96
3, 203776, Note_off_c, 1, 73, 0
3, 204288, Note_on_c, 1, 64, 96
3, 204800, Note_off_c, 1, 64, 0
3, 204800, Note_on_c, 1, 64, 96
3, 205312, Note_off_c, 1, 64, 0
3, 205312, Note_on_c, 1, 62, 96
3, 205824, Note_off_c, 1, 62, 0
3, 206336, Note_on_c, 1, 71, 96
3, 206848, Note_off_c, 1, 71, 0
3, 206848, Note_on_c, 1, 71, 96
3, 207872, Note_off_c, 1, 71, 0
3, 207872, Note_on_c, 1, 69, 96
3, 208384, Note_off_c, 1, 69, 0
3, 208384, Note_on_c, 1, 67, 96
3, 208896, Note_off_c, 1, 67, 0
3, 208896, Note_on_c, 1, 69, 96
3, 210432, Note_off_c, 1, 69, 0
3, 210432, Note_on_c, 1, 67, 96
3, 210688, Note_off_c, 1, 67, 0
3, 210688, Note_on_c, 1, 65, 96
3, 210944, Note_off_c, 1, 65, 0
3, 210944, Note_on_c, 1, 67, 96
3, 212224, Note_off_c, 1, 67, 0
3, 212224, Note_on_c, 1, 65, 96
3, 212736, Note_off_c, 1, 65, 0
3, 212736, Note_on_c, 1, 65, 96
3, 212992, Note_off_c, 1, 65, 0
3, 212992, Note_on_c, 1, 64, 96
3, 213248, Note_off_c, 1, 64, 0
3, 213248, Note_on_c, 1, 65, 96
3, 213504, Note_off_c, 1, 65, 0
3, 213504, Note_on_c, 1, 62, 96
3, 213760, Note_off_c, 1, 62, 0
3, 213760, Note_on_c, 1, 64, 96
3, 214016, Note_off_c, 1, 64, 0
3, 214016, Note_on_c, 1, 65, 96
3, 214272, Note_off_c, 1, 65, 0
3, 214272, Note_on_c, 1, 64, 96
3, 214528, Note_off_c, 1, 64, 0
3, 214528, Note_on_c, 1, 62, 96
3, 214784, Note_off_c, 1, 62, 0
3, 214784, Note_on_c, 1, 60, 96
3, 215040, Note_off_c, 1, 60, 0
3, 215040, Note_on_c, 1, 59, 96
3, 216576, Note_off_c, 1, 59, 0
3, 216576, Note_on_c, 1, 59, 96
3, 217088, Note_off_c, 1, 59, 0
3, 217088, Note_on_c, 1, 60, 96
3, 217344, Note_off_c, 1, 60, 0
3, 217344, Note_on_c, 1, 67, 96
3, 217600, Note_off_c, 1, 67, 0
3, 217600, Note_on_c, 1, 65, 96
3, 217856, Note_off_c, 1, 65, 0
3, 217856, Note_on_c, 1, 67, 96
3, 218112, Note_off_c, 1, 67, 0
3, 218112, Note_on_c, 1, 69, 96
3, 218368, Note_off_c, 1, 69, 0
3, 218368, Note_on_c, 1, 67, 96
3, 218624, Note_off_c, 1, 67, 0
3, 218624, Note_on_c, 1, 65, 96
3, 218880, Note_off_c, 1, 65, 0
3, 218880, Note_on_c, 1, 64, 96
3, 219136, Note_off_c, 1, 64, 0
3, 219136, Note_on_c, 1, 62, 96
3, 220416, Note_off_c, 1, 62, 0
3, 220416, Note_on_c, 1, 69, 96
3, 220672, Note_off_c, 1, 69, 0
3, 220672, Note_on_c, 1, 67, 96
3, 220928, Note_off_c, 1, 67, 0
3, 220928, Note_on_c, 1, 65, 96
3, 221184, Note_off_c, 1, 65, 0
3, 221184, Note_on_c, 1, 64, 96
3, 221696, Note_off_c, 1, 64, 0
3, 221696, Note_on_c, 1, 67, 96
3, 222208, Note_off_c, 1, 67, 0
3, 222208, Note_on_c, 1, 65, 96
3, 224512, Note_off_c, 1, 65, 0
3, 224512, Note_on_c, 1, 65, 96
3, 224768, Note_off_c, 1, 65, 0
3, 224768, Note_on_c, 1, 64, 96
3, 225024, Note_off_c, 1, 64, 0
3, 225024, Note_on_c, 1, 62, 96
3, 225280, Note_off_c, 1, 62, 0
3, 225280, Note_on_c, 1, 64, 96
3, 225536, Note_off_c, 1, 64, 0
3, 225536, Note_on_c, 1, 55, 96
3, 225792, Note_off_c, 1, 55, 0
3, 225792, Note_on_c, 1, 60, 96
3, 226048, Note_off_c, 1, 60, 0
3, 226048, Note_on_c, 1, 64, 96
3, 226304, Note_off_c, 1, 64, 0
3, 226304, Note_on_c, 1, 67, 96
3, 226560, Note_off_c, 1, 67, 0
3, 226560, Note_on_c, 1, 60, 96
3, 226816, Note_off_c, 1, 60, 0
3, 226816, Note_on_c, 1, 64, 96
3, 227072, Note_off_c, 1, 64, 0
3, 227072, Note_on_c, 1, 67, 96
3, 227328, Note_off_c, 1, 67, 0
3, 227328, Note_on_c, 1, 69, 96
3, 227584, Note_off_c, 1, 69, 0
3, 227584, Note_on_c, 1, 65, 96
3, 227840, Note_off_c, 1, 65, 0
3, 227840, Note_on_c, 1, 62, 96
3, 228096, Note_off_c, 1, 62, 0
3, 228096, Note_on_c, 1, 65, 96
3, 228352, Note_off_c, 1, 65, 0
3, 228352, Note_on_c, 1, 59, 96
3, 228608, Note_off_c, 1, 59, 0
3, 228608, Note_on_c, 1, 69, 96
3, 228864, Note_off_c, 1, 69, 0
3, 228864, Note_on_c, 1, 67, 96
3, 229120, Note_off_c, 1, 67, 0
3, 229120, Note_on_c, 1, 65, 96
3, 229376, Note_off_c, 1, 65, 0
3, 229376, Note_on_c, 1, 64, 96
3, 229888, Note_off_c, 1, 64, 0
3, 229888, Note_on_c, 1, 72, 96
3, 230912, Note_off_c, 1, 72, 0
3, 230912, Note_on_c, 1, 71, 96
3, 231168, Note_off_c, 1, 71, 0
3, 231168, Note_on_c, 1, 69, 96
3, 231424, Note_off_c, 1, 69, 0
3, 231424, Note_on_c, 1, 67, 96
3, 231680, Note_off_c, 1, 67, 0
3, 231680, Note_on_c, 1, 69, 96
3, 231936, Note_off_c, 1, 69, 0
3, 231936, Note_on_c, 1, 65, 96
3, 232192, Note_off_c, 1, 65, 0
3, 232192, Note_on_c, 1, 67, 96
3, 232448, Note_off_c, 1, 67, 0
3, 232448, Note_on_c, 1, 69, 96
3, 232704, Note_off_c, 1, 69, 0
3, 232704, Note_on_c, 1, 67, 96
3, 232960, Note_off_c, 1, 67, 0
3, 232960, Note_on_c, 1, 65, 96
3, 233216, Note_off_c, 1, 65, 0
3, 233216, Note_on_c, 1, 64, 96
3, 233472, Note_off_c, 1, 64, 0
3, 233472, Note_on_c, 1, 62, 96
3, 233728, Note_off_c, 1, 62, 0
3, 233728, Note_on_c, 1, 64, 96
3, 233984, Note_off_c, 1, 64, 0
3, 233984, Note_on_c, 1, 65, 96
3, 235008, Note_off_c, 1, 65, 0
3, 235008, Note_on_c, 1, 64, 96
3, 235264, Note_off_c, 1, 64, 0
3, 235264, Note_on_c, 1, 62, 96
3, 235520, Note_off_c, 1, 62, 0
3, 235520, Note_on_c, 1, 60, 96
3, 236032, Note_off_c, 1, 60, 0
3, 236032, Note_on_c, 1, 55, 96
3, 236544, Note_off_c, 1, 55, 0
3, 236544, Note_on_c, 1, 60, 96
3, 238080, Note_off_c, 1, 60, 0
3, 238080, Note_on_c, 1, 57, 96
3, 238592, Note_off_c, 1, 57, 0
3, 238592, Note_on_c, 1, 62, 96
3, 239872, Note_off_c, 1, 62, 0
3, 239872, Note_on_c, 1, 60, 96
3, 240128, Note_off_c, 1, 60, 0
3, 240128, Note_on_c, 1, 64, 96
3, 240384, Note_off_c, 1, 64, 0
3, 240384, Note_on_c, 1, 67, 96
3, 240640, Note_off_c, 1, 67, 0
3, 240640, Note_on_c, 1, 72, 96
3, 240896, Note_off_c, 1, 72, 0
3, 240896, Note_on_c, 1, 69, 96
3, 241152, Note_off_c, 1, 69, 0
3, 241152, Note_on_c, 1, 72, 96
3, 241408, Note_off_c, 1, 72, 0
3, 241408, Note_on_c, 1, 76, 96
3, 241664, Note_off_c, 1, 76, 0
3, 241664, Note_on_c, 1, 77, 96
3, 241920, Note_off_c, 1, 77, 0
3, 241920, Note_on_c, 1, 74, 96
3, 242176, Note_off_c, 1, 74, 0
3, 242176, Note_on_c, 1, 71, 96
3, 242432, Note_off_c, 1, 71, 0
3, 242432, Note_on_c, 1, 74, 96
3, 242688, Note_off_c, 1, 74, 0
3, 242688, Note_on_c, 1, 65, 96
3, 242944, Note_off_c, 1, 65, 0
3, 242944, Note_on_c, 1, 81, 96
3, 243200, Note_off_c, 1, 81, 0
3, 243200, Note_on_c, 1, 79, 96
3, 243456, Note_off_c, 1, 79, 0
3, 243456, Note_on_c, 1, 77, 96
3, 243712, Note_off_c, 1, 77, 0
3, 243712, Note_on_c, 1, 76, 96
3, 244736, Note_off_c, 1, 76, 0
3, 245248, Note_on_c, 1, 75, 96
3, 245760, Note_off_c, 1, 75, 0
3, 245760, Note_on_c, 1, 74, 96
3, 246272, Note_off_c, 1, 74, 0
3, 246272, Note_on_c, 1, 76, 96
3, 247040, Note_off_c, 1, 76, 0
3, 247040, Note_on_c, 1, 72, 96
3, 247296, Note_off_c, 1, 72, 0
3, 247296, Note_on_c, 1, 69, 96
3, 247552, Note_off_c, 1, 69, 0
3, 247552, Note_on_c, 1, 72, 96
3, 247808, Note_off_c, 1, 72, 0
3, 247808, Note_on_c, 1, 65, 96
3, 248832, Note_off_c, 1, 65, 0
3, 249088, Note_on_c, 1, 62, 96
3, 249344, Note_off_c, 1, 62, 0
3, 249344, Note_on_c, 1, 67, 96
3, 249600, Note_off_c, 1, 67, 0
3, 249600, Note_on_c, 1, 70, 96
3, 249856, Note_off_c, 1, 70, 0
3, 249856, Note_on_c, 1, 72, 96
3, 251904, Note_off_c, 1, 72, 0
3, 251904, Note_on_c, 1, 70, 96
3, 253952, Note_off_c, 1, 70, 0
3, 253952, Note_on_c, 1, 72, 96
3, 255488, Note_off_c, 1, 72, 0
3, 255488, Note_on_c, 1, 70, 96
3, 256256, Note_off_c, 1, 70, 0
3, 256256, Note_on_c, 1, 67, 96
3, 256512, Note_off_c, 1, 67, 0
3, 256512, Note_on_c, 1, 69, 96
3, 257280, Note_off_c, 1, 69, 0
3, 257280, Note_on_c, 1, 65, 96
3, 257792, Note_off_c, 1, 65, 0
3, 257792, Note_on_c, 1, 64, 96
3, 258048, Note_off_c, 1, 64, 0
3, 258048, Note_on_c, 1, 65, 96
3, 260608, Note_off_c, 1, 65, 0
3, 261632, Note_on_c, 1, 67, 96
3, 262656, Note_off_c, 1, 67, 0
3, 262656, Note_on_c, 1, 65, 96
3, 263680, Note_off_c, 1, 65, 0
3, 263680, Note_on_c, 1, 64, 96
3, 264192, Note_off_c, 1, 64, 0
3, 264192, Note_on_c, 1, 62, 96
3, 266240, Note_off_c, 1, 62, 0
3, 266240, Note_on_c, 1, 60, 96
3, 267264, Note_off_c, 1, 60, 0
3, 267776, Note_on_c, 1, 67, 96
3, 268288, Note_off_c, 1, 67, 0
3, 268288, Note_on_c, 1, 65, 96
3, 269312, Note_off_c, 1, 65, 0
3, 269824, Note_on_c, 1, 59, 96
3, 270336, Note_off_c, 1, 59, 0
3, 270336, Note_on_c, 1, 60, 96
3, 270592, Note_off_c, 1, 60, 0
3, 270592, Note_on_c, 1, 64, 96
3, 270848, Note_off_c, 1, 64, 0
3, 270848, Note_on_c, 1, 69, 96
3, 271104, Note_off_c, 1, 69, 0
3, 271104, Note_on_c, 1, 72, 96
3, 271360, Note_off_c, 1, 72, 0
3, 271360, Note_on_c, 1, 74, 96
3, 271616, Note_off_c, 1, 74, 0
3, 271616, Note_on_c, 1, 67, 96
3, 271872, Note_off_c, 1, 67, 0
3, 271872, Note_on_c, 1, 70, 96
3, 272128, Note_off_c, 1, 70, 0
3, 272128, Note_on_c, 1, 74, 96
3, 272384, Note_off_c, 1, 74, 0
3, 272384, Note_on_c, 1, 75, 96
3, 272640, Note_off_c, 1, 75, 0
3, 272640, Note_on_c, 1, 72, 96
3, 272896, Note_off_c, 1, 72, 0
3, 272896, Note_on_c, 1, 69, 96
3, 273152, Note_off_c, 1, 69, 0
3, 273152, Note_on_c, 1, 72, 96
3, 273408, Note_off_c, 1, 72, 0
3, 273408, Note_on_c, 1, 66, 96
3, 273664, Note_off_c, 1, 66, 0
3, 273664, Note_on_c, 1, 75, 96
3, 273920, Note_off_c, 1, 75, 0
3, 273920, Note_on_c, 1, 74, 96
3, 274176, Note_off_c, 1, 74, 0
3, 274176, Note_on_c, 1, 72, 96
3, 274432, Note_off_c, 1, 72, 0
3, 274432, Note_on_c, 1, 70, 96
3, 275456, Note_off_c, 1, 70, 0
3, 275456, Note_on_c, 1, 69, 96
3, 275968, Note_off_c, 1, 69, 0
3, 275968, Note_on_c, 1, 74, 96
3, 276992, Note_off_c, 1, 74, 0
3, 276992, Note_on_c, 1, 73, 96
3, 277248, Note_off_c, 1, 73, 0
3, 277248, Note_on_c, 1, 74, 96
3, 277504, Note_off_c, 1, 74, 0
3, 277504, Note_on_c, 1, 76, 96
3, 279040, Note_off_c, 1, 76, 0
3, 279040, Note_on_c, 1, 74, 96
3, 279552, Note_off_c, 1, 74, 0
3, 280064, Note_on_c, 1, 74, 96
3, 280576, Note_off_c, 1, 74, 0
3, 280576, Note_on_c, 1, 74, 96
3, 281088, Note_off_c, 1, 74, 0
3, 281088, Note_on_c, 1, 72, 96
3, 281600, Note_off_c, 1, 72, 0
3, 282112, Note_on_c, 1, 72, 96
3, 282624, Note_off_c, 1, 72, 0
3, 282624, Note_on_c, 1, 72, 96
3, 283136, Note_off_c, 1, 72, 0
3, 283136, Note_on_c, 1, 71, 96
3, 283648, Note_off_c, 1, 71, 0
3, 284160, Note_on_c, 1, 71, 96
3, 284672, Note_off_c, 1, 71, 0
3, 284672, Note_on_c, 1, 71, 96
3, 285184, Note_off_c, 1, 71, 0
3, 285184, Note_on_c, 1, 69, 96
3, 285696, Note_off_c, 1, 69, 0
3, 286208, Note_on_c, 1, 69, 96
3, 286720, Note_off_c, 1, 69, 0
3, 286720, Note_on_c, 1, 67, 96
3, 287744, Note_off_c, 1, 67, 0
3, 288256, Note_on_c, 1, 67, 96
3, 288768, Note_off_c, 1, 67, 0
3, 288768, Note_on_c, 1, 65, 96
3, 289792, Note_off_c, 1, 65, 0
3, 295168, Note_on_c, 1, 60, 96
3, 295424, Note_off_c, 1, 60, 0
3, 295424, Note_on_c, 1, 64, 96
3, 295680, Note_off_c, 1, 64, 0
3, 295680, Note_on_c, 1, 67, 96
3, 295936, Note_off_c, 1, 67, 0
3, 295936, Note_on_c, 1, 72, 96
3, 296192, Note_off_c, 1, 72, 0
3, 296192, Note_on_c, 1, 65, 96
3, 296448, Note_off_c, 1, 65, 0
3, 296448, Note_on_c, 1, 69, 96
3, 296704, Note_off_c, 1, 69, 0
3, 296704, Note_on_c, 1, 72, 96
3, 296960, Note_off_c, 1, 72, 0
3, 296960, Note_on_c, 1, 74, 96
3, 297216, Note_off_c, 1, 74, 0
3, 297216, Note_on_c, 1, 70, 96
3, 297472, Note_off_c, 1, 70, 0
3, 297472, Note_on_c, 1, 67, 96
3, 297728, Note_off_c, 1, 67, 0
3, 297728, Note_on_c, 1, 70, 96
3, 297984, Note_off_c, 1, 70, 0
3, 297984, Note_on_c, 1, 64, 96
3, 298240, Note_off_c, 1, 64, 0
3, 298240, Note_on_c, 1, 74, 96
3, 298496, Note_off_c, 1, 74, 0
3, 298496, Note_on_c, 1, 72, 96
3, 298752, Note_off_c, 1, 72, 0
3, 298752, Note_on_c, 1, 70, 96
3, 299008, Note_off_c, 1, 70, 0
3, 299008, Note_on_c, 1, 69, 96
3, 299520, Note_off_c, 1, 69, 0
3, 299520, Note_on_c, 1, 67, 96
3, 299776, Note_off_c, 1, 67, 0
3, 299776, Note_on_c, 1, 65, 96
3, 300032, Note_off_c, 1, 65, 0
3, 300032, Note_on_c, 1, 64, 96
3, 300544, Note_off_c, 1, 64, 0
3, 300544, Note_on_c, 1, 60, 96
3, 301056, Note_off_c, 1, 60, 0
3, 301056, Note_on_c, 1, 65, 96
3, 302336, Note_off_c, 1, 65, 0
3, 302336, Note_on_c, 1, 67, 96
3, 302592, Note_off_c, 1, 67, 0
3, 302592, Note_on_c, 1, 65, 96
3, 302848, Note_off_c, 1, 65, 0
3, 302848, Note_on_c, 1, 63, 96
3, 303104, Note_off_c, 1, 63, 0
3, 303104, Note_on_c, 1, 62, 96
3, 303616, Note_off_c, 1, 62, 0
3, 303616, Note_on_c, 1, 63, 96
3, 304640, Note_off_c, 1, 63, 0
3, 304640, Note_on_c, 1, 65, 96
3, 304896, Note_off_c, 1, 65, 0
3, 304896, Note_on_c, 1, 63, 96
3, 305152, Note_off_c, 1, 63, 0
3, 305152, Note_on_c, 1, 62, 96
3, 305664, Note_off_c, 1, 62, 0
3, 305664, Note_on_c, 1, 67, 96
3, 306176, Note_off_c, 1, 67, 0
3, 306176, Note_on_c, 1, 60, 96
3, 307456, Note_off_c, 1, 60, 0
3, 307456, Note_on_c, 1, 62, 96
3, 307712, Note_off_c, 1, 62, 0
3, 307712, Note_on_c, 1, 58, 96
3, 307968, Note_off_c, 1, 58, 0
3, 307968, Note_on_c, 1, 60, 96
3, 308224, Note_off_c, 1, 60, 0
3, 308224, Note_on_c, 1, 62, 96
3, 308480, Note_off_c, 1, 62, 0
3, 308480, Note_on_c, 1, 60, 96
3, 308736, Note_off_c, 1, 60, 0
3, 308736, Note_on_c, 1, 58, 96
3, 308992, Note_off_c, 1, 58, 0
3, 308992, Note_on_c, 1, 57, 96
3, 309248, Note_off_c, 1, 57, 0
3, 309248, Note_on_c, 1, 55, 96
3, 310272, Note_off_c, 1, 55, 0
3, 311808, Note_on_c, 1, 63, 96
3, 312320, Note_off_c, 1, 63, 0
3, 312320, Note_on_c, 1, 60, 96
3, 312832, Note_off_c, 1, 60, 0
3, 312832, Note_on_c, 1, 57, 96
3, 313344, Note_off_c, 1, 57, 0
3, 313344, Note_on_c, 1, 62, 96
3, 313856, Note_off_c, 1, 62, 0
3, 313856, Note_on_c, 1, 67, 96
3, 314880, Note_off_c, 1, 67, 0
3, 315648, Note_on_c, 1, 57, 96
3, 315904, Note_off_c, 1, 57, 0
3, 315904, Note_on_c, 1, 62, 96
3, 316160, Note_off_c, 1, 62, 0
3, 316160, Note_on_c, 1, 65, 96
3, 316416, Note_off_c, 1, 65, 0
3, 316416, Note_on_c, 1, 67, 96
3, 316672, Note_off_c, 1, 67, 0
3, 316672, Note_on_c, 1, 60, 96
3, 316928, Note_off_c, 1, 60, 0
3, 316928, Note_on_c, 1, 64, 96
3, 317184, Note_off_c, 1, 64, 0
3, 317184, Note_on_c, 1, 67, 96
3, 317440, Note_off_c, 1, 67, 0
3, 317440, Note_on_c, 1, 69, 96
3, 317696, Note_off_c, 1, 69, 0
3, 317696, Note_on_c, 1, 65, 96
3, 317952, Note_off_c, 1, 65, 0
3, 317952, Note_on_c, 1, 62, 96
3, 318208, Note_off_c, 1, 62, 0
3, 318208, Note_on_c, 1, 65, 96
3, 318464, Note_off_c, 1, 65, 0
3, 318464, Note_on_c, 1, 59, 96
3, 318720, Note_off_c, 1, 59, 0
3, 318720, Note_on_c, 1, 69, 96
3, 318976, Note_off_c, 1, 69, 0
3, 318976, Note_on_c, 1, 67, 96
3, 319232, Note_off_c, 1, 67, 0
3, 319232, Note_on_c, 1, 65, 96
3, 319488, Note_off_c, 1, 65, 0
3, 319488, Note_on_c, 1, 64, 96
3, 319744, Note_off_c, 1, 64, 0
3, 319744, Note_on_c, 1, 65, 96
3, 320000, Note_off_c, 1, 65, 0
3, 320000, Note_on_c, 1, 62, 96
3, 320256, Note_off_c, 1, 62, 0
3, 320256, Note_on_c, 1, 64, 96
3, 320512, Note_off_c, 1, 64, 0
3, 320512, Note_on_c, 1, 65, 96
3, 320768, Note_off_c, 1, 65, 0
3, 320768, Note_on_c, 1, 67, 96
3, 321024, Note_off_c, 1, 67, 0
3, 321024, Note_on_c, 1, 64, 96
3, 321280, Note_off_c, 1, 64, 0
3, 321280, Note_on_c, 1, 65, 96
3, 321536, Note_off_c, 1, 65, 0
3, 321536, Note_on_c, 1, 67, 96
3, 322048, Note_off_c, 1, 67, 0
3, 325888, Note_on_c, 1, 67, 96
3, 326144, Note_off_c, 1, 67, 0
3, 326144, Note_on_c, 1, 64, 96
3, 326400, Note_off_c, 1, 64, 0
3, 326400, Note_on_c, 1, 60, 96
3, 326656, Note_off_c, 1, 60, 0
3, 326656, Note_on_c, 1, 62, 96
3, 326912, Note_off_c, 1, 62, 0
3, 326912, Note_on_c, 1, 64, 96
3, 327168, Note_off_c, 1, 64, 0
3, 327168, Note_on_c, 1, 65, 96
3, 327680, Note_off_c, 1, 65, 0
3, 327680, Note_on_c, 1, 64, 96
3, 327936, Note_off_c, 1, 64, 0
3, 327936, Note_on_c, 1, 60, 96
3, 328192, Note_off_c, 1, 60, 0
3, 328192, Note_on_c, 1, 57, 96
3, 328448, Note_off_c, 1, 57, 0
3, 328448, Note_on_c, 1, 60, 96
3, 328704, Note_off_c, 1, 60, 0
3, 328704, Note_on_c, 1, 53, 96
3, 328960, Note_off_c, 1, 53, 0
3, 328960, Note_on_c, 1, 64, 96
3, 329216, Note_off_c, 1, 64, 0
3, 329216, Note_on_c, 1, 62, 96
3, 329472, Note_off_c, 1, 62, 0
3, 329472, Note_on_c, 1, 60, 96
3, 329728, Note_off_c, 1, 60, 0
3, 329728, Note_on_c, 1, 59, 96
3, 329984, Note_off_c, 1, 59, 0
3, 329984, Note_on_c, 1, 60, 96
3, 330240, Note_off_c, 1, 60, 0
3, 330240, Note_on_c, 1, 57, 96
3, 330496, Note_off_c, 1, 57, 0
3, 330496, Note_on_c, 1, 59, 96
3, 330752, Note_off_c, 1, 59, 0
3, 330752, Note_on_c, 1, 60, 96
3, 331008, Note_off_c, 1, 60, 0
3, 331008, Note_on_c, 1, 57, 96
3, 331264, Note_off_c, 1, 57, 0
3, 331264, Note_on_c, 1, 55, 96
3, 331520, Note_off_c, 1, 55, 0
3, 331520, Note_on_c, 1, 53, 96
3, 331776, Note_off_c, 1, 53, 0
3, 331776, Note_on_c, 1, 55, 96
3, 332800, Note_off_c, 1, 55, 0
3, 333312, Note_on_c, 1, 60, 96
3, 333824, Note_off_c, 1, 60, 0
3, 333824, Note_on_c, 1, 58, 96
3, 334336, Note_off_c, 1, 58, 0
3, 334336, Note_on_c, 1, 62, 96
3, 334848, Note_off_c, 1, 62, 0
3, 334848, Note_on_c, 1, 64, 96
3, 335872, Note_off_c, 1, 64, 0
3, 336128, Note_on_c, 1, 57, 96
3, 336384, Note_off_c, 1, 57, 0
3, 336384, Note_on_c, 1, 60, 96
3, 336640, Note_off_c, 1, 60, 0
3, 336640, Note_on_c, 1, 65, 96
3, 336896, Note_off_c, 1, 65, 0
3, 336896, Note_on_c, 1, 69, 96
3, 337152, Note_off_c, 1, 69, 0
3, 337152, Note_on_c, 1, 62, 96
3, 337408, Note_off_c, 1, 62, 0
3, 337408, Note_on_c, 1, 65, 96
3, 337664, Note_off_c, 1, 65, 0
3, 337664, Note_on_c, 1, 69, 96
3, 337920, Note_off_c, 1, 69, 0
3, 337920, Note_on_c, 1, 70, 96
3, 338176, Note_off_c, 1, 70, 0
3, 338176, Note_on_c, 1, 67, 96
3, 338432, Note_off_c, 1, 67, 0
3, 338432, Note_on_c, 1, 64, 96
3, 338688, Note_off_c, 1, 64, 0
3, 338688, Note_on_c, 1, 67, 96
3, 338944, Note_off_c, 1, 67, 0
3, 338944, Note_on_c, 1, 60, 96
3, 339200, Note_off_c, 1, 60, 0
3, 339200, Note_on_c, 1, 70, 96
3, 339456, Note_off_c, 1, 70, 0
3, 339456, Note_on_c, 1, 69, 96
3, 339712, Note_off_c, 1, 69, 0
3, 339712, Note_on_c, 1, 67, 96
3, 339968, Note_off_c, 1, 67, 0
3, 339968, Note_on_c, 1, 72, 96
3, 340224, Note_off_c, 1, 72, 0
3, 340224, Note_on_c, 1, 69, 96
3, 340480, Note_off_c, 1, 69, 0
3, 340480, Note_on_c, 1, 65, 96
3, 340736, Note_off_c, 1, 65, 0
3, 340736, Note_on_c, 1, 69, 96
3, 340992, Note_off_c, 1, 69, 0
3, 340992, Note_on_c, 1, 62, 96
3, 341248, Note_off_c, 1, 62, 0
3, 341248, Note_on_c, 1, 72, 96
3, 341504, Note_off_c, 1, 72, 0
3, 341504, Note_on_c, 1, 70, 96
3, 341760, Note_off_c, 1, 70, 0
3, 341760, Note_on_c, 1, 69, 96
3, 342016, Note_off_c, 1, 69, 0
3, 342016, Note_on_c, 1, 67, 96
3, 343040, Note_off_c, 1, 67, 0
3, 343040, Note_on_c, 1, 69, 96
3, 343552, Note_off_c, 1, 69, 0
3, 343552, Note_on_c, 1, 71, 96
3, 344064, Note_off_c, 1, 71, 0
3, 344064, Note_on_c, 1, 72, 96
3, 344576, Note_off_c, 1, 72, 0
3, 346368, Note_on_c, 1, 62, 96
3, 346624, Note_off_c, 1, 62, 0
3, 346624, Note_on_c, 1, 67, 96
3, 346880, Note_off_c, 1, 67, 0
3, 346880, Note_on_c, 1, 70, 96
3, 347136, Note_off_c, 1, 70, 0
3, 347136, Note_on_c, 1, 74, 96
3, 347392, Note_off_c, 1, 74, 0
3, 347392, Note_on_c, 1, 67, 96
3, 347648, Note_off_c, 1, 67, 0
3, 347648, Note_on_c, 1, 70, 96
3, 347904, Note_off_c, 1, 70, 0
3, 347904, Note_on_c, 1, 74, 96
3, 348160, Note_off_c, 1, 74, 0
3, 348160, Note_on_c, 1, 75, 96
3, 348416, Note_off_c, 1, 75, 0
3, 348416, Note_on_c, 1, 72, 96
3, 348672, Note_off_c, 1, 72, 0
3, 348672, Note_on_c, 1, 69, 96
3, 348928, Note_off_c, 1, 69, 0
3, 348928, Note_on_c, 1, 72, 96
3, 349184, Note_off_c, 1, 72, 0
3, 349184, Note_on_c, 1, 66, 96
3, 349440, Note_off_c, 1, 66, 0
3, 349440, Note_on_c, 1, 75, 96
3, 349696, Note_off_c, 1, 75, 0
3, 349696, Note_on_c, 1, 74, 96
3, 349952, Note_off_c, 1, 74, 0
3, 349952, Note_on_c, 1, 72, 96
3, 350208, Note_off_c, 1, 72, 0
3, 350208, Note_on_c, 1, 70, 96
3, 350464, Note_off_c, 1, 70, 0
3, 350464, Note_on_c, 1, 69, 96
3, 350720, Note_off_c, 1, 69, 0
3, 350720, Note_on_c, 1, 67, 96
3, 350976, Note_off_c, 1, 67, 0
3, 350976, Note_on_c, 1, 65, 96
3, 351232, Note_off_c, 1, 65, 0
3, 351232, Note_on_c, 1, 64, 96
3, 351488, Note_off_c, 1, 64, 0
3, 351488, Note_on_c, 1, 62, 96
3, 351744, Note_off_c, 1, 62, 0
3, 351744, Note_on_c, 1, 61, 96
3, 352000, Note_off_c, 1, 61, 0
3, 352000, Note_on_c, 1, 64, 96
3, 352256, Note_off_c, 1, 64, 0
3, 352256, Note_on_c, 1, 62, 96
3, 353280, Note_off_c, 1, 62, 0
3, 353792, Note_on_c, 1, 65, 96
3, 354304, Note_off_c, 1, 65, 0
3, 354304, Note_on_c, 1, 67, 96
3, 355328, Note_off_c, 1, 67, 0
3, 355840, Note_on_c, 1, 67, 96
3, 356352, Note_off_c, 1, 67, 0
3, 356352, Note_on_c, 1, 60, 96
3, 356864, Note_off_c, 1, 60, 0
3, 356864, Note_on_c, 1, 69, 96
3, 357888, Note_off_c, 1, 69, 0
3, 357888, Note_on_c, 1, 67, 96
3, 358144, Note_off_c, 1, 67, 0
3, 358144, Note_on_c, 1, 65, 96
3, 358400, Note_off_c, 1, 65, 0
3, 358400, Note_on_c, 1, 63, 96
3, 358656, Note_off_c, 1, 63, 0
3, 358656, Note_on_c, 1, 65, 96
3, 358912, Note_off_c, 1, 65, 0
3, 358912, Note_on_c, 1, 62, 96
3, 359168, Note_off_c, 1, 62, 0
3, 359168, Note_on_c, 1, 64, 96
3, 359424, Note_off_c, 1, 64, 0
3, 359424, Note_on_c, 1, 65, 96
3, 359680, Note_off_c, 1, 65, 0
3, 359680, Note_on_c, 1, 64, 96
3, 359808, Note_off_c, 1, 64, 0
3, 359808, Note_on_c, 1, 62, 96
3, 359936, Note_off_c, 1, 62, 0
3, 359936, Note_on_c, 1, 60, 96
3, 360192, Note_off_c, 1, 60, 0
3, 360192, Note_on_c, 1, 58, 96
3, 360448, Note_off_c, 1, 58, 0
3, 360448, Note_on_c, 1, 57, 96
3, 360704, Note_off_c, 1, 57, 0
3, 360704, Note_on_c, 1, 60, 96
3, 360960, Note_off_c, 1, 60, 0
3, 360960, Note_on_c, 1, 58, 96
3, 361216, Note_off_c, 1, 58, 0
3, 361216, Note_on_c, 1, 60, 96
3, 361472, Note_off_c, 1, 60, 0
3, 361472, Note_on_c, 1, 62, 96
3, 361728, Note_off_c, 1, 62, 0
3, 361728, Note_on_c, 1, 60, 96
3, 361984, Note_off_c, 1, 60, 0
3, 361984, Note_on_c, 1, 58, 96
3, 362240, Note_off_c, 1, 58, 0
3, 362240, Note_on_c, 1, 57, 96
3, 362496, Note_off_c, 1, 57, 0
3, 362496, Note_on_c, 1, 55, 96
3, 363264, Note_off_c, 1, 55, 0
3, 363264, Note_on_c, 1, 57, 96
3, 363520, Note_off_c, 1, 57, 0
3, 363520, Note_on_c, 1, 58, 96
3, 363584, Note_off_c, 1, 58, 0
3, 363584, Note_on_c, 1, 57, 96
3, 363648, Note_off_c, 1, 57, 0
3, 363648, Note_on_c, 1, 58, 96
3, 363712, Note_off_c, 1, 58, 0
3, 363712, Note_on_c, 1, 57, 96
3, 363776, Note_off_c, 1, 57, 0
3, 363776, Note_on_c, 1, 58, 96
3, 363840, Note_off_c, 1, 58, 0
3, 363840, Note_on_c, 1, 57, 96
3, 364288, Note_off_c, 1, 57, 0
3, 364288, Note_on_c, 1, 55, 96
3, 364416, Note_off_c, 1, 55, 0
3, 364416, Note_on_c, 1, 57, 96
3, 364544, Note_off_c, 1, 57, 0
3, 364544, Note_on_c, 1, 58, 96
3, 366848, Note_off_c, 1, 58, 0
3, 366848, Note_on_c, 1, 57, 96
3, 367104, Note_off_c, 1, 57, 0
3, 367104, Note_on_c, 1, 55, 96
3, 367360, Note_off_c, 1, 55, 0
3, 367360, Note_on_c, 1, 57, 96
3, 367616, Note_off_c, 1, 57, 0
3, 367616, Note_on_c, 1, 58, 96
3, 367872, Note_off_c, 1, 58, 0
3, 367872, Note_on_c, 1, 57, 96
3, 368128, Note_off_c, 1, 57, 0
3, 368128, Note_on_c, 1, 55, 96
3, 368384, Note_off_c, 1, 55, 0
3, 368384, Note_on_c, 1, 53, 96
3, 368640, Note_off_c, 1, 53, 0
3, 368640, Note_on_c, 1, 60, 96
3, 370944, Note_off_c, 1, 60, 0
3, 370944, Note_on_c, 1, 58, 96
3, 371200, Note_off_c, 1, 58, 0
3, 371200, Note_on_c, 1, 57, 96
3, 371456, Note_off_c, 1, 57, 0
3, 371456, Note_on_c, 1, 58, 96
3, 371712, Note_off_c, 1, 58, 0
3, 371712, Note_on_c, 1, 60, 96
3, 371968, Note_off_c, 1, 60, 0
3, 371968, Note_on_c, 1, 58, 96
3, 372224, Note_off_c, 1, 58, 0
3, 372224, Note_on_c, 1, 57, 96
3, 372480, Note_off_c, 1, 57, 0
3, 372480, Note_on_c, 1, 55, 96
3, 372736, Note_off_c, 1, 55, 0
3, 372736, Note_on_c, 1, 57, 96
3, 372992, Note_off_c, 1, 57, 0
3, 372992, Note_on_c, 1, 69, 96
3, 373248, Note_off_c, 1, 69, 0
3, 373248, Note_on_c, 1, 67, 96
3, 373504, Note_off_c, 1, 67, 0
3, 373504, Note_on_c, 1, 69, 96
3, 373760, Note_off_c, 1, 69, 0
3, 373760, Note_on_c, 1, 70, 96
3, 374016, Note_off_c, 1, 70, 0
3, 374016, Note_on_c, 1, 69, 96
3, 374272, Note_off_c, 1, 69, 0
3, 374272, Note_on_c, 1, 67, 96
3, 374528, Note_off_c, 1, 67, 0
3, 374528, Note_on_c, 1, 65, 96
3, 374784, Note_off_c, 1, 65, 0
3, 374784, Note_on_c, 1, 67, 96
3, 375552, Note_off_c, 1, 67, 0
3, 375552, Note_on_c, 1, 70, 96
3, 375808, Note_off_c, 1, 70, 0
3, 375808, Note_on_c, 1, 70, 96
3, 375872, Note_off_c, 1, 70, 0
3, 375872, Note_on_c, 1, 69, 96
3, 375936, Note_off_c, 1, 69, 0
3, 375936, Note_on_c, 1, 70, 96
3, 376000, Note_off_c, 1, 70, 0
3, 376000, Note_on_c, 1, 69, 96
3, 376064, Note_off_c, 1, 69, 0
3, 376064, Note_on_c, 1, 70, 96
3, 376128, Note_off_c, 1, 70, 0
3, 376128, Note_on_c, 1, 69, 96
3, 376576, Note_off_c, 1, 69, 0
3, 376576, Note_on_c, 1, 67, 96
3, 376832, Note_off_c, 1, 67, 0
3, 376832, Note_on_c, 1, 65, 96
3, 377600, Note_off_c, 1, 65, 0
3, 377600, Note_on_c, 1, 67, 96
3, 377856, Note_off_c, 1, 67, 0
3, 377856, Note_on_c, 1, 67, 96
3, 379904, Note_off_c, 1, 67, 0
3, 379904, Note_on_c, 1, 65, 96
3, 380672, Note_off_c, 1, 65, 0
3, 380672, Note_on_c, 1, 62, 96
3, 380928, Note_off_c, 1, 62, 0
3, 380928, Note_on_c, 1, 64, 96
3, 382720, Note_off_c, 1, 64, 0
3, 382720, Note_on_c, 1, 69, 96
3, 382976, Note_off_c, 1, 69, 0
3, 382976, Note_on_c, 1, 62, 96
3, 383232, Note_off_c, 1, 62, 0
3, 383232, Note_on_c, 1, 63, 96
3, 383488, Note_off_c, 1, 63, 0
3, 383488, Note_on_c, 1, 60, 96
3, 383744, Note_off_c, 1, 60, 0
3, 383744, Note_on_c, 1, 62, 96
3, 384000, Note_off_c, 1, 62, 0
3, 384000, Note_on_c, 1, 63, 96
3, 384256, Note_off_c, 1, 63, 0
3, 384256, Note_on_c, 1, 62, 96
3, 384512, Note_off_c, 1, 62, 0
3, 384512, Note_on_c, 1, 60, 96
3, 384768, Note_off_c, 1, 60, 0
3, 384768, Note_on_c, 1, 58, 96
3, 385024, Note_off_c, 1, 58, 0
3, 385024, Note_on_c, 1, 60, 96
3, 385280, Note_off_c, 1, 60, 0
3, 385280, Note_on_c, 1, 63, 96
3, 385536, Note_off_c, 1, 63, 0
3, 385536, Note_on_c, 1, 62, 96
3, 385792, Note_off_c, 1, 62, 0
3, 385792, Note_on_c, 1, 63, 96
3, 386048, Note_off_c, 1, 63, 0
3, 386048, Note_on_c, 1, 57, 96
3, 386560, Note_off_c, 1, 57, 0
3, 386560, Note_on_c, 1, 62, 96
3, 387328, Note_off_c, 1, 62, 0
3, 387328, Note_on_c, 1, 69, 96
3, 387584, Note_off_c, 1, 69, 0
3, 387584, Note_on_c, 1, 67, 96
3, 387840, Note_off_c, 1, 67, 0
3, 387840, Note_on_c, 1, 69, 96
3, 388096, Note_off_c, 1, 69, 0
3, 388096, Note_on_c, 1, 70, 96
3, 388352, Note_off_c, 1, 70, 0
3, 388352, Note_on_c, 1, 69, 96
3, 388608, Note_off_c, 1, 69, 0
3, 388608, Note_on_c, 1, 67, 96
3, 388864, Note_off_c, 1, 67, 0
3, 388864, Note_on_c, 1, 65, 96
3, 389120, Note_off_c, 1, 65, 0
3, 389120, Note_on_c, 1, 64, 96
3, 389376, Note_off_c, 1, 64, 0
3, 389376, Note_on_c, 1, 65, 96
3, 389632, Note_off_c, 1, 65, 0
3, 389632, Note_on_c, 1, 64, 96
3, 389888, Note_off_c, 1, 64, 0
3, 389888, Note_on_c, 1, 65, 96
3, 390144, Note_off_c, 1, 65, 0
3, 390144, Note_on_c, 1, 67, 96
3, 390400, Note_off_c, 1, 67, 0
3, 390400, Note_on_c, 1, 65, 96
3, 390656, Note_off_c, 1, 65, 0
3, 390656, Note_on_c, 1, 64, 96
3, 391680, Note_off_c, 1, 64, 0
3, 391680, Note_on_c, 1, 62, 96
3, 392192, Note_off_c, 1, 62, 0
3, 392192, Note_on_c, 1, 67, 96
3, 393472, Note_off_c, 1, 67, 0
3, 393472, Note_on_c, 1, 67, 96
3, 393728, Note_off_c, 1, 67, 0
3, 393728, Note_on_c, 1, 69, 96
3, 393984, Note_off_c, 1, 69, 0
3, 393984, Note_on_c, 1, 67, 96
3, 394240, Note_off_c, 1, 67, 0
3, 394240, Note_on_c, 1, 66, 96
3, 394496, Note_off_c, 1, 66, 0
3, 394496, Note_on_c, 1, 67, 96
3, 394752, Note_off_c, 1, 67, 0
3, 394752, Note_on_c, 1, 69, 96
3, 395008, Note_off_c, 1, 69, 0
3, 395008, Note_on_c, 1, 70, 96
3, 395264, Note_off_c, 1, 70, 0
3, 395264, Note_on_c, 1, 72, 96
3, 395776, Note_off_c, 1, 72, 0
3, 395776, Note_on_c, 1, 70, 96
3, 396288, Note_off_c, 1, 70, 0
3, 396288, Note_on_c, 1, 69, 96
3, 396800, Note_off_c, 1, 69, 0
3, 396800, Note_on_c, 1, 72, 96
3, 397312, Note_off_c, 1, 72, 0
3, 397312, Note_on_c, 1, 70, 96
3, 397824, Note_off_c, 1, 70, 0
3, 397824, Note_on_c, 1, 67, 96
3, 398336, Note_off_c, 1, 67, 0
3, 398848, Note_on_c, 1, 69, 96
3, 399360, Note_off_c, 1, 69, 0
3, 399360, Note_on_c, 1, 69, 96
3, 400384, Note_off_c, 1, 69, 0
3, 400896, Note_on_c, 1, 74, 96
3, 401408, Note_off_c, 1, 74, 0
3, 401408, Note_on_c, 1, 77, 96
3, 401920, Note_off_c, 1, 77, 0
3, 401920, Note_on_c, 1, 76, 96
3, 402432, Note_off_c, 1, 76, 0
3, 402944, Note_on_c, 1, 76, 96
3, 403456, Note_off_c, 1, 76, 0
3, 403456, Note_on_c, 1, 76, 96
3, 403968, Note_off_c, 1, 76, 0
3, 403968, Note_on_c, 1, 74, 96
3, 404224, Note_off_c, 1, 74, 0
3, 404224, Note_on_c, 1, 73, 96
3, 404480, Note_off_c, 1, 73, 0
3, 404480, Note_on_c, 1, 74, 96
3, 405248, Note_off_c, 1, 74, 0
3, 405248, Note_on_c, 1, 72, 96
3, 405504, Note_off_c, 1, 72, 0
3, 405504, Note_on_c, 1, 74, 96
3, 405760, Note_off_c, 1, 74, 0
3, 405760, Note_on_c, 1, 76, 96
3, 406016, Note_off_c, 1, 76, 0
3, 406016, Note_on_c, 1, 72, 96
3, 406272, Note_off_c, 1, 72, 0
3, 406272, Note_on_c, 1, 74, 96
3, 406528, Note_off_c, 1, 74, 0
3, 406528, Note_on_c, 1, 76, 96
3, 406784, Note_off_c, 1, 76, 0
3, 406784, Note_on_c, 1, 74, 96
3, 407040, Note_off_c, 1, 74, 0
3, 407040, Note_on_c, 1, 72, 96
3, 407296, Note_off_c, 1, 72, 0
3, 407296, Note_on_c, 1, 70, 96
3, 407552, Note_off_c, 1, 70, 0
3, 407552, Note_on_c, 1, 74, 96
3, 409600, Note_off_c, 1, 74, 0
3, 409600, Note_on_c, 1, 72, 96
3, 411648, Note_off_c, 1, 72, 0
3, 411648, Note_on_c, 1, 70, 96
3, 413696, Note_off_c, 1, 70, 0
3, 413952, Note_on_c, 1, 74, 96
3, 414208, Note_off_c, 1, 74, 0
3, 414208, Note_on_c, 1, 70, 96
3, 414464, Note_off_c, 1, 70, 0
3, 414464, Note_on_c, 1, 72, 96
3, 414720, Note_off_c, 1, 72, 0
3, 414720, Note_on_c, 1, 74, 96
3, 414976, Note_off_c, 1, 74, 0
3, 414976, Note_on_c, 1, 72, 96
3, 415232, Note_off_c, 1, 72, 0
3, 415232, Note_on_c, 1, 70, 96
3, 415488, Note_off_c, 1, 70, 0
3, 415488, Note_on_c, 1, 69, 96
3, 415744, Note_off_c, 1, 69, 0
3, 415744, Note_on_c, 1, 67, 96
3, 418048, Note_off_c, 1, 67, 0
3, 418048, Note_on_c, 1, 69, 96
3, 418304, Note_off_c, 1, 69, 0
3, 418304, Note_on_c, 1, 65, 96
3, 418560, Note_off_c, 1, 65, 0
3, 418560, Note_on_c, 1, 67, 96
3, 418816, Note_off_c, 1, 67, 0
3, 418816, Note_on_c, 1, 69, 96
3, 419072, Note_off_c, 1, 69, 0
3, 419072, Note_on_c, 1, 67, 96
3, 419328, Note_off_c, 1, 67, 0
3, 419328, Note_on_c, 1, 65, 96
3, 419584, Note_off_c, 1, 65, 0
3, 419584, Note_on_c, 1, 63, 96
3, 419840, Note_off_c, 1, 63, 0
3, 419840, Note_on_c, 1, 62, 96
3, 420608, Note_off_c, 1, 62, 0
3, 420608, Note_on_c, 1, 64, 96
3, 420864, Note_off_c, 1, 64, 0
3, 420864, Note_on_c, 1, 64, 96
3, 421632, Note_off_c, 1, 64, 0
3, 421632, Note_on_c, 1, 62, 96
3, 421760, Note_off_c, 1, 62, 0
3, 421760, Note_on_c, 1, 64, 96
3, 421888, Note_off_c, 1, 64, 0
3, 421888, Note_on_c, 1, 65, 96
3, 422144, Note_off_c, 1, 65, 0
3, 426240, Note_on_c, 1, 74, 96
3, 426496, Note_off_c, 1, 74, 0
3, 426496, Note_on_c, 1, 72, 96
3, 426752, Note_off_c, 1, 72, 0
3, 426752, Note_on_c, 1, 70, 96
3, 427008, Note_off_c, 1, 70, 0
3, 427008, Note_on_c, 1, 69, 96
3, 427776, Note_off_c, 1, 69, 0
3, 427776, Note_on_c, 1, 68, 96
3, 428032, Note_off_c, 1, 68, 0
3, 428032, Note_on_c, 1, 67, 96
3, 429312, Note_off_c, 1, 67, 0
3, 429312, Note_on_c, 1, 69, 96
3, 429568, Note_off_c, 1, 69, 0
3, 429568, Note_on_c, 1, 70, 96
3, 430080, Note_off_c, 1, 70, 0
3, 430080, Note_on_c, 1, 69, 96
3, 434176, Note_off_c, 1, 69, 0
3, 434176, End_track
4, 0, Start_track
4, 0, Title_t, "Instrument 3"
4, 395520, Note_on_c, 2, 62, 96
4, 395776, Note_off_c, 2, 62, 0
4, 395776, Note_on_c, 2, 63, 96
4, 396032, Note_off_c, 2, 63, 0
4, 396032, Note_on_c, 2, 62, 96
4, 396288, Note_off_c, 2, 62, 0
4, 396288, Note_on_c, 2, 60, 96
4, 396544, Note_off_c, 2, 60, 0
4, 396544, Note_on_c, 2, 62, 96
4, 396800, Note_off_c, 2, 62, 0
4, 396800, Note_on_c, 2, 64, 96
4, 397056, Note_off_c, 2, 64, 0
4, 397056, Note_on_c, 2, 66, 96
4, 397312, Note_off_c, 2, 66, 0
4, 397312, Note_on_c, 2, 67, 96
4, 397824, Note_off_c, 2, 67, 0
4, 397824, Note_on_c, 2, 64, 96
4, 398336, Note_off_c, 2, 64, 0
4, 398848, Note_on_c, 2, 67, 96
4, 399360, Note_off_c, 2, 67, 0
4, 399360, Note_on_c, 2, 67, 96
4, 399872, Note_off_c, 2, 67, 0
4, 399872, Note_on_c, 2, 65, 96
4, 400384, Note_off_c, 2, 65, 0
4, 400896, Note_on_c, 2, 69, 96
4, 401408, Note_off_c, 2, 69, 0
4, 401408, Note_on_c, 2, 74, 96
4, 402432, Note_off_c, 2, 74, 0
4, 402944, Note_on_c, 2, 69, 96
4, 402944, Note_on_c, 2, 73, 96
4, 403456, Note_off_c, 2, 69, 0
4, 403456, Note_off_c, 2, 73, 0
4, 403456, Note_on_c, 2, 69, 96
4, 403456, Note_on_c, 2, 73, 96
4, 403968, Note_off_c, 2, 73, 0
4, 403968, Note_on_c, 2, 74, 96
4, 404480, Note_off_c, 2, 69, 0
4, 404480, Note_off_c, 2, 74, 0
4, 404480, Note_on_c, 2, 74, 96
4, 405248, Note_off_c, 2, 74, 0
4, 405248, Note_on_c, 2, 72, 96
4, 405504, Note_off_c, 2, 72, 0
4, 423424, Note_on_c, 2, 60, 96
4, 424448, Note_off_c, 2, 60, 0
4, 424448, Note_on_c, 2, 59, 96
4, 424960, Note_off_c, 2, 59, 0
4, 425472, Note_on_c, 2, 59, 96
4, 425984, Note_off_c, 2, 59, 0
4, 425984, Note_on_c, 2, 60, 96
4, 427776, Note_off_c, 2, 60, 0
4, 427776, Note_on_c, 2, 59, 96
4, 428032, Note_off_c, 2, 59, 0
4, 428032, Note_on_c, 2, 60, 96
4, 434176, Note_off_c, 2, 60, 0
4, 434176, End_track
5, 0, Start_track
5, 0, Title_t, "Instrument 4"
5, 404736, Note_on_c, 3, 69, 96
5, 404992, Note_off_c, 3, 69, 0
5, 404992, Note_on_c, 3, 70, 96
5, 405248, Note_off_c, 3, 70, 0
5, 405248, Note_on_c, 3, 69, 96
5, 405504, Note_off_c, 3, 69, 0
5, 405504, Note_on_c, 3, 67, 96
5, 405760, Note_off_c, 3, 67, 0
5, 405760, Note_on_c, 3, 69, 96
5, 406016, Note_off_c, 3, 69, 0
5, 406016, Note_on_c, 3, 65, 96
5, 406272, Note_off_c, 3, 65, 0
5, 406272, Note_on_c, 3, 67, 96
5, 406528, Note_off_c, 3, 67, 0
5, 406528, Note_on_c, 3, 69, 96
5, 406784, Note_off_c, 3, 69, 0
5, 406784, Note_on_c, 3, 67, 96
5, 407040, Note_off_c, 3, 67, 0
5, 407040, Note_on_c, 3, 66, 96
5, 407296, Note_off_c, 3, 66, 0
5, 407296, Note_on_c, 3, 64, 96
5, 407552, Note_off_c, 3, 64, 0
5, 407552, Note_on_c, 3, 66, 96
5, 407808, Note_off_c, 3, 66, 0
5, 407808, Note_on_c, 3, 62, 96
5, 408064, Note_off_c, 3, 62, 0
5, 408064, Note_on_c, 3, 64, 96
5, 408320, Note_off_c, 3, 64, 0
5, 408320, Note_on_c, 3, 66, 96
5, 408576, Note_off_c, 3, 66, 0
5, 408576, Note_on_c, 3, 67, 96
5, 408832, Note_off_c, 3, 67, 0
5, 408832, Note_on_c, 3, 65, 96
5, 409088, Note_off_c, 3, 65, 0
5, 409088, Note_on_c, 3, 64, 96
5, 409344, Note_off_c, 3, 64, 0
5, 409344, Note_on_c, 3, 62, 96
5, 409600, Note_off_c, 3, 62, 0
5, 409600, Note_on_c, 3, 67, 96
5, 410624, Note_off_c, 3, 67, 0
5, 410624, Note_on_c, 3, 69, 96
5, 411648, Note_off_c, 3, 69, 0
5, 411648, Note_on_c, 3, 67, 96
5, 413696, Note_off_c, 3, 67, 0
5, 413696, Note_on_c, 3, 65, 96
5, 414720, Note_off_c, 3, 65, 0
5, 415232, Note_on_c, 3, 65, 96
5, 415744, Note_off_c, 3, 65, 0
5, 415744, Note_on_c, 3, 60, 96
5, 416000, Note_off_c, 3, 60, 0
5, 416000, Note_on_c, 3, 64, 96
5, 416256, Note_off_c, 3, 64, 0
5, 416256, Note_on_c, 3, 60, 96
5, 416512, Note_off_c, 3, 60, 0
5, 416512, Note_on_c, 3, 62, 96
5, 416768, Note_off_c, 3, 62, 0
5, 416768, Note_on_c, 3, 64, 96
5, 417024, Note_off_c, 3, 64, 0
5, 417024, Note_on_c, 3, 62, 96
5, 417280, Note_off_c, 3, 62, 0
5, 417280, Note_on_c, 3, 60, 96
5, 417536, Note_off_c, 3, 60, 0
5, 417536, Note_on_c, 3, 58, 96
5, 417792, Note_off_c, 3, 58, 0
5, 417792, Note_on_c, 3, 57, 96
5, 418048, Note_off_c, 3, 57, 0
5, 418048, Note_on_c, 3, 60, 96
5, 418304, Note_off_c, 3, 60, 0
5, 418304, Note_on_c, 3, 57, 96
5, 418560, Note_off_c, 3, 57, 0
5, 418560, Note_on_c, 3, 58, 96
5, 418816, Note_off_c, 3, 58, 0
5, 418816, Note_on_c, 3, 60, 96
5, 419072, Note_off_c, 3, 60, 0
5, 419072, Note_on_c, 3, 58, 96
5, 419328, Note_off_c, 3, 58, 0
5, 419328, Note_on_c, 3, 57, 96
5, 419584, Note_off_c, 3, 57, 0
5, 419584, Note_on_c, 3, 55, 96
5, 419840, Note_off_c, 3, 55, 0
5, 419840, Note_on_c, 3, 53, 96
5, 420864, Note_off_c, 3, 53, 0
5, 422144, Note_on_c, 3, 57, 96
5, 422400, Note_off_c, 3, 57, 0
5, 422400, Note_on_c, 3, 60, 96
5, 422656, Note_off_c, 3, 60, 0
5, 422656, Note_on_c, 3, 65, 96
5, 422912, Note_off_c, 3, 65, 0
5, 422912, Note_on_c, 3, 69, 96
5, 423168, Note_off_c, 3, 69, 0
5, 423168, Note_on_c, 3, 65, 96
5, 423424, Note_off_c, 3, 65, 0
5, 423424, Note_on_c, 3, 60, 96
5, 423680, Note_off_c, 3, 60, 0
5, 423680, Note_on_c, 3, 57, 96
5, 423936, Note_off_c, 3, 57, 0
5, 423936, Note_on_c, 3, 53, 96
5, 424960, Note_off_c, 3, 53, 0
5, 425472, Note_on_c, 3, 55, 96
5, 425984, Note_off_c, 3, 55, 0
5, 425984, Note_on_c, 3, 55, 96
5, 427520, Note_off_c, 3, 55, 0
5, 427520, Note_on_c, 3, 53, 96
5, 428032, Note_off_c, 3, 53, 0
5, 428032, Note_on_c, 3, 55, 96
5, 430080, Note_off_c, 3, 55, 0
5, 430080, Note_on_c, 3, 53, 96
5, 434176, Note_off_c, 3, 53, 0
5, 434176, End_track
6, 0, Start_track
6, 0, Title_t, "Instrument 5"
6, 4352, Note_on_c, 4, 53, 96
6, 4608, Note_off_c, 4, 53, 0
6, 4608, Note_on_c, 4, 57, 96
6, 4864, Note_off_c, 4, 57, 0
6, 4864, Note_on_c, 4, 60, 96
6, 5120, Note_off_c, 4, 60, 0
6, 5120, Note_on_c, 4, 65, 96
6, 5376, Note_off_c, 4, 65, 0
6, 5376, Note_on_c, 4, 57, 96
6, 5632, Note_off_c, 4, 57, 0
6, 5632, Note_on_c, 4, 60, 96
6, 5888, Note_off_c, 4, 60, 0
6, 5888, Note_on_c, 4, 65, 96
6, 6144, Note_off_c, 4, 65, 0
6, 6144, Note_on_c, 4, 69, 96
6, 6400, Note_off_c, 4, 69, 0
6, 6400, Note_on_c, 4, 65, 96
6, 6656, Note_off_c, 4, 65, 0
6, 6656, Note_on_c, 4, 62, 96
6, 6912, Note_off_c, 4, 62, 0
6, 6912, Note_on_c, 4, 65, 96
6, 7168, Note_off_c, 4, 65, 0
6, 7168, Note_on_c, 4, 58, 96
6, 7424, Note_off_c, 4, 58, 0
6, 7424, Note_on_c, 4, 69, 96
6, 7680, Note_off_c, 4, 69, 0
6, 7680, Note_on_c, 4, 67, 96
6, 7936, Note_off_c, 4, 67, 0
6, 7936, Note_on_c, 4, 65, 96
6, 8192, Note_off_c, 4, 65, 0
6, 8192, Note_on_c, 4, 64, 96
6, 8448, Note_off_c, 4, 64, 0
6, 8448, Note_on_c, 4, 65, 96
6, 8704, Note_off_c, 4, 65, 0
6, 8704, Note_on_c, 4, 62, 96
6, 8960, Note_off_c, 4, 62, 0
6, 8960, Note_on_c, 4, 64, 96
6, 9216, Note_off_c, 4, 64, 0
6, 9216, Note_on_c, 4, 65, 96
6, 9472, Note_off_c, 4, 65, 0
6, 9472, Note_on_c, 4, 62, 96
6, 9728, Note_off_c, 4, 62, 0
6, 9728, Note_on_c, 4, 60, 96
6, 9984, Note_off_c, 4, 60, 0
6, 9984, Note_on_c, 4, 58, 96
6, 10240, Note_off_c, 4, 58, 0
6, 10240, Note_on_c, 4, 57, 96
6, 10496, Note_off_c, 4, 57, 0
6, 10496, Note_on_c, 4, 58, 96
6, 10752, Note_off_c, 4, 58, 0
6, 10752, Note_on_c, 4, 55, 96
6, 11008, Note_off_c, 4, 55, 0
6, 11008, Note_on_c, 4, 57, 96
6, 11264, Note_off_c, 4, 57, 0
6, 11264, Note_on_c, 4, 58, 96
6, 12800, Note_off_c, 4, 58, 0
6, 12800, Note_on_c, 4, 57, 96
6, 13056, Note_off_c, 4, 57, 0
6, 13056, Note_on_c, 4, 55, 96
6, 13312, Note_off_c, 4, 55, 0
6, 13312, Note_on_c, 4, 57, 96
6, 13824, Note_off_c, 4, 57, 0
6, 13824, Note_on_c, 4, 53, 96
6, 14336, Note_off_c, 4, 53, 0
6, 14336, Note_on_c, 4, 48, 96
6, 14848, Note_off_c, 4, 48, 0
6, 14848, Note_on_c, 4, 53, 96
6, 16384, Note_off_c, 4, 53, 0
6, 16384, Note_on_c, 4, 55, 96
6, 17152, Note_off_c, 4, 55, 0
6, 17152, Note_on_c, 4, 53, 96
6, 17408, Note_off_c, 4, 53, 0
6, 17408, Note_on_c, 4, 52, 96
6, 18432, Note_off_c, 4, 52, 0
6, 18432, Note_on_c, 4, 53, 96
6, 18944, Note_off_c, 4, 53, 0
6, 18944, Note_on_c, 4, 57, 96
6, 19456, Note_off_c, 4, 57, 0
6, 19456, Note_on_c, 4, 58, 96
6, 19968, Note_off_c, 4, 58, 0
6, 19968, Note_on_c, 4, 55, 96
6, 20480, Note_off_c, 4, 55, 0
6, 20480, Note_on_c, 4, 57, 96
6, 20736, Note_off_c, 4, 57, 0
6, 20736, Note_on_c, 4, 58, 96
6, 20992, Note_off_c, 4, 58, 0
6, 20992, Note_on_c, 4, 60, 96
6, 21504, Note_off_c, 4, 60, 0
6, 21504, Note_on_c, 4, 53, 96
6, 24064, Note_off_c, 4, 53, 0
6, 24064, Note_on_c, 4, 55, 96
6, 24576, Note_off_c, 4, 55, 0
6, 24576, Note_on_c, 4, 57, 96
6, 25856, Note_off_c, 4, 57, 0
6, 25856, Note_on_c, 4, 57, 96
6, 26112, Note_off_c, 4, 57, 0
6, 26112, Note_on_c, 4, 58, 96
6, 26880, Note_off_c, 4, 58, 0
6, 26880, Note_on_c, 4, 58, 96
6, 27136, Note_off_c, 4, 58, 0
6, 27136, Note_on_c, 4, 57, 96
6, 27392, Note_off_c, 4, 57, 0
6, 27392, Note_on_c, 4, 55, 96
6, 27648, Note_off_c, 4, 55, 0
6, 27648, Note_on_c, 4, 53, 96
6, 27904, Note_off_c, 4, 53, 0
6, 27904, Note_on_c, 4, 55, 96
6, 28160, Note_off_c, 4, 55, 0
6, 28160, Note_on_c, 4, 57, 96
6, 28672, Note_off_c, 4, 57, 0
6, 28672, Note_on_c, 4, 55, 96
6, 28928, Note_off_c, 4, 55, 0
6, 28928, Note_on_c, 4, 48, 96
6, 29184, Note_off_c, 4, 48, 0
6, 29184, Note_on_c, 4, 52, 96
6, 29440, Note_off_c, 4, 52, 0
6, 29440, Note_on_c, 4, 55, 96
6, 29696, Note_off_c, 4, 55, 0
6, 29696, Note_on_c, 4, 60, 96
6, 29952, Note_off_c, 4, 60, 0
6, 29952, Note_on_c, 4, 53, 96
6, 30208, Note_off_c, 4, 53, 0
6, 30208, Note_on_c, 4, 57, 96
6, 30464, Note_off_c, 4, 57, 0
6, 30464, Note_on_c, 4, 60, 96
6, 30720, Note_off_c, 4, 60, 0
6, 30720, Note_on_c, 4, 62, 96
6, 30976, Note_off_c, 4, 62, 0
6, 30976, Note_on_c, 4, 59, 96
6, 31232, Note_off_c, 4, 59, 0
6, 31232, Note_on_c, 4, 55, 96
6, 31488, Note_off_c, 4, 55, 0
6, 31488, Note_on_c, 4, 59, 96
6, 31744, Note_off_c, 4, 59, 0
6, 31744, Note_on_c, 4, 52, 96
6, 32000, Note_off_c, 4, 52, 0
6, 32000, Note_on_c, 4, 62, 96
6, 32256, Note_off_c, 4, 62, 0
6, 32256, Note_on_c, 4, 60, 96
6, 32512, Note_off_c, 4, 60, 0
6, 32512, Note_on_c, 4, 58, 96
6, 32768, Note_off_c, 4, 58, 0
6, 32768, Note_on_c, 4, 57, 96
6, 33280, Note_off_c, 4, 57, 0
6, 33280, Note_on_c, 4, 55, 96
6, 33792, Note_off_c, 4, 55, 0
6, 33792, Note_on_c, 4, 53, 96
6, 34816, Note_off_c, 4, 53, 0
6, 34816, Note_on_c, 4, 55, 96
6, 35840, Note_off_c, 4, 55, 0
6, 36352, Note_on_c, 4, 60, 96
6, 37376, Note_off_c, 4, 60, 0
6, 37376, Note_on_c, 4, 53, 96
6, 38400, Note_off_c, 4, 53, 0
6, 38400, Note_on_c, 4, 58, 96
6, 39168, Note_off_c, 4, 58, 0
6, 39168, Note_on_c, 4, 58, 96
6, 39424, Note_off_c, 4, 58, 0
6, 39424, Note_on_c, 4, 57, 96
6, 39680, Note_off_c, 4, 57, 0
6, 39680, Note_on_c, 4, 55, 96
6, 39936, Note_off_c, 4, 55, 0
6, 39936, Note_on_c, 4, 57, 96
6, 40960, Note_off_c, 4, 57, 0
6, 40960, Note_on_c, 4, 59, 96
6, 41216, Note_off_c, 4, 59, 0
6, 41216, Note_on_c, 4, 55, 96
6, 41472, Note_off_c, 4, 55, 0
6, 41472, Note_on_c, 4, 59, 96
6, 41728, Note_off_c, 4, 59, 0
6, 41728, Note_on_c, 4, 62, 96
6, 41984, Note_off_c, 4, 62, 0
6, 41984, Note_on_c, 4, 65, 96
6, 42240, Note_off_c, 4, 65, 0
6, 42240, Note_on_c, 4, 59, 96
6, 42496, Note_off_c, 4, 59, 0
6, 42496, Note_on_c, 4, 62, 96
6, 42752, Note_off_c, 4, 62, 0
6, 42752, Note_on_c, 4, 65, 96
6, 43008, Note_off_c, 4, 65, 0
6, 43008, Note_on_c, 4, 64, 96
6, 43520, Note_off_c, 4, 64, 0
6, 43520, Note_on_c, 4, 63, 96
6, 44032, Note_off_c, 4, 63, 0
6, 44032, Note_on_c, 4, 62, 96
6, 45056, Note_off_c, 4, 62, 0
6, 45056, Note_on_c, 4, 60, 96
6, 45312, Note_off_c, 4, 60, 0
6, 45312, Note_on_c, 4, 48, 96
6, 45568, Note_off_c, 4, 48, 0
6, 45568, Note_on_c, 4, 52, 96
6, 45824, Note_off_c, 4, 52, 0
6, 45824, Note_on_c, 4, 55, 96
6, 46080, Note_off_c, 4, 55, 0
6, 46080, Note_on_c, 4, 60, 96
6, 46336, Note_off_c, 4, 60, 0
6, 46336, Note_on_c, 4, 53, 96
6, 46592, Note_off_c, 4, 53, 0
6, 46592, Note_on_c, 4, 57, 96
6, 46848, Note_off_c, 4, 57, 0
6, 46848, Note_on_c, 4, 60, 96
6, 47104, Note_off_c, 4, 60, 0
6, 47104, Note_on_c, 4, 62, 96
6, 47360, Note_off_c, 4, 62, 0
6, 47360, Note_on_c, 4, 59, 96
6, 47616, Note_off_c, 4, 59, 0
6, 47616, Note_on_c, 4, 55, 96
6, 47872, Note_off_c, 4, 55, 0
6, 47872, Note_on_c, 4, 59, 96
6, 48128, Note_off_c, 4, 59, 0
6, 48128, Note_on_c, 4, 50, 96
6, 48384, Note_off_c, 4, 50, 0
6, 48384, Note_on_c, 4, 57, 96
6, 48640, Note_off_c, 4, 57, 0
6, 48640, Note_on_c, 4, 55, 96
6, 48896, Note_off_c, 4, 55, 0
6, 48896, Note_on_c, 4, 53, 96
6, 49152, Note_off_c, 4, 53, 0
6, 49152, Note_on_c, 4, 52, 96
6, 50176, Note_off_c, 4, 52, 0
6, 50688, Note_on_c, 4, 55, 96
6, 51712, Note_off_c, 4, 55, 0
6, 51712, Note_on_c, 4, 53, 96
6, 51968, Note_off_c, 4, 53, 0
6, 51968, Note_on_c, 4, 52, 96
6, 52224, Note_off_c, 4, 52, 0
6, 52224, Note_on_c, 4, 50, 96
6, 52736, Note_off_c, 4, 50, 0
6, 52736, Note_on_c, 4, 59, 96
6, 53248, Note_off_c, 4, 59, 0
6, 53248, Note_on_c, 4, 60, 96
6, 53504, Note_off_c, 4, 60, 0
6, 53504, Note_on_c, 4, 48, 96
6, 53760, Note_off_c, 4, 48, 0
6, 53760, Note_on_c, 4, 52, 96
6, 54016, Note_off_c, 4, 52, 0
6, 54016, Note_on_c, 4, 55, 96
6, 54272, Note_off_c, 4, 55, 0
6, 54272, Note_on_c, 4, 60, 96
6, 54528, Note_off_c, 4, 60, 0
6, 54528, Note_on_c, 4, 52, 96
6, 54784, Note_off_c, 4, 52, 0
6, 54784, Note_on_c, 4, 55, 96
6, 55040, Note_off_c, 4, 55, 0
6, 55040, Note_on_c, 4, 60, 96
6, 55296, Note_off_c, 4, 60, 0
6, 55296, Note_on_c, 4, 64, 96
6, 55552, Note_off_c, 4, 64, 0
6, 55552, Note_on_c, 4, 60, 96
6, 55808, Note_off_c, 4, 60, 0
6, 55808, Note_on_c, 4, 57, 96
6, 56064, Note_off_c, 4, 57, 0
6, 56064, Note_on_c, 4, 60, 96
6, 56320, Note_off_c, 4, 60, 0
6, 56320, Note_on_c, 4, 53, 96
6, 56576, Note_off_c, 4, 53, 0
6, 56576, Note_on_c, 4, 64, 96
6, 56832, Note_off_c, 4, 64, 0
6, 56832, Note_on_c, 4, 62, 96
6, 57088, Note_off_c, 4, 62, 0
6, 57088, Note_on_c, 4, 60, 96
6, 57344, Note_off_c, 4, 60, 0
6, 57344, Note_on_c, 4, 59, 96
6, 57600, Note_off_c, 4, 59, 0
6, 57600, Note_on_c, 4, 60, 96
6, 57856, Note_off_c, 4, 60, 0
6, 57856, Note_on_c, 4, 57, 96
6, 58112, Note_off_c, 4, 57, 0
6, 58112, Note_on_c, 4, 59, 96
6, 58368, Note_off_c, 4, 59, 0
6, 58368, Note_on_c, 4, 60, 96
6, 58624, Note_off_c, 4, 60, 0
6, 58624, Note_on_c, 4, 57, 96
6, 58880, Note_off_c, 4, 57, 0
6, 58880, Note_on_c, 4, 55, 96
6, 59136, Note_off_c, 4, 55, 0
6, 59136, Note_on_c, 4, 53, 96
6, 59392, Note_off_c, 4, 53, 0
6, 59392, Note_on_c, 4, 52, 96
6, 60416, Note_off_c, 4, 52, 0
6, 60928, Note_on_c, 4, 52, 96
6, 61440, Note_off_c, 4, 52, 0
6, 61440, Note_on_c, 4, 53, 96
6, 62464, Note_off_c, 4, 53, 0
6, 62976, Note_on_c, 4, 53, 96
6, 63488, Note_off_c, 4, 53, 0
6, 63488, Note_on_c, 4, 55, 96
6, 64000, Note_off_c, 4, 55, 0
6, 65024, Note_on_c, 4, 64, 96
6, 65536, Note_off_c, 4, 64, 0
6, 65536, Note_on_c, 4, 62, 96
6, 66560, Note_off_c, 4, 62, 0
6, 67072, Note_on_c, 4, 65, 96
6, 67584, Note_off_c, 4, 65, 0
6, 67584, Note_on_c, 4, 67, 96
6, 67840, Note_off_c, 4, 67, 0
6, 67840, Note_on_c, 4, 55, 96
6, 68096, Note_off_c, 4, 55, 0
6, 68096, Note_on_c, 4, 60, 96
6, 68352, Note_off_c, 4, 60, 0
6, 68352, Note_on_c, 4, 64, 96
6, 68608, Note_off_c, 4, 64, 0
6, 68608, Note_on_c, 4, 67, 96
6, 68864, Note_off_c, 4, 67, 0
6, 68864, Note_on_c, 4, 60, 96
6, 69120, Note_off_c, 4, 60, 0
6, 69120, Note_on_c, 4, 66, 96
6, 69376, Note_off_c, 4, 66, 0
6, 69376, Note_on_c, 4, 69, 96
6, 69632, Note_off_c, 4, 69, 0
6, 69632, Note_on_c, 4, 70, 96
6, 69888, Note_off_c, 4, 70, 0
6, 69888, Note_on_c, 4, 67, 96
6, 70144, Note_off_c, 4, 67, 0
6, 70144, Note_on_c, 4, 64, 96
6, 70400, Note_off_c, 4, 64, 0
6, 70400, Note_on_c, 4, 67, 96
6, 70656, Note_off_c, 4, 67, 0
6, 70656, Note_on_c, 4, 60, 96
6, 72192, Note_off_c, 4, 60, 0
6, 72192, Note_on_c, 4, 62, 96
6, 72448, Note_off_c, 4, 62, 0
6, 72448, Note_on_c, 4, 60, 96
6, 72704, Note_off_c, 4, 60, 0
6, 72704, Note_on_c, 4, 58, 96
6, 74240, Note_off_c, 4, 58, 0
6, 74240, Note_on_c, 4, 60, 96
6, 74496, Note_off_c, 4, 60, 0
6, 74496, Note_on_c, 4, 58, 96
6, 74752, Note_off_c, 4, 58, 0
6, 74752, Note_on_c, 4, 57, 96
6, 75008, Note_off_c, 4, 57, 0
6, 75008, Note_on_c, 4, 48, 96
6, 75264, Note_off_c, 4, 48, 0
6, 75264, Note_on_c, 4, 53, 96
6, 75520, Note_off_c, 4, 53, 0
6, 75520, Note_on_c, 4, 57, 96
6, 75776, Note_off_c, 4, 57, 0
6, 75776, Note_on_c, 4, 58, 96
6, 76032, Note_off_c, 4, 58, 0
6, 76032, Note_on_c, 4, 55, 96
6, 76288, Note_off_c, 4, 55, 0
6, 76288, Note_on_c, 4, 58, 96
6, 76544, Note_off_c, 4, 58, 0
6, 76544, Note_on_c, 4, 62, 96
6, 76800, Note_off_c, 4, 62, 0
6, 76800, Note_on_c, 4, 67, 96
6, 77056, Note_off_c, 4, 67, 0
6, 77056, Note_on_c, 4, 63, 96
6, 77312, Note_off_c, 4, 63, 0
6, 77312, Note_on_c, 4, 62, 96
6, 77568, Note_off_c, 4, 62, 0
6, 77568, Note_on_c, 4, 63, 96
6, 77824, Note_off_c, 4, 63, 0
6, 77824, Note_on_c, 4, 57, 96
6, 78080, Note_off_c, 4, 57, 0
6, 78080, Note_on_c, 4, 67, 96
6, 78336, Note_off_c, 4, 67, 0
6, 78336, Note_on_c, 4, 65, 96
6, 78592, Note_off_c, 4, 65, 0
6, 78592, Note_on_c, 4, 63, 96
6, 78848, Note_off_c, 4, 63, 0
6, 78848, Note_on_c, 4, 62, 96
6, 79104, Note_off_c, 4, 62, 0
6, 79104, Note_on_c, 4, 60, 96
6, 79360, Note_off_c, 4, 60, 0
6, 79360, Note_on_c, 4, 62, 96
6, 79616, Note_off_c, 4, 62, 0
6, 79616, Note_on_c, 4, 64, 96
6, 79872, Note_off_c, 4, 64, 0
6, 79872, Note_on_c, 4, 65, 96
6, 80640, Note_off_c, 4, 65, 0
6, 80640, Note_on_c, 4, 63, 96
6, 80896, Note_off_c, 4, 63, 0
6, 80896, Note_on_c, 4, 62, 96
6, 81408, Note_off_c, 4, 62, 0
6, 81408, Note_on_c, 4, 61, 96
6, 81920, Note_off_c, 4, 61, 0
6, 81920, Note_on_c, 4, 60, 96
6, 82176, Note_off_c, 4, 60, 0
6, 82176, Note_on_c, 4, 48, 96
6, 82432, Note_off_c, 4, 48, 0
6, 82432, Note_on_c, 4, 53, 96
6, 82688, Note_off_c, 4, 53, 0
6, 82688, Note_on_c, 4, 57, 96
6, 82944, Note_off_c, 4, 57, 0
6, 82944, Note_on_c, 4, 60, 96
6, 83200, Note_off_c, 4, 60, 0
6, 83200, Note_on_c, 4, 53, 96
6, 83456, Note_off_c, 4, 53, 0
6, 83456, Note_on_c, 4, 57, 96
6, 83712, Note_off_c, 4, 57, 0
6, 83712, Note_on_c, 4, 60, 96
6, 83968, Note_off_c, 4, 60, 0
6, 83968, Note_on_c, 4, 62, 96
6, 84224, Note_off_c, 4, 62, 0
6, 84224, Note_on_c, 4, 58, 96
6, 84480, Note_off_c, 4, 58, 0
6, 84480, Note_on_c, 4, 55, 96
6, 84736, Note_off_c, 4, 55, 0
6, 84736, Note_on_c, 4, 58, 96
6, 84992, Note_off_c, 4, 58, 0
6, 84992, Note_on_c, 4, 48, 96
6, 85248, Note_off_c, 4, 48, 0
6, 85248, Note_on_c, 4, 62, 96
6, 85504, Note_off_c, 4, 62, 0
6, 85504, Note_on_c, 4, 60, 96
6, 85760, Note_off_c, 4, 60, 0
6, 85760, Note_on_c, 4, 58, 96
6, 86016, Note_off_c, 4, 58, 0
6, 86016, Note_on_c, 4, 57, 96
6, 86272, Note_off_c, 4, 57, 0
6, 86272, Note_on_c, 4, 55, 96
6, 86528, Note_off_c, 4, 55, 0
6, 86528, Note_on_c, 4, 57, 96
6, 86784, Note_off_c, 4, 57, 0
6, 86784, Note_on_c, 4, 59, 96
6, 87040, Note_off_c, 4, 59, 0
6, 87040, Note_on_c, 4, 60, 96
6, 87296, Note_off_c, 4, 60, 0
6, 87296, Note_on_c, 4, 55, 96
6, 87552, Note_off_c, 4, 55, 0
6, 87552, Note_on_c, 4, 60, 96
6, 88320, Note_off_c, 4, 60, 0
6, 88320, Note_on_c, 4, 60, 96
6, 88576, Note_off_c, 4, 60, 0
6, 88576, Note_on_c, 4, 58, 96
6, 88832, Note_off_c, 4, 58, 0
6, 88832, Note_on_c, 4, 57, 96
6, 89088, Note_off_c, 4, 57, 0
6, 89088, Note_on_c, 4, 58, 96
6, 90112, Note_off_c, 4, 58, 0
6, 90112, Note_on_c, 4, 60, 96
6, 90624, Note_off_c, 4, 60, 0
6, 90624, Note_on_c, 4, 64, 96
6, 90880, Note_off_c, 4, 64, 0
6, 90880, Note_on_c, 4, 62, 96
6, 91136, Note_off_c, 4, 62, 0
6, 91136, Note_on_c, 4, 64, 96
6, 91648, Note_off_c, 4, 64, 0
6, 91648, Note_on_c, 4, 60, 96
6, 92672, Note_off_c, 4, 60, 0
6, 92672, Note_on_c, 4, 59, 96
6, 92928, Note_off_c, 4, 59, 0
6, 92928, Note_on_c, 4, 60, 96
6, 93184, Note_off_c, 4, 60, 0
6, 93184, Note_on_c, 4, 62, 96
6, 93696, Note_off_c, 4, 62, 0
6, 93696, Note_on_c, 4, 55, 96
6, 94208, Note_off_c, 4, 55, 0
6, 94208, Note_on_c, 4, 60, 96
6, 94720, Note_off_c, 4, 60, 0
6, 94720, Note_on_c, 4, 57, 96
6, 95232, Note_off_c, 4, 57, 0
6, 95232, Note_on_c, 4, 58, 96
6, 95744, Note_off_c, 4, 58, 0
6, 95744, Note_on_c, 4, 55, 96
6, 96256, Note_off_c, 4, 55, 0
6, 96256, Note_on_c, 4, 60, 96
6, 96768, Note_off_c, 4, 60, 0
6, 96768, Note_on_c, 4, 63, 96
6, 97280, Note_off_c, 4, 63, 0
6, 97280, Note_on_c, 4, 62, 96
6, 97792, Note_off_c, 4, 62, 0
6, 97792, Note_on_c, 4, 66, 96
6, 98304, Note_off_c, 4, 66, 0
6, 98304, Note_on_c, 4, 67, 96
6, 98560, Note_off_c, 4, 67, 0
6, 98560, Note_on_c, 4, 55, 96
6, 98816, Note_off_c, 4, 55, 0
6, 98816, Note_on_c, 4, 58, 96
6, 99072, Note_off_c, 4, 58, 0
6, 99072, Note_on_c, 4, 62, 96
6, 99328, Note_off_c, 4, 62, 0
6, 99328, Note_on_c, 4, 65, 96
6, 99584, Note_off_c, 4, 65, 0
6, 99584, Note_on_c, 4, 62, 96
6, 99840, Note_off_c, 4, 62, 0
6, 99840, Note_on_c, 4, 65, 96
6, 100096, Note_off_c, 4, 65, 0
6, 100096, Note_on_c, 4, 69, 96
6, 100352, Note_off_c, 4, 69, 0
6, 100352, Note_on_c, 4, 70, 96
6, 100608, Note_off_c, 4, 70, 0
6, 100608, Note_on_c, 4, 67, 96
6, 100864, Note_off_c, 4, 67, 0
6, 100864, Note_on_c, 4, 64, 96
6, 101120, Note_off_c, 4, 64, 0
6, 101120, Note_on_c, 4, 67, 96
6, 101376, Note_off_c, 4, 67, 0
6, 101376, Note_on_c, 4, 61, 96
6, 101632, Note_off_c, 4, 61, 0
6, 101632, Note_on_c, 4, 70, 96
6, 101888, Note_off_c, 4, 70, 0
6, 101888, Note_on_c, 4, 69, 96
6, 102144, Note_off_c, 4, 69, 0
6, 102144, Note_on_c, 4, 67, 96
6, 102400, Note_off_c, 4, 67, 0
6, 102400, Note_on_c, 4, 65, 96
6, 102656, Note_off_c, 4, 65, 0
6, 102656, Note_on_c, 4, 62, 96
6, 102912, Note_off_c, 4, 62, 0
6, 102912, Note_on_c, 4, 65, 96
6, 103168, Note_off_c, 4, 65, 0
6, 103168, Note_on_c, 4, 69, 96
6, 103424, Note_off_c, 4, 69, 0
6, 103424, Note_on_c, 4, 59, 96
6, 103680, Note_off_c, 4, 59, 0
6, 103680, Note_on_c, 4, 69, 96
6, 103936, Note_off_c, 4, 69, 0
6, 103936, Note_on_c, 4, 67, 96
6, 104192, Note_off_c, 4, 67, 0
6, 104192, Note_on_c, 4, 65, 96
6, 104448, Note_off_c, 4, 65, 0
6, 104448, Note_on_c, 4, 64, 96
6, 104704, Note_off_c, 4, 64, 0
6, 104704, Note_on_c, 4, 60, 96
6, 104960, Note_off_c, 4, 60, 0
6, 104960, Note_on_c, 4, 64, 96
6, 105216, Note_off_c, 4, 64, 0
6, 105216, Note_on_c, 4, 67, 96
6, 105472, Note_off_c, 4, 67, 0
6, 105472, Note_on_c, 4, 57, 96
6, 105728, Note_off_c, 4, 57, 0
6, 105728, Note_on_c, 4, 67, 96
6, 105984, Note_off_c, 4, 67, 0
6, 105984, Note_on_c, 4, 65, 96
6, 106240, Note_off_c, 4, 65, 0
6, 106240, Note_on_c, 4, 64, 96
6, 106496, Note_off_c, 4, 64, 0
6, 106496, Note_on_c, 4, 62, 96
6, 106752, Note_off_c, 4, 62, 0
6, 106752, Note_on_c, 4, 59, 96
6, 107008, Note_off_c, 4, 59, 0
6, 107008, Note_on_c, 4, 62, 96
6, 107264, Note_off_c, 4, 62, 0
6, 107264, Note_on_c, 4, 65, 96
6, 107520, Note_off_c, 4, 65, 0
6, 107520, Note_on_c, 4, 56, 96
6, 107776, Note_off_c, 4, 56, 0
6, 107776, Note_on_c, 4, 65, 96
6, 108032, Note_off_c, 4, 65, 0
6, 108032, Note_on_c, 4, 64, 96
6, 108288, Note_off_c, 4, 64, 0
6, 108288, Note_on_c, 4, 62, 96
6, 108544, Note_off_c, 4, 62, 0
6, 108544, Note_on_c, 4, 60, 96
6, 108800, Note_off_c, 4, 60, 0
6, 108800, Note_on_c, 4, 57, 96
6, 109056, Note_off_c, 4, 57, 0
6, 109056, Note_on_c, 4, 60, 96
6, 109312, Note_off_c, 4, 60, 0
6, 109312, Note_on_c, 4, 64, 96
6, 109568, Note_off_c, 4, 64, 0
6, 109568, Note_on_c, 4, 53, 96
6, 110080, Note_off_c, 4, 53, 0
6, 110080, Note_on_c, 4, 65, 96
6, 111104, Note_off_c, 4, 65, 0
6, 111104, Note_on_c, 4, 64, 96
6, 111360, Note_off_c, 4, 64, 0
6, 111360, Note_on_c, 4, 62, 96
6, 111616, Note_off_c, 4, 62, 0
6, 111616, Note_on_c, 4, 64, 96
6, 113152, Note_off_c, 4, 64, 0
6, 113152, Note_on_c, 4, 62, 96
6, 113408, Note_off_c, 4, 62, 0
6, 113408, Note_on_c, 4, 60, 96
6, 113664, Note_off_c, 4, 60, 0
6, 113664, Note_on_c, 4, 62, 96
6, 114176, Note_off_c, 4, 62, 0
6, 114176, Note_on_c, 4, 55, 96
6, 114688, Note_off_c, 4, 55, 0
6, 114688, Note_on_c, 4, 60, 96
6, 115200, Note_off_c, 4, 60, 0
6, 115200, Note_on_c, 4, 48, 96
6, 115712, Note_off_c, 4, 48, 0
6, 115712, Note_on_c, 4, 60, 96
6, 117248, Note_off_c, 4, 60, 0
6, 117248, Note_on_c, 4, 58, 96
6, 117504, Note_off_c, 4, 58, 0
6, 117504, Note_on_c, 4, 57, 96
6, 117760, Note_off_c, 4, 57, 0
6, 117760, Note_on_c, 4, 58, 96
6, 119296, Note_off_c, 4, 58, 0
6, 119296, Note_on_c, 4, 57, 96
6, 119552, Note_off_c, 4, 57, 0
6, 119552, Note_on_c, 4, 55, 96
6, 119808, Note_off_c, 4, 55, 0
6, 119808, Note_on_c, 4, 57, 96
6, 120320, Note_off_c, 4, 57, 0
6, 120320, Note_on_c, 4, 53, 96
6, 120832, Note_off_c, 4, 53, 0
6, 120832, Note_on_c, 4, 58, 96
6, 121856, Note_off_c, 4, 58, 0
6, 121856, Note_on_c, 4, 60, 96
6, 123392, Note_off_c, 4, 60, 0
6, 123392, Note_on_c, 4, 58, 96
6, 123648, Note_off_c, 4, 58, 0
6, 123648, Note_on_c, 4, 57, 96
6, 123904, Note_off_c, 4, 57, 0
6, 123904, Note_on_c, 4, 58, 96
6, 125440, Note_off_c, 4, 58, 0
6, 125440, Note_on_c, 4, 57, 96
6, 125696, Note_off_c, 4, 57, 0
6, 125696, Note_on_c, 4, 55, 96
6, 125952, Note_off_c, 4, 55, 0
6, 125952, Note_on_c, 4, 57, 96
6, 127488, Note_off_c, 4, 57, 0
6, 127488, Note_on_c, 4, 55, 96
6, 128512, Note_off_c, 4, 55, 0
6, 128512, Note_on_c, 4, 53, 96
6, 129280, Note_off_c, 4, 53, 0
6, 129280, Note_on_c, 4, 55, 96
6, 129536, Note_off_c, 4, 55, 0
6, 129536, Note_on_c, 4, 52, 96
6, 129792, Note_off_c, 4, 52, 0
6, 129792, Note_on_c, 4, 53, 96
6, 130048, Note_off_c, 4, 53, 0
6, 130048, Note_on_c, 4, 55, 96
6, 130304, Note_off_c, 4, 55, 0
6, 130304, Note_on_c, 4, 53, 96
6, 130560, Note_off_c, 4, 53, 0
6, 130560, Note_on_c, 4, 52, 96
6, 130816, Note_off_c, 4, 52, 0
6, 130816, Note_on_c, 4, 50, 96
6, 131072, Note_off_c, 4, 50, 0
6, 131072, Note_on_c, 4, 48, 96
6, 131584, Note_off_c, 4, 48, 0
6, 131584, Note_on_c, 4, 53, 96
6, 132608, Note_off_c, 4, 53, 0
6, 132608, Note_on_c, 4, 50, 96
6, 133120, Note_off_c, 4, 50, 0
6, 133120, Note_on_c, 4, 52, 96
6, 134144, Note_off_c, 4, 52, 0
6, 134400, Note_on_c, 4, 48, 96
6, 134656, Note_off_c, 4, 48, 0
6, 134656, Note_on_c, 4, 52, 96
6, 134912, Note_off_c, 4, 52, 0
6, 134912, Note_on_c, 4, 55, 96
6, 135168, Note_off_c, 4, 55, 0
6, 135168, Note_on_c, 4, 60, 96
6, 136192, Note_off_c, 4, 60, 0
6, 136192, Note_on_c, 4, 57, 96
6, 136704, Note_off_c, 4, 57, 0
6, 136704, Note_on_c, 4, 54, 96
6, 137216, Note_off_c, 4, 54, 0
6, 137216, Note_on_c, 4, 55, 96
6, 137728, Note_off_c, 4, 55, 0
6, 137728, Note_on_c, 4, 62, 96
6, 138496, Note_off_c, 4, 62, 0
6, 138496, Note_on_c, 4, 59, 96
6, 138752, Note_off_c, 4, 59, 0
6, 138752, Note_on_c, 4, 60, 96
6, 139008, Note_off_c, 4, 60, 0
6, 139008, Note_on_c, 4, 64, 96
6, 139264, Note_off_c, 4, 64, 0
6, 139264, Note_on_c, 4, 69, 96
6, 139776, Note_off_c, 4, 69, 0
6, 143872, Note_on_c, 4, 60, 96
6, 144896, Note_off_c, 4, 60, 0
6, 144896, Note_on_c, 4, 59, 96
6, 145152, Note_off_c, 4, 59, 0
6, 145152, Note_on_c, 4, 57, 96
6, 145408, Note_off_c, 4, 57, 0
6, 145408, Note_on_c, 4, 55, 96
6, 145664, Note_off_c, 4, 55, 0
6, 145664, Note_on_c, 4, 57, 96
6, 145920, Note_off_c, 4, 57, 0
6, 145920, Note_on_c, 4, 53, 96
6, 146176, Note_off_c, 4, 53, 0
6, 146176, Note_on_c, 4, 55, 96
6, 146432, Note_off_c, 4, 55, 0
6, 146432, Note_on_c, 4, 57, 96
6, 146688, Note_off_c, 4, 57, 0
6, 146688, Note_on_c, 4, 55, 96
6, 146944, Note_off_c, 4, 55, 0
6, 146944, Note_on_c, 4, 53, 96
6, 147200, Note_off_c, 4, 53, 0
6, 147200, Note_on_c, 4, 52, 96
6, 147456, Note_off_c, 4, 52, 0
6, 147456, Note_on_c, 4, 50, 96
6, 147712, Note_off_c, 4, 50, 0
6, 147712, Note_on_c, 4, 52, 96
6, 147968, Note_off_c, 4, 52, 0
6, 147968, Note_on_c, 4, 53, 96
6, 148992, Note_off_c, 4, 53, 0
6, 148992, Note_on_c, 4, 52, 96
6, 149248, Note_off_c, 4, 52, 0
6, 149248, Note_on_c, 4, 50, 96
6, 149504, Note_off_c, 4, 50, 0
6, 149504, Note_on_c, 4, 48, 96
6, 150016, Note_off_c, 4, 48, 0
6, 150016, Note_on_c, 4, 52, 96
6, 150528, Note_off_c, 4, 52, 0
6, 150528, Note_on_c, 4, 53, 96
6, 151040, Note_off_c, 4, 53, 0
6, 151040, Note_on_c, 4, 55, 96
6, 151552, Note_off_c, 4, 55, 0
6, 151552, Note_on_c, 4, 48, 96
6, 152064, Note_off_c, 4, 48, 0
6, 156160, Note_on_c, 4, 58, 96
6, 156672, Note_off_c, 4, 58, 0
6, 156672, Note_on_c, 4, 57, 96
6, 158208, Note_off_c, 4, 57, 0
6, 158208, Note_on_c, 4, 58, 96
6, 158464, Note_off_c, 4, 58, 0
6, 158464, Note_on_c, 4, 57, 96
6, 158720, Note_off_c, 4, 57, 0
6, 158720, Note_on_c, 4, 55, 96
6, 160256, Note_off_c, 4, 55, 0
6, 160256, Note_on_c, 4, 53, 96
6, 160512, Note_off_c, 4, 53, 0
6, 160512, Note_on_c, 4, 52, 96
6, 160768, Note_off_c, 4, 52, 0
6, 160768, Note_on_c, 4, 53, 96
6, 161280, Note_off_c, 4, 53, 0
6, 161280, Note_on_c, 4, 57, 96
6, 162304, Note_off_c, 4, 57, 0
6, 162304, Note_on_c, 4, 55, 96
6, 162560, Note_off_c, 4, 55, 0
6, 162560, Note_on_c, 4, 53, 96
6, 162816, Note_off_c, 4, 53, 0
6, 162816, Note_on_c, 4, 55, 96
6, 163328, Note_off_c, 4, 55, 0
6, 163328, Note_on_c, 4, 58, 96
6, 164352, Note_off_c, 4, 58, 0
6, 164352, Note_on_c, 4, 57, 96
6, 165376, Note_off_c, 4, 57, 0
6, 165376, Note_on_c, 4, 55, 96
6, 165632, Note_off_c, 4, 55, 0
6, 165632, Note_on_c, 4, 53, 96
6, 165888, Note_off_c, 4, 53, 0
6, 165888, Note_on_c, 4, 52, 96
6, 166144, Note_off_c, 4, 52, 0
6, 166144, Note_on_c, 4, 53, 96
6, 166400, Note_off_c, 4, 53, 0
6, 166400, Note_on_c, 4, 50, 96
6, 166656, Note_off_c, 4, 50, 0
6, 166656, Note_on_c, 4, 52, 96
6, 166912, Note_off_c, 4, 52, 0
6, 166912, Note_on_c, 4, 53, 96
6, 167168, Note_off_c, 4, 53, 0
6, 167168, Note_on_c, 4, 52, 96
6, 167424, Note_off_c, 4, 52, 0
6, 167424, Note_on_c, 4, 50, 96
6, 167680, Note_off_c, 4, 50, 0
6, 167680, Note_on_c, 4, 48, 96
6, 167936, Note_off_c, 4, 48, 0
6, 167936, Note_on_c, 4, 55, 96
6, 168448, Note_off_c, 4, 55, 0
6, 168448, Note_on_c, 4, 53, 96
6, 168704, Note_off_c, 4, 53, 0
6, 168704, Note_on_c, 4, 55, 96
6, 168960, Note_off_c, 4, 55, 0
6, 168960, Note_on_c, 4, 57, 96
6, 170496, Note_off_c, 4, 57, 0
6, 170496, Note_on_c, 4, 55, 96
6, 170752, Note_off_c, 4, 55, 0
6, 170752, Note_on_c, 4, 54, 96
6, 171008, Note_off_c, 4, 54, 0
6, 171008, Note_on_c, 4, 55, 96
6, 172544, Note_off_c, 4, 55, 0
6, 172544, Note_on_c, 4, 54, 96
6, 172800, Note_off_c, 4, 54, 0
6, 172800, Note_on_c, 4, 55, 96
6, 173056, Note_off_c, 4, 55, 0
6, 173056, Note_on_c, 4, 57, 96
6, 174080, Note_off_c, 4, 57, 0
6, 174080, Note_on_c, 4, 50, 96
6, 175104, Note_off_c, 4, 50, 0
6, 175616, Note_on_c, 4, 58, 96
6, 176128, Note_off_c, 4, 58, 0
6, 176128, Note_on_c, 4, 57, 96
6, 177408, Note_off_c, 4, 57, 0
6, 177408, Note_on_c, 4, 58, 96
6, 177664, Note_off_c, 4, 58, 0
6, 177664, Note_on_c, 4, 57, 96
6, 177920, Note_off_c, 4, 57, 0
6, 177920, Note_on_c, 4, 55, 96
6, 178176, Note_off_c, 4, 55, 0
6, 178176, Note_on_c, 4, 53, 96
6, 179712, Note_off_c, 4, 53, 0
6, 179712, Note_on_c, 4, 53, 96
6, 180224, Note_off_c, 4, 53, 0
6, 180224, Note_on_c, 4, 52, 96
6, 181760, Note_off_c, 4, 52, 0
6, 181760, Note_on_c, 4, 57, 96
6, 182272, Note_off_c, 4, 57, 0
6, 182272, Note_on_c, 4, 50, 96
6, 182784, Note_off_c, 4, 50, 0
6, 182784, Note_on_c, 4, 62, 96
6, 183296, Note_off_c, 4, 62, 0
6, 183296, Note_on_c, 4, 59, 96
6, 183808, Note_off_c, 4, 59, 0
6, 183808, Note_on_c, 4, 56, 96
6, 184320, Note_off_c, 4, 56, 0
6, 184320, Note_on_c, 4, 57, 96
6, 184832, Note_off_c, 4, 57, 0
6, 184832, Note_on_c, 4, 45, 96
6, 185344, Note_off_c, 4, 45, 0
6, 185856, Note_on_c, 4, 50, 96
6, 186368, Note_off_c, 4, 50, 0
6, 186368, Note_on_c, 4, 55, 96
6, 186880, Note_off_c, 4, 55, 0
6, 186880, Note_on_c, 4, 43, 96
6, 187392, Note_off_c, 4, 43, 0
6, 187904, Note_on_c, 4, 48, 96
6, 188416, Note_off_c, 4, 48, 0
6, 188416, Note_on_c, 4, 53, 96
6, 189440, Note_off_c, 4, 53, 0
6, 190464, Note_on_c, 4, 54, 96
6, 191488, Note_off_c, 4, 54, 0
6, 192768, Note_on_c, 4, 52, 96
6, 193024, Note_off_c, 4, 52, 0
6, 193024, Note_on_c, 4, 56, 96
6, 193280, Note_off_c, 4, 56, 0
6, 193280, Note_on_c, 4, 58, 96
6, 193536, Note_off_c, 4, 58, 0
6, 193536, Note_on_c, 4, 64, 96
6, 193792, Note_off_c, 4, 64, 0
6, 193792, Note_on_c, 4, 57, 96
6, 194048, Note_off_c, 4, 57, 0
6, 194048, Note_on_c, 4, 60, 96
6, 194304, Note_off_c, 4, 60, 0
6, 194304, Note_on_c, 4, 64, 96
6, 194560, Note_off_c, 4, 64, 0
6, 194560, Note_on_c, 4, 65, 96
6, 194816, Note_off_c, 4, 65, 0
6, 194816, Note_on_c, 4, 62, 96
6, 195072, Note_off_c, 4, 62, 0
6, 195072, Note_on_c, 4, 59, 96
6, 195328, Note_off_c, 4, 59, 0
6, 195328, Note_on_c, 4, 62, 96
6, 195584, Note_off_c, 4, 62, 0
6, 195584, Note_on_c, 4, 56, 96
6, 195840, Note_off_c, 4, 56, 0
6, 195840, Note_on_c, 4, 65, 96
6, 196096, Note_off_c, 4, 65, 0
6, 196096, Note_on_c, 4, 64, 96
6, 196352, Note_off_c, 4, 64, 0
6, 196352, Note_on_c, 4, 62, 96
6, 196608, Note_off_c, 4, 62, 0
6, 196608, Note_on_c, 4, 60, 96
6, 196864, Note_off_c, 4, 60, 0
6, 196864, Note_on_c, 4, 57, 96
6, 197120, Note_off_c, 4, 57, 0
6, 197120, Note_on_c, 4, 60, 96
6, 197376, Note_off_c, 4, 60, 0
6, 197376, Note_on_c, 4, 64, 96
6, 197632, Note_off_c, 4, 64, 0
6, 197632, Note_on_c, 4, 54, 96
6, 197888, Note_off_c, 4, 54, 0
6, 197888, Note_on_c, 4, 63, 96
6, 198144, Note_off_c, 4, 63, 0
6, 198144, Note_on_c, 4, 62, 96
6, 198400, Note_off_c, 4, 62, 0
6, 198400, Note_on_c, 4, 60, 96
6, 198656, Note_off_c, 4, 60, 0
6, 198656, Note_on_c, 4, 58, 96
6, 198912, Note_off_c, 4, 58, 0
6, 198912, Note_on_c, 4, 55, 96
6, 199168, Note_off_c, 4, 55, 0
6, 199168, Note_on_c, 4, 58, 96
6, 199424, Note_off_c, 4, 58, 0
6, 199424, Note_on_c, 4, 62, 96
6, 199680, Note_off_c, 4, 62, 0
6, 199680, Note_on_c, 4, 52, 96
6, 199936, Note_off_c, 4, 52, 0
6, 199936, Note_on_c, 4, 62, 96
6, 200192, Note_off_c, 4, 62, 0
6, 200192, Note_on_c, 4, 60, 96
6, 200448, Note_off_c, 4, 60, 0
6, 200448, Note_on_c, 4, 58, 96
6, 200704, Note_off_c, 4, 58, 0
6, 200704, Note_on_c, 4, 57, 96
6, 200960, Note_off_c, 4, 57, 0
6, 200960, Note_on_c, 4, 53, 96
6, 201216, Note_off_c, 4, 53, 0
6, 201216, Note_on_c, 4, 57, 96
6, 201472, Note_off_c, 4, 57, 0
6, 201472, Note_on_c, 4, 60, 96
6, 201728, Note_off_c, 4, 60, 0
6, 201728, Note_on_c, 4, 50, 96
6, 201984, Note_off_c, 4, 50, 0
6, 201984, Note_on_c, 4, 60, 96
6, 202240, Note_off_c, 4, 60, 0
6, 202240, Note_on_c, 4, 58, 96
6, 202496, Note_off_c, 4, 58, 0
6, 202496, Note_on_c, 4, 57, 96
6, 202752, Note_off_c, 4, 57, 0
6, 202752, Note_on_c, 4, 55, 96
6, 203008, Note_off_c, 4, 55, 0
6, 203008, Note_on_c, 4, 52, 96
6, 203264, Note_off_c, 4, 52, 0
6, 203264, Note_on_c, 4, 55, 96
6, 203520, Note_off_c, 4, 55, 0
6, 203520, Note_on_c, 4, 58, 96
6, 203776, Note_off_c, 4, 58, 0
6, 203776, Note_on_c, 4, 49, 96
6, 204032, Note_off_c, 4, 49, 0
6, 204032, Note_on_c, 4, 58, 96
6, 204288, Note_off_c, 4, 58, 0
6, 204288, Note_on_c, 4, 57, 96
6, 204544, Note_off_c, 4, 57, 0
6, 204544, Note_on_c, 4, 55, 96
6, 204800, Note_off_c, 4, 55, 0
6, 204800, Note_on_c, 4, 53, 96
6, 205056, Note_off_c, 4, 53, 0
6, 205056, Note_on_c, 4, 50, 96
6, 205312, Note_off_c, 4, 50, 0
6, 205312, Note_on_c, 4, 53, 96
6, 205568, Note_off_c, 4, 53, 0
6, 205568, Note_on_c, 4, 57, 96
6, 205824, Note_off_c, 4, 57, 0
6, 205824, Note_on_c, 4, 47, 96
6, 206080, Note_off_c, 4, 47, 0
6, 206080, Note_on_c, 4, 57, 96
6, 206336, Note_off_c, 4, 57, 0
6, 206336, Note_on_c, 4, 56, 96
6, 206592, Note_off_c, 4, 56, 0
6, 206592, Note_on_c, 4, 54, 96
6, 206848, Note_off_c, 4, 54, 0
6, 206848, Note_on_c, 4, 52, 96
6, 207104, Note_off_c, 4, 52, 0
6, 207104, Note_on_c, 4, 48, 96
6, 207360, Note_off_c, 4, 48, 0
6, 207360, Note_on_c, 4, 52, 96
6, 207616, Note_off_c, 4, 52, 0
6, 207616, Note_on_c, 4, 56, 96
6, 207872, Note_off_c, 4, 56, 0
6, 207872, Note_on_c, 4, 60, 96
6, 208128, Note_off_c, 4, 60, 0
6, 208128, Note_on_c, 4, 57, 96
6, 208384, Note_off_c, 4, 57, 0
6, 208384, Note_on_c, 4, 60, 96
6, 208640, Note_off_c, 4, 60, 0
6, 208640, Note_on_c, 4, 63, 96
6, 208896, Note_off_c, 4, 63, 0
6, 208896, Note_on_c, 4, 54, 96
6, 209152, Note_off_c, 4, 54, 0
6, 209152, Note_on_c, 4, 50, 96
6, 209408, Note_off_c, 4, 50, 0
6, 209408, Note_on_c, 4, 54, 96
6, 209664, Note_off_c, 4, 54, 0
6, 209664, Note_on_c, 4, 57, 96
6, 209920, Note_off_c, 4, 57, 0
6, 209920, Note_on_c, 4, 62, 96
6, 210176, Note_off_c, 4, 62, 0
6, 210176, Note_on_c, 4, 58, 96
6, 210432, Note_off_c, 4, 58, 0
6, 210432, Note_on_c, 4, 55, 96
6, 210688, Note_off_c, 4, 55, 0
6, 210688, Note_on_c, 4, 58, 96
6, 210944, Note_off_c, 4, 58, 0
6, 210944, Note_on_c, 4, 52, 96
6, 211200, Note_off_c, 4, 52, 0
6, 211200, Note_on_c, 4, 48, 96
6, 211456, Note_off_c, 4, 48, 0
6, 211456, Note_on_c, 4, 52, 96
6, 211712, Note_off_c, 4, 52, 0
6, 211712, Note_on_c, 4, 55, 96
6, 211968, Note_off_c, 4, 55, 0
6, 211968, Note_on_c, 4, 60, 96
6, 212224, Note_off_c, 4, 60, 0
6, 212224, Note_on_c, 4, 57, 96
6, 212480, Note_off_c, 4, 57, 0
6, 212480, Note_on_c, 4, 53, 96
6, 212736, Note_off_c, 4, 53, 0
6, 212736, Note_on_c, 4, 57, 96
6, 212992, Note_off_c, 4, 57, 0
6, 212992, Note_on_c, 4, 55, 96
6, 213504, Note_off_c, 4, 55, 0
6, 213504, Note_on_c, 4, 53, 96
6, 213760, Note_off_c, 4, 53, 0
6, 213760, Note_on_c, 4, 55, 96
6, 214016, Note_off_c, 4, 55, 0
6, 214016, Note_on_c, 4, 57, 96
6, 215552, Note_off_c, 4, 57, 0
6, 215552, Note_on_c, 4, 55, 96
6, 216064, Note_off_c, 4, 55, 0
6, 216064, Note_on_c, 4, 53, 96
6, 217088, Note_off_c, 4, 53, 0
6, 217088, Note_on_c, 4, 55, 96
6, 218112, Note_off_c, 4, 55, 0
6, 219392, Note_on_c, 4, 53, 96
6, 219648, Note_off_c, 4, 53, 0
6, 219648, Note_on_c, 4, 52, 96
6, 219904, Note_off_c, 4, 52, 0
6, 219904, Note_on_c, 4, 53, 96
6, 220160, Note_off_c, 4, 53, 0
6, 220160, Note_on_c, 4, 55, 96
6, 220416, Note_off_c, 4, 55, 0
6, 220416, Note_on_c, 4, 53, 96
6, 220672, Note_off_c, 4, 53, 0
6, 220672, Note_on_c, 4, 52, 96
6, 220928, Note_off_c, 4, 52, 0
6, 220928, Note_on_c, 4, 50, 96
6, 221184, Note_off_c, 4, 50, 0
6, 221184, Note_on_c, 4, 57, 96
6, 221440, Note_off_c, 4, 57, 0
6, 221440, Note_on_c, 4, 48, 96
6, 221696, Note_off_c, 4, 48, 0
6, 221696, Note_on_c, 4, 52, 96
6, 221952, Note_off_c, 4, 52, 0
6, 221952, Note_on_c, 4, 55, 96
6, 222208, Note_off_c, 4, 55, 0
6, 222208, Note_on_c, 4, 60, 96
6, 222464, Note_off_c, 4, 60, 0
6, 222464, Note_on_c, 4, 53, 96
6, 222720, Note_off_c, 4, 53, 0
6, 222720, Note_on_c, 4, 57, 96
6, 222976, Note_off_c, 4, 57, 0
6, 222976, Note_on_c, 4, 60, 96
6, 223232, Note_off_c, 4, 60, 0
6, 223232, Note_on_c, 4, 62, 96
6, 223488, Note_off_c, 4, 62, 0
6, 223488, Note_on_c, 4, 59, 96
6, 223744, Note_off_c, 4, 59, 0
6, 223744, Note_on_c, 4, 55, 96
6, 224000, Note_off_c, 4, 55, 0
6, 224000, Note_on_c, 4, 59, 96
6, 224256, Note_off_c, 4, 59, 0
6, 224256, Note_on_c, 4, 50, 96
6, 224512, Note_off_c, 4, 50, 0
6, 224512, Note_on_c, 4, 57, 96
6, 224768, Note_off_c, 4, 57, 0
6, 224768, Note_on_c, 4, 55, 96
6, 225024, Note_off_c, 4, 55, 0
6, 225024, Note_on_c, 4, 53, 96
6, 225280, Note_off_c, 4, 53, 0
6, 225280, Note_on_c, 4, 52, 96
6, 226304, Note_off_c, 4, 52, 0
6, 226816, Note_on_c, 4, 55, 96
6, 227840, Note_off_c, 4, 55, 0
6, 227840, Note_on_c, 4, 53, 96
6, 228096, Note_off_c, 4, 53, 0
6, 228096, Note_on_c, 4, 52, 96
6, 228352, Note_off_c, 4, 52, 0
6, 228352, Note_on_c, 4, 50, 96
6, 228864, Note_off_c, 4, 50, 0
6, 228864, Note_on_c, 4, 59, 96
6, 229376, Note_off_c, 4, 59, 0
6, 229376, Note_on_c, 4, 60, 96
6, 229632, Note_off_c, 4, 60, 0
6, 229632, Note_on_c, 4, 48, 96
6, 229888, Note_off_c, 4, 48, 0
6, 229888, Note_on_c, 4, 52, 96
6, 230144, Note_off_c, 4, 52, 0
6, 230144, Note_on_c, 4, 55, 96
6, 230400, Note_off_c, 4, 55, 0
6, 230400, Note_on_c, 4, 60, 96
6, 230656, Note_off_c, 4, 60, 0
6, 230656, Note_on_c, 4, 52, 96
6, 230912, Note_off_c, 4, 52, 0
6, 230912, Note_on_c, 4, 55, 96
6, 231168, Note_off_c, 4, 55, 0
6, 231168, Note_on_c, 4, 60, 96
6, 231424, Note_off_c, 4, 60, 0
6, 231424, Note_on_c, 4, 64, 96
6, 231680, Note_off_c, 4, 64, 0
6, 231680, Note_on_c, 4, 60, 96
6, 231936, Note_off_c, 4, 60, 0
6, 231936, Note_on_c, 4, 57, 96
6, 232192, Note_off_c, 4, 57, 0
6, 232192, Note_on_c, 4, 60, 96
6, 232448, Note_off_c, 4, 60, 0
6, 232448, Note_on_c, 4, 53, 96
6, 232704, Note_off_c, 4, 53, 0
6, 232704, Note_on_c, 4, 64, 96
6, 232960, Note_off_c, 4, 64, 0
6, 232960, Note_on_c, 4, 62, 96
6, 233216, Note_off_c, 4, 62, 0
6, 233216, Note_on_c, 4, 60, 96
6, 233472, Note_off_c, 4, 60, 0
6, 233472, Note_on_c, 4, 59, 96
6, 233728, Note_off_c, 4, 59, 0
6, 233728, Note_on_c, 4, 60, 96
6, 233984, Note_off_c, 4, 60, 0
6, 233984, Note_on_c, 4, 57, 96
6, 234240, Note_off_c, 4, 57, 0
6, 234240, Note_on_c, 4, 59, 96
6, 234496, Note_off_c, 4, 59, 0
6, 234496, Note_on_c, 4, 60, 96
6, 234752, Note_off_c, 4, 60, 0
6, 234752, Note_on_c, 4, 57, 96
6, 235008, Note_off_c, 4, 57, 0
6, 235008, Note_on_c, 4, 55, 96
6, 235264, Note_off_c, 4, 55, 0
6, 235264, Note_on_c, 4, 53, 96
6, 235520, Note_off_c, 4, 53, 0
6, 235520, Note_on_c, 4, 52, 96
6, 236544, Note_off_c, 4, 52, 0
6, 237056, Note_on_c, 4, 52, 96
6, 237568, Note_off_c, 4, 52, 0
6, 237568, Note_on_c, 4, 53, 96
6, 238592, Note_off_c, 4, 53, 0
6, 239104, Note_on_c, 4, 53, 96
6, 239616, Note_off_c, 4, 53, 0
6, 239616, Note_on_c, 4, 55, 96
6, 240128, Note_off_c, 4, 55, 0
6, 241152, Note_on_c, 4, 64, 96
6, 241664, Note_off_c, 4, 64, 0
6, 241664, Note_on_c, 4, 62, 96
6, 242176, Note_off_c, 4, 62, 0
6, 243200, Note_on_c, 4, 65, 96
6, 243712, Note_off_c, 4, 65, 0
6, 243712, Note_on_c, 4, 67, 96
6, 243968, Note_off_c, 4, 67, 0
6, 243968, Note_on_c, 4, 55, 96
6, 244224, Note_off_c, 4, 55, 0
6, 244224, Note_on_c, 4, 60, 96
6, 244480, Note_off_c, 4, 60, 0
6, 244480, Note_on_c, 4, 64, 96
6, 244736, Note_off_c, 4, 64, 0
6, 244736, Note_on_c, 4, 67, 96
6, 244992, Note_off_c, 4, 67, 0
6, 244992, Note_on_c, 4, 60, 96
6, 245248, Note_off_c, 4, 60, 0
6, 245248, Note_on_c, 4, 66, 96
6, 245504, Note_off_c, 4, 66, 0
6, 245504, Note_on_c, 4, 69, 96
6, 245760, Note_off_c, 4, 69, 0
6, 245760, Note_on_c, 4, 70, 96
6, 246016, Note_off_c, 4, 70, 0
6, 246016, Note_on_c, 4, 67, 96
6, 246272, Note_off_c, 4, 67, 0
6, 246272, Note_on_c, 4, 64, 96
6, 246528, Note_off_c, 4, 64, 0
6, 246528, Note_on_c, 4, 67, 96
6, 246784, Note_off_c, 4, 67, 0
6, 246784, Note_on_c, 4, 60, 96
6, 248320, Note_off_c, 4, 60, 0
6, 248320, Note_on_c, 4, 62, 96
6, 248576, Note_off_c, 4, 62, 0
6, 248576, Note_on_c, 4, 60, 96
6, 248832, Note_off_c, 4, 60, 0
6, 248832, Note_on_c, 4, 58, 96
6, 250112, Note_off_c, 4, 58, 0
6, 250112, Note_on_c, 4, 52, 96
6, 250368, Note_off_c, 4, 52, 0
6, 250368, Note_on_c, 4, 53, 96
6, 250624, Note_off_c, 4, 53, 0
6, 250624, Note_on_c, 4, 57, 96
6, 250880, Note_off_c, 4, 57, 0
6, 250880, Note_on_c, 4, 60, 96
6, 251136, Note_off_c, 4, 60, 0
6, 251136, Note_on_c, 4, 48, 96
6, 251392, Note_off_c, 4, 48, 0
6, 251392, Note_on_c, 4, 53, 96
6, 251648, Note_off_c, 4, 53, 0
6, 251648, Note_on_c, 4, 57, 96
6, 251904, Note_off_c, 4, 57, 0
6, 251904, Note_on_c, 4, 58, 96
6, 252160, Note_off_c, 4, 58, 0
6, 252160, Note_on_c, 4, 55, 96
6, 252416, Note_off_c, 4, 55, 0
6, 252416, Note_on_c, 4, 58, 96
6, 252672, Note_off_c, 4, 58, 0
6, 252672, Note_on_c, 4, 62, 96
6, 252928, Note_off_c, 4, 62, 0
6, 252928, Note_on_c, 4, 67, 96
6, 253184, Note_off_c, 4, 67, 0
6, 253184, Note_on_c, 4, 63, 96
6, 253440, Note_off_c, 4, 63, 0
6, 253440, Note_on_c, 4, 58, 96
6, 253696, Note_off_c, 4, 58, 0
6, 253696, Note_on_c, 4, 61, 96
6, 253952, Note_off_c, 4, 61, 0
6, 253952, Note_on_c, 4, 57, 96
6, 254208, Note_off_c, 4, 57, 0
6, 254208, Note_on_c, 4, 67, 96
6, 254464, Note_off_c, 4, 67, 0
6, 254464, Note_on_c, 4, 65, 96
6, 254720, Note_off_c, 4, 65, 0
6, 254720, Note_on_c, 4, 63, 96
6, 254976, Note_off_c, 4, 63, 0
6, 254976, Note_on_c, 4, 62, 96
6, 255232, Note_off_c, 4, 62, 0
6, 255232, Note_on_c, 4, 60, 96
6, 255488, Note_off_c, 4, 60, 0
6, 255488, Note_on_c, 4, 62, 96
6, 255744, Note_off_c, 4, 62, 0
6, 255744, Note_on_c, 4, 64, 96
6, 256000, Note_off_c, 4, 64, 0
6, 256000, Note_on_c, 4, 65, 96
6, 256768, Note_off_c, 4, 65, 0
6, 256768, Note_on_c, 4, 63, 96
6, 257024, Note_off_c, 4, 63, 0
6, 257024, Note_on_c, 4, 62, 96
6, 257536, Note_off_c, 4, 62, 0
6, 257536, Note_on_c, 4, 61, 96
6, 258048, Note_off_c, 4, 61, 0
6, 258048, Note_on_c, 4, 60, 96
6, 258304, Note_off_c, 4, 60, 0
6, 258304, Note_on_c, 4, 48, 96
6, 258560, Note_off_c, 4, 48, 0
6, 258560, Note_on_c, 4, 53, 96
6, 258816, Note_off_c, 4, 53, 0
6, 258816, Note_on_c, 4, 57, 96
6, 259072, Note_off_c, 4, 57, 0
6, 259072, Note_on_c, 4, 60, 96
6, 259328, Note_off_c, 4, 60, 0
6, 259328, Note_on_c, 4, 53, 96
6, 259584, Note_off_c, 4, 53, 0
6, 259584, Note_on_c, 4, 57, 96
6, 259840, Note_off_c, 4, 57, 0
6, 259840, Note_on_c, 4, 60, 96
6, 260096, Note_off_c, 4, 60, 0
6, 260096, Note_on_c, 4, 62, 96
6, 260352, Note_off_c, 4, 62, 0
6, 260352, Note_on_c, 4, 58, 96
6, 260608, Note_off_c, 4, 58, 0
6, 260608, Note_on_c, 4, 55, 96
6, 260864, Note_off_c, 4, 55, 0
6, 260864, Note_on_c, 4, 58, 96
6, 261120, Note_off_c, 4, 58, 0
6, 261120, Note_on_c, 4, 52, 96
6, 261376, Note_off_c, 4, 52, 0
6, 261376, Note_on_c, 4, 62, 96
6, 261632, Note_off_c, 4, 62, 0
6, 261632, Note_on_c, 4, 60, 96
6, 261888, Note_off_c, 4, 60, 0
6, 261888, Note_on_c, 4, 58, 96
6, 262144, Note_off_c, 4, 58, 0
6, 262144, Note_on_c, 4, 57, 96
6, 262400, Note_off_c, 4, 57, 0
6, 262400, Note_on_c, 4, 55, 96
6, 262656, Note_off_c, 4, 55, 0
6, 262656, Note_on_c, 4, 57, 96
6, 262912, Note_off_c, 4, 57, 0
6, 262912, Note_on_c, 4, 59, 96
6, 263168, Note_off_c, 4, 59, 0
6, 263168, Note_on_c, 4, 60, 96
6, 263424, Note_off_c, 4, 60, 0
6, 263424, Note_on_c, 4, 55, 96
6, 263680, Note_off_c, 4, 55, 0
6, 263680, Note_on_c, 4, 60, 96
6, 264448, Note_off_c, 4, 60, 0
6, 264448, Note_on_c, 4, 60, 96
6, 264704, Note_off_c, 4, 60, 0
6, 264704, Note_on_c, 4, 59, 96
6, 264960, Note_off_c, 4, 59, 0
6, 264960, Note_on_c, 4, 57, 96
6, 265216, Note_off_c, 4, 57, 0
6, 265216, Note_on_c, 4, 59, 96
6, 266240, Note_off_c, 4, 59, 0
6, 266240, Note_on_c, 4, 60, 96
6, 266752, Note_off_c, 4, 60, 0
6, 266752, Note_on_c, 4, 64, 96
6, 267008, Note_off_c, 4, 64, 0
6, 267008, Note_on_c, 4, 62, 96
6, 267264, Note_off_c, 4, 62, 0
6, 267264, Note_on_c, 4, 64, 96
6, 267776, Note_off_c, 4, 64, 0
6, 267776, Note_on_c, 4, 60, 96
6, 268800, Note_off_c, 4, 60, 0
6, 268800, Note_on_c, 4, 59, 96
6, 269056, Note_off_c, 4, 59, 0
6, 269056, Note_on_c, 4, 60, 96
6, 269312, Note_off_c, 4, 60, 0
6, 269312, Note_on_c, 4, 62, 96
6, 269824, Note_off_c, 4, 62, 0
6, 269824, Note_on_c, 4, 55, 96
6, 270336, Note_off_c, 4, 55, 0
6, 270336, Note_on_c, 4, 60, 96
6, 270848, Note_off_c, 4, 60, 0
6, 270848, Note_on_c, 4, 57, 96
6, 271360, Note_off_c, 4, 57, 0
6, 271360, Note_on_c, 4, 58, 96
6, 271872, Note_off_c, 4, 58, 0
6, 271872, Note_on_c, 4, 55, 96
6, 272384, Note_off_c, 4, 55, 0
6, 272384, Note_on_c, 4, 60, 96
6, 272896, Note_off_c, 4, 60, 0
6, 272896, Note_on_c, 4, 63, 96
6, 273408, Note_off_c, 4, 63, 0
6, 273408, Note_on_c, 4, 62, 96
6, 273920, Note_off_c, 4, 62, 0
6, 273920, Note_on_c, 4, 66, 96
6, 274432, Note_off_c, 4, 66, 0
6, 274432, Note_on_c, 4, 67, 96
6, 274688, Note_off_c, 4, 67, 0
6, 274688, Note_on_c, 4, 55, 96
6, 274944, Note_off_c, 4, 55, 0
6, 274944, Note_on_c, 4, 58, 96
6, 275200, Note_off_c, 4, 58, 0
6, 275200, Note_on_c, 4, 62, 96
6, 275456, Note_off_c, 4, 62, 0
6, 275456, Note_on_c, 4, 65, 96
6, 275712, Note_off_c, 4, 65, 0
6, 275712, Note_on_c, 4, 62, 96
6, 275968, Note_off_c, 4, 62, 0
6, 275968, Note_on_c, 4, 65, 96
6, 276224, Note_off_c, 4, 65, 0
6, 276224, Note_on_c, 4, 69, 96
6, 276480, Note_off_c, 4, 69, 0
6, 276480, Note_on_c, 4, 70, 96
6, 276736, Note_off_c, 4, 70, 0
6, 276736, Note_on_c, 4, 67, 96
6, 276992, Note_off_c, 4, 67, 0
6, 276992, Note_on_c, 4, 64, 96
6, 277248, Note_off_c, 4, 64, 0
6, 277248, Note_on_c, 4, 67, 96
6, 277504, Note_off_c, 4, 67, 0
6, 277504, Note_on_c, 4, 61, 96
6, 277760, Note_off_c, 4, 61, 0
6, 277760, Note_on_c, 4, 70, 96
6, 278016, Note_off_c, 4, 70, 0
6, 278016, Note_on_c, 4, 69, 96
6, 278272, Note_off_c, 4, 69, 0
6, 278272, Note_on_c, 4, 67, 96
6, 278528, Note_off_c, 4, 67, 0
6, 278528, Note_on_c, 4, 65, 96
6, 278784, Note_off_c, 4, 65, 0
6, 278784, Note_on_c, 4, 62, 96
6, 279040, Note_off_c, 4, 62, 0
6, 279040, Note_on_c, 4, 65, 96
6, 279296, Note_off_c, 4, 65, 0
6, 279296, Note_on_c, 4, 69, 96
6, 279552, Note_off_c, 4, 69, 0
6, 279552, Note_on_c, 4, 59, 96
6, 279808, Note_off_c, 4, 59, 0
6, 279808, Note_on_c, 4, 69, 96
6, 280064, Note_off_c, 4, 69, 0
6, 280064, Note_on_c, 4, 67, 96
6, 280320, Note_off_c, 4, 67, 0
6, 280320, Note_on_c, 4, 65, 96
6, 280576, Note_off_c, 4, 65, 0
6, 280576, Note_on_c, 4, 64, 96
6, 280832, Note_off_c, 4, 64, 0
6, 280832, Note_on_c, 4, 60, 96
6, 281088, Note_off_c, 4, 60, 0
6, 281088, Note_on_c, 4, 64, 96
6, 281344, Note_off_c, 4, 64, 0
6, 281344, Note_on_c, 4, 67, 96
6, 281600, Note_off_c, 4, 67, 0
6, 281600, Note_on_c, 4, 60, 96
6, 281856, Note_off_c, 4, 60, 0
6, 281856, Note_on_c, 4, 70, 96
6, 282112, Note_off_c, 4, 70, 0
6, 282112, Note_on_c, 4, 69, 96
6, 282368, Note_off_c, 4, 69, 0
6, 282368, Note_on_c, 4, 67, 96
6, 282624, Note_off_c, 4, 67, 0
6, 282624, Note_on_c, 4, 65, 96
6, 282880, Note_off_c, 4, 65, 0
6, 282880, Note_on_c, 4, 63, 96
6, 283136, Note_off_c, 4, 63, 0
6, 283136, Note_on_c, 4, 65, 96
6, 283392, Note_off_c, 4, 65, 0
6, 283392, Note_on_c, 4, 69, 96
6, 283648, Note_off_c, 4, 69, 0
6, 283648, Note_on_c, 4, 56, 96
6, 283904, Note_off_c, 4, 56, 0
6, 283904, Note_on_c, 4, 65, 96
6, 284160, Note_off_c, 4, 65, 0
6, 284160, Note_on_c, 4, 64, 96
6, 284416, Note_off_c, 4, 64, 0
6, 284416, Note_on_c, 4, 62, 96
6, 284672, Note_off_c, 4, 62, 0
6, 284672, Note_on_c, 4, 60, 96
6, 284928, Note_off_c, 4, 60, 0
6, 284928, Note_on_c, 4, 57, 96
6, 285184, Note_off_c, 4, 57, 0
6, 285184, Note_on_c, 4, 60, 96
6, 285440, Note_off_c, 4, 60, 0
6, 285440, Note_on_c, 4, 64, 96
6, 285696, Note_off_c, 4, 64, 0
6, 285696, Note_on_c, 4, 53, 96
6, 286208, Note_off_c, 4, 53, 0
6, 286208, Note_on_c, 4, 65, 96
6, 287232, Note_off_c, 4, 65, 0
6, 287232, Note_on_c, 4, 64, 96
6, 287488, Note_off_c, 4, 64, 0
6, 287488, Note_on_c, 4, 62, 96
6, 287744, Note_off_c, 4, 62, 0
6, 287744, Note_on_c, 4, 64, 96
6, 289280, Note_off_c, 4, 64, 0
6, 289280, Note_on_c, 4, 62, 96
6, 289536, Note_off_c, 4, 62, 0
6, 289536, Note_on_c, 4, 60, 96
6, 289792, Note_off_c, 4, 60, 0
6, 289792, Note_on_c, 4, 62, 96
6, 290304, Note_off_c, 4, 62, 0
6, 290304, Note_on_c, 4, 55, 96
6, 290816, Note_off_c, 4, 55, 0
6, 290816, Note_on_c, 4, 60, 96
6, 291328, Note_off_c, 4, 60, 0
6, 291328, Note_on_c, 4, 48, 96
6, 291840, Note_off_c, 4, 48, 0
6, 291840, Note_on_c, 4, 60, 96
6, 293376, Note_off_c, 4, 60, 0
6, 293376, Note_on_c, 4, 58, 96
6, 293632, Note_off_c, 4, 58, 0
6, 293632, Note_on_c, 4, 57, 96
6, 293888, Note_off_c, 4, 57, 0
6, 293888, Note_on_c, 4, 58, 96
6, 295424, Note_off_c, 4, 58, 0
6, 295424, Note_on_c, 4, 57, 96
6, 295680, Note_off_c, 4, 57, 0
6, 295680, Note_on_c, 4, 55, 96
6, 295936, Note_off_c, 4, 55, 0
6, 295936, Note_on_c, 4, 57, 96
6, 296448, Note_off_c, 4, 57, 0
6, 296448, Note_on_c, 4, 53, 96
6, 296960, Note_off_c, 4, 53, 0
6, 296960, Note_on_c, 4, 58, 96
6, 297984, Note_off_c, 4, 58, 0
6, 297984, Note_on_c, 4, 60, 96
6, 299520, Note_off_c, 4, 60, 0
6, 299520, Note_on_c, 4, 58, 96
6, 299776, Note_off_c, 4, 58, 0
6, 299776, Note_on_c, 4, 57, 96
6, 300032, Note_off_c, 4, 57, 0
6, 300032, Note_on_c, 4, 58, 96
6, 301568, Note_off_c, 4, 58, 0
6, 301568, Note_on_c, 4, 57, 96
6, 301824, Note_off_c, 4, 57, 0
6, 301824, Note_on_c, 4, 55, 96
6, 302080, Note_off_c, 4, 55, 0
6, 302080, Note_on_c, 4, 57, 96
6, 303616, Note_off_c, 4, 57, 0
6, 303616, Note_on_c, 4, 55, 96
6, 304640, Note_off_c, 4, 55, 0
6, 304640, Note_on_c, 4, 53, 96
6, 305408, Note_off_c, 4, 53, 0
6, 305408, Note_on_c, 4, 55, 96
6, 305664, Note_off_c, 4, 55, 0
6, 305664, Note_on_c, 4, 52, 96
6, 305920, Note_off_c, 4, 52, 0
6, 305920, Note_on_c, 4, 53, 96
6, 306176, Note_off_c, 4, 53, 0
6, 306176, Note_on_c, 4, 55, 96
6, 306432, Note_off_c, 4, 55, 0
6, 306432, Note_on_c, 4, 53, 96
6, 306688, Note_off_c, 4, 53, 0
6, 306688, Note_on_c, 4, 52, 96
6, 306944, Note_off_c, 4, 52, 0
6, 306944, Note_on_c, 4, 50, 96
6, 307200, Note_off_c, 4, 50, 0
6, 307200, Note_on_c, 4, 48, 96
6, 307712, Note_off_c, 4, 48, 0
6, 307712, Note_on_c, 4, 53, 96
6, 308736, Note_off_c, 4, 53, 0
6, 308736, Note_on_c, 4, 50, 96
6, 309248, Note_off_c, 4, 50, 0
6, 309248, Note_on_c, 4, 52, 96
6, 310272, Note_off_c, 4, 52, 0
6, 310528, Note_on_c, 4, 48, 96
6, 310784, Note_off_c, 4, 48, 0
6, 310784, Note_on_c, 4, 52, 96
6, 311040, Note_off_c, 4, 52, 0
6, 311040, Note_on_c, 4, 55, 96
6, 311296, Note_off_c, 4, 55, 0
6, 311296, Note_on_c, 4, 60, 96
6, 312320, Note_off_c, 4, 60, 0
6, 312320, Note_on_c, 4, 57, 96
6, 312832, Note_off_c, 4, 57, 0
6, 312832, Note_on_c, 4, 54, 96
6, 313344, Note_off_c, 4, 54, 0
6, 313344, Note_on_c, 4, 55, 96
6, 313856, Note_off_c, 4, 55, 0
6, 313856, Note_on_c, 4, 62, 96
6, 314624, Note_off_c, 4, 62, 0
6, 314624, Note_on_c, 4, 59, 96
6, 314880, Note_off_c, 4, 59, 0
6, 314880, Note_on_c, 4, 60, 96
6, 315136, Note_off_c, 4, 60, 0
6, 315136, Note_on_c, 4, 64, 96
6, 315392, Note_off_c, 4, 64, 0
6, 315392, Note_on_c, 4, 69, 96
6, 315904, Note_off_c, 4, 69, 0
6, 320000, Note_on_c, 4, 60, 96
6, 321024, Note_off_c, 4, 60, 0
6, 321024, Note_on_c, 4, 59, 96
6, 321280, Note_off_c, 4, 59, 0
6, 321280, Note_on_c, 4, 57, 96
6, 321536, Note_off_c, 4, 57, 0
6, 321536, Note_on_c, 4, 55, 96
6, 321792, Note_off_c, 4, 55, 0
6, 321792, Note_on_c, 4, 57, 96
6, 322048, Note_off_c, 4, 57, 0
6, 322048, Note_on_c, 4, 53, 96
6, 322304, Note_off_c, 4, 53, 0
6, 322304, Note_on_c, 4, 55, 96
6, 322560, Note_off_c, 4, 55, 0
6, 322560, Note_on_c, 4, 57, 96
6, 322816, Note_off_c, 4, 57, 0
6, 322816, Note_on_c, 4, 55, 96
6, 323072, Note_off_c, 4, 55, 0
6, 323072, Note_on_c, 4, 53, 96
6, 323328, Note_off_c, 4, 53, 0
6, 323328, Note_on_c, 4, 52, 96
6, 323584, Note_off_c, 4, 52, 0
6, 323584, Note_on_c, 4, 50, 96
6, 323840, Note_off_c, 4, 50, 0
6, 323840, Note_on_c, 4, 52, 96
6, 324096, Note_off_c, 4, 52, 0
6, 324096, Note_on_c, 4, 53, 96
6, 325120, Note_off_c, 4, 53, 0
6, 325120, Note_on_c, 4, 52, 96
6, 325376, Note_off_c, 4, 52, 0
6, 325376, Note_on_c, 4, 50, 96
6, 325632, Note_off_c, 4, 50, 0
6, 325632, Note_on_c, 4, 48, 96
6, 326144, Note_off_c, 4, 48, 0
6, 326144, Note_on_c, 4, 52, 96
6, 326656, Note_off_c, 4, 52, 0
6, 326656, Note_on_c, 4, 53, 96
6, 327168, Note_off_c, 4, 53, 0
6, 327168, Note_on_c, 4, 55, 96
6, 327680, Note_off_c, 4, 55, 0
6, 327680, Note_on_c, 4, 48, 96
6, 328192, Note_off_c, 4, 48, 0
6, 332288, Note_on_c, 4, 58, 96
6, 332800, Note_off_c, 4, 58, 0
6, 332800, Note_on_c, 4, 57, 96
6, 334336, Note_off_c, 4, 57, 0
6, 334336, Note_on_c, 4, 58, 96
6, 334592, Note_off_c, 4, 58, 0
6, 334592, Note_on_c, 4, 57, 96
6, 334848, Note_off_c, 4, 57, 0
6, 334848, Note_on_c, 4, 55, 96
6, 336384, Note_off_c, 4, 55, 0
6, 336384, Note_on_c, 4, 53, 96
6, 336640, Note_off_c, 4, 53, 0
6, 336640, Note_on_c, 4, 52, 96
6, 336896, Note_off_c, 4, 52, 0
6, 336896, Note_on_c, 4, 53, 96
6, 337408, Note_off_c, 4, 53, 0
6, 337408, Note_on_c, 4, 57, 96
6, 338432, Note_off_c, 4, 57, 0
6, 338432, Note_on_c, 4, 55, 96
6, 338688, Note_off_c, 4, 55, 0
6, 338688, Note_on_c, 4, 53, 96
6, 338944, Note_off_c, 4, 53, 0
6, 338944, Note_on_c, 4, 55, 96
6, 339456, Note_off_c, 4, 55, 0
6, 339456, Note_on_c, 4, 58, 96
6, 340480, Note_off_c, 4, 58, 0
6, 340480, Note_on_c, 4, 57, 96
6, 341504, Note_off_c, 4, 57, 0
6, 341504, Note_on_c, 4, 55, 96
6, 341760, Note_off_c, 4, 55, 0
6, 341760, Note_on_c, 4, 53, 96
6, 342016, Note_off_c, 4, 53, 0
6, 342016, Note_on_c, 4, 52, 96
6, 342272, Note_off_c, 4, 52, 0
6, 342272, Note_on_c, 4, 53, 96
6, 342528, Note_off_c, 4, 53, 0
6, 342528, Note_on_c, 4, 50, 96
6, 342784, Note_off_c, 4, 50, 0
6, 342784, Note_on_c, 4, 52, 96
6, 343040, Note_off_c, 4, 52, 0
6, 343040, Note_on_c, 4, 53, 96
6, 343296, Note_off_c, 4, 53, 0
6, 343296, Note_on_c, 4, 52, 96
6, 343552, Note_off_c, 4, 52, 0
6, 343552, Note_on_c, 4, 50, 96
6, 343808, Note_off_c, 4, 50, 0
6, 343808, Note_on_c, 4, 48, 96
6, 344064, Note_off_c, 4, 48, 0
6, 344064, Note_on_c, 4, 55, 96
6, 344576, Note_off_c, 4, 55, 0
6, 344576, Note_on_c, 4, 53, 96
6, 344832, Note_off_c, 4, 53, 0
6, 344832, Note_on_c, 4, 55, 96
6, 345088, Note_off_c, 4, 55, 0
6, 345088, Note_on_c, 4, 57, 96
6, 346624, Note_off_c, 4, 57, 0
6, 346624, Note_on_c, 4, 55, 96
6, 346880, Note_off_c, 4, 55, 0
6, 346880, Note_on_c, 4, 54, 96
6, 347136, Note_off_c, 4, 54, 0
6, 347136, Note_on_c, 4, 55, 96
6, 348672, Note_off_c, 4, 55, 0
6, 348672, Note_on_c, 4, 54, 96
6, 348928, Note_off_c, 4, 54, 0
6, 348928, Note_on_c, 4, 55, 96
6, 349184, Note_off_c, 4, 55, 0
6, 349184, Note_on_c, 4, 57, 96
6, 350208, Note_off_c, 4, 57, 0
6, 350208, Note_on_c, 4, 50, 96
6, 350720, Note_off_c, 4, 50, 0
6, 352768, Note_on_c, 4, 53, 96
6, 353280, Note_off_c, 4, 53, 0
6, 353280, Note_on_c, 4, 58, 96
6, 354560, Note_off_c, 4, 58, 0
6, 354560, Note_on_c, 4, 60, 96
6, 354816, Note_off_c, 4, 60, 0
6, 354816, Note_on_c, 4, 57, 96
6, 355072, Note_off_c, 4, 57, 0
6, 355072, Note_on_c, 4, 58, 96
6, 355328, Note_off_c, 4, 58, 0
6, 355328, Note_on_c, 4, 60, 96
6, 355584, Note_off_c, 4, 60, 0
6, 355584, Note_on_c, 4, 58, 96
6, 355840, Note_off_c, 4, 58, 0
6, 355840, Note_on_c, 4, 57, 96
6, 356096, Note_off_c, 4, 57, 0
6, 356096, Note_on_c, 4, 55, 96
6, 356352, Note_off_c, 4, 55, 0
6, 356352, Note_on_c, 4, 57, 96
6, 356864, Note_off_c, 4, 57, 0
6, 356864, Note_on_c, 4, 53, 96
6, 357376, Note_off_c, 4, 53, 0
6, 357376, Note_on_c, 4, 58, 96
6, 358912, Note_off_c, 4, 58, 0
6, 358912, Note_on_c, 4, 46, 96
6, 359168, Note_off_c, 4, 46, 0
6, 359168, Note_on_c, 4, 48, 96
6, 359424, Note_off_c, 4, 48, 0
6, 359424, Note_on_c, 4, 50, 96
6, 359936, Note_off_c, 4, 50, 0
6, 359936, Note_on_c, 4, 52, 96
6, 360448, Note_off_c, 4, 52, 0
6, 360448, Note_on_c, 4, 53, 96
6, 361472, Note_off_c, 4, 53, 0
6, 361984, Note_on_c, 4, 53, 96
6, 362752, Note_off_c, 4, 53, 0
6, 362752, Note_on_c, 4, 51, 96
6, 363008, Note_off_c, 4, 51, 0
6, 363008, Note_on_c, 4, 50, 96
6, 363264, Note_off_c, 4, 50, 0
6, 363264, Note_on_c, 4, 51, 96
6, 363520, Note_off_c, 4, 51, 0
6, 363520, Note_on_c, 4, 53, 96
6, 363776, Note_off_c, 4, 53, 0
6, 363776, Note_on_c, 4, 51, 96
6, 364032, Note_off_c, 4, 51, 0
6, 364032, Note_on_c, 4, 50, 96
6, 364288, Note_off_c, 4, 50, 0
6, 364288, Note_on_c, 4, 48, 96
6, 364544, Note_off_c, 4, 48, 0
6, 364544, Note_on_c, 4, 50, 96
6, 365312, Note_off_c, 4, 50, 0
6, 365312, Note_on_c, 4, 52, 96
6, 365568, Note_off_c, 4, 52, 0
6, 365568, Note_on_c, 4, 52, 96
6, 366336, Note_off_c, 4, 52, 0
6, 366336, Note_on_c, 4, 53, 96
6, 366592, Note_off_c, 4, 53, 0
6, 366592, Note_on_c, 4, 53, 96
6, 368896, Note_off_c, 4, 53, 0
6, 368896, Note_on_c, 4, 52, 96
6, 369152, Note_off_c, 4, 52, 0
6, 369152, Note_on_c, 4, 50, 96
6, 369408, Note_off_c, 4, 50, 0
6, 369408, Note_on_c, 4, 52, 96
6, 369664, Note_off_c, 4, 52, 0
6, 369664, Note_on_c, 4, 53, 96
6, 369920, Note_off_c, 4, 53, 0
6, 369920, Note_on_c, 4, 52, 96
6, 370176, Note_off_c, 4, 52, 0
6, 370176, Note_on_c, 4, 50, 96
6, 370432, Note_off_c, 4, 50, 0
6, 370432, Note_on_c, 4, 48, 96
6, 370688, Note_off_c, 4, 48, 0
6, 370688, Note_on_c, 4, 55, 96
6, 372736, Note_off_c, 4, 55, 0
6, 372736, Note_on_c, 4, 50, 96
6, 373760, Note_off_c, 4, 50, 0
6, 373760, Note_on_c, 4, 62, 96
6, 375040, Note_off_c, 4, 62, 0
6, 375040, Note_on_c, 4, 61, 96
6, 375296, Note_off_c, 4, 61, 0
6, 375296, Note_on_c, 4, 59, 96
6, 375552, Note_off_c, 4, 59, 0
6, 375552, Note_on_c, 4, 61, 96
6, 375808, Note_off_c, 4, 61, 0
6, 375808, Note_on_c, 4, 62, 96
6, 376064, Note_off_c, 4, 62, 0
6, 376064, Note_on_c, 4, 61, 96
6, 376320, Note_off_c, 4, 61, 0
6, 376320, Note_on_c, 4, 59, 96
6, 376576, Note_off_c, 4, 59, 0
6, 376576, Note_on_c, 4, 57, 96
6, 376832, Note_off_c, 4, 57, 0
6, 376832, Note_on_c, 4, 62, 96
6, 377600, Note_off_c, 4, 62, 0
6, 377600, Note_on_c, 4, 60, 96
6, 377856, Note_off_c, 4, 60, 0
6, 377856, Note_on_c, 4, 60, 96
6, 377920, Note_off_c, 4, 60, 0
6, 377920, Note_on_c, 4, 58, 96
6, 377984, Note_off_c, 4, 58, 0
6, 377984, Note_on_c, 4, 60, 96
6, 378048, Note_off_c, 4, 60, 0
6, 378048, Note_on_c, 4, 58, 96
6, 378112, Note_off_c, 4, 58, 0
6, 378112, Note_on_c, 4, 60, 96
6, 378176, Note_off_c, 4, 60, 0
6, 378176, Note_on_c, 4, 58, 96
6, 378624, Note_off_c, 4, 58, 0
6, 378624, Note_on_c, 4, 57, 96
6, 378752, Note_off_c, 4, 57, 0
6, 378752, Note_on_c, 4, 58, 96
6, 378880, Note_off_c, 4, 58, 0
6, 378880, Note_on_c, 4, 57, 96
6, 379136, Note_off_c, 4, 57, 0
6, 379136, Note_on_c, 4, 58, 96
6, 379392, Note_off_c, 4, 58, 0
6, 379392, Note_on_c, 4, 55, 96
6, 379648, Note_off_c, 4, 55, 0
6, 379648, Note_on_c, 4, 57, 96
6, 379904, Note_off_c, 4, 57, 0
6, 379904, Note_on_c, 4, 58, 96
6, 380160, Note_off_c, 4, 58, 0
6, 380160, Note_on_c, 4, 57, 96
6, 380416, Note_off_c, 4, 57, 0
6, 380416, Note_on_c, 4, 55, 96
6, 380672, Note_off_c, 4, 55, 0
6, 380672, Note_on_c, 4, 53, 96
6, 380928, Note_off_c, 4, 53, 0
6, 380928, Note_on_c, 4, 55, 96
6, 381184, Note_off_c, 4, 55, 0
6, 381184, Note_on_c, 4, 57, 96
6, 381440, Note_off_c, 4, 57, 0
6, 381440, Note_on_c, 4, 53, 96
6, 381696, Note_off_c, 4, 53, 0
6, 381696, Note_on_c, 4, 55, 96
6, 381952, Note_off_c, 4, 55, 0
6, 381952, Note_on_c, 4, 57, 96
6, 382208, Note_off_c, 4, 57, 0
6, 382208, Note_on_c, 4, 55, 96
6, 382464, Note_off_c, 4, 55, 0
6, 382464, Note_on_c, 4, 54, 96
6, 382720, Note_off_c, 4, 54, 0
6, 382720, Note_on_c, 4, 52, 96
6, 382976, Note_off_c, 4, 52, 0
6, 382976, Note_on_c, 4, 54, 96
6, 383744, Note_off_c, 4, 54, 0
6, 383744, Note_on_c, 4, 50, 96
6, 384000, Note_off_c, 4, 50, 0
6, 384000, Note_on_c, 4, 55, 96
6, 386048, Note_off_c, 4, 55, 0
6, 386048, Note_on_c, 4, 54, 96
6, 387072, Note_off_c, 4, 54, 0
6, 387072, Note_on_c, 4, 55, 96
6, 388096, Note_off_c, 4, 55, 0
6, 389376, Note_on_c, 4, 62, 96
6, 389632, Note_off_c, 4, 62, 0
6, 389632, Note_on_c, 4, 61, 96
6, 389888, Note_off_c, 4, 61, 0
6, 389888, Note_on_c, 4, 62, 96
6, 390144, Note_off_c, 4, 62, 0
6, 390144, Note_on_c, 4, 64, 96
6, 390400, Note_off_c, 4, 64, 0
6, 390400, Note_on_c, 4, 62, 96
6, 390656, Note_off_c, 4, 62, 0
6, 390656, Note_on_c, 4, 61, 96
6, 390912, Note_off_c, 4, 61, 0
6, 390912, Note_on_c, 4, 59, 96
6, 391168, Note_off_c, 4, 59, 0
6, 391168, Note_on_c, 4, 57, 96
6, 391680, Note_off_c, 4, 57, 0
6, 391680, Note_on_c, 4, 53, 96
6, 392192, Note_off_c, 4, 53, 0
6, 392192, Note_on_c, 4, 58, 96
6, 392704, Note_off_c, 4, 58, 0
6, 392704, Note_on_c, 4, 57, 96
6, 392960, Note_off_c, 4, 57, 0
6, 392960, Note_on_c, 4, 55, 96
6, 393216, Note_off_c, 4, 55, 0
6, 393216, Note_on_c, 4, 57, 96
6, 393472, Note_off_c, 4, 57, 0
6, 393472, Note_on_c, 4, 58, 96
6, 393728, Note_off_c, 4, 58, 0
6, 393728, Note_on_c, 4, 57, 96
6, 393984, Note_off_c, 4, 57, 0
6, 393984, Note_on_c, 4, 58, 96
6, 394240, Note_off_c, 4, 58, 0
6, 394240, Note_on_c, 4, 60, 96
6, 394496, Note_off_c, 4, 60, 0
6, 394496, Note_on_c, 4, 58, 96
6, 394752, Note_off_c, 4, 58, 0
6, 394752, Note_on_c, 4, 57, 96
6, 395008, Note_off_c, 4, 57, 0
6, 395008, Note_on_c, 4, 55, 96
6, 395264, Note_off_c, 4, 55, 0
6, 395264, Note_on_c, 4, 54, 96
6, 395776, Note_off_c, 4, 54, 0
6, 395776, Note_on_c, 4, 55, 96
6, 396288, Note_off_c, 4, 55, 0
6, 396288, Note_on_c, 4, 57, 96
6, 397312, Note_off_c, 4, 57, 0
6, 397568, Note_on_c, 4, 55, 96
6, 397824, Note_off_c, 4, 55, 0
6, 397824, Note_on_c, 4, 58, 96
6, 398080, Note_off_c, 4, 58, 0
6, 398080, Note_on_c, 4, 57, 96
6, 398336, Note_off_c, 4, 57, 0
6, 398336, Note_on_c, 4, 55, 96
6, 398592, Note_off_c, 4, 55, 0
6, 398592, Note_on_c, 4, 57, 96
6, 398848, Note_off_c, 4, 57, 0
6, 398848, Note_on_c, 4, 59, 96
6, 399104, Note_off_c, 4, 59, 0
6, 399104, Note_on_c, 4, 61, 96
6, 399360, Note_off_c, 4, 61, 0
6, 399360, Note_on_c, 4, 62, 96
6, 399616, Note_off_c, 4, 62, 0
6, 399616, Note_on_c, 4, 45, 96
6, 399872, Note_off_c, 4, 45, 0
6, 399872, Note_on_c, 4, 50, 96
6, 400128, Note_off_c, 4, 50, 0
6, 400128, Note_on_c, 4, 53, 96
6, 400384, Note_off_c, 4, 53, 0
6, 400384, Note_on_c, 4, 57, 96
6, 400640, Note_off_c, 4, 57, 0
6, 400640, Note_on_c, 4, 50, 96
6, 400896, Note_off_c, 4, 50, 0
6, 400896, Note_on_c, 4, 53, 96
6, 401152, Note_off_c, 4, 53, 0
6, 401152, Note_on_c, 4, 57, 96
6, 401408, Note_off_c, 4, 57, 0
6, 401408, Note_on_c, 4, 58, 96
6, 401664, Note_off_c, 4, 58, 0
6, 401664, Note_on_c, 4, 55, 96
6, 401920, Note_off_c, 4, 55, 0
6, 401920, Note_on_c, 4, 52, 96
6, 402176, Note_off_c, 4, 52, 0
6, 402176, Note_on_c, 4, 55, 96
6, 402432, Note_off_c, 4, 55, 0
6, 402432, Note_on_c, 4, 49, 96
6, 402688, Note_off_c, 4, 49, 0
6, 402688, Note_on_c, 4, 58, 96
6, 402944, Note_off_c, 4, 58, 0
6, 402944, Note_on_c, 4, 57, 96
6, 403200, Note_off_c, 4, 57, 0
6, 403200, Note_on_c, 4, 55, 96
6, 403456, Note_off_c, 4, 55, 0
6, 403456, Note_on_c, 4, 53, 96
6, 403712, Note_off_c, 4, 53, 0
6, 403712, Note_on_c, 4, 50, 96
6, 403968, Note_off_c, 4, 50, 0
6, 403968, Note_on_c, 4, 53, 96
6, 404224, Note_off_c, 4, 53, 0
6, 404224, Note_on_c, 4, 57, 96
6, 404480, Note_off_c, 4, 57, 0
6, 404480, Note_on_c, 4, 62, 96
6, 406528, Note_off_c, 4, 62, 0
6, 406528, Note_on_c, 4, 60, 96
6, 408576, Note_off_c, 4, 60, 0
6, 408576, Note_on_c, 4, 58, 96
6, 409856, Note_off_c, 4, 58, 0
6, 409856, Note_on_c, 4, 48, 96
6, 410112, Note_off_c, 4, 48, 0
6, 410112, Note_on_c, 4, 52, 96
6, 410368, Note_off_c, 4, 52, 0
6, 410368, Note_on_c, 4, 55, 96
6, 410624, Note_off_c, 4, 55, 0
6, 410624, Note_on_c, 4, 60, 96
6, 410880, Note_off_c, 4, 60, 0
6, 410880, Note_on_c, 4, 53, 96
6, 411136, Note_off_c, 4, 53, 0
6, 411136, Note_on_c, 4, 57, 96
6, 411392, Note_off_c, 4, 57, 0
6, 411392, Note_on_c, 4, 60, 96
6, 411648, Note_off_c, 4, 60, 0
6, 411648, Note_on_c, 4, 62, 96
6, 411904, Note_off_c, 4, 62, 0
6, 411904, Note_on_c, 4, 58, 96
6, 412160, Note_off_c, 4, 58, 0
6, 412160, Note_on_c, 4, 55, 96
6, 412416, Note_off_c, 4, 55, 0
6, 412416, Note_on_c, 4, 58, 96
6, 412672, Note_off_c, 4, 58, 0
6, 412672, Note_on_c, 4, 52, 96
6, 412928, Note_off_c, 4, 52, 0
6, 412928, Note_on_c, 4, 62, 96
6, 413184, Note_off_c, 4, 62, 0
6, 413184, Note_on_c, 4, 60, 96
6, 413440, Note_off_c, 4, 60, 0
6, 413440, Note_on_c, 4, 58, 96
6, 413696, Note_off_c, 4, 58, 0
6, 413696, Note_on_c, 4, 57, 96
6, 414208, Note_off_c, 4, 57, 0
6, 414208, Note_on_c, 4, 53, 96
6, 414720, Note_off_c, 4, 53, 0
6, 414720, Note_on_c, 4, 58, 96
6, 416256, Note_off_c, 4, 58, 0
6, 416256, Note_on_c, 4, 55, 96
6, 416768, Note_off_c, 4, 55, 0
6, 419328, Note_on_c, 4, 48, 96
6, 419840, Note_off_c, 4, 48, 0
6, 419840, Note_on_c, 4, 50, 96
6, 420352, Note_off_c, 4, 50, 0
6, 420352, Note_on_c, 4, 46, 96
6, 420864, Note_off_c, 4, 46, 0
6, 425472, Note_on_c, 4, 50, 96
6, 425984, Note_off_c, 4, 50, 0
6, 425984, Note_on_c, 4, 48, 96
6, 434176, Note_off_c, 4, 48, 0
6, 434176, End_track
7, 0, Start_track
7, 0, Title_t, "Instrument 6"
7, 0, Note_on_c, 5, 41, 96
7, 27136, Note_off_c, 5, 41, 0
7, 27136, Note_on_c, 5, 43, 96
7, 27648, Note_off_c, 5, 43, 0
7, 27648, Note_on_c, 5, 45, 96
7, 28160, Note_off_c, 5, 45, 0
7, 28160, Note_on_c, 5, 46, 96
7, 28672, Note_off_c, 5, 46, 0
7, 28672, Note_on_c, 5, 48, 96
7, 32768, Note_off_c, 5, 48, 0
7, 32768, Note_on_c, 5, 50, 96
7, 34816, Note_off_c, 5, 50, 0
7, 34816, Note_on_c, 5, 48, 96
7, 35840, Note_off_c, 5, 48, 0
7, 35840, Note_on_c, 5, 46, 96
7, 36864, Note_off_c, 5, 46, 0
7, 36864, Note_on_c, 5, 45, 96
7, 37888, Note_off_c, 5, 45, 0
7, 37888, Note_on_c, 5, 46, 96
7, 38912, Note_off_c, 5, 46, 0
7, 38912, Note_on_c, 5, 48, 96
7, 40960, Note_off_c, 5, 48, 0
7, 40960, Note_on_c, 5, 43, 96
7, 45056, Note_off_c, 5, 43, 0
7, 45056, Note_on_c, 5, 45, 96
7, 47104, Note_off_c, 5, 45, 0
7, 47104, Note_on_c, 5, 47, 96
7, 49152, Note_off_c, 5, 47, 0
7, 49152, Note_on_c, 5, 48, 96
7, 55296, Note_off_c, 5, 48, 0
7, 61440, Note_on_c, 5, 48, 96
7, 65536, Note_off_c, 5, 48, 0
7, 65536, Note_on_c, 5, 50, 96
7, 67584, Note_off_c, 5, 50, 0
7, 67584, Note_on_c, 5, 48, 96
7, 69632, Note_off_c, 5, 48, 0
7, 69632, Note_on_c, 5, 43, 96
7, 70656, Note_off_c, 5, 43, 0
7, 70656, Note_on_c, 5, 45, 96
7, 71680, Note_off_c, 5, 45, 0
7, 71680, Note_on_c, 5, 46, 96
7, 73728, Note_off_c, 5, 46, 0
7, 73728, Note_on_c, 5, 45, 96
7, 75776, Note_off_c, 5, 45, 0
7, 75776, Note_on_c, 5, 43, 96
7, 77824, Note_off_c, 5, 43, 0
7, 77824, Note_on_c, 5, 41, 96
7, 86016, Note_off_c, 5, 41, 0
7, 122880, Note_on_c, 5, 41, 96
7, 126976, Note_off_c, 5, 41, 0
7, 126976, Note_on_c, 5, 43, 96
7, 128000, Note_off_c, 5, 43, 0
7, 128000, Note_on_c, 5, 45, 96
7, 129024, Note_off_c, 5, 45, 0
7, 129024, Note_on_c, 5, 46, 96
7, 131072, Note_off_c, 5, 46, 0
7, 131072, Note_on_c, 5, 45, 96
7, 132096, Note_off_c, 5, 45, 0
7, 132096, Note_on_c, 5, 46, 96
7, 133120, Note_off_c, 5, 46, 0
7, 133120, Note_on_c, 5, 48, 96
7, 137216, Note_off_c, 5, 48, 0
7, 137216, Note_on_c, 5, 43, 96
7, 139264, Note_off_c, 5, 43, 0
7, 139264, Note_on_c, 5, 41, 96
7, 140288, Note_off_c, 5, 41, 0
7, 140288, Note_on_c, 5, 40, 96
7, 141312, Note_off_c, 5, 40, 0
7, 141312, Note_on_c, 5, 38, 96
7, 143360, Note_off_c, 5, 38, 0
7, 143360, Note_on_c, 5, 36, 96
7, 151552, Note_off_c, 5, 36, 0
7, 155648, Note_on_c, 5, 36, 96
7, 159744, Note_off_c, 5, 36, 0
7, 159744, Note_on_c, 5, 41, 96
7, 161792, Note_off_c, 5, 41, 0
7, 161792, Note_on_c, 5, 43, 96
7, 163840, Note_off_c, 5, 43, 0
7, 163840, Note_on_c, 5, 45, 96
7, 164864, Note_off_c, 5, 45, 0
7, 164864, Note_on_c, 5, 46, 96
7, 165888, Note_off_c, 5, 46, 0
7, 165888, Note_on_c, 5, 48, 96
7, 169984, Note_off_c, 5, 48, 0
7, 169984, Note_on_c, 5, 46, 96
7, 172032, Note_off_c, 5, 46, 0
7, 172032, Note_on_c, 5, 45, 96
7, 174080, Note_off_c, 5, 45, 0
7, 174080, Note_on_c, 5, 43, 96
7, 176128, Note_off_c, 5, 43, 0
7, 176128, Note_on_c, 5, 45, 96
7, 182272, Note_off_c, 5, 45, 0
7, 210944, Note_on_c, 5, 45, 96
7, 212480, Note_off_c, 5, 45, 0
7, 212480, Note_on_c, 5, 46, 96
7, 212992, Note_off_c, 5, 46, 0
7, 212992, Note_on_c, 5, 48, 96
7, 215040, Note_off_c, 5, 48, 0
7, 215040, Note_on_c, 5, 50, 96
7, 217088, Note_off_c, 5, 50, 0
7, 217088, Note_on_c, 5, 48, 96
7, 219136, Note_off_c, 5, 48, 0
7, 219136, Note_on_c, 5, 43, 96
7, 221184, Note_off_c, 5, 43, 0
7, 221184, Note_on_c, 5, 45, 96
7, 223232, Note_off_c, 5, 45, 0
7, 223232, Note_on_c, 5, 47, 96
7, 225280, Note_off_c, 5, 47, 0
7, 225280, Note_on_c, 5, 48, 96
7, 231424, Note_off_c, 5, 48, 0
7, 237568, Note_on_c, 5, 48, 96
7, 241664, Note_off_c, 5, 48, 0
7, 241664, Note_on_c, 5, 50, 96
7, 243712, Note_off_c, 5, 50, 0
7, 243712, Note_on_c, 5, 48, 96
7, 245760, Note_off_c, 5, 48, 0
7, 245760, Note_on_c, 5, 43, 96
7, 246784, Note_off_c, 5, 43, 0
7, 246784, Note_on_c, 5, 45, 96
7, 247808, Note_off_c, 5, 45, 0
7, 247808, Note_on_c, 5, 46, 96
7, 249856, Note_off_c, 5, 46, 0
7, 249856, Note_on_c, 5, 45, 96
7, 251904, Note_off_c, 5, 45, 0
7, 251904, Note_on_c, 5, 43, 96
7, 253952, Note_off_c, 5, 43, 0
7, 253952, Note_on_c, 5, 41, 96
7, 262144, Note_off_c, 5, 41, 0
7, 299008, Note_on_c, 5, 41, 96
7, 303104, Note_off_c, 5, 41, 0
7, 303104, Note_on_c, 5, 43, 96
7, 304128, Note_off_c, 5, 43, 0
7, 304128, Note_on_c, 5, 45, 96
7, 305152, Note_off_c, 5, 45, 0
7, 305152, Note_on_c, 5, 46, 96
7, 307200, Note_off_c, 5, 46, 0
7, 307200, Note_on_c, 5, 45, 96
7, 308224, Note_off_c, 5, 45, 0
7, 308224, Note_on_c, 5, 46, 96
7, 309248, Note_off_c, 5, 46, 0
7, 309248, Note_on_c, 5, 48, 96
7, 313344, Note_off_c, 5, 48, 0
7, 313344, Note_on_c, 5, 43, 96
7, 315392, Note_off_c, 5, 43, 0
7, 315392, Note_on_c, 5, 41, 96
7, 316416, Note_off_c, 5, 41, 0
7, 316416, Note_on_c, 5, 40, 96
7, 317440, Note_off_c, 5, 40, 0
7, 317440, Note_on_c, 5, 38, 96
7, 319488, Note_off_c, 5, 38, 0
7, 319488, Note_on_c, 5, 36, 96
7, 327680, Note_off_c, 5, 36, 0
7, 331776, Note_on_c, 5, 36, 96
7, 335872, Note_off_c, 5, 36, 0
7, 335872, Note_on_c, 5, 41, 96
7, 337920, Note_off_c, 5, 41, 0
7, 337920, Note_on_c, 5, 43, 96
7, 339968, Note_off_c, 5, 43, 0
7, 339968, Note_on_c, 5, 45, 96
7, 340992, Note_off_c, 5, 45, 0
7, 340992, Note_on_c, 5, 46, 96
7, 342016, Note_off_c, 5, 46, 0
7, 342016, Note_on_c, 5, 48, 96
7, 346112, Note_off_c, 5, 48, 0
7, 346112, Note_on_c, 5, 46, 96
7, 348160, Note_off_c, 5, 46, 0
7, 348160, Note_on_c, 5, 45, 96
7, 350208, Note_off_c, 5, 45, 0
7, 350208, Note_on_c, 5, 43, 96
7, 352256, Note_off_c, 5, 43, 0
7, 352256, Note_on_c, 5, 38, 96
7, 354304, Note_off_c, 5, 38, 0
7, 354304, Note_on_c, 5, 40, 96
7, 356352, Note_off_c, 5, 40, 0
7, 356352, Note_on_c, 5, 41, 96
7, 358400, Note_off_c, 5, 41, 0
7, 358400, Note_on_c, 5, 43, 96
7, 360448, Note_off_c, 5, 43, 0
7, 360448, Note_on_c, 5, 41, 96
7, 362496, Note_off_c, 5, 41, 0
7, 387072, Note_on_c, 5, 43, 96
7, 389120, Note_off_c, 5, 43, 0
7, 389120, Note_on_c, 5, 45, 96
7, 390656, Note_off_c, 5, 45, 0
7, 390656, Note_on_c, 5, 43, 96
7, 391168, Note_off_c, 5, 43, 0
7, 391168, Note_on_c, 5, 41, 96
7, 392704, Note_off_c, 5, 41, 0
7, 392704, Note_on_c, 5, 40, 96
7, 393216, Note_off_c, 5, 40, 0
7, 393216, Note_on_c, 5, 38, 96
7, 399360, Note_off_c, 5, 38, 0
7, 411648, Note_on_c, 5, 43, 96
7, 413696, Note_off_c, 5, 43, 0
7, 413696, Note_on_c, 5, 38, 96
7, 415744, Note_off_c, 5, 38, 0
7, 415744, Note_on_c, 5, 40, 96
7, 417792, Note_off_c, 5, 40, 0
7, 417792, Note_on_c, 5, 41, 96
7, 422912, Note_off_c, 5, 41, 0
7, 423424, Note_on_c, 5, 45, 96
7, 423936, Note_off_c, 5, 45, 0
7, 423936, Note_on_c, 5, 38, 96
7, 424960, Note_off_c, 5, 38, 0
7, 425472, Note_on_c, 5, 43, 96
7, 425984, Note_off_c, 5, 43, 0
7, 425984, Note_on_c, 5, 36, 96
7, 430080, Note_off_c, 5, 36, 0
7, 430080, Note_on_c, 5, 41, 96
7, 434176, Note_off_c, 5, 41, 0
7, 434176, End_track
8, 0, Start_track
8, 0, Title_t, "Instrument 7"
8, 0, Note_on_c, 6, 29, 96
8, 27136, Note_off_c, 6, 29, 0
8, 27136, Note_on_c, 6, 31, 96
8, 27648, Note_off_c, 6, 31, 0
8, 27648, Note_on_c, 6, 33, 96
8, 28160, Note_off_c, 6, 33, 0
8, 28160, Note_on_c, 6, 34, 96
8, 28672, Note_off_c, 6, 34, 0
8, 28672, Note_on_c, 6, 36, 96
8, 32768, Note_off_c, 6, 36, 0
8, 32768, Note_on_c, 6, 38, 96
8, 34816, Note_off_c, 6, 38, 0
8, 34816, Note_on_c, 6, 36, 96
8, 35840, Note_off_c, 6, 36, 0
8, 35840, Note_on_c, 6, 34, 96
8, 36864, Note_off_c, 6, 34, 0
8, 36864, Note_on_c, 6, 33, 96
8, 37888, Note_off_c, 6, 33, 0
8, 37888, Note_on_c, 6, 34, 96
8, 38912, Note_off_c, 6, 34, 0
8, 38912, Note_on_c, 6, 36, 96
8, 40960, Note_off_c, 6, 36, 0
8, 40960, Note_on_c, 6, 31, 96
8, 45056, Note_off_c, 6, 31, 0
8, 45056, Note_on_c, 6, 33, 96
8, 47104, Note_off_c, 6, 33, 0
8, 47104, Note_on_c, 6, 35, 96
8, 49152, Note_off_c, 6, 35, 0
8, 49152, Note_on_c, 6, 36, 96
8, 55296, Note_off_c, 6, 36, 0
8, 61440, Note_on_c, 6, 36, 96
8, 65536, Note_off_c, 6, 36, 0
8, 65536, Note_on_c, 6, 38, 96
8, 67584, Note_off_c, 6, 38, 0
8, 67584, Note_on_c, 6, 36, 96
8, 69632, Note_off_c, 6, 36, 0
8, 69632, Note_on_c, 6, 31, 96
8, 70656, Note_off_c, 6, 31, 0
8, 70656, Note_on_c, 6, 33, 96
8, 71680, Note_off_c, 6, 33, 0
8, 71680, Note_on_c, 6, 34, 96
8, 73728, Note_off_c, 6, 34, 0
8, 73728, Note_on_c, 6, 33, 96
8, 75776, Note_off_c, 6, 33, 0
8, 75776, Note_on_c, 6, 31, 96
8, 77824, Note_off_c, 6, 31, 0
8, 77824, Note_on_c, 6, 29, 96
8, 86016, Note_off_c, 6, 29, 0
8, 122880, Note_on_c, 6, 29, 96
8, 126976, Note_off_c, 6, 29, 0
8, 126976, Note_on_c, 6, 31, 96
8, 128000, Note_off_c, 6, 31, 0
8, 128000, Note_on_c, 6, 33, 96
8, 129024, Note_off_c, 6, 33, 0
8, 129024, Note_on_c, 6, 34, 96
8, 131072, Note_off_c, 6, 34, 0
8, 131072, Note_on_c, 6, 33, 96
8, 132096, Note_off_c, 6, 33, 0
8, 132096, Note_on_c, 6, 34, 96
8, 133120, Note_off_c, 6, 34, 0
8, 133120, Note_on_c, 6, 36, 96
8, 137216, Note_off_c, 6, 36, 0
8, 137216, Note_on_c, 6, 31, 96
8, 139264, Note_off_c, 6, 31, 0
8, 139264, Note_on_c, 6, 29, 96
8, 140288, Note_off_c, 6, 29, 0
8, 140288, Note_on_c, 6, 28, 96
8, 141312, Note_off_c, 6, 28, 0
8, 141312, Note_on_c, 6, 26, 96
8, 143360, Note_off_c, 6, 26, 0
8, 143360, Note_on_c, 6, 24, 96
8, 151552, Note_off_c, 6, 24, 0
8, 155648, Note_on_c, 6, 24, 96
8, 159744, Note_off_c, 6, 24, 0
8, 159744, Note_on_c, 6, 29, 96
8, 161792, Note_off_c, 6, 29, 0
8, 161792, Note_on_c, 6, 31, 96
8, 163840, Note_off_c, 6, 31, 0
8, 163840, Note_on_c, 6, 33, 96
8, 164864, Note_off_c, 6, 33, 0
8, 164864, Note_on_c, 6, 34, 96
8, 165888, Note_off_c, 6, 34, 0
8, 165888, Note_on_c, 6, 36, 96
8, 169984, Note_off_c, 6, 36, 0
8, 169984, Note_on_c, 6, 34, 96
8, 172032, Note_off_c, 6, 34, 0
8, 172032, Note_on_c, 6, 33, 96
8, 174080, Note_off_c, 6, 33, 0
8, 174080, Note_on_c, 6, 31, 96
8, 176128, Note_off_c, 6, 31, 0
8, 176128, Note_on_c, 6, 33, 96
8, 182272, Note_off_c, 6, 33, 0
8, 210944, Note_on_c, 6, 33, 96
8, 212480, Note_off_c, 6, 33, 0
8, 212480, Note_on_c, 6, 34, 96
8, 212992, Note_off_c, 6, 34, 0
8, 212992, Note_on_c, 6, 36, 96
8, 215040, Note_off_c, 6, 36, 0
8, 215040, Note_on_c, 6, 38, 96
8, 217088, Note_off_c, 6, 38, 0
8, 217088, Note_on_c, 6, 36, 96
8, 219136, Note_off_c, 6, 36, 0
8, 219136, Note_on_c, 6, 31, 96
8, 221184, Note_off_c, 6, 31, 0
8, 221184, Note_on_c, 6, 33, 96
8, 223232, Note_off_c, 6, 33, 0
8, 223232, Note_on_c, 6, 35, 96
8, 225280, Note_off_c, 6, 35, 0
8, 225280, Note_on_c, 6, 36, 96
8, 231424, Note_off_c, 6, 36, 0
8, 237568, Note_on_c, 6, 36, 96
8, 241664, Note_off_c, 6, 36, 0
8, 241664, Note_on_c, 6, 38, 96
8, 243712, Note_off_c, 6, 38, 0
8, 243712, Note_on_c, 6, 36, 96
8, 245760, Note_off_c, 6, 36, 0
8, 245760, Note_on_c, 6, 31, 96
8, 246784, Note_off_c, 6, 31, 0
8, 246784, Note_on_c, 6, 33, 96
8, 247808, Note_off_c, 6, 33, 0
8, 247808, Note_on_c, 6, 34, 96
8, 249856, Note_off_c, 6, 34, 0
8, 249856, Note_on_c, 6, 33, 96
8, 251904, Note_off_c, 6, 33, 0
8, 251904, Note_on_c, 6, 31, 96
8, 253952, Note_off_c, 6, 31, 0
8, 253952, Note_on_c, 6, 29, 96
8, 262144, Note_off_c, 6, 29, 0
8, 299008, Note_on_c, 6, 29, 96
8, 303104, Note_off_c, 6, 29, 0
8, 303104, Note_on_c, 6, 31, 96
8, 304128, Note_off_c, 6, 31, 0
8, 304128, Note_on_c, 6, 33, 96
8, 305152, Note_off_c, 6, 33, 0
8, 305152, Note_on_c, 6, 34, 96
8, 307200, Note_off_c, 6, 34, 0
8, 307200, Note_on_c, 6, 33, 96
8, 308224, Note_off_c, 6, 33, 0
8, 308224, Note_on_c, 6, 34, 96
8, 309248, Note_off_c, 6, 34, 0
8, 309248, Note_on_c, 6, 36, 96
8, 313344, Note_off_c, 6, 36, 0
8, 313344, Note_on_c, 6, 31, 96
8, 315392, Note_off_c, 6, 31, 0
8, 315392, Note_on_c, 6, 29, 96
8, 316416, Note_off_c, 6, 29, 0
8, 316416, Note_on_c, 6, 28, 96
8, 317440, Note_off_c, 6, 28, 0
8, 317440, Note_on_c, 6, 26, 96
8, 319488, Note_off_c, 6, 26, 0
8, 319488, Note_on_c, 6, 24, 96
8, 327680, Note_off_c, 6, 24, 0
8, 331776, Note_on_c, 6, 24, 96
8, 335872, Note_off_c, 6, 24, 0
8, 335872, Note_on_c, 6, 29, 96
8, 337920, Note_off_c, 6, 29, 0
8, 337920, Note_on_c, 6, 31, 96
8, 339968, Note_off_c, 6, 31, 0
8, 339968, Note_on_c, 6, 33, 96
8, 340992, Note_off_c, 6, 33, 0
8, 340992, Note_on_c, 6, 34, 96
8, 342016, Note_off_c, 6, 34, 0
8, 342016, Note_on_c, 6, 36, 96
8, 346112, Note_off_c, 6, 36, 0
8, 346112, Note_on_c, 6, 34, 96
8, 348160, Note_off_c, 6, 34, 0
8, 348160, Note_on_c, 6, 33, 96
8, 350208, Note_off_c, 6, 33, 0
8, 350208, Note_on_c, 6, 31, 96
8, 352256, Note_off_c, 6, 31, 0
8, 352256, Note_on_c, 6, 26, 96
8, 354304, Note_off_c, 6, 26, 0
8, 354304, Note_on_c, 6, 28, 96
8, 356352, Note_off_c, 6, 28, 0
8, 356352, Note_on_c, 6, 29, 96
8, 358400, Note_off_c, 6, 29, 0
8, 358400, Note_on_c, 6, 31, 96
8, 360448, Note_off_c, 6, 31, 0
8, 360448, Note_on_c, 6, 29, 96
8, 362496, Note_off_c, 6, 29, 0
8, 387072, Note_on_c, 6, 31, 96
8, 389120, Note_off_c, 6, 31, 0
8, 389120, Note_on_c, 6, 33, 96
8, 390656, Note_off_c, 6, 33, 0
8, 390656, Note_on_c, 6, 31, 96
8, 391168, Note_off_c, 6, 31, 0
8, 391168, Note_on_c, 6, 29, 96
8, 392704, Note_off_c, 6, 29, 0
8, 392704, Note_on_c, 6, 28, 96
8, 393216, Note_off_c, 6, 28, 0
8, 393216, Note_on_c, 6, 26, 96
8, 399360, Note_off_c, 6, 26, 0
8, 411648, Note_on_c, 6, 31, 96
8, 413696, Note_off_c, 6, 31, 0
8, 413696, Note_on_c, 6, 26, 96
8, 415744, Note_off_c, 6, 26, 0
8, 415744, Note_on_c, 6, 28, 96
8, 417792, Note_off_c, 6, 28, 0
8, 417792, Note_on_c, 6, 29, 96
8, 422912, Note_off_c, 6, 29, 0
8, 423424, Note_on_c, 6, 33, 96
8, 423936, Note_off_c, 6, 33, 0
8, 423936, Note_on_c, 6, 26, 96
8, 424960, Note_off_c, 6, 26, 0
8, 425472, Note_on_c, 6, 31, 96
8, 425984, Note_off_c, 6, 31, 0
8, 425984, Note_on_c, 6, 24, 96
8, 430080, Note_off_c, 6, 24, 0
8, 430080, Note_on_c, 6, 29, 96
8, 434176, Note_off_c, 6, 29, 0
8, 434176, End_track
0, 0, End_of_file
