0, 0, Header, 1, 6, 1024
1, 0, Start_track
1, 0, Time_signature, 2, 1, 48, 8
1, 0, Key_signature, -1, "minor"
1, 0, Tempo, 454545
1, 563200, End_track
2, 0, Start_track
2, 0, Title_t, "Instrument 1"
2, 36864, Note_on_c, 0, 69, 96
2, 38912, Note_off_c, 0, 69, 0
2, 38912, Note_on_c, 0, 72, 96
2, 40960, Note_off_c, 0, 72, 0
2, 40960, Note_on_c, 0, 69, 96
2, 43008, Note_off_c, 0, 69, 0
2, 43008, Note_on_c, 0, 69, 96
2, 45056, Note_off_c, 0, 69, 0
2, 45056, Note_on_c, 0, 70, 96
2, 47104, Note_off_c, 0, 70, 0
2, 47104, Note_on_c, 0, 69, 96
2, 49152, Note_off_c, 0, 69, 0
2, 49152, Note_on_c, 0, 67, 96
2, 53248, Note_off_c, 0, 67, 0
2, 53248, Note_on_c, 0, 65, 96
2, 57344, Note_off_c, 0, 65, 0
2, 57344, Note_on_c, 0, 64, 96
2, 60416, Note_off_c, 0, 64, 0
2, 60416, Note_on_c, 0, 64, 96
2, 61440, Note_off_c, 0, 64, 0
2, 61440, Note_on_c, 0, 65, 96
2, 61952, Note_off_c, 0, 65, 0
2, 61952, Note_on_c, 0, 64, 96
2, 62464, Note_off_c, 0, 64, 0
2, 62464, Note_on_c, 0, 62, 96
2, 62976, Note_off_c, 0, 62, 0
2, 62976, Note_on_c, 0, 65, 96
2, 63488, Note_off_c, 0, 65, 0
2, 63488, Note_on_c, 0, 64, 96
2, 64000, Note_off_c, 0, 64, 0
2, 64000, Note_on_c, 0, 62, 96
2, 64512, Note_off_c, 0, 62, 0
2, 64512, Note_on_c, 0, 60, 96
2, 65024, Note_off_c, 0, 60, 0
2, 65024, Note_on_c, 0, 64, 96
2, 65536, Note_off_c, 0, 64, 0
2, 65536, Note_on_c, 0, 62, 96
2, 69632, Note_off_c, 0, 62, 0
2, 69632, Note_on_c, 0, 60, 96
2, 71680, Note_off_c, 0, 60, 0
2, 71680, Note_on_c, 0, 65, 96
2, 75776, Note_off_c, 0, 65, 0
2, 75776, Note_on_c, 0, 64, 96
2, 79872, Note_off_c, 0, 64, 0
2, 79872, Note_on_c, 0, 62, 96
2, 83968, Note_off_c, 0, 62, 0
2, 83968, Note_on_c, 0, 61, 96
2, 86016, Note_off_c, 0, 61, 0
2, 86016, Note_on_c, 0, 62, 96
2, 87040, Note_off_c, 0, 62, 0
2, 118784, Note_on_c, 0, 76, 96
2, 120832, Note_off_c, 0, 76, 0
2, 120832, Note_on_c, 0, 79, 96
2, 122880, Note_off_c, 0, 79, 0
2, 122880, Note_on_c, 0, 76, 96
2, 124928, Note_off_c, 0, 76, 0
2, 124928, Note_on_c, 0, 76, 96
2, 126976, Note_off_c, 0, 76, 0
2, 126976, Note_on_c, 0, 77, 96
2, 129024, Note_off_c, 0, 77, 0
2, 129024, Note_on_c, 0, 76, 96
2, 131072, Note_off_c, 0, 76, 0
2, 131072, Note_on_c, 0, 74, 96
2, 135168, Note_off_c, 0, 74, 0
2, 135168, Note_on_c, 0, 72, 96
2, 141312, Note_off_c, 0, 72, 0
2, 141312, Note_on_c, 0, 70, 96
2, 145408, Note_off_c, 0, 70, 0
2, 145408, Note_on_c, 0, 69, 96
2, 147456, Note_off_c, 0, 69, 0
2, 147456, Note_on_c, 0, 74, 96
2, 149504, Note_off_c, 0, 74, 0
2, 149504, Note_on_c, 0, 76, 96
2, 151552, Note_off_c, 0, 76, 0
2, 151552, Note_on_c, 0, 77, 96
2, 155648, Note_off_c, 0, 77, 0
2, 155648, Note_on_c, 0, 76, 96
2, 159744, Note_off_c, 0, 76, 0
2, 159744, Note_on_c, 0, 74, 96
2, 160256, Note_off_c, 0, 74, 0
2, 160256, Note_on_c, 0, 84, 96
2, 160768, Note_off_c, 0, 84, 0
2, 160768, Note_on_c, 0, 82, 96
2, 161280, Note_off_c, 0, 82, 0
2, 161280, Note_on_c, 0, 81, 96
2, 161792, Note_off_c, 0, 81, 0
2, 161792, Note_on_c, 0, 79, 96
2, 162304, Note_off_c, 0, 79, 0
2, 162304, Note_on_c, 0, 77, 96
2, 162816, Note_off_c, 0, 77, 0
2, 162816, Note_on_c, 0, 76, 96
2, 163328, Note_off_c, 0, 76, 0
2, 163328, Note_on_c, 0, 79, 96
2, 163840, Note_off_c, 0, 79, 0
2, 163840, Note_on_c, 0, 73, 96
2, 165888, Note_off_c, 0, 73, 0
2, 165888, Note_on_c, 0, 74, 96
2, 169984, Note_off_c, 0, 74, 0
2, 169984, Note_on_c, 0, 73, 96
2, 172032, Note_off_c, 0, 73, 0
2, 172032, Note_on_c, 0, 74, 96
2, 174080, Note_off_c, 0, 74, 0
2, 221184, Note_on_c, 0, 72, 96
2, 223232, Note_off_c, 0, 72, 0
2, 223232, Note_on_c, 0, 71, 96
2, 225280, Note_off_c, 0, 71, 0
2, 225280, Note_on_c, 0, 72, 96
2, 227328, Note_off_c, 0, 72, 0
2, 227328, Note_on_c, 0, 67, 96
2, 229376, Note_off_c, 0, 67, 0
2, 229376, Note_on_c, 0, 69, 96
2, 232448, Note_off_c, 0, 69, 0
2, 232448, Note_on_c, 0, 67, 96
2, 233472, Note_off_c, 0, 67, 0
2, 233472, Note_on_c, 0, 65, 96
2, 233984, Note_off_c, 0, 65, 0
2, 233984, Note_on_c, 0, 70, 96
2, 234496, Note_off_c, 0, 70, 0
2, 234496, Note_on_c, 0, 69, 96
2, 235008, Note_off_c, 0, 69, 0
2, 235008, Note_on_c, 0, 67, 96
2, 235520, Note_off_c, 0, 67, 0
2, 235520, Note_on_c, 0, 65, 96
2, 236032, Note_off_c, 0, 65, 0
2, 236032, Note_on_c, 0, 64, 96
2, 236544, Note_off_c, 0, 64, 0
2, 236544, Note_on_c, 0, 62, 96
2, 237056, Note_off_c, 0, 62, 0
2, 237056, Note_on_c, 0, 65, 96
2, 237568, Note_off_c, 0, 65, 0
2, 237568, Note_on_c, 0, 64, 96
2, 238080, Note_off_c, 0, 64, 0
2, 238080, Note_on_c, 0, 69, 96
2, 238592, Note_off_c, 0, 69, 0
2, 238592, Note_on_c, 0, 67, 96
2, 239104, Note_off_c, 0, 67, 0
2, 239104, Note_on_c, 0, 65, 96
2, 239616, Note_off_c, 0, 65, 0
2, 239616, Note_on_c, 0, 64, 96
2, 240128, Note_off_c, 0, 64, 0
2, 240128, Note_on_c, 0, 65, 96
2, 240640, Note_off_c, 0, 65, 0
2, 240640, Note_on_c, 0, 67, 96
2, 241152, Note_off_c, 0, 67, 0
2, 241152, Note_on_c, 0, 64, 96
2, 241664, Note_off_c, 0, 64, 0
2, 241664, Note_on_c, 0, 65, 96
2, 242176, Note_off_c, 0, 65, 0
2, 242176, Note_on_c, 0, 67, 96
2, 242688, Note_off_c, 0, 67, 0
2, 242688, Note_on_c, 0, 69, 96
2, 243200, Note_off_c, 0, 69, 0
2, 243200, Note_on_c, 0, 70, 96
2, 243712, Note_off_c, 0, 70, 0
2, 243712, Note_on_c, 0, 72, 96
2, 244224, Note_off_c, 0, 72, 0
2, 244224, Note_on_c, 0, 74, 96
2, 244736, Note_off_c, 0, 74, 0
2, 244736, Note_on_c, 0, 75, 96
2, 245248, Note_off_c, 0, 75, 0
2, 245248, Note_on_c, 0, 72, 96
2, 245760, Note_off_c, 0, 72, 0
2, 245760, Note_on_c, 0, 74, 96
2, 247808, Note_off_c, 0, 74, 0
2, 247808, Note_on_c, 0, 72, 96
2, 249856, Note_off_c, 0, 72, 0
2, 249856, Note_on_c, 0, 70, 96
2, 254464, Note_off_c, 0, 70, 0
2, 254464, Note_on_c, 0, 74, 96
2, 254976, Note_off_c, 0, 74, 0
2, 254976, Note_on_c, 0, 72, 96
2, 255488, Note_off_c, 0, 72, 0
2, 255488, Note_on_c, 0, 70, 96
2, 256000, Note_off_c, 0, 70, 0
2, 256000, Note_on_c, 0, 69, 96
2, 256512, Note_off_c, 0, 69, 0
2, 256512, Note_on_c, 0, 67, 96
2, 257024, Note_off_c, 0, 67, 0
2, 257024, Note_on_c, 0, 65, 96
2, 257536, Note_off_c, 0, 65, 0
2, 257536, Note_on_c, 0, 69, 96
2, 258048, Note_off_c, 0, 69, 0
2, 258048, Note_on_c, 0, 62, 96
2, 258560, Note_off_c, 0, 62, 0
2, 258560, Note_on_c, 0, 64, 96
2, 259072, Note_off_c, 0, 64, 0
2, 259072, Note_on_c, 0, 65, 96
2, 261120, Note_off_c, 0, 65, 0
2, 261120, Note_on_c, 0, 64, 96
2, 262144, Note_off_c, 0, 64, 0
2, 262144, Note_on_c, 0, 65, 96
2, 265216, Note_off_c, 0, 65, 0
2, 265216, Note_on_c, 0, 64, 96
2, 266752, Note_off_c, 0, 64, 0
2, 266752, Note_on_c, 0, 69, 96
2, 267264, Note_off_c, 0, 69, 0
2, 267264, Note_on_c, 0, 71, 96
2, 267776, Note_off_c, 0, 71, 0
2, 267776, Note_on_c, 0, 73, 96
2, 268288, Note_off_c, 0, 73, 0
2, 268288, Note_on_c, 0, 74, 96
2, 268800, Note_off_c, 0, 74, 0
2, 268800, Note_on_c, 0, 76, 96
2, 269312, Note_off_c, 0, 76, 0
2, 269312, Note_on_c, 0, 77, 96
2, 269824, Note_off_c, 0, 77, 0
2, 269824, Note_on_c, 0, 74, 96
2, 270336, Note_off_c, 0, 74, 0
2, 270336, Note_on_c, 0, 79, 96
2, 276480, Note_off_c, 0, 79, 0
2, 276480, Note_on_c, 0, 77, 96
2, 280576, Note_off_c, 0, 77, 0
2, 280576, Note_on_c, 0, 76, 96
2, 284672, Note_off_c, 0, 76, 0
2, 284672, Note_on_c, 0, 74, 96
2, 288768, Note_off_c, 0, 74, 0
2, 288768, Note_on_c, 0, 73, 96
2, 290816, Note_off_c, 0, 73, 0
2, 290816, Note_on_c, 0, 74, 96
2, 291840, Note_off_c, 0, 74, 0
2, 291840, Note_on_c, 0, 72, 96
2, 292864, Note_off_c, 0, 72, 0
2, 292864, Note_on_c, 0, 70, 96
2, 294912, Note_off_c, 0, 70, 0
2, 294912, Note_on_c, 0, 69, 96
2, 296960, Note_off_c, 0, 69, 0
2, 296960, Note_on_c, 0, 74, 96
2, 301056, Note_off_c, 0, 74, 0
2, 301056, Note_on_c, 0, 73, 96
2, 303104, Note_off_c, 0, 73, 0
2, 303104, Note_on_c, 0, 74, 96
2, 305152, Note_off_c, 0, 74, 0
2, 305152, Note_on_c, 0, 76, 96
2, 307200, Note_off_c, 0, 76, 0
2, 307200, Note_on_c, 0, 77, 96
2, 308224, Note_off_c, 0, 77, 0
2, 308224, Note_on_c, 0, 74, 96
2, 309248, Note_off_c, 0, 74, 0
2, 309248, Note_on_c, 0, 72, 96
2, 310272, Note_off_c, 0, 72, 0
2, 310272, Note_on_c, 0, 81, 96
2, 312320, Note_off_c, 0, 81, 0
2, 312320, Note_on_c, 0, 79, 96
2, 314368, Note_off_c, 0, 79, 0
2, 314368, Note_on_c, 0, 78, 96
2, 315392, Note_off_c, 0, 78, 0
2, 315392, Note_on_c, 0, 79, 96
2, 315904, Note_off_c, 0, 79, 0
2, 315904, Note_on_c, 0, 69, 96
2, 316416, Note_off_c, 0, 69, 0
2, 316416, Note_on_c, 0, 70, 96
2, 316928, Note_off_c, 0, 70, 0
2, 316928, Note_on_c, 0, 72, 96
2, 317440, Note_off_c, 0, 72, 0
2, 317440, Note_on_c, 0, 74, 96
2, 317952, Note_off_c, 0, 74, 0
2, 317952, Note_on_c, 0, 75, 96
2, 318464, Note_off_c, 0, 75, 0
2, 318464, Note_on_c, 0, 77, 96
2, 318976, Note_off_c, 0, 77, 0
2, 318976, Note_on_c, 0, 74, 96
2, 319488, Note_off_c, 0, 74, 0
2, 319488, Note_on_c, 0, 75, 96
2, 321536, Note_off_c, 0, 75, 0
2, 321536, Note_on_c, 0, 74, 96
2, 324096, Note_off_c, 0, 74, 0
2, 324096, Note_on_c, 0, 74, 96
2, 324608, Note_off_c, 0, 74, 0
2, 324608, Note_on_c, 0, 76, 96
2, 325120, Note_off_c, 0, 76, 0
2, 325120, Note_on_c, 0, 78, 96
2, 325632, Note_off_c, 0, 78, 0
2, 325632, Note_on_c, 0, 79, 96
2, 326144, Note_off_c, 0, 79, 0
2, 326144, Note_on_c, 0, 81, 96
2, 326656, Note_off_c, 0, 81, 0
2, 326656, Note_on_c, 0, 82, 96
2, 327168, Note_off_c, 0, 82, 0
2, 327168, Note_on_c, 0, 79, 96
2, 327680, Note_off_c, 0, 79, 0
2, 327680, Note_on_c, 0, 72, 96
2, 332288, Note_off_c, 0, 72, 0
2, 332288, Note_on_c, 0, 70, 96
2, 332800, Note_off_c, 0, 70, 0
2, 332800, Note_on_c, 0, 69, 96
2, 333312, Note_off_c, 0, 69, 0
2, 333312, Note_on_c, 0, 70, 96
2, 333824, Note_off_c, 0, 70, 0
2, 333824, Note_on_c, 0, 72, 96
2, 334336, Note_off_c, 0, 72, 0
2, 334336, Note_on_c, 0, 75, 96
2, 334848, Note_off_c, 0, 75, 0
2, 334848, Note_on_c, 0, 74, 96
2, 335360, Note_off_c, 0, 74, 0
2, 335360, Note_on_c, 0, 72, 96
2, 335872, Note_off_c, 0, 72, 0
2, 335872, Note_on_c, 0, 70, 96
2, 336896, Note_off_c, 0, 70, 0
2, 336896, Note_on_c, 0, 69, 96
2, 337920, Note_off_c, 0, 69, 0
2, 337920, Note_on_c, 0, 67, 96
2, 341504, Note_off_c, 0, 67, 0
2, 341504, Note_on_c, 0, 69, 96
2, 342016, Note_off_c, 0, 69, 0
2, 342016, Note_on_c, 0, 65, 96
2, 343552, Note_off_c, 0, 65, 0
2, 343552, Note_on_c, 0, 67, 96
2, 344064, Note_off_c, 0, 67, 0
2, 344064, Note_on_c, 0, 64, 96
2, 347136, Note_off_c, 0, 64, 0
2, 347136, Note_on_c, 0, 69, 96
2, 348160, Note_off_c, 0, 69, 0
2, 348160, Note_on_c, 0, 62, 96
2, 350720, Note_off_c, 0, 62, 0
2, 350720, Note_on_c, 0, 77, 96
2, 351232, Note_off_c, 0, 77, 0
2, 351232, Note_on_c, 0, 76, 96
2, 351744, Note_off_c, 0, 76, 0
2, 351744, Note_on_c, 0, 74, 96
2, 352256, Note_off_c, 0, 74, 0
2, 352256, Note_on_c, 0, 73, 96
2, 352768, Note_off_c, 0, 73, 0
2, 352768, Note_on_c, 0, 71, 96
2, 353280, Note_off_c, 0, 71, 0
2, 353280, Note_on_c, 0, 69, 96
2, 353792, Note_off_c, 0, 69, 0
2, 353792, Note_on_c, 0, 73, 96
2, 354304, Note_off_c, 0, 73, 0
2, 354304, Note_on_c, 0, 74, 96
2, 358400, Note_off_c, 0, 74, 0
2, 358400, Note_on_c, 0, 73, 96
2, 360448, Note_off_c, 0, 73, 0
2, 360448, Note_on_c, 0, 74, 96
2, 361472, Note_off_c, 0, 74, 0
2, 361472, Note_on_c, 0, 77, 96
2, 363520, Note_off_c, 0, 77, 0
2, 363520, Note_on_c, 0, 76, 96
2, 365568, Note_off_c, 0, 76, 0
2, 365568, Note_on_c, 0, 74, 96
2, 367616, Note_off_c, 0, 74, 0
2, 367616, Note_on_c, 0, 73, 96
2, 368640, Note_off_c, 0, 73, 0
2, 368640, Note_on_c, 0, 74, 96
2, 369664, Note_off_c, 0, 74, 0
2, 369664, Note_on_c, 0, 72, 96
2, 371712, Note_off_c, 0, 72, 0
2, 371712, Note_on_c, 0, 74, 96
2, 372224, Note_off_c, 0, 74, 0
2, 372224, Note_on_c, 0, 72, 96
2, 372736, Note_off_c, 0, 72, 0
2, 372736, Note_on_c, 0, 70, 96
2, 376832, Note_off_c, 0, 70, 0
2, 376832, Note_on_c, 0, 69, 96
2, 378880, Note_off_c, 0, 69, 0
2, 378880, Note_on_c, 0, 74, 96
2, 380928, Note_off_c, 0, 74, 0
2, 380928, Note_on_c, 0, 72, 96
2, 382976, Note_off_c, 0, 72, 0
2, 382976, Note_on_c, 0, 77, 96
2, 385536, Note_off_c, 0, 77, 0
2, 385536, Note_on_c, 0, 77, 96
2, 386048, Note_off_c, 0, 77, 0
2, 386048, Note_on_c, 0, 79, 96
2, 386560, Note_off_c, 0, 79, 0
2, 386560, Note_on_c, 0, 81, 96
2, 387072, Note_off_c, 0, 81, 0
2, 387072, Note_on_c, 0, 79, 96
2, 388096, Note_off_c, 0, 79, 0
2, 388096, Note_on_c, 0, 77, 96
2, 389632, Note_off_c, 0, 77, 0
2, 389632, Note_on_c, 0, 76, 96
2, 390144, Note_off_c, 0, 76, 0
2, 390144, Note_on_c, 0, 78, 96
2, 390656, Note_off_c, 0, 78, 0
2, 390656, Note_on_c, 0, 80, 96
2, 391168, Note_off_c, 0, 80, 0
2, 391168, Note_on_c, 0, 81, 96
2, 391680, Note_off_c, 0, 81, 0
2, 391680, Note_on_c, 0, 83, 96
2, 392192, Note_off_c, 0, 83, 0
2, 392192, Note_on_c, 0, 84, 96
2, 392704, Note_off_c, 0, 84, 0
2, 392704, Note_on_c, 0, 81, 96
2, 393216, Note_off_c, 0, 81, 0
2, 393216, Note_on_c, 0, 74, 96
2, 398336, Note_off_c, 0, 74, 0
2, 398336, Note_on_c, 0, 72, 96
2, 398848, Note_off_c, 0, 72, 0
2, 398848, Note_on_c, 0, 71, 96
2, 399360, Note_off_c, 0, 71, 0
2, 399360, Note_on_c, 0, 72, 96
2, 400384, Note_off_c, 0, 72, 0
2, 400384, Note_on_c, 0, 77, 96
2, 402432, Note_off_c, 0, 77, 0
2, 402432, Note_on_c, 0, 76, 96
2, 402944, Note_off_c, 0, 76, 0
2, 402944, Note_on_c, 0, 74, 96
2, 403456, Note_off_c, 0, 74, 0
2, 403456, Note_on_c, 0, 76, 96
2, 404480, Note_off_c, 0, 76, 0
2, 404480, Note_on_c, 0, 79, 96
2, 406016, Note_off_c, 0, 79, 0
2, 406016, Note_on_c, 0, 82, 96
2, 406528, Note_off_c, 0, 82, 0
2, 406528, Note_on_c, 0, 81, 96
2, 407040, Note_off_c, 0, 81, 0
2, 407040, Note_on_c, 0, 79, 96
2, 407552, Note_off_c, 0, 79, 0
2, 407552, Note_on_c, 0, 77, 96
2, 408064, Note_off_c, 0, 77, 0
2, 408064, Note_on_c, 0, 76, 96
2, 408576, Note_off_c, 0, 76, 0
2, 408576, Note_on_c, 0, 74, 96
2, 409088, Note_off_c, 0, 74, 0
2, 409088, Note_on_c, 0, 77, 96
2, 409600, Note_off_c, 0, 77, 0
2, 409600, Note_on_c, 0, 76, 96
2, 412672, Note_off_c, 0, 76, 0
2, 412672, Note_on_c, 0, 75, 96
2, 413696, Note_off_c, 0, 75, 0
2, 413696, Note_on_c, 0, 74, 96
2, 418304, Note_off_c, 0, 74, 0
2, 418304, Note_on_c, 0, 72, 96
2, 418816, Note_off_c, 0, 72, 0
2, 418816, Note_on_c, 0, 74, 96
2, 419328, Note_off_c, 0, 74, 0
2, 419328, Note_on_c, 0, 76, 96
2, 419840, Note_off_c, 0, 76, 0
2, 419840, Note_on_c, 0, 77, 96
2, 420352, Note_off_c, 0, 77, 0
2, 420352, Note_on_c, 0, 79, 96
2, 420864, Note_off_c, 0, 79, 0
2, 420864, Note_on_c, 0, 81, 96
2, 421376, Note_off_c, 0, 81, 0
2, 421376, Note_on_c, 0, 77, 96
2, 421888, Note_off_c, 0, 77, 0
2, 421888, Note_on_c, 0, 82, 96
2, 423936, Note_off_c, 0, 82, 0
2, 426496, Note_on_c, 0, 74, 96
2, 427008, Note_off_c, 0, 74, 0
2, 427008, Note_on_c, 0, 76, 96
2, 427520, Note_off_c, 0, 76, 0
2, 427520, Note_on_c, 0, 77, 96
2, 428032, Note_off_c, 0, 77, 0
2, 428032, Note_on_c, 0, 79, 96
2, 428544, Note_off_c, 0, 79, 0
2, 428544, Note_on_c, 0, 81, 96
2, 429056, Note_off_c, 0, 81, 0
2, 429056, Note_on_c, 0, 82, 96
2, 429568, Note_off_c, 0, 82, 0
2, 429568, Note_on_c, 0, 79, 96
2, 430080, Note_off_c, 0, 79, 0
2, 430080, Note_on_c, 0, 84, 96
2, 432128, Note_off_c, 0, 84, 0
2, 432128, Note_on_c, 0, 82, 96
2, 434688, Note_off_c, 0, 82, 0
2, 434688, Note_on_c, 0, 81, 96
2, 435200, Note_off_c, 0, 81, 0
2, 435200, Note_on_c, 0, 79, 96
2, 435712, Note_off_c, 0, 79, 0
2, 435712, Note_on_c, 0, 77, 96
2, 436224, Note_off_c, 0, 77, 0
2, 436224, Note_on_c, 0, 76, 96
2, 436736, Note_off_c, 0, 76, 0
2, 436736, Note_on_c, 0, 77, 96
2, 437248, Note_off_c, 0, 77, 0
2, 437248, Note_on_c, 0, 79, 96
2, 437760, Note_off_c, 0, 79, 0
2, 437760, Note_on_c, 0, 76, 96
2, 438272, Note_off_c, 0, 76, 0
2, 438272, Note_on_c, 0, 77, 96
2, 444416, Note_off_c, 0, 77, 0
2, 444416, Note_on_c, 0, 76, 96
2, 448512, Note_off_c, 0, 76, 0
2, 448512, Note_on_c, 0, 74, 96
2, 452608, Note_off_c, 0, 74, 0
2, 452608, Note_on_c, 0, 72, 96
2, 456704, Note_off_c, 0, 72, 0
2, 456704, Note_on_c, 0, 71, 96
2, 458752, Note_off_c, 0, 71, 0
2, 458752, Note_on_c, 0, 72, 96
2, 461312, Note_off_c, 0, 72, 0
2, 461312, Note_on_c, 0, 74, 96
2, 461824, Note_off_c, 0, 74, 0
2, 461824, Note_on_c, 0, 72, 96
2, 462336, Note_off_c, 0, 72, 0
2, 462336, Note_on_c, 0, 71, 96
2, 462848, Note_off_c, 0, 71, 0
2, 462848, Note_on_c, 0, 69, 96
2, 463360, Note_off_c, 0, 69, 0
2, 463360, Note_on_c, 0, 71, 96
2, 463872, Note_off_c, 0, 71, 0
2, 463872, Note_on_c, 0, 72, 96
2, 464384, Note_off_c, 0, 72, 0
2, 464384, Note_on_c, 0, 69, 96
2, 464896, Note_off_c, 0, 69, 0
2, 464896, Note_on_c, 0, 74, 96
2, 471040, Note_off_c, 0, 74, 0
2, 471040, Note_on_c, 0, 72, 96
2, 473088, Note_off_c, 0, 72, 0
2, 477696, Note_on_c, 0, 72, 96
2, 478208, Note_off_c, 0, 72, 0
2, 478208, Note_on_c, 0, 74, 96
2, 478720, Note_off_c, 0, 74, 0
2, 478720, Note_on_c, 0, 76, 96
2, 479232, Note_off_c, 0, 76, 0
2, 479232, Note_on_c, 0, 77, 96
2, 479744, Note_off_c, 0, 77, 0
2, 479744, Note_on_c, 0, 76, 96
2, 480256, Note_off_c, 0, 76, 0
2, 480256, Note_on_c, 0, 74, 96
2, 480768, Note_off_c, 0, 74, 0
2, 480768, Note_on_c, 0, 77, 96
2, 481280, Note_off_c, 0, 77, 0
2, 481280, Note_on_c, 0, 71, 96
2, 481792, Note_off_c, 0, 71, 0
2, 481792, Note_on_c, 0, 72, 96
2, 482304, Note_off_c, 0, 72, 0
2, 482304, Note_on_c, 0, 74, 96
2, 484352, Note_off_c, 0, 74, 0
2, 484352, Note_on_c, 0, 72, 96
2, 484864, Note_off_c, 0, 72, 0
2, 484864, Note_on_c, 0, 71, 96
2, 485376, Note_off_c, 0, 71, 0
2, 485376, Note_on_c, 0, 72, 96
2, 492544, Note_off_c, 0, 72, 0
2, 492544, Note_on_c, 0, 70, 96
2, 493568, Note_off_c, 0, 70, 0
2, 493568, Note_on_c, 0, 69, 96
2, 494592, Note_off_c, 0, 69, 0
2, 494592, Note_on_c, 0, 74, 96
2, 495616, Note_off_c, 0, 74, 0
2, 495616, Note_on_c, 0, 70, 96
2, 496128, Note_off_c, 0, 70, 0
2, 496128, Note_on_c, 0, 72, 96
2, 496640, Note_off_c, 0, 72, 0
2, 496640, Note_on_c, 0, 74, 96
2, 497152, Note_off_c, 0, 74, 0
2, 497152, Note_on_c, 0, 76, 96
2, 497664, Note_off_c, 0, 76, 0
2, 497664, Note_on_c, 0, 78, 96
2, 498176, Note_off_c, 0, 78, 0
2, 498176, Note_on_c, 0, 79, 96
2, 498688, Note_off_c, 0, 79, 0
2, 498688, Note_on_c, 0, 81, 96
2, 499200, Note_off_c, 0, 81, 0
2, 499200, Note_on_c, 0, 78, 96
2, 499712, Note_off_c, 0, 78, 0
2, 499712, Note_on_c, 0, 82, 96
2, 502784, Note_off_c, 0, 82, 0
2, 502784, Note_on_c, 0, 81, 96
2, 504832, Note_off_c, 0, 81, 0
2, 504832, Note_on_c, 0, 79, 96
2, 506880, Note_off_c, 0, 79, 0
2, 506880, Note_on_c, 0, 78, 96
2, 507904, Note_off_c, 0, 78, 0
2, 507904, Note_on_c, 0, 79, 96
2, 513024, Note_off_c, 0, 79, 0
2, 513024, Note_on_c, 0, 77, 96
2, 513536, Note_off_c, 0, 77, 0
2, 513536, Note_on_c, 0, 76, 96
2, 514048, Note_off_c, 0, 76, 0
2, 514048, Note_on_c, 0, 77, 96
2, 515072, Note_off_c, 0, 77, 0
2, 515072, Note_on_c, 0, 79, 96
2, 516096, Note_off_c, 0, 79, 0
2, 516096, Note_on_c, 0, 81, 96
2, 520192, Note_off_c, 0, 81, 0
2, 520192, Note_on_c, 0, 82, 96
2, 521216, Note_off_c, 0, 82, 0
2, 521216, Note_on_c, 0, 81, 96
2, 522240, Note_off_c, 0, 81, 0
2, 522240, Note_on_c, 0, 79, 96
2, 524800, Note_off_c, 0, 79, 0
2, 524800, Note_on_c, 0, 81, 96
2, 525312, Note_off_c, 0, 81, 0
2, 525312, Note_on_c, 0, 79, 96
2, 525824, Note_off_c, 0, 79, 0
2, 525824, Note_on_c, 0, 77, 96
2, 526336, Note_off_c, 0, 77, 0
2, 526336, Note_on_c, 0, 76, 96
2, 526848, Note_off_c, 0, 76, 0
2, 526848, Note_on_c, 0, 78, 96
2, 527360, Note_off_c, 0, 78, 0
2, 527360, Note_on_c, 0, 79, 96
2, 527872, Note_off_c, 0, 79, 0
2, 527872, Note_on_c, 0, 76, 96
2, 528384, Note_off_c, 0, 76, 0
2, 528384, Note_on_c, 0, 78, 96
2, 530432, Note_off_c, 0, 78, 0
2, 530432, Note_on_c, 0, 79, 96
2, 532480, Note_off_c, 0, 79, 0
2, 532480, Note_on_c, 0, 81, 96
2, 534528, Note_off_c, 0, 81, 0
2, 534528, Note_on_c, 0, 74, 96
2, 537600, Note_off_c, 0, 74, 0
2, 537600, Note_on_c, 0, 72, 96
2, 538624, Note_off_c, 0, 72, 0
2, 538624, Note_on_c, 0, 70, 96
2, 541184, Note_off_c, 0, 70, 0
2, 541184, Note_on_c, 0, 69, 96
2, 541696, Note_off_c, 0, 69, 0
2, 541696, Note_on_c, 0, 67, 96
2, 542208, Note_off_c, 0, 67, 0
2, 542208, Note_on_c, 0, 65, 96
2, 542720, Note_off_c, 0, 65, 0
2, 542720, Note_on_c, 0, 64, 96
2, 543232, Note_off_c, 0, 64, 0
2, 543232, Note_on_c, 0, 65, 96
2, 543744, Note_off_c, 0, 65, 0
2, 543744, Note_on_c, 0, 67, 96
2, 544256, Note_off_c, 0, 67, 0
2, 544256, Note_on_c, 0, 64, 96
2, 544768, Note_off_c, 0, 64, 0
2, 544768, Note_on_c, 0, 67, 96
2, 545280, Note_off_c, 0, 67, 0
2, 545280, Note_on_c, 0, 65, 96
2, 545792, Note_off_c, 0, 65, 0
2, 545792, Note_on_c, 0, 64, 96
2, 546304, Note_off_c, 0, 64, 0
2, 546304, Note_on_c, 0, 62, 96
2, 546816, Note_off_c, 0, 62, 0
2, 546816, Note_on_c, 0, 74, 96
2, 550912, Note_off_c, 0, 74, 0
2, 550912, Note_on_c, 0, 73, 96
2, 552960, Note_off_c, 0, 73, 0
2, 552960, Note_on_c, 0, 74, 96
2, 563200, Note_off_c, 0, 74, 0
2, 563200, End_track
3, 0, Start_track
3, 0, Title_t, "Instrument 2"
3, 4608, Note_on_c, 1, 60, 96
3, 5120, Note_off_c, 1, 60, 0
3, 5120, Note_on_c, 1, 62, 96
3, 5632, Note_off_c, 1, 62, 0
3, 5632, Note_on_c, 1, 64, 96
3, 6144, Note_off_c, 1, 64, 0
3, 6144, Note_on_c, 1, 65, 96
3, 6656, Note_off_c, 1, 65, 0
3, 6656, Note_on_c, 1, 67, 96
3, 7168, Note_off_c, 1, 67, 0
3, 7168, Note_on_c, 1, 69, 96
3, 7680, Note_off_c, 1, 69, 0
3, 7680, Note_on_c, 1, 65, 96
3, 8192, Note_off_c, 1, 65, 0
3, 8192, Note_on_c, 1, 62, 96
3, 9216, Note_off_c, 1, 62, 0
3, 9216, Note_on_c, 1, 67, 96
3, 10240, Note_off_c, 1, 67, 0
3, 10240, Note_on_c, 1, 60, 96
3, 11264, Note_off_c, 1, 60, 0
3, 11264, Note_on_c, 1, 65, 96
3, 13312, Note_off_c, 1, 65, 0
3, 13312, Note_on_c, 1, 64, 96
3, 13824, Note_off_c, 1, 64, 0
3, 13824, Note_on_c, 1, 62, 96
3, 14336, Note_off_c, 1, 62, 0
3, 14336, Note_on_c, 1, 64, 96
3, 17408, Note_off_c, 1, 64, 0
3, 17408, Note_on_c, 1, 57, 96
3, 18432, Note_off_c, 1, 57, 0
3, 18432, Note_on_c, 1, 62, 96
3, 22528, Note_off_c, 1, 62, 0
3, 22528, Note_on_c, 1, 60, 96
3, 25600, Note_off_c, 1, 60, 0
3, 25600, Note_on_c, 1, 58, 96
3, 26112, Note_off_c, 1, 58, 0
3, 26112, Note_on_c, 1, 57, 96
3, 26624, Note_off_c, 1, 57, 0
3, 26624, Note_on_c, 1, 58, 96
3, 27648, Note_off_c, 1, 58, 0
3, 27648, Note_on_c, 1, 60, 96
3, 28160, Note_off_c, 1, 60, 0
3, 28160, Note_on_c, 1, 58, 96
3, 28672, Note_off_c, 1, 58, 0
3, 28672, Note_on_c, 1, 57, 96
3, 30720, Note_off_c, 1, 57, 0
3, 30720, Note_on_c, 1, 62, 96
3, 33792, Note_off_c, 1, 62, 0
3, 33792, Note_on_c, 1, 61, 96
3, 34304, Note_off_c, 1, 61, 0
3, 34304, Note_on_c, 1, 59, 96
3, 34816, Note_off_c, 1, 59, 0
3, 34816, Note_on_c, 1, 61, 96
3, 35840, Note_off_c, 1, 61, 0
3, 35840, Note_on_c, 1, 62, 96
3, 36352, Note_off_c, 1, 62, 0
3, 36352, Note_on_c, 1, 64, 96
3, 36864, Note_off_c, 1, 64, 0
3, 36864, Note_on_c, 1, 65, 96
3, 38912, Note_off_c, 1, 65, 0
3, 38912, Note_on_c, 1, 64, 96
3, 41984, Note_off_c, 1, 64, 0
3, 41984, Note_on_c, 1, 62, 96
3, 42496, Note_off_c, 1, 62, 0
3, 42496, Note_on_c, 1, 64, 96
3, 43008, Note_off_c, 1, 64, 0
3, 43008, Note_on_c, 1, 65, 96
3, 44032, Note_off_c, 1, 65, 0
3, 44032, Note_on_c, 1, 62, 96
3, 46080, Note_off_c, 1, 62, 0
3, 46080, Note_on_c, 1, 67, 96
3, 47104, Note_off_c, 1, 67, 0
3, 47104, Note_on_c, 1, 60, 96
3, 48128, Note_off_c, 1, 60, 0
3, 48128, Note_on_c, 1, 65, 96
3, 50176, Note_off_c, 1, 65, 0
3, 50176, Note_on_c, 1, 64, 96
3, 50688, Note_off_c, 1, 64, 0
3, 50688, Note_on_c, 1, 62, 96
3, 51200, Note_off_c, 1, 62, 0
3, 51200, Note_on_c, 1, 64, 96
3, 55296, Note_off_c, 1, 64, 0
3, 55296, Note_on_c, 1, 62, 96
3, 57856, Note_off_c, 1, 62, 0
3, 57856, Note_on_c, 1, 62, 96
3, 58368, Note_off_c, 1, 62, 0
3, 58368, Note_on_c, 1, 60, 96
3, 58880, Note_off_c, 1, 60, 0
3, 58880, Note_on_c, 1, 59, 96
3, 59392, Note_off_c, 1, 59, 0
3, 59392, Note_on_c, 1, 60, 96
3, 62464, Note_off_c, 1, 60, 0
3, 62464, Note_on_c, 1, 59, 96
3, 64512, Note_off_c, 1, 59, 0
3, 64512, Note_on_c, 1, 57, 96
3, 66048, Note_off_c, 1, 57, 0
3, 66048, Note_on_c, 1, 60, 96
3, 66560, Note_off_c, 1, 60, 0
3, 66560, Note_on_c, 1, 59, 96
3, 67072, Note_off_c, 1, 59, 0
3, 67072, Note_on_c, 1, 57, 96
3, 67584, Note_off_c, 1, 57, 0
3, 67584, Note_on_c, 1, 56, 96
3, 68096, Note_off_c, 1, 56, 0
3, 68096, Note_on_c, 1, 57, 96
3, 68608, Note_off_c, 1, 57, 0
3, 68608, Note_on_c, 1, 59, 96
3, 70656, Note_off_c, 1, 59, 0
3, 70656, Note_on_c, 1, 57, 96
3, 72704, Note_off_c, 1, 57, 0
3, 72704, Note_on_c, 1, 62, 96
3, 73728, Note_off_c, 1, 62, 0
3, 73728, Note_on_c, 1, 58, 96
3, 74752, Note_off_c, 1, 58, 0
3, 74752, Note_on_c, 1, 55, 96
3, 76800, Note_off_c, 1, 55, 0
3, 76800, Note_on_c, 1, 60, 96
3, 77824, Note_off_c, 1, 60, 0
3, 77824, Note_on_c, 1, 57, 96
3, 78848, Note_off_c, 1, 57, 0
3, 78848, Note_on_c, 1, 53, 96
3, 80896, Note_off_c, 1, 53, 0
3, 80896, Note_on_c, 1, 58, 96
3, 81920, Note_off_c, 1, 58, 0
3, 81920, Note_on_c, 1, 55, 96
3, 82944, Note_off_c, 1, 55, 0
3, 82944, Note_on_c, 1, 52, 96
3, 84992, Note_off_c, 1, 52, 0
3, 84992, Note_on_c, 1, 57, 96
3, 86016, Note_off_c, 1, 57, 0
3, 86016, Note_on_c, 1, 53, 96
3, 86528, Note_off_c, 1, 53, 0
3, 86528, Note_on_c, 1, 52, 96
3, 87040, Note_off_c, 1, 52, 0
3, 87040, Note_on_c, 1, 53, 96
3, 87552, Note_off_c, 1, 53, 0
3, 87552, Note_on_c, 1, 55, 96
3, 88064, Note_off_c, 1, 55, 0
3, 88064, Note_on_c, 1, 57, 96
3, 88576, Note_off_c, 1, 57, 0
3, 88576, Note_on_c, 1, 59, 96
3, 89088, Note_off_c, 1, 59, 0
3, 89088, Note_on_c, 1, 60, 96
3, 89600, Note_off_c, 1, 60, 0
3, 89600, Note_on_c, 1, 57, 96
3, 90112, Note_off_c, 1, 57, 0
3, 90112, Note_on_c, 1, 62, 96
3, 94720, Note_off_c, 1, 62, 0
3, 94720, Note_on_c, 1, 60, 96
3, 95232, Note_off_c, 1, 60, 0
3, 95232, Note_on_c, 1, 62, 96
3, 95744, Note_off_c, 1, 62, 0
3, 95744, Note_on_c, 1, 64, 96
3, 96256, Note_off_c, 1, 64, 0
3, 96256, Note_on_c, 1, 65, 96
3, 96768, Note_off_c, 1, 65, 0
3, 96768, Note_on_c, 1, 67, 96
3, 97280, Note_off_c, 1, 67, 0
3, 97280, Note_on_c, 1, 69, 96
3, 97792, Note_off_c, 1, 69, 0
3, 97792, Note_on_c, 1, 65, 96
3, 98304, Note_off_c, 1, 65, 0
3, 98304, Note_on_c, 1, 70, 96
3, 102912, Note_off_c, 1, 70, 0
3, 102912, Note_on_c, 1, 67, 96
3, 103424, Note_off_c, 1, 67, 0
3, 103424, Note_on_c, 1, 69, 96
3, 103936, Note_off_c, 1, 69, 0
3, 103936, Note_on_c, 1, 70, 96
3, 104448, Note_off_c, 1, 70, 0
3, 104448, Note_on_c, 1, 72, 96
3, 104960, Note_off_c, 1, 72, 0
3, 104960, Note_on_c, 1, 74, 96
3, 105472, Note_off_c, 1, 74, 0
3, 105472, Note_on_c, 1, 76, 96
3, 105984, Note_off_c, 1, 76, 0
3, 105984, Note_on_c, 1, 72, 96
3, 106496, Note_off_c, 1, 72, 0
3, 106496, Note_on_c, 1, 77, 96
3, 107008, Note_off_c, 1, 77, 0
3, 107008, Note_on_c, 1, 76, 96
3, 107520, Note_off_c, 1, 76, 0
3, 107520, Note_on_c, 1, 74, 96
3, 108032, Note_off_c, 1, 74, 0
3, 108032, Note_on_c, 1, 72, 96
3, 108544, Note_off_c, 1, 72, 0
3, 108544, Note_on_c, 1, 71, 96
3, 109056, Note_off_c, 1, 71, 0
3, 109056, Note_on_c, 1, 69, 96
3, 109568, Note_off_c, 1, 69, 0
3, 109568, Note_on_c, 1, 68, 96
3, 110080, Note_off_c, 1, 68, 0
3, 110080, Note_on_c, 1, 71, 96
3, 110592, Note_off_c, 1, 71, 0
3, 110592, Note_on_c, 1, 64, 96
3, 111616, Note_off_c, 1, 64, 0
3, 111616, Note_on_c, 1, 66, 96
3, 112128, Note_off_c, 1, 66, 0
3, 112128, Note_on_c, 1, 68, 96
3, 112640, Note_off_c, 1, 68, 0
3, 112640, Note_on_c, 1, 69, 96
3, 115712, Note_off_c, 1, 69, 0
3, 115712, Note_on_c, 1, 71, 96
3, 116224, Note_off_c, 1, 71, 0
3, 116224, Note_on_c, 1, 69, 96
3, 116736, Note_off_c, 1, 69, 0
3, 116736, Note_on_c, 1, 68, 96
3, 117760, Note_off_c, 1, 68, 0
3, 117760, Note_on_c, 1, 71, 96
3, 118784, Note_off_c, 1, 71, 0
3, 118784, Note_on_c, 1, 64, 96
3, 119808, Note_off_c, 1, 64, 0
3, 119808, Note_on_c, 1, 69, 96
3, 120832, Note_off_c, 1, 69, 0
3, 120832, Note_on_c, 1, 67, 96
3, 121856, Note_off_c, 1, 67, 0
3, 121856, Note_on_c, 1, 71, 96
3, 122880, Note_off_c, 1, 71, 0
3, 122880, Note_on_c, 1, 72, 96
3, 125952, Note_off_c, 1, 72, 0
3, 125952, Note_on_c, 1, 71, 96
3, 126976, Note_off_c, 1, 71, 0
3, 126976, Note_on_c, 1, 72, 96
3, 127488, Note_off_c, 1, 72, 0
3, 127488, Note_on_c, 1, 76, 96
3, 128000, Note_off_c, 1, 76, 0
3, 128000, Note_on_c, 1, 74, 96
3, 128512, Note_off_c, 1, 74, 0
3, 128512, Note_on_c, 1, 72, 96
3, 129024, Note_off_c, 1, 72, 0
3, 129024, Note_on_c, 1, 71, 96
3, 129536, Note_off_c, 1, 71, 0
3, 129536, Note_on_c, 1, 74, 96
3, 130048, Note_off_c, 1, 74, 0
3, 130048, Note_on_c, 1, 72, 96
3, 130560, Note_off_c, 1, 72, 0
3, 130560, Note_on_c, 1, 71, 96
3, 131072, Note_off_c, 1, 71, 0
3, 131072, Note_on_c, 1, 69, 96
3, 132096, Note_off_c, 1, 69, 0
3, 132096, Note_on_c, 1, 68, 96
3, 132608, Note_off_c, 1, 68, 0
3, 132608, Note_on_c, 1, 66, 96
3, 133120, Note_off_c, 1, 66, 0
3, 133120, Note_on_c, 1, 68, 96
3, 133632, Note_off_c, 1, 68, 0
3, 133632, Note_on_c, 1, 69, 96
3, 134144, Note_off_c, 1, 69, 0
3, 134144, Note_on_c, 1, 71, 96
3, 136192, Note_off_c, 1, 71, 0
3, 136192, Note_on_c, 1, 69, 96
3, 136704, Note_off_c, 1, 69, 0
3, 136704, Note_on_c, 1, 68, 96
3, 137216, Note_off_c, 1, 68, 0
3, 137216, Note_on_c, 1, 69, 96
3, 141312, Note_off_c, 1, 69, 0
3, 141312, Note_on_c, 1, 67, 96
3, 145408, Note_off_c, 1, 67, 0
3, 145408, Note_on_c, 1, 65, 96
3, 147968, Note_off_c, 1, 65, 0
3, 147968, Note_on_c, 1, 72, 96
3, 148480, Note_off_c, 1, 72, 0
3, 148480, Note_on_c, 1, 70, 96
3, 148992, Note_off_c, 1, 70, 0
3, 148992, Note_on_c, 1, 69, 96
3, 149504, Note_off_c, 1, 69, 0
3, 149504, Note_on_c, 1, 67, 96
3, 150016, Note_off_c, 1, 67, 0
3, 150016, Note_on_c, 1, 65, 96
3, 150528, Note_off_c, 1, 65, 0
3, 150528, Note_on_c, 1, 64, 96
3, 151040, Note_off_c, 1, 64, 0
3, 151040, Note_on_c, 1, 67, 96
3, 151552, Note_off_c, 1, 67, 0
3, 151552, Note_on_c, 1, 69, 96
3, 153600, Note_off_c, 1, 69, 0
3, 153600, Note_on_c, 1, 74, 96
3, 157696, Note_off_c, 1, 74, 0
3, 157696, Note_on_c, 1, 72, 96
3, 161792, Note_off_c, 1, 72, 0
3, 161792, Note_on_c, 1, 70, 96
3, 163840, Note_off_c, 1, 70, 0
3, 163840, Note_on_c, 1, 69, 96
3, 165888, Note_off_c, 1, 69, 0
3, 165888, Note_on_c, 1, 69, 96
3, 167936, Note_off_c, 1, 69, 0
3, 167936, Note_on_c, 1, 69, 96
3, 172032, Note_off_c, 1, 69, 0
3, 172032, Note_on_c, 1, 69, 96
3, 174080, Note_off_c, 1, 69, 0
3, 180736, Note_on_c, 1, 70, 96
3, 181248, Note_off_c, 1, 70, 0
3, 181248, Note_on_c, 1, 69, 96
3, 181760, Note_off_c, 1, 69, 0
3, 181760, Note_on_c, 1, 67, 96
3, 182272, Note_off_c, 1, 67, 0
3, 182272, Note_on_c, 1, 65, 96
3, 182784, Note_off_c, 1, 65, 0
3, 182784, Note_on_c, 1, 64, 96
3, 183296, Note_off_c, 1, 64, 0
3, 183296, Note_on_c, 1, 62, 96
3, 183808, Note_off_c, 1, 62, 0
3, 183808, Note_on_c, 1, 65, 96
3, 184320, Note_off_c, 1, 65, 0
3, 184320, Note_on_c, 1, 59, 96
3, 185344, Note_off_c, 1, 59, 0
3, 185344, Note_on_c, 1, 67, 96
3, 186368, Note_off_c, 1, 67, 0
3, 186368, Note_on_c, 1, 61, 96
3, 187392, Note_off_c, 1, 61, 0
3, 187392, Note_on_c, 1, 67, 96
3, 188416, Note_off_c, 1, 67, 0
3, 188416, Note_on_c, 1, 66, 96
3, 188928, Note_off_c, 1, 66, 0
3, 188928, Note_on_c, 1, 62, 96
3, 189440, Note_off_c, 1, 62, 0
3, 189440, Note_on_c, 1, 64, 96
3, 189952, Note_off_c, 1, 64, 0
3, 189952, Note_on_c, 1, 66, 96
3, 190464, Note_off_c, 1, 66, 0
3, 190464, Note_on_c, 1, 67, 96
3, 194560, Note_off_c, 1, 67, 0
3, 194560, Note_on_c, 1, 66, 96
3, 196608, Note_off_c, 1, 66, 0
3, 196608, Note_on_c, 1, 67, 96
3, 199680, Note_off_c, 1, 67, 0
3, 199680, Note_on_c, 1, 65, 96
3, 201728, Note_off_c, 1, 65, 0
3, 201728, Note_on_c, 1, 64, 96
3, 202752, Note_off_c, 1, 64, 0
3, 202752, Note_on_c, 1, 62, 96
3, 203776, Note_off_c, 1, 62, 0
3, 203776, Note_on_c, 1, 67, 96
3, 204800, Note_off_c, 1, 67, 0
3, 204800, Note_on_c, 1, 64, 96
3, 206848, Note_off_c, 1, 64, 0
3, 206848, Note_on_c, 1, 69, 96
3, 210944, Note_off_c, 1, 69, 0
3, 210944, Note_on_c, 1, 68, 96
3, 211968, Note_off_c, 1, 68, 0
3, 211968, Note_on_c, 1, 71, 96
3, 212992, Note_off_c, 1, 71, 0
3, 212992, Note_on_c, 1, 70, 96
3, 213504, Note_off_c, 1, 70, 0
3, 213504, Note_on_c, 1, 64, 96
3, 214016, Note_off_c, 1, 64, 0
3, 214016, Note_on_c, 1, 66, 96
3, 214528, Note_off_c, 1, 66, 0
3, 214528, Note_on_c, 1, 68, 96
3, 215040, Note_off_c, 1, 68, 0
3, 215040, Note_on_c, 1, 69, 96
3, 215552, Note_off_c, 1, 69, 0
3, 215552, Note_on_c, 1, 71, 96
3, 216064, Note_off_c, 1, 71, 0
3, 216064, Note_on_c, 1, 72, 96
3, 216576, Note_off_c, 1, 72, 0
3, 216576, Note_on_c, 1, 69, 96
3, 217088, Note_off_c, 1, 69, 0
3, 217088, Note_on_c, 1, 74, 96
3, 221184, Note_off_c, 1, 74, 0
3, 221184, Note_on_c, 1, 64, 96
3, 223232, Note_off_c, 1, 64, 0
3, 223232, Note_on_c, 1, 67, 96
3, 225280, Note_off_c, 1, 67, 0
3, 225280, Note_on_c, 1, 64, 96
3, 227328, Note_off_c, 1, 64, 0
3, 227328, Note_on_c, 1, 64, 96
3, 229376, Note_off_c, 1, 64, 0
3, 229376, Note_on_c, 1, 65, 96
3, 231424, Note_off_c, 1, 65, 0
3, 231424, Note_on_c, 1, 64, 96
3, 233472, Note_off_c, 1, 64, 0
3, 233472, Note_on_c, 1, 62, 96
3, 237568, Note_off_c, 1, 62, 0
3, 237568, Note_on_c, 1, 60, 96
3, 242688, Note_off_c, 1, 60, 0
3, 246784, Note_on_c, 1, 70, 96
3, 248832, Note_off_c, 1, 70, 0
3, 248832, Note_on_c, 1, 69, 96
3, 250368, Note_off_c, 1, 69, 0
3, 250368, Note_on_c, 1, 67, 96
3, 250880, Note_off_c, 1, 67, 0
3, 250880, Note_on_c, 1, 65, 96
3, 251392, Note_off_c, 1, 65, 0
3, 251392, Note_on_c, 1, 64, 96
3, 251904, Note_off_c, 1, 64, 0
3, 251904, Note_on_c, 1, 62, 96
3, 252416, Note_off_c, 1, 62, 0
3, 252416, Note_on_c, 1, 60, 96
3, 252928, Note_off_c, 1, 60, 0
3, 252928, Note_on_c, 1, 58, 96
3, 253440, Note_off_c, 1, 58, 0
3, 253440, Note_on_c, 1, 62, 96
3, 253952, Note_off_c, 1, 62, 0
3, 253952, Note_on_c, 1, 55, 96
3, 256000, Note_off_c, 1, 55, 0
3, 257024, Note_on_c, 1, 60, 96
3, 259072, Note_off_c, 1, 60, 0
3, 259072, Note_on_c, 1, 58, 96
3, 259584, Note_off_c, 1, 58, 0
3, 259584, Note_on_c, 1, 57, 96
3, 260096, Note_off_c, 1, 57, 0
3, 260096, Note_on_c, 1, 55, 96
3, 260608, Note_off_c, 1, 55, 0
3, 260608, Note_on_c, 1, 57, 96
3, 261120, Note_off_c, 1, 57, 0
3, 261120, Note_on_c, 1, 58, 96
3, 261632, Note_off_c, 1, 58, 0
3, 261632, Note_on_c, 1, 55, 96
3, 262144, Note_off_c, 1, 55, 0
3, 262144, Note_on_c, 1, 57, 96
3, 263168, Note_off_c, 1, 57, 0
3, 263168, Note_on_c, 1, 62, 96
3, 264192, Note_off_c, 1, 62, 0
3, 264192, Note_on_c, 1, 55, 96
3, 265216, Note_off_c, 1, 55, 0
3, 265216, Note_on_c, 1, 60, 96
3, 266240, Note_off_c, 1, 60, 0
3, 266240, Note_on_c, 1, 53, 96
3, 268288, Note_off_c, 1, 53, 0
3, 274944, Note_on_c, 1, 64, 96
3, 275456, Note_off_c, 1, 64, 0
3, 275456, Note_on_c, 1, 65, 96
3, 275968, Note_off_c, 1, 65, 0
3, 275968, Note_on_c, 1, 67, 96
3, 276480, Note_off_c, 1, 67, 0
3, 276480, Note_on_c, 1, 69, 96
3, 276992, Note_off_c, 1, 69, 0
3, 276992, Note_on_c, 1, 70, 96
3, 277504, Note_off_c, 1, 70, 0
3, 277504, Note_on_c, 1, 72, 96
3, 278016, Note_off_c, 1, 72, 0
3, 278016, Note_on_c, 1, 69, 96
3, 278528, Note_off_c, 1, 69, 0
3, 278528, Note_on_c, 1, 70, 96
3, 282624, Note_off_c, 1, 70, 0
3, 282624, Note_on_c, 1, 69, 96
3, 286720, Note_off_c, 1, 69, 0
3, 286720, Note_on_c, 1, 67, 96
3, 290816, Note_off_c, 1, 67, 0
3, 290816, Note_on_c, 1, 65, 96
3, 291840, Note_off_c, 1, 65, 0
3, 291840, Note_on_c, 1, 66, 96
3, 292864, Note_off_c, 1, 66, 0
3, 292864, Note_on_c, 1, 67, 96
3, 293376, Note_off_c, 1, 67, 0
3, 293376, Note_on_c, 1, 65, 96
3, 293888, Note_off_c, 1, 65, 0
3, 293888, Note_on_c, 1, 64, 96
3, 294400, Note_off_c, 1, 64, 0
3, 294400, Note_on_c, 1, 62, 96
3, 294912, Note_off_c, 1, 62, 0
3, 294912, Note_on_c, 1, 61, 96
3, 295424, Note_off_c, 1, 61, 0
3, 295424, Note_on_c, 1, 62, 96
3, 295936, Note_off_c, 1, 62, 0
3, 295936, Note_on_c, 1, 64, 96
3, 296448, Note_off_c, 1, 64, 0
3, 296448, Note_on_c, 1, 61, 96
3, 296960, Note_off_c, 1, 61, 0
3, 296960, Note_on_c, 1, 57, 96
3, 297984, Note_off_c, 1, 57, 0
3, 297984, Note_on_c, 1, 65, 96
3, 299008, Note_off_c, 1, 65, 0
3, 303104, Note_on_c, 1, 69, 96
3, 305152, Note_off_c, 1, 69, 0
3, 305152, Note_on_c, 1, 72, 96
3, 307200, Note_off_c, 1, 72, 0
3, 307200, Note_on_c, 1, 69, 96
3, 309248, Note_off_c, 1, 69, 0
3, 309248, Note_on_c, 1, 69, 96
3, 311296, Note_off_c, 1, 69, 0
3, 311296, Note_on_c, 1, 70, 96
3, 313344, Note_off_c, 1, 70, 0
3, 313344, Note_on_c, 1, 69, 96
3, 315392, Note_off_c, 1, 69, 0
3, 315392, Note_on_c, 1, 67, 96
3, 317440, Note_off_c, 1, 67, 0
3, 317440, Note_on_c, 1, 65, 96
3, 319488, Note_off_c, 1, 65, 0
3, 319488, Note_on_c, 1, 67, 96
3, 321536, Note_off_c, 1, 67, 0
3, 321536, Note_on_c, 1, 69, 96
3, 323584, Note_off_c, 1, 69, 0
3, 323584, Note_on_c, 1, 70, 96
3, 324608, Note_off_c, 1, 70, 0
3, 328192, Note_on_c, 1, 65, 96
3, 328704, Note_off_c, 1, 65, 0
3, 328704, Note_on_c, 1, 63, 96
3, 329216, Note_off_c, 1, 63, 0
3, 329216, Note_on_c, 1, 62, 96
3, 329728, Note_off_c, 1, 62, 0
3, 329728, Note_on_c, 1, 63, 96
3, 330240, Note_off_c, 1, 63, 0
3, 330240, Note_on_c, 1, 62, 96
3, 330752, Note_off_c, 1, 62, 0
3, 330752, Note_on_c, 1, 60, 96
3, 331264, Note_off_c, 1, 60, 0
3, 331264, Note_on_c, 1, 63, 96
3, 331776, Note_off_c, 1, 63, 0
3, 331776, Note_on_c, 1, 57, 96
3, 332800, Note_off_c, 1, 57, 0
3, 360448, Note_on_c, 1, 69, 96
3, 362496, Note_off_c, 1, 69, 0
3, 362496, Note_on_c, 1, 72, 96
3, 364544, Note_off_c, 1, 72, 0
3, 364544, Note_on_c, 1, 69, 96
3, 366592, Note_off_c, 1, 69, 0
3, 366592, Note_on_c, 1, 69, 96
3, 368640, Note_off_c, 1, 69, 0
3, 368640, Note_on_c, 1, 70, 96
3, 370688, Note_off_c, 1, 70, 0
3, 370688, Note_on_c, 1, 69, 96
3, 372736, Note_off_c, 1, 69, 0
3, 372736, Note_on_c, 1, 67, 96
3, 376832, Note_off_c, 1, 67, 0
3, 376832, Note_on_c, 1, 65, 96
3, 381440, Note_off_c, 1, 65, 0
3, 381440, Note_on_c, 1, 64, 96
3, 381952, Note_off_c, 1, 64, 0
3, 381952, Note_on_c, 1, 65, 96
3, 382464, Note_off_c, 1, 65, 0
3, 382464, Note_on_c, 1, 67, 96
3, 382976, Note_off_c, 1, 67, 0
3, 382976, Note_on_c, 1, 69, 96
3, 383488, Note_off_c, 1, 69, 0
3, 383488, Note_on_c, 1, 71, 96
3, 384000, Note_off_c, 1, 71, 0
3, 384000, Note_on_c, 1, 72, 96
3, 384512, Note_off_c, 1, 72, 0
3, 384512, Note_on_c, 1, 69, 96
3, 385024, Note_off_c, 1, 69, 0
3, 385024, Note_on_c, 1, 74, 96
3, 391168, Note_off_c, 1, 74, 0
3, 391168, Note_on_c, 1, 72, 96
3, 393216, Note_off_c, 1, 72, 0
3, 393216, Note_on_c, 1, 71, 96
3, 398336, Note_off_c, 1, 71, 0
3, 398336, Note_on_c, 1, 69, 96
3, 398848, Note_off_c, 1, 69, 0
3, 398848, Note_on_c, 1, 68, 96
3, 399360, Note_off_c, 1, 68, 0
3, 399360, Note_on_c, 1, 69, 96
3, 400384, Note_off_c, 1, 69, 0
3, 400384, Note_on_c, 1, 72, 96
3, 401408, Note_off_c, 1, 72, 0
3, 401408, Note_on_c, 1, 72, 96
3, 404480, Note_off_c, 1, 72, 0
3, 404480, Note_on_c, 1, 76, 96
3, 406016, Note_off_c, 1, 76, 0
3, 406016, Note_on_c, 1, 79, 96
3, 406528, Note_off_c, 1, 79, 0
3, 406528, Note_on_c, 1, 77, 96
3, 407040, Note_off_c, 1, 77, 0
3, 407040, Note_on_c, 1, 76, 96
3, 407552, Note_off_c, 1, 76, 0
3, 407552, Note_on_c, 1, 74, 96
3, 410624, Note_off_c, 1, 74, 0
3, 410624, Note_on_c, 1, 72, 96
3, 411136, Note_off_c, 1, 72, 0
3, 411136, Note_on_c, 1, 71, 96
3, 411648, Note_off_c, 1, 71, 0
3, 411648, Note_on_c, 1, 72, 96
3, 414720, Note_off_c, 1, 72, 0
3, 414720, Note_on_c, 1, 70, 96
3, 415232, Note_off_c, 1, 70, 0
3, 415232, Note_on_c, 1, 69, 96
3, 415744, Note_off_c, 1, 69, 0
3, 415744, Note_on_c, 1, 70, 96
3, 419840, Note_off_c, 1, 70, 0
3, 419840, Note_on_c, 1, 69, 96
3, 421888, Note_off_c, 1, 69, 0
3, 421888, Note_on_c, 1, 74, 96
3, 422400, Note_off_c, 1, 74, 0
3, 422400, Note_on_c, 1, 75, 96
3, 422912, Note_off_c, 1, 75, 0
3, 422912, Note_on_c, 1, 74, 96
3, 423424, Note_off_c, 1, 74, 0
3, 423424, Note_on_c, 1, 72, 96
3, 423936, Note_off_c, 1, 72, 0
3, 423936, Note_on_c, 1, 70, 96
3, 424448, Note_off_c, 1, 70, 0
3, 424448, Note_on_c, 1, 69, 96
3, 424960, Note_off_c, 1, 69, 0
3, 424960, Note_on_c, 1, 67, 96
3, 425472, Note_off_c, 1, 67, 0
3, 425472, Note_on_c, 1, 70, 96
3, 425984, Note_off_c, 1, 70, 0
3, 425984, Note_on_c, 1, 64, 96
3, 428032, Note_off_c, 1, 64, 0
3, 428032, Note_on_c, 1, 63, 96
3, 430592, Note_off_c, 1, 63, 0
3, 430592, Note_on_c, 1, 79, 96
3, 431104, Note_off_c, 1, 79, 0
3, 431104, Note_on_c, 1, 77, 96
3, 431616, Note_off_c, 1, 77, 0
3, 431616, Note_on_c, 1, 75, 96
3, 432128, Note_off_c, 1, 75, 0
3, 432128, Note_on_c, 1, 74, 96
3, 432640, Note_off_c, 1, 74, 0
3, 432640, Note_on_c, 1, 75, 96
3, 433152, Note_off_c, 1, 75, 0
3, 433152, Note_on_c, 1, 77, 96
3, 433664, Note_off_c, 1, 77, 0
3, 433664, Note_on_c, 1, 74, 96
3, 434176, Note_off_c, 1, 74, 0
3, 434176, Note_on_c, 1, 70, 96
3, 438784, Note_off_c, 1, 70, 0
3, 438784, Note_on_c, 1, 70, 96
3, 439296, Note_off_c, 1, 70, 0
3, 439296, Note_on_c, 1, 69, 96
3, 439808, Note_off_c, 1, 69, 0
3, 439808, Note_on_c, 1, 67, 96
3, 440320, Note_off_c, 1, 67, 0
3, 440320, Note_on_c, 1, 69, 96
3, 442368, Note_off_c, 1, 69, 0
3, 442368, Note_on_c, 1, 67, 96
3, 444416, Note_off_c, 1, 67, 0
3, 444416, Note_on_c, 1, 72, 96
3, 448512, Note_off_c, 1, 72, 0
3, 448512, Note_on_c, 1, 71, 96
3, 452608, Note_off_c, 1, 71, 0
3, 452608, Note_on_c, 1, 69, 96
3, 456704, Note_off_c, 1, 69, 0
3, 456704, Note_on_c, 1, 67, 96
3, 458752, Note_off_c, 1, 67, 0
3, 458752, Note_on_c, 1, 67, 96
3, 460800, Note_off_c, 1, 67, 0
3, 462848, Note_on_c, 1, 66, 96
3, 465920, Note_off_c, 1, 66, 0
3, 465920, Note_on_c, 1, 68, 96
3, 466432, Note_off_c, 1, 68, 0
3, 466432, Note_on_c, 1, 69, 96
3, 466944, Note_off_c, 1, 69, 0
3, 466944, Note_on_c, 1, 71, 96
3, 471040, Note_off_c, 1, 71, 0
3, 471040, Note_on_c, 1, 69, 96
3, 473600, Note_off_c, 1, 69, 0
3, 473600, Note_on_c, 1, 72, 96
3, 474112, Note_off_c, 1, 72, 0
3, 474112, Note_on_c, 1, 71, 96
3, 474624, Note_off_c, 1, 71, 0
3, 474624, Note_on_c, 1, 69, 96
3, 475136, Note_off_c, 1, 69, 0
3, 475136, Note_on_c, 1, 68, 96
3, 475648, Note_off_c, 1, 68, 0
3, 475648, Note_on_c, 1, 69, 96
3, 476160, Note_off_c, 1, 69, 0
3, 476160, Note_on_c, 1, 71, 96
3, 476672, Note_off_c, 1, 71, 0
3, 476672, Note_on_c, 1, 68, 96
3, 477184, Note_off_c, 1, 68, 0
3, 477184, Note_on_c, 1, 69, 96
3, 482816, Note_off_c, 1, 69, 0
3, 482816, Note_on_c, 1, 68, 96
3, 483328, Note_off_c, 1, 68, 0
3, 483328, Note_on_c, 1, 69, 96
3, 486400, Note_off_c, 1, 69, 0
3, 486400, Note_on_c, 1, 65, 96
3, 487936, Note_off_c, 1, 65, 0
3, 487936, Note_on_c, 1, 69, 96
3, 488448, Note_off_c, 1, 69, 0
3, 488448, Note_on_c, 1, 67, 96
3, 488960, Note_off_c, 1, 67, 0
3, 488960, Note_on_c, 1, 65, 96
3, 489472, Note_off_c, 1, 65, 0
3, 489472, Note_on_c, 1, 64, 96
3, 489984, Note_off_c, 1, 64, 0
3, 489984, Note_on_c, 1, 62, 96
3, 490496, Note_off_c, 1, 62, 0
3, 490496, Note_on_c, 1, 60, 96
3, 491008, Note_off_c, 1, 60, 0
3, 491008, Note_on_c, 1, 63, 96
3, 491520, Note_off_c, 1, 63, 0
3, 491520, Note_on_c, 1, 62, 96
3, 492544, Note_off_c, 1, 62, 0
3, 492544, Note_on_c, 1, 67, 96
3, 493568, Note_off_c, 1, 67, 0
3, 493568, Note_on_c, 1, 66, 96
3, 494592, Note_off_c, 1, 66, 0
3, 494592, Note_on_c, 1, 69, 96
3, 495616, Note_off_c, 1, 69, 0
3, 495616, Note_on_c, 1, 67, 96
3, 496128, Note_off_c, 1, 67, 0
3, 496128, Note_on_c, 1, 69, 96
3, 496640, Note_off_c, 1, 69, 0
3, 496640, Note_on_c, 1, 70, 96
3, 497152, Note_off_c, 1, 70, 0
3, 497152, Note_on_c, 1, 67, 96
3, 497664, Note_off_c, 1, 67, 0
3, 497664, Note_on_c, 1, 69, 96
3, 498176, Note_off_c, 1, 69, 0
3, 498176, Note_on_c, 1, 70, 96
3, 498688, Note_off_c, 1, 70, 0
3, 498688, Note_on_c, 1, 72, 96
3, 499200, Note_off_c, 1, 72, 0
3, 499200, Note_on_c, 1, 69, 96
3, 499712, Note_off_c, 1, 69, 0
3, 499712, Note_on_c, 1, 74, 96
3, 502784, Note_off_c, 1, 74, 0
3, 502784, Note_on_c, 1, 72, 96
3, 504832, Note_off_c, 1, 72, 0
3, 504832, Note_on_c, 1, 70, 96
3, 505856, Note_off_c, 1, 70, 0
3, 505856, Note_on_c, 1, 72, 96
3, 506368, Note_off_c, 1, 72, 0
3, 506368, Note_on_c, 1, 74, 96
3, 506880, Note_off_c, 1, 74, 0
3, 506880, Note_on_c, 1, 75, 96
3, 507392, Note_off_c, 1, 75, 0
3, 507392, Note_on_c, 1, 72, 96
3, 507904, Note_off_c, 1, 72, 0
3, 507904, Note_on_c, 1, 74, 96
3, 509952, Note_off_c, 1, 74, 0
3, 509952, Note_on_c, 1, 76, 96
3, 513024, Note_off_c, 1, 76, 0
3, 513024, Note_on_c, 1, 74, 96
3, 513536, Note_off_c, 1, 74, 0
3, 513536, Note_on_c, 1, 73, 96
3, 514048, Note_off_c, 1, 73, 0
3, 514048, Note_on_c, 1, 74, 96
3, 516096, Note_off_c, 1, 74, 0
3, 516608, Note_on_c, 1, 69, 96
3, 517120, Note_off_c, 1, 69, 0
3, 517120, Note_on_c, 1, 71, 96
3, 517632, Note_off_c, 1, 71, 0
3, 517632, Note_on_c, 1, 73, 96
3, 518144, Note_off_c, 1, 73, 0
3, 518144, Note_on_c, 1, 74, 96
3, 518656, Note_off_c, 1, 74, 0
3, 518656, Note_on_c, 1, 76, 96
3, 519168, Note_off_c, 1, 76, 0
3, 519168, Note_on_c, 1, 77, 96
3, 519680, Note_off_c, 1, 77, 0
3, 519680, Note_on_c, 1, 74, 96
3, 520192, Note_off_c, 1, 74, 0
3, 520192, Note_on_c, 1, 79, 96
3, 521216, Note_off_c, 1, 79, 0
3, 521216, Note_on_c, 1, 77, 96
3, 522240, Note_off_c, 1, 77, 0
3, 522240, Note_on_c, 1, 76, 96
3, 525312, Note_off_c, 1, 76, 0
3, 525312, Note_on_c, 1, 74, 96
3, 527360, Note_off_c, 1, 74, 0
3, 527360, Note_on_c, 1, 72, 96
3, 528896, Note_off_c, 1, 72, 0
3, 528896, Note_on_c, 1, 75, 96
3, 529408, Note_off_c, 1, 75, 0
3, 529408, Note_on_c, 1, 74, 96
3, 529920, Note_off_c, 1, 74, 0
3, 529920, Note_on_c, 1, 72, 96
3, 530432, Note_off_c, 1, 72, 0
3, 530432, Note_on_c, 1, 70, 96
3, 530944, Note_off_c, 1, 70, 0
3, 530944, Note_on_c, 1, 69, 96
3, 531456, Note_off_c, 1, 69, 0
3, 531456, Note_on_c, 1, 67, 96
3, 531968, Note_off_c, 1, 67, 0
3, 531968, Note_on_c, 1, 70, 96
3, 532480, Note_off_c, 1, 70, 0
3, 532480, Note_on_c, 1, 66, 96
3, 534528, Note_off_c, 1, 66, 0
3, 534528, Note_on_c, 1, 67, 96
3, 536576, Note_off_c, 1, 67, 0
3, 536576, Note_on_c, 1, 69, 96
3, 539648, Note_off_c, 1, 69, 0
3, 539648, Note_on_c, 1, 67, 96
3, 541184, Note_off_c, 1, 67, 0
3, 541184, Note_on_c, 1, 65, 96
3, 541696, Note_off_c, 1, 65, 0
3, 541696, Note_on_c, 1, 64, 96
3, 542208, Note_off_c, 1, 64, 0
3, 542208, Note_on_c, 1, 62, 96
3, 542720, Note_off_c, 1, 62, 0
3, 542720, Note_on_c, 1, 61, 96
3, 543232, Note_off_c, 1, 61, 0
3, 543232, Note_on_c, 1, 62, 96
3, 543744, Note_off_c, 1, 62, 0
3, 543744, Note_on_c, 1, 64, 96
3, 544256, Note_off_c, 1, 64, 0
3, 544256, Note_on_c, 1, 61, 96
3, 544768, Note_off_c, 1, 61, 0
3, 544768, Note_on_c, 1, 62, 96
3, 545792, Note_off_c, 1, 62, 0
3, 547840, Note_on_c, 1, 64, 96
3, 548864, Note_off_c, 1, 64, 0
3, 548864, Note_on_c, 1, 65, 96
3, 549376, Note_off_c, 1, 65, 0
3, 549376, Note_on_c, 1, 69, 96
3, 549888, Note_off_c, 1, 69, 0
3, 549888, Note_on_c, 1, 67, 96
3, 550400, Note_off_c, 1, 67, 0
3, 550400, Note_on_c, 1, 65, 96
3, 550912, Note_off_c, 1, 65, 0
3, 550912, Note_on_c, 1, 64, 96
3, 551424, Note_off_c, 1, 64, 0
3, 551424, Note_on_c, 1, 66, 96
3, 551936, Note_off_c, 1, 66, 0
3, 551936, Note_on_c, 1, 67, 96
3, 552448, Note_off_c, 1, 67, 0
3, 552448, Note_on_c, 1, 64, 96
3, 552960, Note_off_c, 1, 64, 0
3, 552960, Note_on_c, 1, 66, 96
3, 563200, Note_off_c, 1, 66, 0
3, 563200, End_track
4, 0, Start_track
4, 0, Title_t, "Instrument 3"
4, 0, Note_on_c, 2, 57, 96
4, 2048, Note_off_c, 2, 57, 0
4, 2048, Note_on_c, 2, 60, 96
4, 4096, Note_off_c, 2, 60, 0
4, 4096, Note_on_c, 2, 57, 96
4, 6144, Note_off_c, 2, 57, 0
4, 6144, Note_on_c, 2, 57, 96
4, 8192, Note_off_c, 2, 57, 0
4, 8192, Note_on_c, 2, 58, 96
4, 10240, Note_off_c, 2, 58, 0
4, 10240, Note_on_c, 2, 57, 96
4, 12288, Note_off_c, 2, 57, 0
4, 12288, Note_on_c, 2, 55, 96
4, 16384, Note_off_c, 2, 55, 0
4, 16384, Note_on_c, 2, 53, 96
4, 19456, Note_off_c, 2, 53, 0
4, 19456, Note_on_c, 2, 55, 96
4, 20480, Note_off_c, 2, 55, 0
4, 20480, Note_on_c, 2, 57, 96
4, 21504, Note_off_c, 2, 57, 0
4, 21504, Note_on_c, 2, 52, 96
4, 22528, Note_off_c, 2, 52, 0
4, 22528, Note_on_c, 2, 57, 96
4, 23552, Note_off_c, 2, 57, 0
4, 23552, Note_on_c, 2, 55, 96
4, 24576, Note_off_c, 2, 55, 0
4, 24576, Note_on_c, 2, 54, 96
4, 25600, Note_off_c, 2, 54, 0
4, 25600, Note_on_c, 2, 50, 96
4, 26624, Note_off_c, 2, 50, 0
4, 26624, Note_on_c, 2, 55, 96
4, 29696, Note_off_c, 2, 55, 0
4, 29696, Note_on_c, 2, 53, 96
4, 30208, Note_off_c, 2, 53, 0
4, 30208, Note_on_c, 2, 52, 96
4, 30720, Note_off_c, 2, 52, 0
4, 30720, Note_on_c, 2, 53, 96
4, 31744, Note_off_c, 2, 53, 0
4, 31744, Note_on_c, 2, 55, 96
4, 32256, Note_off_c, 2, 55, 0
4, 32256, Note_on_c, 2, 53, 96
4, 32768, Note_off_c, 2, 53, 0
4, 32768, Note_on_c, 2, 52, 96
4, 34816, Note_off_c, 2, 52, 0
4, 34816, Note_on_c, 2, 57, 96
4, 36864, Note_off_c, 2, 57, 0
4, 36864, Note_on_c, 2, 50, 96
4, 37376, Note_off_c, 2, 50, 0
4, 37376, Note_on_c, 2, 53, 96
4, 37888, Note_off_c, 2, 53, 0
4, 37888, Note_on_c, 2, 52, 96
4, 38400, Note_off_c, 2, 52, 0
4, 38400, Note_on_c, 2, 50, 96
4, 38912, Note_off_c, 2, 50, 0
4, 38912, Note_on_c, 2, 48, 96
4, 39424, Note_off_c, 2, 48, 0
4, 39424, Note_on_c, 2, 46, 96
4, 39936, Note_off_c, 2, 46, 0
4, 39936, Note_on_c, 2, 45, 96
4, 40448, Note_off_c, 2, 45, 0
4, 40448, Note_on_c, 2, 48, 96
4, 40960, Note_off_c, 2, 48, 0
4, 40960, Note_on_c, 2, 41, 96
4, 41472, Note_off_c, 2, 41, 0
4, 41472, Note_on_c, 2, 45, 96
4, 41984, Note_off_c, 2, 45, 0
4, 41984, Note_on_c, 2, 47, 96
4, 42496, Note_off_c, 2, 47, 0
4, 42496, Note_on_c, 2, 49, 96
4, 43008, Note_off_c, 2, 49, 0
4, 43008, Note_on_c, 2, 50, 96
4, 43520, Note_off_c, 2, 50, 0
4, 43520, Note_on_c, 2, 52, 96
4, 44032, Note_off_c, 2, 52, 0
4, 44032, Note_on_c, 2, 53, 96
4, 44544, Note_off_c, 2, 53, 0
4, 44544, Note_on_c, 2, 50, 96
4, 45056, Note_off_c, 2, 50, 0
4, 45056, Note_on_c, 2, 55, 96
4, 45568, Note_off_c, 2, 55, 0
4, 45568, Note_on_c, 2, 53, 96
4, 46080, Note_off_c, 2, 53, 0
4, 46080, Note_on_c, 2, 52, 96
4, 46592, Note_off_c, 2, 52, 0
4, 46592, Note_on_c, 2, 55, 96
4, 47104, Note_off_c, 2, 55, 0
4, 47104, Note_on_c, 2, 53, 96
4, 47616, Note_off_c, 2, 53, 0
4, 47616, Note_on_c, 2, 52, 96
4, 48128, Note_off_c, 2, 52, 0
4, 48128, Note_on_c, 2, 50, 96
4, 48640, Note_off_c, 2, 50, 0
4, 48640, Note_on_c, 2, 53, 96
4, 49152, Note_off_c, 2, 53, 0
4, 49152, Note_on_c, 2, 47, 96
4, 49664, Note_off_c, 2, 47, 0
4, 49664, Note_on_c, 2, 50, 96
4, 50176, Note_off_c, 2, 50, 0
4, 50176, Note_on_c, 2, 49, 96
4, 50688, Note_off_c, 2, 49, 0
4, 50688, Note_on_c, 2, 47, 96
4, 51200, Note_off_c, 2, 47, 0
4, 51200, Note_on_c, 2, 49, 96
4, 51712, Note_off_c, 2, 49, 0
4, 51712, Note_on_c, 2, 52, 96
4, 52224, Note_off_c, 2, 52, 0
4, 52224, Note_on_c, 2, 45, 96
4, 52736, Note_off_c, 2, 45, 0
4, 52736, Note_on_c, 2, 49, 96
4, 53248, Note_off_c, 2, 49, 0
4, 53248, Note_on_c, 2, 50, 96
4, 53760, Note_off_c, 2, 50, 0
4, 53760, Note_on_c, 2, 45, 96
4, 54272, Note_off_c, 2, 45, 0
4, 54272, Note_on_c, 2, 47, 96
4, 54784, Note_off_c, 2, 47, 0
4, 54784, Note_on_c, 2, 49, 96
4, 55296, Note_off_c, 2, 49, 0
4, 55296, Note_on_c, 2, 50, 96
4, 55808, Note_off_c, 2, 50, 0
4, 55808, Note_on_c, 2, 52, 96
4, 56320, Note_off_c, 2, 52, 0
4, 56320, Note_on_c, 2, 53, 96
4, 56832, Note_off_c, 2, 53, 0
4, 56832, Note_on_c, 2, 50, 96
4, 57344, Note_off_c, 2, 50, 0
4, 57344, Note_on_c, 2, 57, 96
4, 59904, Note_off_c, 2, 57, 0
4, 59904, Note_on_c, 2, 55, 96
4, 60416, Note_off_c, 2, 55, 0
4, 60416, Note_on_c, 2, 53, 96
4, 60928, Note_off_c, 2, 53, 0
4, 60928, Note_on_c, 2, 52, 96
4, 61440, Note_off_c, 2, 52, 0
4, 61440, Note_on_c, 2, 50, 96
4, 62464, Note_off_c, 2, 50, 0
4, 62464, Note_on_c, 2, 55, 96
4, 63488, Note_off_c, 2, 55, 0
4, 63488, Note_on_c, 2, 48, 96
4, 64512, Note_off_c, 2, 48, 0
4, 64512, Note_on_c, 2, 53, 96
4, 65536, Note_off_c, 2, 53, 0
4, 65536, Note_on_c, 2, 47, 96
4, 66560, Note_off_c, 2, 47, 0
4, 66560, Note_on_c, 2, 48, 96
4, 67072, Note_off_c, 2, 48, 0
4, 67072, Note_on_c, 2, 50, 96
4, 67584, Note_off_c, 2, 50, 0
4, 67584, Note_on_c, 2, 52, 96
4, 68096, Note_off_c, 2, 52, 0
4, 68096, Note_on_c, 2, 54, 96
4, 68608, Note_off_c, 2, 54, 0
4, 68608, Note_on_c, 2, 56, 96
4, 69120, Note_off_c, 2, 56, 0
4, 69120, Note_on_c, 2, 52, 96
4, 69632, Note_off_c, 2, 52, 0
4, 69632, Note_on_c, 2, 57, 96
4, 70144, Note_off_c, 2, 57, 0
4, 70144, Note_on_c, 2, 55, 96
4, 70656, Note_off_c, 2, 55, 0
4, 70656, Note_on_c, 2, 53, 96
4, 71168, Note_off_c, 2, 53, 0
4, 71168, Note_on_c, 2, 52, 96
4, 71680, Note_off_c, 2, 52, 0
4, 71680, Note_on_c, 2, 50, 96
4, 72192, Note_off_c, 2, 50, 0
4, 72192, Note_on_c, 2, 48, 96
4, 72704, Note_off_c, 2, 48, 0
4, 72704, Note_on_c, 2, 46, 96
4, 73216, Note_off_c, 2, 46, 0
4, 73216, Note_on_c, 2, 50, 96
4, 73728, Note_off_c, 2, 50, 0
4, 73728, Note_on_c, 2, 43, 96
4, 74240, Note_off_c, 2, 43, 0
4, 74240, Note_on_c, 2, 53, 96
4, 74752, Note_off_c, 2, 53, 0
4, 74752, Note_on_c, 2, 52, 96
4, 75264, Note_off_c, 2, 52, 0
4, 75264, Note_on_c, 2, 50, 96
4, 75776, Note_off_c, 2, 50, 0
4, 75776, Note_on_c, 2, 48, 96
4, 76288, Note_off_c, 2, 48, 0
4, 76288, Note_on_c, 2, 46, 96
4, 76800, Note_off_c, 2, 46, 0
4, 76800, Note_on_c, 2, 45, 96
4, 77312, Note_off_c, 2, 45, 0
4, 77312, Note_on_c, 2, 48, 96
4, 77824, Note_off_c, 2, 48, 0
4, 77824, Note_on_c, 2, 41, 96
4, 78336, Note_off_c, 2, 41, 0
4, 78336, Note_on_c, 2, 52, 96
4, 78848, Note_off_c, 2, 52, 0
4, 78848, Note_on_c, 2, 50, 96
4, 79360, Note_off_c, 2, 50, 0
4, 79360, Note_on_c, 2, 48, 96
4, 79872, Note_off_c, 2, 48, 0
4, 79872, Note_on_c, 2, 46, 96
4, 80384, Note_off_c, 2, 46, 0
4, 80384, Note_on_c, 2, 45, 96
4, 80896, Note_off_c, 2, 45, 0
4, 80896, Note_on_c, 2, 43, 96
4, 81408, Note_off_c, 2, 43, 0
4, 81408, Note_on_c, 2, 46, 96
4, 81920, Note_off_c, 2, 46, 0
4, 81920, Note_on_c, 2, 40, 96
4, 82432, Note_off_c, 2, 40, 0
4, 82432, Note_on_c, 2, 50, 96
4, 82944, Note_off_c, 2, 50, 0
4, 82944, Note_on_c, 2, 49, 96
4, 83456, Note_off_c, 2, 49, 0
4, 83456, Note_on_c, 2, 47, 96
4, 83968, Note_off_c, 2, 47, 0
4, 83968, Note_on_c, 2, 45, 96
4, 84480, Note_off_c, 2, 45, 0
4, 84480, Note_on_c, 2, 43, 96
4, 84992, Note_off_c, 2, 43, 0
4, 84992, Note_on_c, 2, 41, 96
4, 85504, Note_off_c, 2, 41, 0
4, 85504, Note_on_c, 2, 45, 96
4, 86016, Note_off_c, 2, 45, 0
4, 86016, Note_on_c, 2, 38, 96
4, 87040, Note_off_c, 2, 38, 0
4, 87040, Note_on_c, 2, 50, 96
4, 89088, Note_off_c, 2, 50, 0
4, 89088, Note_on_c, 2, 48, 96
4, 90624, Note_off_c, 2, 48, 0
4, 90624, Note_on_c, 2, 47, 96
4, 91136, Note_off_c, 2, 47, 0
4, 91136, Note_on_c, 2, 48, 96
4, 91648, Note_off_c, 2, 48, 0
4, 91648, Note_on_c, 2, 50, 96
4, 92160, Note_off_c, 2, 50, 0
4, 92160, Note_on_c, 2, 52, 96
4, 92672, Note_off_c, 2, 52, 0
4, 92672, Note_on_c, 2, 54, 96
4, 93184, Note_off_c, 2, 54, 0
4, 93184, Note_on_c, 2, 56, 96
4, 93696, Note_off_c, 2, 56, 0
4, 93696, Note_on_c, 2, 52, 96
4, 94208, Note_off_c, 2, 52, 0
4, 94208, Note_on_c, 2, 57, 96
4, 98816, Note_off_c, 2, 57, 0
4, 98816, Note_on_c, 2, 55, 96
4, 99328, Note_off_c, 2, 55, 0
4, 99328, Note_on_c, 2, 57, 96
4, 99840, Note_off_c, 2, 57, 0
4, 99840, Note_on_c, 2, 58, 96
4, 100352, Note_off_c, 2, 58, 0
4, 100352, Note_on_c, 2, 60, 96
4, 100864, Note_off_c, 2, 60, 0
4, 100864, Note_on_c, 2, 62, 96
4, 101376, Note_off_c, 2, 62, 0
4, 101376, Note_on_c, 2, 64, 96
4, 101888, Note_off_c, 2, 64, 0
4, 101888, Note_on_c, 2, 60, 96
4, 102400, Note_off_c, 2, 60, 0
4, 102400, Note_on_c, 2, 65, 96
4, 105472, Note_off_c, 2, 65, 0
4, 105472, Note_on_c, 2, 64, 96
4, 106496, Note_off_c, 2, 64, 0
4, 106496, Note_on_c, 2, 62, 96
4, 111104, Note_off_c, 2, 62, 0
4, 111104, Note_on_c, 2, 56, 96
4, 111616, Note_off_c, 2, 56, 0
4, 111616, Note_on_c, 2, 57, 96
4, 112128, Note_off_c, 2, 57, 0
4, 112128, Note_on_c, 2, 59, 96
4, 112640, Note_off_c, 2, 59, 0
4, 112640, Note_on_c, 2, 60, 96
4, 113152, Note_off_c, 2, 60, 0
4, 113152, Note_on_c, 2, 62, 96
4, 113664, Note_off_c, 2, 62, 0
4, 113664, Note_on_c, 2, 64, 96
4, 114176, Note_off_c, 2, 64, 0
4, 114176, Note_on_c, 2, 60, 96
4, 114688, Note_off_c, 2, 60, 0
4, 114688, Note_on_c, 2, 65, 96
4, 115200, Note_off_c, 2, 65, 0
4, 115200, Note_on_c, 2, 64, 96
4, 115712, Note_off_c, 2, 64, 0
4, 115712, Note_on_c, 2, 62, 96
4, 116224, Note_off_c, 2, 62, 0
4, 116224, Note_on_c, 2, 60, 96
4, 116736, Note_off_c, 2, 60, 0
4, 116736, Note_on_c, 2, 59, 96
4, 117248, Note_off_c, 2, 59, 0
4, 117248, Note_on_c, 2, 60, 96
4, 117760, Note_off_c, 2, 60, 0
4, 117760, Note_on_c, 2, 62, 96
4, 118272, Note_off_c, 2, 62, 0
4, 118272, Note_on_c, 2, 59, 96
4, 118784, Note_off_c, 2, 59, 0
4, 118784, Note_on_c, 2, 60, 96
4, 119296, Note_off_c, 2, 60, 0
4, 119296, Note_on_c, 2, 59, 96
4, 119808, Note_off_c, 2, 59, 0
4, 119808, Note_on_c, 2, 60, 96
4, 120320, Note_off_c, 2, 60, 0
4, 120320, Note_on_c, 2, 62, 96
4, 120832, Note_off_c, 2, 62, 0
4, 120832, Note_on_c, 2, 64, 96
4, 121344, Note_off_c, 2, 64, 0
4, 121344, Note_on_c, 2, 65, 96
4, 121856, Note_off_c, 2, 65, 0
4, 121856, Note_on_c, 2, 67, 96
4, 122368, Note_off_c, 2, 67, 0
4, 122368, Note_on_c, 2, 64, 96
4, 122880, Note_off_c, 2, 64, 0
4, 122880, Note_on_c, 2, 69, 96
4, 125952, Note_off_c, 2, 69, 0
4, 125952, Note_on_c, 2, 68, 96
4, 126976, Note_off_c, 2, 68, 0
4, 126976, Note_on_c, 2, 69, 96
4, 128000, Note_off_c, 2, 69, 0
4, 128000, Note_on_c, 2, 71, 96
4, 130048, Note_off_c, 2, 71, 0
4, 130048, Note_on_c, 2, 69, 96
4, 130560, Note_off_c, 2, 69, 0
4, 130560, Note_on_c, 2, 67, 96
4, 131072, Note_off_c, 2, 67, 0
4, 131072, Note_on_c, 2, 65, 96
4, 131584, Note_off_c, 2, 65, 0
4, 131584, Note_on_c, 2, 64, 96
4, 132096, Note_off_c, 2, 64, 0
4, 132096, Note_on_c, 2, 62, 96
4, 132608, Note_off_c, 2, 62, 0
4, 132608, Note_on_c, 2, 60, 96
4, 133120, Note_off_c, 2, 60, 0
4, 133120, Note_on_c, 2, 62, 96
4, 134144, Note_off_c, 2, 62, 0
4, 134144, Note_on_c, 2, 56, 96
4, 135168, Note_off_c, 2, 56, 0
4, 135168, Note_on_c, 2, 57, 96
4, 135680, Note_off_c, 2, 57, 0
4, 135680, Note_on_c, 2, 59, 96
4, 136192, Note_off_c, 2, 59, 0
4, 136192, Note_on_c, 2, 60, 96
4, 136704, Note_off_c, 2, 60, 0
4, 136704, Note_on_c, 2, 62, 96
4, 137216, Note_off_c, 2, 62, 0
4, 137216, Note_on_c, 2, 64, 96
4, 137728, Note_off_c, 2, 64, 0
4, 137728, Note_on_c, 2, 65, 96
4, 138240, Note_off_c, 2, 65, 0
4, 138240, Note_on_c, 2, 67, 96
4, 138752, Note_off_c, 2, 67, 0
4, 138752, Note_on_c, 2, 64, 96
4, 139264, Note_off_c, 2, 64, 0
4, 139264, Note_on_c, 2, 65, 96
4, 143360, Note_off_c, 2, 65, 0
4, 143360, Note_on_c, 2, 64, 96
4, 147456, Note_off_c, 2, 64, 0
4, 147456, Note_on_c, 2, 62, 96
4, 152064, Note_off_c, 2, 62, 0
4, 152064, Note_on_c, 2, 61, 96
4, 152576, Note_off_c, 2, 61, 0
4, 152576, Note_on_c, 2, 62, 96
4, 153088, Note_off_c, 2, 62, 0
4, 153088, Note_on_c, 2, 64, 96
4, 153600, Note_off_c, 2, 64, 0
4, 153600, Note_on_c, 2, 65, 96
4, 154112, Note_off_c, 2, 65, 0
4, 154112, Note_on_c, 2, 67, 96
4, 154624, Note_off_c, 2, 67, 0
4, 154624, Note_on_c, 2, 69, 96
4, 155136, Note_off_c, 2, 69, 0
4, 155136, Note_on_c, 2, 65, 96
4, 155648, Note_off_c, 2, 65, 0
4, 155648, Note_on_c, 2, 70, 96
4, 156160, Note_off_c, 2, 70, 0
4, 156160, Note_on_c, 2, 69, 96
4, 156672, Note_off_c, 2, 69, 0
4, 156672, Note_on_c, 2, 67, 96
4, 157184, Note_off_c, 2, 67, 0
4, 157184, Note_on_c, 2, 65, 96
4, 157696, Note_off_c, 2, 65, 0
4, 157696, Note_on_c, 2, 64, 96
4, 158208, Note_off_c, 2, 64, 0
4, 158208, Note_on_c, 2, 62, 96
4, 158720, Note_off_c, 2, 62, 0
4, 158720, Note_on_c, 2, 60, 96
4, 159232, Note_off_c, 2, 60, 0
4, 159232, Note_on_c, 2, 64, 96
4, 159744, Note_off_c, 2, 64, 0
4, 159744, Note_on_c, 2, 57, 96
4, 161792, Note_off_c, 2, 57, 0
4, 161792, Note_on_c, 2, 58, 96
4, 162816, Note_off_c, 2, 58, 0
4, 162816, Note_on_c, 2, 67, 96
4, 163840, Note_off_c, 2, 67, 0
4, 163840, Note_on_c, 2, 64, 96
4, 165888, Note_off_c, 2, 64, 0
4, 165888, Note_on_c, 2, 65, 96
4, 167936, Note_off_c, 2, 65, 0
4, 167936, Note_on_c, 2, 64, 96
4, 172032, Note_off_c, 2, 64, 0
4, 172032, Note_on_c, 2, 62, 96
4, 175104, Note_off_c, 2, 62, 0
4, 175104, Note_on_c, 2, 60, 96
4, 176640, Note_off_c, 2, 60, 0
4, 176640, Note_on_c, 2, 63, 96
4, 177152, Note_off_c, 2, 63, 0
4, 177152, Note_on_c, 2, 62, 96
4, 177664, Note_off_c, 2, 62, 0
4, 177664, Note_on_c, 2, 60, 96
4, 178176, Note_off_c, 2, 60, 0
4, 178176, Note_on_c, 2, 58, 96
4, 178688, Note_off_c, 2, 58, 0
4, 178688, Note_on_c, 2, 57, 96
4, 179200, Note_off_c, 2, 57, 0
4, 179200, Note_on_c, 2, 55, 96
4, 179712, Note_off_c, 2, 55, 0
4, 179712, Note_on_c, 2, 58, 96
4, 180224, Note_off_c, 2, 58, 0
4, 180224, Note_on_c, 2, 57, 96
4, 181248, Note_off_c, 2, 57, 0
4, 181248, Note_on_c, 2, 61, 96
4, 182272, Note_off_c, 2, 61, 0
4, 182272, Note_on_c, 2, 62, 96
4, 183296, Note_off_c, 2, 62, 0
4, 183296, Note_on_c, 2, 57, 96
4, 184320, Note_off_c, 2, 57, 0
4, 184320, Note_on_c, 2, 55, 96
4, 186368, Note_off_c, 2, 55, 0
4, 186368, Note_on_c, 2, 57, 96
4, 188928, Note_off_c, 2, 57, 0
4, 188928, Note_on_c, 2, 54, 96
4, 189440, Note_off_c, 2, 54, 0
4, 189440, Note_on_c, 2, 55, 96
4, 189952, Note_off_c, 2, 55, 0
4, 189952, Note_on_c, 2, 57, 96
4, 190464, Note_off_c, 2, 57, 0
4, 190464, Note_on_c, 2, 58, 96
4, 190976, Note_off_c, 2, 58, 0
4, 190976, Note_on_c, 2, 60, 96
4, 191488, Note_off_c, 2, 60, 0
4, 191488, Note_on_c, 2, 62, 96
4, 192000, Note_off_c, 2, 62, 0
4, 192000, Note_on_c, 2, 58, 96
4, 192512, Note_off_c, 2, 58, 0
4, 192512, Note_on_c, 2, 63, 96
4, 193024, Note_off_c, 2, 63, 0
4, 193024, Note_on_c, 2, 62, 96
4, 193536, Note_off_c, 2, 62, 0
4, 193536, Note_on_c, 2, 60, 96
4, 194048, Note_off_c, 2, 60, 0
4, 194048, Note_on_c, 2, 58, 96
4, 194560, Note_off_c, 2, 58, 0
4, 194560, Note_on_c, 2, 57, 96
4, 195072, Note_off_c, 2, 57, 0
4, 195072, Note_on_c, 2, 58, 96
4, 195584, Note_off_c, 2, 58, 0
4, 195584, Note_on_c, 2, 60, 96
4, 196096, Note_off_c, 2, 60, 0
4, 196096, Note_on_c, 2, 57, 96
4, 196608, Note_off_c, 2, 57, 0
4, 196608, Note_on_c, 2, 58, 96
4, 198656, Note_off_c, 2, 58, 0
4, 198656, Note_on_c, 2, 57, 96
4, 200704, Note_off_c, 2, 57, 0
4, 200704, Note_on_c, 2, 59, 96
4, 201728, Note_off_c, 2, 59, 0
4, 201728, Note_on_c, 2, 60, 96
4, 202752, Note_off_c, 2, 60, 0
4, 202752, Note_on_c, 2, 59, 96
4, 203776, Note_off_c, 2, 59, 0
4, 203776, Note_on_c, 2, 62, 96
4, 205824, Note_off_c, 2, 62, 0
4, 205824, Note_on_c, 2, 60, 96
4, 206336, Note_off_c, 2, 60, 0
4, 206336, Note_on_c, 2, 59, 96
4, 206848, Note_off_c, 2, 59, 0
4, 206848, Note_on_c, 2, 60, 96
4, 207872, Note_off_c, 2, 60, 0
4, 207872, Note_on_c, 2, 65, 96
4, 208896, Note_off_c, 2, 65, 0
4, 208896, Note_on_c, 2, 62, 96
4, 209408, Note_off_c, 2, 62, 0
4, 209408, Note_on_c, 2, 64, 96
4, 209920, Note_off_c, 2, 64, 0
4, 209920, Note_on_c, 2, 62, 96
4, 210432, Note_off_c, 2, 62, 0
4, 210432, Note_on_c, 2, 60, 96
4, 210944, Note_off_c, 2, 60, 0
4, 210944, Note_on_c, 2, 59, 96
4, 211456, Note_off_c, 2, 59, 0
4, 211456, Note_on_c, 2, 57, 96
4, 211968, Note_off_c, 2, 57, 0
4, 211968, Note_on_c, 2, 56, 96
4, 212480, Note_off_c, 2, 56, 0
4, 212480, Note_on_c, 2, 59, 96
4, 212992, Note_off_c, 2, 59, 0
4, 212992, Note_on_c, 2, 52, 96
4, 214016, Note_off_c, 2, 52, 0
4, 214016, Note_on_c, 2, 50, 96
4, 215040, Note_off_c, 2, 50, 0
4, 215040, Note_on_c, 2, 52, 96
4, 216064, Note_off_c, 2, 52, 0
4, 216064, Note_on_c, 2, 57, 96
4, 218112, Note_off_c, 2, 57, 0
4, 218112, Note_on_c, 2, 69, 96
4, 219136, Note_off_c, 2, 69, 0
4, 219136, Note_on_c, 2, 68, 96
4, 220160, Note_off_c, 2, 68, 0
4, 220160, Note_on_c, 2, 71, 96
4, 221184, Note_off_c, 2, 71, 0
4, 225280, Note_on_c, 2, 57, 96
4, 227328, Note_off_c, 2, 57, 0
4, 227328, Note_on_c, 2, 60, 96
4, 229376, Note_off_c, 2, 60, 0
4, 229376, Note_on_c, 2, 57, 96
4, 231424, Note_off_c, 2, 57, 0
4, 231424, Note_on_c, 2, 57, 96
4, 233472, Note_off_c, 2, 57, 0
4, 233472, Note_on_c, 2, 58, 96
4, 235520, Note_off_c, 2, 58, 0
4, 235520, Note_on_c, 2, 57, 96
4, 237568, Note_off_c, 2, 57, 0
4, 237568, Note_on_c, 2, 55, 96
4, 241664, Note_off_c, 2, 55, 0
4, 241664, Note_on_c, 2, 53, 96
4, 246784, Note_off_c, 2, 53, 0
4, 299008, Note_on_c, 2, 67, 96
4, 301568, Note_off_c, 2, 67, 0
4, 301568, Note_on_c, 2, 70, 96
4, 302080, Note_off_c, 2, 70, 0
4, 302080, Note_on_c, 2, 69, 96
4, 302592, Note_off_c, 2, 69, 0
4, 302592, Note_on_c, 2, 67, 96
4, 303104, Note_off_c, 2, 67, 0
4, 303104, Note_on_c, 2, 65, 96
4, 303616, Note_off_c, 2, 65, 0
4, 303616, Note_on_c, 2, 65, 96
4, 304128, Note_off_c, 2, 65, 0
4, 304128, Note_on_c, 2, 64, 96
4, 304640, Note_off_c, 2, 64, 0
4, 304640, Note_on_c, 2, 62, 96
4, 305152, Note_off_c, 2, 62, 0
4, 305152, Note_on_c, 2, 60, 96
4, 305664, Note_off_c, 2, 60, 0
4, 305664, Note_on_c, 2, 58, 96
4, 306176, Note_off_c, 2, 58, 0
4, 306176, Note_on_c, 2, 57, 96
4, 306688, Note_off_c, 2, 57, 0
4, 306688, Note_on_c, 2, 60, 96
4, 307200, Note_off_c, 2, 60, 0
4, 307200, Note_on_c, 2, 53, 96
4, 307712, Note_off_c, 2, 53, 0
4, 307712, Note_on_c, 2, 52, 96
4, 308224, Note_off_c, 2, 52, 0
4, 308224, Note_on_c, 2, 53, 96
4, 308736, Note_off_c, 2, 53, 0
4, 308736, Note_on_c, 2, 55, 96
4, 309248, Note_off_c, 2, 55, 0
4, 309248, Note_on_c, 2, 57, 96
4, 309760, Note_off_c, 2, 57, 0
4, 309760, Note_on_c, 2, 58, 96
4, 310272, Note_off_c, 2, 58, 0
4, 310272, Note_on_c, 2, 60, 96
4, 310784, Note_off_c, 2, 60, 0
4, 310784, Note_on_c, 2, 57, 96
4, 311296, Note_off_c, 2, 57, 0
4, 311296, Note_on_c, 2, 62, 96
4, 311808, Note_off_c, 2, 62, 0
4, 311808, Note_on_c, 2, 60, 96
4, 312320, Note_off_c, 2, 60, 0
4, 312320, Note_on_c, 2, 58, 96
4, 312832, Note_off_c, 2, 58, 0
4, 312832, Note_on_c, 2, 62, 96
4, 313344, Note_off_c, 2, 62, 0
4, 313344, Note_on_c, 2, 60, 96
4, 313856, Note_off_c, 2, 60, 0
4, 313856, Note_on_c, 2, 58, 96
4, 314368, Note_off_c, 2, 58, 0
4, 314368, Note_on_c, 2, 57, 96
4, 314880, Note_off_c, 2, 57, 0
4, 314880, Note_on_c, 2, 60, 96
4, 315392, Note_off_c, 2, 60, 0
4, 315392, Note_on_c, 2, 58, 96
4, 320000, Note_off_c, 2, 58, 0
4, 320000, Note_on_c, 2, 57, 96
4, 320512, Note_off_c, 2, 57, 0
4, 320512, Note_on_c, 2, 55, 96
4, 321024, Note_off_c, 2, 55, 0
4, 321024, Note_on_c, 2, 54, 96
4, 321536, Note_off_c, 2, 54, 0
4, 321536, Note_on_c, 2, 52, 96
4, 322048, Note_off_c, 2, 52, 0
4, 322048, Note_on_c, 2, 50, 96
4, 322560, Note_off_c, 2, 50, 0
4, 322560, Note_on_c, 2, 54, 96
4, 323072, Note_off_c, 2, 54, 0
4, 323584, Note_on_c, 2, 55, 96
4, 331776, Note_off_c, 2, 55, 0
4, 331776, Note_on_c, 2, 54, 96
4, 335872, Note_off_c, 2, 54, 0
4, 335872, Note_on_c, 2, 55, 96
4, 336896, Note_off_c, 2, 55, 0
4, 336896, Note_on_c, 2, 65, 96
4, 337920, Note_off_c, 2, 65, 0
4, 337920, Note_on_c, 2, 64, 96
4, 338944, Note_off_c, 2, 64, 0
4, 338944, Note_on_c, 2, 62, 96
4, 339968, Note_off_c, 2, 62, 0
4, 339968, Note_on_c, 2, 64, 96
4, 343040, Note_off_c, 2, 64, 0
4, 343040, Note_on_c, 2, 62, 96
4, 345088, Note_off_c, 2, 62, 0
4, 345088, Note_on_c, 2, 60, 96
4, 345600, Note_off_c, 2, 60, 0
4, 345600, Note_on_c, 2, 59, 96
4, 346112, Note_off_c, 2, 59, 0
4, 346112, Note_on_c, 2, 60, 96
4, 349184, Note_off_c, 2, 60, 0
4, 349184, Note_on_c, 2, 58, 96
4, 349696, Note_off_c, 2, 58, 0
4, 349696, Note_on_c, 2, 57, 96
4, 350208, Note_off_c, 2, 57, 0
4, 350208, Note_on_c, 2, 58, 96
4, 352256, Note_off_c, 2, 58, 0
4, 352256, Note_on_c, 2, 57, 96
4, 354816, Note_off_c, 2, 57, 0
4, 354816, Note_on_c, 2, 72, 96
4, 355328, Note_off_c, 2, 72, 0
4, 355328, Note_on_c, 2, 70, 96
4, 355840, Note_off_c, 2, 70, 0
4, 355840, Note_on_c, 2, 69, 96
4, 356352, Note_off_c, 2, 69, 0
4, 356352, Note_on_c, 2, 67, 96
4, 356864, Note_off_c, 2, 67, 0
4, 356864, Note_on_c, 2, 65, 96
4, 357376, Note_off_c, 2, 65, 0
4, 357376, Note_on_c, 2, 64, 96
4, 357888, Note_off_c, 2, 64, 0
4, 357888, Note_on_c, 2, 65, 96
4, 358400, Note_off_c, 2, 65, 0
4, 358400, Note_on_c, 2, 67, 96
4, 358912, Note_off_c, 2, 67, 0
4, 358912, Note_on_c, 2, 70, 96
4, 359424, Note_off_c, 2, 70, 0
4, 359424, Note_on_c, 2, 69, 96
4, 359936, Note_off_c, 2, 69, 0
4, 359936, Note_on_c, 2, 67, 96
4, 360448, Note_off_c, 2, 67, 0
4, 360448, Note_on_c, 2, 65, 96
4, 362496, Note_off_c, 2, 65, 0
4, 362496, Note_on_c, 2, 69, 96
4, 363520, Note_off_c, 2, 69, 0
4, 363520, Note_on_c, 2, 67, 96
4, 365568, Note_off_c, 2, 67, 0
4, 365568, Note_on_c, 2, 65, 96
4, 367616, Note_off_c, 2, 65, 0
4, 367616, Note_on_c, 2, 64, 96
4, 368640, Note_off_c, 2, 64, 0
4, 368640, Note_on_c, 2, 65, 96
4, 369664, Note_off_c, 2, 65, 0
4, 369664, Note_on_c, 2, 67, 96
4, 370688, Note_off_c, 2, 67, 0
4, 370688, Note_on_c, 2, 60, 96
4, 371712, Note_off_c, 2, 60, 0
4, 371712, Note_on_c, 2, 65, 96
4, 373760, Note_off_c, 2, 65, 0
4, 373760, Note_on_c, 2, 63, 96
4, 374272, Note_off_c, 2, 63, 0
4, 374272, Note_on_c, 2, 62, 96
4, 374784, Note_off_c, 2, 62, 0
4, 374784, Note_on_c, 2, 64, 96
4, 377344, Note_off_c, 2, 64, 0
4, 377344, Note_on_c, 2, 63, 96
4, 377856, Note_off_c, 2, 63, 0
4, 377856, Note_on_c, 2, 62, 96
4, 378368, Note_off_c, 2, 62, 0
4, 378368, Note_on_c, 2, 60, 96
4, 378880, Note_off_c, 2, 60, 0
4, 378880, Note_on_c, 2, 58, 96
4, 379392, Note_off_c, 2, 58, 0
4, 379392, Note_on_c, 2, 57, 96
4, 379904, Note_off_c, 2, 57, 0
4, 379904, Note_on_c, 2, 55, 96
4, 380416, Note_off_c, 2, 55, 0
4, 380416, Note_on_c, 2, 58, 96
4, 380928, Note_off_c, 2, 58, 0
4, 380928, Note_on_c, 2, 57, 96
4, 381440, Note_off_c, 2, 57, 0
4, 381440, Note_on_c, 2, 55, 96
4, 381952, Note_off_c, 2, 55, 0
4, 381952, Note_on_c, 2, 57, 96
4, 382464, Note_off_c, 2, 57, 0
4, 382464, Note_on_c, 2, 58, 96
4, 382976, Note_off_c, 2, 58, 0
4, 382976, Note_on_c, 2, 60, 96
4, 387072, Note_off_c, 2, 60, 0
4, 387072, Note_on_c, 2, 59, 96
4, 391168, Note_off_c, 2, 59, 0
4, 391168, Note_on_c, 2, 57, 96
4, 395264, Note_off_c, 2, 57, 0
4, 395264, Note_on_c, 2, 56, 96
4, 396288, Note_off_c, 2, 56, 0
4, 396288, Note_on_c, 2, 64, 96
4, 397824, Note_off_c, 2, 64, 0
4, 397824, Note_on_c, 2, 65, 96
4, 398336, Note_off_c, 2, 65, 0
4, 398336, Note_on_c, 2, 64, 96
4, 398848, Note_off_c, 2, 64, 0
4, 398848, Note_on_c, 2, 62, 96
4, 399360, Note_off_c, 2, 62, 0
4, 399360, Note_on_c, 2, 64, 96
4, 400384, Note_off_c, 2, 64, 0
4, 400384, Note_on_c, 2, 65, 96
4, 401408, Note_off_c, 2, 65, 0
4, 401408, Note_on_c, 2, 60, 96
4, 401920, Note_off_c, 2, 60, 0
4, 401920, Note_on_c, 2, 62, 96
4, 402432, Note_off_c, 2, 62, 0
4, 402432, Note_on_c, 2, 64, 96
4, 402944, Note_off_c, 2, 64, 0
4, 402944, Note_on_c, 2, 65, 96
4, 403456, Note_off_c, 2, 65, 0
4, 403456, Note_on_c, 2, 67, 96
4, 403968, Note_off_c, 2, 67, 0
4, 403968, Note_on_c, 2, 65, 96
4, 404480, Note_off_c, 2, 65, 0
4, 404480, Note_on_c, 2, 64, 96
4, 404992, Note_off_c, 2, 64, 0
4, 404992, Note_on_c, 2, 67, 96
4, 405504, Note_off_c, 2, 67, 0
4, 405504, Note_on_c, 2, 61, 96
4, 407552, Note_off_c, 2, 61, 0
4, 407552, Note_on_c, 2, 62, 96
4, 409600, Note_off_c, 2, 62, 0
4, 409600, Note_on_c, 2, 64, 96
4, 412672, Note_off_c, 2, 64, 0
4, 412672, Note_on_c, 2, 65, 96
4, 415744, Note_off_c, 2, 65, 0
4, 415744, Note_on_c, 2, 62, 96
4, 417792, Note_off_c, 2, 62, 0
4, 417792, Note_on_c, 2, 64, 96
4, 418816, Note_off_c, 2, 64, 0
4, 418816, Note_on_c, 2, 62, 96
4, 419840, Note_off_c, 2, 62, 0
4, 419840, Note_on_c, 2, 60, 96
4, 420864, Note_off_c, 2, 60, 0
4, 420864, Note_on_c, 2, 65, 96
4, 421888, Note_off_c, 2, 65, 0
4, 421888, Note_on_c, 2, 65, 96
4, 424960, Note_off_c, 2, 65, 0
4, 424960, Note_on_c, 2, 64, 96
4, 425472, Note_off_c, 2, 64, 0
4, 425472, Note_on_c, 2, 62, 96
4, 425984, Note_off_c, 2, 62, 0
4, 425984, Note_on_c, 2, 60, 96
4, 432128, Note_off_c, 2, 60, 0
4, 432128, Note_on_c, 2, 62, 96
4, 436224, Note_off_c, 2, 62, 0
4, 436224, Note_on_c, 2, 60, 96
4, 437248, Note_off_c, 2, 60, 0
4, 437248, Note_on_c, 2, 58, 96
4, 438272, Note_off_c, 2, 58, 0
4, 438272, Note_on_c, 2, 60, 96
4, 440320, Note_off_c, 2, 60, 0
4, 442880, Note_on_c, 2, 62, 96
4, 443392, Note_off_c, 2, 62, 0
4, 443392, Note_on_c, 2, 64, 96
4, 443904, Note_off_c, 2, 64, 0
4, 443904, Note_on_c, 2, 65, 96
4, 444416, Note_off_c, 2, 65, 0
4, 444416, Note_on_c, 2, 67, 96
4, 444928, Note_off_c, 2, 67, 0
4, 444928, Note_on_c, 2, 69, 96
4, 445440, Note_off_c, 2, 69, 0
4, 445440, Note_on_c, 2, 70, 96
4, 445952, Note_off_c, 2, 70, 0
4, 445952, Note_on_c, 2, 67, 96
4, 446464, Note_off_c, 2, 67, 0
4, 446464, Note_on_c, 2, 69, 96
4, 450560, Note_off_c, 2, 69, 0
4, 450560, Note_on_c, 2, 67, 96
4, 454656, Note_off_c, 2, 67, 0
4, 454656, Note_on_c, 2, 65, 96
4, 460800, Note_off_c, 2, 65, 0
4, 460800, Note_on_c, 2, 64, 96
4, 462848, Note_off_c, 2, 64, 0
4, 469504, Note_on_c, 2, 52, 96
4, 470016, Note_off_c, 2, 52, 0
4, 470016, Note_on_c, 2, 54, 96
4, 470528, Note_off_c, 2, 54, 0
4, 470528, Note_on_c, 2, 56, 96
4, 471040, Note_off_c, 2, 56, 0
4, 471040, Note_on_c, 2, 57, 96
4, 471552, Note_off_c, 2, 57, 0
4, 471552, Note_on_c, 2, 59, 96
4, 472064, Note_off_c, 2, 59, 0
4, 472064, Note_on_c, 2, 60, 96
4, 472576, Note_off_c, 2, 60, 0
4, 472576, Note_on_c, 2, 57, 96
4, 473088, Note_off_c, 2, 57, 0
4, 473088, Note_on_c, 2, 62, 96
4, 477184, Note_off_c, 2, 62, 0
4, 477184, Note_on_c, 2, 60, 96
4, 479232, Note_off_c, 2, 60, 0
4, 479232, Note_on_c, 2, 59, 96
4, 483328, Note_off_c, 2, 59, 0
4, 483328, Note_on_c, 2, 57, 96
4, 485376, Note_off_c, 2, 57, 0
4, 492032, Note_on_c, 2, 57, 96
4, 492544, Note_off_c, 2, 57, 0
4, 492544, Note_on_c, 2, 58, 96
4, 493056, Note_off_c, 2, 58, 0
4, 493056, Note_on_c, 2, 60, 96
4, 493568, Note_off_c, 2, 60, 0
4, 493568, Note_on_c, 2, 62, 96
4, 494080, Note_off_c, 2, 62, 0
4, 494080, Note_on_c, 2, 64, 96
4, 494592, Note_off_c, 2, 64, 0
4, 494592, Note_on_c, 2, 66, 96
4, 495104, Note_off_c, 2, 66, 0
4, 495104, Note_on_c, 2, 62, 96
4, 495616, Note_off_c, 2, 62, 0
4, 495616, Note_on_c, 2, 67, 96
4, 501760, Note_off_c, 2, 67, 0
4, 504320, Note_on_c, 2, 64, 96
4, 504832, Note_off_c, 2, 64, 0
4, 504832, Note_on_c, 2, 66, 96
4, 505344, Note_off_c, 2, 66, 0
4, 505344, Note_on_c, 2, 67, 96
4, 505856, Note_off_c, 2, 67, 0
4, 505856, Note_on_c, 2, 69, 96
4, 506368, Note_off_c, 2, 69, 0
4, 506368, Note_on_c, 2, 70, 96
4, 506880, Note_off_c, 2, 70, 0
4, 506880, Note_on_c, 2, 72, 96
4, 507392, Note_off_c, 2, 72, 0
4, 507392, Note_on_c, 2, 69, 96
4, 507904, Note_off_c, 2, 69, 0
4, 507904, Note_on_c, 2, 70, 96
4, 512512, Note_off_c, 2, 70, 0
4, 512512, Note_on_c, 2, 70, 96
4, 513024, Note_off_c, 2, 70, 0
4, 513024, Note_on_c, 2, 69, 96
4, 513536, Note_off_c, 2, 69, 0
4, 513536, Note_on_c, 2, 67, 96
4, 514048, Note_off_c, 2, 67, 0
4, 514048, Note_on_c, 2, 65, 96
4, 514560, Note_off_c, 2, 65, 0
4, 514560, Note_on_c, 2, 67, 96
4, 515072, Note_off_c, 2, 67, 0
4, 515072, Note_on_c, 2, 69, 96
4, 515584, Note_off_c, 2, 69, 0
4, 515584, Note_on_c, 2, 65, 96
4, 516096, Note_off_c, 2, 65, 0
4, 516096, Note_on_c, 2, 62, 96
4, 524288, Note_off_c, 2, 62, 0
4, 524288, Note_on_c, 2, 61, 96
4, 525312, Note_off_c, 2, 61, 0
4, 525312, Note_on_c, 2, 62, 96
4, 526336, Note_off_c, 2, 62, 0
4, 526336, Note_on_c, 2, 64, 96
4, 528384, Note_off_c, 2, 64, 0
4, 528384, Note_on_c, 2, 60, 96
4, 530432, Note_off_c, 2, 60, 0
4, 532992, Note_on_c, 2, 63, 96
4, 533504, Note_off_c, 2, 63, 0
4, 533504, Note_on_c, 2, 62, 96
4, 534016, Note_off_c, 2, 62, 0
4, 534016, Note_on_c, 2, 60, 96
4, 534528, Note_off_c, 2, 60, 0
4, 534528, Note_on_c, 2, 58, 96
4, 535040, Note_off_c, 2, 58, 0
4, 535040, Note_on_c, 2, 57, 96
4, 535552, Note_off_c, 2, 57, 0
4, 535552, Note_on_c, 2, 55, 96
4, 536064, Note_off_c, 2, 55, 0
4, 536064, Note_on_c, 2, 58, 96
4, 536576, Note_off_c, 2, 58, 0
4, 536576, Note_on_c, 2, 54, 96
4, 537600, Note_off_c, 2, 54, 0
4, 537600, Note_on_c, 2, 57, 96
4, 538624, Note_off_c, 2, 57, 0
4, 538624, Note_on_c, 2, 62, 96
4, 540672, Note_off_c, 2, 62, 0
4, 540672, Note_on_c, 2, 64, 96
4, 541696, Note_off_c, 2, 64, 0
4, 541696, Note_on_c, 2, 57, 96
4, 542720, Note_off_c, 2, 57, 0
4, 542720, Note_on_c, 2, 58, 96
4, 544768, Note_off_c, 2, 58, 0
4, 544768, Note_on_c, 2, 57, 96
4, 545792, Note_off_c, 2, 57, 0
4, 547840, Note_on_c, 2, 58, 96
4, 548864, Note_off_c, 2, 58, 0
4, 548864, Note_on_c, 2, 57, 96
4, 563200, Note_off_c, 2, 57, 0
4, 563200, End_track
5, 0, Start_track
5, 0, Title_t, "Instrument 4"
5, 123392, Note_on_c, 3, 56, 96
5, 123904, Note_off_c, 3, 56, 0
5, 123904, Note_on_c, 3, 57, 96
5, 124416, Note_off_c, 3, 57, 0
5, 124416, Note_on_c, 3, 59, 96
5, 124928, Note_off_c, 3, 59, 0
5, 124928, Note_on_c, 3, 60, 96
5, 125440, Note_off_c, 3, 60, 0
5, 125440, Note_on_c, 3, 62, 96
5, 125952, Note_off_c, 3, 62, 0
5, 125952, Note_on_c, 3, 64, 96
5, 126464, Note_off_c, 3, 64, 0
5, 126464, Note_on_c, 3, 60, 96
5, 126976, Note_off_c, 3, 60, 0
5, 126976, Note_on_c, 3, 57, 96
5, 128000, Note_off_c, 3, 57, 0
5, 128000, Note_on_c, 3, 62, 96
5, 129024, Note_off_c, 3, 62, 0
5, 129024, Note_on_c, 3, 56, 96
5, 130048, Note_off_c, 3, 56, 0
5, 130048, Note_on_c, 3, 60, 96
5, 132096, Note_off_c, 3, 60, 0
5, 132096, Note_on_c, 3, 59, 96
5, 132608, Note_off_c, 3, 59, 0
5, 132608, Note_on_c, 3, 57, 96
5, 133120, Note_off_c, 3, 57, 0
5, 133120, Note_on_c, 3, 59, 96
5, 134144, Note_off_c, 3, 59, 0
5, 134144, Note_on_c, 3, 52, 96
5, 135168, Note_off_c, 3, 52, 0
5, 135168, Note_on_c, 3, 57, 96
5, 139776, Note_off_c, 3, 57, 0
5, 139776, Note_on_c, 3, 50, 96
5, 140288, Note_off_c, 3, 50, 0
5, 140288, Note_on_c, 3, 52, 96
5, 140800, Note_off_c, 3, 52, 0
5, 140800, Note_on_c, 3, 53, 96
5, 141312, Note_off_c, 3, 53, 0
5, 141312, Note_on_c, 3, 55, 96
5, 141824, Note_off_c, 3, 55, 0
5, 141824, Note_on_c, 3, 57, 96
5, 142336, Note_off_c, 3, 57, 0
5, 142336, Note_on_c, 3, 58, 96
5, 142848, Note_off_c, 3, 58, 0
5, 142848, Note_on_c, 3, 55, 96
5, 143360, Note_off_c, 3, 55, 0
5, 143360, Note_on_c, 3, 60, 96
5, 143872, Note_off_c, 3, 60, 0
5, 143872, Note_on_c, 3, 48, 96
5, 144384, Note_off_c, 3, 48, 0
5, 144384, Note_on_c, 3, 50, 96
5, 144896, Note_off_c, 3, 50, 0
5, 144896, Note_on_c, 3, 52, 96
5, 145408, Note_off_c, 3, 52, 0
5, 145408, Note_on_c, 3, 53, 96
5, 145920, Note_off_c, 3, 53, 0
5, 145920, Note_on_c, 3, 55, 96
5, 146432, Note_off_c, 3, 55, 0
5, 146432, Note_on_c, 3, 57, 96
5, 146944, Note_off_c, 3, 57, 0
5, 146944, Note_on_c, 3, 53, 96
5, 147456, Note_off_c, 3, 53, 0
5, 147456, Note_on_c, 3, 58, 96
5, 151552, Note_off_c, 3, 58, 0
5, 151552, Note_on_c, 3, 57, 96
5, 155648, Note_off_c, 3, 57, 0
5, 155648, Note_on_c, 3, 55, 96
5, 157696, Note_off_c, 3, 55, 0
5, 157696, Note_on_c, 3, 57, 96
5, 159744, Note_off_c, 3, 57, 0
5, 159744, Note_on_c, 3, 54, 96
5, 161792, Note_off_c, 3, 54, 0
5, 161792, Note_on_c, 3, 55, 96
5, 164352, Note_off_c, 3, 55, 0
5, 164352, Note_on_c, 3, 58, 96
5, 164864, Note_off_c, 3, 58, 0
5, 164864, Note_on_c, 3, 57, 96
5, 165376, Note_off_c, 3, 57, 0
5, 165376, Note_on_c, 3, 55, 96
5, 165888, Note_off_c, 3, 55, 0
5, 165888, Note_on_c, 3, 53, 96
5, 166400, Note_off_c, 3, 53, 0
5, 166400, Note_on_c, 3, 52, 96
5, 166912, Note_off_c, 3, 52, 0
5, 166912, Note_on_c, 3, 50, 96
5, 167424, Note_off_c, 3, 50, 0
5, 167424, Note_on_c, 3, 53, 96
5, 167936, Note_off_c, 3, 53, 0
5, 168448, Note_on_c, 3, 47, 96
5, 168960, Note_off_c, 3, 47, 0
5, 168960, Note_on_c, 3, 49, 96
5, 169472, Note_off_c, 3, 49, 0
5, 169472, Note_on_c, 3, 50, 96
5, 169984, Note_off_c, 3, 50, 0
5, 169984, Note_on_c, 3, 52, 96
5, 170496, Note_off_c, 3, 52, 0
5, 170496, Note_on_c, 3, 53, 96
5, 171008, Note_off_c, 3, 53, 0
5, 171008, Note_on_c, 3, 55, 96
5, 171520, Note_off_c, 3, 55, 0
5, 171520, Note_on_c, 3, 52, 96
5, 172032, Note_off_c, 3, 52, 0
5, 172032, Note_on_c, 3, 53, 96
5, 173056, Note_off_c, 3, 53, 0
5, 173056, Note_on_c, 3, 58, 96
5, 174080, Note_off_c, 3, 58, 0
5, 174080, Note_on_c, 3, 52, 96
5, 175104, Note_off_c, 3, 52, 0
5, 175104, Note_on_c, 3, 57, 96
5, 176128, Note_off_c, 3, 57, 0
5, 176128, Note_on_c, 3, 50, 96
5, 179200, Note_off_c, 3, 50, 0
5, 179200, Note_on_c, 3, 52, 96
5, 180224, Note_off_c, 3, 52, 0
5, 180224, Note_on_c, 3, 53, 96
5, 184832, Note_off_c, 3, 53, 0
5, 184832, Note_on_c, 3, 57, 96
5, 185344, Note_off_c, 3, 57, 0
5, 185344, Note_on_c, 3, 55, 96
5, 185856, Note_off_c, 3, 55, 0
5, 185856, Note_on_c, 3, 53, 96
5, 186368, Note_off_c, 3, 53, 0
5, 186368, Note_on_c, 3, 52, 96
5, 186880, Note_off_c, 3, 52, 0
5, 186880, Note_on_c, 3, 50, 96
5, 187392, Note_off_c, 3, 50, 0
5, 187392, Note_on_c, 3, 49, 96
5, 187904, Note_off_c, 3, 49, 0
5, 187904, Note_on_c, 3, 52, 96
5, 188416, Note_off_c, 3, 52, 0
5, 188416, Note_on_c, 3, 50, 96
5, 191488, Note_off_c, 3, 50, 0
5, 191488, Note_on_c, 3, 46, 96
5, 192512, Note_off_c, 3, 46, 0
5, 192512, Note_on_c, 3, 48, 96
5, 193536, Note_off_c, 3, 48, 0
5, 193536, Note_on_c, 3, 45, 96
5, 194560, Note_off_c, 3, 45, 0
5, 194560, Note_on_c, 3, 50, 96
5, 196608, Note_off_c, 3, 50, 0
5, 196608, Note_on_c, 3, 43, 96
5, 197120, Note_off_c, 3, 43, 0
5, 197120, Note_on_c, 3, 45, 96
5, 197632, Note_off_c, 3, 45, 0
5, 197632, Note_on_c, 3, 46, 96
5, 198144, Note_off_c, 3, 46, 0
5, 198144, Note_on_c, 3, 48, 96
5, 198656, Note_off_c, 3, 48, 0
5, 198656, Note_on_c, 3, 50, 96
5, 199168, Note_off_c, 3, 50, 0
5, 199168, Note_on_c, 3, 52, 96
5, 199680, Note_off_c, 3, 52, 0
5, 199680, Note_on_c, 3, 53, 96
5, 200192, Note_off_c, 3, 53, 0
5, 200192, Note_on_c, 3, 50, 96
5, 200704, Note_off_c, 3, 50, 0
5, 200704, Note_on_c, 3, 55, 96
5, 201216, Note_off_c, 3, 55, 0
5, 201216, Note_on_c, 3, 50, 96
5, 201728, Note_off_c, 3, 50, 0
5, 201728, Note_on_c, 3, 52, 96
5, 202240, Note_off_c, 3, 52, 0
5, 202240, Note_on_c, 3, 53, 96
5, 202752, Note_off_c, 3, 53, 0
5, 202752, Note_on_c, 3, 55, 96
5, 203264, Note_off_c, 3, 55, 0
5, 203264, Note_on_c, 3, 57, 96
5, 203776, Note_off_c, 3, 57, 0
5, 203776, Note_on_c, 3, 59, 96
5, 204288, Note_off_c, 3, 59, 0
5, 204288, Note_on_c, 3, 55, 96
5, 204800, Note_off_c, 3, 55, 0
5, 204800, Note_on_c, 3, 60, 96
5, 205312, Note_off_c, 3, 60, 0
5, 205312, Note_on_c, 3, 59, 96
5, 205824, Note_off_c, 3, 59, 0
5, 205824, Note_on_c, 3, 57, 96
5, 206336, Note_off_c, 3, 57, 0
5, 206336, Note_on_c, 3, 55, 96
5, 206848, Note_off_c, 3, 55, 0
5, 206848, Note_on_c, 3, 53, 96
5, 207360, Note_off_c, 3, 53, 0
5, 207360, Note_on_c, 3, 52, 96
5, 207872, Note_off_c, 3, 52, 0
5, 207872, Note_on_c, 3, 50, 96
5, 208384, Note_off_c, 3, 50, 0
5, 208384, Note_on_c, 3, 53, 96
5, 208896, Note_off_c, 3, 53, 0
5, 208896, Note_on_c, 3, 47, 96
5, 209920, Note_off_c, 3, 47, 0
5, 209920, Note_on_c, 3, 48, 96
5, 210432, Note_off_c, 3, 48, 0
5, 210432, Note_on_c, 3, 50, 96
5, 210944, Note_off_c, 3, 50, 0
5, 210944, Note_on_c, 3, 52, 96
5, 211968, Note_off_c, 3, 52, 0
5, 211968, Note_on_c, 3, 50, 96
5, 212992, Note_off_c, 3, 50, 0
5, 212992, Note_on_c, 3, 48, 96
5, 214016, Note_off_c, 3, 48, 0
5, 214016, Note_on_c, 3, 47, 96
5, 215040, Note_off_c, 3, 47, 0
5, 215040, Note_on_c, 3, 48, 96
5, 216064, Note_off_c, 3, 48, 0
5, 216064, Note_on_c, 3, 53, 96
5, 217600, Note_off_c, 3, 53, 0
5, 217600, Note_on_c, 3, 47, 96
5, 218112, Note_off_c, 3, 47, 0
5, 218112, Note_on_c, 3, 48, 96
5, 218624, Note_off_c, 3, 48, 0
5, 218624, Note_on_c, 3, 50, 96
5, 219136, Note_off_c, 3, 50, 0
5, 219136, Note_on_c, 3, 52, 96
5, 219648, Note_off_c, 3, 52, 0
5, 219648, Note_on_c, 3, 54, 96
5, 220160, Note_off_c, 3, 54, 0
5, 220160, Note_on_c, 3, 56, 96
5, 220672, Note_off_c, 3, 56, 0
5, 220672, Note_on_c, 3, 52, 96
5, 221184, Note_off_c, 3, 52, 0
5, 221184, Note_on_c, 3, 57, 96
5, 221696, Note_off_c, 3, 57, 0
5, 221696, Note_on_c, 3, 60, 96
5, 222208, Note_off_c, 3, 60, 0
5, 222208, Note_on_c, 3, 59, 96
5, 222720, Note_off_c, 3, 59, 0
5, 222720, Note_on_c, 3, 57, 96
5, 223232, Note_off_c, 3, 57, 0
5, 223232, Note_on_c, 3, 55, 96
5, 223744, Note_off_c, 3, 55, 0
5, 223744, Note_on_c, 3, 53, 96
5, 224256, Note_off_c, 3, 53, 0
5, 224256, Note_on_c, 3, 52, 96
5, 224768, Note_off_c, 3, 52, 0
5, 224768, Note_on_c, 3, 55, 96
5, 225280, Note_off_c, 3, 55, 0
5, 225280, Note_on_c, 3, 48, 96
5, 225792, Note_off_c, 3, 48, 0
5, 225792, Note_on_c, 3, 53, 96
5, 226304, Note_off_c, 3, 53, 0
5, 226304, Note_on_c, 3, 52, 96
5, 226816, Note_off_c, 3, 52, 0
5, 226816, Note_on_c, 3, 50, 96
5, 227328, Note_off_c, 3, 50, 0
5, 227328, Note_on_c, 3, 48, 96
5, 227840, Note_off_c, 3, 48, 0
5, 227840, Note_on_c, 3, 46, 96
5, 228352, Note_off_c, 3, 46, 0
5, 228352, Note_on_c, 3, 45, 96
5, 228864, Note_off_c, 3, 45, 0
5, 228864, Note_on_c, 3, 48, 96
5, 229376, Note_off_c, 3, 48, 0
5, 229376, Note_on_c, 3, 41, 96
5, 229888, Note_off_c, 3, 41, 0
5, 229888, Note_on_c, 3, 43, 96
5, 230400, Note_off_c, 3, 43, 0
5, 230400, Note_on_c, 3, 45, 96
5, 230912, Note_off_c, 3, 45, 0
5, 230912, Note_on_c, 3, 46, 96
5, 231424, Note_off_c, 3, 46, 0
5, 231424, Note_on_c, 3, 48, 96
5, 231936, Note_off_c, 3, 48, 0
5, 231936, Note_on_c, 3, 50, 96
5, 232448, Note_off_c, 3, 50, 0
5, 232448, Note_on_c, 3, 52, 96
5, 232960, Note_off_c, 3, 52, 0
5, 232960, Note_on_c, 3, 48, 96
5, 233472, Note_off_c, 3, 48, 0
5, 233472, Note_on_c, 3, 50, 96
5, 234496, Note_off_c, 3, 50, 0
5, 234496, Note_on_c, 3, 48, 96
5, 235520, Note_off_c, 3, 48, 0
5, 235520, Note_on_c, 3, 50, 96
5, 236544, Note_off_c, 3, 50, 0
5, 236544, Note_on_c, 3, 46, 96
5, 238592, Note_off_c, 3, 46, 0
5, 238592, Note_on_c, 3, 48, 96
5, 239104, Note_off_c, 3, 48, 0
5, 239104, Note_on_c, 3, 50, 96
5, 239616, Note_off_c, 3, 50, 0
5, 239616, Note_on_c, 3, 48, 96
5, 240640, Note_off_c, 3, 48, 0
5, 240640, Note_on_c, 3, 46, 96
5, 241664, Note_off_c, 3, 46, 0
5, 241664, Note_on_c, 3, 45, 96
5, 242688, Note_off_c, 3, 45, 0
5, 242688, Note_on_c, 3, 43, 96
5, 243712, Note_off_c, 3, 43, 0
5, 243712, Note_on_c, 3, 45, 96
5, 244736, Note_off_c, 3, 45, 0
5, 244736, Note_on_c, 3, 41, 96
5, 245760, Note_off_c, 3, 41, 0
5, 245760, Note_on_c, 3, 46, 96
5, 246272, Note_off_c, 3, 46, 0
5, 246272, Note_on_c, 3, 48, 96
5, 246784, Note_off_c, 3, 48, 0
5, 246784, Note_on_c, 3, 50, 96
5, 247296, Note_off_c, 3, 50, 0
5, 247296, Note_on_c, 3, 52, 96
5, 247808, Note_off_c, 3, 52, 0
5, 247808, Note_on_c, 3, 53, 96
5, 248320, Note_off_c, 3, 53, 0
5, 248320, Note_on_c, 3, 55, 96
5, 248832, Note_off_c, 3, 55, 0
5, 248832, Note_on_c, 3, 57, 96
5, 249344, Note_off_c, 3, 57, 0
5, 249344, Note_on_c, 3, 53, 96
5, 249856, Note_off_c, 3, 53, 0
5, 249856, Note_on_c, 3, 55, 96
5, 251904, Note_off_c, 3, 55, 0
5, 251904, Note_on_c, 3, 53, 96
5, 253952, Note_off_c, 3, 53, 0
5, 253952, Note_on_c, 3, 52, 96
5, 254976, Note_off_c, 3, 52, 0
5, 254976, Note_on_c, 3, 48, 96
5, 256000, Note_off_c, 3, 48, 0
5, 256000, Note_on_c, 3, 53, 96
5, 257024, Note_off_c, 3, 53, 0
5, 257024, Note_on_c, 3, 45, 96
5, 258048, Note_off_c, 3, 45, 0
5, 258048, Note_on_c, 3, 46, 96
5, 259072, Note_off_c, 3, 46, 0
5, 259072, Note_on_c, 3, 43, 96
5, 260096, Note_off_c, 3, 43, 0
5, 260096, Note_on_c, 3, 48, 96
5, 262144, Note_off_c, 3, 48, 0
5, 262144, Note_on_c, 3, 41, 96
5, 263168, Note_off_c, 3, 41, 0
5, 268288, Note_on_c, 3, 58, 96
5, 270848, Note_off_c, 3, 58, 0
5, 270848, Note_on_c, 3, 52, 96
5, 271360, Note_off_c, 3, 52, 0
5, 271360, Note_on_c, 3, 53, 96
5, 271872, Note_off_c, 3, 53, 0
5, 271872, Note_on_c, 3, 55, 96
5, 272384, Note_off_c, 3, 55, 0
5, 272384, Note_on_c, 3, 57, 96
5, 272896, Note_off_c, 3, 57, 0
5, 272896, Note_on_c, 3, 59, 96
5, 273408, Note_off_c, 3, 59, 0
5, 273408, Note_on_c, 3, 61, 96
5, 273920, Note_off_c, 3, 61, 0
5, 273920, Note_on_c, 3, 57, 96
5, 274432, Note_off_c, 3, 57, 0
5, 274432, Note_on_c, 3, 62, 96
5, 276992, Note_off_c, 3, 62, 0
5, 276992, Note_on_c, 3, 50, 96
5, 277504, Note_off_c, 3, 50, 0
5, 277504, Note_on_c, 3, 52, 96
5, 278016, Note_off_c, 3, 52, 0
5, 278016, Note_on_c, 3, 53, 96
5, 278528, Note_off_c, 3, 53, 0
5, 278528, Note_on_c, 3, 55, 96
5, 279040, Note_off_c, 3, 55, 0
5, 279040, Note_on_c, 3, 57, 96
5, 279552, Note_off_c, 3, 57, 0
5, 279552, Note_on_c, 3, 58, 96
5, 280064, Note_off_c, 3, 58, 0
5, 280064, Note_on_c, 3, 55, 96
5, 280576, Note_off_c, 3, 55, 0
5, 280576, Note_on_c, 3, 60, 96
5, 281088, Note_off_c, 3, 60, 0
5, 281088, Note_on_c, 3, 48, 96
5, 281600, Note_off_c, 3, 48, 0
5, 281600, Note_on_c, 3, 50, 96
5, 282112, Note_off_c, 3, 50, 0
5, 282112, Note_on_c, 3, 52, 96
5, 282624, Note_off_c, 3, 52, 0
5, 282624, Note_on_c, 3, 53, 96
5, 283136, Note_off_c, 3, 53, 0
5, 283136, Note_on_c, 3, 55, 96
5, 283648, Note_off_c, 3, 55, 0
5, 283648, Note_on_c, 3, 57, 96
5, 284160, Note_off_c, 3, 57, 0
5, 284160, Note_on_c, 3, 53, 96
5, 284672, Note_off_c, 3, 53, 0
5, 284672, Note_on_c, 3, 58, 96
5, 285184, Note_off_c, 3, 58, 0
5, 285184, Note_on_c, 3, 57, 96
5, 285696, Note_off_c, 3, 57, 0
5, 285696, Note_on_c, 3, 55, 96
5, 286208, Note_off_c, 3, 55, 0
5, 286208, Note_on_c, 3, 53, 96
5, 286720, Note_off_c, 3, 53, 0
5, 286720, Note_on_c, 3, 52, 96
5, 287232, Note_off_c, 3, 52, 0
5, 287232, Note_on_c, 3, 50, 96
5, 287744, Note_off_c, 3, 50, 0
5, 287744, Note_on_c, 3, 49, 96
5, 288256, Note_off_c, 3, 49, 0
5, 288256, Note_on_c, 3, 52, 96
5, 288768, Note_off_c, 3, 52, 0
5, 288768, Note_on_c, 3, 45, 96
5, 289280, Note_off_c, 3, 45, 0
5, 289280, Note_on_c, 3, 55, 96
5, 289792, Note_off_c, 3, 55, 0
5, 289792, Note_on_c, 3, 53, 96
5, 290304, Note_off_c, 3, 53, 0
5, 290304, Note_on_c, 3, 52, 96
5, 290816, Note_off_c, 3, 52, 0
5, 290816, Note_on_c, 3, 50, 96
5, 291328, Note_off_c, 3, 50, 0
5, 291328, Note_on_c, 3, 48, 96
5, 291840, Note_off_c, 3, 48, 0
5, 291840, Note_on_c, 3, 46, 96
5, 292352, Note_off_c, 3, 46, 0
5, 292352, Note_on_c, 3, 50, 96
5, 292864, Note_off_c, 3, 50, 0
5, 292864, Note_on_c, 3, 43, 96
5, 293888, Note_off_c, 3, 43, 0
5, 293888, Note_on_c, 3, 55, 96
5, 295424, Note_off_c, 3, 55, 0
5, 295424, Note_on_c, 3, 58, 96
5, 295936, Note_off_c, 3, 58, 0
5, 295936, Note_on_c, 3, 57, 96
5, 296448, Note_off_c, 3, 57, 0
5, 296448, Note_on_c, 3, 55, 96
5, 296960, Note_off_c, 3, 55, 0
5, 296960, Note_on_c, 3, 53, 96
5, 297472, Note_off_c, 3, 53, 0
5, 297472, Note_on_c, 3, 52, 96
5, 297984, Note_off_c, 3, 52, 0
5, 297984, Note_on_c, 3, 50, 96
5, 298496, Note_off_c, 3, 50, 0
5, 298496, Note_on_c, 3, 53, 96
5, 299008, Note_off_c, 3, 53, 0
5, 299008, Note_on_c, 3, 52, 96
5, 299520, Note_off_c, 3, 52, 0
5, 299520, Note_on_c, 3, 50, 96
5, 300032, Note_off_c, 3, 50, 0
5, 300032, Note_on_c, 3, 49, 96
5, 300544, Note_off_c, 3, 49, 0
5, 300544, Note_on_c, 3, 47, 96
5, 301056, Note_off_c, 3, 47, 0
5, 301056, Note_on_c, 3, 45, 96
5, 301568, Note_off_c, 3, 45, 0
5, 301568, Note_on_c, 3, 43, 96
5, 302080, Note_off_c, 3, 43, 0
5, 302080, Note_on_c, 3, 41, 96
5, 302592, Note_off_c, 3, 41, 0
5, 302592, Note_on_c, 3, 45, 96
5, 303104, Note_off_c, 3, 45, 0
5, 303104, Note_on_c, 3, 38, 96
5, 304128, Note_off_c, 3, 38, 0
5, 307200, Note_on_c, 3, 50, 96
5, 309248, Note_off_c, 3, 50, 0
5, 309248, Note_on_c, 3, 53, 96
5, 311296, Note_off_c, 3, 53, 0
5, 311296, Note_on_c, 3, 50, 96
5, 313344, Note_off_c, 3, 50, 0
5, 313344, Note_on_c, 3, 50, 96
5, 315392, Note_off_c, 3, 50, 0
5, 315392, Note_on_c, 3, 51, 96
5, 317440, Note_off_c, 3, 51, 0
5, 317440, Note_on_c, 3, 50, 96
5, 319488, Note_off_c, 3, 50, 0
5, 319488, Note_on_c, 3, 48, 96
5, 323584, Note_off_c, 3, 48, 0
5, 323584, Note_on_c, 3, 46, 96
5, 324608, Note_off_c, 3, 46, 0
5, 324608, Note_on_c, 3, 45, 96
5, 325632, Note_off_c, 3, 45, 0
5, 325632, Note_on_c, 3, 46, 96
5, 326656, Note_off_c, 3, 46, 0
5, 326656, Note_on_c, 3, 43, 96
5, 327680, Note_off_c, 3, 43, 0
5, 327680, Note_on_c, 3, 45, 96
5, 328704, Note_off_c, 3, 45, 0
5, 328704, Note_on_c, 3, 46, 96
5, 329728, Note_off_c, 3, 46, 0
5, 329728, Note_on_c, 3, 48, 96
5, 330752, Note_off_c, 3, 48, 0
5, 330752, Note_on_c, 3, 45, 96
5, 331776, Note_off_c, 3, 45, 0
5, 331776, Note_on_c, 3, 50, 96
5, 332800, Note_off_c, 3, 50, 0
5, 332800, Note_on_c, 3, 48, 96
5, 333824, Note_off_c, 3, 48, 0
5, 333824, Note_on_c, 3, 46, 96
5, 334848, Note_off_c, 3, 46, 0
5, 334848, Note_on_c, 3, 45, 96
5, 335872, Note_off_c, 3, 45, 0
5, 335872, Note_on_c, 3, 43, 96
5, 336384, Note_off_c, 3, 43, 0
5, 336384, Note_on_c, 3, 38, 96
5, 336896, Note_off_c, 3, 38, 0
5, 336896, Note_on_c, 3, 40, 96
5, 337408, Note_off_c, 3, 40, 0
5, 337408, Note_on_c, 3, 41, 96
5, 337920, Note_off_c, 3, 41, 0
5, 337920, Note_on_c, 3, 43, 96
5, 338432, Note_off_c, 3, 43, 0
5, 338432, Note_on_c, 3, 45, 96
5, 338944, Note_off_c, 3, 45, 0
5, 338944, Note_on_c, 3, 46, 96
5, 339456, Note_off_c, 3, 46, 0
5, 339456, Note_on_c, 3, 43, 96
5, 339968, Note_off_c, 3, 43, 0
5, 339968, Note_on_c, 3, 49, 96
5, 340480, Note_off_c, 3, 49, 0
5, 340480, Note_on_c, 3, 45, 96
5, 340992, Note_off_c, 3, 45, 0
5, 340992, Note_on_c, 3, 47, 96
5, 341504, Note_off_c, 3, 47, 0
5, 341504, Note_on_c, 3, 49, 96
5, 342016, Note_off_c, 3, 49, 0
5, 342016, Note_on_c, 3, 50, 96
5, 342528, Note_off_c, 3, 50, 0
5, 342528, Note_on_c, 3, 52, 96
5, 343040, Note_off_c, 3, 52, 0
5, 343040, Note_on_c, 3, 53, 96
5, 343552, Note_off_c, 3, 53, 0
5, 343552, Note_on_c, 3, 50, 96
5, 344064, Note_off_c, 3, 50, 0
5, 344064, Note_on_c, 3, 56, 96
5, 344576, Note_off_c, 3, 56, 0
5, 344576, Note_on_c, 3, 52, 96
5, 345088, Note_off_c, 3, 52, 0
5, 345088, Note_on_c, 3, 54, 96
5, 345600, Note_off_c, 3, 54, 0
5, 345600, Note_on_c, 3, 56, 96
5, 346112, Note_off_c, 3, 56, 0
5, 346112, Note_on_c, 3, 57, 96
5, 346624, Note_off_c, 3, 57, 0
5, 346624, Note_on_c, 3, 59, 96
5, 347136, Note_off_c, 3, 59, 0
5, 347136, Note_on_c, 3, 60, 96
5, 347648, Note_off_c, 3, 60, 0
5, 347648, Note_on_c, 3, 57, 96
5, 348160, Note_off_c, 3, 57, 0
5, 348160, Note_on_c, 3, 54, 96
5, 348672, Note_off_c, 3, 54, 0
5, 348672, Note_on_c, 3, 50, 96
5, 349184, Note_off_c, 3, 50, 0
5, 349184, Note_on_c, 3, 52, 96
5, 349696, Note_off_c, 3, 52, 0
5, 349696, Note_on_c, 3, 54, 96
5, 350208, Note_off_c, 3, 54, 0
5, 350208, Note_on_c, 3, 55, 96
5, 354304, Note_off_c, 3, 55, 0
5, 354304, Note_on_c, 3, 53, 96
5, 355328, Note_off_c, 3, 53, 0
5, 355328, Note_on_c, 3, 50, 96
5, 356352, Note_off_c, 3, 50, 0
5, 356352, Note_on_c, 3, 52, 96
5, 357376, Note_off_c, 3, 52, 0
5, 357376, Note_on_c, 3, 55, 96
5, 358400, Note_off_c, 3, 55, 0
5, 358400, Note_on_c, 3, 57, 96
5, 359424, Note_off_c, 3, 57, 0
5, 359424, Note_on_c, 3, 45, 96
5, 360448, Note_off_c, 3, 45, 0
5, 360448, Note_on_c, 3, 50, 96
5, 360960, Note_off_c, 3, 50, 0
5, 360960, Note_on_c, 3, 62, 96
5, 361472, Note_off_c, 3, 62, 0
5, 361472, Note_on_c, 3, 60, 96
5, 361984, Note_off_c, 3, 60, 0
5, 361984, Note_on_c, 3, 58, 96
5, 362496, Note_off_c, 3, 58, 0
5, 362496, Note_on_c, 3, 57, 96
5, 363008, Note_off_c, 3, 57, 0
5, 363008, Note_on_c, 3, 58, 96
5, 363520, Note_off_c, 3, 58, 0
5, 363520, Note_on_c, 3, 60, 96
5, 364032, Note_off_c, 3, 60, 0
5, 364032, Note_on_c, 3, 57, 96
5, 364544, Note_off_c, 3, 57, 0
5, 364544, Note_on_c, 3, 53, 96
5, 365056, Note_off_c, 3, 53, 0
5, 365056, Note_on_c, 3, 58, 96
5, 365568, Note_off_c, 3, 58, 0
5, 365568, Note_on_c, 3, 57, 96
5, 366080, Note_off_c, 3, 57, 0
5, 366080, Note_on_c, 3, 55, 96
5, 366592, Note_off_c, 3, 55, 0
5, 366592, Note_on_c, 3, 53, 96
5, 367104, Note_off_c, 3, 53, 0
5, 367104, Note_on_c, 3, 55, 96
5, 367616, Note_off_c, 3, 55, 0
5, 367616, Note_on_c, 3, 57, 96
5, 368128, Note_off_c, 3, 57, 0
5, 368128, Note_on_c, 3, 53, 96
5, 368640, Note_off_c, 3, 53, 0
5, 368640, Note_on_c, 3, 50, 96
5, 369152, Note_off_c, 3, 50, 0
5, 369152, Note_on_c, 3, 48, 96
5, 369664, Note_off_c, 3, 48, 0
5, 369664, Note_on_c, 3, 50, 96
5, 370176, Note_off_c, 3, 50, 0
5, 370176, Note_on_c, 3, 52, 96
5, 370688, Note_off_c, 3, 52, 0
5, 370688, Note_on_c, 3, 53, 96
5, 371200, Note_off_c, 3, 53, 0
5, 371200, Note_on_c, 3, 52, 96
5, 371712, Note_off_c, 3, 52, 0
5, 371712, Note_on_c, 3, 50, 96
5, 372224, Note_off_c, 3, 50, 0
5, 372224, Note_on_c, 3, 53, 96
5, 372736, Note_off_c, 3, 53, 0
5, 372736, Note_on_c, 3, 55, 96
5, 373248, Note_off_c, 3, 55, 0
5, 373248, Note_on_c, 3, 43, 96
5, 373760, Note_off_c, 3, 43, 0
5, 373760, Note_on_c, 3, 45, 96
5, 374272, Note_off_c, 3, 45, 0
5, 374272, Note_on_c, 3, 46, 96
5, 374784, Note_off_c, 3, 46, 0
5, 374784, Note_on_c, 3, 48, 96
5, 375296, Note_off_c, 3, 48, 0
5, 375296, Note_on_c, 3, 50, 96
5, 375808, Note_off_c, 3, 50, 0
5, 375808, Note_on_c, 3, 51, 96
5, 376320, Note_off_c, 3, 51, 0
5, 376320, Note_on_c, 3, 48, 96
5, 376832, Note_off_c, 3, 48, 0
5, 376832, Note_on_c, 3, 53, 96
5, 384000, Note_off_c, 3, 53, 0
5, 384000, Note_on_c, 3, 52, 96
5, 385024, Note_off_c, 3, 52, 0
5, 385024, Note_on_c, 3, 50, 96
5, 386048, Note_off_c, 3, 50, 0
5, 386048, Note_on_c, 3, 52, 96
5, 386560, Note_off_c, 3, 52, 0
5, 386560, Note_on_c, 3, 53, 96
5, 387072, Note_off_c, 3, 53, 0
5, 387072, Note_on_c, 3, 55, 96
5, 387584, Note_off_c, 3, 55, 0
5, 387584, Note_on_c, 3, 57, 96
5, 388096, Note_off_c, 3, 57, 0
5, 388096, Note_on_c, 3, 58, 96
5, 388608, Note_off_c, 3, 58, 0
5, 388608, Note_on_c, 3, 55, 96
5, 389120, Note_off_c, 3, 55, 0
5, 389120, Note_on_c, 3, 48, 96
5, 391168, Note_off_c, 3, 48, 0
5, 391168, Note_on_c, 3, 53, 96
5, 393728, Note_off_c, 3, 53, 0
5, 393728, Note_on_c, 3, 47, 96
5, 394240, Note_off_c, 3, 47, 0
5, 394240, Note_on_c, 3, 48, 96
5, 394752, Note_off_c, 3, 48, 0
5, 394752, Note_on_c, 3, 50, 96
5, 395264, Note_off_c, 3, 50, 0
5, 395264, Note_on_c, 3, 52, 96
5, 395776, Note_off_c, 3, 52, 0
5, 395776, Note_on_c, 3, 54, 96
5, 396288, Note_off_c, 3, 54, 0
5, 396288, Note_on_c, 3, 56, 96
5, 396800, Note_off_c, 3, 56, 0
5, 396800, Note_on_c, 3, 52, 96
5, 397312, Note_off_c, 3, 52, 0
5, 397312, Note_on_c, 3, 57, 96
5, 399872, Note_off_c, 3, 57, 0
5, 399872, Note_on_c, 3, 60, 96
5, 400384, Note_off_c, 3, 60, 0
5, 400384, Note_on_c, 3, 58, 96
5, 400896, Note_off_c, 3, 58, 0
5, 400896, Note_on_c, 3, 57, 96
5, 401408, Note_off_c, 3, 57, 0
5, 401408, Note_on_c, 3, 55, 96
5, 405504, Note_off_c, 3, 55, 0
5, 405504, Note_on_c, 3, 57, 96
5, 409600, Note_off_c, 3, 57, 0
5, 410112, Note_on_c, 3, 52, 96
5, 410624, Note_off_c, 3, 52, 0
5, 410624, Note_on_c, 3, 54, 96
5, 411136, Note_off_c, 3, 54, 0
5, 411136, Note_on_c, 3, 56, 96
5, 411648, Note_off_c, 3, 56, 0
5, 411648, Note_on_c, 3, 57, 96
5, 412160, Note_off_c, 3, 57, 0
5, 412160, Note_on_c, 3, 59, 96
5, 412672, Note_off_c, 3, 59, 0
5, 412672, Note_on_c, 3, 60, 96
5, 413184, Note_off_c, 3, 60, 0
5, 413184, Note_on_c, 3, 57, 96
5, 413696, Note_off_c, 3, 57, 0
5, 413696, Note_on_c, 3, 53, 96
5, 414208, Note_off_c, 3, 53, 0
5, 414208, Note_on_c, 3, 50, 96
5, 414720, Note_off_c, 3, 50, 0
5, 414720, Note_on_c, 3, 52, 96
5, 415232, Note_off_c, 3, 52, 0
5, 415232, Note_on_c, 3, 53, 96
5, 415744, Note_off_c, 3, 53, 0
5, 415744, Note_on_c, 3, 55, 96
5, 416256, Note_off_c, 3, 55, 0
5, 416256, Note_on_c, 3, 57, 96
5, 416768, Note_off_c, 3, 57, 0
5, 416768, Note_on_c, 3, 58, 96
5, 417280, Note_off_c, 3, 58, 0
5, 417280, Note_on_c, 3, 55, 96
5, 417792, Note_off_c, 3, 55, 0
5, 417792, Note_on_c, 3, 60, 96
5, 418816, Note_off_c, 3, 60, 0
5, 418816, Note_on_c, 3, 55, 96
5, 419840, Note_off_c, 3, 55, 0
5, 419840, Note_on_c, 3, 57, 96
5, 420864, Note_off_c, 3, 57, 0
5, 420864, Note_on_c, 3, 60, 96
5, 421888, Note_off_c, 3, 60, 0
5, 421888, Note_on_c, 3, 58, 96
5, 422912, Note_off_c, 3, 58, 0
5, 422912, Note_on_c, 3, 57, 96
5, 423936, Note_off_c, 3, 57, 0
5, 423936, Note_on_c, 3, 55, 96
5, 427008, Note_off_c, 3, 55, 0
5, 427008, Note_on_c, 3, 58, 96
5, 427520, Note_off_c, 3, 58, 0
5, 427520, Note_on_c, 3, 57, 96
5, 428032, Note_off_c, 3, 57, 0
5, 428032, Note_on_c, 3, 58, 96
5, 430080, Note_off_c, 3, 58, 0
5, 430080, Note_on_c, 3, 57, 96
5, 432128, Note_off_c, 3, 57, 0
5, 432128, Note_on_c, 3, 58, 96
5, 435200, Note_off_c, 3, 58, 0
5, 435200, Note_on_c, 3, 57, 96
5, 436224, Note_off_c, 3, 57, 0
5, 436224, Note_on_c, 3, 55, 96
5, 438272, Note_off_c, 3, 55, 0
5, 438272, Note_on_c, 3, 53, 96
5, 440832, Note_off_c, 3, 53, 0
5, 440832, Note_on_c, 3, 55, 96
5, 441344, Note_off_c, 3, 55, 0
5, 441344, Note_on_c, 3, 57, 96
5, 441856, Note_off_c, 3, 57, 0
5, 441856, Note_on_c, 3, 58, 96
5, 442368, Note_off_c, 3, 58, 0
5, 442368, Note_on_c, 3, 60, 96
5, 444928, Note_off_c, 3, 60, 0
5, 444928, Note_on_c, 3, 48, 96
5, 445440, Note_off_c, 3, 48, 0
5, 445440, Note_on_c, 3, 50, 96
5, 445952, Note_off_c, 3, 50, 0
5, 445952, Note_on_c, 3, 52, 96
5, 446464, Note_off_c, 3, 52, 0
5, 446464, Note_on_c, 3, 53, 96
5, 446976, Note_off_c, 3, 53, 0
5, 446976, Note_on_c, 3, 55, 96
5, 447488, Note_off_c, 3, 55, 0
5, 447488, Note_on_c, 3, 57, 96
5, 448000, Note_off_c, 3, 57, 0
5, 448000, Note_on_c, 3, 53, 96
5, 448512, Note_off_c, 3, 53, 0
5, 448512, Note_on_c, 3, 59, 96
5, 449024, Note_off_c, 3, 59, 0
5, 449024, Note_on_c, 3, 47, 96
5, 449536, Note_off_c, 3, 47, 0
5, 449536, Note_on_c, 3, 48, 96
5, 450048, Note_off_c, 3, 48, 0
5, 450048, Note_on_c, 3, 50, 96
5, 450560, Note_off_c, 3, 50, 0
5, 450560, Note_on_c, 3, 52, 96
5, 451072, Note_off_c, 3, 52, 0
5, 451072, Note_on_c, 3, 53, 96
5, 451584, Note_off_c, 3, 53, 0
5, 451584, Note_on_c, 3, 55, 96
5, 452096, Note_off_c, 3, 55, 0
5, 452096, Note_on_c, 3, 52, 96
5, 452608, Note_off_c, 3, 52, 0
5, 452608, Note_on_c, 3, 57, 96
5, 453120, Note_off_c, 3, 57, 0
5, 453120, Note_on_c, 3, 45, 96
5, 453632, Note_off_c, 3, 45, 0
5, 453632, Note_on_c, 3, 47, 96
5, 454144, Note_off_c, 3, 47, 0
5, 454144, Note_on_c, 3, 48, 96
5, 454656, Note_off_c, 3, 48, 0
5, 454656, Note_on_c, 3, 50, 96
5, 455168, Note_off_c, 3, 50, 0
5, 455168, Note_on_c, 3, 52, 96
5, 455680, Note_off_c, 3, 52, 0
5, 455680, Note_on_c, 3, 53, 96
5, 456192, Note_off_c, 3, 53, 0
5, 456192, Note_on_c, 3, 50, 96
5, 456704, Note_off_c, 3, 50, 0
5, 456704, Note_on_c, 3, 55, 96
5, 457216, Note_off_c, 3, 55, 0
5, 457216, Note_on_c, 3, 52, 96
5, 457728, Note_off_c, 3, 52, 0
5, 457728, Note_on_c, 3, 53, 96
5, 458240, Note_off_c, 3, 53, 0
5, 458240, Note_on_c, 3, 55, 96
5, 458752, Note_off_c, 3, 55, 0
5, 458752, Note_on_c, 3, 48, 96
5, 459264, Note_off_c, 3, 48, 0
5, 459264, Note_on_c, 3, 55, 96
5, 459776, Note_off_c, 3, 55, 0
5, 459776, Note_on_c, 3, 57, 96
5, 460288, Note_off_c, 3, 57, 0
5, 460288, Note_on_c, 3, 59, 96
5, 460800, Note_off_c, 3, 59, 0
5, 460800, Note_on_c, 3, 60, 96
5, 465408, Note_off_c, 3, 60, 0
5, 465408, Note_on_c, 3, 60, 96
5, 465920, Note_off_c, 3, 60, 0
5, 465920, Note_on_c, 3, 59, 96
5, 466432, Note_off_c, 3, 59, 0
5, 466432, Note_on_c, 3, 57, 96
5, 466944, Note_off_c, 3, 57, 0
5, 466944, Note_on_c, 3, 56, 96
5, 467456, Note_off_c, 3, 56, 0
5, 467456, Note_on_c, 3, 57, 96
5, 467968, Note_off_c, 3, 57, 0
5, 467968, Note_on_c, 3, 59, 96
5, 468480, Note_off_c, 3, 59, 0
5, 468480, Note_on_c, 3, 56, 96
5, 468992, Note_off_c, 3, 56, 0
5, 468992, Note_on_c, 3, 48, 96
5, 473088, Note_off_c, 3, 48, 0
5, 473088, Note_on_c, 3, 53, 96
5, 477184, Note_off_c, 3, 53, 0
5, 477184, Note_on_c, 3, 52, 96
5, 479232, Note_off_c, 3, 52, 0
5, 479232, Note_on_c, 3, 50, 96
5, 481280, Note_off_c, 3, 50, 0
5, 481280, Note_on_c, 3, 52, 96
5, 483840, Note_off_c, 3, 52, 0
5, 483840, Note_on_c, 3, 52, 96
5, 484352, Note_off_c, 3, 52, 0
5, 484352, Note_on_c, 3, 54, 96
5, 484864, Note_off_c, 3, 54, 0
5, 484864, Note_on_c, 3, 56, 96
5, 485376, Note_off_c, 3, 56, 0
5, 485376, Note_on_c, 3, 57, 96
5, 485888, Note_off_c, 3, 57, 0
5, 485888, Note_on_c, 3, 59, 96
5, 486400, Note_off_c, 3, 59, 0
5, 486400, Note_on_c, 3, 60, 96
5, 486912, Note_off_c, 3, 60, 0
5, 486912, Note_on_c, 3, 57, 96
5, 487424, Note_off_c, 3, 57, 0
5, 487424, Note_on_c, 3, 55, 96
5, 490496, Note_off_c, 3, 55, 0
5, 490496, Note_on_c, 3, 54, 96
5, 491520, Note_off_c, 3, 54, 0
5, 491520, Note_on_c, 3, 55, 96
5, 495616, Note_off_c, 3, 55, 0
5, 500224, Note_on_c, 3, 55, 96
5, 500736, Note_off_c, 3, 55, 0
5, 500736, Note_on_c, 3, 57, 96
5, 501248, Note_off_c, 3, 57, 0
5, 501248, Note_on_c, 3, 58, 96
5, 501760, Note_off_c, 3, 58, 0
5, 501760, Note_on_c, 3, 60, 96
5, 502272, Note_off_c, 3, 60, 0
5, 502272, Note_on_c, 3, 62, 96
5, 502784, Note_off_c, 3, 62, 0
5, 502784, Note_on_c, 3, 63, 96
5, 503296, Note_off_c, 3, 63, 0
5, 503296, Note_on_c, 3, 60, 96
5, 503808, Note_off_c, 3, 60, 0
5, 503808, Note_on_c, 3, 62, 96
5, 505856, Note_off_c, 3, 62, 0
5, 508416, Note_on_c, 3, 65, 96
5, 508928, Note_off_c, 3, 65, 0
5, 508928, Note_on_c, 3, 64, 96
5, 509440, Note_off_c, 3, 64, 0
5, 509440, Note_on_c, 3, 62, 96
5, 509952, Note_off_c, 3, 62, 0
5, 509952, Note_on_c, 3, 61, 96
5, 510464, Note_off_c, 3, 61, 0
5, 510464, Note_on_c, 3, 62, 96
5, 510976, Note_off_c, 3, 62, 0
5, 510976, Note_on_c, 3, 64, 96
5, 511488, Note_off_c, 3, 64, 0
5, 511488, Note_on_c, 3, 61, 96
5, 512000, Note_off_c, 3, 61, 0
5, 512000, Note_on_c, 3, 62, 96
5, 516096, Note_off_c, 3, 62, 0
5, 520704, Note_on_c, 3, 50, 96
5, 521216, Note_off_c, 3, 50, 0
5, 521216, Note_on_c, 3, 52, 96
5, 521728, Note_off_c, 3, 52, 0
5, 521728, Note_on_c, 3, 53, 96
5, 522240, Note_off_c, 3, 53, 0
5, 522240, Note_on_c, 3, 55, 96
5, 522752, Note_off_c, 3, 55, 0
5, 522752, Note_on_c, 3, 57, 96
5, 523264, Note_off_c, 3, 57, 0
5, 523264, Note_on_c, 3, 58, 96
5, 523776, Note_off_c, 3, 58, 0
5, 523776, Note_on_c, 3, 55, 96
5, 524288, Note_off_c, 3, 55, 0
5, 524288, Note_on_c, 3, 52, 96
5, 525312, Note_off_c, 3, 52, 0
5, 525312, Note_on_c, 3, 53, 96
5, 526336, Note_off_c, 3, 53, 0
5, 526336, Note_on_c, 3, 55, 96
5, 528384, Note_off_c, 3, 55, 0
5, 528384, Note_on_c, 3, 57, 96
5, 530432, Note_off_c, 3, 57, 0
5, 537088, Note_on_c, 3, 50, 96
5, 537600, Note_off_c, 3, 50, 0
5, 537600, Note_on_c, 3, 52, 96
5, 538112, Note_off_c, 3, 52, 0
5, 538112, Note_on_c, 3, 54, 96
5, 538624, Note_off_c, 3, 54, 0
5, 538624, Note_on_c, 3, 55, 96
5, 539136, Note_off_c, 3, 55, 0
5, 539136, Note_on_c, 3, 57, 96
5, 539648, Note_off_c, 3, 57, 0
5, 539648, Note_on_c, 3, 58, 96
5, 540160, Note_off_c, 3, 58, 0
5, 540160, Note_on_c, 3, 55, 96
5, 540672, Note_off_c, 3, 55, 0
5, 540672, Note_on_c, 3, 49, 96
5, 541696, Note_off_c, 3, 49, 0
5, 541696, Note_on_c, 3, 50, 96
5, 542720, Note_off_c, 3, 50, 0
5, 542720, Note_on_c, 3, 55, 96
5, 544768, Note_off_c, 3, 55, 0
5, 544768, Note_on_c, 3, 53, 96
5, 545792, Note_off_c, 3, 53, 0
5, 547840, Note_on_c, 3, 55, 96
5, 548864, Note_off_c, 3, 55, 0
5, 548864, Note_on_c, 3, 53, 96
5, 549888, Note_off_c, 3, 53, 0
5, 549888, Note_on_c, 3, 52, 96
5, 550400, Note_off_c, 3, 52, 0
5, 550400, Note_on_c, 3, 50, 96
5, 550912, Note_off_c, 3, 50, 0
5, 550912, Note_on_c, 3, 52, 96
5, 552960, Note_off_c, 3, 52, 0
5, 552960, Note_on_c, 3, 50, 96
5, 563200, Note_off_c, 3, 50, 0
5, 563200, End_track
6, 0, Start_track
6, 0, Title_t, "Instrument 5"
6, 167936, Note_on_c, 4, 45, 96
6, 172032, Note_off_c, 4, 45, 0
6, 172032, Note_on_c, 4, 50, 96
6, 174080, Note_off_c, 4, 50, 0
6, 397312, Note_on_c, 4, 45, 96
6, 401408, Note_off_c, 4, 45, 0
6, 401408, Note_on_c, 4, 48, 96
6, 405504, Note_off_c, 4, 48, 0
6, 405504, Note_on_c, 4, 45, 96
6, 409600, Note_off_c, 4, 45, 0
6, 409600, Note_on_c, 4, 45, 96
6, 413696, Note_off_c, 4, 45, 0
6, 413696, Note_on_c, 4, 46, 96
6, 417792, Note_off_c, 4, 46, 0
6, 417792, Note_on_c, 4, 45, 96
6, 421888, Note_off_c, 4, 45, 0
6, 421888, Note_on_c, 4, 43, 96
6, 430080, Note_off_c, 4, 43, 0
6, 430080, Note_on_c, 4, 41, 96
6, 440320, Note_off_c, 4, 41, 0
6, 483328, Note_on_c, 4, 45, 96
6, 487424, Note_off_c, 4, 45, 0
6, 487424, Note_on_c, 4, 48, 96
6, 491520, Note_off_c, 4, 48, 0
6, 491520, Note_on_c, 4, 43, 96
6, 495616, Note_off_c, 4, 43, 0
6, 495616, Note_on_c, 4, 43, 96
6, 499712, Note_off_c, 4, 43, 0
6, 499712, Note_on_c, 4, 43, 96
6, 503808, Note_off_c, 4, 43, 0
6, 503808, Note_on_c, 4, 43, 96
6, 507904, Note_off_c, 4, 43, 0
6, 507904, Note_on_c, 4, 43, 96
6, 512000, Note_off_c, 4, 43, 0
6, 512000, Note_on_c, 4, 38, 96
6, 516096, Note_off_c, 4, 38, 0
6, 516096, Note_on_c, 4, 41, 96
6, 520192, Note_off_c, 4, 41, 0
6, 520192, Note_on_c, 4, 40, 96
6, 528384, Note_off_c, 4, 40, 0
6, 528384, Note_on_c, 4, 38, 96
6, 545792, Note_off_c, 4, 38, 0
6, 545792, Note_on_c, 4, 40, 96
6, 546816, Note_off_c, 4, 40, 0
6, 546816, Note_on_c, 4, 41, 96
6, 547840, Note_off_c, 4, 41, 0
6, 547840, Note_on_c, 4, 43, 96
6, 548864, Note_off_c, 4, 43, 0
6, 548864, Note_on_c, 4, 45, 96
6, 552960, Note_off_c, 4, 45, 0
6, 552960, Note_on_c, 4, 38, 96
6, 563200, Note_off_c, 4, 38, 0
6, 563200, End_track
0, 0, End_of_file
