0, 0, Header, 1, 8, 120
1, 0, Start_track
1, 0, Title_t, "untitled"
1, 0, SMPTE_offset, 96, 0, 3, 0, 0
1, 0, Time_signature, 4, 2, 24, 8
1, 0, Key_signature, 0, "major"
1, 0, Tempo, 1200000
1, 0, Marker_t, "MIDI conversion by MIDISCAN, MUSITEK, Ojai, California"
1, 0, End_track
2, 0, Start_track
2, 0, MIDI_port, 0
2, 0, Title_t, "Treble Clef       "
2, 0, Program_c, 0, 19
2, 0, Control_c, 0, 7, 80
2, 0, Control_c, 0, 10, 74
2, 0, Note_on_c, 0, 67, 127
2, 6, Note_on_c, 0, 67, 127
2, 117, Note_on_c, 0, 72, 127
2, 247, Note_on_c, 0, 67, 0
2, 297, Note_on_c, 0, 72, 0
2, 301, Note_on_c, 0, 74, 127
2, 360, Note_on_c, 0, 71, 127
2, 361, Note_on_c, 0, 74, 0
2, 479, Note_on_c, 0, 71, 0
2, 480, Note_on_c, 0, 76, 127
2, 540, Note_on_c, 0, 67, 0
2, 540, Note_on_c, 0, 67, 127
2, 599, Note_on_c, 0, 67, 0
2, 600, Note_on_c, 0, 72, 127
2, 659, Note_on_c, 0, 76, 0
2, 660, Note_on_c, 0, 77, 127
2, 719, Note_on_c, 0, 77, 0
2, 720, Note_on_c, 0, 74, 127
2, 780, Note_on_c, 0, 72, 0
2, 781, Note_on_c, 0, 72, 127
2, 838, Note_on_c, 0, 71, 127
2, 841, Note_on_c, 0, 72, 0
2, 899, Note_on_c, 0, 74, 0
2, 900, Note_on_c, 0, 76, 127
2, 958, Note_on_c, 0, 71, 0
2, 960, Note_on_c, 0, 76, 0
2, 960, Note_on_c, 0, 72, 127
2, 966, Note_on_c, 0, 71, 127
2, 1026, Note_on_c, 0, 71, 0
2, 1026, Note_on_c, 0, 71, 127
2, 1077, Note_on_c, 0, 69, 127
2, 1086, Note_on_c, 0, 71, 0
2, 1260, Note_on_c, 0, 72, 0
2, 1260, Note_on_c, 0, 76, 127
2, 1314, Note_on_c, 0, 74, 127
2, 1320, Note_on_c, 0, 76, 0
2, 1320, Note_on_c, 0, 69, 127
2, 1374, Note_on_c, 0, 74, 0
2, 1380, Note_on_c, 0, 72, 127
2, 1437, Note_on_c, 0, 69, 0
2, 1440, Note_on_c, 0, 72, 0
2, 1440, Note_on_c, 0, 71, 127
2, 1499, Note_on_c, 0, 71, 0
2, 1500, Note_on_c, 0, 69, 127
2, 1559, Note_on_c, 0, 69, 0
2, 1559, Note_on_c, 0, 69, 0
2, 1560, Note_on_c, 0, 71, 127
2, 1560, Note_on_c, 0, 67, 127
2, 1679, Note_on_c, 0, 67, 0
2, 1679, Note_on_c, 0, 71, 0
2, 1740, Note_on_c, 0, 76, 127
2, 1799, Note_on_c, 0, 76, 0
2, 1800, Note_on_c, 0, 79, 127
2, 1859, Note_on_c, 0, 79, 0
2, 1860, Note_on_c, 0, 76, 127
2, 1919, Note_on_c, 0, 76, 0
2, 1920, Note_on_c, 0, 72, 127
2, 1979, Note_on_c, 0, 72, 0
2, 1980, Note_on_c, 0, 76, 127
2, 2039, Note_on_c, 0, 76, 0
2, 2040, Note_on_c, 0, 67, 127
2, 2099, Note_on_c, 0, 67, 0
2, 2100, Note_on_c, 0, 72, 127
2, 2159, Note_on_c, 0, 72, 0
2, 2160, Note_on_c, 0, 69, 127
2, 2219, Note_on_c, 0, 69, 0
2, 2220, Note_on_c, 0, 72, 127
2, 2279, Note_on_c, 0, 72, 0
2, 2280, Note_on_c, 0, 74, 127
2, 2339, Note_on_c, 0, 74, 0
2, 2340, Note_on_c, 0, 76, 127
2, 2399, Note_on_c, 0, 76, 0
2, 2400, Note_on_c, 0, 77, 127
2, 2459, Note_on_c, 0, 77, 0
2, 2460, Note_on_c, 0, 76, 127
2, 2519, Note_on_c, 0, 76, 0
2, 2520, Note_on_c, 0, 74, 127
2, 2579, Note_on_c, 0, 74, 0
2, 2580, Note_on_c, 0, 72, 127
2, 2639, Note_on_c, 0, 72, 0
2, 2640, Note_on_c, 0, 71, 127
2, 2699, Note_on_c, 0, 71, 0
2, 2700, Note_on_c, 0, 67, 127
2, 2759, Note_on_c, 0, 67, 0
2, 2760, Note_on_c, 0, 72, 127
2, 2939, Note_on_c, 0, 72, 0
2, 2940, Note_on_c, 0, 74, 127
2, 2969, Note_on_c, 0, 74, 0
2, 2970, Note_on_c, 0, 72, 127
2, 2999, Note_on_c, 0, 72, 0
2, 3000, Note_on_c, 0, 71, 127
2, 3000, Note_on_c, 0, 67, 127
2, 3059, Note_on_c, 0, 71, 0
2, 3060, Note_on_c, 0, 72, 127
2, 3089, Note_on_c, 0, 72, 0
2, 3090, Note_on_c, 0, 71, 127
2, 3119, Note_on_c, 0, 71, 0
2, 3119, Note_on_c, 0, 67, 0
2, 3120, Note_on_c, 0, 69, 127
2, 3120, Note_on_c, 0, 64, 127
2, 3359, Note_on_c, 0, 64, 0
2, 3360, Note_on_c, 0, 65, 127
2, 3419, Note_on_c, 0, 69, 0
2, 3420, Note_on_c, 0, 71, 127
2, 3449, Note_on_c, 0, 71, 0
2, 3450, Note_on_c, 0, 72, 127
2, 3479, Note_on_c, 0, 72, 0
2, 3480, Note_on_c, 0, 74, 127
2, 3599, Note_on_c, 0, 74, 0
2, 3600, Note_on_c, 0, 74, 127
2, 3659, Note_on_c, 0, 74, 0
2, 3660, Note_on_c, 0, 76, 127
2, 3689, Note_on_c, 0, 76, 0
2, 3690, Note_on_c, 0, 77, 127
2, 3719, Note_on_c, 0, 77, 0
2, 3720, Note_on_c, 0, 71, 127
2, 3779, Note_on_c, 0, 71, 0
2, 3780, Note_on_c, 0, 72, 127
2, 3809, Note_on_c, 0, 72, 0
2, 3810, Note_on_c, 0, 74, 127
2, 3839, Note_on_c, 0, 74, 0
2, 3839, Note_on_c, 0, 65, 0
2, 3840, Note_on_c, 0, 68, 127
2, 3842, Note_on_c, 0, 65, 127
2, 3899, Note_on_c, 0, 64, 127
2, 3901, Note_on_c, 0, 65, 0
2, 3928, Note_on_c, 0, 64, 0
2, 3928, Note_on_c, 0, 62, 127
2, 3957, Note_on_c, 0, 62, 0
2, 3959, Note_on_c, 0, 60, 127
2, 4019, Note_on_c, 0, 69, 127
2, 4020, Note_on_c, 0, 68, 0
2, 4049, Note_on_c, 0, 69, 0
2, 4049, Note_on_c, 0, 71, 127
2, 4078, Note_on_c, 0, 60, 0
2, 4079, Note_on_c, 0, 71, 0
2, 4079, Note_on_c, 0, 69, 127
2, 4139, Note_on_c, 0, 69, 0
2, 4139, Note_on_c, 0, 71, 127
2, 4169, Note_on_c, 0, 71, 0
2, 4171, Note_on_c, 0, 72, 127
2, 4199, Note_on_c, 0, 74, 127
2, 4201, Note_on_c, 0, 72, 0
2, 4259, Note_on_c, 0, 74, 0
2, 4259, Note_on_c, 0, 72, 127
2, 4289, Note_on_c, 0, 72, 0
2, 4290, Note_on_c, 0, 74, 127
2, 4320, Note_on_c, 0, 74, 0
2, 4320, Note_on_c, 0, 71, 127
2, 4320, Note_on_c, 0, 71, 127
2, 4321, Note_on_c, 0, 64, 127
2, 4379, Note_on_c, 0, 71, 0
2, 4499, Note_on_c, 0, 71, 0
2, 4500, Note_on_c, 0, 72, 127
2, 4529, Note_on_c, 0, 72, 0
2, 4530, Note_on_c, 0, 71, 127
2, 4559, Note_on_c, 0, 71, 0
2, 4560, Note_on_c, 0, 69, 127
2, 4739, Note_on_c, 0, 69, 0
2, 4740, Note_on_c, 0, 71, 127
2, 4769, Note_on_c, 0, 71, 0
2, 4770, Note_on_c, 0, 68, 127
2, 4799, Note_on_c, 0, 68, 0
2, 4800, Note_on_c, 0, 72, 127
2, 5039, Note_on_c, 0, 72, 0
2, 5040, Note_on_c, 0, 72, 127
2, 5040, Note_on_c, 0, 62, 127
2, 5041, Note_on_c, 0, 64, 0
2, 5099, Note_on_c, 0, 72, 0
2, 5100, Note_on_c, 0, 74, 127
2, 5129, Note_on_c, 0, 74, 0
2, 5130, Note_on_c, 0, 72, 127
2, 5160, Note_on_c, 0, 72, 0
2, 5162, Note_on_c, 0, 70, 127
2, 5221, Note_on_c, 0, 70, 0
2, 5221, Note_on_c, 0, 72, 127
2, 5250, Note_on_c, 0, 72, 0
2, 5250, Note_on_c, 0, 69, 127
2, 5279, Note_on_c, 0, 62, 0
2, 5280, Note_on_c, 0, 69, 0
2, 5280, Note_on_c, 0, 70, 127
2, 5280, Note_on_c, 0, 62, 127
2, 5339, Note_on_c, 0, 64, 127
2, 5340, Note_on_c, 0, 62, 0
2, 5369, Note_on_c, 0, 64, 0
2, 5369, Note_on_c, 0, 66, 127
2, 5397, Note_on_c, 0, 67, 127
2, 5399, Note_on_c, 0, 66, 0
2, 5517, Note_on_c, 0, 67, 0
2, 5579, Note_on_c, 0, 64, 127
2, 5609, Note_on_c, 0, 67, 127
2, 5610, Note_on_c, 0, 70, 0
2, 5639, Note_on_c, 0, 67, 0
2, 5639, Note_on_c, 0, 64, 0
2, 5641, Note_on_c, 0, 69, 127
2, 5699, Note_on_c, 0, 67, 127
2, 5701, Note_on_c, 0, 69, 0
2, 5729, Note_on_c, 0, 67, 0
2, 5729, Note_on_c, 0, 69, 127
2, 5759, Note_on_c, 0, 69, 0
2, 5760, Note_on_c, 0, 65, 127
2, 5765, Note_on_c, 0, 64, 127
2, 5818, Note_on_c, 0, 62, 127
2, 5825, Note_on_c, 0, 64, 0
2, 5848, Note_on_c, 0, 62, 0
2, 5850, Note_on_c, 0, 61, 127
2, 5877, Note_on_c, 0, 62, 127
2, 5880, Note_on_c, 0, 61, 0
2, 5937, Note_on_c, 0, 64, 127
2, 5939, Note_on_c, 0, 65, 0
2, 5968, Note_on_c, 0, 64, 0
2, 5968, Note_on_c, 0, 65, 127
2, 5997, Note_on_c, 0, 65, 0
2, 5997, Note_on_c, 0, 62, 0
2, 5997, Note_on_c, 0, 64, 127
2, 5998, Note_on_c, 0, 67, 127
2, 6058, Note_on_c, 0, 67, 0
2, 6061, Note_on_c, 0, 69, 127
2, 6088, Note_on_c, 0, 70, 127
2, 6091, Note_on_c, 0, 69, 0
2, 6118, Note_on_c, 0, 70, 0
2, 6121, Note_on_c, 0, 69, 127
2, 6177, Note_on_c, 0, 64, 0
2, 6180, Note_on_c, 0, 64, 127
2, 6209, Note_on_c, 0, 64, 0
2, 6210, Note_on_c, 0, 65, 127
2, 6239, Note_on_c, 0, 65, 0
2, 6240, Note_on_c, 0, 66, 127
2, 6241, Note_on_c, 0, 69, 0
2, 6300, Note_on_c, 0, 71, 127
2, 6329, Note_on_c, 0, 71, 0
2, 6330, Note_on_c, 0, 72, 127
2, 6359, Note_on_c, 0, 72, 0
2, 6360, Note_on_c, 0, 74, 127
2, 6419, Note_on_c, 0, 66, 0
2, 6420, Note_on_c, 0, 64, 127
2, 6449, Note_on_c, 0, 64, 0
2, 6450, Note_on_c, 0, 66, 127
2, 6479, Note_on_c, 0, 66, 0
2, 6480, Note_on_c, 0, 67, 127
2, 6539, Note_on_c, 0, 74, 0
2, 6540, Note_on_c, 0, 71, 127
2, 6569, Note_on_c, 0, 71, 0
2, 6570, Note_on_c, 0, 72, 127
2, 6599, Note_on_c, 0, 72, 0
2, 6600, Note_on_c, 0, 74, 127
2, 6659, Note_on_c, 0, 74, 0
2, 6660, Note_on_c, 0, 76, 127
2, 6689, Note_on_c, 0, 76, 0
2, 6690, Note_on_c, 0, 78, 127
2, 6719, Note_on_c, 0, 78, 0
2, 6719, Note_on_c, 0, 67, 0
2, 6720, Note_on_c, 0, 76, 127
2, 6720, Note_on_c, 0, 67, 127
2, 6779, Note_on_c, 0, 67, 0
2, 6780, Note_on_c, 0, 69, 127
2, 6809, Note_on_c, 0, 69, 0
2, 6810, Note_on_c, 0, 71, 127
2, 6839, Note_on_c, 0, 71, 0
2, 6840, Note_on_c, 0, 72, 127
2, 6959, Note_on_c, 0, 72, 0
2, 6960, Note_on_c, 0, 69, 127
2, 7019, Note_on_c, 0, 76, 0
2, 7020, Note_on_c, 0, 74, 127
2, 7049, Note_on_c, 0, 74, 0
2, 7050, Note_on_c, 0, 72, 127
2, 7079, Note_on_c, 0, 72, 0
2, 7080, Note_on_c, 0, 74, 127
2, 7139, Note_on_c, 0, 69, 0
2, 7140, Note_on_c, 0, 71, 127
2, 7169, Note_on_c, 0, 71, 0
2, 7170, Note_on_c, 0, 72, 127
2, 7199, Note_on_c, 0, 72, 0
2, 7200, Note_on_c, 0, 71, 127
2, 7259, Note_on_c, 0, 74, 0
2, 7260, Note_on_c, 0, 76, 127
2, 7289, Note_on_c, 0, 76, 0
2, 7290, Note_on_c, 0, 77, 127
2, 7319, Note_on_c, 0, 77, 0
2, 7320, Note_on_c, 0, 76, 127
2, 7380, Note_on_c, 0, 71, 0
2, 7381, Note_on_c, 0, 72, 127
2, 7410, Note_on_c, 0, 74, 127
2, 7411, Note_on_c, 0, 72, 0
2, 7440, Note_on_c, 0, 74, 0
2, 7440, Note_on_c, 0, 72, 127
2, 7497, Note_on_c, 0, 77, 127
2, 7500, Note_on_c, 0, 76, 0
2, 7527, Note_on_c, 0, 77, 0
2, 7531, Note_on_c, 0, 79, 127
2, 7556, Note_on_c, 0, 77, 127
2, 7561, Note_on_c, 0, 79, 0
2, 7619, Note_on_c, 0, 74, 127
2, 7620, Note_on_c, 0, 72, 0
2, 7649, Note_on_c, 0, 74, 0
2, 7649, Note_on_c, 0, 76, 127
2, 7676, Note_on_c, 0, 77, 0
2, 7679, Note_on_c, 0, 76, 0
2, 7680, Note_on_c, 0, 77, 127
2, 7680, Note_on_c, 0, 74, 127
2, 7739, Note_on_c, 0, 77, 0
2, 7740, Note_on_c, 0, 79, 127
2, 7769, Note_on_c, 0, 79, 0
2, 7770, Note_on_c, 0, 81, 127
2, 7799, Note_on_c, 0, 81, 0
2, 7800, Note_on_c, 0, 79, 127
2, 7859, Note_on_c, 0, 74, 0
2, 7860, Note_on_c, 0, 76, 127
2, 7889, Note_on_c, 0, 76, 0
2, 7890, Note_on_c, 0, 77, 127
2, 7919, Note_on_c, 0, 77, 0
2, 7920, Note_on_c, 0, 76, 127
2, 7979, Note_on_c, 0, 79, 0
2, 7980, Note_on_c, 0, 81, 127
2, 8009, Note_on_c, 0, 81, 0
2, 8010, Note_on_c, 0, 79, 127
2, 8039, Note_on_c, 0, 79, 0
2, 8040, Note_on_c, 0, 77, 127
2, 8099, Note_on_c, 0, 76, 0
2, 8100, Note_on_c, 0, 74, 127
2, 8129, Note_on_c, 0, 74, 0
2, 8130, Note_on_c, 0, 72, 127
2, 8159, Note_on_c, 0, 72, 0
2, 8160, Note_on_c, 0, 77, 0
2, 8160, Note_on_c, 0, 77, 127
2, 8160, Note_on_c, 0, 74, 127
2, 8220, Note_on_c, 0, 77, 0
2, 8220, Note_on_c, 0, 79, 127
2, 8249, Note_on_c, 0, 79, 0
2, 8250, Note_on_c, 0, 77, 127
2, 8279, Note_on_c, 0, 77, 0
2, 8280, Note_on_c, 0, 76, 127
2, 8339, Note_on_c, 0, 74, 0
2, 8340, Note_on_c, 0, 72, 127
2, 8369, Note_on_c, 0, 72, 0
2, 8370, Note_on_c, 0, 71, 127
2, 8399, Note_on_c, 0, 71, 0
2, 8400, Note_on_c, 0, 72, 127
2, 8459, Note_on_c, 0, 76, 0
2, 8460, Note_on_c, 0, 77, 127
2, 8489, Note_on_c, 0, 77, 0
2, 8490, Note_on_c, 0, 76, 127
2, 8519, Note_on_c, 0, 76, 0
2, 8520, Note_on_c, 0, 74, 127
2, 8579, Note_on_c, 0, 72, 0
2, 8580, Note_on_c, 0, 71, 127
2, 8609, Note_on_c, 0, 71, 0
2, 8610, Note_on_c, 0, 69, 127
2, 8639, Note_on_c, 0, 69, 0
2, 8640, Note_on_c, 0, 71, 127
2, 9120, Note_on_c, 0, 71, 0
2, 9120, Note_on_c, 0, 67, 127
2, 9179, Note_on_c, 0, 74, 0
2, 9180, Note_on_c, 0, 72, 127
2, 9209, Note_on_c, 0, 72, 0
2, 9210, Note_on_c, 0, 71, 127
2, 9239, Note_on_c, 0, 71, 0
2, 9240, Note_on_c, 0, 72, 127
2, 9299, Note_on_c, 0, 67, 0
2, 9300, Note_on_c, 0, 65, 127
2, 9329, Note_on_c, 0, 65, 0
2, 9330, Note_on_c, 0, 64, 127
2, 9359, Note_on_c, 0, 64, 0
2, 9360, Note_on_c, 0, 65, 127
2, 9419, Note_on_c, 0, 72, 0
2, 9420, Note_on_c, 0, 74, 127
2, 9449, Note_on_c, 0, 74, 0
2, 9450, Note_on_c, 0, 72, 127
2, 9479, Note_on_c, 0, 72, 0
2, 9480, Note_on_c, 0, 71, 127
2, 9539, Note_on_c, 0, 65, 0
2, 9540, Note_on_c, 0, 64, 127
2, 9569, Note_on_c, 0, 64, 0
2, 9570, Note_on_c, 0, 62, 127
2, 9599, Note_on_c, 0, 62, 0
2, 9599, Note_on_c, 0, 71, 0
2, 9600, Note_on_c, 0, 72, 127
2, 9600, Note_on_c, 0, 64, 127
2, 9719, Note_on_c, 0, 72, 0
2, 9779, Note_on_c, 0, 64, 0
2, 9780, Note_on_c, 0, 65, 127
2, 9809, Note_on_c, 0, 65, 0
2, 9810, Note_on_c, 0, 67, 127
2, 9839, Note_on_c, 0, 67, 0
2, 9840, Note_on_c, 0, 69, 127
2, 10019, Note_on_c, 0, 69, 0
2, 10020, Note_on_c, 0, 71, 127
2, 10049, Note_on_c, 0, 71, 0
2, 10050, Note_on_c, 0, 72, 127
2, 10079, Note_on_c, 0, 72, 0
2, 10080, Note_on_c, 0, 71, 127
2, 10203, Note_on_c, 0, 74, 127
2, 10440, Note_on_c, 0, 71, 0
2, 10440, Note_on_c, 0, 72, 127
2, 10442, Note_on_c, 0, 74, 0
2, 10497, Note_on_c, 0, 69, 127
2, 10527, Note_on_c, 0, 69, 0
2, 10530, Note_on_c, 0, 68, 127
2, 10560, Note_on_c, 0, 68, 0
2, 10560, Note_on_c, 0, 69, 127
2, 10680, Note_on_c, 0, 72, 0
2, 10799, Note_on_c, 0, 69, 0
2, 10800, Note_on_c, 0, 71, 127
2, 10800, Note_on_c, 0, 67, 127
2, 10919, Note_on_c, 0, 71, 0
2, 10920, Note_on_c, 0, 70, 127
2, 11039, Note_on_c, 0, 70, 0
2, 11039, Note_on_c, 0, 67, 0
2, 11040, Note_on_c, 0, 65, 127
2, 11040, Note_on_c, 0, 69, 127
2, 11159, Note_on_c, 0, 69, 0
2, 11160, Note_on_c, 0, 71, 127
2, 11279, Note_on_c, 0, 71, 0
2, 11279, Note_on_c, 0, 65, 0
2, 11280, Note_on_c, 0, 67, 127
2, 11280, Note_on_c, 0, 64, 127
2, 11459, Note_on_c, 0, 64, 0
2, 11460, Note_on_c, 0, 65, 127
2, 11489, Note_on_c, 0, 65, 0
2, 11490, Note_on_c, 0, 64, 127
2, 11519, Note_on_c, 0, 64, 0
2, 11519, Note_on_c, 0, 67, 0
2, 11520, Note_on_c, 0, 69, 127
2, 11520, Note_on_c, 0, 62, 127
2, 11639, Note_on_c, 0, 69, 0
2, 11640, Note_on_c, 0, 72, 127
2, 11699, Note_on_c, 0, 62, 0
2, 11700, Note_on_c, 0, 64, 127
2, 11729, Note_on_c, 0, 64, 0
2, 11730, Note_on_c, 0, 62, 127
2, 11759, Note_on_c, 0, 62, 0
2, 11759, Note_on_c, 0, 72, 0
2, 11760, Note_on_c, 0, 71, 127
2, 11760, Note_on_c, 0, 62, 127
2, 11879, Note_on_c, 0, 62, 0
2, 11880, Note_on_c, 0, 67, 127
2, 11999, Note_on_c, 0, 67, 0
2, 11999, Note_on_c, 0, 71, 0
2, 12000, Note_on_c, 0, 72, 127
2, 12000, Note_on_c, 0, 67, 127
2, 12119, Note_on_c, 0, 67, 0
2, 12120, Note_on_c, 0, 69, 127
2, 12239, Note_on_c, 0, 69, 0
2, 12239, Note_on_c, 0, 72, 0
2, 12240, Note_on_c, 0, 72, 127
2, 12240, Note_on_c, 0, 69, 127
2, 12479, Note_on_c, 0, 69, 0
2, 12479, Note_on_c, 0, 72, 0
2, 12480, Note_on_c, 0, 77, 127
2, 12480, Note_on_c, 0, 74, 127
2, 12719, Note_on_c, 0, 74, 0
2, 12719, Note_on_c, 0, 77, 0
2, 12720, Note_on_c, 0, 76, 127
2, 12720, Note_on_c, 0, 74, 127
2, 12779, Note_on_c, 0, 74, 0
2, 12780, Note_on_c, 0, 72, 127
2, 12809, Note_on_c, 0, 72, 0
2, 12810, Note_on_c, 0, 71, 127
2, 12839, Note_on_c, 0, 71, 0
2, 12840, Note_on_c, 0, 72, 127
2, 12959, Note_on_c, 0, 72, 0
2, 12959, Note_on_c, 0, 76, 0
2, 12960, Note_on_c, 0, 76, 127
2, 12960, Note_on_c, 0, 72, 127
2, 13019, Note_on_c, 0, 72, 0
2, 13020, Note_on_c, 0, 74, 127
2, 13049, Note_on_c, 0, 74, 0
2, 13050, Note_on_c, 0, 72, 127
2, 13079, Note_on_c, 0, 72, 0
2, 13080, Note_on_c, 0, 72, 127
2, 13259, Note_on_c, 0, 72, 0
2, 13260, Note_on_c, 0, 74, 127
2, 13289, Note_on_c, 0, 74, 0
2, 13290, Note_on_c, 0, 72, 127
2, 13319, Note_on_c, 0, 72, 0
2, 13319, Note_on_c, 0, 76, 0
2, 13320, Note_on_c, 0, 74, 127
2, 13320, Note_on_c, 0, 72, 127
2, 13441, Note_on_c, 0, 72, 0
2, 13447, Note_on_c, 0, 72, 127
2, 13497, Note_on_c, 0, 71, 127
2, 13507, Note_on_c, 0, 72, 0
2, 13527, Note_on_c, 0, 71, 0
2, 13527, Note_on_c, 0, 69, 127
2, 13557, Note_on_c, 0, 69, 0
2, 13559, Note_on_c, 0, 74, 0
2, 13559, Note_on_c, 0, 74, 127
2, 13560, Note_on_c, 0, 71, 127
2, 13619, Note_on_c, 0, 74, 0
2, 13623, Note_on_c, 0, 76, 127
2, 13649, Note_on_c, 0, 77, 127
2, 13652, Note_on_c, 0, 76, 0
2, 13678, Note_on_c, 0, 77, 0
2, 13680, Note_on_c, 0, 79, 127
2, 13739, Note_on_c, 0, 79, 0
2, 13739, Note_on_c, 0, 81, 127
2, 13740, Note_on_c, 0, 71, 0
2, 13741, Note_on_c, 0, 72, 127
2, 13768, Note_on_c, 0, 81, 0
2, 13771, Note_on_c, 0, 79, 127
2, 13800, Note_on_c, 0, 79, 0
2, 13803, Note_on_c, 0, 77, 127
2, 13859, Note_on_c, 0, 71, 127
2, 13861, Note_on_c, 0, 72, 0
2, 13861, Note_on_c, 0, 79, 127
2, 13862, Note_on_c, 0, 77, 0
2, 13890, Note_on_c, 0, 79, 0
2, 13890, Note_on_c, 0, 77, 127
2, 13919, Note_on_c, 0, 77, 0
2, 13919, Note_on_c, 0, 71, 0
2, 13920, Note_on_c, 0, 76, 127
2, 13920, Note_on_c, 0, 72, 127
2, 14039, Note_on_c, 0, 72, 0
2, 14039, Note_on_c, 0, 76, 0
2, 14040, Note_on_c, 0, 79, 127
2, 14040, Note_on_c, 0, 74, 127
2, 14159, Note_on_c, 0, 74, 0
2, 14159, Note_on_c, 0, 79, 0
2, 14160, Note_on_c, 0, 79, 127
2, 14160, Note_on_c, 0, 72, 127
2, 14219, Note_on_c, 0, 79, 0
2, 14220, Note_on_c, 0, 81, 127
2, 14249, Note_on_c, 0, 81, 0
2, 14250, Note_on_c, 0, 79, 127
2, 14279, Note_on_c, 0, 79, 0
2, 14280, Note_on_c, 0, 77, 127
2, 14339, Note_on_c, 0, 72, 0
2, 14340, Note_on_c, 0, 74, 127
2, 14369, Note_on_c, 0, 74, 0
2, 14370, Note_on_c, 0, 72, 127
2, 14399, Note_on_c, 0, 72, 0
2, 14399, Note_on_c, 0, 77, 0
2, 14400, Note_on_c, 0, 77, 127
2, 14400, Note_on_c, 0, 71, 127
2, 14459, Note_on_c, 0, 77, 0
2, 14460, Note_on_c, 0, 79, 127
2, 14489, Note_on_c, 0, 79, 0
2, 14490, Note_on_c, 0, 77, 127
2, 14519, Note_on_c, 0, 77, 0
2, 14519, Note_on_c, 0, 71, 0
2, 14520, Note_on_c, 0, 76, 127
2, 14520, Note_on_c, 0, 72, 127
2, 14579, Note_on_c, 0, 76, 0
2, 14580, Note_on_c, 0, 77, 127
2, 14609, Note_on_c, 0, 77, 0
2, 14610, Note_on_c, 0, 76, 127
2, 14639, Note_on_c, 0, 76, 0
2, 14639, Note_on_c, 0, 72, 0
2, 14640, Note_on_c, 0, 74, 127
2, 14640, Note_on_c, 0, 72, 127
2, 14699, Note_on_c, 0, 72, 0
2, 14700, Note_on_c, 0, 71, 127
2, 14729, Note_on_c, 0, 71, 0
2, 14730, Note_on_c, 0, 69, 127
2, 14757, Note_on_c, 0, 71, 127
2, 14759, Note_on_c, 0, 69, 0
2, 14877, Note_on_c, 0, 71, 0
2, 14879, Note_on_c, 0, 74, 0
2, 14880, Note_on_c, 0, 79, 127
2, 14880, Note_on_c, 0, 72, 127
2, 14939, Note_on_c, 0, 79, 0
2, 14940, Note_on_c, 0, 81, 127
2, 14969, Note_on_c, 0, 81, 0
2, 14970, Note_on_c, 0, 79, 127
2, 14999, Note_on_c, 0, 79, 0
2, 14999, Note_on_c, 0, 72, 0
2, 15000, Note_on_c, 0, 77, 127
2, 15000, Note_on_c, 0, 71, 127
2, 15059, Note_on_c, 0, 77, 0
2, 15060, Note_on_c, 0, 79, 127
2, 15089, Note_on_c, 0, 79, 0
2, 15090, Note_on_c, 0, 77, 127
2, 15119, Note_on_c, 0, 77, 0
2, 15119, Note_on_c, 0, 71, 0
2, 15120, Note_on_c, 0, 76, 127
2, 15120, Note_on_c, 0, 71, 127
2, 15179, Note_on_c, 0, 71, 0
2, 15180, Note_on_c, 0, 72, 127
2, 15209, Note_on_c, 0, 72, 0
2, 15210, Note_on_c, 0, 71, 127
2, 15239, Note_on_c, 0, 71, 0
2, 15240, Note_on_c, 0, 69, 127
2, 15299, Note_on_c, 0, 76, 0
2, 15300, Note_on_c, 0, 77, 127
2, 15329, Note_on_c, 0, 77, 0
2, 15330, Note_on_c, 0, 76, 127
2, 15359, Note_on_c, 0, 76, 0
2, 15359, Note_on_c, 0, 69, 0
2, 15360, Note_on_c, 0, 74, 127
2, 15360, Note_on_c, 0, 69, 127
2, 15419, Note_on_c, 0, 69, 0
2, 15420, Note_on_c, 0, 71, 127
2, 15449, Note_on_c, 0, 71, 0
2, 15450, Note_on_c, 0, 69, 127
2, 15479, Note_on_c, 0, 69, 0
2, 15480, Note_on_c, 0, 67, 127
2, 15539, Note_on_c, 0, 74, 0
2, 15540, Note_on_c, 0, 76, 127
2, 15569, Note_on_c, 0, 76, 0
2, 15570, Note_on_c, 0, 74, 127
2, 15599, Note_on_c, 0, 74, 0
2, 15599, Note_on_c, 0, 67, 0
2, 15600, Note_on_c, 0, 72, 127
2, 15600, Note_on_c, 0, 67, 127
2, 15659, Note_on_c, 0, 67, 0
2, 15660, Note_on_c, 0, 69, 127
2, 15689, Note_on_c, 0, 69, 0
2, 15690, Note_on_c, 0, 67, 127
2, 15719, Note_on_c, 0, 67, 0
2, 15720, Note_on_c, 0, 66, 127
2, 15779, Note_on_c, 0, 72, 0
2, 15780, Note_on_c, 0, 74, 127
2, 15809, Note_on_c, 0, 74, 0
2, 15810, Note_on_c, 0, 72, 127
2, 15839, Note_on_c, 0, 72, 0
2, 15839, Note_on_c, 0, 66, 0
2, 15840, Note_on_c, 0, 71, 127
2, 15840, Note_on_c, 0, 67, 127
2, 15959, Note_on_c, 0, 71, 0
2, 15960, Note_on_c, 0, 72, 127
2, 16079, Note_on_c, 0, 72, 0
2, 16079, Note_on_c, 0, 67, 0
2, 16080, Note_on_c, 0, 74, 127
2, 16080, Note_on_c, 0, 71, 127
2, 16199, Note_on_c, 0, 71, 0
2, 16199, Note_on_c, 0, 74, 0
2, 16200, Note_on_c, 0, 76, 127
2, 16200, Note_on_c, 0, 72, 127
2, 16379, Note_on_c, 0, 76, 0
2, 16380, Note_on_c, 0, 77, 127
2, 16409, Note_on_c, 0, 77, 0
2, 16410, Note_on_c, 0, 76, 127
2, 16439, Note_on_c, 0, 76, 0
2, 16440, Note_on_c, 0, 74, 127
2, 16499, Note_on_c, 0, 72, 0
2, 16500, Note_on_c, 0, 71, 127
2, 16529, Note_on_c, 0, 71, 0
2, 16530, Note_on_c, 0, 69, 127
2, 16559, Note_on_c, 0, 69, 0
2, 16560, Note_on_c, 0, 71, 127
2, 16619, Note_on_c, 0, 74, 0
2, 16620, Note_on_c, 0, 76, 127
2, 16649, Note_on_c, 0, 76, 0
2, 16650, Note_on_c, 0, 77, 127
2, 16679, Note_on_c, 0, 77, 0
2, 16679, Note_on_c, 0, 76, 127
2, 16739, Note_on_c, 0, 71, 0
2, 16740, Note_on_c, 0, 72, 127
2, 16769, Note_on_c, 0, 72, 0
2, 16770, Note_on_c, 0, 74, 127
2, 16799, Note_on_c, 0, 74, 0
2, 16800, Note_on_c, 0, 72, 127
2, 16859, Note_on_c, 0, 76, 0
2, 16860, Note_on_c, 0, 77, 127
2, 16889, Note_on_c, 0, 77, 0
2, 16890, Note_on_c, 0, 76, 127
2, 16919, Note_on_c, 0, 76, 0
2, 16920, Note_on_c, 0, 74, 127
2, 16979, Note_on_c, 0, 72, 0
2, 16980, Note_on_c, 0, 71, 127
2, 17009, Note_on_c, 0, 71, 0
2, 17010, Note_on_c, 0, 69, 127
2, 17039, Note_on_c, 0, 69, 0
2, 17039, Note_on_c, 0, 74, 0
2, 17040, Note_on_c, 0, 74, 127
2, 17040, Note_on_c, 0, 71, 127
2, 17099, Note_on_c, 0, 74, 0
2, 17100, Note_on_c, 0, 76, 127
2, 17129, Note_on_c, 0, 76, 0
2, 17130, Note_on_c, 0, 77, 127
2, 17159, Note_on_c, 0, 77, 0
2, 17160, Note_on_c, 0, 79, 127
2, 17219, Note_on_c, 0, 79, 0
2, 17220, Note_on_c, 0, 81, 127
2, 17249, Note_on_c, 0, 81, 0
2, 17250, Note_on_c, 0, 83, 127
2, 17279, Note_on_c, 0, 83, 0
2, 17279, Note_on_c, 0, 71, 0
2, 17280, Note_on_c, 0, 72, 127
2, 17280, Note_on_c, 0, 69, 127
2, 17339, Note_on_c, 0, 72, 0
2, 17340, Note_on_c, 0, 71, 127
2, 17369, Note_on_c, 0, 71, 0
2, 17370, Note_on_c, 0, 72, 127
2, 17399, Note_on_c, 0, 72, 0
2, 17400, Note_on_c, 0, 74, 127
2, 17459, Note_on_c, 0, 74, 0
2, 17460, Note_on_c, 0, 76, 127
2, 17489, Note_on_c, 0, 76, 0
2, 17490, Note_on_c, 0, 77, 127
2, 17519, Note_on_c, 0, 77, 0
2, 17519, Note_on_c, 0, 69, 0
2, 17520, Note_on_c, 0, 71, 127
2, 17520, Note_on_c, 0, 67, 127
2, 17639, Note_on_c, 0, 71, 0
2, 17640, Note_on_c, 0, 72, 127
2, 17759, Note_on_c, 0, 67, 0
2, 17760, Note_on_c, 0, 67, 127
2, 17790, Note_on_c, 0, 72, 0
2, 17790, Note_on_c, 0, 74, 127
2, 17819, Note_on_c, 0, 74, 0
2, 17820, Note_on_c, 0, 71, 127
2, 17849, Note_on_c, 0, 71, 0
2, 17850, Note_on_c, 0, 74, 127
2, 17879, Note_on_c, 0, 74, 0
2, 17880, Note_on_c, 0, 72, 127
2, 17909, Note_on_c, 0, 72, 0
2, 17910, Note_on_c, 0, 74, 127
2, 17939, Note_on_c, 0, 74, 0
2, 17940, Note_on_c, 0, 71, 127
2, 17969, Note_on_c, 0, 71, 0
2, 17970, Note_on_c, 0, 74, 127
2, 17999, Note_on_c, 0, 74, 0
2, 18000, Note_on_c, 0, 72, 127
2, 18029, Note_on_c, 0, 72, 0
2, 18030, Note_on_c, 0, 76, 127
2, 18059, Note_on_c, 0, 76, 0
2, 18060, Note_on_c, 0, 74, 127
2, 18089, Note_on_c, 0, 74, 0
2, 18090, Note_on_c, 0, 77, 127
2, 18119, Note_on_c, 0, 77, 0
2, 18120, Note_on_c, 0, 76, 127
2, 18149, Note_on_c, 0, 76, 0
2, 18150, Note_on_c, 0, 79, 127
2, 18179, Note_on_c, 0, 79, 0
2, 18180, Note_on_c, 0, 77, 127
2, 18209, Note_on_c, 0, 77, 0
2, 18210, Note_on_c, 0, 81, 127
2, 18239, Note_on_c, 0, 81, 0
2, 18239, Note_on_c, 0, 67, 0
2, 18240, Note_on_c, 0, 79, 127
2, 18240, Note_on_c, 0, 67, 127
2, 18269, Note_on_c, 0, 79, 0
2, 18299, Note_on_c, 0, 67, 0
2, 18300, Note_on_c, 0, 69, 127
2, 18329, Note_on_c, 0, 69, 0
2, 18330, Note_on_c, 0, 71, 127
2, 18359, Note_on_c, 0, 71, 0
2, 18360, Note_on_c, 0, 72, 127
2, 18509, Note_on_c, 0, 72, 0
2, 18510, Note_on_c, 0, 76, 127
2, 18539, Note_on_c, 0, 76, 0
2, 18540, Note_on_c, 0, 74, 127
2, 18569, Note_on_c, 0, 74, 0
2, 18570, Note_on_c, 0, 76, 127
2, 18599, Note_on_c, 0, 76, 0
2, 18600, Note_on_c, 0, 77, 127
2, 18629, Note_on_c, 0, 77, 0
2, 18630, Note_on_c, 0, 74, 127
2, 18659, Note_on_c, 0, 74, 0
2, 18660, Note_on_c, 0, 76, 127
2, 18689, Note_on_c, 0, 76, 0
2, 18690, Note_on_c, 0, 77, 127
2, 18719, Note_on_c, 0, 77, 0
2, 18720, Note_on_c, 0, 71, 127
2, 18720, Note_on_c, 0, 67, 127
2, 18779, Note_on_c, 0, 71, 0
2, 18780, Note_on_c, 0, 72, 127
2, 18809, Note_on_c, 0, 72, 0
2, 18810, Note_on_c, 0, 74, 127
2, 18839, Note_on_c, 0, 74, 0
2, 18840, Note_on_c, 0, 72, 127
2, 18929, Note_on_c, 0, 72, 0
2, 18930, Note_on_c, 0, 71, 127
2, 18959, Note_on_c, 0, 71, 0
2, 18959, Note_on_c, 0, 67, 0
2, 18960, Note_on_c, 0, 72, 127
2, 18960, Note_on_c, 0, 67, 127
2, 19079, Note_on_c, 0, 67, 0
2, 19080, Note_on_c, 0, 65, 127
2, 19199, Note_on_c, 0, 65, 0
2, 19200, Note_on_c, 0, 67, 127
2, 19319, Note_on_c, 0, 67, 0
2, 19320, Note_on_c, 0, 65, 127
2, 19499, Note_on_c, 0, 65, 0
2, 19500, Note_on_c, 0, 67, 127
2, 19529, Note_on_c, 0, 67, 0
2, 19530, Note_on_c, 0, 65, 127
2, 19559, Note_on_c, 0, 65, 0
2, 19560, Note_on_c, 0, 64, 127
2, 19589, Note_on_c, 0, 64, 0
2, 19590, Note_on_c, 0, 65, 127
2, 19619, Note_on_c, 0, 65, 0
2, 19620, Note_on_c, 0, 62, 127
2, 19649, Note_on_c, 0, 62, 0
2, 19650, Note_on_c, 0, 65, 127
2, 19679, Note_on_c, 0, 65, 0
2, 19679, Note_on_c, 0, 72, 0
2, 19680, Note_on_c, 0, 72, 127
2, 19680, Note_on_c, 0, 64, 127
2, 20159, Note_on_c, 0, 64, 0
2, 20159, Note_on_c, 0, 72, 0
2, 20159, End_track
3, 0, Start_track
3, 0, MIDI_port, 0
3, 0, Title_t, "Treble Clef       "
3, 0, Program_c, 1, 19
3, 0, Control_c, 1, 7, 80
3, 0, Control_c, 1, 10, 54
3, 0, Note_on_c, 1, 64, 127
3, 239, Note_on_c, 1, 64, 0
3, 240, Note_on_c, 1, 62, 127
3, 599, Note_on_c, 1, 62, 0
3, 600, Note_on_c, 1, 60, 127
3, 719, Note_on_c, 1, 60, 0
3, 720, Note_on_c, 1, 62, 127
3, 839, Note_on_c, 1, 62, 0
3, 840, Note_on_c, 1, 67, 127
3, 959, Note_on_c, 1, 67, 0
3, 960, Note_on_c, 1, 64, 127
3, 1199, Note_on_c, 1, 64, 0
3, 1200, Note_on_c, 1, 62, 127
3, 1679, Note_on_c, 1, 62, 0
3, 1680, Note_on_c, 1, 60, 127
3, 2159, Note_on_c, 1, 60, 0
3, 2160, Note_on_c, 1, 60, 127
3, 2399, Note_on_c, 1, 60, 0
3, 2400, Note_on_c, 1, 62, 127
3, 2759, Note_on_c, 1, 62, 0
3, 2760, Note_on_c, 1, 64, 127
3, 2819, Note_on_c, 1, 64, 0
3, 2820, Note_on_c, 1, 65, 127
3, 2849, Note_on_c, 1, 65, 0
3, 2850, Note_on_c, 1, 64, 127
3, 2879, Note_on_c, 1, 64, 0
3, 2880, Note_on_c, 1, 62, 127
3, 3119, Note_on_c, 1, 62, 0
3, 3120, Note_on_c, 1, 61, 127
3, 3359, Note_on_c, 1, 61, 0
3, 3360, Note_on_c, 1, 62, 127
3, 3473, Note_on_c, 1, 57, 127
3, 3479, Note_on_c, 1, 62, 0
3, 3532, Note_on_c, 1, 57, 0
3, 3538, Note_on_c, 1, 59, 127
3, 3567, Note_on_c, 1, 59, 0
3, 3569, Note_on_c, 1, 60, 127
3, 3598, Note_on_c, 1, 60, 0
3, 3601, Note_on_c, 1, 59, 127
3, 3960, Note_on_c, 1, 57, 127
3, 3961, Note_on_c, 1, 59, 0
3, 4076, Note_on_c, 1, 64, 127
3, 4199, Note_on_c, 1, 57, 0
3, 4200, Note_on_c, 1, 56, 127
3, 4316, Note_on_c, 1, 64, 0
3, 4380, Note_on_c, 1, 56, 0
3, 4380, Note_on_c, 1, 57, 127
3, 4409, Note_on_c, 1, 57, 0
3, 4410, Note_on_c, 1, 59, 127
3, 4439, Note_on_c, 1, 59, 0
3, 4440, Note_on_c, 1, 60, 127
3, 4619, Note_on_c, 1, 60, 0
3, 4620, Note_on_c, 1, 59, 127
3, 4649, Note_on_c, 1, 59, 0
3, 4650, Note_on_c, 1, 57, 127
3, 4679, Note_on_c, 1, 57, 0
3, 4680, Note_on_c, 1, 59, 127
3, 4799, Note_on_c, 1, 59, 0
3, 4800, Note_on_c, 1, 59, 127
3, 4859, Note_on_c, 1, 59, 0
3, 4860, Note_on_c, 1, 57, 127
3, 4889, Note_on_c, 1, 57, 0
3, 4890, Note_on_c, 1, 56, 127
3, 4919, Note_on_c, 1, 56, 0
3, 4920, Note_on_c, 1, 57, 127
3, 4979, Note_on_c, 1, 57, 0
3, 4980, Note_on_c, 1, 52, 127
3, 5009, Note_on_c, 1, 52, 0
3, 5010, Note_on_c, 1, 55, 127
3, 5039, Note_on_c, 1, 55, 0
3, 5040, Note_on_c, 1, 54, 127
3, 5279, Note_on_c, 1, 54, 0
3, 5280, Note_on_c, 1, 55, 127
3, 5459, Note_on_c, 1, 55, 0
3, 5460, Note_on_c, 1, 57, 127
3, 5489, Note_on_c, 1, 57, 0
3, 5490, Note_on_c, 1, 58, 127
3, 5639, Note_on_c, 1, 58, 0
3, 5640, Note_on_c, 1, 57, 127
3, 5999, Note_on_c, 1, 57, 0
3, 6000, Note_on_c, 1, 58, 127
3, 6119, Note_on_c, 1, 58, 0
3, 6120, Note_on_c, 1, 52, 127
3, 6239, Note_on_c, 1, 52, 0
3, 6240, Note_on_c, 1, 57, 127
3, 6478, Note_on_c, 1, 55, 127
3, 6479, Note_on_c, 1, 57, 0
3, 6838, Note_on_c, 1, 55, 0
3, 6900, Note_on_c, 1, 52, 127
3, 6929, Note_on_c, 1, 52, 0
3, 6930, Note_on_c, 1, 48, 127
3, 6959, Note_on_c, 1, 48, 0
3, 6960, Note_on_c, 1, 54, 127
3, 7139, Note_on_c, 1, 54, 0
3, 7140, Note_on_c, 1, 50, 127
3, 7199, Note_on_c, 1, 50, 0
3, 7200, Note_on_c, 1, 55, 127
3, 8159, Note_on_c, 1, 55, 0
3, 8160, Note_on_c, 1, 55, 127
3, 8699, Note_on_c, 1, 55, 0
3, 8700, Note_on_c, 1, 55, 127
3, 8729, Note_on_c, 1, 55, 0
3, 8730, Note_on_c, 1, 57, 127
3, 8759, Note_on_c, 1, 57, 0
3, 8760, Note_on_c, 1, 59, 127
3, 8819, Note_on_c, 1, 59, 0
3, 8820, Note_on_c, 1, 60, 127
3, 8849, Note_on_c, 1, 60, 0
3, 8850, Note_on_c, 1, 62, 127
3, 8879, Note_on_c, 1, 62, 0
3, 8880, Note_on_c, 1, 55, 127
3, 8939, Note_on_c, 1, 55, 0
3, 8940, Note_on_c, 1, 57, 127
3, 8969, Note_on_c, 1, 57, 0
3, 8970, Note_on_c, 1, 59, 127
3, 8999, Note_on_c, 1, 59, 0
3, 9000, Note_on_c, 1, 50, 127
3, 9059, Note_on_c, 1, 50, 0
3, 9060, Note_on_c, 1, 52, 127
3, 9089, Note_on_c, 1, 52, 0
3, 9090, Note_on_c, 1, 53, 127
3, 9119, Note_on_c, 1, 53, 0
3, 9120, Note_on_c, 1, 52, 127
3, 9239, Note_on_c, 1, 52, 0
3, 9240, Note_on_c, 1, 57, 127
3, 9359, Note_on_c, 1, 57, 0
3, 9360, Note_on_c, 1, 50, 127
3, 9479, Note_on_c, 1, 50, 0
3, 9480, Note_on_c, 1, 55, 127
3, 9599, Note_on_c, 1, 55, 0
3, 9600, Note_on_c, 1, 55, 127
3, 9659, Note_on_c, 1, 55, 0
3, 9660, Note_on_c, 1, 57, 127
3, 9689, Note_on_c, 1, 57, 0
3, 9690, Note_on_c, 1, 59, 127
3, 9719, Note_on_c, 1, 59, 0
3, 9720, Note_on_c, 1, 60, 127
3, 9899, Note_on_c, 1, 60, 0
3, 9900, Note_on_c, 1, 62, 127
3, 9929, Note_on_c, 1, 62, 0
3, 9930, Note_on_c, 1, 64, 127
3, 9959, Note_on_c, 1, 64, 0
3, 9960, Note_on_c, 1, 65, 127
3, 10319, Note_on_c, 1, 65, 0
3, 10320, Note_on_c, 1, 64, 127
3, 10679, Note_on_c, 1, 64, 0
3, 10680, Note_on_c, 1, 62, 127
3, 10919, Note_on_c, 1, 62, 0
3, 10920, Note_on_c, 1, 60, 127
3, 11039, Note_on_c, 1, 60, 0
3, 11040, Note_on_c, 1, 60, 127
3, 11159, Note_on_c, 1, 60, 0
3, 11160, Note_on_c, 1, 62, 127
3, 11339, Note_on_c, 1, 62, 0
3, 11340, Note_on_c, 1, 60, 127
3, 11369, Note_on_c, 1, 60, 0
3, 11370, Note_on_c, 1, 59, 127
3, 11399, Note_on_c, 1, 59, 0
3, 11400, Note_on_c, 1, 60, 127
3, 11579, Note_on_c, 1, 60, 0
3, 11580, Note_on_c, 1, 59, 127
3, 11609, Note_on_c, 1, 59, 0
3, 11610, Note_on_c, 1, 60, 127
3, 11639, Note_on_c, 1, 60, 0
3, 11640, Note_on_c, 1, 57, 127
3, 11759, Note_on_c, 1, 57, 0
3, 11760, Note_on_c, 1, 59, 127
3, 11879, Note_on_c, 1, 59, 0
3, 11880, Note_on_c, 1, 64, 127
3, 12239, Note_on_c, 1, 64, 0
3, 12240, Note_on_c, 1, 65, 127
3, 12479, Note_on_c, 1, 65, 0
3, 12480, Note_on_c, 1, 65, 127
3, 12599, Note_on_c, 1, 65, 0
3, 12600, Note_on_c, 1, 67, 127
3, 12959, Note_on_c, 1, 67, 0
3, 12960, Note_on_c, 1, 69, 127
3, 13439, Note_on_c, 1, 69, 0
3, 13440, Note_on_c, 1, 67, 127
3, 13559, Note_on_c, 1, 67, 0
3, 13560, Note_on_c, 1, 67, 127
3, 13619, Note_on_c, 1, 67, 0
3, 13620, Note_on_c, 1, 65, 127
3, 13679, Note_on_c, 1, 65, 0
3, 13680, Note_on_c, 1, 64, 127
3, 13799, Note_on_c, 1, 64, 0
3, 13800, Note_on_c, 1, 64, 127
3, 13919, Note_on_c, 1, 64, 0
3, 13920, Note_on_c, 1, 60, 127
3, 13979, Note_on_c, 1, 60, 0
3, 13980, Note_on_c, 1, 62, 127
3, 14009, Note_on_c, 1, 62, 0
3, 14010, Note_on_c, 1, 60, 127
3, 14039, Note_on_c, 1, 60, 0
3, 14040, Note_on_c, 1, 59, 127
3, 14099, Note_on_c, 1, 59, 0
3, 14100, Note_on_c, 1, 60, 127
3, 14129, Note_on_c, 1, 60, 0
3, 14130, Note_on_c, 1, 59, 127
3, 14159, Note_on_c, 1, 59, 0
3, 14160, Note_on_c, 1, 57, 127
3, 14279, Note_on_c, 1, 57, 0
3, 14280, Note_on_c, 1, 62, 127
3, 14399, Note_on_c, 1, 62, 0
3, 14400, Note_on_c, 1, 62, 127
3, 14519, Note_on_c, 1, 62, 0
3, 14520, Note_on_c, 1, 64, 127
3, 14579, Note_on_c, 1, 64, 0
3, 14580, Note_on_c, 1, 60, 127
3, 14639, Note_on_c, 1, 60, 0
3, 14640, Note_on_c, 1, 67, 127
3, 14819, Note_on_c, 1, 67, 0
3, 14820, Note_on_c, 1, 65, 127
3, 14849, Note_on_c, 1, 65, 0
3, 14850, Note_on_c, 1, 67, 127
3, 14879, Note_on_c, 1, 67, 0
3, 14880, Note_on_c, 1, 64, 127
3, 14939, Note_on_c, 1, 64, 0
3, 14940, Note_on_c, 1, 65, 127
3, 14969, Note_on_c, 1, 65, 0
3, 14970, Note_on_c, 1, 64, 127
3, 14999, Note_on_c, 1, 64, 0
3, 15000, Note_on_c, 1, 62, 127
3, 15059, Note_on_c, 1, 62, 0
3, 15060, Note_on_c, 1, 64, 127
3, 15089, Note_on_c, 1, 64, 0
3, 15090, Note_on_c, 1, 62, 127
3, 15119, Note_on_c, 1, 62, 0
3, 15120, Note_on_c, 1, 60, 127
3, 15299, Note_on_c, 1, 60, 0
3, 15300, Note_on_c, 1, 62, 127
3, 15329, Note_on_c, 1, 62, 0
3, 15330, Note_on_c, 1, 60, 127
3, 15359, Note_on_c, 1, 60, 0
3, 15360, Note_on_c, 1, 59, 127
3, 15539, Note_on_c, 1, 59, 0
3, 15540, Note_on_c, 1, 60, 127
3, 15569, Note_on_c, 1, 60, 0
3, 15570, Note_on_c, 1, 59, 127
3, 15599, Note_on_c, 1, 59, 0
3, 15600, Note_on_c, 1, 57, 127
3, 15659, Note_on_c, 1, 57, 0
3, 15660, Note_on_c, 1, 59, 127
3, 15719, Note_on_c, 1, 59, 0
3, 15720, Note_on_c, 1, 60, 127
3, 15839, Note_on_c, 1, 60, 0
3, 15840, Note_on_c, 1, 62, 127
3, 15959, Note_on_c, 1, 62, 0
3, 15960, Note_on_c, 1, 64, 127
3, 16079, Note_on_c, 1, 64, 0
3, 16080, Note_on_c, 1, 67, 127
3, 16319, Note_on_c, 1, 67, 0
3, 16320, Note_on_c, 1, 69, 127
3, 16439, Note_on_c, 1, 69, 0
3, 16440, Note_on_c, 1, 62, 127
3, 16559, Note_on_c, 1, 62, 0
3, 16560, Note_on_c, 1, 67, 127
3, 16800, Note_on_c, 1, 67, 0
3, 17280, Note_on_c, 1, 64, 127
3, 17399, Note_on_c, 1, 64, 0
3, 17400, Note_on_c, 1, 62, 127
3, 17639, Note_on_c, 1, 62, 0
3, 17640, Note_on_c, 1, 64, 127
3, 17759, Note_on_c, 1, 64, 0
3, 17760, Note_on_c, 1, 64, 127
3, 17819, Note_on_c, 1, 64, 0
3, 17820, Note_on_c, 1, 62, 127
3, 17879, Note_on_c, 1, 62, 0
3, 17880, Note_on_c, 1, 64, 127
3, 17939, Note_on_c, 1, 64, 0
3, 17940, Note_on_c, 1, 62, 127
3, 17999, Note_on_c, 1, 62, 0
3, 18000, Note_on_c, 1, 64, 127
3, 18059, Note_on_c, 1, 64, 0
3, 18060, Note_on_c, 1, 59, 127
3, 18119, Note_on_c, 1, 59, 0
3, 18120, Note_on_c, 1, 60, 127
3, 18179, Note_on_c, 1, 60, 0
3, 18180, Note_on_c, 1, 62, 127
3, 18239, Note_on_c, 1, 62, 0
3, 18240, Note_on_c, 1, 64, 127
3, 18389, Note_on_c, 1, 64, 0
3, 18390, Note_on_c, 1, 64, 127
3, 18419, Note_on_c, 1, 64, 0
3, 18420, Note_on_c, 1, 62, 127
3, 18449, Note_on_c, 1, 62, 0
3, 18450, Note_on_c, 1, 60, 127
3, 18479, Note_on_c, 1, 60, 0
3, 18483, Note_on_c, 1, 62, 127
3, 18840, Note_on_c, 1, 65, 127
3, 18843, Note_on_c, 1, 62, 0
3, 18959, Note_on_c, 1, 65, 0
3, 18960, Note_on_c, 1, 64, 127
3, 19079, Note_on_c, 1, 64, 0
3, 19080, Note_on_c, 1, 60, 127
3, 19199, Note_on_c, 1, 60, 0
3, 19260, Note_on_c, 1, 60, 127
3, 19289, Note_on_c, 1, 60, 0
3, 19290, Note_on_c, 1, 58, 127
3, 19319, Note_on_c, 1, 58, 0
3, 19320, Note_on_c, 1, 57, 127
3, 19379, Note_on_c, 1, 57, 0
3, 19380, Note_on_c, 1, 55, 127
3, 19409, Note_on_c, 1, 55, 0
3, 19410, Note_on_c, 1, 53, 127
3, 19439, Note_on_c, 1, 53, 0
3, 19440, Note_on_c, 1, 55, 127
3, 19619, Note_on_c, 1, 55, 0
3, 19620, Note_on_c, 1, 53, 127
3, 19679, Note_on_c, 1, 53, 0
3, 19680, Note_on_c, 1, 55, 127
3, 20159, Note_on_c, 1, 55, 0
3, 20159, End_track
4, 0, Start_track
4, 0, MIDI_port, 0
4, 0, Title_t, "Bass Clef         "
4, 0, Program_c, 2, 19
4, 0, Control_c, 2, 7, 80
4, 0, Control_c, 2, 10, 64
4, 0, Note_on_c, 2, 48, 127
4, 59, Note_on_c, 2, 48, 0
4, 60, Note_on_c, 2, 50, 127
4, 119, Note_on_c, 2, 50, 0
4, 120, Note_on_c, 2, 52, 127
4, 179, Note_on_c, 2, 52, 0
4, 180, Note_on_c, 2, 48, 127
4, 239, Note_on_c, 2, 48, 0
4, 240, Note_on_c, 2, 55, 127
4, 959, Note_on_c, 2, 55, 0
4, 960, Note_on_c, 2, 57, 127
4, 1139, Note_on_c, 2, 57, 0
4, 1140, Note_on_c, 2, 55, 127
4, 1199, Note_on_c, 2, 55, 0
4, 1200, Note_on_c, 2, 54, 127
4, 1439, Note_on_c, 2, 54, 0
4, 1440, Note_on_c, 2, 55, 127
4, 1619, Note_on_c, 2, 55, 0
4, 1620, Note_on_c, 2, 53, 127
4, 1679, Note_on_c, 2, 53, 0
4, 1680, Note_on_c, 2, 52, 127
4, 2159, Note_on_c, 2, 52, 0
4, 2159, Note_on_c, 2, 53, 127
4, 2518, Note_on_c, 2, 53, 0
4, 2520, Note_on_c, 2, 54, 127
4, 2639, Note_on_c, 2, 54, 0
4, 2640, Note_on_c, 2, 55, 127
4, 3179, Note_on_c, 2, 55, 0
4, 3180, Note_on_c, 2, 57, 127
4, 3209, Note_on_c, 2, 57, 0
4, 3210, Note_on_c, 2, 58, 127
4, 3239, Note_on_c, 2, 58, 0
4, 3240, Note_on_c, 2, 57, 127
4, 3299, Note_on_c, 2, 57, 0
4, 3300, Note_on_c, 2, 55, 127
4, 3329, Note_on_c, 2, 55, 0
4, 3330, Note_on_c, 2, 57, 127
4, 3359, Note_on_c, 2, 57, 0
4, 3360, Note_on_c, 2, 53, 127
4, 3599, Note_on_c, 2, 53, 0
4, 3600, Note_on_c, 2, 50, 127
4, 3839, Note_on_c, 2, 50, 0
4, 3840, Note_on_c, 2, 52, 127
4, 4799, Note_on_c, 2, 52, 0
4, 4800, Note_on_c, 2, 45, 127
4, 5038, Note_on_c, 2, 50, 127
4, 5039, Note_on_c, 2, 45, 0
4, 5518, Note_on_c, 2, 50, 0
4, 5520, Note_on_c, 2, 49, 127
4, 5759, Note_on_c, 2, 49, 0
4, 5760, Note_on_c, 2, 50, 127
4, 6119, Note_on_c, 2, 50, 0
4, 6120, Note_on_c, 2, 49, 127
4, 6239, Note_on_c, 2, 49, 0
4, 6240, Note_on_c, 2, 48, 127
4, 6479, Note_on_c, 2, 48, 0
4, 6480, Note_on_c, 2, 47, 127
4, 6719, Note_on_c, 2, 47, 0
4, 6720, Note_on_c, 2, 48, 127
4, 6959, Note_on_c, 2, 48, 0
4, 6960, Note_on_c, 2, 42, 127
4, 7199, Note_on_c, 2, 42, 0
4, 7204, Note_on_c, 2, 43, 127
4, 8763, Note_on_c, 2, 43, 0
4, 9600, Note_on_c, 2, 48, 127
4, 9779, Note_on_c, 2, 48, 0
4, 9780, Note_on_c, 2, 50, 127
4, 9809, Note_on_c, 2, 50, 0
4, 9810, Note_on_c, 2, 52, 127
4, 9839, Note_on_c, 2, 52, 0
4, 9840, Note_on_c, 2, 53, 127
4, 10019, Note_on_c, 2, 53, 0
4, 10020, Note_on_c, 2, 55, 127
4, 10049, Note_on_c, 2, 55, 0
4, 10050, Note_on_c, 2, 57, 127
4, 10079, Note_on_c, 2, 57, 0
4, 10080, Note_on_c, 2, 50, 127
4, 10139, Note_on_c, 2, 50, 0
4, 10140, Note_on_c, 2, 52, 127
4, 10169, Note_on_c, 2, 52, 0
4, 10170, Note_on_c, 2, 53, 127
4, 10199, Note_on_c, 2, 53, 0
4, 10200, Note_on_c, 2, 47, 127
4, 10259, Note_on_c, 2, 47, 0
4, 10260, Note_on_c, 2, 48, 127
4, 10289, Note_on_c, 2, 48, 0
4, 10290, Note_on_c, 2, 50, 127
4, 10319, Note_on_c, 2, 50, 0
4, 10320, Note_on_c, 2, 44, 127
4, 10379, Note_on_c, 2, 44, 0
4, 10380, Note_on_c, 2, 40, 127
4, 10439, Note_on_c, 2, 40, 0
4, 10440, Note_on_c, 2, 45, 127
4, 10619, Note_on_c, 2, 45, 0
4, 10620, Note_on_c, 2, 57, 127
4, 10649, Note_on_c, 2, 57, 0
4, 10650, Note_on_c, 2, 55, 127
4, 10679, Note_on_c, 2, 55, 0
4, 10680, Note_on_c, 2, 54, 127
4, 10739, Note_on_c, 2, 54, 0
4, 10740, Note_on_c, 2, 52, 127
4, 10769, Note_on_c, 2, 52, 0
4, 10770, Note_on_c, 2, 50, 127
4, 10799, Note_on_c, 2, 50, 0
4, 10800, Note_on_c, 2, 55, 127
4, 10859, Note_on_c, 2, 55, 0
4, 10860, Note_on_c, 2, 50, 127
4, 10889, Note_on_c, 2, 50, 0
4, 10890, Note_on_c, 2, 53, 127
4, 10920, Note_on_c, 2, 53, 0
4, 10922, Note_on_c, 2, 52, 127
4, 10981, Note_on_c, 2, 52, 0
4, 10983, Note_on_c, 2, 50, 127
4, 11003, Note_on_c, 2, 48, 127
4, 11012, Note_on_c, 2, 50, 0
4, 11033, Note_on_c, 2, 48, 0
4, 11040, Note_on_c, 2, 53, 127
4, 11099, Note_on_c, 2, 53, 0
4, 11100, Note_on_c, 2, 48, 127
4, 11129, Note_on_c, 2, 48, 0
4, 11130, Note_on_c, 2, 52, 127
4, 11159, Note_on_c, 2, 52, 0
4, 11160, Note_on_c, 2, 50, 127
4, 11219, Note_on_c, 2, 50, 0
4, 11220, Note_on_c, 2, 48, 127
4, 11249, Note_on_c, 2, 48, 0
4, 11250, Note_on_c, 2, 47, 127
4, 11279, Note_on_c, 2, 47, 0
4, 11280, Note_on_c, 2, 52, 127
4, 11519, Note_on_c, 2, 52, 0
4, 11520, Note_on_c, 2, 53, 127
4, 11639, Note_on_c, 2, 53, 0
4, 11640, Note_on_c, 2, 54, 127
4, 11759, Note_on_c, 2, 54, 0
4, 11760, Note_on_c, 2, 55, 127
4, 11819, Note_on_c, 2, 55, 0
4, 11820, Note_on_c, 2, 55, 127
4, 11849, Note_on_c, 2, 55, 0
4, 11850, Note_on_c, 2, 53, 127
4, 11879, Note_on_c, 2, 53, 0
4, 11880, Note_on_c, 2, 52, 127
4, 11939, Note_on_c, 2, 52, 0
4, 11940, Note_on_c, 2, 52, 127
4, 11969, Note_on_c, 2, 52, 0
4, 11970, Note_on_c, 2, 50, 127
4, 11999, Note_on_c, 2, 50, 0
4, 12000, Note_on_c, 2, 48, 127
4, 12059, Note_on_c, 2, 48, 0
4, 12060, Note_on_c, 2, 48, 127
4, 12089, Note_on_c, 2, 48, 0
4, 12090, Note_on_c, 2, 47, 127
4, 12119, Note_on_c, 2, 47, 0
4, 12120, Note_on_c, 2, 45, 127
4, 12179, Note_on_c, 2, 45, 0
4, 12180, Note_on_c, 2, 45, 127
4, 12209, Note_on_c, 2, 45, 0
4, 12210, Note_on_c, 2, 43, 127
4, 12239, Note_on_c, 2, 43, 0
4, 12240, Note_on_c, 2, 41, 127
4, 12299, Note_on_c, 2, 41, 0
4, 12300, Note_on_c, 2, 45, 127
4, 12329, Note_on_c, 2, 45, 0
4, 12330, Note_on_c, 2, 43, 127
4, 12359, Note_on_c, 2, 43, 0
4, 12360, Note_on_c, 2, 41, 127
4, 12419, Note_on_c, 2, 41, 0
4, 12420, Note_on_c, 2, 41, 127
4, 12449, Note_on_c, 2, 41, 0
4, 12450, Note_on_c, 2, 40, 127
4, 12479, Note_on_c, 2, 40, 0
4, 12480, Note_on_c, 2, 38, 127
4, 12539, Note_on_c, 2, 38, 0
4, 12540, Note_on_c, 2, 50, 127
4, 12569, Note_on_c, 2, 50, 0
4, 12570, Note_on_c, 2, 48, 127
4, 12599, Note_on_c, 2, 48, 0
4, 12600, Note_on_c, 2, 47, 127
4, 12659, Note_on_c, 2, 47, 0
4, 12660, Note_on_c, 2, 45, 127
4, 12689, Note_on_c, 2, 45, 0
4, 12690, Note_on_c, 2, 43, 127
4, 12719, Note_on_c, 2, 43, 0
4, 12720, Note_on_c, 2, 48, 127
4, 12899, Note_on_c, 2, 48, 0
4, 12900, Note_on_c, 2, 50, 127
4, 12929, Note_on_c, 2, 50, 0
4, 12930, Note_on_c, 2, 52, 127
4, 12959, Note_on_c, 2, 52, 0
4, 12960, Note_on_c, 2, 45, 127
4, 13139, Note_on_c, 2, 45, 0
4, 13140, Note_on_c, 2, 47, 127
4, 13169, Note_on_c, 2, 47, 0
4, 13170, Note_on_c, 2, 48, 127
4, 13199, Note_on_c, 2, 48, 0
4, 13200, Note_on_c, 2, 41, 127
4, 13319, Note_on_c, 2, 41, 0
4, 13320, Note_on_c, 2, 42, 127
4, 13379, Note_on_c, 2, 42, 0
4, 13380, Note_on_c, 2, 40, 127
4, 13409, Note_on_c, 2, 40, 0
4, 13410, Note_on_c, 2, 42, 127
4, 13439, Note_on_c, 2, 42, 0
4, 13440, Note_on_c, 2, 43, 127
4, 13559, Note_on_c, 2, 43, 0
4, 14400, Note_on_c, 2, 55, 127
4, 15899, Note_on_c, 2, 55, 0
4, 15900, Note_on_c, 2, 55, 127
4, 15929, Note_on_c, 2, 55, 0
4, 15930, Note_on_c, 2, 53, 127
4, 15959, Note_on_c, 2, 53, 0
4, 15960, Note_on_c, 2, 52, 127
4, 16019, Note_on_c, 2, 52, 0
4, 16020, Note_on_c, 2, 50, 127
4, 16049, Note_on_c, 2, 50, 0
4, 16050, Note_on_c, 2, 48, 127
4, 16079, Note_on_c, 2, 48, 0
4, 16080, Note_on_c, 2, 47, 127
4, 16139, Note_on_c, 2, 47, 0
4, 16140, Note_on_c, 2, 43, 127
4, 16169, Note_on_c, 2, 43, 0
4, 16170, Note_on_c, 2, 41, 127
4, 16199, Note_on_c, 2, 41, 0
4, 16200, Note_on_c, 2, 40, 127
4, 16259, Note_on_c, 2, 40, 0
4, 16260, Note_on_c, 2, 38, 127
4, 16289, Note_on_c, 2, 38, 0
4, 16290, Note_on_c, 2, 36, 127
4, 16319, Note_on_c, 2, 36, 0
4, 16320, Note_on_c, 2, 41, 127
4, 16439, Note_on_c, 2, 41, 0
4, 16440, Note_on_c, 2, 53, 127
4, 16559, Note_on_c, 2, 53, 0
4, 16560, Note_on_c, 2, 55, 127
4, 17400, Note_on_c, 2, 55, 0
4, 17400, Note_on_c, 2, 53, 127
4, 17519, Note_on_c, 2, 53, 0
4, 17520, Note_on_c, 2, 53, 127
4, 17579, Note_on_c, 2, 53, 0
4, 17580, Note_on_c, 2, 55, 127
4, 17609, Note_on_c, 2, 55, 0
4, 17610, Note_on_c, 2, 53, 127
4, 17639, Note_on_c, 2, 53, 0
4, 17640, Note_on_c, 2, 52, 127
4, 17699, Note_on_c, 2, 52, 0
4, 17700, Note_on_c, 2, 50, 127
4, 17729, Note_on_c, 2, 50, 0
4, 17730, Note_on_c, 2, 48, 127
4, 17759, Note_on_c, 2, 48, 0
4, 17760, Note_on_c, 2, 55, 127
4, 18959, Note_on_c, 2, 55, 0
4, 18960, Note_on_c, 2, 48, 127
4, 19019, Note_on_c, 2, 48, 0
4, 19020, Note_on_c, 2, 60, 127
4, 19049, Note_on_c, 2, 60, 0
4, 19050, Note_on_c, 2, 58, 127
4, 19079, Note_on_c, 2, 58, 0
4, 19080, Note_on_c, 2, 57, 127
4, 19139, Note_on_c, 2, 57, 0
4, 19140, Note_on_c, 2, 55, 127
4, 19169, Note_on_c, 2, 55, 0
4, 19170, Note_on_c, 2, 53, 127
4, 19199, Note_on_c, 2, 53, 0
4, 19200, Note_on_c, 2, 52, 127
4, 19319, Note_on_c, 2, 52, 0
4, 19320, Note_on_c, 2, 53, 127
4, 19439, Note_on_c, 2, 53, 0
4, 19440, Note_on_c, 2, 48, 127
4, 20159, Note_on_c, 2, 48, 0
4, 20159, End_track
5, 0, Start_track
5, 0, MIDI_port, 0
5, 0, Title_t, "Bass Clef         "
5, 0, Program_c, 3, 43
5, 0, Control_c, 3, 7, 55
5, 0, Control_c, 3, 10, 64
5, 0, Note_on_c, 3, 36, 95
5, 59, Note_on_c, 3, 36, 0
5, 60, Note_on_c, 3, 38, 95
5, 119, Note_on_c, 3, 38, 0
5, 120, Note_on_c, 3, 40, 95
5, 179, Note_on_c, 3, 40, 0
5, 180, Note_on_c, 3, 36, 95
5, 239, Note_on_c, 3, 36, 0
5, 240, Note_on_c, 3, 43, 95
5, 959, Note_on_c, 3, 43, 0
5, 960, Note_on_c, 3, 45, 95
5, 1139, Note_on_c, 3, 45, 0
5, 1140, Note_on_c, 3, 43, 95
5, 1199, Note_on_c, 3, 43, 0
5, 1200, Note_on_c, 3, 42, 95
5, 1439, Note_on_c, 3, 42, 0
5, 1440, Note_on_c, 3, 43, 95
5, 1619, Note_on_c, 3, 43, 0
5, 1620, Note_on_c, 3, 41, 95
5, 1679, Note_on_c, 3, 41, 0
5, 1680, Note_on_c, 3, 40, 95
5, 2159, Note_on_c, 3, 40, 0
5, 2159, Note_on_c, 3, 41, 95
5, 2518, Note_on_c, 3, 41, 0
5, 2520, Note_on_c, 3, 42, 95
5, 2639, Note_on_c, 3, 42, 0
5, 2640, Note_on_c, 3, 43, 95
5, 3179, Note_on_c, 3, 43, 0
5, 3180, Note_on_c, 3, 45, 95
5, 3209, Note_on_c, 3, 45, 0
5, 3210, Note_on_c, 3, 46, 95
5, 3239, Note_on_c, 3, 46, 0
5, 3240, Note_on_c, 3, 45, 95
5, 3299, Note_on_c, 3, 45, 0
5, 3300, Note_on_c, 3, 43, 95
5, 3329, Note_on_c, 3, 43, 0
5, 3330, Note_on_c, 3, 45, 95
5, 3359, Note_on_c, 3, 45, 0
5, 3360, Note_on_c, 3, 41, 95
5, 3599, Note_on_c, 3, 41, 0
5, 3600, Note_on_c, 3, 38, 95
5, 3839, Note_on_c, 3, 38, 0
5, 3840, Note_on_c, 3, 40, 95
5, 4799, Note_on_c, 3, 40, 0
5, 4800, Note_on_c, 3, 33, 95
5, 5038, Note_on_c, 3, 38, 95
5, 5039, Note_on_c, 3, 33, 0
5, 5518, Note_on_c, 3, 38, 0
5, 5520, Note_on_c, 3, 37, 95
5, 5759, Note_on_c, 3, 37, 0
5, 5760, Note_on_c, 3, 38, 95
5, 6119, Note_on_c, 3, 38, 0
5, 6120, Note_on_c, 3, 37, 95
5, 6239, Note_on_c, 3, 37, 0
5, 6240, Note_on_c, 3, 36, 95
5, 6479, Note_on_c, 3, 36, 0
5, 6480, Note_on_c, 3, 35, 95
5, 6719, Note_on_c, 3, 35, 0
5, 6720, Note_on_c, 3, 36, 95
5, 6959, Note_on_c, 3, 36, 0
5, 6960, Note_on_c, 3, 30, 95
5, 7199, Note_on_c, 3, 30, 0
5, 7204, Note_on_c, 3, 31, 95
5, 8763, Note_on_c, 3, 31, 0
5, 9600, Note_on_c, 3, 36, 95
5, 9779, Note_on_c, 3, 36, 0
5, 9780, Note_on_c, 3, 38, 95
5, 9809, Note_on_c, 3, 38, 0
5, 9810, Note_on_c, 3, 40, 95
5, 9839, Note_on_c, 3, 40, 0
5, 9840, Note_on_c, 3, 41, 95
5, 10019, Note_on_c, 3, 41, 0
5, 10020, Note_on_c, 3, 43, 95
5, 10049, Note_on_c, 3, 43, 0
5, 10050, Note_on_c, 3, 45, 95
5, 10079, Note_on_c, 3, 45, 0
5, 10080, Note_on_c, 3, 38, 95
5, 10139, Note_on_c, 3, 38, 0
5, 10140, Note_on_c, 3, 40, 95
5, 10169, Note_on_c, 3, 40, 0
5, 10170, Note_on_c, 3, 41, 95
5, 10199, Note_on_c, 3, 41, 0
5, 10200, Note_on_c, 3, 35, 95
5, 10259, Note_on_c, 3, 35, 0
5, 10260, Note_on_c, 3, 36, 95
5, 10289, Note_on_c, 3, 36, 0
5, 10290, Note_on_c, 3, 38, 95
5, 10319, Note_on_c, 3, 38, 0
5, 10320, Note_on_c, 3, 32, 95
5, 10379, Note_on_c, 3, 32, 0
5, 10380, Note_on_c, 3, 28, 95
5, 10439, Note_on_c, 3, 28, 0
5, 10440, Note_on_c, 3, 33, 95
5, 10619, Note_on_c, 3, 33, 0
5, 10620, Note_on_c, 3, 45, 95
5, 10649, Note_on_c, 3, 45, 0
5, 10650, Note_on_c, 3, 43, 95
5, 10679, Note_on_c, 3, 43, 0
5, 10680, Note_on_c, 3, 42, 95
5, 10739, Note_on_c, 3, 42, 0
5, 10740, Note_on_c, 3, 40, 95
5, 10769, Note_on_c, 3, 40, 0
5, 10770, Note_on_c, 3, 38, 95
5, 10799, Note_on_c, 3, 38, 0
5, 10800, Note_on_c, 3, 43, 95
5, 10859, Note_on_c, 3, 43, 0
5, 10860, Note_on_c, 3, 38, 95
5, 10889, Note_on_c, 3, 38, 0
5, 10890, Note_on_c, 3, 41, 95
5, 10920, Note_on_c, 3, 41, 0
5, 10922, Note_on_c, 3, 40, 95
5, 10981, Note_on_c, 3, 40, 0
5, 10983, Note_on_c, 3, 38, 95
5, 11003, Note_on_c, 3, 36, 95
5, 11012, Note_on_c, 3, 38, 0
5, 11033, Note_on_c, 3, 36, 0
5, 11040, Note_on_c, 3, 41, 95
5, 11099, Note_on_c, 3, 41, 0
5, 11100, Note_on_c, 3, 36, 95
5, 11129, Note_on_c, 3, 36, 0
5, 11130, Note_on_c, 3, 40, 95
5, 11159, Note_on_c, 3, 40, 0
5, 11160, Note_on_c, 3, 38, 95
5, 11219, Note_on_c, 3, 38, 0
5, 11220, Note_on_c, 3, 36, 95
5, 11249, Note_on_c, 3, 36, 0
5, 11250, Note_on_c, 3, 35, 95
5, 11279, Note_on_c, 3, 35, 0
5, 11280, Note_on_c, 3, 40, 95
5, 11519, Note_on_c, 3, 40, 0
5, 11520, Note_on_c, 3, 41, 95
5, 11639, Note_on_c, 3, 41, 0
5, 11640, Note_on_c, 3, 42, 95
5, 11759, Note_on_c, 3, 42, 0
5, 11760, Note_on_c, 3, 43, 95
5, 11819, Note_on_c, 3, 43, 0
5, 11820, Note_on_c, 3, 43, 95
5, 11849, Note_on_c, 3, 43, 0
5, 11850, Note_on_c, 3, 41, 95
5, 11879, Note_on_c, 3, 41, 0
5, 11880, Note_on_c, 3, 40, 95
5, 11939, Note_on_c, 3, 40, 0
5, 11940, Note_on_c, 3, 40, 95
5, 11969, Note_on_c, 3, 40, 0
5, 11970, Note_on_c, 3, 38, 95
5, 11999, Note_on_c, 3, 38, 0
5, 12000, Note_on_c, 3, 36, 95
5, 12059, Note_on_c, 3, 36, 0
5, 12060, Note_on_c, 3, 36, 95
5, 12089, Note_on_c, 3, 36, 0
5, 12090, Note_on_c, 3, 35, 95
5, 12119, Note_on_c, 3, 35, 0
5, 12120, Note_on_c, 3, 33, 95
5, 12179, Note_on_c, 3, 33, 0
5, 12180, Note_on_c, 3, 33, 95
5, 12209, Note_on_c, 3, 33, 0
5, 12210, Note_on_c, 3, 31, 95
5, 12239, Note_on_c, 3, 31, 0
5, 12240, Note_on_c, 3, 29, 95
5, 12299, Note_on_c, 3, 29, 0
5, 12300, Note_on_c, 3, 33, 95
5, 12329, Note_on_c, 3, 33, 0
5, 12330, Note_on_c, 3, 31, 95
5, 12359, Note_on_c, 3, 31, 0
5, 12360, Note_on_c, 3, 29, 95
5, 12419, Note_on_c, 3, 29, 0
5, 12420, Note_on_c, 3, 29, 95
5, 12449, Note_on_c, 3, 29, 0
5, 12450, Note_on_c, 3, 28, 95
5, 12479, Note_on_c, 3, 28, 0
5, 12480, Note_on_c, 3, 26, 95
5, 12539, Note_on_c, 3, 26, 0
5, 12540, Note_on_c, 3, 38, 95
5, 12569, Note_on_c, 3, 38, 0
5, 12570, Note_on_c, 3, 36, 95
5, 12599, Note_on_c, 3, 36, 0
5, 12600, Note_on_c, 3, 35, 95
5, 12659, Note_on_c, 3, 35, 0
5, 12660, Note_on_c, 3, 33, 95
5, 12689, Note_on_c, 3, 33, 0
5, 12690, Note_on_c, 3, 31, 95
5, 12719, Note_on_c, 3, 31, 0
5, 12720, Note_on_c, 3, 36, 95
5, 12899, Note_on_c, 3, 36, 0
5, 12900, Note_on_c, 3, 38, 95
5, 12929, Note_on_c, 3, 38, 0
5, 12930, Note_on_c, 3, 40, 95
5, 12959, Note_on_c, 3, 40, 0
5, 12960, Note_on_c, 3, 33, 95
5, 13139, Note_on_c, 3, 33, 0
5, 13140, Note_on_c, 3, 35, 95
5, 13169, Note_on_c, 3, 35, 0
5, 13170, Note_on_c, 3, 36, 95
5, 13199, Note_on_c, 3, 36, 0
5, 13200, Note_on_c, 3, 29, 95
5, 13319, Note_on_c, 3, 29, 0
5, 13320, Note_on_c, 3, 30, 95
5, 13379, Note_on_c, 3, 30, 0
5, 13380, Note_on_c, 3, 28, 95
5, 13409, Note_on_c, 3, 28, 0
5, 13410, Note_on_c, 3, 30, 95
5, 13439, Note_on_c, 3, 30, 0
5, 13440, Note_on_c, 3, 31, 95
5, 13559, Note_on_c, 3, 31, 0
5, 14400, Note_on_c, 3, 43, 95
5, 15899, Note_on_c, 3, 43, 0
5, 15900, Note_on_c, 3, 43, 95
5, 15929, Note_on_c, 3, 43, 0
5, 15930, Note_on_c, 3, 41, 95
5, 15959, Note_on_c, 3, 41, 0
5, 15960, Note_on_c, 3, 40, 95
5, 16019, Note_on_c, 3, 40, 0
5, 16020, Note_on_c, 3, 38, 95
5, 16049, Note_on_c, 3, 38, 0
5, 16050, Note_on_c, 3, 36, 95
5, 16079, Note_on_c, 3, 36, 0
5, 16080, Note_on_c, 3, 35, 95
5, 16139, Note_on_c, 3, 35, 0
5, 16140, Note_on_c, 3, 31, 95
5, 16169, Note_on_c, 3, 31, 0
5, 16170, Note_on_c, 3, 29, 95
5, 16199, Note_on_c, 3, 29, 0
5, 16200, Note_on_c, 3, 28, 95
5, 16259, Note_on_c, 3, 28, 0
5, 16260, Note_on_c, 3, 26, 95
5, 16289, Note_on_c, 3, 26, 0
5, 16290, Note_on_c, 3, 24, 95
5, 16319, Note_on_c, 3, 24, 0
5, 16320, Note_on_c, 3, 29, 95
5, 16439, Note_on_c, 3, 29, 0
5, 16440, Note_on_c, 3, 41, 95
5, 16559, Note_on_c, 3, 41, 0
5, 16560, Note_on_c, 3, 43, 95
5, 17400, Note_on_c, 3, 43, 0
5, 17400, Note_on_c, 3, 41, 95
5, 17519, Note_on_c, 3, 41, 0
5, 17520, Note_on_c, 3, 41, 95
5, 17579, Note_on_c, 3, 41, 0
5, 17580, Note_on_c, 3, 43, 95
5, 17609, Note_on_c, 3, 43, 0
5, 17610, Note_on_c, 3, 41, 95
5, 17639, Note_on_c, 3, 41, 0
5, 17640, Note_on_c, 3, 40, 95
5, 17699, Note_on_c, 3, 40, 0
5, 17700, Note_on_c, 3, 38, 95
5, 17729, Note_on_c, 3, 38, 0
5, 17730, Note_on_c, 3, 36, 95
5, 17759, Note_on_c, 3, 36, 0
5, 17760, Note_on_c, 3, 43, 95
5, 18959, Note_on_c, 3, 43, 0
5, 18960, Note_on_c, 3, 36, 95
5, 19019, Note_on_c, 3, 36, 0
5, 19020, Note_on_c, 3, 48, 95
5, 19049, Note_on_c, 3, 48, 0
5, 19050, Note_on_c, 3, 46, 95
5, 19079, Note_on_c, 3, 46, 0
5, 19080, Note_on_c, 3, 45, 95
5, 19139, Note_on_c, 3, 45, 0
5, 19140, Note_on_c, 3, 43, 95
5, 19169, Note_on_c, 3, 43, 0
5, 19170, Note_on_c, 3, 41, 95
5, 19199, Note_on_c, 3, 41, 0
5, 19200, Note_on_c, 3, 40, 95
5, 19319, Note_on_c, 3, 40, 0
5, 19320, Note_on_c, 3, 41, 95
5, 19439, Note_on_c, 3, 41, 0
5, 19440, Note_on_c, 3, 36, 95
5, 20159, Note_on_c, 3, 36, 0
5, 20159, End_track
6, 0, Start_track
6, 0, MIDI_port, 0
6, 0, Title_t, "Treble Clef       "
6, 0, Program_c, 4, 48
6, 0, Control_c, 4, 7, 60
6, 0, Control_c, 4, 10, 84
6, 0, Control_c, 4, 93, 3
6, 0, Control_c, 4, 93, 3
6, 0, Control_c, 4, 1, 2
6, 0, Control_c, 4, 1, 2
6, 0, Control_c, 4, 92, 0
6, 0, Note_on_c, 4, 67, 120
6, 1, Control_c, 4, 93, 0
6, 1, Control_c, 4, 93, 0
6, 1, Control_c, 4, 1, 0
6, 1, Control_c, 4, 1, 0
6, 6, Note_on_c, 4, 67, 120
6, 117, Note_on_c, 4, 72, 120
6, 247, Note_on_c, 4, 67, 0
6, 297, Note_on_c, 4, 72, 0
6, 301, Note_on_c, 4, 74, 120
6, 360, Note_on_c, 4, 71, 120
6, 361, Note_on_c, 4, 74, 0
6, 479, Note_on_c, 4, 71, 0
6, 480, Note_on_c, 4, 76, 120
6, 540, Note_on_c, 4, 67, 0
6, 540, Note_on_c, 4, 67, 120
6, 599, Note_on_c, 4, 67, 0
6, 600, Note_on_c, 4, 72, 120
6, 659, Note_on_c, 4, 76, 0
6, 660, Note_on_c, 4, 77, 120
6, 719, Note_on_c, 4, 77, 0
6, 720, Note_on_c, 4, 74, 120
6, 780, Note_on_c, 4, 72, 0
6, 781, Note_on_c, 4, 72, 127
6, 838, Note_on_c, 4, 71, 127
6, 841, Note_on_c, 4, 72, 0
6, 899, Note_on_c, 4, 74, 0
6, 900, Note_on_c, 4, 76, 127
6, 958, Note_on_c, 4, 71, 0
6, 960, Note_on_c, 4, 76, 0
6, 960, Note_on_c, 4, 72, 120
6, 966, Note_on_c, 4, 71, 127
6, 1026, Note_on_c, 4, 71, 0
6, 1026, Note_on_c, 4, 71, 127
6, 1077, Note_on_c, 4, 69, 127
6, 1086, Note_on_c, 4, 71, 0
6, 1260, Note_on_c, 4, 72, 0
6, 1260, Note_on_c, 4, 76, 127
6, 1314, Note_on_c, 4, 74, 127
6, 1320, Note_on_c, 4, 76, 0
6, 1320, Note_on_c, 4, 69, 120
6, 1374, Note_on_c, 4, 74, 0
6, 1380, Note_on_c, 4, 72, 127
6, 1437, Note_on_c, 4, 69, 0
6, 1440, Note_on_c, 4, 72, 0
6, 1440, Note_on_c, 4, 71, 120
6, 1499, Note_on_c, 4, 71, 0
6, 1500, Note_on_c, 4, 69, 120
6, 1559, Note_on_c, 4, 69, 0
6, 1559, Note_on_c, 4, 69, 0
6, 1560, Note_on_c, 4, 71, 120
6, 1560, Note_on_c, 4, 67, 120
6, 1679, Note_on_c, 4, 67, 0
6, 1679, Note_on_c, 4, 71, 0
6, 1740, Note_on_c, 4, 76, 120
6, 1799, Note_on_c, 4, 76, 0
6, 1800, Note_on_c, 4, 79, 120
6, 1859, Note_on_c, 4, 79, 0
6, 1860, Note_on_c, 4, 76, 120
6, 1919, Note_on_c, 4, 76, 0
6, 1920, Note_on_c, 4, 72, 120
6, 1979, Note_on_c, 4, 72, 0
6, 1980, Note_on_c, 4, 76, 120
6, 2039, Note_on_c, 4, 76, 0
6, 2040, Note_on_c, 4, 67, 120
6, 2099, Note_on_c, 4, 67, 0
6, 2100, Note_on_c, 4, 72, 120
6, 2159, Note_on_c, 4, 72, 0
6, 2160, Note_on_c, 4, 69, 120
6, 2219, Note_on_c, 4, 69, 0
6, 2220, Note_on_c, 4, 72, 120
6, 2279, Note_on_c, 4, 72, 0
6, 2280, Note_on_c, 4, 74, 120
6, 2339, Note_on_c, 4, 74, 0
6, 2340, Note_on_c, 4, 76, 120
6, 2399, Note_on_c, 4, 76, 0
6, 2400, Note_on_c, 4, 77, 120
6, 2459, Note_on_c, 4, 77, 0
6, 2460, Note_on_c, 4, 76, 120
6, 2519, Note_on_c, 4, 76, 0
6, 2520, Note_on_c, 4, 74, 120
6, 2579, Note_on_c, 4, 74, 0
6, 2580, Note_on_c, 4, 72, 120
6, 2639, Note_on_c, 4, 72, 0
6, 2640, Note_on_c, 4, 71, 120
6, 2699, Note_on_c, 4, 71, 0
6, 2700, Note_on_c, 4, 67, 120
6, 2759, Note_on_c, 4, 67, 0
6, 2760, Note_on_c, 4, 72, 120
6, 2939, Note_on_c, 4, 72, 0
6, 2940, Note_on_c, 4, 74, 120
6, 2969, Note_on_c, 4, 74, 0
6, 2970, Note_on_c, 4, 72, 120
6, 2999, Note_on_c, 4, 72, 0
6, 3000, Note_on_c, 4, 71, 120
6, 3000, Note_on_c, 4, 67, 120
6, 3059, Note_on_c, 4, 71, 0
6, 3060, Note_on_c, 4, 72, 120
6, 3089, Note_on_c, 4, 72, 0
6, 3090, Note_on_c, 4, 71, 120
6, 3119, Note_on_c, 4, 71, 0
6, 3119, Note_on_c, 4, 67, 0
6, 3120, Note_on_c, 4, 69, 120
6, 3120, Note_on_c, 4, 64, 120
6, 3359, Note_on_c, 4, 64, 0
6, 3360, Note_on_c, 4, 65, 120
6, 3419, Note_on_c, 4, 69, 0
6, 3420, Note_on_c, 4, 71, 120
6, 3449, Note_on_c, 4, 71, 0
6, 3450, Note_on_c, 4, 72, 120
6, 3479, Note_on_c, 4, 72, 0
6, 3480, Note_on_c, 4, 74, 120
6, 3599, Note_on_c, 4, 74, 0
6, 3600, Note_on_c, 4, 74, 120
6, 3659, Note_on_c, 4, 74, 0
6, 3660, Note_on_c, 4, 76, 120
6, 3689, Note_on_c, 4, 76, 0
6, 3690, Note_on_c, 4, 77, 120
6, 3719, Note_on_c, 4, 77, 0
6, 3720, Note_on_c, 4, 71, 120
6, 3779, Note_on_c, 4, 71, 0
6, 3780, Note_on_c, 4, 72, 120
6, 3809, Note_on_c, 4, 72, 0
6, 3810, Note_on_c, 4, 74, 120
6, 3839, Note_on_c, 4, 74, 0
6, 3839, Note_on_c, 4, 65, 0
6, 3840, Note_on_c, 4, 68, 120
6, 3842, Note_on_c, 4, 65, 120
6, 3899, Note_on_c, 4, 64, 120
6, 3901, Note_on_c, 4, 65, 0
6, 3928, Note_on_c, 4, 64, 0
6, 3928, Note_on_c, 4, 62, 120
6, 3957, Note_on_c, 4, 62, 0
6, 3959, Note_on_c, 4, 60, 120
6, 4019, Note_on_c, 4, 69, 127
6, 4020, Note_on_c, 4, 68, 0
6, 4049, Note_on_c, 4, 69, 0
6, 4049, Note_on_c, 4, 71, 127
6, 4078, Note_on_c, 4, 60, 0
6, 4079, Note_on_c, 4, 71, 0
6, 4079, Note_on_c, 4, 69, 120
6, 4139, Note_on_c, 4, 69, 0
6, 4139, Note_on_c, 4, 71, 120
6, 4169, Note_on_c, 4, 71, 0
6, 4171, Note_on_c, 4, 72, 120
6, 4199, Note_on_c, 4, 74, 120
6, 4201, Note_on_c, 4, 72, 0
6, 4259, Note_on_c, 4, 74, 0
6, 4259, Note_on_c, 4, 72, 120
6, 4289, Note_on_c, 4, 72, 0
6, 4290, Note_on_c, 4, 74, 120
6, 4320, Note_on_c, 4, 74, 0
6, 4320, Note_on_c, 4, 71, 120
6, 4320, Note_on_c, 4, 71, 120
6, 4321, Note_on_c, 4, 64, 120
6, 4379, Note_on_c, 4, 71, 0
6, 4499, Note_on_c, 4, 71, 0
6, 4500, Note_on_c, 4, 72, 120
6, 4529, Note_on_c, 4, 72, 0
6, 4530, Note_on_c, 4, 71, 120
6, 4559, Note_on_c, 4, 71, 0
6, 4560, Note_on_c, 4, 69, 120
6, 4739, Note_on_c, 4, 69, 0
6, 4740, Note_on_c, 4, 71, 120
6, 4769, Note_on_c, 4, 71, 0
6, 4770, Note_on_c, 4, 68, 120
6, 4799, Note_on_c, 4, 68, 0
6, 4800, Note_on_c, 4, 72, 120
6, 5039, Note_on_c, 4, 72, 0
6, 5040, Note_on_c, 4, 72, 120
6, 5040, Note_on_c, 4, 62, 120
6, 5041, Note_on_c, 4, 64, 0
6, 5099, Note_on_c, 4, 72, 0
6, 5100, Note_on_c, 4, 74, 120
6, 5129, Note_on_c, 4, 74, 0
6, 5130, Note_on_c, 4, 72, 120
6, 5160, Note_on_c, 4, 72, 0
6, 5162, Note_on_c, 4, 70, 120
6, 5221, Note_on_c, 4, 70, 0
6, 5221, Note_on_c, 4, 72, 120
6, 5250, Note_on_c, 4, 72, 0
6, 5250, Note_on_c, 4, 69, 120
6, 5279, Note_on_c, 4, 62, 0
6, 5280, Note_on_c, 4, 69, 0
6, 5280, Note_on_c, 4, 70, 120
6, 5280, Note_on_c, 4, 62, 120
6, 5339, Note_on_c, 4, 64, 120
6, 5340, Note_on_c, 4, 62, 0
6, 5369, Note_on_c, 4, 64, 0
6, 5369, Note_on_c, 4, 66, 120
6, 5397, Note_on_c, 4, 67, 127
6, 5399, Note_on_c, 4, 66, 0
6, 5517, Note_on_c, 4, 67, 0
6, 5579, Note_on_c, 4, 64, 127
6, 5609, Note_on_c, 4, 67, 127
6, 5610, Note_on_c, 4, 70, 0
6, 5639, Note_on_c, 4, 67, 0
6, 5639, Note_on_c, 4, 64, 0
6, 5641, Note_on_c, 4, 69, 127
6, 5699, Note_on_c, 4, 67, 127
6, 5701, Note_on_c, 4, 69, 0
6, 5729, Note_on_c, 4, 67, 0
6, 5729, Note_on_c, 4, 69, 127
6, 5759, Note_on_c, 4, 69, 0
6, 5760, Note_on_c, 4, 65, 120
6, 5765, Note_on_c, 4, 64, 120
6, 5818, Note_on_c, 4, 62, 120
6, 5825, Note_on_c, 4, 64, 0
6, 5848, Note_on_c, 4, 62, 0
6, 5850, Note_on_c, 4, 61, 120
6, 5877, Note_on_c, 4, 62, 120
6, 5880, Note_on_c, 4, 61, 0
6, 5937, Note_on_c, 4, 64, 120
6, 5939, Note_on_c, 4, 65, 0
6, 5968, Note_on_c, 4, 64, 0
6, 5968, Note_on_c, 4, 65, 120
6, 5997, Note_on_c, 4, 65, 0
6, 5997, Note_on_c, 4, 62, 0
6, 5997, Note_on_c, 4, 64, 120
6, 5998, Note_on_c, 4, 67, 120
6, 6058, Note_on_c, 4, 67, 0
6, 6061, Note_on_c, 4, 69, 120
6, 6088, Note_on_c, 4, 70, 120
6, 6091, Note_on_c, 4, 69, 0
6, 6118, Note_on_c, 4, 70, 0
6, 6121, Note_on_c, 4, 69, 120
6, 6177, Note_on_c, 4, 64, 0
6, 6180, Note_on_c, 4, 64, 120
6, 6209, Note_on_c, 4, 64, 0
6, 6210, Note_on_c, 4, 65, 120
6, 6239, Note_on_c, 4, 65, 0
6, 6240, Note_on_c, 4, 66, 120
6, 6241, Note_on_c, 4, 69, 0
6, 6300, Note_on_c, 4, 71, 120
6, 6329, Note_on_c, 4, 71, 0
6, 6330, Note_on_c, 4, 72, 120
6, 6359, Note_on_c, 4, 72, 0
6, 6360, Note_on_c, 4, 74, 120
6, 6419, Note_on_c, 4, 66, 0
6, 6420, Note_on_c, 4, 64, 120
6, 6449, Note_on_c, 4, 64, 0
6, 6450, Note_on_c, 4, 66, 120
6, 6479, Note_on_c, 4, 66, 0
6, 6480, Note_on_c, 4, 67, 120
6, 6539, Note_on_c, 4, 74, 0
6, 6540, Note_on_c, 4, 71, 120
6, 6569, Note_on_c, 4, 71, 0
6, 6570, Note_on_c, 4, 72, 120
6, 6599, Note_on_c, 4, 72, 0
6, 6600, Note_on_c, 4, 74, 120
6, 6659, Note_on_c, 4, 74, 0
6, 6660, Note_on_c, 4, 76, 120
6, 6689, Note_on_c, 4, 76, 0
6, 6690, Note_on_c, 4, 78, 120
6, 6719, Note_on_c, 4, 78, 0
6, 6719, Note_on_c, 4, 67, 0
6, 6720, Note_on_c, 4, 76, 120
6, 6720, Note_on_c, 4, 67, 120
6, 6779, Note_on_c, 4, 67, 0
6, 6780, Note_on_c, 4, 69, 120
6, 6809, Note_on_c, 4, 69, 0
6, 6810, Note_on_c, 4, 71, 120
6, 6839, Note_on_c, 4, 71, 0
6, 6840, Note_on_c, 4, 72, 120
6, 6959, Note_on_c, 4, 72, 0
6, 6960, Note_on_c, 4, 69, 120
6, 7019, Note_on_c, 4, 76, 0
6, 7020, Note_on_c, 4, 74, 120
6, 7049, Note_on_c, 4, 74, 0
6, 7050, Note_on_c, 4, 72, 120
6, 7079, Note_on_c, 4, 72, 0
6, 7080, Note_on_c, 4, 74, 120
6, 7139, Note_on_c, 4, 69, 0
6, 7140, Note_on_c, 4, 71, 120
6, 7169, Note_on_c, 4, 71, 0
6, 7170, Note_on_c, 4, 72, 120
6, 7199, Note_on_c, 4, 72, 0
6, 7200, Note_on_c, 4, 71, 120
6, 7259, Note_on_c, 4, 74, 0
6, 7260, Note_on_c, 4, 76, 120
6, 7289, Note_on_c, 4, 76, 0
6, 7290, Note_on_c, 4, 77, 120
6, 7319, Note_on_c, 4, 77, 0
6, 7320, Note_on_c, 4, 76, 120
6, 7380, Note_on_c, 4, 71, 0
6, 7381, Note_on_c, 4, 72, 120
6, 7410, Note_on_c, 4, 74, 120
6, 7411, Note_on_c, 4, 72, 0
6, 7440, Note_on_c, 4, 74, 0
6, 7440, Note_on_c, 4, 72, 120
6, 7497, Note_on_c, 4, 77, 120
6, 7500, Note_on_c, 4, 76, 0
6, 7527, Note_on_c, 4, 77, 0
6, 7531, Note_on_c, 4, 79, 120
6, 7556, Note_on_c, 4, 77, 120
6, 7561, Note_on_c, 4, 79, 0
6, 7619, Note_on_c, 4, 74, 120
6, 7620, Note_on_c, 4, 72, 0
6, 7649, Note_on_c, 4, 74, 0
6, 7649, Note_on_c, 4, 76, 120
6, 7676, Note_on_c, 4, 77, 0
6, 7679, Note_on_c, 4, 76, 0
6, 7680, Note_on_c, 4, 77, 120
6, 7680, Note_on_c, 4, 74, 120
6, 7739, Note_on_c, 4, 77, 0
6, 7740, Note_on_c, 4, 79, 120
6, 7769, Note_on_c, 4, 79, 0
6, 7770, Note_on_c, 4, 81, 120
6, 7799, Note_on_c, 4, 81, 0
6, 7800, Note_on_c, 4, 79, 120
6, 7859, Note_on_c, 4, 74, 0
6, 7860, Note_on_c, 4, 76, 120
6, 7889, Note_on_c, 4, 76, 0
6, 7890, Note_on_c, 4, 77, 120
6, 7919, Note_on_c, 4, 77, 0
6, 7920, Note_on_c, 4, 76, 120
6, 7979, Note_on_c, 4, 79, 0
6, 7980, Note_on_c, 4, 81, 120
6, 8009, Note_on_c, 4, 81, 0
6, 8010, Note_on_c, 4, 79, 120
6, 8039, Note_on_c, 4, 79, 0
6, 8040, Note_on_c, 4, 77, 120
6, 8099, Note_on_c, 4, 76, 0
6, 8100, Note_on_c, 4, 74, 120
6, 8129, Note_on_c, 4, 74, 0
6, 8130, Note_on_c, 4, 72, 120
6, 8159, Note_on_c, 4, 72, 0
6, 8160, Note_on_c, 4, 77, 0
6, 8160, Note_on_c, 4, 77, 120
6, 8160, Note_on_c, 4, 74, 120
6, 8220, Note_on_c, 4, 77, 0
6, 8220, Note_on_c, 4, 79, 120
6, 8249, Note_on_c, 4, 79, 0
6, 8250, Note_on_c, 4, 77, 120
6, 8279, Note_on_c, 4, 77, 0
6, 8280, Note_on_c, 4, 76, 120
6, 8339, Note_on_c, 4, 74, 0
6, 8340, Note_on_c, 4, 72, 120
6, 8369, Note_on_c, 4, 72, 0
6, 8370, Note_on_c, 4, 71, 120
6, 8399, Note_on_c, 4, 71, 0
6, 8400, Note_on_c, 4, 72, 120
6, 8459, Note_on_c, 4, 76, 0
6, 8460, Note_on_c, 4, 77, 120
6, 8489, Note_on_c, 4, 77, 0
6, 8490, Note_on_c, 4, 76, 120
6, 8519, Note_on_c, 4, 76, 0
6, 8520, Note_on_c, 4, 74, 120
6, 8579, Note_on_c, 4, 72, 0
6, 8580, Note_on_c, 4, 71, 120
6, 8609, Note_on_c, 4, 71, 0
6, 8610, Note_on_c, 4, 69, 120
6, 8639, Note_on_c, 4, 69, 0
6, 8640, Note_on_c, 4, 71, 120
6, 9120, Note_on_c, 4, 71, 0
6, 9120, Note_on_c, 4, 67, 120
6, 9179, Note_on_c, 4, 74, 0
6, 9180, Note_on_c, 4, 72, 120
6, 9209, Note_on_c, 4, 72, 0
6, 9210, Note_on_c, 4, 71, 120
6, 9239, Note_on_c, 4, 71, 0
6, 9240, Note_on_c, 4, 72, 120
6, 9299, Note_on_c, 4, 67, 0
6, 9300, Note_on_c, 4, 65, 120
6, 9329, Note_on_c, 4, 65, 0
6, 9330, Note_on_c, 4, 64, 120
6, 9359, Note_on_c, 4, 64, 0
6, 9360, Note_on_c, 4, 65, 120
6, 9419, Note_on_c, 4, 72, 0
6, 9420, Note_on_c, 4, 74, 120
6, 9449, Note_on_c, 4, 74, 0
6, 9450, Note_on_c, 4, 72, 120
6, 9479, Note_on_c, 4, 72, 0
6, 9480, Note_on_c, 4, 71, 120
6, 9539, Note_on_c, 4, 65, 0
6, 9540, Note_on_c, 4, 64, 120
6, 9569, Note_on_c, 4, 64, 0
6, 9570, Note_on_c, 4, 62, 120
6, 9599, Note_on_c, 4, 62, 0
6, 9599, Note_on_c, 4, 71, 0
6, 9600, Note_on_c, 4, 72, 120
6, 9600, Note_on_c, 4, 64, 120
6, 9719, Note_on_c, 4, 72, 0
6, 9779, Note_on_c, 4, 64, 0
6, 9780, Note_on_c, 4, 65, 120
6, 9809, Note_on_c, 4, 65, 0
6, 9810, Note_on_c, 4, 67, 120
6, 9839, Note_on_c, 4, 67, 0
6, 9840, Note_on_c, 4, 69, 120
6, 10019, Note_on_c, 4, 69, 0
6, 10020, Note_on_c, 4, 71, 120
6, 10049, Note_on_c, 4, 71, 0
6, 10050, Note_on_c, 4, 72, 120
6, 10079, Note_on_c, 4, 72, 0
6, 10080, Note_on_c, 4, 71, 120
6, 10203, Note_on_c, 4, 74, 120
6, 10440, Note_on_c, 4, 71, 0
6, 10440, Note_on_c, 4, 72, 120
6, 10442, Note_on_c, 4, 74, 0
6, 10497, Note_on_c, 4, 69, 120
6, 10527, Note_on_c, 4, 69, 0
6, 10530, Note_on_c, 4, 68, 120
6, 10560, Note_on_c, 4, 68, 0
6, 10560, Note_on_c, 4, 69, 120
6, 10680, Note_on_c, 4, 72, 0
6, 10799, Note_on_c, 4, 69, 0
6, 10800, Note_on_c, 4, 71, 120
6, 10800, Note_on_c, 4, 67, 120
6, 10919, Note_on_c, 4, 71, 0
6, 10920, Note_on_c, 4, 70, 120
6, 11039, Note_on_c, 4, 70, 0
6, 11039, Note_on_c, 4, 67, 0
6, 11040, Note_on_c, 4, 65, 120
6, 11040, Note_on_c, 4, 69, 120
6, 11159, Note_on_c, 4, 69, 0
6, 11160, Note_on_c, 4, 71, 120
6, 11279, Note_on_c, 4, 71, 0
6, 11279, Note_on_c, 4, 65, 0
6, 11280, Note_on_c, 4, 67, 120
6, 11280, Note_on_c, 4, 64, 120
6, 11459, Note_on_c, 4, 64, 0
6, 11460, Note_on_c, 4, 65, 120
6, 11489, Note_on_c, 4, 65, 0
6, 11490, Note_on_c, 4, 64, 120
6, 11519, Note_on_c, 4, 64, 0
6, 11519, Note_on_c, 4, 67, 0
6, 11520, Note_on_c, 4, 69, 120
6, 11520, Note_on_c, 4, 62, 120
6, 11639, Note_on_c, 4, 69, 0
6, 11640, Note_on_c, 4, 72, 120
6, 11699, Note_on_c, 4, 62, 0
6, 11700, Note_on_c, 4, 64, 120
6, 11729, Note_on_c, 4, 64, 0
6, 11730, Note_on_c, 4, 62, 120
6, 11759, Note_on_c, 4, 62, 0
6, 11759, Note_on_c, 4, 72, 0
6, 11760, Note_on_c, 4, 71, 120
6, 11760, Note_on_c, 4, 62, 120
6, 11879, Note_on_c, 4, 62, 0
6, 11880, Note_on_c, 4, 67, 120
6, 11999, Note_on_c, 4, 67, 0
6, 11999, Note_on_c, 4, 71, 0
6, 12000, Note_on_c, 4, 72, 120
6, 12000, Note_on_c, 4, 67, 120
6, 12119, Note_on_c, 4, 67, 0
6, 12120, Note_on_c, 4, 69, 120
6, 12239, Note_on_c, 4, 69, 0
6, 12239, Note_on_c, 4, 72, 0
6, 12240, Note_on_c, 4, 72, 120
6, 12240, Note_on_c, 4, 69, 120
6, 12479, Note_on_c, 4, 69, 0
6, 12479, Note_on_c, 4, 72, 0
6, 12480, Note_on_c, 4, 77, 120
6, 12480, Note_on_c, 4, 74, 120
6, 12719, Note_on_c, 4, 74, 0
6, 12719, Note_on_c, 4, 77, 0
6, 12720, Note_on_c, 4, 76, 120
6, 12720, Note_on_c, 4, 74, 120
6, 12779, Note_on_c, 4, 74, 0
6, 12780, Note_on_c, 4, 72, 120
6, 12809, Note_on_c, 4, 72, 0
6, 12810, Note_on_c, 4, 71, 120
6, 12839, Note_on_c, 4, 71, 0
6, 12840, Note_on_c, 4, 72, 120
6, 12959, Note_on_c, 4, 72, 0
6, 12959, Note_on_c, 4, 76, 0
6, 12960, Note_on_c, 4, 76, 120
6, 12960, Note_on_c, 4, 72, 120
6, 13019, Note_on_c, 4, 72, 0
6, 13020, Note_on_c, 4, 74, 120
6, 13049, Note_on_c, 4, 74, 0
6, 13050, Note_on_c, 4, 72, 120
6, 13079, Note_on_c, 4, 72, 0
6, 13080, Note_on_c, 4, 72, 120
6, 13259, Note_on_c, 4, 72, 0
6, 13260, Note_on_c, 4, 74, 120
6, 13289, Note_on_c, 4, 74, 0
6, 13290, Note_on_c, 4, 72, 120
6, 13319, Note_on_c, 4, 72, 0
6, 13319, Note_on_c, 4, 76, 0
6, 13320, Note_on_c, 4, 74, 120
6, 13320, Note_on_c, 4, 72, 120
6, 13441, Note_on_c, 4, 72, 0
6, 13447, Note_on_c, 4, 72, 120
6, 13497, Note_on_c, 4, 71, 120
6, 13507, Note_on_c, 4, 72, 0
6, 13527, Note_on_c, 4, 71, 0
6, 13527, Note_on_c, 4, 69, 120
6, 13557, Note_on_c, 4, 69, 0
6, 13559, Note_on_c, 4, 74, 0
6, 13559, Note_on_c, 4, 74, 120
6, 13560, Note_on_c, 4, 71, 120
6, 13619, Note_on_c, 4, 74, 0
6, 13623, Note_on_c, 4, 76, 120
6, 13649, Note_on_c, 4, 77, 120
6, 13652, Note_on_c, 4, 76, 0
6, 13678, Note_on_c, 4, 77, 0
6, 13680, Note_on_c, 4, 79, 120
6, 13739, Note_on_c, 4, 79, 0
6, 13739, Note_on_c, 4, 81, 120
6, 13740, Note_on_c, 4, 71, 0
6, 13741, Note_on_c, 4, 72, 120
6, 13768, Note_on_c, 4, 81, 0
6, 13771, Note_on_c, 4, 79, 120
6, 13800, Note_on_c, 4, 79, 0
6, 13803, Note_on_c, 4, 77, 120
6, 13859, Note_on_c, 4, 71, 120
6, 13861, Note_on_c, 4, 72, 0
6, 13861, Note_on_c, 4, 79, 120
6, 13862, Note_on_c, 4, 77, 0
6, 13890, Note_on_c, 4, 79, 0
6, 13890, Note_on_c, 4, 77, 120
6, 13919, Note_on_c, 4, 77, 0
6, 13919, Note_on_c, 4, 71, 0
6, 13920, Note_on_c, 4, 76, 120
6, 13920, Note_on_c, 4, 72, 120
6, 14039, Note_on_c, 4, 72, 0
6, 14039, Note_on_c, 4, 76, 0
6, 14040, Note_on_c, 4, 79, 120
6, 14040, Note_on_c, 4, 74, 120
6, 14159, Note_on_c, 4, 74, 0
6, 14159, Note_on_c, 4, 79, 0
6, 14160, Note_on_c, 4, 79, 120
6, 14160, Note_on_c, 4, 72, 120
6, 14219, Note_on_c, 4, 79, 0
6, 14220, Note_on_c, 4, 81, 120
6, 14249, Note_on_c, 4, 81, 0
6, 14250, Note_on_c, 4, 79, 120
6, 14279, Note_on_c, 4, 79, 0
6, 14280, Note_on_c, 4, 77, 120
6, 14339, Note_on_c, 4, 72, 0
6, 14340, Note_on_c, 4, 74, 120
6, 14369, Note_on_c, 4, 74, 0
6, 14370, Note_on_c, 4, 72, 120
6, 14399, Note_on_c, 4, 72, 0
6, 14399, Note_on_c, 4, 77, 0
6, 14400, Note_on_c, 4, 77, 120
6, 14400, Note_on_c, 4, 71, 120
6, 14459, Note_on_c, 4, 77, 0
6, 14460, Note_on_c, 4, 79, 120
6, 14489, Note_on_c, 4, 79, 0
6, 14490, Note_on_c, 4, 77, 120
6, 14519, Note_on_c, 4, 77, 0
6, 14519, Note_on_c, 4, 71, 0
6, 14520, Note_on_c, 4, 76, 120
6, 14520, Note_on_c, 4, 72, 120
6, 14579, Note_on_c, 4, 76, 0
6, 14580, Note_on_c, 4, 77, 120
6, 14609, Note_on_c, 4, 77, 0
6, 14610, Note_on_c, 4, 76, 120
6, 14639, Note_on_c, 4, 76, 0
6, 14639, Note_on_c, 4, 72, 0
6, 14640, Note_on_c, 4, 74, 120
6, 14640, Note_on_c, 4, 72, 120
6, 14699, Note_on_c, 4, 72, 0
6, 14700, Note_on_c, 4, 71, 120
6, 14729, Note_on_c, 4, 71, 0
6, 14730, Note_on_c, 4, 69, 120
6, 14757, Note_on_c, 4, 71, 120
6, 14759, Note_on_c, 4, 69, 0
6, 14877, Note_on_c, 4, 71, 0
6, 14879, Note_on_c, 4, 74, 0
6, 14880, Note_on_c, 4, 79, 120
6, 14880, Note_on_c, 4, 72, 120
6, 14939, Note_on_c, 4, 79, 0
6, 14940, Note_on_c, 4, 81, 120
6, 14969, Note_on_c, 4, 81, 0
6, 14970, Note_on_c, 4, 79, 120
6, 14999, Note_on_c, 4, 79, 0
6, 14999, Note_on_c, 4, 72, 0
6, 15000, Note_on_c, 4, 77, 120
6, 15000, Note_on_c, 4, 71, 120
6, 15059, Note_on_c, 4, 77, 0
6, 15060, Note_on_c, 4, 79, 120
6, 15089, Note_on_c, 4, 79, 0
6, 15090, Note_on_c, 4, 77, 120
6, 15119, Note_on_c, 4, 77, 0
6, 15119, Note_on_c, 4, 71, 0
6, 15120, Note_on_c, 4, 76, 120
6, 15120, Note_on_c, 4, 71, 120
6, 15179, Note_on_c, 4, 71, 0
6, 15180, Note_on_c, 4, 72, 120
6, 15209, Note_on_c, 4, 72, 0
6, 15210, Note_on_c, 4, 71, 120
6, 15239, Note_on_c, 4, 71, 0
6, 15240, Note_on_c, 4, 69, 120
6, 15299, Note_on_c, 4, 76, 0
6, 15300, Note_on_c, 4, 77, 120
6, 15329, Note_on_c, 4, 77, 0
6, 15330, Note_on_c, 4, 76, 120
6, 15359, Note_on_c, 4, 76, 0
6, 15359, Note_on_c, 4, 69, 0
6, 15360, Note_on_c, 4, 74, 120
6, 15360, Note_on_c, 4, 69, 120
6, 15419, Note_on_c, 4, 69, 0
6, 15420, Note_on_c, 4, 71, 120
6, 15449, Note_on_c, 4, 71, 0
6, 15450, Note_on_c, 4, 69, 120
6, 15479, Note_on_c, 4, 69, 0
6, 15480, Note_on_c, 4, 67, 120
6, 15539, Note_on_c, 4, 74, 0
6, 15540, Note_on_c, 4, 76, 120
6, 15569, Note_on_c, 4, 76, 0
6, 15570, Note_on_c, 4, 74, 120
6, 15599, Note_on_c, 4, 74, 0
6, 15599, Note_on_c, 4, 67, 0
6, 15600, Note_on_c, 4, 72, 120
6, 15600, Note_on_c, 4, 67, 120
6, 15659, Note_on_c, 4, 67, 0
6, 15660, Note_on_c, 4, 69, 120
6, 15689, Note_on_c, 4, 69, 0
6, 15690, Note_on_c, 4, 67, 120
6, 15719, Note_on_c, 4, 67, 0
6, 15720, Note_on_c, 4, 66, 120
6, 15779, Note_on_c, 4, 72, 0
6, 15780, Note_on_c, 4, 74, 120
6, 15809, Note_on_c, 4, 74, 0
6, 15810, Note_on_c, 4, 72, 120
6, 15839, Note_on_c, 4, 72, 0
6, 15839, Note_on_c, 4, 66, 0
6, 15840, Note_on_c, 4, 71, 120
6, 15840, Note_on_c, 4, 67, 120
6, 15959, Note_on_c, 4, 71, 0
6, 15960, Note_on_c, 4, 72, 120
6, 16079, Note_on_c, 4, 72, 0
6, 16079, Note_on_c, 4, 67, 0
6, 16080, Note_on_c, 4, 74, 120
6, 16080, Note_on_c, 4, 71, 120
6, 16199, Note_on_c, 4, 71, 0
6, 16199, Note_on_c, 4, 74, 0
6, 16200, Note_on_c, 4, 76, 120
6, 16200, Note_on_c, 4, 72, 120
6, 16379, Note_on_c, 4, 76, 0
6, 16380, Note_on_c, 4, 77, 120
6, 16409, Note_on_c, 4, 77, 0
6, 16410, Note_on_c, 4, 76, 120
6, 16439, Note_on_c, 4, 76, 0
6, 16440, Note_on_c, 4, 74, 120
6, 16499, Note_on_c, 4, 72, 0
6, 16500, Note_on_c, 4, 71, 120
6, 16529, Note_on_c, 4, 71, 0
6, 16530, Note_on_c, 4, 69, 120
6, 16559, Note_on_c, 4, 69, 0
6, 16560, Note_on_c, 4, 71, 120
6, 16619, Note_on_c, 4, 74, 0
6, 16620, Note_on_c, 4, 76, 120
6, 16649, Note_on_c, 4, 76, 0
6, 16650, Note_on_c, 4, 77, 120
6, 16679, Note_on_c, 4, 77, 0
6, 16679, Note_on_c, 4, 76, 120
6, 16739, Note_on_c, 4, 71, 0
6, 16740, Note_on_c, 4, 72, 120
6, 16769, Note_on_c, 4, 72, 0
6, 16770, Note_on_c, 4, 74, 120
6, 16799, Note_on_c, 4, 74, 0
6, 16800, Note_on_c, 4, 72, 120
6, 16859, Note_on_c, 4, 76, 0
6, 16860, Note_on_c, 4, 77, 120
6, 16889, Note_on_c, 4, 77, 0
6, 16890, Note_on_c, 4, 76, 120
6, 16919, Note_on_c, 4, 76, 0
6, 16920, Note_on_c, 4, 74, 120
6, 16979, Note_on_c, 4, 72, 0
6, 16980, Note_on_c, 4, 71, 120
6, 17009, Note_on_c, 4, 71, 0
6, 17010, Note_on_c, 4, 69, 120
6, 17039, Note_on_c, 4, 69, 0
6, 17039, Note_on_c, 4, 74, 0
6, 17040, Note_on_c, 4, 74, 120
6, 17040, Note_on_c, 4, 71, 120
6, 17099, Note_on_c, 4, 74, 0
6, 17100, Note_on_c, 4, 76, 120
6, 17129, Note_on_c, 4, 76, 0
6, 17130, Note_on_c, 4, 77, 120
6, 17159, Note_on_c, 4, 77, 0
6, 17160, Note_on_c, 4, 79, 120
6, 17219, Note_on_c, 4, 79, 0
6, 17220, Note_on_c, 4, 81, 120
6, 17249, Note_on_c, 4, 81, 0
6, 17250, Note_on_c, 4, 83, 120
6, 17279, Note_on_c, 4, 83, 0
6, 17279, Note_on_c, 4, 71, 0
6, 17280, Note_on_c, 4, 72, 120
6, 17280, Note_on_c, 4, 69, 120
6, 17339, Note_on_c, 4, 72, 0
6, 17340, Note_on_c, 4, 71, 120
6, 17369, Note_on_c, 4, 71, 0
6, 17370, Note_on_c, 4, 72, 120
6, 17399, Note_on_c, 4, 72, 0
6, 17400, Note_on_c, 4, 74, 120
6, 17459, Note_on_c, 4, 74, 0
6, 17460, Note_on_c, 4, 76, 120
6, 17489, Note_on_c, 4, 76, 0
6, 17490, Note_on_c, 4, 77, 120
6, 17519, Note_on_c, 4, 77, 0
6, 17519, Note_on_c, 4, 69, 0
6, 17520, Note_on_c, 4, 71, 120
6, 17520, Note_on_c, 4, 67, 120
6, 17639, Note_on_c, 4, 71, 0
6, 17640, Note_on_c, 4, 72, 120
6, 17759, Note_on_c, 4, 67, 0
6, 17760, Note_on_c, 4, 67, 120
6, 17790, Note_on_c, 4, 72, 0
6, 17790, Note_on_c, 4, 74, 120
6, 17819, Note_on_c, 4, 74, 0
6, 17820, Note_on_c, 4, 71, 120
6, 17849, Note_on_c, 4, 71, 0
6, 17850, Note_on_c, 4, 74, 120
6, 17879, Note_on_c, 4, 74, 0
6, 17880, Note_on_c, 4, 72, 120
6, 17909, Note_on_c, 4, 72, 0
6, 17910, Note_on_c, 4, 74, 120
6, 17939, Note_on_c, 4, 74, 0
6, 17940, Note_on_c, 4, 71, 120
6, 17969, Note_on_c, 4, 71, 0
6, 17970, Note_on_c, 4, 74, 120
6, 17999, Note_on_c, 4, 74, 0
6, 18000, Note_on_c, 4, 72, 120
6, 18029, Note_on_c, 4, 72, 0
6, 18030, Note_on_c, 4, 76, 120
6, 18059, Note_on_c, 4, 76, 0
6, 18060, Note_on_c, 4, 74, 120
6, 18089, Note_on_c, 4, 74, 0
6, 18090, Note_on_c, 4, 77, 120
6, 18119, Note_on_c, 4, 77, 0
6, 18120, Note_on_c, 4, 76, 120
6, 18149, Note_on_c, 4, 76, 0
6, 18150, Note_on_c, 4, 79, 120
6, 18179, Note_on_c, 4, 79, 0
6, 18180, Note_on_c, 4, 77, 120
6, 18209, Note_on_c, 4, 77, 0
6, 18210, Note_on_c, 4, 81, 120
6, 18239, Note_on_c, 4, 81, 0
6, 18239, Note_on_c, 4, 67, 0
6, 18240, Note_on_c, 4, 79, 120
6, 18240, Note_on_c, 4, 67, 120
6, 18269, Note_on_c, 4, 79, 0
6, 18299, Note_on_c, 4, 67, 0
6, 18300, Note_on_c, 4, 69, 120
6, 18329, Note_on_c, 4, 69, 0
6, 18330, Note_on_c, 4, 71, 120
6, 18359, Note_on_c, 4, 71, 0
6, 18360, Note_on_c, 4, 72, 120
6, 18509, Note_on_c, 4, 72, 0
6, 18510, Note_on_c, 4, 76, 120
6, 18539, Note_on_c, 4, 76, 0
6, 18540, Note_on_c, 4, 74, 120
6, 18569, Note_on_c, 4, 74, 0
6, 18570, Note_on_c, 4, 76, 120
6, 18599, Note_on_c, 4, 76, 0
6, 18600, Note_on_c, 4, 77, 120
6, 18629, Note_on_c, 4, 77, 0
6, 18630, Note_on_c, 4, 74, 120
6, 18659, Note_on_c, 4, 74, 0
6, 18660, Note_on_c, 4, 76, 120
6, 18689, Note_on_c, 4, 76, 0
6, 18690, Note_on_c, 4, 77, 120
6, 18719, Note_on_c, 4, 77, 0
6, 18720, Note_on_c, 4, 71, 120
6, 18720, Note_on_c, 4, 67, 120
6, 18779, Note_on_c, 4, 71, 0
6, 18780, Note_on_c, 4, 72, 120
6, 18809, Note_on_c, 4, 72, 0
6, 18810, Note_on_c, 4, 74, 120
6, 18839, Note_on_c, 4, 74, 0
6, 18840, Note_on_c, 4, 72, 120
6, 18929, Note_on_c, 4, 72, 0
6, 18930, Note_on_c, 4, 71, 120
6, 18959, Note_on_c, 4, 71, 0
6, 18959, Note_on_c, 4, 67, 0
6, 18960, Note_on_c, 4, 72, 120
6, 18960, Note_on_c, 4, 67, 120
6, 19079, Note_on_c, 4, 67, 0
6, 19080, Note_on_c, 4, 65, 120
6, 19199, Note_on_c, 4, 65, 0
6, 19200, Note_on_c, 4, 67, 120
6, 19319, Note_on_c, 4, 67, 0
6, 19320, Note_on_c, 4, 65, 120
6, 19499, Note_on_c, 4, 65, 0
6, 19500, Note_on_c, 4, 67, 120
6, 19529, Note_on_c, 4, 67, 0
6, 19530, Note_on_c, 4, 65, 120
6, 19559, Note_on_c, 4, 65, 0
6, 19560, Note_on_c, 4, 64, 120
6, 19589, Note_on_c, 4, 64, 0
6, 19590, Note_on_c, 4, 65, 120
6, 19619, Note_on_c, 4, 65, 0
6, 19620, Note_on_c, 4, 62, 120
6, 19649, Note_on_c, 4, 62, 0
6, 19650, Note_on_c, 4, 65, 120
6, 19679, Note_on_c, 4, 65, 0
6, 19679, Note_on_c, 4, 72, 0
6, 19680, Note_on_c, 4, 72, 120
6, 19680, Note_on_c, 4, 64, 120
6, 20159, Note_on_c, 4, 64, 0
6, 20159, Note_on_c, 4, 72, 0
6, 20159, End_track
7, 0, Start_track
7, 0, MIDI_port, 0
7, 0, Title_t, "Treble Clef       "
7, 0, Program_c, 5, 48
7, 0, Control_c, 5, 7, 60
7, 0, Control_c, 5, 10, 44
7, 0, Control_c, 5, 92, 0
7, 0, Note_on_c, 5, 64, 120
7, 1, Control_c, 5, 93, 0
7, 1, Control_c, 5, 93, 0
7, 1, Control_c, 5, 1, 0
7, 1, Control_c, 5, 1, 0
7, 239, Note_on_c, 5, 64, 0
7, 240, Note_on_c, 5, 62, 120
7, 599, Note_on_c, 5, 62, 0
7, 600, Note_on_c, 5, 60, 120
7, 719, Note_on_c, 5, 60, 0
7, 720, Note_on_c, 5, 62, 120
7, 839, Note_on_c, 5, 62, 0
7, 840, Note_on_c, 5, 67, 120
7, 959, Note_on_c, 5, 67, 0
7, 960, Note_on_c, 5, 64, 120
7, 1199, Note_on_c, 5, 64, 0
7, 1200, Note_on_c, 5, 62, 120
7, 1679, Note_on_c, 5, 62, 0
7, 1680, Note_on_c, 5, 60, 120
7, 2159, Note_on_c, 5, 60, 0
7, 2160, Note_on_c, 5, 60, 120
7, 2399, Note_on_c, 5, 60, 0
7, 2400, Note_on_c, 5, 62, 120
7, 2759, Note_on_c, 5, 62, 0
7, 2760, Note_on_c, 5, 64, 120
7, 2819, Note_on_c, 5, 64, 0
7, 2820, Note_on_c, 5, 65, 120
7, 2849, Note_on_c, 5, 65, 0
7, 2850, Note_on_c, 5, 64, 120
7, 2879, Note_on_c, 5, 64, 0
7, 2880, Note_on_c, 5, 62, 120
7, 3119, Note_on_c, 5, 62, 0
7, 3120, Note_on_c, 5, 61, 120
7, 3359, Note_on_c, 5, 61, 0
7, 3360, Note_on_c, 5, 62, 120
7, 3473, Note_on_c, 5, 57, 120
7, 3479, Note_on_c, 5, 62, 0
7, 3532, Note_on_c, 5, 57, 0
7, 3538, Note_on_c, 5, 59, 120
7, 3567, Note_on_c, 5, 59, 0
7, 3569, Note_on_c, 5, 60, 120
7, 3598, Note_on_c, 5, 60, 0
7, 3601, Note_on_c, 5, 59, 120
7, 3960, Note_on_c, 5, 57, 120
7, 3961, Note_on_c, 5, 59, 0
7, 4076, Note_on_c, 5, 64, 120
7, 4199, Note_on_c, 5, 57, 0
7, 4200, Note_on_c, 5, 56, 120
7, 4316, Note_on_c, 5, 64, 0
7, 4380, Note_on_c, 5, 56, 0
7, 4380, Note_on_c, 5, 57, 120
7, 4409, Note_on_c, 5, 57, 0
7, 4410, Note_on_c, 5, 59, 120
7, 4439, Note_on_c, 5, 59, 0
7, 4440, Note_on_c, 5, 60, 120
7, 4619, Note_on_c, 5, 60, 0
7, 4620, Note_on_c, 5, 59, 120
7, 4649, Note_on_c, 5, 59, 0
7, 4650, Note_on_c, 5, 57, 120
7, 4679, Note_on_c, 5, 57, 0
7, 4680, Note_on_c, 5, 59, 120
7, 4799, Note_on_c, 5, 59, 0
7, 4800, Note_on_c, 5, 59, 120
7, 4859, Note_on_c, 5, 59, 0
7, 4860, Note_on_c, 5, 57, 120
7, 4889, Note_on_c, 5, 57, 0
7, 4890, Note_on_c, 5, 56, 120
7, 4919, Note_on_c, 5, 56, 0
7, 4920, Note_on_c, 5, 57, 120
7, 4979, Note_on_c, 5, 57, 0
7, 4980, Note_on_c, 5, 52, 120
7, 5009, Note_on_c, 5, 52, 0
7, 5010, Note_on_c, 5, 55, 120
7, 5039, Note_on_c, 5, 55, 0
7, 5040, Note_on_c, 5, 54, 120
7, 5279, Note_on_c, 5, 54, 0
7, 5280, Note_on_c, 5, 55, 120
7, 5459, Note_on_c, 5, 55, 0
7, 5460, Note_on_c, 5, 57, 120
7, 5489, Note_on_c, 5, 57, 0
7, 5490, Note_on_c, 5, 58, 120
7, 5639, Note_on_c, 5, 58, 0
7, 5640, Note_on_c, 5, 57, 120
7, 5999, Note_on_c, 5, 57, 0
7, 6000, Note_on_c, 5, 58, 120
7, 6119, Note_on_c, 5, 58, 0
7, 6120, Note_on_c, 5, 52, 120
7, 6239, Note_on_c, 5, 52, 0
7, 6240, Note_on_c, 5, 57, 120
7, 6478, Note_on_c, 5, 55, 120
7, 6479, Note_on_c, 5, 57, 0
7, 6838, Note_on_c, 5, 55, 0
7, 6900, Note_on_c, 5, 52, 120
7, 6929, Note_on_c, 5, 52, 0
7, 6930, Note_on_c, 5, 48, 120
7, 6959, Note_on_c, 5, 48, 0
7, 6960, Note_on_c, 5, 54, 120
7, 7139, Note_on_c, 5, 54, 0
7, 7140, Note_on_c, 5, 50, 120
7, 7199, Note_on_c, 5, 50, 0
7, 7200, Note_on_c, 5, 55, 120
7, 8159, Note_on_c, 5, 55, 0
7, 8160, Note_on_c, 5, 55, 120
7, 8699, Note_on_c, 5, 55, 0
7, 8700, Note_on_c, 5, 55, 120
7, 8729, Note_on_c, 5, 55, 0
7, 8730, Note_on_c, 5, 57, 120
7, 8759, Note_on_c, 5, 57, 0
7, 8760, Note_on_c, 5, 59, 120
7, 8819, Note_on_c, 5, 59, 0
7, 8820, Note_on_c, 5, 60, 120
7, 8849, Note_on_c, 5, 60, 0
7, 8850, Note_on_c, 5, 62, 120
7, 8879, Note_on_c, 5, 62, 0
7, 8880, Note_on_c, 5, 55, 120
7, 8939, Note_on_c, 5, 55, 0
7, 8940, Note_on_c, 5, 57, 120
7, 8969, Note_on_c, 5, 57, 0
7, 8970, Note_on_c, 5, 59, 120
7, 8999, Note_on_c, 5, 59, 0
7, 9000, Note_on_c, 5, 50, 120
7, 9059, Note_on_c, 5, 50, 0
7, 9060, Note_on_c, 5, 52, 120
7, 9089, Note_on_c, 5, 52, 0
7, 9090, Note_on_c, 5, 53, 120
7, 9119, Note_on_c, 5, 53, 0
7, 9120, Note_on_c, 5, 52, 120
7, 9239, Note_on_c, 5, 52, 0
7, 9240, Note_on_c, 5, 57, 120
7, 9359, Note_on_c, 5, 57, 0
7, 9360, Note_on_c, 5, 50, 120
7, 9479, Note_on_c, 5, 50, 0
7, 9480, Note_on_c, 5, 55, 120
7, 9599, Note_on_c, 5, 55, 0
7, 9600, Note_on_c, 5, 55, 120
7, 9659, Note_on_c, 5, 55, 0
7, 9660, Note_on_c, 5, 57, 120
7, 9689, Note_on_c, 5, 57, 0
7, 9690, Note_on_c, 5, 59, 120
7, 9719, Note_on_c, 5, 59, 0
7, 9720, Note_on_c, 5, 60, 120
7, 9899, Note_on_c, 5, 60, 0
7, 9900, Note_on_c, 5, 62, 120
7, 9929, Note_on_c, 5, 62, 0
7, 9930, Note_on_c, 5, 64, 120
7, 9959, Note_on_c, 5, 64, 0
7, 9960, Note_on_c, 5, 65, 120
7, 10319, Note_on_c, 5, 65, 0
7, 10320, Note_on_c, 5, 64, 120
7, 10679, Note_on_c, 5, 64, 0
7, 10680, Note_on_c, 5, 62, 120
7, 10919, Note_on_c, 5, 62, 0
7, 10920, Note_on_c, 5, 60, 120
7, 11039, Note_on_c, 5, 60, 0
7, 11040, Note_on_c, 5, 60, 120
7, 11159, Note_on_c, 5, 60, 0
7, 11160, Note_on_c, 5, 62, 120
7, 11339, Note_on_c, 5, 62, 0
7, 11340, Note_on_c, 5, 60, 120
7, 11369, Note_on_c, 5, 60, 0
7, 11370, Note_on_c, 5, 59, 120
7, 11399, Note_on_c, 5, 59, 0
7, 11400, Note_on_c, 5, 60, 120
7, 11579, Note_on_c, 5, 60, 0
7, 11580, Note_on_c, 5, 59, 120
7, 11609, Note_on_c, 5, 59, 0
7, 11610, Note_on_c, 5, 60, 120
7, 11639, Note_on_c, 5, 60, 0
7, 11640, Note_on_c, 5, 57, 120
7, 11759, Note_on_c, 5, 57, 0
7, 11760, Note_on_c, 5, 59, 120
7, 11879, Note_on_c, 5, 59, 0
7, 11880, Note_on_c, 5, 64, 120
7, 12239, Note_on_c, 5, 64, 0
7, 12240, Note_on_c, 5, 65, 120
7, 12479, Note_on_c, 5, 65, 0
7, 12480, Note_on_c, 5, 65, 120
7, 12599, Note_on_c, 5, 65, 0
7, 12600, Note_on_c, 5, 67, 120
7, 12959, Note_on_c, 5, 67, 0
7, 12960, Note_on_c, 5, 69, 120
7, 13439, Note_on_c, 5, 69, 0
7, 13440, Note_on_c, 5, 67, 120
7, 13559, Note_on_c, 5, 67, 0
7, 13560, Note_on_c, 5, 67, 120
7, 13619, Note_on_c, 5, 67, 0
7, 13620, Note_on_c, 5, 65, 120
7, 13679, Note_on_c, 5, 65, 0
7, 13680, Note_on_c, 5, 64, 120
7, 13799, Note_on_c, 5, 64, 0
7, 13800, Note_on_c, 5, 64, 120
7, 13919, Note_on_c, 5, 64, 0
7, 13920, Note_on_c, 5, 60, 120
7, 13979, Note_on_c, 5, 60, 0
7, 13980, Note_on_c, 5, 62, 120
7, 14009, Note_on_c, 5, 62, 0
7, 14010, Note_on_c, 5, 60, 120
7, 14039, Note_on_c, 5, 60, 0
7, 14040, Note_on_c, 5, 59, 120
7, 14099, Note_on_c, 5, 59, 0
7, 14100, Note_on_c, 5, 60, 120
7, 14129, Note_on_c, 5, 60, 0
7, 14130, Note_on_c, 5, 59, 120
7, 14159, Note_on_c, 5, 59, 0
7, 14160, Note_on_c, 5, 57, 120
7, 14279, Note_on_c, 5, 57, 0
7, 14280, Note_on_c, 5, 62, 120
7, 14399, Note_on_c, 5, 62, 0
7, 14400, Note_on_c, 5, 62, 120
7, 14519, Note_on_c, 5, 62, 0
7, 14520, Note_on_c, 5, 64, 120
7, 14579, Note_on_c, 5, 64, 0
7, 14580, Note_on_c, 5, 60, 120
7, 14639, Note_on_c, 5, 60, 0
7, 14640, Note_on_c, 5, 67, 120
7, 14819, Note_on_c, 5, 67, 0
7, 14820, Note_on_c, 5, 65, 120
7, 14849, Note_on_c, 5, 65, 0
7, 14850, Note_on_c, 5, 67, 120
7, 14879, Note_on_c, 5, 67, 0
7, 14880, Note_on_c, 5, 64, 120
7, 14939, Note_on_c, 5, 64, 0
7, 14940, Note_on_c, 5, 65, 120
7, 14969, Note_on_c, 5, 65, 0
7, 14970, Note_on_c, 5, 64, 120
7, 14999, Note_on_c, 5, 64, 0
7, 15000, Note_on_c, 5, 62, 120
7, 15059, Note_on_c, 5, 62, 0
7, 15060, Note_on_c, 5, 64, 120
7, 15089, Note_on_c, 5, 64, 0
7, 15090, Note_on_c, 5, 62, 120
7, 15119, Note_on_c, 5, 62, 0
7, 15120, Note_on_c, 5, 60, 120
7, 15299, Note_on_c, 5, 60, 0
7, 15300, Note_on_c, 5, 62, 120
7, 15329, Note_on_c, 5, 62, 0
7, 15330, Note_on_c, 5, 60, 120
7, 15359, Note_on_c, 5, 60, 0
7, 15360, Note_on_c, 5, 59, 120
7, 15539, Note_on_c, 5, 59, 0
7, 15540, Note_on_c, 5, 60, 120
7, 15569, Note_on_c, 5, 60, 0
7, 15570, Note_on_c, 5, 59, 120
7, 15599, Note_on_c, 5, 59, 0
7, 15600, Note_on_c, 5, 57, 120
7, 15659, Note_on_c, 5, 57, 0
7, 15660, Note_on_c, 5, 59, 120
7, 15719, Note_on_c, 5, 59, 0
7, 15720, Note_on_c, 5, 60, 120
7, 15839, Note_on_c, 5, 60, 0
7, 15840, Note_on_c, 5, 62, 120
7, 15959, Note_on_c, 5, 62, 0
7, 15960, Note_on_c, 5, 64, 120
7, 16079, Note_on_c, 5, 64, 0
7, 16080, Note_on_c, 5, 67, 120
7, 16319, Note_on_c, 5, 67, 0
7, 16320, Note_on_c, 5, 69, 120
7, 16439, Note_on_c, 5, 69, 0
7, 16440, Note_on_c, 5, 62, 120
7, 16559, Note_on_c, 5, 62, 0
7, 16560, Note_on_c, 5, 67, 120
7, 16800, Note_on_c, 5, 67, 0
7, 17280, Note_on_c, 5, 64, 120
7, 17399, Note_on_c, 5, 64, 0
7, 17400, Note_on_c, 5, 62, 120
7, 17639, Note_on_c, 5, 62, 0
7, 17640, Note_on_c, 5, 64, 120
7, 17759, Note_on_c, 5, 64, 0
7, 17760, Note_on_c, 5, 64, 120
7, 17819, Note_on_c, 5, 64, 0
7, 17820, Note_on_c, 5, 62, 120
7, 17879, Note_on_c, 5, 62, 0
7, 17880, Note_on_c, 5, 64, 120
7, 17939, Note_on_c, 5, 64, 0
7, 17940, Note_on_c, 5, 62, 120
7, 17999, Note_on_c, 5, 62, 0
7, 18000, Note_on_c, 5, 64, 120
7, 18059, Note_on_c, 5, 64, 0
7, 18060, Note_on_c, 5, 59, 120
7, 18119, Note_on_c, 5, 59, 0
7, 18120, Note_on_c, 5, 60, 120
7, 18179, Note_on_c, 5, 60, 0
7, 18180, Note_on_c, 5, 62, 120
7, 18239, Note_on_c, 5, 62, 0
7, 18240, Note_on_c, 5, 64, 120
7, 18389, Note_on_c, 5, 64, 0
7, 18390, Note_on_c, 5, 64, 120
7, 18419, Note_on_c, 5, 64, 0
7, 18420, Note_on_c, 5, 62, 120
7, 18449, Note_on_c, 5, 62, 0
7, 18450, Note_on_c, 5, 60, 120
7, 18479, Note_on_c, 5, 60, 0
7, 18483, Note_on_c, 5, 62, 120
7, 18840, Note_on_c, 5, 65, 120
7, 18843, Note_on_c, 5, 62, 0
7, 18959, Note_on_c, 5, 65, 0
7, 18960, Note_on_c, 5, 64, 120
7, 19079, Note_on_c, 5, 64, 0
7, 19080, Note_on_c, 5, 60, 120
7, 19199, Note_on_c, 5, 60, 0
7, 19260, Note_on_c, 5, 60, 120
7, 19289, Note_on_c, 5, 60, 0
7, 19290, Note_on_c, 5, 58, 120
7, 19319, Note_on_c, 5, 58, 0
7, 19320, Note_on_c, 5, 57, 120
7, 19379, Note_on_c, 5, 57, 0
7, 19380, Note_on_c, 5, 55, 120
7, 19409, Note_on_c, 5, 55, 0
7, 19410, Note_on_c, 5, 53, 120
7, 19439, Note_on_c, 5, 53, 0
7, 19440, Note_on_c, 5, 55, 120
7, 19619, Note_on_c, 5, 55, 0
7, 19620, Note_on_c, 5, 53, 120
7, 19679, Note_on_c, 5, 53, 0
7, 19680, Note_on_c, 5, 55, 120
7, 20159, Note_on_c, 5, 55, 0
7, 20159, End_track
8, 0, Start_track
8, 0, MIDI_port, 0
8, 0, Title_t, "Bass Clef         "
8, 0, Program_c, 6, 43
8, 0, Control_c, 6, 7, 57
8, 0, Control_c, 6, 10, 64
8, 0, Control_c, 6, 92, 0
8, 0, Note_on_c, 6, 24, 95
8, 59, Note_on_c, 6, 24, 0
8, 60, Note_on_c, 6, 26, 95
8, 119, Note_on_c, 6, 26, 0
8, 120, Note_on_c, 6, 28, 95
8, 179, Note_on_c, 6, 28, 0
8, 180, Note_on_c, 6, 24, 95
8, 239, Note_on_c, 6, 24, 0
8, 240, Note_on_c, 6, 31, 95
8, 959, Note_on_c, 6, 31, 0
8, 960, Note_on_c, 6, 33, 95
8, 1139, Note_on_c, 6, 33, 0
8, 1140, Note_on_c, 6, 31, 95
8, 1199, Note_on_c, 6, 31, 0
8, 1200, Note_on_c, 6, 30, 95
8, 1439, Note_on_c, 6, 30, 0
8, 1440, Note_on_c, 6, 31, 95
8, 1619, Note_on_c, 6, 31, 0
8, 1620, Note_on_c, 6, 29, 95
8, 1679, Note_on_c, 6, 29, 0
8, 1680, Note_on_c, 6, 28, 95
8, 2159, Note_on_c, 6, 28, 0
8, 2159, Note_on_c, 6, 29, 95
8, 2518, Note_on_c, 6, 29, 0
8, 2520, Note_on_c, 6, 30, 95
8, 2639, Note_on_c, 6, 30, 0
8, 2640, Note_on_c, 6, 31, 95
8, 3179, Note_on_c, 6, 31, 0
8, 3180, Note_on_c, 6, 33, 95
8, 3209, Note_on_c, 6, 33, 0
8, 3210, Note_on_c, 6, 34, 95
8, 3239, Note_on_c, 6, 34, 0
8, 3240, Note_on_c, 6, 33, 95
8, 3299, Note_on_c, 6, 33, 0
8, 3300, Note_on_c, 6, 31, 95
8, 3329, Note_on_c, 6, 31, 0
8, 3330, Note_on_c, 6, 33, 95
8, 3359, Note_on_c, 6, 33, 0
8, 3360, Note_on_c, 6, 29, 95
8, 3599, Note_on_c, 6, 29, 0
8, 3600, Note_on_c, 6, 26, 95
8, 3839, Note_on_c, 6, 26, 0
8, 3840, Note_on_c, 6, 28, 95
8, 4799, Note_on_c, 6, 28, 0
8, 4800, Note_on_c, 6, 21, 95
8, 5038, Note_on_c, 6, 26, 95
8, 5039, Note_on_c, 6, 21, 0
8, 5518, Note_on_c, 6, 26, 0
8, 5520, Note_on_c, 6, 25, 95
8, 5759, Note_on_c, 6, 25, 0
8, 5760, Note_on_c, 6, 26, 95
8, 6119, Note_on_c, 6, 26, 0
8, 6120, Note_on_c, 6, 25, 95
8, 6239, Note_on_c, 6, 25, 0
8, 6240, Note_on_c, 6, 24, 95
8, 6479, Note_on_c, 6, 24, 0
8, 6480, Note_on_c, 6, 23, 95
8, 6719, Note_on_c, 6, 23, 0
8, 6720, Note_on_c, 6, 24, 95
8, 6959, Note_on_c, 6, 24, 0
8, 6960, Note_on_c, 6, 18, 95
8, 7199, Note_on_c, 6, 18, 0
8, 7204, Note_on_c, 6, 19, 95
8, 8763, Note_on_c, 6, 19, 0
8, 9600, Note_on_c, 6, 24, 95
8, 9779, Note_on_c, 6, 24, 0
8, 9780, Note_on_c, 6, 26, 95
8, 9809, Note_on_c, 6, 26, 0
8, 9810, Note_on_c, 6, 28, 95
8, 9839, Note_on_c, 6, 28, 0
8, 9840, Note_on_c, 6, 29, 95
8, 10019, Note_on_c, 6, 29, 0
8, 10020, Note_on_c, 6, 31, 95
8, 10049, Note_on_c, 6, 31, 0
8, 10050, Note_on_c, 6, 33, 95
8, 10079, Note_on_c, 6, 33, 0
8, 10080, Note_on_c, 6, 26, 95
8, 10139, Note_on_c, 6, 26, 0
8, 10140, Note_on_c, 6, 28, 95
8, 10169, Note_on_c, 6, 28, 0
8, 10170, Note_on_c, 6, 29, 95
8, 10199, Note_on_c, 6, 29, 0
8, 10200, Note_on_c, 6, 23, 95
8, 10259, Note_on_c, 6, 23, 0
8, 10260, Note_on_c, 6, 24, 95
8, 10289, Note_on_c, 6, 24, 0
8, 10290, Note_on_c, 6, 26, 95
8, 10319, Note_on_c, 6, 26, 0
8, 10320, Note_on_c, 6, 20, 95
8, 10379, Note_on_c, 6, 20, 0
8, 10380, Note_on_c, 6, 16, 95
8, 10439, Note_on_c, 6, 16, 0
8, 10440, Note_on_c, 6, 21, 95
8, 10619, Note_on_c, 6, 21, 0
8, 10620, Note_on_c, 6, 33, 95
8, 10649, Note_on_c, 6, 33, 0
8, 10650, Note_on_c, 6, 31, 95
8, 10679, Note_on_c, 6, 31, 0
8, 10680, Note_on_c, 6, 30, 95
8, 10739, Note_on_c, 6, 30, 0
8, 10740, Note_on_c, 6, 28, 95
8, 10769, Note_on_c, 6, 28, 0
8, 10770, Note_on_c, 6, 26, 95
8, 10799, Note_on_c, 6, 26, 0
8, 10800, Note_on_c, 6, 31, 95
8, 10859, Note_on_c, 6, 31, 0
8, 10860, Note_on_c, 6, 26, 95
8, 10889, Note_on_c, 6, 26, 0
8, 10890, Note_on_c, 6, 29, 95
8, 10920, Note_on_c, 6, 29, 0
8, 10922, Note_on_c, 6, 28, 95
8, 10981, Note_on_c, 6, 28, 0
8, 10983, Note_on_c, 6, 26, 95
8, 11003, Note_on_c, 6, 24, 95
8, 11012, Note_on_c, 6, 26, 0
8, 11033, Note_on_c, 6, 24, 0
8, 11040, Note_on_c, 6, 29, 95
8, 11099, Note_on_c, 6, 29, 0
8, 11100, Note_on_c, 6, 24, 95
8, 11129, Note_on_c, 6, 24, 0
8, 11130, Note_on_c, 6, 28, 95
8, 11159, Note_on_c, 6, 28, 0
8, 11160, Note_on_c, 6, 26, 95
8, 11219, Note_on_c, 6, 26, 0
8, 11220, Note_on_c, 6, 24, 95
8, 11249, Note_on_c, 6, 24, 0
8, 11250, Note_on_c, 6, 23, 95
8, 11279, Note_on_c, 6, 23, 0
8, 11280, Note_on_c, 6, 28, 95
8, 11519, Note_on_c, 6, 28, 0
8, 11520, Note_on_c, 6, 29, 95
8, 11639, Note_on_c, 6, 29, 0
8, 11640, Note_on_c, 6, 30, 95
8, 11759, Note_on_c, 6, 30, 0
8, 11760, Note_on_c, 6, 31, 95
8, 11819, Note_on_c, 6, 31, 0
8, 11820, Note_on_c, 6, 31, 95
8, 11849, Note_on_c, 6, 31, 0
8, 11850, Note_on_c, 6, 29, 95
8, 11879, Note_on_c, 6, 29, 0
8, 11880, Note_on_c, 6, 28, 95
8, 11939, Note_on_c, 6, 28, 0
8, 11940, Note_on_c, 6, 28, 95
8, 11969, Note_on_c, 6, 28, 0
8, 11970, Note_on_c, 6, 26, 95
8, 11999, Note_on_c, 6, 26, 0
8, 12000, Note_on_c, 6, 24, 95
8, 12059, Note_on_c, 6, 24, 0
8, 12060, Note_on_c, 6, 24, 95
8, 12089, Note_on_c, 6, 24, 0
8, 12090, Note_on_c, 6, 23, 95
8, 12119, Note_on_c, 6, 23, 0
8, 12120, Note_on_c, 6, 21, 95
8, 12179, Note_on_c, 6, 21, 0
8, 12180, Note_on_c, 6, 21, 95
8, 12209, Note_on_c, 6, 21, 0
8, 12210, Note_on_c, 6, 19, 95
8, 12239, Note_on_c, 6, 19, 0
8, 12240, Note_on_c, 6, 17, 95
8, 12299, Note_on_c, 6, 17, 0
8, 12300, Note_on_c, 6, 21, 95
8, 12329, Note_on_c, 6, 21, 0
8, 12330, Note_on_c, 6, 19, 95
8, 12359, Note_on_c, 6, 19, 0
8, 12360, Note_on_c, 6, 17, 95
8, 12419, Note_on_c, 6, 17, 0
8, 12420, Note_on_c, 6, 17, 95
8, 12449, Note_on_c, 6, 17, 0
8, 12450, Note_on_c, 6, 16, 95
8, 12479, Note_on_c, 6, 16, 0
8, 12480, Note_on_c, 6, 14, 95
8, 12539, Note_on_c, 6, 14, 0
8, 12540, Note_on_c, 6, 26, 95
8, 12569, Note_on_c, 6, 26, 0
8, 12570, Note_on_c, 6, 24, 95
8, 12599, Note_on_c, 6, 24, 0
8, 12600, Note_on_c, 6, 23, 95
8, 12659, Note_on_c, 6, 23, 0
8, 12660, Note_on_c, 6, 21, 95
8, 12689, Note_on_c, 6, 21, 0
8, 12690, Note_on_c, 6, 19, 95
8, 12719, Note_on_c, 6, 19, 0
8, 12720, Note_on_c, 6, 24, 95
8, 12899, Note_on_c, 6, 24, 0
8, 12900, Note_on_c, 6, 26, 95
8, 12929, Note_on_c, 6, 26, 0
8, 12930, Note_on_c, 6, 28, 95
8, 12959, Note_on_c, 6, 28, 0
8, 12960, Note_on_c, 6, 21, 95
8, 13139, Note_on_c, 6, 21, 0
8, 13140, Note_on_c, 6, 23, 95
8, 13169, Note_on_c, 6, 23, 0
8, 13170, Note_on_c, 6, 24, 95
8, 13199, Note_on_c, 6, 24, 0
8, 13200, Note_on_c, 6, 17, 95
8, 13319, Note_on_c, 6, 17, 0
8, 13320, Note_on_c, 6, 18, 95
8, 13379, Note_on_c, 6, 18, 0
8, 13380, Note_on_c, 6, 16, 95
8, 13409, Note_on_c, 6, 16, 0
8, 13410, Note_on_c, 6, 18, 95
8, 13439, Note_on_c, 6, 18, 0
8, 13440, Note_on_c, 6, 19, 95
8, 13559, Note_on_c, 6, 19, 0
8, 14400, Note_on_c, 6, 31, 95
8, 15899, Note_on_c, 6, 31, 0
8, 15900, Note_on_c, 6, 31, 95
8, 15929, Note_on_c, 6, 31, 0
8, 15930, Note_on_c, 6, 29, 95
8, 15959, Note_on_c, 6, 29, 0
8, 15960, Note_on_c, 6, 28, 95
8, 16019, Note_on_c, 6, 28, 0
8, 16020, Note_on_c, 6, 26, 95
8, 16049, Note_on_c, 6, 26, 0
8, 16050, Note_on_c, 6, 24, 95
8, 16079, Note_on_c, 6, 24, 0
8, 16080, Note_on_c, 6, 23, 95
8, 16139, Note_on_c, 6, 23, 0
8, 16140, Note_on_c, 6, 19, 95
8, 16169, Note_on_c, 6, 19, 0
8, 16170, Note_on_c, 6, 17, 95
8, 16199, Note_on_c, 6, 17, 0
8, 16200, Note_on_c, 6, 16, 95
8, 16259, Note_on_c, 6, 16, 0
8, 16260, Note_on_c, 6, 14, 95
8, 16289, Note_on_c, 6, 14, 0
8, 16290, Note_on_c, 6, 12, 95
8, 16319, Note_on_c, 6, 12, 0
8, 16320, Note_on_c, 6, 17, 95
8, 16439, Note_on_c, 6, 17, 0
8, 16440, Note_on_c, 6, 29, 95
8, 16559, Note_on_c, 6, 29, 0
8, 16560, Note_on_c, 6, 31, 95
8, 17400, Note_on_c, 6, 31, 0
8, 17400, Note_on_c, 6, 29, 95
8, 17519, Note_on_c, 6, 29, 0
8, 17520, Note_on_c, 6, 29, 95
8, 17579, Note_on_c, 6, 29, 0
8, 17580, Note_on_c, 6, 31, 95
8, 17609, Note_on_c, 6, 31, 0
8, 17610, Note_on_c, 6, 29, 95
8, 17639, Note_on_c, 6, 29, 0
8, 17640, Note_on_c, 6, 28, 95
8, 17699, Note_on_c, 6, 28, 0
8, 17700, Note_on_c, 6, 26, 95
8, 17729, Note_on_c, 6, 26, 0
8, 17730, Note_on_c, 6, 24, 95
8, 17759, Note_on_c, 6, 24, 0
8, 17760, Note_on_c, 6, 31, 95
8, 18959, Note_on_c, 6, 31, 0
8, 18960, Note_on_c, 6, 24, 95
8, 19019, Note_on_c, 6, 24, 0
8, 19020, Note_on_c, 6, 36, 95
8, 19049, Note_on_c, 6, 36, 0
8, 19050, Note_on_c, 6, 34, 95
8, 19079, Note_on_c, 6, 34, 0
8, 19080, Note_on_c, 6, 33, 95
8, 19139, Note_on_c, 6, 33, 0
8, 19140, Note_on_c, 6, 31, 95
8, 19169, Note_on_c, 6, 31, 0
8, 19170, Note_on_c, 6, 29, 95
8, 19199, Note_on_c, 6, 29, 0
8, 19200, Note_on_c, 6, 28, 95
8, 19319, Note_on_c, 6, 28, 0
8, 19320, Note_on_c, 6, 29, 95
8, 19439, Note_on_c, 6, 29, 0
8, 19440, Note_on_c, 6, 24, 95
8, 20159, Note_on_c, 6, 24, 0
8, 20159, End_track
0, 0, End_of_file
