0, 0, Header, 1, 4, 480
1, 0, Start_track
1, 0, Title_t, "untitled"
1, 0, Text_t, "Canon a 2 Super Thema Regium\012"
1, 0, Text_t, "Voce 1  \012"
1, 0, Text_t, "Voce 2  \012"
1, 0, Time_signature, 4, 2, 24, 8
1, 0, Key_signature, 0, "major"
1, 0, Tempo, 375000
1, 0, End_track
2, 0, Start_track
2, 0, Program_c, 0, 0
2, 0, Note_on_c, 0, 60, 64
2, 960, Note_on_c, 0, 60, 0
2, 960, Note_on_c, 0, 63, 64
2, 1920, Note_on_c, 0, 63, 0
2, 1920, Note_on_c, 0, 67, 64
2, 2880, Note_on_c, 0, 67, 0
2, 2880, Note_on_c, 0, 68, 64
2, 3840, Note_on_c, 0, 68, 0
2, 3840, Note_on_c, 0, 59, 64
2, 4800, Note_on_c, 0, 59, 0
2, 5280, Note_on_c, 0, 67, 64
2, 6240, Note_on_c, 0, 67, 0
2, 6240, Note_on_c, 0, 66, 64
2, 7200, Note_on_c, 0, 66, 0
2, 7200, Note_on_c, 0, 65, 64
2, 8160, Note_on_c, 0, 65, 0
2, 8160, Note_on_c, 0, 64, 64
2, 9120, Note_on_c, 0, 64, 0
2, 9120, Note_on_c, 0, 63, 64
2, 10080, Note_on_c, 0, 63, 0
2, 10080, Note_on_c, 0, 62, 64
2, 10560, Note_on_c, 0, 62, 0
2, 10560, Note_on_c, 0, 61, 64
2, 11040, Note_on_c, 0, 61, 0
2, 11040, Note_on_c, 0, 60, 64
2, 11520, Note_on_c, 0, 60, 0
2, 11520, Note_on_c, 0, 59, 64
2, 12000, Note_on_c, 0, 59, 0
2, 12000, Note_on_c, 0, 55, 64
2, 12480, Note_on_c, 0, 55, 0
2, 12480, Note_on_c, 0, 60, 64
2, 12960, Note_on_c, 0, 60, 0
2, 12960, Note_on_c, 0, 65, 64
2, 13440, Note_on_c, 0, 65, 0
2, 13440, Note_on_c, 0, 63, 64
2, 14400, Note_on_c, 0, 63, 0
2, 14400, Note_on_c, 0, 62, 64
2, 15360, Note_on_c, 0, 62, 0
2, 15360, Note_on_c, 0, 60, 64
2, 16320, Note_on_c, 0, 60, 0
2, 16320, Note_on_c, 0, 63, 64
2, 17280, Note_on_c, 0, 63, 0
2, 17280, Note_on_c, 0, 67, 64
2, 17520, Note_on_c, 0, 67, 0
2, 17520, Note_on_c, 0, 65, 64
2, 17760, Note_on_c, 0, 65, 0
2, 17760, Note_on_c, 0, 67, 64
2, 18000, Note_on_c, 0, 67, 0
2, 18000, Note_on_c, 0, 72, 64
2, 18240, Note_on_c, 0, 72, 0
2, 18240, Note_on_c, 0, 67, 64
2, 18480, Note_on_c, 0, 67, 0
2, 18480, Note_on_c, 0, 63, 64
2, 18720, Note_on_c, 0, 63, 0
2, 18720, Note_on_c, 0, 62, 64
2, 18960, Note_on_c, 0, 62, 0
2, 18960, Note_on_c, 0, 63, 64
2, 19200, Note_on_c, 0, 63, 0
2, 19200, Note_on_c, 0, 65, 64
2, 19440, Note_on_c, 0, 65, 0
2, 19440, Note_on_c, 0, 67, 64
2, 19680, Note_on_c, 0, 67, 0
2, 19680, Note_on_c, 0, 69, 64
2, 19920, Note_on_c, 0, 69, 0
2, 19920, Note_on_c, 0, 71, 64
2, 20160, Note_on_c, 0, 71, 0
2, 20160, Note_on_c, 0, 72, 64
2, 20400, Note_on_c, 0, 72, 0
2, 20400, Note_on_c, 0, 63, 64
2, 20640, Note_on_c, 0, 63, 0
2, 20640, Note_on_c, 0, 65, 64
2, 20880, Note_on_c, 0, 65, 0
2, 20880, Note_on_c, 0, 67, 64
2, 21120, Note_on_c, 0, 67, 0
2, 21120, Note_on_c, 0, 68, 64
2, 21360, Note_on_c, 0, 68, 0
2, 21360, Note_on_c, 0, 62, 64
2, 21600, Note_on_c, 0, 62, 0
2, 21600, Note_on_c, 0, 63, 64
2, 21840, Note_on_c, 0, 63, 0
2, 21840, Note_on_c, 0, 65, 64
2, 22080, Note_on_c, 0, 65, 0
2, 22080, Note_on_c, 0, 67, 64
2, 22320, Note_on_c, 0, 67, 0
2, 22320, Note_on_c, 0, 65, 64
2, 22560, Note_on_c, 0, 65, 0
2, 22560, Note_on_c, 0, 63, 64
2, 22800, Note_on_c, 0, 63, 0
2, 22800, Note_on_c, 0, 62, 64
2, 23040, Note_on_c, 0, 62, 0
2, 23040, Note_on_c, 0, 63, 64
2, 23280, Note_on_c, 0, 63, 0
2, 23280, Note_on_c, 0, 65, 64
2, 23520, Note_on_c, 0, 65, 0
2, 23520, Note_on_c, 0, 67, 64
2, 23760, Note_on_c, 0, 67, 0
2, 23760, Note_on_c, 0, 68, 64
2, 24000, Note_on_c, 0, 68, 0
2, 24000, Note_on_c, 0, 70, 64
2, 24240, Note_on_c, 0, 70, 0
2, 24240, Note_on_c, 0, 68, 64
2, 24480, Note_on_c, 0, 68, 0
2, 24480, Note_on_c, 0, 67, 64
2, 24720, Note_on_c, 0, 67, 0
2, 24720, Note_on_c, 0, 65, 64
2, 24960, Note_on_c, 0, 65, 0
2, 24960, Note_on_c, 0, 67, 64
2, 25200, Note_on_c, 0, 67, 0
2, 25200, Note_on_c, 0, 68, 64
2, 25440, Note_on_c, 0, 68, 0
2, 25440, Note_on_c, 0, 70, 64
2, 25680, Note_on_c, 0, 70, 0
2, 25680, Note_on_c, 0, 72, 64
2, 25920, Note_on_c, 0, 72, 0
2, 25920, Note_on_c, 0, 73, 64
2, 26160, Note_on_c, 0, 73, 0
2, 26160, Note_on_c, 0, 70, 64
2, 26400, Note_on_c, 0, 70, 0
2, 26400, Note_on_c, 0, 68, 64
2, 26640, Note_on_c, 0, 68, 0
2, 26640, Note_on_c, 0, 67, 64
2, 26880, Note_on_c, 0, 67, 0
2, 26880, Note_on_c, 0, 69, 64
2, 27120, Note_on_c, 0, 69, 0
2, 27120, Note_on_c, 0, 71, 64
2, 27360, Note_on_c, 0, 71, 0
2, 27360, Note_on_c, 0, 72, 64
2, 27600, Note_on_c, 0, 72, 0
2, 27600, Note_on_c, 0, 74, 64
2, 27840, Note_on_c, 0, 74, 0
2, 27840, Note_on_c, 0, 75, 64
2, 28080, Note_on_c, 0, 75, 0
2, 28080, Note_on_c, 0, 72, 64
2, 28320, Note_on_c, 0, 72, 0
2, 28320, Note_on_c, 0, 71, 64
2, 28560, Note_on_c, 0, 71, 0
2, 28560, Note_on_c, 0, 69, 64
2, 28800, Note_on_c, 0, 69, 0
2, 28800, Note_on_c, 0, 71, 64
2, 29040, Note_on_c, 0, 71, 0
2, 29040, Note_on_c, 0, 72, 64
2, 29280, Note_on_c, 0, 72, 0
2, 29280, Note_on_c, 0, 74, 64
2, 29520, Note_on_c, 0, 74, 0
2, 29520, Note_on_c, 0, 75, 64
2, 29760, Note_on_c, 0, 75, 0
2, 29760, Note_on_c, 0, 77, 64
2, 30000, Note_on_c, 0, 77, 0
2, 30000, Note_on_c, 0, 74, 64
2, 30240, Note_on_c, 0, 74, 0
2, 30240, Note_on_c, 0, 67, 64
2, 30480, Note_on_c, 0, 67, 0
2, 30480, Note_on_c, 0, 74, 64
2, 30720, Note_on_c, 0, 74, 0
2, 30720, Note_on_c, 0, 72, 64
2, 30960, Note_on_c, 0, 72, 0
2, 30960, Note_on_c, 0, 74, 64
2, 31200, Note_on_c, 0, 74, 0
2, 31200, Note_on_c, 0, 75, 64
2, 31440, Note_on_c, 0, 75, 0
2, 31440, Note_on_c, 0, 77, 64
2, 31680, Note_on_c, 0, 77, 0
2, 31680, Note_on_c, 0, 75, 64
2, 31920, Note_on_c, 0, 75, 0
2, 31920, Note_on_c, 0, 74, 64
2, 32160, Note_on_c, 0, 74, 0
2, 32160, Note_on_c, 0, 72, 64
2, 32400, Note_on_c, 0, 72, 0
2, 32400, Note_on_c, 0, 71, 64
2, 32640, Note_on_c, 0, 71, 0
2, 32640, Note_on_c, 0, 72, 64
2, 33120, Note_on_c, 0, 72, 0
2, 33120, Note_on_c, 0, 67, 64
2, 33600, Note_on_c, 0, 67, 0
2, 33600, Note_on_c, 0, 63, 64
2, 34080, Note_on_c, 0, 63, 0
2, 34080, Note_on_c, 0, 60, 64
2, 34560, Note_on_c, 0, 60, 0
2, 34560, Note_on_c, 0, 60, 64
2, 35520, Note_on_c, 0, 60, 0
2, 35520, Note_on_c, 0, 63, 64
2, 36480, Note_on_c, 0, 63, 0
2, 36480, Note_on_c, 0, 67, 64
2, 37440, Note_on_c, 0, 67, 0
2, 37440, Note_on_c, 0, 68, 64
2, 38400, Note_on_c, 0, 68, 0
2, 38400, Note_on_c, 0, 59, 64
2, 39360, Note_on_c, 0, 59, 0
2, 39840, Note_on_c, 0, 67, 64
2, 40800, Note_on_c, 0, 67, 0
2, 40800, Note_on_c, 0, 66, 64
2, 41760, Note_on_c, 0, 66, 0
2, 41760, Note_on_c, 0, 65, 64
2, 42720, Note_on_c, 0, 65, 0
2, 42720, Note_on_c, 0, 64, 64
2, 43680, Note_on_c, 0, 64, 0
2, 43680, Note_on_c, 0, 63, 64
2, 44640, Note_on_c, 0, 63, 0
2, 44640, Note_on_c, 0, 62, 64
2, 45120, Note_on_c, 0, 62, 0
2, 45120, Note_on_c, 0, 61, 64
2, 45600, Note_on_c, 0, 61, 0
2, 45600, Note_on_c, 0, 60, 64
2, 46080, Note_on_c, 0, 60, 0
2, 46080, Note_on_c, 0, 59, 64
2, 46560, Note_on_c, 0, 59, 0
2, 46560, Note_on_c, 0, 55, 64
2, 47040, Note_on_c, 0, 55, 0
2, 47040, Note_on_c, 0, 60, 64
2, 47520, Note_on_c, 0, 60, 0
2, 47520, Note_on_c, 0, 65, 64
2, 48000, Note_on_c, 0, 65, 0
2, 48000, Note_on_c, 0, 63, 64
2, 48960, Note_on_c, 0, 63, 0
2, 48960, Note_on_c, 0, 62, 64
2, 49920, Note_on_c, 0, 62, 0
2, 49920, Note_on_c, 0, 60, 64
2, 50880, Note_on_c, 0, 60, 0
2, 50880, Note_on_c, 0, 63, 64
2, 51840, Note_on_c, 0, 63, 0
2, 51840, Note_on_c, 0, 67, 64
2, 52080, Note_on_c, 0, 67, 0
2, 52080, Note_on_c, 0, 65, 64
2, 52320, Note_on_c, 0, 65, 0
2, 52320, Note_on_c, 0, 67, 64
2, 52560, Note_on_c, 0, 67, 0
2, 52560, Note_on_c, 0, 72, 64
2, 52800, Note_on_c, 0, 72, 0
2, 52800, Note_on_c, 0, 67, 64
2, 53040, Note_on_c, 0, 67, 0
2, 53040, Note_on_c, 0, 63, 64
2, 53280, Note_on_c, 0, 63, 0
2, 53280, Note_on_c, 0, 62, 64
2, 53520, Note_on_c, 0, 62, 0
2, 53520, Note_on_c, 0, 63, 64
2, 53760, Note_on_c, 0, 63, 0
2, 53760, Note_on_c, 0, 65, 64
2, 54000, Note_on_c, 0, 65, 0
2, 54000, Note_on_c, 0, 67, 64
2, 54240, Note_on_c, 0, 67, 0
2, 54240, Note_on_c, 0, 69, 64
2, 54480, Note_on_c, 0, 69, 0
2, 54480, Note_on_c, 0, 71, 64
2, 54720, Note_on_c, 0, 71, 0
2, 54720, Note_on_c, 0, 72, 64
2, 54960, Note_on_c, 0, 72, 0
2, 54960, Note_on_c, 0, 63, 64
2, 55200, Note_on_c, 0, 63, 0
2, 55200, Note_on_c, 0, 65, 64
2, 55440, Note_on_c, 0, 65, 0
2, 55440, Note_on_c, 0, 67, 64
2, 55680, Note_on_c, 0, 67, 0
2, 55680, Note_on_c, 0, 68, 64
2, 55920, Note_on_c, 0, 68, 0
2, 55920, Note_on_c, 0, 62, 64
2, 56160, Note_on_c, 0, 62, 0
2, 56160, Note_on_c, 0, 63, 64
2, 56400, Note_on_c, 0, 63, 0
2, 56400, Note_on_c, 0, 65, 64
2, 56640, Note_on_c, 0, 65, 0
2, 56640, Note_on_c, 0, 67, 64
2, 56880, Note_on_c, 0, 67, 0
2, 56880, Note_on_c, 0, 65, 64
2, 57120, Note_on_c, 0, 65, 0
2, 57120, Note_on_c, 0, 63, 64
2, 57360, Note_on_c, 0, 63, 0
2, 57360, Note_on_c, 0, 62, 64
2, 57600, Note_on_c, 0, 62, 0
2, 57600, Note_on_c, 0, 63, 64
2, 57840, Note_on_c, 0, 63, 0
2, 57840, Note_on_c, 0, 65, 64
2, 58080, Note_on_c, 0, 65, 0
2, 58080, Note_on_c, 0, 67, 64
2, 58320, Note_on_c, 0, 67, 0
2, 58320, Note_on_c, 0, 68, 64
2, 58560, Note_on_c, 0, 68, 0
2, 58560, Note_on_c, 0, 70, 64
2, 58800, Note_on_c, 0, 70, 0
2, 58800, Note_on_c, 0, 68, 64
2, 59040, Note_on_c, 0, 68, 0
2, 59040, Note_on_c, 0, 67, 64
2, 59280, Note_on_c, 0, 67, 0
2, 59280, Note_on_c, 0, 65, 64
2, 59520, Note_on_c, 0, 65, 0
2, 59520, Note_on_c, 0, 67, 64
2, 59760, Note_on_c, 0, 67, 0
2, 59760, Note_on_c, 0, 68, 64
2, 60000, Note_on_c, 0, 68, 0
2, 60000, Note_on_c, 0, 70, 64
2, 60240, Note_on_c, 0, 70, 0
2, 60240, Note_on_c, 0, 72, 64
2, 60480, Note_on_c, 0, 72, 0
2, 60480, Note_on_c, 0, 73, 64
2, 60720, Note_on_c, 0, 73, 0
2, 60720, Note_on_c, 0, 70, 64
2, 60960, Note_on_c, 0, 70, 0
2, 60960, Note_on_c, 0, 68, 64
2, 61200, Note_on_c, 0, 68, 0
2, 61200, Note_on_c, 0, 67, 64
2, 61440, Note_on_c, 0, 67, 0
2, 61440, Note_on_c, 0, 69, 64
2, 61680, Note_on_c, 0, 69, 0
2, 61680, Note_on_c, 0, 71, 64
2, 61920, Note_on_c, 0, 71, 0
2, 61920, Note_on_c, 0, 72, 64
2, 62160, Note_on_c, 0, 72, 0
2, 62160, Note_on_c, 0, 74, 64
2, 62400, Note_on_c, 0, 74, 0
2, 62400, Note_on_c, 0, 75, 64
2, 62640, Note_on_c, 0, 75, 0
2, 62640, Note_on_c, 0, 72, 64
2, 62880, Note_on_c, 0, 72, 0
2, 62880, Note_on_c, 0, 71, 64
2, 63120, Note_on_c, 0, 71, 0
2, 63120, Note_on_c, 0, 69, 64
2, 63360, Note_on_c, 0, 69, 0
2, 63360, Note_on_c, 0, 71, 64
2, 63600, Note_on_c, 0, 71, 0
2, 63600, Note_on_c, 0, 72, 64
2, 63840, Note_on_c, 0, 72, 0
2, 63840, Note_on_c, 0, 74, 64
2, 64080, Note_on_c, 0, 74, 0
2, 64080, Note_on_c, 0, 75, 64
2, 64320, Note_on_c, 0, 75, 0
2, 64320, Note_on_c, 0, 77, 64
2, 64560, Note_on_c, 0, 77, 0
2, 64560, Note_on_c, 0, 74, 64
2, 64800, Note_on_c, 0, 74, 0
2, 64800, Note_on_c, 0, 67, 64
2, 65040, Note_on_c, 0, 67, 0
2, 65040, Note_on_c, 0, 74, 64
2, 65280, Note_on_c, 0, 74, 0
2, 65280, Note_on_c, 0, 72, 64
2, 65520, Note_on_c, 0, 72, 0
2, 65520, Note_on_c, 0, 74, 64
2, 65760, Note_on_c, 0, 74, 0
2, 65760, Note_on_c, 0, 75, 64
2, 66000, Note_on_c, 0, 75, 0
2, 66000, Note_on_c, 0, 77, 64
2, 66240, Note_on_c, 0, 77, 0
2, 66240, Note_on_c, 0, 75, 64
2, 66480, Note_on_c, 0, 75, 0
2, 66480, Note_on_c, 0, 74, 64
2, 66720, Note_on_c, 0, 74, 0
2, 66720, Note_on_c, 0, 72, 64
2, 66960, Note_on_c, 0, 72, 0
2, 66960, Note_on_c, 0, 71, 64
2, 67200, Note_on_c, 0, 71, 0
2, 67200, Note_on_c, 0, 72, 64
2, 67680, Note_on_c, 0, 72, 0
2, 67680, Note_on_c, 0, 67, 64
2, 68160, Note_on_c, 0, 67, 0
2, 68160, Note_on_c, 0, 63, 64
2, 68640, Note_on_c, 0, 63, 0
2, 68640, Note_on_c, 0, 60, 64
2, 69120, Note_on_c, 0, 60, 0
2, 69120, End_track
3, 0, Start_track
3, 0, Program_c, 0, 0
3, 0, Note_on_c, 0, 60, 64
3, 480, Note_on_c, 0, 60, 0
3, 480, Note_on_c, 0, 63, 64
3, 960, Note_on_c, 0, 63, 0
3, 960, Note_on_c, 0, 67, 64
3, 1440, Note_on_c, 0, 67, 0
3, 1440, Note_on_c, 0, 72, 64
3, 1920, Note_on_c, 0, 72, 0
3, 1920, Note_on_c, 0, 71, 64
3, 2160, Note_on_c, 0, 71, 0
3, 2160, Note_on_c, 0, 72, 64
3, 2400, Note_on_c, 0, 72, 0
3, 2400, Note_on_c, 0, 74, 64
3, 2640, Note_on_c, 0, 74, 0
3, 2640, Note_on_c, 0, 75, 64
3, 2880, Note_on_c, 0, 75, 0
3, 2880, Note_on_c, 0, 77, 64
3, 3120, Note_on_c, 0, 77, 0
3, 3120, Note_on_c, 0, 75, 64
3, 3360, Note_on_c, 0, 75, 0
3, 3360, Note_on_c, 0, 74, 64
3, 3600, Note_on_c, 0, 74, 0
3, 3600, Note_on_c, 0, 72, 64
3, 3840, Note_on_c, 0, 72, 0
3, 3840, Note_on_c, 0, 74, 64
3, 4080, Note_on_c, 0, 74, 0
3, 4080, Note_on_c, 0, 67, 64
3, 4320, Note_on_c, 0, 67, 0
3, 4320, Note_on_c, 0, 74, 64
3, 4560, Note_on_c, 0, 74, 0
3, 4560, Note_on_c, 0, 77, 64
3, 4800, Note_on_c, 0, 77, 0
3, 4800, Note_on_c, 0, 75, 64
3, 5040, Note_on_c, 0, 75, 0
3, 5040, Note_on_c, 0, 74, 64
3, 5280, Note_on_c, 0, 74, 0
3, 5280, Note_on_c, 0, 72, 64
3, 5520, Note_on_c, 0, 72, 0
3, 5520, Note_on_c, 0, 71, 64
3, 5760, Note_on_c, 0, 71, 0
3, 5760, Note_on_c, 0, 69, 64
3, 6000, Note_on_c, 0, 69, 0
3, 6000, Note_on_c, 0, 71, 64
3, 6240, Note_on_c, 0, 71, 0
3, 6240, Note_on_c, 0, 72, 64
3, 6480, Note_on_c, 0, 72, 0
3, 6480, Note_on_c, 0, 75, 64
3, 6720, Note_on_c, 0, 75, 0
3, 6720, Note_on_c, 0, 74, 64
3, 6960, Note_on_c, 0, 74, 0
3, 6960, Note_on_c, 0, 72, 64
3, 7200, Note_on_c, 0, 72, 0
3, 7200, Note_on_c, 0, 71, 64
3, 7440, Note_on_c, 0, 71, 0
3, 7440, Note_on_c, 0, 69, 64
3, 7680, Note_on_c, 0, 69, 0
3, 7680, Note_on_c, 0, 67, 64
3, 7920, Note_on_c, 0, 67, 0
3, 7920, Note_on_c, 0, 68, 64
3, 8160, Note_on_c, 0, 68, 0
3, 8160, Note_on_c, 0, 70, 64
3, 8400, Note_on_c, 0, 70, 0
3, 8400, Note_on_c, 0, 73, 64
3, 8640, Note_on_c, 0, 73, 0
3, 8640, Note_on_c, 0, 72, 64
3, 8880, Note_on_c, 0, 72, 0
3, 8880, Note_on_c, 0, 70, 64
3, 9120, Note_on_c, 0, 70, 0
3, 9120, Note_on_c, 0, 68, 64
3, 9360, Note_on_c, 0, 68, 0
3, 9360, Note_on_c, 0, 67, 64
3, 9600, Note_on_c, 0, 67, 0
3, 9600, Note_on_c, 0, 65, 64
3, 9840, Note_on_c, 0, 65, 0
3, 9840, Note_on_c, 0, 67, 64
3, 10080, Note_on_c, 0, 67, 0
3, 10080, Note_on_c, 0, 68, 64
3, 10320, Note_on_c, 0, 68, 0
3, 10320, Note_on_c, 0, 70, 64
3, 10560, Note_on_c, 0, 70, 0
3, 10560, Note_on_c, 0, 68, 64
3, 10800, Note_on_c, 0, 68, 0
3, 10800, Note_on_c, 0, 67, 64
3, 11040, Note_on_c, 0, 67, 0
3, 11040, Note_on_c, 0, 65, 64
3, 11280, Note_on_c, 0, 65, 0
3, 11280, Note_on_c, 0, 63, 64
3, 11520, Note_on_c, 0, 63, 0
3, 11520, Note_on_c, 0, 62, 64
3, 11760, Note_on_c, 0, 62, 0
3, 11760, Note_on_c, 0, 63, 64
3, 12000, Note_on_c, 0, 63, 0
3, 12000, Note_on_c, 0, 65, 64
3, 12240, Note_on_c, 0, 65, 0
3, 12240, Note_on_c, 0, 67, 64
3, 12480, Note_on_c, 0, 67, 0
3, 12480, Note_on_c, 0, 65, 64
3, 12720, Note_on_c, 0, 65, 0
3, 12720, Note_on_c, 0, 63, 64
3, 12960, Note_on_c, 0, 63, 0
3, 12960, Note_on_c, 0, 62, 64
3, 13200, Note_on_c, 0, 62, 0
3, 13200, Note_on_c, 0, 68, 64
3, 13440, Note_on_c, 0, 68, 0
3, 13440, Note_on_c, 0, 67, 64
3, 13680, Note_on_c, 0, 67, 0
3, 13680, Note_on_c, 0, 65, 64
3, 13920, Note_on_c, 0, 65, 0
3, 13920, Note_on_c, 0, 63, 64
3, 14160, Note_on_c, 0, 63, 0
3, 14160, Note_on_c, 0, 72, 64
3, 14400, Note_on_c, 0, 72, 0
3, 14400, Note_on_c, 0, 71, 64
3, 14640, Note_on_c, 0, 71, 0
3, 14640, Note_on_c, 0, 69, 64
3, 14880, Note_on_c, 0, 69, 0
3, 14880, Note_on_c, 0, 67, 64
3, 15120, Note_on_c, 0, 67, 0
3, 15120, Note_on_c, 0, 65, 64
3, 15360, Note_on_c, 0, 65, 0
3, 15360, Note_on_c, 0, 63, 64
3, 15600, Note_on_c, 0, 63, 0
3, 15600, Note_on_c, 0, 62, 64
3, 15840, Note_on_c, 0, 62, 0
3, 15840, Note_on_c, 0, 63, 64
3, 16080, Note_on_c, 0, 63, 0
3, 16080, Note_on_c, 0, 67, 64
3, 16320, Note_on_c, 0, 67, 0
3, 16320, Note_on_c, 0, 72, 64
3, 16560, Note_on_c, 0, 72, 0
3, 16560, Note_on_c, 0, 67, 64
3, 16800, Note_on_c, 0, 67, 0
3, 16800, Note_on_c, 0, 65, 64
3, 17040, Note_on_c, 0, 65, 0
3, 17040, Note_on_c, 0, 67, 64
3, 17280, Note_on_c, 0, 67, 0
3, 17280, Note_on_c, 0, 63, 64
3, 18240, Note_on_c, 0, 63, 0
3, 18240, Note_on_c, 0, 60, 64
3, 19200, Note_on_c, 0, 60, 0
3, 19200, Note_on_c, 0, 62, 64
3, 20160, Note_on_c, 0, 62, 0
3, 20160, Note_on_c, 0, 63, 64
3, 21120, Note_on_c, 0, 63, 0
3, 21120, Note_on_c, 0, 65, 64
3, 21600, Note_on_c, 0, 65, 0
3, 21600, Note_on_c, 0, 60, 64
3, 22080, Note_on_c, 0, 60, 0
3, 22080, Note_on_c, 0, 55, 64
3, 22560, Note_on_c, 0, 55, 0
3, 22560, Note_on_c, 0, 59, 64
3, 23040, Note_on_c, 0, 59, 0
3, 23040, Note_on_c, 0, 60, 64
3, 23520, Note_on_c, 0, 60, 0
3, 23520, Note_on_c, 0, 61, 64
3, 24000, Note_on_c, 0, 61, 0
3, 24000, Note_on_c, 0, 62, 64
3, 24480, Note_on_c, 0, 62, 0
3, 24480, Note_on_c, 0, 63, 64
3, 25440, Note_on_c, 0, 63, 0
3, 25440, Note_on_c, 0, 64, 64
3, 26400, Note_on_c, 0, 64, 0
3, 26400, Note_on_c, 0, 65, 64
3, 27360, Note_on_c, 0, 65, 0
3, 27360, Note_on_c, 0, 66, 64
3, 28320, Note_on_c, 0, 66, 0
3, 28320, Note_on_c, 0, 67, 64
3, 29280, Note_on_c, 0, 67, 0
3, 29760, Note_on_c, 0, 59, 64
3, 30720, Note_on_c, 0, 59, 0
3, 30720, Note_on_c, 0, 68, 64
3, 31680, Note_on_c, 0, 68, 0
3, 31680, Note_on_c, 0, 67, 64
3, 32640, Note_on_c, 0, 67, 0
3, 32640, Note_on_c, 0, 63, 64
3, 33600, Note_on_c, 0, 63, 0
3, 33600, Note_on_c, 0, 60, 64
3, 34560, Note_on_c, 0, 60, 0
3, 34560, Note_on_c, 0, 60, 64
3, 35040, Note_on_c, 0, 60, 0
3, 35040, Note_on_c, 0, 63, 64
3, 35520, Note_on_c, 0, 63, 0
3, 35520, Note_on_c, 0, 67, 64
3, 36000, Note_on_c, 0, 67, 0
3, 36000, Note_on_c, 0, 72, 64
3, 36480, Note_on_c, 0, 72, 0
3, 36480, Note_on_c, 0, 71, 64
3, 36720, Note_on_c, 0, 71, 0
3, 36720, Note_on_c, 0, 72, 64
3, 36960, Note_on_c, 0, 72, 0
3, 36960, Note_on_c, 0, 74, 64
3, 37200, Note_on_c, 0, 74, 0
3, 37200, Note_on_c, 0, 75, 64
3, 37440, Note_on_c, 0, 75, 0
3, 37440, Note_on_c, 0, 77, 64
3, 37680, Note_on_c, 0, 77, 0
3, 37680, Note_on_c, 0, 75, 64
3, 37920, Note_on_c, 0, 75, 0
3, 37920, Note_on_c, 0, 74, 64
3, 38160, Note_on_c, 0, 74, 0
3, 38160, Note_on_c, 0, 72, 64
3, 38400, Note_on_c, 0, 72, 0
3, 38400, Note_on_c, 0, 74, 64
3, 38640, Note_on_c, 0, 74, 0
3, 38640, Note_on_c, 0, 67, 64
3, 38880, Note_on_c, 0, 67, 0
3, 38880, Note_on_c, 0, 74, 64
3, 39120, Note_on_c, 0, 74, 0
3, 39120, Note_on_c, 0, 77, 64
3, 39360, Note_on_c, 0, 77, 0
3, 39360, Note_on_c, 0, 75, 64
3, 39600, Note_on_c, 0, 75, 0
3, 39600, Note_on_c, 0, 74, 64
3, 39840, Note_on_c, 0, 74, 0
3, 39840, Note_on_c, 0, 72, 64
3, 40080, Note_on_c, 0, 72, 0
3, 40080, Note_on_c, 0, 71, 64
3, 40320, Note_on_c, 0, 71, 0
3, 40320, Note_on_c, 0, 69, 64
3, 40560, Note_on_c, 0, 69, 0
3, 40560, Note_on_c, 0, 71, 64
3, 40800, Note_on_c, 0, 71, 0
3, 40800, Note_on_c, 0, 72, 64
3, 41040, Note_on_c, 0, 72, 0
3, 41040, Note_on_c, 0, 75, 64
3, 41280, Note_on_c, 0, 75, 0
3, 41280, Note_on_c, 0, 74, 64
3, 41520, Note_on_c, 0, 74, 0
3, 41520, Note_on_c, 0, 72, 64
3, 41760, Note_on_c, 0, 72, 0
3, 41760, Note_on_c, 0, 71, 64
3, 42000, Note_on_c, 0, 71, 0
3, 42000, Note_on_c, 0, 69, 64
3, 42240, Note_on_c, 0, 69, 0
3, 42240, Note_on_c, 0, 67, 64
3, 42480, Note_on_c, 0, 67, 0
3, 42480, Note_on_c, 0, 68, 64
3, 42720, Note_on_c, 0, 68, 0
3, 42720, Note_on_c, 0, 70, 64
3, 42960, Note_on_c, 0, 70, 0
3, 42960, Note_on_c, 0, 73, 64
3, 43200, Note_on_c, 0, 73, 0
3, 43200, Note_on_c, 0, 72, 64
3, 43440, Note_on_c, 0, 72, 0
3, 43440, Note_on_c, 0, 70, 64
3, 43680, Note_on_c, 0, 70, 0
3, 43680, Note_on_c, 0, 68, 64
3, 43920, Note_on_c, 0, 68, 0
3, 43920, Note_on_c, 0, 67, 64
3, 44160, Note_on_c, 0, 67, 0
3, 44160, Note_on_c, 0, 65, 64
3, 44400, Note_on_c, 0, 65, 0
3, 44400, Note_on_c, 0, 67, 64
3, 44640, Note_on_c, 0, 67, 0
3, 44640, Note_on_c, 0, 68, 64
3, 44880, Note_on_c, 0, 68, 0
3, 44880, Note_on_c, 0, 70, 64
3, 45120, Note_on_c, 0, 70, 0
3, 45120, Note_on_c, 0, 68, 64
3, 45360, Note_on_c, 0, 68, 0
3, 45360, Note_on_c, 0, 67, 64
3, 45600, Note_on_c, 0, 67, 0
3, 45600, Note_on_c, 0, 65, 64
3, 45840, Note_on_c, 0, 65, 0
3, 45840, Note_on_c, 0, 63, 64
3, 46080, Note_on_c, 0, 63, 0
3, 46080, Note_on_c, 0, 62, 64
3, 46320, Note_on_c, 0, 62, 0
3, 46320, Note_on_c, 0, 63, 64
3, 46560, Note_on_c, 0, 63, 0
3, 46560, Note_on_c, 0, 65, 64
3, 46800, Note_on_c, 0, 65, 0
3, 46800, Note_on_c, 0, 67, 64
3, 47040, Note_on_c, 0, 67, 0
3, 47040, Note_on_c, 0, 65, 64
3, 47280, Note_on_c, 0, 65, 0
3, 47280, Note_on_c, 0, 63, 64
3, 47520, Note_on_c, 0, 63, 0
3, 47520, Note_on_c, 0, 62, 64
3, 47760, Note_on_c, 0, 62, 0
3, 47760, Note_on_c, 0, 68, 64
3, 48000, Note_on_c, 0, 68, 0
3, 48000, Note_on_c, 0, 67, 64
3, 48240, Note_on_c, 0, 67, 0
3, 48240, Note_on_c, 0, 65, 64
3, 48480, Note_on_c, 0, 65, 0
3, 48480, Note_on_c, 0, 63, 64
3, 48720, Note_on_c, 0, 63, 0
3, 48720, Note_on_c, 0, 72, 64
3, 48960, Note_on_c, 0, 72, 0
3, 48960, Note_on_c, 0, 71, 64
3, 49200, Note_on_c, 0, 71, 0
3, 49200, Note_on_c, 0, 69, 64
3, 49440, Note_on_c, 0, 69, 0
3, 49440, Note_on_c, 0, 67, 64
3, 49680, Note_on_c, 0, 67, 0
3, 49680, Note_on_c, 0, 65, 64
3, 49920, Note_on_c, 0, 65, 0
3, 49920, Note_on_c, 0, 63, 64
3, 50160, Note_on_c, 0, 63, 0
3, 50160, Note_on_c, 0, 62, 64
3, 50400, Note_on_c, 0, 62, 0
3, 50400, Note_on_c, 0, 63, 64
3, 50640, Note_on_c, 0, 63, 0
3, 50640, Note_on_c, 0, 67, 64
3, 50880, Note_on_c, 0, 67, 0
3, 50880, Note_on_c, 0, 72, 64
3, 51120, Note_on_c, 0, 72, 0
3, 51120, Note_on_c, 0, 67, 64
3, 51360, Note_on_c, 0, 67, 0
3, 51360, Note_on_c, 0, 65, 64
3, 51600, Note_on_c, 0, 65, 0
3, 51600, Note_on_c, 0, 67, 64
3, 51840, Note_on_c, 0, 67, 0
3, 51840, Note_on_c, 0, 63, 64
3, 52800, Note_on_c, 0, 63, 0
3, 52800, Note_on_c, 0, 60, 64
3, 53760, Note_on_c, 0, 60, 0
3, 53760, Note_on_c, 0, 62, 64
3, 54720, Note_on_c, 0, 62, 0
3, 54720, Note_on_c, 0, 63, 64
3, 55680, Note_on_c, 0, 63, 0
3, 55680, Note_on_c, 0, 65, 64
3, 56160, Note_on_c, 0, 65, 0
3, 56160, Note_on_c, 0, 60, 64
3, 56640, Note_on_c, 0, 60, 0
3, 56640, Note_on_c, 0, 55, 64
3, 57120, Note_on_c, 0, 55, 0
3, 57120, Note_on_c, 0, 59, 64
3, 57600, Note_on_c, 0, 59, 0
3, 57600, Note_on_c, 0, 60, 64
3, 58080, Note_on_c, 0, 60, 0
3, 58080, Note_on_c, 0, 61, 64
3, 58560, Note_on_c, 0, 61, 0
3, 58560, Note_on_c, 0, 62, 64
3, 59040, Note_on_c, 0, 62, 0
3, 59040, Note_on_c, 0, 63, 64
3, 60000, Note_on_c, 0, 63, 0
3, 60000, Note_on_c, 0, 64, 64
3, 60960, Note_on_c, 0, 64, 0
3, 60960, Note_on_c, 0, 65, 64
3, 61920, Note_on_c, 0, 65, 0
3, 61920, Note_on_c, 0, 66, 64
3, 62880, Note_on_c, 0, 66, 0
3, 62880, Note_on_c, 0, 67, 64
3, 63840, Note_on_c, 0, 67, 0
3, 64320, Note_on_c, 0, 59, 64
3, 65280, Note_on_c, 0, 59, 0
3, 65280, Note_on_c, 0, 68, 64
3, 66240, Note_on_c, 0, 68, 0
3, 66240, Note_on_c, 0, 67, 64
3, 67200, Note_on_c, 0, 67, 0
3, 67200, Note_on_c, 0, 63, 64
3, 68160, Note_on_c, 0, 63, 0
3, 68160, Note_on_c, 0, 60, 64
3, 69120, Note_on_c, 0, 60, 0
3, 69120, End_track
4, 0, Start_track
4, 0, End_track
0, 0, End_of_file
