0, 0, Header, 1, 19, 240
1, 0, Start_track
1, 0, Sequencer_specific, 10, 0, 0, 91, 35, 1, 0, 5, 6, 42, 0
1, 0, Title_t, "J. S. Bach - Orchestral Suite No.4 in D Major BWV1069"
1, 0, Instrument_name_t, "Conductor Track"
1, 0, SMPTE_offset, 96, 0, 3, 0, 0
1, 0, MIDI_port, 0
1, 0, Marker_t, "Originally Sequenced 23 Dec 1999"
1, 0, Tempo, 416666
1, 0, Key_signature, 2, "major"
1, 0, Time_signature, 2, 2, 24, 8
1, 480, Time_signature, 4, 2, 24, 8
1, 56160, Tempo, 416666
1, 56196, Tempo, 419580
1, 56231, Tempo, 422535
1, 56267, Tempo, 425531
1, 56302, Tempo, 428571
1, 56338, Tempo, 431654
1, 56373, Tempo, 434782
1, 56409, Tempo, 437956
1, 56444, Tempo, 441176
1, 56480, Tempo, 444444
1, 56516, Tempo, 447761
1, 56551, Tempo, 451127
1, 56587, Tempo, 454545
1, 56622, Tempo, 458015
1, 56658, Tempo, 461538
1, 56693, Tempo, 465116
1, 56729, Tempo, 468750
1, 56764, Tempo, 472440
1, 56800, Tempo, 476190
1, 56836, Tempo, 480000
1, 56871, Tempo, 483870
1, 56907, Tempo, 487804
1, 56942, Tempo, 491803
1, 56978, Tempo, 495867
1, 57013, Tempo, 500000
1, 57049, Tempo, 504201
1, 57084, Tempo, 508474
1, 57120, Tempo, 512820
1, 57600, Tempo, 3000000
1, 58080, Tempo, 416666
1, 58080, End_track
2, 0, Start_track
2, 0, Title_t, "3rd Movement - Gavotte"
2, 0, MIDI_port, 0
2, 0, End_track
3, 0, Start_track
3, 0, Title_t, "Sequenced by D. L. Viens 31 Dec 1999"
3, 0, MIDI_port, 0
3, 0, End_track
4, 0, Start_track
4, 0, Title_t, "dlviens@empire.net"
4, 0, MIDI_port, 0
4, 0, End_track
5, 0, Start_track
5, 0, MIDI_port, 0
5, 0, End_track
6, 0, Start_track
6, 0, Title_t, "Trumpet I in D"
6, 0, MIDI_port, 0
6, 0, Program_c, 0, 56
6, 0, Control_c, 0, 10, 54
6, 0, Control_c, 0, 11, 127
6, 0, Control_c, 0, 7, 96
6, 0, Note_on_c, 0, 69, 76
6, 239, Note_on_c, 0, 69, 0
6, 240, Note_on_c, 0, 69, 72
6, 449, Note_on_c, 0, 69, 0
6, 480, Note_on_c, 0, 69, 76
6, 719, Note_on_c, 0, 69, 0
6, 720, Note_on_c, 0, 69, 72
6, 929, Note_on_c, 0, 69, 0
6, 960, Note_on_c, 0, 69, 76
6, 1199, Note_on_c, 0, 69, 0
6, 1200, Note_on_c, 0, 69, 72
6, 1409, Note_on_c, 0, 69, 0
6, 1440, Note_on_c, 0, 69, 76
6, 1889, Note_on_c, 0, 69, 0
6, 1920, Note_on_c, 0, 81, 76
6, 2984, Note_on_c, 0, 81, 0
6, 3000, Note_on_c, 0, 79, 76
6, 3104, Note_on_c, 0, 79, 0
6, 3120, Note_on_c, 0, 78, 76
6, 3224, Note_on_c, 0, 78, 0
6, 3240, Note_on_c, 0, 76, 76
6, 3344, Note_on_c, 0, 76, 0
6, 3360, Note_on_c, 0, 78, 76
6, 3569, Note_on_c, 0, 78, 0
6, 3600, Note_on_c, 0, 74, 76
6, 3809, Note_on_c, 0, 74, 0
6, 3840, Note_on_c, 0, 69, 76
6, 4079, Note_on_c, 0, 69, 0
6, 4080, Note_on_c, 0, 69, 72
6, 4289, Note_on_c, 0, 69, 0
6, 4320, Note_on_c, 0, 69, 76
6, 4559, Note_on_c, 0, 69, 0
6, 4560, Note_on_c, 0, 69, 72
6, 4769, Note_on_c, 0, 69, 0
6, 4800, Note_on_c, 0, 69, 76
6, 5039, Note_on_c, 0, 69, 0
6, 5040, Note_on_c, 0, 69, 72
6, 5249, Note_on_c, 0, 69, 0
6, 5280, Note_on_c, 0, 69, 76
6, 5759, Note_on_c, 0, 69, 0
6, 9600, Note_on_c, 0, 69, 76
6, 9839, Note_on_c, 0, 69, 0
6, 9840, Note_on_c, 0, 69, 72
6, 10049, Note_on_c, 0, 69, 0
6, 10080, Note_on_c, 0, 69, 76
6, 10319, Note_on_c, 0, 69, 0
6, 10320, Note_on_c, 0, 69, 72
6, 10529, Note_on_c, 0, 69, 0
6, 10560, Note_on_c, 0, 69, 76
6, 10799, Note_on_c, 0, 69, 0
6, 10800, Note_on_c, 0, 69, 72
6, 11009, Note_on_c, 0, 69, 0
6, 11040, Note_on_c, 0, 69, 76
6, 11489, Note_on_c, 0, 69, 0
6, 11520, Note_on_c, 0, 81, 76
6, 12584, Note_on_c, 0, 81, 0
6, 12600, Note_on_c, 0, 79, 76
6, 12704, Note_on_c, 0, 79, 0
6, 12720, Note_on_c, 0, 78, 76
6, 12824, Note_on_c, 0, 78, 0
6, 12840, Note_on_c, 0, 76, 76
6, 12944, Note_on_c, 0, 76, 0
6, 12960, Note_on_c, 0, 78, 76
6, 13169, Note_on_c, 0, 78, 0
6, 13200, Note_on_c, 0, 74, 76
6, 13409, Note_on_c, 0, 74, 0
6, 13440, Note_on_c, 0, 69, 76
6, 13679, Note_on_c, 0, 69, 0
6, 13680, Note_on_c, 0, 69, 72
6, 13889, Note_on_c, 0, 69, 0
6, 13920, Note_on_c, 0, 69, 76
6, 14159, Note_on_c, 0, 69, 0
6, 14160, Note_on_c, 0, 69, 72
6, 14369, Note_on_c, 0, 69, 0
6, 14400, Note_on_c, 0, 69, 76
6, 14639, Note_on_c, 0, 69, 0
6, 14640, Note_on_c, 0, 69, 72
6, 14849, Note_on_c, 0, 69, 0
6, 14880, Note_on_c, 0, 69, 76
6, 15359, Note_on_c, 0, 69, 0
6, 19200, Note_on_c, 0, 69, 76
6, 19439, Note_on_c, 0, 69, 0
6, 19440, Note_on_c, 0, 69, 72
6, 19649, Note_on_c, 0, 69, 0
6, 19680, Note_on_c, 0, 69, 76
6, 19919, Note_on_c, 0, 69, 0
6, 19920, Note_on_c, 0, 69, 72
6, 20129, Note_on_c, 0, 69, 0
6, 20160, Note_on_c, 0, 69, 76
6, 20399, Note_on_c, 0, 69, 0
6, 20400, Note_on_c, 0, 69, 72
6, 20609, Note_on_c, 0, 69, 0
6, 20640, Note_on_c, 0, 69, 76
6, 21119, Note_on_c, 0, 69, 0
6, 26880, Note_on_c, 0, 62, 76
6, 27119, Note_on_c, 0, 62, 0
6, 27120, Note_on_c, 0, 62, 72
6, 27329, Note_on_c, 0, 62, 0
6, 27360, Note_on_c, 0, 62, 76
6, 27599, Note_on_c, 0, 62, 0
6, 27600, Note_on_c, 0, 62, 72
6, 27809, Note_on_c, 0, 62, 0
6, 27840, Note_on_c, 0, 62, 76
6, 28079, Note_on_c, 0, 62, 0
6, 28080, Note_on_c, 0, 62, 72
6, 28289, Note_on_c, 0, 62, 0
6, 28320, Note_on_c, 0, 62, 76
6, 28799, Note_on_c, 0, 62, 0
6, 30720, Note_on_c, 0, 74, 76
6, 31664, Note_on_c, 0, 74, 0
6, 31680, Note_on_c, 0, 76, 76
6, 32624, Note_on_c, 0, 76, 0
6, 32640, Note_on_c, 0, 78, 76
6, 33584, Note_on_c, 0, 78, 0
6, 33600, Note_on_c, 0, 79, 76
6, 34544, Note_on_c, 0, 79, 0
6, 34560, Note_on_c, 0, 78, 76
6, 34784, Note_on_c, 0, 78, 0
6, 34800, Note_on_c, 0, 86, 76
6, 35264, Note_on_c, 0, 86, 0
6, 35280, Note_on_c, 0, 85, 76
6, 35504, Note_on_c, 0, 85, 0
6, 35520, Note_on_c, 0, 74, 76
6, 35744, Note_on_c, 0, 74, 0
6, 35760, Note_on_c, 0, 83, 76
6, 36224, Note_on_c, 0, 83, 0
6, 36240, Note_on_c, 0, 81, 76
6, 36464, Note_on_c, 0, 81, 0
6, 36480, Note_on_c, 0, 81, 76
6, 37544, Note_on_c, 0, 81, 0
6, 37560, Note_on_c, 0, 79, 76
6, 37664, Note_on_c, 0, 79, 0
6, 37680, Note_on_c, 0, 78, 76
6, 37784, Note_on_c, 0, 78, 0
6, 37800, Note_on_c, 0, 76, 76
6, 37904, Note_on_c, 0, 76, 0
6, 37920, Note_on_c, 0, 74, 76
6, 38384, Note_on_c, 0, 74, 0
6, 38400, Note_on_c, 0, 69, 76
6, 38639, Note_on_c, 0, 69, 0
6, 38640, Note_on_c, 0, 69, 72
6, 38849, Note_on_c, 0, 69, 0
6, 38880, Note_on_c, 0, 69, 76
6, 39119, Note_on_c, 0, 69, 0
6, 39120, Note_on_c, 0, 69, 72
6, 39329, Note_on_c, 0, 69, 0
6, 39360, Note_on_c, 0, 69, 76
6, 39599, Note_on_c, 0, 69, 0
6, 39600, Note_on_c, 0, 69, 72
6, 39809, Note_on_c, 0, 69, 0
6, 39840, Note_on_c, 0, 69, 76
6, 40319, Note_on_c, 0, 69, 0
6, 46080, Note_on_c, 0, 62, 76
6, 46319, Note_on_c, 0, 62, 0
6, 46320, Note_on_c, 0, 62, 72
6, 46529, Note_on_c, 0, 62, 0
6, 46560, Note_on_c, 0, 62, 76
6, 46799, Note_on_c, 0, 62, 0
6, 46800, Note_on_c, 0, 62, 72
6, 47009, Note_on_c, 0, 62, 0
6, 47040, Note_on_c, 0, 62, 76
6, 47279, Note_on_c, 0, 62, 0
6, 47280, Note_on_c, 0, 62, 72
6, 47489, Note_on_c, 0, 62, 0
6, 47520, Note_on_c, 0, 62, 76
6, 47999, Note_on_c, 0, 62, 0
6, 49920, Note_on_c, 0, 74, 76
6, 50864, Note_on_c, 0, 74, 0
6, 50880, Note_on_c, 0, 76, 76
6, 51824, Note_on_c, 0, 76, 0
6, 51840, Note_on_c, 0, 78, 76
6, 52784, Note_on_c, 0, 78, 0
6, 52800, Note_on_c, 0, 79, 76
6, 53744, Note_on_c, 0, 79, 0
6, 53760, Note_on_c, 0, 78, 76
6, 53984, Note_on_c, 0, 78, 0
6, 54000, Note_on_c, 0, 86, 76
6, 54464, Note_on_c, 0, 86, 0
6, 54480, Note_on_c, 0, 85, 76
6, 54704, Note_on_c, 0, 85, 0
6, 54720, Note_on_c, 0, 74, 76
6, 54944, Note_on_c, 0, 74, 0
6, 54960, Note_on_c, 0, 83, 76
6, 55424, Note_on_c, 0, 83, 0
6, 55440, Note_on_c, 0, 81, 76
6, 55664, Note_on_c, 0, 81, 0
6, 55680, Note_on_c, 0, 81, 76
6, 56744, Note_on_c, 0, 81, 0
6, 56760, Note_on_c, 0, 79, 76
6, 56864, Note_on_c, 0, 79, 0
6, 56880, Note_on_c, 0, 78, 76
6, 56984, Note_on_c, 0, 78, 0
6, 57000, Note_on_c, 0, 76, 76
6, 57104, Note_on_c, 0, 76, 0
6, 57120, Note_on_c, 0, 74, 76
6, 57599, Note_on_c, 0, 74, 0
6, 57599, End_track
7, 0, Start_track
7, 0, Title_t, "Trumpet II in D"
7, 0, MIDI_port, 0
7, 0, Program_c, 1, 56
7, 0, Control_c, 1, 10, 64
7, 0, Control_c, 1, 11, 127
7, 0, Control_c, 1, 7, 96
7, 0, Note_on_c, 1, 69, 76
7, 239, Note_on_c, 1, 69, 0
7, 240, Note_on_c, 1, 69, 72
7, 449, Note_on_c, 1, 69, 0
7, 480, Note_on_c, 1, 69, 76
7, 719, Note_on_c, 1, 69, 0
7, 720, Note_on_c, 1, 69, 72
7, 929, Note_on_c, 1, 69, 0
7, 960, Note_on_c, 1, 69, 76
7, 1199, Note_on_c, 1, 69, 0
7, 1200, Note_on_c, 1, 69, 72
7, 1409, Note_on_c, 1, 69, 0
7, 1440, Note_on_c, 1, 69, 76
7, 1889, Note_on_c, 1, 69, 0
7, 1920, Note_on_c, 1, 78, 76
7, 2984, Note_on_c, 1, 78, 0
7, 3000, Note_on_c, 1, 76, 76
7, 3104, Note_on_c, 1, 76, 0
7, 3120, Note_on_c, 1, 74, 76
7, 3224, Note_on_c, 1, 74, 0
7, 3240, Note_on_c, 1, 76, 76
7, 3344, Note_on_c, 1, 76, 0
7, 3360, Note_on_c, 1, 74, 76
7, 3569, Note_on_c, 1, 74, 0
7, 3600, Note_on_c, 1, 69, 76
7, 3809, Note_on_c, 1, 69, 0
7, 3840, Note_on_c, 1, 69, 76
7, 4079, Note_on_c, 1, 69, 0
7, 4080, Note_on_c, 1, 69, 72
7, 4289, Note_on_c, 1, 69, 0
7, 4320, Note_on_c, 1, 69, 76
7, 4559, Note_on_c, 1, 69, 0
7, 4560, Note_on_c, 1, 69, 72
7, 4769, Note_on_c, 1, 69, 0
7, 4800, Note_on_c, 1, 69, 76
7, 5039, Note_on_c, 1, 69, 0
7, 5040, Note_on_c, 1, 69, 72
7, 5249, Note_on_c, 1, 69, 0
7, 5280, Note_on_c, 1, 69, 76
7, 5759, Note_on_c, 1, 69, 0
7, 9600, Note_on_c, 1, 69, 76
7, 9839, Note_on_c, 1, 69, 0
7, 9840, Note_on_c, 1, 69, 72
7, 10049, Note_on_c, 1, 69, 0
7, 10080, Note_on_c, 1, 69, 76
7, 10319, Note_on_c, 1, 69, 0
7, 10320, Note_on_c, 1, 69, 72
7, 10529, Note_on_c, 1, 69, 0
7, 10560, Note_on_c, 1, 69, 76
7, 10799, Note_on_c, 1, 69, 0
7, 10800, Note_on_c, 1, 69, 72
7, 11009, Note_on_c, 1, 69, 0
7, 11040, Note_on_c, 1, 69, 76
7, 11489, Note_on_c, 1, 69, 0
7, 11520, Note_on_c, 1, 78, 76
7, 12584, Note_on_c, 1, 78, 0
7, 12600, Note_on_c, 1, 76, 76
7, 12704, Note_on_c, 1, 76, 0
7, 12720, Note_on_c, 1, 74, 76
7, 12824, Note_on_c, 1, 74, 0
7, 12840, Note_on_c, 1, 76, 76
7, 12944, Note_on_c, 1, 76, 0
7, 12960, Note_on_c, 1, 74, 76
7, 13169, Note_on_c, 1, 74, 0
7, 13200, Note_on_c, 1, 69, 76
7, 13409, Note_on_c, 1, 69, 0
7, 13440, Note_on_c, 1, 69, 76
7, 13679, Note_on_c, 1, 69, 0
7, 13680, Note_on_c, 1, 69, 72
7, 13889, Note_on_c, 1, 69, 0
7, 13920, Note_on_c, 1, 69, 76
7, 14159, Note_on_c, 1, 69, 0
7, 14160, Note_on_c, 1, 69, 72
7, 14369, Note_on_c, 1, 69, 0
7, 14400, Note_on_c, 1, 69, 76
7, 14639, Note_on_c, 1, 69, 0
7, 14640, Note_on_c, 1, 69, 72
7, 14849, Note_on_c, 1, 69, 0
7, 14880, Note_on_c, 1, 69, 76
7, 15359, Note_on_c, 1, 69, 0
7, 19200, Note_on_c, 1, 69, 76
7, 19439, Note_on_c, 1, 69, 0
7, 19440, Note_on_c, 1, 69, 72
7, 19649, Note_on_c, 1, 69, 0
7, 19680, Note_on_c, 1, 69, 76
7, 19919, Note_on_c, 1, 69, 0
7, 19920, Note_on_c, 1, 69, 72
7, 20129, Note_on_c, 1, 69, 0
7, 20160, Note_on_c, 1, 69, 76
7, 20399, Note_on_c, 1, 69, 0
7, 20400, Note_on_c, 1, 69, 72
7, 20609, Note_on_c, 1, 69, 0
7, 20640, Note_on_c, 1, 69, 76
7, 21119, Note_on_c, 1, 69, 0
7, 26880, Note_on_c, 1, 62, 76
7, 27119, Note_on_c, 1, 62, 0
7, 27120, Note_on_c, 1, 62, 72
7, 27329, Note_on_c, 1, 62, 0
7, 27360, Note_on_c, 1, 62, 76
7, 27599, Note_on_c, 1, 62, 0
7, 27600, Note_on_c, 1, 62, 72
7, 27809, Note_on_c, 1, 62, 0
7, 27840, Note_on_c, 1, 62, 76
7, 28079, Note_on_c, 1, 62, 0
7, 28080, Note_on_c, 1, 62, 72
7, 28289, Note_on_c, 1, 62, 0
7, 28320, Note_on_c, 1, 62, 76
7, 28799, Note_on_c, 1, 62, 0
7, 34560, Note_on_c, 1, 74, 76
7, 34784, Note_on_c, 1, 74, 0
7, 34800, Note_on_c, 1, 78, 76
7, 35264, Note_on_c, 1, 78, 0
7, 35280, Note_on_c, 1, 76, 76
7, 35519, Note_on_c, 1, 76, 0
7, 36480, Note_on_c, 1, 78, 76
7, 37544, Note_on_c, 1, 78, 0
7, 37560, Note_on_c, 1, 76, 76
7, 37664, Note_on_c, 1, 76, 0
7, 37680, Note_on_c, 1, 74, 76
7, 37784, Note_on_c, 1, 74, 0
7, 37800, Note_on_c, 1, 69, 76
7, 37904, Note_on_c, 1, 69, 0
7, 37920, Note_on_c, 1, 66, 76
7, 38384, Note_on_c, 1, 66, 0
7, 38400, Note_on_c, 1, 69, 76
7, 38639, Note_on_c, 1, 69, 0
7, 38640, Note_on_c, 1, 69, 72
7, 38849, Note_on_c, 1, 69, 0
7, 38880, Note_on_c, 1, 69, 76
7, 39119, Note_on_c, 1, 69, 0
7, 39120, Note_on_c, 1, 69, 72
7, 39329, Note_on_c, 1, 69, 0
7, 39360, Note_on_c, 1, 69, 76
7, 39599, Note_on_c, 1, 69, 0
7, 39600, Note_on_c, 1, 69, 72
7, 39809, Note_on_c, 1, 69, 0
7, 39840, Note_on_c, 1, 69, 76
7, 40319, Note_on_c, 1, 69, 0
7, 46080, Note_on_c, 1, 62, 76
7, 46319, Note_on_c, 1, 62, 0
7, 46320, Note_on_c, 1, 62, 72
7, 46529, Note_on_c, 1, 62, 0
7, 46560, Note_on_c, 1, 62, 76
7, 46799, Note_on_c, 1, 62, 0
7, 46800, Note_on_c, 1, 62, 72
7, 47009, Note_on_c, 1, 62, 0
7, 47040, Note_on_c, 1, 62, 76
7, 47279, Note_on_c, 1, 62, 0
7, 47280, Note_on_c, 1, 62, 72
7, 47489, Note_on_c, 1, 62, 0
7, 47520, Note_on_c, 1, 62, 76
7, 47999, Note_on_c, 1, 62, 0
7, 53760, Note_on_c, 1, 74, 76
7, 53984, Note_on_c, 1, 74, 0
7, 54000, Note_on_c, 1, 78, 76
7, 54464, Note_on_c, 1, 78, 0
7, 54480, Note_on_c, 1, 76, 76
7, 54719, Note_on_c, 1, 76, 0
7, 55680, Note_on_c, 1, 78, 76
7, 56744, Note_on_c, 1, 78, 0
7, 56760, Note_on_c, 1, 76, 76
7, 56864, Note_on_c, 1, 76, 0
7, 56880, Note_on_c, 1, 74, 76
7, 56984, Note_on_c, 1, 74, 0
7, 57000, Note_on_c, 1, 69, 76
7, 57104, Note_on_c, 1, 69, 0
7, 57120, Note_on_c, 1, 66, 76
7, 57599, Note_on_c, 1, 66, 0
7, 57599, End_track
8, 0, Start_track
8, 0, Title_t, "Trumpet III in D"
8, 0, MIDI_port, 0
8, 0, Program_c, 2, 56
8, 0, Control_c, 2, 10, 74
8, 0, Control_c, 2, 11, 127
8, 0, Control_c, 2, 7, 96
8, 0, Note_on_c, 2, 69, 76
8, 239, Note_on_c, 2, 69, 0
8, 240, Note_on_c, 2, 69, 72
8, 449, Note_on_c, 2, 69, 0
8, 480, Note_on_c, 2, 69, 76
8, 719, Note_on_c, 2, 69, 0
8, 720, Note_on_c, 2, 69, 72
8, 929, Note_on_c, 2, 69, 0
8, 960, Note_on_c, 2, 69, 76
8, 1199, Note_on_c, 2, 69, 0
8, 1200, Note_on_c, 2, 69, 72
8, 1409, Note_on_c, 2, 69, 0
8, 1440, Note_on_c, 2, 69, 76
8, 1889, Note_on_c, 2, 69, 0
8, 1920, Note_on_c, 2, 74, 76
8, 3089, Note_on_c, 2, 74, 0
8, 3120, Note_on_c, 2, 69, 76
8, 3329, Note_on_c, 2, 69, 0
8, 3360, Note_on_c, 2, 69, 76
8, 3569, Note_on_c, 2, 69, 0
8, 3600, Note_on_c, 2, 66, 76
8, 3809, Note_on_c, 2, 66, 0
8, 3840, Note_on_c, 2, 69, 76
8, 4079, Note_on_c, 2, 69, 0
8, 4080, Note_on_c, 2, 69, 72
8, 4289, Note_on_c, 2, 69, 0
8, 4320, Note_on_c, 2, 69, 76
8, 4559, Note_on_c, 2, 69, 0
8, 4560, Note_on_c, 2, 69, 72
8, 4769, Note_on_c, 2, 69, 0
8, 4800, Note_on_c, 2, 69, 76
8, 5039, Note_on_c, 2, 69, 0
8, 5040, Note_on_c, 2, 69, 72
8, 5249, Note_on_c, 2, 69, 0
8, 5280, Note_on_c, 2, 69, 76
8, 5759, Note_on_c, 2, 69, 0
8, 9600, Note_on_c, 2, 69, 76
8, 9839, Note_on_c, 2, 69, 0
8, 9840, Note_on_c, 2, 69, 72
8, 10049, Note_on_c, 2, 69, 0
8, 10080, Note_on_c, 2, 69, 76
8, 10319, Note_on_c, 2, 69, 0
8, 10320, Note_on_c, 2, 69, 72
8, 10529, Note_on_c, 2, 69, 0
8, 10560, Note_on_c, 2, 69, 76
8, 10799, Note_on_c, 2, 69, 0
8, 10800, Note_on_c, 2, 69, 72
8, 11009, Note_on_c, 2, 69, 0
8, 11040, Note_on_c, 2, 69, 76
8, 11489, Note_on_c, 2, 69, 0
8, 11520, Note_on_c, 2, 74, 76
8, 12689, Note_on_c, 2, 74, 0
8, 12720, Note_on_c, 2, 69, 76
8, 12929, Note_on_c, 2, 69, 0
8, 12960, Note_on_c, 2, 69, 76
8, 13169, Note_on_c, 2, 69, 0
8, 13200, Note_on_c, 2, 66, 76
8, 13409, Note_on_c, 2, 66, 0
8, 13440, Note_on_c, 2, 69, 76
8, 13679, Note_on_c, 2, 69, 0
8, 13680, Note_on_c, 2, 69, 72
8, 13889, Note_on_c, 2, 69, 0
8, 13920, Note_on_c, 2, 69, 76
8, 14159, Note_on_c, 2, 69, 0
8, 14160, Note_on_c, 2, 69, 72
8, 14369, Note_on_c, 2, 69, 0
8, 14400, Note_on_c, 2, 69, 76
8, 14639, Note_on_c, 2, 69, 0
8, 14640, Note_on_c, 2, 69, 72
8, 14849, Note_on_c, 2, 69, 0
8, 14880, Note_on_c, 2, 69, 76
8, 15359, Note_on_c, 2, 69, 0
8, 19200, Note_on_c, 2, 69, 76
8, 19439, Note_on_c, 2, 69, 0
8, 19440, Note_on_c, 2, 69, 72
8, 19649, Note_on_c, 2, 69, 0
8, 19680, Note_on_c, 2, 69, 76
8, 19919, Note_on_c, 2, 69, 0
8, 19920, Note_on_c, 2, 69, 72
8, 20129, Note_on_c, 2, 69, 0
8, 20160, Note_on_c, 2, 69, 76
8, 20399, Note_on_c, 2, 69, 0
8, 20400, Note_on_c, 2, 69, 72
8, 20609, Note_on_c, 2, 69, 0
8, 20640, Note_on_c, 2, 69, 76
8, 21119, Note_on_c, 2, 69, 0
8, 26880, Note_on_c, 2, 62, 76
8, 27119, Note_on_c, 2, 62, 0
8, 27120, Note_on_c, 2, 62, 72
8, 27329, Note_on_c, 2, 62, 0
8, 27360, Note_on_c, 2, 62, 76
8, 27599, Note_on_c, 2, 62, 0
8, 27600, Note_on_c, 2, 62, 72
8, 27809, Note_on_c, 2, 62, 0
8, 27840, Note_on_c, 2, 62, 76
8, 28079, Note_on_c, 2, 62, 0
8, 28080, Note_on_c, 2, 62, 72
8, 28289, Note_on_c, 2, 62, 0
8, 28320, Note_on_c, 2, 62, 76
8, 28799, Note_on_c, 2, 62, 0
8, 34560, Note_on_c, 2, 69, 76
8, 34769, Note_on_c, 2, 69, 0
8, 34800, Note_on_c, 2, 69, 76
8, 35009, Note_on_c, 2, 69, 0
8, 35040, Note_on_c, 2, 69, 76
8, 35519, Note_on_c, 2, 69, 0
8, 36480, Note_on_c, 2, 74, 76
8, 37664, Note_on_c, 2, 74, 0
8, 37680, Note_on_c, 2, 69, 76
8, 37904, Note_on_c, 2, 69, 0
8, 37920, Note_on_c, 2, 69, 76
8, 38384, Note_on_c, 2, 69, 0
8, 38400, Note_on_c, 2, 69, 76
8, 38639, Note_on_c, 2, 69, 0
8, 38640, Note_on_c, 2, 69, 72
8, 38849, Note_on_c, 2, 69, 0
8, 38880, Note_on_c, 2, 69, 76
8, 39119, Note_on_c, 2, 69, 0
8, 39120, Note_on_c, 2, 69, 72
8, 39329, Note_on_c, 2, 69, 0
8, 39360, Note_on_c, 2, 69, 76
8, 39599, Note_on_c, 2, 69, 0
8, 39600, Note_on_c, 2, 69, 72
8, 39809, Note_on_c, 2, 69, 0
8, 39840, Note_on_c, 2, 69, 76
8, 40319, Note_on_c, 2, 69, 0
8, 46080, Note_on_c, 2, 62, 76
8, 46319, Note_on_c, 2, 62, 0
8, 46320, Note_on_c, 2, 62, 72
8, 46529, Note_on_c, 2, 62, 0
8, 46560, Note_on_c, 2, 62, 76
8, 46799, Note_on_c, 2, 62, 0
8, 46800, Note_on_c, 2, 62, 72
8, 47009, Note_on_c, 2, 62, 0
8, 47040, Note_on_c, 2, 62, 76
8, 47279, Note_on_c, 2, 62, 0
8, 47280, Note_on_c, 2, 62, 72
8, 47489, Note_on_c, 2, 62, 0
8, 47520, Note_on_c, 2, 62, 76
8, 47999, Note_on_c, 2, 62, 0
8, 53760, Note_on_c, 2, 69, 76
8, 53969, Note_on_c, 2, 69, 0
8, 54000, Note_on_c, 2, 69, 76
8, 54209, Note_on_c, 2, 69, 0
8, 54240, Note_on_c, 2, 69, 76
8, 54719, Note_on_c, 2, 69, 0
8, 55680, Note_on_c, 2, 74, 76
8, 56864, Note_on_c, 2, 74, 0
8, 56880, Note_on_c, 2, 69, 76
8, 57104, Note_on_c, 2, 69, 0
8, 57120, Note_on_c, 2, 69, 76
8, 57599, Note_on_c, 2, 69, 0
8, 57599, End_track
9, 0, Start_track
9, 0, Title_t, "Timpani in D and A"
9, 0, MIDI_port, 0
9, 0, Program_c, 3, 47
9, 0, Control_c, 3, 10, 25
9, 0, Control_c, 3, 11, 127
9, 0, Control_c, 3, 7, 96
9, 0, Note_on_c, 3, 50, 76
9, 239, Note_on_c, 3, 50, 0
9, 480, Note_on_c, 3, 45, 76
9, 719, Note_on_c, 3, 45, 0
9, 960, Note_on_c, 3, 50, 76
9, 1199, Note_on_c, 3, 50, 0
9, 1440, Note_on_c, 3, 45, 76
9, 1679, Note_on_c, 3, 45, 0
9, 1920, Note_on_c, 3, 50, 76
9, 2879, Note_on_c, 3, 50, 0
9, 2880, Note_on_c, 3, 45, 76
9, 3119, Note_on_c, 3, 45, 0
9, 3120, Note_on_c, 3, 45, 76
9, 3359, Note_on_c, 3, 45, 0
9, 3360, Note_on_c, 3, 50, 76
9, 3599, Note_on_c, 3, 50, 0
9, 3600, Note_on_c, 3, 50, 76
9, 3839, Note_on_c, 3, 50, 0
9, 3840, Note_on_c, 3, 50, 76
9, 4079, Note_on_c, 3, 50, 0
9, 4320, Note_on_c, 3, 45, 76
9, 4559, Note_on_c, 3, 45, 0
9, 4800, Note_on_c, 3, 50, 76
9, 5039, Note_on_c, 3, 50, 0
9, 5280, Note_on_c, 3, 45, 76
9, 5759, Note_on_c, 3, 45, 0
9, 9600, Note_on_c, 3, 50, 76
9, 9839, Note_on_c, 3, 50, 0
9, 10080, Note_on_c, 3, 45, 76
9, 10319, Note_on_c, 3, 45, 0
9, 10560, Note_on_c, 3, 50, 76
9, 10799, Note_on_c, 3, 50, 0
9, 11040, Note_on_c, 3, 45, 76
9, 11279, Note_on_c, 3, 45, 0
9, 11520, Note_on_c, 3, 50, 76
9, 12479, Note_on_c, 3, 50, 0
9, 12480, Note_on_c, 3, 45, 76
9, 12719, Note_on_c, 3, 45, 0
9, 12720, Note_on_c, 3, 45, 76
9, 12959, Note_on_c, 3, 45, 0
9, 12960, Note_on_c, 3, 50, 76
9, 13199, Note_on_c, 3, 50, 0
9, 13200, Note_on_c, 3, 50, 76
9, 13439, Note_on_c, 3, 50, 0
9, 13440, Note_on_c, 3, 50, 76
9, 13679, Note_on_c, 3, 50, 0
9, 13920, Note_on_c, 3, 45, 76
9, 14159, Note_on_c, 3, 45, 0
9, 14400, Note_on_c, 3, 50, 76
9, 14639, Note_on_c, 3, 50, 0
9, 14880, Note_on_c, 3, 45, 76
9, 15359, Note_on_c, 3, 45, 0
9, 19200, Note_on_c, 3, 45, 76
9, 19439, Note_on_c, 3, 45, 0
9, 19680, Note_on_c, 3, 45, 76
9, 19919, Note_on_c, 3, 45, 0
9, 20160, Note_on_c, 3, 45, 76
9, 20399, Note_on_c, 3, 45, 0
9, 20640, Note_on_c, 3, 50, 76
9, 21119, Note_on_c, 3, 50, 0
9, 34560, Note_on_c, 3, 45, 76
9, 34799, Note_on_c, 3, 45, 0
9, 34800, Note_on_c, 3, 45, 76
9, 35039, Note_on_c, 3, 45, 0
9, 35040, Note_on_c, 3, 45, 76
9, 35519, Note_on_c, 3, 45, 0
9, 36480, Note_on_c, 3, 50, 72
9, 36509, Note_on_c, 3, 50, 0
9, 36510, Note_on_c, 3, 50, 76
9, 36539, Note_on_c, 3, 50, 0
9, 36540, Note_on_c, 3, 50, 73
9, 36569, Note_on_c, 3, 50, 0
9, 36570, Note_on_c, 3, 50, 77
9, 36599, Note_on_c, 3, 50, 0
9, 36600, Note_on_c, 3, 50, 76
9, 36629, Note_on_c, 3, 50, 0
9, 36630, Note_on_c, 3, 50, 75
9, 36659, Note_on_c, 3, 50, 0
9, 36660, Note_on_c, 3, 50, 74
9, 36689, Note_on_c, 3, 50, 0
9, 36690, Note_on_c, 3, 50, 78
9, 36719, Note_on_c, 3, 50, 0
9, 36720, Note_on_c, 3, 50, 77
9, 36749, Note_on_c, 3, 50, 0
9, 36750, Note_on_c, 3, 50, 76
9, 36779, Note_on_c, 3, 50, 0
9, 36780, Note_on_c, 3, 50, 73
9, 36809, Note_on_c, 3, 50, 0
9, 36810, Note_on_c, 3, 50, 77
9, 36839, Note_on_c, 3, 50, 0
9, 36840, Note_on_c, 3, 50, 76
9, 36869, Note_on_c, 3, 50, 0
9, 36870, Note_on_c, 3, 50, 76
9, 36899, Note_on_c, 3, 50, 0
9, 36900, Note_on_c, 3, 50, 74
9, 36929, Note_on_c, 3, 50, 0
9, 36930, Note_on_c, 3, 50, 72
9, 36959, Note_on_c, 3, 50, 0
9, 36960, Note_on_c, 3, 50, 72
9, 36989, Note_on_c, 3, 50, 0
9, 36990, Note_on_c, 3, 50, 74
9, 37019, Note_on_c, 3, 50, 0
9, 37020, Note_on_c, 3, 50, 73
9, 37049, Note_on_c, 3, 50, 0
9, 37050, Note_on_c, 3, 50, 73
9, 37079, Note_on_c, 3, 50, 0
9, 37080, Note_on_c, 3, 50, 78
9, 37109, Note_on_c, 3, 50, 0
9, 37110, Note_on_c, 3, 50, 75
9, 37139, Note_on_c, 3, 50, 0
9, 37140, Note_on_c, 3, 50, 72
9, 37169, Note_on_c, 3, 50, 0
9, 37170, Note_on_c, 3, 50, 72
9, 37199, Note_on_c, 3, 50, 0
9, 37200, Note_on_c, 3, 50, 72
9, 37229, Note_on_c, 3, 50, 0
9, 37230, Note_on_c, 3, 50, 75
9, 37259, Note_on_c, 3, 50, 0
9, 37260, Note_on_c, 3, 50, 76
9, 37289, Note_on_c, 3, 50, 0
9, 37290, Note_on_c, 3, 50, 76
9, 37319, Note_on_c, 3, 50, 0
9, 37320, Note_on_c, 3, 50, 76
9, 37349, Note_on_c, 3, 50, 0
9, 37350, Note_on_c, 3, 50, 76
9, 37379, Note_on_c, 3, 50, 0
9, 37380, Note_on_c, 3, 50, 73
9, 37409, Note_on_c, 3, 50, 0
9, 37410, Note_on_c, 3, 50, 76
9, 37439, Note_on_c, 3, 50, 0
9, 37440, Note_on_c, 3, 45, 76
9, 37679, Note_on_c, 3, 45, 0
9, 37680, Note_on_c, 3, 45, 76
9, 37919, Note_on_c, 3, 45, 0
9, 37920, Note_on_c, 3, 50, 76
9, 38399, Note_on_c, 3, 50, 0
9, 38400, Note_on_c, 3, 45, 76
9, 38639, Note_on_c, 3, 45, 0
9, 38880, Note_on_c, 3, 45, 76
9, 39119, Note_on_c, 3, 45, 0
9, 39360, Note_on_c, 3, 45, 76
9, 39599, Note_on_c, 3, 45, 0
9, 39840, Note_on_c, 3, 50, 76
9, 40319, Note_on_c, 3, 50, 0
9, 53760, Note_on_c, 3, 45, 76
9, 53999, Note_on_c, 3, 45, 0
9, 54000, Note_on_c, 3, 45, 76
9, 54239, Note_on_c, 3, 45, 0
9, 54240, Note_on_c, 3, 45, 76
9, 54719, Note_on_c, 3, 45, 0
9, 55680, Note_on_c, 3, 50, 72
9, 55709, Note_on_c, 3, 50, 0
9, 55710, Note_on_c, 3, 50, 76
9, 55739, Note_on_c, 3, 50, 0
9, 55740, Note_on_c, 3, 50, 73
9, 55769, Note_on_c, 3, 50, 0
9, 55770, Note_on_c, 3, 50, 77
9, 55799, Note_on_c, 3, 50, 0
9, 55800, Note_on_c, 3, 50, 76
9, 55829, Note_on_c, 3, 50, 0
9, 55830, Note_on_c, 3, 50, 75
9, 55859, Note_on_c, 3, 50, 0
9, 55860, Note_on_c, 3, 50, 74
9, 55889, Note_on_c, 3, 50, 0
9, 55890, Note_on_c, 3, 50, 78
9, 55919, Note_on_c, 3, 50, 0
9, 55920, Note_on_c, 3, 50, 77
9, 55949, Note_on_c, 3, 50, 0
9, 55950, Note_on_c, 3, 50, 76
9, 55979, Note_on_c, 3, 50, 0
9, 55980, Note_on_c, 3, 50, 73
9, 56009, Note_on_c, 3, 50, 0
9, 56010, Note_on_c, 3, 50, 77
9, 56039, Note_on_c, 3, 50, 0
9, 56040, Note_on_c, 3, 50, 76
9, 56069, Note_on_c, 3, 50, 0
9, 56070, Note_on_c, 3, 50, 76
9, 56099, Note_on_c, 3, 50, 0
9, 56100, Note_on_c, 3, 50, 74
9, 56129, Note_on_c, 3, 50, 0
9, 56130, Note_on_c, 3, 50, 72
9, 56159, Note_on_c, 3, 50, 0
9, 56160, Note_on_c, 3, 50, 72
9, 56189, Note_on_c, 3, 50, 0
9, 56190, Note_on_c, 3, 50, 74
9, 56219, Note_on_c, 3, 50, 0
9, 56220, Note_on_c, 3, 50, 73
9, 56249, Note_on_c, 3, 50, 0
9, 56250, Note_on_c, 3, 50, 73
9, 56279, Note_on_c, 3, 50, 0
9, 56280, Note_on_c, 3, 50, 78
9, 56309, Note_on_c, 3, 50, 0
9, 56310, Note_on_c, 3, 50, 75
9, 56339, Note_on_c, 3, 50, 0
9, 56340, Note_on_c, 3, 50, 72
9, 56369, Note_on_c, 3, 50, 0
9, 56370, Note_on_c, 3, 50, 72
9, 56399, Note_on_c, 3, 50, 0
9, 56400, Note_on_c, 3, 50, 72
9, 56429, Note_on_c, 3, 50, 0
9, 56430, Note_on_c, 3, 50, 75
9, 56459, Note_on_c, 3, 50, 0
9, 56460, Note_on_c, 3, 50, 76
9, 56489, Note_on_c, 3, 50, 0
9, 56490, Note_on_c, 3, 50, 76
9, 56519, Note_on_c, 3, 50, 0
9, 56520, Note_on_c, 3, 50, 76
9, 56549, Note_on_c, 3, 50, 0
9, 56550, Note_on_c, 3, 50, 76
9, 56579, Note_on_c, 3, 50, 0
9, 56580, Note_on_c, 3, 50, 73
9, 56609, Note_on_c, 3, 50, 0
9, 56610, Note_on_c, 3, 50, 76
9, 56639, Note_on_c, 3, 50, 0
9, 56640, Note_on_c, 3, 45, 76
9, 56879, Note_on_c, 3, 45, 0
9, 56880, Note_on_c, 3, 45, 76
9, 57119, Note_on_c, 3, 45, 0
9, 57120, Note_on_c, 3, 50, 76
9, 57599, Note_on_c, 3, 50, 0
9, 57599, End_track
10, 0, Start_track
10, 0, Title_t, "Oboe I"
10, 0, MIDI_port, 0
10, 0, Program_c, 4, 68
10, 0, Control_c, 4, 10, 59
10, 0, Control_c, 4, 11, 127
10, 0, Control_c, 4, 7, 80
10, 0, Note_on_c, 4, 69, 76
10, 224, Note_on_c, 4, 69, 0
10, 240, Note_on_c, 4, 74, 76
10, 704, Note_on_c, 4, 74, 0
10, 720, Note_on_c, 4, 73, 76
10, 824, Note_on_c, 4, 73, 0
10, 840, Note_on_c, 4, 71, 76
10, 944, Note_on_c, 4, 71, 0
10, 960, Note_on_c, 4, 69, 76
10, 1064, Note_on_c, 4, 69, 0
10, 1080, Note_on_c, 4, 74, 76
10, 1184, Note_on_c, 4, 74, 0
10, 1200, Note_on_c, 4, 78, 76
10, 1664, Note_on_c, 4, 78, 0
10, 1680, Note_on_c, 4, 76, 76
10, 1904, Note_on_c, 4, 76, 0
10, 1920, Note_on_c, 4, 81, 76
10, 2099, Note_on_c, 4, 81, 0
10, 2400, Note_on_c, 4, 81, 76
10, 2579, Note_on_c, 4, 81, 0
10, 2760, Note_on_c, 4, 83, 76
10, 2864, Note_on_c, 4, 83, 0
10, 2880, Note_on_c, 4, 81, 76
10, 2984, Note_on_c, 4, 81, 0
10, 3000, Note_on_c, 4, 79, 76
10, 3104, Note_on_c, 4, 79, 0
10, 3120, Note_on_c, 4, 78, 76
10, 3224, Note_on_c, 4, 78, 0
10, 3240, Note_on_c, 4, 76, 76
10, 3344, Note_on_c, 4, 76, 0
10, 3360, Note_on_c, 4, 78, 76
10, 3584, Note_on_c, 4, 78, 0
10, 3600, Note_on_c, 4, 74, 76
10, 3824, Note_on_c, 4, 74, 0
10, 3840, Note_on_c, 4, 69, 76
10, 4064, Note_on_c, 4, 69, 0
10, 4080, Note_on_c, 4, 74, 76
10, 4544, Note_on_c, 4, 74, 0
10, 4560, Note_on_c, 4, 73, 76
10, 4664, Note_on_c, 4, 73, 0
10, 4680, Note_on_c, 4, 71, 76
10, 4784, Note_on_c, 4, 71, 0
10, 4800, Note_on_c, 4, 69, 76
10, 4904, Note_on_c, 4, 69, 0
10, 4920, Note_on_c, 4, 74, 76
10, 5024, Note_on_c, 4, 74, 0
10, 5040, Note_on_c, 4, 78, 76
10, 5504, Note_on_c, 4, 78, 0
10, 5520, Note_on_c, 4, 76, 76
10, 5744, Note_on_c, 4, 76, 0
10, 5760, Note_on_c, 4, 80, 76
10, 5879, Note_on_c, 4, 80, 0
10, 5880, Note_on_c, 4, 81, 76
10, 5999, Note_on_c, 4, 81, 0
10, 6000, Note_on_c, 4, 83, 76
10, 6239, Note_on_c, 4, 83, 0
10, 6720, Note_on_c, 4, 80, 76
10, 6839, Note_on_c, 4, 80, 0
10, 6840, Note_on_c, 4, 81, 76
10, 6959, Note_on_c, 4, 81, 0
10, 6960, Note_on_c, 4, 83, 76
10, 7199, Note_on_c, 4, 83, 0
10, 7920, Note_on_c, 4, 76, 76
10, 8099, Note_on_c, 4, 76, 0
10, 8400, Note_on_c, 4, 76, 76
10, 8579, Note_on_c, 4, 76, 0
10, 8760, Note_on_c, 4, 74, 76
10, 8864, Note_on_c, 4, 74, 0
10, 8880, Note_on_c, 4, 73, 76
10, 8984, Note_on_c, 4, 73, 0
10, 9000, Note_on_c, 4, 71, 76
10, 9071, Note_on_c, 4, 71, 0
10, 9080, Note_on_c, 4, 71, 76
10, 9119, Note_on_c, 4, 71, 0
10, 9120, Note_on_c, 4, 69, 76
10, 9584, Note_on_c, 4, 69, 0
10, 9600, Note_on_c, 4, 69, 76
10, 9824, Note_on_c, 4, 69, 0
10, 9840, Note_on_c, 4, 74, 76
10, 10304, Note_on_c, 4, 74, 0
10, 10320, Note_on_c, 4, 73, 76
10, 10424, Note_on_c, 4, 73, 0
10, 10440, Note_on_c, 4, 71, 76
10, 10544, Note_on_c, 4, 71, 0
10, 10560, Note_on_c, 4, 69, 76
10, 10664, Note_on_c, 4, 69, 0
10, 10680, Note_on_c, 4, 74, 76
10, 10784, Note_on_c, 4, 74, 0
10, 10800, Note_on_c, 4, 78, 76
10, 11264, Note_on_c, 4, 78, 0
10, 11280, Note_on_c, 4, 76, 76
10, 11504, Note_on_c, 4, 76, 0
10, 11520, Note_on_c, 4, 81, 76
10, 11699, Note_on_c, 4, 81, 0
10, 12000, Note_on_c, 4, 81, 76
10, 12179, Note_on_c, 4, 81, 0
10, 12360, Note_on_c, 4, 83, 76
10, 12464, Note_on_c, 4, 83, 0
10, 12480, Note_on_c, 4, 81, 76
10, 12584, Note_on_c, 4, 81, 0
10, 12600, Note_on_c, 4, 79, 76
10, 12704, Note_on_c, 4, 79, 0
10, 12720, Note_on_c, 4, 78, 76
10, 12824, Note_on_c, 4, 78, 0
10, 12840, Note_on_c, 4, 76, 76
10, 12944, Note_on_c, 4, 76, 0
10, 12960, Note_on_c, 4, 78, 76
10, 13184, Note_on_c, 4, 78, 0
10, 13200, Note_on_c, 4, 74, 76
10, 13424, Note_on_c, 4, 74, 0
10, 13440, Note_on_c, 4, 69, 76
10, 13664, Note_on_c, 4, 69, 0
10, 13680, Note_on_c, 4, 74, 76
10, 14144, Note_on_c, 4, 74, 0
10, 14160, Note_on_c, 4, 73, 76
10, 14264, Note_on_c, 4, 73, 0
10, 14280, Note_on_c, 4, 71, 76
10, 14384, Note_on_c, 4, 71, 0
10, 14400, Note_on_c, 4, 69, 76
10, 14504, Note_on_c, 4, 69, 0
10, 14520, Note_on_c, 4, 74, 76
10, 14624, Note_on_c, 4, 74, 0
10, 14640, Note_on_c, 4, 78, 76
10, 15104, Note_on_c, 4, 78, 0
10, 15120, Note_on_c, 4, 76, 76
10, 15344, Note_on_c, 4, 76, 0
10, 15360, Note_on_c, 4, 80, 76
10, 15479, Note_on_c, 4, 80, 0
10, 15480, Note_on_c, 4, 81, 76
10, 15599, Note_on_c, 4, 81, 0
10, 15600, Note_on_c, 4, 83, 76
10, 15839, Note_on_c, 4, 83, 0
10, 16320, Note_on_c, 4, 80, 76
10, 16439, Note_on_c, 4, 80, 0
10, 16440, Note_on_c, 4, 81, 76
10, 16559, Note_on_c, 4, 81, 0
10, 16560, Note_on_c, 4, 83, 76
10, 16799, Note_on_c, 4, 83, 0
10, 17520, Note_on_c, 4, 76, 76
10, 17699, Note_on_c, 4, 76, 0
10, 18000, Note_on_c, 4, 76, 76
10, 18179, Note_on_c, 4, 76, 0
10, 18360, Note_on_c, 4, 74, 76
10, 18464, Note_on_c, 4, 74, 0
10, 18480, Note_on_c, 4, 73, 76
10, 18584, Note_on_c, 4, 73, 0
10, 18600, Note_on_c, 4, 71, 76
10, 18671, Note_on_c, 4, 71, 0
10, 18680, Note_on_c, 4, 71, 76
10, 18719, Note_on_c, 4, 71, 0
10, 18720, Note_on_c, 4, 69, 76
10, 19184, Note_on_c, 4, 69, 0
10, 19200, Note_on_c, 4, 69, 76
10, 19424, Note_on_c, 4, 69, 0
10, 19440, Note_on_c, 4, 76, 76
10, 19904, Note_on_c, 4, 76, 0
10, 19920, Note_on_c, 4, 78, 76
10, 20024, Note_on_c, 4, 78, 0
10, 20040, Note_on_c, 4, 76, 76
10, 20144, Note_on_c, 4, 76, 0
10, 20160, Note_on_c, 4, 74, 76
10, 20264, Note_on_c, 4, 74, 0
10, 20280, Note_on_c, 4, 73, 76
10, 20384, Note_on_c, 4, 73, 0
10, 20400, Note_on_c, 4, 79, 76
10, 20864, Note_on_c, 4, 79, 0
10, 20880, Note_on_c, 4, 78, 76
10, 21104, Note_on_c, 4, 78, 0
10, 21120, Note_on_c, 4, 76, 76
10, 21299, Note_on_c, 4, 76, 0
10, 21600, Note_on_c, 4, 76, 76
10, 21779, Note_on_c, 4, 76, 0
10, 21960, Note_on_c, 4, 73, 76
10, 22064, Note_on_c, 4, 73, 0
10, 22080, Note_on_c, 4, 74, 76
10, 22184, Note_on_c, 4, 74, 0
10, 22200, Note_on_c, 4, 76, 76
10, 22304, Note_on_c, 4, 76, 0
10, 22320, Note_on_c, 4, 78, 76
10, 22424, Note_on_c, 4, 78, 0
10, 22440, Note_on_c, 4, 79, 76
10, 22544, Note_on_c, 4, 79, 0
10, 22560, Note_on_c, 4, 73, 76
10, 22784, Note_on_c, 4, 73, 0
10, 22800, Note_on_c, 4, 66, 76
10, 23024, Note_on_c, 4, 66, 0
10, 23040, Note_on_c, 4, 78, 76
10, 23264, Note_on_c, 4, 78, 0
10, 23280, Note_on_c, 4, 83, 76
10, 23744, Note_on_c, 4, 83, 0
10, 23760, Note_on_c, 4, 75, 76
10, 23864, Note_on_c, 4, 75, 0
10, 23880, Note_on_c, 4, 76, 76
10, 23984, Note_on_c, 4, 76, 0
10, 24000, Note_on_c, 4, 78, 76
10, 24104, Note_on_c, 4, 78, 0
10, 24120, Note_on_c, 4, 71, 76
10, 24224, Note_on_c, 4, 71, 0
10, 24240, Note_on_c, 4, 81, 76
10, 24704, Note_on_c, 4, 81, 0
10, 24720, Note_on_c, 4, 79, 76
10, 24824, Note_on_c, 4, 79, 0
10, 24840, Note_on_c, 4, 78, 76
10, 24944, Note_on_c, 4, 78, 0
10, 24960, Note_on_c, 4, 76, 76
10, 25064, Note_on_c, 4, 76, 0
10, 25080, Note_on_c, 4, 73, 76
10, 25184, Note_on_c, 4, 73, 0
10, 25200, Note_on_c, 4, 82, 76
10, 25664, Note_on_c, 4, 82, 0
10, 25680, Note_on_c, 4, 83, 76
10, 25904, Note_on_c, 4, 83, 0
10, 25920, Note_on_c, 4, 74, 76
10, 26144, Note_on_c, 4, 74, 0
10, 26160, Note_on_c, 4, 73, 76
10, 26264, Note_on_c, 4, 73, 0
10, 26280, Note_on_c, 4, 71, 76
10, 26384, Note_on_c, 4, 71, 0
10, 26400, Note_on_c, 4, 71, 76
10, 26864, Note_on_c, 4, 71, 0
10, 26880, Note_on_c, 4, 78, 76
10, 26999, Note_on_c, 4, 78, 0
10, 27000, Note_on_c, 4, 79, 76
10, 27119, Note_on_c, 4, 79, 0
10, 27120, Note_on_c, 4, 81, 76
10, 27359, Note_on_c, 4, 81, 0
10, 27840, Note_on_c, 4, 78, 76
10, 27959, Note_on_c, 4, 78, 0
10, 27960, Note_on_c, 4, 79, 76
10, 28079, Note_on_c, 4, 79, 0
10, 28080, Note_on_c, 4, 81, 76
10, 28319, Note_on_c, 4, 81, 0
10, 28800, Note_on_c, 4, 67, 76
10, 29024, Note_on_c, 4, 67, 0
10, 29040, Note_on_c, 4, 79, 76
10, 29504, Note_on_c, 4, 79, 0
10, 29520, Note_on_c, 4, 78, 76
10, 29624, Note_on_c, 4, 78, 0
10, 29640, Note_on_c, 4, 76, 76
10, 29744, Note_on_c, 4, 76, 0
10, 29760, Note_on_c, 4, 78, 76
10, 29864, Note_on_c, 4, 78, 0
10, 29880, Note_on_c, 4, 74, 76
10, 29984, Note_on_c, 4, 74, 0
10, 30000, Note_on_c, 4, 76, 76
10, 30191, Note_on_c, 4, 76, 0
10, 30200, Note_on_c, 4, 74, 76
10, 30239, Note_on_c, 4, 74, 0
10, 30240, Note_on_c, 4, 73, 76
10, 30431, Note_on_c, 4, 73, 0
10, 30440, Note_on_c, 4, 71, 76
10, 30479, Note_on_c, 4, 71, 0
10, 30480, Note_on_c, 4, 69, 76
10, 30719, Note_on_c, 4, 69, 0
10, 30720, Note_on_c, 4, 74, 76
10, 30899, Note_on_c, 4, 74, 0
10, 31200, Note_on_c, 4, 74, 76
10, 31379, Note_on_c, 4, 74, 0
10, 31920, Note_on_c, 4, 76, 76
10, 32099, Note_on_c, 4, 76, 0
10, 32280, Note_on_c, 4, 73, 76
10, 32384, Note_on_c, 4, 73, 0
10, 32400, Note_on_c, 4, 69, 76
10, 32504, Note_on_c, 4, 69, 0
10, 32520, Note_on_c, 4, 73, 76
10, 32624, Note_on_c, 4, 73, 0
10, 32640, Note_on_c, 4, 78, 76
10, 32819, Note_on_c, 4, 78, 0
10, 33120, Note_on_c, 4, 78, 76
10, 33299, Note_on_c, 4, 78, 0
10, 33840, Note_on_c, 4, 79, 76
10, 34019, Note_on_c, 4, 79, 0
10, 34080, Note_on_c, 4, 69, 76
10, 34544, Note_on_c, 4, 69, 0
10, 34560, Note_on_c, 4, 74, 76
10, 34664, Note_on_c, 4, 74, 0
10, 34680, Note_on_c, 4, 81, 76
10, 34784, Note_on_c, 4, 81, 0
10, 34800, Note_on_c, 4, 86, 76
10, 35264, Note_on_c, 4, 86, 0
10, 35280, Note_on_c, 4, 85, 76
10, 35504, Note_on_c, 4, 85, 0
10, 35520, Note_on_c, 4, 74, 76
10, 35624, Note_on_c, 4, 74, 0
10, 35640, Note_on_c, 4, 80, 76
10, 35744, Note_on_c, 4, 80, 0
10, 35760, Note_on_c, 4, 83, 76
10, 36224, Note_on_c, 4, 83, 0
10, 36240, Note_on_c, 4, 81, 76
10, 36464, Note_on_c, 4, 81, 0
10, 36480, Note_on_c, 4, 74, 76
10, 37544, Note_on_c, 4, 74, 0
10, 37560, Note_on_c, 4, 71, 76
10, 37664, Note_on_c, 4, 71, 0
10, 37680, Note_on_c, 4, 73, 76
10, 37871, Note_on_c, 4, 73, 0
10, 37880, Note_on_c, 4, 73, 76
10, 37919, Note_on_c, 4, 73, 0
10, 37920, Note_on_c, 4, 74, 76
10, 38384, Note_on_c, 4, 74, 0
10, 38400, Note_on_c, 4, 69, 76
10, 38624, Note_on_c, 4, 69, 0
10, 38640, Note_on_c, 4, 76, 76
10, 39104, Note_on_c, 4, 76, 0
10, 39120, Note_on_c, 4, 78, 76
10, 39224, Note_on_c, 4, 78, 0
10, 39240, Note_on_c, 4, 76, 76
10, 39344, Note_on_c, 4, 76, 0
10, 39360, Note_on_c, 4, 74, 76
10, 39464, Note_on_c, 4, 74, 0
10, 39480, Note_on_c, 4, 73, 76
10, 39584, Note_on_c, 4, 73, 0
10, 39600, Note_on_c, 4, 79, 76
10, 40064, Note_on_c, 4, 79, 0
10, 40080, Note_on_c, 4, 78, 76
10, 40304, Note_on_c, 4, 78, 0
10, 40320, Note_on_c, 4, 76, 76
10, 40499, Note_on_c, 4, 76, 0
10, 40800, Note_on_c, 4, 76, 76
10, 40979, Note_on_c, 4, 76, 0
10, 41160, Note_on_c, 4, 73, 76
10, 41264, Note_on_c, 4, 73, 0
10, 41280, Note_on_c, 4, 74, 76
10, 41384, Note_on_c, 4, 74, 0
10, 41400, Note_on_c, 4, 76, 76
10, 41504, Note_on_c, 4, 76, 0
10, 41520, Note_on_c, 4, 78, 76
10, 41624, Note_on_c, 4, 78, 0
10, 41640, Note_on_c, 4, 79, 76
10, 41744, Note_on_c, 4, 79, 0
10, 41760, Note_on_c, 4, 73, 76
10, 41984, Note_on_c, 4, 73, 0
10, 42000, Note_on_c, 4, 66, 76
10, 42224, Note_on_c, 4, 66, 0
10, 42240, Note_on_c, 4, 78, 76
10, 42464, Note_on_c, 4, 78, 0
10, 42480, Note_on_c, 4, 83, 76
10, 42944, Note_on_c, 4, 83, 0
10, 42960, Note_on_c, 4, 75, 76
10, 43064, Note_on_c, 4, 75, 0
10, 43080, Note_on_c, 4, 76, 76
10, 43184, Note_on_c, 4, 76, 0
10, 43200, Note_on_c, 4, 78, 76
10, 43304, Note_on_c, 4, 78, 0
10, 43320, Note_on_c, 4, 71, 76
10, 43424, Note_on_c, 4, 71, 0
10, 43440, Note_on_c, 4, 81, 76
10, 43904, Note_on_c, 4, 81, 0
10, 43920, Note_on_c, 4, 79, 76
10, 44024, Note_on_c, 4, 79, 0
10, 44040, Note_on_c, 4, 78, 76
10, 44144, Note_on_c, 4, 78, 0
10, 44160, Note_on_c, 4, 76, 76
10, 44264, Note_on_c, 4, 76, 0
10, 44280, Note_on_c, 4, 73, 76
10, 44384, Note_on_c, 4, 73, 0
10, 44400, Note_on_c, 4, 82, 76
10, 44864, Note_on_c, 4, 82, 0
10, 44880, Note_on_c, 4, 83, 76
10, 45104, Note_on_c, 4, 83, 0
10, 45120, Note_on_c, 4, 74, 76
10, 45344, Note_on_c, 4, 74, 0
10, 45360, Note_on_c, 4, 73, 76
10, 45464, Note_on_c, 4, 73, 0
10, 45480, Note_on_c, 4, 71, 76
10, 45584, Note_on_c, 4, 71, 0
10, 45600, Note_on_c, 4, 71, 76
10, 46064, Note_on_c, 4, 71, 0
10, 46080, Note_on_c, 4, 78, 76
10, 46199, Note_on_c, 4, 78, 0
10, 46200, Note_on_c, 4, 79, 76
10, 46319, Note_on_c, 4, 79, 0
10, 46320, Note_on_c, 4, 81, 76
10, 46559, Note_on_c, 4, 81, 0
10, 47040, Note_on_c, 4, 78, 76
10, 47159, Note_on_c, 4, 78, 0
10, 47160, Note_on_c, 4, 79, 76
10, 47279, Note_on_c, 4, 79, 0
10, 47280, Note_on_c, 4, 81, 76
10, 47519, Note_on_c, 4, 81, 0
10, 48000, Note_on_c, 4, 67, 76
10, 48224, Note_on_c, 4, 67, 0
10, 48240, Note_on_c, 4, 79, 76
10, 48704, Note_on_c, 4, 79, 0
10, 48720, Note_on_c, 4, 78, 76
10, 48824, Note_on_c, 4, 78, 0
10, 48840, Note_on_c, 4, 76, 76
10, 48944, Note_on_c, 4, 76, 0
10, 48960, Note_on_c, 4, 78, 76
10, 49064, Note_on_c, 4, 78, 0
10, 49080, Note_on_c, 4, 74, 76
10, 49184, Note_on_c, 4, 74, 0
10, 49200, Note_on_c, 4, 76, 76
10, 49391, Note_on_c, 4, 76, 0
10, 49400, Note_on_c, 4, 74, 76
10, 49439, Note_on_c, 4, 74, 0
10, 49440, Note_on_c, 4, 73, 76
10, 49631, Note_on_c, 4, 73, 0
10, 49640, Note_on_c, 4, 71, 76
10, 49679, Note_on_c, 4, 71, 0
10, 49680, Note_on_c, 4, 69, 76
10, 49919, Note_on_c, 4, 69, 0
10, 49920, Note_on_c, 4, 74, 76
10, 50099, Note_on_c, 4, 74, 0
10, 50400, Note_on_c, 4, 74, 76
10, 50579, Note_on_c, 4, 74, 0
10, 51120, Note_on_c, 4, 76, 76
10, 51299, Note_on_c, 4, 76, 0
10, 51480, Note_on_c, 4, 73, 76
10, 51584, Note_on_c, 4, 73, 0
10, 51600, Note_on_c, 4, 69, 76
10, 51704, Note_on_c, 4, 69, 0
10, 51720, Note_on_c, 4, 73, 76
10, 51824, Note_on_c, 4, 73, 0
10, 51840, Note_on_c, 4, 78, 76
10, 52019, Note_on_c, 4, 78, 0
10, 52320, Note_on_c, 4, 78, 76
10, 52499, Note_on_c, 4, 78, 0
10, 53040, Note_on_c, 4, 79, 76
10, 53219, Note_on_c, 4, 79, 0
10, 53280, Note_on_c, 4, 69, 76
10, 53744, Note_on_c, 4, 69, 0
10, 53760, Note_on_c, 4, 74, 76
10, 53864, Note_on_c, 4, 74, 0
10, 53880, Note_on_c, 4, 81, 76
10, 53984, Note_on_c, 4, 81, 0
10, 54000, Note_on_c, 4, 86, 76
10, 54464, Note_on_c, 4, 86, 0
10, 54480, Note_on_c, 4, 85, 76
10, 54704, Note_on_c, 4, 85, 0
10, 54720, Note_on_c, 4, 74, 76
10, 54824, Note_on_c, 4, 74, 0
10, 54840, Note_on_c, 4, 80, 76
10, 54944, Note_on_c, 4, 80, 0
10, 54960, Note_on_c, 4, 83, 76
10, 55424, Note_on_c, 4, 83, 0
10, 55440, Note_on_c, 4, 81, 76
10, 55664, Note_on_c, 4, 81, 0
10, 55680, Note_on_c, 4, 74, 76
10, 56744, Note_on_c, 4, 74, 0
10, 56760, Note_on_c, 4, 71, 76
10, 56864, Note_on_c, 4, 71, 0
10, 56880, Note_on_c, 4, 73, 76
10, 57071, Note_on_c, 4, 73, 0
10, 57080, Note_on_c, 4, 73, 76
10, 57119, Note_on_c, 4, 73, 0
10, 57120, Note_on_c, 4, 74, 76
10, 57599, Note_on_c, 4, 74, 0
10, 57599, End_track
11, 0, Start_track
11, 0, Title_t, "Oboe II"
11, 0, MIDI_port, 0
11, 0, Program_c, 5, 68
11, 0, Control_c, 5, 10, 64
11, 0, Control_c, 5, 11, 127
11, 0, Control_c, 5, 7, 80
11, 0, Note_on_c, 5, 66, 76
11, 224, Note_on_c, 5, 66, 0
11, 240, Note_on_c, 5, 66, 76
11, 464, Note_on_c, 5, 66, 0
11, 480, Note_on_c, 5, 64, 76
11, 944, Note_on_c, 5, 64, 0
11, 960, Note_on_c, 5, 66, 76
11, 1064, Note_on_c, 5, 66, 0
11, 1080, Note_on_c, 5, 69, 76
11, 1184, Note_on_c, 5, 69, 0
11, 1200, Note_on_c, 5, 74, 76
11, 1664, Note_on_c, 5, 74, 0
11, 1680, Note_on_c, 5, 73, 76
11, 1904, Note_on_c, 5, 73, 0
11, 1920, Note_on_c, 5, 78, 76
11, 2099, Note_on_c, 5, 78, 0
11, 2400, Note_on_c, 5, 78, 76
11, 2579, Note_on_c, 5, 78, 0
11, 2760, Note_on_c, 5, 79, 76
11, 2864, Note_on_c, 5, 79, 0
11, 2880, Note_on_c, 5, 78, 76
11, 2984, Note_on_c, 5, 78, 0
11, 3000, Note_on_c, 5, 76, 76
11, 3104, Note_on_c, 5, 76, 0
11, 3120, Note_on_c, 5, 74, 76
11, 3224, Note_on_c, 5, 74, 0
11, 3240, Note_on_c, 5, 73, 76
11, 3344, Note_on_c, 5, 73, 0
11, 3360, Note_on_c, 5, 74, 76
11, 3584, Note_on_c, 5, 74, 0
11, 3600, Note_on_c, 5, 69, 76
11, 3824, Note_on_c, 5, 69, 0
11, 3840, Note_on_c, 5, 66, 76
11, 4064, Note_on_c, 5, 66, 0
11, 4080, Note_on_c, 5, 66, 76
11, 4304, Note_on_c, 5, 66, 0
11, 4320, Note_on_c, 5, 64, 76
11, 4784, Note_on_c, 5, 64, 0
11, 4800, Note_on_c, 5, 66, 76
11, 4904, Note_on_c, 5, 66, 0
11, 4920, Note_on_c, 5, 69, 76
11, 5024, Note_on_c, 5, 69, 0
11, 5040, Note_on_c, 5, 74, 76
11, 5504, Note_on_c, 5, 74, 0
11, 5520, Note_on_c, 5, 73, 76
11, 5744, Note_on_c, 5, 73, 0
11, 5760, Note_on_c, 5, 74, 76
11, 5879, Note_on_c, 5, 74, 0
11, 5880, Note_on_c, 5, 73, 76
11, 5999, Note_on_c, 5, 73, 0
11, 6000, Note_on_c, 5, 71, 76
11, 6119, Note_on_c, 5, 71, 0
11, 6120, Note_on_c, 5, 73, 76
11, 6224, Note_on_c, 5, 73, 0
11, 6240, Note_on_c, 5, 74, 76
11, 6839, Note_on_c, 5, 74, 0
11, 6840, Note_on_c, 5, 73, 76
11, 6959, Note_on_c, 5, 73, 0
11, 6960, Note_on_c, 5, 71, 76
11, 7079, Note_on_c, 5, 71, 0
11, 7080, Note_on_c, 5, 73, 76
11, 7184, Note_on_c, 5, 73, 0
11, 7200, Note_on_c, 5, 74, 76
11, 7679, Note_on_c, 5, 74, 0
11, 7920, Note_on_c, 5, 73, 76
11, 8099, Note_on_c, 5, 73, 0
11, 8400, Note_on_c, 5, 73, 76
11, 8579, Note_on_c, 5, 73, 0
11, 8760, Note_on_c, 5, 71, 76
11, 8864, Note_on_c, 5, 71, 0
11, 8880, Note_on_c, 5, 69, 76
11, 8984, Note_on_c, 5, 69, 0
11, 9000, Note_on_c, 5, 68, 76
11, 9104, Note_on_c, 5, 68, 0
11, 9120, Note_on_c, 5, 69, 76
11, 9584, Note_on_c, 5, 69, 0
11, 9600, Note_on_c, 5, 66, 76
11, 9824, Note_on_c, 5, 66, 0
11, 9840, Note_on_c, 5, 66, 76
11, 10064, Note_on_c, 5, 66, 0
11, 10080, Note_on_c, 5, 64, 76
11, 10544, Note_on_c, 5, 64, 0
11, 10560, Note_on_c, 5, 66, 76
11, 10664, Note_on_c, 5, 66, 0
11, 10680, Note_on_c, 5, 69, 76
11, 10784, Note_on_c, 5, 69, 0
11, 10800, Note_on_c, 5, 74, 76
11, 11264, Note_on_c, 5, 74, 0
11, 11280, Note_on_c, 5, 73, 76
11, 11504, Note_on_c, 5, 73, 0
11, 11520, Note_on_c, 5, 78, 76
11, 11699, Note_on_c, 5, 78, 0
11, 12000, Note_on_c, 5, 78, 76
11, 12179, Note_on_c, 5, 78, 0
11, 12360, Note_on_c, 5, 79, 76
11, 12464, Note_on_c, 5, 79, 0
11, 12480, Note_on_c, 5, 78, 76
11, 12584, Note_on_c, 5, 78, 0
11, 12600, Note_on_c, 5, 76, 76
11, 12704, Note_on_c, 5, 76, 0
11, 12720, Note_on_c, 5, 74, 76
11, 12824, Note_on_c, 5, 74, 0
11, 12840, Note_on_c, 5, 73, 76
11, 12944, Note_on_c, 5, 73, 0
11, 12960, Note_on_c, 5, 74, 76
11, 13184, Note_on_c, 5, 74, 0
11, 13200, Note_on_c, 5, 69, 76
11, 13424, Note_on_c, 5, 69, 0
11, 13440, Note_on_c, 5, 66, 76
11, 13664, Note_on_c, 5, 66, 0
11, 13680, Note_on_c, 5, 66, 76
11, 13904, Note_on_c, 5, 66, 0
11, 13920, Note_on_c, 5, 64, 76
11, 14384, Note_on_c, 5, 64, 0
11, 14400, Note_on_c, 5, 66, 76
11, 14504, Note_on_c, 5, 66, 0
11, 14520, Note_on_c, 5, 69, 76
11, 14624, Note_on_c, 5, 69, 0
11, 14640, Note_on_c, 5, 74, 76
11, 15104, Note_on_c, 5, 74, 0
11, 15120, Note_on_c, 5, 73, 76
11, 15344, Note_on_c, 5, 73, 0
11, 15360, Note_on_c, 5, 74, 76
11, 15479, Note_on_c, 5, 74, 0
11, 15480, Note_on_c, 5, 73, 76
11, 15599, Note_on_c, 5, 73, 0
11, 15600, Note_on_c, 5, 71, 76
11, 15719, Note_on_c, 5, 71, 0
11, 15720, Note_on_c, 5, 73, 76
11, 15824, Note_on_c, 5, 73, 0
11, 15840, Note_on_c, 5, 74, 76
11, 16439, Note_on_c, 5, 74, 0
11, 16440, Note_on_c, 5, 73, 76
11, 16559, Note_on_c, 5, 73, 0
11, 16560, Note_on_c, 5, 71, 76
11, 16679, Note_on_c, 5, 71, 0
11, 16680, Note_on_c, 5, 73, 76
11, 16784, Note_on_c, 5, 73, 0
11, 16800, Note_on_c, 5, 74, 76
11, 17279, Note_on_c, 5, 74, 0
11, 17520, Note_on_c, 5, 73, 76
11, 17699, Note_on_c, 5, 73, 0
11, 18000, Note_on_c, 5, 73, 76
11, 18179, Note_on_c, 5, 73, 0
11, 18360, Note_on_c, 5, 71, 76
11, 18464, Note_on_c, 5, 71, 0
11, 18480, Note_on_c, 5, 69, 76
11, 18584, Note_on_c, 5, 69, 0
11, 18600, Note_on_c, 5, 68, 76
11, 18704, Note_on_c, 5, 68, 0
11, 18720, Note_on_c, 5, 69, 76
11, 19184, Note_on_c, 5, 69, 0
11, 19200, Note_on_c, 5, 69, 76
11, 19424, Note_on_c, 5, 69, 0
11, 19440, Note_on_c, 5, 73, 76
11, 19664, Note_on_c, 5, 73, 0
11, 19680, Note_on_c, 5, 73, 76
11, 20144, Note_on_c, 5, 73, 0
11, 20160, Note_on_c, 5, 69, 76
11, 20384, Note_on_c, 5, 69, 0
11, 20400, Note_on_c, 5, 76, 76
11, 20864, Note_on_c, 5, 76, 0
11, 20880, Note_on_c, 5, 74, 76
11, 21104, Note_on_c, 5, 74, 0
11, 21120, Note_on_c, 5, 70, 76
11, 21299, Note_on_c, 5, 70, 0
11, 21600, Note_on_c, 5, 73, 76
11, 21779, Note_on_c, 5, 73, 0
11, 21960, Note_on_c, 5, 73, 76
11, 22064, Note_on_c, 5, 73, 0
11, 22080, Note_on_c, 5, 71, 76
11, 22184, Note_on_c, 5, 71, 0
11, 22200, Note_on_c, 5, 70, 76
11, 22304, Note_on_c, 5, 70, 0
11, 22320, Note_on_c, 5, 71, 76
11, 22544, Note_on_c, 5, 71, 0
11, 22560, Note_on_c, 5, 70, 76
11, 23024, Note_on_c, 5, 70, 0
11, 23040, Note_on_c, 5, 71, 76
11, 23264, Note_on_c, 5, 71, 0
11, 23280, Note_on_c, 5, 78, 76
11, 23504, Note_on_c, 5, 78, 0
11, 23520, Note_on_c, 5, 78, 76
11, 23984, Note_on_c, 5, 78, 0
11, 24000, Note_on_c, 5, 71, 76
11, 24224, Note_on_c, 5, 71, 0
11, 24240, Note_on_c, 5, 75, 76
11, 24464, Note_on_c, 5, 75, 0
11, 24480, Note_on_c, 5, 76, 76
11, 24944, Note_on_c, 5, 76, 0
11, 24960, Note_on_c, 5, 71, 76
11, 25184, Note_on_c, 5, 71, 0
11, 25200, Note_on_c, 5, 73, 76
11, 25664, Note_on_c, 5, 73, 0
11, 25680, Note_on_c, 5, 74, 76
11, 25904, Note_on_c, 5, 74, 0
11, 25920, Note_on_c, 5, 66, 76
11, 26144, Note_on_c, 5, 66, 0
11, 26160, Note_on_c, 5, 70, 76
11, 26384, Note_on_c, 5, 70, 0
11, 26400, Note_on_c, 5, 66, 76
11, 26864, Note_on_c, 5, 66, 0
11, 26880, Note_on_c, 5, 72, 76
11, 26999, Note_on_c, 5, 72, 0
11, 27000, Note_on_c, 5, 71, 76
11, 27119, Note_on_c, 5, 71, 0
11, 27120, Note_on_c, 5, 69, 76
11, 27239, Note_on_c, 5, 69, 0
11, 27240, Note_on_c, 5, 71, 76
11, 27344, Note_on_c, 5, 71, 0
11, 27360, Note_on_c, 5, 72, 76
11, 27959, Note_on_c, 5, 72, 0
11, 27960, Note_on_c, 5, 71, 76
11, 28079, Note_on_c, 5, 71, 0
11, 28080, Note_on_c, 5, 69, 76
11, 28199, Note_on_c, 5, 69, 0
11, 28200, Note_on_c, 5, 71, 76
11, 28304, Note_on_c, 5, 71, 0
11, 28320, Note_on_c, 5, 72, 76
11, 28784, Note_on_c, 5, 72, 0
11, 28800, Note_on_c, 5, 71, 76
11, 29024, Note_on_c, 5, 71, 0
11, 29040, Note_on_c, 5, 76, 76
11, 29504, Note_on_c, 5, 76, 0
11, 29520, Note_on_c, 5, 74, 76
11, 29624, Note_on_c, 5, 74, 0
11, 29640, Note_on_c, 5, 73, 76
11, 29744, Note_on_c, 5, 73, 0
11, 29760, Note_on_c, 5, 74, 76
11, 29984, Note_on_c, 5, 74, 0
11, 30000, Note_on_c, 5, 71, 76
11, 30224, Note_on_c, 5, 71, 0
11, 30240, Note_on_c, 5, 69, 76
11, 30704, Note_on_c, 5, 69, 0
11, 30720, Note_on_c, 5, 69, 76
11, 30824, Note_on_c, 5, 69, 0
11, 30840, Note_on_c, 5, 66, 76
11, 30891, Note_on_c, 5, 66, 0
11, 30900, Note_on_c, 5, 67, 76
11, 30951, Note_on_c, 5, 67, 0
11, 30960, Note_on_c, 5, 69, 76
11, 31064, Note_on_c, 5, 69, 0
11, 31080, Note_on_c, 5, 67, 76
11, 31131, Note_on_c, 5, 67, 0
11, 31140, Note_on_c, 5, 69, 76
11, 31191, Note_on_c, 5, 69, 0
11, 31200, Note_on_c, 5, 71, 76
11, 31439, Note_on_c, 5, 71, 0
11, 31680, Note_on_c, 5, 71, 76
11, 31784, Note_on_c, 5, 71, 0
11, 31800, Note_on_c, 5, 68, 76
11, 31851, Note_on_c, 5, 68, 0
11, 31860, Note_on_c, 5, 69, 76
11, 31911, Note_on_c, 5, 69, 0
11, 31920, Note_on_c, 5, 71, 76
11, 32024, Note_on_c, 5, 71, 0
11, 32040, Note_on_c, 5, 69, 76
11, 32091, Note_on_c, 5, 69, 0
11, 32100, Note_on_c, 5, 71, 76
11, 32151, Note_on_c, 5, 71, 0
11, 32160, Note_on_c, 5, 73, 76
11, 32399, Note_on_c, 5, 73, 0
11, 32640, Note_on_c, 5, 73, 76
11, 32744, Note_on_c, 5, 73, 0
11, 32760, Note_on_c, 5, 70, 76
11, 32811, Note_on_c, 5, 70, 0
11, 32820, Note_on_c, 5, 71, 76
11, 32871, Note_on_c, 5, 71, 0
11, 32880, Note_on_c, 5, 73, 76
11, 32984, Note_on_c, 5, 73, 0
11, 33000, Note_on_c, 5, 71, 76
11, 33051, Note_on_c, 5, 71, 0
11, 33060, Note_on_c, 5, 73, 76
11, 33111, Note_on_c, 5, 73, 0
11, 33120, Note_on_c, 5, 74, 76
11, 33359, Note_on_c, 5, 74, 0
11, 33600, Note_on_c, 5, 74, 76
11, 33704, Note_on_c, 5, 74, 0
11, 33720, Note_on_c, 5, 71, 76
11, 33771, Note_on_c, 5, 71, 0
11, 33780, Note_on_c, 5, 73, 76
11, 33831, Note_on_c, 5, 73, 0
11, 33840, Note_on_c, 5, 74, 76
11, 33944, Note_on_c, 5, 74, 0
11, 33960, Note_on_c, 5, 73, 76
11, 34011, Note_on_c, 5, 73, 0
11, 34020, Note_on_c, 5, 74, 76
11, 34071, Note_on_c, 5, 74, 0
11, 34080, Note_on_c, 5, 76, 76
11, 34544, Note_on_c, 5, 76, 0
11, 34560, Note_on_c, 5, 74, 76
11, 34784, Note_on_c, 5, 74, 0
11, 34800, Note_on_c, 5, 78, 76
11, 35264, Note_on_c, 5, 78, 0
11, 35280, Note_on_c, 5, 76, 76
11, 35504, Note_on_c, 5, 76, 0
11, 35520, Note_on_c, 5, 71, 76
11, 35744, Note_on_c, 5, 71, 0
11, 35760, Note_on_c, 5, 74, 76
11, 36224, Note_on_c, 5, 74, 0
11, 36240, Note_on_c, 5, 73, 76
11, 36464, Note_on_c, 5, 73, 0
11, 36480, Note_on_c, 5, 69, 76
11, 36719, Note_on_c, 5, 69, 0
11, 36960, Note_on_c, 5, 69, 76
11, 37199, Note_on_c, 5, 69, 0
11, 37320, Note_on_c, 5, 71, 76
11, 37424, Note_on_c, 5, 71, 0
11, 37440, Note_on_c, 5, 69, 76
11, 37544, Note_on_c, 5, 69, 0
11, 37560, Note_on_c, 5, 67, 76
11, 37664, Note_on_c, 5, 67, 0
11, 37680, Note_on_c, 5, 66, 76
11, 37784, Note_on_c, 5, 66, 0
11, 37800, Note_on_c, 5, 64, 76
11, 37904, Note_on_c, 5, 64, 0
11, 37920, Note_on_c, 5, 66, 76
11, 38384, Note_on_c, 5, 66, 0
11, 38400, Note_on_c, 5, 69, 76
11, 38624, Note_on_c, 5, 69, 0
11, 38640, Note_on_c, 5, 73, 76
11, 38864, Note_on_c, 5, 73, 0
11, 38880, Note_on_c, 5, 73, 76
11, 39344, Note_on_c, 5, 73, 0
11, 39360, Note_on_c, 5, 69, 76
11, 39584, Note_on_c, 5, 69, 0
11, 39600, Note_on_c, 5, 76, 76
11, 40064, Note_on_c, 5, 76, 0
11, 40080, Note_on_c, 5, 74, 76
11, 40304, Note_on_c, 5, 74, 0
11, 40320, Note_on_c, 5, 70, 76
11, 40499, Note_on_c, 5, 70, 0
11, 40800, Note_on_c, 5, 73, 76
11, 40979, Note_on_c, 5, 73, 0
11, 41160, Note_on_c, 5, 73, 76
11, 41264, Note_on_c, 5, 73, 0
11, 41280, Note_on_c, 5, 71, 76
11, 41384, Note_on_c, 5, 71, 0
11, 41400, Note_on_c, 5, 70, 76
11, 41504, Note_on_c, 5, 70, 0
11, 41520, Note_on_c, 5, 71, 76
11, 41744, Note_on_c, 5, 71, 0
11, 41760, Note_on_c, 5, 70, 76
11, 42224, Note_on_c, 5, 70, 0
11, 42240, Note_on_c, 5, 71, 76
11, 42464, Note_on_c, 5, 71, 0
11, 42480, Note_on_c, 5, 78, 76
11, 42704, Note_on_c, 5, 78, 0
11, 42720, Note_on_c, 5, 78, 76
11, 43184, Note_on_c, 5, 78, 0
11, 43200, Note_on_c, 5, 71, 76
11, 43424, Note_on_c, 5, 71, 0
11, 43440, Note_on_c, 5, 75, 76
11, 43664, Note_on_c, 5, 75, 0
11, 43680, Note_on_c, 5, 76, 76
11, 44144, Note_on_c, 5, 76, 0
11, 44160, Note_on_c, 5, 71, 76
11, 44384, Note_on_c, 5, 71, 0
11, 44400, Note_on_c, 5, 73, 76
11, 44864, Note_on_c, 5, 73, 0
11, 44880, Note_on_c, 5, 74, 76
11, 45104, Note_on_c, 5, 74, 0
11, 45120, Note_on_c, 5, 66, 76
11, 45344, Note_on_c, 5, 66, 0
11, 45360, Note_on_c, 5, 70, 76
11, 45584, Note_on_c, 5, 70, 0
11, 45600, Note_on_c, 5, 66, 76
11, 46064, Note_on_c, 5, 66, 0
11, 46080, Note_on_c, 5, 72, 76
11, 46199, Note_on_c, 5, 72, 0
11, 46200, Note_on_c, 5, 71, 76
11, 46319, Note_on_c, 5, 71, 0
11, 46320, Note_on_c, 5, 69, 76
11, 46439, Note_on_c, 5, 69, 0
11, 46440, Note_on_c, 5, 71, 76
11, 46544, Note_on_c, 5, 71, 0
11, 46560, Note_on_c, 5, 72, 76
11, 47159, Note_on_c, 5, 72, 0
11, 47160, Note_on_c, 5, 71, 76
11, 47279, Note_on_c, 5, 71, 0
11, 47280, Note_on_c, 5, 69, 76
11, 47399, Note_on_c, 5, 69, 0
11, 47400, Note_on_c, 5, 71, 76
11, 47504, Note_on_c, 5, 71, 0
11, 47520, Note_on_c, 5, 72, 76
11, 47984, Note_on_c, 5, 72, 0
11, 48000, Note_on_c, 5, 71, 76
11, 48224, Note_on_c, 5, 71, 0
11, 48240, Note_on_c, 5, 76, 76
11, 48704, Note_on_c, 5, 76, 0
11, 48720, Note_on_c, 5, 74, 76
11, 48824, Note_on_c, 5, 74, 0
11, 48840, Note_on_c, 5, 73, 76
11, 48944, Note_on_c, 5, 73, 0
11, 48960, Note_on_c, 5, 74, 76
11, 49184, Note_on_c, 5, 74, 0
11, 49200, Note_on_c, 5, 71, 76
11, 49424, Note_on_c, 5, 71, 0
11, 49440, Note_on_c, 5, 69, 76
11, 49904, Note_on_c, 5, 69, 0
11, 49920, Note_on_c, 5, 69, 76
11, 50024, Note_on_c, 5, 69, 0
11, 50040, Note_on_c, 5, 66, 76
11, 50091, Note_on_c, 5, 66, 0
11, 50100, Note_on_c, 5, 67, 76
11, 50151, Note_on_c, 5, 67, 0
11, 50160, Note_on_c, 5, 69, 76
11, 50264, Note_on_c, 5, 69, 0
11, 50280, Note_on_c, 5, 67, 76
11, 50331, Note_on_c, 5, 67, 0
11, 50340, Note_on_c, 5, 69, 76
11, 50391, Note_on_c, 5, 69, 0
11, 50400, Note_on_c, 5, 71, 76
11, 50639, Note_on_c, 5, 71, 0
11, 50880, Note_on_c, 5, 71, 76
11, 50984, Note_on_c, 5, 71, 0
11, 51000, Note_on_c, 5, 68, 76
11, 51051, Note_on_c, 5, 68, 0
11, 51060, Note_on_c, 5, 69, 76
11, 51111, Note_on_c, 5, 69, 0
11, 51120, Note_on_c, 5, 71, 76
11, 51224, Note_on_c, 5, 71, 0
11, 51240, Note_on_c, 5, 69, 76
11, 51291, Note_on_c, 5, 69, 0
11, 51300, Note_on_c, 5, 71, 76
11, 51351, Note_on_c, 5, 71, 0
11, 51360, Note_on_c, 5, 73, 76
11, 51599, Note_on_c, 5, 73, 0
11, 51840, Note_on_c, 5, 73, 76
11, 51944, Note_on_c, 5, 73, 0
11, 51960, Note_on_c, 5, 70, 76
11, 52011, Note_on_c, 5, 70, 0
11, 52020, Note_on_c, 5, 71, 76
11, 52071, Note_on_c, 5, 71, 0
11, 52080, Note_on_c, 5, 73, 76
11, 52184, Note_on_c, 5, 73, 0
11, 52200, Note_on_c, 5, 71, 76
11, 52251, Note_on_c, 5, 71, 0
11, 52260, Note_on_c, 5, 73, 76
11, 52311, Note_on_c, 5, 73, 0
11, 52320, Note_on_c, 5, 74, 76
11, 52559, Note_on_c, 5, 74, 0
11, 52800, Note_on_c, 5, 74, 76
11, 52904, Note_on_c, 5, 74, 0
11, 52920, Note_on_c, 5, 71, 76
11, 52971, Note_on_c, 5, 71, 0
11, 52980, Note_on_c, 5, 73, 76
11, 53031, Note_on_c, 5, 73, 0
11, 53040, Note_on_c, 5, 74, 76
11, 53144, Note_on_c, 5, 74, 0
11, 53160, Note_on_c, 5, 73, 76
11, 53211, Note_on_c, 5, 73, 0
11, 53220, Note_on_c, 5, 74, 76
11, 53271, Note_on_c, 5, 74, 0
11, 53280, Note_on_c, 5, 76, 76
11, 53744, Note_on_c, 5, 76, 0
11, 53760, Note_on_c, 5, 74, 76
11, 53984, Note_on_c, 5, 74, 0
11, 54000, Note_on_c, 5, 78, 76
11, 54464, Note_on_c, 5, 78, 0
11, 54480, Note_on_c, 5, 76, 76
11, 54704, Note_on_c, 5, 76, 0
11, 54720, Note_on_c, 5, 71, 76
11, 54944, Note_on_c, 5, 71, 0
11, 54960, Note_on_c, 5, 74, 76
11, 55424, Note_on_c, 5, 74, 0
11, 55440, Note_on_c, 5, 73, 76
11, 55664, Note_on_c, 5, 73, 0
11, 55680, Note_on_c, 5, 69, 76
11, 55919, Note_on_c, 5, 69, 0
11, 56160, Note_on_c, 5, 69, 76
11, 56399, Note_on_c, 5, 69, 0
11, 56520, Note_on_c, 5, 71, 76
11, 56624, Note_on_c, 5, 71, 0
11, 56640, Note_on_c, 5, 69, 76
11, 56744, Note_on_c, 5, 69, 0
11, 56760, Note_on_c, 5, 67, 76
11, 56864, Note_on_c, 5, 67, 0
11, 56880, Note_on_c, 5, 66, 76
11, 56984, Note_on_c, 5, 66, 0
11, 57000, Note_on_c, 5, 64, 76
11, 57104, Note_on_c, 5, 64, 0
11, 57120, Note_on_c, 5, 66, 76
11, 57599, Note_on_c, 5, 66, 0
11, 57599, End_track
12, 0, Start_track
12, 0, Title_t, "Oboe III"
12, 0, MIDI_port, 0
12, 0, Program_c, 6, 68
12, 0, Control_c, 6, 10, 69
12, 0, Control_c, 6, 11, 127
12, 0, Control_c, 6, 7, 80
12, 0, Note_on_c, 6, 62, 76
12, 224, Note_on_c, 6, 62, 0
12, 240, Note_on_c, 6, 69, 76
12, 464, Note_on_c, 6, 69, 0
12, 480, Note_on_c, 6, 69, 76
12, 944, Note_on_c, 6, 69, 0
12, 960, Note_on_c, 6, 62, 76
12, 1064, Note_on_c, 6, 62, 0
12, 1080, Note_on_c, 6, 66, 76
12, 1184, Note_on_c, 6, 66, 0
12, 1200, Note_on_c, 6, 69, 76
12, 1424, Note_on_c, 6, 69, 0
12, 1440, Note_on_c, 6, 69, 76
12, 1904, Note_on_c, 6, 69, 0
12, 1920, Note_on_c, 6, 62, 76
12, 2099, Note_on_c, 6, 62, 0
12, 2400, Note_on_c, 6, 74, 76
12, 2579, Note_on_c, 6, 74, 0
12, 2760, Note_on_c, 6, 74, 76
12, 2864, Note_on_c, 6, 74, 0
12, 2880, Note_on_c, 6, 74, 76
12, 3104, Note_on_c, 6, 74, 0
12, 3120, Note_on_c, 6, 69, 76
12, 3344, Note_on_c, 6, 69, 0
12, 3360, Note_on_c, 6, 69, 76
12, 3584, Note_on_c, 6, 69, 0
12, 3600, Note_on_c, 6, 66, 76
12, 3824, Note_on_c, 6, 66, 0
12, 3840, Note_on_c, 6, 62, 76
12, 4064, Note_on_c, 6, 62, 0
12, 4080, Note_on_c, 6, 69, 76
12, 4304, Note_on_c, 6, 69, 0
12, 4320, Note_on_c, 6, 69, 76
12, 4784, Note_on_c, 6, 69, 0
12, 4800, Note_on_c, 6, 62, 76
12, 4904, Note_on_c, 6, 62, 0
12, 4920, Note_on_c, 6, 66, 76
12, 5024, Note_on_c, 6, 66, 0
12, 5040, Note_on_c, 6, 69, 76
12, 5264, Note_on_c, 6, 69, 0
12, 5280, Note_on_c, 6, 69, 76
12, 5744, Note_on_c, 6, 69, 0
12, 5760, Note_on_c, 6, 71, 76
12, 5879, Note_on_c, 6, 71, 0
12, 5880, Note_on_c, 6, 69, 76
12, 5999, Note_on_c, 6, 69, 0
12, 6000, Note_on_c, 6, 68, 76
12, 6119, Note_on_c, 6, 68, 0
12, 6120, Note_on_c, 6, 69, 76
12, 6224, Note_on_c, 6, 69, 0
12, 6240, Note_on_c, 6, 71, 76
12, 6839, Note_on_c, 6, 71, 0
12, 6840, Note_on_c, 6, 69, 76
12, 6959, Note_on_c, 6, 69, 0
12, 6960, Note_on_c, 6, 68, 76
12, 7079, Note_on_c, 6, 68, 0
12, 7080, Note_on_c, 6, 69, 76
12, 7184, Note_on_c, 6, 69, 0
12, 7200, Note_on_c, 6, 71, 76
12, 7679, Note_on_c, 6, 71, 0
12, 7920, Note_on_c, 6, 69, 76
12, 8099, Note_on_c, 6, 69, 0
12, 8400, Note_on_c, 6, 69, 76
12, 8579, Note_on_c, 6, 69, 0
12, 8880, Note_on_c, 6, 64, 76
12, 9104, Note_on_c, 6, 64, 0
12, 9120, Note_on_c, 6, 64, 76
12, 9584, Note_on_c, 6, 64, 0
12, 9600, Note_on_c, 6, 62, 76
12, 9824, Note_on_c, 6, 62, 0
12, 9840, Note_on_c, 6, 69, 76
12, 10064, Note_on_c, 6, 69, 0
12, 10080, Note_on_c, 6, 69, 76
12, 10544, Note_on_c, 6, 69, 0
12, 10560, Note_on_c, 6, 62, 76
12, 10664, Note_on_c, 6, 62, 0
12, 10680, Note_on_c, 6, 66, 76
12, 10784, Note_on_c, 6, 66, 0
12, 10800, Note_on_c, 6, 69, 76
12, 11024, Note_on_c, 6, 69, 0
12, 11040, Note_on_c, 6, 69, 76
12, 11504, Note_on_c, 6, 69, 0
12, 11520, Note_on_c, 6, 62, 76
12, 11699, Note_on_c, 6, 62, 0
12, 12000, Note_on_c, 6, 74, 76
12, 12179, Note_on_c, 6, 74, 0
12, 12360, Note_on_c, 6, 74, 76
12, 12464, Note_on_c, 6, 74, 0
12, 12480, Note_on_c, 6, 74, 76
12, 12704, Note_on_c, 6, 74, 0
12, 12720, Note_on_c, 6, 69, 76
12, 12944, Note_on_c, 6, 69, 0
12, 12960, Note_on_c, 6, 69, 76
12, 13184, Note_on_c, 6, 69, 0
12, 13200, Note_on_c, 6, 66, 76
12, 13424, Note_on_c, 6, 66, 0
12, 13440, Note_on_c, 6, 62, 76
12, 13664, Note_on_c, 6, 62, 0
12, 13680, Note_on_c, 6, 69, 76
12, 13904, Note_on_c, 6, 69, 0
12, 13920, Note_on_c, 6, 69, 76
12, 14384, Note_on_c, 6, 69, 0
12, 14400, Note_on_c, 6, 62, 76
12, 14504, Note_on_c, 6, 62, 0
12, 14520, Note_on_c, 6, 66, 76
12, 14624, Note_on_c, 6, 66, 0
12, 14640, Note_on_c, 6, 69, 76
12, 14864, Note_on_c, 6, 69, 0
12, 14880, Note_on_c, 6, 69, 76
12, 15344, Note_on_c, 6, 69, 0
12, 15360, Note_on_c, 6, 71, 76
12, 15479, Note_on_c, 6, 71, 0
12, 15480, Note_on_c, 6, 69, 76
12, 15599, Note_on_c, 6, 69, 0
12, 15600, Note_on_c, 6, 68, 76
12, 15719, Note_on_c, 6, 68, 0
12, 15720, Note_on_c, 6, 69, 76
12, 15824, Note_on_c, 6, 69, 0
12, 15840, Note_on_c, 6, 71, 76
12, 16439, Note_on_c, 6, 71, 0
12, 16440, Note_on_c, 6, 69, 76
12, 16559, Note_on_c, 6, 69, 0
12, 16560, Note_on_c, 6, 68, 76
12, 16679, Note_on_c, 6, 68, 0
12, 16680, Note_on_c, 6, 69, 76
12, 16784, Note_on_c, 6, 69, 0
12, 16800, Note_on_c, 6, 71, 76
12, 17279, Note_on_c, 6, 71, 0
12, 17520, Note_on_c, 6, 69, 76
12, 17699, Note_on_c, 6, 69, 0
12, 18000, Note_on_c, 6, 69, 76
12, 18179, Note_on_c, 6, 69, 0
12, 18480, Note_on_c, 6, 64, 76
12, 18704, Note_on_c, 6, 64, 0
12, 18720, Note_on_c, 6, 64, 76
12, 19184, Note_on_c, 6, 64, 0
12, 19200, Note_on_c, 6, 64, 76
12, 19424, Note_on_c, 6, 64, 0
12, 19440, Note_on_c, 6, 69, 76
12, 19664, Note_on_c, 6, 69, 0
12, 19680, Note_on_c, 6, 69, 76
12, 20144, Note_on_c, 6, 69, 0
12, 20160, Note_on_c, 6, 66, 76
12, 20384, Note_on_c, 6, 66, 0
12, 20400, Note_on_c, 6, 69, 76
12, 20624, Note_on_c, 6, 69, 0
12, 20640, Note_on_c, 6, 69, 76
12, 21104, Note_on_c, 6, 69, 0
12, 21120, Note_on_c, 6, 73, 76
12, 21299, Note_on_c, 6, 73, 0
12, 21600, Note_on_c, 6, 70, 76
12, 21779, Note_on_c, 6, 70, 0
12, 21960, Note_on_c, 6, 66, 76
12, 22064, Note_on_c, 6, 66, 0
12, 22080, Note_on_c, 6, 66, 76
12, 22304, Note_on_c, 6, 66, 0
12, 22320, Note_on_c, 6, 66, 76
12, 22544, Note_on_c, 6, 66, 0
12, 22560, Note_on_c, 6, 66, 76
12, 23024, Note_on_c, 6, 66, 0
12, 23040, Note_on_c, 6, 66, 76
12, 23264, Note_on_c, 6, 66, 0
12, 23280, Note_on_c, 6, 74, 76
12, 23504, Note_on_c, 6, 74, 0
12, 23520, Note_on_c, 6, 75, 76
12, 23984, Note_on_c, 6, 75, 0
12, 24000, Note_on_c, 6, 66, 76
12, 24224, Note_on_c, 6, 66, 0
12, 24240, Note_on_c, 6, 71, 76
12, 24464, Note_on_c, 6, 71, 0
12, 24480, Note_on_c, 6, 71, 76
12, 25079, Note_on_c, 6, 71, 0
12, 25080, Note_on_c, 6, 69, 76
12, 25199, Note_on_c, 6, 69, 0
12, 25200, Note_on_c, 6, 67, 76
12, 25319, Note_on_c, 6, 67, 0
12, 25320, Note_on_c, 6, 66, 76
12, 25424, Note_on_c, 6, 66, 0
12, 25440, Note_on_c, 6, 64, 76
12, 25664, Note_on_c, 6, 64, 0
12, 25680, Note_on_c, 6, 66, 76
12, 25904, Note_on_c, 6, 66, 0
12, 25920, Note_on_c, 6, 66, 76
12, 26144, Note_on_c, 6, 66, 0
12, 26160, Note_on_c, 6, 64, 76
12, 26384, Note_on_c, 6, 64, 0
12, 26400, Note_on_c, 6, 62, 76
12, 26864, Note_on_c, 6, 62, 0
12, 26880, Note_on_c, 6, 69, 76
12, 26999, Note_on_c, 6, 69, 0
12, 27000, Note_on_c, 6, 67, 76
12, 27119, Note_on_c, 6, 67, 0
12, 27120, Note_on_c, 6, 66, 76
12, 27239, Note_on_c, 6, 66, 0
12, 27240, Note_on_c, 6, 67, 76
12, 27344, Note_on_c, 6, 67, 0
12, 27360, Note_on_c, 6, 69, 76
12, 27959, Note_on_c, 6, 69, 0
12, 27960, Note_on_c, 6, 67, 76
12, 28079, Note_on_c, 6, 67, 0
12, 28080, Note_on_c, 6, 66, 76
12, 28199, Note_on_c, 6, 66, 0
12, 28200, Note_on_c, 6, 67, 76
12, 28304, Note_on_c, 6, 67, 0
12, 28320, Note_on_c, 6, 69, 76
12, 28784, Note_on_c, 6, 69, 0
12, 28800, Note_on_c, 6, 62, 76
12, 29024, Note_on_c, 6, 62, 0
12, 29040, Note_on_c, 6, 71, 76
12, 29264, Note_on_c, 6, 71, 0
12, 29280, Note_on_c, 6, 69, 76
12, 29504, Note_on_c, 6, 69, 0
12, 29520, Note_on_c, 6, 69, 76
12, 29744, Note_on_c, 6, 69, 0
12, 29760, Note_on_c, 6, 69, 76
12, 29984, Note_on_c, 6, 69, 0
12, 30000, Note_on_c, 6, 67, 76
12, 30224, Note_on_c, 6, 67, 0
12, 30240, Note_on_c, 6, 64, 76
12, 30704, Note_on_c, 6, 64, 0
12, 30720, Note_on_c, 6, 66, 76
12, 30824, Note_on_c, 6, 66, 0
12, 30840, Note_on_c, 6, 62, 76
12, 30891, Note_on_c, 6, 62, 0
12, 30900, Note_on_c, 6, 64, 76
12, 30951, Note_on_c, 6, 64, 0
12, 30960, Note_on_c, 6, 66, 76
12, 31064, Note_on_c, 6, 66, 0
12, 31080, Note_on_c, 6, 64, 76
12, 31131, Note_on_c, 6, 64, 0
12, 31140, Note_on_c, 6, 66, 76
12, 31191, Note_on_c, 6, 66, 0
12, 31200, Note_on_c, 6, 67, 76
12, 31439, Note_on_c, 6, 67, 0
12, 31680, Note_on_c, 6, 68, 76
12, 31784, Note_on_c, 6, 68, 0
12, 31800, Note_on_c, 6, 64, 76
12, 31851, Note_on_c, 6, 64, 0
12, 31860, Note_on_c, 6, 66, 76
12, 31911, Note_on_c, 6, 66, 0
12, 31920, Note_on_c, 6, 68, 76
12, 32024, Note_on_c, 6, 68, 0
12, 32040, Note_on_c, 6, 66, 76
12, 32091, Note_on_c, 6, 66, 0
12, 32100, Note_on_c, 6, 68, 76
12, 32151, Note_on_c, 6, 68, 0
12, 32160, Note_on_c, 6, 69, 76
12, 32399, Note_on_c, 6, 69, 0
12, 32640, Note_on_c, 6, 70, 76
12, 32744, Note_on_c, 6, 70, 0
12, 32760, Note_on_c, 6, 66, 76
12, 32811, Note_on_c, 6, 66, 0
12, 32820, Note_on_c, 6, 68, 76
12, 32871, Note_on_c, 6, 68, 0
12, 32880, Note_on_c, 6, 70, 76
12, 32984, Note_on_c, 6, 70, 0
12, 33000, Note_on_c, 6, 68, 76
12, 33051, Note_on_c, 6, 68, 0
12, 33060, Note_on_c, 6, 70, 76
12, 33111, Note_on_c, 6, 70, 0
12, 33120, Note_on_c, 6, 71, 76
12, 33359, Note_on_c, 6, 71, 0
12, 33600, Note_on_c, 6, 71, 76
12, 33704, Note_on_c, 6, 71, 0
12, 33720, Note_on_c, 6, 67, 76
12, 33771, Note_on_c, 6, 67, 0
12, 33780, Note_on_c, 6, 69, 76
12, 33831, Note_on_c, 6, 69, 0
12, 33840, Note_on_c, 6, 71, 76
12, 33944, Note_on_c, 6, 71, 0
12, 33960, Note_on_c, 6, 69, 76
12, 34011, Note_on_c, 6, 69, 0
12, 34020, Note_on_c, 6, 71, 76
12, 34071, Note_on_c, 6, 71, 0
12, 34080, Note_on_c, 6, 73, 76
12, 34544, Note_on_c, 6, 73, 0
12, 34560, Note_on_c, 6, 69, 76
12, 34784, Note_on_c, 6, 69, 0
12, 34800, Note_on_c, 6, 69, 76
12, 35024, Note_on_c, 6, 69, 0
12, 35040, Note_on_c, 6, 69, 76
12, 35504, Note_on_c, 6, 69, 0
12, 35520, Note_on_c, 6, 71, 76
12, 35744, Note_on_c, 6, 71, 0
12, 35760, Note_on_c, 6, 68, 76
12, 35984, Note_on_c, 6, 68, 0
12, 36000, Note_on_c, 6, 64, 76
12, 36464, Note_on_c, 6, 64, 0
12, 36480, Note_on_c, 6, 66, 76
12, 36719, Note_on_c, 6, 66, 0
12, 36960, Note_on_c, 6, 66, 76
12, 37199, Note_on_c, 6, 66, 0
12, 37320, Note_on_c, 6, 67, 76
12, 37424, Note_on_c, 6, 67, 0
12, 37440, Note_on_c, 6, 66, 76
12, 37544, Note_on_c, 6, 66, 0
12, 37560, Note_on_c, 6, 64, 76
12, 37664, Note_on_c, 6, 64, 0
12, 37680, Note_on_c, 6, 69, 76
12, 37904, Note_on_c, 6, 69, 0
12, 37920, Note_on_c, 6, 69, 76
12, 38384, Note_on_c, 6, 69, 0
12, 38400, Note_on_c, 6, 64, 76
12, 38624, Note_on_c, 6, 64, 0
12, 38640, Note_on_c, 6, 69, 76
12, 38864, Note_on_c, 6, 69, 0
12, 38880, Note_on_c, 6, 69, 76
12, 39344, Note_on_c, 6, 69, 0
12, 39360, Note_on_c, 6, 66, 76
12, 39584, Note_on_c, 6, 66, 0
12, 39600, Note_on_c, 6, 69, 76
12, 39824, Note_on_c, 6, 69, 0
12, 39840, Note_on_c, 6, 69, 76
12, 40304, Note_on_c, 6, 69, 0
12, 40320, Note_on_c, 6, 73, 76
12, 40499, Note_on_c, 6, 73, 0
12, 40800, Note_on_c, 6, 70, 76
12, 40979, Note_on_c, 6, 70, 0
12, 41160, Note_on_c, 6, 66, 76
12, 41264, Note_on_c, 6, 66, 0
12, 41280, Note_on_c, 6, 66, 76
12, 41504, Note_on_c, 6, 66, 0
12, 41520, Note_on_c, 6, 66, 76
12, 41744, Note_on_c, 6, 66, 0
12, 41760, Note_on_c, 6, 66, 76
12, 42224, Note_on_c, 6, 66, 0
12, 42240, Note_on_c, 6, 66, 76
12, 42464, Note_on_c, 6, 66, 0
12, 42480, Note_on_c, 6, 74, 76
12, 42704, Note_on_c, 6, 74, 0
12, 42720, Note_on_c, 6, 75, 76
12, 43184, Note_on_c, 6, 75, 0
12, 43200, Note_on_c, 6, 66, 76
12, 43424, Note_on_c, 6, 66, 0
12, 43440, Note_on_c, 6, 71, 76
12, 43664, Note_on_c, 6, 71, 0
12, 43680, Note_on_c, 6, 71, 76
12, 44279, Note_on_c, 6, 71, 0
12, 44280, Note_on_c, 6, 69, 76
12, 44399, Note_on_c, 6, 69, 0
12, 44400, Note_on_c, 6, 67, 76
12, 44519, Note_on_c, 6, 67, 0
12, 44520, Note_on_c, 6, 66, 76
12, 44624, Note_on_c, 6, 66, 0
12, 44640, Note_on_c, 6, 64, 76
12, 44864, Note_on_c, 6, 64, 0
12, 44880, Note_on_c, 6, 66, 76
12, 45104, Note_on_c, 6, 66, 0
12, 45120, Note_on_c, 6, 66, 76
12, 45344, Note_on_c, 6, 66, 0
12, 45360, Note_on_c, 6, 64, 76
12, 45584, Note_on_c, 6, 64, 0
12, 45600, Note_on_c, 6, 62, 76
12, 46064, Note_on_c, 6, 62, 0
12, 46080, Note_on_c, 6, 69, 76
12, 46199, Note_on_c, 6, 69, 0
12, 46200, Note_on_c, 6, 67, 76
12, 46319, Note_on_c, 6, 67, 0
12, 46320, Note_on_c, 6, 66, 76
12, 46439, Note_on_c, 6, 66, 0
12, 46440, Note_on_c, 6, 67, 76
12, 46544, Note_on_c, 6, 67, 0
12, 46560, Note_on_c, 6, 69, 76
12, 47159, Note_on_c, 6, 69, 0
12, 47160, Note_on_c, 6, 67, 76
12, 47279, Note_on_c, 6, 67, 0
12, 47280, Note_on_c, 6, 66, 76
12, 47399, Note_on_c, 6, 66, 0
12, 47400, Note_on_c, 6, 67, 76
12, 47504, Note_on_c, 6, 67, 0
12, 47520, Note_on_c, 6, 69, 76
12, 47984, Note_on_c, 6, 69, 0
12, 48000, Note_on_c, 6, 62, 76
12, 48224, Note_on_c, 6, 62, 0
12, 48240, Note_on_c, 6, 71, 76
12, 48464, Note_on_c, 6, 71, 0
12, 48480, Note_on_c, 6, 69, 76
12, 48704, Note_on_c, 6, 69, 0
12, 48720, Note_on_c, 6, 69, 76
12, 48944, Note_on_c, 6, 69, 0
12, 48960, Note_on_c, 6, 69, 76
12, 49184, Note_on_c, 6, 69, 0
12, 49200, Note_on_c, 6, 67, 76
12, 49424, Note_on_c, 6, 67, 0
12, 49440, Note_on_c, 6, 64, 76
12, 49904, Note_on_c, 6, 64, 0
12, 49920, Note_on_c, 6, 66, 76
12, 50024, Note_on_c, 6, 66, 0
12, 50040, Note_on_c, 6, 62, 76
12, 50091, Note_on_c, 6, 62, 0
12, 50100, Note_on_c, 6, 64, 76
12, 50151, Note_on_c, 6, 64, 0
12, 50160, Note_on_c, 6, 66, 76
12, 50264, Note_on_c, 6, 66, 0
12, 50280, Note_on_c, 6, 64, 76
12, 50331, Note_on_c, 6, 64, 0
12, 50340, Note_on_c, 6, 66, 76
12, 50391, Note_on_c, 6, 66, 0
12, 50400, Note_on_c, 6, 67, 76
12, 50639, Note_on_c, 6, 67, 0
12, 50880, Note_on_c, 6, 68, 76
12, 50984, Note_on_c, 6, 68, 0
12, 51000, Note_on_c, 6, 64, 76
12, 51051, Note_on_c, 6, 64, 0
12, 51060, Note_on_c, 6, 66, 76
12, 51111, Note_on_c, 6, 66, 0
12, 51120, Note_on_c, 6, 68, 76
12, 51224, Note_on_c, 6, 68, 0
12, 51240, Note_on_c, 6, 66, 76
12, 51291, Note_on_c, 6, 66, 0
12, 51300, Note_on_c, 6, 68, 76
12, 51351, Note_on_c, 6, 68, 0
12, 51360, Note_on_c, 6, 69, 76
12, 51599, Note_on_c, 6, 69, 0
12, 51840, Note_on_c, 6, 70, 76
12, 51944, Note_on_c, 6, 70, 0
12, 51960, Note_on_c, 6, 66, 76
12, 52011, Note_on_c, 6, 66, 0
12, 52020, Note_on_c, 6, 68, 76
12, 52071, Note_on_c, 6, 68, 0
12, 52080, Note_on_c, 6, 70, 76
12, 52184, Note_on_c, 6, 70, 0
12, 52200, Note_on_c, 6, 68, 76
12, 52251, Note_on_c, 6, 68, 0
12, 52260, Note_on_c, 6, 70, 76
12, 52311, Note_on_c, 6, 70, 0
12, 52320, Note_on_c, 6, 71, 76
12, 52559, Note_on_c, 6, 71, 0
12, 52800, Note_on_c, 6, 71, 76
12, 52904, Note_on_c, 6, 71, 0
12, 52920, Note_on_c, 6, 67, 76
12, 52971, Note_on_c, 6, 67, 0
12, 52980, Note_on_c, 6, 69, 76
12, 53031, Note_on_c, 6, 69, 0
12, 53040, Note_on_c, 6, 71, 76
12, 53144, Note_on_c, 6, 71, 0
12, 53160, Note_on_c, 6, 69, 76
12, 53211, Note_on_c, 6, 69, 0
12, 53220, Note_on_c, 6, 71, 76
12, 53271, Note_on_c, 6, 71, 0
12, 53280, Note_on_c, 6, 73, 76
12, 53744, Note_on_c, 6, 73, 0
12, 53760, Note_on_c, 6, 69, 76
12, 53984, Note_on_c, 6, 69, 0
12, 54000, Note_on_c, 6, 69, 76
12, 54224, Note_on_c, 6, 69, 0
12, 54240, Note_on_c, 6, 69, 76
12, 54704, Note_on_c, 6, 69, 0
12, 54720, Note_on_c, 6, 71, 76
12, 54944, Note_on_c, 6, 71, 0
12, 54960, Note_on_c, 6, 68, 76
12, 55184, Note_on_c, 6, 68, 0
12, 55200, Note_on_c, 6, 64, 76
12, 55664, Note_on_c, 6, 64, 0
12, 55680, Note_on_c, 6, 66, 76
12, 55919, Note_on_c, 6, 66, 0
12, 56160, Note_on_c, 6, 66, 76
12, 56399, Note_on_c, 6, 66, 0
12, 56520, Note_on_c, 6, 67, 76
12, 56624, Note_on_c, 6, 67, 0
12, 56640, Note_on_c, 6, 66, 76
12, 56744, Note_on_c, 6, 66, 0
12, 56760, Note_on_c, 6, 64, 76
12, 56864, Note_on_c, 6, 64, 0
12, 56880, Note_on_c, 6, 69, 76
12, 57104, Note_on_c, 6, 69, 0
12, 57120, Note_on_c, 6, 69, 76
12, 57599, Note_on_c, 6, 69, 0
12, 57599, End_track
13, 0, Start_track
13, 0, Title_t, "Bassoon"
13, 0, MIDI_port, 0
13, 0, Program_c, 7, 70
13, 0, Control_c, 7, 10, 74
13, 0, Control_c, 7, 11, 127
13, 0, Control_c, 7, 7, 88
13, 0, Note_on_c, 7, 50, 76
13, 119, Note_on_c, 7, 50, 0
13, 120, Note_on_c, 7, 52, 76
13, 239, Note_on_c, 7, 52, 0
13, 240, Note_on_c, 7, 54, 76
13, 359, Note_on_c, 7, 54, 0
13, 360, Note_on_c, 7, 55, 76
13, 464, Note_on_c, 7, 55, 0
13, 480, Note_on_c, 7, 57, 76
13, 944, Note_on_c, 7, 57, 0
13, 960, Note_on_c, 7, 55, 76
13, 1079, Note_on_c, 7, 55, 0
13, 1080, Note_on_c, 7, 54, 76
13, 1199, Note_on_c, 7, 54, 0
13, 1200, Note_on_c, 7, 52, 76
13, 1319, Note_on_c, 7, 52, 0
13, 1320, Note_on_c, 7, 50, 76
13, 1424, Note_on_c, 7, 50, 0
13, 1440, Note_on_c, 7, 57, 76
13, 1904, Note_on_c, 7, 57, 0
13, 1920, Note_on_c, 7, 54, 76
13, 2024, Note_on_c, 7, 54, 0
13, 2040, Note_on_c, 7, 50, 76
13, 2091, Note_on_c, 7, 50, 0
13, 2100, Note_on_c, 7, 52, 76
13, 2151, Note_on_c, 7, 52, 0
13, 2160, Note_on_c, 7, 54, 76
13, 2264, Note_on_c, 7, 54, 0
13, 2280, Note_on_c, 7, 52, 76
13, 2331, Note_on_c, 7, 52, 0
13, 2340, Note_on_c, 7, 54, 76
13, 2391, Note_on_c, 7, 54, 0
13, 2400, Note_on_c, 7, 55, 76
13, 2504, Note_on_c, 7, 55, 0
13, 2520, Note_on_c, 7, 52, 76
13, 2571, Note_on_c, 7, 52, 0
13, 2580, Note_on_c, 7, 54, 76
13, 2631, Note_on_c, 7, 54, 0
13, 2640, Note_on_c, 7, 55, 76
13, 2744, Note_on_c, 7, 55, 0
13, 2760, Note_on_c, 7, 54, 76
13, 2811, Note_on_c, 7, 54, 0
13, 2820, Note_on_c, 7, 55, 76
13, 2871, Note_on_c, 7, 55, 0
13, 2880, Note_on_c, 7, 57, 76
13, 3104, Note_on_c, 7, 57, 0
13, 3120, Note_on_c, 7, 45, 76
13, 3344, Note_on_c, 7, 45, 0
13, 3360, Note_on_c, 7, 50, 76
13, 3584, Note_on_c, 7, 50, 0
13, 3600, Note_on_c, 7, 38, 76
13, 3824, Note_on_c, 7, 38, 0
13, 3840, Note_on_c, 7, 50, 76
13, 3959, Note_on_c, 7, 50, 0
13, 3960, Note_on_c, 7, 52, 76
13, 4079, Note_on_c, 7, 52, 0
13, 4080, Note_on_c, 7, 54, 76
13, 4199, Note_on_c, 7, 54, 0
13, 4200, Note_on_c, 7, 55, 76
13, 4304, Note_on_c, 7, 55, 0
13, 4320, Note_on_c, 7, 57, 76
13, 4784, Note_on_c, 7, 57, 0
13, 4800, Note_on_c, 7, 55, 76
13, 4919, Note_on_c, 7, 55, 0
13, 4920, Note_on_c, 7, 54, 76
13, 5039, Note_on_c, 7, 54, 0
13, 5040, Note_on_c, 7, 52, 76
13, 5159, Note_on_c, 7, 52, 0
13, 5160, Note_on_c, 7, 50, 76
13, 5264, Note_on_c, 7, 50, 0
13, 5280, Note_on_c, 7, 57, 76
13, 5504, Note_on_c, 7, 57, 0
13, 5520, Note_on_c, 7, 59, 76
13, 5624, Note_on_c, 7, 59, 0
13, 5640, Note_on_c, 7, 61, 76
13, 5744, Note_on_c, 7, 61, 0
13, 5760, Note_on_c, 7, 59, 76
13, 5999, Note_on_c, 7, 59, 0
13, 6000, Note_on_c, 7, 57, 76
13, 6224, Note_on_c, 7, 57, 0
13, 6240, Note_on_c, 7, 56, 76
13, 6479, Note_on_c, 7, 56, 0
13, 6480, Note_on_c, 7, 54, 76
13, 6704, Note_on_c, 7, 54, 0
13, 6720, Note_on_c, 7, 52, 76
13, 6959, Note_on_c, 7, 52, 0
13, 6960, Note_on_c, 7, 50, 76
13, 7184, Note_on_c, 7, 50, 0
13, 7200, Note_on_c, 7, 49, 76
13, 7439, Note_on_c, 7, 49, 0
13, 7440, Note_on_c, 7, 47, 76
13, 7664, Note_on_c, 7, 47, 0
13, 7680, Note_on_c, 7, 49, 76
13, 7784, Note_on_c, 7, 49, 0
13, 7800, Note_on_c, 7, 45, 76
13, 7851, Note_on_c, 7, 45, 0
13, 7860, Note_on_c, 7, 47, 76
13, 7911, Note_on_c, 7, 47, 0
13, 7920, Note_on_c, 7, 49, 76
13, 8024, Note_on_c, 7, 49, 0
13, 8040, Note_on_c, 7, 47, 76
13, 8091, Note_on_c, 7, 47, 0
13, 8100, Note_on_c, 7, 49, 76
13, 8151, Note_on_c, 7, 49, 0
13, 8160, Note_on_c, 7, 50, 76
13, 8264, Note_on_c, 7, 50, 0
13, 8280, Note_on_c, 7, 47, 76
13, 8331, Note_on_c, 7, 47, 0
13, 8340, Note_on_c, 7, 49, 76
13, 8391, Note_on_c, 7, 49, 0
13, 8400, Note_on_c, 7, 50, 76
13, 8504, Note_on_c, 7, 50, 0
13, 8520, Note_on_c, 7, 49, 76
13, 8571, Note_on_c, 7, 49, 0
13, 8580, Note_on_c, 7, 50, 76
13, 8631, Note_on_c, 7, 50, 0
13, 8640, Note_on_c, 7, 52, 76
13, 8864, Note_on_c, 7, 52, 0
13, 8880, Note_on_c, 7, 40, 76
13, 9104, Note_on_c, 7, 40, 0
13, 9120, Note_on_c, 7, 45, 76
13, 9584, Note_on_c, 7, 45, 0
13, 9600, Note_on_c, 7, 50, 76
13, 9719, Note_on_c, 7, 50, 0
13, 9720, Note_on_c, 7, 52, 76
13, 9839, Note_on_c, 7, 52, 0
13, 9840, Note_on_c, 7, 54, 76
13, 9959, Note_on_c, 7, 54, 0
13, 9960, Note_on_c, 7, 55, 76
13, 10064, Note_on_c, 7, 55, 0
13, 10080, Note_on_c, 7, 57, 76
13, 10544, Note_on_c, 7, 57, 0
13, 10560, Note_on_c, 7, 55, 76
13, 10679, Note_on_c, 7, 55, 0
13, 10680, Note_on_c, 7, 54, 76
13, 10799, Note_on_c, 7, 54, 0
13, 10800, Note_on_c, 7, 52, 76
13, 10919, Note_on_c, 7, 52, 0
13, 10920, Note_on_c, 7, 50, 76
13, 11024, Note_on_c, 7, 50, 0
13, 11040, Note_on_c, 7, 57, 76
13, 11504, Note_on_c, 7, 57, 0
13, 11520, Note_on_c, 7, 54, 76
13, 11624, Note_on_c, 7, 54, 0
13, 11640, Note_on_c, 7, 50, 76
13, 11691, Note_on_c, 7, 50, 0
13, 11700, Note_on_c, 7, 52, 76
13, 11751, Note_on_c, 7, 52, 0
13, 11760, Note_on_c, 7, 54, 76
13, 11864, Note_on_c, 7, 54, 0
13, 11880, Note_on_c, 7, 52, 76
13, 11931, Note_on_c, 7, 52, 0
13, 11940, Note_on_c, 7, 54, 76
13, 11991, Note_on_c, 7, 54, 0
13, 12000, Note_on_c, 7, 55, 76
13, 12104, Note_on_c, 7, 55, 0
13, 12120, Note_on_c, 7, 52, 76
13, 12171, Note_on_c, 7, 52, 0
13, 12180, Note_on_c, 7, 54, 76
13, 12231, Note_on_c, 7, 54, 0
13, 12240, Note_on_c, 7, 55, 76
13, 12344, Note_on_c, 7, 55, 0
13, 12360, Note_on_c, 7, 54, 76
13, 12411, Note_on_c, 7, 54, 0
13, 12420, Note_on_c, 7, 55, 76
13, 12471, Note_on_c, 7, 55, 0
13, 12480, Note_on_c, 7, 57, 76
13, 12704, Note_on_c, 7, 57, 0
13, 12720, Note_on_c, 7, 45, 76
13, 12944, Note_on_c, 7, 45, 0
13, 12960, Note_on_c, 7, 50, 76
13, 13184, Note_on_c, 7, 50, 0
13, 13200, Note_on_c, 7, 38, 76
13, 13424, Note_on_c, 7, 38, 0
13, 13440, Note_on_c, 7, 50, 76
13, 13559, Note_on_c, 7, 50, 0
13, 13560, Note_on_c, 7, 52, 76
13, 13679, Note_on_c, 7, 52, 0
13, 13680, Note_on_c, 7, 54, 76
13, 13799, Note_on_c, 7, 54, 0
13, 13800, Note_on_c, 7, 55, 76
13, 13904, Note_on_c, 7, 55, 0
13, 13920, Note_on_c, 7, 57, 76
13, 14384, Note_on_c, 7, 57, 0
13, 14400, Note_on_c, 7, 55, 76
13, 14519, Note_on_c, 7, 55, 0
13, 14520, Note_on_c, 7, 54, 76
13, 14639, Note_on_c, 7, 54, 0
13, 14640, Note_on_c, 7, 52, 76
13, 14759, Note_on_c, 7, 52, 0
13, 14760, Note_on_c, 7, 50, 76
13, 14864, Note_on_c, 7, 50, 0
13, 14880, Note_on_c, 7, 57, 76
13, 15104, Note_on_c, 7, 57, 0
13, 15120, Note_on_c, 7, 59, 76
13, 15224, Note_on_c, 7, 59, 0
13, 15240, Note_on_c, 7, 61, 76
13, 15344, Note_on_c, 7, 61, 0
13, 15360, Note_on_c, 7, 59, 76
13, 15599, Note_on_c, 7, 59, 0
13, 15600, Note_on_c, 7, 57, 76
13, 15824, Note_on_c, 7, 57, 0
13, 15840, Note_on_c, 7, 56, 76
13, 16079, Note_on_c, 7, 56, 0
13, 16080, Note_on_c, 7, 54, 76
13, 16304, Note_on_c, 7, 54, 0
13, 16320, Note_on_c, 7, 52, 76
13, 16559, Note_on_c, 7, 52, 0
13, 16560, Note_on_c, 7, 50, 76
13, 16784, Note_on_c, 7, 50, 0
13, 16800, Note_on_c, 7, 49, 76
13, 17039, Note_on_c, 7, 49, 0
13, 17040, Note_on_c, 7, 47, 76
13, 17264, Note_on_c, 7, 47, 0
13, 17280, Note_on_c, 7, 49, 76
13, 17384, Note_on_c, 7, 49, 0
13, 17400, Note_on_c, 7, 45, 76
13, 17451, Note_on_c, 7, 45, 0
13, 17460, Note_on_c, 7, 47, 76
13, 17511, Note_on_c, 7, 47, 0
13, 17520, Note_on_c, 7, 49, 76
13, 17624, Note_on_c, 7, 49, 0
13, 17640, Note_on_c, 7, 47, 76
13, 17691, Note_on_c, 7, 47, 0
13, 17700, Note_on_c, 7, 49, 76
13, 17751, Note_on_c, 7, 49, 0
13, 17760, Note_on_c, 7, 50, 76
13, 17864, Note_on_c, 7, 50, 0
13, 17880, Note_on_c, 7, 47, 76
13, 17931, Note_on_c, 7, 47, 0
13, 17940, Note_on_c, 7, 49, 76
13, 17991, Note_on_c, 7, 49, 0
13, 18000, Note_on_c, 7, 50, 76
13, 18104, Note_on_c, 7, 50, 0
13, 18120, Note_on_c, 7, 49, 76
13, 18171, Note_on_c, 7, 49, 0
13, 18180, Note_on_c, 7, 50, 76
13, 18231, Note_on_c, 7, 50, 0
13, 18240, Note_on_c, 7, 52, 76
13, 18464, Note_on_c, 7, 52, 0
13, 18480, Note_on_c, 7, 40, 76
13, 18704, Note_on_c, 7, 40, 0
13, 18720, Note_on_c, 7, 45, 76
13, 19184, Note_on_c, 7, 45, 0
13, 19200, Note_on_c, 7, 57, 76
13, 19319, Note_on_c, 7, 57, 0
13, 19320, Note_on_c, 7, 55, 76
13, 19439, Note_on_c, 7, 55, 0
13, 19440, Note_on_c, 7, 54, 76
13, 19559, Note_on_c, 7, 54, 0
13, 19560, Note_on_c, 7, 52, 76
13, 19664, Note_on_c, 7, 52, 0
13, 19680, Note_on_c, 7, 54, 76
13, 20144, Note_on_c, 7, 54, 0
13, 20160, Note_on_c, 7, 54, 76
13, 20279, Note_on_c, 7, 54, 0
13, 20280, Note_on_c, 7, 52, 76
13, 20399, Note_on_c, 7, 52, 0
13, 20400, Note_on_c, 7, 50, 76
13, 20519, Note_on_c, 7, 50, 0
13, 20520, Note_on_c, 7, 49, 76
13, 20624, Note_on_c, 7, 49, 0
13, 20640, Note_on_c, 7, 50, 76
13, 21104, Note_on_c, 7, 50, 0
13, 21120, Note_on_c, 7, 49, 76
13, 21224, Note_on_c, 7, 49, 0
13, 21240, Note_on_c, 7, 46, 76
13, 21291, Note_on_c, 7, 46, 0
13, 21300, Note_on_c, 7, 47, 76
13, 21351, Note_on_c, 7, 47, 0
13, 21360, Note_on_c, 7, 49, 76
13, 21464, Note_on_c, 7, 49, 0
13, 21480, Note_on_c, 7, 50, 76
13, 21531, Note_on_c, 7, 50, 0
13, 21540, Note_on_c, 7, 52, 76
13, 21591, Note_on_c, 7, 52, 0
13, 21600, Note_on_c, 7, 54, 76
13, 21704, Note_on_c, 7, 54, 0
13, 21720, Note_on_c, 7, 50, 76
13, 21771, Note_on_c, 7, 50, 0
13, 21780, Note_on_c, 7, 52, 76
13, 21831, Note_on_c, 7, 52, 0
13, 21840, Note_on_c, 7, 54, 76
13, 21944, Note_on_c, 7, 54, 0
13, 21960, Note_on_c, 7, 56, 76
13, 22011, Note_on_c, 7, 56, 0
13, 22020, Note_on_c, 7, 58, 76
13, 22071, Note_on_c, 7, 58, 0
13, 22080, Note_on_c, 7, 59, 76
13, 22304, Note_on_c, 7, 59, 0
13, 22320, Note_on_c, 7, 50, 76
13, 22424, Note_on_c, 7, 50, 0
13, 22440, Note_on_c, 7, 52, 76
13, 22544, Note_on_c, 7, 52, 0
13, 22560, Note_on_c, 7, 54, 76
13, 23024, Note_on_c, 7, 54, 0
13, 23040, Note_on_c, 7, 52, 76
13, 23159, Note_on_c, 7, 52, 0
13, 23160, Note_on_c, 7, 50, 76
13, 23264, Note_on_c, 7, 50, 0
13, 23280, Note_on_c, 7, 49, 76
13, 23399, Note_on_c, 7, 49, 0
13, 23400, Note_on_c, 7, 47, 76
13, 23504, Note_on_c, 7, 47, 0
13, 23520, Note_on_c, 7, 57, 76
13, 23984, Note_on_c, 7, 57, 0
13, 24000, Note_on_c, 7, 52, 76
13, 24119, Note_on_c, 7, 52, 0
13, 24120, Note_on_c, 7, 51, 76
13, 24224, Note_on_c, 7, 51, 0
13, 24240, Note_on_c, 7, 49, 76
13, 24359, Note_on_c, 7, 49, 0
13, 24360, Note_on_c, 7, 47, 76
13, 24464, Note_on_c, 7, 47, 0
13, 24480, Note_on_c, 7, 52, 76
13, 24944, Note_on_c, 7, 52, 0
13, 24960, Note_on_c, 7, 55, 76
13, 25079, Note_on_c, 7, 55, 0
13, 25080, Note_on_c, 7, 54, 76
13, 25184, Note_on_c, 7, 54, 0
13, 25200, Note_on_c, 7, 52, 76
13, 25319, Note_on_c, 7, 52, 0
13, 25320, Note_on_c, 7, 50, 76
13, 25424, Note_on_c, 7, 50, 0
13, 25440, Note_on_c, 7, 49, 76
13, 25664, Note_on_c, 7, 49, 0
13, 25680, Note_on_c, 7, 47, 76
13, 25904, Note_on_c, 7, 47, 0
13, 25920, Note_on_c, 7, 54, 76
13, 26144, Note_on_c, 7, 54, 0
13, 26160, Note_on_c, 7, 42, 76
13, 26384, Note_on_c, 7, 42, 0
13, 26400, Note_on_c, 7, 47, 76
13, 26624, Note_on_c, 7, 47, 0
13, 26640, Note_on_c, 7, 59, 76
13, 26864, Note_on_c, 7, 59, 0
13, 26880, Note_on_c, 7, 57, 76
13, 27119, Note_on_c, 7, 57, 0
13, 27120, Note_on_c, 7, 55, 76
13, 27344, Note_on_c, 7, 55, 0
13, 27360, Note_on_c, 7, 54, 76
13, 27599, Note_on_c, 7, 54, 0
13, 27600, Note_on_c, 7, 52, 76
13, 27824, Note_on_c, 7, 52, 0
13, 27840, Note_on_c, 7, 50, 76
13, 28079, Note_on_c, 7, 50, 0
13, 28080, Note_on_c, 7, 48, 76
13, 28304, Note_on_c, 7, 48, 0
13, 28320, Note_on_c, 7, 47, 76
13, 28559, Note_on_c, 7, 47, 0
13, 28560, Note_on_c, 7, 45, 76
13, 28784, Note_on_c, 7, 45, 0
13, 28800, Note_on_c, 7, 43, 76
13, 28919, Note_on_c, 7, 43, 0
13, 28920, Note_on_c, 7, 42, 76
13, 29024, Note_on_c, 7, 42, 0
13, 29040, Note_on_c, 7, 40, 76
13, 29159, Note_on_c, 7, 40, 0
13, 29160, Note_on_c, 7, 38, 76
13, 29264, Note_on_c, 7, 38, 0
13, 29280, Note_on_c, 7, 49, 76
13, 29504, Note_on_c, 7, 49, 0
13, 29520, Note_on_c, 7, 45, 76
13, 29744, Note_on_c, 7, 45, 0
13, 29760, Note_on_c, 7, 50, 76
13, 29984, Note_on_c, 7, 50, 0
13, 30000, Note_on_c, 7, 43, 76
13, 30224, Note_on_c, 7, 43, 0
13, 30240, Note_on_c, 7, 45, 76
13, 30719, Note_on_c, 7, 45, 0
13, 31200, Note_on_c, 7, 55, 76
13, 31424, Note_on_c, 7, 55, 0
13, 31440, Note_on_c, 7, 43, 76
13, 31679, Note_on_c, 7, 43, 0
13, 32160, Note_on_c, 7, 57, 76
13, 32384, Note_on_c, 7, 57, 0
13, 32400, Note_on_c, 7, 45, 76
13, 32639, Note_on_c, 7, 45, 0
13, 33120, Note_on_c, 7, 59, 76
13, 33344, Note_on_c, 7, 59, 0
13, 33360, Note_on_c, 7, 47, 76
13, 33599, Note_on_c, 7, 47, 0
13, 34080, Note_on_c, 7, 55, 76
13, 34544, Note_on_c, 7, 55, 0
13, 34560, Note_on_c, 7, 55, 76
13, 34679, Note_on_c, 7, 55, 0
13, 34680, Note_on_c, 7, 54, 76
13, 34784, Note_on_c, 7, 54, 0
13, 34800, Note_on_c, 7, 52, 76
13, 34919, Note_on_c, 7, 52, 0
13, 34920, Note_on_c, 7, 50, 76
13, 35024, Note_on_c, 7, 50, 0
13, 35040, Note_on_c, 7, 57, 76
13, 35504, Note_on_c, 7, 57, 0
13, 35520, Note_on_c, 7, 57, 76
13, 35639, Note_on_c, 7, 57, 0
13, 35640, Note_on_c, 7, 56, 76
13, 35744, Note_on_c, 7, 56, 0
13, 35760, Note_on_c, 7, 54, 76
13, 35879, Note_on_c, 7, 54, 0
13, 35880, Note_on_c, 7, 52, 76
13, 35984, Note_on_c, 7, 52, 0
13, 36000, Note_on_c, 7, 57, 76
13, 36464, Note_on_c, 7, 57, 0
13, 36480, Note_on_c, 7, 54, 76
13, 36584, Note_on_c, 7, 54, 0
13, 36600, Note_on_c, 7, 50, 76
13, 36651, Note_on_c, 7, 50, 0
13, 36660, Note_on_c, 7, 52, 76
13, 36711, Note_on_c, 7, 52, 0
13, 36720, Note_on_c, 7, 54, 76
13, 36824, Note_on_c, 7, 54, 0
13, 36840, Note_on_c, 7, 52, 76
13, 36891, Note_on_c, 7, 52, 0
13, 36900, Note_on_c, 7, 54, 76
13, 36951, Note_on_c, 7, 54, 0
13, 36960, Note_on_c, 7, 55, 76
13, 37079, Note_on_c, 7, 55, 0
13, 37080, Note_on_c, 7, 52, 76
13, 37131, Note_on_c, 7, 52, 0
13, 37140, Note_on_c, 7, 54, 76
13, 37191, Note_on_c, 7, 54, 0
13, 37200, Note_on_c, 7, 55, 76
13, 37304, Note_on_c, 7, 55, 0
13, 37320, Note_on_c, 7, 54, 76
13, 37371, Note_on_c, 7, 54, 0
13, 37380, Note_on_c, 7, 55, 76
13, 37431, Note_on_c, 7, 55, 0
13, 37440, Note_on_c, 7, 57, 76
13, 37664, Note_on_c, 7, 57, 0
13, 37680, Note_on_c, 7, 45, 76
13, 37904, Note_on_c, 7, 45, 0
13, 37920, Note_on_c, 7, 38, 76
13, 38384, Note_on_c, 7, 38, 0
13, 38400, Note_on_c, 7, 57, 76
13, 38519, Note_on_c, 7, 57, 0
13, 38520, Note_on_c, 7, 55, 76
13, 38639, Note_on_c, 7, 55, 0
13, 38640, Note_on_c, 7, 54, 76
13, 38759, Note_on_c, 7, 54, 0
13, 38760, Note_on_c, 7, 52, 76
13, 38864, Note_on_c, 7, 52, 0
13, 38880, Note_on_c, 7, 54, 76
13, 39344, Note_on_c, 7, 54, 0
13, 39360, Note_on_c, 7, 54, 76
13, 39479, Note_on_c, 7, 54, 0
13, 39480, Note_on_c, 7, 52, 76
13, 39599, Note_on_c, 7, 52, 0
13, 39600, Note_on_c, 7, 50, 76
13, 39719, Note_on_c, 7, 50, 0
13, 39720, Note_on_c, 7, 49, 76
13, 39824, Note_on_c, 7, 49, 0
13, 39840, Note_on_c, 7, 50, 76
13, 40304, Note_on_c, 7, 50, 0
13, 40320, Note_on_c, 7, 49, 76
13, 40424, Note_on_c, 7, 49, 0
13, 40440, Note_on_c, 7, 46, 76
13, 40491, Note_on_c, 7, 46, 0
13, 40500, Note_on_c, 7, 47, 76
13, 40551, Note_on_c, 7, 47, 0
13, 40560, Note_on_c, 7, 49, 76
13, 40664, Note_on_c, 7, 49, 0
13, 40680, Note_on_c, 7, 50, 76
13, 40731, Note_on_c, 7, 50, 0
13, 40740, Note_on_c, 7, 52, 76
13, 40791, Note_on_c, 7, 52, 0
13, 40800, Note_on_c, 7, 54, 76
13, 40904, Note_on_c, 7, 54, 0
13, 40920, Note_on_c, 7, 50, 76
13, 40971, Note_on_c, 7, 50, 0
13, 40980, Note_on_c, 7, 52, 76
13, 41031, Note_on_c, 7, 52, 0
13, 41040, Note_on_c, 7, 54, 76
13, 41144, Note_on_c, 7, 54, 0
13, 41160, Note_on_c, 7, 56, 76
13, 41211, Note_on_c, 7, 56, 0
13, 41220, Note_on_c, 7, 58, 76
13, 41271, Note_on_c, 7, 58, 0
13, 41280, Note_on_c, 7, 59, 76
13, 41504, Note_on_c, 7, 59, 0
13, 41520, Note_on_c, 7, 50, 76
13, 41624, Note_on_c, 7, 50, 0
13, 41640, Note_on_c, 7, 52, 76
13, 41744, Note_on_c, 7, 52, 0
13, 41760, Note_on_c, 7, 54, 76
13, 42224, Note_on_c, 7, 54, 0
13, 42240, Note_on_c, 7, 52, 76
13, 42359, Note_on_c, 7, 52, 0
13, 42360, Note_on_c, 7, 50, 76
13, 42464, Note_on_c, 7, 50, 0
13, 42480, Note_on_c, 7, 49, 76
13, 42599, Note_on_c, 7, 49, 0
13, 42600, Note_on_c, 7, 47, 76
13, 42704, Note_on_c, 7, 47, 0
13, 42720, Note_on_c, 7, 57, 76
13, 43184, Note_on_c, 7, 57, 0
13, 43200, Note_on_c, 7, 52, 76
13, 43319, Note_on_c, 7, 52, 0
13, 43320, Note_on_c, 7, 51, 76
13, 43424, Note_on_c, 7, 51, 0
13, 43440, Note_on_c, 7, 49, 76
13, 43559, Note_on_c, 7, 49, 0
13, 43560, Note_on_c, 7, 47, 76
13, 43664, Note_on_c, 7, 47, 0
13, 43680, Note_on_c, 7, 52, 76
13, 44144, Note_on_c, 7, 52, 0
13, 44160, Note_on_c, 7, 55, 76
13, 44279, Note_on_c, 7, 55, 0
13, 44280, Note_on_c, 7, 54, 76
13, 44384, Note_on_c, 7, 54, 0
13, 44400, Note_on_c, 7, 52, 76
13, 44519, Note_on_c, 7, 52, 0
13, 44520, Note_on_c, 7, 50, 76
13, 44624, Note_on_c, 7, 50, 0
13, 44640, Note_on_c, 7, 49, 76
13, 44864, Note_on_c, 7, 49, 0
13, 44880, Note_on_c, 7, 47, 76
13, 45104, Note_on_c, 7, 47, 0
13, 45120, Note_on_c, 7, 54, 76
13, 45344, Note_on_c, 7, 54, 0
13, 45360, Note_on_c, 7, 42, 76
13, 45584, Note_on_c, 7, 42, 0
13, 45600, Note_on_c, 7, 47, 76
13, 45824, Note_on_c, 7, 47, 0
13, 45840, Note_on_c, 7, 59, 76
13, 46064, Note_on_c, 7, 59, 0
13, 46080, Note_on_c, 7, 57, 76
13, 46319, Note_on_c, 7, 57, 0
13, 46320, Note_on_c, 7, 55, 76
13, 46544, Note_on_c, 7, 55, 0
13, 46560, Note_on_c, 7, 54, 76
13, 46799, Note_on_c, 7, 54, 0
13, 46800, Note_on_c, 7, 52, 76
13, 47024, Note_on_c, 7, 52, 0
13, 47040, Note_on_c, 7, 50, 76
13, 47279, Note_on_c, 7, 50, 0
13, 47280, Note_on_c, 7, 48, 76
13, 47504, Note_on_c, 7, 48, 0
13, 47520, Note_on_c, 7, 47, 76
13, 47759, Note_on_c, 7, 47, 0
13, 47760, Note_on_c, 7, 45, 76
13, 47984, Note_on_c, 7, 45, 0
13, 48000, Note_on_c, 7, 43, 76
13, 48119, Note_on_c, 7, 43, 0
13, 48120, Note_on_c, 7, 42, 76
13, 48224, Note_on_c, 7, 42, 0
13, 48240, Note_on_c, 7, 40, 76
13, 48359, Note_on_c, 7, 40, 0
13, 48360, Note_on_c, 7, 38, 76
13, 48464, Note_on_c, 7, 38, 0
13, 48480, Note_on_c, 7, 49, 76
13, 48704, Note_on_c, 7, 49, 0
13, 48720, Note_on_c, 7, 45, 76
13, 48944, Note_on_c, 7, 45, 0
13, 48960, Note_on_c, 7, 50, 76
13, 49184, Note_on_c, 7, 50, 0
13, 49200, Note_on_c, 7, 43, 76
13, 49424, Note_on_c, 7, 43, 0
13, 49440, Note_on_c, 7, 45, 76
13, 49919, Note_on_c, 7, 45, 0
13, 50400, Note_on_c, 7, 55, 76
13, 50624, Note_on_c, 7, 55, 0
13, 50640, Note_on_c, 7, 43, 76
13, 50879, Note_on_c, 7, 43, 0
13, 51360, Note_on_c, 7, 57, 76
13, 51584, Note_on_c, 7, 57, 0
13, 51600, Note_on_c, 7, 45, 76
13, 51839, Note_on_c, 7, 45, 0
13, 52320, Note_on_c, 7, 59, 76
13, 52544, Note_on_c, 7, 59, 0
13, 52560, Note_on_c, 7, 47, 76
13, 52799, Note_on_c, 7, 47, 0
13, 53280, Note_on_c, 7, 55, 76
13, 53744, Note_on_c, 7, 55, 0
13, 53760, Note_on_c, 7, 55, 76
13, 53879, Note_on_c, 7, 55, 0
13, 53880, Note_on_c, 7, 54, 76
13, 53984, Note_on_c, 7, 54, 0
13, 54000, Note_on_c, 7, 52, 76
13, 54119, Note_on_c, 7, 52, 0
13, 54120, Note_on_c, 7, 50, 76
13, 54224, Note_on_c, 7, 50, 0
13, 54240, Note_on_c, 7, 57, 76
13, 54704, Note_on_c, 7, 57, 0
13, 54720, Note_on_c, 7, 57, 76
13, 54839, Note_on_c, 7, 57, 0
13, 54840, Note_on_c, 7, 56, 76
13, 54944, Note_on_c, 7, 56, 0
13, 54960, Note_on_c, 7, 54, 76
13, 55079, Note_on_c, 7, 54, 0
13, 55080, Note_on_c, 7, 52, 76
13, 55184, Note_on_c, 7, 52, 0
13, 55200, Note_on_c, 7, 57, 76
13, 55664, Note_on_c, 7, 57, 0
13, 55680, Note_on_c, 7, 54, 76
13, 55784, Note_on_c, 7, 54, 0
13, 55800, Note_on_c, 7, 50, 76
13, 55851, Note_on_c, 7, 50, 0
13, 55860, Note_on_c, 7, 52, 76
13, 55911, Note_on_c, 7, 52, 0
13, 55920, Note_on_c, 7, 54, 76
13, 56024, Note_on_c, 7, 54, 0
13, 56040, Note_on_c, 7, 52, 76
13, 56091, Note_on_c, 7, 52, 0
13, 56100, Note_on_c, 7, 54, 76
13, 56151, Note_on_c, 7, 54, 0
13, 56160, Note_on_c, 7, 55, 76
13, 56279, Note_on_c, 7, 55, 0
13, 56280, Note_on_c, 7, 52, 76
13, 56331, Note_on_c, 7, 52, 0
13, 56340, Note_on_c, 7, 54, 76
13, 56391, Note_on_c, 7, 54, 0
13, 56400, Note_on_c, 7, 55, 76
13, 56504, Note_on_c, 7, 55, 0
13, 56520, Note_on_c, 7, 54, 76
13, 56571, Note_on_c, 7, 54, 0
13, 56580, Note_on_c, 7, 55, 76
13, 56631, Note_on_c, 7, 55, 0
13, 56640, Note_on_c, 7, 57, 76
13, 56864, Note_on_c, 7, 57, 0
13, 56880, Note_on_c, 7, 45, 76
13, 57104, Note_on_c, 7, 45, 0
13, 57120, Note_on_c, 7, 38, 76
13, 57599, Note_on_c, 7, 38, 0
13, 57599, End_track
14, 0, Start_track
14, 0, Title_t, "Violin I"
14, 0, MIDI_port, 0
14, 0, Program_c, 10, 48
14, 0, Control_c, 10, 10, 48
14, 0, Control_c, 10, 11, 127
14, 0, Control_c, 10, 7, 96
14, 0, Note_on_c, 10, 69, 76
14, 224, Note_on_c, 10, 69, 0
14, 240, Note_on_c, 10, 74, 76
14, 704, Note_on_c, 10, 74, 0
14, 720, Note_on_c, 10, 73, 76
14, 824, Note_on_c, 10, 73, 0
14, 840, Note_on_c, 10, 71, 76
14, 944, Note_on_c, 10, 71, 0
14, 960, Note_on_c, 10, 69, 76
14, 1064, Note_on_c, 10, 69, 0
14, 1080, Note_on_c, 10, 74, 76
14, 1184, Note_on_c, 10, 74, 0
14, 1200, Note_on_c, 10, 78, 76
14, 1664, Note_on_c, 10, 78, 0
14, 1680, Note_on_c, 10, 76, 76
14, 1919, Note_on_c, 10, 76, 0
14, 2160, Note_on_c, 10, 81, 76
14, 2399, Note_on_c, 10, 81, 0
14, 2640, Note_on_c, 10, 81, 76
14, 2879, Note_on_c, 10, 81, 0
14, 3000, Note_on_c, 10, 79, 76
14, 3104, Note_on_c, 10, 79, 0
14, 3120, Note_on_c, 10, 78, 76
14, 3224, Note_on_c, 10, 78, 0
14, 3240, Note_on_c, 10, 76, 76
14, 3344, Note_on_c, 10, 76, 0
14, 3360, Note_on_c, 10, 78, 76
14, 3584, Note_on_c, 10, 78, 0
14, 3600, Note_on_c, 10, 74, 76
14, 3824, Note_on_c, 10, 74, 0
14, 3840, Note_on_c, 10, 69, 76
14, 4064, Note_on_c, 10, 69, 0
14, 4080, Note_on_c, 10, 74, 76
14, 4544, Note_on_c, 10, 74, 0
14, 4560, Note_on_c, 10, 73, 76
14, 4664, Note_on_c, 10, 73, 0
14, 4680, Note_on_c, 10, 71, 76
14, 4784, Note_on_c, 10, 71, 0
14, 4800, Note_on_c, 10, 69, 76
14, 4904, Note_on_c, 10, 69, 0
14, 4920, Note_on_c, 10, 74, 76
14, 5024, Note_on_c, 10, 74, 0
14, 5040, Note_on_c, 10, 78, 76
14, 5504, Note_on_c, 10, 78, 0
14, 5520, Note_on_c, 10, 76, 76
14, 5759, Note_on_c, 10, 76, 0
14, 6240, Note_on_c, 10, 74, 76
14, 6359, Note_on_c, 10, 74, 0
14, 6360, Note_on_c, 10, 78, 76
14, 6419, Note_on_c, 10, 78, 0
14, 6420, Note_on_c, 10, 76, 76
14, 6471, Note_on_c, 10, 76, 0
14, 6480, Note_on_c, 10, 74, 76
14, 6719, Note_on_c, 10, 74, 0
14, 7200, Note_on_c, 10, 64, 76
14, 7319, Note_on_c, 10, 64, 0
14, 7320, Note_on_c, 10, 66, 76
14, 7371, Note_on_c, 10, 66, 0
14, 7380, Note_on_c, 10, 68, 76
14, 7431, Note_on_c, 10, 68, 0
14, 7440, Note_on_c, 10, 69, 76
14, 7491, Note_on_c, 10, 69, 0
14, 7500, Note_on_c, 10, 71, 76
14, 7551, Note_on_c, 10, 71, 0
14, 7560, Note_on_c, 10, 73, 76
14, 7611, Note_on_c, 10, 73, 0
14, 7620, Note_on_c, 10, 74, 76
14, 7671, Note_on_c, 10, 74, 0
14, 7680, Note_on_c, 10, 76, 76
14, 7919, Note_on_c, 10, 76, 0
14, 8160, Note_on_c, 10, 76, 76
14, 8399, Note_on_c, 10, 76, 0
14, 8520, Note_on_c, 10, 78, 76
14, 8624, Note_on_c, 10, 78, 0
14, 8640, Note_on_c, 10, 76, 76
14, 8744, Note_on_c, 10, 76, 0
14, 8760, Note_on_c, 10, 74, 76
14, 8864, Note_on_c, 10, 74, 0
14, 8880, Note_on_c, 10, 73, 76
14, 8984, Note_on_c, 10, 73, 0
14, 9000, Note_on_c, 10, 71, 76
14, 9104, Note_on_c, 10, 71, 0
14, 9120, Note_on_c, 10, 69, 76
14, 9584, Note_on_c, 10, 69, 0
14, 9600, Note_on_c, 10, 69, 76
14, 9824, Note_on_c, 10, 69, 0
14, 9840, Note_on_c, 10, 74, 76
14, 10304, Note_on_c, 10, 74, 0
14, 10320, Note_on_c, 10, 73, 76
14, 10424, Note_on_c, 10, 73, 0
14, 10440, Note_on_c, 10, 71, 76
14, 10544, Note_on_c, 10, 71, 0
14, 10560, Note_on_c, 10, 69, 76
14, 10664, Note_on_c, 10, 69, 0
14, 10680, Note_on_c, 10, 74, 76
14, 10784, Note_on_c, 10, 74, 0
14, 10800, Note_on_c, 10, 78, 76
14, 11264, Note_on_c, 10, 78, 0
14, 11280, Note_on_c, 10, 76, 76
14, 11519, Note_on_c, 10, 76, 0
14, 11760, Note_on_c, 10, 81, 76
14, 11999, Note_on_c, 10, 81, 0
14, 12240, Note_on_c, 10, 81, 76
14, 12479, Note_on_c, 10, 81, 0
14, 12600, Note_on_c, 10, 79, 76
14, 12704, Note_on_c, 10, 79, 0
14, 12720, Note_on_c, 10, 78, 76
14, 12824, Note_on_c, 10, 78, 0
14, 12840, Note_on_c, 10, 76, 76
14, 12944, Note_on_c, 10, 76, 0
14, 12960, Note_on_c, 10, 78, 76
14, 13184, Note_on_c, 10, 78, 0
14, 13200, Note_on_c, 10, 74, 76
14, 13424, Note_on_c, 10, 74, 0
14, 13440, Note_on_c, 10, 69, 76
14, 13664, Note_on_c, 10, 69, 0
14, 13680, Note_on_c, 10, 74, 76
14, 14144, Note_on_c, 10, 74, 0
14, 14160, Note_on_c, 10, 73, 76
14, 14264, Note_on_c, 10, 73, 0
14, 14280, Note_on_c, 10, 71, 76
14, 14384, Note_on_c, 10, 71, 0
14, 14400, Note_on_c, 10, 69, 76
14, 14504, Note_on_c, 10, 69, 0
14, 14520, Note_on_c, 10, 74, 76
14, 14624, Note_on_c, 10, 74, 0
14, 14640, Note_on_c, 10, 78, 76
14, 15104, Note_on_c, 10, 78, 0
14, 15120, Note_on_c, 10, 76, 76
14, 15359, Note_on_c, 10, 76, 0
14, 15840, Note_on_c, 10, 74, 76
14, 15959, Note_on_c, 10, 74, 0
14, 15960, Note_on_c, 10, 78, 76
14, 16019, Note_on_c, 10, 78, 0
14, 16020, Note_on_c, 10, 76, 76
14, 16071, Note_on_c, 10, 76, 0
14, 16080, Note_on_c, 10, 74, 76
14, 16319, Note_on_c, 10, 74, 0
14, 16800, Note_on_c, 10, 64, 76
14, 16919, Note_on_c, 10, 64, 0
14, 16920, Note_on_c, 10, 66, 76
14, 16971, Note_on_c, 10, 66, 0
14, 16980, Note_on_c, 10, 68, 76
14, 17031, Note_on_c, 10, 68, 0
14, 17040, Note_on_c, 10, 69, 76
14, 17091, Note_on_c, 10, 69, 0
14, 17100, Note_on_c, 10, 71, 76
14, 17151, Note_on_c, 10, 71, 0
14, 17160, Note_on_c, 10, 73, 76
14, 17211, Note_on_c, 10, 73, 0
14, 17220, Note_on_c, 10, 74, 76
14, 17271, Note_on_c, 10, 74, 0
14, 17280, Note_on_c, 10, 76, 76
14, 17519, Note_on_c, 10, 76, 0
14, 17760, Note_on_c, 10, 76, 76
14, 17999, Note_on_c, 10, 76, 0
14, 18120, Note_on_c, 10, 78, 76
14, 18224, Note_on_c, 10, 78, 0
14, 18240, Note_on_c, 10, 76, 76
14, 18344, Note_on_c, 10, 76, 0
14, 18360, Note_on_c, 10, 74, 76
14, 18464, Note_on_c, 10, 74, 0
14, 18480, Note_on_c, 10, 73, 76
14, 18584, Note_on_c, 10, 73, 0
14, 18600, Note_on_c, 10, 71, 76
14, 18704, Note_on_c, 10, 71, 0
14, 18720, Note_on_c, 10, 69, 76
14, 19184, Note_on_c, 10, 69, 0
14, 19200, Note_on_c, 10, 69, 76
14, 19424, Note_on_c, 10, 69, 0
14, 19440, Note_on_c, 10, 76, 76
14, 19904, Note_on_c, 10, 76, 0
14, 19920, Note_on_c, 10, 78, 76
14, 20024, Note_on_c, 10, 78, 0
14, 20040, Note_on_c, 10, 76, 76
14, 20144, Note_on_c, 10, 76, 0
14, 20160, Note_on_c, 10, 74, 76
14, 20264, Note_on_c, 10, 74, 0
14, 20280, Note_on_c, 10, 73, 76
14, 20384, Note_on_c, 10, 73, 0
14, 20400, Note_on_c, 10, 79, 76
14, 20864, Note_on_c, 10, 79, 0
14, 20880, Note_on_c, 10, 78, 76
14, 21119, Note_on_c, 10, 78, 0
14, 21360, Note_on_c, 10, 76, 76
14, 21599, Note_on_c, 10, 76, 0
14, 21840, Note_on_c, 10, 76, 76
14, 22079, Note_on_c, 10, 76, 0
14, 22200, Note_on_c, 10, 76, 76
14, 22304, Note_on_c, 10, 76, 0
14, 22320, Note_on_c, 10, 78, 76
14, 22424, Note_on_c, 10, 78, 0
14, 22440, Note_on_c, 10, 79, 76
14, 22544, Note_on_c, 10, 79, 0
14, 22560, Note_on_c, 10, 73, 76
14, 22784, Note_on_c, 10, 73, 0
14, 22800, Note_on_c, 10, 66, 76
14, 23024, Note_on_c, 10, 66, 0
14, 23040, Note_on_c, 10, 78, 76
14, 23264, Note_on_c, 10, 78, 0
14, 23280, Note_on_c, 10, 83, 76
14, 23744, Note_on_c, 10, 83, 0
14, 23760, Note_on_c, 10, 75, 76
14, 23864, Note_on_c, 10, 75, 0
14, 23880, Note_on_c, 10, 76, 76
14, 23984, Note_on_c, 10, 76, 0
14, 24000, Note_on_c, 10, 78, 76
14, 24104, Note_on_c, 10, 78, 0
14, 24120, Note_on_c, 10, 71, 76
14, 24224, Note_on_c, 10, 71, 0
14, 24240, Note_on_c, 10, 81, 76
14, 24704, Note_on_c, 10, 81, 0
14, 24720, Note_on_c, 10, 79, 76
14, 24824, Note_on_c, 10, 79, 0
14, 24840, Note_on_c, 10, 78, 76
14, 24944, Note_on_c, 10, 78, 0
14, 24960, Note_on_c, 10, 76, 76
14, 25064, Note_on_c, 10, 76, 0
14, 25080, Note_on_c, 10, 73, 76
14, 25184, Note_on_c, 10, 73, 0
14, 25200, Note_on_c, 10, 82, 76
14, 25664, Note_on_c, 10, 82, 0
14, 25680, Note_on_c, 10, 83, 76
14, 25904, Note_on_c, 10, 83, 0
14, 25920, Note_on_c, 10, 74, 76
14, 26144, Note_on_c, 10, 74, 0
14, 26160, Note_on_c, 10, 73, 76
14, 26264, Note_on_c, 10, 73, 0
14, 26280, Note_on_c, 10, 71, 76
14, 26384, Note_on_c, 10, 71, 0
14, 26400, Note_on_c, 10, 71, 76
14, 26879, Note_on_c, 10, 71, 0
14, 27360, Note_on_c, 10, 72, 76
14, 27479, Note_on_c, 10, 72, 0
14, 27480, Note_on_c, 10, 76, 76
14, 27539, Note_on_c, 10, 76, 0
14, 27540, Note_on_c, 10, 74, 76
14, 27591, Note_on_c, 10, 74, 0
14, 27600, Note_on_c, 10, 72, 76
14, 27839, Note_on_c, 10, 72, 0
14, 28320, Note_on_c, 10, 62, 76
14, 28424, Note_on_c, 10, 62, 0
14, 28440, Note_on_c, 10, 64, 76
14, 28491, Note_on_c, 10, 64, 0
14, 28500, Note_on_c, 10, 66, 76
14, 28551, Note_on_c, 10, 66, 0
14, 28560, Note_on_c, 10, 67, 76
14, 28611, Note_on_c, 10, 67, 0
14, 28620, Note_on_c, 10, 69, 76
14, 28671, Note_on_c, 10, 69, 0
14, 28680, Note_on_c, 10, 71, 76
14, 28731, Note_on_c, 10, 71, 0
14, 28740, Note_on_c, 10, 72, 76
14, 28791, Note_on_c, 10, 72, 0
14, 28800, Note_on_c, 10, 71, 76
14, 29024, Note_on_c, 10, 71, 0
14, 29040, Note_on_c, 10, 79, 76
14, 29504, Note_on_c, 10, 79, 0
14, 29520, Note_on_c, 10, 78, 76
14, 29624, Note_on_c, 10, 78, 0
14, 29640, Note_on_c, 10, 76, 76
14, 29744, Note_on_c, 10, 76, 0
14, 29760, Note_on_c, 10, 78, 76
14, 29864, Note_on_c, 10, 78, 0
14, 29880, Note_on_c, 10, 74, 76
14, 29984, Note_on_c, 10, 74, 0
14, 30000, Note_on_c, 10, 76, 76
14, 30224, Note_on_c, 10, 76, 0
14, 30240, Note_on_c, 10, 73, 76
14, 30464, Note_on_c, 10, 73, 0
14, 30480, Note_on_c, 10, 69, 76
14, 30719, Note_on_c, 10, 69, 0
14, 30960, Note_on_c, 10, 74, 76
14, 31199, Note_on_c, 10, 74, 0
14, 31320, Note_on_c, 10, 71, 76
14, 31424, Note_on_c, 10, 71, 0
14, 31440, Note_on_c, 10, 67, 76
14, 31544, Note_on_c, 10, 67, 0
14, 31560, Note_on_c, 10, 71, 76
14, 31664, Note_on_c, 10, 71, 0
14, 31680, Note_on_c, 10, 76, 76
14, 31919, Note_on_c, 10, 76, 0
14, 32160, Note_on_c, 10, 76, 76
14, 32399, Note_on_c, 10, 76, 0
14, 32880, Note_on_c, 10, 78, 76
14, 33119, Note_on_c, 10, 78, 0
14, 33240, Note_on_c, 10, 74, 76
14, 33344, Note_on_c, 10, 74, 0
14, 33360, Note_on_c, 10, 71, 76
14, 33464, Note_on_c, 10, 71, 0
14, 33480, Note_on_c, 10, 74, 76
14, 33584, Note_on_c, 10, 74, 0
14, 33600, Note_on_c, 10, 79, 76
14, 33839, Note_on_c, 10, 79, 0
14, 34080, Note_on_c, 10, 69, 76
14, 34544, Note_on_c, 10, 69, 0
14, 34560, Note_on_c, 10, 74, 76
14, 34664, Note_on_c, 10, 74, 0
14, 34680, Note_on_c, 10, 81, 76
14, 34784, Note_on_c, 10, 81, 0
14, 34800, Note_on_c, 10, 86, 76
14, 35264, Note_on_c, 10, 86, 0
14, 35280, Note_on_c, 10, 85, 76
14, 35504, Note_on_c, 10, 85, 0
14, 35520, Note_on_c, 10, 74, 76
14, 35624, Note_on_c, 10, 74, 0
14, 35640, Note_on_c, 10, 80, 76
14, 35744, Note_on_c, 10, 80, 0
14, 35760, Note_on_c, 10, 83, 76
14, 36224, Note_on_c, 10, 83, 0
14, 36240, Note_on_c, 10, 81, 76
14, 36464, Note_on_c, 10, 81, 0
14, 36480, Note_on_c, 10, 74, 76
14, 36959, Note_on_c, 10, 74, 0
14, 36960, Note_on_c, 10, 74, 76
14, 37544, Note_on_c, 10, 74, 0
14, 37560, Note_on_c, 10, 71, 76
14, 37664, Note_on_c, 10, 71, 0
14, 37680, Note_on_c, 10, 73, 76
14, 37904, Note_on_c, 10, 73, 0
14, 37920, Note_on_c, 10, 74, 76
14, 38384, Note_on_c, 10, 74, 0
14, 38400, Note_on_c, 10, 69, 76
14, 38624, Note_on_c, 10, 69, 0
14, 38640, Note_on_c, 10, 76, 76
14, 39104, Note_on_c, 10, 76, 0
14, 39120, Note_on_c, 10, 78, 76
14, 39224, Note_on_c, 10, 78, 0
14, 39240, Note_on_c, 10, 76, 76
14, 39344, Note_on_c, 10, 76, 0
14, 39360, Note_on_c, 10, 74, 76
14, 39464, Note_on_c, 10, 74, 0
14, 39480, Note_on_c, 10, 73, 76
14, 39584, Note_on_c, 10, 73, 0
14, 39600, Note_on_c, 10, 79, 76
14, 40064, Note_on_c, 10, 79, 0
14, 40080, Note_on_c, 10, 78, 76
14, 40319, Note_on_c, 10, 78, 0
14, 40560, Note_on_c, 10, 76, 76
14, 40799, Note_on_c, 10, 76, 0
14, 41040, Note_on_c, 10, 76, 76
14, 41279, Note_on_c, 10, 76, 0
14, 41400, Note_on_c, 10, 76, 76
14, 41504, Note_on_c, 10, 76, 0
14, 41520, Note_on_c, 10, 78, 76
14, 41624, Note_on_c, 10, 78, 0
14, 41640, Note_on_c, 10, 79, 76
14, 41744, Note_on_c, 10, 79, 0
14, 41760, Note_on_c, 10, 73, 76
14, 41984, Note_on_c, 10, 73, 0
14, 42000, Note_on_c, 10, 66, 76
14, 42224, Note_on_c, 10, 66, 0
14, 42240, Note_on_c, 10, 78, 76
14, 42464, Note_on_c, 10, 78, 0
14, 42480, Note_on_c, 10, 83, 76
14, 42944, Note_on_c, 10, 83, 0
14, 42960, Note_on_c, 10, 75, 76
14, 43064, Note_on_c, 10, 75, 0
14, 43080, Note_on_c, 10, 76, 76
14, 43184, Note_on_c, 10, 76, 0
14, 43200, Note_on_c, 10, 78, 76
14, 43304, Note_on_c, 10, 78, 0
14, 43320, Note_on_c, 10, 71, 76
14, 43424, Note_on_c, 10, 71, 0
14, 43440, Note_on_c, 10, 81, 76
14, 43904, Note_on_c, 10, 81, 0
14, 43920, Note_on_c, 10, 79, 76
14, 44024, Note_on_c, 10, 79, 0
14, 44040, Note_on_c, 10, 78, 76
14, 44144, Note_on_c, 10, 78, 0
14, 44160, Note_on_c, 10, 76, 76
14, 44264, Note_on_c, 10, 76, 0
14, 44280, Note_on_c, 10, 73, 76
14, 44384, Note_on_c, 10, 73, 0
14, 44400, Note_on_c, 10, 82, 76
14, 44864, Note_on_c, 10, 82, 0
14, 44880, Note_on_c, 10, 83, 76
14, 45104, Note_on_c, 10, 83, 0
14, 45120, Note_on_c, 10, 74, 76
14, 45344, Note_on_c, 10, 74, 0
14, 45360, Note_on_c, 10, 73, 76
14, 45464, Note_on_c, 10, 73, 0
14, 45480, Note_on_c, 10, 71, 76
14, 45584, Note_on_c, 10, 71, 0
14, 45600, Note_on_c, 10, 71, 76
14, 46079, Note_on_c, 10, 71, 0
14, 46560, Note_on_c, 10, 72, 76
14, 46679, Note_on_c, 10, 72, 0
14, 46680, Note_on_c, 10, 76, 76
14, 46739, Note_on_c, 10, 76, 0
14, 46740, Note_on_c, 10, 74, 76
14, 46791, Note_on_c, 10, 74, 0
14, 46800, Note_on_c, 10, 72, 76
14, 47039, Note_on_c, 10, 72, 0
14, 47520, Note_on_c, 10, 62, 76
14, 47624, Note_on_c, 10, 62, 0
14, 47640, Note_on_c, 10, 64, 76
14, 47691, Note_on_c, 10, 64, 0
14, 47700, Note_on_c, 10, 66, 76
14, 47751, Note_on_c, 10, 66, 0
14, 47760, Note_on_c, 10, 67, 76
14, 47811, Note_on_c, 10, 67, 0
14, 47820, Note_on_c, 10, 69, 76
14, 47871, Note_on_c, 10, 69, 0
14, 47880, Note_on_c, 10, 71, 76
14, 47931, Note_on_c, 10, 71, 0
14, 47940, Note_on_c, 10, 72, 76
14, 47991, Note_on_c, 10, 72, 0
14, 48000, Note_on_c, 10, 71, 76
14, 48224, Note_on_c, 10, 71, 0
14, 48240, Note_on_c, 10, 79, 76
14, 48704, Note_on_c, 10, 79, 0
14, 48720, Note_on_c, 10, 78, 76
14, 48824, Note_on_c, 10, 78, 0
14, 48840, Note_on_c, 10, 76, 76
14, 48944, Note_on_c, 10, 76, 0
14, 48960, Note_on_c, 10, 78, 76
14, 49064, Note_on_c, 10, 78, 0
14, 49080, Note_on_c, 10, 74, 76
14, 49184, Note_on_c, 10, 74, 0
14, 49200, Note_on_c, 10, 76, 76
14, 49424, Note_on_c, 10, 76, 0
14, 49440, Note_on_c, 10, 73, 76
14, 49664, Note_on_c, 10, 73, 0
14, 49680, Note_on_c, 10, 69, 76
14, 49919, Note_on_c, 10, 69, 0
14, 50160, Note_on_c, 10, 74, 76
14, 50399, Note_on_c, 10, 74, 0
14, 50520, Note_on_c, 10, 71, 76
14, 50624, Note_on_c, 10, 71, 0
14, 50640, Note_on_c, 10, 67, 76
14, 50744, Note_on_c, 10, 67, 0
14, 50760, Note_on_c, 10, 71, 76
14, 50864, Note_on_c, 10, 71, 0
14, 50880, Note_on_c, 10, 76, 76
14, 51119, Note_on_c, 10, 76, 0
14, 51360, Note_on_c, 10, 76, 76
14, 51599, Note_on_c, 10, 76, 0
14, 52080, Note_on_c, 10, 78, 76
14, 52319, Note_on_c, 10, 78, 0
14, 52440, Note_on_c, 10, 74, 76
14, 52544, Note_on_c, 10, 74, 0
14, 52560, Note_on_c, 10, 71, 76
14, 52664, Note_on_c, 10, 71, 0
14, 52680, Note_on_c, 10, 74, 76
14, 52784, Note_on_c, 10, 74, 0
14, 52800, Note_on_c, 10, 79, 76
14, 53039, Note_on_c, 10, 79, 0
14, 53280, Note_on_c, 10, 69, 76
14, 53744, Note_on_c, 10, 69, 0
14, 53760, Note_on_c, 10, 74, 76
14, 53864, Note_on_c, 10, 74, 0
14, 53880, Note_on_c, 10, 81, 76
14, 53984, Note_on_c, 10, 81, 0
14, 54000, Note_on_c, 10, 86, 76
14, 54464, Note_on_c, 10, 86, 0
14, 54480, Note_on_c, 10, 85, 76
14, 54704, Note_on_c, 10, 85, 0
14, 54720, Note_on_c, 10, 74, 76
14, 54824, Note_on_c, 10, 74, 0
14, 54840, Note_on_c, 10, 80, 76
14, 54944, Note_on_c, 10, 80, 0
14, 54960, Note_on_c, 10, 83, 76
14, 55424, Note_on_c, 10, 83, 0
14, 55440, Note_on_c, 10, 81, 76
14, 55664, Note_on_c, 10, 81, 0
14, 55680, Note_on_c, 10, 74, 76
14, 56159, Note_on_c, 10, 74, 0
14, 56160, Note_on_c, 10, 74, 76
14, 56744, Note_on_c, 10, 74, 0
14, 56760, Note_on_c, 10, 71, 76
14, 56864, Note_on_c, 10, 71, 0
14, 56880, Note_on_c, 10, 73, 76
14, 57104, Note_on_c, 10, 73, 0
14, 57120, Note_on_c, 10, 74, 76
14, 57599, Note_on_c, 10, 74, 0
14, 57599, End_track
15, 0, Start_track
15, 0, Title_t, "Violin II"
15, 0, MIDI_port, 0
15, 0, Program_c, 11, 48
15, 0, Control_c, 11, 10, 24
15, 0, Control_c, 11, 11, 127
15, 0, Control_c, 11, 7, 96
15, 0, Note_on_c, 11, 66, 76
15, 224, Note_on_c, 11, 66, 0
15, 240, Note_on_c, 11, 66, 76
15, 464, Note_on_c, 11, 66, 0
15, 480, Note_on_c, 11, 64, 76
15, 944, Note_on_c, 11, 64, 0
15, 960, Note_on_c, 11, 66, 76
15, 1064, Note_on_c, 11, 66, 0
15, 1080, Note_on_c, 11, 69, 76
15, 1184, Note_on_c, 11, 69, 0
15, 1200, Note_on_c, 11, 74, 76
15, 1664, Note_on_c, 11, 74, 0
15, 1680, Note_on_c, 11, 73, 76
15, 1919, Note_on_c, 11, 73, 0
15, 2160, Note_on_c, 11, 78, 76
15, 2399, Note_on_c, 11, 78, 0
15, 2640, Note_on_c, 11, 78, 76
15, 2879, Note_on_c, 11, 78, 0
15, 3000, Note_on_c, 11, 76, 76
15, 3104, Note_on_c, 11, 76, 0
15, 3120, Note_on_c, 11, 74, 76
15, 3224, Note_on_c, 11, 74, 0
15, 3240, Note_on_c, 11, 73, 76
15, 3344, Note_on_c, 11, 73, 0
15, 3360, Note_on_c, 11, 74, 76
15, 3584, Note_on_c, 11, 74, 0
15, 3600, Note_on_c, 11, 69, 76
15, 3824, Note_on_c, 11, 69, 0
15, 3840, Note_on_c, 11, 66, 76
15, 4064, Note_on_c, 11, 66, 0
15, 4080, Note_on_c, 11, 66, 76
15, 4304, Note_on_c, 11, 66, 0
15, 4320, Note_on_c, 11, 64, 76
15, 4784, Note_on_c, 11, 64, 0
15, 4800, Note_on_c, 11, 66, 76
15, 4904, Note_on_c, 11, 66, 0
15, 4920, Note_on_c, 11, 69, 76
15, 5024, Note_on_c, 11, 69, 0
15, 5040, Note_on_c, 11, 74, 76
15, 5504, Note_on_c, 11, 74, 0
15, 5520, Note_on_c, 11, 73, 76
15, 5759, Note_on_c, 11, 73, 0
15, 6240, Note_on_c, 11, 71, 76
15, 6359, Note_on_c, 11, 71, 0
15, 6360, Note_on_c, 11, 74, 76
15, 6419, Note_on_c, 11, 74, 0
15, 6420, Note_on_c, 11, 73, 76
15, 6471, Note_on_c, 11, 73, 0
15, 6480, Note_on_c, 11, 71, 76
15, 6719, Note_on_c, 11, 71, 0
15, 7200, Note_on_c, 11, 64, 76
15, 7304, Note_on_c, 11, 64, 0
15, 7320, Note_on_c, 11, 66, 76
15, 7371, Note_on_c, 11, 66, 0
15, 7380, Note_on_c, 11, 68, 76
15, 7431, Note_on_c, 11, 68, 0
15, 7440, Note_on_c, 11, 69, 76
15, 7491, Note_on_c, 11, 69, 0
15, 7500, Note_on_c, 11, 71, 76
15, 7551, Note_on_c, 11, 71, 0
15, 7560, Note_on_c, 11, 73, 76
15, 7611, Note_on_c, 11, 73, 0
15, 7620, Note_on_c, 11, 74, 76
15, 7671, Note_on_c, 11, 74, 0
15, 7680, Note_on_c, 11, 73, 76
15, 7919, Note_on_c, 11, 73, 0
15, 8160, Note_on_c, 11, 73, 76
15, 8399, Note_on_c, 11, 73, 0
15, 8520, Note_on_c, 11, 74, 76
15, 8624, Note_on_c, 11, 74, 0
15, 8640, Note_on_c, 11, 73, 76
15, 8744, Note_on_c, 11, 73, 0
15, 8760, Note_on_c, 11, 71, 76
15, 8864, Note_on_c, 11, 71, 0
15, 8880, Note_on_c, 11, 69, 76
15, 8984, Note_on_c, 11, 69, 0
15, 9000, Note_on_c, 11, 68, 76
15, 9104, Note_on_c, 11, 68, 0
15, 9120, Note_on_c, 11, 69, 76
15, 9584, Note_on_c, 11, 69, 0
15, 9600, Note_on_c, 11, 66, 76
15, 9824, Note_on_c, 11, 66, 0
15, 9840, Note_on_c, 11, 66, 76
15, 10064, Note_on_c, 11, 66, 0
15, 10080, Note_on_c, 11, 64, 76
15, 10544, Note_on_c, 11, 64, 0
15, 10560, Note_on_c, 11, 66, 76
15, 10664, Note_on_c, 11, 66, 0
15, 10680, Note_on_c, 11, 69, 76
15, 10784, Note_on_c, 11, 69, 0
15, 10800, Note_on_c, 11, 74, 76
15, 11264, Note_on_c, 11, 74, 0
15, 11280, Note_on_c, 11, 73, 76
15, 11519, Note_on_c, 11, 73, 0
15, 11760, Note_on_c, 11, 78, 76
15, 11999, Note_on_c, 11, 78, 0
15, 12240, Note_on_c, 11, 78, 76
15, 12479, Note_on_c, 11, 78, 0
15, 12600, Note_on_c, 11, 76, 76
15, 12704, Note_on_c, 11, 76, 0
15, 12720, Note_on_c, 11, 74, 76
15, 12824, Note_on_c, 11, 74, 0
15, 12840, Note_on_c, 11, 73, 76
15, 12944, Note_on_c, 11, 73, 0
15, 12960, Note_on_c, 11, 74, 76
15, 13184, Note_on_c, 11, 74, 0
15, 13200, Note_on_c, 11, 69, 76
15, 13424, Note_on_c, 11, 69, 0
15, 13440, Note_on_c, 11, 66, 76
15, 13664, Note_on_c, 11, 66, 0
15, 13680, Note_on_c, 11, 66, 76
15, 13904, Note_on_c, 11, 66, 0
15, 13920, Note_on_c, 11, 64, 76
15, 14384, Note_on_c, 11, 64, 0
15, 14400, Note_on_c, 11, 66, 76
15, 14504, Note_on_c, 11, 66, 0
15, 14520, Note_on_c, 11, 69, 76
15, 14624, Note_on_c, 11, 69, 0
15, 14640, Note_on_c, 11, 74, 76
15, 15104, Note_on_c, 11, 74, 0
15, 15120, Note_on_c, 11, 73, 76
15, 15359, Note_on_c, 11, 73, 0
15, 15840, Note_on_c, 11, 71, 76
15, 15959, Note_on_c, 11, 71, 0
15, 15960, Note_on_c, 11, 74, 76
15, 16019, Note_on_c, 11, 74, 0
15, 16020, Note_on_c, 11, 73, 76
15, 16071, Note_on_c, 11, 73, 0
15, 16080, Note_on_c, 11, 71, 76
15, 16319, Note_on_c, 11, 71, 0
15, 16800, Note_on_c, 11, 64, 76
15, 16904, Note_on_c, 11, 64, 0
15, 16920, Note_on_c, 11, 66, 76
15, 16971, Note_on_c, 11, 66, 0
15, 16980, Note_on_c, 11, 68, 76
15, 17031, Note_on_c, 11, 68, 0
15, 17040, Note_on_c, 11, 69, 76
15, 17091, Note_on_c, 11, 69, 0
15, 17100, Note_on_c, 11, 71, 76
15, 17151, Note_on_c, 11, 71, 0
15, 17160, Note_on_c, 11, 73, 76
15, 17211, Note_on_c, 11, 73, 0
15, 17220, Note_on_c, 11, 74, 76
15, 17271, Note_on_c, 11, 74, 0
15, 17280, Note_on_c, 11, 73, 76
15, 17519, Note_on_c, 11, 73, 0
15, 17760, Note_on_c, 11, 73, 76
15, 17999, Note_on_c, 11, 73, 0
15, 18120, Note_on_c, 11, 74, 76
15, 18224, Note_on_c, 11, 74, 0
15, 18240, Note_on_c, 11, 73, 76
15, 18344, Note_on_c, 11, 73, 0
15, 18360, Note_on_c, 11, 71, 76
15, 18464, Note_on_c, 11, 71, 0
15, 18480, Note_on_c, 11, 69, 76
15, 18584, Note_on_c, 11, 69, 0
15, 18600, Note_on_c, 11, 68, 76
15, 18704, Note_on_c, 11, 68, 0
15, 18720, Note_on_c, 11, 69, 76
15, 19184, Note_on_c, 11, 69, 0
15, 19200, Note_on_c, 11, 64, 76
15, 19424, Note_on_c, 11, 64, 0
15, 19440, Note_on_c, 11, 73, 76
15, 19664, Note_on_c, 11, 73, 0
15, 19680, Note_on_c, 11, 73, 76
15, 20144, Note_on_c, 11, 73, 0
15, 20160, Note_on_c, 11, 69, 76
15, 20384, Note_on_c, 11, 69, 0
15, 20400, Note_on_c, 11, 76, 76
15, 20864, Note_on_c, 11, 76, 0
15, 20880, Note_on_c, 11, 74, 76
15, 21119, Note_on_c, 11, 74, 0
15, 21360, Note_on_c, 11, 73, 76
15, 21599, Note_on_c, 11, 73, 0
15, 21840, Note_on_c, 11, 73, 76
15, 22079, Note_on_c, 11, 73, 0
15, 22200, Note_on_c, 11, 73, 76
15, 22304, Note_on_c, 11, 73, 0
15, 22320, Note_on_c, 11, 74, 76
15, 22424, Note_on_c, 11, 74, 0
15, 22440, Note_on_c, 11, 71, 76
15, 22544, Note_on_c, 11, 71, 0
15, 22560, Note_on_c, 11, 70, 76
15, 23024, Note_on_c, 11, 70, 0
15, 23040, Note_on_c, 11, 71, 76
15, 23264, Note_on_c, 11, 71, 0
15, 23280, Note_on_c, 11, 78, 76
15, 23504, Note_on_c, 11, 78, 0
15, 23520, Note_on_c, 11, 78, 76
15, 23984, Note_on_c, 11, 78, 0
15, 24000, Note_on_c, 11, 71, 76
15, 24224, Note_on_c, 11, 71, 0
15, 24240, Note_on_c, 11, 75, 76
15, 24464, Note_on_c, 11, 75, 0
15, 24480, Note_on_c, 11, 76, 76
15, 24944, Note_on_c, 11, 76, 0
15, 24960, Note_on_c, 11, 71, 76
15, 25184, Note_on_c, 11, 71, 0
15, 25200, Note_on_c, 11, 73, 76
15, 25664, Note_on_c, 11, 73, 0
15, 25680, Note_on_c, 11, 74, 76
15, 25904, Note_on_c, 11, 74, 0
15, 25920, Note_on_c, 11, 66, 76
15, 26144, Note_on_c, 11, 66, 0
15, 26160, Note_on_c, 11, 70, 76
15, 26384, Note_on_c, 11, 70, 0
15, 26400, Note_on_c, 11, 66, 76
15, 26879, Note_on_c, 11, 66, 0
15, 27360, Note_on_c, 11, 69, 76
15, 27479, Note_on_c, 11, 69, 0
15, 27480, Note_on_c, 11, 72, 76
15, 27539, Note_on_c, 11, 72, 0
15, 27540, Note_on_c, 11, 71, 76
15, 27591, Note_on_c, 11, 71, 0
15, 27600, Note_on_c, 11, 69, 76
15, 27839, Note_on_c, 11, 69, 0
15, 28320, Note_on_c, 11, 62, 76
15, 28424, Note_on_c, 11, 62, 0
15, 28440, Note_on_c, 11, 64, 76
15, 28491, Note_on_c, 11, 64, 0
15, 28500, Note_on_c, 11, 66, 76
15, 28551, Note_on_c, 11, 66, 0
15, 28560, Note_on_c, 11, 67, 76
15, 28611, Note_on_c, 11, 67, 0
15, 28620, Note_on_c, 11, 69, 76
15, 28671, Note_on_c, 11, 69, 0
15, 28680, Note_on_c, 11, 71, 76
15, 28731, Note_on_c, 11, 71, 0
15, 28740, Note_on_c, 11, 72, 76
15, 28791, Note_on_c, 11, 72, 0
15, 28800, Note_on_c, 11, 71, 76
15, 29024, Note_on_c, 11, 71, 0
15, 29040, Note_on_c, 11, 76, 76
15, 29504, Note_on_c, 11, 76, 0
15, 29520, Note_on_c, 11, 74, 76
15, 29624, Note_on_c, 11, 74, 0
15, 29640, Note_on_c, 11, 73, 76
15, 29744, Note_on_c, 11, 73, 0
15, 29760, Note_on_c, 11, 74, 76
15, 29984, Note_on_c, 11, 74, 0
15, 30000, Note_on_c, 11, 71, 76
15, 30224, Note_on_c, 11, 71, 0
15, 30240, Note_on_c, 11, 69, 76
15, 30464, Note_on_c, 11, 69, 0
15, 30480, Note_on_c, 11, 64, 76
15, 30704, Note_on_c, 11, 64, 0
15, 30720, Note_on_c, 11, 69, 76
15, 30824, Note_on_c, 11, 69, 0
15, 30840, Note_on_c, 11, 66, 76
15, 30891, Note_on_c, 11, 66, 0
15, 30900, Note_on_c, 11, 67, 76
15, 30951, Note_on_c, 11, 67, 0
15, 30960, Note_on_c, 11, 69, 76
15, 31064, Note_on_c, 11, 69, 0
15, 31080, Note_on_c, 11, 67, 76
15, 31131, Note_on_c, 11, 67, 0
15, 31140, Note_on_c, 11, 69, 76
15, 31191, Note_on_c, 11, 69, 0
15, 31200, Note_on_c, 11, 71, 76
15, 31439, Note_on_c, 11, 71, 0
15, 31680, Note_on_c, 11, 71, 76
15, 31784, Note_on_c, 11, 71, 0
15, 31800, Note_on_c, 11, 68, 76
15, 31851, Note_on_c, 11, 68, 0
15, 31860, Note_on_c, 11, 69, 76
15, 31911, Note_on_c, 11, 69, 0
15, 31920, Note_on_c, 11, 71, 76
15, 32024, Note_on_c, 11, 71, 0
15, 32040, Note_on_c, 11, 69, 76
15, 32091, Note_on_c, 11, 69, 0
15, 32100, Note_on_c, 11, 71, 76
15, 32151, Note_on_c, 11, 71, 0
15, 32160, Note_on_c, 11, 73, 76
15, 32399, Note_on_c, 11, 73, 0
15, 32640, Note_on_c, 11, 73, 76
15, 32744, Note_on_c, 11, 73, 0
15, 32760, Note_on_c, 11, 70, 76
15, 32811, Note_on_c, 11, 70, 0
15, 32820, Note_on_c, 11, 71, 76
15, 32871, Note_on_c, 11, 71, 0
15, 32880, Note_on_c, 11, 73, 76
15, 32984, Note_on_c, 11, 73, 0
15, 33000, Note_on_c, 11, 71, 76
15, 33051, Note_on_c, 11, 71, 0
15, 33060, Note_on_c, 11, 73, 76
15, 33111, Note_on_c, 11, 73, 0
15, 33120, Note_on_c, 11, 74, 76
15, 33359, Note_on_c, 11, 74, 0
15, 33600, Note_on_c, 11, 74, 76
15, 33704, Note_on_c, 11, 74, 0
15, 33720, Note_on_c, 11, 71, 76
15, 33771, Note_on_c, 11, 71, 0
15, 33780, Note_on_c, 11, 73, 76
15, 33831, Note_on_c, 11, 73, 0
15, 33840, Note_on_c, 11, 74, 76
15, 33944, Note_on_c, 11, 74, 0
15, 33960, Note_on_c, 11, 73, 76
15, 34011, Note_on_c, 11, 73, 0
15, 34020, Note_on_c, 11, 74, 76
15, 34071, Note_on_c, 11, 74, 0
15, 34080, Note_on_c, 11, 76, 76
15, 34544, Note_on_c, 11, 76, 0
15, 34560, Note_on_c, 11, 74, 76
15, 34784, Note_on_c, 11, 74, 0
15, 34800, Note_on_c, 11, 78, 76
15, 35264, Note_on_c, 11, 78, 0
15, 35280, Note_on_c, 11, 76, 76
15, 35504, Note_on_c, 11, 76, 0
15, 35520, Note_on_c, 11, 71, 76
15, 35744, Note_on_c, 11, 71, 0
15, 35760, Note_on_c, 11, 74, 76
15, 36224, Note_on_c, 11, 74, 0
15, 36240, Note_on_c, 11, 73, 76
15, 36479, Note_on_c, 11, 73, 0
15, 36720, Note_on_c, 11, 69, 76
15, 36959, Note_on_c, 11, 69, 0
15, 37200, Note_on_c, 11, 69, 76
15, 37439, Note_on_c, 11, 69, 0
15, 37560, Note_on_c, 11, 67, 76
15, 37664, Note_on_c, 11, 67, 0
15, 37680, Note_on_c, 11, 66, 76
15, 37784, Note_on_c, 11, 66, 0
15, 37800, Note_on_c, 11, 64, 76
15, 37904, Note_on_c, 11, 64, 0
15, 37920, Note_on_c, 11, 66, 76
15, 38384, Note_on_c, 11, 66, 0
15, 38400, Note_on_c, 11, 64, 76
15, 38624, Note_on_c, 11, 64, 0
15, 38640, Note_on_c, 11, 73, 76
15, 38864, Note_on_c, 11, 73, 0
15, 38880, Note_on_c, 11, 73, 76
15, 39344, Note_on_c, 11, 73, 0
15, 39360, Note_on_c, 11, 69, 76
15, 39584, Note_on_c, 11, 69, 0
15, 39600, Note_on_c, 11, 76, 76
15, 40064, Note_on_c, 11, 76, 0
15, 40080, Note_on_c, 11, 74, 76
15, 40319, Note_on_c, 11, 74, 0
15, 40560, Note_on_c, 11, 73, 76
15, 40799, Note_on_c, 11, 73, 0
15, 41040, Note_on_c, 11, 73, 76
15, 41279, Note_on_c, 11, 73, 0
15, 41400, Note_on_c, 11, 73, 76
15, 41504, Note_on_c, 11, 73, 0
15, 41520, Note_on_c, 11, 74, 76
15, 41624, Note_on_c, 11, 74, 0
15, 41640, Note_on_c, 11, 71, 76
15, 41744, Note_on_c, 11, 71, 0
15, 41760, Note_on_c, 11, 70, 76
15, 42224, Note_on_c, 11, 70, 0
15, 42240, Note_on_c, 11, 71, 76
15, 42464, Note_on_c, 11, 71, 0
15, 42480, Note_on_c, 11, 78, 76
15, 42704, Note_on_c, 11, 78, 0
15, 42720, Note_on_c, 11, 78, 76
15, 43184, Note_on_c, 11, 78, 0
15, 43200, Note_on_c, 11, 71, 76
15, 43424, Note_on_c, 11, 71, 0
15, 43440, Note_on_c, 11, 75, 76
15, 43664, Note_on_c, 11, 75, 0
15, 43680, Note_on_c, 11, 76, 76
15, 44144, Note_on_c, 11, 76, 0
15, 44160, Note_on_c, 11, 71, 76
15, 44384, Note_on_c, 11, 71, 0
15, 44400, Note_on_c, 11, 73, 76
15, 44864, Note_on_c, 11, 73, 0
15, 44880, Note_on_c, 11, 74, 76
15, 45104, Note_on_c, 11, 74, 0
15, 45120, Note_on_c, 11, 66, 76
15, 45344, Note_on_c, 11, 66, 0
15, 45360, Note_on_c, 11, 70, 76
15, 45584, Note_on_c, 11, 70, 0
15, 45600, Note_on_c, 11, 66, 76
15, 46079, Note_on_c, 11, 66, 0
15, 46560, Note_on_c, 11, 69, 76
15, 46679, Note_on_c, 11, 69, 0
15, 46680, Note_on_c, 11, 72, 76
15, 46739, Note_on_c, 11, 72, 0
15, 46740, Note_on_c, 11, 71, 76
15, 46791, Note_on_c, 11, 71, 0
15, 46800, Note_on_c, 11, 69, 76
15, 47039, Note_on_c, 11, 69, 0
15, 47520, Note_on_c, 11, 62, 76
15, 47624, Note_on_c, 11, 62, 0
15, 47640, Note_on_c, 11, 64, 76
15, 47691, Note_on_c, 11, 64, 0
15, 47700, Note_on_c, 11, 66, 76
15, 47751, Note_on_c, 11, 66, 0
15, 47760, Note_on_c, 11, 67, 76
15, 47811, Note_on_c, 11, 67, 0
15, 47820, Note_on_c, 11, 69, 76
15, 47871, Note_on_c, 11, 69, 0
15, 47880, Note_on_c, 11, 71, 76
15, 47931, Note_on_c, 11, 71, 0
15, 47940, Note_on_c, 11, 72, 76
15, 47991, Note_on_c, 11, 72, 0
15, 48000, Note_on_c, 11, 71, 76
15, 48224, Note_on_c, 11, 71, 0
15, 48240, Note_on_c, 11, 76, 76
15, 48704, Note_on_c, 11, 76, 0
15, 48720, Note_on_c, 11, 74, 76
15, 48824, Note_on_c, 11, 74, 0
15, 48840, Note_on_c, 11, 73, 76
15, 48944, Note_on_c, 11, 73, 0
15, 48960, Note_on_c, 11, 74, 76
15, 49184, Note_on_c, 11, 74, 0
15, 49200, Note_on_c, 11, 71, 76
15, 49424, Note_on_c, 11, 71, 0
15, 49440, Note_on_c, 11, 69, 76
15, 49664, Note_on_c, 11, 69, 0
15, 49680, Note_on_c, 11, 64, 76
15, 49904, Note_on_c, 11, 64, 0
15, 49920, Note_on_c, 11, 69, 76
15, 50024, Note_on_c, 11, 69, 0
15, 50040, Note_on_c, 11, 66, 76
15, 50091, Note_on_c, 11, 66, 0
15, 50100, Note_on_c, 11, 67, 76
15, 50151, Note_on_c, 11, 67, 0
15, 50160, Note_on_c, 11, 69, 76
15, 50264, Note_on_c, 11, 69, 0
15, 50280, Note_on_c, 11, 67, 76
15, 50331, Note_on_c, 11, 67, 0
15, 50340, Note_on_c, 11, 69, 76
15, 50391, Note_on_c, 11, 69, 0
15, 50400, Note_on_c, 11, 71, 76
15, 50639, Note_on_c, 11, 71, 0
15, 50880, Note_on_c, 11, 71, 76
15, 50984, Note_on_c, 11, 71, 0
15, 51000, Note_on_c, 11, 68, 76
15, 51051, Note_on_c, 11, 68, 0
15, 51060, Note_on_c, 11, 69, 76
15, 51111, Note_on_c, 11, 69, 0
15, 51120, Note_on_c, 11, 71, 76
15, 51224, Note_on_c, 11, 71, 0
15, 51240, Note_on_c, 11, 69, 76
15, 51291, Note_on_c, 11, 69, 0
15, 51300, Note_on_c, 11, 71, 76
15, 51351, Note_on_c, 11, 71, 0
15, 51360, Note_on_c, 11, 73, 76
15, 51599, Note_on_c, 11, 73, 0
15, 51840, Note_on_c, 11, 73, 76
15, 51944, Note_on_c, 11, 73, 0
15, 51960, Note_on_c, 11, 70, 76
15, 52011, Note_on_c, 11, 70, 0
15, 52020, Note_on_c, 11, 71, 76
15, 52071, Note_on_c, 11, 71, 0
15, 52080, Note_on_c, 11, 73, 76
15, 52184, Note_on_c, 11, 73, 0
15, 52200, Note_on_c, 11, 71, 76
15, 52251, Note_on_c, 11, 71, 0
15, 52260, Note_on_c, 11, 73, 76
15, 52311, Note_on_c, 11, 73, 0
15, 52320, Note_on_c, 11, 74, 76
15, 52559, Note_on_c, 11, 74, 0
15, 52800, Note_on_c, 11, 74, 76
15, 52904, Note_on_c, 11, 74, 0
15, 52920, Note_on_c, 11, 71, 76
15, 52971, Note_on_c, 11, 71, 0
15, 52980, Note_on_c, 11, 73, 76
15, 53031, Note_on_c, 11, 73, 0
15, 53040, Note_on_c, 11, 74, 76
15, 53144, Note_on_c, 11, 74, 0
15, 53160, Note_on_c, 11, 73, 76
15, 53211, Note_on_c, 11, 73, 0
15, 53220, Note_on_c, 11, 74, 76
15, 53271, Note_on_c, 11, 74, 0
15, 53280, Note_on_c, 11, 76, 76
15, 53744, Note_on_c, 11, 76, 0
15, 53760, Note_on_c, 11, 74, 76
15, 53984, Note_on_c, 11, 74, 0
15, 54000, Note_on_c, 11, 78, 76
15, 54464, Note_on_c, 11, 78, 0
15, 54480, Note_on_c, 11, 76, 76
15, 54704, Note_on_c, 11, 76, 0
15, 54720, Note_on_c, 11, 71, 76
15, 54944, Note_on_c, 11, 71, 0
15, 54960, Note_on_c, 11, 74, 76
15, 55424, Note_on_c, 11, 74, 0
15, 55440, Note_on_c, 11, 73, 76
15, 55679, Note_on_c, 11, 73, 0
15, 55920, Note_on_c, 11, 69, 76
15, 56159, Note_on_c, 11, 69, 0
15, 56400, Note_on_c, 11, 69, 76
15, 56639, Note_on_c, 11, 69, 0
15, 56760, Note_on_c, 11, 67, 76
15, 56864, Note_on_c, 11, 67, 0
15, 56880, Note_on_c, 11, 66, 76
15, 56984, Note_on_c, 11, 66, 0
15, 57000, Note_on_c, 11, 64, 76
15, 57104, Note_on_c, 11, 64, 0
15, 57120, Note_on_c, 11, 66, 76
15, 57599, Note_on_c, 11, 66, 0
15, 57599, End_track
16, 0, Start_track
16, 0, Title_t, "Viola"
16, 0, MIDI_port, 0
16, 0, Program_c, 12, 48
16, 0, Control_c, 12, 10, 70
16, 0, Control_c, 12, 11, 127
16, 0, Control_c, 12, 7, 96
16, 0, Note_on_c, 12, 62, 76
16, 224, Note_on_c, 12, 62, 0
16, 240, Note_on_c, 12, 69, 76
16, 464, Note_on_c, 12, 69, 0
16, 480, Note_on_c, 12, 69, 76
16, 944, Note_on_c, 12, 69, 0
16, 960, Note_on_c, 12, 62, 76
16, 1064, Note_on_c, 12, 62, 0
16, 1080, Note_on_c, 12, 66, 76
16, 1184, Note_on_c, 12, 66, 0
16, 1200, Note_on_c, 12, 69, 76
16, 1424, Note_on_c, 12, 69, 0
16, 1440, Note_on_c, 12, 69, 76
16, 1919, Note_on_c, 12, 69, 0
16, 2160, Note_on_c, 12, 62, 76
16, 2399, Note_on_c, 12, 62, 0
16, 2640, Note_on_c, 12, 74, 76
16, 2879, Note_on_c, 12, 74, 0
16, 3120, Note_on_c, 12, 69, 76
16, 3344, Note_on_c, 12, 69, 0
16, 3360, Note_on_c, 12, 69, 76
16, 3584, Note_on_c, 12, 69, 0
16, 3600, Note_on_c, 12, 66, 76
16, 3824, Note_on_c, 12, 66, 0
16, 3840, Note_on_c, 12, 62, 76
16, 4064, Note_on_c, 12, 62, 0
16, 4080, Note_on_c, 12, 69, 76
16, 4304, Note_on_c, 12, 69, 0
16, 4320, Note_on_c, 12, 69, 76
16, 4784, Note_on_c, 12, 69, 0
16, 4800, Note_on_c, 12, 62, 76
16, 4904, Note_on_c, 12, 62, 0
16, 4920, Note_on_c, 12, 66, 76
16, 5024, Note_on_c, 12, 66, 0
16, 5040, Note_on_c, 12, 69, 76
16, 5264, Note_on_c, 12, 69, 0
16, 5280, Note_on_c, 12, 69, 76
16, 5759, Note_on_c, 12, 69, 0
16, 6240, Note_on_c, 12, 64, 76
16, 7199, Note_on_c, 12, 64, 0
16, 7200, Note_on_c, 12, 64, 76
16, 7664, Note_on_c, 12, 64, 0
16, 7680, Note_on_c, 12, 69, 76
16, 7919, Note_on_c, 12, 69, 0
16, 8160, Note_on_c, 12, 69, 76
16, 8399, Note_on_c, 12, 69, 0
16, 8520, Note_on_c, 12, 69, 76
16, 8624, Note_on_c, 12, 69, 0
16, 8640, Note_on_c, 12, 69, 76
16, 8864, Note_on_c, 12, 69, 0
16, 8880, Note_on_c, 12, 64, 76
16, 9104, Note_on_c, 12, 64, 0
16, 9120, Note_on_c, 12, 61, 76
16, 9584, Note_on_c, 12, 61, 0
16, 9600, Note_on_c, 12, 62, 76
16, 9824, Note_on_c, 12, 62, 0
16, 9840, Note_on_c, 12, 69, 76
16, 10064, Note_on_c, 12, 69, 0
16, 10080, Note_on_c, 12, 69, 76
16, 10544, Note_on_c, 12, 69, 0
16, 10560, Note_on_c, 12, 62, 76
16, 10664, Note_on_c, 12, 62, 0
16, 10680, Note_on_c, 12, 66, 76
16, 10784, Note_on_c, 12, 66, 0
16, 10800, Note_on_c, 12, 69, 76
16, 11024, Note_on_c, 12, 69, 0
16, 11040, Note_on_c, 12, 69, 76
16, 11519, Note_on_c, 12, 69, 0
16, 11760, Note_on_c, 12, 62, 76
16, 11999, Note_on_c, 12, 62, 0
16, 12240, Note_on_c, 12, 74, 76
16, 12479, Note_on_c, 12, 74, 0
16, 12720, Note_on_c, 12, 69, 76
16, 12944, Note_on_c, 12, 69, 0
16, 12960, Note_on_c, 12, 69, 76
16, 13184, Note_on_c, 12, 69, 0
16, 13200, Note_on_c, 12, 66, 76
16, 13424, Note_on_c, 12, 66, 0
16, 13440, Note_on_c, 12, 62, 76
16, 13664, Note_on_c, 12, 62, 0
16, 13680, Note_on_c, 12, 69, 76
16, 13904, Note_on_c, 12, 69, 0
16, 13920, Note_on_c, 12, 69, 76
16, 14384, Note_on_c, 12, 69, 0
16, 14400, Note_on_c, 12, 62, 76
16, 14504, Note_on_c, 12, 62, 0
16, 14520, Note_on_c, 12, 66, 76
16, 14624, Note_on_c, 12, 66, 0
16, 14640, Note_on_c, 12, 69, 76
16, 14864, Note_on_c, 12, 69, 0
16, 14880, Note_on_c, 12, 69, 76
16, 15359, Note_on_c, 12, 69, 0
16, 15840, Note_on_c, 12, 64, 76
16, 16799, Note_on_c, 12, 64, 0
16, 16800, Note_on_c, 12, 64, 76
16, 17264, Note_on_c, 12, 64, 0
16, 17280, Note_on_c, 12, 69, 76
16, 17519, Note_on_c, 12, 69, 0
16, 17760, Note_on_c, 12, 69, 76
16, 17999, Note_on_c, 12, 69, 0
16, 18120, Note_on_c, 12, 69, 76
16, 18224, Note_on_c, 12, 69, 0
16, 18240, Note_on_c, 12, 69, 76
16, 18464, Note_on_c, 12, 69, 0
16, 18480, Note_on_c, 12, 64, 76
16, 18704, Note_on_c, 12, 64, 0
16, 18720, Note_on_c, 12, 61, 76
16, 19184, Note_on_c, 12, 61, 0
16, 19200, Note_on_c, 12, 61, 76
16, 19424, Note_on_c, 12, 61, 0
16, 19440, Note_on_c, 12, 69, 76
16, 19664, Note_on_c, 12, 69, 0
16, 19680, Note_on_c, 12, 69, 76
16, 20144, Note_on_c, 12, 69, 0
16, 20160, Note_on_c, 12, 66, 76
16, 20384, Note_on_c, 12, 66, 0
16, 20400, Note_on_c, 12, 69, 76
16, 20624, Note_on_c, 12, 69, 0
16, 20640, Note_on_c, 12, 69, 76
16, 21119, Note_on_c, 12, 69, 0
16, 21360, Note_on_c, 12, 70, 76
16, 21599, Note_on_c, 12, 70, 0
16, 21840, Note_on_c, 12, 70, 76
16, 22079, Note_on_c, 12, 70, 0
16, 22320, Note_on_c, 12, 66, 76
16, 22544, Note_on_c, 12, 66, 0
16, 22560, Note_on_c, 12, 66, 76
16, 23024, Note_on_c, 12, 66, 0
16, 23040, Note_on_c, 12, 66, 76
16, 23264, Note_on_c, 12, 66, 0
16, 23280, Note_on_c, 12, 74, 76
16, 23504, Note_on_c, 12, 74, 0
16, 23520, Note_on_c, 12, 75, 76
16, 23984, Note_on_c, 12, 75, 0
16, 24000, Note_on_c, 12, 66, 76
16, 24224, Note_on_c, 12, 66, 0
16, 24240, Note_on_c, 12, 71, 76
16, 24464, Note_on_c, 12, 71, 0
16, 24480, Note_on_c, 12, 71, 76
16, 25079, Note_on_c, 12, 71, 0
16, 25080, Note_on_c, 12, 69, 76
16, 25199, Note_on_c, 12, 69, 0
16, 25200, Note_on_c, 12, 67, 76
16, 25319, Note_on_c, 12, 67, 0
16, 25320, Note_on_c, 12, 66, 76
16, 25424, Note_on_c, 12, 66, 0
16, 25440, Note_on_c, 12, 64, 76
16, 25664, Note_on_c, 12, 64, 0
16, 25680, Note_on_c, 12, 66, 76
16, 25904, Note_on_c, 12, 66, 0
16, 25920, Note_on_c, 12, 66, 76
16, 26144, Note_on_c, 12, 66, 0
16, 26160, Note_on_c, 12, 64, 76
16, 26384, Note_on_c, 12, 64, 0
16, 26400, Note_on_c, 12, 62, 76
16, 26879, Note_on_c, 12, 62, 0
16, 27360, Note_on_c, 12, 62, 76
16, 28319, Note_on_c, 12, 62, 0
16, 28320, Note_on_c, 12, 62, 76
16, 28784, Note_on_c, 12, 62, 0
16, 28800, Note_on_c, 12, 62, 76
16, 29024, Note_on_c, 12, 62, 0
16, 29040, Note_on_c, 12, 71, 76
16, 29264, Note_on_c, 12, 71, 0
16, 29280, Note_on_c, 12, 69, 76
16, 29504, Note_on_c, 12, 69, 0
16, 29520, Note_on_c, 12, 69, 76
16, 29744, Note_on_c, 12, 69, 0
16, 29760, Note_on_c, 12, 69, 76
16, 29984, Note_on_c, 12, 69, 0
16, 30000, Note_on_c, 12, 67, 76
16, 30224, Note_on_c, 12, 67, 0
16, 30240, Note_on_c, 12, 64, 76
16, 30464, Note_on_c, 12, 64, 0
16, 30480, Note_on_c, 12, 61, 76
16, 30704, Note_on_c, 12, 61, 0
16, 30720, Note_on_c, 12, 66, 76
16, 30824, Note_on_c, 12, 66, 0
16, 30840, Note_on_c, 12, 62, 76
16, 30891, Note_on_c, 12, 62, 0
16, 30900, Note_on_c, 12, 64, 76
16, 30951, Note_on_c, 12, 64, 0
16, 30960, Note_on_c, 12, 66, 76
16, 31064, Note_on_c, 12, 66, 0
16, 31080, Note_on_c, 12, 64, 76
16, 31131, Note_on_c, 12, 64, 0
16, 31140, Note_on_c, 12, 66, 76
16, 31191, Note_on_c, 12, 66, 0
16, 31200, Note_on_c, 12, 67, 76
16, 31439, Note_on_c, 12, 67, 0
16, 31680, Note_on_c, 12, 68, 76
16, 31784, Note_on_c, 12, 68, 0
16, 31800, Note_on_c, 12, 64, 76
16, 31851, Note_on_c, 12, 64, 0
16, 31860, Note_on_c, 12, 66, 76
16, 31911, Note_on_c, 12, 66, 0
16, 31920, Note_on_c, 12, 68, 76
16, 32024, Note_on_c, 12, 68, 0
16, 32040, Note_on_c, 12, 66, 76
16, 32091, Note_on_c, 12, 66, 0
16, 32100, Note_on_c, 12, 68, 76
16, 32151, Note_on_c, 12, 68, 0
16, 32160, Note_on_c, 12, 69, 76
16, 32399, Note_on_c, 12, 69, 0
16, 32640, Note_on_c, 12, 70, 76
16, 32744, Note_on_c, 12, 70, 0
16, 32760, Note_on_c, 12, 66, 76
16, 32811, Note_on_c, 12, 66, 0
16, 32820, Note_on_c, 12, 68, 76
16, 32871, Note_on_c, 12, 68, 0
16, 32880, Note_on_c, 12, 70, 76
16, 32984, Note_on_c, 12, 70, 0
16, 33000, Note_on_c, 12, 68, 76
16, 33051, Note_on_c, 12, 68, 0
16, 33060, Note_on_c, 12, 70, 76
16, 33111, Note_on_c, 12, 70, 0
16, 33120, Note_on_c, 12, 71, 76
16, 33359, Note_on_c, 12, 71, 0
16, 33600, Note_on_c, 12, 71, 76
16, 33704, Note_on_c, 12, 71, 0
16, 33720, Note_on_c, 12, 67, 76
16, 33771, Note_on_c, 12, 67, 0
16, 33780, Note_on_c, 12, 69, 76
16, 33831, Note_on_c, 12, 69, 0
16, 33840, Note_on_c, 12, 71, 76
16, 33944, Note_on_c, 12, 71, 0
16, 33960, Note_on_c, 12, 69, 76
16, 34011, Note_on_c, 12, 69, 0
16, 34020, Note_on_c, 12, 71, 76
16, 34071, Note_on_c, 12, 71, 0
16, 34080, Note_on_c, 12, 73, 76
16, 34544, Note_on_c, 12, 73, 0
16, 34560, Note_on_c, 12, 69, 76
16, 34784, Note_on_c, 12, 69, 0
16, 34800, Note_on_c, 12, 69, 76
16, 35024, Note_on_c, 12, 69, 0
16, 35040, Note_on_c, 12, 69, 76
16, 35504, Note_on_c, 12, 69, 0
16, 35520, Note_on_c, 12, 71, 76
16, 35744, Note_on_c, 12, 71, 0
16, 35760, Note_on_c, 12, 68, 76
16, 35984, Note_on_c, 12, 68, 0
16, 36000, Note_on_c, 12, 64, 76
16, 36479, Note_on_c, 12, 64, 0
16, 36720, Note_on_c, 12, 66, 76
16, 36959, Note_on_c, 12, 66, 0
16, 37200, Note_on_c, 12, 66, 76
16, 37439, Note_on_c, 12, 66, 0
16, 37560, Note_on_c, 12, 64, 76
16, 37679, Note_on_c, 12, 64, 0
16, 37680, Note_on_c, 12, 57, 76
16, 37904, Note_on_c, 12, 57, 0
16, 37920, Note_on_c, 12, 57, 76
16, 38384, Note_on_c, 12, 57, 0
16, 38400, Note_on_c, 12, 61, 76
16, 38624, Note_on_c, 12, 61, 0
16, 38640, Note_on_c, 12, 69, 76
16, 38864, Note_on_c, 12, 69, 0
16, 38880, Note_on_c, 12, 69, 76
16, 39344, Note_on_c, 12, 69, 0
16, 39360, Note_on_c, 12, 66, 76
16, 39584, Note_on_c, 12, 66, 0
16, 39600, Note_on_c, 12, 69, 76
16, 39824, Note_on_c, 12, 69, 0
16, 39840, Note_on_c, 12, 69, 76
16, 40319, Note_on_c, 12, 69, 0
16, 40560, Note_on_c, 12, 70, 76
16, 40799, Note_on_c, 12, 70, 0
16, 41040, Note_on_c, 12, 70, 76
16, 41279, Note_on_c, 12, 70, 0
16, 41520, Note_on_c, 12, 66, 76
16, 41744, Note_on_c, 12, 66, 0
16, 41760, Note_on_c, 12, 66, 76
16, 42224, Note_on_c, 12, 66, 0
16, 42240, Note_on_c, 12, 66, 76
16, 42464, Note_on_c, 12, 66, 0
16, 42480, Note_on_c, 12, 74, 76
16, 42704, Note_on_c, 12, 74, 0
16, 42720, Note_on_c, 12, 75, 76
16, 43184, Note_on_c, 12, 75, 0
16, 43200, Note_on_c, 12, 66, 76
16, 43424, Note_on_c, 12, 66, 0
16, 43440, Note_on_c, 12, 71, 76
16, 43664, Note_on_c, 12, 71, 0
16, 43680, Note_on_c, 12, 71, 76
16, 44279, Note_on_c, 12, 71, 0
16, 44280, Note_on_c, 12, 69, 76
16, 44399, Note_on_c, 12, 69, 0
16, 44400, Note_on_c, 12, 67, 76
16, 44519, Note_on_c, 12, 67, 0
16, 44520, Note_on_c, 12, 66, 76
16, 44624, Note_on_c, 12, 66, 0
16, 44640, Note_on_c, 12, 64, 76
16, 44864, Note_on_c, 12, 64, 0
16, 44880, Note_on_c, 12, 66, 76
16, 45104, Note_on_c, 12, 66, 0
16, 45120, Note_on_c, 12, 66, 76
16, 45344, Note_on_c, 12, 66, 0
16, 45360, Note_on_c, 12, 64, 76
16, 45584, Note_on_c, 12, 64, 0
16, 45600, Note_on_c, 12, 62, 76
16, 46079, Note_on_c, 12, 62, 0
16, 46560, Note_on_c, 12, 62, 76
16, 47519, Note_on_c, 12, 62, 0
16, 47520, Note_on_c, 12, 62, 76
16, 47984, Note_on_c, 12, 62, 0
16, 48000, Note_on_c, 12, 62, 76
16, 48224, Note_on_c, 12, 62, 0
16, 48240, Note_on_c, 12, 71, 76
16, 48464, Note_on_c, 12, 71, 0
16, 48480, Note_on_c, 12, 69, 76
16, 48704, Note_on_c, 12, 69, 0
16, 48720, Note_on_c, 12, 69, 76
16, 48944, Note_on_c, 12, 69, 0
16, 48960, Note_on_c, 12, 69, 76
16, 49184, Note_on_c, 12, 69, 0
16, 49200, Note_on_c, 12, 67, 76
16, 49424, Note_on_c, 12, 67, 0
16, 49440, Note_on_c, 12, 64, 76
16, 49664, Note_on_c, 12, 64, 0
16, 49680, Note_on_c, 12, 61, 76
16, 49904, Note_on_c, 12, 61, 0
16, 49920, Note_on_c, 12, 66, 76
16, 50024, Note_on_c, 12, 66, 0
16, 50040, Note_on_c, 12, 62, 76
16, 50091, Note_on_c, 12, 62, 0
16, 50100, Note_on_c, 12, 64, 76
16, 50151, Note_on_c, 12, 64, 0
16, 50160, Note_on_c, 12, 66, 76
16, 50264, Note_on_c, 12, 66, 0
16, 50280, Note_on_c, 12, 64, 76
16, 50331, Note_on_c, 12, 64, 0
16, 50340, Note_on_c, 12, 66, 76
16, 50391, Note_on_c, 12, 66, 0
16, 50400, Note_on_c, 12, 67, 76
16, 50639, Note_on_c, 12, 67, 0
16, 50880, Note_on_c, 12, 68, 76
16, 50984, Note_on_c, 12, 68, 0
16, 51000, Note_on_c, 12, 64, 76
16, 51051, Note_on_c, 12, 64, 0
16, 51060, Note_on_c, 12, 66, 76
16, 51111, Note_on_c, 12, 66, 0
16, 51120, Note_on_c, 12, 68, 76
16, 51224, Note_on_c, 12, 68, 0
16, 51240, Note_on_c, 12, 66, 76
16, 51291, Note_on_c, 12, 66, 0
16, 51300, Note_on_c, 12, 68, 76
16, 51351, Note_on_c, 12, 68, 0
16, 51360, Note_on_c, 12, 69, 76
16, 51599, Note_on_c, 12, 69, 0
16, 51840, Note_on_c, 12, 70, 76
16, 51944, Note_on_c, 12, 70, 0
16, 51960, Note_on_c, 12, 66, 76
16, 52011, Note_on_c, 12, 66, 0
16, 52020, Note_on_c, 12, 68, 76
16, 52071, Note_on_c, 12, 68, 0
16, 52080, Note_on_c, 12, 70, 76
16, 52184, Note_on_c, 12, 70, 0
16, 52200, Note_on_c, 12, 68, 76
16, 52251, Note_on_c, 12, 68, 0
16, 52260, Note_on_c, 12, 70, 76
16, 52311, Note_on_c, 12, 70, 0
16, 52320, Note_on_c, 12, 71, 76
16, 52559, Note_on_c, 12, 71, 0
16, 52800, Note_on_c, 12, 71, 76
16, 52904, Note_on_c, 12, 71, 0
16, 52920, Note_on_c, 12, 67, 76
16, 52971, Note_on_c, 12, 67, 0
16, 52980, Note_on_c, 12, 69, 76
16, 53031, Note_on_c, 12, 69, 0
16, 53040, Note_on_c, 12, 71, 76
16, 53144, Note_on_c, 12, 71, 0
16, 53160, Note_on_c, 12, 69, 76
16, 53211, Note_on_c, 12, 69, 0
16, 53220, Note_on_c, 12, 71, 76
16, 53271, Note_on_c, 12, 71, 0
16, 53280, Note_on_c, 12, 73, 76
16, 53744, Note_on_c, 12, 73, 0
16, 53760, Note_on_c, 12, 69, 76
16, 53984, Note_on_c, 12, 69, 0
16, 54000, Note_on_c, 12, 69, 76
16, 54224, Note_on_c, 12, 69, 0
16, 54240, Note_on_c, 12, 69, 76
16, 54704, Note_on_c, 12, 69, 0
16, 54720, Note_on_c, 12, 71, 76
16, 54944, Note_on_c, 12, 71, 0
16, 54960, Note_on_c, 12, 68, 76
16, 55184, Note_on_c, 12, 68, 0
16, 55200, Note_on_c, 12, 64, 76
16, 55679, Note_on_c, 12, 64, 0
16, 55920, Note_on_c, 12, 66, 76
16, 56159, Note_on_c, 12, 66, 0
16, 56400, Note_on_c, 12, 66, 76
16, 56639, Note_on_c, 12, 66, 0
16, 56760, Note_on_c, 12, 64, 76
16, 56879, Note_on_c, 12, 64, 0
16, 56880, Note_on_c, 12, 57, 76
16, 57104, Note_on_c, 12, 57, 0
16, 57120, Note_on_c, 12, 57, 76
16, 57599, Note_on_c, 12, 57, 0
16, 57599, End_track
17, 0, Start_track
17, 0, Title_t, "Cello"
17, 0, MIDI_port, 0
17, 0, Program_c, 13, 48
17, 0, Control_c, 13, 10, 90
17, 0, Control_c, 13, 11, 127
17, 0, Control_c, 13, 7, 96
17, 0, Note_on_c, 13, 50, 76
17, 119, Note_on_c, 13, 50, 0
17, 120, Note_on_c, 13, 52, 76
17, 239, Note_on_c, 13, 52, 0
17, 240, Note_on_c, 13, 54, 76
17, 359, Note_on_c, 13, 54, 0
17, 360, Note_on_c, 13, 55, 76
17, 464, Note_on_c, 13, 55, 0
17, 480, Note_on_c, 13, 57, 76
17, 944, Note_on_c, 13, 57, 0
17, 960, Note_on_c, 13, 55, 76
17, 1079, Note_on_c, 13, 55, 0
17, 1080, Note_on_c, 13, 54, 76
17, 1199, Note_on_c, 13, 54, 0
17, 1200, Note_on_c, 13, 52, 76
17, 1319, Note_on_c, 13, 52, 0
17, 1320, Note_on_c, 13, 50, 76
17, 1424, Note_on_c, 13, 50, 0
17, 1440, Note_on_c, 13, 57, 76
17, 1904, Note_on_c, 13, 57, 0
17, 1920, Note_on_c, 13, 54, 76
17, 2024, Note_on_c, 13, 54, 0
17, 2040, Note_on_c, 13, 50, 76
17, 2091, Note_on_c, 13, 50, 0
17, 2100, Note_on_c, 13, 52, 76
17, 2151, Note_on_c, 13, 52, 0
17, 2160, Note_on_c, 13, 54, 76
17, 2264, Note_on_c, 13, 54, 0
17, 2280, Note_on_c, 13, 52, 76
17, 2331, Note_on_c, 13, 52, 0
17, 2340, Note_on_c, 13, 54, 76
17, 2391, Note_on_c, 13, 54, 0
17, 2400, Note_on_c, 13, 55, 76
17, 2504, Note_on_c, 13, 55, 0
17, 2520, Note_on_c, 13, 52, 76
17, 2571, Note_on_c, 13, 52, 0
17, 2580, Note_on_c, 13, 54, 76
17, 2631, Note_on_c, 13, 54, 0
17, 2640, Note_on_c, 13, 55, 76
17, 2744, Note_on_c, 13, 55, 0
17, 2760, Note_on_c, 13, 54, 76
17, 2811, Note_on_c, 13, 54, 0
17, 2820, Note_on_c, 13, 55, 76
17, 2871, Note_on_c, 13, 55, 0
17, 2880, Note_on_c, 13, 57, 76
17, 3104, Note_on_c, 13, 57, 0
17, 3120, Note_on_c, 13, 45, 76
17, 3344, Note_on_c, 13, 45, 0
17, 3360, Note_on_c, 13, 50, 76
17, 3584, Note_on_c, 13, 50, 0
17, 3600, Note_on_c, 13, 38, 76
17, 3824, Note_on_c, 13, 38, 0
17, 3840, Note_on_c, 13, 50, 76
17, 3959, Note_on_c, 13, 50, 0
17, 3960, Note_on_c, 13, 52, 76
17, 4079, Note_on_c, 13, 52, 0
17, 4080, Note_on_c, 13, 54, 76
17, 4199, Note_on_c, 13, 54, 0
17, 4200, Note_on_c, 13, 55, 76
17, 4304, Note_on_c, 13, 55, 0
17, 4320, Note_on_c, 13, 57, 76
17, 4784, Note_on_c, 13, 57, 0
17, 4800, Note_on_c, 13, 55, 76
17, 4919, Note_on_c, 13, 55, 0
17, 4920, Note_on_c, 13, 54, 76
17, 5039, Note_on_c, 13, 54, 0
17, 5040, Note_on_c, 13, 52, 76
17, 5159, Note_on_c, 13, 52, 0
17, 5160, Note_on_c, 13, 50, 76
17, 5264, Note_on_c, 13, 50, 0
17, 5280, Note_on_c, 13, 57, 76
17, 5744, Note_on_c, 13, 57, 0
17, 5760, Note_on_c, 13, 52, 76
17, 5939, Note_on_c, 13, 52, 0
17, 6000, Note_on_c, 13, 40, 76
17, 6179, Note_on_c, 13, 40, 0
17, 6720, Note_on_c, 13, 52, 76
17, 6899, Note_on_c, 13, 52, 0
17, 6960, Note_on_c, 13, 40, 76
17, 7139, Note_on_c, 13, 40, 0
17, 7680, Note_on_c, 13, 49, 76
17, 7784, Note_on_c, 13, 49, 0
17, 7800, Note_on_c, 13, 45, 76
17, 7851, Note_on_c, 13, 45, 0
17, 7860, Note_on_c, 13, 47, 76
17, 7911, Note_on_c, 13, 47, 0
17, 7920, Note_on_c, 13, 49, 76
17, 8024, Note_on_c, 13, 49, 0
17, 8040, Note_on_c, 13, 47, 76
17, 8091, Note_on_c, 13, 47, 0
17, 8100, Note_on_c, 13, 49, 76
17, 8151, Note_on_c, 13, 49, 0
17, 8160, Note_on_c, 13, 50, 76
17, 8264, Note_on_c, 13, 50, 0
17, 8280, Note_on_c, 13, 47, 76
17, 8331, Note_on_c, 13, 47, 0
17, 8340, Note_on_c, 13, 49, 76
17, 8391, Note_on_c, 13, 49, 0
17, 8400, Note_on_c, 13, 50, 76
17, 8504, Note_on_c, 13, 50, 0
17, 8520, Note_on_c, 13, 49, 76
17, 8571, Note_on_c, 13, 49, 0
17, 8580, Note_on_c, 13, 50, 76
17, 8631, Note_on_c, 13, 50, 0
17, 8640, Note_on_c, 13, 52, 76
17, 8864, Note_on_c, 13, 52, 0
17, 8880, Note_on_c, 13, 40, 76
17, 9104, Note_on_c, 13, 40, 0
17, 9120, Note_on_c, 13, 45, 76
17, 9584, Note_on_c, 13, 45, 0
17, 9600, Note_on_c, 13, 50, 76
17, 9719, Note_on_c, 13, 50, 0
17, 9720, Note_on_c, 13, 52, 76
17, 9839, Note_on_c, 13, 52, 0
17, 9840, Note_on_c, 13, 54, 76
17, 9959, Note_on_c, 13, 54, 0
17, 9960, Note_on_c, 13, 55, 76
17, 10064, Note_on_c, 13, 55, 0
17, 10080, Note_on_c, 13, 57, 76
17, 10544, Note_on_c, 13, 57, 0
17, 10560, Note_on_c, 13, 55, 76
17, 10679, Note_on_c, 13, 55, 0
17, 10680, Note_on_c, 13, 54, 76
17, 10799, Note_on_c, 13, 54, 0
17, 10800, Note_on_c, 13, 52, 76
17, 10919, Note_on_c, 13, 52, 0
17, 10920, Note_on_c, 13, 50, 76
17, 11024, Note_on_c, 13, 50, 0
17, 11040, Note_on_c, 13, 57, 76
17, 11504, Note_on_c, 13, 57, 0
17, 11520, Note_on_c, 13, 54, 76
17, 11624, Note_on_c, 13, 54, 0
17, 11640, Note_on_c, 13, 50, 76
17, 11691, Note_on_c, 13, 50, 0
17, 11700, Note_on_c, 13, 52, 76
17, 11751, Note_on_c, 13, 52, 0
17, 11760, Note_on_c, 13, 54, 76
17, 11864, Note_on_c, 13, 54, 0
17, 11880, Note_on_c, 13, 52, 76
17, 11931, Note_on_c, 13, 52, 0
17, 11940, Note_on_c, 13, 54, 76
17, 11991, Note_on_c, 13, 54, 0
17, 12000, Note_on_c, 13, 55, 76
17, 12104, Note_on_c, 13, 55, 0
17, 12120, Note_on_c, 13, 52, 76
17, 12171, Note_on_c, 13, 52, 0
17, 12180, Note_on_c, 13, 54, 76
17, 12231, Note_on_c, 13, 54, 0
17, 12240, Note_on_c, 13, 55, 76
17, 12344, Note_on_c, 13, 55, 0
17, 12360, Note_on_c, 13, 54, 76
17, 12411, Note_on_c, 13, 54, 0
17, 12420, Note_on_c, 13, 55, 76
17, 12471, Note_on_c, 13, 55, 0
17, 12480, Note_on_c, 13, 57, 76
17, 12704, Note_on_c, 13, 57, 0
17, 12720, Note_on_c, 13, 45, 76
17, 12944, Note_on_c, 13, 45, 0
17, 12960, Note_on_c, 13, 50, 76
17, 13184, Note_on_c, 13, 50, 0
17, 13200, Note_on_c, 13, 38, 76
17, 13424, Note_on_c, 13, 38, 0
17, 13440, Note_on_c, 13, 50, 76
17, 13559, Note_on_c, 13, 50, 0
17, 13560, Note_on_c, 13, 52, 76
17, 13679, Note_on_c, 13, 52, 0
17, 13680, Note_on_c, 13, 54, 76
17, 13799, Note_on_c, 13, 54, 0
17, 13800, Note_on_c, 13, 55, 76
17, 13904, Note_on_c, 13, 55, 0
17, 13920, Note_on_c, 13, 57, 76
17, 14384, Note_on_c, 13, 57, 0
17, 14400, Note_on_c, 13, 55, 76
17, 14519, Note_on_c, 13, 55, 0
17, 14520, Note_on_c, 13, 54, 76
17, 14639, Note_on_c, 13, 54, 0
17, 14640, Note_on_c, 13, 52, 76
17, 14759, Note_on_c, 13, 52, 0
17, 14760, Note_on_c, 13, 50, 76
17, 14864, Note_on_c, 13, 50, 0
17, 14880, Note_on_c, 13, 57, 76
17, 15344, Note_on_c, 13, 57, 0
17, 15360, Note_on_c, 13, 52, 76
17, 15539, Note_on_c, 13, 52, 0
17, 15600, Note_on_c, 13, 40, 76
17, 15779, Note_on_c, 13, 40, 0
17, 16320, Note_on_c, 13, 52, 76
17, 16499, Note_on_c, 13, 52, 0
17, 16560, Note_on_c, 13, 40, 76
17, 16739, Note_on_c, 13, 40, 0
17, 17280, Note_on_c, 13, 49, 76
17, 17384, Note_on_c, 13, 49, 0
17, 17400, Note_on_c, 13, 45, 76
17, 17451, Note_on_c, 13, 45, 0
17, 17460, Note_on_c, 13, 47, 76
17, 17511, Note_on_c, 13, 47, 0
17, 17520, Note_on_c, 13, 49, 76
17, 17624, Note_on_c, 13, 49, 0
17, 17640, Note_on_c, 13, 47, 76
17, 17691, Note_on_c, 13, 47, 0
17, 17700, Note_on_c, 13, 49, 76
17, 17751, Note_on_c, 13, 49, 0
17, 17760, Note_on_c, 13, 50, 76
17, 17864, Note_on_c, 13, 50, 0
17, 17880, Note_on_c, 13, 47, 76
17, 17931, Note_on_c, 13, 47, 0
17, 17940, Note_on_c, 13, 49, 76
17, 17991, Note_on_c, 13, 49, 0
17, 18000, Note_on_c, 13, 50, 76
17, 18104, Note_on_c, 13, 50, 0
17, 18120, Note_on_c, 13, 49, 76
17, 18171, Note_on_c, 13, 49, 0
17, 18180, Note_on_c, 13, 50, 76
17, 18231, Note_on_c, 13, 50, 0
17, 18240, Note_on_c, 13, 52, 76
17, 18464, Note_on_c, 13, 52, 0
17, 18480, Note_on_c, 13, 40, 76
17, 18704, Note_on_c, 13, 40, 0
17, 18720, Note_on_c, 13, 45, 76
17, 19184, Note_on_c, 13, 45, 0
17, 19200, Note_on_c, 13, 57, 76
17, 19319, Note_on_c, 13, 57, 0
17, 19320, Note_on_c, 13, 55, 76
17, 19439, Note_on_c, 13, 55, 0
17, 19440, Note_on_c, 13, 54, 76
17, 19559, Note_on_c, 13, 54, 0
17, 19560, Note_on_c, 13, 52, 76
17, 19664, Note_on_c, 13, 52, 0
17, 19680, Note_on_c, 13, 54, 76
17, 20144, Note_on_c, 13, 54, 0
17, 20160, Note_on_c, 13, 54, 76
17, 20279, Note_on_c, 13, 54, 0
17, 20280, Note_on_c, 13, 52, 76
17, 20399, Note_on_c, 13, 52, 0
17, 20400, Note_on_c, 13, 50, 76
17, 20519, Note_on_c, 13, 50, 0
17, 20520, Note_on_c, 13, 49, 76
17, 20624, Note_on_c, 13, 49, 0
17, 20640, Note_on_c, 13, 50, 76
17, 21104, Note_on_c, 13, 50, 0
17, 21120, Note_on_c, 13, 49, 76
17, 21224, Note_on_c, 13, 49, 0
17, 21240, Note_on_c, 13, 46, 76
17, 21291, Note_on_c, 13, 46, 0
17, 21300, Note_on_c, 13, 47, 76
17, 21351, Note_on_c, 13, 47, 0
17, 21360, Note_on_c, 13, 49, 76
17, 21464, Note_on_c, 13, 49, 0
17, 21480, Note_on_c, 13, 50, 76
17, 21531, Note_on_c, 13, 50, 0
17, 21540, Note_on_c, 13, 52, 76
17, 21591, Note_on_c, 13, 52, 0
17, 21600, Note_on_c, 13, 54, 76
17, 21704, Note_on_c, 13, 54, 0
17, 21720, Note_on_c, 13, 50, 76
17, 21771, Note_on_c, 13, 50, 0
17, 21780, Note_on_c, 13, 52, 76
17, 21831, Note_on_c, 13, 52, 0
17, 21840, Note_on_c, 13, 54, 76
17, 21944, Note_on_c, 13, 54, 0
17, 21960, Note_on_c, 13, 56, 76
17, 22011, Note_on_c, 13, 56, 0
17, 22020, Note_on_c, 13, 58, 76
17, 22071, Note_on_c, 13, 58, 0
17, 22080, Note_on_c, 13, 59, 76
17, 22304, Note_on_c, 13, 59, 0
17, 22320, Note_on_c, 13, 50, 76
17, 22424, Note_on_c, 13, 50, 0
17, 22440, Note_on_c, 13, 52, 76
17, 22544, Note_on_c, 13, 52, 0
17, 22560, Note_on_c, 13, 54, 76
17, 23024, Note_on_c, 13, 54, 0
17, 23040, Note_on_c, 13, 52, 76
17, 23159, Note_on_c, 13, 52, 0
17, 23160, Note_on_c, 13, 50, 76
17, 23264, Note_on_c, 13, 50, 0
17, 23280, Note_on_c, 13, 49, 76
17, 23399, Note_on_c, 13, 49, 0
17, 23400, Note_on_c, 13, 47, 76
17, 23504, Note_on_c, 13, 47, 0
17, 23520, Note_on_c, 13, 57, 76
17, 23984, Note_on_c, 13, 57, 0
17, 24000, Note_on_c, 13, 52, 76
17, 24119, Note_on_c, 13, 52, 0
17, 24120, Note_on_c, 13, 51, 76
17, 24224, Note_on_c, 13, 51, 0
17, 24240, Note_on_c, 13, 49, 76
17, 24359, Note_on_c, 13, 49, 0
17, 24360, Note_on_c, 13, 47, 76
17, 24464, Note_on_c, 13, 47, 0
17, 24480, Note_on_c, 13, 52, 76
17, 24944, Note_on_c, 13, 52, 0
17, 24960, Note_on_c, 13, 55, 76
17, 25079, Note_on_c, 13, 55, 0
17, 25080, Note_on_c, 13, 54, 76
17, 25184, Note_on_c, 13, 54, 0
17, 25200, Note_on_c, 13, 52, 76
17, 25319, Note_on_c, 13, 52, 0
17, 25320, Note_on_c, 13, 50, 76
17, 25424, Note_on_c, 13, 50, 0
17, 25440, Note_on_c, 13, 49, 76
17, 25664, Note_on_c, 13, 49, 0
17, 25680, Note_on_c, 13, 47, 76
17, 25904, Note_on_c, 13, 47, 0
17, 25920, Note_on_c, 13, 54, 76
17, 26144, Note_on_c, 13, 54, 0
17, 26160, Note_on_c, 13, 42, 76
17, 26384, Note_on_c, 13, 42, 0
17, 26400, Note_on_c, 13, 47, 76
17, 26864, Note_on_c, 13, 47, 0
17, 26880, Note_on_c, 13, 50, 76
17, 27104, Note_on_c, 13, 50, 0
17, 27120, Note_on_c, 13, 38, 76
17, 27359, Note_on_c, 13, 38, 0
17, 27840, Note_on_c, 13, 50, 76
17, 28064, Note_on_c, 13, 50, 0
17, 28080, Note_on_c, 13, 38, 76
17, 28319, Note_on_c, 13, 38, 0
17, 28800, Note_on_c, 13, 55, 76
17, 28919, Note_on_c, 13, 55, 0
17, 28920, Note_on_c, 13, 54, 76
17, 29024, Note_on_c, 13, 54, 0
17, 29040, Note_on_c, 13, 52, 76
17, 29159, Note_on_c, 13, 52, 0
17, 29160, Note_on_c, 13, 50, 76
17, 29264, Note_on_c, 13, 50, 0
17, 29280, Note_on_c, 13, 49, 76
17, 29504, Note_on_c, 13, 49, 0
17, 29520, Note_on_c, 13, 45, 76
17, 29744, Note_on_c, 13, 45, 0
17, 29760, Note_on_c, 13, 50, 76
17, 29984, Note_on_c, 13, 50, 0
17, 30000, Note_on_c, 13, 43, 76
17, 30224, Note_on_c, 13, 43, 0
17, 30240, Note_on_c, 13, 45, 76
17, 30719, Note_on_c, 13, 45, 0
17, 31200, Note_on_c, 13, 55, 76
17, 31424, Note_on_c, 13, 55, 0
17, 31440, Note_on_c, 13, 43, 76
17, 31679, Note_on_c, 13, 43, 0
17, 32160, Note_on_c, 13, 57, 76
17, 32384, Note_on_c, 13, 57, 0
17, 32400, Note_on_c, 13, 45, 76
17, 32639, Note_on_c, 13, 45, 0
17, 33120, Note_on_c, 13, 59, 76
17, 33344, Note_on_c, 13, 59, 0
17, 33360, Note_on_c, 13, 47, 76
17, 33599, Note_on_c, 13, 47, 0
17, 34080, Note_on_c, 13, 55, 76
17, 34544, Note_on_c, 13, 55, 0
17, 34560, Note_on_c, 13, 55, 76
17, 34679, Note_on_c, 13, 55, 0
17, 34680, Note_on_c, 13, 54, 76
17, 34784, Note_on_c, 13, 54, 0
17, 34800, Note_on_c, 13, 52, 76
17, 34919, Note_on_c, 13, 52, 0
17, 34920, Note_on_c, 13, 50, 76
17, 35024, Note_on_c, 13, 50, 0
17, 35040, Note_on_c, 13, 57, 76
17, 35504, Note_on_c, 13, 57, 0
17, 35520, Note_on_c, 13, 57, 76
17, 35639, Note_on_c, 13, 57, 0
17, 35640, Note_on_c, 13, 56, 76
17, 35744, Note_on_c, 13, 56, 0
17, 35760, Note_on_c, 13, 54, 76
17, 35879, Note_on_c, 13, 54, 0
17, 35880, Note_on_c, 13, 52, 76
17, 35984, Note_on_c, 13, 52, 0
17, 36000, Note_on_c, 13, 57, 76
17, 36464, Note_on_c, 13, 57, 0
17, 36480, Note_on_c, 13, 54, 76
17, 36584, Note_on_c, 13, 54, 0
17, 36600, Note_on_c, 13, 50, 76
17, 36651, Note_on_c, 13, 50, 0
17, 36660, Note_on_c, 13, 52, 76
17, 36711, Note_on_c, 13, 52, 0
17, 36720, Note_on_c, 13, 54, 76
17, 36824, Note_on_c, 13, 54, 0
17, 36840, Note_on_c, 13, 52, 76
17, 36891, Note_on_c, 13, 52, 0
17, 36900, Note_on_c, 13, 54, 76
17, 36951, Note_on_c, 13, 54, 0
17, 36960, Note_on_c, 13, 55, 76
17, 37079, Note_on_c, 13, 55, 0
17, 37080, Note_on_c, 13, 52, 76
17, 37131, Note_on_c, 13, 52, 0
17, 37140, Note_on_c, 13, 54, 76
17, 37191, Note_on_c, 13, 54, 0
17, 37200, Note_on_c, 13, 55, 76
17, 37304, Note_on_c, 13, 55, 0
17, 37320, Note_on_c, 13, 54, 76
17, 37371, Note_on_c, 13, 54, 0
17, 37380, Note_on_c, 13, 55, 76
17, 37431, Note_on_c, 13, 55, 0
17, 37440, Note_on_c, 13, 57, 76
17, 37664, Note_on_c, 13, 57, 0
17, 37680, Note_on_c, 13, 45, 76
17, 37904, Note_on_c, 13, 45, 0
17, 37920, Note_on_c, 13, 38, 76
17, 38384, Note_on_c, 13, 38, 0
17, 38400, Note_on_c, 13, 57, 76
17, 38519, Note_on_c, 13, 57, 0
17, 38520, Note_on_c, 13, 55, 76
17, 38639, Note_on_c, 13, 55, 0
17, 38640, Note_on_c, 13, 54, 76
17, 38759, Note_on_c, 13, 54, 0
17, 38760, Note_on_c, 13, 52, 76
17, 38864, Note_on_c, 13, 52, 0
17, 38880, Note_on_c, 13, 54, 76
17, 39344, Note_on_c, 13, 54, 0
17, 39360, Note_on_c, 13, 54, 76
17, 39479, Note_on_c, 13, 54, 0
17, 39480, Note_on_c, 13, 52, 76
17, 39599, Note_on_c, 13, 52, 0
17, 39600, Note_on_c, 13, 50, 76
17, 39719, Note_on_c, 13, 50, 0
17, 39720, Note_on_c, 13, 49, 76
17, 39824, Note_on_c, 13, 49, 0
17, 39840, Note_on_c, 13, 50, 76
17, 40304, Note_on_c, 13, 50, 0
17, 40320, Note_on_c, 13, 49, 76
17, 40424, Note_on_c, 13, 49, 0
17, 40440, Note_on_c, 13, 46, 76
17, 40491, Note_on_c, 13, 46, 0
17, 40500, Note_on_c, 13, 47, 76
17, 40551, Note_on_c, 13, 47, 0
17, 40560, Note_on_c, 13, 49, 76
17, 40664, Note_on_c, 13, 49, 0
17, 40680, Note_on_c, 13, 50, 76
17, 40731, Note_on_c, 13, 50, 0
17, 40740, Note_on_c, 13, 52, 76
17, 40791, Note_on_c, 13, 52, 0
17, 40800, Note_on_c, 13, 54, 76
17, 40904, Note_on_c, 13, 54, 0
17, 40920, Note_on_c, 13, 50, 76
17, 40971, Note_on_c, 13, 50, 0
17, 40980, Note_on_c, 13, 52, 76
17, 41031, Note_on_c, 13, 52, 0
17, 41040, Note_on_c, 13, 54, 76
17, 41144, Note_on_c, 13, 54, 0
17, 41160, Note_on_c, 13, 56, 76
17, 41211, Note_on_c, 13, 56, 0
17, 41220, Note_on_c, 13, 58, 76
17, 41271, Note_on_c, 13, 58, 0
17, 41280, Note_on_c, 13, 59, 76
17, 41504, Note_on_c, 13, 59, 0
17, 41520, Note_on_c, 13, 50, 76
17, 41624, Note_on_c, 13, 50, 0
17, 41640, Note_on_c, 13, 52, 76
17, 41744, Note_on_c, 13, 52, 0
17, 41760, Note_on_c, 13, 54, 76
17, 42224, Note_on_c, 13, 54, 0
17, 42240, Note_on_c, 13, 52, 76
17, 42359, Note_on_c, 13, 52, 0
17, 42360, Note_on_c, 13, 50, 76
17, 42464, Note_on_c, 13, 50, 0
17, 42480, Note_on_c, 13, 49, 76
17, 42599, Note_on_c, 13, 49, 0
17, 42600, Note_on_c, 13, 47, 76
17, 42704, Note_on_c, 13, 47, 0
17, 42720, Note_on_c, 13, 57, 76
17, 43184, Note_on_c, 13, 57, 0
17, 43200, Note_on_c, 13, 52, 76
17, 43319, Note_on_c, 13, 52, 0
17, 43320, Note_on_c, 13, 51, 76
17, 43424, Note_on_c, 13, 51, 0
17, 43440, Note_on_c, 13, 49, 76
17, 43559, Note_on_c, 13, 49, 0
17, 43560, Note_on_c, 13, 47, 76
17, 43664, Note_on_c, 13, 47, 0
17, 43680, Note_on_c, 13, 52, 76
17, 44144, Note_on_c, 13, 52, 0
17, 44160, Note_on_c, 13, 55, 76
17, 44279, Note_on_c, 13, 55, 0
17, 44280, Note_on_c, 13, 54, 76
17, 44384, Note_on_c, 13, 54, 0
17, 44400, Note_on_c, 13, 52, 76
17, 44519, Note_on_c, 13, 52, 0
17, 44520, Note_on_c, 13, 50, 76
17, 44624, Note_on_c, 13, 50, 0
17, 44640, Note_on_c, 13, 49, 76
17, 44864, Note_on_c, 13, 49, 0
17, 44880, Note_on_c, 13, 47, 76
17, 45104, Note_on_c, 13, 47, 0
17, 45120, Note_on_c, 13, 54, 76
17, 45344, Note_on_c, 13, 54, 0
17, 45360, Note_on_c, 13, 42, 76
17, 45584, Note_on_c, 13, 42, 0
17, 45600, Note_on_c, 13, 47, 76
17, 46064, Note_on_c, 13, 47, 0
17, 46080, Note_on_c, 13, 50, 76
17, 46304, Note_on_c, 13, 50, 0
17, 46320, Note_on_c, 13, 38, 76
17, 46559, Note_on_c, 13, 38, 0
17, 47040, Note_on_c, 13, 50, 76
17, 47264, Note_on_c, 13, 50, 0
17, 47280, Note_on_c, 13, 38, 76
17, 47519, Note_on_c, 13, 38, 0
17, 48000, Note_on_c, 13, 55, 76
17, 48119, Note_on_c, 13, 55, 0
17, 48120, Note_on_c, 13, 54, 76
17, 48224, Note_on_c, 13, 54, 0
17, 48240, Note_on_c, 13, 52, 76
17, 48359, Note_on_c, 13, 52, 0
17, 48360, Note_on_c, 13, 50, 76
17, 48464, Note_on_c, 13, 50, 0
17, 48480, Note_on_c, 13, 49, 76
17, 48704, Note_on_c, 13, 49, 0
17, 48720, Note_on_c, 13, 45, 76
17, 48944, Note_on_c, 13, 45, 0
17, 48960, Note_on_c, 13, 50, 76
17, 49184, Note_on_c, 13, 50, 0
17, 49200, Note_on_c, 13, 43, 76
17, 49424, Note_on_c, 13, 43, 0
17, 49440, Note_on_c, 13, 45, 76
17, 49919, Note_on_c, 13, 45, 0
17, 50400, Note_on_c, 13, 55, 76
17, 50624, Note_on_c, 13, 55, 0
17, 50640, Note_on_c, 13, 43, 76
17, 50879, Note_on_c, 13, 43, 0
17, 51360, Note_on_c, 13, 57, 76
17, 51584, Note_on_c, 13, 57, 0
17, 51600, Note_on_c, 13, 45, 76
17, 51839, Note_on_c, 13, 45, 0
17, 52320, Note_on_c, 13, 59, 76
17, 52544, Note_on_c, 13, 59, 0
17, 52560, Note_on_c, 13, 47, 76
17, 52799, Note_on_c, 13, 47, 0
17, 53280, Note_on_c, 13, 55, 76
17, 53744, Note_on_c, 13, 55, 0
17, 53760, Note_on_c, 13, 55, 76
17, 53879, Note_on_c, 13, 55, 0
17, 53880, Note_on_c, 13, 54, 76
17, 53984, Note_on_c, 13, 54, 0
17, 54000, Note_on_c, 13, 52, 76
17, 54119, Note_on_c, 13, 52, 0
17, 54120, Note_on_c, 13, 50, 76
17, 54224, Note_on_c, 13, 50, 0
17, 54240, Note_on_c, 13, 57, 76
17, 54704, Note_on_c, 13, 57, 0
17, 54720, Note_on_c, 13, 57, 76
17, 54839, Note_on_c, 13, 57, 0
17, 54840, Note_on_c, 13, 56, 76
17, 54944, Note_on_c, 13, 56, 0
17, 54960, Note_on_c, 13, 54, 76
17, 55079, Note_on_c, 13, 54, 0
17, 55080, Note_on_c, 13, 52, 76
17, 55184, Note_on_c, 13, 52, 0
17, 55200, Note_on_c, 13, 57, 76
17, 55664, Note_on_c, 13, 57, 0
17, 55680, Note_on_c, 13, 54, 76
17, 55784, Note_on_c, 13, 54, 0
17, 55800, Note_on_c, 13, 50, 76
17, 55851, Note_on_c, 13, 50, 0
17, 55860, Note_on_c, 13, 52, 76
17, 55911, Note_on_c, 13, 52, 0
17, 55920, Note_on_c, 13, 54, 76
17, 56024, Note_on_c, 13, 54, 0
17, 56040, Note_on_c, 13, 52, 76
17, 56091, Note_on_c, 13, 52, 0
17, 56100, Note_on_c, 13, 54, 76
17, 56151, Note_on_c, 13, 54, 0
17, 56160, Note_on_c, 13, 55, 76
17, 56279, Note_on_c, 13, 55, 0
17, 56280, Note_on_c, 13, 52, 76
17, 56331, Note_on_c, 13, 52, 0
17, 56340, Note_on_c, 13, 54, 76
17, 56391, Note_on_c, 13, 54, 0
17, 56400, Note_on_c, 13, 55, 76
17, 56504, Note_on_c, 13, 55, 0
17, 56520, Note_on_c, 13, 54, 76
17, 56571, Note_on_c, 13, 54, 0
17, 56580, Note_on_c, 13, 55, 76
17, 56631, Note_on_c, 13, 55, 0
17, 56640, Note_on_c, 13, 57, 76
17, 56864, Note_on_c, 13, 57, 0
17, 56880, Note_on_c, 13, 45, 76
17, 57104, Note_on_c, 13, 45, 0
17, 57120, Note_on_c, 13, 38, 76
17, 57599, Note_on_c, 13, 38, 0
17, 57599, End_track
18, 0, Start_track
18, 0, Title_t, "Harpsichord "
18, 0, MIDI_port, 0
18, 0, Control_c, 14, 10, 64
18, 0, Control_c, 14, 11, 127
18, 0, Control_c, 14, 7, 72
18, 0, Program_c, 14, 6
18, 0, Note_on_c, 14, 50, 76
18, 119, Note_on_c, 14, 50, 0
18, 120, Note_on_c, 14, 52, 76
18, 239, Note_on_c, 14, 52, 0
18, 240, Note_on_c, 14, 54, 76
18, 359, Note_on_c, 14, 54, 0
18, 360, Note_on_c, 14, 55, 76
18, 464, Note_on_c, 14, 55, 0
18, 480, Note_on_c, 14, 57, 76
18, 944, Note_on_c, 14, 57, 0
18, 960, Note_on_c, 14, 55, 76
18, 1079, Note_on_c, 14, 55, 0
18, 1080, Note_on_c, 14, 54, 76
18, 1199, Note_on_c, 14, 54, 0
18, 1200, Note_on_c, 14, 52, 76
18, 1319, Note_on_c, 14, 52, 0
18, 1320, Note_on_c, 14, 50, 76
18, 1424, Note_on_c, 14, 50, 0
18, 1440, Note_on_c, 14, 57, 76
18, 1904, Note_on_c, 14, 57, 0
18, 1920, Note_on_c, 14, 54, 76
18, 2024, Note_on_c, 14, 54, 0
18, 2040, Note_on_c, 14, 50, 76
18, 2091, Note_on_c, 14, 50, 0
18, 2100, Note_on_c, 14, 52, 76
18, 2151, Note_on_c, 14, 52, 0
18, 2160, Note_on_c, 14, 54, 76
18, 2264, Note_on_c, 14, 54, 0
18, 2280, Note_on_c, 14, 52, 76
18, 2331, Note_on_c, 14, 52, 0
18, 2340, Note_on_c, 14, 54, 76
18, 2391, Note_on_c, 14, 54, 0
18, 2400, Note_on_c, 14, 55, 76
18, 2504, Note_on_c, 14, 55, 0
18, 2520, Note_on_c, 14, 52, 76
18, 2571, Note_on_c, 14, 52, 0
18, 2580, Note_on_c, 14, 54, 76
18, 2631, Note_on_c, 14, 54, 0
18, 2640, Note_on_c, 14, 55, 76
18, 2744, Note_on_c, 14, 55, 0
18, 2760, Note_on_c, 14, 54, 76
18, 2811, Note_on_c, 14, 54, 0
18, 2820, Note_on_c, 14, 55, 76
18, 2871, Note_on_c, 14, 55, 0
18, 2880, Note_on_c, 14, 57, 76
18, 3104, Note_on_c, 14, 57, 0
18, 3120, Note_on_c, 14, 45, 76
18, 3344, Note_on_c, 14, 45, 0
18, 3360, Note_on_c, 14, 50, 76
18, 3584, Note_on_c, 14, 50, 0
18, 3600, Note_on_c, 14, 38, 76
18, 3824, Note_on_c, 14, 38, 0
18, 3840, Note_on_c, 14, 50, 76
18, 3959, Note_on_c, 14, 50, 0
18, 3960, Note_on_c, 14, 52, 76
18, 4079, Note_on_c, 14, 52, 0
18, 4080, Note_on_c, 14, 54, 76
18, 4199, Note_on_c, 14, 54, 0
18, 4200, Note_on_c, 14, 55, 76
18, 4304, Note_on_c, 14, 55, 0
18, 4320, Note_on_c, 14, 57, 76
18, 4784, Note_on_c, 14, 57, 0
18, 4800, Note_on_c, 14, 55, 76
18, 4919, Note_on_c, 14, 55, 0
18, 4920, Note_on_c, 14, 54, 76
18, 5039, Note_on_c, 14, 54, 0
18, 5040, Note_on_c, 14, 52, 76
18, 5159, Note_on_c, 14, 52, 0
18, 5160, Note_on_c, 14, 50, 76
18, 5264, Note_on_c, 14, 50, 0
18, 5280, Note_on_c, 14, 57, 76
18, 5744, Note_on_c, 14, 57, 0
18, 5760, Note_on_c, 14, 52, 76
18, 5939, Note_on_c, 14, 52, 0
18, 6000, Note_on_c, 14, 40, 76
18, 6179, Note_on_c, 14, 40, 0
18, 6720, Note_on_c, 14, 52, 76
18, 6899, Note_on_c, 14, 52, 0
18, 6960, Note_on_c, 14, 40, 76
18, 7139, Note_on_c, 14, 40, 0
18, 7680, Note_on_c, 14, 49, 76
18, 7784, Note_on_c, 14, 49, 0
18, 7800, Note_on_c, 14, 45, 76
18, 7851, Note_on_c, 14, 45, 0
18, 7860, Note_on_c, 14, 47, 76
18, 7911, Note_on_c, 14, 47, 0
18, 7920, Note_on_c, 14, 49, 76
18, 8024, Note_on_c, 14, 49, 0
18, 8040, Note_on_c, 14, 47, 76
18, 8091, Note_on_c, 14, 47, 0
18, 8100, Note_on_c, 14, 49, 76
18, 8151, Note_on_c, 14, 49, 0
18, 8160, Note_on_c, 14, 50, 76
18, 8264, Note_on_c, 14, 50, 0
18, 8280, Note_on_c, 14, 47, 76
18, 8331, Note_on_c, 14, 47, 0
18, 8340, Note_on_c, 14, 49, 76
18, 8391, Note_on_c, 14, 49, 0
18, 8400, Note_on_c, 14, 50, 76
18, 8504, Note_on_c, 14, 50, 0
18, 8520, Note_on_c, 14, 49, 76
18, 8571, Note_on_c, 14, 49, 0
18, 8580, Note_on_c, 14, 50, 76
18, 8631, Note_on_c, 14, 50, 0
18, 8640, Note_on_c, 14, 52, 76
18, 8864, Note_on_c, 14, 52, 0
18, 8880, Note_on_c, 14, 40, 76
18, 9104, Note_on_c, 14, 40, 0
18, 9120, Note_on_c, 14, 45, 76
18, 9584, Note_on_c, 14, 45, 0
18, 9600, Note_on_c, 14, 50, 76
18, 9719, Note_on_c, 14, 50, 0
18, 9720, Note_on_c, 14, 52, 76
18, 9839, Note_on_c, 14, 52, 0
18, 9840, Note_on_c, 14, 54, 76
18, 9959, Note_on_c, 14, 54, 0
18, 9960, Note_on_c, 14, 55, 76
18, 10064, Note_on_c, 14, 55, 0
18, 10080, Note_on_c, 14, 57, 76
18, 10544, Note_on_c, 14, 57, 0
18, 10560, Note_on_c, 14, 55, 76
18, 10679, Note_on_c, 14, 55, 0
18, 10680, Note_on_c, 14, 54, 76
18, 10799, Note_on_c, 14, 54, 0
18, 10800, Note_on_c, 14, 52, 76
18, 10919, Note_on_c, 14, 52, 0
18, 10920, Note_on_c, 14, 50, 76
18, 11024, Note_on_c, 14, 50, 0
18, 11040, Note_on_c, 14, 57, 76
18, 11504, Note_on_c, 14, 57, 0
18, 11520, Note_on_c, 14, 54, 76
18, 11624, Note_on_c, 14, 54, 0
18, 11640, Note_on_c, 14, 50, 76
18, 11691, Note_on_c, 14, 50, 0
18, 11700, Note_on_c, 14, 52, 76
18, 11751, Note_on_c, 14, 52, 0
18, 11760, Note_on_c, 14, 54, 76
18, 11864, Note_on_c, 14, 54, 0
18, 11880, Note_on_c, 14, 52, 76
18, 11931, Note_on_c, 14, 52, 0
18, 11940, Note_on_c, 14, 54, 76
18, 11991, Note_on_c, 14, 54, 0
18, 12000, Note_on_c, 14, 55, 76
18, 12104, Note_on_c, 14, 55, 0
18, 12120, Note_on_c, 14, 52, 76
18, 12171, Note_on_c, 14, 52, 0
18, 12180, Note_on_c, 14, 54, 76
18, 12231, Note_on_c, 14, 54, 0
18, 12240, Note_on_c, 14, 55, 76
18, 12344, Note_on_c, 14, 55, 0
18, 12360, Note_on_c, 14, 54, 76
18, 12411, Note_on_c, 14, 54, 0
18, 12420, Note_on_c, 14, 55, 76
18, 12471, Note_on_c, 14, 55, 0
18, 12480, Note_on_c, 14, 57, 76
18, 12704, Note_on_c, 14, 57, 0
18, 12720, Note_on_c, 14, 45, 76
18, 12944, Note_on_c, 14, 45, 0
18, 12960, Note_on_c, 14, 50, 76
18, 13184, Note_on_c, 14, 50, 0
18, 13200, Note_on_c, 14, 38, 76
18, 13424, Note_on_c, 14, 38, 0
18, 13440, Note_on_c, 14, 50, 76
18, 13559, Note_on_c, 14, 50, 0
18, 13560, Note_on_c, 14, 52, 76
18, 13679, Note_on_c, 14, 52, 0
18, 13680, Note_on_c, 14, 54, 76
18, 13799, Note_on_c, 14, 54, 0
18, 13800, Note_on_c, 14, 55, 76
18, 13904, Note_on_c, 14, 55, 0
18, 13920, Note_on_c, 14, 57, 76
18, 14384, Note_on_c, 14, 57, 0
18, 14400, Note_on_c, 14, 55, 76
18, 14519, Note_on_c, 14, 55, 0
18, 14520, Note_on_c, 14, 54, 76
18, 14639, Note_on_c, 14, 54, 0
18, 14640, Note_on_c, 14, 52, 76
18, 14759, Note_on_c, 14, 52, 0
18, 14760, Note_on_c, 14, 50, 76
18, 14864, Note_on_c, 14, 50, 0
18, 14880, Note_on_c, 14, 57, 76
18, 15344, Note_on_c, 14, 57, 0
18, 15360, Note_on_c, 14, 52, 76
18, 15539, Note_on_c, 14, 52, 0
18, 15600, Note_on_c, 14, 40, 76
18, 15779, Note_on_c, 14, 40, 0
18, 16320, Note_on_c, 14, 52, 76
18, 16499, Note_on_c, 14, 52, 0
18, 16560, Note_on_c, 14, 40, 76
18, 16739, Note_on_c, 14, 40, 0
18, 17280, Note_on_c, 14, 49, 76
18, 17384, Note_on_c, 14, 49, 0
18, 17400, Note_on_c, 14, 45, 76
18, 17451, Note_on_c, 14, 45, 0
18, 17460, Note_on_c, 14, 47, 76
18, 17511, Note_on_c, 14, 47, 0
18, 17520, Note_on_c, 14, 49, 76
18, 17624, Note_on_c, 14, 49, 0
18, 17640, Note_on_c, 14, 47, 76
18, 17691, Note_on_c, 14, 47, 0
18, 17700, Note_on_c, 14, 49, 76
18, 17751, Note_on_c, 14, 49, 0
18, 17760, Note_on_c, 14, 50, 76
18, 17864, Note_on_c, 14, 50, 0
18, 17880, Note_on_c, 14, 47, 76
18, 17931, Note_on_c, 14, 47, 0
18, 17940, Note_on_c, 14, 49, 76
18, 17991, Note_on_c, 14, 49, 0
18, 18000, Note_on_c, 14, 50, 76
18, 18104, Note_on_c, 14, 50, 0
18, 18120, Note_on_c, 14, 49, 76
18, 18171, Note_on_c, 14, 49, 0
18, 18180, Note_on_c, 14, 50, 76
18, 18231, Note_on_c, 14, 50, 0
18, 18240, Note_on_c, 14, 52, 76
18, 18464, Note_on_c, 14, 52, 0
18, 18480, Note_on_c, 14, 40, 76
18, 18704, Note_on_c, 14, 40, 0
18, 18720, Note_on_c, 14, 45, 76
18, 19184, Note_on_c, 14, 45, 0
18, 19200, Note_on_c, 14, 57, 76
18, 19319, Note_on_c, 14, 57, 0
18, 19320, Note_on_c, 14, 55, 76
18, 19439, Note_on_c, 14, 55, 0
18, 19440, Note_on_c, 14, 54, 76
18, 19559, Note_on_c, 14, 54, 0
18, 19560, Note_on_c, 14, 52, 76
18, 19664, Note_on_c, 14, 52, 0
18, 19680, Note_on_c, 14, 54, 76
18, 20144, Note_on_c, 14, 54, 0
18, 20160, Note_on_c, 14, 54, 76
18, 20279, Note_on_c, 14, 54, 0
18, 20280, Note_on_c, 14, 52, 76
18, 20399, Note_on_c, 14, 52, 0
18, 20400, Note_on_c, 14, 50, 76
18, 20519, Note_on_c, 14, 50, 0
18, 20520, Note_on_c, 14, 49, 76
18, 20624, Note_on_c, 14, 49, 0
18, 20640, Note_on_c, 14, 50, 76
18, 21104, Note_on_c, 14, 50, 0
18, 21120, Note_on_c, 14, 49, 76
18, 21224, Note_on_c, 14, 49, 0
18, 21240, Note_on_c, 14, 46, 76
18, 21291, Note_on_c, 14, 46, 0
18, 21300, Note_on_c, 14, 47, 76
18, 21351, Note_on_c, 14, 47, 0
18, 21360, Note_on_c, 14, 49, 76
18, 21464, Note_on_c, 14, 49, 0
18, 21480, Note_on_c, 14, 50, 76
18, 21531, Note_on_c, 14, 50, 0
18, 21540, Note_on_c, 14, 52, 76
18, 21591, Note_on_c, 14, 52, 0
18, 21600, Note_on_c, 14, 54, 76
18, 21704, Note_on_c, 14, 54, 0
18, 21720, Note_on_c, 14, 50, 76
18, 21771, Note_on_c, 14, 50, 0
18, 21780, Note_on_c, 14, 52, 76
18, 21831, Note_on_c, 14, 52, 0
18, 21840, Note_on_c, 14, 54, 76
18, 21944, Note_on_c, 14, 54, 0
18, 21960, Note_on_c, 14, 56, 76
18, 22011, Note_on_c, 14, 56, 0
18, 22020, Note_on_c, 14, 58, 76
18, 22071, Note_on_c, 14, 58, 0
18, 22080, Note_on_c, 14, 59, 76
18, 22304, Note_on_c, 14, 59, 0
18, 22320, Note_on_c, 14, 50, 76
18, 22424, Note_on_c, 14, 50, 0
18, 22440, Note_on_c, 14, 52, 76
18, 22544, Note_on_c, 14, 52, 0
18, 22560, Note_on_c, 14, 54, 76
18, 23024, Note_on_c, 14, 54, 0
18, 23040, Note_on_c, 14, 52, 76
18, 23159, Note_on_c, 14, 52, 0
18, 23160, Note_on_c, 14, 50, 76
18, 23264, Note_on_c, 14, 50, 0
18, 23280, Note_on_c, 14, 49, 76
18, 23399, Note_on_c, 14, 49, 0
18, 23400, Note_on_c, 14, 47, 76
18, 23504, Note_on_c, 14, 47, 0
18, 23520, Note_on_c, 14, 57, 76
18, 23984, Note_on_c, 14, 57, 0
18, 24000, Note_on_c, 14, 52, 76
18, 24119, Note_on_c, 14, 52, 0
18, 24120, Note_on_c, 14, 51, 76
18, 24224, Note_on_c, 14, 51, 0
18, 24240, Note_on_c, 14, 49, 76
18, 24359, Note_on_c, 14, 49, 0
18, 24360, Note_on_c, 14, 47, 76
18, 24464, Note_on_c, 14, 47, 0
18, 24480, Note_on_c, 14, 52, 76
18, 24944, Note_on_c, 14, 52, 0
18, 24960, Note_on_c, 14, 55, 76
18, 25079, Note_on_c, 14, 55, 0
18, 25080, Note_on_c, 14, 54, 76
18, 25184, Note_on_c, 14, 54, 0
18, 25200, Note_on_c, 14, 52, 76
18, 25319, Note_on_c, 14, 52, 0
18, 25320, Note_on_c, 14, 50, 76
18, 25424, Note_on_c, 14, 50, 0
18, 25440, Note_on_c, 14, 49, 76
18, 25664, Note_on_c, 14, 49, 0
18, 25680, Note_on_c, 14, 47, 76
18, 25904, Note_on_c, 14, 47, 0
18, 25920, Note_on_c, 14, 54, 76
18, 26144, Note_on_c, 14, 54, 0
18, 26160, Note_on_c, 14, 42, 76
18, 26384, Note_on_c, 14, 42, 0
18, 26400, Note_on_c, 14, 47, 76
18, 26864, Note_on_c, 14, 47, 0
18, 26880, Note_on_c, 14, 50, 76
18, 27104, Note_on_c, 14, 50, 0
18, 27120, Note_on_c, 14, 38, 76
18, 27359, Note_on_c, 14, 38, 0
18, 27840, Note_on_c, 14, 50, 76
18, 28064, Note_on_c, 14, 50, 0
18, 28080, Note_on_c, 14, 38, 76
18, 28319, Note_on_c, 14, 38, 0
18, 28800, Note_on_c, 14, 55, 76
18, 28919, Note_on_c, 14, 55, 0
18, 28920, Note_on_c, 14, 54, 76
18, 29024, Note_on_c, 14, 54, 0
18, 29040, Note_on_c, 14, 52, 76
18, 29159, Note_on_c, 14, 52, 0
18, 29160, Note_on_c, 14, 50, 76
18, 29264, Note_on_c, 14, 50, 0
18, 29280, Note_on_c, 14, 49, 76
18, 29504, Note_on_c, 14, 49, 0
18, 29520, Note_on_c, 14, 45, 76
18, 29744, Note_on_c, 14, 45, 0
18, 29760, Note_on_c, 14, 50, 76
18, 29984, Note_on_c, 14, 50, 0
18, 30000, Note_on_c, 14, 43, 76
18, 30224, Note_on_c, 14, 43, 0
18, 30240, Note_on_c, 14, 45, 76
18, 30719, Note_on_c, 14, 45, 0
18, 31200, Note_on_c, 14, 55, 76
18, 31424, Note_on_c, 14, 55, 0
18, 31440, Note_on_c, 14, 43, 76
18, 31679, Note_on_c, 14, 43, 0
18, 32160, Note_on_c, 14, 57, 76
18, 32384, Note_on_c, 14, 57, 0
18, 32400, Note_on_c, 14, 45, 76
18, 32639, Note_on_c, 14, 45, 0
18, 33120, Note_on_c, 14, 59, 76
18, 33344, Note_on_c, 14, 59, 0
18, 33360, Note_on_c, 14, 47, 76
18, 33599, Note_on_c, 14, 47, 0
18, 34080, Note_on_c, 14, 55, 76
18, 34544, Note_on_c, 14, 55, 0
18, 34560, Note_on_c, 14, 55, 76
18, 34679, Note_on_c, 14, 55, 0
18, 34680, Note_on_c, 14, 54, 76
18, 34784, Note_on_c, 14, 54, 0
18, 34800, Note_on_c, 14, 52, 76
18, 34919, Note_on_c, 14, 52, 0
18, 34920, Note_on_c, 14, 50, 76
18, 35024, Note_on_c, 14, 50, 0
18, 35040, Note_on_c, 14, 57, 76
18, 35504, Note_on_c, 14, 57, 0
18, 35520, Note_on_c, 14, 57, 76
18, 35639, Note_on_c, 14, 57, 0
18, 35640, Note_on_c, 14, 56, 76
18, 35744, Note_on_c, 14, 56, 0
18, 35760, Note_on_c, 14, 54, 76
18, 35879, Note_on_c, 14, 54, 0
18, 35880, Note_on_c, 14, 52, 76
18, 35984, Note_on_c, 14, 52, 0
18, 36000, Note_on_c, 14, 57, 76
18, 36464, Note_on_c, 14, 57, 0
18, 36480, Note_on_c, 14, 54, 76
18, 36584, Note_on_c, 14, 54, 0
18, 36600, Note_on_c, 14, 50, 76
18, 36651, Note_on_c, 14, 50, 0
18, 36660, Note_on_c, 14, 52, 76
18, 36711, Note_on_c, 14, 52, 0
18, 36720, Note_on_c, 14, 54, 76
18, 36824, Note_on_c, 14, 54, 0
18, 36840, Note_on_c, 14, 52, 76
18, 36891, Note_on_c, 14, 52, 0
18, 36900, Note_on_c, 14, 54, 76
18, 36951, Note_on_c, 14, 54, 0
18, 36960, Note_on_c, 14, 55, 76
18, 37079, Note_on_c, 14, 55, 0
18, 37080, Note_on_c, 14, 52, 76
18, 37131, Note_on_c, 14, 52, 0
18, 37140, Note_on_c, 14, 54, 76
18, 37191, Note_on_c, 14, 54, 0
18, 37200, Note_on_c, 14, 55, 76
18, 37304, Note_on_c, 14, 55, 0
18, 37320, Note_on_c, 14, 54, 76
18, 37371, Note_on_c, 14, 54, 0
18, 37380, Note_on_c, 14, 55, 76
18, 37431, Note_on_c, 14, 55, 0
18, 37440, Note_on_c, 14, 57, 76
18, 37664, Note_on_c, 14, 57, 0
18, 37680, Note_on_c, 14, 45, 76
18, 37904, Note_on_c, 14, 45, 0
18, 37920, Note_on_c, 14, 38, 76
18, 38384, Note_on_c, 14, 38, 0
18, 38400, Note_on_c, 14, 57, 76
18, 38519, Note_on_c, 14, 57, 0
18, 38520, Note_on_c, 14, 55, 76
18, 38639, Note_on_c, 14, 55, 0
18, 38640, Note_on_c, 14, 54, 76
18, 38759, Note_on_c, 14, 54, 0
18, 38760, Note_on_c, 14, 52, 76
18, 38864, Note_on_c, 14, 52, 0
18, 38880, Note_on_c, 14, 54, 76
18, 39344, Note_on_c, 14, 54, 0
18, 39360, Note_on_c, 14, 54, 76
18, 39479, Note_on_c, 14, 54, 0
18, 39480, Note_on_c, 14, 52, 76
18, 39599, Note_on_c, 14, 52, 0
18, 39600, Note_on_c, 14, 50, 76
18, 39719, Note_on_c, 14, 50, 0
18, 39720, Note_on_c, 14, 49, 76
18, 39824, Note_on_c, 14, 49, 0
18, 39840, Note_on_c, 14, 50, 76
18, 40304, Note_on_c, 14, 50, 0
18, 40320, Note_on_c, 14, 49, 76
18, 40424, Note_on_c, 14, 49, 0
18, 40440, Note_on_c, 14, 46, 76
18, 40491, Note_on_c, 14, 46, 0
18, 40500, Note_on_c, 14, 47, 76
18, 40551, Note_on_c, 14, 47, 0
18, 40560, Note_on_c, 14, 49, 76
18, 40664, Note_on_c, 14, 49, 0
18, 40680, Note_on_c, 14, 50, 76
18, 40731, Note_on_c, 14, 50, 0
18, 40740, Note_on_c, 14, 52, 76
18, 40791, Note_on_c, 14, 52, 0
18, 40800, Note_on_c, 14, 54, 76
18, 40904, Note_on_c, 14, 54, 0
18, 40920, Note_on_c, 14, 50, 76
18, 40971, Note_on_c, 14, 50, 0
18, 40980, Note_on_c, 14, 52, 76
18, 41031, Note_on_c, 14, 52, 0
18, 41040, Note_on_c, 14, 54, 76
18, 41144, Note_on_c, 14, 54, 0
18, 41160, Note_on_c, 14, 56, 76
18, 41211, Note_on_c, 14, 56, 0
18, 41220, Note_on_c, 14, 58, 76
18, 41271, Note_on_c, 14, 58, 0
18, 41280, Note_on_c, 14, 59, 76
18, 41504, Note_on_c, 14, 59, 0
18, 41520, Note_on_c, 14, 50, 76
18, 41624, Note_on_c, 14, 50, 0
18, 41640, Note_on_c, 14, 52, 76
18, 41744, Note_on_c, 14, 52, 0
18, 41760, Note_on_c, 14, 54, 76
18, 42224, Note_on_c, 14, 54, 0
18, 42240, Note_on_c, 14, 52, 76
18, 42359, Note_on_c, 14, 52, 0
18, 42360, Note_on_c, 14, 50, 76
18, 42464, Note_on_c, 14, 50, 0
18, 42480, Note_on_c, 14, 49, 76
18, 42599, Note_on_c, 14, 49, 0
18, 42600, Note_on_c, 14, 47, 76
18, 42704, Note_on_c, 14, 47, 0
18, 42720, Note_on_c, 14, 57, 76
18, 43184, Note_on_c, 14, 57, 0
18, 43200, Note_on_c, 14, 52, 76
18, 43319, Note_on_c, 14, 52, 0
18, 43320, Note_on_c, 14, 51, 76
18, 43424, Note_on_c, 14, 51, 0
18, 43440, Note_on_c, 14, 49, 76
18, 43559, Note_on_c, 14, 49, 0
18, 43560, Note_on_c, 14, 47, 76
18, 43664, Note_on_c, 14, 47, 0
18, 43680, Note_on_c, 14, 52, 76
18, 44144, Note_on_c, 14, 52, 0
18, 44160, Note_on_c, 14, 55, 76
18, 44279, Note_on_c, 14, 55, 0
18, 44280, Note_on_c, 14, 54, 76
18, 44384, Note_on_c, 14, 54, 0
18, 44400, Note_on_c, 14, 52, 76
18, 44519, Note_on_c, 14, 52, 0
18, 44520, Note_on_c, 14, 50, 76
18, 44624, Note_on_c, 14, 50, 0
18, 44640, Note_on_c, 14, 49, 76
18, 44864, Note_on_c, 14, 49, 0
18, 44880, Note_on_c, 14, 47, 76
18, 45104, Note_on_c, 14, 47, 0
18, 45120, Note_on_c, 14, 54, 76
18, 45344, Note_on_c, 14, 54, 0
18, 45360, Note_on_c, 14, 42, 76
18, 45584, Note_on_c, 14, 42, 0
18, 45600, Note_on_c, 14, 47, 76
18, 46064, Note_on_c, 14, 47, 0
18, 46080, Note_on_c, 14, 50, 76
18, 46304, Note_on_c, 14, 50, 0
18, 46320, Note_on_c, 14, 38, 76
18, 46559, Note_on_c, 14, 38, 0
18, 47040, Note_on_c, 14, 50, 76
18, 47264, Note_on_c, 14, 50, 0
18, 47280, Note_on_c, 14, 38, 76
18, 47519, Note_on_c, 14, 38, 0
18, 48000, Note_on_c, 14, 55, 76
18, 48119, Note_on_c, 14, 55, 0
18, 48120, Note_on_c, 14, 54, 76
18, 48224, Note_on_c, 14, 54, 0
18, 48240, Note_on_c, 14, 52, 76
18, 48359, Note_on_c, 14, 52, 0
18, 48360, Note_on_c, 14, 50, 76
18, 48464, Note_on_c, 14, 50, 0
18, 48480, Note_on_c, 14, 49, 76
18, 48704, Note_on_c, 14, 49, 0
18, 48720, Note_on_c, 14, 45, 76
18, 48944, Note_on_c, 14, 45, 0
18, 48960, Note_on_c, 14, 50, 76
18, 49184, Note_on_c, 14, 50, 0
18, 49200, Note_on_c, 14, 43, 76
18, 49424, Note_on_c, 14, 43, 0
18, 49440, Note_on_c, 14, 45, 76
18, 49919, Note_on_c, 14, 45, 0
18, 50400, Note_on_c, 14, 55, 76
18, 50624, Note_on_c, 14, 55, 0
18, 50640, Note_on_c, 14, 43, 76
18, 50879, Note_on_c, 14, 43, 0
18, 51360, Note_on_c, 14, 57, 76
18, 51584, Note_on_c, 14, 57, 0
18, 51600, Note_on_c, 14, 45, 76
18, 51839, Note_on_c, 14, 45, 0
18, 52320, Note_on_c, 14, 59, 76
18, 52544, Note_on_c, 14, 59, 0
18, 52560, Note_on_c, 14, 47, 76
18, 52799, Note_on_c, 14, 47, 0
18, 53280, Note_on_c, 14, 55, 76
18, 53744, Note_on_c, 14, 55, 0
18, 53760, Note_on_c, 14, 55, 76
18, 53879, Note_on_c, 14, 55, 0
18, 53880, Note_on_c, 14, 54, 76
18, 53984, Note_on_c, 14, 54, 0
18, 54000, Note_on_c, 14, 52, 76
18, 54119, Note_on_c, 14, 52, 0
18, 54120, Note_on_c, 14, 50, 76
18, 54224, Note_on_c, 14, 50, 0
18, 54240, Note_on_c, 14, 57, 76
18, 54704, Note_on_c, 14, 57, 0
18, 54720, Note_on_c, 14, 57, 76
18, 54839, Note_on_c, 14, 57, 0
18, 54840, Note_on_c, 14, 56, 76
18, 54944, Note_on_c, 14, 56, 0
18, 54960, Note_on_c, 14, 54, 76
18, 55079, Note_on_c, 14, 54, 0
18, 55080, Note_on_c, 14, 52, 76
18, 55184, Note_on_c, 14, 52, 0
18, 55200, Note_on_c, 14, 57, 76
18, 55664, Note_on_c, 14, 57, 0
18, 55680, Note_on_c, 14, 54, 76
18, 55784, Note_on_c, 14, 54, 0
18, 55800, Note_on_c, 14, 50, 76
18, 55851, Note_on_c, 14, 50, 0
18, 55860, Note_on_c, 14, 52, 76
18, 55911, Note_on_c, 14, 52, 0
18, 55920, Note_on_c, 14, 54, 76
18, 56024, Note_on_c, 14, 54, 0
18, 56040, Note_on_c, 14, 52, 76
18, 56091, Note_on_c, 14, 52, 0
18, 56100, Note_on_c, 14, 54, 76
18, 56151, Note_on_c, 14, 54, 0
18, 56160, Note_on_c, 14, 55, 76
18, 56279, Note_on_c, 14, 55, 0
18, 56280, Note_on_c, 14, 52, 76
18, 56331, Note_on_c, 14, 52, 0
18, 56340, Note_on_c, 14, 54, 76
18, 56391, Note_on_c, 14, 54, 0
18, 56400, Note_on_c, 14, 55, 76
18, 56504, Note_on_c, 14, 55, 0
18, 56520, Note_on_c, 14, 54, 76
18, 56571, Note_on_c, 14, 54, 0
18, 56580, Note_on_c, 14, 55, 76
18, 56631, Note_on_c, 14, 55, 0
18, 56640, Note_on_c, 14, 57, 76
18, 56864, Note_on_c, 14, 57, 0
18, 56880, Note_on_c, 14, 45, 76
18, 57104, Note_on_c, 14, 45, 0
18, 57120, Note_on_c, 14, 38, 76
18, 57599, Note_on_c, 14, 38, 0
18, 57599, End_track
19, 0, Start_track
19, 0, Title_t, "Johann Sebastian Bach - Orchestral Suite No. 4 in D Major, BWV1069 - No. 3 Gavotte"
19, 0, MIDI_port, 0
19, 0, End_track
0, 0, End_of_file
